<?xml version="1.0" encoding="UTF-8"?>
<svg xmlns="http://www.w3.org/2000/svg" xmlns:xlink="http://www.w3.org/1999/xlink" width="28pt" height="28pt" viewBox="0 0 28 28" version="1.1">
<g id="surface1">
<path style=" stroke:none;fill-rule:nonzero;fill:rgb(0%,0%,0%);fill-opacity:1;" d="M 27.601562 13.070312 L 19.273438 4.742188 C 18.765625 4.234375 17.941406 4.234375 17.433594 4.742188 C 16.925781 5.253906 16.925781 6.074219 17.433594 6.585938 L 23.539062 12.691406 L 1.300781 12.691406 C 0.582031 12.691406 0 13.273438 0 13.992188 C 0 14.710938 0.582031 15.292969 1.300781 15.292969 L 23.539062 15.292969 L 17.433594 21.398438 C 16.925781 21.90625 16.925781 22.730469 17.433594 23.238281 C 17.6875 23.492188 18.023438 23.621094 18.355469 23.621094 C 18.6875 23.621094 19.019531 23.492188 19.273438 23.238281 L 27.601562 14.910156 C 28.109375 14.402344 28.109375 13.578125 27.601562 13.070312 Z M 27.601562 13.070312 "/>
</g>
</svg>
