<?xml version="1.0" encoding="UTF-8"?>
<svg xmlns="http://www.w3.org/2000/svg" xmlns:xlink="http://www.w3.org/1999/xlink" width="28pt" height="28pt" viewBox="0 0 28 28" version="1.1">
<g id="surface1">
<path style=" stroke:none;fill-rule:nonzero;fill:rgb(0%,0%,0%);fill-opacity:1;" d="M 25.582031 23.617188 L 23.578125 20.277344 C 22.65625 18.738281 22.167969 16.972656 22.167969 15.175781 L 22.167969 12.25 C 22.167969 7.746094 18.503906 4.082031 14 4.082031 C 9.496094 4.082031 5.832031 7.746094 5.832031 12.25 L 5.832031 15.175781 C 5.832031 16.972656 5.34375 18.738281 4.421875 20.277344 L 2.417969 23.617188 C 2.308594 23.796875 2.304688 24.023438 2.40625 24.203125 C 2.511719 24.386719 2.707031 24.5 2.917969 24.5 L 25.082031 24.5 C 25.292969 24.5 25.488281 24.386719 25.59375 24.203125 C 25.695312 24.023438 25.691406 23.796875 25.582031 23.617188 Z M 3.945312 23.332031 L 5.421875 20.878906 C 6.453125 19.15625 7 17.183594 7 15.175781 L 7 12.25 C 7 8.390625 10.140625 5.25 14 5.25 C 17.859375 5.25 21 8.390625 21 12.25 L 21 15.175781 C 21 17.183594 21.546875 19.15625 22.578125 20.878906 L 24.054688 23.332031 Z M 3.945312 23.332031 "/>
<path style=" stroke:none;fill-rule:nonzero;fill:rgb(0%,0%,0%);fill-opacity:1;" d="M 14 0 C 12.714844 0 11.667969 1.046875 11.667969 2.332031 L 11.667969 4.667969 C 11.667969 4.988281 11.929688 5.25 12.25 5.25 C 12.570312 5.25 12.832031 4.988281 12.832031 4.667969 L 12.832031 2.332031 C 12.832031 1.6875 13.355469 1.167969 14 1.167969 C 14.644531 1.167969 15.167969 1.6875 15.167969 2.332031 L 15.167969 4.667969 C 15.167969 4.988281 15.429688 5.25 15.75 5.25 C 16.070312 5.25 16.332031 4.988281 16.332031 4.667969 L 16.332031 2.332031 C 16.332031 1.046875 15.285156 0 14 0 Z M 14 0 "/>
<path style=" stroke:none;fill-rule:nonzero;fill:rgb(0%,0%,0%);fill-opacity:1;" d="M 16.523438 23.621094 C 16.359375 23.34375 16.003906 23.253906 15.726562 23.414062 C 15.445312 23.574219 15.351562 23.933594 15.515625 24.210938 C 15.667969 24.46875 15.75 24.777344 15.75 25.082031 C 15.75 26.046875 14.964844 26.832031 14 26.832031 C 13.035156 26.832031 12.25 26.046875 12.25 25.082031 C 12.25 24.777344 12.335938 24.46875 12.484375 24.210938 C 12.648438 23.933594 12.554688 23.574219 12.277344 23.414062 C 11.996094 23.253906 11.640625 23.34375 11.476562 23.621094 C 11.21875 24.0625 11.082031 24.566406 11.082031 25.082031 C 11.082031 26.691406 12.390625 28 14 28 C 15.609375 28 16.917969 26.691406 16.917969 25.082031 C 16.917969 24.566406 16.78125 24.0625 16.523438 23.621094 Z M 16.523438 23.621094 "/>
</g>
</svg>
