<?xml version="1.0" encoding="UTF-8" standalone="no"?>
<!-- Created with Inkscape (http://www.inkscape.org/) -->

<svg
   version="1.1"
   id="svg840"
   xml:space="preserve"
   width="250"
   height="150"
   viewBox="0 0 250 150"
   sodipodi:docname="04.svg"
   inkscape:version="1.1 (c4e8f9e, 2021-05-24)"
   xmlns:inkscape="http://www.inkscape.org/namespaces/inkscape"
   xmlns:sodipodi="http://sodipodi.sourceforge.net/DTD/sodipodi-0.dtd"
   xmlns="http://www.w3.org/2000/svg"
   xmlns:svg="http://www.w3.org/2000/svg"><defs
     id="defs844"><clipPath
       clipPathUnits="userSpaceOnUse"
       id="clipPath864"><path
         d="M 0,0 H 21.26 V 21.26 H 0 Z"
         id="path862" /></clipPath><clipPath
       clipPathUnits="userSpaceOnUse"
       id="clipPath876"><path
         d="M 0,0 H 21.26 V 21.26 H 0 Z"
         id="path874" /></clipPath><clipPath
       clipPathUnits="userSpaceOnUse"
       id="clipPath888"><path
         d="M 0,0 H 21.26 V 21.26 H 0 Z"
         id="path886" /></clipPath><clipPath
       clipPathUnits="userSpaceOnUse"
       id="clipPath900"><path
         d="M 0,0 H 21.26 V 21.26 H 0 Z"
         id="path898" /></clipPath><clipPath
       clipPathUnits="userSpaceOnUse"
       id="clipPath912"><path
         d="M 0,0 H 21.26 V 21.26 H 0 Z"
         id="path910" /></clipPath><clipPath
       clipPathUnits="userSpaceOnUse"
       id="clipPath924"><path
         d="M 0,0 H 21.26 V 21.26 H 0 Z"
         id="path922" /></clipPath><clipPath
       clipPathUnits="userSpaceOnUse"
       id="clipPath936"><path
         d="M 0,0 H 21.26 V 21.26 H 0 Z"
         id="path934" /></clipPath><clipPath
       clipPathUnits="userSpaceOnUse"
       id="clipPath948"><path
         d="M 0,0 H 21.26 V 21.26 H 0 Z"
         id="path946" /></clipPath><clipPath
       clipPathUnits="userSpaceOnUse"
       id="clipPath960"><path
         d="M 0,0 H 21.26 V 21.26 H 0 Z"
         id="path958" /></clipPath><clipPath
       clipPathUnits="userSpaceOnUse"
       id="clipPath972"><path
         d="M 0,0 H 21.26 V 21.26 H 0 Z"
         id="path970" /></clipPath><clipPath
       clipPathUnits="userSpaceOnUse"
       id="clipPath984"><path
         d="M 0,0 H 21.26 V 21.26 H 0 Z"
         id="path982" /></clipPath><clipPath
       clipPathUnits="userSpaceOnUse"
       id="clipPath996"><path
         d="M 0,0 H 21.26 V 21.26 H 0 Z"
         id="path994" /></clipPath><clipPath
       clipPathUnits="userSpaceOnUse"
       id="clipPath1014"><path
         d="M 0,0 H 21.26 V 21.26 H 0 Z"
         id="path1012" /></clipPath><clipPath
       clipPathUnits="userSpaceOnUse"
       id="clipPath1026"><path
         d="M 0,0 H 21.26 V 21.26 H 0 Z"
         id="path1024" /></clipPath><clipPath
       clipPathUnits="userSpaceOnUse"
       id="clipPath1042"><path
         d="M 0,0 H 21.26 V 21.26 H 0 Z"
         id="path1040" /></clipPath><clipPath
       clipPathUnits="userSpaceOnUse"
       id="clipPath1054"><path
         d="M 0,0 H 21.26 V 21.26 H 0 Z"
         id="path1052" /></clipPath><clipPath
       clipPathUnits="userSpaceOnUse"
       id="clipPath1070"><path
         d="M 0,0 H 21.26 V 21.26 H 0 Z"
         id="path1068" /></clipPath><clipPath
       clipPathUnits="userSpaceOnUse"
       id="clipPath1082"><path
         d="M 0,0 H 21.26 V 21.26 H 0 Z"
         id="path1080" /></clipPath><clipPath
       clipPathUnits="userSpaceOnUse"
       id="clipPath1098"><path
         d="M 0,0 H 21.26 V 21.26 H 0 Z"
         id="path1096" /></clipPath><clipPath
       clipPathUnits="userSpaceOnUse"
       id="clipPath1110"><path
         d="M 0,0 H 21.26 V 21.26 H 0 Z"
         id="path1108" /></clipPath><clipPath
       clipPathUnits="userSpaceOnUse"
       id="clipPath1126"><path
         d="M 0,0 H 21.26 V 21.26 H 0 Z"
         id="path1124" /></clipPath><clipPath
       clipPathUnits="userSpaceOnUse"
       id="clipPath1138"><path
         d="M 0,0 H 21.26 V 21.26 H 0 Z"
         id="path1136" /></clipPath><clipPath
       clipPathUnits="userSpaceOnUse"
       id="clipPath1154"><path
         d="M 0,0 H 21.26 V 21.26 H 0 Z"
         id="path1152" /></clipPath><clipPath
       clipPathUnits="userSpaceOnUse"
       id="clipPath1166"><path
         d="M 0,0 H 21.26 V 21.26 H 0 Z"
         id="path1164" /></clipPath><clipPath
       clipPathUnits="userSpaceOnUse"
       id="clipPath1182"><path
         d="M 0,0 H 21.26 V 21.26 H 0 Z"
         id="path1180" /></clipPath><clipPath
       clipPathUnits="userSpaceOnUse"
       id="clipPath1194"><path
         d="M 0,0 H 21.26 V 21.26 H 0 Z"
         id="path1192" /></clipPath><clipPath
       clipPathUnits="userSpaceOnUse"
       id="clipPath1210"><path
         d="M 0,0 H 21.26 V 21.26 H 0 Z"
         id="path1208" /></clipPath><clipPath
       clipPathUnits="userSpaceOnUse"
       id="clipPath1222"><path
         d="M 0,0 H 21.26 V 21.26 H 0 Z"
         id="path1220" /></clipPath><clipPath
       clipPathUnits="userSpaceOnUse"
       id="clipPath1238"><path
         d="M 0,0 H 21.26 V 21.26 H 0 Z"
         id="path1236" /></clipPath><clipPath
       clipPathUnits="userSpaceOnUse"
       id="clipPath1250"><path
         d="M 0,0 H 21.26 V 21.26 H 0 Z"
         id="path1248" /></clipPath><clipPath
       clipPathUnits="userSpaceOnUse"
       id="clipPath1266"><path
         d="M 0,0 H 21.26 V 21.26 H 0 Z"
         id="path1264" /></clipPath><clipPath
       clipPathUnits="userSpaceOnUse"
       id="clipPath1278"><path
         d="M 0,0 H 21.26 V 21.26 H 0 Z"
         id="path1276" /></clipPath><clipPath
       clipPathUnits="userSpaceOnUse"
       id="clipPath1294"><path
         d="M 0,0 H 21.26 V 21.26 H 0 Z"
         id="path1292" /></clipPath><clipPath
       clipPathUnits="userSpaceOnUse"
       id="clipPath1306"><path
         d="M 0,0 H 21.26 V 21.26 H 0 Z"
         id="path1304" /></clipPath><clipPath
       clipPathUnits="userSpaceOnUse"
       id="clipPath1322"><path
         d="M 0,0 H 21.26 V 21.26 H 0 Z"
         id="path1320" /></clipPath><clipPath
       clipPathUnits="userSpaceOnUse"
       id="clipPath1334"><path
         d="M 0,0 H 21.26 V 21.26 H 0 Z"
         id="path1332" /></clipPath><clipPath
       clipPathUnits="userSpaceOnUse"
       id="clipPath1350"><path
         d="M 0,0 H 48.39 V 13.19 H 0 Z"
         id="path1348" /></clipPath><clipPath
       clipPathUnits="userSpaceOnUse"
       id="clipPath1362"><path
         d="M 0,0 H 36.29 V 9.89 H 0 Z"
         id="path1360" /></clipPath><clipPath
       clipPathUnits="userSpaceOnUse"
       id="clipPath1374"><path
         d="M 0,0 H 29.25 V 9.89 H 0 Z"
         id="path1372" /></clipPath><clipPath
       clipPathUnits="userSpaceOnUse"
       id="clipPath1388"><path
         d="M 0,0 H 34.5 V 9.89 H 0 Z"
         id="path1386" /></clipPath><clipPath
       clipPathUnits="userSpaceOnUse"
       id="clipPath4526"><path
         d="M 0,0 H 48.39 V 13.19 H 0 Z"
         id="path4524" /></clipPath><clipPath
       clipPathUnits="userSpaceOnUse"
       id="clipPath4538"><path
         d="M 0,0 H 36.29 V 9.89 H 0 Z"
         id="path4536" /></clipPath><clipPath
       clipPathUnits="userSpaceOnUse"
       id="clipPath4550"><path
         d="M 0,0 H 29.25 V 9.89 H 0 Z"
         id="path4548" /></clipPath><clipPath
       clipPathUnits="userSpaceOnUse"
       id="clipPath4564"><path
         d="M 0,0 H 34.5 V 9.89 H 0 Z"
         id="path4562" /></clipPath><clipPath
       clipPathUnits="userSpaceOnUse"
       id="clipPath4498"><path
         d="M 0,0 H 21.26 V 21.26 H 0 Z"
         id="path4496" /></clipPath><clipPath
       clipPathUnits="userSpaceOnUse"
       id="clipPath4510"><path
         d="M 0,0 H 21.26 V 21.26 H 0 Z"
         id="path4508" /></clipPath><clipPath
       clipPathUnits="userSpaceOnUse"
       id="clipPath4470"><path
         d="M 0,0 H 21.26 V 21.26 H 0 Z"
         id="path4468" /></clipPath><clipPath
       clipPathUnits="userSpaceOnUse"
       id="clipPath4482"><path
         d="M 0,0 H 21.26 V 21.26 H 0 Z"
         id="path4480" /></clipPath><clipPath
       clipPathUnits="userSpaceOnUse"
       id="clipPath4442"><path
         d="M 0,0 H 21.26 V 21.26 H 0 Z"
         id="path4440" /></clipPath><clipPath
       clipPathUnits="userSpaceOnUse"
       id="clipPath4454"><path
         d="M 0,0 H 21.26 V 21.26 H 0 Z"
         id="path4452" /></clipPath><clipPath
       clipPathUnits="userSpaceOnUse"
       id="clipPath4414"><path
         d="M 0,0 H 21.26 V 21.26 H 0 Z"
         id="path4412" /></clipPath><clipPath
       clipPathUnits="userSpaceOnUse"
       id="clipPath4426"><path
         d="M 0,0 H 21.26 V 21.26 H 0 Z"
         id="path4424" /></clipPath><clipPath
       clipPathUnits="userSpaceOnUse"
       id="clipPath4386"><path
         d="M 0,0 H 21.26 V 21.26 H 0 Z"
         id="path4384" /></clipPath><clipPath
       clipPathUnits="userSpaceOnUse"
       id="clipPath4398"><path
         d="M 0,0 H 21.26 V 21.26 H 0 Z"
         id="path4396" /></clipPath><clipPath
       clipPathUnits="userSpaceOnUse"
       id="clipPath4358"><path
         d="M 0,0 H 21.26 V 21.26 H 0 Z"
         id="path4356" /></clipPath><clipPath
       clipPathUnits="userSpaceOnUse"
       id="clipPath4370"><path
         d="M 0,0 H 21.26 V 21.26 H 0 Z"
         id="path4368" /></clipPath><clipPath
       clipPathUnits="userSpaceOnUse"
       id="clipPath4330"><path
         d="M 0,0 H 21.26 V 21.26 H 0 Z"
         id="path4328" /></clipPath><clipPath
       clipPathUnits="userSpaceOnUse"
       id="clipPath4342"><path
         d="M 0,0 H 21.26 V 21.26 H 0 Z"
         id="path4340" /></clipPath><clipPath
       clipPathUnits="userSpaceOnUse"
       id="clipPath4302"><path
         d="M 0,0 H 21.26 V 21.26 H 0 Z"
         id="path4300" /></clipPath><clipPath
       clipPathUnits="userSpaceOnUse"
       id="clipPath4314"><path
         d="M 0,0 H 21.26 V 21.26 H 0 Z"
         id="path4312" /></clipPath><clipPath
       clipPathUnits="userSpaceOnUse"
       id="clipPath4274"><path
         d="M 0,0 H 21.26 V 21.26 H 0 Z"
         id="path4272" /></clipPath><clipPath
       clipPathUnits="userSpaceOnUse"
       id="clipPath4286"><path
         d="M 0,0 H 21.26 V 21.26 H 0 Z"
         id="path4284" /></clipPath><clipPath
       clipPathUnits="userSpaceOnUse"
       id="clipPath4246"><path
         d="M 0,0 H 21.26 V 21.26 H 0 Z"
         id="path4244" /></clipPath><clipPath
       clipPathUnits="userSpaceOnUse"
       id="clipPath4258"><path
         d="M 0,0 H 21.26 V 21.26 H 0 Z"
         id="path4256" /></clipPath><clipPath
       clipPathUnits="userSpaceOnUse"
       id="clipPath4218"><path
         d="M 0,0 H 21.26 V 21.26 H 0 Z"
         id="path4216" /></clipPath><clipPath
       clipPathUnits="userSpaceOnUse"
       id="clipPath4230"><path
         d="M 0,0 H 21.26 V 21.26 H 0 Z"
         id="path4228" /></clipPath><clipPath
       clipPathUnits="userSpaceOnUse"
       id="clipPath4190"><path
         d="M 0,0 H 21.26 V 21.26 H 0 Z"
         id="path4188" /></clipPath><clipPath
       clipPathUnits="userSpaceOnUse"
       id="clipPath4202"><path
         d="M 0,0 H 21.26 V 21.26 H 0 Z"
         id="path4200" /></clipPath><clipPath
       clipPathUnits="userSpaceOnUse"
       id="clipPath4176"><path
         d="M 0,0 H 21.26 V 21.26 H 0 Z"
         id="path4174" /></clipPath><clipPath
       clipPathUnits="userSpaceOnUse"
       id="clipPath4164"><path
         d="M 0,0 H 21.26 V 21.26 H 0 Z"
         id="path4162" /></clipPath><clipPath
       clipPathUnits="userSpaceOnUse"
       id="clipPath4152"><path
         d="M 0,0 H 21.26 V 21.26 H 0 Z"
         id="path4150" /></clipPath><clipPath
       clipPathUnits="userSpaceOnUse"
       id="clipPath4140"><path
         d="M 0,0 H 21.26 V 21.26 H 0 Z"
         id="path4138" /></clipPath><clipPath
       clipPathUnits="userSpaceOnUse"
       id="clipPath4128"><path
         d="M 0,0 H 21.26 V 21.26 H 0 Z"
         id="path4126" /></clipPath><clipPath
       clipPathUnits="userSpaceOnUse"
       id="clipPath4116"><path
         d="M 0,0 H 21.26 V 21.26 H 0 Z"
         id="path4114" /></clipPath><clipPath
       clipPathUnits="userSpaceOnUse"
       id="clipPath4104"><path
         d="M 0,0 H 21.26 V 21.26 H 0 Z"
         id="path4102" /></clipPath><clipPath
       clipPathUnits="userSpaceOnUse"
       id="clipPath4092"><path
         d="M 0,0 H 21.26 V 21.26 H 0 Z"
         id="path4090" /></clipPath><clipPath
       clipPathUnits="userSpaceOnUse"
       id="clipPath4080"><path
         d="M 0,0 H 21.26 V 21.26 H 0 Z"
         id="path4078" /></clipPath><clipPath
       clipPathUnits="userSpaceOnUse"
       id="clipPath4068"><path
         d="M 0,0 H 21.26 V 21.26 H 0 Z"
         id="path4066" /></clipPath><clipPath
       clipPathUnits="userSpaceOnUse"
       id="clipPath4056"><path
         d="M 0,0 H 21.26 V 21.26 H 0 Z"
         id="path4054" /></clipPath><clipPath
       clipPathUnits="userSpaceOnUse"
       id="clipPath4044"><path
         d="M 0,0 H 21.26 V 21.26 H 0 Z"
         id="path4042" /></clipPath></defs><sodipodi:namedview
     id="namedview842"
     pagecolor="#ffffff"
     bordercolor="#666666"
     borderopacity="1.0"
     inkscape:pageshadow="2"
     inkscape:pageopacity="0.0"
     inkscape:pagecheckerboard="0"
     showgrid="false"
     width="65px"
     inkscape:zoom="0.78392781"
     inkscape:cx="27.425995"
     inkscape:cy="-250.02302"
     inkscape:window-width="1920"
     inkscape:window-height="1200"
     inkscape:window-x="0"
     inkscape:window-y="0"
     inkscape:window-maximized="0"
     inkscape:current-layer="g846" /><g
     id="g846"
     inkscape:groupmode="layer"
     inkscape:label="mdot_18_aaa (44)"
     transform="matrix(1.3333333,0,0,-1.3333333,0,1152.76)"><g
       id="g856"
       transform="translate(62.78,739.7)"><g
         id="g858"><g
           id="g860"
           clip-path="url(#clipPath864)"><g
             id="g866"
             transform="matrix(1,0,0,-1,0,21.26)" /></g></g></g><g
       id="g868"
       transform="translate(130.81,739.7)"><g
         id="g870"><g
           id="g872"
           clip-path="url(#clipPath876)"><g
             id="g878"
             transform="matrix(1,0,0,-1,0,21.26)" /></g></g></g><g
       id="g880"
       transform="translate(198.84,739.7)"><g
         id="g882"><g
           id="g884"
           clip-path="url(#clipPath888)"><g
             id="g890"
             transform="matrix(1,0,0,-1,0,21.26)" /></g></g></g><g
       id="g892"
       transform="translate(62.78,671.67)"><g
         id="g894"><g
           id="g896"
           clip-path="url(#clipPath900)"><g
             id="g902"
             transform="matrix(1,0,0,-1,0,21.26)" /></g></g></g><g
       id="g904"
       transform="translate(130.81,671.67)"><g
         id="g906"><g
           id="g908"
           clip-path="url(#clipPath912)"><g
             id="g914"
             transform="matrix(1,0,0,-1,0,21.26)" /></g></g></g><g
       id="g916"
       transform="translate(198.84,671.67)"><g
         id="g918"><g
           id="g920"
           clip-path="url(#clipPath924)"><g
             id="g926"
             transform="matrix(1,0,0,-1,0,21.26)" /></g></g></g><g
       id="g928"
       transform="translate(62.78,603.64)"><g
         id="g930"><g
           id="g932"
           clip-path="url(#clipPath936)"><g
             id="g938"
             transform="matrix(1,0,0,-1,0,21.26)" /></g></g></g><g
       id="g940"
       transform="translate(130.81,603.64)"><g
         id="g942"><g
           id="g944"
           clip-path="url(#clipPath948)"><g
             id="g950"
             transform="matrix(1,0,0,-1,0,21.26)" /></g></g></g><g
       id="g952"
       transform="translate(198.84,603.64)"><g
         id="g954"><g
           id="g956"
           clip-path="url(#clipPath960)"><g
             id="g962"
             transform="matrix(1,0,0,-1,0,21.26)" /></g></g></g><g
       id="g964"
       transform="translate(62.78,535.61)"><g
         id="g966"><g
           id="g968"
           clip-path="url(#clipPath972)"><g
             id="g974"
             transform="matrix(1,0,0,-1,0,21.26)" /></g></g></g><g
       id="g976"
       transform="translate(130.81,535.61)"><g
         id="g978"><g
           id="g980"
           clip-path="url(#clipPath984)"><g
             id="g986"
             transform="matrix(1,0,0,-1,0,21.26)" /></g></g></g><g
       id="g988"
       transform="translate(198.84,535.61)"><g
         id="g990"><g
           id="g992"
           clip-path="url(#clipPath996)"><g
             id="g998"
             transform="matrix(1,0,0,-1,0,21.26)" /></g></g></g><g
       id="g4036"
       transform="translate(72.704836,1134.6182)"><g
         id="g4038"><g
           id="g4040"
           clip-path="url(#clipPath4044)"><g
             id="g4046"
             transform="matrix(1,0,0,-1,0,21.26)" /></g></g></g><g
       id="g4048"
       transform="translate(140.74483,1134.6182)"><g
         id="g4050"><g
           id="g4052"
           clip-path="url(#clipPath4056)"><g
             id="g4058"
             transform="matrix(1,0,0,-1,0,21.26)" /></g></g></g><g
       id="g4060"
       transform="translate(208.77483,1134.6182)"><g
         id="g4062"><g
           id="g4064"
           clip-path="url(#clipPath4068)"><g
             id="g4070"
             transform="matrix(1,0,0,-1,0,21.26)" /></g></g></g><g
       id="g4072"
       transform="translate(72.704836,1077.9282)"><g
         id="g4074"><g
           id="g4076"
           clip-path="url(#clipPath4080)"><g
             id="g4082"
             transform="matrix(1,0,0,-1,0,21.26)" /></g></g></g><g
       id="g4084"
       transform="translate(140.74483,1077.9282)"><g
         id="g4086"><g
           id="g4088"
           clip-path="url(#clipPath4092)"><g
             id="g4094"
             transform="matrix(1,0,0,-1,0,21.26)" /></g></g></g><g
       id="g4096"
       transform="translate(208.77483,1077.9282)"><g
         id="g4098"><g
           id="g4100"
           clip-path="url(#clipPath4104)"><g
             id="g4106"
             transform="matrix(1,0,0,-1,0,21.26)" /></g></g></g><g
       id="g4108"
       transform="translate(72.704836,1021.2282)"><g
         id="g4110"><g
           id="g4112"
           clip-path="url(#clipPath4116)"><g
             id="g4118"
             transform="matrix(1,0,0,-1,0,21.26)" /></g></g></g><g
       id="g4120"
       transform="translate(140.74483,1021.2282)"><g
         id="g4122"><g
           id="g4124"
           clip-path="url(#clipPath4128)"><g
             id="g4130"
             transform="matrix(1,0,0,-1,0,21.26)" /></g></g></g><g
       id="g4132"
       transform="translate(208.77483,1021.2282)"><g
         id="g4134"><g
           id="g4136"
           clip-path="url(#clipPath4140)"><g
             id="g4142"
             transform="matrix(1,0,0,-1,0,21.26)" /></g></g></g><g
       id="g4144"
       transform="translate(72.704836,964.53823)"><g
         id="g4146"><g
           id="g4148"
           clip-path="url(#clipPath4152)"><g
             id="g4154"
             transform="matrix(1,0,0,-1,0,21.26)" /></g></g></g><g
       id="g4156"
       transform="translate(140.74483,964.53823)"><g
         id="g4158"><g
           id="g4160"
           clip-path="url(#clipPath4164)"><g
             id="g4166"
             transform="matrix(1,0,0,-1,0,21.26)" /></g></g></g><g
       id="g4168"
       transform="translate(208.77483,964.53823)"><g
         id="g4170"><g
           id="g4172"
           clip-path="url(#clipPath4176)"><g
             id="g4178"
             transform="matrix(1,0,0,-1,0,21.26)" /></g></g></g><g
       id="g6328"
       transform="translate(-51.121692,-180.16947)"><g
         id="g4350"
         transform="translate(65.914836,1006.4082)"><g
           id="g4352"><g
             id="g4354"
             clip-path="url(#clipPath4358)"><g
               id="g4360"
               transform="matrix(1,0,0,-1,0,21.26)"><g
                 id="g4362"><g
                   id="g4364"><g
                     id="g4366"
                     clip-path="url(#clipPath4370)"><g
                       id="g4372"><g
                         id="g4374"><path
                           d="M 3.42,1.05 H 17.58 V 3.08 L 9.34,19.95 H 6.59 L 14.66,3.4 H 5.77 L 5.75,6.13 H 3.42 Z"
                           style="fill:#000000;fill-opacity:1;fill-rule:nonzero;stroke:none"
                           id="path4376" /></g></g></g></g></g></g></g></g></g><g
         id="g4378"
         transform="translate(133.94483,1006.4082)"><g
           id="g4380"><g
             id="g4382"
             clip-path="url(#clipPath4386)"><g
               id="g4388"
               transform="matrix(1,0,0,-1,0,21.26)"><g
                 id="g4390"><g
                   id="g4392"><g
                     id="g4394"
                     clip-path="url(#clipPath4398)"><g
                       id="g4400"><g
                         id="g4402"><path
                           d="m 10.47,0.92871 c 1.91,0 3.41,0.43129 4.51,1.29129 1.1,0.85 1.65,2.02 1.65,3.51 0,0.94 -0.26,1.77 -0.78,2.49 -0.51,0.7 -1.22,1.24 -2.14,1.62 1.21,0.38 2.15,0.99 2.84,1.83 0.68,0.83 1.03,1.82 1.03,2.98 0,1.67 -0.65,2.99 -1.92,3.96 -1.26,0.97 -2.98,1.46 -5.16,1.46 -2.18,0 -3.91,-0.48 -5.18,-1.43 -1.27,-0.97 -1.9,-2.29 -1.9,-3.94 0,-1.17 0.36,-2.18 1.06,-3.03 C 5.18,10.83 6.15,10.22 7.39,9.84 6.42,9.42 5.67,8.87 5.13,8.17 4.61,7.44 4.34,6.61 4.34,5.65 4.34,4.2 4.89,3.04 5.99,2.2 7.09,1.35 8.58,0.92871 10.47,0.92871 Z M 10.5,2.82 C 9.26,2.82 8.29,3.09 7.58,3.63 6.9,4.17 6.56,4.92 6.56,5.87 c 0,0.97 0.34,1.73 1.02,2.27 0.71,0.54 1.68,0.81 2.92,0.81 1.24,0 2.21,-0.27 2.89,-0.81 0.68,-0.54 1.02,-1.3 1.02,-2.27 0,-0.95 -0.34,-1.7 -1.02,-2.24 C 12.71,3.09 11.74,2.82 10.5,2.82 Z M 10.47,11 c -1.44,0 -2.56,0.31 -3.37,0.92 -0.81,0.59 -1.22,1.42 -1.22,2.48 0,1.14 0.41,2.02 1.22,2.65 0.81,0.63 1.94,0.94 3.4,0.94 1.44,0 2.57,-0.31 3.38,-0.94 0.82,-0.63 1.24,-1.51 1.24,-2.62 0,-1.06 -0.42,-1.9 -1.24,-2.51 C 13.07,11.31 11.93,11 10.47,11 Z"
                           style="fill:#000000;fill-opacity:1;fill-rule:nonzero;stroke:none"
                           id="path4404" /></g></g></g></g></g></g></g></g></g><g
         id="g4406"
         transform="translate(201.97483,1006.4082)"><g
           id="g4408"><g
             id="g4410"
             clip-path="url(#clipPath4414)"><g
               id="g4416"
               transform="matrix(1,0,0,-1,0,21.26)"><g
                 id="g4418"><g
                   id="g4420"><g
                     id="g4422"
                     clip-path="url(#clipPath4426)"><g
                       id="g4428"><g
                         id="g4430"><path
                           d="m 5.13,16.7 c 0.61,0.37 1.28,0.67 2.02,0.89 0.76,0.2 1.5,0.3 2.24,0.3 1.8,0 3.18,-0.63 4.13,-1.9 0.98,-1.27 1.46,-3.01 1.46,-5.21 0,-0.34 -0.01,-0.6 -0.02,-0.78 -0.46,1.04 -1.15,1.84 -2.08,2.38 -0.92,0.54 -2.04,0.81 -3.35,0.81 C 7.66,13.19 6.18,12.65 5.1,11.57 4.02,10.49 3.48,9.03 3.48,7.19 3.48,5.92 3.75,4.81 4.29,3.87 4.83,2.92 5.59,2.19 6.56,1.68 7.55,1.18 8.69,0.92871 9.99,0.92871 c 1.54,0 2.89,0.36129 4.02,1.08129 1.13,0.72 2,1.76 2.59,3.13 0.61,1.37 0.92,3.01 0.92,4.91 0,2 -0.32,3.76 -0.97,5.27 -0.65,1.51 -1.58,2.68 -2.78,3.51 -1.21,0.83 -2.61,1.24 -4.22,1.24 -0.88,0 -1.81,-0.12 -2.8,-0.38 C 5.76,19.42 4.88,19.08 4.1,18.67 Z M 10.15,3.17 C 8.87,3.17 7.85,3.53 7.07,4.25 6.3,4.97 5.91,5.96 5.91,7.22 c 0,1.19 0.37,2.13 1.11,2.83 0.73,0.71 1.73,1.06 2.97,1.06 0.91,0 1.71,-0.18 2.37,-0.54 0.69,-0.38 1.21,-0.88 1.57,-1.49 0.36,-0.63 0.54,-1.3 0.54,-2.02 0,-0.61 -0.16,-1.22 -0.49,-1.81 C 13.68,4.64 13.2,4.14 12.55,3.76 11.9,3.37 11.1,3.17 10.15,3.17 Z"
                           style="fill:#000000;fill-opacity:1;fill-rule:nonzero;stroke:none"
                           id="path4432" /></g></g></g></g></g></g></g></g></g><g
         id="g4434"
         transform="translate(65.914836,949.71823)"><g
           id="g4436"><g
             id="g4438"
             clip-path="url(#clipPath4442)"><g
               id="g4444"
               transform="matrix(1,0,0,-1,0,21.26)"><g
                 id="g4446"><g
                   id="g4448"><g
                     id="g4450"
                     clip-path="url(#clipPath4454)"><g
                       id="g4456"><g
                         id="g4458"><path
                           d="m 11.79,10.48 8.06,-8.06 c 0.37,-0.38 0.37,-0.94 0,-1.32 -0.38,-0.3793 -0.95,-0.3793 -1.33,0 L 10.46,9.16 2.4,1.1 C 2.02,0.7207 1.46,0.7207 1.08,1.1 0.7002,1.48 0.7002,2.04 1.08,2.42 l 8.06,8.06 -8.06,8.06 c -0.3798,0.38 -0.3798,0.95 0,1.33 0.19,0.18 0.41,0.3 0.68,0.3 0.23,0 0.49,-0.12 0.68,-0.3 l 8.06,-8.06 8.06,8.06 c 0.19,0.18 0.42,0.3 0.68,0.3 0.23,0 0.49,-0.12 0.68,-0.3 0.38,-0.38 0.38,-0.95 0,-1.33 l -8.06,-8.06 z"
                           style="fill:#000000;fill-opacity:1;fill-rule:nonzero;stroke:#000000;stroke-width:1.21;stroke-linecap:butt;stroke-linejoin:miter;stroke-miterlimit:10;stroke-dasharray:none;stroke-opacity:1"
                           id="path4460" /></g></g></g></g></g></g></g></g></g><g
         id="g4462"
         transform="translate(133.94483,949.71823)"><g
           id="g4464"><g
             id="g4466"
             clip-path="url(#clipPath4470)"><g
               id="g4472"
               transform="matrix(1,0,0,-1,0,21.26)"><g
                 id="g4474"><g
                   id="g4476"><g
                     id="g4478"
                     clip-path="url(#clipPath4482)"><g
                       id="g4484"><g
                         id="g4486"><path
                           d="m 10.5,0.92871 c 2.54,0 4.49,0.83129 5.86,2.48129 1.37,1.64 2.05,4 2.05,7.08 0,3.07 -0.68,5.44 -2.05,7.1 -1.37,1.65 -3.32,2.48 -5.86,2.48 -2.55,0 -4.52,-0.83 -5.89,-2.48 C 3.26,15.93 2.59,13.56 2.59,10.49 2.59,7.41 3.26,5.05 4.61,3.41 5.98,1.76 7.95,0.92871 10.5,0.92871 Z m 0,2.05129 c -3.49,0 -5.24,2.5 -5.24,7.51 0,2.48 0.44,4.35 1.33,5.61 0.88,1.26 2.18,1.89 3.91,1.89 1.73,0 3.03,-0.63 3.91,-1.89 0.89,-1.26 1.33,-3.13 1.33,-5.61 0,-5.01 -1.75,-7.51 -5.24,-7.51 z"
                           style="fill:#000000;fill-opacity:1;fill-rule:nonzero;stroke:none"
                           id="path4488" /></g></g></g></g></g></g></g></g></g><g
         id="g4490"
         transform="translate(201.97483,949.71823)"><g
           id="g4492"><g
             id="g4494"
             clip-path="url(#clipPath4498)"><g
               id="g4500"
               transform="matrix(1,0,0,-1,0,21.26)"><g
                 id="g4502"><g
                   id="g4504"><g
                     id="g4506"
                     clip-path="url(#clipPath4510)"><g
                       id="g4512"><g
                         id="g4514"><path
                           d="M 20.34,3.37 C 19.95,2.98 19.29,2.98 18.9,3.37 L 6.78,15.49 2.12,10.83 c -0.4,-0.4 -1.05,-0.4 -1.44031,0 -0.39258,0.39 -0.39258,1.04 0,1.43 L 6.05,17.63 c 0.39,0.39 1.04,0.39 1.43,0 L 20.32,4.79 c 0.39,-0.39 0.39,-1.04 0,-1.44 z"
                           style="fill:#000000;fill-opacity:1;fill-rule:evenodd;stroke:#000000;stroke-width:0.58118;stroke-linecap:butt;stroke-linejoin:miter;stroke-miterlimit:10;stroke-dasharray:none;stroke-opacity:1"
                           id="path4516" /></g></g></g></g></g></g></g></g></g></g></g></svg>
