<?xml version="1.0" encoding="UTF-8" standalone="no"?>
<!-- Created with Inkscape (http://www.inkscape.org/) -->

<svg
   version="1.1"
   id="svg840"
   xml:space="preserve"
   width="250"
   height="150"
   viewBox="0 0 250 150"
   sodipodi:docname="set1.svg"
   inkscape:version="1.1 (c4e8f9e, 2021-05-24)"
   xmlns:inkscape="http://www.inkscape.org/namespaces/inkscape"
   xmlns:sodipodi="http://sodipodi.sourceforge.net/DTD/sodipodi-0.dtd"
   xmlns="http://www.w3.org/2000/svg"
   xmlns:svg="http://www.w3.org/2000/svg"><defs
     id="defs844"><clipPath
       clipPathUnits="userSpaceOnUse"
       id="clipPath864"><path
         d="M 0,0 H 21.26 V 21.26 H 0 Z"
         id="path862" /></clipPath><clipPath
       clipPathUnits="userSpaceOnUse"
       id="clipPath876"><path
         d="M 0,0 H 21.26 V 21.26 H 0 Z"
         id="path874" /></clipPath><clipPath
       clipPathUnits="userSpaceOnUse"
       id="clipPath888"><path
         d="M 0,0 H 21.26 V 21.26 H 0 Z"
         id="path886" /></clipPath><clipPath
       clipPathUnits="userSpaceOnUse"
       id="clipPath900"><path
         d="M 0,0 H 21.26 V 21.26 H 0 Z"
         id="path898" /></clipPath><clipPath
       clipPathUnits="userSpaceOnUse"
       id="clipPath912"><path
         d="M 0,0 H 21.26 V 21.26 H 0 Z"
         id="path910" /></clipPath><clipPath
       clipPathUnits="userSpaceOnUse"
       id="clipPath924"><path
         d="M 0,0 H 21.26 V 21.26 H 0 Z"
         id="path922" /></clipPath><clipPath
       clipPathUnits="userSpaceOnUse"
       id="clipPath936"><path
         d="M 0,0 H 21.26 V 21.26 H 0 Z"
         id="path934" /></clipPath><clipPath
       clipPathUnits="userSpaceOnUse"
       id="clipPath948"><path
         d="M 0,0 H 21.26 V 21.26 H 0 Z"
         id="path946" /></clipPath><clipPath
       clipPathUnits="userSpaceOnUse"
       id="clipPath960"><path
         d="M 0,0 H 21.26 V 21.26 H 0 Z"
         id="path958" /></clipPath><clipPath
       clipPathUnits="userSpaceOnUse"
       id="clipPath972"><path
         d="M 0,0 H 21.26 V 21.26 H 0 Z"
         id="path970" /></clipPath><clipPath
       clipPathUnits="userSpaceOnUse"
       id="clipPath984"><path
         d="M 0,0 H 21.26 V 21.26 H 0 Z"
         id="path982" /></clipPath><clipPath
       clipPathUnits="userSpaceOnUse"
       id="clipPath996"><path
         d="M 0,0 H 21.26 V 21.26 H 0 Z"
         id="path994" /></clipPath><clipPath
       clipPathUnits="userSpaceOnUse"
       id="clipPath1014"><path
         d="M 0,0 H 21.26 V 21.26 H 0 Z"
         id="path1012" /></clipPath><clipPath
       clipPathUnits="userSpaceOnUse"
       id="clipPath1026"><path
         d="M 0,0 H 21.26 V 21.26 H 0 Z"
         id="path1024" /></clipPath><clipPath
       clipPathUnits="userSpaceOnUse"
       id="clipPath1042"><path
         d="M 0,0 H 21.26 V 21.26 H 0 Z"
         id="path1040" /></clipPath><clipPath
       clipPathUnits="userSpaceOnUse"
       id="clipPath1054"><path
         d="M 0,0 H 21.26 V 21.26 H 0 Z"
         id="path1052" /></clipPath><clipPath
       clipPathUnits="userSpaceOnUse"
       id="clipPath1070"><path
         d="M 0,0 H 21.26 V 21.26 H 0 Z"
         id="path1068" /></clipPath><clipPath
       clipPathUnits="userSpaceOnUse"
       id="clipPath1082"><path
         d="M 0,0 H 21.26 V 21.26 H 0 Z"
         id="path1080" /></clipPath><clipPath
       clipPathUnits="userSpaceOnUse"
       id="clipPath1098"><path
         d="M 0,0 H 21.26 V 21.26 H 0 Z"
         id="path1096" /></clipPath><clipPath
       clipPathUnits="userSpaceOnUse"
       id="clipPath1110"><path
         d="M 0,0 H 21.26 V 21.26 H 0 Z"
         id="path1108" /></clipPath><clipPath
       clipPathUnits="userSpaceOnUse"
       id="clipPath1126"><path
         d="M 0,0 H 21.26 V 21.26 H 0 Z"
         id="path1124" /></clipPath><clipPath
       clipPathUnits="userSpaceOnUse"
       id="clipPath1138"><path
         d="M 0,0 H 21.26 V 21.26 H 0 Z"
         id="path1136" /></clipPath><clipPath
       clipPathUnits="userSpaceOnUse"
       id="clipPath1154"><path
         d="M 0,0 H 21.26 V 21.26 H 0 Z"
         id="path1152" /></clipPath><clipPath
       clipPathUnits="userSpaceOnUse"
       id="clipPath1166"><path
         d="M 0,0 H 21.26 V 21.26 H 0 Z"
         id="path1164" /></clipPath><clipPath
       clipPathUnits="userSpaceOnUse"
       id="clipPath1182"><path
         d="M 0,0 H 21.26 V 21.26 H 0 Z"
         id="path1180" /></clipPath><clipPath
       clipPathUnits="userSpaceOnUse"
       id="clipPath1194"><path
         d="M 0,0 H 21.26 V 21.26 H 0 Z"
         id="path1192" /></clipPath><clipPath
       clipPathUnits="userSpaceOnUse"
       id="clipPath1210"><path
         d="M 0,0 H 21.26 V 21.26 H 0 Z"
         id="path1208" /></clipPath><clipPath
       clipPathUnits="userSpaceOnUse"
       id="clipPath1222"><path
         d="M 0,0 H 21.26 V 21.26 H 0 Z"
         id="path1220" /></clipPath><clipPath
       clipPathUnits="userSpaceOnUse"
       id="clipPath1238"><path
         d="M 0,0 H 21.26 V 21.26 H 0 Z"
         id="path1236" /></clipPath><clipPath
       clipPathUnits="userSpaceOnUse"
       id="clipPath1250"><path
         d="M 0,0 H 21.26 V 21.26 H 0 Z"
         id="path1248" /></clipPath><clipPath
       clipPathUnits="userSpaceOnUse"
       id="clipPath1266"><path
         d="M 0,0 H 21.26 V 21.26 H 0 Z"
         id="path1264" /></clipPath><clipPath
       clipPathUnits="userSpaceOnUse"
       id="clipPath1278"><path
         d="M 0,0 H 21.26 V 21.26 H 0 Z"
         id="path1276" /></clipPath><clipPath
       clipPathUnits="userSpaceOnUse"
       id="clipPath1294"><path
         d="M 0,0 H 21.26 V 21.26 H 0 Z"
         id="path1292" /></clipPath><clipPath
       clipPathUnits="userSpaceOnUse"
       id="clipPath1306"><path
         d="M 0,0 H 21.26 V 21.26 H 0 Z"
         id="path1304" /></clipPath><clipPath
       clipPathUnits="userSpaceOnUse"
       id="clipPath1322"><path
         d="M 0,0 H 21.26 V 21.26 H 0 Z"
         id="path1320" /></clipPath><clipPath
       clipPathUnits="userSpaceOnUse"
       id="clipPath1334"><path
         d="M 0,0 H 21.26 V 21.26 H 0 Z"
         id="path1332" /></clipPath><clipPath
       clipPathUnits="userSpaceOnUse"
       id="clipPath1350"><path
         d="M 0,0 H 48.39 V 13.19 H 0 Z"
         id="path1348" /></clipPath><clipPath
       clipPathUnits="userSpaceOnUse"
       id="clipPath1362"><path
         d="M 0,0 H 36.29 V 9.89 H 0 Z"
         id="path1360" /></clipPath><clipPath
       clipPathUnits="userSpaceOnUse"
       id="clipPath1374"><path
         d="M 0,0 H 29.25 V 9.89 H 0 Z"
         id="path1372" /></clipPath><clipPath
       clipPathUnits="userSpaceOnUse"
       id="clipPath1388"><path
         d="M 0,0 H 34.5 V 9.89 H 0 Z"
         id="path1386" /></clipPath></defs><sodipodi:namedview
     id="namedview842"
     pagecolor="#ffffff"
     bordercolor="#666666"
     borderopacity="1.0"
     inkscape:pageshadow="2"
     inkscape:pageopacity="0.0"
     inkscape:pagecheckerboard="0"
     showgrid="false"
     width="65px"
     inkscape:zoom="0.78392781"
     inkscape:cx="402.46053"
     inkscape:cy="40.182271"
     inkscape:window-width="1920"
     inkscape:window-height="1147"
     inkscape:window-x="0"
     inkscape:window-y="25"
     inkscape:window-maximized="1"
     inkscape:current-layer="g846" /><g
     id="g846"
     inkscape:groupmode="layer"
     inkscape:label="mdot_18_aaa (44)"
     transform="matrix(1.3333333,0,0,-1.3333333,0,1152.76)"><g
       id="g856"
       transform="translate(62.78,739.7)"><g
         id="g858"><g
           id="g860"
           clip-path="url(#clipPath864)"><g
             id="g866"
             transform="matrix(1,0,0,-1,0,21.26)" /></g></g></g><g
       id="g868"
       transform="translate(130.81,739.7)"><g
         id="g870"><g
           id="g872"
           clip-path="url(#clipPath876)"><g
             id="g878"
             transform="matrix(1,0,0,-1,0,21.26)" /></g></g></g><g
       id="g880"
       transform="translate(198.84,739.7)"><g
         id="g882"><g
           id="g884"
           clip-path="url(#clipPath888)"><g
             id="g890"
             transform="matrix(1,0,0,-1,0,21.26)" /></g></g></g><g
       id="g892"
       transform="translate(62.78,671.67)"><g
         id="g894"><g
           id="g896"
           clip-path="url(#clipPath900)"><g
             id="g902"
             transform="matrix(1,0,0,-1,0,21.26)" /></g></g></g><g
       id="g904"
       transform="translate(130.81,671.67)"><g
         id="g906"><g
           id="g908"
           clip-path="url(#clipPath912)"><g
             id="g914"
             transform="matrix(1,0,0,-1,0,21.26)" /></g></g></g><g
       id="g916"
       transform="translate(198.84,671.67)"><g
         id="g918"><g
           id="g920"
           clip-path="url(#clipPath924)"><g
             id="g926"
             transform="matrix(1,0,0,-1,0,21.26)" /></g></g></g><g
       id="g928"
       transform="translate(62.78,603.64)"><g
         id="g930"><g
           id="g932"
           clip-path="url(#clipPath936)"><g
             id="g938"
             transform="matrix(1,0,0,-1,0,21.26)" /></g></g></g><g
       id="g940"
       transform="translate(130.81,603.64)"><g
         id="g942"><g
           id="g944"
           clip-path="url(#clipPath948)"><g
             id="g950"
             transform="matrix(1,0,0,-1,0,21.26)" /></g></g></g><g
       id="g952"
       transform="translate(198.84,603.64)"><g
         id="g954"><g
           id="g956"
           clip-path="url(#clipPath960)"><g
             id="g962"
             transform="matrix(1,0,0,-1,0,21.26)" /></g></g></g><g
       id="g964"
       transform="translate(62.78,535.61)"><g
         id="g966"><g
           id="g968"
           clip-path="url(#clipPath972)"><g
             id="g974"
             transform="matrix(1,0,0,-1,0,21.26)" /></g></g></g><g
       id="g976"
       transform="translate(130.81,535.61)"><g
         id="g978"><g
           id="g980"
           clip-path="url(#clipPath984)"><g
             id="g986"
             transform="matrix(1,0,0,-1,0,21.26)" /></g></g></g><g
       id="g988"
       transform="translate(198.84,535.61)"><g
         id="g990"><g
           id="g992"
           clip-path="url(#clipPath996)"><g
             id="g998"
             transform="matrix(1,0,0,-1,0,21.26)" /></g></g></g><g
       id="g1174"
       transform="translate(14.841007,829.90363)"><g
         id="g1176"><g
           id="g1178"
           clip-path="url(#clipPath1182)"><g
             id="g1184"
             transform="matrix(1,0,0,-1,0,21.26)"><g
               id="g1186"><g
                 id="g1188"><g
                   id="g1190"
                   clip-path="url(#clipPath1194)"><g
                     id="g1196"><g
                       id="g1198"><path
                         d="M 15.93,2.84 V 3.3 c -0.05,0.1 -0.05,0.26 -0.05,0.36 -0.05,0.1 -0.05,0.26 -0.11,0.36 -0.05,0.1 -0.1,0.2 -0.15,0.36 L 9.46,18.6 c -0.05,0.1 -0.1,0.2 -0.15,0.26 -0.1,0.05 -0.15,0.1 -0.26,0.15 -0.1,0.05 -0.26,0.05 -0.41,0.1 H 8.08 c -0.31,0 -0.57,0 -0.72,-0.05 C 7.2,19.06 7.05,19.01 7,18.96 6.9,18.91 6.9,18.8 6.9,18.75 c 0,-0.1 0.05,-0.2 0.1,-0.3 L 13.46,3.86 H 5.26 C 5.1,3.86 4.95,3.76 4.9,3.61 4.79,3.45 4.74,3.2 4.74,2.84 4.74,2.68 4.74,2.53 4.79,2.43 4.79,2.32 4.85,2.22 4.9,2.12 4.95,2.02 5,1.97 5.05,1.91 5.1,1.86 5.15,1.86 5.26,1.86 h 10 c 0.1,0 0.21,0 0.31,0.05 0.1,0 0.15,0.06 0.2,0.16 0.06,0.1 0.11,0.15 0.11,0.31 0.05,0.1 0.05,0.25 0.05,0.46 z"
                         style="fill:#000000;fill-opacity:1;fill-rule:nonzero;stroke:none"
                         id="path1200" /></g></g></g></g></g></g></g></g></g><g
       id="g1202"
       transform="translate(82.881007,829.90363)"><g
         id="g1204"><g
           id="g1206"
           clip-path="url(#clipPath1210)"><g
             id="g1212"
             transform="matrix(1,0,0,-1,0,21.26)"><g
               id="g1214"><g
                 id="g1216"><g
                   id="g1218"
                   clip-path="url(#clipPath1222)"><g
                     id="g1224"><g
                       id="g1226"><path
                         d="m 16.23,14.55 c 0,0.75 -0.15,1.4 -0.4,1.96 -0.25,0.55 -0.65,1.05 -1.1,1.45 -0.5,0.35 -1.1,0.65 -1.8,0.85 -0.75,0.2 -1.56,0.3 -2.46,0.3 -0.9,0 -1.65,-0.1 -2.35,-0.25 -0.66,-0.2 -1.26,-0.45 -1.71,-0.8 -0.5,-0.35 -0.85,-0.8 -1.1,-1.31 -0.25,-0.55 -0.4,-1.15 -0.4,-1.8 0,-0.5 0.1,-1 0.3,-1.45 0.15,-0.4 0.4,-0.86 0.7,-1.21 0.35,-0.35 0.75,-0.7 1.2,-1.05 0.5,-0.3 1.06,-0.6 1.66,-0.9 C 8.21,10.04 7.76,9.79 7.36,9.48 6.96,9.18 6.61,8.83 6.36,8.53 6.06,8.13 5.86,7.78 5.71,7.38 5.56,6.98 5.51,6.58 5.51,6.07 c 0,-0.55 0.1,-1.1 0.3,-1.65 0.25,-0.5 0.55,-0.95 1,-1.31 0.4,-0.39 0.95,-0.7 1.61,-0.9 0.65,-0.25 1.45,-0.35 2.3,-0.35 0.85,0 1.61,0.1 2.21,0.3 0.65,0.2 1.15,0.5 1.55,0.85 0.4,0.36 0.7,0.76 0.85,1.21 0.2,0.5 0.3,1 0.3,1.55 0,0.46 -0.05,0.86 -0.2,1.26 -0.15,0.4 -0.35,0.8 -0.65,1.15 -0.25,0.35 -0.6,0.7 -1,1 -0.4,0.35 -0.85,0.65 -1.4,0.91 0.65,0.3 1.2,0.6 1.65,0.95 0.5,0.3 0.9,0.65 1.2,1 0.35,0.4 0.56,0.75 0.75,1.16 0.15,0.45 0.25,0.9 0.25,1.35 z m -2.8,-8.58 c 0,-0.35 -0.05,-0.7 -0.2,-1 -0.1,-0.3 -0.3,-0.55 -0.5,-0.75 -0.26,-0.2 -0.55,-0.35 -0.91,-0.45 -0.4,-0.1 -0.8,-0.15 -1.25,-0.15 -0.95,0 -1.65,0.2 -2.1,0.6 -0.5,0.45 -0.76,1 -0.76,1.75 0,0.36 0.1,0.66 0.21,0.96 0.1,0.25 0.29,0.55 0.55,0.8 0.25,0.25 0.55,0.5 0.9,0.75 0.4,0.25 0.85,0.5 1.35,0.8 0.91,-0.45 1.56,-0.95 2.01,-1.5 0.5,-0.55 0.7,-1.15 0.7,-1.81 z m 0.55,8.83 c 0,-0.4 -0.1,-0.75 -0.25,-1.05 -0.1,-0.36 -0.35,-0.65 -0.65,-0.96 -0.3,-0.25 -0.66,-0.55 -1.11,-0.8 -0.45,-0.25 -0.95,-0.5 -1.55,-0.8 -0.55,0.25 -1,0.5 -1.45,0.8 -0.4,0.25 -0.71,0.55 -1,0.8 -0.26,0.31 -0.46,0.6 -0.61,0.91 -0.1,0.35 -0.2,0.7 -0.2,1.05 0,0.85 0.3,1.5 0.91,1.96 0.55,0.45 1.4,0.7 2.55,0.7 1.1,0 1.96,-0.25 2.51,-0.7 0.55,-0.46 0.85,-1.11 0.85,-1.91 z"
                         style="fill:#000000;fill-opacity:1;fill-rule:nonzero;stroke:none"
                         id="path1228" /></g></g></g></g></g></g></g></g></g><g
       id="g1230"
       transform="translate(150.91101,829.90363)"><g
         id="g1232"><g
           id="g1234"
           clip-path="url(#clipPath1238)"><g
             id="g1240"
             transform="matrix(1,0,0,-1,0,21.26)"><g
               id="g1242"><g
                 id="g1244"><g
                   id="g1246"
                   clip-path="url(#clipPath1250)"><g
                     id="g1252"><g
                       id="g1254"><path
                         d="m 16.06,9.81 c 0,0.7 -0.05,1.45 -0.1,2.2 -0.1,0.76 -0.25,1.46 -0.45,2.16 -0.2,0.65 -0.5,1.3 -0.86,1.91 -0.35,0.6 -0.8,1.1 -1.3,1.55 -0.55,0.45 -1.15,0.8 -1.9,1.11 -0.75,0.24 -1.56,0.35 -2.56,0.35 -0.35,0 -0.7,0 -1.05,-0.05 C 7.49,18.98 7.14,18.93 6.88,18.83 6.59,18.79 6.33,18.69 6.18,18.64 5.99,18.53 5.83,18.48 5.73,18.38 5.68,18.33 5.58,18.18 5.58,18.08 5.53,17.93 5.53,17.78 5.53,17.53 v -0.45 c 0,-0.1 0.05,-0.2 0.05,-0.25 0.05,-0.05 0.05,-0.1 0.1,-0.15 h 0.2 c 0.11,0 0.2,0 0.4,0.1 0.15,0.05 0.41,0.1 0.66,0.2 0.25,0.05 0.55,0.15 0.9,0.2 0.35,0.05 0.75,0.1 1.2,0.1 0.85,0 1.55,-0.15 2.16,-0.5 0.6,-0.3 1.1,-0.75 1.5,-1.26 0.35,-0.55 0.65,-1.2 0.85,-1.9 0.2,-0.7 0.3,-1.45 0.3,-2.26 -0.45,0.25 -1,0.51 -1.65,0.7 -0.65,0.21 -1.35,0.31 -2.21,0.31 -0.95,0 -1.7,-0.1 -2.35,-0.36 C 6.99,11.77 6.49,11.41 6.13,10.96 5.73,10.51 5.43,10.01 5.28,9.36 5.13,8.76 5.03,8.1 5.03,7.4 5.03,6.65 5.13,5.95 5.33,5.3 5.58,4.59 5.88,4.04 6.38,3.49 c 0.45,-0.5 1.01,-0.9 1.76,-1.2 0.7,-0.3 1.55,-0.45 2.51,-0.45 0.7,0 1.3,0.1 1.85,0.25 0.55,0.2 1,0.45 1.4,0.8 0.4,0.3 0.75,0.7 1.01,1.2 0.3,0.45 0.5,1 0.7,1.61 0.15,0.55 0.3,1.2 0.35,1.9 0.05,0.71 0.1,1.46 0.1,2.21 z M 13.8,9.56 C 13.8,8.46 13.75,7.55 13.6,6.75 13.45,6 13.25,5.4 12.95,4.95 12.65,4.49 12.3,4.14 11.9,3.94 11.5,3.74 11,3.64 10.44,3.64 9.89,3.64 9.39,3.74 8.99,3.94 8.59,4.14 8.29,4.39 8.04,4.74 7.79,5.09 7.59,5.45 7.49,5.9 7.34,6.35 7.29,6.75 7.29,7.25 c 0,0.5 0.05,0.95 0.15,1.4 0.1,0.41 0.3,0.76 0.55,1.06 0.25,0.3 0.55,0.5 0.95,0.7 0.35,0.15 0.85,0.2 1.4,0.2 0.66,0 1.31,-0.1 1.91,-0.3 0.6,-0.15 1.1,-0.45 1.55,-0.75 z"
                         style="fill:#000000;fill-opacity:1;fill-rule:nonzero;stroke:none"
                         id="path1256" /></g></g></g></g></g></g></g></g></g><g
       id="g1258"
       transform="translate(14.841007,761.87363)"><g
         id="g1260"><g
           id="g1262"
           clip-path="url(#clipPath1266)"><g
             id="g1268"
             transform="matrix(1,0,0,-1,0,21.26)"><g
               id="g1270"><g
                 id="g1272"><g
                   id="g1274"
                   clip-path="url(#clipPath1278)"><g
                     id="g1280"><g
                       id="g1282"><path
                         d="m 13,10.5 7.48,-7.49 c 0.69,-0.69 0.69,-1.8 0,-2.49437 -0.69,-0.68848 -1.8,-0.68848 -2.49,0 L 10.5,8 3.01,0.51563 c -0.69,-0.68848 -1.8,-0.68848 -2.49437,0 C -0.17285,1.21 -0.17285,2.32 0.51563,3.01 L 8,10.5 0.51563,17.99 c -0.68848,0.69 -0.68848,1.8 0,2.49 C 1.21,21.17 2.32,21.17 3.01,20.48 L 10.5,13 l 7.49,7.48 c 0.69,0.69 1.8,0.69 2.49,0 0.69,-0.69 0.69,-1.8 0,-2.49 z"
                         style="fill:#000000;fill-opacity:1;fill-rule:evenodd;stroke:none"
                         id="path1284" /></g></g></g></g></g></g></g></g></g><g
       id="g1286"
       transform="translate(82.881007,761.87363)"><g
         id="g1288"><g
           id="g1290"
           clip-path="url(#clipPath1294)"><g
             id="g1296"
             transform="matrix(1,0,0,-1,0,21.26)"><g
               id="g1298"><g
                 id="g1300"><g
                   id="g1302"
                   clip-path="url(#clipPath1306)"><g
                     id="g1308"><g
                       id="g1310"><path
                         d="m 16.97,10.41 c 0,1.3 -0.12,2.46 -0.34,3.51 -0.23,1.11 -0.57,2.01 -1.14,2.76 -0.51,0.75 -1.19,1.36 -2.1,1.76 -0.85,0.45 -1.87,0.65 -3.17,0.65 -1.19,0 -2.16,-0.2 -3.01,-0.55 C 6.42,18.14 5.74,17.58 5.22,16.88 4.77,16.13 4.37,15.23 4.2,14.17 3.98,13.12 3.86,11.87 3.86,10.51 3.86,9.21 3.98,8.05 4.2,7 4.49,5.89 4.83,4.99 5.39,4.24 5.91,3.48 6.59,2.88 7.44,2.43 c 0.85,-0.4 1.93,-0.6 3.17,-0.6 1.2,0 2.22,0.2 3.01,0.55 0.85,0.4 1.48,0.95 1.99,1.66 0.51,0.75 0.85,1.65 1.07,2.71 0.23,1.05 0.29,2.31 0.29,3.66 z m -2.56,0.15 C 14.41,9.76 14.36,9 14.3,8.3 14.24,7.65 14.13,7.05 14.02,6.54 13.85,6.04 13.68,5.59 13.51,5.24 13.28,4.89 13.05,4.59 12.71,4.34 12.43,4.09 12.09,3.94 11.75,3.83 11.35,3.74 10.95,3.64 10.44,3.64 9.65,3.64 8.97,3.83 8.46,4.19 7.95,4.54 7.49,4.99 7.21,5.59 6.93,6.19 6.7,6.9 6.64,7.75 6.53,8.55 6.47,9.4 6.47,10.36 c 0,1.2 0.06,2.31 0.23,3.16 0.11,0.9 0.34,1.61 0.68,2.16 0.28,0.55 0.74,0.95 1.19,1.2 0.51,0.25 1.14,0.35 1.82,0.35 0.56,0 1.02,-0.05 1.42,-0.2 0.45,-0.15 0.79,-0.4 1.07,-0.7 0.29,-0.25 0.57,-0.6 0.74,-1 0.23,-0.41 0.34,-0.86 0.51,-1.36 0.11,-0.5 0.17,-1.05 0.23,-1.6 0.05,-0.55 0.05,-1.16 0.05,-1.81 z"
                         style="fill:#000000;fill-opacity:1;fill-rule:nonzero;stroke:none"
                         id="path1312" /></g></g></g></g></g></g></g></g></g><g
       id="g1314"
       transform="translate(150.91101,761.87363)"><g
         id="g1316"><g
           id="g1318"
           clip-path="url(#clipPath1322)"><g
             id="g1324"
             transform="matrix(1,0,0,-1,0,21.26)"><g
               id="g1326"><g
                 id="g1328"><g
                   id="g1330"
                   clip-path="url(#clipPath1334)"><g
                     id="g1336"><g
                       id="g1338"><path
                         d="m 18.02,1.77 2.82,2.36 c 0.17,0.15 0.21,0.41 0.06,0.59 L 8.76,19.18 c -0.09,0.11 -0.23,0.16 -0.35,0.14 -0.1,0 -0.18,-0.03 -0.26,-0.1 l -7.99473,-6.7 c -0.17871,-0.15 -0.208,-0.42 -0.06152,-0.6 L 2.46,9.11 C 2.6,8.94 2.87,8.92 3.05,9.07 l 4.87,4.08 9.52,-11.34 c 0.15,-0.18 0.4,-0.19 0.58,-0.04 z"
                         style="fill:#000000;fill-opacity:1;fill-rule:nonzero;stroke:none"
                         id="path1340" /></g></g></g></g></g></g></g></g></g></g></svg>
