<?xml version="1.0" encoding="UTF-8"?>
<svg xmlns="http://www.w3.org/2000/svg" xmlns:xlink="http://www.w3.org/1999/xlink" width="28pt" height="28pt" viewBox="0 0 28 28" version="1.1">
<g id="surface1">
<path style=" stroke:none;fill-rule:nonzero;fill:rgb(0%,0%,0%);fill-opacity:1;" d="M 2.734375 24.71875 C 2.433594 24.71875 2.1875 24.964844 2.1875 25.265625 C 2.1875 25.566406 2.433594 25.8125 2.734375 25.8125 C 3.035156 25.8125 3.28125 25.566406 3.28125 25.265625 C 3.28125 24.964844 3.035156 24.71875 2.734375 24.71875 Z M 2.734375 24.71875 "/>
<path style=" stroke:none;fill-rule:nonzero;fill:rgb(0%,0%,0%);fill-opacity:1;" d="M 27.453125 0 L 23.078125 0 C 22.777344 0 22.53125 0.246094 22.53125 0.546875 L 22.53125 1.117188 L 21.800781 1.113281 C 21.800781 1.113281 21.800781 1.113281 21.796875 1.113281 C 21.496094 1.113281 21.253906 1.355469 21.25 1.65625 C 21.25 1.957031 21.492188 2.203125 21.792969 2.207031 L 22.53125 2.210938 L 22.53125 7.886719 C 21.097656 8.789062 19.808594 8.269531 18.441406 7.71875 C 17.542969 7.355469 16.613281 6.980469 15.6875 7.097656 C 15.394531 7.136719 14.601562 7.25 13.765625 7.371094 C 12.976562 7.484375 12.15625 7.605469 11.875 7.640625 C 11.730469 7.660156 11.585938 7.617188 11.472656 7.527344 C 11.351562 7.4375 11.277344 7.304688 11.257812 7.15625 C 11.246094 7.058594 11.214844 6.800781 11.898438 6.480469 C 13.351562 5.808594 14.898438 5.234375 16.140625 4.902344 C 16.433594 4.824219 16.609375 4.523438 16.53125 4.234375 C 16.453125 3.941406 16.152344 3.769531 15.859375 3.84375 C 14.558594 4.191406 12.945312 4.792969 11.441406 5.488281 C 10.917969 5.734375 10.59375 6.015625 10.40625 6.300781 L 4.921875 7.796875 C 4.34375 7.941406 4.050781 7.710938 3.964844 7.449219 C 3.882812 7.1875 3.980469 6.855469 4.394531 6.691406 C 4.824219 6.527344 5.847656 6.078125 7.144531 5.507812 C 8.863281 4.75 11 3.808594 12.703125 3.117188 C 14.730469 2.296875 15.347656 2.171875 17.421875 2.179688 C 17.722656 2.179688 17.96875 1.9375 17.96875 1.632812 C 17.972656 1.332031 17.726562 1.085938 17.425781 1.085938 C 15.210938 1.078125 14.445312 1.230469 12.292969 2.105469 C 10.574219 2.800781 8.429688 3.746094 6.703125 4.503906 C 5.46875 5.046875 4.402344 5.519531 4.003906 5.671875 C 4 5.671875 4 5.671875 3.996094 5.671875 C 2.976562 6.074219 2.683594 7.039062 2.921875 7.78125 C 3.160156 8.515625 3.972656 9.164062 5.195312 8.855469 C 5.199219 8.855469 5.203125 8.851562 5.203125 8.851562 L 10.210938 7.488281 C 10.300781 7.84375 10.503906 8.160156 10.800781 8.390625 C 11.148438 8.660156 11.578125 8.78125 12.011719 8.726562 C 12.300781 8.6875 13.089844 8.574219 13.925781 8.453125 C 14.71875 8.339844 15.539062 8.21875 15.824219 8.183594 C 16.46875 8.101562 17.230469 8.410156 18.035156 8.734375 C 18.886719 9.078125 19.859375 9.46875 20.910156 9.46875 C 21.433594 9.46875 21.972656 9.371094 22.53125 9.125 L 22.53125 9.296875 C 22.53125 9.597656 22.777344 9.84375 23.078125 9.84375 L 27.453125 9.84375 C 27.753906 9.84375 28 9.597656 28 9.296875 L 28 0.546875 C 28 0.246094 27.753906 0 27.453125 0 Z M 26.90625 8.75 L 23.625 8.75 L 23.625 1.09375 L 26.90625 1.09375 Z M 26.90625 8.75 "/>
<path style=" stroke:none;fill-rule:nonzero;fill:rgb(0%,0%,0%);fill-opacity:1;" d="M 25.265625 3.28125 C 25.566406 3.28125 25.8125 3.035156 25.8125 2.734375 C 25.8125 2.433594 25.566406 2.1875 25.265625 2.1875 C 24.964844 2.1875 24.71875 2.433594 24.71875 2.734375 C 24.71875 3.035156 24.964844 3.28125 25.265625 3.28125 Z M 25.265625 3.28125 "/>
<path style=" stroke:none;fill-rule:nonzero;fill:rgb(0%,0%,0%);fill-opacity:1;" d="M 10.171875 17.828125 C 11.46875 17.828125 12.617188 17.179688 13.3125 16.1875 L 15.332031 16.1875 C 15.476562 16.1875 15.613281 16.128906 15.71875 16.027344 L 16.652344 15.09375 L 17.292969 15.09375 L 18.226562 16.027344 C 18.328125 16.128906 18.46875 16.1875 18.613281 16.1875 L 19.46875 16.1875 C 19.613281 16.1875 19.753906 16.128906 19.855469 16.027344 L 21.496094 14.386719 C 21.597656 14.285156 21.65625 14.144531 21.65625 14 L 21.65625 12.359375 C 21.65625 12.058594 21.410156 11.8125 21.109375 11.8125 L 13.3125 11.8125 C 12.617188 10.820312 11.46875 10.171875 10.171875 10.171875 C 8.0625 10.171875 6.34375 11.890625 6.34375 14 C 6.34375 16.109375 8.0625 17.828125 10.171875 17.828125 Z M 20.5625 12.90625 L 20.5625 13.773438 L 19.242188 15.09375 L 18.839844 15.09375 L 17.90625 14.160156 C 17.800781 14.058594 17.664062 14 17.519531 14 L 16.425781 14 C 16.28125 14 16.140625 14.058594 16.039062 14.160156 L 15.105469 15.09375 L 13.839844 15.09375 C 13.945312 14.746094 14 14.378906 14 14 C 14 13.621094 13.945312 13.253906 13.839844 12.90625 Z M 10.171875 11.265625 C 11.679688 11.265625 12.90625 12.492188 12.90625 14 C 12.90625 15.507812 11.679688 16.734375 10.171875 16.734375 C 8.664062 16.734375 7.4375 15.507812 7.4375 14 C 7.4375 12.492188 8.664062 11.265625 10.171875 11.265625 Z M 10.171875 11.265625 "/>
<path style=" stroke:none;fill-rule:nonzero;fill:rgb(0%,0%,0%);fill-opacity:1;" d="M 9.078125 14.546875 C 9.378906 14.546875 9.625 14.300781 9.625 14 C 9.625 13.699219 9.378906 13.453125 9.078125 13.453125 C 8.777344 13.453125 8.53125 13.699219 8.53125 14 C 8.53125 14.300781 8.777344 14.546875 9.078125 14.546875 Z M 9.078125 14.546875 "/>
<path style=" stroke:none;fill-rule:nonzero;fill:rgb(0%,0%,0%);fill-opacity:1;" d="M 19.609375 2.191406 C 19.914062 2.191406 20.15625 1.949219 20.15625 1.644531 C 20.15625 1.34375 19.914062 1.097656 19.609375 1.097656 C 19.308594 1.097656 19.0625 1.34375 19.0625 1.644531 C 19.0625 1.949219 19.308594 2.191406 19.609375 2.191406 Z M 19.609375 2.191406 "/>
<path style=" stroke:none;fill-rule:nonzero;fill:rgb(0%,0%,0%);fill-opacity:1;" d="M 22.804688 19.144531 C 22.800781 19.144531 22.796875 19.148438 22.796875 19.148438 L 17.789062 20.511719 C 17.699219 20.15625 17.496094 19.839844 17.199219 19.609375 C 16.851562 19.339844 16.421875 19.21875 15.988281 19.273438 C 15.699219 19.3125 14.910156 19.425781 14.074219 19.546875 C 13.28125 19.660156 12.460938 19.78125 12.175781 19.816406 C 11.53125 19.898438 10.769531 19.589844 9.964844 19.265625 C 8.6875 18.753906 7.144531 18.132812 5.46875 18.875 L 5.46875 18.703125 C 5.46875 18.402344 5.222656 18.15625 4.921875 18.15625 L 0.546875 18.15625 C 0.246094 18.15625 0 18.402344 0 18.703125 L 0 27.453125 C 0 27.753906 0.246094 28 0.546875 28 L 4.921875 28 C 5.222656 28 5.46875 27.753906 5.46875 27.453125 L 5.46875 26.882812 L 6.199219 26.886719 L 6.203125 26.886719 C 6.503906 26.886719 6.746094 26.644531 6.75 26.34375 C 6.75 26.042969 6.507812 25.796875 6.207031 25.792969 L 5.46875 25.789062 L 5.46875 20.113281 C 6.902344 19.210938 8.191406 19.730469 9.558594 20.28125 C 10.457031 20.644531 11.386719 21.019531 12.3125 20.902344 C 12.605469 20.863281 13.398438 20.75 14.234375 20.628906 C 15.023438 20.511719 15.84375 20.394531 16.125 20.359375 C 16.269531 20.339844 16.414062 20.382812 16.527344 20.472656 C 16.648438 20.5625 16.722656 20.695312 16.742188 20.84375 C 16.753906 20.941406 16.785156 21.199219 16.101562 21.515625 C 14.648438 22.191406 13.101562 22.765625 11.859375 23.097656 C 11.566406 23.175781 11.394531 23.476562 11.46875 23.765625 C 11.546875 24.058594 11.847656 24.230469 12.140625 24.15625 C 13.441406 23.808594 15.054688 23.207031 16.558594 22.511719 C 17.082031 22.265625 17.40625 21.984375 17.59375 21.699219 L 23.078125 20.203125 C 23.65625 20.058594 23.949219 20.289062 24.035156 20.550781 C 24.117188 20.8125 24.019531 21.144531 23.605469 21.308594 C 23.175781 21.472656 22.152344 21.921875 20.855469 22.492188 C 19.136719 23.25 17 24.191406 15.296875 24.882812 C 13.269531 25.703125 12.652344 25.828125 10.578125 25.820312 C 10.277344 25.820312 10.03125 26.0625 10.03125 26.367188 C 10.027344 26.667969 10.273438 26.914062 10.574219 26.914062 C 10.621094 26.914062 10.664062 26.914062 10.707031 26.914062 C 12.820312 26.914062 13.597656 26.75 15.707031 25.894531 C 17.425781 25.199219 19.570312 24.253906 21.296875 23.496094 C 22.53125 22.953125 23.597656 22.480469 23.996094 22.328125 C 24 22.328125 24 22.328125 24.003906 22.328125 C 25.023438 21.925781 25.316406 20.960938 25.078125 20.21875 C 24.839844 19.484375 24.027344 18.835938 22.804688 19.144531 Z M 1.09375 26.90625 L 1.09375 19.25 L 4.375 19.25 L 4.375 26.90625 Z M 1.09375 26.90625 "/>
<path style=" stroke:none;fill-rule:nonzero;fill:rgb(0%,0%,0%);fill-opacity:1;" d="M 8.390625 25.808594 C 8.085938 25.808594 7.84375 26.050781 7.84375 26.355469 C 7.84375 26.65625 8.085938 26.902344 8.390625 26.902344 C 8.691406 26.902344 8.9375 26.65625 8.9375 26.355469 C 8.9375 26.050781 8.691406 25.808594 8.390625 25.808594 Z M 8.390625 25.808594 "/>
</g>
</svg>
