<?xml version="1.0" encoding="UTF-8"?>
<svg xmlns="http://www.w3.org/2000/svg" xmlns:xlink="http://www.w3.org/1999/xlink" width="28pt" height="28pt" viewBox="0 0 28 28" version="1.1">
<g id="surface1">
<path style=" stroke:none;fill-rule:nonzero;fill:rgb(0%,0%,0%);fill-opacity:1;" d="M 23.917969 10.5 L 22.167969 10.5 L 22.167969 8.167969 C 22.167969 3.664062 18.503906 0 14 0 C 9.496094 0 5.832031 3.664062 5.832031 8.167969 L 5.832031 10.5 L 4.082031 10.5 C 3.761719 10.5 3.5 10.761719 3.5 11.082031 L 3.5 25.667969 C 3.5 26.953125 4.546875 28 5.832031 28 L 22.167969 28 C 23.453125 28 24.5 26.953125 24.5 25.667969 L 24.5 11.082031 C 24.5 10.761719 24.238281 10.5 23.917969 10.5 Z M 15.746094 22.6875 C 15.765625 22.851562 15.710938 23.015625 15.601562 23.140625 C 15.492188 23.261719 15.332031 23.332031 15.167969 23.332031 L 12.832031 23.332031 C 12.667969 23.332031 12.507812 23.261719 12.398438 23.140625 C 12.289062 23.015625 12.234375 22.851562 12.253906 22.6875 L 12.621094 19.375 C 12.023438 18.941406 11.667969 18.253906 11.667969 17.5 C 11.667969 16.214844 12.714844 15.167969 14 15.167969 C 15.285156 15.167969 16.332031 16.214844 16.332031 17.5 C 16.332031 18.253906 15.976562 18.941406 15.378906 19.375 Z M 18.667969 10.5 L 9.332031 10.5 L 9.332031 8.167969 C 9.332031 5.59375 11.425781 3.5 14 3.5 C 16.574219 3.5 18.667969 5.59375 18.667969 8.167969 Z M 18.667969 10.5 "/>
</g>
</svg>
