<?xml version="1.0" encoding="UTF-8"?>
<svg xmlns="http://www.w3.org/2000/svg" xmlns:xlink="http://www.w3.org/1999/xlink" width="28pt" height="28pt" viewBox="0 0 28 28" version="1.1">
<g id="surface1">
<path style=" stroke:none;fill-rule:nonzero;fill:rgb(0%,0%,0%);fill-opacity:1;" d="M 23.222656 11.300781 L 22.675781 11.300781 L 22.675781 8.75 C 22.675781 4.027344 18.929688 0.0859375 14.246094 0 C 14.121094 0 13.863281 0 13.738281 0 C 9.054688 0.0859375 5.308594 4.027344 5.308594 8.75 L 5.308594 11.300781 L 4.761719 11.300781 C 3.921875 11.300781 3.238281 12.167969 3.238281 13.238281 L 3.238281 26.039062 C 3.238281 27.109375 3.921875 27.984375 4.761719 27.984375 L 23.222656 27.984375 C 24.0625 27.984375 24.746094 27.109375 24.746094 26.039062 L 24.746094 13.238281 C 24.746094 12.167969 24.0625 11.300781 23.222656 11.300781 Z M 15.722656 19.625 L 15.722656 23.496094 C 15.722656 23.9375 15.351562 24.3125 14.90625 24.3125 L 13.078125 24.3125 C 12.632812 24.3125 12.261719 23.9375 12.261719 23.496094 L 12.261719 19.625 C 11.832031 19.203125 11.582031 18.617188 11.582031 17.972656 C 11.582031 16.746094 12.53125 15.691406 13.738281 15.640625 C 13.863281 15.636719 14.121094 15.636719 14.25 15.640625 C 15.453125 15.691406 16.402344 16.746094 16.402344 17.972656 C 16.402344 18.617188 16.152344 19.203125 15.722656 19.625 Z M 19.082031 11.300781 L 8.902344 11.300781 L 8.902344 8.75 C 8.902344 5.9375 11.1875 3.613281 13.992188 3.613281 C 16.796875 3.613281 19.082031 5.9375 19.082031 8.75 Z M 19.082031 11.300781 "/>
</g>
</svg>
