<?xml version="1.0" encoding="UTF-8"?>
<svg xmlns="http://www.w3.org/2000/svg" xmlns:xlink="http://www.w3.org/1999/xlink" width="28pt" height="28pt" viewBox="0 0 28 28" version="1.1">
<g id="surface1">
<path style=" stroke:none;fill-rule:nonzero;fill:rgb(0%,0%,0%);fill-opacity:1;" d="M 22.648438 12.351562 L 22.136719 12.351562 L 22.136719 8.203125 C 22.136719 3.777344 18.625 0.0820312 14.234375 0 C 14.117188 0 13.875 0 13.757812 0 C 9.367188 0.0820312 5.855469 3.777344 5.855469 8.203125 L 5.855469 8.292969 C 5.855469 9.222656 6.609375 9.980469 7.539062 9.980469 C 8.472656 9.980469 9.226562 9.222656 9.226562 8.292969 L 9.226562 8.203125 C 9.226562 5.566406 11.367188 3.386719 13.996094 3.386719 C 16.625 3.386719 18.765625 5.566406 18.765625 8.203125 L 18.765625 12.351562 L 5.34375 12.351562 C 4.558594 12.351562 3.914062 13.164062 3.914062 14.167969 L 3.914062 26.167969 C 3.914062 27.171875 4.558594 27.992188 5.34375 27.992188 L 22.648438 27.992188 C 23.433594 27.992188 24.078125 27.171875 24.078125 26.167969 L 24.078125 14.167969 C 24.078125 13.164062 23.433594 12.351562 22.648438 12.351562 Z M 15.617188 20.15625 L 15.617188 23.78125 C 15.617188 24.199219 15.269531 24.550781 14.855469 24.550781 L 13.136719 24.550781 C 12.722656 24.550781 12.375 24.199219 12.375 23.78125 L 12.375 20.15625 C 11.972656 19.761719 11.738281 19.210938 11.738281 18.605469 C 11.738281 17.457031 12.625 16.46875 13.757812 16.421875 C 13.875 16.417969 14.117188 16.417969 14.234375 16.421875 C 15.367188 16.46875 16.253906 17.457031 16.253906 18.605469 C 16.253906 19.210938 16.019531 19.761719 15.617188 20.15625 Z M 15.617188 20.15625 "/>
</g>
</svg>
