<?xml version="1.0" encoding="UTF-8"?>
<svg xmlns="http://www.w3.org/2000/svg" xmlns:xlink="http://www.w3.org/1999/xlink" width="28px" height="28px" viewBox="0 0 28 28" version="1.1">
<g id="surface1">
<path style=" stroke:none;fill-rule:nonzero;fill:rgb(0%,0%,0%);fill-opacity:1;" d="M 21.910156 25.375 C 21.910156 25.613281 21.890625 25.820312 21.851562 26 C 21.824219 26.183594 21.78125 26.339844 21.714844 26.46875 C 21.664062 26.585938 21.585938 26.679688 21.480469 26.746094 C 21.390625 26.796875 21.285156 26.824219 21.167969 26.824219 L 7.203125 26.824219 C 7.019531 26.824219 6.859375 26.804688 6.714844 26.765625 C 6.585938 26.710938 6.46875 26.632812 6.363281 26.53125 C 6.273438 26.425781 6.199219 26.277344 6.148438 26.082031 C 6.109375 25.886719 6.089844 25.644531 6.089844 25.359375 C 6.089844 25.097656 6.097656 24.871094 6.109375 24.675781 C 6.136719 24.480469 6.179688 24.308594 6.246094 24.167969 C 6.3125 24.011719 6.390625 23.859375 6.480469 23.71875 C 6.585938 23.5625 6.714844 23.398438 6.871094 23.230469 L 11.773438 18.035156 C 12.90625 16.835938 13.8125 15.761719 14.488281 14.8125 C 15.179688 13.859375 15.707031 12.996094 16.070312 12.214844 C 16.449219 11.433594 16.695312 10.722656 16.8125 10.085938 C 16.929688 9.445312 16.988281 8.847656 16.988281 8.289062 C 16.988281 7.726562 16.898438 7.199219 16.714844 6.707031 C 16.53125 6.199219 16.265625 5.753906 15.914062 5.375 C 15.574219 5 15.144531 4.699219 14.625 4.476562 C 14.105469 4.257812 13.503906 4.148438 12.828125 4.148438 C 12.035156 4.148438 11.316406 4.257812 10.679688 4.476562 C 10.054688 4.699219 9.5 4.941406 9.019531 5.203125 C 8.550781 5.460938 8.152344 5.703125 7.828125 5.921875 C 7.515625 6.144531 7.28125 6.257812 7.125 6.257812 C 7.035156 6.257812 6.949219 6.230469 6.871094 6.179688 C 6.804688 6.125 6.746094 6.042969 6.695312 5.921875 C 6.65625 5.808594 6.625 5.652344 6.597656 5.453125 C 6.570312 5.261719 6.558594 5.027344 6.558594 4.75 C 6.558594 4.558594 6.566406 4.386719 6.578125 4.242188 C 6.589844 4.101562 6.609375 3.976562 6.636719 3.875 C 6.675781 3.769531 6.722656 3.671875 6.773438 3.578125 C 6.824219 3.488281 6.929688 3.378906 7.085938 3.25 C 7.242188 3.105469 7.507812 2.914062 7.886719 2.679688 C 8.277344 2.445312 8.757812 2.21875 9.332031 2 C 9.917969 1.765625 10.554688 1.570312 11.246094 1.414062 C 11.949219 1.257812 12.683594 1.179688 13.453125 1.179688 C 14.675781 1.179688 15.746094 1.355469 16.65625 1.703125 C 17.582031 2.042969 18.34375 2.511719 18.941406 3.109375 C 19.554688 3.710938 20.007812 4.40625 20.308594 5.203125 C 20.609375 5.996094 20.757812 6.839844 20.757812 7.742188 C 20.757812 8.546875 20.6875 9.355469 20.542969 10.160156 C 20.398438 10.957031 20.09375 11.824219 19.625 12.761719 C 19.167969 13.683594 18.503906 14.71875 17.632812 15.863281 C 16.761719 16.996094 15.601562 18.308594 14.15625 19.792969 L 10.152344 23.96875 L 21.148438 23.96875 C 21.253906 23.96875 21.351562 24.003906 21.441406 24.070312 C 21.546875 24.121094 21.628906 24.207031 21.695312 24.324219 C 21.773438 24.441406 21.824219 24.589844 21.851562 24.773438 C 21.890625 24.941406 21.910156 25.144531 21.910156 25.378906 Z M 21.910156 25.375 "/>
</g>
</svg>
