<?xml version="1.0" encoding="UTF-8"?>
<svg xmlns="http://www.w3.org/2000/svg" xmlns:xlink="http://www.w3.org/1999/xlink" width="28px" height="28px" viewBox="0 0 28 28" version="1.1">
<g id="surface1">
<path style=" stroke:none;fill-rule:nonzero;fill:rgb(0%,0%,0%);fill-opacity:1;" d="M 21.921875 19.410156 C 21.921875 20.570312 21.71875 21.617188 21.3125 22.554688 C 20.910156 23.480469 20.332031 24.273438 19.578125 24.9375 C 18.820312 25.601562 17.890625 26.117188 16.78125 26.480469 C 15.675781 26.832031 14.425781 27.007812 13.03125 27.007812 C 12.1875 27.007812 11.394531 26.9375 10.652344 26.792969 C 9.921875 26.664062 9.269531 26.507812 8.695312 26.324219 C 8.125 26.128906 7.648438 25.933594 7.273438 25.738281 C 6.894531 25.53125 6.652344 25.378906 6.546875 25.289062 C 6.457031 25.199219 6.386719 25.105469 6.335938 25.015625 C 6.28125 24.925781 6.238281 24.8125 6.195312 24.683594 C 6.15625 24.554688 6.125 24.398438 6.101562 24.214844 C 6.085938 24.019531 6.082031 23.785156 6.082031 23.511719 C 6.082031 23.042969 6.125 22.71875 6.21875 22.535156 C 6.308594 22.351562 6.4375 22.261719 6.609375 22.261719 C 6.726562 22.261719 6.953125 22.367188 7.292969 22.574219 C 7.644531 22.78125 8.085938 23.011719 8.621094 23.257812 C 9.167969 23.492188 9.796875 23.714844 10.515625 23.921875 C 11.242188 24.128906 12.050781 24.234375 12.9375 24.234375 C 13.796875 24.234375 14.550781 24.125 15.203125 23.902344 C 15.851562 23.679688 16.398438 23.367188 16.84375 22.964844 C 17.285156 22.5625 17.617188 22.085938 17.839844 21.539062 C 18.058594 20.980469 18.171875 20.375 18.171875 19.722656 C 18.171875 19.007812 18.027344 18.363281 17.742188 17.789062 C 17.46875 17.214844 17.058594 16.722656 16.511719 16.304688 C 15.976562 15.886719 15.3125 15.570312 14.519531 15.347656 C 13.738281 15.125 12.84375 15.015625 11.84375 15.015625 L 9.4375 15.015625 C 9.335938 15.015625 9.230469 14.996094 9.125 14.957031 C 9.035156 14.90625 8.953125 14.828125 8.875 14.722656 C 8.808594 14.617188 8.75 14.480469 8.695312 14.3125 C 8.65625 14.144531 8.636719 13.921875 8.636719 13.648438 C 8.636719 13.402344 8.65625 13.199219 8.695312 13.042969 C 8.738281 12.875 8.789062 12.742188 8.851562 12.652344 C 8.929688 12.546875 9.015625 12.476562 9.109375 12.4375 C 9.199219 12.386719 9.300781 12.359375 9.421875 12.359375 L 11.625 12.359375 C 12.488281 12.359375 13.253906 12.25 13.933594 12.027344 C 14.621094 11.804688 15.203125 11.488281 15.671875 11.070312 C 16.152344 10.652344 16.515625 10.160156 16.765625 9.585938 C 17.023438 9 17.15625 8.347656 17.15625 7.632812 C 17.15625 7.113281 17.070312 6.617188 16.902344 6.148438 C 16.730469 5.667969 16.476562 5.25 16.140625 4.898438 C 15.800781 4.546875 15.363281 4.273438 14.828125 4.078125 C 14.308594 3.871094 13.703125 3.765625 13.015625 3.765625 C 12.257812 3.765625 11.5625 3.882812 10.921875 4.117188 C 10.296875 4.339844 9.738281 4.578125 9.242188 4.839844 C 8.75 5.101562 8.339844 5.347656 8.015625 5.582031 C 7.6875 5.804688 7.460938 5.914062 7.328125 5.914062 C 7.238281 5.914062 7.15625 5.902344 7.078125 5.875 C 7.011719 5.835938 6.953125 5.769531 6.898438 5.679688 C 6.863281 5.574219 6.828125 5.4375 6.804688 5.269531 C 6.789062 5.085938 6.78125 4.851562 6.78125 4.566406 C 6.78125 4.371094 6.789062 4.203125 6.800781 4.058594 C 6.816406 3.902344 6.839844 3.773438 6.878906 3.667969 C 6.917969 3.550781 6.964844 3.445312 7.015625 3.355469 C 7.070312 3.265625 7.152344 3.160156 7.273438 3.042969 C 7.402344 2.914062 7.65625 2.730469 8.03125 2.496094 C 8.410156 2.261719 8.875 2.035156 9.421875 1.8125 C 9.980469 1.578125 10.617188 1.382812 11.332031 1.226562 C 12.0625 1.070312 12.84375 0.992188 13.675781 0.992188 C 14.847656 0.992188 15.878906 1.140625 16.765625 1.441406 C 17.648438 1.742188 18.386719 2.164062 18.96875 2.710938 C 19.570312 3.257812 20.011719 3.914062 20.296875 4.683594 C 20.597656 5.4375 20.75 6.277344 20.75 7.203125 C 20.75 7.996094 20.644531 8.738281 20.4375 9.429688 C 20.226562 10.105469 19.921875 10.710938 19.515625 11.246094 C 19.113281 11.765625 18.617188 12.214844 18.03125 12.59375 C 17.449219 12.957031 16.769531 13.210938 16 13.355469 L 16 13.394531 C 16.875 13.484375 17.667969 13.707031 18.386719 14.058594 C 19.113281 14.398438 19.738281 14.828125 20.261719 15.347656 C 20.78125 15.867188 21.183594 16.480469 21.46875 17.183594 C 21.769531 17.875 21.921875 18.617188 21.921875 19.410156 Z M 21.921875 19.410156 "/>
</g>
</svg>
