<?xml version="1.0" encoding="UTF-8"?>
<svg xmlns="http://www.w3.org/2000/svg" xmlns:xlink="http://www.w3.org/1999/xlink" width="28px" height="28px" viewBox="0 0 28 28" version="1.1">
<g id="surface1">
<path style=" stroke:none;fill-rule:nonzero;fill:rgb(0%,0%,0%);fill-opacity:1;" d="M 23.09375 19.449219 C 23.09375 19.878906 23.027344 20.21875 22.894531 20.464844 C 22.765625 20.710938 22.582031 20.835938 22.347656 20.835938 L 19.5 20.835938 L 19.5 26.148438 C 19.5 26.253906 19.472656 26.34375 19.417969 26.421875 C 19.367188 26.488281 19.277344 26.546875 19.144531 26.597656 C 19.015625 26.648438 18.847656 26.6875 18.636719 26.714844 C 18.429688 26.742188 18.164062 26.753906 17.835938 26.753906 C 17.523438 26.753906 17.265625 26.742188 17.054688 26.714844 C 16.847656 26.6875 16.679688 26.648438 16.546875 26.597656 C 16.429688 26.546875 16.347656 26.488281 16.292969 26.421875 C 16.253906 26.34375 16.234375 26.253906 16.234375 26.148438 L 16.234375 20.835938 L 5.804688 20.835938 C 5.648438 20.835938 5.519531 20.816406 5.414062 20.777344 C 5.3125 20.738281 5.214844 20.667969 5.125 20.5625 C 5.046875 20.457031 4.988281 20.308594 4.945312 20.113281 C 4.921875 19.917969 4.90625 19.664062 4.90625 19.351562 C 4.90625 19.105469 4.914062 18.882812 4.925781 18.6875 C 4.941406 18.492188 4.964844 18.316406 5.003906 18.160156 C 5.042969 17.992188 5.097656 17.835938 5.160156 17.691406 C 5.226562 17.535156 5.304688 17.371094 5.394531 17.203125 L 14.5 1.851562 C 14.5625 1.746094 14.65625 1.65625 14.769531 1.578125 C 14.902344 1.5 15.066406 1.433594 15.261719 1.382812 C 15.453125 1.332031 15.695312 1.296875 15.984375 1.285156 C 16.269531 1.257812 16.605469 1.246094 17 1.246094 C 17.425781 1.246094 17.796875 1.265625 18.109375 1.304688 C 18.4375 1.332031 18.695312 1.371094 18.890625 1.421875 C 19.089844 1.472656 19.238281 1.546875 19.34375 1.636719 C 19.445312 1.714844 19.5 1.8125 19.5 1.929688 L 19.5 18.0625 L 22.347656 18.0625 C 22.570312 18.0625 22.746094 18.179688 22.875 18.414062 C 23.019531 18.636719 23.09375 18.980469 23.09375 19.449219 Z M 16.234375 4.195312 L 16.199219 4.195312 L 7.976562 18.0625 L 16.234375 18.0625 Z M 16.234375 4.195312 "/>
</g>
</svg>
