<?xml version="1.0" encoding="UTF-8"?>
<svg xmlns="http://www.w3.org/2000/svg" xmlns:xlink="http://www.w3.org/1999/xlink" width="28px" height="28px" viewBox="0 0 28 28" version="1.1">
<g id="surface1">
<path style=" stroke:none;fill-rule:nonzero;fill:rgb(0%,0%,0%);fill-opacity:1;" d="M 21.980469 18.328125 C 21.980469 19.679688 21.75 20.886719 21.296875 21.9375 C 20.839844 22.992188 20.195312 23.886719 19.359375 24.613281 C 18.527344 25.332031 17.53125 25.878906 16.375 26.253906 C 15.226562 26.632812 13.953125 26.824219 12.546875 26.824219 C 11.765625 26.824219 11.019531 26.765625 10.316406 26.644531 C 9.613281 26.542969 8.992188 26.410156 8.445312 26.253906 C 7.898438 26.085938 7.449219 25.921875 7.09375 25.765625 C 6.746094 25.609375 6.515625 25.488281 6.414062 25.394531 C 6.320312 25.304688 6.253906 25.222656 6.21875 25.140625 C 6.175781 25.066406 6.136719 24.972656 6.101562 24.871094 C 6.074219 24.75 6.054688 24.609375 6.039062 24.4375 C 6.027344 24.269531 6.023438 24.066406 6.023438 23.832031 C 6.023438 23.613281 6.027344 23.417969 6.039062 23.25 C 6.066406 23.066406 6.105469 22.921875 6.15625 22.816406 C 6.210938 22.699219 6.269531 22.617188 6.332031 22.5625 C 6.410156 22.511719 6.496094 22.484375 6.585938 22.484375 C 6.71875 22.484375 6.917969 22.570312 7.191406 22.738281 C 7.464844 22.894531 7.832031 23.070312 8.285156 23.265625 C 8.753906 23.449219 9.328125 23.625 10.003906 23.792969 C 10.695312 23.964844 11.511719 24.046875 12.449219 24.046875 C 13.320312 24.046875 14.121094 23.945312 14.847656 23.734375 C 15.578125 23.527344 16.203125 23.203125 16.722656 22.757812 C 17.257812 22.316406 17.675781 21.761719 17.972656 21.097656 C 18.273438 20.421875 18.421875 19.601562 18.421875 18.636719 C 18.421875 17.832031 18.292969 17.121094 18.03125 16.507812 C 17.785156 15.882812 17.394531 15.371094 16.859375 14.964844 C 16.339844 14.550781 15.675781 14.242188 14.871094 14.046875 C 14.0625 13.839844 13.097656 13.734375 11.980469 13.734375 C 11.183594 13.734375 10.5 13.773438 9.925781 13.851562 C 9.355469 13.929688 8.820312 13.96875 8.324219 13.96875 C 7.960938 13.96875 7.699219 13.886719 7.542969 13.714844 C 7.386719 13.546875 7.308594 13.222656 7.308594 12.738281 L 7.308594 2.445312 C 7.308594 2.019531 7.40625 1.699219 7.601562 1.492188 C 7.8125 1.28125 8.105469 1.179688 8.480469 1.179688 L 19.671875 1.179688 C 19.777344 1.179688 19.875 1.210938 19.96875 1.273438 C 20.070312 1.328125 20.15625 1.410156 20.21875 1.527344 C 20.285156 1.644531 20.332031 1.796875 20.359375 1.976562 C 20.394531 2.160156 20.414062 2.375 20.414062 2.621094 C 20.414062 3.089844 20.351562 3.457031 20.21875 3.714844 C 20.089844 3.976562 19.90625 4.105469 19.671875 4.105469 L 10.238281 4.105469 L 10.238281 11.199219 C 10.695312 11.132812 11.15625 11.09375 11.625 11.078125 C 12.109375 11.066406 12.660156 11.0625 13.285156 11.0625 C 14.730469 11.0625 15.996094 11.238281 17.074219 11.589844 C 18.15625 11.925781 19.054688 12.414062 19.769531 13.054688 C 20.5 13.679688 21.046875 14.441406 21.410156 15.339844 C 21.789062 16.238281 21.976562 17.234375 21.976562 18.328125 Z M 21.980469 18.328125 "/>
</g>
</svg>
