<?xml version="1.0" encoding="UTF-8"?>
<svg xmlns="http://www.w3.org/2000/svg" xmlns:xlink="http://www.w3.org/1999/xlink" width="28px" height="28px" viewBox="0 0 28 28" version="1.1">
<g id="surface1">
<path style=" stroke:none;fill-rule:nonzero;fill:rgb(0%,0%,0%);fill-opacity:1;" d="M 22.300781 18.441406 C 22.300781 19.550781 22.132812 20.625 21.792969 21.667969 C 21.453125 22.695312 20.933594 23.605469 20.230469 24.402344 C 19.527344 25.183594 18.636719 25.8125 17.554688 26.296875 C 16.472656 26.765625 15.199219 27 13.726562 27 C 12.671875 27 11.742188 26.867188 10.933594 26.609375 C 10.125 26.347656 9.421875 25.976562 8.824219 25.496094 C 8.226562 25.011719 7.722656 24.417969 7.320312 23.71875 C 6.929688 23.011719 6.609375 22.210938 6.363281 21.3125 C 6.128906 20.417969 5.960938 19.433594 5.855469 18.363281 C 5.75 17.296875 5.699219 16.152344 5.699219 14.925781 C 5.699219 13.847656 5.757812 12.753906 5.875 11.644531 C 5.992188 10.539062 6.199219 9.472656 6.5 8.445312 C 6.800781 7.414062 7.203125 6.449219 7.710938 5.554688 C 8.230469 4.640625 8.875 3.855469 9.644531 3.1875 C 10.425781 2.511719 11.355469 1.976562 12.4375 1.585938 C 13.519531 1.195312 14.773438 1 16.207031 1 C 16.6875 1 17.175781 1.035156 17.671875 1.097656 C 18.167969 1.152344 18.621094 1.230469 19.039062 1.332031 C 19.457031 1.425781 19.808594 1.527344 20.09375 1.644531 C 20.378906 1.761719 20.570312 1.859375 20.660156 1.9375 C 20.75 2.003906 20.816406 2.082031 20.855469 2.171875 C 20.90625 2.25 20.945312 2.34375 20.972656 2.445312 C 21 2.539062 21.019531 2.648438 21.03125 2.777344 C 21.042969 2.894531 21.050781 3.046875 21.050781 3.226562 C 21.050781 3.460938 21.042969 3.664062 21.03125 3.832031 C 21.03125 4.003906 21.003906 4.140625 20.953125 4.242188 C 20.914062 4.347656 20.855469 4.425781 20.777344 4.476562 C 20.710938 4.53125 20.621094 4.554688 20.503906 4.554688 C 20.359375 4.554688 20.164062 4.511719 19.917969 4.417969 C 19.671875 4.328125 19.371094 4.230469 19.019531 4.125 C 18.667969 4.007812 18.238281 3.90625 17.730469 3.8125 C 17.234375 3.722656 16.65625 3.675781 15.992188 3.675781 C 14.78125 3.675781 13.738281 3.925781 12.867188 4.417969 C 11.996094 4.914062 11.277344 5.578125 10.71875 6.410156 C 10.171875 7.246094 9.761719 8.214844 9.488281 9.320312 C 9.226562 10.414062 9.078125 11.5625 9.039062 12.761719 C 9.378906 12.5625 9.753906 12.367188 10.171875 12.171875 C 10.601562 11.976562 11.0625 11.800781 11.558594 11.644531 C 12.066406 11.488281 12.601562 11.367188 13.160156 11.277344 C 13.71875 11.171875 14.320312 11.121094 14.957031 11.121094 C 16.324219 11.121094 17.476562 11.308594 18.414062 11.683594 C 19.351562 12.050781 20.105469 12.5625 20.679688 13.230469 C 21.265625 13.878906 21.683594 14.652344 21.929688 15.550781 C 22.175781 16.4375 22.300781 17.402344 22.300781 18.441406 Z M 18.902344 18.753906 C 18.902344 18 18.824219 17.316406 18.667969 16.703125 C 18.523438 16.078125 18.277344 15.550781 17.925781 15.125 C 17.574219 14.695312 17.105469 14.363281 16.519531 14.125 C 15.933594 13.894531 15.210938 13.777344 14.351562 13.777344 C 13.871094 13.777344 13.386719 13.820312 12.90625 13.910156 C 12.425781 13.988281 11.957031 14.109375 11.5 14.265625 C 11.058594 14.40625 10.628906 14.582031 10.210938 14.792969 C 9.808594 14.984375 9.4375 15.199219 9.097656 15.4375 C 9.097656 17.113281 9.203125 18.519531 9.410156 19.65625 C 9.632812 20.789062 9.945312 21.699219 10.347656 22.390625 C 10.765625 23.066406 11.277344 23.554688 11.890625 23.855469 C 12.503906 24.140625 13.21875 24.28125 14.039062 24.28125 C 14.871094 24.28125 15.59375 24.125 16.207031 23.8125 C 16.820312 23.5 17.328125 23.085938 17.730469 22.5625 C 18.132812 22.03125 18.425781 21.4375 18.609375 20.785156 C 18.804688 20.125 18.902344 19.445312 18.902344 18.753906 Z M 18.902344 18.753906 "/>
</g>
</svg>
