<?xml version="1.0" encoding="UTF-8"?>
<svg xmlns="http://www.w3.org/2000/svg" xmlns:xlink="http://www.w3.org/1999/xlink" width="28px" height="28px" viewBox="0 0 28 28" version="1.1">
<g id="surface1">
<path style=" stroke:none;fill-rule:nonzero;fill:rgb(0%,0%,0%);fill-opacity:1;" d="M 22.515625 20.152344 C 22.515625 21.246094 22.320312 22.222656 21.929688 23.082031 C 21.539062 23.929688 20.972656 24.644531 20.230469 25.230469 C 19.5 25.816406 18.597656 26.257812 17.515625 26.558594 C 16.433594 26.859375 15.199219 27.007812 13.804688 27.007812 C 12.503906 27.007812 11.335938 26.871094 10.308594 26.597656 C 9.28125 26.324219 8.40625 25.921875 7.691406 25.386719 C 6.976562 24.851562 6.429688 24.195312 6.050781 23.414062 C 5.671875 22.632812 5.484375 21.742188 5.484375 20.738281 C 5.484375 19.945312 5.613281 19.214844 5.875 18.550781 C 6.136719 17.886719 6.507812 17.273438 6.988281 16.714844 C 7.484375 16.15625 8.089844 15.632812 8.804688 15.152344 C 9.519531 14.65625 10.328125 14.1875 11.226562 13.746094 C 10.445312 13.34375 9.753906 12.917969 9.15625 12.476562 C 8.558594 12.019531 8.050781 11.53125 7.632812 11.011719 C 7.214844 10.476562 6.898438 9.910156 6.675781 9.3125 C 6.46875 8.714844 6.363281 8.0625 6.363281 7.359375 C 6.363281 6.472656 6.519531 5.648438 6.832031 4.878906 C 7.15625 4.097656 7.640625 3.421875 8.277344 2.847656 C 8.929688 2.273438 9.75 1.824219 10.738281 1.5 C 11.742188 1.160156 12.90625 0.992188 14.234375 0.992188 C 15.511719 0.992188 16.609375 1.148438 17.535156 1.460938 C 18.472656 1.761719 19.242188 2.175781 19.839844 2.710938 C 20.453125 3.230469 20.902344 3.851562 21.1875 4.566406 C 21.472656 5.28125 21.617188 6.050781 21.617188 6.871094 C 21.617188 7.535156 21.507812 8.171875 21.285156 8.785156 C 21.078125 9.398438 20.765625 9.976562 20.347656 10.523438 C 19.929688 11.070312 19.417969 11.585938 18.804688 12.066406 C 18.207031 12.535156 17.515625 12.976562 16.734375 13.394531 C 17.660156 13.851562 18.480469 14.320312 19.195312 14.800781 C 19.925781 15.28125 20.53125 15.804688 21.011719 16.363281 C 21.507812 16.910156 21.878906 17.496094 22.125 18.121094 C 22.386719 18.734375 22.515625 19.410156 22.515625 20.152344 Z M 18.296875 7.183594 C 18.296875 6.636719 18.199219 6.140625 18.003906 5.699219 C 17.820312 5.257812 17.546875 4.878906 17.183594 4.566406 C 16.820312 4.253906 16.363281 4.019531 15.816406 3.863281 C 15.28125 3.695312 14.671875 3.609375 13.980469 3.609375 C 12.574219 3.609375 11.507812 3.929688 10.777344 4.566406 C 10.0625 5.203125 9.703125 6.078125 9.703125 7.183594 C 9.703125 7.691406 9.789062 8.167969 9.957031 8.609375 C 10.140625 9.039062 10.414062 9.449219 10.777344 9.839844 C 11.15625 10.230469 11.625 10.613281 12.183594 10.992188 C 12.757812 11.355469 13.433594 11.742188 14.214844 12.144531 C 15.53125 11.46875 16.539062 10.71875 17.242188 9.898438 C 17.945312 9.078125 18.296875 8.171875 18.296875 7.183594 Z M 19.117188 20.503906 C 19.117188 19.90625 19.007812 19.363281 18.785156 18.882812 C 18.5625 18.386719 18.226562 17.933594 17.769531 17.515625 C 17.328125 17.085938 16.765625 16.675781 16.089844 16.285156 C 15.425781 15.882812 14.652344 15.464844 13.765625 15.035156 C 12.945312 15.4375 12.222656 15.84375 11.597656 16.246094 C 10.984375 16.648438 10.476562 17.066406 10.074219 17.496094 C 9.683594 17.925781 9.382812 18.382812 9.175781 18.863281 C 8.980469 19.332031 8.882812 19.851562 8.882812 20.425781 C 8.882812 21.6875 9.3125 22.664062 10.171875 23.355469 C 11.042969 24.046875 12.339844 24.390625 14.058594 24.390625 C 15.726562 24.390625 16.980469 24.046875 17.828125 23.355469 C 18.6875 22.652344 19.117188 21.703125 19.117188 20.503906 Z M 19.117188 20.503906 "/>
</g>
</svg>
