<?xml version="1.0" encoding="UTF-8"?>
<svg xmlns="http://www.w3.org/2000/svg" xmlns:xlink="http://www.w3.org/1999/xlink" width="28px" height="28px" viewBox="0 0 28 28" version="1.1">
<g id="surface1">
<path style=" stroke:none;fill-rule:nonzero;fill:rgb(0%,0%,0%);fill-opacity:1;" d="M 22.320312 13.003906 C 22.320312 14.097656 22.253906 15.203125 22.125 16.324219 C 21.996094 17.445312 21.773438 18.523438 21.460938 19.566406 C 21.148438 20.59375 20.726562 21.566406 20.191406 22.476562 C 19.671875 23.375 19.007812 24.164062 18.199219 24.839844 C 17.40625 25.515625 16.453125 26.050781 15.347656 26.441406 C 14.253906 26.820312 12.976562 27.007812 11.519531 27.007812 C 10.960938 27.007812 10.414062 26.96875 9.878906 26.890625 C 9.359375 26.824219 8.882812 26.742188 8.453125 26.636719 C 8.035156 26.53125 7.683594 26.421875 7.398438 26.304688 C 7.113281 26.1875 6.902344 26.070312 6.773438 25.953125 C 6.644531 25.835938 6.546875 25.679688 6.480469 25.484375 C 6.429688 25.277344 6.402344 25.003906 6.402344 24.664062 C 6.402344 24.378906 6.410156 24.148438 6.421875 23.980469 C 6.449219 23.8125 6.480469 23.679688 6.519531 23.589844 C 6.558594 23.5 6.609375 23.441406 6.675781 23.414062 C 6.753906 23.375 6.84375 23.355469 6.949219 23.355469 C 7.09375 23.355469 7.292969 23.40625 7.554688 23.511719 C 7.816406 23.601562 8.140625 23.707031 8.53125 23.824219 C 8.933594 23.941406 9.402344 24.050781 9.9375 24.15625 C 10.472656 24.246094 11.070312 24.292969 11.734375 24.292969 C 12.996094 24.292969 14.078125 24.050781 14.976562 23.570312 C 15.886719 23.074219 16.628906 22.417969 17.203125 21.597656 C 17.777344 20.777344 18.207031 19.828125 18.492188 18.746094 C 18.777344 17.664062 18.933594 16.527344 18.960938 15.328125 C 18.269531 15.730469 17.445312 16.089844 16.480469 16.402344 C 15.515625 16.714844 14.410156 16.871094 13.160156 16.871094 C 11.753906 16.871094 10.570312 16.683594 9.605469 16.304688 C 8.65625 15.914062 7.886719 15.386719 7.300781 14.722656 C 6.726562 14.058594 6.3125 13.269531 6.050781 12.359375 C 5.804688 11.449219 5.679688 10.453125 5.679688 9.371094 C 5.679688 8.25 5.84375 7.191406 6.167969 6.1875 C 6.492188 5.171875 7 4.28125 7.691406 3.511719 C 8.382812 2.742188 9.261719 2.132812 10.328125 1.675781 C 11.394531 1.21875 12.671875 0.992188 14.15625 0.992188 C 15.210938 0.992188 16.140625 1.128906 16.949219 1.402344 C 17.769531 1.664062 18.480469 2.046875 19.078125 2.554688 C 19.675781 3.050781 20.183594 3.65625 20.601562 4.371094 C 21.019531 5.074219 21.351562 5.875 21.597656 6.773438 C 21.859375 7.671875 22.039062 8.648438 22.144531 9.703125 C 22.261719 10.746094 22.320312 11.84375 22.320312 13.003906 Z M 18.902344 12.632812 C 18.902344 10.964844 18.792969 9.566406 18.570312 8.433594 C 18.347656 7.289062 18.023438 6.363281 17.59375 5.660156 C 17.164062 4.957031 16.636719 4.449219 16.011719 4.136719 C 15.386719 3.824219 14.664062 3.667969 13.84375 3.667969 C 12.996094 3.667969 12.273438 3.824219 11.675781 4.136719 C 11.078125 4.4375 10.582031 4.847656 10.191406 5.367188 C 9.8125 5.875 9.535156 6.453125 9.351562 7.105469 C 9.167969 7.757812 9.078125 8.425781 9.078125 9.117188 C 9.078125 9.886719 9.15625 10.589844 9.3125 11.226562 C 9.480469 11.863281 9.75 12.40625 10.113281 12.847656 C 10.476562 13.289062 10.953125 13.636719 11.539062 13.882812 C 12.125 14.117188 12.847656 14.234375 13.707031 14.234375 C 14.683594 14.234375 15.628906 14.089844 16.539062 13.804688 C 17.449219 13.503906 18.238281 13.113281 18.902344 12.632812 Z M 18.902344 12.632812 "/>
</g>
</svg>
