<?xml version="1.0" encoding="UTF-8"?>
<svg xmlns="http://www.w3.org/2000/svg" xmlns:xlink="http://www.w3.org/1999/xlink" width="28px" height="28px" viewBox="0 0 28 28" version="1.1">
<g id="surface1">
<path style="fill-rule:evenodd;fill:rgb(0%,0%,0%);fill-opacity:1;stroke-width:1.11801;stroke-linecap:round;stroke-linejoin:round;stroke:rgb(0%,0%,0%);stroke-opacity:1;stroke-miterlimit:22.9256;" d="M 23.359375 25.765625 C 23.535156 26.0625 23.636719 26.296875 23.660156 26.472656 C 23.703125 26.644531 23.660156 26.785156 23.542969 26.894531 C 23.421875 26.988281 23.21875 27.046875 22.9375 27.074219 C 22.667969 27.113281 22.308594 27.136719 21.851562 27.136719 C 21.421875 27.136719 21.085938 27.121094 20.847656 27.09375 C 20.605469 27.082031 20.410156 27.046875 20.261719 26.992188 C 20.128906 26.941406 20.019531 26.878906 19.941406 26.8125 C 19.875 26.734375 19.8125 26.632812 19.757812 26.511719 L 13.964844 16.152344 L 8.113281 26.511719 C 8.046875 26.632812 7.972656 26.734375 7.890625 26.8125 C 7.8125 26.894531 7.699219 26.960938 7.550781 27.015625 C 7.417969 27.054688 7.226562 27.082031 6.988281 27.09375 C 6.746094 27.121094 6.421875 27.136719 6.023438 27.136719 C 5.578125 27.136719 5.230469 27.113281 4.976562 27.074219 C 4.722656 27.046875 4.539062 26.988281 4.433594 26.894531 C 4.339844 26.785156 4.304688 26.644531 4.332031 26.472656 C 4.371094 26.296875 4.480469 26.0625 4.652344 25.765625 L 11.753906 13.800781 L 4.976562 2.234375 C 4.816406 1.9375 4.707031 1.703125 4.652344 1.527344 C 4.613281 1.339844 4.648438 1.199219 4.753906 1.105469 C 4.863281 1 5.050781 0.933594 5.316406 0.90625 C 5.585938 0.878906 5.953125 0.863281 6.421875 0.863281 C 6.824219 0.863281 7.15625 0.878906 7.410156 0.90625 C 7.664062 0.917969 7.867188 0.953125 8.011719 1.007812 C 8.160156 1.046875 8.269531 1.113281 8.335938 1.207031 C 8.402344 1.289062 8.476562 1.382812 8.554688 1.488281 L 14.148438 11.222656 L 19.699219 1.488281 C 19.765625 1.382812 19.832031 1.289062 19.902344 1.207031 C 19.96875 1.113281 20.0625 1.046875 20.183594 1.007812 C 20.316406 0.953125 20.496094 0.917969 20.726562 0.90625 C 20.953125 0.878906 21.261719 0.863281 21.652344 0.863281 C 22.066406 0.863281 22.402344 0.886719 22.65625 0.925781 C 22.925781 0.953125 23.113281 1.011719 23.21875 1.105469 C 23.339844 1.199219 23.386719 1.339844 23.359375 1.527344 C 23.332031 1.703125 23.238281 1.9375 23.078125 2.234375 L 16.320312 13.71875 Z M 23.359375 25.765625 "/>
</g>
</svg>
