<?xml version="1.0" encoding="UTF-8"?>
<svg xmlns="http://www.w3.org/2000/svg" xmlns:xlink="http://www.w3.org/1999/xlink" width="28px" height="28px" viewBox="0 0 28 28" version="1.1">
<g id="surface1">
<path style=" stroke:none;fill-rule:nonzero;fill:rgb(0%,0%,0%);fill-opacity:1;" d="M 22.738281 13.941406 C 22.738281 15.882812 22.582031 17.652344 22.269531 19.253906 C 21.972656 20.855469 21.464844 22.234375 20.75 23.394531 C 20.042969 24.539062 19.121094 25.433594 17.972656 26.070312 C 16.828125 26.695312 15.414062 27.007812 13.734375 27.007812 C 12.148438 27.007812 10.808594 26.726562 9.710938 26.167969 C 8.632812 25.59375 7.761719 24.761719 7.09375 23.667969 C 6.433594 22.5625 5.957031 21.207031 5.671875 19.605469 C 5.394531 17.992188 5.257812 16.140625 5.257812 14.058594 C 5.257812 12.132812 5.414062 10.367188 5.726562 8.765625 C 6.039062 7.152344 6.546875 5.769531 7.25 4.625 C 7.953125 3.464844 8.878906 2.574219 10.027344 1.949219 C 11.171875 1.3125 12.578125 0.992188 14.246094 0.992188 C 15.84375 0.992188 17.1875 1.277344 18.265625 1.851562 C 19.359375 2.410156 20.238281 3.246094 20.90625 4.351562 C 21.570312 5.445312 22.039062 6.800781 22.3125 8.414062 C 22.597656 10.015625 22.738281 11.859375 22.738281 13.941406 Z M 19.300781 14.175781 C 19.300781 12.914062 19.257812 11.78125 19.167969 10.777344 C 19.074219 9.773438 18.9375 8.890625 18.753906 8.121094 C 18.585938 7.351562 18.359375 6.695312 18.074219 6.148438 C 17.796875 5.589844 17.464844 5.132812 17.078125 4.78125 C 16.683594 4.417969 16.234375 4.15625 15.730469 4 C 15.234375 3.832031 14.671875 3.746094 14.046875 3.746094 C 12.941406 3.746094 12.042969 4.007812 11.355469 4.527344 C 10.664062 5.046875 10.117188 5.765625 9.710938 6.675781 C 9.320312 7.585938 9.054688 8.65625 8.914062 9.878906 C 8.769531 11.101562 8.695312 12.417969 8.695312 13.824219 C 8.695312 15.710938 8.792969 17.320312 8.992188 18.648438 C 9.183594 19.964844 9.492188 21.039062 9.90625 21.871094 C 10.335938 22.703125 10.878906 23.308594 11.53125 23.6875 C 12.195312 24.066406 12.996094 24.253906 13.933594 24.253906 C 14.660156 24.253906 15.300781 24.136719 15.84375 23.902344 C 16.40625 23.667969 16.878906 23.335938 17.269531 22.90625 C 17.675781 22.464844 18.007812 21.9375 18.265625 21.324219 C 18.527344 20.710938 18.734375 20.035156 18.890625 19.292969 C 19.046875 18.550781 19.152344 17.75 19.203125 16.890625 C 19.269531 16.019531 19.304688 15.113281 19.304688 14.175781 Z M 19.300781 14.175781 "/>
</g>
</svg>
