<?xml version="1.0" encoding="UTF-8"?>
<svg xmlns="http://www.w3.org/2000/svg" xmlns:xlink="http://www.w3.org/1999/xlink" width="28px" height="28px" viewBox="0 0 28 28" version="1.1">
<g id="surface1">
<path style="fill-rule:nonzero;fill:rgb(0%,0%,0%);fill-opacity:1;stroke-width:1.18493;stroke-linecap:round;stroke-linejoin:round;stroke:rgb(0%,0%,0%);stroke-opacity:1;stroke-miterlimit:22.9256;" d="M 13.546875 26.496094 C 13.488281 26.664062 13.378906 26.777344 13.265625 26.832031 C 13.152344 26.945312 12.980469 27.003906 12.8125 27.003906 C 12.644531 27.058594 12.417969 27.058594 12.136719 27.003906 C 11.855469 27.003906 11.515625 26.945312 11.121094 26.890625 C 10.839844 26.832031 10.554688 26.777344 10.332031 26.777344 C 10.105469 26.722656 9.878906 26.664062 9.765625 26.609375 C 9.597656 26.550781 9.484375 26.496094 9.371094 26.4375 C 9.257812 26.382812 9.144531 26.324219 9.089844 26.269531 C 9.03125 26.214844 8.976562 26.101562 8.917969 26.042969 C 8.863281 25.929688 8.863281 25.875 8.808594 25.761719 L 1.246094 7.480469 C 1.132812 7.199219 1.1875 6.914062 1.1875 6.691406 C 1.1875 6.519531 1.300781 6.351562 1.414062 6.296875 C 1.527344 6.238281 1.753906 6.183594 2.035156 6.183594 C 2.316406 6.183594 2.710938 6.238281 3.164062 6.296875 C 3.558594 6.351562 3.839844 6.40625 4.066406 6.464844 C 4.292969 6.519531 4.460938 6.578125 4.574219 6.691406 C 4.6875 6.746094 4.742188 6.859375 4.800781 6.972656 C 7.226562 11.9375 9.539062 17.917969 11.742188 23.054688 L 11.796875 23.054688 L 23.027344 1.5 C 23.082031 1.328125 23.140625 1.21875 23.25 1.160156 C 23.308594 1.046875 23.421875 0.992188 23.589844 0.992188 C 23.757812 0.933594 23.929688 0.933594 24.210938 0.992188 C 24.4375 0.992188 24.773438 1.046875 25.226562 1.105469 C 25.679688 1.160156 26.015625 1.21875 26.242188 1.328125 C 26.46875 1.386719 26.636719 1.5 26.75 1.613281 C 26.804688 1.726562 26.863281 1.894531 26.804688 2.0625 C 26.75 2.234375 26.636719 2.457031 26.46875 2.796875 L 13.601562 26.550781 Z M 13.546875 26.496094 "/>
</g>
</svg>
