<?xml version="1.0" encoding="UTF-8" standalone="no"?>
<svg
   version="1.1"
   id="Warstwa_1"
   x="0px"
   y="0px"
   viewBox="0 0 208.6 208.6"
   style="enable-background:new 0 0 208.6 208.6;"
   xml:space="preserve"
   width="208.6"
   height="208.6"
   sodipodi:docname="savetopdf_fill.svg"
   inkscape:version="1.1 (c4e8f9e, 2021-05-24)"
   xmlns:inkscape="http://www.inkscape.org/namespaces/inkscape"
   xmlns:sodipodi="http://sodipodi.sourceforge.net/DTD/sodipodi-0.dtd"
   xmlns="http://www.w3.org/2000/svg"
   xmlns:svg="http://www.w3.org/2000/svg"
   xmlns:rdf="http://www.w3.org/1999/02/22-rdf-syntax-ns#"
   xmlns:cc="http://creativecommons.org/ns#"
   xmlns:dc="http://purl.org/dc/elements/1.1/"><metadata
   id="metadata173"><rdf:RDF><cc:Work
       rdf:about=""><dc:format>image/svg+xml</dc:format><dc:type
         rdf:resource="http://purl.org/dc/dcmitype/StillImage" /></cc:Work></rdf:RDF></metadata><defs
   id="defs171">   </defs><sodipodi:namedview
   pagecolor="#ffffff"
   bordercolor="#666666"
   borderopacity="1"
   objecttolerance="10"
   gridtolerance="10"
   guidetolerance="10"
   inkscape:pageopacity="0"
   inkscape:pageshadow="2"
   inkscape:window-width="1920"
   inkscape:window-height="1027"
   id="namedview169"
   showgrid="false"
   inkscape:zoom="1.3997036"
   inkscape:cx="80.374159"
   inkscape:cy="145.38792"
   inkscape:window-x="1920"
   inkscape:window-y="25"
   inkscape:window-maximized="0"
   inkscape:current-layer="Warstwa_1"
   inkscape:document-rotation="0"
   inkscape:pagecheckerboard="0" /> <style
   type="text/css"
   id="style152"> .st0{fill:#ED695C;} .st1{fill:none;stroke:#ED695C;stroke-width:5;stroke-miterlimit:10;} .st2{fill:none;stroke:#ED695C;stroke-width:5;stroke-linecap:round;stroke-miterlimit:10;} .st3{fill:#ED695C;stroke:#ED6A5C;stroke-miterlimit:10;} .st4{fill:#ED695C;stroke:#ED6A5C;stroke-width:1.5;stroke-miterlimit:10;} .st5{fill:none;stroke:#ED695C;stroke-width:4;stroke-miterlimit:10;} .st6{fill:none;stroke:#ED695C;stroke-miterlimit:10;} .st7{fill:none;stroke:#ED695C;stroke-width:4;stroke-linecap:round;stroke-miterlimit:10;} .st8{fill:#ED695C;stroke:#ED6A5C;stroke-width:0.5;stroke-miterlimit:10;} .st9{fill:none;stroke:#ED695C;stroke-width:2;stroke-miterlimit:10;} .st10{fill:#ED6A5C;} .st11{fill:#ED695C;stroke:#ED6A5C;stroke-width:0.25;stroke-miterlimit:10;} .st12{fill-rule:evenodd;clip-rule:evenodd;fill:#ED695C;} .st13{fill:#F2F2F2;} </style> <circle
   class="st1"
   cx="104.3"
   cy="104.3"
   r="101.8"
   id="circle154"
   style="fill:#ed695c;fill-opacity:1" /> <path
   style="fill:#ffffff;fill-opacity:1;stroke-width:0.219433"
   d="m 118.1965,179.59525 c -0.18739,-0.15084 -2.31725,-2.84166 -4.733,-5.97955 -2.41576,-3.1379 -7.21856,-9.35874 -10.6729,-13.82409 -3.742525,-4.83789 -6.280618,-8.30861 -6.280618,-8.58846 0,-0.2583 0.188599,-0.70276 0.419074,-0.98768 0.412196,-0.50953 0.492333,-0.51908 4.882404,-0.58171 3.84323,-0.0548 4.50144,-0.11402 4.73762,-0.42595 0.2132,-0.28157 0.27432,-3.69644 0.27432,-15.3356 v -14.97335 l 0.57818,-0.45478 c 0.56751,-0.44641 0.78155,-0.4548 11.61965,-0.4548 11.29819,0 11.90773,0.0423 12.31179,0.8526 0.0971,0.19487 0.22602,7.1677 0.28634,15.4952 l 0.10972,15.14092 4.53084,0.10972 c 4.05638,0.0982 4.57915,0.15349 4.99212,0.52774 0.25757,0.23338 0.46126,0.68702 0.46126,1.02707 0,0.63472 -0.21086,0.92105 -9.76357,13.25696 -13.10627,16.92483 -11.9122,15.47006 -12.69773,15.47006 -0.3931,0 -0.8681,-0.12344 -1.05549,-0.27431 z M 66.96003,169.24401 c -3.5399,-0.85852 -6.3978,-3.49314 -7.92567,-7.30655 l -0.59612,-1.48778 -0.0591,-31.54357 -0.0591,-31.543571 h 2.52781 2.5278 v 30.931901 c 0,30.69973 0.003,30.94097 0.45228,32.14065 0.48963,1.30871 1.8637,2.89402 3.08604,3.56055 0.69621,0.37961 1.76965,0.41043 17.884994,0.51356 l 17.144356,0.10972 1.70328,2.19434 c 0.9368,1.20688 1.80007,2.31777 1.91838,2.46863 0.31336,0.39963 -36.95152,0.36306 -38.6048,-0.0379 z m 65.76485,0.14759 c 0.005,-0.0905 0.82456,-1.2014 1.82214,-2.46863 l 1.81376,-2.30405 4.37687,-0.10972 c 3.65135,-0.0915 4.5107,-0.17628 5.18426,-0.51138 1.14142,-0.56784 2.28139,-1.74109 2.98109,-3.06814 l 0.60019,-1.1383 0.0571,-41.95908 0.0571,-41.959082 -11.24819,-0.06244 -11.24818,-0.06244 -1.18727,-0.624991 c -2.4586,-1.294254 -4.21189,-3.818536 -4.62188,-6.654296 -0.11925,-0.824622 -0.21853,-6.454904 -0.22092,-12.524584 l -0.004,-11.026527 H 94.578309 68.06994 l -1.14262,0.56938 c -1.34709,0.67127 -2.54042,2.04031 -3.12925,3.59003 -0.38054,1.00109 -0.42243,1.72272 -0.42243,7.253483 v 6.141782 h -2.52348 -2.52349 v -6.207757 c 0,-4.887678 0.0719,-6.484248 0.33865,-7.508018 1.16427,-4.46996 4.61493,-7.87697 8.76784,-8.65688 0.94472,-0.17745 9.24675,-0.2292 29.394368,-0.18327 l 28.077782,0.064 14.87346,16.238079 14.87347,16.238083 0.003,43.133248 c 0.002,29.66113 -0.0704,43.53993 -0.23169,44.43529 -0.58918,3.2709 -3.01019,6.66182 -5.82061,8.15251 -2.36298,1.25336 -3.2604,1.3783 -9.8999,1.3783 -3.29356,0 -5.98455,-0.0741 -5.97995,-0.16456 z m 13.55995,-98.553642 c -0.0401,-0.105903 -4.56605,-5.102261 -10.05738,-11.10302 l -9.98422,-10.910468 -0.0642,2.27082 c -0.0351,1.24894 -0.0351,5.677518 0,9.841273 0.0926,10.917645 -0.8637,10.082185 11.54787,10.089124 4.86208,0.0025 8.59911,-0.0793 8.55791,-0.187729 z"
   id="path4680"
   sodipodi:nodetypes="cssssssscsssscsssssscccccccscsscsscccccssscccccssccccssscccscsccccccssccccccccccc" /><g
   id="g13874"
   style="fill:#ffffff;fill-opacity:1"
   transform="matrix(3.7795276,0,0,3.7795276,1.25676,7.43323)"><path
     style="fill:#ffffff;fill-opacity:1;stroke-width:0.120533"
     d="m 12.465157,19.556076 v -3.977554 h 7.774306 7.774314 v 3.977554 l 0.100444,3.274411 h -7.774314 -7.774306 z m 2.290105,1.325853 v -0.602662 l 0.632795,-4.55e-4 c 0.891032,-9.12e-4 1.434038,-0.180226 1.844961,-0.609134 0.310068,-0.323645 0.354745,-0.459135 0.354745,-1.075842 0,-0.585163 -0.05143,-0.761297 -0.30133,-1.032142 -0.486017,-0.52674 -0.951547,-0.6571 -2.346499,-0.6571 h -1.269459 v 2.290105 2.290105 h 0.542395 0.542392 z m 0,-2.290111 v -0.723191 h 0.654317 c 0.75282,0 1.033132,0.196699 1.033132,0.724967 0,0.4678 -0.390793,0.721417 -1.111606,0.721417 h -0.575843 z m 7.252192,2.465886 c 0.646946,-0.45426 0.930674,-1.010081 0.938191,-1.837895 0.0098,-1.078533 -0.524234,-1.828894 -1.548979,-2.176467 -0.225343,-0.07643 -0.998255,-0.138966 -1.717578,-0.138966 h -1.307869 v 2.29968 2.299686 l 1.55706,-0.03972 c 1.510775,-0.03854 1.572581,-0.05061 2.079175,-0.406321 z M 19.456006,19.19448 v -1.325853 h 0.668913 c 0.85082,0 1.347948,0.255123 1.580184,0.810949 0.245183,0.586804 0.122927,1.147737 -0.333929,1.532161 -0.310197,0.261014 -0.486122,0.308597 -1.140957,0.308597 h -0.774211 z m 5.423938,1.506649 v -0.783458 h 1.024522 1.024524 v -0.482126 -0.48213 h -1.024524 -1.024522 v -0.538027 -0.538033 l 1.175187,-0.03448 1.175187,-0.03448 0.03741,-0.451991 0.0374,-0.451997 h -1.815253 -1.815259 v 2.290105 2.290111 h 0.602662 0.602661 z"
     id="path11466"
     sodipodi:nodetypes="ccccccccccccssssccccccccsssccscsscccsssccssssccccccccccccccccccccccc" /><rect
     style="fill:#ffffff;fill-opacity:1;stroke:none;stroke-width:1.58879;stroke-linejoin:miter;stroke-miterlimit:4;stroke-dasharray:none;stroke-opacity:1"
     id="rect12954"
     width="1.7103823"
     height="7.2519646"
     x="27.711792"
     y="15.578522" /><rect
     style="fill:#ffffff;fill-opacity:1;stroke:none;stroke-width:1.30227;stroke-linejoin:miter;stroke-miterlimit:4;stroke-dasharray:none;stroke-opacity:1"
     id="rect12954-2"
     width="1.1491163"
     height="7.2519646"
     x="11.93599"
     y="15.578522" /></g></svg>
