<?xml version="1.0" encoding="UTF-8" standalone="no"?>
<svg
   version="1.1"
   id="Warstwa_1"
   x="0px"
   y="0px"
   viewBox="0 0 208.6 208.6"
   style="enable-background:new 0 0 208.6 208.6;"
   xml:space="preserve"
   width="208.6"
   height="208.6"
   sodipodi:docname="uploadpdf_fill.svg"
   inkscape:version="1.1 (c4e8f9e, 2021-05-24)"
   xmlns:inkscape="http://www.inkscape.org/namespaces/inkscape"
   xmlns:sodipodi="http://sodipodi.sourceforge.net/DTD/sodipodi-0.dtd"
   xmlns="http://www.w3.org/2000/svg"
   xmlns:svg="http://www.w3.org/2000/svg"
   xmlns:rdf="http://www.w3.org/1999/02/22-rdf-syntax-ns#"
   xmlns:cc="http://creativecommons.org/ns#"
   xmlns:dc="http://purl.org/dc/elements/1.1/"><metadata
   id="metadata173"><rdf:RDF><cc:Work
       rdf:about=""><dc:format>image/svg+xml</dc:format><dc:type
         rdf:resource="http://purl.org/dc/dcmitype/StillImage" /></cc:Work></rdf:RDF></metadata><defs
   id="defs171">   </defs><sodipodi:namedview
   pagecolor="#ffffff"
   bordercolor="#666666"
   borderopacity="1"
   objecttolerance="10"
   gridtolerance="10"
   guidetolerance="10"
   inkscape:pageopacity="0"
   inkscape:pageshadow="2"
   inkscape:window-width="1920"
   inkscape:window-height="1080"
   id="namedview169"
   showgrid="false"
   inkscape:zoom="1.9794798"
   inkscape:cx="9.3458897"
   inkscape:cy="130.33727"
   inkscape:window-x="0"
   inkscape:window-y="0"
   inkscape:window-maximized="0"
   inkscape:current-layer="Warstwa_1"
   inkscape:document-rotation="0"
   inkscape:pagecheckerboard="0" /> <style
   type="text/css"
   id="style152"> .st0{fill:#ED695C;} .st1{fill:none;stroke:#ED695C;stroke-width:5;stroke-miterlimit:10;} .st2{fill:none;stroke:#ED695C;stroke-width:5;stroke-linecap:round;stroke-miterlimit:10;} .st3{fill:#ED695C;stroke:#ED6A5C;stroke-miterlimit:10;} .st4{fill:#ED695C;stroke:#ED6A5C;stroke-width:1.5;stroke-miterlimit:10;} .st5{fill:none;stroke:#ED695C;stroke-width:4;stroke-miterlimit:10;} .st6{fill:none;stroke:#ED695C;stroke-miterlimit:10;} .st7{fill:none;stroke:#ED695C;stroke-width:4;stroke-linecap:round;stroke-miterlimit:10;} .st8{fill:#ED695C;stroke:#ED6A5C;stroke-width:0.5;stroke-miterlimit:10;} .st9{fill:none;stroke:#ED695C;stroke-width:2;stroke-miterlimit:10;} .st10{fill:#ED6A5C;} .st11{fill:#ED695C;stroke:#ED6A5C;stroke-width:0.25;stroke-miterlimit:10;} .st12{fill-rule:evenodd;clip-rule:evenodd;fill:#ED695C;} .st13{fill:#F2F2F2;} </style> <circle
   class="st1"
   cx="104.3"
   cy="104.3"
   r="101.8"
   id="circle154"
   style="fill:#ed695c;fill-opacity:1" /> <path
   id="path4680"
   style="fill:#ffffff;fill-opacity:1;stroke-width:0.219433"
   d="M 96.830078 25.916016 C 76.68246 25.870086 68.380267 25.922159 67.435547 26.099609 C 63.282637 26.879519 59.832239 30.287852 58.667969 34.757812 C 58.401219 35.781582 58.328125 37.377947 58.328125 42.265625 L 58.328125 48.472656 L 60.851562 48.472656 L 63.375 48.472656 L 63.375 42.330078 C 63.375 36.799315 63.418288 36.079215 63.798828 35.078125 C 64.387658 33.528405 65.580644 32.159551 66.927734 31.488281 L 68.070312 30.917969 L 94.578125 30.917969 L 121.08789 30.917969 L 121.0918 41.945312 C 121.09419 48.014993 121.19325 53.644128 121.3125 54.46875 C 121.72249 57.30451 123.47499 59.828793 125.93359 61.123047 L 127.12109 61.748047 L 138.36914 61.810547 L 149.61719 61.873047 L 149.56055 103.83203 L 149.50391 145.79102 L 148.90234 146.92969 C 148.20264 148.25674 147.0633 149.43021 145.92188 149.99805 C 145.24832 150.33315 144.39076 150.49947 140.73828 150.50977 L 126.47656 150.55078 C 126.46669 152.08281 126.45836 153.77638 126.45312 155.69922 C 130.96772 155.7872 135.32616 155.73227 138.70508 155.55664 C 145.34458 155.55664 146.24249 155.43109 148.60547 154.17773 C 151.41589 152.68704 153.8366 149.29629 154.42578 146.02539 C 154.58707 145.13003 154.6602 131.25097 154.6582 101.58984 L 154.6543 58.457031 L 139.78125 42.21875 L 124.9082 25.980469 L 96.830078 25.916016 z M 126.24414 34.824219 L 136.22656 45.734375 C 141.71789 51.735134 146.24506 56.731988 146.28516 56.837891 C 146.32636 56.94632 142.58864 57.027891 137.72656 57.025391 C 125.31499 57.018452 126.27229 57.855145 126.17969 46.9375 C 126.14459 42.773745 126.14459 38.344643 126.17969 37.095703 L 126.24414 34.824219 z M 58.320312 83.363281 L 58.378906 114.90625 L 58.4375 146.44922 L 59.035156 147.9375 C 60.563026 151.75091 63.421037 154.38562 66.960938 155.24414 C 67.66443 155.41476 76.00947 155.562 84.982422 155.66016 L 84.945312 150.50977 L 84.798828 150.50977 C 68.683484 150.40664 67.610272 150.3757 66.914062 149.99609 C 65.691722 149.32956 64.317755 147.74426 63.828125 146.43555 C 63.378845 145.23587 63.375 144.99465 63.375 114.29492 L 63.375 83.363281 L 60.847656 83.363281 L 58.320312 83.363281 z " /><g
   id="g13874"
   style="fill:#ffffff;fill-opacity:1"
   transform="matrix(3.7795276,0,0,3.7795276,1.25676,-6.56677)"><path
     style="fill:#ffffff;fill-opacity:1;stroke-width:0.120533"
     d="m 12.465157,19.556076 v -3.977554 h 7.774306 7.774314 v 3.977554 l 0.100444,3.274411 h -7.774314 -7.774306 z m 2.290105,1.325853 v -0.602662 l 0.632795,-4.55e-4 c 0.891032,-9.12e-4 1.434038,-0.180226 1.844961,-0.609134 0.310068,-0.323645 0.354745,-0.459135 0.354745,-1.075842 0,-0.585163 -0.05143,-0.761297 -0.30133,-1.032142 -0.486017,-0.52674 -0.951547,-0.6571 -2.346499,-0.6571 h -1.269459 v 2.290105 2.290105 h 0.542395 0.542392 z m 0,-2.290111 v -0.723191 h 0.654317 c 0.75282,0 1.033132,0.196699 1.033132,0.724967 0,0.4678 -0.390793,0.721417 -1.111606,0.721417 h -0.575843 z m 7.252192,2.465886 c 0.646946,-0.45426 0.930674,-1.010081 0.938191,-1.837895 0.0098,-1.078533 -0.524234,-1.828894 -1.548979,-2.176467 -0.225343,-0.07643 -0.998255,-0.138966 -1.717578,-0.138966 h -1.307869 v 2.29968 2.299686 l 1.55706,-0.03972 c 1.510775,-0.03854 1.572581,-0.05061 2.079175,-0.406321 z M 19.456006,19.19448 v -1.325853 h 0.668913 c 0.85082,0 1.347948,0.255123 1.580184,0.810949 0.245183,0.586804 0.122927,1.147737 -0.333929,1.532161 -0.310197,0.261014 -0.486122,0.308597 -1.140957,0.308597 h -0.774211 z m 5.423938,1.506649 v -0.783458 h 1.024522 1.024524 v -0.482126 -0.48213 h -1.024524 -1.024522 v -0.538027 -0.538033 l 1.175187,-0.03448 1.175187,-0.03448 0.03741,-0.451991 0.0374,-0.451997 h -1.815253 -1.815259 v 2.290105 2.290111 h 0.602662 0.602661 z"
     id="path11466"
     sodipodi:nodetypes="ccccccccccccssssccccccccsssccscsscccsssccssssccccccccccccccccccccccc" /><rect
     style="fill:#ffffff;fill-opacity:1;stroke:none;stroke-width:1.58879;stroke-linejoin:miter;stroke-miterlimit:4;stroke-dasharray:none;stroke-opacity:1"
     id="rect12954"
     width="1.7103823"
     height="7.2519646"
     x="27.711792"
     y="15.578522" /><rect
     style="fill:#ffffff;fill-opacity:1;stroke:none;stroke-width:1.30227;stroke-linejoin:miter;stroke-miterlimit:4;stroke-dasharray:none;stroke-opacity:1"
     id="rect12954-2"
     width="1.1491163"
     height="7.2519646"
     x="11.93599"
     y="15.578522" /></g><path
   style="fill:#ffffff;fill-opacity:1;stroke-width:0.314661"
   d="m 107.55414,97.380569 c 0.26872,0.216301 3.32288,4.074871 6.78702,8.574531 3.46414,4.49968 10.35124,13.42022 15.30468,19.82343 5.36669,6.93742 9.00627,11.91436 9.00627,12.31566 0,0.37039 -0.27045,1.00774 -0.60095,1.4163 -0.59108,0.73066 -0.70599,0.74435 -7.00125,0.83416 -5.5111,0.0786 -6.45496,0.1635 -6.79364,0.6108 -0.30572,0.40377 -0.39336,5.30061 -0.39336,21.9909 v 21.47144 l -0.8291,0.65215 c -0.8138,0.64014 -1.12073,0.65217 -16.66231,0.65217 -16.201344,0 -17.075411,-0.0606 -17.654824,-1.22261 -0.139239,-0.27944 -0.324107,-10.27832 -0.410605,-22.21976 l -0.157336,-21.71173 -6.49712,-0.15734 c -5.816755,-0.14082 -6.566395,-0.2201 -7.158584,-0.75676 -0.36935,-0.33467 -0.661437,-0.98517 -0.661437,-1.47279 0,-0.91018 0.302369,-1.32077 14.000734,-19.01019 18.794092,-24.269808 17.081822,-22.183701 18.208262,-22.183701 0.56369,0 1.24483,0.17701 1.51354,0.393354 z"
   id="path4680-2-8"
   sodipodi:nodetypes="cssssssscsssscssssssc" /></svg>
