<?xml version="1.0" encoding="UTF-8"?>
<svg xmlns="http://www.w3.org/2000/svg" xmlns:xlink="http://www.w3.org/1999/xlink" width="28px" height="28px" viewBox="0 0 28 28" version="1.1">
<g id="surface1">
<path style=" stroke:none;fill-rule:nonzero;fill:rgb(0%,0%,0%);fill-opacity:1;" d="M 23.269531 23.539062 L 23.269531 26.671875 L 5.054688 26.671875 L 5.054688 24.007812 L 14.808594 13.890625 C 15.867188 12.835938 16.707031 11.792969 17.328125 10.761719 C 17.953125 9.703125 18.265625 8.792969 18.265625 8.023438 C 18.265625 6.894531 17.820312 6.007812 16.933594 5.359375 C 16.070312 4.710938 14.871094 4.386719 13.335938 4.386719 C 12.15625 4.386719 10.933594 4.664062 9.660156 5.214844 C 8.390625 5.742188 7.238281 6.488281 6.207031 7.449219 L 4.730469 4.820312 C 6.097656 3.714844 7.550781 2.863281 9.085938 2.265625 C 10.644531 1.640625 12.207031 1.328125 13.765625 1.328125 C 16.214844 1.328125 18.171875 1.890625 19.632812 3.019531 C 21.121094 4.148438 21.867188 5.660156 21.867188 7.554688 C 21.867188 9.789062 20.304688 12.523438 17.1875 15.765625 L 9.589844 23.539062 Z M 23.269531 23.539062 "/>
</g>
</svg>
