<?xml version="1.0" encoding="UTF-8"?>
<svg xmlns="http://www.w3.org/2000/svg" xmlns:xlink="http://www.w3.org/1999/xlink" width="28px" height="28px" viewBox="0 0 28 28" version="1.1">
<g id="surface1">
<path style=" stroke:none;fill-rule:nonzero;fill:rgb(0%,0%,0%);fill-opacity:1;" d="M 14.054688 10.707031 C 15.902344 10.707031 17.523438 11.03125 18.914062 11.679688 C 20.328125 12.324219 21.410156 13.226562 22.152344 14.378906 C 22.921875 15.53125 23.304688 16.824219 23.304688 18.265625 C 23.304688 19.945312 22.910156 21.421875 22.117188 22.695312 C 21.351562 23.964844 20.246094 24.949219 18.804688 25.644531 C 17.367188 26.34375 15.699219 26.691406 13.800781 26.691406 C 12.3125 26.691406 10.742188 26.4375 9.085938 25.933594 C 7.453125 25.40625 5.988281 24.710938 4.695312 23.847656 L 6.097656 21.074219 C 7.179688 21.890625 8.367188 22.515625 9.660156 22.945312 C 10.957031 23.378906 12.230469 23.59375 13.476562 23.59375 C 15.375 23.59375 16.875 23.136719 17.976562 22.226562 C 19.082031 21.3125 19.632812 20.078125 19.632812 18.519531 C 19.632812 17.054688 19.082031 15.914062 17.976562 15.097656 C 16.875 14.257812 15.300781 13.839844 13.261719 13.839844 C 12.519531 13.839844 11.4375 13.886719 10.023438 13.980469 C 8.605469 14.078125 7.464844 14.199219 6.601562 14.34375 L 6.601562 1.308594 L 22.261719 1.308594 L 22.261719 4.441406 L 9.84375 4.441406 L 9.84375 10.851562 C 10.96875 10.753906 12.375 10.707031 14.054688 10.707031 Z M 14.054688 10.707031 "/>
</g>
</svg>
