<?xml version="1.0" encoding="UTF-8"?>
<svg xmlns="http://www.w3.org/2000/svg" xmlns:xlink="http://www.w3.org/1999/xlink" width="28px" height="28px" viewBox="0 0 28 28" version="1.1">
<g id="surface1">
<path style=" stroke:none;fill-rule:nonzero;fill:rgb(0%,0%,0%);fill-opacity:1;" d="M 21.199219 5.703125 C 20.40625 5.199219 19.496094 4.8125 18.464844 4.550781 C 17.457031 4.261719 16.460938 4.117188 15.476562 4.117188 C 13.050781 4.117188 11.191406 4.957031 9.894531 6.636719 C 8.601562 8.316406 7.953125 10.621094 7.953125 13.550781 C 7.953125 14.007812 7.964844 14.355469 7.988281 14.59375 C 8.613281 13.226562 9.546875 12.183594 10.796875 11.460938 C 12.042969 10.742188 13.542969 10.382812 15.296875 10.382812 C 17.816406 10.382812 19.796875 11.101562 21.234375 12.542969 C 22.699219 13.980469 23.433594 15.925781 23.433594 18.375 C 23.433594 20.078125 23.070312 21.566406 22.351562 22.839844 C 21.632812 24.085938 20.613281 25.058594 19.292969 25.753906 C 17.972656 26.425781 16.4375 26.761719 14.683594 26.761719 C 12.597656 26.761719 10.785156 26.28125 9.246094 25.320312 C 7.734375 24.363281 6.570312 22.96875 5.757812 21.144531 C 4.964844 19.296875 4.566406 17.089844 4.566406 14.523438 C 4.566406 11.859375 5 9.53125 5.863281 7.539062 C 6.753906 5.523438 7.988281 3.972656 9.570312 2.894531 C 11.179688 1.789062 13.0625 1.238281 15.222656 1.238281 C 16.425781 1.238281 17.683594 1.40625 19.003906 1.742188 C 20.347656 2.078125 21.535156 2.523438 22.566406 3.074219 Z M 14.683594 13.152344 C 13.460938 13.152344 12.390625 13.40625 11.480469 13.910156 C 10.566406 14.390625 9.859375 15.039062 9.355469 15.855469 C 8.875 16.671875 8.648438 17.558594 8.671875 18.519531 C 8.648438 19.359375 8.851562 20.175781 9.285156 20.964844 C 9.714844 21.757812 10.363281 22.417969 11.226562 22.945312 C 12.117188 23.472656 13.195312 23.738281 14.46875 23.738281 C 16.195312 23.738281 17.574219 23.257812 18.609375 22.296875 C 19.664062 21.339844 20.191406 20.019531 20.191406 18.339844 C 20.191406 16.753906 19.6875 15.492188 18.679688 14.558594 C 17.695312 13.621094 16.363281 13.152344 14.683594 13.152344 Z M 14.683594 13.152344 "/>
</g>
</svg>
