<?xml version="1.0" encoding="UTF-8"?>
<svg xmlns="http://www.w3.org/2000/svg" xmlns:xlink="http://www.w3.org/1999/xlink" width="28px" height="28px" viewBox="0 0 28 28" version="1.1">
<g id="surface1">
<path style=" stroke:none;fill-rule:nonzero;fill:rgb(0%,0%,0%);fill-opacity:1;" d="M 13.964844 1.238281 C 16.507812 1.238281 18.511719 1.8125 19.976562 2.964844 C 21.441406 4.09375 22.171875 5.652344 22.171875 7.644531 C 22.171875 8.894531 21.824219 9.996094 21.128906 10.957031 C 20.457031 11.894531 19.507812 12.613281 18.285156 13.117188 C 19.890625 13.621094 21.152344 14.4375 22.0625 15.566406 C 22.976562 16.671875 23.433594 17.988281 23.433594 19.527344 C 23.433594 21.757812 22.578125 23.523438 20.875 24.816406 C 19.195312 26.113281 16.902344 26.761719 14 26.761719 C 11.097656 26.761719 8.792969 26.125 7.089844 24.855469 C 5.40625 23.558594 4.566406 21.804688 4.566406 19.597656 C 4.566406 18.039062 5.035156 16.695312 5.972656 15.566406 C 6.90625 14.4375 8.203125 13.621094 9.859375 13.117188 C 8.5625 12.566406 7.554688 11.820312 6.835938 10.886719 C 6.140625 9.925781 5.792969 8.808594 5.792969 7.539062 C 5.792969 5.59375 6.523438 4.058594 7.988281 2.929688 C 9.453125 1.800781 11.445312 1.238281 13.964844 1.238281 Z M 14 3.757812 C 12.34375 3.757812 11.046875 4.117188 10.113281 4.839844 C 9.199219 5.558594 8.742188 6.554688 8.742188 7.824219 C 8.742188 9.121094 9.199219 10.128906 10.113281 10.851562 C 11.046875 11.570312 12.34375 11.929688 14 11.929688 C 15.65625 11.929688 16.941406 11.570312 17.851562 10.851562 C 18.765625 10.128906 19.21875 9.121094 19.21875 7.824219 C 19.21875 6.554688 18.765625 5.558594 17.851562 4.839844 C 16.941406 4.117188 15.65625 3.757812 14 3.757812 Z M 13.964844 14.664062 C 12.042969 14.664062 10.542969 15.074219 9.464844 15.890625 C 8.382812 16.683594 7.84375 17.785156 7.84375 19.203125 C 7.84375 20.714844 8.382812 21.890625 9.464844 22.730469 C 10.542969 23.570312 12.054688 23.988281 14 23.988281 C 15.921875 23.988281 17.421875 23.570312 18.5 22.730469 C 19.605469 21.890625 20.15625 20.726562 20.15625 19.238281 C 20.15625 17.820312 19.605469 16.707031 18.5 15.890625 C 17.421875 15.074219 15.90625 14.664062 13.964844 14.664062 Z M 13.964844 14.664062 "/>
</g>
</svg>
