<?xml version="1.0" encoding="UTF-8"?>
<svg xmlns="http://www.w3.org/2000/svg" xmlns:xlink="http://www.w3.org/1999/xlink" width="28px" height="28px" viewBox="0 0 28 28" version="1.1">
<g id="surface1">
<path style=" stroke:none;fill-rule:nonzero;fill:rgb(0%,0%,0%);fill-opacity:1;" d="M 6.835938 22.261719 C 7.652344 22.765625 8.550781 23.160156 9.535156 23.449219 C 10.542969 23.714844 11.539062 23.847656 12.523438 23.847656 C 14.925781 23.847656 16.761719 23.007812 18.03125 21.324219 C 19.328125 19.621094 19.976562 17.304688 19.976562 14.378906 C 19.976562 13.921875 19.964844 13.574219 19.941406 13.335938 C 19.339844 14.726562 18.414062 15.78125 17.167969 16.503906 C 15.945312 17.222656 14.457031 17.582031 12.703125 17.582031 C 10.207031 17.582031 8.238281 16.863281 6.800781 15.421875 C 5.359375 13.980469 4.640625 12.039062 4.640625 9.589844 C 4.640625 7.886719 5 6.410156 5.71875 5.160156 C 6.441406 3.890625 7.449219 2.917969 8.742188 2.246094 C 10.0625 1.574219 11.589844 1.238281 13.316406 1.238281 C 15.378906 1.238281 17.167969 1.71875 18.679688 2.679688 C 20.191406 3.636719 21.34375 5.03125 22.136719 6.855469 C 22.953125 8.679688 23.359375 10.863281 23.359375 13.40625 C 23.359375 16.070312 22.929688 18.410156 22.0625 20.425781 C 21.199219 22.441406 19.964844 24.003906 18.355469 25.105469 C 16.746094 26.210938 14.875 26.761719 12.738281 26.761719 C 11.5625 26.761719 10.316406 26.59375 8.996094 26.257812 C 7.675781 25.898438 6.5 25.441406 5.46875 24.890625 Z M 13.53125 4.226562 C 11.828125 4.226562 10.460938 4.707031 9.429688 5.664062 C 8.394531 6.625 7.878906 7.945312 7.878906 9.625 C 7.878906 11.210938 8.371094 12.46875 9.355469 13.40625 C 10.339844 14.34375 11.660156 14.808594 13.316406 14.808594 C 14.539062 14.808594 15.597656 14.570312 16.484375 14.089844 C 17.394531 13.585938 18.09375 12.925781 18.570312 12.109375 C 19.050781 11.269531 19.292969 10.371094 19.292969 9.410156 C 19.292969 8.59375 19.074219 7.789062 18.644531 6.996094 C 18.234375 6.183594 17.601562 5.523438 16.734375 5.019531 C 15.871094 4.488281 14.804688 4.226562 13.53125 4.226562 Z M 13.53125 4.226562 "/>
</g>
</svg>
