<?xml version="1.0" encoding="UTF-8"?>
<svg xmlns="http://www.w3.org/2000/svg" xmlns:xlink="http://www.w3.org/1999/xlink" width="28px" height="28px" viewBox="0 0 28 28" version="1.1">
<g id="surface1">
<path style="fill-rule:nonzero;fill:rgb(0%,0%,0%);fill-opacity:1;stroke-width:1.61433;stroke-linecap:butt;stroke-linejoin:miter;stroke:rgb(0%,0%,0%);stroke-opacity:1;stroke-miterlimit:22.9256;" d="M 15.714844 13.976562 L 26.460938 3.230469 C 26.964844 2.726562 26.964844 1.96875 26.460938 1.464844 C 25.957031 0.960938 25.199219 0.960938 24.695312 1.464844 L 13.949219 12.210938 L 3.203125 1.464844 C 2.699219 0.960938 1.941406 0.960938 1.4375 1.464844 C 0.933594 1.96875 0.933594 2.726562 1.4375 3.230469 L 12.183594 13.976562 L 1.4375 24.722656 C 0.933594 25.226562 0.933594 25.984375 1.4375 26.488281 C 1.691406 26.738281 1.992188 26.890625 2.347656 26.890625 C 2.648438 26.890625 3.003906 26.738281 3.253906 26.488281 L 14 15.742188 L 24.746094 26.488281 C 24.996094 26.738281 25.300781 26.890625 25.652344 26.890625 C 25.957031 26.890625 26.308594 26.738281 26.5625 26.488281 C 27.066406 25.984375 27.066406 25.226562 26.5625 24.722656 L 15.816406 13.976562 Z M 15.714844 13.976562 "/>
</g>
</svg>
