<?xml version="1.0" encoding="UTF-8"?>
<svg xmlns="http://www.w3.org/2000/svg" xmlns:xlink="http://www.w3.org/1999/xlink" width="28px" height="28px" viewBox="0 0 28 28" version="1.1">
<g id="surface1">
<path style=" stroke:none;fill-rule:nonzero;fill:rgb(0%,0%,0%);fill-opacity:1;" d="M 14 1.238281 C 17.382812 1.238281 19.988281 2.34375 21.8125 4.550781 C 23.636719 6.734375 24.546875 9.878906 24.546875 13.980469 C 24.546875 18.085938 23.636719 21.242188 21.8125 23.449219 C 19.988281 25.65625 17.382812 26.761719 14 26.761719 C 10.59375 26.761719 7.976562 25.65625 6.152344 23.449219 C 4.351562 21.242188 3.453125 18.085938 3.453125 13.980469 C 3.453125 9.878906 4.351562 6.734375 6.152344 4.550781 C 7.976562 2.34375 10.59375 1.238281 14 1.238281 Z M 14 3.972656 C 9.34375 3.972656 7.015625 7.308594 7.015625 13.980469 C 7.015625 17.292969 7.605469 19.789062 8.78125 21.46875 C 9.957031 23.148438 11.695312 23.988281 14 23.988281 C 16.304688 23.988281 18.042969 23.148438 19.21875 21.46875 C 20.394531 19.789062 20.984375 17.292969 20.984375 13.980469 C 20.984375 7.308594 18.65625 3.972656 14 3.972656 Z M 14 3.972656 "/>
</g>
</svg>
