<?xml version="1.0" encoding="UTF-8" standalone="no"?>
<!DOCTYPE svg PUBLIC "-//W3C//DTD SVG 1.1//EN" "http://www.w3.org/Graphics/SVG/1.1/DTD/svg11.dtd">
<svg width="100%" height="100%" viewBox="0 0 28 28" version="1.1" xmlns="http://www.w3.org/2000/svg" xmlns:xlink="http://www.w3.org/1999/xlink" xml:space="preserve" xmlns:serif="http://www.serif.com/" style="fill-rule:evenodd;clip-rule:evenodd;stroke-linejoin:round;stroke-miterlimit:2;">
    <g transform="matrix(0.127982,0,0,0.127982,-211.115,-461.308)">
        <g id="surface1">
            <g>
                <g transform="matrix(10.5952,0,0,10.5952,1126.74,2261.48)">
                    <path d="M68.003,135.372C67.216,135.372 66.727,135.51 66.432,135.655C66.283,135.726 66.184,135.799 66.121,135.855C66.057,135.915 66.027,135.962 66.027,135.962L66.012,135.988L66.012,136.759L66.027,136.785C66.027,136.785 66.057,136.834 66.121,136.893C66.184,136.949 66.283,137.023 66.432,137.096C66.727,137.239 67.216,137.377 68.003,137.377C68.788,137.377 69.276,137.239 69.573,137.096C69.719,137.024 69.822,136.949 69.886,136.893C69.948,136.834 69.981,136.785 69.981,136.785L69.994,136.759L69.994,135.988L69.981,135.962C69.981,135.962 69.948,135.915 69.886,135.855C69.822,135.799 69.719,135.726 69.573,135.655C69.276,135.51 68.788,135.372 68.003,135.372ZM68.003,135.581C68.756,135.581 69.209,135.712 69.465,135.839C69.593,135.901 69.674,135.962 69.719,136.006C69.755,136.039 69.758,136.042 69.762,136.052L69.762,136.698C69.758,136.704 69.755,136.711 69.719,136.743C69.674,136.786 69.593,136.847 69.465,136.911C69.209,137.034 68.756,137.166 68.003,137.166C67.247,137.166 66.795,137.034 66.541,136.911C66.412,136.847 66.332,136.786 66.284,136.743C66.253,136.711 66.249,136.704 66.243,136.698L66.243,136.052C66.249,136.042 66.251,136.039 66.284,136.006C66.332,135.962 66.412,135.901 66.541,135.839C66.795,135.712 67.247,135.581 68.003,135.581ZM68.003,136.155C67.156,136.155 66.464,136.342 66.464,136.569C66.464,136.796 67.156,136.983 68.003,136.983C68.85,136.983 69.544,136.796 69.544,136.569C69.544,136.342 68.85,136.155 68.003,136.155ZM66.782,137.424C66.75,137.424 66.717,137.441 66.695,137.469L66.216,138.084C66.103,138.21 66.3,138.382 66.397,138.237L66.875,137.622C66.94,137.541 66.882,137.419 66.782,137.424ZM69.22,137.424C69.128,137.434 69.082,137.547 69.142,137.622L69.606,138.235C69.702,138.358 69.878,138.21 69.786,138.084L69.321,137.471C69.3,137.441 69.268,137.424 69.233,137.424L69.22,137.424ZM68.001,137.75C67.936,137.75 67.884,137.807 67.887,137.874L67.887,138.659C67.881,138.828 68.121,138.828 68.118,138.659L68.118,137.874C68.118,137.805 68.066,137.75 68.001,137.75" style="fill:rgb(12,6,11);fill-rule:nonzero;"/>
                </g>
                <g transform="matrix(10.5952,0,0,10.5952,1126.74,2261.48)">
                    <path d="M59.67,135.372C58.882,135.372 58.392,135.51 58.097,135.655C57.95,135.726 57.85,135.799 57.786,135.855C57.724,135.915 57.694,135.962 57.694,135.962L57.678,135.988L57.678,136.759L57.694,136.785C57.694,136.785 57.724,136.834 57.786,136.893C57.85,136.949 57.95,137.023 58.097,137.096C58.392,137.239 58.882,137.377 59.67,137.377C60.456,137.377 60.941,137.239 61.24,137.096C61.386,137.024 61.488,136.949 61.552,136.893C61.615,136.834 61.646,136.785 61.646,136.785L61.661,136.759L61.661,135.988L61.646,135.962C61.646,135.962 61.615,135.915 61.552,135.855C61.488,135.799 61.386,135.726 61.24,135.655C60.941,135.51 60.456,135.372 59.67,135.372ZM59.67,135.581C60.425,135.581 60.877,135.712 61.13,135.839C61.26,135.901 61.341,135.962 61.386,136.006C61.422,136.039 61.426,136.042 61.428,136.052L61.428,136.698C61.426,136.704 61.422,136.711 61.386,136.743C61.341,136.786 61.26,136.847 61.13,136.911C60.877,137.034 60.425,137.166 59.67,137.166C58.914,137.166 58.464,137.034 58.209,136.911C58.079,136.847 57.999,136.786 57.953,136.743C57.919,136.711 57.915,136.704 57.909,136.698L57.909,136.052C57.915,136.042 57.916,136.039 57.953,136.006C57.999,135.962 58.079,135.901 58.209,135.839C58.464,135.712 58.914,135.581 59.67,135.581ZM59.67,136.155C58.823,136.155 58.129,136.342 58.129,136.569C58.129,136.796 58.823,136.983 59.67,136.983C60.516,136.983 61.212,136.796 61.212,136.569C61.212,136.342 60.516,136.155 59.67,136.155ZM58.448,137.424C58.414,137.424 58.383,137.441 58.363,137.469L57.884,138.084C57.77,138.21 57.967,138.382 58.064,138.237L58.541,137.622C58.604,137.541 58.548,137.419 58.448,137.424ZM60.886,137.424C60.795,137.434 60.748,137.547 60.808,137.622L61.272,138.235C61.368,138.358 61.544,138.21 61.453,138.084L60.991,137.471C60.968,137.441 60.933,137.424 60.901,137.424L60.886,137.424ZM59.667,137.75C59.602,137.75 59.55,137.807 59.552,137.874L59.552,138.659C59.547,138.828 59.788,138.828 59.785,138.659L59.785,137.874C59.785,137.805 59.732,137.75 59.667,137.75" style="fill:rgb(12,6,11);fill-rule:nonzero;"/>
                </g>
                <g transform="matrix(10.5952,0,0,10.5952,1126.74,2261.48)">
                    <path d="M51.336,135.372C50.548,135.372 50.061,135.51 49.764,135.655C49.614,135.726 49.515,135.799 49.454,135.855C49.39,135.915 49.358,135.962 49.358,135.962L49.345,135.988L49.345,136.759L49.358,136.785C49.358,136.785 49.39,136.834 49.454,136.893C49.515,136.949 49.614,137.023 49.764,137.096C50.061,137.239 50.548,137.377 51.336,137.377C52.122,137.377 52.609,137.239 52.908,137.096C53.053,137.024 53.155,136.949 53.217,136.893C53.281,136.834 53.311,136.785 53.311,136.785L53.327,136.759L53.327,135.988L53.311,135.962C53.311,135.962 53.281,135.915 53.217,135.855C53.155,135.799 53.053,135.726 52.908,135.655C52.609,135.51 52.122,135.372 51.336,135.372ZM51.336,135.581C52.09,135.581 52.543,135.712 52.798,135.839C52.926,135.901 53.007,135.962 53.053,136.006C53.087,136.039 53.09,136.042 53.095,136.052L53.095,136.698C53.09,136.704 53.087,136.711 53.053,136.743C53.007,136.786 52.926,136.847 52.798,136.911C52.543,137.034 52.09,137.166 51.336,137.166C50.578,137.166 50.13,137.034 49.873,136.911C49.745,136.847 49.665,136.786 49.616,136.743C49.584,136.711 49.581,136.704 49.577,136.698L49.577,136.052C49.581,136.042 49.583,136.039 49.616,136.006C49.665,135.962 49.745,135.901 49.873,135.839C50.13,135.712 50.578,135.581 51.336,135.581ZM51.336,136.155C50.487,136.155 49.796,136.342 49.796,136.569C49.796,136.796 50.487,136.983 51.336,136.983C52.181,136.983 52.877,136.796 52.877,136.569C52.877,136.342 52.181,136.155 51.336,136.155ZM50.113,137.424C50.082,137.424 50.048,137.441 50.029,137.469L49.549,138.084C49.437,138.21 49.632,138.382 49.731,138.237L50.208,137.622C50.272,137.541 50.215,137.419 50.113,137.424ZM52.552,137.424C52.46,137.434 52.417,137.547 52.476,137.622L52.939,138.235C53.033,138.358 53.21,138.21 53.12,138.084L52.655,137.471C52.633,137.441 52.6,137.424 52.565,137.424L52.552,137.424ZM51.334,137.75C51.269,137.75 51.216,137.807 51.218,137.874L51.218,138.659C51.214,138.828 51.453,138.828 51.451,138.659L51.451,137.874C51.451,137.805 51.399,137.75 51.334,137.75" style="fill:rgb(12,6,11);fill-rule:nonzero;"/>
                </g>
            </g>
        </g>
    </g>
</svg>
