<?xml version="1.0" encoding="UTF-8"?>
<svg xmlns="http://www.w3.org/2000/svg" xmlns:xlink="http://www.w3.org/1999/xlink" width="28px" height="28px" viewBox="0 0 28 28" version="1.1">
<g id="surface1">
<path style=" stroke:none;fill-rule:nonzero;fill:rgb(0%,0%,0%);fill-opacity:1;" d="M 23.988281 21.46875 L 23.988281 26.761719 L 4.765625 26.761719 L 4.730469 22.40625 L 13.910156 12.972656 C 14.628906 12.230469 15.21875 11.484375 15.675781 10.742188 C 16.128906 9.996094 16.359375 9.363281 16.359375 8.835938 C 16.359375 8.136719 16.105469 7.609375 15.601562 7.25 C 15.097656 6.867188 14.390625 6.675781 13.476562 6.675781 C 12.46875 6.675781 11.34375 6.960938 10.09375 7.539062 C 8.871094 8.089844 7.683594 8.871094 6.53125 9.878906 L 4.011719 5.019531 C 7.488281 2.496094 10.980469 1.238281 14.484375 1.238281 C 16.164062 1.238281 17.664062 1.515625 18.984375 2.066406 C 20.328125 2.617188 21.375 3.398438 22.117188 4.40625 C 22.886719 5.414062 23.269531 6.566406 23.269531 7.863281 C 23.269531 9.15625 22.839844 10.503906 21.972656 11.894531 C 21.132812 13.261719 19.933594 14.726562 18.375 16.285156 L 13.226562 21.46875 Z M 23.988281 21.46875 "/>
</g>
</svg>
