<?xml version="1.0" encoding="UTF-8"?>
<svg xmlns="http://www.w3.org/2000/svg" xmlns:xlink="http://www.w3.org/1999/xlink" width="28px" height="28px" viewBox="0 0 28 28" version="1.1">
<g id="surface1">
<path style=" stroke:none;fill-rule:nonzero;fill:rgb(0%,0%,0%);fill-opacity:1;" d="M 17.328125 11.605469 C 19.371094 11.894531 21.003906 12.648438 22.226562 13.875 C 23.472656 15.074219 24.097656 16.621094 24.097656 18.519531 C 24.097656 20.125 23.679688 21.554688 22.839844 22.800781 C 21.996094 24.050781 20.808594 25.023438 19.273438 25.71875 C 17.738281 26.414062 15.9375 26.761719 13.875 26.761719 C 12.027344 26.761719 10.203125 26.484375 8.402344 25.933594 C 6.625 25.359375 5.125 24.601562 3.902344 23.664062 L 6.351562 19.023438 C 7.40625 19.910156 8.535156 20.582031 9.734375 21.039062 C 10.933594 21.492188 12.132812 21.722656 13.335938 21.722656 C 14.726562 21.722656 15.792969 21.457031 16.539062 20.929688 C 17.28125 20.378906 17.652344 19.597656 17.652344 18.589844 C 17.652344 17.582031 17.28125 16.8125 16.539062 16.285156 C 15.792969 15.757812 14.714844 15.492188 13.296875 15.492188 L 9.050781 15.492188 L 9.050781 11.894531 L 14.882812 6.277344 L 5.234375 6.277344 L 5.234375 1.238281 L 22.875 1.238281 L 22.875 5.054688 L 15.996094 11.355469 Z M 17.328125 11.605469 "/>
</g>
</svg>
