<?xml version="1.0" encoding="UTF-8"?>
<svg xmlns="http://www.w3.org/2000/svg" xmlns:xlink="http://www.w3.org/1999/xlink" width="28px" height="28px" viewBox="0 0 28 28" version="1.1">
<g id="surface1">
<path style=" stroke:none;fill-rule:nonzero;fill:rgb(0%,0%,0%);fill-opacity:1;" d="M 14.378906 10.382812 C 16.320312 10.382812 18.027344 10.707031 19.488281 11.355469 C 20.976562 12.003906 22.117188 12.902344 22.910156 14.054688 C 23.726562 15.207031 24.132812 16.527344 24.132812 18.015625 C 24.132812 19.765625 23.714844 21.300781 22.875 22.621094 C 22.035156 23.941406 20.835938 24.960938 19.273438 25.683594 C 17.714844 26.402344 15.902344 26.761719 13.839844 26.761719 C 12.15625 26.761719 10.417969 26.472656 8.617188 25.898438 C 6.84375 25.320312 5.257812 24.566406 3.867188 23.628906 L 6.3125 18.878906 C 8.640625 20.75 10.910156 21.6875 13.117188 21.6875 C 14.367188 21.6875 15.339844 21.410156 16.035156 20.859375 C 16.730469 20.28125 17.078125 19.503906 17.078125 18.519531 C 17.078125 17.535156 16.730469 16.789062 16.035156 16.285156 C 15.363281 15.757812 14.34375 15.492188 12.972656 15.492188 C 9.78125 15.492188 7.476562 15.542969 6.0625 15.636719 L 6.0625 1.238281 L 23.019531 1.238281 L 23.019531 6.53125 L 12.109375 6.53125 L 12.109375 10.382812 Z M 14.378906 10.382812 "/>
</g>
</svg>
