<?xml version="1.0" encoding="UTF-8"?>
<svg xmlns="http://www.w3.org/2000/svg" xmlns:xlink="http://www.w3.org/1999/xlink" width="28px" height="28px" viewBox="0 0 28 28" version="1.1">
<g id="surface1">
<path style=" stroke:none;fill-rule:nonzero;fill:rgb(0%,0%,0%);fill-opacity:1;" d="M 21.054688 7.71875 C 20.359375 7.191406 19.554688 6.792969 18.644531 6.53125 C 17.757812 6.242188 16.832031 6.097656 15.871094 6.097656 C 13.929688 6.097656 12.464844 6.6875 11.480469 7.863281 C 10.519531 9.015625 10.0625 10.632812 10.113281 12.722656 C 11.382812 10.921875 13.339844 10.023438 15.980469 10.023438 C 17.589844 10.023438 18.992188 10.371094 20.191406 11.066406 C 21.414062 11.738281 22.351562 12.699219 23 13.945312 C 23.671875 15.171875 24.007812 16.597656 24.007812 18.230469 C 24.007812 19.980469 23.625 21.519531 22.855469 22.839844 C 22.089844 24.132812 20.996094 25.140625 19.578125 25.863281 C 18.1875 26.558594 16.566406 26.90625 14.71875 26.90625 C 12.511719 26.90625 10.605469 26.402344 8.996094 25.394531 C 7.386719 24.386719 6.152344 22.945312 5.289062 21.074219 C 4.425781 19.179688 3.992188 16.957031 3.992188 14.414062 C 3.992188 11.75 4.460938 9.410156 5.394531 7.394531 C 6.355469 5.378906 7.699219 3.828125 9.429688 2.75 C 11.15625 1.644531 13.171875 1.09375 15.476562 1.09375 C 16.867188 1.09375 18.285156 1.285156 19.722656 1.671875 C 21.1875 2.054688 22.449219 2.558594 23.503906 3.183594 Z M 14.574219 14.738281 C 13.375 14.738281 12.441406 15.074219 11.769531 15.746094 C 11.121094 16.394531 10.796875 17.234375 10.796875 18.265625 C 10.796875 19.273438 11.109375 20.101562 11.730469 20.75 C 12.355469 21.398438 13.269531 21.722656 14.46875 21.722656 C 15.597656 21.722656 16.484375 21.421875 17.132812 20.820312 C 17.78125 20.199219 18.105469 19.320312 18.105469 18.195312 C 18.105469 17.113281 17.792969 16.273438 17.167969 15.675781 C 16.542969 15.050781 15.679688 14.738281 14.574219 14.738281 Z M 14.574219 14.738281 "/>
</g>
</svg>
