<?xml version="1.0" encoding="UTF-8"?>
<svg xmlns="http://www.w3.org/2000/svg" xmlns:xlink="http://www.w3.org/1999/xlink" width="28px" height="28px" viewBox="0 0 28 28" version="1.1">
<g id="surface1">
<path style=" stroke:none;fill-rule:nonzero;fill:rgb(0%,0%,0%);fill-opacity:1;" d="M 13.964844 1.09375 C 16.675781 1.09375 18.835938 1.71875 20.445312 2.964844 C 22.050781 4.191406 22.855469 5.847656 22.855469 7.933594 C 22.855469 8.988281 22.578125 9.984375 22.027344 10.921875 C 21.5 11.835938 20.78125 12.566406 19.867188 13.117188 C 21.1875 13.71875 22.230469 14.59375 23 15.746094 C 23.769531 16.875 24.152344 18.132812 24.152344 19.527344 C 24.152344 21.015625 23.730469 22.320312 22.890625 23.449219 C 22.074219 24.554688 20.898438 25.40625 19.363281 26.007812 C 17.828125 26.605469 16.039062 26.90625 14 26.90625 C 11.960938 26.90625 10.171875 26.605469 8.636719 26.007812 C 7.125 25.40625 5.949219 24.566406 5.109375 23.484375 C 4.269531 22.382812 3.847656 21.097656 3.847656 19.632812 C 3.847656 18.21875 4.269531 16.933594 5.109375 15.78125 C 5.949219 14.605469 7.0625 13.71875 8.457031 13.117188 C 7.449219 12.519531 6.644531 11.738281 6.042969 10.777344 C 5.445312 9.816406 5.144531 8.808594 5.144531 7.753906 C 5.144531 6.410156 5.503906 5.234375 6.222656 4.226562 C 6.945312 3.21875 7.964844 2.449219 9.285156 1.921875 C 10.628906 1.371094 12.1875 1.09375 13.964844 1.09375 Z M 14 5.523438 C 12.921875 5.523438 12.078125 5.761719 11.480469 6.242188 C 10.902344 6.722656 10.617188 7.40625 10.617188 8.292969 C 10.617188 9.15625 10.902344 9.828125 11.480469 10.308594 C 12.078125 10.765625 12.921875 10.992188 14 10.992188 C 15.105469 10.992188 15.945312 10.765625 16.519531 10.308594 C 17.097656 9.828125 17.382812 9.15625 17.382812 8.292969 C 17.382812 7.40625 17.097656 6.722656 16.519531 6.242188 C 15.945312 5.761719 15.105469 5.523438 14 5.523438 Z M 14 15.816406 C 12.726562 15.816406 11.742188 16.09375 11.046875 16.644531 C 10.375 17.175781 10.039062 17.941406 10.039062 18.949219 C 10.039062 19.957031 10.375 20.738281 11.046875 21.289062 C 11.742188 21.816406 12.726562 22.082031 14 22.082031 C 15.273438 22.082031 16.257812 21.816406 16.953125 21.289062 C 17.648438 20.738281 17.996094 19.957031 17.996094 18.949219 C 17.996094 17.941406 17.648438 17.175781 16.953125 16.644531 C 16.257812 16.09375 15.273438 15.816406 14 15.816406 Z M 14 15.816406 "/>
</g>
</svg>
