<?xml version="1.0" encoding="UTF-8"?>
<svg xmlns="http://www.w3.org/2000/svg" xmlns:xlink="http://www.w3.org/1999/xlink" width="28px" height="28px" viewBox="0 0 28 28" version="1.1">
<g id="surface1">
<path style=" stroke:none;fill-rule:nonzero;fill:rgb(0%,0%,0%);fill-opacity:1;" d="M 6.925781 20.28125 C 7.644531 20.808594 8.449219 21.21875 9.339844 21.507812 C 10.226562 21.769531 11.148438 21.902344 12.109375 21.902344 C 14.03125 21.902344 15.480469 21.324219 16.464844 20.175781 C 17.449219 18.996094 17.917969 17.355469 17.871094 15.242188 C 16.597656 17.066406 14.640625 17.976562 12.003906 17.976562 C 10.394531 17.976562 8.988281 17.640625 7.789062 16.96875 C 6.589844 16.273438 5.652344 15.3125 4.980469 14.089844 C 4.335938 12.84375 4.011719 11.402344 4.011719 9.769531 C 4.011719 8.019531 4.394531 6.492188 5.160156 5.199219 C 5.929688 3.878906 7.011719 2.871094 8.402344 2.175781 C 9.792969 1.453125 11.414062 1.09375 13.261719 1.09375 C 15.46875 1.09375 17.378906 1.597656 18.984375 2.605469 C 20.59375 3.613281 21.828125 5.054688 22.695312 6.925781 C 23.558594 8.796875 23.988281 11.019531 23.988281 13.585938 C 23.988281 16.25 23.511719 18.589844 22.550781 20.605469 C 21.613281 22.621094 20.28125 24.183594 18.554688 25.285156 C 16.824219 26.367188 14.808594 26.90625 12.507812 26.90625 C 11.113281 26.90625 9.699219 26.714844 8.257812 26.328125 C 6.816406 25.945312 5.570312 25.441406 4.515625 24.816406 Z M 13.515625 6.277344 C 12.386719 6.277344 11.511719 6.589844 10.886719 7.214844 C 10.261719 7.8125 9.949219 8.679688 9.949219 9.804688 C 9.949219 10.886719 10.25 11.738281 10.851562 12.363281 C 11.449219 12.960938 12.300781 13.261719 13.40625 13.261719 C 14.605469 13.261719 15.53125 12.9375 16.179688 12.289062 C 16.851562 11.617188 17.1875 10.753906 17.1875 9.699219 C 17.1875 8.714844 16.875 7.898438 16.25 7.25 C 15.625 6.601562 14.714844 6.277344 13.515625 6.277344 Z M 13.515625 6.277344 "/>
</g>
</svg>
