<?xml version="1.0" encoding="UTF-8"?>
<svg xmlns="http://www.w3.org/2000/svg" xmlns:xlink="http://www.w3.org/1999/xlink" width="28px" height="28px" viewBox="0 0 28 28" version="1.1">
<g id="surface1">
<path style="fill-rule:nonzero;fill:rgb(0%,0%,0%);fill-opacity:1;stroke-width:3.74988;stroke-linecap:butt;stroke-linejoin:miter;stroke:rgb(0%,0%,0%);stroke-opacity:1;stroke-miterlimit:22.9256;" d="M 15.636719 13.972656 L 25.636719 3.972656 C 26.113281 3.5 26.113281 2.808594 25.636719 2.335938 C 25.164062 1.859375 24.472656 1.859375 24 2.335938 L 14 12.335938 L 4 2.335938 C 3.527344 1.859375 2.835938 1.859375 2.363281 2.335938 C 1.886719 2.808594 1.886719 3.5 2.363281 3.972656 L 12.363281 13.972656 L 2.363281 23.972656 C 1.886719 24.445312 1.886719 25.136719 2.363281 25.609375 C 2.578125 25.824219 2.878906 25.953125 3.179688 25.953125 C 3.484375 25.953125 3.785156 25.824219 4 25.609375 L 14 15.609375 L 24 25.609375 C 24.214844 25.824219 24.515625 25.953125 24.820312 25.953125 C 25.121094 25.953125 25.421875 25.824219 25.636719 25.609375 C 26.113281 25.136719 26.113281 24.445312 25.636719 23.972656 Z M 15.636719 13.972656 "/>
</g>
</svg>
