<?xml version="1.0" encoding="UTF-8"?>
<svg xmlns="http://www.w3.org/2000/svg" xmlns:xlink="http://www.w3.org/1999/xlink" width="28px" height="28px" viewBox="0 0 28 28" version="1.1">
<g id="surface1">
<path style=" stroke:none;fill-rule:nonzero;fill:rgb(0%,0%,0%);fill-opacity:1;" d="M 14.035156 1.164062 C 17.613281 1.164062 20.359375 2.269531 22.28125 4.476562 C 24.222656 6.6875 25.195312 9.855469 25.195312 13.980469 C 25.195312 18.109375 24.222656 21.289062 22.28125 23.523438 C 20.359375 25.730469 17.613281 26.835938 14.035156 26.835938 C 10.410156 26.835938 7.628906 25.730469 5.683594 23.523438 C 3.765625 21.289062 2.804688 18.109375 2.804688 13.980469 C 2.804688 9.855469 3.765625 6.6875 5.683594 4.476562 C 7.628906 2.269531 10.410156 1.164062 14.035156 1.164062 Z M 14.035156 6.0625 C 12.453125 6.0625 11.3125 6.6875 10.617188 7.933594 C 9.921875 9.15625 9.570312 11.175781 9.570312 13.980469 C 9.570312 16.8125 9.921875 18.855469 10.617188 20.101562 C 11.3125 21.324219 12.453125 21.9375 14.035156 21.9375 C 15.570312 21.9375 16.6875 21.3125 17.382812 20.066406 C 18.105469 18.816406 18.464844 16.789062 18.464844 13.980469 C 18.464844 11.175781 18.105469 9.15625 17.382812 7.933594 C 16.6875 6.6875 15.570312 6.0625 14.035156 6.0625 Z M 14.035156 6.0625 "/>
</g>
</svg>
