<?xml version="1.0" encoding="UTF-8"?>
<svg xmlns="http://www.w3.org/2000/svg" xmlns:xlink="http://www.w3.org/1999/xlink" width="28pt" height="28pt" viewBox="0 0 28 28" version="1.1">
<g id="surface1">
<path style=" stroke:none;fill-rule:nonzero;fill:rgb(0%,0%,0%);fill-opacity:1;" d="M 14 1.398438 C 20.949219 1.398438 26.601562 7.050781 26.601562 14 C 26.601562 20.949219 20.949219 26.601562 14 26.601562 C 7.050781 26.601562 1.398438 20.949219 1.398438 14 C 1.398438 7.050781 7.050781 1.398438 14 1.398438 M 14 0 C 6.269531 0 0 6.269531 0 14 C 0 21.730469 6.269531 28 14 28 C 21.730469 28 28 21.730469 28 14 C 28 6.269531 21.730469 0 14 0 Z M 14 0 "/>
<path style=" stroke:none;fill-rule:nonzero;fill:rgb(0%,0%,0%);fill-opacity:1;" d="M 21.460938 12.480469 L 15.871094 8.800781 C 14.585938 7.957031 13.535156 8.523438 13.535156 10.0625 L 13.535156 11.253906 L 9.804688 8.800781 C 8.519531 7.957031 7.464844 8.523438 7.464844 10.0625 L 7.464844 17.9375 C 7.464844 19.476562 8.519531 20.046875 9.808594 19.203125 L 13.535156 16.765625 L 13.535156 17.9375 C 13.535156 19.476562 14.585938 20.046875 15.875 19.203125 L 21.457031 15.550781 C 22.746094 14.707031 22.746094 13.324219 21.460938 12.480469 Z M 20.46875 14.527344 L 15.714844 17.636719 C 15.285156 17.917969 14.933594 17.726562 14.933594 17.214844 L 14.933594 15.109375 C 14.933594 14.597656 14.582031 14.40625 14.152344 14.6875 L 9.648438 17.636719 C 9.21875 17.917969 8.867188 17.726562 8.867188 17.214844 L 8.867188 10.792969 C 8.867188 10.28125 9.21875 10.089844 9.644531 10.375 L 14.152344 13.339844 C 14.582031 13.621094 14.933594 13.429688 14.933594 12.917969 L 14.933594 10.792969 C 14.933594 10.28125 15.285156 10.089844 15.714844 10.375 L 20.46875 13.503906 C 20.898438 13.785156 20.898438 14.246094 20.46875 14.527344 Z M 20.46875 14.527344 "/>
</g>
</svg>
