<?xml version="1.0" encoding="UTF-8"?>
<svg xmlns="http://www.w3.org/2000/svg" xmlns:xlink="http://www.w3.org/1999/xlink" width="28pt" height="28pt" viewBox="0 0 28 28" version="1.1">
<g id="surface1">
<path style=" stroke:none;fill-rule:nonzero;fill:rgb(0%,0%,0%);fill-opacity:1;" d="M 13.992188 28 C 7.605469 28 2.40625 22.804688 2.40625 16.414062 C 2.40625 11.210938 5.90625 6.617188 10.917969 5.238281 C 11.433594 5.101562 11.964844 5.402344 12.105469 5.914062 C 12.246094 6.429688 11.945312 6.960938 11.429688 7.101562 C 7.253906 8.25 4.335938 12.078125 4.335938 16.414062 C 4.335938 21.738281 8.667969 26.070312 13.992188 26.070312 C 19.316406 26.070312 23.648438 21.738281 23.648438 16.414062 C 23.648438 12.179688 20.816406 8.375 16.765625 7.164062 C 16.253906 7.007812 15.964844 6.472656 16.117188 5.960938 C 16.269531 5.449219 16.808594 5.160156 17.316406 5.3125 C 22.183594 6.769531 25.578125 11.332031 25.578125 16.414062 C 25.578125 22.804688 20.382812 28 13.992188 28 Z M 13.992188 28 "/>
<path style=" stroke:none;fill-rule:nonzero;fill:rgb(0%,0%,0%);fill-opacity:1;" d="M 13.992188 12.550781 C 13.460938 12.550781 13.027344 12.121094 13.027344 11.585938 L 13.027344 0.964844 C 13.027344 0.433594 13.460938 0 13.992188 0 C 14.527344 0 14.957031 0.433594 14.957031 0.964844 L 14.957031 11.585938 C 14.957031 12.121094 14.527344 12.550781 13.992188 12.550781 Z M 13.992188 12.550781 "/>
</g>
</svg>
