<?xml version="1.0" encoding="UTF-8"?>
<svg xmlns="http://www.w3.org/2000/svg" xmlns:xlink="http://www.w3.org/1999/xlink" width="28pt" height="28pt" viewBox="0 0 28 28" version="1.1">
<g id="surface1">
<path style=" stroke:none;fill-rule:nonzero;fill:rgb(0%,0%,0%);fill-opacity:1;" d="M 14 9.71875 C 14.660156 9.71875 15.210938 9.167969 15.210938 8.507812 L 15.210938 1.210938 C 15.210938 0.550781 14.660156 0 14 0 C 13.324219 0 12.789062 0.535156 12.789062 1.210938 L 12.789062 8.507812 C 12.789062 9.183594 13.324219 9.71875 14 9.71875 Z M 14 9.71875 "/>
<path style=" stroke:none;fill-rule:nonzero;fill:rgb(0%,0%,0%);fill-opacity:1;" d="M 24.984375 7.546875 C 23.519531 5.335938 21.566406 3.691406 19.125 2.675781 C 18.691406 2.496094 18.238281 2.703125 18.070312 3.113281 C 17.898438 3.519531 18.082031 4.011719 18.492188 4.183594 C 20.648438 5.09375 22.347656 6.519531 23.632812 8.449219 C 24.914062 10.378906 25.558594 12.503906 25.558594 14.828125 C 25.558594 16.390625 25.25 17.898438 24.644531 19.320312 C 24.039062 20.742188 23.207031 21.984375 22.179688 23.011719 C 21.152344 24.039062 19.914062 24.871094 18.492188 25.476562 C 17.066406 26.082031 15.5625 26.390625 14 26.390625 C 12.433594 26.390625 10.929688 26.082031 9.507812 25.476562 C 8.082031 24.871094 6.84375 24.039062 5.816406 23.011719 C 4.789062 21.984375 3.957031 20.742188 3.351562 19.320312 C 2.746094 17.898438 2.4375 16.390625 2.4375 14.828125 C 2.4375 12.535156 3.054688 10.421875 4.308594 8.492188 C 5.5625 6.5625 7.25 5.121094 9.351562 4.210938 C 9.757812 4.035156 9.972656 3.570312 9.789062 3.167969 C 9.59375 2.75 9.121094 2.554688 8.71875 2.730469 C 6.320312 3.78125 4.40625 5.421875 2.972656 7.617188 C 1.535156 9.816406 0.816406 12.222656 0.816406 14.828125 C 0.816406 16.617188 1.164062 18.324219 1.859375 19.941406 C 2.558594 21.5625 3.511719 22.964844 4.675781 24.136719 C 5.847656 25.316406 7.25 26.265625 8.871094 26.953125 C 10.503906 27.648438 12.210938 27.996094 14 27.996094 C 15.785156 27.996094 17.488281 27.640625 19.109375 26.953125 C 20.742188 26.261719 22.148438 25.316406 23.320312 24.136719 C 24.488281 22.964844 25.425781 21.558594 26.125 19.941406 C 26.820312 18.320312 27.179688 16.617188 27.179688 14.828125 C 27.179688 12.179688 26.449219 9.757812 24.984375 7.546875 Z M 24.984375 7.546875 "/>
</g>
</svg>
