<?xml version="1.0" encoding="UTF-8"?>
<svg xmlns="http://www.w3.org/2000/svg" xmlns:xlink="http://www.w3.org/1999/xlink" width="28pt" height="27pt" viewBox="0 0 28 27" version="1.1">
<g id="surface1">
<path style=" stroke:none;fill-rule:nonzero;fill:rgb(0%,0%,0%);fill-opacity:1;" d="M 23.851562 9.402344 C 23.441406 9.15625 22.898438 9.277344 22.644531 9.675781 C 22.386719 10.070312 22.511719 10.59375 22.921875 10.839844 C 23.882812 11.417969 24.453125 12.410156 24.453125 13.5 C 24.453125 14.589844 23.882812 15.582031 22.921875 16.160156 L 8.515625 24.820312 C 7.5 25.433594 6.265625 25.464844 5.21875 24.902344 C 4.171875 24.34375 3.546875 23.316406 3.546875 22.164062 L 3.546875 4.835938 C 3.546875 3.683594 4.171875 2.65625 5.21875 2.097656 C 6.265625 1.535156 7.5 1.566406 8.515625 2.179688 L 16.902344 7.222656 C 17.316406 7.46875 17.855469 7.347656 18.113281 6.949219 C 18.371094 6.554688 18.242188 6.03125 17.832031 5.785156 L 9.445312 0.742188 C 7.878906 -0.199219 5.980469 -0.246094 4.367188 0.617188 C 2.753906 1.480469 1.789062 3.058594 1.789062 4.835938 L 1.789062 22.164062 C 1.789062 23.941406 2.753906 25.519531 4.367188 26.382812 C 5.136719 26.796875 5.96875 27 6.800781 27 C 7.714844 27 8.625 26.753906 9.445312 26.257812 L 23.851562 17.597656 C 25.328125 16.707031 26.210938 15.175781 26.210938 13.5 C 26.210938 11.824219 25.328125 10.292969 23.851562 9.402344 Z M 23.851562 9.402344 "/>
</g>
</svg>
