<?xml version="1.0" encoding="UTF-8"?>
<svg xmlns="http://www.w3.org/2000/svg" xmlns:xlink="http://www.w3.org/1999/xlink" width="28pt" height="28pt" viewBox="0 0 28 28" version="1.1">
<g id="surface1">
<path style=" stroke:none;fill-rule:nonzero;fill:rgb(0%,0%,0%);fill-opacity:1;" d="M 13.996094 0 C 8.378906 0 3.8125 4.570312 3.8125 10.1875 C 3.8125 15.066406 7.261719 19.152344 11.847656 20.140625 C 12.03125 20.179688 12.21875 20.207031 12.402344 20.234375 L 12.402344 23.003906 L 15.730469 23.003906 L 15.730469 20.214844 C 15.914062 20.179688 16.101562 20.144531 16.285156 20.105469 C 20.800781 19.0625 24.183594 15.015625 24.183594 10.1875 C 24.183594 4.570312 19.613281 0 13.996094 0 Z M 16.285156 19.53125 C 16.101562 19.578125 15.917969 19.621094 15.730469 19.652344 C 15.167969 19.757812 14.589844 19.820312 13.996094 19.820312 C 13.453125 19.820312 12.921875 19.761719 12.402344 19.675781 C 12.21875 19.644531 12.03125 19.609375 11.847656 19.570312 C 7.570312 18.589844 4.367188 14.757812 4.367188 10.1875 C 4.367188 4.875 8.6875 0.554688 13.996094 0.554688 C 19.308594 0.554688 23.628906 4.875 23.628906 10.1875 C 23.628906 14.707031 20.492188 18.5 16.285156 19.53125 Z M 16.285156 19.53125 "/>
<path style=" stroke:none;fill-rule:nonzero;fill:rgb(0%,0%,0%);fill-opacity:1;" d="M 13.160156 8.835938 C 13.40625 8.683594 13.691406 8.59375 13.996094 8.59375 C 14.125 8.59375 14.25 8.613281 14.367188 8.640625 L 17.539062 1.910156 C 17.023438 1.703125 16.507812 1.601562 15.980469 1.601562 C 14.367188 1.601562 12.886719 2.542969 12.199219 3.996094 C 11.726562 5.007812 11.671875 6.140625 12.050781 7.1875 C 12.28125 7.832031 12.667969 8.386719 13.160156 8.835938 Z M 13.160156 8.835938 "/>
<path style=" stroke:none;fill-rule:nonzero;fill:rgb(0%,0%,0%);fill-opacity:1;" d="M 16.390625 10.027344 C 16.117188 10.027344 15.847656 10.058594 15.582031 10.109375 C 15.582031 10.136719 15.589844 10.160156 15.589844 10.1875 C 15.589844 10.605469 15.425781 10.980469 15.160156 11.265625 L 18.488281 17.808594 C 19.382812 17.292969 20.039062 16.476562 20.359375 15.492188 C 20.707031 14.433594 20.617188 13.304688 20.113281 12.308594 C 19.398438 10.902344 17.96875 10.027344 16.390625 10.027344 Z M 16.390625 10.027344 "/>
<path style=" stroke:none;fill-rule:nonzero;fill:rgb(0%,0%,0%);fill-opacity:1;" d="M 12.578125 10.894531 L 5.140625 11.679688 C 5.484375 13.710938 7.203125 15.183594 9.25 15.183594 C 9.394531 15.183594 9.542969 15.175781 9.691406 15.160156 C 11.613281 14.957031 13.089844 13.472656 13.375 11.652344 C 13.027344 11.503906 12.746094 11.230469 12.578125 10.894531 Z M 12.578125 10.894531 "/>
<path style=" stroke:none;fill-rule:nonzero;fill:rgb(0%,0%,0%);fill-opacity:1;" d="M 14.917969 9.71875 C 14.851562 9.585938 14.753906 9.464844 14.636719 9.375 C 14.5625 9.316406 14.484375 9.265625 14.398438 9.226562 C 14.3125 9.191406 14.21875 9.171875 14.125 9.160156 C 14.082031 9.15625 14.042969 9.148438 13.996094 9.148438 C 13.871094 9.148438 13.753906 9.171875 13.640625 9.214844 C 13.539062 9.25 13.445312 9.304688 13.359375 9.371094 C 13.285156 9.429688 13.21875 9.5 13.160156 9.574219 C 13.035156 9.746094 12.960938 9.957031 12.960938 10.1875 C 12.960938 10.222656 12.964844 10.257812 12.96875 10.292969 C 12.980469 10.390625 13 10.480469 13.035156 10.566406 C 13.074219 10.664062 13.125 10.75 13.191406 10.828125 C 13.257812 10.914062 13.332031 10.988281 13.421875 11.046875 C 13.507812 11.105469 13.597656 11.144531 13.695312 11.171875 C 13.78125 11.199219 13.871094 11.214844 13.964844 11.21875 C 13.976562 11.21875 13.988281 11.222656 14 11.222656 C 14.164062 11.222656 14.320312 11.179688 14.460938 11.109375 C 14.546875 11.066406 14.625 11.015625 14.691406 10.953125 C 14.769531 10.882812 14.832031 10.804688 14.886719 10.71875 C 14.964844 10.582031 15.015625 10.425781 15.027344 10.261719 C 15.03125 10.234375 15.035156 10.210938 15.035156 10.183594 C 15.035156 10.113281 15.03125 10.042969 15.015625 9.976562 C 14.996094 9.886719 14.960938 9.800781 14.917969 9.71875 Z M 14.917969 9.71875 "/>
<path style=" stroke:none;fill-rule:nonzero;fill:rgb(0%,0%,0%);fill-opacity:1;" d="M 22.105469 23.558594 L 6.027344 23.558594 C 5.570312 23.558594 5.195312 23.933594 5.195312 24.390625 L 5.195312 27.996094 L 22.9375 27.996094 L 22.9375 24.390625 C 22.9375 23.933594 22.5625 23.558594 22.105469 23.558594 Z M 21.828125 25.777344 L 14.621094 25.777344 L 14.621094 24.113281 L 21.828125 24.113281 Z M 21.828125 25.777344 "/>
<path style=" stroke:none;fill-rule:nonzero;fill:rgb(0%,0%,0%);fill-opacity:1;" d="M 20.164062 24.667969 L 21.273438 24.667969 L 21.273438 25.222656 L 20.164062 25.222656 Z M 20.164062 24.667969 "/>
<path style=" stroke:none;fill-rule:nonzero;fill:rgb(0%,0%,0%);fill-opacity:1;" d="M 15.175781 24.667969 L 16.285156 24.667969 L 16.285156 25.222656 L 15.175781 25.222656 Z M 15.175781 24.667969 "/>
<path style=" stroke:none;fill-rule:nonzero;fill:rgb(0%,0%,0%);fill-opacity:1;" d="M 18.5 24.667969 L 19.609375 24.667969 L 19.609375 25.222656 L 18.5 25.222656 Z M 18.5 24.667969 "/>
<path style=" stroke:none;fill-rule:nonzero;fill:rgb(0%,0%,0%);fill-opacity:1;" d="M 16.839844 24.667969 L 17.945312 24.667969 L 17.945312 25.222656 L 16.839844 25.222656 Z M 16.839844 24.667969 "/>
</g>
</svg>
