<?xml version="1.0" encoding="UTF-8"?>
<svg xmlns="http://www.w3.org/2000/svg" xmlns:xlink="http://www.w3.org/1999/xlink" width="28pt" height="28pt" viewBox="0 0 28 28" version="1.1">
<g id="surface1">
<path style=" stroke:none;fill-rule:nonzero;fill:rgb(0%,0%,0%);fill-opacity:1;" d="M 24.164062 4.703125 L 26.136719 6.675781 C 26.226562 6.765625 26.347656 6.816406 26.476562 6.816406 C 26.605469 6.816406 26.726562 6.765625 26.816406 6.675781 C 28.34375 5.148438 28.34375 2.667969 26.816406 1.144531 C 26.078125 0.40625 25.097656 0 24.050781 0 C 23.007812 0 22.027344 0.40625 21.289062 1.144531 C 21.199219 1.234375 21.148438 1.355469 21.148438 1.484375 C 21.148438 1.613281 21.199219 1.734375 21.289062 1.824219 L 23.484375 4.023438 L 22.664062 4.839844 C 20.363281 2.777344 17.328125 1.519531 14 1.519531 C 10.675781 1.519531 7.636719 2.777344 5.335938 4.839844 L 4.515625 4.023438 L 6.710938 1.824219 C 6.804688 1.734375 6.855469 1.613281 6.855469 1.484375 C 6.855469 1.355469 6.804688 1.234375 6.710938 1.144531 C 5.972656 0.40625 4.992188 0 3.949219 0 C 2.902344 0 1.921875 0.40625 1.183594 1.144531 C -0.34375 2.667969 -0.34375 5.148438 1.183594 6.675781 C 1.273438 6.765625 1.394531 6.816406 1.523438 6.816406 C 1.652344 6.816406 1.773438 6.765625 1.863281 6.675781 L 3.835938 4.703125 L 4.644531 5.507812 C 2.390625 7.847656 1 11.023438 1 14.519531 C 1 19.285156 3.578125 23.457031 7.414062 25.71875 L 5.957031 27.179688 C 5.769531 27.367188 5.769531 27.671875 5.957031 27.859375 C 6.050781 27.953125 6.171875 28 6.296875 28 C 6.417969 28 6.542969 27.953125 6.636719 27.859375 L 8.296875 26.199219 C 10.019531 27.042969 11.957031 27.519531 14 27.519531 C 16.042969 27.519531 17.980469 27.042969 19.703125 26.199219 L 21.363281 27.859375 C 21.457031 27.953125 21.582031 28 21.703125 28 C 21.828125 28 21.949219 27.953125 22.042969 27.859375 C 22.230469 27.671875 22.230469 27.367188 22.042969 27.179688 L 20.585938 25.71875 C 24.421875 23.457031 27 19.285156 27 14.519531 C 27 11.023438 25.609375 7.847656 23.355469 5.507812 Z M 3.890625 14.941406 L 3.40625 14.941406 C 3.140625 14.941406 2.925781 14.726562 2.925781 14.460938 C 2.925781 14.195312 3.140625 13.980469 3.40625 13.980469 L 3.890625 13.980469 C 4.15625 13.980469 4.371094 14.195312 4.371094 14.460938 C 4.371094 14.726562 4.15625 14.941406 3.890625 14.941406 Z M 7.191406 21.949219 L 6.851562 22.292969 C 6.757812 22.386719 6.632812 22.433594 6.511719 22.433594 C 6.386719 22.433594 6.265625 22.386719 6.171875 22.292969 C 5.980469 22.101562 5.980469 21.796875 6.171875 21.609375 L 6.511719 21.269531 C 6.699219 21.082031 7.003906 21.082031 7.191406 21.269531 C 7.378906 21.457031 7.378906 21.761719 7.191406 21.949219 Z M 7.191406 7.652344 C 7.097656 7.746094 6.972656 7.792969 6.851562 7.792969 C 6.726562 7.792969 6.605469 7.746094 6.511719 7.652344 L 6.171875 7.3125 C 5.980469 7.125 5.980469 6.820312 6.171875 6.628906 C 6.359375 6.441406 6.664062 6.441406 6.851562 6.628906 L 7.191406 6.972656 C 7.378906 7.160156 7.378906 7.464844 7.191406 7.652344 Z M 13.519531 3.867188 C 13.519531 3.601562 13.734375 3.386719 14 3.386719 C 14.265625 3.386719 14.480469 3.601562 14.480469 3.867188 L 14.480469 4.351562 C 14.480469 4.617188 14.265625 4.832031 14 4.832031 C 13.734375 4.832031 13.519531 4.617188 13.519531 4.351562 Z M 14.480469 25.054688 C 14.480469 25.320312 14.265625 25.535156 14 25.535156 C 13.734375 25.535156 13.519531 25.320312 13.519531 25.054688 L 13.519531 24.570312 C 13.519531 24.304688 13.734375 24.089844 14 24.089844 C 14.265625 24.089844 14.480469 24.304688 14.480469 24.570312 Z M 19.296875 15 L 15.859375 15 C 15.640625 15.828125 14.894531 16.445312 14 16.445312 C 12.9375 16.445312 12.074219 15.582031 12.074219 14.519531 C 12.074219 13.625 12.691406 12.875 13.519531 12.660156 L 13.519531 7.777344 C 13.519531 7.511719 13.734375 7.296875 14 7.296875 C 14.265625 7.296875 14.480469 7.511719 14.480469 7.777344 L 14.480469 12.660156 C 15.15625 12.835938 15.683594 13.363281 15.859375 14.039062 L 19.296875 14.039062 C 19.5625 14.039062 19.777344 14.253906 19.777344 14.519531 C 19.777344 14.785156 19.5625 15 19.296875 15 Z M 21.828125 22.292969 C 21.734375 22.386719 21.613281 22.433594 21.488281 22.433594 C 21.367188 22.433594 21.242188 22.386719 21.148438 22.292969 L 20.808594 21.949219 C 20.621094 21.761719 20.621094 21.457031 20.808594 21.269531 C 20.996094 21.082031 21.300781 21.082031 21.488281 21.269531 L 21.828125 21.609375 C 22.019531 21.796875 22.019531 22.101562 21.828125 22.292969 Z M 21.828125 7.3125 L 21.488281 7.652344 C 21.394531 7.746094 21.273438 7.792969 21.148438 7.792969 C 21.027344 7.792969 20.902344 7.746094 20.808594 7.652344 C 20.621094 7.464844 20.621094 7.160156 20.808594 6.972656 L 21.148438 6.628906 C 21.335938 6.441406 21.640625 6.441406 21.828125 6.628906 C 22.019531 6.820312 22.019531 7.125 21.828125 7.3125 Z M 24.109375 13.980469 L 24.59375 13.980469 C 24.859375 13.980469 25.074219 14.195312 25.074219 14.460938 C 25.074219 14.726562 24.859375 14.941406 24.59375 14.941406 L 24.109375 14.941406 C 23.84375 14.941406 23.628906 14.726562 23.628906 14.460938 C 23.628906 14.195312 23.84375 13.980469 24.109375 13.980469 Z M 24.109375 13.980469 "/>
<path style=" stroke:none;fill-rule:nonzero;fill:rgb(0%,0%,0%);fill-opacity:1;" d="M 14.964844 14.519531 C 14.964844 15.050781 14.53125 15.480469 14 15.480469 C 13.46875 15.480469 13.035156 15.050781 13.035156 14.519531 C 13.035156 13.988281 13.46875 13.554688 14 13.554688 C 14.53125 13.554688 14.964844 13.988281 14.964844 14.519531 Z M 14.964844 14.519531 "/>
</g>
</svg>
