<?xml version="1.0" encoding="UTF-8"?>
<svg xmlns="http://www.w3.org/2000/svg" xmlns:xlink="http://www.w3.org/1999/xlink" width="28pt" height="28pt" viewBox="0 0 28 28" version="1.1">
<g id="surface1">
<path style=" stroke:none;fill-rule:nonzero;fill:rgb(0%,0%,0%);fill-opacity:1;" d="M 21.179688 19.65625 C 20.984375 19.484375 20.800781 19.324219 20.710938 19.160156 C 20.703125 19.148438 20.695312 19.136719 20.683594 19.117188 C 20.339844 18.566406 20.210938 17.195312 20.132812 16.375 C 20.121094 16.253906 20.113281 16.136719 20.101562 16.023438 C 20.097656 16.015625 20.097656 16.003906 20.097656 15.984375 C 19.917969 14.753906 19.480469 12.972656 18.394531 11.503906 C 17.644531 10.488281 16.710938 9.800781 15.617188 9.460938 C 15.507812 8.667969 14.824219 8.054688 14 8.054688 C 13.175781 8.054688 12.492188 8.667969 12.382812 9.460938 C 11.289062 9.800781 10.355469 10.488281 9.605469 11.503906 C 8.519531 12.972656 8.082031 14.753906 7.902344 15.984375 L 7.902344 15.996094 C 7.902344 16.007812 7.898438 16.015625 7.898438 16.023438 C 7.886719 16.136719 7.878906 16.253906 7.867188 16.375 C 7.789062 17.195312 7.660156 18.566406 7.3125 19.121094 C 7.308594 19.132812 7.300781 19.140625 7.292969 19.15625 C 7.199219 19.324219 7.015625 19.484375 6.820312 19.65625 C 6.335938 20.082031 5.332031 20.960938 6.160156 22.5 C 6.320312 22.796875 6.628906 22.980469 6.964844 22.980469 L 21.035156 22.980469 C 21.371094 22.980469 21.679688 22.796875 21.839844 22.5 C 22.667969 20.960938 21.664062 20.082031 21.179688 19.65625 Z M 21.179688 19.65625 "/>
<path style=" stroke:none;fill-rule:nonzero;fill:rgb(0%,0%,0%);fill-opacity:1;" d="M 15.597656 24.519531 L 12.34375 24.519531 C 12.210938 24.519531 12.085938 24.574219 12 24.679688 C 11.839844 24.867188 11.882812 25.125 11.910156 25.277344 L 11.914062 25.289062 C 12.089844 26.304688 12.964844 27.039062 13.996094 27.039062 C 15.046875 27.039062 15.949219 26.257812 16.09375 25.21875 L 16.097656 25.199219 C 16.117188 25.105469 16.15625 24.886719 16 24.699219 C 15.945312 24.628906 15.820312 24.519531 15.597656 24.519531 Z M 15.597656 24.519531 "/>
<path style=" stroke:none;fill-rule:nonzero;fill:rgb(0%,0%,0%);fill-opacity:1;" d="M 8.222656 1.976562 C 8.117188 1.316406 7.492188 0.867188 6.832031 0.976562 C 5 1.277344 3.3125 2.203125 2.074219 3.582031 C 0.832031 4.96875 0.113281 6.679688 0.00390625 8.539062 C -0.0390625 9.207031 0.472656 9.785156 1.140625 9.824219 C 1.164062 9.824219 1.191406 9.828125 1.214844 9.828125 C 1.851562 9.828125 2.386719 9.332031 2.425781 8.6875 C 2.503906 7.378906 3.007812 6.175781 3.878906 5.203125 C 4.761719 4.21875 5.917969 3.585938 7.222656 3.371094 C 7.882812 3.265625 8.332031 2.640625 8.222656 1.976562 Z M 8.222656 1.976562 "/>
<path style=" stroke:none;fill-rule:nonzero;fill:rgb(0%,0%,0%);fill-opacity:1;" d="M 6.726562 10.378906 C 6.769531 9.683594 7.039062 9.042969 7.503906 8.523438 C 7.972656 8 8.585938 7.664062 9.28125 7.550781 C 9.945312 7.441406 10.390625 6.816406 10.285156 6.15625 C 10.175781 5.496094 9.550781 5.046875 8.890625 5.15625 C 7.660156 5.355469 6.527344 5.976562 5.695312 6.90625 C 4.871094 7.820312 4.378906 9.003906 4.304688 10.234375 C 4.261719 10.902344 4.773438 11.476562 5.441406 11.519531 C 5.46875 11.519531 5.492188 11.519531 5.515625 11.519531 C 6.152344 11.519531 6.6875 11.023438 6.726562 10.378906 Z M 6.726562 10.378906 "/>
<path style=" stroke:none;fill-rule:nonzero;fill:rgb(0%,0%,0%);fill-opacity:1;" d="M 27.996094 8.539062 C 27.886719 6.679688 27.167969 4.96875 25.925781 3.582031 C 24.6875 2.203125 23 1.277344 21.167969 0.976562 C 20.507812 0.867188 19.882812 1.316406 19.777344 1.976562 C 19.667969 2.640625 20.117188 3.265625 20.777344 3.371094 C 22.082031 3.585938 23.238281 4.21875 24.121094 5.203125 C 24.992188 6.175781 25.496094 7.378906 25.574219 8.6875 C 25.613281 9.332031 26.148438 9.828125 26.785156 9.828125 C 26.808594 9.828125 26.835938 9.824219 26.859375 9.824219 C 27.527344 9.785156 28.039062 9.207031 27.996094 8.539062 Z M 27.996094 8.539062 "/>
<path style=" stroke:none;fill-rule:nonzero;fill:rgb(0%,0%,0%);fill-opacity:1;" d="M 22.304688 6.90625 C 21.472656 5.976562 20.339844 5.355469 19.109375 5.15625 C 18.449219 5.046875 17.824219 5.496094 17.714844 6.15625 C 17.609375 6.816406 18.054688 7.441406 18.71875 7.550781 C 19.414062 7.664062 20.027344 8 20.496094 8.527344 C 20.960938 9.042969 21.230469 9.683594 21.273438 10.378906 C 21.3125 11.023438 21.847656 11.519531 22.484375 11.519531 C 22.507812 11.519531 22.53125 11.519531 22.558594 11.519531 C 23.226562 11.480469 23.734375 10.902344 23.695312 10.234375 C 23.621094 9.003906 23.128906 7.820312 22.304688 6.90625 Z M 22.304688 6.90625 "/>
</g>
</svg>
