<?xml version="1.0" encoding="UTF-8"?>
<svg xmlns="http://www.w3.org/2000/svg" xmlns:xlink="http://www.w3.org/1999/xlink" width="28pt" height="27pt" viewBox="0 0 28 27" version="1.1">
<g id="surface1">
<path style=" stroke:none;fill-rule:nonzero;fill:rgb(0%,0%,0%);fill-opacity:1;" d="M 26.15625 22.234375 C 23.78125 19.960938 22.582031 17.269531 22.582031 14.238281 L 22.582031 9.820312 C 22.601562 6.453125 20.253906 4.222656 18.238281 3.332031 C 17.667969 3.082031 17.070312 2.898438 16.457031 2.753906 L 16.457031 2.453125 C 16.457031 1.101562 15.316406 0 13.914062 0 C 12.511719 0 11.367188 1.101562 11.367188 2.453125 L 11.367188 2.800781 C 10.820312 2.941406 10.277344 3.109375 9.765625 3.335938 C 7.535156 4.328125 5.277344 6.714844 5.257812 9.816406 L 5.257812 14.238281 C 5.257812 17.371094 4.109375 20.0625 1.84375 22.234375 C 1.710938 22.363281 1.660156 22.554688 1.71875 22.730469 C 1.773438 22.90625 1.929688 23.035156 2.117188 23.066406 L 6.949219 23.871094 C 7.859375 24.023438 8.6875 24.144531 9.464844 24.242188 C 10.355469 25.921875 12.097656 27 14.007812 27 C 15.914062 27 17.660156 25.921875 18.546875 24.242188 C 19.320312 24.140625 20.144531 24.019531 21.050781 23.871094 L 25.882812 23.066406 C 26.070312 23.035156 26.222656 22.90625 26.28125 22.730469 C 26.339844 22.554688 26.289062 22.363281 26.15625 22.234375 Z M 12.386719 2.453125 C 12.386719 1.644531 13.070312 0.980469 13.914062 0.980469 C 14.753906 0.980469 15.441406 1.644531 15.441406 2.453125 L 15.441406 2.550781 C 14.425781 2.410156 13.390625 2.417969 12.386719 2.574219 Z M 8.3125 10.308594 C 8.3125 10.308594 8.3125 10.308594 8.308594 10.308594 C 8.027344 10.308594 7.800781 10.085938 7.804688 9.816406 C 7.820312 7.515625 9.714844 6.0625 10.832031 5.566406 C 12.792969 4.695312 15.207031 4.695312 17.179688 5.566406 C 17.433594 5.679688 17.546875 5.96875 17.429688 6.214844 C 17.3125 6.460938 17.011719 6.570312 16.757812 6.457031 C 15.050781 5.707031 12.953125 5.703125 11.257812 6.457031 C 10.359375 6.859375 8.835938 8.015625 8.824219 9.820312 C 8.820312 10.089844 8.59375 10.308594 8.3125 10.308594 Z M 17.277344 24.386719 C 16.503906 25.398438 15.296875 26.019531 14.007812 26.019531 C 12.714844 26.019531 11.511719 25.398438 10.738281 24.386719 C 10.9375 24.410156 11.136719 24.425781 11.332031 24.441406 C 11.421875 24.449219 11.519531 24.457031 11.613281 24.464844 C 11.683594 24.46875 11.75 24.472656 11.820312 24.480469 C 13.300781 24.582031 14.664062 24.582031 16.140625 24.480469 C 16.226562 24.476562 16.308594 24.472656 16.394531 24.464844 C 16.507812 24.457031 16.621094 24.445312 16.734375 24.433594 C 16.90625 24.421875 17.078125 24.40625 17.257812 24.390625 C 17.261719 24.386719 17.269531 24.386719 17.277344 24.386719 Z M 17.277344 24.386719 "/>
</g>
</svg>
