<?xml version="1.0" encoding="UTF-8"?>
<svg xmlns="http://www.w3.org/2000/svg" xmlns:xlink="http://www.w3.org/1999/xlink" width="28pt" height="28pt" viewBox="0 0 28 28" version="1.1">
<g id="surface1">
<path style=" stroke:none;fill-rule:nonzero;fill:rgb(0%,0%,0%);fill-opacity:1;" d="M 27.839844 18.253906 C 27.746094 18.160156 27.625 18.113281 27.480469 18.113281 L 21.984375 18.113281 C 21.753906 18.113281 21.597656 18.214844 21.515625 18.425781 C 21.433594 18.621094 21.46875 18.804688 21.625 18.972656 L 23.1875 20.53125 C 22.488281 21.480469 21.503906 22.277344 20.226562 22.929688 C 18.953125 23.578125 17.539062 24.007812 15.988281 24.21875 L 15.988281 14.113281 L 18.984375 14.113281 C 19.257812 14.113281 19.492188 14.015625 19.6875 13.816406 C 19.886719 13.621094 19.984375 13.386719 19.984375 13.117188 L 19.984375 11.117188 C 19.984375 10.847656 19.886719 10.613281 19.6875 10.414062 C 19.492188 10.214844 19.257812 10.117188 18.984375 10.117188 L 15.988281 10.117188 L 15.988281 7.574219 C 16.59375 7.21875 17.074219 6.738281 17.441406 6.128906 C 17.804688 5.519531 17.988281 4.851562 17.988281 4.121094 C 17.988281 3.019531 17.597656 2.078125 16.816406 1.296875 C 16.035156 0.515625 15.09375 0.125 13.988281 0.125 C 12.886719 0.125 11.945312 0.515625 11.164062 1.296875 C 10.382812 2.078125 9.992188 3.019531 9.992188 4.121094 C 9.992188 4.851562 10.175781 5.519531 10.539062 6.128906 C 10.902344 6.738281 11.386719 7.21875 11.992188 7.574219 L 11.992188 10.117188 L 8.992188 10.117188 C 8.722656 10.117188 8.488281 10.214844 8.289062 10.414062 C 8.09375 10.613281 7.992188 10.847656 7.992188 11.117188 L 7.992188 13.117188 C 7.992188 13.386719 8.09375 13.621094 8.289062 13.816406 C 8.488281 14.015625 8.722656 14.113281 8.992188 14.113281 L 11.992188 14.113281 L 11.992188 24.21875 C 10.441406 24.007812 9.027344 23.578125 7.753906 22.929688 C 6.476562 22.277344 5.492188 21.480469 4.792969 20.53125 L 6.355469 18.972656 C 6.511719 18.804688 6.546875 18.621094 6.464844 18.425781 C 6.378906 18.214844 6.222656 18.113281 5.996094 18.113281 L 0.5 18.113281 C 0.355469 18.113281 0.234375 18.15625 0.140625 18.253906 C 0.046875 18.34375 0 18.464844 0 18.613281 L 0 24.105469 C 0 24.335938 0.105469 24.492188 0.3125 24.574219 C 0.394531 24.597656 0.457031 24.605469 0.5 24.605469 C 0.644531 24.605469 0.765625 24.558594 0.859375 24.464844 L 2.3125 23.015625 C 3.550781 24.503906 5.207031 25.679688 7.285156 26.550781 C 9.359375 27.417969 11.59375 27.855469 13.988281 27.855469 C 16.382812 27.855469 18.617188 27.417969 20.695312 26.550781 C 22.773438 25.679688 24.429688 24.503906 25.667969 23.015625 L 27.121094 24.464844 C 27.226562 24.558594 27.34375 24.605469 27.480469 24.605469 C 27.519531 24.605469 27.582031 24.597656 27.667969 24.574219 C 27.875 24.492188 27.980469 24.335938 27.980469 24.105469 L 27.980469 18.613281 C 27.980469 18.464844 27.933594 18.34375 27.839844 18.253906 Z M 14.691406 4.824219 C 14.496094 5.023438 14.261719 5.121094 13.988281 5.121094 C 13.71875 5.121094 13.484375 5.023438 13.285156 4.824219 C 13.089844 4.625 12.992188 4.390625 12.992188 4.121094 C 12.992188 3.851562 13.089844 3.617188 13.285156 3.417969 C 13.484375 3.222656 13.71875 3.121094 13.988281 3.121094 C 14.261719 3.121094 14.496094 3.222656 14.691406 3.417969 C 14.890625 3.617188 14.988281 3.851562 14.988281 4.121094 C 14.988281 4.390625 14.890625 4.625 14.691406 4.824219 Z M 14.691406 4.824219 "/>
</g>
</svg>
