<?xml version="1.0" encoding="UTF-8"?>
<svg xmlns="http://www.w3.org/2000/svg" xmlns:xlink="http://www.w3.org/1999/xlink" width="28pt" height="28pt" viewBox="0 0 28 28" version="1.1">
<g id="surface1">
<path style=" stroke:none;fill-rule:nonzero;fill:rgb(0%,0%,0%);fill-opacity:1;" d="M 26.082031 19.15625 C 25.328125 18.402344 24.414062 17.855469 23.46875 17.582031 L 23.601562 17.449219 C 23.703125 17.34375 23.761719 17.207031 23.761719 17.0625 C 23.761719 16.917969 23.703125 16.777344 23.601562 16.675781 C 21.816406 14.886719 18.992188 14.753906 17.050781 16.277344 L 14.773438 14 L 15.585938 13.1875 C 15.800781 12.972656 15.800781 12.625 15.585938 12.414062 C 15.375 12.199219 15.027344 12.199219 14.8125 12.414062 L 14 13.226562 L 0.933594 0.160156 C 0.71875 -0.0546875 0.375 -0.0546875 0.160156 0.160156 C -0.0546875 0.375 -0.0546875 0.71875 0.160156 0.933594 L 13.226562 14 L 10.949219 16.277344 C 9.007812 14.753906 6.183594 14.886719 4.398438 16.675781 C 4.296875 16.777344 4.238281 16.917969 4.238281 17.0625 C 4.238281 17.207031 4.296875 17.34375 4.398438 17.449219 L 4.53125 17.582031 C 3.585938 17.855469 2.671875 18.402344 1.917969 19.15625 C 0.363281 20.710938 -0.234375 22.886719 0.390625 24.574219 C 0.136719 24.9375 0 25.367188 0 25.820312 C 0 26.402344 0.226562 26.949219 0.640625 27.359375 C 1.0625 27.785156 1.621094 28 2.179688 28 C 2.738281 28 3.296875 27.785156 3.722656 27.359375 C 3.988281 27.097656 4.175781 26.773438 4.277344 26.421875 L 8.824219 21.875 L 10.628906 23.679688 C 10.730469 23.78125 10.871094 23.839844 11.015625 23.839844 C 11.160156 23.839844 11.300781 23.78125 11.402344 23.679688 C 12.339844 22.742188 12.851562 21.5 12.851562 20.175781 C 12.851562 19.019531 12.457031 17.921875 11.734375 17.039062 L 14 14.773438 L 16.265625 17.039062 C 15.542969 17.921875 15.148438 19.019531 15.148438 20.175781 C 15.148438 21.5 15.660156 22.742188 16.597656 23.679688 C 16.699219 23.78125 16.839844 23.839844 16.984375 23.839844 C 17.128906 23.839844 17.269531 23.78125 17.371094 23.679688 L 19.175781 21.875 L 23.722656 26.421875 C 23.824219 26.773438 24.011719 27.097656 24.277344 27.359375 C 24.703125 27.785156 25.261719 28 25.820312 28 C 26.378906 28 26.9375 27.785156 27.359375 27.359375 C 27.773438 26.949219 28 26.402344 28 25.820312 C 28 25.367188 27.863281 24.9375 27.609375 24.574219 C 28.234375 22.886719 27.636719 20.710938 26.082031 19.15625 Z M 25.308594 19.929688 C 26.449219 21.070312 26.96875 22.585938 26.691406 23.820312 C 26.605469 23.78125 26.515625 23.75 26.421875 23.722656 L 21.875 19.175781 L 22.546875 18.503906 C 23.523438 18.628906 24.519531 19.136719 25.308594 19.929688 Z M 2.691406 19.929688 C 3.480469 19.136719 4.476562 18.628906 5.453125 18.503906 L 6.125 19.175781 L 1.578125 23.722656 C 1.484375 23.75 1.394531 23.78125 1.308594 23.820312 C 1.03125 22.585938 1.550781 21.070312 2.691406 19.929688 Z M 1.410156 26.589844 C 1.207031 26.382812 1.09375 26.109375 1.09375 25.820312 C 1.09375 25.527344 1.207031 25.257812 1.410156 25.050781 C 1.566406 24.898438 1.753906 24.796875 1.960938 24.753906 C 1.964844 24.753906 1.964844 24.753906 1.96875 24.753906 C 2.035156 24.738281 2.109375 24.734375 2.179688 24.734375 C 2.472656 24.734375 2.742188 24.84375 2.949219 25.050781 C 3.15625 25.257812 3.265625 25.527344 3.265625 25.820312 C 3.265625 25.890625 3.261719 25.960938 3.246094 26.03125 C 3.246094 26.035156 3.246094 26.035156 3.246094 26.039062 C 3.203125 26.246094 3.101562 26.433594 2.949219 26.585938 C 2.523438 27.011719 1.835938 27.011719 1.410156 26.589844 Z M 4.1875 24.964844 C 4.078125 24.710938 3.921875 24.476562 3.722656 24.277344 C 3.523438 24.078125 3.289062 23.921875 3.035156 23.8125 L 6.898438 19.949219 L 8.050781 21.101562 Z M 10.988281 22.492188 L 5.585938 17.089844 C 7.097656 15.953125 9.253906 16.074219 10.628906 17.449219 C 11.359375 18.175781 11.757812 19.144531 11.757812 20.175781 C 11.757812 21.023438 11.488281 21.828125 10.988281 22.492188 Z M 17.011719 22.492188 C 16.511719 21.828125 16.242188 21.023438 16.242188 20.175781 C 16.242188 19.144531 16.640625 18.175781 17.371094 17.449219 C 18.125 16.695312 19.113281 16.320312 20.101562 16.320312 C 20.914062 16.320312 21.730469 16.574219 22.414062 17.089844 Z M 21.101562 19.949219 L 24.964844 23.8125 C 24.710938 23.921875 24.476562 24.078125 24.277344 24.277344 C 24.078125 24.476562 23.921875 24.710938 23.8125 24.964844 L 19.949219 21.101562 Z M 26.589844 26.589844 C 26.164062 27.011719 25.476562 27.011719 25.050781 26.589844 C 24.898438 26.433594 24.796875 26.246094 24.753906 26.039062 C 24.753906 26.035156 24.753906 26.035156 24.753906 26.03125 C 24.738281 25.960938 24.734375 25.890625 24.734375 25.820312 C 24.734375 25.527344 24.84375 25.257812 25.050781 25.050781 C 25.257812 24.84375 25.527344 24.734375 25.820312 24.734375 C 25.890625 24.734375 25.964844 24.738281 26.03125 24.753906 C 26.035156 24.753906 26.035156 24.753906 26.039062 24.753906 C 26.246094 24.796875 26.433594 24.898438 26.589844 25.050781 C 26.792969 25.257812 26.90625 25.527344 26.90625 25.820312 C 26.90625 26.109375 26.792969 26.382812 26.589844 26.589844 Z M 26.589844 26.589844 "/>
<path style=" stroke:none;fill-rule:nonzero;fill:rgb(0%,0%,0%);fill-opacity:1;" d="M 17.867188 10.679688 C 18.007812 10.679688 18.148438 10.625 18.253906 10.519531 L 27.839844 0.933594 C 28.054688 0.71875 28.054688 0.375 27.839844 0.160156 C 27.625 -0.0546875 27.28125 -0.0546875 27.066406 0.160156 L 17.480469 9.746094 C 17.265625 9.960938 17.265625 10.304688 17.480469 10.519531 C 17.585938 10.625 17.726562 10.679688 17.867188 10.679688 Z M 17.867188 10.679688 "/>
<path style=" stroke:none;fill-rule:nonzero;fill:rgb(0%,0%,0%);fill-opacity:1;" d="M 16.3125 12.234375 C 16.449219 12.234375 16.589844 12.183594 16.695312 12.074219 L 16.707031 12.066406 C 16.921875 11.851562 16.921875 11.507812 16.707031 11.292969 C 16.496094 11.078125 16.148438 11.078125 15.933594 11.292969 L 15.925781 11.300781 C 15.710938 11.515625 15.710938 11.859375 15.925781 12.074219 C 16.03125 12.183594 16.171875 12.234375 16.3125 12.234375 Z M 16.3125 12.234375 "/>
</g>
</svg>
