<?xml version="1.0" encoding="UTF-8" standalone="no"?>
<svg
   width="28pt"
   height="28pt"
   viewBox="0 0 28 28"
   version="1.1"
   id="svg14"
   sodipodi:docname="b6.svg"
   inkscape:version="1.1 (c4e8f9e, 2021-05-24)"
   xmlns:inkscape="http://www.inkscape.org/namespaces/inkscape"
   xmlns:sodipodi="http://sodipodi.sourceforge.net/DTD/sodipodi-0.dtd"
   xmlns="http://www.w3.org/2000/svg"
   xmlns:svg="http://www.w3.org/2000/svg">
  <defs
     id="defs18" />
  <sodipodi:namedview
     id="namedview16"
     pagecolor="#ffffff"
     bordercolor="#666666"
     borderopacity="1.0"
     inkscape:pageshadow="2"
     inkscape:pageopacity="0.0"
     inkscape:pagecheckerboard="0"
     inkscape:document-units="pt"
     showgrid="false"
     inkscape:zoom="16"
     inkscape:cx="13.65625"
     inkscape:cy="24.84375"
     inkscape:window-width="1920"
     inkscape:window-height="1027"
     inkscape:window-x="0"
     inkscape:window-y="25"
     inkscape:window-maximized="1"
     inkscape:current-layer="svg14" />
  <rect
     style="opacity:1;fill:none;stroke:#000000;stroke-width:1.1728;stroke-linejoin:round;stroke-miterlimit:4;stroke-dasharray:none;stroke-opacity:1;paint-order:markers fill stroke"
     id="rect308"
     width="26.606733"
     height="26.606733"
     x="0.72813225"
     y="0.72813225"
     ry="4.3362432"
     rx="4.3362441" />
  <path
     style="fill:#000000;fill-opacity:1;fill-rule:nonzero;stroke:none"
     d="m 17.145778,16.538294 c 0,0.511719 -0.07031,1.027344 -0.253906,1.539062 -0.148438,0.515626 -0.40625,0.953126 -0.769532,1.320313 -0.332031,0.40625 -0.773437,0.699219 -1.285156,0.917969 -0.511719,0.257812 -1.136719,0.367187 -1.871094,0.367187 -0.511718,0 -0.953125,-0.07422 -1.355468,-0.183593 C 11.243434,20.3547 10.876246,20.171106 10.583278,19.94845 10.325465,19.7297 10.071559,19.436732 9.8879655,19.1047 9.6692151,18.737513 9.5207781,18.370325 9.4114031,17.932825 c -0.109375,-0.441406 -0.183594,-0.917969 -0.257813,-1.433593 -0.03516,-0.511719 -0.07422,-1.097657 -0.07422,-1.6875 0,-0.511719 0.03906,-1.0625 0.07422,-1.574219 0.07422,-0.550781 0.183594,-1.066407 0.332032,-1.578125 0.144531,-0.476563 0.3281244,-0.953125 0.5859369,-1.394532 0.253906,-0.4414057 0.550781,-0.8085927 0.914063,-1.1367177 0.40625,-0.332032 0.84375,-0.585938 1.359374,-0.769532 0.550782,-0.222656 1.136719,-0.296874 1.832032,-0.296874 0.257812,0 0.476562,0 0.734375,0.03906 0.21875,0.03516 0.4375,0.07422 0.660156,0.109375 0.183594,0.03516 0.367187,0.109375 0.511719,0.148437 0.109375,0.07031 0.222656,0.109376 0.257812,0.144532 0.03516,0.03906 0.07422,0.07422 0.109375,0.109375 0,0.03906 0.03516,0.109375 0.03516,0.148437 0.03906,0.03516 0.03906,0.109375 0.03906,0.144532 v 0.515624 c 0,0.109376 0,0.144532 -0.03906,0.21875 0,0.03906 -0.03516,0.07422 -0.07031,0.109376 -0.03907,0.03906 -0.07422,0.03906 -0.148442,0.03906 -0.07422,0 -0.144532,-0.03906 -0.292969,-0.07422 -0.109375,-0.03516 -0.257813,-0.07422 -0.441407,-0.148437 -0.144531,-0.03516 -0.363281,-0.109375 -0.621093,-0.144532 -0.222657,-0.03516 -0.515625,-0.07422 -0.84375,-0.07422 -0.585938,0 -1.0625,0.148437 -1.503907,0.367187 -0.441406,0.257813 -0.769531,0.5859377 -1.027343,0.9921877 -0.292969,0.402343 -0.476563,0.84375 -0.621094,1.390625 -0.109375,0.515625 -0.183594,1.101562 -0.222656,1.6875 0.183593,-0.109375 0.367187,-0.21875 0.550781,-0.292969 0.21875,-0.109375 0.441406,-0.183594 0.695312,-0.253906 0.222657,-0.07422 0.480469,-0.148438 0.773438,-0.183594 0.253906,-0.07422 0.546875,-0.07422 0.878906,-0.07422 0.660156,0 1.210938,0.07422 1.648438,0.257813 0.476562,0.183593 0.84375,0.4375 1.101562,0.769531 0.292969,0.292969 0.511719,0.695312 0.621094,1.101562 0.113281,0.4375 0.183594,0.914063 0.183594,1.429688 z m -1.648438,0.144531 c 0,-0.367187 -0.03516,-0.695312 -0.109375,-1.027343 -0.07422,-0.292969 -0.21875,-0.546876 -0.367187,-0.730469 -0.183594,-0.222657 -0.402344,-0.367188 -0.695313,-0.515625 -0.292969,-0.109375 -0.625,-0.144532 -1.027343,-0.144532 -0.257813,0 -0.476563,0 -0.734376,0.03516 -0.21875,0.07422 -0.441406,0.109375 -0.660156,0.183593 -0.21875,0.07422 -0.441406,0.144532 -0.621094,0.257813 -0.183593,0.109375 -0.367187,0.21875 -0.550781,0.328125 0,0.808594 0.07422,1.503906 0.144531,2.054688 0.109376,0.550781 0.257813,0.992187 0.476563,1.320312 0.183594,0.332031 0.441406,0.550781 0.734375,0.699219 0.292969,0.144531 0.660156,0.21875 1.027344,0.21875 0.402344,0 0.769531,-0.07422 1.0625,-0.21875 0.292968,-0.148438 0.550781,-0.367188 0.734375,-0.625 0.21875,-0.257813 0.328125,-0.550781 0.4375,-0.878907 0.113281,-0.296874 0.148437,-0.625 0.148437,-0.957031 z m 0,0"
     id="path1908" />
</svg>
