<?xml version="1.0" encoding="UTF-8"?>
<svg xmlns="http://www.w3.org/2000/svg" xmlns:xlink="http://www.w3.org/1999/xlink" width="28pt" height="28pt" viewBox="0 0 28 28" version="1.1">
<g id="surface1">
<path style=" stroke:none;fill-rule:nonzero;fill:rgb(0%,0%,0%);fill-opacity:1;" d="M 25.097656 4.375 C 23.253906 2.863281 20.855469 2.265625 18.515625 2.738281 L 17.488281 2.945312 C 15.171875 3.410156 12.828125 3.410156 10.511719 2.945312 L 9.484375 2.738281 C 7.144531 2.265625 4.746094 2.863281 2.902344 4.375 C 1.058594 5.886719 0 8.117188 0 10.503906 C 0 12.886719 1.058594 15.121094 2.902344 16.632812 C 3.636719 17.234375 4.460938 17.691406 5.332031 17.992188 C 5.980469 22.191406 9.621094 25.417969 14 25.417969 C 18.378906 25.417969 22.019531 22.191406 22.667969 17.992188 C 23.539062 17.691406 24.363281 17.234375 25.097656 16.632812 C 26.941406 15.121094 28 12.886719 28 10.503906 C 28 8.117188 26.941406 5.886719 25.097656 4.375 Z M 14 23.777344 C 10.070312 23.777344 6.871094 20.582031 6.871094 16.648438 C 6.871094 14.335938 7.976562 12.277344 9.6875 10.972656 C 9.753906 11.570312 9.941406 12.132812 10.222656 12.632812 C 9.152344 13.636719 8.484375 15.066406 8.484375 16.648438 C 8.484375 19.691406 10.957031 22.164062 14 22.164062 C 17.042969 22.164062 19.515625 19.691406 19.515625 16.648438 C 19.515625 15.066406 18.847656 13.636719 17.777344 12.632812 C 18.058594 12.132812 18.246094 11.570312 18.3125 10.972656 C 20.023438 12.277344 21.128906 14.335938 21.128906 16.648438 C 21.128906 20.582031 17.929688 23.777344 14 23.777344 Z M 14 14.839844 C 15.027344 14.839844 15.96875 14.480469 16.710938 13.882812 C 17.390625 14.546875 17.824219 15.457031 17.871094 16.464844 L 17.808594 16.453125 C 15.28125 15.945312 12.71875 15.945312 10.191406 16.453125 L 10.128906 16.464844 C 10.175781 15.457031 10.609375 14.546875 11.289062 13.882812 C 12.03125 14.480469 12.972656 14.839844 14 14.839844 Z M 11.304688 10.503906 C 11.304688 9.015625 12.511719 7.808594 14 7.808594 C 15.488281 7.808594 16.695312 9.015625 16.695312 10.503906 C 16.695312 11.988281 15.488281 13.199219 14 13.199219 C 12.511719 13.199219 11.304688 11.988281 11.304688 10.503906 Z M 17.597656 18.085938 C 17.027344 19.511719 15.628906 20.523438 14 20.523438 C 12.371094 20.523438 10.972656 19.511719 10.402344 18.085938 L 10.511719 18.0625 C 12.828125 17.597656 15.171875 17.597656 17.488281 18.0625 Z M 24.058594 15.363281 C 23.65625 15.691406 23.21875 15.96875 22.757812 16.183594 C 22.589844 12.988281 20.703125 10.242188 18.007812 8.847656 C 17.355469 7.277344 15.804688 6.167969 14 6.167969 C 12.195312 6.167969 10.644531 7.277344 9.992188 8.847656 C 7.296875 10.242188 5.410156 12.988281 5.242188 16.183594 C 4.78125 15.96875 4.34375 15.691406 3.941406 15.363281 C 2.480469 14.164062 1.640625 12.394531 1.640625 10.503906 C 1.640625 8.613281 2.480469 6.839844 3.941406 5.644531 C 5.078125 4.714844 6.476562 4.222656 7.914062 4.222656 C 8.328125 4.222656 8.746094 4.261719 9.160156 4.34375 L 10.191406 4.554688 C 12.71875 5.0625 15.28125 5.0625 17.808594 4.554688 L 18.839844 4.34375 C 20.691406 3.972656 22.59375 4.445312 24.058594 5.644531 C 25.519531 6.839844 26.359375 8.613281 26.359375 10.503906 C 26.359375 12.394531 25.519531 14.164062 24.058594 15.363281 Z M 24.058594 15.363281 "/>
</g>
</svg>
