<?xml version="1.0" encoding="UTF-8"?>
<svg xmlns="http://www.w3.org/2000/svg" xmlns:xlink="http://www.w3.org/1999/xlink" width="28pt" height="28pt" viewBox="0 0 28 28" version="1.1">
<g id="surface1">
<path style=" stroke:none;fill-rule:nonzero;fill:rgb(0%,0%,0%);fill-opacity:1;" d="M 24.757812 11.050781 C 24.601562 10.671875 24.234375 10.425781 23.824219 10.425781 L 20.046875 10.425781 L 20.046875 6.433594 C 20.046875 6.429688 20.046875 6.429688 20.046875 6.425781 C 20.046875 6.425781 20.046875 6.425781 20.046875 6.421875 C 20.042969 5.519531 19.691406 4.671875 19.054688 4.035156 L 15.316406 0.296875 C 15.027344 0.0078125 14.59375 -0.078125 14.214844 0.078125 C 13.835938 0.234375 13.589844 0.601562 13.589844 1.011719 L 13.589844 4.789062 L 9.597656 4.789062 C 9.597656 4.789062 9.59375 4.789062 9.59375 4.789062 C 9.589844 4.789062 9.585938 4.789062 9.585938 4.789062 C 8.683594 4.792969 7.835938 5.144531 7.199219 5.78125 L 5.65625 7.324219 C 5.496094 7.484375 5.496094 7.742188 5.65625 7.902344 C 5.738281 7.984375 5.84375 8.023438 5.949219 8.023438 C 6.050781 8.023438 6.15625 7.984375 6.238281 7.902344 L 7.78125 6.359375 C 8.242188 5.898438 8.847656 5.636719 9.496094 5.609375 C 10.207031 6.039062 11.449219 7.445312 12.472656 8.972656 C 12.035156 9.332031 11.726562 9.84375 11.628906 10.425781 L 4.175781 10.425781 C 4.0625 10.425781 4.015625 10.34375 4 10.308594 C 3.984375 10.273438 3.960938 10.179688 4.039062 10.101562 L 4.605469 9.535156 C 4.765625 9.375 4.765625 9.113281 4.605469 8.953125 C 4.445312 8.792969 4.1875 8.792969 4.027344 8.953125 L 3.460938 9.519531 C 3.171875 9.808594 3.085938 10.242188 3.242188 10.621094 C 3.398438 11 3.765625 11.246094 4.175781 11.246094 L 7.953125 11.246094 L 7.953125 15.238281 C 7.953125 15.238281 7.953125 15.242188 7.953125 15.242188 C 7.953125 15.246094 7.953125 15.25 7.953125 15.25 C 7.957031 16.152344 8.308594 17 8.945312 17.636719 L 11.84375 20.53125 L 11.84375 26.476562 C 11.84375 27.316406 12.523438 28 13.363281 28 L 14.636719 28 C 15.476562 28 16.15625 27.316406 16.15625 26.476562 L 16.15625 25.863281 C 16.15625 25.636719 15.972656 25.453125 15.746094 25.453125 C 15.519531 25.453125 15.335938 25.636719 15.335938 25.863281 L 15.335938 26.476562 C 15.335938 26.863281 15.023438 27.179688 14.636719 27.179688 L 13.363281 27.179688 C 12.976562 27.179688 12.664062 26.863281 12.664062 26.476562 L 12.664062 21.351562 L 12.683594 21.375 C 12.878906 21.570312 13.136719 21.671875 13.398438 21.671875 C 13.527344 21.671875 13.660156 21.644531 13.785156 21.59375 C 14.164062 21.4375 14.410156 21.070312 14.410156 20.660156 L 14.410156 16.882812 L 15.335938 16.882812 L 15.335938 23.65625 C 15.335938 23.882812 15.519531 24.066406 15.746094 24.066406 C 15.972656 24.066406 16.15625 23.882812 16.15625 23.65625 L 16.15625 16.882812 L 18.402344 16.882812 C 19.308594 16.882812 20.160156 16.53125 20.800781 15.890625 L 24.539062 12.152344 C 24.828125 11.863281 24.914062 11.429688 24.757812 11.050781 Z M 14.410156 1.011719 C 14.410156 0.898438 14.492188 0.851562 14.527344 0.835938 C 14.5625 0.820312 14.65625 0.796875 14.734375 0.875 L 18.472656 4.613281 C 18.9375 5.078125 19.199219 5.683594 19.226562 6.328125 C 18.796875 7.042969 17.390625 8.285156 15.863281 9.308594 C 15.503906 8.871094 14.992188 8.5625 14.410156 8.464844 Z M 19.226562 7.621094 L 19.226562 10.425781 L 16.371094 10.425781 C 16.347656 10.289062 16.3125 10.152344 16.265625 10.023438 C 17.324219 9.320312 18.460938 8.421875 19.226562 7.621094 Z M 10.785156 5.609375 L 13.589844 5.609375 L 13.589844 8.464844 C 13.453125 8.488281 13.320312 8.523438 13.191406 8.570312 C 12.484375 7.511719 11.585938 6.375 10.785156 5.609375 Z M 8.773438 11.246094 L 11.628906 11.246094 C 11.652344 11.382812 11.6875 11.515625 11.734375 11.644531 C 10.675781 12.351562 9.539062 13.25 8.773438 14.050781 Z M 13.589844 20.660156 C 13.589844 20.773438 13.507812 20.820312 13.472656 20.835938 C 13.4375 20.851562 13.34375 20.875 13.265625 20.792969 L 12.542969 20.074219 L 9.527344 17.054688 C 9.0625 16.59375 8.800781 15.988281 8.773438 15.339844 C 9.203125 14.628906 10.609375 13.386719 12.136719 12.363281 C 12.496094 12.800781 13.007812 13.109375 13.589844 13.207031 Z M 14 12.421875 C 13.125 12.421875 12.414062 11.710938 12.414062 10.835938 C 12.414062 9.960938 13.125 9.246094 14 9.246094 C 14.875 9.246094 15.585938 9.960938 15.585938 10.835938 C 15.585938 11.710938 14.875 12.421875 14 12.421875 Z M 14.410156 16.0625 L 14.410156 13.207031 C 14.546875 13.183594 14.683594 13.148438 14.808594 13.101562 C 15.515625 14.160156 16.414062 15.296875 17.214844 16.0625 Z M 23.957031 11.570312 L 20.21875 15.308594 C 19.757812 15.769531 19.152344 16.035156 18.503906 16.0625 C 17.792969 15.632812 16.550781 14.226562 15.527344 12.699219 C 15.964844 12.335938 16.273438 11.828125 16.371094 11.246094 L 23.824219 11.246094 C 23.9375 11.246094 23.984375 11.328125 24 11.363281 C 24.015625 11.398438 24.039062 11.492188 23.957031 11.570312 Z M 23.957031 11.570312 "/>
</g>
</svg>
