<?xml version="1.0" encoding="UTF-8"?>
<svg xmlns="http://www.w3.org/2000/svg" xmlns:xlink="http://www.w3.org/1999/xlink" width="28pt" height="28pt" viewBox="0 0 28 28" version="1.1">
<g id="surface1">
<path style=" stroke:none;fill-rule:nonzero;fill:rgb(0%,0%,0%);fill-opacity:1;" d="M 26.859375 16.511719 L 25.960938 16.511719 L 25.960938 6.746094 C 25.960938 4.46875 24.109375 2.617188 21.832031 2.617188 C 19.707031 2.617188 17.953125 4.226562 17.726562 6.289062 L 14.898438 6.289062 C 14.304688 6.289062 13.824219 6.769531 13.824219 7.363281 C 13.824219 7.953125 14.304688 8.433594 14.898438 8.433594 L 21.570312 8.433594 C 22.164062 8.433594 22.644531 7.953125 22.644531 7.363281 C 22.644531 6.769531 22.164062 6.289062 21.570312 6.289062 L 18.871094 6.289062 C 19.089844 4.855469 20.335938 3.753906 21.832031 3.753906 C 23.484375 3.753906 24.824219 5.09375 24.824219 6.746094 L 24.824219 16.511719 L 1.140625 16.511719 C 0.511719 16.511719 0 17.023438 0 17.652344 C 0 18.28125 0.511719 18.792969 1.140625 18.792969 L 1.425781 18.792969 C 1.566406 19.851562 1.941406 22.648438 2.148438 23.851562 C 2.289062 24.6875 2.832031 25.382812 3.679688 25.382812 L 24.320312 25.382812 C 25.167969 25.382812 25.71875 24.6875 25.851562 23.851562 C 26.042969 22.648438 26.425781 19.851562 26.570312 18.792969 L 26.859375 18.792969 C 27.488281 18.792969 28 18.28125 28 17.652344 C 28 17.023438 27.488281 16.511719 26.859375 16.511719 Z M 26.859375 16.511719 "/>
</g>
</svg>
