<?xml version="1.0" encoding="UTF-8"?>
<svg xmlns="http://www.w3.org/2000/svg" xmlns:xlink="http://www.w3.org/1999/xlink" width="28pt" height="28pt" viewBox="0 0 28 28" version="1.1">
<g id="surface1">
<path style=" stroke:none;fill-rule:nonzero;fill:rgb(0%,0%,0%);fill-opacity:1;" d="M 16.261719 9.277344 C 16.089844 9.039062 15.816406 8.898438 15.523438 8.898438 L 15.433594 8.898438 C 15.042969 8.898438 14.695312 9.148438 14.570312 9.519531 L 12.621094 15.410156 L 10.660156 9.519531 C 10.535156 9.148438 10.1875 8.898438 9.796875 8.898438 L 9.738281 8.898438 C 9.734375 8.898438 9.730469 8.898438 9.730469 8.898438 C 9.726562 8.898438 9.722656 8.898438 9.71875 8.898438 L 9.648438 8.898438 C 9.253906 8.898438 8.90625 9.148438 8.785156 9.519531 L 6.832031 15.410156 L 4.871094 9.519531 C 4.75 9.148438 4.402344 8.898438 4.011719 8.898438 L 3.921875 8.898438 C 3.628906 8.898438 3.351562 9.039062 3.183594 9.277344 C 3.011719 9.515625 2.964844 9.820312 3.0625 10.097656 L 5.90625 18.484375 C 6.03125 18.855469 6.375 19.101562 6.765625 19.101562 L 6.804688 19.101562 C 6.8125 19.101562 6.824219 19.101562 6.835938 19.101562 C 6.847656 19.101562 6.855469 19.101562 6.867188 19.101562 L 6.890625 19.101562 C 7.28125 19.101562 7.628906 18.855469 7.753906 18.484375 L 9.726562 12.625 L 11.691406 18.484375 C 11.816406 18.851562 12.164062 19.101562 12.554688 19.101562 L 12.589844 19.101562 C 12.601562 19.101562 12.613281 19.101562 12.621094 19.101562 C 12.632812 19.101562 12.644531 19.101562 12.65625 19.101562 L 12.679688 19.101562 C 13.070312 19.101562 13.414062 18.855469 13.539062 18.484375 L 16.382812 10.097656 C 16.476562 9.820312 16.433594 9.515625 16.261719 9.277344 Z M 16.261719 9.277344 "/>
<path style=" stroke:none;fill-rule:nonzero;fill:rgb(0%,0%,0%);fill-opacity:1;" d="M 24.660156 16.464844 C 24.324219 16.152344 23.804688 16.140625 23.453125 16.441406 C 22.851562 16.953125 22.070312 17.234375 21.261719 17.234375 C 19.414062 17.234375 17.910156 15.78125 17.910156 13.992188 C 17.910156 12.214844 19.414062 10.765625 21.261719 10.765625 C 22.078125 10.765625 22.855469 11.042969 23.453125 11.546875 C 23.8125 11.851562 24.347656 11.828125 24.679688 11.496094 L 24.710938 11.464844 C 24.890625 11.285156 24.988281 11.039062 24.976562 10.78125 C 24.964844 10.527344 24.847656 10.289062 24.652344 10.125 C 23.703125 9.335938 22.5 8.898438 21.261719 8.898438 C 18.382812 8.898438 16.042969 11.183594 16.042969 13.992188 C 16.042969 16.8125 18.382812 19.101562 21.261719 19.101562 C 22.496094 19.101562 23.707031 18.664062 24.660156 17.863281 C 24.863281 17.695312 24.980469 17.453125 24.988281 17.191406 C 24.992188 16.929688 24.886719 16.679688 24.695312 16.5 Z M 24.660156 16.464844 "/>
<path style=" stroke:none;fill-rule:nonzero;fill:rgb(0%,0%,0%);fill-opacity:1;" d="M 22.1875 0 L 5.8125 0 C 2.609375 0 0 2.609375 0 5.8125 L 0 22.1875 C 0 25.390625 2.609375 28 5.8125 28 L 22.1875 28 C 25.390625 28 28 25.390625 28 22.1875 L 28 5.8125 C 28 2.609375 25.390625 0 22.1875 0 Z M 26.9375 22.1875 C 26.9375 24.804688 24.804688 26.9375 22.1875 26.9375 L 5.8125 26.9375 C 3.195312 26.9375 1.0625 24.804688 1.0625 22.1875 L 1.0625 5.8125 C 1.0625 3.195312 3.195312 1.0625 5.8125 1.0625 L 22.1875 1.0625 C 24.804688 1.0625 26.9375 3.195312 26.9375 5.8125 Z M 26.9375 22.1875 "/>
</g>
</svg>
