<?xml version="1.0" encoding="UTF-8"?>
<svg xmlns="http://www.w3.org/2000/svg" xmlns:xlink="http://www.w3.org/1999/xlink" width="28pt" height="28pt" viewBox="0 0 28 28" version="1.1">
<g id="surface1">
<path style=" stroke:none;fill-rule:nonzero;fill:rgb(0%,0%,0%);fill-opacity:1;" d="M 20.363281 0 L 14.054688 0 C 11.039062 0 8.585938 2.453125 8.585938 5.46875 L 8.585938 8.683594 C 4.941406 9.214844 2.132812 12.359375 2.132812 16.152344 C 2.132812 16.753906 2.621094 17.246094 3.226562 17.246094 L 16.132812 17.246094 C 16.738281 17.246094 17.226562 16.753906 17.226562 16.152344 C 17.226562 12.359375 14.417969 9.214844 10.773438 8.683594 L 10.773438 5.46875 C 10.773438 3.660156 12.246094 2.1875 14.054688 2.1875 L 20.363281 2.1875 C 22.171875 2.1875 23.644531 3.660156 23.644531 5.46875 L 23.644531 26.90625 C 23.644531 27.511719 24.132812 28 24.738281 28 C 25.339844 28 25.832031 27.511719 25.832031 26.90625 L 25.832031 5.46875 C 25.832031 2.453125 23.378906 0 20.363281 0 Z M 14.925781 15.058594 L 4.433594 15.058594 C 4.9375 12.625 7.097656 10.792969 9.679688 10.792969 C 12.261719 10.792969 14.421875 12.625 14.925781 15.058594 Z M 10.773438 19.914062 L 10.773438 21.554688 C 10.773438 22.160156 10.285156 22.648438 9.679688 22.648438 C 9.074219 22.648438 8.585938 22.160156 8.585938 21.554688 L 8.585938 19.914062 C 8.585938 19.3125 9.074219 18.820312 9.679688 18.820312 C 10.285156 18.820312 10.773438 19.3125 10.773438 19.914062 Z M 10.761719 25.265625 L 10.761719 26.90625 C 10.761719 27.511719 10.269531 28 9.667969 28 C 9.0625 28 8.574219 27.511719 8.574219 26.90625 L 8.574219 25.265625 C 8.574219 24.660156 9.0625 24.171875 9.667969 24.171875 C 10.269531 24.171875 10.761719 24.660156 10.761719 25.265625 Z M 6.476562 19.914062 L 6.476562 21.554688 C 6.476562 22.160156 5.988281 22.648438 5.382812 22.648438 C 4.78125 22.648438 4.289062 22.160156 4.289062 21.554688 L 4.289062 19.914062 C 4.289062 19.3125 4.78125 18.820312 5.382812 18.820312 C 5.988281 18.820312 6.476562 19.3125 6.476562 19.914062 Z M 6.464844 25.265625 L 6.464844 26.90625 C 6.464844 27.511719 5.976562 28 5.371094 28 C 4.765625 28 4.277344 27.511719 4.277344 26.90625 L 4.277344 25.265625 C 4.277344 24.660156 4.765625 24.171875 5.371094 24.171875 C 5.976562 24.171875 6.464844 24.660156 6.464844 25.265625 Z M 15.054688 19.914062 L 15.054688 21.554688 C 15.054688 22.160156 14.566406 22.648438 13.960938 22.648438 C 13.359375 22.648438 12.867188 22.160156 12.867188 21.554688 L 12.867188 19.914062 C 12.867188 19.3125 13.359375 18.820312 13.960938 18.820312 C 14.566406 18.820312 15.054688 19.3125 15.054688 19.914062 Z M 15.042969 25.265625 L 15.042969 26.90625 C 15.042969 27.511719 14.554688 28 13.949219 28 C 13.34375 28 12.855469 27.511719 12.855469 26.90625 L 12.855469 25.265625 C 12.855469 24.660156 13.34375 24.171875 13.949219 24.171875 C 14.554688 24.171875 15.042969 24.660156 15.042969 25.265625 Z M 15.042969 25.265625 "/>
</g>
</svg>
