<?xml version="1.0" encoding="UTF-8"?>
<svg xmlns="http://www.w3.org/2000/svg" xmlns:xlink="http://www.w3.org/1999/xlink" width="28pt" height="28pt" viewBox="0 0 28 28" version="1.1">
<g id="surface1">
<path style=" stroke:none;fill-rule:nonzero;fill:rgb(0%,0%,0%);fill-opacity:1;" d="M 20.628906 0.6875 C 20.542969 0.285156 20.1875 0 19.773438 0 L 8.226562 0 C 7.8125 0 7.457031 0.285156 7.371094 0.6875 L 3.519531 18.1875 C 3.464844 18.445312 3.527344 18.714844 3.691406 18.921875 C 3.859375 19.128906 4.109375 19.25 4.375 19.25 L 13.125 19.25 L 13.125 26.25 L 7 26.25 L 7 28 L 21 28 L 21 26.25 L 14.875 26.25 L 14.875 19.25 L 19.25 19.25 L 19.25 22.75 L 21 22.75 L 21 19.25 L 23.625 19.25 C 23.890625 19.25 24.140625 19.128906 24.308594 18.921875 C 24.472656 18.714844 24.535156 18.445312 24.480469 18.1875 Z M 5.464844 17.5 L 8.929688 1.75 L 19.070312 1.75 L 22.535156 17.5 Z M 5.464844 17.5 "/>
</g>
</svg>
