<?xml version="1.0" encoding="UTF-8"?>
<svg xmlns="http://www.w3.org/2000/svg" xmlns:xlink="http://www.w3.org/1999/xlink" width="28pt" height="28pt" viewBox="0 0 28 28" version="1.1">
<g id="surface1">
<path style=" stroke:none;fill-rule:nonzero;fill:rgb(0%,0%,0%);fill-opacity:1;" d="M 25.253906 0.304688 C 24.929688 0.304688 24.664062 0.566406 24.664062 0.890625 L 24.664062 3.371094 L 3.335938 3.371094 L 3.335938 0.890625 C 3.335938 0.566406 3.070312 0.304688 2.746094 0.304688 C 2.421875 0.304688 2.160156 0.566406 2.160156 0.890625 L 2.160156 27.414062 C 2.160156 27.738281 2.421875 28 2.746094 28 C 3.070312 28 3.335938 27.738281 3.335938 27.414062 L 3.335938 25.992188 L 24.664062 25.992188 L 24.664062 27.414062 C 24.664062 27.738281 24.929688 28 25.253906 28 C 25.578125 28 25.839844 27.738281 25.839844 27.414062 L 25.839844 0.890625 C 25.839844 0.566406 25.578125 0.304688 25.253906 0.304688 Z M 6.039062 15.0625 L 10.621094 15.0625 L 10.621094 17.355469 L 6.039062 17.355469 Z M 10.621094 13.886719 L 6.039062 13.886719 L 6.039062 11.597656 L 10.621094 11.597656 Z M 6.039062 18.53125 L 10.621094 18.53125 L 10.621094 20.878906 L 6.039062 20.878906 Z M 10.621094 10.421875 L 6.039062 10.421875 L 6.039062 8.480469 L 10.621094 8.480469 Z M 3.335938 8.480469 L 4.863281 8.480469 L 4.863281 20.878906 L 3.335938 20.878906 Z M 11.796875 20.878906 L 11.796875 8.480469 L 24.664062 8.480469 L 24.664062 20.878906 Z M 11.796875 20.878906 "/>
<path style=" stroke:none;fill-rule:nonzero;fill:rgb(0%,0%,0%);fill-opacity:1;" d="M 22.226562 17.554688 L 17.644531 17.554688 C 16.734375 17.554688 15.996094 18.289062 15.996094 19.199219 L 15.996094 20.082031 L 23.871094 20.082031 L 23.871094 19.199219 C 23.871094 18.289062 23.136719 17.554688 22.226562 17.554688 Z M 22.226562 17.554688 "/>
<path style=" stroke:none;fill-rule:nonzero;fill:rgb(0%,0%,0%);fill-opacity:1;" d="M 23.871094 1.644531 C 23.871094 0.738281 23.136719 0 22.226562 0 L 17.644531 0 C 16.734375 0 15.996094 0.738281 15.996094 1.644531 L 15.996094 2.527344 L 23.871094 2.527344 Z M 23.871094 1.644531 "/>
</g>
</svg>
