<?xml version="1.0" encoding="UTF-8"?>
<svg xmlns="http://www.w3.org/2000/svg" xmlns:xlink="http://www.w3.org/1999/xlink" width="28pt" height="28pt" viewBox="0 0 28 28" version="1.1">
<g id="surface1">
<path style=" stroke:none;fill-rule:nonzero;fill:rgb(0%,0%,0%);fill-opacity:1;" d="M 23.285156 8.492188 C 22.820312 4.058594 19.273438 0.511719 14.886719 0.046875 C 14.605469 0.046875 14.328125 0 14 0 C 13.671875 0 13.394531 0.046875 13.113281 0.046875 C 8.726562 0.558594 5.179688 4.105469 4.714844 8.492188 C 4.386719 11.480469 5.460938 14.421875 7.605469 16.472656 C 8.773438 17.59375 9.519531 18.898438 9.800781 20.160156 L 9.800781 25.667969 C 9.800781 25.945312 9.988281 26.132812 10.265625 26.132812 L 10.964844 26.132812 L 11.808594 27.253906 C 12.179688 27.71875 12.691406 28 13.300781 28 L 14.699219 28 C 15.308594 28 15.867188 27.71875 16.191406 27.253906 L 17.035156 26.132812 L 17.734375 26.132812 C 18.011719 26.132812 18.199219 25.945312 18.199219 25.667969 L 18.199219 20.160156 C 18.433594 18.898438 19.226562 17.59375 20.394531 16.472656 C 22.539062 14.375 23.613281 11.480469 23.285156 8.492188 Z M 12.132812 11.667969 L 11.199219 11.667969 C 10.6875 11.667969 10.265625 11.246094 10.265625 10.734375 C 10.265625 10.21875 10.6875 9.800781 11.199219 9.800781 C 11.714844 9.800781 12.132812 10.21875 12.132812 10.734375 Z M 14.933594 19.601562 L 13.066406 19.601562 L 13.066406 12.601562 L 14.933594 12.601562 Z M 17.265625 20.535156 L 17.265625 21.464844 L 15.867188 21.464844 C 15.585938 21.464844 15.398438 21.652344 15.398438 21.933594 C 15.398438 22.214844 15.585938 22.398438 15.867188 22.398438 L 17.265625 22.398438 L 17.265625 23.332031 L 14.464844 23.332031 C 14.1875 23.332031 14 23.519531 14 23.800781 C 14 24.078125 14.1875 24.265625 14.464844 24.265625 L 17.265625 24.265625 L 17.265625 25.199219 L 10.734375 25.199219 L 10.734375 24.265625 L 12.132812 24.265625 C 12.414062 24.265625 12.601562 24.078125 12.601562 23.800781 C 12.601562 23.519531 12.414062 23.332031 12.132812 23.332031 L 10.734375 23.332031 L 10.734375 22.398438 L 13.535156 22.398438 C 13.8125 22.398438 14 22.214844 14 21.933594 C 14 21.652344 13.8125 21.464844 13.535156 21.464844 L 10.734375 21.464844 L 10.734375 20.535156 Z M 15.445312 26.691406 C 15.261719 26.925781 14.980469 27.066406 14.699219 27.066406 L 13.300781 27.066406 C 13.019531 27.066406 12.738281 26.925781 12.554688 26.691406 L 12.132812 26.132812 L 15.867188 26.132812 Z M 19.738281 15.773438 C 18.574219 16.941406 17.734375 18.246094 17.359375 19.601562 L 15.867188 19.601562 L 15.867188 12.601562 L 16.800781 12.601562 C 17.828125 12.601562 18.667969 11.761719 18.667969 10.734375 C 18.667969 9.707031 17.828125 8.867188 16.800781 8.867188 C 15.773438 8.867188 14.933594 9.707031 14.933594 10.734375 L 14.933594 11.667969 L 13.066406 11.667969 L 13.066406 10.734375 C 13.066406 9.707031 12.226562 8.867188 11.199219 8.867188 C 10.171875 8.867188 9.332031 9.707031 9.332031 10.734375 C 9.332031 11.761719 10.171875 12.601562 11.199219 12.601562 L 12.132812 12.601562 L 12.132812 19.601562 L 10.640625 19.601562 C 10.265625 18.246094 9.425781 16.941406 8.261719 15.773438 C 6.300781 13.90625 5.367188 11.292969 5.648438 8.585938 C 6.113281 4.621094 9.285156 1.445312 13.253906 0.980469 C 13.488281 0.980469 13.71875 0.933594 14 0.933594 C 14.28125 0.933594 14.511719 0.980469 14.746094 0.980469 C 18.714844 1.445312 21.933594 4.621094 22.351562 8.585938 C 22.632812 11.292969 21.699219 13.90625 19.738281 15.773438 Z M 15.867188 11.667969 L 15.867188 10.734375 C 15.867188 10.21875 16.285156 9.800781 16.800781 9.800781 C 17.3125 9.800781 17.734375 10.21875 17.734375 10.734375 C 17.734375 11.246094 17.3125 11.667969 16.800781 11.667969 Z M 15.867188 11.667969 "/>
</g>
</svg>
