<?xml version="1.0" encoding="UTF-8"?>
<svg xmlns="http://www.w3.org/2000/svg" xmlns:xlink="http://www.w3.org/1999/xlink" width="28pt" height="28pt" viewBox="0 0 28 28" version="1.1">
<g id="surface1">
<path style=" stroke:none;fill-rule:nonzero;fill:rgb(0%,0%,0%);fill-opacity:1;" d="M 27.675781 11.234375 C 27.5 9.703125 23.378906 11.234375 23.378906 11.234375 L 23.132812 13.414062 C 23.042969 13.359375 22.953125 13.3125 22.855469 13.269531 L 21.816406 8.722656 C 21.433594 6.5625 19.800781 4.96875 17.421875 5.050781 L 11.304688 5.050781 C 11.269531 5.304688 11.210938 5.550781 11.136719 5.789062 L 17.835938 5.789062 C 19.222656 5.789062 20.496094 6.683594 20.84375 8.160156 L 21.960938 12.644531 C 21.890625 12.644531 21.824219 12.636719 21.75 12.636719 L 8.78125 12.636719 L 8.785156 17.011719 L 16.820312 17.011719 L 16.820312 17.988281 L 8.785156 17.988281 L 8.785156 18.273438 L 16.738281 18.273438 L 16.738281 19.253906 L 8.785156 19.253906 L 8.789062 22.925781 L 17.367188 22.925781 L 17.367188 25.253906 C 17.367188 26.199219 18.539062 26.96875 19.980469 26.96875 C 21.421875 26.96875 22.589844 26.199219 22.589844 25.253906 L 22.589844 22.660156 C 23.820312 22.191406 24.679688 21.175781 24.679688 19.988281 L 24.679688 15.824219 C 24.679688 14.90625 24.160156 14.085938 23.355469 13.546875 L 27.675781 13.316406 C 27.675781 13.316406 27.847656 12.765625 27.675781 11.234375 Z M 22.726562 19.179688 L 18.011719 19.179688 L 18.011719 16.9375 L 22.726562 16.9375 Z M 22.726562 19.179688 "/>
<path style=" stroke:none;fill-rule:nonzero;fill:rgb(0%,0%,0%);fill-opacity:1;" d="M 8.667969 18.273438 L 8.785156 18.273438 L 8.785156 19.253906 L 8.667969 19.253906 Z M 8.667969 18.273438 "/>
<path style=" stroke:none;fill-rule:nonzero;fill:rgb(0%,0%,0%);fill-opacity:1;" d="M 8.75 17.011719 L 8.785156 17.011719 L 8.785156 17.988281 L 8.75 17.988281 Z M 8.75 17.011719 "/>
<path style=" stroke:none;fill-rule:nonzero;fill:rgb(0%,0%,0%);fill-opacity:1;" d="M 10.378906 4.390625 C 10.375 2.511719 9.351562 0.871094 7.832031 0 L 7.832031 4.054688 L 5.3125 5.507812 L 2.792969 4.050781 L 2.792969 0 C 1.273438 0.871094 0.25 2.511719 0.25 4.390625 C 0.25 6.363281 1.378906 8.070312 3.027344 8.90625 L 3.027344 25.609375 C 3.027344 26.269531 3.292969 26.867188 3.722656 27.300781 C 4.15625 27.734375 4.753906 27.996094 5.414062 28 C 6.730469 28 7.800781 26.933594 7.804688 25.609375 L 7.792969 8.800781 C 9.335938 7.933594 10.375 6.28125 10.378906 4.390625 Z M 5.941406 26.667969 C 5.585938 27.023438 5.007812 27.023438 4.648438 26.667969 C 4.296875 26.3125 4.296875 25.734375 4.652344 25.378906 C 5.007812 25.023438 5.585938 25.023438 5.941406 25.375 C 6.296875 25.734375 6.296875 26.3125 5.941406 26.667969 Z M 5.941406 26.667969 "/>
</g>
</svg>
