<?xml version="1.0" encoding="UTF-8"?>
<svg xmlns="http://www.w3.org/2000/svg" xmlns:xlink="http://www.w3.org/1999/xlink" width="28pt" height="27pt" viewBox="0 0 28 27" version="1.1">
<g id="surface1">
<path style=" stroke:none;fill-rule:nonzero;fill:rgb(0%,0%,0%);fill-opacity:1;" d="M 24.195312 24.460938 L 24.195312 23.886719 C 24.195312 23.640625 24.042969 23.417969 23.816406 23.3125 C 23.664062 23.242188 20.253906 21.722656 14.664062 21.601562 L 14.664062 19.425781 C 15.066406 19.207031 15.335938 18.796875 15.335938 18.328125 L 15.335938 17.625 L 20.0625 17.625 C 20.066406 17.625 20.070312 17.625 20.074219 17.625 C 20.8125 17.625 21.410156 17.050781 21.410156 16.351562 C 21.410156 16.242188 21.390625 16.144531 21.367188 16.042969 C 22.53125 15.675781 23.140625 15.34375 23.195312 15.3125 C 23.402344 15.199219 23.523438 14.988281 23.523438 14.761719 L 23.523438 11.273438 L 24.15625 11.273438 C 24.527344 11.273438 24.824219 10.992188 24.824219 10.636719 C 24.824219 10.289062 24.527344 10 24.15625 10 L 21.5625 10 C 21.191406 10 20.894531 10.289062 20.894531 10.636719 C 20.894531 10.992188 21.191406 11.273438 21.5625 11.273438 L 22.195312 11.273438 L 22.195312 14.371094 C 21.867188 14.511719 21.300781 14.734375 20.5 14.960938 L 20.046875 14.527344 C 19.742188 14.238281 19.304688 14.105469 18.882812 14.175781 C 18.863281 14.179688 17.535156 14.382812 15.335938 14.453125 L 15.335938 13.339844 C 17.757812 13.191406 18.996094 12.691406 19.148438 12.628906 C 19.667969 12.402344 19.984375 11.882812 19.925781 11.339844 L 18.902344 1.636719 C 18.851562 1.171875 18.542969 0.769531 18.09375 0.585938 C 17.945312 0.527344 16.554688 0 14 0 C 11.445312 0 10.058594 0.527344 9.90625 0.585938 C 9.457031 0.769531 9.148438 1.171875 9.101562 1.636719 L 8.074219 11.34375 C 8.019531 11.882812 8.332031 12.40625 8.855469 12.628906 C 9.003906 12.695312 10.242188 13.195312 12.667969 13.34375 L 12.667969 14.457031 C 10.46875 14.386719 9.136719 14.179688 9.125 14.179688 C 8.695312 14.105469 8.261719 14.238281 7.957031 14.535156 L 7.507812 14.964844 C 6.703125 14.738281 6.132812 14.515625 5.804688 14.371094 L 5.804688 11.277344 L 6.4375 11.277344 C 6.808594 11.277344 7.105469 10.992188 7.105469 10.640625 C 7.105469 10.289062 6.808594 10.007812 6.4375 10.007812 L 3.84375 10.007812 C 3.472656 10.007812 3.175781 10.289062 3.175781 10.640625 C 3.175781 10.992188 3.472656 11.277344 3.84375 11.277344 L 4.476562 11.277344 L 4.476562 14.765625 C 4.476562 14.988281 4.597656 15.203125 4.804688 15.316406 C 4.863281 15.347656 5.472656 15.683594 6.652344 16.050781 C 6.585938 16.3125 6.59375 16.585938 6.707031 16.84375 C 6.914062 17.316406 7.402344 17.628906 7.9375 17.628906 L 12.667969 17.628906 L 12.667969 18.335938 C 12.667969 18.800781 12.9375 19.207031 13.335938 19.429688 L 13.335938 21.609375 C 7.746094 21.722656 4.335938 23.242188 4.1875 23.3125 C 3.957031 23.421875 3.808594 23.644531 3.808594 23.890625 L 3.808594 24.46875 C 3.429688 24.683594 3.175781 25.074219 3.175781 25.53125 C 3.175781 26.210938 3.757812 26.773438 4.476562 26.773438 C 5.195312 26.773438 5.773438 26.210938 5.773438 25.53125 C 5.773438 25.074219 5.519531 24.683594 5.140625 24.46875 L 5.140625 24.3125 C 6.144531 23.929688 9.078125 22.972656 13.335938 22.878906 L 13.335938 24.46875 C 12.957031 24.683594 12.703125 25.074219 12.703125 25.53125 C 12.703125 26.210938 13.285156 26.773438 14 26.773438 C 14.71875 26.773438 15.296875 26.210938 15.296875 25.53125 C 15.296875 25.074219 15.042969 24.683594 14.671875 24.46875 L 14.671875 22.878906 C 18.90625 22.976562 21.851562 23.929688 22.859375 24.3125 L 22.859375 24.46875 C 22.480469 24.683594 22.226562 25.074219 22.226562 25.53125 C 22.226562 26.210938 22.808594 26.773438 23.53125 26.773438 C 24.246094 26.773438 24.828125 26.210938 24.828125 25.53125 C 24.824219 25.070312 24.574219 24.679688 24.195312 24.460938 Z M 11.871094 3.683594 C 11.898438 3.667969 12.628906 3.382812 14 3.382812 C 15.371094 3.382812 16.101562 3.667969 16.128906 3.683594 C 16.300781 3.75 16.378906 3.9375 16.304688 4.101562 C 16.257812 4.21875 16.128906 4.292969 16 4.292969 C 15.953125 4.292969 15.914062 4.285156 15.867188 4.269531 C 15.863281 4.265625 15.226562 4.019531 14 4.019531 C 12.773438 4.019531 12.136719 4.265625 12.125 4.269531 C 11.957031 4.335938 11.761719 4.257812 11.695312 4.097656 C 11.621094 3.9375 11.703125 3.75 11.871094 3.683594 Z M 11.539062 5.613281 C 11.570312 5.601562 12.410156 5.273438 14 5.273438 C 15.59375 5.273438 16.429688 5.601562 16.464844 5.613281 C 16.632812 5.6875 16.710938 5.875 16.644531 6.03125 C 16.589844 6.15625 16.464844 6.226562 16.332031 6.226562 C 16.292969 6.226562 16.246094 6.21875 16.207031 6.207031 C 16.195312 6.199219 15.445312 5.910156 14 5.910156 C 12.558594 5.910156 11.804688 6.199219 11.792969 6.207031 C 11.625 6.269531 11.433594 6.195312 11.359375 6.03125 C 11.289062 5.867188 11.371094 5.683594 11.539062 5.613281 Z M 14 7.796875 C 12.339844 7.796875 11.46875 8.132812 11.460938 8.136719 C 11.292969 8.207031 11.097656 8.128906 11.027344 7.964844 C 10.957031 7.804688 11.039062 7.621094 11.207031 7.550781 C 11.242188 7.53125 12.191406 7.160156 14 7.160156 C 15.808594 7.160156 16.757812 7.53125 16.796875 7.550781 C 16.96875 7.621094 17.042969 7.804688 16.976562 7.964844 C 16.921875 8.085938 16.796875 8.160156 16.664062 8.160156 C 16.625 8.160156 16.578125 8.15625 16.539062 8.136719 C 16.53125 8.132812 15.664062 7.796875 14 7.796875 Z M 14 7.796875 "/>
</g>
</svg>
