<?xml version="1.0" encoding="UTF-8"?>
<svg xmlns="http://www.w3.org/2000/svg" xmlns:xlink="http://www.w3.org/1999/xlink" width="28pt" height="28pt" viewBox="0 0 28 28" version="1.1">
<g id="surface1">
<path style=" stroke:none;fill-rule:nonzero;fill:rgb(0%,0%,0%);fill-opacity:1;" d="M 24.40625 22.597656 C 24.058594 22.230469 23.480469 22.214844 23.113281 22.558594 C 22.484375 23.152344 21.804688 23.675781 21.089844 24.125 L 19.351562 17.289062 L 20.773438 17.289062 C 21.847656 17.289062 22.71875 16.421875 22.71875 15.34375 L 22.71875 15.277344 C 22.71875 14.625 22.398438 14.050781 21.90625 13.695312 L 22.652344 8.742188 C 22.691406 8.480469 22.613281 8.210938 22.441406 8.007812 C 22.265625 7.808594 22.011719 7.691406 21.746094 7.691406 L 9 7.691406 L 8.3125 1.289062 C 8.160156 0.441406 7.351562 -0.125 6.503906 0.0234375 L 6.449219 0.0351562 C 5.601562 0.183594 5.074219 0.941406 5.183594 1.84375 C 5.507812 4.476562 6.261719 11.753906 6.441406 13.496094 C 5.757812 13.796875 5.28125 14.480469 5.28125 15.277344 L 5.28125 15.34375 C 5.28125 16.417969 6.152344 17.289062 7.226562 17.289062 L 8.648438 17.289062 L 6.910156 24.125 C 6.195312 23.675781 5.515625 23.152344 4.886719 22.558594 C 4.519531 22.214844 3.941406 22.230469 3.597656 22.597656 C 3.25 22.96875 3.265625 23.546875 3.636719 23.890625 C 6.453125 26.539062 10.132812 28 14 28 C 17.867188 28 21.546875 26.539062 24.363281 23.890625 C 24.734375 23.546875 24.75 22.96875 24.40625 22.597656 Z M 20.683594 9.519531 L 20.113281 13.332031 L 9.609375 13.332031 C 9.605469 13.328125 9.605469 13.324219 9.605469 13.320312 L 9.195312 9.519531 Z M 8.570312 25.015625 L 10.535156 17.289062 L 17.464844 17.289062 L 19.429688 25.015625 C 17.738281 25.773438 15.894531 26.171875 14 26.171875 C 12.105469 26.171875 10.261719 25.773438 8.570312 25.015625 Z M 8.570312 25.015625 "/>
</g>
</svg>
