<?xml version="1.0" encoding="UTF-8"?>
<svg xmlns="http://www.w3.org/2000/svg" xmlns:xlink="http://www.w3.org/1999/xlink" width="28pt" height="28pt" viewBox="0 0 28 28" version="1.1">
<g id="surface1">
<path style=" stroke:none;fill-rule:nonzero;fill:rgb(0%,0%,0%);fill-opacity:1;" d="M 21.40625 17.105469 L 21.40625 13.667969 C 21.40625 12.949219 20.820312 12.363281 20.101562 12.363281 L 7.898438 12.363281 C 7.179688 12.363281 6.59375 12.949219 6.59375 13.667969 L 6.59375 17.105469 C 6.59375 17.828125 7.179688 18.414062 7.898438 18.414062 L 20.101562 18.414062 C 20.820312 18.414062 21.40625 17.828125 21.40625 17.105469 Z M 21.40625 17.105469 "/>
<path style=" stroke:none;fill-rule:nonzero;fill:rgb(0%,0%,0%);fill-opacity:1;" d="M 18.785156 11.203125 C 19.046875 8.5 19.523438 3.433594 19.609375 1.367188 C 19.625 1.027344 19.496094 0.699219 19.25 0.441406 C 18.984375 0.160156 18.605469 0 18.214844 0 L 9.828125 0 C 9.4375 0 9.0625 0.160156 8.792969 0.441406 C 8.546875 0.699219 8.417969 1.027344 8.433594 1.367188 C 8.523438 3.433594 8.996094 8.5 9.257812 11.203125 Z M 18.785156 11.203125 "/>
<path style=" stroke:none;fill-rule:nonzero;fill:rgb(0%,0%,0%);fill-opacity:1;" d="M 20.101562 19.574219 L 17.226562 19.574219 L 19.222656 27.558594 C 19.289062 27.820312 19.523438 28 19.785156 28 C 19.808594 28 19.832031 28 19.855469 27.996094 C 20.148438 27.960938 20.367188 27.710938 20.367188 27.417969 L 20.367188 19.558594 C 20.277344 19.570312 20.191406 19.574219 20.101562 19.574219 Z M 20.101562 19.574219 "/>
<path style=" stroke:none;fill-rule:nonzero;fill:rgb(0%,0%,0%);fill-opacity:1;" d="M 7.898438 19.574219 C 7.808594 19.574219 7.722656 19.570312 7.632812 19.558594 L 7.632812 27.417969 C 7.632812 27.710938 7.851562 27.960938 8.144531 27.996094 C 8.167969 28 8.191406 28 8.214844 28 C 8.476562 28 8.710938 27.820312 8.777344 27.558594 L 10.773438 19.574219 Z M 7.898438 19.574219 "/>
</g>
</svg>
