<?xml version="1.0" encoding="UTF-8"?>
<svg xmlns="http://www.w3.org/2000/svg" xmlns:xlink="http://www.w3.org/1999/xlink" width="28pt" height="28pt" viewBox="0 0 28 28" version="1.1">
<g id="surface1">
<path style=" stroke:none;fill-rule:nonzero;fill:rgb(0%,0%,0%);fill-opacity:1;" d="M 25.820312 19.832031 L 22.796875 18.085938 L 25.351562 16.5625 C 25.761719 16.367188 25.886719 15.816406 25.652344 15.410156 C 25.417969 14.996094 24.902344 14.90625 24.515625 15.132812 L 21.109375 17.128906 L 15.699219 13.980469 L 21.109375 10.863281 L 24.515625 12.855469 C 24.621094 12.933594 24.757812 12.980469 24.910156 12.980469 C 25.199219 12.980469 25.457031 12.84375 25.652344 12.582031 C 25.882812 12.171875 25.761719 11.625 25.351562 11.429688 L 22.796875 9.90625 L 25.820312 8.160156 C 26.214844 7.933594 26.351562 7.425781 26.125 7.007812 C 25.910156 6.605469 25.375 6.464844 24.96875 6.703125 L 21.929688 8.464844 L 21.886719 5.425781 C 21.878906 4.953125 21.519531 4.574219 21.050781 4.574219 C 20.578125 4.574219 20.210938 4.984375 20.214844 5.425781 L 20.242188 9.4375 L 14.863281 12.554688 L 14.863281 6.230469 L 18.253906 4.300781 C 18.648438 4.074219 18.820312 3.554688 18.585938 3.144531 C 18.351562 2.730469 17.863281 2.605469 17.445312 2.839844 L 14.863281 4.300781 L 14.863281 0.847656 C 14.863281 0.378906 14.484375 0 14.011719 0 C 13.542969 0 13.175781 0.378906 13.175781 0.847656 L 13.175781 4.332031 L 10.5 2.839844 C 10.085938 2.609375 9.609375 2.738281 9.378906 3.144531 C 9.140625 3.558594 9.289062 4.070312 9.695312 4.300781 L 13.175781 6.261719 L 13.175781 12.519531 L 7.675781 9.347656 L 7.707031 5.425781 C 7.75 4.984375 7.355469 4.574219 6.886719 4.574219 L 6.855469 4.574219 C 6.414062 4.574219 6.023438 4.953125 6.019531 5.425781 L 5.988281 8.375 L 3.023438 6.671875 C 2.609375 6.433594 2.101562 6.574219 1.886719 6.972656 C 1.660156 7.394531 1.777344 7.890625 2.1875 8.132812 L 5.183594 9.863281 L 2.570312 11.429688 C 2.160156 11.625 2.03125 12.175781 2.28125 12.582031 C 2.441406 12.84375 2.675781 12.980469 2.996094 12.980469 C 3.160156 12.980469 3.300781 12.9375 3.433594 12.855469 L 6.855469 10.835938 L 12.339844 13.980469 L 6.855469 17.15625 L 3.433594 15.132812 C 3.023438 14.894531 2.496094 15.007812 2.28125 15.410156 C 2.054688 15.828125 2.175781 16.332031 2.570312 16.5625 L 5.183594 18.113281 L 2.1875 19.863281 C 1.777344 20.101562 1.644531 20.609375 1.882812 21.019531 C 2.054688 21.304688 2.28125 21.445312 2.597656 21.445312 C 2.675781 21.445312 2.828125 21.398438 3.023438 21.320312 L 5.988281 19.617188 L 6.019531 22.570312 C 6.023438 23.039062 6.414062 23.402344 6.855469 23.402344 L 6.886719 23.402344 C 7.355469 23.402344 7.710938 23.011719 7.707031 22.535156 L 7.675781 18.617188 L 13.175781 15.472656 L 13.175781 21.699219 L 9.695312 23.660156 C 9.28125 23.894531 9.136719 24.402344 9.378906 24.816406 C 9.546875 25.105469 9.773438 25.242188 10.089844 25.242188 C 10.242188 25.242188 10.382812 25.21875 10.5 25.148438 L 13.175781 23.632812 L 13.175781 27.171875 C 13.175781 27.644531 13.542969 28.007812 14.011719 28.007812 C 14.484375 28.007812 14.863281 27.644531 14.863281 27.171875 L 14.863281 23.691406 L 17.445312 25.148438 C 17.566406 25.21875 17.707031 25.242188 17.84375 25.242188 C 18.175781 25.242188 18.421875 25.109375 18.585938 24.816406 C 18.816406 24.40625 18.667969 23.894531 18.253906 23.660156 L 14.863281 21.761719 L 14.863281 15.4375 L 20.242188 18.554688 L 20.214844 22.535156 C 20.210938 23.011719 20.578125 23.402344 21.050781 23.402344 C 21.519531 23.402344 21.878906 23.039062 21.886719 22.570312 L 21.929688 19.511719 L 24.96875 21.292969 C 25.085938 21.359375 25.242188 21.382812 25.410156 21.382812 C 25.730469 21.382812 25.964844 21.25 26.125 20.988281 C 26.375 20.582031 26.214844 20.058594 25.820312 19.832031 Z M 25.820312 19.832031 "/>
</g>
</svg>
