<?xml version="1.0" encoding="UTF-8"?>
<svg xmlns="http://www.w3.org/2000/svg" xmlns:xlink="http://www.w3.org/1999/xlink" width="28pt" height="28pt" viewBox="0 0 28 28" version="1.1">
<g id="surface1">
<path style=" stroke:none;fill-rule:nonzero;fill:rgb(0%,0%,0%);fill-opacity:1;" d="M 25.558594 6.417969 L 2.441406 6.417969 C 1.09375 6.417969 0 7.511719 0 8.859375 L 0 16.808594 C 0 18.117188 1.035156 19.191406 2.332031 19.246094 L 2.332031 21 C 2.332031 21.324219 2.59375 21.582031 2.917969 21.582031 L 6.417969 21.582031 C 6.738281 21.582031 7 21.324219 7 21 L 7 19.25 L 21 19.25 L 21 21 C 21 21.324219 21.261719 21.582031 21.582031 21.582031 L 25.082031 21.582031 C 25.40625 21.582031 25.667969 21.324219 25.667969 21 L 25.667969 19.246094 C 26.960938 19.191406 28 18.117188 28 16.808594 L 28 8.859375 C 28 7.511719 26.902344 6.417969 25.558594 6.417969 Z M 5.832031 20.417969 L 3.5 20.417969 L 3.5 19.25 L 5.832031 19.25 Z M 24.5 20.417969 L 22.167969 20.417969 L 22.167969 19.25 L 24.5 19.25 Z M 26.832031 16.808594 C 26.832031 17.511719 26.261719 18.085938 25.558594 18.085938 L 25.105469 18.085938 C 25.097656 18.085938 25.089844 18.082031 25.082031 18.082031 L 21.582031 18.082031 C 21.574219 18.082031 21.566406 18.085938 21.558594 18.085938 L 6.441406 18.085938 C 6.433594 18.085938 6.425781 18.082031 6.417969 18.082031 L 2.917969 18.082031 C 2.910156 18.082031 2.902344 18.085938 2.894531 18.085938 L 2.441406 18.085938 C 1.738281 18.085938 1.167969 17.511719 1.167969 16.808594 L 1.167969 8.859375 C 1.167969 8.15625 1.738281 7.582031 2.441406 7.582031 L 25.558594 7.582031 C 26.261719 7.582031 26.832031 8.15625 26.832031 8.859375 Z M 26.832031 16.808594 "/>
<path style=" stroke:none;fill-rule:nonzero;fill:rgb(0%,0%,0%);fill-opacity:1;" d="M 21.582031 8.167969 C 19.332031 8.167969 17.5 10 17.5 12.25 C 17.5 14.5 19.332031 16.332031 21.582031 16.332031 C 23.835938 16.332031 25.667969 14.5 25.667969 12.25 C 25.667969 10 23.835938 8.167969 21.582031 8.167969 Z M 21.582031 15.167969 C 19.972656 15.167969 18.667969 13.859375 18.667969 12.25 C 18.667969 10.640625 19.972656 9.332031 21.582031 9.332031 C 23.191406 9.332031 24.5 10.640625 24.5 12.25 C 24.5 13.859375 23.191406 15.167969 21.582031 15.167969 Z M 21.582031 15.167969 "/>
<path style=" stroke:none;fill-rule:nonzero;fill:rgb(0%,0%,0%);fill-opacity:1;" d="M 21.898438 9.917969 C 21.574219 9.917969 21.3125 10.175781 21.3125 10.5 C 21.3125 10.824219 21.574219 11.082031 21.898438 11.082031 C 22.21875 11.082031 22.480469 11.34375 22.480469 11.667969 C 22.480469 11.988281 22.742188 12.25 23.0625 12.25 C 23.386719 12.25 23.648438 11.988281 23.648438 11.667969 C 23.648438 10.703125 22.863281 9.917969 21.898438 9.917969 Z M 21.898438 9.917969 "/>
<path style=" stroke:none;fill-rule:nonzero;fill:rgb(0%,0%,0%);fill-opacity:1;" d="M 4.082031 8.75 C 3.761719 8.75 3.5 9.011719 3.5 9.332031 L 3.5 15.167969 C 3.5 15.488281 3.761719 15.75 4.082031 15.75 C 4.40625 15.75 4.667969 15.488281 4.667969 15.167969 L 4.667969 9.332031 C 4.667969 9.011719 4.40625 8.75 4.082031 8.75 Z M 4.082031 8.75 "/>
<path style=" stroke:none;fill-rule:nonzero;fill:rgb(0%,0%,0%);fill-opacity:1;" d="M 6.417969 8.75 C 6.09375 8.75 5.832031 9.011719 5.832031 9.332031 L 5.832031 15.167969 C 5.832031 15.488281 6.09375 15.75 6.417969 15.75 C 6.738281 15.75 7 15.488281 7 15.167969 L 7 9.332031 C 7 9.011719 6.738281 8.75 6.417969 8.75 Z M 6.417969 8.75 "/>
<path style=" stroke:none;fill-rule:nonzero;fill:rgb(0%,0%,0%);fill-opacity:1;" d="M 8.75 8.75 C 8.425781 8.75 8.167969 9.011719 8.167969 9.332031 L 8.167969 15.167969 C 8.167969 15.488281 8.425781 15.75 8.75 15.75 C 9.070312 15.75 9.332031 15.488281 9.332031 15.167969 L 9.332031 9.332031 C 9.332031 9.011719 9.074219 8.75 8.75 8.75 Z M 8.75 8.75 "/>
</g>
</svg>
