<?xml version="1.0" encoding="UTF-8"?>
<svg xmlns="http://www.w3.org/2000/svg" xmlns:xlink="http://www.w3.org/1999/xlink" width="28pt" height="28pt" viewBox="0 0 28 28" version="1.1">
<g id="surface1">
<path style=" stroke:none;fill-rule:nonzero;fill:rgb(0%,0%,0%);fill-opacity:1;" d="M 25.953125 23.925781 L 25.953125 0 L 2.046875 0 L 2.046875 23.925781 L 0 23.925781 L 0 28 L 28 28 L 28 23.925781 Z M 3.707031 1.664062 L 24.292969 1.664062 L 24.292969 23.925781 L 3.707031 23.925781 Z M 26.335938 26.335938 L 1.664062 26.335938 L 1.664062 25.589844 L 26.335938 25.589844 Z M 26.335938 26.335938 "/>
<path style=" stroke:none;fill-rule:nonzero;fill:rgb(0%,0%,0%);fill-opacity:1;" d="M 16.273438 2.496094 L 4.539062 2.496094 L 4.539062 23.09375 L 23.460938 23.09375 L 23.460938 2.496094 Z M 6.203125 4.160156 L 7.300781 4.160156 L 7.300781 12.558594 L 8.964844 12.558594 L 8.964844 4.160156 L 10.0625 4.160156 L 10.0625 12.46875 C 10.0625 14.773438 8.394531 16.691406 6.203125 17.085938 Z M 13.167969 21.429688 L 6.203125 21.429688 L 6.203125 18.769531 C 9.316406 18.359375 11.726562 15.691406 11.726562 12.46875 L 11.726562 4.160156 L 13.167969 4.160156 Z M 21.796875 21.429688 L 14.832031 21.429688 L 14.832031 4.160156 L 16.273438 4.160156 L 16.273438 12.46875 C 16.273438 15.691406 18.683594 18.359375 21.796875 18.769531 Z M 21.796875 17.085938 C 19.605469 16.691406 17.9375 14.773438 17.9375 12.46875 L 17.9375 4.160156 L 19.035156 4.160156 L 19.035156 12.558594 L 20.699219 12.558594 L 20.699219 4.160156 L 21.796875 4.160156 Z M 21.796875 17.085938 "/>
</g>
</svg>
