<?xml version="1.0" encoding="UTF-8"?>
<svg xmlns="http://www.w3.org/2000/svg" xmlns:xlink="http://www.w3.org/1999/xlink" width="28pt" height="28pt" viewBox="0 0 28 28" version="1.1">
<g id="surface1">
<path style=" stroke:none;fill-rule:nonzero;fill:rgb(0%,0%,0%);fill-opacity:1;" d="M 22.539062 4.386719 C 22.449219 4.269531 22.3125 4.199219 22.167969 4.199219 L 9.101562 4.199219 C 8.953125 4.199219 8.816406 4.269531 8.726562 4.386719 C 8.640625 4.503906 8.609375 4.652344 8.652344 4.796875 L 9.5625 7.980469 L 9.101562 13.964844 C 9.085938 14.136719 9.082031 14.3125 9.082031 14.484375 C 9.09375 18.082031 12.019531 21 15.613281 21 C 15.621094 21 15.628906 21 15.632812 21 C 15.8125 21 15.980469 20.992188 16.152344 20.980469 C 19.746094 20.703125 22.441406 17.554688 22.164062 13.964844 L 21.703125 7.980469 L 22.617188 4.796875 C 22.65625 4.652344 22.628906 4.503906 22.539062 4.386719 Z M 20.769531 7.96875 L 21.234375 14.035156 C 21.472656 17.113281 19.160156 19.8125 16.082031 20.050781 C 15.933594 20.0625 15.789062 20.070312 15.636719 20.066406 C 15.628906 20.066406 15.621094 20.066406 15.617188 20.066406 C 12.535156 20.066406 10.023438 17.566406 10.015625 14.484375 C 10.015625 14.335938 10.019531 14.183594 10.03125 14.035156 L 10.5 7.96875 C 10.503906 7.914062 10.496094 7.859375 10.480469 7.804688 L 9.71875 5.132812 L 21.546875 5.132812 L 20.785156 7.804688 C 20.769531 7.859375 20.765625 7.914062 20.769531 7.96875 Z M 20.769531 7.96875 "/>
<path style=" stroke:none;fill-rule:nonzero;fill:rgb(0%,0%,0%);fill-opacity:1;" d="M 14.234375 20.535156 L 15.167969 20.535156 L 15.167969 25.667969 L 14.234375 25.667969 Z M 14.234375 20.535156 "/>
<path style=" stroke:none;fill-rule:nonzero;fill:rgb(0%,0%,0%);fill-opacity:1;" d="M 18.898438 25.199219 L 12.367188 25.199219 C 11.078125 25.199219 10.035156 26.246094 10.035156 27.535156 C 10.035156 27.792969 10.242188 28 10.5 28 L 20.765625 28 C 21.023438 28 21.234375 27.792969 21.234375 27.535156 C 21.234375 26.246094 20.1875 25.199219 18.898438 25.199219 Z M 11.046875 27.066406 C 11.238281 26.523438 11.757812 26.132812 12.367188 26.132812 L 18.898438 26.132812 C 19.507812 26.132812 20.027344 26.523438 20.21875 27.066406 Z M 11.046875 27.066406 "/>
<path style=" stroke:none;fill-rule:nonzero;fill:rgb(0%,0%,0%);fill-opacity:1;" d="M 16.101562 20.535156 L 17.035156 20.535156 L 17.035156 25.667969 L 16.101562 25.667969 Z M 16.101562 20.535156 "/>
<path style=" stroke:none;fill-rule:nonzero;fill:rgb(0%,0%,0%);fill-opacity:1;" d="M 13.5 0.292969 C 13.429688 0.117188 13.257812 0 13.066406 0 L 5.832031 0 C 5.574219 0 5.367188 0.210938 5.367188 0.464844 L 5.367188 7.464844 C 5.367188 7.652344 5.480469 7.824219 5.652344 7.894531 C 5.710938 7.921875 5.773438 7.933594 5.832031 7.933594 C 5.953125 7.933594 6.070312 7.886719 6.15625 7.800781 L 13.390625 0.800781 C 13.527344 0.667969 13.570312 0.46875 13.5 0.292969 Z M 6.300781 6.367188 L 6.300781 0.933594 L 11.914062 0.933594 Z M 6.300781 6.367188 "/>
<path style=" stroke:none;fill-rule:nonzero;fill:rgb(0%,0%,0%);fill-opacity:1;" d="M 9.234375 4.296875 L 9.894531 3.636719 L 14.328125 8.070312 L 13.667969 8.730469 Z M 9.234375 4.296875 "/>
<path style=" stroke:none;fill-rule:nonzero;fill:rgb(0%,0%,0%);fill-opacity:1;" d="M 10.035156 7.933594 L 21.234375 7.933594 L 21.234375 8.867188 L 10.035156 8.867188 Z M 10.035156 7.933594 "/>
<path style=" stroke:none;fill-rule:nonzero;fill:rgb(0%,0%,0%);fill-opacity:1;" d="M 5.410156 0.660156 L 6.257812 0.273438 L 8.589844 5.40625 L 7.742188 5.792969 Z M 5.410156 0.660156 "/>
<path style=" stroke:none;fill-rule:nonzero;fill:rgb(0%,0%,0%);fill-opacity:1;" d="M 6.125 1.367188 L 6.472656 0.5 L 11.140625 2.367188 L 10.792969 3.234375 Z M 6.125 1.367188 "/>
<path style=" stroke:none;fill-rule:nonzero;fill:rgb(0%,0%,0%);fill-opacity:1;" d="M 18.78125 10.890625 C 18.695312 10.792969 18.574219 10.738281 18.445312 10.734375 C 18.304688 10.726562 18.191406 10.78125 18.101562 10.871094 L 12.503906 16.46875 C 12.414062 16.5625 12.363281 16.683594 12.367188 16.8125 C 12.371094 16.941406 12.425781 17.0625 12.523438 17.148438 C 13.410156 17.941406 14.519531 18.335938 15.632812 18.335938 C 16.746094 18.335938 17.859375 17.941406 18.742188 17.148438 C 18.757812 17.136719 18.769531 17.125 18.78125 17.109375 C 20.367188 15.339844 20.367188 12.664062 18.78125 10.890625 Z M 18.101562 16.46875 C 16.808594 17.609375 14.925781 17.707031 13.535156 16.757812 L 18.390625 11.902344 C 19.339844 13.292969 19.242188 15.175781 18.101562 16.46875 Z M 18.101562 16.46875 "/>
<path style=" stroke:none;fill-rule:nonzero;fill:rgb(0%,0%,0%);fill-opacity:1;" d="M 19.480469 14.480469 L 15.746094 13.546875 C 15.589844 13.507812 15.417969 13.554688 15.304688 13.671875 C 15.1875 13.785156 15.140625 13.953125 15.179688 14.113281 L 16.113281 17.847656 L 17.019531 17.621094 L 16.273438 14.640625 L 19.253906 15.386719 Z M 19.480469 14.480469 "/>
<path style=" stroke:none;fill-rule:nonzero;fill:rgb(0%,0%,0%);fill-opacity:1;" d="M 11.433594 13.066406 L 12.367188 13.066406 L 12.367188 14 L 11.433594 14 Z M 11.433594 13.066406 "/>
<path style=" stroke:none;fill-rule:nonzero;fill:rgb(0%,0%,0%);fill-opacity:1;" d="M 12.832031 11.199219 L 13.765625 11.199219 L 13.765625 12.132812 L 12.832031 12.132812 Z M 12.832031 11.199219 "/>
<path style=" stroke:none;fill-rule:nonzero;fill:rgb(0%,0%,0%);fill-opacity:1;" d="M 19.832031 0 L 20.765625 0 L 20.765625 2.800781 L 19.832031 2.800781 Z M 19.832031 0 "/>
<path style=" stroke:none;fill-rule:nonzero;fill:rgb(0%,0%,0%);fill-opacity:1;" d="M 18.898438 0.933594 L 21.699219 0.933594 L 21.699219 1.867188 L 18.898438 1.867188 Z M 18.898438 0.933594 "/>
<path style=" stroke:none;fill-rule:nonzero;fill:rgb(0%,0%,0%);fill-opacity:1;" d="M 16.566406 1.867188 L 17.5 1.867188 L 17.5 2.800781 L 16.566406 2.800781 Z M 16.566406 1.867188 "/>
</g>
</svg>
