<?xml version="1.0" encoding="UTF-8"?>
<svg xmlns="http://www.w3.org/2000/svg" xmlns:xlink="http://www.w3.org/1999/xlink" width="28pt" height="28pt" viewBox="0 0 28 28" version="1.1">
<g id="surface1">
<path style=" stroke:none;fill-rule:nonzero;fill:rgb(0%,0%,0%);fill-opacity:1;" d="M 0.03125 17.933594 C 0.0898438 18.75 0.242188 19.5625 0.476562 20.34375 C 0.714844 21.117188 1.035156 21.867188 1.429688 22.566406 C 1.828125 23.273438 2.300781 23.933594 2.84375 24.53125 C 3.390625 25.136719 4.003906 25.683594 4.671875 26.152344 C 5.140625 26.480469 5.6875 26.648438 6.253906 26.640625 C 6.710938 26.636719 7.164062 26.511719 7.558594 26.28125 C 7.960938 26.046875 8.296875 25.710938 8.53125 25.308594 L 11.082031 20.929688 C 11.363281 20.449219 11.484375 19.90625 11.4375 19.355469 C 11.394531 18.8125 11.1875 18.304688 10.84375 17.878906 C 10.601562 17.585938 10.386719 17.160156 10.261719 16.855469 C 10.125 16.371094 9.839844 15.933594 9.453125 15.609375 C 9.011719 15.25 8.457031 15.050781 7.890625 15.054688 L 2.703125 15.054688 C 2.691406 15.054688 2.679688 15.054688 2.667969 15.054688 C 1.933594 15.066406 1.226562 15.382812 0.726562 15.925781 C 0.230469 16.46875 -0.0234375 17.199219 0.03125 17.933594 Z M 2.695312 17.03125 C 2.699219 17.03125 2.703125 17.03125 2.703125 17.03125 L 7.894531 17.027344 C 8.121094 17.027344 8.316406 17.191406 8.363281 17.414062 C 8.371094 17.445312 8.382812 17.476562 8.394531 17.507812 C 8.480469 17.730469 8.804688 18.507812 9.308594 19.128906 C 9.496094 19.359375 9.523438 19.675781 9.375 19.933594 L 6.824219 24.3125 C 6.691406 24.539062 6.464844 24.664062 6.226562 24.667969 C 6.085938 24.667969 5.9375 24.625 5.808594 24.535156 C 3.597656 22.980469 2.199219 20.503906 2 17.789062 C 1.972656 17.382812 2.289062 17.039062 2.695312 17.03125 Z M 2.695312 17.03125 "/>
<path style=" stroke:none;fill-rule:nonzero;fill:rgb(0%,0%,0%);fill-opacity:1;" d="M 6.21875 26.664062 C 5.660156 26.664062 5.121094 26.496094 4.660156 26.171875 C 3.992188 25.699219 3.375 25.152344 2.824219 24.546875 C 2.285156 23.945312 1.808594 23.285156 1.410156 22.578125 C 1.011719 21.875 0.691406 21.125 0.457031 20.351562 C 0.21875 19.566406 0.0664062 18.753906 0.0078125 17.9375 C -0.046875 17.195312 0.210938 16.457031 0.710938 15.910156 C 1.210938 15.363281 1.925781 15.042969 2.667969 15.035156 C 2.679688 15.03125 2.691406 15.03125 2.703125 15.03125 L 7.890625 15.03125 C 8.464844 15.03125 9.023438 15.230469 9.464844 15.59375 C 9.855469 15.914062 10.148438 16.359375 10.28125 16.847656 C 10.40625 17.148438 10.625 17.578125 10.859375 17.867188 C 11.207031 18.292969 11.414062 18.808594 11.460938 19.355469 C 11.507812 19.910156 11.382812 20.457031 11.101562 20.941406 L 8.550781 25.320312 C 8.3125 25.726562 7.976562 26.066406 7.570312 26.300781 C 7.171875 26.53125 6.714844 26.660156 6.253906 26.664062 C 6.242188 26.664062 6.230469 26.664062 6.21875 26.664062 Z M 7.894531 15.074219 L 2.703125 15.078125 C 2.691406 15.078125 2.679688 15.078125 2.667969 15.078125 C 1.9375 15.089844 1.238281 15.402344 0.746094 15.941406 C 0.25 16.480469 0 17.203125 0.0546875 17.933594 C 0.113281 18.746094 0.261719 19.554688 0.5 20.335938 C 0.734375 21.109375 1.054688 21.855469 1.449219 22.558594 C 1.847656 23.257812 2.320312 23.917969 2.859375 24.515625 C 3.40625 25.121094 4.019531 25.664062 4.6875 26.132812 C 5.148438 26.457031 5.691406 26.628906 6.253906 26.621094 C 6.707031 26.613281 7.15625 26.488281 7.546875 26.261719 C 7.945312 26.027344 8.277344 25.695312 8.511719 25.296875 L 11.0625 20.917969 C 11.339844 20.445312 11.460938 19.90625 11.414062 19.359375 C 11.371094 18.820312 11.167969 18.316406 10.824219 17.894531 C 10.585938 17.601562 10.367188 17.167969 10.238281 16.863281 C 10.105469 16.382812 9.820312 15.945312 9.4375 15.628906 C 9.003906 15.273438 8.453125 15.074219 7.894531 15.074219 Z M 6.21875 24.691406 C 6.070312 24.691406 5.921875 24.644531 5.796875 24.554688 C 3.570312 22.988281 2.179688 20.523438 1.976562 17.789062 C 1.964844 17.589844 2.03125 17.394531 2.167969 17.246094 C 2.304688 17.097656 2.492188 17.011719 2.695312 17.007812 L 7.894531 17.007812 C 8.128906 17.007812 8.335938 17.175781 8.386719 17.410156 C 8.390625 17.4375 8.402344 17.464844 8.414062 17.5 C 8.503906 17.722656 8.824219 18.496094 9.328125 19.113281 C 9.519531 19.351562 9.546875 19.683594 9.394531 19.945312 L 6.84375 24.324219 C 6.710938 24.550781 6.480469 24.6875 6.226562 24.691406 Z M 2.695312 17.054688 C 2.503906 17.058594 2.328125 17.136719 2.203125 17.277344 C 2.074219 17.417969 2.011719 17.597656 2.023438 17.789062 C 2.222656 20.507812 3.609375 22.957031 5.824219 24.515625 C 5.941406 24.597656 6.078125 24.644531 6.21875 24.644531 L 6.226562 24.644531 C 6.464844 24.640625 6.679688 24.511719 6.804688 24.300781 L 9.355469 19.921875 C 9.5 19.675781 9.472656 19.363281 9.292969 19.144531 C 8.785156 18.519531 8.460938 17.742188 8.371094 17.515625 C 8.355469 17.480469 8.347656 17.449219 8.339844 17.417969 C 8.296875 17.207031 8.109375 17.050781 7.894531 17.050781 Z M 2.695312 17.054688 "/>
<path style=" stroke:none;fill-rule:nonzero;fill:rgb(0%,0%,0%);fill-opacity:1;" d="M 27.265625 15.925781 C 26.769531 15.382812 26.0625 15.066406 25.324219 15.054688 C 25.3125 15.054688 25.300781 15.054688 25.289062 15.054688 L 20.101562 15.054688 C 19.535156 15.054688 18.980469 15.25 18.542969 15.613281 C 18.152344 15.933594 17.871094 16.371094 17.734375 16.855469 C 17.609375 17.160156 17.390625 17.585938 17.152344 17.878906 C 16.808594 18.304688 16.601562 18.8125 16.554688 19.355469 C 16.511719 19.90625 16.632812 20.453125 16.910156 20.929688 L 19.464844 25.308594 C 19.699219 25.710938 20.035156 26.046875 20.433594 26.28125 C 20.832031 26.511719 21.28125 26.636719 21.738281 26.644531 C 22.308594 26.648438 22.855469 26.480469 23.320312 26.152344 C 23.988281 25.683594 24.605469 25.136719 25.152344 24.53125 C 25.691406 23.933594 26.167969 23.273438 26.5625 22.570312 C 26.960938 21.867188 27.28125 21.117188 27.515625 20.34375 C 27.753906 19.5625 27.902344 18.75 27.964844 17.933594 C 28.019531 17.199219 27.765625 16.46875 27.265625 15.925781 Z M 25.992188 17.789062 C 25.792969 20.503906 24.394531 22.980469 22.183594 24.535156 C 22.054688 24.625 21.910156 24.667969 21.765625 24.667969 C 21.53125 24.664062 21.304688 24.539062 21.171875 24.3125 L 18.617188 19.933594 C 18.46875 19.675781 18.496094 19.359375 18.683594 19.128906 C 19.1875 18.507812 19.511719 17.730469 19.601562 17.507812 C 19.613281 17.476562 19.625 17.445312 19.628906 17.414062 C 19.679688 17.191406 19.871094 17.027344 20.101562 17.027344 L 25.289062 17.03125 C 25.292969 17.03125 25.296875 17.03125 25.300781 17.03125 C 25.703125 17.039062 26.023438 17.382812 25.992188 17.789062 Z M 25.992188 17.789062 "/>
<path style=" stroke:none;fill-rule:nonzero;fill:rgb(0%,0%,0%);fill-opacity:1;" d="M 21.777344 26.664062 C 21.765625 26.664062 21.753906 26.664062 21.738281 26.664062 C 21.277344 26.660156 20.824219 26.53125 20.421875 26.300781 C 20.019531 26.066406 19.679688 25.726562 19.445312 25.320312 L 16.890625 20.941406 C 16.609375 20.457031 16.488281 19.910156 16.53125 19.355469 C 16.578125 18.808594 16.785156 18.292969 17.132812 17.867188 C 17.371094 17.578125 17.585938 17.148438 17.710938 16.847656 C 17.847656 16.359375 18.136719 15.914062 18.527344 15.59375 C 18.96875 15.230469 19.527344 15.03125 20.101562 15.03125 L 25.324219 15.035156 C 26.066406 15.042969 26.78125 15.363281 27.285156 15.910156 C 27.785156 16.457031 28.042969 17.195312 27.988281 17.9375 C 27.925781 18.753906 27.777344 19.566406 27.539062 20.351562 C 27.300781 21.125 26.980469 21.875 26.585938 22.578125 C 26.1875 23.285156 25.710938 23.945312 25.167969 24.546875 C 24.621094 25.152344 24.003906 25.699219 23.335938 26.171875 C 22.875 26.496094 22.335938 26.664062 21.777344 26.664062 Z M 20.101562 15.074219 C 19.539062 15.074219 18.992188 15.273438 18.558594 15.628906 C 18.175781 15.945312 17.890625 16.382812 17.757812 16.859375 C 17.628906 17.167969 17.410156 17.601562 17.167969 17.894531 C 16.828125 18.316406 16.625 18.820312 16.578125 19.359375 C 16.535156 19.90625 16.65625 20.445312 16.929688 20.917969 L 19.484375 25.296875 C 19.71875 25.695312 20.050781 26.027344 20.445312 26.261719 C 20.839844 26.488281 21.285156 26.613281 21.742188 26.621094 C 22.300781 26.628906 22.84375 26.457031 23.308594 26.132812 C 23.972656 25.664062 24.589844 25.121094 25.132812 24.515625 C 25.675781 23.917969 26.148438 23.257812 26.542969 22.558594 C 26.941406 21.855469 27.257812 21.109375 27.492188 20.335938 C 27.730469 19.558594 27.882812 18.746094 27.941406 17.933594 C 27.996094 17.203125 27.742188 16.480469 27.25 15.941406 C 26.757812 15.402344 26.054688 15.089844 25.324219 15.078125 L 25.289062 15.078125 Z M 21.777344 24.691406 L 21.765625 24.691406 C 21.511719 24.6875 21.28125 24.550781 21.152344 24.324219 L 18.597656 19.945312 C 18.445312 19.683594 18.472656 19.351562 18.667969 19.113281 C 19.167969 18.496094 19.492188 17.722656 19.578125 17.5 C 19.59375 17.464844 19.601562 17.4375 19.609375 17.410156 C 19.65625 17.175781 19.863281 17.007812 20.101562 17.007812 L 25.300781 17.007812 C 25.503906 17.011719 25.691406 17.097656 25.828125 17.246094 C 25.964844 17.394531 26.03125 17.589844 26.015625 17.789062 C 25.816406 20.523438 24.421875 22.988281 22.199219 24.554688 C 22.070312 24.644531 21.925781 24.691406 21.777344 24.691406 Z M 20.101562 17.027344 L 20.101562 17.050781 C 19.886719 17.050781 19.699219 17.207031 19.652344 17.417969 C 19.648438 17.449219 19.636719 17.480469 19.621094 17.515625 C 19.535156 17.742188 19.207031 18.519531 18.703125 19.144531 C 18.523438 19.363281 18.496094 19.675781 18.636719 19.921875 L 21.191406 24.300781 C 21.3125 24.511719 21.53125 24.640625 21.765625 24.644531 L 21.777344 24.644531 C 21.914062 24.644531 22.054688 24.597656 22.171875 24.515625 C 24.386719 22.957031 25.769531 20.507812 25.96875 17.789062 C 25.984375 17.597656 25.921875 17.417969 25.792969 17.277344 C 25.664062 17.136719 25.488281 17.058594 25.296875 17.054688 L 25.292969 17.054688 L 20.101562 17.050781 Z M 20.101562 17.027344 "/>
<path style=" stroke:none;fill-rule:nonzero;fill:rgb(0%,0%,0%);fill-opacity:1;" d="M 19.894531 6.269531 C 20.273438 5.632812 20.367188 4.855469 20.15625 4.144531 C 19.945312 3.433594 19.445312 2.835938 18.777344 2.503906 C 18.011719 2.125 17.203125 1.832031 16.371094 1.640625 C 15.546875 1.449219 14.703125 1.351562 13.859375 1.351562 C 13.085938 1.351562 12.3125 1.433594 11.5625 1.59375 C 10.800781 1.753906 10.054688 2 9.34375 2.320312 C 8.65625 2.628906 8.128906 3.214844 7.898438 3.921875 C 7.664062 4.628906 7.738281 5.414062 8.105469 6.070312 L 10.578125 10.496094 C 11.050781 11.34375 11.949219 11.871094 12.921875 11.871094 C 13.054688 11.871094 13.191406 11.859375 13.324219 11.839844 C 13.457031 11.820312 13.613281 11.808594 13.789062 11.808594 C 14.09375 11.808594 14.363281 11.84375 14.503906 11.863281 C 14.710938 11.917969 14.925781 11.945312 15.144531 11.945312 C 15.5625 11.945312 15.976562 11.839844 16.34375 11.632812 C 16.722656 11.421875 17.039062 11.113281 17.257812 10.738281 Z M 15.558594 9.734375 C 15.46875 9.886719 15.308594 9.96875 15.144531 9.96875 C 15.089844 9.96875 15.039062 9.960938 14.988281 9.945312 C 14.957031 9.933594 14.921875 9.925781 14.890625 9.921875 C 14.730469 9.894531 14.296875 9.835938 13.789062 9.835938 C 13.546875 9.835938 13.285156 9.847656 13.03125 9.886719 C 12.992188 9.890625 12.957031 9.894531 12.921875 9.894531 C 12.667969 9.894531 12.429688 9.761719 12.300781 9.535156 L 9.832031 5.109375 C 9.625 4.742188 9.773438 4.296875 10.15625 4.121094 C 11.332031 3.589844 12.59375 3.328125 13.859375 3.328125 C 15.242188 3.328125 16.625 3.644531 17.902344 4.277344 C 18.269531 4.457031 18.402344 4.914062 18.195312 5.265625 Z M 15.558594 9.734375 "/>
<path style=" stroke:none;fill-rule:nonzero;fill:rgb(0%,0%,0%);fill-opacity:1;" d="M 15.144531 11.96875 C 14.925781 11.96875 14.707031 11.941406 14.496094 11.882812 C 14.363281 11.867188 14.09375 11.832031 13.789062 11.832031 C 13.613281 11.832031 13.460938 11.84375 13.328125 11.863281 C 13.191406 11.882812 13.058594 11.894531 12.921875 11.894531 C 11.941406 11.894531 11.035156 11.363281 10.558594 10.507812 L 8.085938 6.082031 C 7.714844 5.417969 7.640625 4.628906 7.875 3.914062 C 8.109375 3.199219 8.640625 2.613281 9.332031 2.300781 C 10.042969 1.980469 10.792969 1.734375 11.558594 1.570312 C 13.136719 1.234375 14.796875 1.25 16.375 1.617188 C 17.207031 1.8125 18.019531 2.101562 18.789062 2.484375 C 19.460938 2.816406 19.964844 3.417969 20.179688 4.136719 C 20.394531 4.855469 20.296875 5.636719 19.917969 6.28125 L 17.277344 10.75 C 17.054688 11.128906 16.738281 11.441406 16.355469 11.652344 C 15.984375 11.859375 15.566406 11.96875 15.144531 11.96875 Z M 13.789062 11.789062 C 14.097656 11.789062 14.371094 11.820312 14.507812 11.839844 C 15.121094 12.003906 15.78125 11.921875 16.332031 11.613281 C 16.707031 11.402344 17.019531 11.097656 17.238281 10.726562 L 19.875 6.257812 C 20.25 5.625 20.34375 4.855469 20.136719 4.148438 C 19.925781 3.445312 19.425781 2.851562 18.769531 2.527344 C 18.003906 2.144531 17.195312 1.855469 16.363281 1.660156 C 14.792969 1.296875 13.136719 1.277344 11.566406 1.613281 C 10.804688 1.777344 10.0625 2.023438 9.351562 2.34375 C 8.671875 2.648438 8.148438 3.226562 7.917969 3.929688 C 7.6875 4.632812 7.761719 5.410156 8.125 6.0625 L 10.597656 10.484375 C 11.066406 11.324219 11.957031 11.847656 12.921875 11.847656 C 13.054688 11.847656 13.1875 11.835938 13.320312 11.816406 C 13.457031 11.796875 13.613281 11.789062 13.789062 11.789062 Z M 15.144531 9.992188 C 15.085938 9.992188 15.03125 9.984375 14.980469 9.964844 C 14.953125 9.957031 14.921875 9.949219 14.886719 9.945312 C 14.726562 9.917969 14.292969 9.855469 13.789062 9.855469 L 13.789062 9.835938 L 13.789062 9.855469 C 13.515625 9.855469 13.261719 9.875 13.03125 9.910156 C 12.996094 9.914062 12.957031 9.917969 12.921875 9.917969 C 12.65625 9.917969 12.410156 9.773438 12.28125 9.546875 L 9.8125 5.121094 C 9.710938 4.9375 9.6875 4.726562 9.75 4.535156 C 9.816406 4.339844 9.957031 4.1875 10.148438 4.101562 C 11.320312 3.570312 12.566406 3.304688 13.859375 3.304688 C 15.253906 3.304688 16.65625 3.632812 17.910156 4.253906 C 18.09375 4.34375 18.226562 4.503906 18.285156 4.699219 C 18.34375 4.894531 18.316406 5.105469 18.214844 5.277344 L 15.578125 9.746094 C 15.488281 9.898438 15.320312 9.992188 15.144531 9.992188 Z M 13.789062 9.8125 C 14.296875 9.8125 14.730469 9.871094 14.894531 9.898438 C 14.933594 9.90625 14.964844 9.914062 14.996094 9.921875 C 15.042969 9.9375 15.09375 9.945312 15.144531 9.945312 C 15.304688 9.945312 15.457031 9.859375 15.539062 9.722656 L 18.175781 5.253906 C 18.273438 5.089844 18.296875 4.898438 18.242188 4.710938 C 18.1875 4.527344 18.0625 4.382812 17.890625 4.296875 C 16.640625 3.675781 15.246094 3.347656 13.859375 3.347656 C 12.574219 3.347656 11.332031 3.617188 10.164062 4.144531 C 9.988281 4.222656 9.855469 4.367188 9.796875 4.546875 C 9.734375 4.730469 9.753906 4.925781 9.851562 5.097656 L 12.324219 9.523438 C 12.441406 9.738281 12.671875 9.871094 12.921875 9.871094 C 12.957031 9.871094 12.992188 9.871094 13.027344 9.863281 C 13.257812 9.828125 13.515625 9.8125 13.789062 9.8125 Z M 13.789062 9.8125 "/>
<path style=" stroke:none;fill-rule:nonzero;fill:rgb(0%,0%,0%);fill-opacity:1;" d="M 13.96875 12.398438 C 12.21875 12.398438 10.804688 13.8125 10.804688 15.5625 C 10.804688 17.3125 12.21875 18.726562 13.96875 18.726562 C 15.714844 18.726562 17.132812 17.3125 17.132812 15.5625 C 17.132812 13.8125 15.714844 12.398438 13.96875 12.398438 Z M 13.96875 16.75 C 13.3125 16.75 12.777344 16.21875 12.777344 15.5625 C 12.777344 14.90625 13.3125 14.375 13.96875 14.375 C 14.625 14.375 15.15625 14.90625 15.15625 15.5625 C 15.15625 16.21875 14.625 16.75 13.96875 16.75 Z M 13.96875 16.75 "/>
<path style=" stroke:none;fill-rule:nonzero;fill:rgb(0%,0%,0%);fill-opacity:1;" d="M 13.96875 18.75 C 12.210938 18.75 10.78125 17.320312 10.78125 15.5625 C 10.78125 13.804688 12.210938 12.375 13.96875 12.375 C 15.726562 12.375 17.15625 13.804688 17.15625 15.5625 C 17.15625 17.320312 15.726562 18.75 13.96875 18.75 Z M 13.96875 12.421875 C 12.234375 12.421875 10.824219 13.828125 10.824219 15.5625 C 10.824219 17.296875 12.234375 18.703125 13.96875 18.703125 C 15.699219 18.703125 17.109375 17.296875 17.109375 15.5625 C 17.109375 13.828125 15.699219 12.421875 13.96875 12.421875 Z M 13.96875 16.773438 C 13.300781 16.773438 12.753906 16.230469 12.753906 15.5625 C 12.753906 14.894531 13.300781 14.351562 13.96875 14.351562 C 14.636719 14.351562 15.179688 14.894531 15.179688 15.5625 C 15.179688 16.230469 14.636719 16.773438 13.96875 16.773438 Z M 13.96875 14.394531 C 13.324219 14.394531 12.800781 14.917969 12.800781 15.5625 C 12.800781 16.207031 13.324219 16.730469 13.96875 16.730469 C 14.609375 16.730469 15.132812 16.207031 15.132812 15.5625 C 15.132812 14.917969 14.609375 14.394531 13.96875 14.394531 Z M 13.96875 14.394531 "/>
</g>
</svg>
