<?xml version="1.0" encoding="UTF-8"?>
<svg xmlns="http://www.w3.org/2000/svg" xmlns:xlink="http://www.w3.org/1999/xlink" width="28pt" height="28pt" viewBox="0 0 28 28" version="1.1">
<g id="surface1">
<path style=" stroke:none;fill-rule:nonzero;fill:rgb(0%,0%,0%);fill-opacity:1;" d="M 1.695312 19.742188 C 1.695312 20.195312 2.0625 20.5625 2.515625 20.5625 L 25.539062 20.5625 C 25.992188 20.5625 26.359375 20.195312 26.359375 19.742188 C 26.359375 13.71875 21.988281 8.691406 16.238281 7.640625 C 16.378906 7.328125 16.460938 6.980469 16.460938 6.617188 C 16.460938 5.261719 15.355469 4.15625 14 4.15625 C 12.644531 4.15625 11.539062 5.261719 11.539062 6.617188 C 11.539062 6.980469 11.621094 7.328125 11.761719 7.640625 C 6.074219 8.679688 1.695312 13.667969 1.695312 19.742188 Z M 13.179688 6.617188 C 13.179688 6.164062 13.546875 5.796875 14 5.796875 C 14.453125 5.796875 14.820312 6.164062 14.820312 6.617188 C 14.820312 7.070312 14.453125 7.4375 14 7.4375 C 13.546875 7.4375 13.179688 7.070312 13.179688 6.617188 Z M 14 9.078125 C 19.632812 9.078125 24.265625 13.421875 24.6875 18.921875 L 3.367188 18.921875 C 3.789062 13.421875 8.394531 9.078125 14 9.078125 Z M 14 9.078125 "/>
<path style=" stroke:none;fill-rule:nonzero;fill:rgb(0%,0%,0%);fill-opacity:1;" d="M 27.179688 22.203125 L 0.820312 22.203125 C 0.367188 22.203125 0 22.570312 0 23.023438 C 0 23.476562 0.367188 23.84375 0.820312 23.84375 L 27.179688 23.84375 C 27.632812 23.84375 28 23.476562 28 23.023438 C 28 22.570312 27.632812 22.203125 27.179688 22.203125 Z M 27.179688 22.203125 "/>
</g>
</svg>
