<?xml version="1.0" encoding="UTF-8"?>
<svg xmlns="http://www.w3.org/2000/svg" xmlns:xlink="http://www.w3.org/1999/xlink" width="28pt" height="28pt" viewBox="0 0 28 28" version="1.1">
<g id="surface1">
<path style=" stroke:none;fill-rule:nonzero;fill:rgb(0%,0%,0%);fill-opacity:1;" d="M 0 9.453125 L 0 27.953125 L 3 27.953125 L 3 11.953125 C 3 11.675781 3.222656 11.453125 3.5 11.453125 L 24.5 11.453125 C 24.777344 11.453125 25 11.675781 25 11.953125 L 25 27.953125 L 28 27.953125 L 28 9.453125 Z M 2 15.953125 L 1 15.953125 L 1 12.953125 L 2 12.953125 Z M 27 15.953125 L 26 15.953125 L 26 12.953125 L 27 12.953125 Z M 27 15.953125 "/>
<path style=" stroke:none;fill-rule:nonzero;fill:rgb(0%,0%,0%);fill-opacity:1;" d="M 14 0.046875 L 1.175781 8.453125 L 26.824219 8.453125 Z M 14 0.046875 "/>
<path style=" stroke:none;fill-rule:nonzero;fill:rgb(0%,0%,0%);fill-opacity:1;" d="M 19.5 24.453125 L 21 24.453125 C 21 24.175781 20.777344 23.953125 20.5 23.953125 L 7.5 23.953125 C 7.222656 23.953125 7 24.175781 7 24.453125 L 8.5 24.453125 L 8.5 25.453125 L 7 25.453125 L 7 25.953125 L 21 25.953125 L 21 25.453125 L 19.5 25.453125 Z M 19.5 24.453125 "/>
<path style=" stroke:none;fill-rule:nonzero;fill:rgb(0%,0%,0%);fill-opacity:1;" d="M 19 26.453125 L 19 27.453125 C 19 27.726562 19.222656 27.953125 19.5 27.953125 L 20.5 27.953125 C 20.777344 27.953125 21 27.726562 21 27.453125 L 21 26.453125 Z M 19 26.453125 "/>
<path style=" stroke:none;fill-rule:nonzero;fill:rgb(0%,0%,0%);fill-opacity:1;" d="M 7 26.453125 L 7 27.453125 C 7 27.726562 7.222656 27.953125 7.5 27.953125 L 8.5 27.953125 C 8.777344 27.953125 9 27.726562 9 27.453125 L 9 26.453125 Z M 7 26.453125 "/>
<path style=" stroke:none;fill-rule:nonzero;fill:rgb(0%,0%,0%);fill-opacity:1;" d="M 17 18.953125 L 11 18.953125 C 9.34375 18.953125 8 20.296875 8 21.953125 L 8 22.953125 L 20 22.953125 L 20 21.953125 C 20 20.296875 18.65625 18.953125 17 18.953125 Z M 17 18.953125 "/>
<path style=" stroke:none;fill-rule:nonzero;fill:rgb(0%,0%,0%);fill-opacity:1;" d="M 21.5 22.453125 L 21 22.453125 C 20.722656 22.453125 20.5 22.675781 20.5 22.953125 C 20.5 23.226562 20.722656 23.453125 21 23.453125 L 21.5 23.453125 C 21.777344 23.453125 22 23.226562 22 22.953125 C 22 22.675781 21.777344 22.453125 21.5 22.453125 Z M 21.5 22.453125 "/>
<path style=" stroke:none;fill-rule:nonzero;fill:rgb(0%,0%,0%);fill-opacity:1;" d="M 7 22.453125 L 6.5 22.453125 C 6.222656 22.453125 6 22.675781 6 22.953125 C 6 23.226562 6.222656 23.453125 6.5 23.453125 L 7 23.453125 C 7.277344 23.453125 7.5 23.226562 7.5 22.953125 C 7.5 22.675781 7.277344 22.453125 7 22.453125 Z M 7 22.453125 "/>
<path style=" stroke:none;fill-rule:nonzero;fill:rgb(0%,0%,0%);fill-opacity:1;" d="M 23 13.453125 L 5 13.453125 C 4.722656 13.453125 4.5 13.675781 4.5 13.953125 L 4.5 15.953125 C 4.5 16.226562 4.722656 16.453125 5 16.453125 L 23 16.453125 C 23.277344 16.453125 23.5 16.226562 23.5 15.953125 L 23.5 13.953125 C 23.5 13.675781 23.277344 13.453125 23 13.453125 Z M 23 13.453125 "/>
</g>
</svg>
