<?xml version="1.0" encoding="UTF-8"?>
<svg xmlns="http://www.w3.org/2000/svg" xmlns:xlink="http://www.w3.org/1999/xlink" width="28pt" height="28pt" viewBox="0 0 28 28" version="1.1">
<g id="surface1">
<path style=" stroke:none;fill-rule:nonzero;fill:rgb(0%,0%,0%);fill-opacity:1;" d="M 5.878906 10.664062 C 5.878906 10.199219 6.253906 9.824219 6.71875 9.824219 L 21.28125 9.824219 C 21.746094 9.824219 22.121094 10.199219 22.121094 10.664062 C 22.121094 11.128906 21.746094 11.503906 21.28125 11.503906 L 6.71875 11.503906 C 6.253906 11.503906 5.878906 11.128906 5.878906 10.664062 Z M 6.71875 20.90625 L 21.28125 20.90625 C 21.746094 20.90625 22.121094 20.53125 22.121094 20.066406 C 22.121094 19.601562 21.746094 19.226562 21.28125 19.226562 L 6.71875 19.226562 C 6.253906 19.226562 5.878906 19.601562 5.878906 20.066406 C 5.878906 20.53125 6.253906 20.90625 6.71875 20.90625 Z M 6.71875 14.597656 L 21.28125 14.597656 C 21.746094 14.597656 22.121094 14.222656 22.121094 13.757812 C 22.121094 13.292969 21.746094 12.917969 21.28125 12.917969 L 6.71875 12.917969 C 6.253906 12.917969 5.878906 13.292969 5.878906 13.757812 C 5.878906 14.222656 6.253906 14.597656 6.71875 14.597656 Z M 6.71875 17.8125 L 21.28125 17.8125 C 21.746094 17.8125 22.121094 17.4375 22.121094 16.972656 C 22.121094 16.507812 21.746094 16.132812 21.28125 16.132812 L 6.71875 16.132812 C 6.253906 16.132812 5.878906 16.507812 5.878906 16.972656 C 5.878906 17.4375 6.253906 17.8125 6.71875 17.8125 Z M 25.480469 7.421875 L 25.480469 23.308594 L 27.160156 23.308594 C 27.625 23.308594 28 23.6875 28 24.148438 C 28 24.613281 27.625 24.988281 27.160156 24.988281 L 0.839844 24.988281 C 0.375 24.988281 0 24.613281 0 24.148438 C 0 23.6875 0.375 23.308594 0.839844 23.308594 L 2.519531 23.308594 L 2.519531 7.421875 L 0.839844 7.421875 C 0.375 7.421875 0 7.042969 0 6.578125 L 0 3.851562 C 0 3.386719 0.375 3.011719 0.839844 3.011719 L 27.160156 3.011719 C 27.625 3.011719 28 3.386719 28 3.851562 L 28 6.578125 C 28 7.042969 27.625 7.421875 27.160156 7.421875 Z M 23.800781 7.421875 L 4.199219 7.421875 L 4.199219 23.308594 L 23.800781 23.308594 Z M 23.800781 7.421875 "/>
</g>
</svg>
