<?xml version="1.0" encoding="UTF-8"?>
<svg xmlns="http://www.w3.org/2000/svg" xmlns:xlink="http://www.w3.org/1999/xlink" width="28pt" height="28pt" viewBox="0 0 28 28" version="1.1">
<g id="surface1">
<path style=" stroke:none;fill-rule:nonzero;fill:rgb(0%,0%,0%);fill-opacity:1;" d="M 22.460938 15.066406 C 22.351562 15.066406 22.238281 15.082031 22.128906 15.113281 L 21.492188 15.285156 L 20.679688 13.308594 C 20.304688 12.394531 19.199219 11.65625 18.214844 11.65625 L 9.769531 11.65625 C 8.785156 11.65625 7.679688 12.394531 7.308594 13.308594 L 6.496094 15.285156 L 5.871094 15.113281 C 5.761719 15.082031 5.648438 15.066406 5.539062 15.066406 C 4.9375 15.066406 4.5 15.523438 4.5 16.15625 L 4.5 16.179688 C 4.5 16.832031 4.972656 17.375 5.589844 17.492188 C 5.25 18.347656 4.980469 19.738281 4.980469 20.632812 L 4.980469 24.746094 C 4.980469 25.484375 5.582031 26.085938 6.320312 26.085938 L 7.089844 26.085938 C 7.828125 26.085938 8.429688 25.484375 8.429688 24.746094 L 8.429688 23.886719 L 19.558594 23.886719 L 19.558594 24.746094 C 19.558594 25.484375 20.160156 26.085938 20.898438 26.085938 L 21.667969 26.085938 C 22.40625 26.085938 23.007812 25.484375 23.007812 24.746094 L 23.007812 20.632812 C 23.007812 19.738281 22.734375 18.347656 22.398438 17.496094 C 23.023438 17.382812 23.5 16.835938 23.5 16.179688 L 23.5 16.15625 C 23.5 15.523438 23.0625 15.066406 22.460938 15.066406 Z M 7.355469 16.65625 L 8.648438 13.511719 C 8.871094 12.96875 9.535156 12.523438 10.125 12.523438 L 17.863281 12.523438 C 18.449219 12.523438 19.117188 12.96875 19.339844 13.511719 L 20.628906 16.65625 C 20.855469 17.203125 20.554688 17.648438 19.964844 17.648438 L 8.019531 17.648438 C 7.433594 17.648438 7.132812 17.203125 7.355469 16.65625 Z M 10.59375 21.378906 C 10.59375 21.671875 10.351562 21.914062 10.058594 21.914062 L 7.484375 21.914062 C 7.191406 21.914062 6.949219 21.671875 6.949219 21.378906 L 6.949219 20.285156 C 6.949219 19.988281 7.191406 19.75 7.484375 19.75 L 10.058594 19.75 C 10.351562 19.75 10.59375 19.988281 10.59375 20.285156 Z M 21.011719 21.378906 C 21.011719 21.671875 20.769531 21.914062 20.476562 21.914062 L 17.902344 21.914062 C 17.609375 21.914062 17.367188 21.671875 17.367188 21.378906 L 17.367188 20.285156 C 17.367188 19.988281 17.609375 19.75 17.902344 19.75 L 20.476562 19.75 C 20.769531 19.75 21.011719 19.988281 21.011719 20.285156 Z M 21.011719 21.378906 "/>
<path style=" stroke:none;fill-rule:nonzero;fill:rgb(0%,0%,0%);fill-opacity:1;" d="M 25.488281 1.480469 L 2.511719 1.480469 C 1.125 1.480469 0 2.605469 0 3.988281 L 0 25.125 C 0 25.894531 0.625 26.519531 1.394531 26.519531 C 2.164062 26.519531 2.789062 25.894531 2.789062 25.125 L 2.789062 10.355469 L 25.210938 10.355469 L 25.210938 25.125 C 25.210938 25.894531 25.835938 26.519531 26.605469 26.519531 C 27.375 26.519531 28 25.894531 28 25.125 L 28 3.988281 C 28 2.605469 26.875 1.480469 25.488281 1.480469 Z M 2.789062 7.148438 L 25.210938 7.148438 L 25.210938 7.636719 L 2.789062 7.636719 Z M 2.789062 6.035156 L 2.789062 5.640625 L 25.210938 5.640625 L 25.210938 6.035156 Z M 2.789062 9.238281 L 2.789062 8.753906 L 25.210938 8.753906 L 25.210938 9.238281 Z M 2.789062 9.238281 "/>
</g>
</svg>
