<?xml version="1.0" encoding="UTF-8"?>
<svg xmlns="http://www.w3.org/2000/svg" xmlns:xlink="http://www.w3.org/1999/xlink" width="28pt" height="28pt" viewBox="0 0 28 28" version="1.1">
<g id="surface1">
<path style=" stroke:none;fill-rule:nonzero;fill:rgb(0%,0%,0%);fill-opacity:1;" d="M 21.855469 16.628906 C 21.523438 13.898438 20.015625 11.894531 18.152344 11.894531 L 9.878906 11.894531 C 8.015625 11.894531 6.511719 13.898438 6.171875 16.625 C 4.996094 17.300781 4.375 18.582031 4.375 20.074219 C 4.375 21.007812 4.628906 21.855469 5.097656 22.535156 L 5.097656 25.523438 L 9.027344 25.523438 L 9.027344 24.027344 L 19.003906 24.027344 L 19.003906 25.523438 L 22.933594 25.523438 L 22.933594 22.535156 C 23.402344 21.855469 23.65625 21.007812 23.65625 20.074219 C 23.652344 18.585938 23.03125 17.300781 21.855469 16.628906 Z M 7.707031 21.359375 C 6.996094 21.359375 6.421875 20.785156 6.421875 20.074219 C 6.421875 19.363281 6.996094 18.789062 7.707031 18.789062 C 8.414062 18.789062 8.992188 19.363281 8.992188 20.074219 C 8.992188 20.785156 8.414062 21.359375 7.707031 21.359375 Z M 8.164062 16.121094 C 7.910156 16.121094 7.675781 16.148438 7.445312 16.1875 C 7.8125 14.394531 8.777344 13.074219 9.878906 13.074219 L 18.152344 13.074219 C 19.253906 13.074219 20.214844 14.394531 20.585938 16.1875 C 20.460938 16.167969 20.332031 16.160156 20.203125 16.152344 C 20.203125 16.140625 20.207031 16.132812 20.207031 16.121094 C 20.207031 14.988281 19.285156 14.066406 18.152344 14.066406 C 17.019531 14.066406 16.097656 14.988281 16.097656 16.121094 Z M 17.746094 21.214844 L 10.285156 21.214844 C 10.066406 21.214844 9.890625 21.042969 9.890625 20.824219 C 9.890625 20.609375 10.066406 20.433594 10.285156 20.433594 L 17.746094 20.433594 C 17.964844 20.433594 18.140625 20.609375 18.140625 20.824219 C 18.140625 21.039062 17.964844 21.214844 17.746094 21.214844 Z M 17.746094 20.09375 L 10.285156 20.09375 C 10.066406 20.09375 9.890625 19.914062 9.890625 19.699219 C 9.890625 19.484375 10.066406 19.308594 10.285156 19.308594 L 17.746094 19.308594 C 17.964844 19.308594 18.140625 19.484375 18.140625 19.699219 C 18.140625 19.914062 17.964844 20.09375 17.746094 20.09375 Z M 16.886719 16.121094 C 16.886719 15.421875 17.453125 14.851562 18.152344 14.851562 C 18.851562 14.851562 19.421875 15.421875 19.421875 16.121094 Z M 20.324219 21.359375 C 19.613281 21.359375 19.039062 20.785156 19.039062 20.074219 C 19.039062 19.363281 19.613281 18.789062 20.324219 18.789062 C 21.035156 18.789062 21.605469 19.363281 21.605469 20.074219 C 21.605469 20.785156 21.03125 21.359375 20.324219 21.359375 Z M 28.03125 2.503906 L 28.03125 25.527344 L 27.242188 25.527344 L 27.242188 3.289062 L 0.785156 3.289062 L 0.785156 25.527344 L 0 25.527344 L 0 2.503906 Z M 1.308594 3.832031 L 26.722656 3.832031 L 26.722656 5.40625 L 1.308594 5.40625 Z M 1.308594 6.027344 L 26.722656 6.027344 L 26.722656 7.597656 L 1.308594 7.597656 Z M 1.308594 8.21875 L 26.722656 8.21875 L 26.722656 9.789062 L 1.308594 9.789062 Z M 1.308594 8.21875 "/>
</g>
</svg>
