<?xml version="1.0" encoding="UTF-8"?>
<svg xmlns="http://www.w3.org/2000/svg" xmlns:xlink="http://www.w3.org/1999/xlink" width="28pt" height="28pt" viewBox="0 0 28 28" version="1.1">
<g id="surface1">
<path style=" stroke:none;fill-rule:nonzero;fill:rgb(0%,0%,0%);fill-opacity:1;" d="M 8.410156 16.949219 C 9.09375 18.308594 10.386719 19.316406 11.976562 19.589844 L 12.179688 19.625 L 12.050781 22.484375 C 11.980469 22.464844 11.898438 22.453125 11.824219 22.441406 C 11.746094 22.421875 11.667969 22.40625 11.585938 22.390625 C 11.339844 22.355469 11.085938 22.332031 10.808594 22.332031 C 10.429688 22.332031 10.082031 22.378906 9.757812 22.46875 C 9.917969 22.523438 10.070312 22.582031 10.21875 22.648438 C 10.34375 22.699219 10.460938 22.757812 10.578125 22.816406 C 10.65625 22.8125 10.730469 22.800781 10.816406 22.800781 C 11.082031 22.800781 11.332031 22.824219 11.5625 22.859375 C 11.644531 22.875 11.726562 22.890625 11.804688 22.90625 C 11.878906 22.925781 11.957031 22.941406 12.027344 22.960938 C 12.707031 23.15625 13.195312 23.484375 13.527344 23.785156 C 13.617188 23.867188 13.699219 23.949219 13.765625 24.027344 C 13.90625 24.179688 13.992188 24.308594 14.039062 24.378906 C 14.0625 24.414062 14.074219 24.4375 14.078125 24.445312 L 14.089844 24.460938 C 14.144531 24.421875 14.199219 24.386719 14.261719 24.351562 C 14.28125 24.335938 14.300781 24.324219 14.320312 24.3125 C 14.414062 24.257812 14.519531 24.210938 14.625 24.164062 C 14.96875 23.511719 16.082031 21.816406 18.589844 21.285156 L 18.59375 21.15625 L 18.613281 20.804688 C 15.96875 21.328125 14.691406 23.097656 14.25 23.875 C 14.179688 23.789062 14.085938 23.6875 13.984375 23.582031 C 13.90625 23.5 13.816406 23.421875 13.71875 23.335938 C 13.644531 23.273438 13.570312 23.210938 13.480469 23.148438 L 13.234375 19.648438 L 13.457031 19.621094 C 15.578125 19.347656 17.246094 17.726562 17.652344 15.691406 C 15.359375 14.695312 13.71875 12.476562 13.546875 9.859375 C 13.308594 9.824219 13.066406 9.800781 12.816406 9.800781 C 12.519531 9.800781 12.226562 9.832031 11.941406 9.882812 C 12.242188 11.367188 12.410156 12.667969 12.410156 13.492188 C 12.410156 16.351562 10.730469 16.867188 8.410156 16.949219 Z M 8.410156 16.949219 "/>
<path style=" stroke:none;fill-rule:nonzero;fill:rgb(0%,0%,0%);fill-opacity:1;" d="M 21.660156 20.78125 L 21.683594 21.144531 L 21.695312 21.269531 C 25.234375 21.972656 26.527344 25.042969 26.914062 26.320312 C 27 26.40625 27.082031 26.488281 27.160156 26.574219 C 27.3125 26.738281 27.445312 26.902344 27.5625 27.0625 L 27.570312 27.0625 L 27.515625 26.785156 C 27.503906 26.730469 26.480469 21.664062 21.660156 20.78125 Z M 21.660156 20.78125 "/>
<path style=" stroke:none;fill-rule:nonzero;fill:rgb(0%,0%,0%);fill-opacity:1;" d="M 14.007812 9.710938 C 14.011719 9.792969 14.011719 9.875 14.019531 9.957031 C 14.222656 12.292969 15.6875 14.269531 17.726562 15.207031 C 17.800781 15.242188 17.875 15.277344 17.949219 15.308594 C 18.023438 15.339844 18.101562 15.363281 18.175781 15.390625 C 18.394531 15.472656 18.621094 15.542969 18.851562 15.597656 L 18.996094 12.46875 L 15.902344 7.777344 L 19.183594 9.578125 L 19.578125 4.972656 L 20.816406 4.972656 L 21.03125 11.53125 L 24.609375 10.46875 L 21.230469 14.761719 L 21.296875 15.71875 C 24.382812 15.269531 26.765625 12.613281 26.765625 9.402344 C 26.765625 5.882812 23.898438 3.019531 20.378906 3.019531 C 16.855469 3.019531 13.992188 5.882812 13.992188 9.402344 C 13.992188 9.425781 13.996094 9.445312 13.996094 9.464844 C 13.996094 9.546875 14.003906 9.628906 14.007812 9.710938 Z M 14.007812 9.710938 "/>
<path style=" stroke:none;fill-rule:nonzero;fill:rgb(0%,0%,0%);fill-opacity:1;" d="M 1.980469 16.042969 C 2.777344 16.453125 3.941406 16.492188 5.164062 16.492188 L 5.253906 15.230469 L 1.875 10.941406 L 5.453125 12.003906 L 5.671875 5.441406 L 6.90625 5.441406 L 7.300781 10.046875 L 10.582031 8.246094 L 7.488281 12.941406 L 7.519531 13.667969 L 7.640625 16.394531 L 7.652344 16.722656 C 7.671875 16.722656 7.691406 16.722656 7.707031 16.722656 C 7.789062 16.722656 7.871094 16.605469 7.953125 16.605469 C 8.039062 16.605469 8.121094 16.542969 8.203125 16.542969 C 10.480469 16.492188 11.9375 16.0625 11.9375 13.523438 C 11.9375 12.636719 11.777344 11.375 11.5 10 C 11.484375 9.921875 11.46875 9.839844 11.453125 9.761719 C 11.4375 9.683594 11.417969 9.605469 11.402344 9.527344 C 10.472656 5.265625 8.457031 0 6.355469 0 C 3.488281 0 0.773438 9.820312 0.773438 13.496094 C 0.777344 14.8125 1.15625 15.621094 1.980469 16.042969 Z M 1.980469 16.042969 "/>
<path style=" stroke:none;fill-rule:nonzero;fill:rgb(0%,0%,0%);fill-opacity:1;" d="M 19.308594 15.929688 L 19.296875 16.167969 L 19.085938 20.726562 L 19.070312 21.082031 L 19.0625 21.203125 L 18.914062 24.472656 C 19.648438 24.992188 20.109375 25.65625 20.324219 26.015625 C 20.546875 25.863281 20.949219 25.636719 21.519531 25.4375 L 21.21875 21.191406 L 21.207031 21.066406 L 21.183594 20.710938 L 20.863281 16.234375 L 20.847656 16 L 20.832031 15.769531 L 20.75 14.613281 L 23.324219 11.34375 L 20.582031 12.15625 L 20.359375 5.441406 L 20.007812 5.441406 L 19.589844 10.335938 L 17.339844 9.101562 L 19.472656 12.339844 L 19.316406 15.695312 Z M 19.308594 15.929688 "/>
<path style=" stroke:none;fill-rule:nonzero;fill:rgb(0%,0%,0%);fill-opacity:1;" d="M 6.894531 10.804688 L 6.476562 5.910156 L 6.125 5.910156 L 5.902344 12.625 L 3.160156 11.8125 L 5.738281 15.082031 L 5.730469 15.175781 L 5.636719 16.492188 L 5.601562 16.960938 L 5.222656 22.3125 C 5.828125 22.152344 6.5 22.058594 7.246094 22.058594 C 7.3125 22.058594 7.375 22.066406 7.4375 22.066406 L 7.203125 16.960938 L 7.179688 16.492188 L 7.011719 12.808594 L 9.144531 9.570312 Z M 6.894531 10.804688 "/>
<path style=" stroke:none;fill-rule:nonzero;fill:rgb(0%,0%,0%);fill-opacity:1;" d="M 26.472656 26.59375 C 25.832031 26.003906 24.960938 25.503906 24.042969 25.503906 C 23.226562 25.503906 22.554688 25.621094 22.015625 25.773438 C 21.929688 25.796875 21.847656 25.820312 21.769531 25.847656 C 21.695312 25.871094 21.621094 25.894531 21.554688 25.921875 C 21.375 25.988281 21.21875 26.058594 21.082031 26.125 C 20.632812 26.34375 20.40625 26.539062 20.402344 26.542969 L 20.34375 26.59375 L 20.167969 26.75 L 20.09375 26.59375 L 20.035156 26.46875 C 20.03125 26.460938 19.964844 26.324219 19.832031 26.125 C 19.648438 25.839844 19.332031 25.429688 18.886719 25.058594 C 18.816406 25 18.746094 24.945312 18.667969 24.890625 C 18.59375 24.835938 18.511719 24.78125 18.429688 24.730469 C 17.941406 24.429688 17.335938 24.210938 16.613281 24.210938 C 15.59375 24.210938 14.84375 24.519531 14.320312 24.871094 C 14.320312 24.871094 14.320312 24.871094 14.316406 24.871094 C 14.234375 24.929688 14.15625 24.984375 14.085938 25.042969 C 14 25.109375 13.921875 25.179688 13.851562 25.246094 C 13.773438 25.320312 13.703125 25.390625 13.644531 25.457031 C 13.445312 25.683594 13.347656 25.847656 13.347656 25.855469 L 13.109375 26.289062 L 12.921875 25.828125 C 12.898438 25.769531 12.625 25.121094 11.960938 24.414062 C 11.894531 24.34375 11.820312 24.269531 11.746094 24.199219 C 11.671875 24.128906 11.59375 24.058594 11.511719 23.988281 C 11.0625 23.605469 10.488281 23.238281 9.765625 22.964844 C 9.664062 22.925781 9.5625 22.886719 9.453125 22.855469 C 9.324219 22.8125 9.1875 22.78125 9.046875 22.746094 C 8.703125 22.660156 8.335938 22.59375 7.933594 22.5625 C 7.855469 22.554688 7.769531 22.554688 7.6875 22.550781 C 7.613281 22.546875 7.539062 22.542969 7.460938 22.539062 C 7.386719 22.539062 7.320312 22.53125 7.246094 22.53125 C 6.476562 22.53125 5.796875 22.640625 5.1875 22.8125 C 5.109375 22.835938 5.035156 22.855469 4.960938 22.878906 C 4.875 22.90625 4.785156 22.933594 4.703125 22.964844 C 1.683594 24.085938 0.679688 27.066406 0.433594 28.003906 L 27.480469 28.003906 C 27.402344 27.738281 27.203125 27.402344 26.921875 27.066406 C 26.789062 26.90625 26.640625 26.746094 26.472656 26.59375 Z M 26.472656 26.59375 "/>
</g>
</svg>
