<?xml version="1.0" encoding="UTF-8"?>
<svg xmlns="http://www.w3.org/2000/svg" xmlns:xlink="http://www.w3.org/1999/xlink" width="28pt" height="28pt" viewBox="0 0 28 28" version="1.1">
<g id="surface1">
<path style=" stroke:none;fill-rule:nonzero;fill:rgb(0%,0%,0%);fill-opacity:1;" d="M 26.394531 8.328125 C 27.578125 12.894531 26.289062 17.863281 26.269531 17.941406 C 26.273438 17.914062 26.300781 17.558594 26.300781 17.558594 C 26.679688 14.492188 25.757812 12.761719 25.757812 12.761719 C 26.378906 15.414062 25.226562 16.929688 24.554688 17.558594 C 24.300781 17.792969 24.113281 17.996094 24.113281 17.996094 C 24.09375 17.996094 24.074219 17.675781 24.058594 17.558594 C 23.605469 13.8125 25.753906 9.046875 25.753906 9.046875 C 24.378906 10.265625 23.546875 14.246094 23.179688 16.433594 C 23.617188 12.746094 22.894531 11.046875 22.894531 11.046875 C 23.179688 14.132812 22.464844 16.664062 22.164062 17.558594 C 22.089844 17.785156 22.039062 17.996094 22.039062 17.996094 C 22.003906 17.996094 21.972656 17.6875 21.941406 17.558594 C 21.425781 15.328125 21.679688 9.832031 21.679688 9.832031 C 21.167969 11.113281 20.859375 13.75 20.695312 15.660156 C 20.695312 12.417969 19.679688 10.472656 19.679688 10.472656 C 20.75 14.621094 19.320312 17.335938 19.320312 17.335938 C 19.605469 13.621094 18.605469 12.691406 18.605469 12.691406 C 19.34375 14.230469 17.675781 17.265625 17.675781 17.265625 C 17.03125 13.261719 18.605469 7.613281 18.605469 7.613281 C 17.652344 8.957031 17.09375 12.316406 16.800781 14.757812 C 16.769531 11.65625 15.476562 10.472656 15.476562 10.472656 C 16.777344 13.621094 15.460938 17.480469 15.460938 17.480469 C 15.601562 13.761719 14.671875 11.976562 14.671875 11.976562 C 14.789062 13.617188 13.46875 16.550781 12.988281 17.558594 C 12.878906 17.777344 12.816406 17.996094 12.816406 17.996094 C 12.785156 17.996094 12.761719 17.679688 12.742188 17.558594 C 12.261719 14.796875 13.242188 8.902344 13.242188 8.902344 C 12.117188 9.777344 11.429688 16.003906 11.273438 17.558594 C 11.253906 17.78125 11.242188 17.996094 11.242188 17.996094 C 11.234375 17.996094 11.226562 17.675781 11.21875 17.558594 C 11.070312 15.140625 11.089844 12.460938 11.089844 12.460938 C 10.617188 12.980469 10.242188 17.996094 10.238281 17.996094 L 10.253906 17.558594 C 10.558594 11.3125 9.453125 9.257812 9.453125 9.257812 C 9.996094 12.328125 9.015625 16.359375 8.695312 17.558594 C 8.632812 17.785156 8.597656 17.996094 8.597656 17.996094 C 8.523438 17.996094 8.464844 17.6875 8.410156 17.558594 C 7.660156 15.714844 8.597656 11.476562 8.597656 11.476562 C 7.734375 12.585938 7.4375 14.542969 7.339844 16.007812 C 7.421875 8.496094 6.808594 6.042969 6.808594 6.042969 C 7.25 8.75 6.304688 15.894531 6.070312 17.558594 C 6.058594 17.65625 6.058594 17.644531 6.070312 17.558594 L 6.054688 17.558594 C 6.222656 15.027344 5.378906 10.472656 5.378906 10.472656 C 5.378906 12.460938 4.921875 16.367188 4.777344 17.558594 C 4.75 17.78125 4.734375 17.996094 4.734375 17.996094 C 4.660156 17.847656 4.625 17.679688 4.578125 17.558594 C 3.488281 14.320312 4.734375 8.902344 4.734375 8.902344 C 3.074219 11.113281 2.894531 16.183594 2.878906 17.558594 C 2.875 17.664062 2.875 17.691406 2.878906 17.558594 C 2.878906 17.558594 2.960938 18.082031 2.730469 17.558594 C 1.933594 15.835938 2.921875 10.472656 2.921875 10.472656 C 1.941406 11.515625 1.542969 16.230469 1.457031 17.558594 C 1.441406 17.777344 1.421875 17.996094 1.421875 17.996094 C 1.398438 17.996094 1.371094 17.675781 1.351562 17.558594 C 0.574219 12.996094 2.878906 7.941406 2.878906 7.941406 C 0.59375 9.371094 0 17.996094 0 17.996094 L 0 21.925781 L 27.96875 21.925781 L 27.96875 17.558594 C 27.972656 9.554688 26.394531 8.328125 26.394531 8.328125 Z M 26.394531 8.328125 "/>
</g>
</svg>
