<?xml version="1.0" encoding="UTF-8"?>
<svg xmlns="http://www.w3.org/2000/svg" xmlns:xlink="http://www.w3.org/1999/xlink" width="28pt" height="28pt" viewBox="0 0 28 28" version="1.1">
<g id="surface1">
<path style=" stroke:none;fill-rule:nonzero;fill:rgb(0%,0%,0%);fill-opacity:1;" d="M 14.820312 11.195312 L 14.820312 4.472656 C 15.738281 4.867188 17.023438 5.1875 18.402344 4.816406 C 21.078125 4.097656 22.144531 1.320312 22.144531 1.320312 C 22.144531 1.320312 19.832031 -0.554688 17.15625 0.164062 C 15.585938 0.582031 14.570312 1.714844 14 2.574219 C 13.429688 1.714844 12.414062 0.582031 10.84375 0.164062 C 8.167969 -0.554688 5.855469 1.320312 5.855469 1.320312 C 5.855469 1.320312 6.921875 4.097656 9.597656 4.816406 C 10.976562 5.1875 12.261719 4.867188 13.179688 4.472656 L 13.179688 11.195312 L 3.644531 11.195312 L 3.644531 14.953125 L 24.355469 14.953125 L 24.355469 11.195312 Z M 14.820312 11.195312 "/>
<path style=" stroke:none;fill-rule:nonzero;fill:rgb(0%,0%,0%);fill-opacity:1;" d="M 5.992188 16.59375 L 7.003906 28 L 20.996094 28 L 22.007812 16.59375 Z M 5.992188 16.59375 "/>
</g>
</svg>
