<?xml version="1.0" encoding="UTF-8"?>
<svg xmlns="http://www.w3.org/2000/svg" xmlns:xlink="http://www.w3.org/1999/xlink" width="28pt" height="28pt" viewBox="0 0 28 28" version="1.1">
<g id="surface1">
<path style=" stroke:none;fill-rule:nonzero;fill:rgb(0%,0%,0%);fill-opacity:1;" d="M 16.132812 25.253906 C 14.574219 25.226562 13.773438 24.46875 13.371094 23.164062 C 13.027344 22.066406 12.863281 20.910156 12.609375 19.78125 C 12.398438 18.832031 12.65625 18.261719 13.648438 17.855469 C 15.320312 17.171875 16.628906 16 17.621094 14.289062 C 15.972656 15.363281 12.464844 18.003906 12.410156 17.3125 C 12.410156 14.9375 13.75 12.167969 14.472656 9.855469 C 10.644531 15.101562 9.703125 18.59375 12.472656 24.707031 C 11.839844 24.550781 11.546875 24.828125 11.386719 24.6875 C 9.875 23.351562 8.324219 24.953125 6.769531 26.058594 C 6.574219 26.199219 6.632812 27.132812 6.703125 27.148438 C 8.230469 27.503906 9.765625 27.90625 11.320312 28.035156 C 12.945312 28.167969 14.601562 28.140625 16.222656 27.960938 C 17.570312 27.8125 18.878906 27.34375 20.40625 26.96875 C 19.132812 25.160156 17.535156 25.273438 16.132812 25.253906 Z M 16.132812 25.253906 "/>
<path style=" stroke:none;fill-rule:nonzero;fill:rgb(0%,0%,0%);fill-opacity:1;" d="M 18.734375 11.996094 C 17.886719 12.492188 17.382812 13.292969 17.398438 14 C 17.402344 14.214844 19.207031 13.402344 19.3125 13.589844 C 19.445312 13.8125 17.894531 15.003906 18.128906 15.117188 C 18.734375 15.410156 19.617188 15.339844 20.417969 14.875 C 21.523438 14.230469 22.457031 11.753906 22.457031 11.753906 C 22.457031 11.753906 19.84375 11.351562 18.734375 11.996094 Z M 18.734375 11.996094 "/>
<path style=" stroke:none;fill-rule:nonzero;fill:rgb(0%,0%,0%);fill-opacity:1;" d="M 17.570312 10.59375 C 18.023438 10.8125 18.683594 10.757812 19.28125 10.410156 C 20.113281 9.925781 20.808594 8.074219 20.808594 8.074219 C 20.808594 8.074219 18.851562 7.769531 18.023438 8.253906 C 17.386719 8.625 17.007812 9.226562 17.023438 9.753906 C 17.027344 9.917969 18.375 9.308594 18.457031 9.445312 C 18.554688 9.613281 17.390625 10.503906 17.570312 10.59375 Z M 17.570312 10.59375 "/>
<path style=" stroke:none;fill-rule:nonzero;fill:rgb(0%,0%,0%);fill-opacity:1;" d="M 21.484375 8.519531 C 21.003906 8.804688 20.71875 9.257812 20.730469 9.65625 C 20.730469 9.777344 21.75 9.320312 21.8125 9.425781 C 21.886719 9.550781 21.007812 10.226562 21.140625 10.289062 C 21.484375 10.457031 21.984375 10.414062 22.4375 10.152344 C 23.0625 9.785156 23.589844 8.386719 23.589844 8.386719 C 23.589844 8.386719 22.113281 8.15625 21.484375 8.519531 Z M 21.484375 8.519531 "/>
<path style=" stroke:none;fill-rule:nonzero;fill:rgb(0%,0%,0%);fill-opacity:1;" d="M 22.898438 12.835938 C 22.859375 12.910156 23.582031 12.980469 23.585938 13.058594 C 23.585938 13.152344 22.871094 13.25 22.929688 13.332031 C 23.066406 13.535156 23.363281 13.671875 23.703125 13.671875 C 24.175781 13.667969 24.921875 13.046875 24.921875 13.046875 C 24.921875 13.046875 24.164062 12.4375 23.691406 12.441406 C 23.328125 12.445312 23.023438 12.613281 22.898438 12.835938 Z M 22.898438 12.835938 "/>
<path style=" stroke:none;fill-rule:nonzero;fill:rgb(0%,0%,0%);fill-opacity:1;" d="M 24.738281 9.699219 C 24.351562 9.769531 24.058594 10 23.96875 10.269531 C 23.941406 10.351562 24.722656 10.289062 24.742188 10.371094 C 24.757812 10.472656 24.019531 10.710938 24.089844 10.785156 C 24.277344 10.976562 24.621094 11.070312 24.980469 11.003906 C 25.480469 10.910156 26.160156 10.109375 26.160156 10.109375 C 26.160156 10.109375 25.238281 9.605469 24.738281 9.699219 Z M 24.738281 9.699219 "/>
<path style=" stroke:none;fill-rule:nonzero;fill:rgb(0%,0%,0%);fill-opacity:1;" d="M 15.03125 12.917969 C 15.375 13.085938 15.875 13.046875 16.328125 12.78125 C 16.953125 12.414062 17.480469 11.015625 17.480469 11.015625 C 17.480469 11.015625 16.003906 10.785156 15.375 11.152344 C 14.894531 11.433594 14.609375 11.886719 14.621094 12.285156 C 14.621094 12.40625 15.640625 11.949219 15.703125 12.054688 C 15.777344 12.179688 14.898438 12.855469 15.03125 12.917969 Z M 15.03125 12.917969 "/>
<path style=" stroke:none;fill-rule:nonzero;fill:rgb(0%,0%,0%);fill-opacity:1;" d="M 17.472656 6.898438 C 17.511719 7.015625 18.335938 6.261719 18.429688 6.34375 C 18.539062 6.441406 17.910156 7.351562 18.058594 7.371094 C 18.4375 7.425781 18.902344 7.234375 19.25 6.839844 C 19.734375 6.300781 19.800781 4.804688 19.800781 4.804688 C 19.800781 4.804688 18.324219 5.042969 17.839844 5.585938 C 17.46875 6.003906 17.339844 6.523438 17.472656 6.898438 Z M 17.472656 6.898438 "/>
<path style=" stroke:none;fill-rule:nonzero;fill:rgb(0%,0%,0%);fill-opacity:1;" d="M 22.277344 6.34375 C 22.386719 6.441406 21.757812 7.351562 21.90625 7.371094 C 22.285156 7.425781 22.75 7.234375 23.097656 6.839844 C 23.578125 6.300781 23.648438 4.804688 23.648438 4.804688 C 23.648438 4.804688 22.167969 5.042969 21.6875 5.585938 C 21.316406 6.003906 21.1875 6.523438 21.316406 6.898438 C 21.359375 7.015625 22.183594 6.261719 22.277344 6.34375 Z M 22.277344 6.34375 "/>
<path style=" stroke:none;fill-rule:nonzero;fill:rgb(0%,0%,0%);fill-opacity:1;" d="M 17.546875 3.765625 C 17.65625 3.863281 17.027344 4.777344 17.175781 4.796875 C 17.550781 4.851562 18.015625 4.65625 18.367188 4.265625 C 18.847656 3.726562 18.917969 2.230469 18.917969 2.230469 C 18.917969 2.230469 17.4375 2.46875 16.957031 3.007812 C 16.585938 3.425781 16.453125 3.945312 16.585938 4.324219 C 16.628906 4.4375 17.453125 3.683594 17.546875 3.765625 Z M 17.546875 3.765625 "/>
<path style=" stroke:none;fill-rule:nonzero;fill:rgb(0%,0%,0%);fill-opacity:1;" d="M 14.394531 4.191406 C 14.546875 4.265625 14.632812 2.765625 14.792969 2.757812 C 14.992188 2.75 15.242188 4.214844 15.40625 4.09375 C 15.816406 3.792969 16.082031 3.167969 16.046875 2.46875 C 16.003906 1.496094 14.667969 0 14.667969 0 C 14.667969 0 13.472656 1.613281 13.519531 2.589844 C 13.554688 3.335938 13.917969 3.953125 14.394531 4.191406 Z M 14.394531 4.191406 "/>
<path style=" stroke:none;fill-rule:nonzero;fill:rgb(0%,0%,0%);fill-opacity:1;" d="M 13.421875 7.296875 C 13.542969 7.328125 13.367188 6.222656 13.484375 6.191406 C 13.625 6.152344 14.046875 7.175781 14.140625 7.066406 C 14.394531 6.777344 14.484375 6.285156 14.347656 5.777344 C 14.160156 5.078125 12.945312 4.203125 12.945312 4.203125 C 12.945312 4.203125 12.335938 5.570312 12.527344 6.269531 C 12.671875 6.808594 13.035156 7.203125 13.421875 7.296875 Z M 13.421875 7.296875 "/>
<path style=" stroke:none;fill-rule:nonzero;fill:rgb(0%,0%,0%);fill-opacity:1;" d="M 6.890625 8.257812 C 7.417969 8.4375 7.949219 8.355469 8.246094 8.085938 C 8.335938 8.003906 7.320312 7.535156 7.359375 7.417969 C 7.40625 7.28125 8.492188 7.503906 8.449219 7.359375 C 8.355469 6.992188 7.996094 6.636719 7.5 6.46875 C 6.8125 6.234375 5.410156 6.753906 5.410156 6.753906 C 5.410156 6.753906 6.207031 8.023438 6.890625 8.257812 Z M 6.890625 8.257812 "/>
<path style=" stroke:none;fill-rule:nonzero;fill:rgb(0%,0%,0%);fill-opacity:1;" d="M 3.4375 6.871094 C 3.96875 7.050781 4.496094 6.96875 4.792969 6.699219 C 4.882812 6.617188 3.867188 6.148438 3.90625 6.03125 C 3.953125 5.890625 5.039062 6.117188 5 5.972656 C 4.902344 5.605469 4.542969 5.253906 4.050781 5.082031 C 3.363281 4.847656 1.957031 5.367188 1.957031 5.367188 C 1.957031 5.367188 2.75 6.636719 3.4375 6.871094 Z M 3.4375 6.871094 "/>
<path style=" stroke:none;fill-rule:nonzero;fill:rgb(0%,0%,0%);fill-opacity:1;" d="M 6.855469 13.800781 C 6.914062 13.691406 5.800781 13.582031 5.800781 13.460938 C 5.796875 13.3125 6.894531 13.167969 6.8125 13.046875 C 6.597656 12.730469 6.140625 12.515625 5.617188 12.519531 C 4.894531 12.523438 3.738281 13.476562 3.738281 13.476562 C 3.738281 13.476562 4.90625 14.410156 5.632812 14.40625 C 6.191406 14.402344 6.664062 14.148438 6.855469 13.800781 Z M 6.855469 13.800781 "/>
<path style=" stroke:none;fill-rule:nonzero;fill:rgb(0%,0%,0%);fill-opacity:1;" d="M 5.289062 10.128906 C 5.347656 10.019531 4.234375 9.914062 4.234375 9.789062 C 4.230469 9.644531 5.328125 9.496094 5.246094 9.375 C 5.03125 9.058594 4.578125 8.84375 4.054688 8.847656 C 3.328125 8.855469 2.171875 9.808594 2.171875 9.808594 C 2.171875 9.808594 3.339844 10.742188 4.066406 10.734375 C 4.625 10.730469 5.097656 10.480469 5.289062 10.128906 Z M 5.289062 10.128906 "/>
<path style=" stroke:none;fill-rule:nonzero;fill:rgb(0%,0%,0%);fill-opacity:1;" d="M 8.015625 5.496094 C 8.140625 5.488281 7.613281 4.503906 7.714844 4.433594 C 7.835938 4.347656 8.566406 5.183594 8.621094 5.042969 C 8.765625 4.691406 8.691406 4.195312 8.398438 3.761719 C 7.988281 3.160156 6.558594 2.730469 6.558594 2.730469 C 6.558594 2.730469 6.425781 4.21875 6.835938 4.820312 C 7.148438 5.28125 7.617188 5.535156 8.015625 5.496094 Z M 8.015625 5.496094 "/>
<path style=" stroke:none;fill-rule:nonzero;fill:rgb(0%,0%,0%);fill-opacity:1;" d="M 11.335938 5.496094 C 11.457031 5.488281 10.929688 4.503906 11.03125 4.433594 C 11.152344 4.347656 11.882812 5.183594 11.9375 5.042969 C 12.082031 4.691406 12.007812 4.195312 11.714844 3.761719 C 11.308594 3.160156 9.875 2.730469 9.875 2.730469 C 9.875 2.730469 9.746094 4.21875 10.15625 4.820312 C 10.464844 5.28125 10.9375 5.535156 11.335938 5.496094 Z M 11.335938 5.496094 "/>
<path style=" stroke:none;fill-rule:nonzero;fill:rgb(0%,0%,0%);fill-opacity:1;" d="M 14.542969 7.476562 C 14.410156 8.199219 14.621094 8.878906 15.027344 9.214844 C 15.152344 9.316406 15.570312 7.898438 15.730469 7.929688 C 15.917969 7.964844 15.835938 9.425781 16.019531 9.347656 C 16.480469 9.148438 16.871094 8.613281 17 7.929688 C 17.179688 6.988281 16.226562 5.25 16.226562 5.25 C 16.226562 5.25 14.71875 6.53125 14.542969 7.476562 Z M 14.542969 7.476562 "/>
<path style=" stroke:none;fill-rule:nonzero;fill:rgb(0%,0%,0%);fill-opacity:1;" d="M 10.539062 8.921875 C 10.96875 9.523438 11.605469 9.84375 12.128906 9.785156 C 12.289062 9.765625 11.558594 8.476562 11.691406 8.382812 C 11.847656 8.273438 12.84375 9.347656 12.914062 9.160156 C 13.089844 8.691406 12.976562 8.039062 12.574219 7.472656 C 12.015625 6.691406 10.109375 6.164062 10.109375 6.164062 C 10.109375 6.164062 9.984375 8.140625 10.539062 8.921875 Z M 10.539062 8.921875 "/>
<path style=" stroke:none;fill-rule:nonzero;fill:rgb(0%,0%,0%);fill-opacity:1;" d="M 8.652344 12.78125 C 9.597656 12.886719 10.453125 12.558594 10.847656 12 C 10.972656 11.828125 9.105469 11.417969 9.125 11.210938 C 9.152344 10.960938 11.046875 10.9375 10.929688 10.710938 C 10.628906 10.132812 9.902344 9.679688 9.011719 9.578125 C 7.78125 9.4375 5.628906 10.820312 5.628906 10.820312 C 5.628906 10.820312 7.421875 12.640625 8.652344 12.78125 Z M 8.652344 12.78125 "/>
<path style=" stroke:none;fill-rule:nonzero;fill:rgb(0%,0%,0%);fill-opacity:1;" d="M 10.929688 14.246094 C 10.726562 13.855469 10.234375 13.546875 9.628906 13.476562 C 8.792969 13.378906 7.328125 14.320312 7.328125 14.320312 C 7.328125 14.320312 8.546875 15.558594 9.382812 15.652344 C 10.027344 15.726562 10.609375 15.503906 10.875 15.121094 C 10.957031 15.007812 9.691406 14.726562 9.703125 14.585938 C 9.722656 14.417969 11.007812 14.402344 10.929688 14.246094 Z M 10.929688 14.246094 "/>
</g>
</svg>
