<?xml version="1.0" encoding="UTF-8"?>
<svg xmlns="http://www.w3.org/2000/svg" xmlns:xlink="http://www.w3.org/1999/xlink" width="28pt" height="28pt" viewBox="0 0 28 28" version="1.1">
<g id="surface1">
<path style=" stroke:none;fill-rule:nonzero;fill:rgb(0%,0%,0%);fill-opacity:1;" d="M 13.085938 4.644531 C 13.0625 4.816406 12.992188 4.972656 12.882812 5.097656 C 16.574219 8.234375 17.855469 5.316406 13.085938 4.644531 Z M 13.085938 4.644531 "/>
<path style=" stroke:none;fill-rule:nonzero;fill:rgb(0%,0%,0%);fill-opacity:1;" d="M 12.855469 5.214844 C 12.84375 5.199219 12.832031 5.1875 12.816406 5.171875 C 12.816406 5.171875 12.816406 5.171875 12.8125 5.171875 C 12.828125 5.1875 12.84375 5.199219 12.855469 5.214844 Z M 12.855469 5.214844 "/>
<path style=" stroke:none;fill-rule:nonzero;fill:rgb(0%,0%,0%);fill-opacity:1;" d="M 12.214844 3.628906 C 12.214844 3.605469 12.214844 3.585938 12.214844 3.5625 C 12.214844 3.585938 12.214844 3.605469 12.210938 3.628906 C 12.214844 3.628906 12.214844 3.628906 12.214844 3.628906 Z M 12.214844 3.628906 "/>
<path style=" stroke:none;fill-rule:nonzero;fill:rgb(0%,0%,0%);fill-opacity:1;" d="M 13.097656 4.511719 C 13.097656 4.511719 13.097656 4.515625 13.097656 4.515625 C 13.121094 4.515625 13.144531 4.511719 13.164062 4.511719 C 13.140625 4.511719 13.121094 4.511719 13.097656 4.511719 Z M 13.097656 4.511719 "/>
<path style=" stroke:none;fill-rule:nonzero;fill:rgb(0%,0%,0%);fill-opacity:1;" d="M 12.097656 3.640625 C 11.496094 -1.171875 8.828125 -0.078125 11.675781 3.804688 C 11.796875 3.714844 11.941406 3.65625 12.097656 3.640625 Z M 12.097656 3.640625 "/>
<path style=" stroke:none;fill-rule:nonzero;fill:rgb(0%,0%,0%);fill-opacity:1;" d="M 12.925781 3.996094 C 13.015625 4.117188 13.074219 4.265625 13.089844 4.425781 C 17.902344 3.898438 16.816406 1.160156 12.925781 3.996094 Z M 12.925781 3.996094 "/>
<path style=" stroke:none;fill-rule:nonzero;fill:rgb(0%,0%,0%);fill-opacity:1;" d="M 12.917969 3.871094 C 12.898438 3.890625 12.882812 3.902344 12.863281 3.921875 C 12.882812 3.90625 12.898438 3.886719 12.917969 3.871094 Z M 12.917969 3.871094 "/>
<path style=" stroke:none;fill-rule:nonzero;fill:rgb(0%,0%,0%);fill-opacity:1;" d="M 11.554688 5.128906 C 11.539062 5.144531 11.527344 5.15625 11.511719 5.171875 C 11.527344 5.15625 11.539062 5.144531 11.554688 5.128906 Z M 11.554688 5.128906 "/>
<path style=" stroke:none;fill-rule:nonzero;fill:rgb(0%,0%,0%);fill-opacity:1;" d="M 11.324219 4.417969 C 11.34375 4.242188 11.414062 4.085938 11.519531 3.953125 C 7.835938 0.933594 6.5625 3.84375 11.324219 4.417969 Z M 11.324219 4.417969 "/>
<path style=" stroke:none;fill-rule:nonzero;fill:rgb(0%,0%,0%);fill-opacity:1;" d="M 12.3125 3.640625 C 12.488281 3.660156 12.644531 3.730469 12.773438 3.839844 C 15.808594 0.152344 12.894531 -1.121094 12.3125 3.640625 Z M 12.3125 3.640625 "/>
<path style=" stroke:none;fill-rule:nonzero;fill:rgb(0%,0%,0%);fill-opacity:1;" d="M 11.484375 5.046875 C 11.398438 4.925781 11.34375 4.785156 11.324219 4.632812 C 6.492188 5.242188 7.519531 7.90625 11.484375 5.046875 Z M 11.484375 5.046875 "/>
<path style=" stroke:none;fill-rule:nonzero;fill:rgb(0%,0%,0%);fill-opacity:1;" d="M 11.609375 3.863281 C 11.589844 3.84375 11.574219 3.828125 11.554688 3.808594 C 11.574219 3.828125 11.589844 3.84375 11.605469 3.863281 C 11.605469 3.863281 11.605469 3.863281 11.609375 3.863281 Z M 11.609375 3.863281 "/>
<path style=" stroke:none;fill-rule:nonzero;fill:rgb(0%,0%,0%);fill-opacity:1;" d="M 11.792969 4.582031 C 11.804688 4.648438 11.828125 4.707031 11.867188 4.761719 C 11.875 4.773438 11.882812 4.789062 11.890625 4.800781 C 11.898438 4.804688 11.898438 4.8125 11.902344 4.816406 C 11.914062 4.828125 11.929688 4.835938 11.941406 4.84375 C 12 4.890625 12.066406 4.921875 12.144531 4.933594 C 12.160156 4.933594 12.179688 4.945312 12.199219 4.945312 C 12.203125 4.945312 12.203125 4.945312 12.207031 4.945312 C 12.210938 4.945312 12.214844 4.941406 12.21875 4.941406 C 12.234375 4.941406 12.246094 4.9375 12.257812 4.933594 C 12.328125 4.925781 12.390625 4.902344 12.441406 4.863281 C 12.457031 4.851562 12.472656 4.847656 12.484375 4.835938 C 12.492188 4.832031 12.496094 4.828125 12.503906 4.824219 C 12.511719 4.8125 12.519531 4.796875 12.527344 4.785156 C 12.574219 4.730469 12.605469 4.660156 12.617188 4.585938 C 12.621094 4.566406 12.628906 4.546875 12.628906 4.527344 C 12.628906 4.523438 12.628906 4.523438 12.628906 4.523438 C 12.628906 4.515625 12.628906 4.511719 12.628906 4.507812 C 12.625 4.492188 12.621094 4.480469 12.621094 4.46875 C 12.609375 4.398438 12.585938 4.335938 12.546875 4.28125 C 12.539062 4.269531 12.53125 4.257812 12.523438 4.246094 C 12.515625 4.242188 12.515625 4.234375 12.511719 4.230469 C 12.496094 4.214844 12.480469 4.207031 12.464844 4.195312 C 12.410156 4.148438 12.339844 4.121094 12.261719 4.109375 C 12.246094 4.105469 12.234375 4.101562 12.21875 4.101562 C 12.214844 4.101562 12.210938 4.097656 12.207031 4.097656 C 12.203125 4.097656 12.199219 4.097656 12.199219 4.097656 C 12.179688 4.097656 12.164062 4.105469 12.148438 4.109375 C 12.078125 4.117188 12.019531 4.144531 11.964844 4.183594 C 11.953125 4.1875 11.941406 4.195312 11.933594 4.203125 C 11.925781 4.207031 11.917969 4.210938 11.914062 4.214844 C 11.898438 4.230469 11.890625 4.246094 11.878906 4.261719 C 11.832031 4.320312 11.804688 4.386719 11.792969 4.464844 C 11.792969 4.476562 11.785156 4.492188 11.785156 4.507812 C 11.785156 4.511719 11.78125 4.515625 11.78125 4.519531 C 11.78125 4.523438 11.785156 4.523438 11.785156 4.527344 C 11.785156 4.546875 11.792969 4.5625 11.792969 4.582031 Z M 11.792969 4.582031 "/>
<path style=" stroke:none;fill-rule:nonzero;fill:rgb(0%,0%,0%);fill-opacity:1;" d="M 24.332031 9.605469 C 29.21875 7.5 25.652344 3.96875 23.578125 8.855469 C 25.652344 3.96875 20.230469 3.96875 22.425781 8.855469 C 20.230469 3.96875 16.816406 7.5 21.703125 9.605469 C 16.816406 7.5 16.816406 12.921875 21.703125 10.753906 C 16.816406 12.921875 20.230469 16.371094 22.425781 11.488281 C 21.515625 13.511719 21.917969 14.695312 22.546875 15.039062 L 22.546875 16.984375 C 22.296875 16.640625 21.992188 16.5 21.679688 16.460938 C 21.140625 16.390625 20.34375 16.804688 19.425781 16.191406 C 19.515625 18.542969 21.558594 19.21875 22.179688 18.824219 C 22.324219 18.730469 22.445312 18.640625 22.546875 18.558594 L 22.546875 20.035156 L 15.972656 20.035156 L 15.972656 19.621094 C 16.054688 19.644531 16.140625 19.667969 16.246094 19.6875 C 16.816406 19.792969 18.109375 18.691406 17.476562 16.949219 C 17.011719 17.632812 16.355469 17.609375 15.972656 17.785156 L 15.972656 17.082031 C 16.242188 16.738281 16.347656 16.058594 15.972656 15.050781 L 15.972656 15.019531 C 17.40625 18.097656 19.699219 15.792969 16.40625 14.332031 C 19.765625 15.820312 19.765625 12.09375 16.40625 13.539062 C 19.765625 12.09375 17.3125 9.664062 15.886719 13.023438 C 17.316406 9.664062 13.585938 9.664062 15.09375 13.023438 C 13.585938 9.664062 11.238281 12.09375 14.597656 13.539062 C 13.738281 13.171875 13.101562 13.140625 12.683594 13.269531 L 12.683594 7.246094 C 13.554688 9.851562 15.132812 8.601562 12.726562 5.246094 C 12.710938 5.253906 12.699219 5.265625 12.683594 5.273438 C 12.570312 5.347656 12.441406 5.417969 12.300781 5.433594 C 12.273438 5.4375 12.242188 5.472656 12.214844 5.472656 C 12.214844 5.472656 12.210938 5.472656 12.210938 5.472656 C 12.210938 5.472656 12.207031 5.445312 12.207031 5.445312 C 12.164062 5.445312 12.128906 5.421875 12.085938 5.417969 C 11.960938 5.402344 11.847656 5.351562 11.742188 5.289062 C 11.703125 5.265625 11.664062 5.234375 11.628906 5.203125 C 8.902344 8.425781 10.78125 9.804688 11.742188 6.929688 L 11.742188 20.035156 L 6.105469 20.035156 L 6.105469 18.003906 C 6.222656 18.109375 6.378906 18.230469 6.570312 18.355469 C 7.191406 18.75 9.238281 18.074219 9.324219 15.722656 C 8.40625 16.335938 7.613281 15.921875 7.070312 15.992188 C 6.71875 16.039062 6.375 16.214844 6.105469 16.667969 L 6.105469 14.964844 C 6.675781 14.542969 7.003906 13.382812 6.195312 11.488281 C 8.273438 16.371094 11.835938 12.921875 6.953125 10.753906 C 11.835938 12.921875 11.835938 7.5 6.953125 9.605469 C 11.835938 7.5 8.273438 3.96875 6.195312 8.855469 C 8.273438 3.96875 2.851562 3.96875 5.046875 8.855469 C 2.851562 3.96875 -0.5625 7.5 4.320312 9.605469 C -0.5625 7.5 -0.5625 12.921875 4.320312 10.753906 C -0.5625 12.921875 2.851562 16.371094 5.046875 11.488281 C 4.136719 13.511719 4.535156 14.695312 5.167969 15.039062 L 5.167969 16.109375 C 5.039062 16.046875 4.90625 16.007812 4.769531 15.992188 C 4.226562 15.921875 3.433594 16.335938 2.515625 15.722656 C 2.597656 17.960938 4.453125 18.679688 5.167969 18.402344 L 5.167969 20.035156 L 0.941406 20.035156 C 0.421875 20.035156 0 20.457031 0 20.976562 L 0 26.613281 C 0 27.132812 0.421875 27.550781 0.941406 27.550781 L 25.367188 27.550781 C 25.886719 27.550781 26.304688 27.132812 26.304688 26.613281 L 26.304688 20.976562 C 26.304688 20.457031 25.886719 20.035156 25.367188 20.035156 L 23.488281 20.035156 L 23.488281 14.964844 C 24.058594 14.542969 24.382812 13.382812 23.578125 11.488281 C 25.652344 16.371094 29.21875 12.921875 24.332031 10.753906 C 29.21875 12.921875 29.21875 7.5 24.332031 9.605469 Z M 4.972656 10.160156 C 4.972656 9.792969 5.265625 9.5 5.628906 9.5 C 5.992188 9.5 6.289062 9.792969 6.289062 10.160156 C 6.289062 10.523438 5.992188 10.816406 5.628906 10.816406 C 5.265625 10.816406 4.972656 10.523438 4.972656 10.160156 Z M 15.890625 13.917969 C 15.890625 14.132812 15.710938 14.3125 15.496094 14.3125 C 15.277344 14.3125 15.101562 14.132812 15.101562 13.917969 C 15.101562 13.699219 15.277344 13.523438 15.496094 13.523438 C 15.710938 13.523438 15.890625 13.699219 15.890625 13.917969 Z M 12.683594 14.625 C 13.101562 14.75 13.738281 14.710938 14.597656 14.332031 C 11.285156 15.800781 13.523438 18.121094 15.03125 14.964844 L 15.03125 14.984375 C 14.5625 16.121094 14.707031 16.851562 15.03125 17.167969 L 15.03125 20.035156 L 12.683594 20.035156 Z M 23.957031 20.976562 C 24.476562 20.976562 24.894531 21.394531 24.894531 21.914062 C 24.894531 22.433594 24.476562 22.855469 23.957031 22.855469 L 2.347656 22.855469 C 1.828125 22.855469 1.410156 22.433594 1.410156 21.914062 C 1.410156 21.394531 1.828125 20.976562 2.347656 20.976562 L 5.167969 20.976562 L 5.167969 22.382812 L 6.105469 22.382812 L 6.105469 20.976562 L 11.742188 20.976562 L 11.742188 22.382812 L 12.683594 22.382812 L 12.683594 20.976562 L 15.03125 20.976562 L 15.03125 22.382812 L 15.972656 22.382812 L 15.972656 20.976562 L 22.546875 20.976562 L 22.546875 22.382812 L 23.488281 22.382812 L 23.488281 20.976562 Z M 23.011719 10.816406 C 22.648438 10.816406 22.351562 10.523438 22.351562 10.160156 C 22.351562 9.796875 22.648438 9.5 23.011719 9.5 C 23.375 9.5 23.667969 9.796875 23.667969 10.160156 C 23.667969 10.523438 23.375 10.816406 23.011719 10.816406 Z M 23.011719 10.816406 "/>
</g>
</svg>
