<?xml version="1.0" encoding="UTF-8"?>
<svg xmlns="http://www.w3.org/2000/svg" xmlns:xlink="http://www.w3.org/1999/xlink" width="28pt" height="28pt" viewBox="0 0 28 28" version="1.1">
<g id="surface1">
<path style=" stroke:none;fill-rule:nonzero;fill:rgb(0%,0%,0%);fill-opacity:1;" d="M 26.945312 5.824219 C 27.277344 5.40625 27.472656 4.878906 27.472656 4.308594 C 27.472656 2.957031 26.375 1.859375 25.023438 1.859375 C 23.675781 1.859375 22.578125 2.957031 22.578125 4.308594 C 22.578125 4.847656 22.753906 5.347656 23.050781 5.753906 C 22.441406 6.246094 22.023438 6.96875 21.933594 7.789062 C 20.289062 6.695312 17.304688 5.085938 14 5.085938 C 10.695312 5.085938 7.714844 6.695312 6.066406 7.789062 C 5.980469 7.003906 5.597656 6.3125 5.03125 5.824219 C 5.359375 5.40625 5.558594 4.878906 5.558594 4.308594 C 5.558594 2.957031 4.460938 1.859375 3.109375 1.859375 C 1.761719 1.859375 0.660156 2.957031 0.660156 4.308594 C 0.660156 4.847656 0.839844 5.347656 1.136719 5.753906 C 0.445312 6.3125 0 7.164062 0 8.117188 L 0 25.339844 C 0 25.792969 0.367188 26.160156 0.820312 26.160156 L 27.179688 26.160156 C 27.632812 26.160156 28 25.792969 28 25.339844 L 28 8.117188 C 28 7.203125 27.589844 6.378906 26.945312 5.824219 Z M 6.085938 13.355469 L 8.8125 13.355469 L 8.8125 20.785156 L 6.085938 20.785156 Z M 10.453125 13.355469 L 13.179688 13.355469 L 13.179688 20.785156 L 10.453125 20.785156 Z M 14.820312 13.355469 L 17.546875 13.355469 L 17.546875 20.785156 L 14.820312 20.785156 Z M 19.1875 13.355469 L 21.914062 13.355469 L 21.914062 20.785156 L 19.1875 20.785156 Z M 21.914062 11.714844 L 19.1875 11.714844 L 19.1875 8.097656 C 20.472656 8.742188 21.457031 9.441406 21.914062 9.792969 Z M 17.546875 11.714844 L 14.820312 11.714844 L 14.820312 6.765625 C 15.773438 6.851562 16.695312 7.089844 17.546875 7.394531 Z M 13.179688 11.714844 L 10.453125 11.714844 L 10.453125 7.390625 C 11.300781 7.085938 12.222656 6.851562 13.179688 6.765625 Z M 8.8125 11.714844 L 6.085938 11.714844 L 6.085938 9.792969 C 6.542969 9.441406 7.523438 8.738281 8.8125 8.09375 Z M 6.085938 22.425781 L 8.8125 22.425781 L 8.8125 24.519531 L 6.085938 24.519531 Z M 10.453125 22.425781 L 13.179688 22.425781 L 13.179688 24.519531 L 10.453125 24.519531 Z M 14.820312 22.425781 L 17.546875 22.425781 L 17.546875 24.519531 L 14.820312 24.519531 Z M 19.1875 22.425781 L 21.914062 22.425781 L 21.914062 24.519531 L 19.1875 24.519531 Z M 25.023438 3.5 C 25.46875 3.5 25.832031 3.863281 25.832031 4.308594 C 25.832031 4.753906 25.46875 5.117188 25.023438 5.117188 C 24.578125 5.117188 24.21875 4.753906 24.21875 4.308594 C 24.21875 3.863281 24.578125 3.5 25.023438 3.5 Z M 3.109375 3.5 C 3.554688 3.5 3.917969 3.863281 3.917969 4.308594 C 3.917969 4.753906 3.554688 5.117188 3.109375 5.117188 C 2.664062 5.117188 2.300781 4.753906 2.300781 4.308594 C 2.300781 3.863281 2.664062 3.5 3.109375 3.5 Z M 1.640625 8.117188 C 1.640625 7.351562 2.265625 6.726562 3.035156 6.726562 L 3.050781 6.726562 C 3.820312 6.726562 4.445312 7.351562 4.445312 8.117188 L 4.445312 24.519531 L 1.640625 24.519531 Z M 26.359375 24.519531 L 23.554688 24.519531 L 23.554688 8.117188 C 23.554688 7.351562 24.179688 6.726562 24.949219 6.726562 L 24.964844 6.726562 C 25.734375 6.726562 26.359375 7.351562 26.359375 8.117188 Z M 26.359375 24.519531 "/>
</g>
</svg>
