<?xml version="1.0" encoding="UTF-8"?>
<svg xmlns="http://www.w3.org/2000/svg" xmlns:xlink="http://www.w3.org/1999/xlink" width="28pt" height="28pt" viewBox="0 0 28 28" version="1.1">
<g id="surface1">
<path style=" stroke:none;fill-rule:nonzero;fill:rgb(0%,0%,0%);fill-opacity:1;" d="M 3.285156 5.332031 L 4.925781 5.332031 L 4.925781 22.667969 L 3.285156 22.667969 Z M 3.285156 5.332031 "/>
<path style=" stroke:none;fill-rule:nonzero;fill:rgb(0%,0%,0%);fill-opacity:1;" d="M 6.566406 5.332031 L 8.207031 5.332031 L 8.207031 22.667969 L 6.566406 22.667969 Z M 6.566406 5.332031 "/>
<path style=" stroke:none;fill-rule:nonzero;fill:rgb(0%,0%,0%);fill-opacity:1;" d="M 9.851562 5.332031 L 11.492188 5.332031 L 11.492188 22.667969 L 9.851562 22.667969 Z M 9.851562 5.332031 "/>
<path style=" stroke:none;fill-rule:nonzero;fill:rgb(0%,0%,0%);fill-opacity:1;" d="M 13.136719 5.332031 L 14.777344 5.332031 L 14.777344 22.667969 L 13.136719 22.667969 Z M 13.136719 5.332031 "/>
<path style=" stroke:none;fill-rule:nonzero;fill:rgb(0%,0%,0%);fill-opacity:1;" d="M 16.421875 5.332031 L 18.0625 5.332031 L 18.0625 22.667969 L 16.421875 22.667969 Z M 16.421875 5.332031 "/>
<path style=" stroke:none;fill-rule:nonzero;fill:rgb(0%,0%,0%);fill-opacity:1;" d="M 19.703125 5.332031 L 21.34375 5.332031 L 21.34375 22.667969 L 19.703125 22.667969 Z M 19.703125 5.332031 "/>
<path style=" stroke:none;fill-rule:nonzero;fill:rgb(0%,0%,0%);fill-opacity:1;" d="M 28 9.851562 L 28 3.691406 L 24.628906 3.691406 L 24.628906 2.046875 L 0 2.046875 L 0 25.953125 L 24.628906 25.953125 L 24.628906 24.308594 L 28 24.308594 L 28 18.148438 L 24.628906 18.148438 L 24.628906 9.851562 Z M 24.628906 5.332031 L 26.359375 5.332031 L 26.359375 8.210938 L 24.628906 8.210938 Z M 22.988281 24.3125 L 1.640625 24.3125 L 1.640625 3.6875 L 22.988281 3.6875 Z M 26.359375 19.789062 L 26.359375 22.667969 L 24.628906 22.667969 L 24.628906 19.789062 Z M 26.359375 19.789062 "/>
</g>
</svg>
