<?xml version="1.0" encoding="UTF-8"?>
<svg xmlns="http://www.w3.org/2000/svg" xmlns:xlink="http://www.w3.org/1999/xlink" width="28pt" height="28pt" viewBox="0 0 28 28" version="1.1">
<g id="surface1">
<path style=" stroke:none;fill-rule:nonzero;fill:rgb(0%,0%,0%);fill-opacity:1;" d="M 27.179688 7.140625 L 25.082031 7.140625 L 25.082031 4.550781 C 25.082031 4.097656 24.710938 3.730469 24.257812 3.730469 C 23.804688 3.730469 23.4375 4.097656 23.4375 4.550781 L 23.4375 7.140625 L 21.390625 7.140625 L 21.390625 4.550781 C 21.390625 4.097656 21.023438 3.730469 20.570312 3.730469 C 20.117188 3.730469 19.75 4.097656 19.75 4.550781 L 19.75 7.140625 L 17.652344 7.140625 C 17.195312 7.140625 16.828125 7.507812 16.828125 7.960938 C 16.828125 8.414062 17.195312 8.78125 17.652344 8.78125 L 18.074219 8.78125 L 18.074219 11.132812 C 18.074219 12.386719 19.09375 13.40625 20.347656 13.40625 L 21.59375 13.40625 L 21.59375 20.558594 C 21.59375 21.75 20.625 22.71875 19.433594 22.71875 L 10.929688 22.71875 C 10.03125 22.71875 9.257812 22.167969 8.933594 21.382812 L 12.957031 21.382812 C 13.589844 21.382812 14.101562 20.871094 14.101562 20.238281 L 14.101562 12.867188 L 14.378906 13.203125 C 14.539062 13.398438 14.773438 13.5 15.011719 13.5 C 15.195312 13.5 15.382812 13.4375 15.535156 13.3125 C 15.882812 13.019531 15.933594 12.503906 15.644531 12.152344 L 13.34375 9.375 L 13.34375 5.480469 C 13.34375 4.859375 12.835938 4.351562 12.214844 4.351562 L 10.917969 4.351562 C 10.414062 4.351562 9.988281 4.683594 9.84375 5.144531 L 9.03125 4.164062 C 8.753906 3.828125 8.347656 3.636719 7.917969 3.636719 C 7.484375 3.636719 7.078125 3.828125 6.800781 4.164062 L 0.1875 12.152344 C -0.101562 12.503906 -0.0507812 13.019531 0.296875 13.3125 C 0.648438 13.601562 1.164062 13.550781 1.453125 13.203125 L 1.742188 12.851562 L 1.742188 20.238281 C 1.742188 20.871094 2.257812 21.382812 2.886719 21.382812 L 7.21875 21.382812 C 7.59375 23.085938 9.117188 24.363281 10.929688 24.363281 L 19.433594 24.363281 C 21.53125 24.363281 23.234375 22.65625 23.234375 20.5625 L 23.234375 13.40625 L 24.480469 13.40625 C 25.734375 13.40625 26.753906 12.386719 26.753906 11.132812 L 26.753906 8.78125 L 27.179688 8.78125 C 27.632812 8.78125 28 8.414062 28 7.960938 C 28 7.507812 27.632812 7.140625 27.179688 7.140625 Z M 11.433594 5.996094 L 11.699219 5.996094 L 11.699219 7.386719 L 11.433594 7.066406 Z M 3.386719 19.738281 L 3.386719 10.867188 L 7.917969 5.390625 L 12.457031 10.882812 L 12.457031 19.738281 Z M 25.109375 11.132812 C 25.109375 11.480469 24.828125 11.765625 24.480469 11.765625 L 20.347656 11.765625 C 20 11.765625 19.71875 11.480469 19.71875 11.132812 L 19.71875 8.78125 L 25.109375 8.78125 Z M 25.109375 11.132812 "/>
<path style=" stroke:none;fill-rule:nonzero;fill:rgb(0%,0%,0%);fill-opacity:1;" d="M 8.96875 11.855469 L 6.867188 11.855469 C 6.09375 11.855469 5.46875 12.484375 5.46875 13.253906 L 5.46875 16.316406 C 5.46875 17.085938 6.09375 17.714844 6.867188 17.714844 L 8.96875 17.714844 C 9.738281 17.714844 10.363281 17.085938 10.363281 16.316406 L 10.363281 13.253906 C 10.363281 12.484375 9.738281 11.855469 8.96875 11.855469 Z M 7.109375 16.070312 L 7.109375 13.5 L 8.722656 13.5 L 8.722656 16.070312 Z M 7.109375 16.070312 "/>
</g>
</svg>
