<?xml version="1.0" encoding="UTF-8"?>
<svg xmlns="http://www.w3.org/2000/svg" xmlns:xlink="http://www.w3.org/1999/xlink" width="28pt" height="28pt" viewBox="0 0 28 28" version="1.1">
<g id="surface1">
<path style=" stroke:none;fill-rule:nonzero;fill:rgb(0%,0%,0%);fill-opacity:1;" d="M 27.765625 17.976562 L 23.328125 14.628906 L 23.328125 13.285156 C 23.328125 13.101562 23.238281 12.929688 23.09375 12.816406 L 14.355469 6.226562 C 14.144531 6.070312 13.855469 6.070312 13.644531 6.226562 L 4.90625 12.816406 C 4.761719 12.929688 4.671875 13.101562 4.671875 13.285156 L 4.671875 14.628906 L 0.234375 17.976562 C 0.0859375 18.089844 0 18.261719 0 18.449219 L 0 24.382812 C 0 24.707031 0.261719 24.96875 0.585938 24.96875 L 27.414062 24.96875 C 27.738281 24.96875 28 24.707031 28 24.382812 L 28 18.449219 C 28 18.261719 27.914062 18.089844 27.765625 17.976562 Z M 14.636719 23.792969 L 13.363281 23.792969 L 13.363281 20.832031 L 14.636719 20.832031 Z M 15.808594 23.792969 L 15.808594 20.246094 C 15.808594 19.921875 15.546875 19.660156 15.222656 19.660156 L 12.777344 19.660156 C 12.453125 19.660156 12.191406 19.921875 12.191406 20.246094 L 12.191406 23.792969 L 5.847656 23.792969 L 5.847656 13.578125 L 14 7.429688 L 22.152344 13.578125 L 22.152344 23.792969 Z M 1.175781 18.738281 L 4.671875 16.101562 L 4.671875 23.792969 L 1.175781 23.792969 Z M 26.824219 23.792969 L 23.328125 23.792969 L 23.328125 16.101562 L 26.824219 18.738281 Z M 26.824219 23.792969 "/>
<path style=" stroke:none;fill-rule:nonzero;fill:rgb(0%,0%,0%);fill-opacity:1;" d="M 0.941406 14.203125 L 14 4.355469 L 27.058594 14.203125 C 27.164062 14.28125 27.289062 14.320312 27.414062 14.320312 C 27.589844 14.320312 27.765625 14.238281 27.882812 14.085938 C 28.078125 13.828125 28.023438 13.460938 27.765625 13.265625 L 14.355469 3.148438 C 14.144531 2.992188 13.855469 2.992188 13.644531 3.148438 L 0.234375 13.265625 C -0.0234375 13.460938 -0.078125 13.828125 0.117188 14.085938 C 0.3125 14.347656 0.683594 14.398438 0.941406 14.203125 Z M 0.941406 14.203125 "/>
</g>
</svg>
