<?xml version="1.0" encoding="UTF-8"?>
<svg xmlns="http://www.w3.org/2000/svg" xmlns:xlink="http://www.w3.org/1999/xlink" width="28pt" height="28pt" viewBox="0 0 28 28" version="1.1">
<g id="surface1">
<path style=" stroke:none;fill-rule:nonzero;fill:rgb(0%,0%,0%);fill-opacity:1;" d="M 25.375 24.9375 L 24.9375 24.9375 L 24.9375 15.3125 C 24.9375 15.070312 24.742188 14.875 24.5 14.875 L 22.3125 14.875 L 22.3125 10.9375 C 22.3125 10.765625 22.214844 10.613281 22.058594 10.539062 L 16.625 8.03125 L 16.625 5.6875 C 16.625 5.445312 16.429688 5.25 16.1875 5.25 L 7.4375 5.25 C 7.195312 5.25 7 5.445312 7 5.6875 L 7 24.9375 L 4.375 24.9375 L 4.375 24.460938 C 5.277344 24.3125 6.039062 23.699219 6.378906 22.851562 C 6.714844 22 6.585938 21.035156 6.035156 20.304688 C 6.253906 19.566406 6.066406 18.761719 5.539062 18.199219 C 5.636719 17.980469 5.6875 17.742188 5.6875 17.5 C 5.6875 16.535156 4.902344 15.75 3.9375 15.75 C 2.972656 15.75 2.1875 16.535156 2.1875 17.5 C 2.1875 17.742188 2.238281 17.980469 2.335938 18.203125 C 1.808594 18.765625 1.621094 19.566406 1.839844 20.304688 C 1.289062 21.035156 1.160156 22 1.5 22.851562 C 1.839844 23.699219 2.597656 24.3125 3.5 24.460938 L 3.5 24.9375 L 0.875 24.9375 C 0.632812 24.9375 0.4375 25.132812 0.4375 25.375 C 0.4375 25.617188 0.632812 25.8125 0.875 25.8125 L 25.375 25.8125 C 25.617188 25.8125 25.8125 25.617188 25.8125 25.375 C 25.8125 25.132812 25.617188 24.9375 25.375 24.9375 Z M 2.1875 21.875 C 2.1875 21.433594 2.359375 21.011719 2.660156 20.691406 C 2.777344 20.5625 2.808594 20.375 2.738281 20.214844 C 2.488281 19.65625 2.664062 19 3.15625 18.640625 C 3.351562 18.496094 3.390625 18.222656 3.246094 18.027344 C 3.128906 17.875 3.0625 17.691406 3.0625 17.5 C 3.0625 17.015625 3.453125 16.625 3.9375 16.625 C 4.421875 16.625 4.8125 17.015625 4.8125 17.5 C 4.8125 17.691406 4.746094 17.875 4.632812 18.023438 C 4.488281 18.21875 4.527344 18.492188 4.71875 18.636719 C 5.210938 18.996094 5.386719 19.65625 5.136719 20.210938 C 5.066406 20.371094 5.097656 20.558594 5.21875 20.6875 C 5.640625 21.136719 5.792969 21.773438 5.621094 22.367188 C 5.445312 22.957031 4.972656 23.414062 4.375 23.5625 L 4.375 22.3125 C 4.375 22.070312 4.179688 21.875 3.9375 21.875 C 3.695312 21.875 3.5 22.070312 3.5 22.3125 L 3.5 23.5625 C 2.730469 23.363281 2.191406 22.671875 2.1875 21.875 Z M 21.4375 11.21875 L 21.4375 14.875 L 16.625 14.875 L 16.625 8.996094 Z M 7.875 6.125 L 15.75 6.125 L 15.75 24.9375 L 7.875 24.9375 Z M 18.375 24.9375 L 18.375 20.5625 L 22.3125 20.5625 L 22.3125 24.9375 Z M 23.1875 24.9375 L 23.1875 20.125 C 23.1875 19.882812 22.992188 19.6875 22.75 19.6875 L 17.9375 19.6875 C 17.695312 19.6875 17.5 19.882812 17.5 20.125 L 17.5 24.9375 L 16.625 24.9375 L 16.625 15.75 L 24.0625 15.75 L 24.0625 24.9375 Z M 23.1875 24.9375 "/>
<path style=" stroke:none;fill-rule:nonzero;fill:rgb(0%,0%,0%);fill-opacity:1;" d="M 27.125 24.9375 L 26.6875 24.9375 C 26.445312 24.9375 26.25 25.132812 26.25 25.375 C 26.25 25.617188 26.445312 25.8125 26.6875 25.8125 L 27.125 25.8125 C 27.367188 25.8125 27.5625 25.617188 27.5625 25.375 C 27.5625 25.132812 27.367188 24.9375 27.125 24.9375 Z M 27.125 24.9375 "/>
<path style=" stroke:none;fill-rule:nonzero;fill:rgb(0%,0%,0%);fill-opacity:1;" d="M 14 7 L 9.625 7 C 9.382812 7 9.1875 7.195312 9.1875 7.4375 L 9.1875 13.5625 C 9.1875 13.804688 9.382812 14 9.625 14 L 14 14 C 14.242188 14 14.4375 13.804688 14.4375 13.5625 L 14.4375 7.4375 C 14.4375 7.195312 14.242188 7 14 7 Z M 10.0625 13.125 L 10.0625 7.875 L 11.375 7.875 L 11.375 13.125 Z M 13.5625 13.125 L 12.25 13.125 L 12.25 7.875 L 13.5625 7.875 Z M 13.5625 13.125 "/>
<path style=" stroke:none;fill-rule:nonzero;fill:rgb(0%,0%,0%);fill-opacity:1;" d="M 14 14.875 L 9.625 14.875 C 9.382812 14.875 9.1875 15.070312 9.1875 15.3125 L 9.1875 21.4375 C 9.1875 21.679688 9.382812 21.875 9.625 21.875 L 14 21.875 C 14.242188 21.875 14.4375 21.679688 14.4375 21.4375 L 14.4375 15.3125 C 14.4375 15.070312 14.242188 14.875 14 14.875 Z M 10.0625 21 L 10.0625 15.75 L 11.375 15.75 L 11.375 21 Z M 13.5625 21 L 12.25 21 L 12.25 15.75 L 13.5625 15.75 Z M 13.5625 21 "/>
<path style=" stroke:none;fill-rule:nonzero;fill:rgb(0%,0%,0%);fill-opacity:1;" d="M 22.75 16.625 L 17.9375 16.625 C 17.695312 16.625 17.5 16.820312 17.5 17.0625 L 17.5 18.8125 C 17.5 19.054688 17.695312 19.25 17.9375 19.25 L 22.75 19.25 C 22.992188 19.25 23.1875 19.054688 23.1875 18.8125 L 23.1875 17.0625 C 23.1875 16.820312 22.992188 16.625 22.75 16.625 Z M 22.3125 18.375 L 18.375 18.375 L 18.375 17.5 L 22.3125 17.5 Z M 22.3125 18.375 "/>
<path style=" stroke:none;fill-rule:nonzero;fill:rgb(0%,0%,0%);fill-opacity:1;" d="M 24.445312 4.820312 C 24.273438 4.128906 23.695312 3.613281 22.988281 3.515625 C 22.28125 3.417969 21.585938 3.765625 21.234375 4.386719 C 20.3125 4.496094 19.636719 5.300781 19.6875 6.226562 C 19.742188 7.152344 20.511719 7.875 21.4375 7.875 L 24.5 7.875 C 24.578125 7.875 24.652344 7.851562 24.71875 7.8125 C 25.417969 7.605469 25.871094 6.933594 25.808594 6.207031 C 25.742188 5.480469 25.171875 4.902344 24.449219 4.820312 Z M 24.414062 6.988281 C 24.394531 6.992188 24.378906 6.996094 24.363281 7 L 21.4375 7 C 20.953125 7.003906 20.558594 6.617188 20.554688 6.132812 C 20.550781 5.648438 20.9375 5.253906 21.421875 5.25 L 21.488281 5.257812 C 21.683594 5.273438 21.867188 5.152344 21.929688 4.964844 C 22.066406 4.5625 22.472656 4.320312 22.890625 4.386719 C 23.308594 4.453125 23.617188 4.808594 23.625 5.230469 C 23.625 5.246094 23.621094 5.261719 23.621094 5.273438 C 23.621094 5.402344 23.683594 5.527344 23.785156 5.609375 C 23.886719 5.695312 24.019531 5.726562 24.148438 5.699219 C 24.339844 5.664062 24.539062 5.714844 24.691406 5.839844 C 24.84375 5.964844 24.933594 6.148438 24.9375 6.34375 C 24.9375 6.65625 24.71875 6.925781 24.414062 6.988281 Z M 24.414062 6.988281 "/>
</g>
</svg>
