<?xml version="1.0" encoding="UTF-8"?>
<svg xmlns="http://www.w3.org/2000/svg" xmlns:xlink="http://www.w3.org/1999/xlink" width="28pt" height="28pt" viewBox="0 0 28 28" version="1.1">
<g id="surface1">
<path style=" stroke:none;fill-rule:nonzero;fill:rgb(0%,0%,0%);fill-opacity:1;" d="M 20.433594 5.925781 C 20.433594 2.660156 17.777344 0 14.507812 0 C 11.242188 0 8.582031 2.660156 8.582031 5.925781 L 8.582031 6.628906 C 8.582031 7.082031 8.953125 7.449219 9.40625 7.449219 L 12.179688 7.449219 C 12.632812 7.449219 13.003906 7.082031 13.003906 6.628906 L 13.003906 5.925781 C 13.003906 5.09375 13.679688 4.417969 14.507812 4.417969 C 15.339844 4.417969 16.015625 5.09375 16.015625 5.925781 L 16.015625 7.527344 C 16.015625 8.105469 15.625 8.617188 15.066406 8.769531 L 8.171875 10.628906 C 7.8125 10.726562 7.566406 11.050781 7.566406 11.421875 L 7.566406 27.175781 C 7.566406 27.632812 7.933594 28 8.386719 28 L 19.613281 28 C 19.832031 28 20.039062 27.914062 20.195312 27.757812 C 20.347656 27.605469 20.433594 27.394531 20.433594 27.175781 Z M 9.210938 26.355469 L 9.210938 12.054688 L 15.496094 10.355469 C 16.769531 10.011719 17.660156 8.847656 17.660156 7.527344 L 17.660156 5.925781 C 17.660156 4.1875 16.246094 2.773438 14.507812 2.773438 C 12.8125 2.773438 11.421875 4.121094 11.359375 5.804688 L 10.230469 5.804688 C 10.292969 3.5 12.1875 1.644531 14.507812 1.644531 C 16.871094 1.644531 18.789062 3.566406 18.789062 5.925781 L 18.789062 26.355469 Z M 9.210938 26.355469 "/>
<path style=" stroke:none;fill-rule:nonzero;fill:rgb(0%,0%,0%);fill-opacity:1;" d="M 14 13.832031 C 12.609375 13.832031 11.371094 14.496094 10.582031 15.527344 C 10.570312 15.539062 10.558594 15.554688 10.546875 15.570312 C 10.535156 15.585938 10.523438 15.605469 10.511719 15.625 C 10.003906 16.332031 9.703125 17.195312 9.703125 18.128906 C 9.703125 20.496094 11.628906 22.425781 14 22.425781 C 15.386719 22.425781 16.621094 21.765625 17.40625 20.746094 C 17.417969 20.730469 17.429688 20.71875 17.441406 20.703125 C 17.453125 20.6875 17.460938 20.671875 17.472656 20.65625 C 17.992188 19.945312 18.296875 19.070312 18.296875 18.128906 C 18.296875 15.757812 16.371094 13.832031 14 13.832031 Z M 14 20.78125 C 12.539062 20.78125 11.347656 19.589844 11.347656 18.128906 C 11.347656 17.835938 11.394531 17.554688 11.484375 17.292969 L 15.523438 20.296875 C 15.089844 20.601562 14.566406 20.78125 14 20.78125 Z M 16.511719 18.984375 L 12.464844 15.96875 C 12.898438 15.660156 13.425781 15.476562 14 15.476562 C 15.460938 15.476562 16.652344 16.664062 16.652344 18.128906 C 16.652344 18.425781 16.601562 18.714844 16.511719 18.984375 Z M 16.511719 18.984375 "/>
</g>
</svg>
