<?xml version="1.0" encoding="UTF-8"?>
<svg xmlns="http://www.w3.org/2000/svg" xmlns:xlink="http://www.w3.org/1999/xlink" width="28pt" height="28pt" viewBox="0 0 28 28" version="1.1">
<g id="surface1">
<path style=" stroke:none;fill-rule:nonzero;fill:rgb(0%,0%,0%);fill-opacity:1;" d="M 27.960938 18.621094 C 27.195312 14.269531 25.847656 10.035156 23.964844 6.035156 C 23.542969 5.140625 22.632812 4.585938 21.648438 4.625 C 19.769531 4.695312 17.976562 5.09375 16.292969 5.8125 C 16.285156 5.710938 16.28125 5.613281 16.269531 5.511719 C 15.9375 2.527344 13.238281 0.371094 10.253906 0.707031 C 7.847656 0.972656 5.941406 2.785156 5.507812 5.113281 L 4.128906 4.761719 C 3.253906 4.539062 2.359375 5.007812 2.050781 5.855469 L 0.148438 11.03125 C -0.0234375 11.496094 0.0117188 12.015625 0.242188 12.453125 C 0.46875 12.890625 0.878906 13.210938 1.355469 13.332031 L 2.90625 13.730469 L 2.761719 15.78125 L 1.945312 17.21875 C 1.90625 17.292969 1.882812 17.371094 1.878906 17.453125 L 1.769531 19.625 L 1.152344 20.425781 C 1.089844 20.503906 1.050781 20.605469 1.042969 20.707031 L 0.851562 23.261719 L 0.0742188 24.558594 C -0.0351562 24.742188 -0.0234375 24.972656 0.105469 25.144531 L 1.578125 27.117188 C 1.679688 27.253906 1.839844 27.328125 2 27.328125 C 2.054688 27.328125 2.109375 27.320312 2.164062 27.300781 L 4.910156 26.410156 C 5.082031 26.351562 5.210938 26.214844 5.257812 26.039062 L 8.0625 15.046875 L 9.53125 15.421875 C 9.671875 15.457031 9.820312 15.476562 9.964844 15.476562 C 10.304688 15.476562 10.644531 15.375 10.933594 15.183594 C 11.347656 14.910156 11.625 14.472656 11.695312 13.980469 L 12.078125 11.421875 C 12.449219 11.335938 12.804688 11.214844 13.140625 11.058594 C 13.9375 14.886719 15.183594 18.613281 16.851562 22.152344 C 17.261719 23.019531 18.125 23.566406 19.074219 23.566406 C 19.105469 23.566406 19.136719 23.566406 19.167969 23.5625 C 21.953125 23.457031 24.550781 22.632812 26.886719 21.113281 C 27.710938 20.574219 28.132812 19.597656 27.960938 18.621094 Z M 5.777344 8.101562 C 5.78125 8.101562 5.785156 8.101562 5.789062 8.101562 C 5.921875 8.441406 6.089844 8.769531 6.289062 9.074219 C 6.386719 9.230469 6.558594 9.316406 6.730469 9.316406 C 6.828125 9.316406 6.925781 9.289062 7.015625 9.230469 C 7.261719 9.070312 7.328125 8.746094 7.171875 8.5 C 7.15625 8.476562 7.140625 8.453125 7.125 8.425781 L 8.027344 8.65625 C 8.328125 8.734375 8.511719 9.039062 8.433594 9.339844 C 8.355469 9.640625 8.050781 9.824219 7.75 9.746094 L 5.640625 9.207031 C 5.496094 9.171875 5.371094 9.078125 5.296875 8.949219 C 5.21875 8.820312 5.199219 8.667969 5.234375 8.523438 C 5.273438 8.378906 5.363281 8.257812 5.492188 8.179688 C 5.582031 8.128906 5.679688 8.101562 5.777344 8.101562 Z M 1.820312 23.695312 C 1.863281 23.625 1.886719 23.546875 1.894531 23.464844 L 2.082031 20.945312 L 2.707031 20.140625 C 2.773438 20.054688 2.808594 19.949219 2.816406 19.84375 L 2.925781 17.628906 L 3.738281 16.199219 C 3.777344 16.128906 3.800781 16.054688 3.804688 15.976562 L 3.945312 13.996094 L 4.679688 14.183594 L 1.761719 25.605469 L 1.160156 24.796875 Z M 7.042969 14.785156 L 4.308594 25.496094 L 2.75 26.003906 L 5.703125 14.441406 L 6.601562 14.671875 Z M 10.65625 13.828125 C 10.625 14.023438 10.515625 14.195312 10.351562 14.304688 C 10.183594 14.417969 9.984375 14.449219 9.792969 14.398438 L 1.617188 12.3125 C 1.425781 12.261719 1.265625 12.136719 1.171875 11.960938 C 1.078125 11.785156 1.066406 11.582031 1.136719 11.394531 L 3.039062 6.21875 C 3.164062 5.878906 3.519531 5.695312 3.867188 5.78125 L 5.414062 6.175781 C 5.417969 6.359375 5.429688 6.539062 5.449219 6.71875 C 5.460938 6.835938 5.480469 6.957031 5.5 7.074219 C 5.3125 7.105469 5.125 7.171875 4.957031 7.273438 C 4.585938 7.492188 4.320312 7.84375 4.214844 8.261719 C 4.109375 8.679688 4.171875 9.117188 4.390625 9.488281 C 4.609375 9.859375 4.960938 10.121094 5.378906 10.226562 L 7.488281 10.765625 C 7.621094 10.800781 7.757812 10.816406 7.890625 10.816406 C 8.179688 10.816406 8.460938 10.742188 8.714844 10.589844 C 9.085938 10.371094 9.347656 10.019531 9.453125 9.601562 C 9.5625 9.183594 9.5 8.75 9.277344 8.378906 C 9.058594 8.007812 8.707031 7.742188 8.289062 7.636719 L 6.605469 7.207031 C 6.554688 7.007812 6.519531 6.804688 6.496094 6.601562 C 6.488281 6.550781 6.484375 6.5 6.480469 6.449219 L 10.949219 7.589844 C 11.296875 7.679688 11.519531 8.015625 11.46875 8.371094 Z M 12.246094 10.28125 L 12.507812 8.527344 C 12.640625 7.632812 12.082031 6.792969 11.210938 6.570312 L 6.53125 5.375 C 6.855469 3.464844 8.40625 1.972656 10.371094 1.753906 C 12.777344 1.484375 14.953125 3.222656 15.222656 5.628906 C 15.246094 5.855469 15.253906 6.082031 15.242188 6.308594 C 14.796875 6.539062 14.359375 6.796875 13.929688 7.078125 C 13.105469 7.613281 12.683594 8.589844 12.855469 9.566406 C 12.878906 9.707031 12.90625 9.847656 12.933594 9.988281 C 12.714844 10.105469 12.484375 10.203125 12.246094 10.28125 Z M 26.3125 20.230469 C 24.136719 21.644531 21.722656 22.414062 19.128906 22.511719 C 18.566406 22.53125 18.046875 22.214844 17.804688 21.703125 C 16.121094 18.128906 14.878906 14.363281 14.101562 10.492188 C 14.707031 10.042969 15.21875 9.464844 15.601562 8.785156 C 15.746094 8.53125 15.65625 8.210938 15.402344 8.066406 C 15.148438 7.921875 14.828125 8.011719 14.683594 8.265625 C 14.464844 8.65625 14.195312 9.003906 13.878906 9.300781 C 13.816406 8.769531 14.058594 8.25 14.503906 7.960938 C 16.679688 6.542969 19.09375 5.773438 21.6875 5.675781 C 21.707031 5.675781 21.722656 5.675781 21.742188 5.675781 C 22.28125 5.675781 22.777344 5.988281 23.011719 6.484375 C 24.855469 10.398438 26.171875 14.542969 26.925781 18.804688 C 27.023438 19.363281 26.78125 19.921875 26.3125 20.230469 Z M 26.3125 20.230469 "/>
<path style=" stroke:none;fill-rule:nonzero;fill:rgb(0%,0%,0%);fill-opacity:1;" d="M 25.160156 16.609375 C 24.976562 16.042969 24.371094 15.726562 23.800781 15.90625 L 18.683594 17.535156 C 18.117188 17.714844 17.800781 18.324219 17.980469 18.890625 L 18.46875 20.425781 C 18.613281 20.886719 19.042969 21.179688 19.5 21.179688 C 19.609375 21.179688 19.71875 21.164062 19.824219 21.128906 L 24.945312 19.503906 C 25.511719 19.320312 25.828125 18.714844 25.644531 18.144531 Z M 19.507812 20.125 C 19.492188 20.128906 19.476562 20.121094 19.472656 20.105469 L 18.984375 18.570312 C 18.980469 18.558594 18.988281 18.542969 19.003906 18.539062 L 21.058594 17.882812 L 21.5625 19.46875 Z M 24.625 18.496094 L 22.566406 19.152344 L 22.0625 17.566406 L 24.121094 16.910156 C 24.125 16.910156 24.125 16.910156 24.128906 16.910156 C 24.140625 16.910156 24.152344 16.917969 24.152344 16.929688 L 24.640625 18.464844 C 24.644531 18.480469 24.636719 18.492188 24.625 18.496094 Z M 24.625 18.496094 "/>
<path style=" stroke:none;fill-rule:nonzero;fill:rgb(0%,0%,0%);fill-opacity:1;" d="M 16.511719 11.347656 L 22.003906 9.601562 C 22.28125 9.515625 22.433594 9.21875 22.34375 8.941406 C 22.257812 8.664062 21.960938 8.511719 21.683594 8.597656 L 16.195312 10.34375 C 15.917969 10.429688 15.761719 10.726562 15.851562 11.003906 C 15.921875 11.226562 16.128906 11.371094 16.351562 11.371094 C 16.40625 11.371094 16.460938 11.363281 16.511719 11.347656 Z M 16.511719 11.347656 "/>
<path style=" stroke:none;fill-rule:nonzero;fill:rgb(0%,0%,0%);fill-opacity:1;" d="M 22.855469 10.546875 C 22.769531 10.269531 22.472656 10.117188 22.195312 10.203125 L 16.703125 11.949219 C 16.425781 12.035156 16.273438 12.332031 16.363281 12.609375 C 16.433594 12.835938 16.640625 12.976562 16.863281 12.976562 C 16.917969 12.976562 16.96875 12.96875 17.023438 12.953125 L 22.511719 11.207031 C 22.789062 11.121094 22.945312 10.824219 22.855469 10.546875 Z M 22.855469 10.546875 "/>
</g>
</svg>
