<?xml version="1.0" encoding="UTF-8"?>
<svg xmlns="http://www.w3.org/2000/svg" xmlns:xlink="http://www.w3.org/1999/xlink" width="28pt" height="28pt" viewBox="0 0 28 28" version="1.1">
<g id="surface1">
<path style=" stroke:none;fill-rule:nonzero;fill:rgb(0%,0%,0%);fill-opacity:1;" d="M 19.792969 0 C 15.269531 0 11.585938 3.679688 11.585938 8.207031 C 11.585938 9.75 12.023438 11.1875 12.765625 12.421875 L 0.28125 24.902344 C -0.09375 25.28125 -0.09375 25.890625 0.28125 26.269531 C 0.472656 26.457031 0.71875 26.550781 0.964844 26.550781 C 1.210938 26.550781 1.460938 26.457031 1.648438 26.269531 L 3.378906 24.539062 L 6.558594 27.71875 C 6.746094 27.90625 6.996094 28 7.242188 28 C 7.488281 28 7.734375 27.90625 7.925781 27.71875 C 8.300781 27.339844 8.300781 26.730469 7.925781 26.351562 L 4.746094 23.171875 L 5.792969 22.125 L 8.007812 24.335938 C 8.195312 24.527344 8.441406 24.621094 8.691406 24.621094 C 8.9375 24.621094 9.183594 24.527344 9.371094 24.335938 C 9.75 23.960938 9.75 23.347656 9.371094 22.972656 L 7.160156 20.757812 L 8.207031 19.710938 L 11.386719 22.890625 C 11.574219 23.078125 11.820312 23.171875 12.070312 23.171875 C 12.316406 23.171875 12.5625 23.078125 12.75 22.890625 C 13.128906 22.511719 13.128906 21.902344 12.75 21.523438 L 9.570312 18.34375 L 13.953125 13.964844 C 15.441406 15.472656 17.507812 16.414062 19.792969 16.414062 C 24.320312 16.414062 28 12.730469 28 8.207031 C 28 3.679688 24.320312 0 19.792969 0 Z M 19.792969 14.484375 C 16.332031 14.484375 13.515625 11.667969 13.515625 8.207031 C 13.515625 4.746094 16.332031 1.929688 19.792969 1.929688 C 23.253906 1.929688 26.070312 4.746094 26.070312 8.207031 C 26.070312 11.667969 23.253906 14.484375 19.792969 14.484375 Z M 19.792969 14.484375 "/>
</g>
</svg>
