<?xml version="1.0" encoding="UTF-8"?>
<svg xmlns="http://www.w3.org/2000/svg" xmlns:xlink="http://www.w3.org/1999/xlink" width="28pt" height="28pt" viewBox="0 0 28 28" version="1.1">
<g id="surface1">
<path style=" stroke:none;fill-rule:nonzero;fill:rgb(0%,0%,0%);fill-opacity:1;" d="M 27.488281 23.136719 C 27.476562 22.964844 27.398438 22.796875 27.269531 22.671875 L 16.242188 11.644531 C 16.675781 10.621094 16.90625 9.515625 16.90625 8.371094 C 16.90625 6.136719 16.035156 4.03125 14.457031 2.449219 C 12.875 0.871094 10.773438 0 8.539062 0 C 6.300781 0 4.203125 0.871094 2.617188 2.453125 C -0.648438 5.714844 -0.648438 11.023438 2.617188 14.289062 C 4.199219 15.871094 6.300781 16.742188 8.535156 16.742188 C 9.679688 16.742188 10.785156 16.511719 11.808594 16.078125 L 15.429688 19.703125 C 15.582031 19.851562 15.78125 19.929688 15.996094 19.925781 L 17.96875 19.855469 L 17.90625 21.835938 C 17.898438 22.042969 17.972656 22.246094 18.125 22.394531 C 18.273438 22.542969 18.476562 22.625 18.683594 22.617188 L 20.664062 22.546875 L 20.59375 24.523438 C 20.589844 24.734375 20.667969 24.9375 20.816406 25.085938 C 20.964844 25.234375 21.140625 25.316406 21.378906 25.308594 L 23.355469 25.242188 L 23.289062 27.21875 C 23.277344 27.4375 23.371094 27.648438 23.527344 27.796875 C 23.671875 27.929688 23.851562 28 24.042969 28 C 24.070312 28 24.097656 28 24.125 27.996094 L 27.15625 27.660156 C 27.566406 27.613281 27.863281 27.25 27.828125 26.839844 Z M 7.527344 7.359375 C 6.59375 8.289062 5.089844 8.289062 4.160156 7.359375 C 3.230469 6.429688 3.230469 4.925781 4.160156 3.996094 C 5.089844 3.066406 6.59375 3.066406 7.527344 3.996094 C 8.457031 4.925781 8.453125 6.429688 7.527344 7.359375 Z M 24.902344 23.390625 C 24.792969 23.5 24.644531 23.554688 24.5 23.554688 C 24.355469 23.554688 24.207031 23.5 24.097656 23.390625 L 14.714844 14.003906 C 14.976562 13.722656 15.210938 13.425781 15.429688 13.113281 L 24.902344 22.585938 C 25.125 22.808594 25.125 23.167969 24.902344 23.390625 Z M 24.902344 23.390625 "/>
</g>
</svg>
