<?xml version="1.0" encoding="UTF-8"?>
<svg xmlns="http://www.w3.org/2000/svg" xmlns:xlink="http://www.w3.org/1999/xlink" width="28pt" height="28pt" viewBox="0 0 28 28" version="1.1">
<g id="surface1">
<path style=" stroke:none;fill-rule:nonzero;fill:rgb(0%,0%,0%);fill-opacity:1;" d="M 25.644531 0 L 20.113281 0 C 19.757812 0 19.441406 0.160156 19.226562 0.410156 L 17.839844 0.410156 C 17.789062 0.410156 17.742188 0.410156 17.695312 0.410156 C 16.507812 0.449219 15.398438 0.9375 14.570312 1.792969 C 14.355469 2.015625 14.164062 2.253906 14 2.511719 C 13.835938 2.253906 13.644531 2.015625 13.429688 1.792969 C 12.601562 0.9375 11.492188 0.449219 10.308594 0.410156 C 10.257812 0.410156 10.210938 0.410156 10.160156 0.410156 L 8.773438 0.410156 C 8.558594 0.160156 8.242188 0 7.886719 0 L 2.355469 0 C 1.710938 0 1.1875 0.523438 1.1875 1.171875 L 1.1875 2.652344 L 1.554688 2.652344 C 1.554688 3.695312 2.714844 4.511719 4.195312 4.511719 C 5.679688 4.511719 6.839844 3.695312 6.839844 2.652344 L 9.054688 2.652344 L 9.054688 1.839844 L 10.160156 1.839844 C 10.195312 1.839844 10.226562 1.839844 10.261719 1.839844 C 11.957031 1.894531 13.285156 3.265625 13.285156 4.964844 L 13.285156 26.195312 L 11.109375 26.195312 L 11.109375 28 L 16.890625 28 L 16.890625 26.195312 L 14.714844 26.195312 L 14.714844 4.964844 C 14.714844 3.265625 16.042969 1.894531 17.738281 1.839844 C 17.773438 1.839844 17.804688 1.839844 17.839844 1.839844 L 18.945312 1.839844 L 18.945312 2.652344 L 21.160156 2.652344 C 21.160156 3.695312 22.320312 4.511719 23.804688 4.511719 C 25.285156 4.511719 26.445312 3.695312 26.445312 2.652344 L 26.8125 2.652344 L 26.8125 1.171875 C 26.8125 0.523438 26.289062 0 25.644531 0 Z M 4.195312 3.867188 C 3.113281 3.867188 2.199219 3.3125 2.199219 2.652344 L 6.195312 2.652344 C 6.195312 3.3125 5.28125 3.867188 4.195312 3.867188 Z M 23.804688 3.867188 C 22.71875 3.867188 21.804688 3.3125 21.804688 2.652344 L 25.800781 2.652344 C 25.800781 3.3125 24.886719 3.867188 23.804688 3.867188 Z M 23.804688 3.867188 "/>
</g>
</svg>
