<?xml version="1.0" encoding="UTF-8"?>
<svg xmlns="http://www.w3.org/2000/svg" xmlns:xlink="http://www.w3.org/1999/xlink" width="28pt" height="28pt" viewBox="0 0 28 28" version="1.1">
<g id="surface1">
<path style=" stroke:none;fill-rule:nonzero;fill:rgb(0%,0%,0%);fill-opacity:1;" d="M 24.148438 6.597656 C 21.964844 5 19.246094 4.046875 16.878906 4.046875 C 14.492188 4.046875 12.730469 5.007812 11.636719 6.902344 C 10.78125 8.390625 10.367188 10.417969 10.367188 13.097656 C 10.367188 15.78125 10.78125 17.808594 11.636719 19.292969 C 12.730469 21.191406 14.492188 22.152344 16.878906 22.152344 C 19.246094 22.152344 21.964844 21.199219 24.148438 19.601562 C 26.632812 17.78125 28 15.472656 28 13.097656 C 28 10.726562 26.632812 8.417969 24.148438 6.597656 Z M 22.976562 17.996094 C 21.148438 19.335938 18.8125 20.164062 16.878906 20.164062 C 14.769531 20.164062 12.351562 19.363281 12.351562 13.097656 C 12.351562 6.835938 14.769531 6.03125 16.878906 6.03125 C 18.8125 6.03125 21.148438 6.863281 22.976562 8.203125 C 24.90625 9.613281 26.011719 11.398438 26.011719 13.097656 C 26.011719 14.796875 24.90625 16.582031 22.976562 17.996094 Z M 22.976562 17.996094 "/>
<path style=" stroke:none;fill-rule:nonzero;fill:rgb(0%,0%,0%);fill-opacity:1;" d="M 9.371094 8.25 C 9.128906 7.757812 8.53125 7.558594 8.039062 7.804688 L 5.445312 9.105469 C 5.804688 8.144531 6.167969 7.15625 6.132812 6.109375 C 6.113281 5.5625 5.65625 5.132812 5.105469 5.152344 C 4.558594 5.171875 4.128906 5.628906 4.148438 6.179688 C 4.171875 6.839844 3.878906 7.617188 3.570312 8.441406 C 3.355469 9.015625 3.113281 9.660156 2.976562 10.335938 L 0.550781 11.550781 C 0.0585938 11.796875 -0.140625 12.394531 0.105469 12.882812 C 0.277344 13.230469 0.628906 13.433594 0.996094 13.433594 C 1.144531 13.433594 1.296875 13.398438 1.4375 13.328125 L 3.054688 12.519531 C 3.25 13.117188 3.625 13.703125 4.257812 14.261719 C 4.265625 14.269531 4.273438 14.277344 4.28125 14.28125 L 0.550781 16.148438 C 0.0585938 16.394531 -0.140625 16.992188 0.105469 17.480469 C 0.277344 17.828125 0.628906 18.03125 0.996094 18.03125 C 1.144531 18.03125 1.296875 17.996094 1.4375 17.925781 L 4.933594 16.179688 C 4.847656 16.660156 4.648438 17.214844 4.398438 17.886719 C 4.265625 18.242188 4.121094 18.621094 4 19.019531 L 0.550781 20.746094 C 0.0585938 20.992188 -0.140625 21.585938 0.105469 22.078125 C 0.277344 22.425781 0.628906 22.628906 0.996094 22.628906 C 1.144531 22.628906 1.296875 22.59375 1.4375 22.523438 L 3.738281 21.371094 C 3.855469 22.167969 4.238281 22.964844 5.085938 23.707031 C 5.273438 23.875 5.507812 23.953125 5.738281 23.953125 C 6.015625 23.953125 6.289062 23.839844 6.488281 23.617188 C 6.847656 23.203125 6.808594 22.574219 6.394531 22.214844 C 5.761719 21.660156 5.601562 21.101562 5.707031 20.386719 L 8.929688 18.777344 C 9.417969 18.53125 9.617188 17.933594 9.375 17.445312 C 9.128906 16.953125 8.53125 16.753906 8.039062 17 L 6.5625 17.738281 C 6.828125 16.945312 7.039062 16.066406 6.925781 15.179688 L 8.929688 14.179688 C 9.417969 13.933594 9.617188 13.335938 9.375 12.847656 C 9.128906 12.355469 8.53125 12.15625 8.039062 12.402344 L 6.136719 13.355469 C 5.976562 13.15625 5.789062 12.960938 5.570312 12.769531 C 5.148438 12.398438 4.9375 12.027344 4.871094 11.609375 L 8.929688 9.582031 C 9.417969 9.335938 9.617188 8.742188 9.371094 8.25 Z M 9.371094 8.25 "/>
</g>
</svg>
