<?xml version="1.0" encoding="UTF-8"?>
<svg xmlns="http://www.w3.org/2000/svg" xmlns:xlink="http://www.w3.org/1999/xlink" width="28pt" height="28pt" viewBox="0 0 28 28" version="1.1">
<g id="surface1">
<path style=" stroke:none;fill-rule:nonzero;fill:rgb(0%,0%,0%);fill-opacity:1;" d="M 27.484375 12.164062 C 27.296875 12.039062 22.855469 9.101562 18.917969 10.457031 C 18.804688 10.496094 18.691406 10.539062 18.582031 10.585938 C 18.78125 9.949219 18.898438 9.277344 18.898438 8.582031 C 18.898438 4.414062 14.675781 1.171875 14.496094 1.035156 L 14 0.664062 L 13.503906 1.035156 C 13.324219 1.171875 9.101562 4.414062 9.101562 8.582031 C 9.101562 9.277344 9.21875 9.949219 9.417969 10.585938 C 9.308594 10.539062 9.195312 10.496094 9.082031 10.457031 C 5.144531 9.101562 0.703125 12.039062 0.515625 12.164062 L 0 12.507812 L 0.191406 13.097656 C 0.261719 13.3125 1.953125 18.363281 5.890625 19.722656 C 6.625 19.976562 7.378906 20.078125 8.121094 20.078125 C 10.101562 20.078125 11.988281 19.335938 13.179688 18.742188 L 13.179688 27.335938 L 14.820312 27.335938 L 14.820312 18.742188 C 16.011719 19.335938 17.898438 20.078125 19.878906 20.078125 C 20.621094 20.078125 21.375 19.976562 22.109375 19.722656 C 26.046875 18.363281 27.738281 13.3125 27.808594 13.097656 L 28 12.507812 Z M 11.960938 17.5 C 10.519531 18.148438 8.332031 18.828125 6.425781 18.171875 C 3.972656 17.324219 2.519531 14.457031 1.988281 13.195312 C 3.183594 12.527344 6.09375 11.164062 8.546875 12.007812 C 10.457031 12.667969 11.761719 14.550781 12.496094 15.949219 L 7.753906 14.3125 L 7.21875 15.867188 Z M 13.179688 8.582031 L 13.179688 13.601562 C 12.097656 12.453125 10.742188 10.609375 10.742188 8.582031 C 10.742188 5.984375 12.980469 3.679688 14 2.761719 C 15.019531 3.675781 17.257812 5.976562 17.257812 8.582031 C 17.257812 10.601562 15.902344 12.445312 14.820312 13.59375 L 14.820312 8.582031 Z M 21.574219 18.171875 C 19.664062 18.828125 17.480469 18.148438 16.039062 17.5 L 20.78125 15.867188 L 20.246094 14.3125 L 15.5 15.949219 C 16.234375 14.554688 17.535156 12.671875 19.453125 12.007812 C 21.90625 11.164062 24.816406 12.527344 26.015625 13.195312 C 25.484375 14.457031 24.039062 17.320312 21.574219 18.171875 Z M 21.574219 18.171875 "/>
</g>
</svg>
