<?xml version="1.0" encoding="UTF-8"?>
<svg xmlns="http://www.w3.org/2000/svg" xmlns:xlink="http://www.w3.org/1999/xlink" width="28pt" height="28pt" viewBox="0 0 28 28" version="1.1">
<g id="surface1">
<path style=" stroke:none;fill-rule:nonzero;fill:rgb(0%,0%,0%);fill-opacity:1;" d="M 23.449219 9.296875 C 23.449219 4.160156 19.21875 0 14 0 C 8.78125 0 4.550781 4.160156 4.550781 9.296875 C 4.550781 13.882812 7.515625 16.886719 7.515625 16.886719 C 7.582031 16.953125 7.636719 17.019531 7.730469 17.082031 L 7.730469 18.820312 C 7.730469 19.601562 8.394531 20.238281 9.179688 20.238281 L 13.210938 20.238281 L 13.210938 14.359375 L 10.566406 11.695312 C 10.269531 11.402344 10.277344 10.921875 10.574219 10.628906 C 10.871094 10.332031 11.351562 10.332031 11.648438 10.628906 L 13.996094 12.976562 L 16.347656 10.628906 C 16.644531 10.332031 17.121094 10.332031 17.417969 10.628906 C 17.710938 10.921875 17.699219 11.402344 17.402344 11.695312 L 14.726562 14.359375 L 14.726562 20.238281 L 18.820312 20.238281 C 19.605469 20.238281 20.207031 19.601562 20.207031 18.820312 L 20.207031 17.082031 C 20.300781 17.019531 20.386719 16.953125 20.453125 16.886719 C 20.453125 16.886719 23.449219 13.882812 23.449219 9.296875 Z M 23.449219 9.296875 "/>
<path style=" stroke:none;fill-rule:nonzero;fill:rgb(0%,0%,0%);fill-opacity:1;" d="M 9.179688 21.84375 C 8.394531 21.84375 7.730469 22.480469 7.730469 23.261719 L 7.730469 23.546875 C 7.730469 24.328125 8.394531 24.964844 9.179688 24.964844 L 10.882812 24.964844 C 10.925781 26.648438 12.304688 28 14 28 C 15.695312 28 17.074219 26.648438 17.117188 24.964844 L 18.820312 24.964844 C 19.605469 24.964844 20.207031 24.328125 20.207031 23.546875 L 20.207031 23.261719 C 20.207031 22.480469 19.605469 21.84375 18.820312 21.84375 Z M 9.179688 21.84375 "/>
</g>
</svg>
