<?xml version="1.0" encoding="UTF-8"?>
<svg xmlns="http://www.w3.org/2000/svg" xmlns:xlink="http://www.w3.org/1999/xlink" width="28pt" height="28pt" viewBox="0 0 28 28" version="1.1">
<g id="surface1">
<path style=" stroke:none;fill-rule:nonzero;fill:rgb(0%,0%,0%);fill-opacity:1;" d="M 22.132812 10.351562 L 22.132812 7.464844 C 22.132812 3.347656 18.4375 0 13.898438 0 C 9.355469 0 5.660156 3.347656 5.660156 7.464844 L 5.660156 10.351562 C 3.914062 10.652344 2.574219 12.179688 2.574219 14.011719 L 2.574219 24.074219 C 2.574219 26.125 4.242188 27.792969 6.292969 27.792969 L 21.5 27.792969 C 23.550781 27.792969 25.21875 26.125 25.21875 24.074219 L 25.21875 14.011719 C 25.21875 12.179688 23.882812 10.652344 22.132812 10.351562 Z M 6.691406 7.464844 C 6.691406 3.917969 9.925781 1.03125 13.898438 1.03125 C 17.871094 1.03125 21.101562 3.917969 21.101562 7.464844 L 21.101562 10.292969 L 6.691406 10.292969 Z M 15.957031 19.558594 C 15.957031 20.691406 15.03125 21.617188 13.898438 21.617188 C 12.761719 21.617188 11.839844 20.691406 11.839844 19.558594 L 11.839844 16.46875 C 11.839844 15.335938 12.761719 14.410156 13.898438 14.410156 C 15.03125 14.410156 15.957031 15.335938 15.957031 16.46875 Z M 15.957031 19.558594 "/>
</g>
</svg>
