<?xml version="1.0" encoding="UTF-8"?>
<svg xmlns="http://www.w3.org/2000/svg" xmlns:xlink="http://www.w3.org/1999/xlink" width="28pt" height="28pt" viewBox="0 0 28 28" version="1.1">
<g id="surface1">
<path style=" stroke:none;fill-rule:nonzero;fill:rgb(0%,0%,0%);fill-opacity:1;" d="M 12.546875 15.070312 C 11.742188 15.070312 11.089844 15.722656 11.089844 16.527344 C 11.089844 17.066406 11.386719 17.535156 11.820312 17.789062 L 11.820312 19.40625 L 13.273438 19.40625 L 13.273438 17.789062 C 13.710938 17.535156 14.003906 17.066406 14.003906 16.527344 C 14.003906 15.722656 13.351562 15.070312 12.546875 15.070312 Z M 12.546875 15.070312 "/>
<path style=" stroke:none;fill-rule:nonzero;fill:rgb(0%,0%,0%);fill-opacity:1;" d="M 14 0 C 6.269531 0 0 6.269531 0 14 C 0 21.730469 6.269531 28 14 28 C 21.730469 28 28 21.730469 28 14 C 28 6.269531 21.730469 0 14 0 Z M 23.609375 12.546875 L 21.1875 12.546875 L 21.1875 9.941406 C 21.1875 8.71875 20.191406 7.722656 18.96875 7.722656 C 17.746094 7.722656 16.75 8.71875 16.75 9.941406 L 16.75 12.304688 L 16.847656 12.304688 C 17.757812 12.304688 18.492188 13.042969 18.492188 13.949219 L 18.492188 19.261719 C 18.492188 20.171875 17.757812 20.910156 16.847656 20.910156 L 8.246094 20.910156 C 7.335938 20.910156 6.601562 20.171875 6.601562 19.261719 L 6.601562 13.949219 C 6.601562 13.042969 7.335938 12.304688 8.246094 12.304688 L 14.328125 12.304688 L 14.328125 9.941406 C 14.328125 7.382812 16.410156 5.300781 18.96875 5.300781 C 21.527344 5.300781 23.609375 7.382812 23.609375 9.941406 Z M 23.609375 12.546875 "/>
</g>
</svg>
