<?xml version="1.0" encoding="UTF-8"?>
<svg xmlns="http://www.w3.org/2000/svg" xmlns:xlink="http://www.w3.org/1999/xlink" width="28pt" height="28pt" viewBox="0 0 28 28" version="1.1">
<g id="surface1">
<path style=" stroke:none;fill-rule:nonzero;fill:rgb(0%,0%,0%);fill-opacity:1;" d="M 21.171875 13.816406 C 20.628906 12.371094 19.675781 11.132812 18.410156 10.238281 C 17.117188 9.324219 15.589844 8.84375 14 8.84375 C 9.78125 8.84375 6.347656 12.277344 6.347656 16.496094 C 6.347656 20.714844 9.78125 24.148438 14 24.148438 C 15.589844 24.148438 17.117188 23.667969 18.410156 22.753906 C 19.675781 21.859375 20.628906 20.621094 21.171875 19.175781 C 21.492188 18.320312 21.652344 17.417969 21.652344 16.496094 C 21.652344 15.574219 21.492188 14.671875 21.171875 13.816406 Z M 20.148438 18.792969 C 19.191406 21.34375 16.722656 23.054688 14 23.054688 C 10.382812 23.054688 7.441406 20.113281 7.441406 16.496094 C 7.441406 12.878906 10.382812 9.9375 14 9.9375 C 16.722656 9.9375 19.191406 11.648438 20.148438 14.199219 C 20.421875 14.933594 20.558594 15.707031 20.558594 16.496094 C 20.558594 17.285156 20.421875 18.058594 20.148438 18.792969 Z M 20.148438 18.792969 "/>
<path style=" stroke:none;fill-rule:nonzero;fill:rgb(0%,0%,0%);fill-opacity:1;" d="M 17.1875 16.496094 C 17.1875 15.492188 17.542969 14.511719 18.179688 13.738281 C 18.347656 13.535156 18.347656 13.242188 18.179688 13.039062 C 17.144531 11.789062 15.621094 11.070312 14 11.070312 C 12.039062 11.070312 10.222656 12.136719 9.265625 13.847656 C 8.8125 14.652344 8.574219 15.566406 8.574219 16.496094 C 8.574219 16.613281 8.578125 16.726562 8.585938 16.84375 C 8.589844 16.910156 8.597656 16.972656 8.601562 17.039062 C 8.671875 17.71875 8.867188 18.386719 9.183594 18.992188 C 9.210938 19.042969 9.238281 19.09375 9.265625 19.144531 C 10.226562 20.855469 12.039062 21.921875 14 21.921875 C 15.621094 21.921875 17.144531 21.203125 18.179688 19.953125 C 18.347656 19.75 18.347656 19.457031 18.179688 19.253906 C 17.542969 18.480469 17.1875 17.5 17.1875 16.496094 Z M 10.101562 18.378906 C 10.097656 18.378906 10.097656 18.375 10.09375 18.371094 C 10.089844 18.359375 10.082031 18.347656 10.078125 18.332031 C 10.066406 18.308594 10.054688 18.28125 10.042969 18.253906 C 10.035156 18.238281 10.027344 18.222656 10.019531 18.207031 C 10.011719 18.183594 10 18.15625 9.988281 18.132812 C 9.984375 18.117188 9.976562 18.101562 9.96875 18.085938 C 9.960938 18.058594 9.953125 18.035156 9.941406 18.011719 C 9.9375 17.992188 9.929688 17.976562 9.925781 17.960938 C 9.914062 17.9375 9.90625 17.910156 9.898438 17.886719 C 9.894531 17.871094 9.886719 17.851562 9.882812 17.835938 C 9.875 17.8125 9.863281 17.785156 9.855469 17.757812 C 9.851562 17.742188 9.847656 17.726562 9.84375 17.710938 C 9.832031 17.679688 9.824219 17.648438 9.816406 17.617188 C 9.8125 17.605469 9.8125 17.597656 9.808594 17.585938 C 9.796875 17.542969 9.789062 17.503906 9.777344 17.460938 C 9.773438 17.449219 9.773438 17.4375 9.769531 17.429688 C 9.765625 17.398438 9.757812 17.363281 9.75 17.332031 C 9.746094 17.316406 9.746094 17.300781 9.742188 17.285156 C 9.738281 17.257812 9.730469 17.230469 9.726562 17.203125 C 9.726562 17.1875 9.722656 17.167969 9.71875 17.152344 C 9.714844 17.125 9.710938 17.101562 9.707031 17.074219 C 9.707031 17.054688 9.703125 17.039062 9.703125 17.019531 C 9.699219 16.996094 9.695312 16.96875 9.691406 16.941406 C 9.691406 16.925781 9.6875 16.90625 9.6875 16.890625 C 9.683594 16.863281 9.683594 16.835938 9.679688 16.808594 C 9.679688 16.792969 9.679688 16.777344 9.675781 16.757812 C 9.675781 16.730469 9.675781 16.699219 9.671875 16.671875 C 9.671875 16.65625 9.671875 16.640625 9.671875 16.628906 C 9.671875 16.582031 9.667969 16.539062 9.667969 16.496094 C 9.667969 16.453125 9.671875 16.410156 9.671875 16.363281 C 9.671875 16.351562 9.671875 16.335938 9.671875 16.320312 C 9.675781 16.292969 9.675781 16.261719 9.675781 16.234375 C 9.679688 16.21875 9.679688 16.199219 9.679688 16.183594 C 9.683594 16.15625 9.683594 16.128906 9.6875 16.101562 C 9.6875 16.085938 9.691406 16.066406 9.691406 16.050781 C 9.695312 16.023438 9.699219 15.996094 9.703125 15.972656 C 9.703125 15.953125 9.707031 15.9375 9.707031 15.917969 C 9.710938 15.890625 9.714844 15.867188 9.71875 15.839844 C 9.722656 15.824219 9.726562 15.804688 9.726562 15.789062 C 9.730469 15.761719 9.738281 15.734375 9.742188 15.707031 C 9.746094 15.691406 9.746094 15.675781 9.75 15.660156 C 9.757812 15.625 9.765625 15.59375 9.773438 15.558594 C 9.773438 15.550781 9.777344 15.542969 9.777344 15.53125 C 9.789062 15.488281 9.796875 15.445312 9.808594 15.40625 C 9.8125 15.398438 9.8125 15.390625 9.816406 15.382812 C 9.824219 15.347656 9.832031 15.3125 9.84375 15.277344 C 9.847656 15.265625 9.851562 15.25 9.855469 15.238281 C 9.863281 15.210938 9.875 15.183594 9.882812 15.152344 C 9.886719 15.140625 9.890625 15.125 9.898438 15.109375 C 9.90625 15.082031 9.914062 15.054688 9.925781 15.03125 C 9.929688 15.015625 9.9375 15 9.941406 14.984375 C 9.953125 14.957031 9.960938 14.933594 9.972656 14.90625 C 9.976562 14.890625 9.984375 14.875 9.988281 14.859375 C 10 14.835938 10.011719 14.808594 10.023438 14.78125 C 10.027344 14.769531 10.035156 14.753906 10.039062 14.738281 C 10.054688 14.710938 10.066406 14.683594 10.078125 14.65625 C 10.085938 14.644531 10.089844 14.632812 10.09375 14.621094 C 10.097656 14.617188 10.097656 14.617188 10.101562 14.613281 C 10.15625 14.605469 10.214844 14.605469 10.273438 14.605469 C 11.316406 14.605469 12.167969 15.453125 12.167969 16.496094 C 12.167969 17.539062 11.316406 18.386719 10.273438 18.386719 C 10.214844 18.386719 10.15625 18.386719 10.101562 18.378906 Z M 14 20.828125 C 12.777344 20.828125 11.628906 20.308594 10.816406 19.429688 C 12.203125 19.175781 13.261719 17.957031 13.261719 16.496094 C 13.261719 15.035156 12.203125 13.816406 10.816406 13.5625 C 11.625 12.683594 12.777344 12.164062 14 12.164062 C 15.152344 12.164062 16.242188 12.617188 17.050781 13.421875 C 16.429688 14.320312 16.09375 15.398438 16.09375 16.496094 C 16.09375 17.59375 16.429688 18.671875 17.050781 19.570312 C 16.242188 20.375 15.152344 20.828125 14 20.828125 Z M 14 20.828125 "/>
<path style=" stroke:none;fill-rule:nonzero;fill:rgb(0%,0%,0%);fill-opacity:1;" d="M 23.796875 0 L 4.203125 0 C 3.902344 0 3.65625 0.246094 3.65625 0.546875 L 3.65625 26.054688 C 3.65625 26.359375 3.902344 26.601562 4.203125 26.601562 L 4.582031 26.601562 L 4.582031 27.453125 C 4.582031 27.753906 4.824219 28 5.128906 28 L 9.027344 28 C 9.328125 28 9.574219 27.753906 9.574219 27.453125 L 9.574219 26.601562 L 18.089844 26.601562 L 18.089844 27.453125 C 18.089844 27.753906 18.332031 28 18.636719 28 L 22.535156 28 C 22.835938 28 23.082031 27.753906 23.082031 27.453125 L 23.082031 26.601562 L 23.796875 26.601562 C 24.097656 26.601562 24.34375 26.359375 24.34375 26.054688 L 24.34375 0.546875 C 24.34375 0.246094 24.097656 0 23.796875 0 Z M 4.75 1.09375 L 8.667969 1.09375 L 8.667969 5.171875 L 4.75 5.171875 Z M 8.480469 26.90625 L 5.675781 26.90625 L 5.675781 26.601562 L 8.480469 26.601562 Z M 21.988281 26.90625 L 19.183594 26.90625 L 19.183594 26.601562 L 21.988281 26.601562 Z M 4.75 25.507812 L 4.75 6.265625 L 23.25 6.265625 L 23.25 25.507812 Z M 23.25 5.171875 L 9.761719 5.171875 L 9.761719 1.09375 L 23.25 1.09375 Z M 23.25 5.171875 "/>
<path style=" stroke:none;fill-rule:nonzero;fill:rgb(0%,0%,0%);fill-opacity:1;" d="M 21.59375 1.660156 L 18.855469 1.660156 C 18.550781 1.660156 18.308594 1.902344 18.308594 2.207031 L 18.308594 3.957031 C 18.308594 4.257812 18.550781 4.503906 18.855469 4.503906 L 21.59375 4.503906 C 21.894531 4.503906 22.140625 4.257812 22.140625 3.957031 L 22.140625 2.207031 C 22.140625 1.902344 21.894531 1.660156 21.59375 1.660156 Z M 21.046875 3.410156 L 19.402344 3.410156 L 19.402344 2.753906 L 21.046875 2.753906 Z M 21.046875 3.410156 "/>
<path style=" stroke:none;fill-rule:nonzero;fill:rgb(0%,0%,0%);fill-opacity:1;" d="M 16.398438 1.660156 L 13.660156 1.660156 C 13.359375 1.660156 13.113281 1.902344 13.113281 2.207031 L 13.113281 3.957031 C 13.113281 4.257812 13.359375 4.503906 13.660156 4.503906 L 16.398438 4.503906 C 16.699219 4.503906 16.945312 4.257812 16.945312 3.957031 L 16.945312 2.207031 C 16.945312 1.902344 16.699219 1.660156 16.398438 1.660156 Z M 15.851562 3.410156 L 14.207031 3.410156 L 14.207031 2.753906 L 15.851562 2.753906 Z M 15.851562 3.410156 "/>
<path style=" stroke:none;fill-rule:nonzero;fill:rgb(0%,0%,0%);fill-opacity:1;" d="M 20.523438 7.441406 C 20.515625 7.40625 20.503906 7.371094 20.492188 7.339844 C 20.476562 7.304688 20.460938 7.273438 20.441406 7.242188 C 20.417969 7.214844 20.398438 7.183594 20.371094 7.160156 C 20.347656 7.136719 20.320312 7.113281 20.289062 7.09375 C 20.257812 7.070312 20.226562 7.054688 20.195312 7.042969 C 20.160156 7.027344 20.125 7.015625 20.09375 7.011719 C 20.023438 6.996094 19.949219 6.996094 19.878906 7.011719 C 19.84375 7.015625 19.808594 7.027344 19.777344 7.042969 C 19.742188 7.054688 19.710938 7.070312 19.679688 7.09375 C 19.652344 7.113281 19.625 7.136719 19.597656 7.160156 C 19.574219 7.183594 19.550781 7.214844 19.53125 7.242188 C 19.511719 7.273438 19.492188 7.304688 19.480469 7.339844 C 19.464844 7.371094 19.457031 7.40625 19.449219 7.441406 C 19.441406 7.476562 19.4375 7.511719 19.4375 7.546875 C 19.4375 7.582031 19.441406 7.617188 19.449219 7.652344 C 19.457031 7.6875 19.464844 7.722656 19.480469 7.757812 C 19.492188 7.789062 19.511719 7.820312 19.53125 7.851562 C 19.550781 7.878906 19.574219 7.910156 19.597656 7.933594 C 19.625 7.957031 19.652344 7.980469 19.679688 8 C 19.710938 8.023438 19.742188 8.039062 19.777344 8.050781 C 19.808594 8.066406 19.84375 8.078125 19.878906 8.082031 C 19.914062 8.089844 19.949219 8.09375 19.984375 8.09375 C 20.019531 8.09375 20.054688 8.089844 20.09375 8.082031 C 20.125 8.078125 20.160156 8.066406 20.195312 8.050781 C 20.226562 8.039062 20.257812 8.023438 20.289062 8 C 20.320312 7.980469 20.347656 7.957031 20.371094 7.933594 C 20.398438 7.910156 20.417969 7.878906 20.441406 7.851562 C 20.460938 7.820312 20.476562 7.789062 20.492188 7.757812 C 20.503906 7.722656 20.515625 7.6875 20.523438 7.652344 C 20.527344 7.617188 20.53125 7.582031 20.53125 7.546875 C 20.53125 7.511719 20.527344 7.476562 20.523438 7.441406 Z M 20.523438 7.441406 "/>
<path style=" stroke:none;fill-rule:nonzero;fill:rgb(0%,0%,0%);fill-opacity:1;" d="M 17.871094 7 L 8.289062 7 C 7.984375 7 7.742188 7.246094 7.742188 7.546875 C 7.742188 7.847656 7.984375 8.09375 8.289062 8.09375 L 17.871094 8.09375 C 18.171875 8.09375 18.417969 7.847656 18.417969 7.546875 C 18.417969 7.246094 18.171875 7 17.871094 7 Z M 17.871094 7 "/>
</g>
</svg>
