<?xml version="1.0" encoding="UTF-8"?>
<svg xmlns="http://www.w3.org/2000/svg" xmlns:xlink="http://www.w3.org/1999/xlink" width="28pt" height="28pt" viewBox="0 0 28 28" version="1.1">
<g id="surface1">
<path style=" stroke:none;fill-rule:nonzero;fill:rgb(0%,0%,0%);fill-opacity:1;" d="M 14.875 0 L 12.25 0 L 4.375 8.75 L 1.75 8.75 C 0.785156 8.75 0 9.535156 0 10.5 L 0 17.5 C 0 18.464844 0.785156 19.25 1.75 19.25 L 4.375 19.25 L 12.25 28 L 14.875 28 C 15.359375 28 15.75 27.609375 15.75 27.125 L 15.75 0.875 C 15.75 0.390625 15.359375 0 14.875 0 Z M 14.875 0 "/>
<path style=" stroke:none;fill-rule:nonzero;fill:rgb(0%,0%,0%);fill-opacity:1;" d="M 26.25 12.25 L 24.5 12.25 L 24.5 10.5 C 24.5 9.535156 23.714844 8.75 22.75 8.75 C 21.785156 8.75 21 9.535156 21 10.5 L 21 12.25 L 19.25 12.25 C 18.285156 12.25 17.5 13.035156 17.5 14 C 17.5 14.964844 18.285156 15.75 19.25 15.75 L 21 15.75 L 21 17.5 C 21 18.464844 21.785156 19.25 22.75 19.25 C 23.714844 19.25 24.5 18.464844 24.5 17.5 L 24.5 15.75 L 26.25 15.75 C 27.214844 15.75 28 14.964844 28 14 C 28 13.035156 27.214844 12.25 26.25 12.25 Z M 26.25 12.25 "/>
</g>
</svg>
