<?xml version="1.0" encoding="UTF-8"?>
<svg xmlns="http://www.w3.org/2000/svg" xmlns:xlink="http://www.w3.org/1999/xlink" width="28pt" height="28pt" viewBox="0 0 28 28" version="1.1">
<g id="surface1">
<path style=" stroke:none;fill-rule:nonzero;fill:rgb(0%,0%,0%);fill-opacity:1;" d="M 10.746094 4.273438 C 10.621094 4.175781 10.464844 4.125 10.304688 4.136719 L 7.894531 4.136719 L 10.144531 1.621094 L 10.355469 1.390625 L 10.488281 1.222656 C 10.527344 1.171875 10.558594 1.109375 10.582031 1.046875 C 10.609375 0.984375 10.621094 0.914062 10.621094 0.839844 C 10.640625 0.683594 10.566406 0.527344 10.433594 0.4375 C 10.238281 0.339844 10.023438 0.296875 9.808594 0.304688 L 6.988281 0.304688 C 6.839844 0.296875 6.691406 0.339844 6.574219 0.433594 C 6.476562 0.515625 6.425781 0.640625 6.429688 0.765625 C 6.429688 0.957031 6.492188 1.078125 6.621094 1.125 C 6.808594 1.175781 7 1.199219 7.195312 1.191406 L 9.023438 1.191406 C 8.949219 1.296875 8.847656 1.425781 8.726562 1.570312 L 8.246094 2.128906 L 7.628906 2.808594 L 6.898438 3.621094 C 6.640625 3.90625 6.472656 4.101562 6.390625 4.207031 C 6.210938 4.425781 6.234375 4.75 6.445312 4.941406 C 6.597656 5.054688 6.785156 5.109375 6.976562 5.09375 L 10.304688 5.09375 C 10.460938 5.105469 10.621094 5.058594 10.746094 4.960938 C 10.84375 4.878906 10.898438 4.753906 10.894531 4.625 C 10.898438 4.492188 10.84375 4.367188 10.746094 4.273438 Z M 10.746094 4.273438 "/>
<path style=" stroke:none;fill-rule:nonzero;fill:rgb(0%,0%,0%);fill-opacity:1;" d="M 15.789062 7.144531 C 15.691406 7.066406 15.566406 7.023438 15.4375 7.035156 L 13.507812 7.035156 L 15.304688 5.023438 L 15.476562 4.839844 L 15.582031 4.707031 C 15.613281 4.664062 15.636719 4.617188 15.65625 4.566406 C 15.675781 4.515625 15.6875 4.460938 15.6875 4.402344 C 15.703125 4.269531 15.640625 4.140625 15.523438 4.074219 C 15.375 4.003906 15.210938 3.972656 15.046875 3.984375 L 12.785156 3.984375 C 12.667969 3.976562 12.550781 4.011719 12.457031 4.082031 C 12.378906 4.152344 12.335938 4.25 12.339844 4.355469 C 12.339844 4.507812 12.390625 4.601562 12.492188 4.636719 C 12.644531 4.679688 12.796875 4.695312 12.953125 4.691406 L 14.40625 4.691406 C 14.347656 4.773438 14.269531 4.875 14.167969 4.992188 L 13.792969 5.445312 L 13.300781 5.976562 L 12.71875 6.625 C 12.515625 6.851562 12.378906 7.007812 12.3125 7.09375 C 12.253906 7.164062 12.21875 7.253906 12.21875 7.347656 C 12.210938 7.472656 12.261719 7.597656 12.355469 7.683594 C 12.476562 7.773438 12.625 7.816406 12.777344 7.804688 L 15.433594 7.804688 C 15.5625 7.8125 15.6875 7.777344 15.789062 7.699219 C 15.867188 7.628906 15.910156 7.53125 15.90625 7.425781 C 15.910156 7.320312 15.867188 7.21875 15.789062 7.144531 Z M 15.789062 7.144531 "/>
<path style=" stroke:none;fill-rule:nonzero;fill:rgb(0%,0%,0%);fill-opacity:1;" d="M 21.753906 3.957031 C 21.628906 3.855469 21.472656 3.808594 21.3125 3.816406 L 18.898438 3.816406 L 21.148438 1.304688 L 21.359375 1.070312 L 21.492188 0.90625 C 21.535156 0.851562 21.570312 0.796875 21.59375 0.734375 C 21.621094 0.667969 21.636719 0.597656 21.636719 0.527344 C 21.652344 0.363281 21.570312 0.203125 21.429688 0.117188 C 21.242188 0.03125 21.035156 -0.0078125 20.828125 0 L 17.996094 0 C 17.847656 -0.0078125 17.699219 0.0390625 17.582031 0.128906 C 17.484375 0.214844 17.433594 0.335938 17.4375 0.464844 C 17.4375 0.65625 17.5 0.773438 17.628906 0.820312 C 17.816406 0.875 18.007812 0.898438 18.203125 0.890625 L 20 0.890625 C 19.925781 0.996094 19.824219 1.121094 19.703125 1.265625 L 19.253906 1.808594 L 18.640625 2.488281 L 17.90625 3.300781 C 17.648438 3.585938 17.480469 3.78125 17.402344 3.886719 C 17.21875 4.105469 17.242188 4.429688 17.453125 4.621094 C 17.605469 4.734375 17.796875 4.792969 17.984375 4.773438 L 21.3125 4.773438 C 21.472656 4.785156 21.628906 4.738281 21.753906 4.640625 C 21.851562 4.558594 21.90625 4.433594 21.902344 4.308594 C 21.90625 4.175781 21.851562 4.046875 21.753906 3.957031 Z M 21.753906 3.957031 "/>
<path style=" stroke:none;fill-rule:nonzero;fill:rgb(0%,0%,0%);fill-opacity:1;" d="M 20.960938 27.234375 L 19.367188 23.902344 C 20.945312 22.429688 21.847656 20.371094 21.859375 18.210938 C 21.859375 13.863281 18.335938 10.339844 13.988281 10.34375 C 9.636719 10.34375 6.113281 13.867188 6.117188 18.214844 C 6.117188 20.375 7.003906 22.441406 8.570312 23.925781 L 7.03125 27.234375 C 6.898438 27.496094 7.007812 27.816406 7.273438 27.945312 C 7.535156 28.074219 7.855469 27.964844 7.984375 27.703125 C 7.984375 27.695312 7.988281 27.691406 7.992188 27.683594 L 9.433594 24.625 C 12.164062 26.589844 15.84375 26.589844 18.574219 24.625 L 20 27.683594 C 20.121094 27.953125 20.433594 28.074219 20.703125 27.953125 C 20.96875 27.832031 21.089844 27.519531 20.96875 27.25 C 20.96875 27.246094 20.964844 27.238281 20.960938 27.234375 Z M 13.988281 25.023438 C 10.230469 25.015625 7.183594 21.972656 7.179688 18.210938 C 7.179688 14.453125 10.226562 11.402344 13.988281 11.402344 C 17.75 11.402344 20.796875 14.453125 20.796875 18.210938 C 20.796875 21.972656 17.75 25.023438 13.988281 25.023438 Z M 13.988281 25.023438 "/>
<path style=" stroke:none;fill-rule:nonzero;fill:rgb(0%,0%,0%);fill-opacity:1;" d="M 17.75 21.949219 L 14.519531 18.023438 L 14.519531 13.960938 C 14.519531 13.667969 14.28125 13.429688 13.988281 13.429688 C 13.695312 13.429688 13.457031 13.667969 13.457031 13.960938 L 13.457031 18.210938 C 13.457031 18.335938 13.5 18.457031 13.578125 18.554688 L 16.933594 22.628906 C 17.121094 22.855469 17.457031 22.886719 17.683594 22.699219 C 17.910156 22.511719 17.9375 22.175781 17.75 21.949219 Z M 17.75 21.949219 "/>
<path style=" stroke:none;fill-rule:nonzero;fill:rgb(0%,0%,0%);fill-opacity:1;" d="M 11.21875 9.660156 C 9.878906 7.671875 7.179688 7.144531 5.191406 8.484375 C 3.199219 9.828125 2.675781 12.527344 4.015625 14.515625 C 4.285156 14.917969 4.621094 15.269531 5.007812 15.558594 C 5.246094 15.738281 5.578125 15.6875 5.753906 15.453125 C 5.929688 15.21875 5.882812 14.886719 5.648438 14.710938 C 4.199219 13.621094 3.910156 11.566406 5 10.117188 C 5.617188 9.292969 6.589844 8.808594 7.621094 8.808594 C 8.710938 8.808594 9.726562 9.351562 10.335938 10.253906 C 10.5 10.5 10.832031 10.5625 11.074219 10.398438 C 11.320312 10.234375 11.382812 9.902344 11.21875 9.660156 Z M 11.21875 9.660156 "/>
<path style=" stroke:none;fill-rule:nonzero;fill:rgb(0%,0%,0%);fill-opacity:1;" d="M 23.875 9.492188 C 22.449219 7.5625 19.726562 7.15625 17.800781 8.582031 C 17.386719 8.886719 17.03125 9.261719 16.75 9.691406 C 16.589844 9.9375 16.65625 10.269531 16.902344 10.429688 C 17.144531 10.59375 17.476562 10.527344 17.640625 10.28125 C 18.636719 8.769531 20.671875 8.351562 22.183594 9.351562 C 23.695312 10.347656 24.113281 12.382812 23.117188 13.894531 C 22.90625 14.210938 22.640625 14.492188 22.332031 14.71875 L 22.328125 14.714844 C 22.09375 14.890625 22.046875 15.226562 22.222656 15.460938 C 22.398438 15.695312 22.730469 15.742188 22.964844 15.566406 C 24.894531 14.140625 25.300781 11.417969 23.875 9.492188 Z M 23.875 9.492188 "/>
</g>
</svg>
