<?xml version="1.0" encoding="UTF-8"?>
<svg xmlns="http://www.w3.org/2000/svg" xmlns:xlink="http://www.w3.org/1999/xlink" width="28pt" height="28pt" viewBox="0 0 28 28" version="1.1">
<g id="surface1">
<path style=" stroke:none;fill-rule:nonzero;fill:rgb(0%,0%,0%);fill-opacity:1;" d="M 17.574219 13.390625 C 15.472656 9.746094 15.625 5.414062 17.582031 2.011719 C 15.648438 2.011719 13.679688 2.492188 11.886719 3.53125 C 8.003906 5.765625 5.960938 9.933594 6.222656 14.121094 C 7.140625 14.152344 8.011719 14.476562 8.710938 15.0625 C 9.371094 14.691406 10.109375 14.507812 10.871094 14.507812 C 12.90625 14.507812 14.667969 15.875 15.214844 17.789062 C 16.648438 18.230469 17.660156 19.550781 17.660156 21.109375 C 17.660156 22.734375 16.535156 24.09375 15.023438 24.480469 C 17.734375 25.101562 20.675781 24.753906 23.273438 23.257812 C 25.074219 22.214844 26.46875 20.757812 27.433594 19.074219 C 23.507812 19.074219 19.6875 17.035156 17.574219 13.390625 Z M 17.574219 13.390625 "/>
<path style=" stroke:none;fill-rule:nonzero;fill:rgb(0%,0%,0%);fill-opacity:1;" d="M 16.710938 21.109375 C 16.710938 19.785156 15.699219 18.714844 14.410156 18.59375 C 14.1875 16.832031 12.699219 15.457031 10.871094 15.457031 C 9.996094 15.457031 9.214844 15.777344 8.589844 16.292969 C 8.003906 15.546875 7.101562 15.0625 6.082031 15.0625 C 4.558594 15.0625 3.289062 16.132812 2.96875 17.5625 C 1.3125 17.675781 0 19.042969 0 20.726562 C 0 22.488281 1.429688 23.917969 3.191406 23.917969 C 3.570312 23.917969 3.917969 23.84375 4.253906 23.722656 C 4.839844 24.519531 5.773438 25.042969 6.835938 25.042969 C 7.480469 25.042969 8.082031 24.851562 8.589844 24.519531 C 9.167969 25.074219 9.949219 25.421875 10.816406 25.421875 C 12.085938 25.421875 13.179688 24.671875 13.6875 23.582031 C 13.847656 23.613281 14.007812 23.636719 14.171875 23.636719 C 15.570312 23.636719 16.710938 22.503906 16.710938 21.109375 Z M 16.710938 21.109375 "/>
<path style=" stroke:none;fill-rule:nonzero;fill:rgb(0%,0%,0%);fill-opacity:1;" d="M 23.667969 14.804688 L 24.125 13.800781 L 25.203125 13.609375 L 24.398438 12.867188 L 24.542969 11.773438 L 23.589844 12.320312 L 22.597656 11.839844 L 22.816406 12.917969 L 22.058594 13.710938 L 23.152344 13.832031 Z M 23.667969 14.804688 "/>
<path style=" stroke:none;fill-rule:nonzero;fill:rgb(0%,0%,0%);fill-opacity:1;" d="M 1.816406 12.113281 L 2.597656 11.710938 L 3.363281 12.121094 L 3.21875 11.265625 L 3.859375 10.65625 L 2.992188 10.527344 L 2.613281 9.738281 L 2.21875 10.519531 L 1.351562 10.632812 L 1.976562 11.25 Z M 1.816406 12.113281 "/>
<path style=" stroke:none;fill-rule:nonzero;fill:rgb(0%,0%,0%);fill-opacity:1;" d="M 19.480469 10.164062 L 19.839844 10.832031 L 20.152344 10.140625 L 20.886719 10.011719 L 20.332031 9.503906 L 20.441406 8.757812 L 19.785156 9.121094 L 19.101562 8.796875 L 19.253906 9.53125 L 18.730469 10.078125 Z M 19.480469 10.164062 "/>
<path style=" stroke:none;fill-rule:nonzero;fill:rgb(0%,0%,0%);fill-opacity:1;" d="M 23.058594 8.1875 L 23.273438 8.597656 L 23.460938 8.179688 L 23.917969 8.097656 L 23.582031 7.785156 L 23.644531 7.320312 L 23.242188 7.558594 L 22.824219 7.351562 L 22.914062 7.808594 L 22.597656 8.136719 Z M 23.058594 8.1875 "/>
<path style=" stroke:none;fill-rule:nonzero;fill:rgb(0%,0%,0%);fill-opacity:1;" d="M 6.644531 5.445312 L 6.867188 5.847656 L 7.054688 5.429688 L 7.511719 5.347656 L 7.171875 5.035156 L 7.238281 4.582031 L 6.835938 4.808594 L 6.417969 4.601562 L 6.507812 5.058594 L 6.191406 5.394531 Z M 6.644531 5.445312 "/>
</g>
</svg>
