<?xml version="1.0" encoding="UTF-8"?>
<svg xmlns="http://www.w3.org/2000/svg" xmlns:xlink="http://www.w3.org/1999/xlink" width="28pt" height="28pt" viewBox="0 0 28 28" version="1.1">
<g id="surface1">
<path style=" stroke:none;fill-rule:nonzero;fill:rgb(1.176471%,0.392157%,1.568627%);fill-opacity:1;" d="M 18.609375 2.1875 L 18.609375 5.742188 C 21.84375 7.410156 24.0625 10.78125 24.0625 14.675781 C 24.0625 20.230469 19.558594 24.738281 14.003906 24.738281 C 8.445312 24.738281 3.941406 20.230469 3.941406 14.675781 C 3.941406 11.105469 5.808594 7.976562 8.613281 6.191406 L 8.613281 2.496094 C 3.941406 4.566406 0.679688 9.238281 0.679688 14.675781 C 0.679688 22.035156 6.644531 28 14 28 C 21.359375 28 27.320312 22.035156 27.320312 14.675781 C 27.320312 8.941406 23.6875 4.066406 18.609375 2.1875 Z M 18.609375 2.1875 "/>
<path style=" stroke:none;fill-rule:nonzero;fill:rgb(1.176471%,0.392157%,1.568627%);fill-opacity:1;" d="M 13.742188 16.398438 C 15.207031 16.398438 15.355469 15.53125 15.355469 14.46875 L 15.355469 1.933594 C 15.355469 0.867188 15.207031 0 13.742188 0 C 12.285156 0 12.132812 0.867188 12.132812 1.933594 L 12.132812 14.46875 C 12.132812 15.53125 12.285156 16.398438 13.742188 16.398438 Z M 13.742188 16.398438 "/>
</g>
</svg>
