<?xml version="1.0" encoding="UTF-8"?>
<svg xmlns="http://www.w3.org/2000/svg" xmlns:xlink="http://www.w3.org/1999/xlink" width="28pt" height="28pt" viewBox="0 0 28 28" version="1.1">
<g id="surface1">
<path style=" stroke:none;fill-rule:nonzero;fill:rgb(0%,0%,0%);fill-opacity:1;" d="M 14.003906 15.078125 C 14.585938 15.078125 15.089844 14.867188 15.515625 14.441406 C 15.945312 14.015625 16.15625 13.507812 16.15625 12.925781 L 16.15625 2.15625 C 16.15625 1.570312 15.945312 1.066406 15.515625 0.640625 C 15.089844 0.214844 14.585938 0 14.003906 0 C 13.417969 0 12.914062 0.214844 12.488281 0.640625 C 12.0625 1.066406 11.847656 1.570312 11.847656 2.15625 L 11.847656 12.925781 C 11.847656 13.507812 12.0625 14.015625 12.488281 14.441406 C 12.914062 14.867188 13.417969 15.078125 14.003906 15.078125 Z M 14.003906 15.078125 "/>
<path style=" stroke:none;fill-rule:nonzero;fill:rgb(0%,0%,0%);fill-opacity:1;" d="M 25.574219 9.308594 C 24.671875 7.5 23.398438 5.984375 21.761719 4.761719 C 21.289062 4.402344 20.757812 4.265625 20.164062 4.34375 C 19.566406 4.421875 19.097656 4.703125 18.75 5.183594 C 18.390625 5.65625 18.253906 6.183594 18.335938 6.773438 C 18.421875 7.363281 18.699219 7.835938 19.167969 8.195312 C 20.269531 9.027344 21.121094 10.042969 21.71875 11.242188 C 22.320312 12.441406 22.621094 13.722656 22.621094 15.078125 C 22.621094 16.246094 22.390625 17.359375 21.9375 18.421875 C 21.484375 19.480469 20.871094 20.398438 20.09375 21.171875 C 19.320312 21.945312 18.402344 22.558594 17.34375 23.015625 C 16.28125 23.46875 15.167969 23.695312 14.003906 23.695312 C 12.835938 23.695312 11.722656 23.46875 10.660156 23.015625 C 9.601562 22.558594 8.683594 21.945312 7.910156 21.171875 C 7.136719 20.398438 6.523438 19.480469 6.066406 18.421875 C 5.613281 17.359375 5.386719 16.246094 5.386719 15.078125 C 5.386719 13.722656 5.6875 12.441406 6.285156 11.242188 C 6.886719 10.042969 7.738281 9.027344 8.835938 8.195312 C 9.308594 7.835938 9.585938 7.363281 9.667969 6.773438 C 9.753906 6.183594 9.617188 5.65625 9.257812 5.183594 C 8.910156 4.703125 8.441406 4.421875 7.851562 4.34375 C 7.261719 4.265625 6.726562 4.402344 6.242188 4.761719 C 4.605469 5.984375 3.335938 7.5 2.433594 9.308594 C 1.527344 11.113281 1.078125 13.039062 1.078125 15.078125 C 1.078125 16.832031 1.417969 18.5 2.105469 20.09375 C 2.789062 21.6875 3.707031 23.0625 4.863281 24.21875 C 6.019531 25.375 7.394531 26.292969 8.988281 26.976562 C 10.582031 27.664062 12.253906 28.003906 14.003906 28.003906 C 15.753906 28.003906 17.425781 27.664062 19.019531 26.976562 C 20.613281 26.292969 21.984375 25.375 23.140625 24.21875 C 24.296875 23.0625 25.21875 21.6875 25.902344 20.09375 C 26.585938 18.5 26.925781 16.828125 26.925781 15.078125 C 26.925781 13.039062 26.476562 11.113281 25.574219 9.308594 Z M 25.574219 9.308594 "/>
</g>
</svg>
