<?xml version="1.0" encoding="UTF-8"?>
<svg xmlns="http://www.w3.org/2000/svg" xmlns:xlink="http://www.w3.org/1999/xlink" width="28pt" height="28pt" viewBox="0 0 28 28" version="1.1">
<g id="surface1">
<path style=" stroke:none;fill-rule:nonzero;fill:rgb(0%,0%,0%);fill-opacity:1;" d="M 23.28125 4.71875 C 23.28125 4.714844 23.28125 4.714844 23.277344 4.714844 L 23.28125 4.71875 C 22.785156 4.222656 22.125 3.949219 21.421875 3.949219 C 20.722656 3.949219 20.0625 4.222656 19.566406 4.71875 C 18.546875 5.742188 18.546875 7.40625 19.5625 8.429688 C 19.5625 8.429688 19.566406 8.429688 19.566406 8.433594 C 21.054688 9.917969 21.875 11.894531 21.875 14 C 21.875 16.105469 21.054688 18.082031 19.566406 19.566406 C 18.082031 21.054688 16.105469 21.875 14 21.875 C 11.894531 21.875 9.917969 21.054688 8.433594 19.566406 C 6.945312 18.082031 6.125 16.105469 6.125 14 C 6.125 11.898438 6.941406 9.921875 8.429688 8.433594 C 9.453125 7.40625 9.453125 5.742188 8.4375 4.722656 C 7.933594 4.222656 7.273438 3.949219 6.578125 3.949219 C 5.875 3.949219 5.214844 4.222656 4.71875 4.71875 L 4.71875 4.714844 L 4.71875 4.71875 C -0.40625 9.84375 -0.40625 18.15625 4.71875 23.28125 C 7.28125 25.84375 10.640625 27.125 14 27.125 C 17.359375 27.125 20.71875 25.84375 23.28125 23.28125 C 28.40625 18.15625 28.40625 9.84375 23.28125 4.71875 Z M 22.042969 22.042969 C 19.894531 24.191406 17.039062 25.375 14 25.375 C 10.960938 25.375 8.105469 24.191406 5.957031 22.042969 C 1.523438 17.609375 1.523438 10.390625 5.953125 5.957031 L 5.957031 5.957031 C 6.128906 5.785156 6.351562 5.699219 6.578125 5.699219 C 6.796875 5.699219 7.023438 5.785156 7.195312 5.957031 C 7.535156 6.300781 7.535156 6.851562 7.195312 7.195312 C 3.433594 10.953125 3.433594 17.046875 7.195312 20.804688 C 9.074219 22.683594 11.539062 23.625 14 23.625 C 16.460938 23.625 18.925781 22.683594 20.804688 20.804688 C 24.566406 17.046875 24.566406 10.953125 20.804688 7.195312 C 20.804688 7.195312 20.804688 7.191406 20.800781 7.191406 L 20.804688 7.191406 C 20.464844 6.847656 20.464844 6.296875 20.804688 5.957031 C 20.976562 5.785156 21.199219 5.699219 21.421875 5.699219 C 21.648438 5.699219 21.871094 5.785156 22.039062 5.957031 L 22.042969 5.953125 L 22.042969 5.957031 C 26.476562 10.390625 26.476562 17.609375 22.042969 22.042969 Z M 14 16.625 C 15.449219 16.625 16.625 15.449219 16.625 14 L 16.625 3.5 C 16.625 2.050781 15.449219 0.875 14 0.875 C 12.550781 0.875 11.375 2.050781 11.375 3.5 L 11.375 14 C 11.375 15.449219 12.550781 16.625 14 16.625 Z M 13.125 3.5 C 13.125 3.019531 13.519531 2.625 14 2.625 C 14.480469 2.625 14.875 3.019531 14.875 3.5 L 14.875 14 C 14.875 14.480469 14.480469 14.875 14 14.875 C 13.519531 14.875 13.125 14.480469 13.125 14 Z M 13.125 3.5 "/>
</g>
</svg>
