<?xml version="1.0" encoding="UTF-8"?>
<svg xmlns="http://www.w3.org/2000/svg" xmlns:xlink="http://www.w3.org/1999/xlink" width="28pt" height="28pt" viewBox="0 0 28 28" version="1.1">
<g id="surface1">
<path style=" stroke:none;fill-rule:nonzero;fill:rgb(0%,0%,0%);fill-opacity:1;" d="M 27.097656 22.980469 L 26.023438 22.191406 L 26.058594 20.828125 C 26.058594 20.6875 25.988281 20.578125 25.878906 20.507812 C 25.773438 20.433594 25.628906 20.472656 25.484375 20.542969 L 24.375 21.332031 L 23.121094 20.902344 C 22.976562 20.867188 22.832031 20.902344 22.761719 20.972656 C 22.652344 21.082031 22.617188 21.222656 22.652344 21.332031 L 23.082031 22.621094 L 22.257812 23.699219 C 22.1875 23.804688 22.152344 23.949219 22.222656 24.09375 C 22.296875 24.199219 22.402344 24.308594 22.546875 24.308594 L 23.910156 24.308594 L 24.660156 25.417969 C 24.734375 25.527344 24.839844 25.5625 24.949219 25.5625 L 24.984375 25.5625 C 25.128906 25.527344 25.234375 25.453125 25.269531 25.3125 L 25.699219 24.019531 L 26.992188 23.625 C 27.136719 23.589844 27.207031 23.484375 27.242188 23.339844 C 27.277344 23.195312 27.207031 23.089844 27.097656 22.980469 Z M 25.304688 23.375 C 25.199219 23.410156 25.089844 23.484375 25.054688 23.589844 L 24.839844 24.378906 L 24.375 23.699219 C 24.300781 23.589844 24.195312 23.554688 24.085938 23.554688 L 23.261719 23.554688 L 23.765625 22.910156 C 23.835938 22.800781 23.871094 22.695312 23.835938 22.585938 L 23.585938 21.796875 L 24.339844 22.085938 C 24.445312 22.121094 24.589844 22.121094 24.660156 22.046875 L 25.304688 21.582031 L 25.269531 22.40625 C 25.269531 22.515625 25.304688 22.621094 25.414062 22.695312 L 26.058594 23.160156 Z M 25.304688 23.375 "/>
<path style=" stroke:none;fill-rule:nonzero;fill:rgb(0%,0%,0%);fill-opacity:1;" d="M 9.066406 3.117188 L 7.988281 2.332031 L 8.027344 0.96875 C 8.027344 0.824219 7.953125 0.71875 7.847656 0.644531 C 7.738281 0.574219 7.597656 0.609375 7.453125 0.679688 L 6.339844 1.46875 L 5.121094 1.039062 C 4.980469 1.003906 4.835938 1.039062 4.761719 1.113281 C 4.65625 1.21875 4.621094 1.363281 4.65625 1.46875 L 5.085938 2.761719 L 4.261719 3.835938 C 4.152344 3.945312 4.152344 4.121094 4.191406 4.230469 C 4.261719 4.339844 4.371094 4.445312 4.511719 4.445312 L 5.875 4.445312 L 6.628906 5.558594 C 6.699219 5.664062 6.808594 5.699219 6.914062 5.699219 L 6.949219 5.699219 C 7.09375 5.664062 7.203125 5.59375 7.238281 5.449219 L 7.667969 4.160156 L 8.957031 3.765625 C 9.101562 3.730469 9.171875 3.621094 9.210938 3.476562 C 9.246094 3.335938 9.171875 3.191406 9.066406 3.117188 Z M 7.273438 3.511719 C 7.164062 3.550781 7.058594 3.621094 7.023438 3.730469 L 6.769531 4.515625 L 6.304688 3.835938 C 6.234375 3.730469 6.125 3.691406 6.019531 3.691406 L 5.195312 3.691406 L 5.695312 3.046875 C 5.804688 2.976562 5.839844 2.867188 5.804688 2.726562 L 5.550781 1.9375 L 6.304688 2.222656 C 6.414062 2.257812 6.554688 2.257812 6.628906 2.1875 L 7.273438 1.722656 L 7.273438 2.546875 C 7.273438 2.652344 7.308594 2.761719 7.417969 2.832031 L 8.0625 3.296875 Z M 7.273438 3.511719 "/>
<path style=" stroke:none;fill-rule:nonzero;fill:rgb(0%,0%,0%);fill-opacity:1;" d="M 6.734375 11.472656 C 6.664062 11.363281 6.519531 11.292969 6.414062 11.292969 L 5.480469 11.363281 L 4.90625 10.648438 C 4.835938 10.539062 4.691406 10.503906 4.546875 10.503906 C 4.40625 10.539062 4.296875 10.648438 4.261719 10.753906 L 4.046875 11.652344 L 3.1875 11.972656 C 3.042969 12.011719 2.972656 12.152344 2.972656 12.261719 C 2.972656 12.40625 3.007812 12.511719 3.148438 12.582031 L 3.9375 13.085938 L 3.976562 14.019531 C 3.976562 14.160156 4.046875 14.269531 4.191406 14.339844 C 4.226562 14.375 4.296875 14.375 4.332031 14.375 C 4.40625 14.375 4.511719 14.339844 4.546875 14.304688 L 5.265625 13.695312 L 6.160156 13.980469 C 6.304688 14.019531 6.449219 13.980469 6.519531 13.875 C 6.628906 13.765625 6.628906 13.625 6.59375 13.515625 L 6.234375 12.65625 L 6.734375 11.867188 C 6.808594 11.757812 6.808594 11.617188 6.734375 11.472656 Z M 5.550781 12.691406 L 5.695312 13.050781 L 5.335938 12.941406 C 5.15625 12.976562 5.050781 12.976562 4.941406 13.085938 L 4.65625 13.335938 L 4.65625 12.941406 C 4.65625 12.835938 4.585938 12.726562 4.476562 12.65625 L 4.152344 12.441406 L 4.511719 12.296875 C 4.621094 12.261719 4.691406 12.152344 4.726562 12.046875 L 4.835938 11.652344 L 5.085938 11.9375 C 5.15625 12.046875 5.265625 12.082031 5.410156 12.082031 L 5.804688 12.046875 L 5.589844 12.367188 C 5.515625 12.476562 5.515625 12.582031 5.550781 12.691406 Z M 5.550781 12.691406 "/>
<path style=" stroke:none;fill-rule:nonzero;fill:rgb(0%,0%,0%);fill-opacity:1;" d="M 10.679688 26.207031 L 10.105469 25.5625 L 10.25 24.664062 C 10.285156 24.523438 10.214844 24.378906 10.105469 24.308594 C 9.996094 24.234375 9.855469 24.199219 9.710938 24.269531 L 8.886719 24.703125 L 8.0625 24.269531 C 7.953125 24.199219 7.8125 24.234375 7.667969 24.308594 C 7.558594 24.378906 7.488281 24.523438 7.523438 24.664062 L 7.667969 25.5625 L 7.023438 26.207031 C 6.914062 26.316406 6.878906 26.457031 6.914062 26.566406 C 6.949219 26.710938 7.058594 26.78125 7.203125 26.816406 L 8.132812 26.960938 L 8.527344 27.785156 C 8.601562 27.890625 8.707031 28 8.851562 28 C 8.992188 28 9.101562 27.929688 9.171875 27.785156 L 9.566406 26.960938 L 10.5 26.816406 C 10.644531 26.78125 10.75 26.710938 10.785156 26.566406 C 10.824219 26.421875 10.785156 26.277344 10.679688 26.207031 Z M 9.351562 26.242188 C 9.246094 26.242188 9.136719 26.351562 9.066406 26.421875 L 8.886719 26.78125 L 8.707031 26.421875 C 8.671875 26.316406 8.5625 26.242188 8.421875 26.242188 L 8.027344 26.171875 L 8.3125 25.882812 C 8.382812 25.8125 8.421875 25.667969 8.421875 25.5625 L 8.347656 25.167969 L 8.707031 25.347656 C 8.816406 25.417969 8.921875 25.417969 9.03125 25.347656 L 9.386719 25.167969 L 9.316406 25.5625 C 9.28125 25.667969 9.351562 25.8125 9.425781 25.882812 L 9.710938 26.171875 Z M 9.351562 26.242188 "/>
<path style=" stroke:none;fill-rule:nonzero;fill:rgb(0%,0%,0%);fill-opacity:1;" d="M 2.003906 18.714844 C 1.320312 18.714844 0.75 19.289062 0.75 19.96875 C 0.75 20.652344 1.320312 21.222656 2.003906 21.222656 C 2.683594 21.222656 3.257812 20.652344 3.257812 19.96875 C 3.257812 19.289062 2.683594 18.714844 2.003906 18.714844 Z M 2.003906 20.507812 C 1.714844 20.507812 1.464844 20.257812 1.464844 19.96875 C 1.464844 19.683594 1.714844 19.429688 2.003906 19.429688 C 2.289062 19.429688 2.539062 19.683594 2.539062 19.96875 C 2.539062 20.257812 2.289062 20.507812 2.003906 20.507812 Z M 2.003906 20.507812 "/>
<path style=" stroke:none;fill-rule:nonzero;fill:rgb(0%,0%,0%);fill-opacity:1;" d="M 22.726562 0.644531 C 22.042969 0.644531 21.46875 1.21875 21.46875 1.898438 C 21.46875 2.582031 22.042969 3.15625 22.726562 3.15625 C 23.40625 3.15625 23.980469 2.582031 23.980469 1.898438 C 23.980469 1.21875 23.40625 0.644531 22.726562 0.644531 Z M 22.726562 2.4375 C 22.4375 2.4375 22.1875 2.1875 22.1875 1.898438 C 22.1875 1.613281 22.4375 1.363281 22.726562 1.363281 C 23.011719 1.363281 23.261719 1.613281 23.261719 1.898438 C 23.261719 2.1875 23.011719 2.4375 22.726562 2.4375 Z M 22.726562 2.4375 "/>
<path style=" stroke:none;fill-rule:nonzero;fill:rgb(0%,0%,0%);fill-opacity:1;" d="M 19.285156 24.34375 C 18.601562 24.34375 18.027344 24.917969 18.027344 25.597656 C 18.027344 26.277344 18.601562 26.851562 19.285156 26.851562 C 19.964844 26.851562 20.539062 26.277344 20.539062 25.597656 C 20.503906 24.882812 19.964844 24.34375 19.285156 24.34375 Z M 19.285156 26.101562 C 18.996094 26.101562 18.746094 25.847656 18.746094 25.5625 C 18.746094 25.273438 18.996094 25.023438 19.285156 25.023438 C 19.570312 25.023438 19.820312 25.273438 19.820312 25.5625 C 19.820312 25.847656 19.570312 26.101562 19.285156 26.101562 Z M 19.285156 26.101562 "/>
<path style=" stroke:none;fill-rule:nonzero;fill:rgb(0%,0%,0%);fill-opacity:1;" d="M 19.105469 5.484375 C 18.960938 5.34375 18.746094 5.34375 18.601562 5.484375 L 16.738281 7.347656 C 16.59375 7.492188 16.59375 7.707031 16.738281 7.851562 C 16.808594 7.921875 16.917969 7.960938 16.988281 7.960938 C 17.097656 7.960938 17.167969 7.921875 17.238281 7.851562 L 19.105469 5.988281 C 19.246094 5.84375 19.246094 5.628906 19.105469 5.484375 Z M 19.105469 5.484375 "/>
<path style=" stroke:none;fill-rule:nonzero;fill:rgb(0%,0%,0%);fill-opacity:1;" d="M 15.195312 13.945312 C 15.054688 13.804688 14.835938 13.804688 14.695312 13.945312 L 5.300781 23.339844 C 5.15625 23.484375 5.15625 23.699219 5.300781 23.839844 C 5.371094 23.914062 5.480469 23.949219 5.550781 23.949219 C 5.625 23.949219 5.730469 23.914062 5.804688 23.839844 L 15.195312 14.449219 C 15.339844 14.304688 15.339844 14.089844 15.195312 13.945312 Z M 15.195312 13.945312 "/>
<path style=" stroke:none;fill-rule:nonzero;fill:rgb(0%,0%,0%);fill-opacity:1;" d="M 26.308594 7.742188 C 26.167969 7.601562 25.953125 7.601562 25.808594 7.742188 L 13.1875 20.328125 C 13.046875 20.472656 13.046875 20.6875 13.1875 20.828125 C 13.261719 20.902344 13.367188 20.9375 13.441406 20.9375 C 13.546875 20.9375 13.617188 20.902344 13.691406 20.828125 L 26.273438 8.246094 C 26.417969 8.101562 26.417969 7.886719 26.308594 7.742188 Z M 26.308594 7.742188 "/>
<path style=" stroke:none;fill-rule:nonzero;fill:rgb(0%,0%,0%);fill-opacity:1;" d="M 18.386719 0.109375 C 18.242188 -0.0351562 18.027344 -0.0351562 17.886719 0.109375 L 8.527344 9.464844 C 8.382812 9.609375 8.382812 9.824219 8.527344 9.964844 C 8.601562 10.039062 8.707031 10.074219 8.777344 10.074219 C 8.886719 10.074219 8.957031 10.039062 9.03125 9.964844 L 18.386719 0.609375 C 18.53125 0.464844 18.53125 0.25 18.386719 0.109375 Z M 18.386719 0.109375 "/>
<path style=" stroke:none;fill-rule:nonzero;fill:rgb(0%,0%,0%);fill-opacity:1;" d="M 15.125 9.464844 C 14.980469 9.320312 14.765625 9.320312 14.621094 9.464844 L 7.703125 16.347656 C 7.558594 16.492188 7.558594 16.707031 7.703125 16.851562 C 7.773438 16.957031 7.882812 16.992188 7.953125 16.992188 C 8.0625 16.992188 8.132812 16.957031 8.207031 16.886719 L 15.125 9.964844 C 15.269531 9.824219 15.269531 9.609375 15.125 9.464844 Z M 15.125 9.464844 "/>
<path style=" stroke:none;fill-rule:nonzero;fill:rgb(0%,0%,0%);fill-opacity:1;" d="M 17.382812 21.832031 C 17.277344 21.691406 17.023438 21.691406 16.882812 21.832031 L 15.015625 23.699219 C 14.875 23.839844 14.875 24.054688 15.015625 24.199219 C 15.089844 24.269531 15.195312 24.308594 15.269531 24.308594 C 15.375 24.308594 15.449219 24.269531 15.519531 24.199219 L 17.382812 22.335938 C 17.527344 22.191406 17.527344 21.976562 17.382812 21.832031 Z M 17.382812 21.832031 "/>
<path style=" stroke:none;fill-rule:nonzero;fill:rgb(0%,0%,0%);fill-opacity:1;" d="M 26.417969 12.800781 C 26.308594 12.65625 26.058594 12.65625 25.914062 12.800781 L 18.996094 19.71875 C 18.851562 19.863281 18.851562 20.078125 18.996094 20.21875 C 19.066406 20.292969 19.175781 20.328125 19.246094 20.328125 C 19.355469 20.328125 19.425781 20.292969 19.5 20.21875 L 26.417969 13.300781 C 26.5625 13.15625 26.5625 12.941406 26.417969 12.800781 Z M 26.417969 12.800781 "/>
<path style=" stroke:none;fill-rule:nonzero;fill:rgb(0%,0%,0%);fill-opacity:1;" d="M 23.691406 5.59375 C 23.550781 5.449219 23.335938 5.449219 23.191406 5.59375 L 16.988281 11.796875 C 16.84375 11.9375 16.84375 12.152344 16.988281 12.296875 C 17.0625 12.367188 17.132812 12.40625 17.238281 12.40625 C 17.347656 12.40625 17.417969 12.367188 17.492188 12.296875 L 23.691406 6.09375 C 23.835938 5.953125 23.835938 5.734375 23.691406 5.59375 Z M 23.691406 5.59375 "/>
</g>
</svg>
