<?xml version="1.0" encoding="UTF-8"?>
<svg xmlns="http://www.w3.org/2000/svg" xmlns:xlink="http://www.w3.org/1999/xlink" width="28pt" height="28pt" viewBox="0 0 28 28" version="1.1">
<g id="surface1">
<path style=" stroke:none;fill-rule:nonzero;fill:rgb(0.392157%,0%,0.784314%);fill-opacity:1;" d="M 9.460938 15.777344 C 10.40625 18.914062 10.636719 22.226562 10.492188 25.488281 C 10.472656 25.882812 11.011719 25.632812 11.027344 25.34375 C 11.175781 22.042969 10.949219 18.675781 9.996094 15.496094 C 9.890625 15.148438 9.382812 15.503906 9.460938 15.777344 Z M 18.054688 18.605469 C 18.285156 19.441406 18.121094 20.300781 18.171875 21.152344 C 18.238281 22.289062 18.933594 23.164062 19.785156 23.859375 C 19.839844 23.695312 19.894531 23.527344 19.949219 23.363281 C 19.167969 23.703125 17.917969 24.261719 17.984375 25.304688 C 18.042969 26.203125 18.726562 26.84375 18.566406 27.800781 C 18.5 28.1875 19.054688 27.9375 19.101562 27.660156 C 19.226562 26.945312 18.988281 26.332031 18.703125 25.691406 C 18.589844 25.429688 18.464844 25.140625 18.550781 24.855469 C 18.710938 24.347656 19.609375 24.046875 20.035156 23.863281 C 20.1875 23.796875 20.367188 23.503906 20.199219 23.367188 C 19.324219 22.648438 18.726562 21.824219 18.691406 20.667969 C 18.667969 19.875 18.804688 19.105469 18.582031 18.328125 C 18.488281 17.976562 17.980469 18.335938 18.054688 18.605469 Z M 18.25 2.890625 C 14.828125 2.890625 12.054688 6.417969 12.054688 10.769531 C 12.054688 15.117188 16.675781 18.960938 18.25 18.960938 C 19.828125 18.960938 24.445312 15.121094 24.445312 10.769531 C 24.445312 6.417969 21.671875 2.890625 18.25 2.890625 Z M 19.882812 5.28125 L 21.027344 4.765625 C 24.523438 8.457031 21.898438 11.285156 21.898438 11.285156 C 23.097656 7.855469 19.882812 5.28125 19.882812 5.28125 Z M 10.378906 15.636719 L 9.542969 15.636719 C 9.542969 15.636719 9.398438 16.425781 9.027344 16.664062 C 8.65625 16.90625 10.089844 16.105469 10.675781 16.644531 C 10.574219 16.554688 10.214844 16.191406 10.378906 15.636719 Z M 10.675781 16.644531 C 10.691406 16.660156 10.703125 16.664062 10.703125 16.664062 C 10.691406 16.65625 10.683594 16.652344 10.675781 16.644531 Z M 19.019531 18.421875 L 18.183594 18.421875 C 18.183594 18.421875 18.042969 19.210938 17.671875 19.453125 C 17.296875 19.695312 18.730469 18.894531 19.316406 19.433594 C 19.214844 19.339844 18.855469 18.976562 19.019531 18.421875 Z M 19.316406 19.429688 C 19.332031 19.445312 19.34375 19.453125 19.34375 19.453125 C 19.335938 19.445312 19.324219 19.4375 19.316406 19.429688 Z M 14.832031 3.371094 C 13.710938 1.332031 11.855469 0 9.75 0 C 6.328125 0 3.554688 3.527344 3.554688 7.875 C 3.554688 12.226562 8.175781 16.070312 9.75 16.070312 C 10.363281 16.070312 11.441406 15.480469 12.53125 14.507812 C 11.796875 13.304688 11.292969 11.921875 11.292969 10.488281 C 11.292969 7.347656 12.738281 4.636719 14.832031 3.371094 Z M 7.25 4.054688 C 7.191406 4.117188 7.136719 4.175781 7.082031 4.238281 C 6.96875 4.363281 6.859375 4.492188 6.757812 4.625 C 6.546875 4.890625 6.355469 5.167969 6.175781 5.457031 C 5.824219 6.035156 5.546875 6.664062 5.394531 7.324219 C 5.242188 7.984375 5.230469 8.679688 5.394531 9.359375 C 5.550781 10.035156 5.886719 10.679688 6.332031 11.246094 C 5.808594 10.75 5.363281 10.152344 5.082031 9.457031 C 4.800781 8.765625 4.695312 7.992188 4.75 7.230469 C 4.804688 6.46875 5.011719 5.722656 5.304688 5.019531 C 5.449219 4.667969 5.617188 4.324219 5.808594 3.992188 C 5.902344 3.824219 6.003906 3.660156 6.109375 3.5 C 6.160156 3.417969 6.214844 3.339844 6.269531 3.257812 C 6.328125 3.175781 6.382812 3.101562 6.457031 3.011719 L 7.417969 3.890625 C 7.367188 3.933594 7.304688 3.996094 7.25 4.054688 Z M 7.25 4.054688 "/>
</g>
</svg>
