<?xml version="1.0" encoding="UTF-8"?>
<svg xmlns="http://www.w3.org/2000/svg" xmlns:xlink="http://www.w3.org/1999/xlink" width="14pt" height="14pt" viewBox="0 0 14 14" version="1.1">
<g id="surface1">
<path style=" stroke:none;fill-rule:nonzero;fill:rgb(0%,0%,0%);fill-opacity:1;" d="M 7.601562 3.472656 C 7.601562 2.84375 7.601562 0 7.601562 0 L 6.390625 0 C 6.390625 0 6.390625 2.84375 6.390625 3.472656 C 6.390625 4.101562 5.203125 4.867188 5.203125 5.765625 C 5.203125 6.664062 5.203125 13.148438 5.203125 13.378906 C 5.203125 13.609375 5.359375 13.992188 5.703125 13.992188 C 5.9375 13.992188 6.507812 13.992188 6.855469 13.992188 C 7.019531 13.992188 7.132812 13.992188 7.132812 13.992188 C 7.476562 13.992188 8.054688 13.992188 8.289062 13.992188 C 8.632812 13.992188 8.785156 13.609375 8.785156 13.378906 C 8.785156 13.148438 8.785156 6.664062 8.785156 5.765625 C 8.785156 4.867188 7.601562 4.101562 7.601562 3.472656 Z M 6.648438 4.492188 C 6.574219 4.597656 6.488281 4.730469 6.394531 4.882812 C 6.300781 5.035156 6.210938 5.210938 6.121094 5.40625 C 6.085938 5.503906 6.050781 5.609375 6.023438 5.710938 C 6.019531 5.820312 5.984375 5.902344 6 6.039062 C 6.007812 6.296875 6.019531 6.5625 6.03125 6.84375 C 6.046875 7.398438 6.050781 7.992188 6.054688 8.585938 C 6.054688 9.769531 6.019531 10.957031 5.960938 11.84375 C 5.9375 12.289062 5.898438 12.664062 5.882812 12.921875 C 5.859375 13.179688 5.835938 13.328125 5.835938 13.328125 C 5.835938 13.328125 5.820312 13.179688 5.796875 12.921875 C 5.777344 12.664062 5.734375 12.289062 5.710938 11.84375 C 5.65625 10.957031 5.621094 9.769531 5.621094 8.585938 C 5.625 7.992188 5.625 7.398438 5.648438 6.84375 C 5.65625 6.5625 5.664062 6.296875 5.675781 6.039062 C 5.671875 5.921875 5.71875 5.757812 5.742188 5.632812 C 5.789062 5.511719 5.84375 5.398438 5.898438 5.292969 C 5.960938 5.195312 6.023438 5.101562 6.078125 5.015625 C 6.144531 4.9375 6.207031 4.859375 6.265625 4.789062 C 6.382812 4.648438 6.492188 4.53125 6.585938 4.4375 C 6.773438 4.253906 6.890625 4.164062 6.890625 4.164062 C 6.890625 4.164062 6.796875 4.28125 6.648438 4.492188 Z M 6.648438 4.492188 "/>
</g>
</svg>
