<?xml version="1.0" encoding="UTF-8"?>
<svg xmlns="http://www.w3.org/2000/svg" xmlns:xlink="http://www.w3.org/1999/xlink" width="28pt" height="28pt" viewBox="0 0 28 28" version="1.1">
<g id="surface1">
<path style=" stroke:none;fill-rule:nonzero;fill:rgb(0%,0%,0%);fill-opacity:1;" d="M 17.261719 18.257812 C 17.09375 18.140625 16.941406 17.902344 16.789062 17.671875 C 16.648438 17.457031 16.5 17.230469 16.316406 17.058594 C 15.882812 16.652344 15.304688 16.410156 14.773438 16.410156 C 14.492188 16.410156 14.230469 16.480469 14 16.609375 C 13.769531 16.480469 13.507812 16.410156 13.226562 16.410156 C 12.695312 16.410156 12.121094 16.652344 11.683594 17.058594 C 11.5 17.230469 11.351562 17.457031 11.210938 17.671875 C 11.058594 17.902344 10.90625 18.140625 10.738281 18.257812 C 10.542969 18.394531 10.4375 18.617188 10.449219 18.851562 C 10.464844 19.085938 10.597656 19.292969 10.804688 19.402344 C 11.21875 19.621094 11.847656 19.878906 12.515625 19.878906 C 13.082031 19.878906 13.585938 19.691406 14 19.335938 C 14.414062 19.691406 14.917969 19.878906 15.484375 19.878906 C 16.152344 19.878906 16.78125 19.621094 17.195312 19.402344 C 17.402344 19.292969 17.535156 19.085938 17.550781 18.851562 C 17.566406 18.617188 17.457031 18.394531 17.261719 18.257812 Z M 15.484375 19.058594 C 15.007812 19.058594 14.628906 18.871094 14.320312 18.488281 C 14.242188 18.390625 14.125 18.335938 14 18.335938 C 13.875 18.335938 13.757812 18.390625 13.679688 18.488281 C 13.371094 18.871094 12.992188 19.058594 12.515625 19.058594 C 12.109375 19.058594 11.707031 18.921875 11.390625 18.777344 C 11.597656 18.582031 11.753906 18.339844 11.898438 18.121094 C 12.019531 17.9375 12.132812 17.761719 12.242188 17.660156 C 12.523438 17.398438 12.90625 17.230469 13.226562 17.230469 C 13.425781 17.230469 13.589844 17.292969 13.722656 17.414062 C 13.878906 17.558594 14.121094 17.558594 14.277344 17.414062 C 14.410156 17.292969 14.574219 17.230469 14.773438 17.230469 C 15.09375 17.230469 15.476562 17.398438 15.757812 17.660156 C 15.867188 17.761719 15.980469 17.9375 16.101562 18.121094 C 16.246094 18.339844 16.402344 18.582031 16.609375 18.777344 C 16.292969 18.921875 15.890625 19.058594 15.484375 19.058594 Z M 15.484375 19.058594 "/>
<path style=" stroke:none;fill-rule:nonzero;fill:rgb(0%,0%,0%);fill-opacity:1;" d="M 18.503906 15.019531 C 18.277344 15.019531 18.09375 15.203125 18.09375 15.429688 L 18.09375 16.304688 C 18.09375 16.53125 18.277344 16.714844 18.503906 16.714844 C 18.730469 16.714844 18.914062 16.53125 18.914062 16.304688 L 18.914062 15.429688 C 18.914062 15.203125 18.730469 15.019531 18.503906 15.019531 Z M 18.503906 15.019531 "/>
<path style=" stroke:none;fill-rule:nonzero;fill:rgb(0%,0%,0%);fill-opacity:1;" d="M 19.097656 17.183594 L 17.90625 17.183594 C 17.679688 17.183594 17.496094 17.367188 17.496094 17.59375 C 17.496094 17.820312 17.679688 18.003906 17.90625 18.003906 L 19.097656 18.003906 C 19.324219 18.003906 19.507812 17.820312 19.507812 17.59375 C 19.507812 17.367188 19.324219 17.183594 19.097656 17.183594 Z M 19.097656 17.183594 "/>
<path style=" stroke:none;fill-rule:nonzero;fill:rgb(0%,0%,0%);fill-opacity:1;" d="M 9.496094 15.019531 C 9.269531 15.019531 9.085938 15.203125 9.085938 15.429688 L 9.085938 16.304688 C 9.085938 16.53125 9.269531 16.714844 9.496094 16.714844 C 9.722656 16.714844 9.90625 16.53125 9.90625 16.304688 L 9.90625 15.429688 C 9.90625 15.203125 9.722656 15.019531 9.496094 15.019531 Z M 9.496094 15.019531 "/>
<path style=" stroke:none;fill-rule:nonzero;fill:rgb(0%,0%,0%);fill-opacity:1;" d="M 10.09375 17.183594 L 8.902344 17.183594 C 8.675781 17.183594 8.492188 17.367188 8.492188 17.59375 C 8.492188 17.820312 8.675781 18.003906 8.902344 18.003906 L 10.09375 18.003906 C 10.320312 18.003906 10.503906 17.820312 10.503906 17.59375 C 10.503906 17.367188 10.320312 17.183594 10.09375 17.183594 Z M 10.09375 17.183594 "/>
<path style=" stroke:none;fill-rule:nonzero;fill:rgb(0%,0%,0%);fill-opacity:1;" d="M 14 4.316406 C 13.773438 4.316406 13.589844 4.5 13.589844 4.726562 L 13.589844 9.304688 C 13.589844 9.53125 13.773438 9.714844 14 9.714844 C 14.226562 9.714844 14.410156 9.53125 14.410156 9.304688 L 14.410156 4.726562 C 14.410156 4.5 14.226562 4.316406 14 4.316406 Z M 14 4.316406 "/>
<path style=" stroke:none;fill-rule:nonzero;fill:rgb(0%,0%,0%);fill-opacity:1;" d="M 9.886719 4.316406 C 9.660156 4.316406 9.476562 4.5 9.476562 4.726562 L 9.476562 9.304688 C 9.476562 9.53125 9.660156 9.714844 9.886719 9.714844 C 10.113281 9.714844 10.296875 9.53125 10.296875 9.304688 L 10.296875 4.726562 C 10.296875 4.5 10.113281 4.316406 9.886719 4.316406 Z M 9.886719 4.316406 "/>
<path style=" stroke:none;fill-rule:nonzero;fill:rgb(0%,0%,0%);fill-opacity:1;" d="M 18.113281 4.316406 C 17.886719 4.316406 17.703125 4.5 17.703125 4.726562 L 17.703125 9.304688 C 17.703125 9.53125 17.886719 9.714844 18.113281 9.714844 C 18.339844 9.714844 18.523438 9.53125 18.523438 9.304688 L 18.523438 4.726562 C 18.523438 4.5 18.339844 4.316406 18.113281 4.316406 Z M 18.113281 4.316406 "/>
<path style=" stroke:none;fill-rule:nonzero;fill:rgb(0%,0%,0%);fill-opacity:1;" d="M 13.445312 25.8125 C 13.445312 26.089844 13.21875 26.316406 12.941406 26.316406 C 12.664062 26.316406 12.4375 26.089844 12.4375 25.8125 C 12.4375 25.535156 12.664062 25.308594 12.941406 25.308594 C 13.21875 25.308594 13.445312 25.535156 13.445312 25.8125 Z M 13.445312 25.8125 "/>
<path style=" stroke:none;fill-rule:nonzero;fill:rgb(0%,0%,0%);fill-opacity:1;" d="M 17.644531 25.8125 C 17.644531 26.089844 17.417969 26.316406 17.140625 26.316406 C 16.863281 26.316406 16.636719 26.089844 16.636719 25.8125 C 16.636719 25.535156 16.863281 25.308594 17.140625 25.308594 C 17.417969 25.308594 17.644531 25.535156 17.644531 25.8125 Z M 17.644531 25.8125 "/>
<path style=" stroke:none;fill-rule:nonzero;fill:rgb(0%,0%,0%);fill-opacity:1;" d="M 23.332031 14.492188 L 23.332031 6.480469 C 23.953125 5.765625 24.292969 4.859375 24.292969 3.910156 C 24.292969 1.753906 22.539062 0 20.382812 0 C 19.101562 0 17.917969 0.628906 17.191406 1.652344 C 16.46875 0.628906 15.28125 0 14 0 C 12.71875 0 11.53125 0.628906 10.808594 1.652344 C 10.082031 0.628906 8.898438 0 7.617188 0 C 5.460938 0 3.707031 1.753906 3.707031 3.910156 C 3.707031 4.859375 4.046875 5.765625 4.667969 6.480469 L 4.667969 14.492188 C 4.085938 14.910156 3.707031 15.589844 3.707031 16.351562 C 3.707031 17.613281 4.730469 18.636719 5.992188 18.636719 C 5.992188 18.636719 5.996094 18.636719 5.996094 18.636719 C 6.453125 19.738281 7.160156 20.722656 8.058594 21.523438 C 7.242188 21.890625 6.519531 22.460938 5.976562 23.175781 C 5.261719 24.117188 4.882812 25.242188 4.882812 26.425781 L 4.882812 27.589844 C 4.882812 27.816406 5.066406 28 5.292969 28 L 22.707031 28 C 22.933594 28 23.117188 27.816406 23.117188 27.589844 L 23.117188 26.425781 C 23.117188 25.242188 22.738281 24.117188 22.023438 23.175781 C 21.480469 22.460938 20.757812 21.890625 19.941406 21.523438 C 20.839844 20.722656 21.546875 19.738281 22.003906 18.636719 C 22.003906 18.636719 22.007812 18.636719 22.007812 18.636719 C 23.269531 18.636719 24.292969 17.613281 24.292969 16.351562 C 24.292969 15.589844 23.914062 14.910156 23.332031 14.492188 Z M 4.527344 3.910156 C 4.527344 2.207031 5.914062 0.820312 7.617188 0.820312 C 8.828125 0.820312 9.933594 1.535156 10.433594 2.644531 C 10.578125 2.960938 11.039062 2.957031 11.183594 2.644531 C 11.679688 1.535156 12.785156 0.820312 14 0.820312 C 15.214844 0.820312 16.320312 1.535156 16.816406 2.644531 C 16.960938 2.960938 17.421875 2.960938 17.566406 2.644531 C 18.066406 1.535156 19.171875 0.820312 20.382812 0.820312 C 22.085938 0.820312 23.472656 2.207031 23.472656 3.910156 C 23.472656 4.707031 23.171875 5.460938 22.625 6.039062 C 22.550781 6.113281 22.511719 6.214844 22.511719 6.320312 L 22.511719 10.507812 L 5.488281 10.507812 L 5.488281 6.320312 C 5.488281 6.214844 5.449219 6.113281 5.375 6.039062 C 4.828125 5.460938 4.527344 4.707031 4.527344 3.910156 Z M 4.527344 16.351562 C 4.527344 15.734375 4.914062 15.203125 5.460938 14.988281 C 5.453125 15.046875 5.449219 15.109375 5.445312 15.171875 C 5.386719 15.921875 5.441406 16.671875 5.605469 17.410156 C 5.632812 17.535156 5.664062 17.660156 5.699219 17.789062 C 5.03125 17.652344 4.527344 17.058594 4.527344 16.351562 Z M 5.605469 14.097656 C 5.601562 14.097656 5.601562 14.097656 5.597656 14.097656 C 5.597656 14.101562 5.59375 14.101562 5.59375 14.101562 C 5.558594 14.105469 5.523438 14.113281 5.488281 14.121094 L 5.488281 12.964844 L 5.957031 12.964844 C 5.808594 13.335938 5.691406 13.710938 5.605469 14.097656 Z M 10.628906 25.09375 L 10.628906 27.179688 L 8.890625 27.179688 L 8.890625 25.140625 C 8.890625 24.914062 8.707031 24.730469 8.480469 24.730469 C 8.253906 24.730469 8.070312 24.914062 8.070312 25.140625 L 8.070312 27.179688 L 5.703125 27.179688 L 5.703125 26.425781 C 5.703125 24.484375 6.960938 22.738281 8.789062 22.117188 C 9.707031 22.773438 10.746094 23.242188 11.855469 23.511719 C 11.980469 23.539062 12.109375 23.566406 12.234375 23.59375 L 10.777344 24.777344 C 10.683594 24.855469 10.628906 24.972656 10.628906 25.09375 Z M 22.296875 26.425781 L 22.296875 27.179688 L 19.929688 27.179688 L 19.929688 25.140625 C 19.929688 24.914062 19.746094 24.730469 19.519531 24.730469 C 19.292969 24.730469 19.109375 24.914062 19.109375 25.140625 L 19.109375 27.179688 L 11.449219 27.179688 L 11.449219 25.289062 L 13.355469 23.742188 C 13.453125 23.746094 13.550781 23.753906 13.652344 23.753906 C 15.0625 23.808594 16.480469 23.539062 17.765625 22.949219 C 18.273438 22.71875 18.757812 22.441406 19.210938 22.117188 C 21.039062 22.738281 22.296875 24.484375 22.296875 26.425781 Z M 21.667969 16.851562 C 21.285156 19.15625 19.71875 21.101562 17.5625 22.140625 C 15.75 23.007812 13.617188 23.175781 11.6875 22.617188 C 8.902344 21.808594 6.785156 19.582031 6.332031 16.851562 C 6.332031 16.851562 6.332031 16.851562 6.332031 16.847656 C 6.207031 16.097656 6.164062 15.300781 6.351562 14.554688 C 6.351562 14.550781 6.351562 14.542969 6.351562 14.539062 C 6.453125 14 6.621094 13.46875 6.851562 12.964844 L 21.148438 12.964844 C 21.378906 13.46875 21.546875 14 21.648438 14.539062 C 21.648438 14.542969 21.648438 14.550781 21.648438 14.554688 C 21.789062 15.3125 21.792969 16.09375 21.667969 16.851562 Z M 5.488281 12.144531 L 5.488281 11.328125 L 22.511719 11.328125 L 22.511719 12.144531 Z M 22.511719 12.964844 L 22.511719 14.121094 C 22.476562 14.113281 22.441406 14.105469 22.40625 14.101562 C 22.40625 14.101562 22.402344 14.101562 22.402344 14.097656 C 22.398438 14.097656 22.398438 14.097656 22.394531 14.097656 C 22.308594 13.710938 22.191406 13.335938 22.042969 12.964844 Z M 22.300781 17.789062 C 22.539062 16.9375 22.625 16.046875 22.554688 15.171875 C 22.550781 15.109375 22.546875 15.046875 22.539062 14.988281 C 23.085938 15.203125 23.472656 15.734375 23.472656 16.351562 C 23.472656 17.058594 22.96875 17.652344 22.300781 17.789062 Z M 22.300781 17.789062 "/>
</g>
</svg>
