<?xml version="1.0" encoding="UTF-8"?>
<svg xmlns="http://www.w3.org/2000/svg" xmlns:xlink="http://www.w3.org/1999/xlink" width="28pt" height="28pt" viewBox="0 0 28 28" version="1.1">
<g id="surface1">
<path style=" stroke:none;fill-rule:nonzero;fill:rgb(0%,0%,0%);fill-opacity:1;" d="M 26.414062 16.984375 L 25.101562 16.984375 C 24.878906 16.984375 24.667969 17.03125 24.476562 17.113281 C 24.433594 17.066406 24.386719 17.023438 24.328125 16.988281 C 22.496094 15.984375 21.277344 14.140625 21.066406 12.066406 L 20.964844 11.082031 C 20.800781 9.457031 19.441406 8.234375 17.808594 8.234375 L 15.789062 8.234375 C 16.625 7.660156 17.171875 6.703125 17.171875 5.617188 L 17.171875 3.996094 C 17.171875 2.246094 15.75 0.824219 14 0.824219 C 12.25 0.824219 10.828125 2.246094 10.828125 3.996094 L 10.828125 5.617188 C 10.828125 6.703125 11.375 7.660156 12.210938 8.234375 L 10.082031 8.234375 C 10.054688 8.234375 10.027344 8.234375 10.003906 8.238281 C 8.453125 8.328125 7.195312 9.519531 7.035156 11.082031 L 6.933594 12.066406 C 6.722656 14.140625 5.503906 15.984375 3.671875 16.988281 C 3.613281 17.023438 3.566406 17.066406 3.523438 17.113281 C 3.332031 17.03125 3.121094 16.984375 2.898438 16.984375 L 1.585938 16.984375 C 0.710938 16.984375 0 17.695312 0 18.570312 L 0 19.902344 C 0 20.777344 0.710938 21.488281 1.585938 21.488281 L 2.351562 21.488281 C 1.792969 22.09375 1.449219 22.898438 1.449219 23.785156 C 1.449219 25.65625 2.972656 27.175781 4.839844 27.175781 L 6.910156 27.175781 C 7.210938 27.175781 7.457031 26.929688 7.457031 26.628906 C 7.457031 26.328125 7.210938 26.082031 6.910156 26.082031 L 4.839844 26.082031 C 3.574219 26.082031 2.542969 25.050781 2.542969 23.785156 C 2.542969 22.519531 3.574219 21.488281 4.839844 21.488281 L 14.710938 21.488281 L 14.710938 26.082031 L 11.425781 26.082031 C 11.125 26.082031 10.878906 26.328125 10.878906 26.628906 C 10.878906 26.929688 11.125 27.175781 11.425781 27.175781 L 23.160156 27.175781 C 25.027344 27.175781 26.550781 25.65625 26.550781 23.785156 C 26.550781 22.898438 26.207031 22.09375 25.648438 21.488281 L 26.414062 21.488281 C 27.289062 21.488281 28 20.777344 28 19.902344 L 28 18.570312 C 28 17.695312 27.289062 16.984375 26.414062 16.984375 Z M 3.390625 19.902344 C 3.390625 20.171875 3.167969 20.394531 2.898438 20.394531 L 1.585938 20.394531 C 1.316406 20.394531 1.09375 20.171875 1.09375 19.902344 L 1.09375 18.570312 C 1.09375 18.300781 1.316406 18.078125 1.585938 18.078125 L 2.898438 18.078125 C 3.167969 18.078125 3.390625 18.300781 3.390625 18.570312 Z M 18.027344 9.339844 C 18.996094 9.4375 19.777344 10.203125 19.878906 11.195312 L 19.976562 12.175781 C 20.214844 14.5 21.53125 16.574219 23.515625 17.785156 L 23.515625 20.394531 L 18.890625 20.394531 L 18.890625 18.78125 L 19.300781 14.820312 C 19.332031 14.519531 19.113281 14.25 18.816406 14.21875 C 18.515625 14.1875 18.246094 14.40625 18.214844 14.707031 L 17.875 17.960938 L 15.65625 13.886719 Z M 15.839844 9.328125 L 16.796875 9.328125 L 15.027344 12.726562 L 14.476562 11.714844 Z M 13.863281 10.585938 L 12.742188 8.527344 C 13.128906 8.695312 13.554688 8.789062 14 8.789062 C 14.339844 8.789062 14.671875 8.734375 14.976562 8.632812 Z M 11.921875 5.617188 L 11.921875 3.996094 C 11.921875 2.851562 12.855469 1.917969 14 1.917969 C 15.144531 1.917969 16.078125 2.851562 16.078125 3.996094 L 16.078125 5.617188 C 16.078125 6.761719 15.144531 7.695312 14 7.695312 C 12.855469 7.695312 11.921875 6.761719 11.921875 5.617188 Z M 9.785156 14.703125 C 9.753906 14.40625 9.488281 14.1875 9.183594 14.21875 C 8.886719 14.25 8.667969 14.519531 8.699219 14.820312 L 9.113281 18.78125 L 9.113281 20.394531 L 4.484375 20.394531 L 4.484375 17.785156 C 6.46875 16.574219 7.785156 14.5 8.023438 12.175781 L 8.121094 11.195312 C 8.21875 10.269531 8.898438 9.542969 9.777344 9.367188 L 11.117188 11.824219 C 11.261719 12.089844 11.59375 12.1875 11.855469 12.042969 C 12.121094 11.898438 12.21875 11.566406 12.074219 11.300781 L 11 9.328125 L 11.929688 9.328125 L 16.765625 18.207031 L 15.832031 18.207031 L 14.1875 15.183594 C 14.042969 14.917969 13.710938 14.820312 13.445312 14.964844 C 13.179688 15.109375 13.082031 15.441406 13.226562 15.707031 L 14.589844 18.207031 L 10.152344 18.207031 Z M 10.203125 20.394531 L 10.203125 19.300781 L 17.792969 19.300781 L 17.792969 20.394531 Z M 23.160156 26.082031 L 15.804688 26.082031 L 15.804688 25.644531 L 18.808594 25.644531 C 19.835938 25.644531 20.667969 24.808594 20.667969 23.785156 C 20.667969 22.761719 19.835938 21.925781 18.808594 21.925781 L 15.804688 21.925781 L 15.804688 21.488281 L 23.160156 21.488281 C 24.425781 21.488281 25.457031 22.519531 25.457031 23.785156 C 25.457031 25.050781 24.425781 26.082031 23.160156 26.082031 Z M 15.855469 24.550781 L 15.855469 23.019531 L 18.808594 23.019531 C 19.230469 23.019531 19.574219 23.363281 19.574219 23.785156 C 19.574219 24.207031 19.230469 24.550781 18.808594 24.550781 Z M 26.90625 19.902344 C 26.90625 20.171875 26.683594 20.394531 26.414062 20.394531 L 25.101562 20.394531 C 24.832031 20.394531 24.609375 20.171875 24.609375 19.902344 L 24.609375 18.570312 C 24.609375 18.300781 24.832031 18.078125 25.101562 18.078125 L 26.414062 18.078125 C 26.683594 18.078125 26.90625 18.300781 26.90625 18.570312 Z M 26.90625 19.902344 "/>
<path style=" stroke:none;fill-rule:nonzero;fill:rgb(0%,0%,0%);fill-opacity:1;" d="M 13.132812 13.246094 L 13.125 13.230469 C 12.980469 12.964844 12.648438 12.867188 12.382812 13.011719 C 12.117188 13.15625 12.019531 13.488281 12.164062 13.753906 L 12.175781 13.769531 C 12.273438 13.953125 12.460938 14.054688 12.65625 14.054688 C 12.742188 14.054688 12.832031 14.035156 12.917969 13.988281 C 13.179688 13.84375 13.277344 13.511719 13.132812 13.246094 Z M 13.132812 13.246094 "/>
<path style=" stroke:none;fill-rule:nonzero;fill:rgb(0%,0%,0%);fill-opacity:1;" d="M 9.628906 26.242188 C 9.527344 26.140625 9.386719 26.082031 9.242188 26.082031 C 9.097656 26.082031 8.957031 26.140625 8.855469 26.242188 C 8.753906 26.34375 8.695312 26.484375 8.695312 26.628906 C 8.695312 26.773438 8.753906 26.914062 8.855469 27.015625 C 8.957031 27.117188 9.097656 27.175781 9.242188 27.175781 C 9.386719 27.175781 9.527344 27.117188 9.628906 27.015625 C 9.730469 26.914062 9.789062 26.773438 9.789062 26.628906 C 9.789062 26.484375 9.730469 26.34375 9.628906 26.242188 Z M 9.628906 26.242188 "/>
</g>
</svg>
