<?xml version="1.0" encoding="UTF-8"?>
<svg xmlns="http://www.w3.org/2000/svg" xmlns:xlink="http://www.w3.org/1999/xlink" width="28pt" height="27pt" viewBox="0 0 28 27" version="1.1">
<g id="surface1">
<path style=" stroke:none;fill-rule:nonzero;fill:rgb(0%,0%,0%);fill-opacity:1;" d="M 26.128906 6.753906 C 22.261719 0.296875 13.699219 -1.917969 7.003906 1.8125 C 0.304688 5.539062 -1.988281 13.796875 1.878906 20.253906 C 5.742188 26.710938 14.308594 28.921875 21.003906 25.195312 C 27.699219 21.464844 29.996094 13.210938 26.128906 6.753906 Z M 19.601562 22.855469 C 14.246094 25.839844 7.394531 24.070312 4.304688 18.902344 C 1.210938 13.738281 3.046875 7.132812 8.402344 4.148438 C 13.757812 1.167969 20.609375 2.9375 23.703125 8.101562 C 26.796875 13.269531 24.960938 19.875 19.601562 22.855469 Z M 19.042969 12.953125 L 11.710938 8.832031 C 11.042969 8.453125 10.503906 8.753906 10.507812 9.5 L 10.546875 17.683594 C 10.550781 18.429688 11.09375 18.734375 11.765625 18.359375 L 19.039062 14.308594 C 19.710938 13.9375 19.710938 13.332031 19.042969 12.953125 Z M 19.042969 12.953125 "/>
</g>
</svg>
