<?xml version="1.0" encoding="UTF-8"?>
<svg xmlns="http://www.w3.org/2000/svg" xmlns:xlink="http://www.w3.org/1999/xlink" width="28pt" height="28pt" viewBox="0 0 28 28" version="1.1">
<g id="surface1">
<path style=" stroke:none;fill-rule:nonzero;fill:rgb(0%,0%,0%);fill-opacity:1;" d="M 24.707031 10.667969 L 17.332031 10.667969 L 17.332031 3.292969 C 17.332031 1.484375 15.8125 0 14 0 C 12.1875 0 10.667969 1.484375 10.667969 3.292969 L 10.667969 10.667969 L 3.292969 10.667969 C 1.484375 10.667969 0 12.1875 0 14 C 0 15.8125 1.484375 17.332031 3.292969 17.332031 L 10.667969 17.332031 L 10.667969 24.707031 C 10.667969 26.515625 12.1875 28 14 28 C 15.8125 28 17.332031 26.515625 17.332031 24.707031 L 17.332031 17.332031 L 24.707031 17.332031 C 26.515625 17.332031 28 15.8125 28 14 C 28 12.1875 26.515625 10.667969 24.707031 10.667969 Z M 24.707031 10.667969 "/>
</g>
</svg>
