<?xml version="1.0" encoding="UTF-8"?>
<svg xmlns="http://www.w3.org/2000/svg" xmlns:xlink="http://www.w3.org/1999/xlink" width="14pt" height="14pt" viewBox="0 0 14 14" version="1.1">
<g id="surface1">
<path style=" stroke:none;fill-rule:nonzero;fill:rgb(0%,0%,0%);fill-opacity:1;" d="M 10.269531 12 L 0.5 12 C 0.359375 12 0.25 12.109375 0.25 12.25 C 0.25 12.390625 0.359375 12.5 0.5 12.5 L 10.269531 12.5 C 10.390625 13.347656 11.121094 14 12 14 C 12.964844 14 13.75 13.214844 13.75 12.25 C 13.75 11.285156 12.964844 10.5 12 10.5 C 11.121094 10.5 10.390625 11.152344 10.269531 12 Z M 10.269531 12 "/>
<path style=" stroke:none;fill-rule:nonzero;fill:rgb(0%,0%,0%);fill-opacity:1;" d="M 5.171875 6.75 L 0.5 6.75 C 0.359375 6.75 0.25 6.859375 0.25 7 C 0.25 7.140625 0.359375 7.25 0.5 7.25 L 5.15625 7.25 C 5.257812 8.148438 6.023438 8.851562 6.949219 8.851562 C 7.875 8.851562 8.640625 8.148438 8.738281 7.25 L 13.5 7.25 C 13.640625 7.25 13.75 7.140625 13.75 7 C 13.75 6.859375 13.640625 6.75 13.5 6.75 L 8.722656 6.75 C 8.578125 5.898438 7.835938 5.25 6.949219 5.25 C 6.058594 5.25 5.320312 5.898438 5.171875 6.75 Z M 5.171875 6.75 "/>
<path style=" stroke:none;fill-rule:nonzero;fill:rgb(0%,0%,0%);fill-opacity:1;" d="M 2 0 C 1.035156 0 0.25 0.785156 0.25 1.75 C 0.25 2.714844 1.035156 3.5 2 3.5 C 2.878906 3.5 3.609375 2.847656 3.730469 2 L 13.5 2 C 13.640625 2 13.75 1.890625 13.75 1.75 C 13.75 1.609375 13.640625 1.5 13.5 1.5 L 3.730469 1.5 C 3.609375 0.652344 2.878906 0 2 0 Z M 2 0 "/>
</g>
</svg>
