<?xml version="1.0" encoding="UTF-8"?>
<svg xmlns="http://www.w3.org/2000/svg" xmlns:xlink="http://www.w3.org/1999/xlink" width="28pt" height="28pt" viewBox="0 0 28 28" version="1.1">
<g id="surface1">
<path style=" stroke:none;fill-rule:nonzero;fill:rgb(0%,0%,0%);fill-opacity:1;" d="M 27.953125 10.546875 C 26.851562 7.433594 23.894531 5.339844 20.589844 5.339844 C 20.351562 5.339844 20.117188 5.351562 19.882812 5.375 L 19.644531 4.660156 L 20.417969 4.917969 C 20.714844 5.015625 21.039062 4.941406 21.257812 4.722656 L 23.898438 2.082031 C 24.085938 1.890625 24.171875 1.625 24.128906 1.363281 C 24.082031 1.097656 23.914062 0.875 23.671875 0.761719 C 20.691406 -0.664062 17.121094 -0.0507812 14.785156 2.285156 C 14.5 2.574219 14.238281 2.878906 14 3.207031 C 13.761719 2.878906 13.5 2.574219 13.214844 2.285156 C 10.878906 -0.0507812 7.308594 -0.664062 4.328125 0.761719 C 4.085938 0.875 3.917969 1.097656 3.871094 1.363281 C 3.828125 1.625 3.914062 1.890625 4.101562 2.082031 L 6.742188 4.722656 C 6.960938 4.941406 7.285156 5.015625 7.582031 4.917969 L 8.355469 4.660156 L 8.117188 5.375 C 7.882812 5.351562 7.648438 5.339844 7.410156 5.339844 C 4.105469 5.339844 1.148438 7.433594 0.046875 10.546875 C -0.0429688 10.796875 -0.00390625 11.074219 0.152344 11.292969 C 0.304688 11.511719 0.554688 11.640625 0.820312 11.640625 L 4.554688 11.640625 C 4.867188 11.640625 5.148438 11.464844 5.289062 11.1875 L 5.652344 10.457031 L 5.988281 11.128906 C 5.808594 11.277344 5.632812 11.4375 5.464844 11.605469 C 3.128906 13.941406 2.515625 17.511719 3.941406 20.492188 C 4.054688 20.734375 4.28125 20.902344 4.542969 20.949219 C 4.589844 20.957031 4.632812 20.960938 4.679688 20.960938 C 4.894531 20.960938 5.105469 20.875 5.261719 20.71875 L 7.902344 18.078125 C 8.121094 17.859375 8.199219 17.535156 8.097656 17.238281 L 7.839844 16.464844 L 8.613281 16.722656 C 8.910156 16.820312 9.234375 16.746094 9.453125 16.527344 L 10.648438 15.332031 L 10.546875 16.566406 C 10.527344 16.796875 10.605469 17.023438 10.761719 17.191406 C 10.808594 17.242188 10.863281 17.289062 10.921875 17.324219 L 10.546875 21.839844 C 10.527344 22.066406 10.605469 22.292969 10.761719 22.460938 C 10.808594 22.515625 10.863281 22.558594 10.921875 22.597656 L 10.546875 27.109375 C 10.527344 27.339844 10.605469 27.566406 10.761719 27.734375 C 10.914062 27.902344 11.132812 28 11.363281 28 L 16.636719 28 C 17.089844 28 17.457031 27.632812 17.457031 27.179688 C 17.457031 27.140625 17.453125 27.101562 17.449219 27.066406 L 17.078125 22.597656 C 17.304688 22.453125 17.457031 22.199219 17.457031 21.90625 C 17.457031 21.867188 17.453125 21.832031 17.449219 21.792969 L 17.078125 17.324219 C 17.136719 17.289062 17.191406 17.242188 17.238281 17.191406 C 17.394531 17.023438 17.472656 16.796875 17.453125 16.566406 L 17.351562 15.332031 L 18.546875 16.527344 C 18.765625 16.746094 19.089844 16.820312 19.386719 16.722656 L 20.160156 16.464844 L 19.902344 17.238281 C 19.800781 17.535156 19.878906 17.859375 20.097656 18.078125 L 22.738281 20.71875 C 22.894531 20.875 23.105469 20.960938 23.320312 20.960938 C 23.367188 20.960938 23.410156 20.957031 23.457031 20.949219 C 23.71875 20.902344 23.945312 20.734375 24.058594 20.492188 C 25.484375 17.511719 24.871094 13.941406 22.535156 11.605469 C 22.367188 11.4375 22.191406 11.277344 22.011719 11.128906 L 22.347656 10.457031 L 22.710938 11.1875 C 22.851562 11.464844 23.132812 11.640625 23.445312 11.640625 L 27.179688 11.640625 C 27.445312 11.640625 27.695312 11.511719 27.847656 11.292969 C 28.003906 11.074219 28.042969 10.796875 27.953125 10.546875 Z M 21.832031 1.828125 L 20.457031 3.203125 L 18.609375 2.585938 C 18.3125 2.488281 17.988281 2.566406 17.769531 2.785156 C 17.550781 3.003906 17.472656 3.328125 17.570312 3.625 L 18.1875 5.472656 L 17.800781 5.859375 C 16.664062 6.296875 15.640625 6.992188 14.820312 7.890625 L 14.820312 4.992188 C 15.113281 4.421875 15.492188 3.902344 15.945312 3.445312 C 17.5 1.890625 19.75 1.300781 21.832031 1.828125 Z M 9.8125 5.472656 L 10.429688 3.625 C 10.527344 3.328125 10.449219 3.003906 10.230469 2.785156 C 10.011719 2.566406 9.6875 2.488281 9.390625 2.585938 L 7.542969 3.203125 L 6.167969 1.828125 C 8.25 1.300781 10.5 1.890625 12.054688 3.445312 C 12.507812 3.902344 12.886719 4.421875 13.179688 4.992188 L 13.179688 7.890625 C 12.359375 6.992188 11.335938 6.296875 10.199219 5.859375 Z M 7.257812 10 L 6.386719 8.257812 C 6.246094 7.976562 5.964844 7.804688 5.652344 7.804688 C 5.34375 7.804688 5.058594 7.976562 4.917969 8.257812 L 4.046875 10 L 2.105469 10 C 3.203125 8.15625 5.210938 6.980469 7.410156 6.980469 C 9.378906 6.980469 11.191406 7.921875 12.335938 9.4375 C 11.890625 9.359375 11.4375 9.320312 10.988281 9.320312 C 9.867188 9.320312 8.78125 9.554688 7.789062 10 Z M 8.652344 15.007812 L 6.804688 14.390625 C 6.507812 14.292969 6.183594 14.371094 5.964844 14.589844 C 5.746094 14.808594 5.667969 15.132812 5.765625 15.429688 L 6.382812 17.277344 L 5.007812 18.648438 C 4.480469 16.570312 5.070312 14.320312 6.625 12.765625 C 7.121094 12.273438 7.679688 11.875 8.289062 11.578125 C 8.316406 11.566406 8.34375 11.554688 8.367188 11.539062 C 9.175781 11.160156 10.066406 10.960938 10.988281 10.960938 C 11.5 10.960938 12.011719 11.023438 12.507812 11.148438 L 11.070312 12.589844 C 11.066406 12.59375 11.066406 12.59375 11.0625 12.597656 Z M 15.746094 21.085938 L 12.253906 21.085938 L 12.558594 17.457031 L 15.441406 17.457031 Z M 12.253906 26.359375 L 12.558594 22.726562 L 15.441406 22.726562 L 15.746094 26.359375 Z M 15.746094 15.816406 L 12.253906 15.816406 L 12.445312 13.535156 L 14 11.980469 L 15.554688 13.535156 Z M 22.992188 18.648438 L 21.617188 17.277344 L 22.234375 15.429688 C 22.332031 15.132812 22.253906 14.808594 22.035156 14.589844 C 21.816406 14.371094 21.492188 14.292969 21.195312 14.390625 L 19.347656 15.007812 L 15.488281 11.148438 C 15.988281 11.023438 16.5 10.960938 17.011719 10.960938 C 17.933594 10.960938 18.824219 11.160156 19.632812 11.539062 C 19.65625 11.554688 19.683594 11.566406 19.710938 11.578125 C 20.320312 11.875 20.878906 12.273438 21.375 12.765625 C 22.929688 14.320312 23.519531 16.570312 22.992188 18.648438 Z M 23.953125 10 L 23.082031 8.257812 C 22.941406 7.980469 22.65625 7.804688 22.347656 7.804688 C 22.035156 7.804688 21.753906 7.980469 21.613281 8.257812 L 20.742188 10 L 20.210938 10 C 19.21875 9.554688 18.132812 9.320312 17.011719 9.320312 C 16.5625 9.320312 16.109375 9.359375 15.664062 9.4375 C 16.808594 7.921875 18.621094 6.980469 20.589844 6.980469 C 22.789062 6.980469 24.796875 8.15625 25.894531 10 Z M 23.953125 10 "/>
</g>
</svg>
