<?xml version="1.0" encoding="UTF-8"?>
<svg xmlns="http://www.w3.org/2000/svg" xmlns:xlink="http://www.w3.org/1999/xlink" width="28pt" height="28pt" viewBox="0 0 28 28" version="1.1">
<g id="surface1">
<path style=" stroke:none;fill-rule:nonzero;fill:rgb(0%,0%,0%);fill-opacity:1;" d="M 23.898438 4.101562 C 21.253906 1.457031 17.738281 0 14 0 C 10.261719 0 6.746094 1.457031 4.101562 4.101562 C 1.457031 6.746094 0 10.261719 0 14 C 0 17.738281 1.457031 21.253906 4.101562 23.898438 C 6.746094 26.542969 10.261719 28 14 28 C 17.738281 28 21.253906 26.542969 23.898438 23.898438 C 26.542969 21.253906 28 17.738281 28 14 C 28 10.261719 26.542969 6.746094 23.898438 4.101562 Z M 14 27.105469 C 6.773438 27.105469 0.894531 21.226562 0.894531 14 C 0.894531 6.773438 6.773438 0.894531 14 0.894531 C 21.226562 0.894531 27.105469 6.773438 27.105469 14 C 27.105469 21.226562 21.226562 27.105469 14 27.105469 Z M 14 27.105469 "/>
<path style=" stroke:none;fill-rule:nonzero;fill:rgb(0%,0%,0%);fill-opacity:1;" d="M 25.332031 18.550781 C 25.898438 17.144531 26.210938 15.609375 26.210938 14 C 26.210938 13.945312 26.210938 13.886719 26.210938 13.832031 C 26.210938 13.703125 26.152344 13.585938 26.058594 13.5 C 25.375 12.910156 24.558594 12.472656 23.691406 12.234375 C 23.671875 12.226562 23.652344 12.226562 23.636719 12.222656 C 23.632812 12.222656 23.628906 12.222656 23.625 12.222656 C 23.613281 12.21875 23.597656 12.21875 23.585938 12.21875 C 23.578125 12.21875 23.574219 12.21875 23.566406 12.21875 C 23.554688 12.21875 23.542969 12.21875 23.53125 12.21875 C 23.527344 12.21875 23.519531 12.21875 23.515625 12.222656 C 23.5 12.222656 23.484375 12.226562 23.46875 12.230469 C 23.464844 12.230469 23.460938 12.230469 23.457031 12.230469 C 23.445312 12.234375 23.429688 12.242188 23.414062 12.246094 C 23.410156 12.246094 23.40625 12.25 23.398438 12.25 C 23.386719 12.257812 23.378906 12.261719 23.367188 12.265625 C 23.363281 12.269531 23.355469 12.273438 23.351562 12.273438 C 23.339844 12.28125 23.328125 12.289062 23.316406 12.296875 C 23.3125 12.300781 23.3125 12.300781 23.308594 12.304688 C 23.292969 12.3125 23.28125 12.324219 23.265625 12.335938 C 23.011719 12.574219 22.785156 12.832031 22.578125 13.101562 L 20.949219 13.101562 L 20.949219 9.039062 C 21.789062 9.242188 22.414062 9.996094 22.414062 10.898438 C 22.414062 11.144531 22.613281 11.34375 22.859375 11.34375 C 23.105469 11.34375 23.304688 11.144531 23.304688 10.898438 C 23.304688 9.910156 22.792969 9.042969 22.023438 8.542969 C 22.566406 8.582031 23.089844 8.847656 23.433594 9.324219 C 23.519531 9.445312 23.65625 9.507812 23.796875 9.507812 C 23.886719 9.507812 23.976562 9.480469 24.058594 9.421875 C 24.257812 9.277344 24.300781 9 24.15625 8.796875 C 23.578125 8 22.652344 7.597656 21.734375 7.648438 C 22.195312 7.359375 22.777344 7.269531 23.335938 7.449219 C 23.570312 7.527344 23.820312 7.398438 23.898438 7.164062 C 23.972656 6.929688 23.84375 6.675781 23.609375 6.601562 C 22.441406 6.222656 21.203125 6.652344 20.503906 7.585938 C 19.949219 6.847656 19.058594 6.414062 18.101562 6.46875 C 17.855469 6.480469 17.667969 6.691406 17.679688 6.941406 C 17.695312 7.1875 17.90625 7.375 18.152344 7.359375 C 18.558594 7.335938 18.949219 7.445312 19.273438 7.648438 C 18.355469 7.597656 17.429688 8 16.847656 8.796875 C 16.703125 9 16.746094 9.277344 16.945312 9.421875 C 17.027344 9.480469 17.117188 9.507812 17.207031 9.507812 C 17.347656 9.507812 17.484375 9.445312 17.570312 9.324219 C 17.914062 8.851562 18.4375 8.582031 18.984375 8.542969 C 18.210938 9.042969 17.699219 9.910156 17.699219 10.898438 C 17.699219 11.144531 17.898438 11.34375 18.144531 11.34375 C 18.390625 11.34375 18.589844 11.144531 18.589844 10.898438 C 18.589844 9.996094 19.214844 9.242188 20.054688 9.039062 L 20.054688 13.101562 L 14.445312 13.101562 L 14.445312 4.691406 C 15.285156 4.894531 15.910156 5.648438 15.910156 6.546875 C 15.910156 6.796875 16.109375 6.996094 16.355469 6.996094 C 16.605469 6.996094 16.804688 6.796875 16.804688 6.546875 C 16.804688 5.5625 16.292969 4.691406 15.519531 4.191406 C 16.0625 4.230469 16.585938 4.5 16.929688 4.976562 C 17.019531 5.09375 17.15625 5.160156 17.292969 5.160156 C 17.382812 5.160156 17.476562 5.132812 17.554688 5.074219 C 17.753906 4.929688 17.800781 4.648438 17.652344 4.449219 C 17.074219 3.652344 16.148438 3.25 15.230469 3.300781 C 15.691406 3.011719 16.273438 2.921875 16.832031 3.101562 C 17.066406 3.179688 17.320312 3.050781 17.394531 2.816406 C 17.472656 2.582031 17.34375 2.328125 17.109375 2.253906 C 15.941406 1.871094 14.699219 2.304688 14 3.234375 C 13.300781 2.304688 12.058594 1.871094 10.890625 2.253906 C 10.65625 2.328125 10.527344 2.582031 10.605469 2.816406 C 10.679688 3.050781 10.933594 3.179688 11.167969 3.101562 C 11.726562 2.921875 12.308594 3.011719 12.769531 3.300781 C 11.851562 3.25 10.925781 3.652344 10.34375 4.449219 C 10.199219 4.648438 10.246094 4.929688 10.445312 5.074219 C 10.523438 5.132812 10.617188 5.160156 10.707031 5.160156 C 10.84375 5.160156 10.980469 5.09375 11.070312 4.976562 C 11.414062 4.5 11.9375 4.230469 12.480469 4.191406 C 11.707031 4.691406 11.195312 5.5625 11.195312 6.546875 C 11.195312 6.796875 11.394531 6.996094 11.640625 6.996094 C 11.890625 6.996094 12.089844 6.796875 12.089844 6.546875 C 12.089844 5.648438 12.714844 4.894531 13.554688 4.691406 L 13.554688 13.101562 L 7.945312 13.101562 L 7.945312 9.039062 C 8.78125 9.242188 9.410156 9.996094 9.410156 10.898438 C 9.410156 11.144531 9.609375 11.34375 9.855469 11.34375 C 10.101562 11.34375 10.300781 11.144531 10.300781 10.898438 C 10.300781 9.910156 9.789062 9.042969 9.015625 8.542969 C 9.5625 8.582031 10.085938 8.847656 10.429688 9.324219 C 10.515625 9.445312 10.652344 9.507812 10.789062 9.507812 C 10.882812 9.507812 10.972656 9.480469 11.054688 9.421875 C 11.253906 9.277344 11.296875 9 11.152344 8.796875 C 10.570312 8 9.644531 7.597656 8.726562 7.648438 C 9.050781 7.445312 9.441406 7.335938 9.847656 7.359375 C 10.09375 7.375 10.304688 7.1875 10.320312 6.941406 C 10.332031 6.691406 10.144531 6.480469 9.898438 6.46875 C 8.941406 6.414062 8.050781 6.847656 7.496094 7.585938 C 6.796875 6.652344 5.558594 6.222656 4.390625 6.601562 C 4.15625 6.675781 4.027344 6.929688 4.101562 7.164062 C 4.179688 7.398438 4.429688 7.527344 4.664062 7.449219 C 5.222656 7.269531 5.804688 7.359375 6.265625 7.648438 C 5.347656 7.597656 4.421875 8 3.84375 8.796875 C 3.699219 9 3.742188 9.277344 3.941406 9.421875 C 4.019531 9.480469 4.113281 9.507812 4.203125 9.507812 C 4.34375 9.507812 4.480469 9.445312 4.566406 9.324219 C 4.910156 8.847656 5.433594 8.582031 5.976562 8.542969 C 5.207031 9.042969 4.691406 9.910156 4.691406 10.898438 C 4.691406 11.144531 4.894531 11.34375 5.140625 11.34375 C 5.386719 11.34375 5.585938 11.144531 5.585938 10.898438 C 5.585938 9.996094 6.210938 9.242188 7.050781 9.039062 L 7.050781 13.101562 L 5.421875 13.101562 C 5.214844 12.832031 4.988281 12.574219 4.734375 12.339844 C 4.71875 12.324219 4.707031 12.3125 4.691406 12.300781 C 4.6875 12.300781 4.6875 12.300781 4.683594 12.296875 C 4.671875 12.289062 4.660156 12.28125 4.648438 12.273438 C 4.644531 12.273438 4.636719 12.269531 4.632812 12.265625 C 4.621094 12.261719 4.609375 12.257812 4.597656 12.25 C 4.59375 12.25 4.589844 12.246094 4.585938 12.246094 C 4.570312 12.242188 4.554688 12.234375 4.539062 12.230469 C 4.539062 12.230469 4.535156 12.230469 4.53125 12.230469 C 4.515625 12.226562 4.5 12.222656 4.484375 12.222656 C 4.480469 12.21875 4.476562 12.21875 4.46875 12.21875 C 4.457031 12.21875 4.445312 12.21875 4.429688 12.21875 C 4.425781 12.21875 4.421875 12.21875 4.417969 12.21875 C 4.402344 12.21875 4.386719 12.21875 4.371094 12.222656 C 4.367188 12.222656 4.367188 12.222656 4.363281 12.222656 C 4.347656 12.226562 4.328125 12.226562 4.308594 12.234375 C 3.441406 12.472656 2.625 12.910156 1.941406 13.5 C 1.847656 13.585938 1.789062 13.703125 1.789062 13.832031 C 1.789062 13.886719 1.789062 13.945312 1.789062 14 C 1.789062 15.609375 2.101562 17.144531 2.667969 18.550781 C 2.667969 18.554688 2.671875 18.558594 2.671875 18.558594 C 3.597656 20.847656 5.195312 22.796875 7.21875 24.152344 C 7.222656 24.152344 7.226562 24.15625 7.226562 24.15625 C 9.167969 25.457031 11.496094 26.210938 14 26.210938 C 16.503906 26.210938 18.832031 25.457031 20.773438 24.15625 C 20.773438 24.15625 20.777344 24.152344 20.78125 24.152344 C 22.804688 22.796875 24.402344 20.847656 25.328125 18.5625 C 25.328125 18.558594 25.332031 18.554688 25.332031 18.550781 Z M 24.746094 17.558594 C 24.027344 16.867188 23.191406 16.339844 22.289062 15.992188 C 22.425781 15.109375 22.785156 14.28125 23.335938 13.582031 L 23.832031 15.59375 C 23.882812 15.796875 24.0625 15.933594 24.265625 15.933594 C 24.300781 15.933594 24.335938 15.929688 24.371094 15.917969 C 24.613281 15.859375 24.757812 15.617188 24.699219 15.378906 L 24.203125 13.367188 C 24.601562 13.546875 24.980469 13.777344 25.320312 14.050781 C 25.3125 15.273438 25.113281 16.453125 24.746094 17.558594 Z M 3.796875 13.367188 L 3.300781 15.378906 C 3.242188 15.617188 3.386719 15.859375 3.628906 15.917969 C 3.664062 15.929688 3.699219 15.933594 3.734375 15.933594 C 3.9375 15.933594 4.117188 15.796875 4.167969 15.59375 L 4.664062 13.582031 C 5.214844 14.28125 5.574219 15.109375 5.710938 15.992188 C 4.808594 16.339844 3.972656 16.867188 3.253906 17.558594 C 2.886719 16.453125 2.6875 15.273438 2.679688 14.046875 C 3.019531 13.777344 3.398438 13.546875 3.796875 13.367188 Z M 3.605469 18.476562 C 3.667969 18.410156 3.730469 18.34375 3.796875 18.28125 C 5.253906 16.820312 7.320312 16.160156 9.335938 16.46875 L 5.894531 19.910156 C 5.71875 20.085938 5.71875 20.371094 5.894531 20.542969 C 5.980469 20.632812 6.09375 20.675781 6.210938 20.675781 C 6.324219 20.675781 6.4375 20.632812 6.523438 20.542969 L 9.96875 17.101562 C 10.277344 19.117188 9.617188 21.183594 8.15625 22.640625 C 7.941406 22.855469 7.710938 23.058594 7.46875 23.238281 C 5.78125 22.042969 4.433594 20.398438 3.605469 18.476562 Z M 8.261719 23.753906 C 8.445312 23.601562 8.621094 23.441406 8.789062 23.273438 C 10.664062 21.398438 11.382812 18.644531 10.660156 16.085938 C 10.65625 16.066406 10.648438 16.050781 10.640625 16.03125 C 10.640625 16.03125 10.640625 16.027344 10.640625 16.023438 C 10.632812 16.011719 10.625 16 10.621094 15.984375 C 10.617188 15.980469 10.613281 15.976562 10.613281 15.972656 C 10.605469 15.960938 10.597656 15.949219 10.589844 15.941406 C 10.585938 15.9375 10.585938 15.933594 10.582031 15.929688 C 10.570312 15.914062 10.558594 15.902344 10.546875 15.890625 C 10.535156 15.878906 10.519531 15.867188 10.507812 15.855469 C 10.503906 15.851562 10.5 15.851562 10.496094 15.847656 C 10.484375 15.839844 10.476562 15.832031 10.464844 15.824219 C 10.460938 15.824219 10.457031 15.820312 10.453125 15.816406 C 10.4375 15.808594 10.425781 15.804688 10.414062 15.796875 C 10.410156 15.796875 10.40625 15.796875 10.40625 15.792969 C 10.386719 15.789062 10.371094 15.78125 10.355469 15.777344 C 9.097656 15.421875 7.796875 15.417969 6.574219 15.722656 C 6.464844 15.117188 6.265625 14.535156 5.988281 13.996094 L 22.011719 13.996094 C 21.734375 14.535156 21.535156 15.117188 21.425781 15.722656 C 20.207031 15.417969 18.902344 15.421875 17.648438 15.777344 C 17.628906 15.78125 17.613281 15.789062 17.59375 15.792969 C 17.59375 15.796875 17.589844 15.796875 17.589844 15.796875 C 17.574219 15.804688 17.5625 15.808594 17.546875 15.816406 C 17.542969 15.820312 17.539062 15.824219 17.535156 15.824219 C 17.523438 15.832031 17.515625 15.839844 17.503906 15.847656 C 17.5 15.851562 17.496094 15.851562 17.492188 15.855469 C 17.480469 15.867188 17.464844 15.878906 17.453125 15.890625 C 17.441406 15.902344 17.429688 15.914062 17.417969 15.929688 C 17.414062 15.933594 17.414062 15.9375 17.410156 15.941406 C 17.402344 15.949219 17.394531 15.960938 17.386719 15.972656 C 17.386719 15.976562 17.382812 15.980469 17.382812 15.984375 C 17.375 16 17.367188 16.011719 17.359375 16.023438 C 17.359375 16.027344 17.359375 16.03125 17.359375 16.03125 C 17.351562 16.050781 17.34375 16.066406 17.339844 16.082031 C 16.621094 18.644531 17.335938 21.398438 19.210938 23.273438 C 19.378906 23.441406 19.554688 23.601562 19.738281 23.753906 C 18.054688 24.746094 16.09375 25.320312 14 25.320312 C 11.90625 25.320312 9.945312 24.746094 8.261719 23.753906 Z M 20.53125 23.238281 C 20.289062 23.058594 20.058594 22.855469 19.84375 22.640625 C 18.382812 21.183594 17.722656 19.117188 18.03125 17.101562 L 21.476562 20.542969 C 21.5625 20.632812 21.675781 20.675781 21.789062 20.675781 C 21.90625 20.675781 22.019531 20.632812 22.105469 20.542969 C 22.28125 20.371094 22.28125 20.085938 22.105469 19.910156 L 18.664062 16.46875 C 20.679688 16.160156 22.746094 16.820312 24.207031 18.28125 C 24.269531 18.34375 24.332031 18.410156 24.394531 18.476562 C 23.566406 20.398438 22.21875 22.042969 20.53125 23.238281 Z M 20.53125 23.238281 "/>
<path style=" stroke:none;fill-rule:nonzero;fill:rgb(0%,0%,0%);fill-opacity:1;" d="M 11.84375 15.785156 L 16.148438 15.785156 C 16.394531 15.785156 16.59375 15.582031 16.59375 15.335938 C 16.59375 15.089844 16.394531 14.890625 16.148438 14.890625 L 11.84375 14.890625 C 11.597656 14.890625 11.394531 15.089844 11.394531 15.335938 C 11.394531 15.582031 11.597656 15.785156 11.84375 15.785156 Z M 11.84375 15.785156 "/>
<path style=" stroke:none;fill-rule:nonzero;fill:rgb(0%,0%,0%);fill-opacity:1;" d="M 12.277344 16.675781 C 12.03125 16.675781 11.828125 16.878906 11.828125 17.125 C 11.828125 17.371094 12.03125 17.570312 12.277344 17.570312 L 13.9375 17.570312 C 14.183594 17.570312 14.382812 17.371094 14.382812 17.125 C 14.382812 16.878906 14.183594 16.675781 13.9375 16.675781 Z M 12.277344 16.675781 "/>
<path style=" stroke:none;fill-rule:nonzero;fill:rgb(0%,0%,0%);fill-opacity:1;" d="M 16.574219 20.699219 C 16.574219 20.453125 16.375 20.253906 16.128906 20.253906 L 13.660156 20.253906 C 13.414062 20.253906 13.214844 20.453125 13.214844 20.699219 C 13.214844 20.945312 13.414062 21.144531 13.660156 21.144531 L 16.128906 21.144531 C 16.375 21.144531 16.574219 20.945312 16.574219 20.699219 Z M 16.574219 20.699219 "/>
<path style=" stroke:none;fill-rule:nonzero;fill:rgb(0%,0%,0%);fill-opacity:1;" d="M 16.839844 22.039062 L 14.175781 22.039062 C 13.929688 22.039062 13.730469 22.238281 13.730469 22.484375 C 13.730469 22.734375 13.929688 22.933594 14.175781 22.933594 L 16.839844 22.933594 C 17.085938 22.933594 17.285156 22.734375 17.285156 22.484375 C 17.285156 22.238281 17.085938 22.039062 16.839844 22.039062 Z M 16.839844 22.039062 "/>
<path style=" stroke:none;fill-rule:nonzero;fill:rgb(0%,0%,0%);fill-opacity:1;" d="M 12.390625 22.039062 L 11.199219 22.039062 C 10.949219 22.039062 10.75 22.238281 10.75 22.484375 C 10.75 22.734375 10.949219 22.933594 11.199219 22.933594 L 12.390625 22.933594 C 12.636719 22.933594 12.835938 22.734375 12.835938 22.484375 C 12.835938 22.238281 12.636719 22.039062 12.390625 22.039062 Z M 12.390625 22.039062 "/>
</g>
</svg>
