<?xml version="1.0" encoding="UTF-8"?>
<svg xmlns="http://www.w3.org/2000/svg" xmlns:xlink="http://www.w3.org/1999/xlink" width="28pt" height="28pt" viewBox="0 0 28 28" version="1.1">
<g id="surface1">
<path style=" stroke:none;fill-rule:nonzero;fill:rgb(0%,0%,0%);fill-opacity:1;" d="M 17.5 3.5 L 17.5 6.125 L 24.5 6.125 L 24.5 3.5 Z M 14.875 14.261719 L 14.875 3.9375 C 14.875 1.765625 13.109375 0 10.9375 0 C 8.765625 0 7 1.765625 7 3.9375 L 7 14.261719 C 4.851562 15.609375 3.5 18 3.5 20.5625 C 3.5 24.664062 6.835938 28 10.9375 28 C 15.039062 28 18.375 24.664062 18.375 20.5625 C 18.375 18 17.027344 15.609375 14.875 14.261719 Z M 10.9375 25.375 C 8.285156 25.375 6.125 23.214844 6.125 20.5625 C 6.125 18.71875 7.203125 17.015625 8.875 16.21875 C 9.335938 16.003906 9.625 15.539062 9.625 15.035156 L 9.625 3.9375 C 9.625 3.214844 10.214844 2.625 10.9375 2.625 C 11.660156 2.625 12.25 3.214844 12.25 3.9375 L 12.25 15.035156 C 12.25 15.539062 12.539062 16.003906 13 16.21875 C 14.671875 17.015625 15.75 18.71875 15.75 20.5625 C 15.75 23.214844 13.589844 25.375 10.9375 25.375 Z M 17.5 11.375 L 24.5 11.375 L 24.5 8.75 L 17.5 8.75 Z M 17.5 11.375 "/>
</g>
</svg>
