<?xml version="1.0" encoding="UTF-8"?>
<svg xmlns="http://www.w3.org/2000/svg" xmlns:xlink="http://www.w3.org/1999/xlink" width="28pt" height="28pt" viewBox="0 0 28 28" version="1.1">
<g id="surface1">
<path style=" stroke:none;fill-rule:nonzero;fill:rgb(0%,0%,0%);fill-opacity:1;" d="M 27.207031 8.257812 C 26.367188 6.988281 25.335938 6.296875 24.226562 6.261719 C 23.4375 6.234375 22.734375 6.550781 22.148438 6.992188 C 22.234375 6.261719 22.15625 5.496094 21.738281 4.824219 C 21.152344 3.882812 20.039062 3.335938 18.515625 3.242188 C 18.324219 3.234375 18.144531 3.347656 18.074219 3.527344 C 18.003906 3.707031 18.058594 3.910156 18.207031 4.03125 C 18.21875 4.042969 19.09375 4.777344 19.902344 6.289062 C 19.292969 5.871094 18.609375 5.609375 17.875 5.523438 C 16.539062 5.367188 15.15625 5.855469 14.355469 6.765625 C 14.242188 6.890625 14.214844 7.074219 14.28125 7.230469 C 14.34375 7.386719 14.496094 7.492188 14.664062 7.503906 C 14.6875 7.503906 16.28125 7.605469 18.195312 8.042969 C 18.164062 8.054688 18.136719 8.070312 18.105469 8.082031 C 17.152344 8.554688 16.503906 9.484375 16.183594 10.847656 C 16.144531 11.019531 16.207031 11.195312 16.34375 11.304688 C 16.421875 11.363281 16.519531 11.398438 16.617188 11.398438 C 16.6875 11.398438 16.757812 11.378906 16.824219 11.347656 L 18.953125 10.234375 C 17.867188 11.707031 16.429688 14.203125 15.503906 17.933594 C 15.445312 18.175781 15.589844 18.417969 15.828125 18.476562 C 15.863281 18.484375 15.898438 18.488281 15.9375 18.488281 C 16.136719 18.488281 16.316406 18.351562 16.367188 18.148438 C 17.171875 14.90625 18.390625 12.660156 19.269531 11.34375 C 19.972656 10.292969 20.578125 9.65625 20.847656 9.390625 L 20.878906 10.070312 C 20.613281 10.363281 19.75 11.402344 18.855469 13.34375 C 17.921875 15.378906 16.769531 18.847656 16.546875 23.886719 C 16.199219 23.855469 15.851562 23.832031 15.5 23.816406 C 15.15625 17.445312 13.375 13.066406 11.925781 10.496094 C 11.339844 9.457031 10.765625 8.625 10.265625 7.984375 L 13.0625 9.445312 C 13.128906 9.476562 13.199219 9.496094 13.269531 9.496094 C 13.367188 9.496094 13.464844 9.464844 13.542969 9.402344 C 13.679688 9.292969 13.742188 9.117188 13.703125 8.945312 C 13.328125 7.355469 12.578125 6.269531 11.472656 5.726562 C 11.359375 5.671875 11.242188 5.621094 11.128906 5.578125 C 13.515625 5.015625 15.546875 4.886719 15.578125 4.882812 C 15.746094 4.871094 15.898438 4.765625 15.960938 4.609375 C 16.027344 4.453125 16 4.273438 15.886719 4.144531 C 14.957031 3.085938 13.347656 2.519531 11.785156 2.699219 C 10.816406 2.8125 9.921875 3.191406 9.144531 3.800781 C 10.152344 1.789062 11.320312 0.804688 11.335938 0.789062 C 11.484375 0.667969 11.535156 0.460938 11.464844 0.28125 C 11.394531 0.101562 11.214844 -0.0117188 11.023438 0 C 9.25 0.105469 7.953125 0.742188 7.273438 1.835938 C 6.753906 2.671875 6.6875 3.636719 6.828125 4.546875 C 6.113281 3.96875 5.242188 3.542969 4.257812 3.574219 C 2.96875 3.617188 1.773438 4.421875 0.792969 5.90625 C 0.6875 6.066406 0.695312 6.277344 0.816406 6.425781 C 0.9375 6.578125 1.140625 6.636719 1.320312 6.570312 C 1.339844 6.5625 2.777344 6.046875 5.023438 6.179688 C 4.105469 6.546875 3.332031 7.132812 2.746094 7.914062 C 1.808594 9.175781 1.496094 10.851562 1.945312 12.1875 C 2 12.347656 2.144531 12.464844 2.3125 12.488281 C 2.332031 12.488281 2.351562 12.492188 2.371094 12.492188 C 2.519531 12.492188 2.660156 12.417969 2.742188 12.289062 C 2.757812 12.265625 3.886719 10.570312 5.570312 8.789062 C 5.550781 8.90625 5.535156 9.03125 5.527344 9.15625 C 5.445312 10.386719 6.007812 11.578125 7.195312 12.699219 C 7.28125 12.78125 7.390625 12.824219 7.503906 12.824219 C 7.558594 12.824219 7.617188 12.8125 7.671875 12.789062 C 7.832031 12.722656 7.941406 12.570312 7.949219 12.394531 L 8.089844 9.15625 C 9.414062 10.839844 12.289062 15.417969 12.707031 23.816406 C 10.734375 23.917969 8.859375 24.230469 7.226562 24.738281 C 5.207031 25.363281 3.6875 26.238281 2.839844 27.269531 C 2.730469 27.40625 2.707031 27.589844 2.78125 27.746094 C 2.855469 27.902344 3.011719 28 3.1875 28 L 25.0625 28 C 25.234375 28 25.390625 27.902344 25.464844 27.746094 C 25.539062 27.589844 25.515625 27.40625 25.40625 27.269531 C 24.484375 26.148438 22.714844 25.183594 20.425781 24.5625 C 20.1875 24.5 19.941406 24.636719 19.878906 24.875 C 19.8125 25.113281 19.953125 25.359375 20.191406 25.421875 C 21.761719 25.851562 23.054688 26.433594 23.945312 27.109375 L 4.308594 27.109375 C 5.089844 26.519531 6.179688 25.992188 7.488281 25.589844 C 9.425781 24.988281 11.722656 24.671875 14.125 24.671875 C 15.578125 24.671875 16.992188 24.785156 18.328125 25.015625 C 18.570312 25.058594 18.800781 24.894531 18.84375 24.652344 C 18.886719 24.410156 18.722656 24.179688 18.480469 24.136719 C 18.136719 24.078125 17.785156 24.027344 17.433594 23.980469 C 17.644531 19.089844 18.746094 15.734375 19.644531 13.769531 C 20.113281 12.734375 20.582031 11.96875 20.9375 11.449219 L 21.039062 13.78125 C 21.046875 13.953125 21.15625 14.109375 21.316406 14.171875 C 21.371094 14.195312 21.429688 14.207031 21.484375 14.207031 C 21.597656 14.207031 21.707031 14.164062 21.789062 14.085938 C 22.8125 13.121094 23.292969 12.097656 23.222656 11.039062 C 23.222656 11.003906 23.21875 10.96875 23.214844 10.9375 C 24.546875 12.375 25.433594 13.707031 25.445312 13.726562 C 25.53125 13.851562 25.667969 13.925781 25.816406 13.925781 C 25.835938 13.925781 25.855469 13.925781 25.875 13.921875 C 26.042969 13.898438 26.1875 13.785156 26.242188 13.621094 C 26.628906 12.472656 26.359375 11.035156 25.554688 9.953125 C 25.113281 9.359375 24.542969 8.902344 23.878906 8.585938 C 24.394531 8.566406 24.839844 8.589844 25.199219 8.625 C 26.125 8.71875 26.675781 8.921875 26.679688 8.921875 C 26.859375 8.988281 27.0625 8.933594 27.183594 8.78125 C 27.304688 8.632812 27.3125 8.417969 27.207031 8.257812 Z M 4.261719 5.261719 C 3.5 5.261719 2.847656 5.328125 2.332031 5.410156 C 2.945312 4.8125 3.609375 4.488281 4.285156 4.464844 C 5.023438 4.441406 5.78125 4.78125 6.519531 5.453125 C 5.691406 5.3125 4.929688 5.261719 4.261719 5.261719 Z M 2.632812 10.902344 C 2.628906 10.066406 2.921875 9.175781 3.464844 8.449219 C 4.152344 7.523438 5.179688 6.925781 6.421875 6.710938 C 4.746094 8.199219 3.382812 9.890625 2.632812 10.902344 Z M 7.105469 11.269531 C 6.601562 10.589844 6.371094 9.90625 6.414062 9.222656 C 6.464844 8.425781 6.882812 7.75 7.277344 7.273438 Z M 12.511719 8.148438 L 8.960938 6.300781 C 9.566406 6.191406 10.359375 6.171875 11.078125 6.527344 C 11.695312 6.828125 12.175781 7.375 12.511719 8.148438 Z M 11.890625 3.585938 C 12.050781 3.566406 12.214844 3.558594 12.375 3.558594 C 13.117188 3.558594 13.839844 3.75 14.429688 4.09375 C 13.179688 4.238281 11.03125 4.570312 8.90625 5.28125 C 9.714844 4.308594 10.742188 3.71875 11.890625 3.585938 Z M 7.765625 4.730469 C 7.554688 3.757812 7.640625 2.933594 8.03125 2.304688 C 8.390625 1.730469 9 1.316406 9.824219 1.089844 C 9.207031 1.847656 8.394531 3.050781 7.765625 4.730469 Z M 14.125 23.777344 C 13.949219 23.777344 13.773438 23.78125 13.597656 23.785156 C 13.308594 17.972656 11.859375 13.972656 10.675781 11.621094 C 9.566406 9.40625 8.492188 8.214844 8.144531 7.859375 L 8.183594 7.011719 C 8.726562 7.484375 9.984375 8.851562 11.175781 10.980469 C 12.5625 13.449219 14.261719 17.660156 14.605469 23.785156 C 14.445312 23.78125 14.285156 23.777344 14.125 23.777344 Z M 17.40625 10.035156 C 17.675781 9.496094 18.039062 9.109375 18.492188 8.886719 C 18.859375 8.707031 19.25 8.644531 19.613281 8.644531 C 19.757812 8.644531 19.898438 8.652344 20.027344 8.667969 Z M 15.863281 6.726562 C 16.425781 6.449219 17.105469 6.328125 17.773438 6.40625 C 18.648438 6.507812 19.4375 6.929688 20.082031 7.625 C 18.480469 7.113281 16.890625 6.855469 15.863281 6.726562 Z M 21.238281 7.054688 C 20.769531 5.867188 20.195312 4.976562 19.71875 4.363281 C 20.21875 4.535156 20.6875 4.824219 20.980469 5.296875 C 21.265625 5.757812 21.351562 6.355469 21.238281 7.054688 Z M 21.882812 12.617188 L 21.753906 9.660156 C 22.035156 10.035156 22.296875 10.527344 22.332031 11.097656 C 22.367188 11.601562 22.214844 12.113281 21.882812 12.617188 Z M 24.839844 10.484375 C 25.242188 11.027344 25.476562 11.671875 25.519531 12.300781 C 24.894531 11.472656 23.875 10.226562 22.632812 9.097656 C 23.554688 9.308594 24.3125 9.78125 24.839844 10.484375 Z M 22.542969 7.808594 C 23.074219 7.375 23.613281 7.152344 24.140625 7.152344 C 24.160156 7.152344 24.179688 7.152344 24.199219 7.152344 C 24.753906 7.171875 25.234375 7.429688 25.636719 7.777344 C 24.867188 7.671875 23.808594 7.621094 22.542969 7.808594 Z M 22.542969 7.808594 "/>
</g>
</svg>
