<?xml version="1.0" encoding="UTF-8"?>
<svg xmlns="http://www.w3.org/2000/svg" xmlns:xlink="http://www.w3.org/1999/xlink" width="28pt" height="28pt" viewBox="0 0 28 28" version="1.1">
<g id="surface1">
<path style=" stroke:none;fill-rule:nonzero;fill:rgb(0%,0%,0%);fill-opacity:1;" d="M 20.78125 13.679688 C 20.78125 13.679688 20.78125 13.679688 20.777344 13.679688 L 16.730469 9.628906 C 16.746094 9.53125 16.742188 9.523438 16.742188 9.066406 C 16.742188 6.371094 14.546875 4.175781 11.851562 4.175781 C 10.675781 4.175781 9.59375 4.59375 8.75 5.289062 L 8.75 0.894531 C 8.75 0.402344 8.347656 0 7.855469 0 C 7.359375 0 6.960938 0.402344 6.960938 0.894531 C 6.960938 1.769531 6.960938 26.007812 6.960938 27.105469 C 6.960938 27.597656 7.359375 28 7.855469 28 C 8.347656 28 8.75 27.597656 8.75 27.105469 C 8.75 26.726562 8.75 9.46875 8.75 9.066406 C 8.75 7.359375 10.140625 5.964844 11.851562 5.964844 C 13.5625 5.964844 14.953125 7.359375 14.953125 9.066406 C 14.953125 9.523438 14.949219 9.53125 14.964844 9.628906 L 10.917969 13.679688 C 10.671875 13.925781 10.59375 14.289062 10.707031 14.609375 L 13.4375 22.386719 C 13.5625 22.742188 13.902344 22.984375 14.28125 22.984375 L 14.515625 22.984375 C 14.511719 23.015625 14.511719 23.046875 14.511719 23.078125 C 14.511719 23.816406 15.109375 24.414062 15.847656 24.414062 C 16.585938 24.414062 17.183594 23.816406 17.183594 23.078125 C 17.183594 23.046875 17.183594 23.015625 17.179688 22.984375 L 17.414062 22.984375 C 17.792969 22.984375 18.132812 22.742188 18.257812 22.386719 L 20.992188 14.609375 C 21.105469 14.28125 21.019531 13.921875 20.78125 13.679688 Z M 15.847656 11.28125 L 17.984375 13.417969 L 13.710938 13.417969 Z M 16.78125 21.195312 L 14.917969 21.195312 L 12.8125 15.207031 L 18.882812 15.207031 Z M 16.78125 21.195312 "/>
</g>
</svg>
