<?xml version="1.0" encoding="UTF-8"?>
<svg xmlns="http://www.w3.org/2000/svg" xmlns:xlink="http://www.w3.org/1999/xlink" width="28pt" height="28pt" viewBox="0 0 28 28" version="1.1">
<g id="surface1">
<path style=" stroke:none;fill-rule:nonzero;fill:rgb(0%,0%,0%);fill-opacity:1;" d="M 22.984375 14.734375 C 22.125 14.734375 21.425781 15.433594 21.425781 16.296875 L 21.425781 16.488281 C 20.078125 16.910156 18.988281 17.96875 18.550781 19.367188 C 16.480469 19.246094 14.296875 21.039062 14.296875 23.542969 L 14.296875 23.820312 C 14.296875 24.75 13.542969 25.503906 12.617188 25.503906 C 11.6875 25.503906 10.933594 24.75 10.933594 23.820312 L 10.933594 22.175781 C 11.867188 21.804688 12.613281 21.042969 12.941406 20.054688 C 13.796875 20.050781 14.492188 19.351562 14.492188 18.496094 C 14.492188 17.769531 13.992188 17.15625 13.320312 16.984375 L 14.160156 12.207031 C 14.199219 11.980469 14.050781 11.769531 13.828125 11.730469 C 13.605469 11.691406 13.390625 11.839844 13.351562 12.0625 L 12.496094 16.933594 L 10.074219 16.933594 L 10.074219 8.964844 L 13.898438 8.964844 L 13.628906 10.488281 C 13.589844 10.710938 13.742188 10.921875 13.964844 10.960938 C 14.1875 11.003906 14.398438 10.851562 14.4375 10.628906 L 14.742188 8.90625 C 15.394531 8.71875 15.871094 8.117188 15.871094 7.40625 C 15.871094 6.660156 15.347656 6.039062 14.652344 5.882812 C 13.871094 4.523438 12.589844 3.558594 11.109375 3.175781 C 12.1875 1.9375 11.304688 0 9.664062 0 C 8.023438 0 7.136719 1.9375 8.214844 3.175781 C 6.734375 3.558594 5.453125 4.523438 4.675781 5.882812 C 3.976562 6.039062 3.453125 6.660156 3.453125 7.40625 C 3.453125 8.117188 3.933594 8.71875 4.582031 8.90625 L 6.007812 16.984375 C 5.332031 17.15625 4.835938 17.769531 4.835938 18.496094 C 4.835938 19.347656 5.519531 20.039062 6.367188 20.054688 C 6.703125 21.0625 7.472656 21.839844 8.4375 22.195312 C 8.4375 23.902344 8.363281 24.496094 8.765625 25.445312 C 8.855469 25.65625 9.09375 25.753906 9.304688 25.664062 C 9.511719 25.578125 9.609375 25.335938 9.519531 25.125 C 9.195312 24.359375 9.257812 23.898438 9.257812 22.390625 C 9.53125 22.421875 9.824219 22.421875 10.113281 22.386719 L 10.113281 23.820312 C 10.113281 25.203125 11.234375 26.324219 12.617188 26.324219 C 13.996094 26.324219 15.117188 25.203125 15.117188 23.820312 L 15.117188 23.542969 C 15.117188 21.722656 16.570312 20.238281 18.378906 20.1875 C 18.347656 20.449219 18.339844 20.746094 18.367188 21.042969 C 17.035156 21.101562 15.972656 22.199219 15.972656 23.542969 L 15.972656 23.816406 C 15.972656 26.796875 12.359375 28.308594 10.242188 26.195312 C 10.082031 26.035156 9.820312 26.035156 9.660156 26.195312 C 9.5 26.355469 9.5 26.613281 9.664062 26.773438 C 10.453125 27.566406 11.5 28 12.617188 28 C 14.921875 28 16.792969 26.125 16.792969 23.816406 L 16.792969 23.542969 C 16.792969 22.710938 17.414062 21.890625 18.515625 21.859375 C 18.925781 23.324219 20.042969 24.425781 21.425781 24.859375 L 21.425781 25.050781 C 21.425781 25.910156 22.125 26.609375 22.984375 26.609375 C 23.847656 26.609375 24.546875 25.910156 24.546875 25.050781 L 24.546875 16.296875 C 24.546875 15.433594 23.847656 14.734375 22.984375 14.734375 Z M 9.664062 0.820312 C 10.269531 0.820312 10.761719 1.3125 10.761719 1.917969 C 10.761719 2.449219 10.382812 2.894531 9.882812 2.996094 C 9.808594 2.992188 9.738281 2.992188 9.664062 2.992188 C 9.589844 2.992188 9.515625 2.992188 9.441406 2.996094 C 8.941406 2.894531 8.5625 2.449219 8.5625 1.917969 C 8.5625 1.3125 9.058594 0.820312 9.664062 0.820312 Z M 13.652344 5.84375 L 5.675781 5.84375 C 7.632812 3.144531 11.683594 3.132812 13.652344 5.84375 Z M 4.273438 7.40625 C 4.273438 6.996094 4.605469 6.664062 5.015625 6.664062 L 14.3125 6.664062 C 14.71875 6.664062 15.050781 6.996094 15.050781 7.40625 C 15.050781 7.8125 14.71875 8.144531 14.3125 8.144531 C 13.902344 8.144531 5.421875 8.144531 5.015625 8.144531 C 4.605469 8.144531 4.273438 7.8125 4.273438 7.40625 Z M 5.425781 8.964844 L 9.253906 8.964844 L 9.253906 16.9375 L 6.832031 16.9375 Z M 6.394531 19.238281 C 5.988281 19.238281 5.65625 18.90625 5.65625 18.496094 C 5.65625 18.089844 5.988281 17.757812 6.394531 17.757812 C 7.015625 17.757812 12.308594 17.757812 12.929688 17.757812 C 13.339844 17.757812 13.671875 18.089844 13.671875 18.496094 C 13.671875 18.90625 13.339844 19.238281 12.929688 19.238281 C 12.929688 19.238281 6.394531 19.238281 6.394531 19.238281 Z M 7.246094 20.058594 L 12.0625 20.058594 C 11.125 22.09375 8.191406 22.109375 7.246094 20.058594 Z M 21.425781 23.992188 C 18.433594 22.816406 18.410156 18.539062 21.425781 17.355469 Z M 23.726562 25.050781 C 23.726562 25.457031 23.394531 25.789062 22.984375 25.789062 C 22.578125 25.789062 22.246094 25.457031 22.246094 25.050781 C 22.246094 24.792969 22.246094 16.625 22.246094 16.296875 C 22.246094 15.886719 22.578125 15.554688 22.984375 15.554688 C 23.394531 15.554688 23.726562 15.886719 23.726562 16.296875 Z M 23.726562 25.050781 "/>
</g>
</svg>
