<?xml version="1.0" encoding="UTF-8"?>
<svg xmlns="http://www.w3.org/2000/svg" xmlns:xlink="http://www.w3.org/1999/xlink" width="28pt" height="28pt" viewBox="0 0 28 28" version="1.1">
<g id="surface1">
<path style=" stroke:none;fill-rule:nonzero;fill:rgb(0%,0%,0%);fill-opacity:1;" d="M 17.515625 0 C 13.652344 -0.0117188 10.511719 3.113281 10.503906 6.976562 C 10.496094 8.972656 11.347656 10.878906 12.835938 12.210938 L 12.835938 14.476562 C 12.835938 14.734375 13.042969 14.941406 13.300781 14.941406 L 16.097656 14.941406 L 16.097656 21.472656 L 6.304688 21.472656 L 6.304688 18.207031 C 6.304688 17.949219 6.097656 17.738281 5.839844 17.738281 L 3.972656 17.738281 C 3.714844 17.738281 3.507812 17.949219 3.507812 18.207031 L 3.507812 27.535156 C 3.507812 27.792969 3.714844 28 3.972656 28 L 5.839844 28 C 6.097656 28 6.304688 27.792969 6.304688 27.535156 L 6.304688 24.269531 L 18.429688 24.269531 C 18.6875 24.269531 18.898438 24.058594 18.898438 23.800781 L 18.898438 14.941406 L 21.695312 14.941406 C 21.953125 14.941406 22.160156 14.734375 22.160156 14.476562 L 22.160156 12.210938 C 23.644531 10.890625 24.492188 9 24.492188 7.011719 C 24.503906 3.148438 21.378906 0.0117188 17.515625 0 Z M 5.371094 27.066406 L 4.4375 27.066406 L 4.4375 18.671875 L 5.371094 18.671875 Z M 17.964844 23.335938 L 6.304688 23.335938 L 6.304688 22.402344 L 16.566406 22.402344 C 16.824219 22.402344 17.03125 22.195312 17.03125 21.9375 L 17.03125 14.941406 L 17.964844 14.941406 Z M 21.230469 14.007812 L 13.765625 14.007812 L 13.765625 12.144531 L 21.230469 12.144531 Z M 21.84375 11.234375 C 21.796875 11.21875 21.746094 11.210938 21.695312 11.210938 L 13.300781 11.210938 C 13.25 11.210938 13.199219 11.21875 13.152344 11.234375 C 12.046875 10.105469 11.433594 8.589844 11.433594 7.011719 C 11.433594 3.664062 14.144531 0.949219 17.492188 0.945312 C 20.839844 0.941406 23.558594 3.65625 23.5625 7.003906 C 23.5625 8.582031 22.945312 10.101562 21.84375 11.234375 Z M 21.84375 11.234375 "/>
<path style=" stroke:none;fill-rule:nonzero;fill:rgb(0%,0%,0%);fill-opacity:1;" d="M 17.496094 1.882812 C 14.921875 1.886719 12.835938 3.972656 12.835938 6.546875 C 12.835938 6.804688 13.042969 7.011719 13.300781 7.011719 C 13.558594 7.011719 13.765625 6.804688 13.765625 6.546875 C 13.769531 4.488281 15.4375 2.820312 17.496094 2.816406 C 17.753906 2.816406 17.964844 2.605469 17.964844 2.351562 C 17.964844 2.09375 17.753906 1.882812 17.496094 1.882812 Z M 17.496094 1.882812 "/>
</g>
</svg>
