<?xml version="1.0" encoding="UTF-8"?>
<svg xmlns="http://www.w3.org/2000/svg" xmlns:xlink="http://www.w3.org/1999/xlink" width="28pt" height="28pt" viewBox="0 0 28 28" version="1.1">
<g id="surface1">
<path style=" stroke:none;fill-rule:nonzero;fill:rgb(0%,0%,0%);fill-opacity:1;" d="M 8.1875 17.484375 L 19.484375 17.484375 L 13.835938 14.5 Z M 8.1875 17.484375 "/>
<path style=" stroke:none;fill-rule:nonzero;fill:rgb(0%,0%,0%);fill-opacity:1;" d="M 14 0 C 6.269531 0 0 6.269531 0 14 C 0 21.730469 6.269531 28 14 28 C 21.730469 28 28 21.730469 28 14 C 28 6.269531 21.730469 0 14 0 Z M 23.410156 18.515625 C 23.289062 18.78125 23.027344 18.933594 22.753906 18.933594 C 22.722656 18.933594 22.6875 18.929688 22.65625 18.925781 C 22.621094 18.929688 22.589844 18.933594 22.554688 18.933594 L 4.960938 18.933594 C 4.953125 18.933594 4.949219 18.933594 4.941406 18.933594 C 4.933594 18.933594 4.925781 18.933594 4.921875 18.933594 C 4.648438 18.933594 4.386719 18.78125 4.261719 18.515625 C 4.09375 18.152344 4.25 17.722656 4.613281 17.550781 L 13.097656 13.25 L 13.097656 10.722656 L 13.105469 10.722656 L 13.105469 10.546875 C 14.132812 10.546875 14.652344 10.214844 14.652344 9.554688 C 14.652344 9.007812 14.207031 8.5625 13.660156 8.5625 C 13.113281 8.5625 12.667969 9.007812 12.667969 9.554688 L 11.214844 9.554688 C 11.214844 8.207031 12.3125 7.109375 13.660156 7.109375 C 15.007812 7.109375 16.105469 8.207031 16.105469 9.554688 C 16.105469 10.429688 15.671875 11.347656 14.550781 11.765625 L 14.550781 13.238281 L 23.0625 17.550781 C 23.425781 17.722656 23.582031 18.152344 23.410156 18.515625 Z M 23.410156 18.515625 "/>
</g>
</svg>
