<?xml version="1.0" encoding="UTF-8"?>
<svg xmlns="http://www.w3.org/2000/svg" xmlns:xlink="http://www.w3.org/1999/xlink" width="28pt" height="28pt" viewBox="0 0 28 28" version="1.1">
<g id="surface1">
<path style=" stroke:none;fill-rule:nonzero;fill:rgb(0%,0%,0%);fill-opacity:1;" d="M 19.117188 2.90625 L 19.117188 6.90625 C 19.117188 7.011719 19.105469 7.117188 19.085938 7.21875 L 23.445312 7.21875 C 23.617188 7.21875 23.761719 7.074219 23.761719 6.90625 L 23.761719 0.3125 C 23.761719 0.144531 23.617188 0 23.445312 0 L 17.921875 0 C 17.753906 0 17.609375 0.144531 17.609375 0.3125 L 17.609375 1.339844 C 18.445312 1.371094 19.117188 2.0625 19.117188 2.90625 Z M 19.117188 2.90625 "/>
<path style=" stroke:none;fill-rule:nonzero;fill:rgb(0%,0%,0%);fill-opacity:1;" d="M 14.289062 7.21875 L 17.546875 7.21875 C 17.714844 7.21875 17.859375 7.074219 17.859375 6.90625 L 17.859375 2.90625 C 17.859375 2.734375 17.714844 2.59375 17.546875 2.59375 L 14.289062 2.59375 C 14.117188 2.59375 13.972656 2.734375 13.972656 2.90625 L 13.972656 6.90625 C 13.972656 7.074219 14.117188 7.21875 14.289062 7.21875 Z M 14.289062 7.21875 "/>
<path style=" stroke:none;fill-rule:nonzero;fill:rgb(0%,0%,0%);fill-opacity:1;" d="M 26.300781 8.53125 L 1.699219 8.53125 C 1.074219 8.53125 0.566406 9.035156 0.566406 9.660156 L 0.566406 18.382812 L 27.433594 18.382812 L 27.433594 9.660156 C 27.433594 9.035156 26.925781 8.53125 26.300781 8.53125 Z M 14.878906 14.492188 L 13.121094 14.492188 C 12.773438 14.492188 12.492188 14.210938 12.492188 13.867188 C 12.492188 13.519531 12.773438 13.238281 13.121094 13.238281 L 14.878906 13.238281 C 15.226562 13.238281 15.507812 13.519531 15.507812 13.867188 C 15.507812 14.210938 15.226562 14.492188 14.878906 14.492188 Z M 14.878906 14.492188 "/>
<path style=" stroke:none;fill-rule:nonzero;fill:rgb(0%,0%,0%);fill-opacity:1;" d="M 14.628906 26.105469 L 25.019531 26.105469 L 25.542969 27.582031 C 25.632812 27.839844 25.875 28 26.132812 28 C 26.203125 28 26.273438 27.988281 26.34375 27.964844 C 26.671875 27.847656 26.839844 27.488281 26.726562 27.164062 L 26.351562 26.101562 C 26.949219 26.078125 27.433594 25.582031 27.433594 24.976562 L 27.433594 19.640625 L 14.628906 19.640625 Z M 20.589844 22.089844 L 22.347656 22.089844 C 22.695312 22.089844 22.976562 22.367188 22.976562 22.714844 C 22.976562 23.0625 22.695312 23.34375 22.347656 23.34375 L 20.589844 23.34375 C 20.242188 23.34375 19.964844 23.0625 19.964844 22.714844 C 19.964844 22.367188 20.242188 22.089844 20.589844 22.089844 Z M 20.589844 22.089844 "/>
<path style=" stroke:none;fill-rule:nonzero;fill:rgb(0%,0%,0%);fill-opacity:1;" d="M 0.566406 24.976562 C 0.566406 25.585938 1.050781 26.082031 1.65625 26.101562 L 1.28125 27.164062 C 1.164062 27.488281 1.335938 27.847656 1.664062 27.964844 C 1.734375 27.988281 1.804688 28 1.875 28 C 2.132812 28 2.375 27.839844 2.464844 27.582031 L 2.988281 26.105469 L 13.371094 26.105469 L 13.371094 19.640625 L 0.566406 19.640625 Z M 5.964844 22.089844 L 7.722656 22.089844 C 8.070312 22.089844 8.351562 22.367188 8.351562 22.714844 C 8.351562 23.0625 8.070312 23.34375 7.722656 23.34375 L 5.964844 23.34375 C 5.617188 23.34375 5.339844 23.0625 5.339844 22.714844 C 5.339844 22.367188 5.617188 22.089844 5.964844 22.089844 Z M 5.964844 22.089844 "/>
<path style=" stroke:none;fill-rule:nonzero;fill:rgb(0%,0%,0%);fill-opacity:1;" d="M 3.207031 7.21875 L 7.441406 7.21875 C 7.609375 7.21875 7.753906 7.074219 7.753906 6.90625 L 7.753906 4.460938 C 7.753906 4.292969 7.609375 4.148438 7.441406 4.148438 L 3.207031 4.148438 C 3.039062 4.148438 2.894531 4.292969 2.894531 4.460938 L 2.894531 6.90625 C 2.894531 7.074219 3.039062 7.21875 3.207031 7.21875 Z M 3.207031 7.21875 "/>
</g>
</svg>
