<?xml version="1.0" encoding="UTF-8"?>
<svg xmlns="http://www.w3.org/2000/svg" xmlns:xlink="http://www.w3.org/1999/xlink" width="28pt" height="28pt" viewBox="0 0 28 28" version="1.1">
<g id="surface1">
<path style=" stroke:none;fill-rule:nonzero;fill:rgb(0%,0%,0%);fill-opacity:1;" d="M 19.410156 3.632812 C 20.140625 2.847656 20.738281 1.882812 21 0.703125 C 21.066406 0.390625 20.871094 0.0820312 20.558594 0.015625 C 20.25 -0.0546875 19.941406 0.140625 19.871094 0.453125 C 19.660156 1.40625 19.164062 2.199219 18.546875 2.851562 C 18.484375 2.835938 18.417969 2.824219 18.351562 2.824219 C 17.882812 2.824219 17.429688 3.3125 17.019531 4.097656 C 16.457031 4.457031 15.902344 4.734375 15.4375 4.933594 C 15.996094 4.019531 16.566406 2.625 16.734375 0.625 C 16.757812 0.308594 16.523438 0.0273438 16.207031 0.00390625 C 15.886719 -0.0234375 15.609375 0.210938 15.582031 0.527344 C 15.332031 3.519531 14.117188 4.910156 13.679688 5.324219 L 13.355469 5.324219 C 12.921875 4.914062 11.703125 3.519531 11.453125 0.527344 C 11.425781 0.210938 11.148438 -0.0234375 10.828125 0.00390625 C 10.511719 0.0273438 10.273438 0.308594 10.300781 0.625 C 10.46875 2.625 11.042969 4.019531 11.601562 4.9375 C 10.121094 4.296875 7.703125 2.898438 7.164062 0.453125 C 7.09375 0.140625 6.785156 -0.0546875 6.476562 0.015625 C 6.164062 0.0820312 5.96875 0.390625 6.035156 0.703125 C 6.738281 3.886719 9.890625 5.515625 11.507812 6.152344 C 11.488281 6.230469 11.480469 6.308594 11.480469 6.394531 C 11.480469 6.984375 11.957031 7.460938 12.546875 7.460938 L 12.941406 7.460938 L 12.941406 25.792969 L 10.675781 25.792969 C 10.066406 25.792969 9.574219 26.289062 9.574219 26.898438 C 9.574219 27.507812 10.066406 28 10.675781 28 L 16.359375 28 C 16.96875 28 17.460938 27.507812 17.460938 26.898438 C 17.460938 26.289062 16.96875 25.792969 16.359375 25.792969 L 14.09375 25.792969 L 14.09375 7.460938 L 14.488281 7.460938 C 15.078125 7.460938 15.554688 6.984375 15.554688 6.394531 C 15.554688 6.308594 15.546875 6.230469 15.527344 6.152344 C 15.761719 6.0625 16.023438 5.949219 16.308594 5.816406 C 15.351562 8.640625 14.726562 12.683594 14.726562 14.316406 C 14.726562 16.9375 16.347656 14.160156 18.351562 14.160156 C 20.355469 14.160156 21.976562 16.9375 21.976562 14.316406 C 21.976562 12.171875 20.898438 5.875 19.410156 3.632812 Z M 19.410156 3.632812 "/>
</g>
</svg>
