<?xml version="1.0" encoding="UTF-8"?>
<svg xmlns="http://www.w3.org/2000/svg" xmlns:xlink="http://www.w3.org/1999/xlink" width="28pt" height="28pt" viewBox="0 0 28 28" version="1.1">
<g id="surface1">
<path style=" stroke:none;fill-rule:nonzero;fill:rgb(0%,0%,0%);fill-opacity:1;" d="M 3.359375 0 L 3.359375 26.476562 L 6.417969 26.476562 L 6.417969 28 L 8.246094 28 L 8.246094 26.476562 L 19.753906 26.476562 L 19.753906 28 L 21.582031 28 L 21.582031 26.476562 L 24.640625 26.476562 L 24.640625 0 Z M 13.085938 24.652344 L 5.1875 24.652344 L 5.1875 1.824219 L 13.085938 1.824219 Z M 22.8125 24.652344 L 14.914062 24.652344 L 14.914062 20.390625 L 22.8125 20.390625 Z M 22.8125 18.566406 L 14.914062 18.566406 L 14.914062 14.304688 L 22.8125 14.304688 Z M 22.8125 12.476562 L 14.914062 12.476562 L 14.914062 1.824219 L 22.8125 1.824219 Z M 22.8125 12.476562 "/>
<path style=" stroke:none;fill-rule:nonzero;fill:rgb(0%,0%,0%);fill-opacity:1;" d="M 11.808594 13.304688 C 11.808594 13.777344 11.429688 14.160156 10.957031 14.160156 C 10.484375 14.160156 10.101562 13.777344 10.101562 13.304688 C 10.101562 12.832031 10.484375 12.453125 10.957031 12.453125 C 11.429688 12.453125 11.808594 12.832031 11.808594 13.304688 Z M 11.808594 13.304688 "/>
<path style=" stroke:none;fill-rule:nonzero;fill:rgb(0%,0%,0%);fill-opacity:1;" d="M 19.734375 16.371094 C 19.734375 16.84375 19.351562 17.226562 18.878906 17.226562 C 18.40625 17.226562 18.023438 16.84375 18.023438 16.371094 C 18.023438 15.902344 18.40625 15.519531 18.878906 15.519531 C 19.351562 15.519531 19.734375 15.902344 19.734375 16.371094 Z M 19.734375 16.371094 "/>
<path style=" stroke:none;fill-rule:nonzero;fill:rgb(0%,0%,0%);fill-opacity:1;" d="M 19.734375 22.585938 C 19.734375 23.054688 19.351562 23.4375 18.878906 23.4375 C 18.40625 23.4375 18.023438 23.054688 18.023438 22.585938 C 18.023438 22.113281 18.40625 21.730469 18.878906 21.730469 C 19.351562 21.730469 19.734375 22.113281 19.734375 22.585938 Z M 19.734375 22.585938 "/>
</g>
</svg>
