<?xml version="1.0" encoding="UTF-8"?>
<svg xmlns="http://www.w3.org/2000/svg" xmlns:xlink="http://www.w3.org/1999/xlink" width="28pt" height="28pt" viewBox="0 0 28 28" version="1.1">
<g id="surface1">
<path style=" stroke:none;fill-rule:nonzero;fill:rgb(0%,0%,0%);fill-opacity:1;" d="M 27.136719 1.710938 L 17.679688 1.710938 C 17.203125 1.710938 16.816406 2.101562 16.816406 2.574219 L 16.816406 5.253906 L 1.148438 5.253906 L 1.148438 1.710938 C 1.148438 1.394531 0.890625 1.136719 0.574219 1.136719 C 0.257812 1.136719 0 1.394531 0 1.710938 L 0 26.277344 C 0 26.59375 0.257812 26.851562 0.574219 26.851562 C 0.890625 26.851562 1.148438 26.59375 1.148438 26.277344 L 1.148438 24.417969 L 16.816406 24.417969 L 16.816406 26 C 16.816406 26.472656 17.203125 26.863281 17.679688 26.863281 L 27.136719 26.863281 C 27.613281 26.863281 28 26.472656 28 26 L 28 2.574219 C 28 2.101562 27.613281 1.710938 27.136719 1.710938 Z M 16.816406 20.125 L 1.148438 20.125 L 1.148438 6.40625 L 5.121094 6.40625 L 3.054688 7.15625 C 2.757812 7.261719 2.601562 7.59375 2.710938 7.890625 C 2.796875 8.125 3.015625 8.269531 3.25 8.269531 C 3.316406 8.269531 3.382812 8.257812 3.445312 8.234375 L 3.691406 8.144531 L 3.691406 12.691406 C 3.691406 13.101562 4.027344 13.4375 4.4375 13.4375 L 8.113281 13.4375 C 8.523438 13.4375 8.859375 13.101562 8.859375 12.691406 L 8.859375 8.148438 L 9.109375 8.234375 C 9.40625 8.34375 9.734375 8.1875 9.84375 7.890625 C 9.949219 7.589844 9.792969 7.261719 9.496094 7.15625 L 7.402344 6.40625 L 16.816406 6.40625 Z M 20.257812 14.472656 L 18.9375 14.472656 C 18.621094 14.472656 18.363281 14.214844 18.363281 13.898438 C 18.363281 13.582031 18.621094 13.324219 18.9375 13.324219 L 20.257812 13.324219 C 20.574219 13.324219 20.832031 13.582031 20.832031 13.898438 C 20.832031 14.214844 20.574219 14.472656 20.257812 14.472656 Z M 20.257812 14.472656 "/>
</g>
</svg>
