<?xml version="1.0" encoding="UTF-8"?>
<svg xmlns="http://www.w3.org/2000/svg" xmlns:xlink="http://www.w3.org/1999/xlink" width="28pt" height="27pt" viewBox="0 0 28 27" version="1.1">
<g id="surface1">
<path style=" stroke:none;fill-rule:nonzero;fill:rgb(0%,0%,0%);fill-opacity:1;" d="M 22.082031 24.871094 C 22.082031 24.84375 22.078125 24.816406 22.074219 24.789062 L 22.074219 4.011719 C 22.074219 3.6875 21.804688 3.429688 21.46875 3.429688 C 21.136719 3.429688 20.867188 3.6875 20.867188 4.011719 L 20.867188 9.355469 L 20.09375 9.355469 L 20.09375 1.046875 C 20.09375 0.46875 19.609375 0 19.007812 0 L 9.007812 0 C 8.40625 0 7.921875 0.46875 7.921875 1.046875 L 7.921875 9.355469 L 7.148438 9.355469 L 7.148438 4.011719 C 7.148438 3.6875 6.878906 3.429688 6.546875 3.429688 C 6.210938 3.429688 5.941406 3.6875 5.941406 4.011719 L 5.941406 26.441406 C 5.941406 26.761719 6.210938 27.023438 6.546875 27.023438 C 6.878906 27.023438 7.148438 26.761719 7.148438 26.441406 L 7.148438 25.453125 L 20.867188 25.453125 L 20.867188 26.441406 C 20.867188 26.761719 21.136719 27.023438 21.46875 27.023438 C 21.804688 27.023438 22.074219 26.761719 22.074219 26.441406 L 22.074219 24.953125 C 22.078125 24.925781 22.082031 24.898438 22.082031 24.871094 Z M 17.9375 6.617188 C 18.171875 6.847656 18.171875 7.214844 17.9375 7.441406 L 13.65625 11.566406 C 13.539062 11.679688 13.386719 11.738281 13.230469 11.738281 C 13.078125 11.738281 12.921875 11.679688 12.804688 11.566406 C 12.570312 11.339844 12.570312 10.972656 12.804688 10.746094 L 17.085938 6.617188 C 17.320312 6.390625 17.699219 6.390625 17.9375 6.617188 Z M 10.03125 8.070312 L 14.3125 3.945312 C 14.546875 3.71875 14.929688 3.71875 15.164062 3.945312 C 15.398438 4.171875 15.398438 4.539062 15.164062 4.769531 L 10.886719 8.894531 C 10.769531 9.007812 10.613281 9.0625 10.457031 9.0625 C 10.304688 9.0625 10.152344 9.007812 10.03125 8.894531 C 9.796875 8.667969 9.796875 8.296875 10.03125 8.070312 Z M 7.148438 24.289062 L 7.148438 10.515625 L 7.921875 10.515625 L 7.921875 21.414062 C 7.921875 21.992188 8.40625 22.460938 9.007812 22.460938 L 19.007812 22.460938 C 19.609375 22.460938 20.09375 21.992188 20.09375 21.414062 L 20.09375 10.515625 L 20.867188 10.515625 L 20.867188 24.289062 Z M 7.148438 24.289062 "/>
</g>
</svg>
