<?xml version="1.0" encoding="UTF-8"?>
<svg xmlns="http://www.w3.org/2000/svg" xmlns:xlink="http://www.w3.org/1999/xlink" width="28pt" height="28pt" viewBox="0 0 28 28" version="1.1">
<g id="surface1">
<path style=" stroke:none;fill-rule:nonzero;fill:rgb(0%,0%,0%);fill-opacity:1;" d="M 21.464844 0 L 6.535156 0 C 5.246094 0 4.203125 1.046875 4.199219 2.332031 L 4.199219 23.800781 C 4.203125 24.910156 4.980469 25.863281 6.066406 26.085938 L 6.066406 27.535156 C 6.066406 27.792969 6.277344 28 6.535156 28 L 8.398438 28 C 8.65625 28 8.867188 27.792969 8.867188 27.535156 L 8.867188 26.132812 L 19.132812 26.132812 L 19.132812 27.535156 C 19.132812 27.792969 19.34375 28 19.601562 28 L 21.464844 28 C 21.722656 28 21.933594 27.792969 21.933594 27.535156 L 21.933594 26.085938 C 23.019531 25.863281 23.796875 24.910156 23.800781 23.800781 L 23.800781 2.332031 C 23.796875 1.046875 22.753906 0 21.464844 0 Z M 7.933594 27.066406 L 7 27.066406 L 7 26.132812 L 7.933594 26.132812 Z M 21 27.066406 L 20.066406 27.066406 L 20.066406 26.132812 L 21 26.132812 Z M 22.867188 23.800781 C 22.867188 24.574219 22.238281 25.199219 21.464844 25.199219 L 6.535156 25.199219 C 5.761719 25.199219 5.132812 24.574219 5.132812 23.800781 L 5.132812 2.332031 C 5.132812 1.558594 5.761719 0.933594 6.535156 0.933594 L 21.464844 0.933594 C 22.238281 0.933594 22.867188 1.558594 22.867188 2.332031 Z M 22.867188 23.800781 "/>
<path style=" stroke:none;fill-rule:nonzero;fill:rgb(0%,0%,0%);fill-opacity:1;" d="M 21.464844 1.867188 L 6.535156 1.867188 C 6.277344 1.867188 6.066406 2.074219 6.066406 2.332031 L 6.066406 23.800781 C 6.066406 24.058594 6.277344 24.265625 6.535156 24.265625 L 21.464844 24.265625 C 21.722656 24.265625 21.933594 24.058594 21.933594 23.800781 L 21.933594 2.332031 C 21.933594 2.074219 21.722656 1.867188 21.464844 1.867188 Z M 13.535156 23.332031 L 7 23.332031 L 7 2.800781 L 13.535156 2.800781 Z M 21 23.332031 L 14.464844 23.332031 L 14.464844 2.800781 L 21 2.800781 Z M 21 23.332031 "/>
<path style=" stroke:none;fill-rule:nonzero;fill:rgb(0%,0%,0%);fill-opacity:1;" d="M 11.199219 14.933594 C 11.972656 14.933594 12.601562 14.304688 12.601562 13.535156 C 12.597656 12.761719 11.972656 12.132812 11.199219 12.132812 C 10.425781 12.132812 9.800781 12.761719 9.800781 13.535156 C 9.800781 14.304688 10.425781 14.933594 11.199219 14.933594 Z M 11.199219 13.066406 C 11.457031 13.066406 11.667969 13.277344 11.667969 13.535156 C 11.667969 13.789062 11.457031 14 11.199219 14 C 10.941406 14 10.734375 13.792969 10.734375 13.535156 C 10.734375 13.277344 10.941406 13.066406 11.199219 13.066406 Z M 11.199219 13.066406 "/>
<path style=" stroke:none;fill-rule:nonzero;fill:rgb(0%,0%,0%);fill-opacity:1;" d="M 16.800781 14.933594 C 17.574219 14.933594 18.199219 14.304688 18.199219 13.535156 C 18.199219 12.761719 17.574219 12.132812 16.800781 12.132812 C 16.027344 12.132812 15.398438 12.761719 15.398438 13.535156 C 15.402344 14.304688 16.027344 14.933594 16.800781 14.933594 Z M 16.800781 13.066406 C 17.058594 13.066406 17.265625 13.277344 17.265625 13.535156 C 17.265625 13.792969 17.058594 14 16.800781 14 C 16.542969 14 16.332031 13.792969 16.332031 13.535156 C 16.332031 13.277344 16.542969 13.066406 16.800781 13.066406 Z M 16.800781 13.066406 "/>
</g>
</svg>
