<?xml version="1.0" encoding="UTF-8"?>
<svg xmlns="http://www.w3.org/2000/svg" xmlns:xlink="http://www.w3.org/1999/xlink" width="28px" height="px" viewBox="0 0 28 28" version="1.1">
<g id="surface1">
<path style=" stroke:none;fill-rule:nonzero;fill:rgb(0%,0%,0%);fill-opacity:1;" d="M 0.324219 0.398438 C 0 0.8125 0 0.890625 0 13.96875 C 0 27.046875 0 27.125 0.324219 27.539062 L 0.628906 27.9375 L 27.1875 27.9375 L 27.554688 27.554688 L 27.9375 27.1875 L 27.9375 0.753906 L 27.554688 0.382812 L 27.1875 0 L 0.628906 0 Z M 5.371094 2.609375 L 5.371094 3.378906 L 1.84375 3.378906 L 1.84375 1.84375 L 5.371094 1.84375 Z M 26.097656 2.609375 L 26.097656 3.378906 L 22.566406 3.378906 L 22.566406 1.84375 L 26.097656 1.84375 Z M 20.722656 2.6875 L 20.722656 3.378906 L 7.214844 3.378906 L 7.214844 1.996094 L 20.722656 1.996094 Z M 5.371094 5.832031 L 5.371094 6.601562 L 1.84375 6.601562 L 1.84375 5.066406 L 5.371094 5.066406 Z M 20.722656 5.832031 L 20.722656 6.601562 L 7.214844 6.601562 L 7.214844 5.066406 L 20.722656 5.066406 Z M 26.097656 5.832031 L 26.097656 6.601562 L 22.566406 6.601562 L 22.566406 5.066406 L 26.097656 5.066406 Z M 3.222656 16.195312 C 3.222656 23.746094 3.238281 23.960938 3.53125 24.253906 C 3.835938 24.5625 4.039062 24.5625 13.953125 24.5625 C 22.949219 24.5625 24.101562 24.53125 24.316406 24.316406 C 24.53125 24.101562 24.5625 23.164062 24.5625 16.257812 L 24.5625 8.441406 L 26.097656 8.441406 L 26.097656 26.097656 L 1.84375 26.097656 L 1.84375 8.441406 L 3.222656 8.441406 Z M 11.359375 15.65625 L 11.359375 22.871094 L 5.066406 22.871094 L 5.066406 8.441406 L 11.359375 8.441406 Z M 14.582031 15.65625 L 14.582031 22.871094 L 13.203125 22.871094 L 13.203125 8.441406 L 14.582031 8.441406 Z M 22.871094 15.65625 L 22.871094 22.871094 L 16.425781 22.871094 L 16.425781 8.441406 L 22.871094 8.441406 Z M 22.871094 15.65625 "/>
</g>
</svg>
