<?xml version="1.0" encoding="UTF-8"?>
<svg xmlns="http://www.w3.org/2000/svg" xmlns:xlink="http://www.w3.org/1999/xlink" width="28pt" height="28pt" viewBox="0 0 28 28" version="1.1">
<g id="surface1">
<path style=" stroke:none;fill-rule:nonzero;fill:rgb(0%,0%,0%);fill-opacity:1;" d="M 21.304688 17.925781 C 21.304688 18.929688 21.171875 19.867188 20.839844 20.734375 C 20.570312 21.671875 20.101562 22.472656 19.433594 23.210938 C 18.832031 23.878906 18.03125 24.414062 17.097656 24.882812 C 16.160156 25.28125 15.023438 25.484375 13.6875 25.484375 C 12.820312 25.484375 11.949219 25.347656 11.28125 25.148438 C 10.546875 24.882812 9.945312 24.613281 9.410156 24.144531 C 8.875 23.746094 8.410156 23.210938 8.074219 22.609375 C 7.738281 21.9375 7.40625 21.269531 7.207031 20.46875 C 7.003906 19.664062 6.871094 18.796875 6.738281 17.859375 C 6.671875 16.925781 6.605469 15.921875 6.605469 14.785156 C 6.605469 13.847656 6.671875 12.914062 6.804688 11.910156 C 6.871094 10.90625 7.070312 9.972656 7.339844 9.101562 C 7.605469 8.164062 7.941406 7.296875 8.410156 6.496094 C 8.875 5.691406 9.410156 5.023438 10.144531 4.421875 C 10.8125 3.820312 11.617188 3.351562 12.550781 3.019531 C 13.554688 2.683594 14.625 2.484375 15.894531 2.484375 C 16.359375 2.484375 16.761719 2.484375 17.230469 2.550781 C 17.628906 2.617188 18.03125 2.683594 18.433594 2.75 C 18.765625 2.882812 19.101562 2.949219 19.367188 3.085938 C 19.636719 3.152344 19.769531 3.285156 19.835938 3.285156 C 19.96875 3.351562 19.96875 3.417969 20.035156 3.550781 C 20.101562 3.621094 20.101562 3.6875 20.101562 3.753906 C 20.171875 3.820312 20.171875 3.953125 20.171875 4.085938 C 20.171875 4.152344 20.238281 4.289062 20.238281 4.488281 C 20.238281 4.6875 20.238281 4.824219 20.171875 5.023438 C 20.171875 5.15625 20.171875 5.289062 20.101562 5.359375 C 20.101562 5.425781 20.035156 5.492188 19.96875 5.558594 C 19.902344 5.625 19.835938 5.625 19.703125 5.625 C 19.570312 5.625 19.433594 5.625 19.234375 5.492188 C 18.96875 5.425781 18.699219 5.359375 18.433594 5.222656 C 18.097656 5.15625 17.699219 5.089844 17.296875 4.957031 C 16.828125 4.890625 16.292969 4.890625 15.757812 4.890625 C 14.691406 4.890625 13.753906 5.089844 12.953125 5.492188 C 12.21875 5.960938 11.550781 6.5625 11.082031 7.296875 C 10.613281 8.03125 10.210938 8.902344 10.011719 9.835938 C 9.746094 10.839844 9.609375 11.84375 9.542969 12.914062 C 9.878906 12.710938 10.210938 12.578125 10.613281 12.378906 C 10.949219 12.175781 11.347656 12.042969 11.816406 11.910156 C 12.285156 11.777344 12.753906 11.644531 13.21875 11.574219 C 13.6875 11.507812 14.222656 11.441406 14.824219 11.441406 C 16.027344 11.441406 17.027344 11.574219 17.832031 11.910156 C 18.699219 12.246094 19.367188 12.710938 19.902344 13.3125 C 20.371094 13.914062 20.773438 14.585938 20.972656 15.386719 C 21.171875 16.121094 21.304688 16.992188 21.304688 17.925781 Z M 18.300781 18.195312 C 18.300781 17.527344 18.230469 16.925781 18.097656 16.390625 C 17.964844 15.789062 17.765625 15.320312 17.429688 14.984375 C 17.097656 14.585938 16.695312 14.316406 16.160156 14.117188 C 15.691406 13.914062 15.023438 13.78125 14.289062 13.78125 C 13.820312 13.78125 13.421875 13.78125 13.019531 13.914062 C 12.550781 13.984375 12.152344 14.050781 11.75 14.183594 C 11.347656 14.316406 11.015625 14.519531 10.613281 14.652344 C 10.28125 14.851562 9.945312 15.050781 9.609375 15.253906 C 9.609375 16.722656 9.746094 17.996094 9.945312 18.996094 C 10.078125 20 10.347656 20.800781 10.746094 21.40625 C 11.082031 22.007812 11.550781 22.40625 12.082031 22.675781 C 12.617188 22.941406 13.285156 23.074219 14.023438 23.074219 C 14.757812 23.074219 15.359375 22.941406 15.894531 22.675781 C 16.425781 22.40625 16.894531 22.007812 17.230469 21.539062 C 17.628906 21.070312 17.898438 20.535156 18.03125 20 C 18.230469 19.398438 18.300781 18.796875 18.300781 18.195312 Z M 18.300781 18.195312 "/>
</g>
</svg>
