<?xml version="1.0" encoding="UTF-8"?>
<svg xmlns="http://www.w3.org/2000/svg" xmlns:xlink="http://www.w3.org/1999/xlink" width="28pt" height="28pt" viewBox="0 0 28 28" version="1.1">
<g id="surface1">
<path style=" stroke:none;fill-rule:nonzero;fill:rgb(0%,0%,0%);fill-opacity:1;" d="M 10.621094 14.007812 C 10.621094 15.878906 12.140625 17.398438 14.007812 17.398438 C 15.878906 17.398438 17.398438 15.878906 17.398438 14.007812 C 17.398438 12.140625 15.878906 10.621094 14.007812 10.621094 C 12.140625 10.621094 10.621094 12.140625 10.621094 14.007812 Z M 14.007812 12.320312 C 14.941406 12.320312 15.695312 13.078125 15.695312 14.007812 C 15.695312 14.941406 14.941406 15.699219 14.007812 15.699219 C 13.078125 15.699219 12.320312 14.941406 12.320312 14.007812 C 12.320312 13.078125 13.078125 12.320312 14.007812 12.320312 Z M 14.007812 12.320312 "/>
<path style=" stroke:none;fill-rule:nonzero;fill:rgb(0%,0%,0%);fill-opacity:1;" d="M 9.574219 12.140625 L 10.082031 12.324219 L 12.390625 10.015625 L 5.253906 2.882812 L 4.652344 3.484375 C 3.261719 4.875 3.195312 6.171875 3.382812 7.015625 C 4.0625 10.066406 9.011719 11.9375 9.574219 12.140625 Z M 5.316406 5.347656 L 9.984375 10.015625 L 9.65625 10.34375 C 8.1875 9.726562 5.402344 8.253906 5.042969 6.644531 C 4.949219 6.222656 5.039062 5.792969 5.316406 5.347656 Z M 5.316406 5.347656 "/>
<path style=" stroke:none;fill-rule:nonzero;fill:rgb(0%,0%,0%);fill-opacity:1;" d="M 12.140625 18.445312 L 12.324219 17.9375 L 10.015625 15.628906 L 2.882812 22.761719 L 3.484375 23.363281 C 4.378906 24.257812 5.332031 24.714844 6.316406 24.714844 C 9.773438 24.714844 11.910156 19.085938 12.140625 18.445312 Z M 10.015625 18.035156 L 10.34375 18.363281 C 9.671875 19.960938 8.039062 23.011719 6.316406 23.011719 C 6.003906 23.011719 5.679688 22.90625 5.347656 22.703125 Z M 10.015625 18.035156 "/>
<path style=" stroke:none;fill-rule:nonzero;fill:rgb(0%,0%,0%);fill-opacity:1;" d="M 18.445312 15.878906 L 17.9375 15.695312 L 15.628906 18.003906 L 22.761719 25.136719 L 23.363281 24.535156 C 24.753906 23.144531 24.824219 21.847656 24.636719 21.003906 C 23.957031 17.949219 19.007812 16.082031 18.445312 15.878906 Z M 22.703125 22.667969 L 18.035156 18 L 18.363281 17.671875 C 19.828125 18.289062 22.617188 19.761719 22.976562 21.371094 C 23.070312 21.796875 22.980469 22.226562 22.703125 22.667969 Z M 22.703125 22.667969 "/>
<path style=" stroke:none;fill-rule:nonzero;fill:rgb(0%,0%,0%);fill-opacity:1;" d="M 25.136719 5.253906 L 24.535156 4.652344 C 23.640625 3.757812 22.6875 3.304688 21.703125 3.304688 C 18.242188 3.304688 16.109375 8.929688 15.878906 9.574219 L 15.695312 10.082031 L 18.003906 12.386719 Z M 21.703125 5.007812 C 22.015625 5.007812 22.335938 5.109375 22.667969 5.316406 L 18.003906 9.984375 L 17.671875 9.652344 C 18.34375 8.054688 19.976562 5.007812 21.703125 5.007812 Z M 21.703125 5.007812 "/>
<path style=" stroke:none;fill-rule:nonzero;fill:rgb(0%,0%,0%);fill-opacity:1;" d="M 24.421875 28.019531 C 26.40625 28.019531 28.019531 26.402344 28.019531 24.421875 L 28.019531 3.597656 C 28.019531 1.613281 26.40625 0 24.421875 0 L 3.597656 0 C 1.613281 0 0 1.613281 0 3.597656 L 0 24.421875 C 0 26.40625 1.613281 28.019531 3.597656 28.019531 Z M 1.699219 24.421875 L 1.699219 3.597656 C 1.699219 2.550781 2.550781 1.703125 3.597656 1.703125 L 24.421875 1.703125 C 25.46875 1.703125 26.316406 2.550781 26.316406 3.597656 L 26.316406 24.421875 C 26.316406 25.464844 25.46875 26.316406 24.421875 26.316406 L 3.597656 26.316406 C 2.550781 26.316406 1.699219 25.464844 1.699219 24.421875 Z M 1.699219 24.421875 "/>
</g>
</svg>
