<?xml version="1.0" encoding="UTF-8"?>
<svg xmlns="http://www.w3.org/2000/svg" xmlns:xlink="http://www.w3.org/1999/xlink" width="28pt" height="28pt" viewBox="0 0 28 28" version="1.1">
<g id="surface1">
<path style=" stroke:none;fill-rule:nonzero;fill:rgb(0%,0%,0%);fill-opacity:1;" d="M 27.996094 14.835938 C 27.996094 13.382812 26.808594 12.199219 25.355469 12.199219 L 24.59375 12.199219 L 24.59375 3.976562 C 24.59375 1.785156 22.808594 0 20.613281 0 L 7.386719 0 C 5.191406 0 3.40625 1.785156 3.40625 3.976562 L 3.40625 12.199219 L 2.644531 12.199219 C 1.191406 12.199219 0.00390625 13.382812 0.00390625 14.835938 L 0.00390625 25.550781 L 2.675781 25.550781 L 2.675781 28 L 4.503906 28 L 4.503906 25.550781 L 23.496094 25.550781 L 23.496094 28 L 25.324219 28 L 25.324219 25.550781 L 27.996094 25.550781 Z M 6.808594 23.722656 L 1.832031 23.722656 L 1.832031 14.835938 C 1.832031 14.386719 2.195312 14.023438 2.644531 14.023438 L 5.996094 14.023438 C 6.445312 14.023438 6.808594 14.386719 6.808594 14.835938 Z M 8.632812 23.722656 L 8.636719 19.351562 L 19.363281 19.351562 L 19.363281 23.722656 Z M 19.363281 14.835938 L 19.363281 17.527344 L 8.636719 17.527344 L 8.636719 14.835938 C 8.636719 13.382812 7.449219 12.199219 5.996094 12.199219 L 5.234375 12.199219 L 5.234375 3.976562 C 5.234375 2.792969 6.199219 1.824219 7.386719 1.824219 L 20.613281 1.824219 C 21.800781 1.824219 22.765625 2.792969 22.765625 3.976562 L 22.765625 12.199219 L 22.003906 12.199219 C 20.550781 12.199219 19.363281 13.382812 19.363281 14.835938 Z M 21.191406 23.722656 L 21.191406 14.835938 C 21.191406 14.386719 21.554688 14.023438 22.003906 14.023438 L 25.355469 14.023438 C 25.804688 14.023438 26.167969 14.386719 26.167969 14.835938 L 26.167969 23.722656 Z M 21.191406 23.722656 "/>
</g>
</svg>
