<?xml version="1.0" encoding="UTF-8" standalone="no"?>
<svg
   width="28pt"
   height="28pt"
   viewBox="0 0 28 28"
   version="1.1"
   id="svg14"
   sodipodi:docname="b0.svg"
   inkscape:version="1.1 (c4e8f9e, 2021-05-24)"
   xmlns:inkscape="http://www.inkscape.org/namespaces/inkscape"
   xmlns:sodipodi="http://sodipodi.sourceforge.net/DTD/sodipodi-0.dtd"
   xmlns="http://www.w3.org/2000/svg"
   xmlns:svg="http://www.w3.org/2000/svg">
  <defs
     id="defs18" />
  <sodipodi:namedview
     id="namedview16"
     pagecolor="#ffffff"
     bordercolor="#666666"
     borderopacity="1.0"
     inkscape:pageshadow="2"
     inkscape:pageopacity="0.0"
     inkscape:pagecheckerboard="0"
     inkscape:document-units="pt"
     showgrid="false"
     inkscape:zoom="16"
     inkscape:cx="13.65625"
     inkscape:cy="24.84375"
     inkscape:window-width="1920"
     inkscape:window-height="1027"
     inkscape:window-x="0"
     inkscape:window-y="25"
     inkscape:window-maximized="1"
     inkscape:current-layer="svg14" />
  <path
     style="fill:#000000;fill-opacity:1;fill-rule:nonzero;stroke:none"
     d="m 18.34375,13.945312 c 0,0.953126 -0.07422,1.796876 -0.222656,2.566407 -0.144532,0.808593 -0.367188,1.46875 -0.730469,2.019531 -0.332031,0.550781 -0.773437,0.992188 -1.359375,1.285156 -0.550781,0.328125 -1.207031,0.476563 -2.050781,0.476563 -0.773438,0 -1.394531,-0.148438 -1.945313,-0.40625 -0.511718,-0.292969 -0.953125,-0.695313 -1.28125,-1.207031 -0.296875,-0.550782 -0.550781,-1.210938 -0.660156,-1.984376 -0.148438,-0.769531 -0.222656,-1.6875 -0.222656,-2.675781 0,-0.953125 0.074218,-1.796875 0.222656,-2.570312 0.183594,-0.804688 0.402344,-1.464844 0.769531,-2.015625 0.328125,-0.550782 0.769531,-0.992188 1.320313,-1.320313 0.546875,-0.292969 1.246094,-0.441406 2.050781,-0.441406 0.769531,0 1.429687,0.148437 1.945313,0.402344 0.550781,0.296875 0.953124,0.699219 1.28125,1.210937 0.332031,0.550782 0.550781,1.210938 0.699218,1.984375 0.144532,0.769531 0.183594,1.6875 0.183594,2.675781 z m -1.652344,0.109376 c 0,-0.585938 -0.03516,-1.136719 -0.07422,-1.648438 C 16.582031,11.929688 16.507812,11.488281 16.4375,11.121094 16.324219,10.753906 16.214844,10.425781 16.105469,10.167969 15.957031,9.910156 15.8125,9.691406 15.59375,9.507812 15.410156,9.324219 15.1875,9.214844 14.96875,9.140625 14.710938,9.066406 14.457031,8.992188 14.125,8.992188 c -0.511719,0 -0.953125,0.148437 -1.28125,0.40625 -0.332031,0.253906 -0.625,0.585937 -0.808594,1.027343 -0.183594,0.4375 -0.328125,0.953125 -0.367187,1.574219 -0.07422,0.589844 -0.109375,1.210938 -0.109375,1.910156 0,0.878906 0.03516,1.6875 0.148437,2.308594 0.07031,0.660156 0.21875,1.175781 0.4375,1.578125 0.183594,0.402344 0.476563,0.699219 0.769531,0.882813 0.332032,0.183593 0.734376,0.253906 1.175782,0.253906 0.367187,0 0.660156,-0.03516 0.914062,-0.144532 0.296875,-0.109374 0.515625,-0.292968 0.699219,-0.515624 0.183594,-0.183594 0.367187,-0.4375 0.476563,-0.734376 0.144531,-0.292968 0.21875,-0.621093 0.328124,-0.988281 0.07422,-0.367187 0.109376,-0.769531 0.148438,-1.175781 0.03516,-0.402344 0.03516,-0.84375 0.03516,-1.320312 z m 0,0"
     id="path11" />
  <rect
     style="opacity:1;fill:none;stroke:#000000;stroke-width:1.1728;stroke-linejoin:round;stroke-miterlimit:4;stroke-dasharray:none;stroke-opacity:1;paint-order:markers fill stroke"
     id="rect308"
     width="26.606733"
     height="26.606733"
     x="0.72813225"
     y="0.72813225"
     ry="4.3362432"
     rx="4.3362441" />
</svg>
