<?xml version="1.0" encoding="UTF-8"?>
<svg xmlns="http://www.w3.org/2000/svg" xmlns:xlink="http://www.w3.org/1999/xlink" width="14pt" height="14pt" viewBox="0 0 14 14" version="1.1">
<g id="surface1">
<path style=" stroke:none;fill-rule:nonzero;fill:rgb(0%,0%,0%);fill-opacity:1;" d="M 13.429688 8.257812 L 12.980469 8.257812 L 12.980469 3.375 C 12.980469 2.234375 12.054688 1.308594 10.914062 1.308594 C 9.851562 1.308594 8.976562 2.113281 8.863281 3.144531 L 7.449219 3.144531 C 7.152344 3.144531 6.914062 3.382812 6.914062 3.679688 C 6.914062 3.976562 7.152344 4.21875 7.449219 4.21875 L 10.785156 4.21875 C 11.082031 4.21875 11.320312 3.976562 11.320312 3.679688 C 11.320312 3.382812 11.082031 3.144531 10.785156 3.144531 L 9.4375 3.144531 C 9.546875 2.429688 10.167969 1.875 10.914062 1.875 C 11.742188 1.875 12.414062 2.546875 12.414062 3.375 L 12.414062 8.257812 L 0.570312 8.257812 C 0.257812 8.257812 0 8.511719 0 8.828125 C 0 9.140625 0.257812 9.398438 0.570312 9.398438 L 0.710938 9.398438 C 0.78125 9.925781 0.96875 11.324219 1.074219 11.925781 C 1.144531 12.34375 1.414062 12.691406 1.839844 12.691406 L 12.160156 12.691406 C 12.585938 12.691406 12.859375 12.34375 12.925781 11.925781 C 13.023438 11.324219 13.210938 9.925781 13.285156 9.398438 L 13.429688 9.398438 C 13.742188 9.398438 14 9.140625 14 8.828125 C 14 8.511719 13.742188 8.257812 13.429688 8.257812 Z M 13.429688 8.257812 "/>
</g>
</svg>
