<?xml version="1.0" encoding="UTF-8"?>
<svg xmlns="http://www.w3.org/2000/svg" xmlns:xlink="http://www.w3.org/1999/xlink" width="28pt" height="28pt" viewBox="0 0 28 28" version="1.1">
<g id="surface1">
<path style=" stroke:none;fill-rule:nonzero;fill:rgb(0%,0%,0%);fill-opacity:1;" d="M 17.710938 1.125 C 17.65625 1.019531 17.605469 0.964844 17.550781 0.859375 C 16.800781 0.214844 15.191406 0 14.226562 0 C 14.171875 0 14.171875 0 14.117188 0 L 13.847656 0 C 13.796875 0 13.796875 0 13.742188 0 C 12.832031 0.0546875 11.222656 0.214844 10.417969 0.859375 C 10.363281 0.910156 10.253906 1.019531 10.253906 1.125 L 7.628906 9.816406 C 7.574219 9.976562 7.628906 10.136719 7.734375 10.300781 C 7.84375 10.460938 8.003906 10.511719 8.164062 10.511719 L 10.203125 10.511719 L 10.203125 13.035156 C 9.828125 13.25 9.558594 13.625 9.558594 14.105469 C 9.558594 14.75 10.09375 15.289062 10.738281 15.289062 C 11.382812 15.289062 11.917969 14.75 11.917969 14.105469 C 11.917969 13.625 11.648438 13.25 11.273438 13.035156 L 11.273438 10.511719 L 13.472656 10.511719 L 13.472656 24.460938 C 11.4375 24.566406 9.664062 25.210938 8.859375 26.175781 C 8.808594 26.285156 8.753906 26.390625 8.753906 26.5 L 8.753906 27.464844 C 8.753906 27.785156 8.96875 28 9.289062 28 L 18.785156 28 C 19.105469 28 19.320312 27.785156 19.320312 27.464844 L 19.320312 26.5 C 19.320312 26.390625 19.265625 26.230469 19.214844 26.175781 C 18.410156 25.210938 16.640625 24.511719 14.601562 24.460938 L 14.601562 10.511719 L 19.855469 10.511719 C 20.019531 10.511719 20.179688 10.460938 20.285156 10.300781 C 20.394531 10.136719 20.394531 9.976562 20.394531 9.816406 Z M 18.195312 26.710938 L 18.195312 26.925781 L 9.828125 26.925781 L 9.828125 26.710938 C 10.46875 26.070312 11.972656 25.480469 14.011719 25.480469 C 15.78125 25.480469 17.496094 25.960938 18.195312 26.710938 Z M 8.914062 9.441406 L 11.273438 1.609375 C 11.757812 1.339844 12.722656 1.125 13.902344 1.074219 L 14.117188 1.074219 C 15.296875 1.125 16.261719 1.339844 16.746094 1.609375 L 19.105469 9.441406 Z M 8.914062 9.441406 "/>
</g>
</svg>
