<?xml version="1.0" encoding="UTF-8"?>
<svg xmlns="http://www.w3.org/2000/svg" xmlns:xlink="http://www.w3.org/1999/xlink" width="28pt" height="28pt" viewBox="0 0 28 28" version="1.1">
<g id="surface1">
<path style=" stroke:none;fill-rule:nonzero;fill:rgb(0.392157%,0%,0.784314%);fill-opacity:1;" d="M 25.757812 18.046875 L 25.757812 22.53125 L 28 22.53125 L 28 15.804688 L 2.242188 15.804688 L 2.242188 6.617188 C 2.242188 6.324219 2.132812 6.0625 1.914062 5.824219 C 1.695312 5.585938 1.429688 5.46875 1.121094 5.46875 C 0.8125 5.46875 0.546875 5.585938 0.328125 5.824219 C 0.109375 6.0625 0 6.324219 0 6.617188 L 0 22.53125 L 2.242188 22.53125 L 2.242188 18.046875 Z M 25.757812 18.046875 "/>
<path style=" stroke:none;fill-rule:nonzero;fill:rgb(0.392157%,0%,0.784314%);fill-opacity:1;" d="M 5.769531 11.210938 C 6.335938 11.210938 6.828125 11.011719 7.246094 10.609375 C 7.664062 10.207031 7.875 9.726562 7.875 9.160156 C 7.875 8.59375 7.664062 8.113281 7.246094 7.710938 C 6.828125 7.308594 6.335938 7.109375 5.769531 7.109375 C 5.203125 7.109375 4.722656 7.308594 4.320312 7.710938 C 3.917969 8.113281 3.71875 8.59375 3.71875 9.160156 C 3.71875 9.726562 3.917969 10.207031 4.320312 10.609375 C 4.722656 11.011719 5.203125 11.210938 5.769531 11.210938 Z M 5.769531 11.210938 "/>
<path style=" stroke:none;fill-rule:nonzero;fill:rgb(0.392157%,0%,0.784314%);fill-opacity:1;" d="M 28 14.109375 L 28 11.375 C 28 10.9375 27.84375 10.582031 27.535156 10.308594 C 27.226562 10.035156 26.832031 9.863281 26.359375 9.789062 L 10.117188 8.203125 L 10.007812 8.203125 C 9.714844 8.203125 9.46875 8.304688 9.269531 8.503906 C 9.070312 8.703125 8.96875 8.949219 8.96875 9.242188 L 8.96875 12.414062 L 4.8125 12.414062 C 4.121094 12.414062 3.773438 12.695312 3.773438 13.261719 C 3.773438 13.828125 4.121094 14.109375 4.8125 14.109375 Z M 28 14.109375 "/>
</g>
</svg>
