<?xml version="1.0" encoding="UTF-8"?>
<svg xmlns="http://www.w3.org/2000/svg" xmlns:xlink="http://www.w3.org/1999/xlink" width="28pt" height="28pt" viewBox="0 0 28 28" version="1.1">
<g id="surface1">
<path style=" stroke:none;fill-rule:nonzero;fill:rgb(0%,0%,0%);fill-opacity:1;" d="M 5.910156 16.390625 C 5.492188 16.390625 5.152344 16.730469 5.152344 17.152344 C 5.152344 17.570312 5.492188 17.910156 5.910156 17.910156 C 6.328125 17.910156 6.667969 17.570312 6.667969 17.152344 C 6.667969 16.730469 6.328125 16.390625 5.910156 16.390625 Z M 5.910156 16.390625 "/>
<path style=" stroke:none;fill-rule:nonzero;fill:rgb(0%,0%,0%);fill-opacity:1;" d="M 26.101562 10.574219 L 20.765625 8.433594 C 19.878906 8.078125 18.941406 7.898438 17.984375 7.898438 L 14.714844 7.898438 C 13.542969 7.898438 12.371094 8.179688 11.328125 8.710938 L 6.492188 11.167969 L 3.027344 11.671875 C 2.1875 11.796875 1.417969 12.21875 0.859375 12.859375 C 0.304688 13.503906 0 14.324219 0 15.171875 L 0 17.21875 C 0 17.535156 0.257812 17.792969 0.574219 17.792969 L 3.027344 17.792969 C 3.152344 18.351562 3.433594 18.859375 3.851562 19.265625 C 4.40625 19.804688 5.136719 20.101562 5.910156 20.101562 C 6.683594 20.101562 7.414062 19.804688 7.96875 19.265625 C 8.386719 18.859375 8.667969 18.347656 8.792969 17.792969 L 19.054688 17.792969 C 19.175781 18.351562 19.460938 18.859375 19.878906 19.265625 C 20.429688 19.804688 21.160156 20.101562 21.933594 20.101562 C 22.707031 20.101562 23.441406 19.804688 23.992188 19.265625 C 24.410156 18.859375 24.691406 18.351562 24.816406 17.792969 L 27.425781 17.792969 C 27.742188 17.792969 28 17.535156 28 17.21875 L 28 13.378906 C 28 12.136719 27.253906 11.035156 26.101562 10.574219 Z M 20.339844 9.496094 L 24.457031 11.148438 L 21.351562 11.148438 L 19.984375 9.367188 C 20.101562 9.40625 20.222656 9.449219 20.339844 9.496094 Z M 15.253906 9.042969 L 17.984375 9.042969 C 18.089844 9.042969 18.191406 9.046875 18.296875 9.050781 L 19.90625 11.148438 L 15.253906 11.148438 Z M 11.847656 9.730469 C 12.550781 9.371094 13.320312 9.148438 14.105469 9.074219 L 14.105469 11.148438 L 9.058594 11.148438 Z M 3.101562 12.820312 C 2.867188 13.617188 2.164062 14.214844 1.3125 14.296875 C 1.613281 13.550781 2.28125 12.972656 3.101562 12.820312 Z M 5.910156 18.957031 C 4.914062 18.957031 4.105469 18.148438 4.105469 17.152344 C 4.105469 16.152344 4.914062 15.34375 5.910156 15.34375 C 6.90625 15.34375 7.714844 16.152344 7.714844 17.152344 C 7.714844 18.148438 6.90625 18.957031 5.910156 18.957031 Z M 21.9375 18.957031 C 20.9375 18.957031 20.128906 18.148438 20.128906 17.152344 C 20.128906 16.152344 20.9375 15.34375 21.9375 15.34375 C 22.933594 15.34375 23.742188 16.152344 23.742188 17.152344 C 23.742188 18.148438 22.933594 18.957031 21.9375 18.957031 Z M 26.855469 16.648438 L 24.84375 16.648438 C 24.601562 15.257812 23.390625 14.199219 21.933594 14.199219 C 20.480469 14.199219 19.269531 15.257812 19.027344 16.648438 L 8.816406 16.648438 C 8.578125 15.257812 7.367188 14.199219 5.910156 14.199219 C 4.453125 14.199219 3.242188 15.257812 3.003906 16.648438 L 1.144531 16.648438 L 1.144531 15.453125 C 2.765625 15.4375 4.105469 14.214844 4.304688 12.644531 L 6.714844 12.292969 L 24.691406 12.292969 L 24.691406 13.039062 C 24.691406 14.085938 25.546875 14.9375 26.59375 14.9375 L 26.855469 14.9375 Z M 26.855469 13.792969 L 26.59375 13.792969 C 26.175781 13.792969 25.839844 13.453125 25.839844 13.039062 L 25.839844 12.292969 L 26.511719 12.292969 C 26.730469 12.601562 26.855469 12.980469 26.855469 13.378906 Z M 26.855469 13.792969 "/>
<path style=" stroke:none;fill-rule:nonzero;fill:rgb(0%,0%,0%);fill-opacity:1;" d="M 21.9375 16.390625 C 21.515625 16.390625 21.175781 16.730469 21.175781 17.152344 C 21.175781 17.570312 21.515625 17.910156 21.9375 17.910156 C 22.355469 17.910156 22.695312 17.570312 22.695312 17.152344 C 22.695312 16.730469 22.355469 16.390625 21.9375 16.390625 Z M 21.9375 16.390625 "/>
<path style=" stroke:none;fill-rule:nonzero;fill:rgb(0%,0%,0%);fill-opacity:1;" d="M 15.871094 13.898438 L 12.074219 13.898438 C 11.757812 13.898438 11.5 14.152344 11.5 14.46875 C 11.5 14.785156 11.757812 15.042969 12.074219 15.042969 L 15.871094 15.042969 C 16.1875 15.042969 16.441406 14.785156 16.441406 14.46875 C 16.441406 14.152344 16.1875 13.898438 15.871094 13.898438 Z M 15.871094 13.898438 "/>
<path style=" stroke:none;fill-rule:nonzero;fill:rgb(0%,0%,0%);fill-opacity:1;" d="M 5.910156 16.390625 C 5.492188 16.390625 5.152344 16.730469 5.152344 17.152344 C 5.152344 17.570312 5.492188 17.910156 5.910156 17.910156 C 6.328125 17.910156 6.667969 17.570312 6.667969 17.152344 C 6.667969 16.730469 6.328125 16.390625 5.910156 16.390625 Z M 5.910156 16.390625 "/>
<path style=" stroke:none;fill-rule:nonzero;fill:rgb(0%,0%,0%);fill-opacity:1;" d="M 21.9375 16.390625 C 21.515625 16.390625 21.175781 16.730469 21.175781 17.152344 C 21.175781 17.570312 21.515625 17.910156 21.9375 17.910156 C 22.355469 17.910156 22.695312 17.570312 22.695312 17.152344 C 22.695312 16.730469 22.355469 16.390625 21.9375 16.390625 Z M 21.9375 16.390625 "/>
<path style=" stroke:none;fill-rule:nonzero;fill:rgb(0%,0%,0%);fill-opacity:1;" d="M 5.910156 16.390625 C 5.492188 16.390625 5.152344 16.730469 5.152344 17.152344 C 5.152344 17.570312 5.492188 17.910156 5.910156 17.910156 C 6.328125 17.910156 6.667969 17.570312 6.667969 17.152344 C 6.667969 16.730469 6.328125 16.390625 5.910156 16.390625 Z M 5.910156 16.390625 "/>
<path style=" stroke:none;fill-rule:nonzero;fill:rgb(0%,0%,0%);fill-opacity:1;" d="M 21.9375 16.390625 C 21.515625 16.390625 21.175781 16.730469 21.175781 17.152344 C 21.175781 17.570312 21.515625 17.910156 21.9375 17.910156 C 22.355469 17.910156 22.695312 17.570312 22.695312 17.152344 C 22.695312 16.730469 22.355469 16.390625 21.9375 16.390625 Z M 21.9375 16.390625 "/>
</g>
</svg>
