<?xml version="1.0" encoding="UTF-8"?>
<svg xmlns="http://www.w3.org/2000/svg" xmlns:xlink="http://www.w3.org/1999/xlink" width="28pt" height="28pt" viewBox="0 0 28 28" version="1.1">
<g id="surface1">
<path style=" stroke:none;fill-rule:nonzero;fill:rgb(0%,0%,0%);fill-opacity:1;" d="M 26.410156 7.480469 C 25.382812 6.851562 23.9375 7 22.503906 9.683594 C 22.003906 10.621094 21.09375 12.75 20.4375 13.386719 C 20.082031 13.734375 19.269531 13.839844 18.605469 13.863281 C 21.171875 10.949219 22.824219 6.347656 23.480469 4.675781 C 24.425781 2.273438 19.234375 0 13.992188 0 C 8.75 0 3.636719 2.242188 4.503906 4.675781 C 5.230469 6.710938 6.8125 11.070312 9.28125 13.859375 C 8.636719 13.828125 7.898438 13.714844 7.5625 13.386719 C 6.90625 12.75 5.996094 10.621094 5.496094 9.683594 C 4.0625 7 2.617188 6.851562 1.589844 7.480469 C 0.5625 8.109375 0.1875 9.367188 1.777344 11.960938 C 1.777344 11.960938 5.292969 18.363281 9.390625 18.363281 L 9.390625 18.355469 L 13.265625 18.359375 L 13.265625 25.050781 L 6.300781 23.617188 C 5.984375 23.550781 5.671875 23.753906 5.605469 24.070312 C 5.542969 24.390625 5.746094 24.699219 6.0625 24.765625 L 11.09375 25.800781 L 6.0625 26.839844 C 5.746094 26.902344 5.542969 27.214844 5.605469 27.53125 C 5.664062 27.808594 5.910156 28 6.179688 28 C 6.21875 28 6.261719 27.996094 6.300781 27.988281 L 14 26.402344 L 21.699219 27.988281 C 21.738281 27.996094 21.78125 28 21.820312 28 C 22.089844 28 22.335938 27.808594 22.394531 27.53125 C 22.457031 27.214844 22.253906 26.902344 21.9375 26.839844 L 16.90625 25.800781 L 21.9375 24.765625 C 22.253906 24.699219 22.457031 24.390625 22.394531 24.070312 C 22.328125 23.753906 22.015625 23.550781 21.699219 23.617188 L 14.734375 25.050781 L 14.734375 18.359375 L 18.609375 18.359375 L 18.609375 18.363281 C 22.707031 18.363281 26.222656 11.960938 26.222656 11.960938 C 27.8125 9.367188 27.4375 8.109375 26.410156 7.480469 Z M 26.410156 7.480469 "/>
</g>
</svg>
