<?xml version="1.0" encoding="UTF-8"?>
<svg xmlns="http://www.w3.org/2000/svg" xmlns:xlink="http://www.w3.org/1999/xlink" width="28pt" height="28pt" viewBox="0 0 28 28" version="1.1">
<g id="surface1">
<path style=" stroke:none;fill-rule:nonzero;fill:rgb(0%,0%,0%);fill-opacity:1;" d="M 15.925781 1.398438 C 15.851562 1.164062 15.597656 1.035156 15.363281 1.113281 L 14.445312 1.410156 L 14.445312 0.445312 C 14.445312 0.199219 14.246094 0 14 0 C 13.753906 0 13.554688 0.199219 13.554688 0.445312 L 13.554688 1.410156 L 12.636719 1.113281 C 12.402344 1.035156 12.148438 1.164062 12.074219 1.398438 C 11.996094 1.632812 12.125 1.886719 12.359375 1.960938 L 13.277344 2.261719 L 12.710938 3.039062 C 12.566406 3.238281 12.609375 3.519531 12.808594 3.664062 C 12.890625 3.722656 12.980469 3.75 13.070312 3.75 C 13.210938 3.75 13.347656 3.683594 13.433594 3.566406 L 14 2.785156 L 14.566406 3.566406 C 14.652344 3.683594 14.789062 3.75 14.929688 3.75 C 15.019531 3.75 15.109375 3.722656 15.191406 3.664062 C 15.390625 3.519531 15.433594 3.238281 15.289062 3.039062 L 14.722656 2.261719 L 15.640625 1.960938 C 15.875 1.886719 16.003906 1.632812 15.925781 1.398438 Z M 15.925781 1.398438 "/>
<path style=" stroke:none;fill-rule:nonzero;fill:rgb(0%,0%,0%);fill-opacity:1;" d="M 23.503906 27.335938 L 22.292969 25.179688 C 22.597656 24.882812 22.789062 24.46875 22.789062 24.007812 C 22.789062 23.105469 22.050781 22.371094 21.148438 22.371094 C 21.007812 22.371094 20.871094 22.386719 20.742188 22.421875 L 19.890625 20.910156 L 20.9375 20.910156 C 21.09375 20.910156 21.242188 20.828125 21.324219 20.6875 C 21.402344 20.550781 21.402344 20.382812 21.324219 20.246094 L 19.769531 17.480469 C 19.648438 17.265625 19.375 17.1875 19.160156 17.308594 C 18.945312 17.429688 18.871094 17.703125 18.992188 17.917969 L 20.171875 20.015625 L 19.128906 20.015625 C 18.96875 20.015625 18.820312 20.101562 18.742188 20.238281 C 18.660156 20.375 18.660156 20.542969 18.738281 20.683594 L 19.96875 22.875 C 19.6875 23.167969 19.511719 23.566406 19.511719 24.007812 C 19.511719 24.910156 20.246094 25.648438 21.148438 25.648438 C 21.273438 25.648438 21.390625 25.632812 21.507812 25.605469 L 22.351562 27.105469 L 5.648438 27.105469 L 6.492188 25.605469 C 6.609375 25.632812 6.726562 25.648438 6.851562 25.648438 C 7.753906 25.648438 8.488281 24.910156 8.488281 24.007812 C 8.488281 23.566406 8.3125 23.167969 8.03125 22.871094 L 9.261719 20.683594 C 9.339844 20.542969 9.339844 20.375 9.257812 20.238281 C 9.179688 20.101562 9.03125 20.015625 8.871094 20.015625 L 7.828125 20.015625 L 11.441406 13.59375 C 11.519531 13.457031 11.515625 13.285156 11.4375 13.148438 C 11.355469 13.011719 11.210938 12.925781 11.050781 12.925781 L 10.003906 12.925781 L 14 5.828125 L 17.996094 12.925781 L 16.949219 12.925781 C 16.789062 12.925781 16.644531 13.011719 16.5625 13.148438 C 16.484375 13.285156 16.480469 13.457031 16.558594 13.59375 L 18.117188 16.359375 C 18.238281 16.574219 18.507812 16.652344 18.722656 16.53125 C 18.9375 16.410156 19.015625 16.136719 18.894531 15.921875 L 17.714844 13.820312 L 18.757812 13.820312 C 18.917969 13.820312 19.0625 13.738281 19.144531 13.601562 C 19.222656 13.464844 19.226562 13.292969 19.148438 13.15625 L 14.390625 4.695312 C 14.308594 4.554688 14.160156 4.46875 14 4.46875 C 13.839844 4.46875 13.691406 4.554688 13.609375 4.695312 L 8.851562 13.15625 C 8.773438 13.292969 8.777344 13.464844 8.855469 13.601562 C 8.9375 13.738281 9.082031 13.820312 9.242188 13.820312 L 10.289062 13.820312 L 6.675781 20.246094 C 6.597656 20.382812 6.597656 20.550781 6.675781 20.6875 C 6.757812 20.828125 6.90625 20.910156 7.0625 20.910156 L 8.109375 20.910156 L 7.257812 22.421875 C 7.128906 22.386719 6.992188 22.371094 6.851562 22.371094 C 5.949219 22.371094 5.210938 23.105469 5.210938 24.007812 C 5.210938 24.46875 5.402344 24.882812 5.707031 25.179688 L 4.496094 27.335938 C 4.417969 27.472656 4.417969 27.640625 4.5 27.777344 C 4.578125 27.914062 4.726562 28 4.886719 28 L 23.113281 28 C 23.273438 28 23.421875 27.914062 23.5 27.777344 C 23.582031 27.640625 23.582031 27.472656 23.503906 27.335938 Z M 21.148438 24.753906 C 20.738281 24.753906 20.402344 24.417969 20.402344 24.007812 C 20.402344 23.597656 20.738281 23.265625 21.148438 23.265625 C 21.558594 23.265625 21.894531 23.597656 21.894531 24.007812 C 21.894531 24.417969 21.558594 24.753906 21.148438 24.753906 Z M 6.851562 23.265625 C 7.261719 23.265625 7.597656 23.597656 7.597656 24.007812 C 7.597656 24.417969 7.261719 24.753906 6.851562 24.753906 C 6.441406 24.753906 6.105469 24.417969 6.105469 24.007812 C 6.105469 23.597656 6.441406 23.265625 6.851562 23.265625 Z M 6.851562 23.265625 "/>
<path style=" stroke:none;fill-rule:nonzero;fill:rgb(0%,0%,0%);fill-opacity:1;" d="M 14 22.371094 C 13.097656 22.371094 12.363281 23.105469 12.363281 24.007812 C 12.363281 24.910156 13.097656 25.648438 14 25.648438 C 14.902344 25.648438 15.636719 24.910156 15.636719 24.007812 C 15.636719 23.105469 14.902344 22.371094 14 22.371094 Z M 14 24.753906 C 13.589844 24.753906 13.253906 24.417969 13.253906 24.007812 C 13.253906 23.597656 13.589844 23.265625 14 23.265625 C 14.410156 23.265625 14.746094 23.597656 14.746094 24.007812 C 14.746094 24.417969 14.410156 24.753906 14 24.753906 Z M 14 24.753906 "/>
<path style=" stroke:none;fill-rule:nonzero;fill:rgb(0%,0%,0%);fill-opacity:1;" d="M 14 15.9375 C 13.097656 15.9375 12.363281 16.671875 12.363281 17.574219 C 12.363281 18.476562 13.097656 19.210938 14 19.210938 C 14.902344 19.210938 15.636719 18.476562 15.636719 17.574219 C 15.636719 16.671875 14.902344 15.9375 14 15.9375 Z M 14 18.320312 C 13.589844 18.320312 13.253906 17.984375 13.253906 17.574219 C 13.253906 17.164062 13.589844 16.828125 14 16.828125 C 14.410156 16.828125 14.746094 17.164062 14.746094 17.574219 C 14.746094 17.984375 14.410156 18.320312 14 18.320312 Z M 14 18.320312 "/>
<path style=" stroke:none;fill-rule:nonzero;fill:rgb(0%,0%,0%);fill-opacity:1;" d="M 14 9.503906 C 13.097656 9.503906 12.363281 10.238281 12.363281 11.140625 C 12.363281 12.042969 13.097656 12.777344 14 12.777344 C 14.902344 12.777344 15.636719 12.042969 15.636719 11.140625 C 15.636719 10.238281 14.902344 9.503906 14 9.503906 Z M 14 11.886719 C 13.589844 11.886719 13.253906 11.550781 13.253906 11.140625 C 13.253906 10.730469 13.589844 10.394531 14 10.394531 C 14.410156 10.394531 14.746094 10.730469 14.746094 11.140625 C 14.746094 11.550781 14.410156 11.886719 14 11.886719 Z M 14 11.886719 "/>
</g>
</svg>
