<?xml version="1.0" encoding="UTF-8"?>
<svg xmlns="http://www.w3.org/2000/svg" xmlns:xlink="http://www.w3.org/1999/xlink" width="28pt" height="28pt" viewBox="0 0 28 28" version="1.1">
<g id="surface1">
<path style=" stroke:none;fill-rule:nonzero;fill:rgb(0%,0%,0%);fill-opacity:1;" d="M 11.132812 25.214844 C 11.132812 23.234375 9.238281 21.609375 6.753906 21.441406 L 4.226562 11.363281 L 15.15625 2.398438 L 18.347656 6.695312 L 20.339844 5.988281 L 16.195312 0.40625 C 15.980469 0.117188 15.644531 -0.0234375 15.308594 0.00390625 C 15.066406 -0.0117188 14.820312 0.0625 14.617188 0.226562 L 2.449219 10.203125 C 2.429688 10.21875 2.417969 10.238281 2.398438 10.253906 C 2.375 10.277344 2.347656 10.304688 2.324219 10.332031 C 2.300781 10.355469 2.285156 10.382812 2.265625 10.410156 C 2.246094 10.4375 2.226562 10.464844 2.210938 10.492188 C 2.195312 10.519531 2.183594 10.550781 2.167969 10.582031 C 2.15625 10.609375 2.144531 10.640625 2.132812 10.667969 C 2.125 10.699219 2.117188 10.730469 2.109375 10.765625 C 2.101562 10.796875 2.09375 10.828125 2.089844 10.859375 C 2.085938 10.890625 2.085938 10.925781 2.085938 10.960938 C 2.085938 10.992188 2.082031 11.023438 2.085938 11.050781 C 2.085938 11.09375 2.09375 11.132812 2.101562 11.171875 C 2.105469 11.191406 2.105469 11.210938 2.109375 11.230469 L 4.722656 21.644531 C 2.851562 22.164062 1.535156 23.566406 1.535156 25.214844 L 1.535156 26.476562 L 11.132812 26.476562 Z M 15.382812 0.496094 C 15.667969 0.496094 15.898438 0.726562 15.898438 1.007812 C 15.898438 1.292969 15.667969 1.523438 15.382812 1.523438 C 15.101562 1.523438 14.871094 1.292969 14.871094 1.007812 C 14.871094 0.726562 15.101562 0.496094 15.382812 0.496094 Z M 3.257812 11.625 C 2.976562 11.625 2.746094 11.394531 2.746094 11.113281 C 2.746094 10.828125 2.976562 10.597656 3.257812 10.597656 C 3.542969 10.597656 3.773438 10.828125 3.773438 11.113281 C 3.773438 11.394531 3.542969 11.625 3.257812 11.625 Z M 7.089844 24.835938 C 7.089844 25.183594 6.808594 25.46875 6.457031 25.46875 L 5.699219 25.46875 C 5.351562 25.46875 5.070312 25.183594 5.070312 24.835938 L 5.070312 24.078125 C 5.070312 23.917969 5.132812 23.777344 5.230469 23.664062 C 5.347656 23.535156 5.511719 23.445312 5.699219 23.445312 L 6.457031 23.445312 C 6.757812 23.445312 6.996094 23.660156 7.0625 23.9375 C 7.074219 23.984375 7.089844 24.027344 7.089844 24.078125 Z M 7.089844 24.835938 "/>
<path style=" stroke:none;fill-rule:nonzero;fill:rgb(0%,0%,0%);fill-opacity:1;" d="M 1.015625 27.992188 L 11.394531 27.992188 C 11.667969 27.992188 11.890625 27.765625 11.890625 27.488281 C 11.890625 27.210938 11.667969 26.984375 11.394531 26.984375 L 1.015625 26.984375 C 0.746094 26.984375 0.523438 27.210938 0.523438 27.488281 C 0.523438 27.765625 0.746094 27.992188 1.015625 27.992188 Z M 1.015625 27.992188 "/>
<path style=" stroke:none;fill-rule:nonzero;fill:rgb(0%,0%,0%);fill-opacity:1;" d="M 16.8125 8.28125 L 17.058594 15.554688 L 27.472656 11.847656 L 23.0625 6.058594 L 20.949219 6.808594 L 18.960938 7.515625 Z M 16.8125 8.28125 "/>
</g>
</svg>
