<?xml version="1.0" encoding="UTF-8"?>
<svg xmlns="http://www.w3.org/2000/svg" xmlns:xlink="http://www.w3.org/1999/xlink" width="28pt" height="28pt" viewBox="0 0 28 28" version="1.1">
<g id="surface1">
<path style=" stroke:none;fill-rule:nonzero;fill:rgb(0%,0%,0%);fill-opacity:1;" d="M 16.5 8 L 18.5 8 L 18.5 10 L 16.5 10 Z M 16.5 8 "/>
<path style=" stroke:none;fill-rule:nonzero;fill:rgb(0%,0%,0%);fill-opacity:1;" d="M 15.613281 11.5 L 19.386719 11.5 C 18.992188 10.839844 18.265625 10.457031 17.5 10.5 C 16.734375 10.457031 16.007812 10.839844 15.613281 11.5 Z M 15.613281 11.5 "/>
<path style=" stroke:none;fill-rule:nonzero;fill:rgb(0%,0%,0%);fill-opacity:1;" d="M 2 27.5 C 2 27.777344 2.222656 28 2.5 28 C 2.777344 28 3 27.777344 3 27.5 L 3 14.5 L 2 14.5 Z M 2 27.5 "/>
<path style=" stroke:none;fill-rule:nonzero;fill:rgb(0%,0%,0%);fill-opacity:1;" d="M 12 20.5 L 6 20.5 L 6 23.5 L 12 23.5 Z M 10 22.5 L 8 22.5 C 7.722656 22.5 7.5 22.277344 7.5 22 C 7.5 21.722656 7.722656 21.5 8 21.5 L 10 21.5 C 10.277344 21.5 10.5 21.722656 10.5 22 C 10.5 22.277344 10.277344 22.5 10 22.5 Z M 10 22.5 "/>
<path style=" stroke:none;fill-rule:nonzero;fill:rgb(0%,0%,0%);fill-opacity:1;" d="M 0 12.5 L 28 12.5 L 28 13.5 L 0 13.5 Z M 0 12.5 "/>
<path style=" stroke:none;fill-rule:nonzero;fill:rgb(0%,0%,0%);fill-opacity:1;" d="M 22 16.5 L 15 16.5 L 15 23.5 L 22 23.5 Z M 20.988281 18.101562 C 20.984375 18.132812 20.972656 18.160156 20.960938 18.191406 C 20.949219 18.222656 20.933594 18.253906 20.914062 18.28125 L 20.855469 18.355469 C 20.804688 18.398438 20.75 18.433594 20.691406 18.460938 C 20.570312 18.511719 20.429688 18.511719 20.308594 18.460938 C 20.25 18.433594 20.195312 18.398438 20.144531 18.355469 C 19.953125 18.15625 19.953125 17.84375 20.144531 17.644531 C 20.195312 17.601562 20.25 17.566406 20.308594 17.539062 C 20.433594 17.488281 20.566406 17.488281 20.691406 17.539062 C 20.75 17.566406 20.804688 17.601562 20.855469 17.644531 C 20.945312 17.742188 20.996094 17.867188 21 18 C 21 18.035156 20.996094 18.066406 20.988281 18.101562 Z M 20.988281 18.101562 "/>
<path style=" stroke:none;fill-rule:nonzero;fill:rgb(0%,0%,0%);fill-opacity:1;" d="M 12 16.5 L 6 16.5 L 6 19.5 L 12 19.5 Z M 10 18.5 L 8 18.5 C 7.722656 18.5 7.5 18.277344 7.5 18 C 7.5 17.722656 7.722656 17.5 8 17.5 L 10 17.5 C 10.277344 17.5 10.5 17.722656 10.5 18 C 10.5 18.277344 10.277344 18.5 10 18.5 Z M 10 18.5 "/>
<path style=" stroke:none;fill-rule:nonzero;fill:rgb(0%,0%,0%);fill-opacity:1;" d="M 4 25.5 L 24 25.5 L 24 14.5 L 4 14.5 Z M 14 16.5 C 14 15.949219 14.449219 15.5 15 15.5 L 22 15.5 C 22.550781 15.5 23 15.949219 23 16.5 L 23 23.5 C 23 24.050781 22.550781 24.5 22 24.5 L 15 24.5 C 14.449219 24.5 14 24.050781 14 23.5 Z M 5 16.5 C 5 15.949219 5.449219 15.5 6 15.5 L 12 15.5 C 12.550781 15.5 13 15.949219 13 16.5 L 13 23.5 C 13 24.050781 12.550781 24.5 12 24.5 L 6 24.5 C 5.449219 24.5 5 24.050781 5 23.5 Z M 5 16.5 "/>
<path style=" stroke:none;fill-rule:nonzero;fill:rgb(0%,0%,0%);fill-opacity:1;" d="M 25 27.5 C 25 27.777344 25.222656 28 25.5 28 C 25.777344 28 26 27.777344 26 27.5 L 26 14.5 L 25 14.5 Z M 25 27.5 "/>
<path style=" stroke:none;fill-rule:nonzero;fill:rgb(0%,0%,0%);fill-opacity:1;" d="M 11.5 6.5 L 23.5 6.5 L 23.5 7.5 L 11.5 7.5 Z M 11.5 6.5 "/>
<path style=" stroke:none;fill-rule:nonzero;fill:rgb(0%,0%,0%);fill-opacity:1;" d="M 23.5 0 L 11.5 0 L 11.5 5.5 L 23.5 5.5 Z M 19.5 2 L 17.5 2 C 17.222656 2 17 1.777344 17 1.5 C 17 1.222656 17.222656 1 17.5 1 L 19.5 1 C 19.777344 1 20 1.222656 20 1.5 C 20 1.777344 19.777344 2 19.5 2 Z M 22 2 L 21.5 2 C 21.222656 2 21 1.777344 21 1.5 C 21 1.222656 21.222656 1 21.5 1 L 22 1 C 22.277344 1 22.5 1.222656 22.5 1.5 C 22.5 1.777344 22.277344 2 22 2 Z M 22 2 "/>
<path style=" stroke:none;fill-rule:nonzero;fill:rgb(0%,0%,0%);fill-opacity:1;" d="M 4.492188 8 C 4.21875 8.003906 4 8.226562 4 8.5 L 4 12 L 7 12 L 7 8.5 C 7 8.246094 6.804688 8.035156 6.554688 8.011719 L 7.449219 6.222656 C 7.527344 6.0625 7.515625 5.875 7.417969 5.722656 C 7.320312 5.574219 7.148438 5.488281 6.96875 5.5 C 6.792969 5.511719 6.632812 5.617188 6.554688 5.777344 L 5.554688 7.777344 C 5.519531 7.847656 5.503906 7.921875 5.503906 8 L 5.492188 8 C 5.492188 7.972656 5.496094 7.945312 5.492188 7.917969 L 4.992188 4.917969 C 4.964844 4.738281 4.84375 4.589844 4.675781 4.527344 C 4.507812 4.464844 4.320312 4.496094 4.179688 4.609375 C 4.042969 4.726562 3.976562 4.90625 4.007812 5.082031 Z M 4.492188 8 "/>
</g>
</svg>
