<?xml version="1.0" encoding="UTF-8"?>
<svg xmlns="http://www.w3.org/2000/svg" xmlns:xlink="http://www.w3.org/1999/xlink" width="28pt" height="28pt" viewBox="0 0 28 28" version="1.1">
<g id="surface1">
<path style=" stroke:none;fill-rule:nonzero;fill:rgb(0%,0%,0%);fill-opacity:1;" d="M 27.988281 27.4375 L 25.773438 16.800781 L 26.132812 16.800781 C 26.363281 16.800781 26.554688 16.632812 26.59375 16.410156 L 26.996094 14 L 27.53125 14 C 27.789062 14 28 13.789062 28 13.535156 L 28 11.667969 C 28 11.410156 27.789062 11.199219 27.53125 11.199219 L 21.464844 11.199219 L 21.464844 10.890625 C 21.464844 10.289062 20.976562 9.800781 20.378906 9.800781 L 20.066406 9.800781 L 20.066406 9.332031 L 24.734375 9.332031 C 25.246094 9.332031 25.667969 8.914062 25.667969 8.398438 L 25.667969 7.464844 L 11.667969 7.464844 L 11.667969 8.398438 C 11.667969 8.914062 12.085938 9.332031 12.601562 9.332031 L 17.265625 9.332031 L 17.265625 9.800781 L 16.957031 9.800781 C 16.355469 9.800781 15.867188 10.289062 15.867188 10.890625 L 15.867188 11.199219 L 8.398438 11.199219 L 8.398438 10.265625 L 8.867188 10.265625 C 9.125 10.265625 9.332031 10.058594 9.332031 9.800781 L 9.332031 7.933594 C 9.332031 7.675781 9.125 7.464844 8.867188 7.464844 L 8.398438 7.464844 L 8.398438 6.066406 C 8.398438 5.808594 8.191406 5.601562 7.933594 5.601562 L 1.867188 5.601562 C 1.609375 5.601562 1.398438 5.808594 1.398438 6.066406 L 1.398438 7.933594 C 1.398438 8.191406 1.609375 8.398438 1.867188 8.398438 L 2.332031 8.398438 L 2.332031 9.332031 L 1.867188 9.332031 C 1.609375 9.332031 1.398438 9.542969 1.398438 9.800781 L 1.398438 11.199219 L 0.464844 11.199219 C 0.210938 11.199219 0 11.410156 0 11.667969 L 0 13.535156 C 0 13.789062 0.210938 14 0.464844 14 L 0.933594 14 L 0.933594 17.734375 L 10.265625 17.734375 L 10.265625 14 L 23.40625 14 L 23.804688 16.410156 C 23.84375 16.632812 24.039062 16.800781 24.265625 16.800781 L 24.625 16.800781 L 22.410156 27.4375 C 22.355469 27.691406 22.519531 27.9375 22.769531 27.988281 C 22.804688 27.996094 22.835938 28 22.867188 28 C 23.082031 28 23.277344 27.847656 23.324219 27.628906 L 25.199219 18.621094 L 27.078125 27.628906 C 27.121094 27.847656 27.316406 28 27.53125 28 C 27.5625 28 27.597656 27.996094 27.628906 27.988281 C 27.878906 27.9375 28.042969 27.691406 27.988281 27.4375 Z M 6.066406 16.332031 L 5.132812 16.332031 C 4.875 16.332031 4.667969 16.125 4.667969 15.867188 C 4.667969 15.609375 4.875 15.398438 5.132812 15.398438 L 6.066406 15.398438 C 6.324219 15.398438 6.535156 15.609375 6.535156 15.867188 C 6.535156 16.125 6.324219 16.332031 6.066406 16.332031 Z M 7.464844 11.199219 L 2.332031 11.199219 L 2.332031 10.265625 L 7.464844 10.265625 Z M 7.464844 7.464844 L 2.332031 7.464844 L 2.332031 6.535156 L 7.464844 6.535156 Z M 7.464844 7.464844 "/>
<path style=" stroke:none;fill-rule:nonzero;fill:rgb(0%,0%,0%);fill-opacity:1;" d="M 0.933594 22.398438 L 10.265625 22.398438 L 10.265625 18.667969 L 0.933594 18.667969 Z M 5.132812 20.066406 L 6.066406 20.066406 C 6.324219 20.066406 6.535156 20.277344 6.535156 20.535156 C 6.535156 20.789062 6.324219 21 6.066406 21 L 5.132812 21 C 4.875 21 4.667969 20.789062 4.667969 20.535156 C 4.667969 20.277344 4.875 20.066406 5.132812 20.066406 Z M 5.132812 20.066406 "/>
<path style=" stroke:none;fill-rule:nonzero;fill:rgb(0%,0%,0%);fill-opacity:1;" d="M 0.933594 27.535156 C 0.933594 27.789062 1.140625 28 1.398438 28 L 9.800781 28 C 10.058594 28 10.265625 27.789062 10.265625 27.535156 L 10.265625 23.332031 L 0.933594 23.332031 Z M 5.132812 24.734375 L 6.066406 24.734375 C 6.324219 24.734375 6.535156 24.941406 6.535156 25.199219 C 6.535156 25.457031 6.324219 25.667969 6.066406 25.667969 L 5.132812 25.667969 C 4.875 25.667969 4.667969 25.457031 4.667969 25.199219 C 4.667969 24.941406 4.875 24.734375 5.132812 24.734375 Z M 5.132812 24.734375 "/>
<path style=" stroke:none;fill-rule:nonzero;fill:rgb(0%,0%,0%);fill-opacity:1;" d="M 25.667969 0.933594 C 25.667969 0.417969 25.246094 0 24.734375 0 L 12.601562 0 C 12.085938 0 11.667969 0.417969 11.667969 0.933594 L 11.667969 6.535156 L 25.667969 6.535156 Z M 13.203125 2.46875 L 14.136719 1.535156 C 14.320312 1.355469 14.613281 1.355469 14.796875 1.535156 C 14.980469 1.71875 14.980469 2.015625 14.796875 2.195312 L 13.863281 3.128906 C 13.773438 3.222656 13.652344 3.265625 13.535156 3.265625 C 13.414062 3.265625 13.292969 3.222656 13.203125 3.128906 C 13.019531 2.949219 13.019531 2.652344 13.203125 2.46875 Z M 16.664062 2.664062 L 14.328125 4.992188 C 14.238281 5.082031 14.117188 5.125 14 5.125 C 13.878906 5.125 13.761719 5.082031 13.667969 4.988281 C 13.488281 4.804688 13.488281 4.511719 13.671875 4.328125 L 16.003906 2.003906 C 16.1875 1.820312 16.480469 1.820312 16.664062 2.003906 C 16.84375 2.1875 16.84375 2.480469 16.664062 2.664062 Z M 16.664062 2.664062 "/>
</g>
</svg>
