<?xml version="1.0" encoding="UTF-8"?>
<svg xmlns="http://www.w3.org/2000/svg" xmlns:xlink="http://www.w3.org/1999/xlink" width="28pt" height="28pt" viewBox="0 0 28 28" version="1.1">
<g id="surface1">
<path style=" stroke:none;fill-rule:nonzero;fill:rgb(0%,0%,0%);fill-opacity:1;" d="M 22.367188 7.351562 C 22.277344 7.1875 22.109375 7.085938 21.921875 7.089844 L 11.128906 7.089844 C 10.859375 7.089844 10.640625 7.308594 10.640625 7.582031 L 10.640625 12.03125 C 10.640625 12.300781 10.859375 12.519531 11.128906 12.519531 C 11.398438 12.519531 11.617188 12.300781 11.617188 12.03125 L 11.617188 8.070312 L 18.59375 8.070312 L 13.898438 9.476562 C 13.691406 9.539062 13.546875 9.730469 13.546875 9.945312 L 13.546875 23.761719 L 11.617188 23.761719 L 11.617188 19.972656 C 11.617188 19.703125 11.398438 19.484375 11.128906 19.484375 C 10.859375 19.484375 10.640625 19.703125 10.640625 19.972656 L 10.640625 24.25 C 10.640625 24.519531 10.859375 24.738281 11.128906 24.738281 L 13.546875 24.738281 L 13.546875 26.613281 C 13.546875 26.769531 13.621094 26.914062 13.746094 27.007812 C 13.867188 27.101562 14.027344 27.128906 14.175781 27.082031 L 22.074219 24.71875 C 22.28125 24.65625 22.425781 24.464844 22.425781 24.25 L 22.425781 7.59375 C 22.425781 7.507812 22.40625 7.425781 22.367188 7.351562 Z M 21.445312 23.886719 L 14.527344 25.957031 L 14.527344 10.308594 L 21.445312 8.238281 Z M 21.445312 23.886719 "/>
<path style=" stroke:none;fill-rule:nonzero;fill:rgb(0%,0%,0%);fill-opacity:1;" d="M 16.367188 18.132812 C 17.089844 18.132812 17.671875 17.546875 17.671875 16.824219 C 17.671875 16.105469 17.089844 15.519531 16.367188 15.519531 C 15.648438 15.519531 15.0625 16.105469 15.0625 16.824219 C 15.0625 17.546875 15.648438 18.128906 16.367188 18.132812 Z M 16.367188 16.5 C 16.546875 16.5 16.695312 16.644531 16.695312 16.824219 C 16.695312 17.007812 16.546875 17.152344 16.367188 17.152344 C 16.1875 17.152344 16.042969 17.007812 16.042969 16.824219 C 16.042969 16.644531 16.1875 16.5 16.367188 16.5 Z M 16.367188 16.5 "/>
<path style=" stroke:none;fill-rule:nonzero;fill:rgb(0%,0%,0%);fill-opacity:1;" d="M 16.804688 6.089844 C 18.246094 6.089844 19.414062 4.921875 19.414062 3.480469 C 19.414062 2.039062 18.246094 0.871094 16.804688 0.871094 C 15.363281 0.871094 14.191406 2.039062 14.191406 3.480469 C 14.1875 4.175781 14.464844 4.839844 14.953125 5.332031 C 15.445312 5.820312 16.109375 6.09375 16.804688 6.089844 Z M 16.804688 1.742188 C 17.765625 1.742188 18.542969 2.519531 18.542969 3.480469 C 18.542969 4.441406 17.765625 5.222656 16.804688 5.222656 C 15.84375 5.222656 15.0625 4.441406 15.0625 3.480469 C 15.0625 2.519531 15.84375 1.742188 16.804688 1.742188 Z M 16.804688 1.742188 "/>
<path style=" stroke:none;fill-rule:nonzero;fill:rgb(0%,0%,0%);fill-opacity:1;" d="M 16.15625 3.269531 L 16.5625 3.527344 L 16.5625 4.496094 C 16.5625 4.734375 16.757812 4.929688 16.996094 4.929688 C 17.238281 4.929688 17.433594 4.734375 17.433594 4.496094 L 17.433594 3.289062 C 17.433594 3.140625 17.355469 3.003906 17.230469 2.921875 L 16.625 2.535156 C 16.425781 2.40625 16.15625 2.464844 16.027344 2.667969 C 15.894531 2.871094 15.953125 3.140625 16.15625 3.269531 Z M 16.15625 3.269531 "/>
<path style=" stroke:none;fill-rule:nonzero;fill:rgb(0%,0%,0%);fill-opacity:1;" d="M 6.671875 16.390625 L 12.507812 16.390625 C 12.777344 16.390625 12.996094 16.171875 12.996094 15.902344 C 12.996094 15.632812 12.777344 15.410156 12.507812 15.410156 L 6.671875 15.410156 L 8.066406 14.015625 C 8.257812 13.824219 8.257812 13.515625 8.066406 13.324219 C 7.878906 13.132812 7.566406 13.132812 7.375 13.324219 L 5.144531 15.554688 C 4.953125 15.746094 4.953125 16.054688 5.144531 16.246094 L 7.375 18.476562 C 7.566406 18.667969 7.878906 18.667969 8.066406 18.476562 C 8.257812 18.285156 8.257812 17.976562 8.066406 17.785156 Z M 6.671875 16.390625 "/>
</g>
</svg>
