<?xml version="1.0" encoding="UTF-8"?>
<svg xmlns="http://www.w3.org/2000/svg" xmlns:xlink="http://www.w3.org/1999/xlink" width="28pt" height="28pt" viewBox="0 0 28 28" version="1.1">
<g id="surface1">
<path style=" stroke:none;fill-rule:nonzero;fill:rgb(0%,0%,0%);fill-opacity:1;" d="M 20.546875 19.179688 C 20.335938 19.179688 20.125 19.101562 19.964844 18.9375 C 19.644531 18.617188 19.644531 18.097656 19.964844 17.773438 L 22.914062 14.824219 L 11.164062 14.824219 C 10.707031 14.824219 10.339844 14.453125 10.339844 14 C 10.339844 13.546875 10.707031 13.175781 11.164062 13.175781 L 22.867188 13.175781 L 19.960938 10.222656 C 19.640625 9.898438 19.644531 9.378906 19.964844 9.058594 C 20.289062 8.738281 20.808594 8.738281 21.128906 9.0625 L 25.484375 13.417969 C 25.640625 13.574219 25.726562 13.78125 25.726562 14 C 25.726562 14.21875 25.640625 14.429688 25.484375 14.582031 L 21.128906 18.9375 C 20.96875 19.101562 20.757812 19.179688 20.546875 19.179688 Z M 20.546875 19.179688 "/>
<path style=" stroke:none;fill-rule:nonzero;fill:rgb(0%,0%,0%);fill-opacity:1;" d="M 19.101562 28 L 3.097656 28 C 2.640625 28 2.273438 27.632812 2.273438 27.175781 L 2.273438 0.824219 C 2.273438 0.367188 2.640625 0 3.097656 0 L 19.101562 0 C 19.554688 0 19.921875 0.367188 19.921875 0.824219 L 19.921875 5.644531 C 19.921875 6.101562 19.554688 6.46875 19.101562 6.46875 C 18.644531 6.46875 18.277344 6.101562 18.277344 5.644531 L 18.277344 1.648438 L 3.917969 1.648438 L 3.917969 26.351562 L 18.277344 26.351562 L 18.277344 22.355469 C 18.277344 21.898438 18.644531 21.53125 19.101562 21.53125 C 19.554688 21.53125 19.921875 21.898438 19.921875 22.355469 L 19.921875 27.175781 C 19.925781 27.632812 19.554688 28 19.101562 28 Z M 19.101562 28 "/>
</g>
</svg>
