<?xml version="1.0" encoding="UTF-8"?>
<svg xmlns="http://www.w3.org/2000/svg" xmlns:xlink="http://www.w3.org/1999/xlink" width="28pt" height="28pt" viewBox="0 0 28 28" version="1.1">
<g id="surface1">
<path style=" stroke:none;fill-rule:nonzero;fill:rgb(0%,0%,0%);fill-opacity:1;" d="M 21.464844 6.066406 L 20.066406 6.066406 L 20.066406 1.398438 C 20.066406 0.605469 19.460938 0 18.667969 0 C 17.875 0 17.265625 0.605469 17.265625 1.398438 L 17.265625 6.066406 L 10.734375 6.066406 L 10.734375 1.398438 C 10.734375 0.605469 10.125 0 9.332031 0 C 8.539062 0 7.933594 0.605469 7.933594 1.398438 L 7.933594 6.066406 L 6.535156 6.066406 C 6.253906 6.066406 6.066406 6.253906 6.066406 6.535156 L 6.066406 10.078125 C 6.066406 12.414062 6.953125 14.652344 8.539062 16.378906 C 9.941406 17.964844 10.734375 20.019531 10.734375 22.121094 L 10.734375 23.332031 C 10.734375 24.640625 11.761719 25.667969 13.066406 25.667969 L 13.535156 25.667969 L 13.535156 27.535156 C 13.535156 27.8125 13.71875 28 14 28 C 14.28125 28 14.464844 27.8125 14.464844 27.535156 L 14.464844 25.667969 L 14.933594 25.667969 C 16.238281 25.667969 17.265625 24.640625 17.265625 23.332031 L 17.265625 22.167969 C 17.265625 20.019531 18.011719 18.011719 19.460938 16.425781 C 21.046875 14.699219 21.933594 12.414062 21.933594 10.078125 L 21.933594 6.535156 C 21.933594 6.253906 21.746094 6.066406 21.464844 6.066406 Z M 18.199219 1.398438 C 18.199219 1.121094 18.386719 0.933594 18.667969 0.933594 C 18.945312 0.933594 19.132812 1.121094 19.132812 1.398438 L 19.132812 6.066406 L 18.199219 6.066406 Z M 8.867188 1.398438 C 8.867188 1.167969 9.054688 0.933594 9.332031 0.933594 C 9.613281 0.933594 9.800781 1.121094 9.800781 1.398438 L 9.800781 6.066406 L 8.867188 6.066406 Z M 21 10.035156 C 21 12.179688 20.253906 14.1875 18.808594 15.773438 C 17.21875 17.5 16.332031 19.785156 16.332031 22.121094 L 16.332031 23.332031 C 16.332031 24.125 15.726562 24.734375 14.933594 24.734375 L 13.066406 24.734375 C 12.273438 24.734375 11.667969 24.125 11.667969 23.332031 L 11.667969 22.167969 C 11.667969 19.832031 10.78125 17.546875 9.191406 15.820312 C 7.792969 14.234375 7 12.179688 7 10.078125 L 7 7 L 21 7 Z M 21 10.035156 "/>
<path style=" stroke:none;fill-rule:nonzero;fill:rgb(0%,0%,0%);fill-opacity:1;" d="M 15.867188 12.132812 L 13.253906 12.132812 L 15.726562 9.660156 C 15.914062 9.472656 15.914062 9.191406 15.726562 9.007812 C 15.539062 8.820312 15.261719 8.820312 15.074219 9.007812 L 11.808594 12.273438 C 11.667969 12.414062 11.621094 12.601562 11.714844 12.785156 C 11.761719 12.972656 11.945312 13.066406 12.132812 13.066406 L 14.746094 13.066406 L 12.273438 15.539062 C 12.085938 15.726562 12.085938 16.007812 12.273438 16.191406 C 12.367188 16.285156 12.460938 16.332031 12.601562 16.332031 C 12.738281 16.332031 12.832031 16.285156 12.925781 16.191406 L 16.191406 12.925781 C 16.332031 12.785156 16.378906 12.601562 16.285156 12.414062 C 16.238281 12.226562 16.054688 12.132812 15.867188 12.132812 Z M 15.867188 12.132812 "/>
</g>
</svg>
