<?xml version="1.0" encoding="UTF-8"?>
<svg xmlns="http://www.w3.org/2000/svg" xmlns:xlink="http://www.w3.org/1999/xlink" width="28pt" height="28pt" viewBox="0 0 28 28" version="1.1">
<g id="surface1">
<path style=" stroke:none;fill-rule:nonzero;fill:rgb(0%,0%,0%);fill-opacity:1;" d="M 26.527344 13.507812 L 25.0625 13.507812 C 25.089844 13.226562 25.171875 12.949219 25.320312 12.707031 L 26.121094 11.363281 C 26.277344 11.101562 26.28125 10.769531 26.128906 10.503906 C 26.03125 10.324219 25.867188 10.199219 25.683594 10.128906 C 25.675781 10 25.640625 9.871094 25.574219 9.75 L 25.507812 9.664062 C 24.929688 9.050781 23.492188 7.613281 22.597656 7.613281 L 17.394531 7.613281 C 17.160156 6.222656 15.949219 5.15625 14.492188 5.15625 L 13.015625 5.15625 C 11.558594 5.15625 10.351562 6.222656 10.113281 7.613281 L 5.402344 7.613281 C 4.507812 7.613281 3.070312 9.050781 2.492188 9.664062 L 2.425781 9.753906 C 2.359375 9.871094 2.324219 10 2.316406 10.132812 C 2.132812 10.199219 1.972656 10.324219 1.871094 10.503906 C 1.71875 10.769531 1.722656 11.101562 1.878906 11.363281 L 2.679688 12.707031 C 2.828125 12.953125 2.910156 13.226562 2.9375 13.507812 L 1.472656 13.507812 C 0.660156 13.507812 0 14.171875 0 14.984375 C 0 15.796875 0.660156 16.457031 1.472656 16.457031 L 2.949219 16.457031 L 2.949219 19.796875 C 2.949219 19.824219 2.949219 19.847656 2.953125 19.875 C 2.953125 19.882812 2.949219 19.886719 2.949219 19.894531 C 2.949219 19.90625 2.953125 19.917969 2.953125 19.925781 C 3.023438 21.546875 4.351562 22.84375 5.980469 22.84375 L 22.019531 22.84375 C 23.691406 22.84375 25.050781 21.476562 25.050781 19.796875 L 25.050781 16.457031 L 26.527344 16.457031 C 27.339844 16.457031 28 15.796875 28 14.984375 C 28 14.171875 27.339844 13.507812 26.527344 13.507812 Z M 13.015625 6.140625 L 14.492188 6.140625 C 15.40625 6.140625 16.175781 6.765625 16.394531 7.613281 L 11.113281 7.613281 C 11.332031 6.765625 12.105469 6.140625 13.015625 6.140625 Z M 5.402344 8.597656 L 22.597656 8.597656 C 22.871094 8.601562 23.730469 9.261719 24.53125 10.070312 L 3.46875 10.070312 C 4.269531 9.261719 5.128906 8.601562 5.402344 8.597656 Z M 0.984375 14.984375 C 0.984375 14.710938 1.203125 14.492188 1.472656 14.492188 L 2.949219 14.492188 L 2.949219 15.472656 L 1.472656 15.472656 C 1.203125 15.472656 0.984375 15.253906 0.984375 14.984375 Z M 24.070312 19.796875 C 24.070312 20.933594 23.152344 21.859375 22.019531 21.859375 L 5.980469 21.859375 C 5.054688 21.859375 4.277344 21.234375 4.023438 20.386719 L 8.351562 20.386719 C 8.621094 20.386719 8.84375 20.167969 8.84375 19.894531 C 8.84375 19.625 8.621094 19.402344 8.351562 19.402344 L 3.929688 19.402344 L 3.929688 18.421875 L 6.878906 18.421875 C 7.148438 18.421875 7.367188 18.203125 7.367188 17.929688 C 7.367188 17.65625 7.148438 17.4375 6.878906 17.4375 L 3.929688 17.4375 L 3.929688 16.457031 L 5.894531 16.457031 C 6.164062 16.457031 6.386719 16.238281 6.386719 15.964844 C 6.386719 15.691406 6.164062 15.472656 5.894531 15.472656 L 3.929688 15.472656 L 3.929688 13.507812 L 3.917969 13.507812 C 3.890625 13.046875 3.761719 12.597656 3.523438 12.203125 L 2.839844 11.050781 L 25.160156 11.050781 L 24.476562 12.203125 C 24.238281 12.597656 24.109375 13.046875 24.082031 13.507812 L 24.070312 13.507812 Z M 26.527344 15.472656 L 25.050781 15.472656 L 25.050781 14.492188 L 26.527344 14.492188 C 26.796875 14.492188 27.015625 14.710938 27.015625 14.984375 C 27.015625 15.253906 26.796875 15.472656 26.527344 15.472656 Z M 26.527344 15.472656 "/>
</g>
</svg>
