<?xml version="1.0" encoding="UTF-8"?>
<svg xmlns="http://www.w3.org/2000/svg" xmlns:xlink="http://www.w3.org/1999/xlink" width="28pt" height="28pt" viewBox="0 0 28 28" version="1.1">
<g id="surface1">
<path style=" stroke:none;fill-rule:nonzero;fill:rgb(0%,0%,0%);fill-opacity:1;" d="M 14.355469 3.917969 C 8.800781 3.917969 4.296875 8.421875 4.296875 13.976562 C 4.296875 19.53125 8.800781 24.035156 14.355469 24.035156 C 19.910156 24.035156 24.414062 19.53125 24.414062 13.976562 C 24.414062 8.421875 19.910156 3.917969 14.355469 3.917969 Z M 14.246094 20.417969 C 10.757812 20.417969 7.929688 17.59375 7.929688 14.105469 C 7.929688 10.617188 10.757812 7.792969 14.246094 7.792969 C 17.730469 7.792969 20.558594 10.617188 20.558594 14.105469 C 20.558594 17.59375 17.730469 20.417969 14.246094 20.417969 Z M 14.246094 20.417969 "/>
<path style=" stroke:none;fill-rule:nonzero;fill:rgb(0%,0%,0%);fill-opacity:1;" d="M 3.222656 5.703125 L 2.800781 5.703125 L 2.925781 10.125 L 2.421875 10.125 L 2.421875 5.703125 L 2.050781 5.703125 L 2.050781 10.148438 L 1.632812 10.148438 L 1.632812 5.703125 L 1.222656 5.703125 L 1.222656 10.152344 L 0.722656 10.152344 L 0.867188 5.703125 L 0.480469 5.703125 L 0.0117188 9.464844 C 0.0117188 9.464844 0 9.605469 0 9.660156 C 0 10.242188 0.269531 10.757812 0.691406 11.097656 C 2.074219 12.660156 1.128906 14.257812 1.128906 14.636719 C 1.132812 15.054688 1.132812 21.515625 1.132812 21.515625 C 1.132812 21.523438 1.128906 21.527344 1.128906 21.53125 C 1.132812 21.925781 1.449219 22.246094 1.847656 22.246094 C 2.242188 22.246094 2.5625 21.925781 2.5625 21.53125 C 2.5625 21.527344 2.5625 21.523438 2.5625 21.515625 C 2.5625 21.515625 2.5625 15.136719 2.5625 14.652344 C 2.5625 14.210938 1.765625 12.375 3.101562 11.011719 C 3.101562 11.007812 3.101562 11.003906 3.105469 11 C 3.433594 10.691406 3.648438 10.265625 3.679688 9.789062 C 3.683594 9.753906 3.679688 9.667969 3.679688 9.667969 Z M 3.222656 5.703125 "/>
<path style=" stroke:none;fill-rule:nonzero;fill:rgb(0%,0%,0%);fill-opacity:1;" d="M 27.949219 16.371094 C 27.949219 15.945312 27.9375 5.703125 27.9375 5.703125 L 27.703125 5.703125 C 27.703125 5.703125 25.796875 6.777344 25.796875 14.757812 C 27.261719 15.160156 26.644531 16.761719 26.535156 16.964844 C 26.535156 17.371094 26.566406 21.542969 26.566406 21.542969 L 26.570312 21.539062 C 26.570312 21.546875 26.566406 21.550781 26.566406 21.554688 C 26.566406 21.9375 26.878906 22.25 27.257812 22.246094 C 27.640625 22.246094 27.949219 21.9375 27.949219 21.554688 C 27.949219 21.550781 27.949219 21.546875 27.949219 21.542969 L 27.949219 21.539062 C 27.949219 21.539062 27.949219 16.839844 27.949219 16.371094 Z M 27.949219 16.371094 "/>
</g>
</svg>
