<?xml version="1.0" encoding="UTF-8"?>
<svg xmlns="http://www.w3.org/2000/svg" xmlns:xlink="http://www.w3.org/1999/xlink" width="28pt" height="28pt" viewBox="0 0 28 28" version="1.1">
<g id="surface1">
<path style=" stroke:none;fill-rule:nonzero;fill:rgb(0%,0%,0%);fill-opacity:1;" d="M 20.066406 3.265625 L 19.132812 3.265625 C 18.875 3.265625 18.667969 3.476562 18.667969 3.734375 C 18.667969 3.992188 18.875 4.199219 19.132812 4.199219 L 20.066406 4.199219 C 20.324219 4.199219 20.535156 3.992188 20.535156 3.734375 C 20.535156 3.476562 20.324219 3.265625 20.066406 3.265625 Z M 20.066406 3.265625 "/>
<path style=" stroke:none;fill-rule:nonzero;fill:rgb(0%,0%,0%);fill-opacity:1;" d="M 6.535156 10.265625 L 5.132812 10.265625 L 5.132812 16.800781 L 10.734375 16.800781 L 10.734375 10.265625 Z M 8.398438 11.199219 L 8.398438 12.601562 L 7.464844 12.601562 L 7.464844 11.199219 Z M 9.800781 11.199219 L 9.800781 15.867188 L 6.066406 15.867188 L 6.066406 11.199219 L 6.535156 11.199219 L 6.535156 13.535156 L 9.332031 13.535156 L 9.332031 11.199219 Z M 9.800781 11.199219 "/>
<path style=" stroke:none;fill-rule:nonzero;fill:rgb(0%,0%,0%);fill-opacity:1;" d="M 12.132812 9.332031 C 11.875 9.332031 11.667969 9.542969 11.667969 9.800781 L 11.667969 17.265625 C 11.667969 17.523438 11.875 17.734375 12.132812 17.734375 C 12.390625 17.734375 12.601562 17.523438 12.601562 17.265625 L 12.601562 9.800781 C 12.601562 9.542969 12.390625 9.332031 12.132812 9.332031 Z M 12.132812 9.332031 "/>
<path style=" stroke:none;fill-rule:nonzero;fill:rgb(0%,0%,0%);fill-opacity:1;" d="M 15.867188 9.332031 C 15.609375 9.332031 15.398438 9.542969 15.398438 9.800781 L 15.398438 17.265625 C 15.398438 17.523438 15.609375 17.734375 15.867188 17.734375 C 16.125 17.734375 16.332031 17.523438 16.332031 17.265625 L 16.332031 9.800781 C 16.332031 9.542969 16.125 9.332031 15.867188 9.332031 Z M 15.867188 9.332031 "/>
<path style=" stroke:none;fill-rule:nonzero;fill:rgb(0%,0%,0%);fill-opacity:1;" d="M 9.800781 21 C 9.800781 21.257812 10.007812 21.464844 10.265625 21.464844 L 17.734375 21.464844 C 17.992188 21.464844 18.199219 21.257812 18.199219 21 C 18.199219 20.742188 17.992188 20.535156 17.734375 20.535156 L 10.265625 20.535156 C 10.007812 20.535156 9.800781 20.742188 9.800781 21 Z M 9.800781 21 "/>
<path style=" stroke:none;fill-rule:nonzero;fill:rgb(0%,0%,0%);fill-opacity:1;" d="M 24.1875 0 L 3.8125 0 C 3.253906 0 2.800781 0.453125 2.800781 1.011719 L 2.800781 26.632812 C 2.800781 27.386719 3.414062 28 4.167969 28 L 23.832031 28 C 24.585938 28 25.199219 27.386719 25.199219 26.632812 L 25.199219 1.011719 C 25.199219 0.453125 24.746094 0 24.1875 0 Z M 3.734375 1.011719 C 3.734375 0.96875 3.769531 0.933594 3.8125 0.933594 L 13.535156 0.933594 L 13.535156 18.667969 L 3.734375 18.667969 Z M 24.265625 26.632812 C 24.265625 26.871094 24.070312 27.066406 23.832031 27.066406 L 4.167969 27.066406 C 3.929688 27.066406 3.734375 26.871094 3.734375 26.632812 L 3.734375 19.601562 L 24.265625 19.601562 Z M 14.464844 18.667969 L 14.464844 0.933594 L 24.1875 0.933594 C 24.230469 0.933594 24.265625 0.96875 24.265625 1.011719 L 24.265625 18.667969 Z M 14.464844 18.667969 "/>
</g>
</svg>
