<?xml version="1.0" encoding="UTF-8"?>
<svg xmlns="http://www.w3.org/2000/svg" xmlns:xlink="http://www.w3.org/1999/xlink" width="28pt" height="28pt" viewBox="0 0 28 28" version="1.1">
<g id="surface1">
<path style=" stroke:none;fill-rule:nonzero;fill:rgb(0%,0%,0%);fill-opacity:1;" d="M 22.203125 0 L 5.796875 0 C 5.34375 0 4.976562 0.367188 4.976562 0.820312 L 4.976562 27.179688 C 4.976562 27.632812 5.34375 28 5.796875 28 L 22.203125 28 C 22.65625 28 23.023438 27.632812 23.023438 27.179688 L 23.023438 0.820312 C 23.023438 0.367188 22.65625 0 22.203125 0 Z M 21.382812 26.359375 L 6.617188 26.359375 L 6.617188 12.03125 L 21.382812 12.03125 Z M 21.382812 10.390625 L 6.617188 10.390625 L 6.617188 1.640625 L 21.382812 1.640625 Z M 21.382812 10.390625 "/>
<path style=" stroke:none;fill-rule:nonzero;fill:rgb(0%,0%,0%);fill-opacity:1;" d="M 9.132812 3.007812 C 8.679688 3.007812 8.3125 3.375 8.3125 3.828125 L 8.3125 8.203125 C 8.3125 8.65625 8.679688 9.023438 9.132812 9.023438 C 9.585938 9.023438 9.953125 8.65625 9.953125 8.203125 L 9.953125 3.828125 C 9.953125 3.375 9.585938 3.007812 9.132812 3.007812 Z M 9.132812 3.007812 "/>
<path style=" stroke:none;fill-rule:nonzero;fill:rgb(0%,0%,0%);fill-opacity:1;" d="M 9.132812 13.398438 C 8.679688 13.398438 8.3125 13.765625 8.3125 14.21875 L 8.3125 18.59375 C 8.3125 19.046875 8.679688 19.414062 9.132812 19.414062 C 9.585938 19.414062 9.953125 19.046875 9.953125 18.59375 L 9.953125 14.21875 C 9.953125 13.765625 9.585938 13.398438 9.132812 13.398438 Z M 9.132812 13.398438 "/>
</g>
</svg>
