<?xml version="1.0" encoding="UTF-8"?>
<svg xmlns="http://www.w3.org/2000/svg" xmlns:xlink="http://www.w3.org/1999/xlink" width="28pt" height="28pt" viewBox="0 0 28 28" version="1.1">
<g id="surface1">
<path style=" stroke:none;fill-rule:nonzero;fill:rgb(0%,0%,0%);fill-opacity:1;" d="M 27.894531 1.191406 C 27.800781 1.070312 27.652344 1 27.5 1 L 0.5 1 C 0.347656 1 0.199219 1.070312 0.105469 1.191406 C 0.0117188 1.3125 -0.0234375 1.472656 0.015625 1.621094 L 1.015625 5.621094 C 1.070312 5.84375 1.269531 6 1.5 6 L 2.5 6 L 2.5 26 L 1.5 26 L 1.5 27 L 26.519531 27 L 26.519531 26 L 25.5 26 L 25.5 6 L 26.5 6 C 26.730469 6 26.929688 5.84375 26.984375 5.621094 L 27.984375 1.621094 C 28.023438 1.472656 27.988281 1.3125 27.894531 1.191406 Z M 5.5 26 L 5.5 20.5 L 13.5 20.5 L 13.5 21.570312 C 12.640625 21.792969 12 22.570312 12 23.5 C 12 24.601562 12.898438 25.5 14 25.5 C 15.101562 25.5 16 24.601562 16 23.5 C 16 22.570312 15.359375 21.792969 14.5 21.570312 L 14.5 20.5 L 22.5 20.5 L 22.5 26 Z M 22.5 11.5 L 5.5 11.5 L 5.5 9.5 L 22.5 9.5 Z M 22.5 12.5 L 22.5 14 L 5.5 14 L 5.5 12.5 Z M 22.5 15 L 22.5 16.5 L 5.5 16.5 L 5.5 15 Z M 22.5 17.5 L 22.5 19.5 L 5.5 19.5 L 5.5 17.5 Z M 14 22.5 C 14.550781 22.5 15 22.949219 15 23.5 C 15 24.050781 14.550781 24.5 14 24.5 C 13.449219 24.5 13 24.050781 13 23.5 C 13 22.949219 13.449219 22.5 14 22.5 Z M 24.5 26 L 23.5 26 L 23.5 9 C 23.5 8.722656 23.277344 8.5 23 8.5 L 5 8.5 C 4.722656 8.5 4.5 8.722656 4.5 9 L 4.5 26 L 3.5 26 L 3.5 6 L 24.5 6 Z M 26.109375 5 L 1.890625 5 L 1.140625 2 L 26.859375 2 Z M 26.109375 5 "/>
</g>
</svg>
