<?xml version="1.0" encoding="UTF-8"?>
<svg xmlns="http://www.w3.org/2000/svg" xmlns:xlink="http://www.w3.org/1999/xlink" width="28pt" height="28pt" viewBox="0 0 28 28" version="1.1">
<g id="surface1">
<path style=" stroke:none;fill-rule:nonzero;fill:rgb(0.392157%,0%,0.784314%);fill-opacity:1;" d="M 23.894531 16.558594 C 19.871094 21.386719 15.695312 18.644531 14.335938 17.523438 C 15.390625 16.375 15.867188 15.75 17.691406 14.246094 C 19.578125 15.015625 22.949219 13.554688 22.949219 13.554688 C 20.679688 14.148438 18.949219 13.8125 18.332031 13.648438 C 18.460938 13.546875 20.699219 11.925781 21.378906 10.988281 C 23.253906 11.046875 24.800781 9.4375 24.800781 9.4375 C 24.746094 9.394531 23.800781 10.121094 22.007812 10.207031 C 23.863281 7.480469 23.78125 4.972656 23.78125 4.972656 C 23.78125 4.972656 23.09375 7.261719 21.351562 9.773438 C 20.996094 7.992188 21.449219 6.777344 21.398438 6.738281 C 21.398438 6.738281 20.183594 8.738281 20.742188 10.578125 C 19.789062 11.667969 18.285156 12.609375 17.734375 13.03125 C 17.691406 12.917969 17.113281 11.015625 17.675781 8.207031 C 17.675781 8.207031 16.148438 11.738281 17.101562 13.570312 C 15.933594 14.46875 15.621094 14.691406 13.664062 16.875 C 9.238281 13.5625 13.039062 7.636719 16.355469 6.253906 C 19.765625 4.832031 21.1875 5.117188 24.3125 0 C 27.734375 5.070312 27.175781 12.621094 23.894531 16.558594 Z M 4.996094 16.042969 C 7.011719 16.964844 8.40625 18.214844 9.367188 19.410156 C 9.378906 19.375 9.394531 19.347656 9.40625 19.304688 C 11.230469 12.746094 1.207031 13.65625 1.207031 13.65625 C 1.207031 13.65625 2.589844 15.789062 3.363281 18.109375 C 4.253906 20.804688 7.902344 23.042969 9.214844 19.84375 C 8.269531 18.570312 6.914062 17.175781 4.996094 16.042969 Z M 14.339844 17.519531 C 14.324219 17.507812 13.644531 16.894531 13.65625 16.882812 C 11.9375 18.777344 11.265625 20.394531 11.101562 22.453125 C 10.84375 21.742188 10.324219 20.609375 9.367188 19.410156 C 9.320312 19.566406 9.269531 19.710938 9.210938 19.84375 C 10.230469 21.214844 10.625 23.085938 10.855469 23.699219 C 10.855469 25.410156 11.042969 26.265625 11.195312 27.691406 C 11.195312 27.691406 12.113281 28.234375 12.371094 27.21875 C 11.855469 26.363281 11.34375 20.449219 14.339844 17.519531 Z M 14.339844 17.519531 "/>
</g>
</svg>
