<?xml version="1.0" encoding="UTF-8"?>
<svg xmlns="http://www.w3.org/2000/svg" xmlns:xlink="http://www.w3.org/1999/xlink" width="28pt" height="28pt" viewBox="0 0 28 28" version="1.1">
<g id="surface1">
<path style=" stroke:none;fill-rule:nonzero;fill:rgb(0%,0%,0%);fill-opacity:1;" d="M 2.800781 23.332031 L 2.800781 22.867188 L 12.601562 22.867188 C 12.859375 22.867188 13.066406 22.65625 13.066406 22.398438 L 13.066406 5.601562 C 13.066406 5.34375 12.859375 5.132812 12.601562 5.132812 L 2.800781 5.132812 L 2.800781 4.667969 C 2.800781 4.410156 2.589844 4.199219 2.332031 4.199219 L 0.464844 4.199219 C 0.207031 4.199219 0 4.410156 0 4.667969 L 0 23.332031 C 0 23.589844 0.207031 23.800781 0.464844 23.800781 L 2.332031 23.800781 C 2.589844 23.800781 2.800781 23.589844 2.800781 23.332031 Z M 12.132812 6.066406 L 12.132812 21.933594 L 2.800781 21.933594 L 2.800781 6.066406 Z M 1.867188 22.867188 L 0.933594 22.867188 L 0.933594 5.132812 L 1.867188 5.132812 Z M 1.867188 22.867188 "/>
<path style=" stroke:none;fill-rule:nonzero;fill:rgb(0%,0%,0%);fill-opacity:1;" d="M 27.535156 4.199219 L 25.667969 4.199219 C 25.410156 4.199219 25.199219 4.410156 25.199219 4.667969 L 25.199219 5.132812 L 15.398438 5.132812 C 15.140625 5.132812 14.933594 5.34375 14.933594 5.601562 L 14.933594 22.398438 C 14.933594 22.65625 15.140625 22.867188 15.398438 22.867188 L 25.199219 22.867188 L 25.199219 23.332031 C 25.199219 23.589844 25.410156 23.800781 25.667969 23.800781 L 27.535156 23.800781 C 27.792969 23.800781 28 23.589844 28 23.332031 L 28 4.667969 C 28 4.410156 27.792969 4.199219 27.535156 4.199219 Z M 15.867188 21.933594 L 15.867188 6.066406 L 25.199219 6.066406 L 25.199219 21.933594 Z M 27.066406 22.867188 L 26.132812 22.867188 L 26.132812 5.132812 L 27.066406 5.132812 Z M 27.066406 22.867188 "/>
<path style=" stroke:none;fill-rule:nonzero;fill:rgb(0%,0%,0%);fill-opacity:1;" d="M 4.199219 9.800781 L 10.734375 9.800781 C 10.992188 9.800781 11.199219 9.589844 11.199219 9.332031 L 11.199219 7.464844 C 11.199219 7.207031 10.992188 7 10.734375 7 L 4.199219 7 C 3.941406 7 3.734375 7.207031 3.734375 7.464844 L 3.734375 9.332031 C 3.734375 9.589844 3.941406 9.800781 4.199219 9.800781 Z M 4.667969 7.933594 L 10.265625 7.933594 L 10.265625 8.867188 L 4.667969 8.867188 Z M 4.667969 7.933594 "/>
<path style=" stroke:none;fill-rule:nonzero;fill:rgb(0%,0%,0%);fill-opacity:1;" d="M 4.199219 13.535156 L 10.734375 13.535156 C 10.992188 13.535156 11.199219 13.324219 11.199219 13.066406 L 11.199219 11.199219 C 11.199219 10.941406 10.992188 10.734375 10.734375 10.734375 L 4.199219 10.734375 C 3.941406 10.734375 3.734375 10.941406 3.734375 11.199219 L 3.734375 13.066406 C 3.734375 13.324219 3.941406 13.535156 4.199219 13.535156 Z M 4.667969 11.667969 L 10.265625 11.667969 L 10.265625 12.601562 L 4.667969 12.601562 Z M 4.667969 11.667969 "/>
<path style=" stroke:none;fill-rule:nonzero;fill:rgb(0%,0%,0%);fill-opacity:1;" d="M 4.199219 17.265625 L 10.734375 17.265625 C 10.992188 17.265625 11.199219 17.058594 11.199219 16.800781 L 11.199219 14.933594 C 11.199219 14.675781 10.992188 14.464844 10.734375 14.464844 L 4.199219 14.464844 C 3.941406 14.464844 3.734375 14.675781 3.734375 14.933594 L 3.734375 16.800781 C 3.734375 17.058594 3.941406 17.265625 4.199219 17.265625 Z M 4.667969 15.398438 L 10.265625 15.398438 L 10.265625 16.332031 L 4.667969 16.332031 Z M 4.667969 15.398438 "/>
<path style=" stroke:none;fill-rule:nonzero;fill:rgb(0%,0%,0%);fill-opacity:1;" d="M 4.199219 21 L 10.734375 21 C 10.992188 21 11.199219 20.792969 11.199219 20.535156 L 11.199219 18.667969 C 11.199219 18.410156 10.992188 18.199219 10.734375 18.199219 L 4.199219 18.199219 C 3.941406 18.199219 3.734375 18.410156 3.734375 18.667969 L 3.734375 20.535156 C 3.734375 20.792969 3.941406 21 4.199219 21 Z M 4.667969 19.132812 L 10.265625 19.132812 L 10.265625 20.066406 L 4.667969 20.066406 Z M 4.667969 19.132812 "/>
<path style=" stroke:none;fill-rule:nonzero;fill:rgb(0%,0%,0%);fill-opacity:1;" d="M 23.800781 7 L 17.265625 7 C 17.007812 7 16.800781 7.207031 16.800781 7.464844 L 16.800781 9.332031 C 16.800781 9.589844 17.007812 9.800781 17.265625 9.800781 L 23.800781 9.800781 C 24.058594 9.800781 24.265625 9.589844 24.265625 9.332031 L 24.265625 7.464844 C 24.265625 7.207031 24.058594 7 23.800781 7 Z M 23.332031 8.867188 L 17.734375 8.867188 L 17.734375 7.933594 L 23.332031 7.933594 Z M 23.332031 8.867188 "/>
<path style=" stroke:none;fill-rule:nonzero;fill:rgb(0%,0%,0%);fill-opacity:1;" d="M 23.800781 10.734375 L 17.265625 10.734375 C 17.007812 10.734375 16.800781 10.941406 16.800781 11.199219 L 16.800781 13.066406 C 16.800781 13.324219 17.007812 13.535156 17.265625 13.535156 L 23.800781 13.535156 C 24.058594 13.535156 24.265625 13.324219 24.265625 13.066406 L 24.265625 11.199219 C 24.265625 10.941406 24.058594 10.734375 23.800781 10.734375 Z M 23.332031 12.601562 L 17.734375 12.601562 L 17.734375 11.667969 L 23.332031 11.667969 Z M 23.332031 12.601562 "/>
<path style=" stroke:none;fill-rule:nonzero;fill:rgb(0%,0%,0%);fill-opacity:1;" d="M 23.800781 14.464844 L 17.265625 14.464844 C 17.007812 14.464844 16.800781 14.675781 16.800781 14.933594 L 16.800781 16.800781 C 16.800781 17.058594 17.007812 17.265625 17.265625 17.265625 L 23.800781 17.265625 C 24.058594 17.265625 24.265625 17.058594 24.265625 16.800781 L 24.265625 14.933594 C 24.265625 14.675781 24.058594 14.464844 23.800781 14.464844 Z M 23.332031 16.332031 L 17.734375 16.332031 L 17.734375 15.398438 L 23.332031 15.398438 Z M 23.332031 16.332031 "/>
<path style=" stroke:none;fill-rule:nonzero;fill:rgb(0%,0%,0%);fill-opacity:1;" d="M 23.800781 18.199219 L 17.265625 18.199219 C 17.007812 18.199219 16.800781 18.410156 16.800781 18.667969 L 16.800781 20.535156 C 16.800781 20.792969 17.007812 21 17.265625 21 L 23.800781 21 C 24.058594 21 24.265625 20.792969 24.265625 20.535156 L 24.265625 18.667969 C 24.265625 18.410156 24.058594 18.199219 23.800781 18.199219 Z M 23.332031 20.066406 L 17.734375 20.066406 L 17.734375 19.132812 L 23.332031 19.132812 Z M 23.332031 20.066406 "/>
</g>
</svg>
