<?xml version="1.0" encoding="UTF-8"?>
<svg xmlns="http://www.w3.org/2000/svg" xmlns:xlink="http://www.w3.org/1999/xlink" width="28pt" height="28pt" viewBox="0 0 28 28" version="1.1">
<g id="surface1">
<path style=" stroke:none;fill-rule:nonzero;fill:rgb(0%,0%,0%);fill-opacity:1;" d="M 26.554688 5.882812 C 27.402344 5.539062 28 4.710938 28 3.746094 C 28 2.472656 26.964844 1.441406 25.691406 1.441406 C 24.417969 1.441406 23.382812 2.472656 23.382812 3.746094 C 23.382812 4.710938 23.980469 5.539062 24.824219 5.882812 C 24.046875 6.21875 23.5 6.992188 23.5 7.890625 L 23.5 9.046875 C 22.609375 7.890625 21.515625 6.902344 20.257812 6.136719 C 20.105469 6.042969 19.949219 5.953125 19.792969 5.867188 L 19.792969 4.441406 C 19.792969 3.988281 19.425781 3.621094 18.972656 3.621094 C 18.519531 3.621094 18.152344 3.988281 18.152344 4.441406 L 18.152344 5.121094 C 17.085938 4.726562 15.960938 4.484375 14.820312 4.40625 L 14.820312 3.347656 C 14.820312 2.894531 14.453125 2.527344 14 2.527344 C 13.546875 2.527344 13.179688 2.894531 13.179688 3.347656 L 13.179688 4.40625 C 12.039062 4.484375 10.914062 4.726562 9.847656 5.121094 L 9.847656 4.441406 C 9.847656 3.988281 9.480469 3.621094 9.027344 3.621094 C 8.574219 3.621094 8.207031 3.988281 8.207031 4.441406 L 8.207031 5.867188 C 8.050781 5.953125 7.894531 6.042969 7.742188 6.136719 C 6.484375 6.902344 5.390625 7.890625 4.5 9.046875 L 4.5 7.890625 C 4.5 6.992188 3.953125 6.21875 3.171875 5.882812 C 4.019531 5.539062 4.617188 4.710938 4.617188 3.746094 C 4.617188 2.472656 3.582031 1.441406 2.308594 1.441406 C 1.035156 1.441406 0 2.472656 0 3.746094 C 0 4.710938 0.597656 5.539062 1.445312 5.882812 C 0.664062 6.21875 0.117188 6.992188 0.117188 7.890625 L 0.117188 25.738281 C 0.117188 26.191406 0.484375 26.558594 0.9375 26.558594 L 3.679688 26.558594 C 4.132812 26.558594 4.5 26.191406 4.5 25.738281 L 4.5 24.09375 L 23.5 24.09375 L 23.5 25.738281 C 23.5 26.191406 23.867188 26.558594 24.320312 26.558594 L 27.0625 26.558594 C 27.515625 26.558594 27.882812 26.191406 27.882812 25.738281 L 27.882812 7.890625 C 27.882812 6.992188 27.335938 6.21875 26.554688 5.882812 Z M 14.820312 22.453125 L 14.820312 16.921875 L 18.152344 16.921875 L 18.152344 22.453125 Z M 9.847656 22.453125 L 9.847656 16.921875 L 13.179688 16.921875 L 13.179688 22.453125 Z M 4.5 16.921875 L 8.207031 16.921875 L 8.207031 22.453125 L 4.5 22.453125 Z M 19.792969 16.921875 L 23.5 16.921875 L 23.5 22.453125 L 19.792969 22.453125 Z M 23.21875 11.644531 L 23.5 12.195312 L 23.5 15.28125 L 19.792969 15.28125 L 19.792969 7.78125 C 21.214844 8.738281 22.402344 10.050781 23.21875 11.644531 Z M 18.152344 6.878906 L 18.152344 15.28125 L 14.820312 15.28125 L 14.820312 6.050781 C 15.988281 6.144531 17.113281 6.425781 18.152344 6.878906 Z M 13.179688 6.050781 L 13.179688 15.28125 L 9.847656 15.28125 L 9.847656 6.878906 C 10.886719 6.425781 12.011719 6.144531 13.179688 6.050781 Z M 4.78125 11.644531 C 5.597656 10.050781 6.785156 8.738281 8.207031 7.78125 L 8.207031 15.28125 L 4.5 15.28125 L 4.5 12.195312 Z M 4.78125 11.644531 "/>
</g>
</svg>
