<?xml version="1.0" encoding="UTF-8"?>
<svg xmlns="http://www.w3.org/2000/svg" xmlns:xlink="http://www.w3.org/1999/xlink" width="28pt" height="28pt" viewBox="0 0 28 28" version="1.1">
<g id="surface1">
<path style=" stroke:none;fill-rule:nonzero;fill:rgb(0%,0%,0%);fill-opacity:1;" d="M 28 15.433594 C 28 7.714844 21.71875 1.433594 14 1.433594 C 6.28125 1.433594 0 7.714844 0 15.433594 C 0 16.765625 0.1875 18.082031 0.554688 19.347656 C -0.195312 21.242188 0.195312 23.492188 1.726562 25.023438 C 2.722656 26.019531 4.046875 26.566406 5.457031 26.566406 C 6.765625 26.566406 8 26.09375 8.96875 25.226562 C 9.089844 25.257812 9.21875 25.277344 9.347656 25.277344 C 9.75 25.277344 10.128906 25.121094 10.414062 24.835938 L 11.203125 24.042969 C 11.792969 23.457031 11.792969 22.5 11.203125 21.910156 L 4.839844 15.546875 C 4.554688 15.261719 4.175781 15.101562 3.773438 15.101562 C 3.367188 15.101562 2.988281 15.261719 2.707031 15.546875 L 1.914062 16.335938 C 1.628906 16.621094 1.472656 17 1.472656 17.402344 C 1.472656 17.53125 1.492188 17.660156 1.523438 17.78125 C 1.4375 17.875 1.359375 17.96875 1.285156 18.066406 C 1.105469 17.203125 1.015625 16.324219 1.015625 15.433594 C 1.015625 11.355469 2.910156 7.710938 5.859375 5.328125 L 6.039062 5.613281 C 6.359375 6.109375 6.910156 6.386719 7.46875 6.386719 C 7.769531 6.386719 8.070312 6.308594 8.34375 6.140625 C 10.042969 5.101562 12 4.550781 14 4.550781 C 16 4.550781 17.957031 5.101562 19.660156 6.140625 C 20.4375 6.617188 21.46875 6.378906 21.960938 5.609375 L 22.140625 5.328125 C 25.089844 7.710938 26.984375 11.355469 26.984375 15.433594 C 26.984375 16.320312 26.894531 17.203125 26.714844 18.066406 C 26.640625 17.96875 26.5625 17.875 26.476562 17.78125 C 26.507812 17.660156 26.527344 17.53125 26.527344 17.402344 C 26.527344 17 26.371094 16.621094 26.085938 16.335938 L 25.296875 15.546875 C 24.707031 14.957031 23.75 14.957031 23.160156 15.546875 L 16.796875 21.910156 C 16.207031 22.5 16.207031 23.457031 16.796875 24.042969 L 17.585938 24.835938 C 17.871094 25.121094 18.25 25.277344 18.652344 25.277344 C 18.78125 25.277344 18.910156 25.257812 19.03125 25.226562 C 20 26.09375 21.234375 26.566406 22.542969 26.566406 C 23.953125 26.566406 25.277344 26.019531 26.273438 25.023438 C 27.269531 24.027344 27.816406 22.703125 27.816406 21.292969 C 27.816406 20.613281 27.6875 19.953125 27.445312 19.34375 C 27.8125 18.078125 28 16.761719 28 15.433594 Z M 2.445312 24.304688 C 0.910156 22.765625 0.796875 20.332031 2.109375 18.664062 L 8.085938 24.640625 C 7.339844 25.230469 6.421875 25.550781 5.457031 25.550781 C 4.320312 25.550781 3.25 25.105469 2.445312 24.304688 Z M 2.632812 17.054688 L 3.425781 16.265625 C 3.515625 16.171875 3.640625 16.121094 3.773438 16.121094 C 3.902344 16.121094 4.027344 16.171875 4.121094 16.265625 L 10.484375 22.628906 C 10.675781 22.820312 10.675781 23.132812 10.484375 23.324219 L 9.695312 24.117188 C 9.601562 24.207031 9.480469 24.257812 9.347656 24.257812 C 9.214844 24.257812 9.09375 24.207031 9 24.117188 L 2.632812 17.75 C 2.542969 17.65625 2.492188 17.535156 2.492188 17.402344 C 2.492188 17.269531 2.542969 17.148438 2.632812 17.054688 Z M 21.101562 5.0625 C 20.90625 5.367188 20.496094 5.460938 20.1875 5.273438 C 18.328125 4.132812 16.1875 3.53125 14 3.53125 C 11.8125 3.53125 9.671875 4.132812 7.8125 5.273438 C 7.503906 5.460938 7.09375 5.367188 6.898438 5.0625 L 6.675781 4.71875 C 8.761719 3.289062 11.285156 2.449219 14 2.449219 C 16.714844 2.449219 19.238281 3.289062 21.324219 4.71875 Z M 18.304688 24.117188 L 17.515625 23.324219 C 17.324219 23.132812 17.324219 22.820312 17.515625 22.628906 L 23.878906 16.265625 C 23.976562 16.167969 24.101562 16.121094 24.226562 16.121094 C 24.355469 16.121094 24.480469 16.167969 24.574219 16.265625 L 25.367188 17.054688 C 25.457031 17.148438 25.511719 17.269531 25.511719 17.402344 C 25.511719 17.535156 25.457031 17.65625 25.367188 17.75 L 19 24.117188 C 18.90625 24.207031 18.785156 24.257812 18.652344 24.257812 C 18.523438 24.257812 18.398438 24.207031 18.304688 24.117188 Z M 25.554688 24.304688 C 24.75 25.105469 23.679688 25.550781 22.542969 25.550781 C 21.578125 25.550781 20.660156 25.230469 19.914062 24.640625 L 25.890625 18.664062 C 26.480469 19.410156 26.800781 20.328125 26.800781 21.292969 C 26.800781 22.429688 26.359375 23.5 25.554688 24.304688 Z M 25.554688 24.304688 "/>
</g>
</svg>
