<?xml version="1.0" encoding="UTF-8"?>
<svg xmlns="http://www.w3.org/2000/svg" xmlns:xlink="http://www.w3.org/1999/xlink" width="28pt" height="28pt" viewBox="0 0 28 28" version="1.1">
<g id="surface1">
<path style=" stroke:none;fill-rule:nonzero;fill:rgb(0%,0%,0%);fill-opacity:1;" d="M 23.917969 27.417969 L 16.917969 27.417969 C 16.59375 27.417969 16.332031 27.15625 16.332031 26.832031 L 16.332031 19.25 L 11.667969 19.25 L 11.667969 26.832031 C 11.667969 27.15625 11.40625 27.417969 11.082031 27.417969 L 4.082031 27.417969 C 3.761719 27.417969 3.5 27.15625 3.5 26.832031 L 3.5 15.167969 C 3.5 14.84375 3.761719 14.582031 4.082031 14.582031 C 4.40625 14.582031 4.667969 14.84375 4.667969 15.167969 L 4.667969 26.25 L 10.5 26.25 L 10.5 18.667969 C 10.5 18.34375 10.761719 18.082031 11.082031 18.082031 L 16.917969 18.082031 C 17.238281 18.082031 17.5 18.34375 17.5 18.667969 L 17.5 26.25 L 23.332031 26.25 L 23.332031 15.75 C 23.332031 15.425781 23.59375 15.167969 23.917969 15.167969 C 24.238281 15.167969 24.5 15.425781 24.5 15.75 L 24.5 26.832031 C 24.5 27.15625 24.238281 27.417969 23.917969 27.417969 Z M 27.417969 15.167969 C 27.265625 15.167969 27.117188 15.109375 27.003906 14.996094 L 14 1.992188 L 0.996094 14.996094 C 0.769531 15.222656 0.398438 15.222656 0.171875 14.996094 C -0.0585938 14.769531 -0.0585938 14.398438 0.171875 14.171875 L 13.585938 0.753906 C 13.816406 0.527344 14.183594 0.527344 14.414062 0.753906 L 27.828125 14.171875 C 28.058594 14.398438 28.058594 14.769531 27.828125 14.996094 C 27.714844 15.109375 27.566406 15.167969 27.417969 15.167969 Z M 22.75 7 C 22.425781 7 22.167969 6.738281 22.167969 6.417969 L 22.167969 2.917969 L 18.667969 2.917969 C 18.34375 2.917969 18.082031 2.65625 18.082031 2.332031 C 18.082031 2.011719 18.34375 1.75 18.667969 1.75 L 22.75 1.75 C 23.074219 1.75 23.332031 2.011719 23.332031 2.332031 L 23.332031 6.417969 C 23.332031 6.738281 23.074219 7 22.75 7 Z M 22.75 7 "/>
</g>
</svg>
