<?xml version="1.0" encoding="UTF-8"?>
<svg xmlns="http://www.w3.org/2000/svg" xmlns:xlink="http://www.w3.org/1999/xlink" width="28pt" height="28pt" viewBox="0 0 28 28" version="1.1">
<g id="surface1">
<path style=" stroke:none;fill-rule:nonzero;fill:rgb(0%,0%,0%);fill-opacity:1;" d="M 6.535156 16.886719 L 13.066406 16.886719 L 13.066406 12.21875 L 6.535156 12.21875 Z M 7.464844 15.953125 L 7.464844 14.550781 L 12.132812 14.550781 L 12.132812 15.953125 Z M 12.132812 13.152344 L 12.132812 13.617188 L 7.464844 13.617188 L 7.464844 13.152344 Z M 12.132812 13.152344 "/>
<path style=" stroke:none;fill-rule:nonzero;fill:rgb(0%,0%,0%);fill-opacity:1;" d="M 6.535156 18.75 L 6.535156 24.351562 L 13.066406 24.351562 L 13.066406 18.75 Z M 9.332031 19.683594 L 9.332031 21.085938 L 7.464844 21.085938 L 7.464844 19.683594 Z M 7.464844 22.019531 L 9.332031 22.019531 L 9.332031 23.417969 L 7.464844 23.417969 Z M 10.265625 23.417969 L 10.265625 22.019531 L 12.132812 22.019531 L 12.132812 23.417969 Z M 12.132812 21.085938 L 10.265625 21.085938 L 10.265625 19.683594 L 12.132812 19.683594 Z M 12.132812 21.085938 "/>
<path style=" stroke:none;fill-rule:nonzero;fill:rgb(0%,0%,0%);fill-opacity:1;" d="M 14.933594 16.886719 L 21.464844 16.886719 L 21.464844 12.21875 L 14.933594 12.21875 Z M 15.867188 15.953125 L 15.867188 15.484375 L 20.535156 15.484375 L 20.535156 15.953125 Z M 20.535156 13.152344 L 20.535156 14.550781 L 15.867188 14.550781 L 15.867188 13.152344 Z M 20.535156 13.152344 "/>
<path style=" stroke:none;fill-rule:nonzero;fill:rgb(0%,0%,0%);fill-opacity:1;" d="M 27.535156 22.484375 C 27.273438 22.484375 27.066406 22.695312 27.066406 22.953125 L 27.066406 23.417969 L 26.601562 23.417969 L 26.601562 22.953125 C 26.601562 22.695312 26.390625 22.484375 26.132812 22.484375 C 25.875 22.484375 25.667969 22.695312 25.667969 22.953125 L 25.667969 23.417969 L 25.199219 23.417969 L 25.199219 13.988281 C 25.441406 14.097656 25.699219 14.160156 25.957031 14.160156 C 26.460938 14.160156 26.957031 13.957031 27.324219 13.558594 C 27.679688 13.179688 27.859375 12.660156 27.816406 12.140625 C 27.777344 11.625 27.515625 11.140625 27.109375 10.820312 L 15.269531 1.5625 L 14 0.382812 L 12.761719 1.535156 L 0.894531 10.820312 C 0.484375 11.140625 0.222656 11.625 0.183594 12.140625 C 0.140625 12.660156 0.320312 13.179688 0.675781 13.558594 C 1.234375 14.160156 2.085938 14.3125 2.800781 13.988281 L 2.800781 23.417969 L 2.332031 23.417969 L 2.332031 22.953125 C 2.332031 22.695312 2.125 22.484375 1.867188 22.484375 C 1.609375 22.484375 1.398438 22.695312 1.398438 22.953125 L 1.398438 23.417969 L 0.933594 23.417969 L 0.933594 22.953125 C 0.933594 22.695312 0.726562 22.484375 0.464844 22.484375 C 0.207031 22.484375 0 22.695312 0 22.953125 L 0 27.152344 C 0 27.410156 0.207031 27.617188 0.464844 27.617188 C 0.726562 27.617188 0.933594 27.410156 0.933594 27.152344 L 0.933594 26.683594 L 1.398438 26.683594 L 1.398438 27.152344 C 1.398438 27.410156 1.609375 27.617188 1.867188 27.617188 C 2.125 27.617188 2.332031 27.410156 2.332031 27.152344 L 2.332031 26.683594 L 2.800781 26.683594 L 2.800781 27.617188 L 25.199219 27.617188 L 25.199219 26.683594 L 25.667969 26.683594 L 25.667969 27.152344 C 25.667969 27.410156 25.875 27.617188 26.132812 27.617188 C 26.390625 27.617188 26.601562 27.410156 26.601562 27.152344 L 26.601562 26.683594 L 27.066406 26.683594 L 27.066406 27.152344 C 27.066406 27.410156 27.273438 27.617188 27.535156 27.617188 C 27.792969 27.617188 28 27.410156 28 27.152344 L 28 22.953125 C 28 22.695312 27.792969 22.484375 27.535156 22.484375 Z M 1.359375 12.925781 C 1.179688 12.730469 1.09375 12.480469 1.113281 12.214844 C 1.132812 11.953125 1.257812 11.71875 1.46875 11.554688 L 13.367188 2.246094 L 14 1.65625 L 14.664062 2.269531 L 26.53125 11.554688 C 26.742188 11.71875 26.867188 11.953125 26.886719 12.214844 C 26.910156 12.480469 26.820312 12.730469 26.640625 12.925781 C 26.3125 13.28125 25.773438 13.324219 25.386719 13.027344 L 25.199219 12.882812 L 14 4.25 L 2.980469 12.742188 L 2.980469 12.746094 L 2.613281 13.027344 C 2.226562 13.324219 1.6875 13.28125 1.359375 12.925781 Z M 0.933594 25.75 L 0.933594 24.351562 L 1.398438 24.351562 L 1.398438 25.75 Z M 2.332031 25.75 L 2.332031 24.351562 L 2.800781 24.351562 L 2.800781 25.75 Z M 15.867188 26.683594 L 15.867188 19.683594 L 20.535156 19.683594 L 20.535156 26.683594 Z M 24.265625 26.683594 L 21.464844 26.683594 L 21.464844 18.75 L 14.933594 18.75 L 14.933594 26.683594 L 3.734375 26.683594 L 3.734375 13.34375 L 14 5.429688 L 24.265625 13.34375 Z M 25.199219 25.75 L 25.199219 24.351562 L 25.667969 24.351562 L 25.667969 25.75 Z M 26.601562 25.75 L 26.601562 24.351562 L 27.066406 24.351562 L 27.066406 25.75 Z M 26.601562 25.75 "/>
</g>
</svg>
