<?xml version="1.0" encoding="UTF-8"?>
<svg xmlns="http://www.w3.org/2000/svg" xmlns:xlink="http://www.w3.org/1999/xlink" width="28pt" height="28pt" viewBox="0 0 28 28" version="1.1">
<g id="surface1">
<path style=" stroke:none;fill-rule:nonzero;fill:rgb(0%,0%,0%);fill-opacity:1;" d="M 23.308594 15.09375 C 22.847656 15.09375 22.476562 15.464844 22.476562 15.925781 L 22.476562 24.402344 L 5.527344 24.402344 L 5.527344 15.925781 C 5.527344 15.464844 5.152344 15.09375 4.691406 15.09375 C 4.230469 15.09375 3.855469 15.464844 3.855469 15.925781 L 3.855469 25.238281 C 3.855469 25.699219 4.230469 26.070312 4.691406 26.070312 L 23.308594 26.070312 C 23.769531 26.070312 24.144531 25.699219 24.144531 25.238281 L 24.144531 15.925781 C 24.144531 15.464844 23.769531 15.09375 23.308594 15.09375 Z M 23.308594 15.09375 "/>
<path style=" stroke:none;fill-rule:nonzero;fill:rgb(0%,0%,0%);fill-opacity:1;" d="M 27.753906 15.335938 L 14.589844 2.171875 C 14.261719 1.847656 13.734375 1.847656 13.410156 2.171875 L 0.246094 15.335938 C -0.0820312 15.664062 -0.0820312 16.191406 0.246094 16.519531 C 0.40625 16.679688 0.621094 16.761719 0.835938 16.761719 C 1.050781 16.761719 1.261719 16.679688 1.425781 16.519531 L 14 3.945312 L 26.574219 16.519531 C 26.902344 16.84375 27.429688 16.84375 27.753906 16.519531 C 28.082031 16.191406 28.082031 15.664062 27.753906 15.335938 Z M 27.753906 15.335938 "/>
</g>
</svg>
