<?xml version="1.0" encoding="UTF-8"?>
<svg xmlns="http://www.w3.org/2000/svg" xmlns:xlink="http://www.w3.org/1999/xlink" width="28pt" height="28pt" viewBox="0 0 28 28" version="1.1">
<g id="surface1">
<path style=" stroke:none;fill-rule:nonzero;fill:rgb(0%,0%,0%);fill-opacity:1;" d="M 27.375 24.445312 C 27.332031 24.207031 27.203125 23.925781 27.097656 23.816406 C 26.988281 23.710938 26.703125 23.640625 26.460938 23.664062 L 26.390625 23.667969 C 26.148438 23.695312 25.8125 23.570312 25.640625 23.398438 L 24.921875 22.683594 C 24.753906 22.515625 24.632812 22.175781 24.65625 21.933594 L 24.65625 21.925781 C 24.679688 21.683594 24.5 21.496094 24.257812 21.503906 L 24.203125 21.507812 C 23.960938 21.515625 23.621094 21.382812 23.449219 21.210938 L 23.339844 21.101562 C 23.167969 20.929688 23.101562 20.628906 23.1875 20.429688 C 23.277344 20.230469 23.210938 19.929688 23.039062 19.757812 L 22.980469 19.703125 C 22.808594 19.53125 22.507812 19.464844 22.3125 19.550781 C 22.113281 19.640625 21.8125 19.570312 21.640625 19.402344 L 21.464844 19.226562 C 21.292969 19.054688 21.226562 18.753906 21.316406 18.554688 C 21.40625 18.359375 21.335938 18.054688 21.164062 17.882812 L 19.742188 16.460938 L 21.457031 14.75 C 22.621094 13.585938 22.734375 11.578125 21.710938 10.289062 L 14.496094 1.214844 C 13.472656 -0.0742188 11.507812 -0.386719 10.132812 0.519531 L 6.839844 2.691406 C 5.464844 3.597656 3.597656 5.464844 2.691406 6.839844 L 0.519531 10.136719 C -0.386719 11.507812 -0.0742188 13.472656 1.214844 14.496094 L 10.289062 21.710938 C 11.578125 22.734375 13.585938 22.617188 14.75 21.453125 L 16.464844 19.742188 L 17.886719 21.164062 C 18.058594 21.335938 18.359375 21.402344 18.558594 21.316406 C 18.757812 21.226562 19.058594 21.292969 19.230469 21.464844 L 19.402344 21.640625 C 19.574219 21.8125 19.640625 22.113281 19.554688 22.3125 C 19.464844 22.507812 19.535156 22.808594 19.703125 22.980469 L 19.761719 23.039062 C 19.933594 23.210938 20.234375 23.277344 20.433594 23.1875 C 20.628906 23.101562 20.929688 23.167969 21.101562 23.339844 L 21.214844 23.449219 C 21.382812 23.621094 21.515625 23.960938 21.507812 24.203125 L 21.503906 24.257812 C 21.496094 24.5 21.6875 24.679688 21.925781 24.65625 L 21.9375 24.65625 C 22.179688 24.632812 22.515625 24.753906 22.6875 24.921875 L 23.402344 25.640625 C 23.574219 25.8125 23.695312 26.148438 23.671875 26.390625 L 23.664062 26.460938 C 23.640625 26.703125 23.710938 26.988281 23.820312 27.09375 C 23.925781 27.203125 24.210938 27.328125 24.449219 27.375 L 27.644531 27.992188 C 27.882812 28.039062 28.039062 27.878906 27.992188 27.644531 Z M 12.824219 19.574219 L 7.933594 14.683594 L 12.460938 10.15625 L 9.761719 7.460938 C 9.128906 6.820312 8.09375 6.820312 7.457031 7.457031 C 6.824219 8.089844 6.824219 9.128906 7.457031 9.761719 L 8.90625 11.207031 L 7.75 12.363281 L 6.304688 10.914062 C 5.03125 9.644531 5.03125 7.574219 6.304688 6.304688 C 7.574219 5.03125 9.644531 5.03125 10.917969 6.304688 L 13.613281 9.003906 L 14.683594 7.933594 L 19.574219 12.824219 Z M 12.824219 19.574219 "/>
</g>
</svg>
