<?xml version="1.0" encoding="UTF-8"?>
<svg xmlns="http://www.w3.org/2000/svg" xmlns:xlink="http://www.w3.org/1999/xlink" width="28pt" height="28pt" viewBox="0 0 28 28" version="1.1">
<g id="surface1">
<path style=" stroke:none;fill-rule:nonzero;fill:rgb(0%,0%,0%);fill-opacity:1;" d="M 13.835938 11.292969 L 13.835938 13.054688 C 13.835938 14.46875 12.691406 15.613281 11.277344 15.613281 C 9.863281 15.613281 8.71875 14.46875 8.71875 13.054688 L 8.71875 8.703125 C 6.257812 7.753906 3.429688 8.792969 2.199219 11.191406 C 0.882812 13.757812 1.898438 16.902344 4.460938 18.21875 L 12.914062 22.546875 L 17.671875 13.261719 Z M 13.835938 11.292969 "/>
<path style=" stroke:none;fill-rule:nonzero;fill:rgb(0%,0%,0%);fill-opacity:1;" d="M 26.199219 15.808594 C 25.960938 15.34375 25.511719 15.019531 24.996094 14.941406 L 19.230469 14.058594 L 14.46875 23.347656 L 18.550781 27.511719 C 18.917969 27.886719 19.441406 28.058594 19.960938 27.980469 C 20.476562 27.902344 20.925781 27.582031 21.164062 27.113281 L 26.199219 17.292969 C 26.4375 16.828125 26.4375 16.277344 26.199219 15.808594 Z M 26.199219 15.808594 "/>
<path style=" stroke:none;fill-rule:nonzero;fill:rgb(0%,0%,0%);fill-opacity:1;" d="M 11.277344 14.335938 C 11.984375 14.335938 12.554688 13.761719 12.554688 13.054688 L 12.554688 1.28125 C 12.554688 0.574219 11.984375 0 11.277344 0 C 10.570312 0 9.996094 0.574219 9.996094 1.28125 L 9.996094 13.054688 C 9.996094 13.761719 10.570312 14.335938 11.277344 14.335938 Z M 11.277344 14.335938 "/>
</g>
</svg>
