<?xml version="1.0" encoding="UTF-8"?>
<svg xmlns="http://www.w3.org/2000/svg" xmlns:xlink="http://www.w3.org/1999/xlink" width="28pt" height="28pt" viewBox="0 0 28 28" version="1.1">
<g id="surface1">
<path style=" stroke:none;fill-rule:nonzero;fill:rgb(0%,0%,0%);fill-opacity:1;" d="M 27.527344 4.269531 L 0.472656 4.269531 C 0.210938 4.269531 0 4.484375 0 4.746094 L 0 23.253906 C 0 23.515625 0.210938 23.730469 0.472656 23.730469 L 27.527344 23.730469 C 27.789062 23.730469 28 23.515625 28 23.253906 L 28 4.746094 C 28 4.484375 27.789062 4.269531 27.527344 4.269531 Z M 27.050781 22.78125 L 0.949219 22.78125 L 0.949219 5.21875 L 27.050781 5.21875 Z M 27.050781 22.78125 "/>
<path style=" stroke:none;fill-rule:nonzero;fill:rgb(0%,0%,0%);fill-opacity:1;" d="M 25.628906 6.167969 L 2.371094 6.167969 C 2.109375 6.167969 1.898438 6.382812 1.898438 6.644531 L 1.898438 21.355469 C 1.898438 21.617188 2.109375 21.832031 2.371094 21.832031 L 25.628906 21.832031 C 25.890625 21.832031 26.101562 21.617188 26.101562 21.355469 L 26.101562 6.644531 C 26.101562 6.382812 25.890625 6.167969 25.628906 6.167969 Z M 25.152344 20.882812 L 2.847656 20.882812 L 2.847656 7.117188 L 25.152344 7.117188 Z M 25.152344 20.882812 "/>
<path style=" stroke:none;fill-rule:nonzero;fill:rgb(0%,0%,0%);fill-opacity:1;" d="M 5.457031 8.066406 C 4.539062 8.066406 3.796875 8.8125 3.796875 9.730469 C 3.796875 10.644531 4.539062 11.390625 5.457031 11.390625 C 6.375 11.390625 7.117188 10.644531 7.117188 9.730469 C 7.117188 8.8125 6.375 8.066406 5.457031 8.066406 Z M 5.457031 10.441406 C 5.066406 10.441406 4.746094 10.121094 4.746094 9.730469 C 4.746094 9.335938 5.066406 9.015625 5.457031 9.015625 C 5.851562 9.015625 6.167969 9.335938 6.167969 9.730469 C 6.167969 10.121094 5.851562 10.441406 5.457031 10.441406 Z M 5.457031 10.441406 "/>
<path style=" stroke:none;fill-rule:nonzero;fill:rgb(0%,0%,0%);fill-opacity:1;" d="M 9.730469 8.066406 C 8.8125 8.066406 8.066406 8.8125 8.066406 9.730469 C 8.066406 10.644531 8.8125 11.390625 9.730469 11.390625 C 10.644531 11.390625 11.390625 10.644531 11.390625 9.730469 C 11.390625 8.8125 10.644531 8.066406 9.730469 8.066406 Z M 9.730469 10.441406 C 9.335938 10.441406 9.015625 10.121094 9.015625 9.730469 C 9.015625 9.335938 9.335938 9.015625 9.730469 9.015625 C 10.121094 9.015625 10.441406 9.335938 10.441406 9.730469 C 10.441406 10.121094 10.121094 10.441406 9.730469 10.441406 Z M 9.730469 10.441406 "/>
<path style=" stroke:none;fill-rule:nonzero;fill:rgb(0%,0%,0%);fill-opacity:1;" d="M 14 8.066406 C 13.082031 8.066406 12.339844 8.8125 12.339844 9.730469 C 12.339844 10.644531 13.082031 11.390625 14 11.390625 C 14.917969 11.390625 15.660156 10.644531 15.660156 9.730469 C 15.660156 8.8125 14.917969 8.066406 14 8.066406 Z M 14 10.441406 C 13.605469 10.441406 13.289062 10.121094 13.289062 9.730469 C 13.289062 9.335938 13.605469 9.015625 14 9.015625 C 14.394531 9.015625 14.710938 9.335938 14.710938 9.730469 C 14.710938 10.121094 14.394531 10.441406 14 10.441406 Z M 14 10.441406 "/>
<path style=" stroke:none;fill-rule:nonzero;fill:rgb(0%,0%,0%);fill-opacity:1;" d="M 18.269531 8.066406 C 17.355469 8.066406 16.609375 8.8125 16.609375 9.730469 C 16.609375 10.644531 17.355469 11.390625 18.269531 11.390625 C 19.1875 11.390625 19.933594 10.644531 19.933594 9.730469 C 19.933594 8.8125 19.1875 8.066406 18.269531 8.066406 Z M 18.269531 10.441406 C 17.878906 10.441406 17.558594 10.121094 17.558594 9.730469 C 17.558594 9.335938 17.878906 9.015625 18.269531 9.015625 C 18.664062 9.015625 18.984375 9.335938 18.984375 9.730469 C 18.984375 10.121094 18.664062 10.441406 18.269531 10.441406 Z M 18.269531 10.441406 "/>
<path style=" stroke:none;fill-rule:nonzero;fill:rgb(0%,0%,0%);fill-opacity:1;" d="M 22.542969 8.066406 C 21.625 8.066406 20.882812 8.8125 20.882812 9.730469 C 20.882812 10.644531 21.625 11.390625 22.542969 11.390625 C 23.460938 11.390625 24.203125 10.644531 24.203125 9.730469 C 24.203125 8.8125 23.460938 8.066406 22.542969 8.066406 Z M 22.542969 10.441406 C 22.148438 10.441406 21.832031 10.121094 21.832031 9.730469 C 21.832031 9.335938 22.148438 9.015625 22.542969 9.015625 C 22.933594 9.015625 23.253906 9.335938 23.253906 9.730469 C 23.253906 10.121094 22.933594 10.441406 22.542969 10.441406 Z M 22.542969 10.441406 "/>
<path style=" stroke:none;fill-rule:nonzero;fill:rgb(0%,0%,0%);fill-opacity:1;" d="M 5.457031 12.339844 C 4.539062 12.339844 3.796875 13.082031 3.796875 14 C 3.796875 14.917969 4.539062 15.660156 5.457031 15.660156 C 6.375 15.660156 7.117188 14.917969 7.117188 14 C 7.117188 13.082031 6.375 12.339844 5.457031 12.339844 Z M 5.457031 14.710938 C 5.066406 14.710938 4.746094 14.394531 4.746094 14 C 4.746094 13.605469 5.066406 13.289062 5.457031 13.289062 C 5.851562 13.289062 6.167969 13.605469 6.167969 14 C 6.167969 14.394531 5.851562 14.710938 5.457031 14.710938 Z M 5.457031 14.710938 "/>
<path style=" stroke:none;fill-rule:nonzero;fill:rgb(0%,0%,0%);fill-opacity:1;" d="M 9.730469 12.339844 C 8.8125 12.339844 8.066406 13.082031 8.066406 14 C 8.066406 14.917969 8.8125 15.660156 9.730469 15.660156 C 10.644531 15.660156 11.390625 14.917969 11.390625 14 C 11.390625 13.082031 10.644531 12.339844 9.730469 12.339844 Z M 9.730469 14.710938 C 9.335938 14.710938 9.015625 14.394531 9.015625 14 C 9.015625 13.605469 9.335938 13.289062 9.730469 13.289062 C 10.121094 13.289062 10.441406 13.605469 10.441406 14 C 10.441406 14.394531 10.121094 14.710938 9.730469 14.710938 Z M 9.730469 14.710938 "/>
<path style=" stroke:none;fill-rule:nonzero;fill:rgb(0%,0%,0%);fill-opacity:1;" d="M 14 12.339844 C 13.082031 12.339844 12.339844 13.082031 12.339844 14 C 12.339844 14.917969 13.082031 15.660156 14 15.660156 C 14.917969 15.660156 15.660156 14.917969 15.660156 14 C 15.660156 13.082031 14.917969 12.339844 14 12.339844 Z M 14 14.710938 C 13.605469 14.710938 13.289062 14.394531 13.289062 14 C 13.289062 13.605469 13.605469 13.289062 14 13.289062 C 14.394531 13.289062 14.710938 13.605469 14.710938 14 C 14.710938 14.394531 14.394531 14.710938 14 14.710938 Z M 14 14.710938 "/>
<path style=" stroke:none;fill-rule:nonzero;fill:rgb(0%,0%,0%);fill-opacity:1;" d="M 18.269531 12.339844 C 17.355469 12.339844 16.609375 13.082031 16.609375 14 C 16.609375 14.917969 17.355469 15.660156 18.269531 15.660156 C 19.1875 15.660156 19.933594 14.917969 19.933594 14 C 19.933594 13.082031 19.1875 12.339844 18.269531 12.339844 Z M 18.269531 14.710938 C 17.878906 14.710938 17.558594 14.394531 17.558594 14 C 17.558594 13.605469 17.878906 13.289062 18.269531 13.289062 C 18.664062 13.289062 18.984375 13.605469 18.984375 14 C 18.984375 14.394531 18.664062 14.710938 18.269531 14.710938 Z M 18.269531 14.710938 "/>
<path style=" stroke:none;fill-rule:nonzero;fill:rgb(0%,0%,0%);fill-opacity:1;" d="M 22.542969 12.339844 C 21.625 12.339844 20.882812 13.082031 20.882812 14 C 20.882812 14.917969 21.625 15.660156 22.542969 15.660156 C 23.460938 15.660156 24.203125 14.917969 24.203125 14 C 24.203125 13.082031 23.460938 12.339844 22.542969 12.339844 Z M 22.542969 14.710938 C 22.148438 14.710938 21.832031 14.394531 21.832031 14 C 21.832031 13.605469 22.148438 13.289062 22.542969 13.289062 C 22.933594 13.289062 23.253906 13.605469 23.253906 14 C 23.253906 14.394531 22.933594 14.710938 22.542969 14.710938 Z M 22.542969 14.710938 "/>
<path style=" stroke:none;fill-rule:nonzero;fill:rgb(0%,0%,0%);fill-opacity:1;" d="M 5.457031 16.609375 C 4.539062 16.609375 3.796875 17.355469 3.796875 18.269531 C 3.796875 19.1875 4.539062 19.933594 5.457031 19.933594 C 6.375 19.933594 7.117188 19.1875 7.117188 18.269531 C 7.117188 17.355469 6.375 16.609375 5.457031 16.609375 Z M 5.457031 18.984375 C 5.066406 18.984375 4.746094 18.664062 4.746094 18.269531 C 4.746094 17.878906 5.066406 17.558594 5.457031 17.558594 C 5.851562 17.558594 6.167969 17.878906 6.167969 18.269531 C 6.167969 18.664062 5.851562 18.984375 5.457031 18.984375 Z M 5.457031 18.984375 "/>
<path style=" stroke:none;fill-rule:nonzero;fill:rgb(0%,0%,0%);fill-opacity:1;" d="M 9.730469 16.609375 C 8.8125 16.609375 8.066406 17.355469 8.066406 18.269531 C 8.066406 19.1875 8.8125 19.933594 9.730469 19.933594 C 10.644531 19.933594 11.390625 19.1875 11.390625 18.269531 C 11.390625 17.355469 10.644531 16.609375 9.730469 16.609375 Z M 9.730469 18.984375 C 9.335938 18.984375 9.015625 18.664062 9.015625 18.269531 C 9.015625 17.878906 9.335938 17.558594 9.730469 17.558594 C 10.121094 17.558594 10.441406 17.878906 10.441406 18.269531 C 10.441406 18.664062 10.121094 18.984375 9.730469 18.984375 Z M 9.730469 18.984375 "/>
<path style=" stroke:none;fill-rule:nonzero;fill:rgb(0%,0%,0%);fill-opacity:1;" d="M 14 16.609375 C 13.082031 16.609375 12.339844 17.355469 12.339844 18.269531 C 12.339844 19.1875 13.082031 19.933594 14 19.933594 C 14.917969 19.933594 15.660156 19.1875 15.660156 18.269531 C 15.660156 17.355469 14.917969 16.609375 14 16.609375 Z M 14 18.984375 C 13.605469 18.984375 13.289062 18.664062 13.289062 18.269531 C 13.289062 17.878906 13.605469 17.558594 14 17.558594 C 14.394531 17.558594 14.710938 17.878906 14.710938 18.269531 C 14.710938 18.664062 14.394531 18.984375 14 18.984375 Z M 14 18.984375 "/>
<path style=" stroke:none;fill-rule:nonzero;fill:rgb(0%,0%,0%);fill-opacity:1;" d="M 18.269531 16.609375 C 17.355469 16.609375 16.609375 17.355469 16.609375 18.269531 C 16.609375 19.1875 17.355469 19.933594 18.269531 19.933594 C 19.1875 19.933594 19.933594 19.1875 19.933594 18.269531 C 19.933594 17.355469 19.1875 16.609375 18.269531 16.609375 Z M 18.269531 18.984375 C 17.878906 18.984375 17.558594 18.664062 17.558594 18.269531 C 17.558594 17.878906 17.878906 17.558594 18.269531 17.558594 C 18.664062 17.558594 18.984375 17.878906 18.984375 18.269531 C 18.984375 18.664062 18.664062 18.984375 18.269531 18.984375 Z M 18.269531 18.984375 "/>
<path style=" stroke:none;fill-rule:nonzero;fill:rgb(0%,0%,0%);fill-opacity:1;" d="M 22.542969 16.609375 C 21.625 16.609375 20.882812 17.355469 20.882812 18.269531 C 20.882812 19.1875 21.625 19.933594 22.542969 19.933594 C 23.460938 19.933594 24.203125 19.1875 24.203125 18.269531 C 24.203125 17.355469 23.460938 16.609375 22.542969 16.609375 Z M 22.542969 18.984375 C 22.148438 18.984375 21.832031 18.664062 21.832031 18.269531 C 21.832031 17.878906 22.148438 17.558594 22.542969 17.558594 C 22.933594 17.558594 23.253906 17.878906 23.253906 18.269531 C 23.253906 18.664062 22.933594 18.984375 22.542969 18.984375 Z M 22.542969 18.984375 "/>
</g>
</svg>
