<?xml version="1.0" encoding="UTF-8"?>
<svg xmlns="http://www.w3.org/2000/svg" xmlns:xlink="http://www.w3.org/1999/xlink" width="28pt" height="28pt" viewBox="0 0 28 28" version="1.1">
<g id="surface1">
<path style=" stroke:none;fill-rule:nonzero;fill:rgb(0%,0%,0%);fill-opacity:1;" d="M 15.824219 14.253906 L 15.824219 11.636719 C 15.824219 10.847656 15.324219 10.175781 14.621094 9.921875 L 14.621094 0.621094 C 14.621094 0.277344 14.34375 0 14 0 C 13.65625 0 13.378906 0.277344 13.378906 0.621094 L 13.378906 9.921875 C 12.675781 10.175781 12.175781 10.847656 12.175781 11.636719 L 12.175781 14.253906 C 7.492188 15.085938 3.878906 19.050781 3.589844 23.902344 L 24.410156 23.902344 C 24.125 19.050781 20.507812 15.085938 15.824219 14.253906 Z M 15.824219 14.253906 "/>
<path style=" stroke:none;fill-rule:nonzero;fill:rgb(0%,0%,0%);fill-opacity:1;" d="M 14 28 C 16.175781 28 18.09375 26.859375 19.183594 25.144531 L 8.816406 25.144531 C 9.90625 26.859375 11.824219 28 14 28 Z M 14 28 "/>
</g>
</svg>
