<?xml version="1.0" encoding="UTF-8"?>
<svg xmlns="http://www.w3.org/2000/svg" xmlns:xlink="http://www.w3.org/1999/xlink" width="28pt" height="28pt" viewBox="0 0 28 28" version="1.1">
<g id="surface1">
<path style=" stroke:none;fill-rule:nonzero;fill:rgb(0%,0%,0%);fill-opacity:1;" d="M 24.160156 4.835938 L 21.824219 2.035156 C 21.738281 1.929688 21.605469 1.867188 21.46875 1.867188 L 21 1.867188 L 21 0.464844 C 21 0.210938 20.792969 0 20.535156 0 L 14 0 C 13.742188 0 13.535156 0.210938 13.535156 0.464844 L 13.535156 5.601562 L 7.46875 5.601562 C 7.207031 5.601562 7 5.808594 7 6.066406 L 7 7.464844 L 6.535156 7.464844 C 6.394531 7.464844 6.265625 7.527344 6.175781 7.632812 L 3.839844 10.433594 C 3.726562 10.574219 3.699219 10.765625 3.777344 10.929688 C 3.855469 11.09375 4.019531 11.199219 4.199219 11.199219 L 5.601562 11.199219 C 5.601562 12.230469 6.4375 13.066406 7.46875 13.066406 C 8.496094 13.066406 9.332031 12.230469 9.332031 11.199219 L 10.734375 11.199219 C 10.914062 11.199219 11.078125 11.09375 11.15625 10.929688 C 11.234375 10.765625 11.207031 10.574219 11.09375 10.433594 L 8.757812 7.632812 C 8.667969 7.527344 8.539062 7.464844 8.398438 7.464844 L 7.933594 7.464844 L 7.933594 6.535156 L 13.535156 6.535156 L 13.535156 24.277344 C 11.429688 24.351562 9.332031 24.9375 9.332031 26.132812 C 9.332031 27.414062 11.753906 28 14 28 C 16.246094 28 18.667969 27.414062 18.667969 26.132812 C 18.667969 24.941406 16.570312 24.351562 14.464844 24.277344 L 14.464844 0.933594 L 20.066406 0.933594 L 20.066406 1.867188 L 19.601562 1.867188 C 19.460938 1.867188 19.332031 1.929688 19.242188 2.035156 L 16.90625 4.835938 C 16.792969 4.972656 16.765625 5.167969 16.84375 5.332031 C 16.921875 5.496094 17.085938 5.597656 17.265625 5.597656 L 18.667969 5.597656 L 18.667969 5.601562 C 18.667969 6.628906 19.503906 7.464844 20.535156 7.464844 C 21.5625 7.464844 22.398438 6.628906 22.398438 5.601562 L 23.800781 5.601562 C 23.980469 5.601562 24.144531 5.496094 24.222656 5.332031 C 24.300781 5.167969 24.273438 4.972656 24.160156 4.835938 Z M 8.398438 11.199219 C 8.398438 11.714844 7.980469 12.132812 7.46875 12.132812 C 6.953125 12.132812 6.535156 11.714844 6.535156 11.199219 Z M 17.734375 26.132812 C 17.734375 26.375 16.449219 27.066406 14 27.066406 C 11.550781 27.066406 10.265625 26.375 10.265625 26.132812 C 10.265625 25.910156 11.386719 25.289062 13.535156 25.207031 L 13.535156 25.667969 C 13.535156 25.925781 13.742188 26.132812 14 26.132812 C 14.257812 26.132812 14.464844 25.925781 14.464844 25.667969 L 14.464844 25.207031 C 16.613281 25.289062 17.734375 25.910156 17.734375 26.132812 Z M 20.535156 6.535156 C 20.019531 6.535156 19.601562 6.113281 19.601562 5.601562 C 19.601562 5.601562 19.601562 5.601562 19.601562 5.597656 L 21.46875 5.601562 C 21.46875 6.113281 21.046875 6.535156 20.535156 6.535156 Z M 20.535156 6.535156 "/>
</g>
</svg>
