<?xml version="1.0" encoding="UTF-8"?>
<svg xmlns="http://www.w3.org/2000/svg" xmlns:xlink="http://www.w3.org/1999/xlink" width="28pt" height="28pt" viewBox="0 0 28 28" version="1.1">
<g id="surface1">
<path style=" stroke:none;fill-rule:nonzero;fill:rgb(0%,0%,0%);fill-opacity:1;" d="M 22.773438 8.316406 C 22.296875 7.636719 21.488281 7.28125 20.5 7.316406 C 20.398438 7.320312 20.328125 7.3125 20.28125 7.308594 C 20.285156 7.230469 20.308594 7.09375 20.382812 6.875 L 20.386719 6.863281 C 20.558594 6.3125 20.777344 5.625 20.890625 4.984375 C 21.0625 4.027344 20.765625 3.113281 20.09375 2.542969 C 19.382812 1.9375 18.375 1.796875 17.335938 2.160156 C 17.144531 2.226562 17.046875 2.242188 17 2.246094 C 16.96875 2.214844 16.910156 2.140625 16.808594 1.972656 C 16.425781 1.34375 16.09375 0.929688 15.730469 0.628906 C 15.21875 0.207031 14.652344 0 13.996094 0 C 13.339844 0 12.773438 0.207031 12.265625 0.628906 C 11.902344 0.929688 11.570312 1.34375 11.1875 1.972656 C 11.085938 2.140625 11.027344 2.214844 10.996094 2.246094 C 10.949219 2.242188 10.847656 2.226562 10.660156 2.160156 L 10.648438 2.15625 C 9.589844 1.804688 8.578125 1.953125 7.875 2.5625 C 7.210938 3.132812 6.929688 4.015625 7.101562 4.984375 C 7.21875 5.625 7.433594 6.304688 7.605469 6.855469 L 7.609375 6.867188 C 7.683594 7.089844 7.707031 7.226562 7.710938 7.308594 C 7.664062 7.3125 7.597656 7.320312 7.5 7.316406 C 6.515625 7.273438 5.710938 7.625 5.234375 8.300781 C 4.746094 8.988281 4.671875 9.945312 5.039062 10.855469 C 5.488281 11.984375 6.359375 12.644531 7.125 13.222656 C 7.164062 13.253906 7.207031 13.285156 7.253906 13.316406 C 7.402344 13.429688 7.761719 13.699219 7.996094 13.929688 C 7.351562 14.070312 6.820312 14.429688 6.519531 14.949219 C 6.199219 15.503906 6.167969 16.1875 6.441406 16.824219 C 6.953125 18.027344 8.207031 18.636719 9.367188 19.078125 C 10.46875 19.496094 10.46875 19.496094 10.808594 20.277344 C 11.363281 21.542969 12.15625 22.3125 13.179688 22.570312 L 13.179688 28 L 14.820312 28 L 14.820312 22.570312 C 15.835938 22.3125 16.632812 21.542969 17.183594 20.277344 C 17.527344 19.496094 17.527344 19.496094 18.628906 19.078125 C 19.789062 18.636719 21.039062 18.027344 21.554688 16.824219 C 21.828125 16.1875 21.796875 15.503906 21.472656 14.949219 C 21.175781 14.429688 20.644531 14.070312 20 13.929688 C 20.230469 13.699219 20.59375 13.429688 20.742188 13.316406 C 20.789062 13.285156 20.828125 13.253906 20.867188 13.222656 C 21.636719 12.644531 22.503906 11.984375 22.957031 10.855469 C 23.328125 9.933594 23.257812 9.007812 22.773438 8.316406 Z M 21.433594 10.246094 C 21.152344 10.953125 20.5625 11.398438 19.878906 11.914062 C 19.84375 11.941406 19.804688 11.972656 19.761719 12.003906 C 18.992188 12.578125 18.292969 13.15625 18.179688 13.921875 C 18.121094 14.300781 18.207031 14.652344 18.429688 14.9375 C 18.671875 15.257812 19.058594 15.457031 19.546875 15.515625 C 19.792969 15.542969 19.976562 15.636719 20.054688 15.773438 C 20.132812 15.90625 20.09375 16.066406 20.046875 16.179688 C 19.773438 16.820312 18.835938 17.246094 18.046875 17.542969 C 16.71875 18.046875 16.273438 18.269531 15.679688 19.621094 C 15.40625 20.246094 15.109375 20.601562 14.820312 20.796875 L 14.820312 16.761719 L 17.421875 14.023438 L 16.230469 12.890625 L 14.820312 14.378906 L 14.820312 11.410156 L 17.421875 8.671875 L 16.230469 7.542969 L 14.820312 9.027344 L 14.820312 6.363281 L 13.179688 6.363281 L 13.179688 9.027344 L 11.765625 7.542969 L 10.574219 8.671875 L 13.179688 11.410156 L 13.179688 14.378906 L 11.765625 12.890625 L 10.574219 14.023438 L 13.179688 16.761719 L 13.179688 20.796875 C 12.886719 20.601562 12.589844 20.25 12.3125 19.621094 C 11.722656 18.269531 11.273438 18.046875 9.945312 17.542969 C 9.160156 17.246094 8.222656 16.820312 7.949219 16.179688 C 7.902344 16.066406 7.859375 15.90625 7.941406 15.773438 C 8.015625 15.636719 8.203125 15.542969 8.449219 15.515625 C 9.0625 15.445312 9.394531 15.164062 9.566406 14.9375 C 9.78125 14.65625 9.871094 14.296875 9.816406 13.921875 C 9.703125 13.15625 9.003906 12.578125 8.234375 12.003906 C 8.191406 11.972656 8.152344 11.941406 8.117188 11.914062 C 7.433594 11.398438 6.84375 10.953125 6.5625 10.246094 C 6.402344 9.851562 6.40625 9.480469 6.570312 9.25 C 6.738281 9.011719 7.066406 8.953125 7.34375 8.953125 C 7.375 8.953125 7.40625 8.953125 7.433594 8.957031 L 7.449219 8.957031 C 8.183594 8.976562 8.726562 8.765625 9.054688 8.324219 C 9.527344 7.699219 9.347656 6.90625 9.171875 6.367188 L 9.171875 6.359375 C 9.011719 5.855469 8.8125 5.230469 8.71875 4.695312 C 8.648438 4.308594 8.730469 3.988281 8.949219 3.800781 C 9.203125 3.582031 9.632812 3.550781 10.128906 3.710938 C 10.542969 3.855469 11.082031 3.992188 11.609375 3.777344 C 12.074219 3.589844 12.355469 3.210938 12.589844 2.824219 C 12.871094 2.367188 13.101562 2.070312 13.3125 1.890625 C 13.527344 1.714844 13.726562 1.640625 13.996094 1.640625 C 14.269531 1.640625 14.46875 1.714844 14.679688 1.890625 C 14.894531 2.066406 15.125 2.363281 15.40625 2.824219 C 15.640625 3.210938 15.921875 3.589844 16.386719 3.777344 C 16.917969 3.992188 17.460938 3.855469 17.875 3.710938 C 18.351562 3.542969 18.773438 3.574219 19.03125 3.792969 C 19.253906 3.984375 19.34375 4.3125 19.277344 4.695312 C 19.179688 5.230469 18.984375 5.855469 18.824219 6.363281 C 18.71875 6.675781 18.410156 7.613281 18.9375 8.320312 C 19.265625 8.761719 19.808594 8.976562 20.546875 8.957031 L 20.554688 8.957031 C 20.847656 8.945312 21.242188 8.988281 21.429688 9.257812 C 21.589844 9.484375 21.589844 9.855469 21.433594 10.246094 Z M 21.433594 10.246094 "/>
</g>
</svg>
