<?xml version="1.0" encoding="UTF-8"?>
<svg xmlns="http://www.w3.org/2000/svg" xmlns:xlink="http://www.w3.org/1999/xlink" width="28pt" height="28pt" viewBox="0 0 28 28" version="1.1">
<g id="surface1">
<path style=" stroke:none;fill-rule:nonzero;fill:rgb(0%,0%,0%);fill-opacity:1;" d="M 20.125 6.5625 L 7.875 6.5625 C 7.390625 6.5625 6.996094 6.953125 6.996094 7.4375 C 6.996094 11.300781 10.136719 14.441406 14 14.441406 C 17.863281 14.441406 21.003906 11.300781 21.003906 7.4375 C 21.003906 6.953125 20.609375 6.5625 20.125 6.5625 Z M 14 12.6875 C 11.402344 12.6875 9.242188 10.792969 8.824219 8.316406 L 19.175781 8.316406 C 18.757812 10.792969 16.597656 12.6875 14 12.6875 Z M 14 12.6875 "/>
<path style=" stroke:none;fill-rule:nonzero;fill:rgb(0%,0%,0%);fill-opacity:1;" d="M 5.792969 7.4375 C 5.792969 6.953125 5.398438 6.5625 4.914062 6.5625 L 0.875 6.5625 C 0.390625 6.5625 0 6.953125 0 7.4375 C 0 7.921875 0.390625 8.316406 0.875 8.316406 L 4.914062 8.316406 C 5.398438 8.316406 5.792969 7.921875 5.792969 7.4375 Z M 5.792969 7.4375 "/>
<path style=" stroke:none;fill-rule:nonzero;fill:rgb(0%,0%,0%);fill-opacity:1;" d="M 27.125 6.5625 L 23.085938 6.5625 C 22.601562 6.5625 22.207031 6.953125 22.207031 7.4375 C 22.207031 7.921875 22.601562 8.316406 23.085938 8.316406 L 27.125 8.316406 C 27.609375 8.316406 28 7.921875 28 7.4375 C 28 6.953125 27.609375 6.5625 27.125 6.5625 Z M 27.125 6.5625 "/>
<path style=" stroke:none;fill-rule:nonzero;fill:rgb(0%,0%,0%);fill-opacity:1;" d="M 21.042969 13.242188 C 20.699219 12.898438 20.144531 12.898438 19.804688 13.242188 C 19.460938 13.585938 19.460938 14.140625 19.804688 14.480469 L 22.660156 17.335938 C 22.832031 17.507812 23.054688 17.59375 23.28125 17.59375 C 23.503906 17.59375 23.730469 17.507812 23.898438 17.335938 C 24.242188 16.996094 24.242188 16.441406 23.898438 16.097656 Z M 21.042969 13.242188 "/>
<path style=" stroke:none;fill-rule:nonzero;fill:rgb(0%,0%,0%);fill-opacity:1;" d="M 6.957031 13.242188 L 4.101562 16.097656 C 3.757812 16.441406 3.757812 16.996094 4.101562 17.335938 C 4.273438 17.507812 4.496094 17.59375 4.71875 17.59375 C 4.945312 17.59375 5.167969 17.507812 5.339844 17.339844 L 8.195312 14.480469 C 8.539062 14.140625 8.539062 13.585938 8.195312 13.242188 C 7.855469 12.898438 7.300781 12.898438 6.957031 13.242188 Z M 6.957031 13.242188 "/>
<path style=" stroke:none;fill-rule:nonzero;fill:rgb(0%,0%,0%);fill-opacity:1;" d="M 14 15.644531 C 13.515625 15.644531 13.125 16.039062 13.125 16.523438 L 13.125 20.5625 C 13.125 21.046875 13.515625 21.4375 14 21.4375 C 14.484375 21.4375 14.875 21.046875 14.875 20.5625 L 14.875 16.523438 C 14.875 16.039062 14.484375 15.644531 14 15.644531 Z M 14 15.644531 "/>
</g>
</svg>
