<?xml version="1.0" encoding="UTF-8"?>
<svg xmlns="http://www.w3.org/2000/svg" xmlns:xlink="http://www.w3.org/1999/xlink" width="28pt" height="28pt" viewBox="0 0 28 28" version="1.1">
<g id="surface1">
<path style=" stroke:none;fill-rule:nonzero;fill:rgb(0%,0%,0%);fill-opacity:1;" d="M 19.355469 15.761719 C 19.109375 15.476562 18.78125 15.285156 18.421875 15.203125 L 18.402344 13.0625 L 19.371094 11.828125 C 19.695312 11.414062 19.621094 10.816406 19.210938 10.492188 C 18.796875 10.171875 18.199219 10.242188 17.875 10.65625 L 16.90625 11.890625 C 16.660156 12.207031 16.523438 12.597656 16.523438 12.996094 L 16.523438 15.160156 L 11.464844 15.160156 L 11.464844 12.996094 C 11.464844 12.597656 11.328125 12.207031 11.082031 11.890625 L 10.921875 11.6875 L 18.757812 8.847656 C 19.25 8.667969 19.507812 8.125 19.324219 7.632812 C 19.148438 7.136719 18.601562 6.882812 18.109375 7.0625 C 18.109375 7.0625 11.140625 9.566406 8.878906 10.402344 C 8.207031 10.648438 8.097656 11.121094 8.445312 11.597656 C 8.722656 11.980469 9.5625 12.996094 9.5625 12.996094 L 9.5625 15.207031 C 9.207031 15.289062 8.878906 15.480469 8.632812 15.761719 C 8.300781 16.144531 8.152344 16.648438 8.222656 17.148438 L 8.757812 20.90625 C 8.851562 21.574219 9.421875 22.070312 10.097656 22.070312 L 17.890625 22.070312 C 18.566406 22.070312 19.136719 21.574219 19.234375 20.90625 L 19.765625 17.148438 C 19.835938 16.648438 19.6875 16.144531 19.355469 15.761719 Z M 19.355469 15.761719 "/>
<path style=" stroke:none;fill-rule:nonzero;fill:rgb(0%,0%,0%);fill-opacity:1;" d="M 15.289062 25.8125 L 12.699219 25.8125 C 12.542969 25.8125 12.417969 25.9375 12.417969 26.09375 L 12.417969 26.414062 C 12.421875 26.832031 12.585938 27.234375 12.878906 27.527344 C 13.175781 27.824219 13.578125 27.988281 13.992188 27.988281 C 14.863281 27.988281 15.570312 27.285156 15.570312 26.414062 L 15.570312 26.089844 C 15.570312 25.9375 15.445312 25.8125 15.289062 25.8125 Z M 15.289062 25.8125 "/>
<path style=" stroke:none;fill-rule:nonzero;fill:rgb(0%,0%,0%);fill-opacity:1;" d="M 17.300781 23 L 10.6875 23 C 10.164062 23 9.738281 23.425781 9.738281 23.949219 C 9.738281 24.476562 10.164062 24.902344 10.6875 24.902344 L 17.300781 24.902344 C 17.824219 24.902344 18.25 24.476562 18.25 23.949219 C 18.25 23.425781 17.824219 23 17.300781 23 Z M 17.300781 23 "/>
<path style=" stroke:none;fill-rule:nonzero;fill:rgb(0%,0%,0%);fill-opacity:1;" d="M 9.367188 8.390625 C 9.476562 8.390625 9.585938 8.371094 9.691406 8.335938 L 18.757812 5.046875 C 19.25 4.867188 19.507812 4.324219 19.324219 3.832031 C 19.148438 3.335938 18.601562 3.082031 18.109375 3.261719 L 9.042969 6.546875 C 8.550781 6.726562 8.292969 7.269531 8.472656 7.765625 C 8.613281 8.152344 8.976562 8.390625 9.367188 8.390625 Z M 9.367188 8.390625 "/>
<path style=" stroke:none;fill-rule:nonzero;fill:rgb(0%,0%,0%);fill-opacity:1;" d="M 10.332031 4.238281 C 10.441406 4.238281 10.550781 4.222656 10.65625 4.183594 L 17.109375 1.84375 C 17.605469 1.664062 17.859375 1.121094 17.679688 0.625 C 17.5 0.132812 16.957031 -0.121094 16.460938 0.0585938 L 10.007812 2.394531 C 9.515625 2.574219 9.261719 3.121094 9.4375 3.613281 C 9.578125 4 9.945312 4.238281 10.332031 4.238281 Z M 10.332031 4.238281 "/>
</g>
</svg>
