<?xml version="1.0" encoding="UTF-8"?>
<svg xmlns="http://www.w3.org/2000/svg" xmlns:xlink="http://www.w3.org/1999/xlink" width="28pt" height="28pt" viewBox="0 0 28 28" version="1.1">
<g id="surface1">
<path style=" stroke:none;fill-rule:nonzero;fill:rgb(0%,0%,0%);fill-opacity:1;" d="M 23.328125 9.324219 C 23.328125 4.175781 19.160156 0 14.011719 0 C 8.859375 0 4.671875 4.175781 4.671875 9.324219 C 4.671875 12.757812 6.542969 15.757812 9.277344 17.375 L 9.277344 20.394531 C 9.277344 21.171875 9.945312 21.832031 10.722656 21.832031 L 17.21875 21.832031 C 17.996094 21.832031 18.601562 21.171875 18.601562 20.394531 L 18.601562 17.429688 C 21.429688 15.824219 23.328125 12.796875 23.328125 9.324219 Z M 8.246094 7.769531 C 8.152344 7.769531 8.058594 7.753906 7.964844 7.714844 C 7.578125 7.5625 7.390625 7.121094 7.546875 6.738281 C 7.894531 5.867188 8.402344 5.089844 9.0625 4.421875 C 9.738281 3.738281 10.535156 3.210938 11.429688 2.855469 C 11.816406 2.699219 12.253906 2.886719 12.410156 3.273438 C 12.5625 3.660156 12.375 4.097656 11.988281 4.253906 C 11.289062 4.535156 10.664062 4.949219 10.132812 5.484375 C 9.617188 6.003906 9.21875 6.613281 8.945312 7.296875 C 8.828125 7.589844 8.542969 7.769531 8.246094 7.769531 Z M 8.246094 7.769531 "/>
<path style=" stroke:none;fill-rule:nonzero;fill:rgb(0%,0%,0%);fill-opacity:1;" d="M 17.855469 23.335938 L 10.085938 23.335938 C 9.65625 23.335938 9.277344 23.660156 9.277344 24.089844 L 9.277344 24.136719 C 9.277344 24.566406 9.65625 24.9375 10.085938 24.9375 L 10.910156 24.9375 C 10.9375 26.539062 12.316406 28 14.019531 28 C 15.71875 28 17.101562 26.539062 17.125 24.9375 L 17.855469 24.9375 C 18.285156 24.9375 18.601562 24.566406 18.601562 24.136719 L 18.601562 24.089844 C 18.601562 23.660156 18.285156 23.335938 17.855469 23.335938 Z M 17.855469 23.335938 "/>
</g>
</svg>
