<?xml version="1.0" encoding="UTF-8"?>
<svg xmlns="http://www.w3.org/2000/svg" xmlns:xlink="http://www.w3.org/1999/xlink" width="28pt" height="28pt" viewBox="0 0 28 28" version="1.1">
<g id="surface1">
<path style=" stroke:none;fill-rule:nonzero;fill:rgb(0%,0%,0%);fill-opacity:1;" d="M 14 0 C 6.269531 0 0 6.269531 0 14 C 0 21.730469 6.269531 28 14 28 C 21.730469 28 28 21.730469 28 14 C 28 6.269531 21.730469 0 14 0 Z M 13.882812 20.390625 C 12.679688 20.390625 11.703125 19.355469 11.703125 18.078125 L 16.0625 18.078125 C 16.0625 19.355469 15.085938 20.390625 13.882812 20.390625 Z M 15.90625 16.863281 L 11.863281 16.863281 C 11.753906 15.675781 8.921875 14.636719 8.921875 11.660156 C 8.921875 8.488281 11.296875 6.804688 13.882812 6.742188 C 16.46875 6.804688 18.84375 8.488281 18.84375 11.660156 C 18.84375 14.636719 16.015625 15.675781 15.90625 16.863281 Z M 15.90625 16.863281 "/>
</g>
</svg>
