<?xml version="1.0" encoding="UTF-8"?>
<svg xmlns="http://www.w3.org/2000/svg" xmlns:xlink="http://www.w3.org/1999/xlink" width="28pt" height="28pt" viewBox="0 0 28 28" version="1.1">
<g id="surface1">
<path style=" stroke:none;fill-rule:nonzero;fill:rgb(0%,0%,0%);fill-opacity:1;" d="M 23.964844 14.496094 C 23.625 14.15625 23.210938 13.984375 22.726562 13.984375 L 9.324219 13.984375 L 9.324219 8.15625 C 9.324219 6.871094 9.777344 5.773438 10.6875 4.863281 C 11.601562 3.953125 12.699219 3.496094 13.984375 3.496094 C 15.273438 3.496094 16.371094 3.953125 17.28125 4.863281 C 18.191406 5.773438 18.648438 6.871094 18.648438 8.15625 C 18.648438 8.472656 18.761719 8.746094 18.992188 8.976562 C 19.222656 9.207031 19.496094 9.324219 19.8125 9.324219 L 20.976562 9.324219 C 21.292969 9.324219 21.566406 9.207031 21.796875 8.976562 C 22.027344 8.746094 22.144531 8.472656 22.144531 8.15625 C 22.144531 5.910156 21.34375 3.992188 19.75 2.394531 C 18.152344 0.796875 16.230469 0 13.984375 0 C 11.738281 0 9.820312 0.796875 8.222656 2.394531 C 6.625 3.992188 5.828125 5.910156 5.828125 8.15625 L 5.828125 13.984375 L 5.246094 13.984375 C 4.757812 13.984375 4.347656 14.15625 4.007812 14.496094 C 3.667969 14.835938 3.496094 15.246094 3.496094 15.734375 L 3.496094 26.222656 C 3.496094 26.707031 3.667969 27.121094 4.007812 27.460938 C 4.347656 27.800781 4.757812 27.96875 5.246094 27.96875 L 22.726562 27.96875 C 23.210938 27.96875 23.625 27.800781 23.964844 27.460938 C 24.304688 27.121094 24.472656 26.707031 24.472656 26.222656 L 24.472656 15.734375 C 24.472656 15.246094 24.304688 14.835938 23.964844 14.496094 Z M 23.964844 14.496094 "/>
</g>
</svg>
