<?xml version="1.0" encoding="UTF-8"?>
<svg xmlns="http://www.w3.org/2000/svg" xmlns:xlink="http://www.w3.org/1999/xlink" width="28pt" height="28pt" viewBox="0 0 28 28" version="1.1">
<g id="surface1">
<path style=" stroke:none;fill-rule:nonzero;fill:rgb(0%,0%,0%);fill-opacity:1;" d="M 19.894531 11.296875 L 19.894531 5.699219 C 19.894531 2.554688 17.140625 0 13.753906 0 C 10.367188 0 7.613281 2.554688 7.613281 5.699219 L 7.613281 7.28125 C 7.613281 7.550781 7.835938 7.773438 8.105469 7.773438 C 8.375 7.773438 8.597656 7.550781 8.597656 7.28125 L 8.597656 5.699219 C 8.597656 3.097656 10.910156 0.984375 13.753906 0.984375 C 16.597656 0.984375 18.914062 3.097656 18.914062 5.699219 L 18.914062 11.296875 L 3.191406 11.296875 L 3.191406 28 L 24.808594 28 L 24.808594 11.296875 Z M 23.824219 27.015625 L 4.175781 27.015625 L 4.175781 25.050781 L 23.824219 25.050781 Z M 4.175781 24.070312 L 4.175781 12.28125 L 23.824219 12.28125 L 23.824219 24.070312 Z M 4.175781 24.070312 "/>
<path style=" stroke:none;fill-rule:nonzero;fill:rgb(0%,0%,0%);fill-opacity:1;" d="M 14 15.226562 C 12.917969 15.226562 12.035156 16.109375 12.035156 17.191406 L 12.035156 20.140625 C 12.035156 21.222656 12.917969 22.105469 14 22.105469 C 15.082031 22.105469 15.964844 21.222656 15.964844 20.140625 L 15.964844 17.191406 C 15.964844 16.109375 15.082031 15.226562 14 15.226562 Z M 14.984375 20.140625 C 14.984375 20.683594 14.542969 21.121094 14 21.121094 C 13.457031 21.121094 13.015625 20.683594 13.015625 20.140625 L 13.015625 17.191406 C 13.015625 16.652344 13.457031 16.210938 14 16.210938 C 14.542969 16.210938 14.984375 16.652344 14.984375 17.191406 Z M 14.984375 20.140625 "/>
</g>
</svg>
