<?xml version="1.0" encoding="UTF-8"?>
<svg xmlns="http://www.w3.org/2000/svg" xmlns:xlink="http://www.w3.org/1999/xlink" width="14pt" height="14pt" viewBox="0 0 14 14" version="1.1">
<g id="surface1">
<path style=" stroke:none;fill-rule:nonzero;fill:rgb(0%,0%,0%);fill-opacity:1;" d="M 13.453125 2.921875 C 12.949219 2.320312 12.015625 2.074219 10.234375 2.074219 L 3.765625 2.074219 C 1.945312 2.074219 0.992188 2.335938 0.492188 2.976562 C 0 3.597656 0 4.515625 0 5.789062 L 0 8.210938 C 0 10.675781 0.582031 11.925781 3.765625 11.925781 L 10.234375 11.925781 C 11.78125 11.925781 12.632812 11.710938 13.1875 11.179688 C 13.757812 10.636719 14 9.75 14 8.210938 L 14 5.789062 C 14 4.445312 13.960938 3.523438 13.453125 2.921875 Z M 8.988281 7.335938 L 6.050781 8.867188 C 5.984375 8.90625 5.914062 8.921875 5.84375 8.921875 C 5.757812 8.921875 5.679688 8.898438 5.609375 8.855469 C 5.472656 8.773438 5.390625 8.625 5.390625 8.46875 L 5.390625 5.40625 C 5.390625 5.25 5.472656 5.105469 5.609375 5.023438 C 5.742188 4.941406 5.910156 4.9375 6.050781 5.007812 L 8.984375 6.53125 C 9.136719 6.609375 9.230469 6.765625 9.230469 6.933594 C 9.230469 7.101562 9.136719 7.257812 8.988281 7.335938 Z M 8.988281 7.335938 "/>
</g>
</svg>
