<?xml version="1.0" encoding="UTF-8"?>
<svg xmlns="http://www.w3.org/2000/svg" xmlns:xlink="http://www.w3.org/1999/xlink" width="28pt" height="28pt" viewBox="0 0 28 28" version="1.1">
<g id="surface1">
<path style=" stroke:none;fill-rule:nonzero;fill:rgb(0%,0%,0%);fill-opacity:1;" d="M 19.132812 3.402344 C 18.542969 3.144531 17.855469 3.414062 17.597656 4.003906 C 17.339844 4.59375 17.609375 5.28125 18.199219 5.539062 C 21.996094 7.199219 24.5 10.953125 24.5 15.167969 C 24.5 20.964844 19.796875 25.667969 14 25.667969 C 8.199219 25.667969 3.5 20.964844 3.5 15.167969 C 3.5 10.953125 6.003906 7.199219 9.800781 5.539062 C 10.390625 5.28125 10.660156 4.59375 10.402344 4.003906 C 10.144531 3.414062 9.453125 3.144531 8.863281 3.402344 C 4.226562 5.429688 1.167969 10.019531 1.167969 15.167969 C 1.167969 22.253906 6.914062 28 14 28 C 21.085938 28 26.832031 22.253906 26.832031 15.167969 C 26.832031 10.015625 23.769531 5.425781 19.132812 3.402344 Z M 19.132812 3.402344 "/>
<path style=" stroke:none;fill-rule:nonzero;fill:rgb(0%,0%,0%);fill-opacity:1;" d="M 14 12.832031 C 14.644531 12.832031 15.167969 12.3125 15.167969 11.667969 L 15.167969 1.167969 C 15.167969 0.523438 14.644531 0 14 0 C 13.355469 0 12.832031 0.523438 12.832031 1.167969 L 12.832031 11.667969 C 12.832031 12.3125 13.355469 12.832031 14 12.832031 Z M 14 12.832031 "/>
</g>
</svg>
