<?xml version="1.0" encoding="UTF-8"?>
<svg xmlns="http://www.w3.org/2000/svg" xmlns:xlink="http://www.w3.org/1999/xlink" width="28pt" height="28pt" viewBox="0 0 28 28" version="1.1">
<g id="surface1">
<path style=" stroke:none;fill-rule:nonzero;fill:rgb(0%,0%,0%);fill-opacity:1;" d="M 4.347656 24.023438 C 3.261719 24.023438 2.375 24.90625 2.375 25.992188 C 2.375 27.078125 3.261719 27.964844 4.347656 27.964844 C 5.433594 27.964844 6.316406 27.078125 6.316406 25.992188 C 6.316406 24.90625 5.433594 24.023438 4.347656 24.023438 Z M 4.347656 27.140625 C 3.714844 27.140625 3.199219 26.628906 3.199219 25.992188 C 3.199219 25.359375 3.714844 24.84375 4.347656 24.84375 C 4.980469 24.84375 5.496094 25.359375 5.496094 25.992188 C 5.496094 26.628906 4.980469 27.140625 4.347656 27.140625 Z M 4.347656 27.140625 "/>
<path style=" stroke:none;fill-rule:nonzero;fill:rgb(0%,0%,0%);fill-opacity:1;" d="M 26.03125 4.472656 C 24.941406 4.472656 24.058594 5.359375 24.058594 6.445312 C 24.058594 7.53125 24.941406 8.414062 26.03125 8.414062 C 27.117188 8.414062 28 7.53125 28 6.445312 C 28 5.359375 27.117188 4.472656 26.03125 4.472656 Z M 26.03125 7.59375 C 25.394531 7.59375 24.878906 7.078125 24.878906 6.445312 C 24.878906 5.8125 25.394531 5.296875 26.03125 5.296875 C 26.664062 5.296875 27.179688 5.8125 27.179688 6.445312 C 27.179688 7.078125 26.664062 7.59375 26.03125 7.59375 Z M 26.03125 7.59375 "/>
<path style=" stroke:none;fill-rule:nonzero;fill:rgb(0%,0%,0%);fill-opacity:1;" d="M 25.546875 24.027344 C 24.460938 24.027344 23.578125 24.910156 23.578125 25.996094 C 23.578125 27.082031 24.460938 27.964844 25.546875 27.964844 C 26.636719 27.964844 27.519531 27.082031 27.519531 25.996094 C 27.519531 24.910156 26.636719 24.027344 25.546875 24.027344 Z M 25.546875 27.144531 C 24.914062 27.144531 24.398438 26.628906 24.398438 25.996094 C 24.398438 25.363281 24.914062 24.847656 25.546875 24.847656 C 26.183594 24.847656 26.699219 25.363281 26.699219 25.996094 C 26.699219 26.628906 26.183594 27.144531 25.546875 27.144531 Z M 25.546875 27.144531 "/>
<path style=" stroke:none;fill-rule:nonzero;fill:rgb(0%,0%,0%);fill-opacity:1;" d="M 13.132812 5.730469 C 12.988281 5.511719 12.738281 5.394531 12.476562 5.429688 L 11.664062 5.53125 C 11.4375 5.5625 11.28125 5.765625 11.308594 5.992188 C 11.335938 6.214844 11.542969 6.375 11.765625 6.347656 L 12.304688 6.277344 L 10.621094 9.167969 C 10.507812 9.363281 10.496094 9.601562 10.59375 9.804688 L 12.019531 12.828125 L 8.75 12.121094 C 8.53125 12.070312 8.300781 12.136719 8.136719 12.289062 L 5.699219 14.578125 L 5.363281 11.253906 C 5.34375 11.027344 5.210938 10.832031 5.011719 10.722656 L 2.082031 9.113281 L 5.144531 7.765625 C 5.347656 7.675781 5.496094 7.488281 5.539062 7.265625 L 6.164062 3.980469 L 8.390625 6.476562 C 8.542969 6.644531 8.765625 6.726562 8.988281 6.699219 L 9.203125 6.671875 C 9.425781 6.644531 9.585938 6.4375 9.558594 6.210938 C 9.53125 5.988281 9.324219 5.828125 9.097656 5.855469 L 8.957031 5.875 L 6.59375 3.226562 C 6.417969 3.03125 6.152344 2.953125 5.898438 3.023438 C 5.644531 3.09375 5.457031 3.296875 5.410156 3.554688 L 4.746094 7.042969 L 1.496094 8.472656 C 1.257812 8.578125 1.101562 8.804688 1.089844 9.066406 C 1.078125 9.332031 1.214844 9.570312 1.445312 9.699219 L 4.554688 11.40625 L 4.910156 14.9375 C 4.9375 15.199219 5.105469 15.417969 5.351562 15.511719 C 5.429688 15.539062 5.511719 15.554688 5.59375 15.554688 C 5.765625 15.554688 5.929688 15.492188 6.058594 15.367188 L 8.648438 12.9375 L 12.113281 13.691406 C 12.371094 13.746094 12.632812 13.652344 12.796875 13.449219 C 12.960938 13.242188 12.992188 12.96875 12.878906 12.730469 L 11.367188 9.519531 L 13.15625 6.453125 C 13.285156 6.226562 13.277344 5.949219 13.132812 5.730469 Z M 13.132812 5.730469 "/>
<path style=" stroke:none;fill-rule:nonzero;fill:rgb(0%,0%,0%);fill-opacity:1;" d="M 15.320312 22.226562 L 13.792969 20.507812 L 14.34375 18.28125 C 14.40625 18.023438 14.320312 17.761719 14.121094 17.59375 C 13.917969 17.421875 13.644531 17.382812 13.402344 17.488281 L 11.300781 18.410156 L 9.347656 17.199219 C 9.125 17.058594 8.847656 17.058594 8.625 17.199219 C 8.402344 17.335938 8.28125 17.585938 8.304688 17.847656 L 8.53125 20.132812 L 6.777344 21.613281 C 6.578125 21.78125 6.492188 22.046875 6.554688 22.300781 C 6.617188 22.554688 6.816406 22.75 7.070312 22.804688 L 9.316406 23.296875 L 10.183594 25.425781 C 10.28125 25.667969 10.503906 25.828125 10.765625 25.847656 C 10.785156 25.851562 10.800781 25.851562 10.816406 25.851562 C 11.058594 25.851562 11.28125 25.722656 11.40625 25.511719 L 11.957031 24.570312 C 12.070312 24.375 12.003906 24.125 11.808594 24.011719 C 11.613281 23.894531 11.363281 23.960938 11.246094 24.15625 L 10.835938 24.855469 L 10.046875 22.921875 C 9.964844 22.710938 9.78125 22.558594 9.5625 22.511719 L 7.519531 22.0625 L 9.117188 20.714844 C 9.289062 20.566406 9.378906 20.347656 9.355469 20.125 L 9.152344 18.042969 L 10.929688 19.144531 C 11.121094 19.265625 11.355469 19.28125 11.5625 19.191406 L 13.480469 18.351562 L 12.980469 20.382812 C 12.925781 20.601562 12.984375 20.832031 13.132812 21 L 14.519531 22.5625 L 13.449219 22.640625 C 13.222656 22.660156 13.050781 22.855469 13.070312 23.082031 C 13.085938 23.308594 13.285156 23.480469 13.507812 23.460938 L 14.859375 23.363281 C 15.121094 23.34375 15.34375 23.179688 15.441406 22.9375 C 15.542969 22.695312 15.496094 22.421875 15.320312 22.226562 Z M 15.320312 22.226562 "/>
<path style=" stroke:none;fill-rule:nonzero;fill:rgb(0%,0%,0%);fill-opacity:1;" d="M 25.726562 12.375 L 23.039062 10.972656 L 22.667969 7.964844 C 22.636719 7.703125 22.464844 7.488281 22.214844 7.402344 C 21.96875 7.3125 21.695312 7.375 21.507812 7.558594 L 19.347656 9.683594 L 16.371094 9.105469 C 16.113281 9.054688 15.851562 9.152344 15.695312 9.363281 C 15.535156 9.570312 15.507812 9.847656 15.625 10.082031 L 16.976562 12.796875 L 15.507812 15.449219 C 15.378906 15.675781 15.394531 15.953125 15.542969 16.167969 C 15.695312 16.386719 15.949219 16.496094 16.207031 16.457031 L 19.207031 16.011719 L 21.273438 18.226562 C 21.40625 18.367188 21.585938 18.445312 21.773438 18.445312 C 21.839844 18.445312 21.90625 18.4375 21.972656 18.414062 C 22.222656 18.339844 22.40625 18.132812 22.449219 17.875 L 22.953125 14.882812 L 25.699219 13.601562 C 25.9375 13.492188 26.089844 13.257812 26.09375 12.996094 C 26.101562 12.734375 25.960938 12.496094 25.726562 12.375 Z M 22.539062 14.167969 C 22.335938 14.265625 22.191406 14.453125 22.152344 14.675781 L 21.6875 17.464844 L 19.757812 15.398438 C 19.628906 15.257812 19.445312 15.179688 19.257812 15.179688 C 19.222656 15.179688 19.191406 15.183594 19.15625 15.1875 L 16.359375 15.601562 L 17.730469 13.132812 C 17.839844 12.933594 17.84375 12.695312 17.746094 12.492188 L 16.484375 9.964844 L 19.261719 10.503906 C 19.480469 10.546875 19.710938 10.476562 19.871094 10.320312 L 21.886719 8.339844 L 22.230469 11.144531 C 22.257812 11.367188 22.394531 11.5625 22.59375 11.667969 L 25.101562 12.976562 Z M 22.539062 14.167969 "/>
<path style=" stroke:none;fill-rule:nonzero;fill:rgb(0%,0%,0%);fill-opacity:1;" d="M 1.800781 1.601562 C 0.980469 1.601562 0.3125 2.265625 0.3125 3.085938 C 0.3125 3.90625 0.980469 4.574219 1.800781 4.574219 C 2.617188 4.574219 3.285156 3.90625 3.285156 3.085938 C 3.285156 2.265625 2.617188 1.601562 1.800781 1.601562 Z M 1.800781 3.753906 C 1.433594 3.753906 1.132812 3.453125 1.132812 3.085938 C 1.132812 2.71875 1.429688 2.421875 1.800781 2.421875 C 2.164062 2.421875 2.464844 2.71875 2.464844 3.085938 C 2.464844 3.453125 2.164062 3.753906 1.800781 3.753906 Z M 1.800781 3.753906 "/>
<path style=" stroke:none;fill-rule:nonzero;fill:rgb(0%,0%,0%);fill-opacity:1;" d="M 25.097656 18.023438 C 24.277344 18.023438 23.609375 18.691406 23.609375 19.511719 C 23.609375 20.332031 24.277344 21 25.097656 21 C 25.917969 21 26.582031 20.332031 26.582031 19.511719 C 26.582031 18.691406 25.917969 18.023438 25.097656 18.023438 Z M 25.097656 20.175781 C 24.730469 20.175781 24.429688 19.878906 24.429688 19.511719 C 24.429688 19.144531 24.730469 18.84375 25.097656 18.84375 C 25.464844 18.84375 25.761719 19.144531 25.761719 19.511719 C 25.761719 19.878906 25.464844 20.175781 25.097656 20.175781 Z M 25.097656 20.175781 "/>
<path style=" stroke:none;fill-rule:nonzero;fill:rgb(0%,0%,0%);fill-opacity:1;" d="M 17.777344 4.957031 C 16.960938 4.957031 16.292969 5.625 16.292969 6.445312 C 16.292969 7.265625 16.960938 7.933594 17.777344 7.933594 C 18.597656 7.933594 19.265625 7.265625 19.265625 6.445312 C 19.265625 5.625 18.597656 4.957031 17.777344 4.957031 Z M 17.777344 7.109375 C 17.414062 7.109375 17.113281 6.8125 17.113281 6.445312 C 17.113281 6.078125 17.414062 5.777344 17.777344 5.777344 C 18.144531 5.777344 18.445312 6.078125 18.445312 6.445312 C 18.445312 6.8125 18.144531 7.109375 17.777344 7.109375 Z M 17.777344 7.109375 "/>
<path style=" stroke:none;fill-rule:nonzero;fill:rgb(0%,0%,0%);fill-opacity:1;" d="M 15.382812 0.0351562 C 14.5625 0.0351562 13.894531 0.699219 13.894531 1.519531 C 13.894531 2.339844 14.5625 3.007812 15.382812 3.007812 C 16.203125 3.007812 16.867188 2.339844 16.867188 1.519531 C 16.867188 0.699219 16.203125 0.0351562 15.382812 0.0351562 Z M 15.382812 2.1875 C 15.015625 2.1875 14.714844 1.886719 14.714844 1.519531 C 14.714844 1.152344 15.015625 0.855469 15.382812 0.855469 C 15.75 0.855469 16.046875 1.152344 16.046875 1.519531 C 16.046875 1.886719 15.75 2.1875 15.382812 2.1875 Z M 15.382812 2.1875 "/>
<path style=" stroke:none;fill-rule:nonzero;fill:rgb(0%,0%,0%);fill-opacity:1;" d="M 1.488281 14.320312 C 0.667969 14.320312 0 14.988281 0 15.808594 C 0 16.628906 0.667969 17.296875 1.488281 17.296875 C 2.308594 17.296875 2.976562 16.628906 2.976562 15.808594 C 2.976562 14.988281 2.308594 14.320312 1.488281 14.320312 Z M 1.488281 16.472656 C 1.121094 16.472656 0.820312 16.175781 0.820312 15.808594 C 0.820312 15.441406 1.121094 15.140625 1.488281 15.140625 C 1.855469 15.140625 2.152344 15.441406 2.152344 15.808594 C 2.152344 16.175781 1.855469 16.472656 1.488281 16.472656 Z M 1.488281 16.472656 "/>
<path style=" stroke:none;fill-rule:nonzero;fill:rgb(0%,0%,0%);fill-opacity:1;" d="M 19.1875 22.945312 C 18.367188 22.945312 17.703125 23.613281 17.703125 24.433594 C 17.703125 25.253906 18.367188 25.921875 19.1875 25.921875 C 20.007812 25.921875 20.675781 25.253906 20.675781 24.433594 C 20.675781 23.613281 20.007812 22.945312 19.1875 22.945312 Z M 19.1875 25.101562 C 18.820312 25.101562 18.523438 24.800781 18.523438 24.433594 C 18.523438 24.066406 18.820312 23.769531 19.1875 23.769531 C 19.554688 23.769531 19.855469 24.066406 19.855469 24.433594 C 19.855469 24.800781 19.554688 25.101562 19.1875 25.101562 Z M 19.1875 25.101562 "/>
</g>
</svg>
