<?xml version="1.0" encoding="UTF-8"?>
<svg xmlns="http://www.w3.org/2000/svg" xmlns:xlink="http://www.w3.org/1999/xlink" width="28pt" height="28pt" viewBox="0 0 28 28" version="1.1">
<g id="surface1">
<path style=" stroke:none;fill-rule:nonzero;fill:rgb(0%,0%,0%);fill-opacity:1;" d="M 9.863281 0 C 9.160156 0 8.589844 0.570312 8.589844 1.273438 L 8.589844 26.726562 C 8.589844 27.429688 9.160156 28 9.863281 28 C 10.566406 28 11.136719 27.429688 11.136719 26.726562 L 11.136719 1.273438 C 11.136719 0.570312 10.566406 0 9.863281 0 Z M 9.863281 0 "/>
<path style=" stroke:none;fill-rule:nonzero;fill:rgb(0%,0%,0%);fill-opacity:1;" d="M 18.136719 0 C 17.433594 0 16.863281 0.570312 16.863281 1.273438 L 16.863281 26.726562 C 16.863281 27.429688 17.433594 28 18.136719 28 C 18.839844 28 19.410156 27.429688 19.410156 26.726562 L 19.410156 1.273438 C 19.410156 0.570312 18.839844 0 18.136719 0 Z M 18.136719 0 "/>
</g>
</svg>
