<?xml version="1.0" encoding="UTF-8"?>
<svg xmlns="http://www.w3.org/2000/svg" xmlns:xlink="http://www.w3.org/1999/xlink" width="28pt" height="28pt" viewBox="0 0 28 28" version="1.1">
<g id="surface1">
<path style=" stroke:none;fill-rule:nonzero;fill:rgb(0%,0%,0%);fill-opacity:1;" d="M 27.867188 11.066406 C 27.515625 10.1875 26.519531 9.757812 25.640625 10.105469 C 25.59375 10.125 25.550781 10.144531 25.503906 10.164062 L 24.234375 10.804688 L 21.636719 7.339844 C 21.601562 7.296875 21.5625 7.257812 21.519531 7.230469 L 18.683594 5.339844 C 18.628906 5.300781 18.5625 5.277344 18.496094 5.265625 L 12.355469 4.320312 C 12.207031 4.300781 12.054688 4.347656 11.949219 4.453125 L 8.429688 7.960938 C 7.835938 8.550781 7.835938 9.507812 8.425781 10.101562 C 8.425781 10.101562 8.425781 10.101562 8.429688 10.105469 C 8.992188 10.664062 9.894531 10.695312 10.492188 10.171875 L 13.347656 7.675781 L 15.878906 8.398438 L 13.757812 13.054688 L 10.507812 17.699219 L 6.644531 21.175781 C 5.941406 21.78125 5.859375 22.839844 6.464844 23.546875 C 7.070312 24.25 8.128906 24.328125 8.832031 23.726562 L 13.089844 20.238281 L 15.636719 17.695312 L 18.863281 20.113281 L 18.144531 25.125 C 18.078125 25.59375 18.21875 26.070312 18.527344 26.425781 C 18.847656 26.792969 19.308594 26.996094 19.792969 26.992188 C 20.59375 26.992188 21.285156 26.421875 21.433594 25.632812 L 22.667969 19.046875 C 22.699219 18.882812 22.640625 18.714844 22.515625 18.605469 L 18.976562 15.511719 L 20.484375 11.371094 L 23.261719 14.546875 C 23.398438 14.703125 23.621094 14.753906 23.808594 14.667969 L 27 13.257812 C 27.835938 12.886719 28.222656 11.914062 27.867188 11.066406 Z M 26.617188 12.394531 L 23.746094 13.664062 L 20.667969 10.144531 C 20.496094 9.949219 20.195312 9.929688 20 10.101562 C 19.941406 10.152344 19.894531 10.222656 19.867188 10.296875 L 17.980469 15.492188 C 17.910156 15.675781 17.964844 15.878906 18.113281 16.007812 L 21.6875 19.136719 L 20.5 25.460938 C 20.429688 25.808594 20.117188 26.058594 19.761719 26.046875 C 19.378906 26.046875 19.070312 25.738281 19.074219 25.355469 C 19.074219 25.324219 19.074219 25.292969 19.078125 25.257812 L 19.835938 19.972656 C 19.859375 19.800781 19.789062 19.628906 19.652344 19.527344 L 15.871094 16.691406 C 15.683594 16.550781 15.421875 16.570312 15.253906 16.738281 L 12.457031 19.539062 L 8.234375 22.992188 C 7.921875 23.253906 7.457031 23.207031 7.199219 22.898438 C 6.945312 22.59375 6.980469 22.140625 7.277344 21.878906 L 11.179688 18.367188 C 11.207031 18.34375 11.230469 18.316406 11.25 18.285156 L 14.558594 13.5625 C 14.574219 13.539062 14.589844 13.511719 14.601562 13.488281 L 16.964844 8.289062 C 17.070312 8.054688 16.964844 7.773438 16.726562 7.664062 C 16.707031 7.65625 16.683594 7.648438 16.664062 7.640625 L 13.355469 6.695312 C 13.203125 6.652344 13.035156 6.6875 12.914062 6.796875 L 9.867188 9.460938 C 9.640625 9.675781 9.28125 9.664062 9.066406 9.433594 C 8.851562 9.207031 8.863281 8.847656 9.09375 8.632812 L 12.445312 5.292969 L 18.25 6.183594 L 20.925781 7.972656 L 23.714844 11.683594 C 23.851562 11.867188 24.097656 11.925781 24.300781 11.824219 L 25.929688 11.011719 C 26.117188 10.914062 26.339844 10.902344 26.542969 10.976562 C 26.757812 11.0625 26.921875 11.234375 27 11.449219 C 27.148438 11.816406 26.976562 12.234375 26.617188 12.394531 Z M 26.617188 12.394531 "/>
<path style=" stroke:none;fill-rule:nonzero;fill:rgb(0%,0%,0%);fill-opacity:1;" d="M 2.835938 3.84375 L 8.976562 3.84375 L 8.976562 4.789062 L 2.835938 4.789062 Z M 2.835938 3.84375 "/>
<path style=" stroke:none;fill-rule:nonzero;fill:rgb(0%,0%,0%);fill-opacity:1;" d="M 0.945312 3.84375 L 1.890625 3.84375 L 1.890625 4.789062 L 0.945312 4.789062 Z M 0.945312 3.84375 "/>
<path style=" stroke:none;fill-rule:nonzero;fill:rgb(0%,0%,0%);fill-opacity:1;" d="M 4.722656 7.621094 L 5.667969 7.621094 L 5.667969 8.566406 L 4.722656 8.566406 Z M 4.722656 7.621094 "/>
<path style=" stroke:none;fill-rule:nonzero;fill:rgb(0%,0%,0%);fill-opacity:1;" d="M 0 7.621094 L 3.777344 7.621094 L 3.777344 8.566406 L 0 8.566406 Z M 0 7.621094 "/>
<path style=" stroke:none;fill-rule:nonzero;fill:rgb(0%,0%,0%);fill-opacity:1;" d="M 2.363281 11.402344 L 7.085938 11.402344 L 7.085938 12.347656 L 2.363281 12.347656 Z M 2.363281 11.402344 "/>
<path style=" stroke:none;fill-rule:nonzero;fill:rgb(0%,0%,0%);fill-opacity:1;" d="M 0.945312 15.179688 L 8.976562 15.179688 L 8.976562 16.125 L 0.945312 16.125 Z M 0.945312 15.179688 "/>
<path style=" stroke:none;fill-rule:nonzero;fill:rgb(0%,0%,0%);fill-opacity:1;" d="M 1.890625 18.960938 L 5.667969 18.960938 L 5.667969 19.90625 L 1.890625 19.90625 Z M 1.890625 18.960938 "/>
<path style=" stroke:none;fill-rule:nonzero;fill:rgb(0%,0%,0%);fill-opacity:1;" d="M 0 18.960938 L 0.945312 18.960938 L 0.945312 19.90625 L 0 19.90625 Z M 0 18.960938 "/>
<path style=" stroke:none;fill-rule:nonzero;fill:rgb(0%,0%,0%);fill-opacity:1;" d="M 0.945312 22.738281 L 4.25 22.738281 L 4.25 23.683594 L 0.945312 23.683594 Z M 0.945312 22.738281 "/>
<path style=" stroke:none;fill-rule:nonzero;fill:rgb(0%,0%,0%);fill-opacity:1;" d="M 23.617188 1.007812 L 21.492188 1.007812 C 20.058594 1.007812 18.894531 2.171875 18.894531 3.609375 C 18.894531 5.042969 20.058594 6.207031 21.492188 6.207031 C 22.929688 6.207031 24.089844 5.042969 24.089844 3.609375 L 24.089844 1.480469 C 24.089844 1.222656 23.878906 1.007812 23.617188 1.007812 Z M 23.144531 3.609375 C 23.148438 4.515625 22.414062 5.257812 21.507812 5.261719 C 20.996094 5.261719 20.515625 5.027344 20.199219 4.625 C 20.988281 3.847656 22.039062 3.402344 23.144531 3.378906 Z M 23.144531 2.433594 C 21.9375 2.453125 20.769531 2.894531 19.847656 3.671875 C 19.847656 3.652344 19.839844 3.628906 19.839844 3.609375 C 19.839844 2.695312 20.578125 1.953125 21.492188 1.953125 L 23.144531 1.953125 Z M 23.144531 2.433594 "/>
</g>
</svg>
