<?xml version="1.0" encoding="UTF-8"?>
<svg xmlns="http://www.w3.org/2000/svg" xmlns:xlink="http://www.w3.org/1999/xlink" width="28pt" height="28pt" viewBox="0 0 28 28" version="1.1">
<g id="surface1">
<path style=" stroke:none;fill-rule:nonzero;fill:rgb(11.764706%,12.54902%,11.372549%);fill-opacity:1;" d="M 0.996094 14.996094 C 0.445312 14.996094 0.0078125 14.542969 0.0078125 13.992188 C 0.0078125 13.441406 0.445312 13.003906 0.996094 13.003906 L 12.996094 13.003906 L 12.996094 1.003906 C 12.996094 0.453125 13.449219 0 14 0 C 14.550781 0 14.988281 0.453125 14.988281 1.003906 L 14.988281 13.003906 L 26.988281 13.003906 C 27.539062 13.003906 27.992188 13.441406 27.992188 13.992188 C 27.992188 14.542969 27.539062 14.996094 26.988281 14.996094 L 14.988281 14.996094 L 14.988281 26.996094 C 14.988281 27.546875 14.550781 28 14 28 C 13.449219 28 12.996094 27.546875 12.996094 26.996094 L 12.996094 14.996094 Z M 0.996094 14.996094 "/>
</g>
</svg>
