<?xml version="1.0" encoding="UTF-8" standalone="no"?>
<!-- Generator: Adobe Illustrator 19.0.0, SVG Export Plug-In . SVG Version: 6.00 Build 0)  -->

<svg
   version="1.1"
   id="Capa_1"
   x="0px"
   y="0px"
   viewBox="0 0 512 512"
   style="enable-background:new 0 0 512 512;"
   xml:space="preserve"
   sodipodi:docname="resize.svg"
   inkscape:version="1.1 (c4e8f9e, 2021-05-24)"
   xmlns:inkscape="http://www.inkscape.org/namespaces/inkscape"
   xmlns:sodipodi="http://sodipodi.sourceforge.net/DTD/sodipodi-0.dtd"
   xmlns="http://www.w3.org/2000/svg"
   xmlns:svg="http://www.w3.org/2000/svg"><defs
   id="defs1290" /><sodipodi:namedview
   id="namedview1288"
   pagecolor="#ffffff"
   bordercolor="#666666"
   borderopacity="1.0"
   inkscape:pageshadow="2"
   inkscape:pageopacity="0.0"
   inkscape:pagecheckerboard="0"
   showgrid="false"
   inkscape:zoom="0.73535156"
   inkscape:cx="250.9004"
   inkscape:cy="248.18061"
   inkscape:window-width="1920"
   inkscape:window-height="1027"
   inkscape:window-x="0"
   inkscape:window-y="25"
   inkscape:window-maximized="1"
   inkscape:current-layer="Capa_1" />

<g
   id="g1257">
</g>
<g
   id="g1259">
</g>
<g
   id="g1261">
</g>
<g
   id="g1263">
</g>
<g
   id="g1265">
</g>
<g
   id="g1267">
</g>
<g
   id="g1269">
</g>
<g
   id="g1271">
</g>
<g
   id="g1273">
</g>
<g
   id="g1275">
</g>
<g
   id="g1277">
</g>
<g
   id="g1279">
</g>
<g
   id="g1281">
</g>
<g
   id="g1283">
</g>
<g
   id="g1285">
</g>
<g
   id="g1353"
   transform="matrix(1.0834544,0,0,1.0834544,126.34803,139.94687)">
	<path
   style="fill:#000002"
   d="M 217.576,214.708 152.388,146.914 C 168.527,131.364 178.597,109.559 178.597,85.43 178.597,38.324 140.274,0 93.167,0 46.06,0 7.737,38.323 7.737,85.43 c 0,47.106 38.323,85.43 85.43,85.43 17.574,0 33.924,-5.339 47.52,-14.474 l 66.077,68.719 c 1.473,1.531 3.439,2.302 5.407,2.302 1.87,0 3.743,-0.695 5.197,-2.094 2.986,-2.872 3.079,-7.62 0.208,-10.605 z M 22.737,85.43 C 22.737,46.595 54.332,15 93.167,15 c 38.835,0 70.43,31.595 70.43,70.43 0,38.835 -31.595,70.43 -70.43,70.43 -38.835,-0.001 -70.43,-31.595 -70.43,-70.43 z"
   id="path1349" />
	
</g><g
   id="g1355"
   transform="translate(-367.3236,145.35626)">
</g><g
   id="g1357"
   transform="translate(-367.3236,145.35626)">
</g><g
   id="g1359"
   transform="translate(-367.3236,145.35626)">
</g><g
   id="g1361"
   transform="translate(-367.3236,145.35626)">
</g><g
   id="g1363"
   transform="translate(-367.3236,145.35626)">
</g><g
   id="g1365"
   transform="translate(-367.3236,145.35626)">
</g><g
   id="g1367"
   transform="translate(-367.3236,145.35626)">
</g><g
   id="g1369"
   transform="translate(-367.3236,145.35626)">
</g><g
   id="g1371"
   transform="translate(-367.3236,145.35626)">
</g><g
   id="g1373"
   transform="translate(-367.3236,145.35626)">
</g><g
   id="g1375"
   transform="translate(-367.3236,145.35626)">
</g><g
   id="g1377"
   transform="translate(-367.3236,145.35626)">
</g><g
   id="g1379"
   transform="translate(-367.3236,145.35626)">
</g><g
   id="g1381"
   transform="translate(-367.3236,145.35626)">
</g><g
   id="g1383"
   transform="translate(-367.3236,145.35626)">
</g><g
   style="overflow:hidden;fill:currentColor"
   id="g1992"
   transform="matrix(0.47213133,0,0,0.47213133,16.967081,19.732388)"><path
     d="M 300.15344,264.67077 45.877599,355.1266 C 31.084822,360.42401 14.792777,352.62782 9.495364,337.83504 4.197951,323.04226 11.994144,306.75022 26.78692,301.45281 l 254.27584,-90.45584 c 14.79278,-5.29741 31.08482,2.49878 36.38224,17.29156 5.29741,14.79278 -2.49878,31.18477 -17.29156,36.38224 z"
     id="path1974" /><path
     d="M 113.2447,67.966813 64.36857,333.43719 C 61.569937,348.82967 46.577257,359.12465 31.184773,356.32601 15.792289,353.52738 5.497316,338.5347 8.295949,323.14222 L 57.172084,57.67184 C 59.970717,42.279356 74.963397,31.984383 90.355881,34.882967 105.74836,37.6816 116.04334,52.574329 113.2447,67.966813 Z"
     id="path1976" /><path
     d="m 84.958516,744.63641 m -24.987799,0 a 24.987802,24.987802 0 1 0 49.975603,0 24.987802,24.987802 0 1 0 -49.975603,0 z"
     id="path1978" /><path
     d="M 512.74963,0.499756 C 308.64929,0.499756 132.43533,120.04139 50.275451,292.857 H 106.34807 C 184.40996,148.52748 337.13538,50.475354 512.74963,50.475354 c 255.07545,0 461.77453,206.699076 461.77453,461.774526 0,255.07545 -206.69908,461.77452 -461.77453,461.77452 -175.61425,0 -328.33967,-98.05212 -406.40156,-242.38165 H 68.966325 v 20.98975 h -2.998536 v 2.99854 h -3.39834 C 149.12718,915.453 318.24461,1024 512.74963,1024 795.41161,1024 1024.4998,794.91186 1024.4998,512.24988 1024.4998,229.5879 795.41161,0.499756 512.74963,0.499756 Z"
     id="path1980" /></g></svg>
