<?xml version="1.0" encoding="UTF-8"?>
<svg xmlns="http://www.w3.org/2000/svg" xmlns:xlink="http://www.w3.org/1999/xlink" width="28pt" height="28pt" viewBox="0 0 28 28" version="1.1">
<g id="surface1">
<path style=" stroke:none;fill-rule:nonzero;fill:rgb(0%,0%,0%);fill-opacity:1;" d="M 14 0 C 6.28125 0 0 6.28125 0 14 C 0 21.71875 6.28125 28 14 28 C 21.71875 28 28 21.71875 28 14 C 28 6.28125 21.71875 0 14 0 Z M 14 26.15625 C 7.296875 26.15625 1.84375 20.703125 1.84375 14 C 1.84375 7.296875 7.296875 1.84375 14 1.84375 C 20.703125 1.84375 26.15625 7.296875 26.15625 14 C 26.15625 20.703125 20.703125 26.15625 14 26.15625 Z M 14 26.15625 "/>
<path style=" stroke:none;fill-rule:nonzero;fill:rgb(0%,0%,0%);fill-opacity:1;" d="M 14.921875 13.171875 L 14.921875 7.941406 C 15.441406 8.136719 15.898438 8.492188 16.214844 8.972656 C 16.492188 9.398438 17.066406 9.515625 17.488281 9.234375 C 17.914062 8.953125 18.03125 8.382812 17.753906 7.957031 C 17.089844 6.953125 16.070312 6.269531 14.921875 6.03125 L 14.921875 4.566406 C 14.921875 4.058594 14.507812 3.644531 14 3.644531 C 13.492188 3.644531 13.078125 4.058594 13.078125 4.566406 L 13.078125 6.027344 C 11.039062 6.453125 9.503906 8.265625 9.503906 10.425781 C 9.503906 12.589844 11.039062 14.402344 13.078125 14.828125 L 13.078125 20.058594 C 12.558594 19.863281 12.101562 19.507812 11.785156 19.027344 C 11.507812 18.601562 10.933594 18.484375 10.511719 18.765625 C 10.085938 19.046875 9.96875 19.617188 10.246094 20.042969 C 10.910156 21.046875 11.929688 21.730469 13.078125 21.96875 L 13.078125 23.433594 C 13.078125 23.941406 13.492188 24.355469 14 24.355469 C 14.507812 24.355469 14.921875 23.941406 14.921875 23.433594 L 14.921875 21.972656 C 16.960938 21.546875 18.496094 19.734375 18.496094 17.574219 C 18.496094 15.410156 16.960938 13.597656 14.921875 13.171875 Z M 11.34375 10.425781 C 11.34375 9.289062 12.070312 8.316406 13.078125 7.945312 L 13.078125 12.910156 C 12.070312 12.535156 11.34375 11.566406 11.34375 10.425781 Z M 14.921875 20.054688 L 14.921875 15.089844 C 15.929688 15.464844 16.652344 16.433594 16.652344 17.574219 C 16.652344 18.710938 15.929688 19.683594 14.921875 20.054688 Z M 14.921875 20.054688 "/>
</g>
</svg>
