<?xml version="1.0" encoding="UTF-8"?>
<svg xmlns="http://www.w3.org/2000/svg" xmlns:xlink="http://www.w3.org/1999/xlink" width="28pt" height="28pt" viewBox="0 0 28 28" version="1.1">
<g id="surface1">
<path style=" stroke:none;fill-rule:nonzero;fill:rgb(0%,0%,0%);fill-opacity:1;" d="M 27.753906 23.300781 L 15.46875 2.929688 C 15.160156 2.414062 14.601562 2.097656 14 2.097656 C 13.398438 2.097656 12.839844 2.414062 12.53125 2.929688 L 0.246094 23.300781 C -0.0742188 23.832031 -0.0820312 24.492188 0.222656 25.03125 C 0.527344 25.570312 1.097656 25.902344 1.714844 25.902344 L 26.285156 25.902344 C 26.902344 25.902344 27.472656 25.570312 27.777344 25.03125 C 28.082031 24.492188 28.074219 23.832031 27.753906 23.300781 Z M 14.007812 9.144531 C 14.714844 9.144531 15.3125 9.542969 15.3125 10.25 C 15.3125 12.402344 15.058594 15.496094 15.058594 17.648438 C 15.058594 18.207031 14.445312 18.445312 14.007812 18.445312 C 13.429688 18.445312 12.941406 18.207031 12.941406 17.648438 C 12.941406 15.496094 12.6875 12.402344 12.6875 10.25 C 12.6875 9.542969 13.265625 9.144531 14.007812 9.144531 Z M 14.027344 22.476562 C 13.230469 22.476562 12.632812 21.828125 12.632812 21.085938 C 12.632812 20.324219 13.230469 19.691406 14.027344 19.691406 C 14.769531 19.691406 15.402344 20.324219 15.402344 21.085938 C 15.402344 21.828125 14.769531 22.476562 14.027344 22.476562 Z M 14.027344 22.476562 "/>
</g>
</svg>
