<?xml version="1.0" encoding="UTF-8"?>
<svg xmlns="http://www.w3.org/2000/svg" xmlns:xlink="http://www.w3.org/1999/xlink" width="28pt" height="28pt" viewBox="0 0 28 28" version="1.1">
<g id="surface1">
<path style=" stroke:none;fill-rule:nonzero;fill:rgb(0%,0%,0%);fill-opacity:1;" d="M 21.03125 13.617188 C 21.136719 13.601562 21.230469 13.566406 21.3125 13.519531 C 21.394531 13.46875 21.460938 13.398438 21.511719 13.308594 C 21.5625 13.21875 21.585938 13.097656 21.585938 12.953125 C 21.585938 12.804688 21.5625 12.6875 21.511719 12.597656 C 21.460938 12.507812 21.394531 12.4375 21.3125 12.386719 C 21.230469 12.335938 21.136719 12.304688 21.03125 12.285156 C 20.921875 12.269531 20.808594 12.261719 20.695312 12.261719 L 19.90625 12.261719 L 19.90625 13.644531 L 20.695312 13.644531 C 20.808594 13.644531 20.921875 13.636719 21.03125 13.617188 Z M 21.03125 13.617188 "/>
<path style=" stroke:none;fill-rule:nonzero;fill:rgb(0%,0%,0%);fill-opacity:1;" d="M 16.898438 12.703125 C 16.800781 12.554688 16.667969 12.4375 16.511719 12.347656 C 16.351562 12.257812 16.15625 12.214844 15.929688 12.214844 C 15.699219 12.214844 15.503906 12.257812 15.347656 12.347656 C 15.1875 12.4375 15.058594 12.554688 14.957031 12.703125 C 14.859375 12.851562 14.785156 13.019531 14.742188 13.210938 C 14.695312 13.402344 14.671875 13.597656 14.671875 13.800781 C 14.671875 13.992188 14.695312 14.183594 14.742188 14.363281 C 14.785156 14.546875 14.859375 14.714844 14.957031 14.859375 C 15.058594 15.007812 15.1875 15.125 15.347656 15.210938 C 15.503906 15.300781 15.699219 15.34375 15.929688 15.34375 C 16.15625 15.34375 16.351562 15.300781 16.511719 15.210938 C 16.667969 15.125 16.800781 15.007812 16.898438 14.859375 C 16.996094 14.714844 17.070312 14.546875 17.113281 14.363281 C 17.160156 14.183594 17.183594 13.992188 17.183594 13.800781 C 17.183594 13.597656 17.160156 13.398438 17.113281 13.210938 C 17.070312 13.019531 16.996094 12.851562 16.898438 12.703125 Z M 16.898438 12.703125 "/>
<path style=" stroke:none;fill-rule:nonzero;fill:rgb(0%,0%,0%);fill-opacity:1;" d="M 8.621094 4.527344 L 3.234375 14.011719 L 8.621094 23.496094 L 19.398438 23.496094 L 24.789062 14.011719 L 19.398438 4.527344 Z M 9.183594 15.304688 C 9.101562 15.488281 8.980469 15.644531 8.816406 15.773438 C 8.65625 15.90625 8.457031 16.007812 8.214844 16.082031 C 7.976562 16.15625 7.699219 16.191406 7.386719 16.191406 C 7.132812 16.191406 6.882812 16.160156 6.644531 16.097656 C 6.40625 16.035156 6.195312 15.9375 6.011719 15.804688 C 5.828125 15.671875 5.683594 15.5 5.574219 15.292969 C 5.46875 15.085938 5.414062 14.839844 5.417969 14.554688 L 6.402344 14.554688 C 6.402344 14.710938 6.429688 14.84375 6.488281 14.949219 C 6.542969 15.058594 6.617188 15.144531 6.710938 15.210938 C 6.800781 15.28125 6.910156 15.328125 7.035156 15.359375 C 7.160156 15.394531 7.289062 15.410156 7.425781 15.410156 C 7.515625 15.410156 7.613281 15.402344 7.714844 15.386719 C 7.820312 15.371094 7.914062 15.34375 8.007812 15.300781 C 8.097656 15.257812 8.171875 15.199219 8.234375 15.121094 C 8.292969 15.046875 8.324219 14.949219 8.324219 14.835938 C 8.324219 14.710938 8.285156 14.609375 8.203125 14.53125 C 8.125 14.453125 8.019531 14.386719 7.890625 14.335938 C 7.761719 14.285156 7.613281 14.238281 7.449219 14.199219 C 7.285156 14.160156 7.121094 14.117188 6.953125 14.070312 C 6.78125 14.027344 6.613281 13.976562 6.449219 13.914062 C 6.285156 13.851562 6.136719 13.769531 6.007812 13.671875 C 5.878906 13.570312 5.773438 13.449219 5.695312 13.296875 C 5.613281 13.148438 5.574219 12.96875 5.574219 12.757812 C 5.574219 12.523438 5.625 12.316406 5.726562 12.140625 C 5.828125 11.964844 5.960938 11.820312 6.125 11.703125 C 6.289062 11.589844 6.472656 11.503906 6.679688 11.445312 C 6.886719 11.390625 7.09375 11.363281 7.300781 11.363281 C 7.542969 11.363281 7.773438 11.390625 7.996094 11.441406 C 8.21875 11.496094 8.414062 11.585938 8.589844 11.703125 C 8.761719 11.824219 8.898438 11.980469 9 12.167969 C 9.101562 12.355469 9.152344 12.582031 9.152344 12.847656 L 8.167969 12.847656 C 8.160156 12.710938 8.128906 12.597656 8.082031 12.507812 C 8.03125 12.417969 7.964844 12.34375 7.882812 12.292969 C 7.800781 12.242188 7.707031 12.207031 7.601562 12.183594 C 7.496094 12.160156 7.382812 12.152344 7.257812 12.152344 C 7.175781 12.152344 7.09375 12.160156 7.011719 12.175781 C 6.929688 12.195312 6.855469 12.222656 6.789062 12.265625 C 6.722656 12.308594 6.664062 12.363281 6.621094 12.429688 C 6.578125 12.492188 6.558594 12.574219 6.558594 12.675781 C 6.558594 12.765625 6.574219 12.839844 6.609375 12.894531 C 6.644531 12.949219 6.710938 13.003906 6.8125 13.050781 C 6.914062 13.097656 7.054688 13.144531 7.234375 13.191406 C 7.414062 13.238281 7.644531 13.300781 7.933594 13.375 C 8.023438 13.390625 8.140625 13.421875 8.292969 13.46875 C 8.445312 13.511719 8.597656 13.585938 8.75 13.683594 C 8.902344 13.785156 9.03125 13.914062 9.140625 14.082031 C 9.25 14.246094 9.304688 14.460938 9.304688 14.71875 C 9.304688 14.929688 9.265625 15.125 9.183594 15.304688 Z M 13.328125 12.324219 L 11.945312 12.324219 L 11.945312 16.089844 L 10.929688 16.089844 L 10.929688 12.324219 L 9.546875 12.324219 L 9.546875 11.472656 L 13.328125 11.472656 Z M 18.042969 14.742188 C 17.9375 15.03125 17.789062 15.285156 17.597656 15.5 C 17.402344 15.714844 17.164062 15.886719 16.886719 16.007812 C 16.605469 16.128906 16.285156 16.191406 15.929688 16.191406 C 15.574219 16.191406 15.257812 16.128906 14.972656 16.007812 C 14.691406 15.886719 14.453125 15.714844 14.257812 15.5 C 14.066406 15.285156 13.917969 15.03125 13.8125 14.742188 C 13.710938 14.449219 13.65625 14.136719 13.65625 13.800781 C 13.65625 13.453125 13.710938 13.132812 13.8125 12.839844 C 13.917969 12.542969 14.066406 12.285156 14.257812 12.066406 C 14.453125 11.847656 14.691406 11.675781 14.972656 11.550781 C 15.257812 11.425781 15.574219 11.363281 15.929688 11.363281 C 16.285156 11.363281 16.605469 11.425781 16.886719 11.550781 C 17.164062 11.675781 17.402344 11.847656 17.597656 12.066406 C 17.789062 12.285156 17.9375 12.542969 18.042969 12.839844 C 18.144531 13.132812 18.199219 13.453125 18.199219 13.800781 C 18.199219 14.136719 18.144531 14.449219 18.042969 14.742188 Z M 21.707031 11.597656 C 21.910156 11.679688 22.078125 11.792969 22.203125 11.929688 C 22.332031 12.070312 22.421875 12.226562 22.480469 12.402344 C 22.539062 12.578125 22.570312 12.761719 22.570312 12.953125 C 22.570312 13.136719 22.539062 13.320312 22.480469 13.5 C 22.421875 13.675781 22.332031 13.835938 22.203125 13.972656 C 22.078125 14.113281 21.910156 14.222656 21.707031 14.308594 C 21.507812 14.390625 21.261719 14.433594 20.972656 14.433594 L 19.90625 14.433594 L 19.90625 16.089844 L 18.890625 16.089844 L 18.890625 11.472656 L 20.972656 11.472656 C 21.261719 11.472656 21.507812 11.515625 21.707031 11.597656 Z M 21.707031 11.597656 "/>
<path style=" stroke:none;fill-rule:nonzero;fill:rgb(0%,0%,0%);fill-opacity:1;" d="M 27.742188 13.460938 L 21.164062 2.023438 L 20.867188 1.507812 L 6.933594 1.507812 L 6.636719 2.023438 L 0.28125 13.46875 L 0 13.972656 L 0.28125 14.484375 L 6.636719 25.953125 L 6.933594 26.511719 L 20.867188 26.511719 L 21.164062 25.953125 L 27.742188 14.480469 L 28.019531 13.972656 Z M 20.253906 25.46875 L 7.542969 25.46875 L 1.1875 14.011719 L 7.542969 2.550781 L 20.175781 2.550781 L 26.792969 14.011719 Z M 20.253906 25.46875 "/>
</g>
</svg>
