<?xml version="1.0" encoding="UTF-8"?>
<svg xmlns="http://www.w3.org/2000/svg" xmlns:xlink="http://www.w3.org/1999/xlink" width="28pt" height="28pt" viewBox="0 0 28 28" version="1.1">
<g id="surface1">
<path style=" stroke:none;fill-rule:nonzero;fill:rgb(0%,0%,0%);fill-opacity:1;" d="M 16.070312 3.460938 C 15.613281 3.199219 15.070312 3.203125 14.617188 3.46875 C 14.585938 3.484375 14.558594 3.507812 14.535156 3.53125 L 8.355469 9.28125 C 8.285156 9.316406 8.210938 9.332031 8.132812 9.332031 L 4.25 9.332031 C 3.449219 9.332031 2.800781 9.984375 2.800781 10.78125 L 2.800781 16.75 C 2.800781 17.550781 3.449219 18.199219 4.25 18.199219 L 8.132812 18.199219 C 8.210938 18.199219 8.285156 18.21875 8.355469 18.25 L 14.535156 24.003906 C 14.5625 24.027344 14.589844 24.046875 14.617188 24.066406 C 14.847656 24.199219 15.097656 24.269531 15.351562 24.269531 C 15.597656 24.269531 15.84375 24.203125 16.070312 24.074219 C 16.527344 23.8125 16.800781 23.34375 16.800781 22.816406 L 16.800781 4.714844 C 16.800781 4.191406 16.527344 3.722656 16.070312 3.460938 Z M 15.867188 22.816406 C 15.867188 23.085938 15.683594 23.21875 15.605469 23.265625 C 15.535156 23.304688 15.34375 23.386719 15.128906 23.28125 L 8.949219 17.527344 C 8.921875 17.503906 8.894531 17.484375 8.867188 17.464844 C 8.644531 17.335938 8.390625 17.265625 8.132812 17.265625 L 4.25 17.265625 C 3.964844 17.265625 3.734375 17.035156 3.734375 16.75 L 3.734375 10.78125 C 3.734375 10.496094 3.964844 10.265625 4.25 10.265625 L 8.132812 10.265625 C 8.390625 10.265625 8.644531 10.199219 8.867188 10.066406 C 8.894531 10.050781 8.921875 10.03125 8.949219 10.003906 L 15.128906 4.25 C 15.347656 4.144531 15.535156 4.226562 15.609375 4.269531 C 15.683594 4.3125 15.867188 4.445312 15.867188 4.714844 Z M 15.867188 22.816406 "/>
<path style=" stroke:none;fill-rule:nonzero;fill:rgb(0%,0%,0%);fill-opacity:1;" d="M 19.523438 8.070312 C 19.339844 8.253906 19.339844 8.546875 19.523438 8.730469 C 22.433594 11.640625 22.433594 16.378906 19.523438 19.289062 C 19.339844 19.472656 19.339844 19.765625 19.523438 19.949219 C 19.613281 20.039062 19.734375 20.085938 19.851562 20.085938 C 19.972656 20.085938 20.089844 20.039062 20.183594 19.949219 C 23.457031 16.675781 23.457031 11.34375 20.183594 8.070312 C 20 7.886719 19.703125 7.886719 19.523438 8.070312 Z M 19.523438 8.070312 "/>
<path style=" stroke:none;fill-rule:nonzero;fill:rgb(0%,0%,0%);fill-opacity:1;" d="M 18.53125 9.46875 C 18.347656 9.289062 18.050781 9.289062 17.871094 9.46875 C 17.6875 9.652344 17.6875 9.949219 17.871094 10.128906 C 19.875 12.136719 19.875 15.398438 17.871094 17.402344 C 17.6875 17.585938 17.6875 17.878906 17.871094 18.0625 C 17.960938 18.152344 18.082031 18.199219 18.199219 18.199219 C 18.320312 18.199219 18.4375 18.152344 18.53125 18.0625 C 20.898438 15.695312 20.898438 11.839844 18.53125 9.46875 Z M 18.53125 9.46875 "/>
<path style=" stroke:none;fill-rule:nonzero;fill:rgb(0%,0%,0%);fill-opacity:1;" d="M 14 0 C 6.28125 0 0 6.28125 0 14 C 0 21.71875 6.28125 28 14 28 C 21.71875 28 28 21.71875 28 14 C 28 6.28125 21.71875 0 14 0 Z M 14 27.066406 C 6.796875 27.066406 0.933594 21.203125 0.933594 14 C 0.933594 6.796875 6.796875 0.933594 14 0.933594 C 21.203125 0.933594 27.066406 6.796875 27.066406 14 C 27.066406 21.203125 21.203125 27.066406 14 27.066406 Z M 14 27.066406 "/>
</g>
</svg>
