<?xml version="1.0" encoding="UTF-8"?>
<svg xmlns="http://www.w3.org/2000/svg" xmlns:xlink="http://www.w3.org/1999/xlink" width="28pt" height="28pt" viewBox="0 0 28 28" version="1.1">
<g id="surface1">
<path style=" stroke:none;fill-rule:nonzero;fill:rgb(0%,0%,0%);fill-opacity:1;" d="M 18.871094 3.460938 C 18.414062 3.199219 17.871094 3.203125 17.417969 3.46875 C 17.386719 3.484375 17.359375 3.507812 17.335938 3.53125 L 11.15625 9.28125 C 11.085938 9.316406 11.011719 9.332031 10.933594 9.332031 L 7.046875 9.332031 C 6.25 9.332031 5.601562 9.984375 5.601562 10.78125 L 5.601562 16.75 C 5.601562 17.550781 6.25 18.199219 7.046875 18.199219 L 10.933594 18.199219 C 11.011719 18.199219 11.085938 18.21875 11.15625 18.25 L 17.335938 24.003906 C 17.359375 24.027344 17.386719 24.046875 17.417969 24.066406 C 17.648438 24.199219 17.898438 24.269531 18.152344 24.269531 C 18.398438 24.269531 18.644531 24.203125 18.871094 24.074219 C 19.328125 23.8125 19.601562 23.34375 19.601562 22.816406 L 19.601562 4.714844 C 19.601562 4.191406 19.328125 3.722656 18.871094 3.460938 Z M 18.667969 22.816406 C 18.667969 23.085938 18.484375 23.21875 18.40625 23.265625 C 18.332031 23.304688 18.144531 23.386719 17.929688 23.28125 L 11.75 17.527344 C 11.722656 17.503906 11.695312 17.484375 11.667969 17.464844 C 11.445312 17.335938 11.191406 17.265625 10.933594 17.265625 L 7.046875 17.265625 C 6.765625 17.265625 6.535156 17.035156 6.535156 16.75 L 6.535156 10.78125 C 6.535156 10.496094 6.765625 10.265625 7.046875 10.265625 L 10.933594 10.265625 C 11.191406 10.265625 11.445312 10.199219 11.667969 10.066406 C 11.695312 10.050781 11.722656 10.03125 11.75 10.003906 L 17.929688 4.25 C 18.144531 4.144531 18.335938 4.226562 18.40625 4.269531 C 18.484375 4.3125 18.667969 4.445312 18.667969 4.714844 Z M 18.667969 22.816406 "/>
<path style=" stroke:none;fill-rule:nonzero;fill:rgb(0%,0%,0%);fill-opacity:1;" d="M 14 0 C 6.28125 0 0 6.28125 0 14 C 0 21.71875 6.28125 28 14 28 C 21.71875 28 28 21.71875 28 14 C 28 6.28125 21.71875 0 14 0 Z M 14 27.066406 C 6.796875 27.066406 0.933594 21.203125 0.933594 14 C 0.933594 6.796875 6.796875 0.933594 14 0.933594 C 21.203125 0.933594 27.066406 6.796875 27.066406 14 C 27.066406 21.203125 21.203125 27.066406 14 27.066406 Z M 14 27.066406 "/>
</g>
</svg>
