<?xml version="1.0" encoding="UTF-8"?>
<svg xmlns="http://www.w3.org/2000/svg" xmlns:xlink="http://www.w3.org/1999/xlink" width="28pt" height="28pt" viewBox="0 0 28 28" version="1.1">
<g id="surface1">
<path style=" stroke:none;fill-rule:nonzero;fill:rgb(0%,0%,0%);fill-opacity:1;" d="M 26.289062 0.601562 C 25.671875 0.601562 25.171875 1.097656 25.171875 1.71875 L 25.171875 6.796875 L 20.957031 9.105469 C 19.167969 6.59375 16.023438 5.617188 13.65625 6.921875 L 1.199219 13.535156 C 0.65625 13.824219 0.449219 14.503906 0.734375 15.042969 C 1.023438 15.585938 1.695312 15.792969 2.242188 15.507812 L 3.910156 14.625 C 3.992188 15.847656 4.363281 17.339844 5.238281 18.679688 C 7.355469 21.925781 9.625 23.1875 11.277344 22.421875 L 19.71875 17.75 C 21.519531 16.734375 22.953125 14.273438 21.953125 11.101562 L 25.171875 9.339844 L 25.171875 26.277344 C 25.171875 26.894531 25.671875 27.394531 26.289062 27.394531 C 26.90625 27.394531 27.402344 26.894531 27.402344 26.277344 L 27.402344 1.71875 C 27.402344 1.097656 26.902344 0.601562 26.289062 0.601562 Z M 7.1875 17.582031 C 5.992188 15.476562 6.003906 13.808594 6.292969 13.5625 C 6.859375 13.5625 8.207031 14.570312 9.273438 16.449219 C 10.46875 18.554688 10.457031 20.222656 10.203125 20.464844 C 10.203125 20.464844 10.195312 20.46875 10.167969 20.46875 C 9.597656 20.46875 8.253906 19.464844 7.1875 17.582031 Z M 18.636719 15.792969 L 12.523438 19.179688 C 12.402344 18.007812 11.953125 16.652344 11.214844 15.351562 C 10.441406 13.976562 9.488281 12.878906 8.519531 12.179688 L 14.710938 8.886719 C 16.039062 8.152344 17.824219 8.738281 18.972656 10.183594 L 15.40625 12.140625 C 14.863281 12.4375 14.667969 13.113281 14.960938 13.65625 C 15.257812 14.195312 15.9375 14.394531 16.476562 14.097656 L 19.9375 12.207031 C 20.148438 12.917969 20.148438 15.027344 18.636719 15.792969 Z M 18.636719 15.792969 "/>
</g>
</svg>
