<?xml version="1.0" encoding="UTF-8"?>
<svg xmlns="http://www.w3.org/2000/svg" xmlns:xlink="http://www.w3.org/1999/xlink" width="28pt" height="28pt" viewBox="0 0 28 28" version="1.1">
<g id="surface1">
<path style=" stroke:none;fill-rule:nonzero;fill:rgb(0%,0%,0%);fill-opacity:1;" d="M 27.484375 6.34375 L 26.253906 6.34375 L 26.253906 5.179688 C 26.253906 4.917969 26.054688 4.695312 25.796875 4.667969 L 18.65625 3.828125 C 17.050781 3.640625 15.449219 3.90625 14 4.601562 C 12.550781 3.90625 10.949219 3.640625 9.34375 3.828125 L 2.203125 4.667969 C 1.945312 4.695312 1.746094 4.917969 1.746094 5.179688 L 1.746094 6.34375 L 0.515625 6.34375 C 0.230469 6.34375 0 6.574219 0 6.859375 L 0 23.714844 C 0 24 0.230469 24.230469 0.515625 24.230469 L 27.484375 24.230469 C 27.769531 24.230469 28 24 28 23.714844 L 28 6.859375 C 28 6.574219 27.769531 6.34375 27.484375 6.34375 Z M 18.535156 4.851562 L 25.222656 5.636719 L 25.222656 20.957031 L 18.65625 20.183594 C 17.238281 20.019531 15.824219 20.207031 14.515625 20.734375 L 14.515625 5.5 C 15.769531 4.914062 17.152344 4.6875 18.535156 4.851562 Z M 9.464844 4.851562 C 10.847656 4.6875 12.230469 4.914062 13.484375 5.5 L 13.484375 20.734375 C 12.484375 20.332031 11.417969 20.125 10.34375 20.125 C 10.011719 20.125 9.679688 20.144531 9.34375 20.183594 L 2.777344 20.957031 L 2.777344 5.636719 Z M 26.96875 23.199219 L 1.03125 23.199219 L 1.03125 7.375 L 1.746094 7.375 L 1.746094 21.535156 C 1.746094 21.683594 1.8125 21.820312 1.921875 21.917969 C 2.03125 22.015625 2.175781 22.0625 2.324219 22.046875 L 9.464844 21.207031 C 10.949219 21.035156 12.4375 21.304688 13.761719 21.992188 C 13.910156 22.070312 14.089844 22.070312 14.238281 21.992188 C 15.5625 21.304688 17.050781 21.035156 18.535156 21.207031 L 25.675781 22.046875 C 25.695312 22.046875 25.71875 22.050781 25.738281 22.050781 C 25.863281 22.050781 25.984375 22.003906 26.078125 21.917969 C 26.1875 21.820312 26.25 21.683594 26.25 21.535156 L 26.25 7.375 L 26.96875 7.375 Z M 26.96875 23.199219 "/>
<path style=" stroke:none;fill-rule:nonzero;fill:rgb(0%,0%,0%);fill-opacity:1;" d="M 15.703125 7.753906 C 16.625 7.5 17.574219 7.429688 18.523438 7.542969 L 23.886719 8.171875 C 23.90625 8.175781 23.929688 8.175781 23.949219 8.175781 C 24.207031 8.175781 24.429688 7.984375 24.460938 7.722656 C 24.492188 7.4375 24.289062 7.183594 24.007812 7.148438 L 18.644531 6.519531 C 17.5625 6.390625 16.480469 6.472656 15.429688 6.757812 C 15.15625 6.832031 14.996094 7.117188 15.070312 7.390625 C 15.144531 7.664062 15.425781 7.828125 15.703125 7.753906 Z M 15.703125 7.753906 "/>
<path style=" stroke:none;fill-rule:nonzero;fill:rgb(0%,0%,0%);fill-opacity:1;" d="M 4.03125 8.175781 C 4.050781 8.175781 4.074219 8.175781 4.09375 8.171875 L 9.457031 7.542969 C 10.40625 7.433594 11.367188 7.503906 12.277344 7.753906 C 12.554688 7.828125 12.835938 7.667969 12.910156 7.390625 C 12.984375 7.117188 12.824219 6.832031 12.550781 6.757812 C 11.507812 6.476562 10.417969 6.394531 9.335938 6.519531 L 3.972656 7.148438 C 3.691406 7.183594 3.488281 7.4375 3.523438 7.722656 C 3.550781 7.984375 3.773438 8.175781 4.03125 8.175781 Z M 4.03125 8.175781 "/>
<path style=" stroke:none;fill-rule:nonzero;fill:rgb(0%,0%,0%);fill-opacity:1;" d="M 15.703125 10.113281 C 16.625 9.863281 17.574219 9.792969 18.523438 9.90625 L 23.886719 10.535156 C 23.90625 10.539062 23.929688 10.539062 23.949219 10.539062 C 24.207031 10.539062 24.429688 10.34375 24.460938 10.082031 C 24.492188 9.800781 24.289062 9.546875 24.007812 9.511719 L 18.644531 8.882812 C 17.5625 8.753906 16.480469 8.835938 15.429688 9.121094 C 15.15625 9.195312 14.996094 9.480469 15.070312 9.753906 C 15.144531 10.027344 15.425781 10.191406 15.703125 10.113281 Z M 15.703125 10.113281 "/>
<path style=" stroke:none;fill-rule:nonzero;fill:rgb(0%,0%,0%);fill-opacity:1;" d="M 4.03125 10.539062 C 4.050781 10.539062 4.074219 10.539062 4.09375 10.535156 L 9.457031 9.90625 C 10.402344 9.792969 11.367188 9.867188 12.277344 10.117188 C 12.554688 10.191406 12.835938 10.027344 12.910156 9.753906 C 12.984375 9.480469 12.824219 9.195312 12.550781 9.121094 C 11.507812 8.839844 10.414062 8.757812 9.335938 8.882812 L 3.972656 9.511719 C 3.691406 9.542969 3.488281 9.800781 3.523438 10.082031 C 3.550781 10.34375 3.773438 10.539062 4.03125 10.539062 Z M 4.03125 10.539062 "/>
<path style=" stroke:none;fill-rule:nonzero;fill:rgb(0%,0%,0%);fill-opacity:1;" d="M 15.703125 12.476562 C 16.625 12.226562 17.574219 12.15625 18.523438 12.269531 L 23.886719 12.898438 C 23.90625 12.898438 23.929688 12.902344 23.949219 12.902344 C 24.207031 12.902344 24.429688 12.707031 24.460938 12.445312 C 24.492188 12.164062 24.289062 11.90625 24.007812 11.875 L 18.644531 11.246094 C 17.5625 11.117188 16.480469 11.199219 15.429688 11.484375 C 15.15625 11.558594 14.996094 11.839844 15.070312 12.117188 C 15.144531 12.390625 15.425781 12.550781 15.703125 12.476562 Z M 15.703125 12.476562 "/>
<path style=" stroke:none;fill-rule:nonzero;fill:rgb(0%,0%,0%);fill-opacity:1;" d="M 4.03125 12.902344 C 4.050781 12.902344 4.074219 12.898438 4.09375 12.898438 L 9.457031 12.269531 C 10.402344 12.15625 11.367188 12.230469 12.277344 12.476562 C 12.554688 12.554688 12.835938 12.390625 12.910156 12.117188 C 12.984375 11.84375 12.824219 11.558594 12.550781 11.484375 C 11.507812 11.199219 10.414062 11.117188 9.335938 11.246094 L 3.972656 11.875 C 3.691406 11.90625 3.488281 12.164062 3.523438 12.445312 C 3.550781 12.707031 3.773438 12.902344 4.03125 12.902344 Z M 4.03125 12.902344 "/>
<path style=" stroke:none;fill-rule:nonzero;fill:rgb(0%,0%,0%);fill-opacity:1;" d="M 15.703125 14.839844 C 16.625 14.589844 17.574219 14.519531 18.523438 14.628906 L 23.886719 15.261719 C 23.90625 15.261719 23.929688 15.265625 23.949219 15.265625 C 24.207031 15.265625 24.429688 15.070312 24.460938 14.808594 C 24.492188 14.527344 24.289062 14.269531 24.007812 14.238281 L 18.644531 13.605469 C 17.5625 13.480469 16.480469 13.5625 15.429688 13.847656 C 15.15625 13.921875 14.996094 14.203125 15.070312 14.476562 C 15.144531 14.753906 15.425781 14.914062 15.703125 14.839844 Z M 15.703125 14.839844 "/>
<path style=" stroke:none;fill-rule:nonzero;fill:rgb(0%,0%,0%);fill-opacity:1;" d="M 4.03125 15.265625 C 4.050781 15.265625 4.074219 15.261719 4.09375 15.261719 L 9.457031 14.628906 C 10.402344 14.519531 11.367188 14.59375 12.277344 14.839844 C 12.554688 14.914062 12.835938 14.753906 12.910156 14.480469 C 12.984375 14.203125 12.824219 13.921875 12.550781 13.847656 C 11.507812 13.5625 10.414062 13.480469 9.335938 13.605469 L 3.972656 14.238281 C 3.691406 14.269531 3.488281 14.527344 3.523438 14.808594 C 3.550781 15.070312 3.773438 15.265625 4.03125 15.265625 Z M 4.03125 15.265625 "/>
<path style=" stroke:none;fill-rule:nonzero;fill:rgb(0%,0%,0%);fill-opacity:1;" d="M 24.007812 16.601562 L 18.644531 15.96875 C 17.5625 15.84375 16.480469 15.921875 15.429688 16.207031 C 15.15625 16.285156 14.996094 16.566406 15.070312 16.839844 C 15.144531 17.117188 15.425781 17.277344 15.703125 17.203125 C 16.625 16.953125 17.574219 16.882812 18.523438 16.992188 L 23.886719 17.621094 C 23.90625 17.625 23.929688 17.625 23.949219 17.625 C 24.207031 17.625 24.429688 17.433594 24.460938 17.171875 C 24.492188 16.890625 24.289062 16.632812 24.007812 16.601562 Z M 24.007812 16.601562 "/>
<path style=" stroke:none;fill-rule:nonzero;fill:rgb(0%,0%,0%);fill-opacity:1;" d="M 4.03125 17.625 C 4.050781 17.625 4.074219 17.625 4.09375 17.621094 L 9.457031 16.992188 C 10.402344 16.882812 11.367188 16.953125 12.277344 17.203125 C 12.554688 17.277344 12.835938 17.117188 12.910156 16.84375 C 12.984375 16.566406 12.824219 16.285156 12.550781 16.210938 C 11.507812 15.925781 10.414062 15.84375 9.335938 15.96875 L 3.972656 16.601562 C 3.691406 16.632812 3.488281 16.890625 3.523438 17.171875 C 3.550781 17.433594 3.773438 17.625 4.03125 17.625 Z M 4.03125 17.625 "/>
</g>
</svg>
