<?xml version="1.0" encoding="UTF-8"?>
<svg xmlns="http://www.w3.org/2000/svg" xmlns:xlink="http://www.w3.org/1999/xlink" width="28pt" height="28pt" viewBox="0 0 28 28" version="1.1">
<g id="surface1">
<path style=" stroke:none;fill-rule:nonzero;fill:rgb(0%,0%,0%);fill-opacity:1;" d="M 14 7.742188 C 10.546875 7.742188 7.742188 10.546875 7.742188 14 C 7.742188 17.453125 10.546875 20.257812 14 20.257812 C 17.453125 20.257812 20.257812 17.453125 20.257812 14 C 20.257812 10.546875 17.453125 7.742188 14 7.742188 Z M 14 19.351562 C 11.050781 19.351562 8.648438 16.949219 8.648438 14 C 8.648438 11.050781 11.050781 8.648438 14 8.648438 C 16.949219 8.648438 19.351562 11.050781 19.351562 14 C 19.351562 16.949219 16.949219 19.351562 14 19.351562 Z M 14 19.351562 "/>
<path style=" stroke:none;fill-rule:nonzero;fill:rgb(0%,0%,0%);fill-opacity:1;" d="M 14 6.710938 C 14.25 6.710938 14.453125 6.507812 14.453125 6.257812 L 14.453125 0.453125 C 14.453125 0.203125 14.25 0 14 0 C 13.75 0 13.546875 0.203125 13.546875 0.453125 L 13.546875 6.257812 C 13.546875 6.507812 13.75 6.710938 14 6.710938 Z M 14 6.710938 "/>
<path style=" stroke:none;fill-rule:nonzero;fill:rgb(0%,0%,0%);fill-opacity:1;" d="M 14 21.289062 C 13.75 21.289062 13.546875 21.492188 13.546875 21.742188 L 13.546875 27.546875 C 13.546875 27.796875 13.75 28 14 28 C 14.25 28 14.453125 27.796875 14.453125 27.546875 L 14.453125 21.742188 C 14.453125 21.492188 14.25 21.289062 14 21.289062 Z M 14 21.289062 "/>
<path style=" stroke:none;fill-rule:nonzero;fill:rgb(0%,0%,0%);fill-opacity:1;" d="M 6.710938 14 C 6.710938 13.75 6.507812 13.546875 6.257812 13.546875 L 0.453125 13.546875 C 0.203125 13.546875 0 13.75 0 14 C 0 14.25 0.203125 14.453125 0.453125 14.453125 L 6.257812 14.453125 C 6.507812 14.453125 6.710938 14.25 6.710938 14 Z M 6.710938 14 "/>
<path style=" stroke:none;fill-rule:nonzero;fill:rgb(0%,0%,0%);fill-opacity:1;" d="M 27.546875 13.546875 L 21.742188 13.546875 C 21.492188 13.546875 21.289062 13.75 21.289062 14 C 21.289062 14.25 21.492188 14.453125 21.742188 14.453125 L 27.546875 14.453125 C 27.796875 14.453125 28 14.25 28 14 C 28 13.75 27.796875 13.546875 27.546875 13.546875 Z M 27.546875 13.546875 "/>
<path style=" stroke:none;fill-rule:nonzero;fill:rgb(0%,0%,0%);fill-opacity:1;" d="M 10.355469 20.3125 C 10.140625 20.1875 9.863281 20.261719 9.738281 20.476562 L 8.769531 22.152344 C 8.644531 22.371094 8.71875 22.648438 8.933594 22.773438 C 9.007812 22.8125 9.085938 22.832031 9.160156 22.832031 C 9.316406 22.832031 9.472656 22.753906 9.554688 22.605469 L 10.523438 20.929688 C 10.648438 20.714844 10.574219 20.4375 10.355469 20.3125 Z M 10.355469 20.3125 "/>
<path style=" stroke:none;fill-rule:nonzero;fill:rgb(0%,0%,0%);fill-opacity:1;" d="M 8.421875 23.664062 C 8.203125 23.539062 7.925781 23.613281 7.800781 23.828125 L 7.316406 24.667969 C 7.191406 24.882812 7.265625 25.160156 7.484375 25.285156 C 7.554688 25.328125 7.632812 25.347656 7.710938 25.347656 C 7.867188 25.347656 8.019531 25.265625 8.101562 25.121094 L 8.585938 24.28125 C 8.710938 24.066406 8.636719 23.789062 8.421875 23.664062 Z M 8.421875 23.664062 "/>
<path style=" stroke:none;fill-rule:nonzero;fill:rgb(0%,0%,0%);fill-opacity:1;" d="M 17.644531 7.6875 C 17.714844 7.730469 17.792969 7.75 17.871094 7.75 C 18.027344 7.75 18.179688 7.667969 18.261719 7.523438 L 19.230469 5.847656 C 19.355469 5.628906 19.28125 5.351562 19.066406 5.226562 C 18.847656 5.101562 18.570312 5.175781 18.445312 5.394531 L 17.476562 7.070312 C 17.351562 7.285156 17.425781 7.5625 17.644531 7.6875 Z M 17.644531 7.6875 "/>
<path style=" stroke:none;fill-rule:nonzero;fill:rgb(0%,0%,0%);fill-opacity:1;" d="M 19.578125 4.335938 C 19.648438 4.378906 19.726562 4.398438 19.804688 4.398438 C 19.960938 4.398438 20.113281 4.316406 20.199219 4.171875 L 20.683594 3.332031 C 20.808594 3.117188 20.734375 2.839844 20.515625 2.714844 C 20.300781 2.589844 20.023438 2.664062 19.898438 2.878906 L 19.414062 3.71875 C 19.289062 3.933594 19.363281 4.210938 19.578125 4.335938 Z M 19.578125 4.335938 "/>
<path style=" stroke:none;fill-rule:nonzero;fill:rgb(0%,0%,0%);fill-opacity:1;" d="M 18.261719 20.476562 C 18.136719 20.261719 17.859375 20.1875 17.644531 20.3125 C 17.425781 20.4375 17.351562 20.714844 17.476562 20.929688 L 18.445312 22.605469 C 18.527344 22.753906 18.683594 22.832031 18.839844 22.832031 C 18.914062 22.832031 18.992188 22.8125 19.066406 22.773438 C 19.28125 22.648438 19.355469 22.371094 19.230469 22.152344 Z M 18.261719 20.476562 "/>
<path style=" stroke:none;fill-rule:nonzero;fill:rgb(0%,0%,0%);fill-opacity:1;" d="M 20.199219 23.828125 C 20.074219 23.613281 19.796875 23.539062 19.578125 23.664062 C 19.363281 23.789062 19.289062 24.066406 19.414062 24.28125 L 19.898438 25.121094 C 19.980469 25.265625 20.132812 25.347656 20.289062 25.347656 C 20.367188 25.347656 20.445312 25.328125 20.515625 25.285156 C 20.734375 25.160156 20.808594 24.882812 20.683594 24.667969 Z M 20.199219 23.828125 "/>
<path style=" stroke:none;fill-rule:nonzero;fill:rgb(0%,0%,0%);fill-opacity:1;" d="M 9.738281 7.523438 C 9.820312 7.667969 9.972656 7.75 10.128906 7.75 C 10.207031 7.75 10.285156 7.730469 10.355469 7.6875 C 10.574219 7.5625 10.648438 7.285156 10.523438 7.070312 L 9.554688 5.394531 C 9.429688 5.175781 9.152344 5.101562 8.933594 5.226562 C 8.71875 5.351562 8.644531 5.628906 8.769531 5.847656 Z M 9.738281 7.523438 "/>
<path style=" stroke:none;fill-rule:nonzero;fill:rgb(0%,0%,0%);fill-opacity:1;" d="M 7.800781 4.171875 C 7.886719 4.316406 8.039062 4.398438 8.195312 4.398438 C 8.273438 4.398438 8.351562 4.378906 8.421875 4.335938 C 8.636719 4.210938 8.710938 3.933594 8.585938 3.71875 L 8.101562 2.878906 C 7.976562 2.664062 7.699219 2.589844 7.484375 2.714844 C 7.265625 2.839844 7.191406 3.117188 7.316406 3.332031 Z M 7.800781 4.171875 "/>
<path style=" stroke:none;fill-rule:nonzero;fill:rgb(0%,0%,0%);fill-opacity:1;" d="M 22.605469 18.445312 L 20.929688 17.476562 C 20.714844 17.351562 20.4375 17.425781 20.3125 17.644531 C 20.1875 17.859375 20.261719 18.136719 20.476562 18.261719 L 22.152344 19.230469 C 22.222656 19.273438 22.300781 19.292969 22.378906 19.292969 C 22.535156 19.292969 22.6875 19.210938 22.773438 19.066406 C 22.898438 18.847656 22.824219 18.570312 22.605469 18.445312 Z M 22.605469 18.445312 "/>
<path style=" stroke:none;fill-rule:nonzero;fill:rgb(0%,0%,0%);fill-opacity:1;" d="M 25.121094 19.898438 L 24.28125 19.414062 C 24.066406 19.289062 23.789062 19.363281 23.664062 19.578125 C 23.539062 19.796875 23.613281 20.074219 23.828125 20.199219 L 24.667969 20.683594 C 24.738281 20.722656 24.816406 20.742188 24.894531 20.742188 C 25.050781 20.742188 25.203125 20.660156 25.285156 20.515625 C 25.410156 20.300781 25.335938 20.023438 25.121094 19.898438 Z M 25.121094 19.898438 "/>
<path style=" stroke:none;fill-rule:nonzero;fill:rgb(0%,0%,0%);fill-opacity:1;" d="M 5.394531 9.554688 L 7.070312 10.523438 C 7.140625 10.5625 7.21875 10.582031 7.296875 10.582031 C 7.453125 10.582031 7.605469 10.5 7.6875 10.355469 C 7.8125 10.140625 7.738281 9.863281 7.523438 9.738281 L 5.847656 8.769531 C 5.628906 8.644531 5.351562 8.71875 5.226562 8.933594 C 5.101562 9.152344 5.175781 9.429688 5.394531 9.554688 Z M 5.394531 9.554688 "/>
<path style=" stroke:none;fill-rule:nonzero;fill:rgb(0%,0%,0%);fill-opacity:1;" d="M 2.878906 8.101562 L 3.71875 8.585938 C 3.789062 8.628906 3.867188 8.648438 3.945312 8.648438 C 4.101562 8.648438 4.253906 8.566406 4.335938 8.421875 C 4.460938 8.203125 4.386719 7.925781 4.171875 7.800781 L 3.332031 7.316406 C 3.117188 7.191406 2.839844 7.265625 2.714844 7.484375 C 2.589844 7.699219 2.664062 7.976562 2.878906 8.101562 Z M 2.878906 8.101562 "/>
<path style=" stroke:none;fill-rule:nonzero;fill:rgb(0%,0%,0%);fill-opacity:1;" d="M 20.3125 10.355469 C 20.394531 10.5 20.546875 10.582031 20.703125 10.582031 C 20.78125 10.582031 20.859375 10.5625 20.929688 10.523438 L 22.605469 9.554688 C 22.824219 9.429688 22.898438 9.152344 22.773438 8.933594 C 22.648438 8.71875 22.371094 8.644531 22.152344 8.769531 L 20.476562 9.738281 C 20.261719 9.863281 20.1875 10.140625 20.3125 10.355469 Z M 20.3125 10.355469 "/>
<path style=" stroke:none;fill-rule:nonzero;fill:rgb(0%,0%,0%);fill-opacity:1;" d="M 24.054688 8.648438 C 24.132812 8.648438 24.210938 8.628906 24.28125 8.585938 L 25.121094 8.101562 C 25.335938 7.976562 25.410156 7.699219 25.285156 7.484375 C 25.160156 7.265625 24.882812 7.191406 24.667969 7.316406 L 23.828125 7.800781 C 23.613281 7.925781 23.539062 8.203125 23.664062 8.421875 C 23.746094 8.566406 23.898438 8.648438 24.054688 8.648438 Z M 24.054688 8.648438 "/>
<path style=" stroke:none;fill-rule:nonzero;fill:rgb(0%,0%,0%);fill-opacity:1;" d="M 7.6875 17.644531 C 7.5625 17.425781 7.285156 17.351562 7.070312 17.476562 L 5.394531 18.445312 C 5.175781 18.570312 5.101562 18.847656 5.226562 19.066406 C 5.3125 19.210938 5.464844 19.292969 5.621094 19.292969 C 5.699219 19.292969 5.777344 19.273438 5.847656 19.230469 L 7.523438 18.261719 C 7.738281 18.136719 7.8125 17.859375 7.6875 17.644531 Z M 7.6875 17.644531 "/>
<path style=" stroke:none;fill-rule:nonzero;fill:rgb(0%,0%,0%);fill-opacity:1;" d="M 3.71875 19.414062 L 2.878906 19.898438 C 2.664062 20.023438 2.589844 20.300781 2.714844 20.515625 C 2.796875 20.660156 2.949219 20.742188 3.105469 20.742188 C 3.183594 20.742188 3.261719 20.722656 3.332031 20.683594 L 4.171875 20.199219 C 4.386719 20.074219 4.460938 19.796875 4.335938 19.578125 C 4.210938 19.363281 3.933594 19.289062 3.71875 19.414062 Z M 3.71875 19.414062 "/>
</g>
</svg>
