<?xml version="1.0" encoding="UTF-8"?>
<svg xmlns="http://www.w3.org/2000/svg" xmlns:xlink="http://www.w3.org/1999/xlink" width="28pt" height="28pt" viewBox="0 0 28 28" version="1.1">
<g id="surface1">
<path style=" stroke:none;fill-rule:nonzero;fill:rgb(0%,0%,0%);fill-opacity:1;" d="M 24.160156 8.34375 C 24.179688 8.03125 24.445312 7.792969 24.757812 7.808594 C 25.070312 7.828125 25.308594 8.09375 25.292969 8.40625 L 25.28125 8.566406 L 24.101562 9.46875 Z M 21.71875 9.769531 C 22.175781 9.769531 22.613281 9.957031 22.933594 10.285156 C 22.933594 10.296875 22.9375 10.308594 22.9375 10.320312 C 22.042969 10.929688 21.074219 11.425781 20.054688 11.796875 C 20.035156 11.6875 20.023438 11.574219 20.019531 11.464844 C 20.019531 10.527344 20.78125 9.769531 21.714844 9.769531 Z M 7.773438 9.203125 L 11.726562 9.203125 C 12.039062 9.203125 12.292969 9.457031 12.292969 9.769531 L 12.292969 12.574219 C 11.914062 12.558594 11.535156 12.523438 11.164062 12.476562 L 11.164062 11.464844 C 11.167969 10.53125 10.414062 9.773438 9.480469 9.769531 C 8.996094 9.765625 8.535156 9.972656 8.210938 10.332031 L 7.773438 10.332031 Z M 10.03125 11.464844 L 10.03125 12.28125 C 9.652344 12.199219 9.273438 12.101562 8.902344 11.984375 L 8.902344 11.464844 C 8.902344 11.152344 9.15625 10.898438 9.46875 10.898438 C 9.78125 10.898438 10.03125 11.152344 10.03125 11.464844 Z M 7.773438 11.464844 L 7.773438 11.558594 C 7.703125 11.53125 7.632812 11.496094 7.5625 11.464844 Z M 5.511719 7.507812 C 5.511719 7.195312 5.765625 6.941406 6.078125 6.941406 C 6.390625 6.941406 6.640625 7.195312 6.640625 7.507812 L 6.640625 10.332031 L 5.539062 10.332031 L 5.511719 10.316406 Z M 23.207031 16.230469 C 21.496094 19.21875 18.3125 21.066406 14.867188 21.070312 L 12.859375 21.070312 C 9.316406 21.074219 6.058594 19.125 4.390625 16 L -0.0546875 7.703125 L 4.578125 11.050781 C 6.984375 12.792969 9.878906 13.730469 12.847656 13.722656 L 15.613281 13.722656 C 18.714844 13.71875 21.730469 12.699219 24.195312 10.820312 L 27.933594 7.960938 Z M 23.207031 16.230469 "/>
</g>
</svg>
