<?xml version="1.0" encoding="UTF-8"?>
<svg xmlns="http://www.w3.org/2000/svg" xmlns:xlink="http://www.w3.org/1999/xlink" width="28pt" height="28pt" viewBox="0 0 28 28" version="1.1">
<g id="surface1">
<path style=" stroke:none;fill-rule:nonzero;fill:rgb(0%,0%,0%);fill-opacity:1;" d="M 22.679688 4.195312 L 11.207031 4.195312 C 8.894531 4.195312 7.003906 6.078125 7.003906 8.398438 L 7.003906 12.601562 L 5.601562 12.601562 L 5.601562 15.890625 C 2.363281 17.050781 0.0429688 20.148438 0.00390625 23.796875 L 4.191406 23.796875 C 4.191406 26.117188 6.074219 28 8.394531 28 C 10.714844 28 12.597656 26.117188 12.597656 23.796875 L 16.792969 23.796875 C 16.761719 20.140625 14.433594 17.050781 11.191406 15.890625 L 11.191406 12.601562 L 9.789062 12.601562 L 9.789062 8.398438 C 9.789062 7.628906 10.417969 6.996094 11.191406 6.996094 L 22.675781 6.996094 C 23.292969 9.375 25.429688 11.152344 27.996094 11.191406 L 27.996094 0 C 25.4375 0.0390625 23.300781 1.804688 22.679688 4.195312 Z M 22.679688 4.195312 "/>
</g>
</svg>
