<?xml version="1.0" encoding="UTF-8"?>
<svg xmlns="http://www.w3.org/2000/svg" xmlns:xlink="http://www.w3.org/1999/xlink" width="28pt" height="28pt" viewBox="0 0 28 28" version="1.1">
<g id="surface1">
<path style=" stroke:none;fill-rule:nonzero;fill:rgb(0%,0%,0%);fill-opacity:1;" d="M 27.597656 14.183594 L 0.402344 14.183594 L 0.402344 20 L 27.597656 20 Z M 14.746094 17.714844 L 13.253906 17.714844 C 12.894531 17.714844 12.601562 17.421875 12.601562 17.066406 C 12.601562 16.707031 12.894531 16.414062 13.253906 16.414062 L 14.746094 16.414062 C 15.105469 16.414062 15.394531 16.707031 15.394531 17.066406 C 15.394531 17.421875 15.105469 17.714844 14.746094 17.714844 Z M 14.746094 17.714844 "/>
<path style=" stroke:none;fill-rule:nonzero;fill:rgb(0%,0%,0%);fill-opacity:1;" d="M 27.597656 5.773438 L 27.597656 1.78125 C 27.597656 0.796875 26.800781 0 25.820312 0 L 2.179688 0 C 1.199219 0 0.402344 0.796875 0.402344 1.78125 L 0.402344 5.773438 Z M 13.253906 2.300781 L 14.746094 2.300781 C 15.105469 2.300781 15.394531 2.589844 15.394531 2.949219 C 15.394531 3.308594 15.105469 3.597656 14.746094 3.597656 L 13.253906 3.597656 C 12.894531 3.597656 12.601562 3.308594 12.601562 2.949219 C 12.601562 2.589844 12.894531 2.300781 13.253906 2.300781 Z M 13.253906 2.300781 "/>
<path style=" stroke:none;fill-rule:nonzero;fill:rgb(0%,0%,0%);fill-opacity:1;" d="M 27.597656 25.292969 L 27.597656 21.296875 L 0.402344 21.296875 L 0.402344 25.292969 C 0.402344 25.828125 0.636719 26.308594 1.011719 26.632812 L 0.835938 27.132812 C 0.714844 27.472656 0.890625 27.84375 1.230469 27.960938 C 1.300781 27.988281 1.375 28 1.449219 28 C 1.714844 28 1.964844 27.832031 2.058594 27.566406 L 2.234375 27.070312 L 25.765625 27.070312 L 25.941406 27.566406 C 26.035156 27.832031 26.285156 28 26.550781 28 C 26.625 28 26.699219 27.988281 26.769531 27.960938 C 27.109375 27.84375 27.285156 27.472656 27.164062 27.132812 L 26.988281 26.632812 C 27.363281 26.308594 27.597656 25.828125 27.597656 25.292969 Z M 14.746094 24.773438 L 13.253906 24.773438 C 12.894531 24.773438 12.601562 24.480469 12.601562 24.121094 C 12.601562 23.765625 12.894531 23.472656 13.253906 23.472656 L 14.746094 23.472656 C 15.105469 23.472656 15.394531 23.765625 15.394531 24.121094 C 15.394531 24.480469 15.105469 24.773438 14.746094 24.773438 Z M 14.746094 24.773438 "/>
<path style=" stroke:none;fill-rule:nonzero;fill:rgb(0%,0%,0%);fill-opacity:1;" d="M 0.402344 12.886719 L 27.597656 12.886719 L 27.597656 7.074219 L 0.402344 7.074219 Z M 13.253906 9.355469 L 14.746094 9.355469 C 15.105469 9.355469 15.394531 9.648438 15.394531 10.007812 C 15.394531 10.367188 15.105469 10.65625 14.746094 10.65625 L 13.253906 10.65625 C 12.894531 10.65625 12.601562 10.367188 12.601562 10.007812 C 12.601562 9.648438 12.894531 9.355469 13.253906 9.355469 Z M 13.253906 9.355469 "/>
</g>
</svg>
