<?xml version="1.0" encoding="UTF-8"?>
<svg xmlns="http://www.w3.org/2000/svg" xmlns:xlink="http://www.w3.org/1999/xlink" width="28pt" height="28pt" viewBox="0 0 28 28" version="1.1">
<g id="surface1">
<path style=" stroke:none;fill-rule:nonzero;fill:rgb(0%,0%,0%);fill-opacity:1;" d="M 27.867188 13.230469 L 24.445312 9.808594 C 24.269531 9.632812 23.980469 9.632812 23.804688 9.808594 L 23.507812 10.105469 C 22.820312 10.796875 22.640625 11.808594 22.972656 12.664062 L 16.859375 17.867188 C 16.835938 17.757812 16.777344 17.660156 16.699219 17.582031 C 16.808594 17.378906 16.871094 17.148438 16.871094 16.902344 L 16.871094 10.710938 C 17.167969 10.453125 17.355469 10.070312 17.355469 9.644531 C 17.355469 8.863281 16.71875 8.226562 15.933594 8.226562 L 11.550781 8.226562 L 11.550781 4.324219 C 11.550781 3.539062 10.914062 2.902344 10.128906 2.902344 C 9.347656 2.902344 8.707031 3.539062 8.707031 4.324219 L 8.707031 8.226562 L 4.324219 8.226562 C 3.539062 8.226562 2.902344 8.863281 2.902344 9.644531 C 2.902344 10.070312 3.089844 10.453125 3.386719 10.710938 L 3.386719 11.609375 L 2.390625 11.609375 C 1.070312 11.609375 0 12.683594 0 14 L 0 14.96875 C 0 16.816406 1.503906 18.324219 3.355469 18.324219 L 3.386719 18.324219 L 3.386719 18.839844 C 3.386719 19.210938 3.53125 19.550781 3.769531 19.804688 C 3.53125 20.058594 3.386719 20.398438 3.386719 20.773438 L 3.386719 21.621094 C 3.386719 21.78125 3.453125 21.925781 3.558594 22.03125 C 3.449219 22.230469 3.386719 22.460938 3.386719 22.707031 L 3.386719 23.675781 C 3.386719 24.460938 4.023438 25.097656 4.808594 25.097656 L 15.453125 25.097656 C 16.234375 25.097656 16.871094 24.460938 16.871094 23.675781 L 16.871094 23.371094 L 24.976562 14.710938 C 24.980469 14.707031 24.984375 14.699219 24.988281 14.695312 C 25.269531 14.808594 25.570312 14.867188 25.882812 14.867188 C 26.519531 14.867188 27.121094 14.617188 27.570312 14.167969 L 27.867188 13.871094 C 28.042969 13.695312 28.042969 13.40625 27.867188 13.230469 Z M 4.292969 20.773438 C 4.292969 20.488281 4.523438 20.257812 4.808594 20.257812 L 15.453125 20.257812 C 15.734375 20.257812 15.964844 20.488281 15.964844 20.773438 C 15.964844 21.058594 15.734375 21.289062 15.453125 21.289062 L 4.808594 21.289062 C 4.523438 21.289062 4.292969 21.058594 4.292969 20.773438 Z M 4.292969 18.839844 C 4.292969 18.554688 4.523438 18.324219 4.808594 18.324219 L 15.453125 18.324219 C 15.734375 18.324219 15.964844 18.554688 15.964844 18.839844 C 15.964844 19.121094 15.734375 19.351562 15.453125 19.351562 L 4.808594 19.351562 C 4.523438 19.351562 4.292969 19.121094 4.292969 18.839844 Z M 15.933594 9.132812 C 16.21875 9.132812 16.449219 9.363281 16.449219 9.644531 C 16.449219 9.929688 16.21875 10.160156 15.933594 10.160156 L 11.550781 10.160156 L 11.550781 9.132812 Z M 10.128906 3.808594 C 10.414062 3.808594 10.644531 4.039062 10.644531 4.324219 L 10.644531 10.613281 C 10.644531 10.898438 10.414062 11.128906 10.128906 11.128906 C 9.847656 11.128906 9.617188 10.898438 9.617188 10.613281 L 9.617188 8.679688 C 9.617188 8.675781 9.617188 8.675781 9.617188 8.675781 L 9.617188 4.324219 C 9.617188 4.039062 9.847656 3.808594 10.128906 3.808594 Z M 4.324219 9.132812 L 8.707031 9.132812 L 8.707031 10.160156 L 4.324219 10.160156 C 4.039062 10.160156 3.808594 9.929688 3.808594 9.644531 C 3.808594 9.363281 4.039062 9.132812 4.324219 9.132812 Z M 4.324219 11.066406 L 8.78125 11.066406 C 8.972656 11.628906 9.503906 12.035156 10.128906 12.035156 C 10.753906 12.035156 11.285156 11.628906 11.476562 11.066406 L 15.933594 11.066406 C 15.945312 11.066406 15.957031 11.066406 15.964844 11.066406 L 15.964844 16.902344 C 15.964844 17.1875 15.734375 17.417969 15.453125 17.417969 L 4.808594 17.417969 C 4.523438 17.417969 4.292969 17.1875 4.292969 16.902344 L 4.292969 11.066406 C 4.304688 11.066406 4.3125 11.066406 4.324219 11.066406 Z M 0.90625 14.96875 L 0.90625 14 C 0.90625 13.183594 1.570312 12.519531 2.390625 12.519531 L 3.386719 12.519531 L 3.386719 16.902344 C 3.386719 17.085938 3.421875 17.257812 3.484375 17.417969 L 3.355469 17.417969 C 2.003906 17.417969 0.90625 16.316406 0.90625 14.96875 Z M 15.964844 23.675781 C 15.964844 23.960938 15.734375 24.191406 15.453125 24.191406 L 4.808594 24.191406 C 4.523438 24.191406 4.292969 23.960938 4.292969 23.675781 L 4.292969 22.707031 C 4.292969 22.425781 4.523438 22.195312 4.808594 22.195312 L 15.453125 22.195312 C 15.734375 22.195312 15.964844 22.425781 15.964844 22.707031 Z M 16.761719 22.160156 C 16.742188 22.117188 16.722656 22.070312 16.699219 22.03125 C 16.804688 21.925781 16.871094 21.78125 16.871094 21.621094 L 16.871094 20.773438 C 16.871094 20.398438 16.726562 20.058594 16.492188 19.804688 C 16.679688 19.605469 16.808594 19.347656 16.855469 19.0625 L 23.464844 13.4375 C 23.480469 13.453125 23.492188 13.46875 23.507812 13.484375 L 24.191406 14.167969 C 24.203125 14.175781 24.210938 14.183594 24.21875 14.191406 Z M 25.882812 13.960938 C 25.488281 13.960938 25.113281 13.804688 24.835938 13.527344 L 24.152344 12.839844 C 23.582031 12.273438 23.574219 11.351562 24.125 10.769531 L 26.90625 13.550781 C 26.628906 13.8125 26.265625 13.960938 25.882812 13.960938 Z M 25.882812 13.960938 "/>
</g>
</svg>
