<?xml version="1.0" encoding="UTF-8"?>
<svg xmlns="http://www.w3.org/2000/svg" xmlns:xlink="http://www.w3.org/1999/xlink" width="28pt" height="28pt" viewBox="0 0 28 28" version="1.1">
<g id="surface1">
<path style=" stroke:none;fill-rule:nonzero;fill:rgb(0%,0%,0%);fill-opacity:1;" d="M 17.09375 16.207031 C 17.101562 16.207031 17.113281 16.207031 17.125 16.207031 C 17.523438 16.207031 17.855469 15.890625 17.875 15.488281 C 17.949219 13.65625 18.039062 10.46875 17.914062 7.738281 C 17.945312 7.65625 17.933594 7.242188 17.882812 7.140625 C 17.757812 5.101562 17.5 3.40625 16.996094 2.882812 C 16.789062 2.667969 16.523438 2.550781 16.246094 2.550781 C 14.59375 2.550781 14.050781 4.492188 13.992188 5.640625 C 13.96875 6.058594 14.289062 6.410156 14.703125 6.433594 C 15.125 6.457031 15.472656 6.136719 15.492188 5.722656 C 15.515625 5.320312 15.6875 4.457031 16.011719 4.15625 C 16.164062 4.621094 16.277344 5.539062 16.351562 6.722656 L 11.425781 6.722656 C 11.292969 4.875 11.035156 3.371094 10.566406 2.882812 C 10.359375 2.667969 10.09375 2.550781 9.816406 2.550781 C 8.164062 2.550781 7.621094 4.492188 7.5625 5.640625 C 7.539062 6.058594 7.859375 6.410156 8.273438 6.433594 C 8.691406 6.457031 9.042969 6.136719 9.0625 5.722656 C 9.085938 5.320312 9.257812 4.457031 9.582031 4.15625 C 9.886719 5.078125 10.027344 7.773438 10.03125 10.832031 C 10.003906 10.910156 10.003906 11.253906 10.03125 11.332031 C 10.027344 12.679688 9.996094 14.082031 9.941406 15.421875 C 9.925781 15.839844 10.246094 16.1875 10.664062 16.207031 C 10.671875 16.207031 10.683594 16.207031 10.691406 16.207031 C 11.09375 16.207031 11.425781 15.890625 11.445312 15.488281 C 11.484375 14.546875 11.527344 13.246094 11.539062 11.832031 L 16.460938 11.832031 C 16.449219 13.027344 16.417969 14.25 16.371094 15.421875 C 16.355469 15.839844 16.675781 16.1875 17.09375 16.207031 Z M 11.546875 10.328125 C 11.542969 9.625 11.53125 8.914062 11.503906 8.226562 L 16.421875 8.226562 C 16.445312 8.890625 16.457031 9.59375 16.460938 10.328125 Z M 11.546875 10.328125 "/>
<path style=" stroke:none;fill-rule:nonzero;fill:rgb(0%,0%,0%);fill-opacity:1;" d="M 27.535156 16.273438 C 27.476562 16.097656 26.910156 14.542969 25.671875 13.5625 C 24.1875 12.390625 21.671875 11.519531 18.664062 11.082031 C 18.667969 11.777344 18.660156 12.460938 18.648438 13.101562 C 21.167969 13.496094 23.257812 14.210938 24.425781 15.136719 C 25.074219 15.644531 25.503906 16.53125 25.640625 16.929688 C 25.710938 17.132812 25.746094 17.34375 25.746094 17.550781 C 25.746094 19.082031 23.957031 20.328125 21.753906 20.328125 C 21.246094 20.328125 20.746094 20.261719 20.277344 20.128906 C 19.539062 19.917969 18.210938 19.671875 16.90625 19.671875 C 16.691406 19.671875 16.480469 19.679688 16.273438 19.695312 C 15.570312 19.746094 14.839844 19.769531 14.101562 19.769531 C 13.332031 19.769531 12.570312 19.742188 11.832031 19.6875 C 11.601562 19.671875 11.367188 19.664062 11.128906 19.664062 C 10.011719 19.664062 8.671875 19.84375 7.714844 20.121094 C 7.238281 20.257812 6.734375 20.328125 6.21875 20.328125 C 4.015625 20.328125 2.222656 19.082031 2.222656 17.550781 C 2.222656 17.265625 2.289062 16.984375 2.417969 16.710938 C 2.636719 16.25 3.488281 15.257812 4.328125 14.753906 C 5.492188 14.054688 7.207031 13.507812 9.203125 13.164062 C 9.210938 12.734375 9.214844 12.300781 9.21875 11.875 C 9.1875 11.757812 9.171875 11.636719 9.171875 11.519531 C 9.171875 11.402344 9.1875 11.28125 9.21875 11.160156 C 9.21875 11.148438 9.21875 11.140625 9.21875 11.128906 C 6.824219 11.507812 4.75 12.164062 3.296875 13.035156 C 2.125 13.738281 0.988281 15.046875 0.605469 15.855469 C 0.355469 16.378906 0.230469 16.933594 0.222656 17.5 C -0.015625 18.628906 -0.378906 21.359375 1.074219 23.324219 C 2.074219 24.679688 3.699219 25.382812 5.917969 25.410156 L 24.53125 25.421875 L 24.597656 25.410156 C 25.820312 25.183594 26.730469 24.566406 27.304688 23.578125 C 28.25 21.949219 28 19.671875 27.6875 18.210938 C 27.726562 17.996094 27.75 17.777344 27.75 17.554688 C 27.75 17.117188 27.679688 16.6875 27.535156 16.273438 Z M 27.535156 16.273438 "/>
</g>
</svg>
