<?xml version="1.0" encoding="UTF-8"?>
<svg xmlns="http://www.w3.org/2000/svg" xmlns:xlink="http://www.w3.org/1999/xlink" width="28pt" height="28pt" viewBox="0 0 28 28" version="1.1">
<g id="surface1">
<path style=" stroke:none;fill-rule:nonzero;fill:rgb(0%,0%,0%);fill-opacity:1;" d="M 19.585938 8.085938 C 19.355469 8.085938 19.167969 8.269531 19.167969 8.5 L 19.167969 11.410156 C 18.902344 11.398438 18.683594 11.179688 18.683594 10.90625 L 18.683594 9.664062 C 18.683594 9.433594 18.5 9.25 18.269531 9.25 C 18.039062 9.25 17.851562 9.433594 17.851562 9.664062 L 17.851562 10.90625 C 17.851562 11.636719 18.441406 12.230469 19.167969 12.242188 L 19.167969 13.046875 C 19.167969 13.277344 19.355469 13.460938 19.585938 13.460938 C 19.816406 13.460938 20 13.277344 20 13.046875 L 20 8.5 C 20 8.269531 19.816406 8.085938 19.585938 8.085938 Z M 19.585938 8.085938 "/>
<path style=" stroke:none;fill-rule:nonzero;fill:rgb(0%,0%,0%);fill-opacity:1;" d="M 22.855469 11.179688 C 22.625 11.179688 22.441406 11.363281 22.441406 11.59375 L 22.441406 12.285156 C 22.171875 12.277344 21.957031 12.054688 21.957031 11.78125 L 21.957031 10.539062 C 21.957031 10.308594 21.769531 10.125 21.539062 10.125 C 21.308594 10.125 21.125 10.308594 21.125 10.539062 L 21.125 11.78125 C 21.125 12.511719 21.710938 13.105469 22.441406 13.117188 L 22.441406 13.921875 C 22.441406 14.152344 22.625 14.335938 22.855469 14.335938 C 23.085938 14.335938 23.269531 14.152344 23.269531 13.921875 L 23.269531 11.59375 C 23.269531 11.363281 23.085938 11.179688 22.855469 11.179688 Z M 22.855469 11.179688 "/>
<path style=" stroke:none;fill-rule:nonzero;fill:rgb(0%,0%,0%);fill-opacity:1;" d="M 27.585938 15.3125 C 23.953125 15.3125 20.449219 14.207031 17.0625 13.132812 C 14.355469 12.277344 11.5625 11.394531 8.785156 11.121094 C 5.648438 10.8125 2.851562 11.328125 0.222656 12.699219 C 0.0195312 12.804688 -0.0585938 13.058594 0.046875 13.261719 C 0.152344 13.464844 0.40625 13.542969 0.609375 13.4375 C 6.136719 10.550781 11.320312 12.191406 16.8125 13.925781 C 20.257812 15.019531 23.824219 16.144531 27.585938 16.144531 C 27.8125 16.144531 28 15.960938 28 15.730469 C 28 15.5 27.8125 15.3125 27.585938 15.3125 Z M 27.585938 15.3125 "/>
<path style=" stroke:none;fill-rule:nonzero;fill:rgb(0%,0%,0%);fill-opacity:1;" d="M 21.894531 19.34375 C 19.777344 18.640625 16.976562 18.253906 14 18.253906 C 11.023438 18.253906 8.222656 18.640625 6.105469 19.34375 C 3.214844 20.304688 2.605469 21.488281 2.605469 22.316406 C 2.605469 23.140625 3.214844 24.328125 6.105469 25.285156 C 8.222656 25.988281 11.023438 26.375 14 26.375 C 15.953125 26.375 17.875 26.203125 19.558594 25.882812 C 19.78125 25.839844 19.929688 25.621094 19.886719 25.394531 C 19.84375 25.171875 19.625 25.023438 19.402344 25.066406 C 17.769531 25.378906 15.898438 25.542969 14 25.542969 C 7.773438 25.542969 3.4375 23.84375 3.4375 22.316406 C 3.4375 20.789062 7.773438 19.085938 14 19.085938 C 20.226562 19.085938 24.5625 20.789062 24.5625 22.316406 C 24.5625 23.171875 23.164062 24.09375 20.910156 24.714844 C 20.6875 24.777344 20.558594 25.007812 20.621094 25.226562 C 20.679688 25.449219 20.910156 25.578125 21.132812 25.519531 C 23.878906 24.757812 25.394531 23.621094 25.394531 22.316406 C 25.394531 21.488281 24.785156 20.304688 21.894531 19.34375 Z M 21.894531 19.34375 "/>
<path style=" stroke:none;fill-rule:nonzero;fill:rgb(0%,0%,0%);fill-opacity:1;" d="M 10.398438 20.613281 L 9.070312 20.613281 C 8.839844 20.613281 8.652344 20.800781 8.652344 21.027344 C 8.652344 21.257812 8.839844 21.445312 9.070312 21.445312 L 10.398438 21.445312 C 10.628906 21.445312 10.816406 21.257812 10.816406 21.027344 C 10.816406 20.800781 10.628906 20.613281 10.398438 20.613281 Z M 10.398438 20.613281 "/>
<path style=" stroke:none;fill-rule:nonzero;fill:rgb(0%,0%,0%);fill-opacity:1;" d="M 18.050781 21.277344 L 16.71875 21.277344 C 16.492188 21.277344 16.304688 21.464844 16.304688 21.695312 C 16.304688 21.921875 16.492188 22.109375 16.71875 22.109375 L 18.050781 22.109375 C 18.28125 22.109375 18.464844 21.921875 18.464844 21.695312 C 18.464844 21.464844 18.28125 21.277344 18.050781 21.277344 Z M 18.050781 21.277344 "/>
<path style=" stroke:none;fill-rule:nonzero;fill:rgb(0%,0%,0%);fill-opacity:1;" d="M 13.144531 22.859375 L 11.8125 22.859375 C 11.582031 22.859375 11.398438 23.042969 11.398438 23.273438 C 11.398438 23.503906 11.582031 23.691406 11.8125 23.691406 L 13.144531 23.691406 C 13.375 23.691406 13.558594 23.503906 13.558594 23.273438 C 13.558594 23.042969 13.375 22.859375 13.144531 22.859375 Z M 13.144531 22.859375 "/>
<path style=" stroke:none;fill-rule:nonzero;fill:rgb(0%,0%,0%);fill-opacity:1;" d="M 21.566406 3.441406 C 21.339844 3.441406 21.152344 3.628906 21.152344 3.859375 C 21.152344 5.335938 19.949219 6.535156 18.472656 6.535156 C 16.996094 6.535156 15.796875 5.335938 15.796875 3.859375 C 15.796875 2.382812 16.996094 1.179688 18.472656 1.179688 C 19.507812 1.179688 20.433594 1.757812 20.882812 2.691406 C 20.984375 2.894531 21.234375 2.980469 21.441406 2.882812 C 21.648438 2.78125 21.734375 2.53125 21.632812 2.324219 C 21.050781 1.125 19.808594 0.347656 18.472656 0.347656 C 16.539062 0.347656 14.964844 1.921875 14.964844 3.859375 C 14.964844 5.792969 16.539062 7.367188 18.472656 7.367188 C 20.410156 7.367188 21.984375 5.792969 21.984375 3.859375 C 21.984375 3.628906 21.796875 3.441406 21.566406 3.441406 Z M 21.566406 3.441406 "/>
<path style=" stroke:none;fill-rule:nonzero;fill:rgb(0%,0%,0%);fill-opacity:1;" d="M 4.566406 15.511719 C 4.335938 15.511719 4.148438 15.699219 4.148438 15.925781 L 4.148438 17.171875 C 4.148438 17.441406 3.933594 17.664062 3.664062 17.671875 L 3.664062 13.378906 C 3.664062 13.148438 3.480469 12.960938 3.25 12.960938 C 3.019531 12.960938 2.832031 13.148438 2.832031 13.378906 L 2.832031 15.566406 L 2.769531 15.566406 C 2.488281 15.566406 2.265625 15.339844 2.265625 15.0625 L 2.265625 14.207031 C 2.265625 13.980469 2.078125 13.792969 1.847656 13.792969 C 1.617188 13.792969 1.433594 13.980469 1.433594 14.207031 L 1.433594 15.0625 C 1.433594 15.800781 2.03125 16.398438 2.769531 16.398438 L 2.832031 16.398438 L 2.832031 19.308594 C 2.832031 19.539062 3.019531 19.726562 3.25 19.726562 C 3.480469 19.726562 3.664062 19.539062 3.664062 19.308594 L 3.664062 18.503906 C 4.390625 18.496094 4.980469 17.902344 4.980469 17.171875 L 4.980469 15.925781 C 4.980469 15.699219 4.796875 15.511719 4.566406 15.511719 Z M 4.566406 15.511719 "/>
<path style=" stroke:none;fill-rule:nonzero;fill:rgb(0%,0%,0%);fill-opacity:1;" d="M 8.902344 3.039062 C 8.671875 3.039062 8.488281 3.222656 8.488281 3.453125 L 8.488281 4.164062 C 8.488281 4.644531 8.097656 5.03125 7.621094 5.03125 L 7.382812 5.03125 C 6.980469 5.03125 6.65625 4.707031 6.65625 4.308594 L 6.65625 2.871094 C 6.65625 2.640625 6.472656 2.457031 6.242188 2.457031 C 6.011719 2.457031 5.824219 2.640625 5.824219 2.871094 L 5.824219 4.308594 C 5.824219 5.089844 6.40625 5.738281 7.15625 5.847656 L 7.15625 6.355469 C 7.15625 6.820312 6.78125 7.195312 6.316406 7.195312 L 5.9375 7.195312 C 5.371094 7.195312 4.910156 6.734375 4.910156 6.167969 L 4.910156 4.699219 C 4.910156 4.472656 4.726562 4.285156 4.496094 4.285156 C 4.265625 4.285156 4.078125 4.472656 4.078125 4.699219 L 4.078125 5.699219 C 3.789062 5.582031 3.582031 5.296875 3.582031 4.964844 L 3.582031 4.035156 C 3.582031 3.804688 3.394531 3.621094 3.164062 3.621094 C 2.933594 3.621094 2.75 3.804688 2.75 4.035156 L 2.75 4.964844 C 2.75 5.773438 3.34375 6.445312 4.121094 6.566406 C 4.277344 7.285156 4.851562 7.847656 5.578125 7.992188 L 5.578125 10.105469 C 5.578125 10.335938 5.761719 10.523438 5.992188 10.523438 C 6.222656 10.523438 6.40625 10.335938 6.40625 10.105469 L 6.40625 8.023438 C 7.289062 7.976562 7.988281 7.246094 7.988281 6.355469 L 7.988281 5.824219 C 8.75 5.65625 9.320312 4.976562 9.320312 4.164062 L 9.320312 3.453125 C 9.320312 3.222656 9.132812 3.039062 8.902344 3.039062 Z M 8.902344 3.039062 "/>
<path style=" stroke:none;fill-rule:nonzero;fill:rgb(0%,0%,0%);fill-opacity:1;" d="M 27.039062 18.179688 C 27.003906 17.953125 26.792969 17.796875 26.566406 17.828125 C 26.253906 17.875 25.8125 18.015625 25.429688 18.292969 C 25.316406 17.707031 25.066406 17.054688 24.554688 16.542969 C 24.390625 16.378906 24.128906 16.378906 23.964844 16.542969 C 23.804688 16.703125 23.804688 16.96875 23.964844 17.128906 C 24.265625 17.429688 24.445312 17.808594 24.550781 18.183594 C 24.210938 17.976562 23.847656 17.867188 23.578125 17.828125 C 23.351562 17.796875 23.144531 17.953125 23.109375 18.179688 C 23.078125 18.40625 23.234375 18.617188 23.460938 18.652344 C 23.507812 18.660156 24.65625 18.84375 24.65625 19.792969 C 24.65625 20.011719 24.824219 20.191406 25.042969 20.207031 C 25.054688 20.207031 25.0625 20.207031 25.074219 20.207031 C 25.277344 20.207031 25.453125 20.058594 25.484375 19.855469 C 25.488281 19.835938 25.5 19.734375 25.511719 19.570312 C 25.671875 18.816406 26.636719 18.660156 26.6875 18.652344 C 26.914062 18.617188 27.070312 18.410156 27.039062 18.179688 Z M 27.039062 18.179688 "/>
<path style=" stroke:none;fill-rule:nonzero;fill:rgb(0%,0%,0%);fill-opacity:1;" d="M 10.039062 12.914062 C 9.878906 12.832031 9.683594 12.859375 9.554688 12.980469 C 9.289062 13.234375 9.472656 13.695312 9.839844 13.695312 C 10.039062 13.695312 10.21875 13.550781 10.25 13.351562 C 10.28125 13.179688 10.195312 12.996094 10.039062 12.914062 Z M 10.039062 12.914062 "/>
<path style=" stroke:none;fill-rule:nonzero;fill:rgb(0%,0%,0%);fill-opacity:1;" d="M 11.089844 13.746094 C 10.933594 13.664062 10.738281 13.6875 10.609375 13.8125 C 10.34375 14.066406 10.527344 14.527344 10.894531 14.527344 C 11.09375 14.527344 11.269531 14.378906 11.304688 14.183594 C 11.335938 14.007812 11.246094 13.828125 11.089844 13.746094 Z M 11.089844 13.746094 "/>
<path style=" stroke:none;fill-rule:nonzero;fill:rgb(0%,0%,0%);fill-opacity:1;" d="M 9.722656 14.199219 C 9.5625 14.105469 9.355469 14.128906 9.222656 14.253906 C 8.957031 14.507812 9.140625 14.972656 9.507812 14.972656 C 9.714844 14.972656 9.898438 14.8125 9.921875 14.609375 C 9.941406 14.445312 9.863281 14.28125 9.722656 14.199219 Z M 9.722656 14.199219 "/>
<path style=" stroke:none;fill-rule:nonzero;fill:rgb(0%,0%,0%);fill-opacity:1;" d="M 2.476562 25.738281 C 2.320312 25.644531 2.121094 25.667969 1.988281 25.785156 C 1.710938 26.035156 1.894531 26.511719 2.265625 26.511719 C 2.460938 26.511719 2.632812 26.367188 2.675781 26.175781 C 2.707031 26.003906 2.625 25.824219 2.476562 25.738281 Z M 2.476562 25.738281 "/>
<path style=" stroke:none;fill-rule:nonzero;fill:rgb(0%,0%,0%);fill-opacity:1;" d="M 3.335938 25.625 C 3.195312 25.738281 3.148438 25.9375 3.214844 26.105469 C 3.28125 26.257812 3.433594 26.363281 3.601562 26.363281 C 3.792969 26.363281 3.964844 26.226562 4.003906 26.039062 C 4.089844 25.660156 3.636719 25.382812 3.335938 25.625 Z M 3.335938 25.625 "/>
<path style=" stroke:none;fill-rule:nonzero;fill:rgb(0%,0%,0%);fill-opacity:1;" d="M 3.140625 26.878906 C 2.984375 26.789062 2.785156 26.804688 2.648438 26.925781 C 2.367188 27.171875 2.550781 27.652344 2.925781 27.652344 C 3.125 27.652344 3.296875 27.507812 3.335938 27.3125 C 3.367188 27.144531 3.289062 26.96875 3.140625 26.878906 Z M 3.140625 26.878906 "/>
<path style=" stroke:none;fill-rule:nonzero;fill:rgb(0%,0%,0%);fill-opacity:1;" d="M 24.335938 26.050781 C 24.183594 25.960938 23.988281 25.976562 23.851562 26.089844 C 23.5625 26.332031 23.742188 26.820312 24.121094 26.820312 C 24.320312 26.820312 24.492188 26.675781 24.53125 26.484375 C 24.5625 26.3125 24.484375 26.136719 24.335938 26.050781 Z M 24.335938 26.050781 "/>
<path style=" stroke:none;fill-rule:nonzero;fill:rgb(0%,0%,0%);fill-opacity:1;" d="M 25.183594 25.257812 C 24.894531 25.503906 25.074219 25.992188 25.453125 25.992188 C 25.648438 25.992188 25.820312 25.847656 25.859375 25.65625 C 25.9375 25.277344 25.476562 25.007812 25.183594 25.257812 Z M 25.183594 25.257812 "/>
</g>
</svg>
