<?xml version="1.0" encoding="UTF-8"?>
<svg xmlns="http://www.w3.org/2000/svg" xmlns:xlink="http://www.w3.org/1999/xlink" width="28pt" height="28pt" viewBox="0 0 28 28" version="1.1">
<g id="surface1">
<path style=" stroke:none;fill-rule:nonzero;fill:rgb(0%,0%,0%);fill-opacity:1;" d="M 27.386719 21.535156 C 25.71875 21.167969 24 21.371094 22.476562 22.097656 C 20.859375 22.871094 18.902344 22.871094 17.28125 22.105469 C 17.269531 22.097656 17.257812 22.09375 17.242188 22.085938 C 15.171875 21.113281 12.796875 21.113281 10.710938 22.109375 C 9.0625 22.898438 7.175781 22.890625 5.519531 22.105469 C 4.488281 21.609375 3.386719 21.359375 2.253906 21.359375 C 1.703125 21.359375 1.144531 21.421875 0.605469 21.546875 C 0.1875 21.640625 -0.078125 22.058594 0.0195312 22.476562 C 0.113281 22.898438 0.535156 23.15625 0.953125 23.0625 C 2.257812 22.765625 3.628906 22.925781 4.855469 23.507812 C 5.890625 24.003906 7.003906 24.253906 8.121094 24.253906 C 9.242188 24.253906 10.355469 24.003906 11.402344 23.503906 C 13.054688 22.714844 14.957031 22.714844 16.609375 23.503906 C 16.621094 23.507812 16.628906 23.515625 16.648438 23.519531 C 18.675781 24.480469 21.128906 24.472656 23.15625 23.503906 C 24.367188 22.925781 25.722656 22.765625 27.058594 23.058594 C 27.476562 23.152344 27.890625 22.886719 27.984375 22.460938 C 28.070312 22.042969 27.808594 21.628906 27.386719 21.535156 Z M 27.386719 21.535156 "/>
<path style=" stroke:none;fill-rule:nonzero;fill:rgb(0%,0%,0%);fill-opacity:1;" d="M 27.382812 17.789062 C 25.710938 17.417969 23.992188 17.625 22.472656 18.351562 C 22.277344 18.445312 22.082031 18.523438 21.882812 18.59375 L 21.882812 2.980469 C 21.882812 1.339844 20.550781 0.00390625 18.90625 0.00390625 C 17.265625 0.00390625 15.929688 1.339844 15.929688 2.980469 C 15.929688 3.410156 16.277344 3.757812 16.707031 3.757812 C 17.136719 3.757812 17.484375 3.410156 17.484375 2.980469 C 17.484375 2.199219 18.125 1.558594 18.90625 1.558594 C 19.6875 1.558594 20.328125 2.199219 20.328125 2.980469 L 20.328125 6.585938 L 12.0625 6.585938 L 12.0625 2.980469 C 12.0625 1.339844 10.726562 0.00390625 9.085938 0.00390625 C 7.445312 0.00390625 6.109375 1.339844 6.109375 2.980469 C 6.109375 3.410156 6.457031 3.757812 6.886719 3.757812 C 7.316406 3.757812 7.664062 3.410156 7.664062 2.980469 C 7.664062 2.199219 8.304688 1.558594 9.085938 1.558594 C 9.867188 1.558594 10.507812 2.199219 10.507812 2.980469 L 10.507812 18.382812 C 10.507812 18.402344 10.511719 18.417969 10.511719 18.433594 C 8.910156 19.128906 7.101562 19.105469 5.519531 18.351562 C 4.488281 17.855469 3.386719 17.605469 2.253906 17.605469 C 1.703125 17.605469 1.144531 17.667969 0.609375 17.789062 C 0.191406 17.882812 -0.0742188 18.300781 0.0273438 18.71875 C 0.121094 19.140625 0.539062 19.402344 0.953125 19.308594 C 2.257812 19.011719 3.628906 19.171875 4.855469 19.757812 C 5.890625 20.253906 7.003906 20.5 8.117188 20.5 C 9.234375 20.5 10.355469 20.253906 11.394531 19.757812 C 13.046875 18.96875 14.949219 18.96875 16.601562 19.757812 C 16.613281 19.761719 16.625 19.765625 16.640625 19.773438 C 18.667969 20.730469 21.121094 20.726562 23.148438 19.757812 C 24.355469 19.175781 25.71875 19.019531 27.050781 19.308594 C 27.46875 19.402344 27.882812 19.140625 27.976562 18.714844 C 28.070312 18.296875 27.808594 17.882812 27.382812 17.789062 Z M 20.332031 18.902344 C 19.292969 18.980469 18.234375 18.800781 17.285156 18.351562 C 17.273438 18.34375 17.265625 18.339844 17.246094 18.335938 C 15.609375 17.5625 13.792969 17.402344 12.066406 17.859375 L 12.066406 14.453125 L 20.332031 14.453125 Z M 20.332031 12.902344 L 12.066406 12.902344 L 12.066406 8.140625 L 20.332031 8.140625 Z M 20.332031 12.902344 "/>
<path style=" stroke:none;fill-rule:nonzero;fill:rgb(0%,0%,0%);fill-opacity:1;" d="M 27.386719 25.289062 C 25.71875 24.917969 24 25.125 22.476562 25.851562 C 20.859375 26.621094 18.902344 26.621094 17.28125 25.855469 C 17.269531 25.851562 17.253906 25.84375 17.242188 25.839844 C 15.171875 24.863281 12.796875 24.871094 10.710938 25.863281 C 9.90625 26.242188 9.015625 26.445312 8.121094 26.445312 C 7.210938 26.445312 6.335938 26.246094 5.519531 25.855469 C 4.488281 25.359375 3.386719 25.113281 2.253906 25.113281 C 1.703125 25.113281 1.144531 25.171875 0.609375 25.292969 C 0.191406 25.386719 -0.0742188 25.808594 0.0273438 26.226562 C 0.121094 26.644531 0.539062 26.910156 0.957031 26.808594 C 2.265625 26.511719 3.636719 26.671875 4.859375 27.257812 C 5.882812 27.746094 6.988281 27.996094 8.132812 27.996094 C 9.25 27.996094 10.375 27.742188 11.40625 27.25 C 13.058594 26.460938 14.957031 26.460938 16.613281 27.25 C 16.625 27.257812 16.640625 27.261719 16.652344 27.265625 C 17.660156 27.742188 18.78125 27.996094 19.886719 27.996094 C 21.007812 27.996094 22.136719 27.734375 23.15625 27.25 C 24.367188 26.671875 25.722656 26.511719 27.058594 26.804688 C 27.476562 26.898438 27.890625 26.632812 27.984375 26.210938 C 28.070312 25.800781 27.808594 25.382812 27.386719 25.289062 Z M 27.386719 25.289062 "/>
</g>
</svg>
