<?xml version="1.0" encoding="UTF-8"?>
<svg xmlns="http://www.w3.org/2000/svg" xmlns:xlink="http://www.w3.org/1999/xlink" width="14pt" height="14pt" viewBox="0 0 14 14" version="1.1">
<g id="surface1">
<path style=" stroke:none;fill-rule:nonzero;fill:rgb(0%,0%,0%);fill-opacity:1;" d="M 10.429688 10.304688 C 9.664062 8.914062 9.71875 7.25 10.328125 5.78125 L 10.492188 5.390625 C 10.660156 4.945312 10.804688 4.710938 10.808594 4.429688 C 10.820312 3.953125 10.710938 3.453125 10.546875 3.078125 C 10.15625 2.179688 9.839844 1.214844 9.625 0.257812 C 9.59375 0.109375 9.460938 0 9.308594 0 L 9.289062 0 C 9.203125 0 9.128906 0.0351562 9.074219 0.09375 C 9.019531 0.15625 8.992188 0.238281 9.003906 0.320312 C 9.085938 1.03125 9.273438 2.679688 9.179688 2.734375 C 8.410156 3.160156 7.582031 4.039062 7.339844 4.734375 C 7.28125 4.875 7.148438 4.960938 7 4.960938 C 6.851562 4.960938 6.71875 4.875 6.660156 4.734375 C 6.417969 4.039062 5.589844 3.160156 4.820312 2.734375 C 4.726562 2.679688 4.914062 1.011719 5 0.308594 C 5.007812 0.230469 4.984375 0.152344 4.929688 0.09375 C 4.875 0.03125 4.804688 0 4.726562 0 L 4.679688 0 C 4.53125 0 4.40625 0.101562 4.375 0.246094 C 4.160156 1.21875 3.851562 2.164062 3.453125 3.078125 C 3.289062 3.453125 3.179688 3.953125 3.191406 4.429688 C 3.195312 4.710938 3.339844 4.945312 3.507812 5.390625 L 3.671875 5.789062 C 4.28125 7.25 4.332031 8.914062 3.570312 10.304688 C 3.453125 10.507812 3.4375 10.753906 3.515625 10.976562 C 3.59375 11.195312 3.765625 11.375 3.988281 11.460938 C 4.367188 11.609375 4.679688 11.84375 5.136719 12.234375 C 5.703125 12.710938 6.101562 13.273438 6.296875 13.796875 C 6.34375 13.921875 6.460938 14 6.585938 14 L 7.414062 14 C 7.539062 14 7.65625 13.921875 7.703125 13.796875 C 7.898438 13.273438 8.296875 12.710938 8.863281 12.234375 C 9.320312 11.84375 9.617188 11.617188 10.007812 11.464844 C 10.230469 11.378906 10.40625 11.203125 10.484375 10.980469 C 10.566406 10.757812 10.546875 10.511719 10.433594 10.304688 C 10.433594 10.304688 10.433594 10.304688 10.429688 10.304688 Z M 10.429688 10.304688 "/>
</g>
</svg>
