<?xml version="1.0" encoding="UTF-8"?>
<svg xmlns="http://www.w3.org/2000/svg" xmlns:xlink="http://www.w3.org/1999/xlink" width="28pt" height="28pt" viewBox="0 0 28 28" version="1.1">
<g id="surface1">
<path style=" stroke:none;fill-rule:nonzero;fill:rgb(0%,0%,0%);fill-opacity:1;" d="M 0.210938 1.925781 L 1.191406 1.925781 L 1.191406 28 L 8.035156 28 L 8.035156 27.039062 C 8.035156 26.769531 8.03125 26.503906 8.027344 26.25 L 19.972656 26.25 C 19.96875 26.503906 19.964844 26.769531 19.964844 27.039062 L 19.964844 28 L 26.808594 28 L 26.808594 1.925781 L 27.789062 1.925781 L 27.789062 0 L 0.210938 0 Z M 24.886719 26.074219 L 21.902344 26.074219 C 21.953125 24.203125 22.167969 21.898438 22.824219 20.09375 C 23.101562 19.335938 23.378906 18.882812 23.554688 18.644531 L 24.886719 18.644531 Z M 18 1.925781 L 24.886719 1.925781 L 24.886719 16.722656 L 23.558594 16.722656 C 18.03125 10.476562 17.984375 5.363281 18 1.925781 Z M 14.960938 1.925781 L 16.078125 1.925781 C 16.058594 5.398438 16.113281 11.050781 21.863281 17.707031 C 21.230469 18.660156 20.359375 20.609375 20.066406 24.324219 L 14.960938 24.324219 Z M 13.039062 1.925781 L 13.039062 24.324219 L 7.933594 24.324219 C 7.640625 20.609375 6.769531 18.660156 6.136719 17.707031 C 11.886719 11.050781 11.941406 5.398438 11.921875 1.925781 Z M 3.117188 1.925781 L 10 1.925781 C 10.015625 5.363281 9.96875 10.476562 4.441406 16.722656 L 3.117188 16.722656 Z M 3.117188 18.644531 L 4.453125 18.644531 C 4.878906 19.21875 5.972656 21.164062 6.097656 26.074219 L 3.117188 26.074219 Z M 3.117188 18.644531 "/>
</g>
</svg>
