<?xml version="1.0" encoding="UTF-8"?>
<svg xmlns="http://www.w3.org/2000/svg" xmlns:xlink="http://www.w3.org/1999/xlink" width="28pt" height="28pt" viewBox="0 0 28 28" version="1.1">
<g id="surface1">
<path style=" stroke:none;fill-rule:nonzero;fill:rgb(0%,0%,0%);fill-opacity:1;" d="M 19.042969 20.714844 C 18.867188 20.574219 18.609375 20.601562 18.464844 20.777344 L 16.882812 22.753906 C 16.664062 23.023438 16.863281 23.421875 17.203125 23.421875 C 17.324219 23.421875 17.445312 23.371094 17.523438 23.269531 L 19.109375 21.292969 C 19.25 21.117188 19.222656 20.855469 19.042969 20.714844 Z M 19.042969 20.714844 "/>
<path style=" stroke:none;fill-rule:nonzero;fill:rgb(0%,0%,0%);fill-opacity:1;" d="M 21.347656 19.726562 C 21.171875 19.585938 20.910156 19.613281 20.769531 19.792969 L 19.183594 21.765625 C 18.96875 22.039062 19.164062 22.4375 19.507812 22.4375 C 19.628906 22.4375 19.746094 22.382812 19.828125 22.28125 L 21.410156 20.308594 C 21.554688 20.128906 21.527344 19.871094 21.347656 19.726562 Z M 21.347656 19.726562 "/>
<path style=" stroke:none;fill-rule:nonzero;fill:rgb(0%,0%,0%);fill-opacity:1;" d="M 6.109375 23.191406 C 6.226562 23.191406 6.339844 23.140625 6.421875 23.046875 L 8.589844 20.550781 C 8.738281 20.378906 8.71875 20.121094 8.546875 19.96875 C 8.375 19.820312 8.117188 19.839844 7.964844 20.011719 L 5.800781 22.507812 C 5.566406 22.777344 5.761719 23.191406 6.109375 23.191406 Z M 6.109375 23.191406 "/>
<path style=" stroke:none;fill-rule:nonzero;fill:rgb(0%,0%,0%);fill-opacity:1;" d="M 10.753906 20.714844 C 10.574219 20.574219 10.316406 20.601562 10.171875 20.777344 L 9.382812 21.765625 C 9.238281 21.941406 9.269531 22.203125 9.445312 22.34375 C 9.625 22.488281 9.882812 22.457031 10.023438 22.28125 L 10.816406 21.292969 C 10.957031 21.117188 10.929688 20.855469 10.753906 20.714844 Z M 10.753906 20.714844 "/>
<path style=" stroke:none;fill-rule:nonzero;fill:rgb(0%,0%,0%);fill-opacity:1;" d="M 23.953125 21.703125 C 23.773438 21.558594 23.515625 21.585938 23.375 21.765625 L 22.582031 22.753906 C 22.4375 22.929688 22.46875 23.1875 22.644531 23.332031 C 22.824219 23.476562 23.082031 23.445312 23.226562 23.269531 L 24.015625 22.28125 C 24.160156 22.105469 24.128906 21.84375 23.953125 21.703125 Z M 23.953125 21.703125 "/>
<path style=" stroke:none;fill-rule:nonzero;fill:rgb(0%,0%,0%);fill-opacity:1;" d="M 6.371094 19.960938 C 6.191406 19.816406 5.933594 19.847656 5.789062 20.023438 L 5 21.011719 C 4.855469 21.1875 4.882812 21.449219 5.0625 21.589844 C 5.242188 21.734375 5.5 21.703125 5.640625 21.527344 L 6.433594 20.539062 C 6.574219 20.363281 6.546875 20.101562 6.371094 19.960938 Z M 6.371094 19.960938 "/>
<path style=" stroke:none;fill-rule:nonzero;fill:rgb(0%,0%,0%);fill-opacity:1;" d="M 27.585938 0.109375 C 26.644531 0.109375 2.070312 0.109375 0.414062 0.109375 C 0.183594 0.109375 0 0.292969 0 0.523438 L 0 27.53125 C 0 27.757812 0.183594 27.941406 0.414062 27.941406 L 23.5 27.941406 C 23.730469 27.941406 23.914062 27.757812 23.914062 27.53125 C 23.914062 27.300781 23.730469 27.117188 23.5 27.117188 L 0.824219 27.117188 L 0.824219 19.25 L 1.609375 19.25 L 1.609375 24.222656 C 1.609375 24.449219 1.792969 24.636719 2.023438 24.636719 L 8.933594 24.636719 C 9.164062 24.636719 9.347656 24.449219 9.347656 24.222656 C 9.347656 23.996094 9.164062 23.8125 8.933594 23.8125 L 2.433594 23.8125 L 2.433594 19.25 L 3.230469 19.25 L 3.230469 20.675781 C 3.230469 20.90625 3.414062 21.089844 3.640625 21.089844 C 3.871094 21.089844 4.054688 20.90625 4.054688 20.675781 L 4.054688 19.25 L 12.460938 19.25 L 12.460938 23.8125 L 10.585938 23.8125 C 10.355469 23.8125 10.171875 23.996094 10.171875 24.222656 C 10.171875 24.449219 10.355469 24.636719 10.585938 24.636719 L 25.976562 24.636719 C 26.207031 24.636719 26.390625 24.449219 26.390625 24.222656 L 26.390625 19.25 L 27.175781 19.25 L 27.175781 27.117188 L 25.152344 27.117188 C 24.921875 27.117188 24.738281 27.300781 24.738281 27.53125 C 24.738281 27.757812 24.921875 27.941406 25.152344 27.941406 L 27.585938 27.941406 C 27.816406 27.941406 28 27.757812 28 27.53125 C 28 24.585938 28 3.605469 28 0.523438 C 28 0.292969 27.816406 0.109375 27.585938 0.109375 Z M 3.230469 18.425781 C 2.480469 18.425781 1.585938 18.425781 0.824219 18.425781 C 0.824219 17.902344 0.824219 17.535156 0.824219 16.960938 L 3.230469 16.960938 Z M 3.230469 16.136719 L 0.824219 16.136719 L 0.824219 14.671875 L 3.230469 14.671875 Z M 3.230469 13.84375 L 0.824219 13.84375 L 0.824219 12.382812 L 3.230469 12.382812 Z M 3.230469 11.554688 L 0.824219 11.554688 L 0.824219 10.089844 L 3.230469 10.089844 Z M 3.230469 9.265625 L 0.824219 9.265625 L 0.824219 7.800781 L 3.230469 7.800781 Z M 3.230469 6.976562 C 2.699219 6.976562 1.375 6.976562 0.824219 6.976562 L 0.824219 5.511719 L 3.230469 5.511719 Z M 3.230469 4.6875 L 0.824219 4.6875 L 0.824219 3.222656 L 3.230469 3.222656 Z M 3.230469 2.398438 L 0.824219 2.398438 L 0.824219 0.933594 L 3.230469 0.933594 Z M 4.054688 0.933594 L 23.945312 0.933594 L 23.945312 2.398438 L 4.054688 2.398438 Z M 4.054688 5.511719 L 19.875 5.511719 C 20.101562 5.511719 20.289062 5.328125 20.289062 5.101562 C 20.289062 4.871094 20.101562 4.6875 19.875 4.6875 C 19.808594 4.6875 4.402344 4.6875 4.054688 4.6875 L 4.054688 3.222656 L 23.945312 3.222656 L 23.945312 4.6875 L 21.523438 4.6875 C 21.296875 4.6875 21.113281 4.871094 21.113281 5.101562 C 21.113281 5.328125 21.296875 5.511719 21.523438 5.511719 L 23.945312 5.511719 L 23.945312 6.976562 C 23.308594 6.976562 4.558594 6.976562 4.054688 6.976562 Z M 4.054688 7.800781 L 23.945312 7.800781 L 23.945312 9.265625 L 4.054688 9.265625 Z M 4.054688 10.089844 L 23.945312 10.089844 L 23.945312 11.554688 L 4.054688 11.554688 Z M 4.054688 12.382812 L 23.945312 12.382812 L 23.945312 13.84375 L 4.054688 13.84375 Z M 4.054688 14.671875 L 23.945312 14.671875 L 23.945312 16.136719 L 4.054688 16.136719 Z M 4.054688 18.425781 L 4.054688 16.960938 L 23.945312 16.960938 L 23.945312 18.425781 C 21.996094 18.425781 6.066406 18.425781 4.054688 18.425781 Z M 25.566406 23.8125 L 15.539062 23.8125 L 15.539062 21.585938 C 15.539062 21.359375 15.355469 21.175781 15.128906 21.175781 C 14.898438 21.175781 14.714844 21.359375 14.714844 21.585938 L 14.714844 23.8125 L 13.285156 23.8125 L 13.285156 19.25 L 14.714844 19.25 L 14.714844 19.9375 C 14.714844 20.164062 14.898438 20.351562 15.128906 20.351562 C 15.355469 20.351562 15.539062 20.164062 15.539062 19.9375 L 15.539062 19.25 L 23.945312 19.25 L 23.945312 20.675781 C 23.945312 20.90625 24.128906 21.089844 24.359375 21.089844 C 24.585938 21.089844 24.769531 20.90625 24.769531 20.675781 L 24.769531 19.25 L 25.566406 19.25 Z M 27.175781 18.425781 C 26.421875 18.425781 25.542969 18.425781 24.769531 18.425781 L 24.769531 16.960938 L 27.175781 16.960938 Z M 27.175781 16.136719 L 24.769531 16.136719 L 24.769531 14.671875 L 27.175781 14.671875 Z M 27.175781 13.84375 L 24.769531 13.84375 L 24.769531 12.382812 L 27.175781 12.382812 Z M 27.175781 11.554688 L 24.769531 11.554688 L 24.769531 10.089844 L 27.175781 10.089844 Z M 27.175781 9.265625 L 24.769531 9.265625 L 24.769531 7.800781 L 27.175781 7.800781 Z M 27.175781 6.976562 L 24.769531 6.976562 L 24.769531 5.511719 L 27.175781 5.511719 Z M 27.175781 4.6875 L 24.769531 4.6875 L 24.769531 3.222656 L 27.175781 3.222656 Z M 27.175781 2.398438 L 24.769531 2.398438 L 24.769531 0.933594 L 27.175781 0.933594 Z M 27.175781 2.398438 "/>
</g>
</svg>
