<?xml version="1.0" encoding="UTF-8"?>
<svg xmlns="http://www.w3.org/2000/svg" xmlns:xlink="http://www.w3.org/1999/xlink" width="14pt" height="14pt" viewBox="0 0 14 14" version="1.1">
<g id="surface1">
<path style=" stroke:none;fill-rule:nonzero;fill:rgb(0%,0%,0%);fill-opacity:1;" d="M 13.171875 13.304688 C 13.53125 13.304688 13.75 13.5 13.898438 13.675781 L 13.898438 0 L 8.164062 0 L 8.164062 13.675781 C 8.308594 13.5 8.523438 13.304688 8.882812 13.304688 C 9.324219 13.304688 9.546875 13.59375 9.695312 13.789062 C 9.835938 13.96875 9.875 14 9.957031 14 C 10.039062 14 10.078125 13.96875 10.21875 13.789062 C 10.367188 13.59375 10.589844 13.304688 11.03125 13.304688 C 11.46875 13.304688 11.695312 13.59375 11.84375 13.789062 C 11.976562 13.96875 12.019531 14 12.101562 14 C 12.179688 14 12.226562 13.96875 12.359375 13.789062 C 12.507812 13.59375 12.734375 13.304688 13.171875 13.304688 Z M 13.171875 13.304688 "/>
<path style=" stroke:none;fill-rule:nonzero;fill:rgb(0%,0%,0%);fill-opacity:1;" d="M 5.929688 5.671875 L 7.464844 5.671875 L 7.464844 9.839844 L 5.929688 9.839844 Z M 5.929688 5.671875 "/>
<path style=" stroke:none;fill-rule:nonzero;fill:rgb(0%,0%,0%);fill-opacity:1;" d="M 5.929688 0.804688 L 7.464844 0.804688 L 7.464844 4.976562 L 5.929688 4.976562 Z M 5.929688 0.804688 "/>
<path style=" stroke:none;fill-rule:nonzero;fill:rgb(0%,0%,0%);fill-opacity:1;" d="M 0.730469 9.839844 L 5.234375 9.839844 L 5.234375 5.671875 L 0.101562 5.671875 L 0.101562 9.210938 C 0.101562 9.558594 0.382812 9.839844 0.730469 9.839844 Z M 0.730469 9.839844 "/>
<path style=" stroke:none;fill-rule:nonzero;fill:rgb(0%,0%,0%);fill-opacity:1;" d="M 5.234375 0.804688 L 0.730469 0.804688 C 0.382812 0.804688 0.101562 1.085938 0.101562 1.433594 L 0.101562 4.976562 L 5.234375 4.976562 Z M 5.234375 0.804688 "/>
</g>
</svg>
