<?xml version="1.0" encoding="UTF-8"?>
<svg xmlns="http://www.w3.org/2000/svg" xmlns:xlink="http://www.w3.org/1999/xlink" width="28pt" height="28pt" viewBox="0 0 28 28" version="1.1">
<g id="surface1">
<path style=" stroke:none;fill-rule:nonzero;fill:rgb(0%,0%,0%);fill-opacity:1;" d="M 27.5625 10.0625 L 24.847656 10.0625 C 24.894531 9.925781 24.925781 9.78125 24.925781 9.625 L 24.925781 5.6875 C 24.925781 4.964844 24.339844 4.375 23.613281 4.375 L 23.175781 4.375 L 23.175781 3.0625 L 23.871094 3.0625 L 24.179688 3.371094 C 24.265625 3.457031 24.375 3.5 24.488281 3.5 C 24.601562 3.5 24.710938 3.457031 24.796875 3.371094 C 24.96875 3.199219 24.96875 2.925781 24.796875 2.753906 L 24.363281 2.316406 C 24.320312 2.277344 24.273438 2.246094 24.21875 2.222656 C 24.164062 2.199219 24.109375 2.1875 24.050781 2.1875 L 22.75 2.1875 C 22.746094 2.1875 22.742188 2.1875 22.738281 2.1875 C 22.738281 2.1875 22.734375 2.1875 22.730469 2.1875 L 21.4375 2.1875 C 21.433594 2.1875 21.429688 2.1875 21.425781 2.1875 C 21.425781 2.1875 21.421875 2.1875 21.417969 2.1875 L 20.550781 2.1875 C 20.308594 2.1875 20.113281 2.382812 20.113281 2.625 C 20.113281 2.867188 20.308594 3.0625 20.550781 3.0625 L 20.988281 3.0625 L 20.988281 4.375 L 20.550781 4.375 C 19.828125 4.375 19.238281 4.964844 19.238281 5.6875 L 19.238281 9.625 C 19.238281 9.78125 19.269531 9.925781 19.320312 10.0625 L 16.976562 10.0625 C 17.023438 9.925781 17.054688 9.777344 17.054688 9.625 L 17.054688 7 C 17.054688 6.277344 16.46875 5.6875 15.742188 5.6875 L 15.742188 3.9375 C 15.742188 3.695312 15.546875 3.5 15.304688 3.5 L 12.679688 3.5 C 12.4375 3.5 12.242188 3.695312 12.242188 3.9375 L 12.242188 5.6875 C 11.519531 5.6875 10.929688 6.277344 10.929688 7 L 10.929688 9.625 C 10.929688 9.777344 10.960938 9.925781 11.011719 10.0625 L 8.667969 10.0625 C 8.71875 9.925781 8.75 9.777344 8.75 9.625 L 8.75 5.25 C 8.75 5.191406 8.738281 5.136719 8.71875 5.082031 C 8.695312 5.027344 8.664062 4.980469 8.621094 4.941406 L 7.4375 3.757812 L 7.4375 2.804688 L 8.003906 3.371094 C 8.089844 3.457031 8.203125 3.5 8.3125 3.5 C 8.425781 3.5 8.539062 3.457031 8.625 3.371094 C 8.792969 3.199219 8.792969 2.925781 8.625 2.753906 L 8.058594 2.1875 L 9.1875 2.1875 C 9.429688 2.1875 9.625 1.992188 9.625 1.75 L 9.625 0.4375 C 9.625 0.195312 9.429688 0 9.1875 0 L 3.5 0 C 3.257812 0 3.0625 0.195312 3.0625 0.4375 C 3.0625 0.679688 3.257812 0.875 3.5 0.875 L 3.9375 0.875 L 3.9375 3.757812 L 2.753906 4.941406 C 2.714844 4.980469 2.683594 5.027344 2.660156 5.082031 C 2.636719 5.136719 2.625 5.191406 2.625 5.25 L 2.625 9.625 C 2.625 9.777344 2.65625 9.925781 2.707031 10.0625 L 0.4375 10.0625 C 0.195312 10.0625 0 10.257812 0 10.5 L 0 11.8125 C 0 12.054688 0.195312 12.25 0.4375 12.25 L 0.4375 27.5625 C 0.4375 27.804688 0.632812 28 0.875 28 L 27.125 28 C 27.367188 28 27.5625 27.804688 27.5625 27.5625 L 27.5625 12.25 C 27.804688 12.25 28 12.054688 28 11.8125 L 28 10.5 C 28 10.257812 27.804688 10.0625 27.5625 10.0625 Z M 8.3125 0.875 L 8.75 0.875 L 8.75 1.3125 L 8.3125 1.3125 Z M 21.863281 3.0625 L 22.300781 3.0625 L 22.300781 4.375 L 21.863281 4.375 Z M 20.113281 5.6875 C 20.113281 5.445312 20.308594 5.25 20.550781 5.25 L 23.613281 5.25 C 23.855469 5.25 24.050781 5.445312 24.050781 5.6875 L 24.050781 9.625 C 24.050781 9.863281 23.859375 10.058594 23.621094 10.0625 L 20.546875 10.0625 C 20.308594 10.058594 20.113281 9.863281 20.113281 9.625 Z M 13.117188 4.375 L 14.867188 4.375 L 14.867188 5.6875 L 13.117188 5.6875 Z M 11.804688 7 C 11.804688 6.761719 12 6.5625 12.242188 6.5625 L 15.742188 6.5625 C 15.984375 6.5625 16.179688 6.761719 16.179688 7 L 16.179688 9.625 C 16.179688 9.867188 15.984375 10.0625 15.742188 10.0625 L 12.242188 10.0625 C 12.003906 10.0625 11.804688 9.867188 11.804688 9.625 Z M 4.8125 0.875 L 7.4375 0.875 L 7.4375 1.394531 C 7.253906 1.460938 7.085938 1.5625 6.949219 1.695312 C 6.949219 1.695312 6.949219 1.695312 6.949219 1.699219 C 6.8125 1.835938 6.710938 2.003906 6.644531 2.1875 L 4.8125 2.1875 Z M 4.8125 3.0625 L 6.5625 3.0625 L 6.5625 3.5 L 4.8125 3.5 Z M 3.5 5.429688 L 4.558594 4.375 L 6.820312 4.375 L 7.875 5.429688 L 7.875 9.625 C 7.875 9.863281 7.679688 10.058594 7.4375 10.058594 C 7.4375 10.058594 7.433594 10.0625 7.429688 10.0625 L 3.941406 10.0625 C 3.699219 10.0625 3.5 9.867188 3.5 9.625 Z M 13.554688 27.125 L 1.3125 27.125 L 1.3125 12.25 L 13.554688 12.25 Z M 26.6875 27.125 L 14.429688 27.125 L 14.429688 12.25 L 26.6875 12.25 Z M 27.125 11.375 L 0.875 11.375 L 0.875 10.9375 L 20.542969 10.9375 C 20.546875 10.9375 20.550781 10.9375 20.550781 10.9375 L 23.613281 10.9375 C 23.617188 10.9375 23.621094 10.9375 23.625 10.9375 L 27.125 10.9375 Z M 27.125 11.375 "/>
<path style=" stroke:none;fill-rule:nonzero;fill:rgb(0%,0%,0%);fill-opacity:1;" d="M 12.25 21.4375 C 12.492188 21.4375 12.6875 21.242188 12.6875 21 L 12.6875 18.375 C 12.6875 18.132812 12.492188 17.9375 12.25 17.9375 C 12.007812 17.9375 11.8125 18.132812 11.8125 18.375 L 11.8125 21 C 11.8125 21.242188 12.007812 21.4375 12.25 21.4375 Z M 12.25 21.4375 "/>
<path style=" stroke:none;fill-rule:nonzero;fill:rgb(0%,0%,0%);fill-opacity:1;" d="M 15.75 21.4375 C 15.992188 21.4375 16.1875 21.242188 16.1875 21 L 16.1875 18.375 C 16.1875 18.132812 15.992188 17.9375 15.75 17.9375 C 15.507812 17.9375 15.3125 18.132812 15.3125 18.375 L 15.3125 21 C 15.3125 21.242188 15.507812 21.4375 15.75 21.4375 Z M 15.75 21.4375 "/>
<path style=" stroke:none;fill-rule:nonzero;fill:rgb(0%,0%,0%);fill-opacity:1;" d="M 22.078125 8.75 C 22.679688 8.75 23.171875 8.261719 23.171875 7.65625 C 23.171875 7.054688 22.679688 6.5625 22.078125 6.5625 C 21.472656 6.5625 20.984375 7.054688 20.984375 7.65625 C 20.984375 8.261719 21.472656 8.75 22.078125 8.75 Z M 22.078125 7.4375 C 22.199219 7.4375 22.296875 7.535156 22.296875 7.65625 C 22.296875 7.777344 22.199219 7.875 22.078125 7.875 C 21.957031 7.875 21.859375 7.777344 21.859375 7.65625 C 21.859375 7.535156 21.957031 7.4375 22.078125 7.4375 Z M 22.078125 7.4375 "/>
</g>
</svg>
