<?xml version="1.0" encoding="UTF-8"?>
<svg xmlns="http://www.w3.org/2000/svg" xmlns:xlink="http://www.w3.org/1999/xlink" width="28pt" height="28pt" viewBox="0 0 28 28" version="1.1">
<g id="surface1">
<path style=" stroke:none;fill-rule:nonzero;fill:rgb(0%,0%,0%);fill-opacity:1;" d="M 26.296875 12.921875 L 26.296875 5.296875 L 1.703125 5.296875 L 1.703125 12.921875 L 0 12.921875 L 0 20.910156 L 4.21875 20.910156 L 4.21875 22.703125 L 6.042969 22.703125 L 6.042969 20.910156 L 21.957031 20.910156 L 21.957031 22.703125 L 23.78125 22.703125 L 23.78125 20.910156 L 28 20.910156 L 28 12.921875 Z M 3.53125 7.121094 L 24.46875 7.121094 L 24.46875 12.921875 L 23.378906 12.921875 L 23.378906 8.523438 L 14.609375 8.523438 L 14.609375 12.921875 L 13.390625 12.921875 L 13.390625 8.523438 L 4.621094 8.523438 L 4.621094 12.921875 L 3.53125 12.921875 Z M 21.554688 10.347656 L 21.554688 12.921875 L 16.433594 12.921875 L 16.433594 10.347656 Z M 11.566406 10.347656 L 11.566406 12.921875 L 6.445312 12.921875 L 6.445312 10.347656 Z M 26.175781 19.085938 L 1.824219 19.085938 L 1.824219 14.746094 L 26.175781 14.746094 Z M 26.175781 19.085938 "/>
</g>
</svg>
