<?xml version="1.0" encoding="UTF-8"?>
<svg xmlns="http://www.w3.org/2000/svg" xmlns:xlink="http://www.w3.org/1999/xlink" width="28pt" height="28pt" viewBox="0 0 28 28" version="1.1">
<g id="surface1">
<path style=" stroke:none;fill-rule:nonzero;fill:rgb(0%,0%,0%);fill-opacity:1;" d="M 9.910156 3.894531 C 9.429688 2.921875 9.050781 2.15625 9.886719 0.90625 C 10.0625 0.636719 9.988281 0.277344 9.722656 0.0976562 C 9.457031 -0.078125 9.09375 -0.0078125 8.914062 0.257812 C 7.707031 2.070312 8.347656 3.367188 8.863281 4.410156 C 9.34375 5.386719 9.695312 6.089844 8.914062 7.257812 C 8.734375 7.527344 8.808594 7.890625 9.074219 8.066406 C 9.175781 8.132812 9.289062 8.167969 9.398438 8.167969 C 9.585938 8.167969 9.773438 8.074219 9.882812 7.90625 C 11.039062 6.175781 10.414062 4.910156 9.910156 3.894531 Z M 9.910156 3.894531 "/>
<path style=" stroke:none;fill-rule:nonzero;fill:rgb(0%,0%,0%);fill-opacity:1;" d="M 14.554688 3.894531 C 14.074219 2.921875 13.699219 2.15625 14.53125 0.90625 C 14.710938 0.636719 14.636719 0.277344 14.371094 0.0976562 C 14.105469 -0.078125 13.738281 -0.0078125 13.5625 0.257812 C 12.355469 2.070312 12.996094 3.367188 13.511719 4.410156 C 13.992188 5.386719 14.339844 6.089844 13.5625 7.257812 C 13.382812 7.527344 13.457031 7.890625 13.722656 8.066406 C 13.824219 8.132812 13.933594 8.167969 14.046875 8.167969 C 14.234375 8.167969 14.417969 8.074219 14.53125 7.90625 C 15.6875 6.175781 15.058594 4.910156 14.554688 3.894531 Z M 14.554688 3.894531 "/>
<path style=" stroke:none;fill-rule:nonzero;fill:rgb(0%,0%,0%);fill-opacity:1;" d="M 19.203125 3.894531 C 18.722656 2.921875 18.34375 2.15625 19.179688 0.90625 C 19.359375 0.636719 19.285156 0.277344 19.015625 0.0976562 C 18.75 -0.078125 18.386719 -0.0078125 18.207031 0.257812 C 17 2.070312 17.640625 3.367188 18.15625 4.410156 C 18.640625 5.386719 18.988281 6.089844 18.207031 7.257812 C 18.03125 7.527344 18.101562 7.890625 18.371094 8.066406 C 18.46875 8.132812 18.582031 8.167969 18.695312 8.167969 C 18.882812 8.167969 19.066406 8.074219 19.179688 7.90625 C 20.332031 6.175781 19.707031 4.910156 19.203125 3.894531 Z M 19.203125 3.894531 "/>
<path style=" stroke:none;fill-rule:nonzero;fill:rgb(0%,0%,0%);fill-opacity:1;" d="M 23.917969 9.332031 L 4.082031 9.332031 C 2.472656 9.332031 1.167969 10.640625 1.167969 12.25 L 1.167969 22.75 C 1.167969 24.359375 2.472656 25.667969 4.082031 25.667969 L 23.917969 25.667969 C 25.527344 25.667969 26.832031 24.359375 26.832031 22.75 L 26.832031 12.25 C 26.832031 10.640625 25.527344 9.332031 23.917969 9.332031 Z M 25.667969 22.75 C 25.667969 23.714844 24.882812 24.5 23.917969 24.5 L 4.082031 24.5 C 3.117188 24.5 2.332031 23.714844 2.332031 22.75 L 2.332031 12.25 C 2.332031 11.285156 3.117188 10.5 4.082031 10.5 L 23.917969 10.5 C 24.882812 10.5 25.667969 11.285156 25.667969 12.25 Z M 25.667969 22.75 "/>
<path style=" stroke:none;fill-rule:nonzero;fill:rgb(0%,0%,0%);fill-opacity:1;" d="M 5.25 11.667969 C 4.929688 11.667969 4.667969 11.925781 4.667969 12.25 L 4.667969 22.75 C 4.667969 23.070312 4.929688 23.332031 5.25 23.332031 C 5.570312 23.332031 5.832031 23.070312 5.832031 22.75 L 5.832031 12.25 C 5.832031 11.925781 5.570312 11.667969 5.25 11.667969 Z M 5.25 11.667969 "/>
<path style=" stroke:none;fill-rule:nonzero;fill:rgb(0%,0%,0%);fill-opacity:1;" d="M 8.75 11.667969 C 8.429688 11.667969 8.167969 11.925781 8.167969 12.25 L 8.167969 22.75 C 8.167969 23.070312 8.429688 23.332031 8.75 23.332031 C 9.070312 23.332031 9.332031 23.070312 9.332031 22.75 L 9.332031 12.25 C 9.332031 11.925781 9.070312 11.667969 8.75 11.667969 Z M 8.75 11.667969 "/>
<path style=" stroke:none;fill-rule:nonzero;fill:rgb(0%,0%,0%);fill-opacity:1;" d="M 12.25 11.667969 C 11.929688 11.667969 11.667969 11.925781 11.667969 12.25 L 11.667969 22.75 C 11.667969 23.070312 11.929688 23.332031 12.25 23.332031 C 12.570312 23.332031 12.832031 23.070312 12.832031 22.75 L 12.832031 12.25 C 12.832031 11.925781 12.570312 11.667969 12.25 11.667969 Z M 12.25 11.667969 "/>
<path style=" stroke:none;fill-rule:nonzero;fill:rgb(0%,0%,0%);fill-opacity:1;" d="M 15.75 11.667969 C 15.429688 11.667969 15.167969 11.925781 15.167969 12.25 L 15.167969 22.75 C 15.167969 23.070312 15.429688 23.332031 15.75 23.332031 C 16.070312 23.332031 16.332031 23.070312 16.332031 22.75 L 16.332031 12.25 C 16.332031 11.925781 16.070312 11.667969 15.75 11.667969 Z M 15.75 11.667969 "/>
<path style=" stroke:none;fill-rule:nonzero;fill:rgb(0%,0%,0%);fill-opacity:1;" d="M 19.25 11.667969 C 18.929688 11.667969 18.667969 11.925781 18.667969 12.25 L 18.667969 22.75 C 18.667969 23.070312 18.929688 23.332031 19.25 23.332031 C 19.570312 23.332031 19.832031 23.070312 19.832031 22.75 L 19.832031 12.25 C 19.832031 11.925781 19.570312 11.667969 19.25 11.667969 Z M 19.25 11.667969 "/>
<path style=" stroke:none;fill-rule:nonzero;fill:rgb(0%,0%,0%);fill-opacity:1;" d="M 22.75 11.667969 C 22.429688 11.667969 22.167969 11.925781 22.167969 12.25 L 22.167969 22.75 C 22.167969 23.070312 22.429688 23.332031 22.75 23.332031 C 23.070312 23.332031 23.332031 23.070312 23.332031 22.75 L 23.332031 12.25 C 23.332031 11.925781 23.070312 11.667969 22.75 11.667969 Z M 22.75 11.667969 "/>
<path style=" stroke:none;fill-rule:nonzero;fill:rgb(0%,0%,0%);fill-opacity:1;" d="M 6.417969 24.5 C 6.09375 24.5 5.832031 24.761719 5.832031 25.082031 L 5.832031 27.417969 C 5.832031 27.738281 6.09375 28 6.417969 28 C 6.738281 28 7 27.738281 7 27.417969 L 7 25.082031 C 7 24.761719 6.738281 24.5 6.417969 24.5 Z M 6.417969 24.5 "/>
<path style=" stroke:none;fill-rule:nonzero;fill:rgb(0%,0%,0%);fill-opacity:1;" d="M 21.582031 24.5 C 21.261719 24.5 21 24.761719 21 25.082031 L 21 27.417969 C 21 27.738281 21.261719 28 21.582031 28 C 21.90625 28 22.167969 27.738281 22.167969 27.417969 L 22.167969 25.082031 C 22.167969 24.761719 21.90625 24.5 21.582031 24.5 Z M 21.582031 24.5 "/>
</g>
</svg>
