<?xml version="1.0" encoding="UTF-8"?>
<svg xmlns="http://www.w3.org/2000/svg" xmlns:xlink="http://www.w3.org/1999/xlink" width="28pt" height="27pt" viewBox="0 0 28 27" version="1.1">
<g id="surface1">
<path style=" stroke:none;fill-rule:nonzero;fill:rgb(0%,0%,0%);fill-opacity:1;" d="M 17.617188 2.3125 C 17.421875 1.863281 17.136719 1.457031 16.777344 1.109375 C 16.417969 0.761719 15.996094 0.488281 15.527344 0.296875 C 15.042969 0.101562 14.53125 0 14 0 C 13.46875 0 12.957031 0.101562 12.472656 0.296875 C 12.003906 0.488281 11.582031 0.761719 11.222656 1.109375 C 10.863281 1.457031 10.578125 1.863281 10.382812 2.3125 C 10.175781 2.78125 10.074219 3.277344 10.074219 3.789062 L 10.074219 16.574219 C 9.496094 17.042969 9.007812 17.609375 8.644531 18.246094 C 8.144531 19.113281 7.878906 20.101562 7.878906 21.097656 C 7.878906 21.894531 8.042969 22.667969 8.363281 23.398438 C 8.671875 24.097656 9.113281 24.730469 9.671875 25.273438 C 10.234375 25.8125 10.890625 26.238281 11.617188 26.535156 C 12.371094 26.84375 13.175781 27 14 27 C 14.824219 27 15.628906 26.84375 16.382812 26.535156 C 17.109375 26.238281 17.765625 25.8125 18.328125 25.273438 C 18.886719 24.730469 19.328125 24.097656 19.636719 23.398438 C 19.957031 22.667969 20.121094 21.894531 20.121094 21.097656 C 20.121094 20.101562 19.855469 19.113281 19.355469 18.246094 C 18.992188 17.609375 18.503906 17.042969 17.925781 16.574219 L 17.925781 3.789062 C 17.925781 3.277344 17.824219 2.78125 17.617188 2.3125 Z M 18.828125 21.097656 C 18.828125 23.671875 16.667969 25.753906 14 25.753906 C 11.332031 25.753906 9.171875 23.671875 9.171875 21.097656 C 9.171875 19.464844 10.042969 18.03125 11.363281 17.199219 L 11.363281 3.789062 C 11.363281 2.382812 12.542969 1.246094 14 1.246094 C 15.457031 1.246094 16.636719 2.382812 16.636719 3.789062 L 16.636719 3.976562 L 14.316406 3.976562 C 13.960938 3.976562 13.671875 4.253906 13.671875 4.597656 C 13.671875 4.941406 13.960938 5.21875 14.316406 5.21875 L 16.636719 5.21875 L 16.636719 6.464844 L 14.316406 6.464844 C 13.960938 6.464844 13.671875 6.746094 13.671875 7.089844 C 13.671875 7.433594 13.960938 7.710938 14.316406 7.710938 L 16.636719 7.710938 L 16.636719 8.957031 L 14.316406 8.957031 C 13.960938 8.957031 13.671875 9.234375 13.671875 9.578125 C 13.671875 9.921875 13.960938 10.203125 14.316406 10.203125 L 16.636719 10.203125 L 16.636719 17.199219 C 17.957031 18.03125 18.828125 19.464844 18.828125 21.097656 Z M 18.828125 21.097656 "/>
<path style=" stroke:none;fill-rule:nonzero;fill:rgb(0%,0%,0%);fill-opacity:1;" d="M 16.085938 18.011719 L 15.632812 17.722656 L 15.632812 12.703125 C 15.632812 11.835938 14.898438 11.132812 14 11.132812 C 13.101562 11.132812 12.367188 11.835938 12.367188 12.703125 L 12.367188 17.722656 L 11.914062 18.011719 C 10.824219 18.695312 10.175781 19.847656 10.175781 21.097656 C 10.175781 22.082031 10.574219 23.007812 11.296875 23.707031 C 12.019531 24.402344 12.980469 24.785156 14 24.785156 C 15.019531 24.785156 15.980469 24.402344 16.703125 23.707031 C 17.425781 23.007812 17.824219 22.082031 17.824219 21.097656 C 17.824219 19.847656 17.175781 18.695312 16.085938 18.011719 Z M 16.085938 18.011719 "/>
</g>
</svg>
