<?xml version="1.0" encoding="UTF-8"?>
<svg xmlns="http://www.w3.org/2000/svg" xmlns:xlink="http://www.w3.org/1999/xlink" width="28pt" height="28pt" viewBox="0 0 28 28" version="1.1">
<g id="surface1">
<path style=" stroke:none;fill-rule:nonzero;fill:rgb(0%,0%,0%);fill-opacity:1;" d="M 17.160156 17.1875 L 17.160156 16.257812 L 16.257812 16.257812 L 16.257812 17.699219 L 16.484375 17.832031 C 18.015625 18.71875 18.96875 20.367188 18.96875 22.128906 C 18.96875 23.492188 18.425781 24.761719 17.445312 25.707031 C 16.460938 26.652344 15.171875 27.152344 13.804688 27.09375 C 11.234375 26.996094 9.09375 24.820312 9.035156 22.246094 C 8.992188 20.433594 9.945312 18.742188 11.515625 17.832031 L 11.742188 17.699219 L 11.742188 3.160156 C 11.742188 1.917969 12.753906 0.902344 14 0.902344 C 15.246094 0.902344 16.257812 1.917969 16.257812 3.160156 L 16.257812 6.324219 L 17.160156 6.324219 L 17.160156 3.160156 C 17.160156 1.417969 15.742188 0 14 0 C 12.257812 0 10.839844 1.417969 10.839844 3.160156 L 10.839844 17.1875 C 9.113281 18.289062 8.082031 20.214844 8.128906 22.265625 C 8.199219 25.308594 10.730469 27.878906 13.769531 27.996094 C 13.847656 28 13.925781 28 14.003906 28 C 15.527344 28 16.964844 27.421875 18.070312 26.359375 C 19.230469 25.242188 19.871094 23.738281 19.871094 22.128906 C 19.871094 20.132812 18.839844 18.261719 17.160156 17.1875 Z M 17.160156 17.1875 "/>
<path style=" stroke:none;fill-rule:nonzero;fill:rgb(0%,0%,0%);fill-opacity:1;" d="M 12.644531 5.417969 L 12.644531 18.300781 C 11.035156 18.867188 9.933594 20.394531 9.933594 22.128906 C 9.933594 24.371094 11.757812 26.191406 14 26.191406 C 16.242188 26.191406 18.0625 24.371094 18.0625 22.128906 C 18.0625 20.394531 16.964844 18.867188 15.355469 18.300781 L 15.355469 5.417969 Z M 17.160156 22.128906 C 17.160156 23.871094 15.742188 25.289062 14 25.289062 C 12.257812 25.289062 10.839844 23.871094 10.839844 22.128906 C 10.839844 20.6875 11.8125 19.429688 13.210938 19.070312 L 13.546875 18.984375 L 13.546875 6.324219 L 14.453125 6.324219 L 14.453125 18.984375 L 14.789062 19.070312 C 16.1875 19.429688 17.160156 20.6875 17.160156 22.128906 Z M 17.160156 22.128906 "/>
<path style=" stroke:none;fill-rule:nonzero;fill:rgb(0%,0%,0%);fill-opacity:1;" d="M 16.257812 14.453125 L 18.96875 14.453125 L 18.96875 15.355469 L 16.257812 15.355469 Z M 16.257812 14.453125 "/>
<path style=" stroke:none;fill-rule:nonzero;fill:rgb(0%,0%,0%);fill-opacity:1;" d="M 16.257812 12.644531 L 18.96875 12.644531 L 18.96875 13.546875 L 16.257812 13.546875 Z M 16.257812 12.644531 "/>
<path style=" stroke:none;fill-rule:nonzero;fill:rgb(0%,0%,0%);fill-opacity:1;" d="M 16.257812 10.839844 L 18.96875 10.839844 L 18.96875 11.742188 L 16.257812 11.742188 Z M 16.257812 10.839844 "/>
<path style=" stroke:none;fill-rule:nonzero;fill:rgb(0%,0%,0%);fill-opacity:1;" d="M 16.257812 9.03125 L 18.96875 9.03125 L 18.96875 9.933594 L 16.257812 9.933594 Z M 16.257812 9.03125 "/>
<path style=" stroke:none;fill-rule:nonzero;fill:rgb(0%,0%,0%);fill-opacity:1;" d="M 16.257812 7.226562 L 18.96875 7.226562 L 18.96875 8.128906 L 16.257812 8.128906 Z M 16.257812 7.226562 "/>
</g>
</svg>
