<?xml version="1.0" encoding="UTF-8"?>
<svg xmlns="http://www.w3.org/2000/svg" xmlns:xlink="http://www.w3.org/1999/xlink" width="28pt" height="28pt" viewBox="0 0 28 28" version="1.1">
<g id="surface1">
<path style=" stroke:none;fill-rule:nonzero;fill:rgb(0%,0%,0%);fill-opacity:1;" d="M 15.234375 15.914062 L 15.234375 8.691406 C 15.234375 8.460938 15.046875 8.277344 14.820312 8.277344 C 14.589844 8.277344 14.402344 8.460938 14.402344 8.691406 L 14.402344 16.125 C 14.402344 16.257812 14.46875 16.386719 14.578125 16.464844 C 16.128906 17.570312 17.058594 19.367188 17.058594 21.269531 C 17.058594 24.523438 14.410156 27.167969 11.160156 27.167969 C 7.90625 27.167969 5.261719 24.523438 5.261719 21.269531 C 5.261719 19.367188 6.1875 17.570312 7.742188 16.464844 C 7.851562 16.386719 7.914062 16.257812 7.914062 16.125 L 7.914062 4.074219 C 7.914062 2.285156 9.371094 0.832031 11.160156 0.832031 C 12.949219 0.832031 14.402344 2.285156 14.402344 4.074219 L 14.402344 7.027344 C 14.402344 7.257812 14.589844 7.445312 14.820312 7.445312 C 15.046875 7.445312 15.234375 7.257812 15.234375 7.027344 L 15.234375 4.074219 C 15.234375 1.828125 13.40625 0 11.160156 0 C 8.914062 0 7.082031 1.828125 7.082031 4.074219 L 7.082031 15.914062 C 5.417969 17.183594 4.429688 19.171875 4.429688 21.269531 C 4.429688 24.980469 7.449219 28 11.160156 28 C 14.871094 28 17.890625 24.980469 17.890625 21.269531 C 17.890625 19.171875 16.902344 17.183594 15.234375 15.914062 Z M 15.234375 15.914062 "/>
<path style=" stroke:none;fill-rule:nonzero;fill:rgb(0%,0%,0%);fill-opacity:1;" d="M 11.160156 24.949219 C 10.402344 24.949219 9.671875 24.71875 9.050781 24.285156 C 8.863281 24.152344 8.605469 24.199219 8.472656 24.386719 C 8.339844 24.574219 8.386719 24.835938 8.574219 24.964844 C 9.335938 25.5 10.230469 25.78125 11.160156 25.78125 C 13.648438 25.78125 15.671875 23.757812 15.671875 21.269531 C 15.671875 19.8125 14.960938 18.4375 13.773438 17.59375 L 13.015625 17.054688 L 13.015625 4.074219 C 13.015625 3.050781 12.183594 2.21875 11.160156 2.21875 C 10.136719 2.21875 9.300781 3.050781 9.300781 4.074219 L 9.300781 17.054688 L 8.546875 17.59375 C 7.355469 18.4375 6.648438 19.8125 6.648438 21.269531 C 6.648438 22.171875 6.914062 23.046875 7.417969 23.792969 C 7.546875 23.980469 7.804688 24.03125 7.996094 23.902344 C 8.1875 23.773438 8.238281 23.515625 8.109375 23.324219 C 7.695312 22.71875 7.480469 22.007812 7.480469 21.269531 C 7.480469 20.082031 8.058594 18.960938 9.027344 18.269531 L 9.957031 17.605469 C 10.070312 17.527344 10.132812 17.402344 10.132812 17.269531 L 10.132812 15.664062 L 12.183594 15.664062 L 12.183594 17.269531 C 12.183594 17.402344 12.25 17.527344 12.359375 17.605469 L 13.289062 18.269531 C 14.261719 18.960938 14.839844 20.082031 14.839844 21.269531 C 14.839844 23.300781 13.1875 24.949219 11.160156 24.949219 Z M 12.183594 8.476562 L 10.132812 8.476562 L 10.132812 6.128906 L 12.183594 6.128906 Z M 10.132812 9.308594 L 12.183594 9.308594 L 12.183594 11.652344 L 10.132812 11.652344 Z M 11.160156 3.050781 C 11.726562 3.050781 12.183594 3.507812 12.183594 4.074219 L 12.183594 5.296875 L 10.132812 5.296875 L 10.132812 4.074219 C 10.132812 3.507812 10.59375 3.050781 11.160156 3.050781 Z M 10.132812 14.832031 L 10.132812 12.484375 L 12.183594 12.484375 L 12.183594 14.832031 Z M 10.132812 14.832031 "/>
<path style=" stroke:none;fill-rule:nonzero;fill:rgb(0%,0%,0%);fill-opacity:1;" d="M 23.109375 9.300781 C 22.820312 9.300781 22.660156 9.410156 22.636719 9.628906 C 22.574219 10.121094 22.480469 10.859375 21.328125 10.859375 C 20.378906 10.859375 19.921875 10.378906 19.921875 9.390625 L 19.921875 6.21875 C 19.921875 5.242188 20.382812 4.746094 21.296875 4.746094 C 22.355469 4.746094 22.613281 5.390625 22.636719 5.933594 C 22.648438 6.148438 22.816406 6.265625 23.109375 6.265625 C 23.40625 6.265625 23.578125 6.183594 23.578125 5.753906 C 23.578125 4.65625 22.632812 3.890625 21.273438 3.890625 C 19.816406 3.890625 18.980469 4.738281 18.980469 6.21875 L 18.980469 9.390625 C 18.980469 10.1875 19.207031 10.789062 19.652344 11.191406 C 20.042969 11.535156 20.597656 11.71875 21.261719 11.71875 C 22.628906 11.71875 23.578125 10.9375 23.578125 9.824219 C 23.578125 9.386719 23.398438 9.300781 23.109375 9.300781 Z M 23.109375 9.300781 "/>
<path style=" stroke:none;fill-rule:nonzero;fill:rgb(0%,0%,0%);fill-opacity:1;" d="M 19.566406 2.703125 C 19.566406 1.957031 18.957031 1.34375 18.207031 1.34375 C 17.460938 1.34375 16.851562 1.957031 16.851562 2.703125 C 16.851562 3.453125 17.460938 4.0625 18.207031 4.0625 C 18.957031 4.0625 19.566406 3.453125 19.566406 2.703125 Z M 18.207031 3.230469 C 17.917969 3.230469 17.683594 2.996094 17.683594 2.703125 C 17.683594 2.414062 17.917969 2.175781 18.207031 2.175781 C 18.5 2.175781 18.734375 2.414062 18.734375 2.703125 C 18.734375 2.996094 18.5 3.230469 18.207031 3.230469 Z M 18.207031 3.230469 "/>
</g>
</svg>
