<?xml version="1.0" encoding="UTF-8"?>
<svg xmlns="http://www.w3.org/2000/svg" xmlns:xlink="http://www.w3.org/1999/xlink" width="28pt" height="28pt" viewBox="0 0 28 28" version="1.1">
<g id="surface1">
<path style=" stroke:none;fill-rule:nonzero;fill:rgb(0%,0%,0%);fill-opacity:1;" d="M 27.066406 3.84375 L 23.992188 3.84375 C 23.480469 3.84375 23.0625 4.261719 23.0625 4.777344 L 23.0625 6.917969 L 21.851562 6.917969 L 21.851562 5.101562 C 21.851562 3.558594 20.597656 2.304688 19.054688 2.304688 L 18.167969 2.304688 C 17.453125 2.304688 16.800781 2.578125 16.304688 3.019531 C 15.8125 2.578125 15.15625 2.304688 14.441406 2.304688 L 13.558594 2.304688 C 12.84375 2.304688 12.1875 2.578125 11.695312 3.019531 C 11.199219 2.578125 10.546875 2.304688 9.828125 2.304688 L 8.945312 2.304688 C 8.230469 2.304688 7.578125 2.578125 7.082031 3.019531 C 6.585938 2.578125 5.933594 2.304688 5.21875 2.304688 L 4.332031 2.304688 C 2.792969 2.304688 1.539062 3.558594 1.539062 5.101562 L 1.539062 6.917969 L 0.933594 6.917969 C 0.417969 6.917969 0 7.335938 0 7.851562 C 0 8.363281 0.417969 8.78125 0.933594 8.78125 L 1.539062 8.78125 L 1.539062 17.679688 L 0.933594 17.679688 C 0.417969 17.679688 0 18.097656 0 18.613281 C 0 19.128906 0.417969 19.542969 0.933594 19.542969 L 1.539062 19.542969 L 1.539062 22.898438 C 1.539062 24.441406 2.792969 25.695312 4.332031 25.695312 L 5.21875 25.695312 C 5.933594 25.695312 6.585938 25.421875 7.082031 24.980469 C 7.578125 25.421875 8.230469 25.695312 8.945312 25.695312 L 9.832031 25.695312 C 10.546875 25.695312 11.199219 25.421875 11.695312 24.980469 C 12.1875 25.421875 12.84375 25.695312 13.558594 25.695312 L 14.441406 25.695312 C 15.15625 25.695312 15.8125 25.421875 16.304688 24.980469 C 16.800781 25.421875 17.453125 25.695312 18.167969 25.695312 L 19.054688 25.695312 C 20.597656 25.695312 21.851562 24.441406 21.851562 22.898438 L 21.851562 19.542969 L 22.449219 19.542969 C 22.457031 19.542969 23.058594 19.554688 23.621094 19.851562 C 24.289062 20.207031 24.597656 20.789062 24.597656 21.6875 C 24.597656 22.203125 25.015625 22.621094 25.53125 22.621094 C 26.046875 22.621094 26.460938 22.203125 26.460938 21.6875 C 26.460938 18.746094 24.066406 17.679688 22.457031 17.679688 L 21.851562 17.679688 L 21.851562 8.78125 L 23.0625 8.78125 L 23.0625 9.386719 C 23.0625 9.902344 23.480469 10.320312 23.992188 10.320312 L 27.070312 10.320312 C 27.582031 10.320312 28 9.902344 28 9.386719 L 28 4.773438 C 28 4.261719 27.582031 3.84375 27.066406 3.84375 Z M 5.21875 23.832031 L 4.332031 23.832031 C 3.820312 23.832031 3.402344 23.414062 3.402344 22.898438 L 3.402344 5.101562 C 3.402344 4.585938 3.820312 4.167969 4.332031 4.167969 L 5.21875 4.167969 C 5.730469 4.167969 6.148438 4.585938 6.148438 5.101562 L 6.148438 22.898438 C 6.148438 23.414062 5.730469 23.832031 5.21875 23.832031 Z M 9.832031 23.832031 L 8.945312 23.832031 C 8.433594 23.832031 8.015625 23.414062 8.011719 22.898438 L 8.011719 5.101562 C 8.015625 4.585938 8.433594 4.167969 8.945312 4.167969 L 9.832031 4.167969 C 10.34375 4.167969 10.761719 4.585938 10.761719 5.101562 L 10.761719 22.898438 C 10.761719 23.414062 10.34375 23.832031 9.832031 23.832031 Z M 14.441406 23.832031 L 13.558594 23.832031 C 13.042969 23.832031 12.625 23.414062 12.625 22.898438 L 12.625 5.101562 C 12.625 4.585938 13.042969 4.167969 13.558594 4.167969 L 14.441406 4.167969 C 14.957031 4.167969 15.375 4.585938 15.375 5.101562 L 15.375 22.898438 C 15.375 23.414062 14.957031 23.832031 14.441406 23.832031 Z M 19.988281 22.898438 C 19.988281 23.414062 19.570312 23.832031 19.054688 23.832031 L 18.167969 23.832031 C 17.65625 23.832031 17.238281 23.414062 17.238281 22.898438 L 17.238281 5.101562 C 17.238281 4.585938 17.65625 4.167969 18.167969 4.167969 L 19.054688 4.167969 C 19.570312 4.167969 19.988281 4.585938 19.988281 5.101562 Z M 26.136719 8.457031 L 24.925781 8.457031 L 24.925781 5.707031 L 26.136719 5.707031 Z M 26.136719 8.457031 "/>
</g>
</svg>
