<?xml version="1.0" encoding="UTF-8"?>
<svg xmlns="http://www.w3.org/2000/svg" xmlns:xlink="http://www.w3.org/1999/xlink" width="28pt" height="28pt" viewBox="0 0 28 28" version="1.1">
<g id="surface1">
<path style=" stroke:none;fill-rule:nonzero;fill:rgb(0%,0%,0%);fill-opacity:1;" d="M 24.332031 16.253906 C 24.484375 15.550781 24.335938 14.8125 23.921875 14.222656 C 23.511719 13.636719 22.867188 13.246094 22.15625 13.152344 L 16.722656 12.429688 C 16.722656 12.429688 16.71875 12.429688 16.71875 12.429688 L 18.8125 7.359375 C 19.085938 6.699219 19.070312 5.945312 18.769531 5.296875 C 18.464844 4.644531 17.898438 4.144531 17.214844 3.925781 C 16.175781 3.597656 15.097656 3.429688 14 3.429688 C 12.902344 3.429688 11.824219 3.597656 10.785156 3.925781 C 10.101562 4.144531 9.535156 4.644531 9.230469 5.296875 C 8.929688 5.945312 8.914062 6.699219 9.1875 7.359375 L 11.28125 12.429688 C 11.28125 12.429688 11.277344 12.429688 11.277344 12.429688 L 5.84375 13.152344 C 5.132812 13.246094 4.488281 13.636719 4.078125 14.222656 C 3.664062 14.8125 3.515625 15.550781 3.667969 16.253906 C 3.902344 17.316406 4.296875 18.335938 4.84375 19.285156 C 5.394531 20.234375 6.078125 21.089844 6.882812 21.820312 C 7.359375 22.253906 7.980469 22.492188 8.621094 22.492188 C 8.695312 22.492188 8.769531 22.488281 8.84375 22.480469 C 9.558594 22.417969 10.21875 22.054688 10.65625 21.488281 L 13.996094 17.144531 C 14 17.144531 14 17.144531 14 17.144531 C 14 17.144531 14 17.144531 14.003906 17.144531 L 17.34375 21.488281 C 17.78125 22.054688 18.441406 22.417969 19.15625 22.480469 C 19.230469 22.488281 19.304688 22.492188 19.378906 22.492188 C 20.019531 22.492188 20.640625 22.253906 21.117188 21.820312 C 21.921875 21.085938 22.605469 20.234375 23.15625 19.285156 C 23.703125 18.335938 24.097656 17.316406 24.332031 16.253906 Z M 15.429688 14 C 15.429688 14.699219 14.925781 15.28125 14.261719 15.402344 C 14.261719 15.402344 14.261719 15.402344 14.261719 15.40625 C 14.175781 15.421875 14.089844 15.429688 14 15.429688 C 13.910156 15.429688 13.824219 15.421875 13.738281 15.40625 C 13.738281 15.402344 13.738281 15.402344 13.738281 15.402344 C 13.074219 15.28125 12.570312 14.699219 12.570312 14 C 12.570312 13.210938 13.210938 12.570312 14 12.570312 C 14.789062 12.570312 15.429688 13.210938 15.429688 14 Z M 10.785156 6.019531 C 10.890625 5.796875 11.074219 5.632812 11.308594 5.558594 C 12.175781 5.28125 13.082031 5.144531 14 5.144531 C 14.917969 5.144531 15.824219 5.28125 16.691406 5.558594 C 16.925781 5.632812 17.109375 5.796875 17.214844 6.019531 C 17.316406 6.238281 17.320312 6.480469 17.226562 6.707031 L 15.382812 11.175781 C 14.964844 10.972656 14.496094 10.855469 14 10.855469 C 13.503906 10.855469 13.035156 10.972656 12.617188 11.175781 L 10.769531 6.707031 C 10.679688 6.480469 10.683594 6.238281 10.785156 6.019531 Z M 9.296875 20.445312 C 9.148438 20.636719 8.933594 20.753906 8.695312 20.773438 C 8.449219 20.796875 8.21875 20.71875 8.035156 20.550781 C 7.363281 19.9375 6.789062 19.226562 6.328125 18.429688 C 5.871094 17.632812 5.539062 16.777344 5.34375 15.886719 C 5.292969 15.648438 5.339844 15.40625 5.480469 15.207031 C 5.621094 15.011719 5.828125 14.882812 6.066406 14.851562 L 10.867188 14.214844 C 10.933594 15.210938 11.464844 16.078125 12.246094 16.605469 Z M 22.65625 15.886719 C 22.460938 16.777344 22.128906 17.632812 21.671875 18.429688 C 21.210938 19.226562 20.636719 19.9375 19.964844 20.550781 C 19.78125 20.71875 19.546875 20.796875 19.304688 20.773438 C 19.066406 20.753906 18.851562 20.636719 18.703125 20.445312 L 15.753906 16.605469 C 16.535156 16.078125 17.066406 15.210938 17.132812 14.214844 L 21.933594 14.851562 C 22.171875 14.882812 22.378906 15.011719 22.519531 15.207031 C 22.660156 15.40625 22.707031 15.648438 22.65625 15.886719 Z M 27.144531 26.285156 L 25.785156 26.285156 L 23.644531 24.148438 C 23.730469 24.066406 23.816406 23.984375 23.898438 23.898438 C 26.542969 21.253906 28 17.738281 28 14 C 28 10.261719 26.542969 6.746094 23.898438 4.101562 C 21.253906 1.457031 17.738281 0 14 0 C 10.261719 0 6.746094 1.457031 4.101562 4.101562 C 1.457031 6.746094 0 10.261719 0 14 C 0 17.738281 1.457031 21.253906 4.101562 23.898438 C 4.183594 23.984375 4.269531 24.066406 4.355469 24.148438 L 2.214844 26.285156 L 0.855469 26.285156 C 0.382812 26.285156 0 26.667969 0 27.144531 C 0 27.617188 0.382812 28 0.855469 28 L 4.285156 28 C 4.757812 28 5.144531 27.617188 5.144531 27.144531 C 5.144531 26.773438 4.910156 26.460938 4.585938 26.339844 L 5.671875 25.257812 C 8.066406 27.039062 10.960938 28 14 28 C 17.039062 28 19.933594 27.039062 22.328125 25.257812 L 23.414062 26.339844 C 23.089844 26.460938 22.855469 26.773438 22.855469 27.144531 C 22.855469 27.617188 23.242188 28 23.714844 28 L 27.144531 28 C 27.617188 28 28 27.617188 28 27.144531 C 28 26.667969 27.617188 26.285156 27.144531 26.285156 Z M 1.714844 14 C 1.714844 7.226562 7.226562 1.714844 14 1.714844 C 20.773438 1.714844 26.285156 7.226562 26.285156 14 C 26.285156 20.773438 20.773438 26.285156 14 26.285156 C 7.226562 26.285156 1.714844 20.773438 1.714844 14 Z M 1.714844 14 "/>
</g>
</svg>
