<?xml version="1.0" encoding="UTF-8"?>
<svg xmlns="http://www.w3.org/2000/svg" xmlns:xlink="http://www.w3.org/1999/xlink" width="28pt" height="28pt" viewBox="0 0 28 28" version="1.1">
<g id="surface1">
<path style=" stroke:none;fill-rule:nonzero;fill:rgb(0%,0%,0%);fill-opacity:1;" d="M 14.925781 20.710938 C 14.925781 20.621094 14.925781 20.621094 14.925781 20.527344 L 14.925781 11.195312 C 14.925781 10.632812 14.554688 10.261719 13.992188 10.261719 C 13.433594 10.261719 13.0625 10.730469 13.0625 11.195312 L 13.0625 20.523438 C 13.0625 20.613281 13.0625 20.613281 13.0625 20.707031 C 11.9375 21.082031 11.199219 22.105469 11.199219 23.316406 C 11.199219 24.902344 12.414062 26.117188 13.996094 26.117188 C 15.582031 26.117188 16.796875 24.902344 16.796875 23.316406 C 16.792969 22.113281 16.046875 21.085938 14.925781 20.710938 Z M 14.925781 20.710938 "/>
<path style=" stroke:none;fill-rule:nonzero;fill:rgb(0%,0%,0%);fill-opacity:1;" d="M 16.792969 19.59375 L 16.792969 2.800781 C 16.792969 1.214844 15.578125 0 13.992188 0 C 12.40625 0 11.191406 1.308594 11.191406 2.800781 L 11.191406 19.589844 C 10.070312 20.429688 9.328125 21.828125 9.328125 23.320312 C 9.328125 25.933594 11.382812 27.984375 13.992188 27.984375 C 16.601562 27.984375 18.65625 25.933594 18.65625 23.320312 C 18.65625 21.828125 17.910156 20.433594 16.792969 19.59375 Z M 13.992188 27.058594 C 11.9375 27.058594 10.261719 25.378906 10.261719 23.328125 C 10.261719 21.925781 11.007812 20.71875 12.125 20.0625 L 12.125 2.800781 C 12.125 1.777344 12.964844 0.9375 13.988281 0.9375 C 15.011719 0.9375 15.851562 1.777344 15.851562 2.800781 L 15.851562 20.058594 C 16.972656 20.710938 17.714844 21.921875 17.714844 23.320312 C 17.722656 25.375 16.046875 27.058594 13.992188 27.058594 Z M 13.992188 27.058594 "/>
</g>
</svg>
