<?xml version="1.0" encoding="UTF-8"?>
<svg xmlns="http://www.w3.org/2000/svg" xmlns:xlink="http://www.w3.org/1999/xlink" width="28pt" height="28pt" viewBox="0 0 28 28" version="1.1">
<g id="surface1">
<path style=" stroke:none;fill-rule:nonzero;fill:rgb(0%,0%,0%);fill-opacity:1;" d="M 23.335938 5.40625 C 23.15625 5.097656 22.761719 4.992188 22.453125 5.167969 C 22.144531 5.347656 22.035156 5.742188 22.214844 6.050781 C 23.03125 7.476562 23.464844 9.105469 23.464844 10.757812 C 23.464844 15.390625 20.015625 19.414062 15.441406 20.113281 C 15.320312 20.132812 15.195312 20.148438 15.070312 20.164062 C 14.695312 20.203125 14.316406 20.222656 13.9375 20.222656 C 13.683594 20.21875 13.433594 20.207031 13.183594 20.1875 C 12.933594 20.167969 12.6875 20.136719 12.441406 20.09375 C 7.859375 19.335938 4.535156 15.410156 4.535156 10.757812 C 4.535156 5.539062 8.78125 1.292969 14 1.292969 C 16.179688 1.292969 18.410156 2.058594 19.820312 3.292969 C 20.089844 3.527344 20.5 3.5 20.734375 3.234375 C 20.96875 2.964844 20.941406 2.554688 20.671875 2.320312 C 19.011719 0.867188 16.519531 0 14 0 C 8.070312 0 3.242188 4.824219 3.242188 10.757812 C 3.242188 13.320312 4.160156 15.804688 5.824219 17.75 C 7.347656 19.527344 9.40625 20.761719 11.671875 21.261719 L 11.671875 26.707031 L 9.238281 26.707031 C 8.882812 26.707031 8.59375 26.996094 8.59375 27.355469 C 8.59375 27.710938 8.882812 28 9.238281 28 L 18.761719 28 C 19.117188 28 19.40625 27.710938 19.40625 27.355469 C 19.40625 26.996094 19.117188 26.707031 18.761719 26.707031 L 16.328125 26.707031 L 16.328125 21.261719 C 18.574219 20.765625 20.613281 19.550781 22.132812 17.796875 C 23.824219 15.84375 24.757812 13.34375 24.757812 10.757812 C 24.757812 8.878906 24.265625 7.03125 23.335938 5.40625 Z M 15.035156 26.707031 L 12.964844 26.707031 L 12.964844 21.464844 C 12.984375 21.46875 13.003906 21.46875 13.019531 21.46875 C 13.074219 21.476562 13.125 21.480469 13.175781 21.484375 C 13.207031 21.484375 13.238281 21.488281 13.269531 21.488281 C 13.320312 21.492188 13.375 21.496094 13.425781 21.5 C 13.453125 21.5 13.480469 21.503906 13.511719 21.503906 C 13.570312 21.507812 13.632812 21.507812 13.695312 21.511719 C 13.714844 21.511719 13.730469 21.511719 13.75 21.511719 C 13.835938 21.515625 13.917969 21.515625 14 21.515625 C 14.082031 21.515625 14.160156 21.515625 14.242188 21.511719 C 14.257812 21.511719 14.277344 21.511719 14.292969 21.511719 C 14.355469 21.507812 14.417969 21.507812 14.480469 21.503906 C 14.503906 21.503906 14.527344 21.5 14.550781 21.5 C 14.609375 21.496094 14.667969 21.492188 14.730469 21.488281 C 14.75 21.488281 14.773438 21.488281 14.792969 21.484375 C 14.871094 21.480469 14.949219 21.472656 15.027344 21.464844 C 15.03125 21.464844 15.03125 21.464844 15.035156 21.464844 Z M 15.035156 26.707031 "/>
<path style=" stroke:none;fill-rule:nonzero;fill:rgb(0%,0%,0%);fill-opacity:1;" d="M 22.160156 3.75 C 22.101562 3.679688 22.039062 3.609375 21.980469 3.542969 C 21.742188 3.277344 21.332031 3.253906 21.066406 3.496094 C 20.800781 3.734375 20.78125 4.140625 21.019531 4.40625 C 21.074219 4.46875 21.128906 4.53125 21.183594 4.59375 C 21.308594 4.742188 21.492188 4.816406 21.671875 4.816406 C 21.820312 4.816406 21.972656 4.765625 22.09375 4.660156 C 22.363281 4.425781 22.394531 4.019531 22.160156 3.75 Z M 22.160156 3.75 "/>
<path style=" stroke:none;fill-rule:nonzero;fill:rgb(0%,0%,0%);fill-opacity:1;" d="M 17.992188 6.117188 C 17.832031 6.117188 17.675781 6.125 17.519531 6.140625 C 16.394531 6.257812 15.386719 6.773438 14.644531 7.550781 L 14.644531 2.769531 C 14.644531 2.414062 14.355469 2.125 14 2.125 C 11.441406 2.125 9.359375 4.207031 9.359375 6.765625 C 9.359375 7.003906 9.378906 7.238281 9.414062 7.46875 C 9.570312 8.5 10.070312 9.421875 10.792969 10.109375 L 6.011719 10.109375 C 5.65625 10.109375 5.367188 10.398438 5.367188 10.757812 C 5.367188 13.316406 7.449219 15.398438 10.007812 15.398438 C 10.488281 15.398438 10.949219 15.324219 11.382812 15.1875 C 12.144531 14.953125 12.816406 14.523438 13.355469 13.964844 L 13.355469 18.746094 C 13.355469 19.101562 13.644531 19.390625 14 19.390625 C 16.558594 19.390625 18.640625 17.308594 18.640625 14.75 C 18.640625 13.4375 18.089844 12.25 17.207031 11.402344 L 21.988281 11.402344 C 22.34375 11.402344 22.632812 11.113281 22.632812 10.757812 C 22.632812 8.199219 20.550781 6.117188 17.992188 6.117188 Z M 10.007812 14.105469 C 8.382812 14.105469 7.023438 12.941406 6.722656 11.402344 L 13.289062 11.402344 C 12.988281 12.941406 11.632812 14.105469 10.007812 14.105469 Z M 13.355469 10.046875 C 11.816406 9.746094 10.652344 8.386719 10.652344 6.765625 C 10.652344 5.140625 11.816406 3.78125 13.355469 3.480469 Z M 17.347656 14.75 C 17.347656 16.375 16.183594 17.734375 14.644531 18.035156 L 14.644531 11.464844 C 16.183594 11.769531 17.347656 13.125 17.347656 14.75 Z M 14.707031 10.109375 C 15.011719 8.574219 16.367188 7.410156 17.992188 7.410156 C 19.617188 7.410156 20.976562 8.574219 21.277344 10.109375 Z M 14.707031 10.109375 "/>
</g>
</svg>
