<?xml version="1.0" encoding="UTF-8"?>
<svg xmlns="http://www.w3.org/2000/svg" xmlns:xlink="http://www.w3.org/1999/xlink" width="28pt" height="28pt" viewBox="0 0 28 28" version="1.1">
<g id="surface1">
<path style=" stroke:none;fill-rule:nonzero;fill:rgb(0%,0%,0%);fill-opacity:1;" d="M 8.398438 14.464844 L 6.535156 14.464844 C 6.277344 14.464844 6.066406 14.675781 6.066406 14.933594 C 6.066406 15.191406 6.277344 15.398438 6.535156 15.398438 L 8.398438 15.398438 C 8.65625 15.398438 8.867188 15.191406 8.867188 14.933594 C 8.867188 14.675781 8.65625 14.464844 8.398438 14.464844 Z M 8.398438 14.464844 "/>
<path style=" stroke:none;fill-rule:nonzero;fill:rgb(0%,0%,0%);fill-opacity:1;" d="M 21.464844 14.464844 L 19.601562 14.464844 C 19.34375 14.464844 19.132812 14.675781 19.132812 14.933594 C 19.132812 15.191406 19.34375 15.398438 19.601562 15.398438 L 21.464844 15.398438 C 21.722656 15.398438 21.933594 15.191406 21.933594 14.933594 C 21.933594 14.675781 21.722656 14.464844 21.464844 14.464844 Z M 21.464844 14.464844 "/>
<path style=" stroke:none;fill-rule:nonzero;fill:rgb(0%,0%,0%);fill-opacity:1;" d="M 27.535156 13.066406 L 23.332031 13.066406 L 23.332031 2.800781 C 23.332031 2.625 23.234375 2.460938 23.074219 2.382812 L 18.410156 0.0507812 C 18.402344 0.046875 18.398438 0.046875 18.390625 0.0429688 C 18.382812 0.0390625 18.371094 0.0351562 18.359375 0.03125 C 18.3125 0.015625 18.265625 0.00390625 18.21875 0.00390625 C 18.210938 0.00390625 18.207031 0 18.199219 0 L 9.800781 0 C 9.792969 0 9.789062 0.00390625 9.78125 0.00390625 C 9.734375 0.00390625 9.6875 0.015625 9.640625 0.03125 C 9.628906 0.0351562 9.617188 0.0390625 9.609375 0.0429688 C 9.601562 0.046875 9.597656 0.046875 9.589844 0.0507812 L 4.925781 2.382812 C 4.765625 2.460938 4.667969 2.625 4.667969 2.800781 L 4.667969 13.066406 L 0.464844 13.066406 C 0.210938 13.066406 0 13.273438 0 13.535156 C 0 13.792969 0.210938 14 0.464844 14 L 0.464844 16.800781 L 1.398438 16.800781 L 1.398438 28 L 3.734375 28 L 3.734375 16.800781 L 24.265625 16.800781 L 24.265625 28 L 26.601562 28 L 26.601562 16.800781 L 27.535156 16.800781 L 27.535156 14 C 27.792969 14 28 13.792969 28 13.535156 C 28 13.273438 27.792969 13.066406 27.535156 13.066406 Z M 22.398438 13.066406 L 18.667969 13.066406 L 18.667969 1.222656 L 22.398438 3.089844 Z M 17.734375 13.066406 L 10.265625 13.066406 L 10.265625 0.933594 L 17.734375 0.933594 Z M 5.601562 3.089844 L 9.332031 1.222656 L 9.332031 13.066406 L 5.601562 13.066406 Z M 2.800781 27.066406 L 2.332031 27.066406 L 2.332031 16.800781 L 2.800781 16.800781 Z M 13.535156 15.867188 L 1.398438 15.867188 L 1.398438 14 L 13.535156 14 Z M 25.667969 27.066406 L 25.199219 27.066406 L 25.199219 16.800781 L 25.667969 16.800781 Z M 26.601562 15.867188 L 14.464844 15.867188 L 14.464844 14 L 26.601562 14 Z M 26.601562 15.867188 "/>
</g>
</svg>
