<?xml version="1.0" encoding="UTF-8"?>
<svg xmlns="http://www.w3.org/2000/svg" xmlns:xlink="http://www.w3.org/1999/xlink" width="28pt" height="28pt" viewBox="0 0 28 28" version="1.1">
<g id="surface1">
<path style=" stroke:none;fill-rule:nonzero;fill:rgb(0%,0%,0%);fill-opacity:1;" d="M 0 18.667969 L 2.332031 18.667969 L 2.332031 28 L 4.667969 28 L 4.667969 21.464844 L 23.332031 21.464844 L 23.332031 28 L 25.667969 28 L 25.667969 18.667969 L 28 18.667969 L 28 16.332031 L 0 16.332031 Z M 3.734375 27.066406 L 3.265625 27.066406 L 3.265625 21.464844 L 3.734375 21.464844 Z M 24.734375 27.066406 L 24.265625 27.066406 L 24.265625 21.464844 L 24.734375 21.464844 Z M 24.734375 20.535156 L 3.265625 20.535156 L 3.265625 18.667969 L 24.734375 18.667969 Z M 0.933594 17.265625 L 27.066406 17.265625 L 27.066406 17.734375 L 0.933594 17.734375 Z M 0.933594 17.265625 "/>
<path style=" stroke:none;fill-rule:nonzero;fill:rgb(0%,0%,0%);fill-opacity:1;" d="M 21.464844 6.066406 C 21.980469 6.066406 22.398438 5.648438 22.398438 5.132812 L 22.398438 2.800781 L 21.867188 2.800781 C 22.140625 1.804688 21.554688 0.777344 20.5625 0.503906 C 19.566406 0.230469 18.539062 0.816406 18.265625 1.8125 C 18.179688 2.132812 18.179688 2.476562 18.265625 2.800781 L 17.734375 2.800781 L 17.734375 5.132812 C 17.734375 5.648438 18.152344 6.066406 18.667969 6.066406 L 12.132812 6.066406 L 12.132812 0 L 9.332031 0 L 9.332031 6.066406 L 8.867188 6.066406 L 8.867188 0 L 6.066406 0 L 6.066406 6.066406 L 5.601562 6.066406 L 5.601562 0 L 2.800781 0 L 2.800781 6.066406 L 0 6.066406 L 0 8.398438 L 28 8.398438 L 28 6.066406 Z M 20.066406 1.398438 C 20.582031 1.398438 21 1.816406 21 2.332031 C 21 2.496094 20.957031 2.660156 20.871094 2.800781 L 19.261719 2.800781 C 19.179688 2.660156 19.132812 2.496094 19.132812 2.332031 C 19.132812 1.816406 19.550781 1.398438 20.066406 1.398438 Z M 18.667969 3.734375 L 21.464844 3.734375 L 21.464844 5.132812 L 18.667969 5.132812 Z M 10.265625 0.933594 L 11.199219 0.933594 L 11.199219 6.066406 L 10.265625 6.066406 Z M 7 0.933594 L 7.933594 0.933594 L 7.933594 6.066406 L 7 6.066406 Z M 3.734375 0.933594 L 4.667969 0.933594 L 4.667969 6.066406 L 3.734375 6.066406 Z M 27.066406 7.464844 L 0.933594 7.464844 L 0.933594 7 L 27.066406 7 Z M 27.066406 7.464844 "/>
<path style=" stroke:none;fill-rule:nonzero;fill:rgb(0%,0%,0%);fill-opacity:1;" d="M 12.601562 19.132812 L 15.398438 19.132812 L 15.398438 20.066406 L 12.601562 20.066406 Z M 12.601562 19.132812 "/>
</g>
</svg>
