<?xml version="1.0" encoding="UTF-8"?>
<svg xmlns="http://www.w3.org/2000/svg" xmlns:xlink="http://www.w3.org/1999/xlink" width="28pt" height="28pt" viewBox="0 0 28 28" version="1.1">
<g id="surface1">
<path style=" stroke:none;fill-rule:nonzero;fill:rgb(0%,0%,0%);fill-opacity:1;" d="M 23.1875 0 L 4.8125 0 C 4.570312 0 4.375 0.195312 4.375 0.4375 L 4.375 27.5625 C 4.375 27.804688 4.570312 28 4.8125 28 L 23.1875 28 C 23.429688 28 23.625 27.804688 23.625 27.5625 L 23.625 0.4375 C 23.625 0.195312 23.429688 0 23.1875 0 Z M 13.5625 27.125 L 5.25 27.125 L 5.25 23.625 L 7.875 23.625 C 7.632812 23.625 7.4375 23.820312 7.4375 24.0625 C 7.4375 24.304688 7.632812 24.5 7.875 24.5 L 10.9375 24.5 C 11.179688 24.5 11.375 24.304688 11.375 24.0625 C 11.375 23.820312 11.179688 23.625 10.9375 23.625 L 13.5625 23.625 Z M 13.5625 22.75 L 5.25 22.75 L 5.25 19.25 L 7.875 19.25 C 7.632812 19.25 7.4375 19.445312 7.4375 19.6875 C 7.4375 19.929688 7.632812 20.125 7.875 20.125 L 10.9375 20.125 C 11.179688 20.125 11.375 19.929688 11.375 19.6875 C 11.375 19.445312 11.179688 19.25 10.9375 19.25 L 13.5625 19.25 Z M 13.5625 18.375 L 5.25 18.375 L 5.25 0.875 L 13.5625 0.875 Z M 22.75 27.125 L 14.4375 27.125 L 14.4375 23.625 L 17.0625 23.625 C 16.820312 23.625 16.625 23.820312 16.625 24.0625 C 16.625 24.304688 16.820312 24.5 17.0625 24.5 L 20.125 24.5 C 20.367188 24.5 20.5625 24.304688 20.5625 24.0625 C 20.5625 23.820312 20.367188 23.625 20.125 23.625 L 22.75 23.625 Z M 22.75 22.75 L 14.4375 22.75 L 14.4375 19.25 L 17.0625 19.25 C 16.820312 19.25 16.625 19.445312 16.625 19.6875 C 16.625 19.929688 16.820312 20.125 17.0625 20.125 L 20.125 20.125 C 20.367188 20.125 20.5625 19.929688 20.5625 19.6875 C 20.5625 19.445312 20.367188 19.25 20.125 19.25 L 22.75 19.25 Z M 22.75 18.375 L 14.4375 18.375 L 14.4375 0.875 L 22.75 0.875 Z M 22.75 18.375 "/>
<path style=" stroke:none;fill-rule:nonzero;fill:rgb(0%,0%,0%);fill-opacity:1;" d="M 11.375 7.875 C 11.132812 7.875 10.9375 8.070312 10.9375 8.3125 L 10.9375 12.25 C 10.9375 12.492188 11.132812 12.6875 11.375 12.6875 C 11.617188 12.6875 11.8125 12.492188 11.8125 12.25 L 11.8125 8.3125 C 11.8125 8.070312 11.617188 7.875 11.375 7.875 Z M 11.375 7.875 "/>
<path style=" stroke:none;fill-rule:nonzero;fill:rgb(0%,0%,0%);fill-opacity:1;" d="M 16.625 7.875 C 16.382812 7.875 16.1875 8.070312 16.1875 8.3125 L 16.1875 12.25 C 16.1875 12.492188 16.382812 12.6875 16.625 12.6875 C 16.867188 12.6875 17.0625 12.492188 17.0625 12.25 L 17.0625 8.3125 C 17.0625 8.070312 16.867188 7.875 16.625 7.875 Z M 16.625 7.875 "/>
</g>
</svg>
