<?xml version="1.0" encoding="UTF-8"?>
<svg xmlns="http://www.w3.org/2000/svg" xmlns:xlink="http://www.w3.org/1999/xlink" width="28pt" height="28pt" viewBox="0 0 28 28" version="1.1">
<g id="surface1">
<path style=" stroke:none;fill-rule:nonzero;fill:rgb(0%,0%,0%);fill-opacity:1;" d="M 23.921875 18.90625 L 4.078125 18.90625 C 3.84375 18.90625 3.652344 18.714844 3.652344 18.480469 L 3.652344 12.753906 C 3.652344 11.785156 4.4375 11 5.402344 11 L 22.59375 11 C 23.5625 11 24.34375 11.789062 24.34375 12.753906 L 24.34375 18.480469 C 24.347656 18.714844 24.15625 18.90625 23.921875 18.90625 Z M 4.503906 18.058594 L 23.496094 18.058594 L 23.496094 12.753906 C 23.496094 12.253906 23.09375 11.851562 22.59375 11.851562 L 5.40625 11.851562 C 4.90625 11.851562 4.503906 12.253906 4.503906 12.753906 Z M 4.503906 18.058594 "/>
<path style=" stroke:none;fill-rule:nonzero;fill:rgb(0%,0%,0%);fill-opacity:1;" d="M 22.59375 25.867188 L 5.40625 25.867188 C 4.4375 25.867188 3.65625 25.082031 3.65625 24.117188 L 3.65625 18.386719 C 3.65625 18.152344 3.84375 17.964844 4.078125 17.964844 L 23.921875 17.964844 C 24.15625 17.964844 24.347656 18.152344 24.347656 18.386719 L 24.347656 24.117188 C 24.347656 25.082031 23.5625 25.867188 22.59375 25.867188 Z M 4.503906 18.8125 L 4.503906 24.117188 C 4.503906 24.617188 4.90625 25.019531 5.402344 25.019531 L 22.59375 25.019531 C 23.09375 25.019531 23.496094 24.613281 23.496094 24.117188 L 23.496094 18.8125 Z M 4.503906 18.8125 "/>
<path style=" stroke:none;fill-rule:nonzero;fill:rgb(0%,0%,0%);fill-opacity:1;" d="M 6.8125 28 C 6.761719 28 6.703125 27.988281 6.652344 27.96875 C 6.433594 27.878906 6.332031 27.628906 6.421875 27.414062 L 7.304688 25.28125 C 7.394531 25.066406 7.640625 24.960938 7.859375 25.050781 C 8.074219 25.140625 8.175781 25.390625 8.085938 25.605469 L 7.207031 27.738281 C 7.136719 27.902344 6.980469 28 6.8125 28 Z M 6.8125 28 "/>
<path style=" stroke:none;fill-rule:nonzero;fill:rgb(0%,0%,0%);fill-opacity:1;" d="M 21.1875 28 C 21.019531 28 20.863281 27.902344 20.792969 27.738281 L 19.914062 25.605469 C 19.824219 25.390625 19.925781 25.140625 20.140625 25.050781 C 20.359375 24.960938 20.605469 25.066406 20.695312 25.28125 L 21.578125 27.414062 C 21.667969 27.632812 21.5625 27.878906 21.347656 27.96875 C 21.296875 27.988281 21.238281 28 21.1875 28 Z M 21.1875 28 "/>
<path style=" stroke:none;fill-rule:nonzero;fill:rgb(0%,0%,0%);fill-opacity:1;" d="M 14.992188 14.496094 L 13.007812 14.496094 C 12.773438 14.496094 12.582031 14.304688 12.582031 14.070312 C 12.582031 13.839844 12.773438 13.648438 13.007812 13.648438 L 14.992188 13.648438 C 15.226562 13.648438 15.417969 13.839844 15.417969 14.070312 C 15.417969 14.304688 15.226562 14.496094 14.992188 14.496094 Z M 14.992188 14.496094 "/>
<path style=" stroke:none;fill-rule:nonzero;fill:rgb(0%,0%,0%);fill-opacity:1;" d="M 14.992188 21.460938 L 13.007812 21.460938 C 12.773438 21.460938 12.582031 21.269531 12.582031 21.035156 C 12.582031 20.800781 12.773438 20.609375 13.007812 20.609375 L 14.992188 20.609375 C 15.226562 20.609375 15.417969 20.800781 15.417969 21.035156 C 15.417969 21.269531 15.226562 21.460938 14.992188 21.460938 Z M 14.992188 21.460938 "/>
<path style=" stroke:none;fill-rule:nonzero;fill:rgb(0%,0%,0%);fill-opacity:1;" d="M 14.636719 11.851562 L 8.992188 11.851562 C 8.757812 11.851562 8.570312 11.660156 8.570312 11.425781 L 8.570312 9.707031 C 8.570312 9.472656 8.757812 9.28125 8.992188 9.28125 L 14.636719 9.28125 C 14.871094 9.28125 15.0625 9.472656 15.0625 9.707031 L 15.0625 11.425781 C 15.0625 11.660156 14.871094 11.851562 14.636719 11.851562 Z M 9.417969 11 L 14.210938 11 L 14.210938 10.132812 L 9.417969 10.132812 Z M 9.417969 11 "/>
<path style=" stroke:none;fill-rule:nonzero;fill:rgb(0%,0%,0%);fill-opacity:1;" d="M 15.542969 5.398438 L 8.085938 5.398438 C 7.953125 5.398438 7.824219 5.335938 7.742188 5.226562 C 7.664062 5.117188 7.640625 4.976562 7.683594 4.84375 L 9.140625 0.296875 C 9.195312 0.121094 9.359375 0 9.542969 0 L 14.085938 0 C 14.269531 0 14.433594 0.121094 14.492188 0.296875 L 15.945312 4.84375 C 15.988281 4.976562 15.964844 5.117188 15.886719 5.226562 C 15.804688 5.335938 15.675781 5.398438 15.542969 5.398438 Z M 8.667969 4.550781 L 14.960938 4.550781 L 13.777344 0.847656 L 9.851562 0.847656 Z M 8.667969 4.550781 "/>
<path style=" stroke:none;fill-rule:nonzero;fill:rgb(0%,0%,0%);fill-opacity:1;" d="M 11.8125 10.132812 C 11.582031 10.132812 11.390625 9.941406 11.390625 9.707031 L 11.390625 4.976562 C 11.390625 4.742188 11.582031 4.550781 11.8125 4.550781 C 12.046875 4.550781 12.238281 4.742188 12.238281 4.976562 L 12.238281 9.707031 C 12.238281 9.941406 12.050781 10.132812 11.8125 10.132812 Z M 11.8125 10.132812 "/>
<path style=" stroke:none;fill-rule:nonzero;fill:rgb(0%,0%,0%);fill-opacity:1;" d="M 14 6.855469 C 13.765625 6.855469 13.574219 6.664062 13.574219 6.429688 L 13.574219 4.976562 C 13.574219 4.742188 13.765625 4.550781 14 4.550781 C 14.234375 4.550781 14.425781 4.742188 14.425781 4.976562 L 14.425781 6.429688 C 14.425781 6.664062 14.234375 6.855469 14 6.855469 Z M 14 6.855469 "/>
</g>
</svg>
