<?xml version="1.0" encoding="UTF-8"?>
<svg xmlns="http://www.w3.org/2000/svg" xmlns:xlink="http://www.w3.org/1999/xlink" width="28pt" height="28pt" viewBox="0 0 28 28" version="1.1">
<g id="surface1">
<path style=" stroke:none;fill-rule:nonzero;fill:rgb(0%,0%,0%);fill-opacity:1;" d="M 25.585938 5.050781 C 24.253906 5.050781 23.167969 6.136719 23.167969 7.46875 L 23.167969 8.328125 L 4.832031 8.328125 L 4.832031 7.46875 C 4.832031 6.136719 3.746094 5.050781 2.414062 5.050781 C 1.082031 5.050781 0 6.136719 0 7.46875 L 0 22.128906 C 0 22.582031 0.367188 22.949219 0.820312 22.949219 L 4.011719 22.949219 C 4.464844 22.949219 4.832031 22.582031 4.832031 22.128906 L 4.832031 21.007812 L 23.167969 21.007812 L 23.167969 22.128906 C 23.167969 22.582031 23.535156 22.949219 23.988281 22.949219 L 27.179688 22.949219 C 27.632812 22.949219 28 22.582031 28 22.128906 L 28 7.46875 C 28 6.136719 26.917969 5.050781 25.585938 5.050781 Z M 3.191406 21.308594 L 1.640625 21.308594 L 1.640625 7.46875 C 1.640625 7.039062 1.988281 6.691406 2.414062 6.691406 C 2.84375 6.691406 3.191406 7.039062 3.191406 7.46875 Z M 16.820312 9.96875 L 19.179688 9.96875 L 19.179688 15.566406 L 16.820312 15.566406 Z M 12.820312 9.96875 L 15.179688 9.96875 L 15.179688 15.566406 L 12.820312 15.566406 Z M 8.820312 9.96875 L 11.179688 9.96875 L 11.179688 15.566406 L 8.820312 15.566406 Z M 4.832031 9.96875 L 7.179688 9.96875 L 7.179688 15.566406 L 4.832031 15.566406 Z M 23.167969 19.367188 L 4.832031 19.367188 L 4.832031 17.207031 L 23.167969 17.207031 Z M 23.167969 15.566406 L 20.820312 15.566406 L 20.820312 9.96875 L 23.167969 9.96875 Z M 26.359375 21.308594 L 24.808594 21.308594 L 24.808594 7.46875 C 24.808594 7.039062 25.15625 6.691406 25.585938 6.691406 C 26.011719 6.691406 26.359375 7.039062 26.359375 7.46875 Z M 26.359375 21.308594 "/>
</g>
</svg>
