<?xml version="1.0" encoding="UTF-8"?>
<svg xmlns="http://www.w3.org/2000/svg" xmlns:xlink="http://www.w3.org/1999/xlink" width="28pt" height="28pt" viewBox="0 0 28 28" version="1.1">
<g id="surface1">
<path style=" stroke:none;fill-rule:nonzero;fill:rgb(0%,0%,0%);fill-opacity:1;" d="M 27.75 8.585938 C 25.964844 6.796875 23.882812 5.398438 21.570312 4.417969 C 19.171875 3.402344 16.625 2.890625 14 2.890625 C 11.375 2.890625 8.828125 3.402344 6.429688 4.417969 C 4.117188 5.398438 2.035156 6.796875 0.25 8.585938 C -0.0273438 8.863281 -0.078125 9.292969 0.121094 9.628906 L 6.75 20.78125 C 6.902344 21.042969 7.183594 21.203125 7.484375 21.203125 L 8.308594 21.203125 C 8.414062 21.601562 8.558594 21.984375 8.695312 22.359375 C 8.828125 22.714844 8.953125 23.050781 9.039062 23.375 C 9.121094 23.691406 9.164062 23.980469 9.164062 24.253906 C 9.164062 24.726562 9.546875 25.109375 10.019531 25.109375 C 10.492188 25.109375 10.875 24.726562 10.875 24.253906 C 10.875 23.832031 10.816406 23.402344 10.695312 22.9375 C 10.589844 22.53125 10.441406 22.140625 10.300781 21.761719 C 10.230469 21.570312 10.160156 21.382812 10.101562 21.203125 L 12.734375 21.203125 C 12.84375 21.601562 12.984375 21.984375 13.125 22.359375 C 13.253906 22.714844 13.378906 23.050781 13.464844 23.375 C 13.550781 23.691406 13.589844 23.980469 13.589844 24.253906 C 13.589844 24.726562 13.972656 25.109375 14.449219 25.109375 C 14.921875 25.109375 15.304688 24.726562 15.304688 24.253906 C 15.304688 23.832031 15.246094 23.402344 15.125 22.9375 C 15.015625 22.53125 14.871094 22.140625 14.730469 21.761719 C 14.660156 21.570312 14.589844 21.382812 14.527344 21.203125 L 17.164062 21.203125 C 17.269531 21.601562 17.414062 21.984375 17.550781 22.359375 C 17.683594 22.714844 17.808594 23.050781 17.894531 23.375 C 17.976562 23.691406 18.019531 23.980469 18.019531 24.253906 C 18.019531 24.726562 18.402344 25.109375 18.875 25.109375 C 19.347656 25.109375 19.734375 24.726562 19.734375 24.253906 C 19.734375 23.832031 19.671875 23.402344 19.550781 22.9375 C 19.445312 22.53125 19.300781 22.140625 19.160156 21.761719 C 19.085938 21.570312 19.019531 21.382812 18.957031 21.203125 L 20.515625 21.203125 C 20.816406 21.203125 21.097656 21.042969 21.25 20.78125 L 27.878906 9.628906 C 28.078125 9.292969 28.027344 8.859375 27.75 8.585938 Z M 18.714844 19.488281 C 18.738281 19.328125 18.769531 19.160156 18.816406 18.984375 C 18.902344 18.660156 19.027344 18.324219 19.160156 17.96875 C 19.300781 17.589844 19.445312 17.199219 19.550781 16.789062 C 19.671875 16.328125 19.734375 15.898438 19.734375 15.476562 C 19.734375 15.054688 19.675781 14.621094 19.550781 14.160156 C 19.496094 13.953125 19.433594 13.75 19.363281 13.546875 L 20.074219 13.546875 C 20.398438 13.546875 20.5625 13.152344 20.332031 12.925781 L 18.757812 11.351562 C 18.617188 11.210938 18.386719 11.210938 18.242188 11.351562 L 16.671875 12.925781 C 16.441406 13.152344 16.605469 13.546875 16.929688 13.546875 L 17.542969 13.546875 C 17.546875 13.558594 17.546875 13.570312 17.550781 13.578125 C 17.683594 13.9375 17.808594 14.269531 17.894531 14.597656 C 17.976562 14.914062 18.019531 15.203125 18.019531 15.476562 C 18.019531 15.75 17.976562 16.035156 17.894531 16.355469 C 17.808594 16.679688 17.683594 17.015625 17.550781 17.371094 C 17.410156 17.75 17.265625 18.144531 17.15625 18.550781 C 17.074219 18.875 17.019531 19.183594 16.992188 19.488281 L 14.289062 19.488281 C 14.308594 19.328125 14.34375 19.160156 14.386719 18.984375 C 14.472656 18.660156 14.597656 18.324219 14.730469 17.96875 C 14.871094 17.589844 15.015625 17.199219 15.125 16.789062 C 15.246094 16.328125 15.304688 15.898438 15.304688 15.476562 C 15.304688 15.054688 15.246094 14.621094 15.125 14.160156 C 15.070312 13.953125 15.003906 13.75 14.933594 13.546875 L 15.570312 13.546875 C 15.898438 13.546875 16.0625 13.152344 15.832031 12.925781 L 14.257812 11.351562 C 14.117188 11.210938 13.882812 11.210938 13.742188 11.351562 L 12.167969 12.925781 C 11.941406 13.152344 12.101562 13.546875 12.429688 13.546875 L 13.113281 13.546875 C 13.117188 13.558594 13.121094 13.570312 13.125 13.578125 C 13.257812 13.9375 13.382812 14.273438 13.464844 14.597656 C 13.550781 14.914062 13.589844 15.203125 13.589844 15.476562 C 13.589844 15.75 13.550781 16.035156 13.464844 16.355469 C 13.382812 16.679688 13.257812 17.015625 13.125 17.371094 C 12.984375 17.75 12.835938 18.144531 12.730469 18.550781 C 12.644531 18.875 12.589844 19.183594 12.566406 19.488281 L 9.859375 19.488281 C 9.882812 19.328125 9.914062 19.160156 9.960938 18.984375 C 10.046875 18.660156 10.171875 18.324219 10.300781 17.96875 C 10.445312 17.589844 10.589844 17.199219 10.695312 16.789062 C 10.816406 16.328125 10.878906 15.898438 10.878906 15.476562 C 10.878906 15.054688 10.816406 14.621094 10.695312 14.160156 C 10.640625 13.953125 10.578125 13.75 10.507812 13.546875 L 11.070312 13.546875 C 11.398438 13.546875 11.558594 13.152344 11.328125 12.925781 L 9.757812 11.351562 C 9.613281 11.210938 9.382812 11.210938 9.242188 11.351562 L 7.667969 12.925781 C 7.4375 13.152344 7.601562 13.546875 7.925781 13.546875 L 8.683594 13.546875 C 8.6875 13.558594 8.691406 13.570312 8.695312 13.578125 C 8.828125 13.933594 8.953125 14.269531 9.039062 14.597656 C 9.121094 14.914062 9.164062 15.203125 9.164062 15.476562 C 9.164062 15.75 9.121094 16.035156 9.039062 16.355469 C 8.953125 16.679688 8.828125 17.015625 8.695312 17.371094 C 8.554688 17.75 8.410156 18.140625 8.300781 18.550781 C 8.214844 18.875 8.164062 19.183594 8.136719 19.488281 L 7.972656 19.488281 L 1.941406 9.335938 C 5.230469 6.277344 9.484375 4.601562 14 4.601562 C 18.515625 4.601562 22.769531 6.277344 26.058594 9.335938 L 20.027344 19.488281 Z M 18.714844 19.488281 "/>
</g>
</svg>
