<?xml version="1.0" encoding="UTF-8"?>
<svg xmlns="http://www.w3.org/2000/svg" xmlns:xlink="http://www.w3.org/1999/xlink" width="28pt" height="28pt" viewBox="0 0 28 28" version="1.1">
<g id="surface1">
<path style=" stroke:none;fill-rule:nonzero;fill:rgb(0%,0%,0%);fill-opacity:1;" d="M 7.121094 16.703125 L 20.386719 16.703125 C 20.65625 16.703125 20.878906 16.480469 20.878906 16.210938 L 20.878906 0.492188 C 20.878906 0.21875 20.65625 0 20.386719 0 L 7.121094 0 C 6.851562 0 6.632812 0.21875 6.632812 0.492188 L 6.632812 16.210938 C 6.632812 16.480469 6.851562 16.703125 7.121094 16.703125 Z M 7.613281 15.71875 L 7.613281 12.773438 L 13.507812 12.773438 L 13.507812 15.71875 Z M 14.492188 15.71875 L 14.492188 12.773438 L 19.894531 12.773438 L 19.894531 15.71875 Z M 19.894531 11.789062 L 14.492188 11.789062 L 14.492188 0.984375 L 19.894531 0.984375 Z M 13.507812 0.984375 L 13.507812 11.789062 L 7.613281 11.789062 L 7.613281 0.984375 Z M 13.507812 0.984375 "/>
<path style=" stroke:none;fill-rule:nonzero;fill:rgb(0%,0%,0%);fill-opacity:1;" d="M 23.328125 17.683594 L 4.671875 17.683594 C 3.585938 17.683594 2.703125 18.566406 2.703125 19.648438 L 2.703125 25.050781 C 2.703125 26.136719 3.585938 27.015625 4.671875 27.015625 L 7.121094 27.015625 L 7.121094 28 L 8.105469 28 L 8.105469 27.015625 L 19.894531 27.015625 L 19.894531 28 L 20.878906 28 L 20.878906 27.015625 L 23.328125 27.015625 C 24.414062 27.015625 25.296875 26.136719 25.296875 25.050781 L 25.296875 19.648438 C 25.296875 18.566406 24.414062 17.683594 23.328125 17.683594 Z M 24.316406 25.050781 C 24.316406 25.59375 23.875 26.035156 23.328125 26.035156 L 4.671875 26.035156 C 4.125 26.035156 3.683594 25.59375 3.683594 25.050781 L 3.683594 19.648438 C 3.683594 19.105469 4.125 18.667969 4.671875 18.667969 L 23.328125 18.667969 C 23.875 18.667969 24.316406 19.105469 24.316406 19.648438 Z M 24.316406 25.050781 "/>
<path style=" stroke:none;fill-rule:nonzero;fill:rgb(0%,0%,0%);fill-opacity:1;" d="M 6.140625 19.648438 L 7.121094 19.648438 L 7.121094 25.050781 L 6.140625 25.050781 Z M 6.140625 19.648438 "/>
<path style=" stroke:none;fill-rule:nonzero;fill:rgb(0%,0%,0%);fill-opacity:1;" d="M 11.050781 19.648438 L 12.035156 19.648438 L 12.035156 25.050781 L 11.050781 25.050781 Z M 11.050781 19.648438 "/>
<path style=" stroke:none;fill-rule:nonzero;fill:rgb(0%,0%,0%);fill-opacity:1;" d="M 15.964844 19.648438 L 16.949219 19.648438 L 16.949219 25.050781 L 15.964844 25.050781 Z M 15.964844 19.648438 "/>
<path style=" stroke:none;fill-rule:nonzero;fill:rgb(0%,0%,0%);fill-opacity:1;" d="M 8.597656 19.648438 L 9.578125 19.648438 L 9.578125 25.050781 L 8.597656 25.050781 Z M 8.597656 19.648438 "/>
<path style=" stroke:none;fill-rule:nonzero;fill:rgb(0%,0%,0%);fill-opacity:1;" d="M 13.507812 19.648438 L 14.492188 19.648438 L 14.492188 25.050781 L 13.507812 25.050781 Z M 13.507812 19.648438 "/>
<path style=" stroke:none;fill-rule:nonzero;fill:rgb(0%,0%,0%);fill-opacity:1;" d="M 18.421875 19.648438 L 19.402344 19.648438 L 19.402344 25.050781 L 18.421875 25.050781 Z M 18.421875 19.648438 "/>
<path style=" stroke:none;fill-rule:nonzero;fill:rgb(0%,0%,0%);fill-opacity:1;" d="M 20.878906 19.648438 L 21.859375 19.648438 L 21.859375 25.050781 L 20.878906 25.050781 Z M 20.878906 19.648438 "/>
</g>
</svg>
