<?xml version="1.0" encoding="UTF-8"?>
<svg xmlns="http://www.w3.org/2000/svg" xmlns:xlink="http://www.w3.org/1999/xlink" width="28pt" height="28pt" viewBox="0 0 28 28" version="1.1">
<g id="surface1">
<path style=" stroke:none;fill-rule:nonzero;fill:rgb(0%,0%,0%);fill-opacity:1;" d="M 21.984375 9.078125 C 21.683594 9.078125 21.4375 9.324219 21.4375 9.625 C 21.4375 9.925781 21.683594 10.171875 21.984375 10.171875 C 22.285156 10.171875 22.53125 9.925781 22.53125 9.625 C 22.53125 9.324219 22.285156 9.078125 21.984375 9.078125 Z M 21.984375 9.078125 "/>
<path style=" stroke:none;fill-rule:nonzero;fill:rgb(0%,0%,0%);fill-opacity:1;" d="M 26.359375 6.890625 L 20.355469 6.890625 L 18.621094 3.421875 C 18.339844 2.863281 17.777344 2.515625 17.152344 2.515625 L 10.847656 2.515625 C 10.222656 2.515625 9.660156 2.863281 9.378906 3.421875 L 7.644531 6.890625 L 6.5625 6.890625 L 6.5625 6.34375 C 6.5625 5.4375 5.828125 4.703125 4.921875 4.703125 L 3.828125 4.703125 C 2.921875 4.703125 2.1875 5.4375 2.1875 6.34375 L 2.1875 6.890625 L 1.640625 6.890625 C 0.734375 6.890625 0 7.625 0 8.53125 C 0 10.015625 0 23.265625 0 23.84375 C 0 24.75 0.734375 25.484375 1.640625 25.484375 L 26.359375 25.484375 C 27.265625 25.484375 28 24.75 28 23.84375 C 28 22.359375 28 9.109375 28 8.53125 C 28 7.625 27.265625 6.890625 26.359375 6.890625 Z M 10.359375 3.910156 C 10.453125 3.726562 10.640625 3.609375 10.847656 3.609375 L 17.152344 3.609375 C 17.359375 3.609375 17.546875 3.726562 17.640625 3.910156 L 19.128906 6.890625 L 8.871094 6.890625 Z M 3.28125 6.34375 C 3.28125 6.042969 3.527344 5.796875 3.828125 5.796875 L 4.921875 5.796875 C 5.222656 5.796875 5.46875 6.042969 5.46875 6.34375 L 5.46875 6.890625 L 3.28125 6.890625 Z M 1.09375 12.355469 L 8.007812 12.355469 C 7.28125 13.488281 6.890625 14.820312 6.890625 16.1875 C 6.890625 17.554688 7.28125 18.878906 8.007812 20.015625 L 1.09375 20.015625 Z M 14 10.171875 C 17.289062 10.171875 20.015625 12.835938 20.015625 16.1875 C 20.015625 19.535156 17.292969 22.203125 14 22.203125 C 10.703125 22.203125 7.984375 19.53125 7.984375 16.1875 C 7.984375 12.839844 10.707031 10.171875 14 10.171875 Z M 26.90625 23.84375 C 26.90625 24.144531 26.660156 24.390625 26.359375 24.390625 L 1.640625 24.390625 C 1.339844 24.390625 1.09375 24.144531 1.09375 23.84375 L 1.09375 21.109375 L 8.871094 21.109375 C 10.207031 22.503906 12.0625 23.296875 14 23.296875 C 15.9375 23.296875 17.792969 22.503906 19.128906 21.109375 L 26.90625 21.109375 Z M 26.90625 20.015625 L 19.992188 20.015625 C 20.71875 18.878906 21.109375 17.554688 21.109375 16.1875 C 21.109375 14.820312 20.71875 13.496094 19.992188 12.359375 L 26.90625 12.359375 Z M 26.90625 11.265625 L 19.128906 11.265625 C 17.792969 9.871094 15.9375 9.078125 14 9.078125 C 12.0625 9.078125 10.207031 9.871094 8.871094 11.265625 L 1.09375 11.265625 L 1.09375 8.53125 C 1.09375 8.230469 1.339844 7.984375 1.640625 7.984375 C 2.136719 7.984375 25.589844 7.984375 26.359375 7.984375 C 26.660156 7.984375 26.90625 8.230469 26.90625 8.53125 Z M 26.90625 11.265625 "/>
<path style=" stroke:none;fill-rule:nonzero;fill:rgb(0%,0%,0%);fill-opacity:1;" d="M 15.640625 4.703125 L 12.359375 4.703125 C 12.058594 4.703125 11.8125 4.949219 11.8125 5.25 C 11.8125 5.550781 12.058594 5.796875 12.359375 5.796875 L 15.640625 5.796875 C 15.941406 5.796875 16.1875 5.550781 16.1875 5.25 C 16.1875 4.949219 15.941406 4.703125 15.640625 4.703125 Z M 15.640625 4.703125 "/>
<path style=" stroke:none;fill-rule:nonzero;fill:rgb(0%,0%,0%);fill-opacity:1;" d="M 14 11.265625 C 11.285156 11.265625 9.078125 13.472656 9.078125 16.1875 C 9.078125 18.902344 11.285156 21.109375 14 21.109375 C 16.714844 21.109375 18.921875 18.902344 18.921875 16.1875 C 18.921875 13.472656 16.714844 11.265625 14 11.265625 Z M 14 20.015625 C 11.890625 20.015625 10.171875 18.296875 10.171875 16.1875 C 10.171875 14.078125 11.890625 12.359375 14 12.359375 C 16.109375 12.359375 17.828125 14.078125 17.828125 16.1875 C 17.828125 18.296875 16.109375 20.015625 14 20.015625 Z M 14 20.015625 "/>
<path style=" stroke:none;fill-rule:nonzero;fill:rgb(0%,0%,0%);fill-opacity:1;" d="M 14 13.453125 C 12.492188 13.453125 11.265625 14.679688 11.265625 16.1875 C 11.265625 16.488281 11.511719 16.734375 11.8125 16.734375 C 12.113281 16.734375 12.359375 16.488281 12.359375 16.1875 C 12.359375 15.28125 13.09375 14.546875 14 14.546875 C 14.300781 14.546875 14.546875 14.300781 14.546875 14 C 14.546875 13.699219 14.300781 13.453125 14 13.453125 Z M 14 13.453125 "/>
<path style=" stroke:none;fill-rule:nonzero;fill:rgb(0%,0%,0%);fill-opacity:1;" d="M 25.265625 9.078125 L 24.171875 9.078125 C 23.871094 9.078125 23.625 9.324219 23.625 9.625 C 23.625 9.925781 23.871094 10.171875 24.171875 10.171875 L 25.265625 10.171875 C 25.566406 10.171875 25.8125 9.925781 25.8125 9.625 C 25.8125 9.324219 25.566406 9.078125 25.265625 9.078125 Z M 25.265625 9.078125 "/>
</g>
</svg>
