<?xml version="1.0" encoding="UTF-8"?>
<svg xmlns="http://www.w3.org/2000/svg" xmlns:xlink="http://www.w3.org/1999/xlink" width="28pt" height="28pt" viewBox="0 0 28 28" version="1.1">
<g id="surface1">
<path style=" stroke:none;fill-rule:nonzero;fill:rgb(0%,0%,0%);fill-opacity:1;" d="M 7.710938 19.171875 C 7.226562 19.171875 6.832031 19.5625 6.832031 20.046875 C 6.832031 20.53125 7.226562 20.925781 7.710938 20.925781 C 8.195312 20.925781 8.585938 20.53125 8.585938 20.046875 C 8.585938 19.5625 8.195312 19.171875 7.710938 19.171875 Z M 7.710938 19.171875 "/>
<path style=" stroke:none;fill-rule:nonzero;fill:rgb(0%,0%,0%);fill-opacity:1;" d="M 25.128906 17.175781 C 24.539062 17.175781 23.992188 17.351562 23.535156 17.660156 L 22.933594 17.660156 L 21.910156 16.292969 C 21.644531 15.9375 21.21875 15.722656 20.773438 15.722656 L 19.742188 15.722656 C 19.761719 15.636719 19.777344 15.542969 19.777344 15.449219 C 19.777344 15.355469 19.761719 15.265625 19.742188 15.179688 L 19.804688 15.179688 C 20.589844 15.179688 21.226562 14.542969 21.226562 13.757812 L 21.226562 12.636719 C 21.226562 11.664062 20.5 10.851562 19.53125 10.746094 L 13.726562 10.097656 C 13.1875 10.039062 12.648438 10.210938 12.246094 10.574219 C 11.84375 10.933594 11.613281 11.453125 11.613281 11.992188 L 11.613281 13.757812 C 11.613281 14.542969 12.25 15.179688 13.03125 15.179688 L 13.097656 15.179688 C 13.074219 15.265625 13.0625 15.355469 13.0625 15.449219 C 13.0625 15.542969 13.074219 15.636719 13.097656 15.722656 L 12.066406 15.722656 C 11.730469 15.722656 11.410156 15.84375 11.15625 16.054688 L 2.515625 5.597656 C 2.019531 4.992188 1.121094 4.90625 0.515625 5.40625 C 0.222656 5.648438 0.0429688 5.988281 0.0078125 6.367188 C -0.03125 6.742188 0.0820312 7.113281 0.324219 7.40625 L 8.484375 17.28125 C 8.238281 17.210938 7.976562 17.175781 7.710938 17.175781 C 6.125 17.175781 4.839844 18.464844 4.839844 20.046875 C 4.839844 21.632812 6.125 22.917969 7.710938 22.917969 C 8.300781 22.917969 8.847656 22.742188 9.304688 22.4375 L 23.535156 22.4375 C 23.992188 22.742188 24.539062 22.917969 25.128906 22.917969 C 26.710938 22.917969 28 21.632812 28 20.046875 C 28 18.464844 26.710938 17.175781 25.128906 17.175781 Z M 10.175781 18.574219 C 10.179688 18.570312 10.183594 18.570312 10.1875 18.566406 L 22.667969 18.566406 C 22.40625 19 22.253906 19.503906 22.253906 20.046875 C 22.253906 20.589844 22.40625 21.097656 22.667969 21.527344 L 10.171875 21.527344 C 10.433594 21.097656 10.582031 20.589844 10.582031 20.046875 C 10.582031 19.507812 10.433594 19.007812 10.175781 18.574219 Z M 12.519531 13.757812 L 12.519531 11.992188 C 12.519531 11.707031 12.636719 11.441406 12.851562 11.25 C 13.035156 11.082031 13.269531 10.996094 13.511719 10.996094 C 13.550781 10.996094 13.589844 10.996094 13.625 11 L 19.433594 11.644531 C 19.9375 11.703125 20.320312 12.128906 20.320312 12.636719 L 20.320312 13.757812 C 20.320312 14.042969 20.089844 14.273438 19.804688 14.273438 L 13.03125 14.273438 C 12.75 14.273438 12.519531 14.042969 12.519531 13.757812 Z M 13.96875 15.449219 C 13.96875 15.300781 14.09375 15.179688 14.242188 15.179688 L 18.597656 15.179688 C 18.746094 15.179688 18.867188 15.300781 18.867188 15.449219 C 18.867188 15.601562 18.746094 15.722656 18.597656 15.722656 L 14.242188 15.722656 C 14.09375 15.722656 13.96875 15.601562 13.96875 15.449219 Z M 20.773438 16.628906 C 20.933594 16.628906 21.089844 16.707031 21.183594 16.835938 L 21.800781 17.660156 L 12.03125 17.660156 C 12.039062 17.335938 11.9375 17.015625 11.730469 16.753906 C 11.824219 16.675781 11.941406 16.628906 12.066406 16.628906 Z M 0.910156 6.453125 C 0.921875 6.316406 0.988281 6.191406 1.09375 6.105469 C 1.3125 5.925781 1.636719 5.953125 1.816406 6.171875 L 11.011719 17.300781 C 11.09375 17.402344 11.132812 17.53125 11.125 17.660156 L 9.972656 17.660156 L 1.023438 6.828125 C 0.9375 6.722656 0.898438 6.589844 0.910156 6.453125 Z M 5.746094 20.046875 C 5.746094 18.964844 6.628906 18.082031 7.710938 18.082031 C 8.792969 18.082031 9.675781 18.964844 9.675781 20.046875 C 9.675781 21.128906 8.792969 22.011719 7.710938 22.011719 C 6.628906 22.011719 5.746094 21.128906 5.746094 20.046875 Z M 25.128906 22.011719 C 24.042969 22.011719 23.160156 21.128906 23.160156 20.046875 C 23.160156 18.964844 24.042969 18.082031 25.128906 18.082031 C 26.210938 18.082031 27.09375 18.964844 27.09375 20.046875 C 27.09375 21.128906 26.210938 22.011719 25.128906 22.011719 Z M 25.128906 22.011719 "/>
<path style=" stroke:none;fill-rule:nonzero;fill:rgb(0%,0%,0%);fill-opacity:1;" d="M 25.128906 19.171875 C 24.644531 19.171875 24.25 19.5625 24.25 20.046875 C 24.25 20.53125 24.644531 20.925781 25.128906 20.925781 C 25.609375 20.925781 26.003906 20.53125 26.003906 20.046875 C 26.003906 19.5625 25.609375 19.171875 25.128906 19.171875 Z M 25.128906 19.171875 "/>
</g>
</svg>
