<?xml version="1.0" encoding="UTF-8"?>
<svg xmlns="http://www.w3.org/2000/svg" xmlns:xlink="http://www.w3.org/1999/xlink" width="28pt" height="28pt" viewBox="0 0 28 28" version="1.1">
<g id="surface1">
<path style=" stroke:none;fill-rule:nonzero;fill:rgb(0%,0%,0%);fill-opacity:1;" d="M 25.878906 22.152344 L 2.121094 22.152344 C 0.953125 22.152344 0 21.203125 0 20.03125 L 0 3.910156 C 0 2.742188 0.953125 1.789062 2.121094 1.789062 L 25.878906 1.789062 C 27.046875 1.789062 28 2.742188 28 3.910156 L 28 20.03125 C 28 21.203125 27.046875 22.152344 25.878906 22.152344 Z M 2.121094 2.640625 C 1.417969 2.640625 0.847656 3.210938 0.847656 3.910156 L 0.847656 20.03125 C 0.847656 20.734375 1.417969 21.304688 2.121094 21.304688 L 25.878906 21.304688 C 26.582031 21.304688 27.152344 20.734375 27.152344 20.03125 L 27.152344 3.910156 C 27.152344 3.210938 26.582031 2.640625 25.878906 2.640625 Z M 2.121094 2.640625 "/>
<path style=" stroke:none;fill-rule:nonzero;fill:rgb(0%,0%,0%);fill-opacity:1;" d="M 19.410156 26.210938 L 8.589844 26.210938 C 8.355469 26.210938 8.167969 26.019531 8.167969 25.785156 C 8.167969 25.550781 8.355469 25.359375 8.589844 25.359375 L 19.410156 25.359375 C 19.644531 25.359375 19.832031 25.550781 19.832031 25.785156 C 19.832031 26.019531 19.644531 26.210938 19.410156 26.210938 Z M 19.410156 26.210938 "/>
<path style=" stroke:none;fill-rule:nonzero;fill:rgb(0%,0%,0%);fill-opacity:1;" d="M 14 26.210938 C 13.765625 26.210938 13.574219 26.019531 13.574219 25.785156 L 13.574219 21.730469 C 13.574219 21.496094 13.765625 21.304688 14 21.304688 C 14.234375 21.304688 14.425781 21.496094 14.425781 21.730469 L 14.425781 25.785156 C 14.425781 26.019531 14.234375 26.210938 14 26.210938 Z M 14 26.210938 "/>
</g>
</svg>
