<?xml version="1.0" encoding="UTF-8"?>
<svg xmlns="http://www.w3.org/2000/svg" xmlns:xlink="http://www.w3.org/1999/xlink" width="28pt" height="27pt" viewBox="0 0 28 27" version="1.1">
<g id="surface1">
<path style=" stroke:none;fill-rule:nonzero;fill:rgb(0%,0%,0%);fill-opacity:1;" d="M 26.082031 22.070312 C 23.109375 20.773438 22.996094 15.210938 22.992188 15.070312 L 22.992188 11.339844 C 22.992188 7.75 20.714844 4.660156 17.484375 3.347656 C 17.476562 1.5 15.917969 0 14 0 C 12.082031 0 10.523438 1.5 10.515625 3.347656 C 7.285156 4.660156 5.007812 7.75 5.007812 11.339844 L 5.007812 15.070312 C 5.003906 15.210938 4.890625 20.773438 1.917969 22.070312 C 1.578125 22.21875 1.390625 22.574219 1.46875 22.925781 C 1.546875 23.273438 1.871094 23.523438 2.242188 23.523438 L 9.785156 23.523438 C 9.941406 24.34375 10.34375 25.109375 10.957031 25.726562 C 11.773438 26.546875 12.855469 27 14 27 C 15.144531 27 16.226562 26.546875 17.042969 25.726562 C 17.65625 25.109375 18.058594 24.34375 18.214844 23.523438 L 25.757812 23.523438 C 26.128906 23.523438 26.453125 23.273438 26.53125 22.925781 C 26.609375 22.574219 26.421875 22.21875 26.082031 22.070312 Z M 22.164062 19.40625 C 22.476562 20.320312 22.917969 21.238281 23.546875 22.003906 L 4.453125 22.003906 C 5.082031 21.238281 5.523438 20.320312 5.835938 19.40625 Z M 14 1.523438 C 14.867188 1.523438 15.601562 2.085938 15.828125 2.851562 C 15.238281 2.730469 14.625 2.667969 14 2.667969 C 13.375 2.667969 12.761719 2.730469 12.171875 2.851562 C 12.402344 2.085938 13.132812 1.523438 14 1.523438 Z M 6.585938 15.078125 L 6.585938 11.339844 C 6.585938 7.398438 9.914062 4.191406 14 4.191406 C 18.085938 4.191406 21.414062 7.398438 21.414062 11.339844 L 21.414062 15.082031 C 21.414062 15.199219 21.433594 16.402344 21.746094 17.882812 L 6.253906 17.882812 C 6.566406 16.398438 6.585938 15.195312 6.585938 15.078125 Z M 14 25.476562 C 12.796875 25.476562 11.742188 24.640625 11.40625 23.523438 L 16.59375 23.523438 C 16.257812 24.640625 15.207031 25.476562 14 25.476562 Z M 14 25.476562 "/>
<path style=" stroke:none;fill-rule:nonzero;fill:rgb(0%,0%,0%);fill-opacity:1;" d="M 14 5.261719 C 10.601562 5.261719 7.839844 7.925781 7.839844 11.199219 C 7.839844 11.621094 8.191406 11.960938 8.628906 11.960938 C 9.066406 11.960938 9.417969 11.621094 9.417969 11.199219 C 9.417969 8.765625 11.472656 6.78125 14 6.78125 C 14.4375 6.78125 14.789062 6.441406 14.789062 6.023438 C 14.789062 5.601562 14.4375 5.261719 14 5.261719 Z M 14 5.261719 "/>
</g>
</svg>
