<?xml version="1.0" encoding="UTF-8"?>
<svg xmlns="http://www.w3.org/2000/svg" xmlns:xlink="http://www.w3.org/1999/xlink" width="28pt" height="28pt" viewBox="0 0 28 28" version="1.1">
<g id="surface1">
<path style=" stroke:none;fill-rule:nonzero;fill:rgb(0%,0%,0%);fill-opacity:1;" d="M 20.441406 7.632812 C 19.597656 6.800781 18.476562 6.347656 17.289062 6.355469 C 16.101562 6.367188 14.992188 6.835938 14.160156 7.679688 C 13.328125 8.519531 12.878906 9.640625 12.882812 10.828125 C 12.882812 11.015625 13.035156 11.167969 13.222656 11.167969 C 13.410156 11.167969 13.5625 11.015625 13.5625 10.828125 C 13.554688 9.824219 13.941406 8.878906 14.640625 8.160156 C 15.34375 7.441406 16.289062 7.042969 17.296875 7.039062 C 18.304688 7.03125 19.246094 7.417969 19.964844 8.121094 C 20.683594 8.820312 21.082031 9.765625 21.085938 10.773438 C 21.09375 11.78125 20.707031 12.726562 20.003906 13.445312 C 19.304688 14.160156 18.359375 14.558594 17.351562 14.5625 C 17.164062 14.5625 17.011719 14.714844 17.011719 14.902344 C 17.011719 15.089844 17.164062 15.242188 17.351562 15.242188 C 18.539062 15.230469 19.648438 14.761719 20.480469 13.917969 C 21.3125 13.074219 21.777344 11.949219 21.765625 10.761719 C 21.753906 9.574219 21.285156 8.464844 20.441406 7.632812 Z M 20.441406 7.632812 "/>
<path style=" stroke:none;fill-rule:nonzero;fill:rgb(0%,0%,0%);fill-opacity:1;" d="M 27.226562 12.691406 L 26.171875 12.253906 C 26.335938 11.277344 26.335938 10.292969 26.171875 9.320312 L 27.226562 8.882812 C 27.523438 8.765625 27.769531 8.527344 27.894531 8.214844 C 28.023438 7.90625 28.023438 7.566406 27.894531 7.253906 L 27.304688 5.828125 C 27.175781 5.515625 26.9375 5.277344 26.625 5.148438 C 26.3125 5.019531 25.976562 5.019531 25.664062 5.148438 L 24.609375 5.585938 C 24.039062 4.78125 23.34375 4.085938 22.535156 3.507812 L 22.96875 2.457031 C 23.234375 1.816406 22.929688 1.082031 22.292969 0.816406 L 20.871094 0.226562 C 20.230469 -0.0390625 19.496094 0.265625 19.230469 0.90625 L 18.796875 1.957031 C 17.816406 1.792969 16.832031 1.792969 15.859375 1.957031 L 15.421875 0.90625 C 15.292969 0.59375 15.054688 0.355469 14.742188 0.226562 C 14.433594 0.0976562 14.09375 0.0976562 13.78125 0.226562 L 12.363281 0.816406 C 12.050781 0.945312 11.8125 1.183594 11.683594 1.496094 C 11.554688 1.804688 11.554688 2.144531 11.683594 2.457031 L 12.117188 3.507812 C 11.316406 4.078125 10.621094 4.777344 10.042969 5.585938 L 8.988281 5.148438 C 8.679688 5.019531 8.339844 5.019531 8.027344 5.148438 C 7.71875 5.277344 7.480469 5.515625 7.347656 5.828125 L 6.753906 7.25 C 6.488281 7.886719 6.796875 8.621094 7.433594 8.890625 L 8.742188 9.433594 C 8.917969 9.503906 9.113281 9.421875 9.183594 9.25 C 9.257812 9.074219 9.171875 8.878906 9 8.808594 L 7.695312 8.265625 C 7.398438 8.140625 7.257812 7.808594 7.382812 7.515625 L 7.972656 6.09375 C 8.089844 5.800781 8.429688 5.660156 8.722656 5.78125 L 10.03125 6.324219 C 10.179688 6.386719 10.355469 6.335938 10.445312 6.203125 C 11.050781 5.296875 11.820312 4.527344 12.71875 3.925781 C 12.855469 3.835938 12.90625 3.667969 12.84375 3.515625 L 12.300781 2.207031 C 12.242188 2.066406 12.242188 1.90625 12.300781 1.765625 C 12.355469 1.625 12.46875 1.511719 12.609375 1.453125 L 14.035156 0.867188 C 14.179688 0.808594 14.335938 0.808594 14.476562 0.867188 C 14.621094 0.921875 14.734375 1.035156 14.789062 1.175781 L 15.332031 2.484375 C 15.394531 2.632812 15.554688 2.714844 15.710938 2.6875 C 16.78125 2.472656 17.863281 2.472656 18.929688 2.6875 C 19.089844 2.722656 19.246094 2.636719 19.308594 2.484375 L 19.851562 1.175781 C 19.976562 0.882812 20.3125 0.742188 20.605469 0.867188 L 22.027344 1.453125 C 22.320312 1.578125 22.460938 1.914062 22.335938 2.207031 L 21.804688 3.503906 C 21.742188 3.648438 21.792969 3.824219 21.929688 3.914062 C 22.835938 4.519531 23.605469 5.289062 24.203125 6.191406 C 24.292969 6.324219 24.464844 6.375 24.617188 6.316406 L 25.921875 5.773438 C 26.066406 5.714844 26.222656 5.714844 26.363281 5.773438 C 26.507812 5.828125 26.621094 5.941406 26.675781 6.082031 L 27.265625 7.507812 C 27.320312 7.648438 27.320312 7.808594 27.265625 7.949219 C 27.207031 8.089844 27.09375 8.203125 26.953125 8.261719 L 25.648438 8.804688 C 25.5 8.867188 25.414062 9.023438 25.441406 9.183594 C 25.65625 10.253906 25.652344 11.332031 25.441406 12.402344 C 25.410156 12.5625 25.492188 12.71875 25.648438 12.78125 L 26.953125 13.324219 C 27.246094 13.449219 27.390625 13.78125 27.265625 14.078125 L 26.675781 15.496094 C 26.550781 15.792969 26.21875 15.933594 25.921875 15.808594 L 24.617188 15.265625 C 24.46875 15.203125 24.292969 15.253906 24.203125 15.390625 C 23.597656 16.292969 22.828125 17.0625 21.929688 17.664062 C 21.792969 17.753906 21.742188 17.925781 21.804688 18.078125 L 22.347656 19.382812 C 22.40625 19.527344 22.40625 19.683594 22.347656 19.824219 C 22.292969 19.964844 22.179688 20.078125 22.035156 20.136719 L 20.609375 20.726562 C 20.46875 20.78125 20.3125 20.78125 20.167969 20.726562 C 20.027344 20.667969 19.914062 20.554688 19.859375 20.414062 L 19.316406 19.105469 C 19.242188 18.929688 19.042969 18.851562 18.875 18.925781 C 18.699219 19 18.621094 19.199219 18.691406 19.367188 L 19.234375 20.675781 C 19.367188 20.984375 19.605469 21.222656 19.914062 21.351562 C 20.066406 21.414062 20.230469 21.449219 20.394531 21.449219 C 20.558594 21.449219 20.722656 21.414062 20.878906 21.351562 L 22.304688 20.765625 C 22.613281 20.632812 22.851562 20.398438 22.980469 20.085938 C 23.113281 19.773438 23.113281 19.433594 22.980469 19.125 L 22.546875 18.070312 C 23.347656 17.5 24.046875 16.804688 24.621094 15.996094 L 25.675781 16.429688 C 25.984375 16.5625 26.324219 16.5625 26.636719 16.429688 C 26.949219 16.300781 27.183594 16.0625 27.316406 15.75 L 27.902344 14.332031 C 28.167969 13.691406 27.863281 12.957031 27.226562 12.691406 Z M 27.226562 12.691406 "/>
<path style=" stroke:none;fill-rule:nonzero;fill:rgb(0%,0%,0%);fill-opacity:1;" d="M 8.179688 16.503906 C 6.425781 16.503906 5 17.9375 5 19.691406 C 5 21.445312 6.425781 22.863281 8.179688 22.863281 C 9.933594 22.863281 11.359375 21.4375 11.359375 19.683594 C 11.359375 17.929688 9.933594 16.503906 8.179688 16.503906 Z M 8.179688 22.191406 C 6.800781 22.191406 5.679688 21.070312 5.679688 19.691406 C 5.679688 18.308594 6.800781 17.1875 8.179688 17.1875 C 9.5625 17.1875 10.683594 18.308594 10.683594 19.691406 C 10.683594 21.070312 9.5625 22.191406 8.179688 22.191406 Z M 8.179688 22.191406 "/>
<path style=" stroke:none;fill-rule:nonzero;fill:rgb(0%,0%,0%);fill-opacity:1;" d="M 15.355469 18.109375 L 14.601562 18.109375 C 14.445312 17.449219 14.183594 16.828125 13.828125 16.242188 L 14.359375 15.710938 C 14.550781 15.519531 14.652344 15.269531 14.652344 15 C 14.652344 14.734375 14.550781 14.480469 14.359375 14.285156 L 13.566406 13.496094 C 13.375 13.300781 13.125 13.199219 12.855469 13.199219 C 12.582031 13.199219 12.332031 13.300781 12.140625 13.496094 L 11.609375 14.027344 C 11.027344 13.667969 10.40625 13.414062 9.742188 13.25 L 9.742188 12.5 C 9.742188 11.945312 9.289062 11.492188 8.734375 11.492188 L 7.617188 11.492188 C 7.0625 11.492188 6.609375 11.945312 6.609375 12.5 L 6.609375 13.25 C 5.945312 13.410156 5.324219 13.667969 4.742188 14.027344 L 4.210938 13.496094 C 4.015625 13.300781 3.769531 13.199219 3.496094 13.199219 C 3.230469 13.199219 2.976562 13.300781 2.785156 13.496094 L 1.992188 14.285156 C 1.800781 14.480469 1.699219 14.726562 1.699219 15 C 1.699219 15.265625 1.800781 15.519531 1.992188 15.710938 L 2.523438 16.242188 C 2.167969 16.828125 1.914062 17.449219 1.75 18.109375 L 1.007812 18.109375 C 0.453125 18.109375 0 18.5625 0 19.117188 L 0 20.238281 C 0.00390625 20.804688 0.453125 21.25 1.007812 21.25 L 1.757812 21.25 C 1.917969 21.914062 2.179688 22.535156 2.535156 23.117188 L 2.003906 23.648438 C 1.808594 23.84375 1.707031 24.089844 1.707031 24.363281 C 1.707031 24.628906 1.808594 24.882812 2.003906 25.074219 L 2.792969 25.867188 C 2.988281 26.058594 3.234375 26.160156 3.507812 26.160156 C 3.773438 26.160156 4.027344 26.058594 4.21875 25.867188 L 4.753906 25.335938 C 5.335938 25.691406 5.957031 25.945312 6.621094 26.109375 L 6.621094 26.863281 C 6.621094 27.417969 7.070312 27.871094 7.625 27.871094 L 8.746094 27.871094 C 9.300781 27.871094 9.753906 27.417969 9.753906 26.863281 L 9.753906 26.105469 C 10.414062 25.945312 11.039062 25.6875 11.621094 25.332031 L 12.152344 25.863281 C 12.34375 26.054688 12.59375 26.15625 12.867188 26.15625 C 13.136719 26.15625 13.386719 26.054688 13.578125 25.863281 L 14.371094 25.070312 C 14.5625 24.878906 14.664062 24.628906 14.664062 24.355469 C 14.664062 24.089844 14.5625 23.835938 14.371094 23.644531 L 13.839844 23.113281 C 14.195312 22.53125 14.449219 21.90625 14.613281 21.246094 L 15.355469 21.246094 C 15.910156 21.246094 16.363281 20.792969 16.363281 20.238281 L 16.363281 19.117188 C 16.363281 18.5625 15.910156 18.109375 15.355469 18.109375 Z M 15.683594 20.25 C 15.683594 20.429688 15.535156 20.578125 15.355469 20.578125 L 14.324219 20.578125 C 14.160156 20.578125 14.027344 20.691406 13.992188 20.847656 C 13.839844 21.613281 13.542969 22.332031 13.109375 22.976562 C 13.019531 23.113281 13.035156 23.292969 13.148438 23.40625 L 13.878906 24.136719 C 13.941406 24.199219 13.972656 24.277344 13.972656 24.367188 C 13.972656 24.453125 13.941406 24.539062 13.878906 24.601562 L 13.085938 25.390625 C 13.023438 25.453125 12.945312 25.488281 12.855469 25.488281 C 12.765625 25.488281 12.683594 25.453125 12.621094 25.390625 L 11.890625 24.664062 C 11.78125 24.550781 11.597656 24.53125 11.460938 24.625 C 10.8125 25.058594 10.097656 25.351562 9.335938 25.503906 C 9.175781 25.539062 9.0625 25.675781 9.0625 25.839844 L 9.0625 26.871094 C 9.0625 27.050781 8.917969 27.199219 8.734375 27.199219 L 7.617188 27.199219 C 7.433594 27.199219 7.289062 27.050781 7.289062 26.871094 L 7.289062 25.839844 C 7.289062 25.675781 7.175781 25.539062 7.015625 25.503906 C 6.25 25.351562 5.535156 25.058594 4.886719 24.625 C 4.832031 24.582031 4.765625 24.566406 4.703125 24.566406 C 4.617188 24.566406 4.527344 24.601562 4.464844 24.667969 L 3.734375 25.398438 C 3.671875 25.460938 3.59375 25.496094 3.503906 25.496094 C 3.417969 25.496094 3.332031 25.460938 3.269531 25.398438 L 2.476562 24.605469 C 2.414062 24.542969 2.382812 24.464844 2.382812 24.375 C 2.382812 24.289062 2.414062 24.203125 2.476562 24.140625 L 3.207031 23.414062 C 3.320312 23.300781 3.339844 23.117188 3.246094 22.980469 C 2.8125 22.332031 2.519531 21.617188 2.363281 20.855469 C 2.332031 20.695312 2.195312 20.582031 2.03125 20.582031 L 1.007812 20.582031 C 0.824219 20.582031 0.679688 20.4375 0.679688 20.253906 L 0.679688 19.128906 L 0.683594 19.128906 C 0.683594 18.949219 0.832031 18.800781 1.011719 18.800781 L 2.042969 18.800781 C 2.207031 18.800781 2.34375 18.6875 2.375 18.53125 C 2.527344 17.765625 2.824219 17.046875 3.257812 16.402344 C 3.347656 16.265625 3.332031 16.085938 3.21875 15.972656 L 2.484375 15.242188 C 2.421875 15.179688 2.386719 15.101562 2.386719 15.011719 C 2.386719 14.925781 2.421875 14.839844 2.484375 14.777344 L 3.277344 13.988281 C 3.339844 13.925781 3.417969 13.890625 3.507812 13.890625 C 3.59375 13.890625 3.675781 13.925781 3.738281 13.988281 L 4.46875 14.714844 C 4.582031 14.828125 4.765625 14.847656 4.898438 14.757812 C 5.550781 14.320312 6.261719 14.027344 7.027344 13.875 C 7.183594 13.839844 7.296875 13.703125 7.296875 13.539062 L 7.296875 12.511719 C 7.296875 12.328125 7.445312 12.183594 7.625 12.183594 L 8.746094 12.183594 C 8.929688 12.183594 9.074219 12.328125 9.074219 12.511719 L 9.074219 13.546875 C 9.074219 13.710938 9.1875 13.84375 9.347656 13.878906 C 10.109375 14.03125 10.828125 14.324219 11.472656 14.761719 C 11.609375 14.851562 11.789062 14.835938 11.902344 14.722656 L 12.632812 13.992188 C 12.695312 13.929688 12.773438 13.894531 12.867188 13.894531 C 12.957031 13.894531 13.035156 13.929688 13.097656 13.992188 L 13.890625 14.785156 C 13.953125 14.847656 13.984375 14.925781 13.984375 15.015625 C 13.984375 15.101562 13.953125 15.1875 13.890625 15.25 L 13.148438 15.972656 C 13.035156 16.085938 13.019531 16.265625 13.109375 16.402344 C 13.542969 17.054688 13.839844 17.765625 13.992188 18.53125 C 14.027344 18.6875 14.160156 18.800781 14.324219 18.800781 L 15.355469 18.800781 C 15.535156 18.800781 15.683594 18.949219 15.683594 19.128906 Z M 15.683594 20.25 "/>
</g>
</svg>
