<?xml version="1.0" encoding="UTF-8"?>
<svg xmlns="http://www.w3.org/2000/svg" xmlns:xlink="http://www.w3.org/1999/xlink" width="28pt" height="28pt" viewBox="0 0 28 28" version="1.1">
<g id="surface1">
<path style=" stroke:none;fill-rule:nonzero;fill:rgb(0%,0%,0%);fill-opacity:1;" d="M 26.851562 25.679688 L 26.625 25.679688 C 26.800781 25.085938 26.480469 24.476562 25.910156 24.269531 L 25.910156 11.960938 C 25.910156 11.734375 25.726562 11.550781 25.503906 11.550781 C 25.277344 11.550781 25.09375 11.734375 25.09375 11.960938 L 25.09375 24.203125 L 22.957031 24.203125 L 22.957031 8.363281 L 25.09375 8.363281 L 25.09375 10.050781 C 25.09375 10.277344 25.277344 10.460938 25.503906 10.460938 C 25.726562 10.460938 25.910156 10.277344 25.910156 10.050781 L 25.910156 8.292969 C 26.355469 8.132812 26.671875 7.710938 26.671875 7.214844 C 26.671875 6.710938 26.347656 6.28125 25.894531 6.128906 C 26.136719 5.894531 26.339844 5.613281 26.480469 5.292969 C 26.582031 5.0625 26.503906 4.800781 26.308594 4.660156 C 27.058594 3.128906 26.105469 1.308594 24.433594 1.035156 L 24.433594 0.433594 C 24.433594 0.207031 24.25 0.0234375 24.023438 0.0234375 C 23.800781 0.0234375 23.617188 0.207031 23.617188 0.433594 L 23.617188 1.035156 C 21.945312 1.308594 20.992188 3.128906 21.742188 4.660156 C 21.546875 4.800781 21.46875 5.0625 21.570312 5.292969 C 21.710938 5.613281 21.914062 5.894531 22.15625 6.128906 C 21.703125 6.28125 21.378906 6.710938 21.378906 7.214844 C 21.378906 7.710938 21.695312 8.132812 22.140625 8.292969 L 22.140625 11.003906 C 21.902344 10.742188 21.601562 10.4375 21.230469 10.105469 L 21.230469 8.71875 C 21.230469 8.492188 21.046875 8.308594 20.820312 8.308594 C 20.59375 8.308594 20.410156 8.492188 20.410156 8.71875 L 20.410156 9.417969 C 20.140625 9.207031 19.847656 8.988281 19.523438 8.765625 L 19.523438 7.464844 C 19.523438 7.238281 19.339844 7.054688 19.117188 7.054688 C 18.890625 7.054688 18.707031 7.238281 18.707031 7.464844 L 18.707031 8.234375 C 18.425781 8.0625 18.132812 7.890625 17.820312 7.71875 L 17.820312 6.460938 C 17.820312 6.238281 17.636719 6.054688 17.410156 6.054688 C 17.183594 6.054688 17 6.238281 17 6.460938 L 17 7.292969 C 16.71875 7.152344 16.421875 7.011719 16.113281 6.875 L 16.113281 5.671875 C 16.113281 5.445312 15.929688 5.265625 15.707031 5.265625 C 15.480469 5.265625 15.296875 5.445312 15.296875 5.671875 L 15.296875 6.53125 C 15.179688 6.484375 14.152344 6.070312 14 6.070312 C 13.835938 6.070312 12.734375 6.515625 12.648438 6.550781 L 12.648438 5.671875 C 12.648438 5.449219 12.464844 5.265625 12.242188 5.265625 C 12.015625 5.265625 11.832031 5.449219 11.832031 5.671875 L 11.832031 6.902344 C 11.523438 7.039062 11.226562 7.179688 10.945312 7.320312 L 10.945312 6.460938 C 10.945312 6.238281 10.761719 6.054688 10.535156 6.054688 C 10.308594 6.054688 10.125 6.238281 10.125 6.460938 L 10.125 7.75 C 9.8125 7.921875 9.519531 8.09375 9.238281 8.269531 L 9.238281 7.464844 C 9.238281 7.238281 9.054688 7.054688 8.832031 7.054688 C 8.605469 7.054688 8.421875 7.238281 8.421875 7.464844 L 8.421875 8.804688 C 8.097656 9.027344 7.804688 9.246094 7.535156 9.460938 L 7.535156 8.71875 C 7.535156 8.492188 7.351562 8.308594 7.125 8.308594 C 6.898438 8.308594 6.714844 8.492188 6.714844 8.71875 L 6.714844 10.15625 C 6.371094 10.46875 6.085938 10.757812 5.859375 11.003906 L 5.859375 8.292969 C 6.304688 8.132812 6.621094 7.710938 6.621094 7.214844 C 6.621094 6.710938 6.296875 6.28125 5.84375 6.128906 C 6.085938 5.894531 6.289062 5.613281 6.429688 5.292969 C 6.503906 5.132812 6.488281 4.949219 6.390625 4.800781 C 6.355469 4.746094 6.308594 4.699219 6.257812 4.660156 C 7.007812 3.128906 6.054688 1.308594 4.382812 1.035156 L 4.382812 0.433594 C 4.382812 0.207031 4.199219 0.0234375 3.976562 0.0234375 C 3.75 0.0234375 3.566406 0.207031 3.566406 0.433594 L 3.566406 1.035156 C 1.894531 1.308594 0.941406 3.128906 1.691406 4.660156 C 1.496094 4.800781 1.417969 5.0625 1.519531 5.292969 C 1.660156 5.613281 1.863281 5.894531 2.105469 6.128906 C 1.652344 6.28125 1.328125 6.710938 1.328125 7.214844 C 1.328125 7.710938 1.644531 8.132812 2.089844 8.292969 L 2.089844 20.097656 C 2.089844 20.324219 2.273438 20.507812 2.496094 20.507812 C 2.722656 20.507812 2.90625 20.324219 2.90625 20.097656 L 2.90625 8.363281 L 5.042969 8.363281 L 5.042969 24.203125 L 2.90625 24.203125 L 2.90625 22.007812 C 2.90625 21.78125 2.722656 21.597656 2.496094 21.597656 C 2.273438 21.597656 2.089844 21.78125 2.089844 22.007812 L 2.089844 24.269531 C 1.519531 24.476562 1.199219 25.085938 1.375 25.679688 L 1.148438 25.679688 C 0.636719 25.679688 0.164062 26.023438 0.03125 26.5625 C -0.140625 27.289062 0.414062 27.976562 1.148438 27.976562 L 18.160156 27.976562 C 18.386719 27.976562 18.570312 27.792969 18.570312 27.566406 C 18.570312 27.339844 18.386719 27.15625 18.160156 27.15625 L 1.148438 27.15625 C 0.929688 27.15625 0.78125 26.949219 0.828125 26.75 C 0.878906 26.582031 1.007812 26.5 1.148438 26.5 C 2.039062 26.5 25.714844 26.5 26.851562 26.5 C 27 26.5 27.132812 26.597656 27.171875 26.746094 L 27.171875 26.75 C 27.21875 26.957031 27.066406 27.15625 26.851562 27.15625 L 20.070312 27.15625 C 19.84375 27.15625 19.660156 27.339844 19.660156 27.566406 C 19.660156 27.792969 19.84375 27.976562 20.070312 27.976562 L 26.851562 27.976562 C 27.484375 27.976562 28 27.460938 28 26.828125 C 28 26.195312 27.484375 25.679688 26.851562 25.679688 Z M 3.976562 1.820312 C 5.394531 1.820312 6.191406 3.445312 5.359375 4.566406 L 5.121094 4.566406 L 5.121094 4.207031 C 5.121094 3.574219 4.609375 3.058594 3.976562 3.058594 C 3.34375 3.058594 2.828125 3.574219 2.828125 4.207031 L 2.828125 4.566406 L 2.589844 4.566406 C 2.371094 4.273438 2.253906 3.914062 2.253906 3.542969 C 2.253906 2.59375 3.027344 1.820312 3.976562 1.820312 Z M 5.417969 5.386719 C 4.667969 6.292969 3.28125 6.292969 2.53125 5.386719 C 3.753906 5.386719 4.144531 5.386719 5.417969 5.386719 Z M 3.644531 4.566406 L 3.644531 4.207031 C 3.644531 4.023438 3.792969 3.875 3.976562 3.875 C 4.15625 3.875 4.304688 4.023438 4.304688 4.207031 L 4.304688 4.566406 Z M 2.496094 7.542969 L 2.476562 7.542969 C 2.292969 7.542969 2.144531 7.394531 2.144531 7.214844 C 2.144531 7.03125 2.292969 6.886719 2.476562 6.886719 L 5.476562 6.886719 C 5.65625 6.886719 5.804688 7.03125 5.804688 7.214844 C 5.804688 7.394531 5.65625 7.542969 5.476562 7.542969 Z M 5.476562 25.679688 L 2.476562 25.679688 C 2.292969 25.679688 2.144531 25.53125 2.144531 25.351562 C 2.144531 25.167969 2.292969 25.023438 2.476562 25.023438 C 3.058594 25.023438 4.914062 25.023438 5.476562 25.023438 C 5.65625 25.023438 5.804688 25.167969 5.804688 25.351562 C 5.804688 25.53125 5.65625 25.679688 5.476562 25.679688 Z M 19.523438 9.78125 C 19.832031 10.003906 20.101562 10.222656 20.335938 10.417969 C 20.363281 10.441406 20.386719 10.460938 20.410156 10.484375 L 20.410156 22.726562 L 19.523438 22.726562 Z M 17.820312 17.164062 C 17.984375 16.921875 18.082031 16.625 18.082031 16.3125 C 18.082031 15.996094 17.984375 15.703125 17.820312 15.457031 L 17.820312 8.664062 C 18.136719 8.847656 18.429688 9.03125 18.707031 9.210938 L 18.707031 22.726562 L 17.820312 22.726562 Z M 16.113281 7.777344 C 16.425781 7.921875 16.71875 8.070312 17 8.214844 L 17 14.855469 C 16.859375 14.8125 16.710938 14.789062 16.558594 14.789062 C 16.40625 14.789062 16.253906 14.8125 16.113281 14.855469 Z M 16.558594 15.609375 C 16.945312 15.609375 17.261719 15.921875 17.261719 16.3125 C 17.261719 16.699219 16.945312 17.015625 16.558594 17.015625 C 16.171875 17.015625 15.855469 16.699219 15.855469 16.3125 C 15.855469 15.921875 16.171875 15.609375 16.558594 15.609375 Z M 17 17.769531 L 17 22.726562 L 16.113281 22.726562 L 16.113281 17.765625 C 16.253906 17.808594 16.40625 17.832031 16.558594 17.832031 C 16.710938 17.832031 16.859375 17.808594 17 17.769531 Z M 14.410156 7.0625 C 14.714844 7.179688 15.011719 7.296875 15.296875 7.417969 L 15.296875 15.464844 C 15.132812 15.707031 15.035156 15.996094 15.035156 16.3125 C 15.035156 16.625 15.132812 16.917969 15.296875 17.160156 L 15.296875 22.726562 L 14.410156 22.726562 Z M 12.648438 17.183594 C 12.824219 16.9375 12.925781 16.636719 12.925781 16.3125 C 12.925781 15.984375 12.824219 15.683594 12.648438 15.4375 L 12.648438 7.4375 C 12.953125 7.3125 13.265625 7.1875 13.589844 7.0625 L 13.589844 22.726562 L 12.648438 22.726562 Z M 10.945312 8.242188 C 11.226562 8.097656 11.519531 7.949219 11.832031 7.804688 L 11.832031 14.851562 C 11.695312 14.8125 11.550781 14.789062 11.40625 14.789062 C 11.246094 14.789062 11.089844 14.8125 10.945312 14.859375 Z M 11.40625 15.609375 C 11.792969 15.609375 12.109375 15.921875 12.109375 16.3125 C 12.109375 16.699219 11.792969 17.015625 11.40625 17.015625 C 11.015625 17.015625 10.703125 16.699219 10.703125 16.3125 C 10.703125 15.921875 11.015625 15.609375 11.40625 15.609375 Z M 11.832031 17.773438 L 11.832031 22.726562 L 10.945312 22.726562 L 10.945312 17.761719 C 11.089844 17.808594 11.246094 17.832031 11.40625 17.832031 C 11.550781 17.832031 11.695312 17.8125 11.832031 17.773438 Z M 9.238281 9.246094 C 9.511719 9.066406 9.808594 8.882812 10.125 8.699219 L 10.125 15.488281 C 9.972656 15.726562 9.882812 16.007812 9.882812 16.3125 C 9.882812 16.613281 9.972656 16.898438 10.125 17.136719 L 10.125 22.726562 L 9.238281 22.726562 Z M 7.535156 10.53125 C 7.578125 10.492188 7.617188 10.457031 7.664062 10.417969 C 7.882812 10.234375 8.136719 10.03125 8.421875 9.820312 L 8.421875 22.726562 L 7.535156 22.726562 Z M 5.882812 12.265625 C 5.996094 12.109375 6.265625 11.757812 6.714844 11.296875 L 6.714844 22.726562 L 5.882812 22.726562 Z M 5.882812 23.542969 L 13.589844 23.542969 L 13.589844 24.203125 L 5.882812 24.203125 Z M 21.425781 25.679688 L 6.574219 25.679688 C 6.636719 25.46875 6.640625 25.242188 6.574219 25.023438 C 7.398438 25.023438 20.601562 25.023438 21.425781 25.023438 C 21.363281 25.230469 21.359375 25.457031 21.425781 25.679688 Z M 14.410156 24.203125 L 14.410156 23.542969 L 22.117188 23.542969 L 22.117188 24.203125 Z M 22.117188 22.726562 L 21.230469 22.726562 L 21.230469 11.242188 C 21.710938 11.730469 21.996094 12.101562 22.117188 12.265625 Z M 24.023438 1.820312 C 25.445312 1.820312 26.242188 3.445312 25.410156 4.566406 L 25.171875 4.566406 L 25.171875 4.207031 C 25.171875 3.574219 24.65625 3.058594 24.023438 3.058594 C 23.390625 3.058594 22.878906 3.574219 22.878906 4.207031 L 22.878906 4.566406 L 22.640625 4.566406 C 21.808594 3.445312 22.605469 1.820312 24.023438 1.820312 Z M 25.46875 5.386719 C 24.71875 6.292969 23.332031 6.292969 22.582031 5.386719 C 25.101562 5.386719 22.945312 5.386719 25.46875 5.386719 Z M 23.695312 4.566406 L 23.695312 4.207031 C 23.695312 4.023438 23.84375 3.875 24.023438 3.875 C 24.207031 3.875 24.355469 4.023438 24.355469 4.207031 L 24.355469 4.566406 Z M 22.523438 6.886719 L 25.523438 6.886719 C 25.707031 6.886719 25.855469 7.03125 25.855469 7.214844 C 25.855469 7.394531 25.707031 7.542969 25.523438 7.542969 L 22.523438 7.542969 C 22.34375 7.542969 22.195312 7.394531 22.195312 7.214844 C 22.195312 7.03125 22.34375 6.886719 22.523438 6.886719 Z M 25.523438 25.679688 L 22.523438 25.679688 C 22.34375 25.679688 22.195312 25.53125 22.195312 25.351562 C 22.195312 25.167969 22.34375 25.023438 22.523438 25.023438 C 22.53125 25.023438 22.554688 25.023438 22.546875 25.023438 C 22.691406 25.023438 25.382812 25.023438 25.523438 25.023438 C 25.707031 25.023438 25.855469 25.167969 25.855469 25.351562 C 25.855469 25.53125 25.707031 25.679688 25.523438 25.679688 Z M 25.523438 25.679688 "/>
</g>
</svg>
