<?xml version="1.0" encoding="UTF-8"?>
<svg xmlns="http://www.w3.org/2000/svg" xmlns:xlink="http://www.w3.org/1999/xlink" width="28pt" height="28pt" viewBox="0 0 28 28" version="1.1">
<g id="surface1">
<path style=" stroke:none;fill-rule:nonzero;fill:rgb(0%,0%,0%);fill-opacity:1;" d="M 10.691406 14.253906 L 9.164062 14.253906 C 8.882812 14.253906 8.65625 14.480469 8.65625 14.761719 C 8.65625 15.046875 8.882812 15.273438 9.164062 15.273438 L 10.183594 15.273438 L 10.183594 16.289062 C 10.183594 16.574219 10.410156 16.800781 10.691406 16.800781 C 10.972656 16.800781 11.199219 16.574219 11.199219 16.289062 L 11.199219 14.761719 C 11.199219 14.480469 10.972656 14.253906 10.691406 14.253906 Z M 10.691406 14.253906 "/>
<path style=" stroke:none;fill-rule:nonzero;fill:rgb(0%,0%,0%);fill-opacity:1;" d="M 22.910156 26.980469 L 22.910156 0.507812 C 22.910156 0.226562 22.679688 0 22.398438 0 L 5.601562 0 C 5.320312 0 5.089844 0.226562 5.089844 0.507812 L 5.089844 26.980469 L 3.054688 26.980469 L 3.054688 28 L 24.945312 28 L 24.945312 26.980469 Z M 19.855469 26.980469 L 8.144531 26.980469 L 8.144531 3.054688 L 19.855469 3.054688 Z M 21.890625 26.980469 L 20.871094 26.980469 L 20.871094 2.546875 C 20.871094 2.265625 20.644531 2.035156 20.363281 2.035156 L 7.636719 2.035156 C 7.355469 2.035156 7.128906 2.265625 7.128906 2.546875 L 7.128906 26.980469 L 6.109375 26.980469 L 6.109375 1.019531 L 21.890625 1.019531 Z M 21.890625 26.980469 "/>
</g>
</svg>
