<?xml version="1.0" encoding="UTF-8"?>
<svg xmlns="http://www.w3.org/2000/svg" xmlns:xlink="http://www.w3.org/1999/xlink" width="28pt" height="28pt" viewBox="0 0 28 28" version="1.1">
<g id="surface1">
<path style=" stroke:none;fill-rule:nonzero;fill:rgb(0%,0%,0%);fill-opacity:1;" d="M 27.535156 2.332031 L 0.464844 2.332031 C 0.1875 2.332031 0 2.519531 0 2.800781 L 0 25.199219 C 0 25.480469 0.1875 25.667969 0.464844 25.667969 L 27.535156 25.667969 C 27.8125 25.667969 28 25.480469 28 25.199219 L 28 2.800781 C 28 2.519531 27.8125 2.332031 27.535156 2.332031 Z M 2.800781 17.265625 L 25.199219 17.265625 L 25.199219 19.132812 L 2.800781 19.132812 Z M 25.199219 16.332031 L 2.800781 16.332031 L 2.800781 14.464844 L 25.199219 14.464844 Z M 2.800781 20.066406 L 25.199219 20.066406 L 25.199219 21.933594 L 2.800781 21.933594 Z M 25.199219 13.535156 L 2.800781 13.535156 L 2.800781 11.667969 L 25.199219 11.667969 Z M 2.800781 24.734375 L 2.800781 22.867188 L 25.199219 22.867188 L 25.199219 24.734375 Z M 27.066406 24.734375 L 26.132812 24.734375 L 26.132812 11.199219 C 26.132812 10.917969 25.945312 10.734375 25.667969 10.734375 L 2.332031 10.734375 C 2.054688 10.734375 1.867188 10.917969 1.867188 11.199219 L 1.867188 24.734375 L 0.933594 24.734375 L 0.933594 3.265625 L 27.066406 3.265625 Z M 27.066406 24.734375 "/>
<path style=" stroke:none;fill-rule:nonzero;fill:rgb(0%,0%,0%);fill-opacity:1;" d="M 15.398438 9.800781 L 25.667969 9.800781 C 25.945312 9.800781 26.132812 9.613281 26.132812 9.332031 L 26.132812 7.234375 C 26.132812 7.09375 26.039062 6.90625 25.898438 6.8125 C 22.585938 5.085938 19.085938 4.199219 15.398438 4.199219 C 15.121094 4.199219 14.933594 4.386719 14.933594 4.667969 L 14.933594 9.332031 C 14.933594 9.613281 15.121094 9.800781 15.398438 9.800781 Z M 15.867188 5.132812 C 19.132812 5.179688 22.261719 5.972656 25.199219 7.511719 L 25.199219 8.867188 L 15.867188 8.867188 Z M 15.867188 5.132812 "/>
<path style=" stroke:none;fill-rule:nonzero;fill:rgb(0%,0%,0%);fill-opacity:1;" d="M 2.332031 9.800781 L 12.601562 9.800781 C 12.878906 9.800781 13.066406 9.613281 13.066406 9.332031 L 13.066406 4.667969 C 13.066406 4.386719 12.878906 4.199219 12.601562 4.199219 C 8.914062 4.199219 5.414062 5.085938 2.101562 6.8125 C 1.960938 6.90625 1.867188 7.046875 1.867188 7.234375 L 1.867188 9.332031 C 1.867188 9.613281 2.054688 9.800781 2.332031 9.800781 Z M 2.800781 7.511719 C 5.738281 6.019531 8.867188 5.179688 12.132812 5.132812 L 12.132812 8.867188 L 2.800781 8.867188 Z M 2.800781 7.511719 "/>
</g>
</svg>
