<?xml version="1.0" encoding="UTF-8"?>
<svg xmlns="http://www.w3.org/2000/svg" xmlns:xlink="http://www.w3.org/1999/xlink" width="28pt" height="28pt" viewBox="0 0 28 28" version="1.1">
<g id="surface1">
<path style=" stroke:none;fill-rule:nonzero;fill:rgb(0%,0%,0%);fill-opacity:1;" d="M 23.15625 17.867188 L 22.800781 17.535156 C 22.796875 17.527344 22.796875 17.515625 22.796875 17.511719 L 21.316406 14.050781 C 21.007812 13.328125 20.300781 12.855469 19.519531 12.851562 L 8.761719 12.851562 C 7.976562 12.855469 7.269531 13.328125 6.960938 14.050781 L 5.5 17.460938 L 4.957031 17.925781 C 4.375 18.421875 4.042969 19.148438 4.042969 19.90625 L 4.042969 25.789062 C 4.042969 26.84375 4.902344 27.707031 5.964844 27.707031 L 7.074219 27.707031 C 8.132812 27.714844 8.996094 26.855469 8.996094 25.800781 L 8.996094 25.105469 L 19.015625 25.105469 L 19.015625 25.78125 C 19.015625 26.835938 19.875 27.695312 20.929688 27.699219 L 22.042969 27.699219 C 23.097656 27.707031 23.960938 26.851562 23.96875 25.789062 L 23.96875 19.75 C 23.96875 19.039062 23.671875 18.363281 23.15625 17.867188 Z M 8.070312 14.523438 C 8.1875 14.246094 8.457031 14.0625 8.761719 14.058594 L 19.511719 14.058594 C 19.8125 14.0625 20.085938 14.246094 20.199219 14.523438 L 21.316406 17.136719 L 20.808594 17.136719 C 20.476562 15.480469 18.867188 14.414062 17.210938 14.746094 C 16.003906 14.988281 15.0625 15.929688 14.820312 17.136719 L 6.953125 17.136719 Z M 19.570312 17.136719 L 16.082031 17.136719 C 16.414062 16.171875 17.464844 15.664062 18.429688 15.996094 C 18.960938 16.183594 19.386719 16.597656 19.570312 17.136719 Z M 7.789062 25.78125 C 7.789062 26.171875 7.472656 26.488281 7.085938 26.492188 C 7.082031 26.492188 7.082031 26.492188 7.074219 26.492188 L 5.96875 26.492188 C 5.578125 26.5 5.257812 26.1875 5.253906 25.792969 L 5.253906 24.992188 C 5.480469 25.074219 5.722656 25.109375 5.96875 25.105469 L 7.789062 25.105469 Z M 22.757812 25.789062 C 22.757812 26.179688 22.441406 26.5 22.046875 26.5 C 22.046875 26.492188 22.046875 26.492188 22.042969 26.492188 L 20.9375 26.492188 C 20.542969 26.5 20.222656 26.1875 20.222656 25.792969 C 20.222656 25.789062 20.222656 25.789062 20.222656 25.78125 L 20.222656 25.105469 L 22.042969 25.105469 C 22.28125 25.109375 22.53125 25.074219 22.757812 24.992188 Z M 22.765625 23.203125 L 22.757812 23.203125 C 22.757812 23.589844 22.445312 23.902344 22.058594 23.898438 C 22.054688 23.898438 22.046875 23.898438 22.042969 23.898438 L 5.96875 23.898438 C 5.585938 23.910156 5.265625 23.601562 5.253906 23.222656 C 5.253906 23.214844 5.253906 23.210938 5.253906 23.203125 L 5.253906 19.90625 C 5.253906 19.503906 5.425781 19.109375 5.742188 18.851562 L 6.328125 18.351562 L 21.914062 18.351562 L 22.332031 18.75 C 22.609375 19.015625 22.765625 19.375 22.765625 19.757812 Z M 22.765625 23.203125 "/>
<path style=" stroke:none;fill-rule:nonzero;fill:rgb(0%,0%,0%);fill-opacity:1;" d="M 9.71875 19.671875 L 6.582031 19.671875 C 6.25 19.671875 5.976562 19.945312 5.976562 20.277344 L 5.976562 22.449219 C 5.976562 22.78125 6.25 23.050781 6.582031 23.050781 L 9.71875 23.050781 C 10.050781 23.050781 10.324219 22.78125 10.324219 22.449219 L 10.324219 20.277344 C 10.324219 19.945312 10.050781 19.671875 9.71875 19.671875 Z M 9.117188 21.84375 L 7.183594 21.84375 L 7.183594 20.878906 L 9.117188 20.878906 Z M 9.117188 21.84375 "/>
<path style=" stroke:none;fill-rule:nonzero;fill:rgb(0%,0%,0%);fill-opacity:1;" d="M 21.429688 19.671875 L 18.292969 19.671875 C 17.960938 19.671875 17.6875 19.945312 17.6875 20.277344 L 17.6875 22.449219 C 17.6875 22.78125 17.960938 23.050781 18.292969 23.050781 L 21.429688 23.050781 C 21.761719 23.050781 22.035156 22.78125 22.035156 22.449219 L 22.035156 20.277344 C 22.035156 19.945312 21.761719 19.671875 21.429688 19.671875 Z M 20.828125 21.84375 L 18.894531 21.84375 L 18.894531 20.878906 L 20.828125 20.878906 Z M 20.828125 21.84375 "/>
<path style=" stroke:none;fill-rule:nonzero;fill:rgb(0%,0%,0%);fill-opacity:1;" d="M 16.027344 21.722656 L 11.988281 21.722656 C 11.65625 21.722656 11.386719 21.996094 11.386719 22.328125 C 11.386719 22.660156 11.65625 22.933594 11.988281 22.933594 L 16.027344 22.933594 C 16.359375 22.933594 16.632812 22.660156 16.632812 22.328125 C 16.632812 21.996094 16.359375 21.722656 16.027344 21.722656 Z M 16.027344 21.722656 "/>
<path style=" stroke:none;fill-rule:nonzero;fill:rgb(0%,0%,0%);fill-opacity:1;" d="M 16.027344 20.09375 L 11.988281 20.09375 C 11.65625 20.09375 11.386719 20.367188 11.386719 20.699219 C 11.386719 21.03125 11.65625 21.300781 11.988281 21.300781 L 16.027344 21.300781 C 16.359375 21.300781 16.632812 21.03125 16.632812 20.699219 C 16.632812 20.367188 16.359375 20.09375 16.027344 20.09375 Z M 16.027344 20.09375 "/>
<path style=" stroke:none;fill-rule:nonzero;fill:rgb(0%,0%,0%);fill-opacity:1;" d="M 27.394531 0.292969 L 0.617188 0.292969 C 0.285156 0.285156 0.0078125 0.550781 0 0.882812 L 0 27.109375 C 0.0078125 27.441406 0.285156 27.707031 0.617188 27.699219 L 2.503906 27.699219 C 2.835938 27.699219 3.132812 27.441406 3.132812 27.109375 L 3.132812 8.441406 L 24.867188 8.441406 L 24.867188 27.109375 C 24.867188 27.441406 25.164062 27.699219 25.496094 27.699219 L 27.382812 27.699219 C 27.714844 27.707031 27.992188 27.441406 28 27.109375 L 28 0.882812 C 28.007812 0.550781 27.726562 0.285156 27.394531 0.292969 Z M 1.933594 26.492188 L 1.207031 26.492188 L 1.207031 1.5 L 1.933594 1.5 Z M 24.871094 7.234375 L 3.140625 7.234375 L 3.140625 1.5 L 24.871094 1.5 Z M 26.804688 26.492188 L 26.082031 26.492188 L 26.082031 1.5 L 26.804688 1.5 Z M 26.804688 26.492188 "/>
</g>
</svg>
