<?xml version="1.0" encoding="UTF-8"?>
<svg xmlns="http://www.w3.org/2000/svg" xmlns:xlink="http://www.w3.org/1999/xlink" width="28pt" height="28pt" viewBox="0 0 28 28" version="1.1">
<g id="surface1">
<path style=" stroke:none;fill-rule:nonzero;fill:rgb(0%,0%,0%);fill-opacity:1;" d="M 14.582031 21.535156 C 14.542969 21.496094 14.503906 21.460938 14.457031 21.429688 C 14.414062 21.402344 14.363281 21.375 14.316406 21.355469 C 14.265625 21.335938 14.214844 21.320312 14.160156 21.308594 C 13.894531 21.253906 13.609375 21.34375 13.417969 21.535156 C 13.265625 21.6875 13.175781 21.898438 13.175781 22.117188 C 13.175781 22.167969 13.183594 22.222656 13.191406 22.277344 C 13.203125 22.328125 13.21875 22.378906 13.238281 22.429688 C 13.261719 22.480469 13.285156 22.527344 13.316406 22.574219 C 13.34375 22.617188 13.378906 22.660156 13.417969 22.699219 C 13.570312 22.851562 13.785156 22.9375 14 22.9375 C 14.054688 22.9375 14.109375 22.933594 14.160156 22.921875 C 14.214844 22.914062 14.265625 22.894531 14.316406 22.875 C 14.363281 22.855469 14.414062 22.828125 14.457031 22.800781 C 14.503906 22.769531 14.542969 22.734375 14.582031 22.699219 C 14.621094 22.660156 14.65625 22.617188 14.683594 22.574219 C 14.714844 22.527344 14.738281 22.480469 14.761719 22.429688 C 14.78125 22.378906 14.796875 22.328125 14.808594 22.277344 C 14.816406 22.222656 14.824219 22.167969 14.824219 22.117188 C 14.824219 21.898438 14.734375 21.6875 14.582031 21.535156 Z M 14.582031 21.535156 "/>
<path style=" stroke:none;fill-rule:nonzero;fill:rgb(0%,0%,0%);fill-opacity:1;" d="M 27.175781 0.0585938 L 0.824219 0.0585938 C 0.367188 0.0585938 0 0.425781 0 0.878906 L 0 27.121094 C 0 27.574219 0.367188 27.941406 0.824219 27.941406 L 4.78125 27.941406 C 5.726562 27.941406 6.617188 27.6875 7.386719 27.222656 L 20.613281 27.222656 C 21.382812 27.6875 22.273438 27.941406 23.21875 27.941406 L 27.175781 27.941406 C 27.632812 27.941406 28 27.574219 28 27.121094 L 28 0.878906 C 28 0.425781 27.632812 0.0585938 27.175781 0.0585938 Z M 15.574219 1.703125 L 26.351562 1.703125 L 26.351562 12.40625 L 24.070312 12.40625 C 24.050781 12.40625 24.03125 12.410156 24.011719 12.410156 C 19.265625 11.84375 15.574219 7.792969 15.574219 2.898438 Z M 1.648438 1.703125 L 12.425781 1.703125 L 12.425781 2.898438 C 12.425781 7.792969 8.734375 11.84375 3.988281 12.410156 C 3.96875 12.410156 3.949219 12.40625 3.929688 12.40625 L 1.648438 12.40625 Z M 7.714844 24.59375 C 7.105469 25.660156 6.007812 26.296875 4.78125 26.296875 L 1.648438 26.296875 L 1.648438 14.128906 L 2.84375 14.128906 C 3.058594 14.128906 3.277344 14.121094 3.492188 14.109375 L 7.699219 21.203125 C 8.320312 22.261719 8.324219 23.53125 7.714844 24.59375 Z M 9.046875 25.578125 C 9.078125 25.523438 9.113281 25.46875 9.144531 25.414062 C 10.050781 23.832031 10.042969 21.945312 9.117188 20.367188 L 5.261719 13.863281 C 8.832031 13.078125 11.769531 10.585938 13.175781 7.289062 L 13.175781 19.644531 C 13.175781 20.101562 13.546875 20.46875 14 20.46875 C 14.453125 20.46875 14.824219 20.101562 14.824219 19.644531 L 14.824219 7.289062 C 16.230469 10.585938 19.167969 13.078125 22.738281 13.863281 L 18.882812 20.371094 C 17.957031 21.945312 17.949219 23.832031 18.855469 25.414062 C 18.886719 25.46875 18.921875 25.523438 18.953125 25.578125 Z M 26.351562 26.296875 L 23.21875 26.296875 C 21.992188 26.296875 20.894531 25.660156 20.285156 24.59375 C 19.675781 23.53125 19.679688 22.261719 20.300781 21.207031 L 24.507812 14.109375 C 24.722656 14.121094 24.941406 14.128906 25.15625 14.128906 L 26.351562 14.128906 Z M 26.351562 26.296875 "/>
</g>
</svg>
