<?xml version="1.0" encoding="UTF-8"?>
<svg xmlns="http://www.w3.org/2000/svg" xmlns:xlink="http://www.w3.org/1999/xlink" width="28pt" height="28pt" viewBox="0 0 28 28" version="1.1">
<g id="surface1">
<path style=" stroke:none;fill-rule:nonzero;fill:rgb(0%,0%,0%);fill-opacity:1;" d="M 27.171875 0 L 0.828125 0 C 0.371094 0 0 0.371094 0 0.828125 L 0 27.171875 C 0 27.628906 0.371094 28 0.828125 28 L 27.171875 28 C 27.628906 28 28 27.628906 28 27.171875 L 28 0.828125 C 28 0.371094 27.628906 0 27.171875 0 Z M 4.960938 23.039062 L 4.960938 18.1875 L 11.472656 18.1875 L 11.472656 23.039062 Z M 1.652344 1.652344 L 5.398438 1.652344 L 5.398438 3.308594 L 1.652344 3.308594 Z M 1.652344 4.960938 L 5.398438 4.960938 L 5.398438 6.613281 L 1.652344 6.613281 Z M 20.949219 1.765625 L 20.949219 3.308594 L 7.050781 3.308594 L 7.050781 1.765625 Z M 7.050781 14.882812 L 20.949219 14.882812 L 20.949219 16.535156 L 7.050781 16.535156 Z M 7.050781 13.226562 L 7.050781 11.574219 L 20.949219 11.574219 L 20.949219 13.226562 Z M 7.050781 9.921875 L 7.050781 8.269531 L 20.949219 8.269531 L 20.949219 9.921875 Z M 7.050781 6.613281 L 7.050781 4.960938 L 20.949219 4.960938 L 20.949219 6.613281 Z M 1.652344 8.269531 L 5.398438 8.269531 L 5.398438 9.921875 L 1.652344 9.921875 Z M 1.652344 11.574219 L 5.398438 11.574219 L 5.398438 13.226562 L 1.652344 13.226562 Z M 1.652344 14.882812 L 5.398438 14.882812 L 5.398438 16.535156 L 1.652344 16.535156 Z M 22.601562 14.882812 L 26.347656 14.882812 L 26.347656 16.535156 L 22.601562 16.535156 Z M 26.347656 13.226562 L 22.601562 13.226562 L 22.601562 11.574219 L 26.347656 11.574219 Z M 26.347656 9.921875 L 22.601562 9.921875 L 22.601562 8.269531 L 26.347656 8.269531 Z M 26.347656 6.613281 L 22.601562 6.613281 L 22.601562 4.960938 L 26.347656 4.960938 Z M 26.347656 3.308594 L 22.601562 3.308594 L 22.601562 1.652344 L 26.347656 1.652344 Z M 13.125 18.1875 L 14.78125 18.1875 L 14.78125 23.039062 L 13.125 23.039062 Z M 16.433594 18.1875 L 23.039062 18.1875 L 23.039062 23.039062 L 16.433594 23.039062 Z M 1.652344 26.347656 L 1.652344 18.1875 L 3.308594 18.1875 L 3.308594 23.867188 C 3.308594 24.324219 3.675781 24.691406 4.132812 24.691406 L 23.867188 24.691406 C 24.324219 24.691406 24.691406 24.324219 24.691406 23.867188 L 24.691406 18.1875 L 26.347656 18.1875 L 26.347656 26.347656 Z M 1.652344 26.347656 "/>
</g>
</svg>
