<?xml version="1.0" encoding="UTF-8"?>
<svg xmlns="http://www.w3.org/2000/svg" xmlns:xlink="http://www.w3.org/1999/xlink" width="28pt" height="28pt" viewBox="0 0 28 28" version="1.1">
<g id="surface1">
<path style=" stroke:none;fill-rule:nonzero;fill:rgb(0%,0%,0%);fill-opacity:1;" d="M 23.578125 19.238281 L 23.578125 0.445312 C 23.578125 0.199219 23.378906 0 23.132812 0 L 4.867188 0 C 4.621094 0 4.421875 0.199219 4.421875 0.445312 L 4.421875 19.238281 C 3.277344 19.449219 2.414062 20.449219 2.414062 21.652344 L 2.414062 24.769531 C 2.414062 26.550781 3.863281 28 5.644531 28 C 6.828125 28 7.867188 27.359375 8.429688 26.40625 C 8.992188 27.359375 10.03125 28 11.214844 28 C 12.398438 28 13.4375 27.359375 14 26.40625 C 14.5625 27.359375 15.601562 28 16.785156 28 C 17.96875 28 19.007812 27.359375 19.570312 26.40625 C 20.132812 27.359375 21.171875 28 22.355469 28 C 24.136719 28 25.585938 26.550781 25.585938 24.769531 L 25.585938 21.652344 C 25.585938 20.449219 24.722656 19.449219 23.578125 19.238281 Z M 24.695312 24.769531 C 24.695312 26.058594 23.644531 27.105469 22.355469 27.105469 C 21.066406 27.105469 20.015625 26.058594 20.015625 24.769531 C 20.015625 24.519531 19.816406 24.320312 19.570312 24.320312 C 19.324219 24.320312 19.125 24.519531 19.125 24.769531 C 19.125 26.058594 18.074219 27.105469 16.785156 27.105469 C 15.496094 27.105469 14.445312 26.058594 14.445312 24.769531 C 14.445312 24.519531 14.246094 24.320312 14 24.320312 C 13.753906 24.320312 13.554688 24.519531 13.554688 24.769531 C 13.554688 26.058594 12.503906 27.105469 11.214844 27.105469 C 9.925781 27.105469 8.875 26.058594 8.875 24.769531 C 8.875 24.519531 8.675781 24.320312 8.429688 24.320312 C 8.183594 24.320312 7.984375 24.519531 7.984375 24.769531 C 7.984375 26.058594 6.933594 27.105469 5.644531 27.105469 C 4.355469 27.105469 3.304688 26.058594 3.304688 24.769531 L 3.304688 21.652344 C 3.304688 20.792969 4.007812 20.089844 4.867188 20.089844 L 23.132812 20.089844 C 23.992188 20.089844 24.695312 20.792969 24.695312 21.652344 Z M 22.6875 19.199219 L 5.3125 19.199219 L 5.3125 0.894531 L 22.6875 0.894531 Z M 22.6875 19.199219 "/>
<path style=" stroke:none;fill-rule:nonzero;fill:rgb(0%,0%,0%);fill-opacity:1;" d="M 14.894531 9.503906 L 21.347656 9.503906 C 21.59375 9.503906 21.792969 9.300781 21.792969 9.054688 L 21.792969 2.234375 C 21.792969 1.988281 21.59375 1.789062 21.347656 1.789062 L 14.894531 1.789062 C 14.648438 1.789062 14.445312 1.988281 14.445312 2.234375 L 14.445312 9.054688 C 14.445312 9.300781 14.648438 9.503906 14.894531 9.503906 Z M 15.339844 2.679688 L 20.898438 2.679688 L 20.898438 8.609375 L 15.339844 8.609375 Z M 15.339844 2.679688 "/>
<path style=" stroke:none;fill-rule:nonzero;fill:rgb(0%,0%,0%);fill-opacity:1;" d="M 11.019531 3.789062 L 8.089844 6.886719 C 7.921875 7.066406 7.929688 7.347656 8.109375 7.515625 C 8.195312 7.597656 8.304688 7.640625 8.414062 7.640625 C 8.535156 7.640625 8.652344 7.59375 8.742188 7.5 L 11.667969 4.402344 C 11.839844 4.222656 11.832031 3.941406 11.652344 3.773438 C 11.472656 3.601562 11.191406 3.609375 11.019531 3.789062 Z M 11.019531 3.789062 "/>
<path style=" stroke:none;fill-rule:nonzero;fill:rgb(0%,0%,0%);fill-opacity:1;" d="M 6.652344 9.503906 L 13.105469 9.503906 C 13.351562 9.503906 13.554688 9.300781 13.554688 9.054688 L 13.554688 2.234375 C 13.554688 1.988281 13.351562 1.789062 13.105469 1.789062 L 6.652344 1.789062 C 6.40625 1.789062 6.207031 1.988281 6.207031 2.234375 L 6.207031 9.054688 C 6.207031 9.300781 6.40625 9.503906 6.652344 9.503906 Z M 7.101562 2.679688 L 12.660156 2.679688 L 12.660156 8.609375 L 7.101562 8.609375 Z M 7.101562 2.679688 "/>
<path style=" stroke:none;fill-rule:nonzero;fill:rgb(0%,0%,0%);fill-opacity:1;" d="M 11.019531 12.496094 L 8.089844 15.589844 C 7.921875 15.769531 7.929688 16.054688 8.109375 16.222656 C 8.195312 16.304688 8.304688 16.34375 8.414062 16.34375 C 8.535156 16.34375 8.652344 16.296875 8.742188 16.203125 L 11.667969 13.109375 C 11.839844 12.929688 11.832031 12.648438 11.652344 12.476562 C 11.472656 12.308594 11.191406 12.316406 11.019531 12.496094 Z M 11.019531 12.496094 "/>
<path style=" stroke:none;fill-rule:nonzero;fill:rgb(0%,0%,0%);fill-opacity:1;" d="M 6.652344 18.304688 L 13.105469 18.304688 C 13.351562 18.304688 13.554688 18.105469 13.554688 17.855469 L 13.554688 10.84375 C 13.554688 10.59375 13.351562 10.394531 13.105469 10.394531 L 6.652344 10.394531 C 6.40625 10.394531 6.207031 10.59375 6.207031 10.84375 L 6.207031 17.855469 C 6.207031 18.105469 6.40625 18.304688 6.652344 18.304688 Z M 7.101562 11.289062 L 12.660156 11.289062 L 12.660156 17.410156 L 7.101562 17.410156 Z M 7.101562 11.289062 "/>
<path style=" stroke:none;fill-rule:nonzero;fill:rgb(0%,0%,0%);fill-opacity:1;" d="M 19.257812 12.496094 L 18.808594 12.96875 C 18.640625 13.148438 18.648438 13.433594 18.828125 13.601562 C 18.914062 13.683594 19.023438 13.722656 19.132812 13.722656 C 19.253906 13.722656 19.371094 13.675781 19.457031 13.585938 L 19.910156 13.109375 C 20.078125 12.929688 20.070312 12.648438 19.890625 12.476562 C 19.710938 12.308594 19.429688 12.316406 19.257812 12.496094 Z M 19.257812 12.496094 "/>
<path style=" stroke:none;fill-rule:nonzero;fill:rgb(0%,0%,0%);fill-opacity:1;" d="M 17.582031 14.269531 L 16.332031 15.589844 C 16.160156 15.769531 16.167969 16.054688 16.347656 16.222656 C 16.433594 16.304688 16.546875 16.34375 16.65625 16.34375 C 16.773438 16.34375 16.890625 16.296875 16.980469 16.203125 L 18.230469 14.882812 C 18.398438 14.703125 18.390625 14.421875 18.214844 14.25 C 18.035156 14.082031 17.75 14.089844 17.582031 14.269531 Z M 17.582031 14.269531 "/>
<path style=" stroke:none;fill-rule:nonzero;fill:rgb(0%,0%,0%);fill-opacity:1;" d="M 14.894531 18.304688 L 21.347656 18.304688 C 21.59375 18.304688 21.792969 18.105469 21.792969 17.855469 L 21.792969 10.84375 C 21.792969 10.59375 21.59375 10.394531 21.347656 10.394531 L 14.894531 10.394531 C 14.648438 10.394531 14.445312 10.59375 14.445312 10.84375 L 14.445312 17.855469 C 14.445312 18.105469 14.648438 18.304688 14.894531 18.304688 Z M 15.339844 11.289062 L 20.898438 11.289062 L 20.898438 17.410156 L 15.339844 17.410156 Z M 15.339844 11.289062 "/>
<path style=" stroke:none;fill-rule:nonzero;fill:rgb(0%,0%,0%);fill-opacity:1;" d="M 11.214844 23.617188 C 10.953125 23.617188 10.738281 23.828125 10.738281 24.09375 C 10.738281 24.355469 10.953125 24.570312 11.214844 24.570312 C 11.476562 24.570312 11.691406 24.355469 11.691406 24.09375 C 11.691406 23.828125 11.476562 23.617188 11.214844 23.617188 Z M 11.214844 23.617188 "/>
<path style=" stroke:none;fill-rule:nonzero;fill:rgb(0%,0%,0%);fill-opacity:1;" d="M 22.195312 21.648438 C 21.933594 21.648438 21.71875 21.863281 21.71875 22.125 C 21.71875 22.390625 21.933594 22.601562 22.195312 22.601562 C 22.460938 22.601562 22.671875 22.390625 22.671875 22.125 C 22.671875 21.863281 22.460938 21.648438 22.195312 21.648438 Z M 22.195312 21.648438 "/>
</g>
</svg>
