<?xml version="1.0" encoding="UTF-8"?>
<svg xmlns="http://www.w3.org/2000/svg" xmlns:xlink="http://www.w3.org/1999/xlink" width="28pt" height="28pt" viewBox="0 0 28 28" version="1.1">
<g id="surface1">
<path style=" stroke:none;fill-rule:nonzero;fill:rgb(0%,0%,0%);fill-opacity:1;" d="M 25.441406 0 L 2.558594 0 C 2.152344 0 1.820312 0.332031 1.820312 0.738281 L 1.820312 19 C 1.820312 19.222656 2 19.398438 2.21875 19.398438 C 2.4375 19.398438 2.617188 19.222656 2.617188 19 L 2.617188 0.796875 L 25.382812 0.796875 L 25.382812 3.472656 C 25.382812 3.691406 25.5625 3.871094 25.78125 3.871094 C 26.003906 3.871094 26.179688 3.691406 26.179688 3.472656 L 26.179688 0.738281 C 26.179688 0.332031 25.851562 0 25.441406 0 Z M 25.441406 0 "/>
<path style=" stroke:none;fill-rule:nonzero;fill:rgb(0%,0%,0%);fill-opacity:1;" d="M 27.082031 25.132812 L 26.179688 25.132812 L 26.179688 5.386719 C 26.179688 5.167969 26 4.988281 25.78125 4.988281 C 25.5625 4.988281 25.382812 5.167969 25.382812 5.386719 L 25.382812 25.132812 L 24.433594 25.132812 L 24.433594 2.460938 C 24.433594 2.066406 24.113281 1.746094 23.71875 1.746094 L 4.28125 1.746094 C 3.886719 1.746094 3.566406 2.066406 3.566406 2.460938 L 3.566406 25.132812 L 2.617188 25.132812 L 2.617188 20.90625 C 2.617188 20.6875 2.4375 20.507812 2.21875 20.507812 C 2 20.507812 1.820312 20.6875 1.820312 20.90625 L 1.820312 25.132812 L 0.917969 25.132812 C 0.527344 25.132812 0.210938 25.449219 0.210938 25.839844 L 0.210938 27.292969 C 0.210938 27.683594 0.527344 28 0.917969 28 L 27.082031 28 C 27.472656 28 27.789062 27.683594 27.789062 27.292969 L 27.789062 25.839844 C 27.789062 25.449219 27.472656 25.132812 27.082031 25.132812 Z M 22.261719 2.542969 L 23.636719 2.542969 L 23.636719 4.292969 L 22.261719 4.292969 Z M 22.261719 5.089844 L 23.636719 5.089844 L 23.636719 6.835938 L 22.261719 6.835938 Z M 22.261719 7.632812 L 23.636719 7.632812 L 23.636719 9.378906 L 22.261719 9.378906 Z M 22.261719 10.175781 L 23.636719 10.175781 L 23.636719 11.921875 L 22.261719 11.921875 Z M 22.261719 12.71875 L 23.636719 12.71875 L 23.636719 14.464844 L 22.261719 14.464844 Z M 20.800781 14.863281 L 20.800781 2.542969 L 21.464844 2.542969 L 21.464844 18.65625 C 21.464844 18.792969 21.351562 18.910156 21.214844 18.910156 L 21.054688 18.910156 C 20.914062 18.910156 20.800781 18.792969 20.800781 18.65625 Z M 21.054688 19.707031 L 21.214844 19.707031 C 21.792969 19.707031 22.261719 19.234375 22.261719 18.65625 L 22.261719 15.261719 L 22.414062 15.261719 L 22.414062 24.113281 L 14.984375 24.113281 L 14.984375 15.261719 L 20.003906 15.261719 L 20.003906 18.65625 C 20.003906 19.234375 20.476562 19.707031 21.054688 19.707031 Z M 4.363281 2.542969 L 20.003906 2.542969 L 20.003906 4.292969 L 4.363281 4.292969 Z M 4.363281 5.089844 L 20.003906 5.089844 L 20.003906 6.835938 L 4.363281 6.835938 Z M 4.363281 7.632812 L 20.003906 7.632812 L 20.003906 9.378906 L 4.363281 9.378906 Z M 4.363281 10.175781 L 20.003906 10.175781 L 20.003906 11.921875 L 4.363281 11.921875 Z M 4.363281 12.71875 L 20.003906 12.71875 L 20.003906 14.464844 L 4.363281 14.464844 Z M 13.015625 15.261719 L 13.015625 24.113281 L 5.585938 24.113281 L 5.585938 15.261719 Z M 4.363281 15.261719 L 4.789062 15.261719 L 4.789062 24.171875 C 4.789062 24.578125 5.121094 24.910156 5.527344 24.910156 L 13.074219 24.910156 C 13.484375 24.910156 13.8125 24.578125 13.8125 24.171875 L 13.8125 15.261719 L 14.1875 15.261719 L 14.1875 24.171875 C 14.1875 24.578125 14.515625 24.910156 14.925781 24.910156 L 22.472656 24.910156 C 22.878906 24.910156 23.210938 24.578125 23.210938 24.171875 L 23.210938 15.261719 L 23.636719 15.261719 L 23.636719 25.132812 L 4.363281 25.132812 Z M 26.992188 27.203125 L 1.007812 27.203125 L 1.007812 25.929688 L 26.992188 25.929688 Z M 26.992188 27.203125 "/>
</g>
</svg>
