<?xml version="1.0" encoding="UTF-8"?>
<svg xmlns="http://www.w3.org/2000/svg" xmlns:xlink="http://www.w3.org/1999/xlink" width="28pt" height="28pt" viewBox="0 0 28 28" version="1.1">
<g id="surface1">
<path style=" stroke:none;fill-rule:nonzero;fill:rgb(0%,0%,0%);fill-opacity:1;" d="M 26.929688 11.21875 L 26.320312 10.570312 L 24.175781 4.796875 C 23.8125 3.824219 22.878906 3.175781 21.835938 3.171875 L 6.539062 3.171875 C 5.5 3.171875 4.566406 3.824219 4.199219 4.796875 L 2.089844 10.5 L 1.207031 11.3125 C 0.441406 11.964844 0 12.921875 0 13.929688 L 0 22.339844 C 0.0078125 23.714844 1.125 24.828125 2.5 24.828125 L 4.082031 24.828125 C 5.457031 24.828125 6.574219 23.714844 6.582031 22.339844 L 6.582031 21.121094 L 21.417969 21.121094 L 21.417969 22.339844 C 21.425781 23.714844 22.542969 24.828125 23.917969 24.828125 L 25.5 24.828125 C 26.875 24.828125 27.992188 23.714844 28 22.339844 L 28 13.707031 C 27.992188 12.765625 27.609375 11.871094 26.929688 11.21875 Z M 5.324219 5.207031 C 5.515625 4.695312 6 4.367188 6.539062 4.367188 L 21.84375 4.367188 C 22.382812 4.367188 22.867188 4.703125 23.058594 5.207031 L 24.925781 10.230469 L 23.53125 10.230469 C 23.203125 7.988281 21.113281 6.4375 18.871094 6.773438 C 17.082031 7.035156 15.675781 8.441406 15.410156 10.230469 L 3.457031 10.230469 Z M 22.308594 10.230469 L 16.621094 10.230469 C 16.949219 8.65625 18.492188 7.652344 20.066406 7.980469 C 21.191406 8.21875 22.070312 9.101562 22.308594 10.230469 Z M 5.382812 22.339844 C 5.378906 23.058594 4.796875 23.632812 4.082031 23.632812 L 2.5 23.632812 C 1.78125 23.632812 1.203125 23.058594 1.195312 22.339844 L 1.195312 20.773438 C 1.554688 21.007812 2.027344 21.121094 2.5 21.121094 L 5.382812 21.121094 Z M 26.804688 22.339844 C 26.796875 23.058594 26.21875 23.632812 25.5 23.632812 L 23.917969 23.632812 C 23.203125 23.632812 22.621094 23.050781 22.617188 22.339844 L 22.617188 21.121094 L 25.5 21.121094 C 25.972656 21.121094 26.445312 21.007812 26.804688 20.773438 Z M 25.5 19.921875 L 2.5 19.921875 C 1.789062 19.929688 1.203125 19.359375 1.195312 18.644531 L 1.195312 13.929688 C 1.195312 13.269531 1.488281 12.640625 1.992188 12.21875 C 2 12.210938 2.011719 12.199219 2.015625 12.191406 L 2.828125 11.425781 L 25.488281 11.425781 L 26.0625 12.042969 C 26.066406 12.054688 26.085938 12.0625 26.089844 12.074219 C 26.539062 12.5 26.796875 13.089844 26.796875 13.707031 L 26.796875 18.644531 L 26.804688 18.644531 C 26.796875 19.355469 26.210938 19.929688 25.5 19.921875 Z M 25.5 19.921875 "/>
<path style=" stroke:none;fill-rule:nonzero;fill:rgb(0%,0%,0%);fill-opacity:1;" d="M 7.898438 13.820312 L 3.410156 13.820312 C 3.082031 13.820312 2.8125 14.089844 2.8125 14.417969 L 2.8125 17.53125 C 2.8125 17.859375 3.082031 18.128906 3.410156 18.128906 L 7.898438 18.128906 C 8.226562 18.128906 8.496094 17.859375 8.496094 17.53125 L 8.496094 14.417969 C 8.496094 14.089844 8.226562 13.820312 7.898438 13.820312 Z M 7.300781 16.929688 L 4.007812 16.929688 L 4.007812 15.015625 L 7.300781 15.015625 Z M 7.300781 16.929688 "/>
<path style=" stroke:none;fill-rule:nonzero;fill:rgb(0%,0%,0%);fill-opacity:1;" d="M 24.589844 13.820312 L 20.101562 13.820312 C 19.773438 13.820312 19.503906 14.089844 19.503906 14.417969 L 19.503906 17.53125 C 19.503906 17.859375 19.773438 18.128906 20.101562 18.128906 L 24.589844 18.128906 C 24.917969 18.128906 25.1875 17.859375 25.1875 17.53125 L 25.1875 14.417969 C 25.1875 14.089844 24.917969 13.820312 24.589844 13.820312 Z M 23.992188 16.929688 L 20.699219 16.929688 L 20.699219 15.015625 L 23.992188 15.015625 Z M 23.992188 16.929688 "/>
<path style=" stroke:none;fill-rule:nonzero;fill:rgb(0%,0%,0%);fill-opacity:1;" d="M 16.890625 16.332031 L 11.109375 16.332031 C 10.78125 16.332031 10.511719 16.601562 10.511719 16.929688 C 10.511719 17.261719 10.78125 17.53125 11.109375 17.53125 L 16.890625 17.53125 C 17.21875 17.53125 17.488281 17.261719 17.488281 16.929688 C 17.488281 16.601562 17.21875 16.332031 16.890625 16.332031 Z M 16.890625 16.332031 "/>
<path style=" stroke:none;fill-rule:nonzero;fill:rgb(0%,0%,0%);fill-opacity:1;" d="M 16.890625 14.480469 L 11.109375 14.480469 C 10.78125 14.480469 10.511719 14.746094 10.511719 15.078125 C 10.511719 15.40625 10.78125 15.675781 11.109375 15.675781 L 16.890625 15.675781 C 17.21875 15.675781 17.488281 15.40625 17.488281 15.078125 C 17.488281 14.746094 17.21875 14.480469 16.890625 14.480469 Z M 16.890625 14.480469 "/>
</g>
</svg>
