<?xml version="1.0" encoding="UTF-8"?>
<svg xmlns="http://www.w3.org/2000/svg" xmlns:xlink="http://www.w3.org/1999/xlink" width="28pt" height="27pt" viewBox="0 0 28 27" version="1.1">
<g id="surface1">
<path style=" stroke:none;fill-rule:nonzero;fill:rgb(0%,0%,0%);fill-opacity:1;" d="M 7.015625 18.351562 L 3.703125 18.351562 L 2.945312 13.242188 C 2.832031 12.519531 2.140625 12.015625 1.386719 12.109375 C 0.632812 12.199219 0.09375 12.855469 0.171875 13.582031 L 0.800781 19.042969 C 0.875 19.71875 1.269531 20.320312 1.863281 20.683594 L 0.0703125 26.730469 L 0.960938 26.976562 L 2.734375 21.003906 C 2.855469 21.023438 2.980469 21.035156 3.105469 21.035156 L 6.550781 21.035156 L 6.550781 26.855469 L 7.476562 26.855469 L 7.476562 20.953125 C 8.117188 20.738281 8.5 20.105469 8.386719 19.464844 C 8.269531 18.820312 7.691406 18.347656 7.015625 18.351562 Z M 7.015625 20.140625 L 3.105469 20.140625 C 2.398438 20.140625 1.800781 19.625 1.722656 18.945312 L 1.09375 13.484375 C 1.078125 13.359375 1.121094 13.230469 1.210938 13.132812 C 1.300781 13.035156 1.425781 12.980469 1.5625 12.980469 C 1.792969 12.980469 1.992188 13.148438 2.027344 13.371094 L 2.839844 18.863281 C 2.875 19.082031 3.070312 19.246094 3.300781 19.246094 L 7.015625 19.246094 C 7.269531 19.246094 7.476562 19.445312 7.476562 19.691406 C 7.476562 19.941406 7.269531 20.140625 7.015625 20.140625 Z M 7.015625 20.140625 "/>
<path style=" stroke:none;fill-rule:nonzero;fill:rgb(0%,0%,0%);fill-opacity:1;" d="M 26.089844 20.683594 C 26.683594 20.320312 27.074219 19.71875 27.152344 19.046875 L 27.78125 13.585938 C 27.859375 12.855469 27.320312 12.203125 26.566406 12.109375 C 25.8125 12.015625 25.121094 12.519531 25.003906 13.246094 L 24.25 18.351562 L 20.9375 18.351562 C 20.261719 18.347656 19.683594 18.820312 19.566406 19.464844 C 19.453125 20.105469 19.835938 20.738281 20.476562 20.953125 L 20.476562 26.855469 L 21.402344 26.855469 L 21.402344 21.035156 L 24.847656 21.035156 C 24.972656 21.035156 25.09375 21.023438 25.21875 21.003906 L 26.988281 26.976562 L 27.882812 26.730469 Z M 24.847656 20.140625 L 20.9375 20.140625 C 20.683594 20.140625 20.476562 19.941406 20.476562 19.691406 C 20.476562 19.445312 20.683594 19.246094 20.9375 19.246094 L 24.652344 19.246094 C 24.882812 19.246094 25.078125 19.082031 25.113281 18.863281 L 25.925781 13.371094 C 25.957031 13.148438 26.15625 12.980469 26.390625 12.980469 C 26.523438 12.980469 26.652344 13.035156 26.742188 13.132812 C 26.832031 13.226562 26.871094 13.355469 26.859375 13.484375 L 26.230469 18.945312 C 26.152344 19.625 25.554688 20.140625 24.847656 20.140625 Z M 24.847656 20.140625 "/>
<path style=" stroke:none;fill-rule:nonzero;fill:rgb(0%,0%,0%);fill-opacity:1;" d="M 16.761719 24.167969 L 15.367188 24.167969 L 15.367188 14.769531 L 20.9375 14.769531 C 21.195312 14.769531 21.402344 14.570312 21.402344 14.324219 L 21.402344 12.53125 C 21.402344 12.285156 21.195312 12.085938 20.9375 12.085938 L 7.015625 12.085938 C 6.757812 12.085938 6.550781 12.285156 6.550781 12.53125 L 6.550781 14.324219 C 6.550781 14.570312 6.757812 14.769531 7.015625 14.769531 L 12.585938 14.769531 L 12.585938 24.167969 L 11.191406 24.167969 C 10.933594 24.167969 10.726562 24.371094 10.726562 24.617188 L 10.726562 26.40625 C 10.726562 26.652344 10.933594 26.855469 11.191406 26.855469 L 16.761719 26.855469 C 17.019531 26.855469 17.226562 26.652344 17.226562 26.40625 L 17.226562 24.617188 C 17.226562 24.371094 17.019531 24.167969 16.761719 24.167969 Z M 7.476562 13.875 L 7.476562 12.980469 L 20.476562 12.980469 L 20.476562 13.875 Z M 14.441406 14.769531 L 14.441406 24.167969 L 13.511719 24.167969 L 13.511719 14.769531 Z M 16.296875 25.960938 L 11.65625 25.960938 L 11.65625 25.0625 L 16.296875 25.0625 Z M 16.296875 25.960938 "/>
<path style=" stroke:none;fill-rule:nonzero;fill:rgb(0%,0%,0%);fill-opacity:1;" d="M 11.65625 6.265625 L 16.296875 6.265625 C 16.484375 6.265625 16.65625 6.15625 16.726562 5.988281 C 16.796875 5.824219 16.757812 5.628906 16.625 5.503906 L 14.441406 3.394531 L 14.441406 0 L 13.511719 0 L 13.511719 3.394531 L 11.328125 5.503906 C 11.195312 5.628906 11.15625 5.824219 11.226562 5.988281 C 11.300781 6.15625 11.46875 6.265625 11.65625 6.265625 Z M 13.976562 4.214844 L 15.175781 5.371094 L 12.777344 5.371094 Z M 13.976562 4.214844 "/>
</g>
</svg>
