<?xml version="1.0" encoding="UTF-8"?>
<svg xmlns="http://www.w3.org/2000/svg" xmlns:xlink="http://www.w3.org/1999/xlink" width="28pt" height="28pt" viewBox="0 0 28 28" version="1.1">
<g id="surface1">
<path style=" stroke:none;fill-rule:nonzero;fill:rgb(0%,0%,0%);fill-opacity:1;" d="M 28 0.195312 L 0 0.195312 L 0 6.679688 L 2.113281 6.679688 L 2.113281 27.804688 L 25.886719 27.804688 L 25.886719 6.679688 L 28 6.679688 Z M 21.050781 26.625 L 19.25 26.625 C 19.636719 26.121094 19.875 25.5 19.875 24.820312 C 19.875 23.257812 19.296875 22.777344 18.738281 22.308594 C 18.292969 21.9375 17.828125 21.554688 17.453125 20.367188 C 17.386719 20.164062 17.214844 20.007812 17.003906 19.96875 C 16.792969 19.925781 16.574219 20.003906 16.4375 20.167969 L 15.429688 21.375 C 14.710938 20.894531 14.453125 19.296875 14.421875 18.707031 C 14.40625 18.445312 14.21875 18.222656 13.957031 18.164062 C 13.699219 18.109375 13.4375 18.230469 13.3125 18.464844 L 12.066406 20.800781 C 11.980469 20.691406 11.902344 20.597656 11.835938 20.515625 C 11.738281 20.402344 11.660156 20.300781 11.585938 20.199219 C 11.464844 20.035156 11.261719 19.941406 11.054688 19.960938 C 10.851562 19.976562 10.667969 20.101562 10.578125 20.289062 C 10.21875 21.03125 9.789062 21.558594 9.371094 22.066406 C 8.730469 22.855469 8.125 23.601562 8.125 24.820312 C 8.125 25.503906 8.363281 26.125 8.746094 26.625 L 6.949219 26.625 L 6.949219 18.101562 C 6.949219 14.214844 10.113281 11.054688 14 11.054688 C 17.886719 11.054688 21.046875 14.214844 21.046875 18.101562 L 21.046875 26.625 Z M 16.832031 26.625 C 16.917969 26.429688 16.972656 26.21875 16.972656 26 C 16.972656 25.671875 16.707031 25.410156 16.382812 25.410156 C 16.058594 25.410156 15.792969 25.671875 15.792969 26 C 15.792969 26.332031 15.351562 26.625 14.84375 26.625 L 11.109375 26.625 C 10.113281 26.625 9.304688 25.816406 9.304688 24.820312 C 9.304688 24.019531 9.695312 23.539062 10.289062 22.8125 C 10.578125 22.457031 10.890625 22.070312 11.195312 21.597656 C 11.320312 21.761719 11.472656 21.960938 11.65625 22.21875 L 12.226562 23.183594 C 12.335938 23.367188 12.535156 23.472656 12.734375 23.472656 C 12.835938 23.472656 12.941406 23.445312 13.035156 23.390625 C 13.3125 23.222656 13.40625 22.859375 13.242188 22.582031 L 12.824219 21.878906 L 13.5625 20.5 C 13.773438 21.175781 14.128906 21.878906 14.707031 22.300781 L 14.167969 23.015625 C 13.972656 23.273438 14.027344 23.644531 14.285156 23.839844 C 14.390625 23.921875 14.515625 23.960938 14.640625 23.960938 C 14.820312 23.960938 14.996094 23.878906 15.109375 23.722656 L 16.078125 22.441406 L 16.714844 21.679688 C 17.132812 22.507812 17.609375 22.90625 17.984375 23.214844 C 18.457031 23.609375 18.695312 23.808594 18.695312 24.820312 C 18.695312 25.8125 17.886719 26.625 16.890625 26.625 Z M 24.707031 26.625 L 22.226562 26.625 L 22.226562 18.101562 C 22.226562 13.566406 18.539062 9.875 14 9.875 C 9.464844 9.875 5.773438 13.566406 5.773438 18.101562 L 5.773438 26.625 L 3.292969 26.625 L 3.292969 8.941406 L 20.613281 8.941406 C 20.9375 8.941406 21.199219 8.675781 21.199219 8.351562 C 21.199219 8.027344 20.9375 7.761719 20.613281 7.761719 L 3.292969 7.761719 L 3.292969 6.679688 L 24.707031 6.679688 Z M 26.820312 5.503906 L 1.179688 5.503906 L 1.179688 1.375 L 26.820312 1.375 Z M 26.820312 5.503906 "/>
</g>
</svg>
