<?xml version="1.0" encoding="UTF-8"?>
<svg xmlns="http://www.w3.org/2000/svg" xmlns:xlink="http://www.w3.org/1999/xlink" width="28pt" height="27pt" viewBox="0 0 28 27" version="1.1">
<g id="surface1">
<path style=" stroke:none;fill-rule:nonzero;fill:rgb(0%,0%,0%);fill-opacity:1;" d="M 25.953125 23.25 L 21.953125 19.394531 L 11.597656 9.40625 C 11.457031 9.269531 11.246094 9.222656 11.054688 9.277344 C 10.867188 9.335938 10.722656 9.492188 10.6875 9.679688 C 9.988281 13.34375 11.199219 17.101562 13.929688 19.734375 L 17.765625 23.433594 C 17.867188 23.53125 18.003906 23.585938 18.144531 23.585938 C 18.289062 23.585938 18.425781 23.53125 18.527344 23.433594 L 19.210938 22.773438 L 22.828125 26.257812 C 23.257812 26.675781 23.824219 26.882812 24.390625 26.882812 C 24.957031 26.882812 25.519531 26.675781 25.953125 26.261719 C 26.8125 25.429688 26.8125 24.078125 25.953125 23.25 Z M 18.144531 22.332031 L 14.691406 19 C 12.464844 16.851562 11.347656 13.878906 11.605469 10.882812 L 20.8125 19.761719 Z M 25.191406 25.523438 C 24.75 25.949219 24.03125 25.949219 23.589844 25.523438 L 19.972656 22.039062 L 21.574219 20.496094 L 25.191406 23.984375 C 25.628906 24.410156 25.628906 25.101562 25.191406 25.523438 Z M 25.191406 25.523438 "/>
<path style=" stroke:none;fill-rule:nonzero;fill:rgb(0%,0%,0%);fill-opacity:1;" d="M 17.019531 23.78125 C 16.722656 23.78125 16.480469 24.011719 16.480469 24.300781 L 16.480469 24.957031 C 16.480469 25.511719 16.011719 25.960938 15.4375 25.960938 L 3.519531 25.960938 C 2.945312 25.960938 2.480469 25.511719 2.480469 24.957031 L 2.480469 9.3125 C 2.480469 8.757812 2.945312 8.308594 3.519531 8.308594 L 5.40625 8.308594 C 5.972656 8.308594 6.488281 8.007812 6.757812 7.53125 C 7.023438 7.054688 7 6.476562 6.691406 6.027344 C 6.332031 5.5 6.140625 4.890625 6.140625 4.257812 C 6.140625 3.375 6.503906 2.550781 7.167969 1.9375 C 7.828125 1.324219 8.695312 1.007812 9.613281 1.042969 C 11.261719 1.101562 12.726562 2.496094 12.8125 4.078125 C 12.851562 4.773438 12.664062 5.445312 12.273438 6.019531 C 11.964844 6.476562 11.9375 7.054688 12.207031 7.535156 C 12.472656 8.011719 12.988281 8.308594 13.550781 8.308594 L 15.4375 8.308594 C 16.011719 8.308594 16.480469 8.757812 16.480469 9.3125 L 16.480469 13.085938 C 16.480469 13.371094 16.722656 13.605469 17.019531 13.605469 C 17.316406 13.605469 17.558594 13.371094 17.558594 13.085938 L 17.558594 9.3125 C 17.558594 8.183594 16.605469 7.269531 15.4375 7.269531 L 13.550781 7.269531 C 13.308594 7.269531 13.191406 7.109375 13.152344 7.039062 C 13.113281 6.972656 13.039062 6.789062 13.175781 6.589844 C 13.691406 5.828125 13.941406 4.941406 13.890625 4.023438 C 13.773438 1.925781 11.832031 0.0859375 9.65625 0.00390625 C 8.441406 -0.0429688 7.292969 0.378906 6.417969 1.1875 C 5.546875 2 5.066406 3.089844 5.066406 4.257812 C 5.066406 5.09375 5.316406 5.902344 5.789062 6.597656 C 5.921875 6.789062 5.847656 6.96875 5.808594 7.039062 C 5.769531 7.105469 5.652344 7.269531 5.40625 7.269531 L 3.519531 7.269531 C 2.351562 7.269531 1.402344 8.183594 1.402344 9.3125 L 1.402344 24.957031 C 1.402344 26.082031 2.351562 27 3.519531 27 L 15.4375 27 C 16.605469 27 17.558594 26.082031 17.558594 24.957031 L 17.558594 24.300781 C 17.558594 24.011719 17.316406 23.78125 17.019531 23.78125 Z M 17.019531 23.78125 "/>
<path style=" stroke:none;fill-rule:nonzero;fill:rgb(0%,0%,0%);fill-opacity:1;" d="M 9.925781 2.414062 C 9.8125 2.242188 9.589844 2.15625 9.386719 2.1875 C 9.160156 2.226562 8.980469 2.40625 8.945312 2.625 C 8.871094 3.09375 9.46875 3.402344 9.835938 3.089844 C 10.035156 2.921875 10.078125 2.625 9.925781 2.414062 C 9.910156 2.382812 9.945312 2.441406 9.925781 2.414062 Z M 9.925781 2.414062 "/>
</g>
</svg>
