<?xml version="1.0" encoding="UTF-8"?>
<svg xmlns="http://www.w3.org/2000/svg" xmlns:xlink="http://www.w3.org/1999/xlink" width="28pt" height="28pt" viewBox="0 0 28 28" version="1.1">
<g id="surface1">
<path style=" stroke:none;fill-rule:nonzero;fill:rgb(0%,0%,0%);fill-opacity:1;" d="M 24.992188 7.640625 L 23.808594 7.640625 C 23.457031 6.480469 22.371094 5.4375 20.671875 4.640625 C 19.417969 4.054688 17.894531 3.640625 16.296875 3.433594 C 16.417969 3.140625 16.484375 2.820312 16.484375 2.484375 C 16.484375 1.113281 15.371094 0 14 0 C 12.628906 0 11.515625 1.113281 11.515625 2.484375 C 11.515625 2.820312 11.582031 3.140625 11.703125 3.433594 C 10.105469 3.640625 8.582031 4.054688 7.328125 4.640625 C 5.628906 5.4375 4.542969 6.480469 4.191406 7.640625 L 3.007812 7.640625 C 1.816406 7.640625 0.847656 8.605469 0.847656 9.796875 C 0.847656 10.988281 1.816406 11.957031 3.007812 11.957031 L 4.042969 11.957031 L 4.042969 16.941406 C 4.042969 19.511719 6.136719 21.609375 8.710938 21.609375 L 19.289062 21.609375 C 21.863281 21.609375 23.957031 19.511719 23.957031 16.941406 L 23.957031 11.957031 L 24.992188 11.957031 C 26.183594 11.957031 27.152344 10.988281 27.152344 9.796875 C 27.152344 8.605469 26.183594 7.640625 24.992188 7.640625 Z M 4.042969 10.273438 L 3.007812 10.273438 C 2.746094 10.273438 2.53125 10.058594 2.53125 9.796875 C 2.53125 9.535156 2.746094 9.320312 3.007812 9.320312 L 4.042969 9.320312 Z M 14 1.683594 C 14.441406 1.683594 14.800781 2.042969 14.800781 2.484375 C 14.800781 2.925781 14.441406 3.285156 14 3.285156 C 13.558594 3.285156 13.199219 2.925781 13.199219 2.484375 C 13.199219 2.042969 13.558594 1.683594 14 1.683594 Z M 8.042969 6.164062 C 9.667969 5.40625 11.839844 4.96875 14 4.96875 C 16.160156 4.96875 18.332031 5.40625 19.957031 6.164062 C 20.890625 6.601562 21.578125 7.117188 21.945312 7.640625 L 6.054688 7.640625 C 6.421875 7.117188 7.109375 6.601562 8.042969 6.164062 Z M 19.289062 19.925781 L 8.710938 19.925781 C 7.066406 19.925781 5.726562 18.585938 5.726562 16.941406 L 5.726562 9.320312 L 22.273438 9.320312 L 22.273438 16.941406 C 22.273438 18.585938 20.933594 19.925781 19.289062 19.925781 Z M 24.992188 10.273438 L 23.957031 10.273438 L 23.957031 9.320312 L 24.992188 9.320312 C 25.253906 9.320312 25.46875 9.535156 25.46875 9.796875 C 25.46875 10.058594 25.253906 10.273438 24.992188 10.273438 Z M 24.992188 10.273438 "/>
<path style=" stroke:none;fill-rule:nonzero;fill:rgb(0%,0%,0%);fill-opacity:1;" d="M 24.152344 26.316406 L 22.007812 26.316406 C 22.066406 26.117188 22.097656 25.902344 22.097656 25.683594 C 22.097656 25.125 21.800781 24.511719 21.164062 23.753906 C 20.761719 23.273438 20.367188 22.910156 20.347656 22.894531 C 20.027344 22.601562 19.535156 22.601562 19.210938 22.894531 C 19.195312 22.910156 18.796875 23.273438 18.398438 23.753906 C 17.761719 24.511719 17.460938 25.125 17.460938 25.683594 C 17.460938 25.902344 17.496094 26.117188 17.550781 26.316406 L 16.226562 26.316406 C 16.285156 26.117188 16.316406 25.902344 16.316406 25.683594 C 16.316406 25.125 16.019531 24.511719 15.382812 23.753906 C 14.984375 23.273438 14.585938 22.910156 14.566406 22.894531 C 14.246094 22.601562 13.753906 22.601562 13.433594 22.894531 C 13.414062 22.910156 13.015625 23.273438 12.617188 23.753906 C 11.980469 24.511719 11.683594 25.125 11.683594 25.683594 C 11.683594 25.902344 11.714844 26.117188 11.769531 26.316406 L 10.449219 26.316406 C 10.503906 26.117188 10.535156 25.902344 10.535156 25.683594 C 10.535156 25.125 10.238281 24.511719 9.601562 23.753906 C 9.203125 23.273438 8.804688 22.910156 8.789062 22.894531 C 8.464844 22.601562 7.972656 22.601562 7.652344 22.894531 C 7.632812 22.910156 7.238281 23.273438 6.835938 23.753906 C 6.199219 24.511719 5.902344 25.125 5.902344 25.683594 C 5.902344 25.902344 5.933594 26.117188 5.992188 26.316406 L 3.847656 26.316406 C 3.382812 26.316406 3.003906 26.695312 3.003906 27.160156 C 3.003906 27.625 3.382812 28 3.847656 28 L 24.152344 28 C 24.617188 28 24.992188 27.625 24.992188 27.160156 C 24.992188 26.695312 24.617188 26.316406 24.152344 26.316406 Z M 8.21875 26.316406 C 7.871094 26.316406 7.585938 26.035156 7.582031 25.6875 C 7.609375 25.515625 7.871094 25.125 8.21875 24.722656 C 8.566406 25.125 8.832031 25.515625 8.855469 25.6875 C 8.851562 26.035156 8.566406 26.316406 8.21875 26.316406 Z M 14 26.316406 C 13.652344 26.316406 13.367188 26.035156 13.363281 25.6875 C 13.386719 25.515625 13.652344 25.125 14 24.722656 C 14.347656 25.125 14.613281 25.515625 14.636719 25.6875 C 14.632812 26.035156 14.347656 26.316406 14 26.316406 Z M 19.78125 26.316406 C 19.433594 26.316406 19.148438 26.035156 19.144531 25.6875 C 19.167969 25.515625 19.433594 25.125 19.78125 24.722656 C 20.128906 25.125 20.390625 25.515625 20.414062 25.6875 C 20.414062 26.035156 20.128906 26.316406 19.78125 26.316406 Z M 19.78125 26.316406 "/>
</g>
</svg>
