<?xml version="1.0" encoding="UTF-8"?>
<svg xmlns="http://www.w3.org/2000/svg" xmlns:xlink="http://www.w3.org/1999/xlink" width="28pt" height="28pt" viewBox="0 0 28 28" version="1.1">
<g id="surface1">
<path style=" stroke:none;fill-rule:nonzero;fill:rgb(0%,0%,0%);fill-opacity:1;" d="M 14 8.667969 C 10.265625 8.667969 6.894531 10.886719 5.410156 14.324219 C 5.171875 14.886719 4.984375 15.472656 4.855469 16.066406 C 4.773438 16.464844 5.027344 16.855469 5.421875 16.941406 C 5.476562 16.949219 5.527344 16.957031 5.578125 16.957031 C 5.917969 16.957031 6.222656 16.71875 6.292969 16.375 C 6.402344 15.871094 6.558594 15.378906 6.761719 14.90625 C 8.011719 12.007812 10.851562 10.136719 14 10.136719 C 14.40625 10.136719 14.734375 9.808594 14.734375 9.402344 C 14.734375 8.996094 14.40625 8.667969 14 8.667969 Z M 14 8.667969 "/>
<path style=" stroke:none;fill-rule:nonzero;fill:rgb(0%,0%,0%);fill-opacity:1;" d="M 6.121094 18.34375 C 6.113281 18.296875 6.097656 18.25 6.078125 18.207031 C 6.0625 18.160156 6.039062 18.117188 6.011719 18.078125 C 5.984375 18.039062 5.953125 18 5.921875 17.964844 C 5.886719 17.933594 5.847656 17.902344 5.808594 17.875 C 5.769531 17.847656 5.726562 17.824219 5.683594 17.808594 C 5.636719 17.789062 5.589844 17.777344 5.542969 17.765625 C 5.449219 17.746094 5.351562 17.746094 5.257812 17.765625 C 5.210938 17.777344 5.164062 17.789062 5.121094 17.808594 C 5.074219 17.824219 5.03125 17.847656 4.992188 17.875 C 4.953125 17.902344 4.914062 17.933594 4.882812 17.964844 C 4.847656 18 4.816406 18.039062 4.789062 18.078125 C 4.761719 18.117188 4.742188 18.160156 4.722656 18.207031 C 4.703125 18.25 4.691406 18.296875 4.679688 18.34375 C 4.671875 18.390625 4.664062 18.4375 4.664062 18.484375 C 4.664062 18.535156 4.671875 18.582031 4.679688 18.628906 C 4.691406 18.675781 4.703125 18.722656 4.722656 18.765625 C 4.742188 18.8125 4.765625 18.855469 4.789062 18.894531 C 4.816406 18.933594 4.847656 18.972656 4.882812 19.003906 C 4.914062 19.039062 4.953125 19.070312 4.992188 19.097656 C 5.03125 19.125 5.074219 19.148438 5.121094 19.164062 C 5.164062 19.183594 5.210938 19.199219 5.257812 19.207031 C 5.304688 19.214844 5.351562 19.222656 5.402344 19.222656 C 5.449219 19.222656 5.496094 19.214844 5.542969 19.207031 C 5.589844 19.199219 5.636719 19.183594 5.683594 19.164062 C 5.726562 19.148438 5.769531 19.125 5.808594 19.097656 C 5.847656 19.070312 5.886719 19.039062 5.921875 19.003906 C 5.953125 18.972656 5.984375 18.933594 6.011719 18.894531 C 6.039062 18.855469 6.0625 18.8125 6.078125 18.765625 C 6.097656 18.722656 6.113281 18.675781 6.121094 18.628906 C 6.132812 18.582031 6.136719 18.535156 6.136719 18.484375 C 6.136719 18.4375 6.132812 18.390625 6.121094 18.34375 Z M 6.121094 18.34375 "/>
<path style=" stroke:none;fill-rule:nonzero;fill:rgb(0%,0%,0%);fill-opacity:1;" d="M 27.265625 20.398438 L 25.753906 20.398438 C 25.910156 19.617188 25.992188 18.816406 25.992188 18.015625 C 25.992188 11.648438 21.007812 6.425781 14.734375 6.042969 L 14.734375 4.453125 L 16.058594 4.453125 C 16.464844 4.453125 16.792969 4.125 16.792969 3.71875 C 16.792969 3.3125 16.464844 2.984375 16.058594 2.984375 L 11.941406 2.984375 C 11.535156 2.984375 11.207031 3.3125 11.207031 3.71875 C 11.207031 4.125 11.535156 4.453125 11.941406 4.453125 L 13.265625 4.453125 L 13.265625 6.042969 C 6.992188 6.425781 2.007812 11.648438 2.007812 18.015625 C 2.007812 18.816406 2.089844 19.617188 2.246094 20.398438 L 0.734375 20.398438 C 0.328125 20.398438 0 20.726562 0 21.132812 C 0 21.539062 0.328125 21.867188 0.734375 21.867188 L 1.382812 21.867188 L 1.382812 24.28125 C 1.382812 24.6875 1.714844 25.015625 2.117188 25.015625 L 25.882812 25.015625 C 26.285156 25.015625 26.617188 24.6875 26.617188 24.28125 L 26.617188 21.867188 L 27.265625 21.867188 C 27.671875 21.867188 28 21.539062 28 21.132812 C 28 20.726562 27.671875 20.398438 27.265625 20.398438 Z M 14 7.492188 C 19.800781 7.492188 24.523438 12.210938 24.523438 18.015625 C 24.523438 18.820312 24.429688 19.617188 24.25 20.398438 L 3.75 20.398438 C 3.570312 19.617188 3.476562 18.820312 3.476562 18.015625 C 3.476562 12.210938 8.199219 7.492188 14 7.492188 Z M 2.855469 23.546875 L 2.855469 21.867188 L 25.144531 21.867188 L 25.144531 23.546875 Z M 2.855469 23.546875 "/>
</g>
</svg>
