<?xml version="1.0" encoding="UTF-8"?>
<svg xmlns="http://www.w3.org/2000/svg" xmlns:xlink="http://www.w3.org/1999/xlink" width="28pt" height="28pt" viewBox="0 0 28 28" version="1.1">
<g id="surface1">
<path style=" stroke:none;fill-rule:nonzero;fill:rgb(0%,0%,0%);fill-opacity:1;" d="M 21.792969 0 L 6.207031 0 C 5.078125 0 4.15625 0.921875 4.15625 2.050781 L 4.15625 12.085938 C 4.15625 13.078125 4.863281 13.90625 5.796875 14.09375 L 5.796875 15.367188 C 5.796875 15.59375 5.980469 15.777344 6.207031 15.777344 L 6.628906 15.777344 C 6.769531 18.371094 8.257812 20.609375 10.402344 21.8125 L 9.492188 27.527344 C 9.472656 27.644531 9.507812 27.765625 9.585938 27.855469 C 9.664062 27.949219 9.777344 28 9.898438 28 L 18.101562 28 C 18.222656 28 18.335938 27.949219 18.414062 27.855469 C 18.492188 27.765625 18.527344 27.644531 18.507812 27.527344 L 17.597656 21.8125 C 19.742188 20.609375 21.230469 18.371094 21.371094 15.777344 L 21.792969 15.777344 C 22.019531 15.777344 22.203125 15.59375 22.203125 15.367188 L 22.203125 14.09375 C 23.136719 13.90625 23.84375 13.078125 23.84375 12.085938 L 23.84375 2.050781 C 23.84375 0.921875 22.921875 0 21.792969 0 Z M 6.207031 0.820312 L 21.792969 0.820312 C 22.328125 0.820312 22.785156 1.164062 22.953125 1.640625 L 5.046875 1.640625 C 5.214844 1.164062 5.671875 0.820312 6.207031 0.820312 Z M 17.621094 27.179688 L 10.378906 27.179688 L 11.171875 22.1875 C 12.042969 22.550781 13 22.75 14 22.75 C 15 22.75 15.957031 22.550781 16.828125 22.1875 Z M 21.382812 14.957031 L 10.308594 14.957031 C 10.082031 14.957031 9.898438 15.140625 9.898438 15.367188 C 9.898438 15.59375 10.082031 15.777344 10.308594 15.777344 L 20.550781 15.777344 C 20.335938 19.207031 17.480469 21.929688 14 21.929688 C 10.519531 21.929688 7.664062 19.207031 7.449219 15.777344 L 8.667969 15.777344 C 8.894531 15.777344 9.078125 15.59375 9.078125 15.367188 C 9.078125 15.140625 8.894531 14.957031 8.667969 14.957031 L 6.617188 14.957031 L 6.617188 14.136719 L 21.382812 14.136719 Z M 6.6875 13.316406 C 6.855469 12.839844 7.3125 12.496094 7.847656 12.496094 L 20.152344 12.496094 C 20.6875 12.496094 21.144531 12.839844 21.3125 13.316406 Z M 23.023438 12.085938 C 23.023438 12.640625 22.65625 13.109375 22.148438 13.261719 C 21.9375 12.355469 21.125 11.675781 20.152344 11.675781 L 7.847656 11.675781 C 6.875 11.675781 6.0625 12.355469 5.851562 13.261719 C 5.34375 13.109375 4.976562 12.640625 4.976562 12.085938 L 4.976562 2.460938 L 23.023438 2.460938 Z M 23.023438 12.085938 "/>
<path style=" stroke:none;fill-rule:nonzero;fill:rgb(0%,0%,0%);fill-opacity:1;" d="M 9.214844 3.828125 L 6.753906 3.828125 C 6.527344 3.828125 6.34375 4.011719 6.34375 4.238281 C 6.34375 4.464844 6.527344 4.648438 6.753906 4.648438 L 9.214844 4.648438 C 9.441406 4.648438 9.625 4.464844 9.625 4.238281 C 9.625 4.011719 9.441406 3.828125 9.214844 3.828125 Z M 9.214844 3.828125 "/>
</g>
</svg>
