<?xml version="1.0" encoding="UTF-8"?>
<svg xmlns="http://www.w3.org/2000/svg" xmlns:xlink="http://www.w3.org/1999/xlink" width="28pt" height="28pt" viewBox="0 0 28 28" version="1.1">
<g id="surface1">
<path style=" stroke:none;fill-rule:nonzero;fill:rgb(0%,0%,0%);fill-opacity:1;" d="M 23.171875 14 C 23.171875 13.203125 22.523438 12.550781 21.722656 12.550781 L 21.242188 12.550781 L 21.242188 4.828125 L 21.722656 4.828125 C 21.992188 4.828125 22.207031 4.613281 22.207031 4.34375 L 22.207031 1.929688 C 22.207031 1.664062 21.992188 1.449219 21.722656 1.449219 L 15.929688 1.449219 L 15.929688 0.484375 C 15.929688 0.214844 15.714844 0 15.449219 0 L 12.550781 0 C 12.285156 0 12.070312 0.214844 12.070312 0.484375 L 12.070312 1.449219 L 6.277344 1.449219 C 6.007812 1.449219 5.792969 1.664062 5.792969 1.929688 L 5.792969 4.34375 C 5.792969 4.613281 6.007812 4.828125 6.277344 4.828125 L 6.757812 4.828125 L 6.757812 12.550781 L 6.277344 12.550781 C 5.476562 12.550781 4.828125 13.203125 4.828125 14 C 4.828125 14.628906 5.234375 15.160156 5.792969 15.359375 L 5.792969 18.847656 C 5.792969 21.765625 8.167969 24.136719 11.085938 24.136719 L 11.101562 24.136719 L 11.101562 27.515625 C 11.101562 27.785156 11.320312 28 11.585938 28 L 16.414062 28 C 16.679688 28 16.898438 27.785156 16.898438 27.515625 L 16.898438 24.136719 L 16.914062 24.136719 C 19.832031 24.136719 22.207031 21.765625 22.207031 18.847656 L 22.207031 15.359375 C 22.765625 15.160156 23.171875 14.628906 23.171875 14 Z M 13.035156 0.964844 L 14.964844 0.964844 L 14.964844 1.449219 L 13.035156 1.449219 Z M 6.757812 2.414062 L 21.242188 2.414062 L 21.242188 3.863281 L 6.757812 3.863281 Z M 7.722656 4.828125 L 20.277344 4.828125 L 20.277344 12.550781 L 7.722656 12.550781 Z M 15.929688 27.035156 L 12.070312 27.035156 L 12.070312 24.136719 L 15.929688 24.136719 Z M 21.242188 18.847656 C 21.242188 21.230469 19.300781 23.171875 16.914062 23.171875 L 11.085938 23.171875 C 8.699219 23.171875 6.757812 21.230469 6.757812 18.847656 L 6.757812 15.449219 L 21.242188 15.449219 Z M 21.722656 14.484375 L 6.277344 14.484375 C 6.011719 14.484375 5.792969 14.265625 5.792969 14 C 5.792969 13.734375 6.011719 13.515625 6.277344 13.515625 L 21.722656 13.515625 C 21.988281 13.515625 22.207031 13.734375 22.207031 14 C 22.207031 14.265625 21.988281 14.484375 21.722656 14.484375 Z M 21.722656 14.484375 "/>
</g>
</svg>
