<?xml version="1.0" encoding="UTF-8"?>
<svg xmlns="http://www.w3.org/2000/svg" xmlns:xlink="http://www.w3.org/1999/xlink" width="28pt" height="28pt" viewBox="0 0 28 28" version="1.1">
<g id="surface1">
<path style=" stroke:none;fill-rule:nonzero;fill:rgb(0%,0%,0%);fill-opacity:1;" d="M 20.835938 1.941406 L 20.835938 7.105469 C 19.292969 5.003906 16.804688 3.636719 14 3.636719 C 11.195312 3.636719 8.707031 5.003906 7.164062 7.105469 L 7.164062 1.941406 L 0 1.941406 L 0 26.058594 L 7.164062 26.058594 L 7.164062 24.417969 L 20.835938 24.417969 L 20.835938 26.058594 L 28 26.058594 L 28 1.941406 Z M 5.523438 24.417969 L 1.640625 24.417969 L 1.640625 3.582031 L 5.523438 3.582031 Z M 9.351562 22.777344 L 7.164062 22.777344 L 7.164062 12.113281 C 7.164062 10.136719 8.007812 8.355469 9.351562 7.105469 Z M 13.179688 22.777344 L 10.992188 22.777344 L 10.992188 5.976562 C 11.667969 5.644531 12.402344 5.421875 13.179688 5.328125 Z M 17.007812 12.636719 C 16.347656 13.082031 15.914062 13.832031 15.914062 14.683594 C 15.914062 15.535156 16.347656 16.285156 17.007812 16.730469 L 17.007812 22.777344 L 14.820312 22.777344 L 14.820312 5.328125 C 15.597656 5.421875 16.332031 5.644531 17.007812 5.976562 Z M 17.554688 14.683594 C 17.554688 14.230469 17.921875 13.863281 18.375 13.863281 C 18.828125 13.863281 19.195312 14.230469 19.195312 14.683594 C 19.195312 15.136719 18.828125 15.503906 18.375 15.503906 C 17.921875 15.503906 17.554688 15.136719 17.554688 14.683594 Z M 20.835938 14.683594 L 20.835938 22.777344 L 18.648438 22.777344 L 18.648438 17.128906 C 19.878906 16.992188 20.835938 15.949219 20.835938 14.683594 C 20.835938 13.417969 19.878906 12.375 18.648438 12.238281 L 18.648438 7.105469 C 19.992188 8.355469 20.835938 10.136719 20.835938 12.113281 Z M 26.359375 24.417969 L 22.476562 24.417969 L 22.476562 3.582031 L 26.359375 3.582031 Z M 26.359375 24.417969 "/>
</g>
</svg>
