<?xml version="1.0" encoding="UTF-8"?>
<svg xmlns="http://www.w3.org/2000/svg" xmlns:xlink="http://www.w3.org/1999/xlink" width="28pt" height="28pt" viewBox="0 0 28 28" version="1.1">
<g id="surface1">
<path style=" stroke:none;fill-rule:nonzero;fill:rgb(0%,0%,0%);fill-opacity:1;" d="M 26.804688 25.148438 L 26.519531 25.148438 L 26.519531 15.605469 C 26.519531 15.386719 26.34375 15.207031 26.121094 15.207031 C 25.902344 15.207031 25.722656 15.386719 25.722656 15.605469 L 25.722656 25.148438 L 24.359375 25.148438 L 24.359375 2.558594 C 24.359375 2.347656 24.195312 2.175781 23.988281 2.160156 C 23.984375 2.160156 23.980469 2.160156 23.976562 2.160156 C 23.972656 2.160156 23.96875 2.160156 23.960938 2.160156 L 4.039062 2.160156 C 4.03125 2.160156 4.027344 2.160156 4.023438 2.160156 C 4.019531 2.160156 4.011719 2.160156 4.007812 2.160156 C 3.996094 2.164062 3.984375 2.164062 3.972656 2.164062 C 3.96875 2.167969 3.964844 2.167969 3.960938 2.167969 C 3.945312 2.171875 3.929688 2.175781 3.917969 2.179688 C 3.914062 2.179688 3.914062 2.179688 3.914062 2.179688 C 3.898438 2.183594 3.886719 2.191406 3.875 2.195312 C 3.871094 2.195312 3.867188 2.199219 3.863281 2.199219 C 3.851562 2.207031 3.84375 2.210938 3.832031 2.21875 C 3.828125 2.21875 3.828125 2.21875 3.824219 2.222656 C 3.824219 2.222656 3.824219 2.222656 3.820312 2.222656 C 3.808594 2.230469 3.796875 2.242188 3.785156 2.25 C 3.785156 2.25 3.78125 2.25 3.78125 2.253906 C 3.773438 2.261719 3.761719 2.273438 3.75 2.28125 C 3.746094 2.285156 3.746094 2.289062 3.742188 2.292969 C 3.734375 2.300781 3.726562 2.308594 3.71875 2.316406 C 3.71875 2.320312 3.714844 2.324219 3.710938 2.328125 C 3.703125 2.339844 3.695312 2.351562 3.691406 2.363281 C 3.691406 2.363281 3.6875 2.367188 3.6875 2.367188 C 3.679688 2.378906 3.675781 2.394531 3.667969 2.410156 C 3.667969 2.410156 3.667969 2.414062 3.664062 2.417969 C 3.660156 2.429688 3.65625 2.441406 3.652344 2.453125 C 3.652344 2.457031 3.652344 2.460938 3.652344 2.464844 C 3.648438 2.476562 3.644531 2.488281 3.644531 2.5 C 3.644531 2.503906 3.644531 2.507812 3.640625 2.511719 C 3.640625 2.527344 3.640625 2.542969 3.640625 2.558594 L 3.640625 25.148438 L 2.277344 25.148438 L 2.277344 15.609375 C 2.277344 15.390625 2.097656 15.210938 1.878906 15.210938 C 1.65625 15.210938 1.480469 15.390625 1.480469 15.609375 L 1.480469 25.148438 L 1.195312 25.148438 C 0.707031 25.148438 0.308594 25.546875 0.308594 26.039062 L 0.308594 27.113281 C 0.308594 27.601562 0.707031 28 1.195312 28 L 26.804688 28 C 27.292969 28 27.691406 27.601562 27.691406 27.113281 L 27.691406 26.039062 C 27.691406 25.546875 27.292969 25.148438 26.804688 25.148438 Z M 23.5625 3.1875 L 23.5625 25.148438 L 23.027344 25.148438 L 18.015625 23.273438 L 18.015625 5.820312 Z M 22.191406 2.957031 L 17.632812 5.121094 C 17.375 5.242188 17.21875 5.484375 17.21875 5.75 L 17.21875 23.351562 C 17.21875 23.640625 17.40625 23.898438 17.695312 24.007812 L 20.75 25.148438 L 7.25 25.148438 L 10.304688 24.007812 C 10.59375 23.898438 10.78125 23.640625 10.78125 23.351562 L 10.78125 5.75 C 10.78125 5.484375 10.621094 5.242188 10.367188 5.121094 L 5.808594 2.957031 Z M 4.4375 3.1875 L 9.984375 5.820312 L 9.984375 23.277344 L 4.972656 25.148438 L 4.4375 25.148438 Z M 26.804688 27.203125 L 1.195312 27.203125 C 1.144531 27.203125 1.105469 27.164062 1.105469 27.113281 L 1.105469 26.039062 C 1.105469 25.988281 1.144531 25.945312 1.195312 25.945312 L 26.804688 25.945312 C 26.855469 25.945312 26.894531 25.988281 26.894531 26.039062 L 26.894531 27.113281 C 26.894531 27.164062 26.855469 27.203125 26.804688 27.203125 Z M 26.804688 27.203125 "/>
<path style=" stroke:none;fill-rule:nonzero;fill:rgb(0%,0%,0%);fill-opacity:1;" d="M 25.488281 0 L 2.511719 0 C 1.941406 0 1.480469 0.460938 1.480469 1.03125 L 1.480469 13.691406 C 1.480469 13.910156 1.65625 14.089844 1.878906 14.089844 C 2.097656 14.089844 2.277344 13.910156 2.277344 13.691406 L 2.277344 1.03125 C 2.277344 0.902344 2.382812 0.796875 2.511719 0.796875 L 25.488281 0.796875 C 25.617188 0.796875 25.722656 0.902344 25.722656 1.03125 L 25.722656 13.710938 C 25.722656 13.929688 25.902344 14.109375 26.121094 14.109375 C 26.34375 14.109375 26.519531 13.929688 26.519531 13.710938 L 26.519531 1.03125 C 26.519531 0.460938 26.058594 0 25.488281 0 Z M 25.488281 0 "/>
<path style=" stroke:none;fill-rule:nonzero;fill:rgb(0%,0%,0%);fill-opacity:1;" d="M 22.265625 5.085938 C 22.191406 5.085938 22.113281 5.105469 22.046875 5.136719 L 19.265625 6.53125 C 19.105469 6.609375 19.007812 6.765625 19.007812 6.941406 L 19.007812 13.617188 C 19.007812 13.875 19.226562 14.085938 19.492188 14.089844 L 22.273438 14.105469 C 22.273438 14.105469 22.273438 14.105469 22.277344 14.105469 C 22.539062 14.105469 22.757812 13.898438 22.757812 13.640625 L 22.757812 5.5625 C 22.757812 5.300781 22.535156 5.085938 22.265625 5.085938 Z M 21.960938 13.308594 L 19.804688 13.292969 L 19.804688 7.152344 L 21.960938 6.074219 Z M 21.960938 13.308594 "/>
<path style=" stroke:none;fill-rule:nonzero;fill:rgb(0%,0%,0%);fill-opacity:1;" d="M 22.269531 14.667969 L 19.492188 14.699219 C 19.226562 14.699219 19.007812 14.910156 19.007812 15.167969 L 19.007812 22.1875 C 19.007812 22.375 19.125 22.542969 19.300781 22.613281 L 22.085938 23.71875 C 22.140625 23.742188 22.203125 23.753906 22.265625 23.753906 C 22.535156 23.753906 22.757812 23.539062 22.757812 23.277344 L 22.757812 15.136719 C 22.757812 14.878906 22.539062 14.667969 22.269531 14.667969 Z M 21.960938 22.8125 L 19.804688 21.957031 L 19.804688 15.492188 L 21.960938 15.46875 Z M 21.960938 22.8125 "/>
<path style=" stroke:none;fill-rule:nonzero;fill:rgb(0%,0%,0%);fill-opacity:1;" d="M 8.507812 14.699219 L 5.722656 14.667969 C 5.457031 14.667969 5.242188 14.878906 5.242188 15.136719 L 5.242188 23.277344 C 5.242188 23.539062 5.464844 23.753906 5.734375 23.753906 C 5.796875 23.753906 5.855469 23.742188 5.914062 23.71875 L 8.695312 22.613281 C 8.875 22.542969 8.988281 22.375 8.988281 22.1875 L 8.988281 15.167969 C 8.988281 14.910156 8.773438 14.699219 8.507812 14.699219 Z M 8.191406 21.957031 L 6.039062 22.8125 C 6.039062 22.8125 6.039062 15.46875 6.039062 15.46875 L 8.191406 15.492188 Z M 8.191406 21.957031 "/>
<path style=" stroke:none;fill-rule:nonzero;fill:rgb(0%,0%,0%);fill-opacity:1;" d="M 8.734375 6.53125 L 5.949219 5.136719 C 5.882812 5.105469 5.808594 5.085938 5.734375 5.085938 C 5.464844 5.085938 5.242188 5.300781 5.242188 5.5625 L 5.242188 13.640625 C 5.242188 13.898438 5.457031 14.105469 5.722656 14.105469 C 5.722656 14.105469 5.726562 14.105469 5.726562 14.105469 L 8.503906 14.089844 C 8.773438 14.085938 8.988281 13.875 8.988281 13.617188 L 8.988281 6.941406 C 8.988281 6.765625 8.890625 6.609375 8.734375 6.53125 Z M 8.191406 13.292969 L 6.039062 13.308594 C 6.039062 13.308594 6.039062 6.074219 6.039062 6.074219 L 8.191406 7.152344 Z M 8.191406 13.292969 "/>
</g>
</svg>
