<?xml version="1.0" encoding="UTF-8"?>
<svg xmlns="http://www.w3.org/2000/svg" xmlns:xlink="http://www.w3.org/1999/xlink" width="28pt" height="28pt" viewBox="0 0 28 28" version="1.1">
<g id="surface1">
<path style=" stroke:none;fill-rule:nonzero;fill:rgb(0%,0%,0%);fill-opacity:1;" d="M 3.109375 0 L 3.109375 28 L 11.199219 28 L 11.199219 27.066406 C 11.199219 25.289062 10.964844 23.449219 10.535156 21.777344 L 17.464844 21.777344 C 17.035156 23.449219 16.800781 25.289062 16.800781 27.066406 L 16.800781 28 L 24.890625 28 L 24.890625 0 Z M 4.976562 1.867188 L 13.050781 1.867188 C 12.933594 5.476562 12.140625 9.070312 10.839844 11.847656 C 9.566406 14.558594 7.957031 16.179688 6.535156 16.179688 L 4.976562 16.179688 Z M 4.976562 26.132812 L 4.976562 18.042969 L 6.53125 18.042969 C 6.71875 18.050781 7.460938 18.648438 8.183594 20.523438 C 8.816406 22.152344 9.214844 24.152344 9.308594 26.132812 Z M 13.066406 19.910156 L 9.949219 19.910156 C 9.9375 19.878906 9.925781 19.847656 9.914062 19.816406 C 9.535156 18.839844 9.105469 18.046875 8.640625 17.453125 C 9.082031 17.203125 9.515625 16.875 9.941406 16.464844 C 10.902344 15.539062 11.773438 14.25 12.527344 12.640625 C 12.71875 12.238281 12.898438 11.816406 13.066406 11.386719 Z M 18.050781 19.910156 L 14.933594 19.910156 L 14.933594 11.386719 C 15.101562 11.816406 15.28125 12.238281 15.472656 12.640625 C 16.226562 14.25 17.097656 15.539062 18.058594 16.464844 C 18.484375 16.875 18.917969 17.203125 19.359375 17.453125 C 18.894531 18.046875 18.464844 18.839844 18.085938 19.816406 C 18.074219 19.847656 18.0625 19.878906 18.050781 19.910156 Z M 23.023438 26.132812 L 18.691406 26.132812 C 18.785156 24.152344 19.183594 22.152344 19.816406 20.523438 C 20.539062 18.648438 21.28125 18.050781 21.464844 18.042969 L 23.023438 18.042969 Z M 23.023438 16.179688 L 21.464844 16.179688 C 20.042969 16.179688 18.433594 14.558594 17.160156 11.847656 C 15.859375 9.070312 15.066406 5.476562 14.949219 1.867188 L 23.023438 1.867188 Z M 23.023438 16.179688 "/>
</g>
</svg>
