<?xml version="1.0" encoding="UTF-8"?>
<svg xmlns="http://www.w3.org/2000/svg" xmlns:xlink="http://www.w3.org/1999/xlink" width="28pt" height="28pt" viewBox="0 0 28 28" version="1.1">
<g id="surface1">
<path style=" stroke:none;fill-rule:nonzero;fill:rgb(0%,0%,0%);fill-opacity:1;" d="M 26.601562 25.199219 L 25.199219 25.199219 L 25.199219 2.726562 C 25.753906 2.539062 26.132812 2.027344 26.132812 1.398438 C 26.132812 0.605469 25.527344 0 24.734375 0 L 3.265625 0 C 2.472656 0 1.867188 0.605469 1.867188 1.398438 C 1.867188 2.019531 2.265625 2.527344 2.800781 2.71875 L 2.800781 25.199219 L 1.398438 25.199219 C 1.121094 25.199219 0.933594 25.386719 0.933594 25.667969 C 0.933594 25.945312 1.121094 26.132812 1.398438 26.132812 L 1.867188 26.132812 L 1.867188 26.601562 C 1.867188 27.394531 2.472656 28 3.265625 28 L 24.734375 28 C 25.527344 28 26.132812 27.394531 26.132812 26.601562 L 26.132812 26.132812 L 26.601562 26.132812 C 26.878906 26.132812 27.066406 25.945312 27.066406 25.667969 C 27.066406 25.386719 26.878906 25.199219 26.601562 25.199219 Z M 3.265625 0.933594 L 24.734375 0.933594 C 25.011719 0.933594 25.199219 1.121094 25.199219 1.398438 C 25.199219 1.679688 25.011719 1.867188 24.734375 1.867188 L 3.265625 1.867188 C 2.988281 1.867188 2.800781 1.632812 2.800781 1.398438 C 2.800781 1.167969 3.035156 0.933594 3.265625 0.933594 Z M 3.734375 2.800781 L 24.265625 2.800781 L 24.265625 25.199219 L 23.332031 25.199219 L 23.332031 4.199219 C 23.332031 3.921875 23.148438 3.734375 22.867188 3.734375 L 5.132812 3.734375 C 4.851562 3.734375 4.667969 3.921875 4.667969 4.199219 L 4.667969 25.199219 L 3.734375 25.199219 Z M 22.398438 5.601562 L 19.601562 5.601562 C 19.320312 5.601562 19.132812 5.785156 19.132812 6.066406 C 19.132812 6.347656 19.320312 6.535156 19.601562 6.535156 L 22.398438 6.535156 L 22.398438 7.464844 L 20.535156 7.464844 C 20.253906 7.464844 20.066406 7.652344 20.066406 7.933594 C 20.066406 8.214844 20.253906 8.398438 20.535156 8.398438 L 22.398438 8.398438 L 22.398438 9.332031 L 21.464844 9.332031 C 21.1875 9.332031 21 9.519531 21 9.800781 C 21 10.078125 21.1875 10.265625 21.464844 10.265625 L 22.398438 10.265625 L 22.398438 11.199219 L 5.601562 11.199219 L 5.601562 10.265625 L 8.398438 10.265625 C 8.679688 10.265625 8.867188 10.078125 8.867188 9.800781 C 8.867188 9.519531 8.679688 9.332031 8.398438 9.332031 L 5.601562 9.332031 L 5.601562 8.398438 L 7.464844 8.398438 C 7.746094 8.398438 7.933594 8.214844 7.933594 7.933594 C 7.933594 7.652344 7.746094 7.464844 7.464844 7.464844 L 5.601562 7.464844 L 5.601562 6.535156 L 6.535156 6.535156 C 6.8125 6.535156 7 6.347656 7 6.066406 C 7 5.785156 6.8125 5.601562 6.535156 5.601562 L 5.601562 5.601562 L 5.601562 4.667969 L 22.398438 4.667969 Z M 14 14 C 14.511719 14 14.933594 14.421875 14.933594 14.933594 C 14.933594 15.445312 14.511719 15.867188 14 15.867188 C 13.488281 15.867188 13.066406 15.445312 13.066406 14.933594 C 13.066406 14.421875 13.488281 14 14 14 Z M 5.601562 12.132812 L 13.535156 12.132812 L 13.535156 13.125 C 12.730469 13.335938 12.132812 14.066406 12.132812 14.933594 C 12.132812 15.960938 12.972656 16.800781 14 16.800781 C 15.027344 16.800781 15.867188 15.960938 15.867188 14.933594 C 15.867188 14.066406 15.269531 13.335938 14.464844 13.125 L 14.464844 12.132812 L 22.398438 12.132812 L 22.398438 25.199219 L 5.601562 25.199219 Z M 25.199219 26.601562 C 25.199219 26.878906 25.011719 27.066406 24.734375 27.066406 L 3.265625 27.066406 C 2.988281 27.066406 2.800781 26.878906 2.800781 26.601562 L 2.800781 26.132812 L 25.199219 26.132812 Z M 25.199219 26.601562 "/>
</g>
</svg>
