<?xml version="1.0" encoding="UTF-8"?>
<svg xmlns="http://www.w3.org/2000/svg" xmlns:xlink="http://www.w3.org/1999/xlink" width="28pt" height="28pt" viewBox="0 0 28 28" version="1.1">
<g id="surface1">
<path style=" stroke:none;fill-rule:nonzero;fill:rgb(0%,0%,0%);fill-opacity:1;" d="M 26.832031 1.167969 C 26.40625 1.167969 26.050781 1.40625 25.847656 1.75 L 24.5 1.75 L 24.5 0.582031 C 24.5 0.261719 24.238281 0 23.917969 0 L 15.75 0 C 15.425781 0 15.167969 0.261719 15.167969 0.582031 L 15.167969 1.75 L 12.832031 1.75 L 12.832031 0.582031 C 12.832031 0.261719 12.574219 0 12.25 0 L 4.082031 0 C 3.761719 0 3.5 0.261719 3.5 0.582031 L 3.5 1.75 L 2.152344 1.75 C 1.949219 1.40625 1.59375 1.167969 1.167969 1.167969 C 0.523438 1.167969 0 1.691406 0 2.332031 C 0 2.976562 0.523438 3.5 1.167969 3.5 C 1.59375 3.5 1.949219 3.257812 2.152344 2.917969 L 3.5 2.917969 L 3.5 27.417969 C 3.5 27.738281 3.761719 28 4.082031 28 C 6.277344 28 7.386719 27.367188 8.457031 26.757812 C 9.4375 26.195312 10.363281 25.667969 12.25 25.667969 C 12.574219 25.667969 12.832031 25.40625 12.832031 25.082031 L 12.832031 2.917969 L 15.167969 2.917969 L 15.167969 25.082031 C 15.167969 25.40625 15.425781 25.667969 15.75 25.667969 C 17.636719 25.667969 18.5625 26.195312 19.542969 26.757812 C 20.613281 27.367188 21.722656 28 23.917969 28 C 24.238281 28 24.5 27.738281 24.5 27.417969 L 24.5 2.917969 L 25.847656 2.917969 C 26.050781 3.257812 26.40625 3.5 26.832031 3.5 C 27.476562 3.5 28 2.976562 28 2.332031 C 28 1.691406 27.476562 1.167969 26.832031 1.167969 Z M 11.667969 24.515625 C 9.851562 24.617188 8.847656 25.1875 7.878906 25.742188 C 7.003906 26.242188 6.171875 26.71875 4.667969 26.816406 L 4.667969 1.167969 L 11.667969 1.167969 Z M 23.332031 26.816406 C 21.828125 26.71875 20.996094 26.242188 20.121094 25.742188 C 19.152344 25.1875 18.148438 24.617188 16.332031 24.515625 L 16.332031 1.167969 L 23.332031 1.167969 Z M 23.332031 26.816406 "/>
<path style=" stroke:none;fill-rule:nonzero;fill:rgb(0%,0%,0%);fill-opacity:1;" d="M 6.417969 2.917969 L 9.917969 2.917969 C 10.238281 2.917969 10.5 2.65625 10.5 2.332031 C 10.5 2.011719 10.238281 1.75 9.917969 1.75 L 6.417969 1.75 C 6.09375 1.75 5.832031 2.011719 5.832031 2.332031 C 5.832031 2.65625 6.09375 2.917969 6.417969 2.917969 Z M 6.417969 2.917969 "/>
<path style=" stroke:none;fill-rule:nonzero;fill:rgb(0%,0%,0%);fill-opacity:1;" d="M 18.082031 2.917969 L 21.582031 2.917969 C 21.90625 2.917969 22.167969 2.65625 22.167969 2.332031 C 22.167969 2.011719 21.90625 1.75 21.582031 1.75 L 18.082031 1.75 C 17.761719 1.75 17.5 2.011719 17.5 2.332031 C 17.5 2.65625 17.761719 2.917969 18.082031 2.917969 Z M 18.082031 2.917969 "/>
</g>
</svg>
