<?xml version="1.0" encoding="UTF-8"?>
<svg xmlns="http://www.w3.org/2000/svg" xmlns:xlink="http://www.w3.org/1999/xlink" width="28pt" height="28pt" viewBox="0 0 28 28" version="1.1">
<g id="surface1">
<path style=" stroke:none;fill-rule:nonzero;fill:rgb(0%,0%,0%);fill-opacity:1;" d="M 0 0 L 0 25.539062 C 0 26.894531 1.105469 28 2.460938 28 C 3.089844 28 3.664062 27.761719 4.101562 27.371094 C 4.539062 27.761719 5.113281 28 5.742188 28 C 6.371094 28 6.945312 27.761719 7.382812 27.371094 C 7.820312 27.761719 8.394531 28 9.023438 28 C 10.378906 28 11.484375 26.894531 11.484375 25.539062 L 11.484375 6.5625 L 16.515625 6.5625 L 16.515625 25.539062 C 16.515625 26.894531 17.621094 28 18.976562 28 C 19.605469 28 20.179688 27.761719 20.617188 27.371094 C 21.054688 27.761719 21.628906 28 22.257812 28 C 22.886719 28 23.460938 27.761719 23.898438 27.371094 C 24.335938 27.761719 24.910156 28 25.539062 28 C 26.894531 28 28 26.894531 28 25.539062 L 28 0 Z M 26.359375 1.640625 L 26.359375 4.921875 L 1.640625 4.921875 L 1.640625 1.640625 Z M 2.460938 26.359375 C 2.007812 26.359375 1.640625 25.992188 1.640625 25.539062 L 1.640625 6.5625 L 3.28125 6.5625 L 3.28125 25.539062 C 3.28125 25.992188 2.914062 26.359375 2.460938 26.359375 Z M 5.742188 26.359375 C 5.289062 26.359375 4.921875 25.992188 4.921875 25.539062 L 4.921875 6.5625 L 6.5625 6.5625 L 6.5625 25.539062 C 6.5625 25.992188 6.195312 26.359375 5.742188 26.359375 Z M 9.84375 25.539062 C 9.84375 25.992188 9.476562 26.359375 9.023438 26.359375 C 8.570312 26.359375 8.203125 25.992188 8.203125 25.539062 L 8.203125 6.5625 L 9.84375 6.5625 Z M 18.976562 26.359375 C 18.523438 26.359375 18.15625 25.992188 18.15625 25.539062 L 18.15625 6.5625 L 19.796875 6.5625 L 19.796875 25.539062 C 19.796875 25.992188 19.429688 26.359375 18.976562 26.359375 Z M 22.257812 26.359375 C 21.804688 26.359375 21.4375 25.992188 21.4375 25.539062 L 21.4375 6.5625 L 23.078125 6.5625 L 23.078125 25.539062 C 23.078125 25.992188 22.710938 26.359375 22.257812 26.359375 Z M 25.539062 26.359375 C 25.085938 26.359375 24.71875 25.992188 24.71875 25.539062 L 24.71875 6.5625 L 26.359375 6.5625 L 26.359375 25.539062 C 26.359375 25.992188 25.992188 26.359375 25.539062 26.359375 Z M 25.539062 26.359375 "/>
</g>
</svg>
