<?xml version="1.0" encoding="UTF-8"?>
<svg xmlns="http://www.w3.org/2000/svg" xmlns:xlink="http://www.w3.org/1999/xlink" width="28pt" height="28pt" viewBox="0 0 28 28" version="1.1">
<g id="surface1">
<path style=" stroke:none;fill-rule:nonzero;fill:rgb(0%,0%,0%);fill-opacity:1;" d="M 27.179688 0 L 0.820312 0 C 0.367188 0 0 0.367188 0 0.820312 L 0 5.742188 C 0 6.195312 0.367188 6.5625 0.820312 6.5625 L 1.695312 6.5625 L 1.695312 18.867188 C 1.695312 19.320312 2.0625 19.6875 2.515625 19.6875 L 3.335938 19.6875 L 3.335938 23.078125 L 2.515625 23.078125 C 2.0625 23.078125 1.695312 23.445312 1.695312 23.898438 L 1.695312 27.179688 C 1.695312 27.632812 2.0625 28 2.515625 28 L 25.484375 28 C 25.9375 28 26.304688 27.632812 26.304688 27.179688 L 26.304688 23.898438 C 26.304688 23.445312 25.9375 23.078125 25.484375 23.078125 L 24.664062 23.078125 L 24.664062 19.6875 L 25.484375 19.6875 C 25.9375 19.6875 26.304688 19.320312 26.304688 18.867188 C 26.304688 18.390625 26.304688 7.089844 26.304688 6.5625 L 27.179688 6.5625 C 27.632812 6.5625 28 6.195312 28 5.742188 L 28 0.820312 C 28 0.367188 27.632812 0 27.179688 0 Z M 3.335938 13.125 L 24.664062 13.125 L 24.664062 14.765625 L 3.335938 14.765625 Z M 24.664062 11.484375 L 3.335938 11.484375 L 3.335938 9.84375 L 24.664062 9.84375 Z M 4.976562 19.6875 L 6.617188 19.6875 L 6.617188 23.078125 L 4.976562 23.078125 Z M 19.742188 19.6875 L 19.742188 23.078125 L 8.257812 23.078125 L 8.257812 19.6875 Z M 24.664062 26.359375 L 3.335938 26.359375 L 3.335938 24.71875 L 24.664062 24.71875 Z M 23.023438 23.078125 L 21.382812 23.078125 L 21.382812 19.6875 L 23.023438 19.6875 Z M 24.664062 18.046875 L 3.335938 18.046875 L 3.335938 16.40625 L 24.664062 16.40625 Z M 24.664062 8.203125 L 3.335938 8.203125 L 3.335938 6.5625 L 24.664062 6.5625 Z M 26.359375 4.921875 C 25.785156 4.921875 2.535156 4.921875 1.640625 4.921875 L 1.640625 1.640625 L 26.359375 1.640625 Z M 26.359375 4.921875 "/>
<path style=" stroke:none;fill-rule:nonzero;fill:rgb(0%,0%,0%);fill-opacity:1;" d="M 18.101562 3.28125 C 18.101562 3.734375 17.734375 4.101562 17.28125 4.101562 C 16.828125 4.101562 16.460938 3.734375 16.460938 3.28125 C 16.460938 2.828125 16.828125 2.460938 17.28125 2.460938 C 17.734375 2.460938 18.101562 2.828125 18.101562 3.28125 Z M 18.101562 3.28125 "/>
<path style=" stroke:none;fill-rule:nonzero;fill:rgb(0%,0%,0%);fill-opacity:1;" d="M 21.382812 3.28125 C 21.382812 3.734375 21.015625 4.101562 20.5625 4.101562 C 20.109375 4.101562 19.742188 3.734375 19.742188 3.28125 C 19.742188 2.828125 20.109375 2.460938 20.5625 2.460938 C 21.015625 2.460938 21.382812 2.828125 21.382812 3.28125 Z M 21.382812 3.28125 "/>
<path style=" stroke:none;fill-rule:nonzero;fill:rgb(0%,0%,0%);fill-opacity:1;" d="M 24.664062 3.28125 C 24.664062 3.734375 24.296875 4.101562 23.84375 4.101562 C 23.390625 4.101562 23.023438 3.734375 23.023438 3.28125 C 23.023438 2.828125 23.390625 2.460938 23.84375 2.460938 C 24.296875 2.460938 24.664062 2.828125 24.664062 3.28125 Z M 24.664062 3.28125 "/>
</g>
</svg>
