<?xml version="1.0" encoding="UTF-8"?>
<svg xmlns="http://www.w3.org/2000/svg" xmlns:xlink="http://www.w3.org/1999/xlink" width="28px" height="28px" viewBox="0 0 28 31" version="1.1">
<g id="surface1">
<path style=" stroke:none;fill-rule:nonzero;fill:rgb(0%,0%,0%);fill-opacity:1;" d="M 20.507812 6.851562 C 16.554688 3.355469 10.476562 3.691406 6.941406 7.59375 C 3.398438 11.496094 3.738281 17.5 7.691406 20.988281 C 8.277344 21.480469 8.894531 21.925781 9.589844 22.285156 L 9.589844 27.867188 C 9.589844 28.472656 10.085938 28.964844 10.703125 28.964844 L 11.816406 28.964844 L 11.816406 30.066406 C 11.816406 30.675781 12.316406 31.167969 12.933594 31.167969 L 15.1875 31.167969 C 15.800781 31.167969 16.300781 30.675781 16.300781 30.066406 L 16.300781 28.964844 L 17.414062 28.964844 C 18.03125 28.964844 18.53125 28.472656 18.53125 27.867188 L 18.53125 22.285156 C 23.210938 19.832031 24.996094 14.089844 22.484375 9.46875 C 22.039062 8.476562 21.34375 7.59375 20.507812 6.851562 Z M 17.496094 24.507812 L 17.496094 25.609375 L 10.726562 25.609375 L 10.726562 24.507812 Z M 15.242188 30.089844 L 12.988281 30.089844 L 12.988281 28.992188 L 15.242188 28.992188 Z M 15.796875 27.867188 L 10.726562 27.867188 L 10.726562 26.765625 L 17.496094 26.765625 L 17.496094 27.867188 Z M 17.828125 21.425781 C 17.628906 21.511719 17.519531 21.699219 17.519531 21.917969 L 17.519531 23.378906 L 14.679688 23.378906 L 14.679688 20.820312 L 16.214844 19.304688 C 16.4375 19.085938 16.4375 18.726562 16.214844 18.507812 C 15.992188 18.289062 15.628906 18.289062 15.40625 18.507812 L 14.097656 19.804688 L 12.816406 18.539062 C 12.59375 18.320312 12.230469 18.320312 12.007812 18.539062 C 11.785156 18.757812 11.785156 19.117188 12.007812 19.335938 L 13.542969 20.847656 L 13.542969 23.410156 L 10.726562 23.410156 L 10.726562 21.949219 C 10.726562 21.730469 10.617188 21.535156 10.417969 21.457031 C 6.183594 19.421875 4.429688 14.417969 6.492188 10.261719 C 7.746094 7.679688 10.277344 5.945312 13.148438 5.613281 C 13.480469 5.582031 13.789062 5.558594 14.121094 5.558594 C 16.207031 5.558594 18.214844 6.300781 19.75 7.671875 C 23.234375 10.757812 23.535156 16.035156 20.417969 19.476562 C 19.691406 20.300781 18.804688 20.957031 17.828125 21.425781 Z M 17.828125 21.425781 "/>
<path style=" stroke:none;fill-rule:nonzero;fill:rgb(0%,0%,0%);fill-opacity:1;" d="M 14.125 3.324219 C 14.433594 3.324219 14.679688 3.078125 14.679688 2.777344 L 14.679688 0.554688 C 14.679688 0.25 14.429688 0.0078125 14.125 0.0078125 C 13.820312 0.0078125 13.566406 0.253906 13.566406 0.554688 L 13.566406 2.777344 C 13.542969 3.082031 13.789062 3.324219 14.125 3.324219 Z M 14.125 3.324219 "/>
<path style=" stroke:none;fill-rule:nonzero;fill:rgb(0%,0%,0%);fill-opacity:1;" d="M 5.710938 6.410156 C 5.929688 6.628906 6.292969 6.628906 6.515625 6.410156 C 6.738281 6.191406 6.738281 5.832031 6.515625 5.613281 L 4.925781 4.042969 C 4.707031 3.824219 4.34375 3.824219 4.121094 4.042969 C 3.898438 4.261719 3.898438 4.621094 4.121094 4.839844 Z M 5.710938 6.410156 "/>
<path style=" stroke:none;fill-rule:nonzero;fill:rgb(0%,0%,0%);fill-opacity:1;" d="M 2.816406 13.371094 L 0.5625 13.371094 C 0.253906 13.371094 0.0078125 13.621094 0.0078125 13.917969 C 0.0078125 14.222656 0.261719 14.464844 0.5625 14.464844 L 2.816406 14.464844 C 3.125 14.464844 3.371094 14.214844 3.371094 13.917969 C 3.371094 13.613281 3.117188 13.371094 2.816406 13.371094 Z M 2.816406 13.371094 "/>
<path style=" stroke:none;fill-rule:nonzero;fill:rgb(0%,0%,0%);fill-opacity:1;" d="M 5.710938 21.425781 L 4.121094 22.996094 C 3.898438 23.214844 3.898438 23.574219 4.121094 23.792969 C 4.34375 24.011719 4.707031 24.011719 4.925781 23.792969 L 6.515625 22.222656 C 6.738281 22.003906 6.738281 21.644531 6.515625 21.425781 C 6.292969 21.207031 5.929688 21.207031 5.710938 21.425781 Z M 5.710938 21.425781 "/>
<path style=" stroke:none;fill-rule:nonzero;fill:rgb(0%,0%,0%);fill-opacity:1;" d="M 23.289062 4.074219 L 21.699219 5.640625 C 21.480469 5.863281 21.480469 6.21875 21.699219 6.4375 C 21.921875 6.65625 22.285156 6.65625 22.507812 6.4375 L 24.097656 4.871094 C 24.316406 4.652344 24.316406 4.292969 24.097656 4.074219 C 23.875 3.855469 23.511719 3.855469 23.289062 4.074219 Z M 23.289062 4.074219 "/>
<path style=" stroke:none;fill-rule:nonzero;fill:rgb(0%,0%,0%);fill-opacity:1;" d="M 22.507812 21.425781 C 22.285156 21.207031 21.921875 21.207031 21.699219 21.425781 C 21.480469 21.644531 21.480469 22.003906 21.699219 22.222656 L 23.289062 23.792969 C 23.511719 24.011719 23.875 24.011719 24.097656 23.792969 C 24.316406 23.574219 24.316406 23.214844 24.097656 22.996094 Z M 22.507812 21.425781 "/>
<path style=" stroke:none;fill-rule:nonzero;fill:rgb(0%,0%,0%);fill-opacity:1;" d="M 27.660156 13.371094 L 25.40625 13.371094 C 25.097656 13.371094 24.847656 13.621094 24.847656 13.917969 C 24.847656 14.222656 25.097656 14.464844 25.40625 14.464844 L 27.660156 14.464844 C 27.96875 14.464844 28.222656 14.214844 28.222656 13.917969 C 28.246094 13.613281 27.96875 13.371094 27.660156 13.371094 Z M 27.660156 13.371094 "/>
</g>
</svg>
