<?xml version="1.0" encoding="UTF-8"?>
<svg xmlns="http://www.w3.org/2000/svg" xmlns:xlink="http://www.w3.org/1999/xlink" width="28px" height="28px" viewBox="0 0 28 28" version="1.1">
<g id="surface1">
<path style=" stroke:none;fill-rule:nonzero;fill:rgb(0%,0%,0%);fill-opacity:1;" d="M 19.878906 6.1875 C 16.308594 3.03125 10.816406 3.335938 7.625 6.859375 C 4.425781 10.382812 4.730469 15.804688 8.300781 18.957031 C 8.832031 19.402344 9.386719 19.804688 10.015625 20.128906 L 10.015625 25.171875 C 10.015625 25.71875 10.464844 26.160156 11.023438 26.160156 L 12.027344 26.160156 L 12.027344 27.15625 C 12.027344 27.707031 12.480469 28.152344 13.035156 28.152344 L 15.074219 28.152344 C 15.625 28.152344 16.078125 27.707031 16.078125 27.15625 L 16.078125 26.160156 L 17.082031 26.160156 C 17.640625 26.160156 18.09375 25.71875 18.09375 25.171875 L 18.09375 20.128906 C 22.320312 17.914062 23.933594 12.726562 21.664062 8.550781 C 21.261719 7.65625 20.632812 6.859375 19.878906 6.1875 Z M 17.15625 22.136719 L 17.15625 23.132812 L 11.042969 23.132812 L 11.042969 22.136719 Z M 15.121094 27.179688 L 13.085938 27.179688 L 13.085938 26.1875 L 15.121094 26.1875 Z M 15.621094 25.171875 L 11.042969 25.171875 L 11.042969 24.175781 L 17.15625 24.175781 L 17.15625 25.171875 Z M 17.457031 19.351562 C 17.277344 19.429688 17.179688 19.597656 17.179688 19.796875 L 17.179688 21.117188 L 14.613281 21.117188 L 14.613281 18.804688 L 16 17.4375 C 16.203125 17.238281 16.203125 16.914062 16 16.714844 C 15.800781 16.519531 15.472656 16.519531 15.269531 16.714844 L 14.089844 17.886719 L 12.929688 16.746094 C 12.730469 16.546875 12.402344 16.546875 12.199219 16.746094 C 12 16.941406 12 17.265625 12.199219 17.464844 L 13.585938 18.832031 L 13.585938 21.144531 L 11.042969 21.144531 L 11.042969 19.824219 C 11.042969 19.628906 10.945312 19.449219 10.765625 19.378906 C 6.941406 17.542969 5.355469 13.023438 7.21875 9.269531 C 8.351562 6.9375 10.636719 5.371094 13.230469 5.070312 C 13.53125 5.042969 13.808594 5.019531 14.109375 5.019531 C 15.992188 5.019531 17.808594 5.691406 19.195312 6.929688 C 22.339844 9.714844 22.613281 14.484375 19.796875 17.589844 C 19.140625 18.335938 18.339844 18.929688 17.457031 19.351562 Z M 17.457031 19.351562 "/>
<path style=" stroke:none;fill-rule:nonzero;fill:rgb(0%,0%,0%);fill-opacity:1;" d="M 14.113281 3.003906 C 14.390625 3.003906 14.613281 2.78125 14.613281 2.507812 L 14.613281 0.5 C 14.613281 0.226562 14.386719 0.0078125 14.113281 0.0078125 C 13.835938 0.0078125 13.609375 0.230469 13.609375 0.5 L 13.609375 2.507812 C 13.585938 2.785156 13.808594 3.003906 14.113281 3.003906 Z M 14.113281 3.003906 "/>
<path style=" stroke:none;fill-rule:nonzero;fill:rgb(0%,0%,0%);fill-opacity:1;" d="M 6.511719 5.789062 C 6.710938 5.988281 7.039062 5.988281 7.238281 5.789062 C 7.441406 5.59375 7.441406 5.269531 7.238281 5.070312 L 5.804688 3.652344 C 5.605469 3.453125 5.277344 3.453125 5.078125 3.652344 C 4.875 3.847656 4.875 4.175781 5.078125 4.371094 Z M 6.511719 5.789062 "/>
<path style=" stroke:none;fill-rule:nonzero;fill:rgb(0%,0%,0%);fill-opacity:1;" d="M 3.898438 12.078125 L 1.863281 12.078125 C 1.585938 12.078125 1.363281 12.304688 1.363281 12.570312 C 1.363281 12.847656 1.589844 13.066406 1.863281 13.066406 L 3.898438 13.066406 C 4.175781 13.066406 4.398438 12.839844 4.398438 12.570312 C 4.398438 12.296875 4.171875 12.078125 3.898438 12.078125 Z M 3.898438 12.078125 "/>
<path style=" stroke:none;fill-rule:nonzero;fill:rgb(0%,0%,0%);fill-opacity:1;" d="M 6.511719 19.351562 L 5.078125 20.769531 C 4.875 20.96875 4.875 21.292969 5.078125 21.492188 C 5.277344 21.6875 5.605469 21.6875 5.804688 21.492188 L 7.238281 20.070312 C 7.441406 19.875 7.441406 19.550781 7.238281 19.351562 C 7.039062 19.15625 6.710938 19.15625 6.511719 19.351562 Z M 6.511719 19.351562 "/>
<path style=" stroke:none;fill-rule:nonzero;fill:rgb(0%,0%,0%);fill-opacity:1;" d="M 22.390625 3.679688 L 20.953125 5.09375 C 20.757812 5.296875 20.757812 5.617188 20.953125 5.816406 C 21.15625 6.011719 21.484375 6.011719 21.683594 5.816406 L 23.121094 4.398438 C 23.316406 4.203125 23.316406 3.878906 23.121094 3.679688 C 22.917969 3.480469 22.589844 3.480469 22.390625 3.679688 Z M 22.390625 3.679688 "/>
<path style=" stroke:none;fill-rule:nonzero;fill:rgb(0%,0%,0%);fill-opacity:1;" d="M 21.683594 19.351562 C 21.484375 19.15625 21.15625 19.15625 20.953125 19.351562 C 20.757812 19.550781 20.757812 19.875 20.953125 20.070312 L 22.390625 21.492188 C 22.589844 21.6875 22.917969 21.6875 23.121094 21.492188 C 23.316406 21.292969 23.316406 20.96875 23.121094 20.769531 Z M 21.683594 19.351562 "/>
<path style=" stroke:none;fill-rule:nonzero;fill:rgb(0%,0%,0%);fill-opacity:1;" d="M 26.339844 12.078125 L 24.300781 12.078125 C 24.023438 12.078125 23.796875 12.304688 23.796875 12.570312 C 23.796875 12.847656 24.023438 13.066406 24.300781 13.066406 L 26.339844 13.066406 C 26.617188 13.066406 26.847656 12.839844 26.847656 12.570312 C 26.867188 12.296875 26.617188 12.078125 26.339844 12.078125 Z M 26.339844 12.078125 "/>
</g>
</svg>
