<?xml version="1.0" encoding="UTF-8"?>
<svg xmlns="http://www.w3.org/2000/svg" xmlns:xlink="http://www.w3.org/1999/xlink" width="28px" height="28px" viewBox="0 0 28 38" version="1.1">
<g id="surface1">
<path style=" stroke:none;fill-rule:nonzero;fill:rgb(0%,0%,0%);fill-opacity:1;" d="M 22.980469 3.429688 C 17.308594 -1.527344 8.59375 -1.054688 3.515625 4.476562 C -1.566406 10.011719 -1.085938 18.511719 4.589844 23.464844 C 5.429688 24.171875 6.304688 24.789062 7.308594 25.296875 L 7.308594 33.210938 C 7.308594 34.074219 8.03125 34.769531 8.90625 34.769531 L 10.5 34.769531 L 10.5 36.324219 C 10.5 37.1875 11.222656 37.882812 12.097656 37.882812 L 15.332031 37.882812 C 16.214844 37.882812 16.925781 37.175781 16.925781 36.324219 L 16.925781 34.769531 L 18.523438 34.769531 C 19.40625 34.769531 20.121094 34.0625 20.121094 33.210938 L 20.121094 25.296875 C 26.835938 21.832031 29.394531 13.683594 25.792969 7.132812 C 25.148438 5.730469 24.15625 4.476562 22.949219 3.429688 Z M 18.664062 28.460938 L 18.664062 30.019531 L 8.957031 30.019531 L 8.957031 28.460938 Z M 15.429688 36.375 L 12.199219 36.375 L 12.199219 34.816406 L 15.429688 34.816406 Z M 16.234375 33.21875 L 8.964844 33.21875 L 8.964844 31.664062 L 18.671875 31.664062 L 18.671875 33.21875 Z M 19.15625 24.101562 C 18.875 24.21875 18.714844 24.496094 18.714844 24.808594 L 18.714844 26.875 L 14.636719 26.875 L 14.636719 23.25 L 16.835938 21.105469 C 17.15625 20.792969 17.15625 20.285156 16.835938 19.980469 C 16.515625 19.667969 15.992188 19.667969 15.683594 19.980469 L 13.804688 21.8125 L 11.96875 20.019531 C 11.644531 19.707031 11.125 19.707031 10.8125 20.019531 C 10.492188 20.332031 10.492188 20.84375 10.8125 21.144531 L 13.011719 23.289062 L 13.011719 26.914062 L 8.976562 26.914062 L 8.976562 24.847656 C 8.976562 24.535156 8.816406 24.257812 8.535156 24.140625 C 2.460938 21.253906 -0.0585938 14.164062 2.902344 8.277344 C 4.699219 4.613281 8.332031 2.15625 12.449219 1.6875 C 12.929688 1.648438 13.371094 1.609375 13.84375 1.609375 C 16.847656 1.609375 19.71875 2.65625 21.917969 4.613281 C 26.917969 8.984375 27.347656 16.464844 22.878906 21.339844 C 21.847656 22.507812 20.5625 23.445312 19.164062 24.113281 Z M 19.15625 24.101562 "/>
</g>
</svg>
