<?xml version="1.0" encoding="UTF-8"?>
<svg xmlns="http://www.w3.org/2000/svg" xmlns:xlink="http://www.w3.org/1999/xlink" width="28px" height="28px" viewBox="0 0 28 28" version="1.1">
<g id="surface1">
<path style=" stroke:none;fill-rule:nonzero;fill:rgb(0%,0%,0%);fill-opacity:1;" d="M 19.875 6.1875 C 16.300781 3.03125 10.816406 3.332031 7.621094 6.859375 C 4.425781 10.386719 4.726562 15.804688 8.296875 18.957031 C 8.828125 19.40625 9.382812 19.804688 10.011719 20.125 L 10.011719 25.171875 C 10.011719 25.71875 10.464844 26.160156 11.019531 26.160156 L 12.023438 26.160156 L 12.023438 27.15625 C 12.023438 27.703125 12.476562 28.152344 13.03125 28.152344 L 15.070312 28.152344 C 15.621094 28.152344 16.074219 27.703125 16.074219 27.15625 L 16.074219 26.160156 L 17.082031 26.160156 C 17.632812 26.160156 18.085938 25.71875 18.085938 25.171875 L 18.085938 20.125 C 22.3125 17.914062 23.925781 12.722656 21.660156 8.550781 C 21.257812 7.652344 20.628906 6.859375 19.875 6.1875 Z M 17.15625 22.140625 L 17.15625 23.132812 L 11.042969 23.132812 L 11.042969 22.140625 Z M 15.117188 27.179688 L 13.082031 27.179688 L 13.082031 26.191406 L 15.117188 26.191406 Z M 15.621094 25.171875 L 11.042969 25.171875 L 11.042969 24.175781 L 17.15625 24.175781 L 17.15625 25.171875 Z M 17.457031 19.355469 C 17.28125 19.429688 17.183594 19.601562 17.183594 19.804688 L 17.183594 21.121094 L 14.613281 21.121094 L 14.613281 18.808594 L 16 17.445312 C 16.203125 17.242188 16.203125 16.921875 16 16.722656 C 15.796875 16.523438 15.472656 16.523438 15.269531 16.722656 L 14.085938 17.890625 L 12.925781 16.75 C 12.726562 16.546875 12.402344 16.546875 12.195312 16.75 C 11.996094 16.945312 11.996094 17.269531 12.195312 17.46875 L 13.582031 18.832031 L 13.582031 21.144531 L 11.042969 21.144531 L 11.042969 19.828125 C 11.042969 19.632812 10.941406 19.453125 10.765625 19.378906 C 6.941406 17.542969 5.355469 13.019531 7.21875 9.269531 C 8.347656 6.933594 10.636719 5.367188 13.230469 5.070312 C 13.53125 5.046875 13.808594 5.019531 14.113281 5.019531 C 15.996094 5.019531 17.808594 5.691406 19.195312 6.933594 C 22.339844 9.714844 22.617188 14.488281 19.796875 17.589844 C 19.144531 18.339844 18.339844 18.9375 17.457031 19.355469 Z M 17.457031 19.355469 "/>
<path style=" stroke:none;fill-rule:nonzero;fill:rgb(0%,0%,0%);fill-opacity:1;" d="M 14.113281 3.007812 C 14.386719 3.007812 14.613281 2.785156 14.613281 2.507812 L 14.613281 0.496094 C 14.613281 0.226562 14.386719 0 14.113281 0 C 13.835938 0 13.609375 0.226562 13.609375 0.496094 L 13.609375 2.507812 C 13.582031 2.785156 13.808594 3.007812 14.113281 3.007812 Z M 14.113281 3.007812 "/>
<path style=" stroke:none;fill-rule:nonzero;fill:rgb(0%,0%,0%);fill-opacity:1;" d="M 6.511719 5.789062 C 6.714844 5.988281 7.042969 5.988281 7.242188 5.789062 C 7.445312 5.59375 7.445312 5.269531 7.242188 5.070312 L 5.808594 3.652344 C 5.605469 3.453125 5.28125 3.453125 5.082031 3.652344 C 4.875 3.851562 4.875 4.175781 5.082031 4.371094 Z M 6.511719 5.789062 "/>
<path style=" stroke:none;fill-rule:nonzero;fill:rgb(0%,0%,0%);fill-opacity:1;" d="M 3.894531 12.078125 L 1.859375 12.078125 C 1.582031 12.078125 1.355469 12.300781 1.355469 12.570312 C 1.355469 12.847656 1.582031 13.070312 1.859375 13.070312 L 3.894531 13.070312 C 4.175781 13.070312 4.398438 12.847656 4.398438 12.570312 C 4.398438 12.300781 4.175781 12.078125 3.894531 12.078125 Z M 3.894531 12.078125 "/>
<path style=" stroke:none;fill-rule:nonzero;fill:rgb(0%,0%,0%);fill-opacity:1;" d="M 6.511719 19.355469 L 5.082031 20.769531 C 4.875 20.972656 4.875 21.292969 5.082031 21.492188 C 5.28125 21.691406 5.605469 21.691406 5.808594 21.492188 L 7.242188 20.074219 C 7.445312 19.878906 7.445312 19.554688 7.242188 19.355469 C 7.042969 19.160156 6.714844 19.160156 6.511719 19.355469 Z M 6.511719 19.355469 "/>
<path style=" stroke:none;fill-rule:nonzero;fill:rgb(0%,0%,0%);fill-opacity:1;" d="M 22.390625 3.675781 L 20.953125 5.09375 C 20.753906 5.292969 20.753906 5.617188 20.953125 5.816406 C 21.160156 6.011719 21.484375 6.011719 21.683594 5.816406 L 23.121094 4.398438 C 23.320312 4.199219 23.320312 3.878906 23.121094 3.675781 C 22.917969 3.480469 22.589844 3.480469 22.390625 3.675781 Z M 22.390625 3.675781 "/>
<path style=" stroke:none;fill-rule:nonzero;fill:rgb(0%,0%,0%);fill-opacity:1;" d="M 21.683594 19.355469 C 21.484375 19.160156 21.160156 19.160156 20.953125 19.355469 C 20.753906 19.554688 20.753906 19.878906 20.953125 20.074219 L 22.390625 21.492188 C 22.589844 21.691406 22.917969 21.691406 23.121094 21.492188 C 23.320312 21.292969 23.320312 20.972656 23.121094 20.769531 Z M 21.683594 19.355469 "/>
<path style=" stroke:none;fill-rule:nonzero;fill:rgb(0%,0%,0%);fill-opacity:1;" d="M 26.339844 12.078125 L 24.300781 12.078125 C 24.027344 12.078125 23.796875 12.300781 23.796875 12.570312 C 23.796875 12.847656 24.023438 13.070312 24.300781 13.070312 L 26.339844 13.070312 C 26.617188 13.070312 26.847656 12.847656 26.847656 12.570312 C 26.871094 12.300781 26.621094 12.078125 26.339844 12.078125 Z M 26.339844 12.078125 "/>
<path style=" stroke:none;fill-rule:nonzero;fill:rgb(0%,0%,0%);fill-opacity:1;" d="M 12.160156 8.273438 C 12.378906 8.160156 12.644531 8.246094 12.761719 8.460938 C 12.875 8.675781 12.789062 8.941406 12.570312 9.054688 Z M 10.855469 11.847656 L 9.96875 11.847656 L 9.972656 11.703125 L 9.976562 11.5625 L 9.992188 11.417969 L 10.007812 11.277344 L 10.03125 11.136719 L 10.058594 11 L 10.089844 10.863281 L 10.125 10.730469 L 10.167969 10.59375 L 10.261719 10.335938 L 10.316406 10.210938 L 10.375 10.085938 L 10.507812 9.84375 L 10.574219 9.726562 L 10.652344 9.613281 L 10.726562 9.5 L 10.894531 9.289062 L 11.074219 9.085938 L 11.171875 8.988281 L 11.269531 8.894531 L 11.367188 8.804688 L 11.472656 8.71875 L 11.691406 8.554688 L 11.804688 8.476562 L 12.039062 8.335938 L 12.160156 8.273438 L 12.574219 9.054688 L 12.480469 9.101562 L 12.386719 9.15625 L 12.296875 9.214844 L 12.121094 9.335938 L 12.039062 9.402344 L 11.953125 9.46875 L 11.875 9.539062 L 11.796875 9.613281 L 11.722656 9.6875 L 11.582031 9.851562 L 11.515625 9.933594 L 11.453125 10.015625 L 11.332031 10.191406 L 11.226562 10.375 L 11.175781 10.472656 L 11.089844 10.667969 L 11.050781 10.769531 L 11.015625 10.867188 L 10.953125 11.078125 L 10.925781 11.183594 L 10.90625 11.289062 L 10.886719 11.398438 L 10.875 11.507812 L 10.867188 11.621094 L 10.859375 11.730469 Z M 14.046875 15 L 14.046875 15.878906 L 13.835938 15.875 L 13.628906 15.855469 L 13.429688 15.832031 L 13.222656 15.796875 L 13.03125 15.75 L 12.835938 15.695312 L 12.644531 15.632812 L 12.457031 15.558594 L 12.277344 15.476562 L 12.101562 15.390625 L 11.929688 15.292969 L 11.761719 15.1875 L 11.605469 15.074219 L 11.449219 14.957031 L 11.300781 14.828125 L 11.160156 14.695312 L 11.027344 14.558594 L 10.898438 14.414062 L 10.773438 14.261719 L 10.664062 14.101562 L 10.554688 13.9375 L 10.457031 13.769531 L 10.367188 13.59375 L 10.285156 13.414062 L 10.210938 13.230469 L 10.148438 13.042969 L 10.09375 12.851562 L 10.046875 12.660156 L 10.011719 12.457031 L 9.984375 12.257812 L 9.972656 12.050781 L 9.964844 11.847656 L 10.855469 11.847656 L 10.859375 12.011719 L 10.871094 12.167969 L 10.890625 12.328125 L 10.917969 12.484375 L 10.996094 12.78125 L 11.046875 12.929688 L 11.101562 13.070312 L 11.171875 13.214844 L 11.242188 13.347656 L 11.320312 13.480469 L 11.398438 13.609375 L 11.488281 13.730469 L 11.582031 13.851562 L 11.683594 13.964844 L 11.792969 14.074219 L 11.902344 14.179688 L 12.015625 14.277344 L 12.136719 14.371094 L 12.261719 14.457031 L 12.390625 14.542969 L 12.523438 14.617188 L 12.664062 14.6875 L 12.804688 14.75 L 12.949219 14.808594 L 13.097656 14.855469 L 13.25 14.898438 L 13.398438 14.933594 L 13.558594 14.960938 L 13.71875 14.980469 L 13.878906 14.996094 Z M 17.234375 11.847656 L 18.128906 11.847656 L 18.125 12.054688 L 18.105469 12.261719 L 18.082031 12.460938 L 18.042969 12.660156 L 18 12.851562 L 17.945312 13.046875 L 17.882812 13.234375 L 17.808594 13.417969 L 17.726562 13.59375 L 17.632812 13.769531 L 17.535156 13.941406 L 17.429688 14.101562 L 17.316406 14.261719 L 17.195312 14.414062 L 17.066406 14.558594 L 16.933594 14.699219 L 16.644531 14.957031 L 16.488281 15.074219 L 16.328125 15.1875 L 16.164062 15.292969 L 15.992188 15.390625 L 15.816406 15.480469 L 15.632812 15.5625 L 15.449219 15.632812 L 15.257812 15.695312 L 15.066406 15.75 L 14.867188 15.796875 L 14.667969 15.832031 L 14.460938 15.859375 L 14.257812 15.875 L 14.046875 15.878906 L 14.046875 15 L 14.210938 14.996094 L 14.375 14.980469 L 14.53125 14.964844 L 14.6875 14.933594 L 14.84375 14.898438 L 14.996094 14.855469 L 15.144531 14.808594 L 15.289062 14.75 L 15.429688 14.6875 L 15.566406 14.617188 L 15.699219 14.542969 L 15.832031 14.457031 L 15.953125 14.371094 L 16.074219 14.277344 L 16.191406 14.179688 L 16.300781 14.074219 L 16.410156 13.964844 L 16.507812 13.851562 L 16.605469 13.730469 L 16.691406 13.609375 L 16.777344 13.480469 L 16.851562 13.351562 L 16.921875 13.214844 L 16.984375 13.074219 L 17.042969 12.929688 L 17.09375 12.785156 L 17.136719 12.632812 L 17.171875 12.484375 L 17.199219 12.328125 L 17.222656 12.171875 L 17.230469 12.011719 Z M 15.519531 9.054688 L 15.933594 8.273438 L 16.058594 8.339844 L 16.171875 8.40625 L 16.289062 8.480469 L 16.402344 8.554688 L 16.515625 8.636719 L 16.726562 8.804688 L 16.925781 8.988281 L 17.019531 9.089844 L 17.113281 9.1875 L 17.203125 9.289062 L 17.289062 9.394531 L 17.371094 9.503906 L 17.519531 9.730469 L 17.589844 9.847656 L 17.660156 9.96875 L 17.71875 10.085938 L 17.777344 10.210938 L 17.832031 10.335938 L 17.882812 10.46875 L 17.925781 10.59375 L 17.96875 10.730469 L 18.007812 10.863281 L 18.039062 11 L 18.089844 11.277344 L 18.121094 11.558594 L 18.128906 11.703125 L 18.132812 11.847656 L 17.238281 11.847656 L 17.230469 11.621094 L 17.222656 11.507812 L 17.191406 11.289062 L 17.144531 11.078125 L 17.117188 10.972656 L 17.042969 10.769531 L 17.007812 10.664062 L 16.964844 10.570312 L 16.921875 10.472656 L 16.871094 10.375 L 16.820312 10.285156 L 16.761719 10.191406 L 16.707031 10.105469 L 16.644531 10.015625 L 16.578125 9.933594 L 16.515625 9.851562 L 16.445312 9.769531 L 16.296875 9.613281 L 16.21875 9.542969 L 16.140625 9.46875 L 16.058594 9.402344 L 15.976562 9.339844 L 15.886719 9.277344 L 15.800781 9.214844 L 15.710938 9.160156 L 15.617188 9.105469 L 15.523438 9.054688 Z M 15.519531 9.054688 C 15.304688 8.941406 15.222656 8.675781 15.332031 8.460938 C 15.445312 8.246094 15.71875 8.160156 15.933594 8.273438 Z M 15.519531 9.054688 "/>
<path style=" stroke:none;fill-rule:nonzero;fill:rgb(0%,0%,0%);fill-opacity:1;" d="M 13.601562 7.796875 C 13.601562 7.554688 13.800781 7.355469 14.050781 7.355469 C 14.292969 7.355469 14.492188 7.554688 14.492188 7.796875 Z M 13.601562 10.902344 L 13.601562 7.796875 L 14.492188 7.796875 L 14.492188 10.902344 Z M 14.492188 10.902344 C 14.492188 11.140625 14.292969 11.339844 14.046875 11.339844 C 13.800781 11.339844 13.601562 11.140625 13.601562 10.902344 Z M 14.492188 10.902344 "/>
</g>
</svg>
