<?xml version="1.0" encoding="UTF-8"?>
<svg xmlns="http://www.w3.org/2000/svg" xmlns:xlink="http://www.w3.org/1999/xlink" width="28px" height="28px" viewBox="0 0 28 31" version="1.1">
<g id="surface1">
<path style=" stroke:none;fill-rule:nonzero;fill:rgb(0%,0%,0%);fill-opacity:1;" d="M 20.503906 6.851562 C 16.546875 3.355469 10.476562 3.6875 6.9375 7.59375 C 3.398438 11.5 3.734375 17.496094 7.6875 20.988281 C 8.273438 21.484375 8.886719 21.925781 9.585938 22.28125 L 9.585938 27.867188 C 9.585938 28.472656 10.085938 28.964844 10.699219 28.964844 L 11.8125 28.964844 L 11.8125 30.066406 C 11.8125 30.671875 12.3125 31.167969 12.925781 31.167969 L 15.183594 31.167969 C 15.796875 31.167969 16.296875 30.671875 16.296875 30.066406 L 16.296875 28.964844 L 17.410156 28.964844 C 18.023438 28.964844 18.523438 28.472656 18.523438 27.867188 L 18.523438 22.28125 C 23.203125 19.832031 24.988281 14.085938 22.480469 9.464844 C 22.035156 8.472656 21.339844 7.59375 20.503906 6.851562 Z M 17.496094 24.511719 L 17.496094 25.613281 L 10.726562 25.613281 L 10.726562 24.511719 Z M 15.238281 30.09375 L 12.984375 30.09375 L 12.984375 28.996094 L 15.238281 28.996094 Z M 15.796875 27.867188 L 10.726562 27.867188 L 10.726562 26.765625 L 17.496094 26.765625 L 17.496094 27.867188 Z M 17.828125 21.429688 C 17.632812 21.511719 17.523438 21.703125 17.523438 21.925781 L 17.523438 23.382812 L 14.679688 23.382812 L 14.679688 20.824219 L 16.214844 19.3125 C 16.4375 19.089844 16.4375 18.734375 16.214844 18.515625 C 15.988281 18.292969 15.628906 18.292969 15.40625 18.515625 L 14.09375 19.808594 L 12.8125 18.542969 C 12.589844 18.320312 12.230469 18.320312 12.003906 18.542969 C 11.78125 18.761719 11.78125 19.121094 12.003906 19.339844 L 13.539062 20.851562 L 13.539062 23.410156 L 10.726562 23.410156 L 10.726562 21.953125 C 10.726562 21.734375 10.613281 21.539062 10.417969 21.457031 C 6.183594 19.421875 4.429688 14.414062 6.492188 10.261719 C 7.742188 7.675781 10.277344 5.941406 13.148438 5.613281 C 13.480469 5.585938 13.789062 5.558594 14.125 5.558594 C 16.210938 5.558594 18.21875 6.300781 19.75 7.675781 C 23.234375 10.757812 23.539062 16.039062 20.417969 19.476562 C 19.695312 20.304688 18.804688 20.964844 17.828125 21.429688 Z M 17.828125 21.429688 "/>
<path style=" stroke:none;fill-rule:nonzero;fill:rgb(0%,0%,0%);fill-opacity:1;" d="M 14.125 3.328125 C 14.429688 3.328125 14.679688 3.082031 14.679688 2.777344 L 14.679688 0.550781 C 14.679688 0.25 14.429688 0 14.125 0 C 13.816406 0 13.566406 0.25 13.566406 0.550781 L 13.566406 2.777344 C 13.539062 3.082031 13.789062 3.328125 14.125 3.328125 Z M 14.125 3.328125 "/>
<path style=" stroke:none;fill-rule:nonzero;fill:rgb(0%,0%,0%);fill-opacity:1;" d="M 5.710938 6.410156 C 5.933594 6.628906 6.296875 6.628906 6.519531 6.410156 C 6.742188 6.191406 6.742188 5.832031 6.519531 5.613281 L 4.929688 4.042969 C 4.707031 3.824219 4.347656 3.824219 4.125 4.042969 C 3.898438 4.265625 3.898438 4.621094 4.125 4.839844 Z M 5.710938 6.410156 "/>
<path style=" stroke:none;fill-rule:nonzero;fill:rgb(0%,0%,0%);fill-opacity:1;" d="M 2.8125 13.371094 L 0.558594 13.371094 C 0.25 13.371094 0 13.617188 0 13.917969 C 0 14.222656 0.25 14.46875 0.558594 14.46875 L 2.8125 14.46875 C 3.121094 14.46875 3.371094 14.222656 3.371094 13.917969 C 3.371094 13.617188 3.121094 13.371094 2.8125 13.371094 Z M 2.8125 13.371094 "/>
<path style=" stroke:none;fill-rule:nonzero;fill:rgb(0%,0%,0%);fill-opacity:1;" d="M 5.710938 21.429688 L 4.125 22.996094 C 3.898438 23.21875 3.898438 23.574219 4.125 23.796875 C 4.347656 24.015625 4.707031 24.015625 4.929688 23.796875 L 6.519531 22.226562 C 6.742188 22.007812 6.742188 21.648438 6.519531 21.429688 C 6.296875 21.210938 5.933594 21.210938 5.710938 21.429688 Z M 5.710938 21.429688 "/>
<path style=" stroke:none;fill-rule:nonzero;fill:rgb(0%,0%,0%);fill-opacity:1;" d="M 23.289062 4.070312 L 21.699219 5.640625 C 21.476562 5.859375 21.476562 6.21875 21.699219 6.4375 C 21.925781 6.65625 22.285156 6.65625 22.507812 6.4375 L 24.097656 4.871094 C 24.320312 4.648438 24.320312 4.292969 24.097656 4.070312 C 23.875 3.851562 23.511719 3.851562 23.289062 4.070312 Z M 23.289062 4.070312 "/>
<path style=" stroke:none;fill-rule:nonzero;fill:rgb(0%,0%,0%);fill-opacity:1;" d="M 22.507812 21.429688 C 22.285156 21.210938 21.925781 21.210938 21.699219 21.429688 C 21.476562 21.648438 21.476562 22.007812 21.699219 22.226562 L 23.289062 23.796875 C 23.511719 24.015625 23.875 24.015625 24.097656 23.796875 C 24.320312 23.574219 24.320312 23.21875 24.097656 22.996094 Z M 22.507812 21.429688 "/>
<path style=" stroke:none;fill-rule:nonzero;fill:rgb(0%,0%,0%);fill-opacity:1;" d="M 27.664062 13.371094 L 25.40625 13.371094 C 25.101562 13.371094 24.847656 13.617188 24.847656 13.917969 C 24.847656 14.222656 25.097656 14.46875 25.40625 14.46875 L 27.664062 14.46875 C 27.96875 14.46875 28.222656 14.222656 28.222656 13.917969 C 28.25 13.617188 27.972656 13.371094 27.664062 13.371094 Z M 27.664062 13.371094 "/>
<path style=" stroke:none;fill-rule:nonzero;fill:rgb(0%,0%,0%);fill-opacity:1;" d="M 11.960938 9.160156 C 12.203125 9.035156 12.5 9.128906 12.628906 9.367188 C 12.753906 9.605469 12.660156 9.898438 12.417969 10.023438 Z M 10.519531 13.117188 L 9.535156 13.117188 L 9.539062 12.957031 L 9.546875 12.800781 L 9.5625 12.640625 L 9.582031 12.484375 L 9.605469 12.332031 L 9.636719 12.179688 L 9.671875 12.027344 L 9.710938 11.878906 L 9.757812 11.730469 L 9.808594 11.585938 L 9.863281 11.445312 L 9.921875 11.304688 L 9.988281 11.167969 L 10.058594 11.03125 L 10.132812 10.898438 L 10.207031 10.769531 L 10.292969 10.644531 L 10.375 10.519531 L 10.5625 10.285156 L 10.660156 10.171875 L 10.761719 10.058594 L 10.867188 9.953125 L 10.976562 9.847656 L 11.085938 9.75 L 11.203125 9.652344 L 11.445312 9.472656 L 11.570312 9.386719 L 11.828125 9.230469 L 11.960938 9.160156 L 12.421875 10.023438 L 12.316406 10.078125 L 12.214844 10.136719 L 12.113281 10.203125 L 11.917969 10.335938 L 11.828125 10.410156 L 11.734375 10.484375 L 11.648438 10.5625 L 11.5625 10.644531 L 11.480469 10.726562 L 11.324219 10.90625 L 11.25 10.996094 L 11.179688 11.089844 L 11.046875 11.285156 L 10.929688 11.488281 L 10.875 11.59375 L 10.824219 11.703125 L 10.777344 11.8125 L 10.734375 11.921875 L 10.695312 12.03125 L 10.625 12.265625 L 10.597656 12.382812 L 10.574219 12.5 L 10.554688 12.621094 L 10.539062 12.742188 L 10.53125 12.867188 L 10.523438 12.988281 Z M 14.050781 16.605469 L 14.050781 17.578125 L 13.820312 17.574219 L 13.589844 17.554688 L 13.367188 17.527344 L 13.140625 17.488281 L 12.925781 17.4375 L 12.710938 17.378906 L 12.5 17.308594 L 12.292969 17.226562 L 12.09375 17.136719 L 11.898438 17.039062 L 11.707031 16.933594 L 11.523438 16.816406 L 11.347656 16.691406 L 11.175781 16.558594 L 11.011719 16.417969 L 10.855469 16.269531 L 10.707031 16.117188 L 10.566406 15.957031 L 10.429688 15.789062 L 10.304688 15.613281 L 10.1875 15.429688 L 10.078125 15.246094 L 9.976562 15.050781 L 9.886719 14.851562 L 9.804688 14.648438 L 9.734375 14.441406 L 9.675781 14.230469 L 9.625 14.015625 L 9.585938 13.792969 L 9.554688 13.570312 L 9.539062 13.34375 L 9.53125 13.117188 L 10.519531 13.117188 L 10.523438 13.296875 L 10.535156 13.472656 L 10.558594 13.648438 L 10.589844 13.820312 L 10.628906 13.988281 L 10.675781 14.152344 L 10.730469 14.316406 L 10.792969 14.472656 L 10.867188 14.628906 L 10.945312 14.777344 L 11.03125 14.925781 L 11.121094 15.066406 L 11.21875 15.203125 L 11.324219 15.335938 L 11.4375 15.460938 L 11.554688 15.582031 L 11.675781 15.699219 L 11.804688 15.808594 L 11.9375 15.910156 L 12.074219 16.007812 L 12.21875 16.101562 L 12.367188 16.183594 L 12.519531 16.261719 L 12.675781 16.332031 L 12.835938 16.394531 L 13 16.449219 L 13.167969 16.496094 L 13.335938 16.535156 L 13.511719 16.5625 L 13.6875 16.585938 L 13.867188 16.601562 Z M 17.582031 13.117188 L 18.570312 13.117188 L 18.566406 13.347656 L 18.546875 13.574219 L 18.519531 13.796875 L 18.476562 14.015625 L 18.429688 14.230469 L 18.367188 14.445312 L 18.296875 14.652344 L 18.214844 14.855469 L 18.125 15.050781 L 18.023438 15.246094 L 17.914062 15.433594 L 17.796875 15.613281 L 17.671875 15.789062 L 17.539062 15.957031 L 17.394531 16.117188 L 17.246094 16.273438 L 17.089844 16.417969 L 16.925781 16.558594 L 16.753906 16.691406 L 16.578125 16.816406 L 16.394531 16.933594 L 16.207031 17.039062 L 16.011719 17.140625 L 15.808594 17.230469 L 15.605469 17.308594 L 15.394531 17.378906 L 15.179688 17.4375 L 14.960938 17.488281 L 14.738281 17.527344 L 14.511719 17.558594 L 14.285156 17.574219 L 14.050781 17.578125 L 14.050781 16.605469 L 14.234375 16.601562 L 14.414062 16.585938 L 14.589844 16.566406 L 14.761719 16.535156 L 14.933594 16.496094 L 15.101562 16.449219 L 15.265625 16.394531 L 15.425781 16.332031 L 15.582031 16.261719 L 15.734375 16.183594 L 15.882812 16.101562 L 16.027344 16.007812 L 16.164062 15.910156 L 16.296875 15.808594 L 16.425781 15.699219 L 16.546875 15.582031 L 16.667969 15.460938 L 16.777344 15.335938 L 16.882812 15.203125 L 16.980469 15.066406 L 17.074219 14.925781 L 17.15625 14.78125 L 17.234375 14.628906 L 17.304688 14.476562 L 17.371094 14.316406 L 17.425781 14.15625 L 17.472656 13.988281 L 17.511719 13.820312 L 17.542969 13.648438 L 17.566406 13.476562 L 17.578125 13.296875 Z M 15.683594 10.023438 L 16.140625 9.160156 L 16.277344 9.234375 L 16.40625 9.308594 L 16.535156 9.390625 L 16.660156 9.472656 L 16.785156 9.5625 L 17.019531 9.75 L 17.238281 9.953125 L 17.34375 10.0625 L 17.445312 10.171875 L 17.546875 10.285156 L 17.640625 10.402344 L 17.730469 10.523438 L 17.816406 10.648438 L 17.898438 10.773438 L 17.976562 10.902344 L 18.050781 11.035156 L 18.117188 11.167969 L 18.183594 11.304688 L 18.242188 11.445312 L 18.296875 11.589844 L 18.347656 11.730469 L 18.394531 11.878906 L 18.4375 12.027344 L 18.472656 12.179688 L 18.527344 12.484375 L 18.546875 12.640625 L 18.5625 12.796875 L 18.570312 12.957031 L 18.574219 13.117188 L 17.585938 13.117188 L 17.578125 12.867188 L 17.566406 12.742188 L 17.550781 12.621094 L 17.53125 12.5 L 17.507812 12.382812 L 17.480469 12.265625 L 17.449219 12.148438 L 17.371094 11.921875 L 17.328125 11.808594 L 17.28125 11.703125 L 17.234375 11.59375 L 17.179688 11.488281 L 17.121094 11.386719 L 17.058594 11.285156 L 16.996094 11.1875 L 16.929688 11.089844 L 16.855469 10.996094 L 16.785156 10.90625 L 16.707031 10.816406 L 16.542969 10.644531 L 16.457031 10.566406 L 16.371094 10.484375 L 16.28125 10.410156 L 16.1875 10.339844 L 16.089844 10.269531 L 15.992188 10.203125 L 15.894531 10.140625 L 15.789062 10.082031 L 15.6875 10.023438 Z M 15.683594 10.023438 C 15.445312 9.898438 15.351562 9.605469 15.476562 9.367188 C 15.601562 9.128906 15.902344 9.035156 16.140625 9.160156 Z M 15.683594 10.023438 "/>
<path style=" stroke:none;fill-rule:nonzero;fill:rgb(0%,0%,0%);fill-opacity:1;" d="M 13.558594 8.632812 C 13.558594 8.363281 13.78125 8.144531 14.054688 8.144531 C 14.324219 8.144531 14.546875 8.363281 14.546875 8.632812 Z M 13.558594 12.070312 L 13.558594 8.632812 L 14.546875 8.632812 L 14.546875 12.070312 Z M 14.546875 12.070312 C 14.546875 12.335938 14.324219 12.554688 14.050781 12.554688 C 13.78125 12.554688 13.558594 12.335938 13.558594 12.070312 Z M 14.546875 12.070312 "/>
</g>
</svg>
