<?xml version="1.0" encoding="UTF-8"?>
<svg xmlns="http://www.w3.org/2000/svg" xmlns:xlink="http://www.w3.org/1999/xlink" width="28px" height="28px" viewBox="0 0 28 28" version="1.1">
<g id="surface1">
<path style=" stroke:none;fill-rule:nonzero;fill:rgb(0%,0%,0%);fill-opacity:1;" d="M 18.789062 13.128906 C 18.445312 13.128906 18.210938 12.902344 18.210938 12.5625 C 18.210938 10.40625 16.375 8.585938 14.191406 8.585938 C 13.84375 8.585938 13.617188 8.363281 13.617188 8.023438 C 13.617188 7.679688 13.84375 7.457031 14.191406 7.457031 C 17.066406 7.457031 19.363281 9.722656 19.363281 12.5625 C 19.363281 12.902344 19.132812 13.128906 18.789062 13.128906 Z M 18.789062 13.128906 "/>
<path style=" stroke:none;fill-rule:nonzero;fill:rgb(0%,0%,0%);fill-opacity:1;" d="M 19.875 6.1875 C 16.300781 3.03125 10.8125 3.332031 7.621094 6.859375 C 4.425781 10.386719 4.726562 15.804688 8.296875 18.957031 C 8.828125 19.40625 9.382812 19.804688 10.007812 20.125 L 10.007812 25.171875 C 10.007812 25.71875 10.464844 26.164062 11.019531 26.164062 L 12.023438 26.164062 L 12.023438 27.15625 C 12.023438 27.703125 12.476562 28.152344 13.03125 28.152344 L 15.070312 28.152344 C 15.621094 28.152344 16.074219 27.703125 16.074219 27.15625 L 16.074219 26.164062 L 17.082031 26.164062 C 17.632812 26.164062 18.089844 25.71875 18.089844 25.171875 L 18.089844 20.125 C 22.316406 17.917969 23.925781 12.722656 21.660156 8.550781 C 21.257812 7.652344 20.628906 6.859375 19.875 6.1875 Z M 17.15625 22.140625 L 17.15625 23.132812 L 11.042969 23.132812 L 11.042969 22.140625 Z M 15.117188 27.179688 L 13.078125 27.179688 L 13.078125 26.191406 L 15.117188 26.191406 Z M 15.621094 25.171875 L 11.042969 25.171875 L 11.042969 24.175781 L 17.15625 24.175781 L 17.15625 25.171875 Z M 17.457031 19.355469 C 17.28125 19.429688 17.183594 19.601562 17.183594 19.804688 L 17.183594 21.121094 L 14.613281 21.121094 L 14.613281 18.808594 L 16 17.445312 C 16.203125 17.242188 16.203125 16.921875 16 16.71875 C 15.800781 16.523438 15.472656 16.523438 15.269531 16.71875 L 14.089844 17.886719 L 12.929688 16.746094 C 12.730469 16.546875 12.402344 16.546875 12.199219 16.746094 C 12 16.945312 12 17.265625 12.199219 17.46875 L 13.582031 18.832031 L 13.582031 21.144531 L 11.042969 21.144531 L 11.042969 19.828125 C 11.042969 19.628906 10.941406 19.453125 10.765625 19.378906 C 6.941406 17.542969 5.355469 13.019531 7.21875 9.269531 C 8.351562 6.933594 10.640625 5.367188 13.230469 5.070312 C 13.535156 5.046875 13.808594 5.015625 14.113281 5.015625 C 16 5.015625 17.808594 5.691406 19.195312 6.933594 C 22.339844 9.714844 22.617188 14.484375 19.800781 17.589844 C 19.144531 18.335938 18.339844 18.933594 17.457031 19.355469 Z M 17.457031 19.355469 "/>
<path style=" stroke:none;fill-rule:nonzero;fill:rgb(0%,0%,0%);fill-opacity:1;" d="M 14.113281 3.007812 C 14.386719 3.007812 14.613281 2.785156 14.613281 2.507812 L 14.613281 0.496094 C 14.613281 0.226562 14.386719 0 14.113281 0 C 13.835938 0 13.609375 0.226562 13.609375 0.496094 L 13.609375 2.507812 C 13.582031 2.785156 13.808594 3.007812 14.113281 3.007812 Z M 14.113281 3.007812 "/>
<path style=" stroke:none;fill-rule:nonzero;fill:rgb(0%,0%,0%);fill-opacity:1;" d="M 6.511719 5.789062 C 6.714844 5.988281 7.042969 5.988281 7.242188 5.789062 C 7.445312 5.59375 7.445312 5.269531 7.242188 5.070312 L 5.808594 3.652344 C 5.605469 3.453125 5.28125 3.453125 5.078125 3.652344 C 4.875 3.851562 4.875 4.175781 5.078125 4.371094 Z M 6.511719 5.789062 "/>
<path style=" stroke:none;fill-rule:nonzero;fill:rgb(0%,0%,0%);fill-opacity:1;" d="M 3.894531 12.078125 L 1.859375 12.078125 C 1.582031 12.078125 1.355469 12.300781 1.355469 12.570312 C 1.355469 12.847656 1.582031 13.070312 1.859375 13.070312 L 3.894531 13.070312 C 4.175781 13.070312 4.398438 12.847656 4.398438 12.570312 C 4.398438 12.300781 4.175781 12.078125 3.894531 12.078125 Z M 3.894531 12.078125 "/>
<path style=" stroke:none;fill-rule:nonzero;fill:rgb(0%,0%,0%);fill-opacity:1;" d="M 6.511719 19.355469 L 5.078125 20.769531 C 4.875 20.972656 4.875 21.292969 5.078125 21.492188 C 5.277344 21.691406 5.605469 21.691406 5.808594 21.492188 L 7.242188 20.074219 C 7.445312 19.878906 7.445312 19.554688 7.242188 19.355469 C 7.042969 19.160156 6.714844 19.160156 6.511719 19.355469 Z M 6.511719 19.355469 "/>
<path style=" stroke:none;fill-rule:nonzero;fill:rgb(0%,0%,0%);fill-opacity:1;" d="M 22.390625 3.675781 L 20.957031 5.09375 C 20.753906 5.292969 20.753906 5.617188 20.957031 5.816406 C 21.160156 6.011719 21.484375 6.011719 21.683594 5.816406 L 23.121094 4.398438 C 23.320312 4.199219 23.320312 3.878906 23.121094 3.675781 C 22.917969 3.480469 22.589844 3.480469 22.390625 3.675781 Z M 22.390625 3.675781 "/>
<path style=" stroke:none;fill-rule:nonzero;fill:rgb(0%,0%,0%);fill-opacity:1;" d="M 21.683594 19.355469 C 21.484375 19.160156 21.160156 19.160156 20.957031 19.355469 C 20.753906 19.554688 20.753906 19.878906 20.957031 20.074219 L 22.390625 21.492188 C 22.589844 21.691406 22.917969 21.691406 23.121094 21.492188 C 23.320312 21.292969 23.320312 20.972656 23.121094 20.769531 Z M 21.683594 19.355469 "/>
<path style=" stroke:none;fill-rule:nonzero;fill:rgb(0%,0%,0%);fill-opacity:1;" d="M 26.339844 12.078125 L 24.300781 12.078125 C 24.027344 12.078125 23.796875 12.300781 23.796875 12.570312 C 23.796875 12.847656 24.027344 13.070312 24.300781 13.070312 L 26.339844 13.070312 C 26.617188 13.070312 26.84375 12.847656 26.84375 12.570312 C 26.871094 12.300781 26.617188 12.078125 26.339844 12.078125 Z M 26.339844 12.078125 "/>
</g>
</svg>
