<?xml version="1.0" encoding="UTF-8"?>
<svg xmlns="http://www.w3.org/2000/svg" xmlns:xlink="http://www.w3.org/1999/xlink" width="28px" height="28px" viewBox="0 0 28 28" version="1.1">
<g id="surface1">
<path style=" stroke:none;fill-rule:nonzero;fill:rgb(0%,0%,0%);fill-opacity:1;" d="M 27.65625 5.5 L 0.457031 5.5 C 0.207031 5.5 0 5.699219 0 5.949219 L 0 7.738281 C 0 7.984375 0.207031 8.1875 0.457031 8.1875 L 4.992188 8.1875 L 4.992188 9.53125 C 4.992188 9.777344 5.195312 9.980469 5.445312 9.980469 L 6.351562 9.980469 L 6.351562 13.492188 C 5.929688 13.242188 5.441406 13.109375 4.9375 13.109375 L 4.539062 13.109375 C 4.417969 13.109375 4.304688 13.160156 4.21875 13.242188 L 0.136719 17.269531 C 0.0585938 17.347656 0.00390625 17.460938 0.00390625 17.585938 L 0.00390625 17.976562 C 0.00390625 18.707031 0.292969 19.394531 0.816406 19.914062 C 1.339844 20.429688 2.039062 20.714844 2.78125 20.714844 L 3.179688 20.714844 C 3.304688 20.714844 3.414062 20.667969 3.5 20.585938 L 7.578125 16.558594 C 7.664062 16.476562 7.714844 16.359375 7.714844 16.242188 L 7.714844 15.851562 C 7.714844 15.308594 7.554688 14.792969 7.257812 14.351562 L 7.257812 9.984375 L 8.164062 9.984375 C 8.414062 9.984375 8.621094 9.78125 8.621094 9.535156 L 8.621094 8.191406 L 12.25 8.191406 L 12.25 9.535156 C 12.25 9.78125 12.453125 9.984375 12.703125 9.984375 L 13.609375 9.984375 L 13.609375 14.054688 C 13.09375 14.117188 12.59375 14.289062 12.152344 14.582031 L 11.542969 14.976562 C 11.417969 15.0625 11.34375 15.203125 11.34375 15.351562 L 11.34375 21.164062 C 11.34375 21.316406 11.417969 21.457031 11.542969 21.539062 L 12.152344 21.9375 C 12.71875 22.308594 13.382812 22.507812 14.066406 22.507812 C 14.75 22.507812 15.410156 22.308594 15.980469 21.9375 L 16.585938 21.539062 C 16.710938 21.457031 16.789062 21.316406 16.789062 21.164062 L 16.789062 15.351562 C 16.789062 15.203125 16.710938 15.0625 16.585938 14.976562 L 15.980469 14.582031 C 15.539062 14.289062 15.039062 14.117188 14.519531 14.054688 L 14.519531 9.984375 L 15.425781 9.984375 C 15.675781 9.984375 15.882812 9.78125 15.882812 9.535156 L 15.882812 8.191406 L 19.511719 8.191406 L 19.511719 9.535156 C 19.511719 9.78125 19.71875 9.984375 19.964844 9.984375 L 20.871094 9.984375 L 20.871094 14.351562 C 20.578125 14.792969 20.417969 15.3125 20.417969 15.851562 L 20.417969 16.242188 C 20.417969 16.359375 20.464844 16.476562 20.550781 16.558594 L 24.632812 20.585938 C 24.710938 20.664062 24.828125 20.714844 24.953125 20.714844 L 25.351562 20.714844 C 26.089844 20.714844 26.789062 20.429688 27.3125 19.914062 C 27.835938 19.398438 28.125 18.707031 28.125 17.976562 L 28.125 17.585938 C 28.125 17.460938 28.078125 17.351562 27.992188 17.269531 L 23.914062 13.242188 C 23.828125 13.160156 23.710938 13.109375 23.589844 13.109375 L 23.195312 13.109375 C 22.691406 13.109375 22.203125 13.246094 21.777344 13.492188 L 21.777344 9.980469 L 22.683594 9.980469 C 22.933594 9.980469 23.140625 9.777344 23.140625 9.53125 L 23.140625 8.1875 L 27.675781 8.1875 C 27.925781 8.1875 28.132812 7.988281 28.132812 7.738281 L 28.132812 5.949219 C 28.132812 5.703125 27.925781 5.5 27.675781 5.5 Z M 1.457031 19.277344 C 1.117188 18.941406 0.925781 18.5 0.910156 18.023438 C 1.386719 18.039062 1.835938 18.226562 2.179688 18.5625 C 2.519531 18.898438 2.710938 19.335938 2.722656 19.8125 C 2.246094 19.800781 1.800781 19.609375 1.457031 19.277344 Z M 6.804688 16.050781 L 3.558594 19.253906 C 3.441406 18.757812 3.191406 18.300781 2.816406 17.933594 C 2.441406 17.5625 1.980469 17.316406 1.476562 17.203125 L 4.722656 14 L 4.933594 14 C 5.433594 14 5.902344 14.195312 6.253906 14.542969 C 6.605469 14.890625 6.804688 15.351562 6.804688 15.84375 Z M 15.46875 21.183594 C 14.628906 21.734375 13.484375 21.734375 12.644531 21.183594 L 12.605469 21.15625 L 12.644531 21.128906 C 13.484375 20.578125 14.628906 20.578125 15.46875 21.128906 L 15.507812 21.15625 Z M 15.867188 15.582031 L 15.867188 20.332031 C 14.773438 19.667969 13.339844 19.667969 12.238281 20.332031 L 12.238281 15.582031 L 12.644531 15.316406 C 13.484375 14.765625 14.628906 14.765625 15.46875 15.316406 Z M 26.65625 19.277344 C 26.320312 19.609375 25.871094 19.800781 25.390625 19.8125 C 25.402344 19.34375 25.59375 18.902344 25.933594 18.5625 C 26.273438 18.226562 26.71875 18.039062 27.203125 18.023438 C 27.1875 18.496094 26.996094 18.9375 26.65625 19.277344 Z M 23.179688 14 L 23.390625 14 L 26.636719 17.203125 C 26.132812 17.316406 25.671875 17.5625 25.296875 17.933594 C 24.921875 18.300781 24.671875 18.757812 24.554688 19.253906 L 21.308594 16.050781 L 21.308594 15.84375 C 21.308594 15.351562 21.507812 14.890625 21.859375 14.542969 C 22.210938 14.195312 22.679688 14 23.179688 14 Z M 7.710938 9.082031 L 5.898438 9.082031 L 5.898438 8.1875 L 7.710938 8.1875 Z M 14.960938 9.082031 L 13.152344 9.082031 L 13.152344 8.1875 L 14.960938 8.1875 Z M 22.214844 9.082031 L 20.402344 9.082031 L 20.402344 8.1875 L 22.214844 8.1875 Z M 27.203125 7.292969 L 0.90625 7.292969 L 0.90625 6.398438 L 27.203125 6.398438 Z M 27.203125 7.292969 "/>
</g>
</svg>
