<?xml version="1.0" encoding="UTF-8"?>
<svg xmlns="http://www.w3.org/2000/svg" xmlns:xlink="http://www.w3.org/1999/xlink" width="28px" height="28px" viewBox="0 0 28 17" version="1.1">
<g id="surface1">
<path style=" stroke:none;fill-rule:nonzero;fill:rgb(0%,0%,0%);fill-opacity:1;" d="M 27.65625 0 L 0.457031 0 C 0.207031 0 0 0.199219 0 0.449219 L 0 2.238281 C 0 2.484375 0.207031 2.6875 0.457031 2.6875 L 4.992188 2.6875 L 4.992188 4.03125 C 4.992188 4.277344 5.195312 4.480469 5.445312 4.480469 L 6.351562 4.480469 L 6.351562 7.992188 C 5.929688 7.742188 5.441406 7.609375 4.9375 7.609375 L 4.539062 7.609375 C 4.417969 7.609375 4.304688 7.660156 4.21875 7.742188 L 0.136719 11.769531 C 0.0585938 11.847656 0.00390625 11.960938 0.00390625 12.085938 L 0.00390625 12.476562 C 0.00390625 13.207031 0.292969 13.894531 0.816406 14.414062 C 1.339844 14.929688 2.039062 15.214844 2.78125 15.214844 L 3.179688 15.214844 C 3.304688 15.214844 3.414062 15.167969 3.5 15.085938 L 7.578125 11.058594 C 7.664062 10.976562 7.714844 10.859375 7.714844 10.742188 L 7.714844 10.351562 C 7.714844 9.808594 7.554688 9.292969 7.257812 8.851562 L 7.257812 4.484375 L 8.164062 4.484375 C 8.414062 4.484375 8.621094 4.28125 8.621094 4.035156 L 8.621094 2.691406 L 12.25 2.691406 L 12.25 4.035156 C 12.25 4.28125 12.453125 4.484375 12.703125 4.484375 L 13.609375 4.484375 L 13.609375 8.554688 C 13.09375 8.617188 12.59375 8.789062 12.152344 9.082031 L 11.542969 9.476562 C 11.417969 9.5625 11.34375 9.703125 11.34375 9.851562 L 11.34375 15.664062 C 11.34375 15.816406 11.417969 15.957031 11.542969 16.039062 L 12.152344 16.4375 C 12.71875 16.808594 13.382812 17.007812 14.066406 17.007812 C 14.75 17.007812 15.410156 16.808594 15.980469 16.4375 L 16.585938 16.039062 C 16.710938 15.957031 16.789062 15.816406 16.789062 15.664062 L 16.789062 9.851562 C 16.789062 9.703125 16.710938 9.5625 16.585938 9.476562 L 15.980469 9.082031 C 15.539062 8.789062 15.039062 8.617188 14.519531 8.554688 L 14.519531 4.484375 L 15.425781 4.484375 C 15.675781 4.484375 15.882812 4.28125 15.882812 4.035156 L 15.882812 2.691406 L 19.511719 2.691406 L 19.511719 4.035156 C 19.511719 4.28125 19.71875 4.484375 19.964844 4.484375 L 20.871094 4.484375 L 20.871094 8.851562 C 20.578125 9.292969 20.417969 9.8125 20.417969 10.351562 L 20.417969 10.742188 C 20.417969 10.859375 20.464844 10.976562 20.550781 11.058594 L 24.632812 15.085938 C 24.710938 15.164062 24.828125 15.214844 24.953125 15.214844 L 25.351562 15.214844 C 26.089844 15.214844 26.789062 14.929688 27.3125 14.414062 C 27.835938 13.898438 28.125 13.207031 28.125 12.476562 L 28.125 12.085938 C 28.125 11.960938 28.078125 11.851562 27.992188 11.769531 L 23.914062 7.742188 C 23.828125 7.660156 23.710938 7.609375 23.589844 7.609375 L 23.195312 7.609375 C 22.691406 7.609375 22.203125 7.746094 21.777344 7.992188 L 21.777344 4.480469 L 22.683594 4.480469 C 22.933594 4.480469 23.140625 4.277344 23.140625 4.03125 L 23.140625 2.6875 L 27.675781 2.6875 C 27.925781 2.6875 28.132812 2.488281 28.132812 2.238281 L 28.132812 0.449219 C 28.132812 0.203125 27.925781 0 27.675781 0 Z M 1.457031 13.777344 C 1.117188 13.441406 0.925781 13 0.910156 12.523438 C 1.386719 12.539062 1.835938 12.726562 2.179688 13.0625 C 2.519531 13.398438 2.710938 13.835938 2.722656 14.3125 C 2.246094 14.300781 1.800781 14.109375 1.457031 13.777344 Z M 6.804688 10.550781 L 3.558594 13.753906 C 3.441406 13.257812 3.191406 12.800781 2.816406 12.433594 C 2.441406 12.0625 1.980469 11.816406 1.476562 11.703125 L 4.722656 8.5 L 4.933594 8.5 C 5.433594 8.5 5.902344 8.695312 6.253906 9.042969 C 6.605469 9.390625 6.804688 9.851562 6.804688 10.34375 Z M 15.46875 15.683594 C 14.628906 16.234375 13.484375 16.234375 12.644531 15.683594 L 12.605469 15.65625 L 12.644531 15.628906 C 13.484375 15.078125 14.628906 15.078125 15.46875 15.628906 L 15.507812 15.65625 Z M 15.867188 10.082031 L 15.867188 14.832031 C 14.773438 14.167969 13.339844 14.167969 12.238281 14.832031 L 12.238281 10.082031 L 12.644531 9.816406 C 13.484375 9.265625 14.628906 9.265625 15.46875 9.816406 Z M 26.65625 13.777344 C 26.320312 14.109375 25.871094 14.300781 25.390625 14.3125 C 25.402344 13.84375 25.59375 13.402344 25.933594 13.0625 C 26.273438 12.726562 26.71875 12.539062 27.203125 12.523438 C 27.1875 12.996094 26.996094 13.4375 26.65625 13.777344 Z M 23.179688 8.5 L 23.390625 8.5 L 26.636719 11.703125 C 26.132812 11.816406 25.671875 12.0625 25.296875 12.433594 C 24.921875 12.800781 24.671875 13.257812 24.554688 13.753906 L 21.308594 10.550781 L 21.308594 10.34375 C 21.308594 9.851562 21.507812 9.390625 21.859375 9.042969 C 22.210938 8.695312 22.679688 8.5 23.179688 8.5 Z M 7.710938 3.582031 L 5.898438 3.582031 L 5.898438 2.6875 L 7.710938 2.6875 Z M 14.960938 3.582031 L 13.152344 3.582031 L 13.152344 2.6875 L 14.960938 2.6875 Z M 22.214844 3.582031 L 20.402344 3.582031 L 20.402344 2.6875 L 22.214844 2.6875 Z M 27.203125 1.792969 L 0.90625 1.792969 L 0.90625 0.898438 L 27.203125 0.898438 Z M 27.203125 1.792969 "/>
</g>
</svg>
