<?xml version="1.0" encoding="UTF-8"?>
<svg xmlns="http://www.w3.org/2000/svg" xmlns:xlink="http://www.w3.org/1999/xlink" width="28px" height="28px" viewBox="0 0 28 17" version="1.1">
<g id="surface1">
<path style=" stroke:none;fill-rule:nonzero;fill:rgb(0%,0%,0%);fill-opacity:1;" d="M 7.414062 4.4375 C 7.40625 4.160156 7.167969 3.933594 6.886719 3.941406 C 6.601562 3.953125 6.371094 4.183594 6.382812 4.464844 L 6.433594 6.488281 C 6.441406 6.765625 6.679688 6.992188 6.960938 6.984375 C 7.246094 6.972656 7.472656 6.742188 7.464844 6.460938 Z M 7.414062 4.4375 "/>
<path style=" stroke:none;fill-rule:nonzero;fill:rgb(0%,0%,0%);fill-opacity:1;" d="M 15.871094 2.683594 C 20.335938 2.683594 22.429688 2.683594 27.660156 2.683594 C 27.910156 2.683594 28.113281 2.484375 28.113281 2.238281 L 28.113281 0.449219 C 28.113281 0.203125 27.910156 0 27.660156 0 L 0.453125 0 C 0.203125 0 0 0.203125 0 0.449219 L 0 2.238281 C 0 2.484375 0.203125 2.683594 0.453125 2.683594 L 4.988281 2.683594 L 4.988281 4.027344 C 4.988281 4.273438 5.191406 4.476562 5.441406 4.476562 C 7.863281 4.476562 5.421875 4.476562 8.164062 4.476562 C 8.414062 4.476562 8.617188 4.273438 8.617188 4.027344 L 8.617188 2.683594 Z M 7.710938 3.582031 L 5.894531 3.582031 L 5.894531 2.683594 L 7.710938 2.683594 Z M 27.207031 1.789062 L 0.90625 1.789062 L 0.90625 0.894531 L 27.207031 0.894531 Z M 27.207031 1.789062 "/>
<path style=" stroke:none;fill-rule:nonzero;fill:rgb(0%,0%,0%);fill-opacity:1;" d="M 12.285156 2.683594 L 16.816406 2.683594 L 16.816406 4.027344 C 16.816406 4.273438 17.019531 4.476562 17.269531 4.476562 C 19.695312 4.476562 17.253906 4.476562 19.992188 4.476562 C 20.242188 4.476562 20.445312 4.273438 20.445312 4.027344 L 20.445312 2.683594 Z M 19.539062 3.582031 L 17.722656 3.582031 L 17.722656 2.683594 L 19.539062 2.683594 Z M 19.539062 3.582031 "/>
<path style=" stroke:none;fill-rule:nonzero;fill:rgb(0%,0%,0%);fill-opacity:1;" d="M 19.289062 4.4375 C 19.28125 4.160156 19.042969 3.933594 18.761719 3.941406 C 18.476562 3.953125 18.25 4.183594 18.257812 4.464844 L 18.308594 6.488281 C 18.316406 6.765625 18.554688 6.992188 18.835938 6.984375 C 19.121094 6.972656 19.347656 6.742188 19.339844 6.460938 Z M 19.289062 4.4375 "/>
<path style=" stroke:none;fill-rule:nonzero;fill:rgb(0%,0%,0%);fill-opacity:1;" d="M 16.277344 8.464844 C 16.664062 7.777344 17.328125 7.148438 18.148438 6.691406 C 19.945312 5.699219 21.875 5.847656 22.546875 7.027344 L 25.777344 12.71875 C 26.445312 13.898438 25.566406 15.597656 23.773438 16.589844 C 23.007812 17.015625 22.175781 17.242188 21.421875 17.242188 C 21.367188 17.242188 21.316406 17.242188 21.261719 17.238281 C 20.386719 17.203125 19.714844 16.851562 19.378906 16.253906 L 16.144531 10.566406 C 15.804688 9.96875 15.855469 9.222656 16.277344 8.460938 Z M 20.164062 15.820312 C 20.40625 16.25 20.980469 16.335938 21.300781 16.351562 C 21.929688 16.378906 22.652344 16.1875 23.328125 15.8125 C 24.632812 15.09375 25.390625 13.875 24.984375 13.15625 C 24.777344 12.800781 24.316406 12.617188 23.746094 12.617188 C 23.167969 12.617188 22.476562 12.800781 21.820312 13.164062 C 21.144531 13.539062 20.605469 14.042969 20.296875 14.589844 C 20.144531 14.863281 19.921875 15.390625 20.164062 15.820312 Z M 16.933594 10.132812 L 19.371094 14.425781 C 19.410156 14.335938 19.453125 14.25 19.503906 14.160156 C 19.890625 13.472656 20.554688 12.839844 21.378906 12.386719 C 22.347656 11.847656 23.363281 11.648438 24.1875 11.761719 L 21.75 7.46875 C 21.34375 6.75 19.894531 6.753906 18.589844 7.476562 C 17.914062 7.851562 17.371094 8.359375 17.066406 8.902344 C 16.914062 9.175781 16.691406 9.703125 16.933594 10.132812 Z M 16.933594 10.132812 "/>
<path style=" stroke:none;fill-rule:nonzero;fill:rgb(0%,0%,0%);fill-opacity:1;" d="M 4.664062 8.347656 C 5.050781 7.660156 5.714844 7.027344 6.539062 6.574219 C 8.332031 5.582031 10.261719 5.730469 10.933594 6.910156 L 14.164062 12.601562 C 14.832031 13.78125 13.953125 15.480469 12.160156 16.472656 C 11.394531 16.894531 10.566406 17.125 9.808594 17.125 C 9.753906 17.125 9.703125 17.125 9.648438 17.121094 C 8.773438 17.082031 8.101562 16.734375 7.765625 16.136719 L 4.535156 10.445312 C 4.191406 9.851562 4.242188 9.105469 4.664062 8.34375 Z M 8.554688 15.703125 C 8.796875 16.132812 9.367188 16.21875 9.6875 16.234375 C 10.320312 16.261719 11.039062 16.070312 11.714844 15.695312 C 13.019531 14.972656 13.777344 13.757812 13.371094 13.039062 C 13.167969 12.679688 12.707031 12.5 12.132812 12.5 C 11.554688 12.5 10.863281 12.679688 10.210938 13.046875 C 9.535156 13.421875 8.992188 13.925781 8.6875 14.472656 C 8.53125 14.746094 8.308594 15.273438 8.554688 15.703125 Z M 5.320312 10.011719 L 7.757812 14.308594 C 7.796875 14.21875 7.84375 14.132812 7.890625 14.042969 C 8.277344 13.355469 8.945312 12.722656 9.765625 12.269531 C 10.738281 11.730469 11.75 11.527344 12.574219 11.644531 L 10.140625 7.351562 C 9.730469 6.632812 8.28125 6.636719 6.976562 7.359375 C 6.300781 7.734375 5.761719 8.238281 5.453125 8.785156 C 5.300781 9.058594 5.078125 9.585938 5.320312 10.015625 Z M 5.320312 10.011719 "/>
</g>
</svg>
