<?xml version="1.0" encoding="UTF-8"?>
<svg xmlns="http://www.w3.org/2000/svg" xmlns:xlink="http://www.w3.org/1999/xlink" width="28px" height="28px" viewBox="0 0 28 28" version="1.1">
<g id="surface1">
<path style=" stroke:none;fill-rule:nonzero;fill:rgb(0%,0%,0%);fill-opacity:1;" d="M 7.414062 9.9375 C 7.40625 9.660156 7.167969 9.433594 6.886719 9.441406 C 6.601562 9.453125 6.371094 9.683594 6.382812 9.964844 L 6.433594 11.988281 C 6.441406 12.265625 6.679688 12.492188 6.960938 12.484375 C 7.246094 12.472656 7.472656 12.242188 7.464844 11.960938 Z M 7.414062 9.9375 "/>
<path style=" stroke:none;fill-rule:nonzero;fill:rgb(0%,0%,0%);fill-opacity:1;" d="M 15.871094 8.183594 C 20.335938 8.183594 22.429688 8.183594 27.660156 8.183594 C 27.910156 8.183594 28.113281 7.984375 28.113281 7.738281 L 28.113281 5.949219 C 28.113281 5.703125 27.910156 5.5 27.660156 5.5 L 0.453125 5.5 C 0.203125 5.5 0 5.703125 0 5.949219 L 0 7.738281 C 0 7.984375 0.203125 8.183594 0.453125 8.183594 L 4.988281 8.183594 L 4.988281 9.527344 C 4.988281 9.773438 5.191406 9.976562 5.441406 9.976562 C 7.863281 9.976562 5.421875 9.976562 8.164062 9.976562 C 8.414062 9.976562 8.617188 9.773438 8.617188 9.527344 L 8.617188 8.183594 Z M 7.710938 9.082031 L 5.894531 9.082031 L 5.894531 8.183594 L 7.710938 8.183594 Z M 27.207031 7.289062 L 0.90625 7.289062 L 0.90625 6.394531 L 27.207031 6.394531 Z M 27.207031 7.289062 "/>
<path style=" stroke:none;fill-rule:nonzero;fill:rgb(0%,0%,0%);fill-opacity:1;" d="M 12.285156 8.183594 L 16.816406 8.183594 L 16.816406 9.527344 C 16.816406 9.773438 17.019531 9.976562 17.269531 9.976562 C 19.695312 9.976562 17.253906 9.976562 19.992188 9.976562 C 20.242188 9.976562 20.445312 9.773438 20.445312 9.527344 L 20.445312 8.183594 Z M 19.539062 9.082031 L 17.722656 9.082031 L 17.722656 8.183594 L 19.539062 8.183594 Z M 19.539062 9.082031 "/>
<path style=" stroke:none;fill-rule:nonzero;fill:rgb(0%,0%,0%);fill-opacity:1;" d="M 19.289062 9.9375 C 19.28125 9.660156 19.042969 9.433594 18.761719 9.441406 C 18.476562 9.453125 18.25 9.683594 18.257812 9.964844 L 18.308594 11.988281 C 18.316406 12.265625 18.554688 12.492188 18.835938 12.484375 C 19.121094 12.472656 19.347656 12.242188 19.339844 11.960938 Z M 19.289062 9.9375 "/>
<path style=" stroke:none;fill-rule:nonzero;fill:rgb(0%,0%,0%);fill-opacity:1;" d="M 16.277344 13.964844 C 16.664062 13.277344 17.328125 12.648438 18.148438 12.191406 C 19.945312 11.199219 21.875 11.347656 22.546875 12.527344 L 25.777344 18.21875 C 26.445312 19.398438 25.566406 21.097656 23.773438 22.089844 C 23.007812 22.515625 22.175781 22.742188 21.421875 22.742188 C 21.367188 22.742188 21.316406 22.742188 21.261719 22.738281 C 20.386719 22.703125 19.714844 22.351562 19.378906 21.753906 L 16.144531 16.066406 C 15.804688 15.46875 15.855469 14.722656 16.277344 13.960938 Z M 20.164062 21.320312 C 20.40625 21.75 20.980469 21.835938 21.300781 21.851562 C 21.929688 21.878906 22.652344 21.6875 23.328125 21.3125 C 24.632812 20.59375 25.390625 19.375 24.984375 18.65625 C 24.777344 18.300781 24.316406 18.117188 23.746094 18.117188 C 23.167969 18.117188 22.476562 18.300781 21.820312 18.664062 C 21.144531 19.039062 20.605469 19.542969 20.296875 20.089844 C 20.144531 20.363281 19.921875 20.890625 20.164062 21.320312 Z M 16.933594 15.632812 L 19.371094 19.925781 C 19.410156 19.835938 19.453125 19.75 19.503906 19.660156 C 19.890625 18.972656 20.554688 18.339844 21.378906 17.886719 C 22.347656 17.347656 23.363281 17.148438 24.1875 17.261719 L 21.75 12.96875 C 21.34375 12.25 19.894531 12.253906 18.589844 12.976562 C 17.914062 13.351562 17.371094 13.859375 17.066406 14.402344 C 16.914062 14.675781 16.691406 15.203125 16.933594 15.632812 Z M 16.933594 15.632812 "/>
<path style=" stroke:none;fill-rule:nonzero;fill:rgb(0%,0%,0%);fill-opacity:1;" d="M 4.664062 13.847656 C 5.050781 13.160156 5.714844 12.527344 6.539062 12.074219 C 8.332031 11.082031 10.261719 11.230469 10.933594 12.410156 L 14.164062 18.101562 C 14.832031 19.28125 13.953125 20.980469 12.160156 21.972656 C 11.394531 22.394531 10.566406 22.625 9.808594 22.625 C 9.753906 22.625 9.703125 22.625 9.648438 22.621094 C 8.773438 22.582031 8.101562 22.234375 7.765625 21.636719 L 4.535156 15.945312 C 4.191406 15.351562 4.242188 14.605469 4.664062 13.84375 Z M 8.554688 21.203125 C 8.796875 21.632812 9.367188 21.71875 9.6875 21.734375 C 10.320312 21.761719 11.039062 21.570312 11.714844 21.195312 C 13.019531 20.472656 13.777344 19.257812 13.371094 18.539062 C 13.167969 18.179688 12.707031 18 12.132812 18 C 11.554688 18 10.863281 18.179688 10.210938 18.546875 C 9.535156 18.921875 8.992188 19.425781 8.6875 19.972656 C 8.53125 20.246094 8.308594 20.773438 8.554688 21.203125 Z M 5.320312 15.511719 L 7.757812 19.808594 C 7.796875 19.71875 7.84375 19.632812 7.890625 19.542969 C 8.277344 18.855469 8.945312 18.222656 9.765625 17.769531 C 10.738281 17.230469 11.75 17.027344 12.574219 17.144531 L 10.140625 12.851562 C 9.730469 12.132812 8.28125 12.136719 6.976562 12.859375 C 6.300781 13.234375 5.761719 13.738281 5.453125 14.285156 C 5.300781 14.558594 5.078125 15.085938 5.320312 15.515625 Z M 5.320312 15.511719 "/>
</g>
</svg>
