<?xml version="1.0" encoding="UTF-8"?>
<svg xmlns="http://www.w3.org/2000/svg" xmlns:xlink="http://www.w3.org/1999/xlink" width="28px" height="28px" viewBox="0 0 28 28" version="1.1">
<g id="surface1">
<path style=" stroke:none;fill-rule:nonzero;fill:rgb(0%,0%,0%);fill-opacity:1;" d="M 15.125 8.128906 C 15.109375 7.621094 14.667969 7.207031 14.140625 7.222656 C 13.613281 7.238281 13.191406 7.667969 13.210938 8.179688 L 13.300781 11.886719 C 13.316406 12.394531 13.761719 12.210938 14.28125 12.195312 C 14.8125 12.183594 15.234375 11.753906 15.21875 11.242188 Z M 15.125 8.128906 "/>
<path style=" stroke:none;fill-rule:nonzero;fill:rgb(0%,0%,0%);fill-opacity:1;" d="M 25.648438 4.914062 C 26.117188 4.914062 26.488281 4.550781 26.488281 4.097656 L 26.488281 0.820312 C 26.488281 0.363281 26.113281 0 25.648438 0 L 2.199219 0 C 1.730469 0 1.355469 0.371094 1.355469 0.820312 L 1.355469 4.097656 C 1.355469 4.550781 1.734375 4.914062 2.199219 4.914062 L 10.621094 4.914062 L 10.621094 7.371094 C 10.621094 7.824219 11 8.191406 11.464844 8.191406 C 15.957031 8.191406 11.429688 8.191406 16.511719 8.191406 C 16.980469 8.191406 17.355469 7.820312 17.355469 7.371094 L 17.355469 4.914062 Z M 16 6.847656 L 12 6.847656 L 12 4.914062 L 16 4.914062 Z M 25.082031 3.640625 L 2.734375 3.640625 L 2.734375 1.207031 L 25.082031 1.207031 Z M 25.082031 3.640625 "/>
<path style=" stroke:none;fill-rule:nonzero;fill:rgb(0%,0%,0%);fill-opacity:1;" d="M 10.527344 14.054688 C 11.148438 12.960938 12.222656 11.960938 13.542969 11.242188 C 16.433594 9.667969 19.542969 9.898438 20.621094 11.777344 L 25.832031 20.8125 C 26.90625 22.6875 25.488281 25.390625 22.597656 26.964844 C 21.359375 27.640625 20.027344 28.003906 18.808594 28.003906 C 18.722656 28.003906 18.640625 28.003906 18.554688 28 C 17.144531 27.941406 16.066406 27.382812 15.519531 26.433594 L 10.316406 17.398438 C 9.769531 16.449219 9.84375 15.257812 10.527344 14.058594 Z M 16.792969 25.738281 C 17.1875 26.417969 18.105469 26.558594 18.621094 26.582031 C 19.636719 26.625 20.800781 26.320312 21.886719 25.726562 C 23.992188 24.582031 25.210938 22.652344 24.554688 21.507812 C 24.226562 20.941406 23.488281 20.65625 22.558594 20.65625 C 21.632812 20.65625 20.519531 20.945312 19.464844 21.519531 C 18.371094 22.113281 17.5 22.917969 17.007812 23.785156 C 16.757812 24.222656 16.398438 25.058594 16.792969 25.738281 Z M 11.589844 16.699219 L 15.515625 23.519531 C 15.582031 23.378906 15.65625 23.238281 15.730469 23.09375 C 16.351562 22 17.425781 21 18.753906 20.28125 C 20.316406 19.425781 21.945312 19.109375 23.277344 19.285156 L 19.351562 12.46875 C 18.691406 11.328125 16.363281 11.332031 14.257812 12.484375 C 13.167969 13.070312 12.296875 13.878906 11.804688 14.746094 C 11.554688 15.183594 11.195312 16.019531 11.585938 16.703125 Z M 11.589844 16.699219 "/>
</g>
</svg>
