<?xml version="1.0" encoding="UTF-8"?>
<svg xmlns="http://www.w3.org/2000/svg" xmlns:xlink="http://www.w3.org/1999/xlink" width="28px" height="28px" viewBox="0 0 28 28" version="1.1">
<g id="surface1">
<path style="fill-rule:nonzero;fill:rgb(0%,0%,0%);fill-opacity:1;stroke-width:1.82;stroke-linecap:butt;stroke-linejoin:miter;stroke:rgb(0%,0%,0%);stroke-opacity:1;stroke-miterlimit:22.9256;" d="M 86.457484 65.751903 C 86.109833 65.530671 85.793788 65.293637 85.446137 65.198823 C 85.351324 65.072405 85.351324 65.072405 85.224905 64.961789 L 54.33143 43.059816 L 57.602504 38.777396 C 57.807934 38.571966 57.807934 38.224316 57.807934 37.892468 C 57.807934 37.544817 57.602504 37.323585 57.349667 37.102353 L 55.232161 35.63274 C 56.796587 34.400162 57.91855 32.377469 57.91855 30.24416 C 57.91855 28.221467 57.144238 26.435808 55.911659 25.187427 C 55.911659 25.076811 56.022275 24.966195 56.022275 24.855579 L 56.022275 13.841384 L 77.924248 13.841384 C 78.587944 13.841384 79.04621 13.383117 79.04621 12.719421 L 79.04621 2.052876 C 79.04621 1.373378 78.587944 0.930913 77.924248 0.930913 L 23.532769 0.930913 C 22.869073 0.930913 22.410806 1.373378 22.410806 2.052876 L 22.410806 12.719421 C 22.410806 13.383117 22.869073 13.841384 23.532769 13.841384 L 45.782392 13.841384 L 45.782392 24.855579 C 45.782392 24.966195 45.782392 25.187427 45.90881 25.298043 C 45.229312 25.961739 44.660429 26.878272 44.328581 27.779003 L 42.874771 26.641238 C 42.432307 26.30939 41.752808 26.435808 41.294542 26.878272 L 38.03927 31.255506 L 35.574113 29.454045 L 34.783999 28.885163 C 33.330188 27.779003 31.418111 27.431352 29.158384 27.873816 C 23.200921 28.885163 15.441997 35.300892 9.263302 44.165976 C 0.730066 56.539169 -1.624475 69.449639 3.874721 73.495025 L 4.095953 73.732059 L 4.206569 73.826873 L 53.762548 109.002768 C 53.873164 109.113384 53.98378 109.113384 54.094396 109.113384 C 54.442046 109.666464 54.88451 110.124731 55.453393 110.456579 C 56.575355 111.246693 57.91855 111.578541 59.37236 111.578541 C 65.440439 111.578541 74.21071 105.28923 81.290135 95.159963 C 89.712755 82.707759 92.177912 69.655068 86.457484 65.736101 Z M 53.304281 34.289546 L 46.224856 29.232813 C 46.793738 26.973086 48.595199 25.408659 50.839124 25.408659 C 53.651932 25.408659 55.674625 27.431352 55.674625 30.24416 C 55.674625 31.935005 54.758092 33.499431 53.304281 34.289546 Z M 48.026317 23.844233 L 48.026317 13.952 L 53.651932 13.952 L 53.651932 23.733617 C 52.751201 23.385966 51.850471 23.164734 50.839124 23.164734 C 49.827778 23.164734 48.927047 23.385966 48.026317 23.844233 Z M 24.670534 11.597459 L 24.670534 3.159036 L 76.691669 3.159036 L 76.691669 11.597459 Z M 42.305888 29.232813 L 55.105742 38.334932 L 52.529969 41.700819 L 39.714313 32.598701 Z M 5.439148 72.041214 L 5.217916 71.930598 L 5.1073 71.819982 C 0.730066 68.548908 3.432257 56.539169 10.954147 45.540775 C 16.674575 37.102353 23.975233 31.14489 29.379616 30.24416 C 30.944042 29.912312 32.303039 30.133544 33.314386 30.923658 L 34.088698 31.476738 L 36.348425 33.041165 L 36.237809 33.041165 C 30.296149 34.052511 22.521422 40.468241 16.342727 49.333325 C 9.832184 58.783094 6.908761 68.327676 8.251955 74.300941 L 5.45495 72.041214 Z M 52.292935 105.526265 L 12.755608 77.334981 C 12.644992 77.113749 12.534376 76.987331 12.407957 76.892517 C 8.030723 73.621443 10.717112 61.595901 18.254804 50.597508 C 23.975233 42.159086 31.27589 36.201623 36.680273 35.300892 C 37.928654 35.095462 39.034814 35.206078 39.935545 35.648542 L 80.942485 64.866975 C 78.935594 65.198823 76.691669 66.099553 74.21071 67.553364 C 69.485825 70.476788 64.666127 75.312288 60.604939 81.159135 C 54.205012 90.261253 51.281588 99.584604 52.292935 105.542067 Z M 79.156826 93.958989 C 70.62359 106.221565 60.510125 111.483728 56.575355 108.686722 C 52.514167 105.873915 53.999582 94.638487 62.517016 82.391713 C 66.451786 76.766099 71.066054 72.15183 75.427486 69.370627 C 78.14548 67.66398 80.500021 66.889668 82.522714 66.889668 C 83.518258 66.889668 84.434791 67.1109 85.224905 67.679782 C 89.143873 70.381974 87.690062 81.712215 79.156826 93.958989 Z M 79.156826 93.958989 " transform="matrix(0.247195,0,0,0.247195,2.8,0.000351417)"/>
<path style="fill-rule:nonzero;fill:rgb(0%,0%,0%);fill-opacity:1;stroke-width:1.82;stroke-linecap:butt;stroke-linejoin:miter;stroke:rgb(0%,0%,0%);stroke-opacity:1;stroke-miterlimit:22.9256;" d="M 80.421009 74.42736 C 76.739076 71.9464 69.880883 77.508806 65.393033 84.114163 C 60.778764 90.735322 57.823736 99.14214 61.489867 101.623099 C 62.090354 102.097168 62.785655 102.223586 63.496758 102.223586 C 67.289307 102.223586 72.725295 97.372283 76.502042 91.936296 C 78.983001 88.507199 80.76866 84.825266 81.606181 81.633204 C 82.77555 77.271772 81.606181 75.249079 80.421009 74.42736 Z M 79.346454 81.159135 C 78.651153 84.003547 76.881297 87.432644 74.621569 90.608904 C 69.643848 97.719934 64.334279 100.785578 62.785655 99.726825 C 61.252833 98.652269 62.327388 92.631597 67.289307 85.552171 C 71.666541 79.278663 76.28081 76.197216 78.2877 76.197216 C 78.651153 76.197216 78.888187 76.323634 78.998803 76.450053 C 79.836325 76.908319 79.946941 78.804594 79.346454 81.174937 Z M 79.346454 81.159135 " transform="matrix(0.247195,0,0,0.247195,2.8,0.000351417)"/>
</g>
</svg>
