<?xml version="1.0" encoding="UTF-8"?>
<svg xmlns="http://www.w3.org/2000/svg" xmlns:xlink="http://www.w3.org/1999/xlink" width="28px" height="28px" viewBox="0 0 28 35" version="1.1">
<g id="surface1">
<path style="fill-rule:nonzero;fill:rgb(0%,0%,0%);fill-opacity:1;stroke-width:1.82;stroke-linecap:butt;stroke-linejoin:miter;stroke:rgb(0%,0%,0%);stroke-opacity:1;stroke-miterlimit:22.9256;" d="M 86.457549 65.748793 C 86.11622 65.533881 85.787532 65.293686 85.446202 65.192552 C 85.345067 65.078775 85.345067 65.078775 85.231291 64.964998 L 54.334632 43.056688 L 57.596227 38.783746 C 57.811138 38.568835 57.811138 38.227505 57.811138 37.886175 C 57.811138 37.544846 57.596227 37.329934 57.356032 37.102381 L 55.232203 35.635928 C 56.799791 34.397027 57.924915 32.374333 57.924915 30.250503 C 57.924915 28.227809 57.141121 26.432668 55.914862 25.193767 C 55.914862 25.079991 56.015997 24.966214 56.015997 24.852437 L 56.015997 13.841394 L 77.924307 13.841394 C 78.594324 13.841394 79.049431 13.386288 79.049431 12.71627 L 79.049431 2.046557 C 79.049431 1.376539 78.594324 0.934075 77.924307 0.934075 L 23.539108 0.934075 C 22.86909 0.934075 22.413984 1.376539 22.413984 2.046557 L 22.413984 12.71627 C 22.413984 13.386288 22.86909 13.841394 23.539108 13.841394 L 45.788747 13.841394 L 45.788747 24.852437 C 45.788747 24.966214 45.788747 25.193767 45.902524 25.294902 C 45.232506 25.964919 44.663624 26.875132 44.334936 27.772703 L 42.868482 26.647579 C 42.426018 26.306249 41.756 26.432668 41.300894 26.875132 L 38.039299 31.249209 L 35.57414 29.454068 L 34.777704 28.885185 C 33.323892 27.772703 31.414974 27.431373 29.164727 27.873837 C 23.197778 28.885185 15.448329 35.294598 9.266469 44.16917 C 0.733227 56.532891 -1.630797 69.452852 3.881045 73.498241 L 4.095956 73.725794 L 4.209733 73.826929 L 53.765749 108.99653 C 53.866884 109.110307 53.98066 109.110307 54.094437 109.110307 C 54.435767 109.666548 54.890873 110.121654 55.447114 110.462984 C 56.572238 111.246778 57.924915 111.575466 59.378726 111.575466 C 65.44681 111.575466 74.207606 105.292471 81.287037 95.166356 C 89.719144 82.701501 92.184303 69.655121 86.457549 65.736151 Z M 53.310643 34.295893 L 46.231212 29.226514 C 46.787453 26.976267 48.595236 25.408678 50.845484 25.408678 C 53.651972 25.408678 55.674667 27.431373 55.674667 30.237862 C 55.674667 31.931868 54.764454 33.499457 53.310643 34.295893 Z M 48.026353 23.84109 L 48.026353 13.955171 L 53.651972 13.955171 L 53.651972 23.727314 C 52.754402 23.385984 51.844189 23.171073 50.845484 23.171073 C 49.834137 23.171073 48.923924 23.385984 48.026353 23.84109 Z M 24.664231 11.591146 L 24.664231 3.159039 L 76.685406 3.159039 L 76.685406 11.591146 Z M 42.299599 29.226514 L 55.105784 38.32864 L 52.526849 41.704011 L 39.720664 32.601886 Z M 5.435992 72.044429 L 5.22108 71.930653 L 5.107304 71.816876 C 0.733227 68.555281 3.425939 56.545532 10.947834 45.534489 C 16.674588 37.102381 23.981572 31.148074 29.379638 30.250503 C 30.947226 29.909174 32.299903 30.136727 33.311251 30.920521 L 34.095045 31.476762 L 36.345292 33.04435 L 36.244158 33.04435 C 30.289851 34.055698 22.52776 40.465111 16.3459 49.339683 C 9.835352 58.783138 6.915087 68.327728 8.255122 74.294677 L 5.448633 72.044429 Z M 52.299295 105.532666 L 12.755617 77.328719 C 12.641841 77.113807 12.528064 76.987389 12.414288 76.886254 C 8.027569 73.624659 10.720281 61.602269 18.254818 50.591225 C 23.981572 42.159118 31.275914 36.204811 36.67398 35.30724 C 37.925522 35.092329 39.038004 35.206105 39.935575 35.64857 L 80.945707 64.863864 C 78.935654 65.205193 76.685406 66.102764 74.207606 67.556576 C 69.492199 70.476841 64.663016 75.306024 60.604985 81.159196 C 54.208213 90.261322 51.275306 99.591 52.299295 105.545307 Z M 79.163207 93.965381 C 70.617323 106.215325 60.50385 111.486973 56.572238 108.680484 C 52.514207 105.873995 53.993302 94.635399 62.513903 82.385455 C 66.445515 76.772478 71.059787 72.158206 75.433864 69.364359 C 78.139218 67.670352 80.503242 66.886558 82.525937 66.886558 C 83.524642 66.886558 84.434855 67.114111 85.218649 67.682994 C 89.150262 70.375706 87.683808 81.715437 79.150565 93.965381 Z M 79.163207 93.965381 " transform="matrix(0.308994,0,0,0.308994,0,0.000439271)"/>
<path style="fill-rule:nonzero;fill:rgb(0%,0%,0%);fill-opacity:1;stroke-width:1.82;stroke-linecap:butt;stroke-linejoin:miter;stroke:rgb(0%,0%,0%);stroke-opacity:1;stroke-miterlimit:22.9256;" d="M 80.414749 74.421095 C 76.735974 71.943295 69.884096 77.505704 65.396243 84.117387 C 60.781971 90.741712 57.82378 99.135894 61.489914 101.626337 C 62.08408 102.094085 62.792023 102.220503 63.499966 102.220503 C 67.292519 102.220503 72.72851 97.366036 76.508421 91.930045 C 78.986221 88.504106 80.768721 84.82533 81.603083 81.639586 C 82.778774 77.26551 81.603083 75.255457 80.414749 74.421095 Z M 79.352835 81.159196 C 78.644892 84.003611 76.875034 87.42955 74.624786 90.615293 C 69.643901 97.720008 64.334328 100.791975 62.792023 99.730061 C 61.249719 98.655504 62.324275 92.625346 67.292519 85.545915 C 71.666596 79.275562 76.280868 76.203595 78.29092 76.203595 C 78.644892 76.203595 78.885087 76.317371 78.998863 76.44379 C 79.833225 76.911538 79.947001 78.807814 79.352835 81.171838 Z M 79.352835 81.159196 " transform="matrix(0.308994,0,0,0.308994,0,0.000439271)"/>
</g>
</svg>
