<?xml version="1.0" encoding="UTF-8"?>
<svg xmlns="http://www.w3.org/2000/svg" xmlns:xlink="http://www.w3.org/1999/xlink" width="28px" height="28px" viewBox="0 0 28 22" version="1.1">
<g id="surface1">
<path style="fill-rule:nonzero;fill:rgb(0%,0%,0%);fill-opacity:1;stroke-width:14.76;stroke-linecap:butt;stroke-linejoin:miter;stroke:rgb(0%,0%,0%);stroke-opacity:1;stroke-miterlimit:22.9256;" d="M 379.133243 701.081992 C 380.927047 698.342365 382.72085 695.602737 383.617752 692.86311 C 384.642783 691.9499 384.642783 691.9499 385.539685 691.036691 L 563.12626 440.556454 L 597.721047 466.909062 C 599.64298 468.73548 602.333685 468.73548 605.024391 468.73548 C 607.843225 468.73548 609.637029 466.909062 611.430833 465.082643 L 623.346815 447.862127 C 633.340865 460.516597 649.741357 469.648689 667.03875 469.648689 C 683.439242 469.648689 698.04593 463.256225 708.03998 453.341382 C 708.936882 453.341382 709.833783 454.254592 710.730685 454.254592 L 800.036488 454.254592 L 800.036488 631.808552 C 800.036488 637.287807 803.624096 640.940644 809.133636 640.940644 L 895.748733 640.940644 C 901.130144 640.940644 904.845881 637.287807 904.845881 631.808552 L 904.845881 190.858967 C 904.845881 185.379711 901.130144 181.726875 895.748733 181.726875 L 809.133636 181.726875 C 803.624096 181.726875 800.036488 185.379711 800.036488 190.858967 L 800.036488 371.283013 L 710.730685 371.283013 C 709.833783 371.283013 708.03998 371.283013 707.143078 372.196222 C 701.633538 366.716967 694.330194 362.150921 687.02685 359.411293 L 696.123997 347.539574 C 698.942832 343.886737 698.04593 338.407482 694.330194 334.885103 L 658.838504 308.402037 L 673.445192 288.311434 L 677.929702 281.91897 C 687.02685 270.177709 689.845684 254.653152 686.129948 236.388968 C 677.929702 188.119339 626.037521 125.238363 554.029112 75.142315 C 453.832358 5.868875 349.022965 -13.17806 316.221982 31.438732 L 313.531276 34.17836 L 28.316474 435.990408 C 27.419572 436.903617 27.419572 437.816826 27.419572 438.730035 C 22.935063 441.469663 19.219326 445.1225 16.528621 449.558087 C 10.122179 458.690179 7.431473 469.648689 7.431473 481.520409 C 7.431473 530.703247 58.426752 601.803107 140.429211 659.204828 C 241.522867 727.434601 347.229161 747.525203 379.133243 701.081992 Z M 634.237767 432.337571 L 675.238996 374.93585 C 693.433292 379.501896 706.246176 393.982784 706.246176 412.246968 C 706.246176 435.077198 689.845684 451.384506 667.03875 451.384506 C 653.328964 451.384506 640.644209 444.078832 634.237767 432.337571 Z M 718.930931 389.416738 L 799.139586 389.416738 L 799.139586 435.077198 L 719.827833 435.077198 C 722.646668 427.771525 724.440471 420.465851 724.440471 412.246968 C 724.440471 404.028086 722.646668 396.722412 718.930931 389.416738 Z M 818.230784 199.991059 L 886.651585 199.991059 L 886.651585 621.76325 L 818.230784 621.76325 Z M 675.238996 342.973528 L 601.436783 446.81846 L 574.017211 425.945106 L 647.819424 322.100175 Z M 328.137964 44.223661 L 329.034866 42.397243 L 329.931768 41.484033 C 356.326309 5.868875 453.832358 27.785895 543.13816 88.840453 C 611.430833 135.283664 659.735406 194.511803 667.03875 238.215387 C 669.729456 251.000315 667.935652 261.958826 661.52921 270.177709 L 656.916572 276.439715 L 644.231816 294.703899 L 644.231816 293.790689 C 636.031571 245.52106 584.13939 182.640084 512.130981 132.544036 C 435.638062 79.708361 358.120113 55.964922 309.815539 66.923432 L 328.009835 44.223661 Z M 56.632948 424.118688 L 285.214802 103.4518 C 287.136734 102.538591 288.033636 101.625382 288.930538 100.712173 C 315.32508 65.097014 412.831128 87.014035 502.136931 148.068593 C 570.429604 194.511803 618.734177 253.739943 626.037521 297.443526 C 627.831325 307.488827 626.934423 316.620919 623.218686 323.926593 L 386.436587 656.4652 C 383.617752 640.027434 376.314408 621.76325 364.526555 601.803107 C 340.822719 563.44832 301.615294 524.310783 254.207622 491.56571 C 180.533538 439.643244 104.809393 415.899805 56.632948 424.118688 Z M 150.42326 641.853853 C 51.123408 572.580412 8.328375 490.652501 31.00718 458.690179 C 53.814114 425.945106 144.91372 437.816826 244.213572 506.959808 C 289.82744 538.92213 327.112933 576.233249 349.919867 611.848408 C 363.629653 633.63497 370.036095 652.812363 370.036095 669.250129 C 370.036095 677.338553 368.114162 684.644227 363.629653 691.036691 C 341.719621 722.999013 249.723113 711.127294 150.42326 641.853853 Z M 150.42326 641.853853 " transform="matrix(0.0304869,0,0,0.0299425,0,0.0000525797)"/>
<path style="fill-rule:nonzero;fill:rgb(0%,0%,0%);fill-opacity:1;stroke-width:14.76;stroke-linecap:butt;stroke-linejoin:miter;stroke:rgb(0%,0%,0%);stroke-opacity:1;stroke-miterlimit:22.9256;" d="M 308.021736 650.855486 C 326.472289 623.589669 285.086673 572.580412 235.885198 539.183047 C 186.683722 505.002931 124.284977 482.955452 105.706294 510.22127 C 102.246816 514.656857 101.349914 519.875195 101.349914 525.223992 C 101.349914 553.27256 137.354118 593.714682 177.842832 621.893709 C 203.340472 640.288351 230.631915 653.464656 254.335751 659.726661 C 286.880477 668.467378 301.743422 659.726661 307.893607 650.855486 Z M 257.923359 643.027979 C 236.7821 637.679182 211.28446 624.502878 187.580624 607.804196 C 134.791542 570.884452 111.856479 531.35554 119.800467 519.875195 C 127.744455 508.394851 172.58955 516.352817 225.378633 553.27256 C 271.889402 585.887175 294.824465 620.067291 294.824465 635.070013 C 294.824465 637.679182 293.927563 639.505601 293.030661 640.288351 C 289.571182 646.550357 275.47701 647.333108 257.923359 643.027979 Z M 257.923359 643.027979 " transform="matrix(0.0304869,0,0,0.0299425,0,0.0000525797)"/>
</g>
</svg>
