<?xml version="1.0" encoding="UTF-8"?>
<svg xmlns="http://www.w3.org/2000/svg" xmlns:xlink="http://www.w3.org/1999/xlink" width="28px" height="28px" viewBox="0 0 28 28" version="1.1">
<g id="surface1">
<path style="fill-rule:nonzero;fill:rgb(0%,0%,0%);fill-opacity:1;stroke-width:14.76;stroke-linecap:butt;stroke-linejoin:miter;stroke:rgb(0%,0%,0%);stroke-opacity:1;stroke-miterlimit:22.9256;" d="M 379.133128 701.08157 C 380.926931 698.341944 382.720734 695.602318 383.617636 692.862693 C 384.642666 691.949484 384.642666 691.949484 385.539568 691.036275 L 563.126089 440.556188 L 597.720865 466.908781 C 599.642797 468.735198 602.333502 468.735198 605.024207 468.735198 C 607.843041 468.735198 609.636844 466.908781 611.430647 465.082364 L 623.346626 447.861858 C 633.340673 460.51632 649.741159 469.648407 667.038548 469.648407 C 683.439034 469.648407 698.045718 463.255946 708.039765 453.341109 C 708.936666 453.341109 709.833568 454.254318 710.730469 454.254318 L 800.036245 454.254318 L 800.036245 631.808171 C 800.036245 637.287423 803.623852 640.940258 809.13339 640.940258 L 895.748461 640.940258 C 901.129871 640.940258 904.845606 637.287423 904.845606 631.808171 L 904.845606 190.858852 C 904.845606 185.3796 901.129871 181.726765 895.748461 181.726765 L 809.13339 181.726765 C 803.623852 181.726765 800.036245 185.3796 800.036245 190.858852 L 800.036245 371.282789 L 710.730469 371.282789 C 709.833568 371.282789 708.039765 371.282789 707.142863 372.195998 C 701.633324 366.716746 694.329983 362.150703 687.026641 359.411077 L 696.123786 347.539364 C 698.94262 343.88653 698.045718 338.407278 694.329983 334.884902 L 658.838304 308.401851 L 673.444988 288.311261 L 677.929496 281.9188 C 687.026641 270.177546 689.845475 254.652999 686.129739 236.388826 C 677.929496 188.119226 626.037331 125.238287 554.028944 75.14227 C 453.83222 5.868871 349.022859 -13.178052 316.221885 31.438713 L 313.531181 34.178339 L 28.316465 435.990145 C 27.419564 436.903354 27.419564 437.816562 27.419564 438.729771 C 22.935056 441.469397 19.21932 445.122232 16.528616 449.557816 C 10.122175 458.689903 7.431471 469.648407 7.431471 481.520119 C 7.431471 530.702928 58.426734 601.802744 140.429168 659.204431 C 241.522793 727.434163 347.229056 747.524753 379.133128 701.08157 Z M 634.237574 432.337311 L 675.238791 374.935624 C 693.433081 379.501667 706.245961 393.982547 706.245961 412.24672 C 706.245961 435.076936 689.845475 451.384234 667.038548 451.384234 C 653.328766 451.384234 640.644014 444.078565 634.237574 432.337311 Z M 718.930713 389.416504 L 799.139343 389.416504 L 799.139343 435.076936 L 719.827614 435.076936 C 722.646448 427.771267 724.440251 420.465598 724.440251 412.24672 C 724.440251 404.027842 722.646448 396.722173 718.930713 389.416504 Z M 818.230535 199.990938 L 886.651316 199.990938 L 886.651316 621.762876 L 818.230535 621.762876 Z M 675.238791 342.973321 L 601.436601 446.818191 L 574.017037 425.94485 L 647.819227 322.099981 Z M 328.137864 44.223634 L 329.034766 42.397217 L 329.931667 41.484008 C 356.326201 5.868871 453.83222 27.785879 543.137995 88.8404 C 611.430647 135.283583 659.735206 194.511686 667.038548 238.215243 C 669.729253 251.000164 667.935449 261.958668 661.529009 270.177546 L 656.916372 276.439548 L 644.231621 294.703721 L 644.231621 293.790512 C 636.031377 245.520912 584.139212 182.639974 512.130825 132.543957 C 435.63793 79.708313 358.120004 55.964888 309.815445 66.923392 L 328.009735 44.223634 Z M 56.632931 424.118433 L 285.214715 103.451738 C 287.136647 102.53853 288.033549 101.625321 288.93045 100.712112 C 315.324984 65.096975 412.831003 87.013982 502.136778 148.068504 C 570.42943 194.511686 618.733989 253.73979 626.037331 297.443347 C 627.831134 307.488642 626.934232 316.620729 623.218497 323.926398 L 386.436469 656.464805 C 383.617636 640.027049 376.314294 621.762876 364.526444 601.802744 C 340.822616 563.447981 301.615202 524.310467 254.207545 491.565414 C 180.533483 439.64298 104.809361 415.899555 56.632931 424.118433 Z M 150.423215 641.853466 C 51.123392 572.580067 8.328372 490.652206 31.00717 458.689903 C 53.814097 425.94485 144.913676 437.816562 244.213498 506.959503 C 289.827352 538.921806 327.112834 576.232902 349.919761 611.848039 C 363.629543 633.634589 370.035983 652.81197 370.035983 669.249726 C 370.035983 677.338145 368.114051 684.643815 363.629543 691.036275 C 341.719517 722.998578 249.723037 711.126866 150.423215 641.853466 Z M 150.423215 641.853466 " transform="matrix(0.0304869,0,0,0.0299425,0,3.000053)"/>
<path style="fill-rule:nonzero;fill:rgb(0%,0%,0%);fill-opacity:1;stroke-width:14.76;stroke-linecap:butt;stroke-linejoin:miter;stroke:rgb(0%,0%,0%);stroke-opacity:1;stroke-miterlimit:22.9256;" d="M 308.021642 650.855095 C 326.47219 623.589293 285.086586 572.580067 235.885126 539.182723 C 186.683666 505.002627 124.284939 482.955161 105.706262 510.220963 C 102.246785 514.656547 101.349883 519.874883 101.349883 525.223676 C 101.349883 553.272227 137.354077 593.714325 177.842778 621.893335 C 203.34041 640.287966 230.631845 653.464262 254.335674 659.726264 C 286.88039 668.466976 301.743331 659.726264 307.893513 650.855095 Z M 257.92328 643.027592 C 236.782028 637.678798 211.284396 624.502502 187.580567 607.80383 C 134.791501 570.884109 111.856445 531.35522 119.800431 519.874883 C 127.744416 508.394545 172.589497 516.352506 225.378564 553.272227 C 271.88932 585.886822 294.824375 620.066917 294.824375 635.069631 C 294.824375 637.678798 293.927474 639.505216 293.030572 640.287966 C 289.571094 646.549968 275.476926 647.332718 257.92328 643.027592 Z M 257.92328 643.027592 " transform="matrix(0.0304869,0,0,0.0299425,0,3.000053)"/>
</g>
</svg>
