<?xml version="1.0" encoding="UTF-8"?>
<svg xmlns="http://www.w3.org/2000/svg" xmlns:xlink="http://www.w3.org/1999/xlink" width="28px" height="28px" viewBox="0 0 28 44" version="1.1">
<g id="surface1">
<path style=" stroke:none;fill-rule:nonzero;fill:rgb(0%,0%,0%);fill-opacity:1;" d="M 13.871094 42.820312 C 10.828125 42.769531 8.199219 40.5 7.898438 37.699219 L 20.105469 37.699219 C 19.691406 40.628906 16.914062 42.882812 13.871094 42.820312 Z M 24.863281 36.105469 C 24.761719 35.957031 24.628906 35.808594 24.515625 35.675781 L 3.625 35.675781 C 3.773438 36.335938 3.890625 36.992188 3.976562 37.667969 C 4.390625 37.667969 4.824219 37.667969 5.238281 37.667969 L 5.753906 37.667969 C 6.601562 42.671875 10.511719 44.761719 13.71875 44.792969 C 15.5 44.808594 17.128906 44.367188 18.59375 43.363281 C 20.589844 41.980469 21.652344 40.039062 22.035156 37.667969 L 22.601562 37.667969 C 23.351562 37.667969 24.082031 37.667969 24.828125 37.667969 C 24.8125 37.140625 24.828125 36.613281 24.863281 36.105469 Z M 24.863281 36.105469 "/>
<path style="fill:none;stroke-width:1.46;stroke-linecap:butt;stroke-linejoin:miter;stroke:rgb(0%,0%,0%);stroke-opacity:1;stroke-miterlimit:10;" d="M 2.919533 0.729575 L 14.001076 0.729575 C 15.210698 0.729575 16.190139 1.709995 16.190139 2.920685 L 16.190139 20.091107 C 16.190139 21.299422 15.210698 22.279843 14.001076 22.279843 L 2.919533 22.279843 C 1.709912 22.279843 0.730471 21.299422 0.730471 20.091107 L 0.730471 2.920685 C 0.730471 1.709995 1.709912 0.729575 2.919533 0.729575 Z M 2.919533 0.729575 " transform="matrix(1.663098,0,0,1.645499,0,0.00261105)"/>
</g>
</svg>
