<?xml version="1.0" encoding="UTF-8"?>
<svg xmlns="http://www.w3.org/2000/svg" xmlns:xlink="http://www.w3.org/1999/xlink" width="28px" height="28px" viewBox="0 0 28 28" version="1.1">
<g id="surface1">
<path style=" stroke:none;fill-rule:nonzero;fill:rgb(0%,0%,0%);fill-opacity:1;" d="M 13.917969 27.25 C 11.980469 27.21875 10.308594 25.773438 10.117188 23.992188 L 17.886719 23.992188 C 17.621094 25.855469 15.855469 27.289062 13.917969 27.25 Z M 20.914062 22.976562 C 20.847656 22.882812 20.765625 22.789062 20.691406 22.703125 L 7.398438 22.703125 C 7.492188 23.121094 7.566406 23.539062 7.621094 23.96875 C 7.886719 23.96875 8.160156 23.96875 8.425781 23.96875 L 8.753906 23.96875 C 9.292969 27.15625 11.78125 28.484375 13.820312 28.503906 C 14.953125 28.515625 15.992188 28.234375 16.921875 27.59375 C 18.195312 26.714844 18.871094 25.480469 19.113281 23.96875 L 19.472656 23.96875 C 19.949219 23.96875 20.414062 23.96875 20.890625 23.96875 C 20.878906 23.636719 20.890625 23.300781 20.914062 22.976562 Z M 20.914062 22.976562 "/>
<path style="fill:none;stroke-width:1.46;stroke-linecap:butt;stroke-linejoin:miter;stroke:rgb(0%,0%,0%);stroke-opacity:1;stroke-miterlimit:10;" d="M 2.918526 0.729574 L 14.002415 0.729574 C 15.209352 0.729574 16.191142 1.710673 16.191142 2.919328 L 16.191142 20.090424 C 16.191142 21.299078 15.209352 22.280177 14.002415 22.280177 L 2.918526 22.280177 C 1.711589 22.280177 0.729799 21.299078 0.729799 20.090424 L 0.729799 2.919328 C 0.729799 1.710673 1.711589 0.729574 2.918526 0.729574 Z M 2.918526 0.729574 " transform="matrix(1.058335,0,0,1.047136,5.090909,0.00166158)"/>
</g>
</svg>
