<?xml version="1.0" encoding="UTF-8"?>
<svg xmlns="http://www.w3.org/2000/svg" xmlns:xlink="http://www.w3.org/1999/xlink" width="28px" height="28px" viewBox="0 0 28 16" version="1.1">
<g id="surface1">
<path style=" stroke:none;fill-rule:nonzero;fill:rgb(0%,0%,0%);fill-opacity:1;" d="M 6.984375 15.449219 C 5.949219 15.429688 5.050781 14.679688 4.949219 13.738281 L 9.113281 13.738281 C 8.96875 14.714844 8.023438 15.472656 6.988281 15.449219 Z M 10.730469 13.207031 C 10.695312 13.15625 10.65625 13.113281 10.613281 13.066406 L 3.488281 13.066406 C 3.539062 13.285156 3.578125 13.507812 3.609375 13.730469 C 3.753906 13.730469 3.898438 13.730469 4.039062 13.730469 L 4.21875 13.730469 C 4.503906 15.402344 5.835938 16.097656 6.929688 16.109375 C 7.535156 16.113281 8.097656 15.960938 8.59375 15.628906 C 9.273438 15.171875 9.632812 14.523438 9.765625 13.734375 L 9.960938 13.734375 C 10.210938 13.734375 10.464844 13.734375 10.71875 13.734375 C 10.714844 13.5625 10.71875 13.386719 10.730469 13.210938 Z M 10.730469 13.207031 "/>
<path style=" stroke:none;fill-rule:nonzero;fill:rgb(0%,0%,0%);fill-opacity:1;" d="M 10.703125 2.628906 C 10.808594 2.800781 10.867188 2.988281 10.867188 3.195312 L 10.867188 11.761719 C 10.867188 12.359375 10.359375 12.851562 9.738281 12.851562 L 4.363281 12.851562 C 3.738281 12.851562 3.234375 12.359375 3.234375 11.761719 L 3.234375 3.195312 C 3.234375 2.992188 3.292969 2.800781 3.394531 2.628906 L 2.621094 2.628906 C 2.464844 2.628906 2.324219 2.597656 2.207031 2.542969 C 2.140625 2.746094 2.101562 2.96875 2.101562 3.191406 L 2.101562 11.757812 C 2.101562 12.957031 3.113281 13.9375 4.363281 13.9375 L 9.738281 13.9375 C 10.984375 13.9375 11.992188 12.957031 11.992188 11.757812 L 11.992188 3.191406 C 11.992188 2.996094 11.964844 2.8125 11.914062 2.625 L 10.699219 2.625 Z M 10.703125 2.628906 "/>
<path style=" stroke:none;fill-rule:nonzero;fill:rgb(0%,0%,0%);fill-opacity:1;" d="M 21.28125 15.449219 C 20.242188 15.429688 19.34375 14.679688 19.238281 13.738281 L 23.402344 13.738281 C 23.261719 14.714844 22.316406 15.472656 21.28125 15.449219 Z M 25.023438 13.207031 C 24.988281 13.15625 24.949219 13.113281 24.910156 13.066406 L 17.78125 13.066406 C 17.832031 13.285156 17.878906 13.507812 17.90625 13.730469 C 18.046875 13.730469 18.191406 13.730469 18.335938 13.730469 L 18.511719 13.730469 C 18.800781 15.402344 20.132812 16.097656 21.226562 16.109375 C 21.832031 16.113281 22.386719 15.960938 22.886719 15.628906 C 23.566406 15.171875 23.929688 14.523438 24.058594 13.734375 L 24.253906 13.734375 C 24.503906 13.734375 24.757812 13.734375 25.011719 13.734375 C 25.007812 13.5625 25.011719 13.386719 25.023438 13.210938 Z M 25.023438 13.207031 "/>
<path style=" stroke:none;fill-rule:nonzero;fill:rgb(0%,0%,0%);fill-opacity:1;" d="M 25.957031 2.628906 L 24.996094 2.628906 C 25.105469 2.800781 25.160156 2.988281 25.160156 3.195312 L 25.160156 11.761719 C 25.160156 12.359375 24.65625 12.851562 24.035156 12.851562 L 18.652344 12.851562 C 18.023438 12.851562 17.523438 12.359375 17.523438 11.761719 L 17.523438 3.195312 C 17.523438 2.992188 17.582031 2.800781 17.6875 2.628906 L 16.472656 2.628906 C 16.421875 2.816406 16.390625 3 16.390625 3.195312 L 16.390625 11.761719 C 16.390625 12.960938 17.40625 13.941406 18.652344 13.941406 L 24.035156 13.941406 C 25.273438 13.941406 26.289062 12.960938 26.289062 11.761719 L 26.289062 3.195312 C 26.289062 2.992188 26.253906 2.792969 26.203125 2.605469 C 26.128906 2.621094 26.046875 2.632812 25.953125 2.632812 Z M 25.957031 2.628906 "/>
<path style=" stroke:none;fill-rule:nonzero;fill:rgb(0%,0%,0%);fill-opacity:1;" d="M 26.878906 2.289062 L 1.121094 2.289062 L 1.121094 1.085938 L 26.878906 1.085938 Z M 28 2.289062 L 28 1.085938 C 28 0.488281 27.496094 0 26.878906 0 L 1.121094 0 C 0.503906 0 0 0.488281 0 1.085938 L 0 2.289062 C 0 2.882812 0.503906 3.371094 1.121094 3.371094 L 26.878906 3.371094 C 27.496094 3.371094 28 2.882812 28 2.289062 Z M 28 2.289062 "/>
</g>
</svg>
