<?xml version="1.0" encoding="UTF-8"?>
<svg xmlns="http://www.w3.org/2000/svg" xmlns:xlink="http://www.w3.org/1999/xlink" width="28px" height="28px" viewBox="0 0 28 28" version="1.1">
<g id="surface1">
<path style=" stroke:none;fill-rule:nonzero;fill:rgb(0%,0%,0%);fill-opacity:1;" d="M 6.984375 21.449219 C 5.949219 21.429688 5.050781 20.679688 4.949219 19.738281 L 9.113281 19.738281 C 8.96875 20.714844 8.023438 21.472656 6.988281 21.449219 Z M 10.730469 19.207031 C 10.695312 19.15625 10.65625 19.113281 10.613281 19.066406 L 3.488281 19.066406 C 3.539062 19.285156 3.578125 19.507812 3.609375 19.730469 C 3.753906 19.730469 3.898438 19.730469 4.039062 19.730469 L 4.21875 19.730469 C 4.503906 21.402344 5.835938 22.097656 6.929688 22.109375 C 7.535156 22.113281 8.097656 21.960938 8.59375 21.628906 C 9.273438 21.171875 9.632812 20.523438 9.765625 19.734375 L 9.960938 19.734375 C 10.210938 19.734375 10.464844 19.734375 10.71875 19.734375 C 10.714844 19.5625 10.71875 19.386719 10.730469 19.210938 Z M 10.730469 19.207031 "/>
<path style=" stroke:none;fill-rule:nonzero;fill:rgb(0%,0%,0%);fill-opacity:1;" d="M 10.703125 8.628906 C 10.808594 8.800781 10.867188 8.988281 10.867188 9.195312 L 10.867188 17.761719 C 10.867188 18.359375 10.359375 18.851562 9.738281 18.851562 L 4.363281 18.851562 C 3.738281 18.851562 3.234375 18.359375 3.234375 17.761719 L 3.234375 9.195312 C 3.234375 8.992188 3.292969 8.800781 3.394531 8.628906 L 2.621094 8.628906 C 2.464844 8.628906 2.324219 8.597656 2.207031 8.542969 C 2.140625 8.746094 2.101562 8.96875 2.101562 9.191406 L 2.101562 17.757812 C 2.101562 18.957031 3.113281 19.9375 4.363281 19.9375 L 9.738281 19.9375 C 10.984375 19.9375 11.992188 18.957031 11.992188 17.757812 L 11.992188 9.191406 C 11.992188 8.996094 11.964844 8.8125 11.914062 8.625 L 10.699219 8.625 Z M 10.703125 8.628906 "/>
<path style=" stroke:none;fill-rule:nonzero;fill:rgb(0%,0%,0%);fill-opacity:1;" d="M 21.28125 21.449219 C 20.242188 21.429688 19.34375 20.679688 19.238281 19.738281 L 23.402344 19.738281 C 23.261719 20.714844 22.316406 21.472656 21.28125 21.449219 Z M 25.023438 19.207031 C 24.988281 19.15625 24.949219 19.113281 24.910156 19.066406 L 17.78125 19.066406 C 17.832031 19.285156 17.878906 19.507812 17.90625 19.730469 C 18.046875 19.730469 18.191406 19.730469 18.335938 19.730469 L 18.511719 19.730469 C 18.800781 21.402344 20.132812 22.097656 21.226562 22.109375 C 21.832031 22.113281 22.386719 21.960938 22.886719 21.628906 C 23.566406 21.171875 23.929688 20.523438 24.058594 19.734375 L 24.253906 19.734375 C 24.503906 19.734375 24.757812 19.734375 25.011719 19.734375 C 25.007812 19.5625 25.011719 19.386719 25.023438 19.210938 Z M 25.023438 19.207031 "/>
<path style=" stroke:none;fill-rule:nonzero;fill:rgb(0%,0%,0%);fill-opacity:1;" d="M 25.957031 8.628906 L 24.996094 8.628906 C 25.105469 8.800781 25.160156 8.988281 25.160156 9.195312 L 25.160156 17.761719 C 25.160156 18.359375 24.65625 18.851562 24.035156 18.851562 L 18.652344 18.851562 C 18.023438 18.851562 17.523438 18.359375 17.523438 17.761719 L 17.523438 9.195312 C 17.523438 8.992188 17.582031 8.800781 17.6875 8.628906 L 16.472656 8.628906 C 16.421875 8.816406 16.390625 9 16.390625 9.195312 L 16.390625 17.761719 C 16.390625 18.960938 17.40625 19.941406 18.652344 19.941406 L 24.035156 19.941406 C 25.273438 19.941406 26.289062 18.960938 26.289062 17.761719 L 26.289062 9.195312 C 26.289062 8.992188 26.253906 8.792969 26.203125 8.605469 C 26.128906 8.621094 26.046875 8.632812 25.953125 8.632812 Z M 25.957031 8.628906 "/>
<path style=" stroke:none;fill-rule:nonzero;fill:rgb(0%,0%,0%);fill-opacity:1;" d="M 26.878906 8.289062 L 1.121094 8.289062 L 1.121094 7.085938 L 26.878906 7.085938 Z M 28 8.289062 L 28 7.085938 C 28 6.488281 27.496094 6 26.878906 6 L 1.121094 6 C 0.503906 6 0 6.488281 0 7.085938 L 0 8.289062 C 0 8.882812 0.503906 9.371094 1.121094 9.371094 L 26.878906 9.371094 C 27.496094 9.371094 28 8.882812 28 8.289062 Z M 28 8.289062 "/>
</g>
</svg>
