<?xml version="1.0" encoding="UTF-8"?>
<svg xmlns="http://www.w3.org/2000/svg" xmlns:xlink="http://www.w3.org/1999/xlink" width="28px" height="28px" viewBox="0 0 28 42" version="1.1">
<g id="surface1">
<path style=" stroke:none;fill-rule:nonzero;fill:rgb(0%,0%,0%);fill-opacity:1;" d="M 14.246094 37.601562 C 13.808594 37.601562 13.46875 37.960938 13.46875 38.367188 L 13.46875 41.484375 C 13.46875 41.917969 13.820312 42.25 14.246094 42.25 C 14.6875 42.25 15.023438 41.90625 15.023438 41.484375 L 15.023438 38.382812 C 15.023438 37.949219 14.6875 37.617188 14.246094 37.585938 Z M 14.246094 37.601562 "/>
<path style=" stroke:none;fill-rule:nonzero;fill:rgb(0%,0%,0%);fill-opacity:1;" d="M 26.011719 33.269531 C 25.703125 32.964844 25.191406 32.964844 24.882812 33.269531 C 24.574219 33.574219 24.574219 34.078125 24.882812 34.382812 L 27.140625 36.578125 C 27.449219 36.878906 27.960938 36.878906 28.269531 36.578125 C 28.578125 36.273438 28.578125 35.78125 28.269531 35.464844 Z M 26.011719 33.269531 "/>
<path style=" stroke:none;fill-rule:nonzero;fill:rgb(0%,0%,0%);fill-opacity:1;" d="M 1.367188 36.578125 L 3.613281 34.382812 C 3.917969 34.078125 3.917969 33.574219 3.613281 33.269531 C 3.304688 32.964844 2.789062 32.964844 2.480469 33.269531 L 0.238281 35.464844 C -0.0703125 35.765625 -0.0703125 36.257812 0.238281 36.578125 C 0.5625 36.878906 1.058594 36.878906 1.367188 36.578125 Z M 1.367188 36.578125 "/>
<path style=" stroke:none;fill-rule:nonzero;fill:rgb(0%,0%,0%);fill-opacity:1;" d="M 14.085938 34.480469 C 11.621094 34.4375 9.496094 32.621094 9.246094 30.351562 L 19.132812 30.351562 C 18.792969 32.707031 16.550781 34.527344 14.085938 34.480469 Z M 22.988281 29.082031 C 22.902344 28.964844 22.800781 28.851562 22.710938 28.734375 L 5.796875 28.734375 C 5.914062 29.253906 6.019531 29.804688 6.078125 30.339844 C 6.414062 30.339844 6.75 30.339844 7.101562 30.339844 L 7.527344 30.339844 C 8.21875 34.367188 11.386719 36.042969 13.96875 36.070312 C 15.40625 36.085938 16.726562 35.722656 17.914062 34.914062 C 19.527344 33.804688 20.394531 32.246094 20.703125 30.339844 L 21.15625 30.339844 C 21.757812 30.339844 22.359375 30.339844 22.960938 30.339844 C 22.945312 29.90625 22.960938 29.484375 22.988281 29.082031 Z M 22.988281 29.082031 "/>
<path style="fill:none;stroke-width:1.34;stroke-linecap:butt;stroke-linejoin:miter;stroke:rgb(0%,0%,0%);stroke-opacity:1;stroke-miterlimit:10;" d="M 4.620599 0.670886 L 14.790273 0.670886 C 15.900709 0.670886 16.800774 1.569007 16.800774 2.680837 L 16.800774 18.441238 C 16.800774 19.550363 15.900709 20.451189 14.790273 20.451189 L 4.620599 20.451189 C 3.510164 20.451189 2.610098 19.550363 2.610098 18.441238 L 2.610098 2.680837 C 2.610098 1.569007 3.510164 0.670886 4.620599 0.670886 Z M 4.620599 0.670886 " transform="matrix(1.466907,0,0,1.443987,0.00325883,0)"/>
</g>
</svg>
