<?xml version="1.0" encoding="UTF-8"?>
<svg xmlns="http://www.w3.org/2000/svg" xmlns:xlink="http://www.w3.org/1999/xlink" width="28px" height="28px" viewBox="0 0 28 28" version="1.1">
<g id="surface1">
<path style=" stroke:none;fill-rule:nonzero;fill:rgb(0%,0%,0%);fill-opacity:1;" d="M 14.164062 25.066406 C 13.871094 25.066406 13.644531 25.308594 13.644531 25.578125 L 13.644531 27.65625 C 13.644531 27.945312 13.878906 28.167969 14.164062 28.167969 C 14.457031 28.167969 14.683594 27.9375 14.683594 27.65625 L 14.683594 25.589844 C 14.683594 25.300781 14.457031 25.078125 14.164062 25.058594 Z M 14.164062 25.066406 "/>
<path style=" stroke:none;fill-rule:nonzero;fill:rgb(0%,0%,0%);fill-opacity:1;" d="M 22.007812 22.179688 C 21.800781 21.976562 21.460938 21.976562 21.253906 22.179688 C 21.050781 22.382812 21.050781 22.71875 21.253906 22.921875 L 22.761719 24.386719 C 22.964844 24.585938 23.308594 24.585938 23.511719 24.386719 C 23.71875 24.183594 23.71875 23.855469 23.511719 23.644531 Z M 22.007812 22.179688 "/>
<path style=" stroke:none;fill-rule:nonzero;fill:rgb(0%,0%,0%);fill-opacity:1;" d="M 5.578125 24.386719 L 7.074219 22.921875 C 7.277344 22.71875 7.277344 22.382812 7.074219 22.179688 C 6.871094 21.976562 6.527344 21.976562 6.320312 22.179688 L 4.824219 23.644531 C 4.621094 23.84375 4.621094 24.171875 4.824219 24.386719 C 5.042969 24.585938 5.371094 24.585938 5.578125 24.386719 Z M 5.578125 24.386719 "/>
<path style=" stroke:none;fill-rule:nonzero;fill:rgb(0%,0%,0%);fill-opacity:1;" d="M 14.058594 22.988281 C 12.414062 22.957031 10.996094 21.746094 10.832031 20.234375 L 17.421875 20.234375 C 17.195312 21.804688 15.699219 23.019531 14.058594 22.988281 Z M 19.992188 19.386719 C 19.933594 19.308594 19.867188 19.234375 19.808594 19.15625 L 8.53125 19.15625 C 8.609375 19.503906 8.679688 19.871094 8.71875 20.226562 C 8.941406 20.226562 9.167969 20.226562 9.402344 20.226562 L 9.683594 20.226562 C 10.144531 22.910156 12.257812 24.027344 13.980469 24.046875 C 14.9375 24.058594 15.816406 23.816406 16.609375 23.277344 C 17.683594 22.535156 18.261719 21.496094 18.46875 20.226562 L 18.769531 20.226562 C 19.171875 20.226562 19.574219 20.226562 19.972656 20.226562 C 19.964844 19.9375 19.972656 19.65625 19.992188 19.386719 Z M 19.992188 19.386719 "/>
<path style="fill:none;stroke-width:1.34;stroke-linecap:butt;stroke-linejoin:miter;stroke:rgb(0%,0%,0%);stroke-opacity:1;stroke-miterlimit:10;" d="M 4.6206 0.669533 L 14.790276 0.669533 C 15.900712 0.669533 16.799446 1.570359 16.799446 2.68219 L 16.799446 18.442589 C 16.799446 19.550362 15.900712 20.451188 14.790276 20.451188 L 4.6206 20.451188 C 3.510165 20.451188 2.61143 19.550362 2.61143 18.442589 L 2.61143 2.68219 C 2.61143 1.570359 3.510165 0.669533 4.6206 0.669533 Z M 4.6206 0.669533 " transform="matrix(0.977938,0,0,0.962658,4.668839,0)"/>
</g>
</svg>
