<?xml version="1.0" encoding="UTF-8"?>
<svg xmlns="http://www.w3.org/2000/svg" xmlns:xlink="http://www.w3.org/1999/xlink" width="28px" height="28px" viewBox="0 0 28 19" version="1.1">
<g id="surface1">
<path style=" stroke:none;fill-rule:nonzero;fill:rgb(0%,0%,0%);fill-opacity:1;" d="M 7.058594 16.9375 C 6.871094 16.9375 6.722656 17.085938 6.722656 17.257812 L 6.722656 18.566406 C 6.722656 18.75 6.878906 18.890625 7.058594 18.890625 C 7.242188 18.890625 7.386719 18.746094 7.386719 18.566406 L 7.386719 17.269531 C 7.386719 17.085938 7.242188 16.941406 7.058594 16.9375 Z M 7.058594 16.9375 "/>
<path style=" stroke:none;fill-rule:nonzero;fill:rgb(0%,0%,0%);fill-opacity:1;" d="M 12.007812 15.121094 C 11.875 14.992188 11.664062 14.992188 11.53125 15.121094 C 11.398438 15.253906 11.398438 15.457031 11.53125 15.589844 L 12.480469 16.503906 C 12.613281 16.632812 12.824219 16.632812 12.957031 16.503906 C 13.082031 16.371094 13.082031 16.167969 12.957031 16.035156 Z M 12.007812 15.121094 "/>
<path style=" stroke:none;fill-rule:nonzero;fill:rgb(0%,0%,0%);fill-opacity:1;" d="M 1.628906 16.507812 L 2.570312 15.582031 C 2.703125 15.457031 2.703125 15.246094 2.570312 15.117188 C 2.4375 14.988281 2.226562 14.988281 2.09375 15.117188 L 1.15625 16.039062 C 1.023438 16.167969 1.023438 16.375 1.15625 16.507812 C 1.292969 16.636719 1.5 16.636719 1.628906 16.507812 Z M 1.628906 16.507812 "/>
<path style=" stroke:none;fill-rule:nonzero;fill:rgb(0%,0%,0%);fill-opacity:1;" d="M 6.984375 15.628906 C 5.949219 15.605469 5.050781 14.847656 4.949219 13.894531 L 9.109375 13.894531 C 8.964844 14.886719 8.023438 15.648438 6.984375 15.628906 Z M 10.734375 13.359375 C 10.695312 13.308594 10.660156 13.261719 10.617188 13.214844 L 3.488281 13.214844 C 3.542969 13.4375 3.582031 13.664062 3.613281 13.894531 C 3.757812 13.894531 3.898438 13.894531 4.042969 13.894531 L 4.222656 13.894531 C 4.507812 15.582031 5.839844 16.289062 6.929688 16.300781 C 7.539062 16.304688 8.097656 16.148438 8.59375 15.8125 C 9.273438 15.347656 9.636719 14.695312 9.765625 13.894531 L 9.960938 13.894531 C 10.210938 13.894531 10.464844 13.894531 10.71875 13.894531 C 10.714844 13.722656 10.71875 13.542969 10.730469 13.367188 Z M 10.734375 13.359375 "/>
<path style=" stroke:none;fill-rule:nonzero;fill:rgb(0%,0%,0%);fill-opacity:1;" d="M 10.703125 2.664062 C 10.808594 2.832031 10.871094 3.027344 10.871094 3.230469 L 10.871094 11.894531 C 10.871094 12.5 10.363281 12.996094 9.742188 12.996094 L 4.367188 12.996094 C 3.738281 12.996094 3.238281 12.5 3.238281 11.894531 L 3.238281 3.230469 C 3.238281 3.027344 3.296875 2.832031 3.394531 2.664062 L 2.628906 2.664062 C 2.46875 2.664062 2.332031 2.632812 2.214844 2.574219 C 2.144531 2.78125 2.109375 3.003906 2.109375 3.230469 L 2.109375 11.894531 C 2.109375 13.109375 3.121094 14.101562 4.371094 14.101562 L 9.746094 14.101562 C 10.992188 14.101562 12.003906 13.109375 12.003906 11.894531 L 12.003906 3.230469 C 12.003906 3.03125 11.976562 2.847656 11.925781 2.664062 Z M 10.703125 2.664062 "/>
<path style=" stroke:none;fill-rule:nonzero;fill:rgb(0%,0%,0%);fill-opacity:1;" d="M 21.347656 16.9375 C 21.164062 16.9375 21.019531 17.085938 21.019531 17.257812 L 21.019531 18.566406 C 21.019531 18.75 21.167969 18.890625 21.347656 18.890625 C 21.535156 18.890625 21.679688 18.746094 21.679688 18.566406 L 21.679688 17.269531 C 21.679688 17.085938 21.535156 16.941406 21.347656 16.9375 Z M 21.347656 16.9375 "/>
<path style=" stroke:none;fill-rule:nonzero;fill:rgb(0%,0%,0%);fill-opacity:1;" d="M 26.304688 15.121094 C 26.171875 14.992188 25.960938 14.992188 25.828125 15.121094 C 25.703125 15.253906 25.703125 15.457031 25.828125 15.589844 L 26.777344 16.503906 C 26.910156 16.632812 27.121094 16.632812 27.253906 16.503906 C 27.386719 16.371094 27.386719 16.167969 27.253906 16.035156 Z M 26.304688 15.121094 "/>
<path style=" stroke:none;fill-rule:nonzero;fill:rgb(0%,0%,0%);fill-opacity:1;" d="M 15.921875 16.507812 L 16.863281 15.582031 C 16.996094 15.457031 16.996094 15.246094 16.863281 15.117188 C 16.730469 14.988281 16.519531 14.988281 16.386719 15.117188 L 15.449219 16.039062 C 15.316406 16.167969 15.316406 16.375 15.449219 16.507812 C 15.585938 16.636719 15.792969 16.636719 15.921875 16.507812 Z M 15.921875 16.507812 "/>
<path style=" stroke:none;fill-rule:nonzero;fill:rgb(0%,0%,0%);fill-opacity:1;" d="M 21.28125 15.628906 C 20.242188 15.605469 19.339844 14.847656 19.238281 13.894531 L 23.402344 13.894531 C 23.257812 14.886719 22.316406 15.648438 21.28125 15.628906 Z M 25.023438 13.359375 C 24.988281 13.308594 24.953125 13.261719 24.910156 13.214844 L 17.78125 13.214844 C 17.835938 13.4375 17.878906 13.664062 17.90625 13.894531 C 18.046875 13.894531 18.191406 13.894531 18.335938 13.894531 L 18.515625 13.894531 C 18.800781 15.582031 20.136719 16.289062 21.230469 16.300781 C 21.835938 16.304688 22.390625 16.148438 22.890625 15.8125 C 23.570312 15.347656 23.933594 14.695312 24.0625 13.894531 L 24.257812 13.894531 C 24.507812 13.894531 24.761719 13.894531 25.015625 13.894531 C 25.007812 13.722656 25.015625 13.542969 25.023438 13.367188 Z M 25.023438 13.359375 "/>
<path style=" stroke:none;fill-rule:nonzero;fill:rgb(0%,0%,0%);fill-opacity:1;" d="M 25.957031 2.664062 L 24.996094 2.664062 C 25.101562 2.832031 25.160156 3.027344 25.160156 3.230469 L 25.160156 11.894531 C 25.160156 12.5 24.65625 12.996094 24.035156 12.996094 L 18.65625 12.996094 C 18.027344 12.996094 17.527344 12.5 17.527344 11.894531 L 17.527344 3.230469 C 17.527344 3.027344 17.585938 2.832031 17.691406 2.664062 L 16.480469 2.664062 C 16.429688 2.847656 16.398438 3.035156 16.398438 3.230469 L 16.398438 11.894531 C 16.398438 13.109375 17.410156 14.101562 18.660156 14.101562 L 24.039062 14.101562 C 25.28125 14.101562 26.292969 13.109375 26.292969 11.894531 L 26.292969 3.230469 C 26.292969 3.027344 26.261719 2.820312 26.210938 2.632812 C 26.136719 2.652344 26.050781 2.664062 25.960938 2.664062 Z M 25.957031 2.664062 "/>
<path style=" stroke:none;fill-rule:nonzero;fill:rgb(0%,0%,0%);fill-opacity:1;" d="M 26.882812 2.3125 L 1.121094 2.3125 L 1.121094 1.097656 L 26.882812 1.097656 Z M 28 2.3125 L 28 1.097656 C 28 0.496094 27.496094 0 26.882812 0 L 1.121094 0 C 0.503906 0 0.00390625 0.496094 0.00390625 1.097656 L 0.00390625 2.3125 C 0.00390625 2.917969 0.507812 3.40625 1.121094 3.40625 L 26.882812 3.40625 C 27.496094 3.40625 28 2.914062 28 2.3125 Z M 28 2.3125 "/>
</g>
</svg>
