<?xml version="1.0" encoding="UTF-8"?>
<svg xmlns="http://www.w3.org/2000/svg" xmlns:xlink="http://www.w3.org/1999/xlink" width="28px" height="28px" viewBox="0 0 28 28" version="1.1">
<g id="surface1">
<path style=" stroke:none;fill-rule:nonzero;fill:rgb(0%,0%,0%);fill-opacity:1;" d="M 7.058594 21.4375 C 6.871094 21.4375 6.722656 21.585938 6.722656 21.757812 L 6.722656 23.066406 C 6.722656 23.25 6.878906 23.390625 7.058594 23.390625 C 7.242188 23.390625 7.386719 23.246094 7.386719 23.066406 L 7.386719 21.769531 C 7.386719 21.585938 7.242188 21.441406 7.058594 21.4375 Z M 7.058594 21.4375 "/>
<path style=" stroke:none;fill-rule:nonzero;fill:rgb(0%,0%,0%);fill-opacity:1;" d="M 12.007812 19.621094 C 11.875 19.492188 11.664062 19.492188 11.53125 19.621094 C 11.398438 19.753906 11.398438 19.957031 11.53125 20.089844 L 12.480469 21.003906 C 12.613281 21.132812 12.824219 21.132812 12.957031 21.003906 C 13.082031 20.871094 13.082031 20.667969 12.957031 20.535156 Z M 12.007812 19.621094 "/>
<path style=" stroke:none;fill-rule:nonzero;fill:rgb(0%,0%,0%);fill-opacity:1;" d="M 1.628906 21.007812 L 2.570312 20.082031 C 2.703125 19.957031 2.703125 19.746094 2.570312 19.617188 C 2.4375 19.488281 2.226562 19.488281 2.09375 19.617188 L 1.15625 20.539062 C 1.023438 20.667969 1.023438 20.875 1.15625 21.007812 C 1.292969 21.136719 1.5 21.136719 1.628906 21.007812 Z M 1.628906 21.007812 "/>
<path style=" stroke:none;fill-rule:nonzero;fill:rgb(0%,0%,0%);fill-opacity:1;" d="M 6.984375 20.128906 C 5.949219 20.105469 5.050781 19.347656 4.949219 18.394531 L 9.109375 18.394531 C 8.964844 19.386719 8.023438 20.148438 6.984375 20.128906 Z M 10.734375 17.859375 C 10.695312 17.808594 10.660156 17.761719 10.617188 17.714844 L 3.488281 17.714844 C 3.542969 17.9375 3.582031 18.164062 3.613281 18.394531 C 3.757812 18.394531 3.898438 18.394531 4.042969 18.394531 L 4.222656 18.394531 C 4.507812 20.082031 5.839844 20.789062 6.929688 20.800781 C 7.539062 20.804688 8.097656 20.648438 8.59375 20.3125 C 9.273438 19.847656 9.636719 19.195312 9.765625 18.394531 L 9.960938 18.394531 C 10.210938 18.394531 10.464844 18.394531 10.71875 18.394531 C 10.714844 18.222656 10.71875 18.042969 10.730469 17.867188 Z M 10.734375 17.859375 "/>
<path style=" stroke:none;fill-rule:nonzero;fill:rgb(0%,0%,0%);fill-opacity:1;" d="M 10.703125 7.164062 C 10.808594 7.332031 10.871094 7.527344 10.871094 7.730469 L 10.871094 16.394531 C 10.871094 17 10.363281 17.496094 9.742188 17.496094 L 4.367188 17.496094 C 3.738281 17.496094 3.238281 17 3.238281 16.394531 L 3.238281 7.730469 C 3.238281 7.527344 3.296875 7.332031 3.394531 7.164062 L 2.628906 7.164062 C 2.46875 7.164062 2.332031 7.132812 2.214844 7.074219 C 2.144531 7.28125 2.109375 7.503906 2.109375 7.730469 L 2.109375 16.394531 C 2.109375 17.609375 3.121094 18.601562 4.371094 18.601562 L 9.746094 18.601562 C 10.992188 18.601562 12.003906 17.609375 12.003906 16.394531 L 12.003906 7.730469 C 12.003906 7.53125 11.976562 7.347656 11.925781 7.164062 Z M 10.703125 7.164062 "/>
<path style=" stroke:none;fill-rule:nonzero;fill:rgb(0%,0%,0%);fill-opacity:1;" d="M 21.347656 21.4375 C 21.164062 21.4375 21.019531 21.585938 21.019531 21.757812 L 21.019531 23.066406 C 21.019531 23.25 21.167969 23.390625 21.347656 23.390625 C 21.535156 23.390625 21.679688 23.246094 21.679688 23.066406 L 21.679688 21.769531 C 21.679688 21.585938 21.535156 21.441406 21.347656 21.4375 Z M 21.347656 21.4375 "/>
<path style=" stroke:none;fill-rule:nonzero;fill:rgb(0%,0%,0%);fill-opacity:1;" d="M 26.304688 19.621094 C 26.171875 19.492188 25.960938 19.492188 25.828125 19.621094 C 25.703125 19.753906 25.703125 19.957031 25.828125 20.089844 L 26.777344 21.003906 C 26.910156 21.132812 27.121094 21.132812 27.253906 21.003906 C 27.386719 20.871094 27.386719 20.667969 27.253906 20.535156 Z M 26.304688 19.621094 "/>
<path style=" stroke:none;fill-rule:nonzero;fill:rgb(0%,0%,0%);fill-opacity:1;" d="M 15.921875 21.007812 L 16.863281 20.082031 C 16.996094 19.957031 16.996094 19.746094 16.863281 19.617188 C 16.730469 19.488281 16.519531 19.488281 16.386719 19.617188 L 15.449219 20.539062 C 15.316406 20.667969 15.316406 20.875 15.449219 21.007812 C 15.585938 21.136719 15.792969 21.136719 15.921875 21.007812 Z M 15.921875 21.007812 "/>
<path style=" stroke:none;fill-rule:nonzero;fill:rgb(0%,0%,0%);fill-opacity:1;" d="M 21.28125 20.128906 C 20.242188 20.105469 19.339844 19.347656 19.238281 18.394531 L 23.402344 18.394531 C 23.257812 19.386719 22.316406 20.148438 21.28125 20.128906 Z M 25.023438 17.859375 C 24.988281 17.808594 24.953125 17.761719 24.910156 17.714844 L 17.78125 17.714844 C 17.835938 17.9375 17.878906 18.164062 17.90625 18.394531 C 18.046875 18.394531 18.191406 18.394531 18.335938 18.394531 L 18.515625 18.394531 C 18.800781 20.082031 20.136719 20.789062 21.230469 20.800781 C 21.835938 20.804688 22.390625 20.648438 22.890625 20.3125 C 23.570312 19.847656 23.933594 19.195312 24.0625 18.394531 L 24.257812 18.394531 C 24.507812 18.394531 24.761719 18.394531 25.015625 18.394531 C 25.007812 18.222656 25.015625 18.042969 25.023438 17.867188 Z M 25.023438 17.859375 "/>
<path style=" stroke:none;fill-rule:nonzero;fill:rgb(0%,0%,0%);fill-opacity:1;" d="M 25.957031 7.164062 L 24.996094 7.164062 C 25.101562 7.332031 25.160156 7.527344 25.160156 7.730469 L 25.160156 16.394531 C 25.160156 17 24.65625 17.496094 24.035156 17.496094 L 18.65625 17.496094 C 18.027344 17.496094 17.527344 17 17.527344 16.394531 L 17.527344 7.730469 C 17.527344 7.527344 17.585938 7.332031 17.691406 7.164062 L 16.480469 7.164062 C 16.429688 7.347656 16.398438 7.535156 16.398438 7.730469 L 16.398438 16.394531 C 16.398438 17.609375 17.410156 18.601562 18.660156 18.601562 L 24.039062 18.601562 C 25.28125 18.601562 26.292969 17.609375 26.292969 16.394531 L 26.292969 7.730469 C 26.292969 7.527344 26.261719 7.320312 26.210938 7.132812 C 26.136719 7.152344 26.050781 7.164062 25.960938 7.164062 Z M 25.957031 7.164062 "/>
<path style=" stroke:none;fill-rule:nonzero;fill:rgb(0%,0%,0%);fill-opacity:1;" d="M 26.882812 6.8125 L 1.121094 6.8125 L 1.121094 5.597656 L 26.882812 5.597656 Z M 28 6.8125 L 28 5.597656 C 28 4.996094 27.496094 4.5 26.882812 4.5 L 1.121094 4.5 C 0.503906 4.5 0.00390625 4.996094 0.00390625 5.597656 L 0.00390625 6.8125 C 0.00390625 7.417969 0.507812 7.90625 1.121094 7.90625 L 26.882812 7.90625 C 27.496094 7.90625 28 7.414062 28 6.8125 Z M 28 6.8125 "/>
</g>
</svg>
