<?xml version="1.0" encoding="UTF-8"?>
<svg xmlns="http://www.w3.org/2000/svg" xmlns:xlink="http://www.w3.org/1999/xlink" width="28px" height="28px" viewBox="0 0 28 30" version="1.1">
<g id="surface1">
<path style=" stroke:none;fill-rule:evenodd;fill:rgb(0%,0%,0%);fill-opacity:1;" d="M 11.066406 14.898438 L 10.316406 14.898438 C 9.402344 14.898438 8.65625 14.160156 8.65625 13.261719 L 8.65625 3.800781 C 8.65625 3.515625 8.890625 3.285156 9.179688 3.285156 C 9.46875 3.285156 9.703125 3.515625 9.703125 3.800781 L 9.703125 13.261719 C 9.703125 13.601562 9.980469 13.875 10.316406 13.875 L 11.066406 13.875 C 11.402344 13.875 11.691406 13.601562 11.691406 13.261719 L 11.691406 3.800781 C 11.691406 3.515625 11.921875 3.285156 12.210938 3.285156 C 12.5 3.285156 12.734375 3.515625 12.734375 3.800781 L 12.734375 13.261719 C 12.734375 14.160156 11.984375 14.898438 11.070312 14.898438 Z M 11.066406 14.898438 "/>
<path style=" stroke:none;fill-rule:evenodd;fill:rgb(0%,0%,0%);fill-opacity:1;" d="M 15.617188 28.8125 C 15.472656 28.8125 15.328125 28.746094 15.226562 28.644531 L 9.449219 22.414062 C 9.257812 22.207031 9.273438 21.882812 9.484375 21.691406 C 9.699219 21.503906 10.023438 21.519531 10.21875 21.726562 L 15.523438 27.433594 L 22.195312 16.082031 L 14.511719 14.421875 C 14.230469 14.363281 14.054688 14.089844 14.117188 13.808594 C 14.175781 13.535156 14.453125 13.363281 14.738281 13.421875 L 23.117188 15.230469 C 23.277344 15.265625 23.417969 15.375 23.484375 15.527344 C 23.550781 15.675781 23.539062 15.847656 23.460938 15.988281 L 16.074219 28.554688 C 15.988281 28.695312 15.839844 28.789062 15.679688 28.808594 C 15.660156 28.808594 15.636719 28.8125 15.625 28.8125 Z M 15.617188 28.8125 "/>
<path style=" stroke:none;fill-rule:evenodd;fill:rgb(0%,0%,0%);fill-opacity:1;" d="M 9.851562 22.554688 C 9.761719 22.554688 9.671875 22.535156 9.59375 22.484375 L 2.636719 18.546875 C 2.390625 18.402344 2.300781 18.089844 2.449219 17.84375 L 7.203125 9.75 C 7.273438 9.628906 7.394531 9.546875 7.523438 9.511719 C 7.65625 9.476562 7.796875 9.496094 7.917969 9.5625 L 9.4375 10.425781 C 9.691406 10.570312 9.769531 10.886719 9.628906 11.128906 C 9.480469 11.371094 9.167969 11.457031 8.914062 11.3125 L 7.84375 10.707031 L 3.609375 17.917969 L 9.65625 21.351562 L 13.898438 14.140625 L 11.945312 13.035156 C 11.695312 12.894531 11.609375 12.582031 11.753906 12.339844 C 11.898438 12.089844 12.21875 12.007812 12.464844 12.152344 L 14.867188 13.511719 C 14.992188 13.582031 15.078125 13.691406 15.113281 13.828125 C 15.148438 13.957031 15.132812 14.09375 15.058594 14.214844 L 10.300781 22.308594 C 10.234375 22.429688 10.121094 22.511719 9.988281 22.546875 C 9.941406 22.558594 9.894531 22.5625 9.851562 22.5625 Z M 9.851562 22.554688 "/>
<path style=" stroke:none;fill-rule:evenodd;fill:rgb(0%,0%,0%);fill-opacity:1;" d="M 3.582031 17.453125 C 3.496094 17.453125 3.40625 17.429688 3.324219 17.382812 L 1.382812 16.277344 C 0.75 15.917969 0.289062 15.335938 0.0976562 14.632812 C -0.09375 13.933594 0.0078125 13.203125 0.371094 12.574219 L 1.519531 10.617188 C 1.886719 9.992188 2.488281 9.542969 3.203125 9.355469 C 3.917969 9.167969 4.660156 9.269531 5.292969 9.628906 L 7.234375 10.726562 C 7.484375 10.867188 7.570312 11.179688 7.425781 11.421875 C 7.28125 11.671875 6.960938 11.753906 6.714844 11.609375 L 4.769531 10.511719 C 4.378906 10.289062 3.914062 10.230469 3.472656 10.34375 C 3.023438 10.457031 2.652344 10.738281 2.425781 11.132812 L 1.273438 13.089844 C 1.046875 13.476562 0.984375 13.933594 1.105469 14.367188 C 1.226562 14.804688 1.507812 15.167969 1.90625 15.390625 L 3.847656 16.496094 C 4.09375 16.636719 4.183594 16.949219 4.035156 17.191406 C 3.9375 17.355469 3.769531 17.453125 3.585938 17.453125 Z M 3.582031 17.453125 "/>
<path style=" stroke:none;fill-rule:evenodd;fill:rgb(0%,0%,0%);fill-opacity:1;" d="M 13.328125 26.324219 C 13.234375 26.324219 13.144531 26.300781 13.0625 26.257812 C 12.8125 26.113281 12.726562 25.800781 12.871094 25.558594 L 19.222656 14.753906 C 19.363281 14.511719 19.679688 14.425781 19.933594 14.566406 C 20.183594 14.710938 20.269531 15.023438 20.125 15.265625 L 13.777344 26.070312 C 13.679688 26.234375 13.507812 26.324219 13.328125 26.324219 Z M 13.328125 26.324219 "/>
<path style=" stroke:none;fill-rule:evenodd;fill:rgb(0%,0%,0%);fill-opacity:1;" d="M 19.300781 26.519531 C 18.507812 26.519531 17.722656 26.316406 17.015625 25.917969 C 16.765625 25.773438 16.679688 25.457031 16.824219 25.214844 C 16.96875 24.972656 17.285156 24.886719 17.53125 25.03125 C 18.351562 25.492188 19.308594 25.613281 20.222656 25.371094 C 21.140625 25.132812 21.902344 24.558594 22.378906 23.75 C 22.851562 22.949219 22.976562 22.007812 22.734375 21.109375 C 22.488281 20.207031 21.898438 19.460938 21.082031 18.992188 C 20.832031 18.851562 20.746094 18.539062 20.890625 18.296875 C 21.035156 18.054688 21.355469 17.96875 21.601562 18.109375 C 23.792969 19.351562 24.550781 22.113281 23.28125 24.265625 C 22.667969 25.308594 21.675781 26.054688 20.492188 26.359375 C 20.097656 26.464844 19.699219 26.519531 19.296875 26.519531 Z M 19.300781 26.519531 "/>
<path style=" stroke:none;fill-rule:evenodd;fill:rgb(0%,0%,0%);fill-opacity:1;" d="M 26.820312 26.777344 C 26.730469 26.777344 26.640625 26.757812 26.554688 26.710938 L 24.511719 25.550781 C 24.257812 25.40625 24.175781 25.09375 24.320312 24.847656 C 24.464844 24.605469 24.777344 24.519531 25.03125 24.660156 L 27.078125 25.824219 C 27.332031 25.964844 27.410156 26.273438 27.269531 26.519531 C 27.171875 26.6875 26.996094 26.777344 26.820312 26.777344 Z M 26.820312 26.777344 "/>
<path style=" stroke:none;fill-rule:evenodd;fill:rgb(0%,0%,0%);fill-opacity:1;" d="M 25.195312 22.433594 C 24.96875 22.433594 24.757812 22.285156 24.695312 22.058594 C 24.617188 21.785156 24.785156 21.5 25.066406 21.433594 L 27.34375 20.832031 C 27.625 20.753906 27.90625 20.917969 27.984375 21.191406 C 28.050781 21.46875 27.890625 21.742188 27.613281 21.820312 L 25.332031 22.421875 C 25.289062 22.429688 25.242188 22.433594 25.195312 22.433594 Z M 25.195312 22.433594 "/>
<path style=" stroke:none;fill-rule:evenodd;fill:rgb(0%,0%,0%);fill-opacity:1;" d="M 22.789062 29.816406 C 22.5625 29.816406 22.347656 29.664062 22.285156 29.4375 L 21.671875 27.199219 C 21.597656 26.925781 21.761719 26.648438 22.042969 26.574219 C 22.320312 26.496094 22.601562 26.660156 22.679688 26.933594 L 23.292969 29.175781 C 23.363281 29.449219 23.203125 29.726562 22.921875 29.800781 C 22.878906 29.8125 22.832031 29.816406 22.789062 29.816406 Z M 22.789062 29.816406 "/>
<path style=" stroke:none;fill-rule:evenodd;fill:rgb(0%,0%,0%);fill-opacity:1;" d="M 12.785156 4.265625 L 8.597656 4.265625 C 7.398438 4.265625 6.429688 3.308594 6.429688 2.136719 L 6.429688 0.511719 C 6.429688 0.230469 6.660156 0 6.949219 0 L 14.4375 0 C 14.726562 0 14.960938 0.234375 14.960938 0.511719 L 14.960938 2.136719 C 14.960938 3.308594 13.984375 4.265625 12.789062 4.265625 Z M 7.46875 1.027344 L 7.46875 2.140625 C 7.46875 2.746094 7.972656 3.246094 8.597656 3.246094 L 12.785156 3.246094 C 13.410156 3.246094 13.914062 2.75 13.914062 2.140625 L 13.914062 1.027344 Z M 7.46875 1.027344 "/>
</g>
</svg>
