<?xml version="1.0" encoding="UTF-8"?>
<svg xmlns="http://www.w3.org/2000/svg" xmlns:xlink="http://www.w3.org/1999/xlink" width="28px" height="28px" viewBox="0 0 28 28" version="1.1">
<g id="surface1">
<path style=" stroke:none;fill-rule:evenodd;fill:rgb(0%,0%,0%);fill-opacity:1;" d="M 11.261719 13.90625 L 10.5625 13.90625 C 9.707031 13.90625 9.011719 13.214844 9.011719 12.378906 L 9.011719 3.546875 C 9.011719 3.28125 9.230469 3.066406 9.5 3.066406 C 9.769531 3.066406 9.988281 3.28125 9.988281 3.546875 L 9.988281 12.378906 C 9.988281 12.695312 10.25 12.949219 10.5625 12.949219 L 11.261719 12.949219 C 11.574219 12.949219 11.84375 12.695312 11.84375 12.378906 L 11.84375 3.546875 C 11.84375 3.28125 12.058594 3.066406 12.332031 3.066406 C 12.601562 3.066406 12.820312 3.28125 12.820312 3.546875 L 12.820312 12.378906 C 12.820312 13.214844 12.117188 13.90625 11.265625 13.90625 Z M 11.261719 13.90625 "/>
<path style=" stroke:none;fill-rule:evenodd;fill:rgb(0%,0%,0%);fill-opacity:1;" d="M 15.507812 26.890625 C 15.375 26.890625 15.238281 26.828125 15.144531 26.734375 L 9.753906 20.917969 C 9.574219 20.726562 9.589844 20.425781 9.785156 20.246094 C 9.984375 20.070312 10.289062 20.085938 10.472656 20.277344 L 15.421875 25.605469 L 21.648438 15.011719 L 14.476562 13.460938 C 14.214844 13.40625 14.050781 13.152344 14.109375 12.886719 C 14.164062 12.632812 14.421875 12.472656 14.6875 12.527344 L 22.507812 14.214844 C 22.660156 14.246094 22.789062 14.351562 22.851562 14.492188 C 22.914062 14.628906 22.902344 14.792969 22.832031 14.921875 L 15.9375 26.652344 C 15.855469 26.78125 15.71875 26.871094 15.566406 26.886719 C 15.550781 26.886719 15.527344 26.890625 15.515625 26.890625 Z M 15.507812 26.890625 "/>
<path style=" stroke:none;fill-rule:evenodd;fill:rgb(0%,0%,0%);fill-opacity:1;" d="M 10.128906 21.050781 C 10.042969 21.050781 9.960938 21.03125 9.886719 20.984375 L 3.394531 17.308594 C 3.164062 17.175781 3.082031 16.882812 3.21875 16.652344 L 7.65625 9.101562 C 7.722656 8.988281 7.835938 8.910156 7.957031 8.878906 C 8.078125 8.84375 8.210938 8.863281 8.324219 8.925781 L 9.742188 9.730469 C 9.980469 9.867188 10.050781 10.160156 9.921875 10.386719 C 9.78125 10.613281 9.488281 10.691406 9.253906 10.558594 L 8.253906 9.992188 L 4.300781 16.722656 L 9.945312 19.929688 L 13.90625 13.199219 L 12.082031 12.167969 C 11.847656 12.035156 11.769531 11.742188 11.902344 11.515625 C 12.039062 11.285156 12.335938 11.207031 12.566406 11.34375 L 14.808594 12.609375 C 14.925781 12.675781 15.007812 12.777344 15.039062 12.90625 C 15.070312 13.027344 15.058594 13.152344 14.988281 13.265625 L 10.546875 20.820312 C 10.484375 20.933594 10.378906 21.011719 10.253906 21.042969 C 10.210938 21.054688 10.167969 21.058594 10.128906 21.058594 Z M 10.128906 21.050781 "/>
<path style=" stroke:none;fill-rule:evenodd;fill:rgb(0%,0%,0%);fill-opacity:1;" d="M 4.277344 16.289062 C 4.195312 16.289062 4.113281 16.269531 4.035156 16.222656 L 2.222656 15.191406 C 1.632812 14.855469 1.203125 14.3125 1.023438 13.65625 C 0.847656 13.003906 0.941406 12.324219 1.28125 11.734375 L 2.351562 9.910156 C 2.695312 9.324219 3.253906 8.90625 3.921875 8.730469 C 4.589844 8.558594 5.28125 8.652344 5.875 8.988281 L 7.683594 10.011719 C 7.917969 10.144531 8 10.433594 7.863281 10.660156 C 7.730469 10.894531 7.429688 10.96875 7.199219 10.835938 L 5.386719 9.8125 C 5.019531 9.601562 4.585938 9.546875 4.175781 9.652344 C 3.753906 9.761719 3.410156 10.023438 3.199219 10.390625 L 2.121094 12.21875 C 1.910156 12.578125 1.851562 13.003906 1.964844 13.410156 C 2.078125 13.816406 2.339844 14.15625 2.710938 14.363281 L 4.523438 15.394531 C 4.753906 15.527344 4.839844 15.820312 4.699219 16.046875 C 4.609375 16.199219 4.453125 16.289062 4.28125 16.289062 Z M 4.277344 16.289062 "/>
<path style=" stroke:none;fill-rule:evenodd;fill:rgb(0%,0%,0%);fill-opacity:1;" d="M 13.371094 24.570312 C 13.285156 24.570312 13.203125 24.546875 13.125 24.507812 C 12.890625 24.371094 12.8125 24.082031 12.945312 23.855469 L 18.875 13.769531 C 19.003906 13.542969 19.300781 13.464844 19.539062 13.59375 C 19.769531 13.730469 19.851562 14.023438 19.714844 14.246094 L 13.792969 24.332031 C 13.699219 24.484375 13.539062 24.570312 13.371094 24.570312 Z M 13.371094 24.570312 "/>
<path style=" stroke:none;fill-rule:evenodd;fill:rgb(0%,0%,0%);fill-opacity:1;" d="M 18.949219 24.75 C 18.207031 24.75 17.472656 24.5625 16.816406 24.191406 C 16.582031 24.054688 16.5 23.761719 16.636719 23.535156 C 16.769531 23.308594 17.066406 23.226562 17.296875 23.363281 C 18.0625 23.792969 18.953125 23.90625 19.808594 23.679688 C 20.664062 23.457031 21.375 22.921875 21.820312 22.167969 C 22.261719 21.417969 22.378906 20.539062 22.152344 19.703125 C 21.921875 18.859375 21.371094 18.164062 20.609375 17.726562 C 20.375 17.59375 20.296875 17.304688 20.429688 17.078125 C 20.566406 16.851562 20.863281 16.769531 21.09375 16.902344 C 23.140625 18.0625 23.847656 20.640625 22.664062 22.648438 C 22.089844 23.621094 21.164062 24.316406 20.058594 24.601562 C 19.691406 24.699219 19.320312 24.75 18.945312 24.75 Z M 18.949219 24.75 "/>
<path style=" stroke:none;fill-rule:evenodd;fill:rgb(0%,0%,0%);fill-opacity:1;" d="M 25.964844 24.992188 C 25.882812 24.992188 25.796875 24.972656 25.71875 24.929688 L 23.8125 23.847656 C 23.574219 23.710938 23.496094 23.421875 23.632812 23.191406 C 23.765625 22.964844 24.058594 22.886719 24.296875 23.015625 L 26.207031 24.101562 C 26.441406 24.234375 26.515625 24.523438 26.386719 24.75 C 26.292969 24.910156 26.128906 24.992188 25.964844 24.992188 Z M 25.964844 24.992188 "/>
<path style=" stroke:none;fill-rule:evenodd;fill:rgb(0%,0%,0%);fill-opacity:1;" d="M 24.449219 20.9375 C 24.238281 20.9375 24.039062 20.800781 23.980469 20.589844 C 23.910156 20.332031 24.066406 20.066406 24.328125 20.003906 L 26.453125 19.441406 C 26.714844 19.371094 26.980469 19.523438 27.050781 19.777344 C 27.113281 20.039062 26.964844 20.292969 26.707031 20.367188 L 24.578125 20.925781 C 24.535156 20.933594 24.492188 20.9375 24.449219 20.9375 Z M 24.449219 20.9375 "/>
<path style=" stroke:none;fill-rule:evenodd;fill:rgb(0%,0%,0%);fill-opacity:1;" d="M 22.203125 27.828125 C 21.992188 27.828125 21.792969 27.6875 21.734375 27.476562 L 21.160156 25.386719 C 21.089844 25.128906 21.246094 24.871094 21.507812 24.800781 C 21.765625 24.730469 22.027344 24.882812 22.101562 25.136719 L 22.671875 27.230469 C 22.738281 27.484375 22.589844 27.746094 22.328125 27.8125 C 22.285156 27.824219 22.242188 27.828125 22.203125 27.828125 Z M 22.203125 27.828125 "/>
<path style=" stroke:none;fill-rule:evenodd;fill:rgb(0%,0%,0%);fill-opacity:1;" d="M 12.867188 3.980469 L 8.957031 3.980469 C 7.839844 3.980469 6.933594 3.089844 6.933594 1.996094 L 6.933594 0.476562 C 6.933594 0.214844 7.148438 0 7.417969 0 L 14.410156 0 C 14.679688 0 14.898438 0.21875 14.898438 0.476562 L 14.898438 1.996094 C 14.898438 3.089844 13.984375 3.980469 12.871094 3.980469 Z M 7.902344 0.957031 L 7.902344 1.996094 C 7.902344 2.5625 8.375 3.03125 8.957031 3.03125 L 12.867188 3.03125 C 13.449219 3.03125 13.917969 2.566406 13.917969 1.996094 L 13.917969 0.957031 Z M 7.902344 0.957031 "/>
</g>
</svg>
