<?xml version="1.0" encoding="UTF-8"?>
<svg xmlns="http://www.w3.org/2000/svg" xmlns:xlink="http://www.w3.org/1999/xlink" width="28px" height="28px" viewBox="0 0 28 28" version="1.1">
<g id="surface1">
<path style=" stroke:none;fill-rule:evenodd;fill:rgb(0%,0%,0%);fill-opacity:1;" d="M 13.230469 14.304688 L 12.523438 14.304688 C 11.660156 14.304688 10.960938 13.597656 10.960938 12.734375 L 10.960938 3.648438 C 10.960938 3.378906 11.179688 3.160156 11.453125 3.160156 C 11.726562 3.160156 11.945312 3.378906 11.945312 3.648438 L 11.945312 12.734375 C 11.945312 13.058594 12.207031 13.320312 12.523438 13.320312 L 13.230469 13.320312 C 13.550781 13.320312 13.820312 13.058594 13.820312 12.734375 L 13.820312 3.648438 C 13.820312 3.378906 14.039062 3.160156 14.308594 3.160156 C 14.582031 3.160156 14.800781 3.378906 14.800781 3.648438 L 14.800781 12.734375 C 14.800781 13.597656 14.09375 14.304688 13.230469 14.304688 Z M 13.230469 14.304688 "/>
<path style=" stroke:none;fill-rule:evenodd;fill:rgb(0%,0%,0%);fill-opacity:1;" d="M 17.523438 27.660156 C 17.386719 27.660156 17.253906 27.597656 17.160156 27.496094 L 11.710938 21.515625 C 11.527344 21.316406 11.542969 21.007812 11.742188 20.820312 C 11.945312 20.640625 12.253906 20.65625 12.433594 20.855469 L 17.433594 26.335938 L 23.726562 15.4375 L 16.480469 13.84375 C 16.21875 13.789062 16.054688 13.523438 16.113281 13.257812 C 16.167969 12.992188 16.429688 12.828125 16.695312 12.886719 L 24.601562 14.621094 C 24.75 14.65625 24.882812 14.757812 24.941406 14.902344 C 25.003906 15.046875 24.992188 15.210938 24.917969 15.347656 L 17.953125 27.414062 C 17.871094 27.546875 17.734375 27.632812 17.585938 27.65625 C 17.566406 27.65625 17.546875 27.660156 17.53125 27.660156 Z M 17.523438 27.660156 "/>
<path style=" stroke:none;fill-rule:evenodd;fill:rgb(0%,0%,0%);fill-opacity:1;" d="M 12.085938 21.652344 C 12 21.652344 11.914062 21.632812 11.84375 21.585938 L 5.285156 17.804688 C 5.054688 17.664062 4.96875 17.367188 5.109375 17.132812 L 9.589844 9.363281 C 9.65625 9.246094 9.769531 9.164062 9.894531 9.132812 C 10.015625 9.097656 10.148438 9.117188 10.261719 9.179688 L 11.695312 10.007812 C 11.933594 10.148438 12.007812 10.445312 11.875 10.679688 C 11.734375 10.914062 11.441406 10.992188 11.203125 10.855469 L 10.195312 10.273438 L 6.203125 17.195312 L 11.902344 20.492188 L 15.898438 13.570312 L 14.058594 12.507812 C 13.824219 12.371094 13.742188 12.070312 13.878906 11.835938 C 14.015625 11.601562 14.316406 11.519531 14.550781 11.660156 L 16.816406 12.964844 C 16.929688 13.03125 17.007812 13.136719 17.046875 13.265625 C 17.078125 13.390625 17.066406 13.523438 17 13.636719 L 12.507812 21.410156 C 12.449219 21.523438 12.339844 21.601562 12.214844 21.640625 C 12.171875 21.648438 12.132812 21.652344 12.085938 21.652344 Z M 12.085938 21.652344 "/>
<path style=" stroke:none;fill-rule:evenodd;fill:rgb(0%,0%,0%);fill-opacity:1;" d="M 6.179688 16.753906 C 6.09375 16.753906 6.007812 16.730469 5.933594 16.6875 L 4.101562 15.628906 C 3.503906 15.289062 3.070312 14.722656 2.890625 14.050781 C 2.710938 13.378906 2.804688 12.679688 3.148438 12.074219 L 4.230469 10.195312 C 4.578125 9.597656 5.140625 9.164062 5.820312 8.984375 C 6.492188 8.804688 7.191406 8.898438 7.789062 9.25 L 9.617188 10.304688 C 9.851562 10.4375 9.933594 10.738281 9.800781 10.96875 C 9.664062 11.210938 9.363281 11.289062 9.128906 11.148438 L 7.296875 10.097656 C 6.925781 9.882812 6.492188 9.824219 6.070312 9.933594 C 5.648438 10.042969 5.300781 10.308594 5.085938 10.6875 L 4.003906 12.566406 C 3.789062 12.9375 3.730469 13.371094 3.839844 13.792969 C 3.957031 14.210938 4.222656 14.558594 4.59375 14.773438 L 6.425781 15.835938 C 6.660156 15.972656 6.742188 16.273438 6.601562 16.507812 C 6.507812 16.664062 6.351562 16.753906 6.179688 16.753906 Z M 6.179688 16.753906 "/>
<path style=" stroke:none;fill-rule:evenodd;fill:rgb(0%,0%,0%);fill-opacity:1;" d="M 15.367188 25.269531 C 15.28125 25.269531 15.195312 25.25 15.117188 25.210938 C 14.882812 25.070312 14.800781 24.769531 14.933594 24.539062 L 20.921875 14.164062 C 21.054688 13.933594 21.355469 13.851562 21.59375 13.984375 C 21.824219 14.125 21.90625 14.425781 21.769531 14.65625 L 15.789062 25.027344 C 15.695312 25.183594 15.527344 25.273438 15.363281 25.273438 Z M 15.367188 25.269531 "/>
<path style=" stroke:none;fill-rule:evenodd;fill:rgb(0%,0%,0%);fill-opacity:1;" d="M 20.996094 25.460938 C 20.25 25.460938 19.507812 25.265625 18.84375 24.878906 C 18.605469 24.742188 18.527344 24.4375 18.664062 24.207031 C 18.800781 23.972656 19.101562 23.890625 19.335938 24.03125 C 20.105469 24.476562 21.007812 24.59375 21.871094 24.359375 C 22.738281 24.128906 23.457031 23.578125 23.902344 22.804688 C 24.347656 22.03125 24.464844 21.128906 24.238281 20.265625 C 24.003906 19.398438 23.449219 18.679688 22.679688 18.234375 C 22.445312 18.101562 22.363281 17.800781 22.496094 17.566406 C 22.632812 17.335938 22.933594 17.253906 23.167969 17.386719 C 25.234375 18.578125 25.945312 21.230469 24.75 23.296875 C 24.171875 24.300781 23.238281 25.011719 22.121094 25.308594 C 21.753906 25.410156 21.375 25.460938 20.996094 25.460938 Z M 20.996094 25.460938 "/>
<path style=" stroke:none;fill-rule:evenodd;fill:rgb(0%,0%,0%);fill-opacity:1;" d="M 14.851562 4.09375 L 10.902344 4.09375 C 9.773438 4.09375 8.859375 3.179688 8.859375 2.054688 L 8.859375 0.492188 C 8.859375 0.222656 9.078125 0.00390625 9.351562 0.00390625 L 16.410156 0.00390625 C 16.679688 0.00390625 16.898438 0.226562 16.898438 0.492188 L 16.898438 2.054688 C 16.898438 3.179688 15.976562 4.09375 14.851562 4.09375 Z M 9.839844 0.984375 L 9.839844 2.054688 C 9.839844 2.632812 10.320312 3.113281 10.902344 3.113281 L 14.851562 3.113281 C 15.441406 3.113281 15.917969 2.632812 15.917969 2.054688 L 15.917969 0.984375 Z M 9.839844 0.984375 "/>
</g>
</svg>
