<?xml version="1.0" encoding="UTF-8"?>
<svg xmlns="http://www.w3.org/2000/svg" xmlns:xlink="http://www.w3.org/1999/xlink" width="28px" height="28px" viewBox="0 0 28 35" version="1.1">
<g id="surface1">
<path style=" stroke:none;fill-rule:evenodd;fill:rgb(0%,0%,0%);fill-opacity:1;" d="M 13.039062 17.878906 L 12.15625 17.878906 C 11.074219 17.878906 10.199219 16.996094 10.199219 15.917969 L 10.199219 4.5625 C 10.199219 4.222656 10.472656 3.949219 10.816406 3.949219 C 11.15625 3.949219 11.429688 4.222656 11.429688 4.5625 L 11.429688 15.917969 C 11.429688 16.324219 11.757812 16.652344 12.15625 16.652344 L 13.039062 16.652344 C 13.4375 16.652344 13.773438 16.324219 13.773438 15.917969 L 13.773438 4.5625 C 13.773438 4.222656 14.046875 3.949219 14.386719 3.949219 C 14.726562 3.949219 15 4.222656 15 4.5625 L 15 15.917969 C 15 16.996094 14.117188 17.878906 13.039062 17.878906 Z M 13.039062 17.878906 "/>
<path style=" stroke:none;fill-rule:evenodd;fill:rgb(0%,0%,0%);fill-opacity:1;" d="M 18.40625 34.574219 C 18.234375 34.574219 18.066406 34.496094 17.949219 34.371094 L 11.136719 26.894531 C 10.910156 26.644531 10.929688 26.257812 11.179688 26.027344 C 11.429688 25.800781 11.816406 25.820312 12.042969 26.070312 L 18.292969 32.921875 L 26.160156 19.296875 L 17.101562 17.304688 C 16.773438 17.234375 16.566406 16.90625 16.640625 16.570312 C 16.710938 16.242188 17.039062 16.035156 17.371094 16.109375 L 27.25 18.277344 C 27.4375 18.320312 27.601562 18.449219 27.675781 18.628906 C 27.753906 18.808594 27.742188 19.015625 27.648438 19.183594 L 18.941406 34.265625 C 18.839844 34.433594 18.667969 34.542969 18.480469 34.570312 C 18.457031 34.570312 18.433594 34.574219 18.414062 34.574219 Z M 18.40625 34.574219 "/>
<path style=" stroke:none;fill-rule:evenodd;fill:rgb(0%,0%,0%);fill-opacity:1;" d="M 11.609375 27.066406 C 11.5 27.066406 11.394531 27.042969 11.304688 26.984375 L 3.105469 22.253906 C 2.816406 22.082031 2.710938 21.707031 2.886719 21.414062 L 8.488281 11.703125 C 8.570312 11.558594 8.710938 11.457031 8.867188 11.414062 C 9.019531 11.371094 9.1875 11.398438 9.328125 11.472656 L 11.117188 12.507812 C 11.417969 12.683594 11.511719 13.058594 11.34375 13.347656 C 11.167969 13.640625 10.800781 13.742188 10.503906 13.570312 L 9.246094 12.839844 L 4.253906 21.492188 L 11.378906 25.613281 L 16.375 16.960938 L 14.074219 15.632812 C 13.78125 15.464844 13.679688 15.089844 13.847656 14.796875 C 14.019531 14.5 14.394531 14.398438 14.6875 14.574219 L 17.519531 16.207031 C 17.664062 16.289062 17.761719 16.421875 17.808594 16.582031 C 17.847656 16.738281 17.832031 16.90625 17.75 17.046875 L 12.136719 26.761719 C 12.0625 26.90625 11.925781 27.003906 11.769531 27.050781 C 11.714844 27.0625 11.664062 27.066406 11.605469 27.066406 Z M 11.609375 27.066406 "/>
<path style=" stroke:none;fill-rule:evenodd;fill:rgb(0%,0%,0%);fill-opacity:1;" d="M 4.222656 20.941406 C 4.117188 20.941406 4.011719 20.914062 3.917969 20.859375 L 1.625 19.535156 C 0.878906 19.109375 0.335938 18.402344 0.113281 17.5625 C -0.113281 16.722656 0.0078125 15.847656 0.433594 15.09375 L 1.789062 12.746094 C 2.222656 11.996094 2.925781 11.453125 3.773438 11.230469 C 4.613281 11.007812 5.488281 11.125 6.234375 11.5625 L 8.523438 12.878906 C 8.816406 13.046875 8.917969 13.421875 8.75 13.710938 C 8.578125 14.011719 8.203125 14.113281 7.910156 13.9375 L 5.621094 12.621094 C 5.15625 12.351562 4.613281 12.28125 4.089844 12.417969 C 3.558594 12.554688 3.125 12.886719 2.855469 13.359375 L 1.503906 15.707031 C 1.234375 16.171875 1.164062 16.714844 1.300781 17.242188 C 1.445312 17.765625 1.777344 18.199219 2.242188 18.46875 L 4.53125 19.796875 C 4.824219 19.964844 4.925781 20.339844 4.753906 20.632812 C 4.636719 20.828125 4.4375 20.941406 4.222656 20.941406 Z M 4.222656 20.941406 "/>
<path style=" stroke:none;fill-rule:evenodd;fill:rgb(0%,0%,0%);fill-opacity:1;" d="M 15.707031 31.585938 C 15.601562 31.585938 15.492188 31.5625 15.394531 31.511719 C 15.105469 31.339844 15 30.960938 15.167969 30.671875 L 22.652344 17.707031 C 22.816406 17.417969 23.195312 17.316406 23.492188 17.480469 C 23.78125 17.65625 23.882812 18.03125 23.710938 18.320312 L 16.234375 31.285156 C 16.121094 31.480469 15.910156 31.589844 15.703125 31.589844 Z M 15.707031 31.585938 "/>
<path style=" stroke:none;fill-rule:evenodd;fill:rgb(0%,0%,0%);fill-opacity:1;" d="M 22.746094 31.824219 C 21.8125 31.824219 20.886719 31.582031 20.054688 31.097656 C 19.757812 30.925781 19.660156 30.546875 19.832031 30.257812 C 20 29.964844 20.375 29.863281 20.667969 30.039062 C 21.632812 30.59375 22.757812 30.742188 23.839844 30.449219 C 24.921875 30.160156 25.820312 29.472656 26.378906 28.503906 C 26.933594 27.539062 27.082031 26.410156 26.796875 25.332031 C 26.503906 24.25 25.8125 23.351562 24.847656 22.792969 C 24.554688 22.625 24.453125 22.25 24.621094 21.957031 C 24.792969 21.667969 25.167969 21.566406 25.460938 21.734375 C 28.042969 23.222656 28.929688 26.539062 27.4375 29.121094 C 26.714844 30.375 25.546875 31.265625 24.152344 31.636719 C 23.691406 31.761719 23.21875 31.828125 22.746094 31.828125 Z M 22.746094 31.824219 "/>
<path style=" stroke:none;fill-rule:evenodd;fill:rgb(0%,0%,0%);fill-opacity:1;" d="M 15.066406 5.117188 L 10.128906 5.117188 C 8.71875 5.117188 7.574219 3.972656 7.574219 2.566406 L 7.574219 0.617188 C 7.574219 0.277344 7.847656 0.00390625 8.1875 0.00390625 L 17.011719 0.00390625 C 17.351562 0.00390625 17.625 0.28125 17.625 0.617188 L 17.625 2.566406 C 17.625 3.972656 16.472656 5.117188 15.066406 5.117188 Z M 8.800781 1.230469 L 8.800781 2.566406 C 8.800781 3.292969 9.398438 3.890625 10.128906 3.890625 L 15.066406 3.890625 C 15.800781 3.890625 16.398438 3.292969 16.398438 2.566406 L 16.398438 1.230469 Z M 8.800781 1.230469 "/>
</g>
</svg>
