<?xml version="1.0" encoding="UTF-8"?>
<svg xmlns="http://www.w3.org/2000/svg" xmlns:xlink="http://www.w3.org/1999/xlink" width="28px" height="28px" viewBox="0 0 28 28" version="1.1">
<g id="surface1">
<path style=" stroke:none;fill-rule:nonzero;fill:rgb(0%,0%,0%);fill-opacity:1;" d="M 14.117188 25.171875 C 13.851562 25.222656 13.683594 25.476562 13.734375 25.726562 L 14.097656 27.609375 C 14.148438 27.875 14.410156 28.035156 14.664062 27.992188 C 14.933594 27.941406 15.097656 27.691406 15.050781 27.433594 L 14.683594 25.558594 C 14.636719 25.292969 14.390625 25.132812 14.117188 25.171875 Z M 20.738281 21.222656 C 20.515625 21.074219 20.207031 21.132812 20.058594 21.351562 C 19.902344 21.570312 19.960938 21.871094 20.1875 22.027344 L 21.808594 23.09375 C 22.03125 23.238281 22.339844 23.183594 22.492188 22.964844 C 22.644531 22.742188 22.585938 22.445312 22.359375 22.292969 Z M 6.1875 26.007812 L 7.285156 24.425781 C 7.4375 24.207031 7.378906 23.902344 7.152344 23.75 C 6.929688 23.601562 6.625 23.65625 6.46875 23.878906 L 5.371094 25.460938 C 5.222656 25.679688 5.277344 25.984375 5.503906 26.132812 C 5.734375 26.285156 6.03125 26.226562 6.183594 26.003906 Z M 14.929688 20.515625 C 14.730469 21.28125 14.09375 21.871094 13.292969 22.019531 C 12.492188 22.160156 11.679688 21.816406 11.226562 21.167969 Z M 13.316406 22.128906 C 14.226562 21.976562 14.9375 21.261719 15.085938 20.367188 L 11.03125 21.082031 C 11.488281 21.871094 12.402344 22.292969 13.316406 22.128906 Z M 8.296875 19.988281 L 9.945312 12.664062 L 13.132812 12.105469 L 17.261719 18.410156 Z M 9.84375 12.5625 L 8.136719 20.132812 L 9.929688 19.820312 L 15.667969 18.8125 L 15.671875 18.8125 L 17.464844 18.492188 L 13.191406 11.976562 Z M 15.085938 20.367188 C 14.933594 21.261719 14.222656 21.972656 13.3125 22.128906 C 12.402344 22.289062 11.484375 21.871094 11.027344 21.078125 Z M 10.921875 21.136719 C 11.335938 21.855469 12.113281 22.285156 12.929688 22.285156 C 13.0625 22.285156 13.199219 22.277344 13.335938 22.246094 C 14.292969 22.078125 15.046875 21.332031 15.203125 20.386719 L 15.230469 20.222656 L 10.835938 20.996094 Z M 15.671875 18.8125 L 15.667969 18.8125 L 9.929688 19.820312 L 8.136719 20.132812 L 9.839844 12.5625 L 13.1875 11.976562 L 17.460938 18.492188 Z M 13.25 11.839844 L 9.742188 12.457031 L 7.976562 20.28125 L 17.664062 18.585938 L 13.292969 11.910156 Z M 8.457031 8.347656 C 8.476562 8.308594 8.503906 8.261719 8.523438 8.21875 C 8.503906 8.261719 8.480469 8.308594 8.457031 8.347656 Z M 12.921875 7.472656 C 12.9375 7.488281 12.953125 7.5 12.96875 7.519531 C 12.953125 7.5 12.9375 7.492188 12.921875 7.472656 Z M 10.464844 6.757812 L 10.464844 7.238281 C 10.464844 7.386719 10.59375 7.519531 10.753906 7.519531 L 10.925781 7.519531 C 11.082031 7.519531 11.210938 7.390625 11.210938 7.238281 L 11.210938 6.722656 C 10.960938 6.699219 10.710938 6.710938 10.464844 6.757812 Z M 7.980469 20.28125 L 9.742188 12.457031 L 13.25 11.839844 L 13.292969 11.90625 L 17.664062 18.582031 Z M 15.207031 20.382812 C 15.046875 21.328125 14.292969 22.078125 13.335938 22.246094 C 13.199219 22.273438 13.0625 22.285156 12.929688 22.285156 C 12.113281 22.285156 11.339844 21.855469 10.921875 21.136719 L 10.835938 20.992188 L 15.230469 20.21875 Z M 19.175781 18.6875 L 14.117188 10.964844 L 13.753906 8.964844 C 13.648438 8.414062 13.375 7.910156 12.96875 7.519531 C 12.953125 7.5 12.9375 7.492188 12.921875 7.472656 C 12.871094 7.429688 12.816406 7.375 12.761719 7.332031 L 12.714844 7.300781 C 12.617188 7.21875 12.519531 7.15625 12.425781 7.097656 L 12.425781 7.238281 C 12.425781 7.628906 12.265625 7.988281 12.007812 8.25 C 12.296875 8.484375 12.492188 8.808594 12.558594 9.179688 L 12.835938 10.707031 L 9.730469 11.25 L 9.449219 9.726562 L 9.570312 9.707031 L 9.449219 9.71875 C 9.359375 9.242188 9.511719 8.753906 9.839844 8.398438 C 9.507812 8.148438 9.28125 7.761719 9.257812 7.320312 C 9.019531 7.519531 8.765625 7.78125 8.566406 8.140625 C 8.550781 8.167969 8.539062 8.195312 8.527344 8.214844 C 8.503906 8.261719 8.480469 8.304688 8.460938 8.34375 C 8.265625 8.769531 8.183594 9.230469 8.222656 9.691406 C 8.230469 9.777344 8.238281 9.855469 8.253906 9.929688 L 8.617188 11.929688 L 8.613281 11.949219 L 6.597656 20.894531 C 6.558594 21.074219 6.601562 21.253906 6.714844 21.398438 C 6.832031 21.539062 7.003906 21.621094 7.191406 21.621094 C 7.226562 21.621094 7.261719 21.617188 7.296875 21.613281 L 9.625 21.203125 L 9.660156 21.292969 C 10.273438 22.816406 11.90625 23.710938 13.546875 23.417969 C 15.183594 23.132812 16.402344 21.734375 16.449219 20.101562 L 16.449219 20 L 18.769531 19.59375 C 18.972656 19.558594 19.140625 19.429688 19.222656 19.246094 C 19.304688 19.0625 19.285156 18.855469 19.175781 18.6875 Z M 9.96875 6.902344 C 10.128906 6.835938 10.292969 6.789062 10.464844 6.757812 L 10.464844 1.46875 C 10.464844 1.320312 10.59375 1.191406 10.75 1.191406 L 10.921875 1.191406 C 11.082031 1.191406 11.210938 1.320312 11.210938 1.46875 L 11.210938 6.722656 C 11.261719 6.730469 11.3125 6.734375 11.359375 6.738281 L 11.5 6.761719 L 11.5 6.757812 C 11.703125 6.789062 12.046875 6.878906 12.421875 7.097656 L 12.421875 1.46875 C 12.421875 0.660156 11.75 0 10.921875 0 L 10.75 0 C 9.925781 0 9.253906 0.660156 9.253906 1.46875 L 9.253906 7.238281 C 9.253906 7.265625 9.253906 7.292969 9.257812 7.320312 C 9.507812 7.117188 9.742188 6.996094 9.890625 6.929688 Z M 9.839844 8.398438 C 9.929688 8.304688 10.035156 8.214844 10.148438 8.140625 C 10.691406 7.800781 11.378906 7.820312 11.90625 8.175781 C 11.9375 8.199219 11.96875 8.226562 12.003906 8.25 C 12.261719 7.988281 12.421875 7.628906 12.421875 7.238281 L 12.421875 7.097656 C 12.046875 6.878906 11.699219 6.789062 11.5 6.757812 L 11.5 6.761719 L 11.359375 6.738281 C 11.308594 6.734375 11.257812 6.726562 11.210938 6.722656 L 11.210938 7.238281 C 11.210938 7.386719 11.082031 7.519531 10.921875 7.519531 L 10.75 7.519531 C 10.589844 7.519531 10.460938 7.390625 10.460938 7.238281 L 10.460938 6.757812 C 10.292969 6.789062 10.128906 6.835938 9.964844 6.902344 L 9.886719 6.929688 C 9.738281 6.996094 9.503906 7.117188 9.253906 7.320312 C 9.28125 7.761719 9.503906 8.148438 9.839844 8.398438 Z M 9.839844 8.398438 "/>
</g>
</svg>
