<?xml version="1.0" encoding="UTF-8"?>
<svg xmlns="http://www.w3.org/2000/svg" xmlns:xlink="http://www.w3.org/1999/xlink" width="28px" height="28px" viewBox="0 0 28 45" version="1.1">
<g id="surface1">
<path style=" stroke:none;fill-rule:nonzero;fill:rgb(0%,0%,0%);fill-opacity:1;" d="M 14.191406 40.457031 C 13.761719 40.535156 13.492188 40.941406 13.570312 41.34375 L 14.15625 44.375 C 14.238281 44.796875 14.65625 45.058594 15.070312 44.988281 C 15.5 44.90625 15.765625 44.503906 15.6875 44.089844 L 15.101562 41.074219 C 15.023438 40.652344 14.625 40.390625 14.191406 40.453125 Z M 24.832031 34.109375 C 24.46875 33.867188 23.976562 33.964844 23.734375 34.316406 C 23.488281 34.667969 23.582031 35.152344 23.945312 35.398438 L 26.550781 37.113281 C 26.910156 37.347656 27.402344 37.257812 27.648438 36.90625 C 27.890625 36.546875 27.796875 36.070312 27.4375 35.828125 Z M 1.441406 41.796875 L 3.207031 39.253906 C 3.453125 38.902344 3.359375 38.414062 2.996094 38.171875 C 2.636719 37.929688 2.144531 38.019531 1.898438 38.378906 L 0.132812 40.921875 C -0.109375 41.273438 -0.015625 41.757812 0.34375 42 C 0.714844 42.246094 1.195312 42.152344 1.4375 41.792969 Z M 15.496094 32.96875 C 15.175781 34.199219 14.152344 35.152344 12.863281 35.386719 C 11.574219 35.613281 10.273438 35.0625 9.542969 34.019531 Z M 12.898438 35.566406 C 14.363281 35.316406 15.503906 34.171875 15.746094 32.734375 L 9.226562 33.878906 C 9.960938 35.152344 11.433594 35.828125 12.898438 35.566406 Z M 4.832031 32.121094 L 7.480469 20.355469 L 12.605469 19.457031 L 19.242188 29.589844 L 4.832031 32.125 Z M 7.320312 20.191406 L 4.578125 32.355469 L 7.457031 31.851562 L 7.460938 31.851562 L 16.683594 30.234375 L 16.6875 30.234375 L 19.566406 29.722656 L 12.699219 19.246094 Z M 15.746094 32.734375 C 15.5 34.171875 14.359375 35.3125 12.894531 35.5625 C 11.429688 35.824219 9.957031 35.148438 9.222656 33.875 L 15.746094 32.730469 Z M 9.054688 33.972656 C 9.71875 35.125 10.964844 35.816406 12.28125 35.816406 C 12.492188 35.816406 12.710938 35.800781 12.929688 35.753906 C 14.472656 35.484375 15.679688 34.28125 15.933594 32.761719 L 15.980469 32.5 L 8.917969 33.742188 Z M 16.6875 30.234375 L 16.679688 30.234375 L 7.457031 31.851562 L 4.574219 32.355469 L 7.316406 20.191406 L 12.695312 19.246094 L 19.5625 29.722656 Z M 12.792969 19.03125 L 7.15625 20.019531 L 4.320312 32.597656 L 19.886719 29.867188 L 12.863281 19.140625 Z M 5.09375 13.414062 C 5.125 13.351562 5.164062 13.277344 5.199219 13.207031 C 5.164062 13.277344 5.128906 13.351562 5.09375 13.414062 Z M 12.269531 12.007812 C 12.292969 12.035156 12.316406 12.054688 12.339844 12.082031 C 12.316406 12.054688 12.292969 12.039062 12.269531 12.007812 Z M 8.320312 10.859375 L 8.320312 11.632812 C 8.320312 11.871094 8.523438 12.082031 8.78125 12.082031 L 9.058594 12.082031 C 9.3125 12.082031 9.519531 11.875 9.519531 11.632812 L 9.519531 10.804688 C 9.117188 10.769531 8.710938 10.785156 8.320312 10.859375 Z M 4.324219 32.597656 L 7.15625 20.019531 L 12.792969 19.03125 L 12.863281 19.136719 L 19.886719 29.863281 Z M 15.9375 32.757812 C 15.679688 34.277344 14.472656 35.484375 12.933594 35.753906 C 12.714844 35.796875 12.496094 35.816406 12.28125 35.816406 C 10.964844 35.816406 9.722656 35.125 9.054688 33.972656 L 8.917969 33.738281 L 15.980469 32.496094 Z M 22.320312 30.035156 L 14.1875 17.621094 L 13.601562 14.410156 C 13.4375 13.519531 12.996094 12.710938 12.339844 12.082031 C 12.316406 12.054688 12.292969 12.039062 12.269531 12.007812 C 12.183594 11.9375 12.097656 11.855469 12.011719 11.785156 L 11.9375 11.730469 C 11.777344 11.601562 11.621094 11.503906 11.46875 11.40625 L 11.46875 11.632812 C 11.46875 12.261719 11.210938 12.835938 10.796875 13.257812 C 11.261719 13.636719 11.578125 14.15625 11.683594 14.75 L 12.128906 17.207031 L 7.136719 18.078125 L 6.6875 15.632812 L 6.878906 15.597656 L 6.6875 15.621094 C 6.542969 14.851562 6.785156 14.070312 7.316406 13.5 C 6.777344 13.097656 6.417969 12.476562 6.378906 11.765625 C 5.996094 12.082031 5.589844 12.503906 5.265625 13.085938 C 5.242188 13.125 5.222656 13.167969 5.203125 13.203125 C 5.167969 13.277344 5.128906 13.347656 5.097656 13.410156 C 4.785156 14.09375 4.652344 14.832031 4.714844 15.578125 C 4.726562 15.710938 4.742188 15.839844 4.765625 15.960938 L 5.347656 19.171875 L 5.339844 19.207031 L 2.101562 33.582031 C 2.039062 33.871094 2.109375 34.160156 2.292969 34.390625 C 2.480469 34.617188 2.753906 34.75 3.054688 34.75 C 3.113281 34.75 3.171875 34.742188 3.226562 34.734375 L 6.96875 34.078125 L 7.023438 34.222656 C 8.007812 36.667969 10.636719 38.105469 13.269531 37.636719 C 15.902344 37.179688 17.863281 34.929688 17.933594 32.308594 L 17.9375 32.144531 L 21.667969 31.488281 C 21.992188 31.433594 22.261719 31.226562 22.390625 30.929688 C 22.523438 30.636719 22.496094 30.300781 22.320312 30.03125 Z M 7.519531 11.09375 C 7.777344 10.984375 8.042969 10.914062 8.316406 10.859375 L 8.316406 2.363281 C 8.316406 2.121094 8.523438 1.914062 8.777344 1.914062 L 9.054688 1.914062 C 9.308594 1.914062 9.515625 2.121094 9.515625 2.363281 L 9.515625 10.804688 C 9.597656 10.816406 9.679688 10.824219 9.757812 10.832031 L 9.984375 10.867188 L 9.984375 10.859375 C 10.308594 10.914062 10.863281 11.054688 11.464844 11.40625 L 11.464844 2.363281 C 11.464844 1.0625 10.382812 0 9.054688 0 L 8.777344 0 C 7.449219 0 6.371094 1.0625 6.371094 2.363281 L 6.371094 11.632812 C 6.371094 11.675781 6.375 11.71875 6.378906 11.765625 C 6.777344 11.441406 7.15625 11.246094 7.394531 11.136719 Z M 7.3125 13.5 C 7.457031 13.347656 7.625 13.203125 7.8125 13.085938 C 8.679688 12.539062 9.789062 12.566406 10.632812 13.140625 C 10.683594 13.179688 10.738281 13.222656 10.792969 13.257812 C 11.207031 12.835938 11.464844 12.261719 11.464844 11.632812 L 11.464844 11.40625 C 10.859375 11.054688 10.304688 10.910156 9.980469 10.859375 L 9.980469 10.867188 L 9.753906 10.832031 C 9.675781 10.824219 9.59375 10.8125 9.515625 10.804688 L 9.515625 11.632812 C 9.515625 11.871094 9.308594 12.082031 9.054688 12.082031 L 8.777344 12.082031 C 8.519531 12.082031 8.3125 11.875 8.3125 11.632812 L 8.3125 10.859375 C 8.042969 10.914062 7.777344 10.984375 7.515625 11.09375 L 7.390625 11.136719 C 7.152344 11.246094 6.773438 11.441406 6.375 11.765625 C 6.417969 12.476562 6.773438 13.097656 7.3125 13.5 Z M 7.3125 13.5 "/>
</g>
</svg>
