<?xml version="1.0" encoding="UTF-8"?>
<svg xmlns="http://www.w3.org/2000/svg" xmlns:xlink="http://www.w3.org/1999/xlink" width="28px" height="28px" viewBox="0 0 28 28" version="1.1">
<g id="surface1">
<path style=" stroke:none;fill-rule:nonzero;fill:rgb(0%,0%,0%);fill-opacity:1;" d="M 26.546875 5.773438 L 1.105469 5.773438 L 1.105469 4.578125 L 26.546875 4.578125 Z M 27.65625 5.773438 L 27.65625 4.578125 C 27.65625 3.984375 27.160156 3.5 26.546875 3.5 L 1.105469 3.5 C 0.496094 3.5 0 3.984375 0 4.578125 L 0 5.773438 C 0 6.363281 0.496094 6.847656 1.105469 6.847656 L 26.546875 6.847656 C 27.160156 6.847656 27.65625 6.363281 27.65625 5.773438 Z M 9.105469 22.9375 C 8.929688 22.972656 8.820312 23.144531 8.851562 23.3125 L 9.097656 24.566406 C 9.128906 24.746094 9.300781 24.855469 9.472656 24.820312 C 9.65625 24.785156 9.765625 24.617188 9.734375 24.449219 L 9.488281 23.199219 C 9.457031 23.019531 9.289062 22.914062 9.105469 22.9375 Z M 13.558594 20.304688 C 13.410156 20.199219 13.203125 20.242188 13.101562 20.390625 C 12.996094 20.53125 13.039062 20.738281 13.1875 20.835938 L 14.28125 21.550781 C 14.429688 21.648438 14.636719 21.609375 14.738281 21.460938 C 14.84375 21.316406 14.804688 21.117188 14.652344 21.019531 Z M 3.777344 23.496094 L 4.515625 22.4375 C 4.613281 22.289062 4.578125 22.089844 4.425781 21.988281 C 4.273438 21.890625 4.070312 21.925781 3.96875 22.074219 L 3.226562 23.132812 C 3.125 23.28125 3.164062 23.484375 3.316406 23.582031 C 3.472656 23.679688 3.671875 23.644531 3.777344 23.496094 Z M 9.65625 19.828125 C 9.519531 20.339844 9.089844 20.738281 8.550781 20.828125 C 8.011719 20.925781 7.472656 20.703125 7.164062 20.261719 Z M 8.566406 20.910156 C 9.179688 20.804688 9.65625 20.328125 9.761719 19.730469 L 7.027344 20.207031 C 7.335938 20.738281 7.953125 21.019531 8.566406 20.910156 Z M 5.195312 19.476562 L 6.300781 14.589844 L 8.449219 14.214844 L 11.222656 18.425781 Z M 6.230469 14.523438 L 5.085938 19.574219 L 6.296875 19.363281 L 10.15625 18.691406 L 11.359375 18.480469 L 8.484375 14.128906 Z M 9.761719 19.730469 C 9.65625 20.328125 9.179688 20.804688 8.566406 20.910156 C 7.953125 21.019531 7.335938 20.738281 7.027344 20.207031 Z M 6.960938 20.246094 C 7.238281 20.722656 7.761719 21.011719 8.3125 21.011719 C 8.398438 21.011719 8.488281 21.003906 8.582031 20.988281 C 9.226562 20.875 9.734375 20.375 9.839844 19.746094 L 9.863281 19.632812 L 6.902344 20.148438 Z M 10.15625 18.691406 L 6.296875 19.363281 L 5.085938 19.574219 L 6.230469 14.523438 L 8.484375 14.128906 L 11.359375 18.480469 Z M 8.527344 14.042969 L 6.167969 14.453125 L 4.980469 19.675781 L 11.496094 18.542969 L 8.550781 14.085938 Z M 5.304688 11.710938 C 5.316406 11.679688 5.332031 11.648438 5.347656 11.625 C 5.332031 11.652344 5.316406 11.679688 5.304688 11.710938 Z M 8.304688 11.128906 C 8.316406 11.132812 8.328125 11.144531 8.335938 11.152344 C 8.328125 11.144531 8.316406 11.132812 8.304688 11.128906 Z M 6.652344 10.648438 L 6.652344 10.964844 C 6.652344 11.070312 6.738281 11.152344 6.84375 11.152344 L 6.960938 11.152344 C 7.070312 11.152344 7.15625 11.070312 7.15625 10.964844 L 7.15625 10.621094 C 6.984375 10.609375 6.816406 10.617188 6.652344 10.648438 Z M 4.980469 19.675781 L 6.167969 14.453125 L 8.527344 14.042969 L 8.550781 14.085938 L 11.496094 18.542969 Z M 9.839844 19.746094 C 9.734375 20.375 9.226562 20.875 8.582031 20.988281 C 8.488281 21.003906 8.398438 21.011719 8.308594 21.011719 C 7.761719 21.011719 7.238281 20.722656 6.960938 20.246094 L 6.902344 20.148438 L 9.863281 19.632812 Z M 12.511719 18.609375 L 9.105469 13.457031 L 8.867188 12.125 C 8.792969 11.75 8.609375 11.414062 8.335938 11.152344 C 8.328125 11.144531 8.316406 11.132812 8.304688 11.128906 C 8.269531 11.09375 8.234375 11.0625 8.195312 11.03125 L 8.164062 11.011719 L 8.164062 11.003906 C 8.101562 10.953125 8.03125 10.914062 7.972656 10.878906 L 7.972656 10.964844 C 7.972656 11.230469 7.859375 11.46875 7.6875 11.644531 C 7.886719 11.800781 8.011719 12.015625 8.058594 12.261719 L 8.246094 13.28125 L 6.15625 13.644531 L 5.96875 12.628906 L 6.046875 12.613281 L 5.96875 12.628906 C 5.90625 12.300781 6.011719 11.980469 6.230469 11.746094 C 6.007812 11.578125 5.859375 11.316406 5.839844 11.027344 C 5.683594 11.152344 5.507812 11.332031 5.375 11.570312 C 5.363281 11.585938 5.359375 11.609375 5.347656 11.625 C 5.332031 11.648438 5.316406 11.679688 5.304688 11.710938 C 5.175781 11.992188 5.117188 12.296875 5.144531 12.609375 C 5.148438 12.664062 5.160156 12.714844 5.164062 12.765625 L 5.410156 14.101562 L 5.40625 14.113281 L 4.054688 20.089844 C 4.027344 20.207031 4.054688 20.328125 4.132812 20.421875 C 4.210938 20.519531 4.324219 20.570312 4.453125 20.570312 C 4.476562 20.570312 4.5 20.570312 4.523438 20.5625 L 6.085938 20.292969 L 6.113281 20.355469 C 6.527344 21.363281 7.625 21.960938 8.722656 21.773438 C 9.824219 21.578125 10.648438 20.644531 10.679688 19.550781 L 10.679688 19.492188 L 12.238281 19.214844 C 12.375 19.195312 12.484375 19.109375 12.542969 18.984375 C 12.59375 18.863281 12.585938 18.71875 12.511719 18.609375 Z M 6.320312 10.746094 C 6.425781 10.699219 6.535156 10.667969 6.652344 10.648438 L 6.652344 7.121094 C 6.652344 7.019531 6.738281 6.929688 6.84375 6.929688 L 6.960938 6.929688 C 7.070312 6.929688 7.15625 7.019531 7.15625 7.121094 L 7.15625 10.621094 C 7.1875 10.628906 7.222656 10.632812 7.253906 10.636719 L 7.347656 10.652344 L 7.347656 10.648438 C 7.484375 10.667969 7.71875 10.730469 7.972656 10.878906 L 7.972656 7.121094 C 7.972656 6.578125 7.515625 6.140625 6.960938 6.140625 L 6.84375 6.140625 C 6.289062 6.140625 5.839844 6.578125 5.839844 7.121094 L 5.839844 10.964844 C 5.839844 10.984375 5.839844 11.003906 5.839844 11.027344 C 6.007812 10.886719 6.167969 10.804688 6.269531 10.765625 Z M 6.230469 11.746094 C 6.296875 11.679688 6.363281 11.625 6.441406 11.570312 C 6.800781 11.347656 7.269531 11.355469 7.621094 11.597656 C 7.644531 11.613281 7.667969 11.628906 7.6875 11.644531 C 7.859375 11.46875 7.972656 11.230469 7.972656 10.964844 L 7.972656 10.878906 C 7.71875 10.730469 7.484375 10.667969 7.347656 10.648438 L 7.347656 10.652344 L 7.253906 10.636719 C 7.222656 10.632812 7.183594 10.628906 7.152344 10.621094 L 7.152344 10.964844 C 7.152344 11.070312 7.070312 11.152344 6.960938 11.152344 L 6.84375 11.152344 C 6.738281 11.152344 6.648438 11.070312 6.648438 10.964844 L 6.648438 10.648438 C 6.535156 10.667969 6.425781 10.699219 6.320312 10.746094 L 6.265625 10.765625 C 6.167969 10.804688 6.003906 10.886719 5.839844 11.027344 C 5.859375 11.316406 6.003906 11.578125 6.230469 11.746094 Z M 22.3125 22.9375 C 22.132812 22.972656 22.023438 23.140625 22.050781 23.3125 L 22.300781 24.566406 C 22.335938 24.746094 22.507812 24.851562 22.679688 24.820312 C 22.859375 24.785156 22.96875 24.617188 22.9375 24.449219 L 22.695312 23.199219 C 22.660156 23.019531 22.492188 22.914062 22.3125 22.9375 Z M 26.765625 20.304688 C 26.613281 20.199219 26.410156 20.242188 26.304688 20.390625 C 26.199219 20.53125 26.242188 20.738281 26.394531 20.835938 L 27.484375 21.550781 C 27.636719 21.644531 27.839844 21.609375 27.945312 21.460938 C 28.042969 21.316406 28.007812 21.117188 27.855469 21.019531 Z M 16.976562 23.496094 L 17.714844 22.4375 C 17.820312 22.289062 17.777344 22.089844 17.628906 21.988281 C 17.480469 21.890625 17.269531 21.925781 17.171875 22.074219 L 16.433594 23.132812 C 16.328125 23.28125 16.371094 23.484375 16.519531 23.582031 C 16.675781 23.675781 16.878906 23.644531 16.976562 23.496094 Z M 22.859375 19.828125 C 22.722656 20.339844 22.300781 20.738281 21.757812 20.828125 C 21.21875 20.925781 20.675781 20.703125 20.367188 20.261719 Z M 21.777344 20.910156 C 22.382812 20.804688 22.859375 20.328125 22.964844 19.730469 L 20.234375 20.207031 C 20.542969 20.738281 21.15625 21.019531 21.777344 20.910156 Z M 18.398438 19.476562 L 19.507812 14.589844 L 21.648438 14.214844 L 24.425781 18.425781 Z M 19.4375 14.523438 L 18.292969 19.574219 L 19.496094 19.363281 L 23.355469 18.691406 L 24.5625 18.480469 L 21.691406 14.128906 Z M 22.964844 19.730469 C 22.859375 20.328125 22.382812 20.804688 21.777344 20.910156 C 21.15625 21.019531 20.542969 20.738281 20.234375 20.207031 Z M 20.160156 20.246094 C 20.445312 20.722656 20.964844 21.011719 21.511719 21.011719 C 21.601562 21.011719 21.695312 21.003906 21.785156 20.988281 C 22.429688 20.875 22.9375 20.375 23.042969 19.746094 L 23.0625 19.632812 L 20.105469 20.148438 Z M 23.355469 18.691406 L 19.496094 19.363281 L 18.292969 19.574219 L 19.4375 14.523438 L 21.691406 14.128906 L 24.5625 18.480469 Z M 21.726562 14.042969 L 19.371094 14.453125 L 18.1875 19.675781 L 24.699219 18.542969 L 21.757812 14.085938 Z M 18.507812 11.710938 C 18.523438 11.679688 18.539062 11.648438 18.550781 11.625 C 18.539062 11.652344 18.523438 11.679688 18.507812 11.710938 Z M 21.507812 11.128906 C 21.519531 11.132812 21.527344 11.144531 21.539062 11.152344 C 21.527344 11.144531 21.519531 11.132812 21.507812 11.128906 Z M 19.859375 10.648438 L 19.859375 10.964844 C 19.859375 11.070312 19.941406 11.152344 20.046875 11.152344 L 20.167969 11.152344 C 20.273438 11.152344 20.355469 11.070312 20.355469 10.964844 L 20.355469 10.621094 C 20.1875 10.609375 20.019531 10.617188 19.859375 10.648438 Z M 18.1875 19.675781 L 19.371094 14.453125 L 21.726562 14.042969 L 21.757812 14.085938 L 24.699219 18.542969 Z M 23.042969 19.746094 C 22.9375 20.375 22.429688 20.875 21.785156 20.988281 C 21.695312 21.003906 21.601562 21.011719 21.511719 21.011719 C 20.964844 21.011719 20.445312 20.722656 20.160156 20.246094 L 20.105469 20.148438 L 23.0625 19.632812 Z M 25.714844 18.609375 L 22.316406 13.457031 L 22.070312 12.125 C 22 11.75 21.8125 11.414062 21.539062 11.152344 C 21.527344 11.144531 21.519531 11.132812 21.507812 11.128906 C 21.476562 11.09375 21.441406 11.0625 21.398438 11.03125 L 21.371094 11.011719 L 21.371094 11.003906 C 21.304688 10.953125 21.234375 10.914062 21.171875 10.878906 L 21.171875 10.964844 C 21.171875 11.230469 21.0625 11.46875 20.890625 11.644531 C 21.089844 11.800781 21.21875 12.015625 21.261719 12.261719 L 21.449219 13.28125 L 19.359375 13.644531 L 19.171875 12.628906 L 19.257812 12.613281 L 19.171875 12.628906 C 19.113281 12.300781 19.214844 11.980469 19.4375 11.746094 C 19.214844 11.578125 19.0625 11.316406 19.046875 11.027344 C 18.882812 11.152344 18.71875 11.332031 18.574219 11.570312 C 18.570312 11.585938 18.558594 11.609375 18.550781 11.621094 C 18.539062 11.648438 18.523438 11.679688 18.507812 11.710938 C 18.375 11.992188 18.324219 12.296875 18.351562 12.609375 C 18.351562 12.664062 18.359375 12.714844 18.371094 12.765625 L 18.613281 14.101562 L 18.613281 14.113281 L 17.253906 20.089844 C 17.230469 20.207031 17.261719 20.328125 17.335938 20.421875 C 17.414062 20.519531 17.527344 20.570312 17.652344 20.570312 C 17.679688 20.570312 17.703125 20.570312 17.726562 20.5625 L 19.292969 20.292969 L 19.3125 20.355469 C 19.730469 21.363281 20.828125 21.960938 21.933594 21.773438 C 23.03125 21.578125 23.847656 20.644531 23.878906 19.550781 L 23.878906 19.492188 L 25.441406 19.214844 C 25.578125 19.195312 25.691406 19.109375 25.746094 18.984375 C 25.800781 18.863281 25.785156 18.71875 25.714844 18.609375 Z M 19.523438 10.746094 C 19.632812 10.699219 19.742188 10.667969 19.859375 10.648438 L 19.859375 7.121094 C 19.859375 7.019531 19.941406 6.929688 20.046875 6.929688 L 20.167969 6.929688 C 20.273438 6.929688 20.355469 7.019531 20.355469 7.121094 L 20.355469 10.621094 C 20.394531 10.628906 20.421875 10.632812 20.460938 10.636719 L 20.554688 10.652344 L 20.554688 10.648438 C 20.691406 10.667969 20.921875 10.730469 21.171875 10.878906 L 21.171875 7.121094 C 21.171875 6.578125 20.722656 6.140625 20.167969 6.140625 L 20.046875 6.140625 C 19.492188 6.140625 19.042969 6.578125 19.042969 7.121094 L 19.042969 10.964844 C 19.042969 10.984375 19.042969 11.003906 19.046875 11.027344 C 19.214844 10.886719 19.371094 10.804688 19.472656 10.765625 Z M 19.4375 11.746094 C 19.496094 11.679688 19.566406 11.621094 19.644531 11.570312 C 20.011719 11.347656 20.472656 11.355469 20.828125 11.597656 C 20.847656 11.613281 20.867188 11.628906 20.890625 11.644531 C 21.0625 11.46875 21.171875 11.230469 21.171875 10.964844 L 21.171875 10.878906 C 20.921875 10.730469 20.691406 10.667969 20.554688 10.648438 L 20.554688 10.652344 L 20.460938 10.636719 C 20.421875 10.632812 20.394531 10.628906 20.355469 10.621094 L 20.355469 10.964844 C 20.355469 11.070312 20.273438 11.152344 20.167969 11.152344 L 20.046875 11.152344 C 19.941406 11.152344 19.859375 11.070312 19.859375 10.964844 L 19.859375 10.648438 C 19.742188 10.667969 19.632812 10.699219 19.523438 10.746094 L 19.472656 10.765625 C 19.371094 10.804688 19.214844 10.886719 19.046875 11.027344 C 19.0625 11.316406 19.214844 11.578125 19.4375 11.746094 Z M 19.4375 11.746094 "/>
</g>
</svg>
