<?xml version="1.0" encoding="UTF-8"?>
<svg xmlns="http://www.w3.org/2000/svg" xmlns:xlink="http://www.w3.org/1999/xlink" width="28px" height="28px" viewBox="0 0 28 21" version="1.1">
<g id="surface1">
<path style=" stroke:none;fill-rule:nonzero;fill:rgb(0%,0%,0%);fill-opacity:1;" d="M 26.546875 2.273438 L 1.105469 2.273438 L 1.105469 1.078125 L 26.546875 1.078125 Z M 27.65625 2.273438 L 27.65625 1.078125 C 27.65625 0.484375 27.160156 0 26.546875 0 L 1.105469 0 C 0.496094 0 0 0.484375 0 1.078125 L 0 2.273438 C 0 2.863281 0.496094 3.347656 1.105469 3.347656 L 26.546875 3.347656 C 27.160156 3.347656 27.65625 2.863281 27.65625 2.273438 Z M 9.105469 19.4375 C 8.929688 19.472656 8.820312 19.644531 8.851562 19.8125 L 9.097656 21.066406 C 9.128906 21.246094 9.300781 21.355469 9.472656 21.320312 C 9.65625 21.285156 9.765625 21.117188 9.734375 20.949219 L 9.488281 19.699219 C 9.457031 19.519531 9.289062 19.414062 9.105469 19.4375 Z M 13.558594 16.804688 C 13.410156 16.699219 13.203125 16.742188 13.101562 16.890625 C 12.996094 17.03125 13.039062 17.238281 13.1875 17.335938 L 14.28125 18.050781 C 14.429688 18.148438 14.636719 18.109375 14.738281 17.960938 C 14.84375 17.816406 14.804688 17.617188 14.652344 17.519531 Z M 3.777344 19.996094 L 4.515625 18.9375 C 4.613281 18.789062 4.578125 18.589844 4.425781 18.488281 C 4.273438 18.390625 4.070312 18.425781 3.96875 18.574219 L 3.226562 19.632812 C 3.125 19.78125 3.164062 19.984375 3.316406 20.082031 C 3.472656 20.179688 3.671875 20.144531 3.777344 19.996094 Z M 9.65625 16.328125 C 9.519531 16.839844 9.089844 17.238281 8.550781 17.328125 C 8.011719 17.425781 7.472656 17.203125 7.164062 16.761719 Z M 8.566406 17.410156 C 9.179688 17.304688 9.65625 16.828125 9.761719 16.230469 L 7.027344 16.707031 C 7.335938 17.238281 7.953125 17.519531 8.566406 17.410156 Z M 5.195312 15.976562 L 6.300781 11.089844 L 8.449219 10.714844 L 11.222656 14.925781 Z M 6.230469 11.023438 L 5.085938 16.074219 L 6.296875 15.863281 L 10.15625 15.191406 L 11.359375 14.980469 L 8.484375 10.628906 Z M 9.761719 16.230469 C 9.65625 16.828125 9.179688 17.304688 8.566406 17.410156 C 7.953125 17.519531 7.335938 17.238281 7.027344 16.707031 Z M 6.960938 16.746094 C 7.238281 17.222656 7.761719 17.511719 8.3125 17.511719 C 8.398438 17.511719 8.488281 17.503906 8.582031 17.488281 C 9.226562 17.375 9.734375 16.875 9.839844 16.246094 L 9.863281 16.132812 L 6.902344 16.648438 Z M 10.15625 15.191406 L 6.296875 15.863281 L 5.085938 16.074219 L 6.230469 11.023438 L 8.484375 10.628906 L 11.359375 14.980469 Z M 8.527344 10.542969 L 6.167969 10.953125 L 4.980469 16.175781 L 11.496094 15.042969 L 8.550781 10.585938 Z M 5.304688 8.210938 C 5.316406 8.179688 5.332031 8.148438 5.347656 8.125 C 5.332031 8.152344 5.316406 8.179688 5.304688 8.210938 Z M 8.304688 7.628906 C 8.316406 7.632812 8.328125 7.644531 8.335938 7.652344 C 8.328125 7.644531 8.316406 7.632812 8.304688 7.628906 Z M 6.652344 7.148438 L 6.652344 7.464844 C 6.652344 7.570312 6.738281 7.652344 6.84375 7.652344 L 6.960938 7.652344 C 7.070312 7.652344 7.15625 7.570312 7.15625 7.464844 L 7.15625 7.121094 C 6.984375 7.109375 6.816406 7.117188 6.652344 7.148438 Z M 4.980469 16.175781 L 6.167969 10.953125 L 8.527344 10.542969 L 8.550781 10.585938 L 11.496094 15.042969 Z M 9.839844 16.246094 C 9.734375 16.875 9.226562 17.375 8.582031 17.488281 C 8.488281 17.503906 8.398438 17.511719 8.308594 17.511719 C 7.761719 17.511719 7.238281 17.222656 6.960938 16.746094 L 6.902344 16.648438 L 9.863281 16.132812 Z M 12.511719 15.109375 L 9.105469 9.957031 L 8.867188 8.625 C 8.792969 8.25 8.609375 7.914062 8.335938 7.652344 C 8.328125 7.644531 8.316406 7.632812 8.304688 7.628906 C 8.269531 7.59375 8.234375 7.5625 8.195312 7.53125 L 8.164062 7.511719 L 8.164062 7.503906 C 8.101562 7.453125 8.03125 7.414062 7.972656 7.378906 L 7.972656 7.464844 C 7.972656 7.730469 7.859375 7.96875 7.6875 8.144531 C 7.886719 8.300781 8.011719 8.515625 8.058594 8.761719 L 8.246094 9.78125 L 6.15625 10.144531 L 5.96875 9.128906 L 6.046875 9.113281 L 5.96875 9.128906 C 5.90625 8.800781 6.011719 8.480469 6.230469 8.246094 C 6.007812 8.078125 5.859375 7.816406 5.839844 7.527344 C 5.683594 7.652344 5.507812 7.832031 5.375 8.070312 C 5.363281 8.085938 5.359375 8.109375 5.347656 8.125 C 5.332031 8.148438 5.316406 8.179688 5.304688 8.210938 C 5.175781 8.492188 5.117188 8.796875 5.144531 9.109375 C 5.148438 9.164062 5.160156 9.214844 5.164062 9.265625 L 5.410156 10.601562 L 5.40625 10.613281 L 4.054688 16.589844 C 4.027344 16.707031 4.054688 16.828125 4.132812 16.921875 C 4.210938 17.019531 4.324219 17.070312 4.453125 17.070312 C 4.476562 17.070312 4.5 17.070312 4.523438 17.0625 L 6.085938 16.792969 L 6.113281 16.855469 C 6.527344 17.863281 7.625 18.460938 8.722656 18.273438 C 9.824219 18.078125 10.648438 17.144531 10.679688 16.050781 L 10.679688 15.992188 L 12.238281 15.714844 C 12.375 15.695312 12.484375 15.609375 12.542969 15.484375 C 12.59375 15.363281 12.585938 15.21875 12.511719 15.109375 Z M 6.320312 7.246094 C 6.425781 7.199219 6.535156 7.167969 6.652344 7.148438 L 6.652344 3.621094 C 6.652344 3.519531 6.738281 3.429688 6.84375 3.429688 L 6.960938 3.429688 C 7.070312 3.429688 7.15625 3.519531 7.15625 3.621094 L 7.15625 7.121094 C 7.1875 7.128906 7.222656 7.132812 7.253906 7.136719 L 7.347656 7.152344 L 7.347656 7.148438 C 7.484375 7.167969 7.71875 7.230469 7.972656 7.378906 L 7.972656 3.621094 C 7.972656 3.078125 7.515625 2.640625 6.960938 2.640625 L 6.84375 2.640625 C 6.289062 2.640625 5.839844 3.078125 5.839844 3.621094 L 5.839844 7.464844 C 5.839844 7.484375 5.839844 7.503906 5.839844 7.527344 C 6.007812 7.386719 6.167969 7.304688 6.269531 7.265625 Z M 6.230469 8.246094 C 6.296875 8.179688 6.363281 8.125 6.441406 8.070312 C 6.800781 7.847656 7.269531 7.855469 7.621094 8.097656 C 7.644531 8.113281 7.667969 8.128906 7.6875 8.144531 C 7.859375 7.96875 7.972656 7.730469 7.972656 7.464844 L 7.972656 7.378906 C 7.71875 7.230469 7.484375 7.167969 7.347656 7.148438 L 7.347656 7.152344 L 7.253906 7.136719 C 7.222656 7.132812 7.183594 7.128906 7.152344 7.121094 L 7.152344 7.464844 C 7.152344 7.570312 7.070312 7.652344 6.960938 7.652344 L 6.84375 7.652344 C 6.738281 7.652344 6.648438 7.570312 6.648438 7.464844 L 6.648438 7.148438 C 6.535156 7.167969 6.425781 7.199219 6.320312 7.246094 L 6.265625 7.265625 C 6.167969 7.304688 6.003906 7.386719 5.839844 7.527344 C 5.859375 7.816406 6.003906 8.078125 6.230469 8.246094 Z M 22.3125 19.4375 C 22.132812 19.472656 22.023438 19.640625 22.050781 19.8125 L 22.300781 21.066406 C 22.335938 21.246094 22.507812 21.351562 22.679688 21.320312 C 22.859375 21.285156 22.96875 21.117188 22.9375 20.949219 L 22.695312 19.699219 C 22.660156 19.519531 22.492188 19.414062 22.3125 19.4375 Z M 26.765625 16.804688 C 26.613281 16.699219 26.410156 16.742188 26.304688 16.890625 C 26.199219 17.03125 26.242188 17.238281 26.394531 17.335938 L 27.484375 18.050781 C 27.636719 18.144531 27.839844 18.109375 27.945312 17.960938 C 28.042969 17.816406 28.007812 17.617188 27.855469 17.519531 Z M 16.976562 19.996094 L 17.714844 18.9375 C 17.820312 18.789062 17.777344 18.589844 17.628906 18.488281 C 17.480469 18.390625 17.269531 18.425781 17.171875 18.574219 L 16.433594 19.632812 C 16.328125 19.78125 16.371094 19.984375 16.519531 20.082031 C 16.675781 20.175781 16.878906 20.144531 16.976562 19.996094 Z M 22.859375 16.328125 C 22.722656 16.839844 22.300781 17.238281 21.757812 17.328125 C 21.21875 17.425781 20.675781 17.203125 20.367188 16.761719 Z M 21.777344 17.410156 C 22.382812 17.304688 22.859375 16.828125 22.964844 16.230469 L 20.234375 16.707031 C 20.542969 17.238281 21.15625 17.519531 21.777344 17.410156 Z M 18.398438 15.976562 L 19.507812 11.089844 L 21.648438 10.714844 L 24.425781 14.925781 Z M 19.4375 11.023438 L 18.292969 16.074219 L 19.496094 15.863281 L 23.355469 15.191406 L 24.5625 14.980469 L 21.691406 10.628906 Z M 22.964844 16.230469 C 22.859375 16.828125 22.382812 17.304688 21.777344 17.410156 C 21.15625 17.519531 20.542969 17.238281 20.234375 16.707031 Z M 20.160156 16.746094 C 20.445312 17.222656 20.964844 17.511719 21.511719 17.511719 C 21.601562 17.511719 21.695312 17.503906 21.785156 17.488281 C 22.429688 17.375 22.9375 16.875 23.042969 16.246094 L 23.0625 16.132812 L 20.105469 16.648438 Z M 23.355469 15.191406 L 19.496094 15.863281 L 18.292969 16.074219 L 19.4375 11.023438 L 21.691406 10.628906 L 24.5625 14.980469 Z M 21.726562 10.542969 L 19.371094 10.953125 L 18.1875 16.175781 L 24.699219 15.042969 L 21.757812 10.585938 Z M 18.507812 8.210938 C 18.523438 8.179688 18.539062 8.148438 18.550781 8.125 C 18.539062 8.152344 18.523438 8.179688 18.507812 8.210938 Z M 21.507812 7.628906 C 21.519531 7.632812 21.527344 7.644531 21.539062 7.652344 C 21.527344 7.644531 21.519531 7.632812 21.507812 7.628906 Z M 19.859375 7.148438 L 19.859375 7.464844 C 19.859375 7.570312 19.941406 7.652344 20.046875 7.652344 L 20.167969 7.652344 C 20.273438 7.652344 20.355469 7.570312 20.355469 7.464844 L 20.355469 7.121094 C 20.1875 7.109375 20.019531 7.117188 19.859375 7.148438 Z M 18.1875 16.175781 L 19.371094 10.953125 L 21.726562 10.542969 L 21.757812 10.585938 L 24.699219 15.042969 Z M 23.042969 16.246094 C 22.9375 16.875 22.429688 17.375 21.785156 17.488281 C 21.695312 17.503906 21.601562 17.511719 21.511719 17.511719 C 20.964844 17.511719 20.445312 17.222656 20.160156 16.746094 L 20.105469 16.648438 L 23.0625 16.132812 Z M 25.714844 15.109375 L 22.316406 9.957031 L 22.070312 8.625 C 22 8.25 21.8125 7.914062 21.539062 7.652344 C 21.527344 7.644531 21.519531 7.632812 21.507812 7.628906 C 21.476562 7.59375 21.441406 7.5625 21.398438 7.53125 L 21.371094 7.511719 L 21.371094 7.503906 C 21.304688 7.453125 21.234375 7.414062 21.171875 7.378906 L 21.171875 7.464844 C 21.171875 7.730469 21.0625 7.96875 20.890625 8.144531 C 21.089844 8.300781 21.21875 8.515625 21.261719 8.761719 L 21.449219 9.78125 L 19.359375 10.144531 L 19.171875 9.128906 L 19.257812 9.113281 L 19.171875 9.128906 C 19.113281 8.800781 19.214844 8.480469 19.4375 8.246094 C 19.214844 8.078125 19.0625 7.816406 19.046875 7.527344 C 18.882812 7.652344 18.71875 7.832031 18.574219 8.070312 C 18.570312 8.085938 18.558594 8.109375 18.550781 8.121094 C 18.539062 8.148438 18.523438 8.179688 18.507812 8.210938 C 18.375 8.492188 18.324219 8.796875 18.351562 9.109375 C 18.351562 9.164062 18.359375 9.214844 18.371094 9.265625 L 18.613281 10.601562 L 18.613281 10.613281 L 17.253906 16.589844 C 17.230469 16.707031 17.261719 16.828125 17.335938 16.921875 C 17.414062 17.019531 17.527344 17.070312 17.652344 17.070312 C 17.679688 17.070312 17.703125 17.070312 17.726562 17.0625 L 19.292969 16.792969 L 19.3125 16.855469 C 19.730469 17.863281 20.828125 18.460938 21.933594 18.273438 C 23.03125 18.078125 23.847656 17.144531 23.878906 16.050781 L 23.878906 15.992188 L 25.441406 15.714844 C 25.578125 15.695312 25.691406 15.609375 25.746094 15.484375 C 25.800781 15.363281 25.785156 15.21875 25.714844 15.109375 Z M 19.523438 7.246094 C 19.632812 7.199219 19.742188 7.167969 19.859375 7.148438 L 19.859375 3.621094 C 19.859375 3.519531 19.941406 3.429688 20.046875 3.429688 L 20.167969 3.429688 C 20.273438 3.429688 20.355469 3.519531 20.355469 3.621094 L 20.355469 7.121094 C 20.394531 7.128906 20.421875 7.132812 20.460938 7.136719 L 20.554688 7.152344 L 20.554688 7.148438 C 20.691406 7.167969 20.921875 7.230469 21.171875 7.378906 L 21.171875 3.621094 C 21.171875 3.078125 20.722656 2.640625 20.167969 2.640625 L 20.046875 2.640625 C 19.492188 2.640625 19.042969 3.078125 19.042969 3.621094 L 19.042969 7.464844 C 19.042969 7.484375 19.042969 7.503906 19.046875 7.527344 C 19.214844 7.386719 19.371094 7.304688 19.472656 7.265625 Z M 19.4375 8.246094 C 19.496094 8.179688 19.566406 8.121094 19.644531 8.070312 C 20.011719 7.847656 20.472656 7.855469 20.828125 8.097656 C 20.847656 8.113281 20.867188 8.128906 20.890625 8.144531 C 21.0625 7.96875 21.171875 7.730469 21.171875 7.464844 L 21.171875 7.378906 C 20.921875 7.230469 20.691406 7.167969 20.554688 7.148438 L 20.554688 7.152344 L 20.460938 7.136719 C 20.421875 7.132812 20.394531 7.128906 20.355469 7.121094 L 20.355469 7.464844 C 20.355469 7.570312 20.273438 7.652344 20.167969 7.652344 L 20.046875 7.652344 C 19.941406 7.652344 19.859375 7.570312 19.859375 7.464844 L 19.859375 7.148438 C 19.742188 7.167969 19.632812 7.199219 19.523438 7.246094 L 19.472656 7.265625 C 19.371094 7.304688 19.214844 7.386719 19.046875 7.527344 C 19.0625 7.816406 19.214844 8.078125 19.4375 8.246094 Z M 19.4375 8.246094 "/>
</g>
</svg>
