<?xml version="1.0" encoding="UTF-8"?>
<svg xmlns="http://www.w3.org/2000/svg" xmlns:xlink="http://www.w3.org/1999/xlink" width="28px" height="28px" viewBox="0 0 28 30" version="1.1">
<g id="surface1">
<path style="fill-rule:nonzero;fill:rgb(0%,0%,0%);fill-opacity:1;stroke-width:2.47;stroke-linecap:butt;stroke-linejoin:miter;stroke:rgb(0%,0%,0%);stroke-opacity:1;stroke-miterlimit:22.9256;" d="M 143.767745 123.629867 L 131.695992 97.192107 C 131.308785 96.241275 130.16994 95.870219 129.190534 96.241275 C 128.233904 96.612332 127.869474 97.771882 128.233904 98.722714 L 140.305657 125.160474 C 140.692864 125.948969 141.262287 126.320025 142.036701 126.320025 C 142.218916 126.320025 142.606123 126.320025 142.811115 126.134497 C 143.767745 125.74025 144.132175 124.60389 143.767745 123.629867 Z M 143.767745 123.629867 " transform="matrix(0.171501,0,0,0.168438,0,0.00024394)"/>
<path style="fill-rule:nonzero;fill:rgb(0%,0%,0%);fill-opacity:1;stroke-width:2.47;stroke-linecap:butt;stroke-linejoin:miter;stroke:rgb(0%,0%,0%);stroke-opacity:1;stroke-miterlimit:22.9256;" d="M 85.527231 56.607826 L 83.021773 50.856454 C 82.657343 49.882431 81.495721 49.325846 80.539092 49.882431 C 79.582462 50.276678 79.01304 51.413038 79.582462 52.387061 L 82.065143 58.138433 C 82.270135 58.695018 83.021773 59.274793 83.796187 59.274793 C 83.978402 59.274793 84.365609 59.274793 84.570602 59.089265 C 85.527231 58.718209 86.096653 57.558658 85.527231 56.607826 Z M 85.527231 56.607826 " transform="matrix(0.171501,0,0,0.168438,0,0.00024394)"/>
<path style="fill-rule:nonzero;fill:rgb(0%,0%,0%);fill-opacity:1;stroke-width:2.47;stroke-linecap:butt;stroke-linejoin:miter;stroke:rgb(0%,0%,0%);stroke-opacity:1;stroke-miterlimit:22.9256;" d="M 157.547765 130.911847 L 131.103793 70.963066 C 129.759956 67.507604 127.09506 64.840637 123.632972 63.31003 C 121.719713 62.521536 119.806454 62.150479 117.893195 62.150479 L 107.734701 34.947415 C 106.026434 30.355594 101.607717 27.479908 96.255147 27.479908 C 91.449223 27.850964 82.270135 29.59029 73.068271 36.106966 C 69.059538 39.539237 67.510709 44.710834 69.241753 49.696903 L 70.016167 52.572589 L 59.288251 52.572589 C 58.308845 27.665436 52.956275 1.227676 43.002773 1.227676 C 38.971263 1.227676 35.531952 5.633969 33.049271 12.73042 L 14.645542 12.73042 C 14.281112 12.73042 13.688912 12.915949 13.301705 13.287005 C 12.732283 13.681252 1.229952 24.78975 1.229952 63.101311 C 1.229952 101.018625 12.162861 107.720829 13.301705 108.486133 C 13.506697 108.671661 13.871127 108.671661 14.281112 108.671661 L 32.092641 108.671661 C 34.780315 117.484248 38.401841 123.050092 43.002773 123.050092 C 53.343482 123.050092 58.718829 95.267253 59.288251 68.829492 L 76.348143 68.829492 L 79.605239 77.642079 C 78.830825 78.616102 78.261402 79.566934 77.669203 80.726484 C 75.960936 84.158755 75.778721 88.193992 77.099781 91.834982 L 96.847347 153.499898 C 97.598984 155.424753 99.330028 156.95536 101.243287 157.535135 C 101.812709 157.720663 102.199916 157.720663 102.769339 157.720663 C 103.748745 157.720663 104.705374 157.535135 105.457012 156.95536 L 152.195195 138.379355 C 153.721247 137.985107 156.40892 136.640028 157.570542 134.529646 C 157.934972 133.207758 157.934972 132.048207 157.570542 130.888656 Z M 14.850534 104.682806 C 13.11949 103.337727 5.079247 94.919387 5.079247 62.915783 C 5.079247 30.935369 13.506697 18.852849 15.602171 16.37141 L 31.887649 16.37141 C 28.448339 28.059683 26.717295 45.105081 26.717295 61.964951 C 26.717295 77.479742 28.243347 93.180061 31.136012 104.682806 Z M 39.745677 65.026165 C 38.584056 65.026165 37.809641 65.791469 37.809641 66.95102 C 37.809641 68.110571 38.584056 68.852683 39.745677 68.852683 L 55.438956 68.852683 C 54.687319 101.227344 47.78592 119.246765 43.002773 119.246765 C 37.832418 119.246765 30.543813 98.931433 30.543813 62.150479 C 30.543813 25.369525 38.014633 5.077385 43.002773 5.077385 C 47.398713 5.077385 54.300111 21.937255 55.438956 52.59578 L 39.745677 52.59578 C 38.584056 52.59578 37.809641 53.361084 37.809641 54.520634 C 37.809641 55.656994 38.584056 56.422298 39.745677 56.422298 L 71.542219 56.422298 L 74.799315 65.049356 L 39.745677 65.049356 Z M 72.681064 48.560543 C 71.542219 45.105081 72.498849 41.672811 75.368737 39.168181 C 84.001179 33.045752 92.998052 31.700673 96.255147 31.329617 C 99.89945 31.329617 102.951554 33.23128 104.090398 36.292494 L 113.861685 62.730255 C 113.497255 62.938974 113.110048 62.938974 112.722841 63.124502 L 85.891661 73.258977 C 84.752817 73.653224 83.591195 74.232999 82.634566 74.998303 Z M 153.903462 132.651173 C 153.539032 133.439668 151.990203 134.18178 150.851358 134.576028 L 150.646366 134.576028 L 103.725968 153.360752 C 103.520976 153.360752 103.338761 153.54628 103.338761 153.54628 C 103.156546 153.54628 102.951554 153.917336 102.382131 153.731808 C 101.607717 153.54628 100.85608 152.780977 100.651088 152.201201 L 80.744084 90.698622 C 79.787454 88.031655 79.787454 84.970441 81.131291 82.465811 C 82.270135 79.798844 84.570602 77.873989 87.258275 76.899967 L 114.248892 66.765492 C 115.410514 66.371244 116.549358 66.000188 117.893195 66.000188 C 119.237032 66.000188 120.763084 66.371244 122.10692 66.95102 C 124.589601 68.110571 126.525637 70.012234 127.45949 72.516864 L 153.903462 132.465645 C 154.108454 132.465645 154.108454 132.465645 153.903462 132.651173 Z M 153.903462 132.651173 " transform="matrix(0.171501,0,0,0.168438,0,0.00024394)"/>
<path style=" stroke:none;fill-rule:evenodd;fill:rgb(0%,0%,0%);fill-opacity:1;" d="M 23.839844 29.554688 C 23.773438 29.5 23.726562 29.429688 23.699219 29.339844 L 23 27.226562 C 22.914062 26.964844 23.0625 26.691406 23.324219 26.605469 C 23.585938 26.527344 23.863281 26.664062 23.953125 26.921875 L 24.648438 29.042969 C 24.738281 29.300781 24.589844 29.574219 24.328125 29.660156 C 24.152344 29.71875 23.964844 29.671875 23.839844 29.558594 Z M 23.839844 29.554688 "/>
<path style=" stroke:none;fill-rule:evenodd;fill:rgb(0%,0%,0%);fill-opacity:1;" d="M 25.527344 26.34375 C 25.363281 26.203125 25.308594 25.960938 25.417969 25.761719 C 25.542969 25.519531 25.84375 25.421875 26.089844 25.550781 L 28.105469 26.5625 C 28.355469 26.683594 28.449219 26.980469 28.324219 27.222656 C 28.195312 27.460938 27.898438 27.558594 27.652344 27.433594 L 25.632812 26.421875 C 25.59375 26.398438 25.558594 26.375 25.527344 26.34375 Z M 25.527344 26.34375 "/>
<path style=" stroke:none;fill-rule:evenodd;fill:rgb(0%,0%,0%);fill-opacity:1;" d="M 18.984375 30.078125 C 18.820312 29.9375 18.765625 29.695312 18.875 29.496094 L 19.90625 27.511719 C 20.03125 27.269531 20.328125 27.175781 20.578125 27.300781 C 20.824219 27.421875 20.917969 27.71875 20.792969 27.960938 L 19.761719 29.945312 C 19.632812 30.183594 19.335938 30.277344 19.089844 30.15625 C 19.050781 30.132812 19.015625 30.109375 18.984375 30.078125 Z M 18.984375 30.078125 "/>
</g>
</svg>
