<?xml version="1.0" encoding="UTF-8"?>
<svg xmlns="http://www.w3.org/2000/svg" xmlns:xlink="http://www.w3.org/1999/xlink" width="28px" height="28px" viewBox="0 0 28 28" version="1.1">
<g id="surface1">
<path style="fill-rule:nonzero;fill:rgb(0%,0%,0%);fill-opacity:1;stroke-width:1.36;stroke-linecap:butt;stroke-linejoin:miter;stroke:rgb(0%,0%,0%);stroke-opacity:1;stroke-miterlimit:22.9256;" d="M 78.757158 67.741123 L 72.149689 53.255518 C 71.943962 52.73515 71.314679 52.529423 70.794311 52.73515 C 70.273942 52.952979 70.056114 53.582261 70.273942 54.10263 L 76.881411 68.576133 C 77.087138 68.999689 77.413881 69.205416 77.825335 69.205416 C 77.93425 69.205416 78.152078 69.205416 78.248891 69.108603 C 78.76926 68.902876 78.974987 68.273594 78.76926 67.753225 Z M 78.757158 67.741123 " transform="matrix(0.322788,0,0,0.322788,0,0.00115756)"/>
<path style="fill-rule:nonzero;fill:rgb(0%,0%,0%);fill-opacity:1;stroke-width:1.36;stroke-linecap:butt;stroke-linejoin:miter;stroke:rgb(0%,0%,0%);stroke-opacity:1;stroke-miterlimit:22.9256;" d="M 46.857363 31.012793 L 45.501984 27.854278 C 45.284156 27.333909 44.654873 27.019268 44.134504 27.333909 C 43.614136 27.539636 43.299495 28.168919 43.614136 28.689287 L 44.981616 31.835701 C 45.078429 32.162444 45.501984 32.464984 45.92554 32.464984 C 46.022353 32.464984 46.240181 32.464984 46.336994 32.35607 C 46.869464 32.150343 47.184106 31.52106 46.869464 31.000691 Z M 46.857363 31.012793 " transform="matrix(0.322788,0,0,0.322788,0,0.00115756)"/>
<path style="fill-rule:nonzero;fill:rgb(0%,0%,0%);fill-opacity:1;stroke-width:1.36;stroke-linecap:butt;stroke-linejoin:miter;stroke:rgb(0%,0%,0%);stroke-opacity:1;stroke-miterlimit:22.9256;" d="M 86.320653 71.734649 L 71.835048 38.878828 C 71.108952 36.990979 69.644659 35.514585 67.74471 34.679575 C 66.703973 34.25602 65.651134 34.050293 64.598296 34.050293 L 59.043665 19.153233 C 58.08764 16.624001 55.679423 15.062895 52.738736 15.062895 C 50.124792 15.268622 45.078429 16.212547 40.044167 19.782516 C 37.841677 21.670364 36.994565 24.502137 37.93849 27.224995 L 38.362045 28.798202 L 32.480672 28.798202 C 31.960303 15.159708 29.019617 0.674103 23.561799 0.674103 C 21.359309 0.674103 19.471461 3.08232 18.103981 6.966931 L 8.023355 6.966931 C 7.805527 6.966931 7.490885 7.075845 7.285158 7.293674 C 6.970517 7.499401 0.677689 13.586501 0.677689 34.582763 C 0.677689 55.361195 6.655875 59.027978 7.285158 59.451533 C 7.394072 59.560448 7.611901 59.560448 7.805527 59.560448 L 17.571511 59.560448 C 19.035804 64.388983 21.032566 67.426482 23.549697 67.426482 C 29.225344 67.426482 32.16603 52.214781 32.46857 37.729176 L 41.810999 37.729176 L 43.589933 42.557711 C 43.166377 43.090181 42.863837 43.61055 42.537094 44.239833 C 41.605272 46.127681 41.484256 48.330171 42.234555 50.326933 L 53.041276 84.126678 C 53.464832 85.179517 54.396654 86.014527 55.449493 86.329168 C 55.764134 86.425981 55.981963 86.425981 56.284502 86.425981 C 56.816972 86.425981 57.337341 86.329168 57.760897 86.014527 L 83.367864 75.824987 C 84.214976 75.61926 85.679268 74.893164 86.308551 73.731411 C 86.514278 73.005316 86.514278 72.376033 86.308551 71.734649 Z M 8.13227 57.345856 C 7.188345 56.619761 2.783366 51.996953 2.783366 34.473848 C 2.783366 16.938642 7.394072 10.331173 8.555825 8.975795 L 17.474698 8.975795 C 15.574748 15.365435 14.642926 24.707864 14.642926 33.95348 C 14.642926 42.448797 15.477936 51.06513 17.051143 57.345856 Z M 21.770763 35.623499 C 21.14148 35.623499 20.717925 36.034954 20.717925 36.664236 C 20.717925 37.305621 21.14148 37.717075 21.770763 37.717075 L 30.374995 37.717075 C 29.963541 55.458008 26.175743 65.320805 23.561799 65.320805 C 20.730026 65.320805 16.736501 54.187341 16.736501 34.038191 C 16.736501 13.889041 20.826839 2.755577 23.561799 2.755577 C 25.970016 2.755577 29.745712 12.001193 30.374995 28.7861 L 21.770763 28.7861 C 21.14148 28.7861 20.717925 29.209656 20.717925 29.838939 C 20.717925 30.468221 21.14148 30.891777 21.770763 30.891777 L 39.184954 30.891777 L 40.975989 35.611398 L 21.758662 35.611398 Z M 39.814236 26.595712 C 39.184954 24.695762 39.717424 22.807914 41.29063 21.452536 C 46.010251 18.088293 50.947701 17.362198 52.726634 17.144369 C 54.723397 17.144369 56.405518 18.197208 57.034801 19.879329 L 62.383705 34.364934 C 62.165876 34.461747 61.960149 34.461747 61.754422 34.570661 L 47.06309 40.125292 C 46.433807 40.34312 45.804524 40.64566 45.284156 41.069216 Z M 84.32389 72.666471 C 84.106061 73.090027 83.271052 73.513583 82.641769 73.71931 L 82.544956 73.71931 L 56.829074 84.005663 C 56.72016 84.005663 56.623347 84.114577 56.623347 84.114577 C 56.514433 84.114577 56.405518 84.320304 56.102979 84.21139 C 55.679423 84.114577 55.255867 83.691021 55.146953 83.364278 L 44.243419 49.685549 C 43.710949 48.209155 43.710949 46.527033 44.449146 45.171655 C 45.078429 43.695261 46.336994 42.654524 47.813388 42.134156 L 62.613635 36.567424 C 63.242918 36.361697 63.8722 36.155969 64.598296 36.155969 C 65.324391 36.155969 66.171503 36.361697 66.9097 36.676338 C 68.265078 37.305621 69.317917 38.358459 69.850387 39.725939 L 84.335992 72.569659 C 84.432804 72.569659 84.432804 72.569659 84.335992 72.666471 Z M 84.32389 72.666471 " transform="matrix(0.322788,0,0,0.322788,0,0.00115756)"/>
</g>
</svg>
