<?xml version="1.0" encoding="UTF-8"?>
<svg xmlns="http://www.w3.org/2000/svg" xmlns:xlink="http://www.w3.org/1999/xlink" width="28px" height="28px" viewBox="0 0 28 28" version="1.1">
<g id="surface1">
<path style="fill-rule:nonzero;fill:rgb(0%,0%,0%);fill-opacity:1;stroke-width:1.36;stroke-linecap:butt;stroke-linejoin:miter;stroke:rgb(0%,0%,0%);stroke-opacity:1;stroke-miterlimit:22.9256;" d="M 78.757187 67.741149 L 72.149716 53.255538 C 71.943989 52.73517 71.314706 52.529443 70.794337 52.73517 C 70.273969 52.952998 70.05614 53.582281 70.273969 54.10265 L 76.88144 68.576159 C 77.087167 68.999715 77.41391 69.205442 77.825364 69.205442 C 77.934279 69.205442 78.152108 69.205442 78.24892 69.108629 C 78.769289 68.902902 78.975016 68.273619 78.769289 67.75325 Z M 78.757187 67.741149 " transform="matrix(0.322788,0,0,0.322788,0,0.00115756)"/>
<path style="fill-rule:nonzero;fill:rgb(0%,0%,0%);fill-opacity:1;stroke-width:1.36;stroke-linecap:butt;stroke-linejoin:miter;stroke:rgb(0%,0%,0%);stroke-opacity:1;stroke-miterlimit:22.9256;" d="M 46.85738 31.012805 L 45.502001 27.854288 C 45.284173 27.333919 44.65489 27.019278 44.134521 27.333919 C 43.614152 27.539647 43.299511 28.16893 43.614152 28.689298 L 44.981633 31.835713 C 45.078445 32.162456 45.502001 32.464996 45.925557 32.464996 C 46.02237 32.464996 46.240199 32.464996 46.337011 32.356082 C 46.869482 32.150355 47.184123 31.521072 46.869482 31.000703 Z M 46.85738 31.012805 " transform="matrix(0.322788,0,0,0.322788,0,0.00115756)"/>
<path style="fill-rule:nonzero;fill:rgb(0%,0%,0%);fill-opacity:1;stroke-width:1.36;stroke-linecap:butt;stroke-linejoin:miter;stroke:rgb(0%,0%,0%);stroke-opacity:1;stroke-miterlimit:22.9256;" d="M 86.320685 71.734676 L 71.835074 38.878842 C 71.108979 36.990993 69.644686 35.514598 67.744735 34.679588 C 66.703998 34.256032 65.651159 34.050305 64.59832 34.050305 L 59.043687 19.15324 C 58.087661 16.624007 55.679444 15.062901 52.738756 15.062901 C 50.124811 15.268628 45.078445 16.212553 40.044181 19.782523 C 37.841691 21.670372 36.994579 24.502146 37.938504 27.225005 L 38.36206 28.798213 L 32.480684 28.798213 C 31.960315 15.159714 29.019627 0.674103 23.561808 0.674103 C 21.359317 0.674103 19.471468 3.082321 18.103988 6.966933 L 8.023358 6.966933 C 7.805529 6.966933 7.490888 7.075848 7.285161 7.293676 C 6.970519 7.499403 0.677689 13.586506 0.677689 34.582776 C 0.677689 55.361216 6.655878 59.028 7.285161 59.451555 C 7.394075 59.56047 7.611904 59.56047 7.805529 59.56047 L 17.571518 59.56047 C 19.035811 64.389007 21.032574 67.426507 23.549706 67.426507 C 29.225355 67.426507 32.166042 52.214801 32.468582 37.72919 L 41.811015 37.72919 L 43.589949 42.557727 C 43.166393 43.090198 42.863853 43.610566 42.53711 44.239849 C 41.605287 46.127698 41.484271 48.330189 42.23457 50.326952 L 53.041296 84.12671 C 53.464852 85.179549 54.396674 86.014559 55.449513 86.3292 C 55.764155 86.426013 55.981984 86.426013 56.284523 86.426013 C 56.816994 86.426013 57.337362 86.3292 57.760918 86.014559 L 83.367895 75.825015 C 84.215007 75.619288 85.6793 74.893192 86.308583 73.731439 C 86.51431 73.005343 86.51431 72.37606 86.308583 71.734676 Z M 8.132273 57.345878 C 7.188348 56.619782 2.783367 51.996972 2.783367 34.473861 C 2.783367 16.938648 7.394075 10.331177 8.555828 8.975798 L 17.474705 8.975798 C 15.574754 15.365441 14.642931 24.707873 14.642931 33.953493 C 14.642931 42.448813 15.477941 51.065149 17.051149 57.345878 Z M 21.770771 35.623513 C 21.141488 35.623513 20.717933 36.034967 20.717933 36.66425 C 20.717933 37.305635 21.141488 37.717089 21.770771 37.717089 L 30.375006 37.717089 C 29.963552 55.458029 26.175752 65.32083 23.561808 65.32083 C 20.730034 65.32083 16.736507 54.187361 16.736507 34.038204 C 16.736507 13.889046 20.826847 2.755578 23.561808 2.755578 C 25.970025 2.755578 29.745723 12.001197 30.375006 28.786111 L 21.770771 28.786111 C 21.141488 28.786111 20.717933 29.209667 20.717933 29.83895 C 20.717933 30.468233 21.141488 30.891789 21.770771 30.891789 L 39.184968 30.891789 L 40.976004 35.611411 L 21.75867 35.611411 Z M 39.814251 26.595722 C 39.184968 24.695771 39.717438 22.807923 41.290646 21.452544 C 46.010268 18.0883 50.94772 17.362204 52.726654 17.144376 C 54.723418 17.144376 56.405539 18.197214 57.034822 19.879336 L 62.383728 34.364947 C 62.165899 34.46176 61.960172 34.46176 61.754445 34.570674 L 47.063107 40.125307 C 46.433824 40.343135 45.804541 40.645675 45.284173 41.069231 Z M 84.323922 72.666498 C 84.106093 73.090054 83.271083 73.51361 82.6418 73.719337 L 82.544987 73.719337 L 56.829095 84.005694 C 56.720181 84.005694 56.623368 84.114608 56.623368 84.114608 C 56.514454 84.114608 56.405539 84.320335 56.102999 84.211421 C 55.679444 84.114608 55.255888 83.691052 55.146973 83.364309 L 44.243435 49.685567 C 43.710965 48.209173 43.710965 46.527051 44.449162 45.171672 C 45.078445 43.695277 46.337011 42.65454 47.813406 42.134171 L 62.613658 36.567437 C 63.242941 36.36171 63.872224 36.155983 64.59832 36.155983 C 65.324416 36.155983 66.171527 36.36171 66.909725 36.676352 C 68.265104 37.305635 69.317942 38.358473 69.850413 39.725954 L 84.336023 72.569686 C 84.432836 72.569686 84.432836 72.569686 84.336023 72.666498 Z M 84.323922 72.666498 " transform="matrix(0.322788,0,0,0.322788,0,0.00115756)"/>
</g>
</svg>
