<?xml version="1.0" encoding="UTF-8"?>
<svg xmlns="http://www.w3.org/2000/svg" xmlns:xlink="http://www.w3.org/1999/xlink" width="28px" height="28px" viewBox="0 0 28 44" version="1.1">
<g id="surface1">
<path style="fill-rule:nonzero;fill:rgb(0%,0%,0%);fill-opacity:1;stroke-width:0.46;stroke-linecap:butt;stroke-linejoin:miter;stroke:rgb(0%,0%,0%);stroke-opacity:1;stroke-miterlimit:22.9256;" d="M 12.038484 36.078905 L 25.078381 36.078905 C 25.440899 36.078905 25.731632 35.791762 25.731632 35.429244 L 25.731632 6.750803 C 25.731632 6.388285 25.440899 6.101142 25.078381 6.101142 L 12.038484 6.101142 C 11.679555 6.101142 11.388822 6.388285 11.388822 6.750803 L 11.388822 26.301675 L 4.870669 26.301675 L 4.870669 0.878722 C 4.870669 0.519793 4.579936 0.229061 4.221007 0.229061 L 0.879376 0.229061 C 0.520447 0.229061 0.229715 0.519793 0.229715 0.878722 L 0.229715 39.991233 C 0.240483 40.780877 1.249073 40.640895 1.611592 40.640895 L 4.221007 40.640895 C 4.579936 40.640895 4.870669 40.350162 4.870669 39.991233 L 4.870669 32.819829 L 11.388822 32.819829 L 11.388822 35.429244 C 11.388822 35.791762 11.679555 36.078905 12.038484 36.078905 Z M 3.571345 39.341572 L 1.539806 39.341572 L 1.539806 1.528384 L 3.571345 1.528384 Z M 12.698914 34.779582 L 24.428719 34.779582 Z M 24.428719 7.400465 L 24.428719 34.779582 L 12.698914 34.779582 L 12.698914 7.400465 Z M 4.881437 31.520505 L 4.881437 27.611766 L 11.39959 27.611766 L 11.39959 31.520505 Z M 4.881437 31.520505 " transform="matrix(1.088307,0,0,1.088307,0,0.00461813)"/>
</g>
</svg>
