<?xml version="1.0" encoding="UTF-8"?>
<svg xmlns="http://www.w3.org/2000/svg" xmlns:xlink="http://www.w3.org/1999/xlink" width="28px" height="28px" viewBox="0 0 28 28" version="1.1">
<g id="surface1">
<path style="fill-rule:nonzero;fill:rgb(0%,0%,0%);fill-opacity:1;stroke-width:0.36;stroke-linecap:butt;stroke-linejoin:miter;stroke:rgb(0%,0%,0%);stroke-opacity:1;stroke-miterlimit:22.9256;" d="M 9.487859 28.425987 L 19.759741 28.425987 C 20.039144 28.425987 20.267747 28.200771 20.267747 27.919251 L 20.267747 5.320875 C 20.267747 5.039355 20.039144 4.809021 19.759741 4.809021 L 9.487859 4.809021 C 9.208456 4.809021 8.979853 5.039355 8.979853 5.320875 L 8.979853 20.732814 L 3.838832 20.732814 L 3.838832 0.698829 C 3.838832 0.417309 3.610229 0.186975 3.330826 0.186975 L 0.699355 0.186975 C 0.419952 0.186975 0.191349 0.417309 0.191349 0.698829 L 0.191349 31.517588 C 0.196429 32.147169 0.988918 32.029443 1.278482 32.029443 L 3.330826 32.029443 C 3.610229 32.029443 3.838832 31.799108 3.838832 31.517588 L 3.838832 25.871833 L 8.979853 25.871833 L 8.979853 27.919251 C 8.979853 28.200771 9.208456 28.425987 9.487859 28.425987 Z M 2.80758 31.000615 L 1.207361 31.000615 L 1.207361 1.210684 L 2.80758 1.210684 Z M 10.000945 27.402278 L 19.251735 27.402278 Z M 19.251735 5.827611 L 19.251735 27.402278 L 10.000945 27.402278 L 10.000945 5.827611 Z M 3.838832 24.837887 L 3.838832 21.761642 L 8.979853 21.761642 L 8.979853 24.837887 Z M 3.838832 24.837887 " transform="matrix(0.768938,0,0,0.763156,5.833333,0.00184036)"/>
<path style=" stroke:none;fill-rule:nonzero;fill:rgb(0%,0%,0%);fill-opacity:1;" d="M 17.273438 24.710938 C 17 24.710938 16.78125 24.933594 16.78125 25.191406 L 16.78125 27.171875 C 16.78125 27.4375 17.003906 27.65625 17.273438 27.65625 C 17.550781 27.65625 17.765625 27.4375 17.765625 27.171875 L 17.765625 25.207031 C 17.765625 24.941406 17.550781 24.726562 17.273438 24.710938 Z M 17.273438 24.710938 "/>
<path style=" stroke:none;fill-rule:nonzero;fill:rgb(0%,0%,0%);fill-opacity:1;" d="M 20.3125 23.851562 C 20.121094 23.660156 19.796875 23.660156 19.605469 23.851562 C 19.410156 24.042969 19.410156 24.359375 19.605469 24.550781 L 21.019531 25.925781 C 21.210938 26.117188 21.535156 26.117188 21.726562 25.925781 C 21.921875 25.734375 21.921875 25.421875 21.726562 25.226562 L 20.3125 23.84375 Z M 20.3125 23.851562 "/>
<path style=" stroke:none;fill-rule:nonzero;fill:rgb(0%,0%,0%);fill-opacity:1;" d="M 13.339844 25.933594 L 14.738281 24.546875 C 14.929688 24.355469 14.929688 24.03125 14.738281 23.84375 C 14.542969 23.652344 14.222656 23.652344 14.03125 23.84375 L 12.628906 25.230469 C 12.4375 25.421875 12.4375 25.742188 12.628906 25.933594 C 12.835938 26.125 13.144531 26.125 13.339844 25.933594 Z M 13.339844 25.933594 "/>
</g>
</svg>
