<?xml version="1.0" encoding="UTF-8"?>
<svg xmlns="http://www.w3.org/2000/svg" xmlns:xlink="http://www.w3.org/1999/xlink" width="28px" height="28px" viewBox="0 0 28 48" version="1.1">
<g id="surface1">
<path style="fill-rule:nonzero;fill:rgb(0%,0%,0%);fill-opacity:1;stroke-width:0.36;stroke-linecap:butt;stroke-linejoin:miter;stroke:rgb(0%,0%,0%);stroke-opacity:1;stroke-miterlimit:22.9256;" d="M 9.488703 28.42854 L 19.759734 28.42854 C 20.041254 28.42854 20.269433 28.198632 20.269433 27.920951 L 20.269433 5.321301 C 20.269433 5.040634 20.041254 4.810726 19.759734 4.810726 L 9.488703 4.810726 C 9.210146 4.810726 8.979003 5.040634 8.979003 5.321301 L 8.979003 20.731103 L 3.840524 20.731103 L 3.840524 0.699256 C 3.840524 0.418589 3.609382 0.188681 3.330825 0.188681 L 0.699355 0.188681 C 0.420798 0.188681 0.189656 0.418589 0.189656 0.699256 L 0.189656 31.518861 C 0.198546 32.148868 0.989765 32.029436 1.280175 32.029436 L 3.330825 32.029436 C 3.609382 32.029436 3.840524 31.799528 3.840524 31.518861 L 3.840524 25.869695 L 8.979003 25.869695 L 8.979003 27.920951 C 8.979003 28.198632 9.210146 28.42854 9.488703 28.42854 Z M 2.809272 30.999329 L 1.209054 30.999329 L 1.209054 1.20983 L 2.809272 1.20983 Z M 10.001365 27.401419 L 19.250035 27.401419 Z M 19.250035 5.82889 L 19.250035 27.401419 L 10.001365 27.401419 L 10.001365 5.82889 Z M 3.840524 24.839588 L 3.840524 21.76121 L 8.979003 21.76121 L 8.979003 24.839588 Z M 3.840524 24.839588 " transform="matrix(1.318179,0,0,1.308268,0,0.00315491)"/>
<path style=" stroke:none;fill-rule:nonzero;fill:rgb(0%,0%,0%);fill-opacity:1;" d="M 19.613281 42.363281 C 19.140625 42.363281 18.769531 42.746094 18.769531 43.1875 L 18.769531 46.578125 C 18.769531 47.035156 19.152344 47.414062 19.613281 47.414062 C 20.089844 47.414062 20.457031 47.035156 20.457031 46.578125 L 20.457031 43.214844 C 20.457031 42.757812 20.089844 42.390625 19.613281 42.363281 Z M 19.613281 42.363281 "/>
<path style=" stroke:none;fill-rule:nonzero;fill:rgb(0%,0%,0%);fill-opacity:1;" d="M 24.820312 40.886719 C 24.492188 40.558594 23.9375 40.558594 23.609375 40.886719 C 23.277344 41.214844 23.277344 41.761719 23.609375 42.089844 L 26.035156 44.445312 C 26.363281 44.773438 26.917969 44.773438 27.246094 44.445312 C 27.578125 44.117188 27.578125 43.582031 27.246094 43.242188 L 24.820312 40.875 Z M 24.820312 40.886719 "/>
<path style=" stroke:none;fill-rule:nonzero;fill:rgb(0%,0%,0%);fill-opacity:1;" d="M 12.867188 44.457031 L 15.265625 42.078125 C 15.59375 41.75 15.59375 41.199219 15.265625 40.875 C 14.933594 40.546875 14.382812 40.546875 14.050781 40.875 L 11.652344 43.253906 C 11.324219 43.582031 11.324219 44.132812 11.652344 44.457031 C 12.007812 44.785156 12.535156 44.785156 12.867188 44.457031 Z M 12.867188 44.457031 "/>
</g>
</svg>
