<?xml version="1.0" encoding="UTF-8"?>
<svg xmlns="http://www.w3.org/2000/svg" xmlns:xlink="http://www.w3.org/1999/xlink" width="28px" height="28px" viewBox="0 0 28 28" version="1.1">
<g id="surface1">
<path style=" stroke:none;fill-rule:nonzero;fill:rgb(0%,0%,0%);fill-opacity:1;" d="M 14.210938 25.03125 C 13.914062 25.03125 13.675781 25.28125 13.675781 25.5625 L 13.675781 27.726562 C 13.675781 28.027344 13.921875 28.261719 14.210938 28.261719 C 14.511719 28.261719 14.75 28.015625 14.75 27.726562 L 14.75 25.578125 C 14.75 25.28125 14.515625 25.046875 14.210938 25.03125 Z M 14.210938 25.03125 "/>
<path style=" stroke:none;fill-rule:nonzero;fill:rgb(0%,0%,0%);fill-opacity:1;" d="M 22.234375 22.027344 C 22.019531 21.820312 21.675781 21.820312 21.460938 22.027344 C 21.25 22.242188 21.25 22.589844 21.460938 22.796875 L 23.003906 24.320312 C 23.21875 24.527344 23.5625 24.527344 23.777344 24.320312 C 23.988281 24.105469 23.988281 23.757812 23.777344 23.550781 L 22.238281 22.035156 Z M 22.234375 22.027344 "/>
<path style=" stroke:none;fill-rule:nonzero;fill:rgb(0%,0%,0%);fill-opacity:1;" d="M 5.414062 24.320312 L 6.945312 22.792969 C 7.15625 22.585938 7.15625 22.234375 6.945312 22.019531 C 6.730469 21.8125 6.386719 21.8125 6.171875 22.019531 L 4.644531 23.550781 C 4.429688 23.757812 4.429688 24.105469 4.644531 24.320312 C 4.867188 24.527344 5.203125 24.527344 5.414062 24.320312 Z M 5.414062 24.320312 "/>
<path style=" stroke:none;fill-rule:nonzero;fill:rgb(0%,0%,0%);fill-opacity:1;" d="M 13.097656 7.121094 C 13.097656 7.464844 13.097656 7.800781 13.097656 8.160156 C 13.824219 8.160156 14.539062 8.160156 15.257812 8.160156 C 15.257812 7.820312 15.257812 7.476562 15.257812 7.121094 C 14.527344 7.121094 13.824219 7.121094 13.097656 7.121094 Z M 17.535156 19.449219 C 15.273438 19.449219 13.035156 19.449219 10.792969 19.449219 C 10.957031 21.023438 12.417969 22.28125 14.097656 22.3125 C 15.78125 22.34375 17.3125 21.082031 17.542969 19.449219 Z M 23.742188 18.320312 C 23.515625 13.460938 19.34375 8.964844 13.609375 9.269531 C 8 9.574219 4.601562 14.265625 4.546875 18.320312 C 10.941406 18.320312 17.335938 18.320312 23.742188 18.320312 Z M 14.757812 6.011719 C 14.953125 6.011719 15.101562 6.007812 15.246094 6.011719 C 15.9375 6.03125 16.375 6.464844 16.386719 7.152344 C 16.398438 7.546875 16.386719 7.9375 16.386719 8.34375 C 16.734375 8.441406 17.070312 8.523438 17.398438 8.628906 C 20.703125 9.714844 22.894531 11.964844 24.152344 15.167969 C 24.589844 16.300781 24.792969 17.480469 24.832031 18.683594 C 24.851562 19.230469 24.664062 19.429688 24.125 19.429688 C 22.390625 19.429688 20.660156 19.429688 18.921875 19.429688 C 18.824219 19.429688 18.722656 19.429688 18.605469 19.429688 C 18.394531 20.75 17.808594 21.839844 16.707031 22.605469 C 15.898438 23.167969 14.996094 23.414062 14.011719 23.40625 C 12.242188 23.394531 10.085938 22.222656 9.613281 19.429688 C 9.523438 19.429688 9.425781 19.429688 9.328125 19.429688 C 7.589844 19.429688 5.855469 19.429688 4.125 19.429688 C 3.554688 19.429688 3.398438 19.234375 3.414062 18.675781 C 3.445312 17.402344 3.671875 16.164062 4.136719 14.972656 C 5.007812 12.753906 6.460938 11.019531 8.472656 9.757812 C 9.507812 9.109375 10.625 8.65625 11.816406 8.382812 C 12.011719 8.34375 12.074219 8.257812 12.0625 8.074219 C 12.050781 7.796875 12.054688 7.519531 12.0625 7.242188 C 12.070312 6.433594 12.496094 5.996094 13.304688 5.996094 C 13.421875 5.996094 13.539062 5.996094 13.695312 5.996094 C 13.695312 5.875 13.695312 5.785156 13.695312 5.679688 C 13.691406 4.035156 13.675781 2.398438 13.667969 0.75 C 13.667969 0.664062 13.667969 0.570312 13.675781 0.480469 C 13.707031 0.195312 13.902344 0 14.175781 -0.0117188 C 14.433594 -0.0273438 14.664062 0.164062 14.710938 0.441406 C 14.730469 0.539062 14.722656 0.640625 14.722656 0.738281 C 14.738281 2.371094 14.75 4.011719 14.761719 5.636719 C 14.761719 5.746094 14.761719 5.855469 14.761719 5.996094 Z M 14.757812 6.011719 "/>
</g>
</svg>
