<?xml version="1.0" encoding="UTF-8"?>
<svg xmlns="http://www.w3.org/2000/svg" xmlns:xlink="http://www.w3.org/1999/xlink" width="28px" height="28px" viewBox="0 0 28 37" version="1.1">
<g id="surface1">
<path style=" stroke:none;fill-rule:nonzero;fill:rgb(0%,0%,0%);fill-opacity:1;" d="M 14.28125 33.078125 C 13.886719 33.078125 13.570312 33.40625 13.570312 33.78125 L 13.570312 36.640625 C 13.570312 37.035156 13.894531 37.34375 14.28125 37.34375 C 14.675781 37.34375 14.992188 37.019531 14.992188 36.640625 L 14.992188 33.800781 C 14.992188 33.40625 14.683594 33.097656 14.28125 33.078125 Z M 14.28125 33.078125 "/>
<path style=" stroke:none;fill-rule:nonzero;fill:rgb(0%,0%,0%);fill-opacity:1;" d="M 24.878906 29.109375 C 24.597656 28.832031 24.144531 28.832031 23.859375 29.109375 C 23.578125 29.390625 23.578125 29.851562 23.859375 30.125 L 25.898438 32.136719 C 26.179688 32.410156 26.636719 32.410156 26.917969 32.136719 C 27.199219 31.855469 27.199219 31.394531 26.917969 31.121094 L 24.886719 29.117188 Z M 24.878906 29.109375 "/>
<path style=" stroke:none;fill-rule:nonzero;fill:rgb(0%,0%,0%);fill-opacity:1;" d="M 2.65625 32.136719 L 4.675781 30.117188 C 4.957031 29.84375 4.957031 29.382812 4.675781 29.097656 C 4.394531 28.824219 3.941406 28.824219 3.65625 29.097656 L 1.636719 31.121094 C 1.355469 31.394531 1.355469 31.855469 1.636719 32.136719 C 1.929688 32.410156 2.375 32.410156 2.65625 32.136719 Z M 2.65625 32.136719 "/>
<path style=" stroke:none;fill-rule:nonzero;fill:rgb(0%,0%,0%);fill-opacity:1;" d="M 12.808594 9.410156 C 12.808594 9.863281 12.808594 10.308594 12.808594 10.785156 C 13.769531 10.785156 14.710938 10.785156 15.660156 10.785156 C 15.660156 10.332031 15.660156 9.878906 15.660156 9.410156 C 14.699219 9.410156 13.769531 9.410156 12.808594 9.410156 Z M 18.671875 25.699219 C 15.683594 25.699219 12.722656 25.699219 9.761719 25.699219 C 9.976562 27.78125 11.910156 29.441406 14.128906 29.484375 C 16.351562 29.527344 18.375 27.859375 18.683594 25.699219 Z M 26.875 24.210938 C 26.574219 17.789062 21.0625 11.847656 13.484375 12.25 C 6.070312 12.652344 1.578125 18.851562 1.507812 24.210938 C 9.957031 24.210938 18.40625 24.210938 26.875 24.210938 Z M 15 7.945312 C 15.257812 7.945312 15.453125 7.9375 15.644531 7.945312 C 16.558594 7.96875 17.140625 8.542969 17.15625 9.453125 C 17.167969 9.972656 17.15625 10.488281 17.15625 11.027344 C 17.613281 11.15625 18.058594 11.265625 18.492188 11.402344 C 22.859375 12.839844 25.753906 15.8125 27.414062 20.042969 C 27.996094 21.539062 28.261719 23.097656 28.3125 24.691406 C 28.339844 25.410156 28.089844 25.675781 27.378906 25.675781 C 25.085938 25.675781 22.800781 25.675781 20.503906 25.675781 C 20.375 25.675781 20.238281 25.675781 20.085938 25.675781 C 19.804688 27.421875 19.03125 28.859375 17.578125 29.871094 C 16.507812 30.613281 15.316406 30.941406 14.015625 30.929688 C 11.679688 30.914062 8.828125 29.363281 8.203125 25.675781 C 8.082031 25.675781 7.953125 25.675781 7.828125 25.675781 C 5.53125 25.675781 3.238281 25.675781 0.953125 25.675781 C 0.199219 25.675781 -0.0078125 25.417969 0.0117188 24.679688 C 0.0546875 22.996094 0.351562 21.359375 0.96875 19.785156 C 2.117188 16.855469 4.035156 14.5625 6.695312 12.894531 C 8.066406 12.035156 9.539062 11.4375 11.113281 11.078125 C 11.371094 11.027344 11.457031 10.914062 11.4375 10.667969 C 11.421875 10.300781 11.429688 9.9375 11.4375 9.570312 C 11.449219 8.5 12.011719 7.925781 13.082031 7.925781 C 13.238281 7.925781 13.390625 7.925781 13.597656 7.925781 C 13.597656 7.765625 13.597656 7.644531 13.597656 7.507812 C 13.589844 5.332031 13.570312 3.167969 13.5625 0.992188 C 13.5625 0.875 13.5625 0.753906 13.570312 0.632812 C 13.613281 0.257812 13.871094 0 14.230469 -0.015625 C 14.574219 -0.0351562 14.878906 0.214844 14.941406 0.582031 C 14.964844 0.710938 14.957031 0.847656 14.957031 0.976562 C 14.976562 3.132812 14.992188 5.300781 15.007812 7.449219 C 15.007812 7.59375 15.007812 7.738281 15.007812 7.925781 Z M 15 7.945312 "/>
</g>
</svg>
