<?xml version="1.0" encoding="UTF-8"?>
<svg xmlns="http://www.w3.org/2000/svg" xmlns:xlink="http://www.w3.org/1999/xlink" width="28px" height="28px" viewBox="0 0 28 31" version="1.1">
<g id="surface1">
<path style=" stroke:none;fill-rule:nonzero;fill:rgb(0%,0%,0%);fill-opacity:1;" d="M 12.8125 9.40625 C 12.8125 9.859375 12.8125 10.304688 12.8125 10.785156 C 13.769531 10.785156 14.710938 10.785156 15.664062 10.785156 C 15.664062 10.324219 15.664062 9.878906 15.664062 9.40625 C 14.703125 9.40625 13.769531 9.40625 12.8125 9.40625 Z M 18.675781 25.699219 C 15.691406 25.699219 12.730469 25.699219 9.765625 25.699219 C 9.980469 27.773438 11.90625 29.433594 14.128906 29.480469 C 16.351562 29.523438 18.371094 27.851562 18.675781 25.699219 Z M 26.875 24.210938 C 26.570312 17.785156 21.0625 11.84375 13.480469 12.25 C 6.066406 12.648438 1.574219 18.847656 1.507812 24.210938 C 9.953125 24.210938 18.398438 24.210938 26.875 24.210938 Z M 15 7.945312 C 15.257812 7.945312 15.453125 7.941406 15.644531 7.945312 C 16.554688 7.972656 17.136719 8.546875 17.15625 9.453125 C 17.164062 9.972656 17.15625 10.492188 17.15625 11.035156 C 17.617188 11.164062 18.0625 11.269531 18.496094 11.414062 C 22.867188 12.851562 25.75 15.824219 27.414062 20.046875 C 28.003906 21.542969 28.257812 23.101562 28.3125 24.699219 C 28.332031 25.421875 28.097656 25.675781 27.378906 25.675781 C 25.089844 25.675781 22.800781 25.675781 20.5 25.675781 C 20.375 25.675781 20.238281 25.675781 20.089844 25.675781 C 19.8125 27.421875 19.035156 28.859375 17.582031 29.875 C 16.515625 30.617188 15.324219 30.949219 14.019531 30.933594 C 11.683594 30.914062 8.832031 29.375 8.210938 25.675781 C 8.089844 25.675781 7.960938 25.675781 7.832031 25.675781 C 5.539062 25.675781 3.25 25.675781 0.960938 25.675781 C 0.210938 25.675781 0 25.421875 0.0195312 24.675781 C 0.0664062 22.988281 0.359375 21.351562 0.980469 19.785156 C 2.128906 16.859375 4.039062 14.5625 6.703125 12.894531 C 8.066406 12.035156 9.546875 11.441406 11.117188 11.082031 C 11.367188 11.027344 11.453125 10.917969 11.441406 10.675781 C 11.417969 10.3125 11.433594 9.945312 11.433594 9.582031 C 11.441406 8.507812 12.007812 7.941406 13.074219 7.941406 C 13.230469 7.941406 13.386719 7.941406 13.589844 7.941406 C 13.589844 7.777344 13.589844 7.65625 13.589844 7.527344 C 13.574219 5.351562 13.570312 3.191406 13.554688 1.015625 C 13.554688 0.898438 13.554688 0.769531 13.5625 0.65625 C 13.601562 0.277344 13.859375 0.0273438 14.222656 0.0078125 C 14.570312 -0.0117188 14.871094 0.238281 14.941406 0.601562 C 14.960938 0.722656 14.960938 0.863281 14.960938 0.992188 C 14.972656 3.15625 14.996094 5.3125 15.007812 7.46875 C 15.007812 7.609375 15.007812 7.757812 15.007812 7.945312 Z M 15 7.945312 "/>
</g>
</svg>
