<?xml version="1.0" encoding="UTF-8"?>
<svg xmlns="http://www.w3.org/2000/svg" xmlns:xlink="http://www.w3.org/1999/xlink" width="28px" height="28px" viewBox="0 0 28 28" version="1.1">
<g id="surface1">
<path style=" stroke:none;fill-rule:nonzero;fill:rgb(0%,0%,0%);fill-opacity:1;" d="M 12.925781 8.496094 C 12.925781 8.90625 12.925781 9.308594 12.925781 9.742188 C 13.792969 9.742188 14.640625 9.742188 15.503906 9.742188 C 15.503906 9.324219 15.503906 8.921875 15.503906 8.496094 C 14.636719 8.496094 13.792969 8.496094 12.925781 8.496094 Z M 18.222656 23.210938 C 15.527344 23.210938 12.851562 23.210938 10.175781 23.210938 C 10.371094 25.085938 12.109375 26.585938 14.117188 26.628906 C 16.125 26.667969 17.949219 25.15625 18.222656 23.210938 Z M 25.628906 21.867188 C 25.355469 16.0625 20.378906 10.699219 13.53125 11.066406 C 6.835938 11.425781 2.777344 17.023438 2.714844 21.867188 C 10.34375 21.867188 17.972656 21.867188 25.628906 21.867188 Z M 14.902344 7.175781 C 15.136719 7.175781 15.3125 7.171875 15.484375 7.175781 C 16.308594 7.199219 16.832031 7.71875 16.851562 8.539062 C 16.859375 9.007812 16.851562 9.476562 16.851562 9.96875 C 17.265625 10.082031 17.667969 10.179688 18.0625 10.308594 C 22.007812 11.609375 24.613281 14.292969 26.117188 18.105469 C 26.648438 19.457031 26.878906 20.867188 26.925781 22.308594 C 26.945312 22.960938 26.734375 23.191406 26.085938 23.191406 C 24.015625 23.191406 21.949219 23.191406 19.871094 23.191406 C 19.757812 23.191406 19.632812 23.191406 19.5 23.191406 C 19.25 24.769531 18.546875 26.066406 17.234375 26.984375 C 16.273438 27.652344 15.195312 27.953125 14.019531 27.941406 C 11.90625 27.921875 9.332031 26.53125 8.769531 23.191406 C 8.660156 23.191406 8.546875 23.191406 8.429688 23.191406 C 6.359375 23.191406 4.289062 23.191406 2.222656 23.191406 C 1.546875 23.191406 1.355469 22.960938 1.371094 22.289062 C 1.414062 20.761719 1.679688 19.285156 2.242188 17.871094 C 3.277344 15.226562 5.003906 13.152344 7.410156 11.648438 C 8.640625 10.871094 9.976562 10.335938 11.394531 10.007812 C 11.621094 9.960938 11.699219 9.863281 11.6875 9.644531 C 11.667969 9.316406 11.683594 8.984375 11.683594 8.65625 C 11.6875 7.683594 12.199219 7.171875 13.164062 7.171875 C 13.304688 7.171875 13.445312 7.171875 13.628906 7.171875 C 13.628906 7.023438 13.628906 6.914062 13.628906 6.800781 C 13.617188 4.832031 13.613281 2.882812 13.597656 0.917969 C 13.597656 0.8125 13.597656 0.695312 13.605469 0.59375 C 13.640625 0.25 13.871094 0.0234375 14.199219 0.0078125 C 14.515625 -0.0117188 14.785156 0.214844 14.851562 0.542969 C 14.867188 0.652344 14.867188 0.78125 14.867188 0.894531 C 14.878906 2.851562 14.898438 4.796875 14.910156 6.746094 C 14.910156 6.871094 14.910156 7.007812 14.910156 7.175781 Z M 14.902344 7.175781 "/>
</g>
</svg>
