<?xml version="1.0" encoding="UTF-8"?>
<svg xmlns="http://www.w3.org/2000/svg" xmlns:xlink="http://www.w3.org/1999/xlink" width="28px" height="28px" viewBox="0 0 28 28" version="1.1">
<g id="surface1">
<path style=" stroke:none;fill-rule:nonzero;fill:rgb(0%,0%,0%);fill-opacity:1;" d="M 14.433594 22.019531 C 14.25 22.039062 14.0625 22.054688 13.875 22.054688 C 12.691406 22.0625 11.550781 21.613281 10.671875 20.832031 C 8.691406 19.070312 8.515625 16.035156 10.285156 14.054688 C 10.703125 13.582031 11.207031 13.207031 11.765625 12.9375 C 11.875 12.878906 11.941406 12.769531 11.941406 12.644531 L 11.941406 11.800781 L 13.554688 11.800781 L 13.554688 13.273438 L 12.683594 14.136719 C 12.5625 14.261719 12.5625 14.464844 12.683594 14.59375 C 12.8125 14.714844 13.019531 14.714844 13.144531 14.59375 L 13.875 13.859375 L 14.613281 14.59375 C 14.734375 14.714844 14.941406 14.714844 15.066406 14.59375 C 15.191406 14.46875 15.191406 14.265625 15.066406 14.136719 L 14.199219 13.273438 L 14.199219 11.800781 L 15.796875 11.800781 L 15.796875 12.636719 C 15.796875 12.761719 15.875 12.871094 15.976562 12.929688 C 18.371094 14.089844 19.367188 16.957031 18.203125 19.351562 C 17.488281 20.824219 16.0625 21.832031 14.429688 22.019531 Z M 17.515625 13.199219 C 17.191406 12.910156 16.828125 12.65625 16.445312 12.441406 L 16.445312 11.195312 C 16.378906 11.226562 16.296875 11.238281 16.207031 11.246094 C 15.75 11.246094 15.296875 11.199219 14.84375 11.152344 L 13.097656 11.152344 C 12.515625 11.183594 11.9375 11.1875 11.351562 11.128906 C 11.335938 11.128906 11.324219 11.128906 11.308594 11.125 L 11.308594 12.449219 C 8.652344 13.859375 7.640625 17.160156 9.0625 19.808594 C 9.367188 20.375 9.761719 20.878906 10.238281 21.308594 L 10.230469 21.308594 C 12.476562 23.3125 15.925781 23.128906 17.933594 20.894531 C 19.949219 18.648438 19.753906 15.207031 17.511719 13.199219 Z M 17.515625 13.199219 "/>
<path style=" stroke:none;fill-rule:nonzero;fill:rgb(0%,0%,0%);fill-opacity:1;" d="M 14.433594 22.019531 C 14.25 22.039062 14.0625 22.054688 13.875 22.054688 C 12.691406 22.0625 11.550781 21.613281 10.671875 20.832031 C 8.691406 19.070312 8.515625 16.035156 10.285156 14.054688 C 10.703125 13.582031 11.207031 13.207031 11.765625 12.9375 C 11.875 12.878906 11.941406 12.769531 11.941406 12.644531 L 11.941406 11.800781 L 13.554688 11.800781 L 13.554688 13.273438 L 12.683594 14.136719 C 12.5625 14.261719 12.5625 14.464844 12.683594 14.59375 C 12.8125 14.714844 13.019531 14.714844 13.144531 14.59375 L 13.875 13.859375 L 14.613281 14.59375 C 14.734375 14.714844 14.941406 14.714844 15.066406 14.59375 C 15.191406 14.46875 15.191406 14.265625 15.066406 14.136719 L 14.199219 13.273438 L 14.199219 11.800781 L 15.796875 11.800781 L 15.796875 12.636719 C 15.796875 12.761719 15.875 12.871094 15.976562 12.929688 C 18.371094 14.089844 19.367188 16.957031 18.203125 19.351562 C 17.488281 20.824219 16.0625 21.832031 14.429688 22.019531 Z M 17.515625 13.199219 C 17.191406 12.910156 16.828125 12.65625 16.445312 12.441406 L 16.445312 11.195312 C 16.378906 11.226562 16.296875 11.238281 16.207031 11.246094 C 15.75 11.246094 15.296875 11.199219 14.84375 11.152344 L 13.097656 11.152344 C 12.515625 11.183594 11.9375 11.1875 11.351562 11.128906 C 11.335938 11.128906 11.324219 11.128906 11.308594 11.125 L 11.308594 12.449219 C 8.652344 13.859375 7.640625 17.160156 9.0625 19.808594 C 9.367188 20.375 9.761719 20.878906 10.238281 21.308594 L 10.230469 21.308594 C 12.476562 23.3125 15.925781 23.128906 17.933594 20.894531 C 19.949219 18.648438 19.753906 15.207031 17.511719 13.199219 Z M 17.515625 13.199219 "/>
<path style=" stroke:none;fill-rule:nonzero;fill:rgb(0%,0%,0%);fill-opacity:1;" d="M 14.421875 5.167969 C 14.410156 3.675781 14.398438 2.183594 14.386719 0.6875 C 14.386719 0.597656 14.386719 0.5 14.371094 0.414062 C 14.324219 0.164062 14.117188 -0.0078125 13.875 0.00390625 C 13.625 0.015625 13.449219 0.191406 13.421875 0.457031 C 13.410156 0.542969 13.414062 0.625 13.414062 0.710938 C 13.421875 2.207031 13.429688 3.710938 13.433594 5.21875 C 13.433594 5.277344 13.433594 5.351562 13.433594 5.425781 L 14.421875 5.425781 C 14.421875 5.332031 14.421875 5.253906 14.421875 5.171875 Z M 14.421875 5.167969 "/>
<path style=" stroke:none;fill-rule:nonzero;fill:rgb(0%,0%,0%);fill-opacity:1;" d="M 21.234375 23.6875 C 21.234375 24.808594 20.632812 25.867188 19.671875 26.449219 C 19.496094 26.558594 19.308594 26.648438 19.117188 26.71875 C 19.167969 26.574219 19.191406 26.425781 19.191406 26.269531 C 19.191406 25.480469 18.539062 24.832031 17.746094 24.832031 L 9.957031 24.832031 C 9.160156 24.832031 8.511719 25.480469 8.511719 26.269531 C 8.511719 26.425781 8.535156 26.574219 8.585938 26.71875 C 8.394531 26.644531 8.207031 26.558594 8.03125 26.449219 C 7.066406 25.871094 6.46875 24.808594 6.46875 23.6875 L 6.46875 15.6875 C 6.46875 14.640625 7.039062 13.664062 7.953125 13.148438 L 10.390625 11.761719 L 11.707031 11.761719 L 11.707031 11.773438 L 12.507812 11.773438 L 12.507812 11.761719 L 15.199219 11.761719 L 15.199219 11.773438 L 16 11.773438 L 16 11.761719 L 17.316406 11.761719 L 19.753906 13.148438 C 20.667969 13.664062 21.238281 14.640625 21.238281 15.6875 L 21.238281 23.6875 Z M 17.738281 26.917969 L 9.949219 26.917969 C 9.59375 26.917969 9.308594 26.628906 9.308594 26.269531 C 9.308594 25.917969 9.59375 25.632812 9.949219 25.632812 L 17.738281 25.632812 C 18.097656 25.632812 18.382812 25.925781 18.382812 26.269531 C 18.382812 26.628906 18.09375 26.917969 17.738281 26.917969 Z M 10.675781 10.214844 L 10.675781 7.476562 C 10.675781 6.636719 11.355469 5.960938 12.195312 5.960938 L 15.496094 5.960938 C 16.335938 5.960938 17.015625 6.636719 17.015625 7.476562 L 17.015625 10.96875 L 10.675781 10.96875 Z M 20.144531 12.457031 L 17.816406 11.136719 L 17.816406 7.476562 C 17.816406 6.195312 16.773438 5.160156 15.496094 5.160156 L 14.25 5.160156 L 14.25 0.6875 C 14.25 0.46875 14.066406 0.289062 13.847656 0.289062 C 13.628906 0.289062 13.449219 0.46875 13.449219 0.6875 L 13.449219 5.160156 L 12.199219 5.160156 C 10.917969 5.160156 9.882812 6.195312 9.882812 7.476562 L 9.882812 11.136719 L 7.550781 12.457031 C 6.386719 13.117188 5.664062 14.355469 5.664062 15.691406 L 5.664062 23.691406 C 5.664062 25.089844 6.410156 26.417969 7.617188 27.140625 C 8.246094 27.515625 8.972656 27.722656 9.703125 27.722656 L 18.003906 27.722656 C 18.734375 27.722656 19.460938 27.515625 20.089844 27.140625 C 21.296875 26.417969 22.042969 25.089844 22.042969 23.691406 L 22.042969 15.691406 C 22.042969 14.355469 21.320312 13.117188 20.15625 12.457031 Z M 20.144531 12.457031 "/>
</g>
</svg>
