<?xml version="1.0" encoding="UTF-8"?>
<svg xmlns="http://www.w3.org/2000/svg" xmlns:xlink="http://www.w3.org/1999/xlink" width="28px" height="28px" viewBox="0 0 28 47" version="1.1">
<g id="surface1">
<path style=" stroke:none;fill-rule:nonzero;fill:rgb(0%,0%,0%);fill-opacity:1;" d="M 14.730469 36.960938 C 14.417969 36.992188 14.105469 37.023438 13.792969 37.023438 C 11.804688 37.03125 9.890625 36.28125 8.414062 34.964844 C 5.085938 32.011719 4.796875 26.914062 7.765625 23.59375 C 8.46875 22.800781 9.308594 22.171875 10.25 21.71875 C 10.433594 21.621094 10.546875 21.4375 10.546875 21.222656 L 10.546875 19.808594 L 13.25 19.808594 L 13.25 22.277344 L 11.792969 23.730469 C 11.585938 23.9375 11.585938 24.277344 11.792969 24.496094 C 12.003906 24.703125 12.355469 24.703125 12.5625 24.496094 L 13.792969 23.265625 L 15.027344 24.496094 C 15.234375 24.703125 15.578125 24.703125 15.792969 24.496094 C 16 24.289062 16 23.945312 15.792969 23.730469 L 14.335938 22.277344 L 14.335938 19.808594 L 17.015625 19.808594 L 17.015625 21.214844 C 17.015625 21.421875 17.144531 21.605469 17.320312 21.703125 C 21.335938 23.648438 23.007812 28.460938 21.054688 32.484375 C 19.855469 34.957031 17.464844 36.648438 14.722656 36.960938 Z M 19.902344 22.15625 C 19.359375 21.667969 18.75 21.246094 18.105469 20.886719 L 18.105469 18.789062 C 17.992188 18.84375 17.855469 18.867188 17.703125 18.875 C 16.9375 18.875 16.175781 18.796875 15.417969 18.722656 L 12.484375 18.722656 C 11.507812 18.773438 10.539062 18.78125 9.554688 18.683594 C 9.53125 18.683594 9.507812 18.683594 9.484375 18.675781 L 9.484375 20.894531 C 5.023438 23.265625 3.328125 28.804688 5.710938 33.25 C 6.222656 34.199219 6.886719 35.046875 7.683594 35.765625 L 7.675781 35.765625 C 11.441406 39.132812 17.234375 38.820312 20.605469 35.070312 C 23.988281 31.300781 23.660156 25.523438 19.894531 22.15625 Z M 19.902344 22.15625 "/>
<path style=" stroke:none;fill-rule:nonzero;fill:rgb(0%,0%,0%);fill-opacity:1;" d="M 14.730469 36.960938 C 14.417969 36.992188 14.105469 37.023438 13.792969 37.023438 C 11.804688 37.03125 9.890625 36.28125 8.414062 34.964844 C 5.085938 32.011719 4.796875 26.914062 7.765625 23.59375 C 8.46875 22.800781 9.308594 22.171875 10.25 21.71875 C 10.433594 21.621094 10.546875 21.4375 10.546875 21.222656 L 10.546875 19.808594 L 13.25 19.808594 L 13.25 22.277344 L 11.792969 23.730469 C 11.585938 23.9375 11.585938 24.277344 11.792969 24.496094 C 12.003906 24.703125 12.355469 24.703125 12.5625 24.496094 L 13.792969 23.265625 L 15.027344 24.496094 C 15.234375 24.703125 15.578125 24.703125 15.792969 24.496094 C 16 24.289062 16 23.945312 15.792969 23.730469 L 14.335938 22.277344 L 14.335938 19.808594 L 17.015625 19.808594 L 17.015625 21.214844 C 17.015625 21.421875 17.144531 21.605469 17.320312 21.703125 C 21.335938 23.648438 23.007812 28.460938 21.054688 32.484375 C 19.855469 34.957031 17.464844 36.648438 14.722656 36.960938 Z M 19.902344 22.15625 C 19.359375 21.667969 18.75 21.246094 18.105469 20.886719 L 18.105469 18.789062 C 17.992188 18.84375 17.855469 18.867188 17.703125 18.875 C 16.9375 18.875 16.175781 18.796875 15.417969 18.722656 L 12.484375 18.722656 C 11.507812 18.773438 10.539062 18.78125 9.554688 18.683594 C 9.53125 18.683594 9.507812 18.683594 9.484375 18.675781 L 9.484375 20.894531 C 5.023438 23.265625 3.328125 28.804688 5.710938 33.25 C 6.222656 34.199219 6.886719 35.046875 7.683594 35.765625 L 7.675781 35.765625 C 11.441406 39.132812 17.234375 38.820312 20.605469 35.070312 C 23.988281 31.300781 23.660156 25.523438 19.894531 22.15625 Z M 19.902344 22.15625 "/>
<path style=" stroke:none;fill-rule:nonzero;fill:rgb(0%,0%,0%);fill-opacity:1;" d="M 14.707031 8.675781 C 14.691406 6.171875 14.671875 3.664062 14.648438 1.15625 C 14.648438 1 14.648438 0.839844 14.625 0.695312 C 14.546875 0.273438 14.195312 -0.015625 13.792969 0.0078125 C 13.371094 0.0234375 13.074219 0.320312 13.027344 0.765625 C 13.011719 0.910156 13.019531 1.046875 13.019531 1.191406 C 13.027344 3.703125 13.042969 6.226562 13.050781 8.757812 C 13.050781 8.859375 13.050781 8.980469 13.050781 9.105469 L 14.707031 9.105469 C 14.707031 8.949219 14.707031 8.820312 14.707031 8.683594 Z M 14.707031 8.675781 "/>
<path style=" stroke:none;fill-rule:nonzero;fill:rgb(0%,0%,0%);fill-opacity:1;" d="M 26.140625 39.761719 C 26.140625 41.644531 25.132812 43.417969 23.519531 44.398438 C 23.222656 44.582031 22.910156 44.734375 22.589844 44.847656 C 22.671875 44.605469 22.710938 44.359375 22.710938 44.097656 C 22.710938 42.769531 21.621094 41.679688 20.289062 41.679688 L 7.210938 41.679688 C 5.878906 41.679688 4.789062 42.769531 4.789062 44.097656 C 4.789062 44.359375 4.828125 44.605469 4.910156 44.847656 C 4.589844 44.726562 4.277344 44.582031 3.980469 44.398438 C 2.359375 43.425781 1.359375 41.644531 1.359375 39.761719 L 1.359375 26.332031 C 1.359375 24.574219 2.3125 22.9375 3.847656 22.070312 L 7.941406 19.746094 L 10.148438 19.746094 L 10.148438 19.761719 L 11.492188 19.761719 L 11.492188 19.746094 L 16.015625 19.746094 L 16.015625 19.761719 L 17.359375 19.761719 L 17.359375 19.746094 L 19.566406 19.746094 L 23.660156 22.070312 C 25.195312 22.9375 26.148438 24.574219 26.148438 26.332031 L 26.148438 39.761719 Z M 20.277344 45.183594 L 7.203125 45.183594 C 6.605469 45.183594 6.125 44.695312 6.125 44.097656 C 6.125 43.503906 6.605469 43.027344 7.203125 43.027344 L 20.277344 43.027344 C 20.878906 43.027344 21.359375 43.515625 21.359375 44.097656 C 21.359375 44.695312 20.871094 45.183594 20.277344 45.183594 Z M 8.421875 17.144531 L 8.421875 12.546875 C 8.421875 11.140625 9.5625 10.007812 10.972656 10.007812 L 16.511719 10.007812 C 17.921875 10.007812 19.0625 11.140625 19.0625 12.546875 L 19.0625 18.414062 L 8.421875 18.414062 Z M 24.316406 20.910156 L 20.40625 18.691406 L 20.40625 12.546875 C 20.40625 10.398438 18.65625 8.660156 16.511719 8.660156 L 14.417969 8.660156 L 14.417969 1.15625 C 14.417969 0.789062 14.113281 0.488281 13.746094 0.488281 C 13.378906 0.488281 13.074219 0.789062 13.074219 1.15625 L 13.074219 8.660156 L 10.980469 8.660156 C 8.828125 8.660156 7.085938 10.398438 7.085938 12.546875 L 7.085938 18.691406 L 3.175781 20.910156 C 1.222656 22.019531 0.0078125 24.09375 0.0078125 26.339844 L 0.0078125 39.769531 C 0.0078125 42.117188 1.261719 44.34375 3.285156 45.558594 C 4.34375 46.1875 5.558594 46.53125 6.789062 46.53125 L 20.71875 46.53125 C 21.949219 46.53125 23.164062 46.1875 24.222656 45.558594 C 26.246094 44.34375 27.5 42.117188 27.5 39.769531 L 27.5 26.339844 C 27.5 24.09375 26.285156 22.019531 24.332031 20.910156 Z M 24.316406 20.910156 "/>
</g>
</svg>
