<?xml version="1.0" encoding="UTF-8"?>
<svg xmlns="http://www.w3.org/2000/svg" xmlns:xlink="http://www.w3.org/1999/xlink" width="28px" height="28px" viewBox="0 0 28 28" version="1.1">
<g id="surface1">
<path style="fill:none;stroke-width:4.72;stroke-linecap:butt;stroke-linejoin:miter;stroke:rgb(0%,0%,0%);stroke-opacity:1;stroke-miterlimit:10;" d="M 81.221312 76.915242 C 81.221312 98.688943 63.580422 116.3491 41.800149 116.3491 C 20.019875 116.3491 2.362815 98.688943 2.362815 76.915242 C 2.362815 55.12502 20.019875 37.464863 41.800149 37.464863 C 63.580422 37.464863 81.221312 55.12502 81.221312 76.915242 Z M 81.221312 76.915242 " transform="matrix(0.241582,0,0,0.236452,3.948718,0.00072935)"/>
<path style=" stroke:none;fill-rule:nonzero;fill:rgb(0%,0%,0%);fill-opacity:1;" d="M 15.09375 8.261719 L 13.074219 8.261719 L 13.074219 7.3125 L 15.09375 7.3125 Z M 24.023438 17.886719 C 23.988281 16.777344 23.804688 15.703125 23.390625 14.671875 C 22.21875 11.746094 20.175781 9.691406 17.085938 8.695312 C 16.78125 8.597656 16.46875 8.519531 16.144531 8.429688 C 16.144531 8.058594 16.148438 7.699219 16.144531 7.339844 C 16.132812 6.710938 15.722656 6.3125 15.078125 6.292969 C 14.941406 6.289062 14.800781 6.292969 14.621094 6.292969 C 14.621094 6.269531 14.621094 6.238281 14.621094 6.21875 L 13.617188 6.21875 C 13.617188 6.238281 13.617188 6.269531 13.617188 6.292969 C 13.472656 6.292969 13.359375 6.292969 13.25 6.292969 C 12.496094 6.296875 12.097656 6.6875 12.09375 7.429688 C 12.089844 7.679688 12.082031 7.933594 12.097656 8.183594 C 12.105469 8.363281 12.046875 8.429688 11.867188 8.472656 C 10.753906 8.71875 9.710938 9.132812 8.746094 9.726562 C 6.859375 10.878906 5.507812 12.472656 4.699219 14.492188 C 4.261719 15.582031 4.050781 16.714844 4.023438 17.882812 C 4.007812 18.398438 4.15625 18.570312 4.6875 18.570312 C 4.769531 18.570312 4.847656 18.570312 4.933594 18.570312 C 4.847656 17.898438 4.84375 17.226562 4.839844 16.546875 C 4.839844 16.242188 5.039062 16.070312 5.273438 16.023438 C 6.03125 12.75 9.019531 9.515625 13.546875 9.273438 C 18.589844 9.011719 22.332031 12.632812 22.9375 16.765625 C 23.105469 16.910156 23.21875 17.121094 23.226562 17.375 C 23.238281 17.769531 23.230469 18.171875 23.175781 18.566406 C 23.238281 18.566406 23.300781 18.566406 23.363281 18.566406 C 23.867188 18.566406 24.039062 18.382812 24.019531 17.886719 Z M 24.023438 17.886719 "/>
<path style=" stroke:none;fill-rule:nonzero;fill:rgb(0%,0%,0%);fill-opacity:1;" d="M 13.335938 6.464844 C 13.488281 6.402344 13.640625 6.359375 13.800781 6.328125 L 13.800781 1.378906 C 13.800781 1.234375 13.921875 1.113281 14.070312 1.113281 L 14.234375 1.113281 C 14.382812 1.113281 14.503906 1.234375 14.503906 1.378906 L 14.503906 6.296875 C 14.550781 6.300781 14.597656 6.304688 14.644531 6.3125 L 14.777344 6.332031 L 14.777344 6.328125 C 14.96875 6.359375 15.289062 6.445312 15.644531 6.648438 L 15.644531 1.378906 C 15.644531 0.617188 15.011719 -0.00390625 14.234375 -0.00390625 L 14.074219 -0.00390625 C 13.296875 -0.00390625 12.664062 0.613281 12.664062 1.378906 L 12.664062 6.777344 C 12.664062 6.804688 12.667969 6.828125 12.671875 6.855469 C 12.902344 6.667969 13.125 6.554688 13.265625 6.488281 Z M 13.335938 6.464844 "/>
</g>
</svg>
