<?xml version="1.0" encoding="UTF-8"?>
<svg xmlns="http://www.w3.org/2000/svg" xmlns:xlink="http://www.w3.org/1999/xlink" width="28px" height="28px" viewBox="0 0 28 39" version="1.1">
<g id="surface1">
<path style="fill:none;stroke-width:4.72;stroke-linecap:butt;stroke-linejoin:miter;stroke:rgb(0%,0%,0%);stroke-opacity:1;stroke-miterlimit:10;" d="M 81.227008 76.913566 C 81.227008 98.689814 63.581581 116.350398 41.803409 116.350398 C 20.025238 116.350398 2.356593 98.689814 2.356593 76.913566 C 2.356593 55.125457 20.025238 37.464872 41.803409 37.464872 C 63.581581 37.464872 81.227008 55.125457 81.227008 76.913566 Z M 81.227008 76.913566 " transform="matrix(0.336489,0,0,0.329344,0,0.00101588)"/>
<path style=" stroke:none;fill-rule:nonzero;fill:rgb(0%,0%,0%);fill-opacity:1;" d="M 15.523438 11.507812 L 12.710938 11.507812 L 12.710938 10.1875 L 15.523438 10.1875 Z M 27.960938 24.914062 C 27.914062 23.371094 27.65625 21.871094 27.078125 20.433594 C 25.445312 16.363281 22.601562 13.496094 18.300781 12.109375 C 17.875 11.976562 17.4375 11.867188 16.984375 11.742188 C 16.984375 11.226562 16.992188 10.722656 16.984375 10.222656 C 16.972656 9.347656 16.398438 8.792969 15.5 8.765625 C 15.308594 8.757812 15.117188 8.765625 14.863281 8.765625 C 14.863281 8.730469 14.863281 8.691406 14.863281 8.664062 L 13.464844 8.664062 C 13.464844 8.691406 13.464844 8.730469 13.464844 8.765625 C 13.265625 8.765625 13.109375 8.765625 12.957031 8.765625 C 11.90625 8.769531 11.351562 9.3125 11.34375 10.347656 C 11.339844 10.699219 11.328125 11.050781 11.347656 11.398438 C 11.359375 11.648438 11.277344 11.742188 11.027344 11.800781 C 9.480469 12.144531 8.023438 12.71875 6.679688 13.546875 C 4.054688 15.152344 2.171875 17.371094 1.042969 20.1875 C 0.433594 21.703125 0.144531 23.28125 0.101562 24.910156 C 0.0820312 25.625 0.289062 25.863281 1.027344 25.863281 C 1.140625 25.863281 1.253906 25.863281 1.371094 25.863281 C 1.25 24.929688 1.246094 23.992188 1.242188 23.046875 C 1.242188 22.625 1.519531 22.382812 1.847656 22.316406 C 2.902344 17.757812 7.0625 13.253906 13.371094 12.917969 C 20.390625 12.550781 25.605469 17.59375 26.449219 23.351562 C 26.683594 23.554688 26.839844 23.847656 26.851562 24.203125 C 26.867188 24.75 26.859375 25.3125 26.78125 25.859375 C 26.867188 25.859375 26.957031 25.859375 27.042969 25.859375 C 27.742188 25.859375 27.984375 25.605469 27.957031 24.914062 Z M 27.960938 24.914062 "/>
<path style=" stroke:none;fill-rule:nonzero;fill:rgb(0%,0%,0%);fill-opacity:1;" d="M 13.074219 9.003906 C 13.285156 8.917969 13.5 8.859375 13.722656 8.8125 L 13.722656 1.917969 C 13.722656 1.71875 13.890625 1.550781 14.097656 1.550781 L 14.324219 1.550781 C 14.53125 1.550781 14.703125 1.71875 14.703125 1.917969 L 14.703125 8.769531 C 14.769531 8.773438 14.832031 8.78125 14.898438 8.792969 L 15.082031 8.820312 L 15.082031 8.8125 C 15.347656 8.855469 15.796875 8.976562 16.289062 9.257812 L 16.289062 1.917969 C 16.289062 0.859375 15.410156 -0.00390625 14.328125 -0.00390625 L 14.101562 -0.00390625 C 13.019531 -0.00390625 12.140625 0.855469 12.140625 1.917969 L 12.140625 9.441406 C 12.140625 9.476562 12.144531 9.511719 12.148438 9.546875 C 12.472656 9.285156 12.78125 9.128906 12.976562 9.039062 Z M 13.074219 9.003906 "/>
</g>
</svg>
