<?xml version="1.0" encoding="UTF-8"?>
<svg xmlns="http://www.w3.org/2000/svg" xmlns:xlink="http://www.w3.org/1999/xlink" width="28px" height="28px" viewBox="0 0 28 21" version="1.1">
<g id="surface1">
<path style=" stroke:none;fill-rule:nonzero;fill:rgb(0%,0%,0%);fill-opacity:1;" d="M 14.105469 19.214844 C 14.132812 19.289062 14.15625 19.367188 14.167969 19.449219 C 14.183594 19.53125 14.191406 19.613281 14.191406 19.691406 C 14.191406 20.089844 14.027344 20.445312 13.757812 20.703125 C 13.492188 20.964844 13.125 21.125 12.71875 21.125 C 12.3125 21.125 11.941406 20.964844 11.675781 20.703125 C 11.410156 20.445312 11.246094 20.085938 11.246094 19.691406 C 11.246094 19.613281 11.253906 19.53125 11.265625 19.449219 C 11.28125 19.367188 11.304688 19.289062 11.332031 19.214844 L 11.425781 18.949219 L 14.007812 18.949219 Z M 13.183594 20.144531 C 13.292969 20.039062 13.363281 19.898438 13.375 19.742188 L 12.0625 19.742188 C 12.074219 19.898438 12.144531 20.039062 12.25 20.144531 L 12.253906 20.144531 C 12.371094 20.261719 12.535156 20.332031 12.71875 20.332031 C 12.898438 20.332031 13.066406 20.261719 13.183594 20.144531 Z M 13.183594 20.144531 "/>
<path style=" stroke:none;fill-rule:nonzero;fill:rgb(0%,0%,0%);fill-opacity:1;" d="M 11.15625 13.601562 L 14.277344 13.601562 C 14.453125 13.601562 14.609375 13.667969 14.722656 13.777344 C 14.835938 13.890625 14.90625 14.042969 14.90625 14.210938 L 14.90625 15.929688 L 14.375 15.761719 C 14.109375 15.679688 13.839844 15.613281 13.5625 15.574219 C 13.296875 15.53125 13.011719 15.511719 12.71875 15.511719 C 12.421875 15.511719 12.140625 15.53125 11.871094 15.574219 C 11.597656 15.613281 11.324219 15.679688 11.0625 15.761719 L 10.527344 15.929688 L 10.527344 14.210938 C 10.527344 14.042969 10.597656 13.890625 10.714844 13.777344 C 10.828125 13.667969 10.984375 13.601562 11.15625 13.601562 Z M 14.09375 14.390625 L 11.34375 14.390625 L 11.34375 14.867188 C 11.476562 14.839844 11.613281 14.816406 11.75 14.792969 C 12.070312 14.746094 12.394531 14.71875 12.71875 14.71875 C 13.042969 14.71875 13.367188 14.746094 13.6875 14.792969 C 13.824219 14.816406 13.960938 14.839844 14.09375 14.867188 Z M 14.09375 14.390625 "/>
<path style=" stroke:none;fill-rule:nonzero;fill:rgb(0%,0%,0%);fill-opacity:1;" d="M 12.308594 13.996094 L 12.308594 3.921875 L 13.125 3.921875 L 13.125 13.996094 Z M 12.308594 13.996094 "/>
<path style=" stroke:none;fill-rule:nonzero;fill:rgb(0%,0%,0%);fill-opacity:1;" d="M 12.71875 19.742188 L 7.261719 19.742188 L 7.261719 19.347656 C 7.261719 18.058594 7.878906 16.894531 8.882812 16.058594 C 9.867188 15.230469 11.222656 14.71875 12.71875 14.71875 C 14.210938 14.71875 15.570312 15.230469 16.554688 16.058594 C 17.554688 16.894531 18.175781 18.058594 18.175781 19.347656 L 18.175781 19.742188 Z M 8.101562 18.949219 L 17.335938 18.949219 C 17.222656 18.058594 16.742188 17.257812 16.023438 16.652344 C 15.179688 15.945312 14.011719 15.511719 12.71875 15.511719 C 11.421875 15.511719 10.253906 15.945312 9.414062 16.652344 C 8.691406 17.257812 8.210938 18.058594 8.101562 18.949219 Z M 8.101562 18.949219 "/>
<path style=" stroke:none;fill-rule:nonzero;fill:rgb(0%,0%,0%);fill-opacity:1;" d="M 14.105469 19.214844 C 14.132812 19.289062 14.15625 19.367188 14.167969 19.449219 C 14.183594 19.53125 14.191406 19.613281 14.191406 19.691406 C 14.191406 20.085938 14.027344 20.441406 13.757812 20.703125 C 13.492188 20.964844 13.121094 21.125 12.71875 21.125 C 12.3125 21.125 11.945312 20.960938 11.675781 20.703125 C 11.410156 20.445312 11.246094 20.089844 11.246094 19.695312 C 11.246094 19.613281 11.253906 19.53125 11.265625 19.449219 C 11.28125 19.367188 11.304688 19.289062 11.332031 19.214844 L 11.425781 18.949219 L 14.007812 18.949219 Z M 13.183594 20.144531 C 13.292969 20.039062 13.363281 19.898438 13.375 19.742188 L 12.0625 19.742188 C 12.074219 19.898438 12.144531 20.039062 12.253906 20.144531 L 12.253906 20.148438 C 12.371094 20.261719 12.535156 20.332031 12.71875 20.332031 C 12.902344 20.332031 13.066406 20.261719 13.183594 20.148438 Z M 13.183594 20.144531 "/>
<path style=" stroke:none;fill-rule:nonzero;fill:rgb(0%,0%,0%);fill-opacity:1;" d="M 11.15625 13.601562 L 14.277344 13.601562 C 14.453125 13.601562 14.609375 13.667969 14.722656 13.777344 C 14.835938 13.890625 14.90625 14.042969 14.90625 14.210938 L 14.90625 15.929688 L 14.375 15.761719 C 14.109375 15.679688 13.839844 15.613281 13.5625 15.574219 C 13.296875 15.53125 13.011719 15.511719 12.71875 15.511719 C 12.421875 15.511719 12.140625 15.53125 11.871094 15.574219 C 11.597656 15.613281 11.324219 15.679688 11.0625 15.761719 L 10.527344 15.929688 L 10.527344 14.210938 C 10.527344 14.042969 10.597656 13.890625 10.714844 13.777344 C 10.828125 13.667969 10.984375 13.601562 11.15625 13.601562 Z M 14.09375 14.390625 L 11.34375 14.390625 L 11.34375 14.867188 C 11.476562 14.839844 11.613281 14.816406 11.75 14.792969 C 12.070312 14.746094 12.394531 14.71875 12.71875 14.71875 C 13.042969 14.71875 13.367188 14.746094 13.6875 14.792969 C 13.824219 14.816406 13.960938 14.839844 14.09375 14.867188 Z M 14.09375 14.390625 "/>
<path style=" stroke:none;fill-rule:nonzero;fill:rgb(0%,0%,0%);fill-opacity:1;" d="M 13.125 13.996094 C 13.125 14.214844 12.941406 14.390625 12.71875 14.390625 C 12.492188 14.390625 12.308594 14.214844 12.308594 13.996094 L 12.308594 0.394531 C 12.308594 0.175781 12.492188 0 12.71875 0 C 12.941406 0 13.125 0.175781 13.125 0.394531 Z M 13.125 13.996094 "/>
<path style=" stroke:none;fill-rule:nonzero;fill:rgb(0%,0%,0%);fill-opacity:1;" d="M 12.71875 19.742188 L 7.261719 19.742188 L 7.261719 19.347656 C 7.261719 18.058594 7.878906 16.894531 8.882812 16.058594 C 9.867188 15.230469 11.222656 14.71875 12.71875 14.71875 C 14.210938 14.71875 15.570312 15.230469 16.554688 16.058594 C 17.554688 16.894531 18.175781 18.058594 18.175781 19.347656 L 18.175781 19.742188 Z M 8.101562 18.949219 L 17.335938 18.949219 C 17.222656 18.058594 16.742188 17.257812 16.023438 16.652344 C 15.179688 15.945312 14.011719 15.511719 12.71875 15.511719 C 11.421875 15.511719 10.253906 15.945312 9.414062 16.652344 C 8.691406 17.257812 8.210938 18.058594 8.101562 18.949219 Z M 8.101562 18.949219 "/>
<path style=" stroke:none;fill-rule:nonzero;fill:rgb(0%,0%,0%);fill-opacity:1;" d="M 6.84375 11.261719 C 6.871094 11.335938 6.894531 11.414062 6.910156 11.496094 C 6.921875 11.578125 6.929688 11.660156 6.929688 11.738281 C 6.929688 12.132812 6.765625 12.488281 6.5 12.75 L 6.496094 12.75 C 6.230469 13.011719 5.863281 13.171875 5.457031 13.171875 C 5.050781 13.171875 4.683594 13.007812 4.417969 12.75 L 4.414062 12.75 C 4.148438 12.492188 3.984375 12.136719 3.984375 11.742188 C 3.984375 11.660156 3.992188 11.578125 4.003906 11.496094 C 4.019531 11.414062 4.042969 11.335938 4.070312 11.261719 L 4.164062 10.996094 L 6.746094 10.996094 Z M 5.925781 12.191406 C 6.03125 12.085938 6.101562 11.945312 6.113281 11.789062 L 4.800781 11.789062 C 4.8125 11.945312 4.882812 12.085938 4.992188 12.191406 L 4.992188 12.195312 C 5.109375 12.308594 5.273438 12.378906 5.457031 12.378906 C 5.640625 12.378906 5.804688 12.308594 5.921875 12.195312 Z M 5.925781 12.191406 "/>
<path style=" stroke:none;fill-rule:nonzero;fill:rgb(0%,0%,0%);fill-opacity:1;" d="M 3.894531 5.648438 L 7.019531 5.648438 C 7.191406 5.648438 7.347656 5.714844 7.460938 5.824219 C 7.574219 5.9375 7.648438 6.089844 7.648438 6.257812 L 7.648438 7.976562 L 7.113281 7.808594 C 6.847656 7.726562 6.578125 7.660156 6.300781 7.621094 C 6.035156 7.578125 5.75 7.558594 5.457031 7.558594 C 5.160156 7.558594 4.878906 7.578125 4.613281 7.621094 C 4.335938 7.660156 4.0625 7.726562 3.800781 7.808594 L 3.265625 7.976562 L 3.265625 6.257812 C 3.265625 6.089844 3.335938 5.9375 3.453125 5.824219 C 3.566406 5.714844 3.722656 5.648438 3.894531 5.648438 Z M 6.832031 6.4375 L 4.082031 6.4375 L 4.082031 6.914062 C 4.214844 6.886719 4.351562 6.863281 4.488281 6.839844 C 4.808594 6.792969 5.132812 6.765625 5.457031 6.765625 C 5.78125 6.765625 6.105469 6.792969 6.425781 6.839844 C 6.5625 6.863281 6.699219 6.886719 6.832031 6.914062 Z M 6.832031 6.4375 "/>
<path style=" stroke:none;fill-rule:nonzero;fill:rgb(0%,0%,0%);fill-opacity:1;" d="M 5.863281 6.042969 C 5.863281 6.261719 5.683594 6.4375 5.457031 6.4375 C 5.230469 6.4375 5.050781 6.261719 5.050781 6.042969 L 5.050781 0.523438 C 5.050781 0.304688 5.230469 0.128906 5.457031 0.128906 C 5.683594 0.128906 5.863281 0.304688 5.863281 0.523438 Z M 5.863281 6.042969 "/>
<path style=" stroke:none;fill-rule:nonzero;fill:rgb(0%,0%,0%);fill-opacity:1;" d="M 5.457031 11.789062 L 0 11.789062 L 0 11.394531 C 0 10.105469 0.617188 8.941406 1.621094 8.101562 C 2.605469 7.277344 3.964844 6.765625 5.457031 6.765625 C 6.949219 6.765625 8.308594 7.277344 9.292969 8.101562 C 10.292969 8.941406 10.914062 10.105469 10.914062 11.394531 L 10.914062 11.789062 Z M 0.839844 10.996094 L 10.074219 10.996094 C 9.964844 10.105469 9.480469 9.304688 8.761719 8.699219 C 7.917969 7.992188 6.75 7.554688 5.457031 7.554688 C 4.164062 7.554688 2.992188 7.992188 2.152344 8.699219 C 1.429688 9.304688 0.949219 10.105469 0.839844 10.996094 Z M 0.839844 10.996094 "/>
<path style=" stroke:none;fill-rule:nonzero;fill:rgb(0%,0%,0%);fill-opacity:1;" d="M 23.742188 15.058594 C 23.769531 15.132812 23.792969 15.210938 23.808594 15.296875 C 23.820312 15.375 23.828125 15.457031 23.828125 15.539062 C 23.828125 15.933594 23.664062 16.289062 23.398438 16.546875 L 23.398438 16.550781 C 23.132812 16.808594 22.761719 16.96875 22.355469 16.96875 C 21.949219 16.96875 21.582031 16.808594 21.316406 16.550781 L 21.3125 16.546875 C 21.046875 16.289062 20.882812 15.933594 20.882812 15.539062 C 20.882812 15.457031 20.890625 15.375 20.902344 15.296875 C 20.917969 15.210938 20.941406 15.132812 20.96875 15.058594 L 21.066406 14.796875 L 23.644531 14.796875 Z M 22.820312 15.992188 C 22.929688 15.886719 23 15.746094 23.011719 15.585938 L 21.699219 15.585938 C 21.710938 15.746094 21.78125 15.886719 21.890625 15.992188 C 22.007812 16.105469 22.171875 16.179688 22.355469 16.179688 C 22.539062 16.179688 22.703125 16.105469 22.820312 15.992188 Z M 22.820312 15.992188 "/>
<path style=" stroke:none;fill-rule:nonzero;fill:rgb(0%,0%,0%);fill-opacity:1;" d="M 20.792969 9.445312 L 23.917969 9.445312 C 24.089844 9.445312 24.246094 9.515625 24.359375 9.625 C 24.476562 9.734375 24.546875 9.886719 24.546875 10.054688 L 24.546875 11.777344 L 24.011719 11.605469 C 23.75 11.523438 23.476562 11.460938 23.199219 11.417969 C 22.933594 11.375 22.652344 11.355469 22.355469 11.355469 C 22.0625 11.355469 21.777344 11.375 21.511719 11.417969 C 21.234375 11.460938 20.960938 11.523438 20.699219 11.605469 L 20.164062 11.777344 L 20.164062 10.054688 C 20.164062 9.886719 20.238281 9.738281 20.351562 9.625 C 20.464844 9.515625 20.621094 9.445312 20.792969 9.445312 Z M 23.730469 10.238281 L 20.980469 10.238281 L 20.980469 10.714844 C 21.113281 10.683594 21.25 10.660156 21.386719 10.640625 C 21.707031 10.589844 22.03125 10.5625 22.355469 10.5625 C 22.679688 10.5625 23.003906 10.589844 23.324219 10.640625 C 23.460938 10.660156 23.597656 10.683594 23.730469 10.714844 Z M 23.730469 10.238281 "/>
<path style=" stroke:none;fill-rule:nonzero;fill:rgb(0%,0%,0%);fill-opacity:1;" d="M 21.949219 9.839844 L 21.949219 0.355469 L 22.761719 0.355469 L 22.761719 9.839844 Z M 21.949219 9.839844 "/>
<path style=" stroke:none;fill-rule:nonzero;fill:rgb(0%,0%,0%);fill-opacity:1;" d="M 22.355469 15.585938 L 16.898438 15.585938 L 16.898438 15.191406 C 16.898438 13.902344 17.519531 12.742188 18.519531 11.902344 C 19.503906 11.074219 20.863281 10.566406 22.355469 10.566406 C 23.851562 10.566406 25.207031 11.074219 26.191406 11.902344 C 27.191406 12.742188 27.8125 13.902344 27.8125 15.191406 L 27.8125 15.585938 Z M 17.738281 14.796875 L 26.972656 14.796875 C 26.863281 13.90625 26.382812 13.101562 25.660156 12.496094 C 24.816406 11.792969 23.652344 11.355469 22.355469 11.355469 C 21.0625 11.355469 19.894531 11.792969 19.050781 12.496094 C 18.332031 13.101562 17.847656 13.902344 17.738281 14.796875 Z M 17.738281 14.796875 "/>
<path style=" stroke:none;fill-rule:nonzero;fill:rgb(0%,0%,0%);fill-opacity:1;" d="M 23.742188 15.058594 C 23.769531 15.132812 23.792969 15.210938 23.808594 15.296875 C 23.820312 15.375 23.828125 15.457031 23.828125 15.539062 C 23.828125 15.933594 23.664062 16.289062 23.398438 16.546875 L 23.398438 16.550781 C 23.132812 16.808594 22.761719 16.96875 22.355469 16.96875 C 21.949219 16.96875 21.582031 16.808594 21.316406 16.550781 L 21.3125 16.546875 C 21.046875 16.289062 20.882812 15.933594 20.882812 15.539062 C 20.882812 15.457031 20.890625 15.375 20.902344 15.296875 C 20.917969 15.210938 20.941406 15.132812 20.96875 15.058594 L 21.066406 14.796875 L 23.644531 14.796875 Z M 22.820312 15.992188 C 22.929688 15.886719 23 15.746094 23.011719 15.585938 L 21.699219 15.585938 C 21.710938 15.746094 21.78125 15.886719 21.890625 15.992188 C 22.007812 16.105469 22.171875 16.179688 22.355469 16.179688 C 22.539062 16.179688 22.703125 16.105469 22.820312 15.992188 Z M 22.820312 15.992188 "/>
<path style=" stroke:none;fill-rule:nonzero;fill:rgb(0%,0%,0%);fill-opacity:1;" d="M 20.792969 9.445312 L 23.917969 9.445312 C 24.089844 9.445312 24.246094 9.515625 24.359375 9.625 C 24.476562 9.734375 24.546875 9.886719 24.546875 10.054688 L 24.546875 11.777344 L 24.011719 11.605469 C 23.75 11.523438 23.476562 11.460938 23.199219 11.417969 C 22.933594 11.375 22.652344 11.355469 22.355469 11.355469 C 22.0625 11.355469 21.777344 11.375 21.511719 11.417969 C 21.234375 11.460938 20.960938 11.523438 20.699219 11.605469 L 20.164062 11.777344 L 20.164062 10.054688 C 20.164062 9.886719 20.238281 9.738281 20.351562 9.625 C 20.464844 9.515625 20.621094 9.445312 20.792969 9.445312 Z M 23.730469 10.238281 L 20.980469 10.238281 L 20.980469 10.714844 C 21.113281 10.683594 21.25 10.660156 21.386719 10.640625 C 21.707031 10.589844 22.03125 10.5625 22.355469 10.5625 C 22.679688 10.5625 23.003906 10.589844 23.324219 10.640625 C 23.460938 10.660156 23.597656 10.683594 23.730469 10.714844 Z M 23.730469 10.238281 "/>
<path style=" stroke:none;fill-rule:nonzero;fill:rgb(0%,0%,0%);fill-opacity:1;" d="M 22.761719 9.839844 C 22.761719 10.058594 22.582031 10.238281 22.355469 10.238281 C 22.128906 10.238281 21.949219 10.058594 21.949219 9.839844 L 21.949219 0.625 C 21.949219 0.40625 22.128906 0.230469 22.355469 0.230469 C 22.582031 0.230469 22.761719 0.40625 22.761719 0.625 Z M 22.761719 9.839844 "/>
<path style=" stroke:none;fill-rule:nonzero;fill:rgb(0%,0%,0%);fill-opacity:1;" d="M 22.355469 15.585938 L 16.898438 15.585938 L 16.898438 15.191406 C 16.898438 13.902344 17.519531 12.742188 18.519531 11.902344 C 19.503906 11.074219 20.863281 10.566406 22.355469 10.566406 C 23.851562 10.566406 25.207031 11.074219 26.191406 11.902344 C 27.191406 12.742188 27.8125 13.902344 27.8125 15.191406 L 27.8125 15.585938 Z M 17.738281 14.796875 L 26.972656 14.796875 C 26.863281 13.90625 26.382812 13.101562 25.660156 12.496094 C 24.816406 11.792969 23.652344 11.355469 22.355469 11.355469 C 21.0625 11.355469 19.894531 11.792969 19.050781 12.496094 C 18.332031 13.101562 17.847656 13.902344 17.738281 14.796875 Z M 17.738281 14.796875 "/>
</g>
</svg>
