<?xml version="1.0" encoding="UTF-8"?>
<svg xmlns="http://www.w3.org/2000/svg" xmlns:xlink="http://www.w3.org/1999/xlink" width="28px" height="28px" viewBox="0 0 28 28" version="1.1">
<g id="surface1">
<path style=" stroke:none;fill-rule:nonzero;fill:rgb(0%,0%,0%);fill-opacity:1;" d="M 14.105469 22.714844 C 14.132812 22.789062 14.15625 22.867188 14.167969 22.949219 C 14.183594 23.03125 14.191406 23.113281 14.191406 23.191406 C 14.191406 23.589844 14.027344 23.945312 13.757812 24.203125 C 13.492188 24.464844 13.125 24.625 12.71875 24.625 C 12.3125 24.625 11.941406 24.464844 11.675781 24.203125 C 11.410156 23.945312 11.246094 23.585938 11.246094 23.191406 C 11.246094 23.113281 11.253906 23.03125 11.265625 22.949219 C 11.28125 22.867188 11.304688 22.789062 11.332031 22.714844 L 11.425781 22.449219 L 14.007812 22.449219 Z M 13.183594 23.644531 C 13.292969 23.539062 13.363281 23.398438 13.375 23.242188 L 12.0625 23.242188 C 12.074219 23.398438 12.144531 23.539062 12.25 23.644531 L 12.253906 23.644531 C 12.371094 23.761719 12.535156 23.832031 12.71875 23.832031 C 12.898438 23.832031 13.066406 23.761719 13.183594 23.644531 Z M 13.183594 23.644531 "/>
<path style=" stroke:none;fill-rule:nonzero;fill:rgb(0%,0%,0%);fill-opacity:1;" d="M 11.15625 17.101562 L 14.277344 17.101562 C 14.453125 17.101562 14.609375 17.167969 14.722656 17.277344 C 14.835938 17.390625 14.90625 17.542969 14.90625 17.710938 L 14.90625 19.429688 L 14.375 19.261719 C 14.109375 19.179688 13.839844 19.113281 13.5625 19.074219 C 13.296875 19.03125 13.011719 19.011719 12.71875 19.011719 C 12.421875 19.011719 12.140625 19.03125 11.871094 19.074219 C 11.597656 19.113281 11.324219 19.179688 11.0625 19.261719 L 10.527344 19.429688 L 10.527344 17.710938 C 10.527344 17.542969 10.597656 17.390625 10.714844 17.277344 C 10.828125 17.167969 10.984375 17.101562 11.15625 17.101562 Z M 14.09375 17.890625 L 11.34375 17.890625 L 11.34375 18.367188 C 11.476562 18.339844 11.613281 18.316406 11.75 18.292969 C 12.070312 18.246094 12.394531 18.21875 12.71875 18.21875 C 13.042969 18.21875 13.367188 18.246094 13.6875 18.292969 C 13.824219 18.316406 13.960938 18.339844 14.09375 18.367188 Z M 14.09375 17.890625 "/>
<path style=" stroke:none;fill-rule:nonzero;fill:rgb(0%,0%,0%);fill-opacity:1;" d="M 12.308594 17.496094 L 12.308594 7.421875 L 13.125 7.421875 L 13.125 17.496094 Z M 12.308594 17.496094 "/>
<path style=" stroke:none;fill-rule:nonzero;fill:rgb(0%,0%,0%);fill-opacity:1;" d="M 12.71875 23.242188 L 7.261719 23.242188 L 7.261719 22.847656 C 7.261719 21.558594 7.878906 20.394531 8.882812 19.558594 C 9.867188 18.730469 11.222656 18.21875 12.71875 18.21875 C 14.210938 18.21875 15.570312 18.730469 16.554688 19.558594 C 17.554688 20.394531 18.175781 21.558594 18.175781 22.847656 L 18.175781 23.242188 Z M 8.101562 22.449219 L 17.335938 22.449219 C 17.222656 21.558594 16.742188 20.757812 16.023438 20.152344 C 15.179688 19.445312 14.011719 19.011719 12.71875 19.011719 C 11.421875 19.011719 10.253906 19.445312 9.414062 20.152344 C 8.691406 20.757812 8.210938 21.558594 8.101562 22.449219 Z M 8.101562 22.449219 "/>
<path style=" stroke:none;fill-rule:nonzero;fill:rgb(0%,0%,0%);fill-opacity:1;" d="M 14.105469 22.714844 C 14.132812 22.789062 14.15625 22.867188 14.167969 22.949219 C 14.183594 23.03125 14.191406 23.113281 14.191406 23.191406 C 14.191406 23.585938 14.027344 23.941406 13.757812 24.203125 C 13.492188 24.464844 13.121094 24.625 12.71875 24.625 C 12.3125 24.625 11.945312 24.460938 11.675781 24.203125 C 11.410156 23.945312 11.246094 23.589844 11.246094 23.195312 C 11.246094 23.113281 11.253906 23.03125 11.265625 22.949219 C 11.28125 22.867188 11.304688 22.789062 11.332031 22.714844 L 11.425781 22.449219 L 14.007812 22.449219 Z M 13.183594 23.644531 C 13.292969 23.539062 13.363281 23.398438 13.375 23.242188 L 12.0625 23.242188 C 12.074219 23.398438 12.144531 23.539062 12.253906 23.644531 L 12.253906 23.648438 C 12.371094 23.761719 12.535156 23.832031 12.71875 23.832031 C 12.902344 23.832031 13.066406 23.761719 13.183594 23.648438 Z M 13.183594 23.644531 "/>
<path style=" stroke:none;fill-rule:nonzero;fill:rgb(0%,0%,0%);fill-opacity:1;" d="M 11.15625 17.101562 L 14.277344 17.101562 C 14.453125 17.101562 14.609375 17.167969 14.722656 17.277344 C 14.835938 17.390625 14.90625 17.542969 14.90625 17.710938 L 14.90625 19.429688 L 14.375 19.261719 C 14.109375 19.179688 13.839844 19.113281 13.5625 19.074219 C 13.296875 19.03125 13.011719 19.011719 12.71875 19.011719 C 12.421875 19.011719 12.140625 19.03125 11.871094 19.074219 C 11.597656 19.113281 11.324219 19.179688 11.0625 19.261719 L 10.527344 19.429688 L 10.527344 17.710938 C 10.527344 17.542969 10.597656 17.390625 10.714844 17.277344 C 10.828125 17.167969 10.984375 17.101562 11.15625 17.101562 Z M 14.09375 17.890625 L 11.34375 17.890625 L 11.34375 18.367188 C 11.476562 18.339844 11.613281 18.316406 11.75 18.292969 C 12.070312 18.246094 12.394531 18.21875 12.71875 18.21875 C 13.042969 18.21875 13.367188 18.246094 13.6875 18.292969 C 13.824219 18.316406 13.960938 18.339844 14.09375 18.367188 Z M 14.09375 17.890625 "/>
<path style=" stroke:none;fill-rule:nonzero;fill:rgb(0%,0%,0%);fill-opacity:1;" d="M 13.125 17.496094 C 13.125 17.714844 12.941406 17.890625 12.71875 17.890625 C 12.492188 17.890625 12.308594 17.714844 12.308594 17.496094 L 12.308594 3.894531 C 12.308594 3.675781 12.492188 3.5 12.71875 3.5 C 12.941406 3.5 13.125 3.675781 13.125 3.894531 Z M 13.125 17.496094 "/>
<path style=" stroke:none;fill-rule:nonzero;fill:rgb(0%,0%,0%);fill-opacity:1;" d="M 12.71875 23.242188 L 7.261719 23.242188 L 7.261719 22.847656 C 7.261719 21.558594 7.878906 20.394531 8.882812 19.558594 C 9.867188 18.730469 11.222656 18.21875 12.71875 18.21875 C 14.210938 18.21875 15.570312 18.730469 16.554688 19.558594 C 17.554688 20.394531 18.175781 21.558594 18.175781 22.847656 L 18.175781 23.242188 Z M 8.101562 22.449219 L 17.335938 22.449219 C 17.222656 21.558594 16.742188 20.757812 16.023438 20.152344 C 15.179688 19.445312 14.011719 19.011719 12.71875 19.011719 C 11.421875 19.011719 10.253906 19.445312 9.414062 20.152344 C 8.691406 20.757812 8.210938 21.558594 8.101562 22.449219 Z M 8.101562 22.449219 "/>
<path style=" stroke:none;fill-rule:nonzero;fill:rgb(0%,0%,0%);fill-opacity:1;" d="M 6.84375 14.761719 C 6.871094 14.835938 6.894531 14.914062 6.910156 14.996094 C 6.921875 15.078125 6.929688 15.160156 6.929688 15.238281 C 6.929688 15.632812 6.765625 15.988281 6.5 16.25 L 6.496094 16.25 C 6.230469 16.511719 5.863281 16.671875 5.457031 16.671875 C 5.050781 16.671875 4.683594 16.507812 4.417969 16.25 L 4.414062 16.25 C 4.148438 15.992188 3.984375 15.636719 3.984375 15.242188 C 3.984375 15.160156 3.992188 15.078125 4.003906 14.996094 C 4.019531 14.914062 4.042969 14.835938 4.070312 14.761719 L 4.164062 14.496094 L 6.746094 14.496094 Z M 5.925781 15.691406 C 6.03125 15.585938 6.101562 15.445312 6.113281 15.289062 L 4.800781 15.289062 C 4.8125 15.445312 4.882812 15.585938 4.992188 15.691406 L 4.992188 15.695312 C 5.109375 15.808594 5.273438 15.878906 5.457031 15.878906 C 5.640625 15.878906 5.804688 15.808594 5.921875 15.695312 Z M 5.925781 15.691406 "/>
<path style=" stroke:none;fill-rule:nonzero;fill:rgb(0%,0%,0%);fill-opacity:1;" d="M 3.894531 9.148438 L 7.019531 9.148438 C 7.191406 9.148438 7.347656 9.214844 7.460938 9.324219 C 7.574219 9.4375 7.648438 9.589844 7.648438 9.757812 L 7.648438 11.476562 L 7.113281 11.308594 C 6.847656 11.226562 6.578125 11.160156 6.300781 11.121094 C 6.035156 11.078125 5.75 11.058594 5.457031 11.058594 C 5.160156 11.058594 4.878906 11.078125 4.613281 11.121094 C 4.335938 11.160156 4.0625 11.226562 3.800781 11.308594 L 3.265625 11.476562 L 3.265625 9.757812 C 3.265625 9.589844 3.335938 9.4375 3.453125 9.324219 C 3.566406 9.214844 3.722656 9.148438 3.894531 9.148438 Z M 6.832031 9.9375 L 4.082031 9.9375 L 4.082031 10.414062 C 4.214844 10.386719 4.351562 10.363281 4.488281 10.339844 C 4.808594 10.292969 5.132812 10.265625 5.457031 10.265625 C 5.78125 10.265625 6.105469 10.292969 6.425781 10.339844 C 6.5625 10.363281 6.699219 10.386719 6.832031 10.414062 Z M 6.832031 9.9375 "/>
<path style=" stroke:none;fill-rule:nonzero;fill:rgb(0%,0%,0%);fill-opacity:1;" d="M 5.863281 9.542969 C 5.863281 9.761719 5.683594 9.9375 5.457031 9.9375 C 5.230469 9.9375 5.050781 9.761719 5.050781 9.542969 L 5.050781 4.023438 C 5.050781 3.804688 5.230469 3.628906 5.457031 3.628906 C 5.683594 3.628906 5.863281 3.804688 5.863281 4.023438 Z M 5.863281 9.542969 "/>
<path style=" stroke:none;fill-rule:nonzero;fill:rgb(0%,0%,0%);fill-opacity:1;" d="M 5.457031 15.289062 L 0 15.289062 L 0 14.894531 C 0 13.605469 0.617188 12.441406 1.621094 11.601562 C 2.605469 10.777344 3.964844 10.265625 5.457031 10.265625 C 6.949219 10.265625 8.308594 10.777344 9.292969 11.601562 C 10.292969 12.441406 10.914062 13.605469 10.914062 14.894531 L 10.914062 15.289062 Z M 0.839844 14.496094 L 10.074219 14.496094 C 9.964844 13.605469 9.480469 12.804688 8.761719 12.199219 C 7.917969 11.492188 6.75 11.054688 5.457031 11.054688 C 4.164062 11.054688 2.992188 11.492188 2.152344 12.199219 C 1.429688 12.804688 0.949219 13.605469 0.839844 14.496094 Z M 0.839844 14.496094 "/>
<path style=" stroke:none;fill-rule:nonzero;fill:rgb(0%,0%,0%);fill-opacity:1;" d="M 23.742188 18.558594 C 23.769531 18.632812 23.792969 18.710938 23.808594 18.796875 C 23.820312 18.875 23.828125 18.957031 23.828125 19.039062 C 23.828125 19.433594 23.664062 19.789062 23.398438 20.046875 L 23.398438 20.050781 C 23.132812 20.308594 22.761719 20.46875 22.355469 20.46875 C 21.949219 20.46875 21.582031 20.308594 21.316406 20.050781 L 21.3125 20.046875 C 21.046875 19.789062 20.882812 19.433594 20.882812 19.039062 C 20.882812 18.957031 20.890625 18.875 20.902344 18.796875 C 20.917969 18.710938 20.941406 18.632812 20.96875 18.558594 L 21.066406 18.296875 L 23.644531 18.296875 Z M 22.820312 19.492188 C 22.929688 19.386719 23 19.246094 23.011719 19.085938 L 21.699219 19.085938 C 21.710938 19.246094 21.78125 19.386719 21.890625 19.492188 C 22.007812 19.605469 22.171875 19.679688 22.355469 19.679688 C 22.539062 19.679688 22.703125 19.605469 22.820312 19.492188 Z M 22.820312 19.492188 "/>
<path style=" stroke:none;fill-rule:nonzero;fill:rgb(0%,0%,0%);fill-opacity:1;" d="M 20.792969 12.945312 L 23.917969 12.945312 C 24.089844 12.945312 24.246094 13.015625 24.359375 13.125 C 24.476562 13.234375 24.546875 13.386719 24.546875 13.554688 L 24.546875 15.277344 L 24.011719 15.105469 C 23.75 15.023438 23.476562 14.960938 23.199219 14.917969 C 22.933594 14.875 22.652344 14.855469 22.355469 14.855469 C 22.0625 14.855469 21.777344 14.875 21.511719 14.917969 C 21.234375 14.960938 20.960938 15.023438 20.699219 15.105469 L 20.164062 15.277344 L 20.164062 13.554688 C 20.164062 13.386719 20.238281 13.238281 20.351562 13.125 C 20.464844 13.015625 20.621094 12.945312 20.792969 12.945312 Z M 23.730469 13.738281 L 20.980469 13.738281 L 20.980469 14.214844 C 21.113281 14.183594 21.25 14.160156 21.386719 14.140625 C 21.707031 14.089844 22.03125 14.0625 22.355469 14.0625 C 22.679688 14.0625 23.003906 14.089844 23.324219 14.140625 C 23.460938 14.160156 23.597656 14.183594 23.730469 14.214844 Z M 23.730469 13.738281 "/>
<path style=" stroke:none;fill-rule:nonzero;fill:rgb(0%,0%,0%);fill-opacity:1;" d="M 21.949219 13.339844 L 21.949219 3.855469 L 22.761719 3.855469 L 22.761719 13.339844 Z M 21.949219 13.339844 "/>
<path style=" stroke:none;fill-rule:nonzero;fill:rgb(0%,0%,0%);fill-opacity:1;" d="M 22.355469 19.085938 L 16.898438 19.085938 L 16.898438 18.691406 C 16.898438 17.402344 17.519531 16.242188 18.519531 15.402344 C 19.503906 14.574219 20.863281 14.066406 22.355469 14.066406 C 23.851562 14.066406 25.207031 14.574219 26.191406 15.402344 C 27.191406 16.242188 27.8125 17.402344 27.8125 18.691406 L 27.8125 19.085938 Z M 17.738281 18.296875 L 26.972656 18.296875 C 26.863281 17.40625 26.382812 16.601562 25.660156 15.996094 C 24.816406 15.292969 23.652344 14.855469 22.355469 14.855469 C 21.0625 14.855469 19.894531 15.292969 19.050781 15.996094 C 18.332031 16.601562 17.847656 17.402344 17.738281 18.296875 Z M 17.738281 18.296875 "/>
<path style=" stroke:none;fill-rule:nonzero;fill:rgb(0%,0%,0%);fill-opacity:1;" d="M 23.742188 18.558594 C 23.769531 18.632812 23.792969 18.710938 23.808594 18.796875 C 23.820312 18.875 23.828125 18.957031 23.828125 19.039062 C 23.828125 19.433594 23.664062 19.789062 23.398438 20.046875 L 23.398438 20.050781 C 23.132812 20.308594 22.761719 20.46875 22.355469 20.46875 C 21.949219 20.46875 21.582031 20.308594 21.316406 20.050781 L 21.3125 20.046875 C 21.046875 19.789062 20.882812 19.433594 20.882812 19.039062 C 20.882812 18.957031 20.890625 18.875 20.902344 18.796875 C 20.917969 18.710938 20.941406 18.632812 20.96875 18.558594 L 21.066406 18.296875 L 23.644531 18.296875 Z M 22.820312 19.492188 C 22.929688 19.386719 23 19.246094 23.011719 19.085938 L 21.699219 19.085938 C 21.710938 19.246094 21.78125 19.386719 21.890625 19.492188 C 22.007812 19.605469 22.171875 19.679688 22.355469 19.679688 C 22.539062 19.679688 22.703125 19.605469 22.820312 19.492188 Z M 22.820312 19.492188 "/>
<path style=" stroke:none;fill-rule:nonzero;fill:rgb(0%,0%,0%);fill-opacity:1;" d="M 20.792969 12.945312 L 23.917969 12.945312 C 24.089844 12.945312 24.246094 13.015625 24.359375 13.125 C 24.476562 13.234375 24.546875 13.386719 24.546875 13.554688 L 24.546875 15.277344 L 24.011719 15.105469 C 23.75 15.023438 23.476562 14.960938 23.199219 14.917969 C 22.933594 14.875 22.652344 14.855469 22.355469 14.855469 C 22.0625 14.855469 21.777344 14.875 21.511719 14.917969 C 21.234375 14.960938 20.960938 15.023438 20.699219 15.105469 L 20.164062 15.277344 L 20.164062 13.554688 C 20.164062 13.386719 20.238281 13.238281 20.351562 13.125 C 20.464844 13.015625 20.621094 12.945312 20.792969 12.945312 Z M 23.730469 13.738281 L 20.980469 13.738281 L 20.980469 14.214844 C 21.113281 14.183594 21.25 14.160156 21.386719 14.140625 C 21.707031 14.089844 22.03125 14.0625 22.355469 14.0625 C 22.679688 14.0625 23.003906 14.089844 23.324219 14.140625 C 23.460938 14.160156 23.597656 14.183594 23.730469 14.214844 Z M 23.730469 13.738281 "/>
<path style=" stroke:none;fill-rule:nonzero;fill:rgb(0%,0%,0%);fill-opacity:1;" d="M 22.761719 13.339844 C 22.761719 13.558594 22.582031 13.738281 22.355469 13.738281 C 22.128906 13.738281 21.949219 13.558594 21.949219 13.339844 L 21.949219 4.125 C 21.949219 3.90625 22.128906 3.730469 22.355469 3.730469 C 22.582031 3.730469 22.761719 3.90625 22.761719 4.125 Z M 22.761719 13.339844 "/>
<path style=" stroke:none;fill-rule:nonzero;fill:rgb(0%,0%,0%);fill-opacity:1;" d="M 22.355469 19.085938 L 16.898438 19.085938 L 16.898438 18.691406 C 16.898438 17.402344 17.519531 16.242188 18.519531 15.402344 C 19.503906 14.574219 20.863281 14.066406 22.355469 14.066406 C 23.851562 14.066406 25.207031 14.574219 26.191406 15.402344 C 27.191406 16.242188 27.8125 17.402344 27.8125 18.691406 L 27.8125 19.085938 Z M 17.738281 18.296875 L 26.972656 18.296875 C 26.863281 17.40625 26.382812 16.601562 25.660156 15.996094 C 24.816406 15.292969 23.652344 14.855469 22.355469 14.855469 C 21.0625 14.855469 19.894531 15.292969 19.050781 15.996094 C 18.332031 16.601562 17.847656 17.402344 17.738281 18.296875 Z M 17.738281 18.296875 "/>
</g>
</svg>
