<?xml version="1.0" encoding="UTF-8"?>
<svg xmlns="http://www.w3.org/2000/svg" xmlns:xlink="http://www.w3.org/1999/xlink" width="28px" height="28px" viewBox="0 0 28 28" version="1.1">
<g id="surface1">
<path style=" stroke:none;fill-rule:nonzero;fill:rgb(0%,0%,0%);fill-opacity:1;" d="M 13.894531 25.808594 C 13.679688 25.808594 13.511719 25.984375 13.511719 26.191406 L 13.511719 27.71875 C 13.511719 27.9375 13.683594 28.097656 13.894531 28.097656 C 14.105469 28.097656 14.277344 27.925781 14.277344 27.71875 L 14.277344 26.195312 C 14.277344 25.984375 14.105469 25.820312 13.894531 25.808594 Z M 13.894531 25.808594 "/>
<path style=" stroke:none;fill-rule:nonzero;fill:rgb(0%,0%,0%);fill-opacity:1;" d="M 13.609375 26.191406 L 13.414062 26.191406 L 13.414062 26.144531 L 13.425781 26.09375 L 13.429688 26.074219 L 13.4375 26.046875 L 13.445312 26.027344 L 13.449219 26.003906 L 13.496094 25.925781 L 13.511719 25.90625 L 13.523438 25.890625 L 13.554688 25.855469 L 13.570312 25.835938 L 13.589844 25.820312 L 13.625 25.796875 L 13.644531 25.78125 L 13.664062 25.769531 L 13.683594 25.761719 L 13.707031 25.75 L 13.730469 25.742188 L 13.75 25.734375 L 13.796875 25.71875 L 13.820312 25.714844 L 13.847656 25.714844 L 13.871094 25.710938 L 13.894531 25.710938 L 13.894531 25.90625 L 13.878906 25.90625 L 13.851562 25.910156 L 13.839844 25.914062 L 13.824219 25.914062 L 13.8125 25.917969 L 13.796875 25.925781 L 13.785156 25.929688 L 13.757812 25.941406 L 13.738281 25.953125 L 13.722656 25.964844 L 13.714844 25.972656 L 13.683594 26 L 13.660156 26.035156 L 13.652344 26.042969 L 13.644531 26.058594 L 13.640625 26.070312 L 13.632812 26.082031 L 13.625 26.109375 L 13.621094 26.117188 L 13.617188 26.132812 L 13.613281 26.160156 L 13.613281 26.171875 L 13.609375 26.1875 Z M 13.414062 27.71875 L 13.414062 26.191406 L 13.609375 26.191406 L 13.609375 27.71875 Z M 13.894531 28 L 13.894531 28.195312 L 13.871094 28.195312 L 13.824219 28.191406 L 13.796875 28.1875 L 13.773438 28.179688 L 13.753906 28.175781 L 13.730469 28.167969 L 13.710938 28.160156 L 13.6875 28.152344 L 13.648438 28.128906 L 13.609375 28.101562 L 13.589844 28.089844 L 13.554688 28.058594 L 13.539062 28.042969 L 13.523438 28.023438 L 13.511719 28.007812 L 13.484375 27.96875 L 13.460938 27.929688 L 13.449219 27.90625 L 13.445312 27.886719 L 13.4375 27.863281 L 13.429688 27.84375 L 13.421875 27.820312 L 13.417969 27.792969 L 13.414062 27.769531 L 13.414062 27.71875 L 13.609375 27.71875 L 13.609375 27.75 L 13.613281 27.765625 L 13.613281 27.777344 L 13.632812 27.832031 L 13.636719 27.84375 L 13.660156 27.878906 L 13.664062 27.886719 L 13.683594 27.910156 L 13.703125 27.929688 L 13.714844 27.9375 L 13.734375 27.953125 L 13.757812 27.96875 L 13.769531 27.972656 L 13.824219 27.992188 L 13.847656 27.996094 L 13.863281 27.996094 L 13.878906 28 Z M 14.175781 27.71875 L 14.375 27.71875 L 14.371094 27.789062 L 14.367188 27.8125 L 14.359375 27.835938 L 14.355469 27.859375 L 14.328125 27.925781 L 14.28125 28.003906 L 14.265625 28.023438 L 14.203125 28.085938 L 14.179688 28.101562 L 14.164062 28.113281 L 14.105469 28.148438 L 14.082031 28.160156 L 14.0625 28.167969 L 14.039062 28.175781 L 14.015625 28.179688 L 13.992188 28.1875 L 13.96875 28.191406 L 13.941406 28.195312 L 13.917969 28.195312 L 13.894531 28.199219 L 13.894531 28.003906 L 13.90625 28.003906 L 13.921875 28 L 13.9375 28 L 13.953125 27.996094 L 13.964844 27.992188 L 14.003906 27.980469 L 14.03125 27.96875 L 14.050781 27.953125 L 14.085938 27.929688 L 14.113281 27.898438 L 14.132812 27.878906 L 14.136719 27.867188 L 14.144531 27.851562 L 14.152344 27.84375 L 14.160156 27.820312 L 14.167969 27.804688 L 14.167969 27.792969 L 14.171875 27.777344 L 14.175781 27.765625 Z M 14.375 26.195312 L 14.375 27.71875 L 14.175781 27.71875 L 14.175781 26.195312 Z M 13.894531 25.910156 L 13.894531 25.714844 L 13.898438 25.714844 L 13.972656 25.71875 L 14.019531 25.734375 L 14.0625 25.746094 L 14.085938 25.753906 L 14.105469 25.765625 L 14.167969 25.800781 L 14.183594 25.816406 L 14.203125 25.828125 L 14.25 25.875 L 14.28125 25.910156 L 14.316406 25.96875 L 14.324219 25.988281 L 14.335938 26.007812 L 14.355469 26.054688 L 14.359375 26.078125 L 14.367188 26.097656 L 14.375 26.148438 L 14.375 26.195312 L 14.179688 26.195312 L 14.175781 26.179688 L 14.175781 26.152344 L 14.171875 26.136719 L 14.171875 26.125 L 14.160156 26.097656 L 14.152344 26.074219 L 14.144531 26.0625 L 14.136719 26.046875 L 14.125 26.027344 L 14.105469 26.003906 L 14.085938 25.988281 L 14.066406 25.96875 L 14.050781 25.960938 L 14.03125 25.949219 L 14.003906 25.933594 L 13.949219 25.917969 L 13.917969 25.910156 L 13.886719 25.910156 Z M 13.894531 25.714844 L 13.898438 25.714844 Z M 13.894531 25.8125 L 13.894531 25.910156 Z M 13.894531 25.714844 L 13.898438 25.714844 Z M 13.894531 25.714844 "/>
<path style=" stroke:none;fill-rule:nonzero;fill:rgb(0%,0%,0%);fill-opacity:1;" d="M 19.617188 23.691406 C 19.464844 23.542969 19.21875 23.542969 19.074219 23.691406 C 18.917969 23.839844 18.917969 24.082031 19.074219 24.234375 L 20.164062 25.308594 C 20.316406 25.457031 20.5625 25.457031 20.714844 25.308594 C 20.867188 25.15625 20.867188 24.910156 20.714844 24.765625 L 19.621094 23.691406 Z M 19.617188 23.691406 "/>
<path style=" stroke:none;fill-rule:nonzero;fill:rgb(0%,0%,0%);fill-opacity:1;" d="M 19.140625 23.761719 L 19.003906 23.621094 L 19 23.625 L 19.019531 23.609375 L 19.035156 23.59375 L 19.074219 23.5625 L 19.113281 23.539062 L 19.136719 23.527344 L 19.179688 23.507812 L 19.222656 23.496094 L 19.292969 23.484375 L 19.363281 23.484375 L 19.410156 23.488281 L 19.457031 23.496094 L 19.480469 23.503906 L 19.503906 23.507812 L 19.546875 23.527344 L 19.570312 23.539062 L 19.609375 23.5625 L 19.628906 23.578125 L 19.671875 23.609375 L 19.6875 23.625 L 19.546875 23.761719 L 19.535156 23.75 L 19.515625 23.734375 L 19.5 23.726562 L 19.476562 23.710938 L 19.453125 23.699219 L 19.410156 23.6875 L 19.398438 23.683594 L 19.382812 23.679688 L 19.371094 23.679688 L 19.359375 23.675781 L 19.332031 23.675781 L 19.316406 23.679688 L 19.304688 23.679688 L 19.292969 23.683594 L 19.277344 23.6875 L 19.265625 23.691406 L 19.25 23.695312 L 19.226562 23.703125 L 19.210938 23.710938 L 19.203125 23.71875 L 19.191406 23.726562 L 19.179688 23.730469 L 19.167969 23.742188 L 19.15625 23.75 L 19.144531 23.761719 L 19.144531 23.765625 Z M 19.144531 23.761719 L 19.136719 23.765625 L 19.140625 23.761719 Z M 19.140625 24.164062 L 19 24.304688 L 18.96875 24.265625 L 18.953125 24.25 L 18.9375 24.230469 L 18.914062 24.183594 L 18.90625 24.164062 L 18.894531 24.144531 L 18.882812 24.121094 L 18.878906 24.101562 L 18.871094 24.074219 L 18.867188 24.054688 L 18.859375 24.007812 L 18.859375 23.914062 L 18.863281 23.890625 L 18.871094 23.847656 L 18.878906 23.820312 L 18.882812 23.800781 L 18.894531 23.777344 L 18.90625 23.757812 L 18.914062 23.738281 L 18.925781 23.71875 L 18.9375 23.695312 L 18.96875 23.65625 L 18.984375 23.640625 L 19 23.621094 L 19.136719 23.761719 L 19.128906 23.773438 L 19.101562 23.804688 L 19.09375 23.816406 L 19.089844 23.832031 L 19.082031 23.839844 L 19.074219 23.855469 L 19.066406 23.882812 L 19.058594 23.90625 L 19.054688 23.933594 L 19.054688 23.988281 L 19.058594 24 L 19.058594 24.015625 L 19.066406 24.039062 L 19.070312 24.054688 L 19.078125 24.066406 L 19.082031 24.078125 L 19.089844 24.09375 L 19.09375 24.105469 L 19.101562 24.117188 L 19.128906 24.148438 L 19.140625 24.160156 Z M 19 24.304688 Z M 20.09375 25.378906 L 19 24.304688 L 19.140625 24.164062 L 20.230469 25.238281 Z M 20.230469 25.238281 Z M 20.644531 25.238281 L 20.785156 25.378906 L 20.765625 25.394531 L 20.75 25.410156 L 20.730469 25.425781 L 20.710938 25.4375 L 20.6875 25.453125 L 20.644531 25.472656 L 20.578125 25.5 L 20.484375 25.515625 L 20.390625 25.515625 L 20.367188 25.511719 L 20.34375 25.511719 L 20.320312 25.503906 L 20.296875 25.5 L 20.273438 25.492188 L 20.230469 25.472656 L 20.210938 25.460938 L 20.1875 25.453125 L 20.167969 25.4375 L 20.148438 25.425781 L 20.089844 25.378906 L 20.230469 25.238281 L 20.25 25.257812 L 20.265625 25.265625 L 20.3125 25.296875 L 20.367188 25.3125 L 20.382812 25.316406 L 20.40625 25.320312 L 20.464844 25.320312 L 20.492188 25.316406 L 20.515625 25.308594 L 20.542969 25.300781 L 20.558594 25.292969 L 20.570312 25.289062 L 20.59375 25.273438 L 20.605469 25.261719 L 20.617188 25.257812 L 20.628906 25.246094 L 20.640625 25.238281 Z M 20.644531 25.238281 Z M 20.644531 24.835938 L 20.785156 24.695312 L 20.800781 24.710938 L 20.847656 24.769531 L 20.859375 24.789062 L 20.882812 24.832031 L 20.890625 24.851562 L 20.898438 24.875 L 20.90625 24.894531 L 20.914062 24.921875 L 20.917969 24.941406 L 20.929688 25.011719 L 20.929688 25.058594 L 20.917969 25.128906 L 20.914062 25.148438 L 20.90625 25.171875 L 20.902344 25.195312 L 20.894531 25.21875 L 20.882812 25.238281 L 20.875 25.261719 L 20.859375 25.28125 L 20.847656 25.304688 L 20.832031 25.324219 L 20.820312 25.34375 L 20.785156 25.378906 L 20.644531 25.238281 L 20.675781 25.207031 L 20.683594 25.195312 L 20.6875 25.183594 L 20.699219 25.167969 L 20.703125 25.15625 L 20.710938 25.144531 L 20.722656 25.105469 L 20.722656 25.089844 L 20.726562 25.074219 L 20.730469 25.050781 L 20.730469 25.007812 L 20.726562 24.996094 L 20.722656 24.96875 L 20.710938 24.929688 L 20.703125 24.914062 L 20.6875 24.894531 L 20.683594 24.878906 L 20.664062 24.859375 L 20.65625 24.847656 Z M 20.648438 24.835938 L 20.644531 24.835938 Z M 19.6875 23.621094 L 20.785156 24.695312 L 20.648438 24.835938 L 19.550781 23.761719 L 19.546875 23.761719 Z M 19.550781 23.761719 L 19.546875 23.761719 Z M 19.550781 23.761719 "/>
<path style=" stroke:none;fill-rule:nonzero;fill:rgb(0%,0%,0%);fill-opacity:1;" d="M 7.625 25.308594 L 8.710938 24.230469 C 8.863281 24.078125 8.863281 23.835938 8.710938 23.683594 C 8.558594 23.53125 8.3125 23.53125 8.160156 23.683594 L 7.070312 24.765625 C 6.917969 24.914062 6.917969 25.15625 7.070312 25.308594 C 7.230469 25.457031 7.46875 25.457031 7.625 25.308594 Z M 7.625 25.308594 "/>
<path style=" stroke:none;fill-rule:nonzero;fill:rgb(0%,0%,0%);fill-opacity:1;" d="M 8.78125 24.296875 L 7.695312 25.378906 L 7.554688 25.238281 L 8.640625 24.160156 Z M 8.640625 23.75 L 8.78125 23.613281 L 8.796875 23.632812 L 8.816406 23.648438 L 8.832031 23.667969 L 8.855469 23.707031 L 8.878906 23.75 L 8.90625 23.816406 L 8.910156 23.839844 L 8.917969 23.863281 L 8.917969 23.886719 L 8.925781 23.933594 L 8.925781 23.980469 L 8.921875 24.003906 L 8.917969 24.023438 L 8.917969 24.050781 L 8.910156 24.070312 L 8.90625 24.09375 L 8.878906 24.160156 L 8.867188 24.179688 L 8.855469 24.203125 L 8.832031 24.242188 L 8.816406 24.261719 L 8.78125 24.296875 L 8.640625 24.160156 L 8.664062 24.140625 L 8.671875 24.128906 L 8.679688 24.113281 L 8.6875 24.105469 L 8.707031 24.066406 L 8.71875 24.023438 L 8.722656 24 L 8.726562 23.984375 L 8.726562 23.929688 L 8.722656 23.902344 L 8.71875 23.886719 L 8.707031 23.847656 L 8.691406 23.820312 L 8.679688 23.796875 L 8.671875 23.785156 L 8.652344 23.765625 Z M 8.230469 23.75 L 8.089844 23.613281 L 8.109375 23.597656 L 8.128906 23.578125 L 8.148438 23.5625 L 8.164062 23.550781 L 8.1875 23.539062 L 8.230469 23.515625 L 8.296875 23.488281 L 8.320312 23.484375 L 8.34375 23.476562 L 8.367188 23.472656 L 8.414062 23.46875 L 8.464844 23.46875 L 8.484375 23.472656 L 8.507812 23.472656 L 8.53125 23.476562 L 8.554688 23.484375 L 8.578125 23.488281 L 8.601562 23.5 L 8.644531 23.515625 L 8.6875 23.539062 L 8.726562 23.5625 L 8.746094 23.578125 L 8.765625 23.597656 L 8.785156 23.613281 L 8.644531 23.75 L 8.632812 23.742188 L 8.613281 23.722656 L 8.597656 23.714844 L 8.585938 23.707031 L 8.574219 23.703125 L 8.546875 23.6875 L 8.523438 23.679688 L 8.492188 23.671875 L 8.464844 23.671875 L 8.453125 23.667969 L 8.425781 23.667969 L 8.398438 23.671875 L 8.382812 23.671875 L 8.371094 23.675781 L 8.355469 23.679688 L 8.328125 23.6875 L 8.316406 23.695312 L 8.300781 23.703125 L 8.289062 23.707031 L 8.265625 23.722656 L 8.242188 23.742188 Z M 8.089844 23.613281 Z M 7.003906 24.695312 L 8.089844 23.613281 L 8.230469 23.75 L 7.144531 24.835938 L 7.140625 24.835938 Z M 7.144531 24.835938 L 7.140625 24.835938 Z M 7.140625 25.238281 L 7.003906 25.378906 L 6.988281 25.359375 L 6.96875 25.339844 L 6.957031 25.320312 L 6.941406 25.300781 L 6.929688 25.28125 L 6.90625 25.238281 L 6.886719 25.195312 L 6.882812 25.171875 L 6.875 25.148438 L 6.867188 25.105469 L 6.863281 25.078125 L 6.863281 24.988281 L 6.867188 24.964844 L 6.875 24.921875 L 6.882812 24.894531 L 6.886719 24.875 L 6.898438 24.851562 L 6.90625 24.832031 L 6.917969 24.808594 L 6.929688 24.789062 L 6.941406 24.765625 L 6.957031 24.746094 L 7.007812 24.695312 L 7.140625 24.835938 L 7.121094 24.855469 L 7.105469 24.878906 L 7.09375 24.898438 L 7.078125 24.925781 L 7.066406 24.964844 L 7.0625 24.980469 L 7.058594 24.992188 L 7.058594 25.074219 L 7.0625 25.085938 L 7.066406 25.101562 L 7.082031 25.152344 L 7.097656 25.179688 L 7.113281 25.203125 L 7.132812 25.226562 Z M 7.003906 25.378906 Z M 7.554688 25.238281 L 7.695312 25.378906 L 7.679688 25.394531 L 7.617188 25.441406 L 7.558594 25.476562 L 7.464844 25.507812 L 7.421875 25.515625 L 7.375 25.519531 L 7.328125 25.519531 L 7.28125 25.515625 L 7.234375 25.507812 L 7.1875 25.492188 L 7.144531 25.476562 L 7.125 25.464844 L 7.101562 25.453125 L 7.082031 25.441406 L 7.0625 25.425781 L 7.042969 25.414062 L 7.023438 25.394531 L 7.003906 25.378906 L 7.140625 25.238281 L 7.152344 25.25 L 7.164062 25.257812 L 7.175781 25.269531 L 7.191406 25.277344 L 7.203125 25.28125 L 7.226562 25.296875 L 7.242188 25.304688 L 7.257812 25.308594 L 7.28125 25.316406 L 7.296875 25.320312 L 7.324219 25.324219 L 7.378906 25.324219 L 7.40625 25.320312 L 7.421875 25.316406 L 7.429688 25.3125 L 7.457031 25.304688 L 7.496094 25.285156 L 7.519531 25.269531 L 7.542969 25.25 Z M 7.554688 25.238281 "/>
<path style=" stroke:none;fill-rule:nonzero;fill:rgb(0%,0%,0%);fill-opacity:1;" d="M 7.066406 20.453125 C 7.105469 17.585938 9.53125 14.265625 13.535156 14.054688 C 17.625 13.839844 20.59375 17.019531 20.757812 20.453125 C 16.1875 20.453125 11.628906 20.453125 7.066406 20.453125 Z M 13.878906 23.28125 C 12.683594 23.253906 11.644531 22.363281 11.523438 21.257812 C 13.125 21.257812 14.722656 21.257812 16.335938 21.257812 C 16.171875 22.410156 15.078125 23.304688 13.878906 23.28125 Z M 21.53125 20.71875 C 21.503906 19.863281 21.359375 19.027344 21.046875 18.234375 C 20.152344 15.964844 18.589844 14.375 16.238281 13.605469 C 16.019531 13.535156 15.792969 13.480469 15.570312 13.414062 L 12.300781 13.414062 C 12.28125 13.421875 12.265625 13.425781 12.246094 13.429688 C 11.398438 13.621094 10.601562 13.941406 9.863281 14.402344 C 8.425781 15.296875 7.394531 16.527344 6.773438 18.089844 C 6.441406 18.9375 6.28125 19.808594 6.257812 20.714844 C 6.246094 21.109375 6.363281 21.246094 6.769531 21.246094 C 8 21.246094 9.242188 21.246094 10.476562 21.246094 C 10.546875 21.246094 10.617188 21.246094 10.679688 21.246094 C 11.015625 23.222656 12.554688 24.046875 13.816406 24.0625 C 14.523438 24.066406 15.160156 23.886719 15.738281 23.492188 C 16.523438 22.953125 16.941406 22.179688 17.09375 21.246094 C 17.175781 21.246094 17.246094 21.246094 17.320312 21.246094 C 18.554688 21.246094 19.789062 21.246094 21.027344 21.246094 C 21.414062 21.246094 21.539062 21.101562 21.53125 20.71875 Z M 21.53125 20.71875 "/>
<path style=" stroke:none;fill-rule:nonzero;fill:rgb(0%,0%,0%);fill-opacity:1;" d="M 13.527344 13.957031 L 13.539062 14.152344 L 13.171875 14.179688 L 12.816406 14.226562 L 12.46875 14.289062 L 12.132812 14.367188 L 11.804688 14.460938 L 11.488281 14.570312 L 11.179688 14.691406 L 10.882812 14.828125 L 10.597656 14.976562 L 10.320312 15.136719 L 10.054688 15.308594 L 9.796875 15.492188 L 9.554688 15.6875 L 9.320312 15.890625 L 9.097656 16.101562 L 8.886719 16.324219 L 8.6875 16.550781 L 8.5 16.785156 L 8.324219 17.027344 L 8.160156 17.273438 L 8.007812 17.527344 L 7.867188 17.785156 L 7.738281 18.042969 L 7.625 18.308594 L 7.519531 18.578125 L 7.429688 18.84375 L 7.351562 19.113281 L 7.289062 19.382812 L 7.238281 19.652344 L 7.203125 19.921875 L 7.175781 20.1875 L 7.167969 20.453125 L 6.96875 20.449219 L 6.980469 20.175781 L 7.003906 19.898438 L 7.042969 19.621094 L 7.097656 19.34375 L 7.160156 19.066406 L 7.242188 18.789062 L 7.335938 18.511719 L 7.441406 18.238281 L 7.558594 17.964844 L 7.691406 17.695312 L 7.835938 17.433594 L 7.992188 17.171875 L 8.160156 16.917969 L 8.34375 16.667969 L 8.535156 16.425781 L 8.742188 16.191406 L 8.960938 15.964844 L 9.1875 15.746094 L 9.429688 15.539062 L 9.679688 15.339844 L 9.941406 15.148438 L 10.21875 14.972656 L 10.503906 14.804688 L 10.796875 14.652344 L 11.105469 14.511719 L 11.421875 14.386719 L 11.746094 14.273438 L 12.082031 14.175781 L 12.429688 14.097656 L 12.789062 14.03125 L 13.152344 13.984375 L 13.53125 13.957031 Z M 20.757812 20.550781 L 20.757812 20.355469 L 20.660156 20.457031 L 20.636719 20.140625 L 20.597656 19.828125 L 20.542969 19.515625 L 20.472656 19.207031 L 20.386719 18.902344 L 20.285156 18.601562 L 20.171875 18.304688 L 20.042969 18.015625 L 19.902344 17.730469 L 19.75 17.453125 L 19.582031 17.183594 L 19.398438 16.917969 L 19.203125 16.664062 L 19 16.417969 L 18.78125 16.179688 L 18.550781 15.957031 L 18.308594 15.738281 L 18.058594 15.535156 L 17.792969 15.339844 L 17.519531 15.160156 L 17.238281 14.992188 L 16.945312 14.835938 L 16.640625 14.699219 L 16.328125 14.570312 L 16.007812 14.460938 L 15.679688 14.367188 L 15.339844 14.285156 L 14.996094 14.222656 L 14.644531 14.175781 L 14.28125 14.152344 L 13.914062 14.140625 L 13.539062 14.152344 L 13.527344 13.957031 L 13.914062 13.945312 L 14.289062 13.953125 L 14.664062 13.984375 L 15.027344 14.027344 L 15.382812 14.09375 L 15.730469 14.175781 L 16.070312 14.273438 L 16.398438 14.390625 L 16.722656 14.519531 L 17.035156 14.664062 L 17.335938 14.824219 L 17.625 14.996094 L 17.910156 15.179688 L 18.179688 15.378906 L 18.4375 15.589844 L 18.6875 15.8125 L 18.921875 16.046875 L 19.148438 16.289062 L 19.359375 16.542969 L 19.558594 16.804688 L 19.746094 17.074219 L 19.917969 17.351562 L 20.078125 17.636719 L 20.222656 17.929688 L 20.355469 18.230469 L 20.472656 18.535156 L 20.574219 18.84375 L 20.664062 19.15625 L 20.734375 19.476562 L 20.789062 19.800781 L 20.832031 20.121094 L 20.855469 20.449219 Z M 20.859375 20.449219 L 20.863281 20.550781 L 20.757812 20.550781 Z M 6.96875 20.449219 L 7.167969 20.457031 L 7.066406 20.355469 L 20.761719 20.355469 L 20.761719 20.550781 L 7.066406 20.550781 Z M 7.066406 20.550781 L 6.96875 20.550781 L 6.96875 20.449219 L 7.070312 20.550781 Z M 11.527344 21.15625 L 11.527344 21.351562 L 11.621094 21.242188 L 11.636719 21.339844 L 11.65625 21.441406 L 11.675781 21.535156 L 11.738281 21.722656 L 11.773438 21.8125 L 11.816406 21.902344 L 11.859375 21.988281 L 11.910156 22.074219 L 11.964844 22.15625 L 12.023438 22.234375 L 12.082031 22.316406 L 12.148438 22.390625 L 12.21875 22.464844 L 12.289062 22.535156 L 12.363281 22.601562 L 12.519531 22.726562 L 12.691406 22.835938 L 12.777344 22.886719 L 12.867188 22.9375 L 12.964844 22.976562 L 13.058594 23.015625 L 13.15625 23.054688 L 13.253906 23.085938 L 13.355469 23.113281 L 13.457031 23.136719 L 13.558594 23.15625 L 13.769531 23.179688 L 13.878906 23.183594 L 13.875 23.378906 L 13.757812 23.375 L 13.644531 23.363281 L 13.53125 23.347656 L 13.417969 23.328125 L 13.304688 23.300781 L 13.195312 23.273438 L 13.089844 23.238281 L 12.984375 23.199219 L 12.882812 23.15625 L 12.78125 23.109375 L 12.683594 23.058594 L 12.585938 23.003906 L 12.492188 22.945312 L 12.402344 22.882812 L 12.316406 22.816406 L 12.230469 22.746094 L 12.074219 22.597656 L 12 22.519531 L 11.929688 22.4375 L 11.863281 22.351562 L 11.800781 22.265625 L 11.742188 22.175781 L 11.6875 22.082031 L 11.636719 21.988281 L 11.589844 21.890625 L 11.550781 21.789062 L 11.515625 21.6875 L 11.488281 21.585938 L 11.460938 21.480469 L 11.441406 21.371094 L 11.425781 21.261719 L 11.523438 21.15625 Z M 11.425781 21.265625 L 11.417969 21.15625 L 11.527344 21.15625 Z M 16.433594 21.269531 L 16.238281 21.242188 L 16.335938 21.351562 L 11.523438 21.351562 L 11.523438 21.15625 L 16.335938 21.15625 Z M 16.335938 21.15625 L 16.449219 21.15625 L 16.433594 21.269531 Z M 13.875 23.378906 L 13.878906 23.183594 L 13.988281 23.183594 L 14.09375 23.175781 L 14.203125 23.164062 L 14.304688 23.148438 L 14.410156 23.128906 L 14.511719 23.105469 L 14.613281 23.078125 L 14.714844 23.042969 L 14.808594 23.007812 L 14.90625 22.964844 L 15 22.917969 L 15.179688 22.816406 L 15.269531 22.757812 L 15.351562 22.699219 L 15.433594 22.632812 L 15.515625 22.5625 L 15.589844 22.492188 L 15.660156 22.421875 L 15.792969 22.265625 L 15.855469 22.183594 L 15.914062 22.097656 L 15.964844 22.011719 L 16.015625 21.921875 L 16.0625 21.828125 L 16.105469 21.738281 L 16.140625 21.640625 L 16.171875 21.542969 L 16.199219 21.445312 L 16.222656 21.34375 L 16.238281 21.242188 L 16.433594 21.265625 L 16.414062 21.378906 L 16.390625 21.488281 L 16.359375 21.597656 L 16.324219 21.703125 L 16.285156 21.808594 L 16.238281 21.914062 L 16.191406 22.011719 L 16.082031 22.207031 L 16.015625 22.296875 L 15.949219 22.382812 L 15.878906 22.472656 L 15.804688 22.554688 L 15.726562 22.632812 L 15.644531 22.710938 L 15.558594 22.785156 L 15.472656 22.855469 L 15.378906 22.921875 L 15.191406 23.039062 L 15.089844 23.09375 L 14.992188 23.144531 L 14.78125 23.230469 L 14.671875 23.265625 L 14.5625 23.296875 L 14.453125 23.324219 L 14.339844 23.34375 L 14.113281 23.375 L 13.992188 23.378906 Z M 13.878906 23.378906 L 13.875 23.378906 Z M 20.957031 18.269531 L 21.140625 18.195312 L 21.199219 18.347656 L 21.277344 18.578125 L 21.300781 18.65625 L 21.324219 18.730469 L 21.371094 18.886719 L 21.429688 19.121094 L 21.445312 19.199219 L 21.480469 19.355469 L 21.496094 19.433594 L 21.507812 19.511719 L 21.519531 19.59375 L 21.546875 19.75 L 21.558594 19.832031 L 21.570312 19.910156 L 21.578125 19.992188 L 21.585938 20.070312 L 21.59375 20.152344 L 21.601562 20.230469 L 21.609375 20.3125 L 21.613281 20.390625 L 21.617188 20.472656 L 21.625 20.550781 L 21.625 20.632812 L 21.628906 20.714844 L 21.433594 20.71875 L 21.421875 20.484375 L 21.417969 20.402344 L 21.410156 20.328125 L 21.40625 20.246094 L 21.382812 20.011719 L 21.371094 19.933594 L 21.363281 19.855469 L 21.328125 19.621094 L 21.300781 19.46875 L 21.269531 19.316406 L 21.21875 19.085938 L 21.199219 19.011719 L 21.160156 18.859375 L 21.113281 18.710938 L 21.09375 18.636719 L 21.066406 18.558594 L 21.042969 18.488281 L 21.015625 18.414062 L 20.988281 18.335938 L 20.960938 18.261719 L 20.960938 18.265625 Z M 21.140625 18.195312 L 21.121094 18.148438 Z M 16.207031 13.699219 L 16.269531 13.511719 L 16.488281 13.585938 L 16.707031 13.667969 L 16.917969 13.753906 L 17.125 13.84375 L 17.328125 13.9375 L 17.71875 14.140625 L 17.90625 14.25 L 18.09375 14.363281 L 18.273438 14.480469 L 18.445312 14.605469 L 18.621094 14.734375 L 18.949219 15 L 19.105469 15.144531 L 19.257812 15.289062 L 19.410156 15.4375 L 19.554688 15.59375 L 19.695312 15.753906 L 19.828125 15.914062 L 19.964844 16.082031 L 20.089844 16.253906 L 20.214844 16.429688 L 20.332031 16.609375 L 20.449219 16.792969 L 20.558594 16.980469 L 20.667969 17.175781 L 20.769531 17.367188 L 20.867188 17.570312 L 21.054688 17.984375 L 21.140625 18.195312 L 20.957031 18.269531 L 20.875 18.058594 L 20.785156 17.855469 L 20.691406 17.652344 L 20.59375 17.457031 L 20.496094 17.265625 L 20.390625 17.078125 L 20.28125 16.894531 L 20.167969 16.710938 L 20.054688 16.539062 L 19.933594 16.367188 L 19.808594 16.199219 L 19.679688 16.035156 L 19.546875 15.875 L 19.410156 15.722656 L 19.265625 15.574219 L 19.125 15.425781 L 18.972656 15.285156 L 18.820312 15.148438 L 18.660156 15.015625 L 18.5 14.886719 L 18.332031 14.761719 L 18.164062 14.644531 L 17.984375 14.527344 L 17.804688 14.417969 L 17.621094 14.3125 L 17.433594 14.210938 L 17.242188 14.113281 L 17.042969 14.019531 L 16.839844 13.933594 L 16.632812 13.847656 L 16.421875 13.769531 Z M 16.269531 13.511719 L 16.21875 13.496094 Z M 15.574219 13.515625 L 15.574219 13.316406 L 15.597656 13.320312 L 15.621094 13.328125 L 15.640625 13.332031 L 15.660156 13.339844 L 15.683594 13.347656 L 15.703125 13.351562 L 15.722656 13.359375 L 15.742188 13.363281 L 15.765625 13.371094 L 15.785156 13.375 L 15.828125 13.386719 L 15.847656 13.390625 L 15.871094 13.398438 L 15.890625 13.402344 L 15.910156 13.410156 L 15.933594 13.414062 L 15.953125 13.421875 L 15.976562 13.425781 L 15.996094 13.429688 L 16.039062 13.445312 L 16.058594 13.449219 L 16.082031 13.457031 L 16.101562 13.460938 L 16.121094 13.46875 L 16.144531 13.476562 L 16.183594 13.484375 L 16.203125 13.492188 L 16.25 13.503906 L 16.269531 13.511719 L 16.210938 13.699219 L 16.191406 13.691406 L 16.167969 13.683594 L 16.128906 13.675781 L 16.105469 13.667969 L 16.066406 13.65625 L 16.046875 13.648438 L 16.027344 13.644531 L 16.003906 13.636719 L 15.984375 13.628906 L 15.964844 13.625 L 15.941406 13.621094 L 15.921875 13.613281 L 15.902344 13.609375 L 15.882812 13.601562 L 15.863281 13.597656 L 15.839844 13.589844 L 15.820312 13.585938 L 15.796875 13.578125 L 15.757812 13.570312 L 15.734375 13.566406 L 15.714844 13.558594 L 15.691406 13.550781 L 15.671875 13.546875 L 15.652344 13.539062 L 15.628906 13.535156 L 15.589844 13.519531 L 15.570312 13.515625 L 15.546875 13.511719 L 15.574219 13.511719 Z M 15.574219 13.316406 L 15.585938 13.316406 L 15.597656 13.320312 Z M 12.300781 13.316406 L 15.574219 13.316406 L 15.574219 13.515625 L 12.300781 13.515625 L 12.269531 13.320312 Z M 12.269531 13.320312 L 12.285156 13.316406 L 12.300781 13.316406 Z M 12.300781 13.414062 L 12.332031 13.507812 Z M 12.269531 13.320312 L 12.285156 13.316406 L 12.300781 13.316406 Z M 12.265625 13.527344 L 12.222656 13.335938 L 12.234375 13.335938 L 12.226562 13.335938 L 12.234375 13.335938 L 12.234375 13.332031 L 12.246094 13.332031 L 12.242188 13.332031 L 12.246094 13.332031 L 12.246094 13.328125 L 12.257812 13.328125 L 12.25 13.328125 L 12.257812 13.328125 L 12.253906 13.328125 L 12.261719 13.320312 L 12.265625 13.320312 L 12.257812 13.324219 L 12.261719 13.324219 L 12.261719 13.320312 L 12.273438 13.320312 L 12.265625 13.320312 L 12.273438 13.320312 L 12.335938 13.503906 L 12.328125 13.507812 L 12.324219 13.507812 L 12.332031 13.503906 L 12.328125 13.507812 L 12.316406 13.511719 L 12.320312 13.511719 L 12.316406 13.511719 L 12.308594 13.515625 L 12.304688 13.515625 L 12.308594 13.515625 L 12.300781 13.515625 L 12.292969 13.519531 L 12.296875 13.519531 L 12.289062 13.519531 L 12.289062 13.523438 L 12.273438 13.523438 L 12.277344 13.523438 L 12.273438 13.523438 L 12.269531 13.527344 Z M 12.269531 13.527344 L 12.265625 13.527344 Z M 9.917969 14.484375 L 9.8125 14.320312 L 10.023438 14.191406 L 10.09375 14.152344 L 10.167969 14.109375 L 10.238281 14.070312 L 10.3125 14.03125 L 10.382812 13.996094 L 10.457031 13.957031 L 10.679688 13.851562 L 10.75 13.820312 L 10.828125 13.785156 L 10.976562 13.722656 L 11.128906 13.664062 L 11.207031 13.632812 L 11.28125 13.609375 L 11.359375 13.578125 L 11.515625 13.53125 L 11.589844 13.503906 L 11.75 13.457031 L 11.90625 13.414062 L 11.988281 13.394531 L 12.066406 13.375 L 12.148438 13.355469 L 12.226562 13.335938 L 12.273438 13.527344 L 12.191406 13.546875 L 12.113281 13.566406 L 12.039062 13.585938 L 11.882812 13.625 L 11.730469 13.667969 L 11.5 13.738281 L 11.054688 13.902344 L 10.90625 13.964844 L 10.691406 14.0625 L 10.546875 14.132812 L 10.476562 14.167969 L 10.335938 14.242188 L 10.054688 14.398438 L 9.921875 14.484375 Z M 9.917969 14.484375 Z M 6.867188 18.128906 L 6.683594 18.054688 L 6.742188 17.90625 L 6.867188 17.617188 L 7.007812 17.335938 L 7.078125 17.199219 L 7.15625 17.0625 L 7.230469 16.929688 L 7.3125 16.796875 L 7.394531 16.667969 L 7.480469 16.539062 L 7.652344 16.289062 L 7.746094 16.167969 L 7.9375 15.929688 L 8.035156 15.816406 L 8.242188 15.589844 L 8.460938 15.371094 L 8.683594 15.160156 L 8.800781 15.058594 L 8.917969 14.960938 L 9.160156 14.765625 L 9.289062 14.671875 L 9.414062 14.578125 L 9.546875 14.488281 L 9.675781 14.402344 L 9.8125 14.316406 L 9.917969 14.484375 L 9.785156 14.566406 L 9.65625 14.652344 L 9.53125 14.738281 L 9.402344 14.828125 L 9.164062 15.011719 L 8.929688 15.207031 L 8.707031 15.40625 L 8.597656 15.507812 L 8.492188 15.613281 L 8.390625 15.722656 L 8.285156 15.832031 L 8.1875 15.941406 L 8.089844 16.054688 L 7.996094 16.171875 L 7.90625 16.285156 L 7.816406 16.402344 L 7.726562 16.523438 L 7.480469 16.898438 L 7.402344 17.023438 L 7.328125 17.15625 L 7.257812 17.289062 L 7.183594 17.421875 L 7.050781 17.695312 L 6.988281 17.835938 L 6.925781 17.980469 L 6.867188 18.125 Z M 6.683594 18.054688 L 6.664062 18.101562 Z M 6.359375 20.714844 L 6.164062 20.710938 L 6.164062 20.625 L 6.175781 20.371094 L 6.183594 20.285156 L 6.1875 20.203125 L 6.207031 20.03125 L 6.214844 19.949219 L 6.226562 19.863281 L 6.246094 19.695312 L 6.261719 19.609375 L 6.277344 19.527344 L 6.289062 19.445312 L 6.304688 19.363281 L 6.320312 19.277344 L 6.339844 19.199219 L 6.355469 19.113281 L 6.394531 18.949219 L 6.464844 18.703125 L 6.511719 18.542969 L 6.59375 18.296875 L 6.65625 18.140625 L 6.683594 18.058594 L 6.867188 18.128906 L 6.839844 18.207031 L 6.808594 18.285156 L 6.78125 18.367188 L 6.753906 18.441406 L 6.730469 18.523438 L 6.703125 18.601562 L 6.65625 18.761719 L 6.609375 18.917969 L 6.589844 19 L 6.570312 19.078125 L 6.550781 19.160156 L 6.535156 19.238281 L 6.515625 19.320312 L 6.46875 19.5625 L 6.445312 19.726562 L 6.433594 19.804688 L 6.425781 19.890625 L 6.414062 19.96875 L 6.40625 20.050781 L 6.394531 20.132812 L 6.375 20.382812 L 6.371094 20.464844 L 6.371094 20.550781 L 6.363281 20.714844 Z M 6.359375 20.714844 L 6.359375 20.71875 Z M 6.769531 21.148438 L 6.769531 21.339844 L 6.691406 21.339844 L 6.65625 21.335938 L 6.621094 21.335938 L 6.585938 21.332031 L 6.554688 21.324219 L 6.523438 21.320312 L 6.460938 21.300781 L 6.433594 21.289062 L 6.40625 21.28125 L 6.355469 21.25 L 6.332031 21.230469 L 6.308594 21.214844 L 6.285156 21.195312 L 6.269531 21.171875 L 6.25 21.148438 L 6.238281 21.121094 L 6.222656 21.097656 L 6.199219 21.042969 L 6.1875 21.011719 L 6.183594 20.984375 L 6.175781 20.953125 L 6.171875 20.921875 L 6.167969 20.886719 L 6.164062 20.855469 L 6.164062 20.710938 L 6.359375 20.714844 L 6.359375 20.8125 L 6.363281 20.867188 L 6.367188 20.894531 L 6.375 20.941406 L 6.382812 20.960938 L 6.386719 20.976562 L 6.390625 20.996094 L 6.398438 21.011719 L 6.414062 21.039062 L 6.441406 21.070312 L 6.464844 21.085938 L 6.476562 21.097656 L 6.507812 21.109375 L 6.523438 21.117188 L 6.546875 21.121094 L 6.566406 21.125 L 6.613281 21.136719 L 6.644531 21.140625 L 6.671875 21.140625 L 6.734375 21.148438 Z M 10.476562 21.148438 L 10.476562 21.339844 L 6.757812 21.339844 L 6.757812 21.148438 Z M 10.78125 21.226562 L 10.585938 21.261719 L 10.6875 21.34375 L 10.476562 21.34375 L 10.476562 21.148438 L 10.6875 21.148438 L 10.78125 21.230469 Z M 10.6875 21.148438 L 10.769531 21.148438 L 10.78125 21.226562 Z M 13.820312 23.964844 L 13.820312 24.160156 L 13.695312 24.15625 L 13.445312 24.132812 L 13.320312 24.113281 L 13.191406 24.089844 L 13.066406 24.058594 L 12.9375 24.023438 L 12.8125 23.984375 L 12.6875 23.941406 L 12.5625 23.890625 L 12.4375 23.832031 L 12.316406 23.773438 L 12.074219 23.632812 L 11.960938 23.550781 L 11.84375 23.464844 L 11.730469 23.375 L 11.625 23.277344 L 11.519531 23.175781 L 11.417969 23.066406 L 11.320312 22.949219 L 11.226562 22.828125 L 11.140625 22.699219 L 11.054688 22.566406 L 10.976562 22.425781 L 10.898438 22.277344 L 10.832031 22.125 L 10.769531 21.96875 L 10.714844 21.800781 L 10.667969 21.628906 L 10.625 21.445312 L 10.589844 21.261719 L 10.78125 21.226562 L 10.816406 21.40625 L 10.855469 21.578125 L 10.90625 21.742188 L 10.957031 21.898438 L 11.015625 22.050781 L 11.078125 22.195312 L 11.148438 22.335938 L 11.222656 22.46875 L 11.304688 22.59375 L 11.386719 22.714844 L 11.472656 22.828125 L 11.566406 22.9375 L 11.660156 23.039062 L 11.761719 23.136719 L 11.859375 23.226562 L 11.964844 23.3125 L 12.074219 23.394531 L 12.183594 23.46875 L 12.296875 23.535156 L 12.410156 23.597656 L 12.523438 23.65625 L 12.640625 23.710938 L 12.757812 23.761719 L 12.878906 23.800781 L 12.996094 23.839844 L 13.113281 23.875 L 13.234375 23.902344 L 13.351562 23.921875 L 13.472656 23.941406 L 13.589844 23.957031 L 13.703125 23.964844 Z M 13.820312 24.160156 L 13.816406 24.160156 Z M 15.683594 23.414062 L 15.796875 23.574219 L 15.683594 23.648438 L 15.628906 23.683594 L 15.515625 23.746094 L 15.453125 23.777344 L 15.398438 23.808594 L 15.28125 23.867188 L 15.21875 23.890625 L 15.101562 23.9375 L 14.976562 23.984375 L 14.917969 24.003906 L 14.855469 24.019531 L 14.792969 24.039062 L 14.667969 24.070312 L 14.539062 24.097656 L 14.476562 24.109375 L 14.410156 24.121094 L 14.347656 24.128906 L 14.28125 24.136719 L 14.152344 24.148438 L 14.085938 24.152344 L 14.015625 24.15625 L 13.953125 24.160156 L 13.816406 24.160156 L 13.820312 23.964844 L 13.949219 23.964844 L 14.011719 23.960938 L 14.070312 23.957031 L 14.136719 23.953125 L 14.195312 23.949219 L 14.261719 23.941406 L 14.378906 23.925781 L 14.441406 23.914062 L 14.5 23.90625 L 14.5625 23.890625 L 14.679688 23.867188 L 14.738281 23.851562 L 14.796875 23.832031 L 14.855469 23.816406 L 14.972656 23.777344 L 15.085938 23.734375 L 15.195312 23.6875 L 15.25 23.660156 L 15.308594 23.632812 L 15.417969 23.578125 L 15.46875 23.546875 L 15.523438 23.511719 L 15.578125 23.484375 L 15.628906 23.449219 Z M 15.796875 23.574219 L 15.816406 23.558594 Z M 17.09375 21.148438 L 17.09375 21.339844 L 17.195312 21.261719 L 17.179688 21.347656 L 17.160156 21.4375 L 17.101562 21.695312 L 17.074219 21.78125 L 17.050781 21.863281 L 16.996094 22.027344 L 16.964844 22.105469 L 16.898438 22.265625 L 16.859375 22.34375 L 16.824219 22.417969 L 16.785156 22.492188 L 16.742188 22.566406 L 16.652344 22.710938 L 16.605469 22.777344 L 16.503906 22.917969 L 16.449219 22.980469 L 16.394531 23.046875 L 16.277344 23.171875 L 16.214844 23.234375 L 16.148438 23.292969 L 16.085938 23.351562 L 15.945312 23.464844 L 15.796875 23.574219 L 15.683594 23.410156 L 15.757812 23.359375 L 15.890625 23.257812 L 16.015625 23.148438 L 16.136719 23.035156 L 16.246094 22.917969 L 16.296875 22.855469 L 16.347656 22.796875 L 16.394531 22.734375 L 16.488281 22.601562 L 16.570312 22.46875 L 16.648438 22.328125 L 16.683594 22.257812 L 16.714844 22.1875 L 16.746094 22.109375 L 16.808594 21.960938 L 16.835938 21.886719 L 16.859375 21.808594 L 16.886719 21.726562 L 16.90625 21.648438 L 16.925781 21.566406 L 16.964844 21.398438 L 16.996094 21.230469 Z M 17 21.226562 L 17.011719 21.148438 L 17.09375 21.148438 Z M 17.320312 21.148438 L 17.320312 21.339844 L 17.09375 21.339844 L 17.09375 21.148438 Z M 21.027344 21.148438 L 21.027344 21.339844 L 17.3125 21.339844 L 17.3125 21.148438 Z M 21.433594 20.722656 L 21.628906 20.714844 L 21.628906 20.824219 L 21.625 20.859375 L 21.625 20.890625 L 21.617188 20.921875 L 21.597656 21.015625 L 21.589844 21.042969 L 21.578125 21.070312 L 21.554688 21.121094 L 21.539062 21.148438 L 21.519531 21.171875 L 21.480469 21.210938 L 21.457031 21.230469 L 21.410156 21.261719 L 21.382812 21.277344 L 21.328125 21.300781 L 21.300781 21.308594 L 21.207031 21.332031 L 21.171875 21.335938 L 21.101562 21.339844 L 21.027344 21.339844 L 21.027344 21.148438 L 21.0625 21.148438 L 21.121094 21.140625 L 21.175781 21.136719 L 21.222656 21.128906 L 21.242188 21.121094 L 21.261719 21.117188 L 21.28125 21.109375 L 21.3125 21.097656 L 21.324219 21.085938 L 21.34375 21.070312 L 21.375 21.039062 L 21.382812 21.023438 L 21.390625 21.011719 L 21.394531 20.996094 L 21.410156 20.960938 L 21.414062 20.941406 L 21.421875 20.898438 L 21.425781 20.875 L 21.429688 20.847656 L 21.429688 20.722656 Z M 21.628906 20.714844 L 21.628906 20.71875 Z M 21.628906 20.714844 "/>
<path style=" stroke:none;fill-rule:nonzero;fill:rgb(0%,0%,0%);fill-opacity:1;" d="M 17.800781 2.140625 L 13.632812 2.140625 C 13.632812 2.140625 13.628906 2.140625 13.628906 2.140625 L 12.058594 2.140625 C 11.1875 2.140625 10.4375 1.507812 10.300781 0.652344 L 19.558594 0.652344 C 19.421875 1.507812 18.679688 2.140625 17.800781 2.140625 Z M 11.257812 6.222656 C 11.082031 5.910156 10.808594 5.667969 10.476562 5.53125 L 13.738281 2.6875 L 15.292969 2.6875 Z M 9.882812 8 C 9.3125 8 8.855469 7.546875 8.855469 6.984375 C 8.855469 6.421875 9.3125 5.964844 9.882812 5.964844 C 10.449219 5.964844 10.90625 6.421875 10.90625 6.984375 C 10.90625 7.550781 10.441406 8 9.882812 8 Z M 19.859375 0.0976562 L 10 0.0976562 C 9.847656 0.0976562 9.722656 0.222656 9.722656 0.375 C 9.726562 1.652344 10.769531 2.6875 12.058594 2.6875 L 12.894531 2.6875 L 9.765625 5.421875 C 8.941406 5.476562 8.300781 6.160156 8.296875 6.984375 C 8.300781 7.6875 8.777344 8.308594 9.464844 8.496094 L 12.894531 13.761719 L 13.347656 13.425781 L 13.140625 13.222656 L 13.621094 13.828125 L 10.144531 8.527344 C 10.441406 8.472656 10.722656 8.34375 10.945312 8.136719 L 13.894531 12.667969 L 13.886719 12.671875 L 14.339844 12.34375 L 11.300781 7.667969 C 11.4375 7.394531 11.488281 7.09375 11.445312 6.789062 L 16.128906 2.6875 L 17.800781 2.6875 C 19.089844 2.6875 20.132812 1.652344 20.136719 0.375 C 20.136719 0.222656 20.011719 0.0976562 19.859375 0.0976562 Z M 19.859375 0.0976562 "/>
<path style=" stroke:none;fill-rule:nonzero;fill:rgb(0%,0%,0%);fill-opacity:1;" d="M 16.023438 2.042969 L 17.796875 2.042969 L 17.796875 2.238281 L 16.023438 2.238281 Z M 16.023438 2.238281 L 16.023438 2.039062 Z M 13.632812 2.042969 L 16.023438 2.042969 L 16.023438 2.238281 L 13.632812 2.238281 Z M 13.625 2.238281 L 13.625 2.042969 Z M 12.058594 2.042969 L 13.625 2.042969 L 13.625 2.238281 L 12.058594 2.238281 Z M 10.300781 0.554688 L 10.300781 0.75 L 10.398438 0.632812 L 10.429688 0.78125 L 10.449219 0.855469 L 10.496094 0.996094 L 10.558594 1.132812 L 10.59375 1.195312 L 10.671875 1.320312 L 10.714844 1.378906 L 10.761719 1.433594 L 10.8125 1.492188 L 10.859375 1.542969 L 10.96875 1.644531 L 11.023438 1.6875 L 11.082031 1.730469 L 11.144531 1.773438 L 11.207031 1.8125 L 11.269531 1.847656 L 11.402344 1.910156 L 11.472656 1.9375 L 11.539062 1.960938 L 11.609375 1.980469 L 11.683594 2 L 11.753906 2.015625 L 11.832031 2.027344 L 11.90625 2.035156 L 11.984375 2.039062 L 12.058594 2.042969 L 12.058594 2.238281 L 11.972656 2.238281 L 11.890625 2.230469 L 11.804688 2.222656 L 11.640625 2.191406 L 11.558594 2.171875 L 11.476562 2.144531 L 11.324219 2.089844 L 11.25 2.054688 L 11.175781 2.015625 L 11.035156 1.9375 L 10.96875 1.890625 L 10.90625 1.84375 L 10.839844 1.789062 L 10.722656 1.679688 L 10.664062 1.621094 L 10.5625 1.496094 L 10.511719 1.429688 L 10.46875 1.363281 L 10.425781 1.289062 L 10.386719 1.21875 L 10.347656 1.144531 L 10.316406 1.070312 L 10.289062 0.992188 L 10.261719 0.910156 L 10.238281 0.828125 L 10.21875 0.75 L 10.203125 0.664062 L 10.300781 0.550781 Z M 10.203125 0.667969 L 10.183594 0.554688 L 10.300781 0.554688 Z M 19.558594 0.75 L 10.300781 0.75 L 10.300781 0.554688 L 19.558594 0.554688 L 19.65625 0.667969 Z M 19.558594 0.554688 L 19.675781 0.554688 L 19.65625 0.667969 Z M 17.800781 2.238281 L 17.800781 2.042969 L 17.875 2.039062 L 17.953125 2.035156 L 18.027344 2.027344 L 18.105469 2.015625 L 18.175781 2 L 18.25 1.980469 L 18.320312 1.960938 L 18.390625 1.9375 L 18.457031 1.910156 L 18.527344 1.878906 L 18.589844 1.847656 L 18.65625 1.8125 L 18.714844 1.773438 L 18.777344 1.730469 L 18.835938 1.6875 L 18.890625 1.644531 L 19 1.542969 L 19.046875 1.492188 L 19.09375 1.4375 L 19.140625 1.378906 L 19.183594 1.320312 L 19.222656 1.261719 L 19.261719 1.195312 L 19.296875 1.132812 L 19.328125 1.066406 L 19.355469 1 L 19.382812 0.929688 L 19.40625 0.859375 L 19.445312 0.710938 L 19.460938 0.636719 L 19.65625 0.667969 L 19.640625 0.753906 L 19.621094 0.832031 L 19.597656 0.914062 L 19.570312 0.996094 L 19.539062 1.070312 L 19.507812 1.148438 L 19.472656 1.222656 L 19.433594 1.296875 L 19.390625 1.363281 L 19.347656 1.433594 L 19.296875 1.5 L 19.195312 1.625 L 19.140625 1.683594 L 19.082031 1.738281 L 19.019531 1.792969 L 18.957031 1.84375 L 18.824219 1.9375 L 18.753906 1.980469 L 18.683594 2.019531 L 18.609375 2.058594 L 18.460938 2.121094 L 18.382812 2.148438 L 18.300781 2.175781 L 18.222656 2.195312 L 18.140625 2.210938 L 18.054688 2.226562 L 17.96875 2.234375 L 17.886719 2.238281 L 17.796875 2.242188 Z M 10.410156 5.460938 L 10.539062 5.605469 L 10.511719 5.441406 L 10.546875 5.457031 L 10.578125 5.472656 L 10.609375 5.484375 L 10.671875 5.515625 L 10.765625 5.570312 L 10.796875 5.589844 L 10.824219 5.609375 L 10.855469 5.628906 L 10.882812 5.648438 L 10.910156 5.671875 L 10.9375 5.691406 L 10.964844 5.714844 L 11.015625 5.757812 L 11.09375 5.835938 L 11.113281 5.859375 L 11.140625 5.882812 L 11.160156 5.914062 L 11.183594 5.9375 L 11.207031 5.964844 L 11.226562 5.992188 L 11.25 6.023438 L 11.269531 6.050781 L 11.308594 6.113281 L 11.324219 6.140625 L 11.34375 6.171875 L 11.171875 6.265625 L 11.15625 6.242188 L 11.140625 6.210938 L 11.121094 6.1875 L 11.105469 6.160156 L 11.089844 6.136719 L 11.070312 6.113281 L 11.050781 6.085938 L 10.992188 6.015625 L 10.96875 5.992188 L 10.929688 5.945312 L 10.90625 5.925781 L 10.882812 5.902344 L 10.765625 5.804688 L 10.742188 5.789062 L 10.6875 5.75 L 10.636719 5.71875 L 10.582031 5.6875 L 10.554688 5.675781 L 10.527344 5.660156 L 10.496094 5.644531 L 10.46875 5.636719 L 10.441406 5.621094 L 10.414062 5.457031 Z M 10.4375 5.625 L 10.289062 5.566406 L 10.410156 5.460938 Z M 13.800781 2.761719 L 10.539062 5.605469 L 10.410156 5.460938 L 13.667969 2.617188 L 13.734375 2.59375 Z M 13.667969 2.617188 L 13.699219 2.59375 L 13.734375 2.59375 Z M 15.292969 2.785156 L 13.734375 2.785156 L 13.734375 2.59375 L 15.292969 2.59375 L 15.359375 2.761719 Z M 15.292969 2.59375 L 15.554688 2.59375 L 15.359375 2.761719 Z M 11.191406 6.148438 L 15.226562 2.617188 L 15.359375 2.761719 L 11.324219 6.292969 L 11.171875 6.269531 Z M 11.324219 6.292969 L 11.230469 6.375 L 11.167969 6.269531 L 11.320312 6.292969 Z M 8.753906 6.984375 L 8.953125 6.984375 L 8.953125 7.03125 L 8.957031 7.078125 L 8.972656 7.171875 L 8.980469 7.214844 L 9.042969 7.386719 L 9.066406 7.425781 L 9.085938 7.460938 L 9.109375 7.5 L 9.164062 7.570312 L 9.195312 7.605469 L 9.257812 7.667969 L 9.289062 7.695312 L 9.324219 7.722656 L 9.398438 7.773438 L 9.4375 7.796875 L 9.476562 7.816406 L 9.648438 7.878906 L 9.742188 7.894531 L 9.785156 7.902344 L 9.832031 7.90625 L 9.882812 7.90625 L 9.882812 8.101562 L 9.824219 8.101562 L 9.765625 8.097656 L 9.710938 8.089844 L 9.652344 8.078125 L 9.597656 8.066406 L 9.546875 8.050781 L 9.492188 8.035156 L 9.445312 8.015625 L 9.34375 7.96875 L 9.25 7.914062 L 9.207031 7.882812 L 9.164062 7.847656 L 9.085938 7.777344 L 9.046875 7.738281 L 8.976562 7.652344 L 8.945312 7.609375 L 8.890625 7.519531 L 8.867188 7.46875 L 8.84375 7.421875 L 8.824219 7.371094 L 8.808594 7.316406 L 8.792969 7.265625 L 8.777344 7.210938 L 8.765625 7.15625 L 8.761719 7.097656 L 8.757812 7.042969 Z M 9.882812 5.867188 L 9.882812 6.0625 L 9.832031 6.066406 L 9.785156 6.066406 L 9.742188 6.074219 L 9.648438 6.09375 L 9.605469 6.105469 L 9.476562 6.152344 L 9.398438 6.195312 L 9.363281 6.222656 L 9.324219 6.246094 L 9.289062 6.273438 L 9.257812 6.304688 L 9.226562 6.332031 L 9.164062 6.398438 L 9.109375 6.46875 L 9.0625 6.546875 L 9.042969 6.585938 L 9.007812 6.667969 L 8.992188 6.710938 L 8.972656 6.796875 L 8.960938 6.84375 L 8.953125 6.9375 L 8.953125 6.984375 L 8.753906 6.984375 L 8.757812 6.929688 L 8.765625 6.8125 L 8.789062 6.703125 L 8.820312 6.601562 L 8.890625 6.449219 L 8.917969 6.40625 L 8.945312 6.359375 L 8.976562 6.316406 L 9.046875 6.230469 L 9.121094 6.15625 L 9.164062 6.121094 L 9.203125 6.089844 L 9.296875 6.027344 L 9.34375 6.003906 L 9.390625 5.976562 L 9.441406 5.953125 L 9.492188 5.933594 L 9.542969 5.917969 L 9.597656 5.902344 L 9.652344 5.890625 L 9.707031 5.882812 L 9.765625 5.875 L 9.820312 5.867188 Z M 11.003906 6.984375 L 10.808594 6.984375 L 10.804688 6.9375 L 10.804688 6.890625 L 10.789062 6.796875 L 10.78125 6.753906 L 10.734375 6.625 L 10.71875 6.585938 L 10.695312 6.546875 L 10.675781 6.507812 L 10.652344 6.46875 L 10.597656 6.398438 L 10.566406 6.367188 L 10.539062 6.332031 L 10.503906 6.304688 L 10.472656 6.273438 L 10.4375 6.246094 L 10.398438 6.222656 L 10.363281 6.195312 L 10.285156 6.152344 L 10.15625 6.105469 L 10.070312 6.082031 L 9.976562 6.066406 L 9.929688 6.066406 L 9.882812 6.0625 L 9.882812 5.867188 L 9.9375 5.867188 L 9.996094 5.875 L 10.050781 5.882812 L 10.109375 5.890625 L 10.164062 5.902344 L 10.214844 5.917969 L 10.269531 5.933594 L 10.320312 5.953125 L 10.371094 5.976562 L 10.417969 6.003906 L 10.464844 6.027344 L 10.511719 6.058594 L 10.597656 6.121094 L 10.640625 6.15625 L 10.714844 6.230469 L 10.785156 6.316406 L 10.816406 6.359375 L 10.84375 6.40625 L 10.871094 6.449219 L 10.894531 6.5 L 10.921875 6.550781 L 10.941406 6.601562 L 10.972656 6.703125 L 10.996094 6.8125 L 11.003906 6.929688 L 11.007812 6.984375 Z M 9.882812 8.101562 L 9.882812 7.90625 L 9.929688 7.902344 L 9.976562 7.902344 L 10.019531 7.894531 L 10.066406 7.886719 L 10.109375 7.875 L 10.15625 7.863281 L 10.242188 7.832031 L 10.285156 7.8125 L 10.324219 7.792969 L 10.359375 7.773438 L 10.398438 7.75 L 10.433594 7.722656 L 10.472656 7.695312 L 10.539062 7.632812 L 10.566406 7.605469 L 10.625 7.535156 L 10.652344 7.5 L 10.699219 7.421875 L 10.71875 7.382812 L 10.753906 7.300781 L 10.769531 7.257812 L 10.78125 7.210938 L 10.789062 7.167969 L 10.800781 7.121094 L 10.804688 7.078125 L 10.8125 7.03125 L 10.8125 6.984375 L 11.007812 6.984375 L 11.007812 7.042969 L 11.003906 7.097656 L 10.996094 7.152344 L 10.972656 7.261719 L 10.957031 7.316406 L 10.941406 7.367188 L 10.921875 7.417969 L 10.898438 7.464844 L 10.84375 7.5625 L 10.785156 7.648438 L 10.714844 7.734375 L 10.640625 7.808594 L 10.554688 7.878906 L 10.511719 7.90625 L 10.464844 7.9375 L 10.417969 7.960938 L 10.371094 7.988281 L 10.320312 8.011719 L 10.269531 8.03125 L 10.21875 8.046875 L 10.164062 8.0625 L 10.054688 8.085938 L 10 8.089844 L 9.941406 8.097656 L 9.886719 8.097656 Z M 10 0 L 19.859375 0 L 19.859375 0.195312 L 10 0.195312 Z M 9.820312 0.375 L 9.621094 0.375 L 9.621094 0.355469 L 9.628906 0.316406 L 9.640625 0.265625 L 9.652344 0.230469 L 9.664062 0.210938 L 9.667969 0.195312 L 9.675781 0.179688 L 9.746094 0.0976562 L 9.773438 0.078125 L 9.804688 0.0546875 L 9.835938 0.0390625 L 9.855469 0.03125 L 9.886719 0.015625 L 9.925781 0.0078125 L 9.941406 0.00390625 L 9.980469 0 L 10 0 L 10 0.195312 L 9.992188 0.195312 L 9.972656 0.199219 L 9.964844 0.199219 L 9.957031 0.203125 L 9.929688 0.210938 L 9.890625 0.230469 L 9.886719 0.238281 L 9.878906 0.242188 L 9.859375 0.261719 L 9.847656 0.285156 L 9.839844 0.289062 L 9.832031 0.308594 L 9.832031 0.316406 L 9.828125 0.324219 L 9.828125 0.332031 L 9.824219 0.339844 L 9.820312 0.351562 Z M 9.621094 0.375 Z M 12.058594 2.589844 L 12.058594 2.785156 L 11.933594 2.78125 L 11.8125 2.773438 L 11.691406 2.757812 L 11.570312 2.738281 L 11.453125 2.710938 L 11.335938 2.675781 L 11.226562 2.640625 L 11.113281 2.597656 L 11.007812 2.546875 L 10.902344 2.492188 L 10.800781 2.4375 L 10.703125 2.375 L 10.605469 2.304688 L 10.515625 2.234375 L 10.429688 2.160156 L 10.34375 2.078125 L 10.261719 1.996094 L 10.183594 1.90625 L 10.113281 1.816406 L 10.046875 1.722656 L 9.984375 1.625 L 9.925781 1.523438 L 9.871094 1.417969 L 9.820312 1.316406 L 9.777344 1.207031 L 9.738281 1.089844 L 9.675781 0.863281 L 9.65625 0.742188 L 9.640625 0.625 L 9.628906 0.5 L 9.628906 0.375 L 9.824219 0.375 L 9.828125 0.488281 L 9.835938 0.605469 L 9.851562 0.714844 L 9.871094 0.824219 L 9.894531 0.929688 L 9.925781 1.035156 L 9.960938 1.136719 L 10 1.238281 L 10.046875 1.335938 L 10.097656 1.433594 L 10.148438 1.523438 L 10.210938 1.617188 L 10.269531 1.703125 L 10.339844 1.789062 L 10.40625 1.867188 L 10.484375 1.945312 L 10.558594 2.015625 L 10.640625 2.085938 L 10.726562 2.152344 L 10.8125 2.214844 L 10.902344 2.273438 L 10.996094 2.324219 L 11.09375 2.375 L 11.191406 2.417969 L 11.292969 2.457031 L 11.398438 2.492188 L 11.5 2.523438 L 11.609375 2.546875 L 11.71875 2.566406 L 11.832031 2.582031 L 11.945312 2.59375 L 12.0625 2.59375 Z M 12.894531 2.785156 L 12.058594 2.785156 L 12.058594 2.589844 L 12.894531 2.589844 L 12.960938 2.761719 Z M 12.894531 2.589844 L 13.15625 2.589844 L 12.960938 2.761719 Z M 9.703125 5.351562 L 12.828125 2.617188 L 12.960938 2.761719 L 9.832031 5.496094 L 9.773438 5.519531 L 9.699219 5.351562 Z M 9.832031 5.496094 L 9.804688 5.519531 L 9.773438 5.519531 Z M 8.394531 6.984375 L 8.199219 6.984375 L 8.199219 6.902344 L 8.207031 6.824219 L 8.214844 6.742188 L 8.230469 6.664062 L 8.25 6.589844 L 8.269531 6.511719 L 8.292969 6.4375 L 8.320312 6.367188 L 8.351562 6.292969 L 8.386719 6.226562 L 8.425781 6.15625 L 8.464844 6.09375 L 8.507812 6.027344 L 8.554688 5.964844 L 8.601562 5.90625 L 8.652344 5.847656 L 8.761719 5.746094 L 8.820312 5.695312 L 8.882812 5.644531 L 8.945312 5.601562 L 9.011719 5.5625 L 9.078125 5.519531 L 9.144531 5.484375 L 9.21875 5.457031 L 9.292969 5.425781 L 9.363281 5.402344 L 9.441406 5.378906 L 9.597656 5.347656 L 9.679688 5.335938 L 9.761719 5.328125 L 9.773438 5.523438 L 9.632812 5.539062 L 9.492188 5.570312 L 9.359375 5.609375 L 9.234375 5.664062 L 9.171875 5.695312 L 9.054688 5.765625 L 8.945312 5.84375 L 8.890625 5.890625 L 8.84375 5.933594 L 8.796875 5.984375 L 8.707031 6.085938 L 8.628906 6.195312 L 8.59375 6.257812 L 8.53125 6.375 L 8.503906 6.4375 L 8.480469 6.503906 L 8.460938 6.570312 L 8.4375 6.636719 L 8.425781 6.703125 L 8.414062 6.773438 L 8.398438 6.914062 L 8.394531 6.988281 Z M 8.199219 6.984375 Z M 9.546875 8.445312 L 9.382812 8.546875 L 9.4375 8.589844 L 9.371094 8.570312 L 9.238281 8.523438 L 9.175781 8.496094 L 9.117188 8.464844 L 9.054688 8.433594 L 8.9375 8.363281 L 8.882812 8.324219 L 8.832031 8.285156 L 8.777344 8.242188 L 8.726562 8.195312 L 8.679688 8.148438 L 8.632812 8.097656 L 8.589844 8.046875 L 8.507812 7.941406 L 8.46875 7.886719 L 8.433594 7.828125 L 8.371094 7.710938 L 8.339844 7.648438 L 8.316406 7.589844 L 8.289062 7.523438 L 8.25 7.394531 L 8.234375 7.328125 L 8.222656 7.261719 L 8.210938 7.191406 L 8.207031 7.125 L 8.199219 7.054688 L 8.199219 6.984375 L 8.394531 6.984375 L 8.398438 7.046875 L 8.402344 7.105469 L 8.410156 7.167969 L 8.417969 7.226562 L 8.445312 7.34375 L 8.480469 7.460938 L 8.5 7.515625 L 8.546875 7.625 L 8.574219 7.679688 L 8.636719 7.777344 L 8.667969 7.828125 L 8.703125 7.878906 L 8.742188 7.921875 L 8.78125 7.96875 L 8.820312 8.011719 L 8.863281 8.050781 L 8.957031 8.128906 L 9 8.164062 L 9.050781 8.199219 L 9.152344 8.261719 L 9.261719 8.316406 L 9.316406 8.339844 L 9.375 8.363281 L 9.433594 8.382812 L 9.492188 8.398438 L 9.550781 8.441406 Z M 9.492188 8.402344 L 9.527344 8.410156 L 9.546875 8.445312 Z M 12.8125 13.8125 L 9.382812 8.546875 L 9.546875 8.441406 L 12.976562 13.710938 L 12.953125 13.839844 Z M 12.953125 13.839844 L 12.867188 13.902344 L 12.8125 13.8125 Z M 13.40625 13.503906 L 12.953125 13.839844 L 12.835938 13.683594 L 13.289062 13.347656 L 13.417969 13.355469 L 13.410156 13.503906 Z M 13.417969 13.355469 L 13.5 13.4375 L 13.40625 13.503906 Z M 13.210938 13.152344 L 13.417969 13.355469 L 13.277344 13.496094 L 13.0625 13.28125 Z M 13.0625 13.28125 L 12.046875 11.992188 L 13.210938 13.152344 Z M 13.546875 13.886719 L 13.0625 13.28125 L 13.21875 13.160156 L 13.699219 13.765625 L 13.703125 13.773438 Z M 10.222656 8.472656 L 13.703125 13.773438 L 13.539062 13.878906 L 10.058594 8.582031 L 10.125 8.429688 Z M 10.058594 8.582031 L 9.980469 8.460938 L 10.125 8.429688 Z M 11.027344 8.085938 L 10.859375 8.191406 L 11.011719 8.210938 L 10.941406 8.269531 L 10.921875 8.289062 L 10.894531 8.304688 L 10.871094 8.324219 L 10.84375 8.34375 L 10.796875 8.375 L 10.769531 8.390625 L 10.746094 8.40625 L 10.71875 8.425781 L 10.695312 8.4375 L 10.667969 8.453125 L 10.640625 8.464844 L 10.613281 8.480469 L 10.476562 8.539062 L 10.449219 8.546875 L 10.394531 8.570312 L 10.335938 8.585938 L 10.308594 8.59375 L 10.277344 8.601562 L 10.21875 8.613281 L 10.1875 8.621094 L 10.160156 8.625 L 10.125 8.433594 L 10.148438 8.429688 L 10.175781 8.425781 L 10.230469 8.410156 L 10.253906 8.40625 L 10.277344 8.398438 L 10.332031 8.382812 L 10.378906 8.367188 L 10.40625 8.355469 L 10.429688 8.347656 L 10.574219 8.28125 L 10.597656 8.269531 L 10.644531 8.242188 L 10.667969 8.230469 L 10.6875 8.214844 L 10.710938 8.199219 L 10.730469 8.1875 L 10.75 8.171875 L 10.773438 8.15625 L 10.796875 8.136719 L 10.835938 8.105469 L 10.875 8.070312 L 11.023438 8.085938 Z M 10.878906 8.066406 L 10.964844 7.988281 L 11.027344 8.085938 L 10.875 8.066406 Z M 13.8125 12.71875 L 10.859375 8.191406 L 11.027344 8.085938 L 13.976562 12.617188 L 13.964844 12.734375 Z M 13.976562 12.617188 L 14.019531 12.679688 L 13.964844 12.734375 Z M 13.816406 12.605469 L 13.824219 12.601562 L 13.964844 12.734375 L 13.949219 12.75 Z M 13.949219 12.75 L 13.050781 13.40625 L 13.820312 12.605469 Z M 13.886719 12.671875 L 13.832031 12.59375 Z M 13.949219 12.75 L 13.050781 13.40625 L 13.820312 12.605469 Z M 14.398438 12.421875 L 13.949219 12.75 L 13.832031 12.59375 L 14.285156 12.261719 L 14.425781 12.289062 Z M 14.425781 12.289062 L 14.476562 12.367188 L 14.398438 12.421875 Z M 11.382812 7.613281 L 14.425781 12.289062 L 14.257812 12.398438 L 11.21875 7.71875 L 11.210938 7.625 Z M 11.21875 7.71875 L 11.1875 7.671875 L 11.210938 7.625 Z M 11.382812 6.714844 L 11.511719 6.863281 L 11.542969 6.777344 L 11.550781 6.839844 L 11.554688 6.867188 L 11.554688 6.898438 L 11.558594 6.957031 L 11.558594 7.015625 L 11.554688 7.046875 L 11.554688 7.105469 L 11.546875 7.167969 L 11.542969 7.195312 L 11.542969 7.226562 L 11.535156 7.257812 L 11.53125 7.285156 L 11.527344 7.316406 L 11.519531 7.34375 L 11.511719 7.375 L 11.503906 7.402344 L 11.496094 7.433594 L 11.472656 7.519531 L 11.4375 7.605469 L 11.425781 7.628906 L 11.414062 7.660156 L 11.386719 7.710938 L 11.210938 7.625 L 11.222656 7.597656 L 11.234375 7.574219 L 11.242188 7.550781 L 11.265625 7.503906 L 11.28125 7.453125 L 11.292969 7.429688 L 11.300781 7.40625 L 11.308594 7.378906 L 11.316406 7.355469 L 11.320312 7.328125 L 11.328125 7.304688 L 11.335938 7.25 L 11.34375 7.226562 L 11.34375 7.203125 L 11.351562 7.148438 L 11.363281 7.042969 L 11.363281 6.9375 L 11.351562 6.832031 L 11.347656 6.804688 L 11.382812 6.71875 Z M 11.347656 6.800781 L 11.34375 6.75 L 11.382812 6.714844 L 11.351562 6.800781 Z M 16.195312 2.761719 L 11.511719 6.863281 L 11.382812 6.71875 L 16.0625 2.617188 L 16.128906 2.59375 Z M 16.0625 2.617188 L 16.089844 2.59375 L 16.128906 2.59375 Z M 17.800781 2.785156 L 16.128906 2.785156 L 16.128906 2.59375 L 17.800781 2.59375 Z M 20.039062 0.375 L 20.234375 0.375 L 20.230469 0.5 L 20.222656 0.621094 L 20.207031 0.742188 L 20.183594 0.863281 L 20.15625 0.976562 L 20.121094 1.089844 L 20.082031 1.203125 L 20.039062 1.3125 L 19.992188 1.417969 L 19.9375 1.523438 L 19.878906 1.625 L 19.816406 1.722656 L 19.75 1.816406 L 19.601562 1.996094 L 19.519531 2.078125 L 19.433594 2.160156 L 19.347656 2.234375 L 19.253906 2.304688 L 19.15625 2.375 L 18.960938 2.492188 L 18.855469 2.546875 L 18.746094 2.59375 L 18.636719 2.636719 L 18.523438 2.675781 L 18.40625 2.707031 L 18.292969 2.734375 L 18.171875 2.757812 L 18.050781 2.773438 L 17.925781 2.78125 L 17.800781 2.785156 L 17.800781 2.585938 L 17.917969 2.585938 L 18.03125 2.578125 L 18.144531 2.5625 L 18.253906 2.542969 L 18.363281 2.519531 L 18.46875 2.488281 L 18.570312 2.453125 L 18.671875 2.414062 L 18.867188 2.320312 L 18.960938 2.265625 L 19.054688 2.207031 L 19.140625 2.144531 L 19.222656 2.082031 L 19.304688 2.011719 L 19.382812 1.9375 L 19.457031 1.859375 L 19.527344 1.78125 L 19.59375 1.699219 L 19.65625 1.609375 L 19.714844 1.519531 L 19.769531 1.425781 L 19.816406 1.328125 L 19.863281 1.234375 L 19.902344 1.132812 L 19.9375 1.03125 L 19.96875 0.925781 L 19.992188 0.816406 L 20.011719 0.707031 L 20.027344 0.597656 L 20.039062 0.484375 L 20.039062 0.371094 Z M 20.234375 0.375 Z M 19.859375 0.195312 L 19.859375 0.00390625 L 19.875 0.00390625 L 19.914062 0.0078125 L 19.933594 0.0078125 L 19.953125 0.0117188 L 19.96875 0.0195312 L 19.988281 0.0234375 L 20.003906 0.03125 L 20.023438 0.0390625 L 20.066406 0.0664062 L 20.097656 0.0898438 L 20.121094 0.113281 L 20.136719 0.125 L 20.148438 0.136719 L 20.160156 0.152344 L 20.167969 0.167969 L 20.179688 0.179688 L 20.1875 0.195312 L 20.195312 0.214844 L 20.210938 0.246094 L 20.222656 0.28125 L 20.226562 0.300781 L 20.230469 0.335938 L 20.234375 0.355469 L 20.234375 0.375 L 20.039062 0.375 L 20.039062 0.359375 L 20.035156 0.347656 L 20.03125 0.339844 L 20.03125 0.332031 L 20.027344 0.316406 L 20.023438 0.304688 L 20.019531 0.300781 L 20.011719 0.289062 L 20.007812 0.285156 L 19.996094 0.261719 L 19.988281 0.257812 L 19.984375 0.25 L 19.96875 0.234375 L 19.949219 0.222656 L 19.925781 0.210938 L 19.898438 0.203125 L 19.890625 0.199219 L 19.882812 0.199219 L 19.875 0.195312 L 19.855469 0.195312 Z M 19.859375 0.195312 "/>
<path style=" stroke:none;fill-rule:nonzero;fill:rgb(0%,0%,0%);fill-opacity:1;" d="M 13.753906 12.457031 L 14.542969 13.679688 L 15.242188 13.679688 L 14.140625 12.035156 Z M 13.753906 12.457031 "/>
<path style=" stroke:none;fill-rule:nonzero;fill:rgb(0%,0%,0%);fill-opacity:1;" d="M 14.460938 13.734375 L 13.667969 12.511719 L 13.832031 12.402344 L 14.628906 13.628906 L 14.542969 13.777344 Z M 14.542969 13.777344 L 14.488281 13.777344 L 14.460938 13.734375 Z M 15.246094 13.777344 L 14.542969 13.777344 L 14.542969 13.582031 L 15.246094 13.582031 L 15.324219 13.625 Z M 15.324219 13.625 L 15.429688 13.777344 L 15.246094 13.777344 Z M 14.222656 11.980469 L 15.324219 13.625 L 15.160156 13.734375 L 14.058594 12.089844 L 14.066406 11.96875 Z M 14.066406 11.96875 L 14.152344 11.875 L 14.222656 11.980469 Z M 13.679688 12.390625 L 14.066406 11.96875 L 14.214844 12.097656 L 13.824219 12.519531 L 13.667969 12.511719 Z M 13.667969 12.511719 L 13.628906 12.445312 L 13.679688 12.390625 Z M 13.667969 12.511719 "/>
</g>
</svg>
