<?xml version="1.0" encoding="UTF-8"?>
<svg xmlns="http://www.w3.org/2000/svg" xmlns:xlink="http://www.w3.org/1999/xlink" width="28px" height="28px" viewBox="0 0 28 50" version="1.1">
<g id="surface1">
<path style=" stroke:none;fill-rule:nonzero;fill:rgb(0%,0%,0%);fill-opacity:1;" d="M 13.808594 46.089844 C 13.429688 46.089844 13.125 46.402344 13.125 46.769531 L 13.125 49.496094 C 13.125 49.886719 13.4375 50.175781 13.808594 50.175781 C 14.191406 50.175781 14.492188 49.867188 14.492188 49.496094 L 14.492188 46.777344 C 14.492188 46.402344 14.191406 46.109375 13.808594 46.089844 Z M 13.808594 46.089844 "/>
<path style=" stroke:none;fill-rule:nonzero;fill:rgb(0%,0%,0%);fill-opacity:1;" d="M 13.304688 46.769531 L 12.953125 46.769531 L 12.953125 46.726562 L 12.957031 46.683594 L 12.972656 46.597656 L 12.980469 46.558594 L 12.992188 46.515625 L 13.007812 46.476562 L 13.019531 46.4375 L 13.039062 46.398438 L 13.097656 46.292969 L 13.125 46.261719 L 13.148438 46.230469 L 13.203125 46.167969 L 13.234375 46.136719 L 13.265625 46.109375 L 13.328125 46.0625 L 13.363281 46.039062 L 13.402344 46.015625 L 13.4375 46 L 13.476562 45.980469 L 13.515625 45.96875 L 13.554688 45.953125 L 13.640625 45.929688 L 13.679688 45.921875 L 13.726562 45.917969 L 13.769531 45.914062 L 13.8125 45.914062 L 13.8125 46.261719 L 13.785156 46.261719 L 13.738281 46.269531 L 13.710938 46.273438 L 13.6875 46.277344 L 13.664062 46.285156 L 13.636719 46.292969 L 13.617188 46.300781 L 13.570312 46.324219 L 13.53125 46.347656 L 13.507812 46.363281 L 13.488281 46.378906 L 13.4375 46.429688 L 13.390625 46.488281 L 13.378906 46.507812 L 13.367188 46.53125 L 13.355469 46.550781 L 13.34375 46.574219 L 13.328125 46.621094 L 13.324219 46.640625 L 13.316406 46.667969 L 13.308594 46.714844 L 13.308594 46.738281 L 13.304688 46.765625 Z M 12.953125 49.496094 L 12.953125 46.769531 L 13.304688 46.769531 L 13.304688 49.496094 Z M 13.8125 50 L 13.8125 50.347656 L 13.769531 50.347656 L 13.683594 50.339844 L 13.640625 50.332031 L 13.597656 50.320312 L 13.558594 50.3125 L 13.519531 50.296875 L 13.480469 50.285156 L 13.441406 50.269531 L 13.371094 50.230469 L 13.300781 50.183594 L 13.269531 50.160156 L 13.207031 50.105469 L 13.179688 50.078125 L 13.152344 50.042969 L 13.125 50.015625 L 13.078125 49.945312 L 13.039062 49.875 L 13.019531 49.835938 L 13.007812 49.796875 L 12.992188 49.757812 L 12.980469 49.71875 L 12.96875 49.675781 L 12.960938 49.632812 L 12.957031 49.589844 L 12.953125 49.542969 L 12.953125 49.5 L 13.304688 49.5 L 13.304688 49.554688 L 13.308594 49.578125 L 13.3125 49.605469 L 13.34375 49.699219 L 13.351562 49.71875 L 13.367188 49.742188 L 13.378906 49.765625 L 13.390625 49.785156 L 13.402344 49.800781 L 13.433594 49.839844 L 13.472656 49.871094 L 13.488281 49.886719 L 13.527344 49.917969 L 13.546875 49.929688 L 13.570312 49.941406 L 13.589844 49.953125 L 13.683594 49.984375 L 13.730469 49.992188 L 13.757812 49.996094 L 13.78125 50 Z M 14.316406 49.496094 L 14.671875 49.496094 L 14.660156 49.625 L 14.652344 49.667969 L 14.640625 49.707031 L 14.632812 49.75 L 14.585938 49.867188 L 14.546875 49.9375 L 14.523438 49.972656 L 14.5 50.003906 L 14.472656 50.039062 L 14.445312 50.066406 L 14.390625 50.128906 L 14.359375 50.15625 L 14.324219 50.179688 L 14.292969 50.203125 L 14.257812 50.226562 L 14.1875 50.265625 L 14.148438 50.285156 L 14.109375 50.300781 L 14.066406 50.3125 L 14.027344 50.324219 L 13.984375 50.335938 L 13.941406 50.34375 L 13.898438 50.347656 L 13.851562 50.351562 L 13.808594 50.355469 L 13.808594 50.003906 L 13.835938 50.003906 L 13.863281 50 L 13.886719 50 L 13.914062 49.992188 L 13.9375 49.988281 L 14.007812 49.964844 L 14.054688 49.941406 L 14.09375 49.917969 L 14.152344 49.871094 L 14.203125 49.820312 L 14.234375 49.78125 L 14.246094 49.761719 L 14.257812 49.738281 L 14.269531 49.71875 L 14.277344 49.699219 L 14.289062 49.675781 L 14.296875 49.652344 L 14.300781 49.628906 L 14.308594 49.605469 L 14.3125 49.582031 L 14.316406 49.554688 Z M 14.671875 46.777344 L 14.671875 49.496094 L 14.316406 49.496094 L 14.316406 46.777344 Z M 13.8125 46.265625 L 13.8125 45.917969 L 13.820312 45.917969 L 13.949219 45.929688 L 14.035156 45.953125 L 14.113281 45.976562 L 14.152344 45.992188 L 14.191406 46.011719 L 14.296875 46.070312 L 14.328125 46.097656 L 14.359375 46.121094 L 14.390625 46.148438 L 14.445312 46.203125 L 14.5 46.265625 L 14.523438 46.300781 L 14.542969 46.335938 L 14.566406 46.371094 L 14.582031 46.40625 L 14.601562 46.445312 L 14.632812 46.523438 L 14.644531 46.566406 L 14.652344 46.605469 L 14.667969 46.691406 L 14.671875 46.734375 L 14.671875 46.777344 L 14.320312 46.777344 L 14.316406 46.75 L 14.316406 46.726562 L 14.3125 46.699219 L 14.308594 46.675781 L 14.304688 46.648438 L 14.289062 46.601562 L 14.28125 46.582031 L 14.269531 46.558594 L 14.257812 46.539062 L 14.246094 46.515625 L 14.222656 46.476562 L 14.191406 46.4375 L 14.152344 46.40625 L 14.136719 46.390625 L 14.117188 46.375 L 14.09375 46.359375 L 14.054688 46.335938 L 14.007812 46.3125 L 13.960938 46.296875 L 13.90625 46.28125 L 13.882812 46.277344 L 13.855469 46.269531 L 13.828125 46.265625 L 13.800781 46.265625 Z M 13.8125 45.917969 L 13.820312 45.917969 Z M 13.8125 46.09375 L 13.8125 46.269531 Z M 13.8125 45.917969 L 13.820312 45.917969 Z M 13.8125 45.917969 "/>
<path style=" stroke:none;fill-rule:nonzero;fill:rgb(0%,0%,0%);fill-opacity:1;" d="M 24.03125 42.308594 C 23.757812 42.039062 23.320312 42.039062 23.058594 42.308594 C 22.785156 42.570312 22.785156 43.003906 23.058594 43.273438 L 25.007812 45.191406 C 25.28125 45.460938 25.71875 45.460938 25.992188 45.191406 C 26.265625 44.921875 26.265625 44.484375 25.992188 44.222656 L 24.035156 42.308594 Z M 24.03125 42.308594 "/>
<path style=" stroke:none;fill-rule:nonzero;fill:rgb(0%,0%,0%);fill-opacity:1;" d="M 23.179688 42.433594 L 22.933594 42.183594 L 22.929688 42.1875 L 22.960938 42.15625 L 22.992188 42.128906 L 23.027344 42.101562 L 23.058594 42.078125 L 23.097656 42.054688 L 23.132812 42.03125 L 23.171875 42.011719 L 23.25 41.980469 L 23.328125 41.957031 L 23.371094 41.949219 L 23.410156 41.941406 L 23.453125 41.9375 L 23.492188 41.933594 L 23.578125 41.933594 L 23.664062 41.941406 L 23.703125 41.949219 L 23.746094 41.957031 L 23.785156 41.96875 L 23.828125 41.980469 L 23.90625 42.011719 L 23.945312 42.03125 L 23.980469 42.054688 L 24.019531 42.078125 L 24.054688 42.101562 L 24.125 42.15625 L 24.15625 42.1875 L 23.90625 42.433594 L 23.886719 42.414062 L 23.847656 42.382812 L 23.824219 42.367188 L 23.800781 42.355469 L 23.78125 42.34375 L 23.734375 42.320312 L 23.664062 42.296875 L 23.640625 42.292969 L 23.613281 42.285156 L 23.589844 42.285156 L 23.570312 42.28125 L 23.519531 42.28125 L 23.496094 42.285156 L 23.472656 42.285156 L 23.449219 42.292969 L 23.421875 42.296875 L 23.402344 42.304688 L 23.375 42.3125 L 23.355469 42.320312 L 23.332031 42.328125 L 23.308594 42.339844 L 23.289062 42.351562 L 23.269531 42.367188 L 23.246094 42.378906 L 23.226562 42.394531 L 23.207031 42.414062 L 23.1875 42.429688 L 23.183594 42.4375 Z M 23.183594 42.429688 L 23.175781 42.4375 L 23.179688 42.429688 Z M 23.179688 43.152344 L 22.929688 43.398438 L 22.902344 43.367188 L 22.871094 43.332031 L 22.84375 43.300781 L 22.820312 43.265625 L 22.773438 43.1875 L 22.757812 43.152344 L 22.738281 43.113281 L 22.722656 43.074219 L 22.710938 43.035156 L 22.699219 42.992188 L 22.691406 42.953125 L 22.683594 42.910156 L 22.679688 42.871094 L 22.675781 42.828125 L 22.675781 42.742188 L 22.679688 42.703125 L 22.683594 42.660156 L 22.699219 42.582031 L 22.710938 42.539062 L 22.722656 42.5 L 22.738281 42.460938 L 22.757812 42.421875 L 22.773438 42.386719 L 22.796875 42.351562 L 22.820312 42.3125 L 22.84375 42.277344 L 22.871094 42.246094 L 22.902344 42.214844 L 22.929688 42.183594 L 23.175781 42.433594 L 23.15625 42.453125 L 23.109375 42.511719 L 23.097656 42.53125 L 23.085938 42.554688 L 23.074219 42.574219 L 23.0625 42.597656 L 23.046875 42.644531 L 23.042969 42.667969 L 23.035156 42.691406 L 23.027344 42.738281 L 23.027344 42.835938 L 23.03125 42.855469 L 23.035156 42.882812 L 23.042969 42.90625 L 23.046875 42.929688 L 23.054688 42.953125 L 23.066406 42.976562 L 23.074219 43 L 23.085938 43.023438 L 23.097656 43.042969 L 23.113281 43.066406 L 23.160156 43.125 L 23.179688 43.144531 Z M 22.929688 43.398438 Z M 24.882812 45.316406 L 22.929688 43.398438 L 23.179688 43.152344 L 25.128906 45.066406 Z M 25.128906 45.066406 Z M 25.867188 45.066406 L 26.117188 45.316406 L 26.082031 45.347656 L 26.050781 45.375 L 26.015625 45.402344 L 25.980469 45.425781 L 25.941406 45.449219 L 25.863281 45.488281 L 25.746094 45.535156 L 25.703125 45.542969 L 25.664062 45.550781 L 25.621094 45.558594 L 25.578125 45.5625 L 25.539062 45.566406 L 25.453125 45.566406 L 25.414062 45.5625 L 25.367188 45.558594 L 25.328125 45.554688 L 25.285156 45.542969 L 25.246094 45.535156 L 25.203125 45.519531 L 25.125 45.488281 L 25.089844 45.46875 L 25.050781 45.449219 L 25.011719 45.425781 L 24.976562 45.402344 L 24.941406 45.375 L 24.910156 45.347656 L 24.875 45.316406 L 25.125 45.066406 L 25.144531 45.085938 L 25.164062 45.101562 L 25.1875 45.117188 L 25.207031 45.132812 L 25.230469 45.148438 L 25.25 45.160156 L 25.273438 45.171875 L 25.367188 45.203125 L 25.394531 45.207031 L 25.441406 45.214844 L 25.542969 45.214844 L 25.589844 45.207031 L 25.617188 45.203125 L 25.636719 45.195312 L 25.683594 45.179688 L 25.710938 45.167969 L 25.734375 45.15625 L 25.753906 45.144531 L 25.777344 45.128906 L 25.796875 45.113281 L 25.816406 45.101562 L 25.839844 45.082031 L 25.859375 45.066406 Z M 25.867188 45.066406 Z M 25.867188 44.347656 L 26.113281 44.097656 L 26.144531 44.128906 L 26.171875 44.164062 L 26.199219 44.195312 L 26.226562 44.230469 L 26.25 44.265625 L 26.289062 44.34375 L 26.304688 44.378906 L 26.320312 44.421875 L 26.335938 44.457031 L 26.347656 44.5 L 26.355469 44.539062 L 26.363281 44.582031 L 26.367188 44.621094 L 26.371094 44.664062 L 26.371094 44.746094 L 26.367188 44.789062 L 26.363281 44.828125 L 26.355469 44.871094 L 26.347656 44.910156 L 26.335938 44.949219 L 26.324219 44.992188 L 26.308594 45.03125 L 26.289062 45.070312 L 26.273438 45.109375 L 26.25 45.144531 L 26.226562 45.183594 L 26.203125 45.21875 L 26.175781 45.253906 L 26.148438 45.285156 L 26.117188 45.316406 L 25.867188 45.070312 L 25.886719 45.050781 L 25.917969 45.011719 L 25.933594 44.988281 L 25.945312 44.96875 L 25.960938 44.945312 L 25.96875 44.921875 L 25.980469 44.898438 L 26.003906 44.828125 L 26.007812 44.804688 L 26.011719 44.777344 L 26.019531 44.730469 L 26.019531 44.683594 L 26.015625 44.660156 L 26.011719 44.632812 L 26.003906 44.585938 L 25.980469 44.515625 L 25.96875 44.492188 L 25.945312 44.453125 L 25.933594 44.429688 L 25.917969 44.410156 L 25.898438 44.390625 L 25.882812 44.371094 L 25.863281 44.351562 Z M 25.871094 44.351562 L 25.867188 44.347656 Z M 24.15625 42.183594 L 26.117188 44.097656 L 25.871094 44.347656 L 23.910156 42.433594 L 23.90625 42.429688 Z M 23.910156 42.433594 L 23.90625 42.429688 Z M 23.910156 42.433594 "/>
<path style=" stroke:none;fill-rule:nonzero;fill:rgb(0%,0%,0%);fill-opacity:1;" d="M 2.617188 45.191406 L 4.554688 43.269531 C 4.828125 42.996094 4.828125 42.5625 4.554688 42.289062 C 4.28125 42.019531 3.84375 42.019531 3.570312 42.289062 L 1.628906 44.226562 C 1.355469 44.488281 1.355469 44.921875 1.628906 45.191406 C 1.910156 45.460938 2.339844 45.460938 2.617188 45.191406 Z M 2.617188 45.191406 "/>
<path style=" stroke:none;fill-rule:nonzero;fill:rgb(0%,0%,0%);fill-opacity:1;" d="M 4.679688 43.390625 L 2.742188 45.316406 L 2.492188 45.066406 L 4.429688 43.144531 Z M 4.429688 42.414062 L 4.679688 42.164062 L 4.710938 42.199219 L 4.742188 42.230469 L 4.769531 42.265625 L 4.816406 42.335938 L 4.855469 42.414062 L 4.902344 42.53125 L 4.910156 42.574219 L 4.921875 42.613281 L 4.925781 42.652344 L 4.933594 42.695312 L 4.9375 42.738281 L 4.9375 42.820312 L 4.933594 42.863281 L 4.925781 42.902344 L 4.921875 42.945312 L 4.910156 42.984375 L 4.902344 43.027344 L 4.855469 43.144531 L 4.835938 43.179688 L 4.816406 43.21875 L 4.792969 43.257812 L 4.769531 43.292969 L 4.742188 43.324219 L 4.710938 43.359375 L 4.679688 43.390625 L 4.429688 43.144531 L 4.46875 43.105469 L 4.484375 43.085938 L 4.496094 43.0625 L 4.511719 43.042969 L 4.546875 42.972656 L 4.570312 42.902344 L 4.578125 42.855469 L 4.582031 42.828125 L 4.582031 42.730469 L 4.574219 42.683594 L 4.570312 42.65625 L 4.546875 42.585938 L 4.523438 42.539062 L 4.511719 42.519531 L 4.496094 42.496094 L 4.484375 42.476562 L 4.46875 42.457031 L 4.449219 42.4375 Z M 3.695312 42.414062 L 3.449219 42.167969 L 3.480469 42.136719 L 3.515625 42.105469 L 3.550781 42.078125 L 3.582031 42.054688 L 3.621094 42.03125 L 3.699219 41.992188 L 3.816406 41.945312 L 3.859375 41.9375 L 3.898438 41.925781 L 3.941406 41.917969 L 4.027344 41.910156 L 4.113281 41.910156 L 4.152344 41.914062 L 4.195312 41.917969 L 4.234375 41.925781 L 4.277344 41.9375 L 4.316406 41.945312 L 4.359375 41.960938 L 4.4375 41.992188 L 4.515625 42.03125 L 4.585938 42.078125 L 4.621094 42.105469 L 4.65625 42.136719 L 4.6875 42.167969 L 4.4375 42.414062 L 4.417969 42.394531 L 4.378906 42.363281 L 4.355469 42.347656 L 4.332031 42.335938 L 4.3125 42.324219 L 4.265625 42.300781 L 4.21875 42.285156 L 4.191406 42.28125 L 4.167969 42.273438 L 4.144531 42.273438 L 4.117188 42.269531 L 4.09375 42.265625 L 4.042969 42.265625 L 3.996094 42.273438 L 3.972656 42.273438 L 3.945312 42.28125 L 3.921875 42.285156 L 3.875 42.300781 L 3.847656 42.3125 L 3.824219 42.324219 L 3.804688 42.335938 L 3.78125 42.347656 L 3.757812 42.363281 L 3.71875 42.394531 L 3.699219 42.414062 Z M 3.449219 42.167969 Z M 1.507812 44.101562 L 3.449219 42.167969 L 3.695312 42.414062 L 1.757812 44.347656 L 1.753906 44.351562 Z M 1.757812 44.347656 L 1.753906 44.351562 Z M 1.753906 45.066406 L 1.507812 45.316406 L 1.476562 45.285156 L 1.445312 45.25 L 1.421875 45.214844 L 1.394531 45.179688 L 1.371094 45.144531 L 1.332031 45.066406 L 1.300781 44.988281 L 1.289062 44.949219 L 1.277344 44.90625 L 1.261719 44.828125 L 1.257812 44.785156 L 1.253906 44.746094 L 1.253906 44.660156 L 1.257812 44.621094 L 1.261719 44.578125 L 1.277344 44.5 L 1.289062 44.457031 L 1.300781 44.417969 L 1.316406 44.378906 L 1.335938 44.339844 L 1.351562 44.300781 L 1.375 44.265625 L 1.398438 44.226562 L 1.425781 44.191406 L 1.449219 44.160156 L 1.511719 44.097656 L 1.753906 44.347656 L 1.738281 44.367188 L 1.71875 44.386719 L 1.6875 44.425781 L 1.664062 44.464844 L 1.640625 44.511719 L 1.617188 44.582031 L 1.613281 44.605469 L 1.605469 44.628906 L 1.605469 44.652344 L 1.601562 44.675781 L 1.601562 44.726562 L 1.605469 44.75 L 1.605469 44.773438 L 1.613281 44.796875 L 1.617188 44.824219 L 1.648438 44.917969 L 1.671875 44.964844 L 1.6875 44.984375 L 1.703125 45.007812 L 1.734375 45.046875 Z M 1.507812 45.316406 Z M 2.492188 45.070312 L 2.742188 45.316406 L 2.710938 45.347656 L 2.605469 45.429688 L 2.570312 45.453125 L 2.53125 45.472656 L 2.496094 45.492188 L 2.457031 45.507812 L 2.414062 45.523438 L 2.375 45.535156 L 2.332031 45.546875 L 2.253906 45.5625 L 2.167969 45.570312 L 2.085938 45.570312 L 2 45.5625 L 1.960938 45.554688 L 1.917969 45.546875 L 1.878906 45.535156 L 1.835938 45.523438 L 1.757812 45.492188 L 1.722656 45.472656 L 1.683594 45.453125 L 1.644531 45.429688 L 1.609375 45.402344 L 1.574219 45.378906 L 1.539062 45.347656 L 1.507812 45.316406 L 1.753906 45.066406 L 1.773438 45.085938 L 1.792969 45.101562 L 1.816406 45.121094 L 1.839844 45.136719 L 1.859375 45.148438 L 1.90625 45.171875 L 1.933594 45.183594 L 1.957031 45.195312 L 1.980469 45.203125 L 2.003906 45.207031 L 2.03125 45.214844 L 2.078125 45.222656 L 2.175781 45.222656 L 2.222656 45.214844 L 2.25 45.207031 L 2.269531 45.203125 L 2.316406 45.1875 L 2.386719 45.152344 L 2.40625 45.136719 L 2.429688 45.121094 L 2.46875 45.089844 L 2.488281 45.070312 Z M 2.492188 45.070312 "/>
<path style=" stroke:none;fill-rule:nonzero;fill:rgb(0%,0%,0%);fill-opacity:1;" d="M 1.621094 36.523438 C 1.6875 31.40625 6.019531 25.472656 13.167969 25.097656 C 20.472656 24.710938 25.777344 30.390625 26.070312 36.523438 C 17.90625 36.523438 9.765625 36.523438 1.621094 36.523438 Z M 13.78125 41.574219 C 11.648438 41.523438 9.792969 39.9375 9.578125 37.957031 C 12.4375 37.957031 15.292969 37.957031 18.171875 37.957031 C 17.878906 40.015625 15.925781 41.613281 13.78125 41.574219 Z M 27.445312 36.996094 C 27.398438 35.46875 27.144531 33.980469 26.585938 32.558594 C 24.988281 28.511719 22.199219 25.667969 17.996094 24.292969 C 17.605469 24.167969 17.203125 24.070312 16.804688 23.957031 L 10.964844 23.957031 C 10.933594 23.964844 10.90625 23.976562 10.867188 23.984375 C 9.355469 24.324219 7.929688 24.894531 6.613281 25.71875 C 4.046875 27.316406 2.207031 29.511719 1.09375 32.304688 C 0.5 33.816406 0.21875 35.371094 0.175781 36.988281 C 0.15625 37.695312 0.363281 37.9375 1.085938 37.9375 C 3.289062 37.9375 5.503906 37.9375 7.707031 37.9375 C 7.832031 37.9375 7.960938 37.9375 8.074219 37.9375 C 8.671875 41.46875 11.421875 42.9375 13.671875 42.96875 C 14.933594 42.976562 16.074219 42.65625 17.105469 41.953125 C 18.507812 40.984375 19.25 39.609375 19.523438 37.9375 C 19.671875 37.9375 19.796875 37.9375 19.925781 37.9375 C 22.136719 37.9375 24.339844 37.9375 26.546875 37.9375 C 27.238281 37.9375 27.464844 37.683594 27.445312 36.996094 Z M 27.445312 36.996094 "/>
<path style=" stroke:none;fill-rule:nonzero;fill:rgb(0%,0%,0%);fill-opacity:1;" d="M 13.15625 24.921875 L 13.175781 25.273438 L 12.523438 25.324219 L 11.886719 25.40625 L 11.265625 25.515625 L 10.667969 25.65625 L 10.082031 25.824219 L 9.515625 26.015625 L 8.964844 26.234375 L 8.433594 26.476562 L 7.921875 26.742188 L 7.429688 27.03125 L 6.953125 27.339844 L 6.496094 27.664062 L 6.058594 28.011719 L 5.644531 28.375 L 5.246094 28.753906 L 4.871094 29.148438 L 4.511719 29.554688 L 4.175781 29.976562 L 3.863281 30.40625 L 3.570312 30.847656 L 3.296875 31.300781 L 3.046875 31.757812 L 2.820312 32.222656 L 2.613281 32.695312 L 2.429688 33.171875 L 2.265625 33.652344 L 2.128906 34.128906 L 2.015625 34.613281 L 1.925781 35.09375 L 1.859375 35.574219 L 1.816406 36.050781 L 1.796875 36.523438 L 1.445312 36.519531 L 1.464844 36.027344 L 1.507812 35.535156 L 1.578125 35.039062 L 1.671875 34.542969 L 1.789062 34.046875 L 1.933594 33.550781 L 2.097656 33.054688 L 2.285156 32.566406 L 2.5 32.082031 L 2.734375 31.601562 L 2.992188 31.128906 L 3.273438 30.664062 L 3.574219 30.210938 L 3.898438 29.765625 L 4.242188 29.332031 L 4.609375 28.914062 L 5 28.507812 L 5.40625 28.117188 L 5.835938 27.746094 L 6.285156 27.390625 L 6.753906 27.050781 L 7.246094 26.734375 L 7.753906 26.4375 L 8.28125 26.164062 L 8.828125 25.914062 L 9.394531 25.6875 L 9.976562 25.488281 L 10.578125 25.316406 L 11.199219 25.171875 L 11.835938 25.058594 L 12.488281 24.972656 L 13.160156 24.921875 Z M 26.070312 36.699219 L 26.070312 36.347656 L 25.894531 36.53125 L 25.851562 35.96875 L 25.78125 35.40625 L 25.683594 34.851562 L 25.558594 34.296875 L 25.40625 33.753906 L 25.226562 33.21875 L 25.023438 32.6875 L 24.792969 32.167969 L 24.542969 31.664062 L 24.265625 31.167969 L 23.964844 30.683594 L 23.640625 30.210938 L 23.292969 29.757812 L 22.925781 29.316406 L 22.535156 28.894531 L 22.125 28.492188 L 21.695312 28.105469 L 21.246094 27.738281 L 20.773438 27.394531 L 20.285156 27.074219 L 19.78125 26.773438 L 19.257812 26.496094 L 18.71875 26.246094 L 18.160156 26.019531 L 17.585938 25.820312 L 17 25.652344 L 16.394531 25.507812 L 15.78125 25.398438 L 15.148438 25.316406 L 14.503906 25.269531 L 13.847656 25.253906 L 13.175781 25.269531 L 13.15625 24.921875 L 13.847656 24.902344 L 14.519531 24.917969 L 15.183594 24.96875 L 15.832031 25.050781 L 16.46875 25.167969 L 17.089844 25.3125 L 17.695312 25.488281 L 18.285156 25.695312 L 18.859375 25.925781 L 19.417969 26.183594 L 19.957031 26.46875 L 20.476562 26.777344 L 20.980469 27.109375 L 21.460938 27.464844 L 21.925781 27.839844 L 22.371094 28.238281 L 22.789062 28.652344 L 23.191406 29.085938 L 23.570312 29.539062 L 23.925781 30.007812 L 24.257812 30.488281 L 24.566406 30.988281 L 24.851562 31.496094 L 25.113281 32.019531 L 25.347656 32.554688 L 25.558594 33.097656 L 25.742188 33.652344 L 25.898438 34.210938 L 26.027344 34.78125 L 26.125 35.355469 L 26.199219 35.933594 L 26.242188 36.515625 L 26.066406 36.699219 Z M 26.246094 36.515625 L 26.253906 36.699219 L 26.070312 36.699219 Z M 1.445312 36.519531 L 1.796875 36.527344 L 1.621094 36.347656 L 26.074219 36.347656 L 26.074219 36.699219 L 1.621094 36.699219 Z M 1.621094 36.699219 L 1.445312 36.699219 L 1.445312 36.519531 L 1.625 36.699219 Z M 9.582031 37.78125 L 9.582031 38.128906 L 9.753906 37.933594 L 9.777344 38.109375 L 9.8125 38.285156 L 9.851562 38.453125 L 9.902344 38.625 L 9.960938 38.789062 L 10.027344 38.953125 L 10.101562 39.109375 L 10.179688 39.265625 L 10.269531 39.417969 L 10.367188 39.566406 L 10.46875 39.707031 L 10.578125 39.847656 L 10.691406 39.984375 L 10.816406 40.113281 L 10.941406 40.238281 L 11.074219 40.359375 L 11.214844 40.472656 L 11.355469 40.582031 L 11.507812 40.683594 L 11.660156 40.78125 L 11.816406 40.871094 L 11.980469 40.957031 L 12.148438 41.03125 L 12.316406 41.101562 L 12.492188 41.167969 L 12.667969 41.222656 L 12.847656 41.273438 L 13.03125 41.3125 L 13.214844 41.347656 L 13.402344 41.371094 L 13.589844 41.390625 L 13.785156 41.398438 L 13.777344 41.746094 L 13.570312 41.738281 L 13.363281 41.71875 L 13.160156 41.691406 L 12.960938 41.65625 L 12.761719 41.609375 L 12.566406 41.558594 L 12.375 41.496094 L 12.1875 41.425781 L 12.003906 41.351562 L 11.820312 41.265625 L 11.648438 41.175781 L 11.476562 41.078125 L 11.308594 40.972656 L 11.148438 40.863281 L 10.992188 40.742188 L 10.839844 40.617188 L 10.699219 40.488281 L 10.558594 40.351562 L 10.425781 40.210938 L 10.300781 40.066406 L 10.183594 39.914062 L 10.070312 39.757812 L 9.964844 39.597656 L 9.871094 39.429688 L 9.78125 39.261719 L 9.699219 39.089844 L 9.628906 38.910156 L 9.566406 38.726562 L 9.511719 38.542969 L 9.464844 38.355469 L 9.429688 38.164062 L 9.402344 37.96875 L 9.578125 37.777344 Z M 9.40625 37.972656 L 9.386719 37.78125 L 9.582031 37.78125 Z M 18.347656 37.980469 L 18 37.929688 L 18.171875 38.128906 L 9.578125 38.128906 L 9.578125 37.78125 L 18.171875 37.78125 Z M 18.171875 37.78125 L 18.375 37.78125 L 18.347656 37.980469 Z M 13.777344 41.746094 L 13.785156 41.398438 L 13.976562 41.398438 L 14.167969 41.386719 L 14.359375 41.367188 L 14.546875 41.339844 L 14.730469 41.304688 L 14.914062 41.261719 L 15.09375 41.210938 L 15.273438 41.148438 L 15.445312 41.082031 L 15.617188 41.007812 L 15.785156 40.925781 L 15.949219 40.835938 L 16.109375 40.742188 L 16.265625 40.636719 L 16.414062 40.53125 L 16.558594 40.417969 L 16.703125 40.292969 L 16.835938 40.167969 L 16.964844 40.039062 L 17.085938 39.902344 L 17.203125 39.761719 L 17.3125 39.613281 L 17.417969 39.460938 L 17.511719 39.304688 L 17.601562 39.148438 L 17.683594 38.980469 L 17.757812 38.816406 L 17.820312 38.644531 L 17.878906 38.46875 L 17.925781 38.292969 L 17.96875 38.113281 L 18 37.929688 L 18.347656 37.976562 L 18.3125 38.179688 L 18.269531 38.375 L 18.214844 38.570312 L 18.152344 38.757812 L 18.082031 38.945312 L 18 39.128906 L 17.914062 39.308594 L 17.816406 39.480469 L 17.714844 39.652344 L 17.601562 39.816406 L 17.480469 39.972656 L 17.355469 40.128906 L 17.222656 40.277344 L 17.082031 40.417969 L 16.9375 40.554688 L 16.785156 40.6875 L 16.628906 40.8125 L 16.464844 40.929688 L 16.296875 41.039062 L 16.125 41.140625 L 15.949219 41.238281 L 15.769531 41.328125 L 15.582031 41.40625 L 15.394531 41.480469 L 15.203125 41.546875 L 15.007812 41.601562 L 14.808594 41.648438 L 14.605469 41.6875 L 14.402344 41.714844 L 14.199219 41.738281 L 13.988281 41.746094 L 13.78125 41.75 L 13.777344 41.75 Z M 13.78125 41.746094 L 13.777344 41.746094 Z M 26.425781 32.621094 L 26.753906 32.492188 L 26.855469 32.765625 L 26.996094 33.175781 L 27.039062 33.3125 L 27.078125 33.449219 L 27.121094 33.585938 L 27.160156 33.726562 L 27.195312 33.863281 L 27.265625 34.144531 L 27.292969 34.28125 L 27.355469 34.5625 L 27.382812 34.703125 L 27.40625 34.84375 L 27.429688 34.988281 L 27.476562 35.269531 L 27.496094 35.414062 L 27.515625 35.554688 L 27.53125 35.699219 L 27.546875 35.839844 L 27.5625 35.984375 L 27.574219 36.128906 L 27.585938 36.269531 L 27.59375 36.414062 L 27.605469 36.558594 L 27.613281 36.699219 L 27.617188 36.84375 L 27.625 36.988281 L 27.273438 37 L 27.265625 36.859375 L 27.261719 36.71875 L 27.253906 36.578125 L 27.246094 36.433594 L 27.234375 36.296875 L 27.222656 36.152344 L 27.210938 36.015625 L 27.195312 35.875 L 27.183594 35.734375 L 27.164062 35.59375 L 27.148438 35.457031 L 27.128906 35.316406 L 27.105469 35.179688 L 27.085938 35.039062 L 27.039062 34.765625 L 26.984375 34.492188 L 26.890625 34.082031 L 26.855469 33.949219 L 26.785156 33.675781 L 26.746094 33.542969 L 26.703125 33.410156 L 26.664062 33.277344 L 26.621094 33.140625 L 26.574219 33.011719 L 26.527344 32.878906 L 26.476562 32.746094 L 26.429688 32.613281 L 26.429688 32.617188 Z M 26.753906 32.492188 L 26.71875 32.40625 Z M 17.941406 24.460938 L 18.050781 24.128906 L 18.445312 24.261719 L 18.832031 24.40625 L 19.210938 24.558594 L 19.582031 24.71875 L 19.941406 24.886719 L 20.292969 25.066406 L 20.640625 25.25 L 20.976562 25.445312 L 21.308594 25.648438 L 21.628906 25.859375 L 21.941406 26.082031 L 22.25 26.308594 L 22.546875 26.546875 L 22.835938 26.789062 L 23.117188 27.042969 L 23.390625 27.300781 L 23.660156 27.570312 L 23.917969 27.84375 L 24.167969 28.128906 L 24.410156 28.417969 L 24.648438 28.71875 L 24.875 29.023438 L 25.097656 29.335938 L 25.308594 29.65625 L 25.515625 29.988281 L 25.714844 30.324219 L 25.90625 30.667969 L 26.089844 31.015625 L 26.265625 31.375 L 26.433594 31.742188 L 26.597656 32.113281 L 26.753906 32.492188 L 26.425781 32.621094 L 26.273438 32.246094 L 26.113281 31.882812 L 25.949219 31.523438 L 25.777344 31.175781 L 25.597656 30.832031 L 25.410156 30.496094 L 25.21875 30.167969 L 25.015625 29.84375 L 24.808594 29.53125 L 24.59375 29.226562 L 24.371094 28.925781 L 24.140625 28.636719 L 23.902344 28.351562 L 23.660156 28.074219 L 23.40625 27.808594 L 23.148438 27.546875 L 22.878906 27.292969 L 22.605469 27.050781 L 22.324219 26.8125 L 22.035156 26.582031 L 21.738281 26.363281 L 21.433594 26.148438 L 21.117188 25.941406 L 20.796875 25.746094 L 20.46875 25.554688 L 20.132812 25.375 L 19.789062 25.199219 L 19.433594 25.035156 L 19.074219 24.878906 L 18.703125 24.730469 L 18.328125 24.589844 Z M 18.050781 24.128906 L 17.960938 24.097656 Z M 16.808594 24.132812 L 16.808594 23.78125 L 16.855469 23.789062 L 16.894531 23.800781 L 16.929688 23.808594 L 16.964844 23.820312 L 17.003906 23.832031 L 17.039062 23.84375 L 17.078125 23.855469 L 17.113281 23.863281 L 17.152344 23.875 L 17.1875 23.886719 L 17.265625 23.902344 L 17.300781 23.914062 L 17.339844 23.925781 L 17.375 23.933594 L 17.414062 23.945312 L 17.453125 23.953125 L 17.488281 23.964844 L 17.527344 23.976562 L 17.5625 23.984375 L 17.640625 24.007812 L 17.675781 24.019531 L 17.714844 24.027344 L 17.753906 24.039062 L 17.789062 24.050781 L 17.828125 24.0625 L 17.863281 24.070312 L 17.902344 24.082031 L 17.9375 24.09375 L 18.015625 24.117188 L 18.050781 24.128906 L 17.945312 24.460938 L 17.910156 24.449219 L 17.871094 24.4375 L 17.835938 24.425781 L 17.800781 24.417969 L 17.761719 24.40625 L 17.691406 24.382812 L 17.652344 24.375 L 17.617188 24.363281 L 17.578125 24.351562 L 17.542969 24.339844 L 17.507812 24.332031 L 17.46875 24.320312 L 17.433594 24.308594 L 17.394531 24.300781 L 17.359375 24.289062 L 17.324219 24.28125 L 17.285156 24.269531 L 17.25 24.261719 L 17.210938 24.25 L 17.175781 24.242188 L 17.136719 24.230469 L 17.097656 24.222656 L 17.0625 24.210938 L 17.023438 24.199219 L 16.988281 24.1875 L 16.949219 24.179688 L 16.910156 24.167969 L 16.875 24.15625 L 16.835938 24.144531 L 16.800781 24.136719 L 16.761719 24.125 L 16.808594 24.128906 Z M 16.808594 23.78125 L 16.832031 23.78125 L 16.855469 23.789062 Z M 10.964844 23.78125 L 16.808594 23.78125 L 16.808594 24.132812 L 10.964844 24.132812 L 10.910156 23.789062 Z M 10.910156 23.789062 L 10.9375 23.78125 L 10.964844 23.78125 Z M 10.964844 23.957031 L 11.019531 24.121094 Z M 10.910156 23.789062 L 10.9375 23.78125 L 10.964844 23.78125 Z M 10.90625 24.15625 L 10.828125 23.816406 L 10.824219 23.816406 L 10.832031 23.816406 L 10.84375 23.8125 L 10.847656 23.8125 L 10.835938 23.816406 L 10.839844 23.8125 L 10.84375 23.8125 L 10.847656 23.808594 L 10.851562 23.808594 L 10.863281 23.804688 L 10.871094 23.804688 L 10.859375 23.804688 L 10.867188 23.804688 L 10.871094 23.800781 L 10.886719 23.796875 L 10.875 23.800781 L 10.878906 23.800781 L 10.886719 23.796875 L 10.882812 23.796875 L 10.898438 23.789062 L 10.90625 23.789062 L 10.890625 23.792969 L 10.894531 23.792969 L 10.898438 23.789062 L 10.914062 23.785156 L 10.917969 23.785156 L 10.90625 23.789062 L 10.917969 23.785156 L 11.027344 24.117188 L 11.027344 24.113281 L 11.011719 24.121094 L 11.007812 24.121094 L 11.019531 24.117188 L 11.015625 24.121094 L 11.011719 24.121094 L 10.992188 24.128906 L 11.003906 24.125 L 10.996094 24.128906 L 10.976562 24.136719 L 10.972656 24.136719 L 10.980469 24.132812 L 10.976562 24.132812 L 10.976562 24.136719 L 10.964844 24.136719 L 10.949219 24.140625 L 10.957031 24.140625 L 10.953125 24.140625 L 10.949219 24.144531 L 10.945312 24.144531 L 10.941406 24.148438 L 10.921875 24.152344 L 10.917969 24.152344 L 10.925781 24.148438 L 10.921875 24.152344 L 10.914062 24.152344 L 10.910156 24.15625 Z M 10.910156 24.15625 L 10.90625 24.15625 Z M 6.710938 25.867188 L 6.523438 25.570312 L 6.648438 25.492188 L 6.773438 25.417969 L 6.902344 25.339844 L 7.027344 25.269531 L 7.15625 25.195312 L 7.285156 25.128906 L 7.414062 25.058594 L 7.542969 24.992188 L 7.675781 24.925781 L 7.804688 24.863281 L 8.070312 24.738281 L 8.199219 24.675781 L 8.335938 24.617188 L 8.601562 24.507812 L 8.875 24.398438 L 9.011719 24.347656 L 9.144531 24.300781 L 9.285156 24.25 L 9.421875 24.203125 L 9.5625 24.160156 L 9.699219 24.117188 L 9.980469 24.03125 L 10.261719 23.953125 L 10.40625 23.917969 L 10.546875 23.882812 L 10.691406 23.847656 L 10.835938 23.816406 L 10.914062 24.15625 L 10.773438 24.1875 L 10.632812 24.222656 L 10.496094 24.257812 L 10.355469 24.292969 L 10.21875 24.328125 L 9.945312 24.40625 L 9.535156 24.535156 L 9.136719 24.675781 L 8.871094 24.777344 L 8.742188 24.828125 L 8.476562 24.9375 L 8.089844 25.113281 L 7.832031 25.238281 L 7.707031 25.300781 L 7.457031 25.433594 L 7.332031 25.503906 L 7.207031 25.570312 L 7.082031 25.644531 L 6.957031 25.714844 L 6.714844 25.863281 Z M 6.710938 25.867188 Z M 1.261719 32.371094 L 0.933594 32.242188 L 1.039062 31.976562 L 1.265625 31.460938 L 1.386719 31.207031 L 1.515625 30.957031 L 1.640625 30.710938 L 1.777344 30.46875 L 1.914062 30.230469 L 2.054688 29.996094 L 2.203125 29.765625 L 2.355469 29.535156 L 2.667969 29.089844 L 2.832031 28.871094 L 3.175781 28.449219 L 3.351562 28.242188 L 3.71875 27.835938 L 3.910156 27.640625 L 4.105469 27.449219 L 4.503906 27.074219 L 4.714844 26.890625 L 4.925781 26.714844 L 5.140625 26.539062 L 5.359375 26.367188 L 5.585938 26.199219 L 5.8125 26.035156 L 6.046875 25.875 L 6.28125 25.71875 L 6.523438 25.566406 L 6.710938 25.863281 L 6.476562 26.011719 L 6.246094 26.164062 L 6.019531 26.320312 L 5.792969 26.480469 L 5.363281 26.808594 L 5.152344 26.980469 L 4.945312 27.152344 L 4.546875 27.511719 L 4.351562 27.695312 L 4.164062 27.882812 L 3.980469 28.074219 L 3.796875 28.269531 L 3.621094 28.464844 L 3.449219 28.667969 L 3.28125 28.875 L 3.117188 29.082031 L 2.957031 29.292969 L 2.800781 29.507812 L 2.648438 29.726562 L 2.503906 29.949219 L 2.359375 30.175781 L 2.21875 30.402344 L 2.085938 30.636719 L 1.957031 30.871094 L 1.828125 31.113281 L 1.707031 31.355469 L 1.589844 31.601562 L 1.476562 31.851562 L 1.367188 32.109375 L 1.261719 32.363281 Z M 0.933594 32.242188 L 0.898438 32.324219 Z M 0.355469 36.992188 L 0.00390625 36.984375 L 0.0078125 36.832031 L 0.03125 36.375 L 0.0429688 36.222656 L 0.0507812 36.074219 L 0.0820312 35.769531 L 0.0976562 35.621094 L 0.117188 35.46875 L 0.15625 35.171875 L 0.179688 35.019531 L 0.207031 34.871094 L 0.230469 34.722656 L 0.261719 34.574219 L 0.289062 34.425781 L 0.320312 34.28125 L 0.351562 34.132812 L 0.421875 33.835938 L 0.5 33.546875 L 0.542969 33.398438 L 0.628906 33.109375 L 0.675781 32.964844 L 0.726562 32.820312 L 0.773438 32.675781 L 0.828125 32.53125 L 0.882812 32.390625 L 0.9375 32.246094 L 1.265625 32.375 L 1.210938 32.515625 L 1.160156 32.652344 L 1.109375 32.796875 L 1.0625 32.933594 L 1.015625 33.078125 L 0.96875 33.21875 L 0.882812 33.5 L 0.84375 33.640625 L 0.804688 33.785156 L 0.769531 33.929688 L 0.734375 34.070312 L 0.699219 34.214844 L 0.667969 34.355469 L 0.636719 34.5 L 0.554688 34.933594 L 0.507812 35.222656 L 0.488281 35.367188 L 0.472656 35.515625 L 0.453125 35.660156 L 0.4375 35.804688 L 0.421875 35.953125 L 0.386719 36.398438 L 0.378906 36.546875 L 0.375 36.695312 L 0.367188 36.84375 L 0.363281 36.992188 Z M 0.355469 36.992188 L 0.355469 36.996094 Z M 1.085938 37.761719 L 1.085938 38.109375 L 1.019531 38.109375 L 0.949219 38.105469 L 0.882812 38.101562 L 0.820312 38.097656 L 0.761719 38.089844 L 0.703125 38.078125 L 0.648438 38.070312 L 0.539062 38.039062 L 0.488281 38.019531 L 0.441406 38 L 0.347656 37.945312 L 0.304688 37.914062 L 0.265625 37.882812 L 0.226562 37.847656 L 0.195312 37.804688 L 0.164062 37.765625 L 0.136719 37.71875 L 0.109375 37.675781 L 0.0898438 37.625 L 0.0703125 37.578125 L 0.0507812 37.523438 L 0.0390625 37.472656 L 0.0273438 37.417969 L 0.0195312 37.359375 L 0.015625 37.300781 L 0.0078125 37.242188 L 0.00390625 37.179688 L 0.00390625 36.980469 L 0.355469 36.988281 L 0.355469 37.164062 L 0.363281 37.265625 L 0.371094 37.3125 L 0.375 37.351562 L 0.382812 37.394531 L 0.394531 37.429688 L 0.40625 37.460938 L 0.414062 37.492188 L 0.425781 37.519531 L 0.457031 37.566406 L 0.503906 37.625 L 0.542969 37.65625 L 0.566406 37.671875 L 0.621094 37.695312 L 0.652344 37.707031 L 0.691406 37.71875 L 0.726562 37.726562 L 0.8125 37.742188 L 0.863281 37.75 L 0.914062 37.753906 L 0.96875 37.757812 L 1.027344 37.761719 L 1.089844 37.761719 Z M 7.707031 37.761719 L 7.707031 38.109375 L 1.066406 38.109375 L 1.066406 37.761719 Z M 8.253906 37.90625 L 7.90625 37.964844 L 8.082031 38.113281 L 7.707031 38.113281 L 7.707031 37.761719 L 8.082031 37.761719 L 8.253906 37.910156 Z M 8.082031 37.761719 L 8.230469 37.761719 L 8.253906 37.90625 Z M 13.679688 42.792969 L 13.675781 43.140625 L 13.457031 43.136719 L 13.234375 43.117188 L 13.011719 43.09375 L 12.785156 43.058594 L 12.558594 43.015625 L 12.332031 42.964844 L 12.105469 42.902344 L 11.882812 42.832031 L 11.65625 42.75 L 11.433594 42.660156 L 11.210938 42.558594 L 10.992188 42.449219 L 10.777344 42.328125 L 10.5625 42.199219 L 10.355469 42.054688 L 10.148438 41.902344 L 9.949219 41.742188 L 9.757812 41.566406 L 9.570312 41.382812 L 9.386719 41.1875 L 9.214844 40.980469 L 9.046875 40.765625 L 8.890625 40.535156 L 8.738281 40.296875 L 8.597656 40.046875 L 8.464844 39.78125 L 8.34375 39.507812 L 8.234375 39.226562 L 8.136719 38.929688 L 8.046875 38.621094 L 7.972656 38.296875 L 7.910156 37.964844 L 8.253906 37.90625 L 8.316406 38.226562 L 8.386719 38.53125 L 8.472656 38.824219 L 8.566406 39.105469 L 8.671875 39.378906 L 8.785156 39.636719 L 8.910156 39.882812 L 9.042969 40.121094 L 9.183594 40.347656 L 9.332031 40.5625 L 9.488281 40.765625 L 9.652344 40.957031 L 9.824219 41.140625 L 10 41.316406 L 10.179688 41.476562 L 10.367188 41.628906 L 10.5625 41.773438 L 10.757812 41.90625 L 10.957031 42.027344 L 11.160156 42.140625 L 11.363281 42.246094 L 11.574219 42.34375 L 11.78125 42.429688 L 11.996094 42.503906 L 12.207031 42.574219 L 12.417969 42.632812 L 12.632812 42.679688 L 12.84375 42.71875 L 13.058594 42.753906 L 13.265625 42.777344 L 13.472656 42.792969 L 13.679688 42.796875 Z M 13.675781 43.140625 L 13.671875 43.140625 Z M 17.007812 41.808594 L 17.210938 42.09375 L 17.007812 42.226562 L 16.90625 42.289062 L 16.703125 42.40625 L 16.597656 42.460938 L 16.496094 42.515625 L 16.285156 42.617188 L 16.175781 42.660156 L 16.070312 42.707031 L 15.964844 42.746094 L 15.855469 42.789062 L 15.746094 42.828125 L 15.636719 42.863281 L 15.527344 42.894531 L 15.414062 42.925781 L 15.304688 42.957031 L 15.191406 42.984375 L 14.964844 43.03125 L 14.851562 43.050781 L 14.734375 43.070312 L 14.621094 43.085938 L 14.503906 43.101562 L 14.269531 43.125 L 14.152344 43.128906 L 14.03125 43.136719 L 13.914062 43.140625 L 13.792969 43.144531 L 13.671875 43.144531 L 13.675781 42.792969 L 13.90625 42.792969 L 14.019531 42.789062 L 14.128906 42.78125 L 14.242188 42.773438 L 14.351562 42.765625 L 14.464844 42.753906 L 14.574219 42.738281 L 14.679688 42.722656 L 14.789062 42.707031 L 14.894531 42.6875 L 15.003906 42.664062 L 15.214844 42.617188 L 15.320312 42.589844 L 15.425781 42.558594 L 15.527344 42.527344 L 15.632812 42.496094 L 15.734375 42.460938 L 15.9375 42.382812 L 16.035156 42.339844 L 16.136719 42.296875 L 16.234375 42.25 L 16.335938 42.203125 L 16.53125 42.101562 L 16.625 42.046875 L 16.722656 41.988281 L 16.816406 41.933594 L 16.910156 41.871094 L 17.007812 41.808594 L 17.003906 41.808594 Z M 17.210938 42.09375 L 17.242188 42.070312 Z M 19.527344 37.761719 L 19.527344 38.109375 L 19.703125 37.964844 L 19.675781 38.121094 L 19.644531 38.28125 L 19.609375 38.4375 L 19.574219 38.589844 L 19.535156 38.742188 L 19.492188 38.894531 L 19.449219 39.042969 L 19.402344 39.191406 L 19.347656 39.335938 L 19.292969 39.476562 L 19.175781 39.757812 L 19.109375 39.898438 L 19.042969 40.03125 L 18.972656 40.164062 L 18.898438 40.296875 L 18.734375 40.554688 L 18.652344 40.675781 L 18.5625 40.800781 L 18.46875 40.921875 L 18.375 41.039062 L 18.273438 41.152344 L 18.171875 41.269531 L 18.066406 41.378906 L 17.953125 41.488281 L 17.839844 41.59375 L 17.722656 41.699219 L 17.472656 41.902344 L 17.34375 41.996094 L 17.210938 42.09375 L 17.007812 41.804688 L 17.136719 41.714844 L 17.257812 41.625 L 17.375 41.53125 L 17.488281 41.4375 L 17.601562 41.339844 L 17.8125 41.136719 L 18.007812 40.925781 L 18.101562 40.816406 L 18.191406 40.707031 L 18.277344 40.59375 L 18.359375 40.480469 L 18.441406 40.363281 L 18.589844 40.121094 L 18.660156 40 L 18.726562 39.875 L 18.789062 39.746094 L 18.847656 39.617188 L 18.90625 39.484375 L 19.015625 39.21875 L 19.0625 39.082031 L 19.109375 38.941406 L 19.152344 38.800781 L 19.191406 38.65625 L 19.226562 38.511719 L 19.296875 38.214844 L 19.351562 37.910156 L 19.523438 37.761719 Z M 19.355469 37.90625 L 19.378906 37.761719 L 19.527344 37.761719 Z M 19.929688 37.761719 L 19.929688 38.109375 L 19.523438 38.109375 L 19.523438 37.761719 Z M 26.550781 37.761719 L 26.550781 38.109375 L 19.914062 38.109375 L 19.914062 37.761719 Z M 27.273438 37.003906 L 27.625 36.992188 L 27.625 37.1875 L 27.617188 37.25 L 27.613281 37.304688 L 27.605469 37.363281 L 27.570312 37.527344 L 27.550781 37.578125 L 27.535156 37.625 L 27.488281 37.71875 L 27.460938 37.761719 L 27.429688 37.804688 L 27.355469 37.878906 L 27.316406 37.914062 L 27.230469 37.96875 L 27.183594 37.996094 L 27.136719 38.015625 L 27.085938 38.035156 L 27.035156 38.050781 L 26.980469 38.066406 L 26.925781 38.078125 L 26.867188 38.089844 L 26.808594 38.097656 L 26.683594 38.105469 L 26.617188 38.109375 L 26.550781 38.109375 L 26.550781 37.761719 L 26.609375 37.761719 L 26.71875 37.753906 L 26.8125 37.746094 L 26.898438 37.730469 L 26.933594 37.71875 L 26.96875 37.710938 L 27 37.695312 L 27.054688 37.671875 L 27.078125 37.65625 L 27.117188 37.625 L 27.136719 37.605469 L 27.167969 37.566406 L 27.183594 37.542969 L 27.195312 37.519531 L 27.207031 37.492188 L 27.230469 37.429688 L 27.238281 37.394531 L 27.253906 37.316406 L 27.261719 37.273438 L 27.265625 37.226562 L 27.269531 37.175781 L 27.269531 37.003906 Z M 27.625 36.992188 L 27.625 36.988281 L 27.625 36.996094 Z M 27.625 36.992188 "/>
<path style=" stroke:none;fill-rule:nonzero;fill:rgb(0%,0%,0%);fill-opacity:1;" d="M 20.785156 3.824219 L 13.34375 3.824219 C 13.34375 3.824219 13.335938 3.824219 13.335938 3.824219 L 10.535156 3.824219 C 8.976562 3.824219 7.640625 2.691406 7.394531 1.164062 L 23.925781 1.164062 C 23.683594 2.691406 22.355469 3.824219 20.785156 3.824219 Z M 9.101562 11.109375 C 8.789062 10.554688 8.300781 10.121094 7.707031 9.878906 L 13.53125 4.800781 L 16.308594 4.800781 Z M 6.644531 14.289062 C 5.628906 14.289062 4.8125 13.476562 4.8125 12.472656 C 4.8125 11.46875 5.628906 10.652344 6.644531 10.652344 C 7.65625 10.652344 8.476562 11.46875 8.476562 12.472656 C 8.476562 13.480469 7.648438 14.289062 6.644531 14.289062 Z M 24.460938 0.175781 L 6.859375 0.175781 C 6.585938 0.175781 6.359375 0.398438 6.359375 0.667969 C 6.371094 2.953125 8.234375 4.800781 10.535156 4.800781 L 12.027344 4.800781 L 6.4375 9.683594 C 4.964844 9.78125 3.824219 11 3.816406 12.472656 C 3.824219 13.726562 4.671875 14.839844 5.902344 15.171875 L 12.027344 24.574219 L 12.835938 23.976562 L 12.464844 23.609375 L 13.324219 24.691406 L 7.113281 15.230469 C 7.648438 15.132812 8.144531 14.898438 8.546875 14.53125 L 13.8125 22.621094 L 13.800781 22.628906 L 14.609375 22.039062 L 9.179688 13.691406 C 9.421875 13.207031 9.511719 12.664062 9.441406 12.121094 L 17.800781 4.796875 L 20.785156 4.796875 C 23.085938 4.796875 24.949219 2.949219 24.957031 0.667969 C 24.957031 0.398438 24.734375 0.175781 24.460938 0.175781 Z M 24.460938 0.175781 "/>
<path style=" stroke:none;fill-rule:nonzero;fill:rgb(0%,0%,0%);fill-opacity:1;" d="M 17.613281 3.648438 L 20.78125 3.648438 L 20.78125 3.996094 L 17.613281 3.996094 Z M 17.613281 3.996094 L 17.613281 3.644531 Z M 13.34375 3.648438 L 17.613281 3.648438 L 17.613281 3.996094 L 13.34375 3.996094 Z M 13.332031 3.996094 L 13.332031 3.648438 Z M 10.535156 3.648438 L 13.332031 3.648438 L 13.332031 3.996094 L 10.535156 3.996094 Z M 7.394531 0.988281 L 7.394531 1.335938 L 7.566406 1.132812 L 7.59375 1.265625 L 7.625 1.398438 L 7.660156 1.527344 L 7.699219 1.652344 L 7.746094 1.777344 L 7.855469 2.019531 L 7.917969 2.136719 L 8.058594 2.355469 L 8.136719 2.460938 L 8.21875 2.5625 L 8.304688 2.664062 L 8.394531 2.757812 L 8.488281 2.847656 L 8.585938 2.933594 L 8.6875 3.015625 L 8.789062 3.089844 L 8.898438 3.164062 L 9.011719 3.234375 L 9.125 3.296875 L 9.242188 3.355469 L 9.359375 3.410156 L 9.484375 3.457031 L 9.605469 3.5 L 9.734375 3.539062 L 9.863281 3.574219 L 9.992188 3.601562 L 10.128906 3.621094 L 10.261719 3.636719 L 10.398438 3.644531 L 10.535156 3.648438 L 10.535156 4 L 10.382812 3.996094 L 10.230469 3.984375 L 10.082031 3.96875 L 9.785156 3.914062 L 9.640625 3.875 L 9.496094 3.832031 L 9.222656 3.730469 L 9.089844 3.667969 L 8.957031 3.601562 L 8.832031 3.53125 L 8.707031 3.457031 L 8.585938 3.375 L 8.472656 3.289062 L 8.359375 3.195312 L 8.25 3.097656 L 8.144531 3 L 8.042969 2.894531 L 7.949219 2.785156 L 7.859375 2.671875 L 7.773438 2.554688 L 7.691406 2.433594 L 7.617188 2.304688 L 7.546875 2.175781 L 7.480469 2.042969 L 7.421875 1.910156 L 7.371094 1.769531 L 7.324219 1.625 L 7.285156 1.480469 L 7.25 1.335938 L 7.222656 1.183594 L 7.394531 0.980469 Z M 7.21875 1.191406 L 7.1875 0.988281 L 7.394531 0.988281 Z M 23.925781 1.335938 L 7.394531 1.335938 L 7.394531 0.988281 L 23.925781 0.988281 L 24.097656 1.191406 Z M 23.925781 0.988281 L 24.132812 0.988281 L 24.097656 1.191406 Z M 20.785156 4 L 20.785156 3.648438 L 20.921875 3.644531 L 21.058594 3.636719 L 21.191406 3.621094 L 21.328125 3.601562 L 21.457031 3.574219 L 21.589844 3.539062 L 21.714844 3.5 L 21.839844 3.457031 L 21.960938 3.410156 L 22.082031 3.355469 L 22.195312 3.296875 L 22.3125 3.234375 L 22.421875 3.164062 L 22.53125 3.089844 L 22.632812 3.015625 L 22.734375 2.933594 L 22.832031 2.847656 L 22.925781 2.757812 L 23.015625 2.664062 L 23.097656 2.566406 L 23.179688 2.464844 L 23.257812 2.359375 L 23.328125 2.25 L 23.394531 2.136719 L 23.457031 2.023438 L 23.515625 1.90625 L 23.566406 1.785156 L 23.613281 1.660156 L 23.65625 1.53125 L 23.691406 1.402344 L 23.722656 1.269531 L 23.75 1.136719 L 24.097656 1.191406 L 24.070312 1.34375 L 24.035156 1.488281 L 23.996094 1.632812 L 23.949219 1.777344 L 23.894531 1.914062 L 23.835938 2.050781 L 23.773438 2.183594 L 23.703125 2.3125 L 23.628906 2.4375 L 23.546875 2.558594 L 23.460938 2.675781 L 23.371094 2.789062 L 23.277344 2.898438 L 23.179688 3.003906 L 23.074219 3.105469 L 22.964844 3.203125 L 22.851562 3.292969 L 22.734375 3.378906 L 22.617188 3.460938 L 22.492188 3.539062 L 22.363281 3.609375 L 22.234375 3.675781 L 22.097656 3.734375 L 21.964844 3.789062 L 21.824219 3.839844 L 21.679688 3.882812 L 21.539062 3.917969 L 21.390625 3.949219 L 21.242188 3.972656 L 21.089844 3.992188 L 20.9375 4 L 20.78125 4.003906 Z M 7.589844 9.75 L 7.820312 10.011719 L 7.773438 9.71875 L 7.832031 9.742188 L 7.886719 9.769531 L 7.945312 9.792969 L 8.003906 9.824219 L 8.058594 9.851562 L 8.222656 9.945312 L 8.277344 9.980469 L 8.328125 10.015625 L 8.382812 10.050781 L 8.433594 10.089844 L 8.480469 10.125 L 8.53125 10.164062 L 8.578125 10.207031 L 8.671875 10.285156 L 8.71875 10.328125 L 8.761719 10.375 L 8.808594 10.417969 L 8.847656 10.464844 L 8.890625 10.507812 L 8.929688 10.558594 L 8.972656 10.605469 L 9.011719 10.652344 L 9.046875 10.703125 L 9.085938 10.753906 L 9.121094 10.804688 L 9.191406 10.914062 L 9.222656 10.964844 L 9.253906 11.019531 L 8.949219 11.191406 L 8.921875 11.144531 L 8.890625 11.09375 L 8.859375 11.046875 L 8.832031 11 L 8.800781 10.957031 L 8.765625 10.914062 L 8.734375 10.871094 L 8.628906 10.742188 L 8.589844 10.699219 L 8.554688 10.660156 L 8.515625 10.617188 L 8.476562 10.582031 L 8.433594 10.542969 L 8.394531 10.507812 L 8.351562 10.46875 L 8.308594 10.433594 L 8.265625 10.402344 L 8.222656 10.367188 L 8.179688 10.335938 L 8.132812 10.300781 L 8.085938 10.269531 L 7.992188 10.214844 L 7.945312 10.183594 L 7.894531 10.15625 L 7.847656 10.132812 L 7.796875 10.105469 L 7.746094 10.082031 L 7.695312 10.0625 L 7.644531 10.039062 L 7.59375 9.746094 Z M 7.640625 10.042969 L 7.375 9.9375 L 7.589844 9.75 Z M 13.644531 4.933594 L 7.820312 10.011719 L 7.589844 9.75 L 13.410156 4.671875 L 13.527344 4.628906 Z M 13.410156 4.671875 L 13.460938 4.628906 L 13.527344 4.628906 Z M 16.308594 4.976562 L 13.527344 4.976562 L 13.527344 4.628906 L 16.308594 4.628906 L 16.425781 4.933594 Z M 16.308594 4.628906 L 16.773438 4.628906 L 16.425781 4.933594 Z M 8.984375 10.976562 L 16.191406 4.671875 L 16.425781 4.929688 L 9.21875 11.238281 L 8.949219 11.195312 Z M 9.21875 11.238281 L 9.054688 11.382812 L 8.945312 11.195312 L 9.214844 11.238281 Z M 4.632812 12.472656 L 4.984375 12.472656 L 4.988281 12.558594 L 4.996094 12.640625 L 5.007812 12.722656 L 5.023438 12.804688 L 5.039062 12.882812 L 5.0625 12.960938 L 5.089844 13.039062 L 5.117188 13.113281 L 5.148438 13.1875 L 5.1875 13.257812 L 5.226562 13.324219 L 5.269531 13.390625 L 5.316406 13.457031 L 5.367188 13.519531 L 5.417969 13.578125 L 5.472656 13.636719 L 5.53125 13.691406 L 5.589844 13.742188 L 5.652344 13.792969 L 5.785156 13.878906 L 5.855469 13.921875 L 5.925781 13.957031 L 6 13.988281 L 6.074219 14.015625 L 6.152344 14.042969 L 6.230469 14.066406 L 6.394531 14.097656 L 6.476562 14.109375 L 6.558594 14.117188 L 6.644531 14.117188 L 6.644531 14.46875 L 6.542969 14.464844 L 6.4375 14.457031 L 6.339844 14.445312 L 6.238281 14.425781 L 6.140625 14.40625 L 6.046875 14.378906 L 5.953125 14.347656 L 5.863281 14.3125 L 5.683594 14.226562 L 5.601562 14.179688 L 5.519531 14.128906 L 5.441406 14.074219 L 5.363281 14.015625 L 5.292969 13.953125 L 5.222656 13.886719 L 5.15625 13.816406 L 5.089844 13.742188 L 5.03125 13.667969 L 4.976562 13.589844 L 4.875 13.425781 L 4.832031 13.339844 L 4.792969 13.25 L 4.757812 13.160156 L 4.726562 13.066406 L 4.699219 12.972656 L 4.675781 12.875 L 4.65625 12.777344 L 4.644531 12.675781 L 4.636719 12.574219 Z M 6.644531 10.480469 L 6.644531 10.828125 L 6.558594 10.832031 L 6.476562 10.835938 L 6.394531 10.847656 L 6.230469 10.878906 L 6.152344 10.902344 L 6.074219 10.929688 L 6 10.957031 L 5.925781 10.988281 L 5.785156 11.066406 L 5.71875 11.109375 L 5.652344 11.15625 L 5.589844 11.203125 L 5.53125 11.257812 L 5.472656 11.308594 L 5.363281 11.425781 L 5.316406 11.488281 L 5.269531 11.554688 L 5.183594 11.6875 L 5.148438 11.757812 L 5.085938 11.90625 L 5.058594 11.984375 L 5.019531 12.140625 L 5.003906 12.222656 L 4.992188 12.304688 L 4.988281 12.390625 L 4.984375 12.472656 L 4.632812 12.472656 L 4.636719 12.371094 L 4.644531 12.269531 L 4.65625 12.167969 L 4.695312 11.972656 L 4.722656 11.878906 L 4.753906 11.785156 L 4.789062 11.695312 L 4.832031 11.605469 L 4.875 11.519531 L 4.921875 11.4375 L 4.976562 11.355469 L 5.03125 11.277344 L 5.089844 11.203125 L 5.152344 11.128906 L 5.21875 11.0625 L 5.289062 10.996094 L 5.363281 10.933594 L 5.4375 10.875 L 5.515625 10.820312 L 5.601562 10.765625 L 5.683594 10.71875 L 5.769531 10.675781 L 5.859375 10.632812 L 5.953125 10.597656 L 6.042969 10.566406 L 6.140625 10.539062 L 6.238281 10.519531 L 6.335938 10.503906 L 6.4375 10.488281 L 6.539062 10.480469 Z M 8.652344 12.472656 L 8.300781 12.472656 L 8.296875 12.386719 L 8.292969 12.304688 L 8.269531 12.140625 L 8.25 12.0625 L 8.226562 11.984375 L 8.199219 11.90625 L 8.171875 11.832031 L 8.140625 11.757812 L 8.101562 11.6875 L 8.0625 11.621094 L 8.019531 11.554688 L 7.972656 11.488281 L 7.921875 11.425781 L 7.871094 11.367188 L 7.816406 11.308594 L 7.757812 11.257812 L 7.699219 11.203125 L 7.636719 11.15625 L 7.570312 11.109375 L 7.503906 11.066406 L 7.363281 10.988281 L 7.289062 10.957031 L 7.214844 10.929688 L 7.136719 10.902344 L 7.058594 10.878906 L 6.980469 10.863281 L 6.898438 10.847656 L 6.8125 10.835938 L 6.730469 10.832031 L 6.644531 10.828125 L 6.644531 10.480469 L 6.746094 10.480469 L 6.851562 10.488281 L 6.949219 10.503906 L 7.050781 10.519531 L 7.148438 10.539062 L 7.242188 10.566406 L 7.335938 10.597656 L 7.429688 10.632812 L 7.519531 10.675781 L 7.605469 10.71875 L 7.6875 10.765625 L 7.769531 10.820312 L 7.847656 10.875 L 7.925781 10.933594 L 8 10.996094 L 8.132812 11.128906 L 8.199219 11.203125 L 8.257812 11.277344 L 8.3125 11.355469 L 8.367188 11.4375 L 8.414062 11.519531 L 8.457031 11.605469 L 8.5 11.695312 L 8.535156 11.785156 L 8.566406 11.878906 L 8.59375 11.972656 L 8.632812 12.167969 L 8.644531 12.269531 L 8.652344 12.371094 L 8.65625 12.472656 Z M 6.644531 14.464844 L 6.644531 14.117188 L 6.730469 14.113281 L 6.8125 14.109375 L 6.894531 14.097656 L 6.976562 14.082031 L 7.054688 14.0625 L 7.136719 14.042969 L 7.210938 14.015625 L 7.289062 13.988281 L 7.363281 13.953125 L 7.433594 13.917969 L 7.5 13.878906 L 7.570312 13.835938 L 7.632812 13.789062 L 7.699219 13.742188 L 7.816406 13.632812 L 7.871094 13.578125 L 7.972656 13.453125 L 8.019531 13.390625 L 8.0625 13.324219 L 8.105469 13.253906 L 8.140625 13.183594 L 8.203125 13.035156 L 8.230469 12.957031 L 8.253906 12.878906 L 8.269531 12.800781 L 8.285156 12.71875 L 8.296875 12.636719 L 8.304688 12.554688 L 8.304688 12.46875 L 8.660156 12.46875 L 8.65625 12.574219 L 8.648438 12.675781 L 8.636719 12.773438 L 8.617188 12.871094 L 8.59375 12.96875 L 8.566406 13.0625 L 8.535156 13.15625 L 8.5 13.246094 L 8.460938 13.332031 L 8.367188 13.503906 L 8.257812 13.660156 L 8.199219 13.734375 L 8.132812 13.808594 L 8.066406 13.878906 L 8 13.945312 L 7.925781 14.007812 L 7.847656 14.066406 L 7.769531 14.121094 L 7.6875 14.171875 L 7.605469 14.21875 L 7.519531 14.261719 L 7.429688 14.304688 L 7.339844 14.339844 L 7.246094 14.371094 L 7.152344 14.398438 L 6.957031 14.4375 L 6.855469 14.449219 L 6.753906 14.457031 L 6.652344 14.460938 Z M 6.859375 0 L 24.460938 0 L 24.460938 0.351562 L 6.859375 0.351562 Z M 6.535156 0.667969 L 6.183594 0.671875 L 6.183594 0.636719 L 6.191406 0.566406 L 6.214844 0.472656 L 6.238281 0.410156 L 6.253906 0.378906 L 6.265625 0.351562 L 6.28125 0.324219 L 6.320312 0.269531 L 6.359375 0.222656 L 6.40625 0.175781 L 6.453125 0.136719 L 6.507812 0.0976562 L 6.535156 0.0820312 L 6.566406 0.0664062 L 6.597656 0.0546875 L 6.625 0.0429688 L 6.65625 0.03125 L 6.6875 0.0234375 L 6.722656 0.015625 L 6.753906 0.0078125 L 6.824219 0 L 6.859375 0 L 6.859375 0.347656 L 6.839844 0.347656 L 6.808594 0.355469 L 6.792969 0.355469 L 6.777344 0.363281 L 6.730469 0.375 L 6.71875 0.382812 L 6.6875 0.398438 L 6.664062 0.414062 L 6.652344 0.425781 L 6.640625 0.433594 L 6.605469 0.46875 L 6.589844 0.492188 L 6.582031 0.507812 L 6.574219 0.519531 L 6.558594 0.550781 L 6.554688 0.5625 L 6.550781 0.578125 L 6.546875 0.589844 L 6.542969 0.605469 L 6.539062 0.625 L 6.535156 0.640625 L 6.535156 0.671875 Z M 6.183594 0.671875 L 6.183594 0.667969 Z M 10.535156 4.625 L 10.535156 4.972656 L 10.3125 4.96875 L 10.09375 4.953125 L 9.875 4.921875 L 9.664062 4.886719 L 9.453125 4.839844 L 9.246094 4.78125 L 9.046875 4.714844 L 8.847656 4.636719 L 8.65625 4.550781 L 8.46875 4.453125 L 8.289062 4.351562 L 8.113281 4.238281 L 7.941406 4.117188 L 7.777344 3.992188 L 7.621094 3.855469 L 7.46875 3.710938 L 7.324219 3.5625 L 7.1875 3.40625 L 7.0625 3.246094 L 6.941406 3.074219 L 6.828125 2.902344 L 6.722656 2.722656 L 6.625 2.535156 L 6.539062 2.347656 L 6.460938 2.152344 L 6.390625 1.949219 L 6.332031 1.746094 L 6.28125 1.539062 L 6.242188 1.328125 L 6.214844 1.113281 L 6.195312 0.894531 L 6.191406 0.671875 L 6.542969 0.671875 L 6.546875 0.875 L 6.5625 1.078125 L 6.589844 1.273438 L 6.625 1.46875 L 6.671875 1.660156 L 6.722656 1.847656 L 6.789062 2.03125 L 6.859375 2.210938 L 6.941406 2.386719 L 7.03125 2.558594 L 7.125 2.722656 L 7.230469 2.886719 L 7.339844 3.039062 L 7.460938 3.191406 L 7.585938 3.332031 L 7.71875 3.472656 L 7.855469 3.601562 L 8 3.726562 L 8.152344 3.84375 L 8.308594 3.953125 L 8.46875 4.058594 L 8.636719 4.152344 L 8.808594 4.238281 L 8.984375 4.320312 L 9.167969 4.390625 L 9.351562 4.453125 L 9.539062 4.507812 L 9.734375 4.550781 L 9.929688 4.585938 L 10.128906 4.613281 L 10.332031 4.628906 L 10.539062 4.632812 Z M 12.027344 4.972656 L 10.535156 4.972656 L 10.535156 4.625 L 12.027344 4.625 L 12.144531 4.929688 Z M 12.027344 4.625 L 12.496094 4.625 L 12.144531 4.929688 Z M 6.324219 9.554688 L 11.910156 4.671875 L 12.144531 4.929688 L 6.554688 9.816406 L 6.449219 9.859375 L 6.320312 9.554688 Z M 6.554688 9.816406 L 6.511719 9.855469 L 6.453125 9.859375 L 6.558594 9.816406 Z M 3.992188 12.472656 L 3.640625 12.472656 L 3.644531 12.324219 L 3.65625 12.183594 L 3.671875 12.039062 L 3.699219 11.902344 L 3.730469 11.765625 L 3.765625 11.628906 L 3.808594 11.496094 L 3.859375 11.367188 L 3.914062 11.238281 L 3.976562 11.117188 L 4.042969 10.996094 L 4.113281 10.878906 L 4.191406 10.761719 L 4.273438 10.652344 L 4.359375 10.546875 L 4.453125 10.445312 L 4.546875 10.351562 L 4.648438 10.257812 L 4.753906 10.167969 L 4.859375 10.082031 L 4.972656 10.003906 L 5.089844 9.929688 L 5.210938 9.859375 L 5.332031 9.796875 L 5.460938 9.742188 L 5.59375 9.691406 L 5.722656 9.644531 L 5.859375 9.605469 L 6 9.574219 L 6.140625 9.546875 L 6.285156 9.527344 L 6.429688 9.515625 L 6.453125 9.863281 L 6.324219 9.875 L 6.199219 9.894531 L 6.074219 9.917969 L 5.953125 9.945312 L 5.832031 9.980469 L 5.714844 10.019531 L 5.601562 10.066406 L 5.488281 10.117188 L 5.378906 10.171875 L 5.273438 10.230469 L 5.167969 10.296875 L 5.070312 10.363281 L 4.972656 10.4375 L 4.878906 10.515625 L 4.792969 10.597656 L 4.707031 10.683594 L 4.550781 10.871094 L 4.480469 10.964844 L 4.410156 11.066406 L 4.347656 11.171875 L 4.289062 11.277344 L 4.234375 11.386719 L 4.1875 11.496094 L 4.144531 11.613281 L 4.105469 11.730469 L 4.070312 11.851562 L 4.042969 11.972656 L 4.023438 12.097656 L 4.007812 12.21875 L 3.996094 12.347656 L 3.992188 12.476562 Z M 3.640625 12.472656 Z M 6.050781 15.078125 L 5.753906 15.265625 L 5.855469 15.339844 L 5.734375 15.304688 L 5.617188 15.265625 L 5.5 15.222656 L 5.386719 15.171875 L 5.277344 15.117188 L 5.171875 15.0625 L 5.066406 15 L 4.960938 14.933594 L 4.863281 14.863281 L 4.769531 14.792969 L 4.675781 14.714844 L 4.585938 14.632812 L 4.5 14.550781 L 4.417969 14.460938 L 4.339844 14.371094 L 4.191406 14.183594 L 4.125 14.082031 L 4.0625 13.980469 L 3.945312 13.769531 L 3.894531 13.660156 L 3.847656 13.550781 L 3.804688 13.4375 L 3.734375 13.203125 L 3.707031 13.085938 L 3.683594 12.964844 L 3.664062 12.84375 L 3.652344 12.722656 L 3.644531 12.597656 L 3.640625 12.472656 L 3.992188 12.472656 L 3.996094 12.582031 L 4.003906 12.691406 L 4.015625 12.796875 L 4.03125 12.90625 L 4.078125 13.117188 L 4.140625 13.320312 L 4.175781 13.421875 L 4.21875 13.519531 L 4.265625 13.617188 L 4.3125 13.710938 L 4.421875 13.890625 L 4.480469 13.980469 L 4.542969 14.066406 L 4.609375 14.148438 L 4.679688 14.226562 L 4.753906 14.304688 L 4.828125 14.378906 L 4.910156 14.449219 L 4.992188 14.515625 L 5.074219 14.578125 L 5.164062 14.640625 L 5.253906 14.699219 L 5.34375 14.753906 L 5.441406 14.804688 L 5.539062 14.851562 L 5.636719 14.894531 L 5.742188 14.933594 L 5.847656 14.96875 L 5.953125 15 L 6.054688 15.074219 Z M 5.949219 15.003906 L 6.011719 15.019531 L 6.050781 15.078125 Z M 11.878906 24.667969 L 5.753906 15.265625 L 6.050781 15.074219 L 12.175781 24.480469 L 12.132812 24.714844 Z M 12.132812 24.714844 L 11.980469 24.828125 L 11.878906 24.667969 Z M 12.941406 24.113281 L 12.132812 24.714844 L 11.921875 24.433594 L 12.730469 23.835938 L 12.960938 23.851562 L 12.945312 24.113281 Z M 12.960938 23.851562 L 13.105469 23.996094 L 12.941406 24.113281 Z M 12.589844 23.484375 L 12.960938 23.851562 L 12.710938 24.097656 L 12.339844 23.730469 L 12.328125 23.714844 Z M 12.328125 23.714844 L 10.511719 21.417969 L 12.589844 23.484375 Z M 13.1875 24.800781 L 12.328125 23.714844 L 12.605469 23.5 L 13.464844 24.582031 L 13.472656 24.597656 Z M 7.257812 15.132812 L 13.472656 24.597656 L 13.175781 24.785156 L 6.964844 15.324219 L 7.078125 15.054688 Z M 6.964844 15.324219 L 6.820312 15.105469 L 7.078125 15.054688 Z M 8.691406 14.4375 L 8.394531 14.628906 L 8.664062 14.660156 L 8.625 14.695312 L 8.539062 14.765625 L 8.5 14.800781 L 8.457031 14.832031 L 8.410156 14.867188 L 8.367188 14.898438 L 8.324219 14.925781 L 8.277344 14.957031 L 8.234375 14.984375 L 8.1875 15.011719 L 8.140625 15.042969 L 8.097656 15.066406 L 8.050781 15.09375 L 8.003906 15.117188 L 7.953125 15.140625 L 7.90625 15.164062 L 7.855469 15.1875 L 7.808594 15.207031 L 7.757812 15.226562 L 7.710938 15.246094 L 7.660156 15.265625 L 7.609375 15.28125 L 7.558594 15.300781 L 7.457031 15.332031 L 7.40625 15.34375 L 7.351562 15.359375 L 7.25 15.382812 L 7.195312 15.394531 L 7.140625 15.402344 L 7.078125 15.0625 L 7.125 15.050781 L 7.171875 15.042969 L 7.265625 15.019531 L 7.3125 15.011719 L 7.355469 15 L 7.449219 14.96875 L 7.492188 14.953125 L 7.535156 14.941406 L 7.582031 14.921875 L 7.625 14.90625 L 7.882812 14.789062 L 7.921875 14.765625 L 8.007812 14.71875 L 8.046875 14.695312 L 8.085938 14.667969 L 8.125 14.644531 L 8.164062 14.617188 L 8.199219 14.589844 L 8.238281 14.5625 L 8.277344 14.53125 L 8.3125 14.503906 L 8.351562 14.472656 L 8.421875 14.410156 L 8.6875 14.441406 Z M 8.425781 14.40625 L 8.578125 14.261719 L 8.691406 14.4375 L 8.421875 14.40625 Z M 13.664062 22.714844 L 8.394531 14.628906 L 8.691406 14.4375 L 13.957031 22.527344 L 13.9375 22.742188 Z M 13.957031 22.527344 L 14.035156 22.640625 L 13.9375 22.742188 Z M 13.671875 22.511719 L 13.683594 22.5 L 13.9375 22.742188 L 13.929688 22.75 L 13.90625 22.769531 Z M 13.90625 22.769531 L 12.304688 23.941406 L 13.675781 22.511719 Z M 13.800781 22.628906 L 13.699219 22.488281 Z M 13.90625 22.769531 L 12.304688 23.941406 L 13.675781 22.511719 Z M 14.714844 22.179688 L 13.90625 22.769531 L 13.699219 22.488281 L 14.507812 21.898438 L 14.761719 21.945312 Z M 14.757812 21.945312 L 14.847656 22.085938 L 14.714844 22.179688 Z M 9.324219 13.597656 L 14.757812 21.945312 L 14.460938 22.136719 L 9.03125 13.785156 L 9.019531 13.613281 Z M 9.03125 13.785156 L 8.976562 13.703125 L 9.019531 13.613281 Z M 9.324219 11.992188 L 9.558594 12.253906 L 9.613281 12.101562 L 9.621094 12.15625 L 9.625 12.210938 L 9.632812 12.261719 L 9.632812 12.316406 L 9.640625 12.425781 L 9.640625 12.53125 L 9.636719 12.585938 L 9.632812 12.636719 L 9.632812 12.691406 L 9.625 12.746094 L 9.621094 12.796875 L 9.613281 12.851562 L 9.609375 12.90625 L 9.601562 12.957031 L 9.589844 13.011719 L 9.582031 13.0625 L 9.570312 13.113281 L 9.558594 13.167969 L 9.542969 13.21875 L 9.53125 13.273438 L 9.484375 13.425781 L 9.425781 13.578125 L 9.402344 13.625 L 9.382812 13.675781 L 9.335938 13.769531 L 9.019531 13.613281 L 9.039062 13.570312 L 9.0625 13.527344 L 9.078125 13.484375 L 9.117188 13.398438 L 9.148438 13.3125 L 9.164062 13.265625 L 9.179688 13.222656 L 9.191406 13.175781 L 9.207031 13.132812 L 9.214844 13.085938 L 9.226562 13.042969 L 9.234375 12.996094 L 9.246094 12.949219 L 9.253906 12.90625 L 9.257812 12.859375 L 9.273438 12.765625 L 9.289062 12.578125 L 9.289062 12.386719 L 9.273438 12.199219 L 9.265625 12.148438 L 9.324219 11.996094 Z M 9.265625 12.144531 L 9.257812 12.054688 L 9.324219 11.992188 L 9.269531 12.144531 Z M 17.917969 4.929688 L 9.558594 12.253906 L 9.324219 11.996094 L 17.683594 4.671875 L 17.800781 4.628906 L 17.917969 4.933594 Z M 17.683594 4.671875 L 17.734375 4.628906 L 17.800781 4.628906 Z M 20.785156 4.976562 L 17.800781 4.976562 L 17.800781 4.628906 L 20.785156 4.628906 Z M 24.78125 0.671875 L 25.132812 0.671875 L 25.128906 0.890625 L 25.109375 1.109375 L 25.082031 1.324219 L 25.042969 1.539062 L 24.992188 1.746094 L 24.933594 1.949219 L 24.863281 2.148438 L 24.785156 2.34375 L 24.699219 2.535156 L 24.601562 2.71875 L 24.5 2.898438 L 24.386719 3.074219 L 24.265625 3.242188 L 24.136719 3.40625 L 24 3.5625 L 23.855469 3.710938 L 23.703125 3.855469 L 23.546875 3.988281 L 23.382812 4.117188 L 23.210938 4.238281 L 23.035156 4.347656 L 22.855469 4.453125 L 22.667969 4.546875 L 22.476562 4.632812 L 22.28125 4.710938 L 22.078125 4.777344 L 21.871094 4.835938 L 21.664062 4.882812 L 21.449219 4.921875 L 21.230469 4.949219 L 21.011719 4.964844 L 20.789062 4.972656 L 20.789062 4.621094 L 20.996094 4.617188 L 21.199219 4.601562 L 21.398438 4.574219 L 21.59375 4.539062 L 21.789062 4.496094 L 21.976562 4.441406 L 22.160156 4.378906 L 22.34375 4.308594 L 22.519531 4.230469 L 22.691406 4.140625 L 22.859375 4.046875 L 23.023438 3.941406 L 23.179688 3.832031 L 23.328125 3.714844 L 23.472656 3.589844 L 23.613281 3.460938 L 23.742188 3.320312 L 23.867188 3.179688 L 23.988281 3.03125 L 24.101562 2.875 L 24.203125 2.714844 L 24.300781 2.546875 L 24.386719 2.375 L 24.46875 2.203125 L 24.539062 2.023438 L 24.601562 1.839844 L 24.65625 1.652344 L 24.703125 1.457031 L 24.738281 1.265625 L 24.765625 1.066406 L 24.78125 0.863281 L 24.785156 0.660156 Z M 25.132812 0.671875 Z M 24.460938 0.351562 L 24.460938 0.00390625 L 24.492188 0.00390625 L 24.5625 0.0117188 L 24.59375 0.015625 L 24.628906 0.0234375 L 24.660156 0.0351562 L 24.691406 0.0429688 L 24.722656 0.0585938 L 24.753906 0.0703125 L 24.835938 0.117188 L 24.863281 0.136719 L 24.886719 0.160156 L 24.933594 0.199219 L 24.957031 0.222656 L 24.976562 0.246094 L 25 0.273438 L 25.015625 0.296875 L 25.035156 0.324219 L 25.050781 0.351562 L 25.066406 0.382812 L 25.078125 0.414062 L 25.089844 0.441406 L 25.113281 0.503906 L 25.121094 0.539062 L 25.128906 0.601562 L 25.132812 0.636719 L 25.132812 0.671875 L 24.78125 0.671875 L 24.78125 0.640625 L 24.777344 0.621094 L 24.773438 0.605469 L 24.769531 0.59375 L 24.761719 0.5625 L 24.753906 0.546875 L 24.746094 0.535156 L 24.738281 0.519531 L 24.730469 0.507812 L 24.722656 0.492188 L 24.707031 0.46875 L 24.695312 0.457031 L 24.6875 0.445312 L 24.671875 0.433594 L 24.660156 0.421875 L 24.625 0.398438 L 24.609375 0.390625 L 24.597656 0.382812 L 24.582031 0.375 L 24.535156 0.363281 L 24.519531 0.355469 L 24.507812 0.355469 L 24.488281 0.351562 L 24.472656 0.347656 L 24.457031 0.347656 Z M 24.460938 0.351562 "/>
<path style=" stroke:none;fill-rule:nonzero;fill:rgb(0%,0%,0%);fill-opacity:1;" d="M 13.558594 22.242188 L 14.972656 24.429688 L 16.21875 24.429688 L 14.25 21.488281 Z M 13.558594 22.242188 "/>
<path style=" stroke:none;fill-rule:nonzero;fill:rgb(0%,0%,0%);fill-opacity:1;" d="M 14.824219 24.523438 L 13.410156 22.339844 L 13.703125 22.148438 L 15.121094 24.335938 L 14.96875 24.605469 L 14.820312 24.523438 Z M 14.972656 24.605469 L 14.875 24.605469 L 14.824219 24.523438 Z M 16.222656 24.605469 L 14.972656 24.605469 L 14.972656 24.253906 L 16.222656 24.253906 L 16.367188 24.332031 Z M 16.367188 24.332031 L 16.550781 24.605469 L 16.222656 24.605469 Z M 14.398438 21.390625 L 16.367188 24.332031 L 16.074219 24.523438 L 14.105469 21.585938 L 14.121094 21.371094 Z M 14.121094 21.371094 L 14.273438 21.203125 L 14.398438 21.390625 Z M 13.429688 22.125 L 14.121094 21.371094 L 14.382812 21.605469 L 13.6875 22.359375 L 13.410156 22.339844 Z M 13.410156 22.339844 L 13.335938 22.222656 L 13.429688 22.125 Z M 13.410156 22.339844 "/>
</g>
</svg>
