<?xml version="1.0" encoding="UTF-8"?>
<svg xmlns="http://www.w3.org/2000/svg" xmlns:xlink="http://www.w3.org/1999/xlink" width="28px" height="28px" viewBox="0 0 28 28" version="1.1">
<g id="surface1">
<path style="fill-rule:nonzero;fill:rgb(0%,0%,0%);fill-opacity:1;stroke-width:2.1;stroke-linecap:butt;stroke-linejoin:miter;stroke:rgb(0%,0%,0%);stroke-opacity:1;stroke-miterlimit:22.9256;" d="M 123.401894 146.240148 C 124.614219 146.240148 125.79835 145.70447 126.58777 144.774081 C 127.405384 143.871887 127.771901 142.631369 127.602739 141.419044 C 125.516414 126.279087 118.016919 112.351454 106.485741 102.201761 C 99.606505 96.168333 91.599526 91.74194 83.000481 89.119936 C 90.556363 84.862704 95.659403 76.799337 95.659403 67.55184 L 95.659403 64.084029 C 95.659403 61.743961 93.742238 59.798603 91.402171 59.798603 L 67.324845 59.798603 L 67.324845 4.031683 C 67.324845 2.368262 65.999747 1.043163 64.336325 1.043163 C 62.701097 1.043163 61.375998 2.368262 61.375998 4.031683 L 61.375998 59.798603 L 37.298673 59.798603 C 34.958605 59.798603 33.041441 61.715767 33.041441 64.084029 L 33.041441 67.55184 C 33.041441 76.799337 38.172674 84.862704 45.700362 89.119936 C 37.101317 91.74194 29.094338 96.168333 22.243296 102.201761 C 10.683924 112.351454 3.184429 126.279087 1.098104 141.419044 C 0.928942 142.631369 1.323653 143.871887 2.113073 144.774081 C 2.930687 145.70447 4.086624 146.240148 5.298949 146.240148 L 10.909473 146.240148 C 10.796699 147.537053 10.740311 148.862152 10.740311 150.159057 C 10.740311 179.734132 34.789443 203.783264 64.364518 203.783264 C 74.937114 203.783264 85.171387 200.710163 93.939594 194.902283 C 95.321079 194.000088 95.687596 192.139312 94.785401 190.786019 C 93.883206 189.404533 92.050623 189.038017 90.669137 189.940212 C 82.859513 195.099638 73.781177 197.834417 64.392712 197.834417 C 38.088093 197.834417 16.717352 176.463676 16.717352 150.159057 C 16.717352 148.862152 16.773739 147.537053 16.886514 146.240148 L 111.89891 146.240148 C 112.011684 147.537053 112.068072 148.862152 112.068072 150.159057 C 112.068072 161.859397 107.782646 173.108639 100.001215 181.848651 C 98.901665 183.089169 99.01444 184.949946 100.226764 186.049496 C 100.818829 186.556981 101.523669 186.810723 102.228509 186.810723 C 103.046123 186.810723 103.863737 186.4724 104.427609 185.823947 C 113.195815 175.984385 117.988725 163.325463 117.988725 150.159057 C 117.988725 148.862152 117.960532 147.537053 117.847757 146.240148 L 123.430088 146.240148 Z M 57.767218 86.328771 C 47.420171 86.328771 38.990288 77.898887 38.990288 67.55184 L 38.990288 65.74745 L 89.710555 65.74745 L 89.710555 67.55184 C 89.710555 77.898887 81.280672 86.328771 70.933625 86.328771 Z M 26.134011 106.656349 C 36.706607 97.380658 50.267724 92.249424 64.336325 92.249424 C 78.433119 92.249424 91.994236 97.380658 102.566832 106.656349 C 112.519169 115.424555 119.172856 127.294056 121.40015 140.291301 L 7.300693 140.291301 C 9.527987 127.294056 16.181674 115.424555 26.134011 106.656349 Z M 26.134011 106.656349 " transform="matrix(0.138551,0,0,0.138551,0.00020037,0)"/>
<path style="fill-rule:nonzero;fill:rgb(0%,0%,0%);fill-opacity:1;stroke-width:2.1;stroke-linecap:butt;stroke-linejoin:miter;stroke:rgb(0%,0%,0%);stroke-opacity:1;stroke-miterlimit:22.9256;" d="M 203.105172 119.738174 C 201.864654 110.772613 198.453229 102.145374 193.181028 94.758654 C 192.222446 93.433555 190.361669 93.123426 189.036571 94.082008 C 187.683278 95.012396 187.373149 96.873173 188.331731 98.226465 C 192.617156 104.2317 195.54929 111.195516 196.874388 118.441269 L 131.183325 118.441269 C 129.519903 118.441269 128.194805 119.766368 128.194805 121.401596 C 128.194805 123.036824 129.519903 124.361923 131.183325 124.361923 L 188.557279 124.361923 C 188.64186 125.405085 188.670054 126.448248 188.670054 127.463218 C 188.670054 150.356412 170.062285 168.964181 147.16909 168.964181 C 139.838757 168.964181 132.649392 167.018823 126.334028 163.353657 C 124.924348 162.536043 123.091765 163.015334 122.274151 164.425013 C 121.428343 165.862886 121.907634 167.667276 123.317314 168.513084 C 130.534873 172.713928 138.767401 174.913028 147.16909 174.913028 C 173.332741 174.913028 194.618901 153.626868 194.618901 127.491411 C 194.618901 126.448248 194.562514 125.433279 194.506127 124.390116 L 199.017101 124.390116 C 200.201232 124.390116 201.328975 123.882632 202.090202 122.980437 C 202.879623 122.078242 203.217946 120.922305 203.076978 119.738174 Z M 203.105172 119.738174 " transform="matrix(0.138551,0,0,0.138551,0.00020037,0)"/>
<path style="fill-rule:nonzero;fill:rgb(0%,0%,0%);fill-opacity:1;stroke-width:2.1;stroke-linecap:butt;stroke-linejoin:miter;stroke:rgb(0%,0%,0%);stroke-opacity:1;stroke-miterlimit:22.9256;" d="M 107.557097 94.589492 C 108.346518 94.589492 109.164132 94.279363 109.756197 93.63091 C 119.313824 83.058314 132.959521 76.996693 147.197284 76.996693 C 159.348721 76.996693 171.077254 81.366699 180.240171 89.317291 C 181.480689 90.388648 183.369659 90.24768 184.441015 89.007162 C 185.512372 87.766644 185.371404 85.877673 184.130886 84.806317 C 178.012877 79.505922 170.851705 75.6434 163.211243 73.35972 C 170.287834 69.017907 175.05255 61.180089 175.05255 52.270915 L 175.05255 52.017172 C 175.05255 49.677104 173.135386 47.75994 170.767125 47.75994 L 150.157611 47.75994 L 150.157611 4.031683 C 150.157611 2.368262 148.832512 1.043163 147.197284 1.043163 C 145.562056 1.043163 144.208763 2.368262 144.208763 4.031683 L 144.208763 47.75994 L 123.59925 47.75994 C 121.259182 47.75994 119.342018 49.677104 119.342018 52.017172 L 119.342018 52.270915 C 119.342018 61.180089 124.078541 69.017907 131.183325 73.35972 C 121.343762 76.291853 112.350007 81.874184 105.329804 89.627421 C 104.230254 90.839745 104.314834 92.728715 105.527159 93.828265 C 106.119224 94.33575 106.824064 94.589492 107.528904 94.589492 Z M 144.067795 71.047845 C 134.200039 71.047845 126.080285 63.407382 125.347252 53.708788 L 169.047316 53.708788 C 168.314282 63.407382 160.194529 71.047845 150.326772 71.047845 Z M 144.067795 71.047845 " transform="matrix(0.138551,0,0,0.138551,0.00020037,0)"/>
</g>
</svg>
