<?xml version="1.0" encoding="UTF-8"?>
<svg xmlns="http://www.w3.org/2000/svg" xmlns:xlink="http://www.w3.org/1999/xlink" width="28px" height="28px" viewBox="0 0 28 28" version="1.1">
<g id="surface1">
<path style="fill-rule:nonzero;fill:rgb(0%,0%,0%);fill-opacity:1;stroke-width:2.1;stroke-linecap:butt;stroke-linejoin:miter;stroke:rgb(0%,0%,0%);stroke-opacity:1;stroke-miterlimit:22.9256;" d="M 123.40155 146.239739 C 124.613871 146.239739 125.797998 145.704063 126.587416 144.773677 C 127.405028 143.871485 127.771544 142.63097 127.602383 141.418649 C 125.516063 126.278734 118.016589 112.35114 106.485443 102.201476 C 99.606227 96.168065 91.59927 91.741683 83.000249 89.119687 C 90.55611 84.862467 95.659135 76.799123 95.659135 67.551651 L 95.659135 64.08385 C 95.659135 61.743788 93.741977 59.798436 91.401915 59.798436 L 67.324657 59.798436 L 67.324657 4.031672 C 67.324657 2.368255 65.999562 1.04316 64.336145 1.04316 C 62.700921 1.04316 61.375826 2.368255 61.375826 4.031672 L 61.375826 59.798436 L 37.298568 59.798436 C 34.958507 59.798436 33.041348 61.715595 33.041348 64.08385 L 33.041348 67.551651 C 33.041348 76.799123 38.172567 84.862467 45.700234 89.119687 C 37.101214 91.741683 29.094257 96.168065 22.243234 102.201476 C 10.683894 112.35114 3.184421 126.278734 1.098101 141.418649 C 0.92894 142.63097 1.323649 143.871485 2.113067 144.773677 C 2.930679 145.704063 4.086613 146.239739 5.298934 146.239739 L 10.909442 146.239739 C 10.796668 147.536641 10.740281 148.861736 10.740281 150.158637 C 10.740281 179.73363 34.789346 203.782695 64.364338 203.782695 C 74.936905 203.782695 85.171149 200.709602 93.939331 194.901739 C 95.320813 193.999546 95.687329 192.138775 94.785136 190.785486 C 93.882944 189.404004 92.050366 189.037488 90.668884 189.939681 C 82.859281 195.099093 73.780971 197.833864 64.392532 197.833864 C 38.087987 197.833864 16.717306 176.463183 16.717306 150.158637 C 16.717306 148.861736 16.773693 147.536641 16.886467 146.239739 L 111.898597 146.239739 C 112.011371 147.536641 112.067758 148.861736 112.067758 150.158637 C 112.067758 161.858944 107.782345 173.108155 100.000936 181.848143 C 98.901389 183.088658 99.014163 184.949429 100.226484 186.048976 C 100.818548 186.55646 101.523385 186.810201 102.228223 186.810201 C 103.045835 186.810201 103.863447 186.471879 104.427317 185.823428 C 113.195499 175.983893 117.988396 163.325007 117.988396 150.158637 C 117.988396 148.861736 117.960202 147.536641 117.847428 146.239739 L 123.429743 146.239739 Z M 57.767057 86.328529 C 47.420039 86.328529 38.990179 77.89867 38.990179 67.551651 L 38.990179 65.747267 L 89.710305 65.747267 L 89.710305 67.551651 C 89.710305 77.89867 81.280445 86.328529 70.933426 86.328529 Z M 26.133938 106.656051 C 36.706505 97.380386 50.267583 92.249167 64.336145 92.249167 C 78.4329 92.249167 91.993979 97.380386 102.566545 106.656051 C 112.518855 115.424232 119.172523 127.2937 121.39981 140.290909 L 7.300673 140.290909 C 9.52796 127.2937 16.181629 115.424232 26.133938 106.656051 Z M 26.133938 106.656051 " transform="matrix(0.138551,0,0,0.138551,0.00020037,0)"/>
<path style="fill-rule:nonzero;fill:rgb(0%,0%,0%);fill-opacity:1;stroke-width:2.1;stroke-linecap:butt;stroke-linejoin:miter;stroke:rgb(0%,0%,0%);stroke-opacity:1;stroke-miterlimit:22.9256;" d="M 203.104604 119.737839 C 201.86409 110.772303 198.452675 102.145089 193.180488 94.758389 C 192.221909 93.433294 190.361137 93.123165 189.036042 94.081745 C 187.682754 95.012131 187.372625 96.872902 188.331205 98.226191 C 192.616618 104.231409 195.548743 111.195206 196.873838 118.440938 L 131.182959 118.440938 C 129.519541 118.440938 128.194446 119.766033 128.194446 121.401257 C 128.194446 123.03648 129.519541 124.361575 131.182959 124.361575 L 188.556753 124.361575 C 188.641333 125.404735 188.669527 126.447895 188.669527 127.462861 C 188.669527 150.355992 170.06181 168.963709 147.168679 168.963709 C 139.838366 168.963709 132.649021 167.018357 126.333675 163.3532 C 124.923999 162.535589 123.091421 163.014878 122.273809 164.424554 C 121.428004 165.862423 121.907294 167.666807 123.316969 168.512613 C 130.534508 172.713446 138.767013 174.91254 147.168679 174.91254 C 173.332257 174.91254 194.618357 153.626439 194.618357 127.491055 C 194.618357 126.447895 194.56197 125.432929 194.505583 124.389769 L 199.016545 124.389769 C 200.200672 124.389769 201.328413 123.882286 202.089638 122.980093 C 202.879056 122.077901 203.217378 120.921967 203.076411 119.737839 Z M 203.104604 119.737839 " transform="matrix(0.138551,0,0,0.138551,0.00020037,0)"/>
<path style="fill-rule:nonzero;fill:rgb(0%,0%,0%);fill-opacity:1;stroke-width:2.1;stroke-linecap:butt;stroke-linejoin:miter;stroke:rgb(0%,0%,0%);stroke-opacity:1;stroke-miterlimit:22.9256;" d="M 107.556797 94.589228 C 108.346215 94.589228 109.163827 94.279099 109.755891 93.630649 C 119.313491 83.058082 132.95915 76.996477 147.196873 76.996477 C 159.348276 76.996477 171.076776 81.366472 180.239667 89.317042 C 181.480181 90.388395 183.369147 90.247427 184.4405 89.006913 C 185.511853 87.766398 185.370886 85.877433 184.130371 84.80608 C 178.01238 79.5057 170.851228 75.643189 163.210787 73.359515 C 170.287358 69.017714 175.052061 61.179918 175.052061 52.270769 L 175.052061 52.017027 C 175.052061 49.676966 173.134902 47.759807 170.766647 47.759807 L 150.157191 47.759807 L 150.157191 4.031672 C 150.157191 2.368255 148.832096 1.04316 147.196873 1.04316 C 145.561649 1.04316 144.20836 2.368255 144.20836 4.031672 L 144.20836 47.759807 L 123.598904 47.759807 C 121.258843 47.759807 119.341684 49.676966 119.341684 52.017027 L 119.341684 52.270769 C 119.341684 61.179918 124.078194 69.017714 131.182959 73.359515 C 121.343423 76.29164 112.349694 81.873955 105.329509 89.62717 C 104.229962 90.839491 104.314543 92.728456 105.526864 93.828003 C 106.118928 94.335486 106.823765 94.589228 107.528603 94.589228 Z M 144.067393 71.047647 C 134.199664 71.047647 126.079933 63.407205 125.346902 53.708638 L 169.046843 53.708638 C 168.313812 63.407205 160.194081 71.047647 150.326352 71.047647 Z M 144.067393 71.047647 " transform="matrix(0.138551,0,0,0.138551,0.00020037,0)"/>
</g>
</svg>
