<?xml version="1.0" encoding="UTF-8"?>
<svg xmlns="http://www.w3.org/2000/svg" xmlns:xlink="http://www.w3.org/1999/xlink" width="28px" height="28px" viewBox="0 0 28 34" version="1.1">
<g id="surface1">
<path style=" stroke:none;fill-rule:nonzero;fill:rgb(0%,0%,0%);fill-opacity:1;" d="M 4.5 0 C 4.207031 0 3.972656 0.230469 3.972656 0.515625 L 3.972656 8.824219 C 2.976562 9.058594 2.230469 9.933594 2.230469 10.976562 L 2.230469 13.613281 C 0.851562 14.402344 0.00390625 15.820312 0.00390625 17.394531 C 0.00390625 19.820312 2.023438 21.792969 4.5 21.792969 C 6.980469 21.792969 8.992188 19.820312 8.992188 17.394531 C 8.992188 15.816406 8.140625 14.398438 6.765625 13.609375 L 6.765625 10.972656 C 6.765625 10.378906 6.527344 9.824219 6.101562 9.410156 C 5.804688 9.113281 5.433594 8.914062 5.023438 8.820312 L 5.023438 0.511719 C 5.023438 0.226562 4.785156 -0.00390625 4.5 -0.00390625 Z M 7.941406 17.398438 C 7.941406 19.253906 6.398438 20.765625 4.5 20.765625 C 2.601562 20.765625 1.054688 19.257812 1.054688 17.398438 C 1.054688 16.105469 1.796875 14.941406 2.992188 14.371094 C 5.167969 13.304688 7.9375 14.832031 7.9375 17.398438 Z M 5.714844 10.976562 L 5.714844 13.164062 C 4.96875 12.960938 4 12.96875 3.289062 13.164062 L 3.289062 10.976562 C 3.289062 10.324219 3.832031 9.789062 4.503906 9.789062 C 4.828125 9.789062 5.132812 9.910156 5.359375 10.140625 C 5.589844 10.363281 5.714844 10.660156 5.714844 10.976562 Z M 5.714844 10.976562 "/>
<path style=" stroke:none;fill-rule:nonzero;fill:rgb(0%,0%,0%);fill-opacity:1;" d="M 23.90625 0 C 23.613281 0 23.378906 0.230469 23.378906 0.515625 L 23.378906 8.824219 C 22.382812 9.058594 21.640625 9.933594 21.640625 10.976562 L 21.640625 13.613281 C 20.261719 14.402344 19.414062 15.820312 19.414062 17.394531 C 19.414062 19.820312 21.429688 21.792969 23.90625 21.792969 C 26.386719 21.792969 28.398438 19.820312 28.398438 17.394531 C 28.398438 15.816406 27.546875 14.398438 26.171875 13.609375 L 26.171875 10.972656 C 26.171875 9.933594 25.445312 9.054688 24.433594 8.820312 L 24.433594 0.511719 C 24.433594 0.226562 24.195312 -0.00390625 23.90625 -0.00390625 Z M 27.347656 17.398438 C 27.347656 19.253906 25.808594 20.765625 23.90625 20.765625 C 22.011719 20.765625 20.464844 19.257812 20.464844 17.398438 C 20.464844 14.921875 23.101562 13.320312 25.335938 14.339844 C 26.652344 14.941406 27.347656 16.148438 27.347656 17.398438 Z M 25.121094 10.976562 L 25.121094 13.164062 C 24.351562 12.953125 23.402344 12.96875 22.695312 13.164062 L 22.695312 10.976562 C 22.695312 10.324219 23.242188 9.789062 23.910156 9.789062 C 24.597656 9.789062 25.125 10.335938 25.125 10.976562 Z M 25.121094 10.976562 "/>
<path style=" stroke:none;fill-rule:nonzero;fill:rgb(0%,0%,0%);fill-opacity:1;" d="M 14.5 0 C 14.207031 0 13.972656 0.230469 13.972656 0.515625 L 13.972656 21.027344 C 12.976562 21.257812 12.230469 22.132812 12.230469 23.179688 L 12.230469 25.8125 C 10.851562 26.601562 10.003906 28.019531 10.003906 29.597656 C 10.003906 32.023438 12.023438 33.992188 14.5 33.992188 C 16.980469 33.992188 18.992188 32.019531 18.992188 29.597656 C 18.992188 28.015625 18.140625 26.597656 16.765625 25.8125 L 16.765625 23.179688 C 16.765625 22.160156 16.058594 21.265625 15.023438 21.027344 L 15.023438 0.515625 C 15.023438 0.230469 14.789062 0 14.5 0 Z M 17.941406 29.601562 C 17.941406 31.457031 16.398438 32.96875 14.5 32.96875 C 12.601562 32.96875 11.054688 31.460938 11.054688 29.601562 C 11.054688 28.304688 11.796875 27.148438 12.992188 26.570312 C 15.183594 25.5 17.9375 27.054688 17.9375 29.601562 Z M 15.714844 23.179688 L 15.714844 25.363281 C 15.023438 25.175781 14.035156 25.160156 13.289062 25.363281 L 13.289062 23.179688 C 13.289062 22.523438 13.832031 21.988281 14.503906 21.988281 C 15.199219 21.988281 15.71875 22.546875 15.71875 23.179688 Z M 15.714844 23.179688 "/>
</g>
</svg>
