<?xml version="1.0" encoding="UTF-8"?>
<svg xmlns="http://www.w3.org/2000/svg" xmlns:xlink="http://www.w3.org/1999/xlink" width="28px" height="28px" viewBox="0 0 28 28" version="1.1">
<g id="surface1">
<path style=" stroke:none;fill-rule:nonzero;fill:rgb(0%,0%,0%);fill-opacity:1;" d="M 6.175781 0 C 5.933594 0 5.742188 0.191406 5.742188 0.425781 L 5.742188 7.265625 C 4.921875 7.460938 4.308594 8.179688 4.308594 9.039062 L 4.308594 11.210938 C 3.171875 11.859375 2.472656 13.027344 2.472656 14.324219 C 2.472656 16.324219 4.136719 17.945312 6.175781 17.945312 C 8.21875 17.945312 9.875 16.324219 9.875 14.324219 C 9.875 13.023438 9.175781 11.859375 8.042969 11.207031 L 8.042969 9.035156 C 8.042969 8.546875 7.847656 8.089844 7.496094 7.75 C 7.25 7.503906 6.945312 7.339844 6.609375 7.265625 L 6.609375 0.421875 C 6.609375 0.1875 6.410156 -0.00390625 6.175781 -0.00390625 Z M 9.011719 14.328125 C 9.011719 15.855469 7.738281 17.101562 6.175781 17.101562 C 4.613281 17.101562 3.339844 15.859375 3.339844 14.328125 C 3.339844 13.261719 3.949219 12.304688 4.933594 11.835938 C 6.726562 10.957031 9.007812 12.214844 9.007812 14.328125 Z M 7.175781 9.039062 L 7.175781 10.839844 C 6.5625 10.671875 5.765625 10.679688 5.179688 10.839844 L 5.179688 9.039062 C 5.179688 8.503906 5.625 8.0625 6.179688 8.0625 C 6.445312 8.0625 6.699219 8.160156 6.882812 8.351562 C 7.074219 8.535156 7.175781 8.777344 7.175781 9.039062 Z M 7.175781 9.039062 "/>
<path style=" stroke:none;fill-rule:nonzero;fill:rgb(0%,0%,0%);fill-opacity:1;" d="M 22.15625 0 C 21.917969 0 21.722656 0.191406 21.722656 0.425781 L 21.722656 7.265625 C 20.902344 7.460938 20.292969 8.179688 20.292969 9.039062 L 20.292969 11.210938 C 19.15625 11.859375 18.457031 13.027344 18.457031 14.324219 C 18.457031 16.324219 20.117188 17.945312 22.15625 17.945312 C 24.199219 17.945312 25.859375 16.324219 25.859375 14.324219 C 25.859375 13.023438 25.15625 11.859375 24.023438 11.207031 L 24.023438 9.035156 C 24.023438 8.179688 23.425781 7.457031 22.59375 7.265625 L 22.59375 0.421875 C 22.59375 0.1875 22.394531 -0.00390625 22.15625 -0.00390625 Z M 24.992188 14.328125 C 24.992188 15.855469 23.726562 17.101562 22.15625 17.101562 C 20.597656 17.101562 19.324219 15.859375 19.324219 14.328125 C 19.324219 12.289062 21.496094 10.96875 23.335938 11.808594 C 24.417969 12.304688 24.992188 13.296875 24.992188 14.328125 Z M 23.160156 9.039062 L 23.160156 10.839844 C 22.523438 10.667969 21.742188 10.679688 21.160156 10.839844 L 21.160156 9.039062 C 21.160156 8.503906 21.609375 8.0625 22.160156 8.0625 C 22.726562 8.0625 23.160156 8.511719 23.160156 9.039062 Z M 23.160156 9.039062 "/>
<path style=" stroke:none;fill-rule:nonzero;fill:rgb(0%,0%,0%);fill-opacity:1;" d="M 14.410156 0 C 14.171875 0 13.976562 0.191406 13.976562 0.425781 L 13.976562 17.316406 C 13.15625 17.507812 12.542969 18.226562 12.542969 19.089844 L 12.542969 21.257812 C 11.40625 21.90625 10.710938 23.074219 10.710938 24.375 C 10.710938 26.371094 12.371094 27.992188 14.410156 27.992188 C 16.453125 27.992188 18.109375 26.367188 18.109375 24.375 C 18.109375 23.070312 17.410156 21.902344 16.277344 21.257812 L 16.277344 19.089844 C 16.277344 18.25 15.695312 17.511719 14.84375 17.316406 L 14.84375 0.425781 C 14.84375 0.191406 14.648438 0 14.410156 0 Z M 17.246094 24.378906 C 17.246094 25.90625 15.976562 27.152344 14.410156 27.152344 C 12.847656 27.152344 11.574219 25.910156 11.574219 24.378906 C 11.574219 23.308594 12.1875 22.359375 13.171875 21.882812 C 14.976562 21 17.242188 22.28125 17.242188 24.378906 Z M 15.414062 19.089844 L 15.414062 20.886719 C 14.84375 20.734375 14.027344 20.71875 13.414062 20.886719 L 13.414062 19.089844 C 13.414062 18.546875 13.863281 18.109375 14.414062 18.109375 C 14.988281 18.109375 15.414062 18.566406 15.414062 19.089844 Z M 15.414062 19.089844 "/>
</g>
</svg>
