<?xml version="1.0" encoding="UTF-8"?>
<svg xmlns="http://www.w3.org/2000/svg" xmlns:xlink="http://www.w3.org/1999/xlink" width="28px" height="28px" viewBox="0 0 28 28" version="1.1">
<g id="surface1">
<path style=" stroke:none;fill-rule:nonzero;fill:rgb(0%,0%,0%);fill-opacity:1;" d="M 14.136719 23.484375 C 9.566406 23.484375 0.933594 22.886719 0.933594 20.621094 C 0.933594 18.359375 9.566406 17.757812 14.136719 17.757812 C 18.699219 17.757812 27.332031 18.355469 27.332031 20.621094 C 27.332031 22.882812 18.699219 23.484375 14.136719 23.484375 Z M 14.136719 18.65625 C 6.183594 18.65625 1.847656 19.953125 1.847656 20.621094 C 1.847656 21.289062 6.183594 22.585938 14.136719 22.585938 C 22.082031 22.585938 26.417969 21.289062 26.417969 20.621094 C 26.417969 19.953125 22.082031 18.65625 14.136719 18.65625 Z M 14.136719 18.65625 "/>
<path style=" stroke:none;fill-rule:nonzero;fill:rgb(0%,0%,0%);fill-opacity:1;" d="M 26.875 21.070312 C 26.660156 21.070312 26.476562 20.925781 26.429688 20.722656 L 26.378906 20.503906 C 25.921875 19.8125 21.632812 18.65625 14.136719 18.65625 C 6.632812 18.65625 2.351562 19.8125 1.886719 20.503906 L 1.835938 20.722656 C 1.789062 20.925781 1.609375 21.070312 1.394531 21.070312 C 1.140625 21.070312 0.9375 20.867188 0.9375 20.621094 C 0.9375 20.503906 0.960938 20.382812 1.007812 20.273438 L 1.957031 16.324219 C 3.289062 10.777344 8.332031 6.855469 14.136719 6.855469 C 19.933594 6.855469 24.980469 10.777344 26.308594 16.324219 L 27.261719 20.277344 C 27.308594 20.390625 27.332031 20.507812 27.332031 20.625 C 27.332031 20.855469 27.15625 21.042969 26.929688 21.074219 C 26.914062 21.074219 26.890625 21.078125 26.878906 21.078125 Z M 14.1875 17.753906 C 17.691406 17.753906 23.582031 18.109375 26.136719 19.292969 L 25.46875 16.523438 C 24.234375 11.382812 19.558594 7.746094 14.183594 7.746094 C 8.804688 7.746094 4.128906 11.382812 2.894531 16.523438 L 2.226562 19.292969 C 4.78125 18.109375 10.679688 17.753906 14.179688 17.753906 Z M 14.1875 17.753906 "/>
<path style=" stroke:none;fill-rule:nonzero;fill:rgb(0%,0%,0%);fill-opacity:1;" d="M 17.253906 8.144531 C 17.003906 8.144531 16.800781 7.945312 16.800781 7.695312 L 16.800781 5.960938 C 16.800781 5.644531 16.578125 5.367188 16.261719 5.292969 C 15.5625 5.136719 14.847656 5.058594 14.136719 5.058594 C 13.417969 5.058594 12.703125 5.136719 12.003906 5.292969 C 11.691406 5.363281 11.464844 5.640625 11.464844 5.957031 L 11.464844 7.691406 C 11.464844 7.941406 11.261719 8.140625 11.011719 8.140625 C 10.757812 8.140625 10.554688 7.941406 10.554688 7.691406 L 10.554688 5.957031 C 10.558594 5.222656 11.078125 4.582031 11.804688 4.417969 C 12.570312 4.246094 13.355469 4.160156 14.136719 4.160156 C 14.921875 4.160156 15.707031 4.242188 16.46875 4.417969 C 17.199219 4.585938 17.714844 5.222656 17.71875 5.957031 L 17.71875 7.691406 C 17.71875 7.941406 17.515625 8.140625 17.261719 8.140625 Z M 17.253906 8.144531 "/>
<path style=" stroke:none;fill-rule:nonzero;fill:rgb(0%,0%,0%);fill-opacity:1;" d="M 14.136719 21.574219 C 12.257812 21.574219 10.679688 20.199219 10.460938 18.367188 C 10.460938 18.347656 10.457031 18.332031 10.457031 18.316406 C 10.457031 18.070312 10.660156 17.867188 10.910156 17.867188 C 11.140625 17.867188 11.339844 18.035156 11.367188 18.265625 C 11.535156 19.644531 12.726562 20.679688 14.136719 20.679688 C 15.550781 20.679688 16.742188 19.644531 16.910156 18.265625 C 16.933594 18.035156 17.132812 17.867188 17.363281 17.867188 C 17.617188 17.867188 17.820312 18.070312 17.820312 18.316406 C 17.820312 18.332031 17.820312 18.347656 17.816406 18.367188 C 17.589844 20.199219 16.011719 21.574219 14.136719 21.574219 Z M 14.136719 21.574219 "/>
<path style=" stroke:none;fill-rule:nonzero;fill:rgb(0%,0%,0%);fill-opacity:1;" d="M 8.738281 26.835938 C 8.488281 26.835938 8.285156 26.636719 8.285156 26.386719 C 8.285156 26.273438 8.332031 26.160156 8.414062 26.074219 L 10.300781 24.179688 C 10.386719 24.085938 10.507812 24.035156 10.636719 24.035156 C 10.886719 24.035156 11.089844 24.234375 11.089844 24.480469 C 11.089844 24.601562 11.039062 24.71875 10.953125 24.800781 L 9.070312 26.699219 C 8.988281 26.785156 8.867188 26.832031 8.742188 26.832031 Z M 8.738281 26.835938 "/>
<path style=" stroke:none;fill-rule:nonzero;fill:rgb(0%,0%,0%);fill-opacity:1;" d="M 14.136719 28 C 13.882812 28 13.679688 27.800781 13.679688 27.550781 L 13.679688 25.09375 C 13.679688 24.847656 13.882812 24.644531 14.136719 24.644531 C 14.386719 24.644531 14.589844 24.847656 14.589844 25.09375 L 14.589844 27.550781 C 14.589844 27.800781 14.386719 28 14.136719 28 Z M 14.136719 28 "/>
<path style=" stroke:none;fill-rule:nonzero;fill:rgb(0%,0%,0%);fill-opacity:1;" d="M 19.523438 26.835938 C 19.398438 26.835938 19.28125 26.789062 19.195312 26.707031 L 17.316406 24.804688 C 17.234375 24.726562 17.183594 24.609375 17.183594 24.492188 C 17.183594 24.246094 17.386719 24.042969 17.644531 24.042969 C 17.769531 24.042969 17.882812 24.089844 17.96875 24.179688 L 19.851562 26.074219 C 19.933594 26.160156 19.984375 26.273438 19.984375 26.386719 C 19.984375 26.636719 19.777344 26.835938 19.527344 26.835938 Z M 19.523438 26.835938 "/>
<path style=" stroke:none;fill-rule:nonzero;fill:rgb(0%,0%,0%);fill-opacity:1;" d="M 15.007812 5.089844 C 14.753906 5.089844 14.550781 4.890625 14.550781 4.640625 L 14.550781 0.902344 L 13.722656 0.902344 L 13.722656 4.640625 C 13.722656 4.890625 13.519531 5.089844 13.265625 5.089844 C 13.015625 5.089844 12.8125 4.890625 12.8125 4.640625 L 12.8125 0.453125 C 12.8125 0.203125 13.015625 0.00390625 13.265625 0.00390625 L 15.011719 0.00390625 C 15.261719 0.00390625 15.464844 0.203125 15.464844 0.453125 L 15.464844 4.640625 C 15.464844 4.890625 15.261719 5.089844 15.011719 5.089844 Z M 15.007812 5.089844 "/>
<path style=" stroke:none;fill-rule:nonzero;fill:rgb(0%,0%,0%);fill-opacity:1;" d="M 19.613281 0.902344 L 8.648438 0.902344 C 8.394531 0.902344 8.191406 0.699219 8.191406 0.453125 C 8.191406 0.203125 8.394531 0.00390625 8.648438 0.00390625 L 19.613281 0.00390625 C 19.867188 0.00390625 20.070312 0.203125 20.070312 0.453125 C 20.070312 0.699219 19.867188 0.902344 19.613281 0.902344 Z M 19.613281 0.902344 "/>
</g>
</svg>
