<?xml version="1.0" encoding="UTF-8"?>
<svg xmlns="http://www.w3.org/2000/svg" xmlns:xlink="http://www.w3.org/1999/xlink" width="28px" height="28px" viewBox="0 0 28 28" version="1.1">
<g id="surface1">
<path style=" stroke:none;fill-rule:nonzero;fill:rgb(0%,0%,0%);fill-opacity:1;" d="M 18.957031 12.675781 C 18.851562 12.519531 18.667969 12.414062 18.464844 12.414062 L 14.582031 12.414062 L 14.582031 3.84375 L 17.773438 3.84375 C 17.972656 3.84375 18.164062 3.742188 18.269531 3.570312 L 19.980469 0.882812 C 20.09375 0.707031 20.097656 0.476562 19.996094 0.296875 C 19.894531 0.109375 19.695312 0 19.488281 0 L 8.511719 0 C 8.296875 0 8.105469 0.117188 8.003906 0.296875 C 7.902344 0.476562 7.90625 0.707031 8.019531 0.882812 L 9.730469 3.570312 C 9.835938 3.738281 10.027344 3.84375 10.226562 3.84375 L 13.417969 3.84375 L 13.417969 12.414062 L 9.535156 12.414062 C 9.332031 12.414062 9.148438 12.511719 9.042969 12.675781 L 1.449219 24.101562 C 1.332031 24.277344 1.324219 24.503906 1.425781 24.691406 C 1.527344 24.878906 1.726562 24.992188 1.941406 24.992188 L 10.484375 24.992188 C 10.703125 26.710938 12.195312 28.054688 14 28.054688 C 15.804688 28.054688 17.296875 26.71875 17.515625 24.992188 L 26.058594 24.992188 C 26.273438 24.992188 26.472656 24.878906 26.574219 24.691406 C 26.675781 24.503906 26.667969 24.277344 26.550781 24.101562 Z M 9.570312 1.152344 L 18.429688 1.152344 L 17.453125 2.691406 L 10.546875 2.691406 Z M 14 26.898438 C 12.84375 26.898438 11.875 26.082031 11.667969 24.992188 L 16.332031 24.992188 C 16.125 26.074219 15.15625 26.898438 14 26.898438 Z M 3.019531 23.839844 L 9.84375 13.570312 L 18.152344 13.570312 L 24.972656 23.839844 L 3.015625 23.839844 Z M 3.019531 23.839844 "/>
</g>
</svg>
