<?xml version="1.0" encoding="UTF-8"?>
<svg xmlns="http://www.w3.org/2000/svg" xmlns:xlink="http://www.w3.org/1999/xlink" width="28px" height="28px" viewBox="0 0 28 31" version="1.1">
<g id="surface1">
<path style=" stroke:none;fill-rule:nonzero;fill:rgb(0%,0%,0%);fill-opacity:1;" d="M 19.488281 14.035156 C 19.371094 13.859375 19.167969 13.746094 18.945312 13.746094 L 14.644531 13.746094 L 14.644531 4.253906 L 18.179688 4.253906 C 18.398438 4.253906 18.609375 4.144531 18.726562 3.953125 L 20.621094 0.976562 C 20.746094 0.78125 20.75 0.527344 20.640625 0.328125 C 20.527344 0.121094 20.304688 0 20.074219 0 L 7.925781 0 C 7.6875 0 7.472656 0.128906 7.359375 0.328125 C 7.25 0.527344 7.253906 0.78125 7.378906 0.976562 L 9.273438 3.953125 C 9.390625 4.136719 9.601562 4.253906 9.820312 4.253906 L 13.355469 4.253906 L 13.355469 13.746094 L 9.054688 13.746094 C 8.832031 13.746094 8.628906 13.851562 8.511719 14.035156 L 0.105469 26.683594 C -0.0234375 26.878906 -0.0351562 27.128906 0.078125 27.335938 C 0.191406 27.542969 0.410156 27.671875 0.648438 27.671875 L 10.109375 27.671875 C 10.351562 29.574219 12.003906 31.058594 14 31.058594 C 15.996094 31.058594 17.648438 29.582031 17.890625 27.671875 L 27.351562 27.671875 C 27.589844 27.671875 27.808594 27.542969 27.921875 27.335938 C 28.035156 27.128906 28.023438 26.878906 27.894531 26.683594 Z M 9.09375 1.277344 L 18.90625 1.277344 L 17.824219 2.980469 L 10.175781 2.980469 Z M 14 29.78125 C 12.71875 29.78125 11.648438 28.875 11.417969 27.671875 L 16.582031 27.671875 C 16.351562 28.867188 15.28125 29.78125 14 29.78125 Z M 1.84375 26.394531 L 9.398438 15.023438 L 18.597656 15.023438 L 26.148438 26.394531 L 1.839844 26.394531 Z M 1.84375 26.394531 "/>
</g>
</svg>
