<?xml version="1.0" encoding="UTF-8"?>
<svg xmlns="http://www.w3.org/2000/svg" xmlns:xlink="http://www.w3.org/1999/xlink" width="28px" height="28px" viewBox="0 0 28 28" version="1.1">
<g id="surface1">
<path style=" stroke:none;fill-rule:nonzero;fill:rgb(0%,0%,0%);fill-opacity:1;" d="M 26.589844 12.128906 L 22.859375 12.128906 C 22.632812 12.128906 22.441406 12.289062 22.398438 12.515625 L 21.464844 17.644531 C 21.441406 17.78125 21.476562 17.921875 21.566406 18.023438 C 21.652344 18.128906 21.785156 18.191406 21.925781 18.191406 L 24.246094 18.191406 C 24.121094 20.851562 21.898438 22.921875 19.238281 22.859375 C 16.582031 22.796875 14.457031 20.621094 14.457031 17.960938 L 14.457031 13.332031 C 15.433594 14.390625 16.960938 14.746094 18.300781 14.21875 C 19.640625 13.691406 20.527344 12.398438 20.523438 10.960938 L 20.523438 9.792969 L 22.851562 9.792969 C 22.992188 9.792969 23.125 9.730469 23.210938 9.625 C 23.300781 9.519531 23.335938 9.378906 23.3125 9.246094 L 22.378906 4.113281 C 22.335938 3.894531 22.144531 3.734375 21.917969 3.734375 L 18.1875 3.734375 C 17.960938 3.734375 17.769531 3.894531 17.726562 4.113281 L 16.792969 9.246094 C 16.769531 9.378906 16.804688 9.519531 16.894531 9.625 C 16.980469 9.730469 17.113281 9.792969 17.253906 9.792969 L 19.582031 9.792969 L 19.582031 10.960938 C 19.582031 12.378906 18.4375 13.527344 17.019531 13.527344 C 15.601562 13.527344 14.453125 12.378906 14.453125 10.960938 L 14.453125 0.929688 L 14.917969 0.929688 C 15.171875 0.929688 15.386719 0.71875 15.386719 0.464844 C 15.386719 0.207031 15.179688 0 14.917969 0 L 13.050781 0 C 12.796875 0 12.585938 0.207031 12.585938 0.464844 C 12.585938 0.71875 12.796875 0.929688 13.050781 0.929688 L 13.515625 0.929688 L 13.515625 10.960938 C 13.515625 12.378906 12.367188 13.527344 10.949219 13.527344 C 9.53125 13.527344 8.382812 12.378906 8.382812 10.960938 L 8.382812 9.792969 L 10.714844 9.792969 C 10.855469 9.792969 10.984375 9.730469 11.074219 9.625 C 11.164062 9.519531 11.199219 9.378906 11.171875 9.246094 L 10.242188 4.113281 C 10.199219 3.894531 10.003906 3.734375 9.78125 3.734375 L 6.046875 3.734375 C 5.824219 3.734375 5.632812 3.894531 5.589844 4.113281 L 4.65625 9.246094 C 4.628906 9.378906 4.667969 9.519531 4.753906 9.625 C 4.84375 9.730469 4.972656 9.792969 5.113281 9.792969 L 7.445312 9.792969 L 7.445312 10.960938 C 7.445312 12.398438 8.328125 13.699219 9.667969 14.21875 C 11.007812 14.746094 12.535156 14.390625 13.507812 13.332031 L 13.507812 17.960938 C 13.507812 20.621094 11.386719 22.796875 8.726562 22.859375 C 6.070312 22.921875 3.847656 20.851562 3.722656 18.191406 L 6.042969 18.191406 C 6.183594 18.191406 6.3125 18.128906 6.402344 18.023438 C 6.492188 17.921875 6.527344 17.78125 6.5 17.644531 L 5.570312 12.515625 C 5.527344 12.289062 5.332031 12.128906 5.109375 12.128906 L 1.375 12.128906 C 1.152344 12.128906 0.960938 12.289062 0.917969 12.515625 L -0.015625 17.644531 C -0.0429688 17.78125 -0.00390625 17.921875 0.0820312 18.023438 C 0.171875 18.128906 0.300781 18.191406 0.441406 18.191406 L 2.773438 18.191406 L 2.773438 24.34375 C 2.132812 24.574219 1.746094 25.230469 1.863281 25.902344 C 1.976562 26.574219 2.558594 27.066406 3.242188 27.066406 C 3.925781 27.066406 4.503906 26.574219 4.625 25.902344 C 4.738281 25.230469 4.355469 24.574219 3.710938 24.34375 L 3.710938 21.113281 C 4.78125 22.78125 6.628906 23.792969 8.613281 23.792969 C 10.59375 23.792969 12.441406 22.78125 13.515625 21.113281 L 13.515625 25.277344 C 12.875 25.507812 12.488281 26.164062 12.601562 26.832031 C 12.71875 27.503906 13.300781 27.996094 13.984375 27.996094 C 14.667969 27.996094 15.246094 27.503906 15.367188 26.832031 C 15.480469 26.160156 15.09375 25.503906 14.453125 25.277344 L 14.453125 21.113281 C 15.523438 22.78125 17.367188 23.792969 19.355469 23.792969 C 21.335938 23.792969 23.179688 22.78125 24.253906 21.113281 L 24.253906 24.34375 C 23.613281 24.574219 23.226562 25.230469 23.34375 25.902344 C 23.457031 26.574219 24.042969 27.066406 24.726562 27.066406 C 25.40625 27.066406 25.988281 26.574219 26.105469 25.902344 C 26.222656 25.230469 25.835938 24.574219 25.195312 24.34375 L 25.195312 18.191406 L 27.523438 18.191406 C 27.664062 18.191406 27.796875 18.128906 27.882812 18.023438 C 27.972656 17.921875 28.007812 17.78125 27.984375 17.644531 L 27.050781 12.515625 C 27.007812 12.289062 26.816406 12.128906 26.589844 12.128906 Z M 18.582031 4.660156 L 21.535156 4.660156 L 22.296875 8.859375 L 17.816406 8.859375 L 18.578125 4.660156 Z M 6.453125 4.660156 L 9.40625 4.660156 L 10.167969 8.859375 L 5.6875 8.859375 L 6.449219 4.660156 Z M 1.027344 17.257812 L 1.789062 13.0625 L 4.738281 13.0625 L 5.5 17.257812 L 1.023438 17.257812 Z M 3.269531 26.121094 C 3.015625 26.121094 2.804688 25.914062 2.804688 25.652344 C 2.804688 25.398438 3.015625 25.1875 3.269531 25.1875 C 3.523438 25.1875 3.734375 25.398438 3.734375 25.652344 C 3.734375 25.910156 3.523438 26.117188 3.269531 26.121094 Z M 14 27.054688 C 13.742188 27.054688 13.535156 26.847656 13.535156 26.59375 C 13.535156 26.335938 13.742188 26.128906 14 26.128906 C 14.253906 26.128906 14.464844 26.335938 14.464844 26.59375 C 14.464844 26.847656 14.253906 27.054688 14 27.054688 Z M 24.730469 26.121094 C 24.472656 26.121094 24.265625 25.914062 24.265625 25.652344 C 24.265625 25.398438 24.472656 25.1875 24.730469 25.1875 C 24.984375 25.1875 25.199219 25.398438 25.199219 25.652344 C 25.199219 25.910156 24.992188 26.117188 24.730469 26.121094 Z M 22.488281 17.257812 L 23.25 13.0625 L 26.199219 13.0625 L 26.960938 17.257812 L 22.484375 17.257812 Z M 22.488281 17.257812 Z M 22.488281 17.257812 "/>
</g>
</svg>
