<?xml version="1.0" encoding="UTF-8"?>
<svg xmlns="http://www.w3.org/2000/svg" xmlns:xlink="http://www.w3.org/1999/xlink" width="28px" height="28px" viewBox="0 0 28 28" version="1.1">
<g id="surface1">
<path style=" stroke:none;fill-rule:nonzero;fill:rgb(0%,0%,0%);fill-opacity:1;" d="M 21.367188 7.613281 C 20.957031 11.246094 17.8125 14.070312 14 14.070312 C 10.183594 14.070312 7.039062 11.246094 6.632812 7.613281 L 0.820312 7.613281 C 0.367188 7.613281 -0.00390625 7.253906 -0.00390625 6.808594 C -0.00390625 6.363281 0.367188 6 0.820312 6 L 27.175781 6 C 27.628906 6 28 6.363281 28 6.808594 C 28 7.253906 27.628906 7.613281 27.175781 7.613281 Z M 14 12.453125 C 16.902344 12.453125 19.304688 10.347656 19.703125 7.613281 L 8.292969 7.613281 C 8.691406 10.351562 11.09375 12.453125 14 12.453125 Z M 13.175781 17.296875 C 13.175781 16.851562 13.542969 16.488281 14 16.488281 C 14.453125 16.488281 14.824219 16.851562 14.824219 17.296875 L 14.824219 21.328125 C 14.824219 21.773438 14.453125 22.136719 14 22.136719 C 13.542969 22.136719 13.175781 21.773438 13.175781 21.328125 Z M 7.929688 15.488281 C 8.160156 15.101562 8.660156 14.96875 9.054688 15.195312 C 9.449219 15.417969 9.585938 15.910156 9.355469 16.296875 L 7.296875 19.789062 C 7.070312 20.175781 6.566406 20.308594 6.171875 20.082031 C 5.78125 19.859375 5.644531 19.367188 5.875 18.980469 Z M 18.636719 16.296875 C 18.410156 15.910156 18.546875 15.417969 18.9375 15.195312 C 19.332031 14.972656 19.835938 15.105469 20.0625 15.488281 L 22.121094 18.980469 C 22.347656 19.367188 22.214844 19.859375 21.820312 20.082031 C 21.425781 20.304688 20.921875 20.171875 20.695312 19.789062 Z M 22.859375 12.75 C 22.464844 12.527344 22.328125 12.035156 22.558594 11.648438 C 22.785156 11.261719 23.289062 11.128906 23.683594 11.355469 L 27.25 13.371094 C 27.644531 13.59375 27.78125 14.085938 27.550781 14.472656 C 27.324219 14.859375 26.820312 14.992188 26.425781 14.765625 Z M 4.316406 11.351562 C 4.710938 11.128906 5.214844 11.261719 5.441406 11.644531 C 5.667969 12.03125 5.53125 12.523438 5.140625 12.746094 L 1.574219 14.761719 C 1.179688 14.984375 0.675781 14.855469 0.449219 14.46875 C 0.222656 14.082031 0.359375 13.589844 0.75 13.367188 Z M 4.316406 11.351562 "/>
</g>
</svg>
