<?xml version="1.0" encoding="UTF-8"?>
<svg xmlns="http://www.w3.org/2000/svg" xmlns:xlink="http://www.w3.org/1999/xlink" width="28px" height="28px" viewBox="0 0 28 16" version="1.1">
<g id="surface1">
<path style=" stroke:none;fill-rule:nonzero;fill:rgb(0%,0%,0%);fill-opacity:1;" d="M 21.367188 1.613281 C 20.957031 5.246094 17.8125 8.070312 14 8.070312 C 10.183594 8.070312 7.039062 5.246094 6.632812 1.613281 L 0.820312 1.613281 C 0.367188 1.613281 -0.00390625 1.253906 -0.00390625 0.808594 C -0.00390625 0.363281 0.367188 0 0.820312 0 L 27.175781 0 C 27.628906 0 28 0.363281 28 0.808594 C 28 1.253906 27.628906 1.613281 27.175781 1.613281 Z M 14 6.453125 C 16.902344 6.453125 19.304688 4.347656 19.703125 1.613281 L 8.292969 1.613281 C 8.691406 4.351562 11.09375 6.453125 14 6.453125 Z M 13.175781 11.296875 C 13.175781 10.851562 13.542969 10.488281 14 10.488281 C 14.453125 10.488281 14.824219 10.851562 14.824219 11.296875 L 14.824219 15.328125 C 14.824219 15.773438 14.453125 16.136719 14 16.136719 C 13.542969 16.136719 13.175781 15.773438 13.175781 15.328125 Z M 7.929688 9.488281 C 8.160156 9.101562 8.660156 8.96875 9.054688 9.195312 C 9.449219 9.417969 9.585938 9.910156 9.355469 10.296875 L 7.296875 13.789062 C 7.070312 14.175781 6.566406 14.308594 6.171875 14.082031 C 5.78125 13.859375 5.644531 13.367188 5.875 12.980469 Z M 18.636719 10.296875 C 18.410156 9.910156 18.546875 9.417969 18.9375 9.195312 C 19.332031 8.972656 19.835938 9.105469 20.0625 9.488281 L 22.121094 12.980469 C 22.347656 13.367188 22.214844 13.859375 21.820312 14.082031 C 21.425781 14.304688 20.921875 14.171875 20.695312 13.789062 Z M 22.859375 6.75 C 22.464844 6.527344 22.328125 6.035156 22.558594 5.648438 C 22.785156 5.261719 23.289062 5.128906 23.683594 5.355469 L 27.25 7.371094 C 27.644531 7.59375 27.78125 8.085938 27.550781 8.472656 C 27.324219 8.859375 26.820312 8.992188 26.425781 8.765625 Z M 4.316406 5.351562 C 4.710938 5.128906 5.214844 5.261719 5.441406 5.644531 C 5.667969 6.03125 5.53125 6.523438 5.140625 6.746094 L 1.574219 8.761719 C 1.179688 8.984375 0.675781 8.855469 0.449219 8.46875 C 0.222656 8.082031 0.359375 7.589844 0.75 7.367188 Z M 4.316406 5.351562 "/>
</g>
</svg>
