<?xml version="1.0" encoding="UTF-8"?>
<svg xmlns="http://www.w3.org/2000/svg" xmlns:xlink="http://www.w3.org/1999/xlink" width="28px" height="28px" viewBox="0 0 28 30" version="1.1">
<g id="surface1">
<path style=" stroke:none;fill-rule:nonzero;fill:rgb(0%,0%,0%);fill-opacity:1;" d="M 24.636719 2.675781 C 22.886719 0.949219 20.546875 0 18.070312 0 C 15.847656 0 13.71875 0.78125 12.03125 2.203125 L 10.488281 0.6875 C 10.359375 0.570312 10.195312 0.492188 9.964844 0.484375 C 9.773438 0.492188 9.589844 0.570312 9.457031 0.710938 L 0.1875 10.570312 C -0.0117188 10.789062 -0.0546875 11.105469 0.0742188 11.363281 L 8.851562 28.597656 L 5.003906 28.597656 C 4.609375 28.597656 4.289062 28.914062 4.289062 29.300781 C 4.289062 29.6875 4.609375 30.003906 5.003906 30.003906 L 14.296875 30.003906 C 14.6875 30.003906 15.011719 29.6875 15.011719 29.300781 C 15.011719 28.914062 14.6875 28.597656 14.296875 28.597656 L 10.449219 28.597656 L 1.574219 11.167969 L 10 2.199219 L 11.015625 3.195312 C 9.5625 4.851562 8.769531 6.941406 8.769531 9.125 C 8.769531 11.5625 9.734375 13.855469 11.492188 15.574219 C 11.765625 15.84375 12.234375 15.84375 12.5 15.574219 L 16.09375 12.035156 C 17.488281 12.957031 19.410156 12.746094 20.585938 11.601562 C 21.257812 10.941406 21.628906 10.058594 21.628906 9.117188 C 21.628906 8.429688 21.421875 7.769531 21.027344 7.191406 L 24.628906 3.652344 C 24.917969 3.386719 24.917969 2.945312 24.636719 2.671875 Z M 19.585938 10.613281 C 18.957031 11.234375 17.941406 11.378906 17.148438 11.019531 L 20.007812 8.214844 C 20.140625 8.492188 20.214844 8.804688 20.214844 9.117188 C 20.214844 9.6875 19.984375 10.214844 19.582031 10.613281 Z M 12.023438 14.066406 C 9.421875 11.015625 9.609375 6.515625 12.511719 3.664062 C 13.996094 2.203125 15.96875 1.40625 18.070312 1.40625 C 19.921875 1.40625 21.691406 2.035156 23.101562 3.195312 Z M 12.023438 14.066406 "/>
<path style="fill-rule:nonzero;fill:rgb(0%,0%,0%);fill-opacity:1;stroke-width:0.94;stroke-linecap:butt;stroke-linejoin:miter;stroke:rgb(92.941176%,41.176471%,36.078431%);stroke-opacity:1;stroke-miterlimit:10;" d="M 98.178686 60.141902 C 97.223456 61.185234 97.345031 62.776758 98.317628 63.678621 L 105.785789 70.486805 C 106.81049 71.406352 108.408329 71.30025 109.311455 70.292285 C 110.266685 69.266637 110.145111 67.675113 109.155145 66.77325 L 101.72172 60.018117 C 100.714387 59.080887 99.168651 59.151621 98.161318 60.159586 Z M 98.178686 60.141902 " transform="matrix(0.224913,0,0,0.220897,0.000354006,0)"/>
<path style="fill-rule:nonzero;fill:rgb(0%,0%,0%);fill-opacity:1;stroke-width:0.94;stroke-linecap:butt;stroke-linejoin:miter;stroke:rgb(92.941176%,41.176471%,36.078431%);stroke-opacity:1;stroke-miterlimit:10;" d="M 113.045536 23.041723 C 111.656111 23.112457 110.561938 24.297258 110.614042 25.694262 C 110.700881 27.073582 111.89926 28.169965 113.271317 28.134598 L 123.327282 27.568723 C 124.734075 27.497988 125.828248 26.313188 125.758777 24.916184 C 125.706673 23.536863 124.508294 22.458164 123.118869 22.493531 Z M 113.045536 23.041723 " transform="matrix(0.224913,0,0,0.220897,0.000354006,0)"/>
<path style="fill-rule:nonzero;fill:rgb(0%,0%,0%);fill-opacity:1;stroke-width:0.94;stroke-linecap:butt;stroke-linejoin:miter;stroke:rgb(92.941176%,41.176471%,36.078431%);stroke-opacity:1;stroke-miterlimit:10;" d="M 68.062894 88.223449 L 67.611331 78.161484 C 67.54186 76.782164 66.34348 75.703465 64.954055 75.738832 C 63.56463 75.809566 62.470458 76.994367 62.522561 78.391371 L 62.991492 88.47102 C 63.078331 89.85034 64.27671 90.946723 65.648768 90.875988 C 67.090296 90.78757 68.132365 89.620453 68.080262 88.223449 Z M 68.062894 88.223449 " transform="matrix(0.224913,0,0,0.220897,0.000354006,0)"/>
</g>
</svg>
