<?xml version="1.0" encoding="UTF-8"?>
<svg xmlns="http://www.w3.org/2000/svg" xmlns:xlink="http://www.w3.org/1999/xlink" width="28px" height="28px" viewBox="0 0 28 28" version="1.1">
<g id="surface1">
<path style=" stroke:none;fill-rule:nonzero;fill:rgb(0%,0%,0%);fill-opacity:1;" d="M 23.925781 2.496094 C 22.292969 0.886719 20.109375 0 17.800781 0 C 15.722656 0 13.738281 0.730469 12.164062 2.054688 L 10.722656 0.640625 C 10.601562 0.53125 10.449219 0.460938 10.234375 0.453125 C 10.054688 0.460938 9.882812 0.53125 9.761719 0.664062 L 1.109375 9.867188 C 0.921875 10.070312 0.882812 10.363281 1.003906 10.605469 L 9.195312 26.691406 L 5.605469 26.691406 C 5.234375 26.691406 4.9375 26.988281 4.9375 27.347656 C 4.9375 27.707031 5.234375 28.003906 5.605469 28.003906 L 14.277344 28.003906 C 14.640625 28.003906 14.945312 27.707031 14.945312 27.347656 C 14.945312 26.988281 14.640625 26.691406 14.277344 26.691406 L 10.6875 26.691406 L 2.402344 10.421875 L 10.265625 2.050781 L 11.214844 2.980469 C 9.859375 4.527344 9.117188 6.480469 9.117188 8.515625 C 9.117188 10.792969 10.019531 12.933594 11.660156 14.535156 C 11.914062 14.789062 12.351562 14.789062 12.601562 14.535156 L 15.953125 11.234375 C 17.253906 12.09375 19.050781 11.894531 20.148438 10.828125 C 20.773438 10.210938 21.121094 9.386719 21.121094 8.507812 C 21.121094 7.867188 20.925781 7.25 20.558594 6.710938 L 23.921875 3.410156 C 24.191406 3.160156 24.191406 2.75 23.925781 2.492188 Z M 19.214844 9.90625 C 18.625 10.484375 17.679688 10.621094 16.9375 10.285156 L 19.605469 7.667969 C 19.730469 7.925781 19.800781 8.21875 19.800781 8.507812 C 19.800781 9.042969 19.585938 9.535156 19.210938 9.90625 Z M 12.15625 13.128906 C 9.726562 10.28125 9.902344 6.082031 12.609375 3.417969 C 13.996094 2.054688 15.835938 1.3125 17.800781 1.3125 C 19.527344 1.3125 21.179688 1.898438 22.496094 2.980469 Z M 12.15625 13.128906 "/>
<path style="fill-rule:nonzero;fill:rgb(0%,0%,0%);fill-opacity:1;stroke-width:0.94;stroke-linecap:butt;stroke-linejoin:miter;stroke:rgb(92.941176%,41.176471%,36.078431%);stroke-opacity:1;stroke-miterlimit:10;" d="M 98.17751 60.136807 C 97.228482 61.178875 97.340132 62.770397 98.326377 63.679838 L 105.788339 70.481702 C 106.811801 71.41009 108.412122 71.296409 109.305324 70.292235 C 110.27296 69.269113 110.142702 67.677591 109.156457 66.76815 L 101.713103 60.023126 C 100.70825 59.075792 99.163754 59.151579 98.158901 60.155753 Z M 98.17751 60.136807 " transform="matrix(0.209919,0,0,0.206171,0.933664,0)"/>
<path style="fill-rule:nonzero;fill:rgb(0%,0%,0%);fill-opacity:1;stroke-width:0.94;stroke-linecap:butt;stroke-linejoin:miter;stroke:rgb(92.941176%,41.176471%,36.078431%);stroke-opacity:1;stroke-miterlimit:10;" d="M 113.04561 23.03918 C 111.649981 23.114967 110.570695 24.289662 110.607911 25.691717 C 110.700953 27.074826 111.89189 28.173734 113.26891 28.135841 L 123.336047 27.56744 C 124.731676 27.491653 125.829571 26.316958 125.755137 24.914903 C 125.699312 23.531794 124.508375 22.451832 123.112747 22.489726 Z M 113.04561 23.03918 " transform="matrix(0.209919,0,0,0.206171,0.933664,0)"/>
<path style="fill-rule:nonzero;fill:rgb(0%,0%,0%);fill-opacity:1;stroke-width:0.94;stroke-linecap:butt;stroke-linejoin:miter;stroke:rgb(92.941176%,41.176471%,36.078431%);stroke-opacity:1;stroke-miterlimit:10;" d="M 68.069142 88.215807 L 67.603932 78.155113 C 67.548107 76.790951 66.338562 75.710989 64.961541 75.729936 C 63.565912 75.805723 62.468017 76.999364 62.523843 78.382473 L 62.989052 88.462114 C 63.082094 89.845223 64.273031 90.944131 65.650051 90.868344 C 67.082897 90.792557 68.124967 89.617862 68.08775 88.215807 Z M 68.069142 88.215807 " transform="matrix(0.209919,0,0,0.206171,0.933664,0)"/>
</g>
</svg>
