<?xml version="1.0" encoding="UTF-8"?>
<svg xmlns="http://www.w3.org/2000/svg" xmlns:xlink="http://www.w3.org/1999/xlink" width="28px" height="28px" viewBox="0 0 28 28" version="1.1">
<g id="surface1">
<path style=" stroke:none;fill-rule:nonzero;fill:rgb(0%,0%,0%);fill-opacity:1;" d="M 6.257812 14.054688 L 7.15625 11.148438 L 9.855469 2.445312 C 9.855469 2.445312 9.855469 2.445312 9.859375 2.441406 L 10.117188 1.609375 L 10.257812 1.140625 L 17.941406 1.140625 L 21.941406 14.054688 Z M 17.277344 26.855469 L 10.917969 26.855469 C 11.699219 26.46875 12.410156 26.273438 13.023438 26.273438 C 13.347656 26.273438 13.609375 26.019531 13.609375 25.699219 L 13.609375 15.199219 L 14.59375 15.199219 L 14.59375 25.699219 C 14.59375 26.019531 14.855469 26.273438 15.175781 26.273438 C 15.785156 26.273438 16.496094 26.46875 17.277344 26.855469 Z M 23.292969 14.460938 L 18.933594 0.40625 C 18.855469 0.164062 18.628906 0 18.371094 0 L 9.824219 0 C 9.570312 0 9.34375 0.164062 9.265625 0.40625 L 8.894531 1.605469 L 8.890625 1.609375 L 8.738281 2.105469 L 6.386719 9.691406 C 6.386719 9.691406 6.386719 9.695312 6.386719 9.695312 L 5.941406 11.132812 L 5.9375 11.148438 L 4.910156 14.464844 C 4.894531 14.519531 4.882812 14.574219 4.882812 14.628906 C 4.886719 14.753906 4.925781 14.871094 5 14.972656 C 5.113281 15.117188 5.285156 15.199219 5.472656 15.199219 L 12.441406 15.199219 L 12.441406 25.167969 C 11.285156 25.328125 9.945312 25.941406 8.539062 26.964844 C 8.335938 27.113281 8.25 27.375 8.332031 27.605469 C 8.410156 27.839844 8.636719 28 8.886719 28 L 19.3125 28 C 19.566406 28 19.789062 27.839844 19.867188 27.605469 C 19.945312 27.371094 19.863281 27.113281 19.660156 26.964844 C 18.25 25.941406 16.914062 25.328125 15.761719 25.167969 L 15.761719 15.199219 L 18.160156 15.199219 L 18.160156 17.902344 C 17.71875 18.164062 17.507812 18.675781 17.640625 19.164062 C 17.78125 19.65625 18.230469 19.988281 18.746094 19.988281 C 19.261719 19.988281 19.710938 19.65625 19.847656 19.164062 C 19.984375 18.675781 19.769531 18.164062 19.328125 17.902344 L 19.328125 15.199219 L 22.730469 15.199219 C 22.917969 15.199219 23.089844 15.117188 23.203125 14.972656 C 23.3125 14.828125 23.34375 14.636719 23.292969 14.460938 Z M 23.292969 14.460938 "/>
</g>
</svg>
