<?xml version="1.0" encoding="UTF-8"?>
<svg xmlns="http://www.w3.org/2000/svg" xmlns:xlink="http://www.w3.org/1999/xlink" width="28px" height="28px" viewBox="0 0 28 43" version="1.1">
<g id="surface1">
<path style=" stroke:none;fill-rule:nonzero;fill:rgb(0%,0%,0%);fill-opacity:1;" d="M 2.109375 21.585938 L 3.492188 17.121094 L 7.632812 3.757812 C 7.636719 3.757812 7.636719 3.757812 7.640625 3.75 L 8.035156 2.46875 L 8.253906 1.753906 L 20.050781 1.753906 L 26.195312 21.585938 Z M 19.035156 41.242188 L 9.265625 41.242188 C 10.464844 40.648438 11.558594 40.347656 12.5 40.347656 C 12.996094 40.347656 13.398438 39.957031 13.398438 39.464844 L 13.398438 23.34375 L 14.910156 23.34375 L 14.910156 39.464844 C 14.910156 39.957031 15.3125 40.347656 15.808594 40.347656 C 16.742188 40.347656 17.835938 40.648438 19.035156 41.242188 Z M 28.269531 22.207031 L 21.574219 0.621094 C 21.457031 0.253906 21.109375 0 20.714844 0 L 7.589844 0 C 7.195312 0 6.847656 0.253906 6.730469 0.621094 L 6.160156 2.464844 L 6.15625 2.472656 L 5.921875 3.234375 L 2.308594 14.882812 C 2.308594 14.882812 2.308594 14.890625 2.308594 14.890625 L 1.625 17.097656 L 1.617188 17.121094 L 0.0390625 22.214844 C 0.015625 22.296875 0 22.382812 0 22.46875 C 0.00390625 22.65625 0.0625 22.835938 0.179688 22.992188 C 0.351562 23.214844 0.617188 23.34375 0.902344 23.34375 L 11.605469 23.34375 L 11.605469 38.652344 C 9.828125 38.898438 7.773438 39.835938 5.613281 41.410156 C 5.300781 41.640625 5.171875 42.039062 5.296875 42.394531 C 5.417969 42.753906 5.761719 43 6.148438 43 L 22.160156 43 C 22.546875 43 22.890625 42.753906 23.011719 42.394531 C 23.132812 42.03125 23.003906 41.640625 22.695312 41.410156 C 20.527344 39.835938 18.476562 38.898438 16.707031 38.652344 L 16.707031 23.34375 L 20.390625 23.34375 L 20.390625 27.492188 C 19.710938 27.894531 19.386719 28.683594 19.59375 29.429688 C 19.804688 30.183594 20.496094 30.699219 21.289062 30.699219 C 22.078125 30.699219 22.769531 30.183594 22.980469 29.429688 C 23.191406 28.683594 22.863281 27.894531 22.183594 27.492188 L 22.183594 23.34375 L 27.410156 23.34375 C 27.695312 23.34375 27.960938 23.214844 28.132812 22.992188 C 28.300781 22.769531 28.351562 22.476562 28.269531 22.207031 Z M 28.269531 22.207031 "/>
</g>
</svg>
