<?xml version="1.0" encoding="UTF-8"?>
<svg xmlns="http://www.w3.org/2000/svg" xmlns:xlink="http://www.w3.org/1999/xlink" width="28px" height="28px" viewBox="0 0 28 67" version="1.1">
<g id="surface1">
<path style=" stroke:none;fill-rule:nonzero;fill:rgb(0%,0%,0%);fill-opacity:1;" d="M 24.753906 20.40625 C 26.488281 20.40625 27.90625 18.992188 27.90625 17.261719 L 27.90625 3.144531 C 27.90625 1.414062 26.488281 0 24.753906 0 L 3.144531 0 C 1.410156 0 -0.0078125 1.414062 -0.0078125 3.144531 L -0.0078125 17.261719 C -0.0078125 18.992188 1.410156 20.40625 3.144531 20.40625 L 12.894531 20.40625 L 12.894531 23.011719 C 11.214844 23.398438 9.859375 24.6875 9.433594 26.417969 L 1.214844 60.519531 C 1.082031 61.085938 1.425781 61.652344 1.992188 61.78125 C 2.550781 61.914062 3.128906 61.570312 3.261719 61.003906 L 11.480469 26.90625 C 11.664062 26.128906 12.203125 25.507812 12.894531 25.199219 L 12.894531 65.949219 C 12.894531 66.535156 13.363281 67 13.949219 67 C 14.523438 67 15.003906 66.535156 15.003906 65.949219 L 15.003906 25.199219 C 15.695312 25.519531 16.234375 26.128906 16.421875 26.90625 L 24.640625 61.003906 C 24.753906 61.484375 25.1875 61.808594 25.65625 61.808594 C 25.738281 61.808594 25.824219 61.800781 25.90625 61.78125 C 26.472656 61.652344 26.816406 61.085938 26.683594 60.519531 L 18.464844 26.417969 C 18.050781 24.679688 16.6875 23.398438 15.003906 23.011719 L 15.003906 20.40625 Z M 2.101562 17.261719 L 2.101562 3.144531 C 2.101562 2.570312 2.570312 2.09375 3.152344 2.09375 L 24.761719 2.09375 C 25.339844 2.09375 25.816406 2.5625 25.816406 3.144531 L 25.816406 17.261719 C 25.816406 17.835938 25.347656 18.3125 24.761719 18.3125 L 3.152344 18.3125 C 2.578125 18.3125 2.101562 17.84375 2.101562 17.261719 Z M 2.101562 17.261719 "/>
</g>
</svg>
