<?xml version="1.0" encoding="UTF-8"?>
<svg xmlns="http://www.w3.org/2000/svg" xmlns:xlink="http://www.w3.org/1999/xlink" width="28px" height="28px" viewBox="0 0 28 28" version="1.1">
<g id="surface1">
<path style=" stroke:none;fill-rule:nonzero;fill:rgb(0%,0%,0%);fill-opacity:1;" d="M 18.496094 8.527344 C 19.21875 8.527344 19.8125 7.9375 19.8125 7.214844 L 19.8125 1.3125 C 19.8125 0.589844 19.21875 0 18.496094 0 L 9.464844 0 C 8.738281 0 8.144531 0.589844 8.144531 1.3125 L 8.144531 7.214844 C 8.144531 7.9375 8.738281 8.527344 9.464844 8.527344 L 13.539062 8.527344 L 13.539062 9.617188 C 12.835938 9.777344 12.269531 10.316406 12.089844 11.039062 L 8.65625 25.292969 C 8.601562 25.527344 8.746094 25.765625 8.980469 25.820312 C 9.214844 25.875 9.457031 25.730469 9.511719 25.496094 L 12.945312 11.246094 C 13.023438 10.917969 13.25 10.660156 13.539062 10.53125 L 13.539062 27.5625 C 13.539062 27.804688 13.734375 28 13.980469 28 C 14.21875 28 14.417969 27.804688 14.417969 27.5625 L 14.417969 10.53125 C 14.707031 10.664062 14.933594 10.917969 15.011719 11.246094 L 18.445312 25.496094 C 18.496094 25.695312 18.675781 25.832031 18.871094 25.832031 C 18.90625 25.832031 18.941406 25.828125 18.976562 25.820312 C 19.210938 25.765625 19.355469 25.527344 19.300781 25.292969 L 15.867188 11.039062 C 15.691406 10.3125 15.125 9.777344 14.417969 9.617188 L 14.417969 8.527344 Z M 9.027344 7.214844 L 9.027344 1.3125 C 9.027344 1.074219 9.222656 0.875 9.464844 0.875 L 18.496094 0.875 C 18.738281 0.875 18.9375 1.070312 18.9375 1.3125 L 18.9375 7.214844 C 18.9375 7.453125 18.742188 7.652344 18.496094 7.652344 L 9.464844 7.652344 C 9.226562 7.652344 9.027344 7.457031 9.027344 7.214844 Z M 9.027344 7.214844 "/>
</g>
</svg>
