<?xml version="1.0" encoding="UTF-8"?>
<svg xmlns="http://www.w3.org/2000/svg" xmlns:xlink="http://www.w3.org/1999/xlink" width="28px" height="28px" viewBox="0 0 28 9" version="1.1">
<g id="surface1">
<path style=" stroke:none;fill-rule:nonzero;fill:rgb(0%,0%,0%);fill-opacity:1;" d="M 4.550781 7.425781 C 4.722656 7.425781 4.867188 7.285156 4.867188 7.113281 L 4.867188 5.84375 C 4.867188 5.671875 4.722656 5.53125 4.550781 5.53125 L 2.710938 5.53125 C 2.535156 5.53125 2.394531 5.671875 2.394531 5.84375 L 2.394531 7.113281 C 2.394531 7.285156 2.535156 7.425781 2.710938 7.425781 Z M 3.027344 6.15625 L 4.234375 6.15625 L 4.234375 6.796875 L 3.027344 6.796875 Z M 3.027344 6.15625 "/>
<path style=" stroke:none;fill-rule:nonzero;fill:rgb(0%,0%,0%);fill-opacity:1;" d="M 9.734375 7.425781 C 9.910156 7.425781 10.050781 7.285156 10.050781 7.113281 L 10.050781 5.84375 C 10.050781 5.671875 9.910156 5.53125 9.734375 5.53125 L 7.894531 5.53125 C 7.722656 5.53125 7.582031 5.671875 7.582031 5.84375 L 7.582031 7.113281 C 7.582031 7.285156 7.722656 7.425781 7.894531 7.425781 Z M 8.210938 6.15625 L 9.421875 6.15625 L 9.421875 6.796875 L 8.210938 6.796875 Z M 8.210938 6.15625 "/>
<path style=" stroke:none;fill-rule:nonzero;fill:rgb(0%,0%,0%);fill-opacity:1;" d="M 14.921875 7.425781 C 15.09375 7.425781 15.238281 7.285156 15.238281 7.113281 L 15.238281 5.84375 C 15.238281 5.671875 15.09375 5.53125 14.921875 5.53125 L 13.082031 5.53125 C 12.90625 5.53125 12.765625 5.671875 12.765625 5.84375 L 12.765625 7.113281 C 12.765625 7.285156 12.90625 7.425781 13.082031 7.425781 Z M 13.398438 6.15625 L 14.605469 6.15625 L 14.605469 6.796875 L 13.398438 6.796875 Z M 13.398438 6.15625 "/>
<path style=" stroke:none;fill-rule:nonzero;fill:rgb(0%,0%,0%);fill-opacity:1;" d="M 20.105469 7.425781 C 20.28125 7.425781 20.421875 7.285156 20.421875 7.113281 L 20.421875 5.84375 C 20.421875 5.671875 20.28125 5.53125 20.105469 5.53125 L 18.265625 5.53125 C 18.09375 5.53125 17.953125 5.671875 17.953125 5.84375 L 17.953125 7.113281 C 17.953125 7.285156 18.09375 7.425781 18.265625 7.425781 Z M 18.582031 6.15625 L 19.792969 6.15625 L 19.792969 6.796875 L 18.582031 6.796875 Z M 18.582031 6.15625 "/>
<path style=" stroke:none;fill-rule:nonzero;fill:rgb(0%,0%,0%);fill-opacity:1;" d="M 25.289062 7.425781 C 25.464844 7.425781 25.605469 7.285156 25.605469 7.113281 L 25.605469 5.84375 C 25.605469 5.671875 25.464844 5.53125 25.289062 5.53125 L 23.449219 5.53125 C 23.277344 5.53125 23.132812 5.671875 23.132812 5.84375 L 23.132812 7.113281 C 23.132812 7.285156 23.277344 7.425781 23.449219 7.425781 Z M 23.765625 6.15625 L 24.972656 6.15625 L 24.972656 6.796875 L 23.765625 6.796875 Z M 23.765625 6.15625 "/>
<path style=" stroke:none;fill-rule:nonzero;fill:rgb(0%,0%,0%);fill-opacity:1;" d="M 6.757812 1.296875 L 8.039062 2.65625 C 8.160156 2.78125 8.359375 2.789062 8.484375 2.667969 C 8.613281 2.550781 8.621094 2.351562 8.5 2.226562 L 7.21875 0.871094 C 7.097656 0.742188 6.898438 0.738281 6.769531 0.855469 C 6.644531 0.976562 6.636719 1.171875 6.757812 1.296875 Z M 6.757812 1.296875 "/>
<path style=" stroke:none;fill-rule:nonzero;fill:rgb(0%,0%,0%);fill-opacity:1;" d="M 13.683594 0.3125 L 13.683594 2.441406 C 13.683594 2.613281 13.824219 2.753906 14 2.753906 C 14.171875 2.753906 14.3125 2.613281 14.3125 2.441406 L 14.3125 0.3125 C 14.3125 0.140625 14.171875 0 14 0 C 13.824219 0 13.683594 0.140625 13.683594 0.3125 Z M 13.683594 0.3125 "/>
<path style=" stroke:none;fill-rule:nonzero;fill:rgb(0%,0%,0%);fill-opacity:1;" d="M 19.960938 2.65625 L 21.242188 1.296875 C 21.363281 1.171875 21.355469 0.976562 21.230469 0.855469 C 21.101562 0.738281 20.902344 0.742188 20.78125 0.871094 L 19.5 2.226562 C 19.378906 2.351562 19.386719 2.550781 19.511719 2.667969 C 19.640625 2.789062 19.839844 2.78125 19.960938 2.65625 Z M 19.960938 2.65625 "/>
<path style="fill:none;stroke-width:3.22;stroke-linecap:butt;stroke-linejoin:miter;stroke:rgb(0%,0%,0%);stroke-opacity:1;stroke-miterlimit:22.9256;" d="M 3.088157 19.047473 L 115.922097 19.047473 C 116.735643 19.047473 117.399763 19.667318 117.399763 20.437936 L 117.399763 34.845146 C 117.399763 35.615764 116.735643 36.235609 115.922097 36.235609 L 3.088157 36.235609 C 2.27461 36.235609 1.61049 35.615764 1.61049 34.845146 L 1.61049 20.437936 C 1.61049 19.667318 2.27461 19.047473 3.088157 19.047473 Z M 3.088157 19.047473 " transform="matrix(0.235274,0,0,0.233173,0,0.0000463792)"/>
</g>
</svg>
