<?xml version="1.0" encoding="UTF-8"?>
<svg xmlns="http://www.w3.org/2000/svg" xmlns:xlink="http://www.w3.org/1999/xlink" width="28px" height="28px" viewBox="0 0 28 28" version="1.1">
<g id="surface1">
<path style=" stroke:none;fill-rule:nonzero;fill:rgb(0%,0%,0%);fill-opacity:1;" d="M 4.550781 16.925781 C 4.722656 16.925781 4.867188 16.785156 4.867188 16.613281 L 4.867188 15.34375 C 4.867188 15.171875 4.722656 15.03125 4.550781 15.03125 L 2.710938 15.03125 C 2.535156 15.03125 2.394531 15.171875 2.394531 15.34375 L 2.394531 16.613281 C 2.394531 16.785156 2.535156 16.925781 2.710938 16.925781 Z M 3.027344 15.65625 L 4.234375 15.65625 L 4.234375 16.296875 L 3.027344 16.296875 Z M 3.027344 15.65625 "/>
<path style=" stroke:none;fill-rule:nonzero;fill:rgb(0%,0%,0%);fill-opacity:1;" d="M 9.734375 16.925781 C 9.910156 16.925781 10.050781 16.785156 10.050781 16.613281 L 10.050781 15.34375 C 10.050781 15.171875 9.910156 15.03125 9.734375 15.03125 L 7.894531 15.03125 C 7.722656 15.03125 7.582031 15.171875 7.582031 15.34375 L 7.582031 16.613281 C 7.582031 16.785156 7.722656 16.925781 7.894531 16.925781 Z M 8.210938 15.65625 L 9.421875 15.65625 L 9.421875 16.296875 L 8.210938 16.296875 Z M 8.210938 15.65625 "/>
<path style=" stroke:none;fill-rule:nonzero;fill:rgb(0%,0%,0%);fill-opacity:1;" d="M 14.921875 16.925781 C 15.09375 16.925781 15.238281 16.785156 15.238281 16.613281 L 15.238281 15.34375 C 15.238281 15.171875 15.09375 15.03125 14.921875 15.03125 L 13.082031 15.03125 C 12.90625 15.03125 12.765625 15.171875 12.765625 15.34375 L 12.765625 16.613281 C 12.765625 16.785156 12.90625 16.925781 13.082031 16.925781 Z M 13.398438 15.65625 L 14.605469 15.65625 L 14.605469 16.296875 L 13.398438 16.296875 Z M 13.398438 15.65625 "/>
<path style=" stroke:none;fill-rule:nonzero;fill:rgb(0%,0%,0%);fill-opacity:1;" d="M 20.105469 16.925781 C 20.28125 16.925781 20.421875 16.785156 20.421875 16.613281 L 20.421875 15.34375 C 20.421875 15.171875 20.28125 15.03125 20.105469 15.03125 L 18.265625 15.03125 C 18.09375 15.03125 17.953125 15.171875 17.953125 15.34375 L 17.953125 16.613281 C 17.953125 16.785156 18.09375 16.925781 18.265625 16.925781 Z M 18.582031 15.65625 L 19.792969 15.65625 L 19.792969 16.296875 L 18.582031 16.296875 Z M 18.582031 15.65625 "/>
<path style=" stroke:none;fill-rule:nonzero;fill:rgb(0%,0%,0%);fill-opacity:1;" d="M 25.289062 16.925781 C 25.464844 16.925781 25.605469 16.785156 25.605469 16.613281 L 25.605469 15.34375 C 25.605469 15.171875 25.464844 15.03125 25.289062 15.03125 L 23.449219 15.03125 C 23.277344 15.03125 23.132812 15.171875 23.132812 15.34375 L 23.132812 16.613281 C 23.132812 16.785156 23.277344 16.925781 23.449219 16.925781 Z M 23.765625 15.65625 L 24.972656 15.65625 L 24.972656 16.296875 L 23.765625 16.296875 Z M 23.765625 15.65625 "/>
<path style=" stroke:none;fill-rule:nonzero;fill:rgb(0%,0%,0%);fill-opacity:1;" d="M 6.757812 10.796875 L 8.039062 12.15625 C 8.160156 12.28125 8.359375 12.289062 8.484375 12.167969 C 8.613281 12.050781 8.621094 11.851562 8.5 11.726562 L 7.21875 10.371094 C 7.097656 10.242188 6.898438 10.238281 6.769531 10.355469 C 6.644531 10.476562 6.636719 10.671875 6.757812 10.796875 Z M 6.757812 10.796875 "/>
<path style=" stroke:none;fill-rule:nonzero;fill:rgb(0%,0%,0%);fill-opacity:1;" d="M 13.683594 9.8125 L 13.683594 11.941406 C 13.683594 12.113281 13.824219 12.253906 14 12.253906 C 14.171875 12.253906 14.3125 12.113281 14.3125 11.941406 L 14.3125 9.8125 C 14.3125 9.640625 14.171875 9.5 14 9.5 C 13.824219 9.5 13.683594 9.640625 13.683594 9.8125 Z M 13.683594 9.8125 "/>
<path style=" stroke:none;fill-rule:nonzero;fill:rgb(0%,0%,0%);fill-opacity:1;" d="M 19.960938 12.15625 L 21.242188 10.796875 C 21.363281 10.671875 21.355469 10.476562 21.230469 10.355469 C 21.101562 10.238281 20.902344 10.242188 20.78125 10.371094 L 19.5 11.726562 C 19.378906 11.851562 19.386719 12.050781 19.511719 12.167969 C 19.640625 12.289062 19.839844 12.28125 19.960938 12.15625 Z M 19.960938 12.15625 "/>
<path style="fill:none;stroke-width:3.22;stroke-linecap:butt;stroke-linejoin:miter;stroke:rgb(0%,0%,0%);stroke-opacity:1;stroke-miterlimit:22.9256;" d="M 3.088155 19.047488 L 115.922021 19.047488 C 116.735567 19.047488 117.399686 19.667333 117.399686 20.437952 L 117.399686 34.845173 C 117.399686 35.615792 116.735567 36.235638 115.922021 36.235638 L 3.088155 36.235638 C 2.274609 36.235638 1.610489 35.615792 1.610489 34.845173 L 1.610489 20.437952 C 1.610489 19.667333 2.274609 19.047488 3.088155 19.047488 Z M 3.088155 19.047488 " transform="matrix(0.235274,0,0,0.233173,0,9.500046)"/>
</g>
</svg>
