<?xml version="1.0" encoding="UTF-8"?>
<svg xmlns="http://www.w3.org/2000/svg" xmlns:xlink="http://www.w3.org/1999/xlink" width="28px" height="28px" viewBox="0 0 28 28" version="1.1">
<g id="surface1">
<path style="fill-rule:nonzero;fill:rgb(0%,0%,0%);fill-opacity:1;stroke-width:0.08;stroke-linecap:butt;stroke-linejoin:miter;stroke:rgb(0%,0%,0%);stroke-opacity:1;stroke-miterlimit:22.9256;" d="M 6.731565 20.9304 C 6.731565 20.769992 6.599565 20.65143 6.450198 20.65143 L 5.310834 20.65143 C 5.151046 20.65143 5.029467 20.780453 5.029467 20.9304 L 5.029467 22.569352 C 5.029467 22.72976 5.157993 22.85181 5.310834 22.85181 L 6.450198 22.85181 C 6.609986 22.85181 6.731565 22.719299 6.731565 22.569352 Z M 5.588728 22.290382 L 5.588728 21.209371 L 6.16883 21.209371 L 6.16883 22.290382 Z M 5.588728 22.290382 " transform="matrix(1.124532,0,0,1.12019,9.44186,0.00319774)"/>
<path style="fill-rule:nonzero;fill:rgb(0%,0%,0%);fill-opacity:1;stroke-width:0.08;stroke-linecap:butt;stroke-linejoin:miter;stroke:rgb(0%,0%,0%);stroke-opacity:1;stroke-miterlimit:22.9256;" d="M 6.731565 16.299489 C 6.731565 16.13908 6.599565 16.020518 6.450198 16.020518 L 5.310834 16.020518 C 5.151046 16.020518 5.029467 16.149542 5.029467 16.299489 L 5.029467 17.938441 C 5.029467 18.098849 5.157993 18.220898 5.310834 18.220898 L 6.450198 18.220898 C 6.609986 18.220898 6.731565 18.088387 6.731565 17.938441 Z M 5.588728 17.65947 L 5.588728 16.578459 L 6.16883 16.578459 L 6.16883 17.65947 Z M 5.588728 17.65947 " transform="matrix(1.124532,0,0,1.12019,9.44186,0.00319774)"/>
<path style="fill-rule:nonzero;fill:rgb(0%,0%,0%);fill-opacity:1;stroke-width:0.08;stroke-linecap:butt;stroke-linejoin:miter;stroke:rgb(0%,0%,0%);stroke-opacity:1;stroke-miterlimit:22.9256;" d="M 6.731565 11.668577 C 6.731565 11.508169 6.599565 11.389606 6.450198 11.389606 L 5.310834 11.389606 C 5.151046 11.389606 5.029467 11.51863 5.029467 11.668577 L 5.029467 13.311016 C 5.029467 13.471424 5.157993 13.589987 5.310834 13.589987 L 6.450198 13.589987 C 6.609986 13.589987 6.731565 13.460963 6.731565 13.311016 Z M 5.588728 13.028558 L 5.588728 11.951035 L 6.16883 11.951035 L 6.16883 13.028558 Z M 5.588728 13.028558 " transform="matrix(1.124532,0,0,1.12019,9.44186,0.00319774)"/>
<path style="fill-rule:nonzero;fill:rgb(0%,0%,0%);fill-opacity:1;stroke-width:0.08;stroke-linecap:butt;stroke-linejoin:miter;stroke:rgb(0%,0%,0%);stroke-opacity:1;stroke-miterlimit:22.9256;" d="M 6.731565 7.041152 C 6.731565 6.880744 6.599565 6.758695 6.450198 6.758695 L 5.310834 6.758695 C 5.151046 6.758695 5.029467 6.891206 5.029467 7.041152 L 5.029467 8.680105 C 5.029467 8.840513 5.157993 8.959075 5.310834 8.959075 L 6.450198 8.959075 C 6.609986 8.959075 6.731565 8.830051 6.731565 8.680105 Z M 5.588728 8.401134 L 5.588728 7.320123 L 6.16883 7.320123 L 6.16883 8.401134 Z M 5.588728 8.401134 " transform="matrix(1.124532,0,0,1.12019,9.44186,0.00319774)"/>
<path style="fill-rule:nonzero;fill:rgb(0%,0%,0%);fill-opacity:1;stroke-width:0.08;stroke-linecap:butt;stroke-linejoin:miter;stroke:rgb(0%,0%,0%);stroke-opacity:1;stroke-miterlimit:22.9256;" d="M 6.731565 2.420702 C 6.731565 2.260294 6.599565 2.138245 6.450198 2.138245 L 5.310834 2.138245 C 5.151046 2.138245 5.029467 2.270756 5.029467 2.420702 L 5.029467 4.059654 C 5.029467 4.220062 5.157993 4.338625 5.310834 4.338625 L 6.450198 4.338625 C 6.609986 4.338625 6.731565 4.209601 6.731565 4.059654 Z M 5.588728 3.780684 L 5.588728 2.699673 L 6.16883 2.699673 L 6.16883 3.780684 Z M 5.588728 3.780684 " transform="matrix(1.124532,0,0,1.12019,9.44186,0.00319774)"/>
<path style="fill-rule:nonzero;fill:rgb(0%,0%,0%);fill-opacity:1;stroke-width:0.08;stroke-linecap:butt;stroke-linejoin:miter;stroke:rgb(0%,0%,0%);stroke-opacity:1;stroke-miterlimit:22.9256;" d="M 1.208433 18.96017 L 2.431164 17.819878 C 2.538847 17.70829 2.549268 17.540908 2.438111 17.418858 C 2.330427 17.310757 2.160218 17.300295 2.038639 17.408397 L 0.819382 18.548689 C 0.711698 18.660277 0.701277 18.831147 0.808961 18.949709 C 0.920118 19.061297 1.090328 19.068272 1.208433 18.96017 Z M 1.208433 18.96017 " transform="matrix(1.124532,0,0,1.12019,9.44186,0.00319774)"/>
<path style="fill-rule:nonzero;fill:rgb(0%,0%,0%);fill-opacity:1;stroke-width:0.08;stroke-linecap:butt;stroke-linejoin:miter;stroke:rgb(0%,0%,0%);stroke-opacity:1;stroke-miterlimit:22.9256;" d="M 0.319174 12.780972 L 2.240112 12.780972 C 2.399901 12.780972 2.521479 12.648461 2.521479 12.498514 C 2.521479 12.338106 2.38948 12.219544 2.240112 12.219544 L 0.319174 12.219544 C 0.159385 12.219544 0.0412801 12.348568 0.0412801 12.498514 C 0.0412801 12.658922 0.169806 12.780972 0.319174 12.780972 Z M 0.319174 12.780972 " transform="matrix(1.124532,0,0,1.12019,9.44186,0.00319774)"/>
<path style="fill-rule:nonzero;fill:rgb(0%,0%,0%);fill-opacity:1;stroke-width:0.08;stroke-linecap:butt;stroke-linejoin:miter;stroke:rgb(0%,0%,0%);stroke-opacity:1;stroke-miterlimit:22.9256;" d="M 2.431164 7.170176 L 1.208433 6.029884 C 1.100749 5.921783 0.920118 5.928757 0.808961 6.040346 C 0.701277 6.148447 0.711698 6.329777 0.819382 6.441366 L 2.038639 7.581658 C 2.149797 7.689759 2.330427 7.679298 2.438111 7.571197 C 2.549268 7.459608 2.538847 7.281765 2.431164 7.170176 Z M 2.431164 7.170176 " transform="matrix(1.124532,0,0,1.12019,9.44186,0.00319774)"/>
<path style="fill:none;stroke-width:0.68;stroke-linecap:butt;stroke-linejoin:miter;stroke:rgb(0%,0%,0%);stroke-opacity:1;stroke-miterlimit:22.9256;" d="M 0.280962 0.000750949 L 21.840941 0.000750949 C 21.993241 0.000750949 22.120157 0.126752 22.120157 0.279996 L 22.120157 3.259742 C 22.120157 3.416391 21.993241 3.538986 21.840941 3.538986 L 0.280962 3.538986 C 0.125489 3.538986 -0.00142748 3.416391 -0.00142748 3.259742 L -0.00142748 0.279996 C -0.00142748 0.126752 0.125489 0.000750949 0.280962 0.000750949 Z M 0.280962 0.000750949 " transform="matrix(0.000000000000032732,-1.231122,1.147067,0.000000000000030262,13.98742,27.61543)"/>
</g>
</svg>
