<?xml version="1.0" encoding="UTF-8"?>
<svg xmlns="http://www.w3.org/2000/svg" xmlns:xlink="http://www.w3.org/1999/xlink" width="28px" height="28px" viewBox="0 0 28 86" version="1.1">
<g id="surface1">
<path style="fill-rule:nonzero;fill:rgb(0%,0%,0%);fill-opacity:1;stroke-width:0.08;stroke-linecap:butt;stroke-linejoin:miter;stroke:rgb(0%,0%,0%);stroke-opacity:1;stroke-miterlimit:22.9256;" d="M 6.730353 20.929507 C 6.730353 20.770559 6.600293 20.650212 6.449875 20.650212 L 5.309865 20.650212 C 5.1504 20.650212 5.030518 20.779641 5.030518 20.929507 L 5.030518 22.570081 C 5.030518 22.730165 5.159447 22.850511 5.309865 22.850511 L 6.449875 22.850511 C 6.610471 22.850511 6.730353 22.719947 6.730353 22.570081 Z M 5.590344 22.289651 L 5.590344 21.209937 L 6.170527 21.209937 L 6.170527 22.289651 Z M 5.590344 22.289651 " transform="matrix(3.453919,0,0,3.440583,0,0.00982162)"/>
<path style="fill-rule:nonzero;fill:rgb(0%,0%,0%);fill-opacity:1;stroke-width:0.08;stroke-linecap:butt;stroke-linejoin:miter;stroke:rgb(0%,0%,0%);stroke-opacity:1;stroke-miterlimit:22.9256;" d="M 6.730353 16.299569 C 6.730353 16.139485 6.600293 16.020274 6.449875 16.020274 L 5.309865 16.020274 C 5.1504 16.020274 5.030518 16.149703 5.030518 16.299569 L 5.030518 17.940143 C 5.030518 18.100226 5.159447 18.219438 5.309865 18.219438 L 6.449875 18.219438 C 6.610471 18.219438 6.730353 18.090008 6.730353 17.940143 Z M 5.590344 17.659712 L 5.590344 16.579999 L 6.170527 16.579999 L 6.170527 17.659712 Z M 5.590344 17.659712 " transform="matrix(3.453919,0,0,3.440583,0,0.00982162)"/>
<path style="fill-rule:nonzero;fill:rgb(0%,0%,0%);fill-opacity:1;stroke-width:0.08;stroke-linecap:butt;stroke-linejoin:miter;stroke:rgb(0%,0%,0%);stroke-opacity:1;stroke-miterlimit:22.9256;" d="M 6.730353 11.669631 C 6.730353 11.509547 6.600293 11.390336 6.449875 11.390336 L 5.309865 11.390336 C 5.1504 11.390336 5.030518 11.519765 5.030518 11.669631 L 5.030518 13.310205 C 5.030518 13.470288 5.159447 13.589499 5.309865 13.589499 L 6.449875 13.589499 C 6.610471 13.589499 6.730353 13.46007 6.730353 13.310205 Z M 5.590344 13.029774 L 5.590344 11.950061 L 6.170527 11.950061 L 6.170527 13.029774 Z M 5.590344 13.029774 " transform="matrix(3.453919,0,0,3.440583,0,0.00982162)"/>
<path style="fill-rule:nonzero;fill:rgb(0%,0%,0%);fill-opacity:1;stroke-width:0.08;stroke-linecap:butt;stroke-linejoin:miter;stroke:rgb(0%,0%,0%);stroke-opacity:1;stroke-miterlimit:22.9256;" d="M 6.730353 7.039692 C 6.730353 6.879609 6.600293 6.760397 6.449875 6.760397 L 5.309865 6.760397 C 5.1504 6.760397 5.030518 6.889827 5.030518 7.039692 L 5.030518 8.680266 C 5.030518 8.84035 5.159447 8.959561 5.309865 8.959561 L 6.449875 8.959561 C 6.610471 8.959561 6.730353 8.830132 6.730353 8.680266 Z M 5.590344 8.399836 L 5.590344 7.320123 L 6.170527 7.320123 L 6.170527 8.399836 Z M 5.590344 8.399836 " transform="matrix(3.453919,0,0,3.440583,0,0.00982162)"/>
<path style="fill-rule:nonzero;fill:rgb(0%,0%,0%);fill-opacity:1;stroke-width:0.08;stroke-linecap:butt;stroke-linejoin:miter;stroke:rgb(0%,0%,0%);stroke-opacity:1;stroke-miterlimit:22.9256;" d="M 6.730353 2.419972 C 6.730353 2.259889 6.600293 2.139542 6.449875 2.139542 L 5.309865 2.139542 C 5.1504 2.139542 5.030518 2.270107 5.030518 2.419972 L 5.030518 4.060546 C 5.030518 4.219495 5.159447 4.339841 5.309865 4.339841 L 6.449875 4.339841 C 6.610471 4.339841 6.730353 4.210412 6.730353 4.060546 Z M 5.590344 3.780116 L 5.590344 2.700403 L 6.170527 2.700403 L 6.170527 3.780116 Z M 5.590344 3.780116 " transform="matrix(3.453919,0,0,3.440583,0,0.00982162)"/>
<path style="fill-rule:nonzero;fill:rgb(0%,0%,0%);fill-opacity:1;stroke-width:0.08;stroke-linecap:butt;stroke-linejoin:miter;stroke:rgb(0%,0%,0%);stroke-opacity:1;stroke-miterlimit:22.9256;" d="M 1.210129 18.959683 L 2.430437 17.819796 C 2.54014 17.709668 2.550319 17.540501 2.439484 17.420155 C 2.329781 17.310026 2.160137 17.299808 2.040255 17.409936 L 0.819947 18.549823 C 0.710244 18.659952 0.700065 18.830253 0.809769 18.949465 C 0.919472 19.059593 1.090247 19.069811 1.210129 18.959683 Z M 1.210129 18.959683 " transform="matrix(3.453919,0,0,3.440583,0,0.00982162)"/>
<path style="fill-rule:nonzero;fill:rgb(0%,0%,0%);fill-opacity:1;stroke-width:0.08;stroke-linecap:butt;stroke-linejoin:miter;stroke:rgb(0%,0%,0%);stroke-opacity:1;stroke-miterlimit:22.9256;" d="M 0.320062 12.779998 L 2.240435 12.779998 C 2.399901 12.779998 2.519783 12.649434 2.519783 12.499568 C 2.519783 12.339484 2.389722 12.220273 2.240435 12.220273 L 0.320062 12.220273 C 0.159466 12.220273 0.0395837 12.349702 0.0395837 12.499568 C 0.0395837 12.659652 0.169644 12.779998 0.320062 12.779998 Z M 0.320062 12.779998 " transform="matrix(3.453919,0,0,3.440583,0,0.00982162)"/>
<path style="fill-rule:nonzero;fill:rgb(0%,0%,0%);fill-opacity:1;stroke-width:0.08;stroke-linecap:butt;stroke-linejoin:miter;stroke:rgb(0%,0%,0%);stroke-opacity:1;stroke-miterlimit:22.9256;" d="M 2.430437 7.170257 L 1.210129 6.03037 C 1.100426 5.920242 0.919472 5.93046 0.809769 6.039453 C 0.700065 6.149582 0.710244 6.330102 0.819947 6.44023 L 2.040255 7.580117 C 2.149958 7.690245 2.329781 7.680027 2.439484 7.569899 C 2.550319 7.45977 2.54014 7.280386 2.430437 7.170257 Z M 2.430437 7.170257 " transform="matrix(3.453919,0,0,3.440583,0,0.00982162)"/>
<path style="fill:none;stroke-width:0.68;stroke-linecap:butt;stroke-linejoin:miter;stroke:rgb(0%,0%,0%);stroke-opacity:1;stroke-miterlimit:22.9256;" d="M 0.27956 -0.000120319 L 21.840202 -0.000120319 C 21.994125 -0.000120319 22.120157 0.125168 22.120157 0.280392 L 22.120157 3.259583 C 22.120157 3.414807 21.994125 3.540095 21.840202 3.540095 L 0.27956 3.540095 C 0.125637 3.540095 -0.000394482 3.414807 -0.000394482 3.259583 L -0.000394482 0.280392 C -0.000394482 0.125168 0.125637 -0.000120319 0.27956 -0.000120319 Z M 0.27956 -0.000120319 " transform="matrix(0.000000000000100534,-3.781304,3.523135,0.000000000000092948,13.961361,84.818821)"/>
</g>
</svg>
