<?xml version="1.0" encoding="UTF-8"?>
<svg xmlns="http://www.w3.org/2000/svg" xmlns:xlink="http://www.w3.org/1999/xlink" width="28px" height="28px" viewBox="0 0 28 9" version="1.1">
<g id="surface1">
<path style="fill-rule:nonzero;fill:rgb(0%,0%,0%);fill-opacity:1;stroke-width:0.21;stroke-linecap:butt;stroke-linejoin:miter;stroke:rgb(0%,0%,0%);stroke-opacity:1;stroke-miterlimit:22.9256;" d="M 10.246324 3.178266 C 10.64226 3.178266 10.959008 3.497868 10.959008 3.888493 L 10.959008 6.77379 C 10.959008 7.164415 10.64226 7.484017 10.246324 7.484017 L 6.102197 7.484017 C 5.706261 7.484017 5.389513 7.164415 5.389513 6.77379 L 5.389513 3.888493 C 5.389513 3.497868 5.706261 3.178266 6.102197 3.178266 Z M 6.82368 6.063563 L 9.542438 6.063563 L 9.542438 4.59872 L 6.82368 4.59872 Z M 6.82368 6.063563 " transform="matrix(0.443964,0,0,0.44,0.00178083,0)"/>
<path style="fill-rule:nonzero;fill:rgb(0%,0%,0%);fill-opacity:1;stroke-width:0.21;stroke-linecap:butt;stroke-linejoin:miter;stroke:rgb(0%,0%,0%);stroke-opacity:1;stroke-miterlimit:22.9256;" d="M 21.922028 3.178266 C 22.309165 3.178266 22.625913 3.497868 22.625913 3.888493 L 22.625913 6.77379 C 22.625913 7.164415 22.309165 7.484017 21.922028 7.484017 L 17.769102 7.484017 C 17.381965 7.484017 17.056418 7.164415 17.056418 6.77379 L 17.056418 3.888493 C 17.056418 3.497868 17.381965 3.178266 17.769102 3.178266 Z M 18.490585 6.063563 L 21.209343 6.063563 L 21.209343 4.59872 L 18.490585 4.59872 Z M 18.490585 6.063563 " transform="matrix(0.443964,0,0,0.44,0.00178083,0)"/>
<path style="fill-rule:nonzero;fill:rgb(0%,0%,0%);fill-opacity:1;stroke-width:0.21;stroke-linecap:butt;stroke-linejoin:miter;stroke:rgb(0%,0%,0%);stroke-opacity:1;stroke-miterlimit:22.9256;" d="M 33.597731 3.178266 C 33.993667 3.178266 34.310416 3.497868 34.310416 3.888493 L 34.310416 6.77379 C 34.310416 7.164415 33.993667 7.484017 33.597731 7.484017 L 29.453604 7.484017 C 29.057669 7.484017 28.74092 7.164415 28.74092 6.77379 L 28.74092 3.888493 C 28.74092 3.497868 29.057669 3.178266 29.453604 3.178266 Z M 30.166289 6.063563 L 32.893846 6.063563 L 32.893846 4.59872 L 30.166289 4.59872 Z M 30.166289 6.063563 " transform="matrix(0.443964,0,0,0.44,0.00178083,0)"/>
<path style="fill-rule:nonzero;fill:rgb(0%,0%,0%);fill-opacity:1;stroke-width:0.21;stroke-linecap:butt;stroke-linejoin:miter;stroke:rgb(0%,0%,0%);stroke-opacity:1;stroke-miterlimit:22.9256;" d="M 45.282234 3.178266 C 45.669371 3.178266 45.986119 3.497868 45.986119 3.888493 L 45.986119 6.77379 C 45.986119 7.164415 45.669371 7.484017 45.282234 7.484017 L 41.129308 7.484017 C 40.742171 7.484017 40.416624 7.164415 40.416624 6.77379 L 40.416624 3.888493 C 40.416624 3.497868 40.742171 3.178266 41.129308 3.178266 Z M 41.850791 6.063563 L 44.569549 6.063563 L 44.569549 4.59872 L 41.850791 4.59872 Z M 41.850791 6.063563 " transform="matrix(0.443964,0,0,0.44,0.00178083,0)"/>
<path style="fill-rule:nonzero;fill:rgb(0%,0%,0%);fill-opacity:1;stroke-width:0.21;stroke-linecap:butt;stroke-linejoin:miter;stroke:rgb(0%,0%,0%);stroke-opacity:1;stroke-miterlimit:22.9256;" d="M 56.957937 3.178266 C 57.353873 3.178266 57.670621 3.497868 57.670621 3.888493 L 57.670621 6.77379 C 57.670621 7.164415 57.353873 7.484017 56.957937 7.484017 L 52.81381 7.484017 C 52.417875 7.484017 52.101126 7.164415 52.101126 6.77379 L 52.101126 3.888493 C 52.101126 3.497868 52.417875 3.178266 52.81381 3.178266 Z M 53.526495 6.063563 L 56.254051 6.063563 L 56.254051 4.59872 L 53.526495 4.59872 Z M 53.526495 6.063563 " transform="matrix(0.443964,0,0,0.44,0.00178083,0)"/>
<path style="fill-rule:nonzero;fill:rgb(0%,0%,0%);fill-opacity:1;stroke-width:0.21;stroke-linecap:butt;stroke-linejoin:miter;stroke:rgb(0%,0%,0%);stroke-opacity:1;stroke-miterlimit:22.9256;" d="M 15.217517 17.098715 L 18.112246 14.018105 C 18.376204 13.734014 18.833729 13.716259 19.124082 13.991472 C 19.405636 14.257807 19.423233 14.710577 19.150478 15.003545 L 16.255748 18.084155 C 15.991791 18.368246 15.543064 18.377123 15.252711 18.110788 C 14.962358 17.835575 14.953559 17.391683 15.217517 17.098715 Z M 15.217517 17.098715 " transform="matrix(0.443964,0,0,0.44,0.00178083,0)"/>
<path style="fill-rule:nonzero;fill:rgb(0%,0%,0%);fill-opacity:1;stroke-width:0.21;stroke-linecap:butt;stroke-linejoin:miter;stroke:rgb(0%,0%,0%);stroke-opacity:1;stroke-miterlimit:22.9256;" d="M 30.817383 19.33593 L 30.817383 14.497508 C 30.817383 14.106884 31.14293 13.787281 31.530067 13.787281 C 31.917204 13.787281 32.242751 14.106884 32.242751 14.497508 L 32.242751 19.33593 C 32.242751 19.726555 31.917204 20.046157 31.530067 20.046157 C 31.14293 20.046157 30.817383 19.726555 30.817383 19.33593 Z M 30.817383 19.33593 " transform="matrix(0.443964,0,0,0.44,0.00178083,0)"/>
<path style="fill-rule:nonzero;fill:rgb(0%,0%,0%);fill-opacity:1;stroke-width:0.21;stroke-linecap:butt;stroke-linejoin:miter;stroke:rgb(0%,0%,0%);stroke-opacity:1;stroke-miterlimit:22.9256;" d="M 44.947888 14.009227 L 47.842618 17.089837 C 48.106575 17.382806 48.088978 17.826697 47.807423 18.10191 C 47.517071 18.368246 47.068343 18.35049 46.804386 18.066399 L 43.909656 14.985789 C 43.636901 14.701699 43.663296 14.248929 43.936052 13.982594 C 44.226405 13.707381 44.683931 13.734014 44.947888 14.009227 Z M 44.947888 14.009227 " transform="matrix(0.443964,0,0,0.44,0.00178083,0)"/>
<path style="fill:none;stroke-width:1.7;stroke-linecap:butt;stroke-linejoin:miter;stroke:rgb(0%,0%,0%);stroke-opacity:1;stroke-miterlimit:22.9256;" d="M 1.641322 0.852272 L 61.418813 0.852272 C 61.858741 0.852272 62.210684 1.180752 62.210684 1.580255 L 62.210684 9.224073 C 62.210684 9.623576 61.858741 9.952056 61.418813 9.952056 L 1.641322 9.952056 C 1.201393 9.952056 0.84945 9.623576 0.84945 9.224073 L 0.84945 1.580255 C 0.84945 1.180752 1.201393 0.852272 1.641322 0.852272 Z M 1.641322 0.852272 " transform="matrix(0.443964,0,0,0.44,0.00178083,0)"/>
</g>
</svg>
