<?xml version="1.0" encoding="UTF-8"?>
<svg xmlns="http://www.w3.org/2000/svg" xmlns:xlink="http://www.w3.org/1999/xlink" width="28px" height="28px" viewBox="0 0 28 28" version="1.1">
<g id="surface1">
<path style="fill-rule:nonzero;fill:rgb(0%,0%,0%);fill-opacity:1;stroke-width:0.21;stroke-linecap:butt;stroke-linejoin:miter;stroke:rgb(0%,0%,0%);stroke-opacity:1;stroke-miterlimit:22.9256;" d="M 10.246327 3.178267 C 10.642263 3.178267 10.959012 3.497869 10.959012 3.888494 L 10.959012 6.773793 C 10.959012 7.164418 10.642263 7.48402 10.246327 7.48402 L 6.102199 7.48402 C 5.706263 7.48402 5.389515 7.164418 5.389515 6.773793 L 5.389515 3.888494 C 5.389515 3.497869 5.706263 3.178267 6.102199 3.178267 Z M 6.823682 6.063565 L 9.542441 6.063565 L 9.542441 4.598722 L 6.823682 4.598722 Z M 6.823682 6.063565 " transform="matrix(0.443964,0,0,0.44,0.00178083,9.5)"/>
<path style="fill-rule:nonzero;fill:rgb(0%,0%,0%);fill-opacity:1;stroke-width:0.21;stroke-linecap:butt;stroke-linejoin:miter;stroke:rgb(0%,0%,0%);stroke-opacity:1;stroke-miterlimit:22.9256;" d="M 21.922035 3.178267 C 22.309172 3.178267 22.625921 3.497869 22.625921 3.888494 L 22.625921 6.773793 C 22.625921 7.164418 22.309172 7.48402 21.922035 7.48402 L 17.769108 7.48402 C 17.381971 7.48402 17.056423 7.164418 17.056423 6.773793 L 17.056423 3.888494 C 17.056423 3.497869 17.381971 3.178267 17.769108 3.178267 Z M 18.490591 6.063565 L 21.20935 6.063565 L 21.20935 4.598722 L 18.490591 4.598722 Z M 18.490591 6.063565 " transform="matrix(0.443964,0,0,0.44,0.00178083,9.5)"/>
<path style="fill-rule:nonzero;fill:rgb(0%,0%,0%);fill-opacity:1;stroke-width:0.21;stroke-linecap:butt;stroke-linejoin:miter;stroke:rgb(0%,0%,0%);stroke-opacity:1;stroke-miterlimit:22.9256;" d="M 33.597742 3.178267 C 33.993678 3.178267 34.310426 3.497869 34.310426 3.888494 L 34.310426 6.773793 C 34.310426 7.164418 33.993678 7.48402 33.597742 7.48402 L 29.453614 7.48402 C 29.057678 7.48402 28.740929 7.164418 28.740929 6.773793 L 28.740929 3.888494 C 28.740929 3.497869 29.057678 3.178267 29.453614 3.178267 Z M 30.166298 6.063565 L 32.893856 6.063565 L 32.893856 4.598722 L 30.166298 4.598722 Z M 30.166298 6.063565 " transform="matrix(0.443964,0,0,0.44,0.00178083,9.5)"/>
<path style="fill-rule:nonzero;fill:rgb(0%,0%,0%);fill-opacity:1;stroke-width:0.21;stroke-linecap:butt;stroke-linejoin:miter;stroke:rgb(0%,0%,0%);stroke-opacity:1;stroke-miterlimit:22.9256;" d="M 45.282248 3.178267 C 45.669385 3.178267 45.986134 3.497869 45.986134 3.888494 L 45.986134 6.773793 C 45.986134 7.164418 45.669385 7.48402 45.282248 7.48402 L 41.129321 7.48402 C 40.742184 7.48402 40.416637 7.164418 40.416637 6.773793 L 40.416637 3.888494 C 40.416637 3.497869 40.742184 3.178267 41.129321 3.178267 Z M 41.850804 6.063565 L 44.569563 6.063565 L 44.569563 4.598722 L 41.850804 4.598722 Z M 41.850804 6.063565 " transform="matrix(0.443964,0,0,0.44,0.00178083,9.5)"/>
<path style="fill-rule:nonzero;fill:rgb(0%,0%,0%);fill-opacity:1;stroke-width:0.21;stroke-linecap:butt;stroke-linejoin:miter;stroke:rgb(0%,0%,0%);stroke-opacity:1;stroke-miterlimit:22.9256;" d="M 56.957955 3.178267 C 57.353891 3.178267 57.67064 3.497869 57.67064 3.888494 L 57.67064 6.773793 C 57.67064 7.164418 57.353891 7.48402 56.957955 7.48402 L 52.813827 7.48402 C 52.417891 7.48402 52.101143 7.164418 52.101143 6.773793 L 52.101143 3.888494 C 52.101143 3.497869 52.417891 3.178267 52.813827 3.178267 Z M 53.526512 6.063565 L 56.254069 6.063565 L 56.254069 4.598722 L 53.526512 4.598722 Z M 53.526512 6.063565 " transform="matrix(0.443964,0,0,0.44,0.00178083,9.5)"/>
<path style="fill-rule:nonzero;fill:rgb(0%,0%,0%);fill-opacity:1;stroke-width:0.21;stroke-linecap:butt;stroke-linejoin:miter;stroke:rgb(0%,0%,0%);stroke-opacity:1;stroke-miterlimit:22.9256;" d="M 15.217521 17.098722 L 18.112252 14.018111 C 18.376209 13.73402 18.833735 13.716264 19.124088 13.991477 C 19.405643 14.257812 19.42324 14.710582 19.150484 15.003551 L 16.255753 18.084162 C 15.991796 18.368253 15.543069 18.377131 15.252716 18.110795 C 14.962363 17.835582 14.953564 17.39169 15.217521 17.098722 Z M 15.217521 17.098722 " transform="matrix(0.443964,0,0,0.44,0.00178083,9.5)"/>
<path style="fill-rule:nonzero;fill:rgb(0%,0%,0%);fill-opacity:1;stroke-width:0.21;stroke-linecap:butt;stroke-linejoin:miter;stroke:rgb(0%,0%,0%);stroke-opacity:1;stroke-miterlimit:22.9256;" d="M 30.817393 19.335938 L 30.817393 14.497514 C 30.817393 14.106889 31.14294 13.787287 31.530077 13.787287 C 31.917214 13.787287 32.242762 14.106889 32.242762 14.497514 L 32.242762 19.335938 C 32.242762 19.726562 31.917214 20.046165 31.530077 20.046165 C 31.14294 20.046165 30.817393 19.726562 30.817393 19.335938 Z M 30.817393 19.335938 " transform="matrix(0.443964,0,0,0.44,0.00178083,9.5)"/>
<path style="fill-rule:nonzero;fill:rgb(0%,0%,0%);fill-opacity:1;stroke-width:0.21;stroke-linecap:butt;stroke-linejoin:miter;stroke:rgb(0%,0%,0%);stroke-opacity:1;stroke-miterlimit:22.9256;" d="M 44.947902 14.009233 L 47.842633 17.089844 C 48.10659 17.382812 48.088993 17.826705 47.807439 18.101918 C 47.517086 18.368253 47.068358 18.350497 46.804401 18.066406 L 43.90967 14.985795 C 43.636915 14.701705 43.66331 14.248935 43.936066 13.982599 C 44.226419 13.707386 44.683945 13.73402 44.947902 14.009233 Z M 44.947902 14.009233 " transform="matrix(0.443964,0,0,0.44,0.00178083,9.5)"/>
<path style="fill:none;stroke-width:1.7;stroke-linecap:butt;stroke-linejoin:miter;stroke:rgb(0%,0%,0%);stroke-opacity:1;stroke-miterlimit:22.9256;" d="M 1.641322 0.852273 L 61.418832 0.852273 C 61.858761 0.852273 62.210704 1.180753 62.210704 1.580256 L 62.210704 9.224077 C 62.210704 9.62358 61.858761 9.95206 61.418832 9.95206 L 1.641322 9.95206 C 1.201393 9.95206 0.84945 9.62358 0.84945 9.224077 L 0.84945 1.580256 C 0.84945 1.180753 1.201393 0.852273 1.641322 0.852273 Z M 1.641322 0.852273 " transform="matrix(0.443964,0,0,0.44,0.00178083,9.5)"/>
</g>
</svg>
