<?xml version="1.0" encoding="UTF-8"?>
<svg xmlns="http://www.w3.org/2000/svg" xmlns:xlink="http://www.w3.org/1999/xlink" width="28px" height="28px" viewBox="0 0 28 31" version="1.1">
<g id="surface1">
<path style="fill-rule:nonzero;fill:rgb(0%,0%,0%);fill-opacity:1;stroke-width:0.17;stroke-linecap:butt;stroke-linejoin:miter;stroke:rgb(0%,0%,0%);stroke-opacity:1;stroke-miterlimit:22.9256;" d="M 7.061915 11.912563 C 7.341956 11.912563 7.561119 11.689865 7.561119 11.411493 L 7.561119 9.388655 C 7.561119 9.110283 7.341956 8.887585 7.061915 8.887585 L 4.151919 8.887585 C 3.871877 8.887585 3.652715 9.110283 3.652715 9.388655 L 3.652715 11.411493 C 3.652715 11.689865 3.871877 11.912563 4.151919 11.912563 Z M 4.651123 9.889725 L 6.562711 9.889725 L 6.562711 10.910423 L 4.651123 10.910423 Z M 4.651123 9.889725 " transform="matrix(0.641646,0,0,0.631461,0,0.00111594)"/>
<path style="fill-rule:nonzero;fill:rgb(0%,0%,0%);fill-opacity:1;stroke-width:0.17;stroke-linecap:butt;stroke-linejoin:miter;stroke:rgb(0%,0%,0%);stroke-opacity:1;stroke-miterlimit:22.9256;" d="M 15.250083 11.912563 C 15.530125 11.912563 15.749288 11.689865 15.749288 11.411493 L 15.749288 9.388655 C 15.749288 9.110283 15.530125 8.887585 15.250083 8.887585 L 12.340087 8.887585 C 12.060046 8.887585 11.840883 9.110283 11.840883 9.388655 L 11.840883 11.411493 C 11.840883 11.689865 12.060046 11.912563 12.340087 11.912563 Z M 12.839292 9.889725 L 14.750879 9.889725 L 14.750879 10.910423 L 12.839292 10.910423 Z M 12.839292 9.889725 " transform="matrix(0.641646,0,0,0.631461,0,0.00111594)"/>
<path style="fill-rule:nonzero;fill:rgb(0%,0%,0%);fill-opacity:1;stroke-width:0.17;stroke-linecap:butt;stroke-linejoin:miter;stroke:rgb(0%,0%,0%);stroke-opacity:1;stroke-miterlimit:22.9256;" d="M 23.432164 11.912563 C 23.712205 11.912563 23.931368 11.689865 23.931368 11.411493 L 23.931368 9.388655 C 23.931368 9.110283 23.712205 8.887585 23.432164 8.887585 L 20.522168 8.887585 C 20.242127 8.887585 20.022964 9.110283 20.022964 9.388655 L 20.022964 11.411493 C 20.022964 11.689865 20.242127 11.912563 20.522168 11.912563 Z M 21.021372 9.889725 L 22.93296 9.889725 L 22.93296 10.910423 L 21.021372 10.910423 Z M 21.021372 9.889725 " transform="matrix(0.641646,0,0,0.631461,0,0.00111594)"/>
<path style="fill-rule:nonzero;fill:rgb(0%,0%,0%);fill-opacity:1;stroke-width:0.17;stroke-linecap:butt;stroke-linejoin:miter;stroke:rgb(0%,0%,0%);stroke-opacity:1;stroke-miterlimit:22.9256;" d="M 31.620333 11.912563 C 31.900374 11.912563 32.119537 11.689865 32.119537 11.411493 L 32.119537 9.388655 C 32.119537 9.110283 31.900374 8.887585 31.620333 8.887585 L 28.710337 8.887585 C 28.430295 8.887585 28.211132 9.110283 28.211132 9.388655 L 28.211132 11.411493 C 28.211132 11.689865 28.430295 11.912563 28.710337 11.912563 Z M 29.209541 9.889725 L 31.121128 9.889725 L 31.121128 10.910423 L 29.209541 10.910423 Z M 29.209541 9.889725 " transform="matrix(0.641646,0,0,0.631461,0,0.00111594)"/>
<path style="fill-rule:nonzero;fill:rgb(0%,0%,0%);fill-opacity:1;stroke-width:0.17;stroke-linecap:butt;stroke-linejoin:miter;stroke:rgb(0%,0%,0%);stroke-opacity:1;stroke-miterlimit:22.9256;" d="M 39.802413 11.912563 C 40.082455 11.912563 40.301617 11.689865 40.301617 11.411493 L 40.301617 9.388655 C 40.301617 9.110283 40.082455 8.887585 39.802413 8.887585 L 36.898505 8.887585 C 36.618464 8.887585 36.399301 9.110283 36.399301 9.388655 L 36.399301 11.411493 C 36.399301 11.689865 36.618464 11.912563 36.898505 11.912563 Z M 37.391622 9.889725 L 39.297121 9.889725 L 39.297121 10.910423 L 37.391622 10.910423 Z M 37.391622 9.889725 " transform="matrix(0.641646,0,0,0.631461,0,0.00111594)"/>
<path style="fill-rule:nonzero;fill:rgb(0%,0%,0%);fill-opacity:1;stroke-width:0.17;stroke-linecap:butt;stroke-linejoin:miter;stroke:rgb(0%,0%,0%);stroke-opacity:1;stroke-miterlimit:22.9256;" d="M 7.061915 23.121683 L 4.151919 23.121683 C 3.871877 23.121683 3.652715 23.338195 3.652715 23.622753 L 3.652715 25.639405 C 3.652715 25.917778 3.871877 26.140475 4.151919 26.140475 L 7.061915 26.140475 C 7.341956 26.140475 7.561119 25.917778 7.561119 25.639405 L 7.561119 23.622753 C 7.561119 23.338195 7.341956 23.121683 7.061915 23.121683 Z M 6.562711 25.138335 L 4.651123 25.138335 L 4.651123 24.117637 L 6.562711 24.117637 Z M 6.562711 25.138335 " transform="matrix(0.641646,0,0,0.631461,0,0.00111594)"/>
<path style="fill-rule:nonzero;fill:rgb(0%,0%,0%);fill-opacity:1;stroke-width:0.17;stroke-linecap:butt;stroke-linejoin:miter;stroke:rgb(0%,0%,0%);stroke-opacity:1;stroke-miterlimit:22.9256;" d="M 15.250083 23.121683 L 12.340087 23.121683 C 12.060046 23.121683 11.840883 23.338195 11.840883 23.622753 L 11.840883 25.639405 C 11.840883 25.917778 12.060046 26.140475 12.340087 26.140475 L 15.250083 26.140475 C 15.530125 26.140475 15.749288 25.917778 15.749288 25.639405 L 15.749288 23.622753 C 15.749288 23.338195 15.530125 23.121683 15.250083 23.121683 Z M 14.750879 25.138335 L 12.839292 25.138335 L 12.839292 24.117637 L 14.750879 24.117637 Z M 14.750879 25.138335 " transform="matrix(0.641646,0,0,0.631461,0,0.00111594)"/>
<path style="fill-rule:nonzero;fill:rgb(0%,0%,0%);fill-opacity:1;stroke-width:0.17;stroke-linecap:butt;stroke-linejoin:miter;stroke:rgb(0%,0%,0%);stroke-opacity:1;stroke-miterlimit:22.9256;" d="M 20.029052 25.639405 C 20.029052 25.917778 20.248214 26.140475 20.528256 26.140475 L 23.432164 26.140475 C 23.712205 26.140475 23.931368 25.917778 23.931368 25.639405 L 23.931368 23.622753 C 23.931368 23.338195 23.712205 23.121683 23.432164 23.121683 L 20.528256 23.121683 C 20.248214 23.121683 20.029052 23.338195 20.029052 23.622753 Z M 21.02746 24.117637 L 22.939048 24.117637 L 22.939048 25.138335 L 21.02746 25.138335 Z M 21.02746 24.117637 " transform="matrix(0.641646,0,0,0.631461,0,0.00111594)"/>
<path style="fill-rule:nonzero;fill:rgb(0%,0%,0%);fill-opacity:1;stroke-width:0.17;stroke-linecap:butt;stroke-linejoin:miter;stroke:rgb(0%,0%,0%);stroke-opacity:1;stroke-miterlimit:22.9256;" d="M 28.710337 26.140475 L 31.608157 26.140475 C 31.888198 26.140475 32.107361 25.917778 32.107361 25.639405 L 32.107361 23.622753 C 32.107361 23.338195 31.888198 23.121683 31.608157 23.121683 L 28.710337 23.121683 C 28.430295 23.121683 28.211132 23.338195 28.211132 23.622753 L 28.211132 25.639405 C 28.211132 25.917778 28.430295 26.140475 28.710337 26.140475 Z M 29.209541 24.117637 L 31.121128 24.117637 L 31.121128 25.138335 L 29.209541 25.138335 Z M 29.209541 24.117637 " transform="matrix(0.641646,0,0,0.631461,0,0.00111594)"/>
<path style="fill-rule:nonzero;fill:rgb(0%,0%,0%);fill-opacity:1;stroke-width:0.17;stroke-linecap:butt;stroke-linejoin:miter;stroke:rgb(0%,0%,0%);stroke-opacity:1;stroke-miterlimit:22.9256;" d="M 36.892417 26.140475 L 39.802413 26.140475 C 40.082455 26.140475 40.301617 25.917778 40.301617 25.639405 L 40.301617 23.622753 C 40.301617 23.338195 40.082455 23.121683 39.802413 23.121683 L 36.892417 23.121683 C 36.612376 23.121683 36.387125 23.338195 36.387125 23.622753 L 36.387125 25.639405 C 36.387125 25.917778 36.612376 26.140475 36.892417 26.140475 Z M 37.391622 24.117637 L 39.297121 24.117637 L 39.297121 25.138335 L 37.391622 25.138335 Z M 37.391622 24.117637 " transform="matrix(0.641646,0,0,0.631461,0,0.00111594)"/>
<path style="fill-rule:nonzero;fill:rgb(0%,0%,0%);fill-opacity:1;stroke-width:0.17;stroke-linecap:butt;stroke-linejoin:miter;stroke:rgb(0%,0%,0%);stroke-opacity:1;stroke-miterlimit:22.9256;" d="M 43.869102 8.157631 C 43.869102 7.341073 43.199438 6.660607 42.371489 6.660607 L 0.578346 6.660607 C 0.298305 6.660607 0.0791421 6.877119 0.0791421 7.161677 C 0.0791421 7.44005 0.298305 7.662747 0.578346 7.662747 L 42.371489 7.662747 C 42.651531 7.662747 42.870693 7.879259 42.870693 8.157631 L 42.870693 13.149773 C 41.500925 13.149773 1.96029 13.149773 0.578346 13.149773 C 0.298305 13.149773 0.0791421 13.37247 0.0791421 13.650843 C 0.0791421 13.929215 0.298305 14.151913 0.578346 14.151913 L 20.790034 14.151913 L 0.420062 20.91945 C 0.219163 20.987497 0.0791421 21.179264 0.0791421 21.38959 L 0.0791421 26.882801 C 0.0791421 27.69936 0.748806 28.379825 1.582843 28.379825 L 20.80221 28.379825 L 0.432238 35.147362 C 0.237426 35.209223 0.0913179 35.40099 0.0913179 35.617502 L 0.0913179 41.110714 C 0.0913179 41.927272 0.760982 42.607737 1.588931 42.607737 L 43.382073 42.607737 C 43.662115 42.607737 43.881278 42.391226 43.881278 42.112854 C 43.881278 41.828295 43.662115 41.611784 43.382073 41.611784 L 1.588931 41.611784 C 1.321065 41.611784 1.089727 41.389086 1.089727 41.110714 L 1.089727 36.118572 L 43.382073 36.118572 C 43.662115 36.118572 43.881278 35.90206 43.881278 35.617502 C 43.881278 35.33913 43.662115 35.122618 43.382073 35.122618 L 23.170386 35.122618 L 43.540358 28.348895 C 43.741257 28.280848 43.881278 28.089081 43.881278 27.878755 L 43.881278 22.39173 C 43.881278 21.568985 43.211613 20.88852 42.377577 20.88852 L 23.15821 20.88852 C 23.231265 20.869962 43.479479 14.127168 43.552533 14.10861 C 43.741257 14.040564 43.869102 13.848796 43.869102 13.638471 L 43.869102 8.151445 Z M 19.998612 35.122618 L 3.670978 35.122618 L 23.961808 28.367453 L 40.289442 28.367453 Z M 42.882869 22.39173 L 42.882869 27.377685 C 40.17986 27.377685 3.281355 27.377685 1.588931 27.377685 C 1.321065 27.377685 1.089727 27.161173 1.089727 26.882801 L 1.089727 21.89066 L 42.377577 21.89066 C 42.657618 21.89066 42.882869 22.107171 42.882869 22.39173 Z M 19.998612 20.88852 L 3.670978 20.88852 L 23.961808 14.13954 L 40.289442 14.13954 Z M 19.998612 20.88852 " transform="matrix(0.641646,0,0,0.631461,0,0.00111594)"/>
<path style="fill-rule:nonzero;fill:rgb(0%,0%,0%);fill-opacity:1;stroke-width:0.17;stroke-linecap:butt;stroke-linejoin:miter;stroke:rgb(0%,0%,0%);stroke-opacity:1;stroke-miterlimit:22.9256;" d="M 10.550257 2.157164 L 12.571426 4.322281 C 12.76015 4.520234 13.07063 4.532607 13.27153 4.340839 C 13.472429 4.149072 13.478517 3.839769 13.289793 3.641816 L 11.268624 1.482884 C 11.079901 1.278745 10.76942 1.272559 10.568521 1.45814 C 10.367622 1.649908 10.361534 1.95921 10.550257 2.157164 Z M 10.550257 2.157164 " transform="matrix(0.641646,0,0,0.631461,0,0.00111594)"/>
<path style="fill-rule:nonzero;fill:rgb(0%,0%,0%);fill-opacity:1;stroke-width:0.17;stroke-linecap:butt;stroke-linejoin:miter;stroke:rgb(0%,0%,0%);stroke-opacity:1;stroke-miterlimit:22.9256;" d="M 21.477962 0.579721 L 21.477962 3.969676 C 21.477962 4.248048 21.697125 4.470746 21.977166 4.470746 C 22.257207 4.470746 22.482458 4.248048 22.482458 3.969676 L 22.482458 0.579721 C 22.482458 0.301349 22.257207 0.0786514 21.977166 0.0786514 C 21.697125 0.0786514 21.477962 0.301349 21.477962 0.579721 Z M 21.477962 0.579721 " transform="matrix(0.641646,0,0,0.631461,0,0.00111594)"/>
<path style="fill-rule:nonzero;fill:rgb(0%,0%,0%);fill-opacity:1;stroke-width:0.17;stroke-linecap:butt;stroke-linejoin:miter;stroke:rgb(0%,0%,0%);stroke-opacity:1;stroke-miterlimit:22.9256;" d="M 31.388994 4.322281 L 33.410163 2.157164 C 33.598886 1.95921 33.592798 1.637536 33.391899 1.45814 C 33.191 1.272559 32.868343 1.278745 32.691795 1.482884 L 30.670627 3.641816 C 30.481903 3.839769 30.487991 4.161444 30.68889 4.340839 C 30.88979 4.532607 31.212446 4.520234 31.388994 4.322281 Z M 31.388994 4.322281 " transform="matrix(0.641646,0,0,0.631461,0,0.00111594)"/>
<path style="fill-rule:nonzero;fill:rgb(0%,0%,0%);fill-opacity:1;stroke-width:0.17;stroke-linecap:butt;stroke-linejoin:miter;stroke:rgb(0%,0%,0%);stroke-opacity:1;stroke-miterlimit:22.9256;" d="M 30.682802 44.92132 C 30.481903 45.113087 30.469727 45.42239 30.658451 45.620343 L 32.67962 47.779274 C 32.868343 47.977228 33.178824 47.9896 33.379723 47.797832 C 33.580623 47.612251 33.592798 47.302949 33.397987 47.098809 L 31.382906 44.939878 C 31.188095 44.741924 30.877614 44.729552 30.682802 44.92132 Z M 30.682802 44.92132 " transform="matrix(0.641646,0,0,0.631461,0,0.00111594)"/>
<path style="fill-rule:nonzero;fill:rgb(0%,0%,0%);fill-opacity:1;stroke-width:0.17;stroke-linecap:butt;stroke-linejoin:miter;stroke:rgb(0%,0%,0%);stroke-opacity:1;stroke-miterlimit:22.9256;" d="M 21.477962 45.280111 L 21.477962 48.670065 C 21.477962 48.948438 21.697125 49.171135 21.977166 49.171135 C 22.257207 49.171135 22.482458 48.948438 22.482458 48.670065 L 22.482458 45.280111 C 22.482458 45.001738 22.257207 44.779041 21.977166 44.779041 C 21.697125 44.779041 21.477962 45.001738 21.477962 45.280111 Z M 21.477962 45.280111 " transform="matrix(0.641646,0,0,0.631461,0,0.00111594)"/>
<path style="fill-rule:nonzero;fill:rgb(0%,0%,0%);fill-opacity:1;stroke-width:0.17;stroke-linecap:butt;stroke-linejoin:miter;stroke:rgb(0%,0%,0%);stroke-opacity:1;stroke-miterlimit:22.9256;" d="M 12.571426 44.939878 L 10.550257 47.098809 C 10.361534 47.302949 10.367622 47.618437 10.568521 47.797832 C 10.76942 47.9896 11.092077 47.977228 11.268624 47.779274 L 13.289793 45.620343 C 13.478517 45.42239 13.472429 45.100715 13.27153 44.92132 C 13.07063 44.729552 12.747974 44.741924 12.571426 44.939878 Z M 12.571426 44.939878 " transform="matrix(0.641646,0,0,0.631461,0,0.00111594)"/>
<path style="fill-rule:nonzero;fill:rgb(0%,0%,0%);fill-opacity:1;stroke-width:0.17;stroke-linecap:butt;stroke-linejoin:miter;stroke:rgb(0%,0%,0%);stroke-opacity:1;stroke-miterlimit:22.9256;" d="M 7.061915 37.133084 L 4.151919 37.133084 C 3.871877 37.133084 3.652715 37.349596 3.652715 37.627968 L 3.652715 39.650806 C 3.652715 39.929178 3.871877 40.151876 4.151919 40.151876 L 7.061915 40.151876 C 7.341956 40.151876 7.561119 39.929178 7.561119 39.650806 L 7.561119 37.627968 C 7.561119 37.349596 7.341956 37.133084 7.061915 37.133084 Z M 6.562711 39.149736 L 4.651123 39.149736 L 4.651123 38.129038 L 6.562711 38.129038 Z M 6.562711 39.149736 " transform="matrix(0.641646,0,0,0.631461,0,0.00111594)"/>
<path style="fill-rule:nonzero;fill:rgb(0%,0%,0%);fill-opacity:1;stroke-width:0.17;stroke-linecap:butt;stroke-linejoin:miter;stroke:rgb(0%,0%,0%);stroke-opacity:1;stroke-miterlimit:22.9256;" d="M 15.250083 37.133084 L 12.340087 37.133084 C 12.060046 37.133084 11.840883 37.349596 11.840883 37.627968 L 11.840883 39.650806 C 11.840883 39.929178 12.060046 40.151876 12.340087 40.151876 L 15.250083 40.151876 C 15.530125 40.151876 15.749288 39.929178 15.749288 39.650806 L 15.749288 37.627968 C 15.749288 37.349596 15.530125 37.133084 15.250083 37.133084 Z M 14.750879 39.149736 L 12.839292 39.149736 L 12.839292 38.129038 L 14.750879 38.129038 Z M 14.750879 39.149736 " transform="matrix(0.641646,0,0,0.631461,0,0.00111594)"/>
<path style="fill-rule:nonzero;fill:rgb(0%,0%,0%);fill-opacity:1;stroke-width:0.17;stroke-linecap:butt;stroke-linejoin:miter;stroke:rgb(0%,0%,0%);stroke-opacity:1;stroke-miterlimit:22.9256;" d="M 20.029052 39.650806 C 20.029052 39.929178 20.248214 40.151876 20.528256 40.151876 L 23.432164 40.151876 C 23.712205 40.151876 23.931368 39.929178 23.931368 39.650806 L 23.931368 37.627968 C 23.931368 37.349596 23.712205 37.133084 23.432164 37.133084 L 20.528256 37.133084 C 20.248214 37.133084 20.029052 37.349596 20.029052 37.627968 Z M 21.02746 38.129038 L 22.939048 38.129038 L 22.939048 39.149736 L 21.02746 39.149736 Z M 21.02746 38.129038 " transform="matrix(0.641646,0,0,0.631461,0,0.00111594)"/>
<path style="fill-rule:nonzero;fill:rgb(0%,0%,0%);fill-opacity:1;stroke-width:0.17;stroke-linecap:butt;stroke-linejoin:miter;stroke:rgb(0%,0%,0%);stroke-opacity:1;stroke-miterlimit:22.9256;" d="M 28.710337 40.151876 L 31.608157 40.151876 C 31.888198 40.151876 32.107361 39.929178 32.107361 39.650806 L 32.107361 37.627968 C 32.107361 37.349596 31.888198 37.133084 31.608157 37.133084 L 28.710337 37.133084 C 28.430295 37.133084 28.211132 37.349596 28.211132 37.627968 L 28.211132 39.650806 C 28.211132 39.929178 28.430295 40.151876 28.710337 40.151876 Z M 29.209541 38.129038 L 31.121128 38.129038 L 31.121128 39.149736 L 29.209541 39.149736 Z M 29.209541 38.129038 " transform="matrix(0.641646,0,0,0.631461,0,0.00111594)"/>
<path style="fill-rule:nonzero;fill:rgb(0%,0%,0%);fill-opacity:1;stroke-width:0.17;stroke-linecap:butt;stroke-linejoin:miter;stroke:rgb(0%,0%,0%);stroke-opacity:1;stroke-miterlimit:22.9256;" d="M 36.892417 40.151876 L 39.802413 40.151876 C 40.082455 40.151876 40.301617 39.929178 40.301617 39.650806 L 40.301617 37.627968 C 40.301617 37.349596 40.082455 37.133084 39.802413 37.133084 L 36.892417 37.133084 C 36.612376 37.133084 36.387125 37.349596 36.387125 37.627968 L 36.387125 39.650806 C 36.387125 39.929178 36.612376 40.151876 36.892417 40.151876 Z M 37.391622 38.129038 L 39.297121 38.129038 L 39.297121 39.149736 L 37.391622 39.149736 Z M 37.391622 38.129038 " transform="matrix(0.641646,0,0,0.631461,0,0.00111594)"/>
</g>
</svg>
