<?xml version="1.0" encoding="UTF-8"?>
<svg xmlns="http://www.w3.org/2000/svg" xmlns:xlink="http://www.w3.org/1999/xlink" width="28px" height="28px" viewBox="0 0 28 28" version="1.1">
<g id="surface1">
<path style="fill-rule:nonzero;fill:rgb(0%,0%,0%);fill-opacity:1;stroke-width:0.73;stroke-linecap:butt;stroke-linejoin:miter;stroke:rgb(0%,0%,0%);stroke-opacity:1;stroke-miterlimit:22.9256;" d="M 17.709055 25.160361 L 21.020668 21.617948 C 21.333656 21.294963 21.848572 21.274126 22.171656 21.576273 C 22.504837 21.888838 22.525029 22.399363 22.212041 22.732766 L 18.900428 26.275179 C 18.58744 26.598164 18.082621 26.619002 17.74944 26.306436 C 17.41626 26.004289 17.396067 25.483346 17.709055 25.160361 Z M 17.709055 25.160361 " transform="matrix(0.386896,0,0,0.374921,0,8.500446)"/>
<path style="fill-rule:nonzero;fill:rgb(0%,0%,0%);fill-opacity:1;stroke-width:0.73;stroke-linecap:butt;stroke-linejoin:miter;stroke:rgb(0%,0%,0%);stroke-opacity:1;stroke-miterlimit:22.9256;" d="M 35.620037 27.73382 L 35.620037 22.180567 C 35.620037 21.732556 35.993604 21.357477 36.437844 21.357477 C 36.892182 21.357477 37.255651 21.732556 37.255651 22.180567 L 37.255651 27.73382 C 37.255651 28.181831 36.892182 28.546491 36.437844 28.546491 C 35.993604 28.546491 35.620037 28.181831 35.620037 27.73382 Z M 35.620037 27.73382 " transform="matrix(0.386896,0,0,0.374921,0,8.500446)"/>
<path style="fill-rule:nonzero;fill:rgb(0%,0%,0%);fill-opacity:1;stroke-width:0.73;stroke-linecap:butt;stroke-linejoin:miter;stroke:rgb(0%,0%,0%);stroke-opacity:1;stroke-miterlimit:22.9256;" d="M 51.844924 21.617948 L 55.156538 25.160361 C 55.469525 25.493765 55.449333 26.014708 55.116152 26.306436 C 54.793068 26.619002 54.268056 26.598164 53.965164 26.275179 L 50.653551 22.732766 C 50.340563 22.399363 50.360756 21.87842 50.693936 21.576273 C 51.017021 21.274126 51.542033 21.294963 51.844924 21.617948 Z M 51.844924 21.617948 " transform="matrix(0.386896,0,0,0.374921,0,8.500446)"/>
<path style="fill:none;stroke-width:2.45;stroke-linecap:butt;stroke-linejoin:miter;stroke:rgb(0%,0%,0%);stroke-opacity:1;stroke-miterlimit:22.9256;" d="M 2.12024 1.217817 L 70.735256 1.217817 C 71.240075 1.217817 71.64393 1.780436 71.64393 2.478499 L 71.64393 15.700035 C 71.64393 16.398098 71.240075 16.960717 70.735256 16.960717 L 2.12024 16.960717 C 1.625518 16.960717 1.221662 16.398098 1.221662 15.700035 L 1.221662 2.478499 C 1.221662 1.780436 1.625518 1.217817 2.12024 1.217817 Z M 2.12024 1.217817 " transform="matrix(0.386896,0,0,0.374921,0,8.500446)"/>
</g>
</svg>
