<?xml version="1.0" encoding="UTF-8"?>
<svg xmlns="http://www.w3.org/2000/svg" xmlns:xlink="http://www.w3.org/1999/xlink" width="28px" height="28px" viewBox="0 0 28 11" version="1.1">
<g id="surface1">
<path style="fill-rule:nonzero;fill:rgb(0%,0%,0%);fill-opacity:1;stroke-width:0.73;stroke-linecap:butt;stroke-linejoin:miter;stroke:rgb(0%,0%,0%);stroke-opacity:1;stroke-miterlimit:22.9256;" d="M 17.709051 25.160379 L 21.020664 21.617964 C 21.333651 21.294979 21.848567 21.274141 22.171651 21.576288 C 22.504832 21.888854 22.525024 22.399379 22.212037 22.732783 L 18.900424 26.275198 C 18.587436 26.598183 18.082617 26.619021 17.749437 26.306455 C 17.416256 26.004308 17.396063 25.483364 17.709051 25.160379 Z M 17.709051 25.160379 " transform="matrix(0.386896,0,0,0.374921,0,0.00044604)"/>
<path style="fill-rule:nonzero;fill:rgb(0%,0%,0%);fill-opacity:1;stroke-width:0.73;stroke-linecap:butt;stroke-linejoin:miter;stroke:rgb(0%,0%,0%);stroke-opacity:1;stroke-miterlimit:22.9256;" d="M 35.62003 27.73384 L 35.62003 22.180583 C 35.62003 21.732571 35.993596 21.357492 36.437836 21.357492 C 36.892173 21.357492 37.255643 21.732571 37.255643 22.180583 L 37.255643 27.73384 C 37.255643 28.181851 36.892173 28.546512 36.437836 28.546512 C 35.993596 28.546512 35.62003 28.181851 35.62003 27.73384 Z M 35.62003 27.73384 " transform="matrix(0.386896,0,0,0.374921,0,0.00044604)"/>
<path style="fill-rule:nonzero;fill:rgb(0%,0%,0%);fill-opacity:1;stroke-width:0.73;stroke-linecap:butt;stroke-linejoin:miter;stroke:rgb(0%,0%,0%);stroke-opacity:1;stroke-miterlimit:22.9256;" d="M 51.844913 21.617964 L 55.156525 25.160379 C 55.469513 25.493783 55.44932 26.014726 55.11614 26.306455 C 54.793056 26.619021 54.268044 26.598183 53.965153 26.275198 L 50.65354 22.732783 C 50.340552 22.399379 50.360745 21.878435 50.693925 21.576288 C 51.017009 21.274141 51.542021 21.294979 51.844913 21.617964 Z M 51.844913 21.617964 " transform="matrix(0.386896,0,0,0.374921,0,0.00044604)"/>
<path style="fill:none;stroke-width:2.45;stroke-linecap:butt;stroke-linejoin:miter;stroke:rgb(0%,0%,0%);stroke-opacity:1;stroke-miterlimit:22.9256;" d="M 2.12024 1.217818 L 70.73524 1.217818 C 71.240059 1.217818 71.643914 1.780437 71.643914 2.478501 L 71.643914 15.700046 C 71.643914 16.39811 71.240059 16.960729 70.73524 16.960729 L 2.12024 16.960729 C 1.625517 16.960729 1.221662 16.39811 1.221662 15.700046 L 1.221662 2.478501 C 1.221662 1.780437 1.625517 1.217818 2.12024 1.217818 Z M 2.12024 1.217818 " transform="matrix(0.386896,0,0,0.374921,0,0.00044604)"/>
</g>
</svg>
