<?xml version="1.0" encoding="UTF-8"?>
<svg xmlns="http://www.w3.org/2000/svg" xmlns:xlink="http://www.w3.org/1999/xlink" width="28px" height="28px" viewBox="0 0 28 11" version="1.1">
<g id="surface1">
<path style="fill-rule:nonzero;fill:rgb(0%,0%,0%);fill-opacity:1;stroke-width:1;stroke-linecap:butt;stroke-linejoin:miter;stroke:rgb(0%,0%,0%);stroke-opacity:1;stroke-miterlimit:22.9256;" d="M 24.188921 5.136652 L 28.726067 9.961032 C 29.139789 10.416431 29.843115 10.430662 30.298209 10.003726 C 30.753303 9.591021 30.767093 8.87946 30.353372 8.424062 L 25.816225 3.599682 C 25.402504 3.144283 24.685386 3.130052 24.244083 3.556988 C 23.78899 3.969693 23.775199 4.681254 24.188921 5.136652 Z M 24.188921 5.136652 " transform="matrix(0.283252,0,0,0.274485,0,0.000223394)"/>
<path style="fill-rule:nonzero;fill:rgb(0%,0%,0%);fill-opacity:1;stroke-width:1;stroke-linecap:butt;stroke-linejoin:miter;stroke:rgb(0%,0%,0%);stroke-opacity:1;stroke-miterlimit:22.9256;" d="M 48.653656 1.621544 L 48.653656 9.206778 C 48.653656 9.832951 49.150121 10.331043 49.770704 10.331043 C 50.391286 10.331043 50.887752 9.832951 50.887752 9.206778 L 50.887752 1.621544 C 50.887752 0.995371 50.391286 0.497278 49.770704 0.497278 C 49.150121 0.497278 48.653656 0.995371 48.653656 1.621544 Z M 48.653656 1.621544 " transform="matrix(0.283252,0,0,0.274485,0,0.000223394)"/>
<path style="fill-rule:nonzero;fill:rgb(0%,0%,0%);fill-opacity:1;stroke-width:1;stroke-linecap:butt;stroke-linejoin:miter;stroke:rgb(0%,0%,0%);stroke-opacity:1;stroke-miterlimit:22.9256;" d="M 70.80155 9.975263 L 75.324905 5.136652 C 75.752418 4.695485 75.724836 3.983925 75.283533 3.556988 C 74.82844 3.144283 74.125113 3.158514 73.697601 3.613913 L 69.174245 8.438293 C 68.746733 8.893691 68.774314 9.605252 69.215617 10.017957 C 69.670711 10.444893 70.374037 10.416431 70.80155 9.975263 Z M 70.80155 9.975263 " transform="matrix(0.283252,0,0,0.274485,0,0.000223394)"/>
<path style="fill:none;stroke-width:3.34;stroke-linecap:butt;stroke-linejoin:miter;stroke:rgb(0%,0%,0%);stroke-opacity:1;stroke-miterlimit:22.9256;" d="M 2.896051 16.322382 L 96.617775 16.322382 C 97.29352 16.322382 97.845149 17.090868 97.845149 18.044358 L 97.845149 36.103762 C 97.845149 37.043022 97.29352 37.825738 96.617775 37.825738 L 2.896051 37.825738 C 2.220306 37.825738 1.668677 37.043022 1.668677 36.103762 L 1.668677 18.044358 C 1.668677 17.090868 2.220306 16.322382 2.896051 16.322382 Z M 2.896051 16.322382 " transform="matrix(0.283252,0,0,0.274485,0,0.000223394)"/>
</g>
</svg>
