<?xml version="1.0" encoding="UTF-8"?>
<svg xmlns="http://www.w3.org/2000/svg" xmlns:xlink="http://www.w3.org/1999/xlink" width="28px" height="28px" viewBox="0 0 28 28" version="1.1">
<g id="surface1">
<path style="fill-rule:nonzero;fill:rgb(0%,0%,0%);fill-opacity:1;stroke-width:1;stroke-linecap:butt;stroke-linejoin:miter;stroke:rgb(0%,0%,0%);stroke-opacity:1;stroke-miterlimit:22.9256;" d="M 24.188929 5.136648 L 28.726077 9.961024 C 29.139799 10.416422 29.843126 10.430653 30.298219 10.003717 C 30.753313 9.591013 30.767104 8.879453 30.353382 8.424055 L 25.816234 3.599679 C 25.402513 3.144281 24.685395 3.130049 24.244092 3.556985 C 23.788998 3.96969 23.775207 4.68125 24.188929 5.136648 Z M 24.188929 5.136648 " transform="matrix(0.283252,0,0,0.274485,0,8.500223)"/>
<path style="fill-rule:nonzero;fill:rgb(0%,0%,0%);fill-opacity:1;stroke-width:1;stroke-linecap:butt;stroke-linejoin:miter;stroke:rgb(0%,0%,0%);stroke-opacity:1;stroke-miterlimit:22.9256;" d="M 48.653672 1.621543 L 48.653672 9.20677 C 48.653672 9.832943 49.150138 10.331035 49.770721 10.331035 C 50.391304 10.331035 50.88777 9.832943 50.88777 9.20677 L 50.88777 1.621543 C 50.88777 0.99537 50.391304 0.497278 49.770721 0.497278 C 49.150138 0.497278 48.653672 0.99537 48.653672 1.621543 Z M 48.653672 1.621543 " transform="matrix(0.283252,0,0,0.274485,0,8.500223)"/>
<path style="fill-rule:nonzero;fill:rgb(0%,0%,0%);fill-opacity:1;stroke-width:1;stroke-linecap:butt;stroke-linejoin:miter;stroke:rgb(0%,0%,0%);stroke-opacity:1;stroke-miterlimit:22.9256;" d="M 70.801574 9.975255 L 75.324932 5.136648 C 75.752444 4.695481 75.724862 3.983921 75.283559 3.556985 C 74.828465 3.144281 74.125139 3.158512 73.697626 3.61391 L 69.174269 8.438286 C 68.746756 8.893684 68.774338 9.605244 69.215641 10.017949 C 69.670735 10.444884 70.374062 10.416422 70.801574 9.975255 Z M 70.801574 9.975255 " transform="matrix(0.283252,0,0,0.274485,0,8.500223)"/>
<path style="fill:none;stroke-width:3.34;stroke-linecap:butt;stroke-linejoin:miter;stroke:rgb(0%,0%,0%);stroke-opacity:1;stroke-miterlimit:22.9256;" d="M 2.896052 16.322369 L 96.617809 16.322369 C 97.293554 16.322369 97.845183 17.090853 97.845183 18.044343 L 97.845183 36.103732 C 97.845183 37.042991 97.293554 37.825707 96.617809 37.825707 L 2.896052 37.825707 C 2.220306 37.825707 1.668678 37.042991 1.668678 36.103732 L 1.668678 18.044343 C 1.668678 17.090853 2.220306 16.322369 2.896052 16.322369 Z M 2.896052 16.322369 " transform="matrix(0.283252,0,0,0.274485,0,8.500223)"/>
</g>
</svg>
