<?xml version="1.0" encoding="UTF-8"?>
<svg xmlns="http://www.w3.org/2000/svg" xmlns:xlink="http://www.w3.org/1999/xlink" width="28px" height="28px" viewBox="0 0 28 28" version="1.1">
<g id="surface1">
<path style="fill:none;stroke-width:6.41;stroke-linecap:butt;stroke-linejoin:miter;stroke:rgb(0%,0%,0%);stroke-opacity:1;stroke-miterlimit:10;" d="M 129.351797 51.441541 C 129.351797 24.780734 107.75567 3.216512 81.130923 3.216512 C 54.483727 3.216512 32.8876 24.803385 32.8876 51.441541 C 32.8876 78.079697 54.483727 99.66657 81.130923 99.66657 C 107.75567 99.66657 129.351797 78.079697 129.351797 51.441541 Z M 129.351797 51.441541 " transform="matrix(0.174004,0,0,0.17245,0.0000823396,0.5)"/>
<path style="fill:none;stroke-width:6.41;stroke-linecap:butt;stroke-linejoin:miter;stroke:rgb(0%,0%,0%);stroke-opacity:1;stroke-miterlimit:10;" d="M 99.67396 104.196869 C 99.67396 77.536061 78.077832 55.949188 51.430636 55.949188 C 24.805889 55.949188 3.209762 77.558713 3.209762 104.196869 C 3.209762 130.835025 24.805889 152.421898 51.430636 152.421898 C 78.077832 152.421898 99.67396 130.835025 99.67396 104.196869 Z M 99.67396 104.196869 " transform="matrix(0.174004,0,0,0.17245,0.0000823396,0.5)"/>
<path style="fill:none;stroke-width:6.41;stroke-linecap:butt;stroke-linejoin:miter;stroke:rgb(0%,0%,0%);stroke-opacity:1;stroke-miterlimit:10;" d="M 159.029635 104.196869 C 159.029635 77.536061 137.433508 55.949188 110.808761 55.949188 C 84.161565 55.949188 62.565438 77.558713 62.565438 104.196869 C 62.565438 130.835025 84.161565 152.421898 110.808761 152.421898 C 137.433508 152.421898 159.029635 130.835025 159.029635 104.196869 Z M 159.029635 104.196869 " transform="matrix(0.174004,0,0,0.17245,0.0000823396,0.5)"/>
<path style=" stroke:none;fill-rule:nonzero;fill:rgb(0%,0%,0%);fill-opacity:1;" d="M 13.984375 5.5 C 14.210938 5.5 14.375 5.460938 14.46875 5.375 C 14.570312 5.28125 14.625 5.136719 14.625 4.9375 C 14.625 4.75 14.570312 4.617188 14.46875 4.53125 C 14.375 4.449219 14.210938 4.40625 13.984375 4.40625 L 13.515625 4.40625 L 13.515625 5.5 Z M 13.515625 6.265625 L 13.515625 7.875 L 12.40625 7.875 L 12.40625 3.609375 L 14.09375 3.609375 C 14.664062 3.609375 15.082031 3.703125 15.34375 3.890625 C 15.601562 4.078125 15.734375 4.375 15.734375 4.78125 C 15.734375 5.0625 15.664062 5.296875 15.53125 5.484375 C 15.394531 5.664062 15.1875 5.792969 14.90625 5.875 C 15.0625 5.90625 15.195312 5.984375 15.3125 6.109375 C 15.4375 6.234375 15.5625 6.417969 15.6875 6.65625 L 16.296875 7.875 L 15.109375 7.875 L 14.578125 6.8125 C 14.472656 6.605469 14.363281 6.464844 14.25 6.390625 C 14.144531 6.308594 14.003906 6.265625 13.828125 6.265625 Z M 13.515625 6.265625 "/>
<path style=" stroke:none;fill-rule:nonzero;fill:rgb(0%,0%,0%);fill-opacity:1;" d="M 8.648438 21.828125 C 8.375 21.953125 8.089844 22.054688 7.789062 22.125 C 7.496094 22.1875 7.1875 22.21875 6.867188 22.21875 C 6.148438 22.21875 5.578125 22.023438 5.164062 21.625 C 4.746094 21.230469 4.539062 20.695312 4.539062 20.015625 C 4.539062 19.320312 4.75 18.777344 5.179688 18.390625 C 5.605469 17.996094 6.1875 17.796875 6.929688 17.796875 C 7.21875 17.796875 7.496094 17.824219 7.757812 17.875 C 8.015625 17.929688 8.261719 18.007812 8.492188 18.109375 L 8.492188 19 C 8.25 18.867188 8.011719 18.765625 7.773438 18.703125 C 7.542969 18.632812 7.308594 18.59375 7.070312 18.59375 C 6.621094 18.59375 6.277344 18.71875 6.039062 18.96875 C 5.796875 19.210938 5.679688 19.558594 5.679688 20.015625 C 5.679688 20.464844 5.792969 20.8125 6.023438 21.0625 C 6.261719 21.304688 6.589844 21.421875 7.007812 21.421875 C 7.121094 21.421875 7.226562 21.417969 7.320312 21.40625 C 7.421875 21.386719 7.515625 21.367188 7.601562 21.34375 L 7.601562 20.5 L 6.929688 20.5 L 6.929688 19.765625 L 8.648438 19.765625 Z M 8.648438 21.828125 "/>
<path style=" stroke:none;fill-rule:nonzero;fill:rgb(0%,0%,0%);fill-opacity:1;" d="M 22.382812 19.515625 C 22.558594 19.515625 22.6875 19.480469 22.773438 19.40625 C 22.867188 19.335938 22.914062 19.226562 22.914062 19.078125 C 22.914062 18.921875 22.867188 18.808594 22.773438 18.734375 C 22.6875 18.664062 22.558594 18.625 22.382812 18.625 L 21.773438 18.625 L 21.773438 19.515625 Z M 22.414062 21.390625 C 22.640625 21.390625 22.808594 21.34375 22.914062 21.25 C 23.027344 21.15625 23.085938 21.015625 23.085938 20.828125 C 23.085938 20.640625 23.027344 20.5 22.914062 20.40625 C 22.808594 20.3125 22.640625 20.265625 22.414062 20.265625 L 21.773438 20.265625 L 21.773438 21.390625 Z M 23.460938 19.859375 C 23.6875 19.921875 23.871094 20.046875 24.007812 20.234375 C 24.140625 20.421875 24.210938 20.652344 24.210938 20.921875 C 24.210938 21.328125 24.070312 21.636719 23.789062 21.84375 C 23.507812 22.042969 23.078125 22.140625 22.507812 22.140625 L 20.664062 22.140625 L 20.664062 17.875 L 22.320312 17.875 C 22.921875 17.875 23.355469 17.964844 23.617188 18.140625 C 23.886719 18.320312 24.023438 18.605469 24.023438 19 C 24.023438 19.210938 23.96875 19.386719 23.867188 19.53125 C 23.773438 19.679688 23.636719 19.789062 23.460938 19.859375 Z M 23.460938 19.859375 "/>
</g>
</svg>
