<?xml version="1.0" encoding="UTF-8"?>
<svg xmlns="http://www.w3.org/2000/svg" xmlns:xlink="http://www.w3.org/1999/xlink" width="28px" height="28px" viewBox="0 0 28 27" version="1.1">
<g id="surface1">
<path style="fill:none;stroke-width:15.24;stroke-linecap:butt;stroke-linejoin:miter;stroke:rgb(0%,0%,0%);stroke-opacity:1;stroke-miterlimit:10;" d="M 307.593029 122.32515 C 307.593029 58.981083 256.238512 7.594824 192.926186 7.594824 C 129.560478 7.594824 78.205961 58.927219 78.205961 122.32515 C 78.205961 185.669216 129.560478 237.001611 192.926186 237.001611 C 256.238512 237.001611 307.593029 185.669216 307.593029 122.32515 Z M 307.593029 122.32515 " transform="matrix(0.0731739,0,0,0.0725206,0.000017737,0)"/>
<path style="fill:none;stroke-width:15.24;stroke-linecap:butt;stroke-linejoin:miter;stroke:rgb(0%,0%,0%);stroke-opacity:1;stroke-miterlimit:10;" d="M 237.020605 247.774411 C 237.020605 184.37648 185.666088 133.044086 122.30038 133.044086 C 58.934671 133.044086 7.633537 184.37648 7.633537 247.774411 C 7.633537 311.118478 58.934671 362.450872 122.30038 362.450872 C 185.666088 362.450872 237.020605 311.118478 237.020605 247.774411 Z M 237.020605 247.774411 " transform="matrix(0.0731739,0,0,0.0725206,0.000017737,0)"/>
<path style="fill:none;stroke-width:15.24;stroke-linecap:butt;stroke-linejoin:miter;stroke:rgb(0%,0%,0%);stroke-opacity:1;stroke-miterlimit:10;" d="M 378.165453 247.774411 C 378.165453 184.37648 326.864319 133.044086 263.49861 133.044086 C 200.132901 133.044086 148.778384 184.37648 148.778384 247.774411 C 148.778384 311.118478 200.132901 362.450872 263.49861 362.450872 C 326.864319 362.450872 378.165453 311.118478 378.165453 247.774411 Z M 378.165453 247.774411 " transform="matrix(0.0731739,0,0,0.0725206,0.000017737,0)"/>
</g>
</svg>
