<?xml version="1.0" encoding="UTF-8"?>
<svg xmlns="http://www.w3.org/2000/svg" xmlns:xlink="http://www.w3.org/1999/xlink" width="28px" height="28px" viewBox="0 0 28 28" version="1.1">
<g id="surface1">
<path style=" stroke:none;fill-rule:nonzero;fill:rgb(0%,0%,0%);fill-opacity:1;" d="M 1.355469 1.804688 C 0.609375 1.804688 0 2.414062 0 3.160156 C 0 3.910156 0.609375 4.515625 1.355469 4.515625 C 2.101562 4.515625 2.710938 3.90625 2.710938 3.160156 C 2.710938 2.414062 2.101562 1.804688 1.355469 1.804688 Z M 1.355469 3.613281 C 1.105469 3.613281 0.902344 3.410156 0.902344 3.160156 C 0.902344 2.910156 1.105469 2.710938 1.355469 2.710938 C 1.605469 2.710938 1.804688 2.910156 1.804688 3.160156 C 1.804688 3.410156 1.605469 3.613281 1.355469 3.613281 Z M 1.355469 3.613281 "/>
<path style=" stroke:none;fill-rule:nonzero;fill:rgb(0%,0%,0%);fill-opacity:1;" d="M 1.355469 5.417969 C 0.609375 5.417969 0 6.027344 0 6.773438 C 0 7.519531 0.609375 8.128906 1.355469 8.128906 C 2.101562 8.128906 2.710938 7.519531 2.710938 6.773438 C 2.710938 6.027344 2.101562 5.417969 1.355469 5.417969 Z M 1.355469 7.226562 C 1.105469 7.226562 0.902344 7.023438 0.902344 6.773438 C 0.902344 6.523438 1.105469 6.324219 1.355469 6.324219 C 1.605469 6.324219 1.804688 6.523438 1.804688 6.773438 C 1.804688 7.023438 1.605469 7.226562 1.355469 7.226562 Z M 1.355469 7.226562 "/>
<path style=" stroke:none;fill-rule:nonzero;fill:rgb(0%,0%,0%);fill-opacity:1;" d="M 1.355469 9.03125 C 0.609375 9.03125 0 9.640625 0 10.386719 C 0 11.132812 0.609375 11.742188 1.355469 11.742188 C 2.101562 11.742188 2.710938 11.132812 2.710938 10.386719 C 2.710938 9.640625 2.101562 9.03125 1.355469 9.03125 Z M 1.355469 10.839844 C 1.105469 10.839844 0.902344 10.636719 0.902344 10.386719 C 0.902344 10.136719 1.105469 9.933594 1.355469 9.933594 C 1.605469 9.933594 1.804688 10.136719 1.804688 10.386719 C 1.804688 10.636719 1.605469 10.839844 1.355469 10.839844 Z M 1.355469 10.839844 "/>
<path style=" stroke:none;fill-rule:nonzero;fill:rgb(0%,0%,0%);fill-opacity:1;" d="M 1.355469 12.644531 C 0.609375 12.644531 0 13.253906 0 14 C 0 14.746094 0.609375 15.355469 1.355469 15.355469 C 2.101562 15.355469 2.710938 14.746094 2.710938 14 C 2.710938 13.253906 2.101562 12.644531 1.355469 12.644531 Z M 1.355469 14.453125 C 1.105469 14.453125 0.902344 14.25 0.902344 14 C 0.902344 13.75 1.105469 13.546875 1.355469 13.546875 C 1.605469 13.546875 1.804688 13.75 1.804688 14 C 1.804688 14.25 1.605469 14.453125 1.355469 14.453125 Z M 1.355469 14.453125 "/>
<path style=" stroke:none;fill-rule:nonzero;fill:rgb(0%,0%,0%);fill-opacity:1;" d="M 1.355469 16.257812 C 0.609375 16.257812 0 16.867188 0 17.613281 C 0 18.359375 0.609375 18.96875 1.355469 18.96875 C 2.101562 18.96875 2.710938 18.359375 2.710938 17.613281 C 2.710938 16.867188 2.101562 16.257812 1.355469 16.257812 Z M 1.355469 18.0625 C 1.105469 18.0625 0.902344 17.863281 0.902344 17.613281 C 0.902344 17.363281 1.105469 17.160156 1.355469 17.160156 C 1.605469 17.160156 1.804688 17.363281 1.804688 17.613281 C 1.804688 17.863281 1.605469 18.0625 1.355469 18.0625 Z M 1.355469 18.0625 "/>
<path style=" stroke:none;fill-rule:nonzero;fill:rgb(0%,0%,0%);fill-opacity:1;" d="M 1.355469 19.871094 C 0.609375 19.871094 0 20.480469 0 21.226562 C 0 21.972656 0.609375 22.582031 1.355469 22.582031 C 2.101562 22.582031 2.710938 21.972656 2.710938 21.226562 C 2.710938 20.480469 2.101562 19.871094 1.355469 19.871094 Z M 1.355469 21.675781 C 1.105469 21.675781 0.902344 21.476562 0.902344 21.226562 C 0.902344 20.976562 1.105469 20.773438 1.355469 20.773438 C 1.605469 20.773438 1.804688 20.976562 1.804688 21.226562 C 1.804688 21.476562 1.605469 21.675781 1.355469 21.675781 Z M 1.355469 21.675781 "/>
<path style=" stroke:none;fill-rule:nonzero;fill:rgb(0%,0%,0%);fill-opacity:1;" d="M 1.355469 23.484375 C 0.609375 23.484375 0 24.089844 0 24.839844 C 0 25.585938 0.609375 26.191406 1.355469 26.191406 C 2.101562 26.191406 2.710938 25.585938 2.710938 24.839844 C 2.710938 24.089844 2.101562 23.484375 1.355469 23.484375 Z M 1.355469 25.289062 C 1.105469 25.289062 0.902344 25.089844 0.902344 24.839844 C 0.902344 24.589844 1.105469 24.386719 1.355469 24.386719 C 1.605469 24.386719 1.804688 24.589844 1.804688 24.839844 C 1.804688 25.089844 1.605469 25.289062 1.355469 25.289062 Z M 1.355469 25.289062 "/>
<path style=" stroke:none;fill-rule:nonzero;fill:rgb(0%,0%,0%);fill-opacity:1;" d="M 26.644531 1.804688 C 25.898438 1.804688 25.289062 2.414062 25.289062 3.160156 C 25.289062 3.910156 25.898438 4.515625 26.644531 4.515625 C 27.390625 4.515625 28 3.90625 28 3.160156 C 28 2.414062 27.390625 1.804688 26.644531 1.804688 Z M 26.644531 3.613281 C 26.394531 3.613281 26.191406 3.410156 26.191406 3.160156 C 26.191406 2.910156 26.394531 2.710938 26.644531 2.710938 C 26.894531 2.710938 27.097656 2.910156 27.097656 3.160156 C 27.097656 3.410156 26.894531 3.613281 26.644531 3.613281 Z M 26.644531 3.613281 "/>
<path style=" stroke:none;fill-rule:nonzero;fill:rgb(0%,0%,0%);fill-opacity:1;" d="M 26.644531 5.417969 C 25.898438 5.417969 25.289062 6.027344 25.289062 6.773438 C 25.289062 7.519531 25.898438 8.128906 26.644531 8.128906 C 27.390625 8.128906 28 7.519531 28 6.773438 C 28 6.027344 27.390625 5.417969 26.644531 5.417969 Z M 26.644531 7.226562 C 26.394531 7.226562 26.191406 7.023438 26.191406 6.773438 C 26.191406 6.523438 26.394531 6.324219 26.644531 6.324219 C 26.894531 6.324219 27.097656 6.523438 27.097656 6.773438 C 27.097656 7.023438 26.894531 7.226562 26.644531 7.226562 Z M 26.644531 7.226562 "/>
<path style=" stroke:none;fill-rule:nonzero;fill:rgb(0%,0%,0%);fill-opacity:1;" d="M 26.644531 9.03125 C 25.898438 9.03125 25.289062 9.640625 25.289062 10.386719 C 25.289062 11.132812 25.898438 11.742188 26.644531 11.742188 C 27.390625 11.742188 28 11.132812 28 10.386719 C 28 9.640625 27.390625 9.03125 26.644531 9.03125 Z M 26.644531 10.839844 C 26.394531 10.839844 26.191406 10.636719 26.191406 10.386719 C 26.191406 10.136719 26.394531 9.933594 26.644531 9.933594 C 26.894531 9.933594 27.097656 10.136719 27.097656 10.386719 C 27.097656 10.636719 26.894531 10.839844 26.644531 10.839844 Z M 26.644531 10.839844 "/>
<path style=" stroke:none;fill-rule:nonzero;fill:rgb(0%,0%,0%);fill-opacity:1;" d="M 26.644531 12.644531 C 25.898438 12.644531 25.289062 13.253906 25.289062 14 C 25.289062 14.746094 25.898438 15.355469 26.644531 15.355469 C 27.390625 15.355469 28 14.746094 28 14 C 28 13.253906 27.390625 12.644531 26.644531 12.644531 Z M 26.644531 14.453125 C 26.394531 14.453125 26.191406 14.25 26.191406 14 C 26.191406 13.75 26.394531 13.546875 26.644531 13.546875 C 26.894531 13.546875 27.097656 13.75 27.097656 14 C 27.097656 14.25 26.894531 14.453125 26.644531 14.453125 Z M 26.644531 14.453125 "/>
<path style=" stroke:none;fill-rule:nonzero;fill:rgb(0%,0%,0%);fill-opacity:1;" d="M 26.644531 16.257812 C 25.898438 16.257812 25.289062 16.867188 25.289062 17.613281 C 25.289062 18.359375 25.898438 18.96875 26.644531 18.96875 C 27.390625 18.96875 28 18.359375 28 17.613281 C 28 16.867188 27.390625 16.257812 26.644531 16.257812 Z M 26.644531 18.0625 C 26.394531 18.0625 26.191406 17.863281 26.191406 17.613281 C 26.191406 17.363281 26.394531 17.160156 26.644531 17.160156 C 26.894531 17.160156 27.097656 17.363281 27.097656 17.613281 C 27.097656 17.863281 26.894531 18.0625 26.644531 18.0625 Z M 26.644531 18.0625 "/>
<path style=" stroke:none;fill-rule:nonzero;fill:rgb(0%,0%,0%);fill-opacity:1;" d="M 26.644531 19.871094 C 25.898438 19.871094 25.289062 20.480469 25.289062 21.226562 C 25.289062 21.972656 25.898438 22.582031 26.644531 22.582031 C 27.390625 22.582031 28 21.972656 28 21.226562 C 28 20.480469 27.390625 19.871094 26.644531 19.871094 Z M 26.644531 21.675781 C 26.394531 21.675781 26.191406 21.476562 26.191406 21.226562 C 26.191406 20.976562 26.394531 20.773438 26.644531 20.773438 C 26.894531 20.773438 27.097656 20.976562 27.097656 21.226562 C 27.097656 21.476562 26.894531 21.675781 26.644531 21.675781 Z M 26.644531 21.675781 "/>
<path style=" stroke:none;fill-rule:nonzero;fill:rgb(0%,0%,0%);fill-opacity:1;" d="M 26.644531 23.484375 C 25.898438 23.484375 25.289062 24.089844 25.289062 24.839844 C 25.289062 25.585938 25.898438 26.191406 26.644531 26.191406 C 27.390625 26.191406 28 25.585938 28 24.839844 C 28 24.089844 27.390625 23.484375 26.644531 23.484375 Z M 26.644531 25.289062 C 26.394531 25.289062 26.191406 25.089844 26.191406 24.839844 C 26.191406 24.589844 26.394531 24.386719 26.644531 24.386719 C 26.894531 24.386719 27.097656 24.589844 27.097656 24.839844 C 27.097656 25.089844 26.894531 25.289062 26.644531 25.289062 Z M 26.644531 25.289062 "/>
<path style=" stroke:none;fill-rule:nonzero;fill:rgb(0%,0%,0%);fill-opacity:1;" d="M 23.484375 0 L 4.515625 0 C 4.265625 0 4.0625 0.203125 4.0625 0.453125 L 4.0625 27.546875 C 4.0625 27.796875 4.265625 28 4.515625 28 L 23.484375 28 C 23.734375 28 23.933594 27.796875 23.933594 27.546875 L 23.933594 0.453125 C 23.933594 0.203125 23.734375 0 23.484375 0 Z M 23.03125 27.097656 L 4.96875 27.097656 L 4.96875 0.902344 L 23.03125 0.902344 Z M 23.03125 27.097656 "/>
</g>
</svg>
