<?xml version="1.0" encoding="UTF-8"?>
<svg xmlns="http://www.w3.org/2000/svg" xmlns:xlink="http://www.w3.org/1999/xlink" width="28px" height="28px" viewBox="0 0 28 28" version="1.1">
<g id="surface1">
<path style="fill:none;stroke-width:15.24;stroke-linecap:butt;stroke-linejoin:miter;stroke:rgb(0%,0%,0%);stroke-opacity:1;stroke-miterlimit:10;" d="M 307.59321 122.325157 C 307.59321 58.981086 256.238662 7.594825 192.9263 7.594825 C 129.560554 7.594825 78.206007 58.927222 78.206007 122.325157 C 78.206007 185.669227 129.560554 237.001624 192.9263 237.001624 C 256.238662 237.001624 307.59321 185.669227 307.59321 122.325157 Z M 307.59321 122.325157 " transform="matrix(0.0731739,0,0,0.0725206,0.000017737,0.5)"/>
<path style="fill:none;stroke-width:15.24;stroke-linecap:butt;stroke-linejoin:miter;stroke:rgb(0%,0%,0%);stroke-opacity:1;stroke-miterlimit:10;" d="M 237.020745 247.774425 C 237.020745 184.376491 185.666197 133.044094 122.300452 133.044094 C 58.934706 133.044094 7.633542 184.376491 7.633542 247.774425 C 7.633542 311.118496 58.934706 362.450893 122.300452 362.450893 C 185.666197 362.450893 237.020745 311.118496 237.020745 247.774425 Z M 237.020745 247.774425 " transform="matrix(0.0731739,0,0,0.0725206,0.000017737,0.5)"/>
<path style="fill:none;stroke-width:15.24;stroke-linecap:butt;stroke-linejoin:miter;stroke:rgb(0%,0%,0%);stroke-opacity:1;stroke-miterlimit:10;" d="M 378.165675 247.774425 C 378.165675 184.376491 326.864511 133.044094 263.498765 133.044094 C 200.133019 133.044094 148.778472 184.376491 148.778472 247.774425 C 148.778472 311.118496 200.133019 362.450893 263.498765 362.450893 C 326.864511 362.450893 378.165675 311.118496 378.165675 247.774425 Z M 378.165675 247.774425 " transform="matrix(0.0731739,0,0,0.0725206,0.000017737,0.5)"/>
</g>
</svg>
