<?xml version="1.0" encoding="UTF-8"?>
<svg xmlns="http://www.w3.org/2000/svg" xmlns:xlink="http://www.w3.org/1999/xlink" width="28px" height="28px" viewBox="0 0 28 59" version="1.1">
<g id="surface1">
<path style=" stroke:none;fill-rule:nonzero;fill:rgb(0%,0%,0%);fill-opacity:1;" d="M 14.179688 0 C 6.363281 0 0 6.328125 0 14.101562 C 0 19.621094 3.203125 24.40625 7.851562 26.71875 L 7.851562 31.285156 C 7.851562 31.84375 8.300781 32.28125 8.851562 32.28125 L 10.929688 32.28125 L 10.929688 58.003906 C 10.929688 58.5625 11.382812 59 11.929688 59 L 16.4375 59 C 16.984375 59 17.4375 58.5625 17.4375 58.003906 L 17.4375 32.28125 L 19.515625 32.28125 C 20.070312 32.28125 20.515625 31.84375 20.515625 31.285156 L 20.515625 26.71875 C 25.15625 24.40625 28.367188 19.621094 28.367188 14.101562 C 28.367188 6.328125 22.003906 0 14.1875 0 Z M 15.429688 57.003906 L 12.929688 57.003906 L 12.929688 32.273438 L 15.429688 32.273438 Z M 18.511719 30.28125 L 9.84375 30.28125 L 9.84375 27.535156 C 11.214844 27.972656 12.667969 28.210938 14.171875 28.210938 C 15.6875 28.210938 17.136719 27.972656 18.503906 27.535156 L 18.503906 30.28125 Z M 19.117188 25.175781 C 17.605469 25.839844 15.9375 26.214844 14.171875 26.214844 C 12.410156 26.214844 10.742188 25.839844 9.226562 25.175781 C 4.972656 23.292969 1.992188 19.03125 1.992188 14.097656 C 1.992188 7.414062 7.457031 1.984375 14.171875 1.984375 C 20.886719 1.984375 26.351562 7.410156 26.351562 14.097656 C 26.351562 19.023438 23.367188 23.285156 19.117188 25.175781 Z M 19.117188 25.175781 "/>
</g>
</svg>
