<?xml version="1.0" encoding="UTF-8"?>
<svg xmlns="http://www.w3.org/2000/svg" xmlns:xlink="http://www.w3.org/1999/xlink" width="28px" height="28px" viewBox="0 0 28 28" version="1.1">
<g id="surface1">
<path style=" stroke:none;fill-rule:nonzero;fill:rgb(0%,0%,0%);fill-opacity:1;" d="M 14.085938 0 C 10.375 0 7.355469 3.003906 7.355469 6.691406 C 7.355469 9.3125 8.875 11.582031 11.082031 12.679688 L 11.082031 14.847656 C 11.082031 15.113281 11.296875 15.320312 11.558594 15.320312 L 12.542969 15.320312 L 12.542969 27.527344 C 12.542969 27.792969 12.757812 28 13.015625 28 L 15.15625 28 C 15.417969 28 15.632812 27.792969 15.632812 27.527344 L 15.632812 15.320312 L 16.617188 15.320312 C 16.878906 15.320312 17.09375 15.113281 17.09375 14.847656 L 17.09375 12.679688 C 19.292969 11.582031 20.816406 9.3125 20.816406 6.691406 C 20.816406 3.003906 17.796875 0 14.089844 0 Z M 14.679688 27.050781 L 13.492188 27.050781 L 13.492188 15.316406 L 14.679688 15.316406 Z M 16.140625 14.371094 L 12.027344 14.371094 L 12.027344 13.066406 C 12.679688 13.273438 13.367188 13.386719 14.082031 13.386719 C 14.800781 13.386719 15.488281 13.273438 16.136719 13.066406 L 16.136719 14.371094 Z M 16.429688 11.949219 C 15.710938 12.261719 14.917969 12.441406 14.082031 12.441406 C 13.246094 12.441406 12.453125 12.261719 11.734375 11.949219 C 9.714844 11.054688 8.300781 9.03125 8.300781 6.691406 C 8.300781 3.519531 10.894531 0.941406 14.082031 0.941406 C 17.269531 0.941406 19.863281 3.515625 19.863281 6.691406 C 19.863281 9.027344 18.445312 11.050781 16.429688 11.949219 Z M 16.429688 11.949219 "/>
</g>
</svg>
