<?xml version="1.0" encoding="UTF-8"?>
<svg xmlns="http://www.w3.org/2000/svg" xmlns:xlink="http://www.w3.org/1999/xlink" width="28px" height="28px" viewBox="0 0 28 28" version="1.1">
<g id="surface1">
<path style=" stroke:none;fill-rule:nonzero;fill:rgb(0%,0%,0%);fill-opacity:1;" d="M 14.054688 1.027344 C 10.417969 1.027344 7.457031 3.949219 7.457031 7.539062 C 7.457031 10.085938 8.949219 12.300781 11.105469 13.367188 L 11.105469 15.476562 C 11.105469 15.730469 11.316406 15.933594 11.574219 15.933594 L 12.542969 15.933594 L 12.542969 27.8125 C 12.542969 28.070312 12.75 28.273438 13.007812 28.273438 L 15.105469 28.273438 C 15.359375 28.273438 15.570312 28.074219 15.570312 27.8125 L 15.570312 15.933594 L 16.539062 15.933594 C 16.796875 15.933594 17.007812 15.730469 17.007812 15.476562 L 17.007812 13.367188 C 19.167969 12.300781 20.65625 10.085938 20.65625 7.539062 C 20.65625 3.949219 17.699219 1.027344 14.054688 1.027344 Z M 14.636719 27.351562 L 13.472656 27.351562 L 13.472656 15.933594 L 14.636719 15.933594 Z M 16.070312 15.011719 L 12.042969 15.011719 L 12.042969 13.742188 C 12.679688 13.945312 13.355469 14.054688 14.054688 14.054688 C 14.761719 14.054688 15.4375 13.945312 16.074219 13.742188 L 16.074219 15.011719 Z M 16.355469 12.652344 C 15.65625 12.960938 14.875 13.136719 14.054688 13.136719 C 13.238281 13.136719 12.457031 12.960938 11.753906 12.652344 C 9.773438 11.785156 8.386719 9.816406 8.386719 7.539062 C 8.386719 4.453125 10.929688 1.949219 14.054688 1.949219 C 17.183594 1.949219 19.722656 4.453125 19.722656 7.539062 C 19.722656 9.816406 18.335938 11.785156 16.355469 12.652344 Z M 16.355469 12.652344 "/>
<path style=" stroke:none;fill-rule:nonzero;fill:rgb(0%,0%,0%);fill-opacity:1;" d="M 6.027344 2.152344 C 6.113281 2.214844 6.203125 2.238281 6.289062 2.238281 C 6.398438 2.238281 6.535156 2.195312 6.621094 2.085938 C 6.78125 1.910156 6.757812 1.648438 6.582031 1.492188 L 4.960938 0.160156 C 4.785156 0.0078125 4.519531 0.0273438 4.359375 0.199219 C 4.207031 0.378906 4.226562 0.636719 4.40625 0.789062 Z M 6.027344 2.152344 "/>
<path style=" stroke:none;fill-rule:nonzero;fill:rgb(0%,0%,0%);fill-opacity:1;" d="M 6.289062 2.183594 L 6.289062 2.289062 L 6.214844 2.289062 L 6.191406 2.28125 L 6.183594 2.277344 L 6.167969 2.277344 L 6.144531 2.269531 L 6.140625 2.269531 L 6.097656 2.253906 L 6.089844 2.246094 L 6.078125 2.242188 L 6.0625 2.234375 L 6.050781 2.226562 L 6.039062 2.222656 L 6.035156 2.214844 L 6.027344 2.210938 L 6.015625 2.207031 L 6.007812 2.199219 L 5.996094 2.191406 L 6.066406 2.101562 L 6.070312 2.109375 L 6.078125 2.113281 L 6.085938 2.121094 L 6.097656 2.125 L 6.105469 2.132812 L 6.109375 2.132812 L 6.121094 2.136719 L 6.152344 2.152344 L 6.15625 2.152344 L 6.179688 2.164062 L 6.1875 2.164062 L 6.191406 2.167969 L 6.207031 2.171875 L 6.214844 2.171875 L 6.226562 2.179688 L 6.304688 2.179688 Z M 6.582031 2.046875 L 6.664062 2.121094 L 6.667969 2.117188 L 6.636719 2.148438 L 6.621094 2.160156 L 6.601562 2.179688 L 6.582031 2.195312 L 6.570312 2.207031 L 6.527344 2.234375 L 6.511719 2.238281 L 6.488281 2.246094 L 6.476562 2.253906 L 6.464844 2.257812 L 6.453125 2.265625 L 6.410156 2.277344 L 6.390625 2.277344 L 6.347656 2.289062 L 6.289062 2.289062 L 6.289062 2.183594 L 6.332031 2.183594 L 6.363281 2.171875 L 6.375 2.171875 L 6.386719 2.167969 L 6.394531 2.167969 L 6.402344 2.164062 L 6.410156 2.164062 L 6.445312 2.152344 L 6.457031 2.144531 L 6.464844 2.140625 L 6.472656 2.132812 L 6.480469 2.132812 L 6.488281 2.125 L 6.5 2.121094 L 6.523438 2.097656 L 6.53125 2.097656 L 6.539062 2.089844 L 6.542969 2.078125 L 6.554688 2.070312 Z M 6.582031 2.050781 L 6.582031 2.046875 Z M 6.542969 1.535156 L 6.613281 1.449219 L 6.632812 1.464844 L 6.648438 1.480469 L 6.664062 1.5 L 6.691406 1.535156 L 6.707031 1.554688 L 6.71875 1.574219 L 6.738281 1.617188 L 6.746094 1.636719 L 6.757812 1.660156 L 6.769531 1.699219 L 6.777344 1.75 L 6.78125 1.769531 L 6.78125 1.84375 L 6.769531 1.914062 L 6.742188 2 L 6.710938 2.0625 L 6.695312 2.085938 L 6.679688 2.101562 L 6.664062 2.121094 L 6.582031 2.050781 L 6.59375 2.035156 L 6.605469 2.023438 L 6.617188 2.003906 L 6.625 1.988281 L 6.636719 1.972656 L 6.652344 1.941406 L 6.660156 1.910156 L 6.667969 1.890625 L 6.667969 1.878906 L 6.675781 1.839844 L 6.675781 1.789062 L 6.667969 1.753906 L 6.667969 1.738281 L 6.660156 1.722656 L 6.652344 1.691406 L 6.636719 1.660156 L 6.625 1.644531 L 6.617188 1.625 L 6.609375 1.613281 L 6.597656 1.59375 L 6.585938 1.582031 L 6.574219 1.566406 L 6.542969 1.542969 Z M 6.613281 1.449219 L 6.613281 1.445312 Z M 4.992188 0.113281 L 6.613281 1.449219 L 6.542969 1.535156 L 4.921875 0.199219 L 4.992188 0.117188 Z M 4.921875 0.199219 L 4.917969 0.199219 Z M 4.398438 0.238281 L 4.320312 0.164062 L 4.332031 0.144531 L 4.351562 0.128906 L 4.367188 0.113281 L 4.386719 0.0976562 L 4.40625 0.0859375 L 4.425781 0.0703125 L 4.507812 0.0273438 L 4.53125 0.0195312 L 4.550781 0.0195312 L 4.574219 0.0117188 L 4.617188 0.00390625 L 4.644531 0 L 4.714844 0 L 4.785156 0.0117188 L 4.808594 0.0195312 L 4.832031 0.0195312 L 4.851562 0.0273438 L 4.957031 0.0820312 L 4.996094 0.113281 L 4.921875 0.199219 L 4.910156 0.183594 L 4.875 0.164062 L 4.863281 0.152344 L 4.84375 0.144531 L 4.832031 0.132812 L 4.8125 0.128906 L 4.796875 0.125 L 4.78125 0.117188 L 4.765625 0.113281 L 4.746094 0.109375 L 4.730469 0.105469 L 4.710938 0.101562 L 4.65625 0.101562 L 4.640625 0.105469 L 4.617188 0.109375 L 4.605469 0.113281 L 4.585938 0.117188 L 4.574219 0.125 L 4.554688 0.128906 L 4.539062 0.132812 L 4.492188 0.15625 L 4.472656 0.164062 L 4.445312 0.1875 L 4.417969 0.214844 L 4.40625 0.230469 Z M 4.4375 0.746094 L 4.363281 0.835938 L 4.347656 0.820312 L 4.328125 0.804688 L 4.316406 0.785156 L 4.296875 0.765625 L 4.273438 0.726562 L 4.261719 0.710938 L 4.230469 0.644531 L 4.210938 0.582031 L 4.199219 0.511719 L 4.199219 0.441406 L 4.214844 0.347656 L 4.21875 0.328125 L 4.226562 0.308594 L 4.257812 0.242188 L 4.273438 0.222656 L 4.285156 0.199219 L 4.320312 0.164062 L 4.398438 0.238281 L 4.386719 0.25 L 4.375 0.269531 L 4.363281 0.28125 L 4.355469 0.300781 L 4.347656 0.3125 L 4.339844 0.332031 L 4.328125 0.347656 L 4.320312 0.378906 L 4.316406 0.398438 L 4.308594 0.429688 L 4.308594 0.519531 L 4.324219 0.582031 L 4.328125 0.601562 L 4.339844 0.613281 L 4.347656 0.632812 L 4.355469 0.644531 L 4.359375 0.664062 L 4.375 0.675781 L 4.386719 0.695312 L 4.394531 0.707031 L 4.433594 0.746094 Z M 4.363281 0.835938 L 4.367188 0.835938 Z M 5.988281 2.195312 L 4.363281 0.835938 L 4.4375 0.746094 L 6.058594 2.109375 L 5.988281 2.195312 L 5.988281 2.191406 Z M 5.988281 2.195312 Z M 5.988281 2.195312 "/>
<path style=" stroke:none;fill-rule:nonzero;fill:rgb(0%,0%,0%);fill-opacity:1;" d="M 4.695312 4.449219 L 2.71875 3.746094 C 2.496094 3.664062 2.253906 3.769531 2.191406 3.992188 C 2.097656 4.210938 2.210938 4.449219 2.433594 4.511719 L 4.40625 5.214844 C 4.453125 5.234375 4.496094 5.234375 4.566406 5.234375 C 4.742188 5.234375 4.898438 5.128906 4.964844 4.976562 C 5.03125 4.777344 4.921875 4.539062 4.699219 4.449219 Z M 4.695312 4.449219 "/>
<path style=" stroke:none;fill-rule:nonzero;fill:rgb(0%,0%,0%);fill-opacity:1;" d="M 2.738281 3.699219 L 4.714844 4.398438 L 4.675781 4.503906 L 2.703125 3.800781 L 2.699219 3.800781 Z M 2.703125 3.800781 L 2.695312 3.800781 Z M 2.242188 4.011719 L 2.136719 3.96875 L 2.132812 3.976562 L 2.144531 3.953125 L 2.152344 3.925781 L 2.171875 3.882812 L 2.1875 3.863281 L 2.203125 3.847656 L 2.210938 3.828125 L 2.277344 3.761719 L 2.296875 3.746094 L 2.316406 3.738281 L 2.335938 3.722656 L 2.351562 3.710938 L 2.375 3.699219 L 2.394531 3.695312 L 2.417969 3.683594 L 2.4375 3.675781 L 2.460938 3.671875 L 2.484375 3.664062 L 2.652344 3.664062 L 2.679688 3.671875 L 2.703125 3.675781 L 2.726562 3.683594 L 2.75 3.695312 L 2.710938 3.792969 L 2.671875 3.777344 L 2.636719 3.773438 L 2.613281 3.769531 L 2.527344 3.769531 L 2.507812 3.773438 L 2.496094 3.773438 L 2.476562 3.777344 L 2.460938 3.785156 L 2.445312 3.789062 L 2.425781 3.796875 L 2.414062 3.804688 L 2.394531 3.808594 L 2.371094 3.832031 L 2.328125 3.863281 L 2.316406 3.875 L 2.285156 3.917969 L 2.277344 3.925781 L 2.269531 3.945312 L 2.261719 3.957031 L 2.257812 3.976562 L 2.246094 4 Z M 2.242188 4.003906 L 2.242188 4.011719 L 2.246094 4.003906 Z M 2.453125 4.464844 L 2.414062 4.566406 L 2.417969 4.566406 L 2.390625 4.558594 L 2.371094 4.550781 L 2.347656 4.539062 L 2.324219 4.53125 L 2.304688 4.515625 L 2.285156 4.503906 L 2.269531 4.492188 L 2.246094 4.472656 L 2.203125 4.429688 L 2.1875 4.40625 L 2.171875 4.390625 L 2.152344 4.355469 L 2.140625 4.332031 L 2.132812 4.3125 L 2.125 4.289062 L 2.117188 4.269531 L 2.113281 4.246094 L 2.105469 4.226562 L 2.097656 4.175781 L 2.097656 4.105469 L 2.105469 4.058594 L 2.113281 4.035156 L 2.117188 4.011719 L 2.125 3.988281 L 2.132812 3.960938 L 2.238281 4 L 2.226562 4.023438 L 2.222656 4.039062 L 2.214844 4.058594 L 2.210938 4.078125 L 2.210938 4.097656 L 2.207031 4.113281 L 2.207031 4.171875 L 2.210938 4.183594 L 2.210938 4.203125 L 2.214844 4.21875 L 2.222656 4.238281 L 2.226562 4.25 L 2.234375 4.269531 L 2.242188 4.285156 L 2.246094 4.300781 L 2.257812 4.3125 L 2.265625 4.324219 L 2.285156 4.355469 L 2.296875 4.363281 L 2.308594 4.378906 L 2.335938 4.398438 L 2.359375 4.421875 L 2.40625 4.445312 L 2.425781 4.449219 L 2.441406 4.457031 L 2.445312 4.457031 Z M 2.449219 4.464844 L 2.453125 4.464844 L 2.449219 4.460938 Z M 4.390625 5.269531 L 2.414062 4.566406 L 2.453125 4.464844 L 4.429688 5.164062 L 4.429688 5.167969 Z M 4.429688 5.164062 L 4.429688 5.167969 Z M 4.566406 5.183594 L 4.566406 5.292969 L 4.4375 5.292969 L 4.421875 5.285156 L 4.417969 5.28125 L 4.410156 5.277344 L 4.40625 5.277344 L 4.394531 5.273438 L 4.394531 5.269531 L 4.382812 5.269531 L 4.429688 5.167969 L 4.4375 5.171875 L 4.441406 5.171875 L 4.445312 5.175781 L 4.453125 5.175781 L 4.457031 5.179688 L 4.566406 5.179688 Z M 4.910156 4.960938 L 5.011719 4.992188 L 4.996094 5.03125 L 4.988281 5.046875 L 4.976562 5.0625 L 4.9375 5.121094 L 4.925781 5.128906 L 4.914062 5.144531 L 4.890625 5.167969 L 4.832031 5.210938 L 4.824219 5.222656 L 4.789062 5.234375 L 4.773438 5.246094 L 4.742188 5.261719 L 4.722656 5.269531 L 4.710938 5.273438 L 4.691406 5.277344 L 4.675781 5.285156 L 4.652344 5.289062 L 4.636719 5.289062 L 4.597656 5.296875 L 4.5625 5.296875 L 4.5625 5.1875 L 4.585938 5.1875 L 4.601562 5.183594 L 4.613281 5.183594 L 4.644531 5.175781 L 4.652344 5.171875 L 4.667969 5.167969 L 4.683594 5.160156 L 4.695312 5.160156 L 4.710938 5.152344 L 4.722656 5.148438 L 4.75 5.132812 L 4.769531 5.121094 L 4.78125 5.109375 L 4.8125 5.085938 L 4.84375 5.054688 L 4.867188 5.023438 L 4.875 5.011719 L 4.898438 4.980469 L 4.902344 4.96875 L 4.90625 4.953125 L 4.902344 4.960938 Z M 5.011719 4.992188 L 5.011719 4.996094 Z M 4.675781 4.503906 L 4.714844 4.394531 L 4.71875 4.394531 L 4.742188 4.40625 L 4.785156 4.429688 L 4.804688 4.441406 L 4.824219 4.457031 L 4.84375 4.46875 L 4.863281 4.484375 L 4.875 4.503906 L 4.894531 4.515625 L 4.910156 4.535156 L 4.953125 4.585938 L 4.964844 4.609375 L 4.984375 4.644531 L 4.996094 4.664062 L 5.023438 4.75 L 5.035156 4.8125 L 5.035156 4.898438 L 5.03125 4.917969 L 5.023438 4.941406 L 5.019531 4.960938 L 5.011719 4.980469 L 4.910156 4.949219 L 4.914062 4.933594 L 4.921875 4.917969 L 4.921875 4.902344 L 4.925781 4.886719 L 4.929688 4.867188 L 4.929688 4.824219 L 4.921875 4.789062 L 4.921875 4.773438 L 4.914062 4.757812 L 4.910156 4.742188 L 4.902344 4.722656 L 4.898438 4.710938 L 4.890625 4.691406 L 4.878906 4.679688 L 4.871094 4.660156 L 4.839844 4.617188 L 4.777344 4.554688 L 4.742188 4.535156 L 4.726562 4.523438 Z M 4.714844 4.394531 L 4.71875 4.394531 L 4.722656 4.398438 Z M 4.714844 4.394531 "/>
<path style=" stroke:none;fill-rule:nonzero;fill:rgb(0%,0%,0%);fill-opacity:1;" d="M 21.796875 2.257812 C 21.886719 2.257812 21.996094 2.238281 22.0625 2.171875 L 23.683594 0.835938 C 23.863281 0.683594 23.882812 0.417969 23.730469 0.246094 C 23.570312 0.0703125 23.308594 0.0507812 23.132812 0.199219 L 21.511719 1.535156 C 21.335938 1.691406 21.308594 1.949219 21.46875 2.128906 C 21.558594 2.214844 21.691406 2.257812 21.800781 2.257812 Z M 21.796875 2.257812 "/>
<path style=" stroke:none;fill-rule:nonzero;fill:rgb(0%,0%,0%);fill-opacity:1;" d="M 22.03125 2.132812 L 22.101562 2.214844 L 22.105469 2.210938 L 22.097656 2.21875 L 22.085938 2.226562 L 22.078125 2.238281 L 22.074219 2.242188 L 22.0625 2.246094 L 22.054688 2.25 L 22.042969 2.257812 L 22.039062 2.261719 L 22.027344 2.269531 L 22.003906 2.277344 L 21.988281 2.285156 L 21.976562 2.289062 L 21.964844 2.289062 L 21.960938 2.292969 L 21.9375 2.300781 L 21.929688 2.300781 L 21.894531 2.3125 L 21.882812 2.3125 L 21.871094 2.316406 L 21.792969 2.316406 L 21.792969 2.207031 L 21.882812 2.207031 L 21.894531 2.203125 L 21.90625 2.195312 L 21.917969 2.195312 L 21.9375 2.183594 L 21.949219 2.183594 L 21.972656 2.171875 L 21.976562 2.171875 L 21.992188 2.164062 L 21.996094 2.164062 L 22.003906 2.160156 L 22.003906 2.152344 L 22.011719 2.152344 L 22.015625 2.144531 L 22.023438 2.140625 Z M 22.027344 2.132812 L 22.03125 2.132812 Z M 23.71875 0.878906 L 22.097656 2.210938 L 22.027344 2.128906 L 23.644531 0.789062 L 23.71875 0.875 Z M 23.71875 0.878906 L 23.714844 0.878906 Z M 23.683594 0.28125 L 23.765625 0.207031 L 23.785156 0.230469 L 23.796875 0.246094 L 23.8125 0.269531 L 23.855469 0.351562 L 23.863281 0.375 L 23.863281 0.394531 L 23.871094 0.417969 L 23.878906 0.460938 L 23.882812 0.488281 L 23.882812 0.558594 L 23.878906 0.582031 L 23.875 0.601562 L 23.871094 0.628906 L 23.84375 0.710938 L 23.828125 0.734375 L 23.820312 0.753906 L 23.796875 0.789062 L 23.785156 0.8125 L 23.765625 0.828125 L 23.753906 0.847656 L 23.714844 0.878906 L 23.644531 0.796875 L 23.695312 0.746094 L 23.707031 0.726562 L 23.730469 0.679688 L 23.742188 0.664062 L 23.75 0.648438 L 23.765625 0.585938 L 23.773438 0.546875 L 23.773438 0.492188 L 23.765625 0.460938 L 23.761719 0.441406 L 23.75 0.394531 L 23.742188 0.378906 L 23.730469 0.363281 L 23.714844 0.332031 L 23.703125 0.3125 L 23.691406 0.300781 L 23.679688 0.285156 Z M 23.164062 0.242188 L 23.09375 0.160156 L 23.128906 0.128906 L 23.167969 0.101562 L 23.210938 0.0820312 L 23.277344 0.0585938 L 23.300781 0.0546875 L 23.351562 0.046875 L 23.371094 0.0429688 L 23.4375 0.0429688 L 23.511719 0.0546875 L 23.597656 0.0820312 L 23.660156 0.113281 L 23.695312 0.140625 L 23.753906 0.1875 L 23.765625 0.207031 L 23.683594 0.277344 L 23.65625 0.25 L 23.613281 0.21875 L 23.597656 0.207031 L 23.519531 0.167969 L 23.5 0.164062 L 23.46875 0.15625 L 23.453125 0.15625 L 23.433594 0.152344 L 23.382812 0.152344 L 23.363281 0.15625 L 23.351562 0.15625 L 23.332031 0.160156 L 23.300781 0.167969 L 23.28125 0.175781 L 23.269531 0.183594 L 23.25 0.191406 L 23.238281 0.199219 L 23.21875 0.207031 L 23.207031 0.21875 L 23.1875 0.230469 L 23.171875 0.242188 Z M 23.164062 0.242188 L 23.160156 0.246094 Z M 21.46875 1.496094 L 23.09375 0.164062 L 23.164062 0.246094 L 21.542969 1.582031 L 21.46875 1.5 Z M 21.46875 1.496094 L 21.46875 1.5 Z M 21.5 2.089844 L 21.421875 2.167969 L 21.421875 2.164062 L 21.40625 2.144531 L 21.390625 2.128906 L 21.363281 2.085938 L 21.34375 2.042969 L 21.335938 2.023438 L 21.324219 2 L 21.320312 1.980469 L 21.3125 1.957031 L 21.308594 1.9375 L 21.304688 1.886719 L 21.304688 1.816406 L 21.308594 1.792969 L 21.3125 1.75 L 21.320312 1.730469 L 21.324219 1.707031 L 21.335938 1.6875 L 21.34375 1.664062 L 21.363281 1.621094 L 21.378906 1.597656 L 21.390625 1.582031 L 21.402344 1.5625 L 21.417969 1.546875 L 21.433594 1.523438 L 21.453125 1.511719 L 21.46875 1.492188 L 21.542969 1.578125 L 21.527344 1.585938 L 21.5 1.617188 L 21.480469 1.644531 L 21.46875 1.660156 L 21.460938 1.675781 L 21.457031 1.695312 L 21.449219 1.707031 L 21.441406 1.726562 L 21.433594 1.738281 L 21.429688 1.757812 L 21.421875 1.769531 L 21.421875 1.789062 L 21.417969 1.824219 L 21.417969 1.890625 L 21.421875 1.910156 L 21.421875 1.929688 L 21.429688 1.945312 L 21.433594 1.960938 L 21.464844 2.023438 L 21.476562 2.039062 L 21.488281 2.058594 L 21.496094 2.070312 L 21.511719 2.089844 L 21.507812 2.085938 Z M 21.421875 2.167969 L 21.421875 2.164062 Z M 21.796875 2.207031 L 21.796875 2.3125 L 21.738281 2.3125 L 21.726562 2.308594 L 21.710938 2.304688 L 21.703125 2.300781 L 21.6875 2.300781 L 21.660156 2.292969 L 21.648438 2.289062 L 21.636719 2.289062 L 21.625 2.285156 L 21.609375 2.277344 L 21.597656 2.277344 L 21.585938 2.269531 L 21.570312 2.265625 L 21.558594 2.257812 L 21.546875 2.253906 L 21.535156 2.246094 L 21.527344 2.242188 L 21.484375 2.214844 L 21.472656 2.207031 L 21.441406 2.183594 L 21.429688 2.171875 L 21.417969 2.167969 L 21.496094 2.089844 L 21.503906 2.097656 L 21.515625 2.101562 L 21.523438 2.109375 L 21.527344 2.121094 L 21.535156 2.125 L 21.546875 2.132812 L 21.554688 2.132812 L 21.566406 2.144531 L 21.578125 2.152344 L 21.585938 2.15625 L 21.59375 2.164062 L 21.601562 2.167969 L 21.613281 2.171875 L 21.625 2.171875 L 21.636719 2.179688 L 21.644531 2.183594 L 21.65625 2.183594 L 21.6875 2.195312 L 21.699219 2.195312 L 21.730469 2.207031 Z M 21.796875 2.207031 "/>
<path style=" stroke:none;fill-rule:nonzero;fill:rgb(0%,0%,0%);fill-opacity:1;" d="M 3.9375 7.847656 L 1.832031 7.847656 C 1.609375 7.847656 1.40625 8.042969 1.40625 8.261719 C 1.40625 8.480469 1.609375 8.679688 1.832031 8.679688 L 3.9375 8.679688 C 4.160156 8.679688 4.359375 8.480469 4.359375 8.261719 C 4.359375 8.023438 4.160156 7.847656 3.9375 7.847656 Z M 3.9375 7.847656 "/>
<path style=" stroke:none;fill-rule:nonzero;fill:rgb(0%,0%,0%);fill-opacity:1;" d="M 1.832031 7.789062 L 3.941406 7.789062 L 3.941406 7.898438 L 1.832031 7.898438 Z M 1.46875 8.261719 L 1.359375 8.261719 L 1.359375 8.238281 L 1.363281 8.214844 L 1.363281 8.191406 L 1.367188 8.171875 L 1.371094 8.148438 L 1.382812 8.125 L 1.398438 8.082031 L 1.417969 8.039062 L 1.429688 8.023438 L 1.441406 8.003906 L 1.484375 7.949219 L 1.503906 7.933594 L 1.515625 7.917969 L 1.550781 7.890625 L 1.574219 7.875 L 1.589844 7.859375 L 1.609375 7.851562 L 1.628906 7.839844 L 1.65625 7.828125 L 1.695312 7.816406 L 1.722656 7.808594 L 1.742188 7.800781 L 1.8125 7.789062 L 1.839844 7.789062 L 1.839844 7.898438 L 1.820312 7.898438 L 1.804688 7.902344 L 1.789062 7.902344 L 1.769531 7.90625 L 1.753906 7.914062 L 1.734375 7.917969 L 1.722656 7.925781 L 1.6875 7.9375 L 1.671875 7.945312 L 1.65625 7.957031 L 1.585938 8.007812 L 1.542969 8.066406 L 1.519531 8.097656 L 1.511719 8.113281 L 1.507812 8.128906 L 1.496094 8.148438 L 1.492188 8.160156 L 1.484375 8.179688 L 1.480469 8.191406 L 1.476562 8.214844 L 1.476562 8.261719 Z M 1.832031 8.621094 L 1.832031 8.730469 L 1.808594 8.730469 L 1.761719 8.726562 L 1.738281 8.722656 L 1.667969 8.699219 L 1.585938 8.660156 L 1.566406 8.648438 L 1.53125 8.621094 L 1.511719 8.605469 L 1.496094 8.585938 L 1.476562 8.574219 L 1.464844 8.550781 L 1.421875 8.5 L 1.390625 8.4375 L 1.382812 8.414062 L 1.371094 8.394531 L 1.363281 8.347656 L 1.355469 8.328125 L 1.351562 8.300781 L 1.351562 8.257812 L 1.460938 8.257812 L 1.460938 8.273438 L 1.464844 8.289062 L 1.464844 8.304688 L 1.46875 8.324219 L 1.476562 8.339844 L 1.476562 8.355469 L 1.507812 8.417969 L 1.515625 8.4375 L 1.550781 8.476562 L 1.574219 8.503906 L 1.585938 8.515625 L 1.640625 8.558594 L 1.675781 8.574219 L 1.691406 8.585938 L 1.722656 8.59375 L 1.738281 8.601562 L 1.753906 8.605469 L 1.773438 8.609375 L 1.804688 8.617188 L 1.824219 8.617188 Z M 3.941406 8.730469 L 1.832031 8.730469 L 1.832031 8.621094 L 3.941406 8.621094 Z M 4.308594 8.257812 L 4.417969 8.257812 L 4.417969 8.308594 L 4.414062 8.332031 L 4.40625 8.351562 L 4.402344 8.375 L 4.394531 8.402344 L 4.378906 8.441406 L 4.355469 8.484375 L 4.347656 8.503906 L 4.332031 8.519531 L 4.320312 8.542969 L 4.308594 8.558594 L 4.289062 8.574219 L 4.242188 8.621094 L 4.222656 8.636719 L 4.207031 8.648438 L 4.183594 8.660156 L 4.167969 8.671875 L 4.125 8.695312 L 4.101562 8.699219 L 4.082031 8.710938 L 4.0625 8.71875 L 4.035156 8.722656 L 4.015625 8.730469 L 3.941406 8.730469 L 3.941406 8.625 L 3.957031 8.625 L 4.011719 8.617188 L 4.027344 8.613281 L 4.042969 8.605469 L 4.0625 8.601562 L 4.074219 8.59375 L 4.09375 8.585938 L 4.105469 8.578125 L 4.125 8.570312 L 4.136719 8.558594 L 4.15625 8.550781 L 4.183594 8.527344 L 4.195312 8.511719 L 4.21875 8.488281 L 4.25 8.445312 L 4.261719 8.429688 L 4.285156 8.382812 L 4.292969 8.351562 L 4.300781 8.332031 L 4.308594 8.296875 Z M 3.941406 7.894531 L 3.941406 7.785156 L 3.964844 7.785156 L 4.015625 7.792969 L 4.035156 7.796875 L 4.0625 7.804688 L 4.082031 7.808594 L 4.101562 7.820312 L 4.144531 7.832031 L 4.167969 7.84375 L 4.183594 7.855469 L 4.207031 7.863281 L 4.242188 7.894531 L 4.257812 7.902344 L 4.273438 7.921875 L 4.289062 7.933594 L 4.308594 7.953125 L 4.335938 7.988281 L 4.351562 8.007812 L 4.382812 8.074219 L 4.394531 8.113281 L 4.40625 8.140625 L 4.410156 8.160156 L 4.417969 8.183594 L 4.417969 8.210938 L 4.421875 8.234375 L 4.421875 8.257812 L 4.3125 8.257812 L 4.3125 8.242188 L 4.308594 8.222656 L 4.308594 8.203125 L 4.304688 8.183594 L 4.296875 8.167969 L 4.292969 8.148438 L 4.285156 8.132812 L 4.28125 8.117188 L 4.273438 8.101562 L 4.261719 8.085938 L 4.246094 8.054688 L 4.234375 8.042969 L 4.210938 8.015625 L 4.199219 8.003906 L 4.171875 7.980469 L 4.160156 7.96875 L 4.113281 7.945312 L 4.097656 7.933594 L 4.066406 7.925781 L 4.050781 7.917969 L 3.980469 7.902344 L 3.941406 7.902344 Z M 3.941406 7.894531 "/>
<path style=" stroke:none;fill-rule:nonzero;fill:rgb(0%,0%,0%);fill-opacity:1;" d="M 25.925781 3.992188 C 25.832031 3.769531 25.613281 3.664062 25.394531 3.746094 L 23.417969 4.449219 C 23.195312 4.539062 23.085938 4.777344 23.171875 4.976562 C 23.242188 5.152344 23.394531 5.234375 23.570312 5.234375 C 23.617188 5.234375 23.664062 5.234375 23.707031 5.214844 L 25.683594 4.511719 C 25.902344 4.449219 26.011719 4.207031 25.925781 3.992188 Z M 25.925781 3.992188 "/>
<path style=" stroke:none;fill-rule:nonzero;fill:rgb(0%,0%,0%);fill-opacity:1;" d="M 25.410156 3.800781 L 25.375 3.699219 L 25.371094 3.699219 L 25.421875 3.683594 L 25.441406 3.675781 L 25.515625 3.664062 L 25.585938 3.664062 L 25.613281 3.667969 L 25.652344 3.675781 L 25.738281 3.703125 L 25.796875 3.738281 L 25.851562 3.777344 L 25.902344 3.828125 L 25.914062 3.847656 L 25.925781 3.863281 L 25.953125 3.90625 L 25.984375 3.96875 L 25.882812 4.007812 L 25.875 3.992188 L 25.867188 3.96875 L 25.859375 3.957031 L 25.847656 3.9375 L 25.816406 3.894531 L 25.765625 3.847656 L 25.738281 3.824219 L 25.710938 3.808594 L 25.695312 3.800781 L 25.679688 3.796875 L 25.664062 3.789062 L 25.648438 3.785156 L 25.632812 3.777344 L 25.613281 3.777344 L 25.601562 3.773438 L 25.53125 3.773438 L 25.496094 3.777344 L 25.476562 3.777344 L 25.457031 3.785156 L 25.4375 3.789062 L 25.421875 3.800781 Z M 25.414062 3.800781 L 25.410156 3.800781 L 25.417969 3.800781 Z M 23.398438 4.398438 L 25.375 3.699219 L 25.410156 3.800781 L 23.4375 4.503906 L 23.394531 4.398438 Z M 23.394531 4.398438 L 23.398438 4.398438 L 23.394531 4.402344 Z M 23.226562 4.957031 L 23.121094 4.996094 L 23.121094 5 L 23.113281 4.976562 L 23.101562 4.957031 L 23.097656 4.9375 L 23.09375 4.914062 L 23.09375 4.894531 L 23.089844 4.871094 L 23.089844 4.804688 L 23.09375 4.785156 L 23.09375 4.761719 L 23.101562 4.722656 L 23.113281 4.699219 L 23.128906 4.65625 L 23.136719 4.636719 L 23.160156 4.597656 L 23.214844 4.527344 L 23.234375 4.511719 L 23.246094 4.496094 L 23.269531 4.480469 L 23.304688 4.453125 L 23.328125 4.4375 L 23.371094 4.417969 L 23.394531 4.40625 L 23.433594 4.507812 L 23.417969 4.515625 L 23.394531 4.523438 L 23.382812 4.535156 L 23.363281 4.542969 L 23.308594 4.585938 L 23.292969 4.601562 L 23.273438 4.628906 L 23.25 4.652344 L 23.242188 4.671875 L 23.238281 4.683594 L 23.226562 4.703125 L 23.21875 4.71875 L 23.214844 4.734375 L 23.207031 4.75 L 23.207031 4.765625 L 23.195312 4.8125 L 23.195312 4.863281 L 23.199219 4.875 L 23.203125 4.894531 L 23.207031 4.90625 L 23.207031 4.925781 L 23.214844 4.941406 L 23.21875 4.957031 L 23.21875 4.960938 Z M 23.226562 4.953125 L 23.226562 4.957031 L 23.222656 4.953125 Z M 23.570312 5.183594 L 23.570312 5.292969 L 23.535156 5.292969 L 23.519531 5.289062 L 23.496094 5.289062 L 23.425781 5.273438 L 23.414062 5.269531 L 23.394531 5.265625 L 23.382812 5.257812 L 23.363281 5.25 L 23.351562 5.242188 L 23.332031 5.234375 L 23.300781 5.21875 L 23.273438 5.195312 L 23.261719 5.1875 L 23.246094 5.175781 L 23.234375 5.160156 L 23.21875 5.152344 L 23.1875 5.109375 L 23.175781 5.089844 L 23.167969 5.078125 L 23.15625 5.058594 L 23.148438 5.046875 L 23.136719 5.027344 L 23.125 4.992188 L 23.226562 4.949219 L 23.234375 4.964844 L 23.238281 4.976562 L 23.242188 4.992188 L 23.25 5.003906 L 23.261719 5.015625 L 23.28125 5.050781 L 23.292969 5.058594 L 23.300781 5.070312 L 23.3125 5.082031 L 23.320312 5.085938 L 23.332031 5.097656 L 23.394531 5.140625 L 23.410156 5.144531 L 23.425781 5.152344 L 23.449219 5.160156 L 23.492188 5.171875 L 23.503906 5.171875 L 23.519531 5.175781 L 23.53125 5.179688 L 23.570312 5.179688 Z M 23.6875 5.164062 L 23.726562 5.269531 L 23.730469 5.269531 L 23.71875 5.269531 L 23.710938 5.277344 L 23.707031 5.277344 L 23.699219 5.28125 L 23.695312 5.285156 L 23.6875 5.285156 L 23.683594 5.289062 L 23.566406 5.289062 L 23.566406 5.183594 L 23.675781 5.183594 L 23.675781 5.179688 L 23.679688 5.175781 L 23.683594 5.175781 L 23.6875 5.171875 Z M 23.683594 5.167969 L 23.683594 5.164062 L 23.6875 5.164062 Z M 25.699219 4.566406 L 23.726562 5.269531 L 23.6875 5.164062 L 25.664062 4.464844 L 25.667969 4.464844 Z M 25.664062 4.464844 L 25.667969 4.464844 Z M 25.875 4.011719 L 25.976562 3.96875 L 26 4.042969 L 26.011719 4.113281 L 26.011719 4.183594 L 26.003906 4.234375 L 26 4.253906 L 25.976562 4.320312 L 25.957031 4.359375 L 25.9375 4.394531 L 25.925781 4.417969 L 25.84375 4.5 L 25.804688 4.523438 L 25.785156 4.539062 L 25.742188 4.558594 L 25.722656 4.566406 L 25.695312 4.574219 L 25.664062 4.46875 L 25.679688 4.464844 L 25.710938 4.449219 L 25.726562 4.4375 L 25.757812 4.421875 L 25.765625 4.410156 L 25.792969 4.390625 L 25.804688 4.375 L 25.816406 4.363281 L 25.847656 4.320312 L 25.863281 4.289062 L 25.867188 4.273438 L 25.875 4.257812 L 25.878906 4.242188 L 25.886719 4.226562 L 25.890625 4.207031 L 25.890625 4.191406 L 25.894531 4.175781 L 25.894531 4.121094 L 25.890625 4.101562 L 25.890625 4.082031 L 25.886719 4.066406 L 25.878906 4.046875 L 25.875 4.027344 L 25.867188 4.007812 Z M 25.976562 3.96875 Z M 25.976562 3.96875 "/>
<path style=" stroke:none;fill-rule:nonzero;fill:rgb(0%,0%,0%);fill-opacity:1;" d="M 26.28125 7.847656 L 24.171875 7.847656 C 23.929688 7.847656 23.753906 8.042969 23.753906 8.261719 C 23.753906 8.480469 23.929688 8.679688 24.171875 8.679688 L 26.28125 8.679688 C 26.503906 8.679688 26.703125 8.480469 26.703125 8.261719 C 26.703125 8.023438 26.503906 7.847656 26.28125 7.847656 Z M 26.28125 7.847656 "/>
<path style=" stroke:none;fill-rule:nonzero;fill:rgb(0%,0%,0%);fill-opacity:1;" d="M 24.171875 7.789062 L 26.28125 7.789062 L 26.28125 7.898438 L 24.171875 7.898438 Z M 23.804688 8.261719 L 23.695312 8.261719 L 23.695312 8.214844 L 23.699219 8.191406 L 23.707031 8.171875 L 23.710938 8.148438 L 23.730469 8.082031 L 23.753906 8.039062 L 23.761719 8.023438 L 23.773438 8.003906 L 23.789062 7.984375 L 23.796875 7.964844 L 23.84375 7.917969 L 23.863281 7.902344 L 23.878906 7.886719 L 23.898438 7.871094 L 24.003906 7.820312 L 24.023438 7.8125 L 24.074219 7.796875 L 24.144531 7.785156 L 24.171875 7.785156 L 24.171875 7.894531 L 24.152344 7.894531 L 24.132812 7.898438 L 24.117188 7.902344 L 24.097656 7.902344 L 24.078125 7.910156 L 24.0625 7.914062 L 24.007812 7.933594 L 23.996094 7.945312 L 23.976562 7.953125 L 23.964844 7.964844 L 23.953125 7.972656 L 23.925781 7.996094 L 23.910156 8.007812 L 23.898438 8.023438 L 23.890625 8.035156 L 23.867188 8.0625 L 23.863281 8.074219 L 23.855469 8.09375 L 23.84375 8.109375 L 23.828125 8.140625 L 23.820312 8.171875 L 23.820312 8.1875 L 23.8125 8.222656 L 23.808594 8.246094 L 23.808594 8.261719 Z M 24.171875 8.621094 L 24.171875 8.730469 L 24.121094 8.730469 L 24.074219 8.722656 L 24.023438 8.707031 L 24.003906 8.699219 L 23.917969 8.660156 L 23.898438 8.644531 L 23.84375 8.601562 L 23.8125 8.570312 L 23.796875 8.550781 L 23.785156 8.53125 L 23.769531 8.511719 L 23.75 8.476562 L 23.738281 8.457031 L 23.730469 8.4375 L 23.71875 8.414062 L 23.714844 8.394531 L 23.707031 8.367188 L 23.703125 8.347656 L 23.695312 8.324219 L 23.695312 8.296875 L 23.691406 8.277344 L 23.691406 8.253906 L 23.800781 8.253906 L 23.800781 8.269531 L 23.808594 8.308594 L 23.808594 8.324219 L 23.8125 8.339844 L 23.820312 8.355469 L 23.828125 8.386719 L 23.84375 8.417969 L 23.855469 8.4375 L 23.863281 8.445312 L 23.894531 8.488281 L 23.917969 8.511719 L 23.933594 8.523438 L 23.941406 8.535156 L 23.957031 8.546875 L 23.988281 8.5625 L 24.003906 8.574219 L 24.019531 8.582031 L 24.035156 8.585938 L 24.054688 8.59375 L 24.070312 8.597656 L 24.085938 8.605469 L 24.109375 8.605469 L 24.144531 8.613281 L 24.164062 8.613281 Z M 26.28125 8.730469 L 24.171875 8.730469 L 24.171875 8.621094 L 26.28125 8.621094 Z M 26.644531 8.257812 L 26.753906 8.257812 L 26.753906 8.308594 L 26.75 8.332031 L 26.742188 8.351562 L 26.742188 8.375 L 26.730469 8.402344 L 26.714844 8.441406 L 26.695312 8.484375 L 26.683594 8.503906 L 26.667969 8.519531 L 26.65625 8.542969 L 26.628906 8.578125 L 26.597656 8.609375 L 26.574219 8.625 L 26.558594 8.636719 L 26.539062 8.652344 L 26.5 8.675781 L 26.457031 8.695312 L 26.414062 8.710938 L 26.390625 8.722656 L 26.34375 8.730469 L 26.320312 8.730469 L 26.296875 8.734375 L 26.269531 8.734375 L 26.269531 8.625 L 26.304688 8.625 L 26.359375 8.617188 L 26.375 8.609375 L 26.390625 8.605469 L 26.40625 8.59375 L 26.441406 8.582031 L 26.453125 8.574219 L 26.472656 8.5625 L 26.484375 8.550781 L 26.511719 8.53125 L 26.539062 8.503906 L 26.550781 8.488281 L 26.558594 8.476562 L 26.570312 8.464844 L 26.582031 8.445312 L 26.589844 8.433594 L 26.597656 8.414062 L 26.605469 8.402344 L 26.613281 8.382812 L 26.617188 8.367188 L 26.632812 8.335938 L 26.632812 8.300781 L 26.636719 8.289062 L 26.636719 8.265625 Z M 26.28125 7.894531 L 26.28125 7.785156 L 26.304688 7.785156 L 26.328125 7.789062 L 26.378906 7.796875 L 26.398438 7.804688 L 26.421875 7.808594 L 26.445312 7.820312 L 26.488281 7.832031 L 26.527344 7.855469 L 26.546875 7.863281 L 26.5625 7.878906 L 26.585938 7.894531 L 26.601562 7.90625 L 26.617188 7.925781 L 26.632812 7.9375 L 26.652344 7.957031 L 26.664062 7.972656 L 26.691406 8.007812 L 26.707031 8.035156 L 26.726562 8.074219 L 26.742188 8.117188 L 26.75 8.140625 L 26.753906 8.164062 L 26.761719 8.1875 L 26.765625 8.214844 L 26.765625 8.261719 L 26.65625 8.261719 L 26.65625 8.246094 L 26.652344 8.222656 L 26.652344 8.207031 L 26.648438 8.1875 L 26.640625 8.171875 L 26.636719 8.152344 L 26.625 8.117188 L 26.617188 8.105469 L 26.605469 8.085938 L 26.597656 8.074219 L 26.589844 8.058594 L 26.578125 8.042969 L 26.566406 8.035156 L 26.558594 8.019531 L 26.542969 8.003906 L 26.527344 7.996094 L 26.519531 7.984375 L 26.488281 7.964844 L 26.476562 7.957031 L 26.460938 7.945312 L 26.429688 7.929688 L 26.414062 7.925781 L 26.394531 7.921875 L 26.378906 7.914062 L 26.363281 7.914062 L 26.347656 7.910156 L 26.308594 7.902344 L 26.292969 7.902344 Z M 26.28125 7.894531 "/>
</g>
</svg>
