<?xml version="1.0" encoding="UTF-8"?>
<svg xmlns="http://www.w3.org/2000/svg" xmlns:xlink="http://www.w3.org/1999/xlink" width="28px" height="28px" viewBox="0 0 28 50" version="1.1">
<g id="surface1">
<path style=" stroke:none;fill-rule:nonzero;fill:rgb(0%,0%,0%);fill-opacity:1;" d="M 26.667969 8.402344 L 24.644531 8.402344 L 23.175781 0.707031 C 23.101562 0.292969 22.746094 0.00390625 22.328125 0.00390625 L 5.195312 0.00390625 C 4.78125 0.00390625 4.425781 0.292969 4.351562 0.707031 L 2.878906 8.402344 L 0.859375 8.402344 C 0.378906 8.402344 0 8.78125 0 9.253906 L 0 14.105469 C 0 14.582031 0.378906 14.957031 0.859375 14.957031 L 2.707031 14.957031 L 4.351562 23.527344 C 4.425781 23.941406 4.78125 24.234375 5.195312 24.234375 L 7.453125 24.234375 L 7.453125 26.789062 C 7.453125 27.261719 7.84375 27.636719 8.308594 27.636719 L 10.859375 27.636719 L 10.859375 49.132812 C 10.859375 49.609375 11.238281 49.984375 11.714844 49.984375 L 15.785156 49.984375 C 16.261719 49.984375 16.644531 49.597656 16.644531 49.132812 L 16.644531 27.636719 L 19.191406 27.636719 C 19.671875 27.636719 20.050781 27.25 20.050781 26.789062 L 20.050781 24.234375 L 22.304688 24.234375 C 22.722656 24.234375 23.078125 23.941406 23.152344 23.527344 L 24.792969 14.957031 L 26.644531 14.957031 C 27.121094 14.957031 27.5 14.566406 27.5 14.105469 L 27.5 9.253906 C 27.5 8.78125 27.121094 8.402344 26.644531 8.402344 Z M 5.90625 1.714844 L 21.605469 1.714844 L 22.882812 8.402344 L 4.632812 8.402344 Z M 14.925781 48.296875 L 12.585938 48.296875 L 12.585938 27.652344 L 14.925781 27.652344 Z M 18.347656 25.9375 L 9.167969 25.9375 L 9.167969 24.246094 L 18.347656 24.246094 Z M 21.605469 22.53125 L 5.90625 22.53125 L 4.460938 14.96875 L 23.066406 14.96875 L 21.617188 22.53125 Z M 25.796875 13.253906 L 1.714844 13.253906 L 1.714844 10.117188 L 25.796875 10.117188 Z M 25.796875 13.253906 "/>
</g>
</svg>
