<?xml version="1.0" encoding="UTF-8"?>
<svg xmlns="http://www.w3.org/2000/svg" xmlns:xlink="http://www.w3.org/1999/xlink" width="28px" height="28px" viewBox="0 0 28 28" version="1.1">
<g id="surface1">
<path style=" stroke:none;fill-rule:nonzero;fill:rgb(0%,0%,0%);fill-opacity:1;" d="M 21.09375 4.707031 L 19.960938 4.707031 L 19.136719 0.394531 C 19.097656 0.164062 18.898438 0.00390625 18.664062 0.00390625 L 9.070312 0.00390625 C 8.835938 0.00390625 8.636719 0.164062 8.597656 0.394531 L 7.773438 4.707031 L 6.640625 4.707031 C 6.371094 4.707031 6.160156 4.917969 6.160156 5.183594 L 6.160156 7.898438 C 6.160156 8.164062 6.371094 8.375 6.640625 8.375 L 7.675781 8.375 L 8.597656 13.175781 C 8.636719 13.40625 8.835938 13.570312 9.070312 13.570312 L 10.332031 13.570312 L 10.332031 15 C 10.332031 15.265625 10.550781 15.476562 10.8125 15.476562 L 12.242188 15.476562 L 12.242188 27.515625 C 12.242188 27.78125 12.453125 27.992188 12.71875 27.992188 L 15 27.992188 C 15.265625 27.992188 15.480469 27.773438 15.480469 27.515625 L 15.480469 15.476562 L 16.90625 15.476562 C 17.175781 15.476562 17.386719 15.261719 17.386719 15 L 17.386719 13.570312 L 18.652344 13.570312 C 18.882812 13.570312 19.082031 13.40625 19.125 13.175781 L 20.042969 8.375 L 21.082031 8.375 C 21.347656 8.375 21.558594 8.15625 21.558594 7.898438 L 21.558594 5.183594 C 21.558594 4.917969 21.347656 4.707031 21.082031 4.707031 Z M 9.46875 0.960938 L 18.257812 0.960938 L 18.972656 4.707031 L 8.753906 4.707031 Z M 14.519531 27.046875 L 13.207031 27.046875 L 13.207031 15.484375 L 14.519531 15.484375 Z M 16.433594 14.523438 L 11.292969 14.523438 L 11.292969 13.578125 L 16.433594 13.578125 Z M 18.257812 12.617188 L 9.46875 12.617188 L 8.65625 8.382812 L 19.078125 8.382812 L 18.265625 12.617188 Z M 20.605469 7.421875 L 7.121094 7.421875 L 7.121094 5.664062 L 20.605469 5.664062 Z M 20.605469 7.421875 "/>
</g>
</svg>
