<?xml version="1.0" encoding="UTF-8"?>
<svg xmlns="http://www.w3.org/2000/svg" xmlns:xlink="http://www.w3.org/1999/xlink" width="28px" height="28px" viewBox="0 0 28 32" version="1.1">
<g id="surface1">
<path style=" stroke:none;fill-rule:nonzero;fill:rgb(0%,0%,0%);fill-opacity:1;" d="M 21.824219 7.066406 L 20.597656 7.066406 L 19.707031 2.398438 C 19.660156 2.148438 19.441406 1.972656 19.195312 1.972656 L 8.8125 1.972656 C 8.558594 1.972656 8.34375 2.152344 8.300781 2.398438 L 7.40625 7.066406 L 6.183594 7.066406 C 5.890625 7.066406 5.660156 7.292969 5.660156 7.582031 L 5.660156 10.527344 C 5.660156 10.8125 5.890625 11.046875 6.183594 11.046875 L 7.304688 11.046875 L 8.300781 16.242188 C 8.34375 16.496094 8.5625 16.667969 8.8125 16.667969 L 10.175781 16.667969 L 10.175781 18.210938 C 10.175781 18.496094 10.414062 18.730469 10.699219 18.730469 L 12.246094 18.730469 L 12.246094 31.769531 C 12.246094 32.054688 12.472656 32.285156 12.765625 32.285156 L 15.234375 32.285156 C 15.527344 32.285156 15.753906 32.054688 15.753906 31.769531 L 15.753906 18.730469 L 17.300781 18.730469 C 17.585938 18.730469 17.824219 18.496094 17.824219 18.210938 L 17.824219 16.667969 L 19.1875 16.667969 C 19.441406 16.667969 19.65625 16.488281 19.699219 16.242188 L 20.695312 11.046875 L 21.816406 11.046875 C 22.109375 11.046875 22.339844 10.8125 22.339844 10.527344 L 22.339844 7.582031 C 22.339844 7.292969 22.109375 7.066406 21.816406 7.066406 Z M 9.242188 3.011719 L 18.761719 3.011719 L 19.535156 7.066406 L 8.472656 7.066406 L 9.25 3.011719 Z M 14.710938 31.25 L 13.289062 31.25 L 13.289062 18.730469 L 14.710938 18.730469 Z M 16.785156 17.695312 L 11.222656 17.695312 L 11.222656 16.667969 L 16.785156 16.667969 Z M 18.761719 15.628906 L 9.242188 15.628906 L 8.367188 11.042969 L 19.636719 11.042969 Z M 21.300781 10.003906 L 6.703125 10.003906 L 6.703125 8.097656 L 21.300781 8.097656 Z M 21.300781 10.003906 "/>
<path style=" stroke:none;fill-rule:nonzero;fill:rgb(0%,0%,0%);fill-opacity:1;" d="M 5.109375 2.332031 C 5.203125 2.402344 5.304688 2.425781 5.402344 2.425781 C 5.523438 2.425781 5.671875 2.375 5.773438 2.253906 C 5.945312 2.058594 5.917969 1.769531 5.722656 1.59375 L 3.929688 0.105469 C 3.730469 -0.0664062 3.441406 -0.0390625 3.265625 0.15625 C 3.089844 0.351562 3.121094 0.640625 3.316406 0.8125 L 5.109375 2.324219 Z M 5.109375 2.332031 "/>
<path style=" stroke:none;fill-rule:nonzero;fill:rgb(0%,0%,0%);fill-opacity:1;" d="M 3.636719 4.890625 L 1.449219 4.109375 C 1.203125 4.015625 0.933594 4.132812 0.859375 4.378906 C 0.765625 4.621094 0.882812 4.890625 1.128906 4.964844 L 3.316406 5.742188 C 3.367188 5.765625 3.410156 5.765625 3.492188 5.765625 C 3.6875 5.765625 3.859375 5.644531 3.933594 5.476562 C 4.007812 5.257812 3.882812 4.992188 3.640625 4.890625 Z M 3.636719 4.890625 "/>
<path style=" stroke:none;fill-rule:nonzero;fill:rgb(0%,0%,0%);fill-opacity:1;" d="M 22.570312 2.453125 C 22.667969 2.453125 22.789062 2.429688 22.863281 2.359375 L 24.65625 0.871094 C 24.851562 0.695312 24.875 0.40625 24.707031 0.210938 C 24.53125 0.015625 24.238281 -0.00390625 24.042969 0.160156 L 22.25 1.652344 C 22.054688 1.824219 22.03125 2.113281 22.199219 2.308594 C 22.296875 2.402344 22.449219 2.453125 22.570312 2.453125 Z M 22.570312 2.453125 "/>
<path style=" stroke:none;fill-rule:nonzero;fill:rgb(0%,0%,0%);fill-opacity:1;" d="M 2.800781 8.671875 L 0.46875 8.671875 C 0.21875 8.671875 0 8.890625 0 9.132812 C 0 9.378906 0.21875 9.597656 0.46875 9.597656 L 2.800781 9.597656 C 3.046875 9.597656 3.265625 9.378906 3.265625 9.132812 C 3.265625 8.867188 3.046875 8.671875 2.800781 8.671875 Z M 2.800781 8.671875 "/>
<path style=" stroke:none;fill-rule:nonzero;fill:rgb(0%,0%,0%);fill-opacity:1;" d="M 27.144531 4.382812 C 27.050781 4.136719 26.800781 4.015625 26.554688 4.117188 L 24.367188 4.894531 C 24.121094 4.992188 24 5.265625 24.097656 5.480469 C 24.171875 5.675781 24.347656 5.773438 24.542969 5.773438 C 24.59375 5.773438 24.640625 5.773438 24.6875 5.75 L 26.875 4.96875 C 27.121094 4.894531 27.246094 4.628906 27.144531 4.382812 Z M 27.144531 4.382812 "/>
<path style=" stroke:none;fill-rule:nonzero;fill:rgb(0%,0%,0%);fill-opacity:1;" d="M 27.53125 8.671875 L 25.199219 8.671875 C 24.929688 8.671875 24.734375 8.890625 24.734375 9.132812 C 24.734375 9.378906 24.929688 9.597656 25.199219 9.597656 L 27.53125 9.597656 C 27.78125 9.597656 28 9.378906 28 9.132812 C 28 8.867188 27.78125 8.671875 27.53125 8.671875 Z M 27.53125 8.671875 "/>
</g>
</svg>
