<?xml version="1.0" encoding="UTF-8"?>
<svg xmlns="http://www.w3.org/2000/svg" xmlns:xlink="http://www.w3.org/1999/xlink" width="28px" height="28px" viewBox="0 0 28 28" version="1.1">
<g id="surface1">
<path style=" stroke:none;fill-rule:nonzero;fill:rgb(0%,0%,0%);fill-opacity:1;" d="M 20.847656 6.183594 L 19.773438 6.183594 L 18.992188 2.097656 C 18.953125 1.878906 18.761719 1.726562 18.546875 1.726562 L 9.460938 1.726562 C 9.238281 1.726562 9.050781 1.882812 9.011719 2.097656 L 8.230469 6.183594 L 7.160156 6.183594 C 6.90625 6.183594 6.703125 6.382812 6.703125 6.632812 L 6.703125 9.210938 C 6.703125 9.460938 6.90625 9.664062 7.160156 9.664062 L 8.140625 9.664062 L 9.011719 14.210938 C 9.050781 14.433594 9.242188 14.585938 9.460938 14.585938 L 10.652344 14.585938 L 10.652344 15.933594 C 10.652344 16.183594 10.863281 16.390625 11.113281 16.390625 L 12.464844 16.390625 L 12.464844 27.796875 C 12.464844 28.046875 12.664062 28.25 12.921875 28.25 L 15.078125 28.25 C 15.335938 28.25 15.535156 28.046875 15.535156 27.796875 L 15.535156 16.390625 L 16.886719 16.390625 C 17.136719 16.390625 17.347656 16.183594 17.347656 15.933594 L 17.347656 14.585938 L 18.539062 14.585938 C 18.761719 14.585938 18.949219 14.425781 18.988281 14.210938 L 19.859375 9.664062 L 20.839844 9.664062 C 21.097656 9.664062 21.296875 9.460938 21.296875 9.210938 L 21.296875 6.632812 C 21.296875 6.382812 21.097656 6.183594 20.839844 6.183594 Z M 9.835938 2.636719 L 18.167969 2.636719 L 18.84375 6.183594 L 9.164062 6.183594 L 9.84375 2.636719 Z M 14.621094 27.34375 L 13.378906 27.34375 L 13.378906 16.390625 L 14.621094 16.390625 Z M 16.4375 15.484375 L 11.570312 15.484375 L 11.570312 14.585938 L 16.4375 14.585938 Z M 18.167969 13.675781 L 9.835938 13.675781 L 9.070312 9.664062 L 18.933594 9.664062 Z M 20.386719 8.753906 L 7.617188 8.753906 L 7.617188 7.085938 L 20.386719 7.085938 Z M 20.386719 8.753906 "/>
<path style=" stroke:none;fill-rule:nonzero;fill:rgb(0%,0%,0%);fill-opacity:1;" d="M 6.21875 2.039062 C 6.304688 2.101562 6.390625 2.121094 6.476562 2.121094 C 6.582031 2.121094 6.710938 2.078125 6.800781 1.972656 C 6.953125 1.800781 6.929688 1.546875 6.757812 1.394531 L 5.1875 0.09375 C 5.015625 -0.0585938 4.761719 -0.0351562 4.609375 0.136719 C 4.453125 0.308594 4.480469 0.5625 4.652344 0.710938 L 6.21875 2.035156 Z M 6.21875 2.039062 "/>
<path style=" stroke:none;fill-rule:nonzero;fill:rgb(0%,0%,0%);fill-opacity:1;" d="M 4.933594 4.28125 L 3.019531 3.59375 C 2.804688 3.515625 2.566406 3.617188 2.5 3.832031 C 2.421875 4.042969 2.523438 4.28125 2.738281 4.34375 L 4.652344 5.023438 C 4.695312 5.046875 4.734375 5.046875 4.804688 5.046875 C 4.976562 5.046875 5.125 4.9375 5.191406 4.792969 C 5.257812 4.601562 5.148438 4.367188 4.9375 4.28125 Z M 4.933594 4.28125 "/>
<path style=" stroke:none;fill-rule:nonzero;fill:rgb(0%,0%,0%);fill-opacity:1;" d="M 21.5 2.148438 C 21.585938 2.148438 21.691406 2.125 21.753906 2.0625 L 23.324219 0.761719 C 23.496094 0.609375 23.515625 0.355469 23.367188 0.183594 C 23.214844 0.015625 22.957031 -0.00390625 22.789062 0.140625 L 21.21875 1.445312 C 21.046875 1.597656 21.027344 1.847656 21.175781 2.019531 C 21.261719 2.101562 21.394531 2.148438 21.5 2.148438 Z M 21.5 2.148438 "/>
<path style=" stroke:none;fill-rule:nonzero;fill:rgb(0%,0%,0%);fill-opacity:1;" d="M 4.199219 7.585938 L 2.160156 7.585938 C 1.941406 7.585938 1.75 7.78125 1.75 7.992188 C 1.75 8.207031 1.941406 8.398438 2.160156 8.398438 L 4.199219 8.398438 C 4.414062 8.398438 4.609375 8.207031 4.609375 7.992188 C 4.609375 7.757812 4.414062 7.585938 4.199219 7.585938 Z M 4.199219 7.585938 "/>
<path style=" stroke:none;fill-rule:nonzero;fill:rgb(0%,0%,0%);fill-opacity:1;" d="M 25.5 3.835938 C 25.417969 3.621094 25.199219 3.515625 24.984375 3.601562 L 23.070312 4.28125 C 22.855469 4.367188 22.75 4.609375 22.835938 4.796875 C 22.902344 4.964844 23.054688 5.050781 23.226562 5.050781 C 23.269531 5.050781 23.3125 5.050781 23.351562 5.03125 L 25.265625 4.347656 C 25.480469 4.28125 25.589844 4.050781 25.5 3.835938 Z M 25.5 3.835938 "/>
<path style=" stroke:none;fill-rule:nonzero;fill:rgb(0%,0%,0%);fill-opacity:1;" d="M 25.839844 7.585938 L 23.800781 7.585938 C 23.5625 7.585938 23.394531 7.78125 23.394531 7.992188 C 23.394531 8.207031 23.5625 8.398438 23.800781 8.398438 L 25.839844 8.398438 C 26.058594 8.398438 26.25 8.207031 26.25 7.992188 C 26.25 7.757812 26.058594 7.585938 25.839844 7.585938 Z M 25.839844 7.585938 "/>
</g>
</svg>
