<?xml version="1.0" encoding="UTF-8"?>
<svg xmlns="http://www.w3.org/2000/svg" xmlns:xlink="http://www.w3.org/1999/xlink" width="28px" height="28px" viewBox="0 0 28 28" version="1.1">
<g id="surface1">
<path style=" stroke:none;fill-rule:nonzero;fill:rgb(0%,0%,0%);fill-opacity:1;" d="M 0.378906 0.871094 L 4.375 1.386719 L 4.375 2.625 L 3.9375 2.625 C 3.699219 2.625 3.503906 2.820312 3.503906 3.0625 L 3.503906 4.671875 C 2.921875 5.011719 2.628906 5.644531 2.628906 6.558594 C 2.628906 8.164062 3.480469 10.496094 4.816406 10.496094 C 5.902344 10.496094 6.667969 8.945312 6.917969 7.507812 C 6.921875 7.484375 6.921875 7.457031 6.921875 7.429688 C 6.921875 7.191406 6.726562 6.996094 6.488281 6.996094 C 6.277344 6.996094 6.089844 7.148438 6.054688 7.359375 C 5.828125 8.652344 5.210938 9.625 4.816406 9.625 C 4.289062 9.625 3.503906 8.011719 3.503906 6.5625 C 3.503906 5.460938 3.964844 5.25 4.816406 5.25 C 5.683594 5.25 5.910156 5.53125 6.023438 5.839844 C 6.085938 6.015625 6.25 6.132812 6.433594 6.132812 C 6.675781 6.132812 6.871094 5.9375 6.871094 5.695312 C 6.871094 5.640625 6.863281 5.582031 6.839844 5.53125 C 6.710938 5.167969 6.460938 4.859375 6.128906 4.664062 L 6.128906 3.0625 C 6.128906 2.820312 5.933594 2.625 5.691406 2.625 L 5.253906 2.625 L 5.253906 1.5 L 13.5625 2.574219 L 13.5625 3.503906 L 13.125 3.503906 C 12.886719 3.503906 12.691406 3.699219 12.691406 3.9375 L 12.691406 5.691406 C 12.691406 5.710938 12.695312 5.730469 12.699219 5.75 C 12.695312 5.777344 12.691406 5.804688 12.691406 5.832031 C 12.691406 5.878906 12.699219 5.925781 12.714844 5.972656 C 12.777344 6.140625 12.941406 6.253906 13.125 6.253906 C 13.179688 6.253906 13.230469 6.246094 13.28125 6.230469 C 13.484375 6.164062 13.707031 6.132812 13.921875 6.132812 C 13.949219 6.132812 13.972656 6.132812 14.003906 6.132812 C 14.855469 6.132812 15.320312 6.34375 15.320312 7.445312 C 15.320312 8.894531 14.539062 10.507812 14.003906 10.507812 C 13.476562 10.507812 12.691406 8.894531 12.691406 7.445312 C 12.691406 7.207031 12.496094 7.011719 12.253906 7.011719 C 12.011719 7.011719 11.816406 7.207031 11.816406 7.445312 C 11.816406 9.054688 12.667969 11.386719 14.003906 11.386719 C 15.339844 11.386719 16.191406 9.054688 16.191406 7.445312 C 16.191406 6.53125 15.898438 5.902344 15.320312 5.5625 L 15.320312 3.949219 C 15.320312 3.707031 15.125 3.511719 14.882812 3.511719 L 14.445312 3.511719 L 14.445312 2.695312 L 22.753906 3.769531 L 22.753906 4.386719 L 22.320312 4.386719 C 22.078125 4.386719 21.882812 4.582031 21.882812 4.820312 L 21.882812 6.433594 C 21.300781 6.773438 21.007812 7.40625 21.007812 8.320312 C 21.007812 9.925781 21.863281 12.257812 23.199219 12.257812 C 24.53125 12.257812 25.386719 9.925781 25.386719 8.320312 C 25.386719 8.078125 25.191406 7.882812 24.949219 7.882812 C 24.707031 7.882812 24.511719 8.078125 24.511719 8.320312 C 24.511719 9.769531 23.730469 11.378906 23.199219 11.378906 C 22.667969 11.378906 21.882812 9.769531 21.882812 8.320312 C 21.882812 7.214844 22.34375 7.003906 23.199219 7.003906 C 23.222656 7.003906 23.25 7.003906 23.269531 7.003906 C 23.488281 7.003906 23.707031 7.039062 23.917969 7.109375 C 23.960938 7.128906 24.019531 7.132812 24.070312 7.132812 C 24.253906 7.132812 24.414062 7.019531 24.480469 6.851562 C 24.496094 6.804688 24.507812 6.757812 24.507812 6.710938 C 24.507812 6.6875 24.5 6.65625 24.496094 6.628906 C 24.5 6.609375 24.507812 6.589844 24.507812 6.566406 L 24.507812 4.816406 C 24.507812 4.574219 24.3125 4.378906 24.070312 4.378906 L 23.632812 4.378906 L 23.632812 3.878906 L 27.515625 4.378906 C 27.53125 4.378906 27.550781 4.386719 27.566406 4.386719 C 27.808594 4.386719 28.003906 4.191406 28.003906 3.949219 C 28.003906 3.726562 27.839844 3.542969 27.625 3.519531 L 0.503906 0.015625 C 0.484375 0.015625 0.46875 0.0117188 0.445312 0.0117188 C 0.207031 0.0117188 0.0117188 0.207031 0.0117188 0.445312 C 0.0117188 0.667969 0.175781 0.851562 0.390625 0.878906 Z M 4.8125 4.375 C 4.667969 4.375 4.519531 4.386719 4.375 4.40625 L 4.375 3.503906 L 5.25 3.503906 L 5.25 4.394531 C 5.117188 4.378906 4.980469 4.375 4.847656 4.375 C 4.832031 4.375 4.824219 4.375 4.808594 4.375 Z M 14.4375 5.269531 C 14.292969 5.269531 14.144531 5.28125 14 5.292969 L 14 4.375 L 14.871094 4.375 L 14.871094 5.28125 C 14.6875 5.253906 14.503906 5.238281 14.3125 5.238281 C 14.207031 5.238281 14.101562 5.242188 13.996094 5.253906 L 14.429688 5.273438 Z M 23.625 6.183594 L 23.625 5.25 L 24.496094 5.25 L 24.496094 6.148438 C 24.253906 6.101562 24.015625 6.082031 23.765625 6.082031 C 23.574219 6.082031 23.378906 6.097656 23.1875 6.125 C 23.042969 6.125 22.894531 6.136719 22.75 6.15625 L 23.625 6.1875 Z M 23.625 6.183594 "/>
<path style=" stroke:none;fill-rule:nonzero;fill:rgb(0%,0%,0%);fill-opacity:1;" d="M 27.507812 15.75 L 0.386719 19.246094 C 0.164062 19.273438 0.00390625 19.464844 0.00390625 19.683594 C 0.00390625 19.925781 0.199219 20.121094 0.441406 20.121094 C 0.441406 20.121094 0.441406 20.121094 0.445312 20.121094 C 0.460938 20.121094 0.484375 20.121094 0.5 20.117188 L 4.382812 19.613281 L 4.382812 20.117188 L 3.945312 20.117188 C 3.703125 20.117188 3.507812 20.3125 3.507812 20.550781 L 3.507812 22.304688 C 3.507812 22.324219 3.511719 22.34375 3.519531 22.363281 C 3.511719 22.390625 3.507812 22.421875 3.507812 22.449219 C 3.507812 22.492188 3.519531 22.539062 3.535156 22.585938 C 3.59375 22.753906 3.757812 22.867188 3.945312 22.867188 C 3.996094 22.867188 4.046875 22.859375 4.097656 22.84375 C 4.308594 22.777344 4.523438 22.738281 4.746094 22.738281 C 4.769531 22.738281 4.796875 22.738281 4.816406 22.738281 C 5.667969 22.738281 6.132812 22.949219 6.132812 24.054688 C 6.132812 25.503906 5.351562 27.117188 4.816406 27.117188 C 4.289062 27.117188 3.503906 25.503906 3.503906 24.054688 C 3.503906 23.8125 3.308594 23.617188 3.066406 23.617188 C 2.824219 23.617188 2.628906 23.8125 2.628906 24.054688 C 2.628906 25.664062 3.480469 27.992188 4.816406 27.992188 C 6.152344 27.992188 7.003906 25.664062 7.003906 24.054688 C 7.003906 23.140625 6.710938 22.507812 6.132812 22.171875 L 6.132812 20.558594 C 6.132812 20.316406 5.9375 20.121094 5.695312 20.121094 L 5.257812 20.121094 L 5.257812 19.503906 L 13.566406 18.429688 L 13.566406 19.246094 L 13.132812 19.246094 C 12.890625 19.246094 12.695312 19.441406 12.695312 19.683594 L 12.695312 21.296875 C 12.113281 21.636719 11.820312 22.269531 11.820312 23.183594 C 11.820312 24.789062 12.675781 27.121094 14.011719 27.121094 C 15.09375 27.121094 15.859375 25.570312 16.109375 24.132812 C 16.117188 24.105469 16.117188 24.082031 16.117188 24.054688 C 16.117188 23.8125 15.921875 23.617188 15.679688 23.617188 C 15.46875 23.617188 15.285156 23.773438 15.246094 23.984375 C 15.023438 25.277344 14.40625 26.246094 14.011719 26.246094 C 13.480469 26.246094 12.695312 24.636719 12.695312 23.1875 C 12.695312 22.082031 13.15625 21.871094 14.011719 21.871094 C 14.878906 21.871094 15.097656 22.15625 15.21875 22.460938 C 15.277344 22.636719 15.441406 22.753906 15.628906 22.753906 C 15.867188 22.753906 16.0625 22.558594 16.0625 22.320312 C 16.0625 22.261719 16.054688 22.207031 16.035156 22.15625 C 15.90625 21.789062 15.652344 21.480469 15.320312 21.285156 L 15.320312 19.683594 C 15.320312 19.441406 15.125 19.246094 14.882812 19.246094 L 14.445312 19.246094 L 14.445312 18.320312 L 22.753906 17.246094 L 22.753906 18.371094 L 22.320312 18.371094 C 22.078125 18.371094 21.882812 18.566406 21.882812 18.804688 L 21.882812 20.558594 C 21.882812 20.578125 21.886719 20.597656 21.894531 20.621094 C 21.886719 20.644531 21.882812 20.675781 21.882812 20.703125 C 21.882812 20.746094 21.894531 20.792969 21.910156 20.839844 C 21.96875 21.007812 22.132812 21.121094 22.320312 21.121094 C 22.371094 21.121094 22.421875 21.113281 22.472656 21.097656 C 22.683594 21.03125 22.898438 20.992188 23.121094 20.992188 C 23.144531 20.992188 23.171875 20.992188 23.191406 20.992188 C 24.042969 20.992188 24.507812 21.203125 24.507812 22.308594 C 24.507812 23.757812 23.726562 25.371094 23.191406 25.371094 C 22.664062 25.371094 21.878906 23.757812 21.878906 22.308594 C 21.878906 22.066406 21.683594 21.871094 21.441406 21.871094 C 21.199219 21.871094 21.003906 22.066406 21.003906 22.308594 C 21.003906 23.917969 21.855469 26.246094 23.191406 26.246094 C 24.527344 26.246094 25.378906 23.917969 25.378906 22.308594 C 25.378906 21.394531 25.085938 20.761719 24.507812 20.425781 L 24.507812 18.8125 C 24.507812 18.570312 24.3125 18.375 24.070312 18.375 L 23.632812 18.375 L 23.632812 17.136719 L 27.628906 16.625 C 27.84375 16.597656 28.007812 16.40625 28.007812 16.1875 C 28.007812 15.945312 27.8125 15.75 27.574219 15.75 C 27.550781 15.75 27.535156 15.75 27.515625 15.753906 Z M 4.8125 21.871094 C 4.667969 21.871094 4.519531 21.882812 4.375 21.898438 L 4.375 21 L 5.25 21 L 5.25 21.902344 C 5.105469 21.882812 4.957031 21.871094 4.8125 21.871094 Z M 14.4375 21.023438 C 14.292969 21.023438 14.144531 21.035156 14 21.054688 L 14 20.121094 L 14.871094 20.121094 L 14.871094 21.015625 C 14.699219 20.988281 14.523438 20.980469 14.34375 20.980469 C 14.226562 20.980469 14.113281 20.984375 13.996094 20.992188 L 14.429688 21.023438 Z M 24.058594 20.140625 C 23.917969 20.140625 23.765625 20.152344 23.625 20.167969 L 23.625 19.246094 L 24.496094 19.246094 L 24.496094 20.152344 C 24.253906 20.101562 24.007812 20.074219 23.761719 20.074219 C 23.566406 20.074219 23.378906 20.089844 23.1875 20.121094 Z M 24.058594 20.140625 "/>
<path style=" stroke:none;fill-rule:nonzero;fill:rgb(0%,0%,0%);fill-opacity:1;" d="M 4.375 11.8125 L 4.375 12.683594 C 4.375 12.925781 4.570312 13.121094 4.8125 13.121094 C 5.054688 13.121094 5.25 12.925781 5.25 12.683594 L 5.25 11.8125 C 5.25 11.570312 5.054688 11.375 4.8125 11.375 C 4.570312 11.375 4.375 11.570312 4.375 11.8125 Z M 4.375 11.8125 "/>
<path style=" stroke:none;fill-rule:nonzero;fill:rgb(0%,0%,0%);fill-opacity:1;" d="M 2.316406 10.625 L 1.878906 11.0625 C 1.792969 11.144531 1.746094 11.257812 1.746094 11.375 C 1.746094 11.617188 1.941406 11.8125 2.183594 11.8125 C 2.300781 11.8125 2.414062 11.765625 2.496094 11.679688 L 2.933594 11.242188 C 3.007812 11.160156 3.054688 11.050781 3.054688 10.9375 C 3.054688 10.699219 2.859375 10.503906 2.621094 10.503906 C 2.507812 10.503906 2.398438 10.546875 2.316406 10.625 Z M 2.316406 10.625 "/>
<path style=" stroke:none;fill-rule:nonzero;fill:rgb(0%,0%,0%);fill-opacity:1;" d="M 6.691406 10.625 C 6.609375 10.707031 6.5625 10.820312 6.5625 10.933594 C 6.5625 11.050781 6.609375 11.160156 6.691406 11.242188 L 7.128906 11.679688 C 7.210938 11.753906 7.320312 11.800781 7.429688 11.800781 C 7.671875 11.800781 7.867188 11.605469 7.867188 11.363281 C 7.867188 11.25 7.820312 11.144531 7.746094 11.0625 L 7.308594 10.625 C 7.226562 10.542969 7.113281 10.496094 7 10.496094 C 6.882812 10.496094 6.773438 10.542969 6.691406 10.625 Z M 6.691406 10.625 "/>
<path style=" stroke:none;fill-rule:nonzero;fill:rgb(0%,0%,0%);fill-opacity:1;" d="M 13.5625 12.683594 L 13.5625 13.558594 C 13.5625 13.800781 13.757812 13.996094 14 13.996094 C 14.242188 13.996094 14.4375 13.800781 14.4375 13.558594 L 14.4375 12.683594 C 14.4375 12.445312 14.242188 12.25 14 12.25 C 13.757812 12.25 13.5625 12.445312 13.5625 12.683594 Z M 13.5625 12.683594 "/>
<path style=" stroke:none;fill-rule:nonzero;fill:rgb(0%,0%,0%);fill-opacity:1;" d="M 11.503906 11.503906 L 11.066406 11.941406 C 10.980469 12.023438 10.933594 12.136719 10.933594 12.253906 C 10.933594 12.496094 11.128906 12.691406 11.371094 12.691406 C 11.488281 12.691406 11.601562 12.644531 11.683594 12.554688 L 12.121094 12.121094 C 12.195312 12.039062 12.242188 11.929688 12.242188 11.816406 C 12.242188 11.574219 12.046875 11.378906 11.808594 11.378906 C 11.695312 11.378906 11.585938 11.425781 11.503906 11.503906 Z M 11.503906 11.503906 "/>
<path style=" stroke:none;fill-rule:nonzero;fill:rgb(0%,0%,0%);fill-opacity:1;" d="M 15.878906 11.503906 C 15.796875 11.585938 15.75 11.699219 15.75 11.8125 C 15.75 11.929688 15.796875 12.039062 15.878906 12.121094 L 16.316406 12.554688 C 16.398438 12.632812 16.507812 12.679688 16.617188 12.679688 C 16.859375 12.679688 17.054688 12.484375 17.054688 12.242188 C 17.054688 12.128906 17.007812 12.023438 16.933594 11.941406 L 16.496094 11.503906 C 16.414062 11.421875 16.300781 11.375 16.1875 11.375 C 16.070312 11.375 15.960938 11.421875 15.878906 11.503906 Z M 15.878906 11.503906 "/>
<path style=" stroke:none;fill-rule:nonzero;fill:rgb(0%,0%,0%);fill-opacity:1;" d="M 22.75 13.5625 L 22.75 14.4375 C 22.75 14.675781 22.945312 14.871094 23.1875 14.871094 C 23.429688 14.871094 23.625 14.675781 23.625 14.4375 L 23.625 13.5625 C 23.625 13.320312 23.429688 13.125 23.1875 13.125 C 22.945312 13.125 22.75 13.320312 22.75 13.5625 Z M 22.75 13.5625 "/>
<path style=" stroke:none;fill-rule:nonzero;fill:rgb(0%,0%,0%);fill-opacity:1;" d="M 20.691406 12.375 L 20.253906 12.8125 C 20.167969 12.894531 20.121094 13.007812 20.121094 13.125 C 20.121094 13.367188 20.316406 13.5625 20.558594 13.5625 C 20.675781 13.5625 20.789062 13.515625 20.871094 13.429688 L 21.308594 12.992188 C 21.382812 12.910156 21.429688 12.804688 21.429688 12.691406 C 21.429688 12.449219 21.234375 12.253906 20.996094 12.253906 C 20.882812 12.253906 20.773438 12.300781 20.691406 12.375 Z M 20.691406 12.375 "/>
<path style=" stroke:none;fill-rule:nonzero;fill:rgb(0%,0%,0%);fill-opacity:1;" d="M 25.066406 12.375 C 24.984375 12.457031 24.9375 12.570312 24.9375 12.683594 C 24.9375 12.804688 24.984375 12.910156 25.066406 12.992188 L 25.503906 13.429688 C 25.585938 13.507812 25.691406 13.550781 25.804688 13.550781 C 26.046875 13.550781 26.242188 13.359375 26.242188 13.117188 C 26.242188 13.003906 26.195312 12.894531 26.121094 12.8125 L 25.683594 12.375 C 25.601562 12.292969 25.488281 12.25 25.375 12.25 C 25.257812 12.25 25.148438 12.292969 25.066406 12.375 Z M 25.066406 12.375 "/>
</g>
</svg>
