<?xml version="1.0" encoding="UTF-8"?>
<svg xmlns="http://www.w3.org/2000/svg" xmlns:xlink="http://www.w3.org/1999/xlink" width="28px" height="28px" viewBox="0 0 28 28" version="1.1">
<g id="surface1">
<path style=" stroke:none;fill-rule:nonzero;fill:rgb(92.941176%,41.176471%,36.078431%);fill-opacity:1;" d="M 1.75 14.820312 L 1.75 13.289062 L 26.292969 13.289062 L 26.292969 14.820312 Z M 3.546875 25.726562 L 3.546875 15.683594 L 11.789062 15.683594 L 11.789062 25.726562 Z M 13.585938 27.523438 L 1.742188 27.523438 L 1.742188 15.691406 L 2.671875 15.691406 L 2.671875 26.160156 C 2.671875 26.40625 2.867188 26.597656 3.105469 26.597656 L 12.214844 26.597656 C 12.453125 26.597656 12.648438 26.398438 12.648438 26.160156 L 12.648438 15.691406 L 13.578125 15.691406 L 13.578125 27.523438 Z M 1.742188 10.886719 L 26.285156 10.886719 L 26.285156 12.414062 L 1.742188 12.414062 Z M 1.742188 8.484375 L 26.285156 8.484375 L 26.285156 10.011719 L 1.742188 10.011719 Z M 1.742188 6.085938 L 26.285156 6.085938 L 26.285156 7.617188 L 1.742188 7.617188 Z M 1.742188 3.703125 L 26.285156 3.703125 L 26.285156 5.21875 L 1.742188 5.21875 Z M 22.273438 27.917969 C 22.261719 27.785156 22.246094 27.648438 22.246094 27.511719 L 14.453125 27.511719 L 14.453125 15.675781 L 15.378906 15.675781 L 15.378906 26.148438 C 15.378906 26.390625 15.578125 26.582031 15.8125 26.582031 L 22.273438 26.582031 C 22.300781 26.292969 22.332031 26.003906 22.378906 25.714844 L 16.25 25.714844 L 16.25 15.667969 L 24.492188 15.667969 L 24.492188 18.644531 C 24.78125 18.605469 25.078125 18.597656 25.359375 18.597656 L 25.359375 15.667969 L 26.285156 15.667969 L 26.285156 18.589844 C 26.574219 18.589844 26.867188 18.582031 27.15625 18.578125 L 27.15625 3.699219 L 27.601562 3.699219 C 27.839844 3.699219 28.035156 3.507812 28.035156 3.261719 L 28.035156 0.414062 C 28.035156 0.179688 27.839844 -0.0117188 27.601562 -0.0117188 L 5.382812 -0.0117188 C 4.835938 -0.0117188 4.816406 0.855469 5.382812 0.855469 L 27.167969 0.855469 L 27.167969 2.835938 L 0.863281 2.835938 L 0.863281 0.855469 L 3.066406 0.855469 C 3.613281 0.855469 3.632812 -0.0117188 3.066406 -0.0117188 L 0.425781 -0.0117188 C 0.191406 -0.0117188 -0.0078125 0.179688 -0.0078125 0.414062 L -0.0078125 3.261719 C -0.0078125 3.507812 0.191406 3.699219 0.425781 3.699219 L 0.875 3.699219 L 0.875 27.945312 C 0.875 28.179688 1.070312 28.371094 1.308594 28.371094 L 22.367188 28.371094 C 22.328125 28.234375 22.292969 28.082031 22.273438 27.910156 Z M 22.273438 27.917969 "/>
<path style=" stroke:none;fill-rule:nonzero;fill:rgb(92.941176%,41.176471%,36.078431%);fill-opacity:1;" d="M 1.78125 27.476562 L 26.265625 27.476562 L 26.265625 3.902344 L 1.78125 3.902344 Z M 26.699219 28.378906 L 1.347656 28.378906 C 1.09375 28.378906 0.882812 28.175781 0.882812 27.910156 L 0.882812 3.46875 C 0.882812 3.203125 1.09375 3 1.347656 3 L 26.699219 3 C 26.957031 3 27.167969 3.203125 27.167969 3.46875 L 27.167969 27.910156 C 27.167969 28.175781 26.957031 28.378906 26.699219 28.378906 Z M 26.699219 28.378906 "/>
<path style=" stroke:none;fill-rule:nonzero;fill:rgb(92.941176%,41.176471%,36.078431%);fill-opacity:1;" d="M 24.453125 15.105469 L 24.453125 25.695312 L 16.253906 25.695312 L 16.253906 15.308594 C 15.984375 15.539062 15.582031 15.417969 15.355469 15.148438 L 15.355469 26.128906 C 15.355469 26.390625 15.5625 26.597656 15.820312 26.597656 L 24.890625 26.597656 C 25.148438 26.597656 25.359375 26.390625 25.359375 26.128906 L 25.359375 15.335938 C 25.082031 15.484375 24.675781 15.375 24.457031 15.097656 Z M 24.453125 15.105469 "/>
<path style=" stroke:none;fill-rule:nonzero;fill:rgb(92.941176%,41.176471%,36.078431%);fill-opacity:1;" d="M 12.40625 15.335938 C 12.191406 15.375 11.964844 15.414062 11.75 15.433594 L 11.75 25.703125 L 3.550781 25.703125 L 3.550781 15.480469 C 3.386719 15.445312 3.222656 15.40625 3.066406 15.355469 C 2.894531 15.292969 2.761719 15.214844 2.652344 15.117188 L 2.652344 26.140625 C 2.652344 26.40625 2.863281 26.609375 3.117188 26.609375 L 12.191406 26.609375 C 12.445312 26.609375 12.65625 26.40625 12.65625 26.140625 L 12.65625 15.222656 C 12.589844 15.273438 12.503906 15.328125 12.414062 15.339844 Z M 12.40625 15.335938 "/>
<path style=" stroke:none;fill-rule:nonzero;fill:rgb(92.941176%,41.176471%,36.078431%);fill-opacity:1;" d="M 13.5625 27.726562 L 14.433594 27.726562 L 14.433594 3.257812 L 13.5625 3.257812 Z M 13.5625 27.726562 "/>
</g>
</svg>
