<?xml version="1.0" encoding="UTF-8"?>
<svg xmlns="http://www.w3.org/2000/svg" xmlns:xlink="http://www.w3.org/1999/xlink" width="28px" height="28px" viewBox="0 0 28 28" version="1.1">
<g id="surface1">
<path style=" stroke:none;fill-rule:nonzero;fill:rgb(92.941176%,41.176471%,36.078431%);fill-opacity:1;" d="M 26.246094 23.644531 L 24.882812 25.015625 L 24.882812 20.476562 C 24.882812 20.332031 24.765625 20.222656 24.621094 20.222656 C 24.476562 20.222656 24.363281 20.335938 24.363281 20.476562 L 24.363281 25.015625 L 22.996094 23.644531 C 22.894531 23.546875 22.734375 23.546875 22.632812 23.644531 C 22.53125 23.746094 22.53125 23.910156 22.632812 24.007812 C 24.542969 25.921875 24.4375 25.828125 24.496094 25.859375 C 24.570312 25.902344 24.65625 25.902344 24.726562 25.867188 C 24.789062 25.835938 24.726562 25.890625 26.609375 24.007812 C 26.710938 23.910156 26.710938 23.746094 26.609375 23.644531 C 26.507812 23.546875 26.34375 23.546875 26.242188 23.644531 Z M 26.246094 23.644531 "/>
<path style=" stroke:none;fill-rule:nonzero;fill:rgb(92.941176%,41.176471%,36.078431%);fill-opacity:1;" d="M 23 22.460938 L 24.367188 21.09375 L 24.367188 25.628906 C 24.367188 25.773438 24.484375 25.882812 24.625 25.882812 C 24.769531 25.882812 24.886719 25.769531 24.886719 25.628906 L 24.886719 21.09375 L 26.25 22.460938 C 26.351562 22.558594 26.515625 22.558594 26.617188 22.460938 C 26.71875 22.359375 26.71875 22.195312 26.617188 22.097656 C 24.707031 20.183594 24.8125 20.277344 24.75 20.246094 C 24.675781 20.203125 24.59375 20.203125 24.519531 20.242188 C 24.460938 20.269531 24.519531 20.21875 22.640625 22.097656 C 22.539062 22.195312 22.539062 22.359375 22.640625 22.460938 C 22.742188 22.558594 22.90625 22.558594 23.007812 22.460938 Z M 23 22.460938 "/>
<path style=" stroke:none;fill-rule:nonzero;fill:rgb(92.941176%,41.176471%,36.078431%);fill-opacity:1;" d="M 21.234375 19.121094 L 21.234375 24.21875 L 15.296875 24.21875 L 15.296875 14.765625 L 23.058594 14.765625 L 23.058594 17.921875 L 22.433594 17.921875 C 21.769531 17.921875 21.234375 18.457031 21.234375 19.121094 Z M 13.609375 14.765625 L 14.484375 14.765625 L 14.484375 24.621094 C 14.484375 24.847656 14.667969 25.03125 14.890625 25.03125 L 21.234375 25.03125 L 21.234375 25.902344 L 13.609375 25.902344 Z M 1.648438 14.765625 L 2.523438 14.765625 L 2.523438 24.621094 C 2.523438 24.847656 2.710938 25.03125 2.933594 25.03125 L 11.511719 25.03125 C 11.738281 25.03125 11.917969 24.851562 11.917969 24.621094 L 11.917969 14.765625 L 12.789062 14.765625 L 12.789062 25.902344 L 1.648438 25.902344 Z M 24.75 3.492188 L 24.75 4.917969 L 1.648438 4.917969 L 1.648438 3.492188 Z M 24.75 14.765625 L 24.75 17.921875 L 23.875 17.921875 L 23.875 14.765625 Z M 24.75 7.175781 L 1.648438 7.175781 L 1.648438 5.730469 L 24.75 5.730469 Z M 24.75 9.425781 L 1.648438 9.425781 L 1.648438 7.992188 L 24.75 7.992188 Z M 1.648438 10.246094 L 24.75 10.246094 L 24.75 11.679688 L 1.648438 11.679688 Z M 3.339844 14.757812 L 11.097656 14.757812 L 11.097656 24.210938 L 3.339844 24.210938 Z M 13.195312 13.945312 L 1.644531 13.945312 L 1.644531 12.5 L 24.746094 12.5 L 24.746094 13.945312 Z M 27.507812 22.265625 C 27.734375 22.265625 27.914062 22.082031 27.914062 21.859375 L 27.914062 19.121094 C 27.914062 18.457031 27.375 17.921875 26.714844 17.921875 L 25.5625 17.921875 L 25.5625 3.492188 L 25.976562 3.492188 C 26.207031 3.492188 26.386719 3.308594 26.386719 3.078125 L 26.386719 0.398438 C 26.386719 0.175781 26.199219 -0.00390625 25.976562 -0.00390625 L 5.0625 -0.00390625 C 4.550781 -0.00390625 4.523438 0.808594 5.0625 0.808594 L 25.566406 0.808594 L 25.566406 2.675781 L 0.8125 2.675781 L 0.8125 0.808594 L 2.886719 0.808594 C 3.394531 0.808594 3.417969 -0.00390625 2.886719 -0.00390625 L 0.40625 -0.00390625 C 0.175781 -0.00390625 -0.00390625 0.175781 -0.00390625 0.398438 L -0.00390625 3.078125 C -0.00390625 3.304688 0.183594 3.492188 0.40625 3.492188 L 0.824219 3.492188 L 0.824219 26.308594 C 0.824219 26.53125 1.011719 26.710938 1.234375 26.710938 L 21.222656 26.710938 C 21.234375 27.371094 21.765625 27.894531 22.421875 27.894531 L 26.710938 27.894531 C 27.367188 27.894531 27.910156 27.355469 27.910156 26.695312 L 27.910156 24.03125 C 27.910156 23.519531 27.089844 23.496094 27.089844 24.03125 L 27.089844 26.695312 C 27.089844 26.90625 26.917969 27.078125 26.710938 27.078125 L 22.421875 27.078125 C 22.214844 27.078125 22.042969 26.90625 22.042969 26.695312 L 22.042969 19.109375 C 22.042969 18.898438 22.214844 18.726562 22.421875 18.726562 L 26.710938 18.726562 C 26.917969 18.726562 27.089844 18.898438 27.089844 19.109375 L 27.089844 21.851562 C 27.089844 22.074219 27.273438 22.253906 27.496094 22.253906 Z M 27.507812 22.265625 "/>
</g>
</svg>
