<?xml version="1.0" encoding="UTF-8"?>
<svg xmlns="http://www.w3.org/2000/svg" xmlns:xlink="http://www.w3.org/1999/xlink" width="28px" height="28px" viewBox="0 0 28 28" version="1.1">
<g id="surface1">
<path style=" stroke:none;fill-rule:nonzero;fill:rgb(92.941176%,41.176471%,36.078431%);fill-opacity:1;" d="M 22.976562 22.464844 L 24.339844 21.09375 L 24.339844 25.632812 C 24.339844 25.777344 24.457031 25.890625 24.597656 25.890625 C 24.742188 25.890625 24.855469 25.777344 24.855469 25.632812 L 24.855469 21.09375 L 26.222656 22.464844 C 26.324219 22.5625 26.488281 22.5625 26.589844 22.464844 C 26.691406 22.363281 26.691406 22.195312 26.589844 22.097656 C 24.675781 20.1875 24.78125 20.28125 24.722656 20.242188 C 24.648438 20.203125 24.5625 20.203125 24.492188 20.238281 C 24.433594 20.265625 24.492188 20.214844 22.613281 22.09375 C 22.511719 22.191406 22.511719 22.355469 22.613281 22.460938 C 22.714844 22.558594 22.875 22.558594 22.976562 22.460938 Z M 22.976562 22.464844 "/>
<path style=" stroke:none;fill-rule:nonzero;fill:rgb(92.941176%,41.176471%,36.078431%);fill-opacity:1;" d="M 21.230469 19.121094 L 21.230469 24.214844 L 15.292969 24.214844 L 15.292969 14.765625 L 23.054688 14.765625 L 23.054688 17.925781 L 22.425781 17.925781 C 21.765625 17.925781 21.230469 18.460938 21.230469 19.121094 Z M 13.605469 14.765625 L 14.480469 14.765625 L 14.480469 24.625 C 14.480469 24.851562 14.664062 25.035156 14.890625 25.035156 L 21.234375 25.035156 L 21.234375 25.90625 L 13.609375 25.90625 L 13.609375 14.765625 Z M 1.648438 14.765625 L 2.523438 14.765625 L 2.523438 24.625 C 2.523438 24.851562 2.707031 25.035156 2.933594 25.035156 L 11.507812 25.035156 C 11.738281 25.035156 11.917969 24.851562 11.917969 24.625 L 11.917969 14.765625 L 12.792969 14.765625 L 12.792969 25.90625 L 1.652344 25.90625 L 1.652344 14.765625 Z M 24.75 3.492188 L 24.75 4.917969 L 1.648438 4.917969 L 1.648438 3.492188 Z M 24.75 14.765625 L 24.75 17.925781 L 23.875 17.925781 L 23.875 14.765625 Z M 24.75 7.179688 L 1.648438 7.179688 L 1.648438 5.734375 L 24.75 5.734375 Z M 24.75 9.429688 L 1.648438 9.429688 L 1.648438 7.992188 L 24.75 7.992188 Z M 1.648438 10.25 L 24.75 10.25 L 24.75 11.6875 L 1.648438 11.6875 Z M 3.339844 14.765625 L 11.097656 14.765625 L 11.097656 24.214844 L 3.339844 24.214844 Z M 13.199219 13.953125 L 1.648438 13.953125 L 1.648438 12.507812 L 24.75 12.507812 L 24.75 13.953125 Z M 27.507812 22.269531 C 27.734375 22.269531 27.914062 22.085938 27.914062 21.867188 L 27.914062 19.125 C 27.914062 18.464844 27.375 17.929688 26.71875 17.929688 L 25.566406 17.929688 L 25.566406 3.5 L 25.980469 3.5 C 26.210938 3.5 26.390625 3.316406 26.390625 3.089844 L 26.390625 0.410156 C 26.390625 0.1875 26.210938 0.0078125 25.980469 0.0078125 L 5.066406 0.0078125 C 4.554688 0.0078125 4.53125 0.820312 5.066406 0.820312 L 25.574219 0.820312 L 25.574219 2.6875 L 0.820312 2.6875 L 0.820312 0.820312 L 2.890625 0.820312 C 3.402344 0.820312 3.425781 0.0078125 2.890625 0.0078125 L 0.410156 0.0078125 C 0.183594 0.0078125 0 0.191406 0 0.410156 L 0 3.089844 C 0 3.316406 0.183594 3.5 0.410156 3.5 L 0.832031 3.5 L 0.832031 26.320312 C 0.832031 26.546875 1.011719 26.726562 1.242188 26.726562 L 21.234375 26.726562 C 21.242188 27.378906 21.773438 27.90625 22.429688 27.90625 L 26.71875 27.90625 C 27.378906 27.90625 27.914062 27.371094 27.914062 26.707031 L 27.914062 24.046875 C 27.914062 23.535156 27.097656 23.511719 27.097656 24.046875 L 27.097656 26.707031 C 27.097656 26.917969 26.929688 27.089844 26.71875 27.089844 L 22.429688 27.089844 C 22.21875 27.089844 22.050781 26.917969 22.050781 26.707031 L 22.050781 19.125 C 22.050781 18.914062 22.21875 18.742188 22.429688 18.742188 L 26.71875 18.742188 C 26.929688 18.742188 27.097656 18.910156 27.097656 19.125 L 27.097656 21.867188 C 27.097656 22.089844 27.28125 22.269531 27.507812 22.269531 Z M 27.507812 22.269531 "/>
</g>
</svg>
