<?xml version="1.0" encoding="UTF-8"?>
<svg xmlns="http://www.w3.org/2000/svg" xmlns:xlink="http://www.w3.org/1999/xlink" width="28px" height="28px" viewBox="0 0 28 28" version="1.1">
<g id="surface1">
<path style=" stroke:none;fill-rule:nonzero;fill:rgb(92.941176%,41.176471%,36.078431%);fill-opacity:1;" d="M 26.296875 23.644531 L 24.933594 25.011719 L 24.933594 20.472656 C 24.933594 20.332031 24.816406 20.21875 24.675781 20.21875 C 24.53125 20.21875 24.417969 20.332031 24.417969 20.472656 L 24.417969 25.011719 L 23.050781 23.644531 C 22.949219 23.546875 22.789062 23.546875 22.6875 23.644531 C 22.585938 23.746094 22.585938 23.914062 22.6875 24.007812 C 24.597656 25.917969 24.492188 25.828125 24.554688 25.863281 C 24.625 25.902344 24.710938 25.902344 24.785156 25.867188 C 24.84375 25.839844 24.785156 25.890625 26.664062 24.011719 C 26.765625 23.914062 26.765625 23.75 26.664062 23.644531 C 26.5625 23.550781 26.398438 23.550781 26.300781 23.644531 Z M 26.296875 23.644531 "/>
<path style=" stroke:none;fill-rule:nonzero;fill:rgb(92.941176%,41.176471%,36.078431%);fill-opacity:1;" d="M 21.230469 19.121094 L 21.230469 24.21875 L 15.296875 24.21875 L 15.296875 14.765625 L 23.058594 14.765625 L 23.058594 17.925781 L 22.429688 17.925781 C 21.769531 17.925781 21.230469 18.460938 21.230469 19.121094 Z M 13.605469 14.765625 L 14.480469 14.765625 L 14.480469 24.625 C 14.480469 24.851562 14.664062 25.035156 14.886719 25.035156 L 21.230469 25.035156 L 21.230469 25.90625 L 13.605469 25.90625 Z M 1.648438 14.765625 L 2.519531 14.765625 L 2.519531 24.625 C 2.519531 24.851562 2.703125 25.035156 2.929688 25.035156 L 11.507812 25.035156 C 11.730469 25.035156 11.914062 24.851562 11.914062 24.625 L 11.914062 14.765625 L 12.789062 14.765625 L 12.789062 25.90625 L 1.644531 25.90625 L 1.644531 14.765625 Z M 24.746094 3.496094 L 24.746094 4.921875 L 1.648438 4.921875 L 1.648438 3.496094 Z M 24.746094 14.765625 L 24.746094 17.925781 L 23.875 17.925781 L 23.875 14.765625 Z M 24.746094 7.179688 L 1.648438 7.179688 L 1.648438 5.734375 L 24.746094 5.734375 Z M 24.746094 9.429688 L 1.648438 9.429688 L 1.648438 7.992188 L 24.746094 7.992188 Z M 1.648438 10.25 L 24.746094 10.25 L 24.746094 11.6875 L 1.648438 11.6875 Z M 3.339844 14.765625 L 11.097656 14.765625 L 11.097656 24.21875 L 3.339844 24.21875 Z M 13.199219 13.949219 L 1.648438 13.949219 L 1.648438 12.507812 L 24.746094 12.507812 L 24.746094 13.949219 Z M 27.507812 22.269531 C 27.734375 22.269531 27.914062 22.085938 27.914062 21.863281 L 27.914062 19.121094 C 27.914062 18.457031 27.378906 17.921875 26.71875 17.921875 L 25.566406 17.921875 L 25.566406 3.492188 L 25.984375 3.492188 C 26.210938 3.492188 26.394531 3.3125 26.394531 3.082031 L 26.394531 0.402344 C 26.394531 0.183594 26.210938 0 25.984375 0 L 5.070312 0 C 4.558594 0 4.535156 0.816406 5.070312 0.816406 L 25.578125 0.816406 L 25.578125 2.679688 L 0.820312 2.679688 L 0.820312 0.816406 L 2.890625 0.816406 C 3.402344 0.816406 3.425781 0 2.890625 0 L 0.410156 0 C 0.183594 0 0 0.183594 0 0.402344 L 0 3.082031 C 0 3.3125 0.183594 3.492188 0.410156 3.492188 L 0.832031 3.492188 L 0.832031 26.316406 C 0.832031 26.539062 1.011719 26.71875 1.238281 26.71875 L 21.234375 26.71875 C 21.242188 27.375 21.777344 27.902344 22.429688 27.902344 L 26.71875 27.902344 C 27.378906 27.902344 27.914062 27.363281 27.914062 26.703125 L 27.914062 24.042969 C 27.914062 23.527344 27.097656 23.507812 27.097656 24.042969 L 27.097656 26.703125 C 27.097656 26.914062 26.925781 27.085938 26.71875 27.085938 L 22.429688 27.085938 C 22.222656 27.085938 22.050781 26.914062 22.050781 26.703125 L 22.050781 19.121094 C 22.050781 18.910156 22.222656 18.738281 22.429688 18.738281 L 26.71875 18.738281 C 26.929688 18.738281 27.097656 18.910156 27.097656 19.121094 L 27.097656 21.863281 C 27.097656 22.085938 27.28125 22.269531 27.507812 22.269531 Z M 27.507812 22.269531 "/>
</g>
</svg>
