<?xml version="1.0" encoding="UTF-8"?>
<svg xmlns="http://www.w3.org/2000/svg" xmlns:xlink="http://www.w3.org/1999/xlink" width="28px" height="28px" viewBox="0 0 28 28" version="1.1">
<g id="surface1">
<path style=" stroke:none;fill-rule:nonzero;fill:rgb(92.941176%,41.176471%,36.078431%);fill-opacity:1;" d="M 0.921875 2.769531 L 0.921875 0.921875 L 26.746094 0.921875 L 26.746094 2.769531 Z M 26.109375 5.535156 L 23.984375 5.535156 L 23.984375 3.6875 L 25.492188 3.6875 Z M 26.109375 8.296875 L 23.984375 8.296875 L 23.984375 6.457031 L 25.492188 6.457031 Z M 26.109375 11.066406 L 23.984375 11.066406 L 23.984375 9.222656 L 25.492188 9.222656 Z M 26.109375 13.832031 L 23.984375 13.832031 L 23.984375 11.984375 L 25.492188 11.984375 Z M 26.109375 16.597656 L 23.984375 16.597656 L 23.984375 14.75 L 25.492188 14.75 Z M 24.445312 23.976562 L 22.597656 23.976562 L 22.597656 17.519531 L 24.445312 17.519531 Z M 3.230469 26.742188 L 3.230469 24.894531 L 24.445312 24.894531 L 24.445312 26.742188 Z M 5.078125 17.519531 L 5.078125 23.976562 L 3.230469 23.976562 L 3.230469 17.519531 Z M 2.183594 14.75 L 3.699219 14.75 L 3.699219 16.597656 L 1.574219 16.597656 L 2.191406 14.75 Z M 3.699219 11.984375 L 3.699219 13.832031 L 1.574219 13.832031 L 2.191406 11.984375 L 3.707031 11.984375 Z M 3.699219 9.222656 L 3.699219 11.066406 L 1.574219 11.066406 L 2.191406 9.222656 L 3.707031 9.222656 Z M 3.699219 6.457031 L 3.699219 8.296875 L 1.574219 8.296875 L 2.191406 6.457031 L 3.707031 6.457031 Z M 4.621094 5.535156 L 4.621094 3.6875 L 23.066406 3.6875 L 23.066406 5.535156 Z M 4.621094 8.296875 L 4.621094 6.457031 L 23.066406 6.457031 L 23.066406 8.296875 Z M 4.621094 11.066406 L 4.621094 9.222656 L 23.066406 9.222656 L 23.066406 11.066406 Z M 4.621094 13.832031 L 4.621094 11.984375 L 23.066406 11.984375 L 23.066406 13.832031 Z M 19.839844 21.675781 C 19.839844 21.921875 19.632812 22.136719 19.378906 22.136719 C 19.125 22.136719 18.917969 21.929688 18.917969 21.675781 C 18.917969 21.421875 19.125 21.214844 19.378906 21.214844 C 19.632812 21.214844 19.839844 21.414062 19.839844 21.675781 Z M 6.007812 23.976562 L 6.007812 17.519531 L 18.917969 17.519531 L 18.917969 20.367188 C 18.195312 20.621094 17.816406 21.414062 18.078125 22.136719 C 18.332031 22.859375 19.117188 23.238281 19.839844 22.976562 C 20.5625 22.722656 20.933594 21.929688 20.6875 21.207031 C 20.542969 20.816406 20.238281 20.507812 19.839844 20.367188 L 19.839844 17.519531 L 21.6875 17.519531 L 21.6875 23.976562 Z M 4.621094 16.597656 L 4.621094 14.75 L 23.066406 14.75 L 23.066406 16.597656 Z M 3.699219 3.6875 L 3.699219 5.535156 L 1.574219 5.535156 L 2.191406 3.6875 L 3.707031 3.6875 Z M 26.757812 -0.0078125 L 0.933594 -0.0078125 C 0.425781 0 0.0117188 0.414062 0.0117188 0.917969 L 0.0117188 2.765625 C 0.0117188 3.273438 0.425781 3.679688 0.933594 3.679688 L 1.21875 3.679688 L 0.496094 5.84375 C 0.414062 6.078125 0.542969 6.34375 0.789062 6.429688 C 0.835938 6.441406 0.882812 6.453125 0.933594 6.453125 L 1.21875 6.453125 L 0.496094 8.605469 C 0.414062 8.847656 0.542969 9.109375 0.789062 9.191406 C 0.835938 9.210938 0.882812 9.214844 0.933594 9.214844 L 1.21875 9.214844 L 0.496094 11.371094 C 0.414062 11.613281 0.542969 11.878906 0.789062 11.957031 C 0.835938 11.972656 0.882812 11.980469 0.933594 11.980469 L 1.21875 11.980469 L 0.496094 14.140625 C 0.414062 14.375 0.542969 14.644531 0.789062 14.726562 C 0.835938 14.738281 0.882812 14.75 0.933594 14.742188 L 1.21875 14.742188 L 0.496094 16.902344 C 0.414062 17.148438 0.542969 17.40625 0.789062 17.488281 C 0.835938 17.5 0.882812 17.515625 0.933594 17.515625 L 2.320312 17.515625 L 2.320312 27.195312 C 2.320312 27.453125 2.527344 27.664062 2.78125 27.664062 L 24.917969 27.664062 C 25.171875 27.664062 25.378906 27.457031 25.378906 27.203125 C 25.378906 27.203125 25.378906 27.203125 25.378906 27.195312 L 25.378906 17.515625 L 26.765625 17.515625 C 27.019531 17.515625 27.226562 17.304688 27.226562 17.050781 C 27.226562 17 27.222656 16.953125 27.203125 16.902344 L 26.480469 14.742188 L 26.765625 14.742188 C 27.019531 14.75 27.226562 14.542969 27.226562 14.28125 C 27.226562 14.234375 27.222656 14.1875 27.203125 14.140625 L 26.480469 11.980469 L 26.765625 11.980469 C 27.019531 11.980469 27.226562 11.777344 27.226562 11.519531 C 27.226562 11.46875 27.222656 11.421875 27.203125 11.371094 L 26.480469 9.214844 L 26.765625 9.214844 C 27.019531 9.214844 27.226562 9.007812 27.226562 8.753906 C 27.226562 8.699219 27.222656 8.652344 27.203125 8.605469 L 26.480469 6.453125 L 26.765625 6.453125 C 27.019531 6.453125 27.226562 6.246094 27.226562 5.984375 C 27.226562 5.9375 27.222656 5.890625 27.203125 5.84375 L 26.480469 3.679688 L 26.765625 3.679688 C 27.273438 3.679688 27.6875 3.265625 27.6875 2.765625 L 27.6875 0.917969 C 27.6875 0.410156 27.273438 0 26.765625 -0.0078125 Z M 26.757812 -0.0078125 "/>
</g>
</svg>
