<?xml version="1.0" encoding="UTF-8"?>
<svg xmlns="http://www.w3.org/2000/svg" xmlns:xlink="http://www.w3.org/1999/xlink" width="28px" height="28px" viewBox="0 0 28 28" version="1.1">
<g id="surface1">
<path style=" stroke:none;fill-rule:nonzero;fill:rgb(92.941176%,41.176471%,36.078431%);fill-opacity:1;" d="M 25.957031 23.65625 L 24.542969 25.070312 L 24.542969 20.367188 C 24.542969 20.21875 24.421875 20.101562 24.277344 20.101562 C 24.128906 20.101562 24.011719 20.21875 24.011719 20.367188 L 24.011719 25.070312 L 22.59375 23.65625 C 22.488281 23.550781 22.316406 23.550781 22.214844 23.65625 C 22.113281 23.761719 22.113281 23.929688 22.214844 24.035156 C 24.199219 26.011719 24.085938 25.917969 24.152344 25.949219 C 24.226562 25.992188 24.316406 25.992188 24.394531 25.953125 C 24.453125 25.925781 24.394531 25.976562 26.339844 24.03125 C 26.441406 23.921875 26.441406 23.75 26.339844 23.652344 C 26.238281 23.546875 26.066406 23.546875 25.960938 23.652344 Z M 25.957031 23.65625 "/>
<path style=" stroke:none;fill-rule:nonzero;fill:rgb(92.941176%,41.176471%,36.078431%);fill-opacity:1;" d="M 22.59375 22.425781 L 24.011719 21.011719 L 24.011719 25.710938 C 24.011719 25.859375 24.132812 25.976562 24.277344 25.976562 C 24.425781 25.976562 24.542969 25.859375 24.542969 25.710938 L 24.542969 21.011719 L 25.957031 22.425781 C 26.058594 22.53125 26.234375 22.53125 26.335938 22.425781 C 26.4375 22.316406 26.4375 22.15625 26.335938 22.046875 C 24.351562 20.066406 24.464844 20.160156 24.398438 20.125 C 24.324219 20.085938 24.234375 20.082031 24.160156 20.121094 C 24.101562 20.148438 24.160156 20.101562 22.214844 22.046875 C 22.113281 22.15625 22.113281 22.316406 22.214844 22.425781 C 22.316406 22.53125 22.484375 22.53125 22.59375 22.425781 Z M 22.59375 22.425781 "/>
<path style=" stroke:none;fill-rule:nonzero;fill:rgb(92.941176%,41.176471%,36.078431%);fill-opacity:1;" d="M 27.246094 22.316406 C 27.480469 22.316406 27.671875 22.125 27.671875 21.894531 L 27.671875 19.050781 C 27.671875 18.367188 27.113281 17.808594 26.429688 17.808594 L 21.980469 17.808594 C 21.292969 17.808594 20.738281 18.367188 20.738281 19.050781 L 20.738281 26.9375 C 20.75 27.609375 21.304688 28.160156 21.980469 28.160156 L 26.429688 28.160156 C 27.113281 28.160156 27.671875 27.601562 27.671875 26.914062 L 27.671875 24.152344 C 27.671875 23.625 26.820312 23.601562 26.820312 24.152344 L 26.820312 26.914062 C 26.820312 27.136719 26.644531 27.3125 26.429688 27.3125 L 21.980469 27.3125 C 21.761719 27.3125 21.589844 27.136719 21.589844 26.914062 L 21.589844 19.050781 C 21.589844 18.835938 21.765625 18.660156 21.980469 18.660156 L 26.429688 18.660156 C 26.648438 18.660156 26.820312 18.835938 26.820312 19.050781 L 26.820312 21.894531 C 26.820312 22.132812 27.011719 22.316406 27.246094 22.316406 Z M 27.246094 22.316406 "/>
<path style=" stroke:none;fill-rule:nonzero;fill:rgb(92.941176%,41.176471%,36.078431%);fill-opacity:1;" d="M 0.910156 2.746094 L 0.910156 0.921875 L 26.484375 0.921875 L 26.484375 2.746094 Z M 23.742188 5.484375 L 23.742188 3.660156 L 25.238281 3.660156 L 25.84375 5.484375 Z M 23.742188 8.226562 L 23.742188 6.40625 L 25.238281 6.40625 L 25.84375 8.226562 Z M 23.742188 10.96875 L 23.742188 9.144531 L 25.238281 9.144531 L 25.84375 10.96875 Z M 23.742188 13.710938 L 23.742188 11.886719 L 25.238281 11.886719 L 25.84375 13.710938 Z M 23.742188 16.449219 L 23.742188 14.625 L 25.238281 14.625 L 25.84375 16.449219 Z M 22.824219 5.492188 L 4.558594 5.492188 L 4.558594 3.664062 L 22.824219 3.664062 Z M 22.824219 8.230469 L 4.558594 8.230469 L 4.558594 6.410156 L 22.824219 6.410156 Z M 22.824219 10.976562 L 4.558594 10.976562 L 4.558594 9.148438 L 22.824219 9.148438 Z M 22.824219 13.714844 L 4.558594 13.714844 L 4.558594 11.890625 L 22.824219 11.890625 Z M 22.824219 16.457031 L 4.558594 16.457031 L 4.558594 14.628906 L 22.824219 14.628906 Z M 19.171875 21.933594 C 18.917969 21.933594 18.714844 21.730469 18.714844 21.476562 C 18.714844 21.222656 18.917969 21.019531 19.171875 21.019531 C 19.421875 21.019531 19.628906 21.222656 19.628906 21.476562 C 19.628906 21.726562 19.421875 21.933594 19.171875 21.933594 Z M 3.644531 5.496094 L 1.539062 5.496094 L 2.152344 3.671875 L 3.648438 3.671875 L 3.648438 5.496094 Z M 3.644531 8.234375 L 1.539062 8.234375 L 2.152344 6.414062 L 3.648438 6.414062 L 3.648438 8.234375 Z M 3.644531 10.980469 L 1.539062 10.980469 L 2.152344 9.15625 L 3.648438 9.15625 L 3.648438 10.980469 Z M 3.644531 13.71875 L 1.539062 13.71875 L 2.152344 11.894531 L 3.648438 11.894531 L 3.648438 13.71875 Z M 3.644531 16.460938 L 1.539062 16.460938 L 2.152344 14.632812 L 3.648438 14.632812 L 3.648438 16.460938 Z M 26.480469 0.0195312 L 0.90625 0.0195312 C 0.402344 0.0234375 -0.00390625 0.433594 -0.00390625 0.933594 L -0.00390625 2.761719 C -0.00390625 3.265625 0.40625 3.671875 0.90625 3.671875 L 1.1875 3.671875 L 0.472656 5.8125 C 0.390625 6.050781 0.523438 6.308594 0.761719 6.390625 C 0.808594 6.40625 0.859375 6.414062 0.90625 6.414062 L 1.1875 6.414062 L 0.472656 8.546875 C 0.390625 8.789062 0.523438 9.042969 0.761719 9.125 C 0.808594 9.144531 0.859375 9.148438 0.90625 9.148438 L 1.1875 9.148438 L 0.472656 11.285156 C 0.390625 11.527344 0.523438 11.789062 0.761719 11.863281 C 0.808594 11.878906 0.859375 11.886719 0.90625 11.886719 L 1.1875 11.886719 L 0.472656 14.027344 C 0.390625 14.265625 0.523438 14.523438 0.761719 14.605469 C 0.808594 14.621094 0.859375 14.628906 0.90625 14.625 L 1.1875 14.625 L 0.472656 16.769531 C 0.390625 17.011719 0.523438 17.261719 0.761719 17.347656 C 0.808594 17.359375 0.859375 17.371094 0.90625 17.371094 L 2.277344 17.371094 L 2.277344 26.957031 C 2.277344 27.210938 2.484375 27.417969 2.734375 27.417969 L 21.515625 27.417969 C 21.425781 27.269531 21.390625 27.09375 21.421875 26.925781 C 21.339844 26.792969 21.277344 26.65625 21.230469 26.503906 L 3.191406 26.503906 L 3.191406 17.375 L 5.019531 17.375 L 5.019531 24.679688 L 21.136719 24.679688 C 21.144531 24.386719 21.140625 24.078125 21.132812 23.769531 L 5.933594 23.769531 L 5.933594 17.375 L 18.71875 17.375 L 18.71875 20.195312 C 18.003906 20.445312 17.628906 21.230469 17.882812 21.945312 C 18.132812 22.660156 18.917969 23.03125 19.632812 22.78125 C 20.347656 22.523438 20.71875 21.742188 20.46875 21.03125 C 20.328125 20.648438 20.023438 20.339844 19.632812 20.195312 L 19.632812 17.375 L 21.457031 17.375 L 21.457031 18.109375 C 21.601562 17.972656 21.804688 17.902344 22.050781 17.96875 C 22.15625 17.992188 22.265625 18.015625 22.367188 18.039062 L 22.367188 17.375 L 24.191406 17.375 L 24.191406 18.214844 C 24.277344 18.214844 24.355469 18.214844 24.441406 18.214844 C 24.519531 18.175781 24.613281 18.152344 24.710938 18.164062 C 24.851562 18.167969 24.972656 18.1875 25.101562 18.214844 L 25.101562 17.375 L 26.476562 17.375 C 26.726562 17.375 26.933594 17.167969 26.933594 16.917969 C 26.933594 16.867188 26.925781 16.816406 26.910156 16.769531 L 26.195312 14.625 L 26.476562 14.625 C 26.726562 14.628906 26.933594 14.425781 26.933594 14.167969 C 26.933594 14.121094 26.925781 14.074219 26.910156 14.027344 L 26.195312 11.886719 L 26.476562 11.886719 C 26.726562 11.886719 26.933594 11.683594 26.933594 11.429688 C 26.933594 11.382812 26.925781 11.335938 26.910156 11.277344 L 26.195312 9.144531 L 26.476562 9.144531 C 26.726562 9.144531 26.933594 8.941406 26.933594 8.6875 C 26.933594 8.636719 26.925781 8.585938 26.910156 8.539062 L 26.195312 6.40625 L 26.476562 6.40625 C 26.726562 6.40625 26.933594 6.199219 26.933594 5.941406 C 26.933594 5.898438 26.925781 5.851562 26.910156 5.804688 L 26.195312 3.660156 L 26.476562 3.660156 C 26.980469 3.660156 27.386719 3.253906 27.390625 2.75 L 27.390625 0.925781 C 27.390625 0.421875 26.980469 0.015625 26.476562 0.0117188 Z M 26.480469 0.0195312 "/>
</g>
</svg>
