<?xml version="1.0" encoding="UTF-8"?>
<svg xmlns="http://www.w3.org/2000/svg" xmlns:xlink="http://www.w3.org/1999/xlink" width="28px" height="28px" viewBox="0 0 28 28" version="1.1">
<g id="surface1">
<path style=" stroke:none;fill-rule:nonzero;fill:rgb(92.941176%,41.176471%,36.078431%);fill-opacity:1;" d="M 25.886719 23.65625 L 24.46875 25.070312 L 24.46875 20.363281 C 24.46875 20.21875 24.351562 20.097656 24.203125 20.097656 C 24.058594 20.097656 23.9375 20.21875 23.9375 20.363281 L 23.9375 25.070312 L 22.523438 23.65625 C 22.417969 23.550781 22.25 23.550781 22.144531 23.65625 C 22.039062 23.753906 22.039062 23.929688 22.144531 24.035156 C 24.125 26.011719 24.015625 25.914062 24.078125 25.953125 C 24.15625 25.992188 24.242188 25.992188 24.316406 25.960938 C 24.378906 25.929688 24.316406 25.984375 26.265625 24.039062 C 26.367188 23.933594 26.367188 23.761719 26.265625 23.660156 C 26.160156 23.554688 25.992188 23.554688 25.886719 23.660156 Z M 25.886719 23.65625 "/>
<path style=" stroke:none;fill-rule:nonzero;fill:rgb(92.941176%,41.176471%,36.078431%);fill-opacity:1;" d="M 27.246094 22.320312 C 27.480469 22.320312 27.667969 22.132812 27.667969 21.890625 L 27.667969 19.050781 C 27.667969 18.367188 27.113281 17.808594 26.429688 17.808594 L 21.980469 17.808594 C 21.296875 17.808594 20.738281 18.367188 20.738281 19.050781 L 20.738281 26.9375 C 20.75 27.609375 21.300781 28.160156 21.980469 28.160156 L 26.429688 28.160156 C 27.117188 28.160156 27.667969 27.597656 27.667969 26.914062 L 27.667969 24.152344 C 27.667969 23.625 26.820312 23.601562 26.820312 24.152344 L 26.820312 26.914062 C 26.820312 27.132812 26.644531 27.308594 26.429688 27.308594 L 21.980469 27.308594 C 21.761719 27.308594 21.585938 27.132812 21.585938 26.914062 L 21.585938 19.046875 C 21.585938 18.832031 21.765625 18.65625 21.980469 18.65625 L 26.429688 18.65625 C 26.648438 18.65625 26.820312 18.832031 26.820312 19.046875 L 26.820312 21.890625 C 26.820312 22.125 27.011719 22.316406 27.246094 22.316406 Z M 27.246094 22.320312 "/>
<path style=" stroke:none;fill-rule:nonzero;fill:rgb(92.941176%,41.176471%,36.078431%);fill-opacity:1;" d="M 0.914062 2.746094 L 0.914062 0.914062 L 26.488281 0.914062 L 26.488281 2.746094 L 0.910156 2.746094 Z M 23.75 5.480469 L 23.75 3.652344 L 25.246094 3.652344 L 25.855469 5.480469 Z M 23.75 8.21875 L 23.75 6.398438 L 25.246094 6.398438 L 25.855469 8.21875 Z M 23.75 10.964844 L 23.75 9.136719 L 25.246094 9.136719 L 25.855469 10.964844 Z M 23.75 13.699219 L 23.75 11.871094 L 25.246094 11.871094 L 25.855469 13.699219 Z M 23.75 16.4375 L 23.75 14.609375 L 25.246094 14.609375 L 25.855469 16.4375 Z M 22.835938 5.476562 L 4.570312 5.476562 L 4.570312 3.648438 L 22.835938 3.648438 Z M 22.835938 8.214844 L 4.570312 8.214844 L 4.570312 6.394531 L 22.835938 6.394531 Z M 22.835938 10.960938 L 4.570312 10.960938 L 4.570312 9.132812 L 22.835938 9.132812 Z M 22.835938 13.695312 L 4.570312 13.695312 L 4.570312 11.867188 L 22.835938 11.867188 Z M 22.835938 16.433594 L 4.570312 16.433594 L 4.570312 14.605469 L 22.835938 14.605469 Z M 19.183594 21.917969 C 18.929688 21.917969 18.726562 21.707031 18.726562 21.460938 C 18.726562 21.207031 18.929688 21.007812 19.183594 21.007812 C 19.4375 21.007812 19.640625 21.207031 19.640625 21.460938 C 19.640625 21.710938 19.4375 21.917969 19.183594 21.917969 Z M 3.65625 5.476562 L 1.554688 5.476562 L 2.160156 3.644531 L 3.65625 3.644531 Z M 3.65625 8.210938 L 1.554688 8.210938 L 2.160156 6.390625 L 3.65625 6.390625 Z M 3.65625 10.957031 L 1.554688 10.957031 L 2.160156 9.128906 L 3.65625 9.128906 Z M 3.65625 13.695312 L 1.554688 13.695312 L 2.160156 11.867188 L 3.65625 11.867188 Z M 3.65625 16.429688 L 1.554688 16.429688 L 2.160156 14.601562 L 3.65625 14.601562 Z M 26.488281 -0.0117188 L 0.917969 -0.0117188 C 0.410156 -0.00390625 0.00390625 0.402344 0.00390625 0.90625 L 0.00390625 2.734375 C 0.00390625 3.238281 0.414062 3.644531 0.917969 3.644531 L 1.199219 3.644531 L 0.484375 5.78125 C 0.40625 6.019531 0.53125 6.277344 0.769531 6.363281 C 0.816406 6.378906 0.867188 6.386719 0.917969 6.386719 L 1.199219 6.386719 L 0.484375 8.523438 C 0.40625 8.765625 0.53125 9.019531 0.769531 9.105469 C 0.816406 9.121094 0.867188 9.128906 0.917969 9.128906 L 1.199219 9.128906 L 0.484375 11.265625 C 0.40625 11.507812 0.53125 11.765625 0.769531 11.84375 C 0.816406 11.863281 0.867188 11.867188 0.917969 11.867188 L 1.199219 11.867188 L 0.484375 14.007812 C 0.40625 14.242188 0.53125 14.503906 0.769531 14.589844 C 0.816406 14.597656 0.867188 14.613281 0.917969 14.605469 L 1.199219 14.605469 L 0.484375 16.746094 C 0.40625 16.988281 0.53125 17.242188 0.769531 17.328125 C 0.816406 17.335938 0.867188 17.351562 0.917969 17.351562 L 2.289062 17.351562 L 2.289062 26.9375 C 2.289062 27.1875 2.492188 27.398438 2.746094 27.398438 L 21.523438 27.398438 C 21.4375 27.25 21.40625 27.074219 21.433594 26.902344 C 21.351562 26.773438 21.289062 26.628906 21.246094 26.480469 L 3.203125 26.480469 L 3.203125 17.351562 L 5.03125 17.351562 L 5.03125 24.652344 L 21.148438 24.652344 C 21.160156 24.355469 21.15625 24.046875 21.140625 23.746094 L 5.941406 23.746094 L 5.941406 17.351562 L 18.730469 17.351562 L 18.730469 20.167969 C 18.015625 20.421875 17.640625 21.207031 17.894531 21.917969 C 18.148438 22.632812 18.929688 23.007812 19.644531 22.753906 C 20.359375 22.5 20.730469 21.71875 20.480469 21.003906 C 20.34375 20.617188 20.035156 20.308594 19.644531 20.167969 L 19.644531 17.351562 L 21.46875 17.351562 L 21.46875 18.085938 C 21.613281 17.949219 21.820312 17.875 22.0625 17.945312 C 22.171875 17.96875 22.277344 17.992188 22.382812 18.015625 L 22.382812 17.355469 L 24.210938 17.355469 L 24.210938 18.195312 C 24.292969 18.195312 24.375 18.195312 24.457031 18.195312 C 24.539062 18.160156 24.632812 18.136719 24.730469 18.140625 C 24.871094 18.148438 24.992188 18.164062 25.125 18.195312 L 25.125 17.355469 L 26.492188 17.355469 C 26.746094 17.355469 26.953125 17.144531 26.953125 16.898438 C 26.953125 16.84375 26.945312 16.800781 26.925781 16.753906 L 26.214844 14.613281 L 26.496094 14.613281 C 26.75 14.621094 26.953125 14.410156 26.953125 14.160156 C 26.953125 14.109375 26.949219 14.0625 26.929688 14.019531 L 26.21875 11.878906 L 26.5 11.878906 C 26.753906 11.878906 26.957031 11.675781 26.957031 11.425781 C 26.957031 11.375 26.953125 11.328125 26.933594 11.277344 L 26.222656 9.140625 L 26.503906 9.140625 C 26.757812 9.140625 26.960938 8.933594 26.960938 8.6875 C 26.960938 8.632812 26.953125 8.589844 26.9375 8.539062 L 26.226562 6.40625 L 26.507812 6.40625 C 26.761719 6.40625 26.964844 6.195312 26.964844 5.941406 C 26.964844 5.894531 26.957031 5.847656 26.941406 5.800781 L 26.230469 3.660156 L 26.511719 3.660156 C 27.015625 3.660156 27.421875 3.253906 27.421875 2.75 L 27.421875 0.921875 C 27.421875 0.421875 27.011719 0.0117188 26.511719 0.0078125 Z M 26.488281 -0.0117188 "/>
</g>
</svg>
