<?xml version="1.0" encoding="UTF-8"?>
<svg xmlns="http://www.w3.org/2000/svg" xmlns:xlink="http://www.w3.org/1999/xlink" width="28px" height="28px" viewBox="0 0 28 28" version="1.1">
<g id="surface1">
<path style=" stroke:none;fill-rule:nonzero;fill:rgb(92.941176%,41.176471%,36.078431%);fill-opacity:1;" d="M 22.519531 22.425781 L 23.9375 21.015625 L 23.9375 25.714844 C 23.9375 25.863281 24.058594 25.980469 24.207031 25.980469 C 24.355469 25.980469 24.472656 25.863281 24.472656 25.714844 L 24.472656 21.015625 L 25.890625 22.425781 C 25.992188 22.53125 26.164062 22.53125 26.265625 22.425781 C 26.371094 22.320312 26.371094 22.152344 26.265625 22.046875 C 24.28125 20.066406 24.394531 20.160156 24.328125 20.125 C 24.25 20.089844 24.164062 20.085938 24.089844 20.121094 C 24.027344 20.148438 24.089844 20.101562 22.140625 22.046875 C 22.039062 22.152344 22.039062 22.320312 22.140625 22.425781 C 22.246094 22.53125 22.417969 22.53125 22.519531 22.425781 Z M 22.519531 22.425781 "/>
<path style=" stroke:none;fill-rule:nonzero;fill:rgb(92.941176%,41.176471%,36.078431%);fill-opacity:1;" d="M 27.246094 22.320312 C 27.480469 22.320312 27.671875 22.132812 27.671875 21.894531 L 27.671875 19.050781 C 27.671875 18.367188 27.113281 17.808594 26.429688 17.808594 L 21.980469 17.808594 C 21.292969 17.808594 20.738281 18.367188 20.738281 19.050781 L 20.738281 26.9375 C 20.75 27.613281 21.300781 28.164062 21.980469 28.164062 L 26.429688 28.164062 C 27.117188 28.164062 27.671875 27.601562 27.671875 26.914062 L 27.671875 24.152344 C 27.671875 23.625 26.824219 23.601562 26.824219 24.152344 L 26.824219 26.914062 C 26.824219 27.132812 26.648438 27.3125 26.429688 27.3125 L 21.980469 27.3125 C 21.761719 27.3125 21.585938 27.132812 21.585938 26.914062 L 21.585938 19.050781 C 21.585938 18.835938 21.761719 18.660156 21.980469 18.660156 L 26.429688 18.660156 C 26.644531 18.660156 26.824219 18.835938 26.824219 19.050781 L 26.824219 21.894531 C 26.824219 22.128906 27.015625 22.320312 27.246094 22.320312 Z M 27.246094 22.320312 "/>
<path style=" stroke:none;fill-rule:nonzero;fill:rgb(92.941176%,41.176471%,36.078431%);fill-opacity:1;" d="M 0.910156 2.746094 L 0.910156 0.917969 L 26.484375 0.917969 L 26.488281 2.746094 Z M 23.746094 5.484375 L 23.746094 3.65625 L 25.242188 3.65625 L 25.851562 5.484375 Z M 23.746094 8.222656 L 23.746094 6.398438 L 25.242188 6.398438 L 25.851562 8.222656 Z M 23.746094 10.964844 L 23.746094 9.140625 L 25.242188 9.140625 L 25.851562 10.964844 Z M 23.746094 13.703125 L 23.746094 11.878906 L 25.242188 11.878906 L 25.851562 13.703125 Z M 23.746094 16.441406 L 23.746094 14.617188 L 25.242188 14.617188 L 25.851562 16.441406 Z M 22.832031 5.484375 L 4.566406 5.484375 L 4.566406 3.65625 L 22.832031 3.65625 Z M 22.832031 8.222656 L 4.566406 8.222656 L 4.566406 6.398438 L 22.832031 6.398438 Z M 22.832031 10.964844 L 4.566406 10.964844 L 4.566406 9.140625 L 22.832031 9.140625 Z M 22.832031 13.703125 L 4.566406 13.703125 L 4.566406 11.878906 L 22.832031 11.878906 Z M 22.832031 16.441406 L 4.566406 16.441406 L 4.566406 14.617188 L 22.832031 14.617188 Z M 19.179688 21.925781 C 18.925781 21.925781 18.722656 21.71875 18.722656 21.472656 C 18.722656 21.21875 18.925781 21.015625 19.179688 21.015625 C 19.429688 21.015625 19.636719 21.21875 19.636719 21.472656 C 19.636719 21.71875 19.429688 21.925781 19.179688 21.925781 Z M 3.652344 5.484375 L 1.546875 5.484375 L 2.15625 3.65625 L 3.65625 3.65625 L 3.65625 5.484375 Z M 3.652344 8.222656 L 1.546875 8.222656 L 2.15625 6.402344 L 3.65625 6.402344 L 3.65625 8.222656 Z M 3.652344 10.96875 L 1.546875 10.96875 L 2.15625 9.140625 L 3.65625 9.140625 L 3.65625 10.96875 Z M 3.652344 13.707031 L 1.546875 13.707031 L 2.15625 11.878906 L 3.65625 11.878906 L 3.65625 13.707031 Z M 3.652344 16.445312 L 1.546875 16.445312 L 2.15625 14.617188 L 3.65625 14.617188 L 3.65625 16.445312 Z M 26.484375 0.00390625 L 0.910156 0.00390625 C 0.40625 0.0117188 0 0.417969 0 0.921875 L 0 2.75 C 0 3.253906 0.410156 3.660156 0.910156 3.660156 L 1.191406 3.660156 L 0.480469 5.800781 C 0.398438 6.035156 0.527344 6.296875 0.765625 6.378906 C 0.8125 6.394531 0.863281 6.402344 0.910156 6.402344 L 1.191406 6.402344 L 0.480469 8.539062 C 0.398438 8.78125 0.527344 9.035156 0.765625 9.121094 C 0.8125 9.136719 0.863281 9.144531 0.910156 9.144531 L 1.191406 9.144531 L 0.480469 11.277344 C 0.398438 11.519531 0.527344 11.78125 0.765625 11.859375 C 0.8125 11.875 0.863281 11.882812 0.910156 11.882812 L 1.191406 11.882812 L 0.480469 14.023438 C 0.398438 14.257812 0.527344 14.519531 0.765625 14.605469 C 0.8125 14.613281 0.863281 14.628906 0.910156 14.621094 L 1.191406 14.621094 L 0.480469 16.761719 C 0.398438 17.003906 0.527344 17.257812 0.765625 17.34375 C 0.8125 17.351562 0.863281 17.367188 0.910156 17.367188 L 2.28125 17.367188 L 2.28125 26.953125 C 2.28125 27.207031 2.484375 27.414062 2.738281 27.414062 L 21.519531 27.414062 C 21.429688 27.265625 21.398438 27.089844 21.425781 26.917969 C 21.34375 26.785156 21.28125 26.644531 21.238281 26.496094 L 3.195312 26.496094 L 3.195312 17.367188 L 5.023438 17.367188 L 5.023438 24.671875 L 21.144531 24.671875 C 21.152344 24.375 21.152344 24.066406 21.140625 23.761719 L 5.9375 23.761719 L 5.9375 17.367188 L 18.726562 17.367188 L 18.726562 20.1875 C 18.011719 20.441406 17.636719 21.222656 17.890625 21.9375 C 18.144531 22.652344 18.925781 23.027344 19.640625 22.773438 C 20.351562 22.519531 20.726562 21.738281 20.472656 21.023438 C 20.335938 20.636719 20.03125 20.332031 19.640625 20.1875 L 19.640625 17.367188 L 21.464844 17.367188 L 21.464844 18.101562 C 21.609375 17.964844 21.816406 17.894531 22.058594 17.960938 C 22.164062 17.984375 22.273438 18.007812 22.378906 18.03125 L 22.378906 17.367188 L 24.207031 17.367188 L 24.207031 18.207031 C 24.289062 18.207031 24.371094 18.207031 24.453125 18.207031 C 24.535156 18.171875 24.625 18.148438 24.726562 18.15625 C 24.863281 18.160156 24.988281 18.179688 25.121094 18.207031 L 25.121094 17.367188 L 26.492188 17.367188 C 26.742188 17.367188 26.949219 17.164062 26.949219 16.914062 C 26.949219 16.859375 26.941406 16.8125 26.925781 16.765625 L 26.210938 14.625 L 26.492188 14.625 C 26.742188 14.632812 26.949219 14.425781 26.949219 14.171875 C 26.949219 14.121094 26.941406 14.074219 26.925781 14.03125 L 26.210938 11.890625 L 26.492188 11.890625 C 26.742188 11.890625 26.949219 11.6875 26.949219 11.433594 C 26.949219 11.386719 26.941406 11.339844 26.925781 11.285156 L 26.210938 9.152344 L 26.492188 9.152344 C 26.742188 9.152344 26.949219 8.945312 26.949219 8.699219 C 26.949219 8.644531 26.941406 8.597656 26.925781 8.550781 L 26.210938 6.414062 L 26.492188 6.414062 C 26.742188 6.414062 26.949219 6.210938 26.949219 5.953125 C 26.949219 5.90625 26.941406 5.859375 26.925781 5.8125 L 26.210938 3.671875 L 26.492188 3.671875 C 26.996094 3.671875 27.402344 3.261719 27.40625 2.761719 L 27.40625 0.933594 C 27.402344 0.429688 26.996094 0.0234375 26.492188 0.015625 Z M 26.484375 0.00390625 "/>
</g>
</svg>
