<?xml version="1.0" encoding="UTF-8"?>
<svg xmlns="http://www.w3.org/2000/svg" xmlns:xlink="http://www.w3.org/1999/xlink" width="28px" height="28px" viewBox="0 0 28 28" version="1.1">
<g id="surface1">
<path style=" stroke:none;fill-rule:nonzero;fill:rgb(92.941176%,41.176471%,36.078431%);fill-opacity:1;" d="M 24.6875 25.539062 C 24.6875 26.191406 24.160156 26.714844 23.511719 26.714844 C 22.863281 26.714844 22.339844 26.191406 22.339844 25.539062 C 22.339844 24.894531 22.867188 24.363281 23.511719 24.363281 C 24.164062 24.363281 24.6875 24.898438 24.6875 25.539062 Z M 26.734375 14.449219 L 26.734375 16.644531 L 0.945312 16.644531 L 0.945312 14.449219 Z M 23.039062 12.039062 L 23.039062 13.507812 L 4.621094 13.507812 L 4.621094 12.039062 Z M 26.734375 8.902344 L 26.734375 11.105469 L 0.945312 11.105469 L 0.945312 8.902344 Z M 23.039062 6.5 L 23.039062 7.96875 L 4.621094 7.96875 L 4.621094 6.5 Z M 26.734375 3.363281 L 26.734375 5.554688 L 0.945312 5.554688 L 0.945312 3.363281 Z M 4.621094 2.417969 L 4.621094 0.9375 L 23.039062 0.9375 L 23.039062 2.417969 Z M 27.199219 6.5 C 27.457031 6.5 27.667969 6.285156 27.667969 6.023438 L 27.667969 2.886719 C 27.667969 2.636719 27.457031 2.410156 27.199219 2.410156 L 23.976562 2.410156 L 23.976562 0.933594 L 27.183594 0.933594 C 27.441406 0.933594 27.652344 0.71875 27.652344 0.457031 C 27.652344 0.199219 27.441406 -0.015625 27.183594 -0.015625 L 0.472656 -0.015625 C 0.210938 -0.015625 0 0.199219 0 0.457031 C 0 0.71875 0.214844 0.933594 0.472656 0.933594 L 3.679688 0.933594 L 3.679688 2.410156 L 0.472656 2.410156 C 0.210938 2.410156 0 2.628906 0 2.886719 L 0 6.023438 C 0 6.285156 0.214844 6.5 0.472656 6.5 L 3.679688 6.5 L 3.679688 7.96875 L 0.472656 7.96875 C 0.210938 7.96875 0 8.179688 0 8.441406 L 0 11.570312 C 0 11.832031 0.214844 12.039062 0.472656 12.039062 L 3.679688 12.039062 L 3.679688 13.507812 L 0.472656 13.507812 C 0.210938 13.507812 0 13.71875 0 13.980469 L 0 17.117188 C 0 17.378906 0.214844 17.582031 0.472656 17.582031 L 22.996094 17.582031 L 22.996094 23.496094 C 21.90625 23.757812 21.203125 24.839844 21.414062 25.960938 C 21.609375 26.964844 22.503906 27.679688 23.496094 27.679688 C 23.628906 27.679688 23.761719 27.667969 23.898438 27.636719 C 25.042969 27.417969 25.796875 26.296875 25.578125 25.15625 C 25.417969 24.3125 24.761719 23.65625 23.929688 23.472656 L 23.929688 17.59375 L 27.195312 17.59375 C 27.449219 17.59375 27.664062 17.378906 27.664062 17.117188 L 27.664062 13.980469 C 27.664062 13.71875 27.449219 13.507812 27.195312 13.507812 L 23.972656 13.507812 L 23.972656 12.039062 L 27.195312 12.039062 C 27.449219 12.039062 27.664062 11.824219 27.664062 11.574219 L 27.664062 8.4375 C 27.664062 8.175781 27.449219 7.960938 27.195312 7.960938 L 23.972656 7.960938 L 23.972656 6.496094 L 27.195312 6.496094 Z M 27.199219 6.5 "/>
</g>
</svg>
