<?xml version="1.0" encoding="UTF-8"?>
<svg xmlns="http://www.w3.org/2000/svg" xmlns:xlink="http://www.w3.org/1999/xlink" width="28px" height="28px" viewBox="0 0 28 28" version="1.1">
<g id="surface1">
<path style=" stroke:none;fill-rule:nonzero;fill:rgb(92.941176%,41.176471%,36.078431%);fill-opacity:1;" d="M 10.667969 12.988281 C 10.667969 13.179688 10.511719 13.335938 10.320312 13.335938 C 10.128906 13.335938 9.972656 13.179688 9.972656 12.988281 C 9.972656 12.796875 10.128906 12.640625 10.320312 12.640625 C 10.511719 12.640625 10.664062 12.796875 10.667969 12.988281 Z M 11.273438 9.710938 L 11.273438 10.355469 L 3.652344 10.355469 L 3.652344 9.710938 Z M 10.179688 9 L 10.179688 9.429688 L 4.738281 9.429688 L 4.738281 9 Z M 11.273438 8.074219 L 11.273438 8.71875 L 3.652344 8.71875 L 3.652344 8.074219 Z M 10.179688 7.359375 L 10.179688 7.792969 L 4.738281 7.792969 L 4.738281 7.359375 Z M 11.273438 6.433594 L 11.273438 7.082031 L 3.652344 7.082031 L 3.652344 6.433594 Z M 4.738281 6.152344 L 4.738281 5.71875 L 10.179688 5.71875 L 10.179688 6.152344 Z M 11.410156 7.359375 C 11.484375 7.359375 11.546875 7.296875 11.546875 7.222656 L 11.546875 6.296875 C 11.546875 6.21875 11.484375 6.152344 11.410156 6.152344 L 10.457031 6.152344 L 10.457031 5.71875 L 11.40625 5.71875 C 11.480469 5.71875 11.542969 5.65625 11.542969 5.578125 C 11.542969 5.5 11.480469 5.441406 11.40625 5.441406 L 3.511719 5.441406 C 3.433594 5.441406 3.371094 5.5 3.371094 5.578125 C 3.371094 5.65625 3.433594 5.71875 3.511719 5.71875 L 4.460938 5.71875 L 4.460938 6.152344 L 3.511719 6.152344 C 3.433594 6.152344 3.371094 6.21875 3.371094 6.296875 L 3.371094 7.222656 C 3.371094 7.296875 3.433594 7.359375 3.511719 7.359375 L 4.460938 7.359375 L 4.460938 7.792969 L 3.511719 7.792969 C 3.433594 7.792969 3.371094 7.859375 3.371094 7.9375 L 3.371094 8.855469 C 3.371094 8.933594 3.433594 9 3.511719 9 L 4.460938 9 L 4.460938 9.429688 L 3.511719 9.429688 C 3.433594 9.429688 3.371094 9.492188 3.371094 9.570312 L 3.371094 10.496094 C 3.371094 10.574219 3.433594 10.632812 3.511719 10.632812 L 10.167969 10.632812 L 10.167969 12.378906 C 9.847656 12.457031 9.636719 12.78125 9.703125 13.109375 C 9.757812 13.40625 10.023438 13.617188 10.316406 13.617188 C 10.355469 13.617188 10.394531 13.613281 10.433594 13.605469 C 10.773438 13.539062 10.996094 13.210938 10.933594 12.871094 C 10.882812 12.625 10.691406 12.429688 10.445312 12.375 L 10.445312 10.632812 L 11.410156 10.632812 C 11.488281 10.632812 11.550781 10.574219 11.550781 10.496094 L 11.550781 9.570312 C 11.550781 9.496094 11.488281 9.429688 11.410156 9.429688 L 10.457031 9.429688 L 10.457031 9 L 11.410156 9 C 11.488281 9 11.550781 8.933594 11.550781 8.855469 L 11.550781 7.9375 C 11.550781 7.859375 11.488281 7.792969 11.410156 7.792969 L 10.457031 7.792969 L 10.457031 7.359375 Z M 11.410156 7.359375 "/>
<path style=" stroke:none;fill-rule:nonzero;fill:rgb(92.941176%,41.176471%,36.078431%);fill-opacity:1;" d="M 23.207031 17.125 C 23.207031 17.316406 23.054688 17.472656 22.859375 17.472656 C 22.667969 17.472656 22.515625 17.316406 22.515625 17.125 C 22.515625 16.933594 22.667969 16.777344 22.859375 16.777344 C 23.050781 16.777344 23.207031 16.933594 23.207031 17.125 Z M 23.8125 13.847656 L 23.8125 14.496094 L 16.191406 14.496094 L 16.191406 13.847656 Z M 22.722656 13.136719 L 22.722656 13.566406 L 17.28125 13.566406 L 17.28125 13.136719 Z M 23.8125 12.210938 L 23.8125 12.855469 L 16.191406 12.855469 L 16.191406 12.210938 Z M 22.722656 11.5 L 22.722656 11.929688 L 17.28125 11.929688 L 17.28125 11.5 Z M 23.8125 10.574219 L 23.8125 11.21875 L 16.191406 11.21875 L 16.191406 10.574219 Z M 17.28125 10.289062 L 17.28125 9.855469 L 22.722656 9.855469 L 22.722656 10.289062 Z M 23.953125 11.5 C 24.03125 11.5 24.09375 11.4375 24.09375 11.359375 L 24.09375 10.433594 C 24.09375 10.355469 24.03125 10.289062 23.953125 10.289062 L 23 10.289062 L 23 9.855469 L 23.949219 9.855469 C 24.023438 9.855469 24.085938 9.796875 24.085938 9.71875 C 24.085938 9.640625 24.023438 9.578125 23.949219 9.578125 L 16.054688 9.578125 C 15.976562 9.578125 15.914062 9.640625 15.914062 9.71875 C 15.914062 9.796875 15.976562 9.855469 16.054688 9.855469 L 17.003906 9.855469 L 17.003906 10.289062 L 16.054688 10.289062 C 15.976562 10.289062 15.914062 10.355469 15.914062 10.433594 L 15.914062 11.359375 C 15.914062 11.4375 15.976562 11.5 16.054688 11.5 L 17.003906 11.5 L 17.003906 11.929688 L 16.054688 11.929688 C 15.976562 11.929688 15.914062 11.996094 15.914062 12.066406 L 15.914062 12.992188 C 15.914062 13.070312 15.976562 13.136719 16.054688 13.136719 L 17.003906 13.136719 L 17.003906 13.566406 L 16.054688 13.566406 C 15.976562 13.566406 15.914062 13.632812 15.914062 13.707031 L 15.914062 14.632812 C 15.914062 14.710938 15.976562 14.769531 16.054688 14.769531 L 22.710938 14.769531 L 22.710938 16.515625 C 22.386719 16.59375 22.179688 16.917969 22.242188 17.246094 C 22.300781 17.542969 22.5625 17.753906 22.859375 17.753906 C 22.894531 17.753906 22.9375 17.746094 22.976562 17.742188 C 23.316406 17.675781 23.539062 17.347656 23.472656 17.007812 C 23.425781 16.761719 23.230469 16.5625 22.988281 16.511719 L 22.988281 14.769531 L 23.949219 14.769531 C 24.027344 14.769531 24.089844 14.710938 24.089844 14.632812 L 24.089844 13.703125 C 24.089844 13.632812 24.027344 13.566406 23.949219 13.566406 L 23 13.566406 L 23 13.136719 L 23.949219 13.136719 C 24.027344 13.136719 24.089844 13.070312 24.089844 12.992188 L 24.089844 12.066406 C 24.089844 11.996094 24.027344 11.929688 23.949219 11.929688 L 23 11.929688 L 23 11.496094 L 23.949219 11.496094 Z M 23.953125 11.5 "/>
<path style=" stroke:none;fill-rule:nonzero;fill:rgb(92.941176%,41.176471%,36.078431%);fill-opacity:1;" d="M 23.808594 8.925781 L 23.808594 9.578125 L 16.191406 9.578125 L 16.191406 8.925781 Z M 22.722656 8.214844 L 22.722656 8.652344 L 17.28125 8.652344 L 17.28125 8.214844 Z M 16.191406 7.941406 L 16.191406 7.289062 L 23.8125 7.289062 L 23.8125 7.941406 Z M 22.722656 6.578125 L 22.722656 7.011719 L 17.28125 7.011719 L 17.28125 6.578125 Z M 16.191406 6.300781 L 16.191406 5.648438 L 23.8125 5.648438 L 23.8125 6.300781 Z M 22.722656 10.289062 L 17.28125 10.289062 L 17.28125 9.855469 L 22.722656 9.855469 Z M 16.054688 8.652344 C 15.976562 8.652344 15.914062 8.710938 15.914062 8.789062 L 15.914062 9.714844 C 15.914062 9.792969 15.976562 9.851562 16.054688 9.851562 L 17.003906 9.851562 L 17.003906 10.289062 L 16.058594 10.289062 C 15.980469 10.289062 15.917969 10.355469 15.917969 10.433594 C 15.917969 10.511719 15.980469 10.570312 16.058594 10.570312 L 23.949219 10.570312 C 24.027344 10.570312 24.089844 10.511719 24.089844 10.433594 C 24.089844 10.355469 24.027344 10.289062 23.949219 10.289062 L 23.003906 10.289062 L 23.003906 9.851562 L 23.949219 9.851562 C 24.027344 9.851562 24.089844 9.792969 24.089844 9.714844 L 24.089844 8.789062 C 24.089844 8.710938 24.027344 8.652344 23.949219 8.652344 L 23.003906 8.652344 L 23.003906 8.214844 L 23.949219 8.214844 C 24.027344 8.214844 24.089844 8.15625 24.089844 8.078125 L 24.089844 7.152344 C 24.089844 7.074219 24.027344 7.015625 23.949219 7.015625 L 23.003906 7.015625 L 23.003906 6.578125 L 23.949219 6.578125 C 24.027344 6.578125 24.089844 6.519531 24.089844 6.441406 L 24.089844 5.511719 C 24.089844 5.4375 24.027344 5.375 23.949219 5.375 L 17.296875 5.375 L 17.296875 5.363281 C 17.203125 5.363281 17.109375 5.363281 17.019531 5.359375 L 17.019531 5.375 L 16.054688 5.375 C 15.976562 5.375 15.914062 5.4375 15.914062 5.511719 L 15.914062 6.441406 C 15.914062 6.519531 15.976562 6.578125 16.054688 6.578125 L 17.003906 6.578125 L 17.003906 7.015625 L 16.054688 7.015625 C 15.976562 7.015625 15.914062 7.074219 15.914062 7.152344 L 15.914062 8.078125 C 15.914062 8.15625 15.976562 8.214844 16.054688 8.214844 L 17.003906 8.214844 L 17.003906 8.652344 Z M 16.054688 8.652344 "/>
<path style=" stroke:none;fill-rule:nonzero;fill:rgb(92.941176%,41.176471%,36.078431%);fill-opacity:1;" d="M 0.890625 2.828125 L 26.78125 2.828125 L 26.78125 0.890625 L 0.890625 0.890625 Z M 27.210938 3.71875 L 0.460938 3.71875 C 0.207031 3.71875 0 3.511719 0 3.257812 L 0 0.460938 C 0 0.210938 0.207031 0 0.460938 0 L 27.210938 0 C 27.464844 0 27.667969 0.210938 27.667969 0.460938 L 27.667969 3.257812 C 27.667969 3.511719 27.464844 3.71875 27.210938 3.71875 Z M 27.210938 3.71875 "/>
<path style=" stroke:none;fill-rule:nonzero;fill:rgb(92.941176%,41.176471%,36.078431%);fill-opacity:1;" d="M 1.667969 27.183594 L 25.835938 27.183594 L 25.835938 3.90625 L 1.667969 3.90625 Z M 26.269531 28.074219 L 1.238281 28.074219 C 0.984375 28.074219 0.78125 27.863281 0.78125 27.613281 L 0.78125 3.472656 C 0.78125 3.222656 0.984375 3.015625 1.238281 3.015625 L 26.269531 3.015625 C 26.523438 3.015625 26.726562 3.222656 26.726562 3.472656 L 26.726562 27.613281 C 26.726562 27.863281 26.523438 28.074219 26.269531 28.074219 Z M 26.269531 28.074219 "/>
<path style=" stroke:none;fill-rule:nonzero;fill:rgb(92.941176%,41.176471%,36.078431%);fill-opacity:1;" d="M 15.957031 25.429688 L 24.046875 25.429688 L 24.046875 5.441406 L 15.957031 5.441406 Z M 24.480469 26.320312 L 15.527344 26.320312 C 15.273438 26.320312 15.070312 26.109375 15.070312 25.859375 L 15.070312 5.003906 C 15.070312 4.753906 15.273438 4.550781 15.527344 4.550781 L 24.480469 4.550781 C 24.734375 4.550781 24.9375 4.753906 24.9375 5.003906 L 24.9375 25.859375 C 24.9375 26.113281 24.734375 26.320312 24.480469 26.320312 Z M 24.480469 26.320312 "/>
<path style=" stroke:none;fill-rule:nonzero;fill:rgb(92.941176%,41.176471%,36.078431%);fill-opacity:1;" d="M 3.414062 25.429688 L 11.503906 25.429688 L 11.503906 5.441406 L 3.414062 5.441406 Z M 11.9375 26.320312 L 2.984375 26.320312 C 2.730469 26.320312 2.523438 26.109375 2.523438 25.859375 L 2.523438 5.003906 C 2.523438 4.753906 2.730469 4.550781 2.984375 4.550781 L 11.9375 4.550781 C 12.191406 4.550781 12.394531 4.753906 12.394531 5.003906 L 12.394531 25.859375 C 12.394531 26.113281 12.191406 26.320312 11.9375 26.320312 Z M 11.9375 26.320312 "/>
<path style=" stroke:none;fill-rule:nonzero;fill:rgb(92.941176%,41.176471%,36.078431%);fill-opacity:1;" d="M 13.304688 27.429688 L 14.160156 27.429688 L 14.160156 3.269531 L 13.304688 3.269531 Z M 13.304688 27.429688 "/>
</g>
</svg>
