<?xml version="1.0" encoding="UTF-8"?>
<svg xmlns="http://www.w3.org/2000/svg" xmlns:xlink="http://www.w3.org/1999/xlink" width="28px" height="28px" viewBox="0 0 28 28" version="1.1">
<g id="surface1">
<path style=" stroke:none;fill-rule:nonzero;fill:rgb(92.941176%,41.176471%,36.078431%);fill-opacity:1;" d="M 0.890625 2.828125 L 26.78125 2.828125 L 26.78125 0.890625 L 0.890625 0.890625 Z M 27.210938 3.71875 L 0.460938 3.71875 C 0.207031 3.71875 0 3.511719 0 3.257812 L 0 0.460938 C 0 0.210938 0.207031 0 0.460938 0 L 27.210938 0 C 27.464844 0 27.671875 0.210938 27.671875 0.460938 L 27.671875 3.257812 C 27.671875 3.511719 27.464844 3.71875 27.210938 3.71875 Z M 27.210938 3.71875 "/>
<path style=" stroke:none;fill-rule:nonzero;fill:rgb(92.941176%,41.176471%,36.078431%);fill-opacity:1;" d="M 11.507812 19.882812 L 11.507812 25.429688 L 3.414062 25.429688 L 3.414062 20.054688 C 3.152344 20.230469 2.753906 20.210938 2.523438 19.984375 L 2.523438 25.859375 C 2.523438 26.117188 2.730469 26.320312 2.984375 26.320312 L 11.9375 26.320312 C 12.191406 26.320312 12.398438 26.117188 12.398438 25.859375 L 12.398438 19.882812 Z M 11.507812 19.882812 "/>
<path style=" stroke:none;fill-rule:nonzero;fill:rgb(92.941176%,41.176471%,36.078431%);fill-opacity:1;" d="M 25.835938 20.304688 L 25.835938 27.183594 L 1.667969 27.183594 L 1.667969 20.101562 L 0.777344 20.101562 L 0.777344 27.613281 C 0.777344 27.863281 0.984375 28.074219 1.238281 28.074219 L 26.269531 28.074219 C 26.523438 28.074219 26.726562 27.863281 26.726562 27.613281 L 26.726562 20.3125 C 26.429688 20.3125 26.132812 20.3125 25.835938 20.304688 Z M 25.835938 20.304688 "/>
<path style=" stroke:none;fill-rule:nonzero;fill:rgb(92.941176%,41.176471%,36.078431%);fill-opacity:1;" d="M 1.640625 3.765625 C 1.691406 3.761719 1.742188 3.753906 1.789062 3.753906 C 2.714844 3.683594 3.648438 3.695312 4.578125 3.628906 C 5.695312 3.546875 6.8125 3.480469 7.929688 3.414062 C 10.109375 3.292969 12.296875 3.324219 14.480469 3.324219 C 16.671875 3.324219 18.867188 3.191406 21.058594 3.214844 C 22.296875 3.230469 23.515625 3.371094 24.726562 3.582031 C 25.394531 3.511719 26.0625 3.480469 26.726562 3.535156 L 26.726562 3.472656 C 26.726562 3.222656 26.523438 3.011719 26.269531 3.011719 L 1.238281 3.011719 C 0.984375 3.011719 0.777344 3.222656 0.777344 3.472656 L 0.777344 3.585938 C 1.066406 3.605469 1.363281 3.675781 1.640625 3.765625 Z M 1.640625 3.765625 "/>
<path style=" stroke:none;fill-rule:nonzero;fill:rgb(92.941176%,41.176471%,36.078431%);fill-opacity:1;" d="M 24.046875 20.28125 L 24.046875 25.429688 L 15.957031 25.429688 L 15.957031 20.332031 C 15.660156 20.332031 15.363281 20.332031 15.066406 20.332031 L 15.066406 25.859375 C 15.066406 26.117188 15.273438 26.320312 15.527344 26.320312 L 24.480469 26.320312 C 24.734375 26.320312 24.9375 26.117188 24.9375 25.859375 L 24.9375 20.292969 C 24.640625 20.292969 24.347656 20.289062 24.046875 20.28125 Z M 24.046875 20.28125 "/>
<path style=" stroke:none;fill-rule:nonzero;fill:rgb(92.941176%,41.176471%,36.078431%);fill-opacity:1;" d="M 14.160156 3.324219 L 14.160156 3.269531 L 13.304688 3.269531 L 13.304688 3.324219 C 13.589844 3.324219 13.875 3.324219 14.160156 3.324219 Z M 14.160156 3.324219 "/>
<path style=" stroke:none;fill-rule:nonzero;fill:rgb(92.941176%,41.176471%,36.078431%);fill-opacity:1;" d="M 13.304688 20.199219 L 13.304688 27.429688 L 14.160156 27.429688 L 14.160156 20.292969 C 13.875 20.269531 13.589844 20.242188 13.304688 20.199219 Z M 13.304688 20.199219 "/>
<path style=" stroke:none;fill-rule:nonzero;fill:rgb(92.941176%,41.176471%,36.078431%);fill-opacity:1;" d="M 1.335938 19.425781 L 1.335938 17.308594 L 26.171875 17.308594 L 26.171875 19.425781 Z M 22.613281 14.996094 L 22.613281 16.40625 L 4.878906 16.40625 L 4.878906 14.996094 Z M 1.335938 14.085938 L 1.335938 11.976562 L 26.171875 11.976562 L 26.171875 14.085938 Z M 22.613281 9.65625 L 22.613281 11.070312 L 4.878906 11.070312 L 4.878906 9.65625 Z M 1.335938 8.753906 L 1.335938 6.636719 L 26.171875 6.636719 L 26.171875 8.753906 Z M 4.878906 4.304688 L 22.613281 4.304688 L 22.613281 5.734375 L 4.878906 5.734375 Z M 26.628906 20.332031 C 26.875 20.332031 27.074219 20.128906 27.074219 19.882812 L 27.074219 16.855469 C 27.074219 16.613281 26.871094 16.40625 26.621094 16.40625 L 23.519531 16.40625 L 23.519531 14.996094 L 26.621094 14.996094 C 26.871094 14.996094 27.074219 14.792969 27.074219 14.542969 L 27.074219 11.523438 C 27.074219 11.273438 26.871094 11.070312 26.621094 11.070312 L 23.519531 11.070312 L 23.519531 9.65625 L 26.621094 9.65625 C 26.871094 9.65625 27.074219 9.453125 27.074219 9.207031 L 27.074219 6.1875 C 27.074219 5.9375 26.871094 5.734375 26.621094 5.734375 L 23.519531 5.734375 L 23.519531 4.304688 L 26.609375 4.304688 C 26.859375 4.304688 27.0625 4.101562 27.0625 3.851562 C 27.0625 3.601562 26.859375 3.398438 26.609375 3.398438 L 0.882812 3.398438 C 0.632812 3.398438 0.429688 3.601562 0.429688 3.851562 C 0.429688 4.101562 0.632812 4.304688 0.882812 4.304688 L 3.972656 4.304688 L 3.972656 5.734375 L 0.882812 5.734375 C 0.632812 5.734375 0.429688 5.9375 0.429688 6.1875 L 0.429688 9.207031 C 0.429688 9.453125 0.632812 9.65625 0.882812 9.65625 L 3.972656 9.65625 L 3.972656 11.070312 L 0.882812 11.070312 C 0.632812 11.070312 0.429688 11.273438 0.429688 11.523438 L 0.429688 14.542969 C 0.429688 14.792969 0.632812 14.996094 0.882812 14.996094 L 3.972656 14.996094 L 3.972656 16.40625 L 0.882812 16.40625 C 0.632812 16.40625 0.429688 16.613281 0.429688 16.855469 L 0.429688 19.875 C 0.429688 20.128906 0.632812 20.332031 0.882812 20.332031 Z M 26.628906 20.332031 "/>
</g>
</svg>
