<?xml version="1.0" encoding="UTF-8"?>
<svg xmlns="http://www.w3.org/2000/svg" xmlns:xlink="http://www.w3.org/1999/xlink" width="28px" height="28px" viewBox="0 0 28 28" version="1.1">
<g id="surface1">
<path style=" stroke:none;fill-rule:nonzero;fill:rgb(92.941176%,41.176471%,36.078431%);fill-opacity:1;" d="M 27.125 5.519531 C 27.125 5.757812 26.929688 5.953125 26.6875 5.953125 L 24.5 5.953125 L 24.5 3.363281 L 26.6875 3.363281 C 26.929688 3.363281 27.125 3.554688 27.125 3.796875 Z M 23.625 5.089844 L 4.375 5.089844 L 4.375 4.222656 L 23.625 4.222656 Z M 23.625 24.929688 L 21.875 24.929688 L 21.875 5.953125 L 23.625 5.953125 Z M 21 24.929688 L 19.25 24.929688 L 19.25 5.953125 L 21 5.953125 Z M 18.375 24.929688 L 16.625 24.929688 L 16.625 5.953125 L 18.375 5.953125 Z M 11.375 24.929688 L 9.625 24.929688 L 9.625 5.953125 L 11.375 5.953125 Z M 8.75 24.929688 L 7 24.929688 L 7 5.953125 L 8.75 5.953125 Z M 6.125 24.929688 L 4.375 24.929688 L 4.375 5.953125 L 6.125 5.953125 Z M 3.5 5.953125 L 1.3125 5.953125 C 1.074219 5.953125 0.875 5.761719 0.875 5.519531 L 0.875 3.796875 C 0.875 3.554688 1.074219 3.363281 1.3125 3.363281 L 3.5 3.363281 Z M 26.6875 2.5 L 24.0625 2.5 C 23.820312 2.5 23.625 2.695312 23.625 2.933594 L 23.625 3.363281 L 4.375 3.363281 L 4.375 2.933594 C 4.375 2.695312 4.179688 2.5 3.9375 2.5 L 1.3125 2.5 C 0.589844 2.5 0 3.082031 0 3.796875 L 0 5.519531 C 0 6.234375 0.589844 6.816406 1.3125 6.816406 L 3.5 6.816406 L 3.5 25.355469 C 3.5 25.597656 3.695312 25.792969 3.9375 25.792969 L 11.8125 25.792969 C 12.054688 25.792969 12.25 25.597656 12.25 25.355469 L 12.25 5.953125 L 15.75 5.953125 L 15.75 25.355469 C 15.75 25.597656 15.945312 25.792969 16.1875 25.792969 L 24.066406 25.792969 C 24.304688 25.792969 24.5 25.597656 24.5 25.355469 L 24.5 6.816406 L 26.6875 6.816406 C 27.414062 6.816406 28 6.234375 28 5.519531 L 28 3.796875 C 28 3.082031 27.414062 2.5 26.6875 2.5 Z M 26.6875 2.5 "/>
</g>
</svg>
