<?xml version="1.0" encoding="UTF-8"?>
<svg xmlns="http://www.w3.org/2000/svg" xmlns:xlink="http://www.w3.org/1999/xlink" width="28px" height="28px" viewBox="0 0 28 23" version="1.1">
<g id="surface1">
<path style=" stroke:none;fill-rule:nonzero;fill:rgb(92.941176%,41.176471%,36.078431%);fill-opacity:1;" d="M 27.125 3.019531 C 27.125 3.257812 26.929688 3.453125 26.6875 3.453125 L 24.5 3.453125 L 24.5 0.863281 L 26.6875 0.863281 C 26.929688 0.863281 27.125 1.054688 27.125 1.296875 Z M 23.625 2.589844 L 4.375 2.589844 L 4.375 1.722656 L 23.625 1.722656 Z M 23.625 22.429688 L 21.875 22.429688 L 21.875 3.453125 L 23.625 3.453125 Z M 21 22.429688 L 19.25 22.429688 L 19.25 3.453125 L 21 3.453125 Z M 18.375 22.429688 L 16.625 22.429688 L 16.625 3.453125 L 18.375 3.453125 Z M 11.375 22.429688 L 9.625 22.429688 L 9.625 3.453125 L 11.375 3.453125 Z M 8.75 22.429688 L 7 22.429688 L 7 3.453125 L 8.75 3.453125 Z M 6.125 22.429688 L 4.375 22.429688 L 4.375 3.453125 L 6.125 3.453125 Z M 3.5 3.453125 L 1.3125 3.453125 C 1.074219 3.453125 0.875 3.261719 0.875 3.019531 L 0.875 1.296875 C 0.875 1.054688 1.074219 0.863281 1.3125 0.863281 L 3.5 0.863281 Z M 26.6875 0 L 24.0625 0 C 23.820312 0 23.625 0.195312 23.625 0.433594 L 23.625 0.863281 L 4.375 0.863281 L 4.375 0.433594 C 4.375 0.195312 4.179688 0 3.9375 0 L 1.3125 0 C 0.589844 0 0 0.582031 0 1.296875 L 0 3.019531 C 0 3.734375 0.589844 4.316406 1.3125 4.316406 L 3.5 4.316406 L 3.5 22.855469 C 3.5 23.097656 3.695312 23.292969 3.9375 23.292969 L 11.8125 23.292969 C 12.054688 23.292969 12.25 23.097656 12.25 22.855469 L 12.25 3.453125 L 15.75 3.453125 L 15.75 22.855469 C 15.75 23.097656 15.945312 23.292969 16.1875 23.292969 L 24.066406 23.292969 C 24.304688 23.292969 24.5 23.097656 24.5 22.855469 L 24.5 4.316406 L 26.6875 4.316406 C 27.414062 4.316406 28 3.734375 28 3.019531 L 28 1.296875 C 28 0.582031 27.414062 0 26.6875 0 Z M 26.6875 0 "/>
</g>
</svg>
