<?xml version="1.0" encoding="UTF-8"?>
<svg xmlns="http://www.w3.org/2000/svg" xmlns:xlink="http://www.w3.org/1999/xlink" width="28px" height="28px" viewBox="0 0 28 28" version="1.1">
<g id="surface1">
<path style=" stroke:none;fill-rule:nonzero;fill:rgb(92.941176%,41.176471%,36.078431%);fill-opacity:1;" d="M 13.382812 3.84375 L 11.960938 2.421875 L 16.691406 2.421875 C 16.839844 2.421875 16.960938 2.296875 16.960938 2.148438 C 16.960938 2 16.839844 1.882812 16.691406 1.882812 L 11.960938 1.882812 L 13.382812 0.460938 C 13.488281 0.355469 13.488281 0.179688 13.382812 0.078125 C 13.277344 -0.0273438 13.105469 -0.0273438 13.003906 0.078125 C 11.011719 2.070312 11.105469 1.960938 11.074219 2.023438 C 11.03125 2.101562 11.03125 2.191406 11.066406 2.269531 C 11.09375 2.328125 11.042969 2.261719 13.003906 4.226562 C 13.105469 4.332031 13.277344 4.332031 13.382812 4.226562 C 13.488281 4.117188 13.488281 3.953125 13.382812 3.84375 Z M 13.382812 3.84375 "/>
<path style=" stroke:none;fill-rule:nonzero;fill:rgb(92.941176%,41.176471%,36.078431%);fill-opacity:1;" d="M 14.617188 0.460938 L 16.039062 1.882812 L 11.308594 1.882812 C 11.160156 1.882812 11.042969 2 11.042969 2.148438 C 11.042969 2.296875 11.160156 2.421875 11.308594 2.421875 L 16.039062 2.421875 L 14.617188 3.84375 C 14.511719 3.953125 14.511719 4.117188 14.617188 4.226562 C 14.722656 4.332031 14.894531 4.332031 15 4.226562 C 16.988281 2.234375 16.894531 2.339844 16.929688 2.28125 C 16.96875 2.203125 16.96875 2.113281 16.933594 2.035156 C 16.90625 1.976562 16.957031 2.035156 15 0.0820312 C 14.894531 -0.0273438 14.722656 -0.0273438 14.617188 0.0820312 C 14.511719 0.179688 14.511719 0.355469 14.617188 0.460938 Z M 14.617188 0.460938 "/>
<path style=" stroke:none;fill-rule:nonzero;fill:rgb(92.941176%,41.176471%,36.078431%);fill-opacity:1;" d="M 27.125 7.367188 C 27.125 7.609375 26.929688 7.804688 26.6875 7.804688 L 24.5 7.804688 L 24.5 5.175781 L 26.6875 5.175781 C 26.929688 5.175781 27.125 5.375 27.125 5.617188 Z M 23.625 6.929688 L 4.375 6.929688 L 4.375 6.050781 L 23.625 6.050781 Z M 23.625 27.054688 L 21.875 27.054688 L 21.875 7.804688 L 23.625 7.804688 Z M 21 27.054688 L 19.25 27.054688 L 19.25 7.804688 L 21 7.804688 Z M 18.375 27.054688 L 16.625 27.054688 L 16.625 7.804688 L 18.375 7.804688 Z M 11.375 27.054688 L 9.625 27.054688 L 9.625 7.804688 L 11.375 7.804688 Z M 8.75 27.054688 L 7 27.054688 L 7 7.804688 L 8.75 7.804688 Z M 6.125 27.054688 L 4.375 27.054688 L 4.375 7.804688 L 6.125 7.804688 Z M 3.5 7.804688 L 1.3125 7.804688 C 1.070312 7.804688 0.875 7.609375 0.875 7.367188 L 0.875 5.617188 C 0.875 5.375 1.070312 5.175781 1.3125 5.175781 L 3.5 5.175781 Z M 26.6875 4.304688 L 24.0625 4.304688 C 23.820312 4.304688 23.625 4.5 23.625 4.742188 L 23.625 5.175781 L 4.375 5.175781 L 4.375 4.742188 C 4.375 4.5 4.179688 4.304688 3.9375 4.304688 L 1.3125 4.304688 C 0.589844 4.304688 0 4.890625 0 5.617188 L 0 7.367188 C 0 8.089844 0.589844 8.679688 1.3125 8.679688 L 3.5 8.679688 L 3.5 27.492188 C 3.5 27.734375 3.695312 27.929688 3.9375 27.929688 L 11.8125 27.929688 C 12.054688 27.929688 12.25 27.734375 12.25 27.492188 L 12.25 7.804688 L 15.75 7.804688 L 15.75 27.492188 C 15.75 27.734375 15.945312 27.929688 16.1875 27.929688 L 24.0625 27.929688 C 24.304688 27.929688 24.5 27.734375 24.5 27.492188 L 24.5 8.679688 L 26.6875 8.679688 C 27.410156 8.679688 28 8.089844 28 7.367188 L 28 5.617188 C 28 4.890625 27.410156 4.304688 26.6875 4.304688 Z M 26.6875 4.304688 "/>
</g>
</svg>
