<?xml version="1.0" encoding="UTF-8"?>
<svg xmlns="http://www.w3.org/2000/svg" xmlns:xlink="http://www.w3.org/1999/xlink" width="28px" height="28px" viewBox="0 0 28 28" version="1.1">
<g id="surface1">
<path style=" stroke:none;fill-rule:nonzero;fill:rgb(92.941176%,41.176471%,36.078431%);fill-opacity:1;" d="M 14.617188 0.460938 L 16.039062 1.882812 L 11.308594 1.882812 C 11.160156 1.882812 11.042969 2 11.042969 2.148438 C 11.042969 2.296875 11.160156 2.425781 11.308594 2.425781 L 16.039062 2.425781 L 14.617188 3.84375 C 14.511719 3.953125 14.511719 4.117188 14.617188 4.226562 C 14.722656 4.332031 14.894531 4.332031 14.996094 4.226562 C 16.988281 2.230469 16.894531 2.339844 16.929688 2.28125 C 16.96875 2.203125 16.96875 2.113281 16.933594 2.035156 C 16.90625 1.976562 16.957031 2.035156 15 0.078125 C 14.894531 -0.0273438 14.722656 -0.0273438 14.617188 0.078125 C 14.515625 0.179688 14.515625 0.355469 14.617188 0.460938 Z M 14.617188 0.460938 "/>
<path style=" stroke:none;fill-rule:nonzero;fill:rgb(92.941176%,41.176471%,36.078431%);fill-opacity:1;" d="M 27.125 7.367188 C 27.125 7.609375 26.929688 7.804688 26.6875 7.804688 L 24.5 7.804688 L 24.5 5.175781 L 26.6875 5.175781 C 26.929688 5.175781 27.125 5.371094 27.125 5.617188 Z M 23.625 6.929688 L 4.375 6.929688 L 4.375 6.050781 L 23.625 6.050781 Z M 23.625 27.054688 L 21.875 27.054688 L 21.875 7.804688 L 23.625 7.804688 Z M 21 27.054688 L 19.25 27.054688 L 19.25 7.804688 L 21 7.804688 Z M 18.375 27.054688 L 16.625 27.054688 L 16.625 7.804688 L 18.375 7.804688 Z M 11.375 27.054688 L 9.625 27.054688 L 9.625 7.804688 L 11.375 7.804688 Z M 8.75 27.054688 L 7 27.054688 L 7 7.804688 L 8.75 7.804688 Z M 6.125 27.054688 L 4.375 27.054688 L 4.375 7.804688 L 6.125 7.804688 Z M 3.5 7.804688 L 1.3125 7.804688 C 1.070312 7.804688 0.875 7.609375 0.875 7.367188 L 0.875 5.617188 C 0.875 5.371094 1.070312 5.175781 1.3125 5.175781 L 3.5 5.175781 Z M 26.6875 4.300781 L 24.0625 4.300781 C 23.820312 4.300781 23.625 4.496094 23.625 4.742188 L 23.625 5.175781 L 4.375 5.175781 L 4.375 4.742188 C 4.375 4.496094 4.175781 4.300781 3.933594 4.300781 L 1.308594 4.300781 C 0.585938 4.300781 0 4.890625 0 5.617188 L 0 7.367188 C 0 8.089844 0.585938 8.679688 1.308594 8.679688 L 3.5 8.679688 L 3.5 27.492188 C 3.5 27.734375 3.691406 27.929688 3.933594 27.929688 L 11.808594 27.929688 C 12.050781 27.929688 12.25 27.734375 12.25 27.492188 L 12.25 7.804688 L 15.75 7.804688 L 15.75 27.492188 C 15.75 27.734375 15.945312 27.929688 16.1875 27.929688 L 24.0625 27.929688 C 24.304688 27.929688 24.5 27.734375 24.5 27.492188 L 24.5 8.679688 L 26.6875 8.679688 C 27.410156 8.679688 28 8.089844 28 7.367188 L 28 5.617188 C 28 4.890625 27.410156 4.300781 26.6875 4.300781 Z M 26.6875 4.300781 "/>
</g>
</svg>
