<?xml version="1.0" encoding="UTF-8"?>
<svg xmlns="http://www.w3.org/2000/svg" xmlns:xlink="http://www.w3.org/1999/xlink" width="28px" height="28px" viewBox="0 0 28 28" version="1.1">
<g id="surface1">
<path style=" stroke:none;fill-rule:nonzero;fill:rgb(92.941176%,41.176471%,36.078431%);fill-opacity:1;" d="M 13.382812 3.84375 L 11.960938 2.425781 L 16.691406 2.425781 C 16.839844 2.425781 16.960938 2.300781 16.960938 2.152344 C 16.960938 2.003906 16.839844 1.882812 16.691406 1.882812 L 11.960938 1.882812 L 13.382812 0.460938 C 13.488281 0.355469 13.488281 0.179688 13.382812 0.0820312 C 13.28125 -0.0234375 13.109375 -0.0234375 13.003906 0.0820312 C 11.011719 2.074219 11.105469 1.960938 11.074219 2.027344 C 11.03125 2.105469 11.03125 2.191406 11.066406 2.269531 C 11.09375 2.328125 11.046875 2.265625 13.003906 4.226562 C 13.105469 4.335938 13.277344 4.335938 13.382812 4.226562 C 13.488281 4.121094 13.488281 3.953125 13.382812 3.847656 Z M 13.382812 3.84375 "/>
<path style=" stroke:none;fill-rule:nonzero;fill:rgb(92.941176%,41.176471%,36.078431%);fill-opacity:1;" d="M 27.125 7.367188 C 27.125 7.609375 26.929688 7.804688 26.6875 7.804688 L 24.5 7.804688 L 24.5 5.175781 L 26.6875 5.175781 C 26.929688 5.175781 27.125 5.371094 27.125 5.613281 Z M 23.625 6.933594 L 4.375 6.933594 L 4.375 6.050781 L 23.625 6.050781 Z M 23.625 27.058594 L 21.875 27.058594 L 21.875 7.804688 L 23.625 7.804688 Z M 21 27.058594 L 19.25 27.058594 L 19.25 7.804688 L 21 7.804688 Z M 18.375 27.058594 L 16.621094 27.058594 L 16.621094 7.804688 L 18.375 7.804688 Z M 11.375 27.058594 L 9.625 27.058594 L 9.625 7.804688 L 11.375 7.804688 Z M 8.75 27.058594 L 7 27.058594 L 7 7.804688 L 8.75 7.804688 Z M 6.125 27.058594 L 4.375 27.058594 L 4.375 7.804688 L 6.125 7.804688 Z M 3.5 7.804688 L 1.316406 7.804688 C 1.070312 7.804688 0.875 7.609375 0.875 7.367188 L 0.875 5.617188 C 0.875 5.375 1.070312 5.175781 1.316406 5.175781 L 3.5 5.175781 L 3.5 7.808594 Z M 26.691406 4.300781 L 24.0625 4.300781 C 23.820312 4.300781 23.625 4.496094 23.625 4.742188 L 23.625 5.175781 L 4.375 5.175781 L 4.375 4.742188 C 4.375 4.496094 4.179688 4.300781 3.941406 4.300781 L 1.316406 4.300781 C 0.589844 4.300781 0 4.890625 0 5.617188 L 0 7.367188 C 0 8.089844 0.589844 8.679688 1.316406 8.679688 L 3.5 8.679688 L 3.5 27.492188 C 3.5 27.734375 3.695312 27.929688 3.9375 27.929688 L 11.8125 27.929688 C 12.050781 27.929688 12.25 27.734375 12.25 27.492188 L 12.25 7.804688 L 15.75 7.804688 L 15.75 27.492188 C 15.75 27.734375 15.945312 27.929688 16.1875 27.929688 L 24.058594 27.929688 C 24.304688 27.929688 24.5 27.734375 24.5 27.492188 L 24.5 8.679688 L 26.6875 8.679688 C 27.410156 8.679688 28 8.09375 28 7.367188 L 28 5.617188 C 28 4.890625 27.410156 4.300781 26.6875 4.300781 Z M 26.691406 4.300781 "/>
</g>
</svg>
