<?xml version="1.0" encoding="UTF-8"?>
<svg xmlns="http://www.w3.org/2000/svg" xmlns:xlink="http://www.w3.org/1999/xlink" width="28px" height="28px" viewBox="0 0 28 28" version="1.1">
<g id="surface1">
<path style=" stroke:none;fill-rule:nonzero;fill:rgb(92.941176%,41.176471%,36.078431%);fill-opacity:1;" d="M 26.683594 4.375 L 24.058594 4.375 C 23.820312 4.375 23.621094 4.574219 23.621094 4.8125 L 23.621094 5.25 L 4.375 5.25 L 4.375 4.8125 C 4.375 4.574219 4.175781 4.375 3.9375 4.375 L 1.3125 4.375 C 0.585938 4.375 0 4.964844 0 5.6875 L 0 7.4375 C 0 8.164062 0.585938 8.75 1.3125 8.75 L 3.5 8.75 L 3.5 27.5625 C 3.5 27.804688 3.695312 28 3.9375 28 L 11.8125 28 C 12.050781 28 12.25 27.800781 12.25 27.5625 L 12.25 7.875 L 15.75 7.875 L 15.75 27.5625 C 15.75 27.804688 15.945312 28 16.183594 28 L 24.058594 28 C 24.304688 28 24.496094 27.800781 24.496094 27.5625 L 24.496094 8.75 L 26.683594 8.75 C 27.410156 8.75 27.996094 8.164062 27.996094 7.4375 L 27.996094 5.6875 C 27.996094 4.964844 27.410156 4.375 26.683594 4.375 Z M 3.5 7.875 L 1.3125 7.875 C 1.070312 7.875 0.875 7.679688 0.875 7.4375 L 0.875 5.6875 C 0.875 5.445312 1.070312 5.25 1.3125 5.25 L 3.5 5.25 Z M 6.125 27.125 L 4.378906 27.125 L 4.378906 7.875 L 6.125 7.875 Z M 8.75 27.125 L 7.003906 27.125 L 7.003906 7.875 L 8.75 7.875 Z M 11.378906 27.125 L 9.628906 27.125 L 9.628906 7.875 L 11.378906 7.875 Z M 18.378906 27.125 L 16.628906 27.125 L 16.628906 7.875 L 18.378906 7.875 Z M 21.003906 27.125 L 19.253906 27.125 L 19.253906 7.875 L 21.003906 7.875 Z M 23.628906 27.125 L 21.882812 27.125 L 21.882812 7.875 L 23.628906 7.875 Z M 23.628906 7 L 4.382812 7 L 4.382812 6.128906 L 23.628906 6.128906 Z M 27.128906 7.4375 C 27.128906 7.679688 26.933594 7.875 26.691406 7.875 L 24.503906 7.875 L 24.503906 5.25 L 26.691406 5.25 C 26.933594 5.25 27.128906 5.445312 27.128906 5.6875 Z M 27.128906 7.4375 "/>
<path style=" stroke:none;fill-rule:nonzero;fill:rgb(92.941176%,41.176471%,36.078431%);fill-opacity:1;" d="M 15.546875 3.011719 C 15.71875 2.839844 15.71875 2.5625 15.546875 2.390625 C 15.136719 1.980469 14.585938 1.75 14 1.75 C 13.417969 1.75 12.863281 1.980469 12.453125 2.390625 C 12.28125 2.5625 12.28125 2.839844 12.453125 3.011719 C 12.539062 3.097656 12.648438 3.140625 12.761719 3.140625 C 12.871094 3.140625 12.984375 3.097656 13.070312 3.011719 C 13.5625 2.511719 14.429688 2.515625 14.925781 3.011719 C 15.097656 3.183594 15.371094 3.183594 15.542969 3.011719 Z M 15.546875 3.011719 "/>
<path style=" stroke:none;fill-rule:nonzero;fill:rgb(92.941176%,41.176471%,36.078431%);fill-opacity:1;" d="M 11.835938 1.773438 C 12.417969 1.195312 13.183594 0.875 14 0.875 C 14.816406 0.875 15.582031 1.195312 16.164062 1.773438 C 16.25 1.859375 16.359375 1.902344 16.472656 1.902344 C 16.582031 1.902344 16.695312 1.859375 16.78125 1.773438 C 16.953125 1.601562 16.953125 1.328125 16.78125 1.15625 C 16.035156 0.410156 15.046875 0 13.996094 0 C 12.945312 0 11.957031 0.410156 11.214844 1.15625 C 11.042969 1.328125 11.042969 1.601562 11.214844 1.773438 C 11.386719 1.945312 11.660156 1.945312 11.832031 1.773438 Z M 11.835938 1.773438 "/>
<path style=" stroke:none;fill-rule:nonzero;fill:rgb(92.941176%,41.176471%,36.078431%);fill-opacity:1;" d="M 14.4375 3.9375 C 14.4375 4.179688 14.242188 4.375 14 4.375 C 13.757812 4.375 13.5625 4.179688 13.5625 3.9375 C 13.5625 3.699219 13.757812 3.5 14 3.5 C 14.242188 3.5 14.4375 3.699219 14.4375 3.9375 Z M 14.4375 3.9375 "/>
</g>
</svg>
