<?xml version="1.0" encoding="UTF-8"?>
<svg xmlns="http://www.w3.org/2000/svg" xmlns:xlink="http://www.w3.org/1999/xlink" width="28px" height="28px" viewBox="0 0 28 28" version="1.1">
<g id="surface1">
<path style=" stroke:none;fill-rule:nonzero;fill:rgb(92.941176%,41.176471%,36.078431%);fill-opacity:1;" d="M 26.75 1.910156 L 27.210938 1.910156 C 27.464844 1.910156 27.671875 1.707031 27.671875 1.457031 C 27.671875 1.207031 27.464844 1 27.210938 1 L 22.132812 1 C 15.988281 1 8.664062 1 3.6875 1 L 0.453125 1 C 0.203125 1 -0.0078125 1.203125 -0.0078125 1.457031 C -0.0078125 1.707031 0.203125 1.910156 0.453125 1.910156 L 0.917969 1.910156 L 0.917969 2.367188 L -0.0078125 2.367188 L -0.0078125 27.390625 L 27.675781 27.390625 L 27.675781 2.367188 L 26.753906 2.367188 L 26.753906 1.910156 Z M 22.136719 1.910156 L 22.136719 2.367188 L 5.535156 2.367188 C 5.535156 7.554688 5.535156 12.625 5.535156 17.835938 L 21.214844 17.835938 L 21.214844 19.199219 L 6.457031 19.199219 L 6.457031 2.367188 L 5.53125 2.367188 L 5.53125 1.910156 Z M 6.460938 3.277344 L 21.21875 3.277344 L 21.21875 17.839844 L 6.460938 17.839844 C 6.460938 12.777344 6.460938 8.1875 6.460938 3.277344 Z M 6.460938 16.925781 L 6.460938 3.277344 Z M 1.847656 26.484375 L 0.925781 26.484375 L 0.925781 3.28125 L 1.847656 3.28125 Z M 1.847656 2.371094 L 1.847656 1.914062 L 2.769531 1.914062 L 2.769531 2.371094 Z M 3.695312 26.484375 L 2.769531 26.484375 L 2.769531 3.28125 L 3.695312 3.28125 Z M 3.695312 2.371094 L 3.695312 1.914062 L 4.617188 1.914062 L 4.617188 2.371094 Z M 5.539062 26.484375 L 4.617188 26.484375 L 4.617188 3.28125 L 5.539062 3.28125 L 5.539062 26.492188 Z M 6.464844 27.394531 L 6.464844 19.203125 L 21.222656 19.203125 L 21.222656 27.394531 Z M 23.066406 26.484375 L 22.140625 26.484375 L 22.140625 3.273438 L 23.066406 3.273438 Z M 23.066406 2.371094 L 23.066406 1.914062 L 23.988281 1.914062 L 23.988281 2.371094 Z M 24.910156 26.484375 L 23.988281 26.484375 L 23.988281 3.28125 L 24.910156 3.28125 Z M 26.757812 26.484375 L 25.835938 26.484375 L 25.835938 3.28125 L 26.757812 3.28125 Z M 24.910156 2.371094 L 24.910156 1.914062 L 25.835938 1.914062 L 25.835938 2.371094 Z M 24.910156 2.371094 "/>
<path style=" stroke:none;fill-rule:nonzero;fill:rgb(92.941176%,41.176471%,36.078431%);fill-opacity:1;" d="M 13.273438 16.175781 L 11.859375 17.574219 L 16.566406 17.574219 C 16.714844 17.574219 16.832031 17.6875 16.832031 17.839844 C 16.832031 17.984375 16.714844 18.101562 16.566406 18.101562 L 11.859375 18.101562 L 13.273438 19.5 C 13.378906 19.605469 13.378906 19.769531 13.273438 19.871094 C 13.171875 19.972656 13 19.972656 12.894531 19.871094 C 10.921875 17.914062 11.015625 18.023438 10.976562 17.960938 C 10.9375 17.882812 10.9375 17.796875 10.972656 17.722656 C 11.003906 17.660156 10.949219 17.722656 12.894531 15.800781 C 13 15.695312 13.171875 15.695312 13.273438 15.800781 C 13.378906 15.902344 13.378906 16.070312 13.273438 16.175781 Z M 13.273438 16.175781 "/>
<path style=" stroke:none;fill-rule:nonzero;fill:rgb(92.941176%,41.176471%,36.078431%);fill-opacity:1;" d="M 16.105469 14.90625 C 16.105469 14.675781 15.917969 14.484375 15.679688 14.484375 L 9.902344 14.484375 C 9.226562 14.484375 8.660156 15.035156 8.660156 15.710938 L 8.660156 20.097656 C 8.660156 20.777344 9.226562 21.324219 9.902344 21.324219 L 17.792969 21.324219 C 18.464844 21.3125 19.015625 20.769531 19.015625 20.097656 L 19.015625 15.710938 C 19.015625 15.035156 18.453125 14.484375 17.769531 14.484375 L 15.011719 14.484375 C 14.484375 14.484375 14.457031 15.324219 15.011719 15.324219 L 17.769531 15.324219 C 17.992188 15.324219 18.167969 15.496094 18.167969 15.710938 L 18.167969 20.097656 C 18.167969 20.3125 17.992188 20.484375 17.769531 20.484375 L 9.90625 20.484375 C 9.695312 20.484375 9.515625 20.3125 9.515625 20.097656 L 9.515625 15.710938 C 9.515625 15.496094 9.691406 15.324219 9.90625 15.324219 L 15.683594 15.324219 C 15.921875 15.324219 16.109375 15.132812 16.109375 14.90625 Z M 16.105469 14.90625 "/>
</g>
</svg>
