<?xml version="1.0" encoding="UTF-8"?>
<svg xmlns="http://www.w3.org/2000/svg" xmlns:xlink="http://www.w3.org/1999/xlink" width="28px" height="28px" viewBox="0 0 28 26" version="1.1">
<g id="surface1">
<path style=" stroke:none;fill-rule:nonzero;fill:rgb(92.941176%,41.176471%,36.078431%);fill-opacity:1;" d="M 26.75 0.910156 L 27.210938 0.910156 C 27.464844 0.910156 27.671875 0.707031 27.671875 0.457031 C 27.671875 0.207031 27.464844 0 27.210938 0 L 22.132812 0 C 15.988281 0 8.664062 0 3.6875 0 L 0.453125 0 C 0.203125 0 -0.0078125 0.203125 -0.0078125 0.457031 C -0.0078125 0.707031 0.203125 0.910156 0.453125 0.910156 L 0.917969 0.910156 L 0.917969 1.367188 L -0.0078125 1.367188 L -0.0078125 26.390625 L 27.675781 26.390625 L 27.675781 1.367188 L 26.753906 1.367188 L 26.753906 0.910156 Z M 22.136719 0.910156 L 22.136719 1.367188 L 5.535156 1.367188 C 5.535156 6.554688 5.535156 11.625 5.535156 16.835938 L 21.214844 16.835938 L 21.214844 18.199219 L 6.457031 18.199219 L 6.457031 1.367188 L 5.53125 1.367188 L 5.53125 0.910156 Z M 6.460938 2.277344 L 21.21875 2.277344 L 21.21875 16.839844 L 6.460938 16.839844 C 6.460938 11.777344 6.460938 7.1875 6.460938 2.277344 Z M 6.460938 15.925781 L 6.460938 2.277344 Z M 1.847656 25.484375 L 0.925781 25.484375 L 0.925781 2.28125 L 1.847656 2.28125 Z M 1.847656 1.371094 L 1.847656 0.914062 L 2.769531 0.914062 L 2.769531 1.371094 Z M 3.695312 25.484375 L 2.769531 25.484375 L 2.769531 2.28125 L 3.695312 2.28125 Z M 3.695312 1.371094 L 3.695312 0.914062 L 4.617188 0.914062 L 4.617188 1.371094 Z M 5.539062 25.484375 L 4.617188 25.484375 L 4.617188 2.28125 L 5.539062 2.28125 L 5.539062 25.492188 Z M 6.464844 26.394531 L 6.464844 18.203125 L 21.222656 18.203125 L 21.222656 26.394531 Z M 23.066406 25.484375 L 22.140625 25.484375 L 22.140625 2.273438 L 23.066406 2.273438 Z M 23.066406 1.371094 L 23.066406 0.914062 L 23.988281 0.914062 L 23.988281 1.371094 Z M 24.910156 25.484375 L 23.988281 25.484375 L 23.988281 2.28125 L 24.910156 2.28125 Z M 26.757812 25.484375 L 25.835938 25.484375 L 25.835938 2.28125 L 26.757812 2.28125 Z M 24.910156 1.371094 L 24.910156 0.914062 L 25.835938 0.914062 L 25.835938 1.371094 Z M 24.910156 1.371094 "/>
<path style=" stroke:none;fill-rule:nonzero;fill:rgb(92.941176%,41.176471%,36.078431%);fill-opacity:1;" d="M 13.273438 15.175781 L 11.859375 16.574219 L 16.566406 16.574219 C 16.714844 16.574219 16.832031 16.6875 16.832031 16.839844 C 16.832031 16.984375 16.714844 17.101562 16.566406 17.101562 L 11.859375 17.101562 L 13.273438 18.5 C 13.378906 18.605469 13.378906 18.769531 13.273438 18.871094 C 13.171875 18.972656 13 18.972656 12.894531 18.871094 C 10.921875 16.914062 11.015625 17.023438 10.976562 16.960938 C 10.9375 16.882812 10.9375 16.796875 10.972656 16.722656 C 11.003906 16.660156 10.949219 16.722656 12.894531 14.800781 C 13 14.695312 13.171875 14.695312 13.273438 14.800781 C 13.378906 14.902344 13.378906 15.070312 13.273438 15.175781 Z M 13.273438 15.175781 "/>
<path style=" stroke:none;fill-rule:nonzero;fill:rgb(92.941176%,41.176471%,36.078431%);fill-opacity:1;" d="M 16.105469 13.90625 C 16.105469 13.675781 15.917969 13.484375 15.679688 13.484375 L 9.902344 13.484375 C 9.226562 13.484375 8.660156 14.035156 8.660156 14.710938 L 8.660156 19.097656 C 8.660156 19.777344 9.226562 20.324219 9.902344 20.324219 L 17.792969 20.324219 C 18.464844 20.3125 19.015625 19.769531 19.015625 19.097656 L 19.015625 14.710938 C 19.015625 14.035156 18.453125 13.484375 17.769531 13.484375 L 15.011719 13.484375 C 14.484375 13.484375 14.457031 14.324219 15.011719 14.324219 L 17.769531 14.324219 C 17.992188 14.324219 18.167969 14.496094 18.167969 14.710938 L 18.167969 19.097656 C 18.167969 19.3125 17.992188 19.484375 17.769531 19.484375 L 9.90625 19.484375 C 9.695312 19.484375 9.515625 19.3125 9.515625 19.097656 L 9.515625 14.710938 C 9.515625 14.496094 9.691406 14.324219 9.90625 14.324219 L 15.683594 14.324219 C 15.921875 14.324219 16.109375 14.132812 16.109375 13.90625 Z M 16.105469 13.90625 "/>
</g>
</svg>
