<?xml version="1.0" encoding="UTF-8"?>
<svg xmlns="http://www.w3.org/2000/svg" xmlns:xlink="http://www.w3.org/1999/xlink" width="28px" height="28px" viewBox="0 0 28 28" version="1.1">
<g id="surface1">
<path style=" stroke:none;fill-rule:nonzero;fill:rgb(92.941176%,41.176471%,36.078431%);fill-opacity:1;" d="M 14.503906 16.175781 L 15.917969 17.570312 L 11.210938 17.570312 C 11.0625 17.570312 10.945312 17.6875 10.945312 17.832031 C 10.945312 17.980469 11.0625 18.097656 11.210938 18.097656 L 15.917969 18.097656 L 14.503906 19.492188 C 14.398438 19.597656 14.398438 19.761719 14.503906 19.867188 C 14.605469 19.972656 14.777344 19.972656 14.882812 19.867188 C 16.859375 17.90625 16.761719 18.015625 16.800781 17.953125 C 16.84375 17.878906 16.84375 17.792969 16.804688 17.71875 C 16.773438 17.660156 16.828125 17.71875 14.882812 15.796875 C 14.777344 15.691406 14.605469 15.691406 14.503906 15.796875 C 14.398438 15.902344 14.398438 16.0625 14.503906 16.167969 Z M 14.503906 16.175781 "/>
<path style=" stroke:none;fill-rule:nonzero;fill:rgb(92.941176%,41.176471%,36.078431%);fill-opacity:1;" d="M 16.101562 14.90625 C 16.101562 14.675781 15.914062 14.488281 15.675781 14.488281 L 9.898438 14.488281 C 9.222656 14.488281 8.65625 15.039062 8.65625 15.714844 L 8.65625 20.101562 C 8.65625 20.78125 9.214844 21.328125 9.898438 21.328125 L 17.789062 21.328125 C 18.460938 21.320312 19.007812 20.769531 19.007812 20.101562 L 19.007812 15.714844 C 19.007812 15.042969 18.449219 14.488281 17.761719 14.488281 L 15 14.488281 C 14.472656 14.488281 14.453125 15.328125 15 15.328125 L 17.761719 15.328125 C 17.980469 15.328125 18.15625 15.5 18.15625 15.714844 L 18.15625 20.101562 C 18.15625 20.320312 17.980469 20.492188 17.761719 20.492188 L 9.894531 20.492188 C 9.679688 20.492188 9.503906 20.320312 9.503906 20.101562 L 9.503906 15.714844 C 9.503906 15.5 9.679688 15.328125 9.894531 15.328125 L 15.667969 15.328125 C 15.902344 15.328125 16.09375 15.136719 16.09375 14.910156 Z M 16.101562 14.90625 "/>
<path style=" stroke:none;fill-rule:nonzero;fill:rgb(92.941176%,41.176471%,36.078431%);fill-opacity:1;" d="M 26.746094 1.910156 L 27.207031 1.910156 C 27.460938 1.910156 27.664062 1.707031 27.664062 1.457031 C 27.664062 1.207031 27.457031 1.003906 27.207031 1.003906 L 22.132812 1.003906 C 15.988281 1.003906 8.660156 1.003906 3.683594 1.003906 L 0.453125 1.003906 C 0.199219 1.003906 -0.00390625 1.210938 -0.00390625 1.457031 C -0.00390625 1.710938 0.203125 1.910156 0.453125 1.910156 L 0.914062 1.910156 L 0.914062 2.363281 L -0.0117188 2.363281 L -0.0117188 27.390625 L 27.671875 27.390625 L 27.671875 2.363281 L 26.746094 2.363281 Z M 22.136719 1.910156 L 22.136719 2.363281 L 5.535156 2.363281 C 5.535156 7.550781 5.535156 12.621094 5.535156 17.832031 L 21.214844 17.832031 L 21.214844 19.195312 L 6.457031 19.195312 L 6.457031 2.363281 L 5.535156 2.363281 L 5.535156 1.910156 Z M 6.457031 3.273438 L 21.214844 3.273438 L 21.214844 17.832031 L 6.457031 17.832031 C 6.457031 12.769531 6.457031 8.183594 6.457031 3.273438 Z M 6.457031 16.925781 L 6.457031 3.273438 Z M 1.847656 26.484375 L 0.921875 26.484375 L 0.921875 3.28125 L 1.847656 3.28125 Z M 1.847656 2.371094 L 1.847656 1.917969 L 2.769531 1.917969 L 2.769531 2.371094 Z M 3.691406 26.484375 L 2.769531 26.484375 L 2.769531 3.28125 L 3.691406 3.28125 Z M 3.691406 2.371094 L 3.691406 1.917969 L 4.617188 1.917969 L 4.617188 2.371094 Z M 5.539062 26.484375 L 4.617188 26.484375 L 4.617188 3.28125 L 5.539062 3.28125 L 5.539062 26.488281 Z M 6.460938 27.394531 L 6.460938 19.203125 L 21.21875 19.203125 L 21.21875 27.394531 Z M 23.066406 26.484375 L 22.140625 26.484375 L 22.140625 3.273438 L 23.066406 3.273438 Z M 23.066406 2.371094 L 23.066406 1.917969 L 23.988281 1.917969 L 23.988281 2.371094 Z M 24.910156 26.484375 L 23.988281 26.484375 L 23.988281 3.28125 L 24.910156 3.28125 Z M 26.757812 26.484375 L 25.835938 26.484375 L 25.835938 3.28125 L 26.757812 3.28125 Z M 24.910156 2.371094 L 24.910156 1.917969 L 25.835938 1.917969 L 25.835938 2.371094 Z M 24.910156 2.371094 "/>
</g>
</svg>
