<?xml version="1.0" encoding="UTF-8"?>
<svg xmlns="http://www.w3.org/2000/svg" xmlns:xlink="http://www.w3.org/1999/xlink" width="28px" height="28px" viewBox="0 0 28 26" version="1.1">
<g id="surface1">
<path style=" stroke:none;fill-rule:nonzero;fill:rgb(92.941176%,41.176471%,36.078431%);fill-opacity:1;" d="M 14.503906 15.175781 L 15.917969 16.570312 L 11.210938 16.570312 C 11.0625 16.570312 10.945312 16.6875 10.945312 16.832031 C 10.945312 16.980469 11.0625 17.097656 11.210938 17.097656 L 15.917969 17.097656 L 14.503906 18.492188 C 14.398438 18.597656 14.398438 18.761719 14.503906 18.867188 C 14.605469 18.972656 14.777344 18.972656 14.882812 18.867188 C 16.859375 16.90625 16.761719 17.015625 16.800781 16.953125 C 16.84375 16.878906 16.84375 16.792969 16.804688 16.71875 C 16.773438 16.660156 16.828125 16.71875 14.882812 14.796875 C 14.777344 14.691406 14.605469 14.691406 14.503906 14.796875 C 14.398438 14.902344 14.398438 15.0625 14.503906 15.167969 Z M 14.503906 15.175781 "/>
<path style=" stroke:none;fill-rule:nonzero;fill:rgb(92.941176%,41.176471%,36.078431%);fill-opacity:1;" d="M 16.101562 13.90625 C 16.101562 13.675781 15.914062 13.488281 15.675781 13.488281 L 9.898438 13.488281 C 9.222656 13.488281 8.65625 14.039062 8.65625 14.714844 L 8.65625 19.101562 C 8.65625 19.78125 9.214844 20.328125 9.898438 20.328125 L 17.789062 20.328125 C 18.460938 20.320312 19.007812 19.769531 19.007812 19.101562 L 19.007812 14.714844 C 19.007812 14.042969 18.449219 13.488281 17.761719 13.488281 L 15 13.488281 C 14.472656 13.488281 14.453125 14.328125 15 14.328125 L 17.761719 14.328125 C 17.980469 14.328125 18.15625 14.5 18.15625 14.714844 L 18.15625 19.101562 C 18.15625 19.320312 17.980469 19.492188 17.761719 19.492188 L 9.894531 19.492188 C 9.679688 19.492188 9.503906 19.320312 9.503906 19.101562 L 9.503906 14.714844 C 9.503906 14.5 9.679688 14.328125 9.894531 14.328125 L 15.667969 14.328125 C 15.902344 14.328125 16.09375 14.136719 16.09375 13.910156 Z M 16.101562 13.90625 "/>
<path style=" stroke:none;fill-rule:nonzero;fill:rgb(92.941176%,41.176471%,36.078431%);fill-opacity:1;" d="M 26.746094 0.910156 L 27.207031 0.910156 C 27.460938 0.910156 27.664062 0.707031 27.664062 0.457031 C 27.664062 0.207031 27.457031 0.00390625 27.207031 0.00390625 L 22.132812 0.00390625 C 15.988281 0.00390625 8.660156 0.00390625 3.683594 0.00390625 L 0.453125 0.00390625 C 0.199219 0.00390625 -0.00390625 0.210938 -0.00390625 0.457031 C -0.00390625 0.710938 0.203125 0.910156 0.453125 0.910156 L 0.914062 0.910156 L 0.914062 1.363281 L -0.0117188 1.363281 L -0.0117188 26.390625 L 27.671875 26.390625 L 27.671875 1.363281 L 26.746094 1.363281 Z M 22.136719 0.910156 L 22.136719 1.363281 L 5.535156 1.363281 C 5.535156 6.550781 5.535156 11.621094 5.535156 16.832031 L 21.214844 16.832031 L 21.214844 18.195312 L 6.457031 18.195312 L 6.457031 1.363281 L 5.535156 1.363281 L 5.535156 0.910156 Z M 6.457031 2.273438 L 21.214844 2.273438 L 21.214844 16.832031 L 6.457031 16.832031 C 6.457031 11.769531 6.457031 7.183594 6.457031 2.273438 Z M 6.457031 15.925781 L 6.457031 2.273438 Z M 1.847656 25.484375 L 0.921875 25.484375 L 0.921875 2.28125 L 1.847656 2.28125 Z M 1.847656 1.371094 L 1.847656 0.917969 L 2.769531 0.917969 L 2.769531 1.371094 Z M 3.691406 25.484375 L 2.769531 25.484375 L 2.769531 2.28125 L 3.691406 2.28125 Z M 3.691406 1.371094 L 3.691406 0.917969 L 4.617188 0.917969 L 4.617188 1.371094 Z M 5.539062 25.484375 L 4.617188 25.484375 L 4.617188 2.28125 L 5.539062 2.28125 L 5.539062 25.488281 Z M 6.460938 26.394531 L 6.460938 18.203125 L 21.21875 18.203125 L 21.21875 26.394531 Z M 23.066406 25.484375 L 22.140625 25.484375 L 22.140625 2.273438 L 23.066406 2.273438 Z M 23.066406 1.371094 L 23.066406 0.917969 L 23.988281 0.917969 L 23.988281 1.371094 Z M 24.910156 25.484375 L 23.988281 25.484375 L 23.988281 2.28125 L 24.910156 2.28125 Z M 26.757812 25.484375 L 25.835938 25.484375 L 25.835938 2.28125 L 26.757812 2.28125 Z M 24.910156 1.371094 L 24.910156 0.917969 L 25.835938 0.917969 L 25.835938 1.371094 Z M 24.910156 1.371094 "/>
</g>
</svg>
