<?xml version="1.0" encoding="UTF-8"?>
<svg xmlns="http://www.w3.org/2000/svg" xmlns:xlink="http://www.w3.org/1999/xlink" width="28px" height="28px" viewBox="0 0 28 28" version="1.1">
<g id="surface1">
<path style=" stroke:none;fill-rule:nonzero;fill:rgb(92.941176%,41.176471%,36.078431%);fill-opacity:1;" d="M 26.5625 26.558594 L 23.792969 26.558594 C 23.792969 25.800781 23.792969 8.457031 23.792969 7.742188 L 24.902344 7.742188 C 25.207031 7.742188 25.457031 7.5 25.457031 7.1875 L 25.457031 3.867188 C 25.457031 3.5625 25.207031 3.316406 24.902344 3.316406 L 2.769531 3.316406 C 2.460938 3.316406 2.214844 3.558594 2.214844 3.867188 L 2.214844 7.1875 C 2.214844 7.492188 2.460938 7.742188 2.769531 7.742188 L 3.875 7.742188 L 3.875 26.558594 L 1.113281 26.558594 L 1.113281 1.101562 L 26.570312 1.101562 L 26.570312 26.558594 Z M 4.984375 13.277344 L 4.984375 11.0625 L 22.6875 11.0625 L 22.6875 13.277344 Z M 22.6875 7.742188 L 22.6875 9.960938 L 4.984375 9.960938 L 4.984375 7.742188 Z M 3.320312 6.640625 L 3.320312 4.421875 L 24.351562 4.421875 L 24.351562 6.640625 C 23.445312 6.640625 3.894531 6.640625 3.320312 6.640625 Z M 27.113281 0 L 0.550781 0 C 0.242188 0 -0.0078125 0.242188 -0.0078125 0.550781 L -0.0078125 27.113281 C -0.0078125 27.421875 0.242188 27.664062 0.550781 27.664062 L 4.421875 27.664062 C 4.730469 27.664062 4.976562 27.417969 4.976562 27.113281 L 4.976562 14.390625 L 22.679688 14.390625 L 22.679688 27.113281 C 22.679688 27.421875 22.929688 27.664062 23.238281 27.664062 L 27.109375 27.664062 C 27.417969 27.664062 27.664062 27.417969 27.664062 27.113281 L 27.664062 0.550781 C 27.664062 0.25 27.417969 0 27.109375 0 Z M 27.113281 0 "/>
<path style=" stroke:none;fill-rule:nonzero;fill:rgb(92.941176%,41.176471%,36.078431%);fill-opacity:1;" d="M 4.828125 18.082031 L 22.972656 18.082031 L 22.972656 16.910156 L 4.828125 16.910156 Z M 4.828125 18.082031 "/>
<path style=" stroke:none;fill-rule:nonzero;fill:rgb(92.941176%,41.176471%,36.078431%);fill-opacity:1;" d="M 4.828125 22.066406 L 22.972656 22.066406 L 22.972656 20.886719 L 4.828125 20.886719 Z M 4.828125 22.066406 "/>
<path style=" stroke:none;fill-rule:nonzero;fill:rgb(92.941176%,41.176471%,36.078431%);fill-opacity:1;" d="M 4.828125 26.050781 L 22.972656 26.050781 L 22.972656 24.871094 L 4.828125 24.871094 Z M 4.828125 26.050781 "/>
</g>
</svg>
