<?xml version="1.0" encoding="UTF-8"?>
<svg xmlns="http://www.w3.org/2000/svg" xmlns:xlink="http://www.w3.org/1999/xlink" width="28px" height="28px" viewBox="0 0 28 28" version="1.1">
<g id="surface1">
<path style=" stroke:none;fill-rule:nonzero;fill:rgb(92.941176%,41.176471%,36.078431%);fill-opacity:1;" d="M 26.566406 26.5625 L 23.800781 26.5625 C 23.800781 25.800781 23.800781 8.464844 23.800781 7.746094 L 24.90625 7.746094 C 25.210938 7.746094 25.460938 7.496094 25.460938 7.195312 L 25.460938 3.875 C 25.460938 3.566406 25.214844 3.320312 24.90625 3.320312 L 2.769531 3.320312 C 2.460938 3.320312 2.214844 3.566406 2.214844 3.875 L 2.214844 7.195312 C 2.214844 7.496094 2.460938 7.746094 2.769531 7.746094 L 3.875 7.746094 L 3.875 26.5625 L 1.105469 26.5625 L 1.105469 1.101562 L 26.5625 1.101562 L 26.5625 26.5625 Z M 4.980469 13.28125 L 4.980469 11.066406 L 22.691406 11.066406 L 22.691406 13.28125 Z M 22.691406 7.746094 L 22.691406 9.960938 L 4.980469 9.960938 L 4.980469 7.746094 Z M 3.324219 6.636719 L 3.324219 4.429688 L 24.355469 4.429688 L 24.355469 6.636719 C 23.453125 6.636719 3.898438 6.636719 3.324219 6.636719 Z M 27.125 0 L 0.5625 0 C 0.257812 0 0.00390625 0.246094 0.00390625 0.550781 L 0.00390625 27.113281 C 0.00390625 27.421875 0.253906 27.667969 0.5625 27.667969 L 4.4375 27.667969 C 4.742188 27.667969 4.992188 27.421875 4.992188 27.113281 L 4.992188 14.386719 L 22.703125 14.386719 L 22.703125 27.113281 C 22.703125 27.421875 22.949219 27.667969 23.257812 27.667969 L 27.132812 27.667969 C 27.441406 27.667969 27.6875 27.421875 27.6875 27.113281 L 27.6875 0.550781 C 27.6875 0.246094 27.441406 0 27.132812 0 Z M 27.125 0 "/>
<path style=" stroke:none;fill-rule:nonzero;fill:rgb(92.941176%,41.176471%,36.078431%);fill-opacity:1;" d="M 17.320312 22.851562 L 14.394531 25.777344 L 14.394531 16.042969 C 14.394531 15.742188 14.144531 15.488281 13.84375 15.488281 C 13.535156 15.488281 13.285156 15.738281 13.285156 16.042969 L 13.285156 25.777344 L 10.359375 22.851562 C 10.144531 22.636719 9.789062 22.636719 9.574219 22.851562 C 9.359375 23.066406 9.359375 23.414062 9.574219 23.636719 C 13.679688 27.730469 13.449219 27.53125 13.582031 27.601562 C 13.734375 27.6875 13.921875 27.691406 14.074219 27.617188 C 14.203125 27.5625 14.074219 27.664062 18.105469 23.636719 C 18.324219 23.414062 18.324219 23.066406 18.105469 22.851562 C 17.890625 22.636719 17.539062 22.636719 17.320312 22.851562 Z M 17.320312 22.851562 "/>
<path style=" stroke:none;fill-rule:nonzero;fill:rgb(92.941176%,41.176471%,36.078431%);fill-opacity:1;" d="M 10.355469 20.3125 L 13.28125 17.378906 L 13.28125 27.113281 C 13.28125 27.421875 13.53125 27.667969 13.835938 27.667969 C 14.140625 27.667969 14.386719 27.421875 14.386719 27.113281 L 14.386719 17.378906 L 17.316406 20.3125 C 17.53125 20.527344 17.886719 20.527344 18.097656 20.3125 C 18.320312 20.097656 18.320312 19.746094 18.097656 19.527344 C 13.996094 15.433594 14.226562 15.628906 14.09375 15.554688 C 13.9375 15.46875 13.753906 15.46875 13.597656 15.539062 C 13.472656 15.601562 13.597656 15.492188 9.570312 19.523438 C 9.355469 19.738281 9.355469 20.085938 9.570312 20.304688 C 9.785156 20.519531 10.136719 20.519531 10.355469 20.304688 Z M 10.355469 20.3125 "/>
</g>
</svg>
