<?xml version="1.0" encoding="UTF-8"?>
<svg xmlns="http://www.w3.org/2000/svg" xmlns:xlink="http://www.w3.org/1999/xlink" width="28px" height="28px" viewBox="0 0 28 28" version="1.1">
<g id="surface1">
<path style=" stroke:none;fill-rule:nonzero;fill:rgb(92.941176%,41.176471%,36.078431%);fill-opacity:1;" d="M 26.5625 26.558594 L 23.796875 26.558594 C 23.796875 25.800781 23.796875 8.460938 23.796875 7.742188 L 24.902344 7.742188 C 25.210938 7.742188 25.457031 7.496094 25.457031 7.195312 L 25.457031 3.875 C 25.457031 3.566406 25.210938 3.320312 24.902344 3.320312 L 2.769531 3.320312 C 2.464844 3.320312 2.214844 3.566406 2.214844 3.875 L 2.214844 7.195312 C 2.214844 7.496094 2.464844 7.742188 2.769531 7.742188 L 3.875 7.742188 L 3.875 26.558594 L 1.105469 26.558594 L 1.105469 1.101562 L 26.5625 1.101562 Z M 4.984375 13.28125 L 4.984375 11.070312 L 22.6875 11.070312 L 22.6875 13.28125 Z M 22.6875 7.742188 L 22.6875 9.957031 L 4.984375 9.957031 L 4.984375 7.742188 Z M 3.320312 6.636719 L 3.320312 4.425781 L 24.347656 4.425781 L 24.347656 6.636719 C 23.445312 6.636719 3.894531 6.636719 3.320312 6.636719 Z M 27.117188 0 L 0.554688 0 C 0.25 0 0 0.25 0 0.550781 L 0 27.109375 C 0 27.417969 0.25 27.664062 0.554688 27.664062 L 4.429688 27.664062 C 4.734375 27.664062 4.984375 27.417969 4.984375 27.109375 L 4.984375 14.382812 L 22.6875 14.382812 L 22.6875 27.109375 C 22.6875 27.417969 22.9375 27.664062 23.242188 27.664062 L 27.117188 27.664062 C 27.421875 27.664062 27.671875 27.417969 27.671875 27.109375 L 27.671875 0.550781 C 27.671875 0.25 27.421875 0 27.117188 0 Z M 27.117188 0 "/>
<path style=" stroke:none;fill-rule:nonzero;fill:rgb(92.941176%,41.176471%,36.078431%);fill-opacity:1;" d="M 17.316406 22.847656 L 14.386719 25.777344 L 14.386719 16.046875 C 14.386719 15.742188 14.136719 15.492188 13.832031 15.492188 C 13.53125 15.492188 13.28125 15.742188 13.28125 16.046875 L 13.28125 25.777344 L 10.351562 22.847656 C 10.136719 22.632812 9.785156 22.632812 9.570312 22.847656 C 9.351562 23.0625 9.351562 23.417969 9.570312 23.632812 C 13.667969 27.726562 13.441406 27.53125 13.574219 27.597656 C 13.730469 27.683594 13.914062 27.6875 14.070312 27.613281 C 14.191406 27.554688 14.070312 27.660156 18.097656 23.632812 C 18.3125 23.414062 18.3125 23.0625 18.097656 22.847656 C 17.882812 22.632812 17.53125 22.632812 17.316406 22.847656 Z M 17.316406 22.847656 "/>
</g>
</svg>
