<?xml version="1.0" encoding="UTF-8"?>
<svg xmlns="http://www.w3.org/2000/svg" xmlns:xlink="http://www.w3.org/1999/xlink" width="28px" height="28px" viewBox="0 0 28 28" version="1.1">
<g id="surface1">
<path style=" stroke:none;fill-rule:nonzero;fill:rgb(92.941176%,41.176471%,36.078431%);fill-opacity:1;" d="M 26.5625 26.5625 L 23.796875 26.5625 C 23.796875 25.804688 23.796875 8.460938 23.796875 7.746094 L 24.902344 7.746094 C 25.210938 7.746094 25.457031 7.496094 25.457031 7.195312 L 25.457031 3.875 C 25.457031 3.570312 25.210938 3.320312 24.902344 3.320312 L 2.769531 3.320312 C 2.464844 3.320312 2.214844 3.570312 2.214844 3.875 L 2.214844 7.195312 C 2.214844 7.5 2.460938 7.746094 2.769531 7.746094 L 3.875 7.746094 L 3.875 26.5625 L 1.105469 26.5625 L 1.105469 1.101562 L 26.5625 1.101562 Z M 4.980469 13.28125 L 4.980469 11.070312 L 22.6875 11.070312 L 22.6875 13.28125 Z M 22.6875 7.746094 L 22.6875 9.960938 L 4.980469 9.960938 L 4.980469 7.746094 Z M 3.320312 6.636719 L 3.320312 4.425781 L 24.347656 4.425781 L 24.347656 6.636719 C 23.445312 6.636719 3.890625 6.636719 3.320312 6.636719 Z M 27.113281 0 L 0.550781 0 C 0.246094 0 -0.00390625 0.25 -0.00390625 0.550781 L -0.00390625 27.113281 C -0.00390625 27.421875 0.242188 27.667969 0.550781 27.667969 L 4.421875 27.667969 C 4.730469 27.667969 4.976562 27.421875 4.976562 27.113281 L 4.976562 14.386719 L 22.6875 14.386719 L 22.6875 27.113281 C 22.6875 27.421875 22.933594 27.667969 23.242188 27.667969 L 27.113281 27.667969 C 27.421875 27.667969 27.667969 27.421875 27.667969 27.113281 L 27.667969 0.550781 C 27.667969 0.246094 27.421875 0 27.113281 0 Z M 27.113281 0 "/>
<path style=" stroke:none;fill-rule:nonzero;fill:rgb(92.941176%,41.176471%,36.078431%);fill-opacity:1;" d="M 10.351562 20.3125 L 13.28125 17.382812 L 13.28125 27.113281 C 13.28125 27.421875 13.527344 27.667969 13.835938 27.667969 C 14.140625 27.667969 14.386719 27.421875 14.386719 27.113281 L 14.386719 17.382812 L 17.316406 20.3125 C 17.53125 20.527344 17.882812 20.527344 18.097656 20.3125 C 18.316406 20.09375 18.316406 19.746094 18.097656 19.527344 C 13.996094 15.4375 14.226562 15.628906 14.097656 15.558594 C 13.9375 15.476562 13.757812 15.472656 13.601562 15.542969 C 13.472656 15.601562 13.601562 15.496094 9.570312 19.527344 C 9.355469 19.746094 9.355469 20.09375 9.570312 20.3125 C 9.789062 20.527344 10.136719 20.527344 10.355469 20.3125 Z M 10.351562 20.3125 "/>
</g>
</svg>
