<?xml version="1.0" encoding="UTF-8"?>
<svg xmlns="http://www.w3.org/2000/svg" xmlns:xlink="http://www.w3.org/1999/xlink" width="28px" height="28px" viewBox="0 0 28 28" version="1.1">
<g id="surface1">
<path style=" stroke:none;fill-rule:nonzero;fill:rgb(92.941176%,41.176471%,36.078431%);fill-opacity:1;" d="M 26.5625 26.5625 L 23.796875 26.5625 C 23.796875 25.804688 23.796875 8.460938 23.796875 7.746094 L 24.90625 7.746094 C 25.210938 7.746094 25.457031 7.496094 25.457031 7.195312 L 25.457031 3.875 C 25.457031 3.566406 25.210938 3.320312 24.90625 3.320312 L 2.769531 3.320312 C 2.460938 3.320312 2.214844 3.566406 2.214844 3.875 L 2.214844 7.195312 C 2.214844 7.496094 2.460938 7.746094 2.769531 7.746094 L 3.875 7.746094 L 3.875 26.5625 L 1.105469 26.5625 L 1.105469 1.101562 L 26.5625 1.101562 Z M 4.980469 13.28125 L 4.980469 11.070312 L 22.691406 11.070312 L 22.691406 13.28125 Z M 22.691406 7.746094 L 22.691406 9.960938 L 4.980469 9.960938 L 4.980469 7.746094 Z M 3.320312 6.636719 L 3.320312 4.425781 L 24.351562 4.425781 L 24.351562 6.636719 C 23.449219 6.636719 3.890625 6.636719 3.320312 6.636719 Z M 27.117188 0 L 0.550781 0 C 0.246094 0 0 0.25 0 0.550781 L 0 27.117188 C 0 27.421875 0.246094 27.667969 0.550781 27.667969 L 4.425781 27.667969 C 4.734375 27.667969 4.980469 27.421875 4.980469 27.117188 L 4.980469 14.386719 L 22.6875 14.386719 L 22.6875 27.117188 C 22.6875 27.421875 22.9375 27.667969 23.242188 27.667969 L 27.117188 27.667969 C 27.421875 27.667969 27.667969 27.421875 27.667969 27.117188 L 27.667969 0.550781 C 27.667969 0.25 27.421875 0 27.117188 0 Z M 27.117188 0 "/>
</g>
</svg>
