<?xml version="1.0" encoding="UTF-8"?>
<svg xmlns="http://www.w3.org/2000/svg" xmlns:xlink="http://www.w3.org/1999/xlink" width="28px" height="28px" viewBox="0 0 28 28" version="1.1">
<g id="surface1">
<path style=" stroke:none;fill-rule:nonzero;fill:rgb(92.941176%,41.176471%,36.078431%);fill-opacity:1;" d="M 27.144531 0 L 0.554688 0 C 0.25 0 0 0.25 0 0.554688 L 0 27.144531 C 0 27.449219 0.25 27.695312 0.554688 27.695312 L 4.421875 27.695312 C 4.726562 27.695312 4.976562 27.449219 4.976562 27.144531 L 4.976562 14.402344 L 22.691406 14.402344 L 22.691406 27.144531 C 22.691406 27.449219 22.941406 27.695312 23.246094 27.695312 L 27.117188 27.695312 C 27.417969 27.695312 27.667969 27.449219 27.667969 27.144531 L 27.667969 0.554688 C 27.695312 0.25 27.449219 0 27.144531 0 Z M 3.316406 6.632812 L 3.316406 4.421875 L 24.351562 4.421875 L 24.351562 6.632812 C 23.46875 6.632812 3.898438 6.632812 3.316406 6.632812 Z M 22.691406 7.738281 L 22.691406 9.949219 L 4.976562 9.949219 L 4.976562 7.738281 Z M 4.976562 13.296875 L 4.976562 11.082031 L 22.691406 11.082031 L 22.691406 13.296875 Z M 26.589844 26.589844 L 23.828125 26.589844 C 23.828125 25.84375 23.828125 8.484375 23.828125 7.765625 L 24.933594 7.765625 C 25.234375 7.765625 25.484375 7.519531 25.484375 7.214844 L 25.484375 3.898438 C 25.484375 3.59375 25.238281 3.34375 24.933594 3.34375 L 2.765625 3.34375 C 2.460938 3.34375 2.210938 3.59375 2.210938 3.898438 L 2.210938 7.214844 C 2.210938 7.519531 2.460938 7.765625 2.765625 7.765625 L 3.871094 7.765625 L 3.871094 26.589844 L 1.105469 26.589844 L 1.105469 1.105469 L 26.589844 1.105469 Z M 26.589844 26.589844 Z M 26.589844 26.589844 "/>
<path style=" stroke:none;fill-rule:nonzero;fill:rgb(92.941176%,41.176471%,36.078431%);fill-opacity:1;" d="M 16.917969 22.25 C 16.804688 22.195312 16.75 22.085938 16.75 21.972656 L 16.75 21.089844 C 16.75 20.289062 16.417969 19.515625 15.839844 18.960938 C 15.367188 18.519531 14.789062 18.269531 14.179688 18.1875 L 14.179688 17.855469 C 14.179688 17.691406 14.042969 17.523438 13.847656 17.523438 C 13.683594 17.523438 13.515625 17.664062 13.515625 17.855469 L 13.515625 18.1875 C 12.023438 18.382812 10.917969 19.652344 10.917969 21.171875 L 10.917969 21.972656 C 10.917969 22.085938 10.835938 22.195312 10.753906 22.25 C 10.394531 22.5 10.199219 22.941406 10.28125 23.382812 C 10.394531 23.9375 10.863281 24.324219 11.441406 24.324219 L 12.851562 24.324219 C 12.851562 24.847656 13.296875 25.289062 13.820312 25.289062 C 14.347656 25.289062 14.789062 24.847656 14.789062 24.324219 L 16.226562 24.324219 C 16.777344 24.324219 17.273438 23.9375 17.386719 23.382812 C 17.46875 22.941406 17.273438 22.5 16.914062 22.25 Z M 13.847656 24.628906 C 13.683594 24.628906 13.515625 24.488281 13.515625 24.296875 L 14.152344 24.296875 C 14.179688 24.488281 14.015625 24.628906 13.847656 24.628906 Z M 16.75 23.273438 C 16.695312 23.523438 16.472656 23.6875 16.253906 23.660156 L 11.441406 23.660156 C 11.195312 23.660156 10.972656 23.496094 10.917969 23.273438 C 10.890625 23.078125 10.972656 22.886719 11.113281 22.777344 C 11.386719 22.582031 11.554688 22.277344 11.554688 21.972656 L 11.554688 21.171875 C 11.527344 19.957031 12.464844 18.933594 13.683594 18.824219 C 13.738281 18.824219 13.792969 18.824219 13.820312 18.824219 C 15.0625 18.824219 16.085938 19.847656 16.085938 21.089844 L 16.085938 21.976562 C 16.085938 22.308594 16.253906 22.609375 16.527344 22.777344 C 16.695312 22.886719 16.777344 23.082031 16.75 23.273438 Z M 16.75 23.273438 Z M 16.75 23.273438 "/>
<path style=" stroke:none;fill-rule:nonzero;fill:rgb(92.941176%,41.568627%,36.078431%);fill-opacity:1;" d="M 16.542969 21.972656 L 16.957031 21.972656 L 16.957031 21.984375 L 16.960938 21.988281 L 16.960938 22.003906 L 16.964844 22.007812 L 16.964844 22.015625 L 16.96875 22.023438 L 16.972656 22.027344 L 16.972656 22.03125 L 16.976562 22.035156 L 16.976562 22.039062 L 16.984375 22.046875 L 16.984375 22.050781 L 16.988281 22.050781 L 16.992188 22.054688 L 16.996094 22.054688 L 16.996094 22.058594 L 17 22.058594 L 17.003906 22.0625 L 17.007812 22.0625 L 17.007812 22.066406 L 16.824219 22.4375 L 16.804688 22.425781 L 16.773438 22.410156 L 16.726562 22.375 L 16.675781 22.324219 L 16.664062 22.308594 L 16.652344 22.296875 L 16.640625 22.28125 L 16.632812 22.269531 L 16.621094 22.253906 L 16.609375 22.234375 L 16.605469 22.21875 L 16.597656 22.207031 L 16.589844 22.1875 L 16.582031 22.175781 L 16.574219 22.160156 L 16.570312 22.140625 L 16.5625 22.125 L 16.558594 22.109375 L 16.554688 22.089844 L 16.550781 22.074219 L 16.550781 22.058594 L 16.546875 22.042969 L 16.546875 22.027344 L 16.542969 22.007812 Z M 16.957031 21.089844 L 16.957031 21.972656 L 16.542969 21.972656 L 16.542969 21.089844 Z M 15.695312 19.113281 L 15.980469 18.808594 L 15.980469 18.8125 L 16.039062 18.867188 L 16.203125 19.042969 L 16.253906 19.105469 L 16.300781 19.167969 L 16.351562 19.230469 L 16.398438 19.296875 L 16.484375 19.429688 L 16.523438 19.496094 L 16.601562 19.636719 L 16.671875 19.777344 L 16.734375 19.925781 L 16.761719 19.996094 L 16.789062 20.070312 L 16.8125 20.148438 L 16.835938 20.222656 L 16.855469 20.300781 L 16.875 20.375 L 16.894531 20.453125 L 16.910156 20.53125 L 16.921875 20.609375 L 16.933594 20.691406 L 16.949219 20.847656 L 16.953125 20.929688 L 16.957031 21.007812 L 16.957031 21.089844 L 16.542969 21.089844 L 16.542969 21.019531 L 16.539062 20.949219 L 16.535156 20.882812 L 16.53125 20.8125 L 16.523438 20.742188 L 16.511719 20.675781 L 16.5 20.605469 L 16.488281 20.539062 L 16.457031 20.40625 L 16.417969 20.273438 L 16.394531 20.207031 L 16.375 20.140625 L 16.347656 20.078125 L 16.324219 20.015625 L 16.292969 19.953125 L 16.265625 19.890625 L 16.234375 19.828125 L 16.199219 19.765625 L 16.167969 19.707031 L 16.132812 19.648438 L 16.054688 19.53125 L 16.015625 19.476562 L 15.972656 19.421875 L 15.933594 19.367188 L 15.886719 19.3125 L 15.839844 19.261719 L 15.796875 19.210938 L 15.746094 19.160156 Z M 15.980469 18.808594 L 15.980469 18.8125 L 15.976562 18.808594 L 15.980469 18.8125 Z M 13.972656 18.1875 L 14.386719 18.1875 L 14.207031 17.980469 L 14.269531 17.992188 L 14.328125 18 L 14.386719 18.011719 L 14.449219 18.023438 L 14.507812 18.035156 L 14.566406 18.050781 L 14.628906 18.066406 L 14.746094 18.097656 L 14.863281 18.136719 L 14.917969 18.15625 L 15.035156 18.203125 L 15.089844 18.226562 L 15.148438 18.25 L 15.3125 18.332031 L 15.476562 18.425781 L 15.527344 18.457031 L 15.582031 18.492188 L 15.632812 18.527344 L 15.683594 18.566406 L 15.734375 18.601562 L 15.785156 18.640625 L 15.835938 18.683594 L 15.882812 18.722656 L 15.933594 18.765625 L 15.980469 18.808594 L 15.695312 19.113281 L 15.65625 19.074219 L 15.613281 19.035156 L 15.527344 18.964844 L 15.484375 18.933594 L 15.441406 18.898438 L 15.394531 18.867188 L 15.351562 18.835938 L 15.304688 18.808594 L 15.261719 18.777344 L 15.167969 18.722656 L 15.117188 18.699219 L 15.070312 18.671875 L 15.023438 18.648438 L 14.976562 18.628906 L 14.925781 18.605469 L 14.878906 18.585938 L 14.726562 18.527344 L 14.523438 18.464844 L 14.46875 18.453125 L 14.417969 18.441406 L 14.363281 18.429688 L 14.3125 18.417969 L 14.257812 18.40625 L 14.207031 18.398438 L 14.152344 18.390625 Z M 14.152344 18.394531 L 13.972656 18.367188 L 13.972656 18.1875 Z M 14.386719 17.855469 L 14.386719 18.1875 L 13.972656 18.1875 L 13.972656 17.855469 Z M 13.847656 17.730469 L 13.847656 17.316406 L 13.878906 17.316406 L 13.960938 17.328125 L 14.015625 17.34375 L 14.042969 17.355469 L 14.066406 17.363281 L 14.089844 17.375 L 14.117188 17.390625 L 14.136719 17.402344 L 14.160156 17.417969 L 14.199219 17.449219 L 14.21875 17.46875 L 14.238281 17.484375 L 14.269531 17.523438 L 14.285156 17.546875 L 14.300781 17.566406 L 14.3125 17.585938 L 14.347656 17.65625 L 14.371094 17.726562 L 14.375 17.75 L 14.386719 17.832031 L 14.386719 17.855469 L 13.972656 17.855469 L 13.972656 17.84375 L 13.96875 17.835938 L 13.96875 17.828125 L 13.964844 17.824219 L 13.964844 17.8125 L 13.960938 17.808594 L 13.957031 17.800781 L 13.953125 17.796875 L 13.953125 17.789062 L 13.945312 17.785156 L 13.941406 17.777344 L 13.9375 17.773438 L 13.9375 17.769531 L 13.929688 17.765625 L 13.921875 17.757812 L 13.914062 17.753906 L 13.902344 17.742188 L 13.894531 17.742188 L 13.890625 17.738281 L 13.882812 17.738281 L 13.878906 17.734375 L 13.867188 17.734375 L 13.859375 17.730469 Z M 13.722656 17.855469 L 13.308594 17.855469 L 13.308594 17.824219 L 13.320312 17.742188 L 13.335938 17.6875 L 13.347656 17.660156 L 13.355469 17.636719 L 13.378906 17.589844 L 13.410156 17.542969 L 13.441406 17.503906 L 13.460938 17.484375 L 13.476562 17.464844 L 13.515625 17.433594 L 13.539062 17.417969 L 13.554688 17.40625 L 13.578125 17.390625 L 13.648438 17.355469 L 13.695312 17.339844 L 13.722656 17.332031 L 13.742188 17.328125 L 13.824219 17.316406 L 13.847656 17.316406 L 13.847656 17.730469 L 13.835938 17.730469 L 13.828125 17.734375 L 13.816406 17.734375 L 13.8125 17.738281 L 13.804688 17.738281 L 13.800781 17.742188 L 13.792969 17.746094 L 13.789062 17.75 L 13.785156 17.75 L 13.777344 17.757812 L 13.773438 17.757812 L 13.769531 17.761719 L 13.761719 17.765625 L 13.757812 17.773438 L 13.746094 17.785156 L 13.742188 17.792969 L 13.738281 17.796875 L 13.738281 17.800781 L 13.734375 17.808594 L 13.730469 17.8125 L 13.730469 17.820312 L 13.726562 17.824219 L 13.726562 17.84375 L 13.722656 17.851562 Z M 13.308594 18.1875 L 13.308594 17.855469 L 13.722656 17.855469 L 13.722656 18.1875 L 13.542969 18.394531 Z M 13.722656 18.1875 L 13.722656 18.371094 L 13.542969 18.394531 Z M 11.125 21.171875 L 10.710938 21.171875 L 10.714844 21.019531 L 10.726562 20.871094 L 10.742188 20.722656 L 10.765625 20.578125 L 10.796875 20.433594 L 10.832031 20.292969 L 10.875 20.15625 L 10.921875 20.019531 L 10.976562 19.886719 L 11.035156 19.753906 L 11.097656 19.628906 L 11.167969 19.503906 L 11.246094 19.382812 L 11.324219 19.269531 L 11.410156 19.15625 L 11.503906 19.046875 L 11.597656 18.941406 L 11.695312 18.839844 L 11.800781 18.746094 L 11.910156 18.65625 L 12.023438 18.570312 L 12.136719 18.488281 L 12.257812 18.410156 L 12.382812 18.339844 L 12.511719 18.273438 L 12.640625 18.214844 L 12.773438 18.160156 L 12.914062 18.113281 L 13.054688 18.070312 L 13.195312 18.035156 L 13.34375 18.003906 L 13.492188 17.980469 L 13.542969 18.394531 L 13.414062 18.414062 L 13.289062 18.4375 L 13.164062 18.46875 L 12.921875 18.546875 L 12.804688 18.59375 L 12.691406 18.648438 L 12.582031 18.703125 L 12.472656 18.765625 L 12.367188 18.832031 L 12.265625 18.902344 L 12.167969 18.976562 L 12.074219 19.058594 L 11.984375 19.140625 L 11.898438 19.226562 L 11.816406 19.320312 L 11.738281 19.414062 L 11.660156 19.511719 L 11.589844 19.613281 L 11.464844 19.824219 L 11.355469 20.050781 L 11.308594 20.164062 L 11.230469 20.40625 L 11.199219 20.527344 L 11.175781 20.652344 L 11.152344 20.78125 L 11.128906 21.039062 Z M 10.710938 21.972656 L 10.710938 21.171875 L 11.125 21.171875 L 11.125 21.972656 Z M 10.871094 22.421875 L 10.632812 22.078125 L 10.640625 22.078125 L 10.660156 22.058594 L 10.664062 22.058594 L 10.664062 22.054688 L 10.683594 22.035156 L 10.6875 22.027344 L 10.691406 22.023438 L 10.691406 22.019531 L 10.695312 22.015625 L 10.695312 22.011719 L 10.703125 22.003906 L 10.703125 21.996094 L 10.707031 21.992188 L 10.707031 21.984375 L 10.710938 21.980469 L 10.710938 21.972656 L 11.125 21.972656 L 11.125 22.011719 L 11.121094 22.035156 L 11.117188 22.054688 L 11.113281 22.070312 L 11.109375 22.089844 L 11.101562 22.121094 L 11.09375 22.140625 L 11.085938 22.15625 L 11.082031 22.171875 L 11.058594 22.21875 L 11.050781 22.230469 L 11.042969 22.246094 L 11.019531 22.277344 L 11.011719 22.285156 L 11.003906 22.296875 L 10.992188 22.308594 L 10.980469 22.324219 L 10.917969 22.386719 L 10.902344 22.398438 L 10.867188 22.421875 Z M 10.632812 22.078125 L 10.636719 22.078125 L 10.632812 22.082031 Z M 10.484375 23.34375 L 10.078125 23.425781 L 10.078125 23.421875 L 10.070312 23.371094 L 10.0625 23.324219 L 10.058594 23.273438 L 10.058594 23.226562 L 10.054688 23.175781 L 10.058594 23.128906 L 10.058594 23.078125 L 10.066406 23.03125 L 10.070312 22.984375 L 10.078125 22.9375 L 10.113281 22.796875 L 10.128906 22.75 L 10.160156 22.664062 L 10.199219 22.578125 L 10.222656 22.535156 L 10.246094 22.496094 L 10.269531 22.453125 L 10.324219 22.375 L 10.449219 22.234375 L 10.484375 22.199219 L 10.519531 22.167969 L 10.558594 22.136719 L 10.59375 22.109375 L 10.632812 22.078125 L 10.871094 22.421875 L 10.816406 22.460938 L 10.792969 22.480469 L 10.765625 22.503906 L 10.71875 22.550781 L 10.699219 22.574219 L 10.675781 22.601562 L 10.65625 22.628906 L 10.636719 22.652344 L 10.621094 22.679688 L 10.601562 22.707031 L 10.585938 22.738281 L 10.570312 22.765625 L 10.558594 22.792969 L 10.542969 22.824219 L 10.519531 22.886719 L 10.511719 22.917969 L 10.5 22.949219 L 10.492188 22.980469 L 10.488281 23.011719 L 10.480469 23.046875 L 10.472656 23.109375 L 10.472656 23.242188 L 10.480469 23.3125 L 10.488281 23.34375 Z M 10.078125 23.425781 L 10.078125 23.421875 L 10.082031 23.433594 Z M 11.445312 24.117188 L 11.445312 24.53125 L 11.378906 24.53125 L 11.320312 24.527344 L 11.195312 24.511719 L 11.136719 24.5 L 11.019531 24.46875 L 10.964844 24.449219 L 10.90625 24.429688 L 10.851562 24.40625 L 10.699219 24.324219 L 10.648438 24.289062 L 10.601562 24.257812 L 10.554688 24.222656 L 10.46875 24.144531 L 10.425781 24.101562 L 10.386719 24.058594 L 10.351562 24.015625 L 10.316406 23.96875 L 10.28125 23.917969 L 10.25 23.871094 L 10.222656 23.820312 L 10.167969 23.710938 L 10.148438 23.65625 L 10.125 23.601562 L 10.09375 23.484375 L 10.078125 23.421875 L 10.484375 23.34375 L 10.496094 23.386719 L 10.507812 23.425781 L 10.519531 23.46875 L 10.53125 23.507812 L 10.550781 23.546875 L 10.566406 23.585938 L 10.605469 23.65625 L 10.628906 23.691406 L 10.652344 23.722656 L 10.675781 23.757812 L 10.703125 23.789062 L 10.730469 23.816406 L 10.757812 23.847656 L 10.785156 23.875 L 10.816406 23.898438 L 10.847656 23.925781 L 10.882812 23.949219 L 10.917969 23.96875 L 10.953125 23.992188 L 10.988281 24.011719 L 11.023438 24.027344 L 11.101562 24.058594 L 11.140625 24.070312 L 11.183594 24.082031 L 11.222656 24.09375 L 11.308594 24.109375 L 11.351562 24.113281 L 11.398438 24.113281 L 11.441406 24.117188 Z M 12.851562 24.53125 L 11.445312 24.53125 L 11.445312 24.117188 L 12.851562 24.117188 L 13.058594 24.324219 Z M 12.851562 24.117188 L 13.058594 24.117188 L 13.058594 24.324219 Z M 13.820312 25.082031 L 13.820312 25.496094 L 13.761719 25.496094 L 13.703125 25.492188 L 13.644531 25.484375 L 13.527344 25.460938 L 13.472656 25.445312 L 13.417969 25.425781 L 13.367188 25.402344 L 13.3125 25.378906 L 13.261719 25.355469 L 13.121094 25.261719 L 13.078125 25.226562 L 12.992188 25.148438 L 12.953125 25.109375 L 12.882812 25.023438 L 12.847656 24.976562 L 12.820312 24.929688 L 12.789062 24.878906 L 12.742188 24.777344 L 12.71875 24.722656 L 12.699219 24.671875 L 12.683594 24.613281 L 12.671875 24.558594 L 12.660156 24.5 L 12.652344 24.441406 L 12.644531 24.324219 L 13.0625 24.324219 L 13.0625 24.363281 L 13.066406 24.398438 L 13.070312 24.4375 L 13.09375 24.542969 L 13.109375 24.578125 L 13.121094 24.613281 L 13.136719 24.648438 L 13.152344 24.679688 L 13.191406 24.742188 L 13.214844 24.773438 L 13.238281 24.800781 L 13.261719 24.832031 L 13.3125 24.882812 L 13.339844 24.90625 L 13.402344 24.953125 L 13.433594 24.972656 L 13.464844 24.988281 L 13.496094 25.007812 L 13.53125 25.023438 L 13.5625 25.035156 L 13.632812 25.058594 L 13.671875 25.066406 L 13.707031 25.074219 L 13.746094 25.078125 L 13.78125 25.082031 Z M 14.789062 24.117188 L 14.789062 24.53125 L 14.996094 24.324219 L 14.996094 24.382812 L 14.972656 24.558594 L 14.957031 24.613281 L 14.941406 24.671875 L 14.921875 24.722656 L 14.902344 24.777344 L 14.878906 24.828125 L 14.824219 24.929688 L 14.792969 24.976562 L 14.757812 25.023438 L 14.6875 25.109375 L 14.605469 25.191406 L 14.519531 25.261719 L 14.378906 25.355469 L 14.328125 25.378906 L 14.273438 25.402344 L 14.222656 25.425781 L 14.167969 25.445312 L 14.113281 25.460938 L 14.054688 25.472656 L 14 25.484375 L 13.941406 25.492188 L 13.878906 25.496094 L 13.820312 25.5 L 13.820312 25.082031 L 13.859375 25.082031 L 13.894531 25.078125 L 13.933594 25.074219 L 13.96875 25.066406 L 14.007812 25.058594 L 14.042969 25.050781 L 14.078125 25.035156 L 14.113281 25.023438 L 14.175781 24.992188 L 14.210938 24.972656 L 14.242188 24.953125 L 14.273438 24.929688 L 14.355469 24.859375 L 14.378906 24.832031 L 14.40625 24.804688 L 14.429688 24.773438 L 14.449219 24.742188 L 14.46875 24.714844 L 14.488281 24.679688 L 14.519531 24.617188 L 14.535156 24.582031 L 14.558594 24.511719 L 14.566406 24.472656 L 14.570312 24.4375 L 14.578125 24.398438 L 14.578125 24.363281 L 14.582031 24.324219 Z M 14.582031 24.324219 L 14.582031 24.117188 L 14.789062 24.117188 Z M 16.226562 24.53125 L 14.789062 24.53125 L 14.789062 24.117188 L 16.226562 24.117188 Z M 17.183594 23.34375 L 17.589844 23.421875 L 17.589844 23.425781 L 17.558594 23.542969 L 17.519531 23.660156 L 17.496094 23.714844 L 17.46875 23.769531 L 17.441406 23.820312 L 17.378906 23.921875 L 17.34375 23.972656 L 17.308594 24.015625 L 17.269531 24.0625 L 17.230469 24.105469 L 17.1875 24.148438 L 17.144531 24.183594 L 17.101562 24.222656 L 17.007812 24.292969 L 16.957031 24.324219 L 16.804688 24.40625 L 16.75 24.429688 L 16.695312 24.449219 L 16.636719 24.46875 L 16.582031 24.484375 L 16.523438 24.5 L 16.464844 24.511719 L 16.347656 24.527344 L 16.285156 24.53125 L 16.226562 24.53125 L 16.226562 24.117188 L 16.269531 24.117188 L 16.3125 24.113281 L 16.351562 24.109375 L 16.4375 24.09375 L 16.476562 24.085938 L 16.515625 24.070312 L 16.554688 24.058594 L 16.632812 24.027344 L 16.667969 24.011719 L 16.707031 23.992188 L 16.742188 23.96875 L 16.777344 23.949219 L 16.808594 23.925781 L 16.84375 23.898438 L 16.90625 23.84375 L 16.933594 23.816406 L 17.015625 23.722656 L 17.0625 23.652344 L 17.101562 23.582031 L 17.121094 23.542969 L 17.136719 23.507812 L 17.152344 23.464844 L 17.175781 23.386719 L 17.183594 23.34375 L 17.183594 23.347656 Z M 17.589844 23.421875 L 17.589844 23.425781 L 17.585938 23.4375 Z M 16.824219 22.433594 L 17.007812 22.0625 L 17.035156 22.078125 L 17.074219 22.109375 L 17.113281 22.136719 L 17.183594 22.199219 L 17.253906 22.269531 L 17.285156 22.304688 L 17.3125 22.339844 L 17.34375 22.375 L 17.398438 22.453125 L 17.421875 22.496094 L 17.445312 22.535156 L 17.46875 22.578125 L 17.527344 22.707031 L 17.542969 22.753906 L 17.558594 22.796875 L 17.582031 22.890625 L 17.605469 23.03125 L 17.609375 23.078125 L 17.613281 23.128906 L 17.613281 23.226562 L 17.609375 23.273438 L 17.605469 23.324219 L 17.597656 23.371094 L 17.589844 23.421875 L 17.183594 23.34375 L 17.1875 23.3125 L 17.195312 23.242188 L 17.199219 23.210938 L 17.199219 23.144531 L 17.195312 23.109375 L 17.1875 23.046875 L 17.183594 23.011719 L 17.160156 22.917969 L 17.125 22.824219 L 17.113281 22.796875 L 17.082031 22.734375 L 17.050781 22.679688 L 17.011719 22.625 L 16.992188 22.601562 L 16.96875 22.574219 L 16.949219 22.550781 L 16.878906 22.480469 L 16.851562 22.460938 L 16.824219 22.4375 L 16.796875 22.417969 Z M 17.007812 22.0625 L 17.023438 22.070312 L 17.035156 22.078125 Z M 16.917969 22.25 L 16.824219 22.433594 Z M 17.007812 22.0625 L 17.023438 22.070312 L 17.035156 22.078125 Z M 13.515625 24.089844 L 13.515625 24.503906 L 13.722656 24.296875 L 13.722656 24.300781 L 13.726562 24.308594 L 13.726562 24.328125 L 13.730469 24.332031 L 13.730469 24.335938 L 13.734375 24.34375 L 13.738281 24.347656 L 13.738281 24.355469 L 13.746094 24.363281 L 13.75 24.371094 L 13.761719 24.382812 L 13.769531 24.386719 L 13.777344 24.394531 L 13.785156 24.398438 L 13.792969 24.40625 L 13.800781 24.410156 L 13.804688 24.410156 L 13.808594 24.414062 L 13.816406 24.414062 L 13.820312 24.417969 L 13.84375 24.417969 L 13.847656 24.421875 L 13.847656 24.835938 L 13.824219 24.835938 L 13.742188 24.824219 L 13.722656 24.820312 L 13.695312 24.8125 L 13.671875 24.804688 L 13.648438 24.792969 L 13.625 24.785156 L 13.578125 24.761719 L 13.558594 24.746094 L 13.539062 24.734375 L 13.515625 24.71875 L 13.496094 24.703125 L 13.441406 24.648438 L 13.425781 24.628906 L 13.410156 24.605469 L 13.394531 24.585938 L 13.382812 24.5625 L 13.367188 24.539062 L 13.355469 24.515625 L 13.347656 24.492188 L 13.335938 24.464844 L 13.328125 24.4375 L 13.320312 24.40625 L 13.316406 24.382812 L 13.3125 24.355469 L 13.3125 24.324219 L 13.308594 24.296875 Z M 13.308594 24.296875 L 13.308594 24.089844 L 13.515625 24.089844 Z M 14.152344 24.503906 L 13.515625 24.503906 L 13.515625 24.089844 L 14.152344 24.089844 L 14.359375 24.265625 Z M 14.152344 24.089844 L 14.332031 24.089844 L 14.359375 24.265625 Z M 13.847656 24.835938 L 13.847656 24.417969 L 13.875 24.417969 L 13.878906 24.414062 L 13.886719 24.414062 L 13.890625 24.410156 L 13.894531 24.410156 L 13.898438 24.40625 L 13.90625 24.402344 L 13.910156 24.402344 L 13.933594 24.378906 L 13.9375 24.371094 L 13.941406 24.367188 L 13.941406 24.363281 L 13.945312 24.359375 L 13.945312 24.347656 L 13.949219 24.34375 L 13.949219 24.332031 L 13.945312 24.324219 L 14.355469 24.265625 L 14.363281 24.328125 L 14.363281 24.355469 L 14.355469 24.417969 L 14.351562 24.441406 L 14.34375 24.472656 L 14.335938 24.5 L 14.324219 24.527344 L 14.300781 24.574219 L 14.285156 24.597656 L 14.269531 24.617188 L 14.253906 24.640625 L 14.234375 24.664062 L 14.199219 24.699219 L 14.140625 24.746094 L 14.117188 24.761719 L 14.09375 24.773438 L 14.074219 24.785156 L 14.046875 24.792969 L 14.023438 24.804688 L 14 24.8125 L 13.976562 24.816406 L 13.953125 24.824219 L 13.898438 24.832031 L 13.871094 24.832031 Z M 13.847656 24.628906 L 13.847656 24.835938 Z M 16.253906 23.867188 L 16.253906 23.453125 L 16.289062 23.453125 L 16.300781 23.457031 L 16.308594 23.457031 L 16.316406 23.453125 L 16.339844 23.453125 L 16.347656 23.449219 L 16.359375 23.449219 L 16.367188 23.445312 L 16.390625 23.4375 L 16.398438 23.429688 L 16.410156 23.425781 L 16.417969 23.417969 L 16.429688 23.414062 L 16.4375 23.40625 L 16.449219 23.398438 L 16.457031 23.390625 L 16.464844 23.378906 L 16.476562 23.371094 L 16.484375 23.359375 L 16.492188 23.351562 L 16.515625 23.316406 L 16.519531 23.304688 L 16.527344 23.292969 L 16.53125 23.28125 L 16.539062 23.265625 L 16.546875 23.242188 L 16.550781 23.226562 L 16.953125 23.316406 L 16.9375 23.378906 L 16.914062 23.441406 L 16.902344 23.46875 L 16.886719 23.5 L 16.871094 23.527344 L 16.855469 23.550781 L 16.839844 23.578125 L 16.820312 23.605469 L 16.78125 23.652344 L 16.757812 23.671875 L 16.714844 23.714844 L 16.691406 23.734375 L 16.667969 23.75 L 16.640625 23.769531 L 16.613281 23.785156 L 16.585938 23.796875 L 16.5625 23.8125 L 16.53125 23.824219 L 16.503906 23.832031 L 16.476562 23.84375 L 16.414062 23.859375 L 16.382812 23.863281 L 16.355469 23.867188 L 16.257812 23.867188 L 16.226562 23.863281 Z M 16.253906 23.453125 L 16.277344 23.453125 Z M 11.445312 23.453125 L 16.253906 23.453125 L 16.253906 23.867188 L 11.445312 23.867188 Z M 10.714844 23.300781 L 11.125 23.242188 L 11.121094 23.222656 L 11.121094 23.234375 L 11.125 23.242188 L 11.128906 23.253906 L 11.136719 23.265625 L 11.140625 23.277344 L 11.144531 23.285156 L 11.167969 23.320312 L 11.175781 23.328125 L 11.183594 23.339844 L 11.210938 23.367188 L 11.222656 23.375 L 11.230469 23.382812 L 11.265625 23.40625 L 11.277344 23.410156 L 11.292969 23.417969 L 11.304688 23.425781 L 11.328125 23.433594 L 11.359375 23.441406 L 11.371094 23.445312 L 11.386719 23.449219 L 11.414062 23.449219 L 11.429688 23.453125 L 11.441406 23.453125 L 11.441406 23.867188 L 11.410156 23.867188 L 11.285156 23.851562 L 11.257812 23.84375 L 11.226562 23.835938 L 11.199219 23.828125 L 11.167969 23.816406 L 11.113281 23.792969 L 11.085938 23.777344 L 11.058594 23.765625 L 11.035156 23.75 L 11.007812 23.734375 L 10.984375 23.714844 L 10.960938 23.699219 L 10.914062 23.660156 L 10.894531 23.636719 L 10.875 23.617188 L 10.835938 23.570312 L 10.816406 23.542969 L 10.785156 23.496094 L 10.769531 23.464844 L 10.734375 23.382812 L 10.726562 23.351562 L 10.71875 23.324219 Z M 10.71875 23.324219 L 10.714844 23.3125 L 10.714844 23.300781 Z M 10.992188 22.605469 L 11.230469 22.945312 L 11.242188 22.9375 L 11.234375 22.945312 L 11.226562 22.949219 L 11.210938 22.964844 L 11.207031 22.972656 L 11.199219 22.976562 L 11.191406 22.988281 L 11.1875 22.996094 L 11.179688 23.003906 L 11.175781 23.011719 L 11.167969 23.019531 L 11.164062 23.03125 L 11.160156 23.039062 L 11.152344 23.050781 L 11.148438 23.058594 L 11.144531 23.070312 L 11.140625 23.078125 L 11.132812 23.101562 L 11.132812 23.109375 L 11.125 23.132812 L 11.125 23.144531 L 11.121094 23.15625 L 11.121094 23.234375 L 11.125 23.242188 L 10.714844 23.300781 L 10.710938 23.277344 L 10.707031 23.25 L 10.707031 23.152344 L 10.710938 23.125 L 10.714844 23.101562 L 10.714844 23.078125 L 10.71875 23.054688 L 10.726562 23.03125 L 10.730469 23.007812 L 10.753906 22.9375 L 10.761719 22.917969 L 10.769531 22.894531 L 10.78125 22.875 L 10.792969 22.851562 L 10.800781 22.832031 L 10.8125 22.808594 L 10.828125 22.789062 L 10.839844 22.769531 L 10.855469 22.75 L 10.867188 22.730469 L 10.882812 22.714844 L 10.914062 22.675781 L 10.929688 22.664062 L 10.964844 22.628906 L 10.984375 22.613281 L 10.996094 22.605469 Z M 10.980469 22.613281 L 10.984375 22.609375 L 10.992188 22.605469 L 10.984375 22.613281 Z M 11.347656 21.972656 L 11.761719 21.972656 L 11.761719 22.007812 L 11.757812 22.042969 L 11.757812 22.078125 L 11.753906 22.113281 L 11.738281 22.183594 L 11.734375 22.21875 L 11.722656 22.253906 L 11.714844 22.289062 L 11.703125 22.320312 L 11.691406 22.355469 L 11.667969 22.417969 L 11.652344 22.453125 L 11.636719 22.484375 L 11.617188 22.515625 L 11.601562 22.546875 L 11.582031 22.574219 L 11.542969 22.636719 L 11.519531 22.664062 L 11.5 22.695312 L 11.453125 22.75 L 11.375 22.828125 L 11.292969 22.898438 L 11.230469 22.945312 L 10.992188 22.605469 L 11.015625 22.589844 L 11.074219 22.542969 L 11.144531 22.472656 L 11.191406 22.414062 L 11.203125 22.394531 L 11.21875 22.375 L 11.242188 22.335938 L 11.253906 22.3125 L 11.277344 22.273438 L 11.285156 22.253906 L 11.292969 22.230469 L 11.304688 22.210938 L 11.308594 22.1875 L 11.316406 22.167969 L 11.324219 22.144531 L 11.328125 22.125 L 11.332031 22.101562 L 11.339844 22.078125 L 11.339844 22.058594 L 11.34375 22.039062 L 11.34375 22.015625 L 11.347656 21.992188 Z M 11.761719 21.171875 L 11.761719 21.972656 L 11.347656 21.972656 L 11.347656 21.171875 L 11.761719 21.167969 Z M 11.761719 21.167969 L 11.761719 21.171875 Z M 13.683594 18.617188 L 13.683594 19.03125 L 13.703125 19.027344 L 13.597656 19.042969 L 13.496094 19.058594 L 13.398438 19.078125 L 13.296875 19.105469 L 13.109375 19.167969 L 13.015625 19.207031 L 12.925781 19.25 L 12.839844 19.296875 L 12.753906 19.347656 L 12.671875 19.402344 L 12.59375 19.457031 L 12.515625 19.519531 L 12.441406 19.585938 L 12.371094 19.652344 L 12.304688 19.722656 L 12.179688 19.871094 L 12.125 19.949219 L 12.070312 20.03125 L 11.976562 20.203125 L 11.933594 20.292969 L 11.863281 20.472656 L 11.835938 20.570312 L 11.8125 20.664062 L 11.792969 20.761719 L 11.777344 20.863281 L 11.765625 20.960938 L 11.761719 21.0625 L 11.761719 21.167969 L 11.347656 21.175781 L 11.347656 21.054688 L 11.351562 20.929688 L 11.367188 20.808594 L 11.382812 20.691406 L 11.40625 20.574219 L 11.4375 20.457031 L 11.46875 20.34375 L 11.554688 20.125 L 11.605469 20.019531 L 11.660156 19.914062 L 11.71875 19.816406 L 11.78125 19.71875 L 11.847656 19.621094 L 11.921875 19.53125 L 11.996094 19.445312 L 12.078125 19.359375 L 12.164062 19.277344 L 12.25 19.203125 L 12.339844 19.128906 L 12.535156 18.996094 L 12.738281 18.878906 L 12.847656 18.828125 L 13.066406 18.742188 L 13.183594 18.707031 L 13.300781 18.675781 L 13.417969 18.648438 L 13.539062 18.628906 L 13.664062 18.617188 Z M 13.664062 18.617188 L 13.683594 18.617188 Z M 13.820312 18.617188 L 13.820312 19.03125 L 13.683594 19.03125 L 13.683594 18.617188 Z M 16.292969 21.089844 L 15.878906 21.089844 L 15.878906 20.984375 L 15.871094 20.878906 L 15.855469 20.777344 L 15.835938 20.675781 L 15.816406 20.578125 L 15.753906 20.382812 L 15.71875 20.292969 L 15.675781 20.199219 L 15.628906 20.113281 L 15.578125 20.023438 L 15.527344 19.941406 L 15.46875 19.859375 L 15.40625 19.78125 L 15.339844 19.707031 L 15.273438 19.636719 L 15.203125 19.566406 L 15.046875 19.441406 L 14.96875 19.382812 L 14.882812 19.328125 L 14.796875 19.28125 L 14.707031 19.234375 L 14.617188 19.191406 L 14.429688 19.121094 L 14.332031 19.09375 L 14.234375 19.070312 L 14.03125 19.039062 L 13.925781 19.03125 L 13.820312 19.027344 L 13.820312 18.613281 L 13.945312 18.617188 L 14.070312 18.628906 L 14.195312 18.644531 L 14.316406 18.664062 L 14.4375 18.691406 L 14.554688 18.726562 L 14.667969 18.765625 L 14.78125 18.808594 L 14.890625 18.859375 L 14.996094 18.914062 L 15.101562 18.976562 L 15.199219 19.039062 L 15.296875 19.109375 L 15.390625 19.183594 L 15.480469 19.261719 L 15.566406 19.34375 L 15.648438 19.429688 L 15.726562 19.519531 L 15.800781 19.613281 L 15.933594 19.808594 L 15.992188 19.914062 L 16.046875 20.019531 L 16.097656 20.128906 L 16.183594 20.355469 L 16.214844 20.472656 L 16.242188 20.59375 L 16.265625 20.714844 L 16.28125 20.839844 L 16.289062 20.964844 Z M 15.878906 21.972656 L 15.878906 21.089844 L 16.292969 21.089844 L 16.292969 21.972656 Z M 16.644531 22.601562 L 16.414062 22.949219 L 16.421875 22.953125 L 16.359375 22.914062 L 16.332031 22.890625 L 16.300781 22.867188 L 16.246094 22.820312 L 16.167969 22.742188 L 16.121094 22.6875 L 16.101562 22.65625 L 16.078125 22.628906 L 16.058594 22.597656 L 16.042969 22.566406 L 16.023438 22.535156 L 16.007812 22.503906 L 15.988281 22.472656 L 15.976562 22.4375 L 15.960938 22.40625 L 15.925781 22.300781 L 15.894531 22.160156 L 15.886719 22.082031 L 15.878906 22.011719 L 15.878906 21.972656 L 16.292969 21.972656 L 16.296875 21.996094 L 16.296875 22.046875 L 16.316406 22.164062 L 16.324219 22.1875 L 16.332031 22.207031 L 16.347656 22.253906 L 16.355469 22.273438 L 16.367188 22.296875 L 16.375 22.316406 L 16.421875 22.394531 L 16.4375 22.414062 L 16.449219 22.429688 L 16.464844 22.449219 L 16.476562 22.464844 L 16.511719 22.5 L 16.527344 22.511719 L 16.542969 22.527344 L 16.5625 22.542969 L 16.578125 22.558594 L 16.617188 22.582031 L 16.636719 22.597656 Z M 16.636719 22.597656 L 16.640625 22.601562 L 16.644531 22.601562 Z M 16.953125 23.316406 L 16.550781 23.226562 L 16.546875 23.242188 L 16.546875 23.222656 L 16.550781 23.210938 L 16.550781 23.1875 L 16.546875 23.179688 L 16.546875 23.148438 L 16.539062 23.125 L 16.539062 23.117188 L 16.535156 23.105469 L 16.53125 23.097656 L 16.527344 23.085938 L 16.523438 23.078125 L 16.519531 23.066406 L 16.515625 23.058594 L 16.511719 23.046875 L 16.503906 23.039062 L 16.5 23.03125 L 16.492188 23.019531 L 16.484375 23.011719 L 16.480469 23.003906 L 16.457031 22.980469 L 16.449219 22.976562 L 16.425781 22.953125 L 16.414062 22.949219 L 16.644531 22.601562 L 16.667969 22.617188 L 16.707031 22.648438 L 16.726562 22.667969 L 16.746094 22.683594 L 16.765625 22.703125 L 16.78125 22.722656 L 16.796875 22.738281 L 16.816406 22.761719 L 16.828125 22.78125 L 16.84375 22.800781 L 16.855469 22.820312 L 16.871094 22.84375 L 16.882812 22.863281 L 16.894531 22.886719 L 16.902344 22.910156 L 16.914062 22.933594 L 16.945312 23.027344 L 16.953125 23.074219 L 16.957031 23.101562 L 16.964844 23.148438 L 16.964844 23.25 L 16.960938 23.277344 L 16.957031 23.300781 Z M 16.957031 23.300781 L 16.957031 23.308594 L 16.953125 23.316406 Z M 16.75 23.273438 L 16.953125 23.316406 Z M 16.957031 23.300781 L 16.957031 23.308594 L 16.953125 23.316406 Z M 16.957031 23.300781 "/>
</g>
</svg>
