<?xml version="1.0" encoding="UTF-8"?>
<svg xmlns="http://www.w3.org/2000/svg" xmlns:xlink="http://www.w3.org/1999/xlink" width="28px" height="28px" viewBox="0 0 28 28" version="1.1">
<g id="surface1">
<path style=" stroke:none;fill-rule:nonzero;fill:rgb(92.941176%,41.176471%,36.078431%);fill-opacity:1;" d="M 26.566406 26.5625 L 23.796875 26.5625 C 23.796875 25.804688 23.796875 8.460938 23.796875 7.746094 L 24.90625 7.746094 C 25.210938 7.746094 25.457031 7.496094 25.457031 7.195312 L 25.457031 3.875 C 25.457031 3.566406 25.210938 3.316406 24.90625 3.316406 L 2.769531 3.316406 C 2.464844 3.316406 2.214844 3.566406 2.214844 3.875 L 2.214844 7.195312 C 2.214844 7.496094 2.464844 7.746094 2.769531 7.746094 L 3.875 7.746094 L 3.875 26.5625 L 1.109375 26.5625 L 1.109375 1.101562 L 26.566406 1.101562 Z M 4.980469 13.28125 L 4.980469 11.066406 L 22.691406 11.066406 L 22.691406 13.28125 Z M 22.691406 7.746094 L 22.691406 9.960938 L 4.980469 9.960938 L 4.980469 7.746094 Z M 3.320312 6.636719 L 3.320312 4.425781 L 24.351562 4.425781 L 24.351562 6.636719 C 23.449219 6.636719 3.890625 6.636719 3.320312 6.636719 Z M 27.117188 0 L 0.554688 0 C 0.25 0 0 0.25 0 0.550781 L 0 27.113281 C 0 27.421875 0.25 27.667969 0.554688 27.667969 L 4.425781 27.667969 C 4.734375 27.667969 4.980469 27.421875 4.980469 27.113281 L 4.980469 13.28125 L 22.691406 13.28125 L 22.691406 27.113281 C 22.691406 27.421875 22.941406 27.667969 23.246094 27.667969 L 27.117188 27.667969 C 27.421875 27.667969 27.671875 27.421875 27.671875 27.113281 L 27.671875 0.550781 C 27.671875 0.25 27.421875 0 27.117188 0 Z M 27.117188 0 "/>
<path style=" stroke:none;fill-rule:nonzero;fill:rgb(92.941176%,41.176471%,36.078431%);fill-opacity:1;" d="M 6.089844 20.058594 L 7.5625 19.320312 L 8.878906 16.691406 C 9.082031 16.289062 9.496094 16.035156 9.949219 16.035156 L 17.722656 16.035156 C 18.175781 16.035156 18.589844 16.289062 18.792969 16.695312 L 20.109375 19.324219 L 21.582031 20.0625 C 21.714844 20.128906 21.800781 20.265625 21.800781 20.414062 L 21.800781 25.992188 C 21.800781 26.433594 21.445312 26.789062 21.003906 26.789062 L 19.410156 26.789062 C 18.972656 26.789062 18.613281 26.433594 18.613281 25.992188 L 18.613281 24.796875 L 9.058594 24.796875 L 9.058594 25.992188 C 9.058594 26.433594 8.703125 26.789062 8.261719 26.789062 L 6.667969 26.789062 C 6.226562 26.789062 5.871094 26.433594 5.871094 25.992188 L 5.871094 20.414062 C 5.867188 20.261719 5.953125 20.125 6.089844 20.058594 Z M 18.078125 17.050781 C 18.011719 16.917969 17.875 16.832031 17.722656 16.832031 L 9.945312 16.832031 C 9.796875 16.832031 9.65625 16.917969 9.589844 17.050781 L 8.503906 19.222656 L 19.164062 19.222656 Z M 19.410156 25.992188 L 21.003906 25.992188 L 21.003906 24.796875 L 19.410156 24.796875 Z M 6.667969 25.992188 L 8.261719 25.992188 L 8.261719 24.796875 L 6.667969 24.796875 Z M 6.667969 24 L 21.003906 24 L 21.003906 20.664062 L 19.714844 20.019531 L 7.957031 20.019531 L 6.667969 20.664062 Z M 6.667969 24 "/>
<path style=" stroke:none;fill-rule:nonzero;fill:rgb(92.941176%,41.176471%,36.078431%);fill-opacity:1;" d="M 18.214844 20.816406 L 19.410156 20.816406 C 19.851562 20.816406 20.207031 21.171875 20.207031 21.613281 L 20.207031 22.410156 C 20.207031 22.847656 19.851562 23.207031 19.410156 23.207031 L 18.214844 23.207031 C 17.773438 23.207031 17.417969 22.847656 17.417969 22.410156 L 17.417969 21.613281 C 17.417969 21.171875 17.773438 20.816406 18.214844 20.816406 Z M 18.214844 22.410156 L 19.410156 22.410156 L 19.410156 21.613281 L 18.214844 21.613281 Z M 18.214844 22.410156 "/>
<path style=" stroke:none;fill-rule:nonzero;fill:rgb(92.941176%,41.176471%,36.078431%);fill-opacity:1;" d="M 8.257812 20.816406 L 9.453125 20.816406 C 9.894531 20.816406 10.25 21.171875 10.25 21.613281 L 10.25 22.410156 C 10.25 22.847656 9.894531 23.207031 9.453125 23.207031 L 8.257812 23.207031 C 7.820312 23.207031 7.460938 22.847656 7.460938 22.410156 L 7.460938 21.613281 C 7.460938 21.171875 7.820312 20.816406 8.257812 20.816406 Z M 8.257812 22.410156 L 9.453125 22.410156 L 9.453125 21.613281 L 8.257812 21.613281 Z M 8.257812 22.410156 "/>
<path style=" stroke:none;fill-rule:nonzero;fill:rgb(92.941176%,41.176471%,36.078431%);fill-opacity:1;" d="M 11.84375 20.816406 L 15.828125 20.816406 C 16.265625 20.816406 16.625 21.171875 16.625 21.613281 L 16.625 22.410156 C 16.625 22.847656 16.265625 23.207031 15.828125 23.207031 L 11.84375 23.207031 C 11.402344 23.207031 11.046875 22.847656 11.046875 22.410156 L 11.046875 21.613281 C 11.046875 21.171875 11.402344 20.816406 11.84375 20.816406 Z M 11.84375 22.410156 L 15.828125 22.410156 L 15.828125 21.613281 L 11.84375 21.613281 Z M 11.84375 22.410156 "/>
</g>
</svg>
