<?xml version="1.0" encoding="UTF-8"?>
<svg xmlns="http://www.w3.org/2000/svg" xmlns:xlink="http://www.w3.org/1999/xlink" width="28px" height="28px" viewBox="0 0 28 14" version="1.1">
<g id="surface1">
<path style=" stroke:none;fill-rule:nonzero;fill:rgb(92.941176%,41.176471%,36.078431%);fill-opacity:1;" d="M 13.71875 13.417969 L 12.289062 13.417969 C 12.289062 13.035156 12.289062 4.273438 12.289062 3.914062 L 12.859375 3.914062 C 13.015625 3.914062 13.144531 3.785156 13.144531 3.632812 L 13.144531 1.957031 C 13.144531 1.800781 13.019531 1.675781 12.859375 1.675781 L 1.429688 1.675781 C 1.273438 1.675781 1.144531 1.804688 1.144531 1.957031 L 1.144531 3.632812 C 1.144531 3.785156 1.273438 3.914062 1.429688 3.914062 L 2 3.914062 L 2 13.417969 L 0.570312 13.417969 L 0.570312 0.558594 L 13.71875 0.558594 Z M 2.570312 6.707031 L 2.570312 5.589844 L 11.714844 5.589844 L 11.714844 6.707031 Z M 11.714844 3.914062 L 11.714844 5.03125 L 2.570312 5.03125 L 2.570312 3.914062 Z M 1.714844 3.351562 L 1.714844 2.234375 L 12.574219 2.234375 L 12.574219 3.351562 C 12.109375 3.351562 2.011719 3.351562 1.714844 3.351562 Z M 14.003906 0 L 0.285156 0 C 0.128906 0 0 0.125 0 0.277344 L 0 13.699219 C 0 13.851562 0.128906 13.976562 0.285156 13.976562 L 2.285156 13.976562 C 2.445312 13.976562 2.574219 13.851562 2.574219 13.699219 L 2.574219 6.710938 L 11.71875 6.710938 L 11.71875 13.699219 C 11.71875 13.851562 11.84375 13.976562 12.003906 13.976562 L 14.003906 13.976562 C 14.164062 13.976562 14.289062 13.851562 14.289062 13.699219 L 14.289062 0.277344 C 14.289062 0.125 14.164062 0 14.003906 0 Z M 14.003906 0 "/>
<path style=" stroke:none;fill-rule:nonzero;fill:rgb(92.941176%,41.176471%,36.078431%);fill-opacity:1;" d="M 27.429688 13.417969 L 26 13.417969 C 26 13.035156 26 4.273438 26 3.914062 L 26.574219 3.914062 C 26.730469 3.914062 26.859375 3.785156 26.859375 3.632812 L 26.859375 1.957031 C 26.859375 1.800781 26.730469 1.675781 26.574219 1.675781 L 15.144531 1.675781 C 14.984375 1.675781 14.855469 1.804688 14.855469 1.957031 L 14.855469 3.632812 C 14.855469 3.785156 14.984375 3.914062 15.144531 3.914062 L 15.714844 3.914062 L 15.714844 13.417969 L 14.285156 13.417969 L 14.285156 0.558594 L 27.429688 0.558594 Z M 16.285156 6.707031 L 16.285156 5.589844 L 25.429688 5.589844 L 25.429688 6.707031 Z M 25.429688 3.914062 L 25.429688 5.03125 L 16.285156 5.03125 L 16.285156 3.914062 Z M 15.425781 3.351562 L 15.425781 2.234375 L 26.285156 2.234375 L 26.285156 3.351562 C 25.820312 3.351562 15.722656 3.351562 15.425781 3.351562 Z M 27.714844 0 L 13.996094 0 C 13.839844 0 13.710938 0.125 13.710938 0.277344 L 13.710938 13.699219 C 13.710938 13.851562 13.839844 13.976562 13.996094 13.976562 L 15.996094 13.976562 C 16.15625 13.976562 16.285156 13.851562 16.285156 13.699219 L 16.285156 6.710938 L 25.429688 6.710938 L 25.429688 13.699219 C 25.429688 13.851562 25.554688 13.976562 25.714844 13.976562 L 27.714844 13.976562 C 27.875 13.976562 28 13.851562 28 13.699219 L 28 0.277344 C 28 0.125 27.875 0 27.714844 0 Z M 27.714844 0 "/>
</g>
</svg>
