<?xml version="1.0" encoding="UTF-8"?>
<svg xmlns="http://www.w3.org/2000/svg" xmlns:xlink="http://www.w3.org/1999/xlink" width="28px" height="28px" viewBox="0 0 28 28" version="1.1">
<g id="surface1">
<path style=" stroke:none;fill-rule:nonzero;fill:rgb(92.941176%,41.176471%,36.078431%);fill-opacity:1;" d="M 13.71875 20.417969 L 12.289062 20.417969 C 12.289062 20.035156 12.289062 11.273438 12.289062 10.914062 L 12.859375 10.914062 C 13.015625 10.914062 13.144531 10.785156 13.144531 10.632812 L 13.144531 8.957031 C 13.144531 8.800781 13.019531 8.675781 12.859375 8.675781 L 1.429688 8.675781 C 1.273438 8.675781 1.144531 8.804688 1.144531 8.957031 L 1.144531 10.632812 C 1.144531 10.785156 1.273438 10.914062 1.429688 10.914062 L 2 10.914062 L 2 20.417969 L 0.570312 20.417969 L 0.570312 7.558594 L 13.71875 7.558594 Z M 2.570312 13.707031 L 2.570312 12.589844 L 11.714844 12.589844 L 11.714844 13.707031 Z M 11.714844 10.914062 L 11.714844 12.03125 L 2.570312 12.03125 L 2.570312 10.914062 Z M 1.714844 10.351562 L 1.714844 9.234375 L 12.574219 9.234375 L 12.574219 10.351562 C 12.109375 10.351562 2.011719 10.351562 1.714844 10.351562 Z M 14.003906 7 L 0.285156 7 C 0.128906 7 0 7.125 0 7.277344 L 0 20.699219 C 0 20.851562 0.128906 20.976562 0.285156 20.976562 L 2.285156 20.976562 C 2.445312 20.976562 2.574219 20.851562 2.574219 20.699219 L 2.574219 13.710938 L 11.71875 13.710938 L 11.71875 20.699219 C 11.71875 20.851562 11.84375 20.976562 12.003906 20.976562 L 14.003906 20.976562 C 14.164062 20.976562 14.289062 20.851562 14.289062 20.699219 L 14.289062 7.277344 C 14.289062 7.125 14.164062 7 14.003906 7 Z M 14.003906 7 "/>
<path style=" stroke:none;fill-rule:nonzero;fill:rgb(92.941176%,41.176471%,36.078431%);fill-opacity:1;" d="M 27.429688 20.417969 L 26 20.417969 C 26 20.035156 26 11.273438 26 10.914062 L 26.574219 10.914062 C 26.730469 10.914062 26.859375 10.785156 26.859375 10.632812 L 26.859375 8.957031 C 26.859375 8.800781 26.730469 8.675781 26.574219 8.675781 L 15.144531 8.675781 C 14.984375 8.675781 14.855469 8.804688 14.855469 8.957031 L 14.855469 10.632812 C 14.855469 10.785156 14.984375 10.914062 15.144531 10.914062 L 15.714844 10.914062 L 15.714844 20.417969 L 14.285156 20.417969 L 14.285156 7.558594 L 27.429688 7.558594 Z M 16.285156 13.707031 L 16.285156 12.589844 L 25.429688 12.589844 L 25.429688 13.707031 Z M 25.429688 10.914062 L 25.429688 12.03125 L 16.285156 12.03125 L 16.285156 10.914062 Z M 15.425781 10.351562 L 15.425781 9.234375 L 26.285156 9.234375 L 26.285156 10.351562 C 25.820312 10.351562 15.722656 10.351562 15.425781 10.351562 Z M 27.714844 7 L 13.996094 7 C 13.839844 7 13.710938 7.125 13.710938 7.277344 L 13.710938 20.699219 C 13.710938 20.851562 13.839844 20.976562 13.996094 20.976562 L 15.996094 20.976562 C 16.15625 20.976562 16.285156 20.851562 16.285156 20.699219 L 16.285156 13.710938 L 25.429688 13.710938 L 25.429688 20.699219 C 25.429688 20.851562 25.554688 20.976562 25.714844 20.976562 L 27.714844 20.976562 C 27.875 20.976562 28 20.851562 28 20.699219 L 28 7.277344 C 28 7.125 27.875 7 27.714844 7 Z M 27.714844 7 "/>
</g>
</svg>
