<?xml version="1.0" encoding="UTF-8"?>
<svg xmlns="http://www.w3.org/2000/svg" xmlns:xlink="http://www.w3.org/1999/xlink" width="28px" height="28px" viewBox="0 0 28 18" version="1.1">
<g id="surface1">
<path style=" stroke:none;fill-rule:nonzero;fill:rgb(92.941176%,41.176471%,36.078431%);fill-opacity:1;" d="M 2.472656 17.84375 L 0.5 17.84375 C 0.226562 17.84375 0.00390625 17.632812 0.00390625 17.375 L 0.00390625 0.472656 C 0.00390625 0.214844 0.226562 0.00390625 0.5 0.00390625 L 2.472656 0.00390625 C 2.742188 0.00390625 2.964844 0.214844 2.964844 0.472656 L 2.964844 17.375 C 2.964844 17.632812 2.742188 17.84375 2.472656 17.84375 Z M 0.992188 16.902344 L 1.980469 16.902344 L 1.980469 0.941406 L 0.992188 0.941406 Z M 0.992188 16.902344 "/>
<path style=" stroke:none;fill-rule:nonzero;fill:rgb(92.941176%,41.176471%,36.078431%);fill-opacity:1;" d="M 27.175781 17.84375 L 25.203125 17.84375 C 24.929688 17.84375 24.710938 17.632812 24.710938 17.375 L 24.710938 0.472656 C 24.710938 0.210938 24.929688 0.00390625 25.203125 0.00390625 L 27.175781 0.00390625 C 27.449219 0.00390625 27.667969 0.214844 27.667969 0.472656 L 27.667969 17.375 C 27.667969 17.636719 27.449219 17.84375 27.175781 17.84375 Z M 25.695312 16.914062 L 26.730469 16.914062 L 26.730469 0.941406 L 25.695312 0.941406 Z M 25.695312 16.914062 "/>
<path style=" stroke:none;fill-rule:nonzero;fill:rgb(92.941176%,41.176471%,36.078431%);fill-opacity:1;" d="M 10.308594 17.371094 C 10.308594 17.632812 9.816406 17.582031 9.816406 17.839844 L 2.472656 17.839844 C 2.199219 17.839844 1.980469 17.628906 1.980469 17.371094 L 1.980469 2.347656 C 1.980469 2.089844 2.203125 1.878906 2.472656 1.878906 L 7.265625 1.878906 C 7.285156 1.878906 7.304688 1.878906 7.320312 1.878906 C 11.699219 1.878906 5.925781 1.878906 10.132812 1.878906 C 10.148438 1.878906 10.207031 1.878906 10.191406 1.878906 L 9.816406 1.878906 C 10.089844 1.878906 10.308594 2.089844 10.308594 2.347656 Z M 2.964844 16.902344 L 9.320312 16.902344 L 9.320312 2.816406 L 10.1875 2.816406 C 10.164062 2.816406 10.144531 2.816406 10.128906 2.816406 C 5.832031 2.816406 11.75 2.816406 7.324219 2.816406 C 7.304688 2.816406 7.285156 2.816406 7.265625 2.816406 L 2.96875 2.816406 L 2.96875 16.902344 Z M 2.964844 16.902344 "/>
<path style=" stroke:none;fill-rule:nonzero;fill:rgb(92.941176%,41.176471%,36.078431%);fill-opacity:1;" d="M 6.234375 17.71875 C 5.960938 17.71875 5.742188 17.507812 5.742188 17.25 L 5.742188 2.46875 C 5.742188 2.210938 5.960938 2 6.234375 2 C 6.503906 2 6.726562 2.210938 6.726562 2.46875 L 6.726562 17.25 C 6.726562 17.511719 6.503906 17.71875 6.234375 17.71875 Z M 6.234375 17.71875 "/>
<path style=" stroke:none;fill-rule:nonzero;fill:rgb(92.941176%,41.176471%,36.078431%);fill-opacity:1;" d="M 19.460938 9.117188 L 13.351562 9.117188 C 13.082031 9.117188 12.859375 9.328125 12.859375 9.585938 C 12.859375 9.84375 13.082031 10.054688 13.351562 10.054688 L 19.460938 10.054688 L 21.085938 9.796875 C 21.160156 9.65625 21.160156 9.515625 21.085938 9.375 Z M 19.460938 9.117188 "/>
<path style=" stroke:none;fill-rule:nonzero;fill:rgb(92.941176%,41.176471%,36.078431%);fill-opacity:1;" d="M 17.140625 12.53125 L 14.535156 10.054688 L 20.640625 10.054688 C 20.914062 10.054688 21.132812 9.84375 21.132812 9.585938 C 21.132812 9.328125 20.914062 9.117188 20.640625 9.117188 L 14.535156 9.117188 L 17.140625 6.640625 C 17.335938 6.453125 17.335938 6.148438 17.140625 5.984375 C 16.941406 5.796875 16.621094 5.796875 16.449219 5.984375 C 12.808594 9.46875 12.980469 9.257812 12.90625 9.375 C 12.832031 9.515625 12.832031 9.65625 12.90625 9.796875 C 12.957031 9.914062 12.859375 9.796875 16.449219 13.210938 C 16.648438 13.394531 16.96875 13.394531 17.140625 13.210938 C 17.335938 13.023438 17.335938 12.71875 17.140625 12.53125 Z M 17.140625 12.53125 Z M 17.140625 12.53125 "/>
</g>
</svg>
