<?xml version="1.0" encoding="UTF-8"?>
<svg xmlns="http://www.w3.org/2000/svg" xmlns:xlink="http://www.w3.org/1999/xlink" width="28px" height="28px" viewBox="0 0 28 18" version="1.1">
<g id="surface1">
<path style=" stroke:none;fill-rule:nonzero;fill:rgb(92.941176%,41.176471%,36.078431%);fill-opacity:1;" d="M 2.46875 17.84375 L 0.496094 17.84375 C 0.222656 17.84375 0 17.636719 0 17.371094 L 0 0.464844 C 0 0.207031 0.222656 -0.00390625 0.496094 -0.00390625 L 2.46875 -0.00390625 C 2.742188 -0.00390625 2.964844 0.203125 2.964844 0.464844 L 2.964844 17.371094 C 2.964844 17.628906 2.742188 17.84375 2.46875 17.84375 Z M 0.988281 16.90625 L 1.972656 16.90625 L 1.972656 0.9375 L 0.988281 0.9375 Z M 0.988281 16.90625 "/>
<path style=" stroke:none;fill-rule:nonzero;fill:rgb(92.941176%,41.176471%,36.078431%);fill-opacity:1;" d="M 27.175781 17.84375 L 25.199219 17.84375 C 24.929688 17.84375 24.703125 17.636719 24.703125 17.371094 L 24.703125 0.464844 C 24.703125 0.207031 24.929688 -0.00390625 25.199219 -0.00390625 L 27.175781 -0.00390625 C 27.445312 -0.00390625 27.671875 0.203125 27.671875 0.464844 L 27.671875 17.371094 C 27.671875 17.628906 27.445312 17.84375 27.175781 17.84375 Z M 25.691406 16.914062 L 26.726562 16.914062 L 26.726562 0.9375 L 25.691406 0.9375 Z M 25.691406 16.914062 "/>
<path style=" stroke:none;fill-rule:nonzero;fill:rgb(92.941176%,41.176471%,36.078431%);fill-opacity:1;" d="M 10.308594 17.371094 C 10.308594 17.628906 9.8125 17.585938 9.8125 17.84375 L 2.46875 17.84375 C 2.199219 17.84375 1.972656 17.636719 1.972656 17.371094 L 1.972656 2.347656 C 1.972656 2.089844 2.199219 1.875 2.46875 1.875 L 7.261719 1.875 C 7.277344 1.875 7.300781 1.875 7.316406 1.875 C 11.695312 1.875 5.917969 1.875 10.128906 1.875 C 10.144531 1.875 10.203125 1.875 10.179688 1.875 L 9.808594 1.875 C 10.078125 1.875 10.304688 2.089844 10.304688 2.347656 L 10.304688 17.371094 Z M 2.964844 16.898438 L 9.320312 16.898438 L 9.320312 2.8125 L 10.1875 2.8125 C 10.164062 2.8125 10.148438 2.8125 10.128906 2.8125 C 5.828125 2.8125 11.75 2.8125 7.320312 2.8125 C 7.300781 2.8125 7.285156 2.8125 7.261719 2.8125 L 2.960938 2.8125 L 2.960938 16.898438 Z M 2.964844 16.898438 "/>
<path style=" stroke:none;fill-rule:nonzero;fill:rgb(92.941176%,41.176471%,36.078431%);fill-opacity:1;" d="M 6.230469 17.722656 C 5.960938 17.722656 5.734375 17.507812 5.734375 17.25 L 5.734375 2.46875 C 5.734375 2.210938 5.960938 1.996094 6.230469 1.996094 C 6.503906 1.996094 6.726562 2.210938 6.726562 2.46875 L 6.726562 17.25 C 6.726562 17.507812 6.503906 17.722656 6.230469 17.722656 Z M 6.230469 17.722656 "/>
<path style=" stroke:none;fill-rule:nonzero;fill:rgb(92.941176%,41.176471%,36.078431%);fill-opacity:1;" d="M 19.460938 9.117188 L 13.351562 9.117188 C 13.078125 9.117188 12.859375 9.324219 12.859375 9.582031 C 12.859375 9.84375 13.082031 10.050781 13.351562 10.050781 L 19.460938 10.050781 L 21.082031 9.792969 C 21.15625 9.648438 21.15625 9.511719 21.082031 9.371094 L 19.460938 9.113281 Z M 19.460938 9.117188 "/>
<path style=" stroke:none;fill-rule:nonzero;fill:rgb(92.941176%,41.176471%,36.078431%);fill-opacity:1;" d="M 16.84375 6.664062 L 19.453125 9.140625 L 13.34375 9.140625 C 13.074219 9.140625 12.855469 9.355469 12.855469 9.609375 C 12.855469 9.867188 13.078125 10.074219 13.34375 10.074219 L 19.453125 10.074219 L 16.84375 12.554688 C 16.648438 12.742188 16.648438 13.046875 16.84375 13.207031 C 17.042969 13.398438 17.363281 13.398438 17.53125 13.207031 C 21.175781 9.726562 21 9.933594 21.074219 9.816406 C 21.152344 9.675781 21.152344 9.539062 21.074219 9.394531 C 21.027344 9.277344 21.125 9.394531 17.53125 5.984375 C 17.335938 5.796875 17.015625 5.796875 16.84375 5.984375 C 16.648438 6.171875 16.648438 6.476562 16.84375 6.664062 Z M 16.84375 6.664062 Z M 16.84375 6.664062 "/>
</g>
</svg>
