<?xml version="1.0" encoding="UTF-8"?>
<svg xmlns="http://www.w3.org/2000/svg" xmlns:xlink="http://www.w3.org/1999/xlink" width="28px" height="28px" viewBox="0 0 28 28" version="1.1">
<g id="surface1">
<path style=" stroke:none;fill-rule:nonzero;fill:rgb(92.941176%,41.176471%,36.078431%);fill-opacity:1;" d="M 2.484375 27.839844 L 0.496094 27.839844 C 0.222656 27.839844 0 27.617188 0 27.34375 L 0 9.449219 C 0 9.175781 0.222656 8.953125 0.496094 8.953125 L 2.484375 8.953125 C 2.757812 8.953125 2.980469 9.175781 2.980469 9.449219 L 2.980469 27.34375 C 2.980469 27.617188 2.757812 27.839844 2.484375 27.839844 Z M 0.996094 26.84375 L 1.992188 26.84375 L 1.992188 9.945312 L 0.996094 9.945312 Z M 0.996094 26.84375 "/>
<path style=" stroke:none;fill-rule:nonzero;fill:rgb(92.941176%,41.176471%,36.078431%);fill-opacity:1;" d="M 27.339844 27.839844 L 25.347656 27.839844 C 25.074219 27.839844 24.851562 27.617188 24.851562 27.34375 L 24.851562 9.449219 C 24.851562 9.175781 25.074219 8.953125 25.347656 8.953125 L 27.339844 8.953125 C 27.613281 8.953125 27.835938 9.175781 27.835938 9.449219 L 27.835938 27.34375 C 27.835938 27.617188 27.613281 27.839844 27.339844 27.839844 Z M 25.847656 26.347656 L 26.890625 26.347656 L 26.890625 9.945312 L 25.847656 9.945312 Z M 25.847656 26.347656 "/>
<path style=" stroke:none;fill-rule:nonzero;fill:rgb(92.941176%,41.176471%,36.078431%);fill-opacity:1;" d="M 25.355469 27.839844 L 2.484375 27.839844 C 2.214844 27.839844 1.992188 27.617188 1.992188 27.34375 L 1.992188 11.441406 C 1.992188 11.167969 2.214844 10.945312 2.484375 10.945312 L 7.308594 10.945312 C 7.324219 10.945312 7.347656 10.945312 7.363281 10.945312 C 7.875 10.945312 8.375 10.789062 8.796875 10.5 C 10.917969 8.976562 13.796875 8.960938 13.921875 8.960938 C 14.042969 8.960938 16.921875 8.976562 19.042969 10.5 C 19.464844 10.789062 19.964844 10.945312 20.476562 10.945312 C 20.492188 10.945312 20.515625 10.945312 20.53125 10.945312 L 25.355469 10.945312 C 25.625 10.945312 25.847656 11.167969 25.847656 11.441406 L 25.847656 27.34375 C 25.847656 27.617188 25.625 27.839844 25.355469 27.839844 Z M 2.988281 26.84375 L 24.859375 26.84375 L 24.859375 11.929688 L 20.53125 11.929688 C 20.515625 11.929688 20.492188 11.929688 20.476562 11.929688 C 19.757812 11.929688 19.054688 11.707031 18.464844 11.292969 C 16.613281 9.960938 13.949219 9.9375 13.921875 9.9375 C 13.890625 9.9375 11.234375 9.960938 9.382812 11.292969 C 8.792969 11.707031 8.09375 11.929688 7.367188 11.929688 C 7.351562 11.929688 7.328125 11.929688 7.3125 11.929688 L 2.988281 11.929688 Z M 2.988281 26.84375 "/>
<path style=" stroke:none;fill-rule:nonzero;fill:rgb(92.941176%,41.176471%,36.078431%);fill-opacity:1;" d="M 13.921875 27.839844 C 13.648438 27.839844 13.425781 27.617188 13.425781 27.34375 L 13.425781 9.449219 C 13.425781 9.175781 13.648438 8.953125 13.921875 8.953125 C 14.191406 8.953125 14.414062 9.175781 14.414062 9.449219 L 14.414062 27.34375 C 14.414062 27.617188 14.191406 27.839844 13.921875 27.839844 Z M 13.921875 27.839844 "/>
<path style=" stroke:none;fill-rule:nonzero;fill:rgb(92.941176%,41.176471%,36.078431%);fill-opacity:1;" d="M 15.328125 7.542969 C 15.195312 7.542969 15.070312 7.492188 14.976562 7.394531 C 14.699219 7.117188 14.316406 6.960938 13.921875 6.960938 C 13.523438 6.960938 13.148438 7.117188 12.863281 7.394531 C 12.769531 7.484375 12.648438 7.535156 12.519531 7.535156 C 12.246094 7.535156 12.023438 7.3125 12.023438 7.039062 C 12.023438 6.914062 12.074219 6.789062 12.164062 6.695312 C 12.628906 6.230469 13.265625 5.96875 13.921875 5.96875 C 14.578125 5.96875 15.210938 6.230469 15.675781 6.695312 C 15.773438 6.789062 15.820312 6.914062 15.820312 7.046875 C 15.820312 7.320312 15.597656 7.542969 15.328125 7.542969 Z M 15.328125 7.542969 "/>
<path style=" stroke:none;fill-rule:nonzero;fill:rgb(92.941176%,41.176471%,36.078431%);fill-opacity:1;" d="M 16.730469 6.132812 C 16.59375 6.132812 16.472656 6.085938 16.378906 5.988281 C 15.726562 5.339844 14.835938 4.972656 13.921875 4.972656 C 12.996094 4.972656 12.113281 5.339844 11.460938 5.988281 C 11.367188 6.085938 11.238281 6.140625 11.105469 6.140625 C 10.832031 6.140625 10.609375 5.917969 10.609375 5.644531 C 10.609375 5.511719 10.667969 5.382812 10.761719 5.289062 C 11.601562 4.449219 12.742188 3.976562 13.925781 3.976562 C 15.109375 3.976562 16.25 4.449219 17.089844 5.289062 C 17.183594 5.382812 17.234375 5.511719 17.234375 5.640625 C 17.234375 5.910156 17.011719 6.132812 16.738281 6.132812 Z M 16.730469 6.132812 "/>
<path style=" stroke:none;fill-rule:nonzero;fill:rgb(92.941176%,41.176471%,36.078431%);fill-opacity:1;" d="M 18.136719 4.726562 C 18.003906 4.726562 17.878906 4.675781 17.785156 4.582031 C 16.761719 3.558594 15.367188 2.988281 13.921875 2.988281 C 12.46875 2.988281 11.078125 3.558594 10.054688 4.589844 C 9.960938 4.675781 9.839844 4.726562 9.710938 4.726562 C 9.4375 4.726562 9.214844 4.503906 9.214844 4.230469 C 9.214844 4.105469 9.265625 3.976562 9.355469 3.886719 C 10.566406 2.679688 12.210938 1.996094 13.925781 1.996094 C 15.636719 1.996094 17.285156 2.675781 18.496094 3.886719 C 18.589844 3.980469 18.640625 4.105469 18.640625 4.238281 C 18.640625 4.511719 18.417969 4.734375 18.148438 4.734375 Z M 18.136719 4.726562 "/>
<path style=" stroke:none;fill-rule:nonzero;fill:rgb(92.941176%,41.176471%,36.078431%);fill-opacity:1;" d="M 19.542969 3.324219 C 19.410156 3.324219 19.285156 3.277344 19.191406 3.179688 C 17.796875 1.785156 15.894531 0.996094 13.921875 0.996094 C 11.945312 0.996094 10.042969 1.78125 8.648438 3.179688 C 8.554688 3.28125 8.425781 3.335938 8.285156 3.335938 C 8.015625 3.335938 7.792969 3.113281 7.792969 2.84375 C 7.792969 2.703125 7.847656 2.574219 7.949219 2.480469 C 9.53125 0.894531 11.683594 0.00390625 13.921875 0.00390625 C 16.160156 0.00390625 18.3125 0.894531 19.894531 2.480469 C 19.988281 2.574219 20.039062 2.703125 20.039062 2.832031 C 20.039062 3.101562 19.816406 3.324219 19.542969 3.324219 Z M 19.542969 3.324219 "/>
<path style=" stroke:none;fill-rule:nonzero;fill:rgb(92.941176%,41.176471%,36.078431%);fill-opacity:1;" d="M 16.40625 20.875 C 16.132812 20.875 15.910156 20.65625 15.910156 20.382812 L 15.910156 18.390625 C 15.910156 18.117188 16.132812 17.894531 16.40625 17.894531 C 16.679688 17.894531 16.902344 18.117188 16.902344 18.390625 L 16.902344 20.382812 C 16.902344 20.65625 16.679688 20.875 16.40625 20.875 Z M 16.40625 20.875 "/>
<path style=" stroke:none;fill-rule:nonzero;fill:rgb(92.941176%,41.176471%,36.078431%);fill-opacity:1;" d="M 11.433594 20.875 C 11.160156 20.875 10.9375 20.65625 10.9375 20.382812 L 10.9375 18.390625 C 10.9375 18.117188 11.160156 17.894531 11.433594 17.894531 C 11.707031 17.894531 11.929688 18.117188 11.929688 18.390625 L 11.929688 20.382812 C 11.929688 20.65625 11.707031 20.875 11.433594 20.875 Z M 11.433594 20.875 "/>
</g>
</svg>
