<?xml version="1.0" encoding="UTF-8"?>
<svg xmlns="http://www.w3.org/2000/svg" xmlns:xlink="http://www.w3.org/1999/xlink" width="28px" height="28px" viewBox="0 0 28 19" version="1.1">
<g id="surface1">
<path style=" stroke:none;fill-rule:nonzero;fill:rgb(92.941176%,41.176471%,36.078431%);fill-opacity:1;" d="M 2.488281 18.695312 L 0.5 18.695312 C 0.222656 18.695312 0.00390625 18.472656 0.00390625 18.203125 L 0.00390625 0.496094 C 0.00390625 0.222656 0.226562 0.00390625 0.5 0.00390625 L 2.488281 0.00390625 C 2.765625 0.00390625 2.984375 0.226562 2.984375 0.496094 L 2.984375 18.203125 C 2.984375 18.476562 2.761719 18.695312 2.488281 18.695312 Z M 0.996094 17.710938 L 1.992188 17.710938 L 1.992188 0.980469 L 0.996094 0.980469 Z M 0.996094 17.710938 "/>
<path style=" stroke:none;fill-rule:nonzero;fill:rgb(92.941176%,41.176471%,36.078431%);fill-opacity:1;" d="M 27.34375 18.695312 L 25.355469 18.695312 C 25.078125 18.695312 24.859375 18.472656 24.859375 18.203125 L 24.859375 0.496094 C 24.859375 0.222656 25.085938 0.00390625 25.355469 0.00390625 L 27.34375 0.00390625 C 27.621094 0.00390625 27.839844 0.226562 27.839844 0.496094 L 27.839844 18.203125 C 27.839844 18.476562 27.617188 18.695312 27.34375 18.695312 Z M 25.851562 17.21875 L 26.890625 17.21875 L 26.890625 0.980469 L 25.851562 0.980469 Z M 25.851562 17.21875 "/>
<path style=" stroke:none;fill-rule:nonzero;fill:rgb(92.941176%,41.176471%,36.078431%);fill-opacity:1;" d="M 25.355469 18.695312 L 2.488281 18.695312 C 2.210938 18.695312 1.992188 18.472656 1.992188 18.203125 L 1.992188 2.460938 C 1.992188 2.1875 2.214844 1.972656 2.488281 1.972656 L 7.3125 1.972656 C 7.328125 1.972656 7.347656 1.972656 7.367188 1.972656 C 7.882812 1.972656 8.382812 1.820312 8.804688 1.527344 C 10.921875 0.015625 13.804688 0 13.925781 0 C 14.046875 0 16.925781 0.015625 19.046875 1.527344 C 19.46875 1.816406 19.96875 1.972656 20.480469 1.972656 C 20.5 1.972656 20.519531 1.972656 20.539062 1.972656 L 25.359375 1.972656 C 25.636719 1.972656 25.855469 2.191406 25.855469 2.460938 L 25.855469 18.203125 C 25.855469 18.476562 25.632812 18.695312 25.359375 18.695312 Z M 2.984375 17.710938 L 24.859375 17.710938 L 24.859375 2.949219 L 20.535156 2.949219 C 20.515625 2.949219 20.492188 2.949219 20.476562 2.949219 C 19.757812 2.949219 19.054688 2.730469 18.464844 2.324219 C 16.609375 1.003906 13.949219 0.980469 13.925781 0.980469 C 13.898438 0.980469 11.238281 1.003906 9.382812 2.324219 C 8.792969 2.730469 8.09375 2.949219 7.371094 2.949219 C 7.355469 2.949219 7.332031 2.949219 7.316406 2.949219 L 2.988281 2.949219 L 2.988281 17.710938 Z M 2.984375 17.710938 "/>
<path style=" stroke:none;fill-rule:nonzero;fill:rgb(92.941176%,41.176471%,36.078431%);fill-opacity:1;" d="M 13.921875 18.695312 C 13.644531 18.695312 13.425781 18.472656 13.425781 18.203125 L 13.425781 0.496094 C 13.425781 0.222656 13.648438 0.00390625 13.921875 0.00390625 C 14.195312 0.00390625 14.414062 0.226562 14.414062 0.496094 L 14.414062 18.203125 C 14.414062 18.476562 14.191406 18.695312 13.921875 18.695312 Z M 13.921875 18.695312 "/>
<path style=" stroke:none;fill-rule:nonzero;fill:rgb(92.941176%,41.176471%,36.078431%);fill-opacity:1;" d="M 16.410156 11.808594 C 16.132812 11.808594 15.914062 11.585938 15.914062 11.316406 L 15.914062 9.351562 C 15.914062 9.074219 16.136719 8.859375 16.410156 8.859375 C 16.683594 8.859375 16.902344 9.082031 16.902344 9.351562 L 16.902344 11.316406 C 16.902344 11.589844 16.679688 11.808594 16.410156 11.808594 Z M 16.410156 11.808594 "/>
<path style=" stroke:none;fill-rule:nonzero;fill:rgb(92.941176%,41.176471%,36.078431%);fill-opacity:1;" d="M 11.4375 11.808594 C 11.160156 11.808594 10.941406 11.585938 10.941406 11.316406 L 10.941406 9.351562 C 10.941406 9.074219 11.164062 8.859375 11.4375 8.859375 C 11.710938 8.859375 11.933594 9.082031 11.933594 9.351562 L 11.933594 11.316406 C 11.933594 11.589844 11.707031 11.808594 11.4375 11.808594 Z M 11.4375 11.808594 "/>
</g>
</svg>
