<?xml version="1.0" encoding="UTF-8"?>
<svg xmlns="http://www.w3.org/2000/svg" xmlns:xlink="http://www.w3.org/1999/xlink" width="28px" height="28px" viewBox="0 0 28 28" version="1.1">
<g id="surface1">
<path style=" stroke:none;fill-rule:nonzero;fill:rgb(92.941176%,41.176471%,36.078431%);fill-opacity:1;" d="M 2.488281 23.195312 L 0.5 23.195312 C 0.222656 23.195312 0.00390625 22.972656 0.00390625 22.703125 L 0.00390625 4.996094 C 0.00390625 4.722656 0.226562 4.503906 0.5 4.503906 L 2.488281 4.503906 C 2.765625 4.503906 2.984375 4.726562 2.984375 4.996094 L 2.984375 22.703125 C 2.984375 22.976562 2.761719 23.195312 2.488281 23.195312 Z M 0.996094 22.210938 L 1.992188 22.210938 L 1.992188 5.480469 L 0.996094 5.480469 Z M 0.996094 22.210938 "/>
<path style=" stroke:none;fill-rule:nonzero;fill:rgb(92.941176%,41.176471%,36.078431%);fill-opacity:1;" d="M 27.34375 23.195312 L 25.355469 23.195312 C 25.078125 23.195312 24.859375 22.972656 24.859375 22.703125 L 24.859375 4.996094 C 24.859375 4.722656 25.085938 4.503906 25.355469 4.503906 L 27.34375 4.503906 C 27.621094 4.503906 27.839844 4.726562 27.839844 4.996094 L 27.839844 22.703125 C 27.839844 22.976562 27.617188 23.195312 27.34375 23.195312 Z M 25.851562 21.71875 L 26.890625 21.71875 L 26.890625 5.480469 L 25.851562 5.480469 Z M 25.851562 21.71875 "/>
<path style=" stroke:none;fill-rule:nonzero;fill:rgb(92.941176%,41.176471%,36.078431%);fill-opacity:1;" d="M 25.355469 23.195312 L 2.488281 23.195312 C 2.210938 23.195312 1.992188 22.972656 1.992188 22.703125 L 1.992188 6.960938 C 1.992188 6.6875 2.214844 6.472656 2.488281 6.472656 L 7.3125 6.472656 C 7.328125 6.472656 7.347656 6.472656 7.367188 6.472656 C 7.882812 6.472656 8.382812 6.320312 8.804688 6.027344 C 10.921875 4.515625 13.804688 4.5 13.925781 4.5 C 14.046875 4.5 16.925781 4.515625 19.046875 6.027344 C 19.46875 6.316406 19.96875 6.472656 20.480469 6.472656 C 20.5 6.472656 20.519531 6.472656 20.539062 6.472656 L 25.359375 6.472656 C 25.636719 6.472656 25.855469 6.691406 25.855469 6.960938 L 25.855469 22.703125 C 25.855469 22.976562 25.632812 23.195312 25.359375 23.195312 Z M 2.984375 22.210938 L 24.859375 22.210938 L 24.859375 7.449219 L 20.535156 7.449219 C 20.515625 7.449219 20.492188 7.449219 20.476562 7.449219 C 19.757812 7.449219 19.054688 7.230469 18.464844 6.824219 C 16.609375 5.503906 13.949219 5.480469 13.925781 5.480469 C 13.898438 5.480469 11.238281 5.503906 9.382812 6.824219 C 8.792969 7.230469 8.09375 7.449219 7.371094 7.449219 C 7.355469 7.449219 7.332031 7.449219 7.316406 7.449219 L 2.988281 7.449219 L 2.988281 22.210938 Z M 2.984375 22.210938 "/>
<path style=" stroke:none;fill-rule:nonzero;fill:rgb(92.941176%,41.176471%,36.078431%);fill-opacity:1;" d="M 13.921875 23.195312 C 13.644531 23.195312 13.425781 22.972656 13.425781 22.703125 L 13.425781 4.996094 C 13.425781 4.722656 13.648438 4.503906 13.921875 4.503906 C 14.195312 4.503906 14.414062 4.726562 14.414062 4.996094 L 14.414062 22.703125 C 14.414062 22.976562 14.191406 23.195312 13.921875 23.195312 Z M 13.921875 23.195312 "/>
<path style=" stroke:none;fill-rule:nonzero;fill:rgb(92.941176%,41.176471%,36.078431%);fill-opacity:1;" d="M 16.410156 16.308594 C 16.132812 16.308594 15.914062 16.085938 15.914062 15.816406 L 15.914062 13.851562 C 15.914062 13.574219 16.136719 13.359375 16.410156 13.359375 C 16.683594 13.359375 16.902344 13.582031 16.902344 13.851562 L 16.902344 15.816406 C 16.902344 16.089844 16.679688 16.308594 16.410156 16.308594 Z M 16.410156 16.308594 "/>
<path style=" stroke:none;fill-rule:nonzero;fill:rgb(92.941176%,41.176471%,36.078431%);fill-opacity:1;" d="M 11.4375 16.308594 C 11.160156 16.308594 10.941406 16.085938 10.941406 15.816406 L 10.941406 13.851562 C 10.941406 13.574219 11.164062 13.359375 11.4375 13.359375 C 11.710938 13.359375 11.933594 13.582031 11.933594 13.851562 L 11.933594 15.816406 C 11.933594 16.089844 11.707031 16.308594 11.4375 16.308594 Z M 11.4375 16.308594 "/>
</g>
</svg>
