<?xml version="1.0" encoding="UTF-8"?>
<svg xmlns="http://www.w3.org/2000/svg" xmlns:xlink="http://www.w3.org/1999/xlink" width="28px" height="28px" viewBox="0 0 28 27" version="1.1">
<g id="surface1">
<path style=" stroke:none;fill-rule:nonzero;fill:rgb(92.941176%,41.176471%,36.078431%);fill-opacity:1;" d="M 2.484375 27.253906 L 0.496094 27.253906 C 0.222656 27.253906 -0.00390625 27.03125 -0.00390625 26.757812 L -0.00390625 8.996094 C -0.00390625 8.722656 0.21875 8.5 0.496094 8.5 L 2.484375 8.5 C 2.757812 8.5 2.984375 8.71875 2.984375 8.996094 L 2.984375 26.757812 C 2.984375 27.03125 2.761719 27.253906 2.484375 27.253906 Z M 0.992188 26.265625 L 1.988281 26.265625 L 1.988281 9.488281 L 0.992188 9.488281 Z M 0.992188 26.265625 "/>
<path style=" stroke:none;fill-rule:nonzero;fill:rgb(92.941176%,41.176471%,36.078431%);fill-opacity:1;" d="M 27.34375 27.253906 L 25.351562 27.253906 C 25.078125 27.253906 24.851562 27.03125 24.851562 26.757812 L 24.851562 8.996094 C 24.851562 8.722656 25.074219 8.5 25.351562 8.5 L 27.34375 8.5 C 27.613281 8.5 27.839844 8.71875 27.839844 8.996094 L 27.839844 26.757812 C 27.839844 27.03125 27.617188 27.253906 27.34375 27.253906 Z M 25.851562 26.28125 L 26.890625 26.28125 L 26.890625 9.488281 L 25.851562 9.488281 Z M 25.851562 26.28125 "/>
<path style=" stroke:none;fill-rule:nonzero;fill:rgb(92.941176%,41.176471%,36.078431%);fill-opacity:1;" d="M 25.355469 27.253906 L 2.488281 27.253906 C 2.214844 27.253906 1.988281 27.03125 1.988281 26.757812 L 1.988281 10.964844 C 1.988281 10.695312 2.210938 10.472656 2.488281 10.472656 L 7.3125 10.472656 C 7.332031 10.472656 7.347656 10.472656 7.367188 10.472656 C 7.878906 10.472656 8.378906 10.320312 8.800781 10.027344 C 10.917969 8.511719 13.800781 8.496094 13.921875 8.496094 C 14.042969 8.496094 16.925781 8.511719 19.042969 10.027344 C 19.464844 10.316406 19.964844 10.472656 20.476562 10.472656 C 20.496094 10.472656 20.515625 10.472656 20.53125 10.472656 L 25.355469 10.472656 C 25.628906 10.472656 25.851562 10.691406 25.851562 10.964844 L 25.851562 26.757812 C 25.851562 27.03125 25.632812 27.253906 25.355469 27.253906 Z M 2.984375 26.265625 L 24.855469 26.265625 L 24.855469 11.460938 L 20.53125 11.460938 C 20.511719 11.460938 20.492188 11.460938 20.472656 11.460938 C 19.753906 11.460938 19.054688 11.242188 18.460938 10.832031 C 16.605469 9.507812 13.949219 9.484375 13.917969 9.484375 C 13.894531 9.484375 11.230469 9.503906 9.378906 10.832031 C 8.789062 11.242188 8.085938 11.460938 7.367188 11.460938 C 7.347656 11.460938 7.328125 11.460938 7.308594 11.460938 L 2.984375 11.460938 Z M 2.984375 26.265625 "/>
<path style=" stroke:none;fill-rule:nonzero;fill:rgb(92.941176%,41.176471%,36.078431%);fill-opacity:1;" d="M 13.917969 27.253906 C 13.644531 27.253906 13.421875 27.03125 13.421875 26.757812 L 13.421875 8.996094 C 13.421875 8.722656 13.640625 8.5 13.917969 8.5 C 14.191406 8.5 14.417969 8.71875 14.417969 8.996094 L 14.417969 26.757812 C 14.417969 27.03125 14.195312 27.253906 13.917969 27.253906 Z M 13.917969 27.253906 "/>
<path style=" stroke:none;fill-rule:nonzero;fill:rgb(92.941176%,41.176471%,36.078431%);fill-opacity:1;" d="M 16.40625 20.34375 C 16.132812 20.34375 15.910156 20.125 15.910156 19.847656 L 15.910156 17.875 C 15.910156 17.605469 16.128906 17.382812 16.40625 17.382812 C 16.679688 17.382812 16.90625 17.601562 16.90625 17.875 L 16.90625 19.847656 C 16.90625 20.121094 16.683594 20.34375 16.40625 20.34375 Z M 16.40625 20.34375 "/>
<path style=" stroke:none;fill-rule:nonzero;fill:rgb(92.941176%,41.176471%,36.078431%);fill-opacity:1;" d="M 11.433594 20.34375 C 11.160156 20.34375 10.933594 20.125 10.933594 19.847656 L 10.933594 17.875 C 10.933594 17.605469 11.15625 17.382812 11.433594 17.382812 C 11.707031 17.382812 11.929688 17.601562 11.929688 17.875 L 11.929688 19.847656 C 11.929688 20.121094 11.710938 20.34375 11.433594 20.34375 Z M 11.433594 20.34375 "/>
<path style=" stroke:none;fill-rule:nonzero;fill:rgb(92.941176%,41.176471%,36.078431%);fill-opacity:1;" d="M 12.375 6.957031 L 7.546875 4.1875 L 7.914062 3.550781 L 12.746094 6.324219 L 12.382812 6.960938 Z M 12.382812 6.960938 L 12.375 6.957031 L 12.386719 6.964844 Z M 12.785156 6.296875 L 13.523438 6.296875 L 13.519531 6.347656 L 13.503906 6.449219 L 13.492188 6.5 L 13.476562 6.550781 L 13.457031 6.59375 L 13.433594 6.640625 L 13.40625 6.6875 L 13.382812 6.726562 L 13.351562 6.769531 L 13.324219 6.804688 L 13.292969 6.839844 L 13.257812 6.871094 L 13.21875 6.902344 L 13.179688 6.929688 L 13.09375 6.976562 L 13.054688 6.996094 L 12.960938 7.027344 L 12.867188 7.050781 L 12.820312 7.058594 L 12.664062 7.058594 L 12.617188 7.050781 L 12.566406 7.039062 L 12.511719 7.027344 L 12.464844 7.011719 L 12.417969 6.992188 L 12.367188 6.972656 L 12.730469 6.328125 L 12.730469 6.332031 L 12.734375 6.335938 L 12.757812 6.335938 L 12.765625 6.328125 L 12.765625 6.308594 Z M 13.523438 0.761719 L 13.523438 6.296875 L 12.785156 6.296875 L 12.785156 0.761719 Z M 12.75 0.734375 L 12.378906 0.0976562 L 12.425781 0.0742188 L 12.476562 0.0507812 L 12.523438 0.03125 L 12.574219 0.015625 L 12.675781 0 L 12.726562 -0.00390625 L 12.777344 -0.00390625 L 12.828125 0 L 12.921875 0.015625 L 12.96875 0.0273438 L 13.019531 0.046875 L 13.0625 0.0625 L 13.148438 0.101562 L 13.183594 0.128906 L 13.222656 0.15625 L 13.261719 0.1875 L 13.296875 0.21875 L 13.332031 0.253906 L 13.363281 0.289062 L 13.390625 0.324219 L 13.417969 0.367188 L 13.464844 0.460938 L 13.484375 0.507812 L 13.5 0.554688 L 13.523438 0.65625 L 13.53125 0.710938 L 13.53125 0.761719 L 12.792969 0.761719 L 12.792969 0.746094 L 12.789062 0.742188 L 12.785156 0.742188 L 12.777344 0.734375 Z M 7.550781 2.871094 L 12.378906 0.0976562 L 12.75 0.734375 L 7.917969 3.503906 L 7.546875 2.871094 Z M 7.546875 2.871094 L 7.550781 2.871094 L 7.546875 2.875 Z M 7.917969 3.554688 L 7.550781 4.191406 L 7.554688 4.195312 L 7.511719 4.164062 L 7.464844 4.132812 L 7.386719 4.0625 L 7.351562 4.027344 L 7.316406 3.988281 L 7.289062 3.949219 L 7.261719 3.902344 L 7.242188 3.859375 L 7.222656 3.8125 L 7.207031 3.769531 L 7.191406 3.722656 L 7.183594 3.675781 L 7.175781 3.625 L 7.167969 3.53125 L 7.171875 3.480469 L 7.175781 3.433594 L 7.191406 3.339844 L 7.207031 3.292969 L 7.222656 3.25 L 7.242188 3.203125 L 7.261719 3.160156 L 7.289062 3.117188 L 7.316406 3.078125 L 7.351562 3.035156 L 7.386719 2.996094 L 7.421875 2.960938 L 7.460938 2.925781 L 7.503906 2.894531 L 7.550781 2.867188 L 7.925781 3.496094 L 7.921875 3.5 L 7.914062 3.5 L 7.914062 3.503906 L 7.910156 3.507812 L 7.910156 3.550781 L 7.914062 3.550781 Z M 7.914062 3.550781 L 7.917969 3.554688 L 7.90625 3.550781 Z M 7.914062 3.550781 "/>
<path style=" stroke:none;fill-rule:nonzero;fill:rgb(92.941176%,41.176471%,36.078431%);fill-opacity:1;" d="M 15.464844 0.0976562 L 20.292969 2.871094 L 19.925781 3.503906 L 15.09375 0.734375 L 15.457031 0.0976562 Z M 15.457031 0.0976562 L 15.464844 0.0976562 L 15.453125 0.09375 Z M 15.058594 0.761719 L 14.316406 0.761719 L 14.320312 0.707031 L 14.335938 0.605469 L 14.347656 0.554688 L 14.367188 0.507812 L 14.382812 0.464844 L 14.40625 0.414062 L 14.433594 0.371094 L 14.457031 0.328125 L 14.488281 0.289062 L 14.515625 0.253906 L 14.546875 0.21875 L 14.585938 0.183594 L 14.621094 0.152344 L 14.699219 0.0976562 L 14.785156 0.0585938 L 14.828125 0.0429688 L 14.875 0.0273438 L 14.925781 0.0117188 L 14.96875 0.00390625 L 15.019531 -0.00390625 L 15.070312 -0.0078125 L 15.121094 -0.0078125 L 15.171875 -0.00390625 L 15.21875 0.00390625 L 15.273438 0.0117188 L 15.324219 0.0273438 L 15.371094 0.0429688 L 15.421875 0.0625 L 15.46875 0.0820312 L 15.109375 0.726562 L 15.101562 0.71875 L 15.066406 0.71875 L 15.0625 0.722656 L 15.0625 0.742188 Z M 14.316406 6.296875 L 14.316406 0.761719 L 15.058594 0.761719 L 15.058594 6.296875 Z M 15.09375 6.324219 L 15.460938 6.957031 L 15.414062 6.984375 L 15.367188 7.003906 L 15.316406 7.023438 L 15.265625 7.039062 L 15.214844 7.050781 L 15.164062 7.058594 L 15.011719 7.058594 L 14.964844 7.050781 L 14.871094 7.027344 L 14.820312 7.011719 L 14.777344 6.996094 L 14.734375 6.976562 L 14.691406 6.953125 L 14.652344 6.929688 L 14.613281 6.902344 L 14.574219 6.871094 L 14.539062 6.839844 L 14.507812 6.808594 L 14.476562 6.773438 L 14.445312 6.734375 L 14.421875 6.691406 L 14.394531 6.648438 L 14.371094 6.601562 L 14.351562 6.550781 L 14.335938 6.503906 L 14.324219 6.457031 L 14.3125 6.402344 L 14.308594 6.347656 L 14.304688 6.296875 L 15.042969 6.296875 L 15.042969 6.3125 L 15.054688 6.324219 Z M 20.289062 4.1875 L 15.460938 6.957031 L 15.09375 6.324219 L 19.921875 3.550781 L 19.925781 3.550781 Z M 19.921875 3.550781 L 19.925781 3.550781 L 19.933594 3.546875 Z M 19.921875 3.5 L 20.289062 2.867188 L 20.292969 2.871094 L 20.339844 2.898438 L 20.382812 2.929688 L 20.421875 2.964844 L 20.457031 3 L 20.492188 3.039062 L 20.527344 3.082031 L 20.554688 3.121094 L 20.582031 3.164062 L 20.601562 3.207031 L 20.621094 3.253906 L 20.636719 3.296875 L 20.652344 3.34375 L 20.667969 3.4375 L 20.671875 3.484375 L 20.671875 3.582031 L 20.667969 3.628906 L 20.660156 3.675781 L 20.652344 3.726562 L 20.636719 3.773438 L 20.621094 3.816406 L 20.601562 3.863281 L 20.582031 3.90625 L 20.554688 3.953125 L 20.527344 3.992188 L 20.492188 4.03125 L 20.457031 4.066406 L 20.378906 4.136719 L 20.332031 4.167969 L 20.289062 4.199219 L 19.925781 3.554688 L 19.929688 3.554688 L 19.929688 3.511719 L 19.925781 3.507812 L 19.925781 3.503906 L 19.921875 3.5 L 19.914062 3.5 Z M 20.289062 2.867188 L 20.292969 2.867188 L 20.289062 2.863281 Z M 20.289062 2.867188 "/>
</g>
</svg>
