<?xml version="1.0" encoding="UTF-8"?>
<svg xmlns="http://www.w3.org/2000/svg" xmlns:xlink="http://www.w3.org/1999/xlink" width="28px" height="28px" viewBox="0 0 28 28" version="1.1">
<g id="surface1">
<path style=" stroke:none;fill-rule:nonzero;fill:rgb(92.941176%,41.176471%,36.078431%);fill-opacity:1;" d="M 2.484375 27.753906 L 0.496094 27.753906 C 0.222656 27.753906 -0.00390625 27.53125 -0.00390625 27.257812 L -0.00390625 9.496094 C -0.00390625 9.222656 0.21875 9 0.496094 9 L 2.484375 9 C 2.757812 9 2.984375 9.21875 2.984375 9.496094 L 2.984375 27.257812 C 2.984375 27.53125 2.761719 27.753906 2.484375 27.753906 Z M 0.992188 26.765625 L 1.988281 26.765625 L 1.988281 9.988281 L 0.992188 9.988281 Z M 0.992188 26.765625 "/>
<path style=" stroke:none;fill-rule:nonzero;fill:rgb(92.941176%,41.176471%,36.078431%);fill-opacity:1;" d="M 27.34375 27.753906 L 25.351562 27.753906 C 25.078125 27.753906 24.851562 27.53125 24.851562 27.257812 L 24.851562 9.496094 C 24.851562 9.222656 25.074219 9 25.351562 9 L 27.34375 9 C 27.613281 9 27.839844 9.21875 27.839844 9.496094 L 27.839844 27.257812 C 27.839844 27.53125 27.617188 27.753906 27.34375 27.753906 Z M 25.851562 26.78125 L 26.890625 26.78125 L 26.890625 9.988281 L 25.851562 9.988281 Z M 25.851562 26.78125 "/>
<path style=" stroke:none;fill-rule:nonzero;fill:rgb(92.941176%,41.176471%,36.078431%);fill-opacity:1;" d="M 25.355469 27.753906 L 2.488281 27.753906 C 2.214844 27.753906 1.988281 27.53125 1.988281 27.257812 L 1.988281 11.464844 C 1.988281 11.195312 2.210938 10.972656 2.488281 10.972656 L 7.3125 10.972656 C 7.332031 10.972656 7.347656 10.972656 7.367188 10.972656 C 7.878906 10.972656 8.378906 10.820312 8.800781 10.527344 C 10.917969 9.011719 13.800781 8.996094 13.921875 8.996094 C 14.042969 8.996094 16.925781 9.011719 19.042969 10.527344 C 19.464844 10.816406 19.964844 10.972656 20.476562 10.972656 C 20.496094 10.972656 20.515625 10.972656 20.53125 10.972656 L 25.355469 10.972656 C 25.628906 10.972656 25.851562 11.191406 25.851562 11.464844 L 25.851562 27.257812 C 25.851562 27.53125 25.632812 27.753906 25.355469 27.753906 Z M 2.984375 26.765625 L 24.855469 26.765625 L 24.855469 11.960938 L 20.53125 11.960938 C 20.511719 11.960938 20.492188 11.960938 20.472656 11.960938 C 19.753906 11.960938 19.054688 11.742188 18.460938 11.332031 C 16.605469 10.007812 13.949219 9.984375 13.917969 9.984375 C 13.894531 9.984375 11.230469 10.003906 9.378906 11.332031 C 8.789062 11.742188 8.085938 11.960938 7.367188 11.960938 C 7.347656 11.960938 7.328125 11.960938 7.308594 11.960938 L 2.984375 11.960938 Z M 2.984375 26.765625 "/>
<path style=" stroke:none;fill-rule:nonzero;fill:rgb(92.941176%,41.176471%,36.078431%);fill-opacity:1;" d="M 13.917969 27.753906 C 13.644531 27.753906 13.421875 27.53125 13.421875 27.257812 L 13.421875 9.496094 C 13.421875 9.222656 13.640625 9 13.917969 9 C 14.191406 9 14.417969 9.21875 14.417969 9.496094 L 14.417969 27.257812 C 14.417969 27.53125 14.195312 27.753906 13.917969 27.753906 Z M 13.917969 27.753906 "/>
<path style=" stroke:none;fill-rule:nonzero;fill:rgb(92.941176%,41.176471%,36.078431%);fill-opacity:1;" d="M 16.40625 20.84375 C 16.132812 20.84375 15.910156 20.625 15.910156 20.347656 L 15.910156 18.375 C 15.910156 18.105469 16.128906 17.882812 16.40625 17.882812 C 16.679688 17.882812 16.90625 18.101562 16.90625 18.375 L 16.90625 20.347656 C 16.90625 20.621094 16.683594 20.84375 16.40625 20.84375 Z M 16.40625 20.84375 "/>
<path style=" stroke:none;fill-rule:nonzero;fill:rgb(92.941176%,41.176471%,36.078431%);fill-opacity:1;" d="M 11.433594 20.84375 C 11.160156 20.84375 10.933594 20.625 10.933594 20.347656 L 10.933594 18.375 C 10.933594 18.105469 11.15625 17.882812 11.433594 17.882812 C 11.707031 17.882812 11.929688 18.101562 11.929688 18.375 L 11.929688 20.347656 C 11.929688 20.621094 11.710938 20.84375 11.433594 20.84375 Z M 11.433594 20.84375 "/>
<path style=" stroke:none;fill-rule:nonzero;fill:rgb(92.941176%,41.176471%,36.078431%);fill-opacity:1;" d="M 12.375 7.457031 L 7.546875 4.6875 L 7.914062 4.050781 L 12.746094 6.824219 L 12.382812 7.460938 Z M 12.382812 7.460938 L 12.375 7.457031 L 12.386719 7.464844 Z M 12.785156 6.796875 L 13.523438 6.796875 L 13.519531 6.847656 L 13.503906 6.949219 L 13.492188 7 L 13.476562 7.050781 L 13.457031 7.09375 L 13.433594 7.140625 L 13.40625 7.1875 L 13.382812 7.226562 L 13.351562 7.269531 L 13.324219 7.304688 L 13.292969 7.339844 L 13.257812 7.371094 L 13.21875 7.402344 L 13.179688 7.429688 L 13.09375 7.476562 L 13.054688 7.496094 L 12.960938 7.527344 L 12.867188 7.550781 L 12.820312 7.558594 L 12.664062 7.558594 L 12.617188 7.550781 L 12.566406 7.539062 L 12.511719 7.527344 L 12.464844 7.511719 L 12.417969 7.492188 L 12.367188 7.472656 L 12.730469 6.828125 L 12.730469 6.832031 L 12.734375 6.835938 L 12.757812 6.835938 L 12.765625 6.828125 L 12.765625 6.808594 Z M 13.523438 1.261719 L 13.523438 6.796875 L 12.785156 6.796875 L 12.785156 1.261719 Z M 12.75 1.234375 L 12.378906 0.597656 L 12.425781 0.574219 L 12.476562 0.550781 L 12.523438 0.53125 L 12.574219 0.515625 L 12.675781 0.5 L 12.726562 0.496094 L 12.777344 0.496094 L 12.828125 0.5 L 12.921875 0.515625 L 12.96875 0.527344 L 13.019531 0.546875 L 13.0625 0.5625 L 13.148438 0.601562 L 13.183594 0.628906 L 13.222656 0.65625 L 13.261719 0.6875 L 13.296875 0.71875 L 13.332031 0.753906 L 13.363281 0.789062 L 13.390625 0.824219 L 13.417969 0.867188 L 13.464844 0.960938 L 13.484375 1.007812 L 13.5 1.054688 L 13.523438 1.15625 L 13.53125 1.210938 L 13.53125 1.261719 L 12.792969 1.261719 L 12.792969 1.246094 L 12.789062 1.242188 L 12.785156 1.242188 L 12.777344 1.234375 Z M 7.550781 3.371094 L 12.378906 0.597656 L 12.75 1.234375 L 7.917969 4.003906 L 7.546875 3.371094 Z M 7.546875 3.371094 L 7.550781 3.371094 L 7.546875 3.375 Z M 7.917969 4.054688 L 7.550781 4.691406 L 7.554688 4.695312 L 7.511719 4.664062 L 7.464844 4.632812 L 7.386719 4.5625 L 7.351562 4.527344 L 7.316406 4.488281 L 7.289062 4.449219 L 7.261719 4.402344 L 7.242188 4.359375 L 7.222656 4.3125 L 7.207031 4.269531 L 7.191406 4.222656 L 7.183594 4.175781 L 7.175781 4.125 L 7.167969 4.03125 L 7.171875 3.980469 L 7.175781 3.933594 L 7.191406 3.839844 L 7.207031 3.792969 L 7.222656 3.75 L 7.242188 3.703125 L 7.261719 3.660156 L 7.289062 3.617188 L 7.316406 3.578125 L 7.351562 3.535156 L 7.386719 3.496094 L 7.421875 3.460938 L 7.460938 3.425781 L 7.503906 3.394531 L 7.550781 3.367188 L 7.925781 3.996094 L 7.921875 4 L 7.914062 4 L 7.914062 4.003906 L 7.910156 4.007812 L 7.910156 4.050781 L 7.914062 4.050781 Z M 7.914062 4.050781 L 7.917969 4.054688 L 7.90625 4.050781 Z M 7.914062 4.050781 "/>
<path style=" stroke:none;fill-rule:nonzero;fill:rgb(92.941176%,41.176471%,36.078431%);fill-opacity:1;" d="M 15.464844 0.597656 L 20.292969 3.371094 L 19.925781 4.003906 L 15.09375 1.234375 L 15.457031 0.597656 Z M 15.457031 0.597656 L 15.464844 0.597656 L 15.453125 0.59375 Z M 15.058594 1.261719 L 14.316406 1.261719 L 14.320312 1.207031 L 14.335938 1.105469 L 14.347656 1.054688 L 14.367188 1.007812 L 14.382812 0.964844 L 14.40625 0.914062 L 14.433594 0.871094 L 14.457031 0.828125 L 14.488281 0.789062 L 14.515625 0.753906 L 14.546875 0.71875 L 14.585938 0.683594 L 14.621094 0.652344 L 14.699219 0.597656 L 14.785156 0.558594 L 14.828125 0.542969 L 14.875 0.527344 L 14.925781 0.511719 L 14.96875 0.503906 L 15.019531 0.496094 L 15.070312 0.492188 L 15.121094 0.492188 L 15.171875 0.496094 L 15.21875 0.503906 L 15.273438 0.511719 L 15.324219 0.527344 L 15.371094 0.542969 L 15.421875 0.5625 L 15.46875 0.582031 L 15.109375 1.226562 L 15.101562 1.21875 L 15.066406 1.21875 L 15.0625 1.222656 L 15.0625 1.242188 Z M 14.316406 6.796875 L 14.316406 1.261719 L 15.058594 1.261719 L 15.058594 6.796875 Z M 15.09375 6.824219 L 15.460938 7.457031 L 15.414062 7.484375 L 15.367188 7.503906 L 15.316406 7.523438 L 15.265625 7.539062 L 15.214844 7.550781 L 15.164062 7.558594 L 15.011719 7.558594 L 14.964844 7.550781 L 14.871094 7.527344 L 14.820312 7.511719 L 14.777344 7.496094 L 14.734375 7.476562 L 14.691406 7.453125 L 14.652344 7.429688 L 14.613281 7.402344 L 14.574219 7.371094 L 14.539062 7.339844 L 14.507812 7.308594 L 14.476562 7.273438 L 14.445312 7.234375 L 14.421875 7.191406 L 14.394531 7.148438 L 14.371094 7.101562 L 14.351562 7.050781 L 14.335938 7.003906 L 14.324219 6.957031 L 14.3125 6.902344 L 14.308594 6.847656 L 14.304688 6.796875 L 15.042969 6.796875 L 15.042969 6.8125 L 15.054688 6.824219 Z M 20.289062 4.6875 L 15.460938 7.457031 L 15.09375 6.824219 L 19.921875 4.050781 L 19.925781 4.050781 Z M 19.921875 4.050781 L 19.925781 4.050781 L 19.933594 4.046875 Z M 19.921875 4 L 20.289062 3.367188 L 20.292969 3.371094 L 20.339844 3.398438 L 20.382812 3.429688 L 20.421875 3.464844 L 20.457031 3.5 L 20.492188 3.539062 L 20.527344 3.582031 L 20.554688 3.621094 L 20.582031 3.664062 L 20.601562 3.707031 L 20.621094 3.753906 L 20.636719 3.796875 L 20.652344 3.84375 L 20.667969 3.9375 L 20.671875 3.984375 L 20.671875 4.082031 L 20.667969 4.128906 L 20.660156 4.175781 L 20.652344 4.226562 L 20.636719 4.273438 L 20.621094 4.316406 L 20.601562 4.363281 L 20.582031 4.40625 L 20.554688 4.453125 L 20.527344 4.492188 L 20.492188 4.53125 L 20.457031 4.566406 L 20.378906 4.636719 L 20.332031 4.667969 L 20.289062 4.699219 L 19.925781 4.054688 L 19.929688 4.054688 L 19.929688 4.011719 L 19.925781 4.007812 L 19.925781 4.003906 L 19.921875 4 L 19.914062 4 Z M 20.289062 3.367188 L 20.292969 3.367188 L 20.289062 3.363281 Z M 20.289062 3.367188 "/>
</g>
</svg>
