<?xml version="1.0" encoding="UTF-8"?>
<svg xmlns="http://www.w3.org/2000/svg" xmlns:xlink="http://www.w3.org/1999/xlink" width="28px" height="28px" viewBox="0 0 28 25" version="1.1">
<g id="surface1">
<path style=" stroke:none;fill-rule:nonzero;fill:rgb(92.941176%,41.176471%,36.078431%);fill-opacity:1;" d="M 2.488281 24.683594 L 0.5 24.683594 C 0.226562 24.683594 0.00390625 24.464844 0.00390625 24.195312 L 0.00390625 6.71875 C 0.00390625 6.453125 0.226562 6.234375 0.5 6.234375 L 2.488281 6.234375 C 2.761719 6.234375 2.984375 6.453125 2.984375 6.71875 L 2.984375 24.195312 C 2.984375 24.464844 2.761719 24.683594 2.488281 24.683594 Z M 0.996094 23.710938 L 1.988281 23.710938 L 1.988281 7.203125 L 0.996094 7.203125 Z M 0.996094 23.710938 "/>
<path style=" stroke:none;fill-rule:nonzero;fill:rgb(92.941176%,41.176471%,36.078431%);fill-opacity:1;" d="M 27.34375 24.683594 L 25.355469 24.683594 C 25.082031 24.683594 24.859375 24.464844 24.859375 24.195312 L 24.859375 6.71875 C 24.859375 6.453125 25.082031 6.234375 25.355469 6.234375 L 27.34375 6.234375 C 27.617188 6.234375 27.839844 6.453125 27.839844 6.71875 L 27.839844 24.195312 C 27.839844 24.464844 27.617188 24.683594 27.34375 24.683594 Z M 25.851562 23.722656 L 26.894531 23.722656 L 26.894531 7.203125 L 25.851562 7.203125 Z M 25.851562 23.722656 "/>
<path style=" stroke:none;fill-rule:nonzero;fill:rgb(92.941176%,41.176471%,36.078431%);fill-opacity:1;" d="M 25.351562 24.683594 L 2.484375 24.683594 C 2.210938 24.683594 1.988281 24.464844 1.988281 24.195312 L 1.988281 8.660156 C 1.988281 8.390625 2.210938 8.175781 2.484375 8.175781 L 7.308594 8.175781 C 7.324219 8.175781 7.34375 8.175781 7.363281 8.175781 C 11.769531 8.175781 16.242188 8.175781 20.476562 8.175781 C 20.492188 8.175781 20.511719 8.175781 20.53125 8.175781 L 25.351562 8.175781 C 25.628906 8.175781 25.851562 8.390625 25.851562 8.660156 L 25.851562 24.195312 C 25.851562 24.464844 25.628906 24.683594 25.351562 24.683594 Z M 2.980469 23.710938 L 24.855469 23.710938 L 24.855469 9.144531 L 20.53125 9.144531 C 20.511719 9.144531 20.492188 9.144531 20.472656 9.144531 C 16.148438 9.144531 11.820312 9.144531 7.367188 9.144531 C 7.347656 9.144531 7.328125 9.144531 7.308594 9.144531 L 2.984375 9.144531 L 2.984375 23.710938 Z M 2.980469 23.710938 "/>
<path style=" stroke:none;fill-rule:nonzero;fill:rgb(92.941176%,41.176471%,36.078431%);fill-opacity:1;" d="M 13.917969 24.683594 C 13.644531 24.683594 13.421875 24.464844 13.421875 24.195312 L 13.421875 8.914062 C 13.421875 8.644531 13.644531 8.425781 13.917969 8.425781 C 14.195312 8.425781 14.417969 8.644531 14.417969 8.914062 L 14.417969 24.195312 C 14.417969 24.464844 14.195312 24.683594 13.917969 24.683594 Z M 13.917969 24.683594 "/>
<path style=" stroke:none;fill-rule:nonzero;fill:rgb(92.941176%,41.176471%,36.078431%);fill-opacity:1;" d="M 16.40625 17.886719 C 16.132812 17.886719 15.910156 17.667969 15.910156 17.398438 L 15.910156 15.457031 C 15.910156 15.191406 16.132812 14.972656 16.40625 14.972656 C 16.679688 14.972656 16.902344 15.191406 16.902344 15.457031 L 16.902344 17.398438 C 16.902344 17.667969 16.679688 17.886719 16.40625 17.886719 Z M 16.40625 17.886719 "/>
<path style=" stroke:none;fill-rule:nonzero;fill:rgb(92.941176%,41.176471%,36.078431%);fill-opacity:1;" d="M 11.433594 17.886719 C 11.160156 17.886719 10.9375 17.667969 10.9375 17.398438 L 10.9375 15.457031 C 10.9375 15.191406 11.160156 14.972656 11.433594 14.972656 C 11.707031 14.972656 11.929688 15.191406 11.929688 15.457031 L 11.929688 17.398438 C 11.929688 17.667969 11.707031 17.886719 11.433594 17.886719 Z M 11.433594 17.886719 "/>
<path style=" stroke:none;fill-rule:nonzero;fill:rgb(92.941176%,41.176471%,36.078431%);fill-opacity:1;" d="M 12.375 6.84375 L 7.542969 4.121094 L 7.914062 3.5 L 12.746094 6.222656 L 12.378906 6.847656 Z M 12.378906 6.847656 L 12.375 6.84375 L 12.386719 6.851562 Z M 12.78125 6.195312 L 13.519531 6.195312 L 13.515625 6.25 L 13.511719 6.300781 L 13.503906 6.351562 L 13.492188 6.402344 L 13.476562 6.449219 L 13.457031 6.492188 L 13.4375 6.539062 L 13.414062 6.582031 L 13.386719 6.625 L 13.355469 6.664062 L 13.328125 6.699219 L 13.292969 6.734375 L 13.257812 6.765625 L 13.179688 6.820312 L 13.140625 6.84375 L 13.097656 6.867188 L 13.011719 6.90625 L 12.964844 6.921875 L 12.914062 6.933594 L 12.871094 6.941406 L 12.820312 6.945312 L 12.773438 6.949219 L 12.722656 6.949219 L 12.671875 6.945312 L 12.621094 6.9375 L 12.574219 6.925781 L 12.523438 6.914062 L 12.472656 6.894531 L 12.425781 6.875 L 12.378906 6.851562 L 12.738281 6.222656 L 12.742188 6.222656 L 12.746094 6.226562 L 12.769531 6.226562 L 12.773438 6.222656 L 12.777344 6.222656 L 12.777344 6.203125 Z M 13.519531 0.746094 L 13.519531 6.195312 L 12.78125 6.195312 L 12.78125 0.746094 Z M 12.746094 0.722656 L 12.375 0.0976562 L 12.421875 0.0742188 L 12.46875 0.0546875 L 12.519531 0.0351562 L 12.570312 0.0234375 L 12.617188 0.0117188 L 12.667969 0.00390625 L 12.71875 0 L 12.769531 0 L 12.816406 0.00390625 L 12.867188 0.0078125 L 12.910156 0.015625 L 12.957031 0.0273438 L 13.007812 0.0429688 L 13.050781 0.0585938 L 13.097656 0.078125 L 13.175781 0.125 L 13.21875 0.152344 L 13.257812 0.183594 L 13.328125 0.246094 L 13.359375 0.285156 L 13.414062 0.363281 L 13.441406 0.40625 L 13.480469 0.5 L 13.496094 0.546875 L 13.507812 0.59375 L 13.515625 0.648438 L 13.523438 0.699219 L 13.527344 0.75 L 12.789062 0.75 L 12.789062 0.742188 L 12.785156 0.742188 L 12.785156 0.738281 L 12.78125 0.738281 L 12.78125 0.734375 L 12.777344 0.734375 L 12.777344 0.730469 L 12.753906 0.730469 Z M 7.542969 2.824219 L 12.375 0.0976562 L 12.746094 0.722656 L 7.914062 3.445312 L 7.542969 2.824219 L 7.546875 2.824219 Z M 7.539062 2.824219 L 7.542969 2.824219 Z M 7.910156 3.496094 L 7.542969 4.121094 L 7.546875 4.125 L 7.503906 4.097656 L 7.457031 4.066406 L 7.417969 4.035156 L 7.378906 4 L 7.34375 3.960938 L 7.3125 3.921875 L 7.285156 3.882812 L 7.257812 3.839844 L 7.234375 3.796875 L 7.214844 3.75 L 7.199219 3.707031 L 7.183594 3.660156 L 7.167969 3.566406 L 7.160156 3.472656 L 7.167969 3.378906 L 7.183594 3.285156 L 7.214844 3.199219 L 7.234375 3.152344 L 7.253906 3.109375 L 7.308594 3.023438 L 7.339844 2.984375 L 7.375 2.945312 L 7.414062 2.914062 L 7.453125 2.878906 L 7.496094 2.847656 L 7.542969 2.820312 L 7.917969 3.441406 L 7.914062 3.441406 L 7.902344 3.453125 L 7.902344 3.484375 L 7.90625 3.488281 L 7.914062 3.492188 Z M 7.90625 3.492188 L 7.910156 3.496094 L 7.898438 3.488281 Z M 7.90625 3.492188 "/>
<path style=" stroke:none;fill-rule:nonzero;fill:rgb(92.941176%,41.176471%,36.078431%);fill-opacity:1;" d="M 15.464844 0.0976562 L 20.296875 2.824219 L 19.925781 3.445312 L 15.097656 0.722656 L 15.460938 0.09375 Z M 15.460938 0.09375 L 15.464844 0.0976562 L 15.453125 0.0898438 Z M 15.058594 0.746094 L 14.320312 0.746094 L 14.328125 0.644531 L 14.335938 0.59375 L 14.347656 0.542969 L 14.363281 0.496094 L 14.402344 0.402344 L 14.429688 0.363281 L 14.453125 0.320312 L 14.484375 0.28125 L 14.511719 0.246094 L 14.546875 0.210938 L 14.582031 0.179688 L 14.621094 0.148438 L 14.660156 0.121094 L 14.699219 0.0976562 L 14.785156 0.0585938 L 14.828125 0.0429688 L 14.878906 0.0273438 L 14.925781 0.015625 L 14.96875 0.0078125 L 15.019531 0 L 15.117188 0 L 15.167969 0.00390625 L 15.21875 0.0117188 L 15.265625 0.0195312 L 15.367188 0.0507812 L 15.414062 0.0703125 L 15.460938 0.09375 L 15.101562 0.722656 L 15.097656 0.722656 L 15.09375 0.71875 L 15.070312 0.71875 L 15.0625 0.726562 L 15.0625 0.742188 Z M 14.320312 6.195312 L 14.320312 0.746094 L 15.058594 0.746094 L 15.058594 6.195312 Z M 15.097656 6.222656 L 15.464844 6.84375 L 15.417969 6.871094 L 15.371094 6.890625 L 15.320312 6.910156 L 15.269531 6.921875 L 15.222656 6.933594 L 15.171875 6.941406 L 15.121094 6.945312 L 15.070312 6.945312 L 14.976562 6.9375 L 14.929688 6.929688 L 14.882812 6.917969 L 14.832031 6.902344 L 14.703125 6.84375 L 14.660156 6.816406 L 14.621094 6.792969 L 14.582031 6.761719 L 14.511719 6.699219 L 14.480469 6.660156 L 14.425781 6.582031 L 14.398438 6.539062 L 14.359375 6.445312 L 14.34375 6.398438 L 14.332031 6.351562 L 14.324219 6.296875 L 14.316406 6.246094 L 14.316406 6.191406 L 15.050781 6.191406 L 15.050781 6.199219 L 15.0625 6.210938 L 15.089844 6.210938 Z M 20.296875 4.121094 L 15.464844 6.84375 L 15.097656 6.222656 L 19.925781 3.5 L 19.933594 3.496094 Z M 19.925781 3.5 L 19.941406 3.492188 Z M 19.925781 3.449219 L 20.296875 2.824219 L 20.300781 2.828125 L 20.347656 2.855469 L 20.390625 2.886719 L 20.429688 2.917969 L 20.46875 2.953125 L 20.5 2.988281 L 20.53125 3.03125 L 20.5625 3.070312 L 20.585938 3.113281 L 20.609375 3.160156 L 20.628906 3.203125 L 20.644531 3.25 L 20.65625 3.292969 L 20.667969 3.339844 L 20.675781 3.386719 L 20.683594 3.480469 L 20.675781 3.574219 L 20.667969 3.617188 L 20.644531 3.710938 L 20.628906 3.757812 L 20.609375 3.800781 L 20.585938 3.847656 L 20.558594 3.890625 L 20.496094 3.96875 L 20.464844 4.003906 L 20.425781 4.039062 L 20.382812 4.074219 L 20.339844 4.101562 L 20.292969 4.128906 L 19.933594 3.5 L 19.941406 3.492188 L 19.941406 3.46875 L 19.9375 3.464844 L 19.9375 3.460938 L 19.925781 3.449219 L 19.929688 3.453125 Z M 20.296875 2.824219 L 20.296875 2.828125 L 20.300781 2.828125 Z M 20.296875 2.824219 "/>
</g>
</svg>
