<?xml version="1.0" encoding="UTF-8"?>
<svg xmlns="http://www.w3.org/2000/svg" xmlns:xlink="http://www.w3.org/1999/xlink" width="28px" height="28px" viewBox="0 0 28 28" version="1.1">
<g id="surface1">
<path style=" stroke:none;fill-rule:nonzero;fill:rgb(92.941176%,41.176471%,36.078431%);fill-opacity:1;" d="M 2.488281 26.183594 L 0.5 26.183594 C 0.226562 26.183594 0.00390625 25.964844 0.00390625 25.695312 L 0.00390625 8.21875 C 0.00390625 7.953125 0.226562 7.734375 0.5 7.734375 L 2.488281 7.734375 C 2.761719 7.734375 2.984375 7.953125 2.984375 8.21875 L 2.984375 25.695312 C 2.984375 25.964844 2.761719 26.183594 2.488281 26.183594 Z M 0.996094 25.210938 L 1.988281 25.210938 L 1.988281 8.703125 L 0.996094 8.703125 Z M 0.996094 25.210938 "/>
<path style=" stroke:none;fill-rule:nonzero;fill:rgb(92.941176%,41.176471%,36.078431%);fill-opacity:1;" d="M 27.34375 26.183594 L 25.355469 26.183594 C 25.082031 26.183594 24.859375 25.964844 24.859375 25.695312 L 24.859375 8.21875 C 24.859375 7.953125 25.082031 7.734375 25.355469 7.734375 L 27.34375 7.734375 C 27.617188 7.734375 27.839844 7.953125 27.839844 8.21875 L 27.839844 25.695312 C 27.839844 25.964844 27.617188 26.183594 27.34375 26.183594 Z M 25.851562 25.222656 L 26.894531 25.222656 L 26.894531 8.703125 L 25.851562 8.703125 Z M 25.851562 25.222656 "/>
<path style=" stroke:none;fill-rule:nonzero;fill:rgb(92.941176%,41.176471%,36.078431%);fill-opacity:1;" d="M 25.351562 26.183594 L 2.484375 26.183594 C 2.210938 26.183594 1.988281 25.964844 1.988281 25.695312 L 1.988281 10.160156 C 1.988281 9.890625 2.210938 9.675781 2.484375 9.675781 L 7.308594 9.675781 C 7.324219 9.675781 7.34375 9.675781 7.363281 9.675781 C 11.769531 9.675781 16.242188 9.675781 20.476562 9.675781 C 20.492188 9.675781 20.511719 9.675781 20.53125 9.675781 L 25.351562 9.675781 C 25.628906 9.675781 25.851562 9.890625 25.851562 10.160156 L 25.851562 25.695312 C 25.851562 25.964844 25.628906 26.183594 25.351562 26.183594 Z M 2.980469 25.210938 L 24.855469 25.210938 L 24.855469 10.644531 L 20.53125 10.644531 C 20.511719 10.644531 20.492188 10.644531 20.472656 10.644531 C 16.148438 10.644531 11.820312 10.644531 7.367188 10.644531 C 7.347656 10.644531 7.328125 10.644531 7.308594 10.644531 L 2.984375 10.644531 L 2.984375 25.210938 Z M 2.980469 25.210938 "/>
<path style=" stroke:none;fill-rule:nonzero;fill:rgb(92.941176%,41.176471%,36.078431%);fill-opacity:1;" d="M 13.917969 26.183594 C 13.644531 26.183594 13.421875 25.964844 13.421875 25.695312 L 13.421875 10.414062 C 13.421875 10.144531 13.644531 9.925781 13.917969 9.925781 C 14.195312 9.925781 14.417969 10.144531 14.417969 10.414062 L 14.417969 25.695312 C 14.417969 25.964844 14.195312 26.183594 13.917969 26.183594 Z M 13.917969 26.183594 "/>
<path style=" stroke:none;fill-rule:nonzero;fill:rgb(92.941176%,41.176471%,36.078431%);fill-opacity:1;" d="M 16.40625 19.386719 C 16.132812 19.386719 15.910156 19.167969 15.910156 18.898438 L 15.910156 16.957031 C 15.910156 16.691406 16.132812 16.472656 16.40625 16.472656 C 16.679688 16.472656 16.902344 16.691406 16.902344 16.957031 L 16.902344 18.898438 C 16.902344 19.167969 16.679688 19.386719 16.40625 19.386719 Z M 16.40625 19.386719 "/>
<path style=" stroke:none;fill-rule:nonzero;fill:rgb(92.941176%,41.176471%,36.078431%);fill-opacity:1;" d="M 11.433594 19.386719 C 11.160156 19.386719 10.9375 19.167969 10.9375 18.898438 L 10.9375 16.957031 C 10.9375 16.691406 11.160156 16.472656 11.433594 16.472656 C 11.707031 16.472656 11.929688 16.691406 11.929688 16.957031 L 11.929688 18.898438 C 11.929688 19.167969 11.707031 19.386719 11.433594 19.386719 Z M 11.433594 19.386719 "/>
<path style=" stroke:none;fill-rule:nonzero;fill:rgb(92.941176%,41.176471%,36.078431%);fill-opacity:1;" d="M 12.375 8.34375 L 7.542969 5.621094 L 7.914062 5 L 12.746094 7.722656 L 12.378906 8.347656 Z M 12.378906 8.347656 L 12.375 8.34375 L 12.386719 8.351562 Z M 12.78125 7.695312 L 13.519531 7.695312 L 13.515625 7.75 L 13.511719 7.800781 L 13.503906 7.851562 L 13.492188 7.902344 L 13.476562 7.949219 L 13.457031 7.992188 L 13.4375 8.039062 L 13.414062 8.082031 L 13.386719 8.125 L 13.355469 8.164062 L 13.328125 8.199219 L 13.292969 8.234375 L 13.257812 8.265625 L 13.179688 8.320312 L 13.140625 8.34375 L 13.097656 8.367188 L 13.011719 8.40625 L 12.964844 8.421875 L 12.914062 8.433594 L 12.871094 8.441406 L 12.820312 8.445312 L 12.773438 8.449219 L 12.722656 8.449219 L 12.671875 8.445312 L 12.621094 8.4375 L 12.574219 8.425781 L 12.523438 8.414062 L 12.472656 8.394531 L 12.425781 8.375 L 12.378906 8.351562 L 12.738281 7.722656 L 12.742188 7.722656 L 12.746094 7.726562 L 12.769531 7.726562 L 12.773438 7.722656 L 12.777344 7.722656 L 12.777344 7.703125 Z M 13.519531 2.246094 L 13.519531 7.695312 L 12.78125 7.695312 L 12.78125 2.246094 Z M 12.746094 2.222656 L 12.375 1.597656 L 12.421875 1.574219 L 12.46875 1.554688 L 12.519531 1.535156 L 12.570312 1.523438 L 12.617188 1.511719 L 12.667969 1.503906 L 12.71875 1.5 L 12.769531 1.5 L 12.816406 1.503906 L 12.867188 1.507812 L 12.910156 1.515625 L 12.957031 1.527344 L 13.007812 1.542969 L 13.050781 1.558594 L 13.097656 1.578125 L 13.175781 1.625 L 13.21875 1.652344 L 13.257812 1.683594 L 13.328125 1.746094 L 13.359375 1.785156 L 13.414062 1.863281 L 13.441406 1.90625 L 13.480469 2 L 13.496094 2.046875 L 13.507812 2.09375 L 13.515625 2.148438 L 13.523438 2.199219 L 13.527344 2.25 L 12.789062 2.25 L 12.789062 2.242188 L 12.785156 2.242188 L 12.785156 2.238281 L 12.78125 2.238281 L 12.78125 2.234375 L 12.777344 2.234375 L 12.777344 2.230469 L 12.753906 2.230469 Z M 7.542969 4.324219 L 12.375 1.597656 L 12.746094 2.222656 L 7.914062 4.945312 L 7.542969 4.324219 L 7.546875 4.324219 Z M 7.539062 4.324219 L 7.542969 4.324219 Z M 7.910156 4.996094 L 7.542969 5.621094 L 7.546875 5.625 L 7.503906 5.597656 L 7.457031 5.566406 L 7.417969 5.535156 L 7.378906 5.5 L 7.34375 5.460938 L 7.3125 5.421875 L 7.285156 5.382812 L 7.257812 5.339844 L 7.234375 5.296875 L 7.214844 5.25 L 7.199219 5.207031 L 7.183594 5.160156 L 7.167969 5.066406 L 7.160156 4.972656 L 7.167969 4.878906 L 7.183594 4.785156 L 7.214844 4.699219 L 7.234375 4.652344 L 7.253906 4.609375 L 7.308594 4.523438 L 7.339844 4.484375 L 7.375 4.445312 L 7.414062 4.414062 L 7.453125 4.378906 L 7.496094 4.347656 L 7.542969 4.320312 L 7.917969 4.941406 L 7.914062 4.941406 L 7.902344 4.953125 L 7.902344 4.984375 L 7.90625 4.988281 L 7.914062 4.992188 Z M 7.90625 4.992188 L 7.910156 4.996094 L 7.898438 4.988281 Z M 7.90625 4.992188 "/>
<path style=" stroke:none;fill-rule:nonzero;fill:rgb(92.941176%,41.176471%,36.078431%);fill-opacity:1;" d="M 15.464844 1.597656 L 20.296875 4.324219 L 19.925781 4.945312 L 15.097656 2.222656 L 15.460938 1.59375 Z M 15.460938 1.59375 L 15.464844 1.597656 L 15.453125 1.589844 Z M 15.058594 2.246094 L 14.320312 2.246094 L 14.328125 2.144531 L 14.335938 2.09375 L 14.347656 2.042969 L 14.363281 1.996094 L 14.402344 1.902344 L 14.429688 1.863281 L 14.453125 1.820312 L 14.484375 1.78125 L 14.511719 1.746094 L 14.546875 1.710938 L 14.582031 1.679688 L 14.621094 1.648438 L 14.660156 1.621094 L 14.699219 1.597656 L 14.785156 1.558594 L 14.828125 1.542969 L 14.878906 1.527344 L 14.925781 1.515625 L 14.96875 1.507812 L 15.019531 1.5 L 15.117188 1.5 L 15.167969 1.503906 L 15.21875 1.511719 L 15.265625 1.519531 L 15.367188 1.550781 L 15.414062 1.570312 L 15.460938 1.59375 L 15.101562 2.222656 L 15.097656 2.222656 L 15.09375 2.21875 L 15.070312 2.21875 L 15.0625 2.226562 L 15.0625 2.242188 Z M 14.320312 7.695312 L 14.320312 2.246094 L 15.058594 2.246094 L 15.058594 7.695312 Z M 15.097656 7.722656 L 15.464844 8.34375 L 15.417969 8.371094 L 15.371094 8.390625 L 15.320312 8.410156 L 15.269531 8.421875 L 15.222656 8.433594 L 15.171875 8.441406 L 15.121094 8.445312 L 15.070312 8.445312 L 14.976562 8.4375 L 14.929688 8.429688 L 14.882812 8.417969 L 14.832031 8.402344 L 14.703125 8.34375 L 14.660156 8.316406 L 14.621094 8.292969 L 14.582031 8.261719 L 14.511719 8.199219 L 14.480469 8.160156 L 14.425781 8.082031 L 14.398438 8.039062 L 14.359375 7.945312 L 14.34375 7.898438 L 14.332031 7.851562 L 14.324219 7.796875 L 14.316406 7.746094 L 14.316406 7.691406 L 15.050781 7.691406 L 15.050781 7.699219 L 15.0625 7.710938 L 15.089844 7.710938 Z M 20.296875 5.621094 L 15.464844 8.34375 L 15.097656 7.722656 L 19.925781 5 L 19.933594 4.996094 Z M 19.925781 5 L 19.941406 4.992188 Z M 19.925781 4.949219 L 20.296875 4.324219 L 20.300781 4.328125 L 20.347656 4.355469 L 20.390625 4.386719 L 20.429688 4.417969 L 20.46875 4.453125 L 20.5 4.488281 L 20.53125 4.53125 L 20.5625 4.570312 L 20.585938 4.613281 L 20.609375 4.660156 L 20.628906 4.703125 L 20.644531 4.75 L 20.65625 4.792969 L 20.667969 4.839844 L 20.675781 4.886719 L 20.683594 4.980469 L 20.675781 5.074219 L 20.667969 5.117188 L 20.644531 5.210938 L 20.628906 5.257812 L 20.609375 5.300781 L 20.585938 5.347656 L 20.558594 5.390625 L 20.496094 5.46875 L 20.464844 5.503906 L 20.425781 5.539062 L 20.382812 5.574219 L 20.339844 5.601562 L 20.292969 5.628906 L 19.933594 5 L 19.941406 4.992188 L 19.941406 4.96875 L 19.9375 4.964844 L 19.9375 4.960938 L 19.925781 4.949219 L 19.929688 4.953125 Z M 20.296875 4.324219 L 20.296875 4.328125 L 20.300781 4.328125 Z M 20.296875 4.324219 "/>
</g>
</svg>
