<?xml version="1.0" encoding="UTF-8"?>
<svg xmlns="http://www.w3.org/2000/svg" xmlns:xlink="http://www.w3.org/1999/xlink" width="28px" height="28px" viewBox="0 0 28 28" version="1.1">
<g id="surface1">
<path style=" stroke:none;fill-rule:nonzero;fill:rgb(92.941176%,41.176471%,36.078431%);fill-opacity:1;" d="M 2.484375 27.761719 L 0.496094 27.761719 C 0.222656 27.761719 0 27.539062 0 27.265625 L 0 9.503906 C 0 9.230469 0.222656 9.007812 0.496094 9.007812 L 2.488281 9.007812 C 2.761719 9.007812 2.984375 9.230469 2.984375 9.503906 L 2.984375 27.265625 C 2.984375 27.539062 2.761719 27.761719 2.488281 27.761719 Z M 0.996094 26.773438 L 1.988281 26.773438 L 1.988281 9.996094 L 0.996094 9.996094 Z M 0.996094 26.773438 "/>
<path style=" stroke:none;fill-rule:nonzero;fill:rgb(92.941176%,41.176471%,36.078431%);fill-opacity:1;" d="M 27.34375 27.761719 L 25.355469 27.761719 C 25.078125 27.761719 24.855469 27.539062 24.855469 27.265625 L 24.855469 9.503906 C 24.855469 9.230469 25.078125 9.007812 25.355469 9.007812 L 27.34375 9.007812 C 27.617188 9.007812 27.839844 9.230469 27.839844 9.503906 L 27.839844 27.265625 C 27.839844 27.539062 27.617188 27.761719 27.34375 27.761719 Z M 25.851562 26.785156 L 26.894531 26.785156 L 26.894531 9.996094 L 25.851562 9.996094 Z M 25.851562 26.785156 "/>
<path style=" stroke:none;fill-rule:nonzero;fill:rgb(92.941176%,41.176471%,36.078431%);fill-opacity:1;" d="M 25.355469 27.761719 L 2.484375 27.761719 C 2.210938 27.761719 1.988281 27.539062 1.988281 27.265625 L 1.988281 11.476562 C 1.988281 11.203125 2.210938 10.984375 2.484375 10.984375 L 7.308594 10.984375 C 7.328125 10.984375 7.347656 10.984375 7.363281 10.984375 C 11.769531 10.984375 16.242188 10.984375 20.476562 10.984375 C 20.496094 10.984375 20.515625 10.984375 20.53125 10.984375 L 25.351562 10.984375 C 25.628906 10.984375 25.851562 11.203125 25.851562 11.476562 L 25.851562 27.265625 C 25.851562 27.539062 25.628906 27.761719 25.351562 27.761719 Z M 2.984375 26.773438 L 24.859375 26.773438 L 24.859375 11.96875 L 20.53125 11.96875 C 20.515625 11.96875 20.492188 11.972656 20.472656 11.972656 C 16.148438 11.972656 11.820312 11.972656 7.367188 11.972656 C 7.347656 11.972656 7.328125 11.96875 7.308594 11.96875 L 2.984375 11.96875 Z M 2.984375 26.773438 "/>
<path style=" stroke:none;fill-rule:nonzero;fill:rgb(92.941176%,41.176471%,36.078431%);fill-opacity:1;" d="M 13.921875 27.761719 C 13.644531 27.761719 13.421875 27.539062 13.421875 27.265625 L 13.421875 11.734375 C 13.421875 11.460938 13.644531 11.238281 13.921875 11.238281 C 14.195312 11.238281 14.417969 11.460938 14.417969 11.734375 L 14.417969 27.265625 C 14.417969 27.539062 14.195312 27.761719 13.921875 27.761719 Z M 13.921875 27.761719 "/>
<path style=" stroke:none;fill-rule:nonzero;fill:rgb(92.941176%,41.176471%,36.078431%);fill-opacity:1;" d="M 16.40625 20.851562 C 16.132812 20.851562 15.910156 20.632812 15.910156 20.359375 L 15.910156 18.382812 C 15.910156 18.113281 16.132812 17.890625 16.40625 17.890625 C 16.679688 17.890625 16.902344 18.113281 16.902344 18.382812 L 16.902344 20.359375 C 16.902344 20.632812 16.679688 20.851562 16.40625 20.851562 Z M 16.40625 20.851562 "/>
<path style=" stroke:none;fill-rule:nonzero;fill:rgb(92.941176%,41.176471%,36.078431%);fill-opacity:1;" d="M 11.433594 20.851562 C 11.160156 20.851562 10.9375 20.632812 10.9375 20.359375 L 10.9375 18.382812 C 10.9375 18.113281 11.160156 17.890625 11.433594 17.890625 C 11.710938 17.890625 11.933594 18.113281 11.933594 18.382812 L 11.933594 20.359375 C 11.933594 20.632812 11.710938 20.851562 11.433594 20.851562 Z M 11.433594 20.851562 "/>
<path style=" stroke:none;fill-rule:nonzero;fill:rgb(92.941176%,41.176471%,36.078431%);fill-opacity:1;" d="M 15.75 7.988281 C 15.617188 7.988281 15.492188 7.933594 15.398438 7.84375 C 15.117188 7.566406 14.738281 7.410156 14.34375 7.410156 C 13.949219 7.410156 13.566406 7.566406 13.289062 7.84375 C 13.195312 7.929688 13.070312 7.980469 12.941406 7.980469 C 12.667969 7.980469 12.445312 7.757812 12.445312 7.488281 C 12.445312 7.359375 12.496094 7.238281 12.585938 7.144531 C 13.050781 6.683594 13.683594 6.421875 14.34375 6.421875 C 15 6.421875 15.632812 6.683594 16.097656 7.144531 C 16.191406 7.238281 16.246094 7.363281 16.246094 7.492188 C 16.246094 7.765625 16.023438 7.988281 15.746094 7.988281 Z M 15.75 7.988281 "/>
<path style=" stroke:none;fill-rule:nonzero;fill:rgb(92.941176%,41.176471%,36.078431%);fill-opacity:1;" d="M 17.15625 6.589844 C 17.023438 6.589844 16.898438 6.539062 16.804688 6.445312 C 16.152344 5.800781 15.265625 5.433594 14.34375 5.433594 C 13.421875 5.433594 12.535156 5.796875 11.882812 6.445312 C 11.789062 6.542969 11.660156 6.59375 11.527344 6.59375 C 11.25 6.59375 11.027344 6.375 11.027344 6.101562 C 11.027344 5.96875 11.082031 5.839844 11.179688 5.75 C 12.019531 4.914062 13.15625 4.445312 14.34375 4.445312 C 15.527344 4.445312 16.667969 4.914062 17.507812 5.746094 C 17.601562 5.839844 17.652344 5.964844 17.652344 6.097656 C 17.652344 6.371094 17.429688 6.589844 17.15625 6.589844 Z M 17.15625 6.589844 "/>
<path style=" stroke:none;fill-rule:nonzero;fill:rgb(92.941176%,41.176471%,36.078431%);fill-opacity:1;" d="M 18.5625 5.195312 C 18.429688 5.195312 18.300781 5.144531 18.210938 5.050781 C 17.183594 4.035156 15.792969 3.464844 14.34375 3.464844 C 12.894531 3.464844 11.5 4.035156 10.476562 5.050781 C 10.382812 5.140625 10.257812 5.191406 10.128906 5.191406 C 9.855469 5.191406 9.632812 4.96875 9.632812 4.695312 C 9.632812 4.566406 9.683594 4.445312 9.773438 4.351562 C 10.988281 3.152344 12.632812 2.476562 14.34375 2.476562 C 16.058594 2.476562 17.699219 3.152344 18.914062 4.351562 C 19.007812 4.445312 19.058594 4.570312 19.058594 4.703125 C 19.058594 4.976562 18.835938 5.195312 18.5625 5.195312 Z M 18.5625 5.195312 "/>
<path style=" stroke:none;fill-rule:nonzero;fill:rgb(92.941176%,41.176471%,36.078431%);fill-opacity:1;" d="M 19.96875 3.800781 C 19.835938 3.800781 19.710938 3.746094 19.617188 3.65625 C 18.21875 2.265625 16.320312 1.488281 14.34375 1.488281 C 12.367188 1.488281 10.46875 2.265625 9.070312 3.65625 C 8.976562 3.753906 8.847656 3.808594 8.710938 3.808594 C 8.433594 3.808594 8.210938 3.589844 8.210938 3.316406 C 8.210938 3.179688 8.269531 3.050781 8.367188 2.957031 C 9.953125 1.386719 12.101562 0.5 14.34375 0.5 C 16.585938 0.5 18.734375 1.386719 20.320312 2.957031 C 20.414062 3.050781 20.464844 3.175781 20.464844 3.304688 C 20.464844 3.578125 20.242188 3.800781 19.96875 3.800781 Z M 19.96875 3.800781 "/>
</g>
</svg>
