<?xml version="1.0" encoding="UTF-8"?>
<svg xmlns="http://www.w3.org/2000/svg" xmlns:xlink="http://www.w3.org/1999/xlink" width="28px" height="28px" viewBox="0 0 28 27" version="1.1">
<g id="surface1">
<path style=" stroke:none;fill-rule:nonzero;fill:rgb(92.941176%,41.176471%,36.078431%);fill-opacity:1;" d="M 2.484375 27.261719 L 0.496094 27.261719 C 0.222656 27.261719 0 27.039062 0 26.765625 L 0 9.003906 C 0 8.730469 0.222656 8.507812 0.496094 8.507812 L 2.488281 8.507812 C 2.761719 8.507812 2.984375 8.730469 2.984375 9.003906 L 2.984375 26.765625 C 2.984375 27.039062 2.761719 27.261719 2.488281 27.261719 Z M 0.996094 26.273438 L 1.988281 26.273438 L 1.988281 9.496094 L 0.996094 9.496094 Z M 0.996094 26.273438 "/>
<path style=" stroke:none;fill-rule:nonzero;fill:rgb(92.941176%,41.176471%,36.078431%);fill-opacity:1;" d="M 27.34375 27.261719 L 25.355469 27.261719 C 25.078125 27.261719 24.855469 27.039062 24.855469 26.765625 L 24.855469 9.003906 C 24.855469 8.730469 25.078125 8.507812 25.355469 8.507812 L 27.34375 8.507812 C 27.617188 8.507812 27.839844 8.730469 27.839844 9.003906 L 27.839844 26.765625 C 27.839844 27.039062 27.617188 27.261719 27.34375 27.261719 Z M 25.851562 26.285156 L 26.894531 26.285156 L 26.894531 9.496094 L 25.851562 9.496094 Z M 25.851562 26.285156 "/>
<path style=" stroke:none;fill-rule:nonzero;fill:rgb(92.941176%,41.176471%,36.078431%);fill-opacity:1;" d="M 25.355469 27.261719 L 2.484375 27.261719 C 2.210938 27.261719 1.988281 27.039062 1.988281 26.765625 L 1.988281 10.976562 C 1.988281 10.703125 2.210938 10.484375 2.484375 10.484375 L 7.308594 10.484375 C 7.328125 10.484375 7.347656 10.484375 7.363281 10.484375 C 11.769531 10.484375 16.242188 10.484375 20.476562 10.484375 C 20.496094 10.484375 20.515625 10.484375 20.53125 10.484375 L 25.351562 10.484375 C 25.628906 10.484375 25.851562 10.703125 25.851562 10.976562 L 25.851562 26.765625 C 25.851562 27.039062 25.628906 27.261719 25.351562 27.261719 Z M 2.984375 26.273438 L 24.859375 26.273438 L 24.859375 11.46875 L 20.53125 11.46875 C 20.515625 11.46875 20.492188 11.472656 20.472656 11.472656 C 16.148438 11.472656 11.820312 11.472656 7.367188 11.472656 C 7.347656 11.472656 7.328125 11.46875 7.308594 11.46875 L 2.984375 11.46875 Z M 2.984375 26.273438 "/>
<path style=" stroke:none;fill-rule:nonzero;fill:rgb(92.941176%,41.176471%,36.078431%);fill-opacity:1;" d="M 13.921875 27.261719 C 13.644531 27.261719 13.421875 27.039062 13.421875 26.765625 L 13.421875 11.234375 C 13.421875 10.960938 13.644531 10.738281 13.921875 10.738281 C 14.195312 10.738281 14.417969 10.960938 14.417969 11.234375 L 14.417969 26.765625 C 14.417969 27.039062 14.195312 27.261719 13.921875 27.261719 Z M 13.921875 27.261719 "/>
<path style=" stroke:none;fill-rule:nonzero;fill:rgb(92.941176%,41.176471%,36.078431%);fill-opacity:1;" d="M 16.40625 20.351562 C 16.132812 20.351562 15.910156 20.132812 15.910156 19.859375 L 15.910156 17.882812 C 15.910156 17.613281 16.132812 17.390625 16.40625 17.390625 C 16.679688 17.390625 16.902344 17.613281 16.902344 17.882812 L 16.902344 19.859375 C 16.902344 20.132812 16.679688 20.351562 16.40625 20.351562 Z M 16.40625 20.351562 "/>
<path style=" stroke:none;fill-rule:nonzero;fill:rgb(92.941176%,41.176471%,36.078431%);fill-opacity:1;" d="M 11.433594 20.351562 C 11.160156 20.351562 10.9375 20.132812 10.9375 19.859375 L 10.9375 17.882812 C 10.9375 17.613281 11.160156 17.390625 11.433594 17.390625 C 11.710938 17.390625 11.933594 17.613281 11.933594 17.882812 L 11.933594 19.859375 C 11.933594 20.132812 11.710938 20.351562 11.433594 20.351562 Z M 11.433594 20.351562 "/>
<path style=" stroke:none;fill-rule:nonzero;fill:rgb(92.941176%,41.176471%,36.078431%);fill-opacity:1;" d="M 15.75 7.488281 C 15.617188 7.488281 15.492188 7.433594 15.398438 7.34375 C 15.117188 7.066406 14.738281 6.910156 14.34375 6.910156 C 13.949219 6.910156 13.566406 7.066406 13.289062 7.34375 C 13.195312 7.429688 13.070312 7.480469 12.941406 7.480469 C 12.667969 7.480469 12.445312 7.257812 12.445312 6.988281 C 12.445312 6.859375 12.496094 6.738281 12.585938 6.644531 C 13.050781 6.183594 13.683594 5.921875 14.34375 5.921875 C 15 5.921875 15.632812 6.183594 16.097656 6.644531 C 16.191406 6.738281 16.246094 6.863281 16.246094 6.992188 C 16.246094 7.265625 16.023438 7.488281 15.746094 7.488281 Z M 15.75 7.488281 "/>
<path style=" stroke:none;fill-rule:nonzero;fill:rgb(92.941176%,41.176471%,36.078431%);fill-opacity:1;" d="M 17.15625 6.089844 C 17.023438 6.089844 16.898438 6.039062 16.804688 5.945312 C 16.152344 5.300781 15.265625 4.933594 14.34375 4.933594 C 13.421875 4.933594 12.535156 5.296875 11.882812 5.945312 C 11.789062 6.042969 11.660156 6.09375 11.527344 6.09375 C 11.25 6.09375 11.027344 5.875 11.027344 5.601562 C 11.027344 5.46875 11.082031 5.339844 11.179688 5.25 C 12.019531 4.414062 13.15625 3.945312 14.34375 3.945312 C 15.527344 3.945312 16.667969 4.414062 17.507812 5.246094 C 17.601562 5.339844 17.652344 5.464844 17.652344 5.597656 C 17.652344 5.871094 17.429688 6.089844 17.15625 6.089844 Z M 17.15625 6.089844 "/>
<path style=" stroke:none;fill-rule:nonzero;fill:rgb(92.941176%,41.176471%,36.078431%);fill-opacity:1;" d="M 18.5625 4.695312 C 18.429688 4.695312 18.300781 4.644531 18.210938 4.550781 C 17.183594 3.535156 15.792969 2.964844 14.34375 2.964844 C 12.894531 2.964844 11.5 3.535156 10.476562 4.550781 C 10.382812 4.640625 10.257812 4.691406 10.128906 4.691406 C 9.855469 4.691406 9.632812 4.46875 9.632812 4.195312 C 9.632812 4.066406 9.683594 3.945312 9.773438 3.851562 C 10.988281 2.652344 12.632812 1.976562 14.34375 1.976562 C 16.058594 1.976562 17.699219 2.652344 18.914062 3.851562 C 19.007812 3.945312 19.058594 4.070312 19.058594 4.203125 C 19.058594 4.476562 18.835938 4.695312 18.5625 4.695312 Z M 18.5625 4.695312 "/>
<path style=" stroke:none;fill-rule:nonzero;fill:rgb(92.941176%,41.176471%,36.078431%);fill-opacity:1;" d="M 19.96875 3.300781 C 19.835938 3.300781 19.710938 3.246094 19.617188 3.15625 C 18.21875 1.765625 16.320312 0.988281 14.34375 0.988281 C 12.367188 0.988281 10.46875 1.765625 9.070312 3.15625 C 8.976562 3.253906 8.847656 3.308594 8.710938 3.308594 C 8.433594 3.308594 8.210938 3.089844 8.210938 2.816406 C 8.210938 2.679688 8.269531 2.550781 8.367188 2.457031 C 9.953125 0.886719 12.101562 0 14.34375 0 C 16.585938 0 18.734375 0.886719 20.320312 2.457031 C 20.414062 2.550781 20.464844 2.675781 20.464844 2.804688 C 20.464844 3.078125 20.242188 3.300781 19.96875 3.300781 Z M 19.96875 3.300781 "/>
</g>
</svg>
