<?xml version="1.0" encoding="UTF-8"?>
<svg xmlns="http://www.w3.org/2000/svg" xmlns:xlink="http://www.w3.org/1999/xlink" width="28px" height="28px" viewBox="0 0 28 19" version="1.1">
<g id="surface1">
<path style=" stroke:none;fill-rule:nonzero;fill:rgb(92.941176%,41.176471%,36.078431%);fill-opacity:1;" d="M 2.484375 18.695312 L 0.496094 18.695312 C 0.222656 18.695312 0 18.472656 0 18.203125 L 0 0.492188 C 0 0.21875 0.222656 0 0.496094 0 L 2.484375 0 C 2.761719 0 2.984375 0.21875 2.984375 0.492188 L 2.984375 18.203125 C 2.984375 18.472656 2.761719 18.695312 2.484375 18.695312 Z M 0.996094 17.710938 L 1.988281 17.710938 L 1.988281 0.984375 L 0.996094 0.984375 Z M 0.996094 17.710938 "/>
<path style=" stroke:none;fill-rule:nonzero;fill:rgb(92.941176%,41.176471%,36.078431%);fill-opacity:1;" d="M 27.34375 18.695312 L 25.355469 18.695312 C 25.078125 18.695312 24.855469 18.472656 24.855469 18.203125 L 24.855469 0.492188 C 24.855469 0.21875 25.078125 0 25.355469 0 L 27.34375 0 C 27.617188 0 27.839844 0.21875 27.839844 0.492188 L 27.839844 18.203125 C 27.839844 18.472656 27.617188 18.695312 27.34375 18.695312 Z M 25.851562 17.722656 L 26.894531 17.722656 L 26.894531 0.984375 L 25.851562 0.984375 Z M 25.851562 17.722656 "/>
<path style=" stroke:none;fill-rule:nonzero;fill:rgb(92.941176%,41.176471%,36.078431%);fill-opacity:1;" d="M 25.355469 18.695312 L 2.484375 18.695312 C 2.210938 18.695312 1.988281 18.472656 1.988281 18.203125 L 1.988281 2.460938 C 1.988281 2.1875 2.210938 1.96875 2.484375 1.96875 L 7.308594 1.96875 C 7.328125 1.96875 7.347656 1.96875 7.363281 1.96875 C 11.769531 1.96875 16.242188 1.96875 20.476562 1.96875 C 20.496094 1.96875 20.515625 1.96875 20.53125 1.96875 L 25.355469 1.96875 C 25.628906 1.96875 25.851562 2.1875 25.851562 2.460938 L 25.851562 18.203125 C 25.851562 18.472656 25.628906 18.695312 25.355469 18.695312 Z M 2.984375 17.710938 L 24.859375 17.710938 L 24.859375 2.953125 L 20.53125 2.953125 C 20.511719 2.953125 20.492188 2.953125 20.472656 2.953125 C 16.148438 2.953125 11.820312 2.953125 7.367188 2.953125 C 7.347656 2.953125 7.328125 2.953125 7.308594 2.953125 L 2.984375 2.953125 Z M 2.984375 17.710938 "/>
<path style=" stroke:none;fill-rule:nonzero;fill:rgb(92.941176%,41.176471%,36.078431%);fill-opacity:1;" d="M 13.921875 18.695312 C 13.644531 18.695312 13.421875 18.472656 13.421875 18.203125 L 13.421875 2.714844 C 13.421875 2.445312 13.644531 2.222656 13.921875 2.222656 C 14.195312 2.222656 14.417969 2.445312 14.417969 2.714844 L 14.417969 18.203125 C 14.417969 18.472656 14.195312 18.695312 13.921875 18.695312 Z M 13.921875 18.695312 "/>
<path style=" stroke:none;fill-rule:nonzero;fill:rgb(92.941176%,41.176471%,36.078431%);fill-opacity:1;" d="M 16.40625 11.808594 C 16.132812 11.808594 15.910156 11.585938 15.910156 11.316406 L 15.910156 9.347656 C 15.910156 9.074219 16.132812 8.855469 16.40625 8.855469 C 16.679688 8.855469 16.902344 9.074219 16.902344 9.347656 L 16.902344 11.316406 C 16.902344 11.585938 16.679688 11.808594 16.40625 11.808594 Z M 16.40625 11.808594 "/>
<path style=" stroke:none;fill-rule:nonzero;fill:rgb(92.941176%,41.176471%,36.078431%);fill-opacity:1;" d="M 11.433594 11.808594 C 11.160156 11.808594 10.9375 11.585938 10.9375 11.316406 L 10.9375 9.347656 C 10.9375 9.074219 11.160156 8.855469 11.433594 8.855469 C 11.710938 8.855469 11.929688 9.074219 11.929688 9.347656 L 11.929688 11.316406 C 11.929688 11.585938 11.710938 11.808594 11.433594 11.808594 Z M 11.433594 11.808594 "/>
</g>
</svg>
