<?xml version="1.0" encoding="UTF-8"?>
<svg xmlns="http://www.w3.org/2000/svg" xmlns:xlink="http://www.w3.org/1999/xlink" width="28px" height="28px" viewBox="0 0 28 28" version="1.1">
<g id="surface1">
<path style=" stroke:none;fill-rule:nonzero;fill:rgb(92.941176%,41.176471%,36.078431%);fill-opacity:1;" d="M 2.484375 23.195312 L 0.496094 23.195312 C 0.222656 23.195312 0 22.972656 0 22.703125 L 0 4.992188 C 0 4.71875 0.222656 4.5 0.496094 4.5 L 2.484375 4.5 C 2.761719 4.5 2.984375 4.71875 2.984375 4.992188 L 2.984375 22.703125 C 2.984375 22.972656 2.761719 23.195312 2.484375 23.195312 Z M 0.996094 22.210938 L 1.988281 22.210938 L 1.988281 5.484375 L 0.996094 5.484375 Z M 0.996094 22.210938 "/>
<path style=" stroke:none;fill-rule:nonzero;fill:rgb(92.941176%,41.176471%,36.078431%);fill-opacity:1;" d="M 27.34375 23.195312 L 25.355469 23.195312 C 25.078125 23.195312 24.855469 22.972656 24.855469 22.703125 L 24.855469 4.992188 C 24.855469 4.71875 25.078125 4.5 25.355469 4.5 L 27.34375 4.5 C 27.617188 4.5 27.839844 4.71875 27.839844 4.992188 L 27.839844 22.703125 C 27.839844 22.972656 27.617188 23.195312 27.34375 23.195312 Z M 25.851562 22.222656 L 26.894531 22.222656 L 26.894531 5.484375 L 25.851562 5.484375 Z M 25.851562 22.222656 "/>
<path style=" stroke:none;fill-rule:nonzero;fill:rgb(92.941176%,41.176471%,36.078431%);fill-opacity:1;" d="M 25.355469 23.195312 L 2.484375 23.195312 C 2.210938 23.195312 1.988281 22.972656 1.988281 22.703125 L 1.988281 6.960938 C 1.988281 6.6875 2.210938 6.46875 2.484375 6.46875 L 7.308594 6.46875 C 7.328125 6.46875 7.347656 6.46875 7.363281 6.46875 C 11.769531 6.46875 16.242188 6.46875 20.476562 6.46875 C 20.496094 6.46875 20.515625 6.46875 20.53125 6.46875 L 25.355469 6.46875 C 25.628906 6.46875 25.851562 6.6875 25.851562 6.960938 L 25.851562 22.703125 C 25.851562 22.972656 25.628906 23.195312 25.355469 23.195312 Z M 2.984375 22.210938 L 24.859375 22.210938 L 24.859375 7.453125 L 20.53125 7.453125 C 20.511719 7.453125 20.492188 7.453125 20.472656 7.453125 C 16.148438 7.453125 11.820312 7.453125 7.367188 7.453125 C 7.347656 7.453125 7.328125 7.453125 7.308594 7.453125 L 2.984375 7.453125 Z M 2.984375 22.210938 "/>
<path style=" stroke:none;fill-rule:nonzero;fill:rgb(92.941176%,41.176471%,36.078431%);fill-opacity:1;" d="M 13.921875 23.195312 C 13.644531 23.195312 13.421875 22.972656 13.421875 22.703125 L 13.421875 7.214844 C 13.421875 6.945312 13.644531 6.722656 13.921875 6.722656 C 14.195312 6.722656 14.417969 6.945312 14.417969 7.214844 L 14.417969 22.703125 C 14.417969 22.972656 14.195312 23.195312 13.921875 23.195312 Z M 13.921875 23.195312 "/>
<path style=" stroke:none;fill-rule:nonzero;fill:rgb(92.941176%,41.176471%,36.078431%);fill-opacity:1;" d="M 16.40625 16.308594 C 16.132812 16.308594 15.910156 16.085938 15.910156 15.816406 L 15.910156 13.847656 C 15.910156 13.574219 16.132812 13.355469 16.40625 13.355469 C 16.679688 13.355469 16.902344 13.574219 16.902344 13.847656 L 16.902344 15.816406 C 16.902344 16.085938 16.679688 16.308594 16.40625 16.308594 Z M 16.40625 16.308594 "/>
<path style=" stroke:none;fill-rule:nonzero;fill:rgb(92.941176%,41.176471%,36.078431%);fill-opacity:1;" d="M 11.433594 16.308594 C 11.160156 16.308594 10.9375 16.085938 10.9375 15.816406 L 10.9375 13.847656 C 10.9375 13.574219 11.160156 13.355469 11.433594 13.355469 C 11.710938 13.355469 11.929688 13.574219 11.929688 13.847656 L 11.929688 15.816406 C 11.929688 16.085938 11.710938 16.308594 11.433594 16.308594 Z M 11.433594 16.308594 "/>
</g>
</svg>
