<?xml version="1.0" encoding="UTF-8"?>
<svg xmlns="http://www.w3.org/2000/svg" xmlns:xlink="http://www.w3.org/1999/xlink" width="28px" height="28px" viewBox="0 0 28 28" version="1.1">
<g id="surface1">
<path style=" stroke:none;fill-rule:nonzero;fill:rgb(92.941176%,41.176471%,36.078431%);fill-opacity:1;" d="M 2.488281 23.195312 L 0.5 23.195312 C 0.222656 23.195312 0 22.972656 0 22.703125 L 0 4.992188 C 0 4.722656 0.226562 4.5 0.5 4.5 L 2.488281 4.5 C 2.761719 4.5 2.984375 4.722656 2.984375 4.992188 L 2.984375 22.703125 C 2.984375 22.976562 2.761719 23.195312 2.488281 23.195312 Z M 0.996094 22.210938 L 1.988281 22.210938 L 1.988281 5.484375 L 0.996094 5.484375 Z M 0.996094 22.210938 "/>
<path style=" stroke:none;fill-rule:nonzero;fill:rgb(92.941176%,41.176471%,36.078431%);fill-opacity:1;" d="M 27.34375 23.195312 L 25.355469 23.195312 C 25.082031 23.195312 24.859375 22.976562 24.859375 22.703125 L 24.859375 4.992188 C 24.859375 4.722656 25.082031 4.5 25.355469 4.5 L 27.34375 4.5 C 27.617188 4.5 27.839844 4.722656 27.839844 4.992188 L 27.839844 22.703125 C 27.839844 22.976562 27.617188 23.195312 27.34375 23.195312 Z M 25.851562 22.222656 L 26.890625 22.222656 L 26.890625 5.484375 L 25.851562 5.484375 Z M 25.851562 22.222656 "/>
<path style=" stroke:none;fill-rule:nonzero;fill:rgb(92.941176%,41.176471%,36.078431%);fill-opacity:1;" d="M 20.15625 23.195312 L 2.484375 23.195312 C 2.210938 23.195312 1.988281 22.976562 1.988281 22.703125 L 1.988281 6.960938 C 1.988281 6.6875 2.210938 6.46875 2.488281 6.46875 L 7.308594 6.46875 C 7.328125 6.46875 7.347656 6.46875 7.367188 6.46875 C 11.773438 6.46875 16.242188 6.46875 20.476562 6.46875 C 20.496094 6.46875 20.550781 6.46875 20.535156 6.46875 L 20.160156 6.46875 C 20.433594 6.46875 20.65625 6.691406 20.65625 6.960938 L 20.65625 22.703125 C 20.65625 22.976562 20.160156 22.921875 20.160156 23.195312 Z M 2.984375 22.210938 L 19.660156 22.210938 L 19.660156 7.453125 L 20.53125 7.453125 C 20.511719 7.453125 20.492188 7.453125 20.472656 7.453125 C 16.148438 7.453125 11.820312 7.453125 7.367188 7.453125 C 7.347656 7.453125 7.328125 7.453125 7.308594 7.453125 L 2.984375 7.453125 Z M 2.984375 22.210938 "/>
<path style=" stroke:none;fill-rule:nonzero;fill:rgb(92.941176%,41.176471%,36.078431%);fill-opacity:1;" d="M 9.875 23.066406 C 9.597656 23.066406 9.378906 22.84375 9.378906 22.574219 L 9.378906 7.085938 C 9.378906 6.8125 9.601562 6.59375 9.875 6.59375 C 10.148438 6.59375 10.371094 6.8125 10.371094 7.085938 L 10.371094 22.574219 C 10.371094 22.84375 10.148438 23.0625 9.875 23.0625 Z M 9.875 23.066406 "/>
<path style=" stroke:none;fill-rule:nonzero;fill:rgb(92.941176%,41.176471%,36.078431%);fill-opacity:1;" d="M 6.269531 23.066406 C 5.992188 23.066406 5.769531 22.84375 5.769531 22.574219 L 5.769531 7.085938 C 5.769531 6.8125 5.996094 6.59375 6.269531 6.59375 C 6.542969 6.59375 6.765625 6.8125 6.765625 7.085938 L 6.765625 22.574219 C 6.765625 22.84375 6.542969 23.0625 6.269531 23.0625 Z M 6.269531 23.066406 "/>
<path style=" stroke:none;fill-rule:nonzero;fill:rgb(92.941176%,41.176471%,36.078431%);fill-opacity:1;" d="M 16.699219 23.066406 C 16.425781 23.066406 16.203125 22.84375 16.203125 22.574219 L 16.203125 7.085938 C 16.203125 6.8125 16.425781 6.59375 16.699219 6.59375 C 16.972656 6.59375 17.195312 6.8125 17.195312 7.085938 L 17.195312 22.574219 C 17.195312 22.84375 16.972656 23.0625 16.699219 23.0625 Z M 16.699219 23.066406 "/>
<path style=" stroke:none;fill-rule:nonzero;fill:rgb(92.941176%,41.176471%,36.078431%);fill-opacity:1;" d="M 13.09375 23.066406 C 12.820312 23.066406 12.597656 22.84375 12.597656 22.574219 L 12.597656 7.085938 C 12.597656 6.8125 12.820312 6.59375 13.09375 6.59375 C 13.367188 6.59375 13.589844 6.8125 13.589844 7.085938 L 13.589844 22.574219 C 13.589844 22.84375 13.367188 23.0625 13.09375 23.0625 Z M 13.09375 23.066406 "/>
</g>
</svg>
