<?xml version="1.0" encoding="UTF-8"?>
<svg xmlns="http://www.w3.org/2000/svg" xmlns:xlink="http://www.w3.org/1999/xlink" width="28px" height="28px" viewBox="0 0 28 19" version="1.1">
<g id="surface1">
<path style=" stroke:none;fill-rule:nonzero;fill:rgb(92.941176%,41.176471%,36.078431%);fill-opacity:1;" d="M 2.488281 18.695312 L 0.5 18.695312 C 0.222656 18.695312 0 18.472656 0 18.203125 L 0 0.492188 C 0 0.222656 0.226562 0 0.5 0 L 2.488281 0 C 2.761719 0 2.984375 0.222656 2.984375 0.492188 L 2.984375 18.203125 C 2.984375 18.476562 2.761719 18.695312 2.488281 18.695312 Z M 0.996094 17.710938 L 1.988281 17.710938 L 1.988281 0.984375 L 0.996094 0.984375 Z M 0.996094 17.710938 "/>
<path style=" stroke:none;fill-rule:nonzero;fill:rgb(92.941176%,41.176471%,36.078431%);fill-opacity:1;" d="M 27.34375 18.695312 L 25.355469 18.695312 C 25.082031 18.695312 24.859375 18.476562 24.859375 18.203125 L 24.859375 0.492188 C 24.859375 0.222656 25.082031 0 25.355469 0 L 27.34375 0 C 27.617188 0 27.839844 0.222656 27.839844 0.492188 L 27.839844 18.203125 C 27.839844 18.476562 27.617188 18.695312 27.34375 18.695312 Z M 25.851562 17.722656 L 26.890625 17.722656 L 26.890625 0.984375 L 25.851562 0.984375 Z M 25.851562 17.722656 "/>
<path style=" stroke:none;fill-rule:nonzero;fill:rgb(92.941176%,41.176471%,36.078431%);fill-opacity:1;" d="M 20.15625 18.695312 L 2.484375 18.695312 C 2.210938 18.695312 1.988281 18.476562 1.988281 18.203125 L 1.988281 2.460938 C 1.988281 2.1875 2.210938 1.96875 2.488281 1.96875 L 7.308594 1.96875 C 7.328125 1.96875 7.347656 1.96875 7.367188 1.96875 C 11.773438 1.96875 16.242188 1.96875 20.476562 1.96875 C 20.496094 1.96875 20.550781 1.96875 20.535156 1.96875 L 20.160156 1.96875 C 20.433594 1.96875 20.65625 2.191406 20.65625 2.460938 L 20.65625 18.203125 C 20.65625 18.476562 20.160156 18.421875 20.160156 18.695312 Z M 2.984375 17.710938 L 19.660156 17.710938 L 19.660156 2.953125 L 20.53125 2.953125 C 20.511719 2.953125 20.492188 2.953125 20.472656 2.953125 C 16.148438 2.953125 11.820312 2.953125 7.367188 2.953125 C 7.347656 2.953125 7.328125 2.953125 7.308594 2.953125 L 2.984375 2.953125 Z M 2.984375 17.710938 "/>
<path style=" stroke:none;fill-rule:nonzero;fill:rgb(92.941176%,41.176471%,36.078431%);fill-opacity:1;" d="M 9.875 18.566406 C 9.597656 18.566406 9.378906 18.34375 9.378906 18.074219 L 9.378906 2.585938 C 9.378906 2.3125 9.601562 2.09375 9.875 2.09375 C 10.148438 2.09375 10.371094 2.3125 10.371094 2.585938 L 10.371094 18.074219 C 10.371094 18.34375 10.148438 18.5625 9.875 18.5625 Z M 9.875 18.566406 "/>
<path style=" stroke:none;fill-rule:nonzero;fill:rgb(92.941176%,41.176471%,36.078431%);fill-opacity:1;" d="M 6.269531 18.566406 C 5.992188 18.566406 5.769531 18.34375 5.769531 18.074219 L 5.769531 2.585938 C 5.769531 2.3125 5.996094 2.09375 6.269531 2.09375 C 6.542969 2.09375 6.765625 2.3125 6.765625 2.585938 L 6.765625 18.074219 C 6.765625 18.34375 6.542969 18.5625 6.269531 18.5625 Z M 6.269531 18.566406 "/>
<path style=" stroke:none;fill-rule:nonzero;fill:rgb(92.941176%,41.176471%,36.078431%);fill-opacity:1;" d="M 16.699219 18.566406 C 16.425781 18.566406 16.203125 18.34375 16.203125 18.074219 L 16.203125 2.585938 C 16.203125 2.3125 16.425781 2.09375 16.699219 2.09375 C 16.972656 2.09375 17.195312 2.3125 17.195312 2.585938 L 17.195312 18.074219 C 17.195312 18.34375 16.972656 18.5625 16.699219 18.5625 Z M 16.699219 18.566406 "/>
<path style=" stroke:none;fill-rule:nonzero;fill:rgb(92.941176%,41.176471%,36.078431%);fill-opacity:1;" d="M 13.09375 18.566406 C 12.820312 18.566406 12.597656 18.34375 12.597656 18.074219 L 12.597656 2.585938 C 12.597656 2.3125 12.820312 2.09375 13.09375 2.09375 C 13.367188 2.09375 13.589844 2.3125 13.589844 2.585938 L 13.589844 18.074219 C 13.589844 18.34375 13.367188 18.5625 13.09375 18.5625 Z M 13.09375 18.566406 "/>
</g>
</svg>
