<?xml version="1.0" encoding="UTF-8"?>
<svg xmlns="http://www.w3.org/2000/svg" xmlns:xlink="http://www.w3.org/1999/xlink" width="28px" height="28px" viewBox="0 0 28 19" version="1.1">
<g id="surface1">
<path style=" stroke:none;fill-rule:nonzero;fill:rgb(92.941176%,41.176471%,36.078431%);fill-opacity:1;" d="M 2.488281 18.695312 L 0.5 18.695312 C 0.226562 18.695312 0.00390625 18.472656 0.00390625 18.203125 L 0.00390625 0.492188 C 0.00390625 0.222656 0.226562 0.00390625 0.5 0.00390625 L 2.488281 0.00390625 C 2.761719 0.00390625 2.984375 0.222656 2.984375 0.492188 L 2.984375 18.203125 C 2.984375 18.472656 2.761719 18.695312 2.488281 18.695312 Z M 0.996094 17.710938 L 1.992188 17.710938 L 1.992188 0.984375 L 0.996094 0.984375 Z M 0.996094 17.710938 "/>
<path style=" stroke:none;fill-rule:nonzero;fill:rgb(92.941176%,41.176471%,36.078431%);fill-opacity:1;" d="M 27.34375 18.695312 L 25.355469 18.695312 C 25.082031 18.695312 24.859375 18.472656 24.859375 18.203125 L 24.859375 0.492188 C 24.859375 0.222656 25.082031 0.00390625 25.355469 0.00390625 L 27.34375 0.00390625 C 27.617188 0.00390625 27.839844 0.222656 27.839844 0.492188 L 27.839844 18.203125 C 27.839844 18.476562 27.617188 18.695312 27.34375 18.695312 Z M 25.851562 17.722656 L 26.890625 17.722656 L 26.890625 0.984375 L 25.851562 0.984375 Z M 25.851562 17.722656 "/>
<path style=" stroke:none;fill-rule:nonzero;fill:rgb(92.941176%,41.176471%,36.078431%);fill-opacity:1;" d="M 20.652344 13.523438 L 20.652344 18.203125 C 20.652344 18.476562 20.441406 18.683594 20.15625 18.695312 L 2.488281 18.695312 C 2.210938 18.695312 1.992188 18.472656 1.992188 18.203125 L 1.992188 2.460938 C 1.992188 2.191406 2.214844 1.96875 2.488281 1.96875 L 7.308594 1.96875 C 7.328125 1.96875 7.347656 1.96875 7.363281 1.96875 C 11.769531 1.96875 16.242188 1.96875 20.476562 1.96875 C 20.492188 1.96875 20.550781 1.96875 20.53125 1.96875 L 20.15625 1.96875 C 20.433594 1.96875 20.652344 2.191406 20.652344 2.460938 Z M 2.984375 17.710938 L 19.644531 17.667969 L 19.644531 13.523438 L 20.652344 13.523438 L 20.65625 7.277344 L 19.671875 7.277344 L 19.660156 2.953125 L 20.53125 2.953125 C 20.511719 2.953125 20.492188 2.953125 20.472656 2.953125 C 16.148438 2.953125 11.820312 2.953125 7.367188 2.953125 C 7.347656 2.953125 7.328125 2.953125 7.308594 2.953125 L 2.984375 2.953125 Z M 2.984375 17.710938 "/>
<path style=" stroke:none;fill-rule:nonzero;fill:rgb(92.941176%,41.176471%,36.078431%);fill-opacity:1;" d="M 9.871094 18.566406 C 9.601562 18.566406 9.375 18.34375 9.375 18.074219 L 9.375 2.585938 C 9.375 2.3125 9.601562 2.09375 9.871094 2.09375 C 10.144531 2.09375 10.371094 2.316406 10.371094 2.585938 L 10.371094 18.074219 C 10.371094 18.347656 10.144531 18.566406 9.871094 18.566406 Z M 9.871094 18.566406 "/>
<path style=" stroke:none;fill-rule:nonzero;fill:rgb(92.941176%,41.176471%,36.078431%);fill-opacity:1;" d="M 6.269531 18.566406 C 5.996094 18.566406 5.773438 18.34375 5.773438 18.074219 L 5.773438 2.585938 C 5.773438 2.3125 5.996094 2.09375 6.269531 2.09375 C 6.542969 2.09375 6.765625 2.316406 6.765625 2.585938 L 6.765625 18.074219 C 6.765625 18.347656 6.542969 18.566406 6.269531 18.566406 Z M 6.269531 18.566406 "/>
<path style=" stroke:none;fill-rule:nonzero;fill:rgb(92.941176%,41.176471%,36.078431%);fill-opacity:1;" d="M 16.765625 7.355469 C 16.492188 7.355469 16.269531 7.132812 16.269531 6.863281 L 16.269531 2.957031 C 16.269531 2.683594 16.492188 2.464844 16.765625 2.464844 C 17.039062 2.464844 17.261719 2.683594 17.261719 2.957031 L 17.261719 6.863281 C 17.261719 7.136719 16.765625 7.085938 16.765625 7.355469 Z M 16.765625 7.355469 "/>
<path style=" stroke:none;fill-rule:nonzero;fill:rgb(92.941176%,41.176471%,36.078431%);fill-opacity:1;" d="M 13.09375 18.566406 C 12.820312 18.566406 12.597656 18.34375 12.597656 18.074219 L 12.597656 2.585938 C 12.597656 2.3125 12.820312 2.09375 13.09375 2.09375 C 13.367188 2.09375 13.589844 2.316406 13.589844 2.585938 L 13.589844 18.074219 C 13.589844 18.347656 13.367188 18.566406 13.09375 18.566406 Z M 13.09375 18.566406 "/>
<path style=" stroke:none;fill-rule:nonzero;fill:rgb(92.941176%,41.176471%,36.078431%);fill-opacity:1;" d="M 19.90625 8.421875 L 21.300781 9.804688 L 16.652344 9.804688 C 16.503906 9.804688 16.390625 9.921875 16.390625 10.066406 C 16.390625 10.207031 16.503906 10.324219 16.652344 10.324219 L 21.300781 10.324219 L 19.90625 11.710938 C 19.800781 11.8125 19.800781 11.980469 19.90625 12.082031 C 20.003906 12.179688 20.171875 12.179688 20.277344 12.082031 C 22.230469 10.140625 22.136719 10.25 22.171875 10.1875 C 22.214844 10.113281 22.214844 10.027344 22.175781 9.953125 C 22.148438 9.894531 22.199219 9.953125 20.277344 8.050781 C 20.171875 7.949219 20.003906 7.949219 19.90625 8.050781 C 19.800781 8.152344 19.800781 8.316406 19.90625 8.421875 Z M 19.90625 8.421875 "/>
<path style=" stroke:none;fill-rule:nonzero;fill:rgb(92.941176%,41.176471%,36.078431%);fill-opacity:1;" d="M 18.691406 11.710938 L 17.296875 10.324219 L 21.941406 10.324219 C 22.089844 10.324219 22.203125 10.207031 22.203125 10.066406 C 22.203125 9.921875 22.089844 9.804688 21.941406 9.804688 L 17.296875 9.804688 L 18.691406 8.421875 C 18.796875 8.320312 18.796875 8.152344 18.691406 8.050781 C 18.585938 7.949219 18.425781 7.949219 18.320312 8.050781 C 16.363281 9.988281 16.457031 9.878906 16.421875 9.941406 C 16.386719 10.015625 16.378906 10.101562 16.414062 10.175781 C 16.445312 10.234375 16.398438 10.175781 18.320312 12.082031 C 18.425781 12.179688 18.585938 12.179688 18.691406 12.082031 C 18.796875 11.980469 18.796875 11.8125 18.691406 11.710938 Z M 18.691406 11.710938 "/>
<path style=" stroke:none;fill-rule:nonzero;fill:rgb(92.941176%,41.176471%,36.078431%);fill-opacity:1;" d="M 21.484375 7.164062 C 21.484375 6.9375 21.296875 6.753906 21.0625 6.753906 L 15.359375 6.753906 C 14.6875 6.753906 14.132812 7.296875 14.132812 7.964844 L 14.132812 12.3125 C 14.132812 12.984375 14.6875 13.527344 15.359375 13.527344 L 23.148438 13.527344 C 23.816406 13.515625 24.355469 12.976562 24.355469 12.3125 L 24.355469 7.964844 C 24.355469 7.296875 23.804688 6.753906 23.125 6.753906 L 20.398438 6.753906 C 19.878906 6.753906 19.855469 7.582031 20.398438 7.582031 L 23.125 7.582031 C 23.339844 7.582031 23.515625 7.753906 23.515625 7.964844 L 23.515625 12.3125 C 23.515625 12.527344 23.339844 12.699219 23.125 12.699219 L 15.355469 12.699219 C 15.148438 12.699219 14.96875 12.527344 14.96875 12.3125 L 14.96875 7.964844 C 14.96875 7.753906 15.148438 7.582031 15.355469 7.582031 L 21.0625 7.582031 C 21.296875 7.582031 21.480469 7.398438 21.480469 7.164062 Z M 21.484375 7.164062 "/>
<path style=" stroke:none;fill-rule:nonzero;fill:rgb(92.941176%,41.176471%,36.078431%);fill-opacity:1;" d="M 16.699219 18.417969 C 16.425781 18.417969 16.203125 18.199219 16.203125 17.929688 L 16.203125 13.386719 C 16.203125 13.113281 16.425781 12.894531 16.699219 12.894531 C 16.972656 12.894531 17.195312 13.113281 17.195312 13.386719 L 17.195312 17.929688 C 17.195312 18.199219 16.699219 18.148438 16.699219 18.417969 Z M 16.699219 18.417969 "/>
</g>
</svg>
