<?xml version="1.0" encoding="UTF-8"?>
<svg xmlns="http://www.w3.org/2000/svg" xmlns:xlink="http://www.w3.org/1999/xlink" width="28px" height="28px" viewBox="0 0 28 28" version="1.1">
<g id="surface1">
<path style=" stroke:none;fill-rule:nonzero;fill:rgb(92.941176%,41.176471%,36.078431%);fill-opacity:1;" d="M 2.488281 23.195312 L 0.5 23.195312 C 0.226562 23.195312 0.00390625 22.972656 0.00390625 22.703125 L 0.00390625 4.992188 C 0.00390625 4.722656 0.226562 4.503906 0.5 4.503906 L 2.488281 4.503906 C 2.761719 4.503906 2.984375 4.722656 2.984375 4.992188 L 2.984375 22.703125 C 2.984375 22.972656 2.761719 23.195312 2.488281 23.195312 Z M 0.996094 22.210938 L 1.992188 22.210938 L 1.992188 5.484375 L 0.996094 5.484375 Z M 0.996094 22.210938 "/>
<path style=" stroke:none;fill-rule:nonzero;fill:rgb(92.941176%,41.176471%,36.078431%);fill-opacity:1;" d="M 27.34375 23.195312 L 25.355469 23.195312 C 25.082031 23.195312 24.859375 22.972656 24.859375 22.703125 L 24.859375 4.992188 C 24.859375 4.722656 25.082031 4.503906 25.355469 4.503906 L 27.34375 4.503906 C 27.617188 4.503906 27.839844 4.722656 27.839844 4.992188 L 27.839844 22.703125 C 27.839844 22.976562 27.617188 23.195312 27.34375 23.195312 Z M 25.851562 22.222656 L 26.890625 22.222656 L 26.890625 5.484375 L 25.851562 5.484375 Z M 25.851562 22.222656 "/>
<path style=" stroke:none;fill-rule:nonzero;fill:rgb(92.941176%,41.176471%,36.078431%);fill-opacity:1;" d="M 20.652344 18.023438 L 20.652344 22.703125 C 20.652344 22.976562 20.441406 23.183594 20.15625 23.195312 L 2.488281 23.195312 C 2.210938 23.195312 1.992188 22.972656 1.992188 22.703125 L 1.992188 6.960938 C 1.992188 6.691406 2.214844 6.46875 2.488281 6.46875 L 7.308594 6.46875 C 7.328125 6.46875 7.347656 6.46875 7.363281 6.46875 C 11.769531 6.46875 16.242188 6.46875 20.476562 6.46875 C 20.492188 6.46875 20.550781 6.46875 20.53125 6.46875 L 20.15625 6.46875 C 20.433594 6.46875 20.652344 6.691406 20.652344 6.960938 Z M 2.984375 22.210938 L 19.644531 22.167969 L 19.644531 18.023438 L 20.652344 18.023438 L 20.65625 11.777344 L 19.671875 11.777344 L 19.660156 7.453125 L 20.53125 7.453125 C 20.511719 7.453125 20.492188 7.453125 20.472656 7.453125 C 16.148438 7.453125 11.820312 7.453125 7.367188 7.453125 C 7.347656 7.453125 7.328125 7.453125 7.308594 7.453125 L 2.984375 7.453125 Z M 2.984375 22.210938 "/>
<path style=" stroke:none;fill-rule:nonzero;fill:rgb(92.941176%,41.176471%,36.078431%);fill-opacity:1;" d="M 9.871094 23.066406 C 9.601562 23.066406 9.375 22.84375 9.375 22.574219 L 9.375 7.085938 C 9.375 6.8125 9.601562 6.59375 9.871094 6.59375 C 10.144531 6.59375 10.371094 6.816406 10.371094 7.085938 L 10.371094 22.574219 C 10.371094 22.847656 10.144531 23.066406 9.871094 23.066406 Z M 9.871094 23.066406 "/>
<path style=" stroke:none;fill-rule:nonzero;fill:rgb(92.941176%,41.176471%,36.078431%);fill-opacity:1;" d="M 6.269531 23.066406 C 5.996094 23.066406 5.773438 22.84375 5.773438 22.574219 L 5.773438 7.085938 C 5.773438 6.8125 5.996094 6.59375 6.269531 6.59375 C 6.542969 6.59375 6.765625 6.816406 6.765625 7.085938 L 6.765625 22.574219 C 6.765625 22.847656 6.542969 23.066406 6.269531 23.066406 Z M 6.269531 23.066406 "/>
<path style=" stroke:none;fill-rule:nonzero;fill:rgb(92.941176%,41.176471%,36.078431%);fill-opacity:1;" d="M 16.765625 11.855469 C 16.492188 11.855469 16.269531 11.632812 16.269531 11.363281 L 16.269531 7.457031 C 16.269531 7.183594 16.492188 6.964844 16.765625 6.964844 C 17.039062 6.964844 17.261719 7.183594 17.261719 7.457031 L 17.261719 11.363281 C 17.261719 11.636719 16.765625 11.585938 16.765625 11.855469 Z M 16.765625 11.855469 "/>
<path style=" stroke:none;fill-rule:nonzero;fill:rgb(92.941176%,41.176471%,36.078431%);fill-opacity:1;" d="M 13.09375 23.066406 C 12.820312 23.066406 12.597656 22.84375 12.597656 22.574219 L 12.597656 7.085938 C 12.597656 6.8125 12.820312 6.59375 13.09375 6.59375 C 13.367188 6.59375 13.589844 6.816406 13.589844 7.085938 L 13.589844 22.574219 C 13.589844 22.847656 13.367188 23.066406 13.09375 23.066406 Z M 13.09375 23.066406 "/>
<path style=" stroke:none;fill-rule:nonzero;fill:rgb(92.941176%,41.176471%,36.078431%);fill-opacity:1;" d="M 19.90625 12.921875 L 21.300781 14.304688 L 16.652344 14.304688 C 16.503906 14.304688 16.390625 14.421875 16.390625 14.566406 C 16.390625 14.707031 16.503906 14.824219 16.652344 14.824219 L 21.300781 14.824219 L 19.90625 16.210938 C 19.800781 16.3125 19.800781 16.480469 19.90625 16.582031 C 20.003906 16.679688 20.171875 16.679688 20.277344 16.582031 C 22.230469 14.640625 22.136719 14.75 22.171875 14.6875 C 22.214844 14.613281 22.214844 14.527344 22.175781 14.453125 C 22.148438 14.394531 22.199219 14.453125 20.277344 12.550781 C 20.171875 12.449219 20.003906 12.449219 19.90625 12.550781 C 19.800781 12.652344 19.800781 12.816406 19.90625 12.921875 Z M 19.90625 12.921875 "/>
<path style=" stroke:none;fill-rule:nonzero;fill:rgb(92.941176%,41.176471%,36.078431%);fill-opacity:1;" d="M 18.691406 16.210938 L 17.296875 14.824219 L 21.941406 14.824219 C 22.089844 14.824219 22.203125 14.707031 22.203125 14.566406 C 22.203125 14.421875 22.089844 14.304688 21.941406 14.304688 L 17.296875 14.304688 L 18.691406 12.921875 C 18.796875 12.820312 18.796875 12.652344 18.691406 12.550781 C 18.585938 12.449219 18.425781 12.449219 18.320312 12.550781 C 16.363281 14.488281 16.457031 14.378906 16.421875 14.441406 C 16.386719 14.515625 16.378906 14.601562 16.414062 14.675781 C 16.445312 14.734375 16.398438 14.675781 18.320312 16.582031 C 18.425781 16.679688 18.585938 16.679688 18.691406 16.582031 C 18.796875 16.480469 18.796875 16.3125 18.691406 16.210938 Z M 18.691406 16.210938 "/>
<path style=" stroke:none;fill-rule:nonzero;fill:rgb(92.941176%,41.176471%,36.078431%);fill-opacity:1;" d="M 21.484375 11.664062 C 21.484375 11.4375 21.296875 11.253906 21.0625 11.253906 L 15.359375 11.253906 C 14.6875 11.253906 14.132812 11.796875 14.132812 12.464844 L 14.132812 16.8125 C 14.132812 17.484375 14.6875 18.027344 15.359375 18.027344 L 23.148438 18.027344 C 23.816406 18.015625 24.355469 17.476562 24.355469 16.8125 L 24.355469 12.464844 C 24.355469 11.796875 23.804688 11.253906 23.125 11.253906 L 20.398438 11.253906 C 19.878906 11.253906 19.855469 12.082031 20.398438 12.082031 L 23.125 12.082031 C 23.339844 12.082031 23.515625 12.253906 23.515625 12.464844 L 23.515625 16.8125 C 23.515625 17.027344 23.339844 17.199219 23.125 17.199219 L 15.355469 17.199219 C 15.148438 17.199219 14.96875 17.027344 14.96875 16.8125 L 14.96875 12.464844 C 14.96875 12.253906 15.148438 12.082031 15.355469 12.082031 L 21.0625 12.082031 C 21.296875 12.082031 21.480469 11.898438 21.480469 11.664062 Z M 21.484375 11.664062 "/>
<path style=" stroke:none;fill-rule:nonzero;fill:rgb(92.941176%,41.176471%,36.078431%);fill-opacity:1;" d="M 16.699219 22.917969 C 16.425781 22.917969 16.203125 22.699219 16.203125 22.429688 L 16.203125 17.886719 C 16.203125 17.613281 16.425781 17.394531 16.699219 17.394531 C 16.972656 17.394531 17.195312 17.613281 17.195312 17.886719 L 17.195312 22.429688 C 17.195312 22.699219 16.699219 22.648438 16.699219 22.917969 Z M 16.699219 22.917969 "/>
</g>
</svg>
