<?xml version="1.0" encoding="UTF-8"?>
<svg xmlns="http://www.w3.org/2000/svg" xmlns:xlink="http://www.w3.org/1999/xlink" width="28px" height="28px" viewBox="0 0 28 28" version="1.1">
<g id="surface1">
<path style=" stroke:none;fill-rule:nonzero;fill:rgb(92.941176%,41.176471%,36.078431%);fill-opacity:1;" d="M 2.484375 23.195312 L 0.496094 23.195312 C 0.222656 23.195312 0 22.972656 0 22.699219 L 0 4.988281 C 0 4.71875 0.222656 4.496094 0.496094 4.496094 L 2.484375 4.496094 C 2.757812 4.496094 2.980469 4.71875 2.980469 4.988281 L 2.980469 22.699219 C 2.980469 22.972656 2.757812 23.195312 2.484375 23.195312 Z M 0.992188 22.207031 L 1.988281 22.207031 L 1.988281 5.480469 L 0.992188 5.480469 Z M 0.992188 22.207031 "/>
<path style=" stroke:none;fill-rule:nonzero;fill:rgb(92.941176%,41.176471%,36.078431%);fill-opacity:1;" d="M 27.34375 23.195312 L 25.355469 23.195312 C 25.082031 23.195312 24.859375 22.972656 24.859375 22.699219 L 24.859375 4.988281 C 24.859375 4.71875 25.082031 4.496094 25.355469 4.496094 L 27.34375 4.496094 C 27.617188 4.496094 27.839844 4.71875 27.839844 4.988281 L 27.839844 22.699219 C 27.839844 22.972656 27.617188 23.195312 27.34375 23.195312 Z M 25.847656 22.21875 L 26.890625 22.21875 L 26.890625 5.480469 L 25.847656 5.480469 Z M 25.847656 22.21875 "/>
<path style=" stroke:none;fill-rule:nonzero;fill:rgb(92.941176%,41.176471%,36.078431%);fill-opacity:1;" d="M 20.652344 18.023438 L 20.652344 22.699219 C 20.652344 22.972656 20.4375 23.183594 20.15625 23.195312 L 2.484375 23.195312 C 2.210938 23.195312 1.988281 22.972656 1.988281 22.699219 L 1.988281 6.960938 C 1.988281 6.6875 2.210938 6.46875 2.484375 6.46875 L 7.304688 6.46875 C 7.324219 6.46875 7.34375 6.46875 7.363281 6.46875 C 11.769531 6.46875 16.242188 6.46875 20.472656 6.46875 C 20.492188 6.46875 20.546875 6.46875 20.53125 6.46875 L 20.160156 6.46875 C 20.433594 6.46875 20.65625 6.6875 20.65625 6.960938 L 20.65625 18.023438 Z M 2.980469 22.207031 L 19.644531 22.167969 L 19.644531 18.023438 L 20.65625 18.023438 L 20.65625 11.777344 L 19.671875 11.777344 L 19.660156 7.453125 L 20.53125 7.453125 C 20.511719 7.453125 20.492188 7.453125 20.472656 7.453125 C 16.144531 7.453125 11.824219 7.453125 7.371094 7.453125 C 7.351562 7.453125 7.332031 7.453125 7.3125 7.453125 L 2.988281 7.453125 L 2.988281 22.207031 Z M 2.980469 22.207031 "/>
<path style=" stroke:none;fill-rule:nonzero;fill:rgb(92.941176%,41.176471%,36.078431%);fill-opacity:1;" d="M 9.875 23.066406 C 9.601562 23.066406 9.375 22.84375 9.375 22.574219 L 9.375 7.085938 C 9.375 6.816406 9.601562 6.59375 9.875 6.59375 C 10.148438 6.59375 10.371094 6.816406 10.371094 7.085938 L 10.371094 22.574219 C 10.371094 22.84375 10.148438 23.066406 9.875 23.066406 Z M 9.875 23.066406 "/>
<path style=" stroke:none;fill-rule:nonzero;fill:rgb(92.941176%,41.176471%,36.078431%);fill-opacity:1;" d="M 6.269531 23.066406 C 5.996094 23.066406 5.769531 22.84375 5.769531 22.574219 L 5.769531 7.085938 C 5.769531 6.816406 5.996094 6.59375 6.269531 6.59375 C 6.542969 6.59375 6.765625 6.816406 6.765625 7.085938 L 6.765625 22.574219 C 6.765625 22.84375 6.542969 23.066406 6.269531 23.066406 Z M 6.269531 23.066406 "/>
<path style=" stroke:none;fill-rule:nonzero;fill:rgb(92.941176%,41.176471%,36.078431%);fill-opacity:1;" d="M 16.765625 11.855469 C 16.492188 11.855469 16.269531 11.632812 16.269531 11.363281 L 16.269531 7.453125 C 16.269531 7.179688 16.492188 6.960938 16.765625 6.960938 C 17.039062 6.960938 17.261719 7.179688 17.261719 7.453125 L 17.261719 11.363281 C 17.261719 11.632812 16.765625 11.585938 16.765625 11.855469 Z M 16.765625 11.855469 "/>
<path style=" stroke:none;fill-rule:nonzero;fill:rgb(92.941176%,41.176471%,36.078431%);fill-opacity:1;" d="M 13.09375 23.066406 C 12.816406 23.066406 12.59375 22.84375 12.59375 22.574219 L 12.59375 7.085938 C 12.59375 6.816406 12.816406 6.59375 13.09375 6.59375 C 13.367188 6.59375 13.589844 6.816406 13.589844 7.085938 L 13.589844 22.574219 C 13.589844 22.84375 13.367188 23.066406 13.09375 23.066406 Z M 13.09375 23.066406 "/>
<path style=" stroke:none;fill-rule:nonzero;fill:rgb(92.941176%,41.176471%,36.078431%);fill-opacity:1;" d="M 18.691406 16.210938 L 17.296875 14.828125 L 21.941406 14.828125 C 22.085938 14.828125 22.203125 14.710938 22.203125 14.570312 C 22.203125 14.421875 22.085938 14.304688 21.941406 14.304688 L 17.296875 14.304688 L 18.691406 12.921875 C 18.796875 12.820312 18.796875 12.65625 18.691406 12.550781 C 18.585938 12.449219 18.421875 12.449219 18.320312 12.550781 C 16.363281 14.492188 16.457031 14.382812 16.421875 14.441406 C 16.386719 14.515625 16.378906 14.601562 16.417969 14.675781 C 16.445312 14.734375 16.398438 14.675781 18.320312 16.578125 C 18.425781 16.679688 18.589844 16.679688 18.691406 16.578125 C 18.796875 16.476562 18.796875 16.308594 18.691406 16.207031 Z M 18.691406 16.210938 "/>
<path style=" stroke:none;fill-rule:nonzero;fill:rgb(92.941176%,41.176471%,36.078431%);fill-opacity:1;" d="M 21.480469 11.667969 C 21.480469 11.4375 21.292969 11.253906 21.058594 11.253906 L 15.351562 11.253906 C 14.679688 11.253906 14.125 11.796875 14.125 12.46875 L 14.125 16.8125 C 14.125 17.484375 14.679688 18.027344 15.351562 18.027344 L 23.144531 18.027344 C 23.808594 18.015625 24.351562 17.480469 24.351562 16.8125 L 24.351562 12.46875 C 24.351562 11.796875 23.796875 11.253906 23.121094 11.253906 L 20.394531 11.253906 C 19.875 11.253906 19.851562 12.082031 20.394531 12.082031 L 23.121094 12.082031 C 23.339844 12.082031 23.511719 12.253906 23.511719 12.464844 L 23.511719 16.808594 C 23.511719 17.023438 23.339844 17.195312 23.121094 17.195312 L 15.355469 17.195312 C 15.148438 17.195312 14.972656 17.019531 14.972656 16.808594 L 14.972656 12.464844 C 14.972656 12.25 15.148438 12.082031 15.355469 12.082031 L 21.0625 12.082031 C 21.296875 12.082031 21.484375 11.894531 21.484375 11.667969 Z M 21.480469 11.667969 "/>
<path style=" stroke:none;fill-rule:nonzero;fill:rgb(92.941176%,41.176471%,36.078431%);fill-opacity:1;" d="M 16.699219 22.917969 C 16.421875 22.917969 16.199219 22.699219 16.199219 22.425781 L 16.199219 17.886719 C 16.199219 17.613281 16.421875 17.394531 16.699219 17.394531 C 16.972656 17.394531 17.195312 17.613281 17.195312 17.886719 L 17.195312 22.425781 C 17.195312 22.699219 16.699219 22.648438 16.699219 22.917969 Z M 16.699219 22.917969 "/>
</g>
</svg>
