<?xml version="1.0" encoding="UTF-8"?>
<svg xmlns="http://www.w3.org/2000/svg" xmlns:xlink="http://www.w3.org/1999/xlink" width="28px" height="28px" viewBox="0 0 28 19" version="1.1">
<g id="surface1">
<path style=" stroke:none;fill-rule:nonzero;fill:rgb(92.941176%,41.176471%,36.078431%);fill-opacity:1;" d="M 2.484375 18.695312 L 0.496094 18.695312 C 0.222656 18.695312 0 18.472656 0 18.199219 L 0 0.488281 C 0 0.21875 0.222656 -0.00390625 0.496094 -0.00390625 L 2.484375 -0.00390625 C 2.757812 -0.00390625 2.980469 0.21875 2.980469 0.488281 L 2.980469 18.199219 C 2.980469 18.472656 2.757812 18.695312 2.484375 18.695312 Z M 0.992188 17.707031 L 1.988281 17.707031 L 1.988281 0.980469 L 0.992188 0.980469 Z M 0.992188 17.707031 "/>
<path style=" stroke:none;fill-rule:nonzero;fill:rgb(92.941176%,41.176471%,36.078431%);fill-opacity:1;" d="M 27.34375 18.695312 L 25.355469 18.695312 C 25.082031 18.695312 24.859375 18.472656 24.859375 18.199219 L 24.859375 0.488281 C 24.859375 0.21875 25.082031 -0.00390625 25.355469 -0.00390625 L 27.34375 -0.00390625 C 27.617188 -0.00390625 27.839844 0.21875 27.839844 0.488281 L 27.839844 18.199219 C 27.839844 18.472656 27.617188 18.695312 27.34375 18.695312 Z M 25.847656 17.71875 L 26.890625 17.71875 L 26.890625 0.980469 L 25.847656 0.980469 Z M 25.847656 17.71875 "/>
<path style=" stroke:none;fill-rule:nonzero;fill:rgb(92.941176%,41.176471%,36.078431%);fill-opacity:1;" d="M 20.652344 13.523438 L 20.652344 18.199219 C 20.652344 18.472656 20.4375 18.683594 20.15625 18.695312 L 2.484375 18.695312 C 2.210938 18.695312 1.988281 18.472656 1.988281 18.199219 L 1.988281 2.460938 C 1.988281 2.1875 2.210938 1.96875 2.484375 1.96875 L 7.304688 1.96875 C 7.324219 1.96875 7.34375 1.96875 7.363281 1.96875 C 11.769531 1.96875 16.242188 1.96875 20.472656 1.96875 C 20.492188 1.96875 20.546875 1.96875 20.53125 1.96875 L 20.160156 1.96875 C 20.433594 1.96875 20.65625 2.1875 20.65625 2.460938 L 20.65625 13.523438 Z M 2.980469 17.707031 L 19.644531 17.667969 L 19.644531 13.523438 L 20.65625 13.523438 L 20.65625 7.277344 L 19.671875 7.277344 L 19.660156 2.953125 L 20.53125 2.953125 C 20.511719 2.953125 20.492188 2.953125 20.472656 2.953125 C 16.144531 2.953125 11.824219 2.953125 7.371094 2.953125 C 7.351562 2.953125 7.332031 2.953125 7.3125 2.953125 L 2.988281 2.953125 L 2.988281 17.707031 Z M 2.980469 17.707031 "/>
<path style=" stroke:none;fill-rule:nonzero;fill:rgb(92.941176%,41.176471%,36.078431%);fill-opacity:1;" d="M 9.875 18.566406 C 9.601562 18.566406 9.375 18.34375 9.375 18.074219 L 9.375 2.585938 C 9.375 2.316406 9.601562 2.09375 9.875 2.09375 C 10.148438 2.09375 10.371094 2.316406 10.371094 2.585938 L 10.371094 18.074219 C 10.371094 18.34375 10.148438 18.566406 9.875 18.566406 Z M 9.875 18.566406 "/>
<path style=" stroke:none;fill-rule:nonzero;fill:rgb(92.941176%,41.176471%,36.078431%);fill-opacity:1;" d="M 6.269531 18.566406 C 5.996094 18.566406 5.769531 18.34375 5.769531 18.074219 L 5.769531 2.585938 C 5.769531 2.316406 5.996094 2.09375 6.269531 2.09375 C 6.542969 2.09375 6.765625 2.316406 6.765625 2.585938 L 6.765625 18.074219 C 6.765625 18.34375 6.542969 18.566406 6.269531 18.566406 Z M 6.269531 18.566406 "/>
<path style=" stroke:none;fill-rule:nonzero;fill:rgb(92.941176%,41.176471%,36.078431%);fill-opacity:1;" d="M 16.765625 7.355469 C 16.492188 7.355469 16.269531 7.132812 16.269531 6.863281 L 16.269531 2.953125 C 16.269531 2.679688 16.492188 2.460938 16.765625 2.460938 C 17.039062 2.460938 17.261719 2.679688 17.261719 2.953125 L 17.261719 6.863281 C 17.261719 7.132812 16.765625 7.085938 16.765625 7.355469 Z M 16.765625 7.355469 "/>
<path style=" stroke:none;fill-rule:nonzero;fill:rgb(92.941176%,41.176471%,36.078431%);fill-opacity:1;" d="M 13.09375 18.566406 C 12.816406 18.566406 12.59375 18.34375 12.59375 18.074219 L 12.59375 2.585938 C 12.59375 2.316406 12.816406 2.09375 13.09375 2.09375 C 13.367188 2.09375 13.589844 2.316406 13.589844 2.585938 L 13.589844 18.074219 C 13.589844 18.34375 13.367188 18.566406 13.09375 18.566406 Z M 13.09375 18.566406 "/>
<path style=" stroke:none;fill-rule:nonzero;fill:rgb(92.941176%,41.176471%,36.078431%);fill-opacity:1;" d="M 18.691406 11.710938 L 17.296875 10.328125 L 21.941406 10.328125 C 22.085938 10.328125 22.203125 10.210938 22.203125 10.070312 C 22.203125 9.921875 22.085938 9.804688 21.941406 9.804688 L 17.296875 9.804688 L 18.691406 8.421875 C 18.796875 8.320312 18.796875 8.15625 18.691406 8.050781 C 18.585938 7.949219 18.421875 7.949219 18.320312 8.050781 C 16.363281 9.992188 16.457031 9.882812 16.421875 9.941406 C 16.386719 10.015625 16.378906 10.101562 16.417969 10.175781 C 16.445312 10.234375 16.398438 10.175781 18.320312 12.078125 C 18.425781 12.179688 18.589844 12.179688 18.691406 12.078125 C 18.796875 11.976562 18.796875 11.808594 18.691406 11.707031 Z M 18.691406 11.710938 "/>
<path style=" stroke:none;fill-rule:nonzero;fill:rgb(92.941176%,41.176471%,36.078431%);fill-opacity:1;" d="M 21.480469 7.167969 C 21.480469 6.9375 21.292969 6.753906 21.058594 6.753906 L 15.351562 6.753906 C 14.679688 6.753906 14.125 7.296875 14.125 7.96875 L 14.125 12.3125 C 14.125 12.984375 14.679688 13.527344 15.351562 13.527344 L 23.144531 13.527344 C 23.808594 13.515625 24.351562 12.980469 24.351562 12.3125 L 24.351562 7.96875 C 24.351562 7.296875 23.796875 6.753906 23.121094 6.753906 L 20.394531 6.753906 C 19.875 6.753906 19.851562 7.582031 20.394531 7.582031 L 23.121094 7.582031 C 23.339844 7.582031 23.511719 7.753906 23.511719 7.964844 L 23.511719 12.308594 C 23.511719 12.523438 23.339844 12.695312 23.121094 12.695312 L 15.355469 12.695312 C 15.148438 12.695312 14.972656 12.519531 14.972656 12.308594 L 14.972656 7.964844 C 14.972656 7.75 15.148438 7.582031 15.355469 7.582031 L 21.0625 7.582031 C 21.296875 7.582031 21.484375 7.394531 21.484375 7.167969 Z M 21.480469 7.167969 "/>
<path style=" stroke:none;fill-rule:nonzero;fill:rgb(92.941176%,41.176471%,36.078431%);fill-opacity:1;" d="M 16.699219 18.417969 C 16.421875 18.417969 16.199219 18.199219 16.199219 17.925781 L 16.199219 13.386719 C 16.199219 13.113281 16.421875 12.894531 16.699219 12.894531 C 16.972656 12.894531 17.195312 13.113281 17.195312 13.386719 L 17.195312 17.925781 C 17.195312 18.199219 16.699219 18.148438 16.699219 18.417969 Z M 16.699219 18.417969 "/>
</g>
</svg>
