<?xml version="1.0" encoding="UTF-8"?>
<svg xmlns="http://www.w3.org/2000/svg" xmlns:xlink="http://www.w3.org/1999/xlink" width="28px" height="28px" viewBox="0 0 28 28" version="1.1">
<g id="surface1">
<path style=" stroke:none;fill-rule:nonzero;fill:rgb(92.941176%,41.176471%,36.078431%);fill-opacity:1;" d="M 2.484375 23.195312 L 0.496094 23.195312 C 0.222656 23.195312 0 22.972656 0 22.703125 L 0 4.992188 C 0 4.722656 0.222656 4.5 0.496094 4.5 L 2.484375 4.5 C 2.757812 4.5 2.984375 4.722656 2.984375 4.992188 L 2.984375 22.703125 C 2.984375 22.972656 2.757812 23.195312 2.484375 23.195312 Z M 0.996094 22.210938 L 1.988281 22.210938 L 1.988281 5.484375 L 0.996094 5.484375 Z M 0.996094 22.210938 "/>
<path style=" stroke:none;fill-rule:nonzero;fill:rgb(92.941176%,41.176471%,36.078431%);fill-opacity:1;" d="M 27.34375 23.195312 L 25.355469 23.195312 C 25.082031 23.195312 24.855469 22.972656 24.855469 22.703125 L 24.855469 4.992188 C 24.855469 4.722656 25.082031 4.5 25.355469 4.5 L 27.34375 4.5 C 27.617188 4.5 27.839844 4.722656 27.839844 4.992188 L 27.839844 22.703125 C 27.839844 22.972656 27.617188 23.195312 27.34375 23.195312 Z M 25.851562 22.21875 L 26.890625 22.21875 L 26.890625 5.480469 L 25.851562 5.480469 Z M 25.851562 22.21875 "/>
<path style=" stroke:none;fill-rule:nonzero;fill:rgb(92.941176%,41.176471%,36.078431%);fill-opacity:1;" d="M 20.65625 18.027344 L 20.65625 22.707031 C 20.65625 22.976562 20.441406 23.1875 20.15625 23.199219 L 2.484375 23.199219 C 2.210938 23.199219 1.988281 22.976562 1.988281 22.707031 L 1.988281 6.964844 C 1.988281 6.695312 2.210938 6.472656 2.484375 6.472656 L 7.308594 6.472656 C 7.328125 6.472656 7.34375 6.472656 7.363281 6.472656 C 11.769531 6.472656 16.246094 6.472656 20.476562 6.472656 C 20.496094 6.472656 20.550781 6.472656 20.53125 6.472656 L 20.15625 6.472656 C 20.429688 6.472656 20.65625 6.695312 20.65625 6.964844 L 20.65625 18.03125 Z M 2.984375 22.214844 L 19.644531 22.171875 L 19.644531 18.027344 L 20.65625 18.027344 L 20.65625 11.777344 L 19.671875 11.777344 L 19.660156 7.453125 L 20.53125 7.453125 C 20.511719 7.453125 20.492188 7.453125 20.472656 7.453125 C 16.144531 7.453125 11.820312 7.453125 7.363281 7.453125 C 7.34375 7.453125 7.324219 7.453125 7.304688 7.453125 L 2.976562 7.453125 L 2.976562 22.210938 Z M 2.984375 22.214844 "/>
<path style=" stroke:none;fill-rule:nonzero;fill:rgb(92.941176%,41.176471%,36.078431%);fill-opacity:1;" d="M 9.875 23.066406 C 9.601562 23.066406 9.378906 22.84375 9.378906 22.574219 L 9.378906 7.089844 C 9.378906 6.816406 9.601562 6.597656 9.875 6.597656 C 10.148438 6.597656 10.371094 6.816406 10.371094 7.089844 L 10.371094 22.574219 C 10.371094 22.84375 10.148438 23.066406 9.875 23.066406 Z M 9.875 23.066406 "/>
<path style=" stroke:none;fill-rule:nonzero;fill:rgb(92.941176%,41.176471%,36.078431%);fill-opacity:1;" d="M 6.269531 23.066406 C 5.996094 23.066406 5.773438 22.84375 5.773438 22.574219 L 5.773438 7.089844 C 5.773438 6.816406 5.996094 6.597656 6.269531 6.597656 C 6.542969 6.597656 6.765625 6.816406 6.765625 7.089844 L 6.765625 22.574219 C 6.765625 22.84375 6.542969 23.066406 6.269531 23.066406 Z M 6.269531 23.066406 "/>
<path style=" stroke:none;fill-rule:nonzero;fill:rgb(92.941176%,41.176471%,36.078431%);fill-opacity:1;" d="M 16.765625 11.855469 C 16.492188 11.855469 16.269531 11.636719 16.269531 11.363281 L 16.269531 7.453125 C 16.269531 7.183594 16.492188 6.960938 16.765625 6.960938 C 17.039062 6.960938 17.265625 7.183594 17.265625 7.453125 L 17.265625 11.363281 C 17.265625 11.636719 16.765625 11.585938 16.765625 11.855469 Z M 16.765625 11.855469 "/>
<path style=" stroke:none;fill-rule:nonzero;fill:rgb(92.941176%,41.176471%,36.078431%);fill-opacity:1;" d="M 13.09375 23.066406 C 12.820312 23.066406 12.59375 22.84375 12.59375 22.574219 L 12.59375 7.089844 C 12.59375 6.816406 12.820312 6.597656 13.09375 6.597656 C 13.367188 6.597656 13.589844 6.816406 13.589844 7.089844 L 13.589844 22.574219 C 13.589844 22.84375 13.367188 23.066406 13.09375 23.066406 Z M 13.09375 23.066406 "/>
<path style=" stroke:none;fill-rule:nonzero;fill:rgb(92.941176%,41.176471%,36.078431%);fill-opacity:1;" d="M 16.695312 22.917969 C 16.421875 22.917969 16.199219 22.695312 16.199219 22.425781 L 16.199219 17.882812 C 16.199219 17.613281 16.421875 17.394531 16.695312 17.394531 C 16.96875 17.394531 17.195312 17.613281 17.195312 17.882812 L 17.195312 22.425781 C 17.195312 22.695312 16.695312 22.648438 16.695312 22.917969 Z M 16.695312 22.917969 "/>
<path style=" stroke:none;fill-rule:nonzero;fill:rgb(92.941176%,41.176471%,36.078431%);fill-opacity:1;" d="M 19.820312 12.992188 L 21.21875 14.375 L 16.574219 14.375 C 16.429688 14.375 16.308594 14.496094 16.308594 14.636719 C 16.308594 14.78125 16.421875 14.898438 16.574219 14.898438 L 21.21875 14.898438 L 19.820312 16.28125 C 19.714844 16.382812 19.714844 16.546875 19.820312 16.648438 C 19.925781 16.753906 20.089844 16.753906 20.191406 16.648438 C 22.148438 14.710938 22.058594 14.820312 22.09375 14.761719 C 22.128906 14.6875 22.132812 14.597656 22.097656 14.523438 C 22.066406 14.464844 22.113281 14.523438 20.191406 12.621094 C 20.089844 12.515625 19.925781 12.515625 19.820312 12.621094 C 19.714844 12.722656 19.714844 12.886719 19.820312 12.988281 Z M 19.820312 12.992188 "/>
<path style=" stroke:none;fill-rule:nonzero;fill:rgb(92.941176%,41.176471%,36.078431%);fill-opacity:1;" d="M 21.40625 11.738281 C 21.40625 11.507812 21.21875 11.324219 20.984375 11.324219 L 15.28125 11.324219 C 14.609375 11.324219 14.050781 11.871094 14.050781 12.539062 L 14.050781 16.890625 C 14.050781 17.558594 14.609375 18.105469 15.28125 18.105469 L 23.070312 18.105469 C 23.738281 18.097656 24.28125 17.554688 24.28125 16.890625 L 24.28125 12.539062 C 24.28125 11.871094 23.722656 11.324219 23.046875 11.324219 L 20.316406 11.324219 C 19.796875 11.324219 19.773438 12.152344 20.316406 12.152344 L 23.046875 12.152344 C 23.261719 12.152344 23.441406 12.324219 23.441406 12.535156 L 23.441406 16.886719 C 23.441406 17.097656 23.265625 17.269531 23.046875 17.269531 L 15.28125 17.269531 C 15.070312 17.269531 14.890625 17.097656 14.890625 16.886719 L 14.890625 12.535156 C 14.890625 12.324219 15.066406 12.152344 15.28125 12.152344 L 20.984375 12.152344 C 21.21875 12.152344 21.40625 11.964844 21.40625 11.738281 Z M 21.40625 11.738281 "/>
</g>
</svg>
