<?xml version="1.0" encoding="UTF-8"?>
<svg xmlns="http://www.w3.org/2000/svg" xmlns:xlink="http://www.w3.org/1999/xlink" width="28px" height="28px" viewBox="0 0 28 19" version="1.1">
<g id="surface1">
<path style=" stroke:none;fill-rule:nonzero;fill:rgb(92.941176%,41.176471%,36.078431%);fill-opacity:1;" d="M 2.484375 18.695312 L 0.496094 18.695312 C 0.222656 18.695312 0 18.472656 0 18.203125 L 0 0.492188 C 0 0.222656 0.222656 0 0.496094 0 L 2.484375 0 C 2.757812 0 2.984375 0.222656 2.984375 0.492188 L 2.984375 18.203125 C 2.984375 18.472656 2.757812 18.695312 2.484375 18.695312 Z M 0.996094 17.710938 L 1.988281 17.710938 L 1.988281 0.984375 L 0.996094 0.984375 Z M 0.996094 17.710938 "/>
<path style=" stroke:none;fill-rule:nonzero;fill:rgb(92.941176%,41.176471%,36.078431%);fill-opacity:1;" d="M 27.34375 18.695312 L 25.355469 18.695312 C 25.082031 18.695312 24.855469 18.472656 24.855469 18.203125 L 24.855469 0.492188 C 24.855469 0.222656 25.082031 0 25.355469 0 L 27.34375 0 C 27.617188 0 27.839844 0.222656 27.839844 0.492188 L 27.839844 18.203125 C 27.839844 18.472656 27.617188 18.695312 27.34375 18.695312 Z M 25.851562 17.71875 L 26.890625 17.71875 L 26.890625 0.980469 L 25.851562 0.980469 Z M 25.851562 17.71875 "/>
<path style=" stroke:none;fill-rule:nonzero;fill:rgb(92.941176%,41.176471%,36.078431%);fill-opacity:1;" d="M 20.65625 13.527344 L 20.65625 18.207031 C 20.65625 18.476562 20.441406 18.6875 20.15625 18.699219 L 2.484375 18.699219 C 2.210938 18.699219 1.988281 18.476562 1.988281 18.207031 L 1.988281 2.464844 C 1.988281 2.195312 2.210938 1.972656 2.484375 1.972656 L 7.308594 1.972656 C 7.328125 1.972656 7.34375 1.972656 7.363281 1.972656 C 11.769531 1.972656 16.246094 1.972656 20.476562 1.972656 C 20.496094 1.972656 20.550781 1.972656 20.53125 1.972656 L 20.15625 1.972656 C 20.429688 1.972656 20.65625 2.195312 20.65625 2.464844 L 20.65625 13.53125 Z M 2.984375 17.714844 L 19.644531 17.671875 L 19.644531 13.527344 L 20.65625 13.527344 L 20.65625 7.277344 L 19.671875 7.277344 L 19.660156 2.953125 L 20.53125 2.953125 C 20.511719 2.953125 20.492188 2.953125 20.472656 2.953125 C 16.144531 2.953125 11.820312 2.953125 7.363281 2.953125 C 7.34375 2.953125 7.324219 2.953125 7.304688 2.953125 L 2.976562 2.953125 L 2.976562 17.710938 Z M 2.984375 17.714844 "/>
<path style=" stroke:none;fill-rule:nonzero;fill:rgb(92.941176%,41.176471%,36.078431%);fill-opacity:1;" d="M 9.875 18.566406 C 9.601562 18.566406 9.378906 18.34375 9.378906 18.074219 L 9.378906 2.589844 C 9.378906 2.316406 9.601562 2.097656 9.875 2.097656 C 10.148438 2.097656 10.371094 2.316406 10.371094 2.589844 L 10.371094 18.074219 C 10.371094 18.34375 10.148438 18.566406 9.875 18.566406 Z M 9.875 18.566406 "/>
<path style=" stroke:none;fill-rule:nonzero;fill:rgb(92.941176%,41.176471%,36.078431%);fill-opacity:1;" d="M 6.269531 18.566406 C 5.996094 18.566406 5.773438 18.34375 5.773438 18.074219 L 5.773438 2.589844 C 5.773438 2.316406 5.996094 2.097656 6.269531 2.097656 C 6.542969 2.097656 6.765625 2.316406 6.765625 2.589844 L 6.765625 18.074219 C 6.765625 18.34375 6.542969 18.566406 6.269531 18.566406 Z M 6.269531 18.566406 "/>
<path style=" stroke:none;fill-rule:nonzero;fill:rgb(92.941176%,41.176471%,36.078431%);fill-opacity:1;" d="M 16.765625 7.355469 C 16.492188 7.355469 16.269531 7.136719 16.269531 6.863281 L 16.269531 2.953125 C 16.269531 2.683594 16.492188 2.460938 16.765625 2.460938 C 17.039062 2.460938 17.265625 2.683594 17.265625 2.953125 L 17.265625 6.863281 C 17.265625 7.136719 16.765625 7.085938 16.765625 7.355469 Z M 16.765625 7.355469 "/>
<path style=" stroke:none;fill-rule:nonzero;fill:rgb(92.941176%,41.176471%,36.078431%);fill-opacity:1;" d="M 13.09375 18.566406 C 12.820312 18.566406 12.59375 18.34375 12.59375 18.074219 L 12.59375 2.589844 C 12.59375 2.316406 12.820312 2.097656 13.09375 2.097656 C 13.367188 2.097656 13.589844 2.316406 13.589844 2.589844 L 13.589844 18.074219 C 13.589844 18.34375 13.367188 18.566406 13.09375 18.566406 Z M 13.09375 18.566406 "/>
<path style=" stroke:none;fill-rule:nonzero;fill:rgb(92.941176%,41.176471%,36.078431%);fill-opacity:1;" d="M 16.695312 18.417969 C 16.421875 18.417969 16.199219 18.195312 16.199219 17.925781 L 16.199219 13.382812 C 16.199219 13.113281 16.421875 12.894531 16.695312 12.894531 C 16.96875 12.894531 17.195312 13.113281 17.195312 13.382812 L 17.195312 17.925781 C 17.195312 18.195312 16.695312 18.148438 16.695312 18.417969 Z M 16.695312 18.417969 "/>
<path style=" stroke:none;fill-rule:nonzero;fill:rgb(92.941176%,41.176471%,36.078431%);fill-opacity:1;" d="M 19.820312 8.492188 L 21.21875 9.875 L 16.574219 9.875 C 16.429688 9.875 16.308594 9.996094 16.308594 10.136719 C 16.308594 10.28125 16.421875 10.398438 16.574219 10.398438 L 21.21875 10.398438 L 19.820312 11.78125 C 19.714844 11.882812 19.714844 12.046875 19.820312 12.148438 C 19.925781 12.253906 20.089844 12.253906 20.191406 12.148438 C 22.148438 10.210938 22.058594 10.320312 22.09375 10.261719 C 22.128906 10.1875 22.132812 10.097656 22.097656 10.023438 C 22.066406 9.964844 22.113281 10.023438 20.191406 8.121094 C 20.089844 8.015625 19.925781 8.015625 19.820312 8.121094 C 19.714844 8.222656 19.714844 8.386719 19.820312 8.488281 Z M 19.820312 8.492188 "/>
<path style=" stroke:none;fill-rule:nonzero;fill:rgb(92.941176%,41.176471%,36.078431%);fill-opacity:1;" d="M 21.40625 7.238281 C 21.40625 7.007812 21.21875 6.824219 20.984375 6.824219 L 15.28125 6.824219 C 14.609375 6.824219 14.050781 7.371094 14.050781 8.039062 L 14.050781 12.390625 C 14.050781 13.058594 14.609375 13.605469 15.28125 13.605469 L 23.070312 13.605469 C 23.738281 13.597656 24.28125 13.054688 24.28125 12.390625 L 24.28125 8.039062 C 24.28125 7.371094 23.722656 6.824219 23.046875 6.824219 L 20.316406 6.824219 C 19.796875 6.824219 19.773438 7.652344 20.316406 7.652344 L 23.046875 7.652344 C 23.261719 7.652344 23.441406 7.824219 23.441406 8.035156 L 23.441406 12.386719 C 23.441406 12.597656 23.265625 12.769531 23.046875 12.769531 L 15.28125 12.769531 C 15.070312 12.769531 14.890625 12.597656 14.890625 12.386719 L 14.890625 8.035156 C 14.890625 7.824219 15.066406 7.652344 15.28125 7.652344 L 20.984375 7.652344 C 21.21875 7.652344 21.40625 7.464844 21.40625 7.238281 Z M 21.40625 7.238281 "/>
</g>
</svg>
