<?xml version="1.0" encoding="UTF-8"?>
<svg xmlns="http://www.w3.org/2000/svg" xmlns:xlink="http://www.w3.org/1999/xlink" width="28px" height="28px" viewBox="0 0 28 28" version="1.1">
<g id="surface1">
<path style=" stroke:none;fill-rule:nonzero;fill:rgb(92.941176%,41.176471%,36.078431%);fill-opacity:1;" d="M 5.804688 27.660156 L 2.855469 27.660156 C 2.445312 27.660156 2.121094 27.332031 2.121094 26.9375 L 2.121094 0.734375 C 2.121094 0.328125 2.457031 0.0078125 2.855469 0.0078125 L 5.804688 0.0078125 C 6.210938 0.0078125 6.535156 0.339844 6.535156 0.734375 L 6.535156 26.9375 C 6.535156 27.335938 6.203125 27.660156 5.804688 27.660156 Z M 3.597656 26.203125 L 5.070312 26.203125 L 5.070312 1.457031 L 3.597656 1.457031 Z M 3.597656 26.203125 "/>
<path style=" stroke:none;fill-rule:nonzero;fill:rgb(92.941176%,41.176471%,36.078431%);fill-opacity:1;" d="M 25.332031 27.660156 L 22.386719 27.660156 C 21.976562 27.660156 21.652344 27.332031 21.652344 26.9375 L 21.652344 0.734375 C 21.652344 0.328125 21.984375 0.0078125 22.386719 0.0078125 L 25.332031 0.0078125 C 25.738281 0.0078125 26.0625 0.339844 26.0625 0.734375 L 26.0625 26.9375 C 26.0625 27.335938 25.734375 27.660156 25.332031 27.660156 Z M 23.125 26.21875 L 24.664062 26.21875 L 24.664062 1.457031 L 23.125 1.457031 Z M 23.125 26.21875 "/>
<path style=" stroke:none;fill-rule:nonzero;fill:rgb(92.941176%,41.176471%,36.078431%);fill-opacity:1;" d="M 22.742188 27.660156 L 5.445312 27.660156 C 5.238281 27.660156 5.070312 27.332031 5.070312 26.9375 L 5.070312 3.644531 C 5.070312 3.246094 5.238281 2.921875 5.445312 2.921875 L 9.089844 2.921875 C 9.109375 2.921875 9.117188 2.921875 9.132812 2.921875 C 12.464844 2.921875 15.855469 2.921875 19.054688 2.921875 C 19.070312 2.921875 19.078125 2.921875 19.09375 2.921875 L 22.742188 2.921875 C 22.953125 2.921875 23.117188 3.25 23.117188 3.644531 L 23.117188 26.9375 C 23.117188 27.335938 22.953125 27.660156 22.742188 27.660156 Z M 5.820312 26.203125 L 22.367188 26.203125 L 22.367188 4.371094 L 19.09375 4.371094 C 19.078125 4.371094 19.0625 4.371094 19.054688 4.371094 C 15.78125 4.371094 12.507812 4.371094 9.132812 4.371094 C 9.117188 4.371094 9.101562 4.371094 9.089844 4.371094 L 5.820312 4.371094 Z M 5.820312 26.203125 "/>
<path style=" stroke:none;fill-rule:nonzero;fill:rgb(92.941176%,41.176471%,36.078431%);fill-opacity:1;" d="M 19.054688 17.46875 C 18.648438 17.46875 18.320312 17.140625 18.320312 16.746094 L 18.320312 13.832031 C 18.320312 13.425781 18.652344 13.105469 19.054688 13.105469 C 19.460938 13.105469 19.785156 13.433594 19.785156 13.832031 L 19.785156 16.746094 C 19.785156 17.148438 19.453125 17.46875 19.054688 17.46875 Z M 19.054688 17.46875 "/>
</g>
</svg>
