<?xml version="1.0" encoding="UTF-8"?>
<svg xmlns="http://www.w3.org/2000/svg" xmlns:xlink="http://www.w3.org/1999/xlink" width="28px" height="28px" viewBox="0 0 28 33" version="1.1">
<g id="surface1">
<path style=" stroke:none;fill-rule:nonzero;fill:rgb(92.941176%,41.176471%,36.078431%);fill-opacity:1;" d="M 4.339844 32.597656 L 0.867188 32.597656 C 0.382812 32.597656 0 32.210938 0 31.746094 L 0 0.863281 C 0 0.386719 0.394531 0.0078125 0.867188 0.0078125 L 4.339844 0.0078125 C 4.820312 0.0078125 5.203125 0.398438 5.203125 0.863281 L 5.203125 31.746094 C 5.203125 32.21875 4.8125 32.597656 4.339844 32.597656 Z M 1.738281 30.882812 L 3.476562 30.882812 L 3.476562 1.71875 L 1.738281 1.71875 Z M 1.738281 30.882812 "/>
<path style=" stroke:none;fill-rule:nonzero;fill:rgb(92.941176%,41.176471%,36.078431%);fill-opacity:1;" d="M 27.355469 32.597656 L 23.882812 32.597656 C 23.402344 32.597656 23.019531 32.210938 23.019531 31.746094 L 23.019531 0.863281 C 23.019531 0.386719 23.410156 0.0078125 23.882812 0.0078125 L 27.355469 0.0078125 C 27.835938 0.0078125 28.21875 0.398438 28.21875 0.863281 L 28.21875 31.746094 C 28.21875 32.21875 27.828125 32.597656 27.355469 32.597656 Z M 24.753906 30.902344 L 26.570312 30.902344 L 26.570312 1.71875 L 24.753906 1.71875 Z M 24.753906 30.902344 "/>
<path style=" stroke:none;fill-rule:nonzero;fill:rgb(92.941176%,41.176471%,36.078431%);fill-opacity:1;" d="M 24.304688 32.597656 L 3.917969 32.597656 C 3.671875 32.597656 3.476562 32.210938 3.476562 31.746094 L 3.476562 4.296875 C 3.476562 3.824219 3.671875 3.445312 3.917969 3.445312 L 8.214844 3.445312 C 8.238281 3.445312 8.246094 3.445312 8.265625 3.445312 C 12.191406 3.445312 16.1875 3.445312 19.957031 3.445312 C 19.976562 3.445312 19.984375 3.445312 20.003906 3.445312 L 24.304688 3.445312 C 24.550781 3.445312 24.746094 3.832031 24.746094 4.296875 L 24.746094 31.746094 C 24.746094 32.21875 24.550781 32.597656 24.304688 32.597656 Z M 4.359375 30.882812 L 23.863281 30.882812 L 23.863281 5.152344 L 20.003906 5.152344 C 19.984375 5.152344 19.964844 5.152344 19.957031 5.152344 C 16.097656 5.152344 12.242188 5.152344 8.265625 5.152344 C 8.246094 5.152344 8.226562 5.152344 8.214844 5.152344 L 4.359375 5.152344 Z M 4.359375 30.882812 "/>
<path style=" stroke:none;fill-rule:nonzero;fill:rgb(92.941176%,41.176471%,36.078431%);fill-opacity:1;" d="M 19.957031 20.585938 C 19.476562 20.585938 19.09375 20.199219 19.09375 19.734375 L 19.09375 16.300781 C 19.09375 15.824219 19.484375 15.445312 19.957031 15.445312 C 20.4375 15.445312 20.820312 15.832031 20.820312 16.300781 L 20.820312 19.734375 C 20.820312 20.210938 20.425781 20.585938 19.957031 20.585938 Z M 19.957031 20.585938 "/>
</g>
</svg>
