<?xml version="1.0" encoding="UTF-8"?>
<svg xmlns="http://www.w3.org/2000/svg" xmlns:xlink="http://www.w3.org/1999/xlink" width="28px" height="28px" viewBox="0 0 28 28" version="1.1">
<g id="surface1">
<path style=" stroke:none;fill-rule:nonzero;fill:rgb(92.941176%,41.176471%,36.078431%);fill-opacity:1;" d="M 5.804688 27.660156 L 2.855469 27.660156 C 2.449219 27.660156 2.121094 27.332031 2.121094 26.933594 L 2.121094 0.734375 C 2.121094 0.332031 2.449219 0.0078125 2.855469 0.0078125 L 5.804688 0.0078125 C 6.207031 0.0078125 6.535156 0.332031 6.535156 0.734375 L 6.535156 26.933594 C 6.535156 27.332031 6.207031 27.660156 5.804688 27.660156 Z M 3.597656 26.203125 L 5.066406 26.203125 L 5.066406 1.457031 L 3.597656 1.457031 Z M 3.597656 26.203125 "/>
<path style=" stroke:none;fill-rule:nonzero;fill:rgb(92.941176%,41.176471%,36.078431%);fill-opacity:1;" d="M 25.332031 27.660156 L 22.386719 27.660156 C 21.980469 27.660156 21.652344 27.332031 21.652344 26.925781 L 21.652344 0.726562 C 21.652344 0.324219 21.980469 0 22.386719 0 L 25.332031 0 C 25.738281 0 26.066406 0.324219 26.066406 0.726562 L 26.066406 26.925781 C 26.066406 27.332031 25.738281 27.652344 25.332031 27.652344 Z M 23.125 26.21875 L 24.664062 26.21875 L 24.664062 1.457031 L 23.125 1.457031 Z M 23.125 26.21875 "/>
<path style=" stroke:none;fill-rule:nonzero;fill:rgb(92.941176%,41.176471%,36.078431%);fill-opacity:1;" d="M 22.398438 27.660156 L 5.789062 27.660156 C 5.496094 27.660156 5.253906 27.421875 5.253906 27.128906 L 5.253906 3.335938 C 5.253906 3.042969 5.496094 2.804688 5.789062 2.804688 L 6.882812 2.804688 C 6.902344 2.804688 6.921875 2.804688 6.941406 2.804688 C 7.496094 2.804688 8.035156 2.636719 8.496094 2.328125 C 10.785156 0.691406 13.910156 0.675781 14.042969 0.675781 C 14.171875 0.675781 17.296875 0.691406 19.589844 2.328125 C 20.046875 2.636719 20.585938 2.804688 21.140625 2.804688 C 21.164062 2.804688 21.179688 2.804688 21.199219 2.804688 L 22.390625 2.804688 C 22.6875 2.804688 22.929688 3.042969 22.929688 3.335938 L 22.929688 27.128906 C 22.929688 27.421875 22.390625 27.367188 22.390625 27.660156 Z M 6.332031 26.597656 L 21.863281 26.597656 L 21.863281 3.867188 L 21.207031 3.867188 C 21.1875 3.867188 21.167969 3.867188 21.140625 3.867188 C 20.359375 3.867188 19.601562 3.625 18.960938 3.183594 C 16.949219 1.757812 14.066406 1.738281 14.042969 1.738281 C 14.015625 1.738281 11.132812 1.757812 9.121094 3.183594 C 8.488281 3.625 7.722656 3.867188 6.941406 3.867188 C 6.921875 3.867188 6.898438 3.867188 6.878906 3.867188 L 6.320312 3.867188 L 6.320312 26.597656 Z M 6.332031 26.597656 "/>
<path style=" stroke:none;fill-rule:nonzero;fill:rgb(92.941176%,41.176471%,36.078431%);fill-opacity:1;" d="M 18.933594 17.46875 C 18.527344 17.46875 18.199219 17.144531 18.199219 16.746094 L 18.199219 13.832031 C 18.199219 13.429688 18.527344 13.105469 18.933594 13.105469 C 19.339844 13.105469 19.667969 13.429688 19.667969 13.832031 L 19.667969 16.746094 C 19.667969 17.144531 19.339844 17.46875 18.933594 17.46875 Z M 18.933594 17.46875 "/>
</g>
</svg>
