<?xml version="1.0" encoding="UTF-8"?>
<svg xmlns="http://www.w3.org/2000/svg" xmlns:xlink="http://www.w3.org/1999/xlink" width="28px" height="28px" viewBox="0 0 28 33" version="1.1">
<g id="surface1">
<path style=" stroke:none;fill-rule:nonzero;fill:rgb(92.941176%,41.176471%,36.078431%);fill-opacity:1;" d="M 4.339844 32.597656 L 0.863281 32.597656 C 0.386719 32.597656 0 32.214844 0 31.742188 L 0 0.863281 C 0 0.390625 0.386719 0.0078125 0.863281 0.0078125 L 4.339844 0.0078125 C 4.816406 0.0078125 5.203125 0.390625 5.203125 0.863281 L 5.203125 31.742188 C 5.203125 32.214844 4.816406 32.597656 4.339844 32.597656 Z M 1.738281 30.882812 L 3.472656 30.882812 L 3.472656 1.71875 L 1.738281 1.71875 Z M 1.738281 30.882812 "/>
<path style=" stroke:none;fill-rule:nonzero;fill:rgb(92.941176%,41.176471%,36.078431%);fill-opacity:1;" d="M 27.355469 32.597656 L 23.882812 32.597656 C 23.40625 32.597656 23.019531 32.214844 23.019531 31.734375 L 23.019531 0.855469 C 23.019531 0.382812 23.40625 0 23.882812 0 L 27.355469 0 C 27.835938 0 28.222656 0.382812 28.222656 0.855469 L 28.222656 31.734375 C 28.222656 32.210938 27.835938 32.589844 27.355469 32.589844 Z M 24.753906 30.902344 L 26.570312 30.902344 L 26.570312 1.71875 L 24.753906 1.71875 Z M 24.753906 30.902344 "/>
<path style=" stroke:none;fill-rule:nonzero;fill:rgb(92.941176%,41.176471%,36.078431%);fill-opacity:1;" d="M 23.898438 32.597656 L 4.324219 32.597656 C 3.976562 32.597656 3.691406 32.316406 3.691406 31.972656 L 3.691406 3.929688 C 3.691406 3.585938 3.976562 3.304688 4.324219 3.304688 L 5.613281 3.304688 C 5.636719 3.304688 5.65625 3.304688 5.679688 3.304688 C 6.335938 3.304688 6.96875 3.105469 7.511719 2.742188 C 10.210938 0.816406 13.894531 0.796875 14.050781 0.796875 C 14.203125 0.796875 17.886719 0.816406 20.585938 2.742188 C 21.128906 3.105469 21.761719 3.304688 22.417969 3.304688 C 22.441406 3.304688 22.460938 3.304688 22.484375 3.304688 L 23.890625 3.304688 C 24.238281 3.304688 24.523438 3.585938 24.523438 3.929688 L 24.523438 31.972656 C 24.523438 32.316406 23.890625 32.253906 23.890625 32.597656 Z M 4.964844 31.347656 L 23.265625 31.347656 L 23.265625 4.558594 L 22.492188 4.558594 C 22.46875 4.558594 22.449219 4.558594 22.417969 4.558594 C 21.496094 4.558594 20.601562 4.273438 19.847656 3.753906 C 17.476562 2.070312 14.078125 2.046875 14.050781 2.046875 C 14.019531 2.046875 10.621094 2.070312 8.25 3.753906 C 7.503906 4.273438 6.601562 4.558594 5.679688 4.558594 C 5.65625 4.558594 5.628906 4.558594 5.605469 4.558594 L 4.949219 4.558594 L 4.949219 31.347656 Z M 4.964844 31.347656 "/>
<path style=" stroke:none;fill-rule:nonzero;fill:rgb(92.941176%,41.176471%,36.078431%);fill-opacity:1;" d="M 19.816406 20.589844 C 19.335938 20.589844 18.949219 20.207031 18.949219 19.734375 L 18.949219 16.300781 C 18.949219 15.828125 19.335938 15.445312 19.816406 15.445312 C 20.292969 15.445312 20.679688 15.828125 20.679688 16.300781 L 20.679688 19.734375 C 20.679688 20.207031 20.292969 20.589844 19.816406 20.589844 Z M 19.816406 20.589844 "/>
</g>
</svg>
