<?xml version="1.0" encoding="UTF-8"?>
<svg xmlns="http://www.w3.org/2000/svg" xmlns:xlink="http://www.w3.org/1999/xlink" width="28px" height="28px" viewBox="0 0 28 28" version="1.1">
<g id="surface1">
<path style=" stroke:none;fill-rule:evenodd;fill:rgb(92.941176%,41.176471%,36.078431%);fill-opacity:1;" d="M 0 3.394531 L 0 24.242188 C 0.335938 24.636719 1.773438 24.984375 2.355469 25.183594 C 3.234375 25.480469 9.558594 27.511719 9.804688 27.671875 L 10.101562 27.671875 C 10.523438 27.355469 10.402344 27.1875 10.402344 26.542969 C 10.402344 26.054688 10.402344 25.5625 10.402344 25.066406 C 12.859375 25.082031 15.324219 25.066406 17.78125 25.066406 C 22.136719 25.066406 21.644531 25.492188 21.644531 23.425781 C 21.644531 22.460938 21.71875 16.441406 21.578125 16.183594 C 21.46875 15.988281 21.148438 15.898438 20.917969 16.078125 C 20.742188 16.21875 20.765625 16.515625 20.769531 16.789062 L 20.769531 24.191406 L 10.40625 24.191406 L 10.40625 3.460938 L 20.769531 3.460938 C 20.769531 5.914062 20.792969 8.375 20.769531 10.824219 C 20.769531 11.089844 20.714844 11.425781 20.9375 11.59375 C 21.132812 11.738281 21.445312 11.664062 21.566406 11.488281 C 21.765625 11.199219 21.652344 5.191406 21.652344 4.191406 C 21.652344 3.671875 21.800781 2.742188 21.355469 2.609375 C 21.09375 2.53125 11.175781 2.578125 10.429688 2.582031 C 10.378906 2.15625 10.410156 1.582031 10.410156 1.140625 C 10.414062 -0.496094 10.339844 -0.125 7.527344 0.757812 L 2.441406 2.441406 C 1.773438 2.664062 0.472656 2.972656 0.0117188 3.398438 Z M 0 3.394531 "/>
<path style=" stroke:none;fill-rule:evenodd;fill:rgb(100%,100%,100%);fill-opacity:1;" d="M 0.890625 3.878906 L 0.882812 23.753906 L 9.503906 26.609375 L 9.519531 1.046875 Z M 0.890625 3.878906 "/>
<path style=" stroke:none;fill-rule:evenodd;fill:rgb(92.941176%,41.176471%,36.078431%);fill-opacity:1;" d="M 27.679688 14.867188 C 27.691406 14.421875 27.636719 14.277344 27.203125 14.25 C 25.902344 14.175781 16.328125 14.273438 16.277344 14.289062 C 16.058594 14.367188 15.917969 14.636719 16.0625 14.925781 C 16.125 15.054688 16.425781 15.324219 16.546875 15.4375 C 16.785156 15.679688 17.386719 16.207031 17.53125 16.484375 L 16.933594 17.058594 C 16.625 16.902344 14.148438 14.300781 13.632812 13.820312 C 13.878906 13.480469 16.359375 11.0625 16.855469 10.574219 L 17.527344 11.210938 C 17.175781 11.832031 15.234375 13.054688 16.289062 13.371094 C 16.527344 13.441406 24.902344 13.394531 26.207031 13.394531 C 26.75 13.394531 27.796875 13.578125 27.671875 12.878906 C 27.519531 12.386719 27.199219 12.515625 26.671875 12.515625 L 17.574219 12.511719 C 17.953125 11.746094 19.09375 11.523438 18.390625 10.8125 C 18.132812 10.554688 17.179688 9.484375 16.855469 9.496094 C 16.5 9.507812 14.296875 11.867188 13.90625 12.257812 C 12.234375 13.929688 12.257812 13.707031 13.148438 14.597656 L 15.269531 16.71875 C 16.960938 18.410156 16.6875 18.5625 17.855469 17.398438 C 18.144531 17.113281 18.644531 16.800781 18.589844 16.261719 C 18.359375 15.839844 17.789062 15.554688 17.558594 15.136719 L 26.738281 15.136719 C 27.386719 15.140625 27.3125 15.214844 27.679688 14.871094 Z M 27.679688 14.867188 "/>
<path style=" stroke:none;fill-rule:evenodd;fill:rgb(100%,100%,100%);fill-opacity:1;" d="M 0 27.671875 L 9.804688 27.671875 C 9.558594 27.511719 3.234375 25.480469 2.355469 25.183594 C 1.773438 24.984375 0.335938 24.636719 0 24.242188 Z M 0 27.671875 "/>
<path style=" stroke:none;fill-rule:evenodd;fill:rgb(92.941176%,41.176471%,36.078431%);fill-opacity:1;" d="M 6.9375 12.609375 C 6.554688 12.765625 6.398438 12.859375 6.21875 13.191406 C 5.644531 14.25 6.660156 15.4375 7.816406 15.050781 C 9.402344 14.519531 8.539062 11.953125 6.9375 12.609375 Z M 6.9375 12.609375 "/>
<path style=" stroke:none;fill-rule:evenodd;fill:rgb(100%,100%,100%);fill-opacity:1;" d="M 6.96875 14.035156 C 7.332031 14.304688 7.386719 14.347656 7.753906 14.027344 C 7.839844 13.160156 6.871094 13.175781 6.96875 14.035156 Z M 6.96875 14.035156 "/>
</g>
</svg>
