<?xml version="1.0" encoding="UTF-8"?>
<svg xmlns="http://www.w3.org/2000/svg" xmlns:xlink="http://www.w3.org/1999/xlink" width="28px" height="28px" viewBox="0 0 28 28" version="1.1">
<g id="surface1">
<path style=" stroke:none;fill-rule:evenodd;fill:rgb(92.941176%,41.176471%,36.078431%);fill-opacity:1;" d="M 27.679688 3.394531 L 27.679688 24.242188 C 27.34375 24.636719 25.90625 24.988281 25.324219 25.183594 C 24.445312 25.480469 18.125 27.511719 17.875 27.671875 L 17.578125 27.671875 C 17.160156 27.355469 17.277344 27.1875 17.28125 26.542969 C 17.28125 26.054688 17.277344 25.558594 17.28125 25.066406 C 14.820312 25.078125 12.359375 25.066406 9.902344 25.066406 C 5.546875 25.066406 6.035156 25.492188 6.035156 23.425781 C 6.035156 22.457031 5.960938 16.441406 6.105469 16.183594 C 6.214844 15.988281 6.535156 15.894531 6.765625 16.074219 C 6.941406 16.214844 6.917969 16.515625 6.917969 16.789062 L 6.914062 24.1875 L 17.28125 24.1875 L 17.28125 3.457031 L 6.917969 3.457031 C 6.917969 5.910156 6.898438 8.371094 6.917969 10.824219 C 6.921875 11.085938 6.976562 11.425781 6.753906 11.589844 C 6.558594 11.734375 6.246094 11.660156 6.125 11.480469 C 5.929688 11.195312 6.039062 5.183594 6.039062 4.1875 C 6.039062 3.667969 5.886719 2.742188 6.335938 2.605469 C 6.597656 2.527344 16.515625 2.574219 17.261719 2.582031 C 17.3125 2.152344 17.28125 1.582031 17.28125 1.136719 C 17.28125 -0.496094 17.351562 -0.128906 20.167969 0.757812 L 25.253906 2.441406 C 25.921875 2.664062 27.222656 2.972656 27.683594 3.398438 Z M 27.679688 3.394531 "/>
<path style=" stroke:none;fill-rule:evenodd;fill:rgb(100%,100%,100%);fill-opacity:1;" d="M 26.789062 3.878906 L 26.800781 23.753906 L 18.179688 26.609375 L 18.160156 1.050781 Z M 26.789062 3.878906 "/>
<path style=" stroke:none;fill-rule:evenodd;fill:rgb(92.941176%,41.176471%,36.078431%);fill-opacity:1;" d="M 0.00390625 14.867188 C -0.0117188 14.421875 0.0429688 14.277344 0.476562 14.25 C 1.78125 14.175781 11.351562 14.269531 11.402344 14.289062 C 11.621094 14.371094 11.761719 14.636719 11.621094 14.921875 C 11.558594 15.050781 11.253906 15.324219 11.136719 15.441406 C 10.898438 15.679688 10.296875 16.210938 10.152344 16.484375 L 10.75 17.0625 C 11.058594 16.90625 13.53125 14.300781 14.050781 13.824219 C 13.804688 13.484375 11.324219 11.066406 10.828125 10.574219 L 10.160156 11.210938 C 10.507812 11.835938 12.445312 13.054688 11.394531 13.371094 C 11.152344 13.441406 2.777344 13.394531 1.476562 13.394531 C 0.933594 13.394531 -0.113281 13.582031 0.0117188 12.878906 C 0.167969 12.386719 0.488281 12.511719 1.011719 12.515625 L 10.109375 12.507812 C 9.734375 11.746094 8.59375 11.519531 9.292969 10.808594 C 9.546875 10.550781 10.5 9.480469 10.824219 9.492188 C 11.179688 9.503906 13.382812 11.863281 13.773438 12.253906 C 15.445312 13.925781 15.425781 13.703125 14.539062 14.59375 L 12.417969 16.714844 C 10.722656 18.410156 11 18.558594 9.828125 17.394531 C 9.542969 17.109375 9.039062 16.796875 9.097656 16.261719 C 9.328125 15.839844 9.898438 15.550781 10.128906 15.132812 L 0.949219 15.132812 C 0.296875 15.136719 0.371094 15.214844 0.0078125 14.867188 Z M 0.00390625 14.867188 "/>
<path style=" stroke:none;fill-rule:evenodd;fill:rgb(100%,100%,100%);fill-opacity:1;" d="M 27.679688 27.671875 L 17.875 27.671875 C 18.125 27.511719 24.449219 25.480469 25.324219 25.183594 C 25.90625 24.988281 27.34375 24.636719 27.679688 24.242188 Z M 27.679688 27.671875 "/>
<path style=" stroke:none;fill-rule:evenodd;fill:rgb(92.941176%,41.176471%,36.078431%);fill-opacity:1;" d="M 20.746094 12.609375 C 21.125 12.765625 21.28125 12.859375 21.460938 13.191406 C 22.035156 14.253906 21.019531 15.441406 19.863281 15.054688 C 18.277344 14.519531 19.140625 11.953125 20.742188 12.609375 Z M 20.746094 12.609375 "/>
<path style=" stroke:none;fill-rule:evenodd;fill:rgb(100%,100%,100%);fill-opacity:1;" d="M 20.710938 14.035156 C 20.347656 14.300781 20.292969 14.347656 19.925781 14.027344 C 19.839844 13.160156 20.808594 13.175781 20.710938 14.035156 Z M 20.710938 14.035156 "/>
</g>
</svg>
