<?xml version="1.0" encoding="UTF-8"?>
<svg xmlns="http://www.w3.org/2000/svg" xmlns:xlink="http://www.w3.org/1999/xlink" width="28px" height="28px" viewBox="0 0 28 28" version="1.1">
<g id="surface1">
<path style="fill:none;stroke-width:10.86;stroke-linecap:butt;stroke-linejoin:miter;stroke:rgb(92.941176%,41.176471%,36.078431%);stroke-opacity:1;stroke-miterlimit:22.9256;" d="M 36.679173 5.42794 L 265.967244 5.42794 C 283.226397 5.42794 297.220306 19.421849 297.220306 36.681003 L 297.220306 267.70771 C 297.220306 284.966864 283.226397 298.960772 265.967244 298.960772 L 36.679173 298.960772 C 19.420019 298.960772 5.426111 284.966864 5.426111 267.70771 L 5.426111 36.681003 C 5.426111 19.421849 19.420019 5.42794 36.679173 5.42794 Z M 36.679173 5.42794 " transform="matrix(0.092116,0,0,0.092116,0.000168506,0)"/>
<path style=" stroke:none;fill-rule:nonzero;fill:rgb(92.941176%,41.176471%,36.078431%);fill-opacity:1;" d="M 8.046875 11.410156 L 12.957031 2.90625 L 13.707031 3.34375 L 8.796875 11.84375 L 8.042969 11.414062 Z M 8.042969 11.414062 L 8.046875 11.410156 L 8.042969 11.417969 Z M 9.03125 12.234375 L 9.03125 13.101562 L 8.953125 13.097656 L 8.875 13.089844 L 8.796875 13.078125 L 8.722656 13.058594 L 8.652344 13.039062 L 8.582031 13.007812 L 8.515625 12.976562 L 8.449219 12.941406 L 8.386719 12.902344 L 8.277344 12.816406 L 8.222656 12.765625 L 8.175781 12.714844 L 8.132812 12.65625 L 8.089844 12.601562 L 8.019531 12.476562 L 7.988281 12.414062 L 7.941406 12.28125 L 7.910156 12.140625 L 7.902344 12.070312 L 7.898438 11.996094 L 7.902344 11.925781 L 7.90625 11.851562 L 7.917969 11.777344 L 7.933594 11.703125 L 7.953125 11.632812 L 7.976562 11.558594 L 8.007812 11.488281 L 8.046875 11.417969 L 8.804688 11.839844 L 8.792969 11.855469 L 8.789062 11.875 L 8.78125 11.894531 L 8.773438 11.910156 L 8.769531 11.929688 L 8.769531 12.011719 L 8.777344 12.042969 L 8.785156 12.058594 L 8.789062 12.074219 L 8.8125 12.121094 L 8.824219 12.132812 L 8.832031 12.144531 L 8.84375 12.160156 L 8.855469 12.167969 L 8.871094 12.179688 L 8.882812 12.191406 L 8.898438 12.199219 L 8.910156 12.207031 L 8.925781 12.210938 L 8.941406 12.21875 L 8.960938 12.222656 L 8.992188 12.230469 L 9.011719 12.230469 L 9.035156 12.234375 Z M 18.851562 13.101562 L 9.03125 13.101562 L 9.03125 12.230469 L 18.851562 12.230469 Z M 19.082031 11.84375 L 19.832031 11.410156 L 19.867188 11.476562 L 19.898438 11.550781 L 19.925781 11.621094 L 19.945312 11.691406 L 19.960938 11.765625 L 19.972656 11.839844 L 19.980469 11.917969 L 19.980469 11.988281 L 19.976562 12.058594 L 19.96875 12.132812 L 19.953125 12.203125 L 19.9375 12.269531 L 19.914062 12.339844 L 19.890625 12.40625 L 19.828125 12.53125 L 19.75 12.648438 L 19.703125 12.703125 L 19.65625 12.753906 L 19.605469 12.804688 L 19.550781 12.851562 L 19.433594 12.9375 L 19.371094 12.972656 L 19.300781 13.003906 L 19.230469 13.03125 L 19.160156 13.054688 L 19.082031 13.074219 L 19.007812 13.085938 L 18.929688 13.09375 L 18.851562 13.097656 L 18.851562 12.230469 L 18.871094 12.230469 L 18.886719 12.226562 L 18.90625 12.222656 L 18.953125 12.210938 L 18.984375 12.195312 L 18.996094 12.183594 L 19.011719 12.175781 L 19.046875 12.140625 L 19.058594 12.125 L 19.066406 12.113281 L 19.078125 12.097656 L 19.09375 12.066406 L 19.097656 12.050781 L 19.101562 12.03125 L 19.109375 12.015625 L 19.109375 12 L 19.113281 11.984375 L 19.113281 11.9375 L 19.109375 11.921875 L 19.109375 11.90625 L 19.101562 11.886719 L 19.097656 11.871094 L 19.082031 11.839844 Z M 14.921875 2.90625 L 19.832031 11.410156 L 19.082031 11.84375 L 14.171875 3.34375 L 14.921875 2.90625 L 14.925781 2.910156 Z M 14.921875 2.902344 L 14.925781 2.910156 L 14.917969 2.902344 Z M 13.707031 3.339844 L 12.957031 2.90625 L 12.953125 2.914062 L 12.996094 2.84375 L 13.089844 2.71875 L 13.140625 2.664062 L 13.199219 2.609375 L 13.257812 2.5625 L 13.316406 2.519531 L 13.382812 2.480469 L 13.449219 2.449219 L 13.511719 2.417969 L 13.582031 2.394531 L 13.652344 2.375 L 13.722656 2.359375 L 13.792969 2.347656 L 13.863281 2.339844 L 14.007812 2.339844 L 14.078125 2.347656 L 14.144531 2.359375 L 14.214844 2.375 L 14.285156 2.394531 L 14.355469 2.417969 L 14.421875 2.445312 L 14.484375 2.480469 L 14.550781 2.519531 L 14.613281 2.558594 L 14.671875 2.605469 L 14.726562 2.65625 L 14.78125 2.710938 L 14.832031 2.773438 L 14.878906 2.835938 L 14.921875 2.902344 L 14.175781 3.34375 L 14.164062 3.324219 L 14.152344 3.308594 L 14.113281 3.269531 L 14.082031 3.246094 L 14.070312 3.238281 L 14.054688 3.230469 L 14.035156 3.226562 L 14.019531 3.21875 L 13.988281 3.210938 L 13.96875 3.207031 L 13.902344 3.207031 L 13.882812 3.210938 L 13.851562 3.21875 L 13.835938 3.226562 L 13.820312 3.230469 L 13.808594 3.238281 L 13.792969 3.246094 L 13.78125 3.257812 L 13.769531 3.265625 L 13.734375 3.300781 L 13.722656 3.316406 L 13.710938 3.339844 Z M 13.710938 3.335938 L 13.707031 3.339844 L 13.714844 3.332031 Z M 13.710938 3.335938 "/>
<path style=" stroke:none;fill-rule:nonzero;fill:rgb(92.941176%,41.176471%,36.078431%);fill-opacity:1;" d="M 19.832031 16.628906 L 14.921875 25.132812 L 14.171875 24.695312 L 19.082031 16.195312 L 19.835938 16.625 Z M 19.835938 16.625 L 19.832031 16.628906 L 19.832031 16.632812 Z M 18.851562 15.804688 L 18.851562 14.9375 L 18.929688 14.941406 L 19.003906 14.949219 L 19.082031 14.960938 L 19.15625 14.980469 L 19.226562 15.003906 L 19.296875 15.03125 L 19.363281 15.0625 L 19.429688 15.097656 L 19.492188 15.136719 L 19.550781 15.179688 L 19.605469 15.222656 L 19.65625 15.273438 L 19.703125 15.324219 L 19.75 15.382812 L 19.828125 15.5 L 19.859375 15.558594 L 19.890625 15.625 L 19.917969 15.691406 L 19.9375 15.757812 L 19.957031 15.828125 L 19.96875 15.898438 L 19.976562 15.96875 L 19.980469 16.042969 L 19.980469 16.113281 L 19.972656 16.1875 L 19.960938 16.261719 L 19.945312 16.335938 L 19.925781 16.410156 L 19.902344 16.480469 L 19.871094 16.554688 L 19.832031 16.621094 L 19.074219 16.203125 L 19.085938 16.183594 L 19.09375 16.164062 L 19.097656 16.148438 L 19.105469 16.109375 L 19.109375 16.09375 L 19.109375 16.042969 L 19.105469 16.027344 L 19.105469 16.011719 L 19.101562 15.996094 L 19.09375 15.980469 L 19.089844 15.964844 L 19.066406 15.917969 L 19.054688 15.90625 L 19.046875 15.894531 L 19.035156 15.878906 L 19.023438 15.871094 L 19.007812 15.859375 L 18.996094 15.847656 L 18.984375 15.839844 L 18.96875 15.832031 L 18.953125 15.828125 L 18.9375 15.820312 L 18.917969 15.816406 L 18.886719 15.808594 L 18.867188 15.808594 L 18.84375 15.804688 Z M 9.03125 14.9375 L 18.851562 14.9375 L 18.851562 15.804688 L 9.03125 15.804688 Z M 8.800781 16.195312 L 8.046875 16.628906 L 8.011719 16.5625 L 7.980469 16.488281 L 7.953125 16.417969 L 7.933594 16.34375 L 7.917969 16.273438 L 7.90625 16.199219 L 7.898438 16.050781 L 7.902344 15.980469 L 7.910156 15.90625 L 7.925781 15.835938 L 7.941406 15.769531 L 7.964844 15.699219 L 7.988281 15.636719 L 8.019531 15.570312 L 8.050781 15.507812 L 8.128906 15.390625 L 8.171875 15.335938 L 8.21875 15.28125 L 8.328125 15.1875 L 8.382812 15.144531 L 8.445312 15.101562 L 8.511719 15.066406 L 8.578125 15.035156 L 8.648438 15.007812 L 8.71875 14.984375 L 8.792969 14.964844 L 8.871094 14.953125 L 8.949219 14.945312 L 9.03125 14.941406 L 9.03125 15.808594 L 9.007812 15.808594 L 8.992188 15.8125 L 8.972656 15.816406 L 8.941406 15.824219 L 8.894531 15.847656 L 8.882812 15.855469 L 8.867188 15.863281 L 8.832031 15.898438 L 8.820312 15.914062 L 8.8125 15.929688 L 8.800781 15.945312 L 8.792969 15.957031 L 8.785156 15.976562 L 8.78125 15.992188 L 8.773438 16.007812 L 8.769531 16.023438 L 8.765625 16.042969 L 8.765625 16.121094 L 8.773438 16.152344 L 8.796875 16.199219 Z M 12.957031 25.128906 L 8.046875 16.628906 L 8.796875 16.195312 L 13.707031 24.695312 L 13.710938 24.703125 Z M 13.707031 24.695312 L 13.710938 24.703125 Z M 14.171875 24.695312 L 14.921875 25.128906 L 14.917969 25.132812 L 14.875 25.203125 L 14.832031 25.265625 L 14.78125 25.324219 L 14.726562 25.378906 L 14.671875 25.429688 L 14.613281 25.476562 L 14.550781 25.519531 L 14.484375 25.558594 L 14.421875 25.589844 L 14.351562 25.621094 L 14.285156 25.644531 L 14.214844 25.664062 L 14.144531 25.679688 L 14.074219 25.691406 L 13.933594 25.699219 L 13.863281 25.695312 L 13.789062 25.691406 L 13.71875 25.679688 L 13.652344 25.664062 L 13.582031 25.644531 L 13.511719 25.621094 L 13.378906 25.558594 L 13.316406 25.519531 L 13.253906 25.476562 L 13.195312 25.425781 L 13.140625 25.375 L 13.085938 25.316406 L 13.039062 25.257812 L 12.992188 25.195312 L 12.953125 25.125 L 13.710938 24.707031 L 13.71875 24.722656 L 13.730469 24.738281 L 13.777344 24.785156 L 13.789062 24.792969 L 13.804688 24.800781 L 13.816406 24.808594 L 13.832031 24.8125 L 13.847656 24.820312 L 13.878906 24.828125 L 13.898438 24.832031 L 13.964844 24.832031 L 13.984375 24.828125 L 14.015625 24.820312 L 14.03125 24.8125 L 14.046875 24.808594 L 14.0625 24.796875 L 14.082031 24.789062 L 14.09375 24.78125 L 14.109375 24.769531 L 14.121094 24.757812 L 14.132812 24.742188 L 14.144531 24.730469 L 14.160156 24.710938 L 14.171875 24.695312 L 14.167969 24.699219 Z M 14.921875 25.128906 L 14.917969 25.132812 Z M 14.921875 25.128906 "/>
</g>
</svg>
