<?xml version="1.0" encoding="UTF-8"?>
<svg xmlns="http://www.w3.org/2000/svg" xmlns:xlink="http://www.w3.org/1999/xlink" width="28px" height="28px" viewBox="0 0 28 28" version="1.1">
<g id="surface1">
<path style="fill:none;stroke-width:39.89;stroke-linecap:butt;stroke-linejoin:miter;stroke:rgb(92.941176%,41.176471%,36.078431%);stroke-opacity:1;stroke-miterlimit:22.9256;" d="M 134.773726 19.941924 L 977.226367 19.941924 C 1040.640131 19.941924 1092.056697 71.35849 1092.056697 134.772255 L 1092.056697 983.613015 C 1092.056697 1047.026779 1040.640131 1098.443345 977.226367 1098.443345 L 134.773726 1098.443345 C 71.359961 1098.443345 19.943395 1047.026779 19.943395 983.613015 L 19.943395 134.772255 C 19.943395 71.35849 71.359961 19.941924 134.773726 19.941924 Z M 134.773726 19.941924 " transform="matrix(0.025071,0,0,0.025071,0,0.0000368781)"/>
<path style=" stroke:none;fill-rule:nonzero;fill:rgb(92.941176%,41.176471%,36.078431%);fill-opacity:1;" d="M 11.328125 19.910156 L 2.828125 15.003906 L 3.261719 14.25 L 11.761719 19.160156 L 11.335938 19.914062 Z M 11.335938 19.914062 L 11.328125 19.910156 L 11.339844 19.917969 Z M 12.152344 18.929688 L 13.019531 18.929688 L 13.019531 19.007812 L 13.011719 19.085938 L 12.980469 19.234375 L 12.957031 19.308594 L 12.929688 19.378906 L 12.898438 19.445312 L 12.863281 19.507812 L 12.824219 19.570312 L 12.78125 19.628906 L 12.734375 19.683594 L 12.632812 19.785156 L 12.578125 19.828125 L 12.519531 19.871094 L 12.460938 19.90625 L 12.398438 19.941406 L 12.265625 19.996094 L 12.199219 20.019531 L 12.128906 20.035156 L 11.988281 20.058594 L 11.914062 20.0625 L 11.84375 20.058594 L 11.769531 20.054688 L 11.695312 20.042969 L 11.621094 20.027344 L 11.550781 20.007812 L 11.476562 19.984375 L 11.40625 19.953125 L 11.335938 19.917969 L 11.757812 19.15625 L 11.773438 19.167969 L 11.792969 19.175781 L 11.8125 19.179688 L 11.828125 19.1875 L 11.847656 19.191406 L 11.863281 19.191406 L 11.878906 19.195312 L 11.894531 19.195312 L 11.914062 19.191406 L 11.929688 19.191406 L 11.976562 19.179688 L 12.039062 19.148438 L 12.050781 19.140625 L 12.0625 19.128906 L 12.078125 19.117188 L 12.089844 19.105469 L 12.097656 19.09375 L 12.109375 19.078125 L 12.117188 19.066406 L 12.125 19.050781 L 12.132812 19.039062 L 12.136719 19.023438 L 12.144531 19.003906 L 12.148438 18.988281 L 12.148438 18.972656 L 12.152344 18.953125 Z M 13.019531 9.109375 L 13.019531 18.929688 L 12.152344 18.929688 L 12.152344 9.109375 Z M 11.761719 8.878906 L 11.328125 8.128906 L 11.398438 8.089844 L 11.46875 8.058594 L 11.542969 8.03125 L 11.613281 8.011719 L 11.6875 7.996094 L 11.761719 7.984375 L 11.835938 7.980469 L 11.90625 7.976562 L 11.980469 7.980469 L 12.121094 8.003906 L 12.191406 8.019531 L 12.257812 8.042969 L 12.390625 8.097656 L 12.453125 8.132812 L 12.511719 8.167969 L 12.570312 8.207031 L 12.625 8.253906 L 12.675781 8.300781 L 12.726562 8.351562 L 12.773438 8.40625 L 12.816406 8.464844 L 12.859375 8.527344 L 12.894531 8.589844 L 12.925781 8.660156 L 12.953125 8.726562 L 12.976562 8.800781 L 12.996094 8.875 L 13.007812 8.953125 L 13.015625 9.03125 L 13.019531 9.109375 L 12.152344 9.109375 L 12.152344 9.089844 L 12.148438 9.070312 L 12.140625 9.039062 L 12.136719 9.019531 L 12.132812 9.003906 L 12.125 8.992188 L 12.117188 8.976562 L 12.105469 8.964844 L 12.097656 8.949219 L 12.0625 8.914062 L 12.046875 8.902344 L 12.035156 8.894531 L 12.019531 8.882812 L 11.988281 8.867188 L 11.972656 8.863281 L 11.953125 8.855469 L 11.921875 8.847656 L 11.855469 8.847656 L 11.839844 8.851562 L 11.824219 8.851562 L 11.808594 8.859375 L 11.792969 8.863281 Z M 2.828125 13.035156 L 11.328125 8.128906 L 11.761719 8.878906 L 3.261719 13.789062 L 2.824219 13.039062 Z M 2.824219 13.039062 L 2.832031 13.035156 L 2.828125 13.035156 Z M 3.261719 14.25 L 2.828125 15.003906 L 2.835938 15.007812 L 2.765625 14.964844 L 2.699219 14.917969 L 2.640625 14.871094 L 2.585938 14.820312 L 2.53125 14.761719 L 2.484375 14.703125 L 2.441406 14.644531 L 2.402344 14.578125 L 2.339844 14.445312 L 2.316406 14.378906 L 2.296875 14.308594 L 2.28125 14.238281 L 2.269531 14.167969 L 2.261719 14.097656 L 2.261719 13.953125 L 2.269531 13.882812 L 2.28125 13.8125 L 2.296875 13.746094 L 2.316406 13.675781 L 2.339844 13.605469 L 2.367188 13.539062 L 2.402344 13.472656 L 2.480469 13.347656 L 2.527344 13.289062 L 2.578125 13.234375 L 2.632812 13.179688 L 2.695312 13.128906 L 2.757812 13.082031 L 2.824219 13.039062 L 3.265625 13.785156 L 3.246094 13.796875 L 3.230469 13.808594 L 3.191406 13.847656 L 3.179688 13.863281 L 3.171875 13.878906 L 3.160156 13.890625 L 3.15625 13.90625 L 3.148438 13.925781 L 3.140625 13.941406 L 3.132812 13.972656 L 3.128906 13.992188 L 3.128906 14.0625 L 3.144531 14.125 L 3.152344 14.140625 L 3.160156 14.152344 L 3.167969 14.167969 L 3.175781 14.179688 L 3.222656 14.226562 L 3.238281 14.238281 Z M 3.253906 14.246094 L 3.261719 14.25 Z M 3.253906 14.246094 "/>
<path style=" stroke:none;fill-rule:nonzero;fill:rgb(92.941176%,41.176471%,36.078431%);fill-opacity:1;" d="M 16.550781 8.128906 L 25.050781 13.035156 L 24.617188 13.789062 L 16.117188 8.878906 L 16.542969 8.125 Z M 16.542969 8.125 L 16.550781 8.128906 L 16.554688 8.128906 Z M 15.726562 9.109375 L 14.859375 9.109375 L 14.863281 9.03125 L 14.871094 8.953125 L 14.882812 8.878906 L 14.921875 8.730469 L 14.949219 8.660156 L 14.980469 8.59375 L 15.015625 8.53125 L 15.058594 8.46875 L 15.097656 8.410156 L 15.144531 8.355469 L 15.246094 8.253906 L 15.304688 8.210938 L 15.359375 8.167969 L 15.417969 8.132812 L 15.480469 8.097656 L 15.613281 8.042969 L 15.679688 8.023438 L 15.75 8.003906 L 15.820312 7.992188 L 15.890625 7.984375 L 15.964844 7.980469 L 16.035156 7.980469 L 16.109375 7.984375 L 16.183594 7.996094 L 16.257812 8.011719 L 16.332031 8.03125 L 16.402344 8.058594 L 16.476562 8.089844 L 16.542969 8.125 L 16.125 8.882812 L 16.105469 8.871094 L 16.085938 8.863281 L 16.070312 8.859375 L 16.050781 8.851562 L 16.035156 8.847656 L 16.015625 8.847656 L 16 8.84375 L 15.984375 8.84375 L 15.964844 8.847656 L 15.949219 8.847656 L 15.902344 8.859375 L 15.839844 8.890625 L 15.828125 8.898438 L 15.816406 8.910156 L 15.800781 8.921875 L 15.792969 8.933594 L 15.78125 8.945312 L 15.769531 8.960938 L 15.761719 8.972656 L 15.753906 8.988281 L 15.746094 9 L 15.742188 9.015625 L 15.734375 9.035156 L 15.730469 9.050781 L 15.730469 9.070312 L 15.726562 9.089844 Z M 14.859375 18.929688 L 14.859375 9.109375 L 15.726562 9.109375 L 15.726562 18.929688 Z M 16.117188 19.160156 L 16.550781 19.914062 L 16.480469 19.949219 L 16.410156 19.980469 L 16.335938 20.007812 L 16.265625 20.027344 L 16.191406 20.042969 L 16.117188 20.054688 L 16.042969 20.058594 L 15.972656 20.0625 L 15.898438 20.058594 L 15.757812 20.035156 L 15.6875 20.019531 L 15.554688 19.972656 L 15.492188 19.941406 L 15.367188 19.871094 L 15.308594 19.832031 L 15.253906 19.785156 L 15.203125 19.738281 L 15.152344 19.6875 L 15.105469 19.632812 L 15.0625 19.574219 L 14.984375 19.449219 L 14.953125 19.382812 L 14.925781 19.3125 L 14.902344 19.238281 L 14.882812 19.164062 L 14.871094 19.085938 L 14.863281 19.007812 L 14.859375 18.929688 L 15.726562 18.929688 L 15.726562 18.949219 L 15.730469 18.96875 L 15.730469 18.984375 L 15.738281 19.003906 L 15.746094 19.035156 L 15.753906 19.046875 L 15.761719 19.0625 L 15.773438 19.074219 L 15.78125 19.089844 L 15.816406 19.125 L 15.832031 19.136719 L 15.84375 19.148438 L 15.890625 19.171875 L 15.910156 19.179688 L 15.957031 19.191406 L 16.039062 19.191406 L 16.054688 19.1875 L 16.070312 19.179688 L 16.085938 19.175781 Z M 25.050781 15.003906 L 16.550781 19.914062 L 16.117188 19.160156 L 24.617188 14.25 L 24.625 14.246094 Z M 24.617188 14.25 L 24.625 14.246094 L 24.613281 14.253906 Z M 24.617188 13.789062 L 25.050781 13.039062 L 25.054688 13.039062 L 25.121094 13.082031 L 25.1875 13.128906 L 25.246094 13.179688 L 25.300781 13.234375 L 25.351562 13.289062 L 25.398438 13.347656 L 25.441406 13.410156 L 25.476562 13.472656 L 25.511719 13.539062 L 25.539062 13.605469 L 25.585938 13.746094 L 25.601562 13.8125 L 25.609375 13.882812 L 25.617188 13.957031 L 25.621094 14.027344 L 25.617188 14.097656 L 25.609375 14.167969 L 25.585938 14.308594 L 25.5625 14.378906 L 25.539062 14.445312 L 25.511719 14.515625 L 25.476562 14.578125 L 25.4375 14.640625 L 25.394531 14.703125 L 25.347656 14.761719 L 25.292969 14.820312 L 25.238281 14.871094 L 25.179688 14.917969 L 25.113281 14.964844 L 25.046875 15.007812 L 24.625 14.25 L 24.671875 14.214844 L 24.679688 14.203125 L 24.703125 14.179688 L 24.710938 14.167969 L 24.71875 14.152344 L 24.726562 14.140625 L 24.734375 14.125 L 24.75 14.0625 L 24.753906 14.042969 L 24.753906 14.007812 L 24.75 13.992188 L 24.746094 13.972656 L 24.738281 13.941406 L 24.734375 13.921875 L 24.710938 13.875 L 24.699219 13.863281 L 24.6875 13.847656 L 24.675781 13.835938 L 24.664062 13.820312 L 24.632812 13.796875 L 24.613281 13.785156 Z M 25.050781 13.039062 L 25.054688 13.039062 L 25.050781 13.035156 Z M 25.050781 13.039062 "/>
</g>
</svg>
