<?xml version="1.0" encoding="UTF-8"?>
<svg xmlns="http://www.w3.org/2000/svg" xmlns:xlink="http://www.w3.org/1999/xlink" width="28px" height="28px" viewBox="0 0 28 54" version="1.1">
<g id="surface1">
<path style=" stroke:none;fill-rule:nonzero;fill:rgb(92.941176%,41.176471%,36.078431%);fill-opacity:1;" d="M 0.351562 21.183594 L 11.929688 1.328125 L 13.703125 2.339844 L 2.125 22.199219 L 0.34375 21.199219 L 0.355469 21.183594 Z M 0.339844 21.199219 L 0.339844 21.195312 L 0.34375 21.183594 L 0.335938 21.199219 Z M 2.664062 23.109375 L 2.664062 25.132812 L 2.480469 25.128906 L 2.292969 25.105469 L 2.117188 25.074219 L 1.945312 25.03125 L 1.769531 24.980469 L 1.609375 24.917969 L 1.449219 24.84375 L 1.296875 24.757812 L 1.152344 24.667969 L 1.015625 24.570312 L 0.886719 24.460938 L 0.765625 24.34375 L 0.648438 24.222656 L 0.542969 24.089844 L 0.445312 23.960938 L 0.355469 23.824219 L 0.277344 23.675781 L 0.207031 23.523438 L 0.148438 23.371094 L 0.09375 23.214844 L 0.0546875 23.050781 L 0.0195312 22.886719 L 0 22.71875 L -0.0117188 22.550781 L -0.0117188 22.382812 L 0 22.207031 L 0.0273438 22.035156 L 0.0625 21.863281 L 0.113281 21.695312 L 0.175781 21.519531 L 0.25 21.355469 L 0.335938 21.195312 L 2.125 22.175781 L 2.101562 22.21875 L 2.082031 22.261719 L 2.066406 22.296875 L 2.042969 22.382812 L 2.039062 22.417969 L 2.035156 22.457031 L 2.035156 22.535156 L 2.039062 22.570312 L 2.042969 22.613281 L 2.054688 22.652344 L 2.066406 22.6875 L 2.082031 22.722656 L 2.097656 22.761719 L 2.113281 22.792969 L 2.132812 22.824219 L 2.160156 22.855469 L 2.183594 22.882812 L 2.207031 22.90625 L 2.242188 22.933594 L 2.273438 22.960938 L 2.300781 22.980469 L 2.332031 23.003906 L 2.363281 23.019531 L 2.398438 23.035156 L 2.4375 23.050781 L 2.472656 23.0625 L 2.511719 23.070312 L 2.558594 23.078125 L 2.601562 23.082031 L 2.648438 23.082031 Z M 25.820312 25.132812 L 2.664062 25.132812 L 2.664062 23.109375 L 25.820312 23.109375 Z M 26.367188 22.191406 L 28.140625 21.179688 L 28.226562 21.335938 L 28.300781 21.5 L 28.367188 21.671875 L 28.414062 21.839844 L 28.449219 22.007812 L 28.476562 22.183594 L 28.488281 22.355469 L 28.488281 22.523438 L 28.476562 22.691406 L 28.457031 22.859375 L 28.421875 23.023438 L 28.382812 23.1875 L 28.328125 23.34375 L 28.269531 23.496094 L 28.199219 23.648438 L 28.121094 23.796875 L 28.035156 23.933594 L 27.941406 24.070312 L 27.835938 24.203125 L 27.722656 24.328125 L 27.601562 24.445312 L 27.472656 24.554688 L 27.335938 24.660156 L 27.191406 24.753906 L 27.039062 24.839844 L 26.878906 24.910156 L 26.714844 24.976562 L 26.542969 25.03125 L 26.367188 25.074219 L 26.1875 25.105469 L 26.003906 25.128906 L 25.816406 25.132812 L 25.816406 23.109375 L 25.863281 23.109375 L 25.90625 23.101562 L 25.949219 23.097656 L 25.988281 23.085938 L 26.023438 23.078125 L 26.0625 23.0625 L 26.15625 23.003906 L 26.21875 22.957031 L 26.253906 22.929688 L 26.277344 22.902344 L 26.304688 22.871094 L 26.328125 22.839844 L 26.347656 22.804688 L 26.367188 22.765625 L 26.382812 22.730469 L 26.402344 22.6875 L 26.410156 22.652344 L 26.421875 22.613281 L 26.425781 22.570312 L 26.433594 22.535156 L 26.433594 22.460938 L 26.425781 22.425781 L 26.421875 22.394531 L 26.410156 22.355469 L 26.402344 22.320312 L 26.390625 22.289062 L 26.375 22.25 L 26.351562 22.214844 Z M 16.5625 1.320312 L 28.140625 21.179688 L 26.367188 22.191406 L 14.789062 2.335938 L 16.550781 1.3125 L 16.554688 1.320312 Z M 16.554688 1.3125 L 16.5625 1.320312 Z M 13.699219 2.335938 L 11.925781 1.320312 L 11.914062 1.335938 L 12.011719 1.179688 L 12.117188 1.027344 L 12.234375 0.886719 L 12.355469 0.753906 L 12.488281 0.632812 L 12.625 0.523438 L 12.769531 0.421875 L 12.917969 0.332031 L 13.074219 0.253906 L 13.230469 0.1875 L 13.390625 0.128906 L 13.554688 0.0820312 L 13.71875 0.0429688 L 13.886719 0.015625 L 14.054688 0 L 14.226562 -0.00390625 L 14.394531 0 L 14.566406 0.015625 L 14.730469 0.0429688 L 14.894531 0.0820312 L 15.058594 0.128906 L 15.21875 0.1875 L 15.378906 0.253906 L 15.53125 0.332031 L 15.679688 0.421875 L 15.828125 0.523438 L 15.964844 0.632812 L 16.097656 0.753906 L 16.226562 0.878906 L 16.347656 1.023438 L 16.460938 1.167969 L 16.5625 1.328125 L 14.804688 2.359375 L 14.777344 2.316406 L 14.75 2.277344 L 14.722656 2.246094 L 14.660156 2.183594 L 14.628906 2.15625 L 14.597656 2.136719 L 14.558594 2.117188 L 14.523438 2.09375 L 14.484375 2.078125 L 14.449219 2.0625 L 14.410156 2.050781 L 14.324219 2.035156 L 14.285156 2.03125 L 14.199219 2.03125 L 14.15625 2.035156 L 14.113281 2.042969 L 14.078125 2.050781 L 14.039062 2.0625 L 14.003906 2.074219 L 13.96875 2.089844 L 13.9375 2.105469 L 13.90625 2.125 L 13.875 2.148438 L 13.84375 2.167969 L 13.789062 2.222656 L 13.761719 2.253906 L 13.738281 2.289062 L 13.710938 2.324219 L 13.699219 2.339844 Z M 13.710938 2.320312 L 13.710938 2.324219 L 13.703125 2.335938 L 13.714844 2.320312 Z M 13.710938 2.320312 "/>
<path style=" stroke:none;fill-rule:nonzero;fill:rgb(92.941176%,41.176471%,36.078431%);fill-opacity:1;" d="M 28.140625 33.382812 L 16.5625 53.238281 L 14.789062 52.226562 L 26.367188 32.367188 L 28.148438 33.367188 L 28.136719 33.382812 Z M 28.152344 33.367188 L 28.152344 33.371094 L 28.148438 33.382812 L 28.160156 33.367188 Z M 25.828125 31.457031 L 25.828125 29.433594 L 26.011719 29.4375 L 26.199219 29.460938 L 26.375 29.492188 L 26.550781 29.535156 L 26.722656 29.585938 L 26.882812 29.648438 L 27.042969 29.722656 L 27.195312 29.808594 L 27.339844 29.898438 L 27.480469 29.996094 L 27.605469 30.105469 L 27.726562 30.222656 L 27.84375 30.34375 L 27.949219 30.476562 L 28.046875 30.605469 L 28.132812 30.742188 L 28.210938 30.890625 L 28.28125 31.042969 L 28.339844 31.195312 L 28.390625 31.351562 L 28.433594 31.515625 L 28.464844 31.679688 L 28.488281 31.847656 L 28.496094 32.015625 L 28.496094 32.183594 L 28.488281 32.359375 L 28.460938 32.53125 L 28.421875 32.703125 L 28.375 32.875 L 28.3125 33.046875 L 28.238281 33.210938 L 28.152344 33.371094 L 26.363281 32.390625 L 26.382812 32.347656 L 26.40625 32.304688 L 26.421875 32.269531 L 26.433594 32.226562 L 26.441406 32.183594 L 26.449219 32.148438 L 26.453125 32.109375 L 26.453125 32.03125 L 26.449219 31.996094 L 26.441406 31.953125 L 26.433594 31.917969 L 26.421875 31.878906 L 26.40625 31.84375 L 26.375 31.78125 L 26.351562 31.742188 L 26.332031 31.710938 L 26.308594 31.683594 L 26.285156 31.660156 L 26.253906 31.632812 L 26.21875 31.605469 L 26.195312 31.585938 L 26.160156 31.5625 L 26.128906 31.546875 L 26.09375 31.53125 L 26.054688 31.515625 L 26.019531 31.507812 L 25.980469 31.496094 L 25.933594 31.488281 L 25.890625 31.484375 L 25.84375 31.484375 Z M 2.671875 29.433594 L 25.828125 29.433594 L 25.828125 31.457031 L 2.671875 31.457031 Z M 2.125 32.375 L 0.351562 33.386719 L 0.265625 33.230469 L 0.191406 33.066406 L 0.128906 32.894531 L 0.078125 32.726562 L 0.0429688 32.558594 L 0.015625 32.382812 L 0.00390625 32.210938 L 0.00390625 32.042969 L 0.015625 31.875 L 0.0390625 31.707031 L 0.0703125 31.542969 L 0.113281 31.378906 L 0.164062 31.222656 L 0.222656 31.070312 L 0.292969 30.917969 L 0.371094 30.769531 L 0.457031 30.632812 L 0.550781 30.496094 L 0.660156 30.363281 L 0.769531 30.238281 L 0.890625 30.121094 L 1.019531 30.011719 L 1.15625 29.90625 L 1.300781 29.8125 L 1.453125 29.730469 L 1.613281 29.65625 L 1.777344 29.59375 L 1.949219 29.535156 L 2.125 29.492188 L 2.304688 29.460938 L 2.492188 29.4375 L 2.675781 29.433594 L 2.675781 31.457031 L 2.628906 31.457031 L 2.585938 31.464844 L 2.542969 31.46875 L 2.507812 31.480469 L 2.46875 31.488281 L 2.433594 31.507812 L 2.398438 31.523438 L 2.335938 31.5625 L 2.273438 31.609375 L 2.242188 31.636719 L 2.214844 31.664062 L 2.1875 31.695312 L 2.167969 31.726562 L 2.144531 31.761719 L 2.125 31.800781 L 2.109375 31.835938 L 2.09375 31.878906 L 2.082031 31.917969 L 2.070312 31.953125 L 2.066406 31.996094 L 2.058594 32.03125 L 2.058594 32.105469 L 2.066406 32.140625 L 2.070312 32.175781 L 2.09375 32.246094 L 2.101562 32.277344 L 2.117188 32.316406 L 2.140625 32.351562 Z M 11.929688 53.246094 L 0.351562 33.386719 L 2.125 32.375 L 13.703125 52.230469 L 13.714844 52.246094 L 11.9375 53.246094 Z M 13.703125 52.230469 L 13.710938 52.242188 L 13.710938 52.246094 L 13.699219 52.230469 Z M 14.796875 52.230469 L 16.570312 53.246094 L 16.566406 53.253906 L 16.464844 53.414062 L 16.355469 53.5625 L 16.230469 53.703125 L 16.105469 53.828125 L 15.972656 53.949219 L 15.835938 54.058594 L 15.683594 54.160156 L 15.535156 54.25 L 15.382812 54.328125 L 15.222656 54.398438 L 15.0625 54.453125 L 14.898438 54.5 L 14.734375 54.539062 L 14.570312 54.566406 L 14.398438 54.582031 L 14.230469 54.585938 L 14.058594 54.582031 L 13.890625 54.566406 L 13.726562 54.539062 L 13.5625 54.5 L 13.398438 54.453125 L 13.238281 54.398438 L 13.078125 54.328125 L 12.925781 54.25 L 12.777344 54.160156 L 12.632812 54.058594 L 12.492188 53.949219 L 12.363281 53.828125 L 12.238281 53.699219 L 12.121094 53.554688 L 12.015625 53.402344 L 11.921875 53.246094 L 13.710938 52.261719 L 13.738281 52.296875 L 13.761719 52.335938 L 13.789062 52.367188 L 13.816406 52.394531 L 13.84375 52.417969 L 13.875 52.441406 L 13.90625 52.460938 L 13.9375 52.484375 L 13.96875 52.5 L 14.003906 52.515625 L 14.039062 52.523438 L 14.078125 52.535156 L 14.113281 52.546875 L 14.199219 52.554688 L 14.285156 52.554688 L 14.324219 52.550781 L 14.367188 52.546875 L 14.410156 52.535156 L 14.449219 52.523438 L 14.484375 52.507812 L 14.523438 52.492188 L 14.558594 52.472656 L 14.597656 52.449219 L 14.628906 52.429688 L 14.660156 52.402344 L 14.722656 52.339844 L 14.75 52.308594 L 14.777344 52.273438 L 14.804688 52.230469 L 14.796875 52.242188 Z M 16.570312 53.246094 L 16.566406 53.253906 Z M 16.570312 53.246094 "/>
</g>
</svg>
