<?xml version="1.0" encoding="UTF-8"?>
<svg xmlns="http://www.w3.org/2000/svg" xmlns:xlink="http://www.w3.org/1999/xlink" width="28px" height="28px" viewBox="0 0 28 28" version="1.1">
<g id="surface1">
<path style=" stroke:none;fill-rule:nonzero;fill:rgb(92.941176%,41.176471%,36.078431%);fill-opacity:1;" d="M 6.921875 10.984375 L 12.925781 0.6875 L 13.847656 1.214844 L 7.84375 11.511719 L 6.917969 10.992188 L 6.925781 10.984375 Z M 6.917969 10.992188 L 6.917969 10.984375 L 6.914062 10.992188 Z M 8.121094 11.984375 L 8.121094 13.03125 L 8.027344 13.03125 L 7.929688 13.019531 L 7.75 12.980469 L 7.660156 12.953125 L 7.574219 12.921875 L 7.492188 12.882812 L 7.414062 12.835938 L 7.339844 12.789062 L 7.265625 12.738281 L 7.199219 12.683594 L 7.136719 12.621094 L 7.078125 12.558594 L 7.023438 12.492188 L 6.972656 12.425781 L 6.925781 12.351562 L 6.882812 12.277344 L 6.847656 12.199219 L 6.816406 12.117188 L 6.789062 12.039062 L 6.75 11.867188 L 6.742188 11.78125 L 6.734375 11.691406 L 6.734375 11.605469 L 6.742188 11.515625 L 6.753906 11.425781 L 6.773438 11.335938 L 6.800781 11.25 L 6.832031 11.160156 L 6.871094 11.074219 L 6.914062 10.988281 L 7.84375 11.5 L 7.832031 11.519531 L 7.820312 11.542969 L 7.8125 11.5625 L 7.800781 11.605469 L 7.796875 11.625 L 7.796875 11.703125 L 7.800781 11.726562 L 7.804688 11.746094 L 7.8125 11.765625 L 7.820312 11.78125 L 7.835938 11.820312 L 7.859375 11.851562 L 7.886719 11.878906 L 7.902344 11.890625 L 7.917969 11.90625 L 7.933594 11.914062 L 7.949219 11.929688 L 7.964844 11.9375 L 8.003906 11.953125 L 8.042969 11.960938 L 8.089844 11.96875 L 8.113281 11.96875 Z M 20.128906 13.03125 L 8.121094 13.03125 L 8.121094 11.984375 L 20.128906 11.984375 Z M 20.414062 11.507812 L 21.332031 10.980469 L 21.375 11.0625 L 21.414062 11.148438 L 21.449219 11.238281 L 21.472656 11.324219 L 21.492188 11.410156 L 21.507812 11.503906 L 21.511719 11.589844 L 21.511719 11.679688 L 21.507812 11.765625 L 21.496094 11.851562 L 21.457031 12.023438 L 21.429688 12.105469 L 21.398438 12.183594 L 21.363281 12.261719 L 21.320312 12.339844 L 21.277344 12.410156 L 21.230469 12.480469 L 21.175781 12.550781 L 21.117188 12.613281 L 21.050781 12.675781 L 20.984375 12.730469 L 20.914062 12.785156 L 20.839844 12.835938 L 20.761719 12.878906 L 20.679688 12.917969 L 20.59375 12.949219 L 20.503906 12.980469 L 20.414062 13 L 20.320312 13.019531 L 20.222656 13.03125 L 20.128906 13.03125 L 20.128906 11.984375 L 20.152344 11.984375 L 20.171875 11.980469 L 20.195312 11.976562 L 20.214844 11.96875 L 20.234375 11.964844 L 20.253906 11.957031 L 20.304688 11.929688 L 20.335938 11.902344 L 20.355469 11.890625 L 20.390625 11.84375 L 20.414062 11.804688 L 20.429688 11.765625 L 20.433594 11.746094 L 20.441406 11.726562 L 20.441406 11.703125 L 20.445312 11.683594 L 20.445312 11.644531 L 20.441406 11.628906 L 20.441406 11.613281 L 20.433594 11.589844 L 20.425781 11.558594 L 20.417969 11.535156 L 20.40625 11.519531 Z M 15.328125 0.683594 L 21.332031 10.980469 L 20.414062 11.507812 L 14.410156 1.210938 L 15.324219 0.679688 L 15.324219 0.683594 Z M 15.324219 0.679688 L 15.328125 0.683594 Z M 13.84375 1.210938 L 12.925781 0.683594 L 12.917969 0.691406 L 12.96875 0.613281 L 13.023438 0.53125 L 13.148438 0.390625 L 13.214844 0.328125 L 13.285156 0.269531 L 13.363281 0.21875 L 13.4375 0.171875 L 13.519531 0.132812 L 13.601562 0.0976562 L 13.683594 0.0664062 L 13.769531 0.0429688 L 13.855469 0.0234375 L 13.941406 0.0078125 L 14.027344 0 L 14.117188 -0.00390625 L 14.203125 0 L 14.292969 0.0078125 L 14.378906 0.0234375 L 14.464844 0.0429688 L 14.550781 0.0664062 L 14.632812 0.0976562 L 14.714844 0.132812 L 14.792969 0.171875 L 14.871094 0.21875 L 14.949219 0.269531 L 15.019531 0.328125 L 15.085938 0.390625 L 15.15625 0.457031 L 15.21875 0.53125 L 15.277344 0.605469 L 15.328125 0.6875 L 14.417969 1.222656 L 14.402344 1.199219 L 14.390625 1.179688 L 14.34375 1.132812 L 14.324219 1.117188 L 14.308594 1.109375 L 14.269531 1.085938 L 14.25 1.078125 L 14.234375 1.070312 L 14.210938 1.0625 L 14.167969 1.054688 L 14.082031 1.054688 L 14.058594 1.058594 L 14.039062 1.0625 L 14.019531 1.070312 L 14.003906 1.074219 L 13.984375 1.082031 L 13.96875 1.089844 L 13.953125 1.101562 L 13.933594 1.113281 L 13.917969 1.125 L 13.875 1.167969 L 13.851562 1.207031 L 13.84375 1.214844 Z M 13.851562 1.203125 L 13.851562 1.207031 L 13.847656 1.210938 Z M 13.851562 1.203125 "/>
<path style=" stroke:none;fill-rule:nonzero;fill:rgb(92.941176%,41.176471%,36.078431%);fill-opacity:1;" d="M 21.332031 17.308594 L 15.328125 27.605469 L 14.410156 27.082031 L 20.414062 16.78125 L 21.335938 17.300781 Z M 21.339844 17.300781 L 21.339844 17.304688 L 21.335938 17.308594 L 21.34375 17.300781 Z M 20.132812 16.3125 L 20.132812 15.261719 L 20.226562 15.265625 L 20.324219 15.277344 L 20.417969 15.292969 L 20.597656 15.339844 L 20.761719 15.410156 L 20.84375 15.457031 L 20.917969 15.503906 L 20.988281 15.554688 L 21.054688 15.609375 L 21.179688 15.734375 L 21.234375 15.800781 L 21.285156 15.871094 L 21.328125 15.941406 L 21.367188 16.015625 L 21.40625 16.097656 L 21.433594 16.175781 L 21.460938 16.257812 L 21.484375 16.339844 L 21.5 16.425781 L 21.511719 16.511719 L 21.515625 16.601562 L 21.515625 16.6875 L 21.511719 16.777344 L 21.5 16.867188 L 21.453125 17.046875 L 21.421875 17.136719 L 21.382812 17.21875 L 21.339844 17.304688 L 20.410156 16.796875 L 20.433594 16.75 L 20.441406 16.730469 L 20.445312 16.710938 L 20.449219 16.6875 L 20.457031 16.667969 L 20.457031 16.589844 L 20.449219 16.566406 L 20.445312 16.550781 L 20.441406 16.53125 L 20.433594 16.511719 L 20.40625 16.457031 L 20.394531 16.441406 L 20.355469 16.402344 L 20.335938 16.386719 L 20.324219 16.378906 L 20.304688 16.367188 L 20.289062 16.359375 L 20.269531 16.347656 L 20.25 16.339844 L 20.210938 16.332031 L 20.164062 16.324219 L 20.140625 16.324219 Z M 8.125 15.261719 L 20.132812 15.261719 L 20.132812 16.3125 L 8.125 16.3125 Z M 7.84375 16.785156 L 6.921875 17.3125 L 6.878906 17.230469 L 6.839844 17.144531 L 6.808594 17.054688 L 6.78125 16.96875 L 6.761719 16.882812 L 6.75 16.792969 L 6.742188 16.703125 L 6.742188 16.613281 L 6.75 16.527344 L 6.761719 16.441406 L 6.777344 16.355469 L 6.800781 16.269531 L 6.824219 16.191406 L 6.855469 16.109375 L 6.933594 15.953125 L 6.976562 15.882812 L 7.027344 15.8125 L 7.082031 15.742188 L 7.140625 15.679688 L 7.203125 15.617188 L 7.269531 15.5625 L 7.339844 15.507812 L 7.414062 15.457031 L 7.496094 15.414062 L 7.578125 15.378906 L 7.664062 15.34375 L 7.75 15.316406 L 7.84375 15.292969 L 7.9375 15.277344 L 8.03125 15.265625 L 8.128906 15.261719 L 8.128906 16.3125 L 8.105469 16.3125 L 8.082031 16.316406 L 8.058594 16.316406 L 8.042969 16.324219 L 8.019531 16.328125 L 8.003906 16.335938 L 7.984375 16.34375 L 7.953125 16.367188 L 7.917969 16.390625 L 7.902344 16.402344 L 7.890625 16.417969 L 7.875 16.433594 L 7.863281 16.449219 L 7.851562 16.46875 L 7.835938 16.507812 L 7.828125 16.53125 L 7.820312 16.550781 L 7.8125 16.566406 L 7.8125 16.589844 L 7.808594 16.609375 L 7.808594 16.648438 L 7.8125 16.664062 L 7.8125 16.683594 L 7.828125 16.71875 L 7.832031 16.738281 L 7.839844 16.757812 L 7.851562 16.773438 Z M 12.925781 27.609375 L 6.921875 17.3125 L 7.84375 16.785156 L 13.847656 27.082031 L 13.851562 27.089844 L 12.929688 27.609375 Z M 13.847656 27.082031 L 13.851562 27.089844 L 13.84375 27.082031 Z M 14.414062 27.082031 L 15.332031 27.609375 L 15.332031 27.613281 L 15.277344 27.695312 L 15.222656 27.773438 L 15.15625 27.847656 L 15.023438 27.972656 L 14.953125 28.03125 L 14.871094 28.082031 L 14.796875 28.128906 L 14.71875 28.171875 L 14.632812 28.207031 L 14.550781 28.234375 L 14.378906 28.28125 L 14.296875 28.292969 L 14.207031 28.300781 L 14.121094 28.304688 L 14.03125 28.300781 L 13.941406 28.292969 L 13.859375 28.28125 L 13.6875 28.234375 L 13.605469 28.207031 L 13.523438 28.171875 L 13.441406 28.128906 L 13.367188 28.082031 L 13.292969 28.03125 L 13.21875 27.972656 L 13.152344 27.910156 L 13.085938 27.84375 L 13.027344 27.769531 L 12.972656 27.691406 L 12.921875 27.609375 L 13.851562 27.097656 L 13.875 27.136719 L 13.917969 27.179688 L 13.933594 27.191406 L 13.953125 27.203125 L 13.96875 27.214844 L 13.984375 27.222656 L 14.003906 27.230469 L 14.019531 27.234375 L 14.039062 27.242188 L 14.058594 27.246094 L 14.101562 27.25 L 14.167969 27.25 L 14.191406 27.246094 L 14.210938 27.242188 L 14.234375 27.234375 L 14.25 27.226562 L 14.269531 27.21875 L 14.308594 27.195312 L 14.324219 27.1875 L 14.34375 27.171875 L 14.375 27.140625 L 14.390625 27.121094 L 14.402344 27.105469 L 14.417969 27.082031 L 14.414062 27.089844 Z M 15.332031 27.609375 L 15.332031 27.613281 Z M 15.332031 27.609375 "/>
</g>
</svg>
