<?xml version="1.0" encoding="UTF-8"?>
<svg xmlns="http://www.w3.org/2000/svg" xmlns:xlink="http://www.w3.org/1999/xlink" width="28px" height="28px" viewBox="0 0 28 28" version="1.1">
<g id="surface1">
<path style=" stroke:none;fill-rule:nonzero;fill:rgb(92.941176%,41.176471%,36.078431%);fill-opacity:1;" d="M 10.984375 21.074219 L 0.6875 15.285156 L 1.210938 14.398438 L 11.507812 20.1875 L 10.992188 21.078125 Z M 10.992188 21.078125 L 10.984375 21.078125 L 10.992188 21.082031 Z M 11.980469 19.917969 L 13.03125 19.917969 L 13.027344 20.007812 L 13.019531 20.101562 L 13.003906 20.1875 L 12.984375 20.277344 L 12.957031 20.363281 L 12.921875 20.445312 L 12.886719 20.523438 L 12.839844 20.597656 L 12.796875 20.671875 L 12.742188 20.742188 L 12.6875 20.808594 L 12.628906 20.867188 L 12.566406 20.925781 L 12.5 20.976562 L 12.429688 21.023438 L 12.359375 21.066406 L 12.28125 21.109375 L 12.203125 21.144531 L 12.125 21.175781 L 12.042969 21.199219 L 11.957031 21.21875 L 11.871094 21.234375 L 11.785156 21.246094 L 11.699219 21.25 L 11.609375 21.25 L 11.523438 21.242188 L 11.433594 21.230469 L 11.34375 21.210938 L 11.257812 21.1875 L 11.167969 21.15625 L 11.082031 21.121094 L 11 21.078125 L 11.511719 20.183594 L 11.535156 20.195312 L 11.558594 20.203125 L 11.578125 20.210938 L 11.601562 20.214844 L 11.621094 20.222656 L 11.640625 20.222656 L 11.660156 20.226562 L 11.703125 20.226562 L 11.722656 20.222656 L 11.746094 20.21875 L 11.761719 20.214844 L 11.820312 20.191406 L 11.835938 20.183594 L 11.875 20.160156 L 11.886719 20.148438 L 11.902344 20.136719 L 11.914062 20.121094 L 11.929688 20.105469 L 11.941406 20.089844 L 11.953125 20.070312 L 11.960938 20.054688 L 11.972656 20.039062 L 11.976562 20.019531 L 11.984375 20 L 11.988281 19.980469 L 11.996094 19.957031 L 11.996094 19.910156 Z M 13.03125 8.335938 L 13.03125 19.917969 L 11.980469 19.917969 L 11.980469 8.335938 Z M 11.507812 8.0625 L 10.984375 7.179688 L 11.066406 7.136719 L 11.152344 7.097656 L 11.242188 7.066406 L 11.332031 7.042969 L 11.417969 7.023438 L 11.507812 7.007812 L 11.597656 7.003906 L 11.683594 7.003906 L 11.773438 7.007812 L 11.859375 7.019531 L 11.941406 7.035156 L 12.027344 7.054688 L 12.109375 7.078125 L 12.1875 7.109375 L 12.265625 7.144531 L 12.34375 7.183594 L 12.414062 7.226562 L 12.484375 7.273438 L 12.550781 7.324219 L 12.675781 7.441406 L 12.730469 7.503906 L 12.785156 7.574219 L 12.832031 7.648438 L 12.875 7.722656 L 12.914062 7.804688 L 12.949219 7.886719 L 12.976562 7.972656 L 13 8.058594 L 13.015625 8.148438 L 13.023438 8.242188 L 13.027344 8.335938 L 11.976562 8.335938 L 11.976562 8.308594 L 11.964844 8.25 L 11.949219 8.210938 L 11.933594 8.179688 L 11.910156 8.148438 L 11.894531 8.132812 L 11.882812 8.117188 L 11.867188 8.105469 L 11.851562 8.089844 L 11.835938 8.078125 L 11.816406 8.070312 L 11.796875 8.058594 L 11.78125 8.050781 L 11.757812 8.042969 L 11.738281 8.039062 L 11.71875 8.03125 L 11.699219 8.027344 L 11.621094 8.027344 L 11.5625 8.039062 L 11.523438 8.054688 L 11.503906 8.066406 Z M 0.6875 12.96875 L 10.984375 7.179688 L 11.507812 8.0625 L 1.210938 13.855469 L 0.683594 12.972656 Z M 0.683594 12.972656 L 0.6875 12.96875 Z M 1.210938 14.402344 L 0.6875 15.285156 L 0.695312 15.289062 L 0.609375 15.242188 L 0.53125 15.1875 L 0.457031 15.128906 L 0.390625 15.066406 L 0.328125 15.003906 L 0.269531 14.933594 L 0.214844 14.859375 L 0.167969 14.785156 L 0.128906 14.710938 L 0.09375 14.628906 L 0.0625 14.550781 L 0.0351562 14.46875 L 0.0195312 14.386719 L 0.00390625 14.300781 L -0.00390625 14.21875 L -0.00390625 14.050781 L 0.00390625 13.96875 L 0.0351562 13.804688 L 0.0585938 13.722656 L 0.0898438 13.640625 L 0.125 13.5625 L 0.164062 13.484375 L 0.210938 13.410156 L 0.261719 13.339844 L 0.320312 13.269531 L 0.382812 13.203125 L 0.449219 13.140625 L 0.519531 13.082031 L 0.597656 13.027344 L 0.679688 12.976562 L 1.210938 13.855469 L 1.191406 13.867188 L 1.167969 13.882812 L 1.152344 13.894531 L 1.105469 13.941406 L 1.09375 13.957031 L 1.082031 13.976562 L 1.050781 14.054688 L 1.039062 14.113281 L 1.039062 14.15625 L 1.042969 14.175781 L 1.042969 14.195312 L 1.046875 14.214844 L 1.054688 14.230469 L 1.058594 14.25 L 1.066406 14.269531 L 1.074219 14.285156 L 1.121094 14.347656 L 1.152344 14.371094 L 1.171875 14.386719 L 1.191406 14.394531 L 1.199219 14.402344 Z M 1.207031 14.394531 L 1.210938 14.398438 Z M 1.207031 14.394531 "/>
<path style=" stroke:none;fill-rule:nonzero;fill:rgb(92.941176%,41.176471%,36.078431%);fill-opacity:1;" d="M 17.308594 7.175781 L 27.605469 12.96875 L 27.078125 13.851562 L 16.78125 8.0625 L 17.300781 7.171875 Z M 17.300781 7.171875 L 17.304688 7.171875 L 17.308594 7.175781 L 17.300781 7.167969 Z M 16.3125 8.335938 L 15.261719 8.335938 L 15.261719 8.242188 L 15.273438 8.148438 L 15.289062 8.0625 L 15.308594 7.972656 L 15.335938 7.886719 L 15.367188 7.808594 L 15.40625 7.726562 L 15.449219 7.652344 L 15.496094 7.578125 L 15.605469 7.445312 L 15.664062 7.382812 L 15.726562 7.328125 L 15.792969 7.273438 L 15.863281 7.226562 L 15.933594 7.183594 L 16.011719 7.140625 L 16.089844 7.105469 L 16.167969 7.078125 L 16.25 7.050781 L 16.332031 7.03125 L 16.417969 7.015625 L 16.503906 7.003906 L 16.59375 7 L 16.679688 7 L 16.769531 7.007812 L 16.859375 7.019531 L 16.945312 7.039062 L 17.035156 7.0625 L 17.121094 7.09375 L 17.207031 7.132812 L 17.292969 7.175781 L 16.78125 8.070312 L 16.734375 8.046875 L 16.714844 8.042969 L 16.691406 8.035156 L 16.667969 8.03125 L 16.652344 8.027344 L 16.566406 8.027344 L 16.546875 8.03125 L 16.527344 8.039062 L 16.507812 8.042969 L 16.46875 8.058594 L 16.453125 8.066406 L 16.4375 8.078125 L 16.417969 8.089844 L 16.40625 8.101562 L 16.390625 8.113281 L 16.378906 8.128906 L 16.363281 8.144531 L 16.339844 8.175781 L 16.332031 8.191406 L 16.308594 8.25 L 16.304688 8.269531 L 16.300781 8.292969 L 16.296875 8.3125 L 16.296875 8.339844 Z M 15.261719 19.914062 L 15.261719 8.335938 L 16.3125 8.335938 L 16.3125 19.914062 Z M 16.78125 20.1875 L 17.308594 21.074219 L 17.226562 21.117188 L 17.140625 21.152344 L 17.050781 21.183594 L 16.960938 21.210938 L 16.875 21.226562 L 16.78125 21.242188 L 16.695312 21.25 L 16.605469 21.25 L 16.433594 21.234375 L 16.351562 21.21875 L 16.265625 21.195312 L 16.183594 21.171875 L 16.105469 21.140625 L 16.027344 21.105469 L 15.949219 21.066406 L 15.878906 21.023438 L 15.808594 20.976562 L 15.742188 20.925781 L 15.675781 20.871094 L 15.617188 20.808594 L 15.5625 20.746094 L 15.507812 20.675781 L 15.460938 20.605469 L 15.414062 20.527344 L 15.375 20.445312 L 15.34375 20.363281 L 15.316406 20.28125 L 15.292969 20.191406 L 15.277344 20.101562 L 15.265625 20.007812 L 15.265625 19.917969 L 16.316406 19.917969 L 16.316406 19.960938 L 16.324219 19.980469 L 16.328125 20.003906 L 16.332031 20.019531 L 16.339844 20.039062 L 16.351562 20.054688 L 16.359375 20.070312 L 16.371094 20.089844 L 16.382812 20.101562 L 16.394531 20.117188 L 16.425781 20.148438 L 16.457031 20.171875 L 16.476562 20.183594 L 16.492188 20.191406 L 16.53125 20.207031 L 16.554688 20.214844 L 16.570312 20.21875 L 16.59375 20.222656 L 16.613281 20.226562 L 16.652344 20.226562 L 16.671875 20.222656 L 16.691406 20.222656 L 16.707031 20.214844 L 16.730469 20.210938 L 16.75 20.207031 L 16.765625 20.195312 L 16.789062 20.183594 Z M 27.605469 15.28125 L 17.308594 21.074219 L 16.78125 20.1875 L 27.078125 14.394531 L 27.085938 14.390625 Z M 27.078125 14.394531 L 27.085938 14.394531 L 27.078125 14.398438 Z M 27.078125 13.847656 L 27.605469 12.964844 L 27.609375 12.964844 L 27.691406 13.015625 L 27.765625 13.070312 L 27.839844 13.128906 L 27.90625 13.191406 L 27.96875 13.257812 L 28.078125 13.398438 L 28.121094 13.472656 L 28.160156 13.550781 L 28.195312 13.628906 L 28.226562 13.710938 L 28.25 13.792969 L 28.269531 13.875 L 28.28125 13.957031 L 28.289062 14.039062 L 28.292969 14.125 L 28.289062 14.207031 L 28.28125 14.289062 L 28.269531 14.375 L 28.25 14.457031 L 28.222656 14.539062 L 28.195312 14.617188 L 28.160156 14.699219 L 28.117188 14.773438 L 28.070312 14.847656 L 28.019531 14.921875 L 27.960938 14.992188 L 27.898438 15.054688 L 27.828125 15.121094 L 27.753906 15.179688 L 27.675781 15.230469 L 27.59375 15.28125 L 27.082031 14.386719 L 27.101562 14.375 L 27.121094 14.359375 L 27.152344 14.335938 L 27.1875 14.289062 L 27.195312 14.273438 L 27.207031 14.257812 L 27.214844 14.238281 L 27.21875 14.21875 L 27.226562 14.203125 L 27.230469 14.183594 L 27.230469 14.164062 L 27.234375 14.144531 L 27.234375 14.101562 L 27.222656 14.042969 L 27.191406 13.964844 L 27.167969 13.933594 L 27.152344 13.917969 L 27.136719 13.898438 L 27.121094 13.882812 L 27.105469 13.871094 L 27.082031 13.859375 L 27.058594 13.84375 L 27.066406 13.847656 Z M 27.605469 12.964844 L 27.609375 12.964844 Z M 27.605469 12.964844 "/>
</g>
</svg>
