<?xml version="1.0" encoding="UTF-8"?>
<svg xmlns="http://www.w3.org/2000/svg" xmlns:xlink="http://www.w3.org/1999/xlink" width="28px" height="28px" viewBox="0 0 28 14" version="1.1">
<g id="surface1">
<path style=" stroke:none;fill-rule:nonzero;fill:rgb(92.941176%,41.176471%,36.078431%);fill-opacity:1;" d="M 10.984375 14.074219 L 0.6875 8.285156 L 1.210938 7.398438 L 11.507812 13.1875 L 10.992188 14.078125 Z M 10.992188 14.078125 L 10.984375 14.078125 L 10.992188 14.082031 Z M 11.980469 12.917969 L 13.03125 12.917969 L 13.027344 13.007812 L 13.019531 13.101562 L 13.003906 13.1875 L 12.984375 13.277344 L 12.957031 13.363281 L 12.921875 13.445312 L 12.886719 13.523438 L 12.839844 13.597656 L 12.796875 13.671875 L 12.742188 13.742188 L 12.6875 13.808594 L 12.628906 13.867188 L 12.566406 13.925781 L 12.5 13.976562 L 12.429688 14.023438 L 12.359375 14.066406 L 12.28125 14.109375 L 12.203125 14.144531 L 12.125 14.175781 L 12.042969 14.199219 L 11.957031 14.21875 L 11.871094 14.234375 L 11.785156 14.246094 L 11.699219 14.25 L 11.609375 14.25 L 11.523438 14.242188 L 11.433594 14.230469 L 11.34375 14.210938 L 11.257812 14.1875 L 11.167969 14.15625 L 11.082031 14.121094 L 11 14.078125 L 11.511719 13.183594 L 11.535156 13.195312 L 11.558594 13.203125 L 11.578125 13.210938 L 11.601562 13.214844 L 11.621094 13.222656 L 11.640625 13.222656 L 11.660156 13.226562 L 11.703125 13.226562 L 11.722656 13.222656 L 11.746094 13.21875 L 11.761719 13.214844 L 11.820312 13.191406 L 11.835938 13.183594 L 11.875 13.160156 L 11.886719 13.148438 L 11.902344 13.136719 L 11.914062 13.121094 L 11.929688 13.105469 L 11.941406 13.089844 L 11.953125 13.070312 L 11.960938 13.054688 L 11.972656 13.039062 L 11.976562 13.019531 L 11.984375 13 L 11.988281 12.980469 L 11.996094 12.957031 L 11.996094 12.910156 Z M 13.03125 1.335938 L 13.03125 12.917969 L 11.980469 12.917969 L 11.980469 1.335938 Z M 11.507812 1.0625 L 10.984375 0.179688 L 11.066406 0.136719 L 11.152344 0.0976562 L 11.242188 0.0664062 L 11.332031 0.0429688 L 11.417969 0.0234375 L 11.507812 0.0078125 L 11.597656 0.00390625 L 11.683594 0.00390625 L 11.773438 0.0078125 L 11.859375 0.0195312 L 11.941406 0.0351562 L 12.027344 0.0546875 L 12.109375 0.078125 L 12.1875 0.109375 L 12.265625 0.144531 L 12.34375 0.183594 L 12.414062 0.226562 L 12.484375 0.273438 L 12.550781 0.324219 L 12.675781 0.441406 L 12.730469 0.503906 L 12.785156 0.574219 L 12.832031 0.648438 L 12.875 0.722656 L 12.914062 0.804688 L 12.949219 0.886719 L 12.976562 0.972656 L 13 1.058594 L 13.015625 1.148438 L 13.023438 1.242188 L 13.027344 1.335938 L 11.976562 1.335938 L 11.976562 1.308594 L 11.964844 1.25 L 11.949219 1.210938 L 11.933594 1.179688 L 11.910156 1.148438 L 11.894531 1.132812 L 11.882812 1.117188 L 11.867188 1.105469 L 11.851562 1.089844 L 11.835938 1.078125 L 11.816406 1.070312 L 11.796875 1.058594 L 11.78125 1.050781 L 11.757812 1.042969 L 11.738281 1.039062 L 11.71875 1.03125 L 11.699219 1.027344 L 11.621094 1.027344 L 11.5625 1.039062 L 11.523438 1.054688 L 11.503906 1.066406 Z M 0.6875 5.96875 L 10.984375 0.179688 L 11.507812 1.0625 L 1.210938 6.855469 L 0.683594 5.972656 Z M 0.683594 5.972656 L 0.6875 5.96875 Z M 1.210938 7.402344 L 0.6875 8.285156 L 0.695312 8.289062 L 0.609375 8.242188 L 0.53125 8.1875 L 0.457031 8.128906 L 0.390625 8.066406 L 0.328125 8.003906 L 0.269531 7.933594 L 0.214844 7.859375 L 0.167969 7.785156 L 0.128906 7.710938 L 0.09375 7.628906 L 0.0625 7.550781 L 0.0351562 7.46875 L 0.0195312 7.386719 L 0.00390625 7.300781 L -0.00390625 7.21875 L -0.00390625 7.050781 L 0.00390625 6.96875 L 0.0351562 6.804688 L 0.0585938 6.722656 L 0.0898438 6.640625 L 0.125 6.5625 L 0.164062 6.484375 L 0.210938 6.410156 L 0.261719 6.339844 L 0.320312 6.269531 L 0.382812 6.203125 L 0.449219 6.140625 L 0.519531 6.082031 L 0.597656 6.027344 L 0.679688 5.976562 L 1.210938 6.855469 L 1.191406 6.867188 L 1.167969 6.882812 L 1.152344 6.894531 L 1.105469 6.941406 L 1.09375 6.957031 L 1.082031 6.976562 L 1.050781 7.054688 L 1.039062 7.113281 L 1.039062 7.15625 L 1.042969 7.175781 L 1.042969 7.195312 L 1.046875 7.214844 L 1.054688 7.230469 L 1.058594 7.25 L 1.066406 7.269531 L 1.074219 7.285156 L 1.121094 7.347656 L 1.152344 7.371094 L 1.171875 7.386719 L 1.191406 7.394531 L 1.199219 7.402344 Z M 1.207031 7.394531 L 1.210938 7.398438 Z M 1.207031 7.394531 "/>
<path style=" stroke:none;fill-rule:nonzero;fill:rgb(92.941176%,41.176471%,36.078431%);fill-opacity:1;" d="M 17.308594 0.175781 L 27.605469 5.96875 L 27.078125 6.851562 L 16.78125 1.0625 L 17.300781 0.171875 Z M 17.300781 0.171875 L 17.304688 0.171875 L 17.308594 0.175781 L 17.300781 0.167969 Z M 16.3125 1.335938 L 15.261719 1.335938 L 15.261719 1.242188 L 15.273438 1.148438 L 15.289062 1.0625 L 15.308594 0.972656 L 15.335938 0.886719 L 15.367188 0.808594 L 15.40625 0.726562 L 15.449219 0.652344 L 15.496094 0.578125 L 15.605469 0.445312 L 15.664062 0.382812 L 15.726562 0.328125 L 15.792969 0.273438 L 15.863281 0.226562 L 15.933594 0.183594 L 16.011719 0.140625 L 16.089844 0.105469 L 16.167969 0.078125 L 16.25 0.0507812 L 16.332031 0.03125 L 16.417969 0.015625 L 16.503906 0.00390625 L 16.59375 0 L 16.679688 0 L 16.769531 0.0078125 L 16.859375 0.0195312 L 16.945312 0.0390625 L 17.035156 0.0625 L 17.121094 0.09375 L 17.207031 0.132812 L 17.292969 0.175781 L 16.78125 1.070312 L 16.734375 1.046875 L 16.714844 1.042969 L 16.691406 1.035156 L 16.667969 1.03125 L 16.652344 1.027344 L 16.566406 1.027344 L 16.546875 1.03125 L 16.527344 1.039062 L 16.507812 1.042969 L 16.46875 1.058594 L 16.453125 1.066406 L 16.4375 1.078125 L 16.417969 1.089844 L 16.40625 1.101562 L 16.390625 1.113281 L 16.378906 1.128906 L 16.363281 1.144531 L 16.339844 1.175781 L 16.332031 1.191406 L 16.308594 1.25 L 16.304688 1.269531 L 16.300781 1.292969 L 16.296875 1.3125 L 16.296875 1.339844 Z M 15.261719 12.914062 L 15.261719 1.335938 L 16.3125 1.335938 L 16.3125 12.914062 Z M 16.78125 13.1875 L 17.308594 14.074219 L 17.226562 14.117188 L 17.140625 14.152344 L 17.050781 14.183594 L 16.960938 14.210938 L 16.875 14.226562 L 16.78125 14.242188 L 16.695312 14.25 L 16.605469 14.25 L 16.433594 14.234375 L 16.351562 14.21875 L 16.265625 14.195312 L 16.183594 14.171875 L 16.105469 14.140625 L 16.027344 14.105469 L 15.949219 14.066406 L 15.878906 14.023438 L 15.808594 13.976562 L 15.742188 13.925781 L 15.675781 13.871094 L 15.617188 13.808594 L 15.5625 13.746094 L 15.507812 13.675781 L 15.460938 13.605469 L 15.414062 13.527344 L 15.375 13.445312 L 15.34375 13.363281 L 15.316406 13.28125 L 15.292969 13.191406 L 15.277344 13.101562 L 15.265625 13.007812 L 15.265625 12.917969 L 16.316406 12.917969 L 16.316406 12.960938 L 16.324219 12.980469 L 16.328125 13.003906 L 16.332031 13.019531 L 16.339844 13.039062 L 16.351562 13.054688 L 16.359375 13.070312 L 16.371094 13.089844 L 16.382812 13.101562 L 16.394531 13.117188 L 16.425781 13.148438 L 16.457031 13.171875 L 16.476562 13.183594 L 16.492188 13.191406 L 16.53125 13.207031 L 16.554688 13.214844 L 16.570312 13.21875 L 16.59375 13.222656 L 16.613281 13.226562 L 16.652344 13.226562 L 16.671875 13.222656 L 16.691406 13.222656 L 16.707031 13.214844 L 16.730469 13.210938 L 16.75 13.207031 L 16.765625 13.195312 L 16.789062 13.183594 Z M 27.605469 8.28125 L 17.308594 14.074219 L 16.78125 13.1875 L 27.078125 7.394531 L 27.085938 7.390625 Z M 27.078125 7.394531 L 27.085938 7.394531 L 27.078125 7.398438 Z M 27.078125 6.847656 L 27.605469 5.964844 L 27.609375 5.964844 L 27.691406 6.015625 L 27.765625 6.070312 L 27.839844 6.128906 L 27.90625 6.191406 L 27.96875 6.257812 L 28.078125 6.398438 L 28.121094 6.472656 L 28.160156 6.550781 L 28.195312 6.628906 L 28.226562 6.710938 L 28.25 6.792969 L 28.269531 6.875 L 28.28125 6.957031 L 28.289062 7.039062 L 28.292969 7.125 L 28.289062 7.207031 L 28.28125 7.289062 L 28.269531 7.375 L 28.25 7.457031 L 28.222656 7.539062 L 28.195312 7.617188 L 28.160156 7.699219 L 28.117188 7.773438 L 28.070312 7.847656 L 28.019531 7.921875 L 27.960938 7.992188 L 27.898438 8.054688 L 27.828125 8.121094 L 27.753906 8.179688 L 27.675781 8.230469 L 27.59375 8.28125 L 27.082031 7.386719 L 27.101562 7.375 L 27.121094 7.359375 L 27.152344 7.335938 L 27.1875 7.289062 L 27.195312 7.273438 L 27.207031 7.257812 L 27.214844 7.238281 L 27.21875 7.21875 L 27.226562 7.203125 L 27.230469 7.183594 L 27.230469 7.164062 L 27.234375 7.144531 L 27.234375 7.101562 L 27.222656 7.042969 L 27.191406 6.964844 L 27.167969 6.933594 L 27.152344 6.917969 L 27.136719 6.898438 L 27.121094 6.882812 L 27.105469 6.871094 L 27.082031 6.859375 L 27.058594 6.84375 L 27.066406 6.847656 Z M 27.605469 5.964844 L 27.609375 5.964844 Z M 27.605469 5.964844 "/>
</g>
</svg>
