<?xml version="1.0" encoding="UTF-8"?>
<svg xmlns="http://www.w3.org/2000/svg" xmlns:xlink="http://www.w3.org/1999/xlink" width="28px" height="28px" viewBox="0 0 28 28" version="1.1">
<g id="surface1">
<path style="fill-rule:nonzero;fill:rgb(92.941176%,41.176471%,36.078431%);fill-opacity:1;stroke-width:1;stroke-linecap:butt;stroke-linejoin:miter;stroke:rgb(92.941176%,41.176471%,36.078431%);stroke-opacity:1;stroke-miterlimit:22.9256;" d="M 14.536644 25.4825 L 17.100355 26.958983 C 17.1272 26.979117 17.160757 26.992539 17.187602 26.992539 C 17.248004 26.992539 17.308405 26.958983 17.341962 26.898581 L 17.617124 26.408658 C 17.637258 26.36839 17.650681 26.321411 17.637258 26.281143 C 17.630547 26.240875 17.59699 26.200608 17.556723 26.167051 L 14.999723 24.690568 C 14.959455 24.670435 14.912476 24.657012 14.872209 24.670435 C 14.831941 24.677146 14.791673 24.710702 14.758117 24.75097 L 14.482954 25.240894 C 14.429264 25.321429 14.46282 25.42881 14.550067 25.4825 Z M 14.536644 25.4825 " transform="matrix(0.582042,0,0,0.582042,0,0.000145901)"/>
<path style=" stroke:none;fill-rule:nonzero;fill:rgb(92.941176%,41.176471%,36.078431%);fill-opacity:1;" d="M 8.460938 14.832031 L 9.953125 15.691406 C 9.96875 15.703125 9.988281 15.710938 10.003906 15.710938 C 10.039062 15.710938 10.074219 15.691406 10.09375 15.65625 L 10.253906 15.371094 C 10.265625 15.347656 10.273438 15.320312 10.265625 15.296875 C 10.261719 15.273438 10.242188 15.25 10.21875 15.230469 L 8.730469 14.371094 C 8.707031 14.359375 8.679688 14.351562 8.65625 14.359375 C 8.632812 14.363281 8.609375 14.382812 8.589844 14.40625 L 8.429688 14.691406 C 8.398438 14.738281 8.417969 14.800781 8.46875 14.832031 Z M 8.460938 14.832031 "/>
<path style=" stroke:none;fill-rule:nonzero;fill:rgb(92.941176%,41.176471%,36.078431%);fill-opacity:1;" d="M 9.859375 15.867188 L 8.371094 15.003906 L 8.566406 14.667969 L 10.058594 15.527344 Z M 10.058594 15.527344 L 10.070312 15.535156 Z M 10.011719 15.515625 L 10.011719 15.914062 L 9.96875 15.914062 L 9.988281 15.914062 L 9.964844 15.914062 L 9.945312 15.90625 L 9.957031 15.90625 L 9.941406 15.902344 L 9.921875 15.894531 L 9.917969 15.890625 L 9.921875 15.890625 L 9.917969 15.882812 L 9.921875 15.882812 L 9.90625 15.878906 L 9.902344 15.871094 L 9.917969 15.878906 L 9.878906 15.859375 L 9.890625 15.867188 L 9.894531 15.867188 L 9.871094 15.855469 L 10.070312 15.515625 L 10.074219 15.515625 L 10.070312 15.511719 L 10.058594 15.503906 L 10.0625 15.511719 L 10.082031 15.515625 L 10.0625 15.503906 L 10.050781 15.5 L 10.074219 15.511719 L 10.070312 15.511719 L 10.058594 15.503906 L 10.0625 15.511719 L 10.058594 15.511719 L 10.0625 15.515625 L 10.058594 15.515625 L 10.046875 15.511719 L 10.035156 15.511719 L 10.050781 15.515625 L 10.035156 15.511719 L 10.023438 15.511719 L 10.039062 15.511719 L 10.023438 15.511719 L 10.027344 15.511719 L 10.011719 15.511719 Z M 9.929688 15.5625 L 10.273438 15.761719 L 10.261719 15.773438 L 10.261719 15.777344 L 10.25 15.796875 L 10.242188 15.800781 L 10.21875 15.824219 L 10.214844 15.832031 L 10.1875 15.859375 L 10.175781 15.867188 L 10.167969 15.871094 L 10.164062 15.871094 L 10.152344 15.878906 L 10.132812 15.882812 L 10.128906 15.882812 L 10.121094 15.890625 L 10.109375 15.894531 L 10.105469 15.902344 L 10.09375 15.90625 L 10.085938 15.90625 L 10.074219 15.914062 L 10.003906 15.914062 L 10.003906 15.515625 L 9.964844 15.515625 L 9.957031 15.523438 L 9.964844 15.523438 L 9.953125 15.527344 L 9.945312 15.527344 L 9.953125 15.527344 L 9.929688 15.550781 L 9.921875 15.5625 L 9.921875 15.558594 L 9.917969 15.5625 Z M 10.273438 15.761719 L 10.265625 15.769531 Z M 10.4375 15.476562 L 10.273438 15.761719 L 9.929688 15.5625 L 10.09375 15.277344 L 10.4375 15.472656 Z M 10.4375 15.472656 L 10.4375 15.476562 Z M 10.085938 15.355469 L 10.460938 15.238281 L 10.464844 15.25 L 10.464844 15.367188 L 10.460938 15.382812 L 10.449219 15.414062 L 10.453125 15.402344 L 10.449219 15.414062 L 10.441406 15.429688 L 10.441406 15.4375 L 10.097656 15.242188 L 10.09375 15.253906 L 10.085938 15.261719 L 10.09375 15.242188 L 10.082031 15.265625 L 10.082031 15.261719 L 10.074219 15.273438 L 10.074219 15.277344 L 10.074219 15.273438 L 10.074219 15.289062 L 10.074219 15.285156 L 10.074219 15.308594 L 10.074219 15.300781 L 10.074219 15.324219 L 10.082031 15.335938 Z M 10.460938 15.238281 L 10.464844 15.25 L 10.464844 15.238281 Z M 10.128906 15.40625 L 10.324219 15.070312 L 10.332031 15.074219 L 10.347656 15.085938 L 10.34375 15.085938 L 10.355469 15.097656 L 10.359375 15.097656 L 10.371094 15.109375 L 10.367188 15.105469 L 10.390625 15.128906 L 10.378906 15.117188 L 10.390625 15.128906 L 10.402344 15.144531 L 10.40625 15.15625 L 10.414062 15.164062 L 10.414062 15.15625 L 10.429688 15.1875 L 10.4375 15.191406 L 10.441406 15.203125 L 10.441406 15.207031 L 10.449219 15.21875 L 10.074219 15.335938 L 10.074219 15.34375 L 10.082031 15.347656 L 10.085938 15.359375 L 10.085938 15.367188 L 10.082031 15.359375 L 10.082031 15.367188 L 10.085938 15.371094 L 10.09375 15.382812 L 10.105469 15.394531 L 10.09375 15.382812 L 10.097656 15.390625 L 10.117188 15.40625 L 10.109375 15.402344 L 10.121094 15.40625 L 10.132812 15.414062 L 10.128906 15.40625 L 10.140625 15.414062 Z M 10.128906 15.40625 Z M 8.828125 14.203125 L 10.320312 15.0625 L 10.121094 15.402344 L 8.632812 14.539062 L 8.824219 14.195312 L 8.828125 14.195312 Z M 8.824219 14.203125 L 8.828125 14.203125 Z M 8.703125 14.558594 L 8.601562 14.179688 L 8.597656 14.179688 L 8.714844 14.179688 L 8.707031 14.179688 L 8.71875 14.179688 L 8.730469 14.183594 L 8.738281 14.183594 L 8.75 14.191406 L 8.757812 14.195312 L 8.769531 14.203125 L 8.777344 14.207031 L 8.589844 14.550781 L 8.597656 14.550781 L 8.601562 14.558594 L 8.609375 14.5625 L 8.625 14.5625 L 8.613281 14.5625 L 8.695312 14.5625 L 8.691406 14.5625 Z M 8.707031 14.558594 L 8.703125 14.558594 Z M 8.757812 14.515625 L 8.421875 14.320312 L 8.417969 14.324219 L 8.421875 14.3125 L 8.429688 14.308594 L 8.429688 14.3125 L 8.433594 14.300781 L 8.445312 14.289062 L 8.453125 14.277344 L 8.445312 14.285156 L 8.453125 14.277344 L 8.460938 14.265625 L 8.457031 14.273438 L 8.460938 14.265625 L 8.46875 14.261719 L 8.460938 14.265625 L 8.472656 14.253906 L 8.492188 14.242188 L 8.484375 14.242188 L 8.496094 14.230469 L 8.507812 14.226562 L 8.503906 14.226562 L 8.519531 14.214844 L 8.539062 14.195312 L 8.550781 14.191406 L 8.5625 14.183594 L 8.574219 14.183594 L 8.671875 14.5625 L 8.683594 14.5625 L 8.691406 14.558594 L 8.703125 14.550781 L 8.695312 14.558594 L 8.703125 14.550781 L 8.714844 14.546875 L 8.707031 14.550781 L 8.71875 14.546875 L 8.730469 14.535156 L 8.726562 14.539062 L 8.738281 14.527344 L 8.730469 14.535156 L 8.75 14.515625 L 8.742188 14.523438 L 8.75 14.515625 L 8.753906 14.503906 L 8.757812 14.5 L 8.753906 14.503906 L 8.753906 14.5 L 8.757812 14.492188 L 8.753906 14.5 Z M 8.765625 14.511719 L 8.765625 14.515625 L 8.769531 14.511719 Z M 8.257812 14.605469 L 8.421875 14.320312 L 8.757812 14.515625 L 8.597656 14.800781 Z M 8.257812 14.605469 L 8.230469 14.65625 Z M 8.566406 14.667969 L 8.371094 15.003906 L 8.359375 15 L 8.347656 14.992188 L 8.335938 14.980469 L 8.324219 14.976562 L 8.300781 14.953125 L 8.289062 14.933594 L 8.277344 14.921875 L 8.269531 14.917969 L 8.265625 14.90625 L 8.253906 14.890625 L 8.246094 14.878906 L 8.242188 14.867188 L 8.234375 14.855469 L 8.230469 14.84375 L 8.222656 14.824219 L 8.21875 14.808594 L 8.21875 14.683594 L 8.222656 14.667969 L 8.222656 14.65625 L 8.230469 14.644531 L 8.234375 14.625 L 8.246094 14.605469 L 8.253906 14.59375 L 8.257812 14.582031 L 8.601562 14.777344 L 8.601562 14.773438 L 8.609375 14.761719 L 8.609375 14.695312 L 8.601562 14.691406 L 8.601562 14.683594 L 8.609375 14.691406 L 8.589844 14.671875 L 8.585938 14.671875 Z M 8.371094 15.003906 L 8.382812 15.011719 L 8.375 15.003906 Z M 8.371094 15.003906 "/>
<path style="fill-rule:nonzero;fill:rgb(92.941176%,41.176471%,36.078431%);fill-opacity:1;stroke-width:1;stroke-linecap:butt;stroke-linejoin:miter;stroke:rgb(92.941176%,41.176471%,36.078431%);stroke-opacity:1;stroke-miterlimit:22.9256;" d="M 17.348673 34.77763 C 17.301694 34.697095 17.187602 34.67025 17.107067 34.717229 L 14.550067 36.200423 C 14.469531 36.247402 14.442686 36.361494 14.482954 36.442029 L 14.758117 36.931953 C 14.778251 36.972221 14.818518 36.999066 14.872209 37.012489 C 14.87892 37.012489 14.899054 37.012489 14.919188 37.012489 C 14.952744 37.012489 14.979589 36.999066 15.013146 36.992355 L 17.570145 35.509161 C 17.610413 35.482315 17.637258 35.448759 17.650681 35.40178 C 17.657392 35.361512 17.650681 35.307822 17.630547 35.267554 Z M 17.348673 34.77763 " transform="matrix(0.582042,0,0,0.582042,0,0.000145901)"/>
<path style=" stroke:none;fill-rule:nonzero;fill:rgb(92.941176%,41.176471%,36.078431%);fill-opacity:1;" d="M 10.097656 20.242188 C 10.070312 20.195312 10.003906 20.179688 9.957031 20.207031 L 8.46875 21.070312 C 8.421875 21.097656 8.40625 21.164062 8.429688 21.210938 L 8.589844 21.496094 C 8.601562 21.519531 8.625 21.535156 8.65625 21.542969 C 8.660156 21.542969 8.671875 21.542969 8.683594 21.542969 C 8.703125 21.542969 8.71875 21.535156 8.738281 21.53125 L 10.226562 20.667969 C 10.25 20.652344 10.265625 20.632812 10.273438 20.605469 C 10.277344 20.582031 10.273438 20.550781 10.261719 20.527344 Z M 10.097656 20.242188 "/>
<path style=" stroke:none;fill-rule:nonzero;fill:rgb(92.941176%,41.176471%,36.078431%);fill-opacity:1;" d="M 10.058594 20.378906 L 9.859375 20.039062 L 9.871094 20.035156 L 9.882812 20.027344 L 9.894531 20.023438 L 9.914062 20.015625 L 9.929688 20.011719 L 9.941406 20.011719 L 9.957031 20.003906 L 10.0625 20.003906 L 10.082031 20.011719 L 10.097656 20.015625 L 10.109375 20.023438 L 10.128906 20.027344 L 10.140625 20.035156 L 10.144531 20.035156 L 10.164062 20.046875 L 10.179688 20.058594 L 10.1875 20.0625 L 10.191406 20.070312 L 10.203125 20.074219 L 10.21875 20.085938 L 10.273438 20.140625 L 10.277344 20.152344 L 9.941406 20.355469 L 9.941406 20.359375 L 9.945312 20.367188 L 9.953125 20.371094 L 9.957031 20.378906 L 9.96875 20.382812 L 9.976562 20.390625 L 9.988281 20.394531 L 9.980469 20.394531 L 9.988281 20.394531 L 9.992188 20.402344 L 10.0625 20.402344 Z M 10.058594 20.378906 L 10.050781 20.382812 L 10.0625 20.378906 Z M 8.371094 20.902344 L 9.859375 20.039062 L 10.058594 20.378906 L 8.566406 21.238281 L 8.375 20.894531 Z M 8.566406 21.238281 L 8.5625 21.238281 Z M 8.601562 21.109375 L 8.265625 21.308594 L 8.257812 21.292969 L 8.253906 21.28125 L 8.246094 21.261719 L 8.242188 21.246094 L 8.234375 21.234375 L 8.230469 21.222656 L 8.222656 21.203125 L 8.222656 21.082031 L 8.230469 21.070312 L 8.234375 21.050781 L 8.242188 21.039062 L 8.246094 21.03125 L 8.253906 21.011719 L 8.257812 21 L 8.269531 20.984375 L 8.28125 20.964844 L 8.289062 20.960938 L 8.359375 20.890625 L 8.371094 20.882812 L 8.382812 20.878906 L 8.574219 21.222656 L 8.578125 21.214844 L 8.585938 21.210938 L 8.589844 21.203125 L 8.597656 21.199219 L 8.601562 21.191406 L 8.609375 21.1875 L 8.613281 21.179688 L 8.621094 21.175781 L 8.621094 21.121094 L 8.613281 21.109375 L 8.609375 21.105469 Z M 8.265625 21.308594 L 8.234375 21.261719 Z M 8.429688 21.59375 L 8.265625 21.308594 L 8.601562 21.109375 L 8.765625 21.394531 L 8.769531 21.402344 Z M 8.765625 21.394531 L 8.769531 21.402344 Z M 8.714844 21.355469 L 8.601562 21.734375 L 8.609375 21.734375 L 8.597656 21.734375 L 8.585938 21.726562 L 8.574219 21.722656 L 8.566406 21.714844 L 8.554688 21.710938 L 8.550781 21.703125 L 8.542969 21.699219 L 8.53125 21.691406 L 8.515625 21.675781 L 8.519531 21.675781 L 8.503906 21.664062 L 8.492188 21.652344 L 8.496094 21.65625 L 8.472656 21.632812 L 8.46875 21.621094 L 8.460938 21.613281 L 8.457031 21.605469 L 8.453125 21.59375 L 8.792969 21.40625 L 8.789062 21.402344 L 8.789062 21.394531 L 8.78125 21.390625 L 8.777344 21.382812 L 8.769531 21.378906 L 8.765625 21.371094 L 8.757812 21.367188 L 8.753906 21.359375 L 8.757812 21.367188 L 8.75 21.355469 L 8.738281 21.347656 L 8.742188 21.355469 L 8.730469 21.347656 L 8.726562 21.34375 L 8.71875 21.34375 L 8.726562 21.347656 L 8.71875 21.34375 L 8.714844 21.335938 L 8.703125 21.335938 L 8.707031 21.335938 Z M 8.707031 21.355469 L 8.714844 21.355469 Z M 8.683594 21.347656 L 8.683594 21.746094 L 8.648438 21.738281 L 8.679688 21.746094 L 8.644531 21.738281 L 8.671875 21.746094 L 8.632812 21.738281 L 8.667969 21.746094 L 8.632812 21.738281 L 8.625 21.738281 L 8.632812 21.738281 L 8.625 21.738281 L 8.589844 21.726562 L 8.625 21.738281 L 8.609375 21.734375 L 8.71875 21.355469 L 8.703125 21.347656 L 8.738281 21.359375 L 8.703125 21.347656 L 8.695312 21.347656 L 8.703125 21.347656 L 8.695312 21.347656 L 8.667969 21.34375 L 8.707031 21.347656 L 8.671875 21.34375 L 8.707031 21.347656 L 8.679688 21.34375 L 8.714844 21.347656 L 8.683594 21.34375 Z M 8.636719 21.359375 L 8.835938 21.699219 L 8.8125 21.710938 L 8.828125 21.699219 L 8.804688 21.710938 L 8.789062 21.714844 L 8.769531 21.722656 L 8.765625 21.722656 L 8.75 21.726562 L 8.742188 21.726562 L 8.757812 21.722656 L 8.726562 21.726562 L 8.738281 21.726562 L 8.703125 21.726562 L 8.71875 21.726562 L 8.703125 21.726562 L 8.703125 21.332031 L 8.683594 21.332031 L 8.703125 21.332031 L 8.667969 21.332031 L 8.691406 21.332031 L 8.65625 21.335938 L 8.679688 21.332031 L 8.660156 21.335938 L 8.667969 21.335938 L 8.65625 21.34375 L 8.644531 21.347656 L 8.625 21.359375 L 8.648438 21.347656 L 8.632812 21.359375 Z M 8.636719 21.359375 L 8.625 21.367188 Z M 10.324219 20.84375 L 8.835938 21.703125 L 8.636719 21.367188 L 10.128906 20.503906 L 10.332031 20.84375 L 10.320312 20.847656 Z M 10.335938 20.835938 L 10.332031 20.84375 L 10.34375 20.835938 Z M 10.085938 20.558594 L 10.464844 20.664062 L 10.464844 20.667969 L 10.460938 20.679688 L 10.460938 20.6875 L 10.453125 20.699219 L 10.449219 20.714844 L 10.441406 20.726562 L 10.449219 20.722656 L 10.441406 20.734375 L 10.417969 20.765625 L 10.414062 20.773438 L 10.417969 20.765625 L 10.414062 20.773438 L 10.40625 20.777344 L 10.402344 20.785156 L 10.40625 20.777344 L 10.394531 20.789062 L 10.390625 20.796875 L 10.378906 20.800781 L 10.371094 20.808594 L 10.15625 20.476562 L 10.128906 20.503906 L 10.132812 20.5 L 10.117188 20.515625 L 10.121094 20.511719 L 10.117188 20.515625 L 10.109375 20.527344 L 10.105469 20.539062 L 10.097656 20.546875 L 10.105469 20.535156 L 10.097656 20.539062 L 10.09375 20.550781 L 10.085938 20.558594 L 10.085938 20.570312 Z M 10.464844 20.664062 L 10.464844 20.675781 Z M 10.09375 20.632812 L 10.4375 20.4375 L 10.441406 20.441406 L 10.449219 20.453125 L 10.453125 20.464844 L 10.449219 20.457031 L 10.453125 20.464844 L 10.460938 20.488281 L 10.464844 20.503906 L 10.464844 20.609375 L 10.460938 20.621094 L 10.460938 20.628906 L 10.082031 20.523438 L 10.082031 20.539062 L 10.082031 20.535156 L 10.082031 20.582031 L 10.082031 20.574219 L 10.082031 20.582031 L 10.082031 20.574219 L 10.082031 20.582031 L 10.085938 20.59375 L 10.09375 20.609375 L 10.085938 20.597656 L 10.097656 20.609375 L 10.097656 20.617188 Z M 10.09375 20.632812 L 10.074219 20.597656 Z M 10.265625 20.152344 L 10.429688 20.4375 L 10.085938 20.632812 L 9.921875 20.347656 L 10.261719 20.152344 L 10.261719 20.15625 Z M 10.265625 20.144531 L 10.265625 20.140625 Z M 10.265625 20.144531 "/>
<path style="fill-rule:nonzero;fill:rgb(92.941176%,41.176471%,36.078431%);fill-opacity:1;stroke-width:1;stroke-linecap:butt;stroke-linejoin:miter;stroke:rgb(92.941176%,41.176471%,36.078431%);stroke-opacity:1;stroke-miterlimit:22.9256;" d="M 19.57682 22.650338 C 19.596953 22.677183 19.617087 22.690605 19.650644 22.690605 C 19.670778 22.690605 19.677489 22.677183 19.697623 22.677183 L 20.187547 22.40202 C 20.227814 22.381886 20.247948 22.321485 20.221103 22.281217 L 19.409037 20.878558 C 19.402326 20.858424 19.382192 20.838291 19.362058 20.838291 C 19.341925 20.831579 19.321791 20.838291 19.288234 20.851713 L 18.798311 21.126876 C 18.778177 21.140298 18.771465 21.160432 18.758043 21.180566 C 18.751332 21.2007 18.758043 21.227545 18.771465 21.247679 Z M 19.57682 22.650338 " transform="matrix(0.582042,0,0,0.582042,0,0.000145901)"/>
<path style=" stroke:none;fill-rule:nonzero;fill:rgb(92.941176%,41.176471%,36.078431%);fill-opacity:1;" d="M 11.394531 13.183594 C 11.40625 13.199219 11.417969 13.207031 11.4375 13.207031 C 11.449219 13.207031 11.453125 13.199219 11.464844 13.199219 L 11.75 13.039062 C 11.773438 13.027344 11.785156 12.992188 11.769531 12.96875 L 11.296875 12.152344 C 11.292969 12.140625 11.28125 12.128906 11.269531 12.128906 C 11.257812 12.125 11.246094 12.128906 11.226562 12.136719 L 10.941406 12.296875 C 10.929688 12.304688 10.925781 12.316406 10.917969 12.328125 C 10.914062 12.339844 10.917969 12.355469 10.925781 12.367188 Z M 11.394531 13.183594 "/>
<path style=" stroke:none;fill-rule:nonzero;fill:rgb(92.941176%,41.176471%,36.078431%);fill-opacity:1;" d="M 11.4375 13.007812 L 11.4375 13.40625 L 11.394531 13.40625 L 11.378906 13.398438 L 11.375 13.398438 L 11.355469 13.394531 L 11.339844 13.386719 L 11.320312 13.382812 L 11.308594 13.375 L 11.296875 13.363281 L 11.285156 13.359375 L 11.292969 13.363281 L 11.273438 13.347656 L 11.25 13.324219 L 11.246094 13.3125 L 11.238281 13.300781 L 11.238281 13.292969 L 11.578125 13.097656 L 11.570312 13.085938 L 11.566406 13.078125 L 11.558594 13.074219 L 11.554688 13.066406 L 11.535156 13.050781 L 11.546875 13.054688 L 11.542969 13.050781 L 11.53125 13.042969 L 11.523438 13.039062 L 11.511719 13.03125 L 11.5 13.027344 L 11.484375 13.019531 L 11.476562 13.019531 L 11.460938 13.015625 L 11.429688 13.015625 Z M 11.367188 13.027344 L 11.566406 13.363281 L 11.542969 13.375 L 11.523438 13.382812 L 11.546875 13.371094 L 11.558594 13.363281 L 11.53125 13.375 L 11.519531 13.382812 L 11.53125 13.375 L 11.519531 13.382812 L 11.53125 13.375 L 11.488281 13.386719 L 11.519531 13.382812 L 11.53125 13.375 L 11.496094 13.386719 L 11.488281 13.386719 L 11.496094 13.386719 L 11.488281 13.386719 L 11.453125 13.394531 L 11.484375 13.386719 L 11.488281 13.386719 L 11.449219 13.394531 L 11.449219 12.996094 L 11.40625 13.003906 L 11.414062 13.003906 L 11.449219 12.996094 L 11.417969 13.003906 L 11.414062 13.003906 L 11.417969 13.003906 L 11.414062 13.003906 L 11.378906 13.015625 L 11.390625 13.007812 L 11.417969 13.003906 L 11.378906 13.015625 L 11.390625 13.007812 L 11.378906 13.015625 L 11.390625 13.007812 L 11.378906 13.015625 L 11.351562 13.027344 L 11.363281 13.019531 L 11.390625 13.007812 L 11.378906 13.015625 L 11.355469 13.027344 Z M 11.566406 13.363281 L 11.554688 13.371094 L 11.542969 13.375 Z M 11.851562 13.199219 L 11.566406 13.363281 L 11.367188 13.027344 L 11.652344 12.863281 L 11.851562 13.207031 Z M 11.652344 12.863281 L 11.640625 12.867188 Z M 11.601562 13.0625 L 11.9375 12.863281 L 11.933594 12.859375 L 11.9375 12.863281 L 11.949219 12.878906 L 11.957031 12.898438 L 11.960938 12.910156 L 11.964844 12.925781 L 11.964844 12.9375 L 11.972656 12.96875 L 11.972656 13.03125 L 11.964844 13.050781 L 11.960938 13.0625 L 11.957031 13.078125 L 11.949219 13.089844 L 11.9375 13.109375 L 11.933594 13.121094 L 11.925781 13.132812 L 11.914062 13.144531 L 11.902344 13.152344 L 11.890625 13.164062 L 11.875 13.175781 L 11.863281 13.1875 L 11.671875 12.847656 L 11.660156 12.851562 L 11.648438 12.859375 L 11.636719 12.863281 L 11.625 12.875 L 11.617188 12.886719 L 11.605469 12.898438 L 11.601562 12.910156 L 11.59375 12.914062 L 11.589844 12.925781 L 11.589844 12.933594 L 11.582031 12.945312 L 11.582031 13.019531 L 11.589844 13.03125 L 11.589844 13.039062 L 11.59375 13.050781 L 11.601562 13.066406 L 11.59375 13.0625 Z M 11.605469 13.066406 L 11.601562 13.0625 Z M 11.472656 12.046875 L 11.945312 12.863281 L 11.605469 13.0625 L 11.132812 12.246094 L 11.476562 12.046875 Z M 11.132812 12.246094 L 11.042969 12.078125 Z M 11.214844 12.308594 L 11.328125 11.933594 L 11.316406 11.925781 L 11.320312 11.925781 L 11.34375 11.933594 L 11.363281 11.945312 L 11.34375 11.9375 L 11.363281 11.949219 L 11.390625 11.96875 L 11.367188 11.949219 L 11.394531 11.96875 L 11.417969 11.988281 L 11.40625 11.980469 L 11.417969 11.988281 L 11.429688 12 L 11.429688 12.007812 L 11.441406 12.019531 L 11.429688 12.007812 L 11.441406 12.023438 L 11.460938 12.054688 L 11.441406 12.03125 L 11.453125 12.046875 L 11.109375 12.246094 L 11.121094 12.265625 L 11.105469 12.234375 L 11.121094 12.257812 L 11.132812 12.269531 L 11.121094 12.253906 L 11.128906 12.265625 L 11.140625 12.277344 L 11.152344 12.285156 L 11.140625 12.277344 L 11.1875 12.308594 L 11.15625 12.292969 L 11.179688 12.308594 L 11.199219 12.316406 L 11.179688 12.304688 L 11.199219 12.308594 L 11.214844 12.316406 L 11.222656 12.316406 L 11.210938 12.308594 Z M 11.226562 12.316406 L 11.214844 12.316406 L 11.226562 12.320312 Z M 11.332031 12.296875 L 11.132812 11.960938 L 11.121094 11.96875 L 11.128906 11.960938 L 11.144531 11.949219 L 11.164062 11.9375 L 11.1875 11.933594 L 11.167969 11.9375 L 11.191406 11.933594 L 11.214844 11.925781 L 11.273438 11.925781 L 11.296875 11.933594 L 11.292969 11.933594 L 11.304688 11.933594 L 11.191406 12.308594 L 11.203125 12.308594 L 11.199219 12.308594 L 11.222656 12.316406 L 11.214844 12.316406 L 11.261719 12.316406 L 11.285156 12.308594 L 11.304688 12.304688 L 11.28125 12.308594 L 11.296875 12.304688 L 11.316406 12.296875 L 11.332031 12.292969 L 11.339844 12.292969 L 11.328125 12.296875 Z M 11.34375 12.292969 L 11.339844 12.292969 L 11.332031 12.296875 Z M 10.855469 12.125 L 11.140625 11.960938 L 11.339844 12.296875 L 11.054688 12.460938 L 10.855469 12.117188 Z M 11.054688 12.460938 L 10.867188 12.566406 Z M 11.117188 12.375 L 10.738281 12.265625 L 10.738281 12.257812 L 10.746094 12.246094 L 10.75 12.234375 L 10.746094 12.253906 L 10.746094 12.246094 L 10.757812 12.230469 L 10.761719 12.21875 L 10.757812 12.222656 L 10.761719 12.210938 L 10.773438 12.195312 L 10.796875 12.171875 L 10.785156 12.183594 L 10.820312 12.148438 L 10.808594 12.152344 L 10.820312 12.140625 L 10.835938 12.128906 L 11.035156 12.472656 L 11.054688 12.460938 L 11.066406 12.457031 L 11.054688 12.46875 L 11.078125 12.449219 L 11.089844 12.4375 L 11.078125 12.449219 L 11.089844 12.4375 L 11.09375 12.425781 L 11.105469 12.410156 L 11.109375 12.402344 L 11.105469 12.414062 L 11.109375 12.410156 L 11.117188 12.390625 L 11.117188 12.386719 L 11.109375 12.402344 L 11.117188 12.390625 Z M 10.738281 12.265625 L 10.738281 12.257812 Z M 11.105469 12.257812 L 10.769531 12.457031 L 10.757812 12.445312 L 10.746094 12.414062 L 10.757812 12.4375 L 10.746094 12.421875 L 10.738281 12.390625 L 10.746094 12.414062 L 10.734375 12.367188 L 10.738281 12.390625 L 10.738281 12.386719 L 10.734375 12.363281 L 10.734375 12.339844 L 10.734375 12.363281 L 10.734375 12.308594 L 10.734375 12.332031 L 10.734375 12.308594 L 10.738281 12.28125 L 10.738281 12.285156 L 10.738281 12.277344 L 11.117188 12.386719 L 11.117188 12.375 L 11.117188 12.378906 L 11.121094 12.355469 L 11.121094 12.339844 L 11.121094 12.363281 L 11.121094 12.320312 L 11.121094 12.34375 L 11.121094 12.320312 L 11.117188 12.304688 L 11.117188 12.296875 L 11.121094 12.328125 L 11.109375 12.28125 L 11.117188 12.308594 L 11.109375 12.285156 L 11.105469 12.269531 L 11.117188 12.296875 L 11.105469 12.277344 L 11.105469 12.269531 L 11.097656 12.265625 Z M 10.769531 12.457031 L 10.761719 12.449219 Z M 11.238281 13.269531 L 10.769531 12.457031 L 11.105469 12.257812 L 11.578125 13.074219 Z M 11.238281 13.269531 L 11.246094 13.28125 Z M 11.238281 13.269531 "/>
<path style="fill-rule:nonzero;fill:rgb(92.941176%,41.176471%,36.078431%);fill-opacity:1;stroke-width:1;stroke-linecap:butt;stroke-linejoin:miter;stroke:rgb(92.941176%,41.176471%,36.078431%);stroke-opacity:1;stroke-miterlimit:22.9256;" d="M 15.241329 31.11998 L 15.241329 30.549521 C 15.241329 30.448851 15.160794 30.381739 15.060125 30.381739 L 13.449416 30.381739 C 13.348747 30.381739 13.281634 30.462274 13.281634 30.549521 L 13.281634 31.11998 C 13.281634 31.207227 13.362169 31.287762 13.449416 31.287762 L 15.060125 31.287762 C 15.160794 31.287762 15.241329 31.207227 15.241329 31.11998 Z M 15.241329 31.11998 " transform="matrix(0.582042,0,0,0.582042,0,0.000145901)"/>
<path style="fill-rule:nonzero;fill:rgb(92.941176%,41.176471%,36.078431%);fill-opacity:1;stroke-width:1;stroke-linecap:butt;stroke-linejoin:miter;stroke:rgb(92.941176%,41.176471%,36.078431%);stroke-opacity:1;stroke-miterlimit:22.9256;" d="M 20.180835 39.280903 L 19.690911 38.999029 C 19.650644 38.978895 19.590242 38.992318 19.570108 39.032585 L 18.758043 40.428533 C 18.737909 40.468801 18.751332 40.522491 18.791599 40.549336 L 19.281523 40.83121 C 19.288234 40.837921 19.308368 40.837921 19.321791 40.837921 C 19.328502 40.837921 19.341925 40.837921 19.341925 40.837921 C 19.362058 40.83121 19.382192 40.817787 19.388904 40.797654 L 20.200969 39.401706 C 20.20768 39.381572 20.221103 39.348016 20.20768 39.327882 C 20.200969 39.307748 20.187547 39.287614 20.167413 39.280903 Z M 20.180835 39.280903 " transform="matrix(0.582042,0,0,0.582042,0,0.000145901)"/>
<path style=" stroke:none;fill-rule:nonzero;fill:rgb(92.941176%,41.176471%,36.078431%);fill-opacity:1;" d="M 11.746094 22.863281 L 11.460938 22.699219 C 11.4375 22.6875 11.402344 22.695312 11.390625 22.71875 L 10.917969 23.53125 C 10.90625 23.554688 10.914062 23.585938 10.9375 23.601562 L 11.222656 23.765625 C 11.226562 23.769531 11.238281 23.769531 11.246094 23.769531 C 11.25 23.769531 11.257812 23.769531 11.257812 23.769531 C 11.269531 23.765625 11.28125 23.757812 11.285156 23.746094 L 11.757812 22.933594 C 11.761719 22.921875 11.769531 22.902344 11.761719 22.890625 C 11.757812 22.878906 11.75 22.867188 11.738281 22.863281 Z M 11.746094 22.863281 "/>
<path style=" stroke:none;fill-rule:nonzero;fill:rgb(92.941176%,41.176471%,36.078431%);fill-opacity:1;" d="M 11.558594 22.53125 L 11.84375 22.695312 L 11.648438 23.03125 L 11.363281 22.867188 Z M 11.363281 22.867188 L 11.355469 22.863281 Z M 11.558594 22.816406 L 11.222656 22.617188 L 11.222656 22.613281 L 11.234375 22.59375 L 11.238281 22.582031 L 11.25 22.570312 L 11.257812 22.566406 L 11.261719 22.558594 L 11.28125 22.546875 L 11.285156 22.542969 L 11.296875 22.535156 L 11.316406 22.523438 L 11.328125 22.519531 L 11.355469 22.507812 L 11.375 22.5 L 11.484375 22.5 L 11.496094 22.507812 L 11.519531 22.511719 L 11.53125 22.519531 L 11.546875 22.523438 L 11.34375 22.863281 L 11.355469 22.867188 L 11.363281 22.875 L 11.378906 22.878906 L 11.460938 22.878906 L 11.472656 22.875 L 11.496094 22.863281 L 11.5 22.855469 L 11.511719 22.851562 L 11.519531 22.84375 L 11.523438 22.84375 L 11.535156 22.832031 L 11.542969 22.828125 L 11.546875 22.820312 L 11.554688 22.808594 L 11.558594 22.804688 L 11.566406 22.792969 L 11.566406 22.785156 Z M 11.222656 22.617188 L 11.222656 22.613281 L 11.234375 22.59375 L 11.222656 22.613281 Z M 10.75 23.433594 L 11.222656 22.617188 L 11.558594 22.816406 L 11.089844 23.632812 Z M 11.035156 23.425781 L 10.835938 23.765625 L 10.824219 23.753906 L 10.808594 23.742188 L 10.796875 23.730469 L 10.792969 23.722656 L 10.78125 23.710938 L 10.769531 23.695312 L 10.761719 23.683594 L 10.757812 23.671875 L 10.75 23.65625 L 10.746094 23.644531 L 10.738281 23.625 L 10.734375 23.613281 L 10.726562 23.601562 L 10.722656 23.574219 L 10.722656 23.507812 L 10.726562 23.492188 L 10.734375 23.480469 L 10.738281 23.46875 L 10.746094 23.449219 L 10.75 23.4375 L 11.089844 23.636719 L 11.09375 23.632812 L 11.097656 23.621094 L 11.097656 23.609375 L 11.105469 23.597656 L 11.105469 23.503906 L 11.097656 23.492188 L 11.09375 23.484375 L 11.089844 23.472656 L 11.082031 23.46875 L 11.078125 23.460938 L 11.070312 23.449219 L 11.054688 23.433594 L 11.042969 23.425781 L 11.03125 23.421875 L 11.019531 23.414062 Z M 11.035156 23.425781 L 11.023438 23.421875 Z M 11.121094 23.933594 L 10.835938 23.769531 L 11.035156 23.433594 L 11.320312 23.597656 L 11.339844 23.609375 L 11.128906 23.941406 Z M 11.320312 23.597656 L 11.332031 23.601562 L 11.339844 23.609375 Z M 11.246094 23.578125 L 11.246094 23.972656 L 11.210938 23.96875 L 11.238281 23.972656 L 11.199219 23.96875 L 11.203125 23.96875 L 11.234375 23.972656 L 11.191406 23.96875 L 11.199219 23.96875 L 11.191406 23.96875 L 11.15625 23.957031 L 11.191406 23.96875 L 11.199219 23.96875 L 11.15625 23.957031 L 11.167969 23.960938 L 11.128906 23.945312 L 11.15625 23.957031 L 11.128906 23.945312 L 11.117188 23.941406 L 11.34375 23.621094 L 11.332031 23.613281 L 11.304688 23.601562 L 11.332031 23.613281 L 11.292969 23.597656 L 11.304688 23.601562 L 11.261719 23.589844 L 11.269531 23.589844 L 11.304688 23.601562 L 11.269531 23.589844 L 11.261719 23.589844 L 11.269531 23.589844 L 11.234375 23.585938 L 11.269531 23.589844 L 11.273438 23.589844 L 11.234375 23.585938 L 11.269531 23.589844 L 11.238281 23.585938 Z M 11.203125 23.585938 L 11.316406 23.960938 L 11.320312 23.960938 L 11.257812 23.972656 L 11.34375 23.949219 L 11.320312 23.960938 L 11.257812 23.972656 L 11.320312 23.960938 L 11.257812 23.972656 L 11.320312 23.960938 L 11.257812 23.972656 L 11.257812 23.578125 L 11.191406 23.589844 L 11.257812 23.578125 L 11.191406 23.589844 L 11.257812 23.578125 L 11.191406 23.589844 L 11.167969 23.601562 L 11.257812 23.578125 L 11.191406 23.589844 L 11.199219 23.589844 Z M 11.203125 23.585938 L 11.199219 23.585938 Z M 11.121094 23.648438 L 11.460938 23.847656 L 11.453125 23.851562 L 11.449219 23.863281 L 11.4375 23.882812 L 11.453125 23.859375 L 11.449219 23.871094 L 11.425781 23.894531 L 11.4375 23.882812 L 11.414062 23.90625 L 11.394531 23.917969 L 11.40625 23.910156 L 11.394531 23.921875 L 11.40625 23.917969 L 11.378906 23.941406 L 11.382812 23.933594 L 11.394531 23.929688 L 11.378906 23.941406 L 11.355469 23.949219 L 11.367188 23.945312 L 11.351562 23.957031 L 11.339844 23.960938 L 11.226562 23.585938 L 11.214844 23.589844 L 11.199219 23.597656 L 11.210938 23.589844 L 11.199219 23.597656 L 11.191406 23.601562 L 11.175781 23.613281 L 11.1875 23.609375 L 11.191406 23.601562 L 11.164062 23.621094 L 11.175781 23.609375 L 11.164062 23.613281 L 11.175781 23.601562 L 11.140625 23.636719 L 11.152344 23.625 L 11.132812 23.648438 L 11.128906 23.660156 L 11.144531 23.636719 L 11.132812 23.648438 L 11.128906 23.660156 L 11.128906 23.65625 L 11.121094 23.660156 Z M 11.460938 23.847656 L 11.453125 23.859375 L 11.460938 23.851562 Z M 11.933594 23.03125 L 11.460938 23.847656 L 11.121094 23.648438 L 11.59375 22.832031 L 11.9375 23.03125 Z M 11.933594 23.03125 L 12.023438 22.863281 Z M 11.582031 22.960938 L 11.949219 22.820312 L 11.957031 22.832031 L 11.957031 22.84375 L 11.957031 22.839844 L 11.960938 22.867188 L 11.960938 22.890625 L 11.960938 22.867188 L 11.960938 22.921875 L 11.960938 22.902344 L 11.960938 22.925781 L 11.957031 22.945312 L 11.960938 22.925781 L 11.949219 22.96875 L 11.945312 22.972656 L 11.949219 22.957031 L 11.945312 22.980469 L 11.945312 22.972656 L 11.945312 22.980469 L 11.933594 23.007812 L 11.9375 23.003906 L 11.933594 23.015625 L 11.589844 22.816406 L 11.582031 22.828125 L 11.589844 22.816406 L 11.578125 22.84375 L 11.578125 22.851562 L 11.578125 22.84375 L 11.570312 22.863281 L 11.578125 22.839844 L 11.578125 22.84375 L 11.570312 22.886719 L 11.570312 22.878906 L 11.578125 22.863281 L 11.570312 22.878906 L 11.570312 22.902344 L 11.570312 22.875 L 11.570312 22.914062 L 11.570312 22.890625 L 11.570312 22.910156 L 11.578125 22.933594 L 11.578125 22.925781 L 11.578125 22.9375 L 11.582031 22.949219 Z M 11.949219 22.820312 L 11.949219 22.832031 L 11.945312 22.820312 Z M 11.640625 23.03125 L 11.839844 22.695312 L 11.832031 22.695312 L 11.84375 22.699219 L 11.855469 22.707031 L 11.839844 22.695312 L 11.855469 22.707031 L 11.875 22.71875 L 11.863281 22.707031 L 11.875 22.71875 L 11.878906 22.71875 L 11.902344 22.742188 L 11.902344 22.746094 L 11.921875 22.765625 L 11.914062 22.757812 L 11.925781 22.777344 L 11.933594 22.785156 L 11.925781 22.78125 L 11.9375 22.808594 L 11.933594 22.804688 L 11.921875 22.785156 L 11.925781 22.796875 L 11.9375 22.816406 L 11.933594 22.808594 L 11.9375 22.820312 L 11.570312 22.960938 L 11.578125 22.96875 L 11.570312 22.957031 L 11.582031 22.980469 L 11.570312 22.957031 L 11.566406 22.945312 L 11.578125 22.972656 L 11.570312 22.960938 L 11.578125 22.96875 L 11.589844 22.984375 L 11.582031 22.980469 L 11.589844 22.984375 L 11.59375 22.996094 L 11.59375 22.992188 L 11.617188 23.015625 L 11.628906 23.019531 L 11.613281 23.007812 L 11.625 23.019531 L 11.640625 23.03125 L 11.625 23.019531 L 11.636719 23.027344 L 11.648438 23.03125 Z M 11.648438 23.03125 L 11.640625 23.03125 L 11.652344 23.039062 Z M 11.648438 23.03125 "/>
<path style="fill-rule:nonzero;fill:rgb(92.941176%,41.176471%,36.078431%);fill-opacity:1;stroke-width:1;stroke-linecap:butt;stroke-linejoin:miter;stroke:rgb(92.941176%,41.176471%,36.078431%);stroke-opacity:1;stroke-miterlimit:22.9256;" d="M 34.56312 36.187 L 31.999409 34.710518 C 31.972564 34.690384 31.939007 34.676961 31.912162 34.676961 C 31.851761 34.676961 31.791359 34.710518 31.757803 34.770919 L 31.48264 35.260843 C 31.462506 35.301111 31.449084 35.34809 31.462506 35.388357 C 31.469217 35.428625 31.502774 35.468893 31.543042 35.502449 L 34.100041 36.978932 C 34.140309 36.999066 34.187288 37.012489 34.227556 36.999066 C 34.281246 36.992355 34.308091 36.958798 34.341648 36.918531 L 34.61681 36.428607 C 34.670501 36.348071 34.636944 36.240691 34.56312 36.187 Z M 34.56312 36.187 " transform="matrix(0.582042,0,0,0.582042,0,0.000145901)"/>
<path style=" stroke:none;fill-rule:nonzero;fill:rgb(92.941176%,41.176471%,36.078431%);fill-opacity:1;" d="M 20.117188 21.0625 L 18.625 20.203125 C 18.609375 20.191406 18.589844 20.183594 18.574219 20.183594 C 18.539062 20.183594 18.503906 20.203125 18.484375 20.238281 L 18.324219 20.523438 C 18.3125 20.546875 18.304688 20.574219 18.3125 20.597656 C 18.316406 20.621094 18.335938 20.644531 18.359375 20.664062 L 19.847656 21.523438 C 19.871094 21.535156 19.898438 21.542969 19.921875 21.535156 C 19.953125 21.53125 19.96875 21.511719 19.988281 21.488281 L 20.148438 21.203125 C 20.179688 21.15625 20.160156 21.09375 20.117188 21.0625 Z M 20.117188 21.0625 "/>
<path style=" stroke:none;fill-rule:nonzero;fill:rgb(92.941176%,41.176471%,36.078431%);fill-opacity:1;" d="M 18.722656 20.035156 L 20.214844 20.894531 L 20.015625 21.234375 L 18.527344 20.371094 Z M 18.527344 20.371094 L 18.515625 20.367188 Z M 18.574219 20.382812 L 18.574219 19.988281 L 18.609375 19.988281 L 18.589844 19.988281 L 18.609375 19.988281 L 18.625 19.992188 L 18.613281 19.992188 L 18.632812 20 L 18.648438 20.003906 L 18.636719 20 L 18.65625 20.003906 L 18.648438 20.003906 L 18.65625 20.003906 L 18.675781 20.015625 L 18.671875 20.015625 L 18.660156 20.011719 L 18.675781 20.015625 L 18.695312 20.023438 L 18.683594 20.023438 L 18.699219 20.027344 L 18.707031 20.035156 L 18.507812 20.371094 L 18.503906 20.371094 L 18.507812 20.378906 L 18.519531 20.382812 L 18.507812 20.371094 L 18.519531 20.378906 L 18.53125 20.382812 L 18.515625 20.378906 L 18.507812 20.371094 L 18.527344 20.378906 L 18.53125 20.378906 L 18.527344 20.378906 L 18.539062 20.382812 L 18.519531 20.378906 L 18.53125 20.382812 L 18.550781 20.390625 L 18.539062 20.382812 L 18.53125 20.382812 L 18.550781 20.390625 L 18.566406 20.390625 L 18.550781 20.390625 L 18.585938 20.390625 Z M 18.65625 20.335938 L 18.3125 20.140625 L 18.316406 20.132812 L 18.324219 20.121094 L 18.382812 20.0625 L 18.390625 20.050781 L 18.398438 20.046875 L 18.414062 20.035156 L 18.421875 20.027344 L 18.433594 20.023438 L 18.445312 20.015625 L 18.457031 20.011719 L 18.460938 20.011719 L 18.472656 20.003906 L 18.484375 20 L 18.492188 20 L 18.503906 19.992188 L 18.566406 19.992188 L 18.566406 20.390625 L 18.578125 20.390625 L 18.574219 20.390625 L 18.585938 20.390625 L 18.578125 20.390625 L 18.589844 20.390625 L 18.585938 20.390625 L 18.597656 20.390625 L 18.589844 20.390625 L 18.601562 20.390625 L 18.609375 20.382812 L 18.621094 20.378906 L 18.625 20.371094 L 18.632812 20.367188 L 18.636719 20.359375 L 18.644531 20.355469 L 18.644531 20.347656 Z M 18.65625 20.335938 L 18.648438 20.34375 L 18.65625 20.332031 Z M 18.148438 20.425781 L 18.3125 20.140625 L 18.65625 20.335938 L 18.492188 20.621094 L 18.152344 20.425781 Z M 18.492188 20.621094 L 18.496094 20.609375 L 18.492188 20.617188 Z M 18.503906 20.550781 L 18.125 20.652344 L 18.125 20.527344 L 18.128906 20.515625 L 18.140625 20.492188 L 18.136719 20.5 L 18.140625 20.488281 L 18.148438 20.46875 L 18.152344 20.457031 L 18.160156 20.453125 L 18.496094 20.65625 L 18.492188 20.664062 L 18.496094 20.65625 L 18.503906 20.644531 L 18.507812 20.640625 L 18.503906 20.652344 L 18.507812 20.628906 L 18.507812 20.632812 L 18.507812 20.617188 L 18.507812 20.621094 L 18.507812 20.605469 L 18.507812 20.609375 L 18.507812 20.585938 L 18.507812 20.59375 L 18.507812 20.5625 Z M 18.125 20.652344 Z M 18.460938 20.492188 L 18.265625 20.832031 L 18.246094 20.8125 L 18.234375 20.808594 L 18.230469 20.800781 L 18.222656 20.796875 L 18.21875 20.789062 L 18.207031 20.777344 L 18.199219 20.765625 L 18.195312 20.761719 L 18.1875 20.75 L 18.183594 20.738281 L 18.175781 20.734375 L 18.171875 20.722656 L 18.164062 20.714844 L 18.160156 20.703125 L 18.152344 20.6875 L 18.148438 20.675781 L 18.527344 20.574219 L 18.527344 20.570312 L 18.527344 20.574219 L 18.515625 20.550781 L 18.519531 20.558594 L 18.515625 20.550781 L 18.515625 20.546875 L 18.503906 20.535156 L 18.503906 20.527344 L 18.496094 20.523438 L 18.484375 20.511719 L 18.480469 20.503906 L 18.472656 20.5 L 18.46875 20.492188 L 18.460938 20.488281 L 18.457031 20.488281 L 18.449219 20.480469 Z M 18.265625 20.832031 L 18.257812 20.824219 Z M 19.753906 21.691406 L 18.265625 20.832031 L 18.460938 20.492188 L 19.953125 21.355469 L 19.957031 21.355469 L 19.761719 21.691406 Z M 19.953125 21.355469 L 19.957031 21.355469 L 19.953125 21.347656 Z M 19.882812 21.34375 L 19.980469 21.722656 L 19.863281 21.722656 L 19.851562 21.714844 L 19.832031 21.703125 L 19.824219 21.699219 L 19.832031 21.703125 L 19.824219 21.699219 L 19.8125 21.691406 L 19.796875 21.6875 L 19.789062 21.6875 L 19.992188 21.347656 L 19.980469 21.34375 L 19.976562 21.335938 L 19.96875 21.335938 L 19.980469 21.34375 L 19.957031 21.335938 L 19.964844 21.335938 L 19.945312 21.335938 L 19.953125 21.335938 L 19.933594 21.335938 L 19.941406 21.335938 L 19.894531 21.335938 Z M 19.882812 21.34375 Z M 19.824219 21.390625 L 20.167969 21.589844 L 20.167969 21.582031 L 20.160156 21.59375 L 20.15625 21.601562 L 20.148438 21.613281 L 20.136719 21.628906 L 20.128906 21.640625 L 20.121094 21.644531 L 20.117188 21.652344 L 20.105469 21.65625 L 20.097656 21.664062 L 20.085938 21.667969 L 20.070312 21.679688 L 20.0625 21.6875 L 20.050781 21.691406 L 20.039062 21.699219 L 20.027344 21.703125 L 20.011719 21.703125 L 19.910156 21.324219 L 19.898438 21.324219 L 19.894531 21.332031 L 19.886719 21.335938 L 19.875 21.34375 L 19.871094 21.347656 L 19.863281 21.347656 L 19.859375 21.355469 L 19.851562 21.359375 L 19.847656 21.367188 L 19.835938 21.378906 L 19.832031 21.390625 L 19.824219 21.394531 L 19.824219 21.402344 L 19.820312 21.40625 L 19.820312 21.402344 Z M 19.824219 21.394531 L 19.824219 21.390625 L 19.820312 21.394531 Z M 20.332031 21.304688 L 20.167969 21.589844 L 19.824219 21.390625 L 19.988281 21.105469 L 19.988281 21.097656 L 20.324219 21.296875 Z M 19.988281 21.105469 L 19.988281 21.09375 L 19.980469 21.097656 Z M 20.023438 21.234375 L 20.21875 20.894531 L 20.230469 20.902344 L 20.242188 20.90625 L 20.253906 20.917969 L 20.265625 20.925781 L 20.300781 20.960938 L 20.308594 20.972656 L 20.3125 20.984375 L 20.320312 20.996094 L 20.324219 21.007812 L 20.332031 21.019531 L 20.335938 21.03125 L 20.34375 21.039062 L 20.347656 21.058594 L 20.355469 21.074219 L 20.355469 21.210938 L 20.347656 21.226562 L 20.347656 21.238281 L 20.34375 21.257812 L 20.335938 21.273438 L 20.332031 21.292969 L 20.324219 21.304688 L 20.320312 21.316406 L 19.980469 21.109375 L 19.980469 21.117188 L 19.976562 21.128906 L 19.976562 21.203125 L 19.980469 21.210938 L 19.980469 21.214844 L 20 21.234375 Z M 20.21875 20.894531 L 20.214844 20.890625 L 20.21875 20.890625 Z M 20.21875 20.894531 "/>
<path style="fill-rule:nonzero;fill:rgb(92.941176%,41.176471%,36.078431%);fill-opacity:1;stroke-width:1;stroke-linecap:butt;stroke-linejoin:miter;stroke:rgb(92.941176%,41.176471%,36.078431%);stroke-opacity:1;stroke-miterlimit:22.9256;" d="M 31.757803 26.898581 C 31.811493 26.979117 31.918874 27.012673 31.999409 26.958983 L 34.56312 25.4825 C 34.636944 25.42881 34.670501 25.321429 34.61681 25.240894 L 34.341648 24.75097 C 34.321514 24.710702 34.281246 24.677146 34.227556 24.670435 C 34.207422 24.670435 34.200711 24.657012 34.187288 24.657012 C 34.160443 24.657012 34.126886 24.670435 34.100041 24.677146 L 31.543042 26.16034 C 31.502774 26.180474 31.469217 26.220742 31.462506 26.267721 C 31.449084 26.321411 31.449084 26.361679 31.48264 26.401946 L 31.757803 26.89187 Z M 31.757803 26.898581 " transform="matrix(0.582042,0,0,0.582042,0,0.000145901)"/>
<path style=" stroke:none;fill-rule:nonzero;fill:rgb(92.941176%,41.176471%,36.078431%);fill-opacity:1;" d="M 18.484375 15.65625 C 18.515625 15.703125 18.578125 15.722656 18.625 15.691406 L 20.117188 14.832031 C 20.160156 14.800781 20.179688 14.738281 20.148438 14.691406 L 19.988281 14.40625 C 19.976562 14.382812 19.953125 14.363281 19.921875 14.359375 C 19.910156 14.359375 19.90625 14.351562 19.898438 14.351562 C 19.882812 14.351562 19.863281 14.359375 19.847656 14.363281 L 18.359375 15.226562 C 18.335938 15.238281 18.316406 15.261719 18.3125 15.289062 C 18.304688 15.320312 18.304688 15.34375 18.324219 15.367188 L 18.484375 15.652344 Z M 18.484375 15.65625 "/>
<path style=" stroke:none;fill-rule:nonzero;fill:rgb(92.941176%,41.176471%,36.078431%);fill-opacity:1;" d="M 18.527344 15.523438 L 18.722656 15.859375 L 18.710938 15.867188 L 18.699219 15.871094 L 18.683594 15.878906 L 18.667969 15.882812 L 18.648438 15.890625 L 18.636719 15.894531 L 18.621094 15.902344 L 18.515625 15.902344 L 18.496094 15.894531 L 18.480469 15.890625 L 18.46875 15.882812 L 18.449219 15.878906 L 18.425781 15.867188 L 18.414062 15.859375 L 18.398438 15.847656 L 18.386719 15.84375 L 18.375 15.835938 L 18.363281 15.832031 L 18.328125 15.796875 L 18.324219 15.789062 L 18.3125 15.777344 L 18.300781 15.761719 L 18.292969 15.75 L 18.632812 15.550781 L 18.625 15.546875 L 18.621094 15.539062 L 18.613281 15.535156 L 18.609375 15.527344 L 18.601562 15.523438 L 18.527344 15.523438 L 18.519531 15.527344 L 18.507812 15.527344 Z M 18.527344 15.523438 L 18.53125 15.515625 L 18.519531 15.523438 Z M 20.214844 15 L 18.722656 15.859375 L 18.527344 15.523438 L 20.015625 14.660156 Z M 20.214844 15 L 20.207031 15 L 20.214844 14.992188 Z M 19.980469 14.789062 L 20.324219 14.59375 L 20.324219 14.585938 L 20.332031 14.597656 L 20.335938 14.609375 L 20.34375 14.625 L 20.347656 14.644531 L 20.355469 14.660156 L 20.355469 14.671875 L 20.359375 14.691406 L 20.359375 14.824219 L 20.355469 14.84375 L 20.347656 14.859375 L 20.34375 14.871094 L 20.335938 14.882812 L 20.332031 14.894531 L 20.324219 14.90625 L 20.320312 14.917969 L 20.3125 14.929688 L 20.308594 14.941406 L 20.273438 14.976562 L 20.261719 14.980469 L 20.25 14.992188 L 20.238281 15 L 20.226562 15.003906 L 20.023438 14.667969 L 20.015625 14.667969 L 20 14.683594 L 20 14.691406 L 19.992188 14.695312 L 19.992188 14.773438 L 20 14.785156 L 20 14.789062 L 20 14.785156 Z M 19.980469 14.796875 L 19.980469 14.789062 L 19.988281 14.796875 L 19.988281 14.789062 Z M 20.15625 14.3125 L 20.320312 14.597656 L 19.976562 14.796875 L 19.8125 14.511719 L 19.8125 14.503906 Z M 19.8125 14.511719 L 19.8125 14.503906 L 19.820312 14.515625 Z M 19.875 14.558594 L 19.96875 14.179688 L 19.988281 14.179688 L 20 14.183594 L 20.011719 14.191406 L 20.027344 14.195312 L 20.039062 14.203125 L 20.046875 14.207031 L 20.058594 14.214844 L 20.0625 14.21875 L 20.074219 14.226562 L 20.082031 14.230469 L 20.085938 14.238281 L 20.09375 14.242188 L 20.097656 14.25 L 20.105469 14.253906 L 20.105469 14.261719 L 20.117188 14.273438 L 20.121094 14.285156 L 20.121094 14.277344 L 20.128906 14.285156 L 20.132812 14.296875 L 19.789062 14.480469 L 19.796875 14.488281 L 19.796875 14.492188 L 19.789062 14.488281 L 19.796875 14.492188 L 19.800781 14.503906 L 19.835938 14.539062 L 19.84375 14.539062 L 19.847656 14.546875 L 19.851562 14.546875 L 19.859375 14.550781 L 19.871094 14.558594 L 19.875 14.5625 L 19.886719 14.5625 Z M 19.96875 14.179688 L 20.023438 14.191406 Z M 19.894531 14.5625 L 19.894531 14.167969 L 19.929688 14.171875 L 19.933594 14.171875 L 19.894531 14.167969 L 19.933594 14.171875 L 19.929688 14.171875 L 19.898438 14.167969 L 19.941406 14.171875 L 19.933594 14.171875 L 19.941406 14.171875 L 19.898438 14.167969 L 19.933594 14.171875 L 19.941406 14.171875 L 19.933594 14.171875 L 19.964844 14.179688 L 19.933594 14.171875 L 19.941406 14.171875 L 19.933594 14.171875 L 19.964844 14.179688 L 19.933594 14.171875 L 19.953125 14.179688 L 19.859375 14.558594 L 19.871094 14.5625 L 19.84375 14.558594 L 19.871094 14.5625 L 19.863281 14.5625 L 19.871094 14.5625 L 19.84375 14.558594 L 19.871094 14.5625 L 19.863281 14.5625 L 19.871094 14.5625 L 19.898438 14.570312 L 19.859375 14.5625 L 19.863281 14.5625 L 19.859375 14.5625 L 19.894531 14.570312 L 19.859375 14.5625 L 19.851562 14.5625 L 19.894531 14.570312 L 19.851562 14.5625 L 19.859375 14.5625 L 19.886719 14.570312 Z M 19.941406 14.550781 L 19.742188 14.214844 L 19.753906 14.207031 L 19.742188 14.214844 L 19.761719 14.207031 L 19.765625 14.203125 L 19.785156 14.195312 L 19.765625 14.203125 L 19.789062 14.191406 L 19.785156 14.191406 L 19.808594 14.183594 L 19.796875 14.191406 L 19.8125 14.183594 L 19.832031 14.179688 L 19.820312 14.179688 L 19.835938 14.171875 L 19.859375 14.171875 L 19.847656 14.171875 L 19.882812 14.171875 L 19.882812 14.570312 L 19.898438 14.570312 L 19.894531 14.570312 L 19.90625 14.570312 L 19.886719 14.570312 L 19.898438 14.570312 L 19.917969 14.5625 L 19.910156 14.5625 L 19.898438 14.570312 L 19.917969 14.5625 L 19.929688 14.558594 L 19.910156 14.5625 L 19.929688 14.558594 L 19.921875 14.5625 L 19.941406 14.558594 L 19.917969 14.570312 L 19.929688 14.5625 L 19.933594 14.5625 L 19.945312 14.558594 L 19.929688 14.5625 Z M 19.742188 14.214844 L 19.761719 14.203125 Z M 18.253906 15.074219 L 19.742188 14.214844 L 19.941406 14.550781 L 18.449219 15.414062 L 18.253906 15.070312 Z M 18.449219 15.414062 L 18.28125 15.511719 Z M 18.496094 15.355469 L 18.117188 15.253906 L 18.117188 15.242188 L 18.125 15.230469 L 18.128906 15.21875 L 18.136719 15.214844 L 18.140625 15.207031 L 18.148438 15.203125 L 18.152344 15.195312 L 18.152344 15.203125 L 18.160156 15.191406 L 18.171875 15.175781 L 18.175781 15.167969 L 18.183594 15.15625 L 18.195312 15.144531 L 18.1875 15.152344 L 18.207031 15.132812 L 18.21875 15.128906 L 18.222656 15.121094 L 18.230469 15.117188 L 18.242188 15.109375 L 18.246094 15.105469 L 18.445312 15.449219 L 18.449219 15.441406 L 18.460938 15.441406 L 18.46875 15.4375 L 18.472656 15.429688 L 18.484375 15.417969 L 18.480469 15.425781 L 18.492188 15.414062 L 18.496094 15.40625 L 18.496094 15.402344 L 18.503906 15.390625 L 18.507812 15.382812 L 18.503906 15.390625 L 18.503906 15.382812 L 18.507812 15.378906 L 18.507812 15.367188 Z M 18.117188 15.253906 Z M 18.492188 15.285156 L 18.148438 15.484375 L 18.152344 15.488281 L 18.152344 15.484375 L 18.148438 15.464844 L 18.140625 15.453125 L 18.136719 15.449219 L 18.140625 15.453125 L 18.125 15.40625 L 18.125 15.285156 L 18.503906 15.382812 L 18.503906 15.324219 L 18.503906 15.332031 L 18.503906 15.3125 L 18.503906 15.320312 L 18.496094 15.300781 L 18.496094 15.296875 L 18.503906 15.308594 L 18.503906 15.300781 L 18.496094 15.296875 L 18.492188 15.285156 L 18.496094 15.289062 Z M 18.484375 15.277344 L 18.492188 15.285156 Z M 18.3125 15.761719 L 18.148438 15.476562 L 18.492188 15.277344 L 18.65625 15.5625 Z M 18.3125 15.761719 L 18.316406 15.773438 Z M 18.3125 15.761719 "/>
<path style="fill-rule:nonzero;fill:rgb(92.941176%,41.176471%,36.078431%);fill-opacity:1;stroke-width:1;stroke-linecap:butt;stroke-linejoin:miter;stroke:rgb(92.941176%,41.176471%,36.078431%);stroke-opacity:1;stroke-miterlimit:22.9256;" d="M 29.529656 39.032585 C 29.509522 38.999029 29.482677 38.992318 29.449121 38.992318 C 29.442409 38.992318 29.422275 38.992318 29.408853 38.999029 L 28.918929 39.280903 C 28.878661 39.307748 28.87195 39.361438 28.892084 39.401706 L 29.697438 40.797654 C 29.710861 40.817787 29.730994 40.83121 29.751128 40.837921 C 29.771262 40.851344 29.798107 40.837921 29.818241 40.83121 L 30.308165 40.549336 C 30.328299 40.542625 30.348433 40.522491 30.348433 40.502357 C 30.348433 40.482223 30.348433 40.448667 30.341721 40.428533 Z M 29.529656 39.032585 " transform="matrix(0.582042,0,0,0.582042,0,0.000145901)"/>
<path style=" stroke:none;fill-rule:nonzero;fill:rgb(92.941176%,41.176471%,36.078431%);fill-opacity:1;" d="M 17.1875 22.71875 C 17.175781 22.699219 17.160156 22.695312 17.140625 22.695312 C 17.136719 22.695312 17.125 22.695312 17.117188 22.699219 L 16.832031 22.863281 C 16.808594 22.878906 16.804688 22.910156 16.816406 22.933594 L 17.285156 23.746094 C 17.292969 23.757812 17.304688 23.765625 17.316406 23.769531 C 17.328125 23.777344 17.34375 23.769531 17.355469 23.765625 L 17.640625 23.601562 C 17.652344 23.597656 17.664062 23.585938 17.664062 23.574219 C 17.664062 23.5625 17.664062 23.542969 17.660156 23.53125 Z M 17.1875 22.71875 "/>
<path style=" stroke:none;fill-rule:nonzero;fill:rgb(92.941176%,41.176471%,36.078431%);fill-opacity:1;" d="M 17.140625 22.886719 L 17.140625 22.492188 L 17.183594 22.492188 L 17.207031 22.496094 L 17.238281 22.511719 L 17.222656 22.507812 L 17.238281 22.511719 L 17.261719 22.523438 L 17.273438 22.53125 L 17.269531 22.523438 L 17.28125 22.53125 L 17.339844 22.589844 L 17.34375 22.601562 L 17.351562 22.613281 L 17.351562 22.617188 L 17.011719 22.816406 L 17.019531 22.828125 L 17.046875 22.855469 L 17.058594 22.863281 L 17.066406 22.867188 L 17.054688 22.863281 L 17.058594 22.867188 L 17.078125 22.878906 L 17.089844 22.886719 L 17.066406 22.875 L 17.101562 22.886719 L 17.117188 22.890625 L 17.148438 22.890625 Z M 17.214844 22.867188 L 17.019531 22.523438 L 17.011719 22.523438 L 17.042969 22.511719 L 17.03125 22.519531 L 17.019531 22.523438 L 17.046875 22.511719 L 17.019531 22.523438 L 17.058594 22.507812 L 17.046875 22.511719 L 17.089844 22.5 L 17.082031 22.5 L 17.046875 22.511719 L 17.082031 22.5 L 17.058594 22.507812 L 17.089844 22.5 L 17.082031 22.5 L 17.125 22.496094 L 17.089844 22.5 L 17.128906 22.496094 L 17.089844 22.5 L 17.128906 22.496094 L 17.128906 22.890625 L 17.171875 22.886719 L 17.128906 22.890625 L 17.164062 22.886719 L 17.125 22.890625 L 17.160156 22.886719 L 17.152344 22.886719 L 17.183594 22.878906 L 17.160156 22.886719 L 17.195312 22.875 L 17.160156 22.886719 L 17.152344 22.886719 L 17.195312 22.875 L 17.183594 22.878906 L 17.222656 22.863281 L 17.195312 22.875 L 17.222656 22.863281 L 17.210938 22.867188 L 17.195312 22.875 L 17.222656 22.863281 L 17.214844 22.863281 Z M 17.222656 22.867188 L 17.214844 22.867188 Z M 16.738281 22.695312 L 17.023438 22.53125 L 17.222656 22.875 L 16.9375 23.039062 L 16.734375 22.699219 Z M 16.734375 22.699219 L 16.738281 22.699219 L 16.734375 22.707031 Z M 16.988281 22.839844 L 16.652344 23.039062 L 16.644531 23.03125 L 16.640625 23.015625 L 16.632812 23.003906 L 16.628906 22.980469 L 16.628906 22.878906 L 16.632812 22.867188 L 16.640625 22.855469 L 16.644531 22.84375 L 16.664062 22.804688 L 16.667969 22.792969 L 16.675781 22.785156 L 16.679688 22.777344 L 16.710938 22.746094 L 16.726562 22.734375 L 16.734375 22.730469 L 16.941406 23.0625 L 16.953125 23.054688 L 16.960938 23.050781 L 16.976562 23.03125 L 16.984375 23.027344 L 16.988281 23.019531 L 16.988281 23.015625 L 16.996094 23.007812 L 17.007812 22.984375 L 17.011719 22.972656 L 17.011719 22.867188 L 17.007812 22.851562 L 17 22.84375 L 16.996094 22.832031 L 16.988281 22.828125 Z M 16.652344 23.039062 L 16.644531 23.03125 Z M 17.125 23.851562 L 16.652344 23.039062 L 16.988281 22.839844 L 17.460938 23.65625 L 17.117188 23.851562 Z M 17.460938 23.65625 L 17.46875 23.664062 Z M 17.378906 23.589844 L 17.269531 23.96875 L 17.25 23.960938 L 17.234375 23.949219 L 17.25 23.957031 L 17.222656 23.945312 L 17.207031 23.933594 L 17.222656 23.945312 L 17.207031 23.933594 L 17.171875 23.898438 L 17.160156 23.882812 L 17.164062 23.894531 L 17.152344 23.882812 L 17.148438 23.871094 L 17.152344 23.882812 L 17.148438 23.871094 L 17.140625 23.863281 L 17.484375 23.671875 L 17.480469 23.664062 L 17.472656 23.65625 L 17.480469 23.664062 L 17.472656 23.65625 L 17.46875 23.644531 L 17.480469 23.65625 L 17.445312 23.621094 L 17.433594 23.613281 L 17.414062 23.601562 L 17.433594 23.613281 L 17.414062 23.601562 L 17.386719 23.589844 L 17.402344 23.601562 L 17.386719 23.597656 L 17.375 23.589844 Z M 17.378906 23.589844 L 17.386719 23.589844 Z M 17.261719 23.601562 L 17.460938 23.941406 L 17.449219 23.945312 L 17.457031 23.941406 L 17.421875 23.957031 L 17.445312 23.945312 L 17.425781 23.957031 L 17.402344 23.960938 L 17.414062 23.957031 L 17.375 23.96875 L 17.367188 23.96875 L 17.386719 23.960938 L 17.390625 23.960938 L 17.363281 23.96875 L 17.339844 23.96875 L 17.363281 23.96875 L 17.308594 23.96875 L 17.328125 23.96875 L 17.304688 23.96875 L 17.28125 23.960938 L 17.285156 23.960938 L 17.269531 23.960938 L 17.378906 23.585938 L 17.367188 23.585938 L 17.375 23.585938 L 17.351562 23.578125 L 17.328125 23.578125 L 17.355469 23.578125 L 17.316406 23.578125 L 17.339844 23.578125 L 17.320312 23.578125 L 17.296875 23.585938 L 17.304688 23.585938 L 17.328125 23.578125 L 17.292969 23.585938 L 17.308594 23.578125 L 17.292969 23.585938 L 17.273438 23.589844 L 17.304688 23.578125 L 17.269531 23.597656 L 17.28125 23.589844 L 17.269531 23.597656 Z M 17.460938 23.941406 L 17.414062 23.960938 Z M 17.746094 23.777344 L 17.460938 23.941406 L 17.261719 23.601562 L 17.546875 23.4375 L 17.554688 23.433594 Z M 17.546875 23.4375 L 17.554688 23.433594 L 17.546875 23.433594 Z M 17.480469 23.542969 L 17.863281 23.613281 L 17.855469 23.632812 L 17.851562 23.644531 L 17.851562 23.648438 L 17.839844 23.664062 L 17.832031 23.675781 L 17.820312 23.695312 L 17.828125 23.683594 L 17.820312 23.695312 L 17.808594 23.707031 L 17.816406 23.695312 L 17.804688 23.710938 L 17.78125 23.734375 L 17.777344 23.734375 L 17.757812 23.753906 L 17.765625 23.746094 L 17.753906 23.753906 L 17.746094 23.757812 L 17.742188 23.765625 L 17.558594 23.414062 L 17.554688 23.414062 L 17.546875 23.421875 L 17.535156 23.425781 L 17.542969 23.421875 L 17.535156 23.425781 L 17.523438 23.433594 L 17.511719 23.445312 L 17.503906 23.457031 L 17.503906 23.449219 L 17.492188 23.460938 L 17.503906 23.449219 L 17.496094 23.460938 L 17.492188 23.472656 L 17.496094 23.460938 L 17.484375 23.480469 L 17.480469 23.484375 L 17.472656 23.503906 L 17.472656 23.515625 L 17.46875 23.53125 Z M 17.863281 23.613281 L 17.863281 23.632812 L 17.867188 23.613281 Z M 17.496094 23.636719 L 17.832031 23.4375 L 17.839844 23.449219 L 17.851562 23.46875 L 17.855469 23.492188 L 17.855469 23.496094 L 17.855469 23.492188 L 17.863281 23.515625 L 17.863281 23.542969 L 17.863281 23.519531 L 17.863281 23.574219 L 17.863281 23.550781 L 17.863281 23.589844 L 17.480469 23.519531 L 17.480469 23.53125 L 17.480469 23.527344 L 17.480469 23.550781 L 17.480469 23.527344 L 17.480469 23.566406 L 17.480469 23.542969 L 17.480469 23.566406 L 17.484375 23.589844 L 17.484375 23.585938 L 17.484375 23.589844 L 17.492188 23.609375 L 17.496094 23.625 L 17.503906 23.632812 Z M 17.832031 23.4375 Z M 17.363281 22.625 L 17.832031 23.4375 L 17.496094 23.636719 L 17.023438 22.820312 Z M 17.363281 22.625 L 17.355469 22.613281 Z M 17.363281 22.625 "/>
<path style="fill-rule:nonzero;fill:rgb(92.941176%,41.176471%,36.078431%);fill-opacity:1;stroke-width:1;stroke-linecap:butt;stroke-linejoin:miter;stroke:rgb(92.941176%,41.176471%,36.078431%);stroke-opacity:1;stroke-miterlimit:22.9256;" d="M 33.871858 30.562943 L 33.871858 31.11998 C 33.871858 31.220649 33.952393 31.301185 34.03964 31.301185 L 35.650348 31.301185 C 35.751018 31.301185 35.831553 31.220649 35.831553 31.11998 L 35.831553 30.562943 C 35.831553 30.462274 35.751018 30.38845 35.650348 30.38845 L 34.03964 30.38845 C 33.93897 30.38845 33.871858 30.468985 33.871858 30.562943 Z M 33.871858 30.562943 " transform="matrix(0.582042,0,0,0.582042,0,0.000145901)"/>
<path style=" stroke:none;fill-rule:nonzero;fill:rgb(92.941176%,41.176471%,36.078431%);fill-opacity:1;" d="M 14.453125 23.375 L 14.125 23.375 C 14.066406 23.375 14.027344 23.421875 14.027344 23.472656 L 14.027344 24.410156 C 14.027344 24.46875 14.074219 24.515625 14.125 24.515625 L 14.453125 24.515625 C 14.511719 24.515625 14.558594 24.46875 14.558594 24.410156 L 14.558594 23.472656 C 14.558594 23.414062 14.511719 23.375 14.453125 23.375 Z M 14.453125 23.375 "/>
<path style=" stroke:none;fill-rule:nonzero;fill:rgb(92.941176%,41.176471%,36.078431%);fill-opacity:1;" d="M 14.453125 23.375 L 14.125 23.375 C 14.066406 23.375 14.027344 23.421875 14.027344 23.472656 L 14.027344 24.410156 C 14.027344 24.46875 14.074219 24.515625 14.125 24.515625 L 14.453125 24.515625 C 14.511719 24.515625 14.558594 24.46875 14.558594 24.410156 L 14.558594 23.472656 C 14.558594 23.414062 14.511719 23.375 14.453125 23.375 Z M 14.453125 23.375 "/>
<path style=" stroke:none;fill-rule:nonzero;fill:rgb(92.941176%,41.176471%,36.078431%);fill-opacity:1;" d="M 14.125 23.175781 L 14.453125 23.175781 L 14.453125 23.574219 L 14.125 23.574219 Z M 14.226562 23.472656 L 13.828125 23.472656 L 13.828125 23.425781 L 13.835938 23.410156 L 13.835938 23.398438 L 13.839844 23.378906 L 13.847656 23.363281 L 13.851562 23.351562 L 13.859375 23.339844 L 13.863281 23.328125 L 13.871094 23.3125 L 13.882812 23.292969 L 13.886719 23.28125 L 13.894531 23.277344 L 13.898438 23.265625 L 13.945312 23.21875 L 13.957031 23.210938 L 13.96875 23.207031 L 13.988281 23.195312 L 14 23.1875 L 14.007812 23.183594 L 14.019531 23.175781 L 14.039062 23.171875 L 14.054688 23.164062 L 14.132812 23.164062 L 14.132812 23.5625 L 14.167969 23.5625 L 14.171875 23.554688 L 14.179688 23.550781 L 14.183594 23.542969 L 14.191406 23.542969 L 14.195312 23.539062 L 14.195312 23.53125 L 14.203125 23.519531 L 14.207031 23.515625 L 14.207031 23.480469 Z M 13.828125 24.410156 L 13.828125 23.472656 L 14.226562 23.472656 L 14.226562 24.410156 Z M 14.125 24.316406 L 14.125 24.714844 L 14.0625 24.714844 L 14.042969 24.707031 L 14.027344 24.703125 L 14.015625 24.695312 L 14.003906 24.691406 L 13.988281 24.683594 L 13.976562 24.679688 L 13.964844 24.671875 L 13.953125 24.667969 L 13.894531 24.609375 L 13.886719 24.597656 L 13.882812 24.585938 L 13.871094 24.566406 L 13.863281 24.550781 L 13.859375 24.539062 L 13.851562 24.527344 L 13.847656 24.515625 L 13.839844 24.5 L 13.835938 24.480469 L 13.835938 24.40625 L 14.230469 24.40625 L 14.230469 24.371094 L 14.226562 24.363281 L 14.21875 24.359375 L 14.214844 24.351562 L 14.207031 24.347656 L 14.203125 24.339844 L 14.195312 24.335938 L 14.191406 24.328125 L 14.183594 24.328125 L 14.179688 24.324219 L 14.148438 24.324219 Z M 14.453125 24.714844 L 14.125 24.714844 L 14.125 24.316406 L 14.453125 24.316406 Z M 14.359375 24.417969 L 14.753906 24.417969 L 14.753906 24.480469 L 14.75 24.5 L 14.742188 24.511719 L 14.738281 24.527344 L 14.730469 24.542969 L 14.726562 24.554688 L 14.71875 24.566406 L 14.714844 24.578125 L 14.703125 24.597656 L 14.691406 24.609375 L 14.683594 24.621094 L 14.648438 24.65625 L 14.636719 24.660156 L 14.632812 24.667969 L 14.621094 24.679688 L 14.601562 24.691406 L 14.589844 24.695312 L 14.582031 24.703125 L 14.570312 24.707031 L 14.558594 24.714844 L 14.546875 24.71875 L 14.527344 24.726562 L 14.511719 24.730469 L 14.492188 24.738281 L 14.445312 24.738281 L 14.445312 24.339844 L 14.40625 24.339844 L 14.382812 24.363281 L 14.386719 24.359375 L 14.371094 24.375 L 14.371094 24.40625 Z M 14.753906 23.480469 L 14.753906 24.417969 L 14.359375 24.417969 L 14.359375 23.480469 Z M 14.457031 23.574219 L 14.457031 23.175781 L 14.503906 23.175781 L 14.523438 23.183594 L 14.535156 23.183594 L 14.550781 23.1875 L 14.570312 23.195312 L 14.582031 23.199219 L 14.589844 23.207031 L 14.601562 23.210938 L 14.621094 23.21875 L 14.636719 23.230469 L 14.648438 23.234375 L 14.714844 23.300781 L 14.726562 23.316406 L 14.730469 23.328125 L 14.738281 23.339844 L 14.742188 23.351562 L 14.75 23.367188 L 14.753906 23.386719 L 14.761719 23.398438 L 14.765625 23.414062 L 14.773438 23.433594 L 14.773438 23.480469 L 14.375 23.480469 L 14.375 23.507812 L 14.382812 23.515625 L 14.386719 23.527344 L 14.394531 23.53125 L 14.398438 23.539062 L 14.40625 23.542969 L 14.410156 23.550781 L 14.417969 23.550781 L 14.429688 23.5625 L 14.457031 23.5625 Z M 14.457031 23.574219 "/>
<path style="fill-rule:nonzero;fill:rgb(92.941176%,41.176471%,36.078431%);fill-opacity:1;stroke-width:1;stroke-linecap:butt;stroke-linejoin:miter;stroke:rgb(92.941176%,41.176471%,36.078431%);stroke-opacity:1;stroke-miterlimit:22.9256;" d="M 24.268008 21.522842 L 24.831756 21.522842 C 24.932425 21.522842 25.012961 21.442306 25.012961 21.341637 L 25.012961 19.730929 C 25.012961 19.630259 24.932425 19.563146 24.831756 19.563146 L 24.268008 19.563146 C 24.167339 19.563146 24.100226 19.636971 24.100226 19.730929 L 24.100226 21.341637 C 24.100226 21.442306 24.180761 21.522842 24.268008 21.522842 Z M 24.268008 21.522842 " transform="matrix(0.582042,0,0,0.582042,0,0.000145901)"/>
<path style=" stroke:none;fill-rule:nonzero;fill:rgb(92.941176%,41.176471%,36.078431%);fill-opacity:1;" d="M 14.125 12.527344 L 14.453125 12.527344 C 14.511719 12.527344 14.558594 12.480469 14.558594 12.421875 L 14.558594 11.484375 C 14.558594 11.425781 14.511719 11.386719 14.453125 11.386719 L 14.125 11.386719 C 14.066406 11.386719 14.027344 11.429688 14.027344 11.484375 L 14.027344 12.421875 C 14.027344 12.480469 14.074219 12.527344 14.125 12.527344 Z M 14.125 12.527344 "/>
<path style=" stroke:none;fill-rule:nonzero;fill:rgb(92.941176%,41.176471%,36.078431%);fill-opacity:1;" d="M 14.453125 12.722656 L 14.125 12.722656 L 14.125 12.328125 L 14.453125 12.328125 Z M 14.359375 12.425781 L 14.753906 12.425781 L 14.753906 12.492188 L 14.75 12.507812 L 14.742188 12.519531 L 14.738281 12.539062 L 14.730469 12.554688 L 14.726562 12.566406 L 14.71875 12.578125 L 14.714844 12.589844 L 14.703125 12.605469 L 14.691406 12.617188 L 14.683594 12.628906 L 14.679688 12.636719 L 14.667969 12.648438 L 14.648438 12.664062 L 14.636719 12.671875 L 14.621094 12.6875 L 14.601562 12.699219 L 14.589844 12.707031 L 14.582031 12.710938 L 14.570312 12.71875 L 14.558594 12.722656 L 14.546875 12.730469 L 14.527344 12.734375 L 14.511719 12.742188 L 14.492188 12.746094 L 14.445312 12.746094 L 14.445312 12.351562 L 14.40625 12.351562 L 14.398438 12.355469 L 14.394531 12.363281 L 14.386719 12.367188 L 14.382812 12.375 L 14.386719 12.367188 L 14.382812 12.375 L 14.375 12.378906 L 14.371094 12.386719 L 14.371094 12.414062 Z M 14.753906 11.488281 L 14.753906 12.425781 L 14.359375 12.425781 L 14.359375 11.488281 Z M 14.457031 11.589844 L 14.457031 11.191406 L 14.503906 11.191406 L 14.523438 11.199219 L 14.535156 11.199219 L 14.550781 11.203125 L 14.570312 11.210938 L 14.582031 11.214844 L 14.589844 11.222656 L 14.601562 11.226562 L 14.621094 11.234375 L 14.636719 11.246094 L 14.648438 11.25 L 14.71875 11.320312 L 14.726562 11.332031 L 14.730469 11.34375 L 14.738281 11.355469 L 14.742188 11.367188 L 14.75 11.386719 L 14.753906 11.402344 L 14.761719 11.414062 L 14.765625 11.429688 L 14.765625 11.496094 L 14.371094 11.496094 L 14.371094 11.523438 L 14.375 11.53125 L 14.375 11.535156 L 14.40625 11.566406 L 14.410156 11.566406 L 14.417969 11.570312 L 14.421875 11.578125 L 14.453125 11.578125 Z M 14.132812 11.191406 L 14.457031 11.191406 L 14.457031 11.589844 L 14.132812 11.589844 Z M 14.230469 11.488281 L 13.835938 11.488281 L 13.835938 11.414062 L 13.839844 11.398438 L 13.847656 11.378906 L 13.851562 11.367188 L 13.859375 11.355469 L 13.863281 11.34375 L 13.875 11.328125 L 13.882812 11.316406 L 13.886719 11.304688 L 13.957031 11.234375 L 13.96875 11.226562 L 13.980469 11.222656 L 14 11.210938 L 14.007812 11.203125 L 14.019531 11.199219 L 14.03125 11.191406 L 14.050781 11.1875 L 14.066406 11.179688 L 14.144531 11.179688 L 14.144531 11.578125 L 14.179688 11.578125 L 14.183594 11.570312 L 14.191406 11.566406 L 14.195312 11.558594 L 14.203125 11.558594 L 14.203125 11.554688 L 14.207031 11.546875 L 14.214844 11.542969 L 14.21875 11.535156 L 14.21875 11.5 Z M 13.835938 12.425781 L 13.835938 11.488281 L 14.230469 11.488281 L 14.230469 12.425781 Z M 14.132812 12.332031 L 14.132812 12.730469 L 14.066406 12.730469 L 14.050781 12.722656 L 14.03125 12.71875 L 14.019531 12.710938 L 14.007812 12.707031 L 13.992188 12.699219 L 13.980469 12.695312 L 13.96875 12.6875 L 13.957031 12.683594 L 13.933594 12.660156 L 13.929688 12.652344 L 13.90625 12.628906 L 13.898438 12.625 L 13.894531 12.613281 L 13.886719 12.601562 L 13.875 12.582031 L 13.871094 12.566406 L 13.863281 12.554688 L 13.859375 12.542969 L 13.851562 12.53125 L 13.847656 12.515625 L 13.839844 12.496094 L 13.839844 12.421875 L 14.238281 12.421875 L 14.238281 12.386719 L 14.195312 12.34375 L 14.191406 12.34375 L 14.183594 12.339844 L 14.15625 12.339844 Z M 14.132812 12.332031 "/>
<path style="fill-rule:nonzero;fill:rgb(92.941176%,41.176471%,36.078431%);fill-opacity:1;stroke-width:1;stroke-linecap:butt;stroke-linejoin:miter;stroke:rgb(92.941176%,41.176471%,36.078431%);stroke-opacity:1;stroke-miterlimit:22.9256;" d="M 28.918929 22.40202 L 29.408853 22.677183 C 29.449121 22.697317 29.509522 22.690605 29.529656 22.650338 L 30.341721 21.247679 C 30.368567 21.207411 30.348433 21.14701 30.308165 21.126876 L 29.818241 20.851713 C 29.81153 20.838291 29.791396 20.838291 29.777973 20.838291 C 29.771262 20.838291 29.75784 20.838291 29.75784 20.838291 C 29.737706 20.851713 29.717572 20.858424 29.710861 20.878558 L 28.898795 22.281217 C 28.892084 22.301351 28.892084 22.321485 28.892084 22.34833 C 28.892084 22.368464 28.912218 22.388598 28.932352 22.40202 Z M 28.918929 22.40202 " transform="matrix(0.582042,0,0,0.582042,0,0.000145901)"/>
<path style=" stroke:none;fill-rule:nonzero;fill:rgb(92.941176%,41.176471%,36.078431%);fill-opacity:1;" d="M 16.832031 13.039062 L 17.117188 13.199219 C 17.140625 13.210938 17.175781 13.207031 17.1875 13.183594 L 17.660156 12.367188 C 17.675781 12.34375 17.664062 12.308594 17.640625 12.296875 L 17.355469 12.136719 C 17.351562 12.128906 17.339844 12.128906 17.332031 12.128906 C 17.328125 12.128906 17.320312 12.128906 17.320312 12.128906 C 17.308594 12.136719 17.296875 12.140625 17.292969 12.152344 L 16.820312 12.96875 C 16.816406 12.980469 16.816406 12.992188 16.816406 13.007812 C 16.816406 13.019531 16.828125 13.03125 16.839844 13.039062 Z M 16.832031 13.039062 "/>
<path style=" stroke:none;fill-rule:nonzero;fill:rgb(92.941176%,41.176471%,36.078431%);fill-opacity:1;" d="M 17.019531 13.371094 L 16.734375 13.207031 L 16.929688 12.867188 L 17.214844 13.03125 Z M 17.019531 13.371094 L 16.929688 13.316406 Z M 17.019531 13.085938 L 17.355469 13.28125 L 17.351562 13.292969 L 17.339844 13.3125 L 17.332031 13.316406 L 17.320312 13.328125 L 17.316406 13.335938 L 17.296875 13.347656 L 17.292969 13.351562 L 17.28125 13.359375 L 17.269531 13.363281 L 17.261719 13.371094 L 17.246094 13.375 L 17.210938 13.386719 L 17.195312 13.394531 L 17.113281 13.394531 L 17.101562 13.386719 L 17.078125 13.382812 L 17.058594 13.375 L 17.046875 13.371094 L 17.246094 13.03125 L 17.238281 13.027344 L 17.226562 13.019531 L 17.210938 13.015625 L 17.117188 13.015625 L 17.101562 13.019531 L 17.089844 13.027344 L 17.082031 13.027344 L 17.070312 13.039062 L 17.066406 13.039062 L 17.054688 13.050781 L 17.046875 13.054688 L 17.035156 13.066406 L 17.03125 13.074219 L 17.019531 13.085938 L 17.011719 13.089844 Z M 17.019531 13.085938 L 16.988281 13.132812 Z M 17.828125 12.46875 L 17.355469 13.28125 L 17.019531 13.085938 L 17.492188 12.269531 L 17.832031 12.46875 Z M 17.828125 12.46875 L 17.851562 12.425781 Z M 17.542969 12.46875 L 17.742188 12.125 L 17.734375 12.125 L 17.746094 12.128906 L 17.757812 12.136719 L 17.777344 12.148438 L 17.792969 12.164062 L 17.804688 12.183594 L 17.816406 12.207031 L 17.820312 12.21875 L 17.828125 12.230469 L 17.832031 12.242188 L 17.839844 12.257812 L 17.84375 12.277344 L 17.84375 12.386719 L 17.839844 12.402344 L 17.832031 12.421875 L 17.828125 12.425781 L 17.820312 12.445312 L 17.480469 12.246094 L 17.472656 12.257812 L 17.46875 12.269531 L 17.460938 12.28125 L 17.460938 12.363281 L 17.46875 12.375 L 17.472656 12.386719 L 17.480469 12.390625 L 17.484375 12.398438 L 17.492188 12.402344 L 17.503906 12.421875 L 17.511719 12.433594 L 17.519531 12.4375 L 17.53125 12.449219 L 17.542969 12.457031 L 17.546875 12.460938 L 17.558594 12.46875 Z M 17.546875 12.46875 L 17.542969 12.46875 Z M 17.457031 11.960938 L 17.742188 12.125 L 17.542969 12.46875 L 17.257812 12.304688 L 17.246094 12.296875 L 17.457031 11.96875 Z M 17.257812 12.304688 L 17.25 12.304688 L 17.246094 12.296875 Z M 17.332031 12.320312 L 17.332031 11.925781 L 17.367188 11.933594 L 17.375 11.933594 L 17.332031 11.925781 L 17.375 11.933594 L 17.367188 11.933594 L 17.375 11.933594 L 17.398438 11.9375 L 17.375 11.933594 L 17.398438 11.9375 L 17.410156 11.945312 L 17.398438 11.9375 L 17.410156 11.945312 L 17.398438 11.9375 L 17.425781 11.949219 L 17.4375 11.957031 L 17.410156 11.945312 L 17.425781 11.949219 L 17.4375 11.957031 L 17.449219 11.960938 L 17.445312 11.957031 L 17.457031 11.960938 L 17.234375 12.285156 L 17.238281 12.292969 L 17.226562 12.285156 L 17.234375 12.292969 L 17.246094 12.296875 L 17.257812 12.304688 L 17.226562 12.292969 L 17.238281 12.296875 L 17.261719 12.308594 L 17.25 12.304688 L 17.261719 12.308594 L 17.25 12.304688 L 17.285156 12.316406 L 17.261719 12.308594 L 17.285156 12.316406 L 17.292969 12.316406 L 17.285156 12.316406 L 17.320312 12.320312 L 17.28125 12.316406 L 17.285156 12.316406 L 17.316406 12.320312 Z M 17.363281 12.320312 L 17.273438 11.9375 L 17.261719 11.945312 L 17.234375 11.957031 L 17.257812 11.945312 L 17.234375 11.957031 L 17.320312 11.933594 L 17.257812 11.945312 L 17.320312 11.933594 L 17.257812 11.945312 L 17.234375 11.957031 L 17.257812 11.945312 L 17.320312 11.933594 L 17.234375 11.957031 L 17.257812 11.945312 L 17.320312 11.933594 L 17.257812 11.945312 L 17.320312 11.933594 L 17.257812 11.945312 L 17.320312 11.933594 L 17.257812 11.945312 L 17.320312 11.933594 L 17.320312 12.328125 L 17.386719 12.316406 L 17.320312 12.328125 L 17.386719 12.316406 L 17.320312 12.328125 L 17.386719 12.316406 L 17.320312 12.328125 L 17.386719 12.316406 L 17.410156 12.304688 L 17.320312 12.328125 L 17.386719 12.316406 L 17.410156 12.304688 L 17.386719 12.316406 L 17.320312 12.328125 L 17.386719 12.316406 L 17.320312 12.328125 L 17.410156 12.304688 L 17.386719 12.316406 L 17.410156 12.304688 L 17.378906 12.316406 L 17.367188 12.320312 Z M 17.375 12.316406 L 17.363281 12.316406 L 17.375 12.308594 Z M 17.457031 12.253906 L 17.117188 12.054688 L 17.117188 12.046875 L 17.128906 12.035156 L 17.125 12.046875 L 17.128906 12.035156 L 17.140625 12.019531 L 17.152344 12.007812 L 17.140625 12.019531 L 17.164062 11.996094 L 17.171875 11.996094 L 17.183594 11.984375 L 17.195312 11.980469 L 17.183594 11.984375 L 17.210938 11.96875 L 17.1875 11.984375 L 17.214844 11.96875 L 17.234375 11.957031 L 17.214844 11.960938 L 17.234375 11.949219 L 17.257812 11.945312 L 17.261719 11.945312 L 17.351562 12.328125 L 17.355469 12.328125 L 17.375 12.320312 L 17.390625 12.316406 L 17.375 12.328125 L 17.390625 12.320312 L 17.414062 12.304688 L 17.386719 12.320312 L 17.410156 12.304688 L 17.398438 12.308594 L 17.410156 12.304688 L 17.421875 12.296875 L 17.433594 12.285156 L 17.445312 12.277344 L 17.433594 12.285156 L 17.445312 12.277344 L 17.457031 12.265625 L 17.460938 12.253906 L 17.457031 12.265625 L 17.460938 12.253906 L 17.460938 12.246094 Z M 17.117188 12.054688 L 17.117188 12.046875 L 17.125 12.035156 L 17.117188 12.046875 Z M 16.644531 12.867188 L 17.117188 12.054688 L 17.457031 12.253906 L 16.984375 13.066406 L 16.640625 12.867188 Z M 16.644531 12.867188 L 16.625 12.910156 Z M 17.007812 12.96875 L 16.625 13.039062 L 16.628906 13.066406 L 16.617188 13.019531 L 16.625 13.042969 L 16.617188 13.019531 L 16.617188 12.996094 L 16.617188 13.019531 L 16.617188 12.972656 L 16.625 12.949219 L 16.628906 12.925781 L 16.640625 12.898438 L 16.632812 12.902344 L 16.640625 12.890625 L 16.984375 13.089844 L 16.988281 13.078125 L 16.984375 13.089844 L 16.996094 13.0625 L 17 13.042969 L 17.007812 13.019531 L 17.007812 12.972656 L 17.007812 12.996094 L 17.007812 12.972656 L 17 12.949219 L 17.007812 12.980469 L 16.996094 12.945312 L 17 12.972656 Z M 17 12.9375 L 17.007812 12.949219 L 17.007812 12.960938 L 17 12.933594 Z M 16.9375 12.863281 L 16.738281 13.199219 L 16.722656 13.1875 L 16.746094 13.207031 L 16.714844 13.1875 L 16.699219 13.175781 L 16.710938 13.1875 L 16.6875 13.164062 L 16.699219 13.175781 L 16.675781 13.152344 L 16.675781 13.148438 L 16.664062 13.136719 L 16.675781 13.148438 L 16.664062 13.132812 L 16.652344 13.113281 L 16.664062 13.132812 L 16.65625 13.121094 L 16.644531 13.101562 L 16.652344 13.109375 L 16.640625 13.078125 L 16.644531 13.097656 L 16.632812 13.078125 L 16.628906 13.054688 L 16.628906 13.050781 L 16.628906 13.054688 L 16.625 13.042969 L 17.007812 12.972656 L 17.007812 12.960938 L 17.007812 12.96875 L 17.007812 12.960938 L 17 12.945312 L 16.996094 12.925781 L 17.007812 12.945312 L 16.996094 12.914062 L 17 12.925781 L 16.996094 12.910156 L 16.988281 12.898438 L 17 12.914062 L 16.988281 12.898438 L 16.976562 12.886719 L 16.988281 12.902344 L 16.984375 12.890625 L 16.960938 12.867188 L 16.972656 12.878906 L 16.960938 12.867188 L 16.949219 12.863281 L 16.964844 12.875 L 16.953125 12.863281 L 16.929688 12.847656 L 16.960938 12.863281 L 16.941406 12.851562 Z M 16.9375 12.863281 L 16.902344 12.839844 Z M 16.9375 12.863281 "/>
<path style="fill-rule:nonzero;fill:rgb(92.941176%,41.176471%,36.078431%);fill-opacity:1;stroke-width:1;stroke-linecap:butt;stroke-linejoin:miter;stroke:rgb(92.941176%,41.176471%,36.078431%);stroke-opacity:1;stroke-miterlimit:22.9256;" d="M 24.549882 24.938886 C 21.30162 24.938886 18.650662 27.589844 18.650662 30.838106 C 18.650662 34.099791 21.30162 36.750748 24.549882 36.750748 C 27.811567 36.750748 30.449102 34.099791 30.449102 30.838106 C 30.449102 27.583132 27.798144 24.938886 24.549882 24.938886 Z M 24.549882 37.582948 C 20.83183 37.582948 17.811752 34.562869 17.811752 30.838106 C 17.811752 27.120054 20.83183 24.099975 24.549882 24.099975 C 28.267934 24.099975 31.288013 27.120054 31.288013 30.838106 C 31.288013 34.562869 28.267934 37.582948 24.549882 37.582948 Z M 24.549882 37.582948 " transform="matrix(0.582042,0,0,0.582042,0,0.000145901)"/>
<path style=" stroke:none;fill-rule:nonzero;fill:rgb(92.941176%,41.176471%,36.078431%);fill-opacity:1;" d="M 14.289062 14.515625 C 12.398438 14.515625 10.855469 16.058594 10.855469 17.949219 C 10.855469 19.847656 12.398438 21.390625 14.289062 21.390625 C 16.1875 21.390625 17.722656 19.847656 17.722656 17.949219 C 17.722656 16.054688 16.179688 14.515625 14.289062 14.515625 Z M 14.289062 21.875 C 12.125 21.875 10.367188 20.117188 10.367188 17.949219 C 10.367188 15.785156 12.125 14.027344 14.289062 14.027344 C 16.453125 14.027344 18.210938 15.785156 18.210938 17.949219 C 18.210938 20.117188 16.453125 21.875 14.289062 21.875 Z M 14.289062 21.875 "/>
<path style=" stroke:none;fill-rule:nonzero;fill:rgb(92.941176%,41.176471%,36.078431%);fill-opacity:1;" d="M 11.054688 17.949219 L 10.65625 17.949219 L 10.664062 17.765625 L 10.675781 17.578125 L 10.699219 17.398438 L 10.734375 17.21875 L 10.773438 17.042969 L 10.820312 16.867188 L 10.878906 16.699219 L 10.941406 16.535156 L 11.019531 16.371094 L 11.097656 16.214844 L 11.1875 16.066406 L 11.28125 15.917969 L 11.378906 15.773438 L 11.488281 15.632812 L 11.605469 15.5 L 11.726562 15.371094 L 11.855469 15.25 L 11.988281 15.132812 L 12.128906 15.023438 L 12.269531 14.921875 L 12.414062 14.832031 L 12.566406 14.742188 L 12.722656 14.660156 L 12.886719 14.585938 L 13.050781 14.523438 L 13.21875 14.464844 L 13.394531 14.417969 L 13.566406 14.375 L 13.746094 14.339844 L 13.929688 14.320312 L 14.113281 14.308594 L 14.300781 14.300781 L 14.300781 14.695312 L 14.132812 14.703125 L 13.96875 14.714844 L 13.804688 14.738281 L 13.648438 14.765625 L 13.492188 14.800781 L 13.339844 14.847656 L 13.1875 14.902344 L 13.042969 14.957031 L 12.898438 15.023438 L 12.757812 15.09375 L 12.625 15.167969 L 12.492188 15.25 L 12.363281 15.335938 L 12.242188 15.4375 L 12.125 15.539062 L 12.011719 15.644531 L 11.808594 15.871094 L 11.710938 15.996094 L 11.617188 16.121094 L 11.53125 16.257812 L 11.453125 16.390625 L 11.382812 16.53125 L 11.320312 16.675781 L 11.261719 16.820312 L 11.210938 16.972656 L 11.164062 17.125 L 11.128906 17.28125 L 11.097656 17.4375 L 11.078125 17.601562 L 11.066406 17.765625 L 11.058594 17.933594 Z M 14.296875 21.191406 L 14.296875 21.589844 L 14.109375 21.582031 L 13.921875 21.570312 L 13.742188 21.546875 L 13.5625 21.511719 L 13.386719 21.472656 L 13.210938 21.425781 L 13.042969 21.367188 L 12.878906 21.304688 L 12.71875 21.234375 L 12.558594 21.152344 L 12.261719 20.972656 L 12.117188 20.871094 L 11.976562 20.761719 L 11.84375 20.644531 L 11.714844 20.523438 L 11.59375 20.394531 L 11.476562 20.261719 L 11.367188 20.121094 L 11.269531 19.976562 L 11.175781 19.832031 L 11.089844 19.679688 L 11.007812 19.523438 L 10.929688 19.359375 L 10.867188 19.195312 L 10.808594 19.027344 L 10.761719 18.851562 L 10.722656 18.679688 L 10.6875 18.496094 L 10.664062 18.316406 L 10.652344 18.128906 L 10.644531 17.945312 L 11.042969 17.945312 L 11.046875 18.113281 L 11.058594 18.277344 L 11.082031 18.4375 L 11.109375 18.597656 L 11.144531 18.753906 L 11.191406 18.90625 L 11.246094 19.054688 L 11.304688 19.203125 L 11.367188 19.347656 L 11.4375 19.488281 L 11.511719 19.621094 L 11.601562 19.753906 L 11.691406 19.882812 L 11.792969 20.003906 L 11.898438 20.121094 L 12 20.230469 L 12.113281 20.335938 L 12.230469 20.441406 L 12.351562 20.539062 L 12.480469 20.632812 L 12.613281 20.714844 L 12.746094 20.789062 L 12.886719 20.859375 L 13.03125 20.925781 L 13.175781 20.984375 L 13.328125 21.035156 L 13.480469 21.082031 L 13.636719 21.117188 L 13.792969 21.144531 L 13.957031 21.167969 L 14.121094 21.179688 L 14.289062 21.1875 Z M 17.535156 17.949219 L 17.933594 17.949219 L 17.925781 18.136719 L 17.914062 18.324219 L 17.890625 18.503906 L 17.855469 18.683594 L 17.816406 18.859375 L 17.769531 19.03125 L 17.710938 19.203125 L 17.648438 19.363281 L 17.578125 19.527344 L 17.496094 19.683594 L 17.410156 19.835938 L 17.316406 19.980469 L 17.113281 20.261719 L 16.996094 20.394531 L 16.875 20.523438 L 16.746094 20.644531 L 16.613281 20.761719 L 16.472656 20.867188 L 16.332031 20.964844 L 16.1875 21.058594 L 16.035156 21.144531 L 15.878906 21.226562 L 15.714844 21.296875 L 15.550781 21.359375 L 15.382812 21.417969 L 15.207031 21.464844 L 15.035156 21.507812 L 14.855469 21.542969 L 14.671875 21.566406 L 14.488281 21.578125 L 14.300781 21.582031 L 14.300781 21.1875 L 14.46875 21.179688 L 14.632812 21.167969 L 14.796875 21.144531 L 14.953125 21.117188 L 15.109375 21.082031 L 15.261719 21.035156 L 15.414062 20.984375 L 15.558594 20.925781 L 15.703125 20.859375 L 15.84375 20.789062 L 15.976562 20.714844 L 16.109375 20.632812 L 16.238281 20.539062 L 16.359375 20.441406 L 16.476562 20.34375 L 16.589844 20.238281 L 16.691406 20.128906 L 16.796875 20.011719 L 16.984375 19.761719 L 17.066406 19.625 L 17.140625 19.492188 L 17.210938 19.351562 L 17.273438 19.207031 L 17.332031 19.0625 L 17.386719 18.910156 L 17.433594 18.757812 L 17.46875 18.601562 L 17.496094 18.445312 L 17.519531 18.28125 L 17.53125 18.117188 Z M 14.296875 14.714844 L 14.296875 14.320312 L 14.480469 14.324219 L 14.667969 14.335938 L 14.847656 14.359375 L 15.027344 14.394531 L 15.203125 14.433594 L 15.378906 14.480469 L 15.546875 14.539062 L 15.710938 14.605469 L 15.871094 14.671875 L 16.03125 14.753906 L 16.328125 14.933594 L 16.464844 15.035156 L 16.605469 15.140625 L 16.738281 15.253906 L 16.867188 15.378906 L 16.988281 15.503906 L 17.105469 15.640625 L 17.210938 15.777344 L 17.308594 15.917969 L 17.402344 16.066406 L 17.492188 16.214844 L 17.570312 16.371094 L 17.648438 16.535156 L 17.710938 16.699219 L 17.769531 16.867188 L 17.816406 17.042969 L 17.855469 17.21875 L 17.890625 17.398438 L 17.914062 17.578125 L 17.925781 17.765625 L 17.933594 17.949219 L 17.535156 17.949219 L 17.53125 17.78125 L 17.519531 17.617188 L 17.496094 17.457031 L 17.46875 17.296875 L 17.433594 17.140625 L 17.386719 16.988281 L 17.332031 16.839844 L 17.273438 16.691406 L 17.210938 16.546875 L 17.140625 16.40625 L 17.066406 16.273438 L 16.984375 16.140625 L 16.890625 16.011719 L 16.796875 15.890625 L 16.691406 15.773438 L 16.589844 15.664062 L 16.476562 15.558594 L 16.359375 15.460938 L 16.238281 15.359375 L 16.109375 15.273438 L 15.976562 15.191406 L 15.84375 15.117188 L 15.703125 15.046875 L 15.558594 14.980469 L 15.414062 14.921875 L 15.261719 14.871094 L 15.109375 14.824219 L 14.953125 14.789062 L 14.796875 14.761719 L 14.632812 14.738281 L 14.46875 14.726562 L 14.300781 14.71875 Z M 10.175781 17.949219 L 10.570312 17.949219 L 10.574219 18.140625 L 10.585938 18.328125 L 10.609375 18.515625 L 10.644531 18.699219 L 10.6875 18.882812 L 10.738281 19.054688 L 10.796875 19.230469 L 10.859375 19.398438 L 10.9375 19.5625 L 11.019531 19.726562 L 11.105469 19.882812 L 11.203125 20.035156 L 11.308594 20.179688 L 11.417969 20.320312 L 11.535156 20.453125 L 11.660156 20.582031 L 11.785156 20.703125 L 11.921875 20.820312 L 12.058594 20.929688 L 12.207031 21.035156 L 12.355469 21.132812 L 12.515625 21.222656 L 12.675781 21.304688 L 12.839844 21.378906 L 13.007812 21.441406 L 13.183594 21.5 L 13.359375 21.554688 L 13.539062 21.59375 L 13.71875 21.628906 L 13.90625 21.652344 L 14.089844 21.664062 L 14.285156 21.667969 L 14.285156 22.066406 L 14.074219 22.058594 L 13.863281 22.042969 L 13.660156 22.019531 L 13.457031 21.984375 L 13.257812 21.9375 L 13.0625 21.878906 L 12.867188 21.816406 L 12.683594 21.738281 L 12.503906 21.65625 L 12.320312 21.566406 L 12.148438 21.464844 L 11.976562 21.359375 L 11.816406 21.246094 L 11.660156 21.121094 L 11.507812 20.996094 L 11.363281 20.859375 L 11.226562 20.714844 L 11.097656 20.5625 L 10.976562 20.40625 L 10.859375 20.242188 L 10.757812 20.074219 L 10.65625 19.898438 L 10.5625 19.726562 L 10.484375 19.546875 L 10.40625 19.359375 L 10.34375 19.167969 L 10.285156 18.96875 L 10.238281 18.769531 L 10.203125 18.566406 L 10.179688 18.363281 L 10.164062 18.152344 L 10.15625 17.945312 Z M 14.296875 13.828125 L 14.296875 14.226562 L 14.101562 14.230469 L 13.917969 14.242188 L 13.730469 14.265625 L 13.550781 14.300781 L 13.371094 14.339844 L 13.195312 14.394531 L 13.019531 14.453125 L 12.851562 14.515625 L 12.6875 14.59375 L 12.527344 14.671875 L 12.367188 14.761719 L 12.21875 14.859375 L 12.070312 14.964844 L 11.933594 15.074219 L 11.796875 15.191406 L 11.671875 15.3125 L 11.546875 15.441406 L 11.429688 15.574219 L 11.320312 15.714844 L 11.214844 15.859375 L 11.117188 16.011719 L 11.03125 16.167969 L 10.949219 16.332031 L 10.871094 16.496094 L 10.808594 16.664062 L 10.75 16.839844 L 10.699219 17.011719 L 10.65625 17.195312 L 10.621094 17.375 L 10.597656 17.558594 L 10.585938 17.746094 L 10.582031 17.9375 L 10.1875 17.9375 L 10.191406 17.730469 L 10.210938 17.519531 L 10.230469 17.316406 L 10.265625 17.113281 L 10.3125 16.914062 L 10.371094 16.714844 L 10.4375 16.523438 L 10.511719 16.339844 L 10.59375 16.15625 L 10.6875 15.976562 L 10.785156 15.800781 L 10.890625 15.632812 L 11.007812 15.472656 L 11.128906 15.3125 L 11.257812 15.164062 L 11.390625 15.015625 L 11.535156 14.882812 L 11.6875 14.753906 L 11.84375 14.632812 L 12.007812 14.515625 L 12.175781 14.410156 L 12.351562 14.3125 L 12.53125 14.21875 L 12.710938 14.136719 L 12.898438 14.0625 L 13.089844 14 L 13.289062 13.941406 L 13.484375 13.894531 L 13.691406 13.859375 L 13.894531 13.835938 L 14.101562 13.816406 L 14.3125 13.8125 Z M 18.414062 17.949219 L 18.019531 17.949219 L 18.015625 17.757812 L 18.003906 17.570312 L 17.980469 17.386719 L 17.945312 17.207031 L 17.902344 17.023438 L 17.851562 16.851562 L 17.792969 16.675781 L 17.730469 16.507812 L 17.652344 16.34375 L 17.570312 16.179688 L 17.484375 16.023438 L 17.386719 15.871094 L 17.28125 15.726562 L 17.171875 15.585938 L 17.054688 15.453125 L 16.929688 15.324219 L 16.804688 15.203125 L 16.667969 15.085938 L 16.53125 14.976562 L 16.382812 14.871094 L 16.234375 14.773438 L 16.074219 14.683594 L 15.914062 14.605469 L 15.75 14.527344 L 15.582031 14.464844 L 15.40625 14.40625 L 15.230469 14.351562 L 15.050781 14.3125 L 14.867188 14.277344 L 14.679688 14.253906 L 14.492188 14.242188 L 14.300781 14.238281 L 14.300781 13.839844 L 14.511719 13.847656 L 14.71875 13.863281 L 14.921875 13.886719 L 15.128906 13.921875 L 15.324219 13.96875 L 15.523438 14.027344 L 15.714844 14.089844 L 15.902344 14.167969 L 16.082031 14.25 L 16.261719 14.339844 L 16.4375 14.441406 L 16.605469 14.546875 L 16.769531 14.660156 L 16.925781 14.785156 L 17.078125 14.910156 L 17.222656 15.046875 L 17.355469 15.191406 L 17.484375 15.34375 L 17.605469 15.5 L 17.722656 15.664062 L 17.828125 15.832031 L 17.925781 16.007812 L 18.019531 16.1875 L 18.101562 16.367188 L 18.175781 16.554688 L 18.242188 16.746094 L 18.300781 16.945312 L 18.347656 17.140625 L 18.382812 17.34375 L 18.402344 17.546875 L 18.421875 17.757812 L 18.425781 17.96875 Z M 14.296875 22.070312 L 14.296875 21.675781 L 14.488281 21.667969 L 14.671875 21.65625 L 14.859375 21.632812 L 15.046875 21.601562 L 15.226562 21.558594 L 15.402344 21.507812 L 15.574219 21.449219 L 15.746094 21.382812 L 15.90625 21.308594 L 16.070312 21.226562 L 16.226562 21.140625 L 16.378906 21.039062 L 16.523438 20.9375 L 16.664062 20.824219 L 16.796875 20.710938 L 16.925781 20.585938 L 17.046875 20.457031 L 17.164062 20.324219 L 17.273438 20.183594 L 17.378906 20.039062 L 17.480469 19.886719 L 17.566406 19.730469 L 17.648438 19.570312 L 17.722656 19.40625 L 17.789062 19.238281 L 17.898438 18.886719 L 17.9375 18.707031 L 17.972656 18.519531 L 17.996094 18.335938 L 18.007812 18.148438 L 18.015625 17.957031 L 18.410156 17.957031 L 18.402344 18.164062 L 18.386719 18.375 L 18.363281 18.578125 L 18.328125 18.78125 L 18.28125 18.980469 L 18.222656 19.179688 L 18.160156 19.371094 L 18.085938 19.558594 L 18.003906 19.738281 L 17.910156 19.910156 L 17.808594 20.085938 L 17.707031 20.253906 L 17.589844 20.417969 L 17.46875 20.574219 L 17.339844 20.726562 L 17.199219 20.871094 L 17.054688 21.007812 L 16.902344 21.132812 L 16.746094 21.257812 L 16.582031 21.371094 L 16.414062 21.476562 L 16.238281 21.578125 L 16.058594 21.667969 L 15.878906 21.75 L 15.691406 21.828125 L 15.5 21.890625 L 15.300781 21.949219 L 15.105469 21.996094 L 14.898438 22.03125 L 14.695312 22.054688 L 14.488281 22.070312 L 14.277344 22.078125 Z M 14.296875 22.070312 "/>
<path style=" stroke:none;fill-rule:nonzero;fill:rgb(92.941176%,41.176471%,36.078431%);fill-opacity:1;" d="M 14.078125 3.910156 C 14.230469 3.910156 14.375 3.953125 14.503906 4.039062 L 26.597656 11.863281 L 26.597656 9.8125 L 14.078125 1.71875 L 1.558594 9.8125 L 1.558594 11.863281 L 13.65625 4.039062 C 13.78125 3.957031 13.929688 3.910156 14.078125 3.910156 Z M 27.378906 14.078125 C 27.226562 14.078125 27.082031 14.03125 26.953125 13.953125 L 14.078125 5.621094 L 1.203125 13.953125 C 0.964844 14.109375 0.65625 14.121094 0.40625 13.980469 C 0.15625 13.847656 0 13.578125 0 13.292969 L 0 9.382812 C 0 9.113281 0.132812 8.871094 0.355469 8.726562 L 13.65625 0.117188 C 13.910156 -0.0507812 14.25 -0.0507812 14.503906 0.117188 L 27.804688 8.726562 C 28.023438 8.871094 28.160156 9.113281 28.160156 9.382812 L 28.160156 13.292969 C 28.160156 13.726562 27.808594 14.074219 27.378906 14.074219 Z M 27.378906 14.078125 "/>
<path style=" stroke:none;fill-rule:nonzero;fill:rgb(92.941176%,41.176471%,36.078431%);fill-opacity:1;" d="M 25.820312 28.164062 L 11.738281 28.164062 L 11.738281 26.597656 L 25.039062 26.597656 L 25.039062 11.734375 L 26.605469 11.734375 L 26.605469 27.378906 C 26.605469 27.808594 26.257812 28.164062 25.824219 28.164062 Z M 25.820312 28.164062 "/>
<path style=" stroke:none;fill-rule:nonzero;fill:rgb(92.941176%,41.176471%,36.078431%);fill-opacity:1;" d="M 2.34375 28.164062 C 1.914062 28.164062 1.566406 27.816406 1.566406 27.378906 L 1.566406 11.734375 L 3.132812 11.734375 L 3.132812 26.597656 L 16.429688 26.597656 L 16.429688 28.164062 Z M 2.34375 28.164062 "/>
</g>
</svg>
