<?xml version="1.0" encoding="UTF-8"?>
<svg xmlns="http://www.w3.org/2000/svg" xmlns:xlink="http://www.w3.org/1999/xlink" width="28px" height="28px" viewBox="0 0 28 28" version="1.1">
<g id="surface1">
<path style=" stroke:none;fill-rule:nonzero;fill:rgb(92.941176%,41.176471%,36.078431%);fill-opacity:1;" d="M 14.757812 16.066406 L 16.277344 14.546875 L 16.90625 16.066406 L 14.753906 16.066406 Z M 16.277344 18.132812 L 14.757812 16.609375 L 16.910156 16.609375 L 16.28125 18.132812 Z M 14.371094 19.148438 L 14.371094 16.992188 L 15.890625 18.511719 L 14.371094 19.140625 Z M 14.371094 13.527344 L 15.890625 14.15625 L 14.371094 15.679688 Z M 12.273438 18.472656 L 13.792969 16.953125 L 13.792969 19.105469 L 12.273438 18.476562 Z M 11.257812 16.566406 L 13.410156 16.566406 L 11.890625 18.089844 L 11.261719 16.566406 Z M 11.886719 14.5 L 13.40625 16.019531 L 11.253906 16.019531 L 11.882812 14.5 Z M 13.792969 13.484375 L 13.792969 15.640625 L 12.273438 14.113281 Z M 20.648438 16.070312 L 19.835938 16.070312 L 20.367188 15.359375 C 20.40625 15.3125 20.394531 15.246094 20.351562 15.210938 L 20.078125 15.011719 C 20.054688 14.992188 20.027344 14.988281 20 14.992188 C 19.972656 14.996094 19.949219 15.011719 19.933594 15.03125 L 19.148438 16.070312 L 17.492188 16.070312 L 16.902344 14.644531 L 16.691406 14.128906 L 16.902344 13.917969 L 17.855469 12.960938 L 19.140625 13.140625 C 19.203125 13.152344 19.253906 13.109375 19.261719 13.054688 L 19.308594 12.71875 C 19.3125 12.691406 19.304688 12.664062 19.289062 12.640625 C 19.269531 12.617188 19.246094 12.605469 19.21875 12.597656 L 18.339844 12.476562 L 18.917969 11.902344 C 18.957031 11.859375 18.957031 11.796875 18.917969 11.753906 L 18.679688 11.515625 C 18.636719 11.472656 18.566406 11.472656 18.53125 11.515625 L 17.953125 12.09375 L 17.828125 11.210938 C 17.824219 11.183594 17.808594 11.164062 17.789062 11.144531 C 17.765625 11.125 17.738281 11.121094 17.710938 11.125 L 17.375 11.171875 C 17.316406 11.179688 17.277344 11.230469 17.285156 11.289062 L 17.464844 12.582031 L 16.898438 13.152344 L 16.300781 13.746094 L 14.359375 12.945312 L 14.359375 11.984375 L 14.324219 11.984375 L 14.324219 11.25 L 15.363281 10.464844 C 15.410156 10.425781 15.417969 10.363281 15.382812 10.316406 L 15.179688 10.050781 C 15.164062 10.027344 15.136719 10.015625 15.109375 10.011719 C 15.082031 10.003906 15.054688 10.015625 15.03125 10.027344 L 14.320312 10.566406 L 14.320312 9.71875 C 14.320312 9.660156 14.273438 9.613281 14.214844 9.613281 L 13.878906 9.613281 C 13.820312 9.613281 13.773438 9.660156 13.773438 9.71875 L 13.773438 10.566406 L 13.0625 10.027344 C 13.039062 10.011719 13.011719 10.003906 12.984375 10.011719 C 12.957031 10.015625 12.933594 10.027344 12.914062 10.050781 L 12.714844 10.316406 C 12.675781 10.363281 12.6875 10.425781 12.738281 10.464844 L 13.773438 11.246094 L 13.773438 12.898438 L 11.835938 13.703125 L 11.238281 13.105469 L 10.671875 12.535156 L 10.851562 11.246094 C 10.859375 11.183594 10.816406 11.132812 10.761719 11.125 L 10.425781 11.078125 C 10.398438 11.074219 10.371094 11.085938 10.347656 11.097656 C 10.328125 11.117188 10.3125 11.140625 10.308594 11.167969 L 10.183594 12.046875 L 9.605469 11.46875 C 9.5625 11.429688 9.496094 11.429688 9.457031 11.46875 L 9.21875 11.707031 C 9.179688 11.75 9.179688 11.8125 9.21875 11.855469 L 9.796875 12.433594 L 8.917969 12.558594 C 8.890625 12.5625 8.867188 12.578125 8.847656 12.597656 C 8.835938 12.621094 8.824219 12.648438 8.828125 12.675781 L 8.875 13.011719 C 8.882812 13.066406 8.933594 13.109375 8.996094 13.101562 L 10.285156 12.921875 L 11.238281 13.875 L 11.453125 14.085938 L 11.238281 14.601562 L 10.648438 16.03125 L 8.996094 16.03125 L 8.210938 14.992188 C 8.175781 14.945312 8.109375 14.9375 8.0625 14.96875 L 7.792969 15.171875 C 7.746094 15.203125 7.738281 15.273438 7.773438 15.316406 L 8.3125 16.03125 L 7.492188 16.03125 C 7.433594 16.03125 7.386719 16.074219 7.386719 16.136719 L 7.386719 16.46875 C 7.386719 16.53125 7.433594 16.574219 7.492188 16.574219 L 8.3125 16.574219 L 7.773438 17.289062 C 7.738281 17.332031 7.746094 17.398438 7.792969 17.433594 L 8.0625 17.636719 C 8.085938 17.65625 8.113281 17.660156 8.140625 17.65625 C 8.167969 17.648438 8.191406 17.636719 8.210938 17.613281 L 8.988281 16.574219 L 10.644531 16.574219 L 11.234375 18.003906 L 11.445312 18.519531 L 10.28125 19.683594 L 8.988281 19.503906 C 8.933594 19.496094 8.878906 19.539062 8.871094 19.59375 L 8.824219 19.925781 C 8.820312 19.953125 8.828125 19.984375 8.84375 20.003906 C 8.863281 20.027344 8.882812 20.042969 8.914062 20.046875 L 9.792969 20.171875 L 9.214844 20.75 C 9.175781 20.789062 9.175781 20.859375 9.214844 20.894531 L 9.453125 21.136719 C 9.492188 21.171875 9.5625 21.171875 9.601562 21.136719 L 10.179688 20.554688 L 10.304688 21.4375 C 10.308594 21.464844 10.320312 21.488281 10.34375 21.507812 C 10.367188 21.523438 10.394531 21.53125 10.421875 21.523438 L 10.757812 21.480469 C 10.8125 21.46875 10.855469 21.417969 10.84375 21.359375 L 10.667969 20.070312 L 11.234375 19.5 L 11.832031 18.902344 L 13.769531 19.707031 L 13.769531 21.359375 L 12.730469 22.144531 C 12.6875 22.175781 12.675781 22.246094 12.710938 22.292969 L 12.910156 22.5625 C 12.929688 22.585938 12.953125 22.601562 12.980469 22.605469 C 13.007812 22.609375 13.035156 22.601562 13.058594 22.585938 L 13.769531 22.046875 L 13.769531 22.894531 C 13.769531 22.953125 13.816406 23 13.875 23 L 14.210938 23 C 14.269531 23 14.316406 22.953125 14.316406 22.894531 L 14.316406 22.046875 L 15.027344 22.585938 C 15.050781 22.601562 15.078125 22.609375 15.105469 22.605469 C 15.132812 22.601562 15.15625 22.585938 15.175781 22.5625 L 15.378906 22.292969 C 15.414062 22.246094 15.40625 22.183594 15.359375 22.144531 L 14.320312 21.359375 L 14.320312 20.808594 L 14.351562 20.808594 L 14.351562 19.757812 L 16.296875 18.953125 L 16.890625 19.550781 L 17.460938 20.121094 L 17.28125 21.410156 C 17.273438 21.46875 17.316406 21.519531 17.371094 21.53125 L 17.703125 21.574219 C 17.734375 21.582031 17.761719 21.570312 17.78125 21.558594 C 17.804688 21.539062 17.820312 21.515625 17.824219 21.488281 L 17.949219 20.605469 L 18.527344 21.1875 C 18.566406 21.226562 18.636719 21.226562 18.671875 21.1875 L 18.914062 20.945312 C 18.953125 20.90625 18.953125 20.839844 18.914062 20.800781 L 18.332031 20.222656 L 19.214844 20.097656 C 19.242188 20.09375 19.265625 20.078125 19.285156 20.054688 C 19.296875 20.03125 19.308594 20.003906 19.304688 19.976562 L 19.257812 19.644531 C 19.246094 19.585938 19.195312 19.546875 19.136719 19.554688 L 17.851562 19.734375 L 16.6875 18.570312 L 16.898438 18.054688 L 17.488281 16.625 L 19.140625 16.625 L 19.925781 17.664062 C 19.960938 17.710938 20.027344 17.71875 20.074219 17.6875 L 20.34375 17.484375 C 20.390625 17.449219 20.398438 17.382812 20.363281 17.335938 L 19.832031 16.625 L 20.644531 16.625 C 20.703125 16.625 20.75 16.582031 20.75 16.519531 L 20.75 16.183594 C 20.75 16.125 20.703125 16.078125 20.644531 16.078125 Z M 20.648438 16.070312 "/>
<path style=" stroke:none;fill-rule:nonzero;fill:rgb(92.941176%,41.176471%,36.078431%);fill-opacity:1;" d="M 16.355469 14.621094 L 14.835938 16.140625 L 14.683594 15.988281 L 16.203125 14.46875 L 16.378906 14.503906 Z M 16.203125 14.46875 L 16.316406 14.351562 L 16.378906 14.5 L 16.203125 14.464844 Z M 16.808594 16.105469 L 16.179688 14.585938 L 16.378906 14.503906 L 17.007812 16.023438 L 16.910156 16.171875 L 16.8125 16.105469 Z M 17.007812 16.023438 L 17.066406 16.171875 L 16.90625 16.171875 L 17.003906 16.023438 Z M 14.757812 15.960938 L 16.910156 15.960938 L 16.910156 16.175781 L 14.757812 16.175781 L 14.683594 15.992188 Z M 14.757812 16.175781 L 14.5 16.175781 L 14.683594 15.992188 Z M 14.832031 16.539062 L 16.351562 18.0625 L 16.199219 18.214844 L 14.679688 16.691406 L 14.753906 16.507812 L 14.824219 16.539062 Z M 14.679688 16.691406 L 14.496094 16.507812 L 14.753906 16.507812 Z M 16.90625 16.722656 L 14.753906 16.722656 L 14.753906 16.507812 L 16.90625 16.507812 L 17.003906 16.652344 L 16.90625 16.71875 Z M 16.90625 16.507812 L 17.066406 16.507812 L 17.007812 16.652344 L 16.910156 16.507812 Z M 16.175781 18.09375 L 16.804688 16.570312 L 17.003906 16.652344 L 16.375 18.179688 L 16.199219 18.214844 L 16.175781 18.101562 Z M 16.375 18.179688 L 16.3125 18.324219 L 16.199219 18.210938 L 16.375 18.171875 Z M 14.472656 17.003906 L 14.472656 19.15625 L 14.257812 19.15625 L 14.257812 17.003906 L 14.441406 16.929688 Z M 14.257812 17.003906 L 14.257812 16.746094 L 14.441406 16.929688 Z M 15.808594 18.601562 L 14.289062 17.082031 L 14.441406 16.929688 L 15.960938 18.449219 L 15.921875 18.625 Z M 15.960938 18.449219 L 16.074219 18.5625 L 15.929688 18.625 L 15.964844 18.449219 Z M 14.320312 19.054688 L 15.839844 18.425781 L 15.921875 18.625 L 14.402344 19.253906 L 14.257812 19.15625 L 14.320312 19.058594 Z M 14.402344 19.253906 L 14.257812 19.3125 L 14.257812 19.152344 L 14.402344 19.246094 Z M 15.84375 14.261719 L 14.324219 13.632812 L 14.410156 13.433594 L 15.929688 14.0625 L 15.964844 14.238281 L 15.851562 14.261719 Z M 15.929688 14.0625 L 16.074219 14.125 L 15.960938 14.238281 L 15.921875 14.0625 Z M 14.289062 15.613281 L 15.808594 14.085938 L 15.960938 14.238281 L 14.441406 15.761719 L 14.257812 15.691406 L 14.289062 15.617188 Z M 14.441406 15.761719 L 14.257812 15.945312 L 14.257812 15.691406 Z M 14.472656 13.535156 L 14.472656 15.691406 L 14.257812 15.691406 L 14.257812 13.535156 L 14.402344 13.441406 L 14.46875 13.535156 Z M 14.257812 13.535156 L 14.257812 13.375 L 14.402344 13.433594 L 14.257812 13.53125 Z M 13.863281 17.039062 L 12.34375 18.558594 L 12.191406 18.40625 L 13.710938 16.886719 L 13.894531 16.960938 L 13.863281 17.035156 Z M 13.710938 16.886719 L 13.894531 16.703125 L 13.894531 16.960938 Z M 13.679688 19.113281 L 13.679688 16.960938 L 13.894531 16.960938 L 13.894531 19.113281 L 13.746094 19.210938 L 13.683594 19.113281 Z M 13.894531 19.113281 L 13.894531 19.277344 L 13.746094 19.214844 L 13.894531 19.121094 Z M 12.304688 18.382812 L 13.824219 19.015625 L 13.742188 19.210938 L 12.222656 18.582031 L 12.1875 18.40625 L 12.300781 18.382812 Z M 12.222656 18.582031 L 12.074219 18.523438 L 12.191406 18.40625 L 12.226562 18.582031 Z M 13.398438 16.679688 L 11.246094 16.679688 L 11.246094 16.464844 L 13.398438 16.464844 L 13.472656 16.648438 Z M 13.398438 16.464844 L 13.65625 16.464844 L 13.472656 16.648438 Z M 11.800781 18.015625 L 13.320312 16.492188 L 13.472656 16.644531 L 11.953125 18.167969 L 11.777344 18.132812 Z M 11.953125 18.167969 L 11.835938 18.285156 L 11.777344 18.136719 L 11.953125 18.171875 Z M 11.34375 16.53125 L 11.976562 18.054688 L 11.777344 18.136719 L 11.148438 16.613281 L 11.246094 16.464844 L 11.339844 16.53125 Z M 11.148438 16.613281 L 11.089844 16.464844 L 11.25 16.464844 L 11.152344 16.613281 Z M 13.324219 16.101562 L 11.804688 14.582031 L 11.957031 14.429688 L 13.476562 15.953125 L 13.402344 16.136719 L 13.328125 16.101562 Z M 13.476562 15.953125 L 13.660156 16.136719 L 13.402344 16.136719 Z M 11.25 15.917969 L 13.402344 15.917969 L 13.402344 16.136719 L 11.25 16.136719 L 11.152344 15.988281 L 11.25 15.921875 Z M 11.25 16.136719 L 11.089844 16.136719 L 11.148438 15.988281 L 11.246094 16.136719 Z M 11.980469 14.546875 L 11.351562 16.066406 L 11.152344 15.984375 L 11.78125 14.464844 L 11.957031 14.425781 L 11.980469 14.542969 Z M 11.78125 14.464844 L 11.839844 14.316406 L 11.957031 14.429688 L 11.78125 14.46875 Z M 13.683594 15.640625 L 13.683594 13.484375 L 13.898438 13.484375 L 13.898438 15.640625 L 13.714844 15.710938 Z M 13.898438 15.640625 L 13.898438 15.894531 L 13.714844 15.710938 Z M 12.347656 14.042969 L 13.867188 15.566406 L 13.714844 15.71875 L 12.195312 14.191406 L 12.230469 14.019531 Z M 12.195312 14.191406 L 12.082031 14.078125 L 12.226562 14.019531 L 12.191406 14.191406 Z M 13.835938 13.585938 L 12.316406 14.214844 L 12.230469 14.019531 L 13.75 13.390625 L 13.898438 13.484375 L 13.835938 13.582031 Z M 13.75 13.390625 L 13.898438 13.328125 L 13.898438 13.488281 L 13.75 13.394531 Z M 19.832031 15.964844 L 20.644531 15.964844 L 20.644531 16.179688 L 19.832031 16.179688 L 19.742188 16.011719 L 19.832031 15.96875 Z M 19.832031 16.179688 L 19.613281 16.179688 L 19.742188 16.011719 Z M 20.449219 15.429688 L 19.917969 16.140625 L 19.75 16.011719 L 20.28125 15.300781 Z M 20.449219 15.429688 L 20.460938 15.414062 Z M 20.28125 15.304688 L 20.410156 15.132812 L 20.417969 15.136719 L 20.425781 15.148438 L 20.4375 15.15625 L 20.441406 15.160156 L 20.449219 15.171875 L 20.460938 15.179688 L 20.464844 15.1875 L 20.46875 15.199219 L 20.476562 15.214844 L 20.484375 15.226562 L 20.488281 15.234375 L 20.492188 15.246094 L 20.496094 15.253906 L 20.496094 15.335938 L 20.492188 15.34375 L 20.488281 15.359375 L 20.484375 15.367188 L 20.476562 15.378906 L 20.46875 15.394531 L 20.464844 15.40625 L 20.457031 15.421875 L 20.285156 15.292969 L 20.285156 15.304688 Z M 20.28125 15.304688 L 20.230469 15.265625 Z M 20.136719 14.933594 L 20.410156 15.132812 L 20.28125 15.304688 L 20.011719 15.101562 Z M 20.011719 15.101562 L 20.019531 15.109375 Z M 20.011719 15.101562 L 19.980469 14.890625 L 20.101562 14.890625 L 20.109375 14.894531 L 20.117188 14.894531 L 20.125 14.898438 L 20.132812 14.898438 L 20.148438 14.910156 L 20.164062 14.925781 L 20.039062 15.097656 L 20.03125 15.097656 L 20.039062 15.101562 L 20.03125 15.097656 L 20.042969 15.101562 L 20.03125 15.101562 L 20.039062 15.101562 L 20.027344 15.101562 L 20.03125 15.101562 L 20.027344 15.101562 L 20.039062 15.101562 L 20.03125 15.101562 L 20.042969 15.101562 L 20.03125 15.101562 L 20.039062 15.101562 L 20.027344 15.101562 L 20.039062 15.101562 L 20.027344 15.101562 L 20.03125 15.101562 Z M 20.011719 15.101562 L 20.015625 15.101562 Z M 20.011719 15.101562 L 19.839844 14.972656 L 19.835938 14.976562 L 19.847656 14.964844 L 19.855469 14.960938 L 19.859375 14.953125 L 19.875 14.9375 L 19.886719 14.933594 L 19.894531 14.925781 L 19.890625 14.925781 L 19.894531 14.921875 L 19.902344 14.917969 L 19.910156 14.917969 L 19.917969 14.914062 L 19.925781 14.914062 L 19.9375 14.910156 L 19.964844 14.910156 L 19.992188 15.121094 L 19.996094 15.121094 L 19.992188 15.121094 L 19.996094 15.121094 L 19.988281 15.121094 L 19.992188 15.121094 L 19.996094 15.117188 L 19.992188 15.121094 L 19.996094 15.121094 L 20 15.117188 L 19.996094 15.121094 Z M 20.015625 15.097656 L 20.011719 15.101562 Z M 19.058594 16.011719 L 19.84375 14.972656 L 20.015625 15.101562 L 19.230469 16.140625 L 19.140625 16.179688 L 19.054688 16.011719 Z M 19.230469 16.140625 L 19.195312 16.179688 L 19.140625 16.179688 Z M 17.492188 15.96875 L 19.148438 15.96875 L 19.148438 16.183594 L 17.492188 16.183594 L 17.398438 16.121094 L 17.492188 15.972656 Z M 17.492188 16.183594 L 17.421875 16.183594 L 17.394531 16.121094 L 17.488281 16.183594 Z M 17.003906 14.609375 L 17.59375 16.039062 L 17.398438 16.121094 L 16.804688 14.691406 Z M 16.792969 14.097656 L 17.003906 14.609375 L 16.804688 14.691406 L 16.59375 14.179688 L 16.617188 14.0625 Z M 16.59375 14.179688 L 16.566406 14.113281 L 16.617188 14.0625 Z M 16.980469 14 L 16.769531 14.210938 L 16.617188 14.058594 L 16.828125 13.847656 Z M 16.828125 13.847656 L 16.90625 13.769531 Z M 17.933594 13.042969 L 16.980469 14 L 16.828125 13.847656 L 17.78125 12.894531 L 17.875 12.859375 L 17.933594 13.039062 Z M 17.78125 12.894531 L 17.820312 12.855469 L 17.875 12.867188 L 17.78125 12.898438 Z M 19.132812 13.257812 L 17.847656 13.078125 L 17.875 12.867188 L 19.160156 13.042969 Z M 19.132812 13.257812 L 19.1875 13.265625 Z M 19.160156 13.050781 L 19.371094 13.078125 L 19.371094 13.085938 L 19.367188 13.09375 L 19.363281 13.105469 L 19.359375 13.113281 L 19.351562 13.121094 L 19.347656 13.132812 L 19.34375 13.140625 L 19.339844 13.15625 L 19.332031 13.171875 L 19.296875 13.207031 L 19.28125 13.214844 L 19.269531 13.21875 L 19.253906 13.226562 L 19.242188 13.234375 L 19.226562 13.242188 L 19.214844 13.246094 L 19.207031 13.25 L 19.195312 13.257812 L 19.132812 13.257812 L 19.160156 13.042969 L 19.164062 13.042969 L 19.164062 13.050781 L 19.164062 13.042969 Z M 19.371094 13.078125 L 19.371094 13.085938 Z M 19.417969 12.742188 L 19.371094 13.078125 L 19.160156 13.050781 L 19.207031 12.714844 L 19.417969 12.746094 Z M 19.207031 12.714844 Z M 19.207031 12.714844 L 19.375 12.589844 L 19.375 12.59375 L 19.394531 12.613281 L 19.398438 12.621094 L 19.398438 12.632812 L 19.402344 12.640625 L 19.402344 12.648438 L 19.410156 12.660156 L 19.410156 12.777344 L 19.195312 12.746094 L 19.195312 12.742188 L 19.195312 12.75 L 19.195312 12.742188 L 19.195312 12.75 L 19.195312 12.742188 L 19.195312 12.753906 L 19.195312 12.746094 L 19.195312 12.75 L 19.195312 12.742188 L 19.195312 12.746094 L 19.195312 12.738281 L 19.203125 12.742188 Z M 19.375 12.589844 L 19.363281 12.570312 Z M 19.207031 12.71875 L 19.234375 12.507812 L 19.269531 12.507812 L 19.285156 12.511719 L 19.289062 12.511719 L 19.285156 12.511719 L 19.292969 12.515625 L 19.304688 12.519531 L 19.308594 12.527344 L 19.316406 12.535156 L 19.332031 12.542969 L 19.339844 12.550781 L 19.34375 12.550781 L 19.347656 12.554688 L 19.359375 12.5625 L 19.367188 12.570312 L 19.371094 12.578125 L 19.203125 12.699219 L 19.207031 12.703125 L 19.210938 12.710938 L 19.207031 12.703125 L 19.210938 12.710938 L 19.207031 12.703125 L 19.21875 12.703125 L 19.210938 12.699219 L 19.21875 12.703125 L 19.214844 12.703125 L 19.21875 12.703125 L 19.210938 12.703125 L 19.214844 12.703125 Z M 19.207031 12.71875 Z M 18.355469 12.382812 L 19.238281 12.507812 L 19.210938 12.71875 L 18.328125 12.59375 L 18.269531 12.414062 L 18.363281 12.382812 Z M 18.328125 12.59375 L 18.117188 12.5625 L 18.269531 12.410156 L 18.328125 12.589844 Z M 18.996094 11.988281 L 18.417969 12.5625 L 18.265625 12.410156 L 18.84375 11.835938 Z M 18.996094 11.988281 L 18.984375 11.996094 Z M 18.84375 11.84375 L 18.996094 11.691406 L 19.027344 11.722656 L 19.03125 11.730469 L 19.035156 11.742188 L 19.042969 11.75 L 19.046875 11.757812 L 19.050781 11.769531 L 19.058594 11.785156 L 19.058594 11.882812 L 19.054688 11.890625 L 19.050781 11.902344 L 19.042969 11.917969 L 19.035156 11.929688 L 19.03125 11.9375 L 19.027344 11.949219 L 19.019531 11.957031 L 19.011719 11.960938 L 19.007812 11.96875 L 19 11.980469 L 18.847656 11.832031 L 18.851562 11.828125 L 18.851562 11.824219 L 18.847656 11.820312 Z M 18.757812 11.453125 L 18.996094 11.691406 L 18.84375 11.84375 L 18.605469 11.601562 Z M 18.609375 11.601562 L 18.457031 11.453125 L 18.46875 11.445312 L 18.476562 11.4375 L 18.484375 11.433594 L 18.488281 11.429688 L 18.5 11.425781 L 18.507812 11.417969 L 18.519531 11.414062 L 18.535156 11.40625 L 18.546875 11.402344 L 18.65625 11.402344 L 18.671875 11.410156 L 18.683594 11.414062 L 18.691406 11.417969 L 18.703125 11.425781 L 18.710938 11.429688 L 18.714844 11.433594 L 18.722656 11.4375 L 18.734375 11.445312 L 18.742188 11.453125 L 18.589844 11.601562 Z M 17.882812 12.03125 L 18.460938 11.453125 L 18.613281 11.601562 L 18.035156 12.179688 L 17.855469 12.121094 L 17.886719 12.03125 Z M 18.035156 12.179688 L 17.882812 12.332031 L 17.855469 12.121094 Z M 17.945312 11.210938 L 18.066406 12.09375 L 17.855469 12.121094 L 17.734375 11.242188 L 17.945312 11.207031 Z M 17.945312 11.210938 L 17.945312 11.207031 Z M 17.734375 11.246094 L 17.859375 11.074219 L 17.867188 11.074219 L 17.875 11.085938 L 17.882812 11.09375 L 17.894531 11.101562 L 17.902344 11.117188 L 17.902344 11.121094 L 17.90625 11.128906 L 17.917969 11.140625 L 17.921875 11.148438 L 17.921875 11.167969 L 17.925781 11.175781 L 17.925781 11.179688 L 17.925781 11.175781 L 17.929688 11.183594 L 17.933594 11.195312 L 17.933594 11.210938 L 17.722656 11.246094 L 17.722656 11.25 L 17.722656 11.246094 L 17.722656 11.253906 L 17.71875 11.246094 L 17.722656 11.25 L 17.722656 11.234375 L 17.726562 11.242188 L 17.726562 11.246094 L 17.722656 11.242188 L 17.726562 11.246094 L 17.722656 11.242188 L 17.722656 11.234375 L 17.726562 11.246094 L 17.722656 11.242188 L 17.726562 11.246094 L 17.734375 11.25 Z M 17.859375 11.074219 L 17.851562 11.066406 Z M 17.734375 11.246094 L 17.703125 11.035156 L 17.734375 11.035156 L 17.726562 11.035156 L 17.824219 11.035156 L 17.832031 11.039062 L 17.847656 11.039062 L 17.855469 11.042969 L 17.859375 11.046875 L 17.855469 11.042969 L 17.867188 11.046875 L 17.871094 11.050781 L 17.875 11.050781 L 17.878906 11.058594 L 17.882812 11.0625 L 17.753906 11.230469 L 17.75 11.230469 L 17.753906 11.230469 L 17.761719 11.234375 L 17.75 11.230469 L 17.753906 11.230469 L 17.761719 11.234375 L 17.75 11.234375 L 17.753906 11.234375 L 17.75 11.234375 L 17.753906 11.234375 L 17.75 11.234375 L 17.753906 11.234375 L 17.75 11.234375 L 17.761719 11.234375 L 17.746094 11.234375 L 17.753906 11.234375 L 17.746094 11.234375 L 17.753906 11.234375 L 17.75 11.234375 Z M 17.703125 11.035156 L 17.695312 11.035156 Z M 17.371094 11.078125 L 17.703125 11.035156 L 17.734375 11.246094 L 17.398438 11.289062 Z M 17.402344 11.285156 L 17.191406 11.3125 L 17.191406 11.253906 L 17.195312 11.246094 L 17.195312 11.242188 L 17.203125 11.21875 L 17.210938 11.207031 L 17.214844 11.199219 L 17.21875 11.195312 L 17.222656 11.183594 L 17.230469 11.171875 L 17.238281 11.167969 L 17.242188 11.15625 L 17.269531 11.128906 L 17.285156 11.121094 L 17.296875 11.117188 L 17.304688 11.113281 L 17.316406 11.105469 L 17.332031 11.097656 L 17.34375 11.09375 L 17.359375 11.085938 L 17.371094 11.085938 L 17.398438 11.296875 L 17.402344 11.289062 L 17.402344 11.296875 L 17.402344 11.285156 L 17.402344 11.296875 Z M 17.191406 11.3125 L 17.191406 11.328125 Z M 17.371094 12.605469 L 17.191406 11.3125 L 17.402344 11.285156 L 17.582031 12.578125 L 17.546875 12.667969 L 17.371094 12.609375 Z M 17.582031 12.578125 L 17.589844 12.632812 L 17.554688 12.667969 L 17.585938 12.578125 Z M 16.832031 13.085938 L 17.402344 12.515625 L 17.554688 12.667969 L 16.984375 13.238281 Z M 16.234375 13.683594 L 16.832031 13.085938 L 16.984375 13.238281 L 16.386719 13.835938 L 16.273438 13.859375 Z M 16.386719 13.835938 L 16.335938 13.886719 L 16.273438 13.859375 Z M 14.414062 12.855469 L 16.355469 13.660156 L 16.273438 13.859375 L 14.332031 13.054688 L 14.265625 12.957031 L 14.414062 12.859375 Z M 14.332031 13.054688 L 14.265625 13.027344 L 14.265625 12.953125 L 14.332031 13.050781 Z M 14.476562 11.992188 L 14.476562 12.953125 L 14.261719 12.953125 L 14.261719 11.992188 L 14.367188 11.886719 L 14.472656 11.992188 Z M 14.371094 11.886719 L 14.476562 11.886719 L 14.476562 11.992188 Z M 14.339844 11.886719 L 14.371094 11.886719 L 14.371094 12.105469 L 14.339844 12.105469 L 14.234375 11.996094 L 14.339844 11.890625 Z M 14.339844 12.105469 L 14.234375 12.105469 L 14.234375 11.996094 Z M 14.445312 11.261719 L 14.445312 11.996094 L 14.230469 11.996094 L 14.230469 11.261719 L 14.269531 11.175781 L 14.441406 11.261719 Z M 14.230469 11.261719 L 14.230469 11.207031 L 14.269531 11.175781 Z M 15.441406 10.566406 L 14.402344 11.351562 L 14.273438 11.179688 L 15.3125 10.394531 Z M 15.441406 10.566406 L 15.453125 10.550781 L 15.441406 10.5625 Z M 15.3125 10.398438 L 15.484375 10.273438 L 15.492188 10.289062 L 15.496094 10.300781 L 15.503906 10.316406 L 15.511719 10.328125 L 15.519531 10.34375 L 15.523438 10.355469 L 15.523438 10.4375 L 15.519531 10.445312 L 15.515625 10.457031 L 15.511719 10.464844 L 15.503906 10.472656 L 15.5 10.484375 L 15.492188 10.5 L 15.488281 10.511719 L 15.484375 10.519531 L 15.476562 10.523438 L 15.46875 10.535156 L 15.460938 10.542969 L 15.453125 10.546875 L 15.445312 10.554688 L 15.316406 10.386719 L 15.320312 10.386719 L 15.316406 10.386719 Z M 15.3125 10.398438 L 15.238281 10.304688 Z M 15.28125 10 L 15.484375 10.265625 L 15.3125 10.394531 L 15.109375 10.128906 Z M 15.109375 10.128906 L 15.121094 10.136719 Z M 15.109375 10.128906 L 15.136719 9.917969 L 15.15625 9.917969 L 15.164062 9.921875 L 15.175781 9.925781 L 15.171875 9.925781 L 15.175781 9.925781 L 15.183594 9.933594 L 15.199219 9.933594 L 15.203125 9.9375 L 15.210938 9.941406 L 15.214844 9.941406 L 15.226562 9.945312 L 15.234375 9.953125 L 15.238281 9.953125 L 15.242188 9.960938 L 15.25 9.964844 L 15.265625 9.980469 L 15.269531 9.988281 L 15.097656 10.109375 L 15.09375 10.105469 L 15.097656 10.109375 L 15.09375 10.109375 L 15.097656 10.117188 L 15.09375 10.117188 L 15.097656 10.121094 L 15.085938 10.117188 L 15.097656 10.117188 L 15.09375 10.117188 L 15.097656 10.117188 Z M 15.136719 9.917969 L 15.132812 9.917969 Z M 15.109375 10.128906 L 14.980469 9.960938 L 15.007812 9.933594 L 15.019531 9.925781 L 15.027344 9.925781 L 15.042969 9.921875 L 15.15625 9.921875 L 15.128906 10.132812 L 15.125 10.132812 L 15.128906 10.132812 L 15.121094 10.132812 L 15.128906 10.132812 L 15.121094 10.132812 L 15.125 10.132812 L 15.117188 10.132812 L 15.125 10.132812 L 15.109375 10.132812 L 15.117188 10.132812 L 15.109375 10.132812 L 15.121094 10.128906 L 15.109375 10.128906 L 15.117188 10.128906 L 15.121094 10.125 L 15.117188 10.125 Z M 15.109375 10.128906 Z M 14.269531 10.496094 L 14.980469 9.960938 L 15.109375 10.128906 L 14.398438 10.667969 L 14.230469 10.578125 L 14.269531 10.492188 Z M 14.398438 10.667969 L 14.230469 10.796875 L 14.230469 10.578125 Z M 14.441406 9.734375 L 14.441406 10.578125 L 14.222656 10.578125 L 14.222656 9.734375 Z M 14.230469 9.738281 L 14.230469 9.523438 L 14.265625 9.523438 L 14.273438 9.527344 L 14.285156 9.53125 L 14.292969 9.535156 L 14.300781 9.542969 L 14.3125 9.546875 L 14.320312 9.550781 L 14.324219 9.554688 L 14.335938 9.558594 L 14.34375 9.570312 L 14.367188 9.582031 L 14.375 9.59375 L 14.386719 9.601562 L 14.390625 9.609375 L 14.394531 9.621094 L 14.402344 9.636719 L 14.410156 9.648438 L 14.417969 9.671875 L 14.421875 9.679688 L 14.429688 9.703125 L 14.429688 9.738281 L 14.214844 9.738281 L 14.214844 9.742188 L 14.214844 9.738281 L 14.214844 9.742188 L 14.21875 9.742188 Z M 13.894531 9.523438 L 14.230469 9.523438 L 14.230469 9.738281 L 13.894531 9.738281 Z M 13.894531 9.734375 L 13.679688 9.734375 L 13.679688 9.699219 L 13.691406 9.664062 L 13.695312 9.65625 L 13.699219 9.640625 L 13.707031 9.636719 L 13.71875 9.613281 L 13.730469 9.605469 L 13.742188 9.59375 L 13.746094 9.585938 L 13.757812 9.578125 L 13.773438 9.570312 L 13.785156 9.5625 L 13.800781 9.554688 L 13.8125 9.550781 L 13.828125 9.542969 L 13.839844 9.535156 L 13.847656 9.53125 L 13.890625 9.53125 L 13.890625 9.75 L 13.875 9.75 L 13.878906 9.742188 L 13.875 9.75 L 13.875 9.753906 L 13.875 9.742188 Z M 13.679688 10.578125 L 13.679688 9.734375 L 13.894531 9.734375 L 13.894531 10.578125 L 13.722656 10.667969 L 13.683594 10.578125 Z M 13.894531 10.578125 L 13.894531 10.796875 L 13.722656 10.667969 Z M 13.140625 9.960938 L 13.851562 10.496094 L 13.722656 10.667969 L 13.011719 10.128906 Z M 13.011719 10.128906 L 12.886719 10.039062 Z M 13.015625 10.128906 L 12.984375 9.917969 L 13.089844 9.917969 L 13.101562 9.921875 L 13.105469 9.921875 L 13.117188 9.925781 L 13.128906 9.925781 L 13.136719 9.933594 L 13.140625 9.933594 L 13.148438 9.941406 L 13.15625 9.945312 L 13.164062 9.953125 L 13.167969 9.953125 L 13.171875 9.960938 L 13.042969 10.128906 L 13.039062 10.128906 L 13.042969 10.132812 L 13.039062 10.128906 L 13.042969 10.128906 L 13.039062 10.128906 L 13.042969 10.128906 L 13.035156 10.128906 L 13.042969 10.132812 L 13.035156 10.132812 L 13.039062 10.132812 L 13.027344 10.132812 L 13.035156 10.132812 L 13.03125 10.132812 L 13.035156 10.132812 L 13.027344 10.132812 L 13.035156 10.132812 L 13.027344 10.132812 L 13.03125 10.132812 L 13.027344 10.132812 Z M 12.984375 9.917969 Z M 13.015625 10.128906 L 12.847656 10 L 12.847656 9.996094 L 12.855469 9.988281 L 12.859375 9.980469 L 12.867188 9.976562 L 12.882812 9.960938 L 12.886719 9.960938 L 12.90625 9.941406 L 12.914062 9.9375 L 12.925781 9.9375 L 12.9375 9.933594 L 12.945312 9.933594 L 12.9375 9.933594 L 12.949219 9.925781 L 12.957031 9.921875 L 12.976562 9.921875 L 13.007812 10.132812 L 13.011719 10.132812 L 13.007812 10.132812 L 13.015625 10.132812 L 13.007812 10.136719 L 13.015625 10.132812 L 13.007812 10.132812 L 13.011719 10.132812 L 13.007812 10.132812 L 13.011719 10.128906 Z M 12.847656 10 Z M 12.644531 10.265625 L 12.847656 10 L 13.015625 10.128906 L 12.816406 10.394531 Z M 12.816406 10.390625 L 12.6875 10.5625 L 12.664062 10.539062 L 12.660156 10.527344 L 12.644531 10.511719 L 12.640625 10.5 L 12.636719 10.496094 L 12.632812 10.488281 L 12.625 10.476562 L 12.617188 10.460938 L 12.613281 10.449219 L 12.605469 10.433594 L 12.605469 10.347656 L 12.613281 10.332031 L 12.617188 10.320312 L 12.625 10.304688 L 12.632812 10.292969 L 12.640625 10.277344 L 12.808594 10.40625 L 12.808594 10.414062 L 12.808594 10.410156 L 12.808594 10.414062 L 12.808594 10.410156 L 12.804688 10.410156 L 12.808594 10.410156 Z M 12.6875 10.5625 L 12.699219 10.570312 L 12.691406 10.5625 Z M 13.722656 11.339844 L 12.6875 10.5625 L 12.816406 10.390625 L 13.851562 11.171875 L 13.894531 11.257812 L 13.722656 11.347656 Z M 13.851562 11.171875 L 13.894531 11.203125 L 13.894531 11.257812 Z M 13.683594 12.90625 L 13.683594 11.253906 L 13.898438 11.253906 L 13.898438 12.90625 L 13.835938 13.003906 L 13.6875 12.90625 Z M 13.898438 12.90625 L 13.898438 12.980469 L 13.835938 13.007812 L 13.898438 12.910156 Z M 11.8125 13.613281 L 13.75 12.8125 L 13.835938 13.007812 L 11.898438 13.8125 L 11.78125 13.789062 Z M 11.898438 13.8125 L 11.832031 13.839844 L 11.78125 13.789062 Z M 11.332031 13.039062 L 11.929688 13.636719 L 11.777344 13.789062 L 11.179688 13.191406 Z M 10.761719 12.472656 L 11.332031 13.039062 L 11.179688 13.191406 L 10.609375 12.621094 L 10.578125 12.53125 L 10.757812 12.472656 Z M 10.609375 12.621094 L 10.574219 12.585938 L 10.582031 12.53125 L 10.617188 12.621094 Z M 10.972656 11.273438 L 10.792969 12.5625 L 10.582031 12.535156 L 10.761719 11.246094 Z M 10.972656 11.273438 L 10.984375 11.210938 Z M 10.761719 11.246094 L 10.789062 11.035156 L 10.808594 11.035156 L 10.820312 11.039062 L 10.828125 11.039062 L 10.84375 11.046875 L 10.855469 11.050781 L 10.863281 11.058594 L 10.871094 11.0625 L 10.882812 11.066406 L 10.890625 11.070312 L 10.898438 11.078125 L 10.910156 11.085938 L 10.921875 11.097656 L 10.933594 11.105469 L 10.9375 11.117188 L 10.945312 11.132812 L 10.949219 11.144531 L 10.957031 11.148438 L 10.960938 11.15625 L 10.964844 11.167969 L 10.972656 11.183594 L 10.972656 11.195312 L 10.976562 11.207031 L 10.976562 11.261719 L 10.765625 11.234375 L 10.765625 11.230469 L 10.765625 11.234375 L 10.765625 11.230469 L 10.757812 11.230469 L 10.761719 11.230469 Z M 10.789062 11.035156 L 10.792969 11.035156 L 10.78125 11.035156 Z M 10.453125 10.988281 L 10.789062 11.035156 L 10.761719 11.246094 L 10.425781 11.199219 Z M 10.425781 11.199219 L 10.4375 11.199219 Z M 10.425781 11.199219 L 10.296875 11.027344 L 10.304688 11.023438 L 10.308594 11.023438 L 10.320312 11.011719 L 10.328125 11.011719 L 10.332031 11.007812 L 10.339844 11.007812 L 10.347656 11 L 10.355469 11 L 10.367188 10.996094 L 10.492188 10.996094 L 10.460938 11.207031 L 10.453125 11.207031 L 10.460938 11.207031 L 10.453125 11.207031 L 10.464844 11.207031 L 10.453125 11.207031 L 10.460938 11.207031 L 10.453125 11.207031 L 10.464844 11.207031 L 10.449219 11.207031 L 10.453125 11.207031 L 10.445312 11.207031 L 10.453125 11.203125 L 10.445312 11.203125 L 10.449219 11.203125 L 10.4375 11.203125 L 10.441406 11.199219 Z M 10.296875 11.027344 L 10.308594 11.019531 Z M 10.433594 11.199219 L 10.222656 11.171875 L 10.222656 11.132812 L 10.230469 11.117188 L 10.230469 11.105469 L 10.234375 11.097656 L 10.238281 11.09375 L 10.242188 11.085938 L 10.25 11.074219 L 10.25 11.070312 L 10.265625 11.046875 L 10.269531 11.042969 L 10.277344 11.039062 L 10.285156 11.027344 L 10.289062 11.027344 L 10.417969 11.199219 L 10.425781 11.191406 L 10.421875 11.195312 L 10.425781 11.183594 L 10.425781 11.191406 L 10.421875 11.195312 L 10.433594 11.183594 L 10.425781 11.191406 L 10.425781 11.183594 L 10.425781 11.191406 L 10.425781 11.183594 L 10.425781 11.191406 L 10.425781 11.179688 L 10.425781 11.195312 L 10.425781 11.191406 Z M 10.433594 11.199219 L 10.433594 11.207031 Z M 10.097656 12.046875 L 10.222656 11.167969 L 10.433594 11.195312 L 10.308594 12.074219 L 10.128906 12.136719 L 10.097656 12.042969 Z M 10.308594 12.074219 L 10.28125 12.289062 L 10.128906 12.136719 Z M 9.703125 11.410156 L 10.28125 11.988281 L 10.128906 12.140625 L 9.550781 11.5625 Z M 9.554688 11.5625 L 9.402344 11.410156 L 9.414062 11.402344 L 9.421875 11.390625 L 9.429688 11.382812 L 9.441406 11.378906 L 9.449219 11.375 L 9.457031 11.367188 L 9.46875 11.363281 L 9.484375 11.355469 L 9.496094 11.351562 L 9.605469 11.351562 L 9.613281 11.355469 L 9.625 11.359375 L 9.640625 11.367188 L 9.652344 11.375 L 9.660156 11.378906 L 9.664062 11.382812 L 9.675781 11.386719 L 9.691406 11.402344 L 9.542969 11.550781 L 9.546875 11.550781 L 9.542969 11.550781 Z M 9.554688 11.5625 L 9.578125 11.539062 Z M 9.164062 11.648438 L 9.402344 11.410156 L 9.554688 11.5625 L 9.316406 11.800781 Z M 9.316406 11.800781 L 9.195312 11.917969 Z M 9.316406 11.796875 L 9.164062 11.949219 L 9.15625 11.9375 L 9.144531 11.929688 L 9.140625 11.925781 L 9.132812 11.914062 L 9.125 11.898438 L 9.117188 11.886719 L 9.109375 11.871094 L 9.105469 11.859375 L 9.101562 11.851562 L 9.101562 11.75 L 9.105469 11.742188 L 9.109375 11.730469 L 9.117188 11.714844 L 9.125 11.703125 L 9.132812 11.6875 L 9.140625 11.675781 L 9.144531 11.671875 L 9.15625 11.664062 L 9.164062 11.652344 L 9.316406 11.804688 L 9.3125 11.808594 L 9.316406 11.8125 Z M 9.742188 12.519531 L 9.164062 11.941406 L 9.316406 11.792969 L 9.894531 12.371094 L 9.835938 12.550781 L 9.742188 12.515625 Z M 9.894531 12.371094 L 10.046875 12.519531 L 9.835938 12.554688 L 9.894531 12.375 Z M 8.925781 12.464844 L 9.808594 12.34375 L 9.835938 12.554688 L 8.953125 12.675781 L 8.921875 12.464844 Z M 8.925781 12.464844 L 8.921875 12.464844 Z M 8.960938 12.671875 L 8.785156 12.554688 L 8.789062 12.550781 L 8.789062 12.542969 L 8.828125 12.503906 L 8.835938 12.503906 L 8.84375 12.5 L 8.847656 12.492188 L 8.851562 12.488281 L 8.863281 12.484375 L 8.878906 12.484375 L 8.890625 12.480469 L 8.894531 12.480469 L 8.890625 12.480469 L 8.90625 12.472656 L 8.925781 12.472656 L 8.957031 12.683594 L 8.960938 12.683594 L 8.957031 12.683594 L 8.96875 12.683594 L 8.957031 12.6875 L 8.960938 12.683594 L 8.949219 12.683594 L 8.953125 12.675781 L 8.957031 12.675781 L 8.953125 12.683594 L 8.957031 12.675781 L 8.953125 12.683594 L 8.949219 12.683594 L 8.953125 12.675781 L 8.949219 12.683594 L 8.953125 12.675781 L 8.960938 12.667969 Z M 8.785156 12.554688 L 8.789062 12.550781 Z M 8.957031 12.675781 L 8.746094 12.703125 L 8.746094 12.589844 L 8.75 12.582031 L 8.75 12.578125 L 8.757812 12.566406 L 8.757812 12.558594 L 8.765625 12.542969 L 8.777344 12.53125 L 8.777344 12.527344 L 8.957031 12.644531 L 8.957031 12.640625 L 8.957031 12.648438 L 8.957031 12.640625 L 8.957031 12.644531 L 8.957031 12.640625 L 8.957031 12.648438 L 8.957031 12.644531 L 8.957031 12.65625 L 8.957031 12.644531 L 8.957031 12.65625 L 8.957031 12.648438 L 8.957031 12.660156 L 8.957031 12.648438 Z M 8.746094 12.703125 L 8.746094 12.714844 Z M 8.792969 13.039062 L 8.746094 12.703125 L 8.957031 12.675781 L 9.003906 13.011719 Z M 9.003906 13.011719 L 9.003906 13.023438 L 9.003906 13.007812 Z M 9 13.007812 L 9.027344 13.21875 L 8.960938 13.21875 L 8.945312 13.210938 L 8.933594 13.207031 L 8.925781 13.199219 L 8.917969 13.195312 L 8.90625 13.191406 L 8.902344 13.1875 L 8.894531 13.183594 L 8.882812 13.179688 L 8.875 13.167969 L 8.867188 13.164062 L 8.855469 13.152344 L 8.851562 13.140625 L 8.84375 13.132812 L 8.839844 13.121094 L 8.835938 13.113281 L 8.828125 13.101562 L 8.824219 13.089844 L 8.824219 13.085938 L 8.820312 13.078125 L 8.816406 13.066406 L 8.8125 13.058594 L 8.804688 13.050781 L 8.804688 13.039062 L 9.019531 13.011719 L 9.019531 13.015625 L 9.019531 13.011719 L 9.027344 13.011719 Z M 9.027344 13.21875 L 9.039062 13.21875 Z M 10.316406 13.039062 L 9.027344 13.21875 L 9 13.007812 L 10.289062 12.828125 L 10.382812 12.859375 L 10.320312 13.039062 Z M 10.289062 12.828125 L 10.34375 12.820312 L 10.382812 12.855469 L 10.289062 12.824219 Z M 11.183594 13.96875 L 10.230469 13.011719 L 10.382812 12.859375 L 11.335938 13.816406 Z M 11.183594 13.96875 L 11.097656 13.878906 Z M 11.394531 14.179688 L 11.183594 13.96875 L 11.335938 13.816406 L 11.546875 14.027344 L 11.570312 14.140625 Z M 11.546875 14.027344 L 11.597656 14.078125 L 11.570312 14.140625 Z M 11.160156 14.574219 L 11.375 14.058594 L 11.570312 14.140625 L 11.359375 14.65625 Z M 10.570312 16 L 11.160156 14.574219 L 11.359375 14.65625 L 10.765625 16.085938 L 10.671875 16.148438 L 10.574219 16 Z M 10.765625 16.085938 L 10.738281 16.148438 L 10.667969 16.148438 L 10.761719 16.085938 Z M 9.019531 15.9375 L 10.671875 15.9375 L 10.671875 16.152344 L 9.019531 16.152344 L 8.929688 16.113281 L 9.019531 15.941406 Z M 9.019531 16.152344 L 8.960938 16.152344 L 8.929688 16.113281 Z M 8.320312 14.945312 L 9.105469 15.984375 L 8.933594 16.113281 L 8.148438 15.074219 Z M 8.148438 15.074219 L 8.140625 15.066406 Z M 8.15625 15.074219 L 8.027344 14.90625 L 8.035156 14.898438 L 8.042969 14.894531 L 8.054688 14.890625 L 8.070312 14.882812 L 8.082031 14.875 L 8.097656 14.867188 L 8.191406 14.867188 L 8.199219 14.871094 L 8.210938 14.875 L 8.21875 14.882812 L 8.226562 14.886719 L 8.238281 14.890625 L 8.253906 14.898438 L 8.265625 14.90625 L 8.28125 14.914062 L 8.292969 14.921875 L 8.300781 14.933594 L 8.304688 14.941406 L 8.3125 14.949219 L 8.140625 15.078125 Z M 8.15625 15.074219 L 8.167969 15.066406 Z M 7.753906 15.105469 L 8.027344 14.90625 L 8.15625 15.074219 L 7.882812 15.277344 Z M 7.882812 15.277344 L 7.871094 15.289062 L 7.886719 15.277344 Z M 7.882812 15.273438 L 7.714844 15.398438 L 7.710938 15.390625 L 7.703125 15.382812 L 7.699219 15.371094 L 7.691406 15.355469 L 7.6875 15.34375 L 7.679688 15.335938 L 7.675781 15.328125 L 7.671875 15.316406 L 7.671875 15.25 L 7.675781 15.234375 L 7.675781 15.214844 L 7.679688 15.207031 L 7.6875 15.199219 L 7.691406 15.1875 L 7.699219 15.171875 L 7.703125 15.160156 L 7.714844 15.148438 L 7.722656 15.136719 L 7.730469 15.128906 L 7.742188 15.121094 L 7.75 15.117188 L 7.757812 15.109375 L 7.886719 15.28125 L 7.894531 15.277344 L 7.894531 15.265625 L 7.894531 15.273438 Z M 7.882812 15.273438 L 7.878906 15.265625 Z M 8.25 16.113281 L 7.714844 15.398438 L 7.882812 15.273438 L 8.421875 15.984375 L 8.332031 16.152344 L 8.246094 16.113281 Z M 8.421875 15.984375 L 8.550781 16.152344 L 8.332031 16.152344 Z M 7.519531 15.941406 L 8.339844 15.941406 L 8.339844 16.15625 L 7.519531 16.15625 Z M 7.527344 16.152344 L 7.308594 16.152344 L 7.308594 16.117188 L 7.3125 16.105469 L 7.320312 16.09375 L 7.324219 16.085938 L 7.328125 16.074219 L 7.335938 16.058594 L 7.34375 16.046875 L 7.351562 16.03125 L 7.355469 16.019531 L 7.363281 16.011719 L 7.371094 16.007812 L 7.375 16 L 7.382812 15.992188 L 7.390625 15.988281 L 7.402344 15.984375 L 7.410156 15.980469 L 7.417969 15.972656 L 7.429688 15.96875 L 7.4375 15.964844 L 7.449219 15.960938 L 7.457031 15.957031 L 7.46875 15.953125 L 7.480469 15.945312 L 7.515625 15.945312 L 7.515625 16.164062 L 7.519531 16.164062 L 7.519531 16.15625 Z M 7.308594 16.488281 L 7.308594 16.152344 L 7.527344 16.152344 L 7.527344 16.488281 Z M 7.519531 16.484375 L 7.519531 16.699219 L 7.484375 16.699219 L 7.476562 16.695312 L 7.460938 16.691406 L 7.453125 16.6875 L 7.441406 16.679688 L 7.425781 16.671875 L 7.414062 16.667969 L 7.398438 16.660156 L 7.386719 16.652344 L 7.359375 16.625 L 7.351562 16.609375 L 7.347656 16.597656 L 7.34375 16.589844 L 7.335938 16.582031 L 7.332031 16.570312 L 7.324219 16.554688 L 7.320312 16.539062 L 7.3125 16.53125 L 7.3125 16.492188 L 7.53125 16.492188 L 7.53125 16.488281 L 7.527344 16.488281 Z M 8.339844 16.699219 L 7.519531 16.699219 L 7.519531 16.484375 L 8.339844 16.484375 L 8.425781 16.652344 L 8.339844 16.695312 Z M 8.339844 16.484375 L 8.554688 16.484375 L 8.425781 16.652344 Z M 7.71875 17.238281 L 8.253906 16.523438 L 8.425781 16.652344 L 7.886719 17.367188 Z M 7.886719 17.367188 L 7.757812 17.535156 L 7.742188 17.527344 L 7.714844 17.5 L 7.710938 17.492188 L 7.703125 17.488281 L 7.695312 17.472656 L 7.691406 17.460938 L 7.6875 17.453125 L 7.679688 17.445312 L 7.675781 17.433594 L 7.675781 17.414062 L 7.671875 17.402344 L 7.671875 17.332031 L 7.679688 17.316406 L 7.6875 17.304688 L 7.695312 17.289062 L 7.699219 17.273438 L 7.703125 17.265625 L 7.710938 17.253906 L 7.714844 17.246094 L 7.882812 17.375 L 7.882812 17.371094 L 7.882812 17.378906 L 7.882812 17.371094 L 7.882812 17.375 L 7.882812 17.371094 Z M 7.757812 17.535156 L 7.765625 17.539062 Z M 8.03125 17.738281 L 7.757812 17.535156 L 7.886719 17.367188 L 8.160156 17.566406 Z M 8.03125 17.738281 L 8.210938 17.871094 Z M 8.160156 17.5625 L 8.1875 17.773438 L 8.191406 17.773438 L 8.09375 17.773438 L 8.097656 17.773438 L 8.089844 17.773438 L 8.082031 17.769531 L 8.070312 17.769531 L 8.058594 17.765625 L 8.050781 17.765625 L 8.039062 17.761719 L 8.035156 17.753906 L 8.019531 17.746094 L 8.015625 17.746094 L 8.007812 17.738281 L 8.136719 17.566406 L 8.140625 17.566406 L 8.136719 17.566406 L 8.132812 17.5625 L 8.136719 17.566406 L 8.132812 17.566406 L 8.140625 17.566406 L 8.132812 17.5625 L 8.140625 17.5625 L 8.132812 17.5625 L 8.140625 17.5625 L 8.132812 17.5625 L 8.136719 17.5625 L 8.128906 17.5625 L 8.140625 17.5625 L 8.132812 17.5625 Z M 8.15625 17.5625 L 8.160156 17.5625 Z M 8.15625 17.5625 L 8.324219 17.691406 L 8.316406 17.699219 L 8.3125 17.707031 L 8.304688 17.710938 L 8.28125 17.734375 L 8.277344 17.734375 L 8.273438 17.738281 L 8.269531 17.738281 L 8.261719 17.742188 L 8.25 17.746094 L 8.246094 17.746094 L 8.238281 17.75 L 8.234375 17.75 L 8.222656 17.753906 L 8.214844 17.753906 L 8.203125 17.761719 L 8.183594 17.761719 L 8.15625 17.550781 L 8.160156 17.550781 L 8.15625 17.550781 L 8.164062 17.550781 L 8.160156 17.550781 L 8.167969 17.550781 L 8.164062 17.550781 L 8.167969 17.550781 L 8.164062 17.550781 L 8.160156 17.554688 L 8.164062 17.554688 L 8.160156 17.554688 L 8.164062 17.554688 Z M 8.324219 17.691406 L 8.277344 17.75 Z M 9.105469 16.652344 L 8.324219 17.691406 L 8.15625 17.5625 L 8.933594 16.523438 L 9.023438 16.484375 L 9.109375 16.652344 Z M 8.933594 16.523438 L 8.96875 16.484375 L 9.023438 16.484375 Z M 10.671875 16.695312 L 9.019531 16.695312 L 9.019531 16.480469 L 10.671875 16.480469 L 10.765625 16.542969 L 10.671875 16.691406 Z M 10.671875 16.480469 L 10.746094 16.480469 L 10.773438 16.542969 L 10.675781 16.480469 Z M 11.160156 18.054688 L 10.570312 16.625 L 10.765625 16.542969 L 11.359375 17.972656 Z M 11.375 18.570312 L 11.160156 18.054688 L 11.359375 17.972656 L 11.570312 18.484375 L 11.546875 18.601562 L 11.375 18.5625 Z M 11.570312 18.484375 L 11.597656 18.550781 L 11.546875 18.601562 Z M 11.183594 18.664062 L 11.394531 18.453125 L 11.546875 18.605469 L 11.335938 18.816406 Z M 10.230469 19.621094 L 11.183594 18.664062 L 11.335938 18.816406 L 10.382812 19.769531 L 10.289062 19.804688 L 10.230469 19.625 Z M 10.382812 19.769531 L 10.34375 19.808594 L 10.289062 19.800781 L 10.382812 19.765625 Z M 9.03125 19.410156 L 10.320312 19.585938 L 10.292969 19.800781 L 9.003906 19.621094 L 9.035156 19.410156 Z M 9.003906 19.621094 L 8.984375 19.617188 Z M 9.007812 19.617188 L 8.796875 19.585938 L 8.796875 19.570312 L 8.800781 19.558594 L 8.804688 19.550781 L 8.8125 19.542969 L 8.816406 19.53125 L 8.824219 19.515625 L 8.828125 19.503906 L 8.835938 19.496094 L 8.839844 19.488281 L 8.847656 19.476562 L 8.855469 19.46875 L 8.867188 19.464844 L 8.875 19.460938 L 8.882812 19.449219 L 8.894531 19.445312 L 8.898438 19.441406 L 8.90625 19.4375 L 8.917969 19.429688 L 8.925781 19.425781 L 8.941406 19.421875 L 8.949219 19.417969 L 8.957031 19.417969 L 8.972656 19.414062 L 9.035156 19.414062 L 9.003906 19.625 L 9 19.625 L 9.003906 19.625 L 9 19.625 L 9.011719 19.625 L 9.011719 19.628906 Z M 9.007812 19.617188 L 9.007812 19.601562 Z M 8.75 19.921875 L 8.796875 19.585938 L 9.007812 19.617188 L 8.960938 19.949219 Z M 8.75 19.921875 L 8.75 19.914062 Z M 8.960938 19.949219 L 8.792969 20.078125 L 8.789062 20.074219 L 8.789062 20.070312 L 8.785156 20.066406 L 8.777344 20.0625 L 8.773438 20.054688 L 8.769531 20.050781 L 8.765625 20.042969 L 8.765625 20.03125 L 8.761719 20.023438 L 8.761719 20.019531 L 8.757812 20.011719 L 8.757812 19.894531 L 8.96875 19.921875 L 8.96875 19.925781 L 8.96875 19.917969 L 8.96875 19.925781 L 8.96875 19.921875 L 8.96875 19.933594 L 8.96875 19.921875 L 8.96875 19.933594 L 8.96875 19.925781 L 8.96875 19.9375 L 8.96875 19.933594 L 8.96875 19.9375 L 8.96875 19.925781 L 8.96875 19.9375 L 8.96875 19.933594 L 8.960938 19.925781 Z M 8.792969 20.078125 L 8.789062 20.074219 Z M 8.960938 19.949219 L 8.933594 20.160156 L 8.917969 20.160156 L 8.90625 20.15625 L 8.898438 20.15625 L 8.890625 20.152344 L 8.878906 20.148438 L 8.871094 20.148438 L 8.855469 20.140625 L 8.851562 20.132812 L 8.824219 20.105469 L 8.820312 20.105469 L 8.8125 20.097656 L 8.804688 20.09375 L 8.796875 20.082031 L 8.796875 20.078125 L 8.96875 19.949219 L 8.960938 19.945312 L 8.96875 19.945312 L 8.960938 19.945312 L 8.96875 19.945312 L 8.960938 19.945312 L 8.96875 19.945312 L 8.960938 19.945312 L 8.972656 19.945312 L 8.96875 19.945312 L 8.976562 19.945312 L 8.972656 19.945312 Z M 8.933594 20.160156 L 8.925781 20.160156 Z M 9.816406 20.285156 L 8.933594 20.160156 L 8.960938 19.949219 L 9.84375 20.074219 L 9.902344 20.253906 L 9.8125 20.285156 Z M 9.84375 20.074219 L 10.054688 20.101562 L 9.902344 20.253906 Z M 9.179688 20.679688 L 9.757812 20.101562 L 9.910156 20.253906 L 9.328125 20.832031 Z M 9.179688 20.679688 Z M 9.328125 20.828125 L 9.179688 20.980469 L 9.136719 20.9375 L 9.132812 20.929688 L 9.128906 20.917969 L 9.125 20.910156 L 9.117188 20.902344 L 9.113281 20.890625 L 9.109375 20.882812 L 9.109375 20.789062 L 9.117188 20.773438 L 9.125 20.761719 L 9.132812 20.746094 L 9.136719 20.734375 L 9.140625 20.726562 L 9.152344 20.71875 L 9.15625 20.710938 L 9.164062 20.703125 L 9.175781 20.695312 L 9.324219 20.847656 L 9.324219 20.839844 L 9.320312 20.847656 L 9.320312 20.855469 L 9.320312 20.851562 L 9.324219 20.855469 Z M 9.328125 20.828125 Z M 9.417969 21.21875 L 9.179688 20.980469 L 9.328125 20.828125 L 9.570312 21.066406 Z M 9.5625 21.066406 L 9.714844 21.21875 L 9.699219 21.234375 L 9.6875 21.242188 L 9.679688 21.246094 L 9.667969 21.25 L 9.652344 21.257812 L 9.640625 21.261719 L 9.632812 21.269531 L 9.625 21.273438 L 9.613281 21.273438 L 9.605469 21.277344 L 9.53125 21.277344 L 9.523438 21.273438 L 9.511719 21.273438 L 9.503906 21.269531 L 9.496094 21.261719 L 9.484375 21.257812 L 9.480469 21.253906 L 9.457031 21.242188 L 9.449219 21.234375 L 9.441406 21.230469 L 9.429688 21.226562 L 9.421875 21.21875 L 9.574219 21.066406 L 9.570312 21.066406 L 9.574219 21.066406 Z M 9.714844 21.21875 Z M 10.292969 20.640625 L 9.714844 21.21875 L 9.5625 21.066406 L 10.144531 20.488281 L 10.320312 20.546875 L 10.289062 20.640625 Z M 10.144531 20.488281 L 10.292969 20.335938 L 10.320312 20.546875 Z M 10.234375 21.460938 L 10.109375 20.578125 L 10.320312 20.550781 L 10.445312 21.433594 Z M 10.445312 21.433594 L 10.445312 21.425781 Z M 10.445312 21.433594 L 10.316406 21.601562 L 10.3125 21.601562 L 10.304688 21.59375 L 10.296875 21.589844 L 10.289062 21.582031 L 10.285156 21.574219 L 10.277344 21.566406 L 10.277344 21.5625 L 10.269531 21.558594 L 10.265625 21.546875 L 10.261719 21.542969 L 10.261719 21.535156 L 10.257812 21.53125 L 10.257812 21.519531 L 10.253906 21.515625 L 10.253906 21.511719 L 10.25 21.503906 L 10.25 21.464844 L 10.460938 21.4375 L 10.460938 21.433594 L 10.460938 21.449219 L 10.460938 21.4375 L 10.460938 21.453125 L 10.453125 21.449219 L 10.453125 21.453125 L 10.449219 21.449219 Z M 10.316406 21.601562 L 10.328125 21.613281 Z M 10.445312 21.433594 L 10.476562 21.644531 L 10.390625 21.644531 L 10.375 21.640625 L 10.359375 21.640625 L 10.34375 21.636719 L 10.339844 21.636719 L 10.332031 21.632812 L 10.320312 21.632812 L 10.316406 21.625 L 10.3125 21.625 L 10.308594 21.621094 L 10.296875 21.613281 L 10.292969 21.613281 L 10.289062 21.609375 L 10.417969 21.4375 L 10.421875 21.4375 L 10.417969 21.433594 L 10.433594 21.433594 L 10.425781 21.433594 L 10.4375 21.433594 L 10.425781 21.429688 L 10.445312 21.429688 L 10.4375 21.429688 L 10.441406 21.429688 L 10.4375 21.429688 L 10.445312 21.429688 L 10.4375 21.429688 L 10.449219 21.429688 L 10.441406 21.429688 L 10.445312 21.429688 Z M 10.476562 21.644531 L 10.449219 21.648438 Z M 10.8125 21.597656 L 10.476562 21.644531 L 10.445312 21.433594 L 10.78125 21.386719 L 10.808594 21.597656 Z M 10.78125 21.386719 L 10.785156 21.386719 Z M 10.78125 21.390625 L 10.992188 21.363281 L 10.992188 21.417969 L 10.988281 21.433594 L 10.988281 21.441406 L 10.984375 21.453125 L 10.976562 21.460938 L 10.972656 21.46875 L 10.96875 21.480469 L 10.960938 21.488281 L 10.957031 21.496094 L 10.945312 21.507812 L 10.9375 21.523438 L 10.929688 21.535156 L 10.917969 21.539062 L 10.914062 21.542969 L 10.90625 21.546875 L 10.894531 21.558594 L 10.878906 21.566406 L 10.867188 21.570312 L 10.855469 21.582031 L 10.84375 21.585938 L 10.835938 21.589844 L 10.8125 21.589844 L 10.785156 21.378906 L 10.789062 21.378906 L 10.785156 21.378906 L 10.785156 21.382812 L 10.785156 21.378906 L 10.785156 21.382812 L 10.785156 21.375 Z M 10.992188 21.363281 L 10.988281 21.347656 Z M 10.8125 20.074219 L 10.992188 21.363281 L 10.78125 21.390625 L 10.601562 20.101562 L 10.632812 20.011719 L 10.8125 20.070312 Z M 10.601562 20.101562 L 10.59375 20.046875 L 10.628906 20.011719 L 10.597656 20.101562 Z M 11.351562 19.59375 L 10.78125 20.160156 L 10.628906 20.011719 L 11.199219 19.441406 Z M 11.945312 18.996094 L 11.351562 19.59375 L 11.199219 19.441406 L 11.796875 18.84375 L 11.910156 18.820312 Z M 11.796875 18.84375 L 11.847656 18.792969 L 11.910156 18.820312 Z M 13.769531 19.820312 L 11.832031 19.019531 L 11.914062 18.820312 L 13.851562 19.625 L 13.917969 19.722656 L 13.769531 19.816406 Z M 13.851562 19.625 L 13.917969 19.652344 L 13.917969 19.726562 L 13.851562 19.628906 Z M 13.707031 21.375 L 13.707031 19.722656 L 13.921875 19.722656 L 13.921875 21.375 L 13.878906 21.460938 L 13.710938 21.375 Z M 13.921875 21.375 L 13.921875 21.429688 L 13.878906 21.460938 Z M 12.714844 22.070312 L 13.75 21.285156 L 13.878906 21.457031 L 12.84375 22.242188 Z M 12.84375 22.242188 L 12.832031 22.25 L 12.847656 22.242188 Z M 12.84375 22.238281 L 12.671875 22.367188 L 12.667969 22.355469 L 12.660156 22.339844 L 12.652344 22.328125 L 12.648438 22.320312 L 12.644531 22.308594 L 12.636719 22.292969 L 12.636719 22.210938 L 12.640625 22.199219 L 12.648438 22.183594 L 12.652344 22.171875 L 12.660156 22.164062 L 12.664062 22.15625 L 12.667969 22.144531 L 12.671875 22.136719 L 12.675781 22.125 L 12.691406 22.109375 L 12.699219 22.097656 L 12.710938 22.089844 L 12.726562 22.082031 L 12.855469 22.25 L 12.855469 22.253906 L 12.855469 22.25 Z M 12.84375 22.238281 L 12.949219 22.378906 Z M 12.875 22.636719 L 12.671875 22.367188 L 12.84375 22.238281 L 13.042969 22.507812 Z M 12.875 22.636719 L 12.867188 22.628906 Z M 13.039062 22.507812 L 13.011719 22.71875 L 12.988281 22.71875 L 12.972656 22.710938 L 12.957031 22.710938 L 12.949219 22.707031 L 12.9375 22.699219 L 12.929688 22.699219 L 12.914062 22.691406 L 12.902344 22.679688 L 12.898438 22.671875 L 12.894531 22.667969 L 12.886719 22.664062 L 12.882812 22.660156 L 12.875 22.648438 L 12.875 22.644531 L 13.042969 22.515625 L 13.039062 22.511719 L 13.042969 22.515625 L 13.039062 22.511719 L 13.050781 22.511719 L 13.054688 22.515625 L 13.050781 22.511719 L 13.042969 22.511719 L 13.058594 22.511719 L 13.050781 22.511719 L 13.054688 22.511719 L 13.042969 22.511719 Z M 13.011719 22.71875 L 13.007812 22.71875 L 13.011719 22.71875 L 13.007812 22.71875 Z M 13.039062 22.507812 L 13.167969 22.679688 L 13.164062 22.683594 L 13.160156 22.683594 L 13.15625 22.6875 L 13.148438 22.691406 L 13.132812 22.707031 L 13.121094 22.707031 L 13.113281 22.710938 L 13.101562 22.710938 L 13.089844 22.714844 L 13.09375 22.714844 L 13.085938 22.71875 L 13.078125 22.71875 L 13.082031 22.71875 L 13 22.71875 L 13.027344 22.507812 L 13.023438 22.507812 L 13.03125 22.507812 L 13.023438 22.507812 L 13.03125 22.507812 L 13.027344 22.507812 L 13.03125 22.507812 L 13.023438 22.507812 L 13.03125 22.507812 L 13.023438 22.507812 L 13.03125 22.507812 L 13.027344 22.507812 L 13.03125 22.507812 L 13.027344 22.507812 L 13.035156 22.507812 L 13.03125 22.507812 L 13.027344 22.511719 Z M 13.167969 22.679688 L 13.164062 22.683594 Z M 13.878906 22.140625 L 13.167969 22.679688 L 13.039062 22.507812 L 13.75 21.972656 L 13.921875 22.058594 L 13.878906 22.144531 Z M 13.75 21.972656 L 13.921875 21.84375 L 13.921875 22.058594 Z M 13.710938 22.902344 L 13.710938 22.058594 L 13.925781 22.058594 L 13.925781 22.902344 Z M 13.921875 22.902344 L 13.921875 23.117188 L 13.878906 23.117188 L 13.863281 23.109375 L 13.851562 23.105469 L 13.84375 23.101562 L 13.835938 23.09375 L 13.828125 23.089844 L 13.816406 23.085938 L 13.800781 23.078125 L 13.792969 23.066406 L 13.785156 23.058594 L 13.777344 23.054688 L 13.773438 23.050781 L 13.765625 23.039062 L 13.757812 23.03125 L 13.75 23.027344 L 13.746094 23.019531 L 13.742188 23.007812 L 13.738281 23.003906 L 13.734375 22.988281 L 13.730469 22.980469 L 13.722656 22.972656 L 13.71875 22.957031 L 13.714844 22.949219 L 13.714844 22.910156 L 13.929688 22.910156 L 13.929688 22.902344 L 13.929688 22.910156 L 13.921875 22.902344 L 13.925781 22.90625 L 13.921875 22.90625 L 13.929688 22.90625 Z M 14.257812 23.117188 L 13.921875 23.117188 L 13.921875 22.902344 L 14.257812 22.902344 Z M 14.257812 22.90625 L 14.472656 22.90625 L 14.472656 22.945312 L 14.46875 22.953125 L 14.464844 22.96875 L 14.457031 22.976562 L 14.453125 22.984375 L 14.449219 23 L 14.445312 23.007812 L 14.441406 23.011719 L 14.4375 23.023438 L 14.429688 23.03125 L 14.425781 23.039062 L 14.417969 23.050781 L 14.410156 23.058594 L 14.394531 23.066406 L 14.386719 23.078125 L 14.375 23.082031 L 14.351562 23.09375 L 14.339844 23.101562 L 14.332031 23.105469 L 14.296875 23.117188 L 14.261719 23.117188 L 14.261719 22.902344 L 14.253906 22.902344 L 14.261719 22.902344 L 14.261719 22.90625 L 14.261719 22.902344 L 14.261719 22.90625 Z M 14.472656 22.0625 L 14.472656 22.90625 L 14.257812 22.90625 L 14.257812 22.0625 L 14.425781 21.976562 L 14.46875 22.0625 Z M 14.257812 22.0625 L 14.257812 21.847656 L 14.425781 21.976562 Z M 15.007812 22.683594 L 14.296875 22.144531 L 14.425781 21.976562 L 15.136719 22.511719 L 15.015625 22.6875 Z M 15.015625 22.6875 L 15.007812 22.683594 Z M 15.132812 22.511719 L 15.164062 22.722656 L 15.074219 22.722656 L 15.078125 22.722656 L 15.070312 22.722656 L 15.058594 22.71875 L 15.066406 22.71875 L 15.054688 22.71875 L 15.046875 22.714844 L 15.039062 22.714844 L 15.027344 22.710938 L 15.019531 22.710938 L 15.007812 22.707031 L 15 22.699219 L 14.996094 22.699219 L 14.988281 22.695312 L 15.109375 22.523438 L 15.117188 22.523438 L 15.109375 22.515625 L 15.117188 22.515625 L 15.109375 22.511719 L 15.117188 22.515625 L 15.109375 22.511719 L 15.121094 22.511719 L 15.117188 22.511719 L 15.125 22.511719 L 15.117188 22.511719 L 15.125 22.511719 L 15.117188 22.511719 L 15.125 22.511719 L 15.117188 22.511719 L 15.125 22.511719 L 15.121094 22.511719 L 15.128906 22.511719 L 15.121094 22.511719 L 15.128906 22.511719 L 15.121094 22.511719 Z M 15.164062 22.722656 L 15.15625 22.722656 Z M 15.132812 22.511719 L 15.304688 22.640625 L 15.300781 22.644531 L 15.292969 22.648438 L 15.289062 22.65625 L 15.277344 22.667969 L 15.269531 22.671875 L 15.261719 22.683594 L 15.25 22.695312 L 15.242188 22.695312 L 15.238281 22.699219 L 15.234375 22.707031 L 15.226562 22.710938 L 15.214844 22.714844 L 15.203125 22.714844 L 15.191406 22.71875 L 15.183594 22.722656 L 15.164062 22.722656 L 15.132812 22.511719 L 15.128906 22.511719 L 15.132812 22.511719 L 15.125 22.511719 L 15.136719 22.511719 L 15.132812 22.511719 L 15.128906 22.515625 L 15.132812 22.511719 L 15.128906 22.511719 L 15.132812 22.511719 L 15.128906 22.515625 Z M 15.132812 22.511719 L 15.136719 22.507812 Z M 15.511719 22.371094 L 15.308594 22.640625 L 15.136719 22.511719 L 15.339844 22.242188 Z M 15.339844 22.242188 L 15.332031 22.253906 L 15.339844 22.246094 Z M 15.339844 22.246094 L 15.46875 22.078125 L 15.476562 22.082031 L 15.488281 22.085938 L 15.496094 22.09375 L 15.503906 22.105469 L 15.515625 22.117188 L 15.519531 22.125 L 15.523438 22.136719 L 15.527344 22.144531 L 15.53125 22.15625 L 15.539062 22.164062 L 15.542969 22.171875 L 15.546875 22.183594 L 15.550781 22.191406 L 15.550781 22.273438 L 15.546875 22.289062 L 15.539062 22.304688 L 15.53125 22.316406 L 15.523438 22.332031 L 15.519531 22.34375 L 15.511719 22.359375 L 15.339844 22.234375 L 15.339844 22.222656 L 15.339844 22.226562 L 15.339844 22.222656 L 15.34375 22.226562 Z M 15.339844 22.246094 L 15.335938 22.242188 Z M 14.425781 21.292969 L 15.464844 22.078125 L 15.335938 22.246094 L 14.296875 21.460938 L 14.257812 21.375 L 14.425781 21.285156 Z M 14.296875 21.460938 L 14.257812 21.429688 L 14.257812 21.375 Z M 14.46875 20.824219 L 14.46875 21.375 L 14.253906 21.375 L 14.253906 20.824219 L 14.359375 20.71875 L 14.464844 20.824219 Z M 14.253906 20.824219 L 14.253906 20.71875 L 14.359375 20.71875 Z M 14.390625 20.929688 L 14.359375 20.929688 L 14.359375 20.710938 L 14.390625 20.710938 L 14.496094 20.816406 L 14.390625 20.925781 Z M 14.496094 20.824219 L 14.496094 20.929688 L 14.390625 20.929688 Z M 14.496094 19.769531 L 14.496094 20.824219 L 14.28125 20.824219 L 14.28125 19.769531 L 14.34375 19.675781 L 14.492188 19.769531 Z M 14.28125 19.769531 L 14.28125 19.699219 L 14.34375 19.671875 L 14.28125 19.765625 Z M 16.367188 19.0625 L 14.425781 19.867188 L 14.34375 19.671875 L 16.285156 18.867188 L 16.402344 18.890625 L 16.363281 19.0625 Z M 16.285156 18.867188 L 16.351562 18.839844 L 16.402344 18.890625 Z M 16.851562 19.636719 L 16.253906 19.042969 L 16.40625 18.890625 L 17.003906 19.488281 Z M 16.851562 19.636719 L 16.96875 19.757812 Z M 17.421875 20.207031 L 16.851562 19.636719 L 17.003906 19.488281 L 17.570312 20.054688 L 17.605469 20.148438 L 17.425781 20.207031 Z M 17.570312 20.054688 L 17.609375 20.09375 L 17.597656 20.148438 L 17.566406 20.054688 Z M 17.210938 21.40625 L 17.386719 20.117188 L 17.597656 20.144531 L 17.421875 21.433594 Z M 17.210938 21.40625 L 17.203125 21.453125 Z M 17.421875 21.433594 L 17.386719 21.644531 L 17.371094 21.644531 L 17.355469 21.640625 L 17.347656 21.636719 L 17.335938 21.632812 L 17.328125 21.625 L 17.320312 21.621094 L 17.308594 21.617188 L 17.292969 21.609375 L 17.269531 21.585938 L 17.265625 21.574219 L 17.246094 21.554688 L 17.238281 21.53125 L 17.230469 21.519531 L 17.226562 21.515625 L 17.222656 21.507812 L 17.21875 21.492188 L 17.214844 21.484375 L 17.214844 21.480469 L 17.210938 21.46875 L 17.210938 21.410156 L 17.421875 21.4375 L 17.421875 21.449219 L 17.421875 21.4375 L 17.421875 21.441406 L 17.425781 21.441406 Z M 17.421875 21.433594 L 17.394531 21.429688 Z M 17.722656 21.691406 L 17.386719 21.644531 L 17.421875 21.433594 L 17.753906 21.480469 L 17.726562 21.691406 Z M 17.722656 21.691406 L 17.710938 21.691406 Z M 17.75 21.480469 L 17.878906 21.648438 L 17.875 21.652344 L 17.871094 21.660156 L 17.867188 21.660156 L 17.859375 21.664062 L 17.851562 21.671875 L 17.84375 21.675781 L 17.832031 21.675781 L 17.824219 21.679688 L 17.820312 21.679688 L 17.808594 21.6875 L 17.800781 21.691406 L 17.699219 21.691406 L 17.726562 21.480469 L 17.734375 21.480469 L 17.722656 21.480469 L 17.738281 21.480469 L 17.726562 21.480469 L 17.742188 21.480469 L 17.734375 21.480469 L 17.746094 21.480469 L 17.738281 21.480469 L 17.746094 21.480469 L 17.742188 21.480469 L 17.75 21.480469 L 17.746094 21.484375 L 17.742188 21.484375 L 17.746094 21.480469 L 17.742188 21.480469 Z M 17.878906 21.648438 L 17.871094 21.660156 Z M 17.75 21.480469 L 17.960938 21.507812 L 17.960938 21.523438 L 17.957031 21.535156 L 17.953125 21.542969 L 17.953125 21.539062 L 17.953125 21.542969 L 17.949219 21.558594 L 17.949219 21.566406 L 17.945312 21.574219 L 17.925781 21.59375 L 17.925781 21.597656 L 17.921875 21.601562 L 17.917969 21.609375 L 17.910156 21.613281 L 17.886719 21.636719 L 17.882812 21.636719 L 17.753906 21.464844 L 17.75 21.46875 L 17.75 21.464844 L 17.75 21.46875 L 17.75 21.460938 L 17.746094 21.46875 L 17.75 21.460938 L 17.75 21.46875 L 17.75 21.464844 Z M 17.960938 21.507812 L 17.960938 21.503906 Z M 18.085938 20.625 L 17.960938 21.507812 L 17.75 21.480469 L 17.875 20.597656 L 18.054688 20.539062 L 18.085938 20.628906 Z M 17.875 20.597656 L 17.902344 20.386719 L 18.054688 20.539062 Z M 18.480469 21.261719 L 17.902344 20.683594 L 18.054688 20.535156 L 18.632812 21.113281 Z M 18.628906 21.113281 L 18.78125 21.261719 L 18.769531 21.269531 L 18.761719 21.277344 L 18.75 21.28125 L 18.738281 21.292969 L 18.730469 21.296875 L 18.71875 21.300781 L 18.703125 21.308594 L 18.691406 21.3125 L 18.582031 21.3125 L 18.574219 21.308594 L 18.5625 21.304688 L 18.546875 21.296875 L 18.535156 21.292969 L 18.523438 21.28125 L 18.511719 21.277344 L 18.496094 21.261719 L 18.644531 21.113281 Z M 19.019531 21.023438 L 18.78125 21.261719 L 18.628906 21.113281 L 18.867188 20.875 Z M 18.867188 20.878906 L 19.019531 20.726562 L 19.027344 20.734375 L 19.035156 20.746094 L 19.042969 20.75 L 19.050781 20.757812 L 19.054688 20.769531 L 19.0625 20.785156 L 19.070312 20.796875 L 19.078125 20.8125 L 19.082031 20.824219 L 19.082031 20.914062 L 19.078125 20.925781 L 19.070312 20.941406 L 19.0625 20.953125 L 19.054688 20.96875 L 19.050781 20.980469 L 19.042969 20.988281 L 19.035156 20.992188 L 19.027344 21 L 19.019531 21.011719 L 18.867188 20.859375 L 18.871094 20.855469 L 18.871094 20.847656 L 18.867188 20.839844 Z M 18.441406 20.148438 L 19.019531 20.726562 L 18.867188 20.878906 L 18.289062 20.300781 L 18.347656 20.121094 L 18.441406 20.152344 Z M 18.289062 20.300781 L 18.136719 20.148438 L 18.347656 20.121094 Z M 19.257812 20.207031 L 18.375 20.332031 L 18.347656 20.121094 L 19.230469 19.996094 Z M 19.230469 19.996094 L 19.242188 19.996094 Z M 19.226562 20 L 19.398438 20.125 L 19.390625 20.132812 L 19.386719 20.140625 L 19.378906 20.144531 L 19.371094 20.152344 L 19.367188 20.152344 L 19.351562 20.160156 L 19.347656 20.167969 L 19.339844 20.171875 L 19.332031 20.179688 L 19.320312 20.183594 L 19.3125 20.183594 L 19.304688 20.1875 L 19.253906 20.1875 L 19.226562 19.976562 L 19.21875 19.976562 L 19.230469 19.976562 L 19.21875 19.976562 L 19.230469 19.976562 L 19.226562 19.976562 L 19.234375 19.976562 L 19.230469 19.976562 L 19.226562 19.984375 L 19.230469 19.976562 L 19.226562 19.984375 Z M 19.398438 20.125 L 19.390625 20.140625 L 19.402344 20.121094 Z M 19.226562 20 L 19.4375 19.972656 L 19.4375 20.089844 L 19.429688 20.097656 L 19.429688 20.101562 L 19.425781 20.109375 L 19.425781 20.121094 L 19.421875 20.128906 L 19.417969 20.132812 L 19.414062 20.140625 L 19.410156 20.144531 L 19.402344 20.148438 L 19.402344 20.152344 L 19.230469 20.027344 L 19.226562 20.03125 L 19.226562 20.023438 L 19.226562 20.027344 L 19.226562 20.019531 L 19.226562 20.023438 L 19.226562 20.019531 L 19.226562 20.027344 L 19.226562 20.023438 L 19.226562 20.027344 L 19.226562 20.019531 L 19.226562 20.027344 L 19.226562 20.019531 L 19.226562 20.027344 L 19.226562 20.019531 L 19.226562 20.023438 Z M 19.226562 20 L 19.226562 20.003906 Z M 19.390625 19.632812 L 19.4375 19.96875 L 19.226562 19.996094 L 19.179688 19.660156 L 19.390625 19.628906 Z M 19.390625 19.632812 L 19.390625 19.625 Z M 19.179688 19.664062 L 19.152344 19.453125 L 19.21875 19.453125 L 19.230469 19.460938 L 19.238281 19.460938 L 19.246094 19.464844 L 19.257812 19.46875 L 19.273438 19.476562 L 19.285156 19.480469 L 19.292969 19.488281 L 19.304688 19.492188 L 19.308594 19.496094 L 19.316406 19.5 L 19.335938 19.519531 L 19.339844 19.527344 L 19.34375 19.53125 L 19.351562 19.542969 L 19.359375 19.550781 L 19.363281 19.558594 L 19.367188 19.570312 L 19.375 19.585938 L 19.378906 19.597656 L 19.386719 19.605469 L 19.390625 19.617188 L 19.394531 19.625 L 19.394531 19.632812 L 19.183594 19.664062 L 19.1875 19.671875 L 19.183594 19.671875 L 19.1875 19.671875 L 19.183594 19.671875 Z M 17.859375 19.632812 L 19.148438 19.453125 L 19.175781 19.664062 L 17.886719 19.84375 L 17.796875 19.8125 L 17.855469 19.632812 Z M 17.886719 19.84375 L 17.839844 19.855469 L 17.800781 19.816406 L 17.894531 19.847656 Z M 16.992188 18.710938 L 17.949219 19.664062 L 17.796875 19.816406 L 16.839844 18.863281 Z M 16.839844 18.863281 L 16.75 18.769531 Z M 16.78125 18.5 L 16.992188 18.710938 L 16.839844 18.863281 L 16.628906 18.652344 L 16.609375 18.535156 Z M 16.628906 18.652344 L 16.578125 18.601562 L 16.609375 18.535156 Z M 17.015625 18.105469 L 16.804688 18.617188 L 16.609375 18.535156 L 16.820312 18.023438 Z M 16.820312 18.023438 Z M 17.609375 16.675781 L 17.015625 18.105469 L 16.820312 18.023438 L 17.410156 16.59375 L 17.507812 16.53125 L 17.605469 16.675781 Z M 17.410156 16.59375 L 17.4375 16.53125 L 17.511719 16.53125 L 17.414062 16.59375 Z M 19.160156 16.742188 L 17.507812 16.742188 L 17.507812 16.523438 L 19.160156 16.523438 L 19.246094 16.566406 L 19.160156 16.738281 Z M 19.160156 16.523438 L 19.214844 16.523438 L 19.246094 16.566406 Z M 19.859375 17.738281 L 19.074219 16.699219 L 19.242188 16.570312 L 20.027344 17.609375 Z M 20.027344 17.609375 L 20.039062 17.621094 Z M 20.023438 17.609375 L 20.152344 17.777344 L 20.144531 17.785156 L 20.128906 17.792969 L 20.105469 17.800781 L 20.097656 17.804688 L 20.089844 17.8125 L 20.078125 17.816406 L 20.070312 17.820312 L 19.988281 17.820312 L 19.976562 17.816406 L 19.96875 17.8125 L 19.960938 17.804688 L 19.949219 17.800781 L 19.933594 17.792969 L 19.921875 17.789062 L 19.914062 17.785156 L 19.902344 17.777344 L 19.894531 17.773438 L 19.863281 17.742188 L 20.039062 17.617188 L 20.03125 17.617188 L 20.039062 17.617188 L 20.03125 17.617188 L 20.039062 17.617188 Z M 20.152344 17.777344 L 20.136719 17.789062 Z M 20.421875 17.578125 L 20.152344 17.777344 L 20.023438 17.609375 L 20.292969 17.40625 Z M 20.421875 17.578125 L 20.414062 17.585938 L 20.425781 17.578125 Z M 20.292969 17.410156 L 20.464844 17.28125 L 20.46875 17.292969 L 20.476562 17.308594 L 20.484375 17.320312 L 20.492188 17.335938 L 20.496094 17.347656 L 20.5 17.355469 L 20.503906 17.367188 L 20.503906 17.449219 L 20.496094 17.464844 L 20.492188 17.476562 L 20.484375 17.492188 L 20.476562 17.503906 L 20.472656 17.511719 L 20.46875 17.523438 L 20.460938 17.53125 L 20.457031 17.539062 L 20.449219 17.550781 L 20.4375 17.5625 L 20.425781 17.570312 L 20.300781 17.402344 L 20.304688 17.402344 L 20.300781 17.402344 L 20.300781 17.40625 L 20.300781 17.402344 Z M 20.292969 17.410156 L 20.285156 17.402344 Z M 19.933594 16.570312 L 20.464844 17.28125 L 20.292969 17.410156 L 19.761719 16.699219 L 19.847656 16.53125 L 19.9375 16.570312 Z M 19.761719 16.699219 L 19.632812 16.53125 L 19.847656 16.53125 Z M 20.660156 16.742188 L 19.847656 16.742188 L 19.847656 16.523438 L 20.660156 16.523438 Z M 20.660156 16.53125 L 20.878906 16.53125 L 20.878906 16.566406 L 20.875 16.574219 L 20.867188 16.585938 L 20.859375 16.601562 L 20.855469 16.613281 L 20.851562 16.617188 L 20.84375 16.628906 L 20.839844 16.640625 L 20.835938 16.644531 L 20.832031 16.652344 L 20.824219 16.664062 L 20.816406 16.667969 L 20.808594 16.675781 L 20.800781 16.679688 L 20.796875 16.6875 L 20.785156 16.695312 L 20.777344 16.699219 L 20.765625 16.703125 L 20.757812 16.707031 L 20.75 16.714844 L 20.738281 16.71875 L 20.722656 16.726562 L 20.710938 16.730469 L 20.671875 16.730469 L 20.671875 16.515625 L 20.683594 16.515625 L 20.679688 16.515625 L 20.679688 16.519531 L 20.679688 16.511719 Z M 20.878906 16.195312 L 20.878906 16.53125 L 20.660156 16.53125 L 20.660156 16.195312 Z M 20.667969 16.199219 L 20.667969 15.984375 L 20.707031 15.984375 L 20.71875 15.988281 L 20.734375 15.996094 L 20.746094 16 L 20.753906 16.007812 L 20.761719 16.011719 L 20.773438 16.015625 L 20.78125 16.019531 L 20.789062 16.03125 L 20.804688 16.039062 L 20.816406 16.050781 L 20.824219 16.0625 L 20.832031 16.078125 L 20.835938 16.089844 L 20.839844 16.097656 L 20.84375 16.101562 L 20.851562 16.113281 L 20.859375 16.128906 L 20.863281 16.140625 L 20.867188 16.148438 L 20.867188 16.191406 L 20.652344 16.191406 L 20.652344 16.179688 L 20.65625 16.179688 L 20.644531 16.179688 Z M 20.667969 16.199219 "/>
<path style=" stroke:none;fill-rule:nonzero;fill:rgb(92.941176%,41.176471%,36.078431%);fill-opacity:1;" d="M 14.082031 3.914062 C 14.234375 3.914062 14.378906 3.957031 14.507812 4.039062 L 26.601562 11.863281 L 26.601562 9.816406 L 14.082031 1.71875 L 1.566406 9.816406 L 1.566406 11.863281 L 13.660156 4.039062 C 13.785156 3.957031 13.933594 3.914062 14.082031 3.914062 Z M 27.382812 14.082031 C 27.230469 14.082031 27.085938 14.042969 26.960938 13.957031 L 14.085938 5.628906 L 1.210938 13.957031 C 0.972656 14.113281 0.664062 14.125 0.414062 13.992188 C 0.160156 13.851562 0.00390625 13.589844 0.00390625 13.300781 L 0.00390625 9.390625 C 0.00390625 9.125 0.136719 8.875 0.363281 8.734375 L 13.664062 0.128906 C 13.921875 -0.0429688 14.257812 -0.0429688 14.515625 0.128906 L 27.816406 8.734375 C 28.039062 8.875 28.171875 9.125 28.171875 9.390625 L 28.171875 13.300781 C 28.171875 13.734375 27.824219 14.082031 27.394531 14.082031 Z M 27.382812 14.082031 "/>
<path style=" stroke:none;fill-rule:nonzero;fill:rgb(92.941176%,41.176471%,36.078431%);fill-opacity:1;" d="M 25.816406 28.164062 L 11.734375 28.164062 L 11.734375 26.597656 L 25.039062 26.597656 L 25.039062 11.734375 L 26.601562 11.734375 L 26.601562 27.382812 C 26.601562 27.816406 26.253906 28.164062 25.824219 28.164062 Z M 25.816406 28.164062 "/>
<path style=" stroke:none;fill-rule:nonzero;fill:rgb(92.941176%,41.176471%,36.078431%);fill-opacity:1;" d="M 2.347656 28.164062 C 1.914062 28.164062 1.566406 27.816406 1.566406 27.382812 L 1.566406 11.734375 L 3.132812 11.734375 L 3.132812 26.597656 L 16.433594 26.597656 L 16.433594 28.164062 Z M 2.347656 28.164062 "/>
</g>
</svg>
