<?xml version="1.0" encoding="UTF-8"?>
<svg xmlns="http://www.w3.org/2000/svg" xmlns:xlink="http://www.w3.org/1999/xlink" width="28px" height="28px" viewBox="0 0 28 28" version="1.1">
<g id="surface1">
<path style=" stroke:none;fill-rule:nonzero;fill:rgb(92.941176%,41.176471%,36.078431%);fill-opacity:1;" d="M 14.082031 3.910156 C 14.234375 3.910156 14.382812 3.953125 14.507812 4.039062 L 26.601562 11.859375 L 26.601562 9.8125 L 14.085938 1.710938 L 1.566406 9.8125 L 1.566406 11.859375 L 13.664062 4.039062 C 13.785156 3.953125 13.9375 3.910156 14.085938 3.910156 Z M 27.382812 14.082031 C 27.230469 14.082031 27.082031 14.039062 26.960938 13.957031 L 14.082031 5.628906 L 1.207031 13.957031 C 0.964844 14.113281 0.660156 14.121094 0.410156 13.988281 C 0.15625 13.851562 0 13.589844 0 13.300781 L 0 9.390625 C 0 9.125 0.132812 8.875 0.359375 8.730469 L 13.660156 0.128906 C 13.917969 -0.0390625 14.25 -0.0390625 14.507812 0.128906 L 27.808594 8.730469 C 28.03125 8.875 28.167969 9.125 28.167969 9.390625 L 28.167969 13.300781 C 28.167969 13.734375 27.820312 14.082031 27.386719 14.082031 Z M 27.382812 14.082031 "/>
<path style=" stroke:none;fill-rule:nonzero;fill:rgb(92.941176%,41.176471%,36.078431%);fill-opacity:1;" d="M 25.816406 28.164062 L 21.609375 28.164062 L 21.609375 26.601562 L 25.039062 26.601562 L 25.039062 11.734375 L 26.601562 11.734375 L 26.601562 27.382812 C 26.601562 27.816406 26.253906 28.164062 25.820312 28.164062 Z M 25.816406 28.164062 "/>
<path style=" stroke:none;fill-rule:nonzero;fill:rgb(92.941176%,41.176471%,36.078431%);fill-opacity:1;" d="M 2.347656 28.164062 C 1.914062 28.164062 1.5625 27.816406 1.5625 27.382812 L 1.5625 11.734375 L 3.128906 11.734375 L 3.128906 26.601562 L 23.265625 26.601562 L 23.265625 28.164062 L 2.34375 28.164062 Z M 2.347656 28.164062 "/>
<path style=" stroke:none;fill-rule:nonzero;fill:rgb(92.941176%,41.176471%,36.078431%);fill-opacity:1;" d="M 12.667969 18.871094 C 12.742188 18.824219 12.785156 18.742188 12.785156 18.65625 L 12.785156 11.832031 C 12.785156 10.996094 13.464844 10.320312 14.300781 10.320312 C 15.136719 10.320312 15.8125 10.996094 15.8125 11.832031 L 15.8125 18.65625 C 15.8125 18.746094 15.859375 18.824219 15.933594 18.871094 C 17.066406 19.59375 17.582031 20.976562 17.207031 22.269531 C 16.832031 23.558594 15.648438 24.449219 14.304688 24.449219 C 12.957031 24.449219 11.777344 23.5625 11.398438 22.269531 C 11.023438 20.976562 11.542969 19.59375 12.675781 18.871094 Z M 10.800781 21.894531 C 11.015625 23.496094 12.296875 24.742188 13.902344 24.925781 C 15.507812 25.105469 17.03125 24.171875 17.601562 22.664062 C 18.171875 21.148438 17.640625 19.445312 16.316406 18.519531 L 16.316406 11.832031 C 16.316406 10.71875 15.410156 9.816406 14.296875 9.816406 C 13.183594 9.816406 12.28125 10.71875 12.28125 11.832031 L 12.28125 18.519531 C 11.1875 19.277344 10.613281 20.582031 10.800781 21.894531 Z M 10.800781 21.894531 "/>
<path style=" stroke:none;fill-rule:nonzero;fill:rgb(92.941176%,41.176471%,36.078431%);fill-opacity:1;" d="M 12.683594 18.65625 L 12.886719 18.65625 L 12.886719 18.710938 L 12.882812 18.722656 L 12.878906 18.730469 L 12.878906 18.742188 L 12.875 18.75 L 12.867188 18.773438 L 12.863281 18.78125 L 12.859375 18.792969 L 12.855469 18.800781 L 12.855469 18.8125 L 12.851562 18.824219 L 12.84375 18.832031 L 12.835938 18.84375 L 12.832031 18.851562 L 12.824219 18.859375 L 12.816406 18.871094 L 12.808594 18.875 L 12.804688 18.882812 L 12.792969 18.894531 L 12.785156 18.898438 L 12.78125 18.90625 L 12.769531 18.917969 L 12.761719 18.921875 L 12.757812 18.929688 L 12.746094 18.9375 L 12.734375 18.941406 L 12.726562 18.949219 L 12.617188 18.777344 L 12.617188 18.773438 L 12.65625 18.734375 L 12.660156 18.726562 L 12.664062 18.726562 L 12.664062 18.71875 L 12.679688 18.703125 L 12.683594 18.695312 L 12.683594 18.648438 Z M 12.886719 11.832031 L 12.886719 18.65625 L 12.683594 18.65625 L 12.683594 11.832031 Z M 14.296875 10.214844 L 14.296875 10.421875 L 14.222656 10.421875 L 14.152344 10.429688 L 14.011719 10.453125 L 13.945312 10.46875 L 13.878906 10.492188 L 13.808594 10.515625 L 13.746094 10.539062 L 13.621094 10.59375 L 13.503906 10.664062 L 13.449219 10.707031 L 13.394531 10.746094 L 13.34375 10.789062 L 13.292969 10.835938 L 13.246094 10.886719 L 13.203125 10.9375 L 13.164062 10.992188 L 13.121094 11.042969 L 13.050781 11.160156 L 13.019531 11.222656 L 12.996094 11.285156 L 12.96875 11.351562 L 12.945312 11.414062 L 12.90625 11.546875 L 12.882812 11.6875 L 12.878906 11.757812 L 12.875 11.832031 L 12.667969 11.832031 L 12.671875 11.75 L 12.679688 11.664062 L 12.6875 11.585938 L 12.703125 11.503906 L 12.71875 11.425781 L 12.742188 11.351562 L 12.769531 11.277344 L 12.800781 11.203125 L 12.832031 11.132812 L 12.871094 11.0625 L 12.910156 10.996094 L 12.953125 10.925781 L 12.996094 10.863281 L 13.046875 10.804688 L 13.09375 10.746094 L 13.148438 10.6875 L 13.207031 10.636719 L 13.261719 10.585938 L 13.386719 10.492188 L 13.449219 10.449219 L 13.519531 10.410156 L 13.660156 10.339844 L 13.734375 10.308594 L 13.808594 10.28125 L 13.882812 10.257812 L 13.960938 10.242188 L 14.042969 10.230469 L 14.121094 10.21875 L 14.203125 10.210938 L 14.285156 10.207031 Z M 15.914062 11.832031 L 15.710938 11.832031 L 15.707031 11.757812 L 15.691406 11.617188 L 15.675781 11.546875 L 15.660156 11.480469 L 15.640625 11.414062 L 15.617188 11.351562 L 15.589844 11.285156 L 15.5625 11.222656 L 15.53125 11.160156 L 15.5 11.101562 L 15.460938 11.042969 L 15.421875 10.992188 L 15.382812 10.9375 L 15.289062 10.835938 L 15.242188 10.789062 L 15.191406 10.746094 L 15.136719 10.707031 L 15.078125 10.664062 L 15.023438 10.628906 L 14.960938 10.59375 L 14.902344 10.566406 L 14.835938 10.539062 L 14.773438 10.515625 L 14.640625 10.46875 L 14.574219 10.453125 L 14.5 10.441406 L 14.429688 10.429688 L 14.359375 10.421875 L 14.285156 10.421875 L 14.285156 10.214844 L 14.371094 10.21875 L 14.453125 10.226562 L 14.53125 10.234375 L 14.613281 10.25 L 14.691406 10.265625 L 14.765625 10.289062 L 14.839844 10.316406 L 14.914062 10.347656 L 14.984375 10.378906 L 15.054688 10.417969 L 15.121094 10.457031 L 15.1875 10.5 L 15.25 10.542969 L 15.3125 10.589844 L 15.367188 10.640625 L 15.425781 10.695312 L 15.480469 10.753906 L 15.527344 10.808594 L 15.621094 10.933594 L 15.664062 11 L 15.703125 11.066406 L 15.742188 11.136719 L 15.773438 11.210938 L 15.804688 11.28125 L 15.832031 11.355469 L 15.855469 11.433594 L 15.886719 11.589844 L 15.894531 11.671875 L 15.902344 11.757812 L 15.90625 11.839844 Z M 15.710938 18.65625 L 15.710938 11.832031 L 15.914062 11.832031 L 15.914062 18.65625 Z M 15.984375 18.78125 L 15.875 18.957031 L 15.863281 18.949219 L 15.855469 18.941406 L 15.84375 18.9375 L 15.828125 18.921875 L 15.820312 18.917969 L 15.8125 18.910156 L 15.808594 18.898438 L 15.800781 18.894531 L 15.792969 18.886719 L 15.789062 18.875 L 15.773438 18.859375 L 15.765625 18.847656 L 15.761719 18.839844 L 15.753906 18.828125 L 15.75 18.820312 L 15.746094 18.808594 L 15.742188 18.800781 L 15.742188 18.789062 L 15.738281 18.777344 L 15.730469 18.761719 L 15.71875 18.726562 L 15.71875 18.71875 L 15.714844 18.707031 L 15.714844 18.664062 L 15.917969 18.664062 L 15.917969 18.703125 L 15.921875 18.710938 L 15.921875 18.71875 L 15.929688 18.726562 L 15.933594 18.726562 L 15.933594 18.734375 L 15.941406 18.742188 L 15.945312 18.75 L 15.949219 18.75 L 15.957031 18.757812 L 15.957031 18.761719 L 15.972656 18.777344 L 15.976562 18.777344 L 15.980469 18.78125 L 15.980469 18.785156 L 15.984375 18.789062 Z M 15.875 18.957031 L 15.820312 18.921875 Z M 17.304688 22.296875 L 17.105469 22.238281 L 17.136719 22.121094 L 17.164062 22.003906 L 17.1875 21.886719 L 17.203125 21.769531 L 17.214844 21.652344 L 17.222656 21.535156 L 17.222656 21.300781 L 17.214844 21.183594 L 17.203125 21.066406 L 17.1875 20.949219 L 17.167969 20.835938 L 17.140625 20.722656 L 17.109375 20.613281 L 17.078125 20.5 L 16.992188 20.28125 L 16.945312 20.179688 L 16.894531 20.074219 L 16.839844 19.972656 L 16.714844 19.777344 L 16.648438 19.683594 L 16.578125 19.585938 L 16.503906 19.496094 L 16.425781 19.410156 L 16.339844 19.324219 L 16.253906 19.246094 L 16.164062 19.167969 L 16.070312 19.09375 L 15.972656 19.023438 L 15.871094 18.957031 L 15.980469 18.78125 L 16.089844 18.851562 L 16.195312 18.929688 L 16.390625 19.09375 L 16.484375 19.179688 L 16.574219 19.273438 L 16.65625 19.367188 L 16.738281 19.464844 L 16.816406 19.5625 L 16.886719 19.660156 L 16.957031 19.765625 L 17.019531 19.875 L 17.078125 19.984375 L 17.132812 20.09375 L 17.183594 20.207031 L 17.230469 20.324219 L 17.308594 20.558594 L 17.339844 20.679688 L 17.367188 20.800781 L 17.390625 20.921875 L 17.410156 21.042969 L 17.421875 21.167969 L 17.429688 21.292969 L 17.433594 21.417969 L 17.429688 21.542969 L 17.421875 21.667969 L 17.410156 21.796875 L 17.390625 21.925781 L 17.367188 22.050781 L 17.339844 22.175781 L 17.308594 22.300781 Z M 14.300781 24.550781 L 14.300781 24.34375 L 14.542969 24.335938 L 14.664062 24.320312 L 14.78125 24.304688 L 14.898438 24.28125 L 15.011719 24.253906 L 15.125 24.222656 L 15.238281 24.1875 L 15.347656 24.148438 L 15.457031 24.101562 L 15.5625 24.054688 L 15.667969 24.003906 L 15.765625 23.949219 L 15.960938 23.824219 L 16.054688 23.757812 L 16.148438 23.6875 L 16.234375 23.613281 L 16.316406 23.535156 L 16.402344 23.453125 L 16.480469 23.371094 L 16.558594 23.285156 L 16.632812 23.191406 L 16.703125 23.097656 L 16.769531 23 L 16.828125 22.902344 L 16.886719 22.796875 L 16.988281 22.585938 L 17.03125 22.476562 L 17.074219 22.359375 L 17.109375 22.242188 L 17.308594 22.300781 L 17.269531 22.425781 L 17.222656 22.546875 L 17.175781 22.664062 L 17.125 22.78125 L 17.066406 22.894531 L 17.007812 23.003906 L 16.9375 23.113281 L 16.867188 23.214844 L 16.792969 23.316406 L 16.71875 23.414062 L 16.636719 23.507812 L 16.554688 23.597656 L 16.464844 23.6875 L 16.375 23.769531 L 16.28125 23.851562 L 16.183594 23.929688 L 16.082031 24 L 15.980469 24.066406 L 15.871094 24.128906 L 15.765625 24.191406 L 15.652344 24.246094 L 15.539062 24.296875 L 15.425781 24.34375 L 15.308594 24.386719 L 15.1875 24.425781 L 15.066406 24.457031 L 14.941406 24.488281 L 14.816406 24.511719 L 14.691406 24.527344 L 14.5625 24.542969 L 14.433594 24.550781 Z M 11.296875 22.296875 L 11.492188 22.238281 L 11.570312 22.472656 L 11.613281 22.582031 L 11.664062 22.691406 L 11.71875 22.792969 L 11.777344 22.898438 L 11.835938 23 L 11.898438 23.097656 L 11.972656 23.191406 L 12.042969 23.28125 L 12.121094 23.367188 L 12.203125 23.453125 L 12.285156 23.53125 L 12.371094 23.609375 L 12.457031 23.683594 L 12.546875 23.753906 L 12.640625 23.820312 L 12.835938 23.945312 L 12.9375 24.003906 L 13.042969 24.050781 L 13.144531 24.097656 L 13.253906 24.144531 L 13.363281 24.183594 L 13.472656 24.21875 L 13.589844 24.25 L 13.703125 24.277344 L 13.820312 24.300781 L 13.9375 24.316406 L 14.058594 24.332031 L 14.300781 24.339844 L 14.300781 24.546875 L 14.167969 24.542969 L 14.042969 24.535156 L 13.914062 24.523438 L 13.785156 24.503906 L 13.664062 24.480469 L 13.539062 24.453125 L 13.296875 24.382812 L 13.179688 24.335938 L 13.066406 24.289062 L 12.949219 24.242188 L 12.839844 24.183594 L 12.734375 24.121094 L 12.625 24.058594 L 12.519531 23.992188 L 12.421875 23.917969 L 12.324219 23.839844 L 12.230469 23.761719 L 12.136719 23.675781 L 12.050781 23.589844 L 11.96875 23.5 L 11.886719 23.40625 L 11.808594 23.308594 L 11.734375 23.207031 L 11.664062 23.101562 L 11.597656 22.996094 L 11.480469 22.769531 L 11.425781 22.652344 L 11.378906 22.535156 L 11.335938 22.414062 L 11.296875 22.289062 Z M 12.773438 18.871094 L 12.566406 18.871094 L 12.726562 18.957031 L 12.625 19.023438 L 12.527344 19.09375 L 12.433594 19.167969 L 12.34375 19.246094 L 12.257812 19.324219 L 12.171875 19.410156 L 12.09375 19.496094 L 12.019531 19.585938 L 11.949219 19.683594 L 11.882812 19.777344 L 11.757812 19.972656 L 11.703125 20.074219 L 11.652344 20.179688 L 11.605469 20.28125 L 11.5625 20.390625 L 11.523438 20.5 L 11.492188 20.613281 L 11.460938 20.722656 L 11.433594 20.835938 L 11.414062 20.949219 L 11.398438 21.066406 L 11.386719 21.183594 L 11.378906 21.300781 L 11.375 21.417969 L 11.378906 21.535156 L 11.386719 21.652344 L 11.398438 21.769531 L 11.414062 21.886719 L 11.4375 22.003906 L 11.492188 22.238281 L 11.296875 22.296875 L 11.261719 22.171875 L 11.234375 22.046875 L 11.210938 21.921875 L 11.195312 21.792969 L 11.183594 21.664062 L 11.175781 21.539062 L 11.171875 21.410156 L 11.175781 21.285156 L 11.183594 21.164062 L 11.195312 21.039062 L 11.210938 20.914062 L 11.234375 20.792969 L 11.261719 20.671875 L 11.292969 20.550781 L 11.328125 20.433594 L 11.371094 20.316406 L 11.417969 20.203125 L 11.519531 19.976562 L 11.582031 19.871094 L 11.644531 19.761719 L 11.710938 19.660156 L 11.78125 19.558594 L 11.859375 19.460938 L 11.941406 19.363281 L 12.023438 19.269531 L 12.113281 19.179688 L 12.207031 19.089844 L 12.402344 18.925781 L 12.507812 18.847656 L 12.617188 18.777344 L 12.773438 18.867188 Z M 12.617188 18.78125 L 12.773438 18.679688 L 12.773438 18.871094 Z M 12.566406 18.871094 L 12.773438 18.871094 L 12.726562 18.957031 Z M 12.726562 18.957031 L 12.566406 19.058594 L 12.566406 18.871094 Z M 13.914062 24.824219 L 13.890625 25.03125 L 13.738281 25.007812 L 13.585938 24.980469 L 13.433594 24.949219 L 13.285156 24.910156 L 13.140625 24.863281 L 13 24.816406 L 12.863281 24.757812 L 12.726562 24.695312 L 12.589844 24.628906 L 12.332031 24.480469 L 12.089844 24.308594 L 11.972656 24.21875 L 11.859375 24.121094 L 11.753906 24.019531 L 11.648438 23.914062 L 11.546875 23.804688 L 11.453125 23.691406 L 11.363281 23.574219 L 11.277344 23.453125 L 11.195312 23.328125 L 11.117188 23.199219 L 11.046875 23.070312 L 10.921875 22.796875 L 10.871094 22.65625 L 10.824219 22.511719 L 10.777344 22.363281 L 10.742188 22.214844 L 10.710938 22.066406 L 10.6875 21.910156 L 10.894531 21.882812 L 10.917969 22.027344 L 10.945312 22.167969 L 10.980469 22.308594 L 11.019531 22.449219 L 11.066406 22.582031 L 11.117188 22.714844 L 11.234375 22.972656 L 11.300781 23.097656 L 11.375 23.214844 L 11.449219 23.335938 L 11.53125 23.449219 L 11.613281 23.558594 L 11.707031 23.667969 L 11.800781 23.769531 L 11.898438 23.871094 L 11.996094 23.964844 L 12.101562 24.054688 L 12.210938 24.144531 L 12.324219 24.226562 L 12.441406 24.304688 L 12.5625 24.378906 L 12.6875 24.445312 L 12.808594 24.507812 L 12.9375 24.566406 L 13.070312 24.621094 L 13.203125 24.667969 L 13.339844 24.710938 L 13.476562 24.746094 L 13.617188 24.777344 L 13.761719 24.804688 L 13.90625 24.824219 Z M 17.507812 22.628906 L 17.699219 22.703125 L 17.640625 22.847656 L 17.578125 22.988281 L 17.507812 23.125 L 17.433594 23.261719 L 17.351562 23.390625 L 17.269531 23.515625 L 17.175781 23.636719 L 17.082031 23.753906 L 16.984375 23.867188 L 16.882812 23.976562 L 16.773438 24.078125 L 16.664062 24.175781 L 16.550781 24.269531 L 16.433594 24.363281 L 16.3125 24.445312 L 16.1875 24.527344 L 16.058594 24.601562 L 15.929688 24.671875 L 15.792969 24.734375 L 15.65625 24.792969 L 15.519531 24.84375 L 15.378906 24.890625 L 15.234375 24.933594 L 15.089844 24.96875 L 14.941406 25 L 14.792969 25.023438 L 14.644531 25.039062 L 14.492188 25.050781 L 14.339844 25.054688 L 14.1875 25.054688 L 14.03125 25.050781 L 13.878906 25.035156 L 13.902344 24.832031 L 14.046875 24.84375 L 14.191406 24.851562 L 14.332031 24.851562 L 14.476562 24.847656 L 14.621094 24.839844 L 14.761719 24.820312 L 14.90625 24.796875 L 15.042969 24.769531 L 15.179688 24.738281 L 15.3125 24.695312 L 15.449219 24.652344 L 15.707031 24.550781 L 15.957031 24.425781 L 16.078125 24.355469 L 16.195312 24.28125 L 16.308594 24.199219 L 16.417969 24.117188 L 16.527344 24.027344 L 16.628906 23.933594 L 16.730469 23.835938 L 16.828125 23.738281 L 17.007812 23.519531 L 17.089844 23.40625 L 17.171875 23.289062 L 17.246094 23.167969 L 17.316406 23.042969 L 17.378906 22.910156 L 17.4375 22.78125 L 17.492188 22.644531 Z M 16.214844 18.523438 L 16.417969 18.523438 L 16.375 18.441406 L 16.5 18.53125 L 16.621094 18.628906 L 16.734375 18.726562 L 16.84375 18.832031 L 16.953125 18.941406 L 17.054688 19.050781 L 17.148438 19.167969 L 17.238281 19.289062 L 17.402344 19.539062 L 17.476562 19.664062 L 17.546875 19.796875 L 17.609375 19.929688 L 17.667969 20.066406 L 17.722656 20.207031 L 17.769531 20.347656 L 17.808594 20.488281 L 17.84375 20.632812 L 17.875 20.777344 L 17.898438 20.925781 L 17.914062 21.070312 L 17.925781 21.21875 L 17.933594 21.367188 L 17.933594 21.515625 L 17.925781 21.664062 L 17.914062 21.816406 L 17.890625 21.96875 L 17.867188 22.117188 L 17.832031 22.261719 L 17.796875 22.410156 L 17.75 22.558594 L 17.699219 22.707031 L 17.507812 22.632812 L 17.558594 22.496094 L 17.605469 22.355469 L 17.640625 22.214844 L 17.671875 22.074219 L 17.695312 21.933594 L 17.710938 21.792969 L 17.722656 21.652344 L 17.730469 21.511719 L 17.730469 21.371094 L 17.726562 21.230469 L 17.71875 21.089844 L 17.699219 20.949219 L 17.652344 20.675781 L 17.617188 20.542969 L 17.578125 20.40625 L 17.53125 20.277344 L 17.484375 20.144531 L 17.429688 20.015625 L 17.304688 19.765625 L 17.234375 19.644531 L 17.160156 19.527344 L 17.078125 19.410156 L 16.996094 19.300781 L 16.90625 19.1875 L 16.8125 19.082031 L 16.710938 18.980469 L 16.605469 18.882812 L 16.496094 18.789062 L 16.382812 18.699219 L 16.265625 18.609375 L 16.21875 18.527344 Z M 16.257812 18.609375 L 16.214844 18.578125 L 16.214844 18.523438 Z M 16.417969 11.832031 L 16.417969 18.519531 L 16.214844 18.519531 L 16.214844 11.832031 Z M 14.296875 9.921875 L 14.296875 9.714844 L 14.40625 9.71875 L 14.515625 9.730469 L 14.621094 9.742188 L 14.726562 9.757812 L 14.832031 9.78125 L 14.929688 9.8125 L 15.125 9.882812 L 15.21875 9.925781 L 15.3125 9.972656 L 15.402344 10.023438 L 15.574219 10.140625 L 15.730469 10.273438 L 15.804688 10.34375 L 15.875 10.417969 L 15.941406 10.492188 L 16.003906 10.574219 L 16.066406 10.660156 L 16.125 10.746094 L 16.21875 10.925781 L 16.265625 11.019531 L 16.335938 11.214844 L 16.363281 11.316406 L 16.386719 11.421875 L 16.410156 11.523438 L 16.421875 11.632812 L 16.433594 11.738281 L 16.433594 11.851562 L 16.230469 11.851562 L 16.226562 11.753906 L 16.21875 11.65625 L 16.207031 11.558594 L 16.191406 11.464844 L 16.171875 11.371094 L 16.144531 11.28125 L 16.113281 11.1875 L 16.078125 11.101562 L 16.042969 11.019531 L 16 10.933594 L 15.953125 10.851562 L 15.902344 10.777344 L 15.847656 10.703125 L 15.789062 10.628906 L 15.730469 10.558594 L 15.667969 10.492188 L 15.597656 10.425781 L 15.457031 10.308594 L 15.382812 10.253906 L 15.308594 10.207031 L 15.144531 10.113281 L 14.972656 10.042969 L 14.882812 10.015625 L 14.789062 9.988281 L 14.601562 9.949219 L 14.503906 9.9375 L 14.40625 9.929688 L 14.308594 9.925781 Z M 12.382812 11.832031 L 12.179688 11.832031 L 12.183594 11.722656 L 12.191406 11.613281 L 12.222656 11.402344 L 12.246094 11.300781 L 12.277344 11.199219 L 12.308594 11.101562 L 12.347656 11.003906 L 12.390625 10.910156 L 12.4375 10.820312 L 12.488281 10.730469 L 12.542969 10.640625 L 12.601562 10.558594 L 12.664062 10.476562 L 12.734375 10.398438 L 12.804688 10.324219 L 12.878906 10.253906 L 12.953125 10.1875 L 13.117188 10.0625 L 13.207031 10.007812 L 13.296875 9.957031 L 13.386719 9.910156 L 13.480469 9.867188 L 13.578125 9.828125 L 13.675781 9.796875 L 13.777344 9.765625 L 13.878906 9.742188 L 13.984375 9.726562 L 14.09375 9.710938 L 14.199219 9.703125 L 14.308594 9.699219 L 14.308594 9.902344 L 14.214844 9.90625 L 14.117188 9.914062 L 14.019531 9.925781 L 13.832031 9.964844 L 13.738281 9.992188 L 13.648438 10.019531 L 13.476562 10.089844 L 13.3125 10.183594 L 13.234375 10.230469 L 13.164062 10.285156 L 13.09375 10.34375 L 13.019531 10.402344 L 12.953125 10.46875 L 12.890625 10.535156 L 12.832031 10.605469 L 12.773438 10.679688 L 12.71875 10.753906 L 12.667969 10.828125 L 12.621094 10.910156 L 12.578125 10.996094 L 12.542969 11.078125 L 12.507812 11.164062 L 12.476562 11.257812 L 12.449219 11.347656 L 12.429688 11.441406 L 12.414062 11.535156 L 12.402344 11.632812 L 12.394531 11.730469 L 12.390625 11.828125 Z M 12.179688 18.519531 L 12.179688 11.832031 L 12.382812 11.832031 L 12.382812 18.519531 L 12.339844 18.605469 Z M 12.382812 18.519531 L 12.382812 18.574219 L 12.339844 18.605469 Z M 10.898438 21.878906 L 10.695312 21.90625 L 10.679688 21.78125 L 10.667969 21.652344 L 10.660156 21.523438 L 10.65625 21.398438 L 10.660156 21.273438 L 10.667969 21.148438 L 10.679688 21.023438 L 10.695312 20.898438 L 10.714844 20.777344 L 10.738281 20.65625 L 10.765625 20.535156 L 10.796875 20.414062 L 10.832031 20.296875 L 10.871094 20.179688 L 10.917969 20.066406 L 10.964844 19.949219 L 11.066406 19.730469 L 11.128906 19.621094 L 11.191406 19.515625 L 11.257812 19.410156 L 11.328125 19.308594 L 11.402344 19.207031 L 11.480469 19.109375 L 11.644531 18.921875 L 11.730469 18.832031 L 11.917969 18.660156 L 12.113281 18.503906 L 12.21875 18.429688 L 12.335938 18.597656 L 12.238281 18.667969 L 12.144531 18.742188 L 12.054688 18.820312 L 11.96875 18.898438 L 11.878906 18.980469 L 11.796875 19.0625 L 11.714844 19.152344 L 11.636719 19.242188 L 11.566406 19.332031 L 11.492188 19.425781 L 11.425781 19.523438 L 11.363281 19.621094 L 11.300781 19.722656 L 11.191406 19.925781 L 11.144531 20.03125 L 11.101562 20.136719 L 11.023438 20.355469 L 10.960938 20.582031 L 10.933594 20.695312 L 10.910156 20.808594 L 10.878906 21.042969 L 10.871094 21.164062 L 10.863281 21.28125 L 10.859375 21.398438 L 10.863281 21.515625 L 10.878906 21.757812 L 10.894531 21.878906 Z M 10.898438 21.878906 L 10.898438 21.867188 Z M 10.800781 21.894531 L 10.898438 21.878906 Z M 10.898438 21.878906 L 10.898438 21.867188 Z M 10.898438 21.878906 "/>
<path style=" stroke:none;fill-rule:nonzero;fill:rgb(92.941176%,41.176471%,36.078431%);fill-opacity:1;" d="M 13.855469 19.707031 C 13.96875 19.679688 14.046875 19.578125 14.046875 19.464844 L 14.046875 11.828125 C 14.046875 11.6875 14.160156 11.578125 14.296875 11.578125 C 14.433594 11.578125 14.546875 11.691406 14.546875 11.828125 L 14.546875 19.464844 C 14.546875 19.578125 14.625 19.679688 14.738281 19.707031 C 15.382812 19.875 15.878906 20.386719 16.019531 21.035156 C 16.164062 21.683594 15.933594 22.355469 15.417969 22.78125 C 15.003906 23.121094 14.460938 23.253906 13.9375 23.144531 C 13.136719 22.976562 12.550781 22.28125 12.53125 21.460938 C 12.511719 20.640625 13.058594 19.914062 13.855469 19.707031 Z M 13.84375 23.644531 C 13.992188 23.671875 14.144531 23.6875 14.292969 23.6875 C 15.402344 23.691406 16.347656 22.894531 16.535156 21.804688 C 16.722656 20.710938 16.097656 19.644531 15.054688 19.277344 L 15.054688 11.828125 C 15.054688 11.414062 14.714844 11.074219 14.300781 11.074219 C 13.882812 11.074219 13.546875 11.414062 13.546875 11.828125 L 13.546875 19.277344 C 12.585938 19.617188 11.96875 20.554688 12.039062 21.570312 C 12.109375 22.589844 12.851562 23.433594 13.847656 23.640625 Z M 13.84375 23.644531 "/>
<path style=" stroke:none;fill-rule:nonzero;fill:rgb(92.941176%,41.176471%,36.078431%);fill-opacity:1;" d="M 13.945312 19.46875 L 14.148438 19.46875 L 14.148438 19.492188 L 14.144531 19.507812 L 14.144531 19.519531 L 14.140625 19.535156 L 14.136719 19.546875 L 14.132812 19.5625 L 14.128906 19.574219 L 14.121094 19.585938 L 14.117188 19.601562 L 14.109375 19.613281 L 14.101562 19.628906 L 14.09375 19.640625 L 14.089844 19.652344 L 14.070312 19.671875 L 14.0625 19.683594 L 14.050781 19.691406 L 14.042969 19.703125 L 14.03125 19.710938 L 14.023438 19.722656 L 14.011719 19.730469 L 13.988281 19.753906 L 13.976562 19.757812 L 13.960938 19.765625 L 13.949219 19.773438 L 13.933594 19.777344 L 13.921875 19.785156 L 13.90625 19.792969 L 13.894531 19.796875 L 13.878906 19.800781 L 13.832031 19.601562 L 13.835938 19.597656 L 13.851562 19.589844 L 13.855469 19.585938 L 13.863281 19.585938 L 13.878906 19.578125 L 13.890625 19.566406 L 13.898438 19.5625 L 13.902344 19.5625 L 13.902344 19.558594 L 13.921875 19.539062 L 13.929688 19.523438 L 13.929688 19.519531 L 13.941406 19.507812 L 13.945312 19.5 L 13.945312 19.453125 Z M 14.148438 11.832031 L 14.148438 19.46875 L 13.945312 19.46875 L 13.945312 11.832031 Z M 14.296875 11.476562 L 14.296875 11.683594 L 14.277344 11.683594 L 14.265625 11.6875 L 14.253906 11.6875 L 14.238281 11.695312 L 14.234375 11.699219 L 14.21875 11.707031 L 14.214844 11.710938 L 14.207031 11.710938 L 14.199219 11.714844 L 14.195312 11.71875 L 14.191406 11.726562 L 14.183594 11.734375 L 14.179688 11.734375 L 14.167969 11.757812 L 14.167969 11.761719 L 14.160156 11.777344 L 14.15625 11.78125 L 14.148438 11.796875 L 14.148438 11.804688 L 14.144531 11.8125 L 14.144531 11.835938 L 13.941406 11.835938 L 13.941406 11.800781 L 13.949219 11.761719 L 13.953125 11.746094 L 13.953125 11.730469 L 13.960938 11.710938 L 13.976562 11.679688 L 13.980469 11.664062 L 13.992188 11.644531 L 14 11.632812 L 14.011719 11.617188 L 14.023438 11.605469 L 14.035156 11.589844 L 14.058594 11.566406 L 14.070312 11.558594 L 14.085938 11.546875 L 14.097656 11.539062 L 14.113281 11.527344 L 14.125 11.519531 L 14.144531 11.511719 L 14.175781 11.496094 L 14.191406 11.492188 L 14.210938 11.488281 L 14.242188 11.480469 L 14.261719 11.476562 L 14.300781 11.476562 Z M 14.652344 11.832031 L 14.449219 11.832031 L 14.449219 11.808594 L 14.445312 11.800781 L 14.445312 11.792969 L 14.441406 11.785156 L 14.4375 11.78125 L 14.429688 11.765625 L 14.429688 11.757812 L 14.425781 11.753906 L 14.417969 11.738281 L 14.410156 11.730469 L 14.40625 11.722656 L 14.394531 11.710938 L 14.386719 11.710938 L 14.382812 11.707031 L 14.359375 11.695312 L 14.355469 11.691406 L 14.347656 11.6875 L 14.339844 11.6875 L 14.332031 11.683594 L 14.328125 11.683594 L 14.316406 11.679688 L 14.296875 11.679688 L 14.296875 11.472656 L 14.332031 11.472656 L 14.355469 11.476562 L 14.386719 11.484375 L 14.40625 11.488281 L 14.421875 11.496094 L 14.4375 11.5 L 14.453125 11.507812 L 14.472656 11.515625 L 14.484375 11.523438 L 14.5 11.535156 L 14.511719 11.542969 L 14.523438 11.554688 L 14.539062 11.566406 L 14.550781 11.574219 L 14.5625 11.589844 L 14.574219 11.601562 L 14.582031 11.613281 L 14.59375 11.628906 L 14.601562 11.640625 L 14.617188 11.671875 L 14.621094 11.6875 L 14.644531 11.734375 L 14.644531 11.753906 L 14.648438 11.769531 L 14.652344 11.789062 Z M 14.449219 19.46875 L 14.449219 11.832031 L 14.652344 11.832031 L 14.652344 19.46875 Z M 14.761719 19.609375 L 14.714844 19.808594 L 14.699219 19.804688 L 14.6875 19.800781 L 14.671875 19.796875 L 14.660156 19.789062 L 14.644531 19.78125 L 14.632812 19.777344 L 14.621094 19.769531 L 14.605469 19.761719 L 14.59375 19.753906 L 14.582031 19.742188 L 14.574219 19.730469 L 14.5625 19.722656 L 14.523438 19.683594 L 14.5 19.648438 L 14.496094 19.636719 L 14.488281 19.621094 L 14.480469 19.609375 L 14.476562 19.59375 L 14.472656 19.582031 L 14.46875 19.566406 L 14.464844 19.554688 L 14.460938 19.539062 L 14.453125 19.515625 L 14.453125 19.472656 L 14.65625 19.472656 L 14.65625 19.519531 L 14.664062 19.535156 L 14.667969 19.539062 L 14.667969 19.542969 L 14.671875 19.546875 L 14.679688 19.5625 L 14.683594 19.5625 L 14.6875 19.570312 L 14.691406 19.574219 L 14.691406 19.578125 L 14.699219 19.585938 L 14.703125 19.585938 L 14.710938 19.589844 L 14.714844 19.59375 L 14.714844 19.597656 L 14.738281 19.609375 L 14.742188 19.609375 L 14.746094 19.613281 L 14.761719 19.621094 L 14.765625 19.625 Z M 14.714844 19.808594 L 14.695312 19.804688 Z M 16.125 21.015625 L 15.921875 21.058594 L 15.910156 21 L 15.890625 20.945312 L 15.875 20.890625 L 15.835938 20.78125 L 15.789062 20.679688 L 15.734375 20.578125 L 15.640625 20.4375 L 15.570312 20.351562 L 15.53125 20.304688 L 15.496094 20.265625 L 15.414062 20.183594 L 15.285156 20.078125 L 15.238281 20.042969 L 15.191406 20.015625 L 15.140625 19.984375 L 15.039062 19.929688 L 14.988281 19.90625 L 14.933594 19.882812 L 14.882812 19.863281 L 14.828125 19.84375 L 14.769531 19.824219 L 14.714844 19.808594 L 14.761719 19.609375 L 14.828125 19.628906 L 14.953125 19.667969 L 15.011719 19.691406 L 15.074219 19.71875 L 15.128906 19.746094 L 15.1875 19.777344 L 15.242188 19.804688 L 15.351562 19.875 L 15.402344 19.914062 L 15.453125 19.949219 L 15.503906 19.992188 L 15.550781 20.03125 L 15.597656 20.074219 L 15.640625 20.117188 L 15.726562 20.210938 L 15.804688 20.3125 L 15.839844 20.363281 L 15.875 20.417969 L 15.910156 20.46875 L 15.9375 20.527344 L 15.96875 20.585938 L 15.996094 20.640625 L 16.023438 20.703125 L 16.046875 20.761719 L 16.085938 20.886719 L 16.101562 20.949219 L 16.121094 21.015625 Z M 15.484375 22.859375 L 15.355469 22.703125 L 15.398438 22.667969 L 15.480469 22.585938 L 15.523438 22.546875 L 15.558594 22.5 L 15.597656 22.457031 L 15.628906 22.414062 L 15.664062 22.367188 L 15.695312 22.320312 L 15.722656 22.273438 L 15.777344 22.171875 L 15.824219 22.070312 L 15.84375 22.019531 L 15.882812 21.910156 L 15.898438 21.855469 L 15.910156 21.804688 L 15.925781 21.75 L 15.933594 21.691406 L 15.941406 21.636719 L 15.949219 21.578125 L 15.953125 21.519531 L 15.957031 21.464844 L 15.957031 21.351562 L 15.953125 21.292969 L 15.945312 21.234375 L 15.9375 21.179688 L 15.929688 21.121094 L 15.917969 21.066406 L 16.121094 21.019531 L 16.132812 21.085938 L 16.144531 21.148438 L 16.152344 21.210938 L 16.160156 21.277344 L 16.164062 21.339844 L 16.164062 21.46875 L 16.15625 21.59375 L 16.148438 21.660156 L 16.140625 21.722656 L 16.128906 21.785156 L 16.117188 21.851562 L 16.101562 21.910156 L 16.082031 21.972656 L 16.0625 22.03125 L 16.042969 22.09375 L 16.019531 22.148438 L 15.992188 22.207031 L 15.964844 22.261719 L 15.933594 22.320312 L 15.90625 22.375 L 15.871094 22.429688 L 15.835938 22.480469 L 15.71875 22.632812 L 15.671875 22.679688 L 15.628906 22.726562 L 15.582031 22.773438 L 15.535156 22.816406 Z M 15.484375 22.859375 Z M 13.921875 23.25 L 13.964844 23.046875 L 14.011719 23.058594 L 14.105469 23.074219 L 14.152344 23.074219 L 14.246094 23.082031 L 14.339844 23.082031 L 14.433594 23.074219 L 14.480469 23.074219 L 14.621094 23.050781 L 14.664062 23.042969 L 14.707031 23.03125 L 14.75 23.023438 L 14.792969 23.007812 L 14.835938 22.996094 L 14.882812 22.976562 L 14.96875 22.945312 L 15.054688 22.90625 L 15.097656 22.882812 L 15.175781 22.835938 L 15.21875 22.8125 L 15.257812 22.785156 L 15.292969 22.761719 L 15.332031 22.734375 L 15.367188 22.703125 L 15.5 22.859375 L 15.457031 22.894531 L 15.414062 22.925781 L 15.371094 22.953125 L 15.328125 22.984375 L 15.242188 23.039062 L 15.191406 23.066406 L 15.097656 23.113281 L 15.003906 23.152344 L 14.957031 23.167969 L 14.90625 23.1875 L 14.859375 23.203125 L 14.808594 23.214844 L 14.757812 23.230469 L 14.707031 23.238281 L 14.605469 23.261719 L 14.554688 23.265625 L 14.503906 23.273438 L 14.351562 23.285156 L 14.242188 23.285156 L 14.140625 23.277344 L 14.085938 23.269531 L 14.035156 23.261719 L 13.980469 23.257812 L 13.929688 23.246094 Z M 13.921875 23.25 L 13.898438 23.246094 Z M 12.429688 21.46875 L 12.636719 21.460938 L 12.644531 21.601562 L 12.667969 21.742188 L 12.6875 21.8125 L 12.703125 21.878906 L 12.722656 21.949219 L 12.746094 22.011719 L 12.773438 22.074219 L 12.804688 22.140625 L 12.832031 22.199219 L 12.867188 22.261719 L 12.902344 22.316406 L 12.941406 22.375 L 12.980469 22.429688 L 13.023438 22.484375 L 13.117188 22.585938 L 13.164062 22.632812 L 13.214844 22.679688 L 13.269531 22.722656 L 13.324219 22.761719 L 13.378906 22.804688 L 13.4375 22.839844 L 13.5 22.875 L 13.558594 22.90625 L 13.621094 22.9375 L 13.6875 22.964844 L 13.820312 23.011719 L 13.890625 23.03125 L 13.960938 23.046875 L 13.917969 23.25 L 13.839844 23.234375 L 13.761719 23.214844 L 13.6875 23.191406 L 13.613281 23.164062 L 13.539062 23.132812 L 13.398438 23.0625 L 13.332031 23.023438 L 13.261719 22.980469 L 13.199219 22.9375 L 13.140625 22.890625 L 13.078125 22.839844 L 13.019531 22.789062 L 12.964844 22.738281 L 12.910156 22.679688 L 12.859375 22.621094 L 12.8125 22.5625 L 12.765625 22.5 L 12.722656 22.433594 L 12.683594 22.371094 L 12.644531 22.304688 L 12.613281 22.234375 L 12.578125 22.164062 L 12.546875 22.089844 L 12.519531 22.015625 L 12.496094 21.941406 L 12.476562 21.863281 L 12.460938 21.785156 L 12.449219 21.710938 L 12.4375 21.628906 L 12.429688 21.546875 L 12.425781 21.46875 Z M 13.832031 19.613281 L 13.878906 19.8125 L 13.808594 19.832031 L 13.675781 19.878906 L 13.613281 19.90625 L 13.546875 19.9375 L 13.488281 19.96875 L 13.425781 20.007812 L 13.371094 20.042969 L 13.3125 20.085938 L 13.261719 20.128906 L 13.207031 20.171875 L 13.105469 20.265625 L 13.058594 20.316406 L 13.015625 20.371094 L 12.972656 20.421875 L 12.929688 20.480469 L 12.894531 20.539062 L 12.855469 20.59375 L 12.824219 20.65625 L 12.792969 20.714844 L 12.765625 20.78125 L 12.738281 20.84375 L 12.714844 20.910156 L 12.695312 20.976562 L 12.679688 21.042969 L 12.664062 21.113281 L 12.640625 21.253906 L 12.632812 21.394531 L 12.632812 21.464844 L 12.425781 21.472656 L 12.425781 21.390625 L 12.429688 21.308594 L 12.4375 21.230469 L 12.460938 21.074219 L 12.476562 20.996094 L 12.496094 20.921875 L 12.519531 20.847656 L 12.546875 20.773438 L 12.578125 20.699219 L 12.640625 20.558594 L 12.679688 20.492188 L 12.71875 20.421875 L 12.804688 20.296875 L 12.855469 20.234375 L 12.902344 20.179688 L 12.957031 20.121094 L 13.011719 20.066406 L 13.070312 20.015625 L 13.1875 19.921875 L 13.253906 19.875 L 13.316406 19.832031 L 13.382812 19.792969 L 13.453125 19.753906 L 13.523438 19.722656 L 13.671875 19.660156 L 13.828125 19.613281 Z M 13.878906 19.8125 L 13.929688 19.800781 Z M 13.855469 19.710938 L 13.828125 19.609375 Z M 13.878906 19.8125 L 13.929688 19.800781 Z M 14.289062 23.585938 L 14.289062 23.789062 L 13.996094 23.789062 L 13.976562 23.785156 L 13.953125 23.777344 L 13.933594 23.773438 L 13.921875 23.769531 L 13.90625 23.765625 L 13.890625 23.765625 L 13.878906 23.761719 L 13.859375 23.757812 L 13.84375 23.753906 L 13.832031 23.75 L 13.816406 23.746094 L 13.855469 23.546875 L 13.871094 23.550781 L 13.882812 23.550781 L 13.898438 23.554688 L 13.910156 23.558594 L 13.925781 23.5625 L 13.9375 23.566406 L 13.953125 23.570312 L 13.964844 23.574219 L 13.976562 23.574219 L 13.992188 23.578125 L 14.003906 23.582031 L 14.03125 23.582031 L 14.046875 23.585938 Z M 14.289062 23.789062 Z M 16.433594 21.785156 L 16.632812 21.820312 L 16.613281 21.925781 L 16.585938 22.03125 L 16.523438 22.234375 L 16.484375 22.332031 L 16.441406 22.425781 L 16.394531 22.519531 L 16.34375 22.609375 L 16.292969 22.695312 L 16.234375 22.78125 L 16.109375 22.945312 L 16.042969 23.023438 L 15.972656 23.097656 L 15.898438 23.167969 L 15.820312 23.234375 L 15.742188 23.296875 L 15.65625 23.359375 L 15.574219 23.414062 L 15.484375 23.46875 L 15.394531 23.519531 L 15.304688 23.566406 L 15.210938 23.609375 L 15.015625 23.679688 L 14.914062 23.710938 L 14.8125 23.734375 L 14.710938 23.753906 L 14.605469 23.769531 L 14.5 23.78125 L 14.390625 23.789062 L 14.285156 23.789062 L 14.285156 23.585938 L 14.382812 23.582031 L 14.476562 23.574219 L 14.574219 23.566406 L 14.667969 23.550781 L 14.761719 23.53125 L 14.855469 23.507812 L 15.035156 23.453125 L 15.121094 23.417969 L 15.210938 23.382812 L 15.292969 23.335938 L 15.375 23.292969 L 15.457031 23.242188 L 15.53125 23.191406 L 15.605469 23.136719 L 15.679688 23.078125 L 15.75 23.019531 L 15.882812 22.886719 L 15.941406 22.816406 L 16 22.742188 L 16.054688 22.667969 L 16.109375 22.589844 L 16.160156 22.507812 L 16.207031 22.425781 L 16.292969 22.253906 L 16.324219 22.164062 L 16.355469 22.070312 L 16.382812 21.976562 L 16.40625 21.882812 L 16.425781 21.785156 Z M 14.949219 19.277344 L 15.152344 19.277344 L 15.082031 19.179688 L 15.183594 19.21875 L 15.28125 19.261719 L 15.378906 19.308594 L 15.472656 19.359375 L 15.5625 19.414062 L 15.648438 19.46875 L 15.734375 19.53125 L 15.8125 19.59375 L 15.890625 19.660156 L 15.964844 19.730469 L 16.035156 19.804688 L 16.101562 19.882812 L 16.167969 19.964844 L 16.226562 20.042969 L 16.285156 20.128906 L 16.339844 20.214844 L 16.386719 20.304688 L 16.480469 20.492188 L 16.515625 20.585938 L 16.550781 20.683594 L 16.605469 20.878906 L 16.625 20.980469 L 16.644531 21.085938 L 16.65625 21.1875 L 16.664062 21.292969 L 16.667969 21.398438 L 16.667969 21.5 L 16.660156 21.609375 L 16.648438 21.714844 L 16.632812 21.824219 L 16.433594 21.789062 L 16.457031 21.59375 L 16.460938 21.496094 L 16.460938 21.402344 L 16.457031 21.304688 L 16.453125 21.210938 L 16.441406 21.113281 L 16.425781 21.019531 L 16.40625 20.929688 L 16.382812 20.839844 L 16.355469 20.75 L 16.324219 20.660156 L 16.292969 20.574219 L 16.253906 20.492188 L 16.214844 20.40625 L 16.171875 20.328125 L 16.121094 20.246094 L 16.070312 20.167969 L 15.953125 20.019531 L 15.890625 19.949219 L 15.828125 19.882812 L 15.761719 19.820312 L 15.691406 19.757812 L 15.617188 19.699219 L 15.539062 19.640625 L 15.457031 19.585938 L 15.375 19.539062 L 15.203125 19.445312 L 15.113281 19.40625 L 15.023438 19.371094 L 14.953125 19.277344 Z M 15.019531 19.375 L 14.949219 19.351562 L 14.949219 19.277344 Z M 15.15625 11.832031 L 15.15625 19.277344 L 14.953125 19.277344 L 14.953125 11.832031 Z M 14.296875 11.179688 L 14.296875 10.972656 L 14.339844 10.972656 L 14.382812 10.976562 L 14.429688 10.984375 L 14.472656 10.992188 L 14.511719 11 L 14.550781 11.011719 L 14.59375 11.023438 L 14.632812 11.042969 L 14.667969 11.058594 L 14.707031 11.078125 L 14.742188 11.097656 L 14.8125 11.144531 L 14.90625 11.226562 L 14.929688 11.257812 L 14.957031 11.285156 L 14.984375 11.320312 L 15.007812 11.351562 L 15.03125 11.386719 L 15.050781 11.425781 L 15.074219 11.460938 L 15.089844 11.496094 L 15.105469 11.539062 L 15.121094 11.578125 L 15.128906 11.617188 L 15.140625 11.660156 L 15.144531 11.703125 L 15.152344 11.746094 L 15.15625 11.789062 L 15.15625 11.832031 L 14.953125 11.832031 L 14.953125 11.800781 L 14.949219 11.765625 L 14.945312 11.734375 L 14.9375 11.699219 L 14.929688 11.667969 L 14.921875 11.640625 L 14.910156 11.609375 L 14.902344 11.578125 L 14.886719 11.546875 L 14.875 11.519531 L 14.859375 11.492188 L 14.839844 11.464844 L 14.824219 11.4375 L 14.785156 11.390625 L 14.738281 11.34375 L 14.691406 11.304688 L 14.664062 11.285156 L 14.609375 11.253906 L 14.578125 11.238281 L 14.546875 11.226562 L 14.519531 11.214844 L 14.488281 11.207031 L 14.457031 11.195312 L 14.429688 11.1875 L 14.359375 11.179688 L 14.328125 11.175781 L 14.292969 11.175781 Z M 13.640625 11.832031 L 13.4375 11.832031 L 13.4375 11.789062 L 13.441406 11.746094 L 13.449219 11.703125 L 13.453125 11.660156 L 13.464844 11.617188 L 13.472656 11.578125 L 13.488281 11.539062 L 13.503906 11.496094 L 13.542969 11.425781 L 13.5625 11.386719 L 13.585938 11.351562 L 13.609375 11.320312 L 13.636719 11.285156 L 13.664062 11.257812 L 13.6875 11.226562 L 13.75 11.171875 L 13.785156 11.144531 L 13.816406 11.121094 L 13.851562 11.097656 L 13.886719 11.078125 L 13.925781 11.058594 L 13.960938 11.042969 L 14 11.023438 L 14.042969 11.011719 L 14.082031 11 L 14.121094 10.992188 L 14.167969 10.984375 L 14.210938 10.976562 L 14.253906 10.972656 L 14.296875 10.972656 L 14.296875 11.179688 L 14.261719 11.179688 L 14.230469 11.183594 L 14.195312 11.183594 L 14.132812 11.199219 L 14.101562 11.210938 L 14.070312 11.21875 L 14.042969 11.230469 L 14.011719 11.242188 L 13.980469 11.257812 L 13.953125 11.273438 L 13.929688 11.289062 L 13.902344 11.304688 L 13.878906 11.328125 L 13.855469 11.347656 L 13.808594 11.394531 L 13.769531 11.441406 L 13.738281 11.496094 L 13.71875 11.519531 L 13.707031 11.550781 L 13.691406 11.582031 L 13.683594 11.613281 L 13.671875 11.640625 L 13.648438 11.734375 L 13.640625 11.804688 L 13.640625 11.835938 Z M 13.4375 19.277344 L 13.4375 11.832031 L 13.640625 11.832031 L 13.640625 19.277344 L 13.574219 19.375 Z M 13.640625 19.277344 L 13.640625 19.351562 L 13.574219 19.375 Z M 12.136719 21.570312 L 11.929688 21.582031 L 11.925781 21.480469 L 11.925781 21.382812 L 11.929688 21.285156 L 11.945312 21.089844 L 11.984375 20.902344 L 12.007812 20.808594 L 12.035156 20.71875 L 12.097656 20.539062 L 12.136719 20.449219 L 12.175781 20.363281 L 12.21875 20.28125 L 12.265625 20.195312 L 12.316406 20.113281 L 12.371094 20.039062 L 12.425781 19.960938 L 12.488281 19.886719 L 12.550781 19.816406 L 12.617188 19.746094 L 12.757812 19.613281 L 12.90625 19.496094 L 12.988281 19.441406 L 13.152344 19.339844 L 13.238281 19.292969 L 13.328125 19.25 L 13.417969 19.210938 L 13.511719 19.175781 L 13.582031 19.371094 L 13.5 19.402344 L 13.414062 19.441406 L 13.332031 19.476562 L 13.257812 19.515625 L 13.179688 19.5625 L 13.105469 19.609375 L 12.964844 19.710938 L 12.898438 19.769531 L 12.832031 19.824219 L 12.769531 19.886719 L 12.710938 19.949219 L 12.652344 20.015625 L 12.597656 20.082031 L 12.496094 20.222656 L 12.449219 20.296875 L 12.40625 20.371094 L 12.367188 20.445312 L 12.328125 20.523438 L 12.296875 20.605469 L 12.265625 20.683594 L 12.238281 20.769531 L 12.214844 20.851562 L 12.195312 20.9375 L 12.179688 21.023438 L 12.164062 21.113281 L 12.15625 21.199219 L 12.148438 21.289062 L 12.144531 21.378906 L 12.144531 21.472656 L 12.148438 21.5625 Z M 11.929688 21.582031 L 11.929688 21.597656 Z M 13.945312 23.640625 L 13.738281 23.640625 L 13.824219 23.742188 L 13.726562 23.71875 L 13.632812 23.691406 L 13.539062 23.660156 L 13.449219 23.625 L 13.355469 23.589844 L 13.269531 23.550781 L 13.097656 23.457031 L 13.019531 23.40625 L 12.9375 23.355469 L 12.859375 23.296875 L 12.785156 23.238281 L 12.644531 23.113281 L 12.578125 23.046875 L 12.515625 22.976562 L 12.453125 22.902344 L 12.398438 22.828125 L 12.339844 22.75 L 12.289062 22.667969 L 12.238281 22.589844 L 12.191406 22.503906 L 12.148438 22.421875 L 12.070312 22.242188 L 12.042969 22.152344 L 12.011719 22.058594 L 11.988281 21.964844 L 11.96875 21.871094 L 11.949219 21.773438 L 11.925781 21.578125 L 12.132812 21.566406 L 12.136719 21.65625 L 12.152344 21.746094 L 12.167969 21.832031 L 12.1875 21.921875 L 12.210938 22.007812 L 12.238281 22.09375 L 12.269531 22.175781 L 12.304688 22.257812 L 12.339844 22.335938 L 12.378906 22.414062 L 12.421875 22.492188 L 12.464844 22.566406 L 12.511719 22.640625 L 12.5625 22.710938 L 12.617188 22.78125 L 12.671875 22.847656 L 12.789062 22.972656 L 12.921875 23.089844 L 12.988281 23.144531 L 13.058594 23.191406 L 13.132812 23.242188 L 13.207031 23.289062 L 13.285156 23.335938 L 13.359375 23.375 L 13.523438 23.445312 L 13.609375 23.476562 L 13.691406 23.503906 L 13.78125 23.527344 L 13.867188 23.546875 L 13.953125 23.644531 Z M 13.859375 23.539062 L 13.945312 23.554688 L 13.945312 23.640625 Z M 13.738281 23.640625 L 13.941406 23.640625 L 13.816406 23.742188 L 13.734375 23.640625 Z M 13.820312 23.742188 L 13.738281 23.722656 L 13.738281 23.640625 Z M 13.820312 23.742188 "/>
<path style=" stroke:none;fill-rule:nonzero;fill:rgb(92.941176%,41.176471%,36.078431%);fill-opacity:1;" d="M 14.039062 22.652344 C 14.054688 22.65625 14.070312 22.65625 14.085938 22.65625 C 14.214844 22.65625 14.324219 22.554688 14.335938 22.429688 C 14.351562 22.300781 14.261719 22.183594 14.136719 22.15625 C 13.84375 22.089844 13.617188 21.855469 13.558594 21.566406 C 13.53125 21.429688 13.402344 21.339844 13.265625 21.363281 C 13.132812 21.386719 13.042969 21.515625 13.0625 21.652344 C 13.15625 22.152344 13.542969 22.546875 14.039062 22.648438 Z M 14.039062 22.652344 "/>
<path style=" stroke:none;fill-rule:nonzero;fill:rgb(92.941176%,41.176471%,36.078431%);fill-opacity:1;" d="M 14.085938 22.554688 L 14.085938 22.761719 L 14.074219 22.761719 L 14.085938 22.761719 L 14.070312 22.761719 L 14.078125 22.761719 L 14.0625 22.761719 L 14.050781 22.757812 L 14.0625 22.757812 L 14.058594 22.757812 L 14.046875 22.753906 L 14.054688 22.753906 L 14.039062 22.753906 L 14.046875 22.753906 L 14.03125 22.753906 L 14.070312 22.550781 L 14.074219 22.550781 L 14.070312 22.550781 L 14.078125 22.554688 L 14.082031 22.554688 L 14.074219 22.554688 L 14.085938 22.558594 L 14.074219 22.558594 L 14.078125 22.558594 L 14.09375 22.5625 L 14.082031 22.5625 L 14.089844 22.5625 L 14.078125 22.5625 L 14.09375 22.5625 L 14.085938 22.5625 L 14.09375 22.5625 L 14.085938 22.5625 Z M 14.085938 22.761719 Z M 14.234375 22.417969 L 14.4375 22.4375 L 14.433594 22.453125 L 14.429688 22.472656 L 14.429688 22.488281 L 14.425781 22.5 L 14.421875 22.519531 L 14.414062 22.535156 L 14.40625 22.546875 L 14.402344 22.5625 L 14.394531 22.574219 L 14.378906 22.605469 L 14.367188 22.617188 L 14.359375 22.632812 L 14.335938 22.65625 L 14.328125 22.667969 L 14.3125 22.675781 L 14.300781 22.6875 L 14.285156 22.695312 L 14.273438 22.707031 L 14.261719 22.714844 L 14.246094 22.71875 L 14.214844 22.734375 L 14.203125 22.738281 L 14.1875 22.742188 L 14.167969 22.746094 L 14.136719 22.753906 L 14.117188 22.757812 L 14.085938 22.757812 L 14.085938 22.550781 L 14.113281 22.550781 L 14.117188 22.546875 L 14.125 22.546875 L 14.140625 22.539062 L 14.144531 22.535156 L 14.167969 22.523438 L 14.171875 22.523438 L 14.179688 22.519531 L 14.1875 22.511719 L 14.191406 22.503906 L 14.199219 22.5 L 14.203125 22.496094 L 14.210938 22.480469 L 14.214844 22.476562 L 14.214844 22.472656 L 14.222656 22.457031 L 14.226562 22.453125 L 14.238281 22.429688 L 14.238281 22.410156 Z M 14.4375 22.4375 L 14.4375 22.453125 Z M 14.109375 22.257812 L 14.15625 22.054688 L 14.152344 22.054688 L 14.167969 22.058594 L 14.1875 22.0625 L 14.203125 22.070312 L 14.214844 22.074219 L 14.234375 22.082031 L 14.246094 22.089844 L 14.261719 22.09375 L 14.285156 22.117188 L 14.300781 22.125 L 14.3125 22.136719 L 14.324219 22.144531 L 14.332031 22.15625 L 14.34375 22.167969 L 14.355469 22.183594 L 14.363281 22.191406 L 14.375 22.207031 L 14.382812 22.21875 L 14.390625 22.234375 L 14.398438 22.246094 L 14.40625 22.261719 L 14.410156 22.277344 L 14.414062 22.289062 L 14.425781 22.335938 L 14.429688 22.355469 L 14.429688 22.4375 L 14.226562 22.417969 L 14.226562 22.363281 L 14.222656 22.355469 L 14.21875 22.351562 L 14.214844 22.34375 L 14.214844 22.335938 L 14.210938 22.332031 L 14.203125 22.316406 L 14.191406 22.304688 L 14.191406 22.300781 L 14.175781 22.285156 L 14.171875 22.285156 L 14.160156 22.273438 L 14.144531 22.265625 L 14.140625 22.261719 L 14.132812 22.261719 L 14.117188 22.253906 L 14.109375 22.253906 Z M 14.113281 22.257812 L 14.117188 22.257812 L 14.109375 22.257812 Z M 13.449219 21.582031 L 13.652344 21.542969 L 13.660156 21.566406 L 13.664062 21.589844 L 13.6875 21.660156 L 13.710938 21.699219 L 13.71875 21.71875 L 13.742188 21.757812 L 13.757812 21.78125 L 13.769531 21.800781 L 13.785156 21.820312 L 13.796875 21.835938 L 13.8125 21.855469 L 13.832031 21.871094 L 13.863281 21.902344 L 13.878906 21.921875 L 13.898438 21.933594 L 13.917969 21.949219 L 13.957031 21.972656 L 13.976562 21.988281 L 14 22 L 14.019531 22.007812 L 14.042969 22.019531 L 14.113281 22.042969 L 14.136719 22.046875 L 14.160156 22.054688 L 14.113281 22.257812 L 14.082031 22.25 L 14.050781 22.238281 L 14.023438 22.230469 L 13.992188 22.21875 L 13.960938 22.210938 L 13.933594 22.195312 L 13.90625 22.183594 L 13.878906 22.164062 L 13.855469 22.148438 L 13.800781 22.117188 L 13.707031 22.039062 L 13.683594 22.015625 L 13.664062 21.992188 L 13.640625 21.96875 L 13.601562 21.921875 L 13.585938 21.898438 L 13.570312 21.871094 L 13.550781 21.84375 L 13.539062 21.816406 L 13.523438 21.789062 L 13.5 21.734375 L 13.476562 21.671875 L 13.46875 21.640625 L 13.460938 21.613281 L 13.453125 21.582031 Z M 13.652344 21.542969 Z M 13.277344 21.464844 L 13.238281 21.261719 L 13.257812 21.257812 L 13.339844 21.257812 L 13.355469 21.261719 L 13.375 21.265625 L 13.40625 21.273438 L 13.425781 21.28125 L 13.441406 21.285156 L 13.472656 21.300781 L 13.484375 21.304688 L 13.5 21.316406 L 13.511719 21.328125 L 13.523438 21.335938 L 13.539062 21.347656 L 13.550781 21.359375 L 13.5625 21.375 L 13.570312 21.386719 L 13.582031 21.402344 L 13.59375 21.414062 L 13.601562 21.425781 L 13.613281 21.445312 L 13.617188 21.457031 L 13.625 21.472656 L 13.632812 21.492188 L 13.640625 21.507812 L 13.640625 21.523438 L 13.644531 21.542969 L 13.445312 21.582031 L 13.441406 21.574219 L 13.4375 21.570312 L 13.425781 21.546875 L 13.425781 21.542969 L 13.414062 21.519531 L 13.410156 21.515625 L 13.402344 21.5 L 13.398438 21.496094 L 13.390625 21.496094 L 13.382812 21.492188 L 13.375 21.484375 L 13.359375 21.476562 L 13.355469 21.472656 L 13.347656 21.472656 L 13.332031 21.464844 L 13.328125 21.464844 L 13.320312 21.460938 L 13.273438 21.460938 Z M 13.238281 21.261719 L 13.285156 21.257812 L 13.238281 21.265625 Z M 13.15625 21.632812 L 12.953125 21.667969 L 12.953125 21.664062 L 12.949219 21.648438 L 12.949219 21.578125 L 12.953125 21.5625 L 12.957031 21.542969 L 12.96875 21.496094 L 12.972656 21.476562 L 12.980469 21.460938 L 12.988281 21.449219 L 12.996094 21.429688 L 13.003906 21.417969 L 13.015625 21.402344 L 13.023438 21.390625 L 13.035156 21.378906 L 13.046875 21.363281 L 13.054688 21.355469 L 13.070312 21.34375 L 13.082031 21.332031 L 13.09375 21.324219 L 13.109375 21.3125 L 13.121094 21.304688 L 13.140625 21.292969 L 13.152344 21.285156 L 13.167969 21.28125 L 13.1875 21.273438 L 13.234375 21.261719 L 13.273438 21.464844 L 13.257812 21.472656 L 13.25 21.472656 L 13.234375 21.480469 L 13.230469 21.484375 L 13.214844 21.492188 L 13.210938 21.496094 L 13.203125 21.496094 L 13.195312 21.5 L 13.191406 21.503906 L 13.183594 21.519531 L 13.179688 21.523438 L 13.171875 21.539062 L 13.167969 21.542969 L 13.164062 21.550781 L 13.164062 21.558594 L 13.160156 21.566406 L 13.15625 21.570312 L 13.152344 21.578125 L 13.152344 21.640625 L 13.152344 21.636719 Z M 12.953125 21.667969 L 12.953125 21.664062 Z M 14.050781 22.546875 L 14.015625 22.746094 L 14.011719 22.746094 L 13.960938 22.738281 L 13.859375 22.707031 L 13.8125 22.691406 L 13.765625 22.667969 L 13.71875 22.648438 L 13.589844 22.578125 L 13.503906 22.523438 L 13.464844 22.496094 L 13.425781 22.464844 L 13.386719 22.429688 L 13.351562 22.398438 L 13.3125 22.363281 L 13.28125 22.328125 L 13.246094 22.289062 L 13.214844 22.253906 L 13.1875 22.214844 L 13.15625 22.171875 L 13.128906 22.132812 L 13.101562 22.089844 L 13.078125 22.046875 L 13.054688 22 L 12.996094 21.859375 L 12.980469 21.8125 L 12.96875 21.761719 L 12.953125 21.710938 L 12.945312 21.664062 L 13.144531 21.625 L 13.15625 21.667969 L 13.164062 21.710938 L 13.179688 21.75 L 13.191406 21.789062 L 13.210938 21.832031 L 13.226562 21.871094 L 13.242188 21.90625 L 13.261719 21.945312 L 13.285156 21.980469 L 13.304688 22.019531 L 13.351562 22.089844 L 13.378906 22.121094 L 13.402344 22.15625 L 13.429688 22.1875 L 13.488281 22.246094 L 13.550781 22.300781 L 13.585938 22.328125 L 13.617188 22.351562 L 13.6875 22.398438 L 13.726562 22.417969 L 13.761719 22.4375 L 13.800781 22.453125 L 13.839844 22.472656 L 13.878906 22.488281 L 13.921875 22.5 L 13.960938 22.515625 L 14 22.523438 L 14.046875 22.535156 L 14.042969 22.535156 Z M 14.015625 22.746094 L 14.003906 22.746094 L 14.015625 22.75 Z M 14.03125 22.644531 L 14.046875 22.546875 Z M 14.015625 22.746094 L 14.003906 22.746094 L 14.015625 22.75 Z M 14.015625 22.746094 "/>
</g>
</svg>
