<?xml version="1.0" encoding="UTF-8"?>
<svg xmlns="http://www.w3.org/2000/svg" xmlns:xlink="http://www.w3.org/1999/xlink" width="28px" height="28px" viewBox="0 0 28 61" version="1.1">
<g id="surface1">
<path style=" stroke:none;fill-rule:nonzero;fill:rgb(92.941176%,41.176471%,36.078431%);fill-opacity:1;" d="M 7.660156 36.289062 C 7.953125 36.105469 8.121094 35.777344 8.121094 35.441406 L 8.121094 8.097656 C 8.121094 4.742188 10.847656 2.035156 14.207031 2.035156 C 17.574219 2.035156 20.292969 4.75 20.292969 8.097656 L 20.292969 35.441406 C 20.292969 35.785156 20.472656 36.105469 20.757812 36.289062 C 25.3125 39.191406 27.410156 44.742188 25.890625 49.917969 C 24.371094 55.09375 19.609375 58.640625 14.199219 58.640625 C 8.789062 58.640625 4.023438 55.085938 2.503906 49.917969 C 0.988281 44.742188 3.082031 39.191406 7.640625 36.289062 Z M 0.132812 48.421875 C 1.011719 54.835938 6.15625 59.847656 12.617188 60.570312 C 19.085938 61.296875 25.214844 57.5625 27.507812 51.5 C 29.800781 45.441406 27.667969 38.597656 22.335938 34.902344 L 22.335938 8.097656 C 22.335938 3.628906 18.703125 0.0078125 14.214844 0.0078125 C 9.730469 0.0078125 6.09375 3.628906 6.09375 8.097656 L 6.09375 34.902344 C 1.699219 37.925781 -0.605469 43.15625 0.132812 48.421875 Z M 0.132812 48.421875 "/>
<path style=" stroke:none;fill-rule:nonzero;fill:rgb(92.941176%,41.176471%,36.078431%);fill-opacity:1;" d="M 12.441406 39.652344 C 12.882812 39.539062 13.195312 39.140625 13.195312 38.679688 L 13.195312 8.089844 C 13.195312 7.53125 13.648438 7.078125 14.207031 7.078125 C 14.765625 7.078125 15.21875 7.53125 15.21875 8.089844 L 15.21875 38.679688 C 15.21875 39.140625 15.53125 39.539062 15.976562 39.652344 C 18.570312 40.316406 20.5625 42.367188 21.136719 44.972656 C 21.714844 47.5625 20.78125 50.269531 18.710938 51.960938 C 17.050781 53.316406 14.867188 53.855469 12.757812 53.429688 C 9.523438 52.757812 7.179688 49.960938 7.097656 46.679688 C 7.019531 43.394531 9.222656 40.484375 12.421875 39.660156 Z M 12.386719 55.414062 C 12.980469 55.527344 13.585938 55.589844 14.199219 55.589844 C 18.652344 55.605469 22.472656 52.414062 23.226562 48.042969 C 23.980469 43.671875 21.46875 39.394531 17.265625 37.917969 L 17.265625 8.078125 C 17.265625 6.40625 15.90625 5.042969 14.214844 5.042969 C 12.539062 5.042969 11.167969 6.398438 11.167969 8.078125 L 11.167969 37.917969 C 7.304688 39.28125 4.824219 43.050781 5.109375 47.121094 C 5.394531 51.199219 8.371094 54.582031 12.386719 55.402344 Z M 12.386719 55.414062 "/>
<path style=" stroke:none;fill-rule:nonzero;fill:rgb(92.941176%,41.176471%,36.078431%);fill-opacity:1;" d="M 13.167969 51.449219 C 13.230469 51.457031 13.300781 51.464844 13.363281 51.464844 C 13.886719 51.464844 14.324219 51.066406 14.375 50.554688 C 14.429688 50.042969 14.074219 49.5625 13.558594 49.464844 C 12.378906 49.199219 11.472656 48.269531 11.230469 47.09375 C 11.125 46.554688 10.601562 46.199219 10.058594 46.289062 C 9.515625 46.386719 9.152344 46.898438 9.230469 47.449219 C 9.613281 49.457031 11.160156 51.03125 13.167969 51.449219 Z M 13.167969 51.449219 "/>
</g>
</svg>
