<?xml version="1.0" encoding="UTF-8"?>
<svg xmlns="http://www.w3.org/2000/svg" xmlns:xlink="http://www.w3.org/1999/xlink" width="28px" height="28px" viewBox="0 0 28 28" version="1.1">
<g id="surface1">
<path style=" stroke:none;fill-rule:nonzero;fill:rgb(92.941176%,41.176471%,36.078431%);fill-opacity:1;" d="M 11.089844 16.65625 C 11.222656 16.574219 11.300781 16.421875 11.300781 16.269531 L 11.300781 3.71875 C 11.300781 2.175781 12.554688 0.933594 14.09375 0.933594 C 15.640625 0.933594 16.886719 2.179688 16.886719 3.71875 L 16.886719 16.269531 C 16.886719 16.425781 16.972656 16.574219 17.101562 16.65625 C 19.191406 17.988281 20.15625 20.539062 19.457031 22.914062 C 18.761719 25.289062 16.574219 26.917969 14.089844 26.917969 C 11.609375 26.917969 9.421875 25.285156 8.722656 22.914062 C 8.027344 20.539062 8.988281 17.988281 11.082031 16.65625 Z M 7.632812 22.226562 C 8.039062 25.171875 10.398438 27.472656 13.367188 27.804688 C 16.335938 28.136719 19.148438 26.421875 20.199219 23.640625 C 21.253906 20.859375 20.273438 17.71875 17.828125 16.019531 L 17.828125 3.71875 C 17.828125 1.664062 16.160156 0.00390625 14.097656 0.00390625 C 12.039062 0.00390625 10.371094 1.664062 10.371094 3.71875 L 10.371094 16.019531 C 8.355469 17.410156 7.296875 19.808594 7.632812 22.226562 Z M 7.632812 22.226562 "/>
<path style=" stroke:none;fill-rule:nonzero;fill:rgb(92.941176%,41.176471%,36.078431%);fill-opacity:1;" d="M 13.285156 18.199219 C 13.488281 18.148438 13.628906 17.964844 13.628906 17.753906 L 13.628906 3.714844 C 13.628906 3.457031 13.839844 3.25 14.09375 3.25 C 14.351562 3.25 14.558594 3.457031 14.558594 3.714844 L 14.558594 17.753906 C 14.558594 17.964844 14.703125 18.148438 14.90625 18.199219 C 16.097656 18.507812 17.011719 19.445312 17.277344 20.644531 C 17.542969 21.832031 17.113281 23.074219 16.164062 23.851562 C 15.398438 24.472656 14.398438 24.71875 13.429688 24.523438 C 11.945312 24.214844 10.871094 22.933594 10.832031 21.425781 C 10.796875 19.917969 11.808594 18.582031 13.277344 18.203125 Z M 13.257812 25.4375 C 13.53125 25.488281 13.808594 25.515625 14.089844 25.515625 C 16.136719 25.523438 17.890625 24.058594 18.234375 22.050781 C 18.582031 20.046875 17.429688 18.082031 15.5 17.40625 L 15.5 3.707031 C 15.5 2.941406 14.875 2.316406 14.097656 2.316406 C 13.328125 2.316406 12.699219 2.9375 12.699219 3.707031 L 12.699219 17.40625 C 10.925781 18.03125 9.789062 19.761719 9.917969 21.628906 C 10.050781 23.5 11.417969 25.054688 13.257812 25.429688 Z M 13.257812 25.4375 "/>
<path style=" stroke:none;fill-rule:nonzero;fill:rgb(92.941176%,41.176471%,36.078431%);fill-opacity:1;" d="M 13.617188 23.617188 C 13.648438 23.621094 13.679688 23.625 13.707031 23.625 C 13.949219 23.625 14.148438 23.441406 14.171875 23.207031 C 14.195312 22.96875 14.035156 22.75 13.796875 22.707031 C 13.257812 22.582031 12.839844 22.15625 12.730469 21.617188 C 12.679688 21.371094 12.441406 21.207031 12.191406 21.246094 C 11.941406 21.292969 11.773438 21.527344 11.8125 21.78125 C 11.988281 22.703125 12.695312 23.425781 13.617188 23.617188 Z M 13.617188 23.617188 "/>
</g>
</svg>
