<?xml version="1.0" encoding="UTF-8"?>
<svg xmlns="http://www.w3.org/2000/svg" xmlns:xlink="http://www.w3.org/1999/xlink" width="28px" height="28px" viewBox="0 0 28 28" version="1.1">
<g id="surface1">
<path style=" stroke:none;fill-rule:nonzero;fill:rgb(92.941176%,41.176471%,36.078431%);fill-opacity:1;" d="M 11.054688 16.65625 C 11.1875 16.570312 11.269531 16.417969 11.269531 16.265625 L 11.269531 3.710938 C 11.269531 2.175781 12.542969 0.925781 14.113281 0.925781 C 15.683594 0.925781 16.957031 2.175781 16.957031 3.710938 L 16.957031 16.265625 C 16.957031 16.417969 17.039062 16.566406 17.171875 16.652344 C 19.300781 17.984375 20.277344 20.53125 19.570312 22.90625 C 18.863281 25.277344 16.636719 26.910156 14.113281 26.910156 C 11.589844 26.910156 9.367188 25.277344 8.65625 22.90625 C 7.949219 20.53125 8.925781 17.984375 11.054688 16.652344 Z M 7.542969 22.21875 C 7.953125 25.167969 10.351562 27.464844 13.367188 27.796875 C 16.382812 28.132812 19.246094 26.417969 20.316406 23.632812 C 21.386719 20.851562 20.394531 17.714844 17.902344 16.015625 L 17.902344 3.710938 C 17.902344 1.664062 16.203125 0 14.113281 0 C 12.019531 0 10.324219 1.664062 10.324219 3.710938 L 10.324219 16.015625 C 8.273438 17.402344 7.195312 19.804688 7.542969 22.21875 Z M 7.542969 22.21875 "/>
<path style=" stroke:none;fill-rule:nonzero;fill:rgb(92.941176%,41.176471%,36.078431%);fill-opacity:1;" d="M 13.285156 18.199219 C 13.492188 18.144531 13.640625 17.960938 13.640625 17.75 L 13.640625 3.710938 C 13.640625 3.453125 13.847656 3.25 14.113281 3.25 C 14.375 3.25 14.585938 3.453125 14.585938 3.710938 L 14.585938 17.75 C 14.585938 17.960938 14.734375 18.144531 14.941406 18.199219 C 16.148438 18.503906 17.078125 19.445312 17.347656 20.640625 C 17.621094 21.832031 17.183594 23.074219 16.21875 23.847656 C 15.445312 24.46875 14.425781 24.714844 13.441406 24.523438 C 11.933594 24.214844 10.835938 22.933594 10.800781 21.421875 C 10.761719 19.914062 11.792969 18.578125 13.285156 18.199219 Z M 13.257812 25.433594 C 13.539062 25.488281 13.824219 25.515625 14.105469 25.515625 C 16.183594 25.523438 17.960938 24.058594 18.316406 22.050781 C 18.671875 20.046875 17.496094 18.082031 15.535156 17.402344 L 15.535156 3.710938 C 15.535156 2.941406 14.898438 2.320312 14.113281 2.320312 C 13.328125 2.320312 12.691406 2.941406 12.691406 3.710938 L 12.691406 17.402344 C 10.886719 18.035156 9.730469 19.761719 9.863281 21.632812 C 9.996094 23.503906 11.386719 25.054688 13.257812 25.433594 Z M 13.257812 25.433594 "/>
<path style=" stroke:none;fill-rule:nonzero;fill:rgb(92.941176%,41.176471%,36.078431%);fill-opacity:1;" d="M 13.621094 23.613281 C 13.652344 23.617188 13.683594 23.621094 13.714844 23.621094 C 13.957031 23.621094 14.160156 23.4375 14.183594 23.203125 C 14.207031 22.964844 14.042969 22.75 13.804688 22.703125 C 13.253906 22.582031 12.828125 22.15625 12.71875 21.613281 C 12.667969 21.371094 12.425781 21.203125 12.171875 21.246094 C 11.917969 21.292969 11.746094 21.527344 11.785156 21.777344 C 11.964844 22.699219 12.6875 23.421875 13.621094 23.613281 Z M 13.621094 23.613281 "/>
<path style=" stroke:none;fill-rule:nonzero;fill:rgb(92.941176%,41.176471%,36.078431%);fill-opacity:1;" d="M 8.042969 15.839844 L 4.839844 15.839844 C 4.488281 15.839844 4.199219 15.558594 4.199219 15.214844 C 4.199219 14.867188 4.488281 14.585938 4.839844 14.585938 L 8.042969 14.585938 C 8.398438 14.585938 8.683594 14.867188 8.683594 15.214844 C 8.683594 15.558594 8.398438 15.839844 8.042969 15.839844 Z M 8.042969 15.839844 "/>
<path style=" stroke:none;fill-rule:nonzero;fill:rgb(92.941176%,41.176471%,36.078431%);fill-opacity:1;" d="M 8.042969 9.566406 L 4.839844 9.566406 C 4.488281 9.566406 4.199219 9.285156 4.199219 8.9375 C 4.199219 8.589844 4.488281 8.308594 4.839844 8.308594 L 8.042969 8.308594 C 8.398438 8.308594 8.683594 8.589844 8.683594 8.9375 C 8.683594 9.285156 8.398438 9.566406 8.042969 9.566406 Z M 8.042969 9.566406 "/>
<path style=" stroke:none;fill-rule:nonzero;fill:rgb(92.941176%,41.176471%,36.078431%);fill-opacity:1;" d="M 8.042969 12.703125 L 6.121094 12.703125 C 5.769531 12.703125 5.480469 12.421875 5.480469 12.074219 C 5.480469 11.726562 5.769531 11.449219 6.121094 11.449219 L 8.042969 11.449219 C 8.398438 11.449219 8.683594 11.730469 8.683594 12.074219 C 8.683594 12.421875 8.398438 12.703125 8.042969 12.703125 Z M 8.042969 12.703125 "/>
<path style=" stroke:none;fill-rule:nonzero;fill:rgb(92.941176%,41.176471%,36.078431%);fill-opacity:1;" d="M 20.175781 15.839844 L 23.382812 15.839844 C 23.734375 15.839844 24.019531 15.558594 24.019531 15.214844 C 24.019531 14.867188 23.734375 14.585938 23.382812 14.585938 L 20.175781 14.585938 C 19.824219 14.585938 19.535156 14.867188 19.535156 15.214844 C 19.535156 15.558594 19.824219 15.839844 20.175781 15.839844 Z M 20.175781 15.839844 "/>
<path style=" stroke:none;fill-rule:nonzero;fill:rgb(92.941176%,41.176471%,36.078431%);fill-opacity:1;" d="M 20.175781 9.566406 L 23.382812 9.566406 C 23.734375 9.566406 24.019531 9.285156 24.019531 8.9375 C 24.019531 8.589844 23.734375 8.308594 23.382812 8.308594 L 20.175781 8.308594 C 19.824219 8.308594 19.535156 8.589844 19.535156 8.9375 C 19.535156 9.285156 19.824219 9.566406 20.175781 9.566406 Z M 20.175781 9.566406 "/>
<path style=" stroke:none;fill-rule:nonzero;fill:rgb(92.941176%,41.176471%,36.078431%);fill-opacity:1;" d="M 20.175781 12.703125 L 22.097656 12.703125 C 22.453125 12.703125 22.738281 12.421875 22.738281 12.074219 C 22.738281 11.726562 22.453125 11.449219 22.097656 11.449219 L 20.175781 11.449219 C 19.824219 11.449219 19.535156 11.730469 19.535156 12.074219 C 19.535156 12.421875 19.824219 12.703125 20.175781 12.703125 Z M 20.175781 12.703125 "/>
<path style=" stroke:none;fill-rule:nonzero;fill:rgb(92.941176%,41.176471%,36.078431%);fill-opacity:1;" d="M 8.042969 6.28125 L 6.121094 6.28125 C 5.769531 6.28125 5.480469 6.003906 5.480469 5.65625 C 5.480469 5.308594 5.769531 5.027344 6.121094 5.027344 L 8.042969 5.027344 C 8.398438 5.027344 8.683594 5.308594 8.683594 5.65625 C 8.683594 6.003906 8.398438 6.28125 8.042969 6.28125 Z M 8.042969 6.28125 "/>
<path style=" stroke:none;fill-rule:nonzero;fill:rgb(92.941176%,41.176471%,36.078431%);fill-opacity:1;" d="M 20.175781 6.28125 L 22.097656 6.28125 C 22.453125 6.28125 22.738281 6.003906 22.738281 5.65625 C 22.738281 5.308594 22.453125 5.027344 22.097656 5.027344 L 20.175781 5.027344 C 19.824219 5.027344 19.535156 5.308594 19.535156 5.65625 C 19.535156 6.003906 19.824219 6.28125 20.175781 6.28125 Z M 20.175781 6.28125 "/>
</g>
</svg>
