<?xml version="1.0" encoding="UTF-8"?>
<svg xmlns="http://www.w3.org/2000/svg" xmlns:xlink="http://www.w3.org/1999/xlink" width="28px" height="28px" viewBox="0 0 28 40" version="1.1">
<g id="surface1">
<path style=" stroke:none;fill-rule:nonzero;fill:rgb(92.941176%,41.176471%,36.078431%);fill-opacity:1;" d="M 9.792969 23.792969 C 9.984375 23.671875 10.101562 23.457031 10.101562 23.234375 L 10.101562 5.300781 C 10.101562 3.105469 11.917969 1.324219 14.160156 1.324219 C 16.402344 1.324219 18.222656 3.105469 18.222656 5.300781 L 18.222656 23.234375 C 18.222656 23.457031 18.339844 23.667969 18.53125 23.789062 C 21.574219 25.691406 22.964844 29.332031 21.957031 32.722656 C 20.945312 36.113281 17.769531 38.445312 14.160156 38.445312 C 10.554688 38.445312 7.382812 36.113281 6.367188 32.722656 C 5.355469 29.332031 6.753906 25.691406 9.792969 23.789062 Z M 4.773438 31.742188 C 5.359375 35.953125 8.789062 39.234375 13.09375 39.710938 C 17.402344 40.1875 21.492188 37.738281 23.023438 33.761719 C 24.550781 29.789062 23.132812 25.304688 19.574219 22.878906 L 19.574219 5.300781 C 19.574219 2.375 17.148438 0 14.160156 0 C 11.171875 0 8.75 2.375 8.75 5.300781 L 8.75 22.878906 C 5.820312 24.859375 4.28125 28.292969 4.773438 31.742188 Z M 4.773438 31.742188 "/>
<path style=" stroke:none;fill-rule:nonzero;fill:rgb(92.941176%,41.176471%,36.078431%);fill-opacity:1;" d="M 12.976562 26 C 13.273438 25.921875 13.484375 25.660156 13.484375 25.359375 L 13.484375 5.300781 C 13.484375 4.933594 13.785156 4.640625 14.160156 4.640625 C 14.535156 4.640625 14.835938 4.933594 14.835938 5.300781 L 14.835938 25.359375 C 14.835938 25.660156 15.046875 25.921875 15.34375 26 C 17.070312 26.433594 18.398438 27.78125 18.785156 29.484375 C 19.171875 31.1875 18.546875 32.960938 17.171875 34.066406 C 16.0625 34.957031 14.605469 35.308594 13.203125 35.03125 C 11.046875 34.59375 9.480469 32.761719 9.429688 30.601562 C 9.375 28.449219 10.847656 26.539062 12.976562 26 Z M 12.941406 36.332031 C 13.339844 36.410156 13.746094 36.449219 14.148438 36.449219 C 17.121094 36.460938 19.660156 34.367188 20.164062 31.503906 C 20.671875 28.636719 18.992188 25.832031 16.191406 24.863281 L 16.191406 5.300781 C 16.191406 4.203125 15.28125 3.3125 14.160156 3.3125 C 13.039062 3.3125 12.128906 4.203125 12.128906 5.300781 L 12.128906 24.863281 C 9.550781 25.761719 7.902344 28.230469 8.089844 30.902344 C 8.277344 33.574219 10.265625 35.792969 12.941406 36.332031 Z M 12.941406 36.332031 "/>
<path style=" stroke:none;fill-rule:nonzero;fill:rgb(92.941176%,41.176471%,36.078431%);fill-opacity:1;" d="M 13.460938 33.734375 C 13.503906 33.738281 13.546875 33.746094 13.589844 33.746094 C 13.9375 33.746094 14.226562 33.484375 14.261719 33.148438 C 14.296875 32.808594 14.0625 32.5 13.71875 32.433594 C 12.933594 32.261719 12.324219 31.652344 12.167969 30.878906 C 12.097656 30.527344 11.75 30.289062 11.386719 30.351562 C 11.023438 30.417969 10.777344 30.753906 10.835938 31.109375 C 11.089844 32.425781 12.125 33.460938 13.460938 33.734375 Z M 13.460938 33.734375 "/>
<path style=" stroke:none;fill-rule:nonzero;fill:rgb(92.941176%,41.176471%,36.078431%);fill-opacity:1;" d="M 5.492188 22.628906 L 0.914062 22.628906 C 0.410156 22.628906 0 22.226562 0 21.734375 C 0 21.238281 0.410156 20.835938 0.914062 20.835938 L 5.492188 20.835938 C 5.996094 20.835938 6.40625 21.238281 6.40625 21.734375 C 6.40625 22.226562 5.996094 22.628906 5.492188 22.628906 Z M 5.492188 22.628906 "/>
<path style=" stroke:none;fill-rule:nonzero;fill:rgb(92.941176%,41.176471%,36.078431%);fill-opacity:1;" d="M 5.492188 13.664062 L 0.914062 13.664062 C 0.410156 13.664062 0 13.261719 0 12.765625 C 0 12.269531 0.410156 11.871094 0.914062 11.871094 L 5.492188 11.871094 C 5.996094 11.871094 6.40625 12.273438 6.40625 12.765625 C 6.40625 13.261719 5.996094 13.664062 5.492188 13.664062 Z M 5.492188 13.664062 "/>
<path style=" stroke:none;fill-rule:nonzero;fill:rgb(92.941176%,41.176471%,36.078431%);fill-opacity:1;" d="M 5.492188 18.148438 L 2.746094 18.148438 C 2.242188 18.148438 1.832031 17.746094 1.832031 17.25 C 1.832031 16.753906 2.242188 16.355469 2.746094 16.355469 L 5.492188 16.355469 C 5.996094 16.355469 6.40625 16.757812 6.40625 17.25 C 6.40625 17.746094 5.996094 18.148438 5.492188 18.148438 Z M 5.492188 18.148438 "/>
<path style=" stroke:none;fill-rule:nonzero;fill:rgb(92.941176%,41.176471%,36.078431%);fill-opacity:1;" d="M 22.824219 22.628906 L 27.402344 22.628906 C 27.90625 22.628906 28.316406 22.226562 28.316406 21.734375 C 28.316406 21.238281 27.90625 20.835938 27.402344 20.835938 L 22.824219 20.835938 C 22.320312 20.835938 21.910156 21.238281 21.910156 21.734375 C 21.910156 22.226562 22.320312 22.628906 22.824219 22.628906 Z M 22.824219 22.628906 "/>
<path style=" stroke:none;fill-rule:nonzero;fill:rgb(92.941176%,41.176471%,36.078431%);fill-opacity:1;" d="M 22.824219 13.664062 L 27.402344 13.664062 C 27.90625 13.664062 28.316406 13.261719 28.316406 12.765625 C 28.316406 12.269531 27.90625 11.871094 27.402344 11.871094 L 22.824219 11.871094 C 22.320312 11.871094 21.910156 12.273438 21.910156 12.765625 C 21.910156 13.261719 22.320312 13.664062 22.824219 13.664062 Z M 22.824219 13.664062 "/>
<path style=" stroke:none;fill-rule:nonzero;fill:rgb(92.941176%,41.176471%,36.078431%);fill-opacity:1;" d="M 22.824219 18.148438 L 25.570312 18.148438 C 26.078125 18.148438 26.484375 17.746094 26.484375 17.25 C 26.484375 16.753906 26.074219 16.355469 25.570312 16.355469 L 22.824219 16.355469 C 22.320312 16.355469 21.910156 16.757812 21.910156 17.25 C 21.910156 17.746094 22.320312 18.148438 22.824219 18.148438 Z M 22.824219 18.148438 "/>
<path style=" stroke:none;fill-rule:nonzero;fill:rgb(92.941176%,41.176471%,36.078431%);fill-opacity:1;" d="M 5.492188 8.972656 L 2.746094 8.972656 C 2.242188 8.972656 1.832031 8.574219 1.832031 8.078125 C 1.832031 7.582031 2.242188 7.183594 2.746094 7.183594 L 5.492188 7.183594 C 5.996094 7.183594 6.40625 7.585938 6.40625 8.078125 C 6.40625 8.574219 5.996094 8.972656 5.492188 8.972656 Z M 5.492188 8.972656 "/>
<path style=" stroke:none;fill-rule:nonzero;fill:rgb(92.941176%,41.176471%,36.078431%);fill-opacity:1;" d="M 22.824219 8.972656 L 25.570312 8.972656 C 26.078125 8.972656 26.484375 8.574219 26.484375 8.078125 C 26.484375 7.582031 26.074219 7.183594 25.570312 7.183594 L 22.824219 7.183594 C 22.320312 7.183594 21.910156 7.585938 21.910156 8.078125 C 21.910156 8.574219 22.320312 8.972656 22.824219 8.972656 Z M 22.824219 8.972656 "/>
</g>
</svg>
