<?xml version="1.0" encoding="UTF-8"?>
<svg xmlns="http://www.w3.org/2000/svg" xmlns:xlink="http://www.w3.org/1999/xlink" width="28px" height="28px" viewBox="0 0 28 28" version="1.1">
<g id="surface1">
<path style=" stroke:none;fill-rule:nonzero;fill:rgb(92.941176%,41.176471%,36.078431%);fill-opacity:1;" d="M 13.632812 12.695312 L 13.632812 7.863281 L 14.980469 7.863281 L 14.980469 12.695312 Z M 11.824219 10.917969 L 11.824219 9.640625 L 16.800781 9.640625 L 16.800781 10.917969 Z M 11.824219 10.917969 "/>
<path style=" stroke:none;fill-rule:nonzero;fill:rgb(92.941176%,41.176471%,36.078431%);fill-opacity:1;" d="M 17.09375 14.984375 L 20.542969 5.136719 L 21.996094 5.136719 L 18.546875 14.984375 Z M 17.09375 14.984375 "/>
<path style=" stroke:none;fill-rule:nonzero;fill:rgb(92.941176%,41.176471%,36.078431%);fill-opacity:1;" d="M 21.335938 11.648438 L 24.296875 11.648438 L 24.296875 10.34375 L 21.335938 10.34375 Z M 21.335938 11.648438 "/>
<path style=" stroke:none;fill-rule:nonzero;fill:rgb(92.941176%,41.176471%,36.078431%);fill-opacity:1;" d="M 3.503906 16.65625 C 3.636719 16.570312 3.714844 16.421875 3.714844 16.261719 L 3.714844 3.710938 C 3.714844 2.171875 4.960938 0.925781 6.5 0.925781 C 8.035156 0.925781 9.28125 2.171875 9.28125 3.710938 L 9.28125 16.261719 C 9.28125 16.421875 9.363281 16.570312 9.496094 16.652344 C 11.582031 17.984375 12.535156 20.53125 11.84375 22.90625 C 11.148438 25.28125 8.972656 26.910156 6.5 26.910156 C 4.023438 26.910156 1.847656 25.28125 1.15625 22.90625 C 0.460938 20.53125 1.417969 17.984375 3.503906 16.652344 Z M 0.0625 22.222656 C 0.464844 25.167969 2.8125 27.464844 5.769531 27.796875 C 8.722656 28.132812 11.527344 26.417969 12.574219 23.636719 C 13.625 20.851562 12.648438 17.714844 10.210938 16.015625 L 10.210938 3.710938 C 10.210938 1.660156 8.546875 0 6.5 0 C 4.449219 0 2.789062 1.660156 2.789062 3.710938 L 2.789062 16.015625 C 0.777344 17.402344 -0.273438 19.804688 0.0625 22.222656 Z M 0.0625 22.222656 "/>
<path style=" stroke:none;fill-rule:nonzero;fill:rgb(92.941176%,41.176471%,36.078431%);fill-opacity:1;" d="M 5.6875 18.199219 C 5.890625 18.144531 6.035156 17.960938 6.035156 17.75 L 6.035156 3.710938 C 6.035156 3.453125 6.242188 3.246094 6.5 3.246094 C 6.753906 3.246094 6.960938 3.453125 6.960938 3.710938 L 6.960938 17.75 C 6.960938 17.960938 7.105469 18.144531 7.308594 18.199219 C 8.496094 18.503906 9.40625 19.445312 9.667969 20.640625 C 9.933594 21.832031 9.507812 23.070312 8.5625 23.847656 C 7.804688 24.46875 6.804688 24.71875 5.839844 24.523438 C 4.363281 24.214844 3.289062 22.933594 3.253906 21.421875 C 3.21875 19.914062 4.226562 18.578125 5.6875 18.199219 Z M 5.664062 25.433594 C 5.9375 25.488281 6.214844 25.515625 6.492188 25.515625 C 8.527344 25.523438 10.269531 24.058594 10.617188 22.054688 C 10.960938 20.046875 9.8125 18.082031 7.890625 17.40625 L 7.890625 3.710938 C 7.890625 2.941406 7.269531 2.320312 6.5 2.320312 C 5.730469 2.320312 5.105469 2.941406 5.105469 3.710938 L 5.105469 17.40625 C 3.339844 18.035156 2.207031 19.761719 2.335938 21.632812 C 2.464844 23.503906 3.828125 25.054688 5.664062 25.433594 Z M 5.664062 25.433594 "/>
<path style=" stroke:none;fill-rule:nonzero;fill:rgb(92.941176%,41.176471%,36.078431%);fill-opacity:1;" d="M 6.015625 23.613281 C 6.046875 23.617188 6.078125 23.621094 6.105469 23.621094 C 6.34375 23.621094 6.542969 23.441406 6.566406 23.203125 C 6.589844 22.964844 6.429688 22.75 6.195312 22.703125 C 5.65625 22.582031 5.238281 22.15625 5.132812 21.613281 C 5.082031 21.367188 4.84375 21.203125 4.59375 21.246094 C 4.347656 21.292969 4.179688 21.527344 4.21875 21.777344 C 4.390625 22.699219 5.101562 23.421875 6.015625 23.613281 Z M 6.015625 23.613281 "/>
<path style=" stroke:none;fill-rule:nonzero;fill:rgb(92.941176%,41.176471%,36.078431%);fill-opacity:1;" d="M 17.632812 0 C 15.289062 0 13.015625 0.808594 11.195312 2.285156 C 10.996094 2.449219 10.96875 2.738281 11.128906 2.9375 C 11.292969 3.136719 11.585938 3.167969 11.785156 3.003906 C 15.28125 0.167969 20.3125 0.253906 23.714844 3.210938 C 27.113281 6.167969 27.894531 11.136719 25.570312 14.996094 C 23.246094 18.855469 18.484375 20.484375 14.28125 18.863281 C 14.128906 18.800781 13.953125 18.824219 13.820312 18.929688 C 13.691406 19.035156 13.628906 19.199219 13.652344 19.367188 C 13.679688 19.53125 13.792969 19.667969 13.949219 19.726562 C 17.769531 21.203125 22.105469 20.25 24.957031 17.308594 C 27.808594 14.363281 28.625 10.003906 27.027344 6.230469 C 25.429688 2.453125 21.730469 0.00390625 17.632812 0 Z M 17.632812 0 "/>
</g>
</svg>
