<?xml version="1.0" encoding="UTF-8"?>
<svg xmlns="http://www.w3.org/2000/svg" xmlns:xlink="http://www.w3.org/1999/xlink" width="28px" height="28px" viewBox="0 0 28 28" version="1.1">
<g id="surface1">
<path style=" stroke:none;fill-rule:nonzero;fill:rgb(92.941176%,41.176471%,36.078431%);fill-opacity:1;" d="M 17.066406 11.691406 L 17.066406 9.882812 L 18.980469 9.882812 L 18.980469 11.691406 Z M 14.5 11.691406 L 14.5 9.882812 L 21.558594 9.882812 L 21.558594 11.691406 Z M 14.5 11.691406 "/>
<path style=" stroke:none;fill-rule:nonzero;fill:rgb(92.941176%,41.176471%,36.078431%);fill-opacity:1;" d="M 3.503906 16.652344 C 3.632812 16.566406 3.714844 16.417969 3.714844 16.261719 L 3.714844 3.710938 C 3.714844 2.171875 4.960938 0.925781 6.496094 0.925781 C 8.035156 0.925781 9.28125 2.171875 9.28125 3.710938 L 9.28125 16.261719 C 9.28125 16.417969 9.359375 16.566406 9.492188 16.652344 C 11.578125 17.980469 12.535156 20.527344 11.839844 22.902344 C 11.144531 25.277344 8.96875 26.90625 6.496094 26.90625 C 4.019531 26.90625 1.847656 25.277344 1.152344 22.902344 C 0.457031 20.527344 1.414062 17.980469 3.5 16.652344 Z M 0.0625 22.21875 C 0.464844 25.164062 2.816406 27.464844 5.765625 27.796875 C 8.722656 28.128906 11.527344 26.414062 12.578125 23.632812 C 13.625 20.851562 12.652344 17.714844 10.210938 16.015625 L 10.210938 3.710938 C 10.210938 1.660156 8.550781 0 6.5 0 C 4.449219 0 2.789062 1.660156 2.789062 3.710938 L 2.789062 16.015625 C 0.78125 17.402344 -0.273438 19.804688 0.0625 22.21875 Z M 0.0625 22.21875 "/>
<path style=" stroke:none;fill-rule:nonzero;fill:rgb(92.941176%,41.176471%,36.078431%);fill-opacity:1;" d="M 5.6875 18.199219 C 5.890625 18.144531 6.03125 17.960938 6.03125 17.75 L 6.03125 3.710938 C 6.03125 3.453125 6.242188 3.246094 6.496094 3.246094 C 6.753906 3.246094 6.960938 3.453125 6.960938 3.710938 L 6.960938 17.75 C 6.960938 17.960938 7.105469 18.144531 7.308594 18.199219 C 8.492188 18.503906 9.402344 19.445312 9.667969 20.640625 C 9.929688 21.832031 9.503906 23.070312 8.5625 23.847656 C 7.800781 24.46875 6.800781 24.714844 5.839844 24.519531 C 4.359375 24.214844 3.289062 22.929688 3.253906 21.417969 C 3.214844 19.910156 4.222656 18.574219 5.6875 18.195312 Z M 5.664062 25.433594 C 5.9375 25.484375 6.214844 25.511719 6.488281 25.515625 C 8.527344 25.523438 10.269531 24.058594 10.613281 22.054688 C 10.960938 20.046875 9.808594 18.082031 7.886719 17.40625 L 7.886719 3.710938 C 7.886719 2.945312 7.265625 2.320312 6.496094 2.320312 C 5.726562 2.320312 5.101562 2.941406 5.101562 3.710938 L 5.101562 17.40625 C 3.332031 18.035156 2.203125 19.761719 2.328125 21.632812 C 2.460938 23.503906 3.820312 25.054688 5.65625 25.433594 Z M 5.664062 25.433594 "/>
<path style=" stroke:none;fill-rule:nonzero;fill:rgb(92.941176%,41.176471%,36.078431%);fill-opacity:1;" d="M 6.015625 23.613281 C 6.046875 23.617188 6.074219 23.621094 6.105469 23.621094 C 6.34375 23.617188 6.542969 23.4375 6.566406 23.199219 C 6.589844 22.964844 6.425781 22.746094 6.195312 22.699219 C 5.65625 22.578125 5.238281 22.152344 5.132812 21.609375 C 5.082031 21.363281 4.84375 21.199219 4.59375 21.242188 C 4.347656 21.289062 4.179688 21.523438 4.21875 21.773438 C 4.394531 22.695312 5.101562 23.417969 6.015625 23.609375 Z M 6.015625 23.613281 "/>
<path style=" stroke:none;fill-rule:nonzero;fill:rgb(92.941176%,41.176471%,36.078431%);fill-opacity:1;" d="M 17.632812 0 C 15.289062 0 13.015625 0.808594 11.195312 2.285156 C 11 2.445312 10.96875 2.738281 11.128906 2.9375 C 11.289062 3.136719 11.585938 3.164062 11.785156 3.003906 C 15.285156 0.164062 20.3125 0.253906 23.714844 3.207031 C 27.113281 6.164062 27.894531 11.132812 25.570312 14.992188 C 23.246094 18.851562 18.484375 20.484375 14.28125 18.859375 C 14.128906 18.796875 13.953125 18.824219 13.820312 18.925781 C 13.691406 19.03125 13.625 19.199219 13.652344 19.363281 C 13.679688 19.527344 13.792969 19.667969 13.949219 19.722656 C 17.769531 21.199219 22.105469 20.25 24.953125 17.304688 C 27.808594 14.363281 28.621094 10 27.023438 6.226562 C 25.425781 2.449219 21.726562 0 17.628906 -0.00390625 Z M 17.632812 0 "/>
</g>
</svg>
