<?xml version="1.0" encoding="UTF-8"?>
<svg xmlns="http://www.w3.org/2000/svg" xmlns:xlink="http://www.w3.org/1999/xlink" width="28px" height="28px" viewBox="0 0 28 28" version="1.1">
<g id="surface1">
<path style=" stroke:none;fill-rule:nonzero;fill:rgb(92.941176%,41.176471%,36.078431%);fill-opacity:1;" d="M 0.0585938 22.226562 C 0.457031 25.171875 2.804688 27.476562 5.777344 27.796875 C 8.722656 28.121094 11.546875 26.414062 12.585938 23.640625 C 13.625 20.867188 12.660156 17.722656 10.210938 16.015625 L 10.210938 3.714844 C 10.210938 1.660156 8.550781 0 6.496094 0 C 4.441406 0 2.78125 1.660156 2.78125 3.714844 L 2.78125 16.015625 C 0.777344 17.425781 -0.261719 19.828125 0.0585938 22.226562 Z M 3.5 16.660156 C 3.625 16.585938 3.722656 16.4375 3.722656 16.261719 L 3.722656 3.710938 C 3.722656 2.175781 4.960938 0.9375 6.496094 0.9375 C 8.03125 0.9375 9.269531 2.175781 9.269531 3.710938 L 9.269531 16.261719 C 9.269531 16.410156 9.34375 16.558594 9.492188 16.660156 C 11.574219 17.992188 12.535156 20.546875 11.84375 22.921875 C 11.152344 25.296875 8.972656 26.929688 6.496094 26.929688 C 4.023438 26.929688 1.839844 25.296875 1.148438 22.921875 C 0.457031 20.546875 1.421875 17.992188 3.5 16.660156 Z M 3.5 16.660156 Z M 3.5 16.660156 "/>
<path style=" stroke:none;fill-rule:nonzero;fill:rgb(92.941176%,41.176471%,36.078431%);fill-opacity:1;" d="M 5.65625 25.449219 C 5.925781 25.5 6.199219 25.523438 6.472656 25.523438 C 8.503906 25.523438 10.261719 24.0625 10.609375 22.054688 C 10.957031 20.050781 9.789062 18.097656 7.886719 17.402344 L 7.886719 3.710938 C 7.886719 2.941406 7.265625 2.324219 6.5 2.324219 C 5.730469 2.324219 5.117188 2.945312 5.117188 3.710938 L 5.117188 17.402344 C 3.359375 18.019531 2.21875 19.753906 2.34375 21.636719 C 2.464844 23.515625 3.828125 25.078125 5.660156 25.449219 Z M 5.683594 18.21875 C 5.878906 18.167969 6.03125 17.972656 6.03125 17.777344 L 6.03125 3.714844 C 6.03125 3.464844 6.230469 3.242188 6.5 3.242188 C 6.75 3.242188 6.972656 3.441406 6.972656 3.714844 L 6.972656 17.75 C 6.972656 17.972656 7.121094 18.148438 7.320312 18.191406 C 8.507812 18.492188 9.421875 19.433594 9.671875 20.644531 C 9.941406 21.835938 9.5 23.070312 8.558594 23.863281 C 7.789062 24.480469 6.800781 24.730469 5.835938 24.53125 C 4.351562 24.234375 3.285156 22.949219 3.261719 21.4375 C 3.234375 19.925781 4.222656 18.589844 5.6875 18.21875 Z M 5.683594 18.21875 Z M 5.683594 18.21875 "/>
<path style=" stroke:none;fill-rule:nonzero;fill:rgb(92.941176%,41.176471%,36.078431%);fill-opacity:1;" d="M 6.027344 23.617188 C 6.054688 23.617188 6.074219 23.617188 6.125 23.617188 C 6.375 23.617188 6.574219 23.445312 6.597656 23.195312 C 6.617188 22.949219 6.445312 22.753906 6.226562 22.703125 C 5.683594 22.582031 5.261719 22.160156 5.160156 21.613281 C 5.113281 21.363281 4.863281 21.191406 4.617188 21.242188 C 4.371094 21.292969 4.199219 21.511719 4.246094 21.761719 C 4.398438 22.703125 5.117188 23.445312 6.03125 23.617188 Z M 6.027344 23.617188 Z M 6.027344 23.617188 "/>
<path style=" stroke:none;fill-rule:nonzero;fill:rgb(92.941176%,41.176471%,36.078431%);fill-opacity:1;" d="M 17.636719 0.0234375 C 15.28125 0.0234375 13.03125 0.839844 11.199219 2.300781 C 11 2.472656 10.976562 2.742188 11.125 2.941406 C 11.296875 3.140625 11.570312 3.164062 11.769531 3.015625 C 15.257812 0.167969 20.308594 0.269531 23.699219 3.214844 C 27.089844 6.160156 27.882812 11.136719 25.554688 14.996094 C 23.226562 18.859375 18.472656 20.492188 14.265625 18.859375 C 14.117188 18.785156 13.945312 18.835938 13.796875 18.929688 C 13.671875 19.03125 13.597656 19.203125 13.621094 19.375 C 13.644531 19.546875 13.773438 19.671875 13.921875 19.746094 C 17.734375 21.230469 22.09375 20.265625 24.9375 17.320312 C 27.785156 14.375 28.601562 10.019531 27.019531 6.230469 C 25.433594 2.46875 21.722656 0.0195312 17.636719 0.0195312 Z M 17.636719 0.0234375 Z M 17.636719 0.0234375 "/>
<path style=" stroke:none;fill-rule:nonzero;fill:rgb(92.941176%,41.176471%,36.078431%);fill-opacity:1;" d="M 17.636719 2.324219 C 17.386719 2.324219 17.164062 2.523438 17.164062 2.796875 L 17.164062 10.222656 C 17.164062 10.34375 17.214844 10.46875 17.289062 10.542969 L 21.914062 15.171875 C 22.089844 15.34375 22.386719 15.34375 22.558594 15.171875 C 22.730469 15 22.730469 14.699219 22.558594 14.527344 L 18.050781 10.023438 L 18.050781 2.792969 C 18.101562 2.542969 17.878906 2.320312 17.632812 2.320312 Z M 17.636719 2.324219 Z M 17.636719 2.324219 "/>
</g>
</svg>
