<?xml version="1.0" encoding="UTF-8"?>
<svg xmlns="http://www.w3.org/2000/svg" xmlns:xlink="http://www.w3.org/1999/xlink" width="28px" height="28px" viewBox="0 0 28 28" version="1.1">
<g id="surface1">
<path style=" stroke:none;fill-rule:nonzero;fill:rgb(92.941176%,41.176471%,36.078431%);fill-opacity:1;" d="M 0.0664062 22.230469 C 0.460938 25.175781 2.8125 27.480469 5.785156 27.796875 C 8.726562 28.117188 11.550781 26.414062 12.589844 23.640625 C 13.632812 20.867188 12.667969 17.722656 10.21875 16.015625 L 10.21875 3.714844 C 10.21875 1.660156 8.558594 0 6.503906 0 C 4.449219 0 2.789062 1.660156 2.789062 3.714844 L 2.789062 16.015625 C 0.785156 17.402344 -0.28125 19.804688 0.0664062 22.230469 Z M 3.503906 16.660156 C 3.628906 16.585938 3.730469 16.4375 3.730469 16.265625 L 3.730469 3.714844 C 3.730469 2.179688 4.96875 0.941406 6.503906 0.941406 C 8.039062 0.941406 9.277344 2.179688 9.277344 3.714844 L 9.277344 16.265625 C 9.277344 16.417969 9.351562 16.5625 9.503906 16.660156 C 11.582031 17.996094 12.546875 20.550781 11.851562 22.925781 C 11.15625 25.300781 8.984375 26.933594 6.503906 26.933594 C 4.027344 26.933594 1.847656 25.300781 1.15625 22.925781 C 0.460938 20.527344 1.425781 17.976562 3.503906 16.660156 Z M 3.503906 16.660156 Z M 3.503906 16.660156 "/>
<path style=" stroke:none;fill-rule:nonzero;fill:rgb(92.941176%,41.176471%,36.078431%);fill-opacity:1;" d="M 5.660156 25.425781 C 5.929688 25.472656 6.203125 25.5 6.472656 25.5 C 8.503906 25.5 10.261719 24.039062 10.605469 22.035156 C 10.953125 20.03125 9.792969 18.078125 7.882812 17.382812 L 7.882812 3.714844 C 7.882812 2.945312 7.261719 2.332031 6.5 2.332031 C 5.726562 2.332031 5.113281 2.949219 5.113281 3.714844 L 5.113281 17.40625 C 3.328125 18.027344 2.21875 19.753906 2.339844 21.640625 C 2.464844 23.496094 3.824219 25.054688 5.660156 25.429688 Z M 5.683594 18.195312 C 5.882812 18.144531 6.027344 17.945312 6.027344 17.75 L 6.027344 3.714844 C 6.027344 3.464844 6.226562 3.246094 6.5 3.246094 C 6.75 3.246094 6.96875 3.445312 6.96875 3.714844 L 6.96875 17.75 C 6.96875 17.976562 7.117188 18.144531 7.3125 18.195312 C 8.503906 18.492188 9.417969 19.4375 9.664062 20.644531 C 9.933594 21.835938 9.488281 23.070312 8.546875 23.863281 C 7.777344 24.484375 6.789062 24.730469 5.824219 24.535156 C 4.339844 24.238281 3.273438 22.949219 3.25 21.441406 C 3.199219 19.90625 4.214844 18.570312 5.671875 18.195312 Z M 5.683594 18.195312 Z M 5.683594 18.195312 "/>
<path style=" stroke:none;fill-rule:nonzero;fill:rgb(92.941176%,41.176471%,36.078431%);fill-opacity:1;" d="M 6.027344 23.621094 C 6.054688 23.621094 6.078125 23.621094 6.128906 23.621094 C 6.378906 23.621094 6.574219 23.445312 6.597656 23.199219 C 6.625 22.949219 6.449219 22.753906 6.226562 22.703125 C 5.683594 22.578125 5.261719 22.160156 5.164062 21.617188 C 5.113281 21.367188 4.867188 21.195312 4.617188 21.246094 C 4.367188 21.296875 4.199219 21.515625 4.25 21.765625 C 4.398438 22.703125 5.113281 23.425781 6.035156 23.621094 Z M 6.027344 23.621094 Z M 6.027344 23.621094 "/>
<path style=" stroke:none;fill-rule:nonzero;fill:rgb(92.941176%,41.176471%,36.078431%);fill-opacity:1;" d="M 17.640625 0 C 15.289062 0 13.035156 0.816406 11.203125 2.28125 C 11.003906 2.457031 10.976562 2.726562 11.125 2.925781 C 11.300781 3.125 11.570312 3.152344 11.773438 3 C 15.261719 0.152344 20.3125 0.25 23.703125 3.199219 C 27.09375 6.144531 27.886719 11.125 25.558594 14.980469 C 23.230469 18.847656 18.480469 20.476562 14.269531 18.847656 C 14.121094 18.769531 13.949219 18.820312 13.800781 18.921875 C 13.675781 19.019531 13.601562 19.191406 13.625 19.367188 C 13.652344 19.539062 13.777344 19.660156 13.921875 19.734375 C 17.734375 21.21875 22.089844 20.253906 24.9375 17.3125 C 27.789062 14.367188 28.601562 10.007812 27.015625 6.21875 C 25.433594 2.457031 21.71875 0.0078125 17.636719 0.0078125 Z M 17.640625 0 Z M 17.640625 0 "/>
<path style=" stroke:none;fill-rule:nonzero;fill:rgb(92.941176%,41.176471%,36.078431%);fill-opacity:1;" d="M 21.085938 11.289062 L 18.460938 13.914062 L 18.460938 5.199219 C 18.460938 4.929688 18.234375 4.703125 17.964844 4.703125 C 17.695312 4.703125 17.46875 4.929688 17.46875 5.199219 L 17.46875 13.914062 L 14.847656 11.289062 C 14.644531 11.089844 14.324219 11.089844 14.152344 11.289062 C 13.949219 11.488281 13.949219 11.808594 14.152344 11.984375 C 17.839844 15.648438 17.613281 15.472656 17.738281 15.546875 C 17.890625 15.621094 18.035156 15.621094 18.183594 15.546875 C 18.308594 15.496094 18.183594 15.597656 21.800781 11.984375 C 22 11.78125 22 11.464844 21.800781 11.289062 C 21.574219 11.089844 21.277344 11.089844 21.078125 11.289062 Z M 21.085938 11.289062 Z M 21.085938 11.289062 "/>
<path style=" stroke:none;fill-rule:nonzero;fill:rgb(92.941176%,41.176471%,36.078431%);fill-opacity:1;" d="M 14.847656 9.015625 L 17.46875 6.390625 L 17.46875 15.101562 C 17.46875 15.371094 17.695312 15.597656 17.964844 15.597656 C 18.234375 15.597656 18.460938 15.371094 18.460938 15.101562 L 18.460938 6.390625 L 21.085938 9.015625 C 21.285156 9.214844 21.605469 9.214844 21.777344 9.015625 C 21.980469 8.8125 21.980469 8.492188 21.777344 8.320312 C 18.089844 4.65625 18.316406 4.828125 18.191406 4.753906 C 18.039062 4.679688 17.894531 4.679688 17.746094 4.753906 C 17.621094 4.804688 17.746094 4.703125 14.132812 8.320312 C 13.929688 8.519531 13.929688 8.839844 14.132812 9.015625 C 14.332031 9.214844 14.652344 9.214844 14.851562 9.015625 Z M 14.847656 9.015625 Z M 14.847656 9.015625 "/>
</g>
</svg>
