<?xml version="1.0" encoding="UTF-8"?>
<svg xmlns="http://www.w3.org/2000/svg" xmlns:xlink="http://www.w3.org/1999/xlink" width="28px" height="28px" viewBox="0 0 28 28" version="1.1">
<g id="surface1">
<path style=" stroke:none;fill-rule:nonzero;fill:rgb(92.941176%,41.176471%,36.078431%);fill-opacity:1;" d="M 0.0664062 22.230469 C 0.464844 25.175781 2.8125 27.476562 5.785156 27.796875 C 8.730469 28.117188 11.550781 26.410156 12.589844 23.640625 C 13.632812 20.871094 12.664062 17.722656 10.21875 16.011719 L 10.21875 3.710938 C 10.21875 1.65625 8.5625 0 6.507812 0 C 4.453125 0 2.796875 1.65625 2.796875 3.710938 L 2.796875 16.011719 C 0.789062 17.398438 -0.269531 19.804688 0.0742188 22.226562 Z M 3.507812 16.664062 C 3.632812 16.59375 3.730469 16.441406 3.730469 16.265625 L 3.730469 3.71875 C 3.730469 2.179688 4.964844 0.945312 6.5 0.945312 C 8.039062 0.945312 9.273438 2.179688 9.273438 3.71875 L 9.273438 16.265625 C 9.273438 16.417969 9.34375 16.5625 9.496094 16.664062 C 11.574219 18 12.539062 20.550781 11.84375 22.929688 C 11.152344 25.304688 8.972656 26.941406 6.496094 26.941406 C 4.019531 26.941406 1.84375 25.308594 1.144531 22.929688 C 0.453125 20.527344 1.417969 17.976562 3.496094 16.664062 Z M 3.507812 16.664062 Z M 3.507812 16.664062 "/>
<path style=" stroke:none;fill-rule:nonzero;fill:rgb(92.941176%,41.176471%,36.078431%);fill-opacity:1;" d="M 5.65625 25.425781 C 5.929688 25.472656 6.199219 25.496094 6.476562 25.496094 C 8.507812 25.496094 10.265625 24.039062 10.609375 22.03125 C 10.960938 20.027344 9.789062 18.074219 7.886719 17.382812 L 7.886719 3.71875 C 7.886719 2.953125 7.265625 2.332031 6.5 2.332031 C 5.734375 2.332031 5.113281 2.953125 5.113281 3.71875 L 5.113281 17.40625 C 3.332031 18.027344 2.21875 19.753906 2.34375 21.640625 C 2.46875 23.496094 3.832031 25.054688 5.664062 25.429688 Z M 5.679688 18.195312 C 5.878906 18.144531 6.03125 17.949219 6.03125 17.75 L 6.03125 3.710938 C 6.03125 3.464844 6.230469 3.242188 6.5 3.242188 C 6.746094 3.242188 6.972656 3.441406 6.972656 3.710938 L 6.972656 17.75 C 6.972656 17.972656 7.121094 18.144531 7.320312 18.195312 C 8.507812 18.488281 9.421875 19.429688 9.667969 20.644531 C 9.941406 21.832031 9.496094 23.074219 8.554688 23.863281 C 7.789062 24.484375 6.796875 24.730469 5.832031 24.53125 C 4.34375 24.238281 3.285156 22.949219 3.257812 21.4375 C 3.210938 19.898438 4.222656 18.5625 5.6875 18.195312 Z M 5.679688 18.195312 Z M 5.679688 18.195312 "/>
<path style=" stroke:none;fill-rule:nonzero;fill:rgb(92.941176%,41.176471%,36.078431%);fill-opacity:1;" d="M 6.03125 23.617188 C 6.054688 23.617188 6.078125 23.617188 6.128906 23.617188 C 6.375 23.617188 6.574219 23.441406 6.597656 23.195312 C 6.621094 22.949219 6.445312 22.75 6.222656 22.699219 C 5.679688 22.574219 5.261719 22.160156 5.15625 21.609375 C 5.109375 21.363281 4.863281 21.1875 4.613281 21.238281 C 4.367188 21.285156 4.195312 21.507812 4.242188 21.753906 C 4.390625 22.695312 5.109375 23.410156 6.023438 23.609375 Z M 6.03125 23.617188 Z M 6.03125 23.617188 "/>
<path style=" stroke:none;fill-rule:nonzero;fill:rgb(92.941176%,41.176471%,36.078431%);fill-opacity:1;" d="M 17.640625 0 C 15.289062 0 13.039062 0.820312 11.207031 2.277344 C 11.007812 2.453125 10.984375 2.722656 11.132812 2.921875 C 11.308594 3.121094 11.578125 3.144531 11.777344 2.996094 C 15.265625 0.144531 20.320312 0.246094 23.707031 3.191406 C 27.097656 6.140625 27.886719 11.117188 25.5625 14.976562 C 23.238281 18.839844 18.484375 20.472656 14.273438 18.839844 C 14.121094 18.765625 13.953125 18.816406 13.800781 18.910156 C 13.675781 19.007812 13.605469 19.183594 13.628906 19.355469 C 13.652344 19.53125 13.777344 19.652344 13.921875 19.730469 C 17.738281 21.21875 22.09375 20.25 24.9375 17.304688 C 27.785156 14.355469 28.597656 10 27.015625 6.210938 C 25.429688 2.445312 21.71875 0 17.632812 0 Z M 17.640625 0 Z M 17.640625 0 "/>
<path style=" stroke:none;fill-rule:nonzero;fill:rgb(92.941176%,41.176471%,36.078431%);fill-opacity:1;" d="M 18.460938 6.386719 L 18.460938 15.097656 C 18.460938 15.367188 18.238281 15.589844 17.964844 15.589844 C 17.695312 15.589844 17.472656 15.367188 17.472656 15.097656 L 17.472656 6.386719 L 17.742188 4.753906 C 17.894531 4.679688 18.039062 4.679688 18.1875 4.753906 Z M 18.460938 6.386719 "/>
<path style=" stroke:none;fill-rule:nonzero;fill:rgb(92.941176%,41.176471%,36.078431%);fill-opacity:1;" d="M 14.84375 11.289062 L 17.472656 13.917969 L 17.472656 5.207031 C 17.472656 4.933594 17.695312 4.710938 17.964844 4.710938 C 18.238281 4.710938 18.460938 4.933594 18.460938 5.207031 L 18.460938 13.917969 L 21.085938 11.289062 C 21.285156 11.089844 21.605469 11.089844 21.78125 11.289062 C 21.976562 11.488281 21.976562 11.808594 21.78125 11.984375 C 18.09375 15.644531 18.316406 15.472656 18.1875 15.550781 C 18.039062 15.621094 17.894531 15.621094 17.742188 15.550781 C 17.617188 15.5 17.742188 15.597656 14.128906 11.984375 C 13.929688 11.785156 13.929688 11.464844 14.128906 11.289062 C 14.328125 11.089844 14.644531 11.089844 14.84375 11.289062 Z M 14.84375 11.289062 Z M 14.84375 11.289062 "/>
</g>
</svg>
