<?xml version="1.0" encoding="UTF-8"?>
<svg xmlns="http://www.w3.org/2000/svg" xmlns:xlink="http://www.w3.org/1999/xlink" width="28px" height="28px" viewBox="0 0 28 28" version="1.1">
<g id="surface1">
<path style=" stroke:none;fill-rule:nonzero;fill:rgb(92.941176%,41.176471%,36.078431%);fill-opacity:1;" d="M 0.0664062 22.230469 C 0.460938 25.175781 2.816406 27.480469 5.78125 27.804688 C 8.726562 28.128906 11.550781 26.414062 12.59375 23.644531 C 13.628906 20.871094 12.664062 17.726562 10.21875 16.019531 L 10.21875 3.714844 C 10.21875 1.664062 8.5625 0 6.503906 0 C 4.453125 0 2.789062 1.65625 2.789062 3.714844 L 2.789062 16.019531 C 0.78125 17.40625 -0.277344 19.804688 0.0664062 22.230469 Z M 3.507812 16.660156 C 3.628906 16.585938 3.730469 16.4375 3.730469 16.261719 L 3.730469 3.714844 C 3.730469 2.179688 4.96875 0.941406 6.503906 0.941406 C 8.035156 0.941406 9.273438 2.179688 9.273438 3.714844 L 9.273438 16.261719 C 9.273438 16.414062 9.347656 16.558594 9.496094 16.660156 C 11.578125 18 12.542969 20.546875 11.851562 22.921875 C 11.160156 25.296875 8.980469 26.933594 6.503906 26.933594 C 4.027344 26.933594 1.851562 25.296875 1.152344 22.921875 C 0.460938 20.519531 1.425781 17.96875 3.507812 16.660156 Z M 3.507812 16.660156 Z M 3.507812 16.660156 "/>
<path style=" stroke:none;fill-rule:nonzero;fill:rgb(92.941176%,41.176471%,36.078431%);fill-opacity:1;" d="M 5.660156 25.421875 C 5.933594 25.472656 6.207031 25.492188 6.472656 25.492188 C 8.503906 25.492188 10.261719 24.03125 10.605469 22.03125 C 10.953125 20.019531 9.792969 18.070312 7.886719 17.378906 L 7.886719 3.714844 C 7.886719 2.945312 7.265625 2.324219 6.496094 2.324219 C 5.726562 2.324219 5.105469 2.945312 5.105469 3.714844 L 5.105469 17.402344 C 3.320312 18.019531 2.210938 19.753906 2.335938 21.632812 C 2.457031 23.492188 3.816406 25.046875 5.652344 25.421875 Z M 5.683594 18.191406 C 5.882812 18.140625 6.027344 17.949219 6.027344 17.746094 L 6.027344 3.707031 C 6.027344 3.460938 6.230469 3.238281 6.496094 3.238281 C 6.742188 3.238281 6.964844 3.441406 6.964844 3.707031 L 6.964844 17.746094 C 6.964844 17.96875 7.113281 18.140625 7.308594 18.191406 C 8.496094 18.488281 9.410156 19.429688 9.664062 20.640625 C 9.9375 21.828125 9.492188 23.066406 8.546875 23.859375 C 7.777344 24.476562 6.789062 24.722656 5.828125 24.527344 C 4.34375 24.234375 3.277344 22.945312 3.25 21.433594 C 3.199219 19.898438 4.214844 18.558594 5.675781 18.191406 Z M 5.683594 18.191406 Z M 5.683594 18.191406 "/>
<path style=" stroke:none;fill-rule:nonzero;fill:rgb(92.941176%,41.176471%,36.078431%);fill-opacity:1;" d="M 6.035156 23.613281 C 6.058594 23.613281 6.085938 23.613281 6.136719 23.613281 C 6.378906 23.613281 6.582031 23.441406 6.605469 23.195312 C 6.625 22.953125 6.453125 22.75 6.230469 22.699219 C 5.683594 22.578125 5.265625 22.152344 5.164062 21.613281 C 5.113281 21.367188 4.867188 21.195312 4.617188 21.238281 C 4.371094 21.289062 4.199219 21.511719 4.242188 21.757812 C 4.394531 22.699219 5.105469 23.414062 6.027344 23.613281 Z M 6.035156 23.613281 Z M 6.035156 23.613281 "/>
<path style=" stroke:none;fill-rule:nonzero;fill:rgb(92.941176%,41.176471%,36.078431%);fill-opacity:1;" d="M 17.640625 0 C 15.285156 0 13.03125 0.8125 11.203125 2.273438 C 11.003906 2.449219 10.980469 2.722656 11.132812 2.914062 C 11.304688 3.109375 11.578125 3.140625 11.773438 2.988281 C 15.265625 0.144531 20.3125 0.238281 23.703125 3.183594 C 27.09375 6.125 27.886719 11.101562 25.558594 14.96875 C 23.234375 18.828125 18.484375 20.460938 14.269531 18.828125 C 14.121094 18.753906 13.945312 18.804688 13.804688 18.898438 C 13.679688 19 13.601562 19.171875 13.628906 19.34375 C 13.652344 19.515625 13.78125 19.640625 13.925781 19.71875 C 17.734375 21.203125 22.097656 20.238281 24.941406 17.292969 C 27.785156 14.347656 28.605469 9.992188 27.019531 6.207031 C 25.4375 2.441406 21.722656 -0.0078125 17.640625 -0.0078125 Z M 17.640625 0 Z M 17.640625 0 "/>
<path style=" stroke:none;fill-rule:nonzero;fill:rgb(92.941176%,41.176471%,36.078431%);fill-opacity:1;" d="M 18.460938 13.910156 L 18.460938 5.199219 C 18.460938 4.925781 18.238281 4.703125 17.964844 4.703125 C 17.691406 4.703125 17.46875 4.925781 17.46875 5.199219 L 17.46875 13.910156 L 17.742188 15.542969 C 17.890625 15.617188 18.035156 15.617188 18.1875 15.542969 Z M 18.460938 13.910156 "/>
<path style=" stroke:none;fill-rule:nonzero;fill:rgb(92.941176%,41.176471%,36.078431%);fill-opacity:1;" d="M 14.847656 9.011719 L 17.46875 6.394531 L 17.46875 15.105469 C 17.46875 15.378906 17.691406 15.601562 17.964844 15.601562 C 18.238281 15.601562 18.460938 15.378906 18.460938 15.105469 L 18.460938 6.394531 L 21.082031 9.011719 C 21.285156 9.207031 21.601562 9.207031 21.773438 9.011719 C 21.972656 8.8125 21.972656 8.496094 21.773438 8.324219 C 18.085938 4.65625 18.308594 4.832031 18.179688 4.757812 C 18.027344 4.6875 17.886719 4.6875 17.734375 4.757812 C 17.613281 4.808594 17.734375 4.707031 14.121094 8.324219 C 13.925781 8.523438 13.925781 8.839844 14.121094 9.011719 C 14.320312 9.207031 14.636719 9.207031 14.839844 9.011719 Z M 14.847656 9.011719 Z M 14.847656 9.011719 "/>
</g>
</svg>
