<?xml version="1.0" encoding="UTF-8"?>
<svg xmlns="http://www.w3.org/2000/svg" xmlns:xlink="http://www.w3.org/1999/xlink" width="28px" height="28px" viewBox="0 0 28 33" version="1.1">
<g id="surface1">
<path style=" stroke:none;fill-rule:nonzero;fill:rgb(92.941176%,41.176471%,36.078431%);fill-opacity:1;" d="M 4.230469 19.703125 C 4.386719 19.605469 4.488281 19.429688 4.488281 19.242188 L 4.488281 4.453125 C 4.488281 2.636719 5.996094 1.167969 7.84375 1.167969 C 9.703125 1.167969 11.207031 2.636719 11.207031 4.453125 L 11.207031 19.242188 C 11.207031 19.429688 11.300781 19.605469 11.46875 19.703125 C 13.980469 21.273438 15.136719 24.273438 14.304688 27.074219 C 13.46875 29.871094 10.839844 31.796875 7.851562 31.796875 C 4.867188 31.796875 2.246094 29.871094 1.402344 27.074219 C 0.566406 24.273438 1.71875 21.273438 4.238281 19.703125 Z M 0.078125 26.265625 C 0.566406 29.734375 3.402344 32.441406 6.964844 32.839844 C 10.53125 33.234375 13.910156 31.210938 15.175781 27.933594 C 16.445312 24.65625 15.265625 20.957031 12.328125 18.949219 L 12.328125 4.453125 C 12.328125 2.039062 10.316406 0.078125 7.84375 0.078125 C 5.371094 0.078125 3.363281 2.039062 3.363281 4.453125 L 3.363281 18.949219 C 0.9375 20.589844 -0.332031 23.417969 0.0703125 26.265625 Z M 0.078125 26.265625 "/>
<path style=" stroke:none;fill-rule:nonzero;fill:rgb(92.941176%,41.176471%,36.078431%);fill-opacity:1;" d="M 6.859375 21.527344 C 7.105469 21.464844 7.277344 21.25 7.277344 20.996094 L 7.277344 4.453125 C 7.277344 4.152344 7.53125 3.90625 7.835938 3.90625 C 8.144531 3.90625 8.394531 4.152344 8.394531 4.453125 L 8.394531 20.996094 C 8.394531 21.242188 8.570312 21.464844 8.8125 21.527344 C 10.238281 21.890625 11.34375 22.996094 11.664062 24.402344 C 11.980469 25.8125 11.46875 27.273438 10.324219 28.1875 C 9.414062 28.917969 8.199219 29.210938 7.042969 28.980469 C 5.261719 28.617188 3.960938 27.105469 3.921875 25.328125 C 3.875 23.550781 5.097656 21.972656 6.859375 21.527344 Z M 6.828125 30.058594 C 7.160156 30.117188 7.492188 30.148438 7.828125 30.15625 C 10.285156 30.164062 12.390625 28.441406 12.808594 26.074219 C 13.222656 23.703125 11.839844 21.398438 9.515625 20.597656 L 9.515625 4.460938 C 9.515625 3.554688 8.765625 2.824219 7.835938 2.824219 C 6.90625 2.824219 6.160156 3.554688 6.160156 4.460938 L 6.160156 20.597656 C 4.023438 21.335938 2.664062 23.375 2.8125 25.574219 C 2.96875 27.78125 4.617188 29.609375 6.828125 30.050781 Z M 6.828125 30.058594 "/>
<path style=" stroke:none;fill-rule:nonzero;fill:rgb(92.941176%,41.176471%,36.078431%);fill-opacity:1;" d="M 7.261719 27.902344 C 7.292969 27.910156 7.332031 27.910156 7.371094 27.910156 C 7.664062 27.910156 7.898438 27.695312 7.933594 27.417969 C 7.957031 27.140625 7.765625 26.886719 7.484375 26.835938 C 6.835938 26.6875 6.324219 26.1875 6.199219 25.550781 C 6.144531 25.257812 5.851562 25.066406 5.554688 25.121094 C 5.253906 25.171875 5.050781 25.449219 5.097656 25.742188 C 5.308594 26.828125 6.160156 27.679688 7.269531 27.902344 Z M 7.261719 27.902344 "/>
<path style="fill-rule:nonzero;fill:rgb(92.941176%,41.176471%,36.078431%);fill-opacity:1;stroke-width:0.87;stroke-linecap:butt;stroke-linejoin:miter;stroke:rgb(92.941176%,41.176471%,36.078431%);stroke-opacity:1;stroke-miterlimit:22.9256;" d="M 20.65138 4.520194 L 22.421983 5.541046 C 22.441821 5.551204 22.46166 5.561362 22.481499 5.561362 C 22.521176 5.561362 22.560854 5.541046 22.590612 5.500415 L 22.779079 5.160131 C 22.798918 5.129658 22.798918 5.099185 22.788998 5.068711 C 22.779079 5.038238 22.75924 5.007765 22.729482 4.997607 L 20.95888 3.981833 C 20.929122 3.961518 20.899364 3.961518 20.869606 3.971676 C 20.839848 3.981833 20.81009 4.002149 20.80017 4.027543 L 20.601783 4.367827 C 20.572025 4.428774 20.591864 4.499878 20.65138 4.530351 Z M 20.65138 4.520194 " transform="matrix(0.787603,0,0,0.769118,0.000544132,0)"/>
<path style=" stroke:none;fill-rule:nonzero;fill:rgb(92.941176%,41.176471%,36.078431%);fill-opacity:1;" d="M 16.265625 3.476562 L 17.660156 4.261719 C 17.675781 4.269531 17.691406 4.277344 17.707031 4.277344 C 17.738281 4.277344 17.769531 4.261719 17.792969 4.230469 L 17.941406 3.96875 C 17.957031 3.945312 17.957031 3.921875 17.949219 3.898438 C 17.941406 3.875 17.925781 3.851562 17.902344 3.84375 L 16.507812 3.0625 C 16.484375 3.046875 16.460938 3.046875 16.4375 3.054688 C 16.414062 3.0625 16.390625 3.078125 16.382812 3.097656 L 16.226562 3.359375 C 16.203125 3.40625 16.21875 3.460938 16.265625 3.484375 Z M 16.265625 3.476562 "/>
<path style=" stroke:none;fill-rule:nonzero;fill:rgb(92.941176%,41.176471%,36.078431%);fill-opacity:1;" d="M 17.570312 4.421875 L 16.179688 3.636719 L 16.359375 3.332031 L 17.753906 4.113281 Z M 17.570312 4.421875 L 17.546875 4.40625 L 17.578125 4.421875 Z M 17.707031 4.097656 L 17.707031 4.460938 L 17.636719 4.460938 L 17.613281 4.453125 L 17.621094 4.453125 L 17.636719 4.460938 L 17.613281 4.453125 L 17.621094 4.453125 L 17.601562 4.445312 L 17.621094 4.445312 L 17.601562 4.4375 L 17.59375 4.429688 L 17.601562 4.429688 L 17.578125 4.414062 L 17.585938 4.414062 L 17.769531 4.105469 L 17.777344 4.113281 L 17.753906 4.105469 L 17.761719 4.113281 L 17.753906 4.113281 L 17.738281 4.105469 L 17.746094 4.105469 L 17.753906 4.113281 L 17.738281 4.105469 L 17.746094 4.105469 L 17.722656 4.097656 L 17.746094 4.105469 L 17.753906 4.105469 L 17.730469 4.097656 L 17.738281 4.097656 L 17.722656 4.097656 L 17.738281 4.097656 Z M 17.628906 4.144531 L 17.941406 4.324219 L 17.933594 4.332031 L 17.925781 4.34375 L 17.855469 4.414062 L 17.847656 4.414062 L 17.832031 4.421875 L 17.808594 4.421875 L 17.785156 4.429688 L 17.707031 4.429688 L 17.707031 4.070312 L 17.667969 4.070312 L 17.652344 4.078125 L 17.644531 4.085938 L 17.636719 4.085938 L 17.628906 4.089844 L 17.621094 4.097656 Z M 17.941406 4.324219 Z M 18.089844 4.0625 L 17.941406 4.324219 L 17.628906 4.144531 L 17.777344 3.882812 L 18.101562 4.0625 Z M 18.089844 4.0625 L 18.089844 4.070312 Z M 17.769531 3.960938 L 18.117188 3.851562 L 18.117188 3.992188 L 18.101562 4.023438 L 18.101562 4.03125 L 18.089844 4.046875 L 18.089844 4.054688 L 18.082031 4.0625 L 17.761719 3.890625 L 17.761719 3.898438 L 17.761719 3.890625 L 17.761719 3.90625 L 17.761719 3.898438 L 17.761719 3.90625 L 17.761719 3.898438 L 17.761719 3.929688 L 17.761719 3.921875 L 17.761719 3.9375 Z M 18.117188 3.851562 L 18.117188 3.867188 Z M 17.800781 4.007812 L 17.980469 3.699219 L 17.996094 3.707031 L 17.988281 3.707031 L 18.058594 3.777344 L 18.058594 3.769531 L 18.066406 3.777344 L 18.089844 3.824219 L 17.746094 3.929688 L 17.753906 3.945312 L 17.753906 3.9375 L 17.761719 3.953125 L 17.761719 3.945312 L 17.769531 3.960938 L 17.769531 3.96875 L 17.761719 3.960938 L 17.761719 3.96875 L 17.800781 4.007812 L 17.808594 4.007812 L 17.824219 4.015625 L 17.816406 4.007812 L 17.832031 4.015625 Z M 17.800781 4.007812 L 17.792969 4 L 17.808594 4.007812 Z M 16.585938 2.90625 L 17.980469 3.691406 L 17.800781 4 L 16.40625 3.214844 L 16.585938 2.898438 L 16.59375 2.898438 Z M 16.578125 2.90625 L 16.570312 2.90625 Z M 16.46875 3.230469 L 16.375 2.882812 L 16.5 2.882812 L 16.515625 2.890625 L 16.523438 2.890625 L 16.554688 2.90625 L 16.570312 2.90625 L 16.398438 3.222656 L 16.414062 3.222656 L 16.40625 3.222656 L 16.476562 3.222656 L 16.46875 3.222656 L 16.476562 3.222656 L 16.46875 3.222656 L 16.476562 3.222656 Z M 16.46875 3.230469 L 16.476562 3.230469 Z M 16.515625 3.191406 L 16.203125 3.015625 L 16.203125 3.023438 L 16.289062 2.9375 L 16.320312 2.921875 L 16.328125 2.921875 L 16.34375 2.914062 L 16.351562 2.914062 L 16.445312 3.261719 L 16.460938 3.261719 L 16.476562 3.246094 L 16.484375 3.246094 L 16.492188 3.238281 L 16.507812 3.230469 L 16.546875 3.191406 L 16.546875 3.199219 L 16.554688 3.191406 L 16.554688 3.199219 Z M 16.515625 3.183594 L 16.515625 3.191406 Z M 16.042969 3.269531 L 16.203125 3.007812 L 16.515625 3.183594 L 16.359375 3.445312 Z M 16.328125 3.332031 L 16.144531 3.636719 L 16.128906 3.628906 L 16.121094 3.621094 L 16.105469 3.613281 L 16.082031 3.589844 L 16.074219 3.585938 L 16.042969 3.554688 L 16.035156 3.539062 L 16.019531 3.523438 L 16.003906 3.492188 L 16.003906 3.351562 L 16.011719 3.339844 L 16.011719 3.332031 L 16.019531 3.324219 L 16.027344 3.308594 L 16.035156 3.300781 L 16.351562 3.476562 L 16.359375 3.46875 L 16.359375 3.445312 L 16.359375 3.453125 L 16.359375 3.40625 L 16.34375 3.390625 L 16.335938 3.390625 Z M 16.144531 3.636719 L 16.152344 3.644531 Z M 16.144531 3.636719 "/>
<path style="fill-rule:nonzero;fill:rgb(92.941176%,41.176471%,36.078431%);fill-opacity:1;stroke-width:0.87;stroke-linecap:butt;stroke-linejoin:miter;stroke:rgb(92.941176%,41.176471%,36.078431%);stroke-opacity:1;stroke-miterlimit:22.9256;" d="M 22.590612 10.939884 C 22.560854 10.878938 22.481499 10.858622 22.421983 10.899253 L 20.65138 11.920106 C 20.591864 11.950579 20.572025 12.031841 20.601783 12.077551 L 20.80017 12.417835 C 20.820009 12.448308 20.839848 12.468624 20.869606 12.478782 C 20.879525 12.478782 20.889444 12.478782 20.899364 12.478782 C 20.919202 12.478782 20.939041 12.478782 20.95888 12.458466 L 22.729482 11.437613 C 22.75924 11.422377 22.779079 11.402061 22.788998 11.36143 C 22.798918 11.330957 22.788998 11.300484 22.779079 11.270011 L 22.590612 10.929726 Z M 22.590612 10.939884 " transform="matrix(0.787603,0,0,0.769118,0.000544132,0)"/>
<path style=" stroke:none;fill-rule:nonzero;fill:rgb(92.941176%,41.176471%,36.078431%);fill-opacity:1;" d="M 17.792969 8.414062 C 17.769531 8.367188 17.707031 8.351562 17.660156 8.382812 L 16.265625 9.167969 C 16.21875 9.191406 16.203125 9.253906 16.226562 9.289062 L 16.382812 9.550781 C 16.398438 9.574219 16.414062 9.589844 16.4375 9.597656 C 16.445312 9.597656 16.453125 9.597656 16.460938 9.597656 C 16.476562 9.597656 16.492188 9.597656 16.507812 9.582031 L 17.902344 8.796875 C 17.925781 8.785156 17.941406 8.769531 17.949219 8.738281 C 17.957031 8.714844 17.949219 8.691406 17.941406 8.667969 L 17.792969 8.40625 Z M 17.792969 8.414062 "/>
<path style=" stroke:none;fill-rule:nonzero;fill:rgb(92.941176%,41.176471%,36.078431%);fill-opacity:1;" d="M 17.753906 8.539062 L 17.570312 8.230469 L 17.585938 8.222656 L 17.59375 8.214844 L 17.613281 8.207031 L 17.644531 8.191406 L 17.761719 8.191406 L 17.792969 8.207031 L 17.800781 8.207031 L 17.808594 8.214844 L 17.839844 8.230469 L 17.847656 8.238281 L 17.863281 8.246094 L 17.902344 8.285156 L 17.917969 8.296875 L 17.933594 8.3125 L 17.621094 8.5 L 17.636719 8.515625 L 17.675781 8.515625 L 17.667969 8.515625 L 17.714844 8.515625 Z M 17.753906 8.539062 L 17.746094 8.542969 Z M 16.179688 9.015625 L 17.570312 8.230469 L 17.753906 8.539062 L 16.359375 9.320312 L 16.179688 9.007812 Z M 16.359375 9.320312 Z M 16.390625 9.207031 L 16.074219 9.382812 L 16.066406 9.375 L 16.058594 9.359375 L 16.050781 9.351562 L 16.050781 9.34375 L 16.042969 9.328125 L 16.042969 9.191406 L 16.058594 9.160156 L 16.074219 9.144531 L 16.082031 9.128906 L 16.152344 9.058594 L 16.164062 9.050781 L 16.171875 9.042969 L 16.1875 9.039062 L 16.367188 9.351562 L 16.382812 9.335938 L 16.382812 9.304688 L 16.382812 9.3125 L 16.382812 9.296875 L 16.382812 9.304688 L 16.382812 9.285156 L 16.375 9.277344 Z M 16.226562 9.644531 L 16.066406 9.382812 L 16.382812 9.207031 L 16.539062 9.46875 L 16.539062 9.476562 L 16.21875 9.652344 Z M 16.539062 9.46875 L 16.539062 9.476562 Z M 16.492188 9.429688 L 16.382812 9.769531 L 16.390625 9.769531 L 16.382812 9.769531 L 16.367188 9.761719 L 16.359375 9.761719 L 16.3125 9.738281 L 16.289062 9.714844 L 16.296875 9.722656 L 16.273438 9.699219 L 16.273438 9.707031 L 16.242188 9.675781 L 16.242188 9.667969 L 16.5625 9.5 L 16.554688 9.492188 L 16.554688 9.5 L 16.546875 9.492188 L 16.539062 9.476562 L 16.546875 9.484375 L 16.546875 9.476562 L 16.53125 9.460938 L 16.539062 9.46875 L 16.53125 9.460938 L 16.5 9.445312 L 16.484375 9.429688 L 16.46875 9.429688 Z M 16.484375 9.429688 L 16.5 9.429688 Z M 16.460938 9.429688 L 16.460938 9.789062 L 16.421875 9.789062 L 16.453125 9.789062 L 16.40625 9.78125 L 16.453125 9.789062 L 16.40625 9.789062 L 16.453125 9.796875 L 16.40625 9.789062 L 16.414062 9.789062 L 16.390625 9.789062 L 16.5 9.453125 L 16.484375 9.453125 L 16.492188 9.453125 L 16.445312 9.445312 L 16.492188 9.453125 L 16.453125 9.453125 L 16.5 9.460938 L 16.453125 9.453125 L 16.492188 9.453125 L 16.460938 9.453125 Z M 16.414062 9.445312 L 16.59375 9.753906 L 16.601562 9.753906 L 16.59375 9.761719 L 16.578125 9.769531 L 16.585938 9.769531 L 16.5625 9.777344 L 16.585938 9.769531 L 16.5625 9.777344 L 16.539062 9.78125 L 16.5625 9.777344 L 16.554688 9.777344 L 16.53125 9.78125 L 16.507812 9.78125 L 16.53125 9.777344 L 16.507812 9.78125 L 16.484375 9.78125 L 16.5 9.78125 L 16.476562 9.78125 L 16.476562 9.421875 L 16.460938 9.421875 L 16.484375 9.421875 L 16.46875 9.421875 L 16.445312 9.429688 L 16.46875 9.421875 L 16.453125 9.421875 L 16.4375 9.429688 L 16.429688 9.429688 L 16.453125 9.421875 L 16.4375 9.429688 L 16.414062 9.4375 L 16.4375 9.429688 L 16.414062 9.4375 L 16.421875 9.429688 L 16.40625 9.4375 L 16.398438 9.4375 L 16.40625 9.429688 Z M 16.59375 9.753906 L 16.625 9.738281 L 16.601562 9.753906 Z M 17.988281 8.96875 L 16.59375 9.753906 L 16.414062 9.445312 L 17.808594 8.660156 L 17.996094 8.96875 L 17.988281 8.976562 Z M 17.996094 8.960938 L 17.988281 8.96875 Z M 17.761719 8.707031 L 18.117188 8.796875 L 18.117188 8.804688 L 18.101562 8.835938 L 18.101562 8.851562 L 18.089844 8.867188 L 18.074219 8.882812 L 18.074219 8.875 L 18.011719 8.9375 L 17.808594 8.636719 L 17.800781 8.636719 L 17.769531 8.667969 L 17.761719 8.683594 L 17.761719 8.691406 L 17.769531 8.683594 L 17.761719 8.691406 L 17.761719 8.699219 L 17.753906 8.707031 L 17.753906 8.699219 L 17.753906 8.722656 Z M 18.117188 8.796875 L 18.117188 8.804688 Z M 17.769531 8.777344 L 18.082031 8.597656 L 18.082031 8.605469 L 18.089844 8.613281 L 18.101562 8.628906 L 18.109375 8.644531 L 18.109375 8.652344 L 18.117188 8.667969 L 18.117188 8.796875 L 17.761719 8.707031 L 17.761719 8.714844 L 17.761719 8.707031 L 17.761719 8.753906 L 17.761719 8.746094 L 17.761719 8.753906 L 17.761719 8.746094 L 17.761719 8.753906 L 17.769531 8.761719 L 17.769531 8.753906 L 17.777344 8.769531 Z M 17.769531 8.777344 L 17.746094 8.738281 Z M 17.933594 8.335938 L 18.082031 8.597656 L 17.769531 8.777344 L 17.621094 8.515625 L 17.933594 8.328125 Z M 17.933594 8.335938 L 17.941406 8.34375 Z M 17.933594 8.335938 "/>
<path style="fill-rule:nonzero;fill:rgb(92.941176%,41.176471%,36.078431%);fill-opacity:1;stroke-width:0.87;stroke-linecap:butt;stroke-linejoin:miter;stroke:rgb(92.941176%,41.176471%,36.078431%);stroke-opacity:1;stroke-miterlimit:22.9256;" d="M 24.12811 2.569908 C 24.138029 2.590223 24.157868 2.600381 24.177706 2.600381 C 24.187626 2.600381 24.197545 2.600381 24.212424 2.590223 L 24.549682 2.402305 C 24.57944 2.38199 24.589359 2.351516 24.56952 2.321043 L 24.009078 1.361137 C 23.999158 1.350979 23.989239 1.340821 23.9694 1.330664 C 23.949561 1.330664 23.939642 1.330664 23.919803 1.340821 L 23.577586 1.52874 C 23.567667 1.538897 23.557747 1.549055 23.547828 1.569371 C 23.547828 1.589686 23.547828 1.599844 23.557747 1.620159 L 24.11819 2.580066 Z M 24.12811 2.569908 " transform="matrix(0.787603,0,0,0.769118,0.000544132,0)"/>
<path style=" stroke:none;fill-rule:nonzero;fill:rgb(92.941176%,41.176471%,36.078431%);fill-opacity:1;" d="M 19.003906 1.976562 C 19.011719 1.992188 19.027344 2 19.042969 2 C 19.050781 2 19.058594 2 19.070312 1.992188 L 19.335938 1.847656 C 19.359375 1.832031 19.367188 1.808594 19.351562 1.785156 L 18.910156 1.046875 C 18.902344 1.039062 18.894531 1.03125 18.878906 1.023438 C 18.863281 1.023438 18.855469 1.023438 18.839844 1.03125 L 18.570312 1.175781 C 18.5625 1.183594 18.554688 1.191406 18.546875 1.207031 C 18.546875 1.222656 18.546875 1.230469 18.554688 1.246094 L 18.996094 1.984375 Z M 19.003906 1.976562 "/>
<path style=" stroke:none;fill-rule:nonzero;fill:rgb(92.941176%,41.176471%,36.078431%);fill-opacity:1;" d="M 19.042969 1.816406 L 19.042969 2.175781 L 18.972656 2.175781 L 18.949219 2.167969 L 18.933594 2.160156 L 18.910156 2.144531 L 18.894531 2.136719 L 18.902344 2.144531 L 18.886719 2.136719 L 18.871094 2.121094 L 18.863281 2.105469 L 18.855469 2.101562 L 18.863281 2.105469 L 18.855469 2.09375 L 18.847656 2.085938 L 19.164062 1.90625 L 19.164062 1.898438 L 19.15625 1.890625 L 19.164062 1.90625 L 19.125 1.867188 L 19.140625 1.875 L 19.132812 1.867188 L 19.078125 1.839844 L 19.085938 1.839844 L 19.070312 1.839844 L 19.078125 1.839844 L 19.058594 1.839844 Z M 18.972656 1.832031 L 19.15625 2.136719 L 19.132812 2.144531 L 19.148438 2.136719 L 19.132812 2.144531 L 19.101562 2.152344 L 19.109375 2.152344 L 19.148438 2.136719 L 19.132812 2.144531 L 19.109375 2.152344 L 19.148438 2.136719 L 19.101562 2.152344 L 19.148438 2.136719 L 19.109375 2.152344 L 19.101562 2.152344 L 19.109375 2.152344 L 19.058594 2.152344 L 19.09375 2.152344 L 19.050781 2.152344 L 19.050781 1.792969 L 19.019531 1.792969 L 19.058594 1.792969 L 19.019531 1.792969 L 19.027344 1.792969 L 19.019531 1.792969 L 18.980469 1.808594 L 19.027344 1.792969 L 18.980469 1.808594 L 19.019531 1.792969 L 18.996094 1.800781 L 18.980469 1.808594 L 19.019531 1.792969 L 19.027344 1.792969 L 18.996094 1.800781 L 18.980469 1.808594 L 18.996094 1.800781 L 18.972656 1.808594 Z M 19.15625 2.136719 L 19.148438 2.144531 L 19.132812 2.152344 L 19.15625 2.144531 Z M 19.421875 1.992188 L 19.15625 2.136719 L 18.972656 1.832031 L 19.242188 1.683594 L 19.421875 2 Z M 19.242188 1.683594 L 19.234375 1.683594 Z M 19.195312 1.867188 L 19.507812 1.691406 L 19.5 1.683594 L 19.507812 1.691406 L 19.523438 1.722656 L 19.53125 1.746094 L 19.53125 1.839844 L 19.523438 1.855469 L 19.515625 1.867188 L 19.5 1.898438 L 19.429688 1.96875 L 19.414062 1.976562 L 19.242188 1.660156 L 19.234375 1.667969 L 19.21875 1.675781 L 19.195312 1.699219 L 19.1875 1.714844 L 19.1875 1.722656 L 19.171875 1.738281 L 19.164062 1.753906 L 19.164062 1.832031 L 19.171875 1.855469 L 19.179688 1.867188 L 19.1875 1.875 L 19.1875 1.882812 L 19.179688 1.875 Z M 19.203125 1.875 L 19.203125 1.867188 L 19.210938 1.875 Z M 19.078125 0.945312 L 19.515625 1.683594 L 19.203125 1.859375 L 18.761719 1.121094 L 19.078125 0.9375 Z M 19.078125 0.945312 L 19.085938 0.953125 Z M 18.839844 1.183594 L 18.941406 0.839844 L 18.933594 0.839844 L 18.949219 0.839844 L 18.972656 0.847656 L 18.964844 0.847656 L 18.972656 0.855469 L 18.996094 0.867188 L 18.980469 0.863281 L 18.996094 0.867188 L 19.019531 0.882812 L 19.011719 0.875 L 19.042969 0.898438 L 19.058594 0.914062 L 19.042969 0.898438 L 19.058594 0.914062 L 19.078125 0.929688 L 19.070312 0.921875 L 19.078125 0.9375 L 19.085938 0.945312 L 18.769531 1.128906 L 18.785156 1.144531 L 18.777344 1.128906 L 18.785156 1.144531 L 18.792969 1.152344 L 18.777344 1.136719 L 18.816406 1.175781 L 18.800781 1.167969 L 18.824219 1.191406 L 18.800781 1.175781 L 18.816406 1.183594 L 18.824219 1.183594 L 18.816406 1.175781 L 18.839844 1.183594 L 18.855469 1.183594 Z M 18.847656 1.183594 L 18.832031 1.183594 Z M 18.941406 1.167969 L 18.761719 0.863281 L 18.753906 0.867188 L 18.785156 0.855469 L 18.777344 0.855469 L 18.800781 0.847656 L 18.808594 0.847656 L 18.800781 0.847656 L 18.832031 0.839844 L 18.894531 0.839844 L 18.925781 0.847656 L 18.902344 0.839844 L 18.925781 0.847656 L 18.824219 1.191406 L 18.847656 1.199219 L 18.839844 1.199219 L 18.808594 1.191406 L 18.839844 1.199219 L 18.832031 1.199219 L 18.886719 1.199219 L 18.878906 1.199219 L 18.910156 1.191406 L 18.902344 1.191406 L 18.910156 1.191406 L 18.933594 1.183594 L 18.925781 1.191406 L 18.957031 1.175781 L 18.949219 1.183594 Z M 18.949219 1.160156 L 18.941406 1.167969 Z M 18.492188 1.007812 L 18.761719 0.863281 L 18.941406 1.167969 L 18.675781 1.316406 L 18.484375 1.007812 Z M 18.492188 1.007812 L 18.5 1 Z M 18.738281 1.238281 L 18.382812 1.136719 L 18.382812 1.128906 L 18.382812 1.136719 L 18.390625 1.113281 L 18.398438 1.109375 L 18.382812 1.136719 L 18.390625 1.113281 L 18.398438 1.109375 L 18.421875 1.078125 L 18.414062 1.085938 L 18.40625 1.101562 L 18.414062 1.085938 L 18.429688 1.0625 L 18.445312 1.046875 L 18.429688 1.0625 L 18.460938 1.03125 L 18.445312 1.046875 L 18.460938 1.03125 L 18.484375 1.015625 L 18.5 1.007812 L 18.484375 1.015625 L 18.492188 1.007812 L 18.683594 1.316406 L 18.691406 1.308594 L 18.667969 1.324219 L 18.699219 1.292969 L 18.683594 1.308594 L 18.714844 1.277344 L 18.699219 1.292969 L 18.738281 1.253906 L 18.722656 1.277344 L 18.714844 1.292969 L 18.738281 1.261719 L 18.738281 1.253906 L 18.746094 1.230469 L 18.730469 1.261719 L 18.730469 1.253906 L 18.738281 1.230469 L 18.738281 1.238281 L 18.738281 1.230469 Z M 18.382812 1.136719 L 18.382812 1.128906 Z M 18.722656 1.128906 L 18.40625 1.308594 L 18.390625 1.292969 L 18.398438 1.308594 L 18.390625 1.300781 L 18.375 1.269531 L 18.382812 1.292969 L 18.382812 1.300781 L 18.367188 1.269531 L 18.367188 1.277344 L 18.367188 1.269531 L 18.367188 1.277344 L 18.359375 1.246094 L 18.359375 1.222656 L 18.359375 1.246094 L 18.359375 1.191406 L 18.359375 1.214844 L 18.359375 1.183594 L 18.367188 1.160156 L 18.722656 1.261719 L 18.730469 1.238281 L 18.730469 1.246094 L 18.730469 1.222656 L 18.730469 1.246094 L 18.730469 1.199219 L 18.730469 1.222656 L 18.730469 1.199219 L 18.722656 1.167969 L 18.722656 1.175781 L 18.722656 1.167969 L 18.722656 1.175781 L 18.707031 1.144531 L 18.714844 1.152344 L 18.722656 1.175781 L 18.707031 1.144531 L 18.699219 1.136719 L 18.707031 1.160156 L 18.699219 1.152344 L 18.699219 1.144531 Z M 18.40625 1.308594 Z M 18.847656 2.046875 L 18.40625 1.308594 L 18.722656 1.128906 L 19.164062 1.867188 Z M 19.164062 1.867188 L 19.15625 1.859375 Z M 19.164062 1.867188 "/>
<path style="fill-rule:nonzero;fill:rgb(92.941176%,41.176471%,36.078431%);fill-opacity:1;stroke-width:0.87;stroke-linecap:butt;stroke-linejoin:miter;stroke:rgb(92.941176%,41.176471%,36.078431%);stroke-opacity:1;stroke-miterlimit:22.9256;" d="M 21.132468 8.410607 L 21.132468 8.019534 C 21.132468 7.94843 21.077912 7.897642 21.008476 7.897642 L 19.90247 7.897642 C 19.828075 7.897642 19.778478 7.94843 19.778478 8.019534 L 19.778478 8.410607 C 19.778478 8.471554 19.828075 8.5325 19.90247 8.5325 L 21.008476 8.5325 C 21.077912 8.5325 21.132468 8.481712 21.132468 8.410607 Z M 21.132468 8.410607 " transform="matrix(0.787603,0,0,0.769118,0.000544132,0)"/>
<path style="fill-rule:nonzero;fill:rgb(92.941176%,41.176471%,36.078431%);fill-opacity:1;stroke-width:0.87;stroke-linecap:butt;stroke-linejoin:miter;stroke:rgb(92.941176%,41.176471%,36.078431%);stroke-opacity:1;stroke-miterlimit:22.9256;" d="M 24.539762 14.037994 L 24.197545 13.850076 C 24.167787 13.829761 24.12811 13.839919 24.11819 13.870392 L 23.557747 14.840456 C 23.537909 14.870929 23.547828 14.901402 23.577586 14.921718 L 23.919803 15.109636 C 23.929723 15.119794 23.939642 15.119794 23.949561 15.119794 C 23.949561 15.119794 23.959481 15.119794 23.9694 15.119794 C 23.989239 15.119794 23.999158 15.109636 24.009078 15.08932 L 24.56952 14.129414 C 24.57944 14.119256 24.57944 14.098941 24.57944 14.078625 C 24.57944 14.068468 24.56952 14.048152 24.549682 14.037994 Z M 24.539762 14.037994 " transform="matrix(0.787603,0,0,0.769118,0.000544132,0)"/>
<path style=" stroke:none;fill-rule:nonzero;fill:rgb(92.941176%,41.176471%,36.078431%);fill-opacity:1;" d="M 19.328125 10.796875 L 19.058594 10.652344 C 19.035156 10.636719 19.003906 10.644531 18.996094 10.667969 L 18.554688 11.414062 C 18.539062 11.4375 18.546875 11.460938 18.570312 11.476562 L 18.839844 11.621094 C 18.847656 11.628906 18.855469 11.628906 18.863281 11.628906 C 18.863281 11.628906 18.871094 11.628906 18.878906 11.628906 C 18.894531 11.628906 18.902344 11.621094 18.910156 11.605469 L 19.351562 10.867188 C 19.359375 10.859375 19.359375 10.84375 19.359375 10.828125 C 19.359375 10.820312 19.351562 10.804688 19.335938 10.796875 Z M 19.328125 10.796875 "/>
<path style=" stroke:none;fill-rule:nonzero;fill:rgb(92.941176%,41.176471%,36.078431%);fill-opacity:1;" d="M 19.15625 10.5 L 19.421875 10.644531 L 19.242188 10.953125 L 18.972656 10.804688 L 19.164062 10.5 Z M 18.972656 10.804688 L 18.980469 10.804688 Z M 19.164062 10.761719 L 18.847656 10.582031 L 18.902344 10.527344 L 18.910156 10.523438 L 18.917969 10.515625 L 18.980469 10.484375 L 19.011719 10.476562 L 19.078125 10.476562 L 19.101562 10.484375 L 19.132812 10.5 L 19.140625 10.5 L 18.949219 10.804688 L 18.964844 10.8125 L 18.972656 10.820312 L 18.996094 10.828125 L 19.085938 10.828125 L 19.117188 10.8125 L 19.148438 10.78125 L 19.15625 10.769531 L 19.15625 10.753906 Z M 18.847656 10.582031 L 18.839844 10.589844 Z M 18.40625 11.328125 L 18.847656 10.582031 L 19.164062 10.761719 L 18.722656 11.507812 Z M 18.722656 11.507812 L 18.714844 11.515625 Z M 18.675781 11.320312 L 18.492188 11.628906 L 18.476562 11.621094 L 18.414062 11.558594 L 18.398438 11.527344 L 18.390625 11.515625 L 18.382812 11.5 L 18.382812 11.40625 L 18.414062 11.34375 L 18.414062 11.335938 L 18.730469 11.515625 L 18.730469 11.507812 L 18.738281 11.5 L 18.738281 11.414062 L 18.730469 11.398438 L 18.714844 11.382812 L 18.707031 11.367188 L 18.699219 11.359375 L 18.699219 11.351562 L 18.667969 11.320312 L 18.660156 11.320312 L 18.644531 11.304688 Z M 18.675781 11.320312 L 18.683594 11.328125 Z M 18.761719 11.78125 L 18.492188 11.636719 L 18.675781 11.328125 L 18.941406 11.476562 L 18.949219 11.484375 L 18.753906 11.78125 Z M 18.941406 11.476562 L 18.949219 11.484375 Z M 18.871094 11.460938 L 18.871094 11.820312 L 18.824219 11.8125 L 18.863281 11.8125 L 18.816406 11.804688 L 18.863281 11.8125 L 18.816406 11.8125 L 18.777344 11.796875 L 18.816406 11.8125 L 18.777344 11.796875 L 18.792969 11.804688 L 18.746094 11.78125 L 18.753906 11.789062 L 18.957031 11.5 L 18.964844 11.507812 L 18.941406 11.492188 L 18.925781 11.484375 L 18.941406 11.492188 L 18.902344 11.476562 L 18.941406 11.492188 L 18.902344 11.476562 L 18.863281 11.476562 L 18.910156 11.484375 L 18.863281 11.476562 L 18.910156 11.476562 L 18.863281 11.46875 Z M 18.832031 11.46875 L 18.933594 11.8125 L 18.964844 11.796875 L 18.886719 11.8125 L 18.964844 11.796875 L 18.886719 11.8125 L 18.964844 11.796875 L 18.941406 11.804688 L 18.886719 11.8125 L 18.941406 11.804688 L 18.886719 11.8125 L 18.886719 11.453125 L 18.832031 11.460938 L 18.886719 11.453125 L 18.832031 11.460938 L 18.808594 11.46875 L 18.886719 11.453125 L 18.808594 11.46875 L 18.886719 11.453125 L 18.808594 11.46875 L 18.839844 11.453125 Z M 18.816406 11.476562 L 18.832031 11.476562 L 18.816406 11.484375 Z M 18.753906 11.527344 L 19.070312 11.707031 L 19.058594 11.714844 L 19.011719 11.761719 L 19.027344 11.746094 L 19.011719 11.761719 L 18.996094 11.765625 L 19.003906 11.761719 L 18.972656 11.78125 L 18.988281 11.773438 L 18.964844 11.789062 L 18.941406 11.796875 L 18.964844 11.789062 L 18.933594 11.804688 L 18.941406 11.804688 L 18.933594 11.804688 L 18.832031 11.460938 L 18.824219 11.460938 L 18.832031 11.460938 L 18.800781 11.476562 L 18.824219 11.46875 L 18.800781 11.476562 L 18.785156 11.484375 L 18.808594 11.46875 L 18.777344 11.492188 L 18.792969 11.484375 L 18.769531 11.507812 L 18.785156 11.492188 L 18.761719 11.515625 L 18.753906 11.527344 L 18.746094 11.535156 Z M 19.070312 11.707031 L 19.058594 11.714844 Z M 19.507812 10.96875 L 19.070312 11.707031 L 18.753906 11.527344 L 19.195312 10.789062 L 19.507812 10.976562 Z M 19.195312 10.789062 L 19.1875 10.796875 Z M 19.1875 10.90625 L 19.53125 10.789062 L 19.53125 10.804688 L 19.539062 10.828125 L 19.539062 10.882812 L 19.53125 10.90625 L 19.53125 10.914062 L 19.53125 10.90625 L 19.515625 10.9375 L 19.53125 10.90625 L 19.523438 10.929688 L 19.507812 10.960938 L 19.515625 10.945312 L 19.507812 10.960938 L 19.195312 10.773438 L 19.1875 10.78125 L 19.203125 10.761719 L 19.1875 10.789062 L 19.179688 10.8125 L 19.195312 10.78125 L 19.179688 10.8125 L 19.179688 10.804688 L 19.179688 10.8125 L 19.171875 10.835938 L 19.171875 10.882812 L 19.179688 10.898438 L 19.179688 10.90625 Z M 19.53125 10.789062 L 19.53125 10.804688 Z M 19.25 10.976562 L 19.429688 10.667969 L 19.421875 10.667969 L 19.4375 10.675781 L 19.421875 10.667969 L 19.445312 10.683594 L 19.476562 10.714844 L 19.460938 10.699219 L 19.476562 10.714844 L 19.460938 10.699219 L 19.492188 10.730469 L 19.5 10.746094 L 19.492188 10.738281 L 19.5 10.753906 L 19.515625 10.773438 L 19.507812 10.769531 L 19.515625 10.78125 L 19.523438 10.804688 L 19.515625 10.78125 L 19.523438 10.804688 L 19.179688 10.921875 L 19.1875 10.945312 L 19.179688 10.921875 L 19.1875 10.945312 L 19.195312 10.953125 L 19.1875 10.9375 L 19.195312 10.953125 L 19.203125 10.960938 L 19.195312 10.945312 L 19.234375 10.984375 L 19.21875 10.96875 L 19.234375 10.984375 L 19.21875 10.96875 L 19.226562 10.976562 L 19.257812 10.992188 L 19.234375 10.976562 L 19.25 10.984375 L 19.242188 10.984375 Z M 19.257812 10.976562 L 19.25 10.976562 Z M 19.257812 10.976562 "/>
<path style="fill-rule:nonzero;fill:rgb(92.941176%,41.176471%,36.078431%);fill-opacity:1;stroke-width:0.87;stroke-linecap:butt;stroke-linejoin:miter;stroke:rgb(92.941176%,41.176471%,36.078431%);stroke-opacity:1;stroke-miterlimit:22.9256;" d="M 34.469024 11.909948 L 32.698422 10.889096 C 32.678583 10.878938 32.658744 10.86878 32.638905 10.86878 C 32.599228 10.86878 32.559551 10.889096 32.539712 10.929726 L 32.351245 11.270011 C 32.331406 11.300484 32.331406 11.330957 32.341325 11.36143 C 32.351245 11.391904 32.371083 11.422377 32.400841 11.432535 L 34.171444 12.448308 C 34.201202 12.468624 34.23096 12.468624 34.260718 12.458466 C 34.290476 12.448308 34.320234 12.427993 34.330153 12.39752 L 34.518621 12.062314 C 34.548379 12.001368 34.52854 11.930264 34.478943 11.89979 Z M 34.469024 11.909948 " transform="matrix(0.787603,0,0,0.769118,0.000544132,0)"/>
<path style=" stroke:none;fill-rule:nonzero;fill:rgb(92.941176%,41.176471%,36.078431%);fill-opacity:1;" d="M 27.148438 9.160156 L 25.753906 8.375 C 25.738281 8.367188 25.722656 8.359375 25.707031 8.359375 C 25.675781 8.359375 25.644531 8.375 25.628906 8.40625 L 25.480469 8.667969 C 25.464844 8.691406 25.464844 8.714844 25.472656 8.738281 C 25.480469 8.761719 25.496094 8.785156 25.519531 8.792969 L 26.914062 9.574219 C 26.9375 9.589844 26.960938 9.589844 26.984375 9.582031 C 27.007812 9.574219 27.03125 9.558594 27.039062 9.535156 L 27.1875 9.277344 C 27.210938 9.230469 27.195312 9.175781 27.15625 9.152344 Z M 27.148438 9.160156 "/>
<path style=" stroke:none;fill-rule:nonzero;fill:rgb(92.941176%,41.176471%,36.078431%);fill-opacity:1;" d="M 25.839844 8.222656 L 27.234375 9.007812 L 27.054688 9.3125 L 25.660156 8.53125 Z M 25.660156 8.53125 L 25.644531 8.523438 Z M 25.707031 8.539062 L 25.707031 8.175781 L 25.761719 8.175781 L 25.785156 8.183594 L 25.769531 8.175781 L 25.792969 8.183594 L 25.800781 8.183594 L 25.808594 8.191406 L 25.792969 8.183594 L 25.800781 8.183594 L 25.816406 8.199219 L 25.808594 8.199219 L 25.816406 8.207031 L 25.832031 8.214844 L 25.652344 8.523438 L 25.644531 8.523438 L 25.660156 8.53125 L 25.667969 8.53125 L 25.660156 8.523438 L 25.683594 8.523438 L 25.667969 8.515625 L 25.683594 8.515625 L 25.699219 8.523438 L 25.675781 8.515625 L 25.691406 8.523438 L 25.683594 8.523438 L 25.699219 8.523438 L 25.691406 8.523438 L 25.714844 8.523438 Z M 25.785156 8.492188 L 25.472656 8.3125 L 25.488281 8.296875 L 25.496094 8.292969 L 25.535156 8.253906 L 25.566406 8.238281 L 25.574219 8.230469 L 25.605469 8.214844 L 25.628906 8.207031 L 25.707031 8.207031 L 25.707031 8.566406 L 25.746094 8.566406 L 25.738281 8.566406 L 25.753906 8.558594 L 25.746094 8.558594 L 25.761719 8.542969 L 25.769531 8.542969 L 25.777344 8.539062 L 25.792969 8.523438 L 25.792969 8.507812 Z M 25.785156 8.492188 L 25.785156 8.484375 Z M 25.3125 8.574219 L 25.464844 8.3125 L 25.777344 8.492188 L 25.628906 8.753906 Z M 25.628906 8.753906 Z M 25.636719 8.691406 L 25.28125 8.785156 L 25.28125 8.707031 L 25.28125 8.722656 L 25.28125 8.667969 L 25.304688 8.621094 L 25.304688 8.613281 L 25.3125 8.597656 L 25.628906 8.785156 L 25.636719 8.769531 L 25.636719 8.777344 L 25.636719 8.738281 L 25.636719 8.746094 L 25.636719 8.730469 L 25.636719 8.746094 L 25.636719 8.707031 L 25.636719 8.714844 Z M 25.636719 8.691406 L 25.660156 8.769531 Z M 25.597656 8.636719 L 25.417969 8.945312 L 25.363281 8.890625 L 25.351562 8.882812 L 25.34375 8.867188 L 25.34375 8.875 L 25.328125 8.84375 L 25.328125 8.835938 L 25.320312 8.820312 L 25.320312 8.804688 L 25.675781 8.714844 L 25.675781 8.707031 L 25.675781 8.714844 L 25.675781 8.707031 L 25.667969 8.699219 L 25.660156 8.683594 L 25.667969 8.691406 L 25.660156 8.675781 L 25.660156 8.667969 L 25.621094 8.628906 L 25.613281 8.628906 L 25.605469 8.621094 Z M 25.417969 8.945312 L 25.410156 8.945312 L 25.417969 8.953125 Z M 26.808594 9.730469 L 25.417969 8.945312 L 25.597656 8.636719 L 26.992188 9.421875 L 26.800781 9.730469 Z M 26.992188 9.421875 L 26.984375 9.414062 Z M 26.929688 9.414062 L 27.015625 9.761719 L 26.898438 9.761719 L 26.882812 9.753906 L 26.84375 9.753906 L 26.828125 9.746094 L 27.015625 9.4375 L 27 9.429688 L 26.984375 9.429688 L 26.992188 9.429688 L 26.976562 9.429688 L 26.984375 9.429688 L 26.929688 9.429688 L 26.9375 9.429688 L 26.929688 9.429688 Z M 26.929688 9.414062 L 26.921875 9.414062 Z M 26.875 9.453125 L 27.1875 9.628906 L 27.1875 9.636719 L 27.164062 9.660156 L 27.164062 9.652344 L 27.132812 9.683594 L 27.140625 9.675781 L 27.117188 9.699219 L 27.125 9.699219 L 27.117188 9.707031 L 27.101562 9.714844 L 27.109375 9.714844 L 27.09375 9.722656 L 27.070312 9.722656 L 27.054688 9.730469 L 27.039062 9.730469 L 26.953125 9.382812 L 26.929688 9.382812 L 26.914062 9.390625 L 26.921875 9.382812 L 26.90625 9.390625 L 26.898438 9.390625 L 26.90625 9.382812 L 26.898438 9.390625 L 26.890625 9.390625 L 26.882812 9.398438 L 26.890625 9.390625 L 26.875 9.40625 L 26.875 9.414062 L 26.867188 9.421875 L 26.875 9.414062 L 26.875 9.429688 L 26.867188 9.4375 Z M 26.875 9.453125 L 26.875 9.460938 Z M 27.347656 9.367188 L 27.195312 9.628906 L 26.882812 9.453125 L 27.03125 9.191406 L 27.347656 9.375 Z M 27.03125 9.191406 L 27.023438 9.199219 Z M 27.0625 9.304688 L 27.242188 9 L 27.257812 9.007812 L 27.265625 9.015625 L 27.28125 9.023438 L 27.289062 9.03125 L 27.300781 9.039062 L 27.308594 9.042969 L 27.347656 9.082031 L 27.355469 9.097656 L 27.371094 9.113281 L 27.386719 9.144531 L 27.386719 9.285156 L 27.378906 9.296875 L 27.371094 9.3125 L 27.363281 9.320312 L 27.347656 9.351562 L 27.03125 9.167969 L 27.03125 9.207031 L 27.03125 9.199219 L 27.03125 9.214844 L 27.039062 9.222656 L 27.039062 9.230469 L 27.054688 9.246094 L 27.0625 9.246094 Z M 27.242188 9 L 27.234375 8.992188 Z M 27.242188 9 "/>
<path style="fill-rule:nonzero;fill:rgb(92.941176%,41.176471%,36.078431%);fill-opacity:1;stroke-width:0.87;stroke-linecap:butt;stroke-linejoin:miter;stroke:rgb(92.941176%,41.176471%,36.078431%);stroke-opacity:1;stroke-miterlimit:22.9256;" d="M 32.529793 5.500415 C 32.559551 5.561362 32.638905 5.581677 32.688502 5.541046 L 34.459105 4.520194 C 34.518621 4.48972 34.53846 4.408458 34.498782 4.35767 L 34.310315 4.022464 C 34.290476 3.991991 34.270637 3.971676 34.240879 3.961518 C 34.23096 3.961518 34.221041 3.961518 34.211121 3.961518 C 34.191283 3.961518 34.171444 3.971676 34.151605 3.981833 L 32.381003 4.997607 C 32.351245 5.017923 32.331406 5.038238 32.321487 5.068711 C 32.311567 5.099185 32.321487 5.129658 32.331406 5.160131 L 32.519873 5.500415 Z M 32.529793 5.500415 " transform="matrix(0.787603,0,0,0.769118,0.000544132,0)"/>
<path style=" stroke:none;fill-rule:nonzero;fill:rgb(92.941176%,41.176471%,36.078431%);fill-opacity:1;" d="M 25.621094 4.230469 C 25.644531 4.277344 25.707031 4.292969 25.746094 4.261719 L 27.140625 3.476562 C 27.1875 3.453125 27.203125 3.390625 27.171875 3.351562 L 27.023438 3.09375 C 27.007812 3.070312 26.992188 3.054688 26.96875 3.046875 C 26.960938 3.046875 26.953125 3.046875 26.945312 3.046875 C 26.929688 3.046875 26.914062 3.054688 26.898438 3.0625 L 25.503906 3.84375 C 25.480469 3.859375 25.464844 3.875 25.457031 3.898438 C 25.449219 3.921875 25.457031 3.945312 25.464844 3.96875 L 25.613281 4.230469 Z M 25.621094 4.230469 "/>
<path style=" stroke:none;fill-rule:nonzero;fill:rgb(92.941176%,41.176471%,36.078431%);fill-opacity:1;" d="M 25.660156 4.105469 L 25.839844 4.414062 L 25.808594 4.429688 L 25.800781 4.4375 L 25.769531 4.453125 L 25.644531 4.453125 L 25.613281 4.4375 L 25.605469 4.4375 L 25.574219 4.421875 L 25.496094 4.34375 L 25.488281 4.332031 L 25.480469 4.324219 L 25.792969 4.144531 L 25.769531 4.121094 L 25.761719 4.121094 L 25.769531 4.121094 L 25.753906 4.121094 L 25.761719 4.121094 L 25.714844 4.121094 Z M 25.660156 4.105469 L 25.675781 4.097656 Z M 27.234375 3.628906 L 25.839844 4.414062 L 25.660156 4.105469 L 27.054688 3.324219 L 27.242188 3.628906 Z M 27.234375 3.628906 L 27.226562 3.636719 Z M 27.015625 3.4375 L 27.332031 3.261719 L 27.347656 3.292969 L 27.355469 3.300781 L 27.371094 3.332031 L 27.371094 3.476562 L 27.363281 3.492188 L 27.347656 3.507812 L 27.339844 3.523438 L 27.300781 3.5625 L 27.289062 3.570312 L 27.273438 3.585938 L 27.257812 3.589844 L 27.25 3.597656 L 27.234375 3.605469 L 27.046875 3.300781 L 27.039062 3.300781 L 27.023438 3.316406 L 27.023438 3.324219 L 27.015625 3.332031 L 27.015625 3.34375 L 27.015625 3.339844 Z M 27.015625 3.4375 L 27.007812 3.429688 Z M 27.179688 3 L 27.332031 3.261719 L 27.015625 3.4375 L 26.867188 3.175781 L 27.1875 3 Z M 26.867188 3.175781 L 26.875 3.183594 Z M 26.921875 3.214844 L 27.015625 2.867188 L 27.023438 2.867188 L 27.039062 2.875 L 27.0625 2.875 L 27.078125 2.882812 L 27.085938 2.890625 L 27.078125 2.890625 L 27.101562 2.914062 L 27.09375 2.914062 L 27.15625 2.976562 L 27.15625 2.984375 L 26.835938 3.160156 L 26.84375 3.167969 L 26.84375 3.175781 L 26.851562 3.191406 L 26.867188 3.207031 L 26.875 3.207031 L 26.882812 3.214844 L 26.875 3.207031 L 26.890625 3.214844 L 26.898438 3.214844 L 26.890625 3.207031 L 26.898438 3.207031 L 26.90625 3.214844 L 26.929688 3.214844 Z M 26.921875 3.214844 L 26.953125 3.222656 Z M 26.945312 3.214844 L 26.945312 2.851562 L 26.984375 2.851562 L 26.953125 2.851562 L 27 2.859375 L 26.953125 2.851562 L 27 2.859375 L 26.953125 2.851562 L 27 2.859375 L 26.992188 2.859375 L 27 2.859375 L 26.953125 2.851562 L 27 2.851562 L 27.039062 2.867188 L 26.992188 2.851562 L 27.007812 2.851562 L 26.914062 3.199219 L 26.921875 3.199219 L 26.875 3.183594 L 26.914062 3.199219 L 26.953125 3.199219 L 26.90625 3.191406 L 26.914062 3.191406 L 26.90625 3.191406 L 26.953125 3.199219 L 26.90625 3.191406 L 26.953125 3.199219 L 26.90625 3.191406 L 26.953125 3.199219 L 26.914062 3.199219 L 26.945312 3.199219 Z M 26.992188 3.207031 L 26.808594 2.898438 L 26.820312 2.890625 L 26.800781 2.898438 L 26.820312 2.890625 L 26.835938 2.882812 L 26.84375 2.882812 L 26.828125 2.890625 L 26.820312 2.890625 L 26.835938 2.882812 L 26.84375 2.882812 L 26.835938 2.882812 L 26.84375 2.882812 L 26.867188 2.875 L 26.84375 2.882812 L 26.851562 2.882812 L 26.875 2.875 L 26.921875 2.875 L 26.921875 3.238281 L 26.953125 3.238281 L 26.96875 3.230469 L 26.976562 3.230469 L 26.953125 3.238281 L 26.96875 3.230469 L 26.976562 3.230469 L 26.96875 3.230469 L 26.976562 3.230469 L 26.992188 3.222656 L 26.984375 3.230469 L 26.96875 3.238281 L 26.976562 3.238281 L 27.007812 3.222656 L 26.992188 3.230469 L 27 3.222656 Z M 26.808594 2.898438 L 26.800781 2.90625 Z M 25.417969 3.683594 L 26.808594 2.898438 L 26.992188 3.207031 L 25.597656 3.992188 Z M 25.417969 3.683594 L 25.410156 3.691406 Z M 25.644531 3.9375 L 25.289062 3.84375 L 25.289062 3.832031 L 25.296875 3.816406 L 25.296875 3.792969 L 25.304688 3.777344 L 25.304688 3.785156 L 25.3125 3.769531 L 25.351562 3.730469 L 25.363281 3.722656 L 25.378906 3.707031 L 25.566406 4.015625 L 25.574219 4.015625 L 25.589844 4 L 25.597656 4 L 25.613281 3.984375 L 25.628906 3.953125 L 25.621094 3.960938 L 25.628906 3.945312 L 25.628906 3.929688 L 25.628906 3.9375 L 25.628906 3.929688 Z M 25.644531 3.9375 L 25.667969 3.859375 Z M 25.636719 3.875 L 25.320312 4.054688 L 25.320312 4.046875 L 25.3125 4.03125 L 25.3125 4.007812 L 25.296875 3.976562 L 25.296875 3.914062 L 25.296875 3.921875 L 25.296875 3.84375 L 25.652344 3.9375 L 25.652344 3.929688 L 25.652344 3.9375 L 25.652344 3.898438 L 25.652344 3.914062 L 25.652344 3.890625 L 25.652344 3.898438 L 25.652344 3.890625 L 25.652344 3.898438 L 25.652344 3.875 L 25.644531 3.867188 Z M 25.636719 3.875 L 25.628906 3.867188 Z M 25.472656 4.324219 L 25.320312 4.0625 L 25.636719 3.882812 L 25.785156 4.144531 Z M 25.785156 4.144531 L 25.816406 4.199219 Z M 25.785156 4.144531 "/>
<path style="fill-rule:nonzero;fill:rgb(92.941176%,41.176471%,36.078431%);fill-opacity:1;stroke-width:0.87;stroke-linecap:butt;stroke-linejoin:miter;stroke:rgb(92.941176%,41.176471%,36.078431%);stroke-opacity:1;stroke-miterlimit:22.9256;" d="M 30.992295 13.870392 C 30.982375 13.850076 30.957577 13.839919 30.937738 13.839919 C 30.927819 13.839919 30.9179 13.839919 30.90798 13.850076 L 30.570723 14.037994 C 30.540965 14.05831 30.531045 14.088783 30.550884 14.119256 L 31.111327 15.079163 C 31.121246 15.08932 31.131165 15.099478 31.151004 15.109636 C 31.170843 15.109636 31.180762 15.109636 31.200601 15.099478 L 31.537858 14.91156 C 31.547778 14.901402 31.557697 14.891244 31.567616 14.870929 C 31.567616 14.850613 31.567616 14.840456 31.557697 14.82014 L 31.002214 13.850076 Z M 30.992295 13.870392 " transform="matrix(0.787603,0,0,0.769118,0.000544132,0)"/>
<path style=" stroke:none;fill-rule:nonzero;fill:rgb(92.941176%,41.176471%,36.078431%);fill-opacity:1;" d="M 24.410156 10.667969 C 24.402344 10.652344 24.382812 10.644531 24.367188 10.644531 C 24.359375 10.644531 24.351562 10.644531 24.34375 10.652344 L 24.078125 10.796875 C 24.054688 10.8125 24.046875 10.835938 24.0625 10.859375 L 24.503906 11.597656 C 24.511719 11.605469 24.519531 11.613281 24.535156 11.621094 C 24.550781 11.621094 24.558594 11.621094 24.574219 11.613281 L 24.839844 11.46875 C 24.847656 11.460938 24.855469 11.453125 24.863281 11.4375 C 24.863281 11.421875 24.863281 11.414062 24.855469 11.398438 L 24.417969 10.652344 Z M 24.410156 10.667969 "/>
<path style=" stroke:none;fill-rule:nonzero;fill:rgb(92.941176%,41.176471%,36.078431%);fill-opacity:1;" d="M 24.367188 10.820312 L 24.367188 10.460938 L 24.417969 10.460938 L 24.441406 10.46875 L 24.449219 10.46875 L 24.441406 10.46875 L 24.464844 10.476562 L 24.480469 10.484375 L 24.488281 10.492188 L 24.503906 10.5 L 24.527344 10.523438 L 24.535156 10.535156 L 24.542969 10.542969 L 24.535156 10.535156 L 24.542969 10.550781 L 24.550781 10.558594 L 24.234375 10.738281 L 24.234375 10.746094 L 24.242188 10.753906 L 24.234375 10.738281 L 24.265625 10.769531 L 24.273438 10.773438 L 24.28125 10.78125 L 24.296875 10.789062 L 24.320312 10.796875 L 24.3125 10.796875 L 24.320312 10.796875 L 24.335938 10.804688 L 24.367188 10.804688 Z M 24.441406 10.804688 L 24.257812 10.5 L 24.25 10.507812 L 24.265625 10.5 L 24.242188 10.515625 L 24.289062 10.492188 L 24.3125 10.484375 L 24.273438 10.5 L 24.3125 10.484375 L 24.320312 10.484375 L 24.3125 10.484375 L 24.359375 10.476562 L 24.3125 10.484375 L 24.359375 10.476562 L 24.328125 10.476562 L 24.367188 10.476562 L 24.367188 10.835938 L 24.402344 10.835938 L 24.359375 10.835938 L 24.410156 10.828125 L 24.359375 10.835938 L 24.410156 10.828125 L 24.402344 10.828125 L 24.410156 10.828125 L 24.449219 10.8125 L 24.410156 10.828125 L 24.433594 10.820312 L 24.449219 10.8125 L 24.472656 10.796875 L 24.441406 10.8125 L 24.457031 10.804688 L 24.449219 10.8125 Z M 24.449219 10.796875 L 24.441406 10.796875 L 24.449219 10.789062 Z M 23.992188 10.644531 L 24.257812 10.5 L 24.441406 10.804688 L 24.171875 10.953125 L 23.984375 10.644531 Z M 23.984375 10.644531 L 23.992188 10.644531 Z M 24.21875 10.769531 L 23.902344 10.945312 L 23.886719 10.929688 L 23.871094 10.898438 L 23.871094 10.78125 L 23.878906 10.769531 L 23.894531 10.738281 L 23.914062 10.722656 L 23.953125 10.683594 L 23.96875 10.675781 L 24.164062 10.984375 L 24.203125 10.945312 L 24.21875 10.914062 L 24.234375 10.898438 L 24.234375 10.828125 L 24.234375 10.835938 L 24.234375 10.8125 L 24.226562 10.796875 L 24.226562 10.78125 L 24.21875 10.773438 Z M 23.902344 10.945312 L 23.902344 10.9375 L 23.914062 10.945312 Z M 24.34375 11.683594 L 23.902344 10.945312 L 24.21875 10.769531 L 24.660156 11.507812 L 24.660156 11.515625 L 24.335938 11.691406 Z M 24.660156 11.507812 L 24.660156 11.515625 Z M 24.582031 11.445312 L 24.480469 11.789062 L 24.472656 11.789062 L 24.480469 11.789062 L 24.449219 11.773438 L 24.472656 11.78125 L 24.449219 11.773438 L 24.425781 11.761719 L 24.441406 11.765625 L 24.425781 11.761719 L 24.402344 11.746094 L 24.410156 11.753906 L 24.394531 11.746094 L 24.375 11.730469 L 24.394531 11.746094 L 24.359375 11.714844 L 24.375 11.730469 L 24.351562 11.699219 L 24.359375 11.707031 L 24.351562 11.691406 L 24.335938 11.667969 L 24.34375 11.683594 L 24.335938 11.667969 L 24.660156 11.5 L 24.652344 11.484375 L 24.667969 11.507812 L 24.660156 11.492188 L 24.652344 11.484375 L 24.660156 11.5 L 24.636719 11.476562 L 24.652344 11.492188 L 24.621094 11.460938 L 24.636719 11.476562 L 24.613281 11.453125 L 24.628906 11.460938 L 24.605469 11.4375 L 24.628906 11.453125 L 24.613281 11.445312 L 24.589844 11.4375 L 24.613281 11.445312 L 24.582031 11.429688 L 24.589844 11.429688 L 24.582031 11.429688 Z M 24.480469 11.789062 L 24.488281 11.789062 Z M 24.472656 11.460938 L 24.652344 11.765625 L 24.636719 11.773438 L 24.652344 11.765625 L 24.621094 11.78125 L 24.597656 11.789062 L 24.628906 11.773438 L 24.597656 11.789062 L 24.605469 11.789062 L 24.597656 11.789062 L 24.574219 11.796875 L 24.542969 11.796875 L 24.566406 11.796875 L 24.519531 11.796875 L 24.542969 11.796875 L 24.519531 11.796875 L 24.496094 11.789062 L 24.519531 11.796875 L 24.496094 11.789062 L 24.597656 11.445312 L 24.574219 11.4375 L 24.597656 11.445312 L 24.574219 11.4375 L 24.550781 11.4375 L 24.574219 11.4375 L 24.527344 11.4375 L 24.550781 11.4375 L 24.519531 11.4375 L 24.527344 11.4375 L 24.503906 11.445312 L 24.496094 11.445312 L 24.503906 11.445312 L 24.472656 11.460938 L 24.503906 11.445312 L 24.480469 11.453125 L 24.449219 11.46875 L 24.472656 11.453125 L 24.464844 11.460938 Z M 24.472656 11.460938 Z M 24.921875 11.621094 L 24.652344 11.765625 L 24.472656 11.460938 L 24.738281 11.3125 L 24.746094 11.3125 L 24.929688 11.628906 Z M 24.738281 11.3125 L 24.746094 11.3125 L 24.738281 11.320312 Z M 24.675781 11.40625 L 25.039062 11.476562 L 25.039062 11.5 L 25.03125 11.515625 L 25.023438 11.519531 L 25.007812 11.542969 L 25.015625 11.527344 L 25 11.550781 L 24.992188 11.566406 L 25 11.558594 L 24.992188 11.574219 L 24.960938 11.605469 L 24.945312 11.613281 L 24.953125 11.605469 L 24.9375 11.613281 L 24.914062 11.628906 L 24.738281 11.3125 L 24.746094 11.3125 L 24.730469 11.320312 L 24.722656 11.328125 L 24.738281 11.320312 L 24.691406 11.367188 L 24.699219 11.351562 L 24.691406 11.359375 L 24.683594 11.375 L 24.699219 11.351562 L 24.691406 11.367188 L 24.683594 11.375 L 24.675781 11.390625 L 24.675781 11.414062 Z M 25.039062 11.476562 L 25.039062 11.492188 Z M 24.691406 11.5 L 25.007812 11.320312 L 25.015625 11.335938 L 25.023438 11.34375 L 25.03125 11.367188 L 25.03125 11.359375 L 25.03125 11.367188 L 25.03125 11.359375 L 25.039062 11.390625 L 25.039062 11.460938 L 24.675781 11.390625 L 24.675781 11.398438 L 24.675781 11.390625 L 24.675781 11.453125 L 24.675781 11.445312 L 24.683594 11.476562 L 24.683594 11.46875 L 24.683594 11.476562 L 24.683594 11.46875 L 24.691406 11.492188 L 24.691406 11.5 L 24.699219 11.507812 Z M 24.691406 11.5 L 24.683594 11.492188 Z M 24.574219 10.574219 L 25.015625 11.320312 L 24.699219 11.5 L 24.257812 10.753906 Z M 24.257812 10.753906 L 24.273438 10.78125 L 24.257812 10.761719 Z M 24.257812 10.753906 "/>
<path style="fill-rule:nonzero;fill:rgb(92.941176%,41.176471%,36.078431%);fill-opacity:1;stroke-width:0.87;stroke-linecap:butt;stroke-linejoin:miter;stroke:rgb(92.941176%,41.176471%,36.078431%);stroke-opacity:1;stroke-miterlimit:22.9256;" d="M 33.987936 8.019534 L 33.987936 8.410607 C 33.987936 8.481712 34.037533 8.5325 34.111928 8.5325 L 35.217934 8.5325 C 35.29233 8.5325 35.341926 8.481712 35.341926 8.410607 L 35.341926 8.019534 C 35.341926 7.94843 35.29233 7.897642 35.217934 7.897642 L 34.111928 7.897642 C 34.037533 7.897642 33.987936 7.94843 33.987936 8.019534 Z M 33.987936 8.019534 " transform="matrix(0.787603,0,0,0.769118,0.000544132,0)"/>
<path style=" stroke:none;fill-rule:nonzero;fill:rgb(92.941176%,41.176471%,36.078431%);fill-opacity:1;" d="M 21.855469 11.269531 L 21.550781 11.269531 C 21.496094 11.269531 21.453125 11.304688 21.453125 11.359375 L 21.453125 12.214844 C 21.453125 12.265625 21.496094 12.304688 21.550781 12.304688 L 21.855469 12.304688 C 21.910156 12.304688 21.949219 12.265625 21.949219 12.214844 L 21.949219 11.359375 C 21.949219 11.304688 21.910156 11.269531 21.855469 11.269531 Z M 21.855469 11.269531 "/>
<path style=" stroke:none;fill-rule:nonzero;fill:rgb(92.941176%,41.176471%,36.078431%);fill-opacity:1;" d="M 21.855469 11.269531 L 21.550781 11.269531 C 21.496094 11.269531 21.453125 11.304688 21.453125 11.359375 L 21.453125 12.214844 C 21.453125 12.265625 21.496094 12.304688 21.550781 12.304688 L 21.855469 12.304688 C 21.910156 12.304688 21.949219 12.265625 21.949219 12.214844 L 21.949219 11.359375 C 21.949219 11.304688 21.910156 11.269531 21.855469 11.269531 Z M 21.855469 11.269531 "/>
<path style=" stroke:none;fill-rule:nonzero;fill:rgb(92.941176%,41.176471%,36.078431%);fill-opacity:1;" d="M 21.550781 11.089844 L 21.855469 11.089844 L 21.855469 11.453125 L 21.550781 11.453125 Z M 21.636719 11.359375 L 21.265625 11.359375 L 21.265625 11.296875 L 21.273438 11.28125 L 21.28125 11.269531 L 21.289062 11.253906 L 21.289062 11.246094 L 21.296875 11.230469 L 21.3125 11.207031 L 21.382812 11.136719 L 21.398438 11.128906 L 21.40625 11.121094 L 21.414062 11.121094 L 21.460938 11.097656 L 21.535156 11.097656 L 21.535156 11.460938 L 21.566406 11.460938 L 21.574219 11.453125 L 21.597656 11.453125 L 21.605469 11.445312 L 21.613281 11.429688 L 21.613281 11.421875 L 21.613281 11.429688 L 21.613281 11.390625 Z M 21.265625 12.214844 L 21.265625 11.359375 L 21.636719 11.359375 L 21.636719 12.214844 Z M 21.542969 12.128906 L 21.542969 12.492188 L 21.460938 12.492188 L 21.398438 12.460938 L 21.320312 12.382812 L 21.304688 12.351562 L 21.304688 12.34375 L 21.296875 12.335938 L 21.28125 12.304688 L 21.28125 12.246094 L 21.652344 12.246094 L 21.652344 12.207031 L 21.644531 12.199219 L 21.644531 12.191406 L 21.582031 12.191406 Z M 21.847656 12.492188 L 21.542969 12.492188 L 21.542969 12.128906 L 21.847656 12.128906 Z M 21.761719 12.222656 L 22.132812 12.222656 L 22.132812 12.296875 L 22.117188 12.328125 L 22.109375 12.335938 L 22.101562 12.351562 L 22.09375 12.359375 L 22.085938 12.375 L 22.015625 12.445312 L 21.984375 12.460938 L 21.976562 12.46875 L 21.957031 12.476562 L 21.863281 12.476562 L 21.863281 12.113281 L 21.824219 12.113281 L 21.824219 12.160156 Z M 22.132812 11.367188 L 22.132812 12.222656 L 21.761719 12.222656 L 21.761719 11.367188 Z M 21.855469 11.453125 L 21.855469 11.089844 L 21.925781 11.089844 L 21.957031 11.105469 L 21.964844 11.113281 L 21.976562 11.113281 L 22.007812 11.128906 L 22.078125 11.199219 L 22.09375 11.230469 L 22.101562 11.238281 L 22.117188 11.269531 L 22.125 11.28125 L 22.125 11.359375 L 21.753906 11.359375 L 21.753906 11.398438 L 21.777344 11.421875 L 21.816406 11.421875 Z M 21.855469 11.453125 "/>
<path style="fill-rule:nonzero;fill:rgb(92.941176%,41.176471%,36.078431%);fill-opacity:1;stroke-width:0.87;stroke-linecap:butt;stroke-linejoin:miter;stroke:rgb(92.941176%,41.176471%,36.078431%);stroke-opacity:1;stroke-miterlimit:22.9256;" d="M 27.361815 1.787762 L 27.74867 1.787762 C 27.818105 1.787762 27.867702 1.731894 27.867702 1.670948 L 27.867702 0.558676 C 27.867702 0.487571 27.818105 0.441862 27.74867 0.441862 L 27.361815 0.441862 C 27.29238 0.441862 27.237823 0.487571 27.237823 0.558676 L 27.237823 1.670948 C 27.237823 1.742052 27.29238 1.787762 27.361815 1.787762 Z M 27.361815 1.787762 " transform="matrix(0.787603,0,0,0.769118,0.000544132,0)"/>
<path style=" stroke:none;fill-rule:nonzero;fill:rgb(92.941176%,41.176471%,36.078431%);fill-opacity:1;" d="M 21.550781 1.375 L 21.855469 1.375 C 21.910156 1.375 21.949219 1.332031 21.949219 1.285156 L 21.949219 0.429688 C 21.949219 0.375 21.910156 0.339844 21.855469 0.339844 L 21.550781 0.339844 C 21.496094 0.339844 21.453125 0.375 21.453125 0.429688 L 21.453125 1.285156 C 21.453125 1.339844 21.496094 1.375 21.550781 1.375 Z M 21.550781 1.375 "/>
<path style=" stroke:none;fill-rule:nonzero;fill:rgb(92.941176%,41.176471%,36.078431%);fill-opacity:1;" d="M 21.855469 1.554688 L 21.550781 1.554688 L 21.550781 1.191406 L 21.855469 1.191406 Z M 21.769531 1.285156 L 22.140625 1.285156 L 22.140625 1.367188 L 22.125 1.398438 L 22.117188 1.40625 L 22.109375 1.421875 L 22.03125 1.5 L 22 1.515625 L 21.992188 1.523438 L 21.976562 1.53125 L 21.878906 1.53125 L 21.878906 1.167969 L 21.839844 1.167969 L 21.839844 1.207031 Z M 22.140625 0.429688 L 22.140625 1.285156 L 21.769531 1.285156 L 21.769531 0.429688 Z M 21.863281 0.515625 L 21.863281 0.152344 L 21.933594 0.152344 L 21.964844 0.167969 L 21.976562 0.175781 L 21.984375 0.175781 L 22.015625 0.191406 L 22.09375 0.269531 L 22.125 0.332031 L 22.125 0.40625 L 21.753906 0.40625 L 21.753906 0.46875 L 21.761719 0.476562 L 21.785156 0.476562 L 21.777344 0.476562 L 21.792969 0.476562 Z M 21.558594 0.152344 L 21.863281 0.152344 L 21.863281 0.515625 L 21.558594 0.515625 Z M 21.644531 0.421875 L 21.273438 0.421875 L 21.273438 0.355469 L 21.296875 0.308594 L 21.296875 0.300781 L 21.304688 0.292969 L 21.3125 0.277344 L 21.375 0.214844 L 21.390625 0.207031 L 21.398438 0.199219 L 21.40625 0.199219 L 21.453125 0.175781 L 21.527344 0.175781 L 21.527344 0.539062 L 21.542969 0.539062 L 21.535156 0.539062 L 21.550781 0.539062 L 21.558594 0.53125 L 21.582031 0.53125 L 21.582031 0.507812 L 21.589844 0.5 L 21.589844 0.484375 L 21.589844 0.492188 L 21.589844 0.476562 Z M 21.273438 1.277344 L 21.273438 0.421875 L 21.644531 0.421875 L 21.644531 1.277344 Z M 21.550781 1.191406 L 21.550781 1.554688 L 21.46875 1.554688 L 21.40625 1.523438 L 21.328125 1.445312 L 21.3125 1.414062 L 21.3125 1.40625 L 21.296875 1.375 L 21.289062 1.363281 L 21.289062 1.292969 L 21.660156 1.292969 L 21.660156 1.277344 L 21.660156 1.285156 L 21.660156 1.261719 L 21.660156 1.269531 L 21.660156 1.261719 L 21.652344 1.253906 L 21.589844 1.253906 Z M 21.550781 1.191406 "/>
<path style="fill-rule:nonzero;fill:rgb(92.941176%,41.176471%,36.078431%);fill-opacity:1;stroke-width:0.87;stroke-linecap:butt;stroke-linejoin:miter;stroke:rgb(92.941176%,41.176471%,36.078431%);stroke-opacity:1;stroke-miterlimit:22.9256;" d="M 30.580642 2.392147 L 30.9179 2.580066 C 30.947658 2.600381 30.992295 2.590223 31.002214 2.55975 L 31.557697 1.599844 C 31.577536 1.569371 31.567616 1.52874 31.537858 1.518582 L 31.200601 1.330664 C 31.190681 1.320506 31.180762 1.320506 31.170843 1.320506 C 31.160923 1.320506 31.160923 1.320506 31.151004 1.320506 C 31.131165 1.320506 31.121246 1.330664 31.111327 1.350979 L 30.550884 2.310885 C 30.540965 2.321043 30.540965 2.341359 30.550884 2.361674 C 30.550884 2.38199 30.560803 2.392147 30.580642 2.402305 Z M 30.580642 2.392147 " transform="matrix(0.787603,0,0,0.769118,0.000544132,0)"/>
<path style=" stroke:none;fill-rule:nonzero;fill:rgb(92.941176%,41.176471%,36.078431%);fill-opacity:1;" d="M 24.085938 1.839844 L 24.351562 1.984375 C 24.375 2 24.410156 1.992188 24.417969 1.96875 L 24.855469 1.230469 C 24.871094 1.207031 24.863281 1.175781 24.839844 1.167969 L 24.574219 1.023438 C 24.566406 1.015625 24.558594 1.015625 24.550781 1.015625 C 24.542969 1.015625 24.542969 1.015625 24.535156 1.015625 C 24.519531 1.015625 24.511719 1.023438 24.503906 1.039062 L 24.0625 1.777344 C 24.054688 1.785156 24.054688 1.800781 24.0625 1.816406 C 24.0625 1.832031 24.070312 1.839844 24.085938 1.847656 Z M 24.085938 1.839844 "/>
<path style=" stroke:none;fill-rule:nonzero;fill:rgb(92.941176%,41.176471%,36.078431%);fill-opacity:1;" d="M 24.257812 2.144531 L 23.992188 2 L 24.171875 1.691406 L 24.441406 1.839844 Z M 24.257812 2.144531 L 24.28125 2.152344 L 24.265625 2.144531 Z M 24.257812 1.882812 L 24.574219 2.0625 L 24.566406 2.078125 L 24.542969 2.101562 L 24.535156 2.105469 L 24.519531 2.121094 L 24.441406 2.160156 L 24.410156 2.167969 L 24.34375 2.167969 L 24.28125 2.136719 L 24.464844 1.824219 L 24.457031 1.816406 L 24.449219 1.816406 L 24.433594 1.808594 L 24.441406 1.808594 L 24.351562 1.808594 L 24.335938 1.816406 L 24.320312 1.832031 L 24.304688 1.839844 L 24.296875 1.839844 L 24.28125 1.855469 L 24.273438 1.859375 L 24.257812 1.890625 Z M 25.015625 1.324219 L 24.574219 2.0625 L 24.257812 1.882812 L 24.699219 1.144531 Z M 24.699219 1.144531 L 24.660156 1.207031 Z M 24.746094 1.332031 L 24.929688 1.023438 L 24.9375 1.023438 L 24.953125 1.03125 L 25.007812 1.085938 L 25.015625 1.101562 L 25.023438 1.109375 L 25.03125 1.121094 L 25.03125 1.128906 L 25.039062 1.144531 L 25.039062 1.246094 L 25.03125 1.261719 L 25.03125 1.269531 L 25.015625 1.300781 L 25.007812 1.308594 L 24.691406 1.128906 L 24.683594 1.136719 L 24.675781 1.152344 L 24.675781 1.222656 L 24.683594 1.238281 L 24.683594 1.246094 L 24.691406 1.261719 L 24.707031 1.277344 L 24.707031 1.285156 L 24.738281 1.316406 L 24.746094 1.316406 L 24.761719 1.324219 Z M 24.746094 1.332031 L 24.738281 1.332031 Z M 24.660156 0.867188 L 24.929688 1.015625 L 24.746094 1.324219 L 24.480469 1.175781 L 24.472656 1.167969 L 24.667969 0.867188 Z M 24.480469 1.175781 L 24.472656 1.167969 Z M 24.550781 1.191406 L 24.550781 0.832031 L 24.597656 0.839844 L 24.550781 0.832031 L 24.597656 0.839844 L 24.589844 0.839844 L 24.597656 0.839844 L 24.636719 0.855469 L 24.597656 0.839844 L 24.589844 0.839844 L 24.621094 0.847656 L 24.636719 0.855469 L 24.667969 0.867188 L 24.652344 0.863281 L 24.628906 0.847656 L 24.644531 0.855469 L 24.675781 0.867188 L 24.667969 0.863281 L 24.464844 1.152344 L 24.457031 1.144531 L 24.480469 1.160156 L 24.496094 1.167969 L 24.472656 1.152344 L 24.457031 1.144531 L 24.480469 1.160156 L 24.496094 1.167969 L 24.527344 1.175781 L 24.519531 1.175781 L 24.480469 1.160156 L 24.519531 1.175781 L 24.527344 1.175781 L 24.519531 1.175781 L 24.566406 1.183594 L 24.519531 1.175781 L 24.566406 1.183594 Z M 24.574219 1.191406 L 24.496094 0.839844 L 24.464844 0.847656 L 24.449219 0.855469 L 24.527344 0.839844 L 24.449219 0.855469 L 24.527344 0.839844 L 24.449219 0.855469 L 24.527344 0.839844 L 24.449219 0.855469 L 24.527344 0.839844 L 24.449219 0.855469 L 24.527344 0.839844 L 24.472656 0.847656 L 24.449219 0.855469 L 24.527344 0.839844 L 24.449219 0.855469 L 24.472656 0.847656 L 24.527344 0.839844 L 24.527344 1.199219 L 24.582031 1.191406 L 24.605469 1.183594 L 24.527344 1.199219 L 24.605469 1.183594 L 24.582031 1.191406 L 24.527344 1.199219 L 24.605469 1.183594 L 24.527344 1.199219 L 24.605469 1.183594 L 24.527344 1.199219 L 24.605469 1.183594 L 24.527344 1.199219 L 24.605469 1.183594 L 24.527344 1.199219 L 24.605469 1.183594 L 24.589844 1.191406 L 24.558594 1.199219 Z M 24.605469 1.183594 L 24.589844 1.191406 L 24.574219 1.191406 Z M 24.667969 1.128906 L 24.351562 0.953125 L 24.359375 0.9375 L 24.351562 0.953125 L 24.375 0.921875 L 24.394531 0.90625 L 24.382812 0.914062 L 24.375 0.929688 L 24.382812 0.914062 L 24.402344 0.898438 L 24.417969 0.882812 L 24.433594 0.875 L 24.410156 0.898438 L 24.441406 0.867188 L 24.464844 0.855469 L 24.449219 0.863281 L 24.472656 0.847656 L 24.503906 0.832031 L 24.496094 0.832031 L 24.511719 0.832031 L 24.589844 1.183594 L 24.605469 1.183594 L 24.597656 1.183594 L 24.644531 1.160156 L 24.621094 1.175781 L 24.652344 1.160156 L 24.660156 1.152344 L 24.644531 1.167969 L 24.628906 1.175781 L 24.675781 1.128906 L 24.644531 1.160156 L 24.660156 1.144531 L 24.683594 1.113281 L 24.667969 1.136719 L 24.675781 1.128906 Z M 24.667969 1.128906 L 24.683594 1.109375 Z M 23.914062 1.691406 L 24.351562 0.953125 L 24.667969 1.128906 L 24.226562 1.867188 L 23.914062 1.683594 Z M 24.226562 1.867188 L 24.21875 1.875 L 24.226562 1.859375 Z M 24.242188 1.785156 L 23.878906 1.847656 L 23.886719 1.867188 L 23.886719 1.859375 L 23.878906 1.839844 L 23.878906 1.769531 L 23.886719 1.738281 L 23.886719 1.746094 L 23.886719 1.738281 L 23.894531 1.714844 L 23.902344 1.699219 L 24.21875 1.882812 L 24.226562 1.875 L 24.234375 1.855469 L 24.234375 1.847656 L 24.234375 1.855469 L 24.242188 1.832031 L 24.242188 1.839844 L 24.242188 1.785156 L 24.242188 1.792969 L 24.234375 1.769531 L 24.234375 1.761719 Z M 24.234375 1.761719 L 24.242188 1.777344 L 24.242188 1.785156 Z M 24.171875 1.691406 L 23.992188 2 L 23.976562 1.992188 L 23.992188 2 L 23.96875 1.984375 L 23.9375 1.960938 L 23.960938 1.984375 L 23.945312 1.976562 L 23.914062 1.945312 L 23.929688 1.960938 L 23.902344 1.929688 L 23.914062 1.9375 L 23.894531 1.914062 L 23.886719 1.898438 L 23.894531 1.914062 L 23.878906 1.890625 L 23.863281 1.859375 L 23.871094 1.882812 L 23.871094 1.890625 L 23.863281 1.867188 L 23.855469 1.839844 L 23.855469 1.847656 L 24.21875 1.785156 L 24.21875 1.792969 L 24.210938 1.761719 L 24.203125 1.738281 L 24.210938 1.746094 L 24.21875 1.769531 L 24.195312 1.722656 L 24.210938 1.746094 L 24.1875 1.722656 L 24.195312 1.738281 L 24.171875 1.714844 L 24.1875 1.730469 L 24.148438 1.691406 L 24.179688 1.714844 L 24.15625 1.691406 L 24.140625 1.683594 L 24.164062 1.699219 L 24.15625 1.691406 Z M 24.171875 1.691406 L 24.15625 1.683594 L 24.164062 1.691406 Z M 24.171875 1.691406 "/>
<path style="fill-rule:nonzero;fill:rgb(92.941176%,41.176471%,36.078431%);fill-opacity:1;stroke-width:0.87;stroke-linecap:butt;stroke-linejoin:miter;stroke:rgb(92.941176%,41.176471%,36.078431%);stroke-opacity:1;stroke-miterlimit:22.9256;" d="M 27.560202 4.149436 C 25.308511 4.149436 23.488312 5.977829 23.488312 8.21761 C 23.488312 10.467549 25.318431 12.290863 27.560202 12.290863 C 29.811893 12.290863 31.642012 10.462471 31.642012 8.21761 C 31.642012 5.967671 29.811893 4.149436 27.560202 4.149436 Z M 27.560202 12.869854 C 25.001012 12.869854 22.908031 10.782439 22.908031 8.21761 C 22.908031 5.65786 25.001012 3.570445 27.560202 3.570445 C 30.129312 3.570445 32.212374 5.65786 32.212374 8.21761 C 32.212374 10.787518 30.119392 12.869854 27.560202 12.869854 Z M 27.560202 12.869854 " transform="matrix(0.787603,0,0,0.769118,0.000544132,0)"/>
<path style=" stroke:none;fill-rule:nonzero;fill:rgb(92.941176%,41.176471%,36.078431%);fill-opacity:1;" d="M 21.707031 3.191406 C 19.933594 3.191406 18.5 4.597656 18.5 6.320312 C 18.5 8.050781 19.941406 9.453125 21.707031 9.453125 C 23.480469 9.453125 24.921875 8.046875 24.921875 6.320312 C 24.921875 4.589844 23.480469 3.191406 21.707031 3.191406 Z M 21.707031 9.898438 C 19.691406 9.898438 18.042969 8.292969 18.042969 6.320312 C 18.042969 4.351562 19.691406 2.746094 21.707031 2.746094 C 23.730469 2.746094 25.371094 4.351562 25.371094 6.320312 C 25.371094 8.296875 23.722656 9.898438 21.707031 9.898438 Z M 21.707031 9.898438 "/>
<path style=" stroke:none;fill-rule:nonzero;fill:rgb(92.941176%,41.176471%,36.078431%);fill-opacity:1;" d="M 18.683594 6.320312 L 18.3125 6.320312 L 18.320312 6.152344 L 18.335938 5.984375 L 18.359375 5.816406 L 18.390625 5.652344 L 18.429688 5.492188 L 18.476562 5.335938 L 18.53125 5.183594 L 18.597656 5.03125 L 18.667969 4.882812 L 18.746094 4.738281 L 18.824219 4.597656 L 18.910156 4.460938 L 19.003906 4.332031 L 19.109375 4.207031 L 19.21875 4.085938 L 19.328125 3.96875 L 19.445312 3.859375 L 19.574219 3.753906 L 19.699219 3.652344 L 19.832031 3.5625 L 19.972656 3.476562 L 20.117188 3.398438 L 20.265625 3.324219 L 20.414062 3.253906 L 20.574219 3.191406 L 20.730469 3.136719 L 20.886719 3.09375 L 21.054688 3.054688 L 21.21875 3.023438 L 21.390625 3 L 21.566406 2.984375 L 21.738281 2.976562 L 21.738281 3.339844 L 21.582031 3.34375 L 21.429688 3.351562 L 21.28125 3.367188 L 21.132812 3.390625 L 20.980469 3.421875 L 20.839844 3.460938 L 20.699219 3.507812 L 20.566406 3.5625 L 20.429688 3.621094 L 20.296875 3.683594 L 20.171875 3.753906 L 20.046875 3.832031 L 19.925781 3.914062 L 19.808594 4 L 19.699219 4.089844 L 19.597656 4.191406 L 19.492188 4.292969 L 19.398438 4.398438 L 19.3125 4.515625 L 19.226562 4.628906 L 19.148438 4.753906 L 19.078125 4.875 L 19.011719 5.007812 L 18.949219 5.136719 L 18.894531 5.269531 L 18.847656 5.40625 L 18.808594 5.546875 L 18.777344 5.691406 L 18.753906 5.835938 L 18.738281 5.984375 L 18.722656 6.136719 L 18.714844 6.292969 Z M 21.707031 9.277344 L 21.707031 9.636719 L 21.535156 9.628906 L 21.359375 9.613281 L 21.1875 9.589844 L 21.023438 9.558594 L 20.855469 9.523438 L 20.699219 9.476562 L 20.542969 9.421875 L 20.382812 9.359375 L 20.234375 9.289062 L 20.085938 9.214844 L 19.941406 9.136719 L 19.800781 9.050781 L 19.667969 8.960938 L 19.539062 8.859375 L 19.414062 8.753906 L 19.296875 8.644531 L 19.1875 8.53125 L 19.078125 8.40625 L 18.972656 8.285156 L 18.878906 8.152344 L 18.792969 8.015625 L 18.714844 7.875 L 18.636719 7.730469 L 18.5625 7.582031 L 18.5 7.429688 L 18.445312 7.277344 L 18.398438 7.121094 L 18.359375 6.960938 L 18.328125 6.800781 L 18.304688 6.628906 L 18.289062 6.460938 L 18.28125 6.292969 L 18.652344 6.292969 L 18.660156 6.445312 L 18.675781 6.597656 L 18.691406 6.746094 L 18.714844 6.890625 L 18.746094 7.039062 L 18.785156 7.175781 L 18.832031 7.3125 L 18.886719 7.445312 L 18.949219 7.574219 L 19.011719 7.707031 L 19.085938 7.828125 L 19.164062 7.953125 L 19.25 8.066406 L 19.335938 8.183594 L 19.429688 8.292969 L 19.53125 8.390625 L 19.636719 8.492188 L 19.746094 8.582031 L 19.980469 8.753906 L 20.109375 8.828125 L 20.234375 8.898438 L 20.5 9.023438 L 20.636719 9.074219 L 20.777344 9.121094 L 20.917969 9.160156 L 21.070312 9.191406 L 21.21875 9.214844 L 21.367188 9.230469 L 21.519531 9.238281 L 21.675781 9.246094 Z M 24.730469 6.320312 L 25.101562 6.320312 L 25.09375 6.492188 L 25.078125 6.660156 L 25.054688 6.828125 L 25.023438 6.992188 L 24.984375 7.152344 L 24.9375 7.304688 L 24.882812 7.460938 L 24.816406 7.613281 L 24.746094 7.761719 L 24.667969 7.90625 L 24.589844 8.046875 L 24.503906 8.183594 L 24.410156 8.3125 L 24.304688 8.4375 L 24.195312 8.558594 L 24.085938 8.675781 L 23.96875 8.785156 L 23.839844 8.890625 L 23.714844 8.992188 L 23.582031 9.082031 L 23.441406 9.167969 L 23.296875 9.246094 L 23.148438 9.320312 L 23 9.390625 L 22.839844 9.453125 L 22.683594 9.507812 L 22.527344 9.550781 L 22.359375 9.589844 L 22.195312 9.621094 L 22.023438 9.644531 L 21.847656 9.660156 L 21.675781 9.667969 L 21.675781 9.304688 L 21.832031 9.296875 L 21.992188 9.289062 L 22.140625 9.277344 L 22.289062 9.253906 L 22.4375 9.222656 L 22.582031 9.183594 L 22.722656 9.136719 L 22.855469 9.082031 L 22.992188 9.023438 L 23.125 8.960938 L 23.25 8.890625 L 23.375 8.8125 L 23.496094 8.730469 L 23.613281 8.644531 L 23.722656 8.550781 L 23.824219 8.453125 L 23.929688 8.351562 L 24.023438 8.246094 L 24.109375 8.128906 L 24.195312 8.015625 L 24.273438 7.890625 L 24.34375 7.769531 L 24.410156 7.636719 L 24.472656 7.507812 L 24.527344 7.375 L 24.574219 7.238281 L 24.613281 7.097656 L 24.644531 6.953125 L 24.667969 6.808594 L 24.683594 6.660156 L 24.691406 6.507812 L 24.699219 6.351562 Z M 21.707031 3.367188 L 21.707031 3.007812 L 21.878906 3.015625 L 22.054688 3.03125 L 22.226562 3.054688 L 22.390625 3.085938 L 22.558594 3.121094 L 22.714844 3.167969 L 22.871094 3.222656 L 23.03125 3.285156 L 23.179688 3.351562 L 23.328125 3.429688 L 23.472656 3.507812 L 23.613281 3.589844 L 23.746094 3.683594 L 23.871094 3.785156 L 24 3.890625 L 24.117188 4 L 24.226562 4.113281 L 24.335938 4.238281 L 24.441406 4.359375 L 24.535156 4.492188 L 24.621094 4.628906 L 24.699219 4.769531 L 24.777344 4.914062 L 24.847656 5.0625 L 24.914062 5.214844 L 24.96875 5.367188 L 25.015625 5.523438 L 25.054688 5.683594 L 25.085938 5.84375 L 25.109375 6.015625 L 25.125 6.183594 L 25.132812 6.351562 L 24.761719 6.351562 L 24.746094 6.046875 L 24.730469 5.898438 L 24.707031 5.753906 L 24.675781 5.605469 L 24.636719 5.46875 L 24.589844 5.328125 L 24.535156 5.199219 L 24.472656 5.070312 L 24.410156 4.9375 L 24.335938 4.816406 L 24.257812 4.691406 L 24.171875 4.578125 L 24.085938 4.460938 L 23.992188 4.351562 L 23.886719 4.253906 L 23.785156 4.152344 L 23.675781 4.0625 L 23.441406 3.890625 L 23.3125 3.816406 L 23.1875 3.746094 L 23.054688 3.683594 L 22.917969 3.621094 L 22.785156 3.570312 L 22.644531 3.523438 L 22.503906 3.484375 L 22.351562 3.453125 L 22.203125 3.429688 L 22.054688 3.414062 L 21.894531 3.40625 L 21.738281 3.398438 Z M 17.863281 6.320312 L 18.234375 6.320312 L 18.242188 6.5 L 18.257812 6.667969 L 18.28125 6.835938 L 18.3125 7.007812 L 18.351562 7.167969 L 18.398438 7.328125 L 18.453125 7.492188 L 18.515625 7.644531 L 18.589844 7.800781 L 18.667969 7.945312 L 18.753906 8.082031 L 18.847656 8.222656 L 18.941406 8.351562 L 19.042969 8.484375 L 19.15625 8.605469 L 19.273438 8.722656 L 19.390625 8.835938 L 19.515625 8.945312 L 19.652344 9.042969 L 19.785156 9.136719 L 19.925781 9.230469 L 20.070312 9.3125 L 20.21875 9.390625 L 20.375 9.460938 L 20.535156 9.523438 L 20.699219 9.574219 L 20.863281 9.621094 L 21.03125 9.660156 L 21.203125 9.691406 L 21.375 9.714844 L 21.550781 9.730469 L 21.730469 9.738281 L 21.730469 10.097656 L 21.535156 10.089844 L 21.335938 10.074219 L 21.148438 10.050781 L 20.957031 10.023438 L 20.769531 9.984375 L 20.589844 9.929688 L 20.40625 9.867188 L 20.234375 9.796875 L 20.0625 9.722656 L 19.894531 9.636719 L 19.738281 9.542969 L 19.582031 9.445312 L 19.429688 9.335938 L 19.289062 9.230469 L 19.148438 9.113281 L 19.011719 8.992188 L 18.886719 8.859375 L 18.769531 8.722656 L 18.660156 8.582031 L 18.546875 8.4375 L 18.445312 8.285156 L 18.351562 8.128906 L 18.265625 7.96875 L 18.1875 7.800781 L 18.117188 7.628906 L 18.050781 7.453125 L 17.996094 7.277344 L 17.949219 7.089844 L 17.917969 6.90625 L 17.894531 6.722656 L 17.878906 6.53125 L 17.871094 6.335938 Z M 21.707031 2.570312 L 21.707031 2.929688 L 21.527344 2.9375 L 21.351562 2.953125 L 21.179688 2.976562 L 21.007812 3.007812 L 20.839844 3.046875 L 20.675781 3.09375 L 20.507812 3.144531 L 20.351562 3.207031 L 20.195312 3.277344 L 20.046875 3.351562 L 19.902344 3.4375 L 19.761719 3.53125 L 19.628906 3.621094 L 19.492188 3.722656 L 19.367188 3.832031 L 19.25 3.945312 L 19.132812 4.0625 L 19.019531 4.183594 L 18.917969 4.316406 L 18.824219 4.445312 L 18.730469 4.582031 L 18.644531 4.730469 L 18.5625 4.875 L 18.492188 5.03125 L 18.429688 5.183594 L 18.375 5.34375 L 18.328125 5.507812 L 18.289062 5.667969 L 18.257812 5.835938 L 18.234375 6.007812 L 18.21875 6.175781 L 18.210938 6.351562 L 17.839844 6.351562 L 17.847656 6.160156 L 17.863281 5.96875 L 17.886719 5.785156 L 17.917969 5.597656 L 17.957031 5.414062 L 18.011719 5.238281 L 18.074219 5.0625 L 18.148438 4.890625 L 18.226562 4.722656 L 18.3125 4.5625 L 18.40625 4.398438 L 18.507812 4.246094 L 18.621094 4.097656 L 18.738281 3.953125 L 18.855469 3.816406 L 18.980469 3.683594 L 19.117188 3.5625 L 19.257812 3.445312 L 19.398438 3.339844 L 19.550781 3.230469 L 19.707031 3.128906 L 19.863281 3.039062 L 20.027344 2.953125 L 20.203125 2.875 L 20.375 2.808594 L 20.558594 2.746094 L 20.738281 2.691406 L 20.925781 2.652344 L 21.117188 2.621094 L 21.304688 2.601562 L 21.503906 2.585938 L 21.699219 2.578125 Z M 25.550781 6.320312 L 25.179688 6.320312 L 25.171875 6.144531 L 25.15625 5.976562 L 25.132812 5.808594 L 25.101562 5.636719 L 25.0625 5.476562 L 25.015625 5.316406 L 24.960938 5.152344 L 24.898438 5 L 24.824219 4.84375 L 24.746094 4.699219 L 24.660156 4.554688 L 24.566406 4.414062 L 24.472656 4.285156 L 24.367188 4.152344 L 24.257812 4.03125 L 24.140625 3.914062 L 24.023438 3.800781 L 23.894531 3.691406 L 23.761719 3.589844 L 23.628906 3.5 L 23.488281 3.40625 L 23.335938 3.324219 L 23.1875 3.246094 L 23.03125 3.175781 L 22.871094 3.113281 L 22.707031 3.0625 L 22.542969 3.015625 L 22.375 2.976562 L 22.203125 2.945312 L 22.03125 2.921875 L 21.855469 2.90625 L 21.675781 2.898438 L 21.675781 2.539062 L 21.871094 2.546875 L 22.070312 2.5625 L 22.257812 2.585938 L 22.445312 2.613281 L 22.636719 2.660156 L 22.816406 2.714844 L 23 2.777344 L 23.171875 2.847656 L 23.34375 2.921875 L 23.511719 3.007812 L 23.675781 3.097656 L 23.832031 3.199219 L 23.984375 3.308594 L 24.125 3.421875 L 24.265625 3.539062 L 24.402344 3.660156 L 24.527344 3.792969 L 24.644531 3.929688 L 24.761719 4.070312 L 24.871094 4.214844 L 24.976562 4.367188 L 25.070312 4.53125 L 25.15625 4.691406 L 25.234375 4.859375 L 25.304688 5.03125 L 25.371094 5.207031 L 25.425781 5.382812 L 25.464844 5.570312 L 25.496094 5.753906 L 25.519531 5.9375 L 25.535156 6.128906 L 25.542969 6.320312 Z M 21.707031 10.074219 L 21.707031 9.714844 L 21.886719 9.707031 L 22.0625 9.691406 L 22.234375 9.667969 L 22.40625 9.636719 L 22.574219 9.597656 L 22.738281 9.550781 L 22.902344 9.5 L 23.0625 9.4375 L 23.21875 9.367188 L 23.367188 9.289062 L 23.519531 9.207031 L 23.660156 9.113281 L 23.792969 9.023438 L 23.929688 8.921875 L 24.054688 8.8125 L 24.171875 8.699219 L 24.289062 8.582031 L 24.402344 8.460938 L 24.503906 8.328125 L 24.597656 8.199219 L 24.691406 8.058594 L 24.777344 7.921875 L 24.855469 7.777344 L 24.929688 7.621094 L 24.992188 7.46875 L 25.046875 7.304688 L 25.09375 7.144531 L 25.132812 6.984375 L 25.164062 6.8125 L 25.1875 6.644531 L 25.203125 6.476562 L 25.210938 6.300781 L 25.582031 6.300781 L 25.574219 6.492188 L 25.558594 6.683594 L 25.535156 6.867188 L 25.503906 7.054688 L 25.457031 7.238281 L 25.402344 7.414062 L 25.335938 7.589844 L 25.265625 7.761719 L 25.1875 7.929688 L 25.101562 8.089844 L 25.007812 8.246094 L 24.90625 8.398438 L 24.792969 8.542969 L 24.675781 8.683594 L 24.558594 8.820312 L 24.433594 8.953125 L 24.296875 9.074219 L 24.15625 9.191406 L 24.015625 9.304688 L 23.863281 9.414062 L 23.707031 9.515625 L 23.542969 9.605469 L 23.375 9.691406 L 23.203125 9.769531 L 23.03125 9.835938 L 22.847656 9.898438 L 22.667969 9.953125 L 22.480469 10 L 22.289062 10.03125 L 22.101562 10.050781 L 21.902344 10.066406 Z M 21.707031 10.074219 "/>
</g>
</svg>
