<?xml version="1.0" encoding="UTF-8"?>
<svg xmlns="http://www.w3.org/2000/svg" xmlns:xlink="http://www.w3.org/1999/xlink" width="28px" height="28px" viewBox="0 0 28 28" version="1.1">
<g id="surface1">
<path style=" stroke:none;fill-rule:nonzero;fill:rgb(92.941176%,41.176471%,36.078431%);fill-opacity:1;" d="M 5.707031 16.65625 C 5.84375 16.566406 5.925781 16.417969 5.925781 16.261719 L 5.925781 3.707031 C 5.925781 2.171875 7.203125 0.925781 8.777344 0.925781 C 10.351562 0.925781 11.625 2.171875 11.625 3.707031 L 11.625 16.261719 C 11.625 16.417969 11.710938 16.566406 11.84375 16.648438 C 13.976562 17.980469 14.960938 20.53125 14.25 22.902344 C 13.539062 25.277344 11.3125 26.90625 8.777344 26.90625 C 6.242188 26.90625 4.015625 25.277344 3.300781 22.902344 C 2.59375 20.53125 3.574219 17.980469 5.707031 16.648438 Z M 2.183594 22.21875 C 2.597656 25.164062 5 27.460938 8.027344 27.792969 C 11.058594 28.125 13.925781 26.410156 14.996094 23.632812 C 16.066406 20.851562 15.078125 17.710938 12.578125 16.011719 L 12.578125 3.707031 C 12.578125 1.660156 10.871094 -0.00390625 8.777344 -0.00390625 C 6.679688 -0.00390625 4.976562 1.660156 4.976562 3.707031 L 4.976562 16.011719 C 2.921875 17.402344 1.839844 19.796875 2.183594 22.21875 Z M 2.183594 22.21875 "/>
<path style=" stroke:none;fill-rule:nonzero;fill:rgb(92.941176%,41.176471%,36.078431%);fill-opacity:1;" d="M 7.945312 18.199219 C 8.152344 18.148438 8.300781 17.960938 8.300781 17.75 L 8.300781 3.710938 C 8.300781 3.457031 8.515625 3.25 8.777344 3.25 C 9.039062 3.25 9.25 3.457031 9.25 3.710938 L 9.25 17.75 C 9.25 17.960938 9.398438 18.144531 9.609375 18.199219 C 10.820312 18.507812 11.757812 19.445312 12.019531 20.640625 C 12.292969 21.832031 11.855469 23.074219 10.886719 23.847656 C 10.109375 24.46875 9.085938 24.714844 8.101562 24.519531 C 6.59375 24.214844 5.488281 22.929688 5.453125 21.421875 C 5.414062 19.910156 6.441406 18.578125 7.945312 18.199219 Z M 7.917969 25.433594 C 8.199219 25.492188 8.484375 25.515625 8.765625 25.515625 C 10.851562 25.519531 12.632812 24.0625 12.988281 22.054688 C 13.34375 20.046875 12.164062 18.082031 10.199219 17.410156 L 10.199219 3.71875 C 10.199219 2.945312 9.5625 2.324219 8.769531 2.324219 C 7.980469 2.324219 7.34375 2.945312 7.34375 3.71875 L 7.34375 17.410156 C 5.535156 18.035156 4.375 19.765625 4.503906 21.636719 C 4.640625 23.503906 6.03125 25.0625 7.914062 25.441406 Z M 7.917969 25.433594 "/>
<path style=" stroke:none;fill-rule:nonzero;fill:rgb(92.941176%,41.176471%,36.078431%);fill-opacity:1;" d="M 8.285156 23.613281 C 8.316406 23.617188 8.347656 23.621094 8.371094 23.621094 C 8.621094 23.621094 8.824219 23.4375 8.84375 23.203125 C 8.867188 22.960938 8.703125 22.75 8.460938 22.703125 C 7.914062 22.582031 7.484375 22.15625 7.375 21.617188 C 7.328125 21.371094 7.082031 21.203125 6.828125 21.25 C 6.570312 21.296875 6.398438 21.53125 6.441406 21.777344 C 6.617188 22.695312 7.34375 23.421875 8.28125 23.617188 Z M 8.285156 23.613281 "/>
<path style=" stroke:none;fill-rule:nonzero;fill:rgb(92.941176%,41.176471%,36.078431%);fill-opacity:1;" d="M 21.066406 5.128906 L 22.253906 3.96875 L 22.742188 5.128906 Z M 22.253906 6.699219 L 21.066406 5.539062 L 22.742188 5.539062 Z M 20.769531 7.46875 L 20.769531 5.828125 L 21.953125 6.988281 Z M 20.769531 3.191406 L 21.953125 3.671875 L 20.769531 4.828125 Z M 19.132812 6.960938 L 20.320312 5.800781 L 20.320312 7.4375 Z M 18.34375 5.507812 L 20.023438 5.507812 L 18.835938 6.667969 Z M 18.835938 3.9375 L 20.023438 5.09375 L 18.34375 5.09375 Z M 20.320312 3.160156 L 20.320312 4.800781 L 19.132812 3.640625 Z M 25.664062 5.128906 L 25.03125 5.128906 L 25.449219 4.582031 C 25.472656 4.550781 25.46875 4.496094 25.429688 4.472656 L 25.222656 4.320312 C 25.207031 4.304688 25.1875 4.296875 25.160156 4.304688 C 25.140625 4.308594 25.121094 4.320312 25.105469 4.335938 L 24.496094 5.128906 L 23.210938 5.128906 L 22.75 4.039062 L 22.585938 3.652344 L 22.75 3.488281 L 23.492188 2.765625 L 24.496094 2.898438 C 24.542969 2.90625 24.578125 2.875 24.589844 2.832031 L 24.625 2.578125 C 24.632812 2.558594 24.621094 2.539062 24.613281 2.523438 C 24.597656 2.507812 24.578125 2.496094 24.558594 2.492188 L 23.875 2.394531 L 24.324219 1.957031 C 24.355469 1.925781 24.355469 1.875 24.324219 1.84375 L 24.136719 1.660156 C 24.105469 1.628906 24.050781 1.628906 24.019531 1.660156 L 23.570312 2.097656 L 23.476562 1.433594 C 23.472656 1.410156 23.460938 1.390625 23.445312 1.378906 C 23.429688 1.367188 23.410156 1.367188 23.382812 1.367188 L 23.121094 1.398438 C 23.074219 1.40625 23.046875 1.445312 23.054688 1.492188 L 23.195312 2.472656 L 22.75 2.90625 L 22.285156 3.359375 L 20.773438 2.746094 L 20.773438 2.019531 L 20.75 2.019531 L 20.75 1.453125 L 21.558594 0.859375 C 21.59375 0.832031 21.601562 0.78125 21.574219 0.746094 L 21.417969 0.542969 C 21.40625 0.527344 21.382812 0.515625 21.363281 0.511719 C 21.34375 0.507812 21.320312 0.511719 21.308594 0.527344 L 20.753906 0.933594 L 20.753906 0.292969 C 20.753906 0.246094 20.714844 0.207031 20.667969 0.207031 L 20.40625 0.207031 C 20.367188 0.207031 20.324219 0.246094 20.324219 0.292969 L 20.324219 0.933594 L 19.769531 0.527344 C 19.753906 0.511719 19.734375 0.511719 19.707031 0.511719 C 19.6875 0.515625 19.664062 0.527344 19.65625 0.542969 L 19.5 0.746094 C 19.472656 0.78125 19.480469 0.832031 19.515625 0.859375 L 20.324219 1.453125 L 20.324219 2.710938 L 18.8125 3.324219 L 18.347656 2.871094 L 17.90625 2.4375 L 18.042969 1.453125 C 18.050781 1.410156 18.019531 1.375 17.976562 1.367188 L 17.714844 1.328125 C 17.695312 1.324219 17.671875 1.328125 17.652344 1.34375 C 17.636719 1.359375 17.625 1.375 17.621094 1.394531 L 17.527344 2.066406 L 17.078125 1.625 C 17.046875 1.59375 16.992188 1.59375 16.964844 1.625 L 16.773438 1.808594 C 16.746094 1.839844 16.746094 1.890625 16.773438 1.917969 L 17.226562 2.359375 L 16.539062 2.457031 C 16.519531 2.460938 16.5 2.472656 16.484375 2.484375 C 16.476562 2.503906 16.472656 2.523438 16.472656 2.546875 L 16.507812 2.804688 C 16.511719 2.84375 16.554688 2.875 16.601562 2.871094 L 17.605469 2.730469 L 18.347656 3.464844 L 18.515625 3.625 L 18.347656 4.015625 L 17.886719 5.109375 L 16.601562 5.109375 L 15.992188 4.316406 C 15.964844 4.277344 15.914062 4.273438 15.875 4.296875 L 15.667969 4.453125 C 15.628906 4.476562 15.625 4.527344 15.652344 4.5625 L 16.066406 5.109375 L 15.433594 5.109375 C 15.386719 5.109375 15.347656 5.140625 15.347656 5.1875 L 15.347656 5.441406 C 15.347656 5.488281 15.386719 5.523438 15.433594 5.523438 L 16.066406 5.523438 L 15.652344 6.066406 C 15.625 6.101562 15.628906 6.152344 15.667969 6.179688 L 15.875 6.332031 C 15.890625 6.339844 15.914062 6.347656 15.933594 6.347656 C 15.957031 6.339844 15.976562 6.332031 15.984375 6.316406 L 16.597656 5.523438 L 17.882812 5.523438 L 18.34375 6.613281 L 18.511719 7.007812 L 18.34375 7.167969 L 17.597656 7.894531 L 16.597656 7.753906 C 16.546875 7.75 16.511719 7.78125 16.503906 7.820312 L 16.464844 8.078125 C 16.460938 8.097656 16.472656 8.117188 16.484375 8.136719 C 16.5 8.152344 16.511719 8.164062 16.535156 8.171875 L 17.21875 8.257812 L 16.769531 8.699219 C 16.738281 8.730469 16.738281 8.78125 16.769531 8.8125 L 16.957031 8.996094 C 16.988281 9.023438 17.042969 9.023438 17.074219 8.996094 L 17.523438 8.558594 L 17.617188 9.226562 C 17.621094 9.246094 17.632812 9.265625 17.648438 9.277344 C 17.664062 9.292969 17.6875 9.292969 17.710938 9.292969 L 17.96875 9.257812 C 18.019531 9.25 18.042969 9.210938 18.039062 9.164062 L 17.898438 8.183594 L 18.34375 7.75 L 18.808594 7.296875 L 20.320312 7.90625 L 20.320312 9.164062 L 19.507812 9.761719 C 19.472656 9.789062 19.464844 9.835938 19.492188 9.875 L 19.652344 10.078125 C 19.664062 10.09375 19.679688 10.101562 19.699219 10.109375 C 19.722656 10.117188 19.742188 10.101562 19.765625 10.09375 L 20.320312 9.683594 L 20.320312 10.328125 C 20.320312 10.375 20.355469 10.410156 20.402344 10.410156 L 20.664062 10.410156 C 20.710938 10.410156 20.75 10.375 20.75 10.328125 L 20.75 9.683594 L 21.300781 10.09375 C 21.316406 10.101562 21.339844 10.109375 21.359375 10.109375 C 21.382812 10.101562 21.402344 10.09375 21.410156 10.078125 L 21.570312 9.875 C 21.59375 9.835938 21.589844 9.789062 21.554688 9.761719 L 20.742188 9.164062 L 20.742188 8.746094 L 20.769531 8.746094 L 20.769531 7.945312 L 22.28125 7.332031 L 22.742188 7.785156 L 23.191406 8.21875 L 23.046875 9.199219 C 23.042969 9.246094 23.074219 9.28125 23.113281 9.292969 L 23.375 9.328125 C 23.398438 9.332031 23.417969 9.328125 23.4375 9.3125 C 23.457031 9.296875 23.464844 9.28125 23.472656 9.261719 L 23.566406 8.59375 L 24.015625 9.03125 C 24.046875 9.0625 24.097656 9.0625 24.128906 9.03125 L 24.316406 8.847656 C 24.351562 8.816406 24.351562 8.765625 24.316406 8.738281 L 23.871094 8.296875 L 24.554688 8.203125 C 24.578125 8.199219 24.597656 8.191406 24.605469 8.171875 C 24.617188 8.160156 24.625 8.136719 24.621094 8.113281 L 24.585938 7.859375 C 24.578125 7.816406 24.535156 7.785156 24.488281 7.792969 L 23.484375 7.929688 L 22.742188 7.207031 L 22.578125 7.039062 L 22.742188 6.648438 L 23.203125 5.5625 L 24.488281 5.5625 L 25.101562 6.351562 C 25.128906 6.386719 25.179688 6.394531 25.21875 6.367188 L 25.429688 6.214844 C 25.464844 6.1875 25.46875 6.136719 25.441406 6.101562 L 25.023438 5.5625 L 25.65625 5.5625 C 25.703125 5.5625 25.738281 5.523438 25.738281 5.480469 L 25.738281 5.222656 C 25.738281 5.175781 25.703125 5.148438 25.65625 5.148438 Z M 25.664062 5.128906 "/>
<path style=" stroke:none;fill-rule:nonzero;fill:rgb(92.941176%,41.176471%,36.078431%);fill-opacity:1;" d="M 22.3125 4.023438 L 21.121094 5.183594 L 21.003906 5.0625 L 22.191406 3.90625 L 22.324219 3.929688 L 22.3125 4.015625 Z M 22.191406 3.90625 L 22.28125 3.816406 L 22.324219 3.929688 Z M 22.667969 5.152344 L 22.175781 3.992188 L 22.324219 3.929688 L 22.820312 5.089844 L 22.738281 5.203125 L 22.660156 5.152344 Z M 22.820312 5.089844 L 22.867188 5.203125 L 22.738281 5.203125 Z M 21.0625 5.042969 L 22.738281 5.042969 L 22.738281 5.203125 L 21.0625 5.203125 L 21.003906 5.0625 Z M 21.0625 5.203125 L 20.863281 5.203125 L 21.003906 5.0625 Z M 21.121094 5.480469 L 22.304688 6.640625 L 22.1875 6.753906 L 21 5.59375 L 21.054688 5.457031 L 21.113281 5.484375 Z M 21 5.59375 L 20.859375 5.457031 L 21.054688 5.457031 Z M 22.734375 5.621094 L 21.054688 5.621094 L 21.054688 5.457031 L 22.734375 5.457031 L 22.8125 5.570312 Z M 22.734375 5.457031 L 22.859375 5.457031 L 22.8125 5.570312 Z M 22.164062 6.667969 L 22.65625 5.507812 L 22.804688 5.570312 L 22.316406 6.726562 L 22.179688 6.753906 Z M 22.316406 6.726562 L 22.269531 6.839844 L 22.179688 6.753906 Z M 20.835938 5.828125 L 20.835938 7.46875 L 20.667969 7.46875 L 20.667969 5.828125 L 20.8125 5.773438 Z M 20.667969 5.828125 L 20.667969 5.636719 L 20.8125 5.773438 Z M 21.882812 7.046875 L 20.695312 5.886719 L 20.8125 5.769531 L 22 6.925781 L 21.976562 7.058594 L 21.886719 7.046875 Z M 22 6.925781 L 22.089844 7.015625 L 21.976562 7.058594 Z M 20.726562 7.394531 L 21.914062 6.914062 L 21.976562 7.058594 L 20.792969 7.539062 L 20.675781 7.464844 L 20.726562 7.386719 Z M 20.792969 7.539062 L 20.675781 7.585938 L 20.675781 7.464844 Z M 21.914062 3.742188 L 20.726562 3.265625 L 20.792969 3.117188 L 21.976562 3.597656 L 22 3.730469 Z M 21.976562 3.597656 L 22.089844 3.640625 L 22 3.730469 Z M 20.703125 4.773438 L 21.886719 3.617188 L 22.007812 3.730469 L 20.820312 4.890625 L 20.679688 4.835938 L 20.703125 4.78125 Z M 20.820312 4.890625 L 20.679688 5.027344 L 20.679688 4.835938 Z M 20.847656 3.195312 L 20.847656 4.835938 L 20.679688 4.835938 L 20.679688 3.195312 L 20.792969 3.117188 Z M 20.679688 3.195312 L 20.679688 3.074219 L 20.792969 3.117188 Z M 20.371094 5.863281 L 19.183594 7.019531 L 19.0625 6.902344 L 20.25 5.742188 L 20.394531 5.800781 L 20.367188 5.855469 Z M 20.25 5.742188 L 20.394531 5.605469 L 20.394531 5.800781 Z M 20.222656 7.4375 L 20.222656 5.800781 L 20.394531 5.800781 L 20.394531 7.4375 L 20.277344 7.515625 Z M 20.394531 7.4375 L 20.394531 7.558594 L 20.277344 7.515625 Z M 19.152344 6.882812 L 20.339844 7.359375 L 20.277344 7.511719 L 19.089844 7.03125 L 19.0625 6.898438 Z M 19.089844 7.03125 L 18.976562 6.984375 L 19.0625 6.898438 Z M 20.003906 5.585938 L 18.328125 5.585938 L 18.328125 5.421875 L 20.003906 5.421875 L 20.0625 5.5625 Z M 20.003906 5.421875 L 20.203125 5.421875 L 20.0625 5.5625 Z M 18.761719 6.605469 L 19.949219 5.449219 L 20.070312 5.566406 L 18.882812 6.726562 L 18.746094 6.699219 L 18.761719 6.613281 Z M 18.882812 6.726562 L 18.792969 6.8125 L 18.746094 6.699219 Z M 18.40625 5.480469 L 18.898438 6.640625 L 18.746094 6.699219 L 18.253906 5.539062 L 18.332031 5.429688 L 18.410156 5.480469 Z M 18.253906 5.539062 L 18.207031 5.429688 L 18.332031 5.429688 Z M 19.949219 5.152344 L 18.761719 3.992188 L 18.882812 3.875 L 20.070312 5.035156 L 20.011719 5.171875 L 19.953125 5.148438 Z M 20.070312 5.035156 L 20.207031 5.171875 L 20.011719 5.171875 Z M 18.332031 5.007812 L 20.011719 5.007812 L 20.011719 5.171875 L 18.332031 5.171875 L 18.253906 5.0625 Z M 18.332031 5.171875 L 18.207031 5.171875 L 18.253906 5.0625 Z M 18.902344 3.964844 L 18.410156 5.121094 L 18.257812 5.0625 L 18.75 3.902344 L 18.886719 3.875 Z M 18.75 3.902344 L 18.800781 3.789062 L 18.886719 3.875 Z M 20.230469 4.800781 L 20.230469 3.160156 L 20.398438 3.160156 L 20.398438 4.800781 L 20.257812 4.855469 Z M 20.398438 4.800781 L 20.398438 5 L 20.257812 4.863281 L 20.398438 4.804688 Z M 19.191406 3.585938 L 20.375 4.742188 L 20.257812 4.863281 L 19.070312 3.703125 L 19.097656 3.570312 L 19.183594 3.585938 Z M 19.070312 3.703125 L 18.980469 3.617188 L 19.097656 3.570312 Z M 20.34375 3.238281 L 19.15625 3.71875 L 19.097656 3.570312 L 20.285156 3.089844 L 20.398438 3.164062 L 20.34375 3.242188 Z M 20.285156 3.089844 L 20.398438 3.042969 L 20.398438 3.164062 Z M 25.023438 5.050781 L 25.65625 5.050781 L 25.65625 5.214844 L 25.023438 5.214844 L 24.957031 5.085938 L 25.023438 5.054688 Z M 25.023438 5.214844 L 24.859375 5.214844 L 24.957031 5.085938 Z M 25.503906 4.640625 L 25.085938 5.183594 L 24.957031 5.085938 L 25.375 4.542969 Z M 25.503906 4.640625 L 25.511719 4.636719 Z M 25.375 4.542969 L 25.472656 4.417969 L 25.484375 4.429688 L 25.492188 4.429688 L 25.496094 4.4375 L 25.5 4.449219 L 25.511719 4.457031 L 25.515625 4.46875 L 25.519531 4.472656 L 25.527344 4.476562 L 25.53125 4.484375 L 25.539062 4.488281 L 25.539062 4.589844 L 25.53125 4.601562 L 25.527344 4.605469 L 25.519531 4.609375 L 25.511719 4.621094 L 25.375 4.523438 Z M 25.375 4.542969 L 25.386719 4.550781 Z M 25.265625 4.257812 L 25.472656 4.410156 L 25.375 4.539062 L 25.167969 4.386719 Z M 25.167969 4.386719 Z M 25.167969 4.386719 L 25.144531 4.222656 L 25.167969 4.222656 L 25.160156 4.222656 L 25.203125 4.222656 L 25.210938 4.230469 L 25.222656 4.234375 L 25.242188 4.253906 L 25.140625 4.382812 L 25.148438 4.382812 L 25.144531 4.382812 L 25.15625 4.382812 L 25.148438 4.382812 L 25.175781 4.382812 Z M 25.167969 4.386719 Z M 25.167969 4.386719 L 25.035156 4.289062 L 25.035156 4.285156 L 25.039062 4.277344 L 25.042969 4.273438 L 25.050781 4.269531 L 25.058594 4.257812 L 25.070312 4.253906 L 25.078125 4.25 L 25.082031 4.25 L 25.085938 4.242188 L 25.09375 4.238281 L 25.097656 4.238281 L 25.101562 4.234375 L 25.132812 4.234375 L 25.15625 4.394531 L 25.160156 4.394531 L 25.15625 4.394531 L 25.167969 4.394531 L 25.160156 4.394531 L 25.167969 4.394531 L 25.175781 4.390625 L 25.167969 4.394531 L 25.175781 4.390625 L 25.167969 4.394531 Z M 25.167969 4.386719 L 25.160156 4.390625 Z M 24.417969 5.082031 L 25.03125 4.289062 L 25.160156 4.386719 L 24.550781 5.175781 L 24.480469 5.207031 L 24.414062 5.074219 Z M 24.550781 5.175781 L 24.523438 5.207031 L 24.480469 5.207031 Z M 23.195312 5.042969 L 24.480469 5.042969 L 24.480469 5.207031 L 23.195312 5.207031 L 23.113281 5.15625 Z M 23.195312 5.207031 L 23.136719 5.207031 L 23.113281 5.15625 Z M 22.8125 4.007812 L 23.273438 5.09375 L 23.121094 5.15625 L 22.660156 4.070312 Z M 22.644531 3.621094 L 22.8125 4.007812 L 22.660156 4.070312 L 22.496094 3.683594 L 22.507812 3.597656 Z M 22.496094 3.683594 L 22.472656 3.628906 L 22.507812 3.597656 Z M 22.796875 3.542969 L 22.628906 3.707031 L 22.507812 3.597656 L 22.675781 3.429688 Z M 22.675781 3.429688 L 22.75 3.359375 Z M 23.539062 2.816406 L 22.796875 3.542969 L 22.675781 3.425781 L 23.417969 2.703125 L 23.484375 2.679688 L 23.535156 2.816406 Z M 23.417969 2.703125 L 23.449219 2.671875 L 23.492188 2.675781 L 23.425781 2.699219 Z M 24.46875 2.976562 L 23.464844 2.839844 L 23.484375 2.675781 L 24.488281 2.8125 Z M 24.488281 2.816406 L 24.660156 2.839844 L 24.660156 2.855469 L 24.652344 2.863281 L 24.652344 2.875 L 24.648438 2.878906 L 24.640625 2.890625 L 24.605469 2.925781 L 24.597656 2.929688 L 24.589844 2.9375 L 24.585938 2.9375 L 24.570312 2.945312 L 24.5625 2.945312 L 24.558594 2.953125 L 24.550781 2.957031 L 24.476562 2.957031 L 24.496094 2.792969 L 24.511719 2.792969 Z M 24.660156 2.839844 L 24.660156 2.851562 Z M 24.695312 2.585938 L 24.660156 2.839844 L 24.488281 2.816406 L 24.527344 2.5625 L 24.695312 2.589844 Z M 24.527344 2.5625 L 24.527344 2.550781 Z M 24.527344 2.5625 L 24.664062 2.464844 L 24.667969 2.476562 L 24.671875 2.484375 L 24.671875 2.550781 L 24.507812 2.527344 L 24.507812 2.5625 L 24.511719 2.570312 Z M 24.664062 2.464844 L 24.664062 2.460938 Z M 24.53125 2.5625 L 24.554688 2.398438 L 24.589844 2.398438 L 24.597656 2.40625 L 24.605469 2.40625 L 24.617188 2.410156 L 24.621094 2.410156 L 24.632812 2.417969 L 24.640625 2.425781 L 24.648438 2.429688 L 24.652344 2.4375 L 24.660156 2.441406 L 24.523438 2.539062 L 24.53125 2.546875 L 24.527344 2.542969 L 24.53125 2.546875 L 24.527344 2.546875 L 24.53125 2.546875 L 24.527344 2.546875 L 24.53125 2.546875 L 24.527344 2.546875 L 24.53125 2.546875 Z M 24.53125 2.5625 L 24.523438 2.5625 Z M 23.871094 2.308594 L 24.554688 2.40625 L 24.53125 2.570312 L 23.847656 2.472656 L 23.800781 2.332031 L 23.871094 2.3125 Z M 23.847656 2.472656 L 23.679688 2.453125 L 23.800781 2.332031 Z M 24.363281 2.011719 L 23.917969 2.453125 L 23.796875 2.332031 L 24.246094 1.894531 L 24.363281 2.007812 Z M 24.363281 2.011719 L 24.355469 2.023438 Z M 24.246094 1.898438 L 24.363281 1.78125 L 24.371094 1.785156 L 24.386719 1.804688 L 24.390625 1.808594 L 24.398438 1.820312 L 24.398438 1.828125 L 24.402344 1.839844 L 24.40625 1.847656 L 24.40625 1.929688 L 24.398438 1.953125 L 24.398438 1.960938 L 24.390625 1.972656 L 24.363281 2 L 24.246094 1.886719 L 24.246094 1.875 L 24.246094 1.886719 L 24.246094 1.875 Z M 24.246094 1.898438 Z M 24.179688 1.605469 L 24.363281 1.785156 L 24.246094 1.90625 L 24.054688 1.71875 L 24.179688 1.609375 Z M 24.054688 1.71875 Z M 24.054688 1.71875 L 23.9375 1.605469 L 23.941406 1.597656 L 23.953125 1.59375 L 23.957031 1.585938 L 23.964844 1.585938 L 23.972656 1.578125 L 23.980469 1.574219 L 23.984375 1.574219 L 23.992188 1.566406 L 24.007812 1.5625 L 24.097656 1.5625 L 24.109375 1.566406 L 24.117188 1.574219 L 24.125 1.574219 L 24.128906 1.578125 L 24.152344 1.59375 L 24.160156 1.597656 L 24.164062 1.605469 L 24.046875 1.71875 L 24.042969 1.71875 Z M 23.492188 2.042969 L 23.941406 1.605469 L 24.0625 1.71875 L 23.613281 2.160156 L 23.472656 2.113281 L 23.492188 2.046875 Z M 23.613281 2.160156 L 23.492188 2.277344 L 23.472656 2.113281 Z M 23.539062 1.417969 L 23.636719 2.089844 L 23.464844 2.109375 L 23.375 1.441406 L 23.539062 1.414062 Z M 23.539062 1.417969 L 23.539062 1.410156 Z M 23.375 1.445312 L 23.476562 1.3125 L 23.484375 1.3125 L 23.484375 1.320312 L 23.492188 1.324219 L 23.519531 1.347656 L 23.519531 1.351562 L 23.527344 1.367188 L 23.535156 1.367188 L 23.535156 1.375 L 23.535156 1.367188 L 23.539062 1.378906 L 23.539062 1.40625 L 23.375 1.433594 L 23.375 1.445312 L 23.367188 1.441406 L 23.367188 1.433594 L 23.367188 1.441406 L 23.363281 1.433594 L 23.355469 1.433594 L 23.363281 1.433594 Z M 23.476562 1.3125 L 23.484375 1.320312 Z M 23.375 1.445312 L 23.351562 1.28125 L 23.367188 1.28125 L 23.363281 1.28125 L 23.414062 1.28125 L 23.425781 1.285156 L 23.429688 1.292969 L 23.4375 1.296875 L 23.339844 1.433594 L 23.367188 1.433594 L 23.363281 1.433594 L 23.375 1.433594 L 23.367188 1.433594 L 23.382812 1.433594 L 23.375 1.433594 Z M 23.351562 1.28125 L 23.335938 1.28125 Z M 23.089844 1.320312 L 23.351562 1.28125 L 23.375 1.445312 L 23.113281 1.480469 L 23.09375 1.320312 Z M 23.113281 1.480469 L 23.132812 1.480469 Z M 23.113281 1.480469 L 22.949219 1.5 L 22.949219 1.433594 L 22.957031 1.425781 L 22.957031 1.417969 L 22.964844 1.414062 L 22.96875 1.410156 L 22.976562 1.40625 L 22.980469 1.398438 L 22.984375 1.394531 L 23.023438 1.359375 L 23.03125 1.351562 L 23.039062 1.347656 L 23.042969 1.347656 L 23.054688 1.34375 L 23.078125 1.34375 L 23.101562 1.507812 L 23.105469 1.507812 Z M 23.113281 1.480469 L 23.113281 1.464844 Z M 23.089844 2.484375 L 22.949219 1.507812 L 23.113281 1.484375 L 23.257812 2.464844 L 23.238281 2.53125 L 23.09375 2.484375 Z M 23.257812 2.464844 L 23.265625 2.507812 L 23.230469 2.539062 L 23.25 2.472656 Z M 22.671875 2.855469 L 23.113281 2.417969 L 23.238281 2.539062 L 22.792969 2.972656 Z M 22.207031 3.308594 L 22.671875 2.855469 L 22.792969 2.972656 L 22.324219 3.425781 L 22.234375 3.441406 L 22.214844 3.308594 Z M 22.324219 3.425781 L 22.289062 3.464844 L 22.234375 3.441406 Z M 20.792969 2.679688 L 22.300781 3.292969 L 22.234375 3.441406 L 20.726562 2.832031 L 20.675781 2.75 L 20.792969 2.675781 Z M 20.726562 2.832031 L 20.675781 2.808594 L 20.675781 2.75 Z M 20.839844 2.023438 L 20.839844 2.75 L 20.675781 2.75 L 20.675781 2.023438 L 20.757812 1.941406 Z M 20.757812 1.941406 L 20.839844 1.941406 L 20.839844 2.023438 Z M 20.730469 1.941406 L 20.757812 1.941406 L 20.757812 2.105469 L 20.730469 2.105469 L 20.648438 2.023438 Z M 20.730469 2.105469 L 20.648438 2.105469 L 20.648438 2.023438 Z M 20.8125 1.460938 L 20.8125 2.023438 L 20.648438 2.023438 L 20.648438 1.460938 L 20.679688 1.394531 Z M 20.648438 1.460938 L 20.648438 1.417969 L 20.679688 1.394531 Z M 21.59375 0.929688 L 20.785156 1.527344 L 20.683594 1.398438 L 21.492188 0.800781 Z M 21.59375 0.929688 L 21.582031 0.933594 Z M 21.492188 0.800781 L 21.621094 0.707031 L 21.628906 0.714844 L 21.636719 0.71875 L 21.644531 0.734375 L 21.644531 0.84375 L 21.628906 0.851562 L 21.625 0.859375 L 21.621094 0.863281 L 21.617188 0.875 L 21.609375 0.878906 L 21.605469 0.886719 L 21.601562 0.886719 L 21.578125 0.90625 L 21.480469 0.78125 L 21.480469 0.777344 Z M 21.492188 0.800781 L 21.484375 0.796875 Z M 21.464844 0.5 L 21.621094 0.707031 L 21.492188 0.800781 L 21.335938 0.597656 L 21.46875 0.5 Z M 21.335938 0.597656 L 21.339844 0.601562 Z M 21.335938 0.597656 L 21.355469 0.433594 L 21.382812 0.433594 L 21.382812 0.441406 L 21.398438 0.449219 L 21.390625 0.449219 L 21.398438 0.453125 L 21.402344 0.453125 L 21.417969 0.46875 L 21.421875 0.476562 L 21.425781 0.480469 L 21.433594 0.492188 L 21.296875 0.585938 L 21.300781 0.59375 L 21.296875 0.585938 L 21.300781 0.59375 L 21.3125 0.59375 L 21.308594 0.585938 L 21.316406 0.585938 L 21.3125 0.585938 L 21.320312 0.585938 L 21.316406 0.585938 L 21.328125 0.585938 Z M 21.355469 0.433594 L 21.363281 0.433594 Z M 21.335938 0.59375 L 21.234375 0.464844 L 21.253906 0.445312 L 21.261719 0.441406 L 21.339844 0.441406 L 21.316406 0.601562 L 21.339844 0.601562 L 21.335938 0.601562 L 21.355469 0.601562 Z M 21.335938 0.59375 L 21.328125 0.597656 L 21.339844 0.59375 Z M 20.679688 0.875 L 21.234375 0.464844 L 21.335938 0.59375 L 20.777344 1 L 20.640625 0.933594 L 20.675781 0.867188 Z M 20.777344 1 L 20.640625 1.097656 L 20.640625 0.933594 Z M 20.8125 0.292969 L 20.8125 0.933594 L 20.640625 0.933594 L 20.640625 0.292969 Z M 20.640625 0.292969 L 20.640625 0.128906 L 20.691406 0.128906 L 20.703125 0.132812 L 20.714844 0.140625 L 20.726562 0.140625 L 20.738281 0.148438 L 20.785156 0.195312 L 20.792969 0.199219 L 20.792969 0.207031 L 20.800781 0.207031 L 20.804688 0.21875 L 20.804688 0.265625 L 20.640625 0.265625 Z M 20.382812 0.128906 L 20.640625 0.128906 L 20.640625 0.292969 L 20.382812 0.292969 Z M 20.382812 0.289062 L 20.214844 0.289062 L 20.214844 0.242188 L 20.222656 0.230469 L 20.222656 0.226562 L 20.230469 0.21875 L 20.234375 0.207031 L 20.242188 0.207031 L 20.246094 0.199219 L 20.25 0.1875 L 20.257812 0.1875 L 20.261719 0.179688 L 20.265625 0.175781 L 20.269531 0.167969 L 20.285156 0.160156 L 20.292969 0.152344 L 20.296875 0.152344 L 20.304688 0.148438 L 20.3125 0.140625 L 20.375 0.140625 L 20.375 0.300781 L 20.371094 0.300781 L 20.375 0.300781 L 20.371094 0.300781 L 20.375 0.300781 Z M 20.214844 0.929688 L 20.214844 0.289062 L 20.382812 0.289062 L 20.382812 0.929688 L 20.246094 0.996094 Z M 20.382812 0.929688 L 20.382812 1.09375 L 20.246094 0.996094 Z M 19.796875 0.453125 L 20.351562 0.863281 L 20.25 0.992188 L 19.699219 0.582031 Z M 19.699219 0.585938 L 19.671875 0.425781 L 19.726562 0.425781 L 19.734375 0.429688 L 19.742188 0.429688 L 19.753906 0.433594 L 19.761719 0.441406 L 19.660156 0.566406 L 19.65625 0.5625 L 19.660156 0.566406 L 19.679688 0.566406 L 19.675781 0.566406 L 19.699219 0.566406 L 19.691406 0.566406 Z M 19.671875 0.425781 L 19.660156 0.425781 Z M 19.699219 0.582031 L 19.566406 0.488281 L 19.570312 0.480469 L 19.578125 0.476562 L 19.582031 0.46875 L 19.597656 0.453125 L 19.605469 0.449219 L 19.609375 0.445312 L 19.613281 0.445312 L 19.617188 0.441406 L 19.613281 0.441406 L 19.617188 0.433594 L 19.628906 0.429688 L 19.625 0.429688 L 19.628906 0.425781 L 19.65625 0.425781 L 19.679688 0.585938 L 19.699219 0.585938 L 19.691406 0.59375 L 19.699219 0.585938 L 19.699219 0.59375 L 19.707031 0.59375 L 19.699219 0.597656 Z M 19.566406 0.488281 L 19.5625 0.492188 Z M 19.410156 0.6875 L 19.566406 0.488281 L 19.699219 0.582031 L 19.542969 0.785156 Z M 19.410156 0.6875 L 19.445312 0.644531 Z M 19.542969 0.785156 L 19.441406 0.914062 L 19.4375 0.90625 L 19.429688 0.90625 L 19.425781 0.898438 L 19.417969 0.894531 L 19.414062 0.886719 L 19.410156 0.886719 L 19.40625 0.878906 L 19.398438 0.875 L 19.390625 0.867188 L 19.390625 0.859375 L 19.371094 0.839844 L 19.371094 0.753906 L 19.378906 0.746094 L 19.378906 0.742188 L 19.382812 0.734375 L 19.390625 0.726562 L 19.390625 0.71875 L 19.398438 0.714844 L 19.527344 0.8125 Z M 19.441406 0.914062 Z M 20.25 1.511719 L 19.441406 0.914062 L 19.542969 0.785156 L 20.351562 1.386719 L 20.382812 1.453125 L 20.246094 1.519531 Z M 20.351562 1.386719 L 20.382812 1.410156 L 20.382812 1.453125 Z M 20.214844 2.707031 L 20.214844 1.453125 L 20.382812 1.453125 L 20.382812 2.707031 L 20.332031 2.785156 Z M 20.382812 2.707031 L 20.382812 2.765625 L 20.332031 2.785156 Z M 18.757812 3.242188 L 20.265625 2.632812 L 20.332031 2.777344 L 18.820312 3.390625 L 18.730469 3.375 Z M 18.820312 3.390625 L 18.765625 3.410156 L 18.726562 3.375 L 18.8125 3.390625 Z M 18.378906 2.804688 L 18.84375 3.257812 L 18.726562 3.375 L 18.257812 2.921875 Z M 17.933594 2.371094 L 18.378906 2.804688 L 18.257812 2.921875 L 17.816406 2.484375 L 17.796875 2.417969 L 17.933594 2.375 Z M 17.816406 2.484375 L 17.785156 2.457031 L 17.789062 2.417969 L 17.808594 2.484375 Z M 18.097656 1.460938 L 17.957031 2.441406 L 17.789062 2.417969 L 17.929688 1.441406 Z M 18.097656 1.460938 L 18.097656 1.476562 Z M 17.933594 1.441406 L 17.957031 1.277344 L 17.96875 1.277344 L 17.984375 1.28125 L 17.992188 1.28125 L 18.015625 1.300781 L 18.023438 1.308594 L 18.03125 1.3125 L 18.035156 1.320312 L 18.042969 1.328125 L 18.050781 1.332031 L 18.082031 1.367188 L 18.085938 1.375 L 18.085938 1.441406 L 17.921875 1.417969 Z M 17.957031 1.277344 Z M 17.695312 1.242188 L 17.957031 1.277344 L 17.933594 1.441406 L 17.671875 1.40625 Z M 17.671875 1.40625 L 17.664062 1.40625 Z M 17.671875 1.40625 L 17.570312 1.277344 L 17.578125 1.273438 L 17.578125 1.265625 L 17.589844 1.261719 L 17.597656 1.257812 L 17.613281 1.253906 L 17.660156 1.253906 L 17.652344 1.253906 L 17.671875 1.253906 L 17.648438 1.414062 L 17.640625 1.414062 L 17.652344 1.414062 L 17.640625 1.414062 L 17.664062 1.414062 L 17.660156 1.414062 L 17.664062 1.414062 L 17.660156 1.414062 L 17.667969 1.414062 L 17.664062 1.414062 L 17.667969 1.414062 Z M 17.570312 1.277344 L 17.578125 1.273438 L 17.5625 1.277344 Z M 17.671875 1.40625 L 17.507812 1.386719 L 17.507812 1.351562 L 17.511719 1.347656 L 17.511719 1.34375 L 17.515625 1.339844 L 17.523438 1.328125 L 17.53125 1.320312 L 17.535156 1.3125 L 17.542969 1.308594 L 17.550781 1.300781 L 17.554688 1.300781 L 17.660156 1.433594 L 17.664062 1.425781 L 17.664062 1.410156 L 17.664062 1.414062 L 17.664062 1.40625 Z M 17.671875 1.40625 L 17.671875 1.414062 Z M 17.414062 2.050781 L 17.507812 1.386719 L 17.671875 1.40625 L 17.578125 2.074219 L 17.441406 2.117188 L 17.417969 2.050781 Z M 17.578125 2.074219 L 17.558594 2.238281 L 17.441406 2.117188 Z M 17.109375 1.566406 L 17.558594 2.007812 L 17.441406 2.125 L 16.988281 1.6875 L 17.109375 1.574219 Z M 16.988281 1.6875 Z M 16.988281 1.6875 L 16.871094 1.574219 L 16.875 1.566406 L 16.882812 1.5625 L 16.90625 1.546875 L 16.910156 1.542969 L 16.917969 1.542969 L 16.925781 1.539062 L 16.9375 1.53125 L 17.03125 1.53125 L 17.042969 1.539062 L 17.050781 1.542969 L 17.054688 1.542969 L 17.0625 1.546875 L 17.074219 1.554688 L 17.082031 1.5625 L 17.09375 1.566406 L 17.097656 1.574219 L 16.980469 1.6875 Z M 16.988281 1.6875 L 17.035156 1.640625 Z M 16.683594 1.753906 L 16.875 1.566406 L 16.992188 1.679688 L 16.808594 1.863281 Z M 16.808594 1.863281 L 16.710938 1.957031 Z M 16.808594 1.859375 L 16.683594 1.976562 L 16.664062 1.957031 L 16.65625 1.953125 L 16.65625 1.941406 L 16.648438 1.929688 L 16.648438 1.796875 L 16.65625 1.785156 L 16.65625 1.777344 L 16.664062 1.773438 L 16.683594 1.753906 L 16.808594 1.871094 L 16.808594 1.878906 Z M 17.136719 2.410156 L 16.683594 1.972656 L 16.808594 1.851562 L 17.253906 2.292969 L 17.207031 2.429688 L 17.140625 2.410156 Z M 17.253906 2.292969 L 17.378906 2.410156 L 17.207031 2.429688 Z M 16.5 2.363281 L 17.183594 2.265625 L 17.203125 2.429688 L 16.519531 2.527344 L 16.492188 2.371094 Z M 16.5 2.363281 L 16.503906 2.363281 Z M 16.523438 2.523438 L 16.386719 2.429688 L 16.394531 2.425781 L 16.394531 2.417969 L 16.398438 2.417969 L 16.402344 2.410156 L 16.410156 2.40625 L 16.414062 2.398438 L 16.417969 2.394531 L 16.4375 2.378906 L 16.445312 2.375 L 16.449219 2.375 L 16.445312 2.375 L 16.457031 2.371094 L 16.460938 2.371094 L 16.457031 2.371094 L 16.472656 2.371094 L 16.5 2.527344 L 16.503906 2.527344 L 16.5 2.527344 L 16.503906 2.527344 L 16.5 2.527344 L 16.511719 2.527344 L 16.519531 2.523438 Z M 16.386719 2.429688 L 16.382812 2.4375 Z M 16.523438 2.523438 L 16.355469 2.542969 L 16.355469 2.464844 L 16.363281 2.460938 L 16.367188 2.457031 L 16.503906 2.546875 L 16.503906 2.53125 L 16.503906 2.539062 L 16.503906 2.511719 L 16.503906 2.519531 Z M 16.355469 2.542969 L 16.355469 2.550781 Z M 16.394531 2.796875 L 16.355469 2.542969 L 16.523438 2.523438 L 16.5625 2.777344 Z M 16.5625 2.777344 L 16.5625 2.765625 Z M 16.5625 2.777344 L 16.582031 2.941406 L 16.511719 2.941406 L 16.503906 2.9375 L 16.5 2.929688 L 16.492188 2.929688 L 16.484375 2.925781 L 16.457031 2.898438 L 16.449219 2.898438 L 16.445312 2.890625 L 16.4375 2.886719 L 16.4375 2.878906 L 16.425781 2.871094 L 16.417969 2.859375 L 16.410156 2.851562 L 16.410156 2.824219 L 16.574219 2.804688 L 16.582031 2.804688 L 16.574219 2.804688 Z M 16.582031 2.941406 L 16.59375 2.941406 Z M 17.585938 2.804688 L 16.582031 2.941406 L 16.5625 2.777344 L 17.5625 2.640625 L 17.632812 2.660156 L 17.585938 2.796875 Z M 17.5625 2.640625 L 17.605469 2.636719 L 17.636719 2.664062 L 17.570312 2.644531 Z M 18.257812 3.507812 L 17.515625 2.777344 L 17.636719 2.660156 L 18.378906 3.390625 Z M 18.257812 3.507812 Z M 18.429688 3.671875 L 18.257812 3.507812 L 18.378906 3.390625 L 18.546875 3.554688 L 18.5625 3.640625 L 18.429688 3.664062 Z M 18.546875 3.554688 L 18.589844 3.589844 L 18.566406 3.640625 L 18.550781 3.554688 Z M 18.242188 3.972656 L 18.410156 3.578125 L 18.5625 3.640625 L 18.394531 4.035156 Z M 17.785156 5.0625 L 18.242188 3.972656 L 18.394531 4.035156 L 17.933594 5.121094 L 17.859375 5.171875 L 17.777344 5.0625 Z M 17.933594 5.121094 L 17.914062 5.171875 L 17.859375 5.171875 Z M 16.570312 5.007812 L 17.859375 5.007812 L 17.859375 5.171875 L 16.570312 5.171875 L 16.503906 5.140625 Z M 16.570312 5.171875 L 16.527344 5.171875 L 16.503906 5.140625 Z M 16.027344 4.253906 L 16.636719 5.042969 L 16.507812 5.140625 L 15.894531 4.351562 L 16.03125 4.253906 Z M 15.894531 4.351562 L 15.894531 4.355469 Z M 15.902344 4.351562 L 15.804688 4.222656 L 15.8125 4.21875 L 15.820312 4.210938 L 15.824219 4.210938 L 15.828125 4.207031 L 15.839844 4.203125 L 15.847656 4.195312 L 15.859375 4.191406 L 15.957031 4.191406 L 15.964844 4.195312 L 15.96875 4.203125 L 15.976562 4.207031 L 15.980469 4.210938 L 15.984375 4.21875 L 15.996094 4.222656 L 16.023438 4.25 L 15.886719 4.34375 L 15.894531 4.34375 L 15.886719 4.34375 Z M 15.902344 4.351562 L 15.90625 4.34375 Z M 15.585938 4.375 L 15.796875 4.222656 L 15.894531 4.351562 L 15.6875 4.503906 L 15.585938 4.371094 Z M 15.6875 4.503906 L 15.675781 4.507812 Z M 15.6875 4.496094 L 15.558594 4.597656 L 15.550781 4.589844 L 15.546875 4.582031 L 15.542969 4.582031 L 15.535156 4.570312 L 15.53125 4.5625 L 15.53125 4.550781 L 15.523438 4.539062 L 15.523438 4.472656 L 15.53125 4.460938 L 15.53125 4.457031 L 15.535156 4.449219 L 15.542969 4.4375 L 15.542969 4.429688 L 15.546875 4.429688 L 15.550781 4.417969 L 15.566406 4.402344 L 15.570312 4.394531 L 15.585938 4.386719 L 15.59375 4.375 L 15.695312 4.507812 L 15.695312 4.503906 L 15.695312 4.507812 L 15.695312 4.496094 L 15.695312 4.503906 Z M 15.6875 4.496094 L 15.695312 4.503906 Z M 15.96875 5.136719 L 15.550781 4.597656 L 15.683594 4.496094 L 16.101562 5.042969 L 16.03125 5.171875 L 15.964844 5.140625 Z M 16.101562 5.042969 L 16.199219 5.171875 L 16.03125 5.171875 Z M 15.398438 5.007812 L 16.039062 5.007812 L 16.039062 5.171875 L 15.398438 5.171875 Z M 15.398438 5.171875 L 15.234375 5.171875 L 15.234375 5.109375 L 15.242188 5.109375 L 15.25 5.101562 L 15.253906 5.09375 L 15.261719 5.085938 L 15.269531 5.082031 L 15.273438 5.074219 L 15.28125 5.070312 L 15.304688 5.042969 L 15.316406 5.042969 L 15.324219 5.035156 L 15.371094 5.035156 L 15.371094 5.195312 Z M 15.234375 5.429688 L 15.234375 5.171875 L 15.398438 5.171875 L 15.398438 5.429688 Z M 15.398438 5.429688 L 15.398438 5.589844 L 15.351562 5.589844 L 15.34375 5.585938 L 15.335938 5.585938 L 15.296875 5.546875 L 15.28125 5.527344 L 15.273438 5.523438 L 15.269531 5.519531 L 15.261719 5.515625 L 15.261719 5.507812 L 15.257812 5.5 L 15.257812 5.453125 L 15.425781 5.453125 Z M 16.039062 5.589844 L 15.398438 5.589844 L 15.398438 5.429688 L 16.039062 5.429688 L 16.105469 5.5625 Z M 16.039062 5.429688 L 16.203125 5.429688 L 16.105469 5.5625 Z M 15.550781 6 L 15.96875 5.457031 L 16.101562 5.554688 L 15.683594 6.09375 Z M 15.683594 6.09375 Z M 15.683594 6.09375 L 15.585938 6.222656 L 15.570312 6.214844 L 15.566406 6.207031 L 15.558594 6.199219 L 15.550781 6.195312 L 15.546875 6.1875 L 15.542969 6.183594 L 15.535156 6.179688 L 15.535156 6.171875 L 15.53125 6.160156 L 15.523438 6.152344 L 15.523438 6.148438 L 15.519531 6.136719 L 15.519531 6.070312 L 15.523438 6.0625 L 15.523438 6.046875 L 15.53125 6.039062 L 15.535156 6.027344 L 15.542969 6.027344 L 15.550781 6.015625 L 15.683594 6.113281 L 15.683594 6.117188 L 15.683594 6.113281 L 15.683594 6.117188 Z M 15.585938 6.222656 Z M 15.792969 6.375 L 15.585938 6.222656 L 15.683594 6.09375 L 15.890625 6.25 Z M 15.792969 6.375 Z M 15.890625 6.246094 L 15.914062 6.40625 L 15.890625 6.40625 L 15.894531 6.40625 L 15.878906 6.40625 L 15.886719 6.40625 L 15.84375 6.40625 L 15.832031 6.402344 L 15.839844 6.402344 L 15.824219 6.398438 L 15.828125 6.398438 L 15.824219 6.394531 L 15.820312 6.386719 L 15.8125 6.382812 L 15.914062 6.253906 L 15.90625 6.253906 L 15.914062 6.261719 L 15.902344 6.253906 L 15.914062 6.261719 L 15.886719 6.261719 L 15.894531 6.261719 L 15.886719 6.261719 L 15.890625 6.261719 L 15.878906 6.261719 Z M 15.890625 6.246094 L 15.886719 6.246094 Z M 15.890625 6.246094 L 16.023438 6.339844 L 15.996094 6.367188 L 15.992188 6.375 L 15.980469 6.375 L 15.976562 6.382812 L 15.96875 6.382812 L 15.964844 6.386719 L 15.933594 6.386719 L 15.914062 6.222656 L 15.902344 6.222656 L 15.90625 6.222656 L 15.890625 6.222656 L 15.894531 6.21875 L 15.890625 6.21875 L 15.886719 6.222656 Z M 16.636719 5.550781 L 16.023438 6.339844 L 15.890625 6.246094 L 16.503906 5.453125 L 16.570312 5.421875 Z M 16.503906 5.453125 L 16.527344 5.421875 L 16.570312 5.421875 Z M 17.859375 5.582031 L 16.570312 5.582031 L 16.570312 5.417969 L 17.859375 5.417969 L 17.933594 5.46875 Z M 17.859375 5.417969 L 17.914062 5.417969 L 17.933594 5.46875 Z M 18.238281 6.617188 L 17.777344 5.527344 L 17.929688 5.46875 L 18.390625 6.554688 Z M 18.40625 7.011719 L 18.238281 6.617188 L 18.390625 6.554688 L 18.558594 6.949219 L 18.539062 7.035156 Z M 18.558594 6.949219 L 18.578125 7 L 18.539062 7.039062 L 18.558594 6.953125 Z M 18.253906 7.085938 L 18.421875 6.921875 L 18.539062 7.039062 L 18.375 7.207031 Z M 18.375 7.207031 Z M 17.511719 7.816406 L 18.253906 7.09375 L 18.375 7.207031 L 17.632812 7.933594 L 17.5625 7.953125 L 17.515625 7.816406 Z M 17.632812 7.933594 L 17.597656 7.964844 L 17.558594 7.960938 L 17.625 7.9375 Z M 16.582031 7.660156 L 17.585938 7.796875 L 17.5625 7.960938 L 16.5625 7.820312 Z M 16.5625 7.820312 L 16.546875 7.820312 Z M 16.5625 7.820312 L 16.394531 7.800781 L 16.394531 7.773438 L 16.398438 7.765625 L 16.402344 7.753906 L 16.417969 7.738281 L 16.425781 7.734375 L 16.429688 7.730469 L 16.4375 7.726562 L 16.4375 7.71875 L 16.445312 7.714844 L 16.449219 7.710938 L 16.457031 7.707031 L 16.464844 7.691406 L 16.472656 7.6875 L 16.476562 7.683594 L 16.484375 7.679688 L 16.5625 7.679688 L 16.535156 7.84375 L 16.527344 7.84375 L 16.535156 7.84375 L 16.535156 7.839844 Z M 16.5625 7.820312 L 16.5625 7.832031 Z M 16.355469 8.058594 L 16.394531 7.800781 L 16.5625 7.820312 L 16.523438 8.078125 Z M 16.355469 8.058594 L 16.355469 8.046875 Z M 16.519531 8.078125 L 16.386719 8.171875 L 16.386719 8.160156 L 16.382812 8.152344 L 16.375 8.144531 L 16.375 8.082031 L 16.539062 8.105469 L 16.539062 8.070312 L 16.539062 8.078125 L 16.539062 8.066406 Z M 16.386719 8.171875 L 16.386719 8.179688 Z M 16.519531 8.078125 L 16.5 8.238281 L 16.472656 8.238281 L 16.464844 8.234375 L 16.457031 8.226562 L 16.460938 8.226562 L 16.457031 8.21875 L 16.445312 8.214844 L 16.4375 8.210938 L 16.4375 8.203125 L 16.429688 8.199219 L 16.425781 8.191406 L 16.417969 8.191406 L 16.414062 8.183594 L 16.546875 8.085938 L 16.539062 8.082031 L 16.535156 8.082031 L 16.539062 8.085938 L 16.527344 8.085938 L 16.535156 8.085938 L 16.523438 8.085938 L 16.527344 8.085938 L 16.519531 8.085938 Z M 16.5 8.238281 L 16.484375 8.238281 Z M 17.183594 8.332031 L 16.5 8.238281 L 16.519531 8.078125 L 17.203125 8.171875 L 17.25 8.304688 L 17.183594 8.324219 Z M 17.203125 8.171875 L 17.371094 8.191406 L 17.25 8.304688 Z M 16.683594 8.628906 L 17.136719 8.191406 L 17.253906 8.304688 L 16.808594 8.746094 Z M 16.808594 8.738281 L 16.683594 8.851562 L 16.675781 8.84375 L 16.671875 8.835938 L 16.65625 8.828125 L 16.65625 8.816406 L 16.648438 8.804688 L 16.644531 8.796875 L 16.644531 8.691406 L 16.648438 8.683594 L 16.65625 8.671875 L 16.664062 8.664062 L 16.671875 8.652344 L 16.679688 8.644531 L 16.683594 8.636719 L 16.808594 8.757812 L 16.808594 8.75 L 16.808594 8.761719 Z M 16.808594 8.738281 L 16.78125 8.71875 L 16.800781 8.738281 Z M 16.875 9.039062 L 16.683594 8.851562 L 16.808594 8.738281 L 16.992188 8.925781 L 16.878906 9.042969 Z M 16.875 9.039062 L 16.894531 9.058594 Z M 16.988281 8.917969 L 17.109375 9.039062 L 17.097656 9.046875 L 17.09375 9.050781 L 17.082031 9.058594 L 17.078125 9.0625 L 17.0625 9.070312 L 17.054688 9.078125 L 17.046875 9.082031 L 16.953125 9.082031 L 16.941406 9.078125 L 16.933594 9.066406 L 16.921875 9.0625 L 16.917969 9.058594 L 16.90625 9.050781 L 16.898438 9.046875 L 16.890625 9.039062 L 17.007812 8.917969 Z M 17.109375 9.039062 Z M 17.558594 8.597656 L 17.109375 9.039062 L 16.988281 8.917969 L 17.441406 8.480469 L 17.578125 8.527344 L 17.558594 8.59375 Z M 17.441406 8.480469 L 17.558594 8.363281 L 17.578125 8.527344 Z M 17.511719 9.21875 L 17.417969 8.550781 L 17.585938 8.53125 L 17.679688 9.199219 Z M 17.679688 9.199219 L 17.679688 9.183594 Z M 17.679688 9.199219 L 17.578125 9.328125 L 17.570312 9.316406 L 17.5625 9.3125 L 17.554688 9.296875 L 17.554688 9.292969 L 17.550781 9.285156 L 17.542969 9.28125 L 17.542969 9.277344 L 17.535156 9.265625 L 17.535156 9.238281 L 17.707031 9.214844 L 17.707031 9.199219 L 17.707031 9.203125 L 17.707031 9.199219 L 17.699219 9.195312 L 17.707031 9.199219 L 17.699219 9.195312 Z M 17.578125 9.328125 L 17.585938 9.328125 Z M 17.679688 9.195312 L 17.707031 9.359375 L 17.652344 9.359375 L 17.660156 9.359375 L 17.640625 9.359375 L 17.632812 9.351562 L 17.621094 9.351562 L 17.605469 9.335938 L 17.597656 9.332031 L 17.699219 9.203125 L 17.695312 9.203125 L 17.699219 9.203125 L 17.6875 9.203125 L 17.695312 9.203125 L 17.6875 9.203125 L 17.695312 9.203125 L 17.671875 9.203125 L 17.6875 9.203125 L 17.671875 9.203125 L 17.679688 9.203125 Z M 17.960938 9.316406 L 17.699219 9.351562 L 17.671875 9.191406 L 17.933594 9.15625 L 17.957031 9.316406 Z M 17.933594 9.15625 L 17.929688 9.15625 Z M 17.933594 9.15625 L 18.101562 9.132812 L 18.101562 9.199219 L 18.097656 9.210938 L 18.097656 9.214844 L 18.09375 9.226562 L 18.085938 9.230469 L 18.078125 9.246094 L 18.070312 9.25 L 18.066406 9.257812 L 18.058594 9.261719 L 18.058594 9.265625 L 18.050781 9.269531 L 18.035156 9.285156 L 18.03125 9.292969 L 18.019531 9.296875 L 18.015625 9.304688 L 17.976562 9.304688 L 17.957031 9.136719 L 17.949219 9.136719 Z M 18.101562 9.132812 L 18.101562 9.125 Z M 17.960938 8.152344 L 18.101562 9.132812 L 17.933594 9.15625 L 17.796875 8.171875 L 17.816406 8.105469 L 17.957031 8.152344 Z M 17.796875 8.171875 L 17.789062 8.132812 L 17.820312 8.105469 Z M 18.378906 7.785156 L 17.933594 8.21875 L 17.816406 8.105469 L 18.257812 7.667969 Z M 18.84375 7.332031 L 18.378906 7.785156 L 18.257812 7.667969 L 18.726562 7.214844 L 18.8125 7.199219 L 18.839844 7.332031 Z M 18.726562 7.214844 L 18.765625 7.171875 L 18.820312 7.195312 L 18.730469 7.207031 Z M 20.261719 7.960938 L 18.75 7.347656 L 18.8125 7.199219 L 20.324219 7.8125 L 20.375 7.886719 L 20.261719 7.964844 Z M 20.324219 7.8125 L 20.375 7.832031 L 20.375 7.886719 Z M 20.207031 9.144531 L 20.207031 7.886719 L 20.375 7.886719 L 20.375 9.144531 L 20.34375 9.210938 Z M 20.375 9.144531 L 20.375 9.183594 L 20.34375 9.210938 Z M 19.4375 9.675781 L 20.246094 9.078125 L 20.34375 9.203125 L 19.535156 9.804688 L 19.4375 9.671875 Z M 19.535156 9.804688 L 19.542969 9.796875 L 19.535156 9.796875 Z M 19.535156 9.804688 L 19.40625 9.898438 L 19.390625 9.890625 L 19.390625 9.878906 L 19.382812 9.875 L 19.382812 9.871094 L 19.378906 9.859375 L 19.378906 9.777344 L 19.382812 9.765625 L 19.382812 9.757812 L 19.390625 9.746094 L 19.390625 9.742188 L 19.398438 9.738281 L 19.414062 9.722656 L 19.417969 9.714844 L 19.425781 9.710938 L 19.429688 9.703125 L 19.4375 9.703125 L 19.535156 9.832031 Z M 19.5625 10.101562 L 19.40625 9.898438 L 19.535156 9.804688 L 19.691406 10.007812 Z M 19.5625 10.101562 L 19.566406 10.117188 Z M 19.691406 10.007812 L 19.671875 10.171875 L 19.644531 10.171875 L 19.640625 10.164062 L 19.644531 10.164062 L 19.632812 10.160156 L 19.628906 10.15625 L 19.632812 10.15625 L 19.628906 10.148438 L 19.625 10.148438 L 19.617188 10.144531 L 19.609375 10.136719 L 19.605469 10.128906 L 19.597656 10.125 L 19.582031 10.109375 L 19.714844 10.011719 L 19.71875 10.015625 L 19.707031 10.015625 L 19.714844 10.023438 L 19.707031 10.023438 L 19.699219 10.015625 L 19.707031 10.023438 L 19.691406 10.023438 Z M 19.671875 10.171875 L 19.660156 10.171875 Z M 19.691406 10.011719 L 19.789062 10.140625 L 19.777344 10.140625 L 19.761719 10.148438 L 19.75 10.15625 L 19.699219 10.15625 L 19.71875 9.992188 L 19.722656 9.992188 L 19.6875 9.992188 L 19.691406 9.992188 L 19.679688 9.992188 Z M 19.789062 10.140625 L 19.785156 10.140625 Z M 20.34375 9.730469 L 19.789062 10.140625 L 19.691406 10.011719 L 20.246094 9.605469 L 20.382812 9.671875 L 20.351562 9.738281 Z M 20.246094 9.605469 L 20.382812 9.503906 L 20.382812 9.671875 Z M 20.214844 10.3125 L 20.214844 9.671875 L 20.382812 9.671875 L 20.382812 10.3125 Z M 20.382812 10.3125 L 20.382812 10.476562 L 20.332031 10.476562 L 20.320312 10.46875 L 20.308594 10.46875 L 20.304688 10.460938 L 20.296875 10.457031 L 20.292969 10.449219 L 20.285156 10.441406 L 20.277344 10.4375 L 20.265625 10.425781 L 20.261719 10.414062 L 20.25 10.402344 L 20.246094 10.394531 L 20.242188 10.390625 L 20.242188 10.382812 L 20.234375 10.375 L 20.234375 10.324219 L 20.402344 10.324219 Z M 20.640625 10.476562 L 20.382812 10.476562 L 20.382812 10.3125 L 20.640625 10.3125 Z M 20.640625 10.3125 L 20.8125 10.3125 L 20.8125 10.363281 L 20.804688 10.375 L 20.804688 10.378906 L 20.785156 10.402344 L 20.777344 10.402344 L 20.773438 10.410156 L 20.769531 10.414062 L 20.765625 10.421875 L 20.75 10.4375 L 20.742188 10.441406 L 20.738281 10.445312 L 20.730469 10.449219 L 20.726562 10.449219 L 20.714844 10.457031 L 20.667969 10.457031 L 20.667969 10.292969 Z M 20.8125 9.671875 L 20.8125 10.3125 L 20.640625 10.3125 L 20.640625 9.671875 L 20.777344 9.605469 Z M 20.640625 9.671875 L 20.640625 9.503906 L 20.777344 9.605469 Z M 21.230469 10.144531 L 20.675781 9.738281 L 20.773438 9.609375 L 21.328125 10.015625 L 21.230469 10.148438 Z M 21.230469 10.144531 Z M 21.320312 10.011719 L 21.347656 10.175781 L 21.292969 10.175781 L 21.28125 10.171875 L 21.273438 10.164062 L 21.265625 10.160156 L 21.261719 10.160156 L 21.253906 10.15625 L 21.347656 10.023438 L 21.335938 10.023438 L 21.339844 10.023438 L 21.328125 10.023438 L 21.335938 10.023438 L 21.308594 10.023438 Z M 21.347656 10.175781 L 21.359375 10.175781 Z M 21.320312 10.015625 L 21.453125 10.117188 L 21.449219 10.125 L 21.425781 10.144531 L 21.421875 10.148438 L 21.417969 10.148438 L 21.410156 10.15625 L 21.417969 10.15625 L 21.410156 10.160156 L 21.40625 10.164062 L 21.402344 10.171875 L 21.375 10.171875 L 21.347656 10.007812 L 21.339844 10.007812 L 21.34375 10.007812 L 21.335938 10.007812 L 21.339844 10.007812 L 21.328125 10.007812 L 21.335938 10.003906 L 21.320312 10.003906 L 21.316406 10.007812 L 21.320312 10.003906 L 21.316406 10.007812 Z M 21.320312 10.015625 L 21.320312 10.023438 Z M 21.617188 9.910156 L 21.457031 10.117188 L 21.328125 10.015625 L 21.484375 9.8125 Z M 21.484375 9.8125 L 21.492188 9.804688 Z M 21.484375 9.8125 L 21.582031 9.683594 L 21.601562 9.703125 L 21.605469 9.703125 L 21.609375 9.710938 L 21.617188 9.714844 L 21.621094 9.722656 L 21.636719 9.738281 L 21.636719 9.746094 L 21.644531 9.757812 L 21.644531 9.84375 L 21.636719 9.855469 L 21.636719 9.859375 L 21.628906 9.871094 L 21.617188 9.882812 L 21.484375 9.789062 L 21.484375 9.792969 L 21.484375 9.789062 Z M 21.484375 9.8125 L 21.464844 9.796875 Z M 20.773438 9.089844 L 21.582031 9.683594 L 21.484375 9.8125 L 20.675781 9.214844 L 20.640625 9.148438 L 20.777344 9.082031 Z M 20.675781 9.214844 L 20.640625 9.191406 L 20.640625 9.148438 Z M 20.8125 8.730469 L 20.8125 9.148438 L 20.640625 9.148438 L 20.640625 8.730469 L 20.726562 8.652344 Z M 20.640625 8.730469 L 20.640625 8.652344 L 20.726562 8.652344 Z M 20.753906 8.8125 L 20.726562 8.8125 L 20.726562 8.652344 L 20.753906 8.652344 L 20.835938 8.730469 Z M 20.835938 8.730469 L 20.835938 8.8125 L 20.753906 8.8125 Z M 20.835938 7.929688 L 20.835938 8.730469 L 20.667969 8.730469 L 20.667969 7.929688 L 20.722656 7.851562 Z M 20.667969 7.929688 L 20.667969 7.871094 L 20.722656 7.851562 Z M 22.296875 7.394531 L 20.785156 8.003906 L 20.722656 7.859375 L 22.234375 7.246094 L 22.324219 7.261719 Z M 22.234375 7.246094 L 22.285156 7.226562 L 22.324219 7.265625 L 22.234375 7.25 Z M 22.671875 7.832031 L 22.207031 7.378906 L 22.324219 7.261719 L 22.792969 7.714844 Z M 22.671875 7.832031 Z M 23.113281 8.265625 L 22.671875 7.832031 L 22.792969 7.714844 L 23.238281 8.148438 L 23.257812 8.214844 L 23.113281 8.257812 Z M 23.238281 8.148438 L 23.265625 8.179688 L 23.265625 8.21875 L 23.242188 8.152344 Z M 22.957031 9.175781 L 23.09375 8.191406 L 23.265625 8.214844 L 23.121094 9.195312 Z M 23.121094 9.195312 Z M 23.121094 9.195312 L 23.09375 9.359375 L 23.066406 9.359375 L 23.058594 9.351562 L 23.046875 9.351562 L 23.023438 9.328125 L 23.015625 9.324219 L 23.011719 9.316406 L 23.003906 9.3125 L 22.996094 9.304688 L 22.992188 9.296875 L 22.984375 9.292969 L 22.980469 9.285156 L 22.976562 9.28125 L 22.96875 9.277344 L 22.964844 9.265625 L 22.964844 9.199219 L 23.132812 9.21875 L 23.132812 9.214844 L 23.128906 9.214844 Z M 23.121094 9.195312 L 23.136719 9.195312 Z M 23.355469 9.394531 L 23.09375 9.359375 L 23.121094 9.195312 L 23.382812 9.230469 L 23.363281 9.394531 Z M 23.355469 9.394531 L 23.339844 9.394531 Z M 23.375 9.238281 L 23.484375 9.363281 L 23.472656 9.371094 L 23.457031 9.378906 L 23.414062 9.378906 L 23.417969 9.378906 L 23.402344 9.378906 L 23.410156 9.378906 L 23.394531 9.378906 L 23.414062 9.214844 L 23.417969 9.214844 L 23.410156 9.214844 L 23.414062 9.214844 L 23.402344 9.214844 L 23.414062 9.214844 L 23.398438 9.214844 L 23.402344 9.214844 L 23.382812 9.214844 L 23.375 9.21875 Z M 23.484375 9.363281 L 23.484375 9.359375 Z M 23.375 9.238281 L 23.546875 9.257812 L 23.546875 9.28125 L 23.539062 9.292969 L 23.539062 9.285156 L 23.539062 9.292969 L 23.523438 9.308594 L 23.523438 9.3125 L 23.484375 9.351562 L 23.375 9.21875 L 23.375 9.226562 L 23.375 9.21875 L 23.382812 9.214844 L 23.382812 9.21875 L 23.382812 9.214844 L 23.386719 9.210938 L 23.386719 9.226562 Z M 23.546875 9.257812 L 23.546875 9.265625 Z M 23.636719 8.585938 L 23.546875 9.257812 L 23.375 9.238281 L 23.472656 8.566406 L 23.613281 8.519531 Z M 23.472656 8.566406 L 23.492188 8.40625 L 23.613281 8.519531 Z M 23.941406 9.070312 L 23.492188 8.632812 L 23.613281 8.515625 L 24.0625 8.957031 Z M 24.054688 8.957031 L 24.179688 9.070312 L 24.171875 9.078125 L 24.160156 9.082031 L 24.15625 9.089844 L 24.152344 9.09375 L 24.140625 9.097656 L 24.136719 9.105469 L 24.128906 9.105469 L 24.117188 9.109375 L 24.109375 9.113281 L 24.007812 9.113281 L 23.992188 9.109375 L 23.984375 9.105469 L 23.980469 9.105469 L 23.972656 9.097656 L 23.957031 9.089844 L 23.953125 9.082031 L 23.941406 9.078125 L 23.9375 9.070312 L 24.054688 8.957031 L 24.074219 8.957031 Z M 24.054688 8.957031 Z M 24.359375 8.890625 L 24.171875 9.070312 L 24.050781 8.957031 L 24.242188 8.769531 L 24.355469 8.890625 Z M 24.242188 8.769531 Z M 24.242188 8.769531 L 24.359375 8.652344 L 24.363281 8.660156 L 24.371094 8.664062 L 24.378906 8.671875 L 24.386719 8.683594 L 24.390625 8.695312 L 24.390625 8.703125 L 24.402344 8.726562 L 24.402344 8.804688 L 24.398438 8.816406 L 24.390625 8.828125 L 24.386719 8.832031 L 24.386719 8.835938 L 24.371094 8.859375 L 24.363281 8.863281 L 24.359375 8.871094 L 24.355469 8.871094 L 24.242188 8.757812 L 24.242188 8.738281 Z M 23.910156 8.21875 L 24.359375 8.660156 L 24.242188 8.777344 L 23.789062 8.339844 L 23.835938 8.199219 L 23.90625 8.21875 Z M 23.789062 8.339844 L 23.671875 8.21875 L 23.835938 8.199219 Z M 24.550781 8.265625 L 23.863281 8.359375 L 23.84375 8.191406 L 24.527344 8.105469 Z M 24.527344 8.105469 L 24.511719 8.105469 Z M 24.527344 8.105469 L 24.664062 8.199219 L 24.648438 8.214844 L 24.640625 8.21875 L 24.621094 8.238281 L 24.605469 8.238281 L 24.597656 8.246094 L 24.585938 8.25 L 24.558594 8.25 L 24.535156 8.085938 L 24.53125 8.085938 L 24.535156 8.085938 L 24.53125 8.085938 L 24.535156 8.085938 L 24.53125 8.085938 L 24.535156 8.082031 L 24.53125 8.082031 L 24.535156 8.078125 Z M 24.664062 8.199219 Z M 24.527344 8.105469 L 24.695312 8.082031 L 24.695312 8.152344 L 24.6875 8.160156 L 24.6875 8.171875 L 24.550781 8.070312 L 24.542969 8.078125 L 24.542969 8.09375 L 24.542969 8.085938 L 24.542969 8.09375 L 24.542969 8.085938 L 24.542969 8.105469 Z M 24.527344 8.105469 L 24.527344 8.117188 Z M 24.660156 7.828125 L 24.695312 8.082031 L 24.527344 8.105469 L 24.488281 7.847656 Z M 24.660156 7.828125 L 24.660156 7.816406 Z M 24.496094 7.851562 L 24.476562 7.6875 L 24.53125 7.6875 L 24.542969 7.691406 L 24.550781 7.699219 L 24.554688 7.699219 L 24.570312 7.714844 L 24.578125 7.71875 L 24.578125 7.726562 L 24.585938 7.730469 L 24.589844 7.734375 L 24.597656 7.738281 L 24.597656 7.746094 L 24.605469 7.75 L 24.621094 7.765625 L 24.625 7.777344 L 24.632812 7.785156 L 24.632812 7.800781 L 24.636719 7.8125 L 24.636719 7.828125 L 24.46875 7.851562 L 24.46875 7.847656 Z M 24.476562 7.6875 L 24.460938 7.6875 Z M 23.472656 7.828125 L 24.476562 7.6875 L 24.496094 7.851562 L 23.492188 7.992188 L 23.425781 7.972656 L 23.472656 7.832031 Z M 23.492188 7.992188 L 23.449219 7.996094 L 23.417969 7.964844 L 23.484375 7.984375 Z M 22.796875 7.125 L 23.539062 7.851562 L 23.417969 7.972656 L 22.675781 7.246094 L 22.796875 7.132812 Z M 22.675781 7.246094 L 22.730469 7.296875 Z M 22.628906 6.96875 L 22.796875 7.132812 L 22.675781 7.246094 L 22.507812 7.082031 L 22.496094 6.992188 Z M 22.507812 7.082031 L 22.472656 7.046875 L 22.496094 6.992188 Z M 22.8125 6.660156 L 22.644531 7.054688 L 22.496094 6.992188 L 22.660156 6.601562 Z M 22.660156 6.601562 L 22.695312 6.515625 L 22.660156 6.605469 Z M 23.277344 5.574219 L 22.820312 6.660156 L 22.667969 6.601562 L 23.128906 5.515625 L 23.203125 5.460938 L 23.285156 5.574219 Z M 23.128906 5.515625 L 23.148438 5.460938 L 23.203125 5.460938 Z M 24.488281 5.628906 L 23.203125 5.628906 L 23.203125 5.460938 L 24.488281 5.460938 L 24.558594 5.496094 Z M 24.488281 5.460938 L 24.53125 5.460938 L 24.558594 5.496094 Z M 25.035156 6.386719 L 24.421875 5.59375 L 24.554688 5.5 L 25.167969 6.289062 L 25.03125 6.386719 Z M 25.167969 6.289062 L 25.160156 6.285156 L 25.160156 6.289062 Z M 25.160156 6.289062 L 25.257812 6.417969 L 25.25 6.425781 L 25.230469 6.441406 L 25.125 6.441406 L 25.101562 6.425781 L 25.097656 6.425781 L 25.09375 6.421875 L 25.082031 6.417969 L 25.050781 6.386719 L 25.042969 6.382812 L 25.179688 6.285156 L 25.1875 6.285156 L 25.179688 6.285156 L 25.1875 6.285156 L 25.179688 6.285156 Z M 25.257812 6.417969 L 25.25 6.421875 Z M 25.46875 6.265625 L 25.257812 6.417969 L 25.160156 6.289062 L 25.367188 6.136719 Z M 25.46875 6.265625 L 25.476562 6.253906 L 25.46875 6.261719 Z M 25.367188 6.136719 L 25.5 6.039062 L 25.503906 6.046875 L 25.511719 6.046875 L 25.519531 6.0625 L 25.527344 6.070312 L 25.53125 6.082031 L 25.53125 6.160156 L 25.527344 6.171875 L 25.519531 6.179688 L 25.519531 6.1875 L 25.511719 6.203125 L 25.503906 6.207031 L 25.496094 6.222656 L 25.484375 6.234375 L 25.476562 6.238281 L 25.472656 6.246094 L 25.375 6.117188 Z M 25.367188 6.136719 L 25.394531 6.171875 Z M 25.085938 5.5 L 25.503906 6.039062 L 25.375 6.136719 L 24.957031 5.59375 L 25.023438 5.46875 L 25.09375 5.5 Z M 24.957031 5.59375 L 24.859375 5.46875 L 25.023438 5.46875 Z M 25.65625 5.628906 L 25.023438 5.628906 L 25.023438 5.460938 L 25.65625 5.460938 Z M 25.65625 5.460938 L 25.824219 5.460938 L 25.824219 5.507812 L 25.820312 5.519531 L 25.820312 5.523438 L 25.8125 5.527344 L 25.808594 5.535156 L 25.800781 5.539062 L 25.800781 5.550781 L 25.792969 5.554688 L 25.792969 5.5625 L 25.785156 5.566406 L 25.777344 5.574219 L 25.773438 5.582031 L 25.765625 5.585938 L 25.757812 5.59375 L 25.746094 5.601562 L 25.738281 5.605469 L 25.734375 5.605469 L 25.726562 5.609375 L 25.675781 5.609375 L 25.675781 5.449219 L 25.6875 5.449219 L 25.683594 5.449219 L 25.683594 5.441406 L 25.683594 5.449219 Z M 25.824219 5.207031 L 25.824219 5.460938 L 25.65625 5.460938 L 25.65625 5.207031 Z M 25.65625 5.207031 L 25.65625 5.042969 L 25.703125 5.042969 L 25.714844 5.050781 L 25.71875 5.050781 L 25.726562 5.054688 L 25.734375 5.0625 L 25.757812 5.082031 L 25.765625 5.089844 L 25.773438 5.09375 L 25.773438 5.101562 L 25.78125 5.117188 L 25.800781 5.136719 L 25.800781 5.195312 L 25.636719 5.195312 L 25.636719 5.203125 L 25.636719 5.195312 L 25.640625 5.195312 L 25.628906 5.195312 Z M 25.65625 5.207031 "/>
</g>
</svg>
