<?xml version="1.0" encoding="UTF-8"?>
<svg xmlns="http://www.w3.org/2000/svg" xmlns:xlink="http://www.w3.org/1999/xlink" width="28px" height="28px" viewBox="0 0 28 33" version="1.1">
<g id="surface1">
<path style=" stroke:none;fill-rule:nonzero;fill:rgb(92.941176%,41.176471%,36.078431%);fill-opacity:1;" d="M 4.226562 19.628906 C 4.386719 19.523438 4.484375 19.351562 4.484375 19.164062 L 4.484375 4.371094 C 4.484375 2.558594 5.988281 1.089844 7.84375 1.089844 C 9.699219 1.089844 11.203125 2.558594 11.203125 4.371094 L 11.203125 19.164062 C 11.203125 19.351562 11.300781 19.523438 11.460938 19.621094 C 13.972656 21.191406 15.132812 24.195312 14.292969 26.992188 C 13.457031 29.789062 10.832031 31.710938 7.84375 31.710938 C 4.855469 31.710938 2.230469 29.789062 1.390625 26.992188 C 0.554688 24.195312 1.710938 21.191406 4.226562 19.621094 Z M 0.0742188 26.1875 C 0.5625 29.65625 3.394531 32.363281 6.960938 32.757812 C 10.53125 33.148438 13.914062 31.125 15.175781 27.851562 C 16.4375 24.574219 15.269531 20.875 12.324219 18.871094 L 12.324219 4.371094 C 12.324219 1.957031 10.3125 -0.00390625 7.84375 -0.00390625 C 5.371094 -0.00390625 3.363281 1.957031 3.363281 4.371094 L 3.363281 18.871094 C 0.941406 20.507812 -0.332031 23.332031 0.0742188 26.1875 Z M 0.0742188 26.1875 "/>
<path style=" stroke:none;fill-rule:nonzero;fill:rgb(92.941176%,41.176471%,36.078431%);fill-opacity:1;" d="M 6.863281 21.449219 C 7.109375 21.390625 7.28125 21.167969 7.28125 20.921875 L 7.28125 4.375 C 7.28125 4.074219 7.535156 3.828125 7.84375 3.828125 C 8.152344 3.828125 8.402344 4.074219 8.402344 4.375 L 8.402344 20.921875 C 8.402344 21.167969 8.578125 21.382812 8.824219 21.449219 C 10.253906 21.8125 11.355469 22.917969 11.667969 24.328125 C 11.988281 25.730469 11.472656 27.195312 10.332031 28.105469 C 9.414062 28.839844 8.207031 29.128906 7.046875 28.898438 C 5.269531 28.539062 3.96875 27.023438 3.925781 25.246094 C 3.882812 23.464844 5.09375 21.894531 6.863281 21.449219 Z M 6.832031 29.976562 C 7.164062 30.042969 7.5 30.074219 7.832031 30.074219 C 10.289062 30.078125 12.390625 28.359375 12.808594 25.992188 C 13.226562 23.628906 11.835938 21.3125 9.519531 20.519531 L 9.519531 4.382812 C 9.519531 3.472656 8.769531 2.738281 7.835938 2.738281 C 6.90625 2.738281 6.15625 3.472656 6.15625 4.382812 L 6.15625 20.519531 C 4.023438 21.257812 2.65625 23.292969 2.808594 25.5 C 2.96875 27.703125 4.609375 29.539062 6.828125 29.984375 Z M 6.832031 29.976562 "/>
<path style=" stroke:none;fill-rule:nonzero;fill:rgb(92.941176%,41.176471%,36.078431%);fill-opacity:1;" d="M 7.265625 27.828125 C 7.300781 27.835938 7.339844 27.839844 7.367188 27.839844 C 7.660156 27.839844 7.898438 27.625 7.921875 27.347656 C 7.949219 27.0625 7.757812 26.8125 7.472656 26.757812 C 6.828125 26.613281 6.320312 26.113281 6.191406 25.476562 C 6.136719 25.1875 5.847656 24.988281 5.546875 25.042969 C 5.242188 25.097656 5.039062 25.375 5.089844 25.667969 C 5.296875 26.75 6.15625 27.605469 7.257812 27.835938 Z M 7.265625 27.828125 "/>
<path style=" stroke:none;fill-rule:nonzero;fill:rgb(92.941176%,41.176471%,36.078431%);fill-opacity:1;" d="M 22.328125 6.042969 L 23.726562 4.675781 L 24.304688 6.042969 Z M 23.726562 7.894531 L 22.328125 6.527344 L 24.304688 6.527344 Z M 21.976562 8.804688 L 21.976562 6.871094 L 23.375 8.238281 Z M 21.976562 3.761719 L 23.375 4.328125 L 21.976562 5.691406 Z M 20.050781 8.203125 L 21.449219 6.835938 L 21.449219 8.765625 Z M 19.117188 6.492188 L 21.097656 6.492188 L 19.699219 7.859375 Z M 19.699219 4.640625 L 21.097656 6.003906 L 19.117188 6.003906 Z M 21.449219 3.726562 L 21.449219 5.65625 L 20.050781 4.289062 Z M 27.746094 6.042969 L 27 6.042969 L 27.492188 5.402344 C 27.523438 5.363281 27.515625 5.300781 27.472656 5.273438 L 27.226562 5.089844 C 27.207031 5.074219 27.183594 5.066406 27.152344 5.074219 C 27.128906 5.078125 27.105469 5.089844 27.089844 5.109375 L 26.371094 6.042969 L 24.855469 6.042969 L 24.3125 4.761719 L 24.117188 4.304688 L 24.3125 4.109375 L 25.1875 3.257812 L 26.371094 3.417969 C 26.425781 3.425781 26.46875 3.386719 26.480469 3.339844 L 26.523438 3.039062 C 26.53125 3.015625 26.519531 2.992188 26.507812 2.972656 C 26.492188 2.957031 26.46875 2.941406 26.445312 2.9375 L 25.636719 2.824219 L 26.167969 2.304688 C 26.203125 2.269531 26.203125 2.210938 26.167969 2.171875 L 25.945312 1.957031 C 25.910156 1.921875 25.847656 1.921875 25.808594 1.957031 L 25.28125 2.472656 L 25.167969 1.6875 C 25.164062 1.660156 25.152344 1.636719 25.132812 1.625 C 25.113281 1.613281 25.089844 1.609375 25.058594 1.609375 L 24.75 1.648438 C 24.695312 1.65625 24.664062 1.703125 24.671875 1.757812 L 24.835938 2.914062 L 24.3125 3.425781 L 23.765625 3.960938 L 21.984375 3.238281 L 21.984375 2.378906 L 21.953125 2.378906 L 21.953125 1.714844 L 22.90625 1.011719 C 22.949219 0.980469 22.957031 0.921875 22.925781 0.878906 L 22.742188 0.640625 C 22.730469 0.621094 22.703125 0.609375 22.679688 0.601562 C 22.65625 0.597656 22.628906 0.601562 22.613281 0.621094 L 21.960938 1.101562 L 21.960938 0.34375 C 21.960938 0.289062 21.914062 0.246094 21.859375 0.246094 L 21.550781 0.246094 C 21.503906 0.246094 21.453125 0.289062 21.453125 0.34375 L 21.453125 1.101562 L 20.800781 0.621094 C 20.78125 0.601562 20.757812 0.601562 20.726562 0.601562 C 20.703125 0.609375 20.675781 0.621094 20.664062 0.640625 L 20.480469 0.878906 C 20.449219 0.921875 20.457031 0.980469 20.5 1.011719 L 21.453125 1.714844 L 21.453125 3.195312 L 19.671875 3.917969 L 19.125 3.382812 L 18.601562 2.871094 L 18.765625 1.714844 C 18.773438 1.660156 18.738281 1.621094 18.6875 1.609375 L 18.378906 1.566406 C 18.355469 1.558594 18.328125 1.566406 18.304688 1.582031 C 18.285156 1.601562 18.273438 1.621094 18.269531 1.644531 L 18.15625 2.433594 L 17.628906 1.914062 C 17.589844 1.878906 17.527344 1.878906 17.492188 1.914062 L 17.269531 2.132812 C 17.234375 2.167969 17.234375 2.226562 17.269531 2.261719 L 17.800781 2.78125 L 16.992188 2.894531 C 16.96875 2.902344 16.945312 2.914062 16.929688 2.929688 C 16.917969 2.949219 16.914062 2.972656 16.914062 3.003906 L 16.957031 3.304688 C 16.960938 3.351562 17.011719 3.386719 17.066406 3.382812 L 18.25 3.21875 L 19.125 4.082031 L 19.320312 4.273438 L 19.125 4.734375 L 18.582031 6.019531 L 17.066406 6.019531 L 16.347656 5.085938 C 16.316406 5.042969 16.253906 5.035156 16.210938 5.066406 L 15.964844 5.246094 C 15.921875 5.277344 15.914062 5.335938 15.945312 5.378906 L 16.4375 6.019531 L 15.6875 6.019531 C 15.632812 6.019531 15.589844 6.058594 15.589844 6.113281 L 15.589844 6.414062 C 15.589844 6.46875 15.632812 6.511719 15.6875 6.511719 L 16.4375 6.511719 L 15.945312 7.148438 C 15.914062 7.191406 15.921875 7.25 15.964844 7.28125 L 16.210938 7.460938 C 16.230469 7.472656 16.253906 7.480469 16.277344 7.480469 C 16.304688 7.472656 16.328125 7.460938 16.339844 7.445312 L 17.0625 6.511719 L 18.578125 6.511719 L 19.117188 7.792969 L 19.316406 8.257812 L 19.117188 8.449219 L 18.242188 9.304688 L 17.0625 9.140625 C 17.003906 9.132812 16.960938 9.171875 16.949219 9.21875 L 16.90625 9.519531 C 16.902344 9.542969 16.914062 9.566406 16.925781 9.589844 C 16.945312 9.609375 16.960938 9.621094 16.988281 9.628906 L 17.792969 9.734375 L 17.265625 10.253906 C 17.226562 10.289062 17.226562 10.351562 17.265625 10.386719 L 17.484375 10.601562 C 17.523438 10.636719 17.585938 10.636719 17.621094 10.601562 L 18.152344 10.085938 L 18.261719 10.875 C 18.269531 10.898438 18.28125 10.921875 18.300781 10.933594 C 18.316406 10.953125 18.347656 10.953125 18.375 10.953125 L 18.679688 10.910156 C 18.738281 10.902344 18.765625 10.855469 18.761719 10.800781 L 18.59375 9.644531 L 19.117188 9.132812 L 19.667969 8.597656 L 21.449219 9.320312 L 21.449219 10.800781 L 20.492188 11.503906 C 20.449219 11.535156 20.441406 11.59375 20.472656 11.636719 L 20.660156 11.878906 C 20.675781 11.894531 20.695312 11.90625 20.71875 11.914062 C 20.746094 11.921875 20.769531 11.90625 20.792969 11.894531 L 21.449219 11.414062 L 21.449219 12.171875 C 21.449219 12.226562 21.492188 12.269531 21.546875 12.269531 L 21.855469 12.269531 C 21.910156 12.269531 21.953125 12.226562 21.953125 12.171875 L 21.953125 11.414062 L 22.605469 11.894531 C 22.625 11.90625 22.648438 11.914062 22.671875 11.914062 C 22.699219 11.90625 22.722656 11.894531 22.734375 11.878906 L 22.921875 11.636719 C 22.949219 11.59375 22.945312 11.535156 22.902344 11.503906 L 21.945312 10.800781 L 21.945312 10.308594 L 21.976562 10.308594 L 21.976562 9.363281 L 23.757812 8.640625 L 24.304688 9.175781 L 24.832031 9.6875 L 24.664062 10.84375 C 24.65625 10.898438 24.695312 10.9375 24.742188 10.953125 L 25.050781 10.992188 C 25.078125 11 25.101562 10.992188 25.125 10.976562 C 25.144531 10.957031 25.15625 10.9375 25.164062 10.914062 L 25.273438 10.128906 L 25.804688 10.644531 C 25.839844 10.679688 25.902344 10.679688 25.9375 10.644531 L 26.160156 10.429688 C 26.199219 10.390625 26.199219 10.332031 26.160156 10.296875 L 25.632812 9.777344 L 26.4375 9.667969 C 26.464844 9.664062 26.488281 9.652344 26.5 9.632812 C 26.511719 9.617188 26.523438 9.589844 26.519531 9.5625 L 26.476562 9.261719 C 26.46875 9.210938 26.417969 9.175781 26.363281 9.183594 L 25.179688 9.34375 L 24.304688 8.492188 L 24.109375 8.296875 L 24.304688 7.835938 L 24.847656 6.554688 L 26.363281 6.554688 L 27.085938 7.484375 C 27.117188 7.527344 27.175781 7.535156 27.222656 7.503906 L 27.46875 7.324219 C 27.511719 7.292969 27.515625 7.234375 27.484375 7.191406 L 26.992188 6.554688 L 27.738281 6.554688 C 27.792969 6.554688 27.835938 6.511719 27.835938 6.457031 L 27.835938 6.15625 C 27.835938 6.101562 27.792969 6.066406 27.738281 6.066406 Z M 27.746094 6.042969 "/>
<path style=" stroke:none;fill-rule:nonzero;fill:rgb(92.941176%,41.176471%,36.078431%);fill-opacity:1;" d="M 23.796875 4.742188 L 22.394531 6.109375 L 22.253906 5.96875 L 23.652344 4.605469 L 23.8125 4.632812 L 23.796875 4.734375 Z M 23.652344 4.605469 L 23.757812 4.5 L 23.8125 4.632812 Z M 24.214844 6.070312 L 23.636719 4.707031 L 23.8125 4.632812 L 24.394531 6 L 24.300781 6.132812 L 24.207031 6.070312 Z M 24.394531 6 L 24.449219 6.132812 L 24.300781 6.132812 Z M 22.324219 5.941406 L 24.300781 5.941406 L 24.300781 6.132812 L 22.324219 6.132812 L 22.253906 5.96875 Z M 22.324219 6.132812 L 22.089844 6.132812 L 22.253906 5.96875 Z M 22.390625 6.457031 L 23.789062 7.824219 L 23.648438 7.960938 L 22.25 6.59375 L 22.316406 6.433594 L 22.382812 6.464844 Z M 22.25 6.59375 L 22.082031 6.433594 L 22.316406 6.433594 Z M 24.292969 6.625 L 22.316406 6.625 L 22.316406 6.433594 L 24.292969 6.433594 L 24.386719 6.566406 Z M 24.292969 6.433594 L 24.441406 6.433594 L 24.386719 6.566406 Z M 23.621094 7.859375 L 24.203125 6.492188 L 24.378906 6.566406 L 23.800781 7.929688 L 23.640625 7.960938 Z M 23.800781 7.929688 L 23.746094 8.0625 L 23.640625 7.960938 Z M 22.058594 6.871094 L 22.058594 8.804688 L 21.859375 8.804688 L 21.859375 6.871094 L 22.027344 6.804688 Z M 21.859375 6.871094 L 21.859375 6.644531 L 22.027344 6.804688 Z M 23.289062 8.304688 L 21.890625 6.9375 L 22.03125 6.800781 L 23.429688 8.164062 L 23.402344 8.320312 L 23.296875 8.304688 Z M 23.429688 8.164062 L 23.535156 8.269531 L 23.402344 8.320312 Z M 21.929688 8.714844 L 23.328125 8.148438 L 23.402344 8.320312 L 22.003906 8.886719 L 21.867188 8.796875 L 21.929688 8.707031 Z M 22.003906 8.886719 L 21.867188 8.941406 L 21.867188 8.796875 Z M 23.328125 4.410156 L 21.929688 3.847656 L 22.003906 3.671875 L 23.402344 4.238281 L 23.429688 4.394531 Z M 23.402344 4.238281 L 23.535156 4.289062 L 23.429688 4.394531 Z M 21.898438 5.625 L 23.296875 4.261719 L 23.4375 4.398438 L 22.039062 5.765625 L 21.871094 5.699219 L 21.902344 5.632812 Z M 22.039062 5.765625 L 21.871094 5.925781 L 21.871094 5.699219 Z M 22.070312 3.765625 L 22.070312 5.699219 L 21.871094 5.699219 L 21.871094 3.765625 L 22.007812 3.675781 Z M 21.871094 3.765625 L 21.871094 3.625 L 22.007812 3.675781 Z M 21.507812 6.910156 L 20.109375 8.273438 L 19.96875 8.136719 L 21.367188 6.769531 L 21.535156 6.835938 L 21.503906 6.902344 Z M 21.367188 6.769531 L 21.535156 6.605469 L 21.535156 6.835938 Z M 21.335938 8.765625 L 21.335938 6.835938 L 21.535156 6.835938 L 21.535156 8.765625 L 21.398438 8.859375 Z M 21.535156 8.765625 L 21.535156 8.910156 L 21.398438 8.859375 Z M 20.074219 8.113281 L 21.472656 8.675781 L 21.398438 8.851562 L 20 8.285156 L 19.96875 8.128906 Z M 20 8.285156 L 19.863281 8.230469 L 19.96875 8.128906 Z M 21.078125 6.582031 L 19.101562 6.582031 L 19.101562 6.390625 L 21.078125 6.390625 L 21.144531 6.554688 Z M 21.078125 6.390625 L 21.3125 6.390625 L 21.144531 6.554688 Z M 19.613281 7.785156 L 21.011719 6.421875 L 21.152344 6.558594 L 19.753906 7.925781 L 19.59375 7.894531 L 19.613281 7.792969 Z M 19.753906 7.925781 L 19.648438 8.027344 L 19.59375 7.894531 Z M 19.191406 6.457031 L 19.773438 7.824219 L 19.59375 7.894531 L 19.015625 6.527344 L 19.105469 6.398438 L 19.199219 6.457031 Z M 19.015625 6.527344 L 18.957031 6.398438 L 19.105469 6.398438 Z M 21.011719 6.070312 L 19.613281 4.707031 L 19.753906 4.566406 L 21.152344 5.933594 L 21.085938 6.097656 L 21.015625 6.066406 Z M 21.152344 5.933594 L 21.316406 6.097656 L 21.085938 6.097656 Z M 19.105469 5.902344 L 21.085938 5.902344 L 21.085938 6.097656 L 19.105469 6.097656 L 19.015625 5.964844 Z M 19.105469 6.097656 L 18.957031 6.097656 L 19.015625 5.964844 Z M 19.777344 4.671875 L 19.199219 6.035156 L 19.019531 5.964844 L 19.597656 4.597656 L 19.757812 4.566406 Z M 19.597656 4.597656 L 19.65625 4.464844 L 19.757812 4.566406 Z M 21.34375 5.65625 L 21.34375 3.726562 L 21.539062 3.726562 L 21.539062 5.65625 L 21.375 5.722656 Z M 21.539062 5.65625 L 21.539062 5.890625 L 21.375 5.730469 L 21.539062 5.664062 Z M 20.117188 4.226562 L 21.515625 5.589844 L 21.375 5.730469 L 19.976562 4.363281 L 20.007812 4.207031 L 20.109375 4.226562 Z M 19.976562 4.363281 L 19.871094 4.261719 L 20.007812 4.207031 Z M 21.476562 3.816406 L 20.078125 4.382812 L 20.007812 4.207031 L 21.40625 3.640625 L 21.539062 3.730469 L 21.476562 3.820312 Z M 21.40625 3.640625 L 21.539062 3.585938 L 21.539062 3.730469 Z M 26.992188 5.953125 L 27.738281 5.953125 L 27.738281 6.144531 L 26.992188 6.144531 L 26.914062 5.992188 L 26.992188 5.957031 Z M 26.992188 6.144531 L 26.796875 6.144531 L 26.914062 5.992188 Z M 27.558594 5.46875 L 27.066406 6.109375 L 26.914062 5.992188 L 27.40625 5.355469 Z M 27.558594 5.46875 L 27.566406 5.464844 Z M 27.40625 5.355469 L 27.523438 5.207031 L 27.535156 5.21875 L 27.542969 5.222656 L 27.546875 5.230469 L 27.554688 5.242188 L 27.566406 5.253906 L 27.570312 5.265625 L 27.578125 5.273438 L 27.585938 5.277344 L 27.589844 5.285156 L 27.597656 5.289062 L 27.601562 5.300781 L 27.601562 5.398438 L 27.597656 5.410156 L 27.589844 5.421875 L 27.585938 5.429688 L 27.578125 5.433594 L 27.566406 5.445312 L 27.40625 5.332031 Z M 27.40625 5.355469 L 27.417969 5.363281 Z M 27.277344 5.019531 L 27.523438 5.199219 L 27.40625 5.351562 L 27.160156 5.167969 Z M 27.160156 5.167969 L 27.164062 5.167969 Z M 27.160156 5.167969 L 27.132812 4.976562 L 27.160156 4.976562 L 27.152344 4.976562 L 27.203125 4.976562 L 27.214844 4.984375 L 27.226562 4.988281 L 27.25 5.011719 L 27.128906 5.164062 L 27.140625 5.164062 L 27.132812 5.164062 L 27.148438 5.164062 L 27.140625 5.164062 L 27.164062 5.164062 L 27.160156 5.164062 L 27.171875 5.164062 Z M 27.160156 5.167969 Z M 27.160156 5.167969 L 27.003906 5.054688 L 27.003906 5.050781 L 27.011719 5.042969 L 27.015625 5.035156 L 27.023438 5.03125 L 27.035156 5.019531 L 27.046875 5.011719 L 27.054688 5.007812 L 27.0625 5.007812 L 27.066406 5 L 27.074219 4.996094 L 27.078125 4.996094 L 27.085938 4.988281 L 27.121094 4.988281 L 27.148438 5.179688 L 27.152344 5.179688 L 27.148438 5.179688 L 27.160156 5.179688 L 27.152344 5.179688 L 27.164062 5.179688 L 27.171875 5.175781 L 27.164062 5.179688 L 27.171875 5.175781 L 27.164062 5.179688 Z M 27.160156 5.167969 L 27.152344 5.175781 Z M 26.277344 5.988281 L 27 5.054688 L 27.152344 5.167969 L 26.433594 6.101562 L 26.351562 6.136719 L 26.273438 5.980469 Z M 26.433594 6.101562 L 26.402344 6.136719 L 26.351562 6.136719 Z M 24.835938 5.945312 L 26.351562 5.945312 L 26.351562 6.136719 L 24.835938 6.136719 L 24.742188 6.078125 Z M 24.835938 6.136719 L 24.769531 6.136719 L 24.742188 6.078125 Z M 24.386719 4.722656 L 24.929688 6.003906 L 24.75 6.078125 L 24.207031 4.796875 Z M 24.1875 4.265625 L 24.386719 4.722656 L 24.207031 4.796875 L 24.011719 4.339844 L 24.027344 4.238281 Z M 24.011719 4.339844 L 23.984375 4.277344 L 24.027344 4.238281 Z M 24.367188 4.175781 L 24.171875 4.371094 L 24.027344 4.238281 L 24.226562 4.042969 Z M 24.226562 4.042969 L 24.3125 3.960938 Z M 25.242188 3.320312 L 24.367188 4.175781 L 24.226562 4.039062 L 25.101562 3.183594 L 25.179688 3.160156 L 25.238281 3.320312 Z M 25.101562 3.183594 L 25.136719 3.148438 L 25.1875 3.152344 L 25.109375 3.179688 Z M 26.339844 3.507812 L 25.15625 3.347656 L 25.179688 3.152344 L 26.363281 3.316406 Z M 26.363281 3.320312 L 26.5625 3.347656 L 26.5625 3.363281 L 26.554688 3.375 L 26.554688 3.386719 L 26.550781 3.394531 L 26.542969 3.40625 L 26.5 3.449219 L 26.492188 3.453125 L 26.480469 3.460938 L 26.476562 3.460938 L 26.46875 3.464844 L 26.457031 3.472656 L 26.449219 3.472656 L 26.445312 3.480469 L 26.433594 3.484375 L 26.347656 3.484375 L 26.371094 3.292969 L 26.390625 3.292969 Z M 26.5625 3.347656 L 26.5625 3.359375 Z M 26.605469 3.046875 L 26.5625 3.347656 L 26.363281 3.320312 L 26.40625 3.019531 L 26.605469 3.050781 Z M 26.40625 3.019531 L 26.40625 3.007812 Z M 26.40625 3.019531 L 26.566406 2.90625 L 26.574219 2.917969 L 26.578125 2.925781 L 26.578125 3.007812 L 26.382812 2.980469 L 26.382812 3.019531 L 26.390625 3.027344 Z M 26.566406 2.90625 L 26.566406 2.902344 Z M 26.414062 3.019531 L 26.4375 2.828125 L 26.480469 2.828125 L 26.488281 2.835938 L 26.5 2.835938 L 26.511719 2.839844 L 26.519531 2.839844 L 26.53125 2.847656 L 26.542969 2.859375 L 26.550781 2.863281 L 26.554688 2.871094 L 26.5625 2.878906 L 26.402344 2.992188 L 26.414062 3.003906 L 26.40625 2.996094 L 26.414062 3.003906 L 26.40625 3.003906 L 26.414062 3.003906 L 26.40625 3.003906 L 26.414062 3.003906 L 26.40625 3.003906 L 26.414062 3.003906 Z M 26.414062 3.019531 L 26.402344 3.019531 Z M 25.632812 2.71875 L 26.4375 2.835938 L 26.414062 3.027344 L 25.605469 2.914062 L 25.550781 2.75 L 25.632812 2.726562 Z M 25.605469 2.914062 L 25.410156 2.890625 L 25.550781 2.75 Z M 26.214844 2.371094 L 25.6875 2.890625 L 25.546875 2.75 L 26.074219 2.234375 L 26.214844 2.367188 Z M 26.214844 2.371094 L 26.203125 2.382812 Z M 26.074219 2.238281 L 26.214844 2.101562 L 26.222656 2.105469 L 26.242188 2.125 L 26.246094 2.132812 L 26.253906 2.144531 L 26.253906 2.15625 L 26.257812 2.167969 L 26.265625 2.179688 L 26.265625 2.273438 L 26.257812 2.289062 L 26.253906 2.300781 L 26.253906 2.3125 L 26.246094 2.324219 L 26.214844 2.355469 L 26.074219 2.222656 L 26.074219 2.210938 L 26.074219 2.222656 L 26.074219 2.210938 Z M 26.074219 2.238281 Z M 25.996094 1.890625 L 26.214844 2.105469 L 26.074219 2.246094 L 25.851562 2.027344 L 25.996094 1.894531 Z M 25.851562 2.027344 Z M 25.851562 2.027344 L 25.710938 1.890625 L 25.71875 1.882812 L 25.730469 1.878906 L 25.734375 1.871094 L 25.742188 1.867188 L 25.753906 1.859375 L 25.761719 1.855469 L 25.765625 1.855469 L 25.777344 1.847656 L 25.792969 1.84375 L 25.902344 1.84375 L 25.914062 1.847656 L 25.925781 1.855469 L 25.933594 1.855469 L 25.9375 1.859375 L 25.953125 1.867188 L 25.964844 1.878906 L 25.976562 1.882812 L 25.980469 1.890625 L 25.839844 2.023438 L 25.835938 2.023438 Z M 25.1875 2.40625 L 25.71875 1.890625 L 25.859375 2.027344 L 25.328125 2.546875 L 25.164062 2.492188 L 25.1875 2.414062 Z M 25.328125 2.546875 L 25.1875 2.683594 L 25.164062 2.492188 Z M 25.242188 1.671875 L 25.355469 2.460938 L 25.15625 2.484375 L 25.046875 1.699219 L 25.242188 1.667969 Z M 25.242188 1.671875 L 25.242188 1.660156 Z M 25.050781 1.703125 L 25.167969 1.546875 L 25.175781 1.546875 L 25.179688 1.554688 L 25.1875 1.558594 L 25.21875 1.589844 L 25.21875 1.59375 L 25.222656 1.601562 L 25.230469 1.609375 L 25.238281 1.613281 L 25.238281 1.621094 L 25.238281 1.613281 L 25.242188 1.625 L 25.242188 1.65625 L 25.046875 1.6875 L 25.046875 1.703125 L 25.039062 1.699219 L 25.039062 1.691406 L 25.039062 1.699219 L 25.035156 1.691406 L 25.027344 1.6875 L 25.035156 1.691406 Z M 25.167969 1.546875 L 25.175781 1.554688 Z M 25.050781 1.703125 L 25.019531 1.511719 L 25.039062 1.511719 L 25.035156 1.511719 L 25.050781 1.511719 L 25.046875 1.511719 L 25.09375 1.511719 L 25.109375 1.515625 L 25.113281 1.523438 L 25.125 1.527344 L 25.007812 1.6875 L 25.015625 1.691406 L 25.039062 1.691406 L 25.035156 1.691406 L 25.050781 1.691406 L 25.039062 1.691406 L 25.050781 1.691406 L 25.046875 1.691406 L 25.058594 1.691406 L 25.050781 1.691406 Z M 25.019531 1.511719 L 25.003906 1.511719 Z M 24.714844 1.554688 L 25.019531 1.511719 L 25.050781 1.703125 L 24.742188 1.746094 L 24.71875 1.554688 Z M 24.742188 1.746094 L 24.761719 1.746094 Z M 24.742188 1.746094 L 24.546875 1.769531 L 24.546875 1.691406 L 24.554688 1.679688 L 24.558594 1.671875 L 24.566406 1.667969 L 24.570312 1.660156 L 24.578125 1.65625 L 24.582031 1.648438 L 24.589844 1.644531 L 24.632812 1.601562 L 24.644531 1.59375 L 24.652344 1.589844 L 24.65625 1.589844 L 24.671875 1.582031 L 24.699219 1.582031 L 24.726562 1.777344 L 24.730469 1.777344 Z M 24.742188 1.746094 L 24.742188 1.726562 Z M 24.714844 2.929688 L 24.546875 1.777344 L 24.742188 1.75 L 24.910156 2.90625 L 24.886719 2.984375 L 24.71875 2.929688 Z M 24.910156 2.90625 L 24.917969 2.957031 L 24.878906 2.992188 L 24.902344 2.914062 Z M 24.21875 3.363281 L 24.742188 2.851562 L 24.886719 2.992188 L 24.363281 3.503906 Z M 23.671875 3.898438 L 24.21875 3.363281 L 24.363281 3.503906 L 23.8125 4.039062 L 23.707031 4.054688 L 23.679688 3.898438 Z M 23.8125 4.039062 L 23.769531 4.082031 L 23.707031 4.054688 Z M 22.003906 3.160156 L 23.78125 3.882812 L 23.707031 4.054688 L 21.929688 3.335938 L 21.867188 3.242188 L 22.003906 3.152344 Z M 21.929688 3.335938 L 21.867188 3.308594 L 21.867188 3.242188 Z M 22.0625 2.382812 L 22.0625 3.242188 L 21.867188 3.242188 L 21.867188 2.382812 L 21.964844 2.289062 Z M 21.964844 2.289062 L 22.0625 2.289062 L 22.0625 2.382812 Z M 21.933594 2.289062 L 21.964844 2.289062 L 21.964844 2.480469 L 21.933594 2.480469 L 21.835938 2.382812 Z M 21.933594 2.480469 L 21.835938 2.480469 L 21.835938 2.382812 Z M 22.03125 1.722656 L 22.03125 2.382812 L 21.835938 2.382812 L 21.835938 1.722656 L 21.871094 1.644531 Z M 21.835938 1.722656 L 21.835938 1.671875 L 21.871094 1.644531 Z M 22.949219 1.097656 L 21.996094 1.800781 L 21.878906 1.648438 L 22.832031 0.945312 Z M 22.949219 1.097656 L 22.9375 1.101562 Z M 22.828125 0.945312 L 22.980469 0.832031 L 22.988281 0.835938 L 22.992188 0.84375 L 23 0.847656 L 23.007812 0.863281 L 23.007812 0.867188 L 23.011719 0.878906 L 23.011719 0.980469 L 23.007812 0.992188 L 23 1 L 22.992188 1.003906 L 22.988281 1.011719 L 22.980469 1.019531 L 22.976562 1.03125 L 22.96875 1.035156 L 22.964844 1.042969 L 22.957031 1.046875 L 22.933594 1.070312 L 22.816406 0.921875 L 22.816406 0.914062 Z M 22.828125 0.945312 L 22.820312 0.941406 Z M 22.796875 0.589844 L 22.980469 0.832031 L 22.828125 0.945312 L 22.644531 0.703125 L 22.804688 0.589844 Z M 22.644531 0.703125 L 22.648438 0.710938 Z M 22.644531 0.703125 L 22.667969 0.511719 L 22.699219 0.511719 L 22.703125 0.519531 L 22.710938 0.523438 L 22.71875 0.53125 L 22.710938 0.53125 L 22.71875 0.535156 L 22.722656 0.535156 L 22.742188 0.554688 L 22.746094 0.5625 L 22.753906 0.566406 L 22.761719 0.578125 L 22.601562 0.691406 L 22.605469 0.699219 L 22.601562 0.691406 L 22.605469 0.699219 L 22.617188 0.699219 L 22.613281 0.691406 L 22.625 0.691406 L 22.617188 0.691406 L 22.628906 0.691406 L 22.625 0.691406 L 22.636719 0.691406 Z M 22.667969 0.511719 L 22.679688 0.511719 Z M 22.644531 0.699219 L 22.527344 0.546875 L 22.550781 0.523438 L 22.558594 0.519531 L 22.648438 0.519531 L 22.625 0.710938 L 22.648438 0.710938 L 22.644531 0.710938 L 22.667969 0.710938 Z M 22.644531 0.699219 L 22.636719 0.703125 L 22.648438 0.699219 Z M 21.871094 1.03125 L 22.527344 0.546875 L 22.644531 0.699219 L 21.988281 1.179688 L 21.828125 1.101562 L 21.867188 1.023438 Z M 21.988281 1.179688 L 21.828125 1.292969 L 21.828125 1.101562 Z M 22.027344 0.34375 L 22.027344 1.101562 L 21.828125 1.101562 L 21.828125 0.34375 Z M 21.828125 0.34375 L 21.828125 0.152344 L 21.886719 0.152344 L 21.898438 0.15625 L 21.902344 0.15625 L 21.914062 0.164062 L 21.921875 0.167969 L 21.929688 0.167969 L 21.941406 0.175781 L 21.996094 0.230469 L 22.003906 0.234375 L 22.007812 0.242188 L 22.015625 0.246094 L 22.019531 0.257812 L 22.019531 0.3125 L 21.824219 0.3125 L 21.828125 0.3125 L 21.824219 0.3125 Z M 21.523438 0.152344 L 21.828125 0.152344 L 21.828125 0.34375 L 21.523438 0.34375 Z M 21.523438 0.339844 L 21.324219 0.339844 L 21.324219 0.285156 L 21.332031 0.273438 L 21.335938 0.265625 L 21.34375 0.257812 L 21.347656 0.246094 L 21.355469 0.242188 L 21.363281 0.234375 L 21.367188 0.222656 L 21.375 0.21875 L 21.378906 0.210938 L 21.386719 0.207031 L 21.390625 0.199219 L 21.398438 0.195312 L 21.40625 0.1875 L 21.417969 0.179688 L 21.421875 0.179688 L 21.429688 0.175781 L 21.441406 0.167969 L 21.449219 0.167969 L 21.460938 0.164062 L 21.515625 0.164062 L 21.515625 0.355469 L 21.507812 0.355469 L 21.515625 0.355469 L 21.507812 0.355469 L 21.515625 0.355469 Z M 21.324219 1.097656 L 21.324219 0.339844 L 21.523438 0.339844 L 21.523438 1.097656 L 21.363281 1.175781 Z M 21.523438 1.097656 L 21.523438 1.289062 L 21.363281 1.175781 Z M 20.832031 0.535156 L 21.484375 1.019531 L 21.367188 1.167969 L 20.714844 0.6875 Z M 20.714844 0.691406 L 20.683594 0.5 L 20.75 0.5 L 20.757812 0.507812 L 20.769531 0.507812 L 20.78125 0.511719 L 20.789062 0.519531 L 20.671875 0.667969 L 20.664062 0.664062 L 20.671875 0.667969 L 20.695312 0.667969 L 20.691406 0.667969 L 20.714844 0.667969 L 20.707031 0.667969 Z M 20.683594 0.5 L 20.671875 0.5 Z M 20.714844 0.6875 L 20.558594 0.574219 L 20.566406 0.566406 L 20.574219 0.5625 L 20.578125 0.554688 L 20.597656 0.535156 L 20.605469 0.53125 L 20.609375 0.523438 L 20.617188 0.523438 L 20.621094 0.519531 L 20.617188 0.519531 L 20.621094 0.511719 L 20.632812 0.507812 L 20.628906 0.507812 L 20.632812 0.5 L 20.664062 0.5 L 20.695312 0.691406 L 20.714844 0.691406 L 20.707031 0.699219 L 20.714844 0.691406 L 20.71875 0.691406 L 20.714844 0.699219 L 20.726562 0.699219 L 20.71875 0.703125 Z M 20.558594 0.574219 L 20.554688 0.578125 Z M 20.375 0.8125 L 20.558594 0.574219 L 20.714844 0.6875 L 20.53125 0.925781 Z M 20.375 0.8125 L 20.417969 0.757812 Z M 20.53125 0.925781 L 20.414062 1.078125 L 20.40625 1.070312 L 20.398438 1.066406 L 20.394531 1.058594 L 20.386719 1.054688 L 20.382812 1.046875 L 20.375 1.042969 L 20.371094 1.035156 L 20.363281 1.03125 L 20.355469 1.023438 L 20.351562 1.011719 L 20.339844 1 L 20.332031 0.988281 L 20.332031 0.890625 L 20.339844 0.878906 L 20.339844 0.875 L 20.34375 0.867188 L 20.351562 0.855469 L 20.355469 0.847656 L 20.363281 0.84375 L 20.515625 0.957031 Z M 20.414062 1.078125 Z M 21.367188 1.78125 L 20.414062 1.078125 L 20.53125 0.925781 L 21.484375 1.632812 L 21.523438 1.710938 L 21.363281 1.789062 Z M 21.484375 1.632812 L 21.523438 1.660156 L 21.523438 1.710938 Z M 21.324219 3.191406 L 21.324219 1.710938 L 21.523438 1.710938 L 21.523438 3.191406 L 21.460938 3.28125 Z M 21.523438 3.191406 L 21.523438 3.257812 L 21.460938 3.28125 Z M 19.605469 3.820312 L 21.386719 3.101562 L 21.460938 3.273438 L 19.679688 3.996094 L 19.574219 3.976562 Z M 19.679688 3.996094 L 19.617188 4.019531 L 19.570312 3.976562 L 19.671875 3.996094 Z M 19.160156 3.304688 L 19.710938 3.839844 L 19.570312 3.976562 L 19.019531 3.441406 Z M 18.636719 2.792969 L 19.160156 3.304688 L 19.019531 3.441406 L 18.496094 2.929688 L 18.472656 2.851562 L 18.636719 2.796875 Z M 18.496094 2.929688 L 18.460938 2.894531 L 18.464844 2.847656 L 18.488281 2.925781 Z M 18.828125 1.722656 L 18.664062 2.878906 L 18.464844 2.851562 L 18.632812 1.699219 Z M 18.828125 1.722656 L 18.828125 1.738281 Z M 18.636719 1.699219 L 18.664062 1.503906 L 18.679688 1.503906 L 18.695312 1.511719 L 18.707031 1.511719 L 18.730469 1.535156 L 18.742188 1.542969 L 18.75 1.546875 L 18.753906 1.554688 L 18.761719 1.558594 L 18.765625 1.566406 L 18.773438 1.570312 L 18.8125 1.609375 L 18.816406 1.621094 L 18.816406 1.699219 L 18.621094 1.671875 Z M 18.664062 1.503906 Z M 18.355469 1.464844 L 18.664062 1.503906 L 18.636719 1.699219 L 18.328125 1.65625 Z M 18.328125 1.65625 L 18.316406 1.65625 Z M 18.328125 1.65625 L 18.207031 1.503906 L 18.214844 1.5 L 18.21875 1.492188 L 18.230469 1.488281 L 18.242188 1.480469 L 18.257812 1.476562 L 18.3125 1.476562 L 18.304688 1.476562 L 18.328125 1.476562 L 18.300781 1.667969 L 18.292969 1.667969 L 18.304688 1.667969 L 18.292969 1.667969 L 18.316406 1.667969 L 18.3125 1.667969 L 18.316406 1.667969 L 18.3125 1.667969 L 18.324219 1.667969 L 18.316406 1.667969 L 18.324219 1.667969 Z M 18.207031 1.503906 L 18.214844 1.5 L 18.199219 1.503906 Z M 18.328125 1.65625 L 18.132812 1.632812 L 18.132812 1.59375 L 18.140625 1.589844 L 18.140625 1.582031 L 18.144531 1.578125 L 18.152344 1.566406 L 18.15625 1.558594 L 18.164062 1.554688 L 18.167969 1.546875 L 18.175781 1.542969 L 18.183594 1.535156 L 18.1875 1.535156 L 18.3125 1.6875 L 18.316406 1.679688 L 18.316406 1.660156 L 18.316406 1.667969 L 18.316406 1.65625 Z M 18.328125 1.65625 L 18.328125 1.667969 Z M 18.023438 2.417969 L 18.132812 1.632812 L 18.328125 1.65625 L 18.21875 2.445312 L 18.054688 2.496094 L 18.027344 2.417969 Z M 18.21875 2.445312 L 18.195312 2.636719 L 18.054688 2.496094 Z M 17.664062 1.847656 L 18.195312 2.367188 L 18.054688 2.503906 L 17.523438 1.988281 L 17.664062 1.855469 Z M 17.523438 1.988281 Z M 17.523438 1.988281 L 17.382812 1.855469 L 17.386719 1.847656 L 17.398438 1.84375 L 17.410156 1.832031 L 17.425781 1.824219 L 17.429688 1.816406 L 17.4375 1.816406 L 17.449219 1.8125 L 17.460938 1.804688 L 17.570312 1.804688 L 17.585938 1.8125 L 17.597656 1.816406 L 17.601562 1.816406 L 17.609375 1.824219 L 17.621094 1.832031 L 17.628906 1.835938 L 17.632812 1.84375 L 17.644531 1.847656 L 17.652344 1.855469 L 17.511719 1.988281 Z M 17.523438 1.988281 L 17.578125 1.933594 Z M 17.164062 2.066406 L 17.386719 1.847656 L 17.527344 1.980469 L 17.308594 2.195312 Z M 17.308594 2.195312 L 17.195312 2.304688 Z M 17.308594 2.191406 L 17.164062 2.328125 L 17.140625 2.304688 L 17.132812 2.300781 L 17.128906 2.289062 L 17.121094 2.273438 L 17.121094 2.117188 L 17.128906 2.105469 L 17.132812 2.09375 L 17.140625 2.089844 L 17.164062 2.066406 L 17.308594 2.203125 L 17.308594 2.214844 Z M 17.695312 2.839844 L 17.164062 2.324219 L 17.308594 2.183594 L 17.835938 2.703125 L 17.78125 2.863281 L 17.703125 2.839844 Z M 17.835938 2.703125 L 17.980469 2.839844 L 17.78125 2.863281 Z M 16.945312 2.785156 L 17.75 2.671875 L 17.777344 2.863281 L 16.96875 2.980469 L 16.9375 2.792969 Z M 16.945312 2.785156 L 16.949219 2.785156 Z M 16.972656 2.972656 L 16.8125 2.863281 L 16.820312 2.859375 L 16.820312 2.851562 L 16.828125 2.847656 L 16.832031 2.839844 L 16.839844 2.835938 L 16.84375 2.828125 L 16.851562 2.824219 L 16.871094 2.804688 L 16.882812 2.796875 L 16.886719 2.796875 L 16.882812 2.796875 L 16.894531 2.792969 L 16.902344 2.792969 L 16.894531 2.792969 L 16.914062 2.792969 L 16.945312 2.980469 L 16.949219 2.980469 L 16.945312 2.980469 L 16.949219 2.980469 L 16.945312 2.980469 L 16.960938 2.980469 L 16.96875 2.972656 Z M 16.8125 2.863281 L 16.808594 2.871094 Z M 16.972656 2.972656 L 16.777344 2.996094 L 16.777344 2.90625 L 16.785156 2.902344 L 16.789062 2.894531 L 16.949219 3.003906 L 16.949219 2.984375 L 16.949219 2.992188 L 16.949219 2.960938 L 16.949219 2.96875 Z M 16.777344 2.996094 L 16.777344 3.007812 Z M 16.820312 3.296875 L 16.777344 2.996094 L 16.972656 2.972656 L 17.019531 3.273438 Z M 17.019531 3.273438 L 17.019531 3.261719 Z M 17.019531 3.273438 L 17.042969 3.464844 L 16.960938 3.464844 L 16.949219 3.460938 L 16.945312 3.453125 L 16.9375 3.453125 L 16.925781 3.449219 L 16.894531 3.417969 L 16.886719 3.414062 L 16.882812 3.40625 L 16.875 3.402344 L 16.871094 3.394531 L 16.859375 3.382812 L 16.851562 3.371094 L 16.839844 3.359375 L 16.839844 3.328125 L 17.035156 3.304688 L 17.042969 3.304688 L 17.035156 3.304688 Z M 17.042969 3.464844 L 17.054688 3.464844 Z M 18.226562 3.304688 L 17.042969 3.464844 L 17.019531 3.273438 L 18.199219 3.113281 L 18.28125 3.136719 L 18.226562 3.296875 Z M 18.199219 3.113281 L 18.25 3.105469 L 18.285156 3.140625 L 18.207031 3.117188 Z M 19.019531 4.132812 L 18.144531 3.273438 L 18.285156 3.136719 L 19.160156 3.996094 Z M 19.019531 4.132812 Z M 19.21875 4.328125 L 19.019531 4.132812 L 19.160156 3.996094 L 19.359375 4.1875 L 19.378906 4.289062 L 19.21875 4.320312 Z M 19.359375 4.1875 L 19.410156 4.230469 L 19.382812 4.289062 L 19.363281 4.1875 Z M 19 4.683594 L 19.199219 4.21875 L 19.378906 4.289062 L 19.179688 4.753906 Z M 18.460938 5.964844 L 19 4.683594 L 19.179688 4.753906 L 18.636719 6.035156 L 18.546875 6.097656 L 18.453125 5.964844 Z M 18.636719 6.035156 L 18.613281 6.097656 L 18.546875 6.097656 Z M 17.03125 5.902344 L 18.546875 5.902344 L 18.546875 6.097656 L 17.03125 6.097656 L 16.949219 6.058594 Z M 17.03125 6.097656 L 16.980469 6.097656 L 16.949219 6.058594 Z M 16.390625 5.011719 L 17.109375 5.945312 L 16.957031 6.058594 L 16.234375 5.128906 L 16.394531 5.011719 Z M 16.234375 5.128906 L 16.234375 5.132812 Z M 16.242188 5.128906 L 16.125 4.976562 L 16.136719 4.972656 L 16.144531 4.964844 L 16.148438 4.964844 L 16.15625 4.957031 L 16.167969 4.953125 L 16.179688 4.945312 L 16.191406 4.941406 L 16.304688 4.941406 L 16.316406 4.945312 L 16.320312 4.953125 L 16.328125 4.957031 L 16.332031 4.964844 L 16.339844 4.972656 L 16.351562 4.976562 L 16.382812 5.007812 L 16.222656 5.121094 L 16.234375 5.121094 L 16.222656 5.121094 Z M 16.242188 5.128906 L 16.246094 5.121094 Z M 15.871094 5.15625 L 16.117188 4.976562 L 16.234375 5.128906 L 15.988281 5.308594 L 15.871094 5.152344 Z M 15.988281 5.308594 L 15.976562 5.3125 Z M 15.988281 5.300781 L 15.835938 5.417969 L 15.828125 5.410156 L 15.824219 5.402344 L 15.816406 5.398438 L 15.808594 5.386719 L 15.804688 5.375 L 15.804688 5.363281 L 15.796875 5.351562 L 15.796875 5.273438 L 15.804688 5.257812 L 15.804688 5.253906 L 15.808594 5.242188 L 15.816406 5.230469 L 15.816406 5.222656 L 15.824219 5.21875 L 15.828125 5.207031 L 15.847656 5.1875 L 15.851562 5.179688 L 15.867188 5.167969 L 15.878906 5.15625 L 15.996094 5.3125 L 16 5.308594 L 16 5.3125 L 16 5.300781 L 16 5.308594 Z M 15.988281 5.300781 L 15.996094 5.308594 Z M 16.320312 6.054688 L 15.828125 5.417969 L 15.984375 5.300781 L 16.476562 5.941406 L 16.394531 6.097656 L 16.316406 6.058594 Z M 16.476562 5.941406 L 16.59375 6.097656 L 16.394531 6.097656 Z M 15.648438 5.902344 L 16.402344 5.902344 L 16.402344 6.097656 L 15.648438 6.097656 Z M 15.648438 6.097656 L 15.453125 6.097656 L 15.453125 6.042969 L 15.457031 6.03125 L 15.457031 6.023438 L 15.464844 6.019531 L 15.472656 6.011719 L 15.476562 6.003906 L 15.484375 6 L 15.488281 5.992188 L 15.496094 5.988281 L 15.5 5.980469 L 15.507812 5.976562 L 15.539062 5.945312 L 15.546875 5.941406 L 15.550781 5.941406 L 15.5625 5.933594 L 15.617188 5.933594 L 15.617188 6.125 Z M 15.453125 6.398438 L 15.453125 6.097656 L 15.648438 6.097656 L 15.648438 6.398438 Z M 15.648438 6.398438 L 15.648438 6.589844 L 15.59375 6.589844 L 15.582031 6.582031 L 15.574219 6.582031 L 15.539062 6.546875 L 15.53125 6.542969 L 15.527344 6.535156 L 15.507812 6.515625 L 15.5 6.511719 L 15.496094 6.503906 L 15.488281 6.5 L 15.488281 6.492188 L 15.484375 6.480469 L 15.484375 6.425781 L 15.679688 6.425781 Z M 16.402344 6.589844 L 15.648438 6.589844 L 15.648438 6.398438 L 16.402344 6.398438 L 16.480469 6.554688 Z M 16.402344 6.398438 L 16.597656 6.398438 L 16.480469 6.554688 Z M 15.828125 7.070312 L 16.320312 6.433594 L 16.476562 6.546875 L 15.984375 7.183594 Z M 15.984375 7.183594 Z M 15.984375 7.183594 L 15.867188 7.335938 L 15.859375 7.328125 L 15.851562 7.324219 L 15.847656 7.316406 L 15.839844 7.3125 L 15.835938 7.304688 L 15.828125 7.300781 L 15.824219 7.292969 L 15.816406 7.289062 L 15.808594 7.28125 L 15.808594 7.273438 L 15.804688 7.261719 L 15.796875 7.25 L 15.796875 7.246094 L 15.792969 7.234375 L 15.792969 7.15625 L 15.796875 7.144531 L 15.796875 7.128906 L 15.804688 7.117188 L 15.808594 7.105469 L 15.816406 7.101562 L 15.828125 7.089844 L 15.984375 7.203125 L 15.984375 7.210938 L 15.984375 7.203125 L 15.984375 7.210938 Z M 15.867188 7.335938 Z M 16.113281 7.515625 L 15.867188 7.335938 L 15.984375 7.183594 L 16.230469 7.367188 Z M 16.113281 7.515625 Z M 16.230469 7.359375 L 16.253906 7.550781 L 16.230469 7.550781 L 16.234375 7.550781 L 16.214844 7.550781 L 16.222656 7.550781 L 16.171875 7.550781 L 16.160156 7.546875 L 16.167969 7.546875 L 16.148438 7.539062 L 16.15625 7.539062 L 16.148438 7.535156 L 16.144531 7.527344 L 16.136719 7.523438 L 16.253906 7.371094 L 16.246094 7.371094 L 16.253906 7.378906 L 16.242188 7.371094 L 16.253906 7.378906 L 16.222656 7.378906 L 16.234375 7.378906 L 16.222656 7.378906 L 16.230469 7.378906 L 16.214844 7.378906 Z M 16.230469 7.359375 L 16.222656 7.359375 Z M 16.230469 7.359375 L 16.382812 7.472656 L 16.351562 7.503906 L 16.347656 7.511719 L 16.339844 7.511719 L 16.332031 7.515625 L 16.328125 7.523438 L 16.320312 7.523438 L 16.316406 7.527344 L 16.277344 7.527344 L 16.253906 7.335938 L 16.242188 7.335938 L 16.246094 7.335938 L 16.230469 7.335938 L 16.234375 7.328125 L 16.230469 7.328125 L 16.222656 7.335938 Z M 17.105469 6.542969 L 16.382812 7.472656 L 16.230469 7.359375 L 16.949219 6.425781 L 17.03125 6.390625 L 17.109375 6.542969 Z M 16.949219 6.425781 L 16.980469 6.390625 L 17.03125 6.390625 Z M 18.546875 6.578125 L 17.03125 6.578125 L 17.03125 6.386719 L 18.546875 6.386719 L 18.636719 6.445312 Z M 18.546875 6.386719 L 18.613281 6.386719 L 18.636719 6.445312 Z M 18.996094 7.796875 L 18.453125 6.515625 L 18.632812 6.445312 L 19.175781 7.726562 Z M 19.191406 8.261719 L 18.996094 7.796875 L 19.175781 7.726562 L 19.371094 8.191406 L 19.351562 8.292969 Z M 19.371094 8.191406 L 19.394531 8.25 L 19.351562 8.296875 L 19.371094 8.195312 Z M 19.015625 8.351562 L 19.210938 8.160156 L 19.351562 8.296875 L 19.15625 8.492188 Z M 19.15625 8.492188 Z M 18.140625 9.210938 L 19.015625 8.359375 L 19.15625 8.496094 L 18.28125 9.351562 L 18.199219 9.375 L 18.144531 9.210938 Z M 18.28125 9.351562 L 18.242188 9.386719 L 18.195312 9.382812 L 18.273438 9.355469 Z M 17.042969 9.027344 L 18.226562 9.1875 L 18.199219 9.382812 L 17.019531 9.21875 Z M 17.019531 9.21875 L 17 9.21875 Z M 17.019531 9.21875 L 16.820312 9.195312 L 16.820312 9.160156 L 16.828125 9.152344 L 16.832031 9.140625 L 16.851562 9.121094 L 16.859375 9.117188 L 16.863281 9.109375 L 16.871094 9.105469 L 16.875 9.097656 L 16.882812 9.09375 L 16.886719 9.085938 L 16.894531 9.082031 L 16.902344 9.074219 L 16.90625 9.066406 L 16.914062 9.0625 L 16.917969 9.054688 L 16.929688 9.050781 L 17.019531 9.050781 L 16.988281 9.242188 L 16.980469 9.242188 L 16.988281 9.242188 L 16.988281 9.238281 Z M 17.019531 9.21875 L 17.019531 9.230469 Z M 16.777344 9.496094 L 16.820312 9.195312 L 17.019531 9.21875 L 16.972656 9.519531 Z M 16.777344 9.496094 L 16.777344 9.484375 Z M 16.96875 9.519531 L 16.8125 9.632812 L 16.8125 9.617188 L 16.808594 9.609375 L 16.800781 9.597656 L 16.796875 9.585938 L 16.796875 9.527344 L 16.992188 9.550781 L 16.992188 9.554688 L 16.992188 9.511719 L 16.992188 9.519531 L 16.992188 9.507812 Z M 16.8125 9.632812 L 16.8125 9.640625 Z M 16.96875 9.519531 L 16.945312 9.710938 L 16.914062 9.710938 L 16.90625 9.707031 L 16.902344 9.699219 L 16.894531 9.695312 L 16.902344 9.695312 L 16.894531 9.6875 L 16.882812 9.683594 L 16.875 9.675781 L 16.871094 9.667969 L 16.863281 9.664062 L 16.859375 9.65625 L 16.851562 9.652344 L 16.84375 9.644531 L 17 9.53125 L 16.992188 9.527344 L 16.988281 9.527344 L 16.992188 9.53125 L 16.980469 9.53125 L 16.988281 9.53125 L 16.972656 9.53125 L 16.980469 9.53125 L 16.96875 9.53125 Z M 16.945312 9.710938 L 16.929688 9.710938 Z M 17.75 9.820312 L 16.945312 9.710938 L 16.96875 9.519531 L 17.777344 9.628906 L 17.832031 9.789062 L 17.75 9.8125 Z M 17.777344 9.628906 L 17.972656 9.652344 L 17.832031 9.789062 Z M 17.164062 10.167969 L 17.695312 9.652344 L 17.835938 9.789062 L 17.308594 10.308594 Z M 17.308594 10.300781 L 17.164062 10.433594 L 17.152344 10.421875 L 17.148438 10.414062 L 17.140625 10.410156 L 17.132812 10.402344 L 17.128906 10.390625 L 17.121094 10.378906 L 17.121094 10.375 L 17.117188 10.367188 L 17.117188 10.242188 L 17.121094 10.234375 L 17.128906 10.222656 L 17.140625 10.210938 L 17.148438 10.199219 L 17.160156 10.1875 L 17.164062 10.179688 L 17.308594 10.320312 L 17.308594 10.3125 L 17.308594 10.324219 Z M 17.308594 10.300781 L 17.277344 10.273438 L 17.300781 10.296875 Z M 17.386719 10.652344 L 17.164062 10.433594 L 17.308594 10.300781 L 17.527344 10.519531 L 17.394531 10.65625 Z M 17.386719 10.652344 L 17.410156 10.675781 Z M 17.523438 10.511719 L 17.664062 10.652344 L 17.652344 10.664062 L 17.644531 10.667969 L 17.632812 10.675781 L 17.628906 10.679688 L 17.617188 10.6875 L 17.609375 10.691406 L 17.601562 10.699219 L 17.589844 10.703125 L 17.480469 10.703125 L 17.46875 10.699219 L 17.457031 10.6875 L 17.441406 10.679688 L 17.4375 10.675781 L 17.425781 10.667969 L 17.417969 10.664062 L 17.40625 10.652344 L 17.542969 10.511719 Z M 17.664062 10.652344 Z M 18.195312 10.132812 L 17.664062 10.652344 L 17.523438 10.511719 L 18.054688 9.996094 L 18.21875 10.050781 L 18.195312 10.128906 Z M 18.054688 9.996094 L 18.195312 9.855469 L 18.21875 10.050781 Z M 18.140625 10.867188 L 18.027344 10.078125 L 18.226562 10.054688 L 18.335938 10.84375 Z M 18.335938 10.84375 L 18.335938 10.824219 Z M 18.335938 10.84375 L 18.21875 10.992188 L 18.207031 10.980469 L 18.199219 10.976562 L 18.195312 10.964844 L 18.1875 10.957031 L 18.1875 10.953125 L 18.183594 10.945312 L 18.175781 10.9375 L 18.175781 10.933594 L 18.167969 10.921875 L 18.167969 10.886719 L 18.367188 10.859375 L 18.367188 10.84375 L 18.367188 10.847656 L 18.367188 10.84375 L 18.359375 10.835938 L 18.367188 10.84375 L 18.359375 10.835938 Z M 18.21875 10.992188 L 18.226562 10.992188 Z M 18.335938 10.835938 L 18.367188 11.03125 L 18.34375 11.03125 L 18.347656 11.03125 L 18.304688 11.03125 L 18.3125 11.03125 L 18.292969 11.03125 L 18.28125 11.023438 L 18.269531 11.019531 L 18.257812 11.011719 L 18.25 11.003906 L 18.242188 11 L 18.359375 10.847656 L 18.355469 10.847656 L 18.359375 10.847656 L 18.347656 10.847656 L 18.355469 10.847656 L 18.34375 10.847656 L 18.355469 10.847656 L 18.328125 10.847656 L 18.34375 10.847656 L 18.328125 10.847656 L 18.335938 10.847656 Z M 18.667969 10.980469 L 18.359375 11.023438 L 18.328125 10.832031 L 18.636719 10.789062 L 18.664062 10.980469 Z M 18.636719 10.789062 L 18.632812 10.789062 Z M 18.636719 10.789062 L 18.835938 10.765625 L 18.835938 10.84375 L 18.828125 10.855469 L 18.828125 10.859375 L 18.824219 10.875 L 18.816406 10.878906 L 18.8125 10.886719 L 18.804688 10.898438 L 18.796875 10.902344 L 18.792969 10.910156 L 18.785156 10.914062 L 18.78125 10.921875 L 18.773438 10.925781 L 18.753906 10.945312 L 18.75 10.953125 L 18.738281 10.957031 L 18.730469 10.964844 L 18.6875 10.964844 L 18.664062 10.769531 L 18.65625 10.769531 Z M 18.835938 10.765625 L 18.835938 10.753906 Z M 18.667969 9.609375 L 18.835938 10.765625 L 18.636719 10.789062 L 18.472656 9.632812 L 18.496094 9.554688 L 18.664062 9.609375 Z M 18.472656 9.632812 L 18.464844 9.585938 L 18.503906 9.550781 L 18.476562 9.628906 Z M 19.160156 9.175781 L 18.636719 9.6875 L 18.496094 9.550781 L 19.019531 9.039062 Z M 19.710938 8.640625 L 19.160156 9.175781 L 19.019531 9.039062 L 19.570312 8.503906 L 19.671875 8.484375 L 19.703125 8.640625 Z M 19.570312 8.503906 L 19.617188 8.453125 L 19.679688 8.480469 L 19.574219 8.496094 Z M 21.378906 9.382812 L 19.597656 8.660156 L 19.671875 8.484375 L 21.453125 9.207031 L 21.515625 9.296875 L 21.378906 9.386719 Z M 21.453125 9.207031 L 21.515625 9.230469 L 21.515625 9.296875 Z M 21.316406 10.777344 L 21.316406 9.296875 L 21.515625 9.296875 L 21.515625 10.777344 L 21.476562 10.855469 Z M 21.515625 10.777344 L 21.515625 10.824219 L 21.476562 10.855469 Z M 20.40625 11.402344 L 21.363281 10.699219 L 21.476562 10.847656 L 20.523438 11.554688 L 20.40625 11.398438 Z M 20.523438 11.554688 L 20.53125 11.546875 L 20.523438 11.546875 Z M 20.523438 11.554688 L 20.371094 11.667969 L 20.363281 11.660156 L 20.355469 11.65625 L 20.351562 11.644531 L 20.34375 11.636719 L 20.34375 11.632812 L 20.339844 11.621094 L 20.339844 11.523438 L 20.34375 11.511719 L 20.34375 11.5 L 20.351562 11.488281 L 20.355469 11.480469 L 20.363281 11.476562 L 20.382812 11.457031 L 20.386719 11.449219 L 20.394531 11.445312 L 20.398438 11.4375 L 20.40625 11.433594 L 20.523438 11.589844 Z M 20.554688 11.90625 L 20.371094 11.667969 L 20.523438 11.554688 L 20.707031 11.792969 Z M 20.554688 11.90625 L 20.558594 11.921875 Z M 20.707031 11.792969 L 20.683594 11.988281 L 20.652344 11.988281 L 20.648438 11.980469 L 20.652344 11.980469 L 20.640625 11.972656 L 20.632812 11.96875 L 20.640625 11.96875 L 20.632812 11.960938 L 20.628906 11.960938 L 20.621094 11.957031 L 20.617188 11.949219 L 20.609375 11.945312 L 20.605469 11.9375 L 20.597656 11.933594 L 20.578125 11.914062 L 20.734375 11.800781 L 20.738281 11.804688 L 20.726562 11.804688 L 20.734375 11.8125 L 20.726562 11.8125 L 20.71875 11.804688 L 20.726562 11.8125 L 20.707031 11.8125 Z M 20.683594 11.988281 L 20.671875 11.988281 Z M 20.707031 11.800781 L 20.824219 11.949219 L 20.808594 11.949219 L 20.800781 11.957031 L 20.789062 11.960938 L 20.777344 11.96875 L 20.714844 11.96875 L 20.738281 11.777344 L 20.746094 11.777344 L 20.703125 11.777344 L 20.707031 11.777344 L 20.695312 11.777344 Z M 20.824219 11.949219 L 20.820312 11.949219 Z M 21.476562 11.46875 L 20.824219 11.949219 L 20.707031 11.800781 L 21.363281 11.320312 L 21.523438 11.398438 L 21.484375 11.476562 Z M 21.363281 11.320312 L 21.523438 11.203125 L 21.523438 11.398438 Z M 21.324219 12.15625 L 21.324219 11.398438 L 21.523438 11.398438 L 21.523438 12.15625 Z M 21.523438 12.15625 L 21.523438 12.347656 L 21.460938 12.347656 L 21.449219 12.339844 L 21.441406 12.339844 L 21.433594 12.335938 L 21.429688 12.328125 L 21.421875 12.324219 L 21.417969 12.316406 L 21.410156 12.3125 L 21.40625 12.304688 L 21.398438 12.300781 L 21.386719 12.289062 L 21.378906 12.273438 L 21.367188 12.261719 L 21.363281 12.25 L 21.355469 12.246094 L 21.355469 12.238281 L 21.347656 12.226562 L 21.347656 12.167969 L 21.546875 12.167969 Z M 21.828125 12.347656 L 21.523438 12.347656 L 21.523438 12.15625 L 21.828125 12.15625 Z M 21.828125 12.15625 L 22.027344 12.15625 L 22.027344 12.214844 L 22.019531 12.226562 L 22.019531 12.234375 L 21.996094 12.257812 L 21.988281 12.261719 L 21.984375 12.269531 L 21.976562 12.273438 L 21.972656 12.28125 L 21.953125 12.300781 L 21.945312 12.304688 L 21.941406 12.3125 L 21.933594 12.316406 L 21.929688 12.316406 L 21.914062 12.324219 L 21.859375 12.324219 L 21.859375 12.128906 Z M 22.027344 11.398438 L 22.027344 12.15625 L 21.828125 12.15625 L 21.828125 11.398438 L 21.988281 11.320312 Z M 21.828125 11.398438 L 21.828125 11.203125 L 21.988281 11.320312 Z M 22.519531 11.957031 L 21.867188 11.476562 L 21.984375 11.324219 L 22.636719 11.804688 L 22.519531 11.960938 Z M 22.519531 11.957031 Z M 22.628906 11.800781 L 22.660156 11.992188 L 22.59375 11.992188 L 22.582031 11.988281 L 22.570312 11.980469 L 22.5625 11.972656 L 22.558594 11.972656 L 22.550781 11.96875 L 22.660156 11.8125 L 22.644531 11.8125 L 22.648438 11.8125 L 22.636719 11.8125 L 22.644531 11.8125 L 22.613281 11.8125 Z M 22.660156 11.992188 L 22.671875 11.992188 Z M 22.628906 11.804688 L 22.785156 11.921875 L 22.777344 11.933594 L 22.753906 11.957031 L 22.746094 11.960938 L 22.742188 11.960938 L 22.734375 11.96875 L 22.742188 11.96875 L 22.734375 11.972656 L 22.730469 11.980469 L 22.722656 11.988281 L 22.691406 11.988281 L 22.660156 11.792969 L 22.648438 11.792969 L 22.65625 11.792969 L 22.644531 11.792969 L 22.648438 11.792969 L 22.636719 11.792969 L 22.644531 11.789062 L 22.628906 11.789062 L 22.625 11.792969 L 22.628906 11.789062 L 22.625 11.792969 Z M 22.628906 11.804688 L 22.628906 11.8125 Z M 22.976562 11.679688 L 22.789062 11.921875 L 22.636719 11.804688 L 22.820312 11.566406 Z M 22.820312 11.566406 L 22.832031 11.554688 Z M 22.820312 11.566406 L 22.9375 11.414062 L 22.957031 11.433594 L 22.964844 11.4375 L 22.96875 11.445312 L 22.976562 11.449219 L 22.980469 11.457031 L 23 11.476562 L 23 11.488281 L 23.007812 11.5 L 23.007812 11.601562 L 23 11.613281 L 23 11.621094 L 22.992188 11.632812 L 22.976562 11.648438 L 22.820312 11.535156 L 22.820312 11.542969 L 22.820312 11.535156 Z M 22.820312 11.566406 L 22.796875 11.546875 Z M 21.984375 10.710938 L 22.9375 11.414062 L 22.820312 11.566406 L 21.867188 10.859375 L 21.828125 10.78125 L 21.988281 10.703125 Z M 21.867188 10.859375 L 21.828125 10.832031 L 21.828125 10.78125 Z M 22.027344 10.289062 L 22.027344 10.78125 L 21.828125 10.78125 L 21.828125 10.289062 L 21.929688 10.195312 Z M 21.828125 10.289062 L 21.828125 10.195312 L 21.929688 10.195312 Z M 21.960938 10.386719 L 21.929688 10.386719 L 21.929688 10.195312 L 21.960938 10.195312 L 22.058594 10.289062 Z M 22.058594 10.289062 L 22.058594 10.386719 L 21.960938 10.386719 Z M 22.058594 9.34375 L 22.058594 10.289062 L 21.859375 10.289062 L 21.859375 9.34375 L 21.921875 9.253906 Z M 21.859375 9.34375 L 21.859375 9.277344 L 21.921875 9.253906 Z M 23.777344 8.714844 L 21.996094 9.433594 L 21.921875 9.261719 L 23.703125 8.539062 L 23.808594 8.558594 Z M 23.703125 8.539062 L 23.765625 8.515625 L 23.808594 8.5625 L 23.703125 8.542969 Z M 24.21875 9.230469 L 23.671875 8.695312 L 23.8125 8.558594 L 24.363281 9.09375 Z M 24.21875 9.230469 Z M 24.742188 9.742188 L 24.21875 9.230469 L 24.363281 9.09375 L 24.886719 9.605469 L 24.910156 9.683594 L 24.742188 9.734375 Z M 24.886719 9.605469 L 24.921875 9.640625 L 24.917969 9.6875 L 24.890625 9.609375 Z M 24.554688 10.8125 L 24.71875 9.65625 L 24.917969 9.683594 L 24.75 10.835938 Z M 24.75 10.835938 Z M 24.75 10.835938 L 24.71875 11.03125 L 24.6875 11.03125 L 24.675781 11.023438 L 24.671875 11.023438 L 24.664062 11.019531 L 24.652344 11.011719 L 24.632812 10.992188 L 24.625 10.988281 L 24.621094 10.980469 L 24.613281 10.976562 L 24.609375 10.96875 L 24.601562 10.964844 L 24.597656 10.957031 L 24.589844 10.953125 L 24.582031 10.945312 L 24.578125 10.9375 L 24.570312 10.933594 L 24.566406 10.921875 L 24.566406 10.84375 L 24.761719 10.867188 L 24.761719 10.859375 L 24.757812 10.859375 Z M 24.75 10.835938 L 24.769531 10.835938 Z M 25.027344 11.070312 L 24.71875 11.03125 L 24.75 10.835938 L 25.058594 10.878906 L 25.035156 11.070312 Z M 25.027344 11.070312 L 25.007812 11.070312 Z M 25.050781 10.886719 L 25.175781 11.035156 L 25.164062 11.042969 L 25.15625 11.046875 L 25.144531 11.054688 L 25.09375 11.054688 L 25.101562 11.054688 L 25.082031 11.054688 L 25.089844 11.054688 L 25.070312 11.054688 L 25.09375 10.859375 L 25.101562 10.859375 L 25.089844 10.859375 L 25.09375 10.859375 L 25.082031 10.859375 L 25.09375 10.859375 L 25.078125 10.859375 L 25.082031 10.859375 L 25.058594 10.859375 L 25.050781 10.867188 Z M 25.175781 11.035156 L 25.179688 11.03125 Z M 25.050781 10.886719 L 25.25 10.910156 L 25.25 10.9375 L 25.242188 10.953125 L 25.242188 10.945312 L 25.242188 10.953125 L 25.230469 10.964844 L 25.222656 10.96875 L 25.222656 10.976562 L 25.179688 11.019531 L 25.175781 11.019531 L 25.050781 10.867188 L 25.046875 10.875 L 25.050781 10.867188 L 25.058594 10.859375 L 25.058594 10.867188 L 25.058594 10.859375 L 25.0625 10.855469 L 25.0625 10.875 Z M 25.25 10.910156 L 25.25 10.921875 Z M 25.359375 10.121094 L 25.25 10.910156 L 25.050781 10.886719 L 25.164062 10.097656 L 25.328125 10.042969 L 25.355469 10.121094 Z M 25.164062 10.097656 L 25.1875 9.90625 L 25.328125 10.042969 Z M 25.71875 10.691406 L 25.1875 10.175781 L 25.328125 10.035156 L 25.859375 10.554688 Z M 25.851562 10.554688 L 25.996094 10.691406 L 25.988281 10.699219 L 25.976562 10.703125 L 25.96875 10.710938 L 25.964844 10.71875 L 25.953125 10.722656 L 25.945312 10.730469 L 25.9375 10.730469 L 25.925781 10.734375 L 25.914062 10.742188 L 25.792969 10.742188 L 25.777344 10.734375 L 25.765625 10.730469 L 25.761719 10.730469 L 25.753906 10.722656 L 25.742188 10.71875 L 25.734375 10.710938 L 25.730469 10.703125 L 25.71875 10.699219 L 25.710938 10.691406 L 25.851562 10.554688 L 25.871094 10.554688 Z M 25.851562 10.554688 Z M 26.210938 10.476562 L 25.988281 10.691406 L 25.847656 10.554688 L 26.070312 10.335938 L 26.203125 10.476562 Z M 26.070312 10.335938 Z M 26.070312 10.335938 L 26.210938 10.199219 L 26.214844 10.207031 L 26.222656 10.210938 L 26.234375 10.222656 L 26.242188 10.234375 L 26.246094 10.246094 L 26.246094 10.257812 L 26.253906 10.273438 L 26.257812 10.285156 L 26.257812 10.378906 L 26.253906 10.390625 L 26.246094 10.402344 L 26.242188 10.410156 L 26.242188 10.414062 L 26.234375 10.429688 L 26.222656 10.441406 L 26.214844 10.445312 L 26.210938 10.453125 L 26.203125 10.457031 L 26.070312 10.320312 L 26.070312 10.300781 Z M 25.679688 9.6875 L 26.210938 10.207031 L 26.070312 10.34375 L 25.539062 9.828125 L 25.59375 9.664062 L 25.675781 9.6875 Z M 25.539062 9.828125 L 25.398438 9.6875 L 25.59375 9.664062 Z M 26.433594 9.742188 L 25.625 9.851562 L 25.601562 9.65625 L 26.40625 9.550781 Z M 26.40625 9.550781 L 26.390625 9.550781 Z M 26.40625 9.550781 L 26.566406 9.664062 L 26.554688 9.675781 L 26.550781 9.683594 L 26.542969 9.6875 L 26.519531 9.710938 L 26.5 9.710938 L 26.492188 9.71875 L 26.488281 9.71875 L 26.492188 9.71875 L 26.488281 9.71875 L 26.476562 9.722656 L 26.445312 9.722656 L 26.417969 9.53125 L 26.414062 9.53125 L 26.417969 9.53125 L 26.414062 9.53125 L 26.417969 9.53125 L 26.414062 9.53125 L 26.417969 9.527344 L 26.414062 9.527344 L 26.417969 9.519531 Z M 26.566406 9.664062 Z M 26.40625 9.550781 L 26.605469 9.527344 L 26.605469 9.609375 L 26.597656 9.617188 L 26.59375 9.628906 L 26.433594 9.511719 L 26.425781 9.519531 L 26.425781 9.539062 L 26.425781 9.53125 L 26.425781 9.539062 L 26.425781 9.53125 L 26.425781 9.554688 Z M 26.40625 9.550781 L 26.40625 9.566406 Z M 26.5625 9.226562 L 26.605469 9.527344 L 26.40625 9.550781 L 26.363281 9.25 Z M 26.5625 9.226562 L 26.5625 9.210938 Z M 26.371094 9.253906 L 26.347656 9.0625 L 26.414062 9.0625 L 26.425781 9.066406 L 26.433594 9.074219 L 26.4375 9.074219 L 26.457031 9.09375 L 26.464844 9.097656 L 26.46875 9.105469 L 26.476562 9.109375 L 26.480469 9.117188 L 26.488281 9.121094 L 26.492188 9.128906 L 26.5 9.132812 L 26.519531 9.152344 L 26.523438 9.164062 L 26.53125 9.175781 L 26.53125 9.195312 L 26.535156 9.207031 L 26.535156 9.226562 L 26.339844 9.253906 L 26.339844 9.25 Z M 26.347656 9.0625 L 26.328125 9.0625 Z M 25.164062 9.226562 L 26.347656 9.0625 L 26.371094 9.253906 L 25.1875 9.417969 L 25.109375 9.394531 L 25.164062 9.230469 Z M 25.1875 9.417969 L 25.136719 9.421875 L 25.101562 9.386719 L 25.179688 9.410156 Z M 24.367188 8.398438 L 25.242188 9.253906 L 25.101562 9.394531 L 24.226562 8.539062 L 24.367188 8.40625 Z M 24.226562 8.539062 L 24.289062 8.597656 Z M 24.171875 8.214844 L 24.367188 8.40625 L 24.226562 8.539062 L 24.027344 8.347656 L 24.011719 8.242188 Z M 24.027344 8.347656 L 23.984375 8.304688 L 24.011719 8.242188 Z M 24.386719 7.851562 L 24.1875 8.316406 L 24.011719 8.242188 L 24.207031 7.78125 Z M 24.207031 7.78125 L 24.25 7.679688 L 24.207031 7.785156 Z M 24.933594 6.570312 L 24.394531 7.851562 L 24.214844 7.78125 L 24.757812 6.5 L 24.847656 6.4375 L 24.941406 6.570312 Z M 24.757812 6.5 L 24.78125 6.4375 L 24.847656 6.4375 Z M 26.363281 6.632812 L 24.847656 6.632812 L 24.847656 6.4375 L 26.363281 6.4375 L 26.445312 6.476562 Z M 26.363281 6.4375 L 26.414062 6.4375 L 26.445312 6.476562 Z M 27.003906 7.527344 L 26.285156 6.59375 L 26.4375 6.480469 L 27.160156 7.414062 L 27 7.527344 Z M 27.160156 7.414062 L 27.152344 7.40625 L 27.152344 7.414062 Z M 27.152344 7.414062 L 27.269531 7.5625 L 27.265625 7.570312 L 27.257812 7.574219 L 27.234375 7.589844 L 27.226562 7.589844 L 27.222656 7.59375 L 27.128906 7.59375 L 27.117188 7.589844 L 27.109375 7.589844 L 27.085938 7.574219 L 27.078125 7.574219 L 27.074219 7.570312 L 27.0625 7.5625 L 27.054688 7.558594 L 27.023438 7.527344 L 27.015625 7.523438 L 27.175781 7.40625 L 27.183594 7.40625 L 27.175781 7.40625 L 27.183594 7.40625 L 27.175781 7.40625 Z M 27.269531 7.5625 L 27.257812 7.570312 Z M 27.515625 7.382812 L 27.269531 7.5625 L 27.152344 7.414062 L 27.398438 7.234375 Z M 27.515625 7.382812 L 27.527344 7.371094 L 27.515625 7.378906 Z M 27.398438 7.234375 L 27.554688 7.117188 L 27.558594 7.125 L 27.566406 7.128906 L 27.570312 7.136719 L 27.578125 7.144531 L 27.585938 7.15625 L 27.589844 7.167969 L 27.589844 7.261719 L 27.585938 7.273438 L 27.578125 7.28125 L 27.578125 7.292969 L 27.570312 7.300781 L 27.566406 7.3125 L 27.558594 7.316406 L 27.554688 7.324219 L 27.546875 7.335938 L 27.535156 7.347656 L 27.527344 7.351562 L 27.523438 7.359375 L 27.40625 7.210938 Z M 27.398438 7.234375 L 27.429688 7.273438 Z M 27.066406 6.480469 L 27.558594 7.117188 L 27.40625 7.234375 L 26.914062 6.59375 L 26.992188 6.445312 L 27.074219 6.480469 Z M 26.914062 6.59375 L 26.796875 6.445312 L 26.992188 6.445312 Z M 27.738281 6.632812 L 26.992188 6.632812 L 26.992188 6.4375 L 27.738281 6.4375 Z M 27.738281 6.4375 L 27.933594 6.4375 L 27.933594 6.492188 L 27.929688 6.503906 L 27.929688 6.511719 L 27.921875 6.515625 L 27.917969 6.523438 L 27.910156 6.527344 L 27.90625 6.542969 L 27.898438 6.546875 L 27.898438 6.554688 L 27.890625 6.558594 L 27.886719 6.566406 L 27.878906 6.570312 L 27.875 6.578125 L 27.867188 6.582031 L 27.863281 6.589844 L 27.855469 6.59375 L 27.84375 6.601562 L 27.835938 6.605469 L 27.832031 6.605469 L 27.820312 6.613281 L 27.761719 6.613281 L 27.761719 6.421875 L 27.773438 6.421875 L 27.769531 6.421875 L 27.769531 6.414062 L 27.769531 6.421875 Z M 27.933594 6.136719 L 27.933594 6.4375 L 27.738281 6.4375 L 27.738281 6.136719 Z M 27.738281 6.136719 L 27.738281 5.945312 L 27.792969 5.945312 L 27.804688 5.953125 L 27.8125 5.953125 L 27.820312 5.957031 L 27.832031 5.964844 L 27.855469 5.988281 L 27.863281 5.992188 L 27.867188 6 L 27.875 6.003906 L 27.875 6.011719 L 27.878906 6.019531 L 27.886719 6.03125 L 27.898438 6.042969 L 27.90625 6.054688 L 27.90625 6.058594 L 27.910156 6.070312 L 27.910156 6.125 L 27.714844 6.125 L 27.714844 6.132812 L 27.714844 6.125 L 27.71875 6.125 L 27.707031 6.125 Z M 27.738281 6.136719 "/>
</g>
</svg>
