<?xml version="1.0" encoding="UTF-8"?>
<svg xmlns="http://www.w3.org/2000/svg" xmlns:xlink="http://www.w3.org/1999/xlink" width="28px" height="28px" viewBox="0 0 28 28" version="1.1">
<g id="surface1">
<path style=" stroke:none;fill-rule:nonzero;fill:rgb(92.941176%,41.176471%,36.078431%);fill-opacity:1;" d="M 3.503906 16.65625 C 3.636719 16.570312 3.714844 16.417969 3.714844 16.265625 L 3.714844 3.710938 C 3.714844 2.175781 4.960938 0.925781 6.5 0.925781 C 8.035156 0.925781 9.285156 2.171875 9.285156 3.710938 L 9.285156 16.265625 C 9.285156 16.421875 9.367188 16.570312 9.496094 16.65625 C 11.582031 17.984375 12.535156 20.53125 11.84375 22.910156 C 11.152344 25.28125 8.972656 26.914062 6.5 26.914062 C 4.027344 26.914062 1.851562 25.285156 1.160156 22.910156 C 0.46875 20.535156 1.421875 17.988281 3.507812 16.65625 Z M 0.0625 22.21875 C 0.46875 25.164062 2.8125 27.464844 5.769531 27.796875 C 8.722656 28.128906 11.527344 26.414062 12.574219 23.632812 C 13.621094 20.851562 12.648438 17.710938 10.207031 16.011719 L 10.207031 3.710938 C 10.207031 1.664062 8.546875 0 6.496094 0 C 4.445312 0 2.785156 1.660156 2.785156 3.710938 L 2.785156 16.011719 C 0.777344 17.402344 -0.277344 19.800781 0.0585938 22.21875 Z M 0.0625 22.21875 "/>
<path style=" stroke:none;fill-rule:nonzero;fill:rgb(92.941176%,41.176471%,36.078431%);fill-opacity:1;" d="M 5.683594 18.199219 C 5.890625 18.144531 6.03125 17.960938 6.03125 17.75 L 6.03125 3.710938 C 6.03125 3.453125 6.242188 3.246094 6.496094 3.246094 C 6.753906 3.246094 6.960938 3.453125 6.960938 3.710938 L 6.960938 17.75 C 6.960938 17.960938 7.101562 18.144531 7.304688 18.199219 C 8.488281 18.503906 9.402344 19.445312 9.664062 20.636719 C 9.929688 21.828125 9.503906 23.070312 8.558594 23.847656 C 7.800781 24.46875 6.800781 24.714844 5.839844 24.519531 C 4.359375 24.210938 3.289062 22.929688 3.253906 21.417969 C 3.214844 19.910156 4.222656 18.574219 5.683594 18.195312 Z M 5.664062 25.429688 C 5.9375 25.484375 6.210938 25.511719 6.488281 25.511719 C 8.523438 25.519531 10.269531 24.054688 10.613281 22.050781 C 10.960938 20.042969 9.808594 18.082031 7.890625 17.40625 L 7.890625 3.710938 C 7.890625 2.941406 7.265625 2.320312 6.5 2.320312 C 5.730469 2.320312 5.109375 2.941406 5.109375 3.710938 L 5.109375 17.40625 C 3.339844 18.03125 2.207031 19.757812 2.335938 21.628906 C 2.46875 23.5 3.832031 25.054688 5.667969 25.429688 Z M 5.664062 25.429688 "/>
<path style=" stroke:none;fill-rule:nonzero;fill:rgb(92.941176%,41.176471%,36.078431%);fill-opacity:1;" d="M 6.015625 23.613281 C 6.042969 23.621094 6.078125 23.625 6.105469 23.625 C 6.34375 23.625 6.542969 23.441406 6.566406 23.203125 C 6.585938 22.964844 6.429688 22.75 6.195312 22.707031 C 5.65625 22.585938 5.238281 22.160156 5.128906 21.617188 C 5.078125 21.367188 4.84375 21.203125 4.59375 21.246094 C 4.34375 21.292969 4.175781 21.527344 4.214844 21.777344 C 4.390625 22.699219 5.097656 23.421875 6.011719 23.613281 Z M 6.015625 23.613281 "/>
<path style=" stroke:none;fill-rule:nonzero;fill:rgb(92.941176%,41.176471%,36.078431%);fill-opacity:1;" d="M 17.632812 0 C 15.289062 0 13.015625 0.808594 11.195312 2.285156 C 10.996094 2.445312 10.96875 2.738281 11.128906 2.9375 C 11.292969 3.136719 11.582031 3.164062 11.785156 3.003906 C 15.28125 0.164062 20.3125 0.253906 23.710938 3.210938 C 27.109375 6.167969 27.894531 11.132812 25.570312 14.992188 C 23.242188 18.851562 18.484375 20.484375 14.28125 18.863281 C 14.128906 18.796875 13.949219 18.828125 13.820312 18.929688 C 13.691406 19.035156 13.625 19.199219 13.652344 19.363281 C 13.675781 19.527344 13.792969 19.664062 13.945312 19.726562 C 17.769531 21.203125 22.105469 20.25 24.953125 17.308594 C 27.804688 14.363281 28.617188 10.003906 27.023438 6.230469 C 25.425781 2.457031 21.730469 0.00390625 17.632812 0 Z M 17.632812 0 "/>
<path style=" stroke:none;fill-rule:nonzero;fill:rgb(92.941176%,41.176471%,36.078431%);fill-opacity:1;" d="M 16.421875 7.335938 C 16.421875 8.390625 15.5625 9.25 14.507812 9.25 C 13.449219 9.25 12.589844 8.394531 12.589844 7.335938 C 12.589844 6.28125 13.449219 5.421875 14.507812 5.421875 C 15.5625 5.421875 16.421875 6.277344 16.421875 7.335938 Z M 15.027344 7.335938 C 15.027344 7.046875 14.792969 6.816406 14.507812 6.816406 C 14.21875 6.816406 13.984375 7.050781 13.984375 7.335938 C 13.984375 7.625 14.21875 7.855469 14.507812 7.855469 C 14.796875 7.855469 15.027344 7.621094 15.027344 7.335938 Z M 20.585938 13.109375 C 19.640625 14.253906 17.769531 13.585938 17.769531 12.101562 L 17.769531 10.054688 C 17.769531 8.566406 19.640625 7.902344 20.585938 9.042969 C 21.679688 10.371094 22.929688 7.070312 19.359375 7.070312 C 17.714844 7.070312 16.375 8.410156 16.375 10.054688 L 16.375 12.101562 C 16.375 13.746094 17.714844 15.082031 19.359375 15.082031 C 20.386719 15.082031 22.648438 13.910156 21.566406 13.019531 C 21.597656 12.984375 20.984375 12.628906 20.585938 13.113281 Z M 20.585938 13.109375 "/>
</g>
</svg>
