<?xml version="1.0" encoding="UTF-8"?>
<svg xmlns="http://www.w3.org/2000/svg" xmlns:xlink="http://www.w3.org/1999/xlink" width="28px" height="28px" viewBox="0 0 28 30" version="1.1">
<g id="surface1">
<path style=" stroke:none;fill-rule:nonzero;fill:rgb(92.941176%,41.176471%,36.078431%);fill-opacity:1;" d="M 9.507812 4.148438 C 8.984375 3.113281 8.574219 2.296875 9.480469 0.964844 C 9.675781 0.679688 9.597656 0.292969 9.304688 0.101562 C 9.015625 -0.0859375 8.621094 -0.0078125 8.425781 0.277344 C 7.109375 2.207031 7.808594 3.589844 8.367188 4.695312 C 8.890625 5.734375 9.269531 6.488281 8.425781 7.734375 C 8.230469 8.019531 8.308594 8.40625 8.597656 8.59375 C 8.707031 8.664062 8.832031 8.699219 8.953125 8.699219 C 9.15625 8.699219 9.355469 8.601562 9.480469 8.421875 C 10.734375 6.578125 10.054688 5.230469 9.507812 4.144531 Z M 9.507812 4.148438 "/>
<path style=" stroke:none;fill-rule:nonzero;fill:rgb(92.941176%,41.176471%,36.078431%);fill-opacity:1;" d="M 14.5625 4.148438 C 14.039062 3.113281 13.628906 2.296875 14.535156 0.964844 C 14.730469 0.679688 14.648438 0.292969 14.359375 0.101562 C 14.070312 -0.0859375 13.671875 -0.0078125 13.476562 0.277344 C 12.164062 2.207031 12.863281 3.589844 13.421875 4.699219 C 13.945312 5.738281 14.324219 6.488281 13.476562 7.734375 C 13.285156 8.019531 13.363281 8.40625 13.65625 8.597656 C 13.761719 8.667969 13.882812 8.703125 14.007812 8.703125 C 14.210938 8.703125 14.410156 8.605469 14.535156 8.425781 C 15.789062 6.582031 15.109375 5.230469 14.5625 4.148438 Z M 14.5625 4.148438 "/>
<path style=" stroke:none;fill-rule:nonzero;fill:rgb(92.941176%,41.176471%,36.078431%);fill-opacity:1;" d="M 19.617188 4.148438 C 19.09375 3.113281 18.683594 2.296875 19.589844 0.964844 C 19.78125 0.679688 19.703125 0.292969 19.410156 0.101562 C 19.121094 -0.0859375 18.726562 -0.0078125 18.53125 0.277344 C 17.21875 2.207031 17.914062 3.589844 18.476562 4.699219 C 19 5.738281 19.378906 6.488281 18.53125 7.734375 C 18.335938 8.019531 18.417969 8.40625 18.707031 8.597656 C 18.816406 8.667969 18.9375 8.703125 19.058594 8.703125 C 19.265625 8.703125 19.464844 8.605469 19.589844 8.425781 C 20.84375 6.582031 20.160156 5.230469 19.617188 4.148438 Z M 19.617188 4.148438 "/>
<path style=" stroke:none;fill-rule:nonzero;fill:rgb(92.941176%,41.176471%,36.078431%);fill-opacity:1;" d="M 24.742188 9.941406 L 3.171875 9.941406 C 1.421875 9.941406 0.00390625 11.335938 0.00390625 13.050781 L 0.00390625 24.234375 C 0.00390625 25.945312 1.421875 27.339844 3.171875 27.339844 L 24.742188 27.339844 C 26.492188 27.339844 27.914062 25.945312 27.914062 24.234375 L 27.914062 13.050781 C 27.914062 11.335938 26.488281 9.941406 24.742188 9.941406 Z M 26.644531 24.234375 C 26.644531 25.261719 25.792969 26.097656 24.742188 26.097656 L 3.171875 26.097656 C 2.125 26.097656 1.273438 25.261719 1.273438 24.234375 L 1.273438 13.050781 C 1.273438 12.019531 2.125 11.1875 3.171875 11.1875 L 24.742188 11.1875 C 25.792969 11.1875 26.644531 12.019531 26.644531 13.050781 Z M 26.644531 24.234375 "/>
<path style=" stroke:none;fill-rule:nonzero;fill:rgb(92.941176%,41.176471%,36.078431%);fill-opacity:1;" d="M 4.441406 12.429688 C 4.089844 12.429688 3.808594 12.707031 3.808594 13.050781 L 3.808594 24.234375 C 3.808594 24.578125 4.089844 24.855469 4.441406 24.855469 C 4.789062 24.855469 5.074219 24.578125 5.074219 24.234375 L 5.074219 13.050781 C 5.074219 12.707031 4.789062 12.429688 4.441406 12.429688 Z M 4.441406 12.429688 "/>
<path style=" stroke:none;fill-rule:nonzero;fill:rgb(92.941176%,41.176471%,36.078431%);fill-opacity:1;" d="M 8.246094 12.429688 C 7.894531 12.429688 7.613281 12.707031 7.613281 13.050781 L 7.613281 24.234375 C 7.613281 24.578125 7.894531 24.855469 8.246094 24.855469 C 8.597656 24.855469 8.878906 24.578125 8.878906 24.234375 L 8.878906 13.050781 C 8.878906 12.707031 8.597656 12.429688 8.246094 12.429688 Z M 8.246094 12.429688 "/>
<path style=" stroke:none;fill-rule:nonzero;fill:rgb(92.941176%,41.176471%,36.078431%);fill-opacity:1;" d="M 12.050781 12.429688 C 11.703125 12.429688 11.417969 12.707031 11.417969 13.050781 L 11.417969 24.234375 C 11.417969 24.578125 11.703125 24.855469 12.050781 24.855469 C 12.402344 24.855469 12.6875 24.578125 12.6875 24.234375 L 12.6875 13.050781 C 12.6875 12.707031 12.402344 12.429688 12.050781 12.429688 Z M 12.050781 12.429688 "/>
<path style=" stroke:none;fill-rule:nonzero;fill:rgb(92.941176%,41.176471%,36.078431%);fill-opacity:1;" d="M 15.859375 12.429688 C 15.507812 12.429688 15.226562 12.707031 15.226562 13.050781 L 15.226562 24.234375 C 15.226562 24.578125 15.507812 24.855469 15.859375 24.855469 C 16.210938 24.855469 16.496094 24.578125 16.496094 24.234375 L 16.496094 13.050781 C 16.496094 12.707031 16.210938 12.429688 15.859375 12.429688 Z M 15.859375 12.429688 "/>
<path style=" stroke:none;fill-rule:nonzero;fill:rgb(92.941176%,41.176471%,36.078431%);fill-opacity:1;" d="M 19.664062 12.429688 C 19.316406 12.429688 19.03125 12.707031 19.03125 13.050781 L 19.03125 24.234375 C 19.03125 24.578125 19.316406 24.855469 19.664062 24.855469 C 20.015625 24.855469 20.300781 24.578125 20.300781 24.234375 L 20.300781 13.050781 C 20.300781 12.707031 20.015625 12.429688 19.664062 12.429688 Z M 19.664062 12.429688 "/>
<path style=" stroke:none;fill-rule:nonzero;fill:rgb(92.941176%,41.176471%,36.078431%);fill-opacity:1;" d="M 23.472656 12.429688 C 23.121094 12.429688 22.839844 12.707031 22.839844 13.050781 L 22.839844 24.234375 C 22.839844 24.578125 23.125 24.855469 23.472656 24.855469 C 23.820312 24.855469 24.105469 24.578125 24.105469 24.234375 L 24.105469 13.050781 C 24.105469 12.707031 23.820312 12.429688 23.472656 12.429688 Z M 23.472656 12.429688 "/>
<path style=" stroke:none;fill-rule:nonzero;fill:rgb(92.941176%,41.176471%,36.078431%);fill-opacity:1;" d="M 5.710938 26.101562 C 5.359375 26.101562 5.074219 26.378906 5.074219 26.722656 L 5.074219 29.207031 C 5.074219 29.550781 5.359375 29.828125 5.710938 29.828125 C 6.0625 29.828125 6.34375 29.550781 6.34375 29.207031 L 6.34375 26.722656 C 6.34375 26.378906 6.058594 26.101562 5.710938 26.101562 Z M 5.710938 26.101562 "/>
<path style=" stroke:none;fill-rule:nonzero;fill:rgb(92.941176%,41.176471%,36.078431%);fill-opacity:1;" d="M 22.203125 26.101562 C 21.851562 26.101562 21.566406 26.378906 21.566406 26.722656 L 21.566406 29.207031 C 21.566406 29.550781 21.851562 29.828125 22.203125 29.828125 C 22.550781 29.828125 22.835938 29.550781 22.835938 29.207031 L 22.835938 26.722656 C 22.835938 26.378906 22.550781 26.101562 22.203125 26.101562 Z M 22.203125 26.101562 "/>
</g>
</svg>
