<?xml version="1.0" encoding="UTF-8"?>
<svg xmlns="http://www.w3.org/2000/svg" xmlns:xlink="http://www.w3.org/1999/xlink" width="28px" height="28px" viewBox="0 0 28 28" version="1.1">
<g id="surface1">
<path style=" stroke:none;fill-rule:nonzero;fill:rgb(92.941176%,41.176471%,36.078431%);fill-opacity:1;" d="M 9.808594 3.871094 C 9.320312 2.90625 8.9375 2.144531 9.78125 0.902344 C 9.964844 0.632812 9.890625 0.273438 9.617188 0.09375 C 9.347656 -0.0820312 8.980469 -0.0078125 8.796875 0.257812 C 7.570312 2.058594 8.222656 3.351562 8.742188 4.382812 C 9.230469 5.351562 9.585938 6.054688 8.796875 7.21875 C 8.613281 7.484375 8.6875 7.847656 8.957031 8.019531 C 9.058594 8.085938 9.175781 8.121094 9.289062 8.121094 C 9.480469 8.121094 9.664062 8.027344 9.78125 7.859375 C 10.953125 6.140625 10.316406 4.882812 9.808594 3.867188 Z M 9.808594 3.871094 "/>
<path style=" stroke:none;fill-rule:nonzero;fill:rgb(92.941176%,41.176471%,36.078431%);fill-opacity:1;" d="M 14.523438 3.871094 C 14.035156 2.90625 13.652344 2.144531 14.5 0.902344 C 14.683594 0.632812 14.605469 0.273438 14.335938 0.09375 C 14.066406 -0.0820312 13.695312 -0.0078125 13.511719 0.257812 C 12.285156 2.058594 12.9375 3.351562 13.460938 4.386719 C 13.949219 5.355469 14.300781 6.054688 13.511719 7.21875 C 13.332031 7.484375 13.40625 7.847656 13.679688 8.023438 C 13.777344 8.089844 13.890625 8.121094 14.007812 8.121094 C 14.195312 8.121094 14.382812 8.03125 14.5 7.863281 C 15.667969 6.144531 15.035156 4.882812 14.523438 3.871094 Z M 14.523438 3.871094 "/>
<path style=" stroke:none;fill-rule:nonzero;fill:rgb(92.941176%,41.176471%,36.078431%);fill-opacity:1;" d="M 19.242188 3.871094 C 18.753906 2.90625 18.371094 2.144531 19.21875 0.902344 C 19.394531 0.632812 19.324219 0.273438 19.050781 0.09375 C 18.78125 -0.0820312 18.410156 -0.0078125 18.230469 0.257812 C 17.003906 2.058594 17.652344 3.351562 18.179688 4.386719 C 18.667969 5.355469 19.019531 6.054688 18.230469 7.21875 C 18.046875 7.484375 18.125 7.847656 18.394531 8.023438 C 18.496094 8.089844 18.609375 8.121094 18.722656 8.121094 C 18.914062 8.121094 19.101562 8.03125 19.21875 7.863281 C 20.386719 6.144531 19.75 4.882812 19.242188 3.871094 Z M 19.242188 3.871094 "/>
<path style=" stroke:none;fill-rule:nonzero;fill:rgb(92.941176%,41.176471%,36.078431%);fill-opacity:1;" d="M 24.027344 9.277344 L 3.894531 9.277344 C 2.261719 9.277344 0.9375 10.582031 0.9375 12.179688 L 0.9375 22.617188 C 0.9375 24.214844 2.261719 25.515625 3.894531 25.515625 L 24.027344 25.515625 C 25.660156 25.515625 26.988281 24.214844 26.988281 22.617188 L 26.988281 12.179688 C 26.988281 10.582031 25.65625 9.277344 24.027344 9.277344 Z M 25.800781 22.617188 C 25.800781 23.578125 25.007812 24.359375 24.027344 24.359375 L 3.894531 24.359375 C 2.917969 24.359375 2.121094 23.578125 2.121094 22.617188 L 2.121094 12.179688 C 2.121094 11.21875 2.917969 10.441406 3.894531 10.441406 L 24.027344 10.441406 C 25.007812 10.441406 25.800781 11.21875 25.800781 12.179688 Z M 25.800781 22.617188 "/>
<path style=" stroke:none;fill-rule:nonzero;fill:rgb(92.941176%,41.176471%,36.078431%);fill-opacity:1;" d="M 5.078125 11.601562 C 4.75 11.601562 4.488281 11.859375 4.488281 12.179688 L 4.488281 22.617188 C 4.488281 22.941406 4.75 23.199219 5.078125 23.199219 C 5.402344 23.199219 5.667969 22.941406 5.667969 22.617188 L 5.667969 12.179688 C 5.667969 11.859375 5.402344 11.601562 5.078125 11.601562 Z M 5.078125 11.601562 "/>
<path style=" stroke:none;fill-rule:nonzero;fill:rgb(92.941176%,41.176471%,36.078431%);fill-opacity:1;" d="M 8.628906 11.601562 C 8.300781 11.601562 8.039062 11.859375 8.039062 12.179688 L 8.039062 22.617188 C 8.039062 22.941406 8.300781 23.199219 8.628906 23.199219 C 8.957031 23.199219 9.21875 22.941406 9.21875 22.617188 L 9.21875 12.179688 C 9.21875 11.859375 8.957031 11.601562 8.628906 11.601562 Z M 8.628906 11.601562 "/>
<path style=" stroke:none;fill-rule:nonzero;fill:rgb(92.941176%,41.176471%,36.078431%);fill-opacity:1;" d="M 12.179688 11.601562 C 11.855469 11.601562 11.589844 11.859375 11.589844 12.179688 L 11.589844 22.617188 C 11.589844 22.941406 11.855469 23.199219 12.179688 23.199219 C 12.507812 23.199219 12.773438 22.941406 12.773438 22.617188 L 12.773438 12.179688 C 12.773438 11.859375 12.507812 11.601562 12.179688 11.601562 Z M 12.179688 11.601562 "/>
<path style=" stroke:none;fill-rule:nonzero;fill:rgb(92.941176%,41.176471%,36.078431%);fill-opacity:1;" d="M 15.734375 11.601562 C 15.40625 11.601562 15.144531 11.859375 15.144531 12.179688 L 15.144531 22.617188 C 15.144531 22.941406 15.40625 23.199219 15.734375 23.199219 C 16.0625 23.199219 16.328125 22.941406 16.328125 22.617188 L 16.328125 12.179688 C 16.328125 11.859375 16.0625 11.601562 15.734375 11.601562 Z M 15.734375 11.601562 "/>
<path style=" stroke:none;fill-rule:nonzero;fill:rgb(92.941176%,41.176471%,36.078431%);fill-opacity:1;" d="M 19.285156 11.601562 C 18.960938 11.601562 18.695312 11.859375 18.695312 12.179688 L 18.695312 22.617188 C 18.695312 22.941406 18.960938 23.199219 19.285156 23.199219 C 19.613281 23.199219 19.878906 22.941406 19.878906 22.617188 L 19.878906 12.179688 C 19.878906 11.859375 19.613281 11.601562 19.285156 11.601562 Z M 19.285156 11.601562 "/>
<path style=" stroke:none;fill-rule:nonzero;fill:rgb(92.941176%,41.176471%,36.078431%);fill-opacity:1;" d="M 22.839844 11.601562 C 22.511719 11.601562 22.25 11.859375 22.25 12.179688 L 22.25 22.617188 C 22.25 22.941406 22.515625 23.199219 22.839844 23.199219 C 23.164062 23.199219 23.433594 22.941406 23.433594 22.617188 L 23.433594 12.179688 C 23.433594 11.859375 23.164062 11.601562 22.839844 11.601562 Z M 22.839844 11.601562 "/>
<path style=" stroke:none;fill-rule:nonzero;fill:rgb(92.941176%,41.176471%,36.078431%);fill-opacity:1;" d="M 6.261719 24.363281 C 5.933594 24.363281 5.667969 24.621094 5.667969 24.941406 L 5.667969 27.261719 C 5.667969 27.582031 5.933594 27.839844 6.261719 27.839844 C 6.589844 27.839844 6.855469 27.582031 6.855469 27.261719 L 6.855469 24.941406 C 6.855469 24.621094 6.589844 24.363281 6.261719 24.363281 Z M 6.261719 24.363281 "/>
<path style=" stroke:none;fill-rule:nonzero;fill:rgb(92.941176%,41.176471%,36.078431%);fill-opacity:1;" d="M 21.65625 24.363281 C 21.328125 24.363281 21.0625 24.621094 21.0625 24.941406 L 21.0625 27.261719 C 21.0625 27.582031 21.328125 27.839844 21.65625 27.839844 C 21.980469 27.839844 22.246094 27.582031 22.246094 27.261719 L 22.246094 24.941406 C 22.246094 24.621094 21.980469 24.363281 21.65625 24.363281 Z M 21.65625 24.363281 "/>
</g>
</svg>
