<?xml version="1.0" encoding="UTF-8"?>
<svg xmlns="http://www.w3.org/2000/svg" xmlns:xlink="http://www.w3.org/1999/xlink" width="28px" height="28px" viewBox="0 0 28 21" version="1.1">
<g id="surface1">
<path style=" stroke:none;fill-rule:nonzero;fill:rgb(92.941176%,41.176471%,36.078431%);fill-opacity:1;" d="M 16.027344 8.015625 L 2.054688 8.015625 C 0.921875 8.015625 0 8.929688 0 10.054688 L 0 17.398438 C 0 18.523438 0.921875 19.4375 2.054688 19.4375 L 16.027344 19.4375 C 17.160156 19.4375 18.082031 18.523438 18.082031 17.398438 L 18.082031 10.054688 C 18.082031 8.929688 17.160156 8.015625 16.027344 8.015625 Z M 17.261719 17.398438 C 17.261719 18.070312 16.707031 18.621094 16.027344 18.621094 L 2.054688 18.621094 C 1.375 18.621094 0.820312 18.070312 0.820312 17.398438 L 0.820312 10.054688 C 0.820312 9.378906 1.375 8.832031 2.054688 8.832031 L 16.027344 8.832031 C 16.707031 8.832031 17.261719 9.378906 17.261719 10.054688 Z M 17.261719 17.398438 "/>
<path style=" stroke:none;fill-rule:nonzero;fill:rgb(92.941176%,41.176471%,36.078431%);fill-opacity:1;" d="M 2.875 9.648438 C 2.648438 9.648438 2.464844 9.828125 2.464844 10.054688 L 2.464844 17.398438 C 2.464844 17.621094 2.648438 17.804688 2.875 17.804688 C 3.105469 17.804688 3.289062 17.621094 3.289062 17.398438 L 3.289062 10.054688 C 3.289062 9.828125 3.105469 9.648438 2.875 9.648438 Z M 2.875 9.648438 "/>
<path style=" stroke:none;fill-rule:nonzero;fill:rgb(92.941176%,41.176471%,36.078431%);fill-opacity:1;" d="M 5.34375 9.648438 C 5.117188 9.648438 4.933594 9.828125 4.933594 10.054688 L 4.933594 17.398438 C 4.933594 17.621094 5.117188 17.804688 5.34375 17.804688 C 5.570312 17.804688 5.753906 17.621094 5.753906 17.398438 L 5.753906 10.054688 C 5.753906 9.828125 5.570312 9.648438 5.34375 9.648438 Z M 5.34375 9.648438 "/>
<path style=" stroke:none;fill-rule:nonzero;fill:rgb(92.941176%,41.176471%,36.078431%);fill-opacity:1;" d="M 7.808594 9.648438 C 7.582031 9.648438 7.398438 9.828125 7.398438 10.054688 L 7.398438 17.398438 C 7.398438 17.621094 7.582031 17.804688 7.808594 17.804688 C 8.035156 17.804688 8.21875 17.621094 8.21875 17.398438 L 8.21875 10.054688 C 8.21875 9.828125 8.035156 9.648438 7.808594 9.648438 Z M 7.808594 9.648438 "/>
<path style=" stroke:none;fill-rule:nonzero;fill:rgb(92.941176%,41.176471%,36.078431%);fill-opacity:1;" d="M 10.273438 9.648438 C 10.046875 9.648438 9.863281 9.828125 9.863281 10.054688 L 9.863281 17.398438 C 9.863281 17.621094 10.046875 17.804688 10.273438 17.804688 C 10.5 17.804688 10.683594 17.621094 10.683594 17.398438 L 10.683594 10.054688 C 10.683594 9.828125 10.5 9.648438 10.273438 9.648438 Z M 10.273438 9.648438 "/>
<path style=" stroke:none;fill-rule:nonzero;fill:rgb(92.941176%,41.176471%,36.078431%);fill-opacity:1;" d="M 12.742188 9.648438 C 12.511719 9.648438 12.328125 9.828125 12.328125 10.054688 L 12.328125 17.398438 C 12.328125 17.621094 12.511719 17.804688 12.742188 17.804688 C 12.96875 17.804688 13.152344 17.621094 13.152344 17.398438 L 13.152344 10.054688 C 13.152344 9.828125 12.96875 9.648438 12.742188 9.648438 Z M 12.742188 9.648438 "/>
<path style=" stroke:none;fill-rule:nonzero;fill:rgb(92.941176%,41.176471%,36.078431%);fill-opacity:1;" d="M 15.207031 9.648438 C 14.980469 9.648438 14.796875 9.828125 14.796875 10.054688 L 14.796875 17.398438 C 14.796875 17.621094 14.980469 17.804688 15.207031 17.804688 C 15.433594 17.804688 15.617188 17.621094 15.617188 17.398438 L 15.617188 10.054688 C 15.617188 9.828125 15.433594 9.648438 15.207031 9.648438 Z M 15.207031 9.648438 "/>
<path style=" stroke:none;fill-rule:nonzero;fill:rgb(92.941176%,41.176471%,36.078431%);fill-opacity:1;" d="M 3.699219 18.621094 C 3.472656 18.621094 3.289062 18.804688 3.289062 19.027344 L 3.289062 20.660156 C 3.289062 20.886719 3.472656 21.070312 3.699219 21.070312 C 3.925781 21.070312 4.109375 20.886719 4.109375 20.660156 L 4.109375 19.027344 C 4.109375 18.804688 3.925781 18.621094 3.699219 18.621094 Z M 3.699219 18.621094 "/>
<path style=" stroke:none;fill-rule:nonzero;fill:rgb(92.941176%,41.176471%,36.078431%);fill-opacity:1;" d="M 14.382812 18.621094 C 14.15625 18.621094 13.972656 18.804688 13.972656 19.027344 L 13.972656 20.660156 C 13.972656 20.886719 14.15625 21.070312 14.382812 21.070312 C 14.609375 21.070312 14.792969 20.886719 14.792969 20.660156 L 14.792969 19.027344 C 14.792969 18.804688 14.609375 18.621094 14.382812 18.621094 Z M 14.382812 18.621094 "/>
<path style=" stroke:none;fill-rule:nonzero;fill:rgb(92.941176%,41.176471%,36.078431%);fill-opacity:1;" d="M 20.054688 9.542969 L 20.054688 4.6875 L 21.421875 4.6875 L 21.421875 9.542969 Z M 18.222656 7.757812 L 18.222656 6.472656 L 23.265625 6.472656 L 23.265625 7.757812 Z M 18.222656 7.757812 "/>
<path style=" stroke:none;fill-rule:nonzero;fill:rgb(92.941176%,41.176471%,36.078431%);fill-opacity:1;" d="M 17.078125 0.960938 C 15.625 1.792969 14.503906 3.089844 13.902344 4.640625 C 13.839844 4.8125 13.921875 5.003906 14.09375 5.066406 C 14.265625 5.132812 14.457031 5.046875 14.523438 4.878906 C 15.679688 1.894531 18.828125 0.167969 21.984375 0.785156 C 25.144531 1.402344 27.398438 4.179688 27.332031 7.371094 C 27.269531 10.566406 24.902344 13.253906 21.71875 13.742188 C 21.601562 13.757812 21.503906 13.835938 21.457031 13.945312 C 21.414062 14.054688 21.433594 14.179688 21.507812 14.273438 C 21.582031 14.367188 21.703125 14.410156 21.820312 14.390625 C 24.714844 13.949219 27.058594 11.828125 27.777344 9.011719 C 28.496094 6.195312 27.445312 3.222656 25.113281 1.46875 C 22.777344 -0.289062 19.613281 -0.488281 17.074219 0.960938 Z M 17.078125 0.960938 "/>
</g>
</svg>
