<?xml version="1.0" encoding="UTF-8"?>
<svg xmlns="http://www.w3.org/2000/svg" xmlns:xlink="http://www.w3.org/1999/xlink" width="28px" height="28px" viewBox="0 0 28 28" version="1.1">
<g id="surface1">
<path style=" stroke:none;fill-rule:nonzero;fill:rgb(92.941176%,41.176471%,36.078431%);fill-opacity:1;" d="M 16.027344 11.515625 L 2.054688 11.515625 C 0.921875 11.515625 0 12.429688 0 13.554688 L 0 20.898438 C 0 22.023438 0.921875 22.9375 2.054688 22.9375 L 16.027344 22.9375 C 17.160156 22.9375 18.082031 22.023438 18.082031 20.898438 L 18.082031 13.554688 C 18.082031 12.429688 17.160156 11.515625 16.027344 11.515625 Z M 17.261719 20.898438 C 17.261719 21.574219 16.707031 22.121094 16.027344 22.121094 L 2.054688 22.121094 C 1.375 22.121094 0.820312 21.574219 0.820312 20.898438 L 0.820312 13.554688 C 0.820312 12.878906 1.375 12.332031 2.054688 12.332031 L 16.027344 12.332031 C 16.707031 12.332031 17.261719 12.878906 17.261719 13.554688 Z M 17.261719 20.898438 "/>
<path style=" stroke:none;fill-rule:nonzero;fill:rgb(92.941176%,41.176471%,36.078431%);fill-opacity:1;" d="M 2.878906 13.148438 C 2.648438 13.148438 2.464844 13.328125 2.464844 13.554688 L 2.464844 20.898438 C 2.464844 21.121094 2.648438 21.304688 2.878906 21.304688 C 3.105469 21.304688 3.289062 21.121094 3.289062 20.898438 L 3.289062 13.554688 C 3.289062 13.328125 3.105469 13.148438 2.878906 13.148438 Z M 2.878906 13.148438 "/>
<path style=" stroke:none;fill-rule:nonzero;fill:rgb(92.941176%,41.176471%,36.078431%);fill-opacity:1;" d="M 5.34375 13.148438 C 5.117188 13.148438 4.933594 13.328125 4.933594 13.554688 L 4.933594 20.898438 C 4.933594 21.121094 5.117188 21.304688 5.34375 21.304688 C 5.570312 21.304688 5.753906 21.121094 5.753906 20.898438 L 5.753906 13.554688 C 5.753906 13.328125 5.570312 13.148438 5.34375 13.148438 Z M 5.34375 13.148438 "/>
<path style=" stroke:none;fill-rule:nonzero;fill:rgb(92.941176%,41.176471%,36.078431%);fill-opacity:1;" d="M 7.808594 13.148438 C 7.582031 13.148438 7.398438 13.328125 7.398438 13.554688 L 7.398438 20.898438 C 7.398438 21.121094 7.582031 21.304688 7.808594 21.304688 C 8.035156 21.304688 8.21875 21.121094 8.21875 20.898438 L 8.21875 13.554688 C 8.21875 13.328125 8.035156 13.148438 7.808594 13.148438 Z M 7.808594 13.148438 "/>
<path style=" stroke:none;fill-rule:nonzero;fill:rgb(92.941176%,41.176471%,36.078431%);fill-opacity:1;" d="M 10.273438 13.148438 C 10.046875 13.148438 9.863281 13.328125 9.863281 13.554688 L 9.863281 20.898438 C 9.863281 21.121094 10.046875 21.304688 10.273438 21.304688 C 10.5 21.304688 10.683594 21.121094 10.683594 20.898438 L 10.683594 13.554688 C 10.683594 13.328125 10.5 13.148438 10.273438 13.148438 Z M 10.273438 13.148438 "/>
<path style=" stroke:none;fill-rule:nonzero;fill:rgb(92.941176%,41.176471%,36.078431%);fill-opacity:1;" d="M 12.738281 13.148438 C 12.511719 13.148438 12.328125 13.328125 12.328125 13.554688 L 12.328125 20.898438 C 12.328125 21.121094 12.511719 21.304688 12.738281 21.304688 C 12.96875 21.304688 13.152344 21.121094 13.152344 20.898438 L 13.152344 13.554688 C 13.152344 13.328125 12.96875 13.148438 12.738281 13.148438 Z M 12.738281 13.148438 "/>
<path style=" stroke:none;fill-rule:nonzero;fill:rgb(92.941176%,41.176471%,36.078431%);fill-opacity:1;" d="M 15.207031 13.148438 C 14.980469 13.148438 14.796875 13.328125 14.796875 13.554688 L 14.796875 20.898438 C 14.796875 21.121094 14.980469 21.304688 15.207031 21.304688 C 15.433594 21.304688 15.617188 21.121094 15.617188 20.898438 L 15.617188 13.554688 C 15.617188 13.328125 15.433594 13.148438 15.207031 13.148438 Z M 15.207031 13.148438 "/>
<path style=" stroke:none;fill-rule:nonzero;fill:rgb(92.941176%,41.176471%,36.078431%);fill-opacity:1;" d="M 3.699219 22.121094 C 3.472656 22.121094 3.289062 22.304688 3.289062 22.53125 L 3.289062 24.160156 C 3.289062 24.386719 3.472656 24.570312 3.699219 24.570312 C 3.925781 24.570312 4.109375 24.386719 4.109375 24.160156 L 4.109375 22.53125 C 4.109375 22.304688 3.925781 22.121094 3.699219 22.121094 Z M 3.699219 22.121094 "/>
<path style=" stroke:none;fill-rule:nonzero;fill:rgb(92.941176%,41.176471%,36.078431%);fill-opacity:1;" d="M 14.382812 22.121094 C 14.15625 22.121094 13.972656 22.304688 13.972656 22.53125 L 13.972656 24.160156 C 13.972656 24.386719 14.15625 24.570312 14.382812 24.570312 C 14.609375 24.570312 14.796875 24.386719 14.796875 24.160156 L 14.796875 22.53125 C 14.796875 22.304688 14.609375 22.121094 14.382812 22.121094 Z M 14.382812 22.121094 "/>
<path style=" stroke:none;fill-rule:nonzero;fill:rgb(92.941176%,41.176471%,36.078431%);fill-opacity:1;" d="M 20.054688 11.257812 L 20.054688 9.972656 L 21.421875 9.972656 L 21.421875 11.257812 Z M 18.222656 11.257812 L 18.222656 9.972656 L 23.265625 9.972656 L 23.265625 11.257812 Z M 18.222656 11.257812 "/>
<path style=" stroke:none;fill-rule:nonzero;fill:rgb(92.941176%,41.176471%,36.078431%);fill-opacity:1;" d="M 17.078125 4.460938 C 15.625 5.292969 14.503906 6.589844 13.902344 8.144531 C 13.839844 8.3125 13.921875 8.503906 14.09375 8.566406 C 14.265625 8.632812 14.457031 8.546875 14.523438 8.378906 C 15.679688 5.394531 18.828125 3.671875 21.984375 4.285156 C 25.144531 4.902344 27.398438 7.679688 27.335938 10.875 C 27.269531 14.070312 24.902344 16.753906 21.71875 17.242188 C 21.601562 17.257812 21.503906 17.335938 21.457031 17.445312 C 21.414062 17.558594 21.433594 17.683594 21.507812 17.773438 C 21.585938 17.867188 21.703125 17.910156 21.820312 17.890625 C 24.714844 17.449219 27.058594 15.332031 27.777344 12.511719 C 28.496094 9.695312 27.445312 6.726562 25.113281 4.96875 C 22.777344 3.214844 19.613281 3.015625 17.074219 4.460938 Z M 17.078125 4.460938 "/>
</g>
</svg>
