<?xml version="1.0" encoding="UTF-8"?>
<svg xmlns="http://www.w3.org/2000/svg" xmlns:xlink="http://www.w3.org/1999/xlink" width="28px" height="28px" viewBox="0 0 28 28" version="1.1">
<g id="surface1">
<path style=" stroke:none;fill-rule:nonzero;fill:rgb(92.941176%,41.176471%,36.078431%);fill-opacity:1;" d="M 16.027344 11.515625 L 2.054688 11.515625 C 0.921875 11.515625 0 12.429688 0 13.554688 L 0 20.898438 C 0 22.023438 0.921875 22.9375 2.054688 22.9375 L 16.027344 22.9375 C 17.160156 22.9375 18.082031 22.023438 18.082031 20.898438 L 18.082031 13.554688 C 18.082031 12.429688 17.160156 11.515625 16.027344 11.515625 Z M 17.261719 20.898438 C 17.261719 21.574219 16.707031 22.121094 16.027344 22.121094 L 2.054688 22.121094 C 1.375 22.121094 0.820312 21.570312 0.820312 20.898438 L 0.820312 13.554688 C 0.820312 12.878906 1.375 12.332031 2.054688 12.332031 L 16.027344 12.332031 C 16.707031 12.332031 17.261719 12.878906 17.261719 13.554688 Z M 17.261719 20.898438 "/>
<path style=" stroke:none;fill-rule:nonzero;fill:rgb(92.941176%,41.176471%,36.078431%);fill-opacity:1;" d="M 2.878906 13.144531 C 2.648438 13.144531 2.464844 13.328125 2.464844 13.554688 L 2.464844 20.898438 C 2.464844 21.121094 2.648438 21.304688 2.878906 21.304688 C 3.105469 21.304688 3.289062 21.121094 3.289062 20.898438 L 3.289062 13.554688 C 3.289062 13.328125 3.105469 13.144531 2.878906 13.144531 Z M 2.878906 13.144531 "/>
<path style=" stroke:none;fill-rule:nonzero;fill:rgb(92.941176%,41.176471%,36.078431%);fill-opacity:1;" d="M 5.34375 13.144531 C 5.117188 13.144531 4.929688 13.328125 4.929688 13.554688 L 4.929688 20.898438 C 4.929688 21.121094 5.117188 21.304688 5.34375 21.304688 C 5.570312 21.304688 5.753906 21.121094 5.753906 20.898438 L 5.753906 13.554688 C 5.753906 13.328125 5.570312 13.144531 5.34375 13.144531 Z M 5.34375 13.144531 "/>
<path style=" stroke:none;fill-rule:nonzero;fill:rgb(92.941176%,41.176471%,36.078431%);fill-opacity:1;" d="M 7.808594 13.144531 C 7.582031 13.144531 7.398438 13.328125 7.398438 13.554688 L 7.398438 20.898438 C 7.398438 21.121094 7.582031 21.304688 7.808594 21.304688 C 8.035156 21.304688 8.21875 21.121094 8.21875 20.898438 L 8.21875 13.554688 C 8.21875 13.328125 8.035156 13.144531 7.808594 13.144531 Z M 7.808594 13.144531 "/>
<path style=" stroke:none;fill-rule:nonzero;fill:rgb(92.941176%,41.176471%,36.078431%);fill-opacity:1;" d="M 10.273438 13.144531 C 10.046875 13.144531 9.863281 13.328125 9.863281 13.554688 L 9.863281 20.898438 C 9.863281 21.121094 10.046875 21.304688 10.273438 21.304688 C 10.5 21.304688 10.683594 21.121094 10.683594 20.898438 L 10.683594 13.554688 C 10.683594 13.328125 10.5 13.144531 10.273438 13.144531 Z M 10.273438 13.144531 "/>
<path style=" stroke:none;fill-rule:nonzero;fill:rgb(92.941176%,41.176471%,36.078431%);fill-opacity:1;" d="M 12.738281 13.144531 C 12.511719 13.144531 12.328125 13.328125 12.328125 13.554688 L 12.328125 20.898438 C 12.328125 21.121094 12.511719 21.304688 12.738281 21.304688 C 12.96875 21.304688 13.152344 21.121094 13.152344 20.898438 L 13.152344 13.554688 C 13.152344 13.328125 12.96875 13.144531 12.738281 13.144531 Z M 12.738281 13.144531 "/>
<path style=" stroke:none;fill-rule:nonzero;fill:rgb(92.941176%,41.176471%,36.078431%);fill-opacity:1;" d="M 15.207031 13.144531 C 14.980469 13.144531 14.796875 13.328125 14.796875 13.554688 L 14.796875 20.898438 C 14.796875 21.121094 14.980469 21.304688 15.207031 21.304688 C 15.433594 21.304688 15.617188 21.121094 15.617188 20.898438 L 15.617188 13.554688 C 15.617188 13.328125 15.433594 13.144531 15.207031 13.144531 Z M 15.207031 13.144531 "/>
<path style=" stroke:none;fill-rule:nonzero;fill:rgb(92.941176%,41.176471%,36.078431%);fill-opacity:1;" d="M 3.699219 22.121094 C 3.472656 22.121094 3.289062 22.304688 3.289062 22.527344 L 3.289062 24.160156 C 3.289062 24.386719 3.472656 24.566406 3.699219 24.566406 C 3.925781 24.566406 4.109375 24.386719 4.109375 24.160156 L 4.109375 22.527344 C 4.109375 22.304688 3.925781 22.121094 3.699219 22.121094 Z M 3.699219 22.121094 "/>
<path style=" stroke:none;fill-rule:nonzero;fill:rgb(92.941176%,41.176471%,36.078431%);fill-opacity:1;" d="M 14.382812 22.121094 C 14.15625 22.121094 13.972656 22.304688 13.972656 22.527344 L 13.972656 24.160156 C 13.972656 24.386719 14.15625 24.566406 14.382812 24.566406 C 14.613281 24.566406 14.796875 24.386719 14.796875 24.160156 L 14.796875 22.527344 C 14.796875 22.304688 14.613281 22.121094 14.382812 22.121094 Z M 14.382812 22.121094 "/>
<path style=" stroke:none;fill-rule:nonzero;fill:rgb(92.941176%,41.176471%,36.078431%);fill-opacity:1;" d="M 17.074219 4.460938 C 15.625 5.292969 14.503906 6.589844 13.902344 8.144531 C 13.835938 8.3125 13.921875 8.503906 14.09375 8.566406 C 14.265625 8.632812 14.457031 8.546875 14.523438 8.378906 C 15.679688 5.394531 18.828125 3.671875 21.984375 4.285156 C 25.144531 4.902344 27.398438 7.679688 27.332031 10.875 C 27.265625 14.070312 24.898438 16.753906 21.71875 17.242188 C 21.601562 17.257812 21.5 17.335938 21.457031 17.445312 C 21.414062 17.558594 21.433594 17.683594 21.507812 17.773438 C 21.582031 17.867188 21.703125 17.910156 21.820312 17.894531 C 24.714844 17.449219 27.058594 15.332031 27.777344 12.515625 C 28.492188 9.695312 27.445312 6.726562 25.109375 4.972656 C 22.777344 3.214844 19.613281 3.015625 17.074219 4.460938 Z M 17.074219 4.460938 "/>
<path style=" stroke:none;fill-rule:nonzero;fill:rgb(92.941176%,41.176471%,36.078431%);fill-opacity:1;" d="M 18.5625 10.875 C 18.667969 10.875 18.769531 10.855469 18.855469 10.820312 C 18.945312 10.785156 19.023438 10.730469 19.09375 10.664062 C 19.160156 10.597656 19.214844 10.515625 19.25 10.425781 C 19.289062 10.332031 19.308594 10.230469 19.308594 10.117188 C 19.308594 10.003906 19.289062 9.902344 19.25 9.808594 C 19.214844 9.714844 19.160156 9.636719 19.09375 9.570312 C 19.027344 9.5 18.949219 9.449219 18.859375 9.414062 C 18.769531 9.378906 18.667969 9.359375 18.5625 9.359375 C 18.453125 9.359375 18.355469 9.378906 18.265625 9.414062 C 18.175781 9.449219 18.101562 9.5 18.03125 9.570312 C 17.960938 9.636719 17.910156 9.714844 17.871094 9.808594 C 17.835938 9.902344 17.816406 10.003906 17.816406 10.117188 C 17.816406 10.226562 17.835938 10.328125 17.871094 10.421875 C 17.910156 10.515625 17.960938 10.597656 18.027344 10.664062 C 18.09375 10.730469 18.175781 10.78125 18.265625 10.820312 C 18.355469 10.855469 18.453125 10.875 18.5625 10.875 Z M 18.566406 11.339844 C 18.375 11.339844 18.203125 11.308594 18.042969 11.25 C 17.882812 11.1875 17.746094 11.101562 17.628906 10.992188 C 17.511719 10.882812 17.417969 10.75 17.355469 10.605469 C 17.292969 10.453125 17.257812 10.292969 17.257812 10.117188 C 17.257812 9.941406 17.292969 9.777344 17.355469 9.628906 C 17.417969 9.480469 17.511719 9.351562 17.628906 9.242188 C 17.75 9.132812 17.886719 9.042969 18.046875 8.984375 C 18.203125 8.921875 18.378906 8.894531 18.5625 8.894531 C 18.75 8.894531 18.925781 8.921875 19.082031 8.984375 C 19.242188 9.042969 19.378906 9.132812 19.496094 9.242188 C 19.613281 9.351562 19.703125 9.480469 19.769531 9.628906 C 19.835938 9.777344 19.871094 9.9375 19.871094 10.117188 C 19.871094 10.292969 19.835938 10.453125 19.769531 10.605469 C 19.703125 10.753906 19.613281 10.882812 19.496094 10.992188 C 19.378906 11.101562 19.242188 11.1875 19.082031 11.25 C 18.925781 11.308594 18.75 11.339844 18.566406 11.339844 Z M 18.566406 11.339844 "/>
<path style=" stroke:none;fill-rule:nonzero;fill:rgb(92.941176%,41.176471%,36.078431%);fill-opacity:1;" d="M 18.835938 10.769531 L 18.875 10.871094 L 18.867188 10.875 L 18.859375 10.875 L 18.84375 10.882812 L 18.832031 10.886719 L 18.824219 10.890625 L 18.816406 10.890625 L 18.804688 10.894531 L 18.796875 10.898438 L 18.785156 10.898438 L 18.777344 10.902344 L 18.765625 10.90625 L 18.757812 10.90625 L 18.746094 10.910156 L 18.734375 10.910156 L 18.726562 10.914062 L 18.71875 10.914062 L 18.707031 10.917969 L 18.6875 10.917969 L 18.675781 10.921875 L 18.648438 10.921875 L 18.636719 10.925781 L 18.605469 10.925781 L 18.59375 10.929688 L 18.5625 10.929688 L 18.5625 10.820312 L 18.605469 10.820312 L 18.617188 10.816406 L 18.644531 10.816406 L 18.652344 10.8125 L 18.679688 10.8125 L 18.6875 10.808594 L 18.695312 10.808594 L 18.703125 10.804688 L 18.722656 10.804688 L 18.730469 10.800781 L 18.738281 10.800781 L 18.753906 10.792969 L 18.761719 10.792969 L 18.773438 10.789062 L 18.777344 10.789062 L 18.789062 10.785156 L 18.796875 10.78125 L 18.804688 10.78125 L 18.8125 10.777344 L 18.820312 10.777344 L 18.828125 10.773438 L 18.832031 10.769531 Z M 18.835938 10.769531 L 18.820312 10.777344 Z M 19.054688 10.625 L 19.132812 10.703125 L 19.125 10.710938 L 19.117188 10.714844 L 19.109375 10.722656 L 19.105469 10.730469 L 19.097656 10.734375 L 19.089844 10.742188 L 19.082031 10.746094 L 19.074219 10.753906 L 19.066406 10.757812 L 19.058594 10.765625 L 19.050781 10.769531 L 19.042969 10.777344 L 19.035156 10.78125 L 19.027344 10.789062 L 19.011719 10.796875 L 19 10.804688 L 18.996094 10.808594 L 18.984375 10.8125 L 18.976562 10.820312 L 18.9375 10.839844 L 18.925781 10.84375 L 18.917969 10.851562 L 18.902344 10.859375 L 18.890625 10.863281 L 18.875 10.871094 L 18.832031 10.769531 L 18.847656 10.761719 L 18.855469 10.761719 L 18.910156 10.734375 L 18.914062 10.730469 L 18.929688 10.722656 L 18.9375 10.714844 L 18.945312 10.710938 L 18.949219 10.707031 L 18.964844 10.699219 L 18.976562 10.6875 L 18.992188 10.679688 L 18.996094 10.671875 L 19.003906 10.667969 L 19.007812 10.664062 L 19.015625 10.660156 L 19.039062 10.636719 L 19.046875 10.632812 L 19.054688 10.625 L 19.050781 10.625 Z M 19.132812 10.703125 Z M 19.203125 10.402344 L 19.300781 10.445312 L 19.292969 10.460938 L 19.289062 10.472656 L 19.28125 10.488281 L 19.277344 10.5 L 19.265625 10.523438 L 19.257812 10.53125 L 19.253906 10.542969 L 19.242188 10.566406 L 19.234375 10.574219 L 19.230469 10.585938 L 19.226562 10.59375 L 19.21875 10.601562 L 19.214844 10.609375 L 19.207031 10.617188 L 19.203125 10.625 L 19.191406 10.636719 L 19.183594 10.648438 L 19.171875 10.660156 L 19.167969 10.667969 L 19.152344 10.683594 L 19.148438 10.691406 L 19.140625 10.695312 L 19.132812 10.703125 L 19.054688 10.628906 L 19.089844 10.59375 L 19.09375 10.585938 L 19.105469 10.574219 L 19.109375 10.566406 L 19.117188 10.5625 L 19.125 10.546875 L 19.128906 10.542969 L 19.132812 10.535156 L 19.140625 10.527344 L 19.148438 10.511719 L 19.152344 10.507812 L 19.164062 10.484375 L 19.171875 10.476562 L 19.1875 10.445312 L 19.1875 10.4375 L 19.203125 10.40625 Z M 19.199219 10.40625 L 19.203125 10.402344 Z M 19.253906 10.117188 L 19.363281 10.117188 L 19.363281 10.171875 L 19.359375 10.183594 L 19.359375 10.214844 L 19.355469 10.226562 L 19.355469 10.246094 L 19.351562 10.257812 L 19.351562 10.265625 L 19.347656 10.277344 L 19.347656 10.289062 L 19.34375 10.296875 L 19.34375 10.308594 L 19.339844 10.320312 L 19.339844 10.328125 L 19.335938 10.339844 L 19.335938 10.347656 L 19.328125 10.371094 L 19.324219 10.378906 L 19.320312 10.390625 L 19.316406 10.398438 L 19.316406 10.40625 L 19.308594 10.429688 L 19.304688 10.4375 L 19.300781 10.449219 L 19.199219 10.40625 L 19.203125 10.398438 L 19.207031 10.386719 L 19.210938 10.382812 L 19.210938 10.375 L 19.214844 10.363281 L 19.21875 10.355469 L 19.21875 10.347656 L 19.226562 10.332031 L 19.226562 10.324219 L 19.230469 10.3125 L 19.230469 10.304688 L 19.234375 10.296875 L 19.234375 10.289062 L 19.238281 10.277344 L 19.238281 10.269531 L 19.242188 10.261719 L 19.242188 10.253906 L 19.246094 10.242188 L 19.246094 10.226562 L 19.25 10.214844 L 19.25 10.1875 L 19.253906 10.179688 Z M 19.199219 9.828125 L 19.300781 9.789062 L 19.304688 9.796875 L 19.308594 9.808594 L 19.3125 9.816406 L 19.316406 9.828125 L 19.320312 9.835938 L 19.324219 9.847656 L 19.328125 9.855469 L 19.328125 9.867188 L 19.332031 9.878906 L 19.335938 9.886719 L 19.339844 9.898438 L 19.339844 9.90625 L 19.34375 9.914062 L 19.34375 9.925781 L 19.347656 9.9375 L 19.347656 9.945312 L 19.351562 9.957031 L 19.351562 9.96875 L 19.355469 9.976562 L 19.355469 10 L 19.359375 10.011719 L 19.359375 10.03125 L 19.363281 10.042969 L 19.363281 10.117188 L 19.257812 10.117188 L 19.257812 10.089844 L 19.253906 10.078125 L 19.253906 10.039062 L 19.25 10.03125 L 19.25 10.011719 L 19.246094 10.003906 L 19.246094 9.984375 L 19.242188 9.976562 L 19.242188 9.96875 L 19.238281 9.957031 L 19.238281 9.949219 L 19.234375 9.941406 L 19.234375 9.929688 L 19.230469 9.921875 L 19.230469 9.914062 L 19.226562 9.90625 L 19.226562 9.898438 L 19.222656 9.886719 L 19.21875 9.878906 L 19.21875 9.871094 L 19.203125 9.839844 L 19.203125 9.832031 Z M 19.203125 9.832031 L 19.199219 9.828125 L 19.199219 9.824219 L 19.199219 9.832031 Z M 19.054688 9.609375 L 19.132812 9.53125 L 19.148438 9.546875 L 19.152344 9.554688 L 19.160156 9.5625 L 19.164062 9.570312 L 19.171875 9.574219 L 19.179688 9.582031 L 19.183594 9.589844 L 19.191406 9.597656 L 19.195312 9.605469 L 19.203125 9.613281 L 19.207031 9.621094 L 19.214844 9.628906 L 19.222656 9.644531 L 19.230469 9.652344 L 19.238281 9.667969 L 19.246094 9.675781 L 19.25 9.683594 L 19.253906 9.695312 L 19.257812 9.703125 L 19.265625 9.710938 L 19.273438 9.726562 L 19.277344 9.738281 L 19.289062 9.761719 L 19.296875 9.773438 L 19.304688 9.789062 L 19.203125 9.828125 L 19.167969 9.757812 L 19.164062 9.753906 L 19.144531 9.714844 L 19.136719 9.710938 L 19.125 9.6875 L 19.113281 9.675781 L 19.105469 9.660156 L 19.097656 9.65625 L 19.09375 9.648438 L 19.082031 9.636719 L 19.078125 9.628906 L 19.070312 9.625 L 19.066406 9.617188 L 19.058594 9.613281 L 19.054688 9.605469 Z M 19.054688 9.609375 Z M 18.839844 9.464844 L 18.878906 9.363281 L 18.886719 9.367188 L 18.898438 9.371094 L 18.914062 9.378906 L 18.925781 9.382812 L 18.933594 9.386719 L 18.941406 9.394531 L 18.957031 9.402344 L 18.96875 9.40625 L 18.972656 9.410156 L 18.984375 9.414062 L 18.992188 9.421875 L 19.007812 9.429688 L 19.015625 9.4375 L 19.03125 9.445312 L 19.039062 9.453125 L 19.046875 9.457031 L 19.054688 9.464844 L 19.0625 9.46875 L 19.070312 9.476562 L 19.078125 9.480469 L 19.105469 9.507812 L 19.113281 9.511719 L 19.128906 9.527344 L 19.132812 9.535156 L 19.054688 9.609375 L 19.050781 9.601562 L 19.042969 9.597656 L 19.039062 9.589844 L 19.035156 9.585938 L 19.027344 9.582031 L 19.015625 9.570312 L 19.007812 9.566406 L 19.003906 9.558594 L 18.996094 9.554688 L 18.984375 9.542969 L 18.96875 9.535156 L 18.964844 9.53125 L 18.941406 9.519531 L 18.9375 9.511719 L 18.90625 9.496094 L 18.902344 9.492188 L 18.871094 9.476562 L 18.863281 9.476562 L 18.839844 9.464844 L 18.835938 9.464844 Z M 18.839844 9.464844 L 18.84375 9.464844 Z M 18.5625 9.414062 L 18.5625 9.308594 L 18.636719 9.308594 L 18.648438 9.3125 L 18.679688 9.3125 L 18.691406 9.316406 L 18.699219 9.316406 L 18.710938 9.320312 L 18.730469 9.320312 L 18.738281 9.324219 L 18.75 9.324219 L 18.757812 9.328125 L 18.769531 9.332031 L 18.777344 9.332031 L 18.789062 9.335938 L 18.800781 9.335938 L 18.816406 9.34375 L 18.828125 9.34375 L 18.84375 9.351562 L 18.855469 9.355469 L 18.871094 9.363281 L 18.882812 9.367188 L 18.839844 9.464844 L 18.832031 9.464844 L 18.808594 9.453125 L 18.800781 9.453125 L 18.785156 9.445312 L 18.777344 9.445312 L 18.765625 9.441406 L 18.761719 9.441406 L 18.75 9.4375 L 18.742188 9.4375 L 18.734375 9.433594 L 18.726562 9.433594 L 18.71875 9.429688 L 18.699219 9.429688 L 18.691406 9.425781 L 18.683594 9.425781 L 18.671875 9.421875 L 18.644531 9.421875 L 18.636719 9.417969 L 18.601562 9.417969 L 18.589844 9.414062 Z M 18.289062 9.464844 L 18.246094 9.363281 L 18.257812 9.359375 L 18.265625 9.355469 L 18.273438 9.355469 L 18.285156 9.351562 L 18.300781 9.34375 L 18.3125 9.339844 L 18.320312 9.339844 L 18.328125 9.335938 L 18.339844 9.335938 L 18.351562 9.332031 L 18.359375 9.328125 L 18.371094 9.328125 L 18.378906 9.324219 L 18.390625 9.324219 L 18.398438 9.320312 L 18.410156 9.320312 L 18.417969 9.316406 L 18.4375 9.316406 L 18.449219 9.3125 L 18.46875 9.3125 L 18.480469 9.308594 L 18.523438 9.308594 L 18.53125 9.304688 L 18.566406 9.304688 L 18.566406 9.414062 L 18.519531 9.414062 L 18.511719 9.417969 L 18.472656 9.417969 L 18.464844 9.421875 L 18.449219 9.421875 L 18.4375 9.425781 L 18.429688 9.425781 L 18.421875 9.429688 L 18.40625 9.429688 L 18.394531 9.433594 L 18.386719 9.433594 L 18.378906 9.4375 L 18.371094 9.4375 L 18.363281 9.441406 L 18.355469 9.441406 L 18.339844 9.449219 L 18.328125 9.449219 L 18.3125 9.457031 L 18.308594 9.457031 L 18.296875 9.460938 Z M 18.289062 9.464844 L 18.285156 9.464844 Z M 18.070312 9.609375 L 17.996094 9.53125 L 18.023438 9.503906 L 18.03125 9.5 L 18.039062 9.492188 L 18.046875 9.488281 L 18.050781 9.480469 L 18.058594 9.476562 L 18.066406 9.46875 L 18.074219 9.464844 L 18.082031 9.457031 L 18.089844 9.453125 L 18.097656 9.445312 L 18.113281 9.4375 L 18.121094 9.429688 L 18.136719 9.421875 L 18.144531 9.414062 L 18.160156 9.40625 L 18.171875 9.402344 L 18.179688 9.394531 L 18.203125 9.382812 L 18.214844 9.378906 L 18.230469 9.371094 L 18.242188 9.367188 L 18.25 9.363281 L 18.289062 9.464844 L 18.273438 9.472656 L 18.265625 9.472656 L 18.226562 9.492188 L 18.222656 9.496094 L 18.183594 9.515625 L 18.179688 9.519531 L 18.164062 9.527344 L 18.160156 9.535156 L 18.144531 9.542969 L 18.132812 9.554688 L 18.125 9.558594 L 18.101562 9.582031 L 18.09375 9.585938 Z M 18.070312 9.609375 Z M 17.921875 9.832031 L 17.820312 9.792969 L 17.820312 9.789062 L 17.828125 9.78125 L 17.832031 9.773438 L 17.835938 9.761719 L 17.847656 9.738281 L 17.851562 9.726562 L 17.855469 9.71875 L 17.863281 9.710938 L 17.871094 9.695312 L 17.875 9.683594 L 17.882812 9.675781 L 17.886719 9.667969 L 17.894531 9.660156 L 17.902344 9.644531 L 17.910156 9.636719 L 17.917969 9.621094 L 17.925781 9.613281 L 17.929688 9.605469 L 17.9375 9.597656 L 17.941406 9.589844 L 17.957031 9.574219 L 17.960938 9.566406 L 17.976562 9.550781 L 17.980469 9.542969 L 17.988281 9.539062 L 17.996094 9.53125 L 18.074219 9.609375 L 18.066406 9.613281 L 18.0625 9.621094 L 18.054688 9.625 L 18.050781 9.632812 L 18.042969 9.636719 L 18.039062 9.644531 L 18.027344 9.65625 L 18.023438 9.664062 L 18.015625 9.667969 L 18.003906 9.691406 L 17.996094 9.695312 L 17.984375 9.71875 L 17.980469 9.722656 L 17.976562 9.730469 L 17.96875 9.738281 Z M 17.820312 9.792969 L 17.820312 9.789062 Z M 17.871094 10.117188 L 17.761719 10.117188 L 17.761719 10.085938 L 17.765625 10.074219 L 17.765625 10.03125 L 17.769531 10.023438 L 17.769531 10 L 17.773438 9.988281 L 17.773438 9.96875 L 17.777344 9.957031 L 17.777344 9.949219 L 17.78125 9.9375 L 17.78125 9.929688 L 17.785156 9.917969 L 17.785156 9.90625 L 17.789062 9.898438 L 17.792969 9.886719 L 17.792969 9.878906 L 17.796875 9.867188 L 17.800781 9.859375 L 17.800781 9.847656 L 17.804688 9.839844 L 17.808594 9.828125 L 17.8125 9.820312 L 17.816406 9.808594 L 17.816406 9.800781 L 17.820312 9.792969 L 17.921875 9.832031 L 17.921875 9.839844 L 17.910156 9.863281 L 17.910156 9.871094 L 17.902344 9.886719 L 17.902344 9.898438 L 17.898438 9.90625 L 17.898438 9.914062 L 17.894531 9.921875 L 17.894531 9.929688 L 17.890625 9.941406 L 17.890625 9.949219 L 17.886719 9.957031 L 17.886719 9.964844 L 17.882812 9.976562 L 17.882812 9.996094 L 17.878906 10.003906 L 17.878906 10.03125 L 17.875 10.039062 L 17.875 10.078125 L 17.871094 10.089844 Z M 17.921875 10.402344 L 17.820312 10.445312 L 17.816406 10.433594 L 17.816406 10.425781 L 17.8125 10.417969 L 17.808594 10.40625 L 17.804688 10.398438 L 17.800781 10.386719 L 17.800781 10.375 L 17.796875 10.367188 L 17.792969 10.355469 L 17.792969 10.347656 L 17.789062 10.335938 L 17.785156 10.328125 L 17.785156 10.316406 L 17.78125 10.308594 L 17.78125 10.296875 L 17.777344 10.289062 L 17.777344 10.277344 L 17.773438 10.265625 L 17.773438 10.246094 L 17.769531 10.234375 L 17.769531 10.214844 L 17.765625 10.203125 L 17.765625 10.160156 L 17.761719 10.152344 L 17.761719 10.117188 L 17.871094 10.117188 L 17.871094 10.15625 L 17.875 10.167969 L 17.875 10.203125 L 17.878906 10.214844 L 17.878906 10.230469 L 17.882812 10.242188 L 17.882812 10.257812 L 17.886719 10.269531 L 17.886719 10.289062 L 17.890625 10.296875 L 17.890625 10.304688 L 17.894531 10.3125 L 17.894531 10.320312 L 17.898438 10.328125 L 17.902344 10.339844 L 17.902344 10.347656 L 17.910156 10.363281 L 17.910156 10.371094 L 17.914062 10.378906 L 17.914062 10.386719 L 17.917969 10.398438 L 17.921875 10.40625 Z M 17.820312 10.445312 Z M 18.066406 10.628906 L 17.992188 10.703125 L 17.984375 10.699219 L 17.96875 10.683594 L 17.964844 10.675781 L 17.945312 10.65625 L 17.941406 10.648438 L 17.933594 10.640625 L 17.929688 10.632812 L 17.921875 10.625 L 17.917969 10.617188 L 17.910156 10.609375 L 17.902344 10.59375 L 17.894531 10.585938 L 17.890625 10.574219 L 17.882812 10.558594 L 17.875 10.550781 L 17.867188 10.535156 L 17.863281 10.523438 L 17.855469 10.515625 L 17.84375 10.492188 L 17.839844 10.480469 L 17.832031 10.464844 L 17.828125 10.453125 L 17.824219 10.445312 L 17.921875 10.402344 L 17.929688 10.417969 L 17.933594 10.429688 L 17.9375 10.433594 L 17.957031 10.472656 L 17.964844 10.480469 L 17.988281 10.527344 L 18 10.539062 L 18.007812 10.554688 L 18.019531 10.566406 L 18.023438 10.574219 L 18.035156 10.585938 L 18.039062 10.59375 L 18.054688 10.609375 L 18.058594 10.617188 L 18.070312 10.628906 Z M 17.992188 10.703125 Z M 18.289062 10.773438 L 18.246094 10.871094 L 18.238281 10.871094 L 18.230469 10.867188 L 18.21875 10.859375 L 18.203125 10.851562 L 18.191406 10.847656 L 18.160156 10.832031 L 18.148438 10.828125 L 18.140625 10.820312 L 18.117188 10.808594 L 18.109375 10.800781 L 18.101562 10.796875 L 18.09375 10.789062 L 18.078125 10.78125 L 18.066406 10.773438 L 18.0625 10.769531 L 18.050781 10.761719 L 18.039062 10.75 L 18.03125 10.746094 L 18.015625 10.730469 L 18.007812 10.726562 L 18 10.71875 L 17.996094 10.710938 L 17.988281 10.707031 L 18.066406 10.628906 L 18.070312 10.636719 L 18.078125 10.640625 L 18.082031 10.648438 L 18.089844 10.652344 L 18.09375 10.660156 L 18.101562 10.664062 L 18.113281 10.675781 L 18.121094 10.679688 L 18.125 10.683594 L 18.132812 10.6875 L 18.136719 10.695312 L 18.160156 10.707031 L 18.164062 10.714844 L 18.203125 10.734375 L 18.207031 10.738281 L 18.285156 10.777344 Z M 18.246094 10.871094 L 18.253906 10.875 Z M 18.5625 10.824219 L 18.5625 10.929688 L 18.5 10.929688 L 18.488281 10.925781 L 18.457031 10.925781 L 18.449219 10.921875 L 18.429688 10.921875 L 18.417969 10.917969 L 18.40625 10.917969 L 18.398438 10.914062 L 18.378906 10.914062 L 18.367188 10.910156 L 18.359375 10.90625 L 18.347656 10.90625 L 18.339844 10.902344 L 18.328125 10.898438 L 18.320312 10.898438 L 18.308594 10.894531 L 18.300781 10.890625 L 18.292969 10.890625 L 18.28125 10.886719 L 18.265625 10.878906 L 18.253906 10.875 L 18.246094 10.875 L 18.285156 10.773438 L 18.300781 10.78125 L 18.308594 10.78125 L 18.324219 10.789062 L 18.332031 10.789062 L 18.339844 10.792969 L 18.347656 10.792969 L 18.355469 10.796875 L 18.367188 10.800781 L 18.375 10.800781 L 18.382812 10.804688 L 18.390625 10.804688 L 18.398438 10.808594 L 18.40625 10.808594 L 18.417969 10.8125 L 18.433594 10.8125 L 18.441406 10.816406 L 18.449219 10.816406 L 18.460938 10.820312 L 18.496094 10.820312 L 18.503906 10.824219 Z M 18.023438 11.300781 L 18.0625 11.199219 L 18.078125 11.207031 L 18.09375 11.210938 L 18.105469 11.214844 L 18.121094 11.222656 L 18.183594 11.238281 L 18.195312 11.242188 L 18.289062 11.265625 L 18.304688 11.265625 L 18.335938 11.273438 L 18.351562 11.273438 L 18.367188 11.277344 L 18.402344 11.277344 L 18.417969 11.28125 L 18.433594 11.28125 L 18.449219 11.285156 L 18.5 11.285156 L 18.519531 11.289062 L 18.570312 11.289062 L 18.570312 11.398438 L 18.550781 11.398438 L 18.53125 11.394531 L 18.480469 11.394531 L 18.460938 11.390625 L 18.425781 11.390625 L 18.410156 11.386719 L 18.375 11.386719 L 18.355469 11.382812 L 18.339844 11.382812 L 18.320312 11.378906 L 18.304688 11.375 L 18.289062 11.375 L 18.273438 11.371094 L 18.253906 11.367188 L 18.191406 11.351562 L 18.171875 11.347656 L 18.140625 11.339844 L 18.125 11.332031 L 18.078125 11.320312 L 18.0625 11.3125 L 18.046875 11.308594 L 18.03125 11.300781 Z M 18.023438 11.300781 L 17.996094 11.289062 Z M 17.589844 11.03125 L 17.667969 10.953125 L 17.664062 10.953125 L 17.675781 10.964844 L 17.699219 10.980469 L 17.730469 11.011719 L 17.777344 11.042969 L 17.789062 11.054688 L 17.8125 11.070312 L 17.828125 11.078125 L 17.886719 11.117188 L 17.902344 11.125 L 17.914062 11.132812 L 17.929688 11.136719 L 17.941406 11.144531 L 17.957031 11.152344 L 17.96875 11.15625 L 17.984375 11.164062 L 17.996094 11.167969 L 18.011719 11.175781 L 18.023438 11.179688 L 18.039062 11.1875 L 18.054688 11.191406 L 18.066406 11.199219 L 18.027344 11.300781 L 18.011719 11.292969 L 17.996094 11.289062 L 17.984375 11.28125 L 17.96875 11.273438 L 17.953125 11.269531 L 17.90625 11.246094 L 17.894531 11.238281 L 17.878906 11.230469 L 17.863281 11.226562 L 17.847656 11.214844 L 17.835938 11.210938 L 17.820312 11.199219 L 17.808594 11.191406 L 17.792969 11.183594 L 17.78125 11.175781 L 17.765625 11.167969 L 17.753906 11.160156 L 17.738281 11.152344 L 17.726562 11.140625 L 17.714844 11.132812 L 17.703125 11.121094 L 17.691406 11.113281 L 17.675781 11.101562 L 17.664062 11.09375 L 17.652344 11.082031 L 17.640625 11.074219 L 17.605469 11.039062 L 17.59375 11.03125 L 17.59375 11.027344 Z M 17.589844 11.035156 L 17.59375 11.035156 L 17.589844 11.035156 L 17.59375 11.035156 Z M 17.304688 10.628906 L 17.40625 10.585938 L 17.414062 10.597656 L 17.417969 10.613281 L 17.421875 10.625 L 17.429688 10.636719 L 17.4375 10.652344 L 17.441406 10.664062 L 17.464844 10.699219 L 17.472656 10.714844 L 17.476562 10.726562 L 17.515625 10.785156 L 17.527344 10.796875 L 17.542969 10.820312 L 17.550781 10.828125 L 17.558594 10.839844 L 17.570312 10.851562 L 17.585938 10.875 L 17.597656 10.882812 L 17.613281 10.90625 L 17.625 10.917969 L 17.636719 10.925781 L 17.644531 10.9375 L 17.65625 10.945312 L 17.664062 10.957031 L 17.589844 11.035156 L 17.511719 10.957031 L 17.503906 10.945312 L 17.492188 10.933594 L 17.484375 10.921875 L 17.472656 10.910156 L 17.464844 10.898438 L 17.457031 10.882812 L 17.445312 10.871094 L 17.429688 10.847656 L 17.417969 10.835938 L 17.410156 10.820312 L 17.394531 10.796875 L 17.386719 10.78125 L 17.375 10.769531 L 17.367188 10.753906 L 17.359375 10.742188 L 17.351562 10.726562 L 17.347656 10.714844 L 17.332031 10.683594 L 17.324219 10.671875 L 17.316406 10.65625 L 17.3125 10.640625 Z M 17.203125 10.121094 L 17.3125 10.121094 L 17.3125 10.152344 L 17.316406 10.167969 L 17.316406 10.214844 L 17.320312 10.230469 L 17.320312 10.257812 L 17.324219 10.273438 L 17.324219 10.289062 L 17.332031 10.320312 L 17.332031 10.332031 L 17.339844 10.363281 L 17.339844 10.375 L 17.347656 10.40625 L 17.351562 10.417969 L 17.359375 10.449219 L 17.363281 10.460938 L 17.371094 10.492188 L 17.375 10.503906 L 17.378906 10.519531 L 17.386719 10.53125 L 17.390625 10.546875 L 17.394531 10.558594 L 17.402344 10.574219 L 17.40625 10.585938 L 17.308594 10.628906 L 17.292969 10.597656 L 17.289062 10.585938 L 17.28125 10.570312 L 17.273438 10.539062 L 17.265625 10.523438 L 17.226562 10.367188 L 17.226562 10.351562 L 17.21875 10.320312 L 17.21875 10.304688 L 17.214844 10.285156 L 17.214844 10.269531 L 17.210938 10.253906 L 17.210938 10.238281 L 17.207031 10.222656 L 17.207031 10.171875 L 17.203125 10.15625 Z M 17.304688 9.613281 L 17.40625 9.652344 L 17.402344 9.667969 L 17.394531 9.679688 L 17.390625 9.695312 L 17.386719 9.707031 L 17.378906 9.722656 L 17.375 9.734375 L 17.371094 9.75 L 17.367188 9.761719 L 17.359375 9.792969 L 17.351562 9.804688 L 17.351562 9.820312 L 17.347656 9.835938 L 17.34375 9.847656 L 17.335938 9.878906 L 17.335938 9.894531 L 17.332031 9.90625 L 17.328125 9.921875 L 17.328125 9.9375 L 17.324219 9.953125 L 17.324219 9.964844 L 17.320312 9.980469 L 17.320312 10.011719 L 17.316406 10.027344 L 17.316406 10.058594 L 17.3125 10.074219 L 17.3125 10.121094 L 17.203125 10.121094 L 17.203125 10.085938 L 17.207031 10.070312 L 17.207031 10.019531 L 17.210938 10.003906 L 17.210938 9.984375 L 17.214844 9.96875 L 17.214844 9.953125 L 17.21875 9.9375 L 17.21875 9.921875 L 17.222656 9.902344 L 17.226562 9.886719 L 17.226562 9.871094 L 17.265625 9.714844 L 17.273438 9.703125 L 17.28125 9.671875 L 17.289062 9.65625 L 17.292969 9.644531 L 17.300781 9.628906 Z M 17.40625 9.652344 L 17.386719 9.699219 Z M 17.59375 9.207031 L 17.667969 9.285156 L 17.65625 9.292969 L 17.648438 9.304688 L 17.636719 9.3125 L 17.625 9.324219 L 17.617188 9.335938 L 17.605469 9.34375 L 17.597656 9.355469 L 17.585938 9.367188 L 17.578125 9.378906 L 17.558594 9.398438 L 17.527344 9.445312 L 17.507812 9.464844 L 17.476562 9.511719 L 17.472656 9.527344 L 17.441406 9.574219 L 17.4375 9.589844 L 17.421875 9.613281 L 17.417969 9.628906 L 17.414062 9.640625 L 17.40625 9.652344 L 17.304688 9.613281 L 17.320312 9.582031 L 17.324219 9.566406 L 17.332031 9.554688 L 17.347656 9.523438 L 17.355469 9.511719 L 17.363281 9.496094 L 17.378906 9.472656 L 17.386719 9.457031 L 17.394531 9.445312 L 17.402344 9.429688 L 17.414062 9.417969 L 17.429688 9.394531 L 17.4375 9.378906 L 17.449219 9.367188 L 17.457031 9.355469 L 17.46875 9.34375 L 17.476562 9.332031 L 17.488281 9.320312 L 17.496094 9.308594 L 17.519531 9.285156 L 17.527344 9.273438 L 17.585938 9.214844 L 17.597656 9.207031 Z M 18.023438 8.9375 L 18.0625 9.039062 L 18.066406 9.039062 L 18.050781 9.042969 L 18.035156 9.050781 L 18.023438 9.054688 L 18.007812 9.058594 L 17.996094 9.066406 L 17.980469 9.074219 L 17.96875 9.078125 L 17.953125 9.085938 L 17.941406 9.09375 L 17.925781 9.097656 L 17.902344 9.113281 L 17.886719 9.121094 L 17.839844 9.152344 L 17.824219 9.160156 L 17.765625 9.199219 L 17.753906 9.210938 L 17.730469 9.226562 L 17.710938 9.246094 L 17.699219 9.253906 L 17.6875 9.265625 L 17.675781 9.273438 L 17.664062 9.285156 L 17.589844 9.207031 L 17.625 9.171875 L 17.636719 9.164062 L 17.648438 9.152344 L 17.664062 9.144531 L 17.675781 9.132812 L 17.6875 9.125 L 17.699219 9.113281 L 17.722656 9.097656 L 17.738281 9.085938 L 17.761719 9.070312 L 17.777344 9.0625 L 17.789062 9.054688 L 17.804688 9.042969 L 17.816406 9.035156 L 17.832031 9.027344 L 17.84375 9.019531 L 17.875 9.003906 L 17.886719 8.996094 L 17.917969 8.980469 L 17.929688 8.976562 L 17.960938 8.960938 L 17.976562 8.957031 L 18.007812 8.941406 L 18.019531 8.9375 Z M 18.023438 8.9375 L 18.003906 8.945312 Z M 18.5625 8.839844 L 18.5625 8.949219 L 18.511719 8.949219 L 18.496094 8.953125 L 18.445312 8.953125 L 18.429688 8.957031 L 18.414062 8.957031 L 18.398438 8.960938 L 18.367188 8.960938 L 18.335938 8.96875 L 18.320312 8.96875 L 18.289062 8.976562 L 18.273438 8.976562 L 18.210938 8.992188 L 18.199219 8.996094 L 18.136719 9.011719 L 18.121094 9.019531 L 18.109375 9.023438 L 18.09375 9.027344 L 18.078125 9.035156 L 18.066406 9.039062 L 18.027344 8.9375 L 18.042969 8.933594 L 18.058594 8.925781 L 18.074219 8.921875 L 18.089844 8.914062 L 18.136719 8.902344 L 18.152344 8.894531 L 18.199219 8.882812 L 18.21875 8.878906 L 18.265625 8.867188 L 18.285156 8.867188 L 18.316406 8.859375 L 18.332031 8.859375 L 18.351562 8.855469 L 18.367188 8.851562 L 18.402344 8.851562 L 18.417969 8.847656 L 18.453125 8.847656 L 18.472656 8.84375 L 18.527344 8.84375 L 18.542969 8.839844 Z M 19.101562 8.9375 L 19.0625 9.039062 L 19.050781 9.03125 L 19.019531 9.023438 L 19.007812 9.015625 L 18.945312 9 L 18.933594 8.996094 L 18.839844 8.972656 L 18.824219 8.972656 L 18.792969 8.964844 L 18.777344 8.964844 L 18.761719 8.960938 L 18.746094 8.960938 L 18.730469 8.957031 L 18.699219 8.957031 L 18.679688 8.953125 L 18.648438 8.953125 L 18.632812 8.949219 L 18.566406 8.949219 L 18.566406 8.839844 L 18.601562 8.839844 L 18.617188 8.84375 L 18.671875 8.84375 L 18.691406 8.847656 L 18.726562 8.847656 L 18.742188 8.851562 L 18.761719 8.851562 L 18.777344 8.855469 L 18.792969 8.855469 L 18.8125 8.859375 L 18.828125 8.863281 L 18.84375 8.863281 L 18.863281 8.867188 L 18.910156 8.878906 L 18.929688 8.882812 L 19.007812 8.902344 L 19.023438 8.910156 L 19.054688 8.917969 L 19.070312 8.925781 L 19.101562 8.933594 Z M 19.53125 9.207031 L 19.457031 9.285156 L 19.425781 9.253906 L 19.414062 9.246094 L 19.402344 9.234375 L 19.378906 9.21875 L 19.367188 9.207031 L 19.34375 9.191406 L 19.335938 9.183594 L 19.300781 9.160156 L 19.285156 9.148438 L 19.261719 9.132812 L 19.25 9.128906 L 19.234375 9.121094 L 19.1875 9.089844 L 19.171875 9.085938 L 19.160156 9.078125 L 19.144531 9.070312 L 19.132812 9.066406 L 19.117188 9.058594 L 19.105469 9.054688 L 19.089844 9.046875 L 19.078125 9.042969 L 19.0625 9.035156 L 19.101562 8.933594 L 19.132812 8.949219 L 19.148438 8.953125 L 19.164062 8.960938 L 19.175781 8.96875 L 19.191406 8.972656 L 19.207031 8.980469 L 19.21875 8.988281 L 19.25 9.003906 L 19.261719 9.011719 L 19.277344 9.019531 L 19.289062 9.027344 L 19.304688 9.035156 L 19.316406 9.042969 L 19.332031 9.050781 L 19.34375 9.058594 L 19.359375 9.070312 L 19.371094 9.078125 L 19.386719 9.085938 L 19.398438 9.097656 L 19.421875 9.113281 L 19.433594 9.125 L 19.449219 9.132812 L 19.460938 9.144531 L 19.472656 9.152344 L 19.496094 9.175781 L 19.507812 9.183594 Z M 19.457031 9.285156 Z M 19.820312 9.609375 L 19.71875 9.652344 L 19.714844 9.640625 L 19.707031 9.628906 L 19.699219 9.613281 L 19.695312 9.601562 L 19.6875 9.589844 L 19.679688 9.574219 L 19.675781 9.5625 L 19.574219 9.410156 L 19.5625 9.398438 L 19.554688 9.386719 L 19.535156 9.367188 L 19.527344 9.355469 L 19.515625 9.347656 L 19.507812 9.335938 L 19.476562 9.304688 L 19.46875 9.292969 L 19.457031 9.285156 L 19.53125 9.207031 L 19.542969 9.214844 L 19.566406 9.238281 L 19.574219 9.25 L 19.609375 9.285156 L 19.617188 9.296875 L 19.640625 9.320312 L 19.648438 9.332031 L 19.660156 9.34375 L 19.667969 9.355469 L 19.675781 9.371094 L 19.6875 9.382812 L 19.703125 9.40625 L 19.714844 9.417969 L 19.722656 9.433594 L 19.730469 9.445312 L 19.738281 9.460938 L 19.746094 9.472656 L 19.753906 9.488281 L 19.769531 9.511719 L 19.777344 9.527344 L 19.785156 9.539062 L 19.792969 9.554688 L 19.796875 9.570312 L 19.804688 9.582031 L 19.820312 9.613281 Z M 19.820312 9.609375 Z M 19.921875 10.121094 L 19.816406 10.121094 L 19.816406 10.105469 L 19.8125 10.089844 L 19.8125 10.039062 L 19.808594 10.023438 L 19.808594 9.996094 L 19.804688 9.980469 L 19.804688 9.949219 L 19.796875 9.917969 L 19.796875 9.902344 L 19.792969 9.890625 L 19.789062 9.875 L 19.789062 9.859375 L 19.785156 9.847656 L 19.777344 9.816406 L 19.773438 9.804688 L 19.765625 9.773438 L 19.761719 9.761719 L 19.753906 9.746094 L 19.75 9.734375 L 19.746094 9.71875 L 19.742188 9.707031 L 19.734375 9.691406 L 19.730469 9.679688 L 19.722656 9.667969 L 19.71875 9.652344 L 19.816406 9.609375 L 19.824219 9.625 L 19.832031 9.636719 L 19.835938 9.652344 L 19.84375 9.667969 L 19.851562 9.699219 L 19.859375 9.710938 L 19.867188 9.742188 L 19.875 9.757812 L 19.898438 9.851562 L 19.898438 9.871094 L 19.90625 9.902344 L 19.90625 9.917969 L 19.914062 9.949219 L 19.914062 9.984375 L 19.917969 10 L 19.917969 10.03125 L 19.921875 10.046875 Z M 19.820312 10.628906 L 19.71875 10.585938 L 19.722656 10.574219 L 19.730469 10.558594 L 19.734375 10.546875 L 19.738281 10.53125 L 19.746094 10.519531 L 19.75 10.503906 L 19.753906 10.492188 L 19.757812 10.476562 L 19.761719 10.464844 L 19.769531 10.433594 L 19.777344 10.417969 L 19.78125 10.40625 L 19.78125 10.390625 L 19.785156 10.375 L 19.789062 10.363281 L 19.792969 10.347656 L 19.792969 10.332031 L 19.796875 10.320312 L 19.800781 10.304688 L 19.800781 10.289062 L 19.804688 10.273438 L 19.804688 10.257812 L 19.808594 10.242188 L 19.808594 10.199219 L 19.8125 10.183594 L 19.8125 10.117188 L 19.921875 10.117188 L 19.921875 10.167969 L 19.917969 10.1875 L 19.917969 10.234375 L 19.914062 10.253906 L 19.914062 10.269531 L 19.910156 10.285156 L 19.910156 10.300781 L 19.90625 10.320312 L 19.902344 10.335938 L 19.902344 10.351562 L 19.890625 10.398438 L 19.890625 10.414062 L 19.886719 10.429688 L 19.878906 10.445312 L 19.859375 10.523438 L 19.851562 10.539062 L 19.847656 10.550781 L 19.84375 10.566406 L 19.835938 10.582031 L 19.832031 10.597656 L 19.824219 10.609375 L 19.816406 10.625 Z M 19.53125 11.035156 L 19.457031 10.957031 L 19.46875 10.949219 L 19.476562 10.9375 L 19.488281 10.929688 L 19.496094 10.917969 L 19.527344 10.886719 L 19.535156 10.875 L 19.546875 10.867188 L 19.578125 10.820312 L 19.589844 10.808594 L 19.597656 10.796875 L 19.605469 10.789062 L 19.636719 10.742188 L 19.644531 10.726562 L 19.667969 10.691406 L 19.671875 10.679688 L 19.679688 10.667969 L 19.6875 10.652344 L 19.695312 10.640625 L 19.699219 10.628906 L 19.707031 10.613281 L 19.710938 10.601562 L 19.71875 10.585938 L 19.820312 10.632812 L 19.8125 10.644531 L 19.804688 10.660156 L 19.796875 10.671875 L 19.792969 10.6875 L 19.785156 10.703125 L 19.777344 10.714844 L 19.761719 10.746094 L 19.753906 10.757812 L 19.746094 10.773438 L 19.738281 10.785156 L 19.730469 10.800781 L 19.722656 10.8125 L 19.710938 10.824219 L 19.703125 10.839844 L 19.695312 10.851562 L 19.683594 10.863281 L 19.667969 10.886719 L 19.65625 10.902344 L 19.648438 10.914062 L 19.636719 10.925781 L 19.628906 10.9375 L 19.605469 10.960938 L 19.597656 10.972656 L 19.5625 11.007812 L 19.550781 11.015625 L 19.542969 11.027344 L 19.53125 11.039062 Z M 19.457031 10.957031 L 19.445312 10.96875 Z M 19.101562 11.304688 L 19.0625 11.203125 L 19.078125 11.195312 L 19.089844 11.191406 L 19.105469 11.183594 L 19.121094 11.179688 L 19.132812 11.171875 L 19.148438 11.167969 L 19.160156 11.160156 L 19.175781 11.152344 L 19.1875 11.148438 L 19.199219 11.140625 L 19.214844 11.132812 L 19.261719 11.101562 L 19.277344 11.09375 L 19.300781 11.078125 L 19.3125 11.074219 L 19.324219 11.0625 L 19.382812 11.023438 L 19.402344 11.003906 L 19.414062 10.996094 L 19.425781 10.984375 L 19.4375 10.976562 L 19.457031 10.957031 L 19.53125 11.035156 L 19.507812 11.058594 L 19.496094 11.066406 L 19.472656 11.089844 L 19.460938 11.097656 L 19.449219 11.109375 L 19.425781 11.125 L 19.410156 11.136719 L 19.386719 11.152344 L 19.375 11.164062 L 19.359375 11.171875 L 19.335938 11.1875 L 19.304688 11.203125 L 19.292969 11.210938 L 19.261719 11.226562 L 19.25 11.234375 L 19.21875 11.25 L 19.207031 11.257812 L 19.191406 11.265625 L 19.175781 11.269531 L 19.164062 11.277344 L 19.148438 11.285156 L 19.132812 11.289062 L 19.117188 11.296875 L 19.101562 11.300781 Z M 19.101562 11.304688 L 19.039062 11.328125 Z M 18.566406 11.398438 L 18.566406 11.289062 L 18.648438 11.289062 L 18.667969 11.285156 L 18.699219 11.285156 L 18.714844 11.28125 L 18.730469 11.28125 L 18.746094 11.277344 L 18.761719 11.277344 L 18.777344 11.273438 L 18.792969 11.273438 L 18.824219 11.265625 L 18.839844 11.265625 L 18.933594 11.242188 L 18.945312 11.238281 L 19.007812 11.222656 L 19.019531 11.214844 L 19.050781 11.207031 L 19.0625 11.199219 L 19.105469 11.300781 L 19.089844 11.308594 L 19.070312 11.3125 L 19.058594 11.320312 L 19.027344 11.328125 L 19.011719 11.335938 L 18.996094 11.339844 L 18.976562 11.34375 L 18.898438 11.363281 L 18.878906 11.367188 L 18.847656 11.375 L 18.832031 11.375 L 18.8125 11.378906 L 18.796875 11.382812 L 18.78125 11.382812 L 18.761719 11.386719 L 18.746094 11.386719 L 18.730469 11.390625 L 18.710938 11.390625 L 18.695312 11.394531 L 18.640625 11.394531 L 18.625 11.398438 Z M 18.566406 11.398438 "/>
<path style=" stroke:none;fill-rule:nonzero;fill:rgb(92.941176%,41.176471%,36.078431%);fill-opacity:1;" d="M 20.796875 10 L 21.941406 10 L 21.941406 10.4375 L 20.796875 10.4375 Z M 20.835938 11.300781 L 20.28125 11.300781 L 20.28125 8.933594 L 22.085938 8.933594 L 22.085938 9.371094 L 20.835938 9.371094 Z M 20.835938 11.300781 "/>
<path style=" stroke:none;fill-rule:nonzero;fill:rgb(92.941176%,41.176471%,36.078431%);fill-opacity:1;" d="M 21.9375 10.050781 L 20.792969 10.050781 L 20.792969 9.945312 L 21.9375 9.945312 L 21.992188 10 L 21.9375 10.054688 Z M 21.9375 9.945312 L 21.992188 9.945312 L 21.992188 10 Z M 21.882812 10.4375 L 21.882812 10 L 21.992188 10 L 21.992188 10.4375 L 21.9375 10.492188 Z M 21.992188 10.4375 L 21.992188 10.492188 L 21.9375 10.492188 Z M 20.792969 10.382812 L 21.9375 10.382812 L 21.9375 10.492188 L 20.792969 10.492188 L 20.738281 10.4375 Z M 20.792969 10.492188 L 20.738281 10.492188 L 20.738281 10.4375 Z M 20.847656 9.996094 L 20.847656 10.4375 L 20.738281 10.4375 L 20.738281 9.996094 L 20.792969 9.945312 Z M 20.738281 9.996094 L 20.738281 9.945312 L 20.792969 9.945312 Z M 20.28125 11.246094 L 20.832031 11.246094 L 20.832031 11.351562 L 20.28125 11.351562 L 20.226562 11.296875 Z M 20.28125 11.351562 L 20.226562 11.351562 L 20.226562 11.296875 Z M 20.335938 8.933594 L 20.335938 11.296875 L 20.226562 11.296875 L 20.226562 8.933594 L 20.28125 8.878906 Z M 20.226562 8.933594 L 20.226562 8.878906 L 20.28125 8.878906 Z M 22.085938 8.988281 L 20.28125 8.988281 L 20.28125 8.878906 L 22.085938 8.878906 L 22.140625 8.933594 Z M 22.085938 8.878906 L 22.140625 8.878906 L 22.140625 8.933594 Z M 22.03125 9.371094 L 22.03125 8.933594 L 22.136719 8.933594 L 22.136719 9.371094 L 22.082031 9.425781 L 22.027344 9.371094 Z M 22.136719 9.371094 L 22.136719 9.425781 L 22.082031 9.425781 Z M 20.832031 9.320312 L 22.082031 9.320312 L 22.082031 9.425781 L 20.832031 9.425781 L 20.777344 9.371094 L 20.832031 9.316406 Z M 20.777344 9.371094 L 20.777344 9.320312 L 20.832031 9.320312 Z M 20.777344 11.300781 L 20.777344 9.371094 L 20.886719 9.371094 L 20.886719 11.300781 L 20.832031 11.355469 Z M 20.886719 11.300781 L 20.886719 11.355469 L 20.832031 11.355469 Z M 20.886719 11.300781 "/>
<path style=" stroke:none;fill-rule:nonzero;fill:rgb(92.941176%,41.176471%,36.078431%);fill-opacity:1;" d="M 22.96875 10 L 24.113281 10 L 24.113281 10.4375 L 22.96875 10.4375 Z M 23.011719 11.300781 L 22.457031 11.300781 L 22.457031 8.933594 L 24.261719 8.933594 L 24.261719 9.371094 L 23.011719 9.371094 Z M 23.011719 11.300781 "/>
<path style=" stroke:none;fill-rule:nonzero;fill:rgb(92.941176%,41.176471%,36.078431%);fill-opacity:1;" d="M 24.113281 10.050781 L 22.96875 10.050781 L 22.96875 9.945312 L 24.113281 9.945312 L 24.167969 10 L 24.113281 10.054688 Z M 24.113281 9.945312 L 24.167969 9.945312 L 24.167969 10 Z M 24.058594 10.4375 L 24.058594 10 L 24.167969 10 L 24.167969 10.4375 L 24.113281 10.492188 Z M 24.167969 10.4375 L 24.167969 10.492188 L 24.113281 10.492188 Z M 22.96875 10.382812 L 24.113281 10.382812 L 24.113281 10.492188 L 22.96875 10.492188 L 22.914062 10.4375 Z M 22.96875 10.492188 L 22.914062 10.492188 L 22.914062 10.4375 Z M 23.023438 9.996094 L 23.023438 10.4375 L 22.914062 10.4375 L 22.914062 9.996094 L 22.96875 9.945312 Z M 22.914062 9.996094 L 22.914062 9.945312 L 22.96875 9.945312 Z M 22.457031 11.246094 L 23.011719 11.246094 L 23.011719 11.351562 L 22.457031 11.351562 L 22.402344 11.296875 Z M 22.457031 11.351562 L 22.402344 11.351562 L 22.402344 11.296875 Z M 22.511719 8.933594 L 22.511719 11.296875 L 22.40625 11.296875 L 22.40625 8.933594 L 22.460938 8.878906 L 22.515625 8.933594 Z M 22.40625 8.933594 L 22.40625 8.878906 L 22.460938 8.878906 Z M 24.261719 8.988281 L 22.460938 8.988281 L 22.460938 8.878906 L 24.261719 8.878906 L 24.316406 8.933594 Z M 24.261719 8.878906 L 24.316406 8.878906 L 24.316406 8.933594 Z M 24.207031 9.371094 L 24.207031 8.933594 L 24.316406 8.933594 L 24.316406 9.371094 L 24.261719 9.425781 Z M 24.316406 9.371094 L 24.316406 9.425781 L 24.261719 9.425781 Z M 23.011719 9.320312 L 24.261719 9.320312 L 24.261719 9.425781 L 23.011719 9.425781 L 22.957031 9.371094 L 23.011719 9.316406 Z M 22.957031 9.371094 L 22.957031 9.320312 L 23.011719 9.320312 Z M 22.957031 11.300781 L 22.957031 9.371094 L 23.066406 9.371094 L 23.066406 11.300781 L 23.011719 11.355469 Z M 23.066406 11.300781 L 23.066406 11.355469 L 23.011719 11.355469 Z M 23.066406 11.300781 "/>
</g>
</svg>
