<?xml version="1.0" encoding="UTF-8"?>
<svg xmlns="http://www.w3.org/2000/svg" xmlns:xlink="http://www.w3.org/1999/xlink" width="28px" height="28px" viewBox="0 0 28 21" version="1.1">
<g id="surface1">
<path style=" stroke:none;fill-rule:nonzero;fill:rgb(92.941176%,41.176471%,36.078431%);fill-opacity:1;" d="M 16.027344 8.015625 L 2.054688 8.015625 C 0.921875 8.015625 0 8.929688 0 10.054688 L 0 17.398438 C 0 18.523438 0.921875 19.4375 2.054688 19.4375 L 16.027344 19.4375 C 17.160156 19.4375 18.082031 18.523438 18.082031 17.398438 L 18.082031 10.054688 C 18.082031 8.929688 17.160156 8.015625 16.027344 8.015625 Z M 17.261719 17.398438 C 17.261719 18.074219 16.707031 18.621094 16.027344 18.621094 L 2.054688 18.621094 C 1.375 18.621094 0.820312 18.070312 0.820312 17.398438 L 0.820312 10.054688 C 0.820312 9.378906 1.375 8.832031 2.054688 8.832031 L 16.027344 8.832031 C 16.707031 8.832031 17.261719 9.378906 17.261719 10.054688 Z M 17.261719 17.398438 "/>
<path style=" stroke:none;fill-rule:nonzero;fill:rgb(92.941176%,41.176471%,36.078431%);fill-opacity:1;" d="M 2.878906 9.644531 C 2.648438 9.644531 2.464844 9.828125 2.464844 10.054688 L 2.464844 17.398438 C 2.464844 17.621094 2.648438 17.804688 2.878906 17.804688 C 3.105469 17.804688 3.289062 17.621094 3.289062 17.398438 L 3.289062 10.054688 C 3.289062 9.828125 3.105469 9.644531 2.878906 9.644531 Z M 2.878906 9.644531 "/>
<path style=" stroke:none;fill-rule:nonzero;fill:rgb(92.941176%,41.176471%,36.078431%);fill-opacity:1;" d="M 5.34375 9.644531 C 5.117188 9.644531 4.929688 9.828125 4.929688 10.054688 L 4.929688 17.398438 C 4.929688 17.621094 5.117188 17.804688 5.34375 17.804688 C 5.570312 17.804688 5.753906 17.621094 5.753906 17.398438 L 5.753906 10.054688 C 5.753906 9.828125 5.570312 9.644531 5.34375 9.644531 Z M 5.34375 9.644531 "/>
<path style=" stroke:none;fill-rule:nonzero;fill:rgb(92.941176%,41.176471%,36.078431%);fill-opacity:1;" d="M 7.808594 9.644531 C 7.582031 9.644531 7.398438 9.828125 7.398438 10.054688 L 7.398438 17.398438 C 7.398438 17.621094 7.582031 17.804688 7.808594 17.804688 C 8.035156 17.804688 8.21875 17.621094 8.21875 17.398438 L 8.21875 10.054688 C 8.21875 9.828125 8.035156 9.644531 7.808594 9.644531 Z M 7.808594 9.644531 "/>
<path style=" stroke:none;fill-rule:nonzero;fill:rgb(92.941176%,41.176471%,36.078431%);fill-opacity:1;" d="M 10.273438 9.644531 C 10.046875 9.644531 9.863281 9.828125 9.863281 10.054688 L 9.863281 17.398438 C 9.863281 17.621094 10.046875 17.804688 10.273438 17.804688 C 10.5 17.804688 10.683594 17.621094 10.683594 17.398438 L 10.683594 10.054688 C 10.683594 9.828125 10.5 9.644531 10.273438 9.644531 Z M 10.273438 9.644531 "/>
<path style=" stroke:none;fill-rule:nonzero;fill:rgb(92.941176%,41.176471%,36.078431%);fill-opacity:1;" d="M 12.738281 9.644531 C 12.511719 9.644531 12.328125 9.828125 12.328125 10.054688 L 12.328125 17.398438 C 12.328125 17.621094 12.511719 17.804688 12.738281 17.804688 C 12.96875 17.804688 13.152344 17.621094 13.152344 17.398438 L 13.152344 10.054688 C 13.152344 9.828125 12.96875 9.644531 12.738281 9.644531 Z M 12.738281 9.644531 "/>
<path style=" stroke:none;fill-rule:nonzero;fill:rgb(92.941176%,41.176471%,36.078431%);fill-opacity:1;" d="M 15.207031 9.644531 C 14.980469 9.644531 14.796875 9.828125 14.796875 10.054688 L 14.796875 17.398438 C 14.796875 17.621094 14.980469 17.804688 15.207031 17.804688 C 15.433594 17.804688 15.617188 17.621094 15.617188 17.398438 L 15.617188 10.054688 C 15.617188 9.828125 15.433594 9.644531 15.207031 9.644531 Z M 15.207031 9.644531 "/>
<path style=" stroke:none;fill-rule:nonzero;fill:rgb(92.941176%,41.176471%,36.078431%);fill-opacity:1;" d="M 3.699219 18.621094 C 3.472656 18.621094 3.289062 18.804688 3.289062 19.027344 L 3.289062 20.660156 C 3.289062 20.886719 3.472656 21.066406 3.699219 21.066406 C 3.925781 21.066406 4.109375 20.886719 4.109375 20.660156 L 4.109375 19.027344 C 4.109375 18.804688 3.925781 18.621094 3.699219 18.621094 Z M 3.699219 18.621094 "/>
<path style=" stroke:none;fill-rule:nonzero;fill:rgb(92.941176%,41.176471%,36.078431%);fill-opacity:1;" d="M 14.382812 18.621094 C 14.15625 18.621094 13.972656 18.804688 13.972656 19.027344 L 13.972656 20.660156 C 13.972656 20.886719 14.15625 21.066406 14.382812 21.066406 C 14.613281 21.066406 14.796875 20.886719 14.796875 20.660156 L 14.796875 19.027344 C 14.796875 18.804688 14.613281 18.621094 14.382812 18.621094 Z M 14.382812 18.621094 "/>
<path style=" stroke:none;fill-rule:nonzero;fill:rgb(92.941176%,41.176471%,36.078431%);fill-opacity:1;" d="M 17.074219 0.960938 C 15.625 1.792969 14.503906 3.089844 13.902344 4.644531 C 13.835938 4.8125 13.921875 5.003906 14.09375 5.066406 C 14.265625 5.132812 14.457031 5.046875 14.523438 4.878906 C 15.679688 1.894531 18.828125 0.171875 21.984375 0.785156 C 25.144531 1.402344 27.398438 4.179688 27.332031 7.375 C 27.265625 10.570312 24.898438 13.253906 21.71875 13.742188 C 21.601562 13.757812 21.5 13.835938 21.457031 13.945312 C 21.414062 14.058594 21.433594 14.183594 21.507812 14.273438 C 21.582031 14.367188 21.703125 14.410156 21.820312 14.394531 C 24.714844 13.949219 27.058594 11.832031 27.777344 9.015625 C 28.492188 6.195312 27.445312 3.226562 25.109375 1.472656 C 22.777344 -0.285156 19.613281 -0.484375 17.074219 0.960938 Z M 17.074219 0.960938 "/>
<path style=" stroke:none;fill-rule:nonzero;fill:rgb(92.941176%,41.176471%,36.078431%);fill-opacity:1;" d="M 18.5625 7.375 C 18.667969 7.375 18.769531 7.355469 18.855469 7.320312 C 18.945312 7.285156 19.023438 7.230469 19.09375 7.164062 C 19.160156 7.097656 19.214844 7.015625 19.25 6.925781 C 19.289062 6.832031 19.308594 6.730469 19.308594 6.617188 C 19.308594 6.503906 19.289062 6.402344 19.25 6.308594 C 19.214844 6.214844 19.160156 6.136719 19.09375 6.070312 C 19.027344 6 18.949219 5.949219 18.859375 5.914062 C 18.769531 5.878906 18.667969 5.859375 18.5625 5.859375 C 18.453125 5.859375 18.355469 5.878906 18.265625 5.914062 C 18.175781 5.949219 18.101562 6 18.03125 6.070312 C 17.960938 6.136719 17.910156 6.214844 17.871094 6.308594 C 17.835938 6.402344 17.816406 6.503906 17.816406 6.617188 C 17.816406 6.726562 17.835938 6.828125 17.871094 6.921875 C 17.910156 7.015625 17.960938 7.097656 18.027344 7.164062 C 18.09375 7.230469 18.175781 7.28125 18.265625 7.320312 C 18.355469 7.355469 18.453125 7.375 18.5625 7.375 Z M 18.566406 7.839844 C 18.375 7.839844 18.203125 7.808594 18.042969 7.75 C 17.882812 7.6875 17.746094 7.601562 17.628906 7.492188 C 17.511719 7.382812 17.417969 7.25 17.355469 7.105469 C 17.292969 6.953125 17.257812 6.792969 17.257812 6.617188 C 17.257812 6.441406 17.292969 6.277344 17.355469 6.128906 C 17.417969 5.980469 17.511719 5.851562 17.628906 5.742188 C 17.75 5.632812 17.886719 5.542969 18.046875 5.484375 C 18.203125 5.421875 18.378906 5.394531 18.5625 5.394531 C 18.75 5.394531 18.925781 5.421875 19.082031 5.484375 C 19.242188 5.542969 19.378906 5.632812 19.496094 5.742188 C 19.613281 5.851562 19.703125 5.980469 19.769531 6.128906 C 19.835938 6.277344 19.871094 6.4375 19.871094 6.617188 C 19.871094 6.792969 19.835938 6.953125 19.769531 7.105469 C 19.703125 7.253906 19.613281 7.382812 19.496094 7.492188 C 19.378906 7.601562 19.242188 7.6875 19.082031 7.75 C 18.925781 7.808594 18.75 7.839844 18.566406 7.839844 Z M 18.566406 7.839844 "/>
<path style=" stroke:none;fill-rule:nonzero;fill:rgb(92.941176%,41.176471%,36.078431%);fill-opacity:1;" d="M 18.835938 7.269531 L 18.875 7.371094 L 18.867188 7.375 L 18.859375 7.375 L 18.84375 7.382812 L 18.832031 7.386719 L 18.824219 7.390625 L 18.816406 7.390625 L 18.804688 7.394531 L 18.796875 7.398438 L 18.785156 7.398438 L 18.777344 7.402344 L 18.765625 7.40625 L 18.757812 7.40625 L 18.746094 7.410156 L 18.734375 7.410156 L 18.726562 7.414062 L 18.71875 7.414062 L 18.707031 7.417969 L 18.6875 7.417969 L 18.675781 7.421875 L 18.648438 7.421875 L 18.636719 7.425781 L 18.605469 7.425781 L 18.59375 7.429688 L 18.5625 7.429688 L 18.5625 7.320312 L 18.605469 7.320312 L 18.617188 7.316406 L 18.644531 7.316406 L 18.652344 7.3125 L 18.679688 7.3125 L 18.6875 7.308594 L 18.695312 7.308594 L 18.703125 7.304688 L 18.722656 7.304688 L 18.730469 7.300781 L 18.738281 7.300781 L 18.753906 7.292969 L 18.761719 7.292969 L 18.773438 7.289062 L 18.777344 7.289062 L 18.789062 7.285156 L 18.796875 7.28125 L 18.804688 7.28125 L 18.8125 7.277344 L 18.820312 7.277344 L 18.828125 7.273438 L 18.832031 7.269531 Z M 18.835938 7.269531 L 18.820312 7.277344 Z M 19.054688 7.125 L 19.132812 7.203125 L 19.125 7.210938 L 19.117188 7.214844 L 19.109375 7.222656 L 19.105469 7.230469 L 19.097656 7.234375 L 19.089844 7.242188 L 19.082031 7.246094 L 19.074219 7.253906 L 19.066406 7.257812 L 19.058594 7.265625 L 19.050781 7.269531 L 19.042969 7.277344 L 19.035156 7.28125 L 19.027344 7.289062 L 19.011719 7.296875 L 19 7.304688 L 18.996094 7.308594 L 18.984375 7.3125 L 18.976562 7.320312 L 18.9375 7.339844 L 18.925781 7.34375 L 18.917969 7.351562 L 18.902344 7.359375 L 18.890625 7.363281 L 18.875 7.371094 L 18.832031 7.269531 L 18.847656 7.261719 L 18.855469 7.261719 L 18.910156 7.234375 L 18.914062 7.230469 L 18.929688 7.222656 L 18.9375 7.214844 L 18.945312 7.210938 L 18.949219 7.207031 L 18.964844 7.199219 L 18.976562 7.1875 L 18.992188 7.179688 L 18.996094 7.171875 L 19.003906 7.167969 L 19.007812 7.164062 L 19.015625 7.160156 L 19.039062 7.136719 L 19.046875 7.132812 L 19.054688 7.125 L 19.050781 7.125 Z M 19.132812 7.203125 Z M 19.203125 6.902344 L 19.300781 6.945312 L 19.292969 6.960938 L 19.289062 6.972656 L 19.28125 6.988281 L 19.277344 7 L 19.265625 7.023438 L 19.257812 7.03125 L 19.253906 7.042969 L 19.242188 7.066406 L 19.234375 7.074219 L 19.230469 7.085938 L 19.226562 7.09375 L 19.21875 7.101562 L 19.214844 7.109375 L 19.207031 7.117188 L 19.203125 7.125 L 19.191406 7.136719 L 19.183594 7.148438 L 19.171875 7.160156 L 19.167969 7.167969 L 19.152344 7.183594 L 19.148438 7.191406 L 19.140625 7.195312 L 19.132812 7.203125 L 19.054688 7.128906 L 19.089844 7.09375 L 19.09375 7.085938 L 19.105469 7.074219 L 19.109375 7.066406 L 19.117188 7.0625 L 19.125 7.046875 L 19.128906 7.042969 L 19.132812 7.035156 L 19.140625 7.027344 L 19.148438 7.011719 L 19.152344 7.007812 L 19.164062 6.984375 L 19.171875 6.976562 L 19.1875 6.945312 L 19.1875 6.9375 L 19.203125 6.90625 Z M 19.199219 6.90625 L 19.203125 6.902344 Z M 19.253906 6.617188 L 19.363281 6.617188 L 19.363281 6.671875 L 19.359375 6.683594 L 19.359375 6.714844 L 19.355469 6.726562 L 19.355469 6.746094 L 19.351562 6.757812 L 19.351562 6.765625 L 19.347656 6.777344 L 19.347656 6.789062 L 19.34375 6.796875 L 19.34375 6.808594 L 19.339844 6.820312 L 19.339844 6.828125 L 19.335938 6.839844 L 19.335938 6.847656 L 19.328125 6.871094 L 19.324219 6.878906 L 19.320312 6.890625 L 19.316406 6.898438 L 19.316406 6.90625 L 19.308594 6.929688 L 19.304688 6.9375 L 19.300781 6.949219 L 19.199219 6.90625 L 19.203125 6.898438 L 19.207031 6.886719 L 19.210938 6.882812 L 19.210938 6.875 L 19.214844 6.863281 L 19.21875 6.855469 L 19.21875 6.847656 L 19.226562 6.832031 L 19.226562 6.824219 L 19.230469 6.8125 L 19.230469 6.804688 L 19.234375 6.796875 L 19.234375 6.789062 L 19.238281 6.777344 L 19.238281 6.769531 L 19.242188 6.761719 L 19.242188 6.753906 L 19.246094 6.742188 L 19.246094 6.726562 L 19.25 6.714844 L 19.25 6.6875 L 19.253906 6.679688 Z M 19.199219 6.328125 L 19.300781 6.289062 L 19.304688 6.296875 L 19.308594 6.308594 L 19.3125 6.316406 L 19.316406 6.328125 L 19.320312 6.335938 L 19.324219 6.347656 L 19.328125 6.355469 L 19.328125 6.367188 L 19.332031 6.378906 L 19.335938 6.386719 L 19.339844 6.398438 L 19.339844 6.40625 L 19.34375 6.414062 L 19.34375 6.425781 L 19.347656 6.4375 L 19.347656 6.445312 L 19.351562 6.457031 L 19.351562 6.46875 L 19.355469 6.476562 L 19.355469 6.5 L 19.359375 6.511719 L 19.359375 6.53125 L 19.363281 6.542969 L 19.363281 6.617188 L 19.257812 6.617188 L 19.257812 6.589844 L 19.253906 6.578125 L 19.253906 6.539062 L 19.25 6.53125 L 19.25 6.511719 L 19.246094 6.503906 L 19.246094 6.484375 L 19.242188 6.476562 L 19.242188 6.46875 L 19.238281 6.457031 L 19.238281 6.449219 L 19.234375 6.441406 L 19.234375 6.429688 L 19.230469 6.421875 L 19.230469 6.414062 L 19.226562 6.40625 L 19.226562 6.398438 L 19.222656 6.386719 L 19.21875 6.378906 L 19.21875 6.371094 L 19.203125 6.339844 L 19.203125 6.332031 Z M 19.203125 6.332031 L 19.199219 6.328125 L 19.199219 6.324219 L 19.199219 6.332031 Z M 19.054688 6.109375 L 19.132812 6.03125 L 19.148438 6.046875 L 19.152344 6.054688 L 19.160156 6.0625 L 19.164062 6.070312 L 19.171875 6.074219 L 19.179688 6.082031 L 19.183594 6.089844 L 19.191406 6.097656 L 19.195312 6.105469 L 19.203125 6.113281 L 19.207031 6.121094 L 19.214844 6.128906 L 19.222656 6.144531 L 19.230469 6.152344 L 19.238281 6.167969 L 19.246094 6.175781 L 19.25 6.183594 L 19.253906 6.195312 L 19.257812 6.203125 L 19.265625 6.210938 L 19.273438 6.226562 L 19.277344 6.238281 L 19.289062 6.261719 L 19.296875 6.273438 L 19.304688 6.289062 L 19.203125 6.328125 L 19.167969 6.257812 L 19.164062 6.253906 L 19.144531 6.214844 L 19.136719 6.210938 L 19.125 6.1875 L 19.113281 6.175781 L 19.105469 6.160156 L 19.097656 6.15625 L 19.09375 6.148438 L 19.082031 6.136719 L 19.078125 6.128906 L 19.070312 6.125 L 19.066406 6.117188 L 19.058594 6.113281 L 19.054688 6.105469 Z M 19.054688 6.109375 Z M 18.839844 5.964844 L 18.878906 5.863281 L 18.886719 5.867188 L 18.898438 5.871094 L 18.914062 5.878906 L 18.925781 5.882812 L 18.933594 5.886719 L 18.941406 5.894531 L 18.957031 5.902344 L 18.96875 5.90625 L 18.972656 5.910156 L 18.984375 5.914062 L 18.992188 5.921875 L 19.007812 5.929688 L 19.015625 5.9375 L 19.03125 5.945312 L 19.039062 5.953125 L 19.046875 5.957031 L 19.054688 5.964844 L 19.0625 5.96875 L 19.070312 5.976562 L 19.078125 5.980469 L 19.105469 6.007812 L 19.113281 6.011719 L 19.128906 6.027344 L 19.132812 6.035156 L 19.054688 6.109375 L 19.050781 6.101562 L 19.042969 6.097656 L 19.039062 6.089844 L 19.035156 6.085938 L 19.027344 6.082031 L 19.015625 6.070312 L 19.007812 6.066406 L 19.003906 6.058594 L 18.996094 6.054688 L 18.984375 6.042969 L 18.96875 6.035156 L 18.964844 6.03125 L 18.941406 6.019531 L 18.9375 6.011719 L 18.90625 5.996094 L 18.902344 5.992188 L 18.871094 5.976562 L 18.863281 5.976562 L 18.839844 5.964844 L 18.835938 5.964844 Z M 18.839844 5.964844 L 18.84375 5.964844 Z M 18.5625 5.914062 L 18.5625 5.808594 L 18.636719 5.808594 L 18.648438 5.8125 L 18.679688 5.8125 L 18.691406 5.816406 L 18.699219 5.816406 L 18.710938 5.820312 L 18.730469 5.820312 L 18.738281 5.824219 L 18.75 5.824219 L 18.757812 5.828125 L 18.769531 5.832031 L 18.777344 5.832031 L 18.789062 5.835938 L 18.800781 5.835938 L 18.816406 5.84375 L 18.828125 5.84375 L 18.84375 5.851562 L 18.855469 5.855469 L 18.871094 5.863281 L 18.882812 5.867188 L 18.839844 5.964844 L 18.832031 5.964844 L 18.808594 5.953125 L 18.800781 5.953125 L 18.785156 5.945312 L 18.777344 5.945312 L 18.765625 5.941406 L 18.761719 5.941406 L 18.75 5.9375 L 18.742188 5.9375 L 18.734375 5.933594 L 18.726562 5.933594 L 18.71875 5.929688 L 18.699219 5.929688 L 18.691406 5.925781 L 18.683594 5.925781 L 18.671875 5.921875 L 18.644531 5.921875 L 18.636719 5.917969 L 18.601562 5.917969 L 18.589844 5.914062 Z M 18.289062 5.964844 L 18.246094 5.863281 L 18.257812 5.859375 L 18.265625 5.855469 L 18.273438 5.855469 L 18.285156 5.851562 L 18.300781 5.84375 L 18.3125 5.839844 L 18.320312 5.839844 L 18.328125 5.835938 L 18.339844 5.835938 L 18.351562 5.832031 L 18.359375 5.828125 L 18.371094 5.828125 L 18.378906 5.824219 L 18.390625 5.824219 L 18.398438 5.820312 L 18.410156 5.820312 L 18.417969 5.816406 L 18.4375 5.816406 L 18.449219 5.8125 L 18.46875 5.8125 L 18.480469 5.808594 L 18.523438 5.808594 L 18.53125 5.804688 L 18.566406 5.804688 L 18.566406 5.914062 L 18.519531 5.914062 L 18.511719 5.917969 L 18.472656 5.917969 L 18.464844 5.921875 L 18.449219 5.921875 L 18.4375 5.925781 L 18.429688 5.925781 L 18.421875 5.929688 L 18.40625 5.929688 L 18.394531 5.933594 L 18.386719 5.933594 L 18.378906 5.9375 L 18.371094 5.9375 L 18.363281 5.941406 L 18.355469 5.941406 L 18.339844 5.949219 L 18.328125 5.949219 L 18.3125 5.957031 L 18.308594 5.957031 L 18.296875 5.960938 Z M 18.289062 5.964844 L 18.285156 5.964844 Z M 18.070312 6.109375 L 17.996094 6.03125 L 18.023438 6.003906 L 18.03125 6 L 18.039062 5.992188 L 18.046875 5.988281 L 18.050781 5.980469 L 18.058594 5.976562 L 18.066406 5.96875 L 18.074219 5.964844 L 18.082031 5.957031 L 18.089844 5.953125 L 18.097656 5.945312 L 18.113281 5.9375 L 18.121094 5.929688 L 18.136719 5.921875 L 18.144531 5.914062 L 18.160156 5.90625 L 18.171875 5.902344 L 18.179688 5.894531 L 18.203125 5.882812 L 18.214844 5.878906 L 18.230469 5.871094 L 18.242188 5.867188 L 18.25 5.863281 L 18.289062 5.964844 L 18.273438 5.972656 L 18.265625 5.972656 L 18.226562 5.992188 L 18.222656 5.996094 L 18.183594 6.015625 L 18.179688 6.019531 L 18.164062 6.027344 L 18.160156 6.035156 L 18.144531 6.042969 L 18.132812 6.054688 L 18.125 6.058594 L 18.101562 6.082031 L 18.09375 6.085938 Z M 18.070312 6.109375 Z M 17.921875 6.332031 L 17.820312 6.292969 L 17.820312 6.289062 L 17.828125 6.28125 L 17.832031 6.273438 L 17.835938 6.261719 L 17.847656 6.238281 L 17.851562 6.226562 L 17.855469 6.21875 L 17.863281 6.210938 L 17.871094 6.195312 L 17.875 6.183594 L 17.882812 6.175781 L 17.886719 6.167969 L 17.894531 6.160156 L 17.902344 6.144531 L 17.910156 6.136719 L 17.917969 6.121094 L 17.925781 6.113281 L 17.929688 6.105469 L 17.9375 6.097656 L 17.941406 6.089844 L 17.957031 6.074219 L 17.960938 6.066406 L 17.976562 6.050781 L 17.980469 6.042969 L 17.988281 6.039062 L 17.996094 6.03125 L 18.074219 6.109375 L 18.066406 6.113281 L 18.0625 6.121094 L 18.054688 6.125 L 18.050781 6.132812 L 18.042969 6.136719 L 18.039062 6.144531 L 18.027344 6.15625 L 18.023438 6.164062 L 18.015625 6.167969 L 18.003906 6.191406 L 17.996094 6.195312 L 17.984375 6.21875 L 17.980469 6.222656 L 17.976562 6.230469 L 17.96875 6.238281 Z M 17.820312 6.292969 L 17.820312 6.289062 Z M 17.871094 6.617188 L 17.761719 6.617188 L 17.761719 6.585938 L 17.765625 6.574219 L 17.765625 6.53125 L 17.769531 6.523438 L 17.769531 6.5 L 17.773438 6.488281 L 17.773438 6.46875 L 17.777344 6.457031 L 17.777344 6.449219 L 17.78125 6.4375 L 17.78125 6.429688 L 17.785156 6.417969 L 17.785156 6.40625 L 17.789062 6.398438 L 17.792969 6.386719 L 17.792969 6.378906 L 17.796875 6.367188 L 17.800781 6.359375 L 17.800781 6.347656 L 17.804688 6.339844 L 17.808594 6.328125 L 17.8125 6.320312 L 17.816406 6.308594 L 17.816406 6.300781 L 17.820312 6.292969 L 17.921875 6.332031 L 17.921875 6.339844 L 17.910156 6.363281 L 17.910156 6.371094 L 17.902344 6.386719 L 17.902344 6.398438 L 17.898438 6.40625 L 17.898438 6.414062 L 17.894531 6.421875 L 17.894531 6.429688 L 17.890625 6.441406 L 17.890625 6.449219 L 17.886719 6.457031 L 17.886719 6.464844 L 17.882812 6.476562 L 17.882812 6.496094 L 17.878906 6.503906 L 17.878906 6.53125 L 17.875 6.539062 L 17.875 6.578125 L 17.871094 6.589844 Z M 17.921875 6.902344 L 17.820312 6.945312 L 17.816406 6.933594 L 17.816406 6.925781 L 17.8125 6.917969 L 17.808594 6.90625 L 17.804688 6.898438 L 17.800781 6.886719 L 17.800781 6.875 L 17.796875 6.867188 L 17.792969 6.855469 L 17.792969 6.847656 L 17.789062 6.835938 L 17.785156 6.828125 L 17.785156 6.816406 L 17.78125 6.808594 L 17.78125 6.796875 L 17.777344 6.789062 L 17.777344 6.777344 L 17.773438 6.765625 L 17.773438 6.746094 L 17.769531 6.734375 L 17.769531 6.714844 L 17.765625 6.703125 L 17.765625 6.660156 L 17.761719 6.652344 L 17.761719 6.617188 L 17.871094 6.617188 L 17.871094 6.65625 L 17.875 6.667969 L 17.875 6.703125 L 17.878906 6.714844 L 17.878906 6.730469 L 17.882812 6.742188 L 17.882812 6.757812 L 17.886719 6.769531 L 17.886719 6.789062 L 17.890625 6.796875 L 17.890625 6.804688 L 17.894531 6.8125 L 17.894531 6.820312 L 17.898438 6.828125 L 17.902344 6.839844 L 17.902344 6.847656 L 17.910156 6.863281 L 17.910156 6.871094 L 17.914062 6.878906 L 17.914062 6.886719 L 17.917969 6.898438 L 17.921875 6.90625 Z M 17.820312 6.945312 Z M 18.066406 7.128906 L 17.992188 7.203125 L 17.984375 7.199219 L 17.96875 7.183594 L 17.964844 7.175781 L 17.945312 7.15625 L 17.941406 7.148438 L 17.933594 7.140625 L 17.929688 7.132812 L 17.921875 7.125 L 17.917969 7.117188 L 17.910156 7.109375 L 17.902344 7.09375 L 17.894531 7.085938 L 17.890625 7.074219 L 17.882812 7.058594 L 17.875 7.050781 L 17.867188 7.035156 L 17.863281 7.023438 L 17.855469 7.015625 L 17.84375 6.992188 L 17.839844 6.980469 L 17.832031 6.964844 L 17.828125 6.953125 L 17.824219 6.945312 L 17.921875 6.902344 L 17.929688 6.917969 L 17.933594 6.929688 L 17.9375 6.933594 L 17.957031 6.972656 L 17.964844 6.980469 L 17.988281 7.027344 L 18 7.039062 L 18.007812 7.054688 L 18.019531 7.066406 L 18.023438 7.074219 L 18.035156 7.085938 L 18.039062 7.09375 L 18.054688 7.109375 L 18.058594 7.117188 L 18.070312 7.128906 Z M 17.992188 7.203125 Z M 18.289062 7.273438 L 18.246094 7.371094 L 18.238281 7.371094 L 18.230469 7.367188 L 18.21875 7.359375 L 18.203125 7.351562 L 18.191406 7.347656 L 18.160156 7.332031 L 18.148438 7.328125 L 18.140625 7.320312 L 18.117188 7.308594 L 18.109375 7.300781 L 18.101562 7.296875 L 18.09375 7.289062 L 18.078125 7.28125 L 18.066406 7.273438 L 18.0625 7.269531 L 18.050781 7.261719 L 18.039062 7.25 L 18.03125 7.246094 L 18.015625 7.230469 L 18.007812 7.226562 L 18 7.21875 L 17.996094 7.210938 L 17.988281 7.207031 L 18.066406 7.128906 L 18.070312 7.136719 L 18.078125 7.140625 L 18.082031 7.148438 L 18.089844 7.152344 L 18.09375 7.160156 L 18.101562 7.164062 L 18.113281 7.175781 L 18.121094 7.179688 L 18.125 7.183594 L 18.132812 7.1875 L 18.136719 7.195312 L 18.160156 7.207031 L 18.164062 7.214844 L 18.203125 7.234375 L 18.207031 7.238281 L 18.285156 7.277344 Z M 18.246094 7.371094 L 18.253906 7.375 Z M 18.5625 7.324219 L 18.5625 7.429688 L 18.5 7.429688 L 18.488281 7.425781 L 18.457031 7.425781 L 18.449219 7.421875 L 18.429688 7.421875 L 18.417969 7.417969 L 18.40625 7.417969 L 18.398438 7.414062 L 18.378906 7.414062 L 18.367188 7.410156 L 18.359375 7.40625 L 18.347656 7.40625 L 18.339844 7.402344 L 18.328125 7.398438 L 18.320312 7.398438 L 18.308594 7.394531 L 18.300781 7.390625 L 18.292969 7.390625 L 18.28125 7.386719 L 18.265625 7.378906 L 18.253906 7.375 L 18.246094 7.375 L 18.285156 7.273438 L 18.300781 7.28125 L 18.308594 7.28125 L 18.324219 7.289062 L 18.332031 7.289062 L 18.339844 7.292969 L 18.347656 7.292969 L 18.355469 7.296875 L 18.367188 7.300781 L 18.375 7.300781 L 18.382812 7.304688 L 18.390625 7.304688 L 18.398438 7.308594 L 18.40625 7.308594 L 18.417969 7.3125 L 18.433594 7.3125 L 18.441406 7.316406 L 18.449219 7.316406 L 18.460938 7.320312 L 18.496094 7.320312 L 18.503906 7.324219 Z M 18.023438 7.800781 L 18.0625 7.699219 L 18.078125 7.707031 L 18.09375 7.710938 L 18.105469 7.714844 L 18.121094 7.722656 L 18.183594 7.738281 L 18.195312 7.742188 L 18.289062 7.765625 L 18.304688 7.765625 L 18.335938 7.773438 L 18.351562 7.773438 L 18.367188 7.777344 L 18.402344 7.777344 L 18.417969 7.78125 L 18.433594 7.78125 L 18.449219 7.785156 L 18.5 7.785156 L 18.519531 7.789062 L 18.570312 7.789062 L 18.570312 7.898438 L 18.550781 7.898438 L 18.53125 7.894531 L 18.480469 7.894531 L 18.460938 7.890625 L 18.425781 7.890625 L 18.410156 7.886719 L 18.375 7.886719 L 18.355469 7.882812 L 18.339844 7.882812 L 18.320312 7.878906 L 18.304688 7.875 L 18.289062 7.875 L 18.273438 7.871094 L 18.253906 7.867188 L 18.191406 7.851562 L 18.171875 7.847656 L 18.140625 7.839844 L 18.125 7.832031 L 18.078125 7.820312 L 18.0625 7.8125 L 18.046875 7.808594 L 18.03125 7.800781 Z M 18.023438 7.800781 L 17.996094 7.789062 Z M 17.589844 7.53125 L 17.667969 7.453125 L 17.664062 7.453125 L 17.675781 7.464844 L 17.699219 7.480469 L 17.730469 7.511719 L 17.777344 7.542969 L 17.789062 7.554688 L 17.8125 7.570312 L 17.828125 7.578125 L 17.886719 7.617188 L 17.902344 7.625 L 17.914062 7.632812 L 17.929688 7.636719 L 17.941406 7.644531 L 17.957031 7.652344 L 17.96875 7.65625 L 17.984375 7.664062 L 17.996094 7.667969 L 18.011719 7.675781 L 18.023438 7.679688 L 18.039062 7.6875 L 18.054688 7.691406 L 18.066406 7.699219 L 18.027344 7.800781 L 18.011719 7.792969 L 17.996094 7.789062 L 17.984375 7.78125 L 17.96875 7.773438 L 17.953125 7.769531 L 17.90625 7.746094 L 17.894531 7.738281 L 17.878906 7.730469 L 17.863281 7.726562 L 17.847656 7.714844 L 17.835938 7.710938 L 17.820312 7.699219 L 17.808594 7.691406 L 17.792969 7.683594 L 17.78125 7.675781 L 17.765625 7.667969 L 17.753906 7.660156 L 17.738281 7.652344 L 17.726562 7.640625 L 17.714844 7.632812 L 17.703125 7.621094 L 17.691406 7.613281 L 17.675781 7.601562 L 17.664062 7.59375 L 17.652344 7.582031 L 17.640625 7.574219 L 17.605469 7.539062 L 17.59375 7.53125 L 17.59375 7.527344 Z M 17.589844 7.535156 L 17.59375 7.535156 L 17.589844 7.535156 L 17.59375 7.535156 Z M 17.304688 7.128906 L 17.40625 7.085938 L 17.414062 7.097656 L 17.417969 7.113281 L 17.421875 7.125 L 17.429688 7.136719 L 17.4375 7.152344 L 17.441406 7.164062 L 17.464844 7.199219 L 17.472656 7.214844 L 17.476562 7.226562 L 17.515625 7.285156 L 17.527344 7.296875 L 17.542969 7.320312 L 17.550781 7.328125 L 17.558594 7.339844 L 17.570312 7.351562 L 17.585938 7.375 L 17.597656 7.382812 L 17.613281 7.40625 L 17.625 7.417969 L 17.636719 7.425781 L 17.644531 7.4375 L 17.65625 7.445312 L 17.664062 7.457031 L 17.589844 7.535156 L 17.511719 7.457031 L 17.503906 7.445312 L 17.492188 7.433594 L 17.484375 7.421875 L 17.472656 7.410156 L 17.464844 7.398438 L 17.457031 7.382812 L 17.445312 7.371094 L 17.429688 7.347656 L 17.417969 7.335938 L 17.410156 7.320312 L 17.394531 7.296875 L 17.386719 7.28125 L 17.375 7.269531 L 17.367188 7.253906 L 17.359375 7.242188 L 17.351562 7.226562 L 17.347656 7.214844 L 17.332031 7.183594 L 17.324219 7.171875 L 17.316406 7.15625 L 17.3125 7.140625 Z M 17.203125 6.621094 L 17.3125 6.621094 L 17.3125 6.652344 L 17.316406 6.667969 L 17.316406 6.714844 L 17.320312 6.730469 L 17.320312 6.757812 L 17.324219 6.773438 L 17.324219 6.789062 L 17.332031 6.820312 L 17.332031 6.832031 L 17.339844 6.863281 L 17.339844 6.875 L 17.347656 6.90625 L 17.351562 6.917969 L 17.359375 6.949219 L 17.363281 6.960938 L 17.371094 6.992188 L 17.375 7.003906 L 17.378906 7.019531 L 17.386719 7.03125 L 17.390625 7.046875 L 17.394531 7.058594 L 17.402344 7.074219 L 17.40625 7.085938 L 17.308594 7.128906 L 17.292969 7.097656 L 17.289062 7.085938 L 17.28125 7.070312 L 17.273438 7.039062 L 17.265625 7.023438 L 17.226562 6.867188 L 17.226562 6.851562 L 17.21875 6.820312 L 17.21875 6.804688 L 17.214844 6.785156 L 17.214844 6.769531 L 17.210938 6.753906 L 17.210938 6.738281 L 17.207031 6.722656 L 17.207031 6.671875 L 17.203125 6.65625 Z M 17.304688 6.113281 L 17.40625 6.152344 L 17.402344 6.167969 L 17.394531 6.179688 L 17.390625 6.195312 L 17.386719 6.207031 L 17.378906 6.222656 L 17.375 6.234375 L 17.371094 6.25 L 17.367188 6.261719 L 17.359375 6.292969 L 17.351562 6.304688 L 17.351562 6.320312 L 17.347656 6.335938 L 17.34375 6.347656 L 17.335938 6.378906 L 17.335938 6.394531 L 17.332031 6.40625 L 17.328125 6.421875 L 17.328125 6.4375 L 17.324219 6.453125 L 17.324219 6.464844 L 17.320312 6.480469 L 17.320312 6.511719 L 17.316406 6.527344 L 17.316406 6.558594 L 17.3125 6.574219 L 17.3125 6.621094 L 17.203125 6.621094 L 17.203125 6.585938 L 17.207031 6.570312 L 17.207031 6.519531 L 17.210938 6.503906 L 17.210938 6.484375 L 17.214844 6.46875 L 17.214844 6.453125 L 17.21875 6.4375 L 17.21875 6.421875 L 17.222656 6.402344 L 17.226562 6.386719 L 17.226562 6.371094 L 17.265625 6.214844 L 17.273438 6.203125 L 17.28125 6.171875 L 17.289062 6.15625 L 17.292969 6.144531 L 17.300781 6.128906 Z M 17.40625 6.152344 L 17.386719 6.199219 Z M 17.59375 5.707031 L 17.667969 5.785156 L 17.65625 5.792969 L 17.648438 5.804688 L 17.636719 5.8125 L 17.625 5.824219 L 17.617188 5.835938 L 17.605469 5.84375 L 17.597656 5.855469 L 17.585938 5.867188 L 17.578125 5.878906 L 17.558594 5.898438 L 17.527344 5.945312 L 17.507812 5.964844 L 17.476562 6.011719 L 17.472656 6.027344 L 17.441406 6.074219 L 17.4375 6.089844 L 17.421875 6.113281 L 17.417969 6.128906 L 17.414062 6.140625 L 17.40625 6.152344 L 17.304688 6.113281 L 17.320312 6.082031 L 17.324219 6.066406 L 17.332031 6.054688 L 17.347656 6.023438 L 17.355469 6.011719 L 17.363281 5.996094 L 17.378906 5.972656 L 17.386719 5.957031 L 17.394531 5.945312 L 17.402344 5.929688 L 17.414062 5.917969 L 17.429688 5.894531 L 17.4375 5.878906 L 17.449219 5.867188 L 17.457031 5.855469 L 17.46875 5.84375 L 17.476562 5.832031 L 17.488281 5.820312 L 17.496094 5.808594 L 17.519531 5.785156 L 17.527344 5.773438 L 17.585938 5.714844 L 17.597656 5.707031 Z M 18.023438 5.4375 L 18.0625 5.539062 L 18.066406 5.539062 L 18.050781 5.542969 L 18.035156 5.550781 L 18.023438 5.554688 L 18.007812 5.558594 L 17.996094 5.566406 L 17.980469 5.574219 L 17.96875 5.578125 L 17.953125 5.585938 L 17.941406 5.59375 L 17.925781 5.597656 L 17.902344 5.613281 L 17.886719 5.621094 L 17.839844 5.652344 L 17.824219 5.660156 L 17.765625 5.699219 L 17.753906 5.710938 L 17.730469 5.726562 L 17.710938 5.746094 L 17.699219 5.753906 L 17.6875 5.765625 L 17.675781 5.773438 L 17.664062 5.785156 L 17.589844 5.707031 L 17.625 5.671875 L 17.636719 5.664062 L 17.648438 5.652344 L 17.664062 5.644531 L 17.675781 5.632812 L 17.6875 5.625 L 17.699219 5.613281 L 17.722656 5.597656 L 17.738281 5.585938 L 17.761719 5.570312 L 17.777344 5.5625 L 17.789062 5.554688 L 17.804688 5.542969 L 17.816406 5.535156 L 17.832031 5.527344 L 17.84375 5.519531 L 17.875 5.503906 L 17.886719 5.496094 L 17.917969 5.480469 L 17.929688 5.476562 L 17.960938 5.460938 L 17.976562 5.457031 L 18.007812 5.441406 L 18.019531 5.4375 Z M 18.023438 5.4375 L 18.003906 5.445312 Z M 18.5625 5.339844 L 18.5625 5.449219 L 18.511719 5.449219 L 18.496094 5.453125 L 18.445312 5.453125 L 18.429688 5.457031 L 18.414062 5.457031 L 18.398438 5.460938 L 18.367188 5.460938 L 18.335938 5.46875 L 18.320312 5.46875 L 18.289062 5.476562 L 18.273438 5.476562 L 18.210938 5.492188 L 18.199219 5.496094 L 18.136719 5.511719 L 18.121094 5.519531 L 18.109375 5.523438 L 18.09375 5.527344 L 18.078125 5.535156 L 18.066406 5.539062 L 18.027344 5.4375 L 18.042969 5.433594 L 18.058594 5.425781 L 18.074219 5.421875 L 18.089844 5.414062 L 18.136719 5.402344 L 18.152344 5.394531 L 18.199219 5.382812 L 18.21875 5.378906 L 18.265625 5.367188 L 18.285156 5.367188 L 18.316406 5.359375 L 18.332031 5.359375 L 18.351562 5.355469 L 18.367188 5.351562 L 18.402344 5.351562 L 18.417969 5.347656 L 18.453125 5.347656 L 18.472656 5.34375 L 18.527344 5.34375 L 18.542969 5.339844 Z M 19.101562 5.4375 L 19.0625 5.539062 L 19.050781 5.53125 L 19.019531 5.523438 L 19.007812 5.515625 L 18.945312 5.5 L 18.933594 5.496094 L 18.839844 5.472656 L 18.824219 5.472656 L 18.792969 5.464844 L 18.777344 5.464844 L 18.761719 5.460938 L 18.746094 5.460938 L 18.730469 5.457031 L 18.699219 5.457031 L 18.679688 5.453125 L 18.648438 5.453125 L 18.632812 5.449219 L 18.566406 5.449219 L 18.566406 5.339844 L 18.601562 5.339844 L 18.617188 5.34375 L 18.671875 5.34375 L 18.691406 5.347656 L 18.726562 5.347656 L 18.742188 5.351562 L 18.761719 5.351562 L 18.777344 5.355469 L 18.792969 5.355469 L 18.8125 5.359375 L 18.828125 5.363281 L 18.84375 5.363281 L 18.863281 5.367188 L 18.910156 5.378906 L 18.929688 5.382812 L 19.007812 5.402344 L 19.023438 5.410156 L 19.054688 5.417969 L 19.070312 5.425781 L 19.101562 5.433594 Z M 19.53125 5.707031 L 19.457031 5.785156 L 19.425781 5.753906 L 19.414062 5.746094 L 19.402344 5.734375 L 19.378906 5.71875 L 19.367188 5.707031 L 19.34375 5.691406 L 19.335938 5.683594 L 19.300781 5.660156 L 19.285156 5.648438 L 19.261719 5.632812 L 19.25 5.628906 L 19.234375 5.621094 L 19.1875 5.589844 L 19.171875 5.585938 L 19.160156 5.578125 L 19.144531 5.570312 L 19.132812 5.566406 L 19.117188 5.558594 L 19.105469 5.554688 L 19.089844 5.546875 L 19.078125 5.542969 L 19.0625 5.535156 L 19.101562 5.433594 L 19.132812 5.449219 L 19.148438 5.453125 L 19.164062 5.460938 L 19.175781 5.46875 L 19.191406 5.472656 L 19.207031 5.480469 L 19.21875 5.488281 L 19.25 5.503906 L 19.261719 5.511719 L 19.277344 5.519531 L 19.289062 5.527344 L 19.304688 5.535156 L 19.316406 5.542969 L 19.332031 5.550781 L 19.34375 5.558594 L 19.359375 5.570312 L 19.371094 5.578125 L 19.386719 5.585938 L 19.398438 5.597656 L 19.421875 5.613281 L 19.433594 5.625 L 19.449219 5.632812 L 19.460938 5.644531 L 19.472656 5.652344 L 19.496094 5.675781 L 19.507812 5.683594 Z M 19.457031 5.785156 Z M 19.820312 6.109375 L 19.71875 6.152344 L 19.714844 6.140625 L 19.707031 6.128906 L 19.699219 6.113281 L 19.695312 6.101562 L 19.6875 6.089844 L 19.679688 6.074219 L 19.675781 6.0625 L 19.574219 5.910156 L 19.5625 5.898438 L 19.554688 5.886719 L 19.535156 5.867188 L 19.527344 5.855469 L 19.515625 5.847656 L 19.507812 5.835938 L 19.476562 5.804688 L 19.46875 5.792969 L 19.457031 5.785156 L 19.53125 5.707031 L 19.542969 5.714844 L 19.566406 5.738281 L 19.574219 5.75 L 19.609375 5.785156 L 19.617188 5.796875 L 19.640625 5.820312 L 19.648438 5.832031 L 19.660156 5.84375 L 19.667969 5.855469 L 19.675781 5.871094 L 19.6875 5.882812 L 19.703125 5.90625 L 19.714844 5.917969 L 19.722656 5.933594 L 19.730469 5.945312 L 19.738281 5.960938 L 19.746094 5.972656 L 19.753906 5.988281 L 19.769531 6.011719 L 19.777344 6.027344 L 19.785156 6.039062 L 19.792969 6.054688 L 19.796875 6.070312 L 19.804688 6.082031 L 19.820312 6.113281 Z M 19.820312 6.109375 Z M 19.921875 6.621094 L 19.816406 6.621094 L 19.816406 6.605469 L 19.8125 6.589844 L 19.8125 6.539062 L 19.808594 6.523438 L 19.808594 6.496094 L 19.804688 6.480469 L 19.804688 6.449219 L 19.796875 6.417969 L 19.796875 6.402344 L 19.792969 6.390625 L 19.789062 6.375 L 19.789062 6.359375 L 19.785156 6.347656 L 19.777344 6.316406 L 19.773438 6.304688 L 19.765625 6.273438 L 19.761719 6.261719 L 19.753906 6.246094 L 19.75 6.234375 L 19.746094 6.21875 L 19.742188 6.207031 L 19.734375 6.191406 L 19.730469 6.179688 L 19.722656 6.167969 L 19.71875 6.152344 L 19.816406 6.109375 L 19.824219 6.125 L 19.832031 6.136719 L 19.835938 6.152344 L 19.84375 6.167969 L 19.851562 6.199219 L 19.859375 6.210938 L 19.867188 6.242188 L 19.875 6.257812 L 19.898438 6.351562 L 19.898438 6.371094 L 19.90625 6.402344 L 19.90625 6.417969 L 19.914062 6.449219 L 19.914062 6.484375 L 19.917969 6.5 L 19.917969 6.53125 L 19.921875 6.546875 Z M 19.820312 7.128906 L 19.71875 7.085938 L 19.722656 7.074219 L 19.730469 7.058594 L 19.734375 7.046875 L 19.738281 7.03125 L 19.746094 7.019531 L 19.75 7.003906 L 19.753906 6.992188 L 19.757812 6.976562 L 19.761719 6.964844 L 19.769531 6.933594 L 19.777344 6.917969 L 19.78125 6.90625 L 19.78125 6.890625 L 19.785156 6.875 L 19.789062 6.863281 L 19.792969 6.847656 L 19.792969 6.832031 L 19.796875 6.820312 L 19.800781 6.804688 L 19.800781 6.789062 L 19.804688 6.773438 L 19.804688 6.757812 L 19.808594 6.742188 L 19.808594 6.699219 L 19.8125 6.683594 L 19.8125 6.617188 L 19.921875 6.617188 L 19.921875 6.667969 L 19.917969 6.6875 L 19.917969 6.734375 L 19.914062 6.753906 L 19.914062 6.769531 L 19.910156 6.785156 L 19.910156 6.800781 L 19.90625 6.820312 L 19.902344 6.835938 L 19.902344 6.851562 L 19.890625 6.898438 L 19.890625 6.914062 L 19.886719 6.929688 L 19.878906 6.945312 L 19.859375 7.023438 L 19.851562 7.039062 L 19.847656 7.050781 L 19.84375 7.066406 L 19.835938 7.082031 L 19.832031 7.097656 L 19.824219 7.109375 L 19.816406 7.125 Z M 19.53125 7.535156 L 19.457031 7.457031 L 19.46875 7.449219 L 19.476562 7.4375 L 19.488281 7.429688 L 19.496094 7.417969 L 19.527344 7.386719 L 19.535156 7.375 L 19.546875 7.367188 L 19.578125 7.320312 L 19.589844 7.308594 L 19.597656 7.296875 L 19.605469 7.289062 L 19.636719 7.242188 L 19.644531 7.226562 L 19.667969 7.191406 L 19.671875 7.179688 L 19.679688 7.167969 L 19.6875 7.152344 L 19.695312 7.140625 L 19.699219 7.128906 L 19.707031 7.113281 L 19.710938 7.101562 L 19.71875 7.085938 L 19.820312 7.132812 L 19.8125 7.144531 L 19.804688 7.160156 L 19.796875 7.171875 L 19.792969 7.1875 L 19.785156 7.203125 L 19.777344 7.214844 L 19.761719 7.246094 L 19.753906 7.257812 L 19.746094 7.273438 L 19.738281 7.285156 L 19.730469 7.300781 L 19.722656 7.3125 L 19.710938 7.324219 L 19.703125 7.339844 L 19.695312 7.351562 L 19.683594 7.363281 L 19.667969 7.386719 L 19.65625 7.402344 L 19.648438 7.414062 L 19.636719 7.425781 L 19.628906 7.4375 L 19.605469 7.460938 L 19.597656 7.472656 L 19.5625 7.507812 L 19.550781 7.515625 L 19.542969 7.527344 L 19.53125 7.539062 Z M 19.457031 7.457031 L 19.445312 7.46875 Z M 19.101562 7.804688 L 19.0625 7.703125 L 19.078125 7.695312 L 19.089844 7.691406 L 19.105469 7.683594 L 19.121094 7.679688 L 19.132812 7.671875 L 19.148438 7.667969 L 19.160156 7.660156 L 19.175781 7.652344 L 19.1875 7.648438 L 19.199219 7.640625 L 19.214844 7.632812 L 19.261719 7.601562 L 19.277344 7.59375 L 19.300781 7.578125 L 19.3125 7.574219 L 19.324219 7.5625 L 19.382812 7.523438 L 19.402344 7.503906 L 19.414062 7.496094 L 19.425781 7.484375 L 19.4375 7.476562 L 19.457031 7.457031 L 19.53125 7.535156 L 19.507812 7.558594 L 19.496094 7.566406 L 19.472656 7.589844 L 19.460938 7.597656 L 19.449219 7.609375 L 19.425781 7.625 L 19.410156 7.636719 L 19.386719 7.652344 L 19.375 7.664062 L 19.359375 7.671875 L 19.335938 7.6875 L 19.304688 7.703125 L 19.292969 7.710938 L 19.261719 7.726562 L 19.25 7.734375 L 19.21875 7.75 L 19.207031 7.757812 L 19.191406 7.765625 L 19.175781 7.769531 L 19.164062 7.777344 L 19.148438 7.785156 L 19.132812 7.789062 L 19.117188 7.796875 L 19.101562 7.800781 Z M 19.101562 7.804688 L 19.039062 7.828125 Z M 18.566406 7.898438 L 18.566406 7.789062 L 18.648438 7.789062 L 18.667969 7.785156 L 18.699219 7.785156 L 18.714844 7.78125 L 18.730469 7.78125 L 18.746094 7.777344 L 18.761719 7.777344 L 18.777344 7.773438 L 18.792969 7.773438 L 18.824219 7.765625 L 18.839844 7.765625 L 18.933594 7.742188 L 18.945312 7.738281 L 19.007812 7.722656 L 19.019531 7.714844 L 19.050781 7.707031 L 19.0625 7.699219 L 19.105469 7.800781 L 19.089844 7.808594 L 19.070312 7.8125 L 19.058594 7.820312 L 19.027344 7.828125 L 19.011719 7.835938 L 18.996094 7.839844 L 18.976562 7.84375 L 18.898438 7.863281 L 18.878906 7.867188 L 18.847656 7.875 L 18.832031 7.875 L 18.8125 7.878906 L 18.796875 7.882812 L 18.78125 7.882812 L 18.761719 7.886719 L 18.746094 7.886719 L 18.730469 7.890625 L 18.710938 7.890625 L 18.695312 7.894531 L 18.640625 7.894531 L 18.625 7.898438 Z M 18.566406 7.898438 "/>
<path style=" stroke:none;fill-rule:nonzero;fill:rgb(92.941176%,41.176471%,36.078431%);fill-opacity:1;" d="M 20.796875 6.5 L 21.941406 6.5 L 21.941406 6.9375 L 20.796875 6.9375 Z M 20.835938 7.800781 L 20.28125 7.800781 L 20.28125 5.433594 L 22.085938 5.433594 L 22.085938 5.871094 L 20.835938 5.871094 Z M 20.835938 7.800781 "/>
<path style=" stroke:none;fill-rule:nonzero;fill:rgb(92.941176%,41.176471%,36.078431%);fill-opacity:1;" d="M 21.9375 6.550781 L 20.792969 6.550781 L 20.792969 6.445312 L 21.9375 6.445312 L 21.992188 6.5 L 21.9375 6.554688 Z M 21.9375 6.445312 L 21.992188 6.445312 L 21.992188 6.5 Z M 21.882812 6.9375 L 21.882812 6.5 L 21.992188 6.5 L 21.992188 6.9375 L 21.9375 6.992188 Z M 21.992188 6.9375 L 21.992188 6.992188 L 21.9375 6.992188 Z M 20.792969 6.882812 L 21.9375 6.882812 L 21.9375 6.992188 L 20.792969 6.992188 L 20.738281 6.9375 Z M 20.792969 6.992188 L 20.738281 6.992188 L 20.738281 6.9375 Z M 20.847656 6.496094 L 20.847656 6.9375 L 20.738281 6.9375 L 20.738281 6.496094 L 20.792969 6.445312 Z M 20.738281 6.496094 L 20.738281 6.445312 L 20.792969 6.445312 Z M 20.28125 7.746094 L 20.832031 7.746094 L 20.832031 7.851562 L 20.28125 7.851562 L 20.226562 7.796875 Z M 20.28125 7.851562 L 20.226562 7.851562 L 20.226562 7.796875 Z M 20.335938 5.433594 L 20.335938 7.796875 L 20.226562 7.796875 L 20.226562 5.433594 L 20.28125 5.378906 Z M 20.226562 5.433594 L 20.226562 5.378906 L 20.28125 5.378906 Z M 22.085938 5.488281 L 20.28125 5.488281 L 20.28125 5.378906 L 22.085938 5.378906 L 22.140625 5.433594 Z M 22.085938 5.378906 L 22.140625 5.378906 L 22.140625 5.433594 Z M 22.03125 5.871094 L 22.03125 5.433594 L 22.136719 5.433594 L 22.136719 5.871094 L 22.082031 5.925781 L 22.027344 5.871094 Z M 22.136719 5.871094 L 22.136719 5.925781 L 22.082031 5.925781 Z M 20.832031 5.820312 L 22.082031 5.820312 L 22.082031 5.925781 L 20.832031 5.925781 L 20.777344 5.871094 L 20.832031 5.816406 Z M 20.777344 5.871094 L 20.777344 5.820312 L 20.832031 5.820312 Z M 20.777344 7.800781 L 20.777344 5.871094 L 20.886719 5.871094 L 20.886719 7.800781 L 20.832031 7.855469 Z M 20.886719 7.800781 L 20.886719 7.855469 L 20.832031 7.855469 Z M 20.886719 7.800781 "/>
<path style=" stroke:none;fill-rule:nonzero;fill:rgb(92.941176%,41.176471%,36.078431%);fill-opacity:1;" d="M 22.96875 6.5 L 24.113281 6.5 L 24.113281 6.9375 L 22.96875 6.9375 Z M 23.011719 7.800781 L 22.457031 7.800781 L 22.457031 5.433594 L 24.261719 5.433594 L 24.261719 5.871094 L 23.011719 5.871094 Z M 23.011719 7.800781 "/>
<path style=" stroke:none;fill-rule:nonzero;fill:rgb(92.941176%,41.176471%,36.078431%);fill-opacity:1;" d="M 24.113281 6.550781 L 22.96875 6.550781 L 22.96875 6.445312 L 24.113281 6.445312 L 24.167969 6.5 L 24.113281 6.554688 Z M 24.113281 6.445312 L 24.167969 6.445312 L 24.167969 6.5 Z M 24.058594 6.9375 L 24.058594 6.5 L 24.167969 6.5 L 24.167969 6.9375 L 24.113281 6.992188 Z M 24.167969 6.9375 L 24.167969 6.992188 L 24.113281 6.992188 Z M 22.96875 6.882812 L 24.113281 6.882812 L 24.113281 6.992188 L 22.96875 6.992188 L 22.914062 6.9375 Z M 22.96875 6.992188 L 22.914062 6.992188 L 22.914062 6.9375 Z M 23.023438 6.496094 L 23.023438 6.9375 L 22.914062 6.9375 L 22.914062 6.496094 L 22.96875 6.445312 Z M 22.914062 6.496094 L 22.914062 6.445312 L 22.96875 6.445312 Z M 22.457031 7.746094 L 23.011719 7.746094 L 23.011719 7.851562 L 22.457031 7.851562 L 22.402344 7.796875 Z M 22.457031 7.851562 L 22.402344 7.851562 L 22.402344 7.796875 Z M 22.511719 5.433594 L 22.511719 7.796875 L 22.40625 7.796875 L 22.40625 5.433594 L 22.460938 5.378906 L 22.515625 5.433594 Z M 22.40625 5.433594 L 22.40625 5.378906 L 22.460938 5.378906 Z M 24.261719 5.488281 L 22.460938 5.488281 L 22.460938 5.378906 L 24.261719 5.378906 L 24.316406 5.433594 Z M 24.261719 5.378906 L 24.316406 5.378906 L 24.316406 5.433594 Z M 24.207031 5.871094 L 24.207031 5.433594 L 24.316406 5.433594 L 24.316406 5.871094 L 24.261719 5.925781 Z M 24.316406 5.871094 L 24.316406 5.925781 L 24.261719 5.925781 Z M 23.011719 5.820312 L 24.261719 5.820312 L 24.261719 5.925781 L 23.011719 5.925781 L 22.957031 5.871094 L 23.011719 5.816406 Z M 22.957031 5.871094 L 22.957031 5.820312 L 23.011719 5.820312 Z M 22.957031 7.800781 L 22.957031 5.871094 L 23.066406 5.871094 L 23.066406 7.800781 L 23.011719 7.855469 Z M 23.066406 7.800781 L 23.066406 7.855469 L 23.011719 7.855469 Z M 23.066406 7.800781 "/>
</g>
</svg>
