<?xml version="1.0" encoding="UTF-8"?>
<svg xmlns="http://www.w3.org/2000/svg" xmlns:xlink="http://www.w3.org/1999/xlink" width="28px" height="28px" viewBox="0 0 28 28" version="1.1">
<g id="surface1">
<path style=" stroke:none;fill-rule:nonzero;fill:rgb(92.941176%,41.176471%,36.078431%);fill-opacity:1;" d="M 22.703125 19.933594 C 21.367188 21.824219 18.78125 22.914062 16.945312 21.617188 C 16.660156 21.414062 16.652344 21.195312 16.773438 20.417969 C 17.054688 18.59375 16.863281 17.308594 16.097656 16.144531 C 16.960938 15.359375 17.34375 14.183594 17.089844 13.03125 C 18.859375 12.695312 21.109375 13.066406 22.355469 13.949219 C 23.183594 14.535156 23.667969 15.480469 23.71875 16.621094 C 23.765625 17.738281 23.394531 18.949219 22.699219 19.9375 Z M 13.921875 15.851562 C 12.753906 15.851562 11.804688 14.902344 11.804688 13.734375 C 11.804688 12.570312 12.753906 11.621094 13.921875 11.621094 C 15.085938 11.621094 16.035156 12.570312 16.035156 13.734375 C 16.035156 14.914062 15.070312 15.851562 13.921875 15.851562 Z M 9.980469 21.214844 C 7.949219 22.152344 5.597656 20.621094 4.628906 18.511719 C 3.417969 15.875 4.425781 13.4375 6.058594 12.6875 C 6.378906 12.539062 6.570312 12.640625 7.171875 13.125 L 7.183594 13.136719 C 8.492188 14.191406 9.605469 14.679688 10.820312 14.707031 C 11.191406 15.890625 12.21875 16.78125 13.476562 16.953125 C 12.878906 18.816406 11.261719 20.628906 9.980469 21.214844 Z M 10.695312 10.96875 C 9.828125 9.75 9.246094 8.195312 9.246094 7.101562 C 9.246094 5.042969 11.351562 3.367188 13.9375 3.367188 C 16.839844 3.367188 18.632812 5.304688 18.632812 7.101562 C 18.632812 7.453125 18.457031 7.585938 17.753906 7.9375 C 16.242188 8.6875 15.328125 9.507812 14.792969 10.609375 C 14.515625 10.53125 14.21875 10.488281 13.917969 10.488281 C 12.871094 10.488281 11.9375 10.988281 11.34375 11.761719 C 11.121094 11.523438 10.90625 11.261719 10.695312 10.972656 Z M 23.007812 13.023438 C 21.425781 11.90625 18.769531 11.480469 16.636719 11.96875 C 16.417969 11.632812 16.136719 11.335938 15.808594 11.105469 C 16.234375 10.226562 16.972656 9.582031 18.25 8.949219 C 18.921875 8.617188 19.761719 8.203125 19.761719 7.101562 C 19.761719 4.097656 16.738281 2.238281 13.9375 2.238281 C 10.722656 2.238281 8.109375 4.417969 8.109375 7.101562 C 8.109375 8.433594 8.761719 10.210938 9.773438 11.625 C 10.097656 12.082031 10.441406 12.480469 10.800781 12.824219 C 10.730469 13.0625 10.683594 13.3125 10.675781 13.570312 C 9.777344 13.503906 8.933594 13.101562 7.894531 12.257812 L 7.882812 12.246094 C 7.304688 11.777344 6.585938 11.203125 5.585938 11.660156 C 2.851562 12.914062 2.425781 16.4375 3.597656 18.984375 C 4.835938 21.675781 7.832031 23.449219 10.453125 22.246094 C 12.300781 21.394531 14.117188 19.058594 14.667969 16.898438 C 14.832031 16.859375 14.988281 16.808594 15.140625 16.746094 C 15.675781 17.542969 15.925781 18.492188 15.652344 20.246094 C 15.539062 20.984375 15.394531 21.910156 16.292969 22.542969 C 18.679688 24.226562 21.949219 22.960938 23.628906 20.589844 C 24.464844 19.402344 24.910156 17.9375 24.851562 16.574219 C 24.789062 15.074219 24.132812 13.816406 23.015625 13.027344 Z M 23.007812 13.023438 "/>
<path style=" stroke:none;fill-rule:nonzero;fill:rgb(92.941176%,41.176471%,36.078431%);fill-opacity:1;" d="M 23.972656 5.113281 C 23.730469 5.304688 23.691406 5.660156 23.886719 5.90625 C 25.730469 8.199219 26.707031 10.96875 26.707031 13.917969 C 26.707031 20.96875 20.96875 26.707031 13.921875 26.707031 C 10.96875 26.707031 8.199219 25.730469 5.90625 23.886719 C 5.664062 23.691406 5.308594 23.726562 5.109375 23.972656 C 4.914062 24.214844 4.953125 24.574219 5.195312 24.769531 C 7.652344 26.75 10.753906 27.839844 13.917969 27.839844 C 21.589844 27.839844 27.835938 21.59375 27.835938 13.921875 C 27.835938 10.753906 26.742188 7.660156 24.765625 5.195312 C 24.570312 4.953125 24.214844 4.917969 23.96875 5.113281 Z M 23.972656 5.113281 "/>
<path style=" stroke:none;fill-rule:nonzero;fill:rgb(92.941176%,41.176471%,36.078431%);fill-opacity:1;" d="M 22.839844 3.230469 C 20.34375 1.148438 17.175781 0 13.921875 0 C 6.246094 0 0.00390625 6.246094 0.00390625 13.921875 C 0.00390625 17.175781 1.148438 20.339844 3.230469 22.839844 C 3.34375 22.972656 3.503906 23.042969 3.664062 23.042969 C 3.792969 23.042969 3.921875 23 4.027344 22.910156 C 4.269531 22.710938 4.300781 22.351562 4.101562 22.113281 C 2.1875 19.824219 1.132812 16.910156 1.132812 13.921875 C 1.132812 6.867188 6.871094 1.128906 13.921875 1.128906 C 16.914062 1.128906 19.824219 2.183594 22.113281 4.097656 C 22.355469 4.296875 22.710938 4.265625 22.910156 4.027344 C 23.109375 3.785156 23.082031 3.429688 22.839844 3.230469 Z M 22.839844 3.230469 "/>
</g>
</svg>
