<?xml version="1.0" encoding="UTF-8"?>
<svg xmlns="http://www.w3.org/2000/svg" xmlns:xlink="http://www.w3.org/1999/xlink" width="28px" height="28px" viewBox="0 0 28 28" version="1.1">
<g id="surface1">
<path style=" stroke:none;fill-rule:nonzero;fill:rgb(92.941176%,41.176471%,36.078431%);fill-opacity:1;" d="M 15.402344 9.566406 L 15.402344 5.503906 L 16.554688 5.503906 L 16.554688 9.566406 Z M 13.867188 8.070312 L 13.867188 6.992188 L 18.101562 6.992188 L 18.101562 8.070312 Z M 13.867188 8.070312 "/>
<path style=" stroke:none;fill-rule:nonzero;fill:rgb(92.941176%,41.176471%,36.078431%);fill-opacity:1;" d="M 18.355469 11.492188 L 21.292969 3.207031 L 22.53125 3.207031 L 19.59375 11.492188 Z M 18.355469 11.492188 "/>
<path style=" stroke:none;fill-rule:nonzero;fill:rgb(92.941176%,41.176471%,36.078431%);fill-opacity:1;" d="M 21.96875 8.683594 L 24.484375 8.683594 L 24.484375 7.585938 L 21.96875 7.585938 Z M 21.96875 8.683594 "/>
<path style=" stroke:none;fill-rule:nonzero;fill:rgb(92.941176%,41.176471%,36.078431%);fill-opacity:1;" d="M 12.109375 2.507812 C 10.699219 3.902344 9.8125 5.734375 9.609375 7.691406 C 9.585938 7.90625 9.746094 8.097656 9.964844 8.121094 C 10.179688 8.144531 10.375 7.984375 10.398438 7.773438 C 10.796875 4.003906 13.878906 1.0625 17.703125 0.800781 C 21.53125 0.539062 24.996094 3.027344 25.921875 6.703125 C 26.84375 10.378906 24.957031 14.179688 21.453125 15.710938 C 21.320312 15.769531 21.234375 15.886719 21.214844 16.023438 C 21.199219 16.167969 21.261719 16.304688 21.378906 16.386719 C 21.492188 16.46875 21.640625 16.488281 21.773438 16.425781 C 24.960938 15.035156 27 11.886719 26.945312 8.441406 C 26.890625 4.996094 24.757812 1.914062 21.519531 0.621094 C 18.285156 -0.671875 14.582031 0.0664062 12.113281 2.503906 Z M 12.109375 2.507812 "/>
<path style=" stroke:none;fill-rule:nonzero;fill:rgb(92.941176%,41.176471%,36.078431%);fill-opacity:1;" d="M 16.261719 22.824219 C 15.386719 24.046875 13.6875 24.753906 12.488281 23.917969 C 12.296875 23.785156 12.289062 23.640625 12.371094 23.136719 C 12.558594 21.953125 12.429688 21.121094 11.929688 20.363281 C 12.492188 19.855469 12.746094 19.089844 12.578125 18.351562 C 13.742188 18.128906 15.21875 18.371094 16.039062 18.945312 C 16.582031 19.324219 16.898438 19.9375 16.933594 20.679688 C 16.972656 21.40625 16.722656 22.1875 16.265625 22.828125 Z M 10.492188 20.179688 C 9.722656 20.179688 9.101562 19.5625 9.101562 18.808594 C 9.101562 18.054688 9.722656 17.433594 10.492188 17.433594 C 11.257812 17.433594 11.882812 18.050781 11.882812 18.808594 C 11.882812 19.570312 11.246094 20.179688 10.492188 20.179688 Z M 7.90625 23.652344 C 6.574219 24.261719 5.027344 23.269531 4.394531 21.898438 C 3.597656 20.191406 4.265625 18.613281 5.335938 18.125 C 5.542969 18.027344 5.667969 18.097656 6.066406 18.410156 L 6.078125 18.417969 C 6.9375 19.101562 7.671875 19.414062 8.464844 19.4375 C 8.707031 20.207031 9.382812 20.78125 10.210938 20.894531 C 9.820312 22.101562 8.753906 23.277344 7.914062 23.65625 Z M 8.378906 17.007812 C 7.8125 16.21875 7.425781 15.210938 7.425781 14.5 C 7.425781 13.164062 8.808594 12.082031 10.511719 12.082031 C 12.414062 12.082031 13.589844 13.335938 13.589844 14.5 C 13.589844 14.730469 13.476562 14.816406 13.015625 15.039062 C 12.023438 15.523438 11.425781 16.058594 11.070312 16.773438 C 10.882812 16.722656 10.695312 16.695312 10.492188 16.695312 C 9.804688 16.695312 9.191406 17.015625 8.804688 17.519531 C 8.660156 17.367188 8.511719 17.195312 8.378906 17.007812 Z M 16.464844 18.339844 C 15.429688 17.617188 13.679688 17.34375 12.28125 17.660156 C 12.132812 17.445312 11.953125 17.25 11.738281 17.101562 C 12.015625 16.53125 12.503906 16.113281 13.339844 15.703125 C 13.785156 15.488281 14.332031 15.21875 14.332031 14.503906 C 14.332031 12.554688 12.34375 11.351562 10.507812 11.351562 C 8.398438 11.351562 6.683594 12.765625 6.683594 14.503906 C 6.683594 15.367188 7.113281 16.519531 7.773438 17.4375 C 7.988281 17.734375 8.210938 17.992188 8.449219 18.210938 C 8.402344 18.367188 8.371094 18.53125 8.367188 18.699219 C 7.777344 18.65625 7.222656 18.394531 6.539062 17.847656 L 6.53125 17.84375 C 6.148438 17.535156 5.683594 17.160156 5.023438 17.460938 C 3.234375 18.273438 2.953125 20.5625 3.722656 22.210938 C 4.535156 23.953125 6.503906 25.101562 8.222656 24.324219 C 9.433594 23.773438 10.632812 22.257812 10.992188 20.855469 C 11.097656 20.832031 11.203125 20.796875 11.300781 20.757812 C 11.648438 21.273438 11.816406 21.886719 11.636719 23.023438 C 11.558594 23.503906 11.464844 24.101562 12.054688 24.519531 C 13.621094 25.609375 15.769531 24.785156 16.867188 23.246094 C 17.417969 22.476562 17.714844 21.527344 17.671875 20.640625 C 17.628906 19.667969 17.199219 18.855469 16.464844 18.339844 Z M 16.464844 18.339844 "/>
<path style=" stroke:none;fill-rule:nonzero;fill:rgb(92.941176%,41.176471%,36.078431%);fill-opacity:1;" d="M 17.097656 13.210938 C 16.9375 13.335938 16.910156 13.566406 17.039062 13.726562 C 18.253906 15.214844 18.890625 17.007812 18.890625 18.921875 C 18.890625 23.496094 15.125 27.214844 10.492188 27.214844 C 8.554688 27.214844 6.734375 26.582031 5.230469 25.386719 C 5.070312 25.257812 4.835938 25.285156 4.710938 25.441406 C 4.582031 25.601562 4.609375 25.832031 4.765625 25.957031 C 6.382812 27.246094 8.417969 27.949219 10.496094 27.949219 C 15.535156 27.949219 19.636719 23.898438 19.636719 18.921875 C 19.636719 16.867188 18.921875 14.859375 17.621094 13.261719 C 17.488281 13.105469 17.257812 13.082031 17.097656 13.207031 Z M 17.097656 13.210938 "/>
<path style=" stroke:none;fill-rule:nonzero;fill:rgb(92.941176%,41.176471%,36.078431%);fill-opacity:1;" d="M 16.351562 11.992188 C 14.710938 10.640625 12.632812 9.898438 10.496094 9.898438 C 5.453125 9.898438 1.355469 13.945312 1.355469 18.925781 C 1.355469 21.035156 2.105469 23.089844 3.476562 24.707031 C 3.550781 24.796875 3.65625 24.84375 3.761719 24.84375 C 3.847656 24.84375 3.929688 24.8125 3.996094 24.753906 C 4.15625 24.628906 4.175781 24.394531 4.042969 24.238281 C 2.789062 22.75 2.097656 20.867188 2.097656 18.925781 C 2.097656 14.351562 5.863281 10.632812 10.492188 10.632812 C 12.457031 10.632812 14.367188 11.320312 15.875 12.558594 C 16.03125 12.6875 16.265625 12.667969 16.394531 12.511719 C 16.527344 12.355469 16.507812 12.125 16.351562 11.996094 Z M 16.351562 11.992188 "/>
</g>
</svg>
