<?xml version="1.0" encoding="UTF-8"?>
<svg xmlns="http://www.w3.org/2000/svg" xmlns:xlink="http://www.w3.org/1999/xlink" width="28px" height="28px" viewBox="0 0 28 31" version="1.1">
<g id="surface1">
<path style=" stroke:none;fill-rule:nonzero;fill:rgb(92.941176%,41.176471%,36.078431%);fill-opacity:1;" d="M 15.554688 10.589844 L 15.554688 6.09375 L 16.828125 6.09375 L 16.828125 10.589844 Z M 13.851562 8.933594 L 13.851562 7.742188 L 18.542969 7.742188 L 18.542969 8.933594 Z M 13.851562 8.933594 "/>
<path style=" stroke:none;fill-rule:nonzero;fill:rgb(92.941176%,41.176471%,36.078431%);fill-opacity:1;" d="M 18.820312 12.722656 L 22.074219 3.550781 L 23.445312 3.550781 L 20.191406 12.722656 Z M 18.820312 12.722656 "/>
<path style=" stroke:none;fill-rule:nonzero;fill:rgb(92.941176%,41.176471%,36.078431%);fill-opacity:1;" d="M 22.824219 9.613281 L 25.609375 9.613281 L 25.609375 8.398438 L 22.824219 8.398438 Z M 22.824219 9.613281 "/>
<path style=" stroke:none;fill-rule:nonzero;fill:rgb(92.941176%,41.176471%,36.078431%);fill-opacity:1;" d="M 11.90625 2.777344 C 10.34375 4.320312 9.363281 6.347656 9.140625 8.515625 C 9.113281 8.753906 9.289062 8.964844 9.53125 8.992188 C 9.769531 9.015625 9.988281 8.839844 10.011719 8.605469 C 10.453125 4.433594 13.867188 1.175781 18.101562 0.886719 C 22.339844 0.597656 26.175781 3.351562 27.199219 7.421875 C 28.21875 11.492188 26.132812 15.699219 22.25 17.394531 C 22.105469 17.457031 22.007812 17.589844 21.988281 17.742188 C 21.972656 17.898438 22.039062 18.050781 22.167969 18.144531 C 22.296875 18.234375 22.460938 18.253906 22.605469 18.183594 C 26.136719 16.644531 28.394531 13.160156 28.332031 9.34375 C 28.273438 5.53125 25.910156 2.121094 22.324219 0.6875 C 18.746094 -0.742188 14.644531 0.0742188 11.910156 2.773438 Z M 11.90625 2.777344 "/>
<path style=" stroke:none;fill-rule:nonzero;fill:rgb(92.941176%,41.176471%,36.078431%);fill-opacity:1;" d="M 16.503906 25.269531 C 15.535156 26.625 13.652344 27.40625 12.324219 26.480469 C 12.113281 26.332031 12.105469 26.171875 12.195312 25.617188 C 12.402344 24.304688 12.261719 23.382812 11.707031 22.546875 C 12.332031 21.984375 12.613281 21.136719 12.425781 20.316406 C 13.714844 20.070312 15.347656 20.339844 16.257812 20.976562 C 16.859375 21.394531 17.210938 22.074219 17.25 22.894531 C 17.289062 23.699219 17.015625 24.566406 16.507812 25.273438 Z M 10.117188 22.339844 C 9.265625 22.339844 8.578125 21.660156 8.578125 20.824219 C 8.578125 19.988281 9.265625 19.300781 10.117188 19.300781 C 10.964844 19.300781 11.65625 19.984375 11.65625 20.824219 C 11.65625 21.667969 10.953125 22.339844 10.117188 22.339844 Z M 7.253906 26.1875 C 5.777344 26.859375 4.066406 25.761719 3.367188 24.246094 C 2.484375 22.355469 3.222656 20.605469 4.40625 20.066406 C 4.636719 19.960938 4.777344 20.035156 5.214844 20.382812 L 5.230469 20.390625 C 6.179688 21.148438 6.992188 21.496094 7.871094 21.519531 C 8.140625 22.371094 8.886719 23.007812 9.804688 23.132812 C 9.371094 24.46875 8.191406 25.773438 7.261719 26.191406 Z M 7.777344 18.832031 C 7.148438 17.957031 6.722656 16.839844 6.722656 16.054688 C 6.722656 14.574219 8.253906 13.375 10.136719 13.375 C 12.246094 13.375 13.546875 14.765625 13.546875 16.054688 C 13.546875 16.308594 13.421875 16.402344 12.910156 16.652344 C 11.8125 17.1875 11.148438 17.777344 10.757812 18.570312 C 10.550781 18.515625 10.339844 18.484375 10.117188 18.484375 C 9.355469 18.484375 8.675781 18.839844 8.246094 19.394531 C 8.085938 19.226562 7.925781 19.039062 7.777344 18.828125 Z M 16.730469 20.304688 C 15.582031 19.503906 13.644531 19.203125 12.097656 19.550781 C 11.933594 19.3125 11.734375 19.097656 11.496094 18.933594 C 11.804688 18.300781 12.34375 17.839844 13.269531 17.386719 C 13.761719 17.148438 14.367188 16.847656 14.367188 16.058594 C 14.367188 13.898438 12.167969 12.566406 10.132812 12.566406 C 7.796875 12.566406 5.898438 14.132812 5.898438 16.058594 C 5.898438 17.015625 6.375 18.289062 7.105469 19.304688 C 7.34375 19.632812 7.589844 19.921875 7.855469 20.164062 C 7.804688 20.335938 7.769531 20.515625 7.761719 20.703125 C 7.109375 20.65625 6.496094 20.367188 5.738281 19.761719 L 5.730469 19.753906 C 5.308594 19.414062 4.792969 19 4.0625 19.332031 C 2.082031 20.230469 1.769531 22.765625 2.621094 24.589844 C 3.519531 26.519531 5.699219 27.792969 7.605469 26.929688 C 8.945312 26.320312 10.273438 24.644531 10.667969 23.089844 C 10.785156 23.0625 10.902344 23.023438 11.011719 22.980469 C 11.398438 23.550781 11.582031 24.230469 11.382812 25.492188 C 11.296875 26.023438 11.195312 26.683594 11.847656 27.144531 C 13.582031 28.351562 15.960938 27.441406 17.175781 25.738281 C 17.785156 24.886719 18.113281 23.835938 18.066406 22.851562 C 18.015625 21.777344 17.542969 20.875 16.730469 20.304688 Z M 16.730469 20.304688 "/>
<path style=" stroke:none;fill-rule:nonzero;fill:rgb(92.941176%,41.176471%,36.078431%);fill-opacity:1;" d="M 17.429688 14.625 C 17.253906 14.765625 17.222656 15.019531 17.363281 15.199219 C 18.710938 16.84375 19.414062 18.832031 19.414062 20.949219 C 19.414062 26.011719 15.246094 30.128906 10.117188 30.128906 C 7.972656 30.128906 5.957031 29.429688 4.292969 28.105469 C 4.113281 27.964844 3.855469 27.992188 3.714844 28.167969 C 3.574219 28.34375 3.601562 28.601562 3.777344 28.738281 C 5.566406 30.164062 7.820312 30.945312 10.121094 30.945312 C 15.699219 30.945312 20.242188 26.460938 20.242188 20.949219 C 20.242188 18.675781 19.449219 16.453125 18.007812 14.683594 C 17.863281 14.511719 17.605469 14.484375 17.429688 14.621094 Z M 17.429688 14.625 "/>
<path style=" stroke:none;fill-rule:nonzero;fill:rgb(92.941176%,41.176471%,36.078431%);fill-opacity:1;" d="M 16.601562 13.277344 C 14.789062 11.78125 12.488281 10.957031 10.121094 10.957031 C 4.539062 10.957031 0 15.441406 0 20.953125 C 0 23.289062 0.832031 25.5625 2.347656 27.355469 C 2.429688 27.453125 2.546875 27.503906 2.664062 27.503906 C 2.757812 27.503906 2.851562 27.472656 2.925781 27.40625 C 3.101562 27.265625 3.125 27.007812 2.976562 26.835938 C 1.585938 25.1875 0.820312 23.101562 0.820312 20.953125 C 0.820312 15.890625 4.992188 11.773438 10.117188 11.773438 C 12.292969 11.773438 14.40625 12.53125 16.074219 13.902344 C 16.25 14.046875 16.507812 14.023438 16.652344 13.851562 C 16.796875 13.679688 16.777344 13.425781 16.601562 13.28125 Z M 16.601562 13.277344 "/>
</g>
</svg>
