<?xml version="1.0" encoding="UTF-8"?>
<svg xmlns="http://www.w3.org/2000/svg" xmlns:xlink="http://www.w3.org/1999/xlink" width="28px" height="28px" viewBox="0 0 28 28" version="1.1">
<g id="surface1">
<path style=" stroke:none;fill-rule:nonzero;fill:rgb(92.941176%,41.176471%,36.078431%);fill-opacity:1;" d="M 16.9375 10.410156 L 16.9375 4.652344 L 18.566406 4.652344 L 18.566406 10.410156 Z M 14.753906 8.292969 L 14.753906 6.769531 L 20.765625 6.769531 L 20.765625 8.292969 Z M 14.753906 8.292969 "/>
<path style=" stroke:none;fill-rule:nonzero;fill:rgb(92.941176%,41.176471%,36.078431%);fill-opacity:1;" d="M 12.109375 2.511719 C 10.699219 3.910156 9.816406 5.734375 9.609375 7.699219 C 9.585938 7.910156 9.746094 8.105469 9.96875 8.128906 C 10.183594 8.148438 10.375 7.996094 10.402344 7.777344 C 10.800781 4.007812 13.878906 1.074219 17.707031 0.804688 C 21.535156 0.542969 24.996094 3.03125 25.921875 6.707031 C 26.847656 10.382812 24.960938 14.183594 21.457031 15.71875 C 21.324219 15.769531 21.238281 15.894531 21.222656 16.03125 C 21.203125 16.167969 21.265625 16.3125 21.382812 16.390625 C 21.492188 16.476562 21.644531 16.492188 21.777344 16.433594 C 24.960938 15.039062 27 11.894531 26.949219 8.449219 C 26.890625 5.003906 24.757812 1.921875 21.523438 0.632812 C 18.285156 -0.660156 14.585938 0.078125 12.117188 2.511719 Z M 12.109375 2.511719 "/>
<path style=" stroke:none;fill-rule:nonzero;fill:rgb(92.941176%,41.176471%,36.078431%);fill-opacity:1;" d="M 16.269531 22.824219 C 15.394531 24.046875 13.691406 24.753906 12.488281 23.914062 C 12.300781 23.78125 12.296875 23.640625 12.375 23.132812 C 12.558594 21.949219 12.433594 21.117188 11.929688 20.363281 C 12.5 19.851562 12.75 19.085938 12.582031 18.34375 C 13.746094 18.125 15.21875 18.359375 16.042969 18.9375 C 16.585938 19.3125 16.902344 19.925781 16.9375 20.667969 C 16.96875 21.390625 16.726562 22.179688 16.269531 22.816406 Z M 10.5 20.179688 C 9.738281 20.179688 9.113281 19.558594 9.113281 18.804688 C 9.113281 18.050781 9.738281 17.433594 10.5 17.433594 C 11.265625 17.433594 11.890625 18.050781 11.890625 18.804688 C 11.890625 19.570312 11.253906 20.179688 10.5 20.179688 Z M 7.914062 23.65625 C 6.578125 24.261719 5.035156 23.273438 4.398438 21.898438 C 3.605469 20.191406 4.269531 18.609375 5.339844 18.125 C 5.550781 18.03125 5.671875 18.097656 6.070312 18.410156 L 6.078125 18.421875 C 6.9375 19.109375 7.667969 19.421875 8.46875 19.445312 C 8.710938 20.210938 9.386719 20.785156 10.210938 20.898438 C 9.824219 22.109375 8.753906 23.28125 7.914062 23.664062 Z M 8.382812 17.007812 C 7.8125 16.21875 7.425781 15.214844 7.425781 14.503906 C 7.425781 13.171875 8.8125 12.082031 10.511719 12.082031 C 12.414062 12.082031 13.59375 13.339844 13.59375 14.503906 C 13.59375 14.730469 13.476562 14.820312 13.015625 15.046875 C 12.023438 15.53125 11.421875 16.0625 11.070312 16.785156 C 10.882812 16.734375 10.699219 16.703125 10.496094 16.703125 C 9.804688 16.703125 9.199219 17.03125 8.804688 17.527344 C 8.660156 17.375 8.515625 17.203125 8.382812 17.015625 Z M 16.46875 18.34375 C 15.429688 17.617188 13.6875 17.34375 12.285156 17.65625 C 12.140625 17.441406 11.953125 17.246094 11.746094 17.097656 C 12.023438 16.535156 12.511719 16.113281 13.351562 15.703125 C 13.789062 15.484375 14.339844 15.21875 14.339844 14.503906 C 14.339844 12.554688 12.355469 11.351562 10.519531 11.351562 C 8.40625 11.351562 6.691406 12.765625 6.691406 14.503906 C 6.691406 15.367188 7.117188 16.515625 7.777344 17.433594 C 7.992188 17.730469 8.21875 17.992188 8.453125 18.210938 C 8.40625 18.359375 8.375 18.527344 8.367188 18.691406 C 7.777344 18.648438 7.230469 18.386719 6.539062 17.847656 L 6.527344 17.839844 C 6.148438 17.539062 5.675781 17.15625 5.015625 17.457031 C 3.226562 18.273438 2.945312 20.558594 3.714844 22.207031 C 4.53125 23.953125 6.492188 25.101562 8.214844 24.324219 C 9.425781 23.769531 10.621094 22.257812 10.980469 20.855469 C 11.085938 20.832031 11.191406 20.796875 11.289062 20.757812 C 11.640625 21.273438 11.804688 21.890625 11.625 23.023438 C 11.550781 23.503906 11.457031 24.105469 12.046875 24.519531 C 13.609375 25.609375 15.757812 24.785156 16.863281 23.246094 C 17.410156 22.476562 17.707031 21.527344 17.664062 20.644531 C 17.625 19.667969 17.191406 18.855469 16.460938 18.34375 Z M 16.46875 18.34375 "/>
<path style=" stroke:none;fill-rule:nonzero;fill:rgb(92.941176%,41.176471%,36.078431%);fill-opacity:1;" d="M 17.097656 13.210938 C 16.9375 13.339844 16.914062 13.566406 17.042969 13.726562 C 18.257812 15.214844 18.898438 17.007812 18.898438 18.925781 C 18.898438 23.496094 15.128906 27.214844 10.496094 27.214844 C 8.554688 27.214844 6.738281 26.585938 5.230469 25.386719 C 5.074219 25.253906 4.835938 25.28125 4.710938 25.4375 C 4.578125 25.597656 4.605469 25.832031 4.761719 25.957031 C 6.378906 27.242188 8.410156 27.949219 10.488281 27.949219 C 15.535156 27.949219 19.632812 23.898438 19.632812 18.925781 C 19.632812 16.871094 18.917969 14.863281 17.613281 13.269531 C 17.480469 13.109375 17.246094 13.085938 17.085938 13.214844 Z M 17.097656 13.210938 "/>
<path style=" stroke:none;fill-rule:nonzero;fill:rgb(92.941176%,41.176471%,36.078431%);fill-opacity:1;" d="M 16.351562 11.992188 C 14.710938 10.640625 12.632812 9.894531 10.496094 9.894531 C 5.453125 9.894531 1.355469 13.945312 1.355469 18.917969 C 1.355469 21.03125 2.109375 23.085938 3.480469 24.703125 C 3.554688 24.792969 3.660156 24.835938 3.765625 24.835938 C 3.847656 24.835938 3.933594 24.808594 4.003906 24.753906 C 4.164062 24.625 4.183594 24.394531 4.054688 24.234375 C 2.792969 22.75 2.105469 20.867188 2.105469 18.917969 C 2.105469 14.347656 5.875 10.625 10.507812 10.625 C 12.46875 10.625 14.378906 11.304688 15.882812 12.550781 C 16.039062 12.675781 16.273438 12.660156 16.410156 12.503906 C 16.535156 12.34375 16.519531 12.121094 16.363281 11.984375 Z M 16.351562 11.992188 "/>
</g>
</svg>
