<?xml version="1.0" encoding="UTF-8"?>
<svg xmlns="http://www.w3.org/2000/svg" xmlns:xlink="http://www.w3.org/1999/xlink" width="28px" height="28px" viewBox="0 0 28 31" version="1.1">
<g id="surface1">
<path style=" stroke:none;fill-rule:nonzero;fill:rgb(92.941176%,41.176471%,36.078431%);fill-opacity:1;" d="M 17.253906 11.527344 L 17.253906 5.152344 L 19.054688 5.152344 L 19.054688 11.527344 Z M 14.835938 9.179688 L 14.835938 7.496094 L 21.492188 7.496094 L 21.492188 9.179688 Z M 14.835938 9.179688 "/>
<path style=" stroke:none;fill-rule:nonzero;fill:rgb(92.941176%,41.176471%,36.078431%);fill-opacity:1;" d="M 11.90625 2.78125 C 10.347656 4.328125 9.367188 6.347656 9.140625 8.523438 C 9.113281 8.757812 9.289062 8.972656 9.535156 9 C 9.773438 9.019531 9.988281 8.851562 10.015625 8.609375 C 10.457031 4.4375 13.867188 1.1875 18.105469 0.890625 C 22.34375 0.601562 26.175781 3.355469 27.199219 7.425781 C 28.222656 11.496094 26.136719 15.703125 22.253906 17.402344 C 22.109375 17.460938 22.011719 17.597656 21.996094 17.75 C 21.976562 17.902344 22.042969 18.058594 22.171875 18.148438 C 22.296875 18.242188 22.464844 18.257812 22.609375 18.195312 C 26.136719 16.648438 28.394531 13.167969 28.335938 9.355469 C 28.273438 5.539062 25.910156 2.128906 22.328125 0.699219 C 18.746094 -0.730469 14.648438 0.0859375 11.914062 2.78125 Z M 11.90625 2.78125 "/>
<path style=" stroke:none;fill-rule:nonzero;fill:rgb(92.941176%,41.176471%,36.078431%);fill-opacity:1;" d="M 16.511719 25.269531 C 15.542969 26.625 13.660156 27.40625 12.328125 26.476562 C 12.117188 26.328125 12.113281 26.171875 12.199219 25.613281 C 12.40625 24.300781 12.265625 23.378906 11.707031 22.542969 C 12.339844 21.980469 12.617188 21.132812 12.429688 20.308594 C 13.71875 20.066406 15.347656 20.328125 16.261719 20.964844 C 16.863281 21.382812 17.214844 22.0625 17.253906 22.882812 C 17.285156 23.683594 17.019531 24.554688 16.511719 25.261719 Z M 10.125 22.339844 C 9.28125 22.339844 8.589844 21.65625 8.589844 20.820312 C 8.589844 19.984375 9.28125 19.300781 10.125 19.300781 C 10.972656 19.300781 11.664062 19.984375 11.664062 20.820312 C 11.664062 21.667969 10.960938 22.339844 10.125 22.339844 Z M 7.261719 26.191406 C 5.78125 26.863281 4.074219 25.765625 3.371094 24.246094 C 2.492188 22.355469 3.226562 20.601562 4.410156 20.066406 C 4.644531 19.964844 4.78125 20.035156 5.21875 20.382812 L 5.230469 20.394531 C 6.179688 21.15625 6.988281 21.503906 7.875 21.527344 C 8.144531 22.375 8.890625 23.011719 9.804688 23.136719 C 9.375 24.476562 8.191406 25.777344 7.261719 26.199219 Z M 7.78125 18.832031 C 7.148438 17.957031 6.722656 16.84375 6.722656 16.058594 C 6.722656 14.582031 8.257812 13.375 10.136719 13.375 C 12.246094 13.375 13.550781 14.769531 13.550781 16.058594 C 13.550781 16.308594 13.421875 16.40625 12.910156 16.660156 C 11.8125 17.195312 11.144531 17.785156 10.757812 18.582031 C 10.550781 18.527344 10.34375 18.492188 10.121094 18.492188 C 9.355469 18.492188 8.683594 18.855469 8.25 19.40625 C 8.089844 19.238281 7.929688 19.046875 7.78125 18.839844 Z M 16.734375 20.308594 C 15.582031 19.503906 13.652344 19.203125 12.101562 19.546875 C 11.941406 19.308594 11.734375 19.09375 11.503906 18.929688 C 11.8125 18.304688 12.351562 17.839844 13.28125 17.386719 C 13.765625 17.144531 14.375 16.847656 14.375 16.058594 C 14.375 13.898438 12.179688 12.566406 10.144531 12.566406 C 7.808594 12.566406 5.90625 14.132812 5.90625 16.058594 C 5.90625 17.011719 6.378906 18.285156 7.109375 19.300781 C 7.347656 19.628906 7.597656 19.921875 7.859375 20.160156 C 7.808594 20.328125 7.773438 20.511719 7.761719 20.695312 C 7.109375 20.648438 6.503906 20.355469 5.738281 19.757812 L 5.726562 19.75 C 5.308594 19.417969 4.785156 18.996094 4.054688 19.328125 C 2.070312 20.230469 1.761719 22.761719 2.613281 24.585938 C 3.515625 26.519531 5.6875 27.792969 7.59375 26.929688 C 8.9375 26.316406 10.257812 24.640625 10.65625 23.089844 C 10.773438 23.0625 10.890625 23.023438 11 22.980469 C 11.386719 23.554688 11.570312 24.234375 11.371094 25.492188 C 11.289062 26.023438 11.183594 26.6875 11.835938 27.144531 C 13.566406 28.351562 15.945312 27.441406 17.167969 25.738281 C 17.777344 24.886719 18.105469 23.832031 18.058594 22.855469 C 18.011719 21.777344 17.535156 20.875 16.722656 20.308594 Z M 16.734375 20.308594 "/>
<path style=" stroke:none;fill-rule:nonzero;fill:rgb(92.941176%,41.176471%,36.078431%);fill-opacity:1;" d="M 17.429688 14.625 C 17.253906 14.769531 17.226562 15.019531 17.367188 15.199219 C 18.714844 16.84375 19.421875 18.832031 19.421875 20.953125 C 19.421875 26.015625 15.25 30.132812 10.121094 30.132812 C 7.972656 30.132812 5.960938 29.433594 4.292969 28.105469 C 4.117188 27.960938 3.855469 27.988281 3.714844 28.164062 C 3.570312 28.339844 3.597656 28.597656 3.773438 28.738281 C 5.5625 30.160156 7.8125 30.945312 10.113281 30.945312 C 15.699219 30.945312 20.234375 26.460938 20.234375 20.953125 C 20.234375 18.679688 19.445312 16.457031 18 14.691406 C 17.855469 14.515625 17.59375 14.488281 17.417969 14.632812 Z M 17.429688 14.625 "/>
<path style=" stroke:none;fill-rule:nonzero;fill:rgb(92.941176%,41.176471%,36.078431%);fill-opacity:1;" d="M 16.605469 13.277344 C 14.789062 11.78125 12.488281 10.953125 10.121094 10.953125 C 4.539062 10.953125 0 15.441406 0 20.945312 C 0 23.285156 0.835938 25.558594 2.351562 27.351562 C 2.433594 27.449219 2.550781 27.496094 2.667969 27.496094 C 2.761719 27.496094 2.855469 27.464844 2.933594 27.40625 C 3.109375 27.261719 3.132812 27.007812 2.988281 26.832031 C 1.59375 25.1875 0.832031 23.101562 0.832031 20.945312 C 0.832031 15.882812 5.003906 11.761719 10.132812 11.761719 C 12.304688 11.761719 14.417969 12.515625 16.085938 13.894531 C 16.257812 14.035156 16.515625 14.015625 16.667969 13.84375 C 16.808594 13.667969 16.789062 13.417969 16.617188 13.269531 Z M 16.605469 13.277344 "/>
</g>
</svg>
