<?xml version="1.0" encoding="UTF-8"?>
<svg xmlns="http://www.w3.org/2000/svg" xmlns:xlink="http://www.w3.org/1999/xlink" width="28px" height="28px" viewBox="0 0 28 31" version="1.1">
<g id="surface1">
<path style=" stroke:none;fill-rule:nonzero;fill:rgb(92.941176%,41.176471%,36.078431%);fill-opacity:1;" d="M 18.007812 8.976562 L 18.007812 7.292969 L 19.8125 7.292969 L 19.8125 8.976562 Z M 15.589844 8.976562 L 15.589844 7.292969 L 22.246094 7.292969 L 22.246094 8.976562 Z M 15.589844 8.976562 "/>
<path style=" stroke:none;fill-rule:nonzero;fill:rgb(92.941176%,41.176471%,36.078431%);fill-opacity:1;" d="M 11.902344 2.78125 C 10.34375 4.320312 9.363281 6.351562 9.136719 8.519531 C 9.109375 8.753906 9.285156 8.96875 9.523438 8.992188 C 9.761719 9.011719 9.980469 8.84375 10.003906 8.605469 C 10.445312 4.433594 13.859375 1.179688 18.097656 0.890625 C 22.335938 0.601562 26.171875 3.351562 27.191406 7.421875 C 28.214844 11.492188 26.128906 15.699219 22.246094 17.398438 C 22.101562 17.460938 22 17.59375 21.980469 17.75 C 21.964844 17.90625 22.027344 18.058594 22.15625 18.148438 C 22.285156 18.242188 22.449219 18.253906 22.601562 18.1875 C 26.128906 16.648438 28.386719 13.160156 28.324219 9.347656 C 28.261719 5.53125 25.898438 2.121094 22.3125 0.695312 C 18.738281 -0.738281 14.636719 0.0820312 11.902344 2.78125 Z M 11.902344 2.78125 "/>
<path style=" stroke:none;fill-rule:nonzero;fill:rgb(92.941176%,41.176471%,36.078431%);fill-opacity:1;" d="M 16.507812 25.273438 C 15.542969 26.632812 13.660156 27.410156 12.324219 26.484375 C 12.113281 26.335938 12.109375 26.179688 12.195312 25.621094 C 12.402344 24.308594 12.265625 23.386719 11.707031 22.554688 C 12.332031 21.988281 12.613281 21.148438 12.421875 20.320312 C 13.707031 20.078125 15.34375 20.339844 16.25 20.980469 C 16.851562 21.398438 17.203125 22.074219 17.238281 22.898438 C 17.273438 23.699219 17.007812 24.566406 16.496094 25.277344 Z M 10.125 22.339844 C 9.273438 22.339844 8.585938 21.660156 8.585938 20.816406 C 8.585938 19.984375 9.273438 19.296875 10.125 19.296875 C 10.976562 19.296875 11.664062 19.976562 11.664062 20.816406 C 11.664062 21.664062 10.960938 22.339844 10.125 22.339844 Z M 7.261719 26.1875 C 5.785156 26.859375 4.082031 25.761719 3.371094 24.242188 C 2.492188 22.351562 3.222656 20.601562 4.414062 20.066406 C 4.648438 19.957031 4.789062 20.03125 5.226562 20.378906 L 5.238281 20.386719 C 6.1875 21.148438 6.996094 21.492188 7.882812 21.519531 C 8.15625 22.367188 8.90625 23.003906 9.816406 23.132812 C 9.382812 24.472656 8.203125 25.769531 7.277344 26.195312 Z M 7.78125 18.832031 C 7.148438 17.957031 6.726562 16.839844 6.726562 16.0625 C 6.726562 14.582031 8.257812 13.382812 10.136719 13.382812 C 12.242188 13.382812 13.550781 14.777344 13.550781 16.0625 C 13.550781 16.308594 13.421875 16.410156 12.910156 16.660156 C 11.816406 17.199219 11.148438 17.785156 10.757812 18.578125 C 10.554688 18.523438 10.34375 18.488281 10.117188 18.488281 C 9.355469 18.488281 8.679688 18.847656 8.246094 19.40625 C 8.082031 19.238281 7.925781 19.046875 7.773438 18.832031 Z M 16.734375 20.308594 C 15.582031 19.507812 13.648438 19.203125 12.101562 19.546875 C 11.945312 19.304688 11.738281 19.09375 11.5 18.925781 C 11.808594 18.296875 12.347656 17.835938 13.273438 17.378906 C 13.761719 17.136719 14.371094 16.839844 14.371094 16.054688 C 14.371094 13.894531 12.167969 12.5625 10.132812 12.5625 C 7.792969 12.5625 5.894531 14.128906 5.894531 16.054688 C 5.894531 17.011719 6.371094 18.28125 7.101562 19.304688 C 7.339844 19.632812 7.582031 19.917969 7.847656 20.164062 C 7.792969 20.339844 7.765625 20.515625 7.753906 20.703125 C 7.101562 20.65625 6.492188 20.367188 5.730469 19.761719 L 5.714844 19.753906 C 5.292969 19.417969 4.777344 19 4.046875 19.332031 C 2.066406 20.234375 1.75 22.761719 2.601562 24.585938 C 3.503906 26.515625 5.683594 27.789062 7.582031 26.925781 C 8.925781 26.316406 10.246094 24.640625 10.648438 23.09375 C 10.765625 23.066406 10.882812 23.03125 10.996094 22.984375 C 11.386719 23.554688 11.570312 24.234375 11.363281 25.492188 C 11.28125 26.027344 11.179688 26.691406 11.828125 27.140625 C 13.566406 28.351562 15.945312 27.445312 17.15625 25.734375 C 17.769531 24.882812 18.089844 23.832031 18.046875 22.851562 C 18 21.773438 17.523438 20.871094 16.714844 20.308594 Z M 16.734375 20.308594 "/>
<path style=" stroke:none;fill-rule:nonzero;fill:rgb(92.941176%,41.176471%,36.078431%);fill-opacity:1;" d="M 17.429688 14.628906 C 17.25 14.769531 17.222656 15.023438 17.367188 15.199219 C 18.710938 16.839844 19.417969 18.832031 19.417969 20.953125 C 19.417969 26.019531 15.25 30.128906 10.117188 30.128906 C 7.972656 30.128906 5.953125 29.429688 4.292969 28.105469 C 4.117188 27.964844 3.855469 27.988281 3.714844 28.164062 C 3.570312 28.339844 3.597656 28.59375 3.773438 28.738281 C 5.566406 30.15625 7.816406 30.945312 10.117188 30.945312 C 15.699219 30.945312 20.234375 26.457031 20.234375 20.953125 C 20.234375 18.679688 19.445312 16.457031 18 14.6875 C 17.859375 14.515625 17.597656 14.488281 17.421875 14.628906 Z M 17.429688 14.628906 "/>
<path style=" stroke:none;fill-rule:nonzero;fill:rgb(92.941176%,41.176471%,36.078431%);fill-opacity:1;" d="M 16.605469 13.277344 C 14.792969 11.78125 12.488281 10.953125 10.125 10.953125 C 4.542969 10.953125 0.0078125 15.4375 0.0078125 20.945312 C 0.0078125 23.28125 0.84375 25.554688 2.359375 27.351562 C 2.4375 27.445312 2.554688 27.5 2.671875 27.5 C 2.765625 27.5 2.855469 27.464844 2.9375 27.40625 C 3.105469 27.261719 3.132812 27.007812 2.992188 26.832031 C 1.601562 25.183594 0.832031 23.097656 0.832031 20.953125 C 0.832031 15.886719 5 11.769531 10.132812 11.769531 C 12.304688 11.769531 14.425781 12.523438 16.085938 13.902344 C 16.257812 14.042969 16.523438 14.023438 16.664062 13.847656 C 16.808594 13.671875 16.789062 13.417969 16.609375 13.277344 Z M 16.605469 13.277344 "/>
</g>
</svg>
