<?xml version="1.0" encoding="UTF-8"?>
<svg xmlns="http://www.w3.org/2000/svg" xmlns:xlink="http://www.w3.org/1999/xlink" width="28px" height="28px" viewBox="0 0 28 28" version="1.1">
<g id="surface1">
<path style=" stroke:none;fill-rule:nonzero;fill:rgb(92.941176%,41.176471%,36.078431%);fill-opacity:1;" d="M 17.621094 8.109375 L 17.621094 6.585938 L 19.25 6.585938 L 19.25 8.109375 Z M 15.4375 8.109375 L 15.4375 6.585938 L 21.449219 6.585938 L 21.449219 8.109375 Z M 15.4375 8.109375 "/>
<path style=" stroke:none;fill-rule:nonzero;fill:rgb(92.941176%,41.176471%,36.078431%);fill-opacity:1;" d="M 12.105469 2.511719 C 10.699219 3.902344 9.8125 5.738281 9.605469 7.695312 C 9.582031 7.90625 9.742188 8.101562 9.957031 8.121094 C 10.171875 8.140625 10.371094 7.988281 10.390625 7.773438 C 10.789062 4.003906 13.871094 1.066406 17.699219 0.804688 C 21.527344 0.542969 24.992188 3.027344 25.914062 6.703125 C 26.839844 10.378906 24.957031 14.179688 21.449219 15.714844 C 21.316406 15.769531 21.226562 15.890625 21.207031 16.03125 C 21.195312 16.171875 21.25 16.3125 21.367188 16.390625 C 21.484375 16.476562 21.632812 16.488281 21.769531 16.425781 C 24.957031 15.039062 26.996094 11.886719 26.9375 8.441406 C 26.882812 4.996094 24.746094 1.914062 21.507812 0.628906 C 18.28125 -0.667969 14.574219 0.0742188 12.105469 2.511719 Z M 12.105469 2.511719 "/>
<path style=" stroke:none;fill-rule:nonzero;fill:rgb(92.941176%,41.176471%,36.078431%);fill-opacity:1;" d="M 16.265625 22.828125 C 15.394531 24.054688 13.691406 24.757812 12.488281 23.921875 C 12.296875 23.789062 12.292969 23.644531 12.371094 23.140625 C 12.558594 21.957031 12.433594 21.125 11.929688 20.371094 C 12.492188 19.859375 12.746094 19.101562 12.574219 18.355469 C 13.734375 18.136719 15.214844 18.371094 16.03125 18.949219 C 16.574219 19.328125 16.894531 19.9375 16.925781 20.683594 C 16.957031 21.40625 16.714844 22.1875 16.253906 22.832031 Z M 10.5 20.179688 C 9.730469 20.179688 9.109375 19.5625 9.109375 18.800781 C 9.109375 18.050781 9.730469 17.429688 10.5 17.429688 C 11.269531 17.429688 11.890625 18.042969 11.890625 18.800781 C 11.890625 19.566406 11.253906 20.179688 10.5 20.179688 Z M 7.914062 23.652344 C 6.582031 24.261719 5.042969 23.269531 4.398438 21.894531 C 3.605469 20.1875 4.265625 18.609375 5.339844 18.125 C 5.554688 18.027344 5.679688 18.09375 6.074219 18.40625 L 6.085938 18.414062 C 6.945312 19.101562 7.675781 19.414062 8.476562 19.4375 C 8.722656 20.203125 9.398438 20.777344 10.222656 20.894531 C 9.828125 22.105469 8.765625 23.277344 7.929688 23.660156 Z M 8.382812 17.007812 C 7.8125 16.21875 7.429688 15.210938 7.429688 14.507812 C 7.429688 13.171875 8.8125 12.085938 10.511719 12.085938 C 12.414062 12.085938 13.59375 13.347656 13.59375 14.507812 C 13.59375 14.730469 13.476562 14.820312 13.015625 15.046875 C 12.027344 15.535156 11.425781 16.0625 11.070312 16.78125 C 10.886719 16.730469 10.699219 16.699219 10.492188 16.699219 C 9.804688 16.699219 9.195312 17.023438 8.804688 17.527344 C 8.65625 17.375 8.511719 17.203125 8.375 17.007812 Z M 16.46875 18.34375 C 15.429688 17.621094 13.683594 17.34375 12.285156 17.65625 C 12.144531 17.4375 11.957031 17.246094 11.742188 17.09375 C 12.019531 16.527344 12.507812 16.109375 13.34375 15.695312 C 13.785156 15.476562 14.335938 15.210938 14.335938 14.5 C 14.335938 12.550781 12.34375 11.347656 10.507812 11.347656 C 8.394531 11.347656 6.679688 12.761719 6.679688 14.5 C 6.679688 15.367188 7.109375 16.511719 7.769531 17.4375 C 7.984375 17.734375 8.203125 17.992188 8.441406 18.210938 C 8.394531 18.371094 8.367188 18.53125 8.359375 18.699219 C 7.769531 18.65625 7.21875 18.394531 6.53125 17.847656 L 6.515625 17.84375 C 6.136719 17.539062 5.667969 17.160156 5.011719 17.460938 C 3.222656 18.277344 2.933594 20.558594 3.703125 22.207031 C 4.519531 23.949219 6.488281 25.101562 8.203125 24.320312 C 9.417969 23.769531 10.609375 22.257812 10.972656 20.859375 C 11.078125 20.835938 11.183594 20.800781 11.285156 20.761719 C 11.640625 21.273438 11.804688 21.890625 11.617188 23.023438 C 11.542969 23.507812 11.453125 24.109375 12.039062 24.515625 C 13.609375 25.609375 15.757812 24.789062 16.851562 23.242188 C 17.40625 22.476562 17.695312 21.527344 17.65625 20.640625 C 17.613281 19.667969 17.183594 18.851562 16.453125 18.34375 Z M 16.46875 18.34375 "/>
<path style=" stroke:none;fill-rule:nonzero;fill:rgb(92.941176%,41.176471%,36.078431%);fill-opacity:1;" d="M 17.097656 13.214844 C 16.933594 13.339844 16.910156 13.570312 17.042969 13.726562 C 18.253906 15.210938 18.894531 17.007812 18.894531 18.925781 C 18.894531 23.5 15.128906 27.214844 10.492188 27.214844 C 8.554688 27.214844 6.730469 26.582031 5.230469 25.386719 C 5.074219 25.257812 4.835938 25.28125 4.710938 25.4375 C 4.578125 25.597656 4.605469 25.828125 4.761719 25.957031 C 6.382812 27.238281 8.414062 27.949219 10.492188 27.949219 C 15.535156 27.949219 19.632812 23.898438 19.632812 18.925781 C 19.632812 16.871094 18.917969 14.863281 17.613281 13.265625 C 17.484375 13.109375 17.25 13.085938 17.089844 13.214844 Z M 17.097656 13.214844 "/>
<path style=" stroke:none;fill-rule:nonzero;fill:rgb(92.941176%,41.176471%,36.078431%);fill-opacity:1;" d="M 16.351562 11.992188 C 14.714844 10.640625 12.632812 9.894531 10.5 9.894531 C 5.457031 9.894531 1.363281 13.945312 1.363281 18.917969 C 1.363281 21.027344 2.117188 23.082031 3.484375 24.703125 C 3.554688 24.789062 3.664062 24.839844 3.769531 24.839844 C 3.851562 24.839844 3.933594 24.808594 4.007812 24.753906 C 4.160156 24.625 4.183594 24.394531 4.058594 24.234375 C 2.800781 22.746094 2.105469 20.863281 2.105469 18.925781 C 2.105469 14.347656 5.871094 10.628906 10.507812 10.628906 C 12.46875 10.628906 14.382812 11.3125 15.882812 12.558594 C 16.039062 12.683594 16.277344 12.667969 16.40625 12.507812 C 16.535156 12.347656 16.519531 12.121094 16.355469 11.992188 Z M 16.351562 11.992188 "/>
</g>
</svg>
