<?xml version="1.0" encoding="UTF-8"?>
<svg xmlns="http://www.w3.org/2000/svg" xmlns:xlink="http://www.w3.org/1999/xlink" width="28px" height="28px" viewBox="0 0 28 28" version="1.1">
<g id="surface1">
<path style=" stroke:none;fill-rule:nonzero;fill:rgb(92.941176%,41.176471%,36.078431%);fill-opacity:1;" d="M 25.246094 23.109375 C 23.539062 25.515625 20.230469 26.914062 17.878906 25.257812 C 17.511719 25 17.5 24.714844 17.660156 23.722656 C 18.015625 21.386719 17.777344 19.75 16.796875 18.265625 C 17.898438 17.261719 18.386719 15.757812 18.058594 14.292969 C 20.320312 13.863281 23.203125 14.332031 24.800781 15.460938 C 25.863281 16.203125 26.480469 17.421875 26.550781 18.878906 C 26.609375 20.304688 26.132812 21.851562 25.246094 23.109375 Z M 14.003906 17.898438 C 12.515625 17.898438 11.292969 16.6875 11.292969 15.191406 C 11.292969 13.707031 12.503906 12.488281 14.003906 12.488281 C 15.496094 12.488281 16.714844 13.695312 16.714844 15.191406 C 16.714844 16.699219 15.484375 17.898438 14.003906 17.898438 Z M 8.960938 24.742188 C 6.355469 25.941406 3.347656 23.980469 2.105469 21.285156 C 0.558594 17.925781 1.847656 14.804688 3.933594 13.84375 C 4.339844 13.65625 4.589844 13.785156 5.355469 14.410156 L 5.375 14.429688 C 7.050781 15.777344 8.472656 16.402344 10.03125 16.441406 C 10.507812 17.945312 11.820312 19.085938 13.4375 19.3125 C 12.675781 21.691406 10.597656 24.011719 8.960938 24.753906 Z M 9.875 11.65625 C 8.761719 10.101562 8.015625 8.117188 8.015625 6.710938 C 8.015625 4.085938 10.707031 1.945312 14.023438 1.945312 C 17.738281 1.945312 20.035156 4.421875 20.035156 6.710938 C 20.035156 7.15625 19.804688 7.335938 18.910156 7.78125 C 16.972656 8.734375 15.800781 9.785156 15.128906 11.199219 C 14.769531 11.101562 14.390625 11.042969 14.003906 11.042969 C 12.664062 11.042969 11.472656 11.675781 10.707031 12.667969 C 10.417969 12.359375 10.140625 12.03125 9.882812 11.65625 Z M 25.644531 14.28125 C 23.617188 12.855469 20.210938 12.308594 17.480469 12.933594 C 17.203125 12.507812 16.84375 12.132812 16.429688 11.835938 C 16.972656 10.714844 17.917969 9.890625 19.558594 9.078125 C 20.421875 8.652344 21.492188 8.128906 21.492188 6.722656 C 21.492188 2.886719 17.621094 0.511719 14.035156 0.511719 C 9.921875 0.511719 6.574219 3.292969 6.574219 6.722656 C 6.574219 8.425781 7.410156 10.695312 8.703125 12.496094 C 9.117188 13.082031 9.554688 13.585938 10.011719 14.023438 C 9.921875 14.332031 9.863281 14.648438 9.851562 14.976562 C 8.703125 14.886719 7.628906 14.378906 6.289062 13.300781 L 6.269531 13.289062 C 5.523438 12.695312 4.609375 11.953125 3.328125 12.539062 C -0.167969 14.144531 -0.714844 18.640625 0.785156 21.890625 C 2.375 25.328125 6.207031 27.597656 9.566406 26.050781 C 11.929688 24.960938 14.261719 21.980469 14.957031 19.226562 C 15.167969 19.175781 15.375 19.117188 15.5625 19.027344 C 16.25 20.046875 16.566406 21.257812 16.21875 23.496094 C 16.070312 24.445312 15.890625 25.625 17.042969 26.429688 C 20.101562 28.578125 24.285156 26.964844 26.429688 23.929688 C 27.503906 22.414062 28.078125 20.542969 28 18.800781 C 27.917969 16.886719 27.074219 15.273438 25.644531 14.269531 Z M 25.644531 14.28125 "/>
</g>
</svg>
