<?xml version="1.0" encoding="UTF-8"?>
<svg xmlns="http://www.w3.org/2000/svg" xmlns:xlink="http://www.w3.org/1999/xlink" width="28px" height="28px" viewBox="0 0 28 27" version="1.1">
<g id="surface1">
<path style=" stroke:none;fill-rule:nonzero;fill:rgb(92.941176%,41.176471%,36.078431%);fill-opacity:1;" d="M 25.246094 22.609375 C 23.539062 25.015625 20.230469 26.414062 17.878906 24.757812 C 17.511719 24.5 17.5 24.214844 17.660156 23.222656 C 18.015625 20.886719 17.777344 19.25 16.796875 17.765625 C 17.898438 16.761719 18.386719 15.257812 18.058594 13.792969 C 20.320312 13.363281 23.203125 13.832031 24.800781 14.960938 C 25.863281 15.703125 26.480469 16.921875 26.550781 18.378906 C 26.609375 19.804688 26.132812 21.351562 25.246094 22.609375 Z M 14.003906 17.398438 C 12.515625 17.398438 11.292969 16.1875 11.292969 14.691406 C 11.292969 13.207031 12.503906 11.988281 14.003906 11.988281 C 15.496094 11.988281 16.714844 13.195312 16.714844 14.691406 C 16.714844 16.199219 15.484375 17.398438 14.003906 17.398438 Z M 8.960938 24.242188 C 6.355469 25.441406 3.347656 23.480469 2.105469 20.785156 C 0.558594 17.425781 1.847656 14.304688 3.933594 13.34375 C 4.339844 13.15625 4.589844 13.285156 5.355469 13.910156 L 5.375 13.929688 C 7.050781 15.277344 8.472656 15.902344 10.03125 15.941406 C 10.507812 17.445312 11.820312 18.585938 13.4375 18.8125 C 12.675781 21.191406 10.597656 23.511719 8.960938 24.253906 Z M 9.875 11.15625 C 8.761719 9.601562 8.015625 7.617188 8.015625 6.210938 C 8.015625 3.585938 10.707031 1.445312 14.023438 1.445312 C 17.738281 1.445312 20.035156 3.921875 20.035156 6.210938 C 20.035156 6.65625 19.804688 6.835938 18.910156 7.28125 C 16.972656 8.234375 15.800781 9.285156 15.128906 10.699219 C 14.769531 10.601562 14.390625 10.542969 14.003906 10.542969 C 12.664062 10.542969 11.472656 11.175781 10.707031 12.167969 C 10.417969 11.859375 10.140625 11.53125 9.882812 11.15625 Z M 25.644531 13.78125 C 23.617188 12.355469 20.210938 11.808594 17.480469 12.433594 C 17.203125 12.007812 16.84375 11.632812 16.429688 11.335938 C 16.972656 10.214844 17.917969 9.390625 19.558594 8.578125 C 20.421875 8.152344 21.492188 7.628906 21.492188 6.222656 C 21.492188 2.386719 17.621094 0.0117188 14.035156 0.0117188 C 9.921875 0.0117188 6.574219 2.792969 6.574219 6.222656 C 6.574219 7.925781 7.410156 10.195312 8.703125 11.996094 C 9.117188 12.582031 9.554688 13.085938 10.011719 13.523438 C 9.921875 13.832031 9.863281 14.148438 9.851562 14.476562 C 8.703125 14.386719 7.628906 13.878906 6.289062 12.800781 L 6.269531 12.789062 C 5.523438 12.195312 4.609375 11.453125 3.328125 12.039062 C -0.167969 13.644531 -0.714844 18.140625 0.785156 21.390625 C 2.375 24.828125 6.207031 27.097656 9.566406 25.550781 C 11.929688 24.460938 14.261719 21.480469 14.957031 18.726562 C 15.167969 18.675781 15.375 18.617188 15.5625 18.527344 C 16.25 19.546875 16.566406 20.757812 16.21875 22.996094 C 16.070312 23.945312 15.890625 25.125 17.042969 25.929688 C 20.101562 28.078125 24.285156 26.464844 26.429688 23.429688 C 27.503906 21.914062 28.078125 20.042969 28 18.300781 C 27.917969 16.386719 27.074219 14.773438 25.644531 13.769531 Z M 25.644531 13.78125 "/>
</g>
</svg>
