<?xml version="1.0" encoding="UTF-8"?>
<svg xmlns="http://www.w3.org/2000/svg" xmlns:xlink="http://www.w3.org/1999/xlink" width="28px" height="28px" viewBox="0 0 28 25" version="1.1">
<g id="surface1">
<path style="fill-rule:nonzero;fill:rgb(92.941176%,41.176471%,36.078431%);fill-opacity:1;stroke-width:0.14;stroke-linecap:butt;stroke-linejoin:miter;stroke:rgb(92.941176%,41.176471%,36.078431%);stroke-opacity:1;stroke-miterlimit:22.9256;" d="M 34.607298 38.847004 C 21.388953 46.86739 4.482392 37.537553 3.991079 22.267447 C 5.767883 23.610998 5.996714 23.958821 6.521679 23.651918 C 6.918768 23.399576 6.959149 22.819871 6.582252 22.540249 C 3.338238 20.098669 3.627642 20.20779 3.351699 20.20097 C 2.920958 20.18051 2.860385 20.378291 0.302864 22.717571 C -0.302864 23.269995 0.410549 24.211163 1.097042 23.788319 C 1.177806 23.740579 1.076851 23.82924 2.651746 22.390208 C 3.230553 38.847004 21.348571 48.470103 35.307251 40.013233 C 36.067777 39.549469 35.367824 38.39688 34.607298 38.860644 Z M 34.607298 38.847004 " transform="matrix(0.580396,0,0,0.572759,0,0.0000209265)"/>
<path style="fill-rule:nonzero;fill:rgb(92.941176%,41.176471%,36.078431%);fill-opacity:1;stroke-width:0.14;stroke-linecap:butt;stroke-linejoin:miter;stroke:rgb(92.941176%,41.176471%,36.078431%);stroke-opacity:1;stroke-miterlimit:22.9256;" d="M 48.041014 19.539424 C 47.428555 18.877879 46.822827 19.750846 45.651751 20.821595 C 45.072944 4.351159 26.941465 -5.25148 12.989515 3.19857 C 12.228989 3.662334 12.928942 4.808103 13.689468 4.351159 C 26.907814 -3.669227 43.821104 5.66061 44.312418 20.930716 L 42.528883 19.587165 C 41.8222 19.062021 41.007831 20.132769 41.721245 20.657914 C 44.709507 22.908532 44.871034 23.338196 45.470033 22.799411 C 45.510414 22.758491 47.919869 20.548793 48.000632 20.480592 C 48.269845 20.22825 48.290036 19.798587 48.041014 19.532604 Z M 48.041014 19.539424 " transform="matrix(0.580396,0,0,0.572759,0,0.0000209265)"/>
<path style=" stroke:none;fill-rule:nonzero;fill:rgb(92.941176%,41.176471%,36.078431%);fill-opacity:1;" d="M 20.953125 17.207031 C 19.894531 18.675781 17.851562 19.53125 16.402344 18.515625 C 16.175781 18.355469 16.167969 18.183594 16.261719 17.578125 C 16.488281 16.152344 16.332031 15.148438 15.730469 14.246094 C 16.40625 13.632812 16.710938 12.714844 16.511719 11.816406 C 17.910156 11.550781 19.6875 11.84375 20.679688 12.53125 C 21.335938 12.988281 21.710938 13.730469 21.753906 14.617188 C 21.792969 15.488281 21.496094 16.433594 20.945312 17.199219 Z M 14.011719 14.019531 C 13.089844 14.019531 12.339844 13.28125 12.339844 12.371094 C 12.339844 11.460938 13.089844 10.722656 14.011719 10.722656 C 14.933594 10.722656 15.683594 11.460938 15.683594 12.371094 C 15.683594 13.292969 14.921875 14.019531 14.011719 14.019531 Z M 10.898438 18.203125 C 9.292969 18.929688 7.441406 17.738281 6.667969 16.089844 C 5.710938 14.03125 6.507812 12.132812 7.800781 11.546875 C 8.054688 11.433594 8.207031 11.511719 8.675781 11.890625 L 8.6875 11.902344 C 9.722656 12.726562 10.605469 13.105469 11.5625 13.128906 C 11.859375 14.050781 12.671875 14.75 13.664062 14.878906 C 13.191406 16.335938 11.910156 17.742188 10.898438 18.203125 Z M 11.46875 10.210938 C 10.785156 9.261719 10.320312 8.046875 10.320312 7.195312 C 10.320312 5.589844 11.984375 4.285156 14.027344 4.285156 C 16.320312 4.285156 17.738281 5.796875 17.738281 7.195312 C 17.738281 7.46875 17.597656 7.570312 17.039062 7.847656 C 15.84375 8.429688 15.125 9.074219 14.703125 9.933594 C 14.480469 9.867188 14.25 9.839844 14.011719 9.839844 C 13.179688 9.839844 12.445312 10.230469 11.972656 10.832031 C 11.800781 10.648438 11.625 10.441406 11.460938 10.210938 Z M 21.203125 11.816406 C 19.953125 10.945312 17.851562 10.613281 16.164062 10.992188 C 15.988281 10.726562 15.769531 10.5 15.515625 10.316406 C 15.851562 9.632812 16.429688 9.128906 17.441406 8.636719 C 17.96875 8.378906 18.636719 8.054688 18.636719 7.195312 C 18.636719 4.851562 16.246094 3.402344 14.035156 3.402344 C 11.496094 3.402344 9.429688 5.101562 9.429688 7.195312 C 9.429688 8.234375 9.949219 9.617188 10.742188 10.722656 C 11 11.078125 11.269531 11.386719 11.554688 11.65625 C 11.496094 11.839844 11.460938 12.039062 11.457031 12.238281 C 10.75 12.1875 10.082031 11.875 9.257812 11.214844 L 9.246094 11.207031 C 8.789062 10.84375 8.21875 10.390625 7.429688 10.75 C 5.269531 11.730469 4.933594 14.480469 5.863281 16.460938 C 6.835938 18.558594 9.207031 19.945312 11.277344 19.003906 C 12.734375 18.339844 14.171875 16.519531 14.609375 14.835938 C 14.742188 14.804688 14.863281 14.765625 14.984375 14.714844 C 15.410156 15.332031 15.601562 16.078125 15.386719 17.441406 C 15.292969 18.019531 15.183594 18.742188 15.890625 19.234375 C 17.777344 20.542969 20.359375 19.558594 21.683594 17.710938 C 22.34375 16.78125 22.699219 15.640625 22.652344 14.578125 C 22.601562 13.410156 22.085938 12.429688 21.203125 11.808594 Z M 21.203125 11.816406 "/>
</g>
</svg>
