<?xml version="1.0" encoding="UTF-8"?>
<svg xmlns="http://www.w3.org/2000/svg" xmlns:xlink="http://www.w3.org/1999/xlink" width="28px" height="28px" viewBox="0 0 28 28" version="1.1">
<g id="surface1">
<path style="fill-rule:nonzero;fill:rgb(92.941176%,41.176471%,36.078431%);fill-opacity:1;stroke-width:0.14;stroke-linecap:butt;stroke-linejoin:miter;stroke:rgb(92.941176%,41.176471%,36.078431%);stroke-opacity:1;stroke-miterlimit:22.9256;" d="M 34.607298 38.847018 C 21.388953 46.867407 4.482392 37.537567 3.991079 22.267455 C 5.767883 23.611007 5.996714 23.95883 6.521679 23.651927 C 6.918768 23.399585 6.959149 22.81988 6.582252 22.540257 C 3.338238 20.098676 3.627642 20.207797 3.351699 20.200977 C 2.920958 20.180517 2.860385 20.378299 0.302864 22.717579 C -0.302864 23.270004 0.410549 24.211172 1.097042 23.788328 C 1.177806 23.740588 1.076851 23.829249 2.651746 22.390216 C 3.230553 38.847018 21.348571 48.470121 35.307251 40.013248 C 36.067777 39.549484 35.367824 38.396894 34.607298 38.860658 Z M 34.607298 38.847018 " transform="matrix(0.580396,0,0,0.572759,0,1.500021)"/>
<path style="fill-rule:nonzero;fill:rgb(92.941176%,41.176471%,36.078431%);fill-opacity:1;stroke-width:0.14;stroke-linecap:butt;stroke-linejoin:miter;stroke:rgb(92.941176%,41.176471%,36.078431%);stroke-opacity:1;stroke-miterlimit:22.9256;" d="M 48.041014 19.539432 C 47.428555 18.877886 46.822827 19.750853 45.651751 20.821603 C 45.072944 4.351161 26.941465 -5.251482 12.989515 3.198571 C 12.228989 3.662335 12.928942 4.808105 13.689468 4.351161 C 26.907814 -3.669228 43.821104 5.660612 44.312418 20.930724 L 42.528883 19.587172 C 41.8222 19.062028 41.007831 20.132777 41.721245 20.657921 C 44.709507 22.908541 44.871034 23.338204 45.470033 22.79942 C 45.510414 22.758499 47.919869 20.5488 48.000632 20.4806 C 48.269845 20.228258 48.290036 19.798594 48.041014 19.532612 Z M 48.041014 19.539432 " transform="matrix(0.580396,0,0,0.572759,0,1.500021)"/>
<path style=" stroke:none;fill-rule:nonzero;fill:rgb(92.941176%,41.176471%,36.078431%);fill-opacity:1;" d="M 20.953125 18.707031 C 19.894531 20.175781 17.851562 21.03125 16.402344 20.015625 C 16.175781 19.855469 16.167969 19.683594 16.261719 19.078125 C 16.488281 17.652344 16.332031 16.648438 15.730469 15.746094 C 16.40625 15.132812 16.710938 14.214844 16.511719 13.316406 C 17.910156 13.050781 19.6875 13.34375 20.679688 14.03125 C 21.335938 14.488281 21.710938 15.230469 21.753906 16.117188 C 21.792969 16.988281 21.496094 17.933594 20.945312 18.699219 Z M 14.011719 15.519531 C 13.089844 15.519531 12.339844 14.78125 12.339844 13.871094 C 12.339844 12.960938 13.089844 12.222656 14.011719 12.222656 C 14.933594 12.222656 15.683594 12.960938 15.683594 13.871094 C 15.683594 14.792969 14.921875 15.519531 14.011719 15.519531 Z M 10.898438 19.703125 C 9.292969 20.429688 7.441406 19.238281 6.667969 17.589844 C 5.710938 15.53125 6.507812 13.632812 7.800781 13.046875 C 8.054688 12.933594 8.207031 13.011719 8.675781 13.390625 L 8.6875 13.402344 C 9.722656 14.226562 10.605469 14.605469 11.5625 14.628906 C 11.859375 15.550781 12.671875 16.25 13.664062 16.378906 C 13.191406 17.835938 11.910156 19.242188 10.898438 19.703125 Z M 11.46875 11.710938 C 10.785156 10.761719 10.320312 9.546875 10.320312 8.695312 C 10.320312 7.089844 11.984375 5.785156 14.027344 5.785156 C 16.320312 5.785156 17.738281 7.296875 17.738281 8.695312 C 17.738281 8.96875 17.597656 9.070312 17.039062 9.347656 C 15.84375 9.929688 15.125 10.574219 14.703125 11.433594 C 14.480469 11.367188 14.25 11.339844 14.011719 11.339844 C 13.179688 11.339844 12.445312 11.730469 11.972656 12.332031 C 11.800781 12.148438 11.625 11.941406 11.460938 11.710938 Z M 21.203125 13.316406 C 19.953125 12.445312 17.851562 12.113281 16.164062 12.492188 C 15.988281 12.226562 15.769531 12 15.515625 11.816406 C 15.851562 11.132812 16.429688 10.628906 17.441406 10.136719 C 17.96875 9.878906 18.636719 9.554688 18.636719 8.695312 C 18.636719 6.351562 16.246094 4.902344 14.035156 4.902344 C 11.496094 4.902344 9.429688 6.601562 9.429688 8.695312 C 9.429688 9.734375 9.949219 11.117188 10.742188 12.222656 C 11 12.578125 11.269531 12.886719 11.554688 13.15625 C 11.496094 13.339844 11.460938 13.539062 11.457031 13.738281 C 10.75 13.6875 10.082031 13.375 9.257812 12.714844 L 9.246094 12.707031 C 8.789062 12.34375 8.21875 11.890625 7.429688 12.25 C 5.269531 13.230469 4.933594 15.980469 5.863281 17.960938 C 6.835938 20.058594 9.207031 21.445312 11.277344 20.503906 C 12.734375 19.839844 14.171875 18.019531 14.609375 16.335938 C 14.742188 16.304688 14.863281 16.265625 14.984375 16.214844 C 15.410156 16.832031 15.601562 17.578125 15.386719 18.941406 C 15.292969 19.519531 15.183594 20.242188 15.890625 20.734375 C 17.777344 22.042969 20.359375 21.058594 21.683594 19.210938 C 22.34375 18.28125 22.699219 17.140625 22.652344 16.078125 C 22.601562 14.910156 22.085938 13.929688 21.203125 13.308594 Z M 21.203125 13.316406 "/>
</g>
</svg>
