<?xml version="1.0" encoding="UTF-8"?>
<svg xmlns="http://www.w3.org/2000/svg" xmlns:xlink="http://www.w3.org/1999/xlink" width="28px" height="28px" viewBox="0 0 28 17" version="1.1">
<g id="surface1">
<path style=" stroke:none;fill-rule:nonzero;fill:rgb(92.941176%,41.176471%,36.078431%);fill-opacity:1;" d="M 26.03125 0 L 6.660156 0 C 6.429688 0 6.246094 0.183594 6.246094 0.410156 C 6.246094 0.636719 6.429688 0.820312 6.660156 0.820312 L 26.03125 0.820312 C 26.660156 0.820312 27.175781 1.332031 27.175781 1.957031 L 27.175781 10.648438 C 27.175781 11.273438 26.660156 11.785156 26.03125 11.785156 L 25.046875 11.785156 L 25.046875 9.125 C 25.046875 8.898438 24.859375 8.714844 24.632812 8.714844 L 3.359375 8.714844 C 3.132812 8.714844 2.949219 8.898438 2.949219 9.125 L 2.949219 11.785156 L 1.964844 11.785156 C 1.332031 11.785156 0.820312 11.273438 0.820312 10.648438 L 0.820312 1.957031 C 0.820312 1.332031 1.332031 0.820312 1.964844 0.820312 L 5.007812 0.820312 C 5.234375 0.820312 5.421875 0.636719 5.421875 0.410156 C 5.421875 0.183594 5.234375 0 5.007812 0 L 1.964844 0 C 0.878906 0 -0.00390625 0.878906 -0.00390625 1.957031 L -0.00390625 10.648438 C -0.00390625 11.726562 0.878906 12.605469 1.964844 12.605469 L 6.242188 12.605469 C 6.46875 12.605469 6.652344 12.421875 6.652344 12.195312 C 6.652344 11.96875 6.46875 11.785156 6.242188 11.785156 L 3.769531 11.785156 L 3.769531 11.0625 L 20.101562 11.0625 C 20.332031 11.0625 20.515625 10.878906 20.515625 10.652344 C 20.515625 10.429688 20.332031 10.242188 20.101562 10.242188 L 3.769531 10.242188 L 3.769531 9.523438 L 24.222656 9.523438 L 24.222656 10.242188 L 21.75 10.242188 C 21.519531 10.242188 21.335938 10.429688 21.335938 10.652344 C 21.335938 10.878906 21.519531 11.0625 21.75 11.0625 L 24.222656 11.0625 L 24.222656 11.785156 L 7.886719 11.785156 C 7.660156 11.785156 7.472656 11.96875 7.472656 12.195312 C 7.472656 12.421875 7.660156 12.605469 7.886719 12.605469 L 26.027344 12.605469 C 27.109375 12.605469 27.996094 11.726562 27.996094 10.648438 L 27.996094 1.957031 C 27.996094 0.878906 27.109375 0 26.027344 0 Z M 26.03125 0 "/>
<path style=" stroke:none;fill-rule:nonzero;fill:rgb(92.941176%,41.176471%,36.078431%);fill-opacity:1;" d="M 24.640625 3.320312 C 24.867188 3.320312 25.050781 3.132812 25.050781 2.910156 C 25.050781 2.683594 24.867188 2.5 24.640625 2.5 L 23.421875 2.5 C 23.195312 2.5 23.007812 2.683594 23.007812 2.910156 C 23.007812 3.132812 23.195312 3.320312 23.421875 3.320312 Z M 24.640625 3.320312 "/>
<path style=" stroke:none;fill-rule:nonzero;fill:rgb(92.941176%,41.176471%,36.078431%);fill-opacity:1;" d="M 21.546875 3.320312 C 21.777344 3.320312 21.960938 3.132812 21.960938 2.910156 C 21.960938 2.683594 21.777344 2.5 21.546875 2.5 L 13.765625 2.5 C 13.539062 2.5 13.355469 2.683594 13.355469 2.910156 C 13.355469 3.132812 13.539062 3.320312 13.765625 3.320312 Z M 21.546875 3.320312 "/>
<path style=" stroke:none;fill-rule:nonzero;fill:rgb(92.941176%,41.176471%,36.078431%);fill-opacity:1;" d="M 7.734375 13.699219 C 7.503906 13.699219 7.320312 13.882812 7.320312 14.109375 C 7.320312 14.121094 7.308594 15.335938 6.167969 16.140625 C 5.980469 16.269531 5.9375 16.523438 6.070312 16.707031 C 6.152344 16.816406 6.277344 16.878906 6.40625 16.878906 C 6.488281 16.878906 6.570312 16.855469 6.644531 16.808594 C 8.125 15.761719 8.140625 14.175781 8.140625 14.113281 C 8.140625 13.886719 7.957031 13.703125 7.726562 13.703125 Z M 7.734375 13.699219 "/>
<path style=" stroke:none;fill-rule:nonzero;fill:rgb(92.941176%,41.176471%,36.078431%);fill-opacity:1;" d="M 10.675781 13.699219 C 10.449219 13.699219 10.261719 13.882812 10.261719 14.109375 L 10.261719 16.46875 C 10.261719 16.695312 10.449219 16.878906 10.675781 16.878906 C 10.902344 16.878906 11.089844 16.695312 11.089844 16.46875 L 11.089844 14.109375 C 11.089844 13.882812 10.902344 13.699219 10.675781 13.699219 Z M 10.675781 13.699219 "/>
<path style=" stroke:none;fill-rule:nonzero;fill:rgb(92.941176%,41.176471%,36.078431%);fill-opacity:1;" d="M 14.117188 13.699219 C 13.890625 13.699219 13.703125 13.882812 13.703125 14.109375 L 13.703125 16.46875 C 13.703125 16.695312 13.890625 16.878906 14.117188 16.878906 C 14.34375 16.878906 14.53125 16.695312 14.53125 16.46875 L 14.53125 14.109375 C 14.53125 13.882812 14.34375 13.699219 14.117188 13.699219 Z M 14.117188 13.699219 "/>
<path style=" stroke:none;fill-rule:nonzero;fill:rgb(92.941176%,41.176471%,36.078431%);fill-opacity:1;" d="M 21.832031 16.132812 C 20.707031 15.339844 20.679688 14.15625 20.679688 14.105469 C 20.679688 13.878906 20.496094 13.699219 20.265625 13.699219 C 20.039062 13.699219 19.855469 13.882812 19.855469 14.109375 C 19.855469 14.175781 19.871094 15.753906 21.351562 16.800781 C 21.425781 16.855469 21.503906 16.875 21.589844 16.875 C 21.71875 16.875 21.84375 16.816406 21.921875 16.703125 C 22.054688 16.519531 22.011719 16.265625 21.828125 16.132812 Z M 21.832031 16.132812 "/>
<path style=" stroke:none;fill-rule:nonzero;fill:rgb(92.941176%,41.176471%,36.078431%);fill-opacity:1;" d="M 17.324219 13.699219 C 17.097656 13.699219 16.910156 13.882812 16.910156 14.109375 L 16.910156 16.46875 C 16.910156 16.695312 17.097656 16.878906 17.324219 16.878906 C 17.550781 16.878906 17.738281 16.695312 17.738281 16.46875 L 17.738281 14.109375 C 17.738281 13.882812 17.550781 13.699219 17.324219 13.699219 Z M 17.324219 13.699219 "/>
</g>
</svg>
