<?xml version="1.0" encoding="UTF-8"?>
<svg xmlns="http://www.w3.org/2000/svg" xmlns:xlink="http://www.w3.org/1999/xlink" width="28px" height="28px" viewBox="0 0 28 28" version="1.1">
<g id="surface1">
<path style=" stroke:none;fill-rule:nonzero;fill:rgb(92.941176%,41.176471%,36.078431%);fill-opacity:1;" d="M 26.03125 5.5 L 6.660156 5.5 C 6.429688 5.5 6.246094 5.683594 6.246094 5.910156 C 6.246094 6.136719 6.429688 6.320312 6.660156 6.320312 L 26.03125 6.320312 C 26.660156 6.320312 27.175781 6.832031 27.175781 7.457031 L 27.175781 16.148438 C 27.175781 16.773438 26.660156 17.285156 26.03125 17.285156 L 25.046875 17.285156 L 25.046875 14.625 C 25.046875 14.398438 24.859375 14.214844 24.632812 14.214844 L 3.359375 14.214844 C 3.132812 14.214844 2.949219 14.398438 2.949219 14.625 L 2.949219 17.285156 L 1.964844 17.285156 C 1.332031 17.285156 0.820312 16.773438 0.820312 16.148438 L 0.820312 7.457031 C 0.820312 6.832031 1.332031 6.320312 1.964844 6.320312 L 5.007812 6.320312 C 5.234375 6.320312 5.421875 6.136719 5.421875 5.910156 C 5.421875 5.683594 5.234375 5.5 5.007812 5.5 L 1.964844 5.5 C 0.878906 5.5 -0.00390625 6.378906 -0.00390625 7.457031 L -0.00390625 16.148438 C -0.00390625 17.226562 0.878906 18.105469 1.964844 18.105469 L 6.242188 18.105469 C 6.46875 18.105469 6.652344 17.921875 6.652344 17.695312 C 6.652344 17.46875 6.46875 17.285156 6.242188 17.285156 L 3.769531 17.285156 L 3.769531 16.5625 L 20.101562 16.5625 C 20.332031 16.5625 20.515625 16.378906 20.515625 16.152344 C 20.515625 15.929688 20.332031 15.742188 20.101562 15.742188 L 3.769531 15.742188 L 3.769531 15.023438 L 24.222656 15.023438 L 24.222656 15.742188 L 21.75 15.742188 C 21.519531 15.742188 21.335938 15.929688 21.335938 16.152344 C 21.335938 16.378906 21.519531 16.5625 21.75 16.5625 L 24.222656 16.5625 L 24.222656 17.285156 L 7.886719 17.285156 C 7.660156 17.285156 7.472656 17.46875 7.472656 17.695312 C 7.472656 17.921875 7.660156 18.105469 7.886719 18.105469 L 26.027344 18.105469 C 27.109375 18.105469 27.996094 17.226562 27.996094 16.148438 L 27.996094 7.457031 C 27.996094 6.378906 27.109375 5.5 26.027344 5.5 Z M 26.03125 5.5 "/>
<path style=" stroke:none;fill-rule:nonzero;fill:rgb(92.941176%,41.176471%,36.078431%);fill-opacity:1;" d="M 24.640625 8.820312 C 24.867188 8.820312 25.050781 8.632812 25.050781 8.410156 C 25.050781 8.183594 24.867188 8 24.640625 8 L 23.421875 8 C 23.195312 8 23.007812 8.183594 23.007812 8.410156 C 23.007812 8.632812 23.195312 8.820312 23.421875 8.820312 Z M 24.640625 8.820312 "/>
<path style=" stroke:none;fill-rule:nonzero;fill:rgb(92.941176%,41.176471%,36.078431%);fill-opacity:1;" d="M 21.546875 8.820312 C 21.777344 8.820312 21.960938 8.632812 21.960938 8.410156 C 21.960938 8.183594 21.777344 8 21.546875 8 L 13.765625 8 C 13.539062 8 13.355469 8.183594 13.355469 8.410156 C 13.355469 8.632812 13.539062 8.820312 13.765625 8.820312 Z M 21.546875 8.820312 "/>
<path style=" stroke:none;fill-rule:nonzero;fill:rgb(92.941176%,41.176471%,36.078431%);fill-opacity:1;" d="M 7.734375 19.199219 C 7.503906 19.199219 7.320312 19.382812 7.320312 19.609375 C 7.320312 19.621094 7.308594 20.835938 6.167969 21.640625 C 5.980469 21.769531 5.9375 22.023438 6.070312 22.207031 C 6.152344 22.316406 6.277344 22.378906 6.40625 22.378906 C 6.488281 22.378906 6.570312 22.355469 6.644531 22.308594 C 8.125 21.261719 8.140625 19.675781 8.140625 19.613281 C 8.140625 19.386719 7.957031 19.203125 7.726562 19.203125 Z M 7.734375 19.199219 "/>
<path style=" stroke:none;fill-rule:nonzero;fill:rgb(92.941176%,41.176471%,36.078431%);fill-opacity:1;" d="M 10.675781 19.199219 C 10.449219 19.199219 10.261719 19.382812 10.261719 19.609375 L 10.261719 21.96875 C 10.261719 22.195312 10.449219 22.378906 10.675781 22.378906 C 10.902344 22.378906 11.089844 22.195312 11.089844 21.96875 L 11.089844 19.609375 C 11.089844 19.382812 10.902344 19.199219 10.675781 19.199219 Z M 10.675781 19.199219 "/>
<path style=" stroke:none;fill-rule:nonzero;fill:rgb(92.941176%,41.176471%,36.078431%);fill-opacity:1;" d="M 14.117188 19.199219 C 13.890625 19.199219 13.703125 19.382812 13.703125 19.609375 L 13.703125 21.96875 C 13.703125 22.195312 13.890625 22.378906 14.117188 22.378906 C 14.34375 22.378906 14.53125 22.195312 14.53125 21.96875 L 14.53125 19.609375 C 14.53125 19.382812 14.34375 19.199219 14.117188 19.199219 Z M 14.117188 19.199219 "/>
<path style=" stroke:none;fill-rule:nonzero;fill:rgb(92.941176%,41.176471%,36.078431%);fill-opacity:1;" d="M 21.832031 21.632812 C 20.707031 20.839844 20.679688 19.65625 20.679688 19.605469 C 20.679688 19.378906 20.496094 19.199219 20.265625 19.199219 C 20.039062 19.199219 19.855469 19.382812 19.855469 19.609375 C 19.855469 19.675781 19.871094 21.253906 21.351562 22.300781 C 21.425781 22.355469 21.503906 22.375 21.589844 22.375 C 21.71875 22.375 21.84375 22.316406 21.921875 22.203125 C 22.054688 22.019531 22.011719 21.765625 21.828125 21.632812 Z M 21.832031 21.632812 "/>
<path style=" stroke:none;fill-rule:nonzero;fill:rgb(92.941176%,41.176471%,36.078431%);fill-opacity:1;" d="M 17.324219 19.199219 C 17.097656 19.199219 16.910156 19.382812 16.910156 19.609375 L 16.910156 21.96875 C 16.910156 22.195312 17.097656 22.378906 17.324219 22.378906 C 17.550781 22.378906 17.738281 22.195312 17.738281 21.96875 L 17.738281 19.609375 C 17.738281 19.382812 17.550781 19.199219 17.324219 19.199219 Z M 17.324219 19.199219 "/>
</g>
</svg>
