<?xml version="1.0" encoding="UTF-8"?>
<svg xmlns="http://www.w3.org/2000/svg" xmlns:xlink="http://www.w3.org/1999/xlink" width="28px" height="28px" viewBox="0 0 28 24" version="1.1">
<g id="surface1">
<path style=" stroke:none;fill-rule:nonzero;fill:rgb(92.941176%,41.176471%,36.078431%);fill-opacity:1;" d="M 21.300781 10.828125 L 5.449219 10.828125 C 5.261719 10.828125 5.113281 10.972656 5.113281 11.152344 C 5.113281 11.332031 5.261719 11.476562 5.449219 11.476562 L 21.300781 11.476562 C 21.820312 11.476562 22.238281 11.878906 22.238281 12.382812 L 22.238281 19.308594 C 22.238281 19.808594 21.820312 20.214844 21.300781 20.214844 L 20.496094 20.214844 L 20.496094 18.09375 C 20.496094 17.914062 20.347656 17.769531 20.160156 17.769531 L 2.753906 17.769531 C 2.566406 17.769531 2.417969 17.914062 2.417969 18.09375 L 2.417969 20.214844 L 1.613281 20.214844 C 1.09375 20.214844 0.671875 19.808594 0.671875 19.308594 L 0.671875 12.382812 C 0.671875 11.878906 1.09375 11.476562 1.613281 11.476562 L 4.101562 11.476562 C 4.289062 11.476562 4.4375 11.332031 4.4375 11.152344 C 4.4375 10.972656 4.289062 10.828125 4.101562 10.828125 L 1.613281 10.828125 C 0.722656 10.828125 0 11.523438 0 12.386719 L 0 19.308594 C 0 20.167969 0.722656 20.867188 1.613281 20.867188 L 5.113281 20.867188 C 5.300781 20.867188 5.449219 20.722656 5.449219 20.542969 C 5.449219 20.363281 5.300781 20.21875 5.113281 20.21875 L 3.089844 20.21875 L 3.089844 19.648438 L 16.457031 19.648438 C 16.640625 19.648438 16.789062 19.503906 16.789062 19.324219 C 16.789062 19.144531 16.640625 19 16.457031 19 L 3.089844 19 L 3.089844 18.425781 L 19.824219 18.425781 L 19.824219 19 L 17.800781 19 C 17.617188 19 17.464844 19.144531 17.464844 19.324219 C 17.464844 19.503906 17.617188 19.648438 17.800781 19.648438 L 19.824219 19.648438 L 19.824219 20.21875 L 6.460938 20.21875 C 6.273438 20.21875 6.125 20.363281 6.125 20.542969 C 6.125 20.722656 6.273438 20.867188 6.460938 20.867188 L 21.304688 20.867188 C 22.191406 20.867188 22.914062 20.171875 22.914062 19.308594 L 22.914062 12.386719 C 22.914062 11.527344 22.195312 10.828125 21.304688 10.828125 Z M 21.300781 10.828125 "/>
<path style=" stroke:none;fill-rule:nonzero;fill:rgb(92.941176%,41.176471%,36.078431%);fill-opacity:1;" d="M 20.15625 13.472656 C 20.34375 13.472656 20.492188 13.328125 20.492188 13.148438 C 20.492188 12.96875 20.34375 12.824219 20.15625 12.824219 L 19.164062 12.824219 C 18.976562 12.824219 18.828125 12.96875 18.828125 13.148438 C 18.828125 13.328125 18.976562 13.472656 19.164062 13.472656 Z M 20.15625 13.472656 "/>
<path style=" stroke:none;fill-rule:nonzero;fill:rgb(92.941176%,41.176471%,36.078431%);fill-opacity:1;" d="M 17.628906 13.472656 C 17.816406 13.472656 17.964844 13.328125 17.964844 13.148438 C 17.964844 12.96875 17.816406 12.824219 17.628906 12.824219 L 11.261719 12.824219 C 11.078125 12.824219 10.929688 12.96875 10.929688 13.148438 C 10.929688 13.328125 11.078125 13.472656 11.261719 13.472656 Z M 17.628906 13.472656 "/>
<path style=" stroke:none;fill-rule:nonzero;fill:rgb(92.941176%,41.176471%,36.078431%);fill-opacity:1;" d="M 6.328125 21.738281 C 6.140625 21.738281 5.992188 21.882812 5.992188 22.0625 C 5.992188 22.074219 5.980469 23.035156 5.046875 23.675781 C 4.894531 23.78125 4.863281 23.984375 4.96875 24.128906 C 5.035156 24.21875 5.140625 24.265625 5.242188 24.265625 C 5.308594 24.265625 5.378906 24.246094 5.4375 24.207031 C 6.652344 23.371094 6.664062 22.113281 6.664062 22.0625 C 6.664062 21.882812 6.511719 21.738281 6.328125 21.738281 Z M 6.328125 21.738281 "/>
<path style=" stroke:none;fill-rule:nonzero;fill:rgb(92.941176%,41.176471%,36.078431%);fill-opacity:1;" d="M 8.734375 21.738281 C 8.546875 21.738281 8.398438 21.882812 8.398438 22.0625 L 8.398438 23.941406 C 8.398438 24.121094 8.546875 24.265625 8.734375 24.265625 C 8.917969 24.265625 9.070312 24.121094 9.070312 23.941406 L 9.070312 22.0625 C 9.070312 21.882812 8.917969 21.738281 8.734375 21.738281 Z M 8.734375 21.738281 "/>
<path style=" stroke:none;fill-rule:nonzero;fill:rgb(92.941176%,41.176471%,36.078431%);fill-opacity:1;" d="M 11.550781 21.738281 C 11.363281 21.738281 11.214844 21.882812 11.214844 22.0625 L 11.214844 23.941406 C 11.214844 24.121094 11.363281 24.265625 11.550781 24.265625 C 11.738281 24.265625 11.886719 24.121094 11.886719 23.941406 L 11.886719 22.0625 C 11.886719 21.882812 11.738281 21.738281 11.550781 21.738281 Z M 11.550781 21.738281 "/>
<path style=" stroke:none;fill-rule:nonzero;fill:rgb(92.941176%,41.176471%,36.078431%);fill-opacity:1;" d="M 17.863281 23.675781 C 16.941406 23.046875 16.921875 22.105469 16.921875 22.0625 C 16.921875 21.882812 16.769531 21.738281 16.585938 21.738281 C 16.398438 21.738281 16.25 21.882812 16.25 22.0625 C 16.25 22.117188 16.265625 23.371094 17.476562 24.207031 C 17.535156 24.246094 17.601562 24.265625 17.667969 24.265625 C 17.773438 24.265625 17.878906 24.214844 17.941406 24.128906 C 18.050781 23.980469 18.015625 23.78125 17.863281 23.675781 Z M 17.863281 23.675781 "/>
<path style=" stroke:none;fill-rule:nonzero;fill:rgb(92.941176%,41.176471%,36.078431%);fill-opacity:1;" d="M 14.175781 21.738281 C 13.992188 21.738281 13.839844 21.882812 13.839844 22.0625 L 13.839844 23.941406 C 13.839844 24.121094 13.992188 24.265625 14.175781 24.265625 C 14.363281 24.265625 14.511719 24.121094 14.511719 23.941406 L 14.511719 22.0625 C 14.511719 21.882812 14.363281 21.738281 14.175781 21.738281 Z M 14.175781 21.738281 "/>
<path style=" stroke:none;fill-rule:nonzero;fill:rgb(92.941176%,41.176471%,36.078431%);fill-opacity:1;" d="M 20.660156 8.484375 L 20.660156 3.796875 L 22.015625 3.796875 L 22.015625 8.484375 Z M 18.847656 6.757812 L 18.847656 5.523438 L 23.835938 5.523438 L 23.835938 6.757812 Z M 18.847656 6.757812 "/>
<path style=" stroke:none;fill-rule:nonzero;fill:rgb(92.941176%,41.176471%,36.078431%);fill-opacity:1;" d="M 14.851562 3.480469 C 14.019531 4.867188 13.710938 6.488281 13.972656 8.074219 C 14 8.246094 14.171875 8.367188 14.351562 8.339844 C 14.527344 8.3125 14.652344 8.148438 14.625 7.972656 C 14.125 4.929688 15.960938 1.984375 18.972656 0.984375 C 21.988281 -0.015625 25.308594 1.21875 26.84375 3.921875 C 28.382812 6.617188 27.695312 9.992188 25.214844 11.925781 C 25.121094 11.996094 25.074219 12.109375 25.09375 12.222656 C 25.109375 12.332031 25.1875 12.429688 25.296875 12.46875 C 25.410156 12.511719 25.53125 12.492188 25.625 12.417969 C 27.882812 10.660156 28.835938 7.769531 28.042969 5.074219 C 27.25 2.378906 24.871094 0.402344 21.992188 0.0546875 C 19.121094 -0.292969 16.308594 1.058594 14.855469 3.480469 Z M 14.851562 3.480469 "/>
</g>
</svg>
