<?xml version="1.0" encoding="UTF-8"?>
<svg xmlns="http://www.w3.org/2000/svg" xmlns:xlink="http://www.w3.org/1999/xlink" width="28px" height="28px" viewBox="0 0 28 28" version="1.1">
<g id="surface1">
<path style=" stroke:none;fill-rule:nonzero;fill:rgb(92.941176%,41.176471%,36.078431%);fill-opacity:1;" d="M 21.300781 12.828125 L 5.449219 12.828125 C 5.261719 12.828125 5.113281 12.972656 5.113281 13.152344 C 5.113281 13.332031 5.261719 13.476562 5.449219 13.476562 L 21.300781 13.476562 C 21.820312 13.476562 22.238281 13.878906 22.238281 14.382812 L 22.238281 21.308594 C 22.238281 21.808594 21.820312 22.214844 21.300781 22.214844 L 20.496094 22.214844 L 20.496094 20.09375 C 20.496094 19.914062 20.347656 19.769531 20.160156 19.769531 L 2.753906 19.769531 C 2.566406 19.769531 2.417969 19.914062 2.417969 20.09375 L 2.417969 22.214844 L 1.613281 22.214844 C 1.09375 22.214844 0.671875 21.808594 0.671875 21.308594 L 0.671875 14.382812 C 0.671875 13.878906 1.09375 13.476562 1.613281 13.476562 L 4.101562 13.476562 C 4.289062 13.476562 4.4375 13.332031 4.4375 13.152344 C 4.4375 12.972656 4.289062 12.828125 4.101562 12.828125 L 1.613281 12.828125 C 0.722656 12.828125 0 13.523438 0 14.386719 L 0 21.308594 C 0 22.167969 0.722656 22.867188 1.613281 22.867188 L 5.113281 22.867188 C 5.300781 22.867188 5.449219 22.722656 5.449219 22.542969 C 5.449219 22.363281 5.300781 22.21875 5.113281 22.21875 L 3.089844 22.21875 L 3.089844 21.648438 L 16.457031 21.648438 C 16.640625 21.648438 16.789062 21.503906 16.789062 21.324219 C 16.789062 21.144531 16.640625 21 16.457031 21 L 3.089844 21 L 3.089844 20.425781 L 19.824219 20.425781 L 19.824219 21 L 17.800781 21 C 17.617188 21 17.464844 21.144531 17.464844 21.324219 C 17.464844 21.503906 17.617188 21.648438 17.800781 21.648438 L 19.824219 21.648438 L 19.824219 22.21875 L 6.460938 22.21875 C 6.273438 22.21875 6.125 22.363281 6.125 22.542969 C 6.125 22.722656 6.273438 22.867188 6.460938 22.867188 L 21.304688 22.867188 C 22.191406 22.867188 22.914062 22.171875 22.914062 21.308594 L 22.914062 14.386719 C 22.914062 13.527344 22.195312 12.828125 21.304688 12.828125 Z M 21.300781 12.828125 "/>
<path style=" stroke:none;fill-rule:nonzero;fill:rgb(92.941176%,41.176471%,36.078431%);fill-opacity:1;" d="M 20.15625 15.472656 C 20.34375 15.472656 20.492188 15.328125 20.492188 15.148438 C 20.492188 14.96875 20.34375 14.824219 20.15625 14.824219 L 19.164062 14.824219 C 18.976562 14.824219 18.828125 14.96875 18.828125 15.148438 C 18.828125 15.328125 18.976562 15.472656 19.164062 15.472656 Z M 20.15625 15.472656 "/>
<path style=" stroke:none;fill-rule:nonzero;fill:rgb(92.941176%,41.176471%,36.078431%);fill-opacity:1;" d="M 17.628906 15.472656 C 17.816406 15.472656 17.964844 15.328125 17.964844 15.148438 C 17.964844 14.96875 17.816406 14.824219 17.628906 14.824219 L 11.261719 14.824219 C 11.078125 14.824219 10.929688 14.96875 10.929688 15.148438 C 10.929688 15.328125 11.078125 15.472656 11.261719 15.472656 Z M 17.628906 15.472656 "/>
<path style=" stroke:none;fill-rule:nonzero;fill:rgb(92.941176%,41.176471%,36.078431%);fill-opacity:1;" d="M 6.328125 23.738281 C 6.140625 23.738281 5.992188 23.882812 5.992188 24.0625 C 5.992188 24.074219 5.980469 25.035156 5.046875 25.675781 C 4.894531 25.78125 4.863281 25.984375 4.96875 26.128906 C 5.035156 26.21875 5.140625 26.265625 5.242188 26.265625 C 5.308594 26.265625 5.378906 26.246094 5.4375 26.207031 C 6.652344 25.371094 6.664062 24.113281 6.664062 24.0625 C 6.664062 23.882812 6.511719 23.738281 6.328125 23.738281 Z M 6.328125 23.738281 "/>
<path style=" stroke:none;fill-rule:nonzero;fill:rgb(92.941176%,41.176471%,36.078431%);fill-opacity:1;" d="M 8.734375 23.738281 C 8.546875 23.738281 8.398438 23.882812 8.398438 24.0625 L 8.398438 25.941406 C 8.398438 26.121094 8.546875 26.265625 8.734375 26.265625 C 8.917969 26.265625 9.070312 26.121094 9.070312 25.941406 L 9.070312 24.0625 C 9.070312 23.882812 8.917969 23.738281 8.734375 23.738281 Z M 8.734375 23.738281 "/>
<path style=" stroke:none;fill-rule:nonzero;fill:rgb(92.941176%,41.176471%,36.078431%);fill-opacity:1;" d="M 11.550781 23.738281 C 11.363281 23.738281 11.214844 23.882812 11.214844 24.0625 L 11.214844 25.941406 C 11.214844 26.121094 11.363281 26.265625 11.550781 26.265625 C 11.738281 26.265625 11.886719 26.121094 11.886719 25.941406 L 11.886719 24.0625 C 11.886719 23.882812 11.738281 23.738281 11.550781 23.738281 Z M 11.550781 23.738281 "/>
<path style=" stroke:none;fill-rule:nonzero;fill:rgb(92.941176%,41.176471%,36.078431%);fill-opacity:1;" d="M 17.863281 25.675781 C 16.941406 25.046875 16.921875 24.105469 16.921875 24.0625 C 16.921875 23.882812 16.769531 23.738281 16.585938 23.738281 C 16.398438 23.738281 16.25 23.882812 16.25 24.0625 C 16.25 24.117188 16.265625 25.371094 17.476562 26.207031 C 17.535156 26.246094 17.601562 26.265625 17.667969 26.265625 C 17.773438 26.265625 17.878906 26.214844 17.941406 26.128906 C 18.050781 25.980469 18.015625 25.78125 17.863281 25.675781 Z M 17.863281 25.675781 "/>
<path style=" stroke:none;fill-rule:nonzero;fill:rgb(92.941176%,41.176471%,36.078431%);fill-opacity:1;" d="M 14.175781 23.738281 C 13.992188 23.738281 13.839844 23.882812 13.839844 24.0625 L 13.839844 25.941406 C 13.839844 26.121094 13.992188 26.265625 14.175781 26.265625 C 14.363281 26.265625 14.511719 26.121094 14.511719 25.941406 L 14.511719 24.0625 C 14.511719 23.882812 14.363281 23.738281 14.175781 23.738281 Z M 14.175781 23.738281 "/>
<path style=" stroke:none;fill-rule:nonzero;fill:rgb(92.941176%,41.176471%,36.078431%);fill-opacity:1;" d="M 20.660156 10.484375 L 20.660156 5.796875 L 22.015625 5.796875 L 22.015625 10.484375 Z M 18.847656 8.757812 L 18.847656 7.523438 L 23.835938 7.523438 L 23.835938 8.757812 Z M 18.847656 8.757812 "/>
<path style=" stroke:none;fill-rule:nonzero;fill:rgb(92.941176%,41.176471%,36.078431%);fill-opacity:1;" d="M 14.851562 5.480469 C 14.019531 6.867188 13.710938 8.488281 13.972656 10.074219 C 14 10.246094 14.171875 10.367188 14.351562 10.339844 C 14.527344 10.3125 14.652344 10.148438 14.625 9.972656 C 14.125 6.929688 15.960938 3.984375 18.972656 2.984375 C 21.988281 1.984375 25.308594 3.21875 26.84375 5.921875 C 28.382812 8.617188 27.695312 11.992188 25.214844 13.925781 C 25.121094 13.996094 25.074219 14.109375 25.09375 14.222656 C 25.109375 14.332031 25.1875 14.429688 25.296875 14.46875 C 25.410156 14.511719 25.53125 14.492188 25.625 14.417969 C 27.882812 12.660156 28.835938 9.769531 28.042969 7.074219 C 27.25 4.378906 24.871094 2.402344 21.992188 2.054688 C 19.121094 1.707031 16.308594 3.058594 14.855469 5.480469 Z M 14.851562 5.480469 "/>
</g>
</svg>
