<?xml version="1.0" encoding="UTF-8"?>
<svg xmlns="http://www.w3.org/2000/svg" xmlns:xlink="http://www.w3.org/1999/xlink" width="28px" height="28px" viewBox="0 0 28 24" version="1.1">
<g id="surface1">
<path style=" stroke:none;fill-rule:nonzero;fill:rgb(92.941176%,41.176471%,36.078431%);fill-opacity:1;" d="M 21.300781 10.828125 L 5.449219 10.828125 C 5.261719 10.828125 5.113281 10.972656 5.113281 11.152344 C 5.113281 11.332031 5.261719 11.476562 5.449219 11.476562 L 21.300781 11.476562 C 21.816406 11.476562 22.238281 11.882812 22.238281 12.382812 L 22.238281 19.308594 C 22.238281 19.808594 21.816406 20.214844 21.300781 20.214844 L 20.492188 20.214844 L 20.492188 18.09375 C 20.492188 17.914062 20.34375 17.769531 20.15625 17.769531 L 2.75 17.769531 C 2.566406 17.769531 2.414062 17.914062 2.414062 18.09375 L 2.414062 20.214844 L 1.609375 20.214844 C 1.09375 20.214844 0.671875 19.808594 0.671875 19.308594 L 0.671875 12.382812 C 0.671875 11.882812 1.09375 11.476562 1.609375 11.476562 L 4.101562 11.476562 C 4.289062 11.476562 4.4375 11.332031 4.4375 11.152344 C 4.4375 10.972656 4.289062 10.828125 4.101562 10.828125 L 1.609375 10.828125 C 0.722656 10.828125 0 11.523438 0 12.382812 L 0 19.308594 C 0 20.164062 0.722656 20.863281 1.609375 20.863281 L 5.109375 20.863281 C 5.296875 20.863281 5.445312 20.71875 5.445312 20.539062 C 5.445312 20.359375 5.296875 20.214844 5.109375 20.214844 L 3.085938 20.214844 L 3.085938 19.644531 L 16.453125 19.644531 C 16.636719 19.644531 16.789062 19.496094 16.789062 19.316406 C 16.789062 19.136719 16.636719 18.992188 16.453125 18.992188 L 3.085938 18.992188 L 3.085938 18.421875 L 19.820312 18.421875 L 19.820312 18.992188 L 17.796875 18.992188 C 17.613281 18.992188 17.460938 19.136719 17.460938 19.316406 C 17.460938 19.496094 17.613281 19.644531 17.796875 19.644531 L 19.820312 19.644531 L 19.820312 20.214844 L 6.457031 20.214844 C 6.269531 20.214844 6.121094 20.359375 6.121094 20.539062 C 6.121094 20.71875 6.269531 20.863281 6.457031 20.863281 L 21.300781 20.863281 C 22.1875 20.863281 22.910156 20.164062 22.910156 19.308594 L 22.910156 12.382812 C 22.910156 11.523438 22.1875 10.828125 21.300781 10.828125 Z M 21.300781 10.828125 "/>
<path style=" stroke:none;fill-rule:nonzero;fill:rgb(92.941176%,41.176471%,36.078431%);fill-opacity:1;" d="M 20.15625 13.472656 C 20.34375 13.472656 20.492188 13.324219 20.492188 13.144531 C 20.492188 12.964844 20.34375 12.820312 20.15625 12.820312 L 19.164062 12.820312 C 18.976562 12.820312 18.828125 12.964844 18.828125 13.144531 C 18.828125 13.324219 18.976562 13.472656 19.164062 13.472656 Z M 20.15625 13.472656 "/>
<path style=" stroke:none;fill-rule:nonzero;fill:rgb(92.941176%,41.176471%,36.078431%);fill-opacity:1;" d="M 17.628906 13.472656 C 17.8125 13.472656 17.964844 13.324219 17.964844 13.144531 C 17.964844 12.964844 17.8125 12.820312 17.628906 12.820312 L 11.261719 12.820312 C 11.078125 12.820312 10.925781 12.964844 10.925781 13.144531 C 10.925781 13.324219 11.078125 13.472656 11.261719 13.472656 Z M 17.628906 13.472656 "/>
<path style=" stroke:none;fill-rule:nonzero;fill:rgb(92.941176%,41.176471%,36.078431%);fill-opacity:1;" d="M 6.324219 21.734375 C 6.140625 21.734375 5.988281 21.882812 5.988281 22.0625 C 5.988281 22.070312 5.980469 23.035156 5.046875 23.675781 C 4.894531 23.78125 4.859375 23.984375 4.964844 24.128906 C 5.03125 24.21875 5.136719 24.269531 5.238281 24.269531 C 5.304688 24.269531 5.375 24.246094 5.433594 24.207031 C 6.648438 23.375 6.660156 22.117188 6.660156 22.0625 C 6.660156 21.882812 6.511719 21.734375 6.324219 21.734375 Z M 6.324219 21.734375 "/>
<path style=" stroke:none;fill-rule:nonzero;fill:rgb(92.941176%,41.176471%,36.078431%);fill-opacity:1;" d="M 8.734375 21.734375 C 8.546875 21.734375 8.398438 21.882812 8.398438 22.0625 L 8.398438 23.941406 C 8.398438 24.121094 8.546875 24.265625 8.734375 24.265625 C 8.921875 24.265625 9.070312 24.121094 9.070312 23.941406 L 9.070312 22.0625 C 9.070312 21.882812 8.921875 21.734375 8.734375 21.734375 Z M 8.734375 21.734375 "/>
<path style=" stroke:none;fill-rule:nonzero;fill:rgb(92.941176%,41.176471%,36.078431%);fill-opacity:1;" d="M 11.546875 21.734375 C 11.363281 21.734375 11.210938 21.882812 11.210938 22.0625 L 11.210938 23.941406 C 11.210938 24.121094 11.363281 24.265625 11.546875 24.265625 C 11.734375 24.265625 11.882812 24.121094 11.882812 23.941406 L 11.882812 22.0625 C 11.882812 21.882812 11.734375 21.734375 11.546875 21.734375 Z M 11.546875 21.734375 "/>
<path style=" stroke:none;fill-rule:nonzero;fill:rgb(92.941176%,41.176471%,36.078431%);fill-opacity:1;" d="M 17.863281 23.675781 C 16.941406 23.042969 16.917969 22.101562 16.917969 22.058594 C 16.917969 21.878906 16.769531 21.734375 16.582031 21.734375 C 16.398438 21.734375 16.246094 21.882812 16.246094 22.0625 C 16.246094 22.113281 16.261719 23.375 17.476562 24.207031 C 17.535156 24.246094 17.601562 24.269531 17.667969 24.269531 C 17.773438 24.269531 17.878906 24.21875 17.941406 24.128906 C 18.050781 23.984375 18.015625 23.78125 17.863281 23.675781 Z M 17.863281 23.675781 "/>
<path style=" stroke:none;fill-rule:nonzero;fill:rgb(92.941176%,41.176471%,36.078431%);fill-opacity:1;" d="M 14.175781 21.734375 C 13.988281 21.734375 13.839844 21.882812 13.839844 22.0625 L 13.839844 23.941406 C 13.839844 24.121094 13.988281 24.265625 14.175781 24.265625 C 14.359375 24.265625 14.511719 24.121094 14.511719 23.941406 L 14.511719 22.0625 C 14.511719 21.882812 14.359375 21.734375 14.175781 21.734375 Z M 14.175781 21.734375 "/>
<path style=" stroke:none;fill-rule:nonzero;fill:rgb(92.941176%,41.176471%,36.078431%);fill-opacity:1;" d="M 20.660156 6.757812 L 20.660156 5.519531 L 22.011719 5.519531 L 22.011719 6.757812 Z M 18.847656 6.757812 L 18.847656 5.519531 L 23.839844 5.519531 L 23.839844 6.757812 Z M 18.847656 6.757812 "/>
<path style=" stroke:none;fill-rule:nonzero;fill:rgb(92.941176%,41.176471%,36.078431%);fill-opacity:1;" d="M 14.851562 3.480469 C 14.023438 4.867188 13.714844 6.488281 13.972656 8.074219 C 14 8.246094 14.167969 8.363281 14.347656 8.335938 C 14.523438 8.308594 14.648438 8.144531 14.621094 7.972656 C 14.121094 4.929688 15.957031 1.980469 18.96875 0.980469 C 21.980469 -0.0195312 25.304688 1.21875 26.84375 3.917969 C 28.378906 6.613281 27.695312 9.992188 25.210938 11.921875 C 25.117188 11.992188 25.070312 12.105469 25.089844 12.21875 C 25.105469 12.332031 25.1875 12.425781 25.296875 12.464844 C 25.40625 12.507812 25.535156 12.488281 25.621094 12.414062 C 27.878906 10.660156 28.832031 7.765625 28.039062 5.070312 C 27.25 2.375 24.867188 0.398438 21.992188 0.0507812 C 19.117188 -0.292969 16.304688 1.054688 14.851562 3.480469 Z M 14.851562 3.480469 "/>
</g>
</svg>
