<?xml version="1.0" encoding="UTF-8"?>
<svg xmlns="http://www.w3.org/2000/svg" xmlns:xlink="http://www.w3.org/1999/xlink" width="28px" height="28px" viewBox="0 0 28 28" version="1.1">
<g id="surface1">
<path style=" stroke:none;fill-rule:nonzero;fill:rgb(92.941176%,41.176471%,36.078431%);fill-opacity:1;" d="M 21.300781 12.828125 L 5.449219 12.828125 C 5.261719 12.828125 5.113281 12.972656 5.113281 13.152344 C 5.113281 13.332031 5.261719 13.476562 5.449219 13.476562 L 21.300781 13.476562 C 21.816406 13.476562 22.238281 13.882812 22.238281 14.382812 L 22.238281 21.308594 C 22.238281 21.808594 21.816406 22.214844 21.300781 22.214844 L 20.492188 22.214844 L 20.492188 20.09375 C 20.492188 19.914062 20.34375 19.769531 20.15625 19.769531 L 2.75 19.769531 C 2.566406 19.769531 2.414062 19.914062 2.414062 20.09375 L 2.414062 22.214844 L 1.609375 22.214844 C 1.09375 22.214844 0.671875 21.808594 0.671875 21.308594 L 0.671875 14.382812 C 0.671875 13.882812 1.09375 13.476562 1.609375 13.476562 L 4.101562 13.476562 C 4.289062 13.476562 4.4375 13.332031 4.4375 13.152344 C 4.4375 12.972656 4.289062 12.828125 4.101562 12.828125 L 1.609375 12.828125 C 0.722656 12.828125 0 13.523438 0 14.382812 L 0 21.308594 C 0 22.164062 0.722656 22.863281 1.609375 22.863281 L 5.109375 22.863281 C 5.296875 22.863281 5.445312 22.71875 5.445312 22.539062 C 5.445312 22.359375 5.296875 22.214844 5.109375 22.214844 L 3.085938 22.214844 L 3.085938 21.644531 L 16.453125 21.644531 C 16.636719 21.644531 16.789062 21.496094 16.789062 21.316406 C 16.789062 21.136719 16.636719 20.992188 16.453125 20.992188 L 3.085938 20.992188 L 3.085938 20.421875 L 19.820312 20.421875 L 19.820312 20.992188 L 17.796875 20.992188 C 17.613281 20.992188 17.460938 21.136719 17.460938 21.316406 C 17.460938 21.496094 17.613281 21.644531 17.796875 21.644531 L 19.820312 21.644531 L 19.820312 22.214844 L 6.457031 22.214844 C 6.269531 22.214844 6.121094 22.359375 6.121094 22.539062 C 6.121094 22.71875 6.269531 22.863281 6.457031 22.863281 L 21.300781 22.863281 C 22.1875 22.863281 22.910156 22.164062 22.910156 21.308594 L 22.910156 14.382812 C 22.910156 13.523438 22.1875 12.828125 21.300781 12.828125 Z M 21.300781 12.828125 "/>
<path style=" stroke:none;fill-rule:nonzero;fill:rgb(92.941176%,41.176471%,36.078431%);fill-opacity:1;" d="M 20.15625 15.472656 C 20.34375 15.472656 20.492188 15.324219 20.492188 15.144531 C 20.492188 14.964844 20.34375 14.820312 20.15625 14.820312 L 19.164062 14.820312 C 18.976562 14.820312 18.828125 14.964844 18.828125 15.144531 C 18.828125 15.324219 18.976562 15.472656 19.164062 15.472656 Z M 20.15625 15.472656 "/>
<path style=" stroke:none;fill-rule:nonzero;fill:rgb(92.941176%,41.176471%,36.078431%);fill-opacity:1;" d="M 17.628906 15.472656 C 17.8125 15.472656 17.964844 15.324219 17.964844 15.144531 C 17.964844 14.964844 17.8125 14.820312 17.628906 14.820312 L 11.261719 14.820312 C 11.078125 14.820312 10.925781 14.964844 10.925781 15.144531 C 10.925781 15.324219 11.078125 15.472656 11.261719 15.472656 Z M 17.628906 15.472656 "/>
<path style=" stroke:none;fill-rule:nonzero;fill:rgb(92.941176%,41.176471%,36.078431%);fill-opacity:1;" d="M 6.324219 23.734375 C 6.140625 23.734375 5.988281 23.882812 5.988281 24.0625 C 5.988281 24.070312 5.980469 25.035156 5.046875 25.675781 C 4.894531 25.78125 4.859375 25.984375 4.964844 26.128906 C 5.03125 26.21875 5.136719 26.269531 5.238281 26.269531 C 5.304688 26.269531 5.375 26.246094 5.433594 26.207031 C 6.648438 25.375 6.660156 24.117188 6.660156 24.0625 C 6.660156 23.882812 6.511719 23.734375 6.324219 23.734375 Z M 6.324219 23.734375 "/>
<path style=" stroke:none;fill-rule:nonzero;fill:rgb(92.941176%,41.176471%,36.078431%);fill-opacity:1;" d="M 8.734375 23.734375 C 8.546875 23.734375 8.398438 23.882812 8.398438 24.0625 L 8.398438 25.941406 C 8.398438 26.121094 8.546875 26.265625 8.734375 26.265625 C 8.921875 26.265625 9.070312 26.121094 9.070312 25.941406 L 9.070312 24.0625 C 9.070312 23.882812 8.921875 23.734375 8.734375 23.734375 Z M 8.734375 23.734375 "/>
<path style=" stroke:none;fill-rule:nonzero;fill:rgb(92.941176%,41.176471%,36.078431%);fill-opacity:1;" d="M 11.546875 23.734375 C 11.363281 23.734375 11.210938 23.882812 11.210938 24.0625 L 11.210938 25.941406 C 11.210938 26.121094 11.363281 26.265625 11.546875 26.265625 C 11.734375 26.265625 11.882812 26.121094 11.882812 25.941406 L 11.882812 24.0625 C 11.882812 23.882812 11.734375 23.734375 11.546875 23.734375 Z M 11.546875 23.734375 "/>
<path style=" stroke:none;fill-rule:nonzero;fill:rgb(92.941176%,41.176471%,36.078431%);fill-opacity:1;" d="M 17.863281 25.675781 C 16.941406 25.042969 16.917969 24.101562 16.917969 24.058594 C 16.917969 23.878906 16.769531 23.734375 16.582031 23.734375 C 16.398438 23.734375 16.246094 23.882812 16.246094 24.0625 C 16.246094 24.113281 16.261719 25.375 17.476562 26.207031 C 17.535156 26.246094 17.601562 26.269531 17.667969 26.269531 C 17.773438 26.269531 17.878906 26.21875 17.941406 26.128906 C 18.050781 25.984375 18.015625 25.78125 17.863281 25.675781 Z M 17.863281 25.675781 "/>
<path style=" stroke:none;fill-rule:nonzero;fill:rgb(92.941176%,41.176471%,36.078431%);fill-opacity:1;" d="M 14.175781 23.734375 C 13.988281 23.734375 13.839844 23.882812 13.839844 24.0625 L 13.839844 25.941406 C 13.839844 26.121094 13.988281 26.265625 14.175781 26.265625 C 14.359375 26.265625 14.511719 26.121094 14.511719 25.941406 L 14.511719 24.0625 C 14.511719 23.882812 14.359375 23.734375 14.175781 23.734375 Z M 14.175781 23.734375 "/>
<path style=" stroke:none;fill-rule:nonzero;fill:rgb(92.941176%,41.176471%,36.078431%);fill-opacity:1;" d="M 20.660156 8.757812 L 20.660156 7.519531 L 22.011719 7.519531 L 22.011719 8.757812 Z M 18.847656 8.757812 L 18.847656 7.519531 L 23.839844 7.519531 L 23.839844 8.757812 Z M 18.847656 8.757812 "/>
<path style=" stroke:none;fill-rule:nonzero;fill:rgb(92.941176%,41.176471%,36.078431%);fill-opacity:1;" d="M 14.851562 5.480469 C 14.023438 6.867188 13.714844 8.488281 13.972656 10.074219 C 14 10.246094 14.167969 10.363281 14.347656 10.335938 C 14.523438 10.308594 14.648438 10.144531 14.621094 9.972656 C 14.121094 6.929688 15.957031 3.980469 18.96875 2.980469 C 21.980469 1.980469 25.304688 3.21875 26.84375 5.917969 C 28.378906 8.613281 27.695312 11.992188 25.210938 13.921875 C 25.117188 13.992188 25.070312 14.105469 25.089844 14.21875 C 25.105469 14.332031 25.1875 14.425781 25.296875 14.464844 C 25.40625 14.507812 25.535156 14.488281 25.621094 14.414062 C 27.878906 12.660156 28.832031 9.765625 28.039062 7.070312 C 27.25 4.375 24.867188 2.398438 21.992188 2.050781 C 19.117188 1.707031 16.304688 3.054688 14.851562 5.480469 Z M 14.851562 5.480469 "/>
</g>
</svg>
