<?xml version="1.0" encoding="UTF-8"?>
<svg xmlns="http://www.w3.org/2000/svg" xmlns:xlink="http://www.w3.org/1999/xlink" width="28px" height="28px" viewBox="0 0 28 24" version="1.1">
<g id="surface1">
<path style=" stroke:none;fill-rule:nonzero;fill:rgb(92.941176%,41.176471%,36.078431%);fill-opacity:1;" d="M 21.300781 10.824219 L 5.445312 10.824219 C 5.261719 10.824219 5.113281 10.972656 5.113281 11.148438 C 5.113281 11.332031 5.261719 11.476562 5.445312 11.476562 L 21.300781 11.476562 C 21.816406 11.476562 22.238281 11.882812 22.238281 12.382812 L 22.238281 19.308594 C 22.238281 19.808594 21.816406 20.214844 21.300781 20.214844 L 20.492188 20.214844 L 20.492188 18.09375 C 20.492188 17.914062 20.34375 17.769531 20.15625 17.769531 L 2.75 17.769531 C 2.566406 17.769531 2.414062 17.914062 2.414062 18.09375 L 2.414062 20.214844 L 1.609375 20.214844 C 1.09375 20.214844 0.671875 19.808594 0.671875 19.308594 L 0.671875 12.382812 C 0.671875 11.882812 1.09375 11.476562 1.609375 11.476562 L 4.101562 11.476562 C 4.285156 11.476562 4.4375 11.332031 4.4375 11.148438 C 4.4375 10.972656 4.285156 10.824219 4.101562 10.824219 L 1.609375 10.824219 C 0.71875 10.824219 0 11.523438 0 12.382812 L 0 19.308594 C 0 20.167969 0.71875 20.863281 1.609375 20.863281 L 5.109375 20.863281 C 5.296875 20.863281 5.445312 20.71875 5.445312 20.539062 C 5.445312 20.359375 5.296875 20.214844 5.109375 20.214844 L 3.085938 20.214844 L 3.085938 19.640625 L 16.453125 19.640625 C 16.636719 19.640625 16.789062 19.496094 16.789062 19.316406 C 16.789062 19.136719 16.636719 18.992188 16.453125 18.992188 L 3.085938 18.992188 L 3.085938 18.421875 L 19.820312 18.421875 L 19.820312 18.992188 L 17.796875 18.992188 C 17.609375 18.992188 17.460938 19.140625 17.460938 19.316406 C 17.460938 19.496094 17.609375 19.640625 17.796875 19.640625 L 19.820312 19.640625 L 19.820312 20.214844 L 6.457031 20.214844 C 6.269531 20.214844 6.121094 20.359375 6.121094 20.539062 C 6.121094 20.71875 6.269531 20.863281 6.457031 20.863281 L 21.296875 20.863281 C 22.1875 20.863281 22.90625 20.167969 22.90625 19.308594 L 22.90625 12.382812 C 22.90625 11.523438 22.1875 10.824219 21.296875 10.824219 Z M 21.300781 10.824219 "/>
<path style=" stroke:none;fill-rule:nonzero;fill:rgb(92.941176%,41.176471%,36.078431%);fill-opacity:1;" d="M 20.15625 13.472656 C 20.34375 13.472656 20.496094 13.324219 20.496094 13.144531 C 20.496094 12.964844 20.34375 12.820312 20.15625 12.820312 L 19.164062 12.820312 C 18.976562 12.820312 18.828125 12.964844 18.828125 13.144531 C 18.828125 13.324219 18.976562 13.472656 19.164062 13.472656 Z M 20.15625 13.472656 "/>
<path style=" stroke:none;fill-rule:nonzero;fill:rgb(92.941176%,41.176471%,36.078431%);fill-opacity:1;" d="M 17.628906 13.472656 C 17.816406 13.472656 17.964844 13.324219 17.964844 13.144531 C 17.964844 12.964844 17.8125 12.820312 17.628906 12.820312 L 11.261719 12.820312 C 11.078125 12.820312 10.925781 12.964844 10.925781 13.144531 C 10.925781 13.324219 11.078125 13.472656 11.261719 13.472656 Z M 17.628906 13.472656 "/>
<path style=" stroke:none;fill-rule:nonzero;fill:rgb(92.941176%,41.176471%,36.078431%);fill-opacity:1;" d="M 6.324219 21.734375 C 6.140625 21.734375 5.988281 21.878906 5.988281 22.058594 C 5.988281 22.070312 5.976562 23.03125 5.042969 23.675781 C 4.894531 23.777344 4.859375 23.980469 4.964844 24.128906 C 5.03125 24.214844 5.132812 24.265625 5.238281 24.265625 C 5.308594 24.265625 5.375 24.246094 5.433594 24.203125 C 6.648438 23.371094 6.660156 22.113281 6.660156 22.058594 C 6.660156 21.878906 6.507812 21.734375 6.324219 21.734375 Z M 6.324219 21.734375 "/>
<path style=" stroke:none;fill-rule:nonzero;fill:rgb(92.941176%,41.176471%,36.078431%);fill-opacity:1;" d="M 8.734375 21.734375 C 8.546875 21.734375 8.398438 21.878906 8.398438 22.058594 L 8.398438 23.941406 C 8.398438 24.121094 8.546875 24.265625 8.734375 24.265625 C 8.917969 24.265625 9.070312 24.121094 9.070312 23.941406 L 9.070312 22.058594 C 9.070312 21.878906 8.917969 21.734375 8.734375 21.734375 Z M 8.734375 21.734375 "/>
<path style=" stroke:none;fill-rule:nonzero;fill:rgb(92.941176%,41.176471%,36.078431%);fill-opacity:1;" d="M 11.550781 21.734375 C 11.363281 21.734375 11.214844 21.878906 11.214844 22.058594 L 11.214844 23.941406 C 11.214844 24.121094 11.363281 24.265625 11.550781 24.265625 C 11.734375 24.265625 11.886719 24.121094 11.886719 23.941406 L 11.886719 22.058594 C 11.886719 21.878906 11.734375 21.734375 11.550781 21.734375 Z M 11.550781 21.734375 "/>
<path style=" stroke:none;fill-rule:nonzero;fill:rgb(92.941176%,41.176471%,36.078431%);fill-opacity:1;" d="M 17.863281 23.675781 C 16.941406 23.042969 16.921875 22.101562 16.917969 22.058594 C 16.917969 21.878906 16.769531 21.734375 16.582031 21.734375 C 16.398438 21.734375 16.246094 21.878906 16.246094 22.058594 C 16.246094 22.113281 16.257812 23.371094 17.472656 24.207031 C 17.53125 24.246094 17.597656 24.265625 17.667969 24.265625 C 17.773438 24.265625 17.875 24.21875 17.941406 24.128906 C 18.050781 23.980469 18.011719 23.78125 17.863281 23.675781 Z M 17.863281 23.675781 "/>
<path style=" stroke:none;fill-rule:nonzero;fill:rgb(92.941176%,41.176471%,36.078431%);fill-opacity:1;" d="M 14.175781 21.734375 C 13.988281 21.734375 13.839844 21.878906 13.839844 22.058594 L 13.839844 23.941406 C 13.839844 24.121094 13.988281 24.265625 14.175781 24.265625 C 14.363281 24.265625 14.511719 24.121094 14.511719 23.941406 L 14.511719 22.058594 C 14.511719 21.878906 14.363281 21.734375 14.175781 21.734375 Z M 14.175781 21.734375 "/>
<path style=" stroke:none;fill-rule:nonzero;fill:rgb(92.941176%,41.176471%,36.078431%);fill-opacity:1;" d="M 14.851562 3.480469 C 14.023438 4.867188 13.714844 6.488281 13.972656 8.074219 C 14 8.246094 14.167969 8.363281 14.351562 8.335938 C 14.527344 8.308594 14.648438 8.144531 14.621094 7.972656 C 14.121094 4.929688 15.957031 1.980469 18.972656 0.980469 C 21.984375 -0.0195312 25.304688 1.21875 26.84375 3.917969 C 28.382812 6.613281 27.695312 9.988281 25.210938 11.921875 C 25.121094 11.992188 25.074219 12.105469 25.089844 12.21875 C 25.109375 12.332031 25.1875 12.425781 25.296875 12.464844 C 25.410156 12.507812 25.53125 12.488281 25.625 12.414062 C 27.882812 10.660156 28.832031 7.765625 28.042969 5.070312 C 27.25 2.375 24.867188 0.402344 21.992188 0.0546875 C 19.117188 -0.292969 16.308594 1.054688 14.855469 3.480469 Z M 14.851562 3.480469 "/>
<path style=" stroke:none;fill-rule:nonzero;fill:rgb(92.941176%,41.176471%,36.078431%);fill-opacity:1;" d="M 17.949219 8.1875 L 17.949219 4.882812 L 18.90625 4.882812 L 18.90625 8.1875 Z M 16.671875 6.972656 L 16.671875 6.097656 L 20.191406 6.097656 L 20.191406 6.972656 Z M 16.671875 6.972656 "/>
<path style=" stroke:none;fill-rule:nonzero;fill:rgb(92.941176%,41.176471%,36.078431%);fill-opacity:1;" d="M 20.398438 9.753906 L 22.835938 3.019531 L 23.863281 3.019531 L 21.425781 9.753906 Z M 20.398438 9.753906 "/>
<path style=" stroke:none;fill-rule:nonzero;fill:rgb(92.941176%,41.176471%,36.078431%);fill-opacity:1;" d="M 23.398438 7.472656 L 25.492188 7.472656 L 25.492188 6.578125 L 23.398438 6.578125 Z M 23.398438 7.472656 "/>
</g>
</svg>
