<?xml version="1.0" encoding="UTF-8"?>
<svg xmlns="http://www.w3.org/2000/svg" xmlns:xlink="http://www.w3.org/1999/xlink" width="28px" height="28px" viewBox="0 0 28 28" version="1.1">
<g id="surface1">
<path style="fill-rule:nonzero;fill:rgb(92.941176%,41.176471%,36.078431%);fill-opacity:1;stroke-width:7.18;stroke-linecap:butt;stroke-linejoin:miter;stroke:rgb(92.941176%,41.176471%,36.078431%);stroke-opacity:1;stroke-miterlimit:22.9256;" d="M 285.026352 79.05787 L 298.898376 87.034417 C 299.022789 87.163071 299.209408 87.227398 299.333821 87.227398 C 299.644853 87.227398 300.018091 87.034417 300.142504 86.712782 L 301.697664 84.075375 C 301.822076 83.882394 301.822076 83.625086 301.75987 83.367778 C 301.697664 83.11047 301.573251 82.917489 301.324425 82.788835 L 287.452401 74.747962 C 287.265782 74.683635 287.016957 74.619308 286.768131 74.683635 C 286.519306 74.747962 286.332686 74.940943 286.208274 75.133924 L 284.653114 77.77133 C 284.404288 78.221619 284.590908 78.800562 285.026352 79.05787 Z M 285.026352 79.05787 " transform="matrix(0.062795,0,0,0.0607249,0.000207709,2)"/>
<path style=" stroke:none;fill-rule:nonzero;fill:rgb(92.941176%,41.176471%,36.078431%);fill-opacity:1;" d="M 17.898438 6.800781 L 18.769531 7.285156 C 18.777344 7.292969 18.789062 7.296875 18.796875 7.296875 C 18.816406 7.296875 18.839844 7.285156 18.847656 7.265625 L 18.945312 7.105469 C 18.953125 7.09375 18.953125 7.078125 18.949219 7.0625 C 18.945312 7.046875 18.9375 7.035156 18.921875 7.027344 L 18.050781 6.539062 C 18.039062 6.535156 18.023438 6.53125 18.007812 6.535156 C 17.992188 6.539062 17.980469 6.550781 17.972656 6.5625 L 17.875 6.722656 C 17.859375 6.75 17.871094 6.785156 17.898438 6.800781 Z M 17.898438 6.800781 "/>
<path style=" stroke:none;fill-rule:nonzero;fill:rgb(92.941176%,41.176471%,36.078431%);fill-opacity:1;" d="M 18.710938 7.382812 L 17.839844 6.898438 L 17.953125 6.703125 L 18.824219 7.191406 Z M 18.824219 7.191406 L 18.820312 7.1875 Z M 18.796875 7.183594 L 18.796875 7.40625 L 18.773438 7.40625 L 18.761719 7.402344 L 18.757812 7.402344 L 18.742188 7.398438 L 18.746094 7.398438 L 18.738281 7.398438 L 18.726562 7.394531 L 18.726562 7.390625 L 18.738281 7.398438 L 18.734375 7.398438 L 18.71875 7.390625 L 18.71875 7.386719 L 18.710938 7.386719 L 18.710938 7.382812 L 18.71875 7.390625 L 18.714844 7.386719 L 18.828125 7.195312 L 18.824219 7.191406 L 18.835938 7.195312 L 18.835938 7.199219 L 18.832031 7.195312 L 18.816406 7.191406 L 18.828125 7.195312 L 18.820312 7.191406 L 18.816406 7.191406 L 18.824219 7.191406 L 18.8125 7.1875 L 18.816406 7.1875 L 18.804688 7.1875 L 18.808594 7.1875 Z M 18.75 7.210938 L 18.949219 7.320312 L 18.949219 7.324219 L 18.933594 7.339844 L 18.933594 7.34375 L 18.910156 7.367188 L 18.902344 7.371094 L 18.898438 7.375 L 18.886719 7.382812 L 18.878906 7.386719 L 18.875 7.386719 L 18.859375 7.394531 L 18.855469 7.394531 L 18.855469 7.398438 L 18.847656 7.398438 L 18.824219 7.40625 L 18.796875 7.40625 L 18.796875 7.183594 L 18.789062 7.183594 L 18.792969 7.183594 L 18.785156 7.183594 L 18.777344 7.1875 L 18.78125 7.1875 L 18.785156 7.183594 L 18.777344 7.1875 L 18.773438 7.1875 L 18.777344 7.1875 L 18.773438 7.191406 L 18.765625 7.191406 L 18.769531 7.191406 L 18.765625 7.191406 L 18.769531 7.191406 L 18.761719 7.195312 L 18.761719 7.199219 L 18.761719 7.195312 L 18.753906 7.203125 L 18.757812 7.199219 L 18.75 7.207031 L 18.753906 7.207031 L 18.753906 7.203125 L 18.75 7.207031 Z M 18.949219 7.320312 L 18.949219 7.324219 Z M 19.042969 7.160156 L 18.949219 7.320312 L 18.75 7.210938 L 18.84375 7.050781 L 19.046875 7.160156 Z M 19.046875 7.160156 L 19.042969 7.160156 L 19.042969 7.164062 Z M 18.839844 7.09375 L 19.058594 7.027344 L 19.0625 7.035156 L 19.0625 7.054688 L 19.066406 7.0625 L 19.066406 7.089844 L 19.0625 7.101562 L 19.0625 7.121094 L 19.058594 7.128906 L 19.058594 7.121094 L 19.058594 7.128906 L 19.054688 7.140625 L 19.054688 7.136719 L 19.050781 7.144531 L 19.050781 7.152344 L 19.046875 7.160156 L 19.046875 7.15625 L 19.042969 7.164062 L 18.84375 7.054688 L 18.839844 7.058594 L 18.84375 7.054688 L 18.839844 7.058594 L 18.839844 7.0625 L 18.839844 7.058594 L 18.835938 7.066406 L 18.839844 7.058594 L 18.835938 7.066406 L 18.835938 7.070312 L 18.839844 7.058594 L 18.835938 7.066406 L 18.835938 7.074219 L 18.835938 7.066406 L 18.835938 7.074219 L 18.835938 7.070312 L 18.835938 7.078125 L 18.835938 7.074219 L 18.835938 7.082031 L 18.835938 7.078125 L 18.835938 7.085938 L 18.835938 7.082031 L 18.835938 7.089844 Z M 19.058594 7.027344 L 19.0625 7.035156 Z M 18.863281 7.125 L 18.980469 6.929688 L 18.976562 6.929688 L 18.984375 6.933594 L 18.992188 6.941406 L 18.996094 6.941406 L 19 6.945312 L 19.003906 6.945312 L 19.015625 6.957031 L 19.011719 6.953125 L 19.027344 6.96875 L 19.023438 6.964844 L 19.027344 6.972656 L 19.03125 6.976562 L 19.027344 6.972656 L 19.03125 6.972656 L 19.042969 6.996094 L 19.046875 7 L 19.050781 7.011719 L 19.054688 7.011719 L 19.054688 7.015625 L 19.058594 7.027344 L 19.058594 7.023438 L 19.058594 7.027344 L 18.839844 7.09375 L 18.839844 7.089844 L 18.839844 7.097656 L 18.84375 7.105469 L 18.84375 7.101562 L 18.839844 7.097656 L 18.84375 7.101562 L 18.84375 7.105469 L 18.851562 7.113281 L 18.847656 7.105469 L 18.847656 7.109375 L 18.851562 7.113281 L 18.847656 7.109375 L 18.851562 7.109375 L 18.859375 7.117188 L 18.851562 7.113281 L 18.859375 7.121094 L 18.859375 7.117188 L 18.855469 7.117188 L 18.863281 7.125 L 18.863281 7.121094 L 18.859375 7.121094 Z M 18.867188 7.125 L 18.863281 7.125 Z M 18.109375 6.445312 L 18.980469 6.929688 L 18.863281 7.121094 L 17.996094 6.636719 L 18.105469 6.441406 Z M 18.105469 6.441406 L 18.109375 6.445312 Z M 18.035156 6.644531 L 17.976562 6.429688 L 17.972656 6.429688 L 17.980469 6.425781 L 17.996094 6.425781 L 18.007812 6.421875 L 18.035156 6.421875 L 18.046875 6.425781 L 18.039062 6.421875 L 18.0625 6.425781 L 18.054688 6.425781 L 18.066406 6.429688 L 18.074219 6.429688 L 18.074219 6.433594 L 18.082031 6.433594 L 18.089844 6.4375 L 18.09375 6.4375 L 18.101562 6.441406 L 18.105469 6.445312 L 17.996094 6.640625 L 18 6.640625 L 17.996094 6.640625 L 18.003906 6.640625 L 18 6.640625 L 18.007812 6.644531 L 18.007812 6.640625 L 18 6.640625 L 18.007812 6.640625 L 18.015625 6.644531 L 18.007812 6.640625 L 18.003906 6.640625 L 18.023438 6.644531 L 18.011719 6.644531 L 18.023438 6.644531 L 18.019531 6.644531 L 18.027344 6.644531 L 18.023438 6.644531 L 18.03125 6.644531 L 18.027344 6.644531 L 18.035156 6.640625 L 18.039062 6.640625 Z M 18.039062 6.640625 L 18.035156 6.640625 Z M 18.070312 6.617188 L 17.871094 6.507812 L 17.875 6.5 L 17.882812 6.492188 L 17.886719 6.484375 L 17.894531 6.472656 L 17.898438 6.472656 L 17.902344 6.464844 L 17.90625 6.464844 L 17.910156 6.460938 L 17.914062 6.460938 L 17.925781 6.449219 L 17.929688 6.449219 L 17.941406 6.441406 L 17.949219 6.4375 L 17.949219 6.441406 L 17.941406 6.441406 L 17.964844 6.433594 L 17.957031 6.4375 L 17.960938 6.433594 L 17.976562 6.429688 L 18.035156 6.644531 L 18.03125 6.644531 L 18.042969 6.640625 L 18.046875 6.640625 L 18.035156 6.644531 L 18.050781 6.636719 L 18.042969 6.640625 L 18.039062 6.644531 L 18.042969 6.640625 L 18.050781 6.636719 L 18.054688 6.636719 L 18.050781 6.636719 L 18.058594 6.632812 L 18.054688 6.632812 L 18.058594 6.632812 L 18.058594 6.628906 L 18.058594 6.632812 L 18.066406 6.621094 L 18.066406 6.625 L 18.066406 6.621094 L 18.066406 6.625 L 18.070312 6.617188 L 18.070312 6.621094 L 18.066406 6.621094 Z M 18.070312 6.613281 L 18.070312 6.617188 L 18.074219 6.613281 L 18.070312 6.617188 Z M 17.777344 6.667969 L 17.871094 6.503906 L 18.070312 6.617188 L 17.972656 6.777344 Z M 17.953125 6.703125 L 17.839844 6.898438 L 17.839844 6.894531 L 17.832031 6.894531 L 17.824219 6.886719 L 17.816406 6.882812 L 17.8125 6.875 L 17.804688 6.875 L 17.800781 6.867188 L 17.78125 6.847656 L 17.78125 6.84375 L 17.773438 6.835938 L 17.769531 6.824219 L 17.765625 6.820312 L 17.761719 6.8125 L 17.761719 6.804688 L 17.757812 6.796875 L 17.753906 6.785156 L 17.753906 6.777344 L 17.75 6.765625 L 17.75 6.730469 L 17.753906 6.722656 L 17.753906 6.714844 L 17.757812 6.710938 L 17.757812 6.699219 L 17.761719 6.6875 L 17.765625 6.683594 L 17.773438 6.667969 L 17.972656 6.78125 L 17.976562 6.777344 L 17.976562 6.769531 L 17.980469 6.761719 L 17.976562 6.765625 L 17.980469 6.757812 L 17.980469 6.75 L 17.980469 6.753906 L 17.980469 6.746094 L 17.976562 6.742188 L 17.980469 6.746094 L 17.976562 6.742188 L 17.976562 6.730469 L 17.96875 6.722656 L 17.972656 6.722656 L 17.96875 6.722656 L 17.964844 6.71875 L 17.964844 6.714844 L 17.960938 6.710938 L 17.957031 6.710938 L 17.953125 6.707031 Z M 17.839844 6.898438 L 17.839844 6.894531 L 17.84375 6.898438 Z M 17.839844 6.898438 "/>
<path style="fill-rule:nonzero;fill:rgb(92.941176%,41.176471%,36.078431%);fill-opacity:1;stroke-width:7.18;stroke-linecap:butt;stroke-linejoin:miter;stroke:rgb(92.941176%,41.176471%,36.078431%);stroke-opacity:1;stroke-miterlimit:22.9256;" d="M 300.142504 129.361576 C 299.893678 128.911287 299.333821 128.718306 298.898376 128.975614 L 285.026352 137.016487 C 284.590908 137.209468 284.404288 137.852738 284.653114 138.303027 L 286.208274 140.940434 C 286.27048 141.133415 286.519306 141.326396 286.768131 141.390723 C 286.830337 141.390723 286.892544 141.390723 287.016957 141.390723 C 287.141369 141.390723 287.327989 141.326396 287.452401 141.262069 L 301.324425 133.285522 C 301.511045 133.092541 301.697664 132.89956 301.75987 132.642252 C 301.822076 132.449271 301.75987 132.191963 301.697664 131.998982 Z M 300.142504 129.361576 " transform="matrix(0.062795,0,0,0.0607249,0.000207709,2)"/>
<path style=" stroke:none;fill-rule:nonzero;fill:rgb(92.941176%,41.176471%,36.078431%);fill-opacity:1;" d="M 18.847656 9.855469 C 18.832031 9.828125 18.796875 9.816406 18.769531 9.832031 L 17.898438 10.320312 C 17.871094 10.332031 17.859375 10.371094 17.875 10.398438 L 17.972656 10.558594 C 17.976562 10.570312 17.992188 10.582031 18.007812 10.585938 C 18.011719 10.585938 18.015625 10.585938 18.023438 10.585938 C 18.03125 10.585938 18.042969 10.582031 18.050781 10.578125 L 18.921875 10.09375 C 18.933594 10.082031 18.945312 10.070312 18.949219 10.054688 C 18.953125 10.042969 18.949219 10.027344 18.945312 10.015625 Z M 18.847656 9.855469 "/>
<path style=" stroke:none;fill-rule:nonzero;fill:rgb(92.941176%,41.176471%,36.078431%);fill-opacity:1;" d="M 18.824219 9.929688 L 18.710938 9.738281 L 18.742188 9.722656 L 18.753906 9.71875 L 18.769531 9.71875 L 18.773438 9.714844 L 18.828125 9.714844 L 18.835938 9.71875 L 18.847656 9.71875 L 18.851562 9.722656 L 18.859375 9.726562 L 18.867188 9.726562 L 18.875 9.730469 L 18.878906 9.734375 L 18.890625 9.738281 L 18.898438 9.742188 L 18.933594 9.777344 L 18.941406 9.78125 L 18.949219 9.796875 L 18.753906 9.910156 L 18.753906 9.914062 L 18.761719 9.921875 L 18.769531 9.925781 L 18.773438 9.929688 L 18.777344 9.929688 L 18.777344 9.933594 L 18.800781 9.933594 L 18.796875 9.933594 L 18.808594 9.933594 L 18.804688 9.933594 L 18.8125 9.933594 L 18.816406 9.929688 L 18.820312 9.929688 L 18.824219 9.925781 Z M 18.828125 9.929688 L 18.824219 9.929688 L 18.820312 9.933594 Z M 17.839844 10.222656 L 18.710938 9.738281 L 18.824219 9.929688 L 17.953125 10.414062 L 17.953125 10.417969 Z M 17.953125 10.414062 L 17.953125 10.417969 Z M 17.972656 10.34375 L 17.777344 10.453125 L 17.769531 10.445312 L 17.769531 10.4375 L 17.765625 10.433594 L 17.757812 10.410156 L 17.757812 10.40625 L 17.753906 10.402344 L 17.753906 10.34375 L 17.757812 10.335938 L 17.761719 10.324219 L 17.761719 10.316406 L 17.765625 10.3125 L 17.765625 10.304688 L 17.769531 10.296875 L 17.777344 10.285156 L 17.785156 10.277344 L 17.789062 10.269531 L 17.796875 10.261719 L 17.800781 10.253906 L 17.808594 10.25 L 17.820312 10.238281 L 17.828125 10.234375 L 17.835938 10.226562 L 17.84375 10.222656 L 17.953125 10.417969 L 17.960938 10.414062 L 17.972656 10.402344 L 17.972656 10.398438 L 17.976562 10.398438 L 17.976562 10.394531 L 17.980469 10.390625 L 17.980469 10.367188 L 17.980469 10.371094 L 17.980469 10.355469 L 17.980469 10.359375 L 17.980469 10.355469 L 17.976562 10.347656 L 17.976562 10.34375 Z M 17.777344 10.453125 L 17.761719 10.433594 Z M 17.871094 10.613281 L 17.777344 10.453125 L 17.972656 10.34375 L 18.070312 10.503906 Z M 18.070312 10.503906 L 18.078125 10.515625 Z M 18.039062 10.480469 L 17.972656 10.691406 L 17.976562 10.691406 L 17.96875 10.691406 L 17.96875 10.6875 L 17.964844 10.6875 L 17.957031 10.683594 L 17.945312 10.679688 L 17.949219 10.683594 L 17.933594 10.675781 L 17.929688 10.671875 L 17.925781 10.671875 L 17.921875 10.667969 L 17.914062 10.664062 L 17.914062 10.660156 L 17.910156 10.660156 L 17.902344 10.65625 L 17.894531 10.644531 L 17.898438 10.648438 L 17.894531 10.648438 L 17.886719 10.636719 L 17.886719 10.632812 L 17.875 10.621094 L 17.878906 10.625 L 17.875 10.621094 L 17.871094 10.613281 L 18.070312 10.503906 L 18.066406 10.5 L 18.066406 10.496094 L 18.070312 10.503906 L 18.0625 10.496094 L 18.066406 10.5 L 18.058594 10.492188 L 18.0625 10.496094 L 18.054688 10.492188 L 18.050781 10.488281 L 18.058594 10.488281 L 18.042969 10.480469 L 18.046875 10.484375 L 18.042969 10.480469 L 18.035156 10.476562 L 18.035156 10.480469 L 18.039062 10.480469 L 18.035156 10.480469 Z M 18.035156 10.476562 L 18.039062 10.480469 L 18.039062 10.476562 Z M 18.023438 10.476562 L 18.023438 10.699219 L 18.015625 10.699219 L 17.988281 10.695312 L 17.984375 10.695312 L 18.011719 10.699219 L 17.980469 10.695312 L 18.007812 10.699219 L 17.980469 10.695312 L 18.007812 10.699219 L 17.976562 10.695312 L 18.003906 10.699219 L 17.976562 10.695312 L 17.96875 10.695312 L 18.035156 10.480469 L 18.03125 10.480469 L 18.003906 10.476562 L 18.03125 10.480469 L 18.035156 10.480469 L 18.007812 10.476562 L 18.035156 10.480469 L 18.007812 10.476562 L 18.035156 10.480469 L 18.039062 10.480469 L 18.011719 10.476562 L 18.042969 10.480469 L 18.015625 10.476562 Z M 17.996094 10.484375 L 18.109375 10.675781 L 18.101562 10.679688 L 18.101562 10.683594 L 18.085938 10.6875 L 18.078125 10.691406 L 18.066406 10.695312 L 18.070312 10.691406 L 18.066406 10.691406 L 18.0625 10.695312 L 18.066406 10.691406 L 18.050781 10.695312 L 18.046875 10.695312 L 18.058594 10.695312 L 18.03125 10.695312 L 18.042969 10.695312 L 18.027344 10.695312 L 18.027344 10.472656 L 18.015625 10.472656 L 18.03125 10.472656 L 18.019531 10.472656 L 18.011719 10.476562 L 18.023438 10.472656 L 18.011719 10.476562 L 18.015625 10.476562 L 18.011719 10.476562 L 18.019531 10.476562 L 18.007812 10.476562 L 18.003906 10.480469 L 18.003906 10.476562 L 18.007812 10.476562 L 17.996094 10.480469 L 18 10.480469 L 17.996094 10.480469 Z M 18.109375 10.675781 L 18.105469 10.675781 Z M 18.980469 10.191406 L 18.109375 10.675781 L 17.996094 10.484375 L 18.867188 10 L 18.984375 10.1875 Z M 18.984375 10.1875 L 18.980469 10.191406 L 18.980469 10.1875 Z M 18.839844 10.03125 L 19.0625 10.089844 L 19.058594 10.09375 L 19.050781 10.117188 L 19.046875 10.121094 L 19.050781 10.117188 L 19.050781 10.121094 L 19.046875 10.121094 L 19.042969 10.132812 L 19.039062 10.136719 L 19.039062 10.140625 L 19.039062 10.136719 L 19.035156 10.144531 L 19.03125 10.148438 L 19.03125 10.152344 L 19.023438 10.15625 L 19.019531 10.164062 L 19.023438 10.160156 L 19.015625 10.164062 L 19.007812 10.175781 L 19.011719 10.171875 L 19.007812 10.171875 L 19.003906 10.179688 L 19 10.179688 L 18.988281 10.1875 L 18.863281 10 L 18.867188 10 L 18.859375 10.007812 L 18.859375 10.003906 L 18.855469 10.007812 L 18.859375 10.007812 L 18.863281 10 L 18.851562 10.011719 L 18.859375 10.007812 L 18.855469 10.007812 L 18.851562 10.011719 L 18.851562 10.015625 L 18.847656 10.019531 L 18.851562 10.011719 L 18.847656 10.015625 L 18.84375 10.023438 L 18.84375 10.019531 L 18.847656 10.015625 L 18.84375 10.027344 L 18.84375 10.019531 L 18.84375 10.027344 Z M 19.0625 10.089844 Z M 18.84375 10.070312 L 19.042969 9.960938 L 19.050781 9.96875 L 19.050781 9.976562 L 19.054688 9.980469 L 19.058594 9.988281 L 19.054688 9.984375 L 19.058594 9.992188 L 19.0625 10.003906 L 19.058594 9.996094 L 19.0625 10 L 19.0625 10.007812 L 19.066406 10.015625 L 19.066406 10.035156 L 19.070312 10.046875 L 19.070312 10.050781 L 19.066406 10.058594 L 19.066406 10.078125 L 19.0625 10.085938 L 19.0625 10.089844 L 18.839844 10.03125 L 18.839844 10.050781 L 18.839844 10.046875 L 18.839844 10.054688 L 18.839844 10.050781 L 18.839844 10.058594 L 18.839844 10.050781 L 18.839844 10.058594 L 18.84375 10.0625 L 18.839844 10.0625 L 18.839844 10.054688 L 18.839844 10.0625 L 18.84375 10.066406 L 18.839844 10.058594 L 18.84375 10.066406 L 18.84375 10.070312 L 18.847656 10.070312 Z M 19.042969 9.960938 L 19.042969 9.957031 Z M 18.949219 9.800781 L 19.042969 9.960938 L 18.84375 10.070312 L 18.75 9.910156 L 18.949219 9.796875 Z M 18.949219 9.800781 L 18.953125 9.804688 Z M 18.949219 9.800781 "/>
<path style="fill-rule:nonzero;fill:rgb(92.941176%,41.176471%,36.078431%);fill-opacity:1;stroke-width:7.18;stroke-linecap:butt;stroke-linejoin:miter;stroke:rgb(92.941176%,41.176471%,36.078431%);stroke-opacity:1;stroke-miterlimit:22.9256;" d="M 312.210543 63.748047 C 312.334956 63.8767 312.459368 63.941027 312.645988 63.941027 C 312.708194 63.941027 312.7704 63.941027 312.894813 63.8767 L 315.507481 62.39718 C 315.756307 62.268526 315.818513 61.946891 315.694101 61.75391 L 311.339653 54.163325 C 311.277447 54.034671 311.153034 53.970344 311.028622 53.970344 C 310.904209 53.906017 310.779796 53.906017 310.655383 53.970344 L 308.042715 55.514192 C 307.918302 55.578519 307.856096 55.642846 307.793889 55.7715 C 307.793889 55.900154 307.793889 56.028808 307.856096 56.157462 Z M 312.210543 63.748047 " transform="matrix(0.062795,0,0,0.0607249,0.000207709,2)"/>
<path style=" stroke:none;fill-rule:nonzero;fill:rgb(92.941176%,41.176471%,36.078431%);fill-opacity:1;" d="M 19.605469 5.871094 C 19.613281 5.878906 19.621094 5.882812 19.632812 5.882812 C 19.636719 5.882812 19.640625 5.882812 19.648438 5.878906 L 19.8125 5.789062 C 19.828125 5.78125 19.832031 5.761719 19.824219 5.75 L 19.550781 5.289062 C 19.546875 5.28125 19.539062 5.277344 19.53125 5.277344 C 19.523438 5.273438 19.515625 5.273438 19.507812 5.277344 L 19.34375 5.371094 C 19.335938 5.375 19.332031 5.378906 19.328125 5.386719 C 19.328125 5.394531 19.328125 5.402344 19.332031 5.410156 Z M 19.605469 5.871094 "/>
<path style=" stroke:none;fill-rule:nonzero;fill:rgb(92.941176%,41.176471%,36.078431%);fill-opacity:1;" d="M 19.632812 5.773438 L 19.632812 5.996094 L 19.613281 5.996094 L 19.597656 5.992188 L 19.585938 5.988281 L 19.597656 5.992188 L 19.582031 5.988281 L 19.582031 5.984375 L 19.574219 5.984375 L 19.5625 5.976562 L 19.570312 5.980469 L 19.5625 5.976562 L 19.550781 5.972656 L 19.550781 5.96875 L 19.542969 5.964844 L 19.519531 5.941406 L 19.519531 5.9375 L 19.523438 5.945312 L 19.515625 5.9375 L 19.511719 5.929688 L 19.507812 5.925781 L 19.707031 5.816406 L 19.707031 5.8125 L 19.703125 5.808594 L 19.699219 5.800781 L 19.707031 5.808594 L 19.691406 5.792969 L 19.675781 5.785156 L 19.671875 5.78125 L 19.675781 5.785156 L 19.664062 5.78125 L 19.660156 5.777344 L 19.664062 5.777344 L 19.652344 5.773438 L 19.664062 5.777344 L 19.664062 5.78125 L 19.640625 5.773438 L 19.628906 5.773438 Z M 19.589844 5.785156 L 19.707031 5.976562 L 19.691406 5.980469 L 19.699219 5.980469 L 19.691406 5.984375 L 19.6875 5.984375 L 19.695312 5.980469 L 19.671875 5.988281 L 19.695312 5.980469 L 19.6875 5.984375 L 19.664062 5.988281 L 19.671875 5.988281 L 19.695312 5.980469 L 19.671875 5.988281 L 19.667969 5.988281 L 19.691406 5.980469 L 19.667969 5.988281 L 19.660156 5.988281 L 19.664062 5.988281 L 19.636719 5.992188 L 19.664062 5.988281 L 19.660156 5.988281 L 19.632812 5.992188 L 19.632812 5.769531 L 19.605469 5.773438 L 19.636719 5.769531 L 19.609375 5.773438 L 19.613281 5.769531 L 19.617188 5.769531 L 19.609375 5.773438 L 19.613281 5.773438 L 19.589844 5.78125 L 19.613281 5.773438 L 19.589844 5.78125 L 19.617188 5.773438 L 19.621094 5.769531 L 19.601562 5.777344 L 19.59375 5.78125 L 19.617188 5.769531 L 19.59375 5.78125 L 19.605469 5.777344 L 19.597656 5.78125 L 19.605469 5.777344 L 19.589844 5.78125 Z M 19.707031 5.976562 L 19.699219 5.980469 L 19.691406 5.980469 Z M 19.871094 5.882812 L 19.707031 5.976562 L 19.589844 5.785156 L 19.753906 5.691406 L 19.757812 5.691406 Z M 19.753906 5.691406 L 19.757812 5.691406 L 19.761719 5.6875 Z M 19.722656 5.804688 L 19.921875 5.691406 L 19.925781 5.699219 L 19.925781 5.703125 L 19.929688 5.703125 L 19.933594 5.710938 L 19.9375 5.726562 L 19.9375 5.730469 L 19.941406 5.75 L 19.941406 5.785156 L 19.9375 5.785156 L 19.9375 5.796875 L 19.933594 5.804688 L 19.929688 5.816406 L 19.921875 5.828125 L 19.914062 5.84375 L 19.910156 5.847656 L 19.910156 5.851562 L 19.90625 5.855469 L 19.894531 5.863281 L 19.886719 5.871094 L 19.890625 5.867188 L 19.882812 5.875 L 19.871094 5.882812 L 19.867188 5.882812 L 19.753906 5.691406 L 19.746094 5.695312 L 19.738281 5.703125 L 19.746094 5.699219 L 19.742188 5.703125 L 19.734375 5.707031 L 19.730469 5.710938 L 19.730469 5.714844 L 19.722656 5.722656 L 19.71875 5.734375 L 19.71875 5.730469 L 19.714844 5.738281 L 19.714844 5.742188 L 19.710938 5.75 L 19.710938 5.769531 L 19.710938 5.765625 L 19.71875 5.796875 L 19.722656 5.800781 L 19.722656 5.796875 L 19.726562 5.804688 Z M 19.726562 5.808594 L 19.726562 5.804688 L 19.722656 5.804688 L 19.726562 5.804688 Z M 19.648438 5.234375 L 19.921875 5.691406 L 19.722656 5.804688 L 19.449219 5.34375 Z M 19.449219 5.34375 Z M 19.5 5.382812 L 19.558594 5.167969 L 19.570312 5.167969 L 19.601562 5.183594 L 19.589844 5.175781 L 19.597656 5.179688 L 19.609375 5.191406 L 19.605469 5.183594 L 19.613281 5.191406 L 19.605469 5.1875 L 19.613281 5.191406 L 19.625 5.199219 L 19.625 5.203125 L 19.644531 5.222656 L 19.636719 5.214844 L 19.652344 5.238281 L 19.648438 5.234375 L 19.449219 5.339844 L 19.445312 5.335938 L 19.460938 5.355469 L 19.457031 5.355469 L 19.453125 5.347656 L 19.464844 5.359375 L 19.460938 5.359375 L 19.472656 5.367188 L 19.480469 5.371094 L 19.46875 5.367188 L 19.46875 5.363281 L 19.476562 5.371094 L 19.46875 5.363281 L 19.480469 5.371094 L 19.488281 5.375 L 19.472656 5.367188 L 19.484375 5.375 L 19.5 5.378906 L 19.496094 5.378906 L 19.503906 5.382812 Z M 19.503906 5.382812 L 19.496094 5.382812 Z M 19.566406 5.375 L 19.453125 5.183594 L 19.445312 5.1875 L 19.460938 5.179688 L 19.449219 5.183594 L 19.460938 5.175781 L 19.476562 5.171875 L 19.464844 5.175781 L 19.480469 5.171875 L 19.5 5.167969 L 19.488281 5.167969 L 19.503906 5.164062 L 19.5 5.167969 L 19.519531 5.164062 L 19.503906 5.167969 L 19.523438 5.164062 L 19.542969 5.164062 L 19.542969 5.167969 L 19.527344 5.164062 L 19.566406 5.171875 L 19.558594 5.167969 L 19.5 5.382812 L 19.496094 5.382812 L 19.515625 5.386719 L 19.507812 5.386719 L 19.527344 5.386719 L 19.507812 5.386719 L 19.523438 5.386719 L 19.542969 5.382812 L 19.539062 5.382812 L 19.519531 5.386719 L 19.539062 5.382812 L 19.535156 5.386719 L 19.550781 5.382812 L 19.535156 5.386719 L 19.554688 5.382812 L 19.566406 5.375 L 19.550781 5.382812 L 19.566406 5.375 L 19.578125 5.367188 L 19.5625 5.375 L 19.574219 5.371094 L 19.570312 5.375 Z M 19.570312 5.371094 L 19.566406 5.375 Z M 19.285156 5.273438 L 19.453125 5.183594 L 19.566406 5.375 L 19.402344 5.464844 L 19.398438 5.46875 Z M 19.402344 5.464844 L 19.398438 5.46875 L 19.394531 5.46875 Z M 19.441406 5.417969 L 19.21875 5.359375 L 19.21875 5.351562 L 19.21875 5.355469 L 19.222656 5.339844 L 19.226562 5.335938 L 19.222656 5.347656 L 19.226562 5.332031 L 19.234375 5.324219 L 19.230469 5.332031 L 19.238281 5.316406 L 19.234375 5.320312 L 19.242188 5.308594 L 19.246094 5.308594 L 19.246094 5.304688 L 19.265625 5.285156 L 19.257812 5.296875 L 19.25 5.304688 L 19.265625 5.285156 L 19.28125 5.277344 L 19.269531 5.285156 L 19.285156 5.273438 L 19.292969 5.269531 L 19.285156 5.273438 L 19.398438 5.464844 L 19.394531 5.46875 L 19.402344 5.464844 L 19.414062 5.457031 L 19.410156 5.457031 L 19.398438 5.46875 L 19.410156 5.460938 L 19.425781 5.441406 L 19.417969 5.453125 L 19.410156 5.460938 L 19.425781 5.445312 L 19.421875 5.445312 L 19.421875 5.449219 L 19.429688 5.4375 L 19.425781 5.441406 L 19.433594 5.429688 L 19.429688 5.4375 L 19.433594 5.433594 L 19.4375 5.417969 L 19.433594 5.433594 L 19.433594 5.429688 L 19.4375 5.417969 L 19.4375 5.421875 L 19.4375 5.417969 Z M 19.21875 5.359375 L 19.21875 5.355469 Z M 19.429688 5.355469 L 19.234375 5.464844 L 19.230469 5.460938 L 19.230469 5.457031 L 19.222656 5.445312 L 19.230469 5.457031 L 19.222656 5.441406 L 19.226562 5.449219 L 19.222656 5.441406 L 19.214844 5.421875 L 19.214844 5.417969 L 19.21875 5.433594 L 19.21875 5.4375 L 19.214844 5.417969 L 19.214844 5.414062 L 19.214844 5.417969 L 19.214844 5.371094 L 19.21875 5.355469 L 19.21875 5.359375 L 19.441406 5.417969 L 19.4375 5.425781 L 19.441406 5.410156 L 19.441406 5.40625 L 19.441406 5.410156 L 19.445312 5.394531 L 19.445312 5.398438 L 19.441406 5.378906 L 19.441406 5.382812 L 19.4375 5.367188 L 19.441406 5.371094 L 19.445312 5.386719 L 19.441406 5.367188 L 19.441406 5.371094 L 19.4375 5.363281 L 19.441406 5.371094 L 19.433594 5.359375 L 19.441406 5.375 L 19.433594 5.359375 L 19.433594 5.355469 Z M 19.234375 5.464844 L 19.230469 5.460938 L 19.230469 5.464844 Z M 19.507812 5.925781 L 19.234375 5.464844 L 19.429688 5.355469 L 19.707031 5.8125 Z M 19.707031 5.8125 L 19.710938 5.820312 Z M 19.707031 5.8125 "/>
<path style="fill-rule:nonzero;fill:rgb(92.941176%,41.176471%,36.078431%);fill-opacity:1;stroke-width:7.18;stroke-linecap:butt;stroke-linejoin:miter;stroke:rgb(92.941176%,41.176471%,36.078431%);stroke-opacity:1;stroke-miterlimit:22.9256;" d="M 288.758735 109.548863 L 288.758735 106.525494 C 288.758735 106.010879 288.323291 105.56059 287.82564 105.56059 L 279.054539 105.56059 C 278.556888 105.56059 278.121443 106.010879 278.121443 106.525494 L 278.121443 109.548863 C 278.121443 110.063479 278.556888 110.513768 279.054539 110.513768 L 287.82564 110.513768 C 288.323291 110.513768 288.758735 110.063479 288.758735 109.548863 Z M 288.758735 109.548863 " transform="matrix(0.062795,0,0,0.0607249,0.000207709,2)"/>
<path style="fill-rule:nonzero;fill:rgb(92.941176%,41.176471%,36.078431%);fill-opacity:1;stroke-width:7.18;stroke-linecap:butt;stroke-linejoin:miter;stroke:rgb(92.941176%,41.176471%,36.078431%);stroke-opacity:1;stroke-miterlimit:22.9256;" d="M 315.507481 153.677178 L 312.894813 152.197657 C 312.645988 152.069003 312.334956 152.13333 312.210543 152.326311 L 307.856096 159.916896 C 307.731683 160.109877 307.793889 160.431512 308.042715 160.560166 L 310.655383 162.039686 C 310.779796 162.104013 310.842002 162.104013 310.904209 162.104013 C 310.966415 162.104013 310.966415 162.104013 311.028622 162.104013 C 311.153034 162.104013 311.215241 162.039686 311.339653 161.911032 L 315.694101 154.320448 C 315.756307 154.256121 315.756307 154.127467 315.694101 153.998813 C 315.694101 153.870159 315.631894 153.741505 315.507481 153.677178 Z M 315.507481 153.677178 " transform="matrix(0.062795,0,0,0.0607249,0.000207709,2)"/>
<path style=" stroke:none;fill-rule:nonzero;fill:rgb(92.941176%,41.176471%,36.078431%);fill-opacity:1;" d="M 19.8125 11.332031 L 19.648438 11.242188 C 19.632812 11.234375 19.613281 11.238281 19.605469 11.25 L 19.332031 11.710938 C 19.324219 11.722656 19.328125 11.742188 19.34375 11.75 L 19.507812 11.839844 C 19.515625 11.84375 19.519531 11.84375 19.523438 11.84375 C 19.527344 11.84375 19.527344 11.84375 19.53125 11.84375 C 19.539062 11.84375 19.542969 11.839844 19.550781 11.832031 L 19.824219 11.371094 C 19.828125 11.367188 19.828125 11.359375 19.824219 11.351562 C 19.824219 11.34375 19.820312 11.335938 19.8125 11.332031 Z M 19.8125 11.332031 "/>
<path style=" stroke:none;fill-rule:nonzero;fill:rgb(92.941176%,41.176471%,36.078431%);fill-opacity:1;" d="M 19.703125 11.144531 L 19.871094 11.234375 L 19.753906 11.429688 L 19.589844 11.335938 L 19.585938 11.335938 Z M 19.589844 11.335938 L 19.585938 11.335938 Z M 19.707031 11.304688 L 19.507812 11.195312 L 19.507812 11.191406 L 19.511719 11.191406 L 19.519531 11.179688 L 19.523438 11.171875 L 19.519531 11.175781 L 19.53125 11.167969 L 19.542969 11.15625 L 19.550781 11.152344 L 19.554688 11.148438 L 19.5625 11.144531 L 19.574219 11.136719 L 19.578125 11.136719 L 19.585938 11.132812 L 19.597656 11.128906 L 19.601562 11.128906 L 19.621094 11.125 L 19.644531 11.125 L 19.65625 11.128906 L 19.664062 11.128906 L 19.675781 11.132812 L 19.679688 11.132812 L 19.695312 11.140625 L 19.699219 11.140625 L 19.707031 11.144531 L 19.589844 11.335938 L 19.59375 11.339844 L 19.601562 11.339844 L 19.605469 11.34375 L 19.613281 11.34375 L 19.621094 11.347656 L 19.628906 11.347656 L 19.625 11.347656 L 19.640625 11.347656 L 19.636719 11.347656 L 19.65625 11.34375 L 19.652344 11.34375 L 19.660156 11.34375 L 19.667969 11.339844 L 19.664062 11.339844 L 19.664062 11.34375 L 19.671875 11.335938 L 19.679688 11.335938 L 19.6875 11.328125 L 19.683594 11.328125 L 19.683594 11.332031 L 19.699219 11.316406 L 19.695312 11.320312 L 19.699219 11.316406 L 19.703125 11.308594 Z M 19.507812 11.195312 L 19.507812 11.191406 Z M 19.234375 11.65625 L 19.507812 11.195312 L 19.707031 11.304688 L 19.433594 11.765625 Z M 19.234375 11.65625 L 19.242188 11.644531 Z M 19.402344 11.652344 L 19.285156 11.847656 L 19.289062 11.847656 L 19.285156 11.84375 L 19.273438 11.839844 L 19.261719 11.828125 L 19.253906 11.824219 L 19.246094 11.8125 L 19.238281 11.804688 L 19.222656 11.78125 L 19.222656 11.769531 L 19.222656 11.773438 L 19.214844 11.75 L 19.214844 11.703125 L 19.21875 11.691406 L 19.222656 11.683594 L 19.222656 11.675781 L 19.230469 11.664062 L 19.234375 11.65625 L 19.433594 11.765625 L 19.433594 11.761719 L 19.4375 11.753906 L 19.441406 11.75 L 19.4375 11.753906 L 19.441406 11.746094 L 19.441406 11.734375 L 19.445312 11.726562 L 19.441406 11.71875 L 19.441406 11.710938 L 19.441406 11.714844 L 19.441406 11.707031 L 19.4375 11.695312 L 19.441406 11.703125 L 19.429688 11.679688 L 19.414062 11.664062 L 19.414062 11.667969 L 19.410156 11.664062 L 19.410156 11.660156 L 19.398438 11.65625 L 19.402344 11.65625 Z M 19.398438 11.652344 L 19.402344 11.652344 L 19.40625 11.65625 Z M 19.453125 11.9375 L 19.285156 11.847656 L 19.398438 11.652344 L 19.566406 11.746094 L 19.574219 11.75 Z M 19.566406 11.746094 L 19.570312 11.75 L 19.574219 11.75 Z M 19.523438 11.734375 L 19.523438 11.957031 L 19.519531 11.957031 L 19.492188 11.953125 L 19.519531 11.957031 L 19.515625 11.957031 L 19.492188 11.953125 L 19.488281 11.953125 L 19.515625 11.957031 L 19.488281 11.953125 L 19.484375 11.953125 L 19.460938 11.945312 L 19.476562 11.949219 L 19.460938 11.945312 L 19.457031 11.945312 L 19.4375 11.933594 L 19.570312 11.753906 L 19.574219 11.757812 L 19.558594 11.746094 L 19.5625 11.746094 L 19.546875 11.742188 L 19.5625 11.746094 L 19.539062 11.738281 L 19.542969 11.738281 L 19.515625 11.734375 L 19.542969 11.738281 L 19.539062 11.738281 L 19.515625 11.734375 L 19.519531 11.734375 L 19.546875 11.738281 L 19.519531 11.734375 Z M 19.496094 11.738281 L 19.5625 11.953125 L 19.582031 11.945312 L 19.53125 11.957031 L 19.582031 11.945312 L 19.53125 11.957031 L 19.527344 11.957031 L 19.578125 11.945312 L 19.527344 11.957031 L 19.527344 11.734375 L 19.476562 11.746094 L 19.527344 11.734375 L 19.53125 11.734375 L 19.480469 11.746094 L 19.53125 11.734375 L 19.480469 11.746094 Z M 19.5625 11.953125 L 19.609375 11.9375 Z M 19.449219 11.777344 L 19.648438 11.886719 L 19.644531 11.894531 L 19.636719 11.902344 L 19.644531 11.894531 L 19.636719 11.902344 L 19.628906 11.914062 L 19.636719 11.90625 L 19.617188 11.925781 L 19.625 11.917969 L 19.613281 11.925781 L 19.625 11.917969 L 19.613281 11.925781 L 19.605469 11.933594 L 19.613281 11.925781 L 19.597656 11.9375 L 19.609375 11.929688 L 19.589844 11.941406 L 19.59375 11.9375 L 19.570312 11.949219 L 19.5625 11.949219 L 19.496094 11.738281 L 19.480469 11.746094 L 19.480469 11.742188 L 19.484375 11.742188 L 19.476562 11.746094 L 19.484375 11.742188 L 19.464844 11.753906 L 19.480469 11.746094 L 19.46875 11.753906 L 19.476562 11.746094 L 19.460938 11.761719 L 19.46875 11.753906 L 19.460938 11.761719 L 19.460938 11.757812 L 19.472656 11.75 L 19.453125 11.769531 L 19.457031 11.769531 L 19.464844 11.757812 L 19.449219 11.773438 L 19.457031 11.765625 L 19.453125 11.769531 Z M 19.648438 11.886719 L 19.648438 11.890625 L 19.644531 11.894531 Z M 19.921875 11.429688 L 19.648438 11.886719 L 19.449219 11.777344 L 19.722656 11.316406 L 19.921875 11.425781 Z M 19.921875 11.425781 L 19.921875 11.429688 L 19.925781 11.421875 Z M 19.71875 11.386719 L 19.933594 11.3125 L 19.9375 11.320312 L 19.933594 11.316406 L 19.941406 11.335938 L 19.941406 11.378906 L 19.941406 11.375 L 19.941406 11.378906 L 19.9375 11.390625 L 19.9375 11.394531 L 19.9375 11.382812 L 19.929688 11.414062 L 19.925781 11.414062 L 19.933594 11.402344 L 19.925781 11.417969 L 19.933594 11.402344 L 19.921875 11.425781 L 19.722656 11.316406 L 19.722656 11.320312 L 19.714844 11.335938 L 19.722656 11.320312 L 19.714844 11.332031 L 19.722656 11.316406 L 19.714844 11.332031 L 19.710938 11.347656 L 19.714844 11.332031 L 19.714844 11.34375 L 19.710938 11.359375 L 19.710938 11.355469 L 19.714844 11.371094 L 19.710938 11.367188 L 19.71875 11.386719 L 19.714844 11.378906 L 19.71875 11.390625 Z M 19.933594 11.3125 L 19.9375 11.316406 L 19.9375 11.320312 Z M 19.753906 11.429688 L 19.871094 11.238281 L 19.867188 11.234375 L 19.875 11.242188 L 19.863281 11.234375 L 19.886719 11.246094 L 19.878906 11.242188 L 19.886719 11.25 L 19.898438 11.257812 L 19.890625 11.25 L 19.910156 11.269531 L 19.921875 11.285156 L 19.917969 11.28125 L 19.921875 11.285156 L 19.925781 11.296875 L 19.921875 11.289062 L 19.933594 11.3125 L 19.929688 11.296875 L 19.925781 11.292969 L 19.933594 11.308594 L 19.933594 11.316406 L 19.933594 11.3125 L 19.71875 11.386719 L 19.71875 11.390625 L 19.730469 11.40625 L 19.722656 11.398438 L 19.71875 11.382812 L 19.726562 11.402344 L 19.722656 11.394531 L 19.730469 11.402344 L 19.726562 11.398438 L 19.734375 11.410156 L 19.734375 11.40625 L 19.730469 11.40625 L 19.746094 11.421875 L 19.738281 11.414062 L 19.746094 11.421875 L 19.753906 11.425781 L 19.746094 11.421875 L 19.757812 11.429688 L 19.761719 11.433594 L 19.75 11.425781 L 19.757812 11.429688 L 19.753906 11.425781 Z M 19.757812 11.429688 L 19.753906 11.429688 L 19.742188 11.421875 Z M 19.757812 11.429688 "/>
<path style="fill-rule:nonzero;fill:rgb(92.941176%,41.176471%,36.078431%);fill-opacity:1;stroke-width:7.18;stroke-linecap:butt;stroke-linejoin:miter;stroke:rgb(92.941176%,41.176471%,36.078431%);stroke-opacity:1;stroke-miterlimit:22.9256;" d="M 393.32767 137.016487 L 379.455646 128.975614 C 379.269027 128.911287 379.082408 128.84696 378.957995 128.84696 C 378.646963 128.84696 378.335931 129.039941 378.149312 129.297249 L 376.594152 131.934655 C 376.469739 132.191963 376.469739 132.449271 376.531946 132.706579 C 376.594152 132.89956 376.718565 133.092541 376.967391 133.221195 L 390.839415 141.262069 C 391.026034 141.390723 391.274859 141.390723 391.523685 141.326396 C 391.77251 141.262069 391.95913 141.133415 392.083542 140.940434 L 393.638702 138.2387 C 393.887528 137.788411 393.763115 137.273795 393.265464 136.95216 Z M 393.32767 137.016487 " transform="matrix(0.062795,0,0,0.0607249,0.000207709,2)"/>
<path style=" stroke:none;fill-rule:nonzero;fill:rgb(92.941176%,41.176471%,36.078431%);fill-opacity:1;" d="M 24.699219 10.320312 L 23.828125 9.832031 C 23.816406 9.828125 23.804688 9.824219 23.796875 9.824219 C 23.777344 9.824219 23.757812 9.835938 23.746094 9.851562 L 23.648438 10.011719 C 23.640625 10.027344 23.640625 10.042969 23.644531 10.058594 C 23.648438 10.070312 23.65625 10.082031 23.671875 10.089844 L 24.542969 10.578125 C 24.554688 10.585938 24.570312 10.585938 24.585938 10.582031 C 24.601562 10.578125 24.613281 10.570312 24.621094 10.558594 L 24.71875 10.394531 C 24.734375 10.367188 24.726562 10.335938 24.695312 10.316406 Z M 24.699219 10.320312 "/>
<path style=" stroke:none;fill-rule:nonzero;fill:rgb(92.941176%,41.176471%,36.078431%);fill-opacity:1;" d="M 23.882812 9.738281 L 24.753906 10.222656 L 24.640625 10.414062 L 23.769531 9.929688 Z M 23.769531 9.929688 L 23.777344 9.933594 Z M 23.796875 9.9375 L 23.796875 9.714844 L 23.816406 9.714844 L 23.800781 9.714844 L 23.816406 9.714844 L 23.832031 9.71875 L 23.820312 9.714844 L 23.832031 9.71875 L 23.839844 9.71875 L 23.851562 9.722656 L 23.855469 9.722656 L 23.839844 9.71875 L 23.851562 9.722656 L 23.867188 9.726562 L 23.855469 9.722656 L 23.859375 9.722656 L 23.871094 9.726562 L 23.871094 9.730469 L 23.859375 9.726562 L 23.882812 9.734375 L 23.875 9.730469 L 23.882812 9.734375 L 23.765625 9.925781 L 23.773438 9.929688 L 23.769531 9.929688 L 23.761719 9.921875 L 23.78125 9.933594 L 23.777344 9.933594 L 23.765625 9.925781 L 23.777344 9.929688 L 23.765625 9.925781 L 23.789062 9.933594 L 23.773438 9.929688 L 23.769531 9.929688 L 23.78125 9.933594 L 23.785156 9.933594 L 23.78125 9.933594 L 23.789062 9.933594 L 23.773438 9.933594 L 23.800781 9.933594 L 23.785156 9.933594 L 23.796875 9.933594 Z M 23.84375 9.910156 L 23.644531 9.800781 L 23.648438 9.796875 L 23.65625 9.78125 L 23.683594 9.753906 L 23.695312 9.746094 L 23.695312 9.742188 L 23.71875 9.730469 L 23.722656 9.726562 L 23.726562 9.726562 L 23.742188 9.71875 L 23.753906 9.71875 L 23.757812 9.714844 L 23.777344 9.714844 L 23.785156 9.710938 L 23.796875 9.710938 L 23.796875 9.933594 L 23.800781 9.933594 L 23.796875 9.933594 L 23.8125 9.933594 L 23.808594 9.933594 L 23.8125 9.933594 L 23.816406 9.929688 L 23.820312 9.929688 L 23.828125 9.925781 L 23.832031 9.921875 L 23.828125 9.925781 L 23.832031 9.921875 L 23.832031 9.917969 L 23.835938 9.914062 L 23.832031 9.917969 L 23.835938 9.917969 L 23.839844 9.914062 L 23.839844 9.910156 L 23.839844 9.914062 L 23.839844 9.910156 L 23.84375 9.90625 Z M 23.847656 9.910156 L 23.84375 9.910156 L 23.84375 9.914062 L 23.84375 9.90625 Z M 23.550781 9.960938 L 23.644531 9.800781 L 23.84375 9.910156 L 23.75 10.070312 Z M 23.75 10.070312 Z M 23.753906 10.03125 L 23.535156 10.085938 L 23.53125 10.082031 L 23.53125 10.070312 L 23.53125 10.078125 L 23.527344 10.058594 L 23.527344 10.066406 L 23.527344 10.019531 L 23.53125 10.015625 L 23.53125 10 L 23.535156 9.996094 L 23.535156 9.988281 L 23.539062 9.988281 L 23.539062 9.976562 L 23.542969 9.976562 L 23.550781 9.960938 L 23.550781 9.957031 L 23.75 10.070312 L 23.75 10.066406 L 23.753906 10.058594 L 23.753906 10.0625 L 23.753906 10.054688 L 23.753906 10.058594 L 23.753906 10.054688 L 23.757812 10.046875 L 23.757812 10.050781 L 23.757812 10.042969 L 23.757812 10.046875 L 23.757812 10.039062 L 23.757812 10.042969 L 23.757812 10.03125 L 23.757812 10.042969 L 23.753906 10.027344 L 23.757812 10.039062 L 23.757812 10.03125 L 23.753906 10.027344 Z M 23.535156 10.085938 L 23.527344 10.0625 Z M 23.730469 9.996094 L 23.613281 10.1875 L 23.609375 10.1875 L 23.609375 10.183594 L 23.59375 10.175781 L 23.589844 10.175781 L 23.585938 10.171875 L 23.585938 10.167969 L 23.582031 10.167969 L 23.570312 10.15625 L 23.566406 10.148438 L 23.558594 10.144531 L 23.558594 10.140625 L 23.5625 10.148438 L 23.554688 10.140625 L 23.554688 10.132812 L 23.546875 10.125 L 23.539062 10.113281 L 23.539062 10.109375 L 23.539062 10.113281 L 23.535156 10.101562 L 23.535156 10.097656 L 23.53125 10.089844 L 23.753906 10.03125 L 23.75 10.027344 L 23.753906 10.027344 L 23.753906 10.03125 L 23.75 10.019531 L 23.753906 10.027344 L 23.75 10.019531 L 23.746094 10.015625 L 23.746094 10.011719 L 23.742188 10.007812 L 23.746094 10.015625 L 23.746094 10.011719 L 23.742188 10.007812 L 23.742188 10.011719 L 23.738281 10.007812 L 23.738281 10.003906 L 23.738281 10.007812 L 23.734375 10.003906 L 23.738281 10.003906 L 23.734375 10.003906 L 23.730469 10 L 23.734375 10 L 23.730469 10 Z M 23.613281 10.1875 L 23.609375 10.1875 Z M 24.484375 10.675781 L 23.613281 10.1875 L 23.730469 9.996094 L 24.601562 10.484375 Z M 24.601562 10.484375 L 24.597656 10.480469 Z M 24.558594 10.476562 L 24.617188 10.691406 L 24.613281 10.691406 L 24.601562 10.695312 L 24.574219 10.695312 L 24.582031 10.695312 L 24.5625 10.695312 L 24.566406 10.695312 L 24.539062 10.695312 L 24.527344 10.691406 L 24.519531 10.6875 L 24.515625 10.6875 L 24.492188 10.679688 L 24.488281 10.675781 L 24.492188 10.679688 L 24.480469 10.675781 L 24.597656 10.484375 L 24.59375 10.480469 L 24.597656 10.480469 L 24.597656 10.484375 L 24.597656 10.480469 L 24.589844 10.480469 L 24.59375 10.480469 L 24.585938 10.476562 L 24.574219 10.476562 L 24.582031 10.476562 L 24.566406 10.476562 L 24.578125 10.476562 L 24.5625 10.476562 L 24.574219 10.476562 L 24.558594 10.476562 L 24.566406 10.476562 Z M 24.617188 10.691406 L 24.609375 10.695312 Z M 24.523438 10.503906 L 24.722656 10.613281 L 24.71875 10.617188 L 24.714844 10.625 L 24.71875 10.621094 L 24.714844 10.628906 L 24.714844 10.625 L 24.714844 10.628906 L 24.695312 10.648438 L 24.699219 10.644531 L 24.695312 10.648438 L 24.683594 10.65625 L 24.683594 10.660156 L 24.679688 10.660156 L 24.667969 10.667969 L 24.664062 10.667969 L 24.664062 10.671875 L 24.640625 10.679688 L 24.648438 10.679688 L 24.636719 10.683594 L 24.628906 10.683594 L 24.628906 10.6875 L 24.621094 10.6875 L 24.617188 10.691406 L 24.558594 10.476562 L 24.550781 10.476562 L 24.542969 10.480469 L 24.550781 10.476562 L 24.554688 10.476562 L 24.546875 10.476562 L 24.539062 10.484375 L 24.539062 10.480469 L 24.542969 10.480469 L 24.535156 10.484375 L 24.539062 10.484375 L 24.527344 10.496094 L 24.535156 10.488281 L 24.53125 10.492188 L 24.53125 10.488281 L 24.523438 10.5 L 24.527344 10.496094 L 24.523438 10.5 L 24.527344 10.492188 L 24.527344 10.496094 L 24.523438 10.5 Z M 24.523438 10.503906 L 24.519531 10.507812 Z M 24.820312 10.453125 L 24.722656 10.613281 L 24.523438 10.503906 L 24.621094 10.339844 Z M 24.621094 10.339844 L 24.617188 10.34375 Z M 24.640625 10.414062 L 24.753906 10.222656 L 24.757812 10.222656 L 24.761719 10.226562 L 24.773438 10.234375 L 24.777344 10.238281 L 24.785156 10.242188 L 24.789062 10.246094 L 24.792969 10.253906 L 24.800781 10.257812 L 24.808594 10.269531 L 24.8125 10.273438 L 24.8125 10.277344 L 24.820312 10.285156 L 24.832031 10.308594 L 24.835938 10.320312 L 24.835938 10.324219 L 24.839844 10.328125 L 24.839844 10.335938 L 24.84375 10.347656 L 24.84375 10.378906 L 24.839844 10.390625 L 24.839844 10.402344 L 24.835938 10.414062 L 24.828125 10.429688 L 24.828125 10.4375 L 24.820312 10.445312 L 24.816406 10.453125 L 24.621094 10.339844 L 24.617188 10.34375 L 24.617188 10.347656 L 24.613281 10.351562 L 24.613281 10.359375 L 24.613281 10.355469 L 24.613281 10.382812 L 24.613281 10.378906 L 24.613281 10.382812 L 24.617188 10.386719 L 24.617188 10.390625 L 24.625 10.398438 L 24.621094 10.398438 L 24.628906 10.40625 L 24.632812 10.40625 L 24.632812 10.410156 L 24.636719 10.414062 Z M 24.753906 10.222656 L 24.757812 10.222656 L 24.75 10.21875 Z M 24.753906 10.222656 "/>
<path style="fill-rule:nonzero;fill:rgb(92.941176%,41.176471%,36.078431%);fill-opacity:1;stroke-width:7.18;stroke-linecap:butt;stroke-linejoin:miter;stroke:rgb(92.941176%,41.176471%,36.078431%);stroke-opacity:1;stroke-miterlimit:22.9256;" d="M 378.149312 86.712782 C 378.398137 87.163071 378.957995 87.356052 379.455646 87.034417 L 393.32767 79.05787 C 393.763115 78.800562 393.887528 78.221619 393.638702 77.77133 L 392.145749 75.133924 C 392.021336 74.876616 391.77251 74.747962 391.523685 74.683635 C 391.461478 74.619308 391.399272 74.619308 391.337066 74.619308 C 391.150447 74.619308 390.963827 74.683635 390.839415 74.747962 L 376.967391 82.788835 C 376.780771 82.917489 376.594152 83.11047 376.531946 83.367778 C 376.469739 83.560759 376.469739 83.818067 376.656359 84.075375 Z M 378.149312 86.712782 " transform="matrix(0.062795,0,0,0.0607249,0.000207709,2)"/>
<path style=" stroke:none;fill-rule:nonzero;fill:rgb(92.941176%,41.176471%,36.078431%);fill-opacity:1;" d="M 23.746094 7.265625 C 23.761719 7.292969 23.796875 7.304688 23.828125 7.285156 L 24.699219 6.800781 C 24.726562 6.785156 24.734375 6.75 24.71875 6.722656 L 24.625 6.5625 C 24.617188 6.546875 24.601562 6.539062 24.585938 6.535156 C 24.582031 6.53125 24.578125 6.53125 24.574219 6.53125 C 24.5625 6.53125 24.550781 6.535156 24.542969 6.539062 L 23.671875 7.027344 C 23.660156 7.035156 23.648438 7.046875 23.644531 7.0625 C 23.640625 7.074219 23.640625 7.089844 23.652344 7.105469 Z M 23.746094 7.265625 "/>
<path style=" stroke:none;fill-rule:nonzero;fill:rgb(92.941176%,41.176471%,36.078431%);fill-opacity:1;" d="M 23.769531 7.191406 L 23.882812 7.382812 L 23.886719 7.382812 L 23.878906 7.386719 L 23.867188 7.390625 L 23.859375 7.394531 L 23.855469 7.398438 L 23.84375 7.398438 L 23.835938 7.402344 L 23.828125 7.402344 L 23.816406 7.40625 L 23.773438 7.40625 L 23.769531 7.402344 L 23.761719 7.402344 L 23.75 7.398438 L 23.738281 7.398438 L 23.730469 7.394531 L 23.71875 7.390625 L 23.710938 7.386719 L 23.703125 7.378906 L 23.699219 7.378906 L 23.6875 7.367188 L 23.679688 7.363281 L 23.664062 7.347656 L 23.660156 7.339844 L 23.644531 7.324219 L 23.84375 7.210938 L 23.839844 7.207031 L 23.84375 7.207031 L 23.839844 7.207031 L 23.832031 7.199219 L 23.832031 7.195312 L 23.828125 7.195312 L 23.824219 7.191406 L 23.820312 7.191406 L 23.816406 7.1875 L 23.8125 7.1875 L 23.816406 7.1875 L 23.8125 7.1875 L 23.804688 7.183594 L 23.789062 7.183594 L 23.78125 7.1875 L 23.773438 7.1875 L 23.773438 7.191406 L 23.765625 7.191406 Z M 23.769531 7.191406 L 23.773438 7.1875 Z M 24.753906 6.898438 L 23.882812 7.382812 L 23.769531 7.191406 L 24.640625 6.703125 L 24.757812 6.894531 L 24.753906 6.894531 Z M 24.757812 6.894531 L 24.753906 6.898438 L 24.75 6.898438 Z M 24.621094 6.777344 L 24.820312 6.667969 L 24.816406 6.667969 L 24.820312 6.671875 L 24.828125 6.683594 L 24.828125 6.6875 L 24.832031 6.695312 L 24.839844 6.71875 L 24.839844 6.726562 L 24.84375 6.738281 L 24.84375 6.769531 L 24.839844 6.78125 L 24.839844 6.792969 L 24.828125 6.816406 L 24.828125 6.824219 L 24.820312 6.832031 L 24.816406 6.84375 L 24.8125 6.84375 L 24.808594 6.851562 L 24.800781 6.859375 L 24.796875 6.867188 L 24.789062 6.871094 L 24.773438 6.886719 L 24.761719 6.890625 L 24.757812 6.894531 L 24.640625 6.703125 L 24.636719 6.703125 L 24.632812 6.707031 L 24.632812 6.710938 L 24.628906 6.710938 L 24.621094 6.71875 L 24.625 6.71875 L 24.617188 6.726562 L 24.617188 6.730469 L 24.613281 6.734375 L 24.613281 6.738281 L 24.613281 6.734375 L 24.613281 6.761719 L 24.613281 6.757812 L 24.613281 6.765625 L 24.617188 6.773438 Z M 24.621094 6.78125 L 24.621094 6.777344 L 24.617188 6.773438 Z M 24.722656 6.507812 L 24.816406 6.667969 L 24.617188 6.777344 L 24.523438 6.617188 Z M 24.523438 6.617188 Z M 24.554688 6.640625 L 24.617188 6.429688 L 24.613281 6.429688 L 24.617188 6.429688 L 24.636719 6.433594 L 24.632812 6.433594 L 24.640625 6.433594 L 24.648438 6.4375 L 24.644531 6.4375 L 24.65625 6.441406 L 24.664062 6.449219 L 24.667969 6.449219 L 24.671875 6.453125 L 24.679688 6.457031 L 24.6875 6.464844 L 24.695312 6.46875 L 24.714844 6.488281 L 24.714844 6.496094 L 24.714844 6.492188 L 24.71875 6.496094 L 24.71875 6.5 L 24.722656 6.507812 L 24.523438 6.613281 L 24.527344 6.617188 L 24.523438 6.617188 L 24.527344 6.621094 L 24.523438 6.613281 L 24.523438 6.617188 L 24.535156 6.628906 L 24.53125 6.625 L 24.539062 6.632812 L 24.535156 6.628906 L 24.542969 6.632812 L 24.542969 6.636719 L 24.542969 6.632812 L 24.546875 6.636719 L 24.554688 6.640625 L 24.546875 6.636719 L 24.550781 6.640625 L 24.558594 6.640625 L 24.550781 6.640625 L 24.546875 6.636719 L 24.566406 6.644531 L 24.558594 6.644531 Z M 24.558594 6.644531 L 24.554688 6.640625 L 24.5625 6.644531 Z M 24.570312 6.644531 L 24.570312 6.421875 L 24.574219 6.421875 L 24.605469 6.425781 L 24.578125 6.421875 L 24.605469 6.425781 L 24.609375 6.425781 L 24.582031 6.421875 L 24.609375 6.425781 L 24.582031 6.421875 L 24.613281 6.425781 L 24.609375 6.425781 L 24.585938 6.421875 L 24.613281 6.425781 L 24.640625 6.433594 L 24.617188 6.425781 L 24.609375 6.421875 L 24.613281 6.421875 L 24.617188 6.425781 L 24.621094 6.425781 L 24.558594 6.640625 L 24.566406 6.640625 L 24.5625 6.640625 L 24.535156 6.632812 L 24.558594 6.640625 L 24.585938 6.644531 L 24.5625 6.640625 L 24.554688 6.640625 L 24.582031 6.644531 L 24.554688 6.640625 L 24.582031 6.644531 L 24.578125 6.644531 L 24.550781 6.640625 L 24.578125 6.644531 L 24.546875 6.640625 L 24.574219 6.644531 Z M 24.597656 6.636719 L 24.484375 6.445312 L 24.492188 6.441406 L 24.488281 6.445312 L 24.488281 6.441406 L 24.496094 6.441406 L 24.496094 6.4375 L 24.507812 6.433594 L 24.496094 6.4375 L 24.507812 6.433594 L 24.511719 6.433594 L 24.527344 6.429688 L 24.53125 6.425781 L 24.53125 6.429688 L 24.546875 6.425781 L 24.535156 6.425781 L 24.550781 6.425781 L 24.5625 6.421875 L 24.550781 6.425781 L 24.554688 6.425781 L 24.566406 6.421875 L 24.570312 6.421875 L 24.570312 6.644531 L 24.566406 6.644531 L 24.578125 6.644531 L 24.5625 6.644531 L 24.589844 6.644531 L 24.574219 6.644531 L 24.585938 6.644531 L 24.582031 6.644531 L 24.59375 6.640625 L 24.589844 6.640625 L 24.601562 6.636719 L 24.589844 6.640625 L 24.597656 6.636719 L 24.597656 6.640625 L 24.601562 6.636719 L 24.59375 6.640625 L 24.601562 6.636719 Z M 24.484375 6.445312 Z M 23.613281 6.929688 L 24.484375 6.445312 L 24.597656 6.636719 L 23.730469 7.125 Z M 23.730469 7.125 L 23.773438 7.097656 Z M 23.753906 7.089844 L 23.53125 7.035156 L 23.535156 7.027344 L 23.535156 7.019531 L 23.539062 7.011719 L 23.542969 7.007812 L 23.546875 7 L 23.550781 6.996094 L 23.5625 6.972656 L 23.558594 6.980469 L 23.558594 6.984375 L 23.574219 6.960938 L 23.570312 6.964844 L 23.570312 6.96875 L 23.578125 6.957031 L 23.585938 6.953125 L 23.589844 6.945312 L 23.597656 6.945312 L 23.609375 6.9375 L 23.609375 6.933594 L 23.617188 6.933594 L 23.730469 7.125 L 23.734375 7.121094 L 23.730469 7.125 L 23.738281 7.117188 L 23.734375 7.121094 L 23.738281 7.117188 L 23.742188 7.117188 L 23.746094 7.109375 L 23.738281 7.117188 L 23.746094 7.109375 L 23.75 7.101562 L 23.75 7.109375 L 23.742188 7.113281 L 23.75 7.105469 L 23.746094 7.109375 L 23.75 7.101562 L 23.753906 7.101562 L 23.75 7.101562 L 23.753906 7.097656 L 23.753906 7.101562 L 23.753906 7.089844 L 23.753906 7.097656 Z M 23.53125 7.035156 L 23.535156 7.03125 Z M 23.75 7.050781 L 23.550781 7.160156 L 23.550781 7.164062 L 23.550781 7.160156 L 23.550781 7.164062 L 23.546875 7.15625 L 23.539062 7.144531 L 23.539062 7.140625 L 23.535156 7.132812 L 23.535156 7.128906 L 23.527344 7.105469 L 23.527344 7.089844 L 23.523438 7.078125 L 23.523438 7.074219 L 23.527344 7.0625 L 23.527344 7.054688 L 23.527344 7.0625 L 23.527344 7.042969 L 23.53125 7.039062 L 23.527344 7.046875 L 23.53125 7.035156 L 23.53125 7.03125 L 23.753906 7.089844 L 23.753906 7.078125 L 23.753906 7.089844 L 23.753906 7.074219 L 23.753906 7.085938 L 23.753906 7.074219 L 23.753906 7.078125 L 23.753906 7.070312 L 23.753906 7.074219 L 23.753906 7.066406 L 23.753906 7.070312 L 23.753906 7.0625 L 23.75 7.054688 L 23.75 7.058594 L 23.753906 7.0625 L 23.75 7.054688 L 23.75 7.058594 L 23.746094 7.050781 L 23.746094 7.042969 L 23.746094 7.046875 Z M 23.746094 7.046875 L 23.75 7.050781 Z M 23.644531 7.320312 L 23.550781 7.160156 L 23.75 7.050781 L 23.84375 7.210938 Z M 23.644531 7.320312 "/>
<path style="fill-rule:nonzero;fill:rgb(92.941176%,41.176471%,36.078431%);fill-opacity:1;stroke-width:7.18;stroke-linecap:butt;stroke-linejoin:miter;stroke:rgb(92.941176%,41.176471%,36.078431%);stroke-opacity:1;stroke-miterlimit:22.9256;" d="M 366.081273 152.326311 C 366.019067 152.197657 365.832448 152.13333 365.645828 152.13333 C 365.583622 152.13333 365.521416 152.13333 365.459209 152.197657 L 362.784335 153.677178 C 362.597715 153.805832 362.473303 154.127467 362.597715 154.320448 L 367.014369 161.911032 C 367.076575 162.039686 367.138782 162.104013 367.263194 162.104013 C 367.387607 162.16834 367.51202 162.104013 367.636433 162.039686 L 370.249101 160.560166 C 370.373514 160.495839 370.43572 160.431512 370.497926 160.238531 C 370.497926 160.174204 370.497926 160.04555 370.43572 159.916896 Z M 366.081273 152.326311 " transform="matrix(0.062795,0,0,0.0607249,0.000207709,2)"/>
<path style=" stroke:none;fill-rule:nonzero;fill:rgb(92.941176%,41.176471%,36.078431%);fill-opacity:1;" d="M 22.988281 11.25 C 22.984375 11.242188 22.972656 11.238281 22.960938 11.238281 C 22.957031 11.238281 22.953125 11.238281 22.949219 11.242188 L 22.78125 11.332031 C 22.769531 11.339844 22.761719 11.359375 22.769531 11.371094 L 23.046875 11.832031 C 23.050781 11.839844 23.054688 11.84375 23.0625 11.84375 C 23.070312 11.847656 23.078125 11.84375 23.085938 11.839844 L 23.25 11.75 C 23.257812 11.746094 23.261719 11.742188 23.265625 11.730469 C 23.265625 11.726562 23.265625 11.71875 23.261719 11.710938 Z M 22.988281 11.25 "/>
<path style=" stroke:none;fill-rule:nonzero;fill:rgb(92.941176%,41.176471%,36.078431%);fill-opacity:1;" d="M 22.960938 11.347656 L 22.960938 11.125 L 22.980469 11.125 L 22.992188 11.128906 L 22.996094 11.128906 L 23.011719 11.132812 L 23.011719 11.136719 L 23.015625 11.136719 L 23.027344 11.140625 L 23.042969 11.148438 L 23.042969 11.152344 L 23.035156 11.144531 L 23.046875 11.152344 L 23.054688 11.160156 L 23.054688 11.15625 L 23.054688 11.160156 L 23.074219 11.179688 L 23.070312 11.175781 L 23.078125 11.183594 L 23.082031 11.191406 L 23.085938 11.195312 L 22.886719 11.304688 L 22.890625 11.308594 L 22.890625 11.3125 L 22.898438 11.320312 L 22.890625 11.308594 L 22.902344 11.324219 L 22.90625 11.328125 L 22.921875 11.335938 L 22.910156 11.332031 L 22.933594 11.34375 L 22.933594 11.339844 L 22.945312 11.34375 L 22.941406 11.34375 L 22.945312 11.34375 L 22.957031 11.347656 L 22.953125 11.347656 L 22.964844 11.347656 Z M 23.003906 11.335938 L 22.890625 11.144531 L 22.886719 11.144531 L 22.898438 11.140625 L 22.902344 11.140625 L 22.925781 11.132812 L 22.902344 11.140625 L 22.925781 11.132812 L 22.929688 11.132812 L 22.957031 11.128906 L 22.929688 11.132812 L 22.933594 11.132812 L 22.960938 11.128906 L 22.933594 11.132812 L 22.964844 11.128906 L 22.964844 11.351562 L 22.988281 11.347656 L 22.960938 11.351562 L 22.988281 11.347656 L 22.957031 11.351562 L 22.984375 11.347656 L 22.980469 11.347656 L 23.003906 11.339844 L 22.980469 11.347656 L 23.003906 11.339844 L 23 11.339844 L 23.007812 11.335938 Z M 23.007812 11.335938 L 23.003906 11.335938 Z M 22.722656 11.234375 L 22.890625 11.144531 L 23.003906 11.335938 L 22.839844 11.429688 L 22.71875 11.238281 L 22.722656 11.238281 Z M 22.722656 11.238281 L 22.722656 11.234375 Z M 22.871094 11.316406 L 22.671875 11.425781 L 22.667969 11.421875 L 22.667969 11.417969 L 22.664062 11.410156 L 22.660156 11.398438 L 22.65625 11.390625 L 22.65625 11.382812 L 22.652344 11.378906 L 22.652344 11.335938 L 22.65625 11.324219 L 22.65625 11.320312 L 22.664062 11.304688 L 22.664062 11.296875 L 22.667969 11.296875 L 22.679688 11.273438 L 22.695312 11.257812 L 22.703125 11.253906 L 22.707031 11.246094 L 22.722656 11.238281 L 22.84375 11.425781 L 22.847656 11.421875 L 22.851562 11.421875 L 22.863281 11.410156 L 22.863281 11.40625 L 22.871094 11.398438 L 22.871094 11.402344 L 22.875 11.394531 L 22.875 11.390625 L 22.882812 11.375 L 22.878906 11.378906 L 22.882812 11.367188 L 22.882812 11.34375 L 22.878906 11.339844 L 22.878906 11.332031 L 22.878906 11.335938 L 22.878906 11.328125 L 22.875 11.320312 Z M 22.671875 11.425781 L 22.667969 11.425781 L 22.667969 11.421875 Z M 22.945312 11.886719 L 22.671875 11.425781 L 22.871094 11.316406 L 23.144531 11.773438 L 23.144531 11.777344 Z M 23.144531 11.773438 L 23.144531 11.777344 Z M 23.09375 11.738281 L 23.03125 11.953125 L 23.03125 11.949219 L 23.023438 11.949219 L 23.007812 11.945312 L 23.007812 11.941406 L 23.003906 11.941406 L 22.996094 11.9375 L 22.992188 11.933594 L 22.996094 11.9375 L 22.992188 11.9375 L 22.980469 11.929688 L 22.980469 11.925781 L 22.976562 11.925781 L 22.960938 11.90625 L 22.96875 11.914062 L 22.957031 11.90625 L 22.957031 11.902344 L 22.949219 11.894531 L 22.957031 11.902344 L 22.945312 11.890625 L 22.941406 11.882812 L 22.945312 11.882812 L 23.144531 11.777344 L 23.148438 11.78125 L 23.144531 11.777344 L 23.136719 11.765625 L 23.140625 11.773438 L 23.136719 11.765625 L 23.136719 11.769531 L 23.128906 11.757812 L 23.140625 11.769531 L 23.121094 11.753906 L 23.125 11.753906 L 23.113281 11.746094 L 23.117188 11.75 L 23.109375 11.742188 L 23.109375 11.746094 L 23.097656 11.738281 Z M 23.03125 11.953125 L 23.03125 11.949219 Z M 23.027344 11.746094 L 23.144531 11.9375 L 23.136719 11.941406 L 23.132812 11.941406 L 23.117188 11.949219 L 23.109375 11.949219 L 23.113281 11.949219 L 23.09375 11.953125 L 23.105469 11.949219 L 23.09375 11.953125 L 23.074219 11.957031 L 23.089844 11.953125 L 23.070312 11.957031 L 23.050781 11.953125 L 23.046875 11.953125 L 23.050781 11.953125 L 23.046875 11.953125 L 23.027344 11.949219 L 23.035156 11.953125 L 23.09375 11.738281 L 23.101562 11.738281 L 23.085938 11.734375 L 23.082031 11.734375 L 23.085938 11.734375 L 23.054688 11.734375 L 23.074219 11.734375 L 23.054688 11.734375 L 23.042969 11.738281 L 23.058594 11.734375 L 23.039062 11.738281 L 23.046875 11.738281 L 23.042969 11.738281 L 23.046875 11.738281 L 23.03125 11.742188 L 23.035156 11.742188 Z M 23.027344 11.746094 L 23.023438 11.746094 L 23.027344 11.746094 L 23.023438 11.746094 Z M 23.308594 11.84375 L 23.144531 11.9375 L 23.027344 11.746094 L 23.191406 11.652344 L 23.195312 11.652344 Z M 23.191406 11.652344 L 23.195312 11.652344 Z M 23.152344 11.710938 L 23.378906 11.75 L 23.375 11.761719 L 23.375 11.765625 L 23.375 11.761719 L 23.375 11.765625 L 23.367188 11.785156 L 23.371094 11.769531 L 23.367188 11.785156 L 23.359375 11.796875 L 23.359375 11.792969 L 23.359375 11.800781 L 23.351562 11.808594 L 23.359375 11.796875 L 23.363281 11.789062 L 23.339844 11.820312 L 23.347656 11.8125 L 23.339844 11.820312 L 23.347656 11.8125 L 23.339844 11.824219 L 23.328125 11.832031 L 23.339844 11.824219 L 23.328125 11.832031 L 23.324219 11.832031 L 23.3125 11.84375 L 23.304688 11.847656 L 23.324219 11.835938 L 23.3125 11.84375 L 23.300781 11.847656 L 23.304688 11.847656 L 23.195312 11.652344 L 23.199219 11.652344 L 23.191406 11.652344 L 23.179688 11.660156 L 23.203125 11.648438 L 23.195312 11.652344 L 23.183594 11.660156 L 23.175781 11.667969 L 23.1875 11.65625 L 23.175781 11.664062 L 23.167969 11.675781 L 23.179688 11.664062 L 23.167969 11.671875 L 23.179688 11.664062 L 23.160156 11.691406 L 23.171875 11.667969 L 23.167969 11.675781 L 23.164062 11.679688 L 23.167969 11.675781 L 23.152344 11.699219 L 23.160156 11.6875 L 23.160156 11.683594 L 23.152344 11.703125 L 23.15625 11.695312 L 23.152344 11.699219 Z M 23.378906 11.75 L 23.375 11.757812 L 23.375 11.761719 Z M 23.164062 11.765625 L 23.359375 11.652344 L 23.363281 11.660156 L 23.367188 11.660156 L 23.371094 11.675781 L 23.367188 11.664062 L 23.371094 11.679688 L 23.375 11.699219 L 23.375 11.683594 L 23.378906 11.703125 L 23.378906 11.71875 L 23.378906 11.703125 L 23.378906 11.722656 L 23.378906 11.703125 L 23.378906 11.746094 L 23.378906 11.726562 L 23.378906 11.742188 L 23.378906 11.730469 L 23.378906 11.75 L 23.152344 11.710938 L 23.148438 11.730469 L 23.152344 11.710938 L 23.148438 11.726562 L 23.152344 11.707031 L 23.148438 11.726562 L 23.148438 11.722656 L 23.152344 11.742188 L 23.152344 11.738281 L 23.148438 11.722656 L 23.152344 11.738281 L 23.148438 11.71875 L 23.152344 11.734375 L 23.15625 11.753906 L 23.152344 11.734375 L 23.15625 11.75 L 23.160156 11.761719 L 23.15625 11.746094 L 23.160156 11.761719 Z M 23.164062 11.765625 L 23.160156 11.761719 Z M 23.085938 11.195312 L 23.359375 11.652344 L 23.164062 11.765625 L 22.886719 11.304688 Z M 22.886719 11.304688 L 22.890625 11.308594 Z M 22.886719 11.304688 "/>
<path style="fill-rule:nonzero;fill:rgb(92.941176%,41.176471%,36.078431%);fill-opacity:1;stroke-width:7.18;stroke-linecap:butt;stroke-linejoin:miter;stroke:rgb(92.941176%,41.176471%,36.078431%);stroke-opacity:1;stroke-miterlimit:22.9256;" d="M 389.533081 106.525494 L 389.533081 109.548863 C 389.533081 110.063479 389.968525 110.513768 390.528383 110.513768 L 399.237277 110.513768 C 399.734928 110.513768 400.170372 110.063479 400.170372 109.548863 L 400.170372 106.525494 C 400.170372 106.010879 399.734928 105.56059 399.237277 105.56059 L 390.528383 105.56059 C 389.968525 105.56059 389.533081 106.010879 389.533081 106.525494 Z M 389.533081 106.525494 " transform="matrix(0.062795,0,0,0.0607249,0.000207709,2)"/>
<path style=" stroke:none;fill-rule:nonzero;fill:rgb(92.941176%,41.176471%,36.078431%);fill-opacity:1;" d="M 21.394531 11.621094 L 21.203125 11.621094 C 21.167969 11.621094 21.144531 11.644531 21.144531 11.679688 L 21.144531 12.207031 C 21.144531 12.238281 21.167969 12.265625 21.203125 12.265625 L 21.394531 12.265625 C 21.425781 12.265625 21.453125 12.238281 21.453125 12.207031 L 21.453125 11.679688 C 21.453125 11.648438 21.425781 11.621094 21.394531 11.621094 Z M 21.394531 11.621094 "/>
<path style=" stroke:none;fill-rule:nonzero;fill:rgb(92.941176%,41.176471%,36.078431%);fill-opacity:1;" d="M 21.394531 11.621094 L 21.203125 11.621094 C 21.167969 11.621094 21.144531 11.644531 21.144531 11.679688 L 21.144531 12.207031 C 21.144531 12.238281 21.167969 12.265625 21.203125 12.265625 L 21.394531 12.265625 C 21.425781 12.265625 21.453125 12.238281 21.453125 12.207031 L 21.453125 11.679688 C 21.453125 11.648438 21.425781 11.621094 21.394531 11.621094 Z M 21.394531 11.621094 "/>
<path style=" stroke:none;fill-rule:nonzero;fill:rgb(92.941176%,41.176471%,36.078431%);fill-opacity:1;" d="M 21.199219 11.511719 L 21.390625 11.511719 L 21.390625 11.730469 L 21.199219 11.730469 Z M 21.257812 11.675781 L 21.027344 11.675781 L 21.027344 11.652344 L 21.03125 11.644531 L 21.03125 11.632812 L 21.039062 11.617188 L 21.042969 11.605469 L 21.046875 11.597656 L 21.050781 11.59375 L 21.058594 11.578125 L 21.082031 11.554688 L 21.089844 11.550781 L 21.09375 11.542969 L 21.132812 11.523438 L 21.144531 11.519531 L 21.152344 11.515625 L 21.164062 11.515625 L 21.171875 11.511719 L 21.199219 11.511719 L 21.199219 11.734375 L 21.210938 11.734375 L 21.214844 11.730469 L 21.222656 11.730469 L 21.226562 11.726562 L 21.230469 11.726562 L 21.25 11.707031 L 21.25 11.703125 L 21.253906 11.695312 L 21.253906 11.699219 L 21.253906 11.679688 Z M 21.027344 12.207031 L 21.027344 11.675781 L 21.257812 11.675781 L 21.257812 12.207031 Z M 21.199219 12.15625 L 21.199219 12.375 L 21.164062 12.375 L 21.15625 12.371094 L 21.148438 12.371094 L 21.125 12.359375 L 21.113281 12.355469 L 21.105469 12.351562 L 21.101562 12.347656 L 21.09375 12.34375 L 21.089844 12.335938 L 21.082031 12.332031 L 21.070312 12.320312 L 21.066406 12.3125 L 21.054688 12.300781 L 21.046875 12.285156 L 21.042969 12.28125 L 21.039062 12.269531 L 21.035156 12.261719 L 21.035156 12.253906 L 21.03125 12.242188 L 21.027344 12.234375 L 21.027344 12.207031 L 21.257812 12.207031 L 21.257812 12.199219 L 21.253906 12.191406 L 21.253906 12.195312 L 21.253906 12.191406 L 21.25 12.1875 L 21.25 12.183594 L 21.246094 12.179688 L 21.246094 12.175781 L 21.242188 12.175781 L 21.230469 12.164062 L 21.234375 12.167969 L 21.230469 12.164062 L 21.222656 12.164062 L 21.222656 12.160156 L 21.210938 12.160156 L 21.207031 12.15625 Z M 21.390625 12.375 L 21.199219 12.375 L 21.199219 12.15625 L 21.390625 12.15625 Z M 21.335938 12.207031 L 21.566406 12.207031 L 21.566406 12.234375 L 21.5625 12.238281 L 21.5625 12.25 L 21.550781 12.273438 L 21.550781 12.28125 L 21.546875 12.285156 L 21.542969 12.292969 L 21.535156 12.304688 L 21.53125 12.3125 L 21.527344 12.3125 L 21.523438 12.320312 L 21.515625 12.328125 L 21.507812 12.332031 L 21.496094 12.34375 L 21.488281 12.347656 L 21.484375 12.351562 L 21.453125 12.367188 L 21.445312 12.367188 L 21.4375 12.371094 L 21.425781 12.375 L 21.394531 12.375 L 21.394531 12.15625 L 21.371094 12.15625 L 21.371094 12.160156 L 21.363281 12.160156 L 21.363281 12.164062 L 21.359375 12.164062 L 21.355469 12.167969 L 21.355469 12.171875 L 21.351562 12.171875 L 21.347656 12.175781 L 21.351562 12.171875 L 21.34375 12.179688 L 21.34375 12.183594 L 21.339844 12.191406 L 21.339844 12.199219 Z M 21.566406 11.675781 L 21.566406 12.207031 L 21.335938 12.207031 L 21.335938 11.675781 Z M 21.390625 11.730469 L 21.390625 11.507812 L 21.398438 11.507812 L 21.410156 11.511719 L 21.425781 11.511719 L 21.4375 11.515625 L 21.445312 11.519531 L 21.457031 11.523438 L 21.496094 11.542969 L 21.5 11.546875 L 21.507812 11.550781 L 21.53125 11.574219 L 21.535156 11.582031 L 21.542969 11.589844 L 21.550781 11.605469 L 21.550781 11.613281 L 21.554688 11.617188 L 21.558594 11.625 L 21.558594 11.632812 L 21.5625 11.644531 L 21.566406 11.652344 L 21.566406 11.675781 L 21.335938 11.675781 L 21.335938 11.6875 L 21.339844 11.691406 L 21.339844 11.699219 L 21.347656 11.707031 L 21.347656 11.710938 L 21.351562 11.714844 L 21.355469 11.714844 L 21.355469 11.71875 L 21.359375 11.722656 L 21.367188 11.722656 L 21.367188 11.726562 L 21.371094 11.726562 L 21.375 11.730469 L 21.371094 11.726562 L 21.375 11.726562 L 21.378906 11.730469 Z M 21.390625 11.730469 "/>
<path style="fill-rule:nonzero;fill:rgb(92.941176%,41.176471%,36.078431%);fill-opacity:1;stroke-width:7.18;stroke-linecap:butt;stroke-linejoin:miter;stroke:rgb(92.941176%,41.176471%,36.078431%);stroke-opacity:1;stroke-miterlimit:22.9256;" d="M 337.590748 57.636983 L 340.638861 57.636983 C 341.198719 57.636983 341.634163 57.186694 341.634163 56.672078 L 341.634163 47.923607 C 341.634163 47.408991 341.198719 47.023029 340.638861 47.023029 L 337.590748 47.023029 C 337.093097 47.023029 336.719859 47.408991 336.719859 47.923607 L 336.719859 56.672078 C 336.719859 57.186694 337.093097 57.636983 337.590748 57.636983 Z M 337.590748 57.636983 " transform="matrix(0.062795,0,0,0.0607249,0.000207709,2)"/>
<path style=" stroke:none;fill-rule:nonzero;fill:rgb(92.941176%,41.176471%,36.078431%);fill-opacity:1;" d="M 21.199219 5.5 L 21.390625 5.5 C 21.425781 5.5 21.453125 5.472656 21.453125 5.441406 L 21.453125 4.910156 C 21.453125 4.878906 21.425781 4.855469 21.390625 4.855469 L 21.199219 4.855469 C 21.167969 4.855469 21.144531 4.878906 21.144531 4.910156 L 21.144531 5.441406 C 21.144531 5.472656 21.167969 5.5 21.199219 5.5 Z M 21.199219 5.5 "/>
<path style=" stroke:none;fill-rule:nonzero;fill:rgb(92.941176%,41.176471%,36.078431%);fill-opacity:1;" d="M 21.394531 5.609375 L 21.203125 5.609375 L 21.203125 5.386719 L 21.394531 5.386719 Z M 21.339844 5.441406 L 21.566406 5.441406 L 21.566406 5.472656 L 21.5625 5.484375 L 21.558594 5.492188 L 21.558594 5.5 L 21.554688 5.503906 L 21.542969 5.527344 L 21.535156 5.539062 L 21.5 5.574219 L 21.492188 5.578125 L 21.480469 5.585938 L 21.472656 5.589844 L 21.46875 5.59375 L 21.460938 5.597656 L 21.453125 5.597656 L 21.445312 5.601562 L 21.4375 5.601562 L 21.425781 5.605469 L 21.417969 5.609375 L 21.394531 5.609375 L 21.394531 5.386719 L 21.382812 5.386719 L 21.375 5.390625 L 21.367188 5.390625 L 21.367188 5.394531 L 21.359375 5.398438 L 21.351562 5.40625 L 21.347656 5.414062 L 21.34375 5.417969 L 21.34375 5.421875 L 21.339844 5.425781 Z M 21.566406 4.910156 L 21.566406 5.441406 L 21.339844 5.441406 L 21.339844 4.910156 Z M 21.394531 4.964844 L 21.394531 4.742188 L 21.410156 4.742188 L 21.417969 4.746094 L 21.425781 4.746094 L 21.4375 4.75 L 21.449219 4.75 L 21.457031 4.753906 L 21.46875 4.757812 L 21.472656 4.761719 L 21.488281 4.769531 L 21.496094 4.777344 L 21.503906 4.78125 L 21.519531 4.796875 L 21.527344 4.800781 L 21.53125 4.808594 L 21.542969 4.820312 L 21.554688 4.84375 L 21.554688 4.851562 L 21.5625 4.867188 L 21.5625 4.875 L 21.566406 4.882812 L 21.566406 4.910156 L 21.335938 4.910156 L 21.335938 4.917969 L 21.339844 4.921875 L 21.339844 4.933594 L 21.347656 4.941406 L 21.347656 4.945312 L 21.351562 4.949219 L 21.355469 4.949219 L 21.355469 4.953125 L 21.359375 4.953125 L 21.359375 4.957031 L 21.363281 4.957031 L 21.367188 4.960938 L 21.375 4.960938 L 21.375 4.964844 L 21.371094 4.960938 L 21.375 4.960938 L 21.378906 4.964844 Z M 21.203125 4.742188 L 21.394531 4.742188 L 21.394531 4.964844 L 21.203125 4.964844 Z M 21.257812 4.910156 L 21.027344 4.910156 L 21.027344 4.890625 L 21.03125 4.882812 L 21.03125 4.875 L 21.035156 4.867188 L 21.035156 4.855469 L 21.039062 4.847656 L 21.042969 4.835938 L 21.046875 4.828125 L 21.050781 4.824219 L 21.054688 4.816406 L 21.0625 4.808594 L 21.066406 4.800781 L 21.074219 4.796875 L 21.089844 4.78125 L 21.097656 4.777344 L 21.109375 4.765625 L 21.125 4.757812 L 21.136719 4.753906 L 21.144531 4.753906 L 21.148438 4.75 L 21.152344 4.75 L 21.164062 4.746094 L 21.199219 4.746094 L 21.199219 4.964844 L 21.21875 4.964844 L 21.214844 4.964844 L 21.21875 4.964844 L 21.222656 4.960938 L 21.226562 4.960938 L 21.230469 4.957031 L 21.234375 4.957031 L 21.238281 4.953125 L 21.238281 4.949219 L 21.242188 4.949219 L 21.246094 4.945312 L 21.246094 4.941406 L 21.25 4.9375 L 21.25 4.933594 L 21.253906 4.929688 L 21.253906 4.925781 L 21.253906 4.929688 L 21.253906 4.917969 L 21.257812 4.914062 Z M 21.027344 5.441406 L 21.027344 4.910156 L 21.257812 4.910156 L 21.257812 5.441406 Z M 21.203125 5.386719 L 21.203125 5.609375 L 21.175781 5.609375 L 21.167969 5.605469 L 21.15625 5.605469 L 21.140625 5.597656 L 21.132812 5.597656 L 21.109375 5.585938 L 21.101562 5.578125 L 21.09375 5.574219 L 21.089844 5.570312 L 21.082031 5.566406 L 21.078125 5.558594 L 21.070312 5.550781 L 21.0625 5.539062 L 21.050781 5.527344 L 21.039062 5.503906 L 21.039062 5.496094 L 21.035156 5.492188 L 21.035156 5.484375 L 21.03125 5.472656 L 21.03125 5.464844 L 21.027344 5.460938 L 21.027344 5.441406 L 21.257812 5.441406 L 21.257812 5.433594 L 21.253906 5.425781 L 21.253906 5.421875 L 21.253906 5.425781 L 21.253906 5.417969 L 21.25 5.417969 L 21.25 5.414062 L 21.242188 5.40625 L 21.242188 5.402344 L 21.238281 5.402344 L 21.234375 5.398438 L 21.230469 5.398438 L 21.230469 5.394531 L 21.222656 5.394531 L 21.21875 5.390625 L 21.203125 5.390625 Z M 21.203125 5.386719 "/>
<path style="fill-rule:nonzero;fill:rgb(92.941176%,41.176471%,36.078431%);fill-opacity:1;stroke-width:7.18;stroke-linecap:butt;stroke-linejoin:miter;stroke:rgb(92.941176%,41.176471%,36.078431%);stroke-opacity:1;stroke-miterlimit:22.9256;" d="M 362.784335 62.39718 L 365.459209 63.8767 C 365.645828 64.005354 365.95686 63.941027 366.081273 63.748047 L 370.43572 56.157462 C 370.560133 55.900154 370.497926 55.642846 370.249101 55.514192 L 367.636433 53.970344 C 367.574226 53.970344 367.449814 53.906017 367.387607 53.906017 C 367.387607 53.906017 367.325401 53.906017 367.263194 53.906017 C 367.138782 53.970344 367.076575 54.034671 367.014369 54.163325 L 362.597715 61.689583 C 362.535509 61.818237 362.535509 61.946891 362.597715 62.075545 C 362.597715 62.204199 362.722128 62.332853 362.784335 62.39718 Z M 362.784335 62.39718 " transform="matrix(0.062795,0,0,0.0607249,0.000207709,2)"/>
<path style=" stroke:none;fill-rule:nonzero;fill:rgb(92.941176%,41.176471%,36.078431%);fill-opacity:1;" d="M 22.78125 5.789062 L 22.949219 5.878906 C 22.960938 5.886719 22.980469 5.882812 22.988281 5.871094 L 23.261719 5.410156 C 23.269531 5.394531 23.265625 5.378906 23.25 5.371094 L 23.085938 5.277344 C 23.082031 5.277344 23.074219 5.273438 23.070312 5.273438 C 23.070312 5.273438 23.066406 5.273438 23.0625 5.273438 C 23.054688 5.277344 23.050781 5.28125 23.046875 5.289062 L 22.769531 5.746094 C 22.765625 5.753906 22.765625 5.761719 22.769531 5.769531 C 22.769531 5.777344 22.777344 5.785156 22.78125 5.789062 Z M 22.78125 5.789062 "/>
<path style=" stroke:none;fill-rule:nonzero;fill:rgb(92.941176%,41.176471%,36.078431%);fill-opacity:1;" d="M 22.890625 5.976562 L 22.722656 5.882812 L 22.839844 5.691406 L 23.003906 5.785156 Z M 22.886719 5.8125 L 23.085938 5.925781 L 23.082031 5.929688 L 23.074219 5.941406 L 23.070312 5.949219 L 23.054688 5.964844 L 23.050781 5.964844 L 23.039062 5.972656 L 23.023438 5.980469 L 23.019531 5.984375 L 23.015625 5.984375 L 23.007812 5.988281 L 22.996094 5.992188 L 22.992188 5.992188 L 22.972656 5.996094 L 22.949219 5.996094 L 22.9375 5.992188 L 22.929688 5.992188 L 22.917969 5.988281 L 22.910156 5.984375 L 22.898438 5.980469 L 22.890625 5.976562 L 23.003906 5.785156 L 23 5.78125 L 22.992188 5.777344 L 22.984375 5.777344 L 22.988281 5.777344 L 22.980469 5.777344 L 22.972656 5.773438 L 22.964844 5.773438 L 22.96875 5.773438 L 22.953125 5.773438 L 22.957031 5.773438 L 22.941406 5.777344 L 22.933594 5.777344 L 22.929688 5.78125 L 22.921875 5.785156 L 22.917969 5.785156 L 22.90625 5.792969 L 22.910156 5.792969 L 22.90625 5.792969 L 22.898438 5.800781 L 22.898438 5.804688 L 22.890625 5.8125 L 22.890625 5.816406 Z M 22.886719 5.8125 L 22.875 5.835938 Z M 23.359375 5.464844 L 23.085938 5.925781 L 22.886719 5.8125 L 23.164062 5.355469 L 23.164062 5.351562 Z M 23.164062 5.355469 L 23.164062 5.351562 L 23.167969 5.347656 Z M 23.195312 5.46875 L 23.308594 5.273438 L 23.304688 5.273438 L 23.3125 5.277344 L 23.324219 5.285156 L 23.328125 5.285156 L 23.328125 5.289062 L 23.347656 5.308594 L 23.351562 5.308594 L 23.351562 5.3125 L 23.359375 5.320312 L 23.363281 5.328125 L 23.367188 5.339844 L 23.371094 5.34375 L 23.375 5.359375 L 23.375 5.363281 L 23.378906 5.375 L 23.378906 5.386719 L 23.382812 5.398438 L 23.378906 5.410156 L 23.378906 5.429688 L 23.375 5.429688 L 23.371094 5.449219 L 23.367188 5.457031 L 23.363281 5.46875 L 23.359375 5.46875 L 23.164062 5.355469 L 23.160156 5.363281 L 23.15625 5.367188 L 23.160156 5.363281 L 23.152344 5.378906 L 23.152344 5.398438 L 23.152344 5.394531 L 23.152344 5.410156 L 23.152344 5.40625 L 23.15625 5.417969 L 23.152344 5.414062 L 23.160156 5.429688 L 23.160156 5.425781 L 23.160156 5.429688 L 23.164062 5.433594 L 23.164062 5.441406 L 23.171875 5.449219 L 23.171875 5.445312 L 23.1875 5.460938 L 23.183594 5.460938 L 23.199219 5.46875 Z M 23.195312 5.46875 L 23.191406 5.464844 Z M 23.144531 5.183594 L 23.308594 5.273438 L 23.195312 5.46875 L 23.027344 5.375 L 23.019531 5.367188 Z M 23.027344 5.375 L 23.019531 5.367188 Z M 23.070312 5.386719 L 23.070312 5.164062 L 23.074219 5.164062 L 23.101562 5.167969 L 23.074219 5.164062 L 23.105469 5.167969 L 23.109375 5.167969 L 23.132812 5.175781 L 23.109375 5.167969 L 23.125 5.171875 L 23.109375 5.167969 L 23.132812 5.175781 L 23.136719 5.175781 L 23.152344 5.1875 L 23.15625 5.1875 L 23.136719 5.175781 L 23.15625 5.1875 L 23.023438 5.367188 L 23.019531 5.363281 L 23.035156 5.375 L 23.015625 5.363281 L 23.03125 5.375 L 23.054688 5.382812 L 23.039062 5.375 L 23.054688 5.382812 L 23.050781 5.382812 L 23.027344 5.375 L 23.050781 5.382812 L 23.046875 5.382812 L 23.074219 5.386719 L 23.046875 5.382812 L 23.074219 5.386719 Z M 23.089844 5.382812 L 23.035156 5.167969 L 23.03125 5.167969 L 23.011719 5.175781 L 23.0625 5.164062 L 23.011719 5.175781 L 23.066406 5.164062 L 23.015625 5.175781 L 23.066406 5.164062 L 23.015625 5.175781 L 23.066406 5.164062 L 23.015625 5.175781 L 23.066406 5.164062 L 23.015625 5.175781 L 23.066406 5.164062 L 23.070312 5.164062 L 23.070312 5.386719 L 23.066406 5.386719 L 23.117188 5.375 L 23.066406 5.386719 L 23.117188 5.375 L 23.066406 5.386719 L 23.117188 5.375 L 23.066406 5.386719 L 23.117188 5.375 L 23.066406 5.386719 L 23.117188 5.375 L 23.0625 5.386719 L 23.113281 5.375 L 23.097656 5.382812 Z M 23.097656 5.382812 L 23.089844 5.382812 Z M 23.144531 5.34375 L 22.945312 5.234375 L 22.941406 5.238281 L 22.957031 5.21875 L 22.949219 5.222656 L 22.96875 5.203125 L 22.980469 5.195312 L 22.980469 5.191406 L 22.988281 5.1875 L 22.992188 5.1875 L 22.984375 5.191406 L 22.996094 5.183594 L 23.003906 5.179688 L 22.992188 5.183594 L 23.007812 5.175781 L 23.023438 5.171875 L 23.027344 5.171875 L 23.035156 5.167969 L 23.089844 5.382812 L 23.097656 5.382812 L 23.109375 5.375 L 23.121094 5.371094 L 23.109375 5.375 L 23.113281 5.375 L 23.128906 5.367188 L 23.117188 5.371094 L 23.125 5.367188 L 23.132812 5.359375 L 23.128906 5.363281 L 23.144531 5.347656 L 23.136719 5.355469 L 23.148438 5.335938 L 23.148438 5.339844 Z M 23.144531 5.34375 L 23.144531 5.339844 Z M 22.671875 5.691406 L 22.945312 5.234375 L 23.144531 5.34375 L 22.871094 5.804688 Z M 22.671875 5.691406 L 22.664062 5.707031 L 22.667969 5.691406 Z M 22.878906 5.75 L 22.65625 5.789062 L 22.660156 5.804688 L 22.65625 5.800781 L 22.65625 5.796875 L 22.660156 5.800781 L 22.65625 5.785156 L 22.652344 5.78125 L 22.65625 5.796875 L 22.652344 5.78125 L 22.652344 5.765625 L 22.652344 5.78125 L 22.652344 5.742188 L 22.652344 5.757812 L 22.652344 5.742188 L 22.660156 5.722656 L 22.65625 5.738281 L 22.660156 5.71875 L 22.667969 5.695312 L 22.671875 5.695312 L 22.660156 5.714844 L 22.667969 5.699219 L 22.667969 5.695312 L 22.867188 5.804688 L 22.871094 5.796875 L 22.878906 5.785156 L 22.867188 5.808594 L 22.878906 5.785156 L 22.878906 5.789062 L 22.878906 5.773438 L 22.875 5.792969 L 22.878906 5.773438 L 22.882812 5.757812 L 22.878906 5.777344 L 22.882812 5.757812 L 22.882812 5.761719 L 22.878906 5.746094 L 22.882812 5.765625 L 22.878906 5.746094 L 22.878906 5.734375 L 22.882812 5.75 L 22.878906 5.730469 L 22.878906 5.738281 L 22.878906 5.734375 L 22.882812 5.75 Z M 22.875 5.734375 L 22.878906 5.738281 L 22.878906 5.75 L 22.875 5.730469 Z M 22.839844 5.691406 L 22.722656 5.882812 L 22.730469 5.886719 L 22.722656 5.882812 L 22.707031 5.871094 L 22.714844 5.878906 L 22.707031 5.871094 L 22.703125 5.871094 L 22.695312 5.859375 L 22.683594 5.851562 L 22.703125 5.867188 L 22.691406 5.859375 L 22.683594 5.851562 L 22.683594 5.847656 L 22.671875 5.835938 L 22.671875 5.832031 L 22.660156 5.808594 L 22.660156 5.804688 L 22.65625 5.789062 L 22.878906 5.75 L 22.882812 5.75 L 22.878906 5.734375 L 22.878906 5.738281 L 22.871094 5.722656 L 22.871094 5.726562 L 22.867188 5.71875 L 22.867188 5.714844 L 22.847656 5.695312 L 22.863281 5.710938 L 22.847656 5.695312 L 22.847656 5.699219 L 22.84375 5.691406 L 22.851562 5.699219 L 22.839844 5.691406 L 22.832031 5.6875 Z M 22.839844 5.691406 L 22.824219 5.683594 Z M 22.839844 5.691406 "/>
<path style="fill-rule:nonzero;fill:rgb(92.941176%,41.176471%,36.078431%);fill-opacity:1;stroke-width:7.18;stroke-linecap:butt;stroke-linejoin:miter;stroke:rgb(92.941176%,41.176471%,36.078431%);stroke-opacity:1;stroke-miterlimit:22.9256;" d="M 339.145908 76.098828 C 321.541501 76.098828 307.234032 90.37942 307.234032 108.005015 C 307.234032 125.63061 321.541501 139.975529 339.145908 139.975529 C 356.750315 139.975529 371.11999 125.63061 371.11999 108.005015 C 371.11999 90.37942 356.750315 76.098828 339.145908 76.098828 Z M 339.145908 144.478418 C 319.053245 144.478418 302.692966 128.139363 302.692966 108.005015 C 302.692966 87.934995 319.053245 71.531612 339.145908 71.531612 C 359.238571 71.531612 375.59885 87.934995 375.59885 108.005015 C 375.59885 128.139363 359.238571 144.478418 339.145908 144.478418 Z M 339.145908 144.478418 " transform="matrix(0.062795,0,0,0.0607249,0.000207709,2)"/>
<path style=" stroke:none;fill-rule:nonzero;fill:rgb(92.941176%,41.176471%,36.078431%);fill-opacity:1;" d="M 21.296875 6.621094 C 20.191406 6.621094 19.292969 7.488281 19.292969 8.558594 C 19.292969 9.628906 20.191406 10.5 21.296875 10.5 C 22.402344 10.5 23.304688 9.628906 23.304688 8.558594 C 23.304688 7.488281 22.402344 6.621094 21.296875 6.621094 Z M 21.296875 10.773438 C 20.035156 10.773438 19.007812 9.78125 19.007812 8.558594 C 19.007812 7.339844 20.035156 6.34375 21.296875 6.34375 C 22.558594 6.34375 23.585938 7.339844 23.585938 8.558594 C 23.585938 9.78125 22.558594 10.773438 21.296875 10.773438 Z M 21.296875 10.773438 "/>
<path style=" stroke:none;fill-rule:nonzero;fill:rgb(92.941176%,41.176471%,36.078431%);fill-opacity:1;" d="M 19.40625 8.558594 L 19.175781 8.558594 L 19.179688 8.453125 L 19.1875 8.351562 L 19.199219 8.246094 L 19.21875 8.148438 L 19.242188 8.046875 L 19.273438 7.949219 L 19.304688 7.855469 L 19.34375 7.761719 L 19.386719 7.671875 L 19.433594 7.582031 L 19.484375 7.496094 L 19.539062 7.414062 L 19.597656 7.335938 L 19.664062 7.257812 L 19.730469 7.183594 L 19.871094 7.042969 L 19.949219 6.980469 L 20.03125 6.917969 L 20.113281 6.863281 L 20.199219 6.808594 L 20.289062 6.757812 L 20.378906 6.714844 L 20.472656 6.671875 L 20.570312 6.636719 L 20.667969 6.605469 L 20.769531 6.574219 L 20.972656 6.535156 L 21.082031 6.523438 L 21.1875 6.515625 L 21.296875 6.511719 L 21.296875 6.734375 L 21.199219 6.734375 L 21.101562 6.742188 L 21.007812 6.753906 L 20.914062 6.769531 L 20.824219 6.789062 L 20.734375 6.816406 L 20.648438 6.84375 L 20.5625 6.875 L 20.476562 6.914062 L 20.394531 6.953125 L 20.316406 6.996094 L 20.167969 7.097656 L 20.09375 7.152344 L 20.027344 7.207031 L 19.960938 7.269531 L 19.898438 7.332031 L 19.835938 7.398438 L 19.78125 7.46875 L 19.730469 7.539062 L 19.679688 7.613281 L 19.632812 7.691406 L 19.589844 7.769531 L 19.519531 7.933594 L 19.488281 8.015625 L 19.464844 8.105469 L 19.441406 8.191406 L 19.425781 8.28125 L 19.414062 8.375 L 19.40625 8.464844 Z M 21.296875 10.386719 L 21.296875 10.609375 L 21.1875 10.609375 L 21.082031 10.601562 L 20.972656 10.585938 L 20.769531 10.546875 L 20.667969 10.519531 L 20.472656 10.449219 L 20.378906 10.40625 L 20.289062 10.363281 L 20.199219 10.3125 L 20.113281 10.257812 L 20.03125 10.203125 L 19.949219 10.140625 L 19.871094 10.078125 L 19.730469 9.9375 L 19.664062 9.863281 L 19.597656 9.785156 L 19.539062 9.707031 L 19.484375 9.625 L 19.433594 9.539062 L 19.386719 9.449219 L 19.34375 9.359375 L 19.304688 9.265625 L 19.273438 9.167969 L 19.242188 9.074219 L 19.21875 8.972656 L 19.199219 8.871094 L 19.1875 8.769531 L 19.179688 8.667969 L 19.175781 8.5625 L 19.40625 8.5625 L 19.414062 8.75 L 19.425781 8.839844 L 19.445312 8.929688 L 19.464844 9.015625 L 19.492188 9.105469 L 19.519531 9.1875 L 19.554688 9.273438 L 19.59375 9.351562 L 19.632812 9.433594 L 19.679688 9.507812 L 19.78125 9.65625 L 19.898438 9.789062 L 19.960938 9.855469 L 20.09375 9.972656 L 20.167969 10.027344 L 20.242188 10.078125 L 20.316406 10.125 L 20.398438 10.167969 L 20.476562 10.210938 L 20.5625 10.246094 L 20.734375 10.308594 L 20.824219 10.332031 L 20.917969 10.351562 L 21.007812 10.367188 L 21.105469 10.378906 L 21.199219 10.386719 L 21.296875 10.390625 Z M 23.1875 8.558594 L 23.417969 8.558594 L 23.414062 8.664062 L 23.40625 8.769531 L 23.394531 8.871094 L 23.375 8.972656 L 23.351562 9.070312 L 23.320312 9.167969 L 23.289062 9.261719 L 23.25 9.355469 L 23.207031 9.449219 L 23.160156 9.535156 L 23.109375 9.621094 L 23.054688 9.703125 L 22.996094 9.785156 L 22.933594 9.863281 L 22.867188 9.9375 L 22.796875 10.007812 L 22.722656 10.074219 L 22.644531 10.140625 L 22.566406 10.199219 L 22.480469 10.257812 L 22.394531 10.3125 L 22.308594 10.359375 L 22.214844 10.40625 L 22.027344 10.484375 L 21.925781 10.515625 L 21.828125 10.542969 L 21.722656 10.566406 L 21.621094 10.585938 L 21.515625 10.597656 L 21.40625 10.605469 L 21.296875 10.609375 L 21.296875 10.386719 L 21.492188 10.378906 L 21.585938 10.367188 L 21.679688 10.351562 L 21.859375 10.304688 L 21.945312 10.277344 L 22.117188 10.207031 L 22.199219 10.167969 L 22.355469 10.074219 L 22.429688 10.023438 L 22.5 9.96875 L 22.632812 9.851562 L 22.695312 9.789062 L 22.757812 9.722656 L 22.8125 9.652344 L 22.863281 9.582031 L 22.914062 9.507812 L 22.960938 9.429688 L 23 9.351562 L 23.039062 9.269531 L 23.074219 9.1875 L 23.128906 9.015625 L 23.148438 8.925781 L 23.179688 8.746094 Z M 21.296875 6.730469 L 21.296875 6.507812 L 21.40625 6.511719 L 21.511719 6.519531 L 21.722656 6.550781 L 21.824219 6.574219 L 21.925781 6.601562 L 22.023438 6.632812 L 22.121094 6.671875 L 22.214844 6.710938 L 22.304688 6.757812 L 22.394531 6.808594 L 22.480469 6.859375 L 22.5625 6.917969 L 22.644531 6.980469 L 22.722656 7.042969 L 22.792969 7.109375 L 22.863281 7.183594 L 22.929688 7.257812 L 22.992188 7.332031 L 23.054688 7.414062 L 23.109375 7.496094 L 23.160156 7.582031 L 23.207031 7.671875 L 23.25 7.761719 L 23.289062 7.855469 L 23.320312 7.949219 L 23.351562 8.046875 L 23.375 8.144531 L 23.40625 8.347656 L 23.414062 8.453125 L 23.417969 8.558594 L 23.1875 8.558594 L 23.179688 8.371094 L 23.148438 8.191406 L 23.128906 8.101562 L 23.074219 7.929688 L 23.039062 7.847656 L 23 7.765625 L 22.960938 7.6875 L 22.914062 7.609375 L 22.863281 7.535156 L 22.8125 7.464844 L 22.757812 7.394531 L 22.695312 7.328125 L 22.632812 7.265625 L 22.5 7.148438 L 22.429688 7.09375 L 22.355469 7.042969 L 22.199219 6.949219 L 22.117188 6.910156 L 21.945312 6.839844 L 21.859375 6.8125 L 21.679688 6.765625 L 21.585938 6.75 L 21.492188 6.738281 Z M 18.890625 8.558594 L 19.121094 8.558594 L 19.125 8.667969 L 19.132812 8.773438 L 19.148438 8.878906 L 19.167969 8.984375 L 19.191406 9.085938 L 19.21875 9.183594 L 19.253906 9.28125 L 19.292969 9.375 L 19.339844 9.46875 L 19.386719 9.558594 L 19.4375 9.648438 L 19.496094 9.734375 L 19.554688 9.816406 L 19.6875 9.972656 L 19.835938 10.113281 L 19.914062 10.179688 L 19.996094 10.242188 L 20.082031 10.300781 L 20.171875 10.355469 L 20.261719 10.40625 L 20.355469 10.453125 L 20.453125 10.496094 L 20.550781 10.535156 L 20.652344 10.566406 L 20.753906 10.59375 L 20.859375 10.621094 L 20.96875 10.636719 L 21.074219 10.652344 L 21.1875 10.660156 L 21.296875 10.664062 L 21.296875 10.882812 L 21.175781 10.882812 L 20.933594 10.859375 L 20.8125 10.835938 L 20.699219 10.8125 L 20.585938 10.78125 L 20.472656 10.742188 L 20.363281 10.703125 L 20.257812 10.65625 L 20.152344 10.605469 L 20.050781 10.546875 L 19.957031 10.488281 L 19.859375 10.421875 L 19.769531 10.351562 L 19.683594 10.28125 L 19.597656 10.203125 L 19.519531 10.121094 L 19.445312 10.039062 L 19.371094 9.949219 L 19.304688 9.859375 L 19.242188 9.765625 L 19.183594 9.667969 L 19.082031 9.464844 L 19.039062 9.359375 L 18.96875 9.140625 L 18.921875 8.914062 L 18.90625 8.796875 L 18.898438 8.679688 L 18.894531 8.558594 Z M 21.296875 6.234375 L 21.296875 6.457031 L 21.183594 6.460938 L 21.074219 6.46875 L 20.964844 6.480469 L 20.859375 6.5 L 20.753906 6.523438 L 20.648438 6.550781 L 20.550781 6.585938 L 20.449219 6.621094 L 20.355469 6.664062 L 20.261719 6.710938 L 20.171875 6.761719 L 20.082031 6.816406 L 19.996094 6.875 L 19.914062 6.9375 L 19.835938 7.003906 L 19.761719 7.074219 L 19.6875 7.148438 L 19.621094 7.222656 L 19.554688 7.304688 L 19.492188 7.386719 L 19.382812 7.558594 L 19.335938 7.648438 L 19.292969 7.742188 L 19.253906 7.839844 L 19.21875 7.9375 L 19.191406 8.035156 L 19.164062 8.136719 L 19.144531 8.242188 L 19.132812 8.347656 L 19.125 8.453125 L 19.121094 8.5625 L 18.890625 8.5625 L 18.894531 8.441406 L 18.902344 8.324219 L 18.917969 8.207031 L 18.964844 7.980469 L 19.035156 7.761719 L 19.078125 7.65625 L 19.179688 7.453125 L 19.238281 7.355469 L 19.300781 7.261719 L 19.367188 7.171875 L 19.441406 7.082031 L 19.515625 7 L 19.59375 6.917969 L 19.679688 6.839844 L 19.765625 6.769531 L 19.855469 6.699219 L 19.953125 6.632812 L 20.046875 6.574219 L 20.148438 6.515625 L 20.253906 6.464844 L 20.359375 6.417969 L 20.578125 6.339844 L 20.695312 6.308594 L 20.808594 6.285156 L 20.929688 6.261719 L 21.046875 6.25 L 21.171875 6.238281 L 21.292969 6.238281 Z M 23.703125 8.558594 L 23.472656 8.558594 L 23.46875 8.453125 L 23.460938 8.34375 L 23.445312 8.238281 L 23.425781 8.136719 L 23.402344 8.035156 L 23.375 7.933594 L 23.339844 7.835938 L 23.300781 7.742188 L 23.253906 7.648438 L 23.207031 7.558594 L 23.15625 7.46875 L 23.097656 7.382812 L 23.039062 7.300781 L 22.90625 7.144531 L 22.757812 7.003906 L 22.679688 6.9375 L 22.597656 6.875 L 22.511719 6.816406 L 22.421875 6.761719 L 22.332031 6.710938 L 22.238281 6.664062 L 22.140625 6.621094 L 22.042969 6.582031 L 21.941406 6.550781 L 21.839844 6.523438 L 21.734375 6.496094 L 21.628906 6.480469 L 21.519531 6.464844 L 21.410156 6.457031 L 21.296875 6.453125 L 21.296875 6.234375 L 21.421875 6.234375 L 21.664062 6.257812 L 21.898438 6.304688 L 22.011719 6.335938 L 22.230469 6.414062 L 22.339844 6.460938 L 22.441406 6.511719 L 22.542969 6.570312 L 22.640625 6.628906 L 22.734375 6.695312 L 22.828125 6.765625 L 22.914062 6.835938 L 22.996094 6.914062 L 23.078125 6.996094 L 23.152344 7.078125 L 23.222656 7.167969 L 23.289062 7.257812 L 23.355469 7.351562 L 23.410156 7.449219 L 23.464844 7.550781 L 23.511719 7.652344 L 23.554688 7.757812 L 23.59375 7.867188 L 23.625 7.976562 L 23.652344 8.089844 L 23.675781 8.203125 L 23.691406 8.320312 L 23.699219 8.4375 Z M 21.296875 10.882812 L 21.296875 10.664062 L 21.410156 10.660156 L 21.519531 10.652344 L 21.628906 10.636719 L 21.734375 10.621094 L 21.839844 10.59375 L 21.941406 10.566406 L 22.042969 10.535156 L 22.140625 10.496094 L 22.238281 10.453125 L 22.332031 10.40625 L 22.421875 10.355469 L 22.511719 10.300781 L 22.597656 10.242188 L 22.679688 10.179688 L 22.757812 10.113281 L 22.90625 9.972656 L 23.039062 9.816406 L 23.097656 9.734375 L 23.15625 9.648438 L 23.207031 9.558594 L 23.253906 9.46875 L 23.300781 9.375 L 23.339844 9.28125 L 23.375 9.183594 L 23.402344 9.082031 L 23.425781 8.980469 L 23.445312 8.878906 L 23.460938 8.773438 L 23.46875 8.667969 L 23.472656 8.558594 L 23.703125 8.558594 L 23.699219 8.679688 L 23.675781 8.914062 L 23.652344 9.027344 L 23.625 9.140625 L 23.59375 9.25 L 23.554688 9.359375 L 23.511719 9.464844 L 23.464844 9.566406 L 23.410156 9.667969 L 23.351562 9.765625 L 23.289062 9.859375 L 23.222656 9.949219 L 23.152344 10.039062 L 22.996094 10.203125 L 22.914062 10.28125 L 22.734375 10.421875 L 22.640625 10.488281 L 22.542969 10.546875 L 22.339844 10.65625 L 22.230469 10.703125 L 22.011719 10.78125 L 21.894531 10.8125 L 21.78125 10.835938 L 21.660156 10.855469 L 21.542969 10.871094 L 21.417969 10.882812 Z M 21.296875 10.882812 "/>
<path style=" stroke:none;fill-rule:nonzero;fill:rgb(92.941176%,41.176471%,36.078431%);fill-opacity:1;" d="M 21.300781 12.824219 L 5.445312 12.824219 C 5.261719 12.824219 5.109375 12.972656 5.109375 13.152344 C 5.109375 13.332031 5.261719 13.476562 5.445312 13.476562 L 21.300781 13.476562 C 21.816406 13.476562 22.238281 13.882812 22.238281 14.382812 L 22.238281 21.308594 C 22.238281 21.808594 21.816406 22.214844 21.300781 22.214844 L 20.492188 22.214844 L 20.492188 20.09375 C 20.492188 19.914062 20.34375 19.769531 20.15625 19.769531 L 2.75 19.769531 C 2.566406 19.769531 2.414062 19.914062 2.414062 20.09375 L 2.414062 22.214844 L 1.609375 22.214844 C 1.09375 22.214844 0.671875 21.808594 0.671875 21.308594 L 0.671875 14.382812 C 0.671875 13.882812 1.09375 13.476562 1.609375 13.476562 L 4.101562 13.476562 C 4.289062 13.476562 4.4375 13.332031 4.4375 13.152344 C 4.4375 12.972656 4.289062 12.824219 4.101562 12.824219 L 1.609375 12.824219 C 0.722656 12.824219 0 13.523438 0 14.382812 L 0 21.308594 C 0 22.167969 0.722656 22.863281 1.609375 22.863281 L 5.109375 22.863281 C 5.296875 22.863281 5.449219 22.71875 5.449219 22.539062 C 5.449219 22.359375 5.296875 22.214844 5.109375 22.214844 L 3.089844 22.214844 L 3.089844 21.644531 L 16.453125 21.644531 C 16.640625 21.644531 16.789062 21.496094 16.789062 21.316406 C 16.789062 21.136719 16.636719 20.992188 16.453125 20.992188 L 3.089844 20.992188 L 3.089844 20.421875 L 19.820312 20.421875 L 19.820312 20.992188 L 17.800781 20.992188 C 17.613281 20.992188 17.460938 21.136719 17.460938 21.316406 C 17.460938 21.496094 17.613281 21.644531 17.800781 21.644531 L 19.820312 21.644531 L 19.820312 22.214844 L 6.457031 22.214844 C 6.269531 22.214844 6.121094 22.359375 6.121094 22.539062 C 6.121094 22.71875 6.273438 22.863281 6.457031 22.863281 L 21.300781 22.863281 C 22.1875 22.863281 22.910156 22.167969 22.910156 21.308594 L 22.910156 14.382812 C 22.910156 13.523438 22.1875 12.824219 21.300781 12.824219 Z M 21.300781 12.824219 "/>
<path style=" stroke:none;fill-rule:nonzero;fill:rgb(92.941176%,41.176471%,36.078431%);fill-opacity:1;" d="M 20.15625 15.46875 C 20.34375 15.46875 20.492188 15.324219 20.492188 15.144531 C 20.492188 14.964844 20.34375 14.820312 20.15625 14.820312 L 19.164062 14.820312 C 18.976562 14.820312 18.828125 14.964844 18.828125 15.144531 C 18.828125 15.324219 18.976562 15.46875 19.164062 15.46875 Z M 20.15625 15.46875 "/>
<path style=" stroke:none;fill-rule:nonzero;fill:rgb(92.941176%,41.176471%,36.078431%);fill-opacity:1;" d="M 17.628906 15.46875 C 17.8125 15.46875 17.964844 15.324219 17.964844 15.144531 C 17.964844 14.964844 17.8125 14.820312 17.628906 14.820312 L 11.261719 14.820312 C 11.078125 14.820312 10.925781 14.964844 10.925781 15.144531 C 10.925781 15.324219 11.078125 15.46875 11.261719 15.46875 Z M 17.628906 15.46875 "/>
<path style=" stroke:none;fill-rule:nonzero;fill:rgb(92.941176%,41.176471%,36.078431%);fill-opacity:1;" d="M 6.328125 23.734375 C 6.140625 23.734375 5.988281 23.882812 5.988281 24.058594 C 5.988281 24.070312 5.980469 25.035156 5.046875 25.675781 C 4.894531 25.777344 4.859375 25.984375 4.964844 26.128906 C 5.03125 26.21875 5.136719 26.265625 5.242188 26.265625 C 5.308594 26.265625 5.375 26.246094 5.4375 26.207031 C 6.648438 25.371094 6.664062 24.113281 6.664062 24.058594 C 6.664062 23.878906 6.511719 23.734375 6.328125 23.734375 Z M 6.328125 23.734375 "/>
<path style=" stroke:none;fill-rule:nonzero;fill:rgb(92.941176%,41.176471%,36.078431%);fill-opacity:1;" d="M 8.734375 23.734375 C 8.546875 23.734375 8.398438 23.882812 8.398438 24.058594 L 8.398438 25.941406 C 8.398438 26.121094 8.546875 26.265625 8.734375 26.265625 C 8.921875 26.265625 9.070312 26.121094 9.070312 25.941406 L 9.070312 24.058594 C 9.070312 23.878906 8.917969 23.734375 8.734375 23.734375 Z M 8.734375 23.734375 "/>
<path style=" stroke:none;fill-rule:nonzero;fill:rgb(92.941176%,41.176471%,36.078431%);fill-opacity:1;" d="M 11.550781 23.734375 C 11.363281 23.734375 11.210938 23.882812 11.210938 24.058594 L 11.210938 25.941406 C 11.210938 26.121094 11.363281 26.265625 11.550781 26.265625 C 11.734375 26.265625 11.886719 26.121094 11.886719 25.941406 L 11.886719 24.058594 C 11.886719 23.878906 11.734375 23.734375 11.550781 23.734375 Z M 11.550781 23.734375 "/>
<path style=" stroke:none;fill-rule:nonzero;fill:rgb(92.941176%,41.176471%,36.078431%);fill-opacity:1;" d="M 17.863281 25.675781 C 16.941406 25.042969 16.917969 24.101562 16.917969 24.058594 C 16.917969 23.878906 16.769531 23.734375 16.582031 23.734375 C 16.398438 23.734375 16.246094 23.882812 16.246094 24.058594 C 16.246094 24.113281 16.261719 25.371094 17.472656 26.207031 C 17.53125 26.246094 17.601562 26.265625 17.667969 26.265625 C 17.773438 26.265625 17.875 26.21875 17.941406 26.128906 C 18.050781 25.984375 18.015625 25.78125 17.863281 25.675781 Z M 17.863281 25.675781 "/>
<path style=" stroke:none;fill-rule:nonzero;fill:rgb(92.941176%,41.176471%,36.078431%);fill-opacity:1;" d="M 14.175781 23.734375 C 13.988281 23.734375 13.839844 23.882812 13.839844 24.058594 L 13.839844 25.941406 C 13.839844 26.121094 13.988281 26.265625 14.175781 26.265625 C 14.359375 26.265625 14.511719 26.121094 14.511719 25.941406 L 14.511719 24.058594 C 14.511719 23.878906 14.359375 23.734375 14.175781 23.734375 Z M 14.175781 23.734375 "/>
<path style=" stroke:none;fill-rule:nonzero;fill:rgb(92.941176%,41.176471%,36.078431%);fill-opacity:1;" d="M 14.851562 5.480469 C 14.023438 6.867188 13.714844 8.488281 13.972656 10.074219 C 14 10.246094 14.167969 10.363281 14.347656 10.335938 C 14.527344 10.308594 14.648438 10.144531 14.621094 9.972656 C 14.121094 6.929688 15.957031 3.980469 18.972656 2.980469 C 21.984375 1.980469 25.304688 3.21875 26.84375 5.917969 C 28.382812 8.613281 27.695312 11.992188 25.214844 13.921875 C 25.121094 13.992188 25.074219 14.105469 25.09375 14.21875 C 25.109375 14.332031 25.1875 14.425781 25.296875 14.46875 C 25.410156 14.507812 25.535156 14.492188 25.625 14.417969 C 27.882812 12.660156 28.832031 9.769531 28.042969 7.074219 C 27.25 4.378906 24.867188 2.402344 21.992188 2.054688 C 19.117188 1.707031 16.308594 3.058594 14.855469 5.484375 Z M 14.851562 5.480469 "/>
</g>
</svg>
