<?xml version="1.0" encoding="UTF-8"?>
<svg xmlns="http://www.w3.org/2000/svg" xmlns:xlink="http://www.w3.org/1999/xlink" width="28px" height="28px" viewBox="0 0 28 24" version="1.1">
<g id="surface1">
<path style="fill-rule:nonzero;fill:rgb(92.941176%,41.176471%,36.078431%);fill-opacity:1;stroke-width:7.18;stroke-linecap:butt;stroke-linejoin:miter;stroke:rgb(92.941176%,41.176471%,36.078431%);stroke-opacity:1;stroke-miterlimit:22.9256;" d="M 285.026199 79.057912 L 298.898216 87.034463 C 299.022628 87.163117 299.209247 87.227444 299.33366 87.227444 C 299.644692 87.227444 300.01793 87.034463 300.142343 86.712828 L 301.697501 84.07542 C 301.821914 83.882439 301.821914 83.625131 301.759708 83.367822 C 301.697501 83.110514 301.573089 82.917533 301.324263 82.788879 L 287.452247 74.748001 C 287.265628 74.683674 287.016802 74.619347 286.767977 74.683674 C 286.519152 74.748001 286.332532 74.940982 286.20812 75.133963 L 284.652961 77.771371 C 284.404136 78.221661 284.590755 78.800604 285.026199 79.057912 Z M 285.026199 79.057912 " transform="matrix(0.062795,0,0,0.0607249,0.000207709,0)"/>
<path style=" stroke:none;fill-rule:nonzero;fill:rgb(92.941176%,41.176471%,36.078431%);fill-opacity:1;" d="M 17.898438 4.800781 L 18.769531 5.285156 C 18.777344 5.292969 18.789062 5.296875 18.796875 5.296875 C 18.816406 5.296875 18.839844 5.285156 18.847656 5.265625 L 18.945312 5.105469 C 18.953125 5.09375 18.953125 5.078125 18.949219 5.0625 C 18.945312 5.046875 18.9375 5.035156 18.921875 5.027344 L 18.050781 4.539062 C 18.039062 4.535156 18.023438 4.53125 18.007812 4.535156 C 17.992188 4.539062 17.980469 4.550781 17.972656 4.5625 L 17.875 4.722656 C 17.859375 4.75 17.871094 4.785156 17.898438 4.800781 Z M 17.898438 4.800781 "/>
<path style=" stroke:none;fill-rule:nonzero;fill:rgb(92.941176%,41.176471%,36.078431%);fill-opacity:1;" d="M 18.710938 5.382812 L 17.839844 4.898438 L 17.953125 4.703125 L 18.824219 5.191406 Z M 18.824219 5.191406 L 18.820312 5.1875 Z M 18.796875 5.183594 L 18.796875 5.40625 L 18.773438 5.40625 L 18.761719 5.402344 L 18.757812 5.402344 L 18.742188 5.398438 L 18.746094 5.398438 L 18.738281 5.398438 L 18.726562 5.394531 L 18.726562 5.390625 L 18.738281 5.398438 L 18.734375 5.398438 L 18.71875 5.390625 L 18.71875 5.386719 L 18.710938 5.386719 L 18.710938 5.382812 L 18.71875 5.390625 L 18.714844 5.386719 L 18.828125 5.195312 L 18.824219 5.191406 L 18.835938 5.195312 L 18.835938 5.199219 L 18.832031 5.195312 L 18.816406 5.191406 L 18.828125 5.195312 L 18.820312 5.191406 L 18.816406 5.191406 L 18.824219 5.191406 L 18.8125 5.1875 L 18.816406 5.1875 L 18.804688 5.1875 L 18.808594 5.1875 Z M 18.75 5.210938 L 18.949219 5.320312 L 18.949219 5.324219 L 18.933594 5.339844 L 18.933594 5.34375 L 18.910156 5.367188 L 18.902344 5.371094 L 18.898438 5.375 L 18.886719 5.382812 L 18.878906 5.386719 L 18.875 5.386719 L 18.859375 5.394531 L 18.855469 5.394531 L 18.855469 5.398438 L 18.847656 5.398438 L 18.824219 5.40625 L 18.796875 5.40625 L 18.796875 5.183594 L 18.789062 5.183594 L 18.792969 5.183594 L 18.785156 5.183594 L 18.777344 5.1875 L 18.78125 5.1875 L 18.785156 5.183594 L 18.777344 5.1875 L 18.773438 5.1875 L 18.777344 5.1875 L 18.773438 5.191406 L 18.765625 5.191406 L 18.769531 5.191406 L 18.765625 5.191406 L 18.769531 5.191406 L 18.761719 5.195312 L 18.761719 5.199219 L 18.761719 5.195312 L 18.753906 5.203125 L 18.757812 5.199219 L 18.75 5.207031 L 18.753906 5.207031 L 18.753906 5.203125 L 18.75 5.207031 Z M 18.949219 5.320312 L 18.949219 5.324219 Z M 19.042969 5.160156 L 18.949219 5.320312 L 18.75 5.210938 L 18.84375 5.050781 L 19.046875 5.160156 Z M 19.046875 5.160156 L 19.042969 5.160156 L 19.042969 5.164062 Z M 18.839844 5.09375 L 19.058594 5.027344 L 19.0625 5.035156 L 19.0625 5.054688 L 19.066406 5.0625 L 19.066406 5.089844 L 19.0625 5.101562 L 19.0625 5.121094 L 19.058594 5.128906 L 19.058594 5.121094 L 19.058594 5.128906 L 19.054688 5.140625 L 19.054688 5.136719 L 19.050781 5.144531 L 19.050781 5.152344 L 19.046875 5.160156 L 19.046875 5.15625 L 19.042969 5.164062 L 18.84375 5.054688 L 18.839844 5.058594 L 18.84375 5.054688 L 18.839844 5.058594 L 18.839844 5.0625 L 18.839844 5.058594 L 18.835938 5.066406 L 18.839844 5.058594 L 18.835938 5.066406 L 18.835938 5.070312 L 18.839844 5.058594 L 18.835938 5.066406 L 18.835938 5.074219 L 18.835938 5.066406 L 18.835938 5.074219 L 18.835938 5.070312 L 18.835938 5.078125 L 18.835938 5.074219 L 18.835938 5.082031 L 18.835938 5.078125 L 18.835938 5.085938 L 18.835938 5.082031 L 18.835938 5.089844 Z M 19.058594 5.027344 L 19.0625 5.035156 Z M 18.863281 5.125 L 18.980469 4.929688 L 18.976562 4.929688 L 18.984375 4.933594 L 18.992188 4.941406 L 18.996094 4.941406 L 19 4.945312 L 19.003906 4.945312 L 19.015625 4.957031 L 19.011719 4.953125 L 19.027344 4.96875 L 19.023438 4.964844 L 19.027344 4.972656 L 19.03125 4.976562 L 19.027344 4.972656 L 19.03125 4.972656 L 19.042969 4.996094 L 19.046875 5 L 19.050781 5.011719 L 19.054688 5.011719 L 19.054688 5.015625 L 19.058594 5.027344 L 19.058594 5.023438 L 19.058594 5.027344 L 18.839844 5.09375 L 18.839844 5.089844 L 18.839844 5.097656 L 18.84375 5.105469 L 18.84375 5.101562 L 18.839844 5.097656 L 18.84375 5.101562 L 18.84375 5.105469 L 18.851562 5.113281 L 18.847656 5.105469 L 18.847656 5.109375 L 18.851562 5.113281 L 18.847656 5.109375 L 18.851562 5.109375 L 18.859375 5.117188 L 18.851562 5.113281 L 18.859375 5.121094 L 18.859375 5.117188 L 18.855469 5.117188 L 18.863281 5.125 L 18.863281 5.121094 L 18.859375 5.121094 Z M 18.867188 5.125 L 18.863281 5.125 Z M 18.109375 4.445312 L 18.980469 4.929688 L 18.863281 5.121094 L 17.996094 4.636719 L 18.105469 4.441406 Z M 18.105469 4.441406 L 18.109375 4.445312 Z M 18.035156 4.644531 L 17.976562 4.429688 L 17.972656 4.429688 L 17.980469 4.425781 L 17.996094 4.425781 L 18.007812 4.421875 L 18.035156 4.421875 L 18.046875 4.425781 L 18.039062 4.421875 L 18.0625 4.425781 L 18.054688 4.425781 L 18.066406 4.429688 L 18.074219 4.429688 L 18.074219 4.433594 L 18.082031 4.433594 L 18.089844 4.4375 L 18.09375 4.4375 L 18.101562 4.441406 L 18.105469 4.445312 L 17.996094 4.640625 L 18 4.640625 L 17.996094 4.640625 L 18.003906 4.640625 L 18 4.640625 L 18.007812 4.644531 L 18.007812 4.640625 L 18 4.640625 L 18.007812 4.640625 L 18.015625 4.644531 L 18.007812 4.640625 L 18.003906 4.640625 L 18.023438 4.644531 L 18.011719 4.644531 L 18.023438 4.644531 L 18.019531 4.644531 L 18.027344 4.644531 L 18.023438 4.644531 L 18.03125 4.644531 L 18.027344 4.644531 L 18.035156 4.640625 L 18.039062 4.640625 Z M 18.039062 4.640625 L 18.035156 4.640625 Z M 18.070312 4.617188 L 17.871094 4.507812 L 17.875 4.5 L 17.882812 4.492188 L 17.886719 4.484375 L 17.894531 4.472656 L 17.898438 4.472656 L 17.902344 4.464844 L 17.90625 4.464844 L 17.910156 4.460938 L 17.914062 4.460938 L 17.925781 4.449219 L 17.929688 4.449219 L 17.941406 4.441406 L 17.949219 4.4375 L 17.949219 4.441406 L 17.941406 4.441406 L 17.964844 4.433594 L 17.957031 4.4375 L 17.960938 4.433594 L 17.976562 4.429688 L 18.035156 4.644531 L 18.03125 4.644531 L 18.042969 4.640625 L 18.046875 4.640625 L 18.035156 4.644531 L 18.050781 4.636719 L 18.042969 4.640625 L 18.039062 4.644531 L 18.042969 4.640625 L 18.050781 4.636719 L 18.054688 4.636719 L 18.050781 4.636719 L 18.058594 4.632812 L 18.054688 4.632812 L 18.058594 4.632812 L 18.058594 4.628906 L 18.058594 4.632812 L 18.066406 4.621094 L 18.066406 4.625 L 18.066406 4.621094 L 18.066406 4.625 L 18.070312 4.617188 L 18.070312 4.621094 L 18.066406 4.621094 Z M 18.070312 4.613281 L 18.070312 4.617188 L 18.074219 4.613281 L 18.070312 4.617188 Z M 17.777344 4.667969 L 17.871094 4.503906 L 18.070312 4.617188 L 17.972656 4.777344 Z M 17.953125 4.703125 L 17.839844 4.898438 L 17.839844 4.894531 L 17.832031 4.894531 L 17.824219 4.886719 L 17.816406 4.882812 L 17.8125 4.875 L 17.804688 4.875 L 17.800781 4.867188 L 17.78125 4.847656 L 17.78125 4.84375 L 17.773438 4.835938 L 17.769531 4.824219 L 17.765625 4.820312 L 17.761719 4.8125 L 17.761719 4.804688 L 17.757812 4.796875 L 17.753906 4.785156 L 17.753906 4.777344 L 17.75 4.765625 L 17.75 4.730469 L 17.753906 4.722656 L 17.753906 4.714844 L 17.757812 4.710938 L 17.757812 4.699219 L 17.761719 4.6875 L 17.765625 4.683594 L 17.773438 4.667969 L 17.972656 4.78125 L 17.976562 4.777344 L 17.976562 4.769531 L 17.980469 4.761719 L 17.976562 4.765625 L 17.980469 4.757812 L 17.980469 4.75 L 17.980469 4.753906 L 17.980469 4.746094 L 17.976562 4.742188 L 17.980469 4.746094 L 17.976562 4.742188 L 17.976562 4.730469 L 17.96875 4.722656 L 17.972656 4.722656 L 17.96875 4.722656 L 17.964844 4.71875 L 17.964844 4.714844 L 17.960938 4.710938 L 17.957031 4.710938 L 17.953125 4.707031 Z M 17.839844 4.898438 L 17.839844 4.894531 L 17.84375 4.898438 Z M 17.839844 4.898438 "/>
<path style="fill-rule:nonzero;fill:rgb(92.941176%,41.176471%,36.078431%);fill-opacity:1;stroke-width:7.18;stroke-linecap:butt;stroke-linejoin:miter;stroke:rgb(92.941176%,41.176471%,36.078431%);stroke-opacity:1;stroke-miterlimit:22.9256;" d="M 300.142343 129.361644 C 299.893517 128.911355 299.33366 128.718374 298.898216 128.975682 L 285.026199 137.01656 C 284.590755 137.209541 284.404136 137.852811 284.652961 138.303101 L 286.20812 140.940509 C 286.270326 141.13349 286.519152 141.326471 286.767977 141.390798 C 286.830183 141.390798 286.89239 141.390798 287.016802 141.390798 C 287.141215 141.390798 287.327834 141.326471 287.452247 141.262144 L 301.324263 133.285593 C 301.510882 133.092612 301.697501 132.899631 301.759708 132.642322 C 301.821914 132.449341 301.759708 132.192033 301.697501 131.999052 Z M 300.142343 129.361644 " transform="matrix(0.062795,0,0,0.0607249,0.000207709,0)"/>
<path style=" stroke:none;fill-rule:nonzero;fill:rgb(92.941176%,41.176471%,36.078431%);fill-opacity:1;" d="M 18.847656 7.855469 C 18.832031 7.828125 18.796875 7.816406 18.769531 7.832031 L 17.898438 8.320312 C 17.871094 8.332031 17.859375 8.371094 17.875 8.398438 L 17.972656 8.558594 C 17.976562 8.570312 17.992188 8.582031 18.007812 8.585938 C 18.011719 8.585938 18.015625 8.585938 18.023438 8.585938 C 18.03125 8.585938 18.042969 8.582031 18.050781 8.578125 L 18.921875 8.09375 C 18.933594 8.082031 18.945312 8.070312 18.949219 8.054688 C 18.953125 8.042969 18.949219 8.027344 18.945312 8.015625 Z M 18.847656 7.855469 "/>
<path style=" stroke:none;fill-rule:nonzero;fill:rgb(92.941176%,41.176471%,36.078431%);fill-opacity:1;" d="M 18.824219 7.929688 L 18.710938 7.738281 L 18.742188 7.722656 L 18.753906 7.71875 L 18.769531 7.71875 L 18.773438 7.714844 L 18.828125 7.714844 L 18.835938 7.71875 L 18.847656 7.71875 L 18.851562 7.722656 L 18.859375 7.726562 L 18.867188 7.726562 L 18.875 7.730469 L 18.878906 7.734375 L 18.890625 7.738281 L 18.898438 7.742188 L 18.933594 7.777344 L 18.941406 7.78125 L 18.949219 7.796875 L 18.753906 7.910156 L 18.753906 7.914062 L 18.761719 7.921875 L 18.769531 7.925781 L 18.773438 7.929688 L 18.777344 7.929688 L 18.777344 7.933594 L 18.800781 7.933594 L 18.796875 7.933594 L 18.808594 7.933594 L 18.804688 7.933594 L 18.8125 7.933594 L 18.816406 7.929688 L 18.820312 7.929688 L 18.824219 7.925781 Z M 18.828125 7.929688 L 18.824219 7.929688 L 18.820312 7.933594 Z M 17.839844 8.222656 L 18.710938 7.738281 L 18.824219 7.929688 L 17.953125 8.414062 L 17.953125 8.417969 Z M 17.953125 8.414062 L 17.953125 8.417969 Z M 17.972656 8.34375 L 17.777344 8.453125 L 17.769531 8.445312 L 17.769531 8.4375 L 17.765625 8.433594 L 17.757812 8.410156 L 17.757812 8.40625 L 17.753906 8.402344 L 17.753906 8.34375 L 17.757812 8.335938 L 17.761719 8.324219 L 17.761719 8.316406 L 17.765625 8.3125 L 17.765625 8.304688 L 17.769531 8.296875 L 17.777344 8.285156 L 17.785156 8.277344 L 17.789062 8.269531 L 17.796875 8.261719 L 17.800781 8.253906 L 17.808594 8.25 L 17.820312 8.238281 L 17.828125 8.234375 L 17.835938 8.226562 L 17.84375 8.222656 L 17.953125 8.417969 L 17.960938 8.414062 L 17.972656 8.402344 L 17.972656 8.398438 L 17.976562 8.398438 L 17.976562 8.394531 L 17.980469 8.390625 L 17.980469 8.367188 L 17.980469 8.371094 L 17.980469 8.355469 L 17.980469 8.359375 L 17.980469 8.355469 L 17.976562 8.347656 L 17.976562 8.34375 Z M 17.777344 8.453125 L 17.761719 8.433594 Z M 17.871094 8.613281 L 17.777344 8.453125 L 17.972656 8.34375 L 18.070312 8.503906 Z M 18.070312 8.503906 L 18.078125 8.515625 Z M 18.039062 8.480469 L 17.972656 8.691406 L 17.976562 8.691406 L 17.96875 8.691406 L 17.96875 8.6875 L 17.964844 8.6875 L 17.957031 8.683594 L 17.945312 8.679688 L 17.949219 8.683594 L 17.933594 8.675781 L 17.929688 8.671875 L 17.925781 8.671875 L 17.921875 8.667969 L 17.914062 8.664062 L 17.914062 8.660156 L 17.910156 8.660156 L 17.902344 8.65625 L 17.894531 8.644531 L 17.898438 8.648438 L 17.894531 8.648438 L 17.886719 8.636719 L 17.886719 8.632812 L 17.875 8.621094 L 17.878906 8.625 L 17.875 8.621094 L 17.871094 8.613281 L 18.070312 8.503906 L 18.066406 8.5 L 18.066406 8.496094 L 18.070312 8.503906 L 18.0625 8.496094 L 18.066406 8.5 L 18.058594 8.492188 L 18.0625 8.496094 L 18.054688 8.492188 L 18.050781 8.488281 L 18.058594 8.488281 L 18.042969 8.480469 L 18.046875 8.484375 L 18.042969 8.480469 L 18.035156 8.476562 L 18.035156 8.480469 L 18.039062 8.480469 L 18.035156 8.480469 Z M 18.035156 8.476562 L 18.039062 8.480469 L 18.039062 8.476562 Z M 18.023438 8.476562 L 18.023438 8.699219 L 18.015625 8.699219 L 17.988281 8.695312 L 17.984375 8.695312 L 18.011719 8.699219 L 17.980469 8.695312 L 18.007812 8.699219 L 17.980469 8.695312 L 18.007812 8.699219 L 17.976562 8.695312 L 18.003906 8.699219 L 17.976562 8.695312 L 17.96875 8.695312 L 18.035156 8.480469 L 18.03125 8.480469 L 18.003906 8.476562 L 18.03125 8.480469 L 18.035156 8.480469 L 18.007812 8.476562 L 18.035156 8.480469 L 18.007812 8.476562 L 18.035156 8.480469 L 18.039062 8.480469 L 18.011719 8.476562 L 18.042969 8.480469 L 18.015625 8.476562 Z M 17.996094 8.484375 L 18.109375 8.675781 L 18.101562 8.679688 L 18.101562 8.683594 L 18.085938 8.6875 L 18.078125 8.691406 L 18.066406 8.695312 L 18.070312 8.691406 L 18.066406 8.691406 L 18.0625 8.695312 L 18.066406 8.691406 L 18.050781 8.695312 L 18.046875 8.695312 L 18.058594 8.695312 L 18.03125 8.695312 L 18.042969 8.695312 L 18.027344 8.695312 L 18.027344 8.472656 L 18.015625 8.472656 L 18.03125 8.472656 L 18.019531 8.472656 L 18.011719 8.476562 L 18.023438 8.472656 L 18.011719 8.476562 L 18.015625 8.476562 L 18.011719 8.476562 L 18.019531 8.476562 L 18.007812 8.476562 L 18.003906 8.480469 L 18.003906 8.476562 L 18.007812 8.476562 L 17.996094 8.480469 L 18 8.480469 L 17.996094 8.480469 Z M 18.109375 8.675781 L 18.105469 8.675781 Z M 18.980469 8.191406 L 18.109375 8.675781 L 17.996094 8.484375 L 18.867188 8 L 18.984375 8.1875 Z M 18.984375 8.1875 L 18.980469 8.191406 L 18.980469 8.1875 Z M 18.839844 8.03125 L 19.0625 8.089844 L 19.058594 8.09375 L 19.050781 8.117188 L 19.046875 8.121094 L 19.050781 8.117188 L 19.050781 8.121094 L 19.046875 8.121094 L 19.042969 8.132812 L 19.039062 8.136719 L 19.039062 8.140625 L 19.039062 8.136719 L 19.035156 8.144531 L 19.03125 8.148438 L 19.03125 8.152344 L 19.023438 8.15625 L 19.019531 8.164062 L 19.023438 8.160156 L 19.015625 8.164062 L 19.007812 8.175781 L 19.011719 8.171875 L 19.007812 8.171875 L 19.003906 8.179688 L 19 8.179688 L 18.988281 8.1875 L 18.863281 8 L 18.867188 8 L 18.859375 8.007812 L 18.859375 8.003906 L 18.855469 8.007812 L 18.859375 8.007812 L 18.863281 8 L 18.851562 8.011719 L 18.859375 8.007812 L 18.855469 8.007812 L 18.851562 8.011719 L 18.851562 8.015625 L 18.847656 8.019531 L 18.851562 8.011719 L 18.847656 8.015625 L 18.84375 8.023438 L 18.84375 8.019531 L 18.847656 8.015625 L 18.84375 8.027344 L 18.84375 8.019531 L 18.84375 8.027344 Z M 19.0625 8.089844 Z M 18.84375 8.070312 L 19.042969 7.960938 L 19.050781 7.96875 L 19.050781 7.976562 L 19.054688 7.980469 L 19.058594 7.988281 L 19.054688 7.984375 L 19.058594 7.992188 L 19.0625 8.003906 L 19.058594 7.996094 L 19.0625 8 L 19.0625 8.007812 L 19.066406 8.015625 L 19.066406 8.035156 L 19.070312 8.046875 L 19.070312 8.050781 L 19.066406 8.058594 L 19.066406 8.078125 L 19.0625 8.085938 L 19.0625 8.089844 L 18.839844 8.03125 L 18.839844 8.050781 L 18.839844 8.046875 L 18.839844 8.054688 L 18.839844 8.050781 L 18.839844 8.058594 L 18.839844 8.050781 L 18.839844 8.058594 L 18.84375 8.0625 L 18.839844 8.0625 L 18.839844 8.054688 L 18.839844 8.0625 L 18.84375 8.066406 L 18.839844 8.058594 L 18.84375 8.066406 L 18.84375 8.070312 L 18.847656 8.070312 Z M 19.042969 7.960938 L 19.042969 7.957031 Z M 18.949219 7.800781 L 19.042969 7.960938 L 18.84375 8.070312 L 18.75 7.910156 L 18.949219 7.796875 Z M 18.949219 7.800781 L 18.953125 7.804688 Z M 18.949219 7.800781 "/>
<path style="fill-rule:nonzero;fill:rgb(92.941176%,41.176471%,36.078431%);fill-opacity:1;stroke-width:7.18;stroke-linecap:butt;stroke-linejoin:miter;stroke:rgb(92.941176%,41.176471%,36.078431%);stroke-opacity:1;stroke-miterlimit:22.9256;" d="M 312.210375 63.74808 C 312.334788 63.876734 312.4592 63.941061 312.64582 63.941061 C 312.708026 63.941061 312.770232 63.941061 312.894645 63.876734 L 315.507312 62.397213 C 315.756137 62.268559 315.818343 61.946924 315.693931 61.753943 L 311.339486 54.163354 C 311.27728 54.0347 311.152867 53.970373 311.028454 53.970373 C 310.904042 53.906046 310.779629 53.906046 310.655216 53.970373 L 308.042549 55.514221 C 307.918137 55.578548 307.85593 55.642875 307.793724 55.771529 C 307.793724 55.900183 307.793724 56.028837 307.85593 56.157492 Z M 312.210375 63.74808 " transform="matrix(0.062795,0,0,0.0607249,0.000207709,0)"/>
<path style=" stroke:none;fill-rule:nonzero;fill:rgb(92.941176%,41.176471%,36.078431%);fill-opacity:1;" d="M 19.605469 3.871094 C 19.613281 3.878906 19.621094 3.882812 19.632812 3.882812 C 19.636719 3.882812 19.640625 3.882812 19.648438 3.878906 L 19.8125 3.789062 C 19.828125 3.78125 19.832031 3.761719 19.824219 3.75 L 19.550781 3.289062 C 19.546875 3.28125 19.539062 3.277344 19.53125 3.277344 C 19.523438 3.273438 19.515625 3.273438 19.507812 3.277344 L 19.34375 3.371094 C 19.335938 3.375 19.332031 3.378906 19.328125 3.386719 C 19.328125 3.394531 19.328125 3.402344 19.332031 3.410156 Z M 19.605469 3.871094 "/>
<path style=" stroke:none;fill-rule:nonzero;fill:rgb(92.941176%,41.176471%,36.078431%);fill-opacity:1;" d="M 19.632812 3.773438 L 19.632812 3.996094 L 19.613281 3.996094 L 19.597656 3.992188 L 19.585938 3.988281 L 19.597656 3.992188 L 19.582031 3.988281 L 19.582031 3.984375 L 19.574219 3.984375 L 19.5625 3.976562 L 19.570312 3.980469 L 19.5625 3.976562 L 19.550781 3.972656 L 19.550781 3.96875 L 19.542969 3.964844 L 19.519531 3.941406 L 19.519531 3.9375 L 19.523438 3.945312 L 19.515625 3.9375 L 19.511719 3.929688 L 19.507812 3.925781 L 19.707031 3.816406 L 19.707031 3.8125 L 19.703125 3.808594 L 19.699219 3.800781 L 19.707031 3.808594 L 19.691406 3.792969 L 19.675781 3.785156 L 19.671875 3.78125 L 19.675781 3.785156 L 19.664062 3.78125 L 19.660156 3.777344 L 19.664062 3.777344 L 19.652344 3.773438 L 19.664062 3.777344 L 19.664062 3.78125 L 19.640625 3.773438 L 19.628906 3.773438 Z M 19.589844 3.785156 L 19.707031 3.976562 L 19.691406 3.980469 L 19.699219 3.980469 L 19.691406 3.984375 L 19.6875 3.984375 L 19.695312 3.980469 L 19.671875 3.988281 L 19.695312 3.980469 L 19.6875 3.984375 L 19.664062 3.988281 L 19.671875 3.988281 L 19.695312 3.980469 L 19.671875 3.988281 L 19.667969 3.988281 L 19.691406 3.980469 L 19.667969 3.988281 L 19.660156 3.988281 L 19.664062 3.988281 L 19.636719 3.992188 L 19.664062 3.988281 L 19.660156 3.988281 L 19.632812 3.992188 L 19.632812 3.769531 L 19.605469 3.773438 L 19.636719 3.769531 L 19.609375 3.773438 L 19.613281 3.769531 L 19.617188 3.769531 L 19.609375 3.773438 L 19.613281 3.773438 L 19.589844 3.78125 L 19.613281 3.773438 L 19.589844 3.78125 L 19.617188 3.773438 L 19.621094 3.769531 L 19.601562 3.777344 L 19.59375 3.78125 L 19.617188 3.769531 L 19.59375 3.78125 L 19.605469 3.777344 L 19.597656 3.78125 L 19.605469 3.777344 L 19.589844 3.78125 Z M 19.707031 3.976562 L 19.699219 3.980469 L 19.691406 3.980469 Z M 19.871094 3.882812 L 19.707031 3.976562 L 19.589844 3.785156 L 19.753906 3.691406 L 19.757812 3.691406 Z M 19.753906 3.691406 L 19.757812 3.691406 L 19.761719 3.6875 Z M 19.722656 3.804688 L 19.921875 3.691406 L 19.925781 3.699219 L 19.925781 3.703125 L 19.929688 3.703125 L 19.933594 3.710938 L 19.9375 3.726562 L 19.9375 3.730469 L 19.941406 3.75 L 19.941406 3.785156 L 19.9375 3.785156 L 19.9375 3.796875 L 19.933594 3.804688 L 19.929688 3.816406 L 19.921875 3.828125 L 19.914062 3.84375 L 19.910156 3.847656 L 19.910156 3.851562 L 19.90625 3.855469 L 19.894531 3.863281 L 19.886719 3.871094 L 19.890625 3.867188 L 19.882812 3.875 L 19.871094 3.882812 L 19.867188 3.882812 L 19.753906 3.691406 L 19.746094 3.695312 L 19.738281 3.703125 L 19.746094 3.699219 L 19.742188 3.703125 L 19.734375 3.707031 L 19.730469 3.710938 L 19.730469 3.714844 L 19.722656 3.722656 L 19.71875 3.734375 L 19.71875 3.730469 L 19.714844 3.738281 L 19.714844 3.742188 L 19.710938 3.75 L 19.710938 3.769531 L 19.710938 3.765625 L 19.71875 3.796875 L 19.722656 3.800781 L 19.722656 3.796875 L 19.726562 3.804688 Z M 19.726562 3.808594 L 19.726562 3.804688 L 19.722656 3.804688 L 19.726562 3.804688 Z M 19.648438 3.234375 L 19.921875 3.691406 L 19.722656 3.804688 L 19.449219 3.34375 Z M 19.449219 3.34375 Z M 19.5 3.382812 L 19.558594 3.167969 L 19.570312 3.167969 L 19.601562 3.183594 L 19.589844 3.175781 L 19.597656 3.179688 L 19.609375 3.191406 L 19.605469 3.183594 L 19.613281 3.191406 L 19.605469 3.1875 L 19.613281 3.191406 L 19.625 3.199219 L 19.625 3.203125 L 19.644531 3.222656 L 19.636719 3.214844 L 19.652344 3.238281 L 19.648438 3.234375 L 19.449219 3.339844 L 19.445312 3.335938 L 19.460938 3.355469 L 19.457031 3.355469 L 19.453125 3.347656 L 19.464844 3.359375 L 19.460938 3.359375 L 19.472656 3.367188 L 19.480469 3.371094 L 19.46875 3.367188 L 19.46875 3.363281 L 19.476562 3.371094 L 19.46875 3.363281 L 19.480469 3.371094 L 19.488281 3.375 L 19.472656 3.367188 L 19.484375 3.375 L 19.5 3.378906 L 19.496094 3.378906 L 19.503906 3.382812 Z M 19.503906 3.382812 L 19.496094 3.382812 Z M 19.566406 3.375 L 19.453125 3.183594 L 19.445312 3.1875 L 19.460938 3.179688 L 19.449219 3.183594 L 19.460938 3.175781 L 19.476562 3.171875 L 19.464844 3.175781 L 19.480469 3.171875 L 19.5 3.167969 L 19.488281 3.167969 L 19.503906 3.164062 L 19.5 3.167969 L 19.519531 3.164062 L 19.503906 3.167969 L 19.523438 3.164062 L 19.542969 3.164062 L 19.542969 3.167969 L 19.527344 3.164062 L 19.566406 3.171875 L 19.558594 3.167969 L 19.5 3.382812 L 19.496094 3.382812 L 19.515625 3.386719 L 19.507812 3.386719 L 19.527344 3.386719 L 19.507812 3.386719 L 19.523438 3.386719 L 19.542969 3.382812 L 19.539062 3.382812 L 19.519531 3.386719 L 19.539062 3.382812 L 19.535156 3.386719 L 19.550781 3.382812 L 19.535156 3.386719 L 19.554688 3.382812 L 19.566406 3.375 L 19.550781 3.382812 L 19.566406 3.375 L 19.578125 3.367188 L 19.5625 3.375 L 19.574219 3.371094 L 19.570312 3.375 Z M 19.570312 3.371094 L 19.566406 3.375 Z M 19.285156 3.273438 L 19.453125 3.183594 L 19.566406 3.375 L 19.402344 3.464844 L 19.398438 3.46875 Z M 19.402344 3.464844 L 19.398438 3.46875 L 19.394531 3.46875 Z M 19.441406 3.417969 L 19.21875 3.359375 L 19.21875 3.351562 L 19.21875 3.355469 L 19.222656 3.339844 L 19.226562 3.335938 L 19.222656 3.347656 L 19.226562 3.332031 L 19.234375 3.324219 L 19.230469 3.332031 L 19.238281 3.316406 L 19.234375 3.320312 L 19.242188 3.308594 L 19.246094 3.308594 L 19.246094 3.304688 L 19.265625 3.285156 L 19.257812 3.296875 L 19.25 3.304688 L 19.265625 3.285156 L 19.28125 3.277344 L 19.269531 3.285156 L 19.285156 3.273438 L 19.292969 3.269531 L 19.285156 3.273438 L 19.398438 3.464844 L 19.394531 3.46875 L 19.402344 3.464844 L 19.414062 3.457031 L 19.410156 3.457031 L 19.398438 3.46875 L 19.410156 3.460938 L 19.425781 3.441406 L 19.417969 3.453125 L 19.410156 3.460938 L 19.425781 3.445312 L 19.421875 3.445312 L 19.421875 3.449219 L 19.429688 3.4375 L 19.425781 3.441406 L 19.433594 3.429688 L 19.429688 3.4375 L 19.433594 3.433594 L 19.4375 3.417969 L 19.433594 3.433594 L 19.433594 3.429688 L 19.4375 3.417969 L 19.4375 3.421875 L 19.4375 3.417969 Z M 19.21875 3.359375 L 19.21875 3.355469 Z M 19.429688 3.355469 L 19.234375 3.464844 L 19.230469 3.460938 L 19.230469 3.457031 L 19.222656 3.445312 L 19.230469 3.457031 L 19.222656 3.441406 L 19.226562 3.449219 L 19.222656 3.441406 L 19.214844 3.421875 L 19.214844 3.417969 L 19.21875 3.433594 L 19.21875 3.4375 L 19.214844 3.417969 L 19.214844 3.414062 L 19.214844 3.417969 L 19.214844 3.371094 L 19.21875 3.355469 L 19.21875 3.359375 L 19.441406 3.417969 L 19.4375 3.425781 L 19.441406 3.410156 L 19.441406 3.40625 L 19.441406 3.410156 L 19.445312 3.394531 L 19.445312 3.398438 L 19.441406 3.378906 L 19.441406 3.382812 L 19.4375 3.367188 L 19.441406 3.371094 L 19.445312 3.386719 L 19.441406 3.367188 L 19.441406 3.371094 L 19.4375 3.363281 L 19.441406 3.371094 L 19.433594 3.359375 L 19.441406 3.375 L 19.433594 3.359375 L 19.433594 3.355469 Z M 19.234375 3.464844 L 19.230469 3.460938 L 19.230469 3.464844 Z M 19.507812 3.925781 L 19.234375 3.464844 L 19.429688 3.355469 L 19.707031 3.8125 Z M 19.707031 3.8125 L 19.710938 3.820312 Z M 19.707031 3.8125 "/>
<path style="fill-rule:nonzero;fill:rgb(92.941176%,41.176471%,36.078431%);fill-opacity:1;stroke-width:7.18;stroke-linecap:butt;stroke-linejoin:miter;stroke:rgb(92.941176%,41.176471%,36.078431%);stroke-opacity:1;stroke-miterlimit:22.9256;" d="M 288.75858 109.548921 L 288.75858 106.525551 C 288.75858 106.010935 288.323136 105.560646 287.825485 105.560646 L 279.054389 105.560646 C 278.556738 105.560646 278.121294 106.010935 278.121294 106.525551 L 278.121294 109.548921 C 278.121294 110.063537 278.556738 110.513826 279.054389 110.513826 L 287.825485 110.513826 C 288.323136 110.513826 288.75858 110.063537 288.75858 109.548921 Z M 288.75858 109.548921 " transform="matrix(0.062795,0,0,0.0607249,0.000207709,0)"/>
<path style="fill-rule:nonzero;fill:rgb(92.941176%,41.176471%,36.078431%);fill-opacity:1;stroke-width:7.18;stroke-linecap:butt;stroke-linejoin:miter;stroke:rgb(92.941176%,41.176471%,36.078431%);stroke-opacity:1;stroke-miterlimit:22.9256;" d="M 315.507312 153.677259 L 312.894645 152.197738 C 312.64582 152.069084 312.334788 152.133411 312.210375 152.326392 L 307.85593 159.91698 C 307.731518 160.109962 307.793724 160.431597 308.042549 160.560251 L 310.655216 162.039772 C 310.779629 162.104099 310.841835 162.104099 310.904042 162.104099 C 310.966248 162.104099 310.966248 162.104099 311.028454 162.104099 C 311.152867 162.104099 311.215073 162.039772 311.339486 161.911118 L 315.693931 154.320529 C 315.756137 154.256202 315.756137 154.127548 315.693931 153.998894 C 315.693931 153.87024 315.631724 153.741586 315.507312 153.677259 Z M 315.507312 153.677259 " transform="matrix(0.062795,0,0,0.0607249,0.000207709,0)"/>
<path style=" stroke:none;fill-rule:nonzero;fill:rgb(92.941176%,41.176471%,36.078431%);fill-opacity:1;" d="M 19.8125 9.332031 L 19.648438 9.242188 C 19.632812 9.234375 19.613281 9.238281 19.605469 9.25 L 19.332031 9.710938 C 19.324219 9.722656 19.328125 9.742188 19.34375 9.75 L 19.507812 9.839844 C 19.515625 9.84375 19.519531 9.84375 19.523438 9.84375 C 19.527344 9.84375 19.527344 9.84375 19.53125 9.84375 C 19.539062 9.84375 19.542969 9.839844 19.550781 9.832031 L 19.824219 9.371094 C 19.828125 9.367188 19.828125 9.359375 19.824219 9.351562 C 19.824219 9.34375 19.820312 9.335938 19.8125 9.332031 Z M 19.8125 9.332031 "/>
<path style=" stroke:none;fill-rule:nonzero;fill:rgb(92.941176%,41.176471%,36.078431%);fill-opacity:1;" d="M 19.703125 9.144531 L 19.871094 9.234375 L 19.753906 9.429688 L 19.589844 9.335938 L 19.585938 9.335938 Z M 19.589844 9.335938 L 19.585938 9.335938 Z M 19.707031 9.304688 L 19.507812 9.195312 L 19.507812 9.191406 L 19.511719 9.191406 L 19.519531 9.179688 L 19.523438 9.171875 L 19.519531 9.175781 L 19.53125 9.167969 L 19.542969 9.15625 L 19.550781 9.152344 L 19.554688 9.148438 L 19.5625 9.144531 L 19.574219 9.136719 L 19.578125 9.136719 L 19.585938 9.132812 L 19.597656 9.128906 L 19.601562 9.128906 L 19.621094 9.125 L 19.644531 9.125 L 19.65625 9.128906 L 19.664062 9.128906 L 19.675781 9.132812 L 19.679688 9.132812 L 19.695312 9.140625 L 19.699219 9.140625 L 19.707031 9.144531 L 19.589844 9.335938 L 19.59375 9.339844 L 19.601562 9.339844 L 19.605469 9.34375 L 19.613281 9.34375 L 19.621094 9.347656 L 19.628906 9.347656 L 19.625 9.347656 L 19.640625 9.347656 L 19.636719 9.347656 L 19.65625 9.34375 L 19.652344 9.34375 L 19.660156 9.34375 L 19.667969 9.339844 L 19.664062 9.339844 L 19.664062 9.34375 L 19.671875 9.335938 L 19.679688 9.335938 L 19.6875 9.328125 L 19.683594 9.328125 L 19.683594 9.332031 L 19.699219 9.316406 L 19.695312 9.320312 L 19.699219 9.316406 L 19.703125 9.308594 Z M 19.507812 9.195312 L 19.507812 9.191406 Z M 19.234375 9.65625 L 19.507812 9.195312 L 19.707031 9.304688 L 19.433594 9.765625 Z M 19.234375 9.65625 L 19.242188 9.644531 Z M 19.402344 9.652344 L 19.285156 9.847656 L 19.289062 9.847656 L 19.285156 9.84375 L 19.273438 9.839844 L 19.261719 9.828125 L 19.253906 9.824219 L 19.246094 9.8125 L 19.238281 9.804688 L 19.222656 9.78125 L 19.222656 9.769531 L 19.222656 9.773438 L 19.214844 9.75 L 19.214844 9.703125 L 19.21875 9.691406 L 19.222656 9.683594 L 19.222656 9.675781 L 19.230469 9.664062 L 19.234375 9.65625 L 19.433594 9.765625 L 19.433594 9.761719 L 19.4375 9.753906 L 19.441406 9.75 L 19.4375 9.753906 L 19.441406 9.746094 L 19.441406 9.734375 L 19.445312 9.726562 L 19.441406 9.71875 L 19.441406 9.710938 L 19.441406 9.714844 L 19.441406 9.707031 L 19.4375 9.695312 L 19.441406 9.703125 L 19.429688 9.679688 L 19.414062 9.664062 L 19.414062 9.667969 L 19.410156 9.664062 L 19.410156 9.660156 L 19.398438 9.65625 L 19.402344 9.65625 Z M 19.398438 9.652344 L 19.402344 9.652344 L 19.40625 9.65625 Z M 19.453125 9.9375 L 19.285156 9.847656 L 19.398438 9.652344 L 19.566406 9.746094 L 19.574219 9.75 Z M 19.566406 9.746094 L 19.570312 9.75 L 19.574219 9.75 Z M 19.523438 9.734375 L 19.523438 9.957031 L 19.519531 9.957031 L 19.492188 9.953125 L 19.519531 9.957031 L 19.515625 9.957031 L 19.492188 9.953125 L 19.488281 9.953125 L 19.515625 9.957031 L 19.488281 9.953125 L 19.484375 9.953125 L 19.460938 9.945312 L 19.476562 9.949219 L 19.460938 9.945312 L 19.457031 9.945312 L 19.4375 9.933594 L 19.570312 9.753906 L 19.574219 9.757812 L 19.558594 9.746094 L 19.5625 9.746094 L 19.546875 9.742188 L 19.5625 9.746094 L 19.539062 9.738281 L 19.542969 9.738281 L 19.515625 9.734375 L 19.542969 9.738281 L 19.539062 9.738281 L 19.515625 9.734375 L 19.519531 9.734375 L 19.546875 9.738281 L 19.519531 9.734375 Z M 19.496094 9.738281 L 19.5625 9.953125 L 19.582031 9.945312 L 19.53125 9.957031 L 19.582031 9.945312 L 19.53125 9.957031 L 19.527344 9.957031 L 19.578125 9.945312 L 19.527344 9.957031 L 19.527344 9.734375 L 19.476562 9.746094 L 19.527344 9.734375 L 19.53125 9.734375 L 19.480469 9.746094 L 19.53125 9.734375 L 19.480469 9.746094 Z M 19.5625 9.953125 L 19.609375 9.9375 Z M 19.449219 9.777344 L 19.648438 9.886719 L 19.644531 9.894531 L 19.636719 9.902344 L 19.644531 9.894531 L 19.636719 9.902344 L 19.628906 9.914062 L 19.636719 9.90625 L 19.617188 9.925781 L 19.625 9.917969 L 19.613281 9.925781 L 19.625 9.917969 L 19.613281 9.925781 L 19.605469 9.933594 L 19.613281 9.925781 L 19.597656 9.9375 L 19.609375 9.929688 L 19.589844 9.941406 L 19.59375 9.9375 L 19.570312 9.949219 L 19.5625 9.949219 L 19.496094 9.738281 L 19.480469 9.746094 L 19.480469 9.742188 L 19.484375 9.742188 L 19.476562 9.746094 L 19.484375 9.742188 L 19.464844 9.753906 L 19.480469 9.746094 L 19.46875 9.753906 L 19.476562 9.746094 L 19.460938 9.761719 L 19.46875 9.753906 L 19.460938 9.761719 L 19.460938 9.757812 L 19.472656 9.75 L 19.453125 9.769531 L 19.457031 9.769531 L 19.464844 9.757812 L 19.449219 9.773438 L 19.457031 9.765625 L 19.453125 9.769531 Z M 19.648438 9.886719 L 19.648438 9.890625 L 19.644531 9.894531 Z M 19.921875 9.429688 L 19.648438 9.886719 L 19.449219 9.777344 L 19.722656 9.316406 L 19.921875 9.425781 Z M 19.921875 9.425781 L 19.921875 9.429688 L 19.925781 9.421875 Z M 19.71875 9.386719 L 19.933594 9.3125 L 19.9375 9.320312 L 19.933594 9.316406 L 19.941406 9.335938 L 19.941406 9.378906 L 19.941406 9.375 L 19.941406 9.378906 L 19.9375 9.390625 L 19.9375 9.394531 L 19.9375 9.382812 L 19.929688 9.414062 L 19.925781 9.414062 L 19.933594 9.402344 L 19.925781 9.417969 L 19.933594 9.402344 L 19.921875 9.425781 L 19.722656 9.316406 L 19.722656 9.320312 L 19.714844 9.335938 L 19.722656 9.320312 L 19.714844 9.332031 L 19.722656 9.316406 L 19.714844 9.332031 L 19.710938 9.347656 L 19.714844 9.332031 L 19.714844 9.34375 L 19.710938 9.359375 L 19.710938 9.355469 L 19.714844 9.371094 L 19.710938 9.367188 L 19.71875 9.386719 L 19.714844 9.378906 L 19.71875 9.390625 Z M 19.933594 9.3125 L 19.9375 9.316406 L 19.9375 9.320312 Z M 19.753906 9.429688 L 19.871094 9.238281 L 19.867188 9.234375 L 19.875 9.242188 L 19.863281 9.234375 L 19.886719 9.246094 L 19.878906 9.242188 L 19.886719 9.25 L 19.898438 9.257812 L 19.890625 9.25 L 19.910156 9.269531 L 19.921875 9.285156 L 19.917969 9.28125 L 19.921875 9.285156 L 19.925781 9.296875 L 19.921875 9.289062 L 19.933594 9.3125 L 19.929688 9.296875 L 19.925781 9.292969 L 19.933594 9.308594 L 19.933594 9.316406 L 19.933594 9.3125 L 19.71875 9.386719 L 19.71875 9.390625 L 19.730469 9.40625 L 19.722656 9.398438 L 19.71875 9.382812 L 19.726562 9.402344 L 19.722656 9.394531 L 19.730469 9.402344 L 19.726562 9.398438 L 19.734375 9.410156 L 19.734375 9.40625 L 19.730469 9.40625 L 19.746094 9.421875 L 19.738281 9.414062 L 19.746094 9.421875 L 19.753906 9.425781 L 19.746094 9.421875 L 19.757812 9.429688 L 19.761719 9.433594 L 19.75 9.425781 L 19.757812 9.429688 L 19.753906 9.425781 Z M 19.757812 9.429688 L 19.753906 9.429688 L 19.742188 9.421875 Z M 19.757812 9.429688 "/>
<path style="fill-rule:nonzero;fill:rgb(92.941176%,41.176471%,36.078431%);fill-opacity:1;stroke-width:7.18;stroke-linecap:butt;stroke-linejoin:miter;stroke:rgb(92.941176%,41.176471%,36.078431%);stroke-opacity:1;stroke-miterlimit:22.9256;" d="M 393.327459 137.01656 L 379.455442 128.975682 C 379.268823 128.911355 379.082204 128.847028 378.957791 128.847028 C 378.646759 128.847028 378.335728 129.040009 378.149109 129.297317 L 376.59395 131.934725 C 376.469537 132.192033 376.469537 132.449341 376.531743 132.70665 C 376.59395 132.899631 376.718363 133.092612 376.967188 133.221266 L 390.839205 141.262144 C 391.025824 141.390798 391.274649 141.390798 391.523474 141.326471 C 391.7723 141.262144 391.958919 141.13349 392.083332 140.940509 L 393.63849 138.238774 C 393.887316 137.788484 393.762903 137.273868 393.265252 136.952233 Z M 393.327459 137.01656 " transform="matrix(0.062795,0,0,0.0607249,0.000207709,0)"/>
<path style=" stroke:none;fill-rule:nonzero;fill:rgb(92.941176%,41.176471%,36.078431%);fill-opacity:1;" d="M 24.699219 8.320312 L 23.828125 7.832031 C 23.816406 7.828125 23.804688 7.824219 23.796875 7.824219 C 23.777344 7.824219 23.757812 7.835938 23.746094 7.851562 L 23.648438 8.011719 C 23.640625 8.027344 23.640625 8.042969 23.644531 8.058594 C 23.648438 8.070312 23.65625 8.082031 23.671875 8.089844 L 24.542969 8.578125 C 24.554688 8.585938 24.570312 8.585938 24.585938 8.582031 C 24.601562 8.578125 24.613281 8.570312 24.621094 8.558594 L 24.71875 8.394531 C 24.734375 8.367188 24.726562 8.335938 24.695312 8.316406 Z M 24.699219 8.320312 "/>
<path style=" stroke:none;fill-rule:nonzero;fill:rgb(92.941176%,41.176471%,36.078431%);fill-opacity:1;" d="M 23.882812 7.738281 L 24.753906 8.222656 L 24.640625 8.414062 L 23.769531 7.929688 Z M 23.769531 7.929688 L 23.777344 7.933594 Z M 23.796875 7.9375 L 23.796875 7.714844 L 23.816406 7.714844 L 23.800781 7.714844 L 23.816406 7.714844 L 23.832031 7.71875 L 23.820312 7.714844 L 23.832031 7.71875 L 23.839844 7.71875 L 23.851562 7.722656 L 23.855469 7.722656 L 23.839844 7.71875 L 23.851562 7.722656 L 23.867188 7.726562 L 23.855469 7.722656 L 23.859375 7.722656 L 23.871094 7.726562 L 23.871094 7.730469 L 23.859375 7.726562 L 23.882812 7.734375 L 23.875 7.730469 L 23.882812 7.734375 L 23.765625 7.925781 L 23.773438 7.929688 L 23.769531 7.929688 L 23.761719 7.921875 L 23.78125 7.933594 L 23.777344 7.933594 L 23.765625 7.925781 L 23.777344 7.929688 L 23.765625 7.925781 L 23.789062 7.933594 L 23.773438 7.929688 L 23.769531 7.929688 L 23.78125 7.933594 L 23.785156 7.933594 L 23.78125 7.933594 L 23.789062 7.933594 L 23.773438 7.933594 L 23.800781 7.933594 L 23.785156 7.933594 L 23.796875 7.933594 Z M 23.84375 7.910156 L 23.644531 7.800781 L 23.648438 7.796875 L 23.65625 7.78125 L 23.683594 7.753906 L 23.695312 7.746094 L 23.695312 7.742188 L 23.71875 7.730469 L 23.722656 7.726562 L 23.726562 7.726562 L 23.742188 7.71875 L 23.753906 7.71875 L 23.757812 7.714844 L 23.777344 7.714844 L 23.785156 7.710938 L 23.796875 7.710938 L 23.796875 7.933594 L 23.800781 7.933594 L 23.796875 7.933594 L 23.8125 7.933594 L 23.808594 7.933594 L 23.8125 7.933594 L 23.816406 7.929688 L 23.820312 7.929688 L 23.828125 7.925781 L 23.832031 7.921875 L 23.828125 7.925781 L 23.832031 7.921875 L 23.832031 7.917969 L 23.835938 7.914062 L 23.832031 7.917969 L 23.835938 7.917969 L 23.839844 7.914062 L 23.839844 7.910156 L 23.839844 7.914062 L 23.839844 7.910156 L 23.84375 7.90625 Z M 23.847656 7.910156 L 23.84375 7.910156 L 23.84375 7.914062 L 23.84375 7.90625 Z M 23.550781 7.960938 L 23.644531 7.800781 L 23.84375 7.910156 L 23.75 8.070312 Z M 23.75 8.070312 Z M 23.753906 8.03125 L 23.535156 8.085938 L 23.53125 8.082031 L 23.53125 8.070312 L 23.53125 8.078125 L 23.527344 8.058594 L 23.527344 8.066406 L 23.527344 8.019531 L 23.53125 8.015625 L 23.53125 8 L 23.535156 7.996094 L 23.535156 7.988281 L 23.539062 7.988281 L 23.539062 7.976562 L 23.542969 7.976562 L 23.550781 7.960938 L 23.550781 7.957031 L 23.75 8.070312 L 23.75 8.066406 L 23.753906 8.058594 L 23.753906 8.0625 L 23.753906 8.054688 L 23.753906 8.058594 L 23.753906 8.054688 L 23.757812 8.046875 L 23.757812 8.050781 L 23.757812 8.042969 L 23.757812 8.046875 L 23.757812 8.039062 L 23.757812 8.042969 L 23.757812 8.03125 L 23.757812 8.042969 L 23.753906 8.027344 L 23.757812 8.039062 L 23.757812 8.03125 L 23.753906 8.027344 Z M 23.535156 8.085938 L 23.527344 8.0625 Z M 23.730469 7.996094 L 23.613281 8.1875 L 23.609375 8.1875 L 23.609375 8.183594 L 23.59375 8.175781 L 23.589844 8.175781 L 23.585938 8.171875 L 23.585938 8.167969 L 23.582031 8.167969 L 23.570312 8.15625 L 23.566406 8.148438 L 23.558594 8.144531 L 23.558594 8.140625 L 23.5625 8.148438 L 23.554688 8.140625 L 23.554688 8.132812 L 23.546875 8.125 L 23.539062 8.113281 L 23.539062 8.109375 L 23.539062 8.113281 L 23.535156 8.101562 L 23.535156 8.097656 L 23.53125 8.089844 L 23.753906 8.03125 L 23.75 8.027344 L 23.753906 8.027344 L 23.753906 8.03125 L 23.75 8.019531 L 23.753906 8.027344 L 23.75 8.019531 L 23.746094 8.015625 L 23.746094 8.011719 L 23.742188 8.007812 L 23.746094 8.015625 L 23.746094 8.011719 L 23.742188 8.007812 L 23.742188 8.011719 L 23.738281 8.007812 L 23.738281 8.003906 L 23.738281 8.007812 L 23.734375 8.003906 L 23.738281 8.003906 L 23.734375 8.003906 L 23.730469 8 L 23.734375 8 L 23.730469 8 Z M 23.613281 8.1875 L 23.609375 8.1875 Z M 24.484375 8.675781 L 23.613281 8.1875 L 23.730469 7.996094 L 24.601562 8.484375 Z M 24.601562 8.484375 L 24.597656 8.480469 Z M 24.558594 8.476562 L 24.617188 8.691406 L 24.613281 8.691406 L 24.601562 8.695312 L 24.574219 8.695312 L 24.582031 8.695312 L 24.5625 8.695312 L 24.566406 8.695312 L 24.539062 8.695312 L 24.527344 8.691406 L 24.519531 8.6875 L 24.515625 8.6875 L 24.492188 8.679688 L 24.488281 8.675781 L 24.492188 8.679688 L 24.480469 8.675781 L 24.597656 8.484375 L 24.59375 8.480469 L 24.597656 8.480469 L 24.597656 8.484375 L 24.597656 8.480469 L 24.589844 8.480469 L 24.59375 8.480469 L 24.585938 8.476562 L 24.574219 8.476562 L 24.582031 8.476562 L 24.566406 8.476562 L 24.578125 8.476562 L 24.5625 8.476562 L 24.574219 8.476562 L 24.558594 8.476562 L 24.566406 8.476562 Z M 24.617188 8.691406 L 24.609375 8.695312 Z M 24.523438 8.503906 L 24.722656 8.613281 L 24.71875 8.617188 L 24.714844 8.625 L 24.71875 8.621094 L 24.714844 8.628906 L 24.714844 8.625 L 24.714844 8.628906 L 24.695312 8.648438 L 24.699219 8.644531 L 24.695312 8.648438 L 24.683594 8.65625 L 24.683594 8.660156 L 24.679688 8.660156 L 24.667969 8.667969 L 24.664062 8.667969 L 24.664062 8.671875 L 24.640625 8.679688 L 24.648438 8.679688 L 24.636719 8.683594 L 24.628906 8.683594 L 24.628906 8.6875 L 24.621094 8.6875 L 24.617188 8.691406 L 24.558594 8.476562 L 24.550781 8.476562 L 24.542969 8.480469 L 24.550781 8.476562 L 24.554688 8.476562 L 24.546875 8.476562 L 24.539062 8.484375 L 24.539062 8.480469 L 24.542969 8.480469 L 24.535156 8.484375 L 24.539062 8.484375 L 24.527344 8.496094 L 24.535156 8.488281 L 24.53125 8.492188 L 24.53125 8.488281 L 24.523438 8.5 L 24.527344 8.496094 L 24.523438 8.5 L 24.527344 8.492188 L 24.527344 8.496094 L 24.523438 8.5 Z M 24.523438 8.503906 L 24.519531 8.507812 Z M 24.820312 8.453125 L 24.722656 8.613281 L 24.523438 8.503906 L 24.621094 8.339844 Z M 24.621094 8.339844 L 24.617188 8.34375 Z M 24.640625 8.414062 L 24.753906 8.222656 L 24.757812 8.222656 L 24.761719 8.226562 L 24.773438 8.234375 L 24.777344 8.238281 L 24.785156 8.242188 L 24.789062 8.246094 L 24.792969 8.253906 L 24.800781 8.257812 L 24.808594 8.269531 L 24.8125 8.273438 L 24.8125 8.277344 L 24.820312 8.285156 L 24.832031 8.308594 L 24.835938 8.320312 L 24.835938 8.324219 L 24.839844 8.328125 L 24.839844 8.335938 L 24.84375 8.347656 L 24.84375 8.378906 L 24.839844 8.390625 L 24.839844 8.402344 L 24.835938 8.414062 L 24.828125 8.429688 L 24.828125 8.4375 L 24.820312 8.445312 L 24.816406 8.453125 L 24.621094 8.339844 L 24.617188 8.34375 L 24.617188 8.347656 L 24.613281 8.351562 L 24.613281 8.359375 L 24.613281 8.355469 L 24.613281 8.382812 L 24.613281 8.378906 L 24.613281 8.382812 L 24.617188 8.386719 L 24.617188 8.390625 L 24.625 8.398438 L 24.621094 8.398438 L 24.628906 8.40625 L 24.632812 8.40625 L 24.632812 8.410156 L 24.636719 8.414062 Z M 24.753906 8.222656 L 24.757812 8.222656 L 24.75 8.21875 Z M 24.753906 8.222656 "/>
<path style="fill-rule:nonzero;fill:rgb(92.941176%,41.176471%,36.078431%);fill-opacity:1;stroke-width:7.18;stroke-linecap:butt;stroke-linejoin:miter;stroke:rgb(92.941176%,41.176471%,36.078431%);stroke-opacity:1;stroke-miterlimit:22.9256;" d="M 378.149109 86.712828 C 378.397934 87.163117 378.957791 87.356098 379.455442 87.034463 L 393.327459 79.057912 C 393.762903 78.800604 393.887316 78.221661 393.63849 77.771371 L 392.145538 75.133963 C 392.021125 74.876655 391.7723 74.748001 391.523474 74.683674 C 391.461268 74.619347 391.399062 74.619347 391.336855 74.619347 C 391.150236 74.619347 390.963617 74.683674 390.839205 74.748001 L 376.967188 82.788879 C 376.780569 82.917533 376.59395 83.110514 376.531743 83.367822 C 376.469537 83.560804 376.469537 83.818112 376.656156 84.07542 Z M 378.149109 86.712828 " transform="matrix(0.062795,0,0,0.0607249,0.000207709,0)"/>
<path style=" stroke:none;fill-rule:nonzero;fill:rgb(92.941176%,41.176471%,36.078431%);fill-opacity:1;" d="M 23.746094 5.265625 C 23.761719 5.292969 23.796875 5.304688 23.828125 5.285156 L 24.699219 4.800781 C 24.726562 4.785156 24.734375 4.75 24.71875 4.722656 L 24.625 4.5625 C 24.617188 4.546875 24.601562 4.539062 24.585938 4.535156 C 24.582031 4.53125 24.578125 4.53125 24.574219 4.53125 C 24.5625 4.53125 24.550781 4.535156 24.542969 4.539062 L 23.671875 5.027344 C 23.660156 5.035156 23.648438 5.046875 23.644531 5.0625 C 23.640625 5.074219 23.640625 5.089844 23.652344 5.105469 Z M 23.746094 5.265625 "/>
<path style=" stroke:none;fill-rule:nonzero;fill:rgb(92.941176%,41.176471%,36.078431%);fill-opacity:1;" d="M 23.769531 5.191406 L 23.882812 5.382812 L 23.886719 5.382812 L 23.878906 5.386719 L 23.867188 5.390625 L 23.859375 5.394531 L 23.855469 5.398438 L 23.84375 5.398438 L 23.835938 5.402344 L 23.828125 5.402344 L 23.816406 5.40625 L 23.773438 5.40625 L 23.769531 5.402344 L 23.761719 5.402344 L 23.75 5.398438 L 23.738281 5.398438 L 23.730469 5.394531 L 23.71875 5.390625 L 23.710938 5.386719 L 23.703125 5.378906 L 23.699219 5.378906 L 23.6875 5.367188 L 23.679688 5.363281 L 23.664062 5.347656 L 23.660156 5.339844 L 23.644531 5.324219 L 23.84375 5.210938 L 23.839844 5.207031 L 23.84375 5.207031 L 23.839844 5.207031 L 23.832031 5.199219 L 23.832031 5.195312 L 23.828125 5.195312 L 23.824219 5.191406 L 23.820312 5.191406 L 23.816406 5.1875 L 23.8125 5.1875 L 23.816406 5.1875 L 23.8125 5.1875 L 23.804688 5.183594 L 23.789062 5.183594 L 23.78125 5.1875 L 23.773438 5.1875 L 23.773438 5.191406 L 23.765625 5.191406 Z M 23.769531 5.191406 L 23.773438 5.1875 Z M 24.753906 4.898438 L 23.882812 5.382812 L 23.769531 5.191406 L 24.640625 4.703125 L 24.757812 4.894531 L 24.753906 4.894531 Z M 24.757812 4.894531 L 24.753906 4.898438 L 24.75 4.898438 Z M 24.621094 4.777344 L 24.820312 4.667969 L 24.816406 4.667969 L 24.820312 4.671875 L 24.828125 4.683594 L 24.828125 4.6875 L 24.832031 4.695312 L 24.839844 4.71875 L 24.839844 4.726562 L 24.84375 4.738281 L 24.84375 4.769531 L 24.839844 4.78125 L 24.839844 4.792969 L 24.828125 4.816406 L 24.828125 4.824219 L 24.820312 4.832031 L 24.816406 4.84375 L 24.8125 4.84375 L 24.808594 4.851562 L 24.800781 4.859375 L 24.796875 4.867188 L 24.789062 4.871094 L 24.773438 4.886719 L 24.761719 4.890625 L 24.757812 4.894531 L 24.640625 4.703125 L 24.636719 4.703125 L 24.632812 4.707031 L 24.632812 4.710938 L 24.628906 4.710938 L 24.621094 4.71875 L 24.625 4.71875 L 24.617188 4.726562 L 24.617188 4.730469 L 24.613281 4.734375 L 24.613281 4.738281 L 24.613281 4.734375 L 24.613281 4.761719 L 24.613281 4.757812 L 24.613281 4.765625 L 24.617188 4.773438 Z M 24.621094 4.78125 L 24.621094 4.777344 L 24.617188 4.773438 Z M 24.722656 4.507812 L 24.816406 4.667969 L 24.617188 4.777344 L 24.523438 4.617188 Z M 24.523438 4.617188 Z M 24.554688 4.640625 L 24.617188 4.429688 L 24.613281 4.429688 L 24.617188 4.429688 L 24.636719 4.433594 L 24.632812 4.433594 L 24.640625 4.433594 L 24.648438 4.4375 L 24.644531 4.4375 L 24.65625 4.441406 L 24.664062 4.449219 L 24.667969 4.449219 L 24.671875 4.453125 L 24.679688 4.457031 L 24.6875 4.464844 L 24.695312 4.46875 L 24.714844 4.488281 L 24.714844 4.496094 L 24.714844 4.492188 L 24.71875 4.496094 L 24.71875 4.5 L 24.722656 4.507812 L 24.523438 4.613281 L 24.527344 4.617188 L 24.523438 4.617188 L 24.527344 4.621094 L 24.523438 4.613281 L 24.523438 4.617188 L 24.535156 4.628906 L 24.53125 4.625 L 24.539062 4.632812 L 24.535156 4.628906 L 24.542969 4.632812 L 24.542969 4.636719 L 24.542969 4.632812 L 24.546875 4.636719 L 24.554688 4.640625 L 24.546875 4.636719 L 24.550781 4.640625 L 24.558594 4.640625 L 24.550781 4.640625 L 24.546875 4.636719 L 24.566406 4.644531 L 24.558594 4.644531 Z M 24.558594 4.644531 L 24.554688 4.640625 L 24.5625 4.644531 Z M 24.570312 4.644531 L 24.570312 4.421875 L 24.574219 4.421875 L 24.605469 4.425781 L 24.578125 4.421875 L 24.605469 4.425781 L 24.609375 4.425781 L 24.582031 4.421875 L 24.609375 4.425781 L 24.582031 4.421875 L 24.613281 4.425781 L 24.609375 4.425781 L 24.585938 4.421875 L 24.613281 4.425781 L 24.640625 4.433594 L 24.617188 4.425781 L 24.609375 4.421875 L 24.613281 4.421875 L 24.617188 4.425781 L 24.621094 4.425781 L 24.558594 4.640625 L 24.566406 4.640625 L 24.5625 4.640625 L 24.535156 4.632812 L 24.558594 4.640625 L 24.585938 4.644531 L 24.5625 4.640625 L 24.554688 4.640625 L 24.582031 4.644531 L 24.554688 4.640625 L 24.582031 4.644531 L 24.578125 4.644531 L 24.550781 4.640625 L 24.578125 4.644531 L 24.546875 4.640625 L 24.574219 4.644531 Z M 24.597656 4.636719 L 24.484375 4.445312 L 24.492188 4.441406 L 24.488281 4.445312 L 24.488281 4.441406 L 24.496094 4.441406 L 24.496094 4.4375 L 24.507812 4.433594 L 24.496094 4.4375 L 24.507812 4.433594 L 24.511719 4.433594 L 24.527344 4.429688 L 24.53125 4.425781 L 24.53125 4.429688 L 24.546875 4.425781 L 24.535156 4.425781 L 24.550781 4.425781 L 24.5625 4.421875 L 24.550781 4.425781 L 24.554688 4.425781 L 24.566406 4.421875 L 24.570312 4.421875 L 24.570312 4.644531 L 24.566406 4.644531 L 24.578125 4.644531 L 24.5625 4.644531 L 24.589844 4.644531 L 24.574219 4.644531 L 24.585938 4.644531 L 24.582031 4.644531 L 24.59375 4.640625 L 24.589844 4.640625 L 24.601562 4.636719 L 24.589844 4.640625 L 24.597656 4.636719 L 24.597656 4.640625 L 24.601562 4.636719 L 24.59375 4.640625 L 24.601562 4.636719 Z M 24.484375 4.445312 Z M 23.613281 4.929688 L 24.484375 4.445312 L 24.597656 4.636719 L 23.730469 5.125 Z M 23.730469 5.125 L 23.773438 5.097656 Z M 23.753906 5.089844 L 23.53125 5.035156 L 23.535156 5.027344 L 23.535156 5.019531 L 23.539062 5.011719 L 23.542969 5.007812 L 23.546875 5 L 23.550781 4.996094 L 23.5625 4.972656 L 23.558594 4.980469 L 23.558594 4.984375 L 23.574219 4.960938 L 23.570312 4.964844 L 23.570312 4.96875 L 23.578125 4.957031 L 23.585938 4.953125 L 23.589844 4.945312 L 23.597656 4.945312 L 23.609375 4.9375 L 23.609375 4.933594 L 23.617188 4.933594 L 23.730469 5.125 L 23.734375 5.121094 L 23.730469 5.125 L 23.738281 5.117188 L 23.734375 5.121094 L 23.738281 5.117188 L 23.742188 5.117188 L 23.746094 5.109375 L 23.738281 5.117188 L 23.746094 5.109375 L 23.75 5.101562 L 23.75 5.109375 L 23.742188 5.113281 L 23.75 5.105469 L 23.746094 5.109375 L 23.75 5.101562 L 23.753906 5.101562 L 23.75 5.101562 L 23.753906 5.097656 L 23.753906 5.101562 L 23.753906 5.089844 L 23.753906 5.097656 Z M 23.53125 5.035156 L 23.535156 5.03125 Z M 23.75 5.050781 L 23.550781 5.160156 L 23.550781 5.164062 L 23.550781 5.160156 L 23.550781 5.164062 L 23.546875 5.15625 L 23.539062 5.144531 L 23.539062 5.140625 L 23.535156 5.132812 L 23.535156 5.128906 L 23.527344 5.105469 L 23.527344 5.089844 L 23.523438 5.078125 L 23.523438 5.074219 L 23.527344 5.0625 L 23.527344 5.054688 L 23.527344 5.0625 L 23.527344 5.042969 L 23.53125 5.039062 L 23.527344 5.046875 L 23.53125 5.035156 L 23.53125 5.03125 L 23.753906 5.089844 L 23.753906 5.078125 L 23.753906 5.089844 L 23.753906 5.074219 L 23.753906 5.085938 L 23.753906 5.074219 L 23.753906 5.078125 L 23.753906 5.070312 L 23.753906 5.074219 L 23.753906 5.066406 L 23.753906 5.070312 L 23.753906 5.0625 L 23.75 5.054688 L 23.75 5.058594 L 23.753906 5.0625 L 23.75 5.054688 L 23.75 5.058594 L 23.746094 5.050781 L 23.746094 5.042969 L 23.746094 5.046875 Z M 23.746094 5.046875 L 23.75 5.050781 Z M 23.644531 5.320312 L 23.550781 5.160156 L 23.75 5.050781 L 23.84375 5.210938 Z M 23.644531 5.320312 "/>
<path style="fill-rule:nonzero;fill:rgb(92.941176%,41.176471%,36.078431%);fill-opacity:1;stroke-width:7.18;stroke-linecap:butt;stroke-linejoin:miter;stroke:rgb(92.941176%,41.176471%,36.078431%);stroke-opacity:1;stroke-miterlimit:22.9256;" d="M 366.081076 152.326392 C 366.01887 152.197738 365.832251 152.133411 365.645632 152.133411 C 365.583425 152.133411 365.521219 152.133411 365.459013 152.197738 L 362.78414 153.677259 C 362.597521 153.805913 362.473108 154.127548 362.597521 154.320529 L 367.014172 161.911118 C 367.076378 162.039772 367.138584 162.104099 367.262997 162.104099 C 367.38741 162.168426 367.511822 162.104099 367.636235 162.039772 L 370.248902 160.560251 C 370.373315 160.495924 370.435521 160.431597 370.497727 160.238616 C 370.497727 160.174289 370.497727 160.045635 370.435521 159.91698 Z M 366.081076 152.326392 " transform="matrix(0.062795,0,0,0.0607249,0.000207709,0)"/>
<path style=" stroke:none;fill-rule:nonzero;fill:rgb(92.941176%,41.176471%,36.078431%);fill-opacity:1;" d="M 22.988281 9.25 C 22.984375 9.242188 22.972656 9.238281 22.960938 9.238281 C 22.957031 9.238281 22.953125 9.238281 22.949219 9.242188 L 22.78125 9.332031 C 22.769531 9.339844 22.761719 9.359375 22.769531 9.371094 L 23.046875 9.832031 C 23.050781 9.839844 23.054688 9.84375 23.0625 9.84375 C 23.070312 9.847656 23.078125 9.84375 23.085938 9.839844 L 23.25 9.75 C 23.257812 9.746094 23.261719 9.742188 23.265625 9.730469 C 23.265625 9.726562 23.265625 9.71875 23.261719 9.710938 Z M 22.988281 9.25 "/>
<path style=" stroke:none;fill-rule:nonzero;fill:rgb(92.941176%,41.176471%,36.078431%);fill-opacity:1;" d="M 22.960938 9.347656 L 22.960938 9.125 L 22.980469 9.125 L 22.992188 9.128906 L 22.996094 9.128906 L 23.011719 9.132812 L 23.011719 9.136719 L 23.015625 9.136719 L 23.027344 9.140625 L 23.042969 9.148438 L 23.042969 9.152344 L 23.035156 9.144531 L 23.046875 9.152344 L 23.054688 9.160156 L 23.054688 9.15625 L 23.054688 9.160156 L 23.074219 9.179688 L 23.070312 9.175781 L 23.078125 9.183594 L 23.082031 9.191406 L 23.085938 9.195312 L 22.886719 9.304688 L 22.890625 9.308594 L 22.890625 9.3125 L 22.898438 9.320312 L 22.890625 9.308594 L 22.902344 9.324219 L 22.90625 9.328125 L 22.921875 9.335938 L 22.910156 9.332031 L 22.933594 9.34375 L 22.933594 9.339844 L 22.945312 9.34375 L 22.941406 9.34375 L 22.945312 9.34375 L 22.957031 9.347656 L 22.953125 9.347656 L 22.964844 9.347656 Z M 23.003906 9.335938 L 22.890625 9.144531 L 22.886719 9.144531 L 22.898438 9.140625 L 22.902344 9.140625 L 22.925781 9.132812 L 22.902344 9.140625 L 22.925781 9.132812 L 22.929688 9.132812 L 22.957031 9.128906 L 22.929688 9.132812 L 22.933594 9.132812 L 22.960938 9.128906 L 22.933594 9.132812 L 22.964844 9.128906 L 22.964844 9.351562 L 22.988281 9.347656 L 22.960938 9.351562 L 22.988281 9.347656 L 22.957031 9.351562 L 22.984375 9.347656 L 22.980469 9.347656 L 23.003906 9.339844 L 22.980469 9.347656 L 23.003906 9.339844 L 23 9.339844 L 23.007812 9.335938 Z M 23.007812 9.335938 L 23.003906 9.335938 Z M 22.722656 9.234375 L 22.890625 9.144531 L 23.003906 9.335938 L 22.839844 9.429688 L 22.71875 9.238281 L 22.722656 9.238281 Z M 22.722656 9.238281 L 22.722656 9.234375 Z M 22.871094 9.316406 L 22.671875 9.425781 L 22.667969 9.421875 L 22.667969 9.417969 L 22.664062 9.410156 L 22.660156 9.398438 L 22.65625 9.390625 L 22.65625 9.382812 L 22.652344 9.378906 L 22.652344 9.335938 L 22.65625 9.324219 L 22.65625 9.320312 L 22.664062 9.304688 L 22.664062 9.296875 L 22.667969 9.296875 L 22.679688 9.273438 L 22.695312 9.257812 L 22.703125 9.253906 L 22.707031 9.246094 L 22.722656 9.238281 L 22.84375 9.425781 L 22.847656 9.421875 L 22.851562 9.421875 L 22.863281 9.410156 L 22.863281 9.40625 L 22.871094 9.398438 L 22.871094 9.402344 L 22.875 9.394531 L 22.875 9.390625 L 22.882812 9.375 L 22.878906 9.378906 L 22.882812 9.367188 L 22.882812 9.34375 L 22.878906 9.339844 L 22.878906 9.332031 L 22.878906 9.335938 L 22.878906 9.328125 L 22.875 9.320312 Z M 22.671875 9.425781 L 22.667969 9.425781 L 22.667969 9.421875 Z M 22.945312 9.886719 L 22.671875 9.425781 L 22.871094 9.316406 L 23.144531 9.773438 L 23.144531 9.777344 Z M 23.144531 9.773438 L 23.144531 9.777344 Z M 23.09375 9.738281 L 23.03125 9.953125 L 23.03125 9.949219 L 23.023438 9.949219 L 23.007812 9.945312 L 23.007812 9.941406 L 23.003906 9.941406 L 22.996094 9.9375 L 22.992188 9.933594 L 22.996094 9.9375 L 22.992188 9.9375 L 22.980469 9.929688 L 22.980469 9.925781 L 22.976562 9.925781 L 22.960938 9.90625 L 22.96875 9.914062 L 22.957031 9.90625 L 22.957031 9.902344 L 22.949219 9.894531 L 22.957031 9.902344 L 22.945312 9.890625 L 22.941406 9.882812 L 22.945312 9.882812 L 23.144531 9.777344 L 23.148438 9.78125 L 23.144531 9.777344 L 23.136719 9.765625 L 23.140625 9.773438 L 23.136719 9.765625 L 23.136719 9.769531 L 23.128906 9.757812 L 23.140625 9.769531 L 23.121094 9.753906 L 23.125 9.753906 L 23.113281 9.746094 L 23.117188 9.75 L 23.109375 9.742188 L 23.109375 9.746094 L 23.097656 9.738281 Z M 23.03125 9.953125 L 23.03125 9.949219 Z M 23.027344 9.746094 L 23.144531 9.9375 L 23.136719 9.941406 L 23.132812 9.941406 L 23.117188 9.949219 L 23.109375 9.949219 L 23.113281 9.949219 L 23.09375 9.953125 L 23.105469 9.949219 L 23.09375 9.953125 L 23.074219 9.957031 L 23.089844 9.953125 L 23.070312 9.957031 L 23.050781 9.953125 L 23.046875 9.953125 L 23.050781 9.953125 L 23.046875 9.953125 L 23.027344 9.949219 L 23.035156 9.953125 L 23.09375 9.738281 L 23.101562 9.738281 L 23.085938 9.734375 L 23.082031 9.734375 L 23.085938 9.734375 L 23.054688 9.734375 L 23.074219 9.734375 L 23.054688 9.734375 L 23.042969 9.738281 L 23.058594 9.734375 L 23.039062 9.738281 L 23.046875 9.738281 L 23.042969 9.738281 L 23.046875 9.738281 L 23.03125 9.742188 L 23.035156 9.742188 Z M 23.027344 9.746094 L 23.023438 9.746094 L 23.027344 9.746094 L 23.023438 9.746094 Z M 23.308594 9.84375 L 23.144531 9.9375 L 23.027344 9.746094 L 23.191406 9.652344 L 23.195312 9.652344 Z M 23.191406 9.652344 L 23.195312 9.652344 Z M 23.152344 9.710938 L 23.378906 9.75 L 23.375 9.761719 L 23.375 9.765625 L 23.375 9.761719 L 23.375 9.765625 L 23.367188 9.785156 L 23.371094 9.769531 L 23.367188 9.785156 L 23.359375 9.796875 L 23.359375 9.792969 L 23.359375 9.800781 L 23.351562 9.808594 L 23.359375 9.796875 L 23.363281 9.789062 L 23.339844 9.820312 L 23.347656 9.8125 L 23.339844 9.820312 L 23.347656 9.8125 L 23.339844 9.824219 L 23.328125 9.832031 L 23.339844 9.824219 L 23.328125 9.832031 L 23.324219 9.832031 L 23.3125 9.84375 L 23.304688 9.847656 L 23.324219 9.835938 L 23.3125 9.84375 L 23.300781 9.847656 L 23.304688 9.847656 L 23.195312 9.652344 L 23.199219 9.652344 L 23.191406 9.652344 L 23.179688 9.660156 L 23.203125 9.648438 L 23.195312 9.652344 L 23.183594 9.660156 L 23.175781 9.667969 L 23.1875 9.65625 L 23.175781 9.664062 L 23.167969 9.675781 L 23.179688 9.664062 L 23.167969 9.671875 L 23.179688 9.664062 L 23.160156 9.691406 L 23.171875 9.667969 L 23.167969 9.675781 L 23.164062 9.679688 L 23.167969 9.675781 L 23.152344 9.699219 L 23.160156 9.6875 L 23.160156 9.683594 L 23.152344 9.703125 L 23.15625 9.695312 L 23.152344 9.699219 Z M 23.378906 9.75 L 23.375 9.757812 L 23.375 9.761719 Z M 23.164062 9.765625 L 23.359375 9.652344 L 23.363281 9.660156 L 23.367188 9.660156 L 23.371094 9.675781 L 23.367188 9.664062 L 23.371094 9.679688 L 23.375 9.699219 L 23.375 9.683594 L 23.378906 9.703125 L 23.378906 9.71875 L 23.378906 9.703125 L 23.378906 9.722656 L 23.378906 9.703125 L 23.378906 9.746094 L 23.378906 9.726562 L 23.378906 9.742188 L 23.378906 9.730469 L 23.378906 9.75 L 23.152344 9.710938 L 23.148438 9.730469 L 23.152344 9.710938 L 23.148438 9.726562 L 23.152344 9.707031 L 23.148438 9.726562 L 23.148438 9.722656 L 23.152344 9.742188 L 23.152344 9.738281 L 23.148438 9.722656 L 23.152344 9.738281 L 23.148438 9.71875 L 23.152344 9.734375 L 23.15625 9.753906 L 23.152344 9.734375 L 23.15625 9.75 L 23.160156 9.761719 L 23.15625 9.746094 L 23.160156 9.761719 Z M 23.164062 9.765625 L 23.160156 9.761719 Z M 23.085938 9.195312 L 23.359375 9.652344 L 23.164062 9.765625 L 22.886719 9.304688 Z M 22.886719 9.304688 L 22.890625 9.308594 Z M 22.886719 9.304688 "/>
<path style="fill-rule:nonzero;fill:rgb(92.941176%,41.176471%,36.078431%);fill-opacity:1;stroke-width:7.18;stroke-linecap:butt;stroke-linejoin:miter;stroke:rgb(92.941176%,41.176471%,36.078431%);stroke-opacity:1;stroke-miterlimit:22.9256;" d="M 389.532871 106.525551 L 389.532871 109.548921 C 389.532871 110.063537 389.968316 110.513826 390.528173 110.513826 L 399.237062 110.513826 C 399.734713 110.513826 400.170157 110.063537 400.170157 109.548921 L 400.170157 106.525551 C 400.170157 106.010935 399.734713 105.560646 399.237062 105.560646 L 390.528173 105.560646 C 389.968316 105.560646 389.532871 106.010935 389.532871 106.525551 Z M 389.532871 106.525551 " transform="matrix(0.062795,0,0,0.0607249,0.000207709,0)"/>
<path style=" stroke:none;fill-rule:nonzero;fill:rgb(92.941176%,41.176471%,36.078431%);fill-opacity:1;" d="M 21.394531 9.621094 L 21.203125 9.621094 C 21.167969 9.621094 21.144531 9.644531 21.144531 9.679688 L 21.144531 10.207031 C 21.144531 10.238281 21.167969 10.265625 21.203125 10.265625 L 21.394531 10.265625 C 21.425781 10.265625 21.453125 10.238281 21.453125 10.207031 L 21.453125 9.679688 C 21.453125 9.648438 21.425781 9.621094 21.394531 9.621094 Z M 21.394531 9.621094 "/>
<path style=" stroke:none;fill-rule:nonzero;fill:rgb(92.941176%,41.176471%,36.078431%);fill-opacity:1;" d="M 21.394531 9.621094 L 21.203125 9.621094 C 21.167969 9.621094 21.144531 9.644531 21.144531 9.679688 L 21.144531 10.207031 C 21.144531 10.238281 21.167969 10.265625 21.203125 10.265625 L 21.394531 10.265625 C 21.425781 10.265625 21.453125 10.238281 21.453125 10.207031 L 21.453125 9.679688 C 21.453125 9.648438 21.425781 9.621094 21.394531 9.621094 Z M 21.394531 9.621094 "/>
<path style=" stroke:none;fill-rule:nonzero;fill:rgb(92.941176%,41.176471%,36.078431%);fill-opacity:1;" d="M 21.199219 9.511719 L 21.390625 9.511719 L 21.390625 9.730469 L 21.199219 9.730469 Z M 21.257812 9.675781 L 21.027344 9.675781 L 21.027344 9.652344 L 21.03125 9.644531 L 21.03125 9.632812 L 21.039062 9.617188 L 21.042969 9.605469 L 21.046875 9.597656 L 21.050781 9.59375 L 21.058594 9.578125 L 21.082031 9.554688 L 21.089844 9.550781 L 21.09375 9.542969 L 21.132812 9.523438 L 21.144531 9.519531 L 21.152344 9.515625 L 21.164062 9.515625 L 21.171875 9.511719 L 21.199219 9.511719 L 21.199219 9.734375 L 21.210938 9.734375 L 21.214844 9.730469 L 21.222656 9.730469 L 21.226562 9.726562 L 21.230469 9.726562 L 21.25 9.707031 L 21.25 9.703125 L 21.253906 9.695312 L 21.253906 9.699219 L 21.253906 9.679688 Z M 21.027344 10.207031 L 21.027344 9.675781 L 21.257812 9.675781 L 21.257812 10.207031 Z M 21.199219 10.15625 L 21.199219 10.375 L 21.164062 10.375 L 21.15625 10.371094 L 21.148438 10.371094 L 21.125 10.359375 L 21.113281 10.355469 L 21.105469 10.351562 L 21.101562 10.347656 L 21.09375 10.34375 L 21.089844 10.335938 L 21.082031 10.332031 L 21.070312 10.320312 L 21.066406 10.3125 L 21.054688 10.300781 L 21.046875 10.285156 L 21.042969 10.28125 L 21.039062 10.269531 L 21.035156 10.261719 L 21.035156 10.253906 L 21.03125 10.242188 L 21.027344 10.234375 L 21.027344 10.207031 L 21.257812 10.207031 L 21.257812 10.199219 L 21.253906 10.191406 L 21.253906 10.195312 L 21.253906 10.191406 L 21.25 10.1875 L 21.25 10.183594 L 21.246094 10.179688 L 21.246094 10.175781 L 21.242188 10.175781 L 21.230469 10.164062 L 21.234375 10.167969 L 21.230469 10.164062 L 21.222656 10.164062 L 21.222656 10.160156 L 21.210938 10.160156 L 21.207031 10.15625 Z M 21.390625 10.375 L 21.199219 10.375 L 21.199219 10.15625 L 21.390625 10.15625 Z M 21.335938 10.207031 L 21.566406 10.207031 L 21.566406 10.234375 L 21.5625 10.238281 L 21.5625 10.25 L 21.550781 10.273438 L 21.550781 10.28125 L 21.546875 10.285156 L 21.542969 10.292969 L 21.535156 10.304688 L 21.53125 10.3125 L 21.527344 10.3125 L 21.523438 10.320312 L 21.515625 10.328125 L 21.507812 10.332031 L 21.496094 10.34375 L 21.488281 10.347656 L 21.484375 10.351562 L 21.453125 10.367188 L 21.445312 10.367188 L 21.4375 10.371094 L 21.425781 10.375 L 21.394531 10.375 L 21.394531 10.15625 L 21.371094 10.15625 L 21.371094 10.160156 L 21.363281 10.160156 L 21.363281 10.164062 L 21.359375 10.164062 L 21.355469 10.167969 L 21.355469 10.171875 L 21.351562 10.171875 L 21.347656 10.175781 L 21.351562 10.171875 L 21.34375 10.179688 L 21.34375 10.183594 L 21.339844 10.191406 L 21.339844 10.199219 Z M 21.566406 9.675781 L 21.566406 10.207031 L 21.335938 10.207031 L 21.335938 9.675781 Z M 21.390625 9.730469 L 21.390625 9.507812 L 21.398438 9.507812 L 21.410156 9.511719 L 21.425781 9.511719 L 21.4375 9.515625 L 21.445312 9.519531 L 21.457031 9.523438 L 21.496094 9.542969 L 21.5 9.546875 L 21.507812 9.550781 L 21.53125 9.574219 L 21.535156 9.582031 L 21.542969 9.589844 L 21.550781 9.605469 L 21.550781 9.613281 L 21.554688 9.617188 L 21.558594 9.625 L 21.558594 9.632812 L 21.5625 9.644531 L 21.566406 9.652344 L 21.566406 9.675781 L 21.335938 9.675781 L 21.335938 9.6875 L 21.339844 9.691406 L 21.339844 9.699219 L 21.347656 9.707031 L 21.347656 9.710938 L 21.351562 9.714844 L 21.355469 9.714844 L 21.355469 9.71875 L 21.359375 9.722656 L 21.367188 9.722656 L 21.367188 9.726562 L 21.371094 9.726562 L 21.375 9.730469 L 21.371094 9.726562 L 21.375 9.726562 L 21.378906 9.730469 Z M 21.390625 9.730469 "/>
<path style="fill-rule:nonzero;fill:rgb(92.941176%,41.176471%,36.078431%);fill-opacity:1;stroke-width:7.18;stroke-linecap:butt;stroke-linejoin:miter;stroke:rgb(92.941176%,41.176471%,36.078431%);stroke-opacity:1;stroke-miterlimit:22.9256;" d="M 337.590567 57.637013 L 340.638678 57.637013 C 341.198535 57.637013 341.63398 57.186724 341.63398 56.672108 L 341.63398 47.923633 C 341.63398 47.409016 341.198535 47.023054 340.638678 47.023054 L 337.590567 47.023054 C 337.092916 47.023054 336.719678 47.409016 336.719678 47.923633 L 336.719678 56.672108 C 336.719678 57.186724 337.092916 57.637013 337.590567 57.637013 Z M 337.590567 57.637013 " transform="matrix(0.062795,0,0,0.0607249,0.000207709,0)"/>
<path style=" stroke:none;fill-rule:nonzero;fill:rgb(92.941176%,41.176471%,36.078431%);fill-opacity:1;" d="M 21.199219 3.5 L 21.390625 3.5 C 21.425781 3.5 21.453125 3.472656 21.453125 3.441406 L 21.453125 2.910156 C 21.453125 2.878906 21.425781 2.855469 21.390625 2.855469 L 21.199219 2.855469 C 21.167969 2.855469 21.144531 2.878906 21.144531 2.910156 L 21.144531 3.441406 C 21.144531 3.472656 21.167969 3.5 21.199219 3.5 Z M 21.199219 3.5 "/>
<path style=" stroke:none;fill-rule:nonzero;fill:rgb(92.941176%,41.176471%,36.078431%);fill-opacity:1;" d="M 21.394531 3.609375 L 21.203125 3.609375 L 21.203125 3.386719 L 21.394531 3.386719 Z M 21.339844 3.441406 L 21.566406 3.441406 L 21.566406 3.472656 L 21.5625 3.484375 L 21.558594 3.492188 L 21.558594 3.5 L 21.554688 3.503906 L 21.542969 3.527344 L 21.535156 3.539062 L 21.5 3.574219 L 21.492188 3.578125 L 21.480469 3.585938 L 21.472656 3.589844 L 21.46875 3.59375 L 21.460938 3.597656 L 21.453125 3.597656 L 21.445312 3.601562 L 21.4375 3.601562 L 21.425781 3.605469 L 21.417969 3.609375 L 21.394531 3.609375 L 21.394531 3.386719 L 21.382812 3.386719 L 21.375 3.390625 L 21.367188 3.390625 L 21.367188 3.394531 L 21.359375 3.398438 L 21.351562 3.40625 L 21.347656 3.414062 L 21.34375 3.417969 L 21.34375 3.421875 L 21.339844 3.425781 Z M 21.566406 2.910156 L 21.566406 3.441406 L 21.339844 3.441406 L 21.339844 2.910156 Z M 21.394531 2.964844 L 21.394531 2.742188 L 21.410156 2.742188 L 21.417969 2.746094 L 21.425781 2.746094 L 21.4375 2.75 L 21.449219 2.75 L 21.457031 2.753906 L 21.46875 2.757812 L 21.472656 2.761719 L 21.488281 2.769531 L 21.496094 2.777344 L 21.503906 2.78125 L 21.519531 2.796875 L 21.527344 2.800781 L 21.53125 2.808594 L 21.542969 2.820312 L 21.554688 2.84375 L 21.554688 2.851562 L 21.5625 2.867188 L 21.5625 2.875 L 21.566406 2.882812 L 21.566406 2.910156 L 21.335938 2.910156 L 21.335938 2.917969 L 21.339844 2.921875 L 21.339844 2.933594 L 21.347656 2.941406 L 21.347656 2.945312 L 21.351562 2.949219 L 21.355469 2.949219 L 21.355469 2.953125 L 21.359375 2.953125 L 21.359375 2.957031 L 21.363281 2.957031 L 21.367188 2.960938 L 21.375 2.960938 L 21.375 2.964844 L 21.371094 2.960938 L 21.375 2.960938 L 21.378906 2.964844 Z M 21.203125 2.742188 L 21.394531 2.742188 L 21.394531 2.964844 L 21.203125 2.964844 Z M 21.257812 2.910156 L 21.027344 2.910156 L 21.027344 2.890625 L 21.03125 2.882812 L 21.03125 2.875 L 21.035156 2.867188 L 21.035156 2.855469 L 21.039062 2.847656 L 21.042969 2.835938 L 21.046875 2.828125 L 21.050781 2.824219 L 21.054688 2.816406 L 21.0625 2.808594 L 21.066406 2.800781 L 21.074219 2.796875 L 21.089844 2.78125 L 21.097656 2.777344 L 21.109375 2.765625 L 21.125 2.757812 L 21.136719 2.753906 L 21.144531 2.753906 L 21.148438 2.75 L 21.152344 2.75 L 21.164062 2.746094 L 21.199219 2.746094 L 21.199219 2.964844 L 21.21875 2.964844 L 21.214844 2.964844 L 21.21875 2.964844 L 21.222656 2.960938 L 21.226562 2.960938 L 21.230469 2.957031 L 21.234375 2.957031 L 21.238281 2.953125 L 21.238281 2.949219 L 21.242188 2.949219 L 21.246094 2.945312 L 21.246094 2.941406 L 21.25 2.9375 L 21.25 2.933594 L 21.253906 2.929688 L 21.253906 2.925781 L 21.253906 2.929688 L 21.253906 2.917969 L 21.257812 2.914062 Z M 21.027344 3.441406 L 21.027344 2.910156 L 21.257812 2.910156 L 21.257812 3.441406 Z M 21.203125 3.386719 L 21.203125 3.609375 L 21.175781 3.609375 L 21.167969 3.605469 L 21.15625 3.605469 L 21.140625 3.597656 L 21.132812 3.597656 L 21.109375 3.585938 L 21.101562 3.578125 L 21.09375 3.574219 L 21.089844 3.570312 L 21.082031 3.566406 L 21.078125 3.558594 L 21.070312 3.550781 L 21.0625 3.539062 L 21.050781 3.527344 L 21.039062 3.503906 L 21.039062 3.496094 L 21.035156 3.492188 L 21.035156 3.484375 L 21.03125 3.472656 L 21.03125 3.464844 L 21.027344 3.460938 L 21.027344 3.441406 L 21.257812 3.441406 L 21.257812 3.433594 L 21.253906 3.425781 L 21.253906 3.421875 L 21.253906 3.425781 L 21.253906 3.417969 L 21.25 3.417969 L 21.25 3.414062 L 21.242188 3.40625 L 21.242188 3.402344 L 21.238281 3.402344 L 21.234375 3.398438 L 21.230469 3.398438 L 21.230469 3.394531 L 21.222656 3.394531 L 21.21875 3.390625 L 21.203125 3.390625 Z M 21.203125 3.386719 "/>
<path style="fill-rule:nonzero;fill:rgb(92.941176%,41.176471%,36.078431%);fill-opacity:1;stroke-width:7.18;stroke-linecap:butt;stroke-linejoin:miter;stroke:rgb(92.941176%,41.176471%,36.078431%);stroke-opacity:1;stroke-miterlimit:22.9256;" d="M 362.78414 62.397213 L 365.459013 63.876734 C 365.645632 64.005388 365.956664 63.941061 366.081076 63.74808 L 370.435521 56.157492 C 370.559934 55.900183 370.497727 55.642875 370.248902 55.514221 L 367.636235 53.970373 C 367.574029 53.970373 367.449616 53.906046 367.38741 53.906046 C 367.38741 53.906046 367.325203 53.906046 367.262997 53.906046 C 367.138584 53.970373 367.076378 54.0347 367.014172 54.163354 L 362.597521 61.689616 C 362.535314 61.81827 362.535314 61.946924 362.597521 62.075578 C 362.597521 62.204232 362.721933 62.332886 362.78414 62.397213 Z M 362.78414 62.397213 " transform="matrix(0.062795,0,0,0.0607249,0.000207709,0)"/>
<path style=" stroke:none;fill-rule:nonzero;fill:rgb(92.941176%,41.176471%,36.078431%);fill-opacity:1;" d="M 22.78125 3.789062 L 22.949219 3.878906 C 22.960938 3.886719 22.980469 3.882812 22.988281 3.871094 L 23.261719 3.410156 C 23.269531 3.394531 23.265625 3.378906 23.25 3.371094 L 23.085938 3.277344 C 23.082031 3.277344 23.074219 3.273438 23.070312 3.273438 C 23.070312 3.273438 23.066406 3.273438 23.0625 3.273438 C 23.054688 3.277344 23.050781 3.28125 23.046875 3.289062 L 22.769531 3.746094 C 22.765625 3.753906 22.765625 3.761719 22.769531 3.769531 C 22.769531 3.777344 22.777344 3.785156 22.78125 3.789062 Z M 22.78125 3.789062 "/>
<path style=" stroke:none;fill-rule:nonzero;fill:rgb(92.941176%,41.176471%,36.078431%);fill-opacity:1;" d="M 22.890625 3.976562 L 22.722656 3.882812 L 22.839844 3.691406 L 23.003906 3.785156 Z M 22.886719 3.8125 L 23.085938 3.925781 L 23.082031 3.929688 L 23.074219 3.941406 L 23.070312 3.949219 L 23.054688 3.964844 L 23.050781 3.964844 L 23.039062 3.972656 L 23.023438 3.980469 L 23.019531 3.984375 L 23.015625 3.984375 L 23.007812 3.988281 L 22.996094 3.992188 L 22.992188 3.992188 L 22.972656 3.996094 L 22.949219 3.996094 L 22.9375 3.992188 L 22.929688 3.992188 L 22.917969 3.988281 L 22.910156 3.984375 L 22.898438 3.980469 L 22.890625 3.976562 L 23.003906 3.785156 L 23 3.78125 L 22.992188 3.777344 L 22.984375 3.777344 L 22.988281 3.777344 L 22.980469 3.777344 L 22.972656 3.773438 L 22.964844 3.773438 L 22.96875 3.773438 L 22.953125 3.773438 L 22.957031 3.773438 L 22.941406 3.777344 L 22.933594 3.777344 L 22.929688 3.78125 L 22.921875 3.785156 L 22.917969 3.785156 L 22.90625 3.792969 L 22.910156 3.792969 L 22.90625 3.792969 L 22.898438 3.800781 L 22.898438 3.804688 L 22.890625 3.8125 L 22.890625 3.816406 Z M 22.886719 3.8125 L 22.875 3.835938 Z M 23.359375 3.464844 L 23.085938 3.925781 L 22.886719 3.8125 L 23.164062 3.355469 L 23.164062 3.351562 Z M 23.164062 3.355469 L 23.164062 3.351562 L 23.167969 3.347656 Z M 23.195312 3.46875 L 23.308594 3.273438 L 23.304688 3.273438 L 23.3125 3.277344 L 23.324219 3.285156 L 23.328125 3.285156 L 23.328125 3.289062 L 23.347656 3.308594 L 23.351562 3.308594 L 23.351562 3.3125 L 23.359375 3.320312 L 23.363281 3.328125 L 23.367188 3.339844 L 23.371094 3.34375 L 23.375 3.359375 L 23.375 3.363281 L 23.378906 3.375 L 23.378906 3.386719 L 23.382812 3.398438 L 23.378906 3.410156 L 23.378906 3.429688 L 23.375 3.429688 L 23.371094 3.449219 L 23.367188 3.457031 L 23.363281 3.46875 L 23.359375 3.46875 L 23.164062 3.355469 L 23.160156 3.363281 L 23.15625 3.367188 L 23.160156 3.363281 L 23.152344 3.378906 L 23.152344 3.398438 L 23.152344 3.394531 L 23.152344 3.410156 L 23.152344 3.40625 L 23.15625 3.417969 L 23.152344 3.414062 L 23.160156 3.429688 L 23.160156 3.425781 L 23.160156 3.429688 L 23.164062 3.433594 L 23.164062 3.441406 L 23.171875 3.449219 L 23.171875 3.445312 L 23.1875 3.460938 L 23.183594 3.460938 L 23.199219 3.46875 Z M 23.195312 3.46875 L 23.191406 3.464844 Z M 23.144531 3.183594 L 23.308594 3.273438 L 23.195312 3.46875 L 23.027344 3.375 L 23.019531 3.367188 Z M 23.027344 3.375 L 23.019531 3.367188 Z M 23.070312 3.386719 L 23.070312 3.164062 L 23.074219 3.164062 L 23.101562 3.167969 L 23.074219 3.164062 L 23.105469 3.167969 L 23.109375 3.167969 L 23.132812 3.175781 L 23.109375 3.167969 L 23.125 3.171875 L 23.109375 3.167969 L 23.132812 3.175781 L 23.136719 3.175781 L 23.152344 3.1875 L 23.15625 3.1875 L 23.136719 3.175781 L 23.15625 3.1875 L 23.023438 3.367188 L 23.019531 3.363281 L 23.035156 3.375 L 23.015625 3.363281 L 23.03125 3.375 L 23.054688 3.382812 L 23.039062 3.375 L 23.054688 3.382812 L 23.050781 3.382812 L 23.027344 3.375 L 23.050781 3.382812 L 23.046875 3.382812 L 23.074219 3.386719 L 23.046875 3.382812 L 23.074219 3.386719 Z M 23.089844 3.382812 L 23.035156 3.167969 L 23.03125 3.167969 L 23.011719 3.175781 L 23.0625 3.164062 L 23.011719 3.175781 L 23.066406 3.164062 L 23.015625 3.175781 L 23.066406 3.164062 L 23.015625 3.175781 L 23.066406 3.164062 L 23.015625 3.175781 L 23.066406 3.164062 L 23.015625 3.175781 L 23.066406 3.164062 L 23.070312 3.164062 L 23.070312 3.386719 L 23.066406 3.386719 L 23.117188 3.375 L 23.066406 3.386719 L 23.117188 3.375 L 23.066406 3.386719 L 23.117188 3.375 L 23.066406 3.386719 L 23.117188 3.375 L 23.066406 3.386719 L 23.117188 3.375 L 23.0625 3.386719 L 23.113281 3.375 L 23.097656 3.382812 Z M 23.097656 3.382812 L 23.089844 3.382812 Z M 23.144531 3.34375 L 22.945312 3.234375 L 22.941406 3.238281 L 22.957031 3.21875 L 22.949219 3.222656 L 22.96875 3.203125 L 22.980469 3.195312 L 22.980469 3.191406 L 22.988281 3.1875 L 22.992188 3.1875 L 22.984375 3.191406 L 22.996094 3.183594 L 23.003906 3.179688 L 22.992188 3.183594 L 23.007812 3.175781 L 23.023438 3.171875 L 23.027344 3.171875 L 23.035156 3.167969 L 23.089844 3.382812 L 23.097656 3.382812 L 23.109375 3.375 L 23.121094 3.371094 L 23.109375 3.375 L 23.113281 3.375 L 23.128906 3.367188 L 23.117188 3.371094 L 23.125 3.367188 L 23.132812 3.359375 L 23.128906 3.363281 L 23.144531 3.347656 L 23.136719 3.355469 L 23.148438 3.335938 L 23.148438 3.339844 Z M 23.144531 3.34375 L 23.144531 3.339844 Z M 22.671875 3.691406 L 22.945312 3.234375 L 23.144531 3.34375 L 22.871094 3.804688 Z M 22.671875 3.691406 L 22.664062 3.707031 L 22.667969 3.691406 Z M 22.878906 3.75 L 22.65625 3.789062 L 22.660156 3.804688 L 22.65625 3.800781 L 22.65625 3.796875 L 22.660156 3.800781 L 22.65625 3.785156 L 22.652344 3.78125 L 22.65625 3.796875 L 22.652344 3.78125 L 22.652344 3.765625 L 22.652344 3.78125 L 22.652344 3.742188 L 22.652344 3.757812 L 22.652344 3.742188 L 22.660156 3.722656 L 22.65625 3.738281 L 22.660156 3.71875 L 22.667969 3.695312 L 22.671875 3.695312 L 22.660156 3.714844 L 22.667969 3.699219 L 22.667969 3.695312 L 22.867188 3.804688 L 22.871094 3.796875 L 22.878906 3.785156 L 22.867188 3.808594 L 22.878906 3.785156 L 22.878906 3.789062 L 22.878906 3.773438 L 22.875 3.792969 L 22.878906 3.773438 L 22.882812 3.757812 L 22.878906 3.777344 L 22.882812 3.757812 L 22.882812 3.761719 L 22.878906 3.746094 L 22.882812 3.765625 L 22.878906 3.746094 L 22.878906 3.734375 L 22.882812 3.75 L 22.878906 3.730469 L 22.878906 3.738281 L 22.878906 3.734375 L 22.882812 3.75 Z M 22.875 3.734375 L 22.878906 3.738281 L 22.878906 3.75 L 22.875 3.730469 Z M 22.839844 3.691406 L 22.722656 3.882812 L 22.730469 3.886719 L 22.722656 3.882812 L 22.707031 3.871094 L 22.714844 3.878906 L 22.707031 3.871094 L 22.703125 3.871094 L 22.695312 3.859375 L 22.683594 3.851562 L 22.703125 3.867188 L 22.691406 3.859375 L 22.683594 3.851562 L 22.683594 3.847656 L 22.671875 3.835938 L 22.671875 3.832031 L 22.660156 3.808594 L 22.660156 3.804688 L 22.65625 3.789062 L 22.878906 3.75 L 22.882812 3.75 L 22.878906 3.734375 L 22.878906 3.738281 L 22.871094 3.722656 L 22.871094 3.726562 L 22.867188 3.71875 L 22.867188 3.714844 L 22.847656 3.695312 L 22.863281 3.710938 L 22.847656 3.695312 L 22.847656 3.699219 L 22.84375 3.691406 L 22.851562 3.699219 L 22.839844 3.691406 L 22.832031 3.6875 Z M 22.839844 3.691406 L 22.824219 3.683594 Z M 22.839844 3.691406 "/>
<path style="fill-rule:nonzero;fill:rgb(92.941176%,41.176471%,36.078431%);fill-opacity:1;stroke-width:7.18;stroke-linecap:butt;stroke-linejoin:miter;stroke:rgb(92.941176%,41.176471%,36.078431%);stroke-opacity:1;stroke-miterlimit:22.9256;" d="M 339.145726 76.098869 C 321.541328 76.098869 307.233867 90.379468 307.233867 108.005072 C 307.233867 125.630677 321.541328 139.975603 339.145726 139.975603 C 356.750123 139.975603 371.119791 125.630677 371.119791 108.005072 C 371.119791 90.379468 356.750123 76.098869 339.145726 76.098869 Z M 339.145726 144.478495 C 319.053074 144.478495 302.692803 128.139431 302.692803 108.005072 C 302.692803 87.935041 319.053074 71.53165 339.145726 71.53165 C 359.238377 71.53165 375.598648 87.935041 375.598648 108.005072 C 375.598648 128.139431 359.238377 144.478495 339.145726 144.478495 Z M 339.145726 144.478495 " transform="matrix(0.062795,0,0,0.0607249,0.000207709,0)"/>
<path style=" stroke:none;fill-rule:nonzero;fill:rgb(92.941176%,41.176471%,36.078431%);fill-opacity:1;" d="M 21.296875 4.621094 C 20.191406 4.621094 19.292969 5.488281 19.292969 6.558594 C 19.292969 7.628906 20.191406 8.5 21.296875 8.5 C 22.402344 8.5 23.304688 7.628906 23.304688 6.558594 C 23.304688 5.488281 22.402344 4.621094 21.296875 4.621094 Z M 21.296875 8.773438 C 20.035156 8.773438 19.007812 7.78125 19.007812 6.558594 C 19.007812 5.339844 20.035156 4.34375 21.296875 4.34375 C 22.558594 4.34375 23.585938 5.339844 23.585938 6.558594 C 23.585938 7.78125 22.558594 8.773438 21.296875 8.773438 Z M 21.296875 8.773438 "/>
<path style=" stroke:none;fill-rule:nonzero;fill:rgb(92.941176%,41.176471%,36.078431%);fill-opacity:1;" d="M 19.40625 6.558594 L 19.175781 6.558594 L 19.179688 6.453125 L 19.1875 6.351562 L 19.199219 6.246094 L 19.21875 6.148438 L 19.242188 6.046875 L 19.273438 5.949219 L 19.304688 5.855469 L 19.34375 5.761719 L 19.386719 5.671875 L 19.433594 5.582031 L 19.484375 5.496094 L 19.539062 5.414062 L 19.597656 5.335938 L 19.664062 5.257812 L 19.730469 5.183594 L 19.871094 5.042969 L 19.949219 4.980469 L 20.03125 4.917969 L 20.113281 4.863281 L 20.199219 4.808594 L 20.289062 4.757812 L 20.378906 4.714844 L 20.472656 4.671875 L 20.570312 4.636719 L 20.667969 4.605469 L 20.769531 4.574219 L 20.972656 4.535156 L 21.082031 4.523438 L 21.1875 4.515625 L 21.296875 4.511719 L 21.296875 4.734375 L 21.199219 4.734375 L 21.101562 4.742188 L 21.007812 4.753906 L 20.914062 4.769531 L 20.824219 4.789062 L 20.734375 4.816406 L 20.648438 4.84375 L 20.5625 4.875 L 20.476562 4.914062 L 20.394531 4.953125 L 20.316406 4.996094 L 20.167969 5.097656 L 20.09375 5.152344 L 20.027344 5.207031 L 19.960938 5.269531 L 19.898438 5.332031 L 19.835938 5.398438 L 19.78125 5.46875 L 19.730469 5.539062 L 19.679688 5.613281 L 19.632812 5.691406 L 19.589844 5.769531 L 19.519531 5.933594 L 19.488281 6.015625 L 19.464844 6.105469 L 19.441406 6.191406 L 19.425781 6.28125 L 19.414062 6.375 L 19.40625 6.464844 Z M 21.296875 8.386719 L 21.296875 8.609375 L 21.1875 8.609375 L 21.082031 8.601562 L 20.972656 8.585938 L 20.769531 8.546875 L 20.667969 8.519531 L 20.472656 8.449219 L 20.378906 8.40625 L 20.289062 8.363281 L 20.199219 8.3125 L 20.113281 8.257812 L 20.03125 8.203125 L 19.949219 8.140625 L 19.871094 8.078125 L 19.730469 7.9375 L 19.664062 7.863281 L 19.597656 7.785156 L 19.539062 7.707031 L 19.484375 7.625 L 19.433594 7.539062 L 19.386719 7.449219 L 19.34375 7.359375 L 19.304688 7.265625 L 19.273438 7.167969 L 19.242188 7.074219 L 19.21875 6.972656 L 19.199219 6.871094 L 19.1875 6.769531 L 19.179688 6.667969 L 19.175781 6.5625 L 19.40625 6.5625 L 19.414062 6.75 L 19.425781 6.839844 L 19.445312 6.929688 L 19.464844 7.015625 L 19.492188 7.105469 L 19.519531 7.1875 L 19.554688 7.273438 L 19.59375 7.351562 L 19.632812 7.433594 L 19.679688 7.507812 L 19.78125 7.65625 L 19.898438 7.789062 L 19.960938 7.855469 L 20.09375 7.972656 L 20.167969 8.027344 L 20.242188 8.078125 L 20.316406 8.125 L 20.398438 8.167969 L 20.476562 8.210938 L 20.5625 8.246094 L 20.734375 8.308594 L 20.824219 8.332031 L 20.917969 8.351562 L 21.007812 8.367188 L 21.105469 8.378906 L 21.199219 8.386719 L 21.296875 8.390625 Z M 23.1875 6.558594 L 23.417969 6.558594 L 23.414062 6.664062 L 23.40625 6.769531 L 23.394531 6.871094 L 23.375 6.972656 L 23.351562 7.070312 L 23.320312 7.167969 L 23.289062 7.261719 L 23.25 7.355469 L 23.207031 7.449219 L 23.160156 7.535156 L 23.109375 7.621094 L 23.054688 7.703125 L 22.996094 7.785156 L 22.933594 7.863281 L 22.867188 7.9375 L 22.796875 8.007812 L 22.722656 8.074219 L 22.644531 8.140625 L 22.566406 8.199219 L 22.480469 8.257812 L 22.394531 8.3125 L 22.308594 8.359375 L 22.214844 8.40625 L 22.027344 8.484375 L 21.925781 8.515625 L 21.828125 8.542969 L 21.722656 8.566406 L 21.621094 8.585938 L 21.515625 8.597656 L 21.40625 8.605469 L 21.296875 8.609375 L 21.296875 8.386719 L 21.492188 8.378906 L 21.585938 8.367188 L 21.679688 8.351562 L 21.859375 8.304688 L 21.945312 8.277344 L 22.117188 8.207031 L 22.199219 8.167969 L 22.355469 8.074219 L 22.429688 8.023438 L 22.5 7.96875 L 22.632812 7.851562 L 22.695312 7.789062 L 22.757812 7.722656 L 22.8125 7.652344 L 22.863281 7.582031 L 22.914062 7.507812 L 22.960938 7.429688 L 23 7.351562 L 23.039062 7.269531 L 23.074219 7.1875 L 23.128906 7.015625 L 23.148438 6.925781 L 23.179688 6.746094 Z M 21.296875 4.730469 L 21.296875 4.507812 L 21.40625 4.511719 L 21.511719 4.519531 L 21.722656 4.550781 L 21.824219 4.574219 L 21.925781 4.601562 L 22.023438 4.632812 L 22.121094 4.671875 L 22.214844 4.710938 L 22.304688 4.757812 L 22.394531 4.808594 L 22.480469 4.859375 L 22.5625 4.917969 L 22.644531 4.980469 L 22.722656 5.042969 L 22.792969 5.109375 L 22.863281 5.183594 L 22.929688 5.257812 L 22.992188 5.332031 L 23.054688 5.414062 L 23.109375 5.496094 L 23.160156 5.582031 L 23.207031 5.671875 L 23.25 5.761719 L 23.289062 5.855469 L 23.320312 5.949219 L 23.351562 6.046875 L 23.375 6.144531 L 23.40625 6.347656 L 23.414062 6.453125 L 23.417969 6.558594 L 23.1875 6.558594 L 23.179688 6.371094 L 23.148438 6.191406 L 23.128906 6.101562 L 23.074219 5.929688 L 23.039062 5.847656 L 23 5.765625 L 22.960938 5.6875 L 22.914062 5.609375 L 22.863281 5.535156 L 22.8125 5.464844 L 22.757812 5.394531 L 22.695312 5.328125 L 22.632812 5.265625 L 22.5 5.148438 L 22.429688 5.09375 L 22.355469 5.042969 L 22.199219 4.949219 L 22.117188 4.910156 L 21.945312 4.839844 L 21.859375 4.8125 L 21.679688 4.765625 L 21.585938 4.75 L 21.492188 4.738281 Z M 18.890625 6.558594 L 19.121094 6.558594 L 19.125 6.667969 L 19.132812 6.773438 L 19.148438 6.878906 L 19.167969 6.984375 L 19.191406 7.085938 L 19.21875 7.183594 L 19.253906 7.28125 L 19.292969 7.375 L 19.339844 7.46875 L 19.386719 7.558594 L 19.4375 7.648438 L 19.496094 7.734375 L 19.554688 7.816406 L 19.6875 7.972656 L 19.835938 8.113281 L 19.914062 8.179688 L 19.996094 8.242188 L 20.082031 8.300781 L 20.171875 8.355469 L 20.261719 8.40625 L 20.355469 8.453125 L 20.453125 8.496094 L 20.550781 8.535156 L 20.652344 8.566406 L 20.753906 8.59375 L 20.859375 8.621094 L 20.96875 8.636719 L 21.074219 8.652344 L 21.1875 8.660156 L 21.296875 8.664062 L 21.296875 8.882812 L 21.175781 8.882812 L 20.933594 8.859375 L 20.8125 8.835938 L 20.699219 8.8125 L 20.585938 8.78125 L 20.472656 8.742188 L 20.363281 8.703125 L 20.257812 8.65625 L 20.152344 8.605469 L 20.050781 8.546875 L 19.957031 8.488281 L 19.859375 8.421875 L 19.769531 8.351562 L 19.683594 8.28125 L 19.597656 8.203125 L 19.519531 8.121094 L 19.445312 8.039062 L 19.371094 7.949219 L 19.304688 7.859375 L 19.242188 7.765625 L 19.183594 7.667969 L 19.082031 7.464844 L 19.039062 7.359375 L 18.96875 7.140625 L 18.921875 6.914062 L 18.90625 6.796875 L 18.898438 6.679688 L 18.894531 6.558594 Z M 21.296875 4.234375 L 21.296875 4.457031 L 21.183594 4.460938 L 21.074219 4.46875 L 20.964844 4.480469 L 20.859375 4.5 L 20.753906 4.523438 L 20.648438 4.550781 L 20.550781 4.585938 L 20.449219 4.621094 L 20.355469 4.664062 L 20.261719 4.710938 L 20.171875 4.761719 L 20.082031 4.816406 L 19.996094 4.875 L 19.914062 4.9375 L 19.835938 5.003906 L 19.761719 5.074219 L 19.6875 5.148438 L 19.621094 5.222656 L 19.554688 5.304688 L 19.492188 5.386719 L 19.382812 5.558594 L 19.335938 5.648438 L 19.292969 5.742188 L 19.253906 5.839844 L 19.21875 5.9375 L 19.191406 6.035156 L 19.164062 6.136719 L 19.144531 6.242188 L 19.132812 6.347656 L 19.125 6.453125 L 19.121094 6.5625 L 18.890625 6.5625 L 18.894531 6.441406 L 18.902344 6.324219 L 18.917969 6.207031 L 18.964844 5.980469 L 19.035156 5.761719 L 19.078125 5.65625 L 19.179688 5.453125 L 19.238281 5.355469 L 19.300781 5.261719 L 19.367188 5.171875 L 19.441406 5.082031 L 19.515625 5 L 19.59375 4.917969 L 19.679688 4.839844 L 19.765625 4.769531 L 19.855469 4.699219 L 19.953125 4.632812 L 20.046875 4.574219 L 20.148438 4.515625 L 20.253906 4.464844 L 20.359375 4.417969 L 20.578125 4.339844 L 20.695312 4.308594 L 20.808594 4.285156 L 20.929688 4.261719 L 21.046875 4.25 L 21.171875 4.238281 L 21.292969 4.238281 Z M 23.703125 6.558594 L 23.472656 6.558594 L 23.46875 6.453125 L 23.460938 6.34375 L 23.445312 6.238281 L 23.425781 6.136719 L 23.402344 6.035156 L 23.375 5.933594 L 23.339844 5.835938 L 23.300781 5.742188 L 23.253906 5.648438 L 23.207031 5.558594 L 23.15625 5.46875 L 23.097656 5.382812 L 23.039062 5.300781 L 22.90625 5.144531 L 22.757812 5.003906 L 22.679688 4.9375 L 22.597656 4.875 L 22.511719 4.816406 L 22.421875 4.761719 L 22.332031 4.710938 L 22.238281 4.664062 L 22.140625 4.621094 L 22.042969 4.582031 L 21.941406 4.550781 L 21.839844 4.523438 L 21.734375 4.496094 L 21.628906 4.480469 L 21.519531 4.464844 L 21.410156 4.457031 L 21.296875 4.453125 L 21.296875 4.234375 L 21.421875 4.234375 L 21.664062 4.257812 L 21.898438 4.304688 L 22.011719 4.335938 L 22.230469 4.414062 L 22.339844 4.460938 L 22.441406 4.511719 L 22.542969 4.570312 L 22.640625 4.628906 L 22.734375 4.695312 L 22.828125 4.765625 L 22.914062 4.835938 L 22.996094 4.914062 L 23.078125 4.996094 L 23.152344 5.078125 L 23.222656 5.167969 L 23.289062 5.257812 L 23.355469 5.351562 L 23.410156 5.449219 L 23.464844 5.550781 L 23.511719 5.652344 L 23.554688 5.757812 L 23.59375 5.867188 L 23.625 5.976562 L 23.652344 6.089844 L 23.675781 6.203125 L 23.691406 6.320312 L 23.699219 6.4375 Z M 21.296875 8.882812 L 21.296875 8.664062 L 21.410156 8.660156 L 21.519531 8.652344 L 21.628906 8.636719 L 21.734375 8.621094 L 21.839844 8.59375 L 21.941406 8.566406 L 22.042969 8.535156 L 22.140625 8.496094 L 22.238281 8.453125 L 22.332031 8.40625 L 22.421875 8.355469 L 22.511719 8.300781 L 22.597656 8.242188 L 22.679688 8.179688 L 22.757812 8.113281 L 22.90625 7.972656 L 23.039062 7.816406 L 23.097656 7.734375 L 23.15625 7.648438 L 23.207031 7.558594 L 23.253906 7.46875 L 23.300781 7.375 L 23.339844 7.28125 L 23.375 7.183594 L 23.402344 7.082031 L 23.425781 6.980469 L 23.445312 6.878906 L 23.460938 6.773438 L 23.46875 6.667969 L 23.472656 6.558594 L 23.703125 6.558594 L 23.699219 6.679688 L 23.675781 6.914062 L 23.652344 7.027344 L 23.625 7.140625 L 23.59375 7.25 L 23.554688 7.359375 L 23.511719 7.464844 L 23.464844 7.566406 L 23.410156 7.667969 L 23.351562 7.765625 L 23.289062 7.859375 L 23.222656 7.949219 L 23.152344 8.039062 L 22.996094 8.203125 L 22.914062 8.28125 L 22.734375 8.421875 L 22.640625 8.488281 L 22.542969 8.546875 L 22.339844 8.65625 L 22.230469 8.703125 L 22.011719 8.78125 L 21.894531 8.8125 L 21.78125 8.835938 L 21.660156 8.855469 L 21.542969 8.871094 L 21.417969 8.882812 Z M 21.296875 8.882812 "/>
<path style=" stroke:none;fill-rule:nonzero;fill:rgb(92.941176%,41.176471%,36.078431%);fill-opacity:1;" d="M 21.300781 10.824219 L 5.445312 10.824219 C 5.261719 10.824219 5.109375 10.972656 5.109375 11.152344 C 5.109375 11.332031 5.261719 11.476562 5.445312 11.476562 L 21.300781 11.476562 C 21.816406 11.476562 22.238281 11.882812 22.238281 12.382812 L 22.238281 19.308594 C 22.238281 19.808594 21.816406 20.214844 21.300781 20.214844 L 20.492188 20.214844 L 20.492188 18.09375 C 20.492188 17.914062 20.34375 17.769531 20.15625 17.769531 L 2.75 17.769531 C 2.566406 17.769531 2.414062 17.914062 2.414062 18.09375 L 2.414062 20.214844 L 1.609375 20.214844 C 1.09375 20.214844 0.671875 19.808594 0.671875 19.308594 L 0.671875 12.382812 C 0.671875 11.882812 1.09375 11.476562 1.609375 11.476562 L 4.101562 11.476562 C 4.289062 11.476562 4.4375 11.332031 4.4375 11.152344 C 4.4375 10.972656 4.289062 10.824219 4.101562 10.824219 L 1.609375 10.824219 C 0.722656 10.824219 0 11.523438 0 12.382812 L 0 19.308594 C 0 20.167969 0.722656 20.863281 1.609375 20.863281 L 5.109375 20.863281 C 5.296875 20.863281 5.449219 20.71875 5.449219 20.539062 C 5.449219 20.359375 5.296875 20.214844 5.109375 20.214844 L 3.089844 20.214844 L 3.089844 19.644531 L 16.453125 19.644531 C 16.640625 19.644531 16.789062 19.496094 16.789062 19.316406 C 16.789062 19.136719 16.636719 18.992188 16.453125 18.992188 L 3.089844 18.992188 L 3.089844 18.421875 L 19.820312 18.421875 L 19.820312 18.992188 L 17.800781 18.992188 C 17.613281 18.992188 17.460938 19.136719 17.460938 19.316406 C 17.460938 19.496094 17.613281 19.644531 17.800781 19.644531 L 19.820312 19.644531 L 19.820312 20.214844 L 6.457031 20.214844 C 6.269531 20.214844 6.121094 20.359375 6.121094 20.539062 C 6.121094 20.71875 6.273438 20.863281 6.457031 20.863281 L 21.300781 20.863281 C 22.1875 20.863281 22.910156 20.167969 22.910156 19.308594 L 22.910156 12.382812 C 22.910156 11.523438 22.1875 10.824219 21.300781 10.824219 Z M 21.300781 10.824219 "/>
<path style=" stroke:none;fill-rule:nonzero;fill:rgb(92.941176%,41.176471%,36.078431%);fill-opacity:1;" d="M 20.15625 13.46875 C 20.34375 13.46875 20.492188 13.324219 20.492188 13.144531 C 20.492188 12.964844 20.34375 12.820312 20.15625 12.820312 L 19.164062 12.820312 C 18.976562 12.820312 18.828125 12.964844 18.828125 13.144531 C 18.828125 13.324219 18.976562 13.46875 19.164062 13.46875 Z M 20.15625 13.46875 "/>
<path style=" stroke:none;fill-rule:nonzero;fill:rgb(92.941176%,41.176471%,36.078431%);fill-opacity:1;" d="M 17.628906 13.46875 C 17.8125 13.46875 17.964844 13.324219 17.964844 13.144531 C 17.964844 12.964844 17.8125 12.820312 17.628906 12.820312 L 11.261719 12.820312 C 11.078125 12.820312 10.925781 12.964844 10.925781 13.144531 C 10.925781 13.324219 11.078125 13.46875 11.261719 13.46875 Z M 17.628906 13.46875 "/>
<path style=" stroke:none;fill-rule:nonzero;fill:rgb(92.941176%,41.176471%,36.078431%);fill-opacity:1;" d="M 6.328125 21.734375 C 6.140625 21.734375 5.988281 21.882812 5.988281 22.058594 C 5.988281 22.070312 5.980469 23.035156 5.046875 23.675781 C 4.894531 23.777344 4.859375 23.984375 4.964844 24.128906 C 5.03125 24.21875 5.136719 24.265625 5.242188 24.265625 C 5.308594 24.265625 5.375 24.246094 5.4375 24.207031 C 6.648438 23.371094 6.664062 22.113281 6.664062 22.058594 C 6.664062 21.878906 6.511719 21.734375 6.328125 21.734375 Z M 6.328125 21.734375 "/>
<path style=" stroke:none;fill-rule:nonzero;fill:rgb(92.941176%,41.176471%,36.078431%);fill-opacity:1;" d="M 8.734375 21.734375 C 8.546875 21.734375 8.398438 21.882812 8.398438 22.058594 L 8.398438 23.941406 C 8.398438 24.121094 8.546875 24.265625 8.734375 24.265625 C 8.921875 24.265625 9.070312 24.121094 9.070312 23.941406 L 9.070312 22.058594 C 9.070312 21.878906 8.917969 21.734375 8.734375 21.734375 Z M 8.734375 21.734375 "/>
<path style=" stroke:none;fill-rule:nonzero;fill:rgb(92.941176%,41.176471%,36.078431%);fill-opacity:1;" d="M 11.550781 21.734375 C 11.363281 21.734375 11.210938 21.882812 11.210938 22.058594 L 11.210938 23.941406 C 11.210938 24.121094 11.363281 24.265625 11.550781 24.265625 C 11.734375 24.265625 11.886719 24.121094 11.886719 23.941406 L 11.886719 22.058594 C 11.886719 21.878906 11.734375 21.734375 11.550781 21.734375 Z M 11.550781 21.734375 "/>
<path style=" stroke:none;fill-rule:nonzero;fill:rgb(92.941176%,41.176471%,36.078431%);fill-opacity:1;" d="M 17.863281 23.675781 C 16.941406 23.042969 16.917969 22.101562 16.917969 22.058594 C 16.917969 21.878906 16.769531 21.734375 16.582031 21.734375 C 16.398438 21.734375 16.246094 21.882812 16.246094 22.058594 C 16.246094 22.113281 16.261719 23.371094 17.472656 24.207031 C 17.53125 24.246094 17.601562 24.265625 17.667969 24.265625 C 17.773438 24.265625 17.875 24.21875 17.941406 24.128906 C 18.050781 23.984375 18.015625 23.78125 17.863281 23.675781 Z M 17.863281 23.675781 "/>
<path style=" stroke:none;fill-rule:nonzero;fill:rgb(92.941176%,41.176471%,36.078431%);fill-opacity:1;" d="M 14.175781 21.734375 C 13.988281 21.734375 13.839844 21.882812 13.839844 22.058594 L 13.839844 23.941406 C 13.839844 24.121094 13.988281 24.265625 14.175781 24.265625 C 14.359375 24.265625 14.511719 24.121094 14.511719 23.941406 L 14.511719 22.058594 C 14.511719 21.878906 14.359375 21.734375 14.175781 21.734375 Z M 14.175781 21.734375 "/>
<path style=" stroke:none;fill-rule:nonzero;fill:rgb(92.941176%,41.176471%,36.078431%);fill-opacity:1;" d="M 14.851562 3.480469 C 14.023438 4.867188 13.714844 6.488281 13.972656 8.074219 C 14 8.246094 14.167969 8.363281 14.347656 8.335938 C 14.527344 8.308594 14.648438 8.144531 14.621094 7.972656 C 14.121094 4.929688 15.957031 1.980469 18.972656 0.980469 C 21.984375 -0.0195312 25.304688 1.21875 26.84375 3.917969 C 28.382812 6.613281 27.695312 9.992188 25.214844 11.921875 C 25.121094 11.992188 25.074219 12.105469 25.09375 12.21875 C 25.109375 12.332031 25.1875 12.425781 25.296875 12.46875 C 25.410156 12.507812 25.535156 12.492188 25.625 12.417969 C 27.882812 10.660156 28.832031 7.769531 28.042969 5.074219 C 27.25 2.378906 24.867188 0.402344 21.992188 0.0546875 C 19.117188 -0.292969 16.308594 1.058594 14.855469 3.484375 Z M 14.851562 3.480469 "/>
</g>
</svg>
