<?xml version="1.0" encoding="UTF-8"?>
<svg xmlns="http://www.w3.org/2000/svg" xmlns:xlink="http://www.w3.org/1999/xlink" width="28px" height="28px" viewBox="0 0 28 24" version="1.1">
<g id="surface1">
<path style=" stroke:none;fill-rule:nonzero;fill:rgb(92.941176%,41.176471%,36.078431%);fill-opacity:1;" d="M 21.546875 6.355469 L 22.421875 5.507812 L 22.78125 6.355469 Z M 22.421875 7.503906 L 21.546875 6.65625 L 22.78125 6.65625 Z M 21.324219 8.066406 L 21.324219 6.871094 L 22.199219 7.714844 Z M 21.324219 4.945312 L 22.199219 5.292969 L 21.324219 6.140625 Z M 20.121094 7.691406 L 20.992188 6.847656 L 20.992188 8.039062 Z M 19.535156 6.632812 L 20.773438 6.632812 L 19.898438 7.476562 Z M 19.898438 5.484375 L 20.773438 6.328125 L 19.535156 6.328125 Z M 20.992188 4.917969 L 20.992188 6.113281 L 20.121094 5.269531 Z M 24.929688 6.355469 L 24.460938 6.355469 L 24.769531 5.960938 C 24.789062 5.933594 24.785156 5.898438 24.757812 5.878906 L 24.601562 5.765625 C 24.589844 5.757812 24.574219 5.753906 24.558594 5.753906 C 24.542969 5.757812 24.527344 5.765625 24.519531 5.777344 L 24.070312 6.355469 L 23.121094 6.355469 L 22.78125 5.5625 L 22.660156 5.277344 L 22.78125 5.160156 L 23.332031 4.628906 L 24.070312 4.726562 C 24.101562 4.734375 24.132812 4.710938 24.136719 4.679688 L 24.164062 4.496094 C 24.167969 4.480469 24.164062 4.464844 24.152344 4.453125 C 24.144531 4.4375 24.128906 4.429688 24.113281 4.429688 L 23.609375 4.359375 L 23.9375 4.039062 C 23.960938 4.015625 23.960938 3.980469 23.9375 3.957031 L 23.800781 3.824219 C 23.78125 3.804688 23.738281 3.804688 23.71875 3.824219 L 23.386719 4.144531 L 23.316406 3.65625 C 23.3125 3.640625 23.304688 3.628906 23.292969 3.617188 C 23.28125 3.609375 23.261719 3.605469 23.246094 3.605469 L 23.054688 3.632812 C 23.023438 3.636719 23 3.667969 23.003906 3.699219 L 23.109375 4.414062 L 22.78125 4.730469 L 22.4375 5.0625 L 21.324219 4.617188 L 21.324219 4.082031 L 21.308594 4.082031 L 21.308594 3.675781 L 21.902344 3.238281 C 21.929688 3.21875 21.933594 3.183594 21.914062 3.15625 L 21.796875 3.007812 C 21.789062 2.996094 21.773438 2.988281 21.757812 2.984375 C 21.742188 2.984375 21.726562 2.988281 21.714844 2.996094 L 21.308594 3.292969 L 21.308594 2.824219 C 21.308594 2.792969 21.28125 2.765625 21.246094 2.765625 L 21.054688 2.765625 C 21.019531 2.765625 20.992188 2.792969 20.992188 2.824219 L 20.992188 3.292969 L 20.585938 2.996094 C 20.574219 2.988281 20.558594 2.984375 20.542969 2.984375 C 20.523438 2.988281 20.511719 2.996094 20.5 3.007812 L 20.386719 3.15625 C 20.363281 3.183594 20.371094 3.21875 20.398438 3.238281 L 20.992188 3.671875 L 20.992188 4.589844 L 19.878906 5.035156 L 19.535156 4.703125 L 19.210938 4.390625 L 19.3125 3.671875 C 19.316406 3.640625 19.296875 3.613281 19.261719 3.605469 L 19.070312 3.582031 C 19.054688 3.578125 19.039062 3.582031 19.027344 3.59375 C 19.011719 3.601562 19.003906 3.617188 19.003906 3.632812 L 18.929688 4.121094 L 18.601562 3.800781 C 18.578125 3.777344 18.539062 3.777344 18.515625 3.800781 L 18.378906 3.933594 C 18.355469 3.957031 18.355469 3.992188 18.378906 4.015625 L 18.710938 4.335938 L 18.203125 4.402344 C 18.1875 4.40625 18.175781 4.414062 18.164062 4.425781 C 18.15625 4.4375 18.152344 4.453125 18.152344 4.46875 L 18.179688 4.65625 C 18.183594 4.6875 18.214844 4.707031 18.246094 4.703125 L 18.988281 4.601562 L 19.535156 5.132812 L 19.65625 5.25 L 19.535156 5.535156 L 19.195312 6.328125 L 18.25 6.328125 L 17.796875 5.753906 C 17.777344 5.726562 17.742188 5.71875 17.714844 5.738281 L 17.558594 5.851562 C 17.535156 5.871094 17.527344 5.910156 17.546875 5.933594 L 17.855469 6.328125 L 17.386719 6.328125 C 17.355469 6.328125 17.328125 6.355469 17.328125 6.386719 L 17.328125 6.574219 C 17.328125 6.605469 17.355469 6.632812 17.386719 6.632812 L 17.855469 6.632812 L 17.546875 7.027344 C 17.527344 7.050781 17.535156 7.085938 17.558594 7.109375 L 17.714844 7.21875 C 17.726562 7.230469 17.742188 7.234375 17.757812 7.230469 C 17.777344 7.230469 17.789062 7.222656 17.800781 7.207031 L 18.25 6.632812 L 19.195312 6.632812 L 19.535156 7.425781 L 19.65625 7.710938 L 19.535156 7.828125 L 18.988281 8.355469 L 18.246094 8.257812 C 18.214844 8.253906 18.183594 8.273438 18.179688 8.304688 L 18.152344 8.492188 C 18.152344 8.507812 18.15625 8.523438 18.164062 8.535156 C 18.175781 8.546875 18.1875 8.554688 18.203125 8.558594 L 18.710938 8.625 L 18.378906 8.945312 C 18.355469 8.96875 18.355469 9.003906 18.378906 9.027344 L 18.515625 9.160156 C 18.539062 9.183594 18.578125 9.183594 18.601562 9.160156 L 18.929688 8.839844 L 19.003906 9.328125 C 19.003906 9.34375 19.011719 9.359375 19.027344 9.367188 C 19.039062 9.378906 19.054688 9.378906 19.070312 9.378906 L 19.261719 9.351562 C 19.296875 9.347656 19.316406 9.320312 19.3125 9.285156 L 19.210938 8.570312 L 19.535156 8.253906 L 19.878906 7.921875 L 20.992188 8.367188 L 20.992188 9.285156 L 20.398438 9.722656 C 20.371094 9.738281 20.363281 9.777344 20.386719 9.800781 L 20.5 9.953125 C 20.511719 9.964844 20.523438 9.972656 20.542969 9.972656 C 20.558594 9.976562 20.574219 9.972656 20.585938 9.964844 L 20.992188 9.667969 L 20.992188 10.136719 C 20.992188 10.167969 21.019531 10.195312 21.054688 10.195312 L 21.246094 10.195312 C 21.28125 10.195312 21.308594 10.167969 21.308594 10.136719 L 21.308594 9.667969 L 21.714844 9.964844 C 21.726562 9.972656 21.742188 9.976562 21.757812 9.972656 C 21.773438 9.972656 21.789062 9.964844 21.796875 9.953125 L 21.914062 9.800781 C 21.933594 9.777344 21.929688 9.738281 21.902344 9.722656 L 21.308594 9.285156 L 21.308594 8.980469 L 21.324219 8.980469 L 21.324219 8.394531 L 22.4375 7.949219 L 22.78125 8.28125 L 23.109375 8.597656 L 23.003906 9.3125 C 23 9.34375 23.023438 9.375 23.054688 9.378906 L 23.246094 9.402344 C 23.261719 9.40625 23.28125 9.402344 23.292969 9.394531 C 23.304688 9.382812 23.3125 9.371094 23.316406 9.355469 L 23.386719 8.867188 L 23.71875 9.183594 C 23.738281 9.207031 23.78125 9.207031 23.800781 9.183594 L 23.9375 9.054688 C 23.960938 9.03125 23.960938 8.992188 23.9375 8.96875 L 23.609375 8.652344 L 24.113281 8.582031 C 24.128906 8.582031 24.144531 8.570312 24.152344 8.558594 C 24.164062 8.546875 24.167969 8.53125 24.164062 8.515625 L 24.136719 8.332031 C 24.132812 8.300781 24.101562 8.277344 24.070312 8.28125 L 23.332031 8.382812 L 22.78125 7.851562 L 22.660156 7.734375 L 22.78125 7.449219 L 23.121094 6.65625 L 24.070312 6.65625 L 24.519531 7.234375 C 24.539062 7.257812 24.578125 7.265625 24.601562 7.246094 L 24.757812 7.132812 C 24.785156 7.113281 24.789062 7.078125 24.769531 7.050781 L 24.460938 6.65625 L 24.929688 6.65625 C 24.964844 6.65625 24.992188 6.632812 24.992188 6.597656 L 24.992188 6.410156 C 24.992188 6.378906 24.964844 6.355469 24.929688 6.355469 Z M 24.929688 6.355469 "/>
<path style=" stroke:none;fill-rule:nonzero;fill:rgb(92.941176%,41.176471%,36.078431%);fill-opacity:1;" d="M 22.464844 5.550781 L 21.589844 6.394531 L 21.503906 6.3125 L 22.375 5.46875 L 22.476562 5.484375 Z M 22.375 5.46875 L 22.441406 5.402344 L 22.476562 5.484375 Z M 22.726562 6.375 L 22.363281 5.53125 L 22.476562 5.484375 L 22.839844 6.332031 L 22.78125 6.414062 Z M 22.839844 6.332031 L 22.875 6.414062 L 22.78125 6.414062 Z M 21.546875 6.292969 L 22.78125 6.292969 L 22.78125 6.414062 L 21.546875 6.414062 L 21.503906 6.3125 Z M 21.546875 6.414062 L 21.398438 6.414062 L 21.503906 6.3125 Z M 21.589844 6.613281 L 22.464844 7.460938 L 22.375 7.542969 L 21.503906 6.699219 L 21.546875 6.597656 Z M 21.503906 6.699219 L 21.398438 6.597656 L 21.546875 6.597656 Z M 22.78125 6.714844 L 21.546875 6.714844 L 21.546875 6.597656 L 22.78125 6.597656 L 22.839844 6.679688 Z M 22.78125 6.597656 L 22.875 6.597656 L 22.839844 6.679688 Z M 22.363281 7.480469 L 22.726562 6.632812 L 22.839844 6.679688 L 22.476562 7.523438 L 22.375 7.542969 Z M 22.476562 7.523438 L 22.441406 7.605469 L 22.375 7.542969 Z M 21.386719 6.871094 L 21.386719 8.066406 L 21.261719 8.066406 L 21.261719 6.871094 L 21.367188 6.828125 Z M 21.261719 6.871094 L 21.261719 6.726562 L 21.367188 6.828125 Z M 22.15625 7.757812 L 21.28125 6.914062 L 21.367188 6.828125 L 22.242188 7.675781 L 22.222656 7.769531 Z M 22.242188 7.675781 L 22.308594 7.738281 L 22.222656 7.769531 Z M 21.300781 8.011719 L 22.175781 7.660156 L 22.222656 7.769531 L 21.347656 8.121094 L 21.261719 8.066406 Z M 21.347656 8.121094 L 21.261719 8.15625 L 21.261719 8.066406 Z M 22.175781 5.347656 L 21.300781 5 L 21.347656 4.890625 L 22.222656 5.238281 L 22.242188 5.335938 Z M 22.222656 5.238281 L 22.308594 5.273438 L 22.242188 5.335938 Z M 21.28125 6.097656 L 22.15625 5.253906 L 22.242188 5.335938 L 21.367188 6.179688 L 21.261719 6.140625 Z M 21.367188 6.179688 L 21.261719 6.28125 L 21.261719 6.140625 Z M 21.386719 4.945312 L 21.386719 6.140625 L 21.261719 6.140625 L 21.261719 4.945312 L 21.347656 4.890625 Z M 21.261719 4.945312 L 21.261719 4.855469 L 21.347656 4.890625 Z M 21.035156 6.886719 L 20.164062 7.734375 L 20.074219 7.648438 L 20.949219 6.804688 L 21.054688 6.847656 Z M 20.949219 6.804688 L 21.054688 6.703125 L 21.054688 6.847656 Z M 20.933594 8.039062 L 20.933594 6.847656 L 21.054688 6.847656 L 21.054688 8.039062 L 20.96875 8.09375 Z M 21.054688 8.039062 L 21.054688 8.128906 L 20.96875 8.09375 Z M 20.144531 7.636719 L 21.015625 7.984375 L 20.96875 8.09375 L 20.097656 7.746094 L 20.074219 7.648438 Z M 20.097656 7.746094 L 20.011719 7.710938 L 20.074219 7.648438 Z M 20.769531 6.691406 L 19.535156 6.691406 L 19.535156 6.570312 L 20.769531 6.570312 L 20.816406 6.671875 Z M 20.769531 6.570312 L 20.917969 6.570312 L 20.816406 6.671875 Z M 19.855469 7.433594 L 20.726562 6.589844 L 20.816406 6.671875 L 19.941406 7.519531 L 19.839844 7.5 Z M 19.941406 7.519531 L 19.875 7.582031 L 19.839844 7.5 Z M 19.59375 6.609375 L 19.953125 7.453125 L 19.839844 7.5 L 19.480469 6.652344 L 19.535156 6.570312 Z M 19.480469 6.652344 L 19.445312 6.570312 L 19.535156 6.570312 Z M 20.726562 6.371094 L 19.855469 5.523438 L 19.941406 5.441406 L 20.816406 6.285156 L 20.769531 6.386719 Z M 20.816406 6.285156 L 20.917969 6.386719 L 20.769531 6.386719 Z M 19.535156 6.269531 L 20.769531 6.269531 L 20.769531 6.386719 L 19.535156 6.386719 L 19.480469 6.304688 Z M 19.535156 6.386719 L 19.445312 6.386719 L 19.480469 6.304688 Z M 19.953125 5.503906 L 19.59375 6.351562 L 19.480469 6.304688 L 19.839844 5.460938 L 19.941406 5.441406 Z M 19.839844 5.460938 L 19.875 5.378906 L 19.941406 5.441406 Z M 20.933594 6.113281 L 20.933594 4.917969 L 21.054688 4.917969 L 21.054688 6.113281 L 20.949219 6.15625 Z M 21.054688 6.113281 L 21.054688 6.257812 L 20.949219 6.15625 Z M 20.164062 5.226562 L 21.035156 6.070312 L 20.949219 6.15625 L 20.078125 5.308594 L 20.097656 5.214844 Z M 20.078125 5.308594 L 20.011719 5.246094 L 20.097656 5.214844 Z M 21.015625 4.972656 L 20.144531 5.324219 L 20.097656 5.214844 L 20.96875 4.863281 L 21.054688 4.917969 Z M 20.96875 4.863281 L 21.054688 4.828125 L 21.054688 4.917969 Z M 24.460938 6.292969 L 24.929688 6.292969 L 24.929688 6.414062 L 24.460938 6.414062 L 24.414062 6.320312 Z M 24.460938 6.414062 L 24.339844 6.414062 L 24.414062 6.320312 Z M 24.816406 5.996094 L 24.511719 6.390625 L 24.414062 6.320312 L 24.71875 5.925781 Z M 24.816406 5.996094 L 24.820312 5.988281 Z M 24.722656 5.925781 L 24.792969 5.832031 L 24.800781 5.832031 L 24.804688 5.839844 L 24.824219 5.859375 L 24.828125 5.867188 L 24.832031 5.871094 L 24.832031 5.878906 L 24.835938 5.886719 L 24.839844 5.890625 L 24.839844 5.90625 L 24.84375 5.914062 L 24.84375 5.9375 L 24.839844 5.941406 L 24.839844 5.953125 L 24.835938 5.960938 L 24.835938 5.964844 L 24.832031 5.96875 L 24.832031 5.976562 L 24.824219 5.984375 L 24.824219 5.988281 L 24.820312 5.996094 L 24.71875 5.925781 L 24.71875 5.921875 L 24.722656 5.921875 L 24.71875 5.925781 L 24.71875 5.921875 L 24.71875 5.925781 L 24.71875 5.921875 L 24.71875 5.925781 L 24.71875 5.921875 L 24.71875 5.925781 L 24.71875 5.921875 L 24.71875 5.925781 L 24.722656 5.925781 L 24.71875 5.921875 L 24.71875 5.925781 L 24.722656 5.925781 L 24.71875 5.925781 Z M 24.722656 5.925781 L 24.730469 5.929688 Z M 24.640625 5.71875 L 24.792969 5.832031 L 24.722656 5.925781 L 24.566406 5.8125 Z M 24.566406 5.8125 L 24.5625 5.8125 Z M 24.566406 5.8125 L 24.550781 5.695312 L 24.546875 5.695312 L 24.589844 5.695312 L 24.59375 5.699219 L 24.601562 5.699219 L 24.597656 5.699219 L 24.609375 5.703125 L 24.613281 5.703125 L 24.617188 5.707031 L 24.625 5.707031 L 24.632812 5.714844 L 24.636719 5.714844 L 24.636719 5.71875 L 24.640625 5.71875 L 24.566406 5.8125 L 24.5625 5.8125 L 24.566406 5.8125 L 24.5625 5.8125 L 24.566406 5.8125 L 24.5625 5.8125 L 24.570312 5.8125 L 24.5625 5.8125 L 24.570312 5.8125 L 24.5625 5.8125 L 24.570312 5.8125 L 24.566406 5.8125 L 24.570312 5.8125 L 24.566406 5.8125 L 24.570312 5.8125 L 24.566406 5.8125 L 24.570312 5.8125 Z M 24.566406 5.8125 L 24.578125 5.8125 Z M 24.570312 5.8125 L 24.46875 5.742188 L 24.488281 5.722656 L 24.492188 5.722656 L 24.492188 5.71875 L 24.496094 5.71875 L 24.496094 5.714844 L 24.503906 5.714844 L 24.503906 5.710938 L 24.507812 5.710938 L 24.511719 5.707031 L 24.515625 5.707031 L 24.515625 5.703125 L 24.523438 5.703125 L 24.527344 5.699219 L 24.539062 5.699219 L 24.542969 5.695312 L 24.550781 5.695312 L 24.566406 5.8125 L 24.570312 5.8125 L 24.566406 5.8125 L 24.570312 5.8125 L 24.566406 5.8125 L 24.570312 5.8125 L 24.566406 5.8125 L 24.570312 5.8125 L 24.566406 5.8125 L 24.570312 5.8125 L 24.566406 5.8125 L 24.570312 5.8125 L 24.570312 5.808594 L 24.566406 5.8125 L 24.570312 5.808594 L 24.570312 5.8125 L 24.566406 5.8125 L 24.570312 5.8125 L 24.566406 5.8125 Z M 24.570312 5.8125 Z M 24.019531 6.320312 L 24.46875 5.742188 L 24.570312 5.8125 L 24.117188 6.390625 L 24.070312 6.414062 Z M 24.117188 6.390625 L 24.101562 6.414062 L 24.070312 6.414062 Z M 23.121094 6.296875 L 24.070312 6.296875 L 24.070312 6.414062 L 23.121094 6.414062 L 23.066406 6.375 Z M 23.121094 6.414062 L 23.082031 6.414062 L 23.066406 6.375 Z M 22.839844 5.539062 L 23.179688 6.332031 L 23.066406 6.378906 L 22.726562 5.582031 Z M 22.71875 5.253906 L 22.839844 5.539062 L 22.726562 5.582031 L 22.605469 5.300781 L 22.617188 5.234375 Z M 22.605469 5.300781 L 22.589844 5.261719 L 22.617188 5.234375 Z M 22.824219 5.199219 L 22.703125 5.320312 L 22.617188 5.234375 L 22.738281 5.117188 Z M 22.738281 5.117188 Z M 23.375 4.671875 L 22.824219 5.199219 L 22.738281 5.117188 L 23.289062 4.585938 L 23.339844 4.570312 Z M 23.289062 4.585938 L 23.308594 4.566406 L 23.339844 4.570312 L 23.285156 4.585938 Z M 24.0625 4.789062 L 23.320312 4.6875 L 23.339844 4.570312 L 24.078125 4.667969 Z M 24.078125 4.667969 Z M 24.078125 4.671875 L 24.199219 4.6875 L 24.199219 4.695312 L 24.195312 4.703125 L 24.195312 4.707031 L 24.191406 4.710938 L 24.191406 4.71875 L 24.183594 4.726562 L 24.183594 4.730469 L 24.179688 4.738281 L 24.15625 4.761719 L 24.148438 4.765625 L 24.140625 4.773438 L 24.136719 4.773438 L 24.132812 4.777344 L 24.125 4.777344 L 24.121094 4.78125 L 24.113281 4.785156 L 24.105469 4.785156 L 24.097656 4.789062 L 24.0625 4.789062 L 24.078125 4.671875 L 24.082031 4.667969 L 24.078125 4.671875 L 24.082031 4.667969 L 24.078125 4.671875 L 24.078125 4.667969 L 24.078125 4.671875 L 24.078125 4.667969 L 24.078125 4.671875 L 24.078125 4.667969 Z M 24.199219 4.6875 L 24.199219 4.695312 Z M 24.226562 4.503906 L 24.199219 4.6875 L 24.078125 4.671875 L 24.105469 4.484375 Z M 24.105469 4.484375 L 24.105469 4.476562 Z M 24.105469 4.488281 L 24.203125 4.417969 L 24.207031 4.421875 L 24.210938 4.429688 L 24.214844 4.433594 L 24.21875 4.441406 L 24.21875 4.449219 L 24.21875 4.445312 L 24.222656 4.449219 L 24.222656 4.457031 L 24.222656 4.453125 L 24.222656 4.460938 L 24.226562 4.464844 L 24.222656 4.460938 L 24.226562 4.464844 L 24.226562 4.503906 L 24.105469 4.484375 L 24.105469 4.488281 L 24.105469 4.484375 L 24.105469 4.488281 L 24.105469 4.484375 L 24.105469 4.488281 L 24.105469 4.484375 L 24.105469 4.492188 L 24.105469 4.484375 L 24.105469 4.492188 L 24.105469 4.484375 L 24.105469 4.488281 L 24.101562 4.484375 L 24.105469 4.488281 L 24.105469 4.492188 L 24.105469 4.488281 L 24.101562 4.484375 L 24.105469 4.484375 L 24.101562 4.484375 L 24.105469 4.488281 L 24.105469 4.484375 L 24.101562 4.484375 L 24.105469 4.484375 Z M 24.203125 4.417969 Z M 24.105469 4.488281 L 24.121094 4.371094 L 24.132812 4.371094 L 24.136719 4.375 L 24.136719 4.371094 L 24.136719 4.375 L 24.148438 4.375 L 24.152344 4.378906 L 24.148438 4.375 L 24.152344 4.378906 L 24.160156 4.378906 L 24.160156 4.382812 L 24.164062 4.382812 L 24.171875 4.386719 L 24.171875 4.390625 L 24.175781 4.390625 L 24.183594 4.398438 L 24.1875 4.398438 L 24.195312 4.40625 L 24.195312 4.410156 L 24.199219 4.410156 L 24.203125 4.414062 L 24.203125 4.417969 L 24.105469 4.488281 L 24.101562 4.484375 L 24.105469 4.488281 L 24.101562 4.484375 L 24.105469 4.488281 L 24.101562 4.488281 L 24.109375 4.488281 L 24.101562 4.488281 L 24.105469 4.488281 L 24.101562 4.488281 L 24.109375 4.488281 Z M 24.121094 4.371094 L 24.128906 4.371094 Z M 23.617188 4.300781 L 24.121094 4.371094 L 24.105469 4.488281 L 23.597656 4.417969 L 23.566406 4.316406 Z M 23.597656 4.417969 L 23.476562 4.402344 L 23.566406 4.316406 Z M 23.980469 4.082031 L 23.652344 4.402344 L 23.566406 4.316406 L 23.894531 4 L 23.984375 4.082031 Z M 23.984375 4.082031 L 23.980469 4.082031 Z M 23.894531 4 L 23.980469 3.917969 L 23.988281 3.921875 L 24 3.933594 L 24 3.9375 L 24.003906 3.945312 L 24.007812 3.949219 L 24.007812 3.953125 L 24.011719 3.960938 L 24.011719 3.964844 L 24.015625 3.972656 L 24.015625 3.988281 L 24.019531 3.992188 L 24.019531 4.003906 L 24.015625 4.011719 L 24.015625 4.027344 L 24.011719 4.03125 L 24.011719 4.035156 L 24.007812 4.042969 L 24.007812 4.046875 L 24.003906 4.054688 L 24 4.058594 L 24 4.0625 L 23.988281 4.074219 L 23.988281 4.078125 L 23.984375 4.082031 L 23.894531 4 L 23.898438 3.996094 L 23.894531 3.996094 L 23.894531 4 L 23.894531 3.996094 L 23.894531 4 L 23.894531 3.996094 L 23.894531 4 L 23.894531 3.996094 L 23.894531 4 L 23.898438 4 L 23.894531 4 L 23.898438 4 Z M 23.84375 3.785156 L 23.980469 3.917969 L 23.894531 4 L 23.757812 3.867188 Z M 23.761719 3.867188 L 23.671875 3.785156 L 23.679688 3.78125 L 23.691406 3.769531 L 23.699219 3.765625 L 23.703125 3.761719 L 23.710938 3.761719 L 23.714844 3.757812 L 23.722656 3.757812 L 23.726562 3.753906 L 23.730469 3.753906 L 23.738281 3.75 L 23.78125 3.75 L 23.789062 3.753906 L 23.792969 3.753906 L 23.796875 3.757812 L 23.804688 3.757812 L 23.808594 3.761719 L 23.8125 3.761719 L 23.828125 3.769531 L 23.84375 3.785156 L 23.757812 3.867188 L 23.761719 3.867188 L 23.761719 3.871094 L 23.757812 3.867188 L 23.761719 3.867188 L 23.761719 3.871094 L 23.757812 3.867188 L 23.761719 3.867188 L 23.757812 3.867188 L 23.761719 3.867188 L 23.757812 3.871094 L 23.757812 3.867188 L 23.761719 3.867188 L 23.757812 3.871094 L 23.757812 3.867188 L 23.761719 3.867188 L 23.757812 3.867188 Z M 23.34375 4.105469 L 23.671875 3.785156 L 23.761719 3.867188 L 23.429688 4.1875 L 23.324219 4.15625 Z M 23.429688 4.1875 L 23.34375 4.273438 L 23.324219 4.15625 Z M 23.375 3.648438 L 23.445312 4.136719 L 23.324219 4.15625 L 23.253906 3.664062 Z M 23.375 3.648438 L 23.375 3.640625 Z M 23.253906 3.664062 L 23.328125 3.570312 L 23.332031 3.574219 L 23.335938 3.574219 L 23.335938 3.578125 L 23.339844 3.582031 L 23.34375 3.582031 L 23.347656 3.585938 L 23.347656 3.589844 L 23.351562 3.59375 L 23.355469 3.601562 L 23.359375 3.601562 L 23.363281 3.605469 L 23.359375 3.605469 L 23.363281 3.613281 L 23.367188 3.617188 L 23.363281 3.613281 L 23.367188 3.617188 L 23.367188 3.621094 L 23.371094 3.628906 L 23.371094 3.632812 L 23.375 3.636719 L 23.375 3.648438 L 23.253906 3.667969 L 23.253906 3.664062 L 23.253906 3.667969 L 23.253906 3.664062 L 23.253906 3.667969 L 23.253906 3.664062 L 23.253906 3.667969 L 23.253906 3.664062 L 23.253906 3.667969 L 23.253906 3.664062 L 23.257812 3.667969 L 23.253906 3.664062 L 23.253906 3.667969 L 23.253906 3.664062 L 23.257812 3.667969 L 23.253906 3.664062 L 23.257812 3.667969 L 23.253906 3.667969 L 23.253906 3.664062 L 23.253906 3.667969 Z M 23.328125 3.570312 L 23.320312 3.566406 Z M 23.257812 3.667969 L 23.238281 3.550781 L 23.238281 3.546875 L 23.265625 3.546875 L 23.273438 3.550781 L 23.289062 3.550781 L 23.292969 3.554688 L 23.300781 3.554688 L 23.304688 3.558594 L 23.3125 3.558594 L 23.3125 3.5625 L 23.316406 3.5625 L 23.320312 3.566406 L 23.324219 3.566406 L 23.328125 3.570312 L 23.253906 3.664062 L 23.257812 3.667969 L 23.253906 3.664062 L 23.257812 3.667969 L 23.253906 3.667969 L 23.257812 3.667969 L 23.253906 3.667969 L 23.253906 3.664062 L 23.257812 3.667969 L 23.253906 3.664062 L 23.253906 3.667969 L 23.257812 3.667969 L 23.253906 3.667969 L 23.257812 3.667969 L 23.253906 3.667969 L 23.257812 3.667969 L 23.253906 3.667969 L 23.257812 3.667969 L 23.253906 3.667969 Z M 23.238281 3.550781 L 23.238281 3.546875 L 23.25 3.546875 Z M 23.046875 3.574219 L 23.238281 3.550781 L 23.257812 3.667969 L 23.0625 3.691406 Z M 23.0625 3.691406 L 23.070312 3.691406 Z M 23.066406 3.691406 L 22.945312 3.707031 L 22.941406 3.703125 L 22.941406 3.683594 L 22.945312 3.679688 L 22.945312 3.660156 L 22.949219 3.65625 L 22.949219 3.648438 L 22.953125 3.644531 L 22.953125 3.640625 L 22.957031 3.636719 L 22.960938 3.628906 L 22.96875 3.621094 L 22.96875 3.617188 L 22.976562 3.609375 L 22.984375 3.605469 L 23 3.589844 L 23.007812 3.585938 L 23.011719 3.585938 L 23.015625 3.582031 L 23.023438 3.582031 L 23.027344 3.578125 L 23.035156 3.578125 L 23.042969 3.574219 L 23.046875 3.574219 L 23.0625 3.691406 L 23.066406 3.691406 L 23.0625 3.691406 L 23.066406 3.691406 L 23.0625 3.691406 L 23.066406 3.691406 L 23.0625 3.691406 L 23.066406 3.691406 L 23.0625 3.691406 L 23.066406 3.691406 L 23.0625 3.691406 L 23.066406 3.691406 L 23.066406 3.6875 Z M 23.066406 3.691406 L 23.0625 3.683594 Z M 23.046875 4.421875 L 22.945312 3.707031 L 23.066406 3.691406 L 23.167969 4.40625 L 23.152344 4.457031 Z M 23.167969 4.40625 L 23.171875 4.433594 L 23.152344 4.457031 Z M 22.738281 4.6875 L 23.066406 4.371094 L 23.152344 4.457031 L 22.824219 4.773438 Z M 22.394531 5.019531 L 22.738281 4.6875 L 22.824219 4.773438 L 22.480469 5.105469 L 22.414062 5.117188 Z M 22.480469 5.105469 L 22.453125 5.132812 L 22.414062 5.117188 Z M 21.347656 4.5625 L 22.460938 5.007812 L 22.414062 5.117188 L 21.300781 4.671875 L 21.261719 4.617188 Z M 21.300781 4.671875 L 21.261719 4.65625 L 21.261719 4.617188 Z M 21.386719 4.082031 L 21.386719 4.617188 L 21.261719 4.617188 L 21.261719 4.082031 L 21.324219 4.023438 Z M 21.324219 4.023438 L 21.386719 4.023438 L 21.386719 4.082031 Z M 21.308594 4.023438 L 21.324219 4.023438 L 21.324219 4.140625 L 21.308594 4.140625 L 21.246094 4.082031 Z M 21.308594 4.140625 L 21.246094 4.140625 L 21.246094 4.082031 Z M 21.367188 3.675781 L 21.367188 4.082031 L 21.246094 4.082031 L 21.246094 3.675781 L 21.269531 3.628906 Z M 21.246094 3.675781 L 21.246094 3.644531 L 21.269531 3.628906 Z M 21.941406 3.285156 L 21.34375 3.722656 L 21.269531 3.628906 L 21.867188 3.191406 Z M 21.941406 3.285156 L 21.949219 3.28125 Z M 21.867188 3.195312 L 21.964844 3.121094 L 21.96875 3.125 L 21.972656 3.132812 L 21.972656 3.136719 L 21.976562 3.140625 L 21.980469 3.148438 L 21.980469 3.152344 L 21.984375 3.15625 L 21.984375 3.164062 L 21.988281 3.167969 L 21.988281 3.214844 L 21.984375 3.21875 L 21.984375 3.230469 L 21.980469 3.234375 L 21.976562 3.242188 L 21.976562 3.246094 L 21.972656 3.25 L 21.96875 3.257812 L 21.960938 3.265625 L 21.960938 3.269531 L 21.957031 3.273438 L 21.949219 3.277344 L 21.941406 3.285156 L 21.867188 3.191406 L 21.867188 3.195312 L 21.867188 3.191406 L 21.867188 3.195312 L 21.867188 3.191406 L 21.867188 3.195312 L 21.867188 3.191406 L 21.867188 3.195312 L 21.867188 3.191406 L 21.867188 3.195312 L 21.867188 3.191406 Z M 21.867188 3.195312 L 21.855469 3.179688 Z M 21.847656 2.972656 L 21.964844 3.121094 L 21.867188 3.195312 L 21.75 3.042969 Z M 21.75 3.042969 L 21.75 3.046875 Z M 21.75 3.042969 L 21.769531 2.925781 L 21.777344 2.929688 L 21.785156 2.929688 L 21.789062 2.933594 L 21.796875 2.933594 L 21.800781 2.9375 L 21.804688 2.9375 L 21.808594 2.941406 L 21.8125 2.941406 L 21.816406 2.945312 L 21.8125 2.941406 L 21.816406 2.945312 L 21.824219 2.949219 L 21.824219 2.953125 L 21.828125 2.953125 L 21.847656 2.972656 L 21.75 3.042969 L 21.746094 3.042969 L 21.75 3.046875 L 21.75 3.042969 L 21.753906 3.046875 L 21.75 3.046875 L 21.75 3.042969 L 21.746094 3.042969 L 21.75 3.046875 L 21.753906 3.046875 L 21.75 3.042969 L 21.753906 3.046875 L 21.746094 3.042969 L 21.75 3.042969 L 21.753906 3.046875 L 21.75 3.046875 L 21.75 3.042969 L 21.75 3.046875 L 21.75 3.042969 L 21.75 3.046875 Z M 21.769531 2.925781 L 21.777344 2.929688 Z M 21.75 3.042969 L 21.679688 2.949219 L 21.675781 2.949219 L 21.679688 2.949219 L 21.679688 2.945312 L 21.683594 2.945312 L 21.6875 2.941406 L 21.691406 2.941406 L 21.695312 2.9375 L 21.699219 2.9375 L 21.703125 2.933594 L 21.710938 2.933594 L 21.714844 2.929688 L 21.726562 2.929688 L 21.730469 2.925781 L 21.769531 2.925781 L 21.75 3.042969 L 21.753906 3.042969 L 21.75 3.042969 L 21.75 3.046875 L 21.753906 3.042969 L 21.75 3.046875 L 21.753906 3.042969 L 21.75 3.042969 L 21.753906 3.042969 L 21.75 3.042969 L 21.753906 3.042969 L 21.75 3.042969 L 21.753906 3.042969 L 21.75 3.042969 L 21.753906 3.042969 Z M 21.753906 3.042969 L 21.75 3.042969 L 21.746094 3.046875 Z M 21.269531 3.246094 L 21.679688 2.949219 L 21.75 3.042969 L 21.34375 3.34375 L 21.246094 3.292969 Z M 21.34375 3.34375 L 21.246094 3.414062 L 21.246094 3.292969 Z M 21.367188 2.824219 L 21.367188 3.292969 L 21.246094 3.292969 L 21.246094 2.824219 Z M 21.246094 2.824219 L 21.246094 2.707031 L 21.265625 2.707031 L 21.269531 2.710938 L 21.28125 2.710938 L 21.289062 2.714844 L 21.292969 2.714844 L 21.300781 2.71875 L 21.304688 2.722656 L 21.308594 2.722656 L 21.316406 2.730469 L 21.324219 2.734375 L 21.335938 2.746094 L 21.339844 2.746094 L 21.34375 2.753906 L 21.347656 2.757812 L 21.347656 2.761719 L 21.351562 2.765625 L 21.355469 2.773438 L 21.359375 2.777344 L 21.359375 2.785156 L 21.363281 2.789062 L 21.363281 2.792969 L 21.367188 2.800781 L 21.367188 2.824219 L 21.246094 2.824219 L 21.246094 2.828125 L 21.246094 2.824219 L 21.246094 2.828125 Z M 21.054688 2.707031 L 21.246094 2.707031 L 21.246094 2.824219 L 21.054688 2.824219 Z M 21.054688 2.824219 L 20.933594 2.824219 L 20.933594 2.800781 L 20.9375 2.792969 L 20.9375 2.785156 L 20.941406 2.777344 L 20.945312 2.773438 L 20.945312 2.765625 L 20.953125 2.761719 L 20.953125 2.757812 L 20.964844 2.746094 L 20.96875 2.738281 L 20.972656 2.738281 L 20.984375 2.726562 L 20.992188 2.722656 L 20.996094 2.722656 L 21 2.71875 L 21.007812 2.714844 L 21.011719 2.714844 L 21.015625 2.710938 L 21.03125 2.710938 L 21.035156 2.707031 L 21.054688 2.707031 L 21.054688 2.824219 L 21.050781 2.824219 L 21.054688 2.824219 L 21.054688 2.828125 Z M 20.933594 3.292969 L 20.933594 2.824219 L 21.054688 2.824219 L 21.054688 3.292969 L 20.957031 3.34375 Z M 21.054688 3.292969 L 21.054688 3.414062 L 20.957031 3.34375 Z M 20.621094 2.949219 L 21.03125 3.246094 L 20.957031 3.34375 L 20.546875 3.042969 Z M 20.546875 3.042969 Z M 20.550781 3.042969 L 20.53125 2.925781 L 20.566406 2.925781 L 20.570312 2.929688 L 20.582031 2.929688 L 20.585938 2.933594 L 20.597656 2.933594 L 20.597656 2.9375 L 20.605469 2.9375 L 20.605469 2.941406 L 20.605469 2.9375 L 20.613281 2.945312 L 20.617188 2.945312 L 20.621094 2.949219 L 20.546875 3.042969 L 20.550781 3.042969 L 20.546875 3.042969 L 20.550781 3.046875 L 20.546875 3.042969 L 20.550781 3.046875 L 20.550781 3.042969 L 20.546875 3.042969 L 20.550781 3.046875 L 20.546875 3.042969 L 20.550781 3.046875 L 20.550781 3.042969 L 20.550781 3.046875 L 20.546875 3.042969 L 20.550781 3.046875 L 20.546875 3.042969 L 20.550781 3.046875 L 20.546875 3.046875 L 20.550781 3.042969 L 20.550781 3.046875 L 20.546875 3.046875 L 20.550781 3.042969 L 20.550781 3.046875 Z M 20.53125 2.925781 L 20.523438 2.929688 Z M 20.550781 3.042969 L 20.453125 2.972656 L 20.453125 2.96875 L 20.457031 2.96875 L 20.457031 2.964844 L 20.460938 2.964844 L 20.476562 2.949219 L 20.484375 2.945312 L 20.488281 2.941406 L 20.484375 2.945312 L 20.492188 2.9375 L 20.5 2.9375 L 20.496094 2.9375 L 20.503906 2.933594 L 20.511719 2.933594 L 20.515625 2.929688 L 20.53125 2.929688 L 20.53125 2.925781 L 20.550781 3.046875 L 20.546875 3.046875 L 20.550781 3.042969 L 20.546875 3.046875 L 20.550781 3.042969 L 20.546875 3.046875 L 20.550781 3.042969 L 20.550781 3.046875 L 20.546875 3.046875 L 20.550781 3.042969 L 20.546875 3.046875 L 20.550781 3.046875 L 20.554688 3.042969 L 20.550781 3.042969 L 20.546875 3.046875 L 20.550781 3.042969 L 20.546875 3.046875 L 20.550781 3.042969 L 20.546875 3.046875 L 20.550781 3.042969 L 20.550781 3.046875 L 20.546875 3.046875 L 20.550781 3.042969 L 20.550781 3.046875 Z M 20.453125 2.972656 Z M 20.335938 3.121094 L 20.453125 2.972656 L 20.550781 3.042969 L 20.433594 3.195312 Z M 20.335938 3.121094 L 20.390625 3.050781 Z M 20.433594 3.191406 L 20.359375 3.285156 L 20.351562 3.277344 L 20.34375 3.273438 L 20.34375 3.269531 L 20.332031 3.257812 L 20.328125 3.25 L 20.324219 3.246094 L 20.324219 3.242188 L 20.320312 3.234375 L 20.316406 3.230469 L 20.316406 3.222656 L 20.3125 3.214844 L 20.3125 3.171875 L 20.316406 3.164062 L 20.316406 3.160156 L 20.320312 3.152344 L 20.320312 3.148438 L 20.324219 3.144531 L 20.324219 3.136719 L 20.332031 3.128906 L 20.335938 3.121094 L 20.433594 3.195312 L 20.433594 3.191406 L 20.433594 3.195312 L 20.433594 3.191406 L 20.433594 3.195312 L 20.433594 3.191406 L 20.433594 3.195312 L 20.433594 3.191406 L 20.433594 3.195312 Z M 20.359375 3.285156 L 20.367188 3.292969 Z M 20.957031 3.722656 L 20.359375 3.285156 L 20.433594 3.191406 L 21.03125 3.625 L 21.054688 3.675781 Z M 21.03125 3.625 L 21.054688 3.644531 L 21.054688 3.675781 Z M 20.933594 4.589844 L 20.933594 3.671875 L 21.054688 3.671875 L 21.054688 4.589844 L 21.015625 4.644531 Z M 21.054688 4.589844 L 21.054688 4.628906 L 21.015625 4.644531 Z M 19.855469 4.980469 L 20.96875 4.535156 L 21.015625 4.644531 L 19.902344 5.089844 L 19.835938 5.078125 Z M 19.902344 5.089844 L 19.867188 5.105469 L 19.835938 5.078125 Z M 19.578125 4.664062 L 19.921875 4.996094 L 19.835938 5.078125 L 19.492188 4.746094 Z M 19.253906 4.347656 L 19.578125 4.664062 L 19.492188 4.746094 L 19.164062 4.429688 L 19.148438 4.382812 Z M 19.164062 4.429688 L 19.144531 4.410156 L 19.148438 4.382812 Z M 19.375 3.683594 L 19.269531 4.398438 L 19.148438 4.382812 L 19.253906 3.664062 Z M 19.375 3.683594 L 19.371094 3.6875 Z M 19.253906 3.667969 L 19.269531 3.550781 L 19.285156 3.550781 L 19.289062 3.554688 L 19.292969 3.554688 L 19.300781 3.558594 L 19.304688 3.558594 L 19.3125 3.5625 L 19.316406 3.566406 L 19.324219 3.570312 L 19.328125 3.574219 L 19.335938 3.578125 L 19.347656 3.589844 L 19.347656 3.59375 L 19.359375 3.605469 L 19.359375 3.609375 L 19.363281 3.613281 L 19.363281 3.621094 L 19.367188 3.625 L 19.367188 3.628906 L 19.371094 3.636719 L 19.371094 3.640625 L 19.375 3.648438 L 19.375 3.683594 L 19.253906 3.664062 L 19.253906 3.667969 L 19.253906 3.664062 L 19.253906 3.667969 L 19.253906 3.664062 L 19.253906 3.667969 L 19.25 3.664062 L 19.253906 3.664062 L 19.253906 3.667969 L 19.25 3.664062 L 19.253906 3.664062 L 19.253906 3.667969 L 19.25 3.664062 L 19.253906 3.667969 L 19.25 3.664062 L 19.253906 3.667969 L 19.25 3.667969 Z M 19.269531 3.550781 L 19.273438 3.550781 Z M 19.078125 3.523438 L 19.269531 3.550781 L 19.253906 3.667969 L 19.0625 3.640625 Z M 19.0625 3.640625 L 18.988281 3.546875 L 18.996094 3.539062 L 19 3.539062 L 19.003906 3.535156 L 19.007812 3.535156 L 19.011719 3.53125 L 19.019531 3.53125 L 19.023438 3.527344 L 19.03125 3.527344 L 19.035156 3.523438 L 19.078125 3.523438 L 19.0625 3.640625 L 19.058594 3.640625 L 19.0625 3.640625 L 19.058594 3.640625 L 19.0625 3.640625 L 19.058594 3.640625 L 19.0625 3.640625 L 19.058594 3.640625 L 19.0625 3.640625 L 19.058594 3.640625 L 19.0625 3.640625 L 19.058594 3.640625 L 19.0625 3.640625 L 19.058594 3.640625 Z M 18.988281 3.546875 L 18.996094 3.539062 Z M 19.0625 3.640625 L 18.941406 3.625 L 18.941406 3.613281 L 18.945312 3.613281 L 18.945312 3.601562 L 18.953125 3.585938 L 18.953125 3.582031 L 18.957031 3.582031 L 18.957031 3.578125 L 18.960938 3.578125 L 18.960938 3.574219 L 18.972656 3.5625 L 18.972656 3.558594 L 18.976562 3.558594 L 18.976562 3.554688 L 18.980469 3.554688 L 18.980469 3.550781 L 18.984375 3.546875 L 18.988281 3.546875 L 19.0625 3.640625 L 19.0625 3.636719 L 19.0625 3.644531 L 19.0625 3.636719 L 19.0625 3.640625 L 19.0625 3.636719 L 19.0625 3.640625 L 19.0625 3.636719 Z M 19.0625 3.640625 L 19.066406 3.628906 Z M 18.871094 4.113281 L 18.941406 3.625 L 19.0625 3.640625 L 18.992188 4.128906 L 18.886719 4.164062 Z M 18.992188 4.128906 L 18.976562 4.246094 L 18.886719 4.164062 Z M 18.644531 3.757812 L 18.972656 4.078125 L 18.886719 4.164062 L 18.558594 3.84375 Z M 18.558594 3.84375 L 18.472656 3.757812 L 18.484375 3.746094 L 18.492188 3.742188 L 18.496094 3.738281 L 18.5 3.738281 L 18.503906 3.734375 L 18.511719 3.734375 L 18.519531 3.730469 L 18.523438 3.730469 L 18.527344 3.726562 L 18.585938 3.726562 L 18.589844 3.730469 L 18.597656 3.730469 L 18.601562 3.734375 L 18.609375 3.734375 L 18.617188 3.742188 L 18.625 3.742188 L 18.628906 3.746094 L 18.636719 3.75 L 18.644531 3.757812 L 18.558594 3.84375 L 18.554688 3.84375 L 18.558594 3.84375 L 18.554688 3.84375 L 18.558594 3.84375 L 18.554688 3.84375 L 18.558594 3.84375 L 18.558594 3.839844 Z M 18.558594 3.84375 Z M 18.335938 3.890625 L 18.472656 3.757812 L 18.558594 3.84375 L 18.421875 3.976562 Z M 18.421875 3.972656 L 18.335938 4.054688 L 18.320312 4.039062 L 18.316406 4.03125 L 18.3125 4.027344 L 18.3125 4.023438 L 18.308594 4.015625 L 18.304688 4.011719 L 18.304688 4 L 18.300781 3.996094 L 18.300781 3.953125 L 18.304688 3.945312 L 18.304688 3.9375 L 18.308594 3.929688 L 18.3125 3.925781 L 18.3125 3.917969 L 18.316406 3.914062 L 18.320312 3.90625 L 18.324219 3.902344 L 18.328125 3.902344 L 18.332031 3.894531 L 18.335938 3.890625 L 18.421875 3.976562 L 18.421875 3.972656 L 18.421875 3.976562 L 18.421875 3.972656 L 18.421875 3.976562 L 18.421875 3.972656 L 18.421875 3.976562 L 18.421875 3.972656 L 18.421875 3.976562 L 18.421875 3.972656 L 18.421875 3.976562 Z M 18.667969 4.375 L 18.335938 4.054688 L 18.421875 3.972656 L 18.753906 4.292969 L 18.71875 4.394531 Z M 18.753906 4.292969 L 18.839844 4.375 L 18.71875 4.394531 Z M 18.195312 4.34375 L 18.699219 4.277344 L 18.71875 4.394531 L 18.210938 4.460938 Z M 18.195312 4.34375 L 18.183594 4.347656 Z M 18.214844 4.460938 L 18.113281 4.394531 L 18.117188 4.390625 L 18.117188 4.386719 L 18.132812 4.371094 L 18.136719 4.371094 L 18.136719 4.367188 L 18.140625 4.367188 L 18.144531 4.363281 L 18.152344 4.359375 L 18.148438 4.359375 L 18.15625 4.359375 L 18.160156 4.355469 L 18.164062 4.355469 L 18.160156 4.355469 L 18.164062 4.351562 L 18.175781 4.351562 L 18.175781 4.347656 L 18.1875 4.347656 L 18.191406 4.34375 L 18.195312 4.34375 L 18.214844 4.460938 L 18.210938 4.460938 L 18.214844 4.460938 L 18.210938 4.460938 L 18.214844 4.460938 L 18.210938 4.460938 L 18.210938 4.464844 L 18.214844 4.460938 L 18.210938 4.464844 L 18.214844 4.460938 L 18.210938 4.460938 L 18.210938 4.464844 L 18.214844 4.460938 L 18.210938 4.460938 L 18.214844 4.460938 L 18.210938 4.460938 L 18.210938 4.464844 L 18.210938 4.460938 L 18.214844 4.460938 L 18.210938 4.460938 L 18.214844 4.460938 L 18.210938 4.460938 L 18.210938 4.464844 L 18.210938 4.460938 Z M 18.113281 4.394531 L 18.117188 4.390625 Z M 18.214844 4.460938 L 18.089844 4.476562 L 18.089844 4.453125 L 18.09375 4.445312 L 18.09375 4.433594 L 18.097656 4.425781 L 18.097656 4.417969 L 18.101562 4.414062 L 18.105469 4.40625 L 18.105469 4.402344 L 18.113281 4.394531 L 18.214844 4.460938 L 18.214844 4.457031 L 18.214844 4.460938 L 18.214844 4.457031 L 18.214844 4.460938 L 18.210938 4.464844 L 18.214844 4.460938 L 18.210938 4.460938 L 18.214844 4.457031 L 18.214844 4.460938 L 18.210938 4.464844 L 18.214844 4.460938 L 18.214844 4.464844 L 18.214844 4.460938 L 18.214844 4.464844 L 18.214844 4.460938 L 18.214844 4.464844 L 18.214844 4.460938 L 18.214844 4.464844 Z M 18.089844 4.476562 L 18.089844 4.46875 Z M 18.117188 4.664062 L 18.089844 4.476562 L 18.214844 4.460938 L 18.242188 4.648438 Z M 18.242188 4.648438 L 18.242188 4.664062 Z M 18.238281 4.644531 L 18.257812 4.761719 L 18.210938 4.761719 L 18.203125 4.757812 L 18.195312 4.757812 L 18.1875 4.75 L 18.183594 4.75 L 18.175781 4.746094 L 18.171875 4.742188 L 18.167969 4.742188 L 18.15625 4.730469 L 18.152344 4.730469 L 18.148438 4.726562 L 18.144531 4.71875 L 18.132812 4.707031 L 18.132812 4.703125 L 18.128906 4.695312 L 18.128906 4.691406 L 18.125 4.6875 L 18.121094 4.679688 L 18.121094 4.667969 L 18.117188 4.664062 L 18.242188 4.648438 L 18.242188 4.644531 L 18.238281 4.644531 L 18.242188 4.644531 L 18.238281 4.644531 L 18.242188 4.644531 L 18.238281 4.644531 L 18.242188 4.644531 L 18.238281 4.644531 L 18.242188 4.644531 L 18.238281 4.644531 L 18.242188 4.644531 Z M 18.238281 4.644531 L 18.230469 4.644531 Z M 18.996094 4.660156 L 18.257812 4.761719 L 18.238281 4.644531 L 18.976562 4.542969 L 19.03125 4.5625 Z M 18.976562 4.542969 L 19.007812 4.539062 L 19.03125 4.5625 Z M 19.492188 5.175781 L 18.945312 4.644531 L 19.03125 4.5625 L 19.578125 5.089844 Z M 19.492188 5.175781 L 19.546875 5.230469 Z M 19.613281 5.292969 L 19.492188 5.175781 L 19.578125 5.089844 L 19.699219 5.210938 L 19.714844 5.273438 Z M 19.699219 5.210938 L 19.730469 5.238281 L 19.714844 5.273438 Z M 19.480469 5.511719 L 19.601562 5.226562 L 19.714844 5.273438 L 19.59375 5.558594 Z M 19.140625 6.304688 L 19.480469 5.511719 L 19.59375 5.558594 L 19.253906 6.351562 L 19.195312 6.386719 Z M 19.253906 6.351562 L 19.238281 6.386719 L 19.195312 6.386719 Z M 18.25 6.269531 L 19.195312 6.269531 L 19.195312 6.386719 L 18.25 6.386719 L 18.199219 6.363281 Z M 18.25 6.386719 L 18.21875 6.386719 L 18.199219 6.363281 Z M 17.847656 5.714844 L 18.296875 6.292969 L 18.199219 6.363281 L 17.75 5.789062 Z M 17.75 5.789062 Z M 17.75 5.789062 L 17.679688 5.691406 L 17.675781 5.691406 L 17.683594 5.6875 L 17.6875 5.6875 L 17.691406 5.683594 L 17.699219 5.679688 L 17.703125 5.679688 L 17.710938 5.675781 L 17.714844 5.675781 L 17.722656 5.671875 L 17.738281 5.671875 L 17.746094 5.667969 L 17.753906 5.667969 L 17.761719 5.671875 L 17.777344 5.671875 L 17.785156 5.675781 L 17.792969 5.675781 L 17.796875 5.679688 L 17.800781 5.679688 L 17.804688 5.683594 L 17.8125 5.6875 L 17.816406 5.6875 L 17.824219 5.691406 L 17.828125 5.695312 L 17.828125 5.699219 L 17.835938 5.703125 L 17.84375 5.710938 L 17.847656 5.71875 L 17.75 5.785156 L 17.75 5.789062 L 17.746094 5.785156 L 17.75 5.785156 L 17.75 5.789062 L 17.753906 5.789062 Z M 17.753906 5.789062 L 17.75 5.789062 L 17.761719 5.78125 Z M 17.523438 5.804688 L 17.675781 5.691406 L 17.75 5.789062 L 17.597656 5.902344 Z M 17.597656 5.902344 L 17.605469 5.894531 Z M 17.597656 5.898438 L 17.5 5.96875 L 17.492188 5.960938 L 17.488281 5.953125 L 17.488281 5.949219 L 17.484375 5.945312 L 17.480469 5.9375 L 17.480469 5.929688 L 17.476562 5.921875 L 17.476562 5.910156 L 17.472656 5.90625 L 17.472656 5.894531 L 17.476562 5.886719 L 17.476562 5.871094 L 17.480469 5.867188 L 17.480469 5.863281 L 17.484375 5.855469 L 17.484375 5.851562 L 17.488281 5.84375 L 17.492188 5.839844 L 17.492188 5.835938 L 17.5 5.828125 L 17.503906 5.820312 L 17.507812 5.820312 L 17.511719 5.8125 L 17.519531 5.808594 L 17.523438 5.804688 L 17.597656 5.902344 L 17.59375 5.902344 L 17.597656 5.898438 L 17.597656 5.902344 L 17.597656 5.898438 L 17.597656 5.902344 L 17.597656 5.898438 L 17.597656 5.902344 L 17.597656 5.898438 L 17.597656 5.902344 L 17.597656 5.898438 L 17.597656 5.902344 L 17.597656 5.898438 L 17.597656 5.902344 Z M 17.597656 5.898438 L 17.589844 5.890625 Z M 17.804688 6.363281 L 17.5 5.96875 L 17.597656 5.898438 L 17.90625 6.292969 L 17.855469 6.386719 Z M 17.90625 6.292969 L 17.980469 6.386719 L 17.855469 6.386719 Z M 17.386719 6.269531 L 17.855469 6.269531 L 17.855469 6.386719 L 17.386719 6.386719 Z M 17.386719 6.386719 L 17.265625 6.386719 L 17.265625 6.371094 L 17.269531 6.363281 L 17.269531 6.355469 L 17.273438 6.351562 L 17.273438 6.347656 L 17.277344 6.339844 L 17.277344 6.335938 L 17.28125 6.328125 L 17.285156 6.328125 L 17.285156 6.324219 L 17.289062 6.316406 L 17.308594 6.296875 L 17.316406 6.292969 L 17.320312 6.289062 L 17.324219 6.289062 L 17.328125 6.285156 L 17.335938 6.28125 L 17.339844 6.277344 L 17.34375 6.277344 L 17.351562 6.273438 L 17.363281 6.273438 L 17.371094 6.269531 L 17.386719 6.269531 L 17.386719 6.386719 L 17.390625 6.386719 L 17.386719 6.386719 L 17.390625 6.386719 L 17.386719 6.386719 L 17.390625 6.386719 L 17.386719 6.390625 Z M 17.265625 6.574219 L 17.265625 6.386719 L 17.386719 6.386719 L 17.386719 6.574219 Z M 17.386719 6.574219 L 17.386719 6.691406 L 17.371094 6.691406 L 17.363281 6.6875 L 17.351562 6.6875 L 17.34375 6.683594 L 17.339844 6.683594 L 17.332031 6.675781 L 17.324219 6.675781 L 17.316406 6.671875 L 17.3125 6.667969 L 17.3125 6.664062 L 17.304688 6.660156 L 17.292969 6.648438 L 17.292969 6.644531 L 17.285156 6.640625 L 17.285156 6.632812 L 17.277344 6.625 L 17.277344 6.621094 L 17.273438 6.613281 L 17.273438 6.609375 L 17.269531 6.605469 L 17.269531 6.597656 L 17.265625 6.589844 L 17.265625 6.574219 L 17.390625 6.574219 L 17.386719 6.574219 L 17.386719 6.570312 L 17.390625 6.574219 L 17.386719 6.574219 L 17.390625 6.574219 Z M 17.855469 6.691406 L 17.386719 6.691406 L 17.386719 6.574219 L 17.855469 6.574219 L 17.90625 6.667969 Z M 17.855469 6.574219 L 17.980469 6.574219 L 17.90625 6.667969 Z M 17.5 6.992188 L 17.804688 6.597656 L 17.90625 6.667969 L 17.597656 7.0625 Z M 17.597656 7.0625 L 17.523438 7.15625 L 17.515625 7.152344 L 17.507812 7.144531 L 17.503906 7.136719 L 17.492188 7.125 L 17.492188 7.121094 L 17.488281 7.113281 L 17.484375 7.109375 L 17.484375 7.105469 L 17.480469 7.097656 L 17.480469 7.09375 L 17.476562 7.089844 L 17.476562 7.074219 L 17.472656 7.066406 L 17.472656 7.054688 L 17.476562 7.046875 L 17.476562 7.039062 L 17.480469 7.03125 L 17.480469 7.023438 L 17.488281 7.007812 L 17.488281 7.003906 L 17.5 6.992188 L 17.597656 7.0625 L 17.597656 7.058594 L 17.597656 7.0625 L 17.597656 7.058594 L 17.597656 7.0625 L 17.597656 7.058594 Z M 17.523438 7.15625 Z M 17.675781 7.269531 L 17.523438 7.15625 L 17.597656 7.0625 L 17.75 7.171875 L 17.679688 7.269531 Z M 17.679688 7.269531 L 17.675781 7.269531 L 17.695312 7.28125 Z M 17.75 7.171875 L 17.765625 7.289062 L 17.769531 7.289062 L 17.765625 7.289062 L 17.761719 7.292969 L 17.738281 7.292969 L 17.730469 7.289062 L 17.71875 7.289062 L 17.714844 7.285156 L 17.703125 7.285156 L 17.703125 7.28125 L 17.695312 7.28125 L 17.695312 7.277344 L 17.691406 7.277344 L 17.6875 7.273438 L 17.683594 7.273438 L 17.679688 7.269531 L 17.75 7.171875 L 17.75 7.175781 L 17.75 7.171875 L 17.753906 7.175781 L 17.75 7.171875 L 17.753906 7.175781 L 17.75 7.171875 L 17.746094 7.171875 L 17.753906 7.171875 L 17.746094 7.171875 L 17.75 7.171875 L 17.746094 7.171875 Z M 17.75 7.171875 Z M 17.75 7.171875 L 17.847656 7.246094 L 17.824219 7.269531 L 17.820312 7.269531 L 17.8125 7.277344 L 17.804688 7.277344 L 17.800781 7.28125 L 17.796875 7.28125 L 17.78125 7.289062 L 17.765625 7.289062 L 17.75 7.171875 L 17.753906 7.171875 L 17.75 7.171875 L 17.753906 7.171875 L 17.75 7.171875 L 17.753906 7.171875 L 17.75 7.171875 L 17.746094 7.175781 L 17.75 7.171875 L 17.753906 7.171875 L 17.75 7.171875 L 17.746094 7.175781 L 17.75 7.171875 L 17.753906 7.171875 L 17.75 7.171875 L 17.75 7.175781 L 17.75 7.171875 L 17.75 7.175781 L 17.75 7.171875 L 17.753906 7.171875 L 17.75 7.171875 L 17.75 7.175781 Z M 17.847656 7.246094 Z M 18.296875 6.667969 L 17.847656 7.246094 L 17.75 7.171875 L 18.199219 6.597656 L 18.246094 6.574219 Z M 18.199219 6.597656 L 18.21875 6.574219 L 18.246094 6.574219 Z M 19.195312 6.691406 L 18.246094 6.691406 L 18.246094 6.574219 L 19.195312 6.574219 L 19.253906 6.609375 Z M 19.195312 6.574219 L 19.238281 6.574219 L 19.253906 6.609375 Z M 19.480469 7.445312 L 19.140625 6.65625 L 19.253906 6.609375 L 19.59375 7.402344 Z M 19.601562 7.730469 L 19.480469 7.445312 L 19.59375 7.402344 L 19.714844 7.6875 L 19.699219 7.75 Z M 19.714844 7.6875 L 19.730469 7.722656 L 19.699219 7.75 Z M 19.492188 7.785156 L 19.613281 7.667969 L 19.699219 7.75 L 19.578125 7.871094 Z M 18.945312 8.316406 L 19.492188 7.785156 L 19.578125 7.871094 L 19.03125 8.398438 L 18.976562 8.417969 Z M 19.03125 8.398438 L 19.007812 8.421875 L 18.976562 8.417969 Z M 18.257812 8.199219 L 18.996094 8.300781 L 18.976562 8.417969 L 18.238281 8.316406 L 18.253906 8.199219 Z M 18.253906 8.199219 L 18.265625 8.199219 Z M 18.242188 8.316406 L 18.117188 8.296875 L 18.121094 8.292969 L 18.121094 8.28125 L 18.125 8.273438 L 18.125 8.269531 L 18.128906 8.265625 L 18.132812 8.257812 L 18.132812 8.253906 L 18.144531 8.242188 L 18.148438 8.234375 L 18.152344 8.230469 L 18.15625 8.230469 L 18.167969 8.21875 L 18.171875 8.21875 L 18.179688 8.210938 L 18.1875 8.207031 L 18.191406 8.207031 L 18.195312 8.203125 L 18.207031 8.203125 L 18.210938 8.199219 L 18.226562 8.199219 L 18.234375 8.195312 L 18.242188 8.195312 L 18.25 8.199219 L 18.253906 8.199219 L 18.238281 8.316406 L 18.242188 8.316406 L 18.238281 8.316406 L 18.242188 8.316406 L 18.238281 8.316406 L 18.242188 8.316406 L 18.238281 8.316406 L 18.242188 8.3125 L 18.238281 8.316406 L 18.242188 8.3125 L 18.242188 8.316406 L 18.242188 8.3125 Z M 18.242188 8.3125 L 18.242188 8.316406 L 18.242188 8.296875 Z M 18.089844 8.484375 L 18.117188 8.296875 L 18.242188 8.316406 L 18.214844 8.5 Z M 18.089844 8.484375 L 18.089844 8.492188 Z M 18.210938 8.5 L 18.113281 8.570312 L 18.109375 8.566406 L 18.109375 8.5625 L 18.105469 8.558594 L 18.105469 8.554688 L 18.101562 8.546875 L 18.097656 8.542969 L 18.097656 8.535156 L 18.09375 8.527344 L 18.09375 8.515625 L 18.089844 8.507812 L 18.089844 8.484375 L 18.214844 8.5 L 18.214844 8.496094 L 18.214844 8.5 L 18.214844 8.496094 L 18.214844 8.5 L 18.214844 8.496094 L 18.214844 8.5 L 18.210938 8.496094 L 18.214844 8.5 L 18.210938 8.496094 L 18.214844 8.5 L 18.210938 8.5 L 18.214844 8.5 L 18.210938 8.496094 L 18.214844 8.5 L 18.214844 8.503906 L 18.214844 8.5 L 18.214844 8.503906 L 18.214844 8.5 Z M 18.113281 8.570312 Z M 18.210938 8.5 L 18.195312 8.617188 L 18.191406 8.617188 L 18.1875 8.613281 L 18.175781 8.613281 L 18.167969 8.609375 L 18.164062 8.609375 L 18.160156 8.605469 L 18.15625 8.605469 L 18.148438 8.601562 L 18.152344 8.601562 L 18.148438 8.597656 L 18.144531 8.597656 L 18.140625 8.59375 L 18.136719 8.59375 L 18.136719 8.589844 L 18.132812 8.589844 L 18.113281 8.570312 L 18.210938 8.5 L 18.210938 8.496094 L 18.210938 8.5 L 18.214844 8.5 L 18.210938 8.5 L 18.214844 8.5 L 18.210938 8.5 L 18.214844 8.5 L 18.210938 8.5 L 18.214844 8.5 L 18.207031 8.496094 L 18.214844 8.5 L 18.207031 8.496094 L 18.214844 8.5 L 18.210938 8.5 L 18.214844 8.5 L 18.210938 8.5 L 18.214844 8.5 L 18.210938 8.5 L 18.214844 8.5 L 18.210938 8.5 L 18.214844 8.5 Z M 18.195312 8.617188 L 18.1875 8.613281 Z M 18.699219 8.683594 L 18.195312 8.617188 L 18.210938 8.5 L 18.71875 8.566406 L 18.753906 8.667969 Z M 18.71875 8.566406 L 18.839844 8.585938 L 18.753906 8.667969 Z M 18.335938 8.902344 L 18.667969 8.585938 L 18.753906 8.667969 L 18.421875 8.988281 L 18.335938 8.90625 Z M 18.335938 8.90625 L 18.335938 8.902344 Z M 18.421875 8.988281 L 18.335938 9.070312 L 18.324219 9.058594 L 18.320312 9.050781 L 18.3125 9.042969 L 18.3125 9.039062 L 18.304688 9.023438 L 18.304688 9.015625 L 18.300781 9.011719 L 18.300781 8.964844 L 18.304688 8.960938 L 18.304688 8.949219 L 18.308594 8.945312 L 18.3125 8.9375 L 18.3125 8.933594 L 18.316406 8.929688 L 18.320312 8.921875 L 18.335938 8.90625 L 18.421875 8.988281 L 18.421875 8.984375 L 18.421875 8.988281 L 18.421875 8.984375 L 18.421875 8.988281 L 18.421875 8.984375 L 18.421875 8.988281 L 18.421875 8.984375 L 18.421875 8.988281 L 18.421875 8.984375 Z M 18.421875 8.984375 L 18.421875 8.988281 Z M 18.472656 9.203125 L 18.335938 9.070312 L 18.421875 8.988281 L 18.558594 9.117188 Z M 18.558594 9.117188 L 18.644531 9.203125 L 18.636719 9.207031 L 18.625 9.21875 L 18.617188 9.222656 L 18.613281 9.222656 L 18.609375 9.226562 L 18.601562 9.230469 L 18.589844 9.230469 L 18.585938 9.234375 L 18.527344 9.234375 L 18.523438 9.230469 L 18.511719 9.230469 L 18.503906 9.226562 L 18.5 9.222656 L 18.496094 9.222656 L 18.492188 9.21875 L 18.484375 9.214844 L 18.472656 9.203125 L 18.558594 9.121094 L 18.558594 9.117188 L 18.554688 9.117188 L 18.558594 9.117188 L 18.554688 9.117188 L 18.558594 9.117188 L 18.558594 9.121094 Z M 18.644531 9.203125 Z M 18.972656 8.882812 L 18.644531 9.203125 L 18.558594 9.117188 L 18.886719 8.796875 L 18.992188 8.832031 Z M 18.886719 8.796875 L 18.976562 8.714844 L 18.992188 8.832031 Z M 18.941406 9.335938 L 18.871094 8.847656 L 18.992188 8.832031 L 19.0625 9.320312 Z M 19.0625 9.320312 L 19.0625 9.328125 Z M 19.0625 9.320312 L 18.988281 9.414062 L 18.984375 9.414062 L 18.976562 9.40625 L 18.976562 9.402344 L 18.972656 9.402344 L 18.972656 9.398438 L 18.96875 9.394531 L 18.964844 9.394531 L 18.964844 9.390625 L 18.964844 9.394531 L 18.960938 9.386719 L 18.953125 9.378906 L 18.953125 9.375 L 18.945312 9.359375 L 18.945312 9.347656 L 18.941406 9.347656 L 18.941406 9.335938 L 19.0625 9.320312 L 19.0625 9.324219 L 19.0625 9.320312 L 19.0625 9.324219 L 19.0625 9.320312 L 19.0625 9.324219 L 19.0625 9.320312 L 19.0625 9.324219 L 19.0625 9.320312 L 19.0625 9.324219 L 19.0625 9.320312 L 19.0625 9.324219 L 19.0625 9.320312 L 19.0625 9.324219 L 19.0625 9.320312 L 19.0625 9.324219 Z M 18.988281 9.414062 Z M 19.0625 9.320312 L 19.078125 9.4375 L 19.03125 9.4375 L 19.027344 9.433594 L 19.023438 9.433594 L 19.015625 9.429688 L 19.011719 9.429688 L 19.007812 9.425781 L 19.003906 9.425781 L 18.996094 9.421875 L 18.988281 9.414062 L 19.0625 9.320312 L 19.058594 9.320312 L 19.0625 9.320312 L 19.058594 9.320312 L 19.0625 9.320312 L 19.058594 9.320312 L 19.0625 9.320312 L 19.058594 9.320312 L 19.066406 9.320312 L 19.058594 9.320312 Z M 19.078125 9.4375 L 19.082031 9.4375 Z M 19.269531 9.410156 L 19.078125 9.4375 L 19.0625 9.320312 L 19.253906 9.292969 Z M 19.253906 9.292969 L 19.265625 9.292969 Z M 19.253906 9.296875 L 19.375 9.277344 L 19.375 9.3125 L 19.371094 9.320312 L 19.371094 9.328125 L 19.367188 9.332031 L 19.367188 9.335938 L 19.363281 9.339844 L 19.363281 9.347656 L 19.355469 9.355469 L 19.351562 9.363281 L 19.351562 9.367188 L 19.335938 9.382812 L 19.328125 9.386719 L 19.316406 9.398438 L 19.308594 9.398438 L 19.304688 9.402344 L 19.300781 9.402344 L 19.292969 9.40625 L 19.289062 9.40625 L 19.28125 9.410156 L 19.269531 9.410156 L 19.253906 9.292969 L 19.25 9.296875 L 19.253906 9.292969 L 19.25 9.296875 L 19.253906 9.292969 L 19.25 9.296875 L 19.253906 9.296875 L 19.25 9.296875 L 19.253906 9.292969 L 19.25 9.296875 L 19.253906 9.296875 L 19.253906 9.292969 L 19.253906 9.296875 L 19.25 9.296875 L 19.253906 9.292969 Z M 19.375 9.277344 L 19.371094 9.269531 Z M 19.269531 8.5625 L 19.375 9.277344 L 19.253906 9.296875 L 19.148438 8.582031 L 19.164062 8.53125 Z M 19.148438 8.582031 L 19.144531 8.550781 L 19.164062 8.53125 Z M 19.578125 8.296875 L 19.253906 8.613281 L 19.164062 8.53125 L 19.492188 8.214844 Z M 19.921875 7.964844 L 19.578125 8.296875 L 19.492188 8.214844 L 19.835938 7.882812 L 19.902344 7.867188 Z M 19.835938 7.882812 L 19.863281 7.855469 L 19.902344 7.867188 Z M 20.96875 8.425781 L 19.855469 7.976562 L 19.902344 7.867188 L 21.015625 8.316406 L 21.054688 8.371094 Z M 21.015625 8.316406 L 21.054688 8.328125 L 21.054688 8.371094 Z M 20.933594 9.285156 L 20.933594 8.371094 L 21.054688 8.371094 L 21.054688 9.285156 L 21.03125 9.335938 Z M 21.054688 9.285156 L 21.054688 9.316406 L 21.03125 9.335938 Z M 20.359375 9.675781 L 20.957031 9.238281 L 21.03125 9.335938 L 20.433594 9.769531 Z M 20.433594 9.769531 L 20.4375 9.765625 Z M 20.433594 9.765625 L 20.335938 9.839844 L 20.332031 9.832031 L 20.324219 9.824219 L 20.324219 9.816406 L 20.316406 9.808594 L 20.316406 9.796875 L 20.3125 9.789062 L 20.3125 9.746094 L 20.316406 9.738281 L 20.316406 9.730469 L 20.320312 9.722656 L 20.324219 9.71875 L 20.324219 9.714844 L 20.328125 9.707031 L 20.34375 9.691406 L 20.34375 9.6875 L 20.351562 9.683594 L 20.355469 9.675781 L 20.359375 9.675781 L 20.433594 9.769531 L 20.433594 9.765625 L 20.433594 9.769531 L 20.433594 9.765625 L 20.433594 9.769531 L 20.433594 9.765625 L 20.433594 9.769531 L 20.433594 9.765625 L 20.433594 9.769531 L 20.433594 9.765625 L 20.433594 9.769531 Z M 20.335938 9.839844 L 20.304688 9.796875 Z M 20.453125 9.988281 L 20.335938 9.839844 L 20.433594 9.765625 L 20.550781 9.917969 Z M 20.453125 9.988281 L 20.457031 9.992188 Z M 20.550781 9.917969 L 20.53125 10.035156 L 20.523438 10.03125 L 20.515625 10.03125 L 20.511719 10.027344 L 20.503906 10.027344 L 20.496094 10.023438 L 20.5 10.023438 L 20.492188 10.023438 L 20.484375 10.015625 L 20.488281 10.019531 L 20.484375 10.015625 L 20.476562 10.011719 L 20.472656 10.007812 L 20.46875 10.007812 L 20.464844 10.003906 L 20.464844 10 L 20.464844 10.003906 L 20.460938 9.996094 L 20.457031 9.996094 L 20.453125 9.992188 L 20.453125 9.988281 L 20.550781 9.914062 L 20.550781 9.917969 L 20.546875 9.914062 L 20.550781 9.917969 L 20.546875 9.914062 L 20.550781 9.917969 L 20.546875 9.914062 L 20.550781 9.917969 L 20.546875 9.914062 L 20.550781 9.917969 L 20.554688 9.917969 L 20.546875 9.917969 L 20.546875 9.914062 L 20.550781 9.917969 L 20.546875 9.914062 L 20.550781 9.914062 L 20.550781 9.917969 L 20.546875 9.914062 L 20.550781 9.917969 L 20.546875 9.917969 L 20.550781 9.917969 L 20.546875 9.914062 Z M 20.53125 10.035156 L 20.523438 10.03125 Z M 20.546875 9.917969 L 20.621094 10.011719 L 20.617188 10.015625 L 20.609375 10.019531 L 20.613281 10.015625 L 20.605469 10.019531 L 20.605469 10.023438 L 20.605469 10.019531 L 20.601562 10.023438 L 20.597656 10.023438 L 20.597656 10.027344 L 20.585938 10.027344 L 20.582031 10.03125 L 20.574219 10.03125 L 20.566406 10.035156 L 20.53125 10.035156 L 20.550781 9.917969 L 20.546875 9.917969 L 20.550781 9.917969 L 20.546875 9.917969 L 20.550781 9.917969 L 20.546875 9.917969 L 20.550781 9.917969 L 20.546875 9.917969 L 20.550781 9.917969 L 20.550781 9.914062 L 20.546875 9.917969 L 20.550781 9.914062 L 20.546875 9.917969 L 20.550781 9.917969 L 20.550781 9.914062 L 20.546875 9.917969 L 20.550781 9.914062 L 20.546875 9.917969 L 20.554688 9.914062 L 20.550781 9.914062 Z M 20.621094 10.011719 Z M 21.03125 9.714844 L 20.621094 10.011719 L 20.546875 9.917969 L 20.957031 9.621094 L 21.054688 9.667969 Z M 20.957031 9.621094 L 21.054688 9.546875 L 21.054688 9.667969 Z M 20.933594 10.136719 L 20.933594 9.667969 L 21.054688 9.667969 L 21.054688 10.136719 Z M 21.054688 10.136719 L 21.054688 10.253906 L 21.035156 10.253906 L 21.03125 10.25 L 21.015625 10.25 L 21.011719 10.246094 L 21.007812 10.246094 L 21 10.242188 L 20.996094 10.238281 L 20.988281 10.234375 L 20.984375 10.234375 L 20.980469 10.230469 L 20.972656 10.226562 L 20.972656 10.222656 L 20.96875 10.21875 L 20.960938 10.214844 L 20.960938 10.210938 L 20.949219 10.199219 L 20.945312 10.191406 L 20.945312 10.1875 L 20.941406 10.183594 L 20.9375 10.175781 L 20.9375 10.167969 L 20.933594 10.160156 L 20.933594 10.136719 L 21.054688 10.136719 L 21.054688 10.132812 L 21.054688 10.136719 L 21.054688 10.132812 L 21.054688 10.136719 L 21.050781 10.136719 L 21.054688 10.136719 L 21.050781 10.136719 Z M 21.246094 10.253906 L 21.054688 10.253906 L 21.054688 10.136719 L 21.246094 10.136719 Z M 21.246094 10.136719 L 21.367188 10.136719 L 21.367188 10.160156 L 21.363281 10.167969 L 21.363281 10.171875 L 21.359375 10.175781 L 21.359375 10.183594 L 21.351562 10.191406 L 21.347656 10.199219 L 21.347656 10.203125 L 21.324219 10.226562 L 21.316406 10.230469 L 21.3125 10.234375 L 21.308594 10.234375 L 21.300781 10.242188 L 21.292969 10.246094 L 21.289062 10.246094 L 21.28125 10.25 L 21.269531 10.25 L 21.265625 10.253906 L 21.246094 10.253906 L 21.246094 10.136719 L 21.242188 10.136719 L 21.246094 10.136719 L 21.242188 10.136719 Z M 21.367188 9.667969 L 21.367188 10.136719 L 21.246094 10.136719 L 21.246094 9.667969 L 21.34375 9.621094 Z M 21.246094 9.667969 L 21.246094 9.546875 L 21.34375 9.621094 Z M 21.675781 10.011719 L 21.269531 9.714844 L 21.34375 9.621094 L 21.75 9.917969 L 21.679688 10.011719 Z M 21.679688 10.011719 L 21.675781 10.011719 Z M 21.75 9.917969 L 21.769531 10.035156 L 21.730469 10.035156 L 21.726562 10.03125 L 21.71875 10.03125 L 21.714844 10.027344 L 21.703125 10.027344 L 21.703125 10.023438 L 21.695312 10.023438 L 21.691406 10.019531 L 21.6875 10.019531 L 21.683594 10.015625 L 21.6875 10.019531 L 21.679688 10.011719 L 21.75 9.914062 L 21.746094 9.914062 L 21.75 9.917969 L 21.75 9.914062 L 21.75 9.917969 L 21.75 9.914062 L 21.75 9.917969 L 21.753906 9.917969 L 21.75 9.917969 L 21.753906 9.917969 L 21.746094 9.914062 L 21.75 9.914062 L 21.753906 9.917969 L 21.75 9.917969 L 21.753906 9.917969 L 21.75 9.917969 L 21.753906 9.917969 Z M 21.769531 10.035156 L 21.765625 10.035156 L 21.777344 10.03125 Z M 21.75 9.917969 L 21.847656 9.988281 L 21.828125 10.007812 L 21.824219 10.007812 L 21.824219 10.011719 L 21.816406 10.015625 L 21.8125 10.019531 L 21.8125 10.015625 L 21.8125 10.019531 L 21.808594 10.019531 L 21.804688 10.023438 L 21.800781 10.023438 L 21.796875 10.027344 L 21.785156 10.027344 L 21.785156 10.03125 L 21.773438 10.03125 L 21.769531 10.035156 L 21.75 9.917969 L 21.746094 9.917969 L 21.75 9.917969 L 21.753906 9.914062 L 21.75 9.917969 L 21.746094 9.917969 L 21.753906 9.914062 L 21.75 9.914062 L 21.75 9.917969 L 21.753906 9.914062 L 21.75 9.917969 L 21.746094 9.917969 L 21.75 9.917969 L 21.75 9.914062 L 21.753906 9.914062 L 21.746094 9.921875 L 21.746094 9.917969 Z M 21.75 9.917969 L 21.75 9.914062 Z M 21.964844 9.839844 L 21.847656 9.988281 L 21.75 9.917969 L 21.867188 9.765625 Z M 21.867188 9.769531 L 21.941406 9.675781 L 21.945312 9.675781 L 21.949219 9.683594 L 21.96875 9.703125 L 21.972656 9.710938 L 21.976562 9.714844 L 21.976562 9.71875 L 21.980469 9.722656 L 21.980469 9.730469 L 21.984375 9.734375 L 21.984375 9.746094 L 21.988281 9.753906 L 21.988281 9.785156 L 21.984375 9.789062 L 21.984375 9.800781 L 21.980469 9.808594 L 21.980469 9.8125 L 21.976562 9.820312 L 21.96875 9.828125 L 21.96875 9.832031 L 21.964844 9.839844 L 21.867188 9.765625 L 21.863281 9.769531 L 21.867188 9.765625 L 21.867188 9.769531 L 21.867188 9.765625 L 21.867188 9.769531 L 21.867188 9.765625 L 21.867188 9.769531 L 21.867188 9.765625 L 21.867188 9.769531 L 21.867188 9.765625 L 21.863281 9.765625 L 21.867188 9.769531 L 21.863281 9.765625 Z M 21.867188 9.769531 L 21.859375 9.761719 Z M 21.34375 9.238281 L 21.941406 9.675781 L 21.867188 9.769531 L 21.269531 9.332031 L 21.246094 9.285156 Z M 21.269531 9.332031 L 21.246094 9.316406 L 21.246094 9.285156 Z M 21.367188 8.980469 L 21.367188 9.285156 L 21.246094 9.285156 L 21.246094 8.980469 L 21.304688 8.921875 Z M 21.246094 8.980469 L 21.246094 8.921875 L 21.304688 8.921875 Z M 21.324219 9.039062 L 21.304688 9.039062 L 21.304688 8.921875 L 21.324219 8.921875 L 21.386719 8.980469 Z M 21.386719 8.980469 L 21.386719 9.039062 L 21.324219 9.039062 Z M 21.386719 8.394531 L 21.386719 8.980469 L 21.261719 8.980469 L 21.261719 8.394531 L 21.300781 8.339844 Z M 21.261719 8.394531 L 21.261719 8.355469 L 21.300781 8.339844 Z M 22.460938 8.003906 L 21.347656 8.449219 L 21.300781 8.339844 L 22.414062 7.894531 L 22.480469 7.90625 Z M 22.414062 7.894531 L 22.453125 7.878906 L 22.480469 7.90625 Z M 22.738281 8.324219 L 22.394531 7.992188 L 22.480469 7.90625 L 22.824219 8.238281 Z M 22.738281 8.324219 Z M 23.066406 8.640625 L 22.738281 8.324219 L 22.824219 8.238281 L 23.152344 8.554688 L 23.167969 8.605469 Z M 23.152344 8.554688 L 23.171875 8.578125 L 23.167969 8.605469 Z M 22.945312 9.304688 L 23.046875 8.589844 L 23.167969 8.605469 L 23.066406 9.320312 Z M 23.066406 9.320312 Z M 23.0625 9.320312 L 23.046875 9.4375 L 23.039062 9.4375 L 23.035156 9.433594 L 23.027344 9.433594 L 23.023438 9.429688 L 23.015625 9.429688 L 23.011719 9.425781 L 23.007812 9.425781 L 23 9.421875 L 22.988281 9.410156 L 22.980469 9.40625 L 22.964844 9.390625 L 22.964844 9.386719 L 22.960938 9.382812 L 22.957031 9.375 L 22.953125 9.371094 L 22.953125 9.367188 L 22.949219 9.363281 L 22.949219 9.355469 L 22.945312 9.351562 L 22.945312 9.339844 L 22.941406 9.332031 L 22.941406 9.304688 L 23.066406 9.320312 L 23.0625 9.320312 L 23.066406 9.320312 L 23.0625 9.320312 L 23.066406 9.320312 L 23.0625 9.320312 L 23.066406 9.320312 L 23.0625 9.320312 L 23.066406 9.320312 L 23.0625 9.320312 L 23.066406 9.320312 Z M 23.046875 9.4375 Z M 23.238281 9.464844 L 23.046875 9.4375 L 23.0625 9.320312 L 23.253906 9.347656 Z M 23.253906 9.347656 Z M 23.253906 9.347656 L 23.328125 9.441406 L 23.320312 9.445312 L 23.3125 9.453125 L 23.308594 9.453125 L 23.3125 9.453125 L 23.308594 9.453125 L 23.300781 9.457031 L 23.292969 9.457031 L 23.292969 9.460938 L 23.28125 9.460938 L 23.273438 9.464844 L 23.246094 9.464844 L 23.25 9.464844 L 23.238281 9.464844 L 23.253906 9.347656 L 23.257812 9.347656 L 23.253906 9.347656 L 23.25 9.34375 L 23.257812 9.347656 L 23.253906 9.347656 L 23.257812 9.34375 L 23.253906 9.347656 L 23.257812 9.34375 L 23.253906 9.347656 L 23.257812 9.34375 L 23.253906 9.347656 L 23.257812 9.34375 L 23.253906 9.347656 L 23.25 9.347656 L 23.253906 9.347656 L 23.257812 9.34375 L 23.253906 9.347656 L 23.257812 9.34375 Z M 23.328125 9.441406 L 23.273438 9.480469 Z M 23.253906 9.347656 L 23.375 9.363281 L 23.375 9.375 L 23.371094 9.378906 L 23.371094 9.382812 L 23.367188 9.390625 L 23.367188 9.394531 L 23.363281 9.398438 L 23.363281 9.402344 L 23.359375 9.40625 L 23.359375 9.410156 L 23.355469 9.410156 L 23.355469 9.414062 L 23.34375 9.425781 L 23.34375 9.429688 L 23.339844 9.429688 L 23.335938 9.433594 L 23.335938 9.4375 L 23.332031 9.4375 L 23.328125 9.441406 L 23.253906 9.347656 L 23.253906 9.34375 L 23.253906 9.347656 L 23.253906 9.34375 L 23.253906 9.347656 L 23.253906 9.34375 L 23.253906 9.347656 L 23.253906 9.34375 L 23.253906 9.347656 L 23.253906 9.34375 Z M 23.375 9.363281 L 23.375 9.371094 Z M 23.445312 8.875 L 23.375 9.363281 L 23.253906 9.347656 L 23.324219 8.859375 L 23.429688 8.824219 Z M 23.324219 8.859375 L 23.34375 8.738281 L 23.429688 8.824219 Z M 23.671875 9.226562 L 23.34375 8.90625 L 23.429688 8.824219 L 23.761719 9.144531 Z M 23.761719 9.144531 Z M 23.757812 9.144531 L 23.84375 9.226562 L 23.832031 9.238281 L 23.824219 9.242188 L 23.816406 9.25 L 23.808594 9.25 L 23.804688 9.253906 L 23.796875 9.253906 L 23.792969 9.257812 L 23.78125 9.257812 L 23.777344 9.261719 L 23.742188 9.261719 L 23.734375 9.257812 L 23.726562 9.257812 L 23.71875 9.253906 L 23.714844 9.253906 L 23.707031 9.25 L 23.703125 9.25 L 23.695312 9.246094 L 23.6875 9.238281 L 23.679688 9.234375 L 23.671875 9.226562 L 23.761719 9.144531 L 23.757812 9.144531 L 23.761719 9.144531 L 23.757812 9.144531 L 23.761719 9.144531 L 23.757812 9.144531 L 23.761719 9.144531 Z M 23.757812 9.144531 Z M 23.980469 9.09375 L 23.84375 9.226562 L 23.757812 9.144531 L 23.894531 9.011719 Z M 23.894531 9.011719 Z M 23.894531 9.011719 L 23.980469 8.929688 L 23.992188 8.941406 L 23.996094 8.949219 L 24.003906 8.957031 L 24.003906 8.960938 L 24.011719 8.976562 L 24.011719 8.980469 L 24.015625 8.984375 L 24.015625 9.039062 L 24.011719 9.046875 L 24.011719 9.050781 L 24.007812 9.058594 L 24.007812 9.0625 L 24.003906 9.066406 L 24 9.074219 L 23.996094 9.078125 L 23.996094 9.082031 L 23.988281 9.085938 L 23.980469 9.09375 L 23.894531 9.011719 L 23.894531 9.015625 L 23.894531 9.011719 L 23.894531 9.015625 Z M 23.652344 8.609375 L 23.980469 8.929688 L 23.894531 9.011719 L 23.5625 8.691406 L 23.597656 8.59375 Z M 23.5625 8.691406 L 23.476562 8.609375 L 23.597656 8.59375 Z M 24.121094 8.640625 L 23.617188 8.710938 L 23.597656 8.59375 L 24.105469 8.523438 Z M 24.105469 8.523438 L 24.117188 8.523438 Z M 24.101562 8.527344 L 24.203125 8.59375 L 24.203125 8.597656 L 24.199219 8.597656 L 24.199219 8.601562 L 24.195312 8.601562 L 24.191406 8.605469 L 24.1875 8.613281 L 24.183594 8.613281 L 24.179688 8.617188 L 24.171875 8.621094 L 24.171875 8.625 L 24.171875 8.621094 L 24.164062 8.628906 L 24.160156 8.628906 L 24.15625 8.632812 L 24.152344 8.632812 L 24.148438 8.636719 L 24.140625 8.636719 L 24.136719 8.640625 L 24.121094 8.640625 L 24.105469 8.523438 L 24.101562 8.523438 L 24.105469 8.523438 L 24.101562 8.523438 L 24.105469 8.523438 L 24.101562 8.523438 L 24.105469 8.523438 L 24.101562 8.523438 L 24.101562 8.527344 L 24.101562 8.523438 L 24.105469 8.523438 L 24.101562 8.523438 L 24.101562 8.527344 L 24.105469 8.523438 L 24.101562 8.527344 L 24.105469 8.523438 L 24.101562 8.527344 L 24.105469 8.523438 L 24.101562 8.523438 L 24.105469 8.523438 Z M 24.203125 8.59375 L 24.203125 8.597656 L 24.199219 8.597656 Z M 24.101562 8.527344 L 24.222656 8.507812 L 24.226562 8.511719 L 24.226562 8.539062 L 24.222656 8.546875 L 24.222656 8.550781 L 24.222656 8.546875 L 24.222656 8.558594 L 24.222656 8.554688 L 24.21875 8.5625 L 24.21875 8.566406 L 24.21875 8.5625 L 24.21875 8.566406 L 24.214844 8.570312 L 24.210938 8.578125 L 24.210938 8.585938 L 24.207031 8.589844 L 24.203125 8.589844 L 24.203125 8.59375 L 24.101562 8.527344 L 24.101562 8.523438 L 24.101562 8.527344 L 24.101562 8.523438 L 24.105469 8.523438 L 24.105469 8.519531 L 24.101562 8.523438 L 24.101562 8.527344 L 24.105469 8.523438 L 24.101562 8.523438 L 24.101562 8.527344 L 24.105469 8.523438 L 24.101562 8.523438 L 24.101562 8.527344 L 24.101562 8.523438 L 24.105469 8.519531 L 24.101562 8.527344 L 24.101562 8.523438 L 24.101562 8.527344 L 24.101562 8.523438 L 24.101562 8.527344 L 24.101562 8.523438 Z M 24.101562 8.527344 L 24.105469 8.535156 Z M 24.199219 8.324219 L 24.222656 8.507812 L 24.101562 8.527344 L 24.078125 8.339844 Z M 24.199219 8.324219 L 24.195312 8.316406 Z M 24.078125 8.339844 L 24.0625 8.222656 L 24.097656 8.222656 L 24.105469 8.226562 L 24.113281 8.226562 L 24.121094 8.230469 L 24.125 8.230469 L 24.128906 8.234375 L 24.144531 8.242188 L 24.148438 8.242188 L 24.179688 8.273438 L 24.183594 8.28125 L 24.183594 8.285156 L 24.1875 8.292969 L 24.191406 8.296875 L 24.191406 8.300781 L 24.195312 8.304688 L 24.195312 8.320312 L 24.199219 8.324219 L 24.078125 8.339844 L 24.078125 8.34375 L 24.078125 8.339844 L 24.074219 8.339844 L 24.078125 8.339844 L 24.074219 8.339844 L 24.078125 8.339844 L 24.074219 8.339844 L 24.078125 8.339844 L 24.074219 8.339844 Z M 24.0625 8.222656 L 24.054688 8.222656 Z M 23.320312 8.324219 L 24.0625 8.222656 L 24.078125 8.339844 L 23.339844 8.441406 L 23.285156 8.425781 Z M 23.339844 8.441406 L 23.308594 8.445312 L 23.285156 8.425781 Z M 22.824219 7.8125 L 23.371094 8.339844 L 23.285156 8.425781 L 22.738281 7.894531 Z M 22.738281 7.894531 Z M 22.703125 7.695312 L 22.824219 7.8125 L 22.738281 7.894531 L 22.617188 7.777344 L 22.601562 7.710938 Z M 22.617188 7.777344 L 22.585938 7.75 L 22.601562 7.710938 Z M 22.835938 7.472656 L 22.714844 7.757812 L 22.601562 7.710938 L 22.722656 7.425781 Z M 22.722656 7.425781 Z M 23.175781 6.679688 L 22.835938 7.472656 L 22.722656 7.425781 L 23.0625 6.636719 L 23.121094 6.597656 Z M 23.0625 6.636719 L 23.078125 6.597656 L 23.121094 6.597656 Z M 24.066406 6.71875 L 23.121094 6.71875 L 23.121094 6.597656 L 24.066406 6.597656 L 24.117188 6.621094 Z M 24.066406 6.597656 L 24.097656 6.597656 L 24.117188 6.621094 Z M 24.46875 7.269531 L 24.019531 6.691406 L 24.117188 6.621094 L 24.566406 7.199219 Z M 24.566406 7.199219 Z M 24.566406 7.199219 L 24.640625 7.292969 L 24.636719 7.292969 L 24.632812 7.296875 L 24.625 7.300781 L 24.621094 7.304688 L 24.617188 7.304688 L 24.613281 7.308594 L 24.605469 7.3125 L 24.59375 7.3125 L 24.589844 7.316406 L 24.542969 7.316406 L 24.535156 7.3125 L 24.527344 7.3125 L 24.519531 7.308594 L 24.515625 7.308594 L 24.507812 7.304688 L 24.5 7.296875 L 24.492188 7.292969 L 24.488281 7.289062 L 24.480469 7.285156 L 24.476562 7.277344 L 24.46875 7.269531 L 24.566406 7.199219 L 24.5625 7.199219 Z M 24.640625 7.292969 L 24.636719 7.292969 Z M 24.792969 7.179688 L 24.640625 7.292969 L 24.566406 7.199219 L 24.71875 7.085938 Z M 24.792969 7.179688 L 24.785156 7.1875 Z M 24.71875 7.085938 L 24.816406 7.015625 L 24.820312 7.023438 L 24.828125 7.03125 L 24.828125 7.035156 L 24.832031 7.042969 L 24.835938 7.046875 L 24.835938 7.050781 L 24.839844 7.058594 L 24.839844 7.113281 L 24.835938 7.121094 L 24.835938 7.125 L 24.832031 7.132812 L 24.832031 7.136719 L 24.824219 7.144531 L 24.824219 7.152344 L 24.820312 7.15625 L 24.8125 7.160156 L 24.8125 7.164062 L 24.800781 7.175781 L 24.792969 7.179688 L 24.71875 7.085938 L 24.722656 7.085938 L 24.71875 7.085938 L 24.71875 7.089844 L 24.71875 7.085938 L 24.71875 7.089844 L 24.71875 7.085938 L 24.71875 7.089844 L 24.71875 7.085938 L 24.71875 7.089844 L 24.71875 7.085938 L 24.71875 7.089844 L 24.71875 7.085938 L 24.71875 7.089844 Z M 24.71875 7.089844 L 24.71875 7.085938 L 24.773438 7.160156 Z M 24.511719 6.621094 L 24.816406 7.015625 L 24.71875 7.085938 L 24.414062 6.691406 L 24.460938 6.597656 Z M 24.414062 6.691406 L 24.339844 6.597656 L 24.460938 6.597656 Z M 24.929688 6.71875 L 24.460938 6.71875 L 24.460938 6.597656 L 24.929688 6.597656 Z M 24.929688 6.601562 L 25.050781 6.601562 L 25.050781 6.617188 L 25.046875 6.621094 L 25.046875 6.628906 L 25.042969 6.636719 L 25.042969 6.640625 L 25.039062 6.644531 L 25.039062 6.652344 L 25.03125 6.660156 L 25.03125 6.664062 L 25.027344 6.671875 L 25.015625 6.683594 L 25.007812 6.6875 L 25 6.695312 L 24.996094 6.695312 L 24.992188 6.699219 L 24.984375 6.703125 L 24.980469 6.707031 L 24.976562 6.707031 L 24.96875 6.710938 L 24.964844 6.710938 L 24.960938 6.714844 L 24.941406 6.714844 L 24.933594 6.71875 L 24.929688 6.71875 L 24.929688 6.597656 L 24.925781 6.597656 L 24.929688 6.597656 L 24.925781 6.597656 L 24.929688 6.597656 L 24.925781 6.597656 L 24.929688 6.597656 L 24.925781 6.597656 L 24.929688 6.597656 L 24.925781 6.597656 L 24.929688 6.597656 L 24.925781 6.597656 L 24.925781 6.601562 L 24.925781 6.597656 L 24.925781 6.601562 L 24.925781 6.597656 Z M 25.050781 6.414062 L 25.050781 6.601562 L 24.929688 6.601562 L 24.929688 6.414062 Z M 24.929688 6.414062 L 24.929688 6.296875 L 24.953125 6.296875 L 24.960938 6.300781 L 24.964844 6.300781 L 24.972656 6.304688 L 24.976562 6.304688 L 24.980469 6.308594 L 24.984375 6.308594 L 24.992188 6.3125 L 25 6.320312 L 25.003906 6.320312 L 25.015625 6.332031 L 25.019531 6.332031 L 25.019531 6.335938 L 25.03125 6.347656 L 25.03125 6.351562 L 25.035156 6.355469 L 25.039062 6.363281 L 25.039062 6.367188 L 25.042969 6.371094 L 25.046875 6.378906 L 25.046875 6.390625 L 25.050781 6.394531 L 25.050781 6.414062 L 24.929688 6.414062 L 24.929688 6.410156 L 24.929688 6.414062 L 24.929688 6.410156 L 24.929688 6.414062 L 24.925781 6.414062 Z M 24.929688 6.414062 "/>
<path style=" stroke:none;fill-rule:nonzero;fill:rgb(92.941176%,41.176471%,36.078431%);fill-opacity:1;" d="M 21.300781 10.828125 L 5.445312 10.828125 C 5.261719 10.828125 5.109375 10.972656 5.109375 11.152344 C 5.109375 11.332031 5.261719 11.476562 5.445312 11.476562 L 21.300781 11.476562 C 21.816406 11.476562 22.238281 11.882812 22.238281 12.382812 L 22.238281 19.308594 C 22.238281 19.808594 21.816406 20.214844 21.300781 20.214844 L 20.492188 20.214844 L 20.492188 18.09375 C 20.492188 17.914062 20.34375 17.769531 20.15625 17.769531 L 2.75 17.769531 C 2.566406 17.769531 2.414062 17.914062 2.414062 18.09375 L 2.414062 20.214844 L 1.609375 20.214844 C 1.09375 20.214844 0.671875 19.808594 0.671875 19.308594 L 0.671875 12.382812 C 0.671875 11.882812 1.09375 11.476562 1.609375 11.476562 L 4.101562 11.476562 C 4.289062 11.476562 4.4375 11.332031 4.4375 11.152344 C 4.4375 10.972656 4.289062 10.828125 4.101562 10.828125 L 1.609375 10.828125 C 0.722656 10.828125 0 11.523438 0 12.382812 L 0 19.308594 C 0 20.167969 0.722656 20.863281 1.609375 20.863281 L 5.109375 20.863281 C 5.296875 20.863281 5.445312 20.71875 5.445312 20.539062 C 5.445312 20.359375 5.296875 20.214844 5.109375 20.214844 L 3.089844 20.214844 L 3.089844 19.644531 L 16.453125 19.644531 C 16.636719 19.644531 16.789062 19.496094 16.789062 19.316406 C 16.789062 19.136719 16.636719 18.992188 16.453125 18.992188 L 3.089844 18.992188 L 3.089844 18.421875 L 19.820312 18.421875 L 19.820312 18.992188 L 17.796875 18.992188 C 17.613281 18.992188 17.460938 19.136719 17.460938 19.316406 C 17.460938 19.496094 17.613281 19.644531 17.796875 19.644531 L 19.820312 19.644531 L 19.820312 20.214844 L 6.457031 20.214844 C 6.269531 20.214844 6.121094 20.359375 6.121094 20.539062 C 6.121094 20.71875 6.269531 20.863281 6.457031 20.863281 L 21.300781 20.863281 C 22.1875 20.863281 22.910156 20.167969 22.910156 19.308594 L 22.910156 12.382812 C 22.910156 11.523438 22.1875 10.828125 21.300781 10.828125 Z M 21.300781 10.828125 "/>
<path style=" stroke:none;fill-rule:nonzero;fill:rgb(92.941176%,41.176471%,36.078431%);fill-opacity:1;" d="M 20.15625 13.472656 C 20.34375 13.472656 20.492188 13.324219 20.492188 13.144531 C 20.492188 12.964844 20.34375 12.820312 20.15625 12.820312 L 19.164062 12.820312 C 18.976562 12.820312 18.828125 12.964844 18.828125 13.144531 C 18.828125 13.324219 18.976562 13.472656 19.164062 13.472656 Z M 20.15625 13.472656 "/>
<path style=" stroke:none;fill-rule:nonzero;fill:rgb(92.941176%,41.176471%,36.078431%);fill-opacity:1;" d="M 17.628906 13.472656 C 17.8125 13.472656 17.964844 13.324219 17.964844 13.144531 C 17.964844 12.964844 17.8125 12.820312 17.628906 12.820312 L 11.261719 12.820312 C 11.078125 12.820312 10.925781 12.964844 10.925781 13.144531 C 10.925781 13.324219 11.078125 13.472656 11.261719 13.472656 Z M 17.628906 13.472656 "/>
<path style=" stroke:none;fill-rule:nonzero;fill:rgb(92.941176%,41.176471%,36.078431%);fill-opacity:1;" d="M 6.328125 21.734375 C 6.140625 21.734375 5.988281 21.878906 5.988281 22.058594 C 5.988281 22.070312 5.980469 23.035156 5.046875 23.675781 C 4.894531 23.78125 4.859375 23.980469 4.96875 24.128906 C 5.03125 24.21875 5.136719 24.265625 5.242188 24.265625 C 5.308594 24.265625 5.375 24.246094 5.4375 24.207031 C 6.648438 23.371094 6.664062 22.113281 6.664062 22.058594 C 6.664062 21.878906 6.511719 21.734375 6.328125 21.734375 Z M 6.328125 21.734375 "/>
<path style=" stroke:none;fill-rule:nonzero;fill:rgb(92.941176%,41.176471%,36.078431%);fill-opacity:1;" d="M 8.734375 21.734375 C 8.546875 21.734375 8.398438 21.878906 8.398438 22.058594 L 8.398438 23.941406 C 8.398438 24.121094 8.546875 24.265625 8.734375 24.265625 C 8.917969 24.265625 9.070312 24.121094 9.070312 23.941406 L 9.070312 22.058594 C 9.070312 21.878906 8.917969 21.734375 8.734375 21.734375 Z M 8.734375 21.734375 "/>
<path style=" stroke:none;fill-rule:nonzero;fill:rgb(92.941176%,41.176471%,36.078431%);fill-opacity:1;" d="M 11.550781 21.734375 C 11.363281 21.734375 11.210938 21.878906 11.210938 22.058594 L 11.210938 23.941406 C 11.210938 24.121094 11.363281 24.265625 11.550781 24.265625 C 11.734375 24.265625 11.886719 24.121094 11.886719 23.941406 L 11.886719 22.058594 C 11.886719 21.878906 11.734375 21.734375 11.550781 21.734375 Z M 11.550781 21.734375 "/>
<path style=" stroke:none;fill-rule:nonzero;fill:rgb(92.941176%,41.176471%,36.078431%);fill-opacity:1;" d="M 17.863281 23.675781 C 16.941406 23.042969 16.917969 22.101562 16.917969 22.058594 C 16.917969 21.878906 16.769531 21.734375 16.582031 21.734375 C 16.398438 21.734375 16.246094 21.878906 16.246094 22.058594 C 16.246094 22.113281 16.261719 23.371094 17.472656 24.207031 C 17.53125 24.246094 17.601562 24.265625 17.667969 24.265625 C 17.773438 24.265625 17.875 24.21875 17.941406 24.128906 C 18.050781 23.980469 18.015625 23.78125 17.863281 23.675781 Z M 17.863281 23.675781 "/>
<path style=" stroke:none;fill-rule:nonzero;fill:rgb(92.941176%,41.176471%,36.078431%);fill-opacity:1;" d="M 14.175781 21.734375 C 13.988281 21.734375 13.839844 21.878906 13.839844 22.058594 L 13.839844 23.941406 C 13.839844 24.121094 13.988281 24.265625 14.175781 24.265625 C 14.359375 24.265625 14.511719 24.121094 14.511719 23.941406 L 14.511719 22.058594 C 14.511719 21.878906 14.359375 21.734375 14.175781 21.734375 Z M 14.175781 21.734375 "/>
<path style=" stroke:none;fill-rule:nonzero;fill:rgb(92.941176%,41.176471%,36.078431%);fill-opacity:1;" d="M 14.851562 3.480469 C 14.023438 4.867188 13.714844 6.488281 13.972656 8.074219 C 14 8.246094 14.167969 8.363281 14.347656 8.335938 C 14.527344 8.308594 14.648438 8.144531 14.621094 7.972656 C 14.121094 4.929688 15.957031 1.980469 18.972656 0.980469 C 21.984375 -0.0195312 25.304688 1.21875 26.84375 3.917969 C 28.382812 6.613281 27.695312 9.992188 25.210938 11.921875 C 25.121094 11.992188 25.074219 12.105469 25.089844 12.21875 C 25.109375 12.332031 25.1875 12.425781 25.296875 12.46875 C 25.40625 12.507812 25.53125 12.488281 25.625 12.417969 C 27.878906 10.660156 28.832031 7.765625 28.039062 5.074219 C 27.25 2.378906 24.867188 0.402344 21.992188 0.0546875 C 19.117188 -0.292969 16.304688 1.058594 14.851562 3.480469 Z M 14.851562 3.480469 "/>
</g>
</svg>
