<?xml version="1.0" encoding="UTF-8"?>
<svg xmlns="http://www.w3.org/2000/svg" xmlns:xlink="http://www.w3.org/1999/xlink" width="28px" height="28px" viewBox="0 0 28 28" version="1.1">
<g id="surface1">
<path style=" stroke:none;fill-rule:nonzero;fill:rgb(92.941176%,41.176471%,36.078431%);fill-opacity:1;" d="M 25.300781 23.082031 L 23.960938 22.273438 L 25.300781 21.464844 C 25.480469 21.355469 25.535156 21.125 25.421875 20.953125 C 25.3125 20.777344 25.074219 20.722656 24.898438 20.832031 L 23.617188 21.605469 L 23.617188 20.140625 C 23.617188 19.933594 23.449219 19.765625 23.238281 19.765625 C 23.027344 19.765625 22.855469 19.933594 22.855469 20.140625 L 22.855469 21.605469 L 21.574219 20.832031 C 21.398438 20.722656 21.160156 20.777344 21.050781 20.953125 C 20.9375 21.125 20.992188 21.355469 21.171875 21.464844 L 22.511719 22.273438 L 21.171875 23.082031 C 20.992188 23.191406 20.9375 23.421875 21.050781 23.597656 C 21.121094 23.710938 21.246094 23.773438 21.375 23.773438 C 21.566406 23.773438 21.550781 23.707031 22.855469 22.941406 L 22.855469 24.40625 C 22.855469 24.613281 23.027344 24.78125 23.238281 24.78125 C 23.449219 24.78125 23.617188 24.613281 23.617188 24.40625 L 23.617188 22.941406 C 24.921875 23.710938 24.90625 23.773438 25.097656 23.773438 C 25.480469 23.773438 25.625 23.28125 25.300781 23.082031 Z M 25.300781 23.082031 "/>
<path style=" stroke:none;fill-rule:nonzero;fill:rgb(92.941176%,41.176471%,36.078431%);fill-opacity:1;" d="M 10.984375 21.96875 L 9.644531 21.160156 L 10.984375 20.347656 C 11.164062 20.242188 11.21875 20.011719 11.105469 19.835938 C 10.996094 19.664062 10.757812 19.609375 10.582031 19.71875 L 9.300781 20.492188 L 9.300781 19.023438 C 9.300781 18.820312 9.132812 18.652344 8.921875 18.652344 C 8.710938 18.652344 8.539062 18.820312 8.539062 19.023438 L 8.539062 20.492188 L 7.261719 19.71875 C 7.082031 19.609375 6.847656 19.664062 6.734375 19.835938 C 6.621094 20.011719 6.679688 20.242188 6.855469 20.347656 L 8.195312 21.160156 L 6.855469 21.96875 C 6.679688 22.078125 6.621094 22.308594 6.734375 22.484375 C 6.84375 22.65625 7.082031 22.710938 7.261719 22.601562 L 8.539062 21.828125 L 8.539062 23.296875 C 8.539062 23.5 8.710938 23.667969 8.921875 23.667969 C 9.132812 23.667969 9.300781 23.5 9.300781 23.296875 L 9.300781 21.828125 C 10.605469 22.597656 10.589844 22.660156 10.78125 22.660156 C 11.164062 22.660156 11.308594 22.167969 10.984375 21.96875 Z M 10.984375 21.96875 "/>
<path style=" stroke:none;fill-rule:nonzero;fill:rgb(92.941176%,41.176471%,36.078431%);fill-opacity:1;" d="M 15.65625 25.382812 L 15.050781 25.019531 L 15.65625 24.652344 C 15.835938 24.542969 15.890625 24.3125 15.78125 24.136719 C 15.667969 23.964844 15.433594 23.910156 15.253906 24.019531 L 14.710938 24.347656 L 14.710938 23.726562 C 14.710938 23.519531 14.539062 23.351562 14.328125 23.351562 C 14.117188 23.351562 13.945312 23.519531 13.945312 23.726562 L 13.945312 24.347656 L 13.398438 24.019531 C 13.21875 23.910156 12.984375 23.964844 12.875 24.136719 C 12.761719 24.3125 12.816406 24.542969 12.996094 24.652344 L 13.601562 25.019531 L 12.996094 25.382812 C 12.816406 25.492188 12.761719 25.722656 12.875 25.898438 C 12.984375 26.074219 13.222656 26.125 13.398438 26.015625 L 13.945312 25.6875 L 13.945312 26.308594 C 13.945312 26.515625 14.117188 26.683594 14.328125 26.683594 C 14.539062 26.683594 14.710938 26.515625 14.710938 26.308594 L 14.710938 25.683594 L 15.253906 26.015625 C 15.433594 26.121094 15.667969 26.070312 15.78125 25.894531 C 15.890625 25.722656 15.835938 25.492188 15.65625 25.382812 Z M 15.65625 25.382812 "/>
<path style=" stroke:none;fill-rule:nonzero;fill:rgb(92.941176%,41.176471%,36.078431%);fill-opacity:1;" d="M 3.695312 20.449219 C 3.046875 20.449219 2.519531 20.964844 2.519531 21.597656 C 2.519531 22.226562 3.046875 22.742188 3.695312 22.742188 C 4.34375 22.742188 4.871094 22.226562 4.871094 21.597656 C 4.871094 20.964844 4.34375 20.449219 3.695312 20.449219 Z M 3.695312 21.996094 C 3.46875 21.996094 3.285156 21.816406 3.285156 21.597656 C 3.285156 21.375 3.46875 21.195312 3.695312 21.195312 C 3.921875 21.195312 4.109375 21.375 4.109375 21.597656 C 4.109375 21.816406 3.921875 21.996094 3.695312 21.996094 Z M 3.695312 21.996094 "/>
<path style=" stroke:none;fill-rule:nonzero;fill:rgb(92.941176%,41.176471%,36.078431%);fill-opacity:1;" d="M 17.441406 18.75 C 16.792969 18.75 16.265625 19.265625 16.265625 19.894531 C 16.265625 20.527344 16.792969 21.042969 17.441406 21.042969 C 18.089844 21.042969 18.617188 20.527344 18.617188 19.894531 C 18.617188 19.265625 18.089844 18.75 17.441406 18.75 Z M 17.441406 20.296875 C 17.214844 20.296875 17.03125 20.117188 17.03125 19.894531 C 17.03125 19.675781 17.214844 19.496094 17.441406 19.496094 C 17.671875 19.496094 17.855469 19.675781 17.855469 19.894531 C 17.855469 20.117188 17.671875 20.296875 17.441406 20.296875 Z M 17.441406 20.296875 "/>
<path style=" stroke:none;fill-rule:nonzero;fill:rgb(92.941176%,41.176471%,36.078431%);fill-opacity:1;" d="M 26.03125 1.5 L 6.660156 1.5 C 6.429688 1.5 6.246094 1.679688 6.246094 1.898438 C 6.246094 2.121094 6.429688 2.300781 6.660156 2.300781 L 26.03125 2.300781 C 26.664062 2.300781 27.179688 2.800781 27.179688 3.414062 L 27.179688 11.941406 C 27.179688 12.554688 26.664062 13.054688 26.03125 13.054688 L 25.050781 13.054688 L 25.050781 10.445312 C 25.050781 10.226562 24.863281 10.046875 24.636719 10.046875 L 3.367188 10.046875 C 3.136719 10.046875 2.953125 10.226562 2.953125 10.445312 L 2.953125 13.054688 L 1.972656 13.054688 C 1.339844 13.054688 0.824219 12.554688 0.824219 11.941406 L 0.824219 3.414062 C 0.824219 2.800781 1.339844 2.300781 1.972656 2.300781 L 5.015625 2.300781 C 5.242188 2.300781 5.425781 2.121094 5.425781 1.898438 C 5.425781 1.679688 5.242188 1.5 5.015625 1.5 L 1.972656 1.5 C 0.886719 1.5 0.00390625 2.359375 0.00390625 3.417969 L 0.00390625 11.941406 C 0.00390625 13 0.886719 13.859375 1.972656 13.859375 L 6.25 13.859375 C 6.476562 13.859375 6.660156 13.679688 6.660156 13.457031 C 6.660156 13.238281 6.476562 13.058594 6.25 13.058594 L 3.777344 13.058594 L 3.777344 12.355469 L 20.113281 12.355469 C 20.339844 12.355469 20.523438 12.175781 20.523438 11.953125 C 20.523438 11.734375 20.339844 11.554688 20.113281 11.554688 L 3.777344 11.554688 L 3.777344 10.851562 L 24.230469 10.851562 L 24.230469 11.554688 L 21.757812 11.554688 C 21.53125 11.554688 21.34375 11.734375 21.34375 11.953125 C 21.34375 12.175781 21.53125 12.355469 21.757812 12.355469 L 24.230469 12.355469 L 24.230469 13.058594 L 7.894531 13.058594 C 7.667969 13.058594 7.484375 13.238281 7.484375 13.457031 C 7.484375 13.679688 7.667969 13.859375 7.894531 13.859375 L 26.035156 13.859375 C 27.117188 13.859375 28.003906 13 28.003906 11.941406 L 28.003906 3.417969 C 28.003906 2.359375 27.117188 1.5 26.035156 1.5 Z M 26.03125 1.5 "/>
<path style=" stroke:none;fill-rule:nonzero;fill:rgb(92.941176%,41.176471%,36.078431%);fill-opacity:1;" d="M 24.636719 4.753906 C 24.863281 4.753906 25.046875 4.574219 25.046875 4.355469 C 25.046875 4.132812 24.863281 3.953125 24.636719 3.953125 L 23.421875 3.953125 C 23.195312 3.953125 23.011719 4.132812 23.011719 4.355469 C 23.011719 4.574219 23.195312 4.753906 23.421875 4.753906 Z M 24.636719 4.753906 "/>
<path style=" stroke:none;fill-rule:nonzero;fill:rgb(92.941176%,41.176471%,36.078431%);fill-opacity:1;" d="M 21.546875 4.753906 C 21.773438 4.753906 21.957031 4.574219 21.957031 4.355469 C 21.957031 4.132812 21.773438 3.953125 21.546875 3.953125 L 13.765625 3.953125 C 13.539062 3.953125 13.355469 4.132812 13.355469 4.355469 C 13.355469 4.574219 13.539062 4.753906 13.765625 4.753906 Z M 21.546875 4.753906 "/>
</g>
</svg>
