<?xml version="1.0" encoding="UTF-8"?>
<svg xmlns="http://www.w3.org/2000/svg" xmlns:xlink="http://www.w3.org/1999/xlink" width="28px" height="28px" viewBox="0 0 28 25" version="1.1">
<g id="surface1">
<path style=" stroke:none;fill-rule:nonzero;fill:rgb(92.941176%,41.176471%,36.078431%);fill-opacity:1;" d="M 25.300781 21.582031 L 23.960938 20.773438 L 25.300781 19.964844 C 25.480469 19.855469 25.535156 19.625 25.421875 19.453125 C 25.3125 19.277344 25.074219 19.222656 24.898438 19.332031 L 23.617188 20.105469 L 23.617188 18.640625 C 23.617188 18.433594 23.449219 18.265625 23.238281 18.265625 C 23.027344 18.265625 22.855469 18.433594 22.855469 18.640625 L 22.855469 20.105469 L 21.574219 19.332031 C 21.398438 19.222656 21.160156 19.277344 21.050781 19.453125 C 20.9375 19.625 20.992188 19.855469 21.171875 19.964844 L 22.511719 20.773438 L 21.171875 21.582031 C 20.992188 21.691406 20.9375 21.921875 21.050781 22.097656 C 21.121094 22.210938 21.246094 22.273438 21.375 22.273438 C 21.566406 22.273438 21.550781 22.207031 22.855469 21.441406 L 22.855469 22.90625 C 22.855469 23.113281 23.027344 23.28125 23.238281 23.28125 C 23.449219 23.28125 23.617188 23.113281 23.617188 22.90625 L 23.617188 21.441406 C 24.921875 22.210938 24.90625 22.273438 25.097656 22.273438 C 25.480469 22.273438 25.625 21.78125 25.300781 21.582031 Z M 25.300781 21.582031 "/>
<path style=" stroke:none;fill-rule:nonzero;fill:rgb(92.941176%,41.176471%,36.078431%);fill-opacity:1;" d="M 10.984375 20.46875 L 9.644531 19.660156 L 10.984375 18.847656 C 11.164062 18.742188 11.21875 18.511719 11.105469 18.335938 C 10.996094 18.164062 10.757812 18.109375 10.582031 18.21875 L 9.300781 18.992188 L 9.300781 17.523438 C 9.300781 17.320312 9.132812 17.152344 8.921875 17.152344 C 8.710938 17.152344 8.539062 17.320312 8.539062 17.523438 L 8.539062 18.992188 L 7.261719 18.21875 C 7.082031 18.109375 6.847656 18.164062 6.734375 18.335938 C 6.621094 18.511719 6.679688 18.742188 6.855469 18.847656 L 8.195312 19.660156 L 6.855469 20.46875 C 6.679688 20.578125 6.621094 20.808594 6.734375 20.984375 C 6.84375 21.15625 7.082031 21.210938 7.261719 21.101562 L 8.539062 20.328125 L 8.539062 21.796875 C 8.539062 22 8.710938 22.167969 8.921875 22.167969 C 9.132812 22.167969 9.300781 22 9.300781 21.796875 L 9.300781 20.328125 C 10.605469 21.097656 10.589844 21.160156 10.78125 21.160156 C 11.164062 21.160156 11.308594 20.667969 10.984375 20.46875 Z M 10.984375 20.46875 "/>
<path style=" stroke:none;fill-rule:nonzero;fill:rgb(92.941176%,41.176471%,36.078431%);fill-opacity:1;" d="M 15.65625 23.882812 L 15.050781 23.519531 L 15.65625 23.152344 C 15.835938 23.042969 15.890625 22.8125 15.78125 22.636719 C 15.667969 22.464844 15.433594 22.410156 15.253906 22.519531 L 14.710938 22.847656 L 14.710938 22.226562 C 14.710938 22.019531 14.539062 21.851562 14.328125 21.851562 C 14.117188 21.851562 13.945312 22.019531 13.945312 22.226562 L 13.945312 22.847656 L 13.398438 22.519531 C 13.21875 22.410156 12.984375 22.464844 12.875 22.636719 C 12.761719 22.8125 12.816406 23.042969 12.996094 23.152344 L 13.601562 23.519531 L 12.996094 23.882812 C 12.816406 23.992188 12.761719 24.222656 12.875 24.398438 C 12.984375 24.574219 13.222656 24.625 13.398438 24.515625 L 13.945312 24.1875 L 13.945312 24.808594 C 13.945312 25.015625 14.117188 25.183594 14.328125 25.183594 C 14.539062 25.183594 14.710938 25.015625 14.710938 24.808594 L 14.710938 24.183594 L 15.253906 24.515625 C 15.433594 24.621094 15.667969 24.570312 15.78125 24.394531 C 15.890625 24.222656 15.835938 23.992188 15.65625 23.882812 Z M 15.65625 23.882812 "/>
<path style=" stroke:none;fill-rule:nonzero;fill:rgb(92.941176%,41.176471%,36.078431%);fill-opacity:1;" d="M 3.695312 18.949219 C 3.046875 18.949219 2.519531 19.464844 2.519531 20.097656 C 2.519531 20.726562 3.046875 21.242188 3.695312 21.242188 C 4.34375 21.242188 4.871094 20.726562 4.871094 20.097656 C 4.871094 19.464844 4.34375 18.949219 3.695312 18.949219 Z M 3.695312 20.496094 C 3.46875 20.496094 3.285156 20.316406 3.285156 20.097656 C 3.285156 19.875 3.46875 19.695312 3.695312 19.695312 C 3.921875 19.695312 4.109375 19.875 4.109375 20.097656 C 4.109375 20.316406 3.921875 20.496094 3.695312 20.496094 Z M 3.695312 20.496094 "/>
<path style=" stroke:none;fill-rule:nonzero;fill:rgb(92.941176%,41.176471%,36.078431%);fill-opacity:1;" d="M 17.441406 17.25 C 16.792969 17.25 16.265625 17.765625 16.265625 18.394531 C 16.265625 19.027344 16.792969 19.542969 17.441406 19.542969 C 18.089844 19.542969 18.617188 19.027344 18.617188 18.394531 C 18.617188 17.765625 18.089844 17.25 17.441406 17.25 Z M 17.441406 18.796875 C 17.214844 18.796875 17.03125 18.617188 17.03125 18.394531 C 17.03125 18.175781 17.214844 17.996094 17.441406 17.996094 C 17.671875 17.996094 17.855469 18.175781 17.855469 18.394531 C 17.855469 18.617188 17.671875 18.796875 17.441406 18.796875 Z M 17.441406 18.796875 "/>
<path style=" stroke:none;fill-rule:nonzero;fill:rgb(92.941176%,41.176471%,36.078431%);fill-opacity:1;" d="M 26.03125 0 L 6.660156 0 C 6.429688 0 6.246094 0.179688 6.246094 0.398438 C 6.246094 0.621094 6.429688 0.800781 6.660156 0.800781 L 26.03125 0.800781 C 26.664062 0.800781 27.179688 1.300781 27.179688 1.914062 L 27.179688 10.441406 C 27.179688 11.054688 26.664062 11.554688 26.03125 11.554688 L 25.050781 11.554688 L 25.050781 8.945312 C 25.050781 8.726562 24.863281 8.546875 24.636719 8.546875 L 3.367188 8.546875 C 3.136719 8.546875 2.953125 8.726562 2.953125 8.945312 L 2.953125 11.554688 L 1.972656 11.554688 C 1.339844 11.554688 0.824219 11.054688 0.824219 10.441406 L 0.824219 1.914062 C 0.824219 1.300781 1.339844 0.800781 1.972656 0.800781 L 5.015625 0.800781 C 5.242188 0.800781 5.425781 0.621094 5.425781 0.398438 C 5.425781 0.179688 5.242188 0 5.015625 0 L 1.972656 0 C 0.886719 0 0.00390625 0.859375 0.00390625 1.917969 L 0.00390625 10.441406 C 0.00390625 11.5 0.886719 12.359375 1.972656 12.359375 L 6.25 12.359375 C 6.476562 12.359375 6.660156 12.179688 6.660156 11.957031 C 6.660156 11.738281 6.476562 11.558594 6.25 11.558594 L 3.777344 11.558594 L 3.777344 10.855469 L 20.113281 10.855469 C 20.339844 10.855469 20.523438 10.675781 20.523438 10.453125 C 20.523438 10.234375 20.339844 10.054688 20.113281 10.054688 L 3.777344 10.054688 L 3.777344 9.351562 L 24.230469 9.351562 L 24.230469 10.054688 L 21.757812 10.054688 C 21.53125 10.054688 21.34375 10.234375 21.34375 10.453125 C 21.34375 10.675781 21.53125 10.855469 21.757812 10.855469 L 24.230469 10.855469 L 24.230469 11.558594 L 7.894531 11.558594 C 7.667969 11.558594 7.484375 11.738281 7.484375 11.957031 C 7.484375 12.179688 7.667969 12.359375 7.894531 12.359375 L 26.035156 12.359375 C 27.117188 12.359375 28.003906 11.5 28.003906 10.441406 L 28.003906 1.917969 C 28.003906 0.859375 27.117188 0 26.035156 0 Z M 26.03125 0 "/>
<path style=" stroke:none;fill-rule:nonzero;fill:rgb(92.941176%,41.176471%,36.078431%);fill-opacity:1;" d="M 24.636719 3.253906 C 24.863281 3.253906 25.046875 3.074219 25.046875 2.855469 C 25.046875 2.632812 24.863281 2.453125 24.636719 2.453125 L 23.421875 2.453125 C 23.195312 2.453125 23.011719 2.632812 23.011719 2.855469 C 23.011719 3.074219 23.195312 3.253906 23.421875 3.253906 Z M 24.636719 3.253906 "/>
<path style=" stroke:none;fill-rule:nonzero;fill:rgb(92.941176%,41.176471%,36.078431%);fill-opacity:1;" d="M 21.546875 3.253906 C 21.773438 3.253906 21.957031 3.074219 21.957031 2.855469 C 21.957031 2.632812 21.773438 2.453125 21.546875 2.453125 L 13.765625 2.453125 C 13.539062 2.453125 13.355469 2.632812 13.355469 2.855469 C 13.355469 3.074219 13.539062 3.253906 13.765625 3.253906 Z M 21.546875 3.253906 "/>
</g>
</svg>
