<?xml version="1.0" encoding="UTF-8"?>
<svg xmlns="http://www.w3.org/2000/svg" xmlns:xlink="http://www.w3.org/1999/xlink" width="28px" height="28px" viewBox="0 0 28 28" version="1.1">
<g id="surface1">
<path style=" stroke:none;fill-rule:nonzero;fill:rgb(92.941176%,41.176471%,36.078431%);fill-opacity:1;" d="M 24.78125 8.75 C 24.804688 8.75 24.859375 8.75 24.882812 8.722656 C 25.851562 8.476562 26.816406 8.175781 27.734375 7.78125 C 27.9375 7.679688 28.015625 7.429688 27.910156 7.234375 C 27.808594 7.035156 27.578125 6.957031 27.375 7.035156 C 26.488281 7.40625 25.570312 7.703125 24.628906 7.929688 C 24.402344 7.976562 24.273438 8.203125 24.324219 8.425781 C 24.425781 8.625 24.601562 8.75 24.78125 8.75 Z M 24.78125 8.75 "/>
<path style=" stroke:none;fill-rule:nonzero;fill:rgb(92.941176%,41.176471%,36.078431%);fill-opacity:1;" d="M 0.511719 8.179688 C 4.785156 7.285156 8.929688 8.105469 12.570312 8.824219 C 14.121094 9.171875 15.671875 9.421875 17.25 9.570312 L 17.277344 9.570312 C 17.503906 9.570312 17.683594 9.398438 17.683594 9.171875 C 17.683594 8.976562 17.503906 8.800781 17.300781 8.777344 C 15.746094 8.628906 14.21875 8.378906 12.71875 8.03125 C 9.003906 7.285156 4.78125 6.441406 0.332031 7.386719 C 0.101562 7.4375 -0.0273438 7.660156 0.0273438 7.859375 C 0.078125 8.054688 0.28125 8.230469 0.507812 8.179688 Z M 0.511719 8.179688 "/>
<path style=" stroke:none;fill-rule:nonzero;fill:rgb(92.941176%,41.176471%,36.078431%);fill-opacity:1;" d="M 12.902344 18.148438 C 14.554688 18.644531 16.257812 19.015625 17.992188 19.238281 C 18.5 19.289062 19.007812 19.316406 19.492188 19.316406 C 22.363281 19.316406 25.1875 18.667969 27.785156 17.425781 C 27.988281 17.324219 28.066406 17.078125 27.9375 16.878906 C 27.835938 16.679688 27.578125 16.605469 27.375 16.730469 C 24.476562 18.097656 21.273438 18.695312 18.066406 18.46875 C 16.390625 18.246094 14.734375 17.898438 13.132812 17.402344 C 12.597656 17.253906 12.039062 17.101562 11.480469 16.953125 C 11.25 16.902344 11.023438 17.027344 10.972656 17.253906 C 10.917969 17.476562 11.046875 17.699219 11.277344 17.75 C 11.835938 17.851562 12.398438 18 12.90625 18.148438 Z M 12.902344 18.148438 "/>
<path style=" stroke:none;fill-rule:nonzero;fill:rgb(92.941176%,41.176471%,36.078431%);fill-opacity:1;" d="M 0.410156 16.929688 C 0.4375 16.929688 0.460938 16.929688 0.488281 16.929688 C 1.558594 16.707031 2.648438 16.605469 3.746094 16.578125 C 3.972656 16.578125 4.152344 16.40625 4.152344 16.183594 C 4.152344 15.960938 3.972656 15.785156 3.746094 15.785156 C 2.601562 15.785156 1.453125 15.910156 0.335938 16.136719 C 0.109375 16.183594 -0.0195312 16.382812 0.00390625 16.605469 C 0.0546875 16.804688 0.234375 16.929688 0.410156 16.929688 Z M 0.410156 16.929688 "/>
<path style=" stroke:none;fill-rule:nonzero;fill:rgb(92.941176%,41.176471%,36.078431%);fill-opacity:1;" d="M 27.425781 13.96875 C 27.375 13.996094 22.617188 15.933594 16.128906 13.175781 C 11.628906 11.261719 4.226562 9.992188 0.359375 11.160156 C 0.128906 11.234375 0.0273438 11.460938 0.078125 11.65625 C 0.15625 11.882812 0.386719 11.980469 0.589844 11.929688 C 4.277344 10.8125 11.425781 12.03125 15.800781 13.894531 C 18.089844 14.914062 20.582031 15.4375 23.101562 15.460938 C 24.679688 15.488281 26.257812 15.238281 27.757812 14.691406 C 27.960938 14.589844 28.0625 14.367188 27.960938 14.167969 C 27.859375 13.96875 27.628906 13.871094 27.425781 13.96875 Z M 27.425781 13.96875 "/>
<path style=" stroke:none;fill-rule:nonzero;fill:rgb(92.941176%,41.176471%,36.078431%);fill-opacity:1;" d="M 27.453125 21.578125 C 25.875 22 24.273438 22.175781 22.644531 22.101562 C 22.363281 21.550781 21.703125 21.328125 21.140625 21.601562 C 20.964844 21.675781 20.808594 21.800781 20.710938 21.976562 C 19.132812 21.804688 17.582031 21.453125 16.082031 20.980469 C 11.605469 19.539062 4.203125 18.570312 0.359375 19.464844 C 0.128906 19.515625 0.00390625 19.738281 0.0546875 19.960938 C 0.105469 20.160156 0.332031 20.3125 0.535156 20.261719 C 4.25 19.390625 11.425781 20.335938 15.796875 21.753906 C 17.324219 22.25 18.902344 22.597656 20.503906 22.773438 C 20.605469 23.371094 21.164062 23.765625 21.777344 23.691406 C 22.207031 23.617188 22.566406 23.316406 22.667969 22.921875 C 22.792969 22.921875 22.921875 22.921875 23.046875 22.921875 C 24.597656 22.945312 26.152344 22.773438 27.675781 22.347656 C 27.902344 22.273438 28.007812 22.050781 27.929688 21.824219 C 27.902344 21.628906 27.675781 21.503906 27.445312 21.578125 Z M 21.652344 22.894531 C 21.5 22.894531 21.34375 22.773438 21.34375 22.597656 C 21.34375 22.421875 21.472656 22.296875 21.652344 22.296875 C 21.828125 22.296875 21.957031 22.421875 21.957031 22.597656 C 21.957031 22.746094 21.804688 22.894531 21.652344 22.894531 Z M 21.652344 22.894531 "/>
<path style=" stroke:none;fill-rule:nonzero;fill:rgb(92.941176%,41.176471%,36.078431%);fill-opacity:1;" d="M 18.601562 10.890625 C 18.828125 10.890625 19.007812 10.714844 19.007812 10.492188 L 19.007812 10.441406 L 19.742188 10.441406 C 19.769531 10.542969 19.820312 10.640625 19.871094 10.742188 L 19.335938 11.261719 L 19.285156 11.210938 C 19.132812 11.066406 18.851562 11.066406 18.699219 11.210938 C 18.546875 11.359375 18.546875 11.632812 18.699219 11.785156 L 19.359375 12.429688 C 19.511719 12.578125 19.789062 12.578125 19.945312 12.429688 C 20.097656 12.28125 20.097656 12.007812 19.945312 11.859375 L 19.894531 11.808594 L 20.425781 11.285156 C 20.53125 11.335938 20.628906 11.386719 20.734375 11.410156 L 20.734375 12.132812 L 20.683594 12.132812 C 20.453125 12.132812 20.277344 12.304688 20.277344 12.527344 C 20.277344 12.753906 20.453125 12.925781 20.683594 12.925781 L 21.621094 12.925781 C 21.851562 12.925781 22.027344 12.753906 22.027344 12.527344 C 22.027344 12.304688 21.851562 12.132812 21.621094 12.132812 L 21.546875 12.132812 L 21.546875 11.410156 C 21.648438 11.386719 21.75 11.335938 21.851562 11.285156 L 22.386719 11.808594 L 22.335938 11.859375 C 22.183594 12.007812 22.183594 12.28125 22.335938 12.429688 C 22.484375 12.578125 22.765625 12.578125 22.921875 12.429688 L 23.582031 11.785156 C 23.734375 11.636719 23.734375 11.363281 23.582031 11.210938 C 23.429688 11.066406 23.148438 11.066406 22.996094 11.210938 L 22.945312 11.261719 L 22.410156 10.742188 C 22.460938 10.640625 22.511719 10.542969 22.535156 10.441406 L 23.273438 10.441406 L 23.273438 10.492188 C 23.273438 10.714844 23.449219 10.890625 23.679688 10.890625 C 23.90625 10.890625 24.085938 10.714844 24.085938 10.492188 L 24.085938 9.574219 C 24.085938 9.347656 23.90625 9.175781 23.679688 9.175781 C 23.449219 9.175781 23.273438 9.347656 23.273438 9.574219 L 23.273438 9.621094 L 22.535156 9.621094 C 22.507812 9.523438 22.457031 9.425781 22.40625 9.324219 L 22.941406 8.800781 L 22.992188 8.851562 C 23.144531 9 23.425781 9 23.578125 8.851562 C 23.730469 8.703125 23.730469 8.429688 23.578125 8.28125 L 22.917969 7.632812 C 22.765625 7.484375 22.484375 7.484375 22.332031 7.632812 C 22.179688 7.78125 22.179688 8.054688 22.332031 8.207031 L 22.382812 8.257812 L 21.847656 8.777344 C 21.746094 8.730469 21.644531 8.679688 21.542969 8.65625 L 21.542969 7.933594 L 21.59375 7.933594 C 21.824219 7.933594 22 7.761719 22 7.539062 C 22 7.316406 21.824219 7.140625 21.59375 7.140625 L 20.652344 7.140625 C 20.425781 7.140625 20.246094 7.316406 20.246094 7.539062 C 20.246094 7.761719 20.425781 7.933594 20.652344 7.933594 L 20.707031 7.933594 L 20.707031 8.65625 C 20.601562 8.679688 20.503906 8.730469 20.398438 8.777344 L 19.863281 8.257812 L 19.917969 8.207031 C 20.066406 8.058594 20.066406 7.785156 19.917969 7.632812 C 19.765625 7.484375 19.484375 7.484375 19.332031 7.632812 L 18.667969 8.28125 C 18.519531 8.429688 18.519531 8.703125 18.667969 8.851562 C 18.820312 9 19.101562 9 19.253906 8.851562 L 19.308594 8.800781 L 19.839844 9.324219 C 19.789062 9.425781 19.738281 9.523438 19.714844 9.621094 L 18.976562 9.621094 L 18.976562 9.574219 C 18.976562 9.347656 18.796875 9.175781 18.570312 9.175781 C 18.339844 9.175781 18.164062 9.347656 18.164062 9.574219 L 18.164062 10.492188 C 18.1875 10.691406 18.367188 10.890625 18.59375 10.890625 Z M 21.832031 10.019531 C 21.832031 10.367188 21.550781 10.664062 21.167969 10.664062 C 20.8125 10.664062 20.507812 10.390625 20.507812 10.019531 C 20.507812 9.671875 20.789062 9.375 21.167969 9.375 C 21.527344 9.375 21.832031 9.671875 21.832031 10.019531 Z M 21.832031 10.019531 "/>
<path style=" stroke:none;fill-rule:nonzero;fill:rgb(92.941176%,41.176471%,36.078431%);fill-opacity:1;" d="M 13.996094 7.382812 C 14.808594 7.382812 15.46875 6.738281 15.46875 5.941406 C 15.46875 5.144531 14.808594 4.5 13.996094 4.5 C 13.179688 4.5 12.519531 5.144531 12.519531 5.941406 C 12.519531 6.738281 13.179688 7.382812 13.996094 7.382812 Z M 13.996094 5.320312 C 14.351562 5.320312 14.65625 5.59375 14.65625 5.964844 C 14.65625 6.316406 14.375 6.613281 13.996094 6.613281 C 13.636719 6.613281 13.332031 6.339844 13.332031 5.964844 C 13.359375 5.59375 13.640625 5.320312 13.996094 5.320312 Z M 13.996094 5.320312 "/>
<path style=" stroke:none;fill-rule:nonzero;fill:rgb(92.941176%,41.176471%,36.078431%);fill-opacity:1;" d="M 5.140625 14.914062 C 4.914062 14.914062 4.738281 15.089844 4.738281 15.3125 L 4.738281 16.230469 C 4.738281 16.453125 4.914062 16.628906 5.140625 16.628906 C 5.371094 16.628906 5.546875 16.453125 5.546875 16.230469 L 5.546875 16.179688 L 6.285156 16.179688 C 6.3125 16.28125 6.363281 16.378906 6.414062 16.480469 L 5.878906 17 L 5.828125 16.953125 C 5.675781 16.804688 5.398438 16.804688 5.242188 16.953125 C 5.089844 17.101562 5.089844 17.375 5.242188 17.523438 L 5.90625 18.171875 C 6.058594 18.320312 6.335938 18.320312 6.492188 18.171875 C 6.644531 18.023438 6.644531 17.75 6.492188 17.597656 L 6.441406 17.550781 L 6.976562 17.027344 C 7.078125 17.078125 7.179688 17.128906 7.28125 17.152344 L 7.28125 17.875 L 7.230469 17.875 C 7 17.875 6.824219 18.046875 6.824219 18.269531 C 6.824219 18.492188 7 18.667969 7.230469 18.667969 L 8.171875 18.667969 C 8.398438 18.667969 8.578125 18.492188 8.578125 18.269531 C 8.578125 18.046875 8.398438 17.875 8.171875 17.875 L 8.117188 17.875 L 8.117188 17.152344 C 8.222656 17.128906 8.320312 17.078125 8.425781 17.027344 L 8.960938 17.550781 L 8.90625 17.597656 C 8.757812 17.746094 8.757812 18.019531 8.90625 18.171875 C 9.058594 18.320312 9.339844 18.320312 9.492188 18.171875 L 10.152344 17.527344 C 10.304688 17.378906 10.304688 17.105469 10.152344 16.953125 C 10.003906 16.804688 9.722656 16.804688 9.570312 16.953125 L 9.515625 17.003906 L 8.984375 16.480469 C 9.035156 16.382812 9.085938 16.285156 9.109375 16.183594 L 9.847656 16.183594 L 9.847656 16.234375 C 9.847656 16.457031 10.023438 16.628906 10.253906 16.628906 C 10.480469 16.628906 10.660156 16.457031 10.660156 16.234375 L 10.660156 15.3125 C 10.660156 15.089844 10.480469 14.917969 10.253906 14.917969 C 10.023438 14.917969 9.847656 15.089844 9.847656 15.3125 L 9.847656 15.363281 L 9.109375 15.363281 C 9.082031 15.265625 9.03125 15.164062 8.984375 15.066406 L 9.515625 14.542969 L 9.570312 14.59375 C 9.71875 14.742188 10 14.742188 10.152344 14.59375 C 10.304688 14.445312 10.304688 14.171875 10.152344 14.019531 L 9.492188 13.375 C 9.34375 13.226562 9.0625 13.226562 8.90625 13.375 C 8.757812 13.523438 8.757812 13.796875 8.90625 13.949219 L 8.960938 13.996094 L 8.425781 14.519531 C 8.320312 14.46875 8.222656 14.417969 8.117188 14.394531 L 8.117188 13.675781 L 8.171875 13.675781 C 8.398438 13.675781 8.578125 13.5 8.578125 13.277344 C 8.578125 13.054688 8.398438 12.878906 8.171875 12.878906 L 7.230469 12.878906 C 7 12.878906 6.824219 13.054688 6.824219 13.277344 C 6.824219 13.5 7 13.675781 7.230469 13.675781 L 7.28125 13.675781 L 7.28125 14.394531 C 7.179688 14.417969 7.078125 14.46875 6.976562 14.519531 L 6.441406 13.996094 L 6.492188 13.949219 C 6.644531 13.800781 6.644531 13.527344 6.492188 13.375 C 6.339844 13.226562 6.058594 13.226562 5.90625 13.375 L 5.246094 14.019531 C 5.09375 14.167969 5.09375 14.441406 5.246094 14.59375 C 5.398438 14.742188 5.675781 14.742188 5.832031 14.59375 L 5.882812 14.542969 L 6.417969 15.066406 C 6.367188 15.164062 6.3125 15.265625 6.289062 15.363281 L 5.550781 15.363281 L 5.550781 15.3125 C 5.550781 15.089844 5.375 14.917969 5.144531 14.917969 Z M 8.375 15.785156 C 8.375 16.132812 8.09375 16.429688 7.710938 16.429688 C 7.355469 16.429688 7.050781 16.15625 7.050781 15.785156 C 7.050781 15.433594 7.332031 15.136719 7.710938 15.136719 C 8.070312 15.136719 8.375 15.4375 8.375 15.785156 Z M 8.375 15.785156 "/>
</g>
</svg>
