<?xml version="1.0" encoding="UTF-8"?>
<svg xmlns="http://www.w3.org/2000/svg" xmlns:xlink="http://www.w3.org/1999/xlink" width="28px" height="28px" viewBox="0 0 28 19" version="1.1">
<g id="surface1">
<path style=" stroke:none;fill-rule:nonzero;fill:rgb(92.941176%,41.176471%,36.078431%);fill-opacity:1;" d="M 24.78125 4.25 C 24.804688 4.25 24.859375 4.25 24.882812 4.222656 C 25.851562 3.976562 26.816406 3.675781 27.734375 3.28125 C 27.9375 3.179688 28.015625 2.929688 27.910156 2.734375 C 27.808594 2.535156 27.578125 2.457031 27.375 2.535156 C 26.488281 2.90625 25.570312 3.203125 24.628906 3.429688 C 24.402344 3.476562 24.273438 3.703125 24.324219 3.925781 C 24.425781 4.125 24.601562 4.25 24.78125 4.25 Z M 24.78125 4.25 "/>
<path style=" stroke:none;fill-rule:nonzero;fill:rgb(92.941176%,41.176471%,36.078431%);fill-opacity:1;" d="M 0.511719 3.679688 C 4.785156 2.785156 8.929688 3.605469 12.570312 4.324219 C 14.121094 4.671875 15.671875 4.921875 17.25 5.070312 L 17.277344 5.070312 C 17.503906 5.070312 17.683594 4.898438 17.683594 4.671875 C 17.683594 4.476562 17.503906 4.300781 17.300781 4.277344 C 15.746094 4.128906 14.21875 3.878906 12.71875 3.53125 C 9.003906 2.785156 4.78125 1.941406 0.332031 2.886719 C 0.101562 2.9375 -0.0273438 3.160156 0.0273438 3.359375 C 0.078125 3.554688 0.28125 3.730469 0.507812 3.679688 Z M 0.511719 3.679688 "/>
<path style=" stroke:none;fill-rule:nonzero;fill:rgb(92.941176%,41.176471%,36.078431%);fill-opacity:1;" d="M 12.902344 13.648438 C 14.554688 14.144531 16.257812 14.515625 17.992188 14.738281 C 18.5 14.789062 19.007812 14.816406 19.492188 14.816406 C 22.363281 14.816406 25.1875 14.167969 27.785156 12.925781 C 27.988281 12.824219 28.066406 12.578125 27.9375 12.378906 C 27.835938 12.179688 27.578125 12.105469 27.375 12.230469 C 24.476562 13.597656 21.273438 14.195312 18.066406 13.96875 C 16.390625 13.746094 14.734375 13.398438 13.132812 12.902344 C 12.597656 12.753906 12.039062 12.601562 11.480469 12.453125 C 11.25 12.402344 11.023438 12.527344 10.972656 12.753906 C 10.917969 12.976562 11.046875 13.199219 11.277344 13.25 C 11.835938 13.351562 12.398438 13.5 12.90625 13.648438 Z M 12.902344 13.648438 "/>
<path style=" stroke:none;fill-rule:nonzero;fill:rgb(92.941176%,41.176471%,36.078431%);fill-opacity:1;" d="M 0.410156 12.429688 C 0.4375 12.429688 0.460938 12.429688 0.488281 12.429688 C 1.558594 12.207031 2.648438 12.105469 3.746094 12.078125 C 3.972656 12.078125 4.152344 11.90625 4.152344 11.683594 C 4.152344 11.460938 3.972656 11.285156 3.746094 11.285156 C 2.601562 11.285156 1.453125 11.410156 0.335938 11.636719 C 0.109375 11.683594 -0.0195312 11.882812 0.00390625 12.105469 C 0.0546875 12.304688 0.234375 12.429688 0.410156 12.429688 Z M 0.410156 12.429688 "/>
<path style=" stroke:none;fill-rule:nonzero;fill:rgb(92.941176%,41.176471%,36.078431%);fill-opacity:1;" d="M 27.425781 9.46875 C 27.375 9.496094 22.617188 11.433594 16.128906 8.675781 C 11.628906 6.761719 4.226562 5.492188 0.359375 6.660156 C 0.128906 6.734375 0.0273438 6.960938 0.078125 7.15625 C 0.15625 7.382812 0.386719 7.480469 0.589844 7.429688 C 4.277344 6.3125 11.425781 7.53125 15.800781 9.394531 C 18.089844 10.414062 20.582031 10.9375 23.101562 10.960938 C 24.679688 10.988281 26.257812 10.738281 27.757812 10.191406 C 27.960938 10.089844 28.0625 9.867188 27.960938 9.667969 C 27.859375 9.46875 27.628906 9.371094 27.425781 9.46875 Z M 27.425781 9.46875 "/>
<path style=" stroke:none;fill-rule:nonzero;fill:rgb(92.941176%,41.176471%,36.078431%);fill-opacity:1;" d="M 27.453125 17.078125 C 25.875 17.5 24.273438 17.675781 22.644531 17.601562 C 22.363281 17.050781 21.703125 16.828125 21.140625 17.101562 C 20.964844 17.175781 20.808594 17.300781 20.710938 17.476562 C 19.132812 17.304688 17.582031 16.953125 16.082031 16.480469 C 11.605469 15.039062 4.203125 14.070312 0.359375 14.964844 C 0.128906 15.015625 0.00390625 15.238281 0.0546875 15.460938 C 0.105469 15.660156 0.332031 15.8125 0.535156 15.761719 C 4.25 14.890625 11.425781 15.835938 15.796875 17.253906 C 17.324219 17.75 18.902344 18.097656 20.503906 18.273438 C 20.605469 18.871094 21.164062 19.265625 21.777344 19.191406 C 22.207031 19.117188 22.566406 18.816406 22.667969 18.421875 C 22.792969 18.421875 22.921875 18.421875 23.046875 18.421875 C 24.597656 18.445312 26.152344 18.273438 27.675781 17.847656 C 27.902344 17.773438 28.007812 17.550781 27.929688 17.324219 C 27.902344 17.128906 27.675781 17.003906 27.445312 17.078125 Z M 21.652344 18.394531 C 21.5 18.394531 21.34375 18.273438 21.34375 18.097656 C 21.34375 17.921875 21.472656 17.796875 21.652344 17.796875 C 21.828125 17.796875 21.957031 17.921875 21.957031 18.097656 C 21.957031 18.246094 21.804688 18.394531 21.652344 18.394531 Z M 21.652344 18.394531 "/>
<path style=" stroke:none;fill-rule:nonzero;fill:rgb(92.941176%,41.176471%,36.078431%);fill-opacity:1;" d="M 18.601562 6.390625 C 18.828125 6.390625 19.007812 6.214844 19.007812 5.992188 L 19.007812 5.941406 L 19.742188 5.941406 C 19.769531 6.042969 19.820312 6.140625 19.871094 6.242188 L 19.335938 6.761719 L 19.285156 6.710938 C 19.132812 6.566406 18.851562 6.566406 18.699219 6.710938 C 18.546875 6.859375 18.546875 7.132812 18.699219 7.285156 L 19.359375 7.929688 C 19.511719 8.078125 19.789062 8.078125 19.945312 7.929688 C 20.097656 7.78125 20.097656 7.507812 19.945312 7.359375 L 19.894531 7.308594 L 20.425781 6.785156 C 20.53125 6.835938 20.628906 6.886719 20.734375 6.910156 L 20.734375 7.632812 L 20.683594 7.632812 C 20.453125 7.632812 20.277344 7.804688 20.277344 8.027344 C 20.277344 8.253906 20.453125 8.425781 20.683594 8.425781 L 21.621094 8.425781 C 21.851562 8.425781 22.027344 8.253906 22.027344 8.027344 C 22.027344 7.804688 21.851562 7.632812 21.621094 7.632812 L 21.546875 7.632812 L 21.546875 6.910156 C 21.648438 6.886719 21.75 6.835938 21.851562 6.785156 L 22.386719 7.308594 L 22.335938 7.359375 C 22.183594 7.507812 22.183594 7.78125 22.335938 7.929688 C 22.484375 8.078125 22.765625 8.078125 22.921875 7.929688 L 23.582031 7.285156 C 23.734375 7.136719 23.734375 6.863281 23.582031 6.710938 C 23.429688 6.566406 23.148438 6.566406 22.996094 6.710938 L 22.945312 6.761719 L 22.410156 6.242188 C 22.460938 6.140625 22.511719 6.042969 22.535156 5.941406 L 23.273438 5.941406 L 23.273438 5.992188 C 23.273438 6.214844 23.449219 6.390625 23.679688 6.390625 C 23.90625 6.390625 24.085938 6.214844 24.085938 5.992188 L 24.085938 5.074219 C 24.085938 4.847656 23.90625 4.675781 23.679688 4.675781 C 23.449219 4.675781 23.273438 4.847656 23.273438 5.074219 L 23.273438 5.121094 L 22.535156 5.121094 C 22.507812 5.023438 22.457031 4.925781 22.40625 4.824219 L 22.941406 4.300781 L 22.992188 4.351562 C 23.144531 4.5 23.425781 4.5 23.578125 4.351562 C 23.730469 4.203125 23.730469 3.929688 23.578125 3.78125 L 22.917969 3.132812 C 22.765625 2.984375 22.484375 2.984375 22.332031 3.132812 C 22.179688 3.28125 22.179688 3.554688 22.332031 3.707031 L 22.382812 3.757812 L 21.847656 4.277344 C 21.746094 4.230469 21.644531 4.179688 21.542969 4.15625 L 21.542969 3.433594 L 21.59375 3.433594 C 21.824219 3.433594 22 3.261719 22 3.039062 C 22 2.816406 21.824219 2.640625 21.59375 2.640625 L 20.652344 2.640625 C 20.425781 2.640625 20.246094 2.816406 20.246094 3.039062 C 20.246094 3.261719 20.425781 3.433594 20.652344 3.433594 L 20.707031 3.433594 L 20.707031 4.15625 C 20.601562 4.179688 20.503906 4.230469 20.398438 4.277344 L 19.863281 3.757812 L 19.917969 3.707031 C 20.066406 3.558594 20.066406 3.285156 19.917969 3.132812 C 19.765625 2.984375 19.484375 2.984375 19.332031 3.132812 L 18.667969 3.78125 C 18.519531 3.929688 18.519531 4.203125 18.667969 4.351562 C 18.820312 4.5 19.101562 4.5 19.253906 4.351562 L 19.308594 4.300781 L 19.839844 4.824219 C 19.789062 4.925781 19.738281 5.023438 19.714844 5.121094 L 18.976562 5.121094 L 18.976562 5.074219 C 18.976562 4.847656 18.796875 4.675781 18.570312 4.675781 C 18.339844 4.675781 18.164062 4.847656 18.164062 5.074219 L 18.164062 5.992188 C 18.1875 6.191406 18.367188 6.390625 18.59375 6.390625 Z M 21.832031 5.519531 C 21.832031 5.867188 21.550781 6.164062 21.167969 6.164062 C 20.8125 6.164062 20.507812 5.890625 20.507812 5.519531 C 20.507812 5.171875 20.789062 4.875 21.167969 4.875 C 21.527344 4.875 21.832031 5.171875 21.832031 5.519531 Z M 21.832031 5.519531 "/>
<path style=" stroke:none;fill-rule:nonzero;fill:rgb(92.941176%,41.176471%,36.078431%);fill-opacity:1;" d="M 13.996094 2.882812 C 14.808594 2.882812 15.46875 2.238281 15.46875 1.441406 C 15.46875 0.644531 14.808594 0 13.996094 0 C 13.179688 0 12.519531 0.644531 12.519531 1.441406 C 12.519531 2.238281 13.179688 2.882812 13.996094 2.882812 Z M 13.996094 0.820312 C 14.351562 0.820312 14.65625 1.09375 14.65625 1.464844 C 14.65625 1.816406 14.375 2.113281 13.996094 2.113281 C 13.636719 2.113281 13.332031 1.839844 13.332031 1.464844 C 13.359375 1.09375 13.640625 0.820312 13.996094 0.820312 Z M 13.996094 0.820312 "/>
<path style=" stroke:none;fill-rule:nonzero;fill:rgb(92.941176%,41.176471%,36.078431%);fill-opacity:1;" d="M 5.140625 10.414062 C 4.914062 10.414062 4.738281 10.589844 4.738281 10.8125 L 4.738281 11.730469 C 4.738281 11.953125 4.914062 12.128906 5.140625 12.128906 C 5.371094 12.128906 5.546875 11.953125 5.546875 11.730469 L 5.546875 11.679688 L 6.285156 11.679688 C 6.3125 11.78125 6.363281 11.878906 6.414062 11.980469 L 5.878906 12.5 L 5.828125 12.453125 C 5.675781 12.304688 5.398438 12.304688 5.242188 12.453125 C 5.089844 12.601562 5.089844 12.875 5.242188 13.023438 L 5.90625 13.671875 C 6.058594 13.820312 6.335938 13.820312 6.492188 13.671875 C 6.644531 13.523438 6.644531 13.25 6.492188 13.097656 L 6.441406 13.050781 L 6.976562 12.527344 C 7.078125 12.578125 7.179688 12.628906 7.28125 12.652344 L 7.28125 13.375 L 7.230469 13.375 C 7 13.375 6.824219 13.546875 6.824219 13.769531 C 6.824219 13.992188 7 14.167969 7.230469 14.167969 L 8.171875 14.167969 C 8.398438 14.167969 8.578125 13.992188 8.578125 13.769531 C 8.578125 13.546875 8.398438 13.375 8.171875 13.375 L 8.117188 13.375 L 8.117188 12.652344 C 8.222656 12.628906 8.320312 12.578125 8.425781 12.527344 L 8.960938 13.050781 L 8.90625 13.097656 C 8.757812 13.246094 8.757812 13.519531 8.90625 13.671875 C 9.058594 13.820312 9.339844 13.820312 9.492188 13.671875 L 10.152344 13.027344 C 10.304688 12.878906 10.304688 12.605469 10.152344 12.453125 C 10.003906 12.304688 9.722656 12.304688 9.570312 12.453125 L 9.515625 12.503906 L 8.984375 11.980469 C 9.035156 11.882812 9.085938 11.785156 9.109375 11.683594 L 9.847656 11.683594 L 9.847656 11.734375 C 9.847656 11.957031 10.023438 12.128906 10.253906 12.128906 C 10.480469 12.128906 10.660156 11.957031 10.660156 11.734375 L 10.660156 10.8125 C 10.660156 10.589844 10.480469 10.417969 10.253906 10.417969 C 10.023438 10.417969 9.847656 10.589844 9.847656 10.8125 L 9.847656 10.863281 L 9.109375 10.863281 C 9.082031 10.765625 9.03125 10.664062 8.984375 10.566406 L 9.515625 10.042969 L 9.570312 10.09375 C 9.71875 10.242188 10 10.242188 10.152344 10.09375 C 10.304688 9.945312 10.304688 9.671875 10.152344 9.519531 L 9.492188 8.875 C 9.34375 8.726562 9.0625 8.726562 8.90625 8.875 C 8.757812 9.023438 8.757812 9.296875 8.90625 9.449219 L 8.960938 9.496094 L 8.425781 10.019531 C 8.320312 9.96875 8.222656 9.917969 8.117188 9.894531 L 8.117188 9.175781 L 8.171875 9.175781 C 8.398438 9.175781 8.578125 9 8.578125 8.777344 C 8.578125 8.554688 8.398438 8.378906 8.171875 8.378906 L 7.230469 8.378906 C 7 8.378906 6.824219 8.554688 6.824219 8.777344 C 6.824219 9 7 9.175781 7.230469 9.175781 L 7.28125 9.175781 L 7.28125 9.894531 C 7.179688 9.917969 7.078125 9.96875 6.976562 10.019531 L 6.441406 9.496094 L 6.492188 9.449219 C 6.644531 9.300781 6.644531 9.027344 6.492188 8.875 C 6.339844 8.726562 6.058594 8.726562 5.90625 8.875 L 5.246094 9.519531 C 5.09375 9.667969 5.09375 9.941406 5.246094 10.09375 C 5.398438 10.242188 5.675781 10.242188 5.832031 10.09375 L 5.882812 10.042969 L 6.417969 10.566406 C 6.367188 10.664062 6.3125 10.765625 6.289062 10.863281 L 5.550781 10.863281 L 5.550781 10.8125 C 5.550781 10.589844 5.375 10.417969 5.144531 10.417969 Z M 8.375 11.285156 C 8.375 11.632812 8.09375 11.929688 7.710938 11.929688 C 7.355469 11.929688 7.050781 11.65625 7.050781 11.285156 C 7.050781 10.933594 7.332031 10.636719 7.710938 10.636719 C 8.070312 10.636719 8.375 10.9375 8.375 11.285156 Z M 8.375 11.285156 "/>
</g>
</svg>
