<?xml version="1.0" encoding="UTF-8"?>
<svg xmlns="http://www.w3.org/2000/svg" xmlns:xlink="http://www.w3.org/1999/xlink" width="28px" height="28px" viewBox="0 0 28 28" version="1.1">
<g id="surface1">
<path style=" stroke:none;fill-rule:nonzero;fill:rgb(92.941176%,41.176471%,36.078431%);fill-opacity:1;" d="M 23.839844 15.136719 L 21.617188 15.117188 C 21.1875 15.117188 20.902344 14.902344 20.902344 14.5 C 20.902344 14.09375 21.328125 13.894531 21.757812 13.894531 L 24.101562 13.894531 C 24.394531 13.894531 24.664062 14.050781 24.796875 14.296875 L 27.917969 20.148438 C 28.175781 20.632812 27.796875 21.203125 27.21875 21.203125 L 11.214844 21.144531 L 12.003906 20.046875 L 26.597656 20.121094 Z M 23.839844 15.136719 "/>
<path style=" stroke:none;fill-rule:nonzero;fill:rgb(92.941176%,41.176471%,36.078431%);fill-opacity:1;" d="M 4.160156 15.105469 L 6.382812 15.085938 C 6.8125 15.085938 7.097656 14.871094 7.097656 14.46875 C 7.097656 14.0625 6.671875 13.863281 6.242188 13.863281 L 3.898438 13.863281 C 3.601562 13.863281 3.335938 14.019531 3.203125 14.265625 L 0.0820312 20.117188 C -0.175781 20.601562 0.203125 21.171875 0.78125 21.171875 L 13.261719 21.148438 L 12.472656 20.046875 L 1.402344 20.089844 L 4.160156 15.101562 Z M 4.160156 15.105469 "/>
<path style=" stroke:none;fill-rule:nonzero;fill:rgb(92.941176%,41.176471%,36.078431%);fill-opacity:1;" d="M 10.832031 10.179688 C 10.414062 9.386719 10.082031 8.761719 10.808594 7.738281 C 10.964844 7.523438 10.902344 7.226562 10.667969 7.078125 C 10.4375 6.933594 10.121094 6.992188 9.964844 7.210938 C 8.914062 8.691406 9.472656 9.75 9.921875 10.601562 C 10.339844 11.398438 10.644531 11.972656 9.964844 12.929688 C 9.808594 13.148438 9.871094 13.441406 10.105469 13.589844 C 10.191406 13.644531 10.289062 13.667969 10.386719 13.667969 C 10.550781 13.667969 10.710938 13.59375 10.808594 13.457031 C 11.8125 12.046875 11.269531 11.007812 10.832031 10.179688 Z M 10.832031 10.179688 "/>
<path style=" stroke:none;fill-rule:nonzero;fill:rgb(92.941176%,41.176471%,36.078431%);fill-opacity:1;" d="M 14.878906 10.179688 C 14.457031 9.386719 14.128906 8.761719 14.855469 7.738281 C 15.011719 7.523438 14.949219 7.226562 14.714844 7.078125 C 14.484375 6.933594 14.164062 6.992188 14.011719 7.210938 C 12.957031 8.691406 13.515625 9.75 13.964844 10.601562 C 14.382812 11.398438 14.6875 11.972656 14.011719 12.929688 C 13.855469 13.148438 13.917969 13.441406 14.152344 13.589844 C 14.238281 13.644531 14.335938 13.667969 14.433594 13.667969 C 14.597656 13.667969 14.757812 13.59375 14.855469 13.457031 C 15.859375 12.046875 15.316406 11.007812 14.878906 10.179688 Z M 14.878906 10.179688 "/>
<path style=" stroke:none;fill-rule:nonzero;fill:rgb(92.941176%,41.176471%,36.078431%);fill-opacity:1;" d="M 18.925781 10.179688 C 18.503906 9.386719 18.175781 8.761719 18.902344 7.738281 C 19.058594 7.523438 18.996094 7.226562 18.761719 7.078125 C 18.53125 6.933594 18.210938 6.992188 18.058594 7.210938 C 17.003906 8.691406 17.5625 9.75 18.011719 10.601562 C 18.433594 11.398438 18.738281 11.972656 18.058594 12.929688 C 17.902344 13.148438 17.964844 13.441406 18.199219 13.589844 C 18.285156 13.644531 18.382812 13.667969 18.480469 13.667969 C 18.644531 13.667969 18.804688 13.59375 18.902344 13.457031 C 19.90625 12.046875 19.363281 11.007812 18.925781 10.179688 Z M 18.925781 10.179688 "/>
</g>
</svg>
