<?xml version="1.0" encoding="UTF-8"?>
<svg xmlns="http://www.w3.org/2000/svg" xmlns:xlink="http://www.w3.org/1999/xlink" width="28px" height="28px" viewBox="0 0 28 14" version="1.1">
<g id="surface1">
<path style=" stroke:none;fill-rule:nonzero;fill:rgb(92.941176%,41.176471%,36.078431%);fill-opacity:1;" d="M 23.839844 8.136719 L 21.617188 8.117188 C 21.1875 8.117188 20.902344 7.902344 20.902344 7.5 C 20.902344 7.09375 21.328125 6.894531 21.757812 6.894531 L 24.101562 6.894531 C 24.394531 6.894531 24.664062 7.050781 24.796875 7.296875 L 27.917969 13.148438 C 28.175781 13.632812 27.796875 14.203125 27.21875 14.203125 L 11.214844 14.144531 L 12.003906 13.046875 L 26.597656 13.121094 Z M 23.839844 8.136719 "/>
<path style=" stroke:none;fill-rule:nonzero;fill:rgb(92.941176%,41.176471%,36.078431%);fill-opacity:1;" d="M 4.160156 8.105469 L 6.382812 8.085938 C 6.8125 8.085938 7.097656 7.871094 7.097656 7.46875 C 7.097656 7.0625 6.671875 6.863281 6.242188 6.863281 L 3.898438 6.863281 C 3.601562 6.863281 3.335938 7.019531 3.203125 7.265625 L 0.0820312 13.117188 C -0.175781 13.601562 0.203125 14.171875 0.78125 14.171875 L 13.261719 14.148438 L 12.472656 13.046875 L 1.402344 13.089844 L 4.160156 8.101562 Z M 4.160156 8.105469 "/>
<path style=" stroke:none;fill-rule:nonzero;fill:rgb(92.941176%,41.176471%,36.078431%);fill-opacity:1;" d="M 10.832031 3.179688 C 10.414062 2.386719 10.082031 1.761719 10.808594 0.738281 C 10.964844 0.523438 10.902344 0.226562 10.667969 0.078125 C 10.4375 -0.0664062 10.121094 -0.0078125 9.964844 0.210938 C 8.914062 1.691406 9.472656 2.75 9.921875 3.601562 C 10.339844 4.398438 10.644531 4.972656 9.964844 5.929688 C 9.808594 6.148438 9.871094 6.441406 10.105469 6.589844 C 10.191406 6.644531 10.289062 6.667969 10.386719 6.667969 C 10.550781 6.667969 10.710938 6.59375 10.808594 6.457031 C 11.8125 5.046875 11.269531 4.007812 10.832031 3.179688 Z M 10.832031 3.179688 "/>
<path style=" stroke:none;fill-rule:nonzero;fill:rgb(92.941176%,41.176471%,36.078431%);fill-opacity:1;" d="M 14.878906 3.179688 C 14.457031 2.386719 14.128906 1.761719 14.855469 0.738281 C 15.011719 0.523438 14.949219 0.226562 14.714844 0.078125 C 14.484375 -0.0664062 14.164062 -0.0078125 14.011719 0.210938 C 12.957031 1.691406 13.515625 2.75 13.964844 3.601562 C 14.382812 4.398438 14.6875 4.972656 14.011719 5.929688 C 13.855469 6.148438 13.917969 6.441406 14.152344 6.589844 C 14.238281 6.644531 14.335938 6.667969 14.433594 6.667969 C 14.597656 6.667969 14.757812 6.59375 14.855469 6.457031 C 15.859375 5.046875 15.316406 4.007812 14.878906 3.179688 Z M 14.878906 3.179688 "/>
<path style=" stroke:none;fill-rule:nonzero;fill:rgb(92.941176%,41.176471%,36.078431%);fill-opacity:1;" d="M 18.925781 3.179688 C 18.503906 2.386719 18.175781 1.761719 18.902344 0.738281 C 19.058594 0.523438 18.996094 0.226562 18.761719 0.078125 C 18.53125 -0.0664062 18.210938 -0.0078125 18.058594 0.210938 C 17.003906 1.691406 17.5625 2.75 18.011719 3.601562 C 18.433594 4.398438 18.738281 4.972656 18.058594 5.929688 C 17.902344 6.148438 17.964844 6.441406 18.199219 6.589844 C 18.285156 6.644531 18.382812 6.667969 18.480469 6.667969 C 18.644531 6.667969 18.804688 6.59375 18.902344 6.457031 C 19.90625 5.046875 19.363281 4.007812 18.925781 3.179688 Z M 18.925781 3.179688 "/>
</g>
</svg>
