<?xml version="1.0" encoding="UTF-8"?>
<svg xmlns="http://www.w3.org/2000/svg" xmlns:xlink="http://www.w3.org/1999/xlink" width="28px" height="28px" viewBox="0 0 28 15" version="1.1">
<g id="surface1">
<path style=" stroke:none;fill-rule:nonzero;fill:rgb(92.941176%,41.176471%,36.078431%);fill-opacity:1;" d="M 18.941406 9.742188 L 17.175781 9.730469 C 16.835938 9.730469 16.609375 9.546875 16.609375 9.203125 C 16.609375 8.863281 16.949219 8.695312 17.289062 8.695312 L 19.148438 8.695312 C 19.382812 8.695312 19.601562 8.828125 19.703125 9.035156 L 22.183594 13.980469 C 22.390625 14.390625 22.089844 14.878906 21.628906 14.878906 L 8.914062 14.828125 L 9.542969 13.898438 L 21.136719 13.960938 L 18.945312 9.742188 Z M 18.941406 9.742188 "/>
<path style=" stroke:none;fill-rule:nonzero;fill:rgb(92.941176%,41.176471%,36.078431%);fill-opacity:1;" d="M 3.304688 9.71875 L 5.070312 9.703125 C 5.414062 9.703125 5.640625 9.519531 5.640625 9.179688 C 5.640625 8.835938 5.304688 8.667969 4.960938 8.667969 L 3.101562 8.667969 C 2.867188 8.667969 2.652344 8.800781 2.546875 9.007812 L 0.0664062 13.957031 C -0.140625 14.367188 0.160156 14.851562 0.621094 14.851562 L 10.539062 14.832031 L 9.910156 13.902344 L 1.117188 13.9375 Z M 3.304688 9.71875 "/>
<path style=" stroke:none;fill-rule:nonzero;fill:rgb(92.941176%,41.176471%,36.078431%);fill-opacity:1;" d="M 8.605469 5.550781 C 8.273438 4.882812 8.011719 4.355469 8.589844 3.488281 C 8.710938 3.304688 8.664062 3.054688 8.476562 2.933594 C 8.292969 2.808594 8.039062 2.859375 7.917969 3.042969 C 7.082031 4.292969 7.527344 5.191406 7.882812 5.910156 C 8.214844 6.585938 8.457031 7.070312 7.917969 7.878906 C 7.792969 8.0625 7.84375 8.3125 8.027344 8.4375 C 8.097656 8.480469 8.175781 8.503906 8.253906 8.503906 C 8.382812 8.503906 8.511719 8.441406 8.585938 8.324219 C 9.386719 7.132812 8.953125 6.257812 8.605469 5.554688 Z M 8.605469 5.550781 "/>
<path style=" stroke:none;fill-rule:nonzero;fill:rgb(92.941176%,41.176471%,36.078431%);fill-opacity:1;" d="M 11.820312 5.550781 C 11.488281 4.882812 11.226562 4.355469 11.804688 3.488281 C 11.929688 3.304688 11.878906 3.054688 11.691406 2.933594 C 11.507812 2.808594 11.257812 2.859375 11.132812 3.042969 C 10.296875 4.296875 10.742188 5.191406 11.097656 5.910156 C 11.429688 6.585938 11.671875 7.070312 11.132812 7.875 C 11.011719 8.0625 11.0625 8.3125 11.246094 8.433594 C 11.316406 8.480469 11.390625 8.503906 11.46875 8.503906 C 11.597656 8.503906 11.730469 8.441406 11.804688 8.324219 C 12.605469 7.128906 12.171875 6.253906 11.820312 5.550781 Z M 11.820312 5.550781 "/>
<path style=" stroke:none;fill-rule:nonzero;fill:rgb(92.941176%,41.176471%,36.078431%);fill-opacity:1;" d="M 15.039062 5.550781 C 14.707031 4.882812 14.445312 4.355469 15.023438 3.488281 C 15.144531 3.304688 15.09375 3.054688 14.910156 2.933594 C 14.726562 2.808594 14.472656 2.859375 14.351562 3.042969 C 13.515625 4.296875 13.960938 5.191406 14.316406 5.910156 C 14.648438 6.585938 14.890625 7.070312 14.351562 7.875 C 14.226562 8.0625 14.277344 8.3125 14.464844 8.433594 C 14.53125 8.480469 14.609375 8.503906 14.6875 8.503906 C 14.820312 8.503906 14.945312 8.441406 15.023438 8.324219 C 15.820312 7.128906 15.386719 6.253906 15.039062 5.550781 Z M 15.039062 5.550781 "/>
<path style=" stroke:none;fill-rule:nonzero;fill:rgb(92.941176%,41.176471%,36.078431%);fill-opacity:1;" d="M 21.40625 7.960938 L 21.40625 3.910156 L 22.539062 3.910156 L 22.539062 7.960938 Z M 19.882812 6.46875 L 19.882812 5.398438 L 24.070312 5.398438 L 24.070312 6.46875 Z M 19.882812 6.46875 "/>
<path style=" stroke:none;fill-rule:nonzero;fill:rgb(92.941176%,41.176471%,36.078431%);fill-opacity:1;" d="M 18.933594 0.804688 C 17.730469 1.496094 16.800781 2.578125 16.300781 3.871094 C 16.246094 4.011719 16.316406 4.171875 16.460938 4.226562 C 16.601562 4.28125 16.765625 4.210938 16.816406 4.066406 C 17.773438 1.578125 20.386719 0.140625 23.007812 0.652344 C 25.628906 1.167969 27.5 3.484375 27.445312 6.148438 C 27.390625 8.8125 25.425781 11.050781 22.789062 11.460938 C 22.691406 11.472656 22.609375 11.539062 22.570312 11.632812 C 22.535156 11.722656 22.550781 11.828125 22.613281 11.90625 C 22.675781 11.980469 22.773438 12.019531 22.871094 12.003906 C 25.269531 11.632812 27.21875 9.867188 27.8125 7.519531 C 28.40625 5.167969 27.539062 2.691406 25.601562 1.226562 C 23.664062 -0.238281 21.039062 -0.402344 18.933594 0.804688 Z M 18.933594 0.804688 "/>
</g>
</svg>
