<?xml version="1.0" encoding="UTF-8"?>
<svg xmlns="http://www.w3.org/2000/svg" xmlns:xlink="http://www.w3.org/1999/xlink" width="28px" height="28px" viewBox="0 0 28 28" version="1.1">
<g id="surface1">
<path style=" stroke:none;fill-rule:nonzero;fill:rgb(92.941176%,41.176471%,36.078431%);fill-opacity:1;" d="M 18.941406 16.242188 L 17.175781 16.230469 C 16.835938 16.230469 16.609375 16.046875 16.609375 15.703125 C 16.609375 15.363281 16.949219 15.195312 17.289062 15.195312 L 19.148438 15.195312 C 19.382812 15.195312 19.601562 15.328125 19.703125 15.535156 L 22.183594 20.480469 C 22.390625 20.890625 22.089844 21.378906 21.628906 21.378906 L 8.914062 21.328125 L 9.542969 20.398438 L 21.136719 20.460938 L 18.945312 16.242188 Z M 18.941406 16.242188 "/>
<path style=" stroke:none;fill-rule:nonzero;fill:rgb(92.941176%,41.176471%,36.078431%);fill-opacity:1;" d="M 3.304688 16.21875 L 5.070312 16.203125 C 5.414062 16.203125 5.640625 16.019531 5.640625 15.679688 C 5.640625 15.335938 5.304688 15.167969 4.960938 15.167969 L 3.101562 15.167969 C 2.867188 15.167969 2.652344 15.300781 2.546875 15.507812 L 0.0664062 20.457031 C -0.140625 20.867188 0.160156 21.351562 0.621094 21.351562 L 10.539062 21.332031 L 9.910156 20.402344 L 1.117188 20.4375 Z M 3.304688 16.21875 "/>
<path style=" stroke:none;fill-rule:nonzero;fill:rgb(92.941176%,41.176471%,36.078431%);fill-opacity:1;" d="M 8.605469 12.050781 C 8.273438 11.382812 8.011719 10.855469 8.589844 9.988281 C 8.710938 9.804688 8.664062 9.554688 8.476562 9.433594 C 8.292969 9.308594 8.039062 9.359375 7.917969 9.542969 C 7.082031 10.792969 7.527344 11.691406 7.882812 12.410156 C 8.214844 13.085938 8.457031 13.570312 7.917969 14.378906 C 7.792969 14.5625 7.84375 14.8125 8.027344 14.9375 C 8.097656 14.980469 8.175781 15.003906 8.253906 15.003906 C 8.382812 15.003906 8.511719 14.941406 8.585938 14.824219 C 9.386719 13.632812 8.953125 12.757812 8.605469 12.054688 Z M 8.605469 12.050781 "/>
<path style=" stroke:none;fill-rule:nonzero;fill:rgb(92.941176%,41.176471%,36.078431%);fill-opacity:1;" d="M 11.820312 12.050781 C 11.488281 11.382812 11.226562 10.855469 11.804688 9.988281 C 11.929688 9.804688 11.878906 9.554688 11.691406 9.433594 C 11.507812 9.308594 11.257812 9.359375 11.132812 9.542969 C 10.296875 10.796875 10.742188 11.691406 11.097656 12.410156 C 11.429688 13.085938 11.671875 13.570312 11.132812 14.375 C 11.011719 14.5625 11.0625 14.8125 11.246094 14.933594 C 11.316406 14.980469 11.390625 15.003906 11.46875 15.003906 C 11.597656 15.003906 11.730469 14.941406 11.804688 14.824219 C 12.605469 13.628906 12.171875 12.753906 11.820312 12.050781 Z M 11.820312 12.050781 "/>
<path style=" stroke:none;fill-rule:nonzero;fill:rgb(92.941176%,41.176471%,36.078431%);fill-opacity:1;" d="M 15.039062 12.050781 C 14.707031 11.382812 14.445312 10.855469 15.023438 9.988281 C 15.144531 9.804688 15.09375 9.554688 14.910156 9.433594 C 14.726562 9.308594 14.472656 9.359375 14.351562 9.542969 C 13.515625 10.796875 13.960938 11.691406 14.316406 12.410156 C 14.648438 13.085938 14.890625 13.570312 14.351562 14.375 C 14.226562 14.5625 14.277344 14.8125 14.464844 14.933594 C 14.53125 14.980469 14.609375 15.003906 14.6875 15.003906 C 14.820312 15.003906 14.945312 14.941406 15.023438 14.824219 C 15.820312 13.628906 15.386719 12.753906 15.039062 12.050781 Z M 15.039062 12.050781 "/>
<path style=" stroke:none;fill-rule:nonzero;fill:rgb(92.941176%,41.176471%,36.078431%);fill-opacity:1;" d="M 21.40625 14.460938 L 21.40625 10.410156 L 22.539062 10.410156 L 22.539062 14.460938 Z M 19.882812 12.96875 L 19.882812 11.898438 L 24.070312 11.898438 L 24.070312 12.96875 Z M 19.882812 12.96875 "/>
<path style=" stroke:none;fill-rule:nonzero;fill:rgb(92.941176%,41.176471%,36.078431%);fill-opacity:1;" d="M 18.933594 7.304688 C 17.730469 7.996094 16.800781 9.078125 16.300781 10.371094 C 16.246094 10.511719 16.316406 10.671875 16.460938 10.726562 C 16.601562 10.78125 16.765625 10.710938 16.816406 10.566406 C 17.773438 8.078125 20.386719 6.640625 23.007812 7.152344 C 25.628906 7.667969 27.5 9.984375 27.445312 12.648438 C 27.390625 15.3125 25.425781 17.550781 22.789062 17.960938 C 22.691406 17.972656 22.609375 18.039062 22.570312 18.132812 C 22.535156 18.222656 22.550781 18.328125 22.613281 18.40625 C 22.675781 18.480469 22.773438 18.519531 22.871094 18.503906 C 25.269531 18.132812 27.21875 16.367188 27.8125 14.019531 C 28.40625 11.667969 27.539062 9.191406 25.601562 7.726562 C 23.664062 6.261719 21.039062 6.097656 18.933594 7.304688 Z M 18.933594 7.304688 "/>
</g>
</svg>
