<?xml version="1.0" encoding="UTF-8"?>
<svg xmlns="http://www.w3.org/2000/svg" xmlns:xlink="http://www.w3.org/1999/xlink" width="28px" height="28px" viewBox="0 0 28 28" version="1.1">
<g id="surface1">
<path style=" stroke:none;fill-rule:nonzero;fill:rgb(92.941176%,41.176471%,36.078431%);fill-opacity:1;" d="M 18.941406 16.242188 L 17.175781 16.230469 C 16.835938 16.230469 16.609375 16.046875 16.609375 15.707031 C 16.609375 15.363281 16.945312 15.191406 17.289062 15.191406 L 19.152344 15.191406 C 19.386719 15.191406 19.597656 15.324219 19.703125 15.535156 L 22.183594 20.480469 C 22.390625 20.890625 22.089844 21.378906 21.628906 21.378906 L 8.914062 21.328125 L 9.542969 20.398438 L 21.136719 20.460938 L 18.945312 16.246094 Z M 18.941406 16.242188 "/>
<path style=" stroke:none;fill-rule:nonzero;fill:rgb(92.941176%,41.176471%,36.078431%);fill-opacity:1;" d="M 3.308594 16.21875 L 5.070312 16.207031 C 5.414062 16.207031 5.640625 16.023438 5.640625 15.679688 C 5.640625 15.339844 5.300781 15.167969 4.957031 15.167969 L 3.097656 15.167969 C 2.863281 15.167969 2.648438 15.300781 2.542969 15.511719 L 0.0664062 20.457031 C -0.140625 20.867188 0.15625 21.351562 0.621094 21.351562 L 10.539062 21.332031 L 9.910156 20.402344 L 1.113281 20.4375 L 3.304688 16.222656 Z M 3.308594 16.21875 "/>
<path style=" stroke:none;fill-rule:nonzero;fill:rgb(92.941176%,41.176471%,36.078431%);fill-opacity:1;" d="M 8.605469 12.050781 C 8.277344 11.382812 8.011719 10.855469 8.589844 9.992188 C 8.714844 9.804688 8.664062 9.554688 8.480469 9.433594 C 8.296875 9.3125 8.042969 9.359375 7.917969 9.546875 C 7.082031 10.796875 7.527344 11.691406 7.882812 12.410156 C 8.21875 13.085938 8.457031 13.574219 7.917969 14.378906 C 7.792969 14.566406 7.847656 14.816406 8.03125 14.9375 C 8.097656 14.984375 8.175781 15.003906 8.253906 15.003906 C 8.386719 15.003906 8.511719 14.941406 8.589844 14.824219 C 9.386719 13.632812 8.957031 12.757812 8.609375 12.054688 Z M 8.605469 12.050781 "/>
<path style=" stroke:none;fill-rule:nonzero;fill:rgb(92.941176%,41.176471%,36.078431%);fill-opacity:1;" d="M 11.824219 12.050781 C 11.488281 11.382812 11.230469 10.855469 11.804688 9.992188 C 11.929688 9.804688 11.878906 9.554688 11.691406 9.433594 C 11.507812 9.3125 11.257812 9.359375 11.132812 9.546875 C 10.296875 10.796875 10.742188 11.691406 11.097656 12.410156 C 11.433594 13.085938 11.671875 13.574219 11.132812 14.378906 C 11.011719 14.5625 11.0625 14.8125 11.246094 14.933594 C 11.3125 14.980469 11.390625 15.003906 11.46875 15.003906 C 11.601562 15.003906 11.726562 14.941406 11.804688 14.824219 C 12.601562 13.628906 12.171875 12.753906 11.824219 12.050781 Z M 11.824219 12.050781 "/>
<path style=" stroke:none;fill-rule:nonzero;fill:rgb(92.941176%,41.176471%,36.078431%);fill-opacity:1;" d="M 15.039062 12.050781 C 14.707031 11.382812 14.445312 10.855469 15.023438 9.992188 C 15.144531 9.804688 15.09375 9.554688 14.910156 9.433594 C 14.726562 9.3125 14.472656 9.359375 14.351562 9.546875 C 13.515625 10.796875 13.957031 11.691406 14.316406 12.410156 C 14.648438 13.085938 14.890625 13.574219 14.351562 14.378906 C 14.226562 14.5625 14.277344 14.8125 14.460938 14.933594 C 14.53125 14.980469 14.609375 15.003906 14.6875 15.003906 C 14.816406 15.003906 14.945312 14.941406 15.023438 14.824219 C 15.820312 13.628906 15.386719 12.753906 15.039062 12.050781 Z M 15.039062 12.050781 "/>
<path style=" stroke:none;fill-rule:nonzero;fill:rgb(92.941176%,41.176471%,36.078431%);fill-opacity:1;" d="M 21.40625 12.96875 L 21.40625 11.898438 L 22.539062 11.898438 L 22.539062 12.96875 Z M 19.886719 12.96875 L 19.886719 11.898438 L 24.070312 11.898438 L 24.070312 12.96875 Z M 19.886719 12.96875 "/>
<path style=" stroke:none;fill-rule:nonzero;fill:rgb(92.941176%,41.176471%,36.078431%);fill-opacity:1;" d="M 18.933594 7.304688 C 17.730469 7.996094 16.800781 9.078125 16.300781 10.375 C 16.246094 10.515625 16.320312 10.675781 16.460938 10.730469 C 16.605469 10.785156 16.761719 10.710938 16.816406 10.570312 C 17.777344 8.085938 20.386719 6.644531 23.007812 7.15625 C 25.632812 7.671875 27.5 9.988281 27.449219 12.652344 C 27.394531 15.316406 25.429688 17.554688 22.789062 17.964844 C 22.691406 17.976562 22.609375 18.042969 22.574219 18.132812 C 22.539062 18.226562 22.550781 18.328125 22.617188 18.40625 C 22.679688 18.484375 22.777344 18.519531 22.875 18.503906 C 25.273438 18.132812 27.21875 16.367188 27.816406 14.015625 C 28.414062 11.667969 27.542969 9.191406 25.605469 7.726562 C 23.671875 6.261719 21.042969 6.097656 18.9375 7.304688 Z M 18.933594 7.304688 "/>
</g>
</svg>
