<?xml version="1.0" encoding="UTF-8"?>
<svg xmlns="http://www.w3.org/2000/svg" xmlns:xlink="http://www.w3.org/1999/xlink" width="28px" height="28px" viewBox="0 0 28 15" version="1.1">
<g id="surface1">
<path style=" stroke:none;fill-rule:nonzero;fill:rgb(92.941176%,41.176471%,36.078431%);fill-opacity:1;" d="M 18.941406 9.742188 L 17.175781 9.730469 C 16.835938 9.730469 16.609375 9.546875 16.609375 9.207031 C 16.609375 8.863281 16.945312 8.691406 17.289062 8.691406 L 19.152344 8.691406 C 19.386719 8.691406 19.597656 8.824219 19.703125 9.035156 L 22.183594 13.980469 C 22.390625 14.390625 22.089844 14.878906 21.628906 14.878906 L 8.914062 14.828125 L 9.542969 13.898438 L 21.136719 13.960938 L 18.945312 9.746094 Z M 18.941406 9.742188 "/>
<path style=" stroke:none;fill-rule:nonzero;fill:rgb(92.941176%,41.176471%,36.078431%);fill-opacity:1;" d="M 3.308594 9.71875 L 5.070312 9.707031 C 5.414062 9.707031 5.640625 9.523438 5.640625 9.179688 C 5.640625 8.839844 5.300781 8.667969 4.957031 8.667969 L 3.097656 8.667969 C 2.863281 8.667969 2.648438 8.800781 2.542969 9.011719 L 0.0664062 13.957031 C -0.140625 14.367188 0.15625 14.851562 0.621094 14.851562 L 10.539062 14.832031 L 9.910156 13.902344 L 1.113281 13.9375 L 3.304688 9.722656 Z M 3.308594 9.71875 "/>
<path style=" stroke:none;fill-rule:nonzero;fill:rgb(92.941176%,41.176471%,36.078431%);fill-opacity:1;" d="M 8.605469 5.550781 C 8.277344 4.882812 8.011719 4.355469 8.589844 3.492188 C 8.714844 3.304688 8.664062 3.054688 8.480469 2.933594 C 8.296875 2.8125 8.042969 2.859375 7.917969 3.046875 C 7.082031 4.296875 7.527344 5.191406 7.882812 5.910156 C 8.21875 6.585938 8.457031 7.074219 7.917969 7.878906 C 7.792969 8.066406 7.847656 8.316406 8.03125 8.4375 C 8.097656 8.484375 8.175781 8.503906 8.253906 8.503906 C 8.386719 8.503906 8.511719 8.441406 8.589844 8.324219 C 9.386719 7.132812 8.957031 6.257812 8.609375 5.554688 Z M 8.605469 5.550781 "/>
<path style=" stroke:none;fill-rule:nonzero;fill:rgb(92.941176%,41.176471%,36.078431%);fill-opacity:1;" d="M 11.824219 5.550781 C 11.488281 4.882812 11.230469 4.355469 11.804688 3.492188 C 11.929688 3.304688 11.878906 3.054688 11.691406 2.933594 C 11.507812 2.8125 11.257812 2.859375 11.132812 3.046875 C 10.296875 4.296875 10.742188 5.191406 11.097656 5.910156 C 11.433594 6.585938 11.671875 7.074219 11.132812 7.878906 C 11.011719 8.0625 11.0625 8.3125 11.246094 8.433594 C 11.3125 8.480469 11.390625 8.503906 11.46875 8.503906 C 11.601562 8.503906 11.726562 8.441406 11.804688 8.324219 C 12.601562 7.128906 12.171875 6.253906 11.824219 5.550781 Z M 11.824219 5.550781 "/>
<path style=" stroke:none;fill-rule:nonzero;fill:rgb(92.941176%,41.176471%,36.078431%);fill-opacity:1;" d="M 15.039062 5.550781 C 14.707031 4.882812 14.445312 4.355469 15.023438 3.492188 C 15.144531 3.304688 15.09375 3.054688 14.910156 2.933594 C 14.726562 2.8125 14.472656 2.859375 14.351562 3.046875 C 13.515625 4.296875 13.957031 5.191406 14.316406 5.910156 C 14.648438 6.585938 14.890625 7.074219 14.351562 7.878906 C 14.226562 8.0625 14.277344 8.3125 14.460938 8.433594 C 14.53125 8.480469 14.609375 8.503906 14.6875 8.503906 C 14.816406 8.503906 14.945312 8.441406 15.023438 8.324219 C 15.820312 7.128906 15.386719 6.253906 15.039062 5.550781 Z M 15.039062 5.550781 "/>
<path style=" stroke:none;fill-rule:nonzero;fill:rgb(92.941176%,41.176471%,36.078431%);fill-opacity:1;" d="M 21.40625 6.46875 L 21.40625 5.398438 L 22.539062 5.398438 L 22.539062 6.46875 Z M 19.886719 6.46875 L 19.886719 5.398438 L 24.070312 5.398438 L 24.070312 6.46875 Z M 19.886719 6.46875 "/>
<path style=" stroke:none;fill-rule:nonzero;fill:rgb(92.941176%,41.176471%,36.078431%);fill-opacity:1;" d="M 18.933594 0.804688 C 17.730469 1.496094 16.800781 2.578125 16.300781 3.875 C 16.246094 4.015625 16.320312 4.175781 16.460938 4.230469 C 16.605469 4.285156 16.761719 4.210938 16.816406 4.070312 C 17.777344 1.585938 20.386719 0.144531 23.007812 0.65625 C 25.632812 1.171875 27.5 3.488281 27.449219 6.152344 C 27.394531 8.816406 25.429688 11.054688 22.789062 11.464844 C 22.691406 11.476562 22.609375 11.542969 22.574219 11.632812 C 22.539062 11.726562 22.550781 11.828125 22.617188 11.90625 C 22.679688 11.984375 22.777344 12.019531 22.875 12.003906 C 25.273438 11.632812 27.21875 9.867188 27.816406 7.515625 C 28.414062 5.167969 27.542969 2.691406 25.605469 1.226562 C 23.671875 -0.238281 21.042969 -0.402344 18.9375 0.804688 Z M 18.933594 0.804688 "/>
</g>
</svg>
