<?xml version="1.0" encoding="UTF-8"?>
<svg xmlns="http://www.w3.org/2000/svg" xmlns:xlink="http://www.w3.org/1999/xlink" width="28px" height="28px" viewBox="0 0 28 28" version="1.1">
<g id="surface1">
<path style=" stroke:none;fill-rule:nonzero;fill:rgb(92.941176%,41.176471%,36.078431%);fill-opacity:1;" d="M 18.945312 16.246094 L 17.179688 16.234375 C 16.835938 16.234375 16.613281 16.050781 16.613281 15.707031 C 16.613281 15.363281 16.953125 15.195312 17.292969 15.195312 L 19.152344 15.195312 C 19.386719 15.195312 19.601562 15.328125 19.707031 15.539062 L 22.1875 20.484375 C 22.390625 20.898438 22.09375 21.378906 21.632812 21.378906 L 8.914062 21.328125 L 9.542969 20.398438 L 21.140625 20.460938 L 18.949219 16.246094 Z M 18.945312 16.246094 "/>
<path style=" stroke:none;fill-rule:nonzero;fill:rgb(92.941176%,41.176471%,36.078431%);fill-opacity:1;" d="M 3.308594 16.21875 L 5.074219 16.207031 C 5.414062 16.207031 5.640625 16.023438 5.640625 15.679688 C 5.640625 15.339844 5.300781 15.171875 4.960938 15.171875 L 3.101562 15.171875 C 2.867188 15.171875 2.652344 15.300781 2.546875 15.511719 L 0.0664062 20.457031 C -0.136719 20.871094 0.160156 21.351562 0.621094 21.351562 L 10.539062 21.332031 L 9.910156 20.402344 L 1.113281 20.433594 L 3.304688 16.21875 Z M 3.308594 16.21875 "/>
<path style=" stroke:none;fill-rule:nonzero;fill:rgb(92.941176%,41.176471%,36.078431%);fill-opacity:1;" d="M 8.605469 12.054688 C 8.277344 11.382812 8.015625 10.855469 8.59375 9.988281 C 8.714844 9.804688 8.664062 9.554688 8.480469 9.429688 C 8.296875 9.308594 8.042969 9.359375 7.921875 9.542969 C 7.082031 10.792969 7.527344 11.691406 7.882812 12.40625 C 8.21875 13.078125 8.460938 13.566406 7.921875 14.375 C 7.796875 14.558594 7.847656 14.808594 8.03125 14.933594 C 8.101562 14.976562 8.179688 15 8.257812 15 C 8.386719 15 8.515625 14.9375 8.59375 14.820312 C 9.390625 13.625 8.960938 12.753906 8.609375 12.050781 Z M 8.605469 12.054688 "/>
<path style=" stroke:none;fill-rule:nonzero;fill:rgb(92.941176%,41.176471%,36.078431%);fill-opacity:1;" d="M 11.820312 12.054688 C 11.492188 11.382812 11.230469 10.855469 11.804688 9.988281 C 11.925781 9.804688 11.875 9.554688 11.691406 9.429688 C 11.507812 9.308594 11.257812 9.359375 11.132812 9.542969 C 10.296875 10.792969 10.742188 11.691406 11.097656 12.40625 C 11.429688 13.078125 11.671875 13.566406 11.132812 14.375 C 11.007812 14.558594 11.058594 14.808594 11.242188 14.933594 C 11.3125 14.976562 11.390625 15 11.46875 15 C 11.597656 15 11.726562 14.9375 11.804688 14.820312 C 12.601562 13.625 12.171875 12.753906 11.820312 12.050781 Z M 11.820312 12.054688 "/>
<path style=" stroke:none;fill-rule:nonzero;fill:rgb(92.941176%,41.176471%,36.078431%);fill-opacity:1;" d="M 15.039062 12.054688 C 14.707031 11.382812 14.445312 10.855469 15.023438 9.988281 C 15.144531 9.804688 15.09375 9.554688 14.910156 9.429688 C 14.726562 9.308594 14.472656 9.359375 14.351562 9.542969 C 13.515625 10.792969 13.960938 11.691406 14.316406 12.40625 C 14.648438 13.078125 14.890625 13.566406 14.351562 14.375 C 14.226562 14.558594 14.277344 14.808594 14.460938 14.933594 C 14.53125 14.976562 14.609375 15 14.683594 15 C 14.8125 15 14.945312 14.9375 15.023438 14.820312 C 15.820312 13.625 15.390625 12.753906 15.039062 12.050781 Z M 15.039062 12.054688 "/>
<path style=" stroke:none;fill-rule:nonzero;fill:rgb(92.941176%,41.176471%,36.078431%);fill-opacity:1;" d="M 18.9375 7.300781 C 17.730469 7.992188 16.800781 9.078125 16.300781 10.371094 C 16.246094 10.511719 16.320312 10.671875 16.460938 10.726562 C 16.601562 10.78125 16.761719 10.707031 16.816406 10.566406 C 17.777344 8.078125 20.386719 6.640625 23.007812 7.15625 C 25.632812 7.667969 27.503906 9.988281 27.449219 12.648438 C 27.394531 15.3125 25.429688 17.550781 22.789062 17.960938 C 22.691406 17.972656 22.609375 18.039062 22.574219 18.132812 C 22.535156 18.222656 22.550781 18.328125 22.613281 18.402344 C 22.675781 18.480469 22.777344 18.519531 22.875 18.503906 C 25.277344 18.132812 27.21875 16.367188 27.816406 14.015625 C 28.414062 11.664062 27.542969 9.1875 25.605469 7.726562 C 23.667969 6.261719 21.039062 6.09375 18.9375 7.300781 Z M 18.9375 7.300781 "/>
<path style=" stroke:none;fill-rule:nonzero;fill:rgb(92.941176%,41.176471%,36.078431%);fill-opacity:1;" d="M 20.257812 13.136719 C 20.34375 13.136719 20.429688 13.121094 20.5 13.09375 C 20.578125 13.0625 20.644531 13.019531 20.699219 12.960938 C 20.753906 12.90625 20.800781 12.839844 20.828125 12.761719 C 20.863281 12.683594 20.878906 12.597656 20.878906 12.503906 C 20.878906 12.410156 20.863281 12.324219 20.828125 12.246094 C 20.800781 12.171875 20.753906 12.105469 20.699219 12.046875 C 20.644531 11.988281 20.578125 11.949219 20.503906 11.917969 C 20.429688 11.886719 20.347656 11.871094 20.257812 11.871094 C 20.167969 11.871094 20.085938 11.886719 20.011719 11.917969 C 19.933594 11.949219 19.871094 11.988281 19.816406 12.046875 C 19.757812 12.105469 19.714844 12.171875 19.683594 12.246094 C 19.652344 12.324219 19.636719 12.410156 19.636719 12.503906 C 19.636719 12.597656 19.652344 12.679688 19.683594 12.757812 C 19.714844 12.835938 19.757812 12.902344 19.8125 12.960938 C 19.867188 13.015625 19.933594 13.058594 20.011719 13.089844 C 20.085938 13.117188 20.167969 13.132812 20.257812 13.132812 Z M 20.261719 13.523438 C 20.105469 13.523438 19.960938 13.5 19.828125 13.449219 C 19.695312 13.398438 19.578125 13.324219 19.480469 13.234375 C 19.382812 13.144531 19.308594 13.035156 19.253906 12.910156 C 19.203125 12.785156 19.171875 12.652344 19.171875 12.507812 C 19.171875 12.359375 19.199219 12.222656 19.253906 12.101562 C 19.308594 11.976562 19.382812 11.871094 19.484375 11.777344 C 19.578125 11.683594 19.699219 11.613281 19.828125 11.5625 C 19.960938 11.511719 20.105469 11.488281 20.257812 11.488281 C 20.414062 11.488281 20.558594 11.511719 20.6875 11.5625 C 20.816406 11.613281 20.933594 11.6875 21.027344 11.777344 C 21.125 11.871094 21.199219 11.976562 21.257812 12.097656 C 21.3125 12.222656 21.339844 12.355469 21.339844 12.507812 C 21.339844 12.652344 21.3125 12.789062 21.257812 12.914062 C 21.203125 13.039062 21.128906 13.148438 21.027344 13.238281 C 20.933594 13.328125 20.816406 13.402344 20.6875 13.453125 C 20.558594 13.503906 20.410156 13.527344 20.261719 13.527344 Z M 20.261719 13.523438 "/>
<path style=" stroke:none;fill-rule:nonzero;fill:rgb(92.941176%,41.176471%,36.078431%);fill-opacity:1;" d="M 20.484375 13.050781 L 20.519531 13.132812 L 20.496094 13.144531 L 20.484375 13.144531 L 20.480469 13.148438 L 20.472656 13.152344 L 20.460938 13.15625 L 20.453125 13.15625 L 20.445312 13.160156 L 20.433594 13.164062 L 20.417969 13.171875 L 20.40625 13.171875 L 20.390625 13.179688 L 20.378906 13.179688 L 20.371094 13.183594 L 20.234375 13.183594 L 20.234375 13.09375 L 20.378906 13.09375 L 20.394531 13.085938 L 20.398438 13.082031 L 20.40625 13.078125 L 20.410156 13.078125 L 20.417969 13.074219 L 20.421875 13.070312 L 20.429688 13.066406 L 20.433594 13.066406 L 20.441406 13.0625 L 20.445312 13.058594 L 20.453125 13.054688 L 20.460938 13.054688 Z M 20.484375 13.050781 L 20.503906 13.039062 Z M 20.667969 12.929688 L 20.734375 12.992188 L 20.730469 13 L 20.722656 13.003906 L 20.71875 13.011719 L 20.710938 13.015625 L 20.707031 13.023438 L 20.699219 13.027344 L 20.695312 13.035156 L 20.6875 13.039062 L 20.683594 13.046875 L 20.675781 13.054688 L 20.667969 13.058594 L 20.664062 13.066406 L 20.65625 13.070312 L 20.652344 13.074219 L 20.644531 13.078125 L 20.640625 13.082031 L 20.632812 13.085938 L 20.628906 13.089844 L 20.621094 13.09375 L 20.617188 13.097656 L 20.601562 13.105469 L 20.597656 13.105469 L 20.589844 13.109375 L 20.585938 13.113281 L 20.578125 13.117188 L 20.570312 13.117188 L 20.539062 13.132812 L 20.53125 13.132812 L 20.5 13.050781 L 20.503906 13.046875 L 20.511719 13.042969 L 20.515625 13.039062 L 20.523438 13.039062 L 20.527344 13.035156 L 20.535156 13.03125 L 20.539062 13.027344 L 20.546875 13.027344 L 20.550781 13.023438 L 20.558594 13.019531 L 20.5625 13.015625 L 20.570312 13.015625 L 20.578125 13.011719 L 20.582031 13.007812 L 20.589844 13.003906 L 20.59375 13 L 20.601562 13 L 20.605469 12.996094 L 20.613281 12.992188 L 20.617188 12.988281 L 20.625 12.988281 L 20.628906 12.984375 L 20.644531 12.976562 L 20.660156 12.960938 L 20.667969 12.960938 L 20.671875 12.953125 L 20.679688 12.949219 L 20.691406 12.9375 Z M 20.734375 12.992188 Z M 20.792969 12.742188 L 20.878906 12.78125 L 20.875 12.789062 L 20.871094 12.792969 L 20.867188 12.804688 L 20.867188 12.8125 L 20.859375 12.828125 L 20.855469 12.832031 L 20.851562 12.839844 L 20.851562 12.84375 L 20.84375 12.859375 L 20.839844 12.863281 L 20.839844 12.871094 L 20.835938 12.875 L 20.832031 12.882812 L 20.828125 12.886719 L 20.824219 12.894531 L 20.789062 12.929688 L 20.785156 12.9375 L 20.777344 12.941406 L 20.773438 12.949219 L 20.765625 12.953125 L 20.761719 12.960938 L 20.753906 12.964844 L 20.734375 12.984375 L 20.667969 12.921875 L 20.675781 12.914062 L 20.683594 12.910156 L 20.683594 12.902344 L 20.691406 12.898438 L 20.695312 12.890625 L 20.695312 12.882812 L 20.703125 12.878906 L 20.707031 12.871094 L 20.710938 12.867188 L 20.714844 12.859375 L 20.71875 12.855469 L 20.722656 12.847656 L 20.722656 12.84375 L 20.726562 12.835938 L 20.730469 12.832031 L 20.734375 12.824219 L 20.734375 12.820312 L 20.742188 12.804688 L 20.746094 12.800781 L 20.746094 12.792969 L 20.75 12.789062 L 20.753906 12.78125 L 20.757812 12.777344 L 20.761719 12.769531 L 20.761719 12.765625 L 20.765625 12.757812 L 20.769531 12.753906 L 20.773438 12.746094 L 20.773438 12.742188 L 20.777344 12.734375 L 20.78125 12.730469 Z M 20.792969 12.742188 L 20.789062 12.75 Z M 20.839844 12.503906 L 20.929688 12.503906 L 20.929688 12.636719 L 20.925781 12.648438 L 20.925781 12.65625 L 20.921875 12.664062 L 20.917969 12.675781 L 20.917969 12.683594 L 20.914062 12.691406 L 20.910156 12.703125 L 20.90625 12.710938 L 20.90625 12.71875 L 20.902344 12.730469 L 20.890625 12.753906 L 20.890625 12.765625 L 20.882812 12.78125 L 20.878906 12.792969 L 20.796875 12.753906 L 20.800781 12.75 L 20.800781 12.742188 L 20.804688 12.738281 L 20.808594 12.730469 L 20.8125 12.726562 L 20.8125 12.71875 L 20.816406 12.714844 L 20.828125 12.691406 L 20.828125 12.6875 L 20.832031 12.675781 L 20.832031 12.671875 L 20.835938 12.664062 L 20.835938 12.511719 Z M 20.792969 12.261719 L 20.878906 12.230469 L 20.878906 12.238281 L 20.882812 12.246094 L 20.886719 12.257812 L 20.890625 12.265625 L 20.890625 12.273438 L 20.894531 12.285156 L 20.902344 12.300781 L 20.90625 12.3125 L 20.90625 12.320312 L 20.910156 12.328125 L 20.914062 12.339844 L 20.917969 12.347656 L 20.917969 12.355469 L 20.921875 12.363281 L 20.921875 12.375 L 20.925781 12.382812 L 20.925781 12.519531 L 20.835938 12.519531 L 20.835938 12.363281 L 20.832031 12.359375 L 20.832031 12.351562 L 20.828125 12.34375 L 20.828125 12.339844 L 20.816406 12.316406 L 20.8125 12.3125 L 20.8125 12.304688 L 20.808594 12.300781 L 20.800781 12.285156 L 20.800781 12.28125 L 20.796875 12.273438 Z M 20.792969 12.261719 L 20.796875 12.261719 Z M 20.671875 12.078125 L 20.738281 12.015625 L 20.746094 12.019531 L 20.75 12.027344 L 20.757812 12.03125 L 20.761719 12.039062 L 20.769531 12.042969 L 20.773438 12.050781 L 20.78125 12.054688 L 20.8125 12.085938 L 20.816406 12.09375 L 20.820312 12.097656 L 20.824219 12.105469 L 20.828125 12.109375 L 20.832031 12.117188 L 20.835938 12.121094 L 20.839844 12.128906 L 20.839844 12.132812 L 20.84375 12.140625 L 20.847656 12.144531 L 20.851562 12.152344 L 20.851562 12.15625 L 20.859375 12.171875 L 20.863281 12.175781 L 20.867188 12.183594 L 20.867188 12.191406 L 20.878906 12.214844 L 20.792969 12.246094 L 20.789062 12.242188 L 20.789062 12.234375 L 20.785156 12.230469 L 20.78125 12.222656 L 20.777344 12.21875 L 20.773438 12.210938 L 20.773438 12.207031 L 20.769531 12.199219 L 20.765625 12.195312 L 20.761719 12.1875 L 20.761719 12.183594 L 20.757812 12.175781 L 20.753906 12.171875 L 20.746094 12.15625 L 20.746094 12.152344 L 20.742188 12.144531 L 20.738281 12.140625 L 20.734375 12.132812 L 20.734375 12.128906 L 20.730469 12.121094 L 20.726562 12.117188 L 20.722656 12.109375 L 20.71875 12.105469 L 20.714844 12.097656 L 20.710938 12.09375 L 20.707031 12.085938 L 20.707031 12.078125 L 20.699219 12.074219 L 20.695312 12.066406 L 20.683594 12.054688 Z M 20.671875 12.078125 L 20.644531 12.046875 Z M 20.492188 11.957031 L 20.523438 11.871094 L 20.546875 11.882812 L 20.550781 11.882812 L 20.5625 11.886719 L 20.578125 11.894531 L 20.582031 11.898438 L 20.589844 11.898438 L 20.597656 11.902344 L 20.601562 11.90625 L 20.609375 11.910156 L 20.617188 11.910156 L 20.621094 11.914062 L 20.628906 11.917969 L 20.632812 11.921875 L 20.640625 11.921875 L 20.644531 11.929688 L 20.65625 11.941406 L 20.664062 11.945312 L 20.675781 11.957031 L 20.683594 11.960938 L 20.6875 11.96875 L 20.730469 12.011719 L 20.664062 12.074219 L 20.628906 12.039062 L 20.625 12.039062 L 20.613281 12.027344 L 20.605469 12.027344 L 20.601562 12.023438 L 20.59375 12.019531 L 20.589844 12.015625 L 20.582031 12.015625 L 20.578125 12.011719 L 20.5625 12.003906 L 20.558594 12 L 20.550781 12 L 20.546875 11.996094 L 20.539062 11.992188 L 20.535156 11.988281 L 20.527344 11.988281 L 20.523438 11.984375 L 20.515625 11.980469 L 20.511719 11.976562 L 20.503906 11.976562 L 20.5 11.972656 L 20.484375 11.964844 L 20.480469 11.960938 L 20.472656 11.960938 Z M 20.492188 11.957031 L 20.496094 11.957031 Z M 20.261719 11.914062 L 20.261719 11.824219 L 20.398438 11.824219 L 20.40625 11.828125 L 20.417969 11.828125 L 20.425781 11.832031 L 20.433594 11.832031 L 20.445312 11.835938 L 20.460938 11.84375 L 20.46875 11.84375 L 20.484375 11.851562 L 20.496094 11.855469 L 20.503906 11.859375 L 20.511719 11.859375 L 20.523438 11.863281 L 20.539062 11.871094 L 20.546875 11.871094 L 20.511719 11.957031 L 20.507812 11.953125 L 20.5 11.949219 L 20.496094 11.949219 L 20.488281 11.945312 L 20.484375 11.941406 L 20.476562 11.9375 L 20.472656 11.9375 L 20.464844 11.933594 L 20.460938 11.929688 L 20.445312 11.921875 L 20.433594 11.921875 L 20.429688 11.917969 L 20.289062 11.917969 Z M 20.035156 11.957031 L 20 11.871094 L 20.011719 11.871094 L 20.015625 11.867188 L 20.027344 11.863281 L 20.035156 11.859375 L 20.042969 11.859375 L 20.050781 11.855469 L 20.0625 11.851562 L 20.078125 11.84375 L 20.085938 11.84375 L 20.09375 11.839844 L 20.105469 11.835938 L 20.113281 11.832031 L 20.121094 11.832031 L 20.132812 11.828125 L 20.140625 11.828125 L 20.148438 11.824219 L 20.285156 11.824219 L 20.285156 11.914062 L 20.144531 11.914062 L 20.136719 11.917969 L 20.132812 11.917969 L 20.125 11.921875 L 20.117188 11.921875 L 20.113281 11.925781 L 20.105469 11.929688 L 20.101562 11.933594 L 20.09375 11.9375 L 20.089844 11.9375 L 20.082031 11.941406 L 20.078125 11.945312 L 20.070312 11.949219 L 20.066406 11.949219 L 20.058594 11.953125 Z M 20.035156 11.957031 L 20.03125 11.957031 Z M 19.855469 12.078125 L 19.789062 12.015625 L 19.796875 12.007812 L 19.800781 12 L 19.808594 11.996094 L 19.882812 11.921875 L 19.886719 11.921875 L 19.894531 11.917969 L 19.898438 11.914062 L 19.90625 11.910156 L 19.910156 11.90625 L 19.917969 11.902344 L 19.921875 11.898438 L 19.929688 11.898438 L 19.933594 11.894531 L 19.957031 11.882812 L 19.964844 11.882812 L 19.972656 11.878906 L 19.976562 11.875 L 19.988281 11.871094 L 19.992188 11.871094 L 20.027344 11.953125 L 20.011719 11.960938 L 20.007812 11.960938 L 20 11.964844 L 19.996094 11.96875 L 19.988281 11.972656 L 19.984375 11.976562 L 19.976562 11.976562 L 19.972656 11.980469 L 19.964844 11.984375 L 19.960938 11.988281 L 19.953125 11.988281 L 19.945312 11.992188 L 19.941406 11.996094 L 19.933594 12 L 19.929688 12 L 19.921875 12.003906 L 19.917969 12.007812 L 19.910156 12.011719 L 19.90625 12.015625 L 19.898438 12.015625 L 19.894531 12.019531 L 19.886719 12.023438 L 19.875 12.035156 L 19.867188 12.039062 L 19.832031 12.074219 Z M 19.855469 12.078125 Z M 19.730469 12.261719 L 19.644531 12.226562 L 19.660156 12.195312 L 19.660156 12.183594 L 19.664062 12.179688 L 19.671875 12.164062 L 19.671875 12.15625 L 19.675781 12.152344 L 19.679688 12.144531 L 19.683594 12.140625 L 19.683594 12.132812 L 19.6875 12.128906 L 19.691406 12.121094 L 19.695312 12.117188 L 19.699219 12.109375 L 19.703125 12.105469 L 19.707031 12.097656 L 19.71875 12.085938 L 19.722656 12.078125 L 19.730469 12.074219 L 19.785156 12.019531 L 19.847656 12.082031 L 19.84375 12.089844 L 19.835938 12.09375 L 19.824219 12.105469 L 19.820312 12.113281 L 19.808594 12.125 L 19.804688 12.132812 L 19.800781 12.136719 L 19.800781 12.144531 L 19.796875 12.148438 L 19.792969 12.15625 L 19.789062 12.160156 L 19.789062 12.167969 L 19.785156 12.171875 L 19.78125 12.179688 L 19.777344 12.183594 L 19.777344 12.191406 L 19.773438 12.195312 L 19.765625 12.210938 L 19.761719 12.214844 L 19.761719 12.222656 L 19.757812 12.226562 L 19.753906 12.234375 L 19.75 12.238281 L 19.75 12.246094 L 19.746094 12.25 L 19.742188 12.257812 L 19.738281 12.261719 L 19.738281 12.269531 L 19.734375 12.273438 Z M 19.644531 12.226562 L 19.644531 12.230469 Z M 19.6875 12.5 L 19.597656 12.5 L 19.597656 12.347656 L 19.601562 12.339844 L 19.605469 12.328125 L 19.605469 12.320312 L 19.609375 12.3125 L 19.613281 12.300781 L 19.617188 12.292969 L 19.617188 12.285156 L 19.621094 12.273438 L 19.628906 12.257812 L 19.632812 12.246094 L 19.632812 12.238281 L 19.640625 12.222656 L 19.644531 12.210938 L 19.726562 12.246094 L 19.722656 12.25 L 19.722656 12.257812 L 19.71875 12.261719 L 19.714844 12.269531 L 19.710938 12.273438 L 19.710938 12.28125 L 19.707031 12.285156 L 19.699219 12.300781 L 19.699219 12.304688 L 19.695312 12.3125 L 19.691406 12.316406 L 19.691406 12.324219 L 19.6875 12.332031 Z M 19.730469 12.738281 L 19.644531 12.769531 L 19.644531 12.761719 L 19.640625 12.753906 L 19.636719 12.742188 L 19.632812 12.734375 L 19.632812 12.726562 L 19.628906 12.714844 L 19.617188 12.691406 L 19.617188 12.679688 L 19.609375 12.664062 L 19.605469 12.652344 L 19.605469 12.644531 L 19.601562 12.636719 L 19.601562 12.480469 L 19.691406 12.480469 L 19.691406 12.632812 L 19.695312 12.640625 L 19.695312 12.648438 L 19.699219 12.652344 L 19.699219 12.660156 L 19.703125 12.664062 L 19.707031 12.671875 L 19.710938 12.675781 L 19.710938 12.683594 L 19.714844 12.691406 L 19.71875 12.695312 L 19.722656 12.703125 L 19.722656 12.707031 L 19.726562 12.714844 L 19.730469 12.71875 Z M 19.644531 12.769531 L 19.644531 12.773438 Z M 19.851562 12.921875 L 19.789062 12.988281 L 19.722656 12.921875 L 19.71875 12.914062 L 19.710938 12.910156 L 19.707031 12.902344 L 19.703125 12.898438 L 19.699219 12.890625 L 19.699219 12.882812 L 19.695312 12.878906 L 19.691406 12.871094 L 19.6875 12.867188 L 19.683594 12.859375 L 19.683594 12.855469 L 19.679688 12.847656 L 19.675781 12.84375 L 19.671875 12.832031 L 19.671875 12.828125 L 19.660156 12.804688 L 19.660156 12.792969 L 19.65625 12.789062 L 19.652344 12.78125 L 19.738281 12.746094 L 19.738281 12.753906 L 19.742188 12.757812 L 19.746094 12.765625 L 19.75 12.769531 L 19.75 12.777344 L 19.753906 12.78125 L 19.757812 12.789062 L 19.761719 12.792969 L 19.761719 12.800781 L 19.765625 12.804688 L 19.773438 12.820312 L 19.777344 12.824219 L 19.777344 12.832031 L 19.78125 12.835938 L 19.785156 12.84375 L 19.789062 12.847656 L 19.789062 12.855469 L 19.792969 12.859375 L 19.796875 12.867188 L 19.800781 12.871094 L 19.800781 12.878906 L 19.8125 12.890625 L 19.816406 12.898438 L 19.816406 12.902344 L 19.820312 12.910156 L 19.828125 12.914062 L 19.828125 12.921875 L 19.835938 12.925781 L 19.847656 12.9375 Z M 19.789062 12.988281 L 19.730469 12.929688 Z M 20.035156 13.042969 L 20 13.128906 L 19.992188 13.125 L 19.988281 13.121094 L 19.980469 13.117188 L 19.972656 13.117188 L 19.964844 13.113281 L 19.960938 13.109375 L 19.949219 13.105469 L 19.945312 13.105469 L 19.9375 13.101562 L 19.933594 13.097656 L 19.921875 13.09375 L 19.917969 13.09375 L 19.910156 13.089844 L 19.90625 13.082031 L 19.898438 13.078125 L 19.894531 13.078125 L 19.886719 13.074219 L 19.882812 13.066406 L 19.875 13.066406 L 19.855469 13.046875 L 19.851562 13.039062 L 19.84375 13.035156 L 19.839844 13.027344 L 19.832031 13.023438 L 19.828125 13.015625 L 19.820312 13.011719 L 19.816406 13.003906 L 19.808594 13 L 19.796875 12.988281 L 19.859375 12.921875 L 19.871094 12.933594 L 19.878906 12.9375 L 19.882812 12.945312 L 19.890625 12.949219 L 19.894531 12.953125 L 19.902344 12.957031 L 19.90625 12.960938 L 19.914062 12.960938 L 19.921875 12.964844 L 19.925781 12.96875 L 19.933594 12.972656 L 19.9375 12.976562 L 19.945312 12.976562 L 19.949219 12.980469 L 19.957031 12.984375 L 19.960938 12.988281 L 19.96875 12.988281 L 19.972656 12.992188 L 19.988281 13 L 19.992188 13 L 20 13.003906 L 20.003906 13.007812 L 20.011719 13.011719 L 20.015625 13.015625 L 20.023438 13.015625 L 20.027344 13.019531 L 20.035156 13.023438 L 20.039062 13.027344 L 20.046875 13.027344 L 20.050781 13.03125 Z M 20 13.128906 L 19.988281 13.121094 Z M 20.261719 13.085938 L 20.261719 13.175781 L 20.128906 13.175781 L 20.117188 13.171875 L 20.101562 13.171875 L 20.089844 13.167969 L 20.082031 13.164062 L 20.078125 13.160156 L 20.066406 13.15625 L 20.058594 13.15625 L 20.050781 13.152344 L 20.039062 13.148438 L 20.03125 13.144531 L 20.023438 13.144531 L 20 13.132812 L 19.992188 13.132812 L 19.984375 13.128906 L 20.015625 13.042969 L 20.023438 13.046875 L 20.027344 13.050781 L 20.035156 13.054688 L 20.039062 13.054688 L 20.046875 13.058594 L 20.050781 13.0625 L 20.058594 13.066406 L 20.066406 13.066406 L 20.070312 13.070312 L 20.078125 13.074219 L 20.082031 13.078125 L 20.089844 13.078125 L 20.09375 13.082031 L 20.25 13.082031 Z M 19.816406 13.484375 L 19.847656 13.402344 L 19.859375 13.402344 L 19.90625 13.417969 L 19.921875 13.417969 L 19.957031 13.429688 L 19.96875 13.429688 L 20.003906 13.441406 L 20.015625 13.441406 L 20.050781 13.453125 L 20.066406 13.457031 L 20.078125 13.457031 L 20.101562 13.464844 L 20.261719 13.464844 L 20.261719 13.554688 L 20.097656 13.554688 L 20.066406 13.546875 L 20.050781 13.546875 L 20.039062 13.542969 L 20.007812 13.535156 L 19.992188 13.535156 L 19.980469 13.53125 L 19.933594 13.519531 L 19.921875 13.519531 L 19.90625 13.515625 L 19.882812 13.507812 L 19.871094 13.507812 L 19.835938 13.496094 L 19.8125 13.480469 Z M 19.816406 13.484375 Z M 19.453125 13.261719 L 19.515625 13.195312 L 19.527344 13.203125 L 19.535156 13.210938 L 19.542969 13.222656 L 19.554688 13.230469 L 19.5625 13.238281 L 19.570312 13.25 L 19.578125 13.253906 L 19.589844 13.261719 L 19.597656 13.269531 L 19.605469 13.273438 L 19.617188 13.28125 L 19.625 13.285156 L 19.632812 13.292969 L 19.644531 13.300781 L 19.652344 13.304688 L 19.660156 13.3125 L 19.671875 13.316406 L 19.679688 13.324219 L 19.691406 13.328125 L 19.703125 13.335938 L 19.714844 13.339844 L 19.726562 13.347656 L 19.738281 13.351562 L 19.75 13.359375 L 19.761719 13.363281 L 19.777344 13.371094 L 19.789062 13.378906 L 19.800781 13.382812 L 19.8125 13.390625 L 19.824219 13.394531 L 19.835938 13.402344 L 19.847656 13.40625 L 19.816406 13.492188 L 19.800781 13.484375 L 19.789062 13.480469 L 19.777344 13.472656 L 19.765625 13.46875 L 19.753906 13.460938 L 19.742188 13.457031 L 19.71875 13.441406 L 19.707031 13.4375 L 19.695312 13.429688 L 19.683594 13.425781 L 19.671875 13.417969 L 19.660156 13.414062 L 19.644531 13.40625 L 19.632812 13.402344 L 19.621094 13.394531 L 19.609375 13.390625 L 19.597656 13.382812 L 19.585938 13.378906 L 19.574219 13.367188 L 19.5625 13.359375 L 19.554688 13.351562 L 19.539062 13.339844 L 19.523438 13.324219 L 19.515625 13.3125 L 19.503906 13.304688 L 19.496094 13.296875 L 19.488281 13.285156 L 19.476562 13.277344 L 19.460938 13.261719 Z M 19.453125 13.261719 Z M 19.21875 12.921875 L 19.304688 12.882812 L 19.308594 12.898438 L 19.316406 12.910156 L 19.320312 12.917969 L 19.328125 12.929688 L 19.332031 12.941406 L 19.339844 12.949219 L 19.34375 12.960938 L 19.351562 12.96875 L 19.355469 12.976562 L 19.363281 12.988281 L 19.371094 12.996094 L 19.375 13.003906 L 19.382812 13.015625 L 19.386719 13.023438 L 19.394531 13.03125 L 19.398438 13.039062 L 19.40625 13.050781 L 19.410156 13.058594 L 19.417969 13.066406 L 19.421875 13.078125 L 19.4375 13.09375 L 19.445312 13.105469 L 19.488281 13.148438 L 19.5 13.15625 L 19.507812 13.167969 L 19.515625 13.175781 L 19.527344 13.183594 L 19.460938 13.25 L 19.417969 13.207031 L 19.410156 13.195312 L 19.398438 13.1875 L 19.316406 13.105469 L 19.3125 13.09375 L 19.304688 13.082031 L 19.300781 13.070312 L 19.292969 13.058594 L 19.289062 13.046875 L 19.28125 13.035156 L 19.277344 13.023438 L 19.269531 13.011719 L 19.265625 13 L 19.25 12.976562 L 19.246094 12.960938 L 19.238281 12.949219 L 19.234375 12.9375 L 19.226562 12.925781 L 19.222656 12.914062 Z M 19.21875 12.921875 Z M 19.132812 12.496094 L 19.226562 12.496094 L 19.226562 12.628906 L 19.238281 12.664062 L 19.238281 12.675781 L 19.242188 12.691406 L 19.25 12.714844 L 19.25 12.726562 L 19.265625 12.773438 L 19.265625 12.785156 L 19.277344 12.820312 L 19.277344 12.832031 L 19.28125 12.84375 L 19.285156 12.859375 L 19.289062 12.871094 L 19.296875 12.882812 L 19.210938 12.917969 L 19.207031 12.90625 L 19.199219 12.894531 L 19.195312 12.882812 L 19.1875 12.871094 L 19.1875 12.859375 L 19.183594 12.84375 L 19.171875 12.808594 L 19.171875 12.796875 L 19.160156 12.761719 L 19.160156 12.75 L 19.144531 12.703125 L 19.144531 12.6875 L 19.140625 12.671875 L 19.132812 12.648438 Z M 19.21875 12.074219 L 19.304688 12.109375 L 19.289062 12.132812 L 19.289062 12.144531 L 19.285156 12.15625 L 19.28125 12.171875 L 19.277344 12.183594 L 19.277344 12.195312 L 19.265625 12.230469 L 19.265625 12.242188 L 19.25 12.289062 L 19.25 12.300781 L 19.242188 12.324219 L 19.238281 12.339844 L 19.238281 12.351562 L 19.230469 12.375 L 19.230469 12.496094 L 19.140625 12.496094 L 19.140625 12.359375 L 19.144531 12.34375 L 19.144531 12.332031 L 19.148438 12.320312 L 19.15625 12.289062 L 19.160156 12.277344 L 19.160156 12.265625 L 19.171875 12.230469 L 19.171875 12.21875 L 19.1875 12.171875 L 19.1875 12.15625 L 19.203125 12.109375 L 19.210938 12.097656 L 19.214844 12.085938 L 19.222656 12.074219 Z M 19.21875 12.074219 Z M 19.457031 11.734375 L 19.519531 11.800781 L 19.484375 11.835938 L 19.472656 11.84375 L 19.464844 11.855469 L 19.4375 11.882812 L 19.433594 11.890625 L 19.421875 11.898438 L 19.414062 11.910156 L 19.410156 11.917969 L 19.402344 11.925781 L 19.394531 11.9375 L 19.390625 11.945312 L 19.382812 11.953125 L 19.378906 11.960938 L 19.371094 11.972656 L 19.367188 11.980469 L 19.359375 11.988281 L 19.355469 12 L 19.347656 12.007812 L 19.34375 12.015625 L 19.335938 12.027344 L 19.332031 12.039062 L 19.324219 12.046875 L 19.316406 12.058594 L 19.3125 12.070312 L 19.304688 12.078125 L 19.300781 12.09375 L 19.292969 12.105469 L 19.210938 12.066406 L 19.214844 12.054688 L 19.222656 12.042969 L 19.226562 12.03125 L 19.234375 12.019531 L 19.238281 12.007812 L 19.246094 11.996094 L 19.25 11.984375 L 19.265625 11.960938 L 19.269531 11.949219 L 19.277344 11.9375 L 19.28125 11.921875 L 19.289062 11.910156 L 19.292969 11.898438 L 19.304688 11.886719 L 19.308594 11.875 L 19.316406 11.867188 L 19.332031 11.84375 L 19.34375 11.835938 L 19.386719 11.792969 L 19.394531 11.78125 L 19.40625 11.773438 L 19.414062 11.765625 L 19.421875 11.753906 L 19.433594 11.746094 L 19.441406 11.738281 L 19.449219 11.726562 Z M 19.519531 11.800781 Z M 19.816406 11.511719 L 19.847656 11.597656 L 19.835938 11.601562 L 19.824219 11.609375 L 19.8125 11.613281 L 19.800781 11.621094 L 19.789062 11.625 L 19.777344 11.632812 L 19.761719 11.636719 L 19.738281 11.652344 L 19.726562 11.65625 L 19.714844 11.664062 L 19.703125 11.667969 L 19.691406 11.675781 L 19.679688 11.679688 L 19.671875 11.6875 L 19.660156 11.691406 L 19.652344 11.699219 L 19.644531 11.703125 L 19.632812 11.710938 L 19.625 11.714844 L 19.617188 11.722656 L 19.605469 11.726562 L 19.597656 11.738281 L 19.589844 11.742188 L 19.578125 11.753906 L 19.570312 11.757812 L 19.5625 11.765625 L 19.554688 11.777344 L 19.542969 11.785156 L 19.535156 11.792969 L 19.527344 11.804688 L 19.515625 11.8125 L 19.453125 11.746094 L 19.488281 11.710938 L 19.5 11.703125 L 19.507812 11.691406 L 19.515625 11.683594 L 19.527344 11.675781 L 19.566406 11.636719 L 19.578125 11.628906 L 19.59375 11.625 L 19.605469 11.617188 L 19.617188 11.613281 L 19.640625 11.597656 L 19.652344 11.59375 L 19.664062 11.585938 L 19.675781 11.582031 L 19.6875 11.574219 L 19.699219 11.570312 L 19.710938 11.5625 L 19.722656 11.558594 L 19.738281 11.550781 L 19.75 11.546875 L 19.761719 11.539062 L 19.773438 11.535156 L 19.796875 11.519531 L 19.808594 11.515625 Z M 19.816406 11.511719 L 19.796875 11.519531 Z M 20.261719 11.433594 L 20.261719 11.523438 L 20.121094 11.523438 L 20.109375 11.527344 L 20.097656 11.527344 L 20.074219 11.535156 L 20.0625 11.535156 L 20.027344 11.546875 L 20.011719 11.546875 L 19.976562 11.558594 L 19.964844 11.558594 L 19.917969 11.574219 L 19.90625 11.574219 L 19.882812 11.582031 L 19.867188 11.585938 L 19.855469 11.589844 L 19.824219 11.507812 L 19.835938 11.5 L 19.894531 11.480469 L 19.90625 11.480469 L 19.921875 11.476562 L 19.945312 11.46875 L 19.960938 11.46875 L 19.972656 11.464844 L 20.003906 11.457031 L 20.019531 11.457031 L 20.066406 11.445312 L 20.078125 11.441406 L 20.09375 11.441406 L 20.125 11.433594 L 20.273438 11.433594 Z M 20.710938 11.511719 L 20.679688 11.597656 L 20.667969 11.589844 L 20.65625 11.585938 L 20.644531 11.585938 L 20.628906 11.582031 L 20.605469 11.574219 L 20.59375 11.574219 L 20.546875 11.558594 L 20.535156 11.558594 L 20.5 11.546875 L 20.484375 11.546875 L 20.449219 11.535156 L 20.425781 11.535156 L 20.414062 11.53125 L 20.269531 11.53125 L 20.269531 11.441406 L 20.433594 11.441406 L 20.496094 11.457031 L 20.511719 11.457031 L 20.523438 11.460938 L 20.554688 11.46875 L 20.570312 11.46875 L 20.59375 11.476562 L 20.609375 11.480469 L 20.625 11.480469 L 20.640625 11.484375 L 20.675781 11.496094 L 20.6875 11.496094 L 20.699219 11.503906 L 20.710938 11.507812 L 20.722656 11.515625 Z M 21.066406 11.738281 L 21.003906 11.804688 L 20.996094 11.792969 L 20.984375 11.785156 L 20.976562 11.777344 L 20.96875 11.765625 L 20.957031 11.757812 L 20.941406 11.742188 L 20.933594 11.738281 L 20.921875 11.730469 L 20.914062 11.726562 L 20.90625 11.71875 L 20.894531 11.714844 L 20.886719 11.707031 L 20.878906 11.703125 L 20.867188 11.695312 L 20.855469 11.691406 L 20.839844 11.675781 L 20.828125 11.671875 L 20.8125 11.664062 L 20.800781 11.660156 L 20.792969 11.652344 L 20.78125 11.648438 L 20.769531 11.640625 L 20.757812 11.636719 L 20.746094 11.628906 L 20.734375 11.625 L 20.722656 11.617188 L 20.707031 11.613281 L 20.683594 11.597656 L 20.671875 11.59375 L 20.707031 11.507812 L 20.71875 11.515625 L 20.730469 11.519531 L 20.753906 11.535156 L 20.765625 11.539062 L 20.777344 11.546875 L 20.789062 11.550781 L 20.800781 11.558594 L 20.8125 11.5625 L 20.828125 11.570312 L 20.839844 11.574219 L 20.851562 11.582031 L 20.863281 11.585938 L 20.875 11.59375 L 20.886719 11.597656 L 20.910156 11.613281 L 20.921875 11.617188 L 20.957031 11.640625 L 20.972656 11.652344 L 21.0625 11.742188 Z M 21.003906 11.804688 Z M 21.304688 12.074219 L 21.222656 12.109375 L 21.21875 12.097656 L 21.210938 12.085938 L 21.207031 12.074219 L 21.199219 12.066406 L 21.195312 12.054688 L 21.1875 12.042969 L 21.179688 12.035156 L 21.175781 12.023438 L 21.167969 12.015625 L 21.164062 12.003906 L 21.15625 11.996094 L 21.152344 11.988281 L 21.144531 11.976562 L 21.140625 11.96875 L 21.132812 11.960938 L 21.128906 11.949219 L 21.121094 11.941406 L 21.117188 11.933594 L 21.109375 11.921875 L 21.101562 11.914062 L 21.097656 11.90625 L 21.089844 11.898438 L 21.082031 11.886719 L 21.074219 11.878906 L 21.0625 11.871094 L 21.054688 11.859375 L 21.046875 11.851562 L 21.035156 11.84375 L 21.027344 11.832031 L 21 11.804688 L 21.0625 11.742188 L 21.074219 11.75 L 21.171875 11.847656 L 21.179688 11.859375 L 21.191406 11.867188 L 21.207031 11.882812 L 21.21875 11.898438 L 21.222656 11.910156 L 21.230469 11.917969 L 21.234375 11.929688 L 21.242188 11.941406 L 21.246094 11.953125 L 21.261719 11.976562 L 21.265625 11.988281 L 21.273438 12 L 21.277344 12.015625 L 21.285156 12.027344 L 21.289062 12.039062 L 21.296875 12.050781 L 21.300781 12.0625 L 21.308594 12.074219 Z M 21.304688 12.074219 L 21.285156 12.03125 Z M 21.390625 12.5 L 21.300781 12.5 L 21.300781 12.351562 L 21.285156 12.304688 L 21.285156 12.292969 L 21.273438 12.257812 L 21.273438 12.246094 L 21.261719 12.210938 L 21.261719 12.195312 L 21.242188 12.136719 L 21.234375 12.125 L 21.230469 12.113281 L 21.3125 12.078125 L 21.316406 12.089844 L 21.324219 12.101562 L 21.328125 12.113281 L 21.335938 12.125 L 21.339844 12.136719 L 21.347656 12.148438 L 21.351562 12.160156 L 21.351562 12.171875 L 21.359375 12.195312 L 21.363281 12.210938 L 21.363281 12.222656 L 21.378906 12.269531 L 21.378906 12.28125 L 21.382812 12.292969 L 21.390625 12.324219 L 21.390625 12.339844 L 21.394531 12.351562 L 21.394531 12.503906 Z M 21.304688 12.925781 L 21.21875 12.890625 L 21.226562 12.878906 L 21.246094 12.820312 L 21.246094 12.804688 L 21.261719 12.757812 L 21.261719 12.746094 L 21.273438 12.710938 L 21.273438 12.699219 L 21.285156 12.664062 L 21.285156 12.652344 L 21.289062 12.636719 L 21.289062 12.507812 L 21.378906 12.507812 L 21.378906 12.671875 L 21.371094 12.703125 L 21.363281 12.726562 L 21.363281 12.742188 L 21.351562 12.777344 L 21.351562 12.789062 L 21.339844 12.824219 L 21.339844 12.835938 L 21.332031 12.859375 L 21.324219 12.871094 L 21.320312 12.882812 L 21.3125 12.898438 L 21.308594 12.910156 L 21.300781 12.921875 L 21.296875 12.933594 Z M 21.066406 13.265625 L 21.003906 13.199219 L 21.011719 13.191406 L 21.023438 13.183594 L 21.03125 13.171875 L 21.039062 13.164062 L 21.050781 13.15625 L 21.058594 13.144531 L 21.109375 13.09375 L 21.117188 13.082031 L 21.125 13.074219 L 21.128906 13.066406 L 21.136719 13.054688 L 21.140625 13.046875 L 21.148438 13.039062 L 21.15625 13.027344 L 21.160156 13.019531 L 21.167969 13.011719 L 21.171875 13 L 21.179688 12.988281 L 21.183594 12.980469 L 21.191406 12.96875 L 21.195312 12.960938 L 21.203125 12.949219 L 21.207031 12.9375 L 21.214844 12.925781 L 21.21875 12.914062 L 21.234375 12.890625 L 21.316406 12.925781 L 21.3125 12.9375 L 21.304688 12.949219 L 21.300781 12.960938 L 21.292969 12.976562 L 21.285156 12.988281 L 21.28125 13 L 21.273438 13.011719 L 21.269531 13.023438 L 21.261719 13.035156 L 21.257812 13.046875 L 21.25 13.058594 L 21.246094 13.070312 L 21.238281 13.082031 L 21.234375 13.09375 L 21.21875 13.117188 L 21.207031 13.132812 L 21.191406 13.148438 L 21.179688 13.15625 L 21.171875 13.167969 L 21.074219 13.265625 Z M 21.003906 13.199219 L 21.015625 13.191406 Z M 20.710938 13.488281 L 20.679688 13.402344 L 20.691406 13.398438 L 20.703125 13.390625 L 20.714844 13.386719 L 20.726562 13.378906 L 20.738281 13.375 L 20.75 13.367188 L 20.761719 13.363281 L 20.773438 13.355469 L 20.789062 13.351562 L 20.800781 13.34375 L 20.8125 13.339844 L 20.824219 13.332031 L 20.832031 13.324219 L 20.84375 13.320312 L 20.851562 13.3125 L 20.863281 13.308594 L 20.871094 13.300781 L 20.878906 13.296875 L 20.890625 13.289062 L 20.898438 13.285156 L 20.90625 13.277344 L 20.917969 13.273438 L 20.933594 13.257812 L 20.945312 13.25 L 20.953125 13.246094 L 20.960938 13.234375 L 20.972656 13.230469 L 20.980469 13.222656 L 20.988281 13.210938 L 20.996094 13.203125 L 21.007812 13.195312 L 21.070312 13.261719 L 21.0625 13.269531 L 21.050781 13.277344 L 21.042969 13.285156 L 21.035156 13.296875 L 21.023438 13.304688 L 21.015625 13.3125 L 21.007812 13.324219 L 20.984375 13.339844 L 20.976562 13.351562 L 20.941406 13.375 L 20.929688 13.378906 L 20.917969 13.386719 L 20.90625 13.390625 L 20.890625 13.398438 L 20.878906 13.402344 L 20.855469 13.417969 L 20.84375 13.421875 L 20.832031 13.429688 L 20.820312 13.433594 L 20.808594 13.441406 L 20.796875 13.445312 L 20.785156 13.453125 L 20.773438 13.457031 L 20.761719 13.464844 L 20.746094 13.46875 L 20.734375 13.476562 L 20.722656 13.480469 Z M 20.710938 13.488281 L 20.679688 13.5 Z M 20.265625 13.566406 L 20.265625 13.476562 L 20.417969 13.476562 L 20.433594 13.472656 L 20.445312 13.46875 L 20.457031 13.46875 L 20.492188 13.457031 L 20.503906 13.457031 L 20.550781 13.441406 L 20.5625 13.441406 L 20.578125 13.4375 L 20.601562 13.429688 L 20.613281 13.429688 L 20.648438 13.417969 L 20.660156 13.417969 L 20.671875 13.414062 L 20.707031 13.496094 L 20.695312 13.503906 L 20.683594 13.507812 L 20.667969 13.515625 L 20.65625 13.519531 L 20.644531 13.519531 L 20.597656 13.535156 L 20.582031 13.535156 L 20.550781 13.542969 L 20.539062 13.546875 L 20.523438 13.546875 L 20.511719 13.550781 L 20.480469 13.558594 L 20.464844 13.558594 L 20.417969 13.570312 L 20.253906 13.570312 Z M 20.265625 13.566406 "/>
<path style=" stroke:none;fill-rule:nonzero;fill:rgb(92.941176%,41.176471%,36.078431%);fill-opacity:1;" d="M 22.113281 12.402344 L 23.0625 12.402344 L 23.0625 12.769531 L 22.113281 12.769531 Z M 22.144531 13.488281 L 21.6875 13.488281 L 21.6875 11.515625 L 23.183594 11.515625 L 23.183594 11.882812 L 22.144531 11.882812 Z M 22.144531 13.488281 "/>
<path style=" stroke:none;fill-rule:nonzero;fill:rgb(92.941176%,41.176471%,36.078431%);fill-opacity:1;" d="M 23.058594 12.449219 L 22.109375 12.449219 L 22.109375 12.359375 L 23.058594 12.359375 L 23.105469 12.402344 Z M 23.058594 12.359375 L 23.105469 12.359375 L 23.105469 12.402344 Z M 23.015625 12.769531 L 23.015625 12.402344 L 23.105469 12.402344 L 23.105469 12.769531 L 23.058594 12.816406 Z M 23.105469 12.769531 L 23.105469 12.816406 L 23.058594 12.816406 Z M 22.109375 12.726562 L 23.058594 12.726562 L 23.058594 12.816406 L 22.109375 12.816406 L 22.0625 12.769531 Z M 22.109375 12.816406 L 22.0625 12.816406 L 22.0625 12.769531 Z M 22.152344 12.402344 L 22.152344 12.769531 L 22.0625 12.769531 L 22.0625 12.402344 L 22.109375 12.359375 Z M 22.0625 12.402344 L 22.0625 12.359375 L 22.109375 12.359375 Z M 21.679688 13.441406 L 22.140625 13.441406 L 22.140625 13.535156 L 21.679688 13.535156 L 21.636719 13.488281 Z M 21.679688 13.535156 L 21.636719 13.535156 L 21.636719 13.488281 Z M 21.726562 11.515625 L 21.726562 13.488281 L 21.636719 13.488281 L 21.636719 11.515625 L 21.679688 11.46875 Z M 21.636719 11.515625 L 21.636719 11.46875 L 21.679688 11.46875 Z M 23.175781 11.558594 L 21.679688 11.558594 L 21.679688 11.46875 L 23.175781 11.46875 L 23.222656 11.515625 Z M 23.175781 11.46875 L 23.222656 11.46875 L 23.222656 11.515625 Z M 23.132812 11.882812 L 23.132812 11.515625 L 23.222656 11.515625 L 23.222656 11.882812 L 23.175781 11.925781 Z M 23.222656 11.882812 L 23.222656 11.925781 L 23.175781 11.925781 Z M 22.140625 11.835938 L 23.175781 11.835938 L 23.175781 11.925781 L 22.140625 11.925781 L 22.09375 11.882812 Z M 22.09375 11.882812 L 22.09375 11.835938 L 22.140625 11.835938 Z M 22.09375 13.488281 L 22.09375 11.882812 L 22.183594 11.882812 L 22.183594 13.488281 L 22.140625 13.535156 Z M 22.183594 13.488281 L 22.183594 13.535156 L 22.140625 13.535156 Z M 22.183594 13.488281 "/>
<path style=" stroke:none;fill-rule:nonzero;fill:rgb(92.941176%,41.176471%,36.078431%);fill-opacity:1;" d="M 23.914062 12.402344 L 24.863281 12.402344 L 24.863281 12.769531 L 23.914062 12.769531 Z M 23.949219 13.488281 L 23.492188 13.488281 L 23.492188 11.515625 L 24.988281 11.515625 L 24.988281 11.882812 L 23.949219 11.882812 Z M 23.949219 13.488281 "/>
<path style=" stroke:none;fill-rule:nonzero;fill:rgb(92.941176%,41.176471%,36.078431%);fill-opacity:1;" d="M 24.867188 12.449219 L 23.917969 12.449219 L 23.917969 12.359375 L 24.867188 12.359375 L 24.910156 12.402344 Z M 24.867188 12.359375 L 24.910156 12.359375 L 24.910156 12.402344 Z M 24.820312 12.769531 L 24.820312 12.402344 L 24.910156 12.402344 L 24.910156 12.769531 L 24.867188 12.816406 Z M 24.910156 12.769531 L 24.910156 12.816406 L 24.867188 12.816406 Z M 23.917969 12.726562 L 24.867188 12.726562 L 24.867188 12.816406 L 23.917969 12.816406 L 23.871094 12.769531 Z M 23.917969 12.816406 L 23.871094 12.816406 L 23.871094 12.769531 Z M 23.964844 12.402344 L 23.964844 12.769531 L 23.871094 12.769531 L 23.871094 12.402344 L 23.917969 12.359375 Z M 23.871094 12.402344 L 23.871094 12.359375 L 23.917969 12.359375 Z M 23.492188 13.441406 L 23.949219 13.441406 L 23.949219 13.535156 L 23.492188 13.535156 L 23.449219 13.488281 Z M 23.492188 13.535156 L 23.449219 13.535156 L 23.449219 13.488281 Z M 23.539062 11.515625 L 23.539062 13.488281 L 23.449219 13.488281 L 23.449219 11.515625 L 23.492188 11.46875 Z M 23.449219 11.515625 L 23.449219 11.46875 L 23.492188 11.46875 Z M 24.988281 11.558594 L 23.492188 11.558594 L 23.492188 11.46875 L 24.988281 11.46875 L 25.035156 11.515625 Z M 24.988281 11.46875 L 25.035156 11.46875 L 25.035156 11.515625 Z M 24.945312 11.882812 L 24.945312 11.515625 L 25.035156 11.515625 L 25.035156 11.882812 L 24.988281 11.925781 Z M 25.035156 11.882812 L 25.035156 11.925781 L 24.988281 11.925781 Z M 23.949219 11.835938 L 24.988281 11.835938 L 24.988281 11.925781 L 23.949219 11.925781 L 23.90625 11.882812 Z M 23.90625 11.882812 L 23.90625 11.835938 L 23.949219 11.835938 Z M 23.90625 13.488281 L 23.90625 11.882812 L 23.996094 11.882812 L 23.996094 13.488281 L 23.949219 13.535156 Z M 23.996094 13.488281 L 23.996094 13.535156 L 23.949219 13.535156 Z M 23.996094 13.488281 "/>
</g>
</svg>
