<?xml version="1.0" encoding="UTF-8"?>
<svg xmlns="http://www.w3.org/2000/svg" xmlns:xlink="http://www.w3.org/1999/xlink" width="28px" height="28px" viewBox="0 0 28 15" version="1.1">
<g id="surface1">
<path style=" stroke:none;fill-rule:nonzero;fill:rgb(92.941176%,41.176471%,36.078431%);fill-opacity:1;" d="M 18.945312 9.746094 L 17.179688 9.734375 C 16.835938 9.734375 16.613281 9.550781 16.613281 9.207031 C 16.613281 8.863281 16.953125 8.695312 17.292969 8.695312 L 19.152344 8.695312 C 19.386719 8.695312 19.601562 8.828125 19.707031 9.039062 L 22.1875 13.984375 C 22.390625 14.398438 22.09375 14.878906 21.632812 14.878906 L 8.914062 14.828125 L 9.542969 13.898438 L 21.140625 13.960938 L 18.949219 9.746094 Z M 18.945312 9.746094 "/>
<path style=" stroke:none;fill-rule:nonzero;fill:rgb(92.941176%,41.176471%,36.078431%);fill-opacity:1;" d="M 3.308594 9.71875 L 5.074219 9.707031 C 5.414062 9.707031 5.640625 9.523438 5.640625 9.179688 C 5.640625 8.839844 5.300781 8.671875 4.960938 8.671875 L 3.101562 8.671875 C 2.867188 8.671875 2.652344 8.800781 2.546875 9.011719 L 0.0664062 13.957031 C -0.136719 14.371094 0.160156 14.851562 0.621094 14.851562 L 10.539062 14.832031 L 9.910156 13.902344 L 1.113281 13.933594 L 3.304688 9.71875 Z M 3.308594 9.71875 "/>
<path style=" stroke:none;fill-rule:nonzero;fill:rgb(92.941176%,41.176471%,36.078431%);fill-opacity:1;" d="M 8.605469 5.554688 C 8.277344 4.882812 8.015625 4.355469 8.59375 3.488281 C 8.714844 3.304688 8.664062 3.054688 8.480469 2.929688 C 8.296875 2.808594 8.042969 2.859375 7.921875 3.042969 C 7.082031 4.292969 7.527344 5.191406 7.882812 5.90625 C 8.21875 6.578125 8.460938 7.066406 7.921875 7.875 C 7.796875 8.058594 7.847656 8.308594 8.03125 8.433594 C 8.101562 8.476562 8.179688 8.5 8.257812 8.5 C 8.386719 8.5 8.515625 8.4375 8.59375 8.320312 C 9.390625 7.125 8.960938 6.253906 8.609375 5.550781 Z M 8.605469 5.554688 "/>
<path style=" stroke:none;fill-rule:nonzero;fill:rgb(92.941176%,41.176471%,36.078431%);fill-opacity:1;" d="M 11.820312 5.554688 C 11.492188 4.882812 11.230469 4.355469 11.804688 3.488281 C 11.925781 3.304688 11.875 3.054688 11.691406 2.929688 C 11.507812 2.808594 11.257812 2.859375 11.132812 3.042969 C 10.296875 4.292969 10.742188 5.191406 11.097656 5.90625 C 11.429688 6.578125 11.671875 7.066406 11.132812 7.875 C 11.007812 8.058594 11.058594 8.308594 11.242188 8.433594 C 11.3125 8.476562 11.390625 8.5 11.46875 8.5 C 11.597656 8.5 11.726562 8.4375 11.804688 8.320312 C 12.601562 7.125 12.171875 6.253906 11.820312 5.550781 Z M 11.820312 5.554688 "/>
<path style=" stroke:none;fill-rule:nonzero;fill:rgb(92.941176%,41.176471%,36.078431%);fill-opacity:1;" d="M 15.039062 5.554688 C 14.707031 4.882812 14.445312 4.355469 15.023438 3.488281 C 15.144531 3.304688 15.09375 3.054688 14.910156 2.929688 C 14.726562 2.808594 14.472656 2.859375 14.351562 3.042969 C 13.515625 4.292969 13.960938 5.191406 14.316406 5.90625 C 14.648438 6.578125 14.890625 7.066406 14.351562 7.875 C 14.226562 8.058594 14.277344 8.308594 14.460938 8.433594 C 14.53125 8.476562 14.609375 8.5 14.683594 8.5 C 14.8125 8.5 14.945312 8.4375 15.023438 8.320312 C 15.820312 7.125 15.390625 6.253906 15.039062 5.550781 Z M 15.039062 5.554688 "/>
<path style=" stroke:none;fill-rule:nonzero;fill:rgb(92.941176%,41.176471%,36.078431%);fill-opacity:1;" d="M 18.9375 0.800781 C 17.730469 1.492188 16.800781 2.578125 16.300781 3.871094 C 16.246094 4.011719 16.320312 4.171875 16.460938 4.226562 C 16.601562 4.28125 16.761719 4.207031 16.816406 4.066406 C 17.777344 1.578125 20.386719 0.140625 23.007812 0.65625 C 25.632812 1.167969 27.503906 3.488281 27.449219 6.148438 C 27.394531 8.8125 25.429688 11.050781 22.789062 11.460938 C 22.691406 11.472656 22.609375 11.539062 22.574219 11.632812 C 22.535156 11.722656 22.550781 11.828125 22.613281 11.902344 C 22.675781 11.980469 22.777344 12.019531 22.875 12.003906 C 25.277344 11.632812 27.21875 9.867188 27.816406 7.515625 C 28.414062 5.164062 27.542969 2.6875 25.605469 1.226562 C 23.667969 -0.238281 21.039062 -0.40625 18.9375 0.800781 Z M 18.9375 0.800781 "/>
<path style=" stroke:none;fill-rule:nonzero;fill:rgb(92.941176%,41.176471%,36.078431%);fill-opacity:1;" d="M 20.257812 6.636719 C 20.34375 6.636719 20.429688 6.621094 20.5 6.59375 C 20.578125 6.5625 20.644531 6.519531 20.699219 6.460938 C 20.753906 6.40625 20.800781 6.339844 20.828125 6.261719 C 20.863281 6.183594 20.878906 6.097656 20.878906 6.003906 C 20.878906 5.910156 20.863281 5.824219 20.828125 5.746094 C 20.800781 5.671875 20.753906 5.605469 20.699219 5.546875 C 20.644531 5.488281 20.578125 5.449219 20.503906 5.417969 C 20.429688 5.386719 20.347656 5.371094 20.257812 5.371094 C 20.167969 5.371094 20.085938 5.386719 20.011719 5.417969 C 19.933594 5.449219 19.871094 5.488281 19.816406 5.546875 C 19.757812 5.605469 19.714844 5.671875 19.683594 5.746094 C 19.652344 5.824219 19.636719 5.910156 19.636719 6.003906 C 19.636719 6.097656 19.652344 6.179688 19.683594 6.257812 C 19.714844 6.335938 19.757812 6.402344 19.8125 6.460938 C 19.867188 6.515625 19.933594 6.558594 20.011719 6.589844 C 20.085938 6.617188 20.167969 6.632812 20.257812 6.632812 Z M 20.261719 7.023438 C 20.105469 7.023438 19.960938 7 19.828125 6.949219 C 19.695312 6.898438 19.578125 6.824219 19.480469 6.734375 C 19.382812 6.644531 19.308594 6.535156 19.253906 6.410156 C 19.203125 6.285156 19.171875 6.152344 19.171875 6.007812 C 19.171875 5.859375 19.199219 5.722656 19.253906 5.601562 C 19.308594 5.476562 19.382812 5.371094 19.484375 5.277344 C 19.578125 5.183594 19.699219 5.113281 19.828125 5.0625 C 19.960938 5.011719 20.105469 4.988281 20.257812 4.988281 C 20.414062 4.988281 20.558594 5.011719 20.6875 5.0625 C 20.816406 5.113281 20.933594 5.1875 21.027344 5.277344 C 21.125 5.371094 21.199219 5.476562 21.257812 5.597656 C 21.3125 5.722656 21.339844 5.855469 21.339844 6.007812 C 21.339844 6.152344 21.3125 6.289062 21.257812 6.414062 C 21.203125 6.539062 21.128906 6.648438 21.027344 6.738281 C 20.933594 6.828125 20.816406 6.902344 20.6875 6.953125 C 20.558594 7.003906 20.410156 7.027344 20.261719 7.027344 Z M 20.261719 7.023438 "/>
<path style=" stroke:none;fill-rule:nonzero;fill:rgb(92.941176%,41.176471%,36.078431%);fill-opacity:1;" d="M 20.484375 6.550781 L 20.519531 6.632812 L 20.496094 6.644531 L 20.484375 6.644531 L 20.480469 6.648438 L 20.472656 6.652344 L 20.460938 6.65625 L 20.453125 6.65625 L 20.445312 6.660156 L 20.433594 6.664062 L 20.417969 6.671875 L 20.40625 6.671875 L 20.390625 6.679688 L 20.378906 6.679688 L 20.371094 6.683594 L 20.234375 6.683594 L 20.234375 6.59375 L 20.378906 6.59375 L 20.394531 6.585938 L 20.398438 6.582031 L 20.40625 6.578125 L 20.410156 6.578125 L 20.417969 6.574219 L 20.421875 6.570312 L 20.429688 6.566406 L 20.433594 6.566406 L 20.441406 6.5625 L 20.445312 6.558594 L 20.453125 6.554688 L 20.460938 6.554688 Z M 20.484375 6.550781 L 20.503906 6.539062 Z M 20.667969 6.429688 L 20.734375 6.492188 L 20.730469 6.5 L 20.722656 6.503906 L 20.71875 6.511719 L 20.710938 6.515625 L 20.707031 6.523438 L 20.699219 6.527344 L 20.695312 6.535156 L 20.6875 6.539062 L 20.683594 6.546875 L 20.675781 6.554688 L 20.667969 6.558594 L 20.664062 6.566406 L 20.65625 6.570312 L 20.652344 6.574219 L 20.644531 6.578125 L 20.640625 6.582031 L 20.632812 6.585938 L 20.628906 6.589844 L 20.621094 6.59375 L 20.617188 6.597656 L 20.601562 6.605469 L 20.597656 6.605469 L 20.589844 6.609375 L 20.585938 6.613281 L 20.578125 6.617188 L 20.570312 6.617188 L 20.539062 6.632812 L 20.53125 6.632812 L 20.5 6.550781 L 20.503906 6.546875 L 20.511719 6.542969 L 20.515625 6.539062 L 20.523438 6.539062 L 20.527344 6.535156 L 20.535156 6.53125 L 20.539062 6.527344 L 20.546875 6.527344 L 20.550781 6.523438 L 20.558594 6.519531 L 20.5625 6.515625 L 20.570312 6.515625 L 20.578125 6.511719 L 20.582031 6.507812 L 20.589844 6.503906 L 20.59375 6.5 L 20.601562 6.5 L 20.605469 6.496094 L 20.613281 6.492188 L 20.617188 6.488281 L 20.625 6.488281 L 20.628906 6.484375 L 20.644531 6.476562 L 20.660156 6.460938 L 20.667969 6.460938 L 20.671875 6.453125 L 20.679688 6.449219 L 20.691406 6.4375 Z M 20.734375 6.492188 Z M 20.792969 6.242188 L 20.878906 6.28125 L 20.875 6.289062 L 20.871094 6.292969 L 20.867188 6.304688 L 20.867188 6.3125 L 20.859375 6.328125 L 20.855469 6.332031 L 20.851562 6.339844 L 20.851562 6.34375 L 20.84375 6.359375 L 20.839844 6.363281 L 20.839844 6.371094 L 20.835938 6.375 L 20.832031 6.382812 L 20.828125 6.386719 L 20.824219 6.394531 L 20.789062 6.429688 L 20.785156 6.4375 L 20.777344 6.441406 L 20.773438 6.449219 L 20.765625 6.453125 L 20.761719 6.460938 L 20.753906 6.464844 L 20.734375 6.484375 L 20.667969 6.421875 L 20.675781 6.414062 L 20.683594 6.410156 L 20.683594 6.402344 L 20.691406 6.398438 L 20.695312 6.390625 L 20.695312 6.382812 L 20.703125 6.378906 L 20.707031 6.371094 L 20.710938 6.367188 L 20.714844 6.359375 L 20.71875 6.355469 L 20.722656 6.347656 L 20.722656 6.34375 L 20.726562 6.335938 L 20.730469 6.332031 L 20.734375 6.324219 L 20.734375 6.320312 L 20.742188 6.304688 L 20.746094 6.300781 L 20.746094 6.292969 L 20.75 6.289062 L 20.753906 6.28125 L 20.757812 6.277344 L 20.761719 6.269531 L 20.761719 6.265625 L 20.765625 6.257812 L 20.769531 6.253906 L 20.773438 6.246094 L 20.773438 6.242188 L 20.777344 6.234375 L 20.78125 6.230469 Z M 20.792969 6.242188 L 20.789062 6.25 Z M 20.839844 6.003906 L 20.929688 6.003906 L 20.929688 6.136719 L 20.925781 6.148438 L 20.925781 6.15625 L 20.921875 6.164062 L 20.917969 6.175781 L 20.917969 6.183594 L 20.914062 6.191406 L 20.910156 6.203125 L 20.90625 6.210938 L 20.90625 6.21875 L 20.902344 6.230469 L 20.890625 6.253906 L 20.890625 6.265625 L 20.882812 6.28125 L 20.878906 6.292969 L 20.796875 6.253906 L 20.800781 6.25 L 20.800781 6.242188 L 20.804688 6.238281 L 20.808594 6.230469 L 20.8125 6.226562 L 20.8125 6.21875 L 20.816406 6.214844 L 20.828125 6.191406 L 20.828125 6.1875 L 20.832031 6.175781 L 20.832031 6.171875 L 20.835938 6.164062 L 20.835938 6.011719 Z M 20.792969 5.761719 L 20.878906 5.730469 L 20.878906 5.738281 L 20.882812 5.746094 L 20.886719 5.757812 L 20.890625 5.765625 L 20.890625 5.773438 L 20.894531 5.785156 L 20.902344 5.800781 L 20.90625 5.8125 L 20.90625 5.820312 L 20.910156 5.828125 L 20.914062 5.839844 L 20.917969 5.847656 L 20.917969 5.855469 L 20.921875 5.863281 L 20.921875 5.875 L 20.925781 5.882812 L 20.925781 6.019531 L 20.835938 6.019531 L 20.835938 5.863281 L 20.832031 5.859375 L 20.832031 5.851562 L 20.828125 5.84375 L 20.828125 5.839844 L 20.816406 5.816406 L 20.8125 5.8125 L 20.8125 5.804688 L 20.808594 5.800781 L 20.800781 5.785156 L 20.800781 5.78125 L 20.796875 5.773438 Z M 20.792969 5.761719 L 20.796875 5.761719 Z M 20.671875 5.578125 L 20.738281 5.515625 L 20.746094 5.519531 L 20.75 5.527344 L 20.757812 5.53125 L 20.761719 5.539062 L 20.769531 5.542969 L 20.773438 5.550781 L 20.78125 5.554688 L 20.8125 5.585938 L 20.816406 5.59375 L 20.820312 5.597656 L 20.824219 5.605469 L 20.828125 5.609375 L 20.832031 5.617188 L 20.835938 5.621094 L 20.839844 5.628906 L 20.839844 5.632812 L 20.84375 5.640625 L 20.847656 5.644531 L 20.851562 5.652344 L 20.851562 5.65625 L 20.859375 5.671875 L 20.863281 5.675781 L 20.867188 5.683594 L 20.867188 5.691406 L 20.878906 5.714844 L 20.792969 5.746094 L 20.789062 5.742188 L 20.789062 5.734375 L 20.785156 5.730469 L 20.78125 5.722656 L 20.777344 5.71875 L 20.773438 5.710938 L 20.773438 5.707031 L 20.769531 5.699219 L 20.765625 5.695312 L 20.761719 5.6875 L 20.761719 5.683594 L 20.757812 5.675781 L 20.753906 5.671875 L 20.746094 5.65625 L 20.746094 5.652344 L 20.742188 5.644531 L 20.738281 5.640625 L 20.734375 5.632812 L 20.734375 5.628906 L 20.730469 5.621094 L 20.726562 5.617188 L 20.722656 5.609375 L 20.71875 5.605469 L 20.714844 5.597656 L 20.710938 5.59375 L 20.707031 5.585938 L 20.707031 5.578125 L 20.699219 5.574219 L 20.695312 5.566406 L 20.683594 5.554688 Z M 20.671875 5.578125 L 20.644531 5.546875 Z M 20.492188 5.457031 L 20.523438 5.371094 L 20.546875 5.382812 L 20.550781 5.382812 L 20.5625 5.386719 L 20.578125 5.394531 L 20.582031 5.398438 L 20.589844 5.398438 L 20.597656 5.402344 L 20.601562 5.40625 L 20.609375 5.410156 L 20.617188 5.410156 L 20.621094 5.414062 L 20.628906 5.417969 L 20.632812 5.421875 L 20.640625 5.421875 L 20.644531 5.429688 L 20.65625 5.441406 L 20.664062 5.445312 L 20.675781 5.457031 L 20.683594 5.460938 L 20.6875 5.46875 L 20.730469 5.511719 L 20.664062 5.574219 L 20.628906 5.539062 L 20.625 5.539062 L 20.613281 5.527344 L 20.605469 5.527344 L 20.601562 5.523438 L 20.59375 5.519531 L 20.589844 5.515625 L 20.582031 5.515625 L 20.578125 5.511719 L 20.5625 5.503906 L 20.558594 5.5 L 20.550781 5.5 L 20.546875 5.496094 L 20.539062 5.492188 L 20.535156 5.488281 L 20.527344 5.488281 L 20.523438 5.484375 L 20.515625 5.480469 L 20.511719 5.476562 L 20.503906 5.476562 L 20.5 5.472656 L 20.484375 5.464844 L 20.480469 5.460938 L 20.472656 5.460938 Z M 20.492188 5.457031 L 20.496094 5.457031 Z M 20.261719 5.414062 L 20.261719 5.324219 L 20.398438 5.324219 L 20.40625 5.328125 L 20.417969 5.328125 L 20.425781 5.332031 L 20.433594 5.332031 L 20.445312 5.335938 L 20.460938 5.34375 L 20.46875 5.34375 L 20.484375 5.351562 L 20.496094 5.355469 L 20.503906 5.359375 L 20.511719 5.359375 L 20.523438 5.363281 L 20.539062 5.371094 L 20.546875 5.371094 L 20.511719 5.457031 L 20.507812 5.453125 L 20.5 5.449219 L 20.496094 5.449219 L 20.488281 5.445312 L 20.484375 5.441406 L 20.476562 5.4375 L 20.472656 5.4375 L 20.464844 5.433594 L 20.460938 5.429688 L 20.445312 5.421875 L 20.433594 5.421875 L 20.429688 5.417969 L 20.289062 5.417969 Z M 20.035156 5.457031 L 20 5.371094 L 20.011719 5.371094 L 20.015625 5.367188 L 20.027344 5.363281 L 20.035156 5.359375 L 20.042969 5.359375 L 20.050781 5.355469 L 20.0625 5.351562 L 20.078125 5.34375 L 20.085938 5.34375 L 20.09375 5.339844 L 20.105469 5.335938 L 20.113281 5.332031 L 20.121094 5.332031 L 20.132812 5.328125 L 20.140625 5.328125 L 20.148438 5.324219 L 20.285156 5.324219 L 20.285156 5.414062 L 20.144531 5.414062 L 20.136719 5.417969 L 20.132812 5.417969 L 20.125 5.421875 L 20.117188 5.421875 L 20.113281 5.425781 L 20.105469 5.429688 L 20.101562 5.433594 L 20.09375 5.4375 L 20.089844 5.4375 L 20.082031 5.441406 L 20.078125 5.445312 L 20.070312 5.449219 L 20.066406 5.449219 L 20.058594 5.453125 Z M 20.035156 5.457031 L 20.03125 5.457031 Z M 19.855469 5.578125 L 19.789062 5.515625 L 19.796875 5.507812 L 19.800781 5.5 L 19.808594 5.496094 L 19.882812 5.421875 L 19.886719 5.421875 L 19.894531 5.417969 L 19.898438 5.414062 L 19.90625 5.410156 L 19.910156 5.40625 L 19.917969 5.402344 L 19.921875 5.398438 L 19.929688 5.398438 L 19.933594 5.394531 L 19.957031 5.382812 L 19.964844 5.382812 L 19.972656 5.378906 L 19.976562 5.375 L 19.988281 5.371094 L 19.992188 5.371094 L 20.027344 5.453125 L 20.011719 5.460938 L 20.007812 5.460938 L 20 5.464844 L 19.996094 5.46875 L 19.988281 5.472656 L 19.984375 5.476562 L 19.976562 5.476562 L 19.972656 5.480469 L 19.964844 5.484375 L 19.960938 5.488281 L 19.953125 5.488281 L 19.945312 5.492188 L 19.941406 5.496094 L 19.933594 5.5 L 19.929688 5.5 L 19.921875 5.503906 L 19.917969 5.507812 L 19.910156 5.511719 L 19.90625 5.515625 L 19.898438 5.515625 L 19.894531 5.519531 L 19.886719 5.523438 L 19.875 5.535156 L 19.867188 5.539062 L 19.832031 5.574219 Z M 19.855469 5.578125 Z M 19.730469 5.761719 L 19.644531 5.726562 L 19.660156 5.695312 L 19.660156 5.683594 L 19.664062 5.679688 L 19.671875 5.664062 L 19.671875 5.65625 L 19.675781 5.652344 L 19.679688 5.644531 L 19.683594 5.640625 L 19.683594 5.632812 L 19.6875 5.628906 L 19.691406 5.621094 L 19.695312 5.617188 L 19.699219 5.609375 L 19.703125 5.605469 L 19.707031 5.597656 L 19.71875 5.585938 L 19.722656 5.578125 L 19.730469 5.574219 L 19.785156 5.519531 L 19.847656 5.582031 L 19.84375 5.589844 L 19.835938 5.59375 L 19.824219 5.605469 L 19.820312 5.613281 L 19.808594 5.625 L 19.804688 5.632812 L 19.800781 5.636719 L 19.800781 5.644531 L 19.796875 5.648438 L 19.792969 5.65625 L 19.789062 5.660156 L 19.789062 5.667969 L 19.785156 5.671875 L 19.78125 5.679688 L 19.777344 5.683594 L 19.777344 5.691406 L 19.773438 5.695312 L 19.765625 5.710938 L 19.761719 5.714844 L 19.761719 5.722656 L 19.757812 5.726562 L 19.753906 5.734375 L 19.75 5.738281 L 19.75 5.746094 L 19.746094 5.75 L 19.742188 5.757812 L 19.738281 5.761719 L 19.738281 5.769531 L 19.734375 5.773438 Z M 19.644531 5.726562 L 19.644531 5.730469 Z M 19.6875 6 L 19.597656 6 L 19.597656 5.847656 L 19.601562 5.839844 L 19.605469 5.828125 L 19.605469 5.820312 L 19.609375 5.8125 L 19.613281 5.800781 L 19.617188 5.792969 L 19.617188 5.785156 L 19.621094 5.773438 L 19.628906 5.757812 L 19.632812 5.746094 L 19.632812 5.738281 L 19.640625 5.722656 L 19.644531 5.710938 L 19.726562 5.746094 L 19.722656 5.75 L 19.722656 5.757812 L 19.71875 5.761719 L 19.714844 5.769531 L 19.710938 5.773438 L 19.710938 5.78125 L 19.707031 5.785156 L 19.699219 5.800781 L 19.699219 5.804688 L 19.695312 5.8125 L 19.691406 5.816406 L 19.691406 5.824219 L 19.6875 5.832031 Z M 19.730469 6.238281 L 19.644531 6.269531 L 19.644531 6.261719 L 19.640625 6.253906 L 19.636719 6.242188 L 19.632812 6.234375 L 19.632812 6.226562 L 19.628906 6.214844 L 19.617188 6.191406 L 19.617188 6.179688 L 19.609375 6.164062 L 19.605469 6.152344 L 19.605469 6.144531 L 19.601562 6.136719 L 19.601562 5.980469 L 19.691406 5.980469 L 19.691406 6.132812 L 19.695312 6.140625 L 19.695312 6.148438 L 19.699219 6.152344 L 19.699219 6.160156 L 19.703125 6.164062 L 19.707031 6.171875 L 19.710938 6.175781 L 19.710938 6.183594 L 19.714844 6.191406 L 19.71875 6.195312 L 19.722656 6.203125 L 19.722656 6.207031 L 19.726562 6.214844 L 19.730469 6.21875 Z M 19.644531 6.269531 L 19.644531 6.273438 Z M 19.851562 6.421875 L 19.789062 6.488281 L 19.722656 6.421875 L 19.71875 6.414062 L 19.710938 6.410156 L 19.707031 6.402344 L 19.703125 6.398438 L 19.699219 6.390625 L 19.699219 6.382812 L 19.695312 6.378906 L 19.691406 6.371094 L 19.6875 6.367188 L 19.683594 6.359375 L 19.683594 6.355469 L 19.679688 6.347656 L 19.675781 6.34375 L 19.671875 6.332031 L 19.671875 6.328125 L 19.660156 6.304688 L 19.660156 6.292969 L 19.65625 6.289062 L 19.652344 6.28125 L 19.738281 6.246094 L 19.738281 6.253906 L 19.742188 6.257812 L 19.746094 6.265625 L 19.75 6.269531 L 19.75 6.277344 L 19.753906 6.28125 L 19.757812 6.289062 L 19.761719 6.292969 L 19.761719 6.300781 L 19.765625 6.304688 L 19.773438 6.320312 L 19.777344 6.324219 L 19.777344 6.332031 L 19.78125 6.335938 L 19.785156 6.34375 L 19.789062 6.347656 L 19.789062 6.355469 L 19.792969 6.359375 L 19.796875 6.367188 L 19.800781 6.371094 L 19.800781 6.378906 L 19.8125 6.390625 L 19.816406 6.398438 L 19.816406 6.402344 L 19.820312 6.410156 L 19.828125 6.414062 L 19.828125 6.421875 L 19.835938 6.425781 L 19.847656 6.4375 Z M 19.789062 6.488281 L 19.730469 6.429688 Z M 20.035156 6.542969 L 20 6.628906 L 19.992188 6.625 L 19.988281 6.621094 L 19.980469 6.617188 L 19.972656 6.617188 L 19.964844 6.613281 L 19.960938 6.609375 L 19.949219 6.605469 L 19.945312 6.605469 L 19.9375 6.601562 L 19.933594 6.597656 L 19.921875 6.59375 L 19.917969 6.59375 L 19.910156 6.589844 L 19.90625 6.582031 L 19.898438 6.578125 L 19.894531 6.578125 L 19.886719 6.574219 L 19.882812 6.566406 L 19.875 6.566406 L 19.855469 6.546875 L 19.851562 6.539062 L 19.84375 6.535156 L 19.839844 6.527344 L 19.832031 6.523438 L 19.828125 6.515625 L 19.820312 6.511719 L 19.816406 6.503906 L 19.808594 6.5 L 19.796875 6.488281 L 19.859375 6.421875 L 19.871094 6.433594 L 19.878906 6.4375 L 19.882812 6.445312 L 19.890625 6.449219 L 19.894531 6.453125 L 19.902344 6.457031 L 19.90625 6.460938 L 19.914062 6.460938 L 19.921875 6.464844 L 19.925781 6.46875 L 19.933594 6.472656 L 19.9375 6.476562 L 19.945312 6.476562 L 19.949219 6.480469 L 19.957031 6.484375 L 19.960938 6.488281 L 19.96875 6.488281 L 19.972656 6.492188 L 19.988281 6.5 L 19.992188 6.5 L 20 6.503906 L 20.003906 6.507812 L 20.011719 6.511719 L 20.015625 6.515625 L 20.023438 6.515625 L 20.027344 6.519531 L 20.035156 6.523438 L 20.039062 6.527344 L 20.046875 6.527344 L 20.050781 6.53125 Z M 20 6.628906 L 19.988281 6.621094 Z M 20.261719 6.585938 L 20.261719 6.675781 L 20.128906 6.675781 L 20.117188 6.671875 L 20.101562 6.671875 L 20.089844 6.667969 L 20.082031 6.664062 L 20.078125 6.660156 L 20.066406 6.65625 L 20.058594 6.65625 L 20.050781 6.652344 L 20.039062 6.648438 L 20.03125 6.644531 L 20.023438 6.644531 L 20 6.632812 L 19.992188 6.632812 L 19.984375 6.628906 L 20.015625 6.542969 L 20.023438 6.546875 L 20.027344 6.550781 L 20.035156 6.554688 L 20.039062 6.554688 L 20.046875 6.558594 L 20.050781 6.5625 L 20.058594 6.566406 L 20.066406 6.566406 L 20.070312 6.570312 L 20.078125 6.574219 L 20.082031 6.578125 L 20.089844 6.578125 L 20.09375 6.582031 L 20.25 6.582031 Z M 19.816406 6.984375 L 19.847656 6.902344 L 19.859375 6.902344 L 19.90625 6.917969 L 19.921875 6.917969 L 19.957031 6.929688 L 19.96875 6.929688 L 20.003906 6.941406 L 20.015625 6.941406 L 20.050781 6.953125 L 20.066406 6.957031 L 20.078125 6.957031 L 20.101562 6.964844 L 20.261719 6.964844 L 20.261719 7.054688 L 20.097656 7.054688 L 20.066406 7.046875 L 20.050781 7.046875 L 20.039062 7.042969 L 20.007812 7.035156 L 19.992188 7.035156 L 19.980469 7.03125 L 19.933594 7.019531 L 19.921875 7.019531 L 19.90625 7.015625 L 19.882812 7.007812 L 19.871094 7.007812 L 19.835938 6.996094 L 19.8125 6.980469 Z M 19.816406 6.984375 Z M 19.453125 6.761719 L 19.515625 6.695312 L 19.527344 6.703125 L 19.535156 6.710938 L 19.542969 6.722656 L 19.554688 6.730469 L 19.5625 6.738281 L 19.570312 6.75 L 19.578125 6.753906 L 19.589844 6.761719 L 19.597656 6.769531 L 19.605469 6.773438 L 19.617188 6.78125 L 19.625 6.785156 L 19.632812 6.792969 L 19.644531 6.800781 L 19.652344 6.804688 L 19.660156 6.8125 L 19.671875 6.816406 L 19.679688 6.824219 L 19.691406 6.828125 L 19.703125 6.835938 L 19.714844 6.839844 L 19.726562 6.847656 L 19.738281 6.851562 L 19.75 6.859375 L 19.761719 6.863281 L 19.777344 6.871094 L 19.789062 6.878906 L 19.800781 6.882812 L 19.8125 6.890625 L 19.824219 6.894531 L 19.835938 6.902344 L 19.847656 6.90625 L 19.816406 6.992188 L 19.800781 6.984375 L 19.789062 6.980469 L 19.777344 6.972656 L 19.765625 6.96875 L 19.753906 6.960938 L 19.742188 6.957031 L 19.71875 6.941406 L 19.707031 6.9375 L 19.695312 6.929688 L 19.683594 6.925781 L 19.671875 6.917969 L 19.660156 6.914062 L 19.644531 6.90625 L 19.632812 6.902344 L 19.621094 6.894531 L 19.609375 6.890625 L 19.597656 6.882812 L 19.585938 6.878906 L 19.574219 6.867188 L 19.5625 6.859375 L 19.554688 6.851562 L 19.539062 6.839844 L 19.523438 6.824219 L 19.515625 6.8125 L 19.503906 6.804688 L 19.496094 6.796875 L 19.488281 6.785156 L 19.476562 6.777344 L 19.460938 6.761719 Z M 19.453125 6.761719 Z M 19.21875 6.421875 L 19.304688 6.382812 L 19.308594 6.398438 L 19.316406 6.410156 L 19.320312 6.417969 L 19.328125 6.429688 L 19.332031 6.441406 L 19.339844 6.449219 L 19.34375 6.460938 L 19.351562 6.46875 L 19.355469 6.476562 L 19.363281 6.488281 L 19.371094 6.496094 L 19.375 6.503906 L 19.382812 6.515625 L 19.386719 6.523438 L 19.394531 6.53125 L 19.398438 6.539062 L 19.40625 6.550781 L 19.410156 6.558594 L 19.417969 6.566406 L 19.421875 6.578125 L 19.4375 6.59375 L 19.445312 6.605469 L 19.488281 6.648438 L 19.5 6.65625 L 19.507812 6.667969 L 19.515625 6.675781 L 19.527344 6.683594 L 19.460938 6.75 L 19.417969 6.707031 L 19.410156 6.695312 L 19.398438 6.6875 L 19.316406 6.605469 L 19.3125 6.59375 L 19.304688 6.582031 L 19.300781 6.570312 L 19.292969 6.558594 L 19.289062 6.546875 L 19.28125 6.535156 L 19.277344 6.523438 L 19.269531 6.511719 L 19.265625 6.5 L 19.25 6.476562 L 19.246094 6.460938 L 19.238281 6.449219 L 19.234375 6.4375 L 19.226562 6.425781 L 19.222656 6.414062 Z M 19.21875 6.421875 Z M 19.132812 5.996094 L 19.226562 5.996094 L 19.226562 6.128906 L 19.238281 6.164062 L 19.238281 6.175781 L 19.242188 6.191406 L 19.25 6.214844 L 19.25 6.226562 L 19.265625 6.273438 L 19.265625 6.285156 L 19.277344 6.320312 L 19.277344 6.332031 L 19.28125 6.34375 L 19.285156 6.359375 L 19.289062 6.371094 L 19.296875 6.382812 L 19.210938 6.417969 L 19.207031 6.40625 L 19.199219 6.394531 L 19.195312 6.382812 L 19.1875 6.371094 L 19.1875 6.359375 L 19.183594 6.34375 L 19.171875 6.308594 L 19.171875 6.296875 L 19.160156 6.261719 L 19.160156 6.25 L 19.144531 6.203125 L 19.144531 6.1875 L 19.140625 6.171875 L 19.132812 6.148438 Z M 19.21875 5.574219 L 19.304688 5.609375 L 19.289062 5.632812 L 19.289062 5.644531 L 19.285156 5.65625 L 19.28125 5.671875 L 19.277344 5.683594 L 19.277344 5.695312 L 19.265625 5.730469 L 19.265625 5.742188 L 19.25 5.789062 L 19.25 5.800781 L 19.242188 5.824219 L 19.238281 5.839844 L 19.238281 5.851562 L 19.230469 5.875 L 19.230469 5.996094 L 19.140625 5.996094 L 19.140625 5.859375 L 19.144531 5.84375 L 19.144531 5.832031 L 19.148438 5.820312 L 19.15625 5.789062 L 19.160156 5.777344 L 19.160156 5.765625 L 19.171875 5.730469 L 19.171875 5.71875 L 19.1875 5.671875 L 19.1875 5.65625 L 19.203125 5.609375 L 19.210938 5.597656 L 19.214844 5.585938 L 19.222656 5.574219 Z M 19.21875 5.574219 Z M 19.457031 5.234375 L 19.519531 5.300781 L 19.484375 5.335938 L 19.472656 5.34375 L 19.464844 5.355469 L 19.4375 5.382812 L 19.433594 5.390625 L 19.421875 5.398438 L 19.414062 5.410156 L 19.410156 5.417969 L 19.402344 5.425781 L 19.394531 5.4375 L 19.390625 5.445312 L 19.382812 5.453125 L 19.378906 5.460938 L 19.371094 5.472656 L 19.367188 5.480469 L 19.359375 5.488281 L 19.355469 5.5 L 19.347656 5.507812 L 19.34375 5.515625 L 19.335938 5.527344 L 19.332031 5.539062 L 19.324219 5.546875 L 19.316406 5.558594 L 19.3125 5.570312 L 19.304688 5.578125 L 19.300781 5.59375 L 19.292969 5.605469 L 19.210938 5.566406 L 19.214844 5.554688 L 19.222656 5.542969 L 19.226562 5.53125 L 19.234375 5.519531 L 19.238281 5.507812 L 19.246094 5.496094 L 19.25 5.484375 L 19.265625 5.460938 L 19.269531 5.449219 L 19.277344 5.4375 L 19.28125 5.421875 L 19.289062 5.410156 L 19.292969 5.398438 L 19.304688 5.386719 L 19.308594 5.375 L 19.316406 5.367188 L 19.332031 5.34375 L 19.34375 5.335938 L 19.386719 5.292969 L 19.394531 5.28125 L 19.40625 5.273438 L 19.414062 5.265625 L 19.421875 5.253906 L 19.433594 5.246094 L 19.441406 5.238281 L 19.449219 5.226562 Z M 19.519531 5.300781 Z M 19.816406 5.011719 L 19.847656 5.097656 L 19.835938 5.101562 L 19.824219 5.109375 L 19.8125 5.113281 L 19.800781 5.121094 L 19.789062 5.125 L 19.777344 5.132812 L 19.761719 5.136719 L 19.738281 5.152344 L 19.726562 5.15625 L 19.714844 5.164062 L 19.703125 5.167969 L 19.691406 5.175781 L 19.679688 5.179688 L 19.671875 5.1875 L 19.660156 5.191406 L 19.652344 5.199219 L 19.644531 5.203125 L 19.632812 5.210938 L 19.625 5.214844 L 19.617188 5.222656 L 19.605469 5.226562 L 19.597656 5.238281 L 19.589844 5.242188 L 19.578125 5.253906 L 19.570312 5.257812 L 19.5625 5.265625 L 19.554688 5.277344 L 19.542969 5.285156 L 19.535156 5.292969 L 19.527344 5.304688 L 19.515625 5.3125 L 19.453125 5.246094 L 19.488281 5.210938 L 19.5 5.203125 L 19.507812 5.191406 L 19.515625 5.183594 L 19.527344 5.175781 L 19.566406 5.136719 L 19.578125 5.128906 L 19.59375 5.125 L 19.605469 5.117188 L 19.617188 5.113281 L 19.640625 5.097656 L 19.652344 5.09375 L 19.664062 5.085938 L 19.675781 5.082031 L 19.6875 5.074219 L 19.699219 5.070312 L 19.710938 5.0625 L 19.722656 5.058594 L 19.738281 5.050781 L 19.75 5.046875 L 19.761719 5.039062 L 19.773438 5.035156 L 19.796875 5.019531 L 19.808594 5.015625 Z M 19.816406 5.011719 L 19.796875 5.019531 Z M 20.261719 4.933594 L 20.261719 5.023438 L 20.121094 5.023438 L 20.109375 5.027344 L 20.097656 5.027344 L 20.074219 5.035156 L 20.0625 5.035156 L 20.027344 5.046875 L 20.011719 5.046875 L 19.976562 5.058594 L 19.964844 5.058594 L 19.917969 5.074219 L 19.90625 5.074219 L 19.882812 5.082031 L 19.867188 5.085938 L 19.855469 5.089844 L 19.824219 5.007812 L 19.835938 5 L 19.894531 4.980469 L 19.90625 4.980469 L 19.921875 4.976562 L 19.945312 4.96875 L 19.960938 4.96875 L 19.972656 4.964844 L 20.003906 4.957031 L 20.019531 4.957031 L 20.066406 4.945312 L 20.078125 4.941406 L 20.09375 4.941406 L 20.125 4.933594 L 20.273438 4.933594 Z M 20.710938 5.011719 L 20.679688 5.097656 L 20.667969 5.089844 L 20.65625 5.085938 L 20.644531 5.085938 L 20.628906 5.082031 L 20.605469 5.074219 L 20.59375 5.074219 L 20.546875 5.058594 L 20.535156 5.058594 L 20.5 5.046875 L 20.484375 5.046875 L 20.449219 5.035156 L 20.425781 5.035156 L 20.414062 5.03125 L 20.269531 5.03125 L 20.269531 4.941406 L 20.433594 4.941406 L 20.496094 4.957031 L 20.511719 4.957031 L 20.523438 4.960938 L 20.554688 4.96875 L 20.570312 4.96875 L 20.59375 4.976562 L 20.609375 4.980469 L 20.625 4.980469 L 20.640625 4.984375 L 20.675781 4.996094 L 20.6875 4.996094 L 20.699219 5.003906 L 20.710938 5.007812 L 20.722656 5.015625 Z M 21.066406 5.238281 L 21.003906 5.304688 L 20.996094 5.292969 L 20.984375 5.285156 L 20.976562 5.277344 L 20.96875 5.265625 L 20.957031 5.257812 L 20.941406 5.242188 L 20.933594 5.238281 L 20.921875 5.230469 L 20.914062 5.226562 L 20.90625 5.21875 L 20.894531 5.214844 L 20.886719 5.207031 L 20.878906 5.203125 L 20.867188 5.195312 L 20.855469 5.191406 L 20.839844 5.175781 L 20.828125 5.171875 L 20.8125 5.164062 L 20.800781 5.160156 L 20.792969 5.152344 L 20.78125 5.148438 L 20.769531 5.140625 L 20.757812 5.136719 L 20.746094 5.128906 L 20.734375 5.125 L 20.722656 5.117188 L 20.707031 5.113281 L 20.683594 5.097656 L 20.671875 5.09375 L 20.707031 5.007812 L 20.71875 5.015625 L 20.730469 5.019531 L 20.753906 5.035156 L 20.765625 5.039062 L 20.777344 5.046875 L 20.789062 5.050781 L 20.800781 5.058594 L 20.8125 5.0625 L 20.828125 5.070312 L 20.839844 5.074219 L 20.851562 5.082031 L 20.863281 5.085938 L 20.875 5.09375 L 20.886719 5.097656 L 20.910156 5.113281 L 20.921875 5.117188 L 20.957031 5.140625 L 20.972656 5.152344 L 21.0625 5.242188 Z M 21.003906 5.304688 Z M 21.304688 5.574219 L 21.222656 5.609375 L 21.21875 5.597656 L 21.210938 5.585938 L 21.207031 5.574219 L 21.199219 5.566406 L 21.195312 5.554688 L 21.1875 5.542969 L 21.179688 5.535156 L 21.175781 5.523438 L 21.167969 5.515625 L 21.164062 5.503906 L 21.15625 5.496094 L 21.152344 5.488281 L 21.144531 5.476562 L 21.140625 5.46875 L 21.132812 5.460938 L 21.128906 5.449219 L 21.121094 5.441406 L 21.117188 5.433594 L 21.109375 5.421875 L 21.101562 5.414062 L 21.097656 5.40625 L 21.089844 5.398438 L 21.082031 5.386719 L 21.074219 5.378906 L 21.0625 5.371094 L 21.054688 5.359375 L 21.046875 5.351562 L 21.035156 5.34375 L 21.027344 5.332031 L 21 5.304688 L 21.0625 5.242188 L 21.074219 5.25 L 21.171875 5.347656 L 21.179688 5.359375 L 21.191406 5.367188 L 21.207031 5.382812 L 21.21875 5.398438 L 21.222656 5.410156 L 21.230469 5.417969 L 21.234375 5.429688 L 21.242188 5.441406 L 21.246094 5.453125 L 21.261719 5.476562 L 21.265625 5.488281 L 21.273438 5.5 L 21.277344 5.515625 L 21.285156 5.527344 L 21.289062 5.539062 L 21.296875 5.550781 L 21.300781 5.5625 L 21.308594 5.574219 Z M 21.304688 5.574219 L 21.285156 5.53125 Z M 21.390625 6 L 21.300781 6 L 21.300781 5.851562 L 21.285156 5.804688 L 21.285156 5.792969 L 21.273438 5.757812 L 21.273438 5.746094 L 21.261719 5.710938 L 21.261719 5.695312 L 21.242188 5.636719 L 21.234375 5.625 L 21.230469 5.613281 L 21.3125 5.578125 L 21.316406 5.589844 L 21.324219 5.601562 L 21.328125 5.613281 L 21.335938 5.625 L 21.339844 5.636719 L 21.347656 5.648438 L 21.351562 5.660156 L 21.351562 5.671875 L 21.359375 5.695312 L 21.363281 5.710938 L 21.363281 5.722656 L 21.378906 5.769531 L 21.378906 5.78125 L 21.382812 5.792969 L 21.390625 5.824219 L 21.390625 5.839844 L 21.394531 5.851562 L 21.394531 6.003906 Z M 21.304688 6.425781 L 21.21875 6.390625 L 21.226562 6.378906 L 21.246094 6.320312 L 21.246094 6.304688 L 21.261719 6.257812 L 21.261719 6.246094 L 21.273438 6.210938 L 21.273438 6.199219 L 21.285156 6.164062 L 21.285156 6.152344 L 21.289062 6.136719 L 21.289062 6.007812 L 21.378906 6.007812 L 21.378906 6.171875 L 21.371094 6.203125 L 21.363281 6.226562 L 21.363281 6.242188 L 21.351562 6.277344 L 21.351562 6.289062 L 21.339844 6.324219 L 21.339844 6.335938 L 21.332031 6.359375 L 21.324219 6.371094 L 21.320312 6.382812 L 21.3125 6.398438 L 21.308594 6.410156 L 21.300781 6.421875 L 21.296875 6.433594 Z M 21.066406 6.765625 L 21.003906 6.699219 L 21.011719 6.691406 L 21.023438 6.683594 L 21.03125 6.671875 L 21.039062 6.664062 L 21.050781 6.65625 L 21.058594 6.644531 L 21.109375 6.59375 L 21.117188 6.582031 L 21.125 6.574219 L 21.128906 6.566406 L 21.136719 6.554688 L 21.140625 6.546875 L 21.148438 6.539062 L 21.15625 6.527344 L 21.160156 6.519531 L 21.167969 6.511719 L 21.171875 6.5 L 21.179688 6.488281 L 21.183594 6.480469 L 21.191406 6.46875 L 21.195312 6.460938 L 21.203125 6.449219 L 21.207031 6.4375 L 21.214844 6.425781 L 21.21875 6.414062 L 21.234375 6.390625 L 21.316406 6.425781 L 21.3125 6.4375 L 21.304688 6.449219 L 21.300781 6.460938 L 21.292969 6.476562 L 21.285156 6.488281 L 21.28125 6.5 L 21.273438 6.511719 L 21.269531 6.523438 L 21.261719 6.535156 L 21.257812 6.546875 L 21.25 6.558594 L 21.246094 6.570312 L 21.238281 6.582031 L 21.234375 6.59375 L 21.21875 6.617188 L 21.207031 6.632812 L 21.191406 6.648438 L 21.179688 6.65625 L 21.171875 6.667969 L 21.074219 6.765625 Z M 21.003906 6.699219 L 21.015625 6.691406 Z M 20.710938 6.988281 L 20.679688 6.902344 L 20.691406 6.898438 L 20.703125 6.890625 L 20.714844 6.886719 L 20.726562 6.878906 L 20.738281 6.875 L 20.75 6.867188 L 20.761719 6.863281 L 20.773438 6.855469 L 20.789062 6.851562 L 20.800781 6.84375 L 20.8125 6.839844 L 20.824219 6.832031 L 20.832031 6.824219 L 20.84375 6.820312 L 20.851562 6.8125 L 20.863281 6.808594 L 20.871094 6.800781 L 20.878906 6.796875 L 20.890625 6.789062 L 20.898438 6.785156 L 20.90625 6.777344 L 20.917969 6.773438 L 20.933594 6.757812 L 20.945312 6.75 L 20.953125 6.746094 L 20.960938 6.734375 L 20.972656 6.730469 L 20.980469 6.722656 L 20.988281 6.710938 L 20.996094 6.703125 L 21.007812 6.695312 L 21.070312 6.761719 L 21.0625 6.769531 L 21.050781 6.777344 L 21.042969 6.785156 L 21.035156 6.796875 L 21.023438 6.804688 L 21.015625 6.8125 L 21.007812 6.824219 L 20.984375 6.839844 L 20.976562 6.851562 L 20.941406 6.875 L 20.929688 6.878906 L 20.917969 6.886719 L 20.90625 6.890625 L 20.890625 6.898438 L 20.878906 6.902344 L 20.855469 6.917969 L 20.84375 6.921875 L 20.832031 6.929688 L 20.820312 6.933594 L 20.808594 6.941406 L 20.796875 6.945312 L 20.785156 6.953125 L 20.773438 6.957031 L 20.761719 6.964844 L 20.746094 6.96875 L 20.734375 6.976562 L 20.722656 6.980469 Z M 20.710938 6.988281 L 20.679688 7 Z M 20.265625 7.066406 L 20.265625 6.976562 L 20.417969 6.976562 L 20.433594 6.972656 L 20.445312 6.96875 L 20.457031 6.96875 L 20.492188 6.957031 L 20.503906 6.957031 L 20.550781 6.941406 L 20.5625 6.941406 L 20.578125 6.9375 L 20.601562 6.929688 L 20.613281 6.929688 L 20.648438 6.917969 L 20.660156 6.917969 L 20.671875 6.914062 L 20.707031 6.996094 L 20.695312 7.003906 L 20.683594 7.007812 L 20.667969 7.015625 L 20.65625 7.019531 L 20.644531 7.019531 L 20.597656 7.035156 L 20.582031 7.035156 L 20.550781 7.042969 L 20.539062 7.046875 L 20.523438 7.046875 L 20.511719 7.050781 L 20.480469 7.058594 L 20.464844 7.058594 L 20.417969 7.070312 L 20.253906 7.070312 Z M 20.265625 7.066406 "/>
<path style=" stroke:none;fill-rule:nonzero;fill:rgb(92.941176%,41.176471%,36.078431%);fill-opacity:1;" d="M 22.113281 5.902344 L 23.0625 5.902344 L 23.0625 6.269531 L 22.113281 6.269531 Z M 22.144531 6.988281 L 21.6875 6.988281 L 21.6875 5.015625 L 23.183594 5.015625 L 23.183594 5.382812 L 22.144531 5.382812 Z M 22.144531 6.988281 "/>
<path style=" stroke:none;fill-rule:nonzero;fill:rgb(92.941176%,41.176471%,36.078431%);fill-opacity:1;" d="M 23.058594 5.949219 L 22.109375 5.949219 L 22.109375 5.859375 L 23.058594 5.859375 L 23.105469 5.902344 Z M 23.058594 5.859375 L 23.105469 5.859375 L 23.105469 5.902344 Z M 23.015625 6.269531 L 23.015625 5.902344 L 23.105469 5.902344 L 23.105469 6.269531 L 23.058594 6.316406 Z M 23.105469 6.269531 L 23.105469 6.316406 L 23.058594 6.316406 Z M 22.109375 6.226562 L 23.058594 6.226562 L 23.058594 6.316406 L 22.109375 6.316406 L 22.0625 6.269531 Z M 22.109375 6.316406 L 22.0625 6.316406 L 22.0625 6.269531 Z M 22.152344 5.902344 L 22.152344 6.269531 L 22.0625 6.269531 L 22.0625 5.902344 L 22.109375 5.859375 Z M 22.0625 5.902344 L 22.0625 5.859375 L 22.109375 5.859375 Z M 21.679688 6.941406 L 22.140625 6.941406 L 22.140625 7.035156 L 21.679688 7.035156 L 21.636719 6.988281 Z M 21.679688 7.035156 L 21.636719 7.035156 L 21.636719 6.988281 Z M 21.726562 5.015625 L 21.726562 6.988281 L 21.636719 6.988281 L 21.636719 5.015625 L 21.679688 4.96875 Z M 21.636719 5.015625 L 21.636719 4.96875 L 21.679688 4.96875 Z M 23.175781 5.058594 L 21.679688 5.058594 L 21.679688 4.96875 L 23.175781 4.96875 L 23.222656 5.015625 Z M 23.175781 4.96875 L 23.222656 4.96875 L 23.222656 5.015625 Z M 23.132812 5.382812 L 23.132812 5.015625 L 23.222656 5.015625 L 23.222656 5.382812 L 23.175781 5.425781 Z M 23.222656 5.382812 L 23.222656 5.425781 L 23.175781 5.425781 Z M 22.140625 5.335938 L 23.175781 5.335938 L 23.175781 5.425781 L 22.140625 5.425781 L 22.09375 5.382812 Z M 22.09375 5.382812 L 22.09375 5.335938 L 22.140625 5.335938 Z M 22.09375 6.988281 L 22.09375 5.382812 L 22.183594 5.382812 L 22.183594 6.988281 L 22.140625 7.035156 Z M 22.183594 6.988281 L 22.183594 7.035156 L 22.140625 7.035156 Z M 22.183594 6.988281 "/>
<path style=" stroke:none;fill-rule:nonzero;fill:rgb(92.941176%,41.176471%,36.078431%);fill-opacity:1;" d="M 23.914062 5.902344 L 24.863281 5.902344 L 24.863281 6.269531 L 23.914062 6.269531 Z M 23.949219 6.988281 L 23.492188 6.988281 L 23.492188 5.015625 L 24.988281 5.015625 L 24.988281 5.382812 L 23.949219 5.382812 Z M 23.949219 6.988281 "/>
<path style=" stroke:none;fill-rule:nonzero;fill:rgb(92.941176%,41.176471%,36.078431%);fill-opacity:1;" d="M 24.867188 5.949219 L 23.917969 5.949219 L 23.917969 5.859375 L 24.867188 5.859375 L 24.910156 5.902344 Z M 24.867188 5.859375 L 24.910156 5.859375 L 24.910156 5.902344 Z M 24.820312 6.269531 L 24.820312 5.902344 L 24.910156 5.902344 L 24.910156 6.269531 L 24.867188 6.316406 Z M 24.910156 6.269531 L 24.910156 6.316406 L 24.867188 6.316406 Z M 23.917969 6.226562 L 24.867188 6.226562 L 24.867188 6.316406 L 23.917969 6.316406 L 23.871094 6.269531 Z M 23.917969 6.316406 L 23.871094 6.316406 L 23.871094 6.269531 Z M 23.964844 5.902344 L 23.964844 6.269531 L 23.871094 6.269531 L 23.871094 5.902344 L 23.917969 5.859375 Z M 23.871094 5.902344 L 23.871094 5.859375 L 23.917969 5.859375 Z M 23.492188 6.941406 L 23.949219 6.941406 L 23.949219 7.035156 L 23.492188 7.035156 L 23.449219 6.988281 Z M 23.492188 7.035156 L 23.449219 7.035156 L 23.449219 6.988281 Z M 23.539062 5.015625 L 23.539062 6.988281 L 23.449219 6.988281 L 23.449219 5.015625 L 23.492188 4.96875 Z M 23.449219 5.015625 L 23.449219 4.96875 L 23.492188 4.96875 Z M 24.988281 5.058594 L 23.492188 5.058594 L 23.492188 4.96875 L 24.988281 4.96875 L 25.035156 5.015625 Z M 24.988281 4.96875 L 25.035156 4.96875 L 25.035156 5.015625 Z M 24.945312 5.382812 L 24.945312 5.015625 L 25.035156 5.015625 L 25.035156 5.382812 L 24.988281 5.425781 Z M 25.035156 5.382812 L 25.035156 5.425781 L 24.988281 5.425781 Z M 23.949219 5.335938 L 24.988281 5.335938 L 24.988281 5.425781 L 23.949219 5.425781 L 23.90625 5.382812 Z M 23.90625 5.382812 L 23.90625 5.335938 L 23.949219 5.335938 Z M 23.90625 6.988281 L 23.90625 5.382812 L 23.996094 5.382812 L 23.996094 6.988281 L 23.949219 7.035156 Z M 23.996094 6.988281 L 23.996094 7.035156 L 23.949219 7.035156 Z M 23.996094 6.988281 "/>
</g>
</svg>
