<?xml version="1.0" encoding="UTF-8"?>
<svg xmlns="http://www.w3.org/2000/svg" xmlns:xlink="http://www.w3.org/1999/xlink" width="28px" height="28px" viewBox="0 0 28 29" version="1.1">
<g id="surface1">
<path style=" stroke:none;fill-rule:nonzero;fill:rgb(92.941176%,41.176471%,36.078431%);fill-opacity:1;" d="M 26.171875 19.945312 C 27.3125 18.644531 28.007812 16.960938 28.007812 15.117188 C 28.007812 13.328125 27.398438 10.300781 25.117188 10.300781 C 24.734375 10.300781 24.464844 10.226562 24.316406 10.074219 C 24 9.757812 24.015625 8.976562 24.035156 8.222656 C 24.058594 7.238281 24.078125 6.222656 23.414062 5.5625 C 23.042969 5.191406 22.515625 5.003906 21.84375 5.003906 C 21.722656 5.003906 21.636719 4.960938 21.542969 4.867188 C 21.082031 4.386719 20.875 2.851562 21.015625 0.957031 C 21.039062 0.609375 20.863281 0.292969 20.554688 0.121094 C 20.25 -0.0546875 19.875 -0.0351562 19.585938 0.160156 C 18.726562 0.738281 16.730469 2.453125 16.730469 5.824219 C 16.730469 7.792969 15.914062 8.78125 14.964844 9.925781 C 13.964844 11.136719 12.828125 12.515625 12.828125 15.121094 C 12.828125 16.960938 13.523438 18.652344 14.664062 19.945312 C 15.578125 20.929688 16.394531 21.492188 17.414062 21.929688 C 16.34375 25.28125 13.179688 27.582031 9.539062 27.582031 C 4.992188 27.582031 1.289062 23.96875 1.289062 19.527344 C 1.289062 16.421875 5.53125 9.414062 9.539062 3.828125 C 10.257812 4.835938 11.558594 6.6875 12.925781 8.847656 C 13.109375 9.140625 13.511719 9.230469 13.8125 9.050781 C 14.113281 8.871094 14.203125 8.480469 14.019531 8.1875 C 12.550781 5.867188 11.164062 3.902344 10.464844 2.9375 C 10.257812 2.644531 9.90625 2.46875 9.539062 2.46875 C 9.171875 2.46875 8.828125 2.644531 8.613281 2.9375 C 6.59375 5.742188 0 15.21875 0 19.53125 C 0 24.667969 4.28125 28.847656 9.539062 28.847656 C 13.738281 28.847656 17.394531 26.195312 18.636719 22.335938 C 19.207031 22.476562 19.808594 22.546875 20.421875 22.546875 C 22.671875 22.546875 24.59375 21.625 26.179688 19.964844 Z M 15.964844 10.710938 C 16.972656 9.488281 18.015625 8.230469 18.015625 5.820312 C 18.015625 3.722656 18.898438 2.425781 19.691406 1.683594 C 19.648438 3.195312 19.8125 4.890625 20.605469 5.71875 C 20.9375 6.066406 21.367188 6.25 21.84375 6.25 C 22.15625 6.25 22.378906 6.3125 22.5 6.429688 C 22.785156 6.71875 22.769531 7.496094 22.753906 8.1875 C 22.726562 9.152344 22.703125 10.25 23.402344 10.949219 C 23.800781 11.351562 24.378906 11.554688 25.121094 11.554688 C 26.335938 11.554688 26.730469 13.953125 26.730469 15.117188 C 26.730469 16.554688 26.222656 17.878906 25.375 18.925781 C 25.375 18.925781 25.375 18.925781 25.367188 18.925781 C 24.988281 18.925781 24.71875 18.847656 24.570312 18.699219 C 24.25 18.382812 24.269531 17.601562 24.289062 16.847656 C 24.3125 15.863281 24.332031 14.84375 23.667969 14.1875 C 23.292969 13.816406 22.765625 13.628906 22.097656 13.628906 C 21.980469 13.628906 21.894531 13.59375 21.800781 13.503906 C 21.378906 13.070312 21.164062 11.796875 21.238281 10.09375 C 21.253906 9.636719 20.996094 9.21875 20.574219 9.019531 C 20.15625 8.824219 19.660156 8.886719 19.304688 9.183594 C 18.242188 10.074219 16.976562 11.71875 16.976562 14.445312 C 16.976562 16.410156 16.160156 17.398438 15.210938 18.542969 C 15.203125 18.550781 15.203125 18.554688 15.199219 18.5625 C 14.515625 17.578125 14.117188 16.390625 14.117188 15.117188 C 14.117188 12.953125 15.015625 11.859375 15.972656 10.710938 Z M 16.039062 19.542969 C 16.09375 19.472656 16.148438 19.40625 16.210938 19.339844 C 17.21875 18.117188 18.261719 16.859375 18.261719 14.449219 C 18.261719 12.371094 19.125 11.074219 19.9375 10.320312 C 19.878906 12.328125 20.199219 13.695312 20.867188 14.378906 C 21.199219 14.714844 21.625 14.894531 22.089844 14.894531 C 22.402344 14.894531 22.625 14.953125 22.746094 15.074219 C 23.035156 15.359375 23.015625 16.140625 23 16.828125 C 22.972656 17.792969 22.949219 18.890625 23.648438 19.59375 C 23.820312 19.765625 24.03125 19.902344 24.269531 20 C 24.015625 20.191406 23.746094 20.367188 23.464844 20.519531 C 23.414062 20.078125 23.285156 19.652344 22.96875 19.335938 C 22.648438 19.015625 22.207031 18.855469 21.640625 18.855469 C 21.445312 18.855469 21.207031 18.359375 21.132812 17.40625 C 21.082031 16.738281 20.597656 16.195312 19.9375 16.042969 C 19.265625 15.894531 18.609375 16.175781 18.273438 16.757812 C 17.964844 17.277344 17.75 17.855469 17.632812 18.476562 C 17.574219 18.820312 17.800781 19.144531 18.148438 19.207031 C 18.5 19.273438 18.832031 19.046875 18.898438 18.707031 C 18.992188 18.226562 19.152344 17.78125 19.390625 17.386719 C 19.464844 17.261719 19.574219 17.253906 19.652344 17.273438 C 19.722656 17.289062 19.84375 17.339844 19.855469 17.5 C 20.023438 19.660156 20.925781 20.113281 21.648438 20.113281 C 21.789062 20.113281 21.972656 20.132812 22.054688 20.214844 C 22.183594 20.339844 22.214844 20.683594 22.214844 21.042969 C 21.648438 21.203125 21.046875 21.292969 20.433594 21.292969 C 18.734375 21.292969 17.1875 20.636719 16.050781 19.5625 Z M 16.039062 19.542969 Z M 16.039062 19.542969 "/>
</g>
</svg>
