<?xml version="1.0" encoding="UTF-8"?>
<svg xmlns="http://www.w3.org/2000/svg" xmlns:xlink="http://www.w3.org/1999/xlink" width="28px" height="28px" viewBox="0 0 28 32" version="1.1">
<g id="surface1">
<path style=" stroke:none;fill-rule:nonzero;fill:rgb(92.941176%,41.176471%,36.078431%);fill-opacity:1;" d="M 22.929688 21.023438 C 22.929688 21.019531 22.929688 21.011719 22.929688 21.011719 C 22.988281 20.96875 23.042969 20.929688 23.101562 20.882812 L 23.234375 23.988281 C 23.253906 24.394531 23.59375 24.710938 24.007812 24.710938 C 24.019531 24.710938 24.03125 24.710938 24.042969 24.710938 C 24.46875 24.695312 24.800781 24.34375 24.78125 23.925781 L 24.71875 22.414062 L 25.601562 23.28125 C 25.75 23.425781 25.949219 23.5 26.148438 23.5 C 26.34375 23.5 26.546875 23.425781 26.699219 23.28125 C 26.996094 22.984375 26.996094 22.503906 26.699219 22.210938 L 25.90625 21.4375 L 27.269531 21.492188 C 27.695312 21.511719 28.054688 21.1875 28.070312 20.769531 C 28.089844 20.351562 27.757812 20 27.332031 19.984375 L 24.292969 19.859375 L 24.222656 19.792969 C 25.191406 18.628906 25.75 17.238281 25.894531 15.816406 L 27.417969 15.816406 C 27.847656 15.816406 28.191406 15.480469 28.191406 15.058594 C 28.191406 14.640625 27.847656 14.304688 27.417969 14.304688 L 25.902344 14.304688 C 25.757812 12.882812 25.195312 11.492188 24.234375 10.328125 L 24.25 10.3125 L 27.339844 10.1875 C 27.765625 10.171875 28.09375 9.820312 28.078125 9.402344 C 28.058594 8.984375 27.695312 8.660156 27.273438 8.679688 L 25.867188 8.734375 L 26.703125 7.914062 C 27.003906 7.621094 27.003906 7.140625 26.703125 6.847656 C 26.402344 6.550781 25.914062 6.550781 25.613281 6.847656 L 24.730469 7.710938 L 24.792969 6.242188 C 24.8125 5.824219 24.480469 5.472656 24.054688 5.457031 C 23.628906 5.445312 23.269531 5.761719 23.253906 6.179688 L 23.125 9.238281 C 21.941406 8.292969 20.535156 7.75 19.089844 7.605469 L 19.089844 6.132812 C 19.089844 5.714844 18.746094 5.375 18.316406 5.375 C 17.890625 5.375 17.542969 5.714844 17.542969 6.132812 L 17.542969 7.597656 C 17.46875 7.605469 17.394531 7.613281 17.324219 7.625 C 15.421875 4.554688 13.5625 1.90625 12.605469 0.578125 C 12.351562 0.21875 11.933594 0.0117188 11.492188 0.0117188 C 11.046875 0.0117188 10.632812 0.21875 10.378906 0.578125 C 9.0625 2.410156 5.730469 7.164062 3.203125 11.832031 C 3 12.199219 3.144531 12.65625 3.519531 12.855469 C 3.636719 12.917969 3.761719 12.945312 3.882812 12.945312 C 4.160156 12.945312 4.425781 12.800781 4.566406 12.542969 C 6.964844 8.117188 10.105469 3.601562 11.492188 1.65625 C 12.425781 2.960938 14.046875 5.292969 15.738281 7.992188 C 14.929688 8.269531 14.15625 8.6875 13.464844 9.242188 L 13.378906 9.160156 L 13.25 6.179688 C 13.234375 5.761719 12.875 5.4375 12.449219 5.457031 C 12.023438 5.472656 11.691406 5.824219 11.710938 6.242188 L 11.769531 7.574219 L 11.019531 6.839844 C 10.71875 6.546875 10.226562 6.546875 9.925781 6.839844 C 9.625 7.132812 9.625 7.613281 9.925781 7.910156 L 10.769531 8.734375 L 9.230469 8.671875 C 8.800781 8.660156 8.445312 8.976562 8.425781 9.394531 C 8.410156 9.8125 8.738281 10.164062 9.164062 10.179688 L 12.367188 10.3125 C 11.394531 11.480469 10.832031 12.871094 10.6875 14.304688 L 9.207031 14.304688 C 8.777344 14.304688 8.433594 14.640625 8.433594 15.058594 C 8.433594 15.480469 8.777344 15.816406 9.207031 15.816406 L 10.6875 15.816406 C 10.839844 17.25 11.398438 18.640625 12.378906 19.808594 L 12.339844 19.847656 L 9.164062 19.980469 C 8.738281 19.996094 8.410156 20.347656 8.425781 20.765625 C 8.445312 21.183594 8.808594 21.503906 9.230469 21.488281 L 10.730469 21.425781 L 9.933594 22.207031 C 9.632812 22.5 9.632812 22.980469 9.933594 23.273438 C 10.082031 23.421875 10.285156 23.496094 10.480469 23.496094 C 10.675781 23.496094 10.878906 23.421875 11.027344 23.273438 L 11.78125 22.539062 L 11.722656 23.917969 C 11.703125 24.335938 12.035156 24.6875 12.460938 24.703125 C 12.472656 24.703125 12.484375 24.703125 12.496094 24.703125 C 12.910156 24.703125 13.25 24.386719 13.269531 23.980469 L 13.394531 20.957031 L 13.480469 20.871094 C 14.648438 21.804688 16.054688 22.371094 17.554688 22.511719 L 17.554688 23.980469 C 17.554688 24.398438 17.902344 24.738281 18.328125 24.738281 C 18.757812 24.738281 19.101562 24.398438 19.101562 23.980469 L 19.101562 22.503906 C 19.875 22.425781 20.625 22.234375 21.332031 21.941406 C 20.65625 26.699219 16.515625 30.296875 11.503906 30.296875 C 6.03125 30.296875 1.582031 25.9375 1.582031 20.578125 C 1.582031 19.449219 2.054688 17.808594 2.988281 15.714844 C 3.164062 15.332031 2.984375 14.886719 2.59375 14.722656 C 2.199219 14.550781 1.742188 14.726562 1.578125 15.109375 C 0.542969 17.429688 0.0429688 19.222656 0.0429688 20.582031 C 0.0429688 26.78125 5.183594 31.816406 11.507812 31.816406 C 14.492188 31.816406 17.320312 30.699219 19.464844 28.667969 C 21.609375 26.644531 22.855469 23.929688 22.964844 21.019531 Z M 23.113281 18.707031 L 21.664062 17.289062 C 22.117188 16.632812 22.363281 15.863281 22.363281 15.054688 C 22.363281 14.246094 22.121094 13.476562 21.671875 12.828125 L 23.121094 11.410156 C 24.804688 13.550781 24.804688 16.570312 23.113281 18.710938 Z M 16.027344 13.902344 L 17.203125 15.054688 L 16.03125 16.203125 C 15.644531 15.484375 15.644531 14.621094 16.027344 13.902344 Z M 17.125 12.832031 C 17.476562 12.65625 17.867188 12.5625 18.277344 12.5625 C 18.691406 12.5625 19.097656 12.65625 19.453125 12.84375 L 18.296875 13.980469 Z M 18.296875 16.125 L 19.449219 17.253906 C 18.726562 17.621094 17.855469 17.628906 17.128906 17.265625 Z M 19.386719 15.054688 L 20.539062 13.929688 C 20.902344 14.636719 20.902344 15.480469 20.535156 16.179688 Z M 18.273438 9.066406 C 19.597656 9.066406 20.925781 9.492188 22.023438 10.328125 L 20.574219 11.746094 C 19.898438 11.296875 19.101562 11.050781 18.273438 11.050781 C 17.445312 11.050781 16.660156 11.289062 15.992188 11.734375 L 14.542969 10.316406 C 15.640625 9.484375 16.957031 9.074219 18.277344 9.074219 Z M 13.449219 11.378906 L 14.894531 12.800781 C 14.433594 13.460938 14.1875 14.234375 14.1875 15.050781 C 14.1875 15.867188 14.433594 16.644531 14.894531 17.304688 L 13.449219 18.722656 C 11.734375 16.570312 11.734375 13.527344 13.441406 11.378906 Z M 16 18.375 C 16.683594 18.824219 17.476562 19.050781 18.273438 19.050781 C 19.074219 19.050781 19.875 18.820312 20.570312 18.363281 L 22.015625 19.78125 C 20.960938 20.589844 19.667969 21.03125 18.304688 21.042969 C 18.300781 21.042969 18.296875 21.042969 18.289062 21.042969 C 18.277344 21.042969 18.273438 21.042969 18.261719 21.042969 C 16.898438 21.042969 15.605469 20.601562 14.542969 19.796875 L 15.992188 18.375 Z M 16 18.375 Z M 16 18.375 "/>
</g>
</svg>
