<?xml version="1.0" encoding="UTF-8"?>
<svg xmlns="http://www.w3.org/2000/svg" xmlns:xlink="http://www.w3.org/1999/xlink" width="28px" height="28px" viewBox="0 0 28 28" version="1.1">
<g id="surface1">
<path style=" stroke:none;fill-rule:nonzero;fill:rgb(92.941176%,41.176471%,36.078431%);fill-opacity:1;" d="M 21.8125 18.394531 C 21.8125 18.390625 21.8125 18.386719 21.8125 18.386719 C 21.863281 18.347656 21.914062 18.3125 21.964844 18.273438 L 22.082031 20.988281 C 22.097656 21.34375 22.394531 21.621094 22.757812 21.621094 C 22.765625 21.621094 22.777344 21.621094 22.789062 21.621094 C 23.160156 21.609375 23.449219 21.300781 23.433594 20.933594 L 23.378906 19.613281 L 24.152344 20.371094 C 24.28125 20.496094 24.457031 20.5625 24.628906 20.5625 C 24.800781 20.5625 24.980469 20.496094 25.113281 20.371094 C 25.371094 20.109375 25.371094 19.691406 25.113281 19.433594 L 24.417969 18.757812 L 25.609375 18.804688 C 25.984375 18.824219 26.296875 18.539062 26.3125 18.171875 C 26.328125 17.808594 26.039062 17.5 25.664062 17.484375 L 23.007812 17.378906 L 22.945312 17.320312 C 23.792969 16.300781 24.28125 15.082031 24.40625 13.839844 L 25.742188 13.839844 C 26.117188 13.839844 26.417969 13.546875 26.417969 13.175781 C 26.417969 12.808594 26.117188 12.515625 25.742188 12.515625 L 24.414062 12.515625 C 24.289062 11.273438 23.796875 10.054688 22.957031 9.035156 L 22.96875 9.023438 L 25.671875 8.914062 C 26.042969 8.898438 26.332031 8.59375 26.320312 8.226562 C 26.300781 7.859375 25.984375 7.578125 25.613281 7.59375 L 24.382812 7.640625 L 25.117188 6.925781 C 25.378906 6.667969 25.378906 6.25 25.117188 5.992188 C 24.851562 5.730469 24.425781 5.730469 24.160156 5.992188 L 23.390625 6.746094 L 23.445312 5.460938 C 23.460938 5.097656 23.171875 4.789062 22.796875 4.773438 C 22.425781 4.765625 22.109375 5.042969 22.097656 5.40625 L 21.984375 8.082031 C 20.949219 7.257812 19.71875 6.78125 18.453125 6.65625 L 18.453125 5.367188 C 18.453125 5 18.152344 4.703125 17.777344 4.703125 C 17.40625 4.703125 17.101562 5 17.101562 5.367188 L 17.101562 6.648438 C 17.035156 6.65625 16.96875 6.660156 16.910156 6.671875 C 15.242188 3.984375 13.617188 1.667969 12.78125 0.507812 C 12.558594 0.191406 12.191406 0.0117188 11.804688 0.0117188 C 11.414062 0.0117188 11.054688 0.191406 10.832031 0.507812 C 9.679688 2.109375 6.765625 6.269531 4.554688 10.351562 C 4.375 10.675781 4.5 11.074219 4.828125 11.25 C 4.933594 11.304688 5.042969 11.328125 5.148438 11.328125 C 5.390625 11.328125 5.621094 11.199219 5.746094 10.976562 C 7.84375 7.101562 10.59375 3.152344 11.804688 1.449219 C 12.621094 2.589844 14.039062 4.632812 15.519531 6.992188 C 14.8125 7.234375 14.136719 7.601562 13.53125 8.085938 L 13.457031 8.015625 L 13.34375 5.40625 C 13.328125 5.042969 13.015625 4.757812 12.644531 4.773438 C 12.269531 4.789062 11.980469 5.097656 11.996094 5.460938 L 12.046875 6.628906 L 11.390625 5.984375 C 11.128906 5.726562 10.699219 5.726562 10.433594 5.984375 C 10.171875 6.242188 10.171875 6.660156 10.433594 6.921875 L 11.171875 7.640625 L 9.828125 7.585938 C 9.449219 7.578125 9.140625 7.855469 9.121094 8.21875 C 9.109375 8.585938 9.394531 8.894531 9.769531 8.90625 L 12.570312 9.023438 C 11.71875 10.046875 11.226562 11.261719 11.101562 12.515625 L 9.804688 12.515625 C 9.429688 12.515625 9.128906 12.808594 9.128906 13.175781 C 9.128906 13.546875 9.429688 13.839844 9.804688 13.839844 L 11.101562 13.839844 C 11.234375 15.09375 11.722656 16.3125 12.582031 17.332031 L 12.546875 17.367188 L 9.769531 17.484375 C 9.394531 17.496094 9.109375 17.804688 9.121094 18.167969 C 9.140625 18.535156 9.457031 18.816406 9.828125 18.800781 L 11.140625 18.746094 L 10.441406 19.429688 C 10.179688 19.6875 10.179688 20.109375 10.441406 20.363281 C 10.570312 20.496094 10.75 20.558594 10.921875 20.558594 C 11.089844 20.558594 11.269531 20.496094 11.398438 20.363281 L 12.058594 19.722656 L 12.007812 20.929688 C 11.988281 21.292969 12.28125 21.601562 12.652344 21.617188 C 12.664062 21.617188 12.671875 21.617188 12.683594 21.617188 C 13.046875 21.617188 13.34375 21.339844 13.359375 20.984375 L 13.46875 18.335938 L 13.546875 18.261719 C 14.566406 19.078125 15.796875 19.574219 17.109375 19.699219 L 17.109375 20.984375 C 17.109375 21.347656 17.414062 21.644531 17.789062 21.644531 C 18.164062 21.644531 18.464844 21.347656 18.464844 20.984375 L 18.464844 19.691406 C 19.140625 19.621094 19.796875 19.457031 20.414062 19.199219 C 19.824219 23.363281 16.203125 26.511719 11.816406 26.511719 C 7.027344 26.511719 3.132812 22.695312 3.132812 18.007812 C 3.132812 17.019531 3.546875 15.582031 4.363281 13.75 C 4.519531 13.414062 4.359375 13.027344 4.019531 12.882812 C 3.675781 12.730469 3.273438 12.886719 3.132812 13.21875 C 2.226562 15.25 1.789062 16.820312 1.789062 18.007812 C 1.789062 23.433594 6.285156 27.839844 11.820312 27.839844 C 14.429688 27.839844 16.90625 26.863281 18.78125 25.085938 C 20.660156 23.3125 21.75 20.9375 21.84375 18.390625 Z M 21.972656 16.367188 L 20.707031 15.128906 C 21.101562 14.554688 21.316406 13.878906 21.316406 13.171875 C 21.316406 12.464844 21.105469 11.792969 20.714844 11.222656 L 21.980469 9.984375 C 23.453125 11.855469 23.453125 14.5 21.972656 16.371094 Z M 15.773438 12.164062 L 16.804688 13.171875 L 15.777344 14.179688 C 15.4375 13.546875 15.4375 12.792969 15.773438 12.164062 Z M 16.734375 11.226562 C 17.042969 11.074219 17.382812 10.992188 17.742188 10.992188 C 18.105469 10.992188 18.460938 11.074219 18.773438 11.238281 L 17.761719 12.234375 Z M 17.761719 14.109375 L 18.769531 15.097656 C 18.136719 15.417969 17.375 15.425781 16.738281 15.105469 Z M 18.714844 13.171875 L 19.722656 12.1875 C 20.039062 12.808594 20.039062 13.546875 19.71875 14.15625 Z M 17.738281 7.933594 C 18.898438 7.933594 20.058594 8.304688 21.019531 9.035156 L 19.753906 10.277344 C 19.160156 9.882812 18.464844 9.667969 17.738281 9.667969 C 17.015625 9.667969 16.328125 9.878906 15.742188 10.265625 L 14.476562 9.027344 C 15.433594 8.296875 16.585938 7.941406 17.742188 7.941406 Z M 13.519531 9.957031 L 14.78125 11.199219 C 14.378906 11.777344 14.164062 12.453125 14.164062 13.167969 C 14.164062 13.882812 14.378906 14.5625 14.78125 15.140625 L 13.519531 16.382812 C 12.015625 14.5 12.015625 11.835938 13.511719 9.957031 Z M 15.75 16.078125 C 16.347656 16.472656 17.042969 16.667969 17.738281 16.667969 C 18.441406 16.667969 19.140625 16.46875 19.75 16.066406 L 21.015625 17.308594 C 20.089844 18.015625 18.960938 18.402344 17.765625 18.414062 C 17.761719 18.414062 17.761719 18.414062 17.753906 18.414062 C 17.742188 18.414062 17.738281 18.414062 17.730469 18.414062 C 16.535156 18.414062 15.40625 18.027344 14.476562 17.324219 L 15.742188 16.078125 Z M 15.75 16.078125 Z M 15.75 16.078125 "/>
</g>
</svg>
