<?xml version="1.0" encoding="UTF-8"?>
<svg xmlns="http://www.w3.org/2000/svg" xmlns:xlink="http://www.w3.org/1999/xlink" width="28px" height="28px" viewBox="0 0 28 28" version="1.1">
<g id="surface1">
<path style=" stroke:none;fill-rule:nonzero;fill:rgb(92.941176%,41.176471%,36.078431%);fill-opacity:1;" d="M 27.839844 19.359375 L 27.839844 15.007812 C 27.839844 11.710938 25.15625 9.027344 21.859375 9.027344 L 17.023438 9.027344 C 16.472656 8.417969 15.777344 7.949219 15.007812 7.675781 L 15.007812 4.894531 C 15.214844 4.742188 15.394531 4.558594 15.550781 4.351562 L 19.359375 4.351562 C 20.257812 4.351562 20.988281 3.621094 20.988281 2.722656 C 20.988281 1.820312 20.253906 1.089844 19.359375 1.089844 L 15.550781 1.089844 C 15.042969 0.414062 14.234375 0.00390625 13.378906 0.00390625 C 12.519531 0.00390625 11.714844 0.414062 11.203125 1.089844 L 7.398438 1.089844 C 6.496094 1.089844 5.765625 1.824219 5.765625 2.722656 C 5.765625 3.621094 6.5 4.351562 7.398438 4.351562 L 11.203125 4.351562 C 11.359375 4.558594 11.542969 4.742188 11.746094 4.894531 L 11.746094 7.675781 C 10.976562 7.949219 10.277344 8.417969 9.730469 9.027344 L 4.351562 9.027344 L 4.351562 8.484375 C 4.351562 7.585938 3.621094 6.855469 2.722656 6.855469 L 0.546875 6.855469 C 0.246094 6.855469 0.00390625 7.097656 0.00390625 7.398438 L 0.00390625 17.183594 C 0.00390625 17.484375 0.246094 17.726562 0.546875 17.726562 L 2.722656 17.726562 C 3.621094 17.726562 4.351562 16.992188 4.351562 16.097656 L 4.351562 15.554688 L 9.730469 15.554688 C 10.660156 16.59375 11.972656 17.183594 13.378906 17.183594 C 14.78125 17.183594 16.097656 16.59375 17.023438 15.554688 L 20.769531 15.554688 C 21.070312 15.554688 21.3125 15.796875 21.3125 16.097656 L 21.3125 19.359375 C 21.3125 19.65625 21.558594 19.898438 21.855469 19.898438 L 23.53125 19.898438 C 22.691406 21.144531 21.3125 23.375 21.3125 24.578125 C 21.3125 26.375 22.773438 27.839844 24.570312 27.839844 C 26.371094 27.839844 27.832031 26.375 27.832031 24.578125 C 27.832031 23.375 26.457031 21.144531 25.613281 19.902344 L 27.289062 19.902344 C 27.585938 19.902344 27.828125 19.660156 27.828125 19.359375 Z M 16.039062 2.175781 L 19.359375 2.175781 C 19.65625 2.175781 19.898438 2.417969 19.898438 2.71875 C 19.898438 3.019531 19.65625 3.261719 19.359375 3.261719 L 16.039062 3.261719 C 16.078125 3.082031 16.097656 2.898438 16.097656 2.71875 C 16.097656 2.535156 16.078125 2.355469 16.039062 2.175781 Z M 10.714844 3.265625 L 7.398438 3.265625 C 7.097656 3.265625 6.855469 3.019531 6.855469 2.722656 C 6.855469 2.421875 7.097656 2.171875 7.398438 2.171875 L 10.714844 2.171875 C 10.679688 2.351562 10.660156 2.539062 10.660156 2.722656 C 10.660156 2.90625 10.679688 3.085938 10.714844 3.265625 Z M 3.265625 16.097656 C 3.265625 16.394531 3.019531 16.640625 2.722656 16.640625 L 1.089844 16.640625 L 1.089844 7.941406 L 2.722656 7.941406 C 3.019531 7.941406 3.265625 8.183594 3.265625 8.480469 Z M 13.378906 1.089844 C 14.261719 1.089844 15.007812 1.804688 15.007812 2.71875 C 15.007812 3.625 14.273438 4.347656 13.378906 4.347656 C 12.476562 4.347656 11.746094 3.621094 11.746094 2.71875 C 11.746094 1.804688 12.492188 1.089844 13.378906 1.089844 Z M 13.921875 5.382812 L 13.921875 7.425781 C 13.558594 7.386719 13.195312 7.386719 12.832031 7.425781 L 12.832031 5.382812 C 13.007812 5.417969 13.195312 5.4375 13.375 5.4375 C 13.558594 5.4375 13.738281 5.417969 13.917969 5.382812 Z M 26.75 24.574219 C 26.75 25.773438 25.773438 26.75 24.574219 26.75 C 23.375 26.75 22.398438 25.773438 22.398438 24.574219 C 22.398438 23.742188 23.59375 21.722656 24.574219 20.296875 C 25.550781 21.722656 26.75 23.742188 26.75 24.574219 Z M 26.75 18.8125 L 22.402344 18.8125 L 22.402344 16.09375 C 22.402344 15.191406 21.667969 14.460938 20.769531 14.460938 L 16.773438 14.460938 C 16.609375 14.460938 16.453125 14.539062 16.347656 14.667969 C 15.621094 15.574219 14.539062 16.09375 13.378906 16.09375 C 12.21875 16.09375 11.132812 15.574219 10.40625 14.667969 C 10.304688 14.539062 10.144531 14.460938 9.980469 14.460938 L 4.347656 14.460938 L 4.347656 10.113281 L 9.980469 10.113281 C 10.144531 10.113281 10.304688 10.039062 10.40625 9.910156 C 10.917969 9.269531 11.636719 8.804688 12.425781 8.601562 C 13.042969 8.4375 13.710938 8.4375 14.328125 8.601562 C 15.117188 8.804688 15.832031 9.269531 16.347656 9.910156 C 16.449219 10.039062 16.605469 10.113281 16.769531 10.113281 L 21.855469 10.113281 C 24.554688 10.113281 26.75 12.308594 26.75 15.003906 Z M 26.75 18.8125 "/>
</g>
</svg>
