<?xml version="1.0" encoding="UTF-8"?>
<svg xmlns="http://www.w3.org/2000/svg" xmlns:xlink="http://www.w3.org/1999/xlink" width="28px" height="28px" viewBox="0 0 28 28" version="1.1">
<g id="surface1">
<path style=" stroke:none;fill-rule:nonzero;fill:rgb(92.941176%,41.176471%,36.078431%);fill-opacity:1;" d="M 7.78125 17.972656 L 7.390625 18.652344 C 7.316406 18.777344 7.183594 18.851562 7.046875 18.851562 C 6.980469 18.851562 6.910156 18.835938 6.847656 18.796875 C 6.65625 18.6875 6.59375 18.445312 6.703125 18.253906 L 7.09375 17.578125 C 7.203125 17.386719 7.445312 17.324219 7.636719 17.429688 C 7.828125 17.539062 7.890625 17.785156 7.78125 17.972656 Z M 8.644531 20.449219 C 8.710938 20.449219 8.78125 20.433594 8.84375 20.394531 L 9.519531 20.003906 C 9.710938 19.894531 9.777344 19.652344 9.667969 19.460938 C 9.558594 19.269531 9.316406 19.207031 9.125 19.316406 L 8.445312 19.707031 C 8.257812 19.816406 8.191406 20.058594 8.300781 20.25 C 8.375 20.378906 8.507812 20.449219 8.644531 20.449219 Z M 1.273438 19.710938 L 0.59375 19.316406 C 0.40625 19.207031 0.164062 19.273438 0.0546875 19.464844 C -0.0546875 19.652344 0.0078125 19.894531 0.199219 20.003906 L 0.878906 20.398438 C 0.941406 20.433594 1.007812 20.453125 1.074219 20.453125 C 1.210938 20.453125 1.347656 20.378906 1.417969 20.253906 C 1.527344 20.0625 1.464844 19.820312 1.273438 19.710938 Z M 2.675781 18.851562 C 2.742188 18.851562 2.808594 18.835938 2.871094 18.796875 C 3.0625 18.6875 3.128906 18.445312 3.019531 18.253906 L 2.625 17.578125 C 2.515625 17.386719 2.273438 17.324219 2.082031 17.429688 C 1.894531 17.539062 1.828125 17.785156 1.9375 17.972656 L 2.332031 18.652344 C 2.402344 18.777344 2.535156 18.851562 2.675781 18.851562 Z M 4.859375 18.265625 C 5.078125 18.265625 5.257812 18.085938 5.257812 17.867188 L 5.257812 17.085938 C 5.257812 16.863281 5.078125 16.6875 4.859375 16.6875 C 4.640625 16.6875 4.464844 16.863281 4.464844 17.085938 L 4.464844 17.867188 C 4.464844 18.085938 4.640625 18.265625 4.859375 18.265625 Z M 7.695312 21.738281 C 7.695312 22.53125 7.4375 22.929688 7.183594 23.316406 C 6.953125 23.675781 6.714844 24.042969 6.609375 24.859375 C 6.847656 24.996094 7.007812 25.253906 7.007812 25.546875 L 7.007812 26.417969 C 7.007812 26.859375 6.648438 27.21875 6.207031 27.21875 L 6.191406 27.21875 L 6.191406 27.226562 C 6.191406 27.652344 5.839844 28 5.414062 28 L 4.308594 28 C 3.882812 28 3.53125 27.652344 3.53125 27.226562 L 3.53125 27.21875 L 3.515625 27.21875 C 3.074219 27.21875 2.714844 26.859375 2.714844 26.417969 L 2.714844 25.546875 C 2.714844 25.253906 2.875 24.996094 3.109375 24.859375 C 3.003906 24.042969 2.765625 23.675781 2.535156 23.316406 C 2.285156 22.929688 2.027344 22.53125 2.027344 21.738281 C 2.027344 20.175781 3.296875 18.90625 4.859375 18.90625 C 6.421875 18.90625 7.695312 20.175781 7.695312 21.738281 Z M 6.214844 25.546875 C 6.214844 25.546875 6.210938 25.542969 6.207031 25.542969 L 3.515625 25.542969 C 3.511719 25.542969 3.507812 25.546875 3.507812 25.546875 L 3.507812 26.417969 C 3.507812 26.417969 3.511719 26.421875 3.515625 26.421875 L 3.929688 26.421875 C 4.148438 26.421875 4.324219 26.601562 4.324219 26.820312 L 4.324219 27.207031 L 5.398438 27.207031 L 5.398438 26.820312 C 5.398438 26.601562 5.574219 26.421875 5.792969 26.421875 L 6.207031 26.421875 C 6.210938 26.421875 6.214844 26.417969 6.214844 26.417969 Z M 6.902344 21.738281 C 6.902344 20.613281 5.988281 19.695312 4.859375 19.695312 C 3.734375 19.695312 2.820312 20.613281 2.820312 21.738281 C 2.820312 22.296875 2.96875 22.53125 3.199219 22.886719 C 3.457031 23.277344 3.765625 23.757812 3.894531 24.746094 L 4.464844 24.746094 L 4.464844 22.417969 L 3.617188 21.929688 C 3.425781 21.820312 3.363281 21.578125 3.472656 21.386719 C 3.582031 21.199219 3.824219 21.132812 4.015625 21.242188 L 4.859375 21.730469 L 5.707031 21.242188 C 5.894531 21.132812 6.140625 21.199219 6.25 21.386719 C 6.355469 21.578125 6.292969 21.820312 6.101562 21.929688 L 5.257812 22.417969 L 5.257812 24.746094 L 5.824219 24.746094 C 5.957031 23.757812 6.265625 23.277344 6.519531 22.886719 C 6.75 22.53125 6.902344 22.296875 6.902344 21.738281 Z M 22.363281 13.9375 C 22.441406 14.246094 22.378906 14.554688 22.1875 14.804688 C 21.992188 15.054688 21.710938 15.191406 21.394531 15.191406 L 16.445312 15.191406 L 16.445312 19.292969 L 18.625 19.292969 C 18.84375 19.292969 19.019531 19.46875 19.019531 19.6875 C 19.019531 19.90625 18.84375 20.085938 18.625 20.085938 L 11.683594 20.085938 C 11.464844 20.085938 11.289062 19.90625 11.289062 19.6875 C 11.289062 19.46875 11.464844 19.292969 11.683594 19.292969 L 13.863281 19.292969 L 13.863281 15.191406 L 8.914062 15.191406 C 8.589844 15.191406 8.304688 15.050781 8.113281 14.792969 C 7.917969 14.535156 7.863281 14.222656 7.953125 13.910156 L 10.300781 5.933594 C 10.402344 5.589844 10.707031 5.359375 11.066406 5.359375 L 19.480469 5.359375 C 19.851562 5.359375 20.160156 5.597656 20.253906 5.957031 Z M 9.851562 10.269531 L 9.386719 11.867188 L 12.761719 11.867188 L 12.910156 10.269531 Z M 12.980469 9.476562 L 13.113281 8.023438 L 10.511719 8.023438 L 10.085938 9.476562 Z M 13.703125 10.269531 L 13.558594 11.867188 L 16.746094 11.867188 L 16.601562 10.269531 Z M 16.53125 9.476562 L 16.398438 8.023438 L 13.90625 8.023438 L 13.773438 9.476562 Z M 16.226562 6.15625 L 14.078125 6.15625 L 13.980469 7.230469 L 16.324219 7.230469 Z M 13.488281 12.660156 L 13.328125 14.402344 L 16.980469 14.402344 L 16.820312 12.660156 Z M 17.546875 11.867188 L 20.992188 11.867188 L 20.574219 10.273438 L 17.398438 10.273438 Z M 19.980469 8.027344 L 17.195312 8.027344 L 17.328125 9.480469 L 20.363281 9.480469 Z M 19.480469 6.15625 L 17.023438 6.15625 L 17.121094 7.234375 L 19.769531 7.234375 L 19.488281 6.160156 L 19.480469 6.160156 Z M 11.0625 6.160156 L 10.746094 7.234375 L 13.183594 7.234375 L 13.28125 6.15625 L 11.066406 6.15625 C 11.066406 6.15625 11.0625 6.160156 11.0625 6.160156 Z M 8.914062 14.402344 L 12.53125 14.402344 L 12.6875 12.660156 L 9.148438 12.660156 L 8.714844 14.136719 C 8.695312 14.203125 8.707031 14.261719 8.75 14.320312 C 8.792969 14.375 8.84375 14.402344 8.914062 14.402344 Z M 15.652344 15.195312 L 14.65625 15.195312 L 14.65625 19.292969 L 15.652344 19.292969 Z M 21.59375 14.140625 L 21.203125 12.660156 L 17.617188 12.660156 L 17.773438 14.402344 L 21.394531 14.402344 C 21.464844 14.402344 21.511719 14.378906 21.558594 14.324219 C 21.601562 14.265625 21.609375 14.210938 21.59375 14.144531 Z M 20.566406 4.3125 L 21.472656 4.3125 C 21.691406 4.3125 21.867188 4.132812 21.867188 3.914062 C 21.867188 3.695312 21.691406 3.519531 21.472656 3.519531 L 20.566406 3.519531 C 20.347656 3.519531 20.171875 3.695312 20.171875 3.914062 C 20.171875 4.132812 20.347656 4.3125 20.566406 4.3125 Z M 25.929688 2.464844 C 26.03125 2.464844 26.132812 2.425781 26.210938 2.347656 L 26.851562 1.710938 C 27.007812 1.554688 27.007812 1.304688 26.851562 1.148438 C 26.695312 0.992188 26.445312 0.992188 26.289062 1.148438 L 25.652344 1.789062 C 25.496094 1.941406 25.496094 2.195312 25.652344 2.347656 C 25.726562 2.425781 25.828125 2.464844 25.929688 2.464844 Z M 24.085938 1.699219 C 24.304688 1.699219 24.480469 1.523438 24.480469 1.304688 L 24.480469 0.398438 C 24.480469 0.179688 24.304688 0 24.085938 0 C 23.867188 0 23.6875 0.179688 23.6875 0.398438 L 23.6875 1.304688 C 23.6875 1.523438 23.867188 1.699219 24.085938 1.699219 Z M 21.957031 2.347656 C 22.035156 2.425781 22.136719 2.464844 22.238281 2.464844 C 22.339844 2.464844 22.441406 2.425781 22.519531 2.347656 C 22.671875 2.195312 22.671875 1.941406 22.519531 1.789062 L 21.878906 1.148438 C 21.722656 0.992188 21.472656 0.992188 21.316406 1.148438 C 21.164062 1.304688 21.164062 1.554688 21.316406 1.710938 Z M 27.601562 3.519531 L 26.695312 3.519531 C 26.476562 3.519531 26.300781 3.695312 26.300781 3.914062 C 26.300781 4.132812 26.476562 4.3125 26.695312 4.3125 L 27.601562 4.3125 C 27.820312 4.3125 27.996094 4.132812 27.996094 3.914062 C 27.996094 3.695312 27.820312 3.519531 27.601562 3.519531 Z M 21.957031 5.480469 L 21.316406 6.121094 C 21.164062 6.277344 21.164062 6.527344 21.316406 6.683594 C 21.394531 6.757812 21.496094 6.796875 21.597656 6.796875 C 21.699219 6.796875 21.800781 6.757812 21.878906 6.683594 L 22.519531 6.042969 C 22.671875 5.886719 22.671875 5.636719 22.519531 5.480469 C 22.363281 5.328125 22.113281 5.328125 21.957031 5.480469 Z M 26.210938 5.480469 C 26.054688 5.328125 25.804688 5.328125 25.652344 5.480469 C 25.496094 5.636719 25.496094 5.886719 25.652344 6.042969 L 26.289062 6.683594 C 26.367188 6.757812 26.46875 6.796875 26.570312 6.796875 C 26.671875 6.796875 26.773438 6.757812 26.851562 6.683594 C 27.007812 6.527344 27.007812 6.277344 26.851562 6.121094 Z M 24.082031 6.128906 C 23.863281 6.128906 23.6875 6.308594 23.6875 6.527344 L 23.6875 7.433594 C 23.6875 7.652344 23.863281 7.828125 24.082031 7.828125 C 24.304688 7.828125 24.480469 7.652344 24.480469 7.433594 L 24.480469 6.527344 C 24.480469 6.308594 24.304688 6.128906 24.082031 6.128906 Z M 26.019531 3.917969 C 26.019531 4.984375 25.152344 5.851562 24.082031 5.851562 C 23.015625 5.851562 22.148438 4.984375 22.148438 3.917969 C 22.148438 2.847656 23.015625 1.980469 24.082031 1.980469 C 25.152344 1.980469 26.019531 2.847656 26.019531 3.917969 Z M 25.226562 3.917969 C 25.226562 3.285156 24.714844 2.773438 24.082031 2.773438 C 23.453125 2.773438 22.941406 3.285156 22.941406 3.917969 C 22.941406 4.546875 23.453125 5.058594 24.082031 5.058594 C 24.714844 5.058594 25.226562 4.546875 25.226562 3.917969 Z M 15.152344 20.996094 C 14.933594 20.996094 14.753906 21.171875 14.753906 21.390625 L 14.753906 25.585938 L 8.308594 25.585938 C 8.089844 25.585938 7.910156 25.761719 7.910156 25.984375 C 7.910156 26.203125 8.089844 26.378906 8.308594 26.378906 L 15.152344 26.378906 C 15.371094 26.378906 15.546875 26.203125 15.546875 25.984375 L 15.546875 21.390625 C 15.546875 21.171875 15.371094 20.996094 15.152344 20.996094 Z M 15.152344 20.996094 "/>
</g>
</svg>
