<?xml version="1.0" encoding="UTF-8"?>
<svg xmlns="http://www.w3.org/2000/svg" xmlns:xlink="http://www.w3.org/1999/xlink" width="28px" height="28px" viewBox="0 0 28 28" version="1.1">
<g id="surface1">
<path style=" stroke:none;fill-rule:nonzero;fill:rgb(92.941176%,41.176471%,36.078431%);fill-opacity:1;" d="M 13.949219 5.25 C 14.933594 5.25 15.734375 4.46875 15.734375 3.5 C 15.734375 2.535156 14.933594 1.75 13.949219 1.75 C 12.964844 1.75 12.164062 2.535156 12.164062 3.5 C 12.164062 4.46875 12.964844 5.25 13.949219 5.25 Z M 13.949219 2.625 C 14.441406 2.625 14.84375 3.019531 14.84375 3.5 C 14.84375 3.984375 14.441406 4.375 13.949219 4.375 C 13.457031 4.375 13.054688 3.984375 13.054688 3.5 C 13.054688 3.019531 13.457031 2.625 13.949219 2.625 Z M 13.949219 2.625 "/>
<path style=" stroke:none;fill-rule:nonzero;fill:rgb(92.941176%,41.176471%,36.078431%);fill-opacity:1;" d="M 13.949219 1.3125 C 14.195312 1.3125 14.398438 1.117188 14.398438 0.875 L 14.398438 0.4375 C 14.398438 0.195312 14.195312 0 13.949219 0 C 13.703125 0 13.503906 0.195312 13.503906 0.4375 L 13.503906 0.875 C 13.503906 1.117188 13.703125 1.3125 13.949219 1.3125 Z M 13.949219 1.3125 "/>
<path style=" stroke:none;fill-rule:nonzero;fill:rgb(92.941176%,41.176471%,36.078431%);fill-opacity:1;" d="M 13.503906 6.125 L 13.503906 6.5625 C 13.503906 6.804688 13.703125 7 13.949219 7 C 14.195312 7 14.398438 6.804688 14.398438 6.5625 L 14.398438 6.125 C 14.398438 5.882812 14.195312 5.6875 13.949219 5.6875 C 13.703125 5.6875 13.503906 5.882812 13.503906 6.125 Z M 13.503906 6.125 "/>
<path style=" stroke:none;fill-rule:nonzero;fill:rgb(92.941176%,41.176471%,36.078431%);fill-opacity:1;" d="M 10.824219 3.9375 L 11.269531 3.9375 C 11.519531 3.9375 11.71875 3.742188 11.71875 3.5 C 11.71875 3.257812 11.519531 3.0625 11.269531 3.0625 L 10.824219 3.0625 C 10.582031 3.0625 10.378906 3.257812 10.378906 3.5 C 10.378906 3.742188 10.582031 3.9375 10.824219 3.9375 Z M 10.824219 3.9375 "/>
<path style=" stroke:none;fill-rule:nonzero;fill:rgb(92.941176%,41.176471%,36.078431%);fill-opacity:1;" d="M 16.183594 3.5 C 16.183594 3.742188 16.382812 3.9375 16.628906 3.9375 L 17.074219 3.9375 C 17.320312 3.9375 17.519531 3.742188 17.519531 3.5 C 17.519531 3.257812 17.320312 3.0625 17.074219 3.0625 L 16.628906 3.0625 C 16.382812 3.0625 16.183594 3.257812 16.183594 3.5 Z M 16.183594 3.5 "/>
<path style=" stroke:none;fill-rule:nonzero;fill:rgb(92.941176%,41.176471%,36.078431%);fill-opacity:1;" d="M 11.742188 1.953125 C 11.828125 2.039062 11.941406 2.082031 12.058594 2.082031 C 12.171875 2.082031 12.285156 2.039062 12.371094 1.953125 C 12.546875 1.78125 12.546875 1.503906 12.371094 1.335938 L 12.058594 1.027344 C 11.882812 0.855469 11.597656 0.855469 11.425781 1.027344 C 11.25 1.199219 11.25 1.472656 11.425781 1.644531 Z M 11.742188 1.953125 "/>
<path style=" stroke:none;fill-rule:nonzero;fill:rgb(92.941176%,41.176471%,36.078431%);fill-opacity:1;" d="M 15.527344 5.046875 C 15.351562 5.21875 15.351562 5.496094 15.527344 5.664062 L 15.84375 5.972656 C 15.929688 6.058594 16.042969 6.101562 16.160156 6.101562 C 16.273438 6.101562 16.386719 6.058594 16.476562 5.972656 C 16.648438 5.800781 16.648438 5.527344 16.476562 5.355469 L 16.160156 5.046875 C 15.984375 4.875 15.699219 4.875 15.527344 5.046875 Z M 15.527344 5.046875 "/>
<path style=" stroke:none;fill-rule:nonzero;fill:rgb(92.941176%,41.176471%,36.078431%);fill-opacity:1;" d="M 11.742188 5.046875 L 11.425781 5.355469 C 11.25 5.527344 11.25 5.800781 11.425781 5.972656 C 11.511719 6.058594 11.628906 6.101562 11.742188 6.101562 C 11.855469 6.101562 11.972656 6.058594 12.058594 5.972656 L 12.371094 5.664062 C 12.546875 5.496094 12.546875 5.21875 12.371094 5.046875 C 12.199219 4.875 11.914062 4.875 11.742188 5.046875 Z M 11.742188 5.046875 "/>
<path style=" stroke:none;fill-rule:nonzero;fill:rgb(92.941176%,41.176471%,36.078431%);fill-opacity:1;" d="M 15.84375 2.082031 C 15.957031 2.082031 16.074219 2.039062 16.160156 1.953125 L 16.476562 1.644531 C 16.648438 1.472656 16.648438 1.199219 16.476562 1.023438 C 16.300781 0.855469 16.019531 0.855469 15.84375 1.023438 L 15.527344 1.335938 C 15.351562 1.503906 15.351562 1.78125 15.527344 1.953125 C 15.613281 2.039062 15.730469 2.082031 15.84375 2.082031 Z M 15.84375 2.082031 "/>
<path style=" stroke:none;fill-rule:nonzero;fill:rgb(92.941176%,41.176471%,36.078431%);fill-opacity:1;" d="M 24.210938 25.746094 L 21.53125 8.25 C 21.5 8.035156 21.3125 7.875 21.09375 7.875 L 7.253906 7.875 C 7.039062 7.875 6.851562 8.027344 6.816406 8.238281 L 3.691406 25.734375 C 3.683594 25.761719 3.683594 25.785156 3.683594 25.8125 L 3.683594 27.5625 C 3.683594 27.804688 3.882812 28 4.128906 28 L 23.769531 28 C 24.015625 28 24.214844 27.804688 24.214844 27.5625 L 24.214844 25.8125 C 24.214844 25.789062 24.214844 25.769531 24.210938 25.746094 Z M 4.664062 25.375 L 5.128906 22.75 L 13.503906 22.75 L 13.503906 25.375 Z M 5.757812 19.21875 C 5.808594 19.234375 5.859375 19.25 5.914062 19.25 L 13.503906 19.25 L 13.503906 21.875 L 5.285156 21.875 Z M 6.382812 15.75 L 13.503906 15.75 L 13.503906 18.375 L 5.914062 18.375 C 5.914062 18.375 5.910156 18.375 5.910156 18.375 Z M 7.003906 12.25 L 13.503906 12.25 L 13.503906 14.875 L 6.535156 14.875 Z M 22.179688 18.375 L 14.398438 18.375 L 14.398438 15.75 L 21.78125 15.75 Z M 22.3125 19.25 L 22.714844 21.875 L 14.398438 21.875 L 14.398438 19.25 Z M 21.644531 14.875 L 14.398438 14.875 L 14.398438 12.25 L 21.242188 12.25 Z M 14.398438 22.75 L 22.851562 22.75 L 23.25 25.375 L 14.398438 25.375 Z M 21.109375 11.375 L 14.398438 11.375 L 14.398438 8.75 L 20.707031 8.75 Z M 7.628906 8.75 L 13.503906 8.75 L 13.503906 11.375 L 7.160156 11.375 Z M 23.324219 27.125 L 4.578125 27.125 L 4.578125 26.25 L 23.324219 26.25 Z M 23.324219 27.125 "/>
</g>
</svg>
