<?xml version="1.0" encoding="UTF-8"?>
<svg xmlns="http://www.w3.org/2000/svg" xmlns:xlink="http://www.w3.org/1999/xlink" width="28px" height="28px" viewBox="0 0 28 38" version="1.1">
<g id="surface1">
<path style=" stroke:none;fill-rule:nonzero;fill:rgb(92.941176%,41.176471%,36.078431%);fill-opacity:1;" d="M 13.933594 7.125 C 15.269531 7.125 16.355469 6.0625 16.355469 4.75 C 16.355469 3.441406 15.269531 2.375 13.933594 2.375 C 12.59375 2.375 11.507812 3.441406 11.507812 4.75 C 11.507812 6.0625 12.59375 7.125 13.933594 7.125 Z M 13.933594 3.5625 C 14.597656 3.5625 15.144531 4.097656 15.144531 4.75 C 15.144531 5.40625 14.597656 5.9375 13.933594 5.9375 C 13.265625 5.9375 12.71875 5.40625 12.71875 4.75 C 12.71875 4.097656 13.265625 3.5625 13.933594 3.5625 Z M 13.933594 3.5625 "/>
<path style=" stroke:none;fill-rule:nonzero;fill:rgb(92.941176%,41.176471%,36.078431%);fill-opacity:1;" d="M 13.933594 1.78125 C 14.265625 1.78125 14.539062 1.515625 14.539062 1.1875 L 14.539062 0.59375 C 14.539062 0.265625 14.265625 0 13.933594 0 C 13.597656 0 13.328125 0.265625 13.328125 0.59375 L 13.328125 1.1875 C 13.328125 1.515625 13.597656 1.78125 13.933594 1.78125 Z M 13.933594 1.78125 "/>
<path style=" stroke:none;fill-rule:nonzero;fill:rgb(92.941176%,41.176471%,36.078431%);fill-opacity:1;" d="M 13.328125 8.3125 L 13.328125 8.90625 C 13.328125 9.234375 13.597656 9.5 13.933594 9.5 C 14.265625 9.5 14.539062 9.234375 14.539062 8.90625 L 14.539062 8.3125 C 14.539062 7.984375 14.265625 7.71875 13.933594 7.71875 C 13.597656 7.71875 13.328125 7.984375 13.328125 8.3125 Z M 13.328125 8.3125 "/>
<path style=" stroke:none;fill-rule:nonzero;fill:rgb(92.941176%,41.176471%,36.078431%);fill-opacity:1;" d="M 9.691406 5.34375 L 10.296875 5.34375 C 10.632812 5.34375 10.902344 5.078125 10.902344 4.75 C 10.902344 4.421875 10.632812 4.15625 10.296875 4.15625 L 9.691406 4.15625 C 9.359375 4.15625 9.085938 4.421875 9.085938 4.75 C 9.085938 5.078125 9.359375 5.34375 9.691406 5.34375 Z M 9.691406 5.34375 "/>
<path style=" stroke:none;fill-rule:nonzero;fill:rgb(92.941176%,41.176471%,36.078431%);fill-opacity:1;" d="M 16.960938 4.75 C 16.960938 5.078125 17.234375 5.34375 17.566406 5.34375 L 18.171875 5.34375 C 18.507812 5.34375 18.777344 5.078125 18.777344 4.75 C 18.777344 4.421875 18.507812 4.15625 18.171875 4.15625 L 17.566406 4.15625 C 17.234375 4.15625 16.960938 4.421875 16.960938 4.75 Z M 16.960938 4.75 "/>
<path style=" stroke:none;fill-rule:nonzero;fill:rgb(92.941176%,41.176471%,36.078431%);fill-opacity:1;" d="M 10.933594 2.652344 C 11.054688 2.769531 11.207031 2.824219 11.363281 2.824219 C 11.519531 2.824219 11.671875 2.769531 11.789062 2.652344 C 12.027344 2.417969 12.027344 2.042969 11.789062 1.8125 L 11.363281 1.394531 C 11.125 1.160156 10.742188 1.160156 10.507812 1.394531 C 10.269531 1.625 10.269531 2 10.507812 2.230469 Z M 10.933594 2.652344 "/>
<path style=" stroke:none;fill-rule:nonzero;fill:rgb(92.941176%,41.176471%,36.078431%);fill-opacity:1;" d="M 16.074219 6.847656 C 15.835938 7.082031 15.835938 7.457031 16.074219 7.6875 L 16.5 8.105469 C 16.621094 8.222656 16.773438 8.28125 16.929688 8.28125 C 17.085938 8.28125 17.238281 8.222656 17.359375 8.105469 C 17.59375 7.875 17.59375 7.5 17.359375 7.269531 L 16.929688 6.847656 C 16.695312 6.617188 16.308594 6.617188 16.074219 6.847656 Z M 16.074219 6.847656 "/>
<path style=" stroke:none;fill-rule:nonzero;fill:rgb(92.941176%,41.176471%,36.078431%);fill-opacity:1;" d="M 10.933594 6.847656 L 10.507812 7.269531 C 10.269531 7.5 10.269531 7.875 10.507812 8.105469 C 10.625 8.222656 10.78125 8.28125 10.933594 8.28125 C 11.089844 8.28125 11.246094 8.222656 11.363281 8.105469 L 11.789062 7.6875 C 12.027344 7.457031 12.027344 7.082031 11.789062 6.847656 C 11.554688 6.617188 11.167969 6.617188 10.933594 6.847656 Z M 10.933594 6.847656 "/>
<path style=" stroke:none;fill-rule:nonzero;fill:rgb(92.941176%,41.176471%,36.078431%);fill-opacity:1;" d="M 16.5 2.824219 C 16.65625 2.824219 16.8125 2.765625 16.929688 2.648438 L 17.359375 2.230469 C 17.59375 2 17.59375 1.625 17.359375 1.390625 C 17.121094 1.160156 16.738281 1.160156 16.5 1.390625 L 16.074219 1.8125 C 15.835938 2.042969 15.835938 2.417969 16.074219 2.648438 C 16.191406 2.765625 16.347656 2.824219 16.5 2.824219 Z M 16.5 2.824219 "/>
<path style=" stroke:none;fill-rule:nonzero;fill:rgb(92.941176%,41.176471%,36.078431%);fill-opacity:1;" d="M 27.859375 34.941406 L 24.222656 11.195312 C 24.179688 10.902344 23.925781 10.6875 23.625 10.6875 L 4.84375 10.6875 C 4.550781 10.6875 4.300781 10.894531 4.25 11.179688 L 0.0078125 34.925781 C 0 34.960938 0 34.996094 0 35.03125 L 0 37.40625 C 0 37.734375 0.269531 38 0.605469 38 L 27.257812 38 C 27.59375 38 27.863281 37.734375 27.863281 37.40625 L 27.863281 35.03125 C 27.863281 35 27.863281 34.972656 27.859375 34.941406 Z M 1.328125 34.4375 L 1.960938 30.875 L 13.328125 30.875 L 13.328125 34.4375 Z M 2.816406 26.082031 C 2.882812 26.105469 2.953125 26.125 3.027344 26.125 L 13.328125 26.125 L 13.328125 29.6875 L 2.171875 29.6875 Z M 3.660156 21.375 L 13.328125 21.375 L 13.328125 24.9375 L 3.027344 24.9375 C 3.027344 24.9375 3.023438 24.9375 3.023438 24.9375 Z M 4.503906 16.625 L 13.328125 16.625 L 13.328125 20.1875 L 3.871094 20.1875 Z M 25.101562 24.9375 L 14.539062 24.9375 L 14.539062 21.375 L 24.558594 21.375 Z M 25.28125 26.125 L 25.828125 29.6875 L 14.539062 29.6875 L 14.539062 26.125 Z M 24.375 20.1875 L 14.539062 20.1875 L 14.539062 16.625 L 23.828125 16.625 Z M 14.539062 30.875 L 26.011719 30.875 L 26.554688 34.4375 L 14.539062 34.4375 Z M 23.648438 15.4375 L 14.539062 15.4375 L 14.539062 11.875 L 23.101562 11.875 Z M 5.355469 11.875 L 13.328125 11.875 L 13.328125 15.4375 L 4.71875 15.4375 Z M 26.652344 36.8125 L 1.210938 36.8125 L 1.210938 35.625 L 26.652344 35.625 Z M 26.652344 36.8125 "/>
</g>
</svg>
