<?xml version="1.0" encoding="UTF-8"?>
<svg xmlns="http://www.w3.org/2000/svg" xmlns:xlink="http://www.w3.org/1999/xlink" width="28px" height="28px" viewBox="0 0 28 21" version="1.1">
<g id="surface1">
<path style=" stroke:none;fill-rule:nonzero;fill:rgb(92.941176%,41.176471%,36.078431%);fill-opacity:1;" d="M 18.308594 14.808594 C 20.402344 11.332031 18.121094 5.820312 18.023438 5.589844 C 17.9375 5.390625 17.753906 5.25 17.535156 5.214844 C 17.3125 5.1875 17.09375 5.265625 16.953125 5.429688 C 16.066406 6.472656 14.871094 6.796875 13.605469 7.140625 C 12.082031 7.554688 10.351562 8.027344 9.441406 9.945312 C 7.875 13.242188 9.652344 15.589844 10.28125 16.277344 C 9.769531 17.46875 9.414062 18.757812 9.382812 20.082031 C 9.375 20.414062 9.652344 20.695312 10 20.703125 L 10.011719 20.703125 C 10.355469 20.703125 10.636719 20.4375 10.644531 20.109375 C 10.753906 15.425781 15.625 10.898438 15.675781 10.851562 C 15.925781 10.621094 15.9375 10.238281 15.695312 9.996094 C 15.457031 9.75 15.058594 9.742188 14.808594 9.972656 C 14.664062 10.101562 12.433594 12.175781 10.875 15.050781 C 10.3125 14.261719 9.546875 12.636719 10.585938 10.453125 C 11.253906 9.042969 12.5 8.703125 13.949219 8.308594 C 15.003906 8.023438 16.167969 7.707031 17.171875 6.921875 C 17.695312 8.53125 18.554688 11.980469 17.21875 14.203125 C 16.535156 15.339844 15.375 16 13.675781 16.222656 C 13.332031 16.265625 13.089844 16.570312 13.136719 16.902344 C 13.179688 17.207031 13.449219 17.429688 13.757812 17.429688 C 13.785156 17.429688 13.816406 17.429688 13.84375 17.425781 C 15.925781 17.152344 17.429688 16.273438 18.308594 14.808594 Z M 18.308594 14.808594 "/>
<path style=" stroke:none;fill-rule:nonzero;fill:rgb(92.941176%,41.176471%,36.078431%);fill-opacity:1;" d="M 27.710938 8.4375 L 14.339844 0.0976562 C 14.132812 -0.03125 13.867188 -0.03125 13.65625 0.0976562 L 8.839844 3.101562 L 8.839844 0.605469 C 8.839844 0.273438 8.558594 0 8.210938 0 L 5.078125 0 C 4.730469 0 4.449219 0.273438 4.449219 0.605469 L 4.449219 5.804688 C 4.449219 5.808594 4.449219 5.808594 4.449219 5.8125 L 4.449219 5.84375 L 0.289062 8.4375 C -0.00390625 8.621094 -0.0859375 8.996094 0.101562 9.277344 C 0.222656 9.460938 0.421875 9.554688 0.628906 9.554688 C 0.746094 9.554688 0.867188 9.523438 0.972656 9.460938 L 4.449219 7.289062 L 4.449219 18.214844 L 1.078125 18.214844 C 0.730469 18.214844 0.449219 18.488281 0.449219 18.820312 C 0.449219 19.15625 0.730469 19.429688 1.078125 19.429688 L 7.3125 19.429688 C 7.660156 19.429688 7.941406 19.15625 7.941406 18.820312 C 7.941406 18.488281 7.660156 18.214844 7.3125 18.214844 L 5.707031 18.214844 L 5.707031 6.503906 L 8.554688 4.726562 C 8.558594 4.722656 8.5625 4.722656 8.570312 4.71875 L 14 1.332031 L 22.292969 6.503906 L 22.292969 18.214844 L 20.882812 18.214844 C 20.535156 18.214844 20.25 18.488281 20.25 18.820312 C 20.25 19.15625 20.535156 19.429688 20.882812 19.429688 L 26.921875 19.429688 C 27.269531 19.429688 27.550781 19.15625 27.550781 18.820312 C 27.550781 18.484375 27.269531 18.214844 26.921875 18.214844 L 23.550781 18.214844 L 23.550781 7.289062 L 27.027344 9.457031 C 27.320312 9.640625 27.710938 9.558594 27.898438 9.277344 C 28.085938 8.996094 28.003906 8.621094 27.710938 8.4375 Z M 7.582031 3.886719 L 5.710938 5.058594 L 5.710938 1.214844 L 7.582031 1.214844 Z M 7.582031 3.886719 "/>
</g>
</svg>
