<?xml version="1.0" encoding="UTF-8"?>
<svg xmlns="http://www.w3.org/2000/svg" xmlns:xlink="http://www.w3.org/1999/xlink" width="28px" height="28px" viewBox="0 0 28 28" version="1.1">
<g id="surface1">
<path style=" stroke:none;fill-rule:nonzero;fill:rgb(92.941176%,41.176471%,36.078431%);fill-opacity:1;" d="M 18.308594 18.308594 C 20.402344 14.832031 18.121094 9.320312 18.023438 9.089844 C 17.9375 8.890625 17.753906 8.75 17.535156 8.714844 C 17.3125 8.6875 17.09375 8.765625 16.953125 8.929688 C 16.066406 9.972656 14.871094 10.296875 13.605469 10.640625 C 12.082031 11.054688 10.351562 11.527344 9.441406 13.445312 C 7.875 16.742188 9.652344 19.089844 10.28125 19.777344 C 9.769531 20.96875 9.414062 22.257812 9.382812 23.582031 C 9.375 23.914062 9.652344 24.195312 10 24.203125 L 10.011719 24.203125 C 10.355469 24.203125 10.636719 23.9375 10.644531 23.609375 C 10.753906 18.925781 15.625 14.398438 15.675781 14.351562 C 15.925781 14.121094 15.9375 13.738281 15.695312 13.496094 C 15.457031 13.25 15.058594 13.242188 14.808594 13.472656 C 14.664062 13.601562 12.433594 15.675781 10.875 18.550781 C 10.3125 17.761719 9.546875 16.136719 10.585938 13.953125 C 11.253906 12.542969 12.5 12.203125 13.949219 11.808594 C 15.003906 11.523438 16.167969 11.207031 17.171875 10.421875 C 17.695312 12.03125 18.554688 15.480469 17.21875 17.703125 C 16.535156 18.839844 15.375 19.5 13.675781 19.722656 C 13.332031 19.765625 13.089844 20.070312 13.136719 20.402344 C 13.179688 20.707031 13.449219 20.929688 13.757812 20.929688 C 13.785156 20.929688 13.816406 20.929688 13.84375 20.925781 C 15.925781 20.652344 17.429688 19.773438 18.308594 18.308594 Z M 18.308594 18.308594 "/>
<path style=" stroke:none;fill-rule:nonzero;fill:rgb(92.941176%,41.176471%,36.078431%);fill-opacity:1;" d="M 27.710938 11.9375 L 14.339844 3.597656 C 14.132812 3.46875 13.867188 3.46875 13.65625 3.597656 L 8.839844 6.601562 L 8.839844 4.105469 C 8.839844 3.773438 8.558594 3.5 8.210938 3.5 L 5.078125 3.5 C 4.730469 3.5 4.449219 3.773438 4.449219 4.105469 L 4.449219 9.304688 C 4.449219 9.308594 4.449219 9.308594 4.449219 9.3125 L 4.449219 9.34375 L 0.289062 11.9375 C -0.00390625 12.121094 -0.0859375 12.496094 0.101562 12.777344 C 0.222656 12.960938 0.421875 13.054688 0.628906 13.054688 C 0.746094 13.054688 0.867188 13.023438 0.972656 12.960938 L 4.449219 10.789062 L 4.449219 21.714844 L 1.078125 21.714844 C 0.730469 21.714844 0.449219 21.988281 0.449219 22.320312 C 0.449219 22.65625 0.730469 22.929688 1.078125 22.929688 L 7.3125 22.929688 C 7.660156 22.929688 7.941406 22.65625 7.941406 22.320312 C 7.941406 21.988281 7.660156 21.714844 7.3125 21.714844 L 5.707031 21.714844 L 5.707031 10.003906 L 8.554688 8.226562 C 8.558594 8.222656 8.5625 8.222656 8.570312 8.21875 L 14 4.832031 L 22.292969 10.003906 L 22.292969 21.714844 L 20.882812 21.714844 C 20.535156 21.714844 20.25 21.988281 20.25 22.320312 C 20.25 22.65625 20.535156 22.929688 20.882812 22.929688 L 26.921875 22.929688 C 27.269531 22.929688 27.550781 22.65625 27.550781 22.320312 C 27.550781 21.984375 27.269531 21.714844 26.921875 21.714844 L 23.550781 21.714844 L 23.550781 10.789062 L 27.027344 12.957031 C 27.320312 13.140625 27.710938 13.058594 27.898438 12.777344 C 28.085938 12.496094 28.003906 12.121094 27.710938 11.9375 Z M 7.582031 7.386719 L 5.710938 8.558594 L 5.710938 4.714844 L 7.582031 4.714844 Z M 7.582031 7.386719 "/>
</g>
</svg>
