<?xml version="1.0" encoding="UTF-8"?>
<svg xmlns="http://www.w3.org/2000/svg" xmlns:xlink="http://www.w3.org/1999/xlink" width="28px" height="28px" viewBox="0 0 28 28" version="1.1">
<g id="surface1">
<path style=" stroke:none;fill-rule:nonzero;fill:rgb(92.941176%,41.176471%,36.078431%);fill-opacity:1;" d="M 9.832031 10.90625 C 7.964844 14.023438 9.496094 16.515625 10.007812 17.203125 C 9.378906 18.335938 8.898438 19.578125 8.730469 20.886719 C 8.695312 21.183594 8.910156 21.453125 9.210938 21.492188 C 9.234375 21.496094 9.257812 21.496094 9.28125 21.496094 C 9.554688 21.496094 9.792969 21.296875 9.828125 21.023438 C 10.425781 16.386719 15.636719 12.378906 15.691406 12.339844 C 15.933594 12.15625 15.976562 11.816406 15.789062 11.578125 C 15.605469 11.34375 15.257812 11.296875 15.015625 11.476562 C 14.863281 11.59375 12.441406 13.453125 10.632812 16.175781 C 10.148438 15.367188 9.484375 13.625 10.78125 11.457031 C 11.589844 10.109375 12.851562 9.898438 14.304688 9.648438 C 15.375 9.464844 16.5625 9.265625 17.625 8.558594 C 17.96875 10.164062 18.492188 13.761719 16.925781 15.878906 C 16.144531 16.933594 14.902344 17.496094 13.234375 17.550781 C 12.929688 17.558594 12.6875 17.808594 12.699219 18.109375 C 12.707031 18.40625 12.953125 18.636719 13.25 18.636719 L 13.265625 18.636719 C 15.296875 18.574219 16.828125 17.859375 17.820312 16.515625 C 20.195312 13.3125 18.5625 7.675781 18.492188 7.4375 C 18.4375 7.25 18.289062 7.109375 18.101562 7.0625 C 17.910156 7.015625 17.710938 7.070312 17.574219 7.203125 C 16.59375 8.15625 15.390625 8.363281 14.121094 8.578125 C 12.539062 8.847656 10.902344 9.128906 9.832031 10.910156 Z M 9.832031 10.90625 "/>
<path style=" stroke:none;fill-rule:nonzero;fill:rgb(92.941176%,41.176471%,36.078431%);fill-opacity:1;" d="M 9.296875 24.664062 C 9.367188 24.695312 9.4375 24.710938 9.511719 24.710938 C 9.726562 24.710938 9.929688 24.585938 10.019531 24.378906 C 10.140625 24.105469 10.007812 23.789062 9.726562 23.667969 C 5.371094 21.84375 2.78125 17.507812 3.289062 12.875 C 3.871094 7.578125 8.390625 3.617188 13.671875 3.5 L 12.304688 4.582031 C 12.070312 4.765625 12.035156 5.109375 12.222656 5.34375 C 12.332031 5.476562 12.496094 5.546875 12.65625 5.546875 C 12.777344 5.546875 12.898438 5.507812 13.003906 5.425781 L 15.519531 3.4375 C 15.628906 3.34375 15.703125 3.214844 15.71875 3.074219 C 15.734375 2.925781 15.691406 2.789062 15.601562 2.671875 L 13.574219 0.203125 C 13.382812 -0.03125 13.035156 -0.0664062 12.796875 0.121094 C 12.558594 0.308594 12.523438 0.652344 12.714844 0.886719 L 13.960938 2.40625 C 7.996094 2.382812 2.839844 6.808594 2.191406 12.757812 C 1.628906 17.867188 4.484375 22.652344 9.296875 24.664062 Z M 9.296875 24.664062 "/>
<path style=" stroke:none;fill-rule:nonzero;fill:rgb(92.941176%,41.176471%,36.078431%);fill-opacity:1;" d="M 18.019531 4.292969 C 22.378906 6.058594 25.070312 10.515625 24.5625 15.125 C 23.984375 20.421875 19.464844 24.378906 14.179688 24.503906 L 15.542969 23.421875 C 15.78125 23.234375 15.820312 22.890625 15.628906 22.65625 C 15.4375 22.425781 15.085938 22.390625 14.851562 22.578125 L 12.335938 24.566406 C 12.21875 24.65625 12.148438 24.785156 12.132812 24.929688 C 12.117188 25.074219 12.160156 25.214844 12.253906 25.328125 L 14.277344 27.796875 C 14.386719 27.929688 14.546875 28 14.710938 28 C 14.832031 28 14.953125 27.960938 15.058594 27.878906 C 15.296875 27.691406 15.332031 27.351562 15.140625 27.113281 L 13.890625 25.59375 C 13.90625 25.59375 13.921875 25.597656 13.9375 25.597656 C 19.882812 25.597656 25.015625 21.179688 25.664062 15.242188 C 26.222656 10.15625 23.253906 5.238281 18.445312 3.289062 C 18.164062 3.171875 17.839844 3.304688 17.722656 3.582031 C 17.605469 3.859375 17.742188 4.175781 18.023438 4.292969 Z M 18.019531 4.292969 "/>
</g>
</svg>
