<?xml version="1.0" encoding="UTF-8"?>
<svg xmlns="http://www.w3.org/2000/svg" xmlns:xlink="http://www.w3.org/1999/xlink" width="28px" height="28px" viewBox="0 0 28 33" version="1.1">
<g id="surface1">
<path style=" stroke:none;fill-rule:nonzero;fill:rgb(92.941176%,41.176471%,36.078431%);fill-opacity:1;" d="M 9.085938 12.855469 C 6.886719 16.527344 8.691406 19.464844 9.292969 20.277344 C 8.554688 21.609375 7.988281 23.074219 7.789062 24.617188 C 7.746094 24.964844 8 25.285156 8.355469 25.332031 C 8.382812 25.335938 8.410156 25.335938 8.4375 25.335938 C 8.761719 25.335938 9.042969 25.097656 9.082031 24.777344 C 9.789062 19.3125 15.929688 14.589844 15.992188 14.542969 C 16.277344 14.328125 16.328125 13.925781 16.109375 13.644531 C 15.890625 13.367188 15.480469 13.3125 15.195312 13.527344 C 15.015625 13.664062 12.164062 15.855469 10.03125 19.066406 C 9.460938 18.109375 8.679688 16.058594 10.207031 13.503906 C 11.160156 11.914062 12.644531 11.664062 14.359375 11.371094 C 15.621094 11.15625 17.019531 10.917969 18.273438 10.085938 C 18.675781 11.980469 19.292969 16.21875 17.449219 18.714844 C 16.527344 19.957031 15.0625 20.621094 13.097656 20.683594 C 12.738281 20.695312 12.453125 20.988281 12.464844 21.34375 C 12.476562 21.691406 12.765625 21.964844 13.117188 21.964844 L 13.136719 21.964844 C 15.527344 21.890625 17.332031 21.050781 18.503906 19.464844 C 21.300781 15.6875 19.378906 9.046875 19.292969 8.765625 C 19.230469 8.546875 19.054688 8.378906 18.832031 8.324219 C 18.609375 8.269531 18.375 8.332031 18.210938 8.488281 C 17.054688 9.613281 15.640625 9.855469 14.140625 10.109375 C 12.277344 10.429688 10.347656 10.757812 9.089844 12.859375 Z M 9.085938 12.855469 "/>
<path style=" stroke:none;fill-rule:nonzero;fill:rgb(92.941176%,41.176471%,36.078431%);fill-opacity:1;" d="M 8.457031 29.070312 C 8.539062 29.105469 8.625 29.125 8.710938 29.125 C 8.964844 29.125 9.203125 28.976562 9.308594 28.734375 C 9.453125 28.410156 9.296875 28.035156 8.964844 27.894531 C 3.828125 25.742188 0.777344 20.632812 1.375 15.171875 C 2.0625 8.929688 7.386719 4.261719 13.613281 4.125 L 12.003906 5.398438 C 11.726562 5.617188 11.683594 6.023438 11.90625 6.296875 C 12.035156 6.453125 12.226562 6.535156 12.414062 6.535156 C 12.558594 6.535156 12.703125 6.492188 12.824219 6.394531 L 15.789062 4.050781 C 15.921875 3.941406 16.007812 3.789062 16.027344 3.621094 C 16.042969 3.449219 15.992188 3.285156 15.886719 3.148438 L 13.5 0.238281 C 13.273438 -0.0351562 12.863281 -0.078125 12.582031 0.140625 C 12.300781 0.363281 12.257812 0.769531 12.484375 1.042969 L 13.953125 2.835938 C 6.921875 2.808594 0.847656 8.023438 0.0820312 15.035156 C -0.578125 21.058594 2.785156 26.699219 8.457031 29.070312 Z M 8.457031 29.070312 "/>
<path style=" stroke:none;fill-rule:nonzero;fill:rgb(92.941176%,41.176471%,36.078431%);fill-opacity:1;" d="M 18.738281 5.058594 C 23.875 7.140625 27.046875 12.394531 26.449219 17.828125 C 25.765625 24.070312 20.441406 28.734375 14.210938 28.878906 L 15.820312 27.605469 C 16.101562 27.382812 16.144531 26.980469 15.917969 26.703125 C 15.695312 26.429688 15.28125 26.386719 15.003906 26.609375 L 12.039062 28.953125 C 11.902344 29.058594 11.816406 29.210938 11.800781 29.382812 C 11.78125 29.550781 11.832031 29.71875 11.941406 29.851562 L 14.328125 32.761719 C 14.457031 32.917969 14.644531 33 14.835938 33 C 14.980469 33 15.125 32.953125 15.246094 32.859375 C 15.527344 32.636719 15.570312 32.234375 15.34375 31.957031 L 13.871094 30.164062 C 13.890625 30.164062 13.90625 30.167969 13.925781 30.167969 C 20.933594 30.167969 26.980469 24.960938 27.746094 17.964844 C 28.40625 11.96875 24.90625 6.175781 19.238281 3.875 C 18.90625 3.738281 18.527344 3.894531 18.386719 4.222656 C 18.25 4.550781 18.410156 4.921875 18.742188 5.058594 Z M 18.738281 5.058594 "/>
</g>
</svg>
