<?xml version="1.0" encoding="UTF-8"?>
<svg xmlns="http://www.w3.org/2000/svg" xmlns:xlink="http://www.w3.org/1999/xlink" width="28px" height="28px" viewBox="0 0 28 33" version="1.1">
<g id="surface1">
<path style=" stroke:none;fill-rule:nonzero;fill:rgb(92.941176%,41.176471%,36.078431%);fill-opacity:1;" d="M 18.902344 2.734375 L 6.300781 2.734375 C 5.914062 2.734375 5.605469 3.042969 5.605469 3.417969 L 5.605469 11.632812 C 5.605469 12.011719 5.917969 12.316406 6.300781 12.316406 L 18.902344 12.316406 C 19.289062 12.316406 19.605469 12.007812 19.605469 11.632812 L 19.605469 3.417969 C 19.605469 3.042969 19.289062 2.738281 18.902344 2.738281 Z M 18.203125 10.949219 L 7.003906 10.949219 L 7.003906 4.101562 L 18.203125 4.101562 Z M 18.203125 10.949219 "/>
<path style=" stroke:none;fill-rule:nonzero;fill:rgb(92.941176%,41.176471%,36.078431%);fill-opacity:1;" d="M 27.300781 4.101562 C 26.914062 4.101562 26.605469 4.410156 26.605469 4.78125 L 26.605469 5.464844 L 25.203125 5.464844 L 25.203125 4.78125 C 25.203125 4.40625 24.890625 4.101562 24.507812 4.101562 C 24.117188 4.101562 23.808594 4.410156 23.808594 4.78125 L 23.808594 7.515625 C 23.808594 8.40625 24.398438 9.160156 25.207031 9.445312 L 25.207031 23.921875 C 25.207031 24.300781 24.894531 24.605469 24.511719 24.605469 C 24.121094 24.605469 23.8125 24.296875 23.8125 23.921875 L 23.8125 22.554688 C 23.8125 21.664062 23.222656 20.914062 22.414062 20.628906 L 22.414062 2.730469 C 22.414062 1.222656 21.15625 -0.00390625 19.613281 -0.00390625 L 5.613281 -0.00390625 C 4.066406 -0.00390625 2.8125 1.222656 2.8125 2.730469 L 2.8125 27.339844 C 1.265625 27.339844 0.0117188 28.5625 0.0117188 30.074219 L 0.0117188 32.125 C 0.0117188 32.503906 0.328125 32.808594 0.710938 32.808594 L 24.511719 32.808594 C 24.898438 32.808594 25.207031 32.5 25.207031 32.125 L 25.207031 30.074219 C 25.207031 28.5625 23.953125 27.339844 22.40625 27.339844 L 22.40625 23.921875 C 22.40625 25.054688 23.347656 25.972656 24.507812 25.972656 C 25.664062 25.972656 26.609375 25.050781 26.609375 23.921875 L 26.609375 9.441406 C 27.417969 9.15625 28.007812 8.402344 28.007812 7.511719 L 28.007812 4.777344 C 28.007812 4.402344 27.695312 4.097656 27.308594 4.097656 Z M 4.199219 2.734375 C 4.199219 1.980469 4.828125 1.367188 5.601562 1.367188 L 19.601562 1.367188 C 20.371094 1.367188 21 1.980469 21 2.734375 L 21 27.34375 L 4.199219 27.34375 Z M 23.800781 30.078125 L 23.800781 31.445312 L 1.398438 31.445312 L 1.398438 30.078125 C 1.398438 29.324219 2.03125 28.710938 2.800781 28.710938 L 22.398438 28.710938 C 23.171875 28.710938 23.800781 29.324219 23.800781 30.078125 Z M 26.601562 7.519531 C 26.601562 7.898438 26.285156 8.203125 25.898438 8.203125 C 25.511719 8.203125 25.199219 7.894531 25.199219 7.519531 L 25.199219 6.839844 L 26.601562 6.839844 Z M 26.601562 7.519531 "/>
<path style=" stroke:none;fill-rule:nonzero;fill:rgb(92.941176%,41.176471%,36.078431%);fill-opacity:1;" d="M 16.101562 17.773438 L 14 17.773438 L 14 14.355469 C 14 14.050781 13.789062 13.78125 13.488281 13.699219 C 13.175781 13.617188 12.863281 13.742188 12.699219 14.007812 L 8.5 20.84375 C 8.371094 21.054688 8.367188 21.316406 8.492188 21.53125 C 8.617188 21.746094 8.851562 21.878906 9.101562 21.878906 L 11.203125 21.878906 L 11.203125 25.296875 C 11.203125 25.605469 11.414062 25.875 11.714844 25.957031 C 11.78125 25.972656 11.839844 25.980469 11.902344 25.980469 C 12.144531 25.980469 12.375 25.859375 12.503906 25.648438 L 16.703125 18.8125 C 16.832031 18.601562 16.835938 18.339844 16.710938 18.125 C 16.585938 17.910156 16.351562 17.777344 16.101562 17.777344 Z M 12.601562 22.824219 L 12.601562 21.1875 C 12.601562 20.808594 12.285156 20.507812 11.902344 20.507812 L 10.335938 20.507812 L 12.601562 16.824219 L 12.601562 18.457031 C 12.601562 18.835938 12.914062 19.140625 13.296875 19.140625 L 14.863281 19.140625 Z M 12.601562 22.824219 "/>
</g>
</svg>
