<?xml version="1.0" encoding="UTF-8"?>
<svg xmlns="http://www.w3.org/2000/svg" xmlns:xlink="http://www.w3.org/1999/xlink" width="28px" height="28px" viewBox="0 0 28 28" version="1.1">
<g id="surface1">
<path style=" stroke:none;fill-rule:nonzero;fill:rgb(92.941176%,41.176471%,36.078431%);fill-opacity:1;" d="M 18.160156 2.320312 L 7.46875 2.320312 C 7.140625 2.320312 6.878906 2.582031 6.878906 2.898438 L 6.878906 9.871094 C 6.878906 10.191406 7.140625 10.449219 7.46875 10.449219 L 18.160156 10.449219 C 18.488281 10.449219 18.757812 10.1875 18.757812 9.871094 L 18.757812 2.898438 C 18.757812 2.582031 18.488281 2.324219 18.160156 2.324219 Z M 17.566406 9.289062 L 8.0625 9.289062 L 8.0625 3.480469 L 17.566406 3.480469 Z M 17.566406 9.289062 "/>
<path style=" stroke:none;fill-rule:nonzero;fill:rgb(92.941176%,41.176471%,36.078431%);fill-opacity:1;" d="M 25.285156 3.480469 C 24.957031 3.480469 24.695312 3.742188 24.695312 4.058594 L 24.695312 4.636719 L 23.503906 4.636719 L 23.503906 4.058594 C 23.503906 3.738281 23.242188 3.480469 22.914062 3.480469 C 22.585938 3.480469 22.324219 3.742188 22.324219 4.058594 L 22.324219 6.375 C 22.324219 7.132812 22.824219 7.773438 23.507812 8.015625 L 23.507812 20.296875 C 23.507812 20.617188 23.242188 20.878906 22.917969 20.878906 C 22.585938 20.878906 22.324219 20.617188 22.324219 20.296875 L 22.324219 19.136719 C 22.324219 18.382812 21.824219 17.746094 21.140625 17.503906 L 21.140625 2.316406 C 21.140625 1.039062 20.070312 -0.00390625 18.761719 -0.00390625 L 6.882812 -0.00390625 C 5.570312 -0.00390625 4.507812 1.039062 4.507812 2.316406 L 4.507812 23.199219 C 3.195312 23.199219 2.132812 24.234375 2.132812 25.515625 L 2.132812 27.257812 C 2.132812 27.578125 2.398438 27.835938 2.722656 27.835938 L 22.917969 27.835938 C 23.246094 27.835938 23.507812 27.574219 23.507812 27.257812 L 23.507812 25.515625 C 23.507812 24.234375 22.445312 23.199219 21.132812 23.199219 L 21.132812 20.296875 C 21.132812 21.257812 21.929688 22.039062 22.914062 22.039062 C 23.898438 22.039062 24.699219 21.253906 24.699219 20.296875 L 24.699219 8.011719 C 25.386719 7.769531 25.886719 7.128906 25.886719 6.375 L 25.886719 4.054688 C 25.886719 3.734375 25.621094 3.476562 25.292969 3.476562 Z M 5.683594 2.320312 C 5.683594 1.679688 6.21875 1.160156 6.875 1.160156 L 18.753906 1.160156 C 19.40625 1.160156 19.9375 1.679688 19.9375 2.320312 L 19.9375 23.199219 L 5.683594 23.199219 Z M 22.316406 25.519531 L 22.316406 26.679688 L 3.308594 26.679688 L 3.308594 25.519531 C 3.308594 24.882812 3.84375 24.359375 4.496094 24.359375 L 21.125 24.359375 C 21.78125 24.359375 22.316406 24.882812 22.316406 25.519531 Z M 24.691406 6.378906 C 24.691406 6.703125 24.421875 6.960938 24.09375 6.960938 C 23.765625 6.960938 23.503906 6.699219 23.503906 6.378906 L 23.503906 5.804688 L 24.691406 5.804688 Z M 24.691406 6.378906 "/>
<path style=" stroke:none;fill-rule:nonzero;fill:rgb(92.941176%,41.176471%,36.078431%);fill-opacity:1;" d="M 15.78125 15.082031 L 14 15.082031 L 14 12.179688 C 14 11.921875 13.820312 11.691406 13.566406 11.625 C 13.300781 11.554688 13.035156 11.660156 12.894531 11.886719 L 9.332031 17.6875 C 9.222656 17.863281 9.21875 18.085938 9.328125 18.269531 C 9.433594 18.453125 9.632812 18.5625 9.84375 18.5625 L 11.625 18.5625 L 11.625 21.464844 C 11.625 21.726562 11.804688 21.953125 12.0625 22.023438 C 12.117188 22.039062 12.167969 22.042969 12.21875 22.042969 C 12.425781 22.042969 12.621094 21.941406 12.730469 21.761719 L 16.292969 15.960938 C 16.402344 15.78125 16.40625 15.5625 16.300781 15.378906 C 16.195312 15.195312 15.996094 15.082031 15.78125 15.082031 Z M 12.8125 19.367188 L 12.8125 17.976562 C 12.8125 17.65625 12.546875 17.402344 12.21875 17.402344 L 10.890625 17.402344 L 12.8125 14.273438 L 12.8125 15.660156 C 12.8125 15.980469 13.078125 16.242188 13.402344 16.242188 L 14.734375 16.242188 Z M 12.8125 19.367188 "/>
</g>
</svg>
