<?xml version="1.0" encoding="UTF-8"?>
<svg xmlns="http://www.w3.org/2000/svg" xmlns:xlink="http://www.w3.org/1999/xlink" width="28px" height="28px" viewBox="0 0 28 28" version="1.1">
<g id="surface1">
<path style=" stroke:none;fill-rule:nonzero;fill:rgb(92.941176%,41.176471%,36.078431%);fill-opacity:1;" d="M 2.902344 16.242188 C 2.832031 16.242188 2.765625 16.230469 2.699219 16.207031 C 2.441406 16.109375 2.289062 15.839844 2.332031 15.566406 L 3.378906 9.285156 L 0.582031 9.285156 C 0.367188 9.285156 0.167969 9.164062 0.0664062 8.972656 C -0.0351562 8.78125 -0.015625 8.546875 0.109375 8.367188 L 5.910156 0.25 C 6.070312 0.0273438 6.367188 -0.0507812 6.613281 0.0546875 C 6.863281 0.164062 7.003906 0.433594 6.949219 0.699219 L 5.929688 5.808594 L 8.699219 5.808594 C 8.910156 5.808594 9.105469 5.921875 9.210938 6.109375 C 9.3125 6.292969 9.308594 6.519531 9.191406 6.695312 L 3.394531 15.976562 C 3.285156 16.152344 3.097656 16.25 2.902344 16.25 Z M 1.707031 8.121094 L 4.0625 8.121094 C 4.234375 8.121094 4.394531 8.195312 4.503906 8.328125 C 4.613281 8.457031 4.660156 8.632812 4.632812 8.800781 L 3.953125 12.890625 L 7.65625 6.964844 L 5.222656 6.964844 C 5.050781 6.964844 4.882812 6.886719 4.773438 6.753906 C 4.664062 6.621094 4.621094 6.441406 4.652344 6.273438 L 5.28125 3.121094 L 1.707031 8.125 Z M 1.707031 8.121094 "/>
<path style=" stroke:none;fill-rule:nonzero;fill:rgb(92.941176%,41.176471%,36.078431%);fill-opacity:1;" d="M 25.925781 25.507812 L 24.882812 25.507812 C 24.5625 25.507812 24.304688 25.25 24.304688 24.929688 C 24.304688 24.609375 24.5625 24.351562 24.882812 24.351562 L 25.925781 24.351562 C 26.21875 24.351562 26.460938 24.144531 26.515625 23.851562 C 28.300781 14.222656 15.460938 9.101562 12.859375 8.488281 C 12.53125 8.40625 12.179688 8.324219 11.804688 8.246094 C 11.492188 8.179688 11.292969 7.871094 11.359375 7.558594 C 11.425781 7.246094 11.742188 7.054688 12.046875 7.113281 C 12.4375 7.195312 12.800781 7.277344 13.136719 7.359375 C 16.476562 8.140625 29.597656 13.582031 27.660156 24.058594 C 27.5 24.898438 26.769531 25.507812 25.925781 25.507812 Z M 25.925781 25.507812 "/>
<path style=" stroke:none;fill-rule:nonzero;fill:rgb(92.941176%,41.176471%,36.078431%);fill-opacity:1;" d="M 3.800781 25.515625 C 3.40625 25.515625 2.375 25.417969 1.476562 24.542969 C 0.257812 23.351562 -0.210938 21.230469 0.0820312 18.246094 C 0.113281 17.929688 0.40625 17.710938 0.714844 17.726562 C 1.03125 17.757812 1.265625 18.042969 1.234375 18.359375 C 0.980469 20.9375 1.34375 22.789062 2.289062 23.714844 C 3.023438 24.433594 3.878906 24.351562 3.894531 24.351562 L 4.113281 24.347656 C 4.433594 24.347656 4.691406 24.605469 4.691406 24.925781 C 4.691406 25.246094 4.433594 25.503906 4.113281 25.503906 L 3.960938 25.503906 C 3.964844 25.503906 3.902344 25.511719 3.796875 25.511719 Z M 3.800781 25.515625 "/>
<path style=" stroke:none;fill-rule:nonzero;fill:rgb(92.941176%,41.176471%,36.078431%);fill-opacity:1;" d="M 19.199219 25.507812 L 9.804688 25.507812 C 9.484375 25.507812 9.226562 25.25 9.226562 24.929688 C 9.226562 24.609375 9.484375 24.351562 9.804688 24.351562 L 19.199219 24.351562 C 19.519531 24.351562 19.777344 24.609375 19.777344 24.929688 C 19.777344 25.25 19.519531 25.507812 19.199219 25.507812 Z M 19.199219 25.507812 "/>
<path style=" stroke:none;fill-rule:nonzero;fill:rgb(92.941176%,41.176471%,36.078431%);fill-opacity:1;" d="M 6.960938 27.839844 C 5.039062 27.839844 3.480469 26.277344 3.480469 24.359375 C 3.480469 22.4375 5.039062 20.878906 6.960938 20.878906 C 8.878906 20.878906 10.441406 22.4375 10.441406 24.359375 C 10.441406 26.277344 8.878906 27.839844 6.960938 27.839844 Z M 6.960938 22.039062 C 5.683594 22.039062 4.640625 23.078125 4.640625 24.359375 C 4.640625 25.636719 5.683594 26.675781 6.960938 26.675781 C 8.238281 26.675781 9.28125 25.636719 9.28125 24.359375 C 9.28125 23.078125 8.238281 22.039062 6.960938 22.039062 Z M 6.960938 22.039062 "/>
<path style=" stroke:none;fill-rule:nonzero;fill:rgb(92.941176%,41.176471%,36.078431%);fill-opacity:1;" d="M 22.039062 27.839844 C 20.117188 27.839844 18.558594 26.277344 18.558594 24.359375 C 18.558594 22.4375 20.117188 20.878906 22.039062 20.878906 C 23.960938 20.878906 25.519531 22.4375 25.519531 24.359375 C 25.519531 26.277344 23.960938 27.839844 22.039062 27.839844 Z M 22.039062 22.039062 C 20.761719 22.039062 19.71875 23.078125 19.71875 24.359375 C 19.71875 25.636719 20.761719 26.675781 22.039062 26.675781 C 23.316406 26.675781 24.359375 25.636719 24.359375 24.359375 C 24.359375 23.078125 23.316406 22.039062 22.039062 22.039062 Z M 22.039062 22.039062 "/>
<path style=" stroke:none;fill-rule:nonzero;fill:rgb(92.941176%,41.176471%,36.078431%);fill-opacity:1;" d="M 26.71875 19.367188 C 26.6875 19.367188 26.65625 19.363281 26.625 19.359375 L 16.882812 17.789062 C 16.082031 17.660156 15.375 17.203125 14.925781 16.535156 C 14.480469 15.867188 14.332031 15.03125 14.519531 14.25 L 15.78125 9.003906 C 15.855469 8.695312 16.167969 8.5 16.480469 8.578125 C 16.796875 8.652344 16.988281 8.964844 16.910156 9.277344 L 15.644531 14.523438 C 15.53125 15 15.617188 15.484375 15.886719 15.898438 C 16.15625 16.304688 16.578125 16.574219 17.0625 16.652344 L 26.804688 18.222656 C 27.121094 18.273438 27.335938 18.570312 27.285156 18.886719 C 27.238281 19.171875 26.992188 19.375 26.714844 19.375 Z M 26.71875 19.367188 "/>
</g>
</svg>
