<?xml version="1.0" encoding="UTF-8"?>
<svg xmlns="http://www.w3.org/2000/svg" xmlns:xlink="http://www.w3.org/1999/xlink" width="28px" height="28px" viewBox="0 0 28 28" version="1.1">
<g id="surface1">
<path style=" stroke:none;fill-rule:nonzero;fill:rgb(92.941176%,41.176471%,36.078431%);fill-opacity:1;" d="M 14 3.5 C 13.679688 3.5 13.417969 3.242188 13.417969 2.921875 L 13.417969 0.585938 C 13.417969 0.265625 13.679688 0.00390625 14 0.00390625 C 14.320312 0.00390625 14.582031 0.265625 14.582031 0.585938 L 14.582031 2.921875 C 14.582031 3.242188 14.320312 3.5 14 3.5 Z M 14 3.5 "/>
<path style=" stroke:none;fill-rule:nonzero;fill:rgb(92.941176%,41.176471%,36.078431%);fill-opacity:1;" d="M 21.839844 6.746094 C 21.6875 6.746094 21.539062 6.691406 21.425781 6.578125 C 21.199219 6.351562 21.199219 5.980469 21.425781 5.75 L 23.078125 4.101562 C 23.304688 3.875 23.671875 3.875 23.902344 4.101562 C 24.128906 4.328125 24.128906 4.695312 23.902344 4.929688 L 22.253906 6.578125 C 22.140625 6.691406 21.988281 6.746094 21.84375 6.746094 Z M 21.839844 6.746094 "/>
<path style=" stroke:none;fill-rule:nonzero;fill:rgb(92.941176%,41.176471%,36.078431%);fill-opacity:1;" d="M 27.417969 14.585938 L 25.085938 14.585938 C 24.761719 14.585938 24.503906 14.324219 24.503906 14.003906 C 24.503906 13.683594 24.761719 13.421875 25.085938 13.421875 L 27.417969 13.421875 C 27.738281 13.421875 28 13.683594 28 14.003906 C 28 14.324219 27.738281 14.585938 27.417969 14.585938 Z M 27.417969 14.585938 "/>
<path style=" stroke:none;fill-rule:nonzero;fill:rgb(92.941176%,41.176471%,36.078431%);fill-opacity:1;" d="M 23.488281 24.074219 C 23.335938 24.074219 23.191406 24.015625 23.078125 23.902344 L 21.425781 22.253906 C 21.199219 22.027344 21.199219 21.660156 21.425781 21.425781 C 21.65625 21.199219 22.023438 21.199219 22.253906 21.425781 L 23.902344 23.078125 C 24.128906 23.304688 24.128906 23.671875 23.902344 23.902344 C 23.789062 24.015625 23.640625 24.074219 23.492188 24.074219 Z M 23.488281 24.074219 "/>
<path style=" stroke:none;fill-rule:nonzero;fill:rgb(92.941176%,41.176471%,36.078431%);fill-opacity:1;" d="M 14 28 C 13.679688 28 13.417969 27.738281 13.417969 27.417969 L 13.417969 25.085938 C 13.417969 24.761719 13.679688 24.503906 14 24.503906 C 14.320312 24.503906 14.582031 24.761719 14.582031 25.085938 L 14.582031 27.417969 C 14.582031 27.738281 14.320312 28 14 28 Z M 14 28 "/>
<path style=" stroke:none;fill-rule:nonzero;fill:rgb(92.941176%,41.176471%,36.078431%);fill-opacity:1;" d="M 4.511719 24.074219 C 4.359375 24.074219 4.214844 24.015625 4.101562 23.902344 C 3.875 23.675781 3.875 23.308594 4.101562 23.078125 L 5.75 21.425781 C 5.976562 21.199219 6.34375 21.199219 6.578125 21.425781 C 6.804688 21.65625 6.804688 22.023438 6.578125 22.253906 L 4.929688 23.902344 C 4.816406 24.015625 4.664062 24.074219 4.515625 24.074219 Z M 4.511719 24.074219 "/>
<path style=" stroke:none;fill-rule:nonzero;fill:rgb(92.941176%,41.176471%,36.078431%);fill-opacity:1;" d="M 2.914062 14.585938 L 0.582031 14.585938 C 0.261719 14.585938 0 14.324219 0 14.003906 C 0 13.683594 0.261719 13.421875 0.582031 13.421875 L 2.914062 13.421875 C 3.238281 13.421875 3.496094 13.683594 3.496094 14.003906 C 3.496094 14.324219 3.238281 14.585938 2.914062 14.585938 Z M 2.914062 14.585938 "/>
<path style=" stroke:none;fill-rule:nonzero;fill:rgb(92.941176%,41.176471%,36.078431%);fill-opacity:1;" d="M 6.160156 6.746094 C 6.011719 6.746094 5.863281 6.691406 5.75 6.578125 L 4.101562 4.929688 C 3.875 4.703125 3.875 4.332031 4.101562 4.101562 C 4.328125 3.875 4.695312 3.875 4.929688 4.101562 L 6.578125 5.75 C 6.804688 5.976562 6.804688 6.34375 6.578125 6.578125 C 6.464844 6.691406 6.3125 6.746094 6.167969 6.746094 Z M 6.160156 6.746094 "/>
<path style=" stroke:none;fill-rule:nonzero;fill:rgb(92.941176%,41.176471%,36.078431%);fill-opacity:1;" d="M 12.335938 23.332031 C 12.265625 23.332031 12.199219 23.316406 12.132812 23.292969 C 11.878906 23.199219 11.722656 22.941406 11.761719 22.671875 L 12.757812 15.164062 L 8.753906 15.164062 C 8.535156 15.164062 8.335938 15.039062 8.234375 14.839844 C 8.136719 14.644531 8.15625 14.40625 8.292969 14.230469 L 15.292969 4.898438 C 15.457031 4.683594 15.742188 4.605469 15.988281 4.710938 C 16.234375 4.820312 16.382812 5.078125 16.335938 5.34375 L 15.28125 11.664062 L 19.257812 11.664062 C 19.472656 11.664062 19.671875 11.785156 19.773438 11.972656 C 19.875 12.160156 19.863281 12.390625 19.75 12.574219 L 12.835938 23.070312 C 12.722656 23.238281 12.539062 23.332031 12.351562 23.332031 Z M 9.917969 14 L 13.417969 14 C 13.589844 14 13.746094 14.074219 13.859375 14.199219 C 13.96875 14.320312 14.019531 14.492188 14 14.660156 L 13.253906 20.308594 L 18.171875 12.835938 L 14.585938 12.835938 C 14.414062 12.835938 14.25 12.761719 14.140625 12.628906 C 14.03125 12.496094 13.980469 12.328125 14.015625 12.15625 L 14.789062 7.515625 L 9.921875 14.003906 Z M 9.917969 14 "/>
</g>
</svg>
