<?xml version="1.0" encoding="UTF-8"?>
<svg xmlns="http://www.w3.org/2000/svg" xmlns:xlink="http://www.w3.org/1999/xlink" width="28px" height="28px" viewBox="0 0 28 28" version="1.1">
<g id="surface1">
<path style=" stroke:none;fill-rule:nonzero;fill:rgb(92.941176%,41.176471%,36.078431%);fill-opacity:1;" d="M 2.460938 0 L 25.542969 0 C 26.902344 0 28.007812 1.101562 28.007812 2.460938 L 28.007812 25.542969 C 28.007812 26.902344 26.902344 28.007812 25.542969 28.007812 L 2.460938 28.007812 C 1.101562 28.007812 0 26.902344 0 25.542969 L 0 2.460938 C 0 1.109375 1.101562 0 2.460938 0 Z M 1.644531 25.539062 C 1.644531 25.992188 2.007812 26.355469 2.460938 26.355469 L 25.542969 26.355469 C 25.996094 26.355469 26.363281 25.992188 26.363281 25.539062 L 26.363281 2.457031 C 26.363281 2.003906 25.996094 1.636719 25.542969 1.636719 L 2.460938 1.636719 C 2.007812 1.636719 1.644531 2.003906 1.644531 2.457031 Z M 1.644531 25.539062 "/>
<path style=" stroke:none;fill-rule:nonzero;fill:rgb(92.941176%,41.176471%,36.078431%);fill-opacity:1;" d="M 14 4.425781 C 19.277344 4.425781 23.574219 8.722656 23.574219 14 C 23.574219 19.277344 19.277344 23.574219 14 23.574219 C 8.722656 23.574219 4.425781 19.277344 4.425781 14 C 4.425781 8.722656 8.722656 4.425781 14 4.425781 Z M 14 21.929688 C 18.371094 21.929688 21.929688 18.371094 21.929688 14 C 21.929688 9.628906 18.371094 6.070312 14 6.070312 C 9.628906 6.070312 6.070312 9.628906 6.070312 14 C 6.070312 18.371094 9.628906 21.929688 14 21.929688 Z M 14 21.929688 "/>
<path style=" stroke:none;fill-rule:nonzero;fill:rgb(92.941176%,41.176471%,36.078431%);fill-opacity:1;" d="M 17.773438 11.816406 C 18.980469 11.816406 19.957031 12.796875 19.957031 14 C 19.957031 15.210938 18.976562 16.183594 17.773438 16.183594 C 16.5625 16.183594 15.585938 15.203125 15.585938 14 C 15.585938 12.789062 16.570312 11.816406 17.773438 11.816406 Z M 17.773438 14.546875 C 18.074219 14.546875 18.320312 14.300781 18.320312 14 C 18.320312 13.699219 18.074219 13.453125 17.773438 13.453125 C 17.46875 13.453125 17.222656 13.699219 17.222656 14 C 17.222656 14.300781 17.46875 14.546875 17.773438 14.546875 Z M 17.773438 14.546875 "/>
<path style=" stroke:none;fill-rule:nonzero;fill:rgb(92.941176%,41.176471%,36.078431%);fill-opacity:1;" d="M 10.226562 11.816406 C 11.4375 11.816406 12.414062 12.796875 12.414062 14 C 12.414062 15.210938 11.429688 16.183594 10.226562 16.183594 C 9.019531 16.183594 8.042969 15.203125 8.042969 14 C 8.042969 12.789062 9.023438 11.816406 10.226562 11.816406 Z M 10.226562 14.546875 C 10.53125 14.546875 10.777344 14.300781 10.777344 14 C 10.777344 13.699219 10.53125 13.453125 10.226562 13.453125 C 9.925781 13.453125 9.679688 13.699219 9.679688 14 C 9.679688 14.300781 9.925781 14.546875 10.226562 14.546875 Z M 10.226562 14.546875 "/>
</g>
</svg>
