<?xml version="1.0" encoding="UTF-8"?>
<svg xmlns="http://www.w3.org/2000/svg" xmlns:xlink="http://www.w3.org/1999/xlink" width="28px" height="28px" viewBox="0 0 28 28" version="1.1">
<g id="surface1">
<path style=" stroke:none;fill-rule:nonzero;fill:rgb(92.941176%,41.176471%,36.078431%);fill-opacity:1;" d="M 1.492188 24.789062 L 16.152344 24.789062 C 18.125 27.867188 22.21875 28.761719 25.292969 26.789062 C 28.371094 24.816406 29.265625 20.722656 27.292969 17.648438 C 26.671875 16.675781 25.808594 15.886719 24.785156 15.355469 L 24.785156 1.496094 C 24.785156 0.671875 24.117188 0 23.289062 0 L 1.488281 0 C 0.664062 0 -0.00390625 0.671875 -0.00390625 1.496094 L -0.00390625 23.296875 C -0.00390625 24.121094 0.664062 24.789062 1.488281 24.789062 Z M 16.019531 21.21875 C 15.996094 18.09375 18.515625 15.542969 21.640625 15.519531 C 21.921875 15.519531 22.199219 15.535156 22.472656 15.574219 L 17.542969 21.691406 C 17.382812 21.886719 17.414062 22.179688 17.613281 22.335938 C 17.695312 22.402344 17.796875 22.441406 17.902344 22.441406 L 20.085938 22.4375 L 19.695312 26.542969 C 17.484375 25.703125 16.019531 23.585938 16.015625 21.21875 Z M 15.113281 20.953125 L 4.417969 20.953125 C 4.101562 20.953125 3.84375 20.691406 3.84375 20.378906 L 3.84375 4.417969 C 3.84375 4.101562 4.101562 3.84375 4.417969 3.84375 L 20.378906 3.84375 C 20.695312 3.84375 20.953125 4.101562 20.953125 4.417969 L 20.953125 14.648438 C 20.4375 14.707031 19.925781 14.832031 19.4375 15.015625 C 20.890625 11.121094 18.90625 6.789062 15.015625 5.339844 C 11.121094 3.886719 6.792969 5.871094 5.339844 9.757812 C 3.890625 13.65625 5.871094 17.984375 9.761719 19.4375 C 11.589844 20.117188 13.605469 20.0625 15.394531 19.285156 C 15.230469 19.824219 15.132812 20.386719 15.113281 20.953125 Z M 15.988281 17.921875 C 15.300781 18.371094 14.535156 18.683594 13.730469 18.847656 L 13.730469 17.332031 C 13.671875 16.652344 13.074219 16.144531 12.390625 16.199219 C 11.710938 16.144531 11.117188 16.65625 11.058594 17.332031 L 11.058594 18.851562 C 7.492188 18.109375 5.203125 14.621094 5.945312 11.054688 C 6.480469 8.484375 8.488281 6.476562 11.058594 5.941406 L 11.058594 7.460938 C 11.117188 8.140625 11.714844 8.648438 12.390625 8.597656 C 13.074219 8.648438 13.671875 8.144531 13.730469 7.460938 L 13.730469 5.941406 C 17.292969 6.679688 19.585938 10.164062 18.847656 13.730469 C 18.703125 14.414062 18.453125 15.074219 18.109375 15.679688 C 17.238281 16.25 16.511719 17.019531 15.988281 17.921875 Z M 12.808594 18.972656 C 12.667969 18.984375 12.53125 18.988281 12.390625 18.988281 C 12.253906 18.988281 12.117188 18.972656 11.976562 18.964844 L 11.976562 17.328125 C 11.976562 17.253906 12.132812 17.117188 12.390625 17.117188 C 12.648438 17.117188 12.808594 17.253906 12.808594 17.328125 Z M 11.980469 5.824219 C 12.121094 5.816406 12.253906 5.804688 12.398438 5.804688 C 12.535156 5.804688 12.671875 5.816406 12.8125 5.824219 L 12.8125 7.460938 C 12.8125 7.535156 12.65625 7.675781 12.398438 7.675781 C 12.136719 7.675781 11.980469 7.535156 11.980469 7.460938 Z M 20.9375 21.664062 C 20.851562 21.570312 20.726562 21.511719 20.597656 21.511719 L 18.875 21.515625 L 22.59375 16.902344 L 22.320312 20.234375 C 22.296875 20.488281 22.488281 20.710938 22.742188 20.730469 C 22.753906 20.730469 22.769531 20.730469 22.777344 20.730469 L 24.574219 20.734375 L 20.722656 25.511719 L 21.054688 22.019531 C 21.066406 21.886719 21.023438 21.757812 20.9375 21.664062 Z M 27.417969 21.21875 C 27.441406 24.34375 24.921875 26.898438 21.796875 26.917969 C 21.472656 26.921875 21.148438 26.898438 20.828125 26.839844 L 25.890625 20.566406 C 26.050781 20.367188 26.019531 20.078125 25.820312 19.917969 C 25.738281 19.855469 25.640625 19.816406 25.53125 19.816406 L 23.273438 19.808594 L 23.601562 15.84375 C 25.882812 16.648438 27.410156 18.796875 27.414062 21.214844 Z M 0.917969 1.496094 C 0.917969 1.179688 1.175781 0.921875 1.492188 0.921875 L 23.292969 0.921875 C 23.609375 0.921875 23.867188 1.175781 23.867188 1.496094 L 23.867188 14.960938 C 23.226562 14.742188 22.550781 14.621094 21.875 14.605469 L 21.875 4.414062 C 21.875 3.589844 21.203125 2.921875 20.375 2.914062 L 4.417969 2.914062 C 3.59375 2.914062 2.921875 3.585938 2.917969 4.414062 L 2.917969 20.371094 C 2.917969 21.199219 3.589844 21.867188 4.417969 21.871094 L 15.132812 21.871094 C 15.203125 22.5625 15.378906 23.234375 15.65625 23.867188 L 1.492188 23.867188 C 1.179688 23.867188 0.917969 23.613281 0.917969 23.292969 L 0.917969 1.492188 Z M 0.917969 1.496094 "/>
<path style=" stroke:none;fill-rule:nonzero;fill:rgb(92.941176%,41.176471%,36.078431%);fill-opacity:1;" d="M 8.820312 11.058594 C 8.082031 11.058594 7.484375 11.660156 7.484375 12.398438 C 7.484375 13.136719 8.082031 13.738281 8.820312 13.738281 C 9.558594 13.738281 10.160156 13.136719 10.160156 12.398438 C 10.160156 11.660156 9.558594 11.0625 8.820312 11.058594 Z M 8.820312 12.816406 C 8.59375 12.816406 8.40625 12.632812 8.40625 12.402344 C 8.40625 12.171875 8.59375 11.988281 8.820312 11.988281 C 9.050781 11.988281 9.234375 12.171875 9.234375 12.402344 C 9.234375 12.632812 9.050781 12.816406 8.820312 12.820312 Z M 8.820312 12.816406 "/>
<path style=" stroke:none;fill-rule:nonzero;fill:rgb(92.941176%,41.176471%,36.078431%);fill-opacity:1;" d="M 15.96875 11.058594 C 15.230469 11.058594 14.628906 11.660156 14.628906 12.398438 C 14.628906 13.136719 15.230469 13.738281 15.96875 13.738281 C 16.707031 13.738281 17.304688 13.136719 17.304688 12.398438 C 17.304688 11.660156 16.707031 11.0625 15.96875 11.058594 Z M 15.96875 12.816406 C 15.738281 12.816406 15.554688 12.632812 15.554688 12.402344 C 15.554688 12.171875 15.738281 11.988281 15.96875 11.988281 C 16.195312 11.988281 16.382812 12.171875 16.382812 12.402344 C 16.382812 12.632812 16.195312 12.816406 15.96875 12.820312 Z M 15.96875 12.816406 "/>
</g>
</svg>
