<?xml version="1.0" encoding="UTF-8"?>
<svg xmlns="http://www.w3.org/2000/svg" xmlns:xlink="http://www.w3.org/1999/xlink" width="28px" height="28px" viewBox="0 0 28 28" version="1.1">
<g id="surface1">
<path style=" stroke:none;fill-rule:nonzero;fill:rgb(92.941176%,41.176471%,36.078431%);fill-opacity:1;" d="M 26.269531 5.503906 C 25.921875 5.160156 25.351562 5.160156 25 5.503906 L 20.242188 10.136719 L 16.113281 6.121094 L 20.871094 1.488281 C 21.226562 1.148438 21.226562 0.597656 20.871094 0.253906 C 20.523438 -0.0898438 19.957031 -0.0898438 19.601562 0.253906 L 14.84375 4.882812 L 12.78125 2.878906 C 12.445312 2.550781 11.851562 2.550781 11.511719 2.878906 L 8.222656 6.078125 C 7.945312 6.347656 7.6875 6.636719 7.457031 6.941406 L 8.609375 8.390625 C 8.855469 8.007812 9.152344 7.648438 9.496094 7.3125 L 12.144531 4.734375 L 21.664062 13.996094 L 19.011719 16.582031 C 18.261719 17.3125 17.351562 17.835938 16.363281 18.121094 L 17.523438 19.582031 C 18.542969 19.191406 19.488281 18.597656 20.285156 17.816406 L 23.570312 14.617188 C 23.925781 14.273438 23.925781 13.726562 23.570312 13.382812 L 21.511719 11.375 L 26.269531 6.746094 C 26.625 6.402344 26.625 5.851562 26.269531 5.507812 Z M 7.136719 7.386719 C 6.300781 8.644531 5.851562 10.117188 5.851562 11.648438 L 5.851562 15.386719 L 2.523438 18.628906 C 2.167969 18.972656 2.167969 19.523438 2.523438 19.863281 L 3.683594 20.996094 L 2.371094 22.28125 C 1.71875 22.914062 1.359375 23.753906 1.359375 24.648438 C 1.359375 26.492188 2.902344 27.996094 4.804688 27.996094 L 13.050781 27.996094 C 13.542969 27.996094 13.949219 27.601562 13.949219 27.121094 C 13.949219 26.632812 13.542969 26.246094 13.050781 26.246094 L 4.804688 26.246094 C 3.332031 26.246094 2.621094 24.515625 3.640625 23.515625 L 4.960938 22.234375 L 6.121094 23.363281 C 6.472656 23.707031 7.046875 23.707031 7.394531 23.363281 L 10.726562 20.121094 L 14.570312 20.121094 C 15.40625 20.121094 16.226562 20 17.003906 19.765625 L 15.804688 18.257812 C 15.402344 18.332031 14.988281 18.375 14.570312 18.375 L 10.726562 18.375 L 7.65625 15.386719 L 7.65625 11.648438 C 7.65625 10.664062 7.890625 9.726562 8.332031 8.878906 L 7.140625 7.382812 Z M 6.753906 21.511719 L 4.429688 19.25 L 6.753906 16.984375 L 9.078125 19.25 Z M 6.753906 21.511719 "/>
</g>
</svg>
