<?xml version="1.0" encoding="UTF-8"?>
<svg xmlns="http://www.w3.org/2000/svg" xmlns:xlink="http://www.w3.org/1999/xlink" width="28px" height="28px" viewBox="0 0 28 31" version="1.1">
<g id="surface1">
<path style=" stroke:none;fill-rule:nonzero;fill:rgb(92.941176%,41.176471%,36.078431%);fill-opacity:1;" d="M 27.585938 6.09375 C 27.199219 5.714844 26.566406 5.714844 26.179688 6.09375 L 20.910156 11.222656 L 16.339844 6.777344 L 21.609375 1.648438 C 22 1.269531 22 0.660156 21.609375 0.28125 C 21.222656 -0.0976562 20.59375 -0.0976562 20.203125 0.28125 L 14.933594 5.40625 L 12.652344 3.1875 C 12.277344 2.824219 11.621094 2.824219 11.246094 3.1875 L 7.605469 6.730469 C 7.296875 7.027344 7.011719 7.347656 6.753906 7.683594 L 8.03125 9.289062 C 8.304688 8.867188 8.632812 8.46875 9.011719 8.097656 L 11.945312 5.242188 L 22.484375 15.496094 L 19.550781 18.359375 C 18.71875 19.167969 17.710938 19.746094 16.617188 20.0625 L 17.902344 21.679688 C 19.03125 21.246094 20.074219 20.589844 20.957031 19.726562 L 24.597656 16.183594 C 24.988281 15.804688 24.988281 15.195312 24.597656 14.816406 L 22.316406 12.59375 L 27.585938 7.46875 C 27.976562 7.089844 27.976562 6.476562 27.585938 6.097656 Z M 6.402344 8.179688 C 5.476562 9.570312 4.980469 11.199219 4.980469 12.894531 L 4.980469 17.035156 L 1.292969 20.625 C 0.902344 21.003906 0.902344 21.613281 1.292969 21.992188 L 2.578125 23.246094 L 1.125 24.667969 C 0.402344 25.367188 0.00390625 26.296875 0.00390625 27.289062 C 0.00390625 29.332031 1.714844 30.996094 3.820312 30.996094 L 12.949219 30.996094 C 13.496094 30.996094 13.945312 30.558594 13.945312 30.027344 C 13.945312 29.488281 13.496094 29.058594 12.949219 29.058594 L 3.820312 29.058594 C 2.1875 29.058594 1.402344 27.140625 2.53125 26.035156 L 3.992188 24.617188 L 5.277344 25.867188 C 5.667969 26.246094 6.300781 26.246094 6.6875 25.867188 L 10.375 22.277344 L 14.632812 22.277344 C 15.558594 22.277344 16.464844 22.144531 17.324219 21.882812 L 15.996094 20.214844 C 15.550781 20.296875 15.09375 20.34375 14.632812 20.34375 L 10.375 20.34375 L 6.976562 17.035156 L 6.976562 12.894531 C 6.976562 11.808594 7.234375 10.769531 7.722656 9.828125 L 6.40625 8.175781 Z M 5.976562 23.816406 L 3.402344 21.3125 L 5.976562 18.804688 L 8.550781 21.3125 Z M 5.976562 23.816406 "/>
</g>
</svg>
