<?xml version="1.0" encoding="UTF-8"?>
<svg xmlns="http://www.w3.org/2000/svg" xmlns:xlink="http://www.w3.org/1999/xlink" width="28px" height="28px" viewBox="0 0 28 28" version="1.1">
<g id="surface1">
<path style=" stroke:none;fill-rule:nonzero;fill:rgb(92.941176%,41.176471%,36.078431%);fill-opacity:1;" d="M 25.457031 0 L 16.820312 0 C 15.585938 0 14.589844 0.976562 14.589844 2.179688 L 14.589844 10.015625 C 14.589844 11.214844 15.585938 12.195312 16.820312 12.195312 L 25.457031 12.195312 C 26.6875 12.195312 27.6875 11.214844 27.6875 10.015625 L 27.6875 2.179688 C 27.6875 0.976562 26.6875 0.00390625 25.457031 0.00390625 Z M 26.578125 10.015625 C 26.578125 10.617188 26.078125 11.109375 25.457031 11.109375 L 16.820312 11.109375 C 16.203125 11.109375 15.699219 10.621094 15.699219 10.015625 L 15.699219 2.179688 C 15.699219 1.578125 16.203125 1.085938 16.820312 1.085938 L 25.457031 1.085938 C 26.074219 1.085938 26.578125 1.578125 26.578125 2.179688 Z M 26.578125 10.015625 Z M 26.578125 10.015625 "/>
<path style=" stroke:none;fill-rule:nonzero;fill:rgb(92.941176%,41.176471%,36.078431%);fill-opacity:1;" d="M 21.136719 2.25 C 18.964844 2.25 17.199219 3.976562 17.199219 6.097656 C 17.199219 8.21875 18.964844 9.941406 21.136719 9.941406 C 23.308594 9.941406 25.078125 8.21875 25.078125 6.097656 C 25.078125 3.976562 23.308594 2.25 21.136719 2.25 Z M 21.136719 8.855469 C 19.578125 8.855469 18.3125 7.617188 18.3125 6.09375 C 18.3125 4.574219 19.582031 3.335938 21.136719 3.335938 C 22.695312 3.335938 23.960938 4.578125 23.960938 6.09375 C 23.960938 7.617188 22.695312 8.855469 21.136719 8.855469 Z M 21.136719 8.855469 Z M 21.136719 8.855469 "/>
<path style=" stroke:none;fill-rule:nonzero;fill:rgb(92.941176%,41.176471%,36.078431%);fill-opacity:1;" d="M 19.84375 4.996094 C 19.53125 4.996094 19.289062 5.238281 19.289062 5.539062 L 19.289062 6.660156 C 19.289062 6.957031 19.535156 7.203125 19.84375 7.203125 C 20.152344 7.203125 20.398438 6.957031 20.398438 6.660156 L 20.398438 5.539062 C 20.398438 5.238281 20.152344 4.996094 19.84375 4.996094 Z M 19.84375 4.996094 Z M 19.84375 4.996094 "/>
<path style=" stroke:none;fill-rule:nonzero;fill:rgb(92.941176%,41.176471%,36.078431%);fill-opacity:1;" d="M 22.429688 4.996094 C 22.125 4.996094 21.875 5.238281 21.875 5.539062 L 21.875 6.660156 C 21.875 6.957031 22.125 7.203125 22.429688 7.203125 C 22.738281 7.203125 22.988281 6.957031 22.988281 6.660156 L 22.988281 5.539062 C 22.988281 5.238281 22.738281 4.996094 22.429688 4.996094 Z M 22.429688 4.996094 Z M 22.429688 4.996094 "/>
<path style=" stroke:none;fill-rule:nonzero;fill:rgb(92.941176%,41.176471%,36.078431%);fill-opacity:1;" d="M 23.609375 26.75 L 16.839844 26.75 C 15.953125 26.75 15.238281 26.050781 15.238281 25.1875 L 15.238281 20.78125 C 15.238281 19.5 14.164062 18.449219 12.851562 18.449219 C 11.539062 18.449219 10.46875 19.5 10.46875 20.78125 L 10.46875 25.171875 C 10.46875 26.042969 9.742188 26.75 8.851562 26.75 C 7.957031 26.75 7.234375 26.042969 7.234375 25.171875 L 7.234375 20.636719 C 7.929688 20.605469 8.480469 20.046875 8.480469 19.359375 L 8.480469 18.78125 L 8.507812 18.78125 C 10.203125 18.78125 11.582031 17.4375 11.582031 15.777344 L 11.582031 12.417969 L 12.265625 12.417969 C 12.597656 12.417969 12.867188 12.15625 12.867188 11.832031 L 12.867188 10.796875 C 12.867188 9.964844 12.175781 9.285156 11.320312 9.285156 L 10.253906 9.285156 L 10.253906 5.273438 C 10.253906 4.492188 9.609375 3.863281 8.808594 3.863281 C 8.015625 3.863281 7.367188 4.492188 7.367188 5.273438 L 7.367188 9.285156 L 5.984375 9.285156 L 5.984375 5.273438 C 5.984375 4.492188 5.335938 3.863281 4.539062 3.863281 C 3.742188 3.863281 3.09375 4.492188 3.09375 5.273438 L 3.09375 9.285156 L 2.027344 9.285156 C 1.175781 9.285156 0.484375 9.964844 0.484375 10.796875 L 0.484375 11.832031 C 0.484375 12.15625 0.753906 12.417969 1.085938 12.417969 L 1.769531 12.417969 L 1.769531 15.777344 C 1.769531 17.433594 3.148438 18.78125 4.84375 18.78125 L 4.867188 18.78125 L 4.867188 19.359375 C 4.867188 20.046875 5.421875 20.605469 6.117188 20.636719 L 6.117188 25.171875 C 6.117188 26.640625 7.34375 27.835938 8.847656 27.835938 C 10.351562 27.835938 11.582031 26.640625 11.582031 25.171875 L 11.582031 20.78125 C 11.582031 20.09375 12.152344 19.539062 12.851562 19.539062 C 13.550781 19.539062 14.121094 20.097656 14.121094 20.78125 L 14.121094 25.1875 C 14.121094 26.648438 15.34375 27.835938 16.839844 27.835938 L 23.605469 27.835938 C 23.914062 27.835938 24.164062 27.597656 24.164062 27.296875 C 24.164062 26.996094 23.910156 26.753906 23.605469 26.753906 Z M 8.480469 5.269531 C 8.480469 5.089844 8.628906 4.949219 8.808594 4.949219 C 8.996094 4.949219 9.140625 5.089844 9.140625 5.269531 L 9.140625 9.285156 L 8.476562 9.285156 L 8.476562 5.269531 Z M 4.207031 5.269531 C 4.207031 5.089844 4.355469 4.949219 4.539062 4.949219 C 4.722656 4.949219 4.867188 5.089844 4.867188 5.269531 L 4.867188 9.285156 L 4.207031 9.285156 Z M 2.882812 15.777344 L 2.882812 12.414062 L 5.863281 12.414062 C 6.171875 12.414062 6.417969 12.175781 6.417969 11.871094 C 6.417969 11.574219 6.171875 11.328125 5.863281 11.328125 L 1.59375 11.328125 L 1.59375 10.796875 C 1.59375 10.5625 1.792969 10.375 2.027344 10.375 L 11.320312 10.375 C 11.558594 10.375 11.753906 10.5625 11.753906 10.796875 L 11.753906 11.328125 L 10.320312 11.328125 C 10.007812 11.328125 9.765625 11.574219 9.765625 11.871094 C 9.765625 12.175781 10.011719 12.414062 10.320312 12.414062 L 10.46875 12.414062 L 10.46875 15.777344 C 10.46875 16.832031 9.585938 17.691406 8.507812 17.691406 L 4.84375 17.691406 C 3.765625 17.691406 2.882812 16.832031 2.882812 15.777344 Z M 5.984375 19.355469 L 5.984375 18.777344 L 7.367188 18.777344 L 7.367188 19.355469 C 7.367188 19.464844 7.273438 19.550781 7.167969 19.550781 L 6.179688 19.550781 C 6.070312 19.550781 5.984375 19.460938 5.984375 19.355469 Z M 5.984375 19.355469 Z M 5.984375 19.355469 "/>
<path style=" stroke:none;fill-rule:nonzero;fill:rgb(92.941176%,41.176471%,36.078431%);fill-opacity:1;" d="M 8.089844 12.414062 L 8.09375 12.414062 C 8.402344 12.414062 8.648438 12.175781 8.648438 11.871094 C 8.648438 11.574219 8.398438 11.328125 8.089844 11.328125 C 7.785156 11.328125 7.535156 11.574219 7.535156 11.871094 C 7.535156 12.175781 7.785156 12.414062 8.089844 12.414062 Z M 8.089844 12.414062 Z M 8.089844 12.414062 "/>
</g>
</svg>
