<?xml version="1.0" encoding="UTF-8"?>
<svg xmlns="http://www.w3.org/2000/svg" xmlns:xlink="http://www.w3.org/1999/xlink" width="28px" height="28px" viewBox="0 0 28 29" version="1.1">
<g id="surface1">
<path style=" stroke:none;fill-rule:nonzero;fill:rgb(92.941176%,41.176471%,36.078431%);fill-opacity:1;" d="M 25.867188 0 L 16.921875 0 C 15.644531 0 14.609375 1.011719 14.609375 2.257812 L 14.609375 10.375 C 14.609375 11.617188 15.644531 12.632812 16.921875 12.632812 L 25.867188 12.632812 C 27.140625 12.632812 28.175781 11.617188 28.175781 10.375 L 28.175781 2.257812 C 28.175781 1.011719 27.140625 0.00390625 25.867188 0.00390625 Z M 27.027344 10.375 C 27.027344 10.996094 26.507812 11.507812 25.867188 11.507812 L 16.921875 11.507812 C 16.28125 11.507812 15.761719 11 15.761719 10.375 L 15.761719 2.257812 C 15.761719 1.632812 16.28125 1.125 16.921875 1.125 L 25.867188 1.125 C 26.503906 1.125 27.027344 1.632812 27.027344 2.257812 Z M 27.027344 10.375 Z M 27.027344 10.375 "/>
<path style=" stroke:none;fill-rule:nonzero;fill:rgb(92.941176%,41.176471%,36.078431%);fill-opacity:1;" d="M 21.390625 2.332031 C 19.140625 2.332031 17.3125 4.117188 17.3125 6.316406 C 17.3125 8.511719 19.140625 10.296875 21.390625 10.296875 C 23.640625 10.296875 25.472656 8.511719 25.472656 6.316406 C 25.472656 4.117188 23.640625 2.332031 21.390625 2.332031 Z M 21.390625 9.171875 C 19.777344 9.171875 18.464844 7.890625 18.464844 6.3125 C 18.464844 4.738281 19.78125 3.457031 21.390625 3.457031 C 23.003906 3.457031 24.316406 4.742188 24.316406 6.3125 C 24.316406 7.890625 23.003906 9.171875 21.390625 9.171875 Z M 21.390625 9.171875 Z M 21.390625 9.171875 "/>
<path style=" stroke:none;fill-rule:nonzero;fill:rgb(92.941176%,41.176471%,36.078431%);fill-opacity:1;" d="M 20.050781 5.175781 C 19.730469 5.175781 19.476562 5.425781 19.476562 5.738281 L 19.476562 6.898438 C 19.476562 7.207031 19.734375 7.460938 20.050781 7.460938 C 20.371094 7.460938 20.628906 7.207031 20.628906 6.898438 L 20.628906 5.738281 C 20.628906 5.425781 20.371094 5.175781 20.050781 5.175781 Z M 20.050781 5.175781 Z M 20.050781 5.175781 "/>
<path style=" stroke:none;fill-rule:nonzero;fill:rgb(92.941176%,41.176471%,36.078431%);fill-opacity:1;" d="M 22.730469 5.175781 C 22.414062 5.175781 22.15625 5.425781 22.15625 5.738281 L 22.15625 6.898438 C 22.15625 7.207031 22.414062 7.460938 22.730469 7.460938 C 23.050781 7.460938 23.308594 7.207031 23.308594 6.898438 L 23.308594 5.738281 C 23.308594 5.425781 23.050781 5.175781 22.730469 5.175781 Z M 22.730469 5.175781 Z M 22.730469 5.175781 "/>
<path style=" stroke:none;fill-rule:nonzero;fill:rgb(92.941176%,41.176471%,36.078431%);fill-opacity:1;" d="M 23.953125 27.707031 L 16.941406 27.707031 C 16.023438 27.707031 15.28125 26.980469 15.28125 26.085938 L 15.28125 21.523438 C 15.28125 20.195312 14.171875 19.109375 12.8125 19.109375 C 11.453125 19.109375 10.34375 20.195312 10.34375 21.523438 L 10.34375 26.070312 C 10.34375 26.972656 9.589844 27.707031 8.667969 27.707031 C 7.742188 27.707031 6.992188 26.972656 6.992188 26.070312 L 6.992188 21.375 C 7.710938 21.339844 8.285156 20.761719 8.285156 20.050781 L 8.285156 19.453125 L 8.3125 19.453125 C 10.066406 19.453125 11.496094 18.058594 11.496094 16.339844 L 11.496094 12.863281 L 12.203125 12.863281 C 12.546875 12.863281 12.828125 12.589844 12.828125 12.253906 L 12.828125 11.183594 C 12.828125 10.320312 12.109375 9.617188 11.226562 9.617188 L 10.121094 9.617188 L 10.121094 5.460938 C 10.121094 4.652344 9.453125 4 8.625 4 C 7.800781 4 7.128906 4.652344 7.128906 5.460938 L 7.128906 9.617188 L 5.699219 9.617188 L 5.699219 5.460938 C 5.699219 4.652344 5.027344 4 4.203125 4 C 3.375 4 2.703125 4.652344 2.703125 5.460938 L 2.703125 9.617188 L 1.601562 9.617188 C 0.71875 9.617188 0 10.320312 0 11.183594 L 0 12.253906 C 0 12.589844 0.28125 12.863281 0.625 12.863281 L 1.332031 12.863281 L 1.332031 16.339844 C 1.332031 18.054688 2.761719 19.453125 4.515625 19.453125 L 4.542969 19.453125 L 4.542969 20.050781 C 4.542969 20.761719 5.117188 21.339844 5.835938 21.375 L 5.835938 26.070312 C 5.835938 27.59375 7.105469 28.832031 8.664062 28.832031 C 10.222656 28.832031 11.496094 27.59375 11.496094 26.070312 L 11.496094 21.523438 C 11.496094 20.8125 12.085938 20.238281 12.808594 20.238281 C 13.535156 20.238281 14.125 20.816406 14.125 21.523438 L 14.125 26.085938 C 14.125 27.601562 15.390625 28.832031 16.941406 28.832031 L 23.949219 28.832031 C 24.269531 28.832031 24.527344 28.582031 24.527344 28.273438 C 24.527344 27.960938 24.265625 27.710938 23.949219 27.710938 Z M 8.285156 5.457031 C 8.285156 5.273438 8.4375 5.125 8.625 5.125 C 8.816406 5.125 8.96875 5.273438 8.96875 5.457031 L 8.96875 9.617188 L 8.28125 9.617188 L 8.28125 5.457031 Z M 3.855469 5.457031 C 3.855469 5.273438 4.011719 5.125 4.199219 5.125 C 4.390625 5.125 4.542969 5.273438 4.542969 5.457031 L 4.542969 9.617188 L 3.855469 9.617188 Z M 2.484375 16.339844 L 2.484375 12.859375 L 5.574219 12.859375 C 5.890625 12.859375 6.148438 12.609375 6.148438 12.296875 C 6.148438 11.988281 5.890625 11.734375 5.574219 11.734375 L 1.152344 11.734375 L 1.152344 11.183594 C 1.152344 10.941406 1.355469 10.746094 1.601562 10.746094 L 11.226562 10.746094 C 11.472656 10.746094 11.671875 10.941406 11.671875 11.183594 L 11.671875 11.734375 L 10.1875 11.734375 C 9.867188 11.734375 9.613281 11.988281 9.613281 12.296875 C 9.613281 12.609375 9.871094 12.859375 10.1875 12.859375 L 10.34375 12.859375 L 10.34375 16.339844 C 10.34375 17.433594 9.429688 18.324219 8.3125 18.324219 L 4.515625 18.324219 C 3.398438 18.324219 2.484375 17.433594 2.484375 16.339844 Z M 5.699219 20.046875 L 5.699219 19.449219 L 7.128906 19.449219 L 7.128906 20.046875 C 7.128906 20.160156 7.035156 20.25 6.925781 20.25 L 5.902344 20.25 C 5.789062 20.25 5.699219 20.15625 5.699219 20.046875 Z M 5.699219 20.046875 Z M 5.699219 20.046875 "/>
<path style=" stroke:none;fill-rule:nonzero;fill:rgb(92.941176%,41.176471%,36.078431%);fill-opacity:1;" d="M 7.878906 12.859375 L 7.882812 12.859375 C 8.203125 12.859375 8.457031 12.609375 8.457031 12.296875 C 8.457031 11.988281 8.199219 11.734375 7.878906 11.734375 C 7.5625 11.734375 7.304688 11.988281 7.304688 12.296875 C 7.304688 12.609375 7.5625 12.859375 7.878906 12.859375 Z M 7.878906 12.859375 Z M 7.878906 12.859375 "/>
</g>
</svg>
