<?xml version="1.0" encoding="UTF-8"?>
<svg xmlns="http://www.w3.org/2000/svg" xmlns:xlink="http://www.w3.org/1999/xlink" width="28px" height="28px" viewBox="0 0 28 22" version="1.1">
<g id="surface1">
<path style=" stroke:none;fill-rule:nonzero;fill:rgb(92.941176%,41.176471%,36.078431%);fill-opacity:1;" d="M 13.90625 10.753906 C 13.160156 10.753906 12.554688 10.15625 12.554688 9.414062 C 12.554688 8.679688 13.15625 8.078125 13.90625 8.078125 C 14.648438 8.078125 15.257812 8.675781 15.257812 9.414062 C 15.257812 10.152344 14.65625 10.753906 13.90625 10.753906 Z M 13.90625 6.476562 C 12.265625 6.476562 10.929688 7.796875 10.929688 9.417969 C 10.929688 10.761719 11.84375 11.898438 13.09375 12.246094 L 13.09375 21.394531 C 13.09375 21.835938 13.460938 22.195312 13.90625 22.195312 C 14.351562 22.195312 14.71875 21.835938 14.71875 21.394531 L 14.71875 12.246094 C 15.96875 11.898438 16.882812 10.761719 16.882812 9.417969 C 16.882812 7.796875 15.546875 6.476562 13.910156 6.476562 Z M 13.90625 6.476562 "/>
<path style=" stroke:none;fill-rule:nonzero;fill:rgb(92.941176%,41.176471%,36.078431%);fill-opacity:1;" d="M 13.90625 10.753906 C 13.160156 10.753906 12.554688 10.15625 12.554688 9.414062 C 12.554688 8.679688 13.15625 8.078125 13.90625 8.078125 C 14.648438 8.078125 15.257812 8.675781 15.257812 9.414062 C 15.257812 10.152344 14.65625 10.753906 13.90625 10.753906 Z M 13.90625 6.476562 C 12.265625 6.476562 10.929688 7.796875 10.929688 9.417969 C 10.929688 10.761719 11.84375 11.898438 13.09375 12.246094 L 13.09375 21.394531 C 13.09375 21.835938 13.460938 22.195312 13.90625 22.195312 C 14.351562 22.195312 14.71875 21.835938 14.71875 21.394531 L 14.71875 12.246094 C 15.96875 11.898438 16.882812 10.761719 16.882812 9.417969 C 16.882812 7.796875 15.546875 6.476562 13.910156 6.476562 Z M 13.90625 6.476562 "/>
<path style=" stroke:none;fill-rule:nonzero;fill:rgb(99.607843%,99.607843%,99.607843%);fill-opacity:1;" d="M 12.496094 9.417969 L 12.605469 9.417969 L 12.605469 9.488281 L 12.613281 9.554688 L 12.621094 9.617188 L 12.632812 9.679688 L 12.664062 9.804688 L 12.6875 9.859375 L 12.710938 9.917969 L 12.738281 9.976562 L 12.765625 10.03125 L 12.796875 10.082031 L 12.828125 10.136719 L 12.863281 10.1875 L 12.90625 10.234375 L 12.945312 10.28125 L 12.992188 10.324219 L 13.035156 10.367188 L 13.082031 10.410156 L 13.128906 10.449219 L 13.179688 10.484375 L 13.289062 10.546875 L 13.34375 10.574219 L 13.402344 10.601562 L 13.460938 10.625 L 13.519531 10.644531 L 13.582031 10.664062 L 13.644531 10.675781 L 13.707031 10.691406 L 13.769531 10.699219 L 13.839844 10.703125 L 13.90625 10.703125 L 13.90625 10.816406 L 13.832031 10.816406 L 13.761719 10.808594 L 13.6875 10.800781 L 13.621094 10.789062 L 13.488281 10.757812 L 13.417969 10.734375 L 13.292969 10.679688 L 13.234375 10.648438 L 13.117188 10.578125 L 13.007812 10.5 L 12.957031 10.453125 L 12.910156 10.410156 L 12.863281 10.359375 L 12.820312 10.3125 L 12.777344 10.257812 L 12.738281 10.203125 L 12.703125 10.144531 L 12.664062 10.089844 L 12.632812 10.03125 L 12.578125 9.90625 L 12.558594 9.84375 L 12.519531 9.710938 L 12.507812 9.640625 L 12.5 9.570312 L 12.496094 9.5 Z M 13.902344 8.027344 L 13.902344 8.140625 L 13.832031 8.140625 L 13.765625 8.144531 L 13.703125 8.152344 L 13.640625 8.167969 L 13.578125 8.179688 L 13.511719 8.199219 L 13.453125 8.21875 L 13.394531 8.242188 L 13.335938 8.269531 L 13.285156 8.296875 L 13.175781 8.359375 L 13.074219 8.429688 L 13.03125 8.46875 L 12.941406 8.558594 L 12.898438 8.605469 L 12.859375 8.652344 L 12.824219 8.703125 L 12.792969 8.753906 L 12.761719 8.808594 L 12.734375 8.863281 L 12.707031 8.921875 L 12.683594 8.976562 L 12.660156 9.035156 L 12.628906 9.160156 L 12.605469 9.285156 L 12.601562 9.351562 L 12.601562 9.417969 L 12.488281 9.417969 L 12.488281 9.347656 L 12.503906 9.207031 L 12.515625 9.136719 L 12.574219 8.9375 L 12.628906 8.8125 L 12.660156 8.753906 L 12.695312 8.699219 L 12.734375 8.640625 L 12.773438 8.585938 L 12.816406 8.53125 L 12.859375 8.484375 L 12.90625 8.433594 L 12.953125 8.390625 L 13.003906 8.34375 L 13.113281 8.265625 L 13.230469 8.195312 L 13.289062 8.164062 L 13.414062 8.109375 L 13.480469 8.085938 L 13.550781 8.070312 L 13.617188 8.054688 L 13.683594 8.042969 L 13.757812 8.03125 L 13.828125 8.027344 Z M 15.308594 9.417969 L 15.195312 9.417969 L 15.195312 9.351562 L 15.191406 9.285156 L 15.183594 9.222656 L 15.167969 9.160156 L 15.15625 9.097656 L 15.136719 9.035156 L 15.113281 8.976562 L 15.09375 8.921875 L 15.066406 8.863281 L 15.039062 8.808594 L 15.007812 8.753906 L 14.976562 8.703125 L 14.9375 8.652344 L 14.859375 8.558594 L 14.8125 8.515625 L 14.765625 8.46875 L 14.722656 8.429688 L 14.621094 8.359375 L 14.570312 8.328125 L 14.515625 8.296875 L 14.460938 8.269531 L 14.402344 8.242188 L 14.34375 8.21875 L 14.285156 8.199219 L 14.222656 8.179688 L 14.160156 8.167969 L 14.09375 8.152344 L 14.03125 8.144531 L 13.964844 8.140625 L 13.898438 8.140625 L 13.898438 8.027344 L 13.96875 8.027344 L 14.042969 8.03125 L 14.113281 8.042969 L 14.179688 8.054688 L 14.25 8.070312 L 14.316406 8.085938 L 14.382812 8.109375 L 14.445312 8.136719 L 14.511719 8.164062 L 14.570312 8.195312 L 14.6875 8.265625 L 14.738281 8.304688 L 14.792969 8.34375 L 14.84375 8.390625 L 14.894531 8.433594 L 14.9375 8.484375 L 14.984375 8.53125 L 15.023438 8.585938 L 15.066406 8.640625 L 15.101562 8.699219 L 15.136719 8.753906 L 15.167969 8.8125 L 15.222656 8.9375 L 15.246094 9.003906 L 15.261719 9.070312 L 15.28125 9.136719 L 15.304688 9.277344 L 15.308594 9.347656 Z M 13.902344 10.808594 L 13.902344 10.699219 L 13.96875 10.699219 L 14.035156 10.695312 L 14.101562 10.683594 L 14.226562 10.660156 L 14.289062 10.640625 L 14.347656 10.617188 L 14.40625 10.597656 L 14.464844 10.570312 L 14.519531 10.542969 L 14.628906 10.480469 L 14.675781 10.445312 L 14.726562 10.40625 L 14.773438 10.363281 L 14.816406 10.320312 L 14.863281 10.277344 L 14.941406 10.183594 L 14.980469 10.132812 L 15.011719 10.078125 L 15.042969 10.027344 L 15.070312 9.972656 L 15.097656 9.914062 L 15.117188 9.855469 L 15.140625 9.796875 L 15.160156 9.734375 L 15.171875 9.671875 L 15.1875 9.609375 L 15.195312 9.546875 L 15.199219 9.480469 L 15.199219 9.414062 L 15.3125 9.414062 L 15.3125 9.488281 L 15.308594 9.558594 L 15.300781 9.628906 L 15.269531 9.761719 L 15.25 9.828125 L 15.226562 9.890625 L 15.171875 10.015625 L 15.140625 10.074219 L 15.070312 10.191406 L 15.027344 10.246094 L 14.988281 10.296875 L 14.941406 10.347656 L 14.898438 10.394531 L 14.847656 10.441406 L 14.800781 10.484375 L 14.746094 10.523438 L 14.691406 10.566406 L 14.574219 10.636719 L 14.515625 10.667969 L 14.453125 10.695312 L 14.386719 10.722656 L 14.253906 10.761719 L 14.183594 10.773438 L 14.117188 10.789062 L 14.046875 10.796875 L 13.972656 10.800781 L 13.902344 10.800781 Z M 10.984375 9.417969 L 10.871094 9.417969 L 10.875 9.261719 L 10.890625 9.113281 L 10.90625 8.960938 L 10.933594 8.8125 L 10.96875 8.671875 L 11.011719 8.527344 L 11.058594 8.390625 L 11.113281 8.25 L 11.175781 8.117188 L 11.246094 7.988281 L 11.316406 7.863281 L 11.398438 7.742188 L 11.484375 7.628906 L 11.574219 7.515625 L 11.667969 7.410156 L 11.769531 7.304688 L 11.871094 7.207031 L 11.980469 7.113281 L 12.09375 7.027344 L 12.210938 6.941406 L 12.332031 6.859375 L 12.457031 6.789062 L 12.589844 6.722656 L 12.722656 6.660156 L 12.863281 6.605469 L 13.003906 6.558594 L 13.148438 6.515625 L 13.292969 6.480469 L 13.441406 6.453125 L 13.746094 6.421875 L 13.90625 6.417969 L 13.90625 6.53125 L 13.757812 6.535156 L 13.609375 6.542969 L 13.464844 6.5625 L 13.320312 6.589844 L 13.179688 6.621094 L 13.039062 6.660156 L 12.90625 6.703125 L 12.773438 6.757812 L 12.644531 6.816406 L 12.515625 6.878906 L 12.394531 6.949219 L 12.277344 7.027344 L 12.164062 7.105469 L 12.058594 7.191406 L 11.949219 7.28125 L 11.84375 7.375 L 11.75 7.476562 L 11.660156 7.582031 L 11.574219 7.691406 L 11.492188 7.800781 L 11.417969 7.917969 L 11.34375 8.039062 L 11.28125 8.164062 L 11.222656 8.292969 L 11.167969 8.421875 L 11.125 8.554688 L 11.082031 8.691406 L 11.050781 8.832031 L 11.023438 8.972656 L 11.007812 9.117188 L 10.996094 9.261719 L 10.992188 9.410156 Z M 13.148438 12.246094 L 13.035156 12.246094 L 13.074219 12.300781 L 12.839844 12.222656 L 12.730469 12.179688 L 12.617188 12.128906 L 12.507812 12.078125 L 12.398438 12.019531 L 12.296875 11.957031 L 12.195312 11.890625 L 12.097656 11.816406 L 12.003906 11.746094 L 11.914062 11.671875 L 11.824219 11.589844 L 11.65625 11.421875 L 11.578125 11.332031 L 11.503906 11.238281 L 11.429688 11.140625 L 11.363281 11.042969 L 11.300781 10.941406 L 11.242188 10.835938 L 11.1875 10.730469 L 11.136719 10.617188 L 11.089844 10.507812 L 11.050781 10.394531 L 11.015625 10.28125 L 10.984375 10.160156 L 10.957031 10.039062 L 10.933594 9.917969 L 10.914062 9.792969 L 10.902344 9.667969 L 10.894531 9.542969 L 10.890625 9.414062 L 11 9.414062 L 11.007812 9.539062 L 11.015625 9.660156 L 11.027344 9.78125 L 11.046875 9.902344 L 11.070312 10.015625 L 11.097656 10.132812 L 11.128906 10.246094 L 11.164062 10.355469 L 11.203125 10.46875 L 11.25 10.574219 L 11.351562 10.785156 L 11.410156 10.886719 L 11.476562 10.984375 L 11.539062 11.078125 L 11.605469 11.171875 L 11.679688 11.261719 L 11.753906 11.34375 L 11.835938 11.429688 L 11.917969 11.511719 L 12.003906 11.585938 L 12.183594 11.734375 L 12.277344 11.800781 L 12.378906 11.863281 L 12.476562 11.921875 L 12.578125 11.972656 L 12.683594 12.027344 L 12.792969 12.078125 L 12.898438 12.121094 L 13.011719 12.160156 L 13.125 12.195312 L 13.167969 12.25 Z M 13.109375 12.191406 L 13.148438 12.207031 L 13.148438 12.246094 Z M 13.035156 21.394531 L 13.035156 12.246094 L 13.148438 12.246094 L 13.148438 21.394531 Z M 13.90625 22.140625 L 13.90625 22.253906 L 13.859375 22.253906 L 13.816406 22.25 L 13.769531 22.246094 L 13.726562 22.234375 L 13.683594 22.226562 L 13.644531 22.214844 L 13.605469 22.199219 L 13.5625 22.1875 L 13.523438 22.167969 L 13.488281 22.152344 L 13.449219 22.128906 L 13.414062 22.105469 L 13.378906 22.085938 L 13.285156 22.003906 L 13.203125 21.910156 L 13.132812 21.804688 L 13.117188 21.769531 L 13.097656 21.730469 L 13.085938 21.691406 L 13.070312 21.652344 L 13.058594 21.613281 L 13.050781 21.570312 L 13.039062 21.53125 L 13.035156 21.488281 L 13.03125 21.441406 L 13.03125 21.398438 L 13.144531 21.398438 L 13.144531 21.4375 L 13.152344 21.507812 L 13.15625 21.546875 L 13.167969 21.582031 L 13.175781 21.617188 L 13.1875 21.652344 L 13.203125 21.6875 L 13.214844 21.71875 L 13.253906 21.78125 L 13.269531 21.8125 L 13.292969 21.84375 L 13.316406 21.871094 L 13.335938 21.898438 L 13.363281 21.925781 L 13.445312 21.996094 L 13.539062 22.054688 L 13.570312 22.070312 L 13.605469 22.085938 L 13.710938 22.121094 L 13.746094 22.128906 L 13.785156 22.132812 L 13.820312 22.136719 L 13.859375 22.140625 Z M 14.660156 21.394531 L 14.773438 21.394531 L 14.773438 21.4375 L 14.765625 21.484375 L 14.761719 21.527344 L 14.746094 21.605469 L 14.730469 21.648438 L 14.71875 21.6875 L 14.703125 21.726562 L 14.6875 21.769531 L 14.667969 21.804688 L 14.621094 21.875 L 14.601562 21.910156 L 14.519531 22.003906 L 14.425781 22.085938 L 14.386719 22.105469 L 14.316406 22.152344 L 14.28125 22.167969 L 14.238281 22.1875 L 14.199219 22.199219 L 14.160156 22.214844 L 14.117188 22.226562 L 14.078125 22.234375 L 14.03125 22.246094 L 13.988281 22.25 L 13.941406 22.253906 L 13.898438 22.253906 L 13.898438 22.140625 L 13.9375 22.140625 L 14.015625 22.132812 L 14.050781 22.128906 L 14.085938 22.121094 L 14.121094 22.109375 L 14.160156 22.097656 L 14.195312 22.085938 L 14.257812 22.054688 L 14.351562 21.996094 L 14.433594 21.925781 L 14.460938 21.898438 L 14.484375 21.871094 L 14.503906 21.84375 L 14.527344 21.8125 L 14.546875 21.78125 L 14.5625 21.75 L 14.582031 21.71875 L 14.597656 21.6875 L 14.632812 21.582031 L 14.640625 21.546875 L 14.644531 21.507812 L 14.648438 21.472656 L 14.65625 21.4375 L 14.65625 21.398438 Z M 14.773438 12.246094 L 14.773438 21.394531 L 14.660156 21.394531 L 14.660156 12.246094 L 14.699219 12.191406 Z M 14.660156 12.246094 L 14.660156 12.207031 L 14.699219 12.191406 Z M 16.824219 9.417969 L 16.9375 9.417969 L 16.933594 9.546875 L 16.910156 9.796875 L 16.890625 9.921875 L 16.867188 10.042969 L 16.839844 10.164062 L 16.808594 10.285156 L 16.773438 10.398438 L 16.734375 10.511719 L 16.6875 10.625 L 16.640625 10.734375 L 16.585938 10.839844 L 16.527344 10.945312 L 16.464844 11.046875 L 16.324219 11.242188 L 16.246094 11.335938 L 16.164062 11.425781 L 16.085938 11.511719 L 16 11.59375 L 15.910156 11.675781 L 15.722656 11.824219 L 15.625 11.894531 L 15.523438 11.960938 L 15.421875 12.023438 L 15.3125 12.082031 L 15.09375 12.183594 L 14.980469 12.226562 L 14.863281 12.269531 L 14.746094 12.304688 L 14.714844 12.195312 L 14.824219 12.160156 L 14.9375 12.121094 L 15.046875 12.078125 L 15.15625 12.027344 L 15.257812 11.972656 L 15.363281 11.921875 L 15.460938 11.863281 L 15.5625 11.800781 L 15.65625 11.734375 L 15.835938 11.585938 L 15.921875 11.511719 L 16.003906 11.429688 L 16.085938 11.34375 L 16.160156 11.261719 L 16.234375 11.171875 L 16.300781 11.078125 L 16.363281 10.984375 L 16.425781 10.886719 L 16.484375 10.785156 L 16.539062 10.679688 L 16.589844 10.574219 L 16.632812 10.46875 L 16.675781 10.355469 L 16.710938 10.246094 L 16.742188 10.132812 L 16.769531 10.015625 L 16.792969 9.902344 L 16.824219 9.660156 L 16.832031 9.539062 L 16.835938 9.414062 Z M 13.90625 6.535156 L 13.90625 6.421875 L 14.0625 6.429688 L 14.21875 6.441406 L 14.371094 6.460938 L 14.519531 6.484375 L 14.667969 6.523438 L 14.8125 6.5625 L 14.953125 6.609375 L 15.09375 6.664062 L 15.226562 6.726562 L 15.359375 6.792969 L 15.484375 6.863281 L 15.605469 6.945312 L 15.722656 7.03125 L 15.835938 7.121094 L 15.945312 7.210938 L 16.148438 7.414062 L 16.242188 7.519531 L 16.332031 7.632812 L 16.417969 7.746094 L 16.5 7.867188 L 16.570312 7.992188 L 16.640625 8.121094 L 16.703125 8.257812 L 16.757812 8.394531 L 16.804688 8.53125 L 16.847656 8.675781 L 16.882812 8.816406 L 16.910156 8.964844 L 16.941406 9.269531 L 16.945312 9.425781 L 16.832031 9.425781 L 16.828125 9.277344 L 16.820312 9.128906 L 16.800781 8.988281 L 16.773438 8.84375 L 16.742188 8.707031 L 16.703125 8.566406 L 16.65625 8.433594 L 16.601562 8.304688 L 16.542969 8.175781 L 16.480469 8.050781 L 16.410156 7.929688 L 16.332031 7.816406 L 16.25 7.703125 L 16.164062 7.597656 L 16.074219 7.488281 L 15.980469 7.386719 L 15.875 7.292969 L 15.769531 7.203125 L 15.660156 7.121094 L 15.546875 7.039062 L 15.429688 6.964844 L 15.308594 6.890625 L 15.183594 6.828125 L 15.050781 6.773438 L 14.921875 6.71875 L 14.785156 6.671875 L 14.644531 6.632812 L 14.503906 6.601562 L 14.363281 6.574219 L 14.21875 6.558594 L 14.066406 6.546875 L 13.917969 6.542969 Z M 13.90625 6.535156 "/>
<path style=" stroke:none;fill-rule:nonzero;fill:rgb(92.941176%,41.176471%,36.078431%);fill-opacity:1;" d="M 10.148438 5.132812 C 9.832031 4.820312 9.320312 4.820312 9.003906 5.132812 C 6.488281 7.617188 6.488281 11.640625 9.003906 14.128906 C 9.320312 14.4375 9.832031 14.4375 10.148438 14.128906 C 10.464844 13.816406 10.464844 13.308594 10.148438 12.996094 C 8.269531 11.136719 8.269531 8.121094 10.148438 6.261719 C 10.464844 5.953125 10.464844 5.441406 10.148438 5.132812 Z M 10.148438 5.132812 "/>
<path style=" stroke:none;fill-rule:nonzero;fill:rgb(92.941176%,41.176471%,36.078431%);fill-opacity:1;" d="M 10.148438 5.132812 C 9.832031 4.820312 9.320312 4.820312 9.003906 5.132812 C 6.488281 7.617188 6.488281 11.640625 9.003906 14.128906 C 9.320312 14.4375 9.832031 14.4375 10.148438 14.128906 C 10.464844 13.816406 10.464844 13.308594 10.148438 12.996094 C 8.269531 11.136719 8.269531 8.121094 10.148438 6.261719 C 10.464844 5.953125 10.464844 5.441406 10.148438 5.132812 Z M 10.148438 5.132812 "/>
<path style=" stroke:none;fill-rule:nonzero;fill:rgb(99.607843%,99.607843%,99.607843%);fill-opacity:1;" d="M 9.042969 5.171875 L 8.964844 5.089844 L 8.996094 5.058594 L 9.027344 5.03125 L 9.0625 5.007812 L 9.097656 4.980469 L 9.132812 4.957031 L 9.171875 4.933594 L 9.207031 4.917969 L 9.246094 4.898438 L 9.289062 4.886719 L 9.328125 4.871094 L 9.367188 4.863281 L 9.410156 4.855469 L 9.449219 4.847656 L 9.492188 4.839844 L 9.53125 4.835938 L 9.613281 4.835938 L 9.652344 4.839844 L 9.695312 4.847656 L 9.773438 4.863281 L 9.816406 4.871094 L 9.855469 4.886719 L 9.898438 4.898438 L 9.9375 4.917969 L 9.972656 4.933594 L 10.007812 4.957031 L 10.046875 4.980469 L 10.082031 5.007812 L 10.117188 5.03125 L 10.148438 5.058594 L 10.179688 5.089844 L 10.097656 5.171875 L 10.074219 5.144531 L 10.046875 5.117188 L 10.015625 5.09375 L 9.980469 5.074219 L 9.949219 5.054688 L 9.917969 5.039062 L 9.886719 5.019531 L 9.851562 5.007812 L 9.816406 4.992188 L 9.78125 4.980469 L 9.742188 4.96875 L 9.707031 4.960938 L 9.636719 4.953125 L 9.597656 4.949219 L 9.527344 4.949219 L 9.492188 4.953125 L 9.453125 4.957031 L 9.417969 4.960938 L 9.382812 4.96875 L 9.347656 4.980469 L 9.308594 4.992188 L 9.273438 5.007812 L 9.238281 5.019531 L 9.207031 5.039062 L 9.175781 5.054688 L 9.113281 5.09375 L 9.082031 5.117188 L 9.027344 5.171875 Z M 9.042969 5.171875 Z M 9.042969 14.089844 L 8.964844 14.171875 L 8.734375 13.929688 L 8.515625 13.679688 L 8.3125 13.425781 L 8.128906 13.164062 L 7.957031 12.890625 L 7.800781 12.617188 L 7.660156 12.335938 L 7.535156 12.050781 L 7.421875 11.753906 L 7.324219 11.460938 L 7.246094 11.164062 L 7.175781 10.859375 L 7.125 10.554688 L 7.085938 10.25 L 7.066406 9.941406 L 7.054688 9.632812 L 7.066406 9.324219 L 7.085938 9.019531 L 7.125 8.710938 L 7.175781 8.40625 L 7.246094 8.105469 L 7.324219 7.804688 L 7.421875 7.511719 L 7.535156 7.222656 L 7.660156 6.9375 L 7.800781 6.65625 L 7.957031 6.378906 L 8.128906 6.105469 L 8.3125 5.84375 L 8.515625 5.589844 L 8.734375 5.339844 L 8.964844 5.101562 L 9.042969 5.179688 L 8.820312 5.417969 L 8.605469 5.660156 L 8.410156 5.910156 L 8.222656 6.167969 L 8.054688 6.4375 L 7.902344 6.710938 L 7.761719 6.984375 L 7.636719 7.265625 L 7.527344 7.550781 L 7.433594 7.839844 L 7.351562 8.136719 L 7.285156 8.433594 L 7.234375 8.734375 L 7.199219 9.03125 L 7.175781 9.335938 L 7.167969 9.636719 L 7.175781 9.941406 L 7.199219 10.246094 L 7.234375 10.542969 L 7.285156 10.839844 L 7.351562 11.140625 L 7.433594 11.433594 L 7.527344 11.722656 L 7.636719 12.007812 L 7.761719 12.289062 L 7.902344 12.566406 L 8.054688 12.839844 L 8.222656 13.105469 L 8.410156 13.363281 L 8.605469 13.613281 L 8.820312 13.859375 L 9.042969 14.097656 Z M 10.113281 14.089844 L 10.195312 14.171875 L 10.164062 14.203125 L 10.132812 14.230469 L 10.09375 14.257812 L 10.058594 14.277344 L 9.988281 14.324219 L 9.949219 14.339844 L 9.910156 14.359375 L 9.871094 14.371094 L 9.828125 14.386719 L 9.789062 14.394531 L 9.746094 14.402344 L 9.707031 14.414062 L 9.667969 14.417969 L 9.625 14.421875 L 9.542969 14.421875 L 9.464844 14.414062 L 9.421875 14.402344 L 9.34375 14.386719 L 9.300781 14.371094 L 9.261719 14.359375 L 9.21875 14.339844 L 9.183594 14.324219 L 9.113281 14.277344 L 9.074219 14.257812 L 9.039062 14.230469 L 9.007812 14.203125 L 8.976562 14.171875 L 9.058594 14.089844 L 9.113281 14.144531 L 9.144531 14.167969 L 9.238281 14.226562 L 9.269531 14.242188 L 9.304688 14.257812 L 9.34375 14.269531 L 9.378906 14.277344 L 9.414062 14.289062 L 9.449219 14.296875 L 9.484375 14.300781 L 9.523438 14.304688 L 9.558594 14.308594 L 9.628906 14.308594 L 9.667969 14.304688 L 9.738281 14.296875 L 9.773438 14.289062 L 9.8125 14.277344 L 9.847656 14.269531 L 9.882812 14.257812 L 9.917969 14.242188 L 9.949219 14.226562 L 9.980469 14.207031 L 10.015625 14.1875 L 10.046875 14.167969 L 10.078125 14.144531 L 10.132812 14.089844 Z M 10.195312 14.171875 Z M 10.113281 13.039062 L 10.195312 12.960938 L 10.253906 13.019531 L 10.28125 13.058594 L 10.300781 13.09375 L 10.347656 13.164062 L 10.367188 13.199219 L 10.382812 13.238281 L 10.398438 13.28125 L 10.410156 13.320312 L 10.417969 13.359375 L 10.429688 13.402344 L 10.4375 13.441406 L 10.445312 13.519531 L 10.445312 13.601562 L 10.4375 13.679688 L 10.429688 13.722656 L 10.417969 13.761719 L 10.410156 13.800781 L 10.398438 13.839844 L 10.382812 13.882812 L 10.367188 13.921875 L 10.347656 13.957031 L 10.300781 14.027344 L 10.277344 14.066406 L 10.25 14.101562 L 10.222656 14.132812 L 10.191406 14.164062 L 10.109375 14.082031 L 10.136719 14.054688 L 10.164062 14.023438 L 10.183594 13.992188 L 10.207031 13.960938 L 10.226562 13.929688 L 10.242188 13.898438 L 10.261719 13.867188 L 10.277344 13.832031 L 10.3125 13.726562 L 10.320312 13.691406 L 10.324219 13.65625 L 10.328125 13.617188 L 10.335938 13.582031 L 10.335938 13.511719 L 10.328125 13.476562 L 10.320312 13.40625 L 10.3125 13.371094 L 10.300781 13.332031 L 10.277344 13.261719 L 10.261719 13.226562 L 10.242188 13.195312 L 10.226562 13.164062 L 10.207031 13.132812 L 10.183594 13.101562 L 10.164062 13.070312 L 10.109375 13.015625 Z M 10.113281 13.039062 Z M 10.113281 6.230469 L 10.195312 6.3125 L 10.027344 6.484375 L 9.871094 6.667969 L 9.722656 6.855469 L 9.585938 7.046875 L 9.460938 7.242188 L 9.347656 7.445312 L 9.242188 7.648438 L 9.148438 7.859375 L 9.066406 8.074219 L 8.996094 8.292969 L 8.9375 8.511719 L 8.886719 8.734375 L 8.851562 8.957031 L 8.824219 9.179688 L 8.804688 9.40625 L 8.800781 9.632812 L 8.804688 9.859375 L 8.824219 10.089844 L 8.851562 10.3125 L 8.886719 10.535156 L 8.9375 10.757812 L 8.996094 10.976562 L 9.066406 11.195312 L 9.148438 11.40625 L 9.242188 11.617188 L 9.347656 11.824219 L 9.460938 12.023438 L 9.585938 12.21875 L 9.722656 12.410156 L 9.871094 12.597656 L 10.027344 12.78125 L 10.195312 12.953125 L 10.113281 13.035156 L 9.941406 12.855469 L 9.78125 12.667969 L 9.628906 12.476562 L 9.492188 12.28125 L 9.363281 12.078125 L 9.246094 11.871094 L 9.140625 11.660156 L 9.042969 11.449219 L 8.957031 11.230469 L 8.886719 11.007812 L 8.824219 10.785156 L 8.773438 10.554688 L 8.734375 10.328125 L 8.707031 10.097656 L 8.6875 9.867188 L 8.683594 9.632812 L 8.6875 9.402344 L 8.707031 9.167969 L 8.734375 8.9375 L 8.773438 8.710938 L 8.824219 8.484375 L 8.886719 8.261719 L 8.957031 8.039062 L 9.042969 7.820312 L 9.140625 7.605469 L 9.246094 7.394531 L 9.363281 7.191406 L 9.492188 6.984375 L 9.628906 6.789062 L 9.78125 6.597656 L 9.941406 6.410156 Z M 10.113281 6.230469 Z M 10.113281 5.179688 L 10.195312 5.101562 L 10.226562 5.132812 L 10.253906 5.164062 L 10.28125 5.199219 L 10.300781 5.234375 L 10.347656 5.304688 L 10.367188 5.339844 L 10.382812 5.378906 L 10.398438 5.421875 L 10.410156 5.460938 L 10.417969 5.5 L 10.429688 5.542969 L 10.4375 5.582031 L 10.445312 5.660156 L 10.445312 5.742188 L 10.4375 5.820312 L 10.429688 5.863281 L 10.417969 5.902344 L 10.410156 5.941406 L 10.398438 5.984375 L 10.367188 6.0625 L 10.347656 6.097656 L 10.300781 6.167969 L 10.28125 6.207031 L 10.253906 6.242188 L 10.226562 6.273438 L 10.195312 6.304688 L 10.113281 6.222656 L 10.167969 6.167969 L 10.191406 6.136719 L 10.25 6.042969 L 10.265625 6.015625 L 10.28125 5.984375 L 10.292969 5.945312 L 10.308594 5.910156 L 10.324219 5.839844 L 10.328125 5.804688 L 10.335938 5.769531 L 10.339844 5.734375 L 10.339844 5.660156 L 10.335938 5.625 L 10.328125 5.589844 L 10.324219 5.554688 L 10.308594 5.484375 L 10.292969 5.449219 L 10.28125 5.410156 L 10.25 5.347656 L 10.191406 5.253906 L 10.167969 5.226562 L 10.113281 5.171875 Z M 10.113281 5.179688 Z M 10.152344 5.140625 L 10.113281 5.179688 Z M 10.113281 5.179688 Z M 10.113281 5.179688 "/>
<path style=" stroke:none;fill-rule:nonzero;fill:rgb(92.941176%,41.176471%,36.078431%);fill-opacity:1;" d="M 18.808594 5.132812 C 18.492188 4.820312 17.976562 4.820312 17.664062 5.132812 C 17.347656 5.441406 17.347656 5.953125 17.664062 6.261719 C 19.539062 8.117188 19.539062 11.136719 17.664062 12.996094 C 17.347656 13.308594 17.347656 13.816406 17.664062 14.128906 C 17.976562 14.4375 18.492188 14.4375 18.808594 14.128906 C 21.316406 11.644531 21.316406 7.609375 18.808594 5.132812 Z M 18.808594 5.132812 "/>
<path style=" stroke:none;fill-rule:nonzero;fill:rgb(92.941176%,41.176471%,36.078431%);fill-opacity:1;" d="M 18.808594 5.132812 C 18.492188 4.820312 17.976562 4.820312 17.664062 5.132812 C 17.347656 5.441406 17.347656 5.953125 17.664062 6.261719 C 19.539062 8.117188 19.539062 11.136719 17.664062 12.996094 C 17.347656 13.308594 17.347656 13.816406 17.664062 14.128906 C 17.976562 14.4375 18.492188 14.4375 18.808594 14.128906 C 21.316406 11.644531 21.316406 7.609375 18.808594 5.132812 Z M 18.808594 5.132812 "/>
<path style=" stroke:none;fill-rule:nonzero;fill:rgb(99.607843%,99.607843%,99.607843%);fill-opacity:1;" d="M 17.699219 5.171875 L 17.617188 5.089844 L 17.648438 5.058594 L 17.679688 5.03125 L 17.714844 5.007812 L 17.753906 4.980469 L 17.824219 4.933594 L 17.859375 4.917969 L 17.902344 4.898438 L 17.941406 4.886719 L 17.984375 4.871094 L 18.0625 4.855469 L 18.105469 4.847656 L 18.144531 4.839844 L 18.1875 4.835938 L 18.265625 4.835938 L 18.308594 4.839844 L 18.386719 4.855469 L 18.429688 4.863281 L 18.46875 4.871094 L 18.511719 4.886719 L 18.550781 4.898438 L 18.589844 4.917969 L 18.628906 4.933594 L 18.699219 4.980469 L 18.734375 5.007812 L 18.773438 5.03125 L 18.808594 5.058594 L 18.839844 5.089844 L 18.757812 5.171875 L 18.703125 5.117188 L 18.671875 5.09375 L 18.609375 5.054688 L 18.578125 5.039062 L 18.546875 5.019531 L 18.511719 5.007812 L 18.472656 4.992188 L 18.402344 4.976562 L 18.367188 4.964844 L 18.328125 4.960938 L 18.257812 4.953125 L 18.1875 4.953125 L 18.148438 4.957031 L 18.078125 4.964844 L 18.042969 4.976562 L 18.003906 4.984375 L 17.96875 4.992188 L 17.933594 5.007812 L 17.898438 5.019531 L 17.867188 5.039062 L 17.832031 5.054688 L 17.769531 5.09375 L 17.738281 5.117188 L 17.683594 5.171875 Z M 17.699219 6.222656 L 17.617188 6.304688 L 17.585938 6.273438 L 17.558594 6.242188 L 17.53125 6.207031 L 17.503906 6.167969 L 17.480469 6.132812 L 17.441406 6.0625 L 17.421875 6.023438 L 17.410156 5.984375 L 17.398438 5.941406 L 17.386719 5.902344 L 17.378906 5.863281 L 17.371094 5.820312 L 17.363281 5.78125 L 17.359375 5.742188 L 17.359375 5.660156 L 17.363281 5.621094 L 17.378906 5.542969 L 17.386719 5.5 L 17.410156 5.421875 L 17.421875 5.378906 L 17.441406 5.339844 L 17.480469 5.269531 L 17.503906 5.234375 L 17.558594 5.164062 L 17.585938 5.132812 L 17.617188 5.101562 L 17.699219 5.179688 L 17.644531 5.234375 L 17.597656 5.296875 L 17.582031 5.328125 L 17.5625 5.359375 L 17.53125 5.421875 L 17.507812 5.492188 L 17.492188 5.5625 L 17.488281 5.597656 L 17.480469 5.632812 L 17.476562 5.671875 L 17.476562 5.742188 L 17.480469 5.777344 L 17.488281 5.8125 L 17.492188 5.847656 L 17.5 5.882812 L 17.507812 5.921875 L 17.53125 5.992188 L 17.5625 6.054688 L 17.582031 6.085938 L 17.597656 6.117188 L 17.644531 6.179688 L 17.671875 6.207031 L 17.699219 6.230469 Z M 17.699219 6.222656 Z M 17.699219 13.03125 L 17.617188 12.949219 L 17.785156 12.777344 L 17.941406 12.59375 L 18.089844 12.40625 L 18.226562 12.214844 L 18.351562 12.019531 L 18.464844 11.816406 L 18.570312 11.613281 L 18.660156 11.402344 L 18.742188 11.1875 L 18.8125 10.972656 L 18.871094 10.753906 L 18.921875 10.53125 L 18.957031 10.304688 L 18.984375 10.082031 L 19.003906 9.855469 L 19.007812 9.628906 L 19.003906 9.402344 L 18.984375 9.175781 L 18.957031 8.953125 L 18.921875 8.730469 L 18.871094 8.503906 L 18.8125 8.289062 L 18.742188 8.070312 L 18.660156 7.855469 L 18.570312 7.644531 L 18.464844 7.441406 L 18.351562 7.238281 L 18.226562 7.042969 L 18.089844 6.851562 L 17.941406 6.664062 L 17.785156 6.480469 L 17.617188 6.308594 L 17.699219 6.226562 L 17.871094 6.40625 L 18.03125 6.59375 L 18.179688 6.785156 L 18.320312 6.980469 L 18.449219 7.183594 L 18.566406 7.390625 L 18.667969 7.601562 L 18.761719 7.816406 L 18.847656 8.03125 L 18.921875 8.257812 L 18.984375 8.480469 L 19.035156 8.707031 L 19.074219 8.933594 L 19.101562 9.164062 L 19.121094 9.398438 L 19.125 9.628906 L 19.121094 9.859375 L 19.101562 10.09375 L 19.074219 10.324219 L 19.035156 10.550781 L 18.984375 10.777344 L 18.921875 11.003906 L 18.847656 11.226562 L 18.761719 11.445312 L 18.667969 11.65625 L 18.566406 11.867188 L 18.449219 12.078125 L 18.320312 12.277344 L 18.179688 12.472656 L 18.03125 12.664062 L 17.871094 12.851562 Z M 17.699219 14.085938 L 17.617188 14.167969 L 17.585938 14.136719 L 17.53125 14.066406 L 17.503906 14.027344 L 17.480469 13.992188 L 17.441406 13.921875 L 17.421875 13.882812 L 17.410156 13.839844 L 17.386719 13.761719 L 17.378906 13.722656 L 17.371094 13.679688 L 17.363281 13.640625 L 17.359375 13.601562 L 17.359375 13.519531 L 17.363281 13.480469 L 17.378906 13.402344 L 17.386719 13.359375 L 17.410156 13.28125 L 17.421875 13.238281 L 17.441406 13.199219 L 17.480469 13.128906 L 17.503906 13.09375 L 17.53125 13.058594 L 17.558594 13.019531 L 17.617188 12.960938 L 17.699219 13.039062 L 17.644531 13.09375 L 17.597656 13.15625 L 17.582031 13.1875 L 17.5625 13.21875 L 17.546875 13.25 L 17.53125 13.285156 L 17.507812 13.355469 L 17.492188 13.425781 L 17.488281 13.460938 L 17.480469 13.5 L 17.476562 13.535156 L 17.476562 13.605469 L 17.480469 13.640625 L 17.488281 13.675781 L 17.492188 13.710938 L 17.5 13.75 L 17.507812 13.785156 L 17.53125 13.855469 L 17.546875 13.890625 L 17.5625 13.921875 L 17.582031 13.953125 L 17.597656 13.984375 L 17.644531 14.046875 L 17.699219 14.101562 Z M 17.617188 14.167969 Z M 18.761719 14.085938 L 18.84375 14.167969 L 18.8125 14.199219 L 18.78125 14.226562 L 18.746094 14.25 L 18.707031 14.277344 L 18.636719 14.324219 L 18.601562 14.339844 L 18.558594 14.359375 L 18.519531 14.371094 L 18.480469 14.386719 L 18.4375 14.394531 L 18.398438 14.402344 L 18.355469 14.414062 L 18.277344 14.421875 L 18.195312 14.421875 L 18.152344 14.417969 L 18.113281 14.414062 L 18.074219 14.402344 L 18.03125 14.394531 L 17.992188 14.386719 L 17.953125 14.371094 L 17.910156 14.359375 L 17.871094 14.339844 L 17.832031 14.324219 L 17.761719 14.277344 L 17.726562 14.257812 L 17.65625 14.203125 L 17.625 14.171875 L 17.707031 14.089844 L 17.761719 14.144531 L 17.792969 14.167969 L 17.886719 14.226562 L 17.917969 14.242188 L 17.957031 14.257812 L 17.992188 14.269531 L 18.027344 14.277344 L 18.0625 14.289062 L 18.101562 14.296875 L 18.207031 14.308594 L 18.28125 14.308594 L 18.386719 14.296875 L 18.425781 14.289062 L 18.460938 14.277344 L 18.496094 14.269531 L 18.53125 14.257812 L 18.570312 14.242188 L 18.601562 14.226562 L 18.695312 14.167969 L 18.726562 14.144531 L 18.757812 14.117188 L 18.785156 14.089844 Z M 18.84375 14.167969 L 18.792969 14.214844 Z M 18.761719 5.171875 L 18.84375 5.089844 L 19.074219 5.332031 L 19.289062 5.582031 L 19.488281 5.835938 L 19.675781 6.097656 L 19.84375 6.371094 L 20.003906 6.648438 L 20.144531 6.925781 L 20.269531 7.210938 L 20.382812 7.503906 L 20.476562 7.796875 L 20.558594 8.09375 L 20.625 8.398438 L 20.679688 8.703125 L 20.714844 9.007812 L 20.738281 9.316406 L 20.746094 9.625 L 20.738281 9.933594 L 20.714844 10.238281 L 20.679688 10.546875 L 20.625 10.851562 L 20.558594 11.152344 L 20.476562 11.453125 L 20.382812 11.746094 L 20.269531 12.039062 L 20.144531 12.324219 L 20.003906 12.605469 L 19.84375 12.882812 L 19.675781 13.15625 L 19.488281 13.417969 L 19.289062 13.671875 L 19.074219 13.921875 L 18.84375 14.164062 L 18.761719 14.082031 L 18.988281 13.847656 L 19.199219 13.601562 L 19.398438 13.351562 L 19.578125 13.09375 L 19.746094 12.824219 L 19.898438 12.554688 L 20.039062 12.277344 L 20.160156 11.996094 L 20.269531 11.710938 L 20.363281 11.421875 L 20.445312 11.125 L 20.511719 10.828125 L 20.5625 10.53125 L 20.597656 10.226562 L 20.621094 9.921875 L 20.628906 9.621094 L 20.621094 9.316406 L 20.597656 9.015625 L 20.5625 8.710938 L 20.511719 8.410156 L 20.445312 8.113281 L 20.363281 7.820312 L 20.269531 7.53125 L 20.160156 7.242188 L 20.039062 6.964844 L 19.898438 6.6875 L 19.746094 6.414062 L 19.578125 6.148438 L 19.398438 5.890625 L 19.199219 5.640625 L 18.988281 5.394531 L 18.761719 5.15625 Z M 18.84375 5.089844 Z M 18.804688 5.132812 L 18.761719 5.171875 Z M 18.84375 5.089844 Z M 18.84375 5.089844 "/>
<path style=" stroke:none;fill-rule:nonzero;fill:rgb(92.941176%,41.176471%,36.078431%);fill-opacity:1;" d="M 7.703125 3.847656 C 8.019531 3.535156 8.019531 3.027344 7.703125 2.714844 C 7.382812 2.402344 6.875 2.402344 6.554688 2.714844 C 2.695312 6.53125 2.695312 12.734375 6.554688 16.550781 C 6.871094 16.863281 7.382812 16.863281 7.703125 16.550781 C 8.019531 16.238281 8.019531 15.730469 7.703125 15.417969 C 4.476562 12.226562 4.476562 7.039062 7.703125 3.851562 Z M 7.703125 3.847656 "/>
<path style=" stroke:none;fill-rule:nonzero;fill:rgb(92.941176%,41.176471%,36.078431%);fill-opacity:1;" d="M 7.703125 3.847656 C 8.019531 3.535156 8.019531 3.027344 7.703125 2.714844 C 7.382812 2.402344 6.875 2.402344 6.554688 2.714844 C 2.695312 6.53125 2.695312 12.734375 6.554688 16.550781 C 6.871094 16.863281 7.382812 16.863281 7.703125 16.550781 C 8.019531 16.238281 8.019531 15.730469 7.703125 15.417969 C 4.476562 12.226562 4.476562 7.039062 7.703125 3.851562 Z M 7.703125 3.847656 "/>
<path style=" stroke:none;fill-rule:nonzero;fill:rgb(99.607843%,99.607843%,99.607843%);fill-opacity:1;" d="M 7.664062 2.75 L 7.746094 2.671875 L 7.777344 2.703125 L 7.804688 2.734375 L 7.859375 2.804688 L 7.878906 2.839844 L 7.902344 2.875 L 7.921875 2.910156 L 7.9375 2.949219 L 7.953125 2.992188 L 7.976562 3.070312 L 7.984375 3.113281 L 7.992188 3.152344 L 7.996094 3.191406 L 8.003906 3.230469 L 8.003906 3.3125 L 7.996094 3.351562 L 7.992188 3.390625 L 7.984375 3.433594 L 7.976562 3.472656 L 7.964844 3.511719 L 7.953125 3.554688 L 7.921875 3.632812 L 7.902344 3.667969 L 7.878906 3.703125 L 7.859375 3.738281 L 7.832031 3.777344 L 7.804688 3.8125 L 7.777344 3.84375 L 7.746094 3.875 L 7.664062 3.792969 L 7.71875 3.738281 L 7.742188 3.707031 L 7.761719 3.679688 L 7.800781 3.617188 L 7.816406 3.585938 L 7.832031 3.546875 L 7.855469 3.476562 L 7.871094 3.40625 L 7.878906 3.335938 L 7.886719 3.300781 L 7.886719 3.226562 L 7.878906 3.191406 L 7.871094 3.121094 L 7.855469 3.050781 L 7.84375 3.011719 L 7.832031 2.976562 L 7.816406 2.941406 L 7.800781 2.910156 L 7.742188 2.816406 L 7.71875 2.785156 L 7.691406 2.757812 L 7.664062 2.734375 Z M 7.746094 2.671875 L 7.703125 2.628906 Z M 6.59375 2.75 L 6.515625 2.671875 L 6.546875 2.640625 L 6.578125 2.613281 L 6.648438 2.558594 L 6.6875 2.535156 L 6.722656 2.515625 L 6.761719 2.496094 L 6.804688 2.480469 L 6.84375 2.464844 L 6.882812 2.453125 L 6.925781 2.441406 L 7.003906 2.425781 L 7.046875 2.421875 L 7.085938 2.417969 L 7.167969 2.417969 L 7.207031 2.421875 L 7.25 2.425781 L 7.289062 2.433594 L 7.332031 2.441406 L 7.410156 2.464844 L 7.453125 2.480469 L 7.492188 2.496094 L 7.527344 2.515625 L 7.566406 2.535156 L 7.601562 2.558594 L 7.671875 2.613281 L 7.710938 2.640625 L 7.742188 2.671875 L 7.660156 2.75 L 7.605469 2.695312 L 7.574219 2.675781 L 7.542969 2.652344 L 7.511719 2.632812 L 7.480469 2.617188 L 7.449219 2.597656 L 7.410156 2.585938 L 7.375 2.570312 L 7.304688 2.554688 L 7.265625 2.546875 L 7.230469 2.539062 L 7.160156 2.53125 L 7.085938 2.53125 L 7.015625 2.539062 L 6.980469 2.546875 L 6.941406 2.554688 L 6.871094 2.570312 L 6.835938 2.585938 L 6.796875 2.597656 L 6.765625 2.617188 L 6.734375 2.632812 L 6.703125 2.652344 L 6.671875 2.675781 L 6.640625 2.695312 L 6.585938 2.75 Z M 6.59375 16.507812 L 6.515625 16.585938 L 6.164062 16.222656 L 5.832031 15.84375 L 5.527344 15.449219 L 5.242188 15.046875 L 4.980469 14.628906 L 4.742188 14.207031 L 4.527344 13.773438 L 4.332031 13.332031 L 4.160156 12.886719 L 4.011719 12.433594 L 3.886719 11.972656 L 3.78125 11.511719 L 3.699219 11.042969 L 3.640625 10.574219 L 3.605469 10.101562 L 3.597656 9.628906 L 3.605469 9.15625 L 3.640625 8.683594 L 3.699219 8.214844 L 3.78125 7.746094 L 3.886719 7.285156 L 4.011719 6.824219 L 4.160156 6.371094 L 4.332031 5.925781 L 4.527344 5.484375 L 4.742188 5.050781 L 4.980469 4.628906 L 5.242188 4.210938 L 5.527344 3.808594 L 5.832031 3.414062 L 6.164062 3.035156 L 6.515625 2.671875 L 6.59375 2.75 L 6.25 3.113281 L 5.921875 3.484375 L 5.621094 3.875 L 5.339844 4.269531 L 5.085938 4.679688 L 4.851562 5.101562 L 4.636719 5.527344 L 4.449219 5.964844 L 4.28125 6.40625 L 4.136719 6.855469 L 4.015625 7.3125 L 3.917969 7.769531 L 3.839844 8.234375 L 3.785156 8.699219 L 3.75 9.164062 L 3.742188 9.632812 L 3.75 10.101562 L 3.785156 10.570312 L 3.839844 11.035156 L 3.917969 11.496094 L 4.015625 11.957031 L 4.136719 12.410156 L 4.28125 12.859375 L 4.449219 13.300781 L 4.636719 13.738281 L 4.851562 14.167969 L 5.085938 14.585938 L 5.339844 14.996094 L 5.621094 15.394531 L 5.921875 15.78125 L 6.25 16.15625 L 6.59375 16.515625 Z M 7.664062 16.507812 L 7.746094 16.585938 L 7.714844 16.617188 L 7.679688 16.644531 L 7.640625 16.671875 L 7.605469 16.699219 L 7.570312 16.722656 L 7.535156 16.742188 L 7.457031 16.78125 L 7.417969 16.792969 L 7.375 16.804688 L 7.335938 16.816406 L 7.292969 16.824219 L 7.253906 16.832031 L 7.214844 16.835938 L 7.171875 16.84375 L 7.089844 16.84375 L 7.050781 16.835938 L 7.011719 16.832031 L 6.96875 16.824219 L 6.929688 16.816406 L 6.886719 16.804688 L 6.808594 16.78125 L 6.765625 16.761719 L 6.726562 16.742188 L 6.691406 16.722656 L 6.652344 16.699219 L 6.582031 16.644531 L 6.550781 16.617188 L 6.519531 16.585938 L 6.601562 16.507812 L 6.628906 16.535156 L 6.652344 16.5625 L 6.6875 16.582031 L 6.71875 16.605469 L 6.75 16.625 L 6.78125 16.640625 L 6.8125 16.660156 L 6.847656 16.671875 L 6.882812 16.6875 L 6.921875 16.695312 L 7.027344 16.71875 L 7.066406 16.722656 L 7.101562 16.726562 L 7.171875 16.726562 L 7.207031 16.722656 L 7.246094 16.71875 L 7.351562 16.695312 L 7.390625 16.6875 L 7.425781 16.671875 L 7.460938 16.660156 L 7.492188 16.640625 L 7.523438 16.625 L 7.554688 16.605469 L 7.585938 16.582031 L 7.621094 16.5625 L 7.644531 16.535156 L 7.671875 16.507812 Z M 7.746094 16.585938 L 7.691406 16.640625 Z M 7.664062 15.457031 L 7.746094 15.375 L 7.777344 15.40625 L 7.804688 15.4375 L 7.832031 15.472656 L 7.855469 15.507812 L 7.875 15.542969 L 7.898438 15.582031 L 7.917969 15.617188 L 7.949219 15.695312 L 7.960938 15.734375 L 7.972656 15.777344 L 7.988281 15.855469 L 7.992188 15.898438 L 7.996094 15.9375 L 7.996094 16.015625 L 7.992188 16.058594 L 7.988281 16.097656 L 7.972656 16.175781 L 7.960938 16.21875 L 7.949219 16.257812 L 7.933594 16.296875 L 7.917969 16.339844 L 7.898438 16.375 L 7.875 16.410156 L 7.855469 16.445312 L 7.832031 16.480469 L 7.804688 16.515625 L 7.777344 16.546875 L 7.746094 16.578125 L 7.664062 16.5 L 7.71875 16.445312 L 7.742188 16.414062 L 7.800781 16.320312 L 7.832031 16.257812 L 7.855469 16.1875 L 7.871094 16.117188 L 7.875 16.078125 L 7.878906 16.042969 L 7.886719 16.007812 L 7.886719 15.9375 L 7.878906 15.902344 L 7.875 15.867188 L 7.871094 15.828125 L 7.855469 15.757812 L 7.832031 15.6875 L 7.800781 15.625 L 7.742188 15.53125 L 7.71875 15.5 L 7.664062 15.445312 Z M 7.664062 3.808594 L 7.746094 3.886719 L 7.453125 4.191406 L 7.183594 4.503906 L 6.929688 4.828125 L 6.695312 5.164062 L 6.476562 5.503906 L 6.28125 5.851562 L 6.097656 6.210938 L 5.941406 6.574219 L 5.800781 6.945312 L 5.679688 7.320312 L 5.578125 7.699219 L 5.492188 8.082031 L 5.421875 8.46875 L 5.378906 8.859375 L 5.351562 9.246094 L 5.339844 9.632812 L 5.351562 10.019531 L 5.378906 10.410156 L 5.421875 10.796875 L 5.492188 11.183594 L 5.578125 11.566406 L 5.679688 11.945312 L 5.800781 12.320312 L 5.941406 12.691406 L 6.097656 13.058594 L 6.28125 13.414062 L 6.476562 13.765625 L 6.695312 14.109375 L 6.929688 14.445312 L 7.183594 14.769531 L 7.453125 15.082031 L 7.746094 15.382812 L 7.664062 15.464844 L 7.371094 15.15625 L 7.097656 14.839844 L 6.839844 14.511719 L 6.601562 14.171875 L 6.378906 13.824219 L 6.179688 13.46875 L 6 13.105469 L 5.835938 12.734375 L 5.695312 12.363281 L 5.570312 11.984375 L 5.46875 11.597656 L 5.382812 11.210938 L 5.316406 10.820312 L 5.265625 10.425781 L 5.238281 10.035156 L 5.230469 9.636719 L 5.238281 9.242188 L 5.265625 8.847656 L 5.316406 8.457031 L 5.382812 8.0625 L 5.46875 7.675781 L 5.570312 7.292969 L 5.695312 6.914062 L 5.835938 6.539062 L 6 6.167969 L 6.179688 5.808594 L 6.378906 5.453125 L 6.601562 5.105469 L 6.839844 4.765625 L 7.097656 4.4375 L 7.371094 4.117188 L 7.664062 3.8125 Z M 7.746094 3.886719 Z M 7.703125 3.847656 L 7.664062 3.808594 Z M 7.746094 3.886719 Z M 7.746094 3.886719 "/>
<path style=" stroke:none;fill-rule:nonzero;fill:rgb(92.941176%,41.176471%,36.078431%);fill-opacity:1;" d="M 21.253906 2.710938 C 20.9375 2.398438 20.421875 2.398438 20.105469 2.710938 C 19.792969 3.023438 19.792969 3.53125 20.105469 3.84375 C 23.332031 7.03125 23.332031 12.21875 20.105469 15.410156 C 19.792969 15.722656 19.792969 16.230469 20.105469 16.542969 C 20.421875 16.855469 20.9375 16.855469 21.253906 16.542969 C 25.113281 12.726562 25.113281 6.523438 21.253906 2.707031 Z M 21.253906 2.710938 "/>
<path style=" stroke:none;fill-rule:nonzero;fill:rgb(92.941176%,41.176471%,36.078431%);fill-opacity:1;" d="M 21.253906 2.710938 C 20.9375 2.398438 20.421875 2.398438 20.105469 2.710938 C 19.792969 3.023438 19.792969 3.53125 20.105469 3.84375 C 23.332031 7.03125 23.332031 12.21875 20.105469 15.410156 C 19.792969 15.722656 19.792969 16.230469 20.105469 16.542969 C 20.421875 16.855469 20.9375 16.855469 21.253906 16.542969 C 25.113281 12.726562 25.113281 6.523438 21.253906 2.707031 Z M 21.253906 2.710938 "/>
<path style=" stroke:none;fill-rule:nonzero;fill:rgb(99.607843%,99.607843%,99.607843%);fill-opacity:1;" d="M 20.148438 2.75 L 20.066406 2.671875 L 20.097656 2.640625 L 20.128906 2.613281 L 20.164062 2.585938 L 20.203125 2.558594 L 20.238281 2.535156 L 20.308594 2.496094 L 20.351562 2.480469 L 20.390625 2.464844 L 20.429688 2.453125 L 20.472656 2.441406 L 20.511719 2.433594 L 20.554688 2.425781 L 20.632812 2.417969 L 20.714844 2.417969 L 20.757812 2.421875 L 20.796875 2.425781 L 20.835938 2.433594 L 20.878906 2.441406 L 20.917969 2.453125 L 20.960938 2.464844 L 21.039062 2.496094 L 21.078125 2.515625 L 21.113281 2.535156 L 21.148438 2.558594 L 21.183594 2.585938 L 21.222656 2.613281 L 21.253906 2.640625 L 21.285156 2.671875 L 21.203125 2.75 L 21.148438 2.695312 L 21.117188 2.675781 L 21.085938 2.652344 L 21.054688 2.632812 L 21.023438 2.617188 L 20.992188 2.597656 L 20.960938 2.585938 L 20.921875 2.570312 L 20.816406 2.546875 L 20.777344 2.539062 L 20.707031 2.53125 L 20.632812 2.53125 L 20.5625 2.539062 L 20.492188 2.554688 L 20.453125 2.5625 L 20.417969 2.570312 L 20.382812 2.585938 L 20.351562 2.597656 L 20.320312 2.617188 L 20.289062 2.632812 L 20.253906 2.652344 L 20.222656 2.675781 L 20.191406 2.695312 L 20.136719 2.75 Z M 20.148438 2.75 Z M 20.148438 3.808594 L 20.066406 3.886719 L 20.035156 3.855469 L 20.007812 3.824219 L 19.953125 3.753906 L 19.929688 3.71875 L 19.890625 3.648438 L 19.871094 3.605469 L 19.859375 3.566406 L 19.84375 3.527344 L 19.835938 3.484375 L 19.828125 3.445312 L 19.816406 3.40625 L 19.8125 3.367188 L 19.808594 3.324219 L 19.808594 3.246094 L 19.8125 3.207031 L 19.816406 3.164062 L 19.828125 3.125 L 19.835938 3.085938 L 19.84375 3.042969 L 19.859375 3.003906 L 19.871094 2.964844 L 19.890625 2.925781 L 19.910156 2.890625 L 19.929688 2.851562 L 19.953125 2.816406 L 20.007812 2.746094 L 20.035156 2.714844 L 20.066406 2.683594 L 20.148438 2.765625 L 20.121094 2.789062 L 20.09375 2.816406 L 20.046875 2.878906 L 20.03125 2.910156 L 20.011719 2.941406 L 19.996094 2.972656 L 19.980469 3.007812 L 19.96875 3.042969 L 19.953125 3.082031 L 19.945312 3.117188 L 19.933594 3.152344 L 19.921875 3.257812 L 19.921875 3.328125 L 19.925781 3.367188 L 19.933594 3.4375 L 19.945312 3.472656 L 19.953125 3.507812 L 19.96875 3.542969 L 19.980469 3.578125 L 19.996094 3.617188 L 20.011719 3.648438 L 20.03125 3.679688 L 20.046875 3.707031 L 20.09375 3.769531 L 20.121094 3.800781 L 20.148438 3.828125 Z M 20.148438 15.457031 L 20.066406 15.375 L 20.359375 15.070312 L 20.628906 14.761719 L 20.882812 14.433594 L 21.117188 14.101562 L 21.332031 13.757812 L 21.53125 13.40625 L 21.710938 13.046875 L 21.871094 12.683594 L 22.011719 12.3125 L 22.132812 11.9375 L 22.234375 11.558594 L 22.320312 11.175781 L 22.390625 10.789062 L 22.433594 10.398438 L 22.460938 10.011719 L 22.46875 9.625 L 22.460938 9.238281 L 22.433594 8.847656 L 22.390625 8.460938 L 22.320312 8.074219 L 22.234375 7.691406 L 22.132812 7.3125 L 22.011719 6.9375 L 21.871094 6.566406 L 21.710938 6.199219 L 21.53125 5.84375 L 21.332031 5.496094 L 21.117188 5.152344 L 20.882812 4.820312 L 20.628906 4.492188 L 20.359375 4.179688 L 20.066406 3.878906 L 20.148438 3.796875 L 20.441406 4.105469 L 20.714844 4.421875 L 20.972656 4.753906 L 21.210938 5.089844 L 21.429688 5.4375 L 21.625 5.796875 L 21.808594 6.15625 L 21.96875 6.527344 L 22.113281 6.902344 L 22.234375 7.28125 L 22.339844 7.664062 L 22.425781 8.050781 L 22.492188 8.441406 L 22.542969 8.835938 L 22.570312 9.226562 L 22.578125 9.625 L 22.570312 10.019531 L 22.542969 10.414062 L 22.492188 10.804688 L 22.425781 11.199219 L 22.339844 11.585938 L 22.234375 11.96875 L 22.113281 12.347656 L 21.96875 12.722656 L 21.808594 13.09375 L 21.625 13.453125 L 21.429688 13.808594 L 21.210938 14.160156 L 20.972656 14.496094 L 20.714844 14.828125 L 20.441406 15.144531 L 20.148438 15.449219 Z M 20.148438 15.457031 Z M 20.148438 16.507812 L 20.066406 16.585938 L 20.035156 16.554688 L 20.007812 16.523438 L 19.953125 16.453125 L 19.929688 16.417969 L 19.890625 16.347656 L 19.871094 16.308594 L 19.859375 16.265625 L 19.84375 16.226562 L 19.835938 16.1875 L 19.828125 16.144531 L 19.816406 16.105469 L 19.808594 16.027344 L 19.808594 15.945312 L 19.816406 15.867188 L 19.828125 15.824219 L 19.84375 15.746094 L 19.859375 15.707031 L 19.871094 15.664062 L 19.890625 15.625 L 19.929688 15.554688 L 19.953125 15.519531 L 19.980469 15.480469 L 20.007812 15.445312 L 20.035156 15.414062 L 20.066406 15.382812 L 20.148438 15.464844 L 20.09375 15.519531 L 20.046875 15.582031 L 20.03125 15.613281 L 20.011719 15.644531 L 19.980469 15.707031 L 19.96875 15.742188 L 19.953125 15.777344 L 19.945312 15.8125 L 19.933594 15.847656 L 19.921875 15.953125 L 19.921875 16.027344 L 19.933594 16.132812 L 19.945312 16.167969 L 19.953125 16.203125 L 19.96875 16.238281 L 19.980469 16.277344 L 20.011719 16.339844 L 20.03125 16.371094 L 20.046875 16.402344 L 20.09375 16.464844 L 20.121094 16.488281 L 20.148438 16.515625 Z M 20.148438 16.507812 L 20.09375 16.453125 Z M 21.210938 16.507812 L 21.292969 16.585938 L 21.261719 16.617188 L 21.230469 16.644531 L 21.195312 16.671875 L 21.15625 16.699219 L 21.121094 16.722656 L 21.050781 16.761719 L 21.007812 16.78125 L 20.96875 16.792969 L 20.925781 16.804688 L 20.886719 16.816406 L 20.847656 16.824219 L 20.804688 16.832031 L 20.765625 16.835938 L 20.726562 16.84375 L 20.644531 16.84375 L 20.601562 16.835938 L 20.5625 16.832031 L 20.523438 16.824219 L 20.480469 16.816406 L 20.441406 16.804688 L 20.398438 16.792969 L 20.359375 16.78125 L 20.28125 16.742188 L 20.246094 16.722656 L 20.210938 16.699219 L 20.175781 16.671875 L 20.136719 16.644531 L 20.105469 16.617188 L 20.074219 16.585938 L 20.15625 16.507812 L 20.210938 16.5625 L 20.242188 16.582031 L 20.273438 16.605469 L 20.304688 16.625 L 20.335938 16.640625 L 20.367188 16.660156 L 20.398438 16.671875 L 20.4375 16.6875 L 20.542969 16.710938 L 20.582031 16.71875 L 20.652344 16.726562 L 20.726562 16.726562 L 20.796875 16.71875 L 20.867188 16.703125 L 20.90625 16.695312 L 20.941406 16.6875 L 20.976562 16.671875 L 21.007812 16.660156 L 21.039062 16.640625 L 21.070312 16.625 L 21.105469 16.605469 L 21.136719 16.582031 L 21.167969 16.5625 L 21.222656 16.507812 Z M 21.210938 2.75 L 21.292969 2.671875 L 21.644531 3.035156 L 21.972656 3.414062 L 22.28125 3.808594 L 22.566406 4.210938 L 22.828125 4.628906 L 23.066406 5.050781 L 23.28125 5.484375 L 23.476562 5.925781 L 23.648438 6.371094 L 23.796875 6.824219 L 23.921875 7.285156 L 24.027344 7.746094 L 24.105469 8.214844 L 24.164062 8.683594 L 24.203125 9.15625 L 24.214844 9.628906 L 24.203125 10.101562 L 24.164062 10.574219 L 24.105469 11.042969 L 24.027344 11.511719 L 23.921875 11.972656 L 23.796875 12.433594 L 23.648438 12.886719 L 23.476562 13.332031 L 23.28125 13.773438 L 23.066406 14.207031 L 22.828125 14.628906 L 22.566406 15.046875 L 22.28125 15.449219 L 21.972656 15.84375 L 21.644531 16.222656 L 21.292969 16.585938 L 21.210938 16.507812 L 21.558594 16.144531 L 21.882812 15.773438 L 22.1875 15.382812 L 22.464844 14.988281 L 22.722656 14.578125 L 22.957031 14.160156 L 23.167969 13.730469 L 23.359375 13.292969 L 23.523438 12.851562 L 23.667969 12.402344 L 23.792969 11.945312 L 23.894531 11.488281 L 23.972656 11.023438 L 24.027344 10.5625 L 24.058594 10.09375 L 24.070312 9.625 L 24.058594 9.15625 L 24.027344 8.6875 L 23.972656 8.226562 L 23.894531 7.761719 L 23.792969 7.300781 L 23.667969 6.847656 L 23.523438 6.398438 L 23.359375 5.957031 L 23.167969 5.519531 L 22.957031 5.089844 L 22.722656 4.671875 L 22.464844 4.261719 L 22.1875 3.863281 L 21.882812 3.476562 L 21.558594 3.101562 L 21.210938 2.742188 Z M 21.210938 2.75 "/>
<path style=" stroke:none;fill-rule:nonzero;fill:rgb(92.941176%,41.176471%,36.078431%);fill-opacity:1;" d="M 5.257812 1.425781 C 5.570312 1.113281 5.570312 0.605469 5.257812 0.292969 C 4.941406 -0.0195312 4.425781 -0.0195312 4.105469 0.292969 C -1.300781 5.640625 -1.289062 13.636719 4.105469 18.96875 C 4.421875 19.28125 4.9375 19.28125 5.257812 18.96875 C 5.570312 18.65625 5.570312 18.148438 5.257812 17.835938 C 0.523438 13.160156 0.523438 6.105469 5.257812 1.429688 Z M 5.257812 1.425781 "/>
<path style=" stroke:none;fill-rule:nonzero;fill:rgb(92.941176%,41.176471%,36.078431%);fill-opacity:1;" d="M 5.257812 1.425781 C 5.570312 1.113281 5.570312 0.605469 5.257812 0.292969 C 4.941406 -0.0195312 4.425781 -0.0195312 4.105469 0.292969 C -1.300781 5.640625 -1.289062 13.636719 4.105469 18.96875 C 4.421875 19.28125 4.9375 19.28125 5.257812 18.96875 C 5.570312 18.65625 5.570312 18.148438 5.257812 17.835938 C 0.523438 13.160156 0.523438 6.105469 5.257812 1.429688 Z M 5.257812 1.425781 "/>
<path style=" stroke:none;fill-rule:nonzero;fill:rgb(99.607843%,99.607843%,99.607843%);fill-opacity:1;" d="M 5.214844 0.328125 L 5.296875 0.25 L 5.328125 0.28125 L 5.410156 0.386719 L 5.433594 0.421875 L 5.453125 0.460938 L 5.472656 0.496094 L 5.492188 0.535156 L 5.503906 0.574219 L 5.519531 0.613281 L 5.527344 0.65625 L 5.542969 0.734375 L 5.550781 0.777344 L 5.554688 0.816406 L 5.554688 0.894531 L 5.550781 0.9375 L 5.527344 1.054688 L 5.519531 1.097656 L 5.503906 1.136719 L 5.492188 1.175781 L 5.472656 1.21875 L 5.433594 1.289062 L 5.410156 1.324219 L 5.355469 1.394531 L 5.328125 1.425781 L 5.296875 1.457031 L 5.214844 1.378906 L 5.269531 1.324219 L 5.316406 1.261719 L 5.332031 1.230469 L 5.351562 1.199219 L 5.367188 1.167969 L 5.382812 1.132812 L 5.40625 1.0625 L 5.414062 1.023438 L 5.421875 0.988281 L 5.425781 0.953125 L 5.433594 0.917969 L 5.4375 0.882812 L 5.4375 0.8125 L 5.433594 0.777344 L 5.425781 0.738281 L 5.421875 0.703125 L 5.40625 0.632812 L 5.382812 0.5625 L 5.367188 0.527344 L 5.351562 0.496094 L 5.332031 0.464844 L 5.316406 0.433594 L 5.269531 0.371094 L 5.214844 0.316406 Z M 5.296875 0.25 Z M 4.148438 0.328125 L 4.066406 0.25 L 4.097656 0.21875 L 4.128906 0.191406 L 4.199219 0.136719 L 4.238281 0.117188 L 4.273438 0.09375 L 4.308594 0.0742188 L 4.347656 0.0585938 L 4.390625 0.0429688 L 4.429688 0.03125 L 4.472656 0.0234375 L 4.511719 0.0117188 L 4.550781 0.00390625 L 4.59375 0 L 4.632812 -0.00390625 L 4.714844 -0.00390625 L 4.753906 0 L 4.796875 0.00390625 L 4.835938 0.0117188 L 4.878906 0.0234375 L 4.917969 0.03125 L 4.957031 0.0429688 L 5 0.0585938 L 5.039062 0.0742188 L 5.074219 0.09375 L 5.113281 0.117188 L 5.148438 0.136719 L 5.183594 0.160156 L 5.21875 0.1875 L 5.25 0.214844 L 5.28125 0.246094 L 5.203125 0.324219 L 5.175781 0.296875 L 5.148438 0.273438 L 5.085938 0.226562 L 5.054688 0.210938 L 5.023438 0.191406 L 4.953125 0.160156 L 4.882812 0.136719 L 4.84375 0.128906 L 4.808594 0.121094 L 4.738281 0.113281 L 4.703125 0.105469 L 4.628906 0.105469 L 4.59375 0.113281 L 4.558594 0.117188 L 4.519531 0.121094 L 4.449219 0.136719 L 4.414062 0.148438 L 4.375 0.160156 L 4.339844 0.175781 L 4.308594 0.191406 L 4.277344 0.210938 L 4.246094 0.226562 L 4.152344 0.296875 L 4.125 0.324219 Z M 4.066406 0.25 Z M 4.148438 18.921875 L 4.066406 19.003906 L 3.574219 18.496094 L 3.113281 17.96875 L 2.683594 17.429688 L 2.289062 16.878906 L 1.921875 16.316406 L 1.589844 15.742188 L 1.289062 15.15625 L 1.015625 14.5625 L 0.777344 13.960938 L 0.570312 13.355469 L 0.394531 12.742188 L 0.25 12.121094 L 0.136719 11.496094 L 0.0546875 10.871094 L 0.0078125 10.246094 L -0.0117188 9.617188 L 0.00390625 8.988281 L 0.0507812 8.359375 L 0.132812 7.734375 L 0.246094 7.109375 L 0.390625 6.492188 L 0.566406 5.875 L 0.773438 5.269531 L 1.011719 4.667969 L 1.28125 4.074219 L 1.585938 3.492188 L 1.917969 2.914062 L 2.285156 2.355469 L 2.679688 1.800781 L 3.109375 1.261719 L 3.570312 0.734375 L 4.0625 0.226562 L 4.140625 0.308594 L 3.65625 0.816406 L 3.199219 1.335938 L 2.777344 1.871094 L 2.382812 2.421875 L 2.023438 2.976562 L 1.691406 3.546875 L 1.394531 4.128906 L 1.128906 4.714844 L 0.894531 5.3125 L 0.691406 5.914062 L 0.519531 6.523438 L 0.382812 7.132812 L 0.273438 7.746094 L 0.195312 8.367188 L 0.152344 8.988281 L 0.136719 9.609375 L 0.15625 10.234375 L 0.203125 10.855469 L 0.285156 11.472656 L 0.394531 12.089844 L 0.535156 12.699219 L 0.707031 13.308594 L 0.910156 13.910156 L 1.144531 14.5 L 1.410156 15.089844 L 1.707031 15.667969 L 2.035156 16.238281 L 2.398438 16.796875 L 2.789062 17.34375 L 3.214844 17.878906 L 3.667969 18.402344 L 4.15625 18.90625 Z M 5.214844 18.921875 L 5.296875 19.003906 L 5.265625 19.035156 L 5.234375 19.0625 L 5.199219 19.089844 L 5.160156 19.117188 L 5.125 19.136719 L 5.089844 19.160156 L 5.046875 19.179688 L 4.96875 19.210938 L 4.925781 19.222656 L 4.886719 19.230469 L 4.84375 19.238281 L 4.804688 19.25 L 4.765625 19.253906 L 4.722656 19.257812 L 4.644531 19.257812 L 4.601562 19.253906 L 4.5625 19.25 L 4.519531 19.238281 L 4.441406 19.222656 L 4.398438 19.210938 L 4.359375 19.195312 L 4.316406 19.179688 L 4.277344 19.160156 L 4.242188 19.136719 L 4.207031 19.117188 L 4.167969 19.089844 L 4.132812 19.0625 L 4.101562 19.035156 L 4.070312 19.003906 L 4.152344 18.921875 L 4.207031 18.976562 L 4.269531 19.023438 L 4.300781 19.039062 L 4.332031 19.058594 L 4.363281 19.074219 L 4.398438 19.089844 L 4.433594 19.101562 L 4.472656 19.109375 L 4.507812 19.121094 L 4.542969 19.128906 L 4.578125 19.132812 L 4.617188 19.136719 L 4.652344 19.140625 L 4.722656 19.140625 L 4.761719 19.136719 L 4.832031 19.128906 L 4.867188 19.121094 L 4.902344 19.109375 L 4.941406 19.101562 L 4.976562 19.089844 L 5.011719 19.074219 L 5.042969 19.058594 L 5.074219 19.039062 L 5.105469 19.023438 L 5.140625 19 L 5.171875 18.976562 L 5.199219 18.949219 L 5.222656 18.921875 Z M 5.214844 17.867188 L 5.296875 17.785156 L 5.328125 17.816406 L 5.355469 17.847656 L 5.382812 17.886719 L 5.410156 17.921875 L 5.433594 17.957031 L 5.453125 17.992188 L 5.492188 18.070312 L 5.503906 18.113281 L 5.519531 18.152344 L 5.527344 18.191406 L 5.535156 18.234375 L 5.550781 18.3125 L 5.554688 18.351562 L 5.554688 18.433594 L 5.550781 18.472656 L 5.542969 18.511719 L 5.535156 18.554688 L 5.519531 18.632812 L 5.503906 18.675781 L 5.492188 18.714844 L 5.433594 18.832031 L 5.410156 18.867188 L 5.355469 18.9375 L 5.328125 18.96875 L 5.296875 19 L 5.214844 18.917969 L 5.242188 18.890625 L 5.269531 18.867188 L 5.316406 18.804688 L 5.332031 18.773438 L 5.351562 18.742188 L 5.367188 18.710938 L 5.382812 18.675781 L 5.394531 18.636719 L 5.40625 18.601562 L 5.421875 18.53125 L 5.425781 18.496094 L 5.433594 18.460938 L 5.4375 18.425781 L 5.4375 18.351562 L 5.433594 18.316406 L 5.425781 18.28125 L 5.421875 18.246094 L 5.40625 18.175781 L 5.394531 18.140625 L 5.382812 18.101562 L 5.367188 18.066406 L 5.351562 18.035156 L 5.332031 18.003906 L 5.316406 17.972656 L 5.269531 17.910156 L 5.242188 17.886719 L 5.214844 17.859375 Z M 5.214844 1.382812 L 5.296875 1.460938 L 4.867188 1.902344 L 4.464844 2.359375 L 4.09375 2.828125 L 3.75 3.308594 L 3.433594 3.796875 L 3.144531 4.296875 L 2.882812 4.804688 L 2.648438 5.324219 L 2.441406 5.84375 L 2.261719 6.375 L 2.109375 6.910156 L 1.980469 7.449219 L 1.886719 7.992188 L 1.820312 8.535156 L 1.777344 9.082031 L 1.765625 9.628906 L 1.777344 10.175781 L 1.820312 10.726562 L 1.886719 11.269531 L 1.980469 11.808594 L 2.109375 12.347656 L 2.261719 12.882812 L 2.441406 13.414062 L 2.648438 13.933594 L 2.882812 14.453125 L 3.144531 14.960938 L 3.433594 15.460938 L 3.75 15.949219 L 4.09375 16.433594 L 4.464844 16.898438 L 4.867188 17.355469 L 5.296875 17.796875 L 5.214844 17.875 L 4.78125 17.429688 L 4.375 16.972656 L 4.003906 16.5 L 3.65625 16.011719 L 3.335938 15.519531 L 3.042969 15.015625 L 2.777344 14.5 L 2.535156 13.980469 L 2.328125 13.453125 L 2.148438 12.917969 L 1.996094 12.378906 L 1.867188 11.835938 L 1.769531 11.289062 L 1.703125 10.738281 L 1.660156 10.1875 L 1.648438 9.632812 L 1.660156 9.082031 L 1.703125 8.527344 L 1.769531 7.980469 L 1.867188 7.429688 L 1.996094 6.886719 L 2.148438 6.347656 L 2.328125 5.8125 L 2.535156 5.285156 L 2.777344 4.765625 L 3.042969 4.253906 L 3.335938 3.75 L 3.65625 3.253906 L 4.003906 2.769531 L 4.375 2.296875 L 4.78125 1.835938 L 5.214844 1.390625 Z M 5.257812 1.421875 L 5.214844 1.382812 Z M 5.257812 1.421875 "/>
<path style=" stroke:none;fill-rule:nonzero;fill:rgb(92.941176%,41.176471%,36.078431%);fill-opacity:1;" d="M 23.703125 0.289062 C 23.386719 -0.0234375 22.871094 -0.0234375 22.554688 0.289062 C 22.238281 0.601562 22.238281 1.109375 22.554688 1.421875 C 27.285156 6.097656 27.285156 13.152344 22.554688 17.828125 C 22.238281 18.140625 22.238281 18.648438 22.554688 18.960938 C 22.871094 19.269531 23.386719 19.269531 23.703125 18.960938 C 29.109375 13.613281 29.09375 5.617188 23.703125 0.285156 Z M 23.703125 0.289062 "/>
<path style=" stroke:none;fill-rule:nonzero;fill:rgb(92.941176%,41.176471%,36.078431%);fill-opacity:1;" d="M 23.703125 0.289062 C 23.386719 -0.0234375 22.871094 -0.0234375 22.554688 0.289062 C 22.238281 0.601562 22.238281 1.109375 22.554688 1.421875 C 27.285156 6.097656 27.285156 13.152344 22.554688 17.828125 C 22.238281 18.140625 22.238281 18.648438 22.554688 18.960938 C 22.871094 19.269531 23.386719 19.269531 23.703125 18.960938 C 29.109375 13.613281 29.09375 5.617188 23.703125 0.285156 Z M 23.703125 0.289062 "/>
<path style=" stroke:none;fill-rule:nonzero;fill:rgb(99.607843%,99.607843%,99.607843%);fill-opacity:1;" d="M 22.59375 0.328125 L 22.511719 0.25 L 22.542969 0.21875 L 22.574219 0.191406 L 22.609375 0.164062 L 22.644531 0.144531 L 22.683594 0.121094 L 22.71875 0.0976562 L 22.753906 0.0820312 L 22.792969 0.0625 L 22.835938 0.0507812 L 22.875 0.0351562 L 22.917969 0.0273438 L 22.957031 0.0195312 L 22.996094 0.0078125 L 23.039062 0.00390625 L 23.078125 0 L 23.160156 0 L 23.199219 0.00390625 L 23.242188 0.0078125 L 23.28125 0.0195312 L 23.324219 0.0273438 L 23.363281 0.0351562 L 23.402344 0.0507812 L 23.445312 0.0625 L 23.484375 0.0820312 L 23.519531 0.0976562 L 23.558594 0.121094 L 23.59375 0.144531 L 23.628906 0.164062 L 23.664062 0.191406 L 23.695312 0.21875 L 23.726562 0.25 L 23.648438 0.328125 L 23.621094 0.304688 L 23.59375 0.277344 L 23.53125 0.230469 L 23.5 0.214844 L 23.464844 0.195312 L 23.402344 0.164062 L 23.367188 0.152344 L 23.332031 0.144531 L 23.296875 0.132812 L 23.257812 0.125 L 23.152344 0.113281 L 23.078125 0.113281 L 23.007812 0.121094 L 22.96875 0.125 L 22.933594 0.132812 L 22.898438 0.144531 L 22.863281 0.152344 L 22.828125 0.164062 L 22.792969 0.179688 L 22.761719 0.195312 L 22.730469 0.214844 L 22.699219 0.230469 L 22.636719 0.277344 L 22.609375 0.304688 L 22.582031 0.328125 Z M 22.59375 0.328125 Z M 22.59375 1.386719 L 22.511719 1.464844 L 22.480469 1.433594 L 22.453125 1.402344 L 22.398438 1.332031 L 22.351562 1.261719 L 22.335938 1.222656 L 22.316406 1.179688 L 22.304688 1.140625 L 22.289062 1.101562 L 22.28125 1.0625 L 22.273438 1.019531 L 22.261719 0.980469 L 22.253906 0.902344 L 22.253906 0.820312 L 22.257812 0.78125 L 22.261719 0.738281 L 22.273438 0.699219 L 22.289062 0.621094 L 22.304688 0.578125 L 22.316406 0.539062 L 22.335938 0.5 L 22.351562 0.460938 L 22.375 0.421875 L 22.398438 0.386719 L 22.453125 0.316406 L 22.480469 0.285156 L 22.511719 0.253906 L 22.59375 0.335938 L 22.566406 0.359375 L 22.539062 0.386719 L 22.492188 0.449219 L 22.472656 0.480469 L 22.457031 0.511719 L 22.4375 0.542969 L 22.425781 0.578125 L 22.410156 0.613281 L 22.402344 0.652344 L 22.394531 0.6875 L 22.382812 0.722656 L 22.371094 0.828125 L 22.371094 0.902344 L 22.382812 1.007812 L 22.394531 1.042969 L 22.410156 1.113281 L 22.425781 1.148438 L 22.4375 1.1875 L 22.457031 1.21875 L 22.472656 1.25 L 22.492188 1.28125 L 22.539062 1.34375 L 22.566406 1.367188 L 22.59375 1.394531 Z M 22.59375 17.871094 L 22.511719 17.792969 L 22.9375 17.351562 L 23.339844 16.894531 L 23.714844 16.425781 L 24.058594 15.945312 L 24.375 15.457031 L 24.660156 14.957031 L 24.921875 14.449219 L 25.15625 13.929688 L 25.367188 13.410156 L 25.546875 12.878906 L 25.699219 12.34375 L 25.820312 11.804688 L 25.914062 11.265625 L 25.984375 10.722656 L 26.023438 10.171875 L 26.039062 9.625 L 26.023438 9.078125 L 25.984375 8.53125 L 25.914062 7.988281 L 25.820312 7.445312 L 25.699219 6.90625 L 25.546875 6.371094 L 25.367188 5.839844 L 25.15625 5.316406 L 24.921875 4.800781 L 24.660156 4.292969 L 24.375 3.792969 L 24.058594 3.304688 L 23.714844 2.820312 L 23.339844 2.355469 L 22.9375 1.898438 L 22.511719 1.457031 L 22.59375 1.378906 L 23.023438 1.824219 L 23.429688 2.28125 L 23.804688 2.753906 L 24.152344 3.242188 L 24.472656 3.734375 L 24.765625 4.238281 L 25.03125 4.753906 L 25.269531 5.273438 L 25.476562 5.800781 L 25.660156 6.335938 L 25.8125 6.875 L 25.9375 7.417969 L 26.039062 7.964844 L 26.105469 8.515625 L 26.144531 9.066406 L 26.160156 9.621094 L 26.144531 10.171875 L 26.105469 10.726562 L 26.039062 11.273438 L 25.9375 11.824219 L 25.8125 12.367188 L 25.660156 12.90625 L 25.476562 13.441406 L 25.269531 13.964844 L 25.03125 14.488281 L 24.765625 15 L 24.472656 15.503906 L 24.152344 16 L 23.804688 16.484375 L 23.429688 16.957031 L 23.023438 17.417969 L 22.59375 17.863281 Z M 22.59375 18.929688 L 22.511719 19.007812 L 22.480469 18.976562 L 22.453125 18.945312 L 22.398438 18.875 L 22.351562 18.804688 L 22.335938 18.761719 L 22.316406 18.722656 L 22.304688 18.683594 L 22.289062 18.644531 L 22.28125 18.601562 L 22.273438 18.5625 L 22.261719 18.523438 L 22.257812 18.480469 L 22.253906 18.441406 L 22.253906 18.363281 L 22.257812 18.320312 L 22.261719 18.28125 L 22.273438 18.242188 L 22.28125 18.203125 L 22.289062 18.160156 L 22.304688 18.121094 L 22.316406 18.082031 L 22.335938 18.042969 L 22.351562 18 L 22.398438 17.929688 L 22.453125 17.859375 L 22.480469 17.828125 L 22.511719 17.796875 L 22.59375 17.875 L 22.539062 17.929688 L 22.492188 17.992188 L 22.472656 18.023438 L 22.457031 18.054688 L 22.4375 18.085938 L 22.425781 18.121094 L 22.410156 18.15625 L 22.394531 18.226562 L 22.382812 18.265625 L 22.371094 18.371094 L 22.371094 18.441406 L 22.378906 18.511719 L 22.382812 18.550781 L 22.394531 18.585938 L 22.410156 18.65625 L 22.425781 18.691406 L 22.4375 18.726562 L 22.457031 18.757812 L 22.472656 18.789062 L 22.492188 18.820312 L 22.539062 18.882812 L 22.59375 18.9375 Z M 22.59375 18.929688 Z M 23.660156 18.929688 L 23.742188 19.007812 L 23.710938 19.039062 L 23.679688 19.066406 L 23.644531 19.09375 L 23.605469 19.121094 L 23.570312 19.140625 L 23.535156 19.164062 L 23.492188 19.183594 L 23.414062 19.214844 L 23.371094 19.226562 L 23.332031 19.234375 L 23.289062 19.246094 L 23.25 19.253906 L 23.210938 19.257812 L 23.167969 19.261719 L 23.089844 19.261719 L 23.046875 19.257812 L 23.007812 19.253906 L 22.964844 19.246094 L 22.925781 19.234375 L 22.886719 19.226562 L 22.84375 19.214844 L 22.804688 19.199219 L 22.761719 19.183594 L 22.722656 19.164062 L 22.6875 19.140625 L 22.652344 19.121094 L 22.613281 19.09375 L 22.578125 19.066406 L 22.546875 19.039062 L 22.515625 19.007812 L 22.597656 18.929688 L 22.625 18.953125 L 22.652344 18.980469 L 22.714844 19.027344 L 22.746094 19.042969 L 22.777344 19.0625 L 22.808594 19.078125 L 22.84375 19.09375 L 22.878906 19.105469 L 22.917969 19.117188 L 22.988281 19.132812 L 23.023438 19.136719 L 23.0625 19.140625 L 23.097656 19.148438 L 23.167969 19.148438 L 23.207031 19.140625 L 23.277344 19.132812 L 23.347656 19.117188 L 23.386719 19.105469 L 23.421875 19.09375 L 23.457031 19.078125 L 23.488281 19.0625 L 23.519531 19.042969 L 23.550781 19.027344 L 23.585938 19.003906 L 23.617188 18.980469 L 23.667969 18.929688 Z M 23.660156 0.328125 L 23.742188 0.25 L 24.234375 0.757812 L 24.695312 1.285156 L 25.121094 1.824219 L 25.519531 2.371094 L 25.882812 2.933594 L 26.21875 3.507812 L 26.519531 4.09375 L 26.789062 4.683594 L 27.03125 5.285156 L 27.238281 5.894531 L 27.414062 6.507812 L 27.558594 7.128906 L 27.667969 7.746094 L 27.75 8.371094 L 27.800781 9 L 27.820312 9.628906 L 27.804688 10.257812 L 27.761719 10.886719 L 27.679688 11.511719 L 27.566406 12.132812 L 27.421875 12.753906 L 27.246094 13.371094 L 27.039062 13.976562 L 26.800781 14.578125 L 26.527344 15.171875 L 26.226562 15.753906 L 25.894531 16.328125 L 25.527344 16.890625 L 25.132812 17.445312 L 24.703125 17.984375 L 24.242188 18.507812 L 23.75 19.015625 L 23.667969 18.9375 L 24.15625 18.429688 L 24.613281 17.90625 L 25.035156 17.371094 L 25.429688 16.824219 L 25.789062 16.265625 L 26.117188 15.695312 L 26.417969 15.117188 L 26.683594 14.527344 L 26.917969 13.929688 L 27.121094 13.328125 L 27.292969 12.722656 L 27.429688 12.113281 L 27.539062 11.496094 L 27.617188 10.878906 L 27.660156 10.257812 L 27.675781 9.632812 L 27.65625 9.007812 L 27.605469 8.390625 L 27.53125 7.769531 L 27.417969 7.15625 L 27.277344 6.542969 L 27.105469 5.9375 L 26.902344 5.335938 L 26.667969 4.742188 L 26.402344 4.15625 L 26.105469 3.574219 L 25.777344 3.003906 L 25.414062 2.449219 L 25.023438 1.898438 L 24.597656 1.363281 L 24.144531 0.84375 L 23.65625 0.339844 Z M 23.660156 0.328125 Z M 23.703125 0.289062 L 23.660156 0.328125 Z M 23.660156 0.328125 Z M 23.660156 0.328125 "/>
</g>
</svg>
