<?xml version="1.0" encoding="UTF-8"?>
<svg xmlns="http://www.w3.org/2000/svg" xmlns:xlink="http://www.w3.org/1999/xlink" width="28px" height="28px" viewBox="0 0 28 28" version="1.1">
<g id="surface1">
<path style=" stroke:none;fill-rule:nonzero;fill:rgb(92.941176%,41.176471%,36.078431%);fill-opacity:1;" d="M 13.90625 13.753906 C 13.160156 13.753906 12.554688 13.15625 12.554688 12.414062 C 12.554688 11.679688 13.15625 11.078125 13.90625 11.078125 C 14.648438 11.078125 15.257812 11.675781 15.257812 12.414062 C 15.257812 13.152344 14.65625 13.753906 13.90625 13.753906 Z M 13.90625 9.476562 C 12.265625 9.476562 10.929688 10.796875 10.929688 12.417969 C 10.929688 13.761719 11.84375 14.898438 13.09375 15.246094 L 13.09375 24.394531 C 13.09375 24.835938 13.460938 25.195312 13.90625 25.195312 C 14.351562 25.195312 14.71875 24.835938 14.71875 24.394531 L 14.71875 15.246094 C 15.96875 14.898438 16.882812 13.761719 16.882812 12.417969 C 16.882812 10.796875 15.546875 9.476562 13.910156 9.476562 Z M 13.90625 9.476562 "/>
<path style=" stroke:none;fill-rule:nonzero;fill:rgb(92.941176%,41.176471%,36.078431%);fill-opacity:1;" d="M 13.90625 13.753906 C 13.160156 13.753906 12.554688 13.15625 12.554688 12.414062 C 12.554688 11.679688 13.15625 11.078125 13.90625 11.078125 C 14.648438 11.078125 15.257812 11.675781 15.257812 12.414062 C 15.257812 13.152344 14.65625 13.753906 13.90625 13.753906 Z M 13.90625 9.476562 C 12.265625 9.476562 10.929688 10.796875 10.929688 12.417969 C 10.929688 13.761719 11.84375 14.898438 13.09375 15.246094 L 13.09375 24.394531 C 13.09375 24.835938 13.460938 25.195312 13.90625 25.195312 C 14.351562 25.195312 14.71875 24.835938 14.71875 24.394531 L 14.71875 15.246094 C 15.96875 14.898438 16.882812 13.761719 16.882812 12.417969 C 16.882812 10.796875 15.546875 9.476562 13.910156 9.476562 Z M 13.90625 9.476562 "/>
<path style=" stroke:none;fill-rule:nonzero;fill:rgb(99.607843%,99.607843%,99.607843%);fill-opacity:1;" d="M 12.496094 12.417969 L 12.605469 12.417969 L 12.605469 12.488281 L 12.613281 12.554688 L 12.621094 12.617188 L 12.632812 12.679688 L 12.664062 12.804688 L 12.6875 12.859375 L 12.710938 12.917969 L 12.738281 12.976562 L 12.765625 13.03125 L 12.796875 13.082031 L 12.828125 13.136719 L 12.863281 13.1875 L 12.90625 13.234375 L 12.945312 13.28125 L 12.992188 13.324219 L 13.035156 13.367188 L 13.082031 13.410156 L 13.128906 13.449219 L 13.179688 13.484375 L 13.289062 13.546875 L 13.34375 13.574219 L 13.402344 13.601562 L 13.460938 13.625 L 13.519531 13.644531 L 13.582031 13.664062 L 13.644531 13.675781 L 13.707031 13.691406 L 13.769531 13.699219 L 13.839844 13.703125 L 13.90625 13.703125 L 13.90625 13.816406 L 13.832031 13.816406 L 13.761719 13.808594 L 13.6875 13.800781 L 13.621094 13.789062 L 13.488281 13.757812 L 13.417969 13.734375 L 13.292969 13.679688 L 13.234375 13.648438 L 13.117188 13.578125 L 13.007812 13.5 L 12.957031 13.453125 L 12.910156 13.410156 L 12.863281 13.359375 L 12.820312 13.3125 L 12.777344 13.257812 L 12.738281 13.203125 L 12.703125 13.144531 L 12.664062 13.089844 L 12.632812 13.03125 L 12.578125 12.90625 L 12.558594 12.84375 L 12.519531 12.710938 L 12.507812 12.640625 L 12.5 12.570312 L 12.496094 12.5 Z M 13.902344 11.027344 L 13.902344 11.140625 L 13.832031 11.140625 L 13.765625 11.144531 L 13.703125 11.152344 L 13.640625 11.167969 L 13.578125 11.179688 L 13.511719 11.199219 L 13.453125 11.21875 L 13.394531 11.242188 L 13.335938 11.269531 L 13.285156 11.296875 L 13.175781 11.359375 L 13.074219 11.429688 L 13.03125 11.46875 L 12.941406 11.558594 L 12.898438 11.605469 L 12.859375 11.652344 L 12.824219 11.703125 L 12.792969 11.753906 L 12.761719 11.808594 L 12.734375 11.863281 L 12.707031 11.921875 L 12.683594 11.976562 L 12.660156 12.035156 L 12.628906 12.160156 L 12.605469 12.285156 L 12.601562 12.351562 L 12.601562 12.417969 L 12.488281 12.417969 L 12.488281 12.347656 L 12.503906 12.207031 L 12.515625 12.136719 L 12.574219 11.9375 L 12.628906 11.8125 L 12.660156 11.753906 L 12.695312 11.699219 L 12.734375 11.640625 L 12.773438 11.585938 L 12.816406 11.53125 L 12.859375 11.484375 L 12.90625 11.433594 L 12.953125 11.390625 L 13.003906 11.34375 L 13.113281 11.265625 L 13.230469 11.195312 L 13.289062 11.164062 L 13.414062 11.109375 L 13.480469 11.085938 L 13.550781 11.070312 L 13.617188 11.054688 L 13.683594 11.042969 L 13.757812 11.03125 L 13.828125 11.027344 Z M 15.308594 12.417969 L 15.195312 12.417969 L 15.195312 12.351562 L 15.191406 12.285156 L 15.183594 12.222656 L 15.167969 12.160156 L 15.15625 12.097656 L 15.136719 12.035156 L 15.113281 11.976562 L 15.09375 11.921875 L 15.066406 11.863281 L 15.039062 11.808594 L 15.007812 11.753906 L 14.976562 11.703125 L 14.9375 11.652344 L 14.859375 11.558594 L 14.8125 11.515625 L 14.765625 11.46875 L 14.722656 11.429688 L 14.621094 11.359375 L 14.570312 11.328125 L 14.515625 11.296875 L 14.460938 11.269531 L 14.402344 11.242188 L 14.34375 11.21875 L 14.285156 11.199219 L 14.222656 11.179688 L 14.160156 11.167969 L 14.09375 11.152344 L 14.03125 11.144531 L 13.964844 11.140625 L 13.898438 11.140625 L 13.898438 11.027344 L 13.96875 11.027344 L 14.042969 11.03125 L 14.113281 11.042969 L 14.179688 11.054688 L 14.25 11.070312 L 14.316406 11.085938 L 14.382812 11.109375 L 14.445312 11.136719 L 14.511719 11.164062 L 14.570312 11.195312 L 14.6875 11.265625 L 14.738281 11.304688 L 14.792969 11.34375 L 14.84375 11.390625 L 14.894531 11.433594 L 14.9375 11.484375 L 14.984375 11.53125 L 15.023438 11.585938 L 15.066406 11.640625 L 15.101562 11.699219 L 15.136719 11.753906 L 15.167969 11.8125 L 15.222656 11.9375 L 15.246094 12.003906 L 15.261719 12.070312 L 15.28125 12.136719 L 15.304688 12.277344 L 15.308594 12.347656 Z M 13.902344 13.808594 L 13.902344 13.699219 L 13.96875 13.699219 L 14.035156 13.695312 L 14.101562 13.683594 L 14.226562 13.660156 L 14.289062 13.640625 L 14.347656 13.617188 L 14.40625 13.597656 L 14.464844 13.570312 L 14.519531 13.542969 L 14.628906 13.480469 L 14.675781 13.445312 L 14.726562 13.40625 L 14.773438 13.363281 L 14.816406 13.320312 L 14.863281 13.277344 L 14.941406 13.183594 L 14.980469 13.132812 L 15.011719 13.078125 L 15.042969 13.027344 L 15.070312 12.972656 L 15.097656 12.914062 L 15.117188 12.855469 L 15.140625 12.796875 L 15.160156 12.734375 L 15.171875 12.671875 L 15.1875 12.609375 L 15.195312 12.546875 L 15.199219 12.480469 L 15.199219 12.414062 L 15.3125 12.414062 L 15.3125 12.488281 L 15.308594 12.558594 L 15.300781 12.628906 L 15.269531 12.761719 L 15.25 12.828125 L 15.226562 12.890625 L 15.171875 13.015625 L 15.140625 13.074219 L 15.070312 13.191406 L 15.027344 13.246094 L 14.988281 13.296875 L 14.941406 13.347656 L 14.898438 13.394531 L 14.847656 13.441406 L 14.800781 13.484375 L 14.746094 13.523438 L 14.691406 13.566406 L 14.574219 13.636719 L 14.515625 13.667969 L 14.453125 13.695312 L 14.386719 13.722656 L 14.253906 13.761719 L 14.183594 13.773438 L 14.117188 13.789062 L 14.046875 13.796875 L 13.972656 13.800781 L 13.902344 13.800781 Z M 10.984375 12.417969 L 10.871094 12.417969 L 10.875 12.261719 L 10.890625 12.113281 L 10.90625 11.960938 L 10.933594 11.8125 L 10.96875 11.671875 L 11.011719 11.527344 L 11.058594 11.390625 L 11.113281 11.25 L 11.175781 11.117188 L 11.246094 10.988281 L 11.316406 10.863281 L 11.398438 10.742188 L 11.484375 10.628906 L 11.574219 10.515625 L 11.667969 10.410156 L 11.769531 10.304688 L 11.871094 10.207031 L 11.980469 10.113281 L 12.09375 10.027344 L 12.210938 9.941406 L 12.332031 9.859375 L 12.457031 9.789062 L 12.589844 9.722656 L 12.722656 9.660156 L 12.863281 9.605469 L 13.003906 9.558594 L 13.148438 9.515625 L 13.292969 9.480469 L 13.441406 9.453125 L 13.746094 9.421875 L 13.90625 9.417969 L 13.90625 9.53125 L 13.757812 9.535156 L 13.609375 9.542969 L 13.464844 9.5625 L 13.320312 9.589844 L 13.179688 9.621094 L 13.039062 9.660156 L 12.90625 9.703125 L 12.773438 9.757812 L 12.644531 9.816406 L 12.515625 9.878906 L 12.394531 9.949219 L 12.277344 10.027344 L 12.164062 10.105469 L 12.058594 10.191406 L 11.949219 10.28125 L 11.84375 10.375 L 11.75 10.476562 L 11.660156 10.582031 L 11.574219 10.691406 L 11.492188 10.800781 L 11.417969 10.917969 L 11.34375 11.039062 L 11.28125 11.164062 L 11.222656 11.292969 L 11.167969 11.421875 L 11.125 11.554688 L 11.082031 11.691406 L 11.050781 11.832031 L 11.023438 11.972656 L 11.007812 12.117188 L 10.996094 12.261719 L 10.992188 12.410156 Z M 13.148438 15.246094 L 13.035156 15.246094 L 13.074219 15.300781 L 12.839844 15.222656 L 12.730469 15.179688 L 12.617188 15.128906 L 12.507812 15.078125 L 12.398438 15.019531 L 12.296875 14.957031 L 12.195312 14.890625 L 12.097656 14.816406 L 12.003906 14.746094 L 11.914062 14.671875 L 11.824219 14.589844 L 11.65625 14.421875 L 11.578125 14.332031 L 11.503906 14.238281 L 11.429688 14.140625 L 11.363281 14.042969 L 11.300781 13.941406 L 11.242188 13.835938 L 11.1875 13.730469 L 11.136719 13.617188 L 11.089844 13.507812 L 11.050781 13.394531 L 11.015625 13.28125 L 10.984375 13.160156 L 10.957031 13.039062 L 10.933594 12.917969 L 10.914062 12.792969 L 10.902344 12.667969 L 10.894531 12.542969 L 10.890625 12.414062 L 11 12.414062 L 11.007812 12.539062 L 11.015625 12.660156 L 11.027344 12.78125 L 11.046875 12.902344 L 11.070312 13.015625 L 11.097656 13.132812 L 11.128906 13.246094 L 11.164062 13.355469 L 11.203125 13.46875 L 11.25 13.574219 L 11.351562 13.785156 L 11.410156 13.886719 L 11.476562 13.984375 L 11.539062 14.078125 L 11.605469 14.171875 L 11.679688 14.261719 L 11.753906 14.34375 L 11.835938 14.429688 L 11.917969 14.511719 L 12.003906 14.585938 L 12.183594 14.734375 L 12.277344 14.800781 L 12.378906 14.863281 L 12.476562 14.921875 L 12.578125 14.972656 L 12.683594 15.027344 L 12.792969 15.078125 L 12.898438 15.121094 L 13.011719 15.160156 L 13.125 15.195312 L 13.167969 15.25 Z M 13.109375 15.191406 L 13.148438 15.207031 L 13.148438 15.246094 Z M 13.035156 24.394531 L 13.035156 15.246094 L 13.148438 15.246094 L 13.148438 24.394531 Z M 13.90625 25.140625 L 13.90625 25.253906 L 13.859375 25.253906 L 13.816406 25.25 L 13.769531 25.246094 L 13.726562 25.234375 L 13.683594 25.226562 L 13.644531 25.214844 L 13.605469 25.199219 L 13.5625 25.1875 L 13.523438 25.167969 L 13.488281 25.152344 L 13.449219 25.128906 L 13.414062 25.105469 L 13.378906 25.085938 L 13.285156 25.003906 L 13.203125 24.910156 L 13.132812 24.804688 L 13.117188 24.769531 L 13.097656 24.730469 L 13.085938 24.691406 L 13.070312 24.652344 L 13.058594 24.613281 L 13.050781 24.570312 L 13.039062 24.53125 L 13.035156 24.488281 L 13.03125 24.441406 L 13.03125 24.398438 L 13.144531 24.398438 L 13.144531 24.4375 L 13.152344 24.507812 L 13.15625 24.546875 L 13.167969 24.582031 L 13.175781 24.617188 L 13.1875 24.652344 L 13.203125 24.6875 L 13.214844 24.71875 L 13.253906 24.78125 L 13.269531 24.8125 L 13.292969 24.84375 L 13.316406 24.871094 L 13.335938 24.898438 L 13.363281 24.925781 L 13.445312 24.996094 L 13.539062 25.054688 L 13.570312 25.070312 L 13.605469 25.085938 L 13.710938 25.121094 L 13.746094 25.128906 L 13.785156 25.132812 L 13.820312 25.136719 L 13.859375 25.140625 Z M 14.660156 24.394531 L 14.773438 24.394531 L 14.773438 24.4375 L 14.765625 24.484375 L 14.761719 24.527344 L 14.746094 24.605469 L 14.730469 24.648438 L 14.71875 24.6875 L 14.703125 24.726562 L 14.6875 24.769531 L 14.667969 24.804688 L 14.621094 24.875 L 14.601562 24.910156 L 14.519531 25.003906 L 14.425781 25.085938 L 14.386719 25.105469 L 14.316406 25.152344 L 14.28125 25.167969 L 14.238281 25.1875 L 14.199219 25.199219 L 14.160156 25.214844 L 14.117188 25.226562 L 14.078125 25.234375 L 14.03125 25.246094 L 13.988281 25.25 L 13.941406 25.253906 L 13.898438 25.253906 L 13.898438 25.140625 L 13.9375 25.140625 L 14.015625 25.132812 L 14.050781 25.128906 L 14.085938 25.121094 L 14.121094 25.109375 L 14.160156 25.097656 L 14.195312 25.085938 L 14.257812 25.054688 L 14.351562 24.996094 L 14.433594 24.925781 L 14.460938 24.898438 L 14.484375 24.871094 L 14.503906 24.84375 L 14.527344 24.8125 L 14.546875 24.78125 L 14.5625 24.75 L 14.582031 24.71875 L 14.597656 24.6875 L 14.632812 24.582031 L 14.640625 24.546875 L 14.644531 24.507812 L 14.648438 24.472656 L 14.65625 24.4375 L 14.65625 24.398438 Z M 14.773438 15.246094 L 14.773438 24.394531 L 14.660156 24.394531 L 14.660156 15.246094 L 14.699219 15.191406 Z M 14.660156 15.246094 L 14.660156 15.207031 L 14.699219 15.191406 Z M 16.824219 12.417969 L 16.9375 12.417969 L 16.933594 12.546875 L 16.910156 12.796875 L 16.890625 12.921875 L 16.867188 13.042969 L 16.839844 13.164062 L 16.808594 13.285156 L 16.773438 13.398438 L 16.734375 13.511719 L 16.6875 13.625 L 16.640625 13.734375 L 16.585938 13.839844 L 16.527344 13.945312 L 16.464844 14.046875 L 16.324219 14.242188 L 16.246094 14.335938 L 16.164062 14.425781 L 16.085938 14.511719 L 16 14.59375 L 15.910156 14.675781 L 15.722656 14.824219 L 15.625 14.894531 L 15.523438 14.960938 L 15.421875 15.023438 L 15.3125 15.082031 L 15.09375 15.183594 L 14.980469 15.226562 L 14.863281 15.269531 L 14.746094 15.304688 L 14.714844 15.195312 L 14.824219 15.160156 L 14.9375 15.121094 L 15.046875 15.078125 L 15.15625 15.027344 L 15.257812 14.972656 L 15.363281 14.921875 L 15.460938 14.863281 L 15.5625 14.800781 L 15.65625 14.734375 L 15.835938 14.585938 L 15.921875 14.511719 L 16.003906 14.429688 L 16.085938 14.34375 L 16.160156 14.261719 L 16.234375 14.171875 L 16.300781 14.078125 L 16.363281 13.984375 L 16.425781 13.886719 L 16.484375 13.785156 L 16.539062 13.679688 L 16.589844 13.574219 L 16.632812 13.46875 L 16.675781 13.355469 L 16.710938 13.246094 L 16.742188 13.132812 L 16.769531 13.015625 L 16.792969 12.902344 L 16.824219 12.660156 L 16.832031 12.539062 L 16.835938 12.414062 Z M 13.90625 9.535156 L 13.90625 9.421875 L 14.0625 9.429688 L 14.21875 9.441406 L 14.371094 9.460938 L 14.519531 9.484375 L 14.667969 9.523438 L 14.8125 9.5625 L 14.953125 9.609375 L 15.09375 9.664062 L 15.226562 9.726562 L 15.359375 9.792969 L 15.484375 9.863281 L 15.605469 9.945312 L 15.722656 10.03125 L 15.835938 10.121094 L 15.945312 10.210938 L 16.148438 10.414062 L 16.242188 10.519531 L 16.332031 10.632812 L 16.417969 10.746094 L 16.5 10.867188 L 16.570312 10.992188 L 16.640625 11.121094 L 16.703125 11.257812 L 16.757812 11.394531 L 16.804688 11.53125 L 16.847656 11.675781 L 16.882812 11.816406 L 16.910156 11.964844 L 16.941406 12.269531 L 16.945312 12.425781 L 16.832031 12.425781 L 16.828125 12.277344 L 16.820312 12.128906 L 16.800781 11.988281 L 16.773438 11.84375 L 16.742188 11.707031 L 16.703125 11.566406 L 16.65625 11.433594 L 16.601562 11.304688 L 16.542969 11.175781 L 16.480469 11.050781 L 16.410156 10.929688 L 16.332031 10.816406 L 16.25 10.703125 L 16.164062 10.597656 L 16.074219 10.488281 L 15.980469 10.386719 L 15.875 10.292969 L 15.769531 10.203125 L 15.660156 10.121094 L 15.546875 10.039062 L 15.429688 9.964844 L 15.308594 9.890625 L 15.183594 9.828125 L 15.050781 9.773438 L 14.921875 9.71875 L 14.785156 9.671875 L 14.644531 9.632812 L 14.503906 9.601562 L 14.363281 9.574219 L 14.21875 9.558594 L 14.066406 9.546875 L 13.917969 9.542969 Z M 13.90625 9.535156 "/>
<path style=" stroke:none;fill-rule:nonzero;fill:rgb(92.941176%,41.176471%,36.078431%);fill-opacity:1;" d="M 10.148438 8.132812 C 9.832031 7.820312 9.320312 7.820312 9.003906 8.132812 C 6.488281 10.617188 6.488281 14.640625 9.003906 17.128906 C 9.320312 17.4375 9.832031 17.4375 10.148438 17.128906 C 10.464844 16.816406 10.464844 16.308594 10.148438 15.996094 C 8.269531 14.136719 8.269531 11.121094 10.148438 9.261719 C 10.464844 8.953125 10.464844 8.441406 10.148438 8.132812 Z M 10.148438 8.132812 "/>
<path style=" stroke:none;fill-rule:nonzero;fill:rgb(92.941176%,41.176471%,36.078431%);fill-opacity:1;" d="M 10.148438 8.132812 C 9.832031 7.820312 9.320312 7.820312 9.003906 8.132812 C 6.488281 10.617188 6.488281 14.640625 9.003906 17.128906 C 9.320312 17.4375 9.832031 17.4375 10.148438 17.128906 C 10.464844 16.816406 10.464844 16.308594 10.148438 15.996094 C 8.269531 14.136719 8.269531 11.121094 10.148438 9.261719 C 10.464844 8.953125 10.464844 8.441406 10.148438 8.132812 Z M 10.148438 8.132812 "/>
<path style=" stroke:none;fill-rule:nonzero;fill:rgb(99.607843%,99.607843%,99.607843%);fill-opacity:1;" d="M 9.042969 8.171875 L 8.964844 8.089844 L 8.996094 8.058594 L 9.027344 8.03125 L 9.0625 8.007812 L 9.097656 7.980469 L 9.132812 7.957031 L 9.171875 7.933594 L 9.207031 7.917969 L 9.246094 7.898438 L 9.289062 7.886719 L 9.328125 7.871094 L 9.367188 7.863281 L 9.410156 7.855469 L 9.449219 7.847656 L 9.492188 7.839844 L 9.53125 7.835938 L 9.613281 7.835938 L 9.652344 7.839844 L 9.695312 7.847656 L 9.773438 7.863281 L 9.816406 7.871094 L 9.855469 7.886719 L 9.898438 7.898438 L 9.9375 7.917969 L 9.972656 7.933594 L 10.007812 7.957031 L 10.046875 7.980469 L 10.082031 8.007812 L 10.117188 8.03125 L 10.148438 8.058594 L 10.179688 8.089844 L 10.097656 8.171875 L 10.074219 8.144531 L 10.046875 8.117188 L 10.015625 8.09375 L 9.980469 8.074219 L 9.949219 8.054688 L 9.917969 8.039062 L 9.886719 8.019531 L 9.851562 8.007812 L 9.816406 7.992188 L 9.78125 7.980469 L 9.742188 7.96875 L 9.707031 7.960938 L 9.636719 7.953125 L 9.597656 7.949219 L 9.527344 7.949219 L 9.492188 7.953125 L 9.453125 7.957031 L 9.417969 7.960938 L 9.382812 7.96875 L 9.347656 7.980469 L 9.308594 7.992188 L 9.273438 8.007812 L 9.238281 8.019531 L 9.207031 8.039062 L 9.175781 8.054688 L 9.113281 8.09375 L 9.082031 8.117188 L 9.027344 8.171875 Z M 9.042969 8.171875 Z M 9.042969 17.089844 L 8.964844 17.171875 L 8.734375 16.929688 L 8.515625 16.679688 L 8.3125 16.425781 L 8.128906 16.164062 L 7.957031 15.890625 L 7.800781 15.617188 L 7.660156 15.335938 L 7.535156 15.050781 L 7.421875 14.753906 L 7.324219 14.460938 L 7.246094 14.164062 L 7.175781 13.859375 L 7.125 13.554688 L 7.085938 13.25 L 7.066406 12.941406 L 7.054688 12.632812 L 7.066406 12.324219 L 7.085938 12.019531 L 7.125 11.710938 L 7.175781 11.40625 L 7.246094 11.105469 L 7.324219 10.804688 L 7.421875 10.511719 L 7.535156 10.222656 L 7.660156 9.9375 L 7.800781 9.65625 L 7.957031 9.378906 L 8.128906 9.105469 L 8.3125 8.84375 L 8.515625 8.589844 L 8.734375 8.339844 L 8.964844 8.101562 L 9.042969 8.179688 L 8.820312 8.417969 L 8.605469 8.660156 L 8.410156 8.910156 L 8.222656 9.167969 L 8.054688 9.4375 L 7.902344 9.710938 L 7.761719 9.984375 L 7.636719 10.265625 L 7.527344 10.550781 L 7.433594 10.839844 L 7.351562 11.136719 L 7.285156 11.433594 L 7.234375 11.734375 L 7.199219 12.03125 L 7.175781 12.335938 L 7.167969 12.636719 L 7.175781 12.941406 L 7.199219 13.246094 L 7.234375 13.542969 L 7.285156 13.839844 L 7.351562 14.140625 L 7.433594 14.433594 L 7.527344 14.722656 L 7.636719 15.007812 L 7.761719 15.289062 L 7.902344 15.566406 L 8.054688 15.839844 L 8.222656 16.105469 L 8.410156 16.363281 L 8.605469 16.613281 L 8.820312 16.859375 L 9.042969 17.097656 Z M 10.113281 17.089844 L 10.195312 17.171875 L 10.164062 17.203125 L 10.132812 17.230469 L 10.09375 17.257812 L 10.058594 17.277344 L 9.988281 17.324219 L 9.949219 17.339844 L 9.910156 17.359375 L 9.871094 17.371094 L 9.828125 17.386719 L 9.789062 17.394531 L 9.746094 17.402344 L 9.707031 17.414062 L 9.667969 17.417969 L 9.625 17.421875 L 9.542969 17.421875 L 9.464844 17.414062 L 9.421875 17.402344 L 9.34375 17.386719 L 9.300781 17.371094 L 9.261719 17.359375 L 9.21875 17.339844 L 9.183594 17.324219 L 9.113281 17.277344 L 9.074219 17.257812 L 9.039062 17.230469 L 9.007812 17.203125 L 8.976562 17.171875 L 9.058594 17.089844 L 9.113281 17.144531 L 9.144531 17.167969 L 9.238281 17.226562 L 9.269531 17.242188 L 9.304688 17.257812 L 9.34375 17.269531 L 9.378906 17.277344 L 9.414062 17.289062 L 9.449219 17.296875 L 9.484375 17.300781 L 9.523438 17.304688 L 9.558594 17.308594 L 9.628906 17.308594 L 9.667969 17.304688 L 9.738281 17.296875 L 9.773438 17.289062 L 9.8125 17.277344 L 9.847656 17.269531 L 9.882812 17.257812 L 9.917969 17.242188 L 9.949219 17.226562 L 9.980469 17.207031 L 10.015625 17.1875 L 10.046875 17.167969 L 10.078125 17.144531 L 10.132812 17.089844 Z M 10.195312 17.171875 Z M 10.113281 16.039062 L 10.195312 15.960938 L 10.253906 16.019531 L 10.28125 16.058594 L 10.300781 16.09375 L 10.347656 16.164062 L 10.367188 16.199219 L 10.382812 16.238281 L 10.398438 16.28125 L 10.410156 16.320312 L 10.417969 16.359375 L 10.429688 16.402344 L 10.4375 16.441406 L 10.445312 16.519531 L 10.445312 16.601562 L 10.4375 16.679688 L 10.429688 16.722656 L 10.417969 16.761719 L 10.410156 16.800781 L 10.398438 16.839844 L 10.382812 16.882812 L 10.367188 16.921875 L 10.347656 16.957031 L 10.300781 17.027344 L 10.277344 17.066406 L 10.25 17.101562 L 10.222656 17.132812 L 10.191406 17.164062 L 10.109375 17.082031 L 10.136719 17.054688 L 10.164062 17.023438 L 10.183594 16.992188 L 10.207031 16.960938 L 10.226562 16.929688 L 10.242188 16.898438 L 10.261719 16.867188 L 10.277344 16.832031 L 10.3125 16.726562 L 10.320312 16.691406 L 10.324219 16.65625 L 10.328125 16.617188 L 10.335938 16.582031 L 10.335938 16.511719 L 10.328125 16.476562 L 10.320312 16.40625 L 10.3125 16.371094 L 10.300781 16.332031 L 10.277344 16.261719 L 10.261719 16.226562 L 10.242188 16.195312 L 10.226562 16.164062 L 10.207031 16.132812 L 10.183594 16.101562 L 10.164062 16.070312 L 10.109375 16.015625 Z M 10.113281 16.039062 Z M 10.113281 9.230469 L 10.195312 9.3125 L 10.027344 9.484375 L 9.871094 9.667969 L 9.722656 9.855469 L 9.585938 10.046875 L 9.460938 10.242188 L 9.347656 10.445312 L 9.242188 10.648438 L 9.148438 10.859375 L 9.066406 11.074219 L 8.996094 11.292969 L 8.9375 11.511719 L 8.886719 11.734375 L 8.851562 11.957031 L 8.824219 12.179688 L 8.804688 12.40625 L 8.800781 12.632812 L 8.804688 12.859375 L 8.824219 13.089844 L 8.851562 13.3125 L 8.886719 13.535156 L 8.9375 13.757812 L 8.996094 13.976562 L 9.066406 14.195312 L 9.148438 14.40625 L 9.242188 14.617188 L 9.347656 14.824219 L 9.460938 15.023438 L 9.585938 15.21875 L 9.722656 15.410156 L 9.871094 15.597656 L 10.027344 15.78125 L 10.195312 15.953125 L 10.113281 16.035156 L 9.941406 15.855469 L 9.78125 15.667969 L 9.628906 15.476562 L 9.492188 15.28125 L 9.363281 15.078125 L 9.246094 14.871094 L 9.140625 14.660156 L 9.042969 14.449219 L 8.957031 14.230469 L 8.886719 14.007812 L 8.824219 13.785156 L 8.773438 13.554688 L 8.734375 13.328125 L 8.707031 13.097656 L 8.6875 12.867188 L 8.683594 12.632812 L 8.6875 12.402344 L 8.707031 12.167969 L 8.734375 11.9375 L 8.773438 11.710938 L 8.824219 11.484375 L 8.886719 11.261719 L 8.957031 11.039062 L 9.042969 10.820312 L 9.140625 10.605469 L 9.246094 10.394531 L 9.363281 10.191406 L 9.492188 9.984375 L 9.628906 9.789062 L 9.78125 9.597656 L 9.941406 9.410156 Z M 10.113281 9.230469 Z M 10.113281 8.179688 L 10.195312 8.101562 L 10.226562 8.132812 L 10.253906 8.164062 L 10.28125 8.199219 L 10.300781 8.234375 L 10.347656 8.304688 L 10.367188 8.339844 L 10.382812 8.378906 L 10.398438 8.421875 L 10.410156 8.460938 L 10.417969 8.5 L 10.429688 8.542969 L 10.4375 8.582031 L 10.445312 8.660156 L 10.445312 8.742188 L 10.4375 8.820312 L 10.429688 8.863281 L 10.417969 8.902344 L 10.410156 8.941406 L 10.398438 8.984375 L 10.367188 9.0625 L 10.347656 9.097656 L 10.300781 9.167969 L 10.28125 9.207031 L 10.253906 9.242188 L 10.226562 9.273438 L 10.195312 9.304688 L 10.113281 9.222656 L 10.167969 9.167969 L 10.191406 9.136719 L 10.25 9.042969 L 10.265625 9.015625 L 10.28125 8.984375 L 10.292969 8.945312 L 10.308594 8.910156 L 10.324219 8.839844 L 10.328125 8.804688 L 10.335938 8.769531 L 10.339844 8.734375 L 10.339844 8.660156 L 10.335938 8.625 L 10.328125 8.589844 L 10.324219 8.554688 L 10.308594 8.484375 L 10.292969 8.449219 L 10.28125 8.410156 L 10.25 8.347656 L 10.191406 8.253906 L 10.167969 8.226562 L 10.113281 8.171875 Z M 10.113281 8.179688 Z M 10.152344 8.140625 L 10.113281 8.179688 Z M 10.113281 8.179688 Z M 10.113281 8.179688 "/>
<path style=" stroke:none;fill-rule:nonzero;fill:rgb(92.941176%,41.176471%,36.078431%);fill-opacity:1;" d="M 18.808594 8.132812 C 18.492188 7.820312 17.976562 7.820312 17.664062 8.132812 C 17.347656 8.441406 17.347656 8.953125 17.664062 9.261719 C 19.539062 11.117188 19.539062 14.136719 17.664062 15.996094 C 17.347656 16.308594 17.347656 16.816406 17.664062 17.128906 C 17.976562 17.4375 18.492188 17.4375 18.808594 17.128906 C 21.316406 14.644531 21.316406 10.609375 18.808594 8.132812 Z M 18.808594 8.132812 "/>
<path style=" stroke:none;fill-rule:nonzero;fill:rgb(92.941176%,41.176471%,36.078431%);fill-opacity:1;" d="M 18.808594 8.132812 C 18.492188 7.820312 17.976562 7.820312 17.664062 8.132812 C 17.347656 8.441406 17.347656 8.953125 17.664062 9.261719 C 19.539062 11.117188 19.539062 14.136719 17.664062 15.996094 C 17.347656 16.308594 17.347656 16.816406 17.664062 17.128906 C 17.976562 17.4375 18.492188 17.4375 18.808594 17.128906 C 21.316406 14.644531 21.316406 10.609375 18.808594 8.132812 Z M 18.808594 8.132812 "/>
<path style=" stroke:none;fill-rule:nonzero;fill:rgb(99.607843%,99.607843%,99.607843%);fill-opacity:1;" d="M 17.699219 8.171875 L 17.617188 8.089844 L 17.648438 8.058594 L 17.679688 8.03125 L 17.714844 8.007812 L 17.753906 7.980469 L 17.824219 7.933594 L 17.859375 7.917969 L 17.902344 7.898438 L 17.941406 7.886719 L 17.984375 7.871094 L 18.0625 7.855469 L 18.105469 7.847656 L 18.144531 7.839844 L 18.1875 7.835938 L 18.265625 7.835938 L 18.308594 7.839844 L 18.386719 7.855469 L 18.429688 7.863281 L 18.46875 7.871094 L 18.511719 7.886719 L 18.550781 7.898438 L 18.589844 7.917969 L 18.628906 7.933594 L 18.699219 7.980469 L 18.734375 8.007812 L 18.773438 8.03125 L 18.808594 8.058594 L 18.839844 8.089844 L 18.757812 8.171875 L 18.703125 8.117188 L 18.671875 8.09375 L 18.609375 8.054688 L 18.578125 8.039062 L 18.546875 8.019531 L 18.511719 8.007812 L 18.472656 7.992188 L 18.402344 7.976562 L 18.367188 7.964844 L 18.328125 7.960938 L 18.257812 7.953125 L 18.1875 7.953125 L 18.148438 7.957031 L 18.078125 7.964844 L 18.042969 7.976562 L 18.003906 7.984375 L 17.96875 7.992188 L 17.933594 8.007812 L 17.898438 8.019531 L 17.867188 8.039062 L 17.832031 8.054688 L 17.769531 8.09375 L 17.738281 8.117188 L 17.683594 8.171875 Z M 17.699219 9.222656 L 17.617188 9.304688 L 17.585938 9.273438 L 17.558594 9.242188 L 17.53125 9.207031 L 17.503906 9.167969 L 17.480469 9.132812 L 17.441406 9.0625 L 17.421875 9.023438 L 17.410156 8.984375 L 17.398438 8.941406 L 17.386719 8.902344 L 17.378906 8.863281 L 17.371094 8.820312 L 17.363281 8.78125 L 17.359375 8.742188 L 17.359375 8.660156 L 17.363281 8.621094 L 17.378906 8.542969 L 17.386719 8.5 L 17.410156 8.421875 L 17.421875 8.378906 L 17.441406 8.339844 L 17.480469 8.269531 L 17.503906 8.234375 L 17.558594 8.164062 L 17.585938 8.132812 L 17.617188 8.101562 L 17.699219 8.179688 L 17.644531 8.234375 L 17.597656 8.296875 L 17.582031 8.328125 L 17.5625 8.359375 L 17.53125 8.421875 L 17.507812 8.492188 L 17.492188 8.5625 L 17.488281 8.597656 L 17.480469 8.632812 L 17.476562 8.671875 L 17.476562 8.742188 L 17.480469 8.777344 L 17.488281 8.8125 L 17.492188 8.847656 L 17.5 8.882812 L 17.507812 8.921875 L 17.53125 8.992188 L 17.5625 9.054688 L 17.582031 9.085938 L 17.597656 9.117188 L 17.644531 9.179688 L 17.671875 9.207031 L 17.699219 9.230469 Z M 17.699219 9.222656 Z M 17.699219 16.03125 L 17.617188 15.949219 L 17.785156 15.777344 L 17.941406 15.59375 L 18.089844 15.40625 L 18.226562 15.214844 L 18.351562 15.019531 L 18.464844 14.816406 L 18.570312 14.613281 L 18.660156 14.402344 L 18.742188 14.1875 L 18.8125 13.972656 L 18.871094 13.753906 L 18.921875 13.53125 L 18.957031 13.304688 L 18.984375 13.082031 L 19.003906 12.855469 L 19.007812 12.628906 L 19.003906 12.402344 L 18.984375 12.175781 L 18.957031 11.953125 L 18.921875 11.730469 L 18.871094 11.503906 L 18.8125 11.289062 L 18.742188 11.070312 L 18.660156 10.855469 L 18.570312 10.644531 L 18.464844 10.441406 L 18.351562 10.238281 L 18.226562 10.042969 L 18.089844 9.851562 L 17.941406 9.664062 L 17.785156 9.480469 L 17.617188 9.308594 L 17.699219 9.226562 L 17.871094 9.40625 L 18.03125 9.59375 L 18.179688 9.785156 L 18.320312 9.980469 L 18.449219 10.183594 L 18.566406 10.390625 L 18.667969 10.601562 L 18.761719 10.816406 L 18.847656 11.03125 L 18.921875 11.257812 L 18.984375 11.480469 L 19.035156 11.707031 L 19.074219 11.933594 L 19.101562 12.164062 L 19.121094 12.398438 L 19.125 12.628906 L 19.121094 12.859375 L 19.101562 13.09375 L 19.074219 13.324219 L 19.035156 13.550781 L 18.984375 13.777344 L 18.921875 14.003906 L 18.847656 14.226562 L 18.761719 14.445312 L 18.667969 14.65625 L 18.566406 14.867188 L 18.449219 15.078125 L 18.320312 15.277344 L 18.179688 15.472656 L 18.03125 15.664062 L 17.871094 15.851562 Z M 17.699219 17.085938 L 17.617188 17.167969 L 17.585938 17.136719 L 17.53125 17.066406 L 17.503906 17.027344 L 17.480469 16.992188 L 17.441406 16.921875 L 17.421875 16.882812 L 17.410156 16.839844 L 17.386719 16.761719 L 17.378906 16.722656 L 17.371094 16.679688 L 17.363281 16.640625 L 17.359375 16.601562 L 17.359375 16.519531 L 17.363281 16.480469 L 17.378906 16.402344 L 17.386719 16.359375 L 17.410156 16.28125 L 17.421875 16.238281 L 17.441406 16.199219 L 17.480469 16.128906 L 17.503906 16.09375 L 17.53125 16.058594 L 17.558594 16.019531 L 17.617188 15.960938 L 17.699219 16.039062 L 17.644531 16.09375 L 17.597656 16.15625 L 17.582031 16.1875 L 17.5625 16.21875 L 17.546875 16.25 L 17.53125 16.285156 L 17.507812 16.355469 L 17.492188 16.425781 L 17.488281 16.460938 L 17.480469 16.5 L 17.476562 16.535156 L 17.476562 16.605469 L 17.480469 16.640625 L 17.488281 16.675781 L 17.492188 16.710938 L 17.5 16.75 L 17.507812 16.785156 L 17.53125 16.855469 L 17.546875 16.890625 L 17.5625 16.921875 L 17.582031 16.953125 L 17.597656 16.984375 L 17.644531 17.046875 L 17.699219 17.101562 Z M 17.617188 17.167969 Z M 18.761719 17.085938 L 18.84375 17.167969 L 18.8125 17.199219 L 18.78125 17.226562 L 18.746094 17.25 L 18.707031 17.277344 L 18.636719 17.324219 L 18.601562 17.339844 L 18.558594 17.359375 L 18.519531 17.371094 L 18.480469 17.386719 L 18.4375 17.394531 L 18.398438 17.402344 L 18.355469 17.414062 L 18.277344 17.421875 L 18.195312 17.421875 L 18.152344 17.417969 L 18.113281 17.414062 L 18.074219 17.402344 L 18.03125 17.394531 L 17.992188 17.386719 L 17.953125 17.371094 L 17.910156 17.359375 L 17.871094 17.339844 L 17.832031 17.324219 L 17.761719 17.277344 L 17.726562 17.257812 L 17.65625 17.203125 L 17.625 17.171875 L 17.707031 17.089844 L 17.761719 17.144531 L 17.792969 17.167969 L 17.886719 17.226562 L 17.917969 17.242188 L 17.957031 17.257812 L 17.992188 17.269531 L 18.027344 17.277344 L 18.0625 17.289062 L 18.101562 17.296875 L 18.207031 17.308594 L 18.28125 17.308594 L 18.386719 17.296875 L 18.425781 17.289062 L 18.460938 17.277344 L 18.496094 17.269531 L 18.53125 17.257812 L 18.570312 17.242188 L 18.601562 17.226562 L 18.695312 17.167969 L 18.726562 17.144531 L 18.757812 17.117188 L 18.785156 17.089844 Z M 18.84375 17.167969 L 18.792969 17.214844 Z M 18.761719 8.171875 L 18.84375 8.089844 L 19.074219 8.332031 L 19.289062 8.582031 L 19.488281 8.835938 L 19.675781 9.097656 L 19.84375 9.371094 L 20.003906 9.648438 L 20.144531 9.925781 L 20.269531 10.210938 L 20.382812 10.503906 L 20.476562 10.796875 L 20.558594 11.09375 L 20.625 11.398438 L 20.679688 11.703125 L 20.714844 12.007812 L 20.738281 12.316406 L 20.746094 12.625 L 20.738281 12.933594 L 20.714844 13.238281 L 20.679688 13.546875 L 20.625 13.851562 L 20.558594 14.152344 L 20.476562 14.453125 L 20.382812 14.746094 L 20.269531 15.039062 L 20.144531 15.324219 L 20.003906 15.605469 L 19.84375 15.882812 L 19.675781 16.15625 L 19.488281 16.417969 L 19.289062 16.671875 L 19.074219 16.921875 L 18.84375 17.164062 L 18.761719 17.082031 L 18.988281 16.847656 L 19.199219 16.601562 L 19.398438 16.351562 L 19.578125 16.09375 L 19.746094 15.824219 L 19.898438 15.554688 L 20.039062 15.277344 L 20.160156 14.996094 L 20.269531 14.710938 L 20.363281 14.421875 L 20.445312 14.125 L 20.511719 13.828125 L 20.5625 13.53125 L 20.597656 13.226562 L 20.621094 12.921875 L 20.628906 12.621094 L 20.621094 12.316406 L 20.597656 12.015625 L 20.5625 11.710938 L 20.511719 11.410156 L 20.445312 11.113281 L 20.363281 10.820312 L 20.269531 10.53125 L 20.160156 10.242188 L 20.039062 9.964844 L 19.898438 9.6875 L 19.746094 9.414062 L 19.578125 9.148438 L 19.398438 8.890625 L 19.199219 8.640625 L 18.988281 8.394531 L 18.761719 8.15625 Z M 18.84375 8.089844 Z M 18.804688 8.132812 L 18.761719 8.171875 Z M 18.84375 8.089844 Z M 18.84375 8.089844 "/>
<path style=" stroke:none;fill-rule:nonzero;fill:rgb(92.941176%,41.176471%,36.078431%);fill-opacity:1;" d="M 7.703125 6.847656 C 8.019531 6.535156 8.019531 6.027344 7.703125 5.714844 C 7.382812 5.402344 6.875 5.402344 6.554688 5.714844 C 2.695312 9.53125 2.695312 15.734375 6.554688 19.550781 C 6.871094 19.863281 7.382812 19.863281 7.703125 19.550781 C 8.019531 19.238281 8.019531 18.730469 7.703125 18.417969 C 4.476562 15.226562 4.476562 10.039062 7.703125 6.851562 Z M 7.703125 6.847656 "/>
<path style=" stroke:none;fill-rule:nonzero;fill:rgb(92.941176%,41.176471%,36.078431%);fill-opacity:1;" d="M 7.703125 6.847656 C 8.019531 6.535156 8.019531 6.027344 7.703125 5.714844 C 7.382812 5.402344 6.875 5.402344 6.554688 5.714844 C 2.695312 9.53125 2.695312 15.734375 6.554688 19.550781 C 6.871094 19.863281 7.382812 19.863281 7.703125 19.550781 C 8.019531 19.238281 8.019531 18.730469 7.703125 18.417969 C 4.476562 15.226562 4.476562 10.039062 7.703125 6.851562 Z M 7.703125 6.847656 "/>
<path style=" stroke:none;fill-rule:nonzero;fill:rgb(99.607843%,99.607843%,99.607843%);fill-opacity:1;" d="M 7.664062 5.75 L 7.746094 5.671875 L 7.777344 5.703125 L 7.804688 5.734375 L 7.859375 5.804688 L 7.878906 5.839844 L 7.902344 5.875 L 7.921875 5.910156 L 7.9375 5.949219 L 7.953125 5.992188 L 7.976562 6.070312 L 7.984375 6.113281 L 7.992188 6.152344 L 7.996094 6.191406 L 8.003906 6.230469 L 8.003906 6.3125 L 7.996094 6.351562 L 7.992188 6.390625 L 7.984375 6.433594 L 7.976562 6.472656 L 7.964844 6.511719 L 7.953125 6.554688 L 7.921875 6.632812 L 7.902344 6.667969 L 7.878906 6.703125 L 7.859375 6.738281 L 7.832031 6.777344 L 7.804688 6.8125 L 7.777344 6.84375 L 7.746094 6.875 L 7.664062 6.792969 L 7.71875 6.738281 L 7.742188 6.707031 L 7.761719 6.679688 L 7.800781 6.617188 L 7.816406 6.585938 L 7.832031 6.546875 L 7.855469 6.476562 L 7.871094 6.40625 L 7.878906 6.335938 L 7.886719 6.300781 L 7.886719 6.226562 L 7.878906 6.191406 L 7.871094 6.121094 L 7.855469 6.050781 L 7.84375 6.011719 L 7.832031 5.976562 L 7.816406 5.941406 L 7.800781 5.910156 L 7.742188 5.816406 L 7.71875 5.785156 L 7.691406 5.757812 L 7.664062 5.734375 Z M 7.746094 5.671875 L 7.703125 5.628906 Z M 6.59375 5.75 L 6.515625 5.671875 L 6.546875 5.640625 L 6.578125 5.613281 L 6.648438 5.558594 L 6.6875 5.535156 L 6.722656 5.515625 L 6.761719 5.496094 L 6.804688 5.480469 L 6.84375 5.464844 L 6.882812 5.453125 L 6.925781 5.441406 L 7.003906 5.425781 L 7.046875 5.421875 L 7.085938 5.417969 L 7.167969 5.417969 L 7.207031 5.421875 L 7.25 5.425781 L 7.289062 5.433594 L 7.332031 5.441406 L 7.410156 5.464844 L 7.453125 5.480469 L 7.492188 5.496094 L 7.527344 5.515625 L 7.566406 5.535156 L 7.601562 5.558594 L 7.671875 5.613281 L 7.710938 5.640625 L 7.742188 5.671875 L 7.660156 5.75 L 7.605469 5.695312 L 7.574219 5.675781 L 7.542969 5.652344 L 7.511719 5.632812 L 7.480469 5.617188 L 7.449219 5.597656 L 7.410156 5.585938 L 7.375 5.570312 L 7.304688 5.554688 L 7.265625 5.546875 L 7.230469 5.539062 L 7.160156 5.53125 L 7.085938 5.53125 L 7.015625 5.539062 L 6.980469 5.546875 L 6.941406 5.554688 L 6.871094 5.570312 L 6.835938 5.585938 L 6.796875 5.597656 L 6.765625 5.617188 L 6.734375 5.632812 L 6.703125 5.652344 L 6.671875 5.675781 L 6.640625 5.695312 L 6.585938 5.75 Z M 6.59375 19.507812 L 6.515625 19.585938 L 6.164062 19.222656 L 5.832031 18.84375 L 5.527344 18.449219 L 5.242188 18.046875 L 4.980469 17.628906 L 4.742188 17.207031 L 4.527344 16.773438 L 4.332031 16.332031 L 4.160156 15.886719 L 4.011719 15.433594 L 3.886719 14.972656 L 3.78125 14.511719 L 3.699219 14.042969 L 3.640625 13.574219 L 3.605469 13.101562 L 3.597656 12.628906 L 3.605469 12.15625 L 3.640625 11.683594 L 3.699219 11.214844 L 3.78125 10.746094 L 3.886719 10.285156 L 4.011719 9.824219 L 4.160156 9.371094 L 4.332031 8.925781 L 4.527344 8.484375 L 4.742188 8.050781 L 4.980469 7.628906 L 5.242188 7.210938 L 5.527344 6.808594 L 5.832031 6.414062 L 6.164062 6.035156 L 6.515625 5.671875 L 6.59375 5.75 L 6.25 6.113281 L 5.921875 6.484375 L 5.621094 6.875 L 5.339844 7.269531 L 5.085938 7.679688 L 4.851562 8.101562 L 4.636719 8.527344 L 4.449219 8.964844 L 4.28125 9.40625 L 4.136719 9.855469 L 4.015625 10.3125 L 3.917969 10.769531 L 3.839844 11.234375 L 3.785156 11.699219 L 3.75 12.164062 L 3.742188 12.632812 L 3.75 13.101562 L 3.785156 13.570312 L 3.839844 14.035156 L 3.917969 14.496094 L 4.015625 14.957031 L 4.136719 15.410156 L 4.28125 15.859375 L 4.449219 16.300781 L 4.636719 16.738281 L 4.851562 17.167969 L 5.085938 17.585938 L 5.339844 17.996094 L 5.621094 18.394531 L 5.921875 18.78125 L 6.25 19.15625 L 6.59375 19.515625 Z M 7.664062 19.507812 L 7.746094 19.585938 L 7.714844 19.617188 L 7.679688 19.644531 L 7.640625 19.671875 L 7.605469 19.699219 L 7.570312 19.722656 L 7.535156 19.742188 L 7.457031 19.78125 L 7.417969 19.792969 L 7.375 19.804688 L 7.335938 19.816406 L 7.292969 19.824219 L 7.253906 19.832031 L 7.214844 19.835938 L 7.171875 19.84375 L 7.089844 19.84375 L 7.050781 19.835938 L 7.011719 19.832031 L 6.96875 19.824219 L 6.929688 19.816406 L 6.886719 19.804688 L 6.808594 19.78125 L 6.765625 19.761719 L 6.726562 19.742188 L 6.691406 19.722656 L 6.652344 19.699219 L 6.582031 19.644531 L 6.550781 19.617188 L 6.519531 19.585938 L 6.601562 19.507812 L 6.628906 19.535156 L 6.652344 19.5625 L 6.6875 19.582031 L 6.71875 19.605469 L 6.75 19.625 L 6.78125 19.640625 L 6.8125 19.660156 L 6.847656 19.671875 L 6.882812 19.6875 L 6.921875 19.695312 L 7.027344 19.71875 L 7.066406 19.722656 L 7.101562 19.726562 L 7.171875 19.726562 L 7.207031 19.722656 L 7.246094 19.71875 L 7.351562 19.695312 L 7.390625 19.6875 L 7.425781 19.671875 L 7.460938 19.660156 L 7.492188 19.640625 L 7.523438 19.625 L 7.554688 19.605469 L 7.585938 19.582031 L 7.621094 19.5625 L 7.644531 19.535156 L 7.671875 19.507812 Z M 7.746094 19.585938 L 7.691406 19.640625 Z M 7.664062 18.457031 L 7.746094 18.375 L 7.777344 18.40625 L 7.804688 18.4375 L 7.832031 18.472656 L 7.855469 18.507812 L 7.875 18.542969 L 7.898438 18.582031 L 7.917969 18.617188 L 7.949219 18.695312 L 7.960938 18.734375 L 7.972656 18.777344 L 7.988281 18.855469 L 7.992188 18.898438 L 7.996094 18.9375 L 7.996094 19.015625 L 7.992188 19.058594 L 7.988281 19.097656 L 7.972656 19.175781 L 7.960938 19.21875 L 7.949219 19.257812 L 7.933594 19.296875 L 7.917969 19.339844 L 7.898438 19.375 L 7.875 19.410156 L 7.855469 19.445312 L 7.832031 19.480469 L 7.804688 19.515625 L 7.777344 19.546875 L 7.746094 19.578125 L 7.664062 19.5 L 7.71875 19.445312 L 7.742188 19.414062 L 7.800781 19.320312 L 7.832031 19.257812 L 7.855469 19.1875 L 7.871094 19.117188 L 7.875 19.078125 L 7.878906 19.042969 L 7.886719 19.007812 L 7.886719 18.9375 L 7.878906 18.902344 L 7.875 18.867188 L 7.871094 18.828125 L 7.855469 18.757812 L 7.832031 18.6875 L 7.800781 18.625 L 7.742188 18.53125 L 7.71875 18.5 L 7.664062 18.445312 Z M 7.664062 6.808594 L 7.746094 6.886719 L 7.453125 7.191406 L 7.183594 7.503906 L 6.929688 7.828125 L 6.695312 8.164062 L 6.476562 8.503906 L 6.28125 8.851562 L 6.097656 9.210938 L 5.941406 9.574219 L 5.800781 9.945312 L 5.679688 10.320312 L 5.578125 10.699219 L 5.492188 11.082031 L 5.421875 11.46875 L 5.378906 11.859375 L 5.351562 12.246094 L 5.339844 12.632812 L 5.351562 13.019531 L 5.378906 13.410156 L 5.421875 13.796875 L 5.492188 14.183594 L 5.578125 14.566406 L 5.679688 14.945312 L 5.800781 15.320312 L 5.941406 15.691406 L 6.097656 16.058594 L 6.28125 16.414062 L 6.476562 16.765625 L 6.695312 17.109375 L 6.929688 17.445312 L 7.183594 17.769531 L 7.453125 18.082031 L 7.746094 18.382812 L 7.664062 18.464844 L 7.371094 18.15625 L 7.097656 17.839844 L 6.839844 17.511719 L 6.601562 17.171875 L 6.378906 16.824219 L 6.179688 16.46875 L 6 16.105469 L 5.835938 15.734375 L 5.695312 15.363281 L 5.570312 14.984375 L 5.46875 14.597656 L 5.382812 14.210938 L 5.316406 13.820312 L 5.265625 13.425781 L 5.238281 13.035156 L 5.230469 12.636719 L 5.238281 12.242188 L 5.265625 11.847656 L 5.316406 11.457031 L 5.382812 11.0625 L 5.46875 10.675781 L 5.570312 10.292969 L 5.695312 9.914062 L 5.835938 9.539062 L 6 9.167969 L 6.179688 8.808594 L 6.378906 8.453125 L 6.601562 8.105469 L 6.839844 7.765625 L 7.097656 7.4375 L 7.371094 7.117188 L 7.664062 6.8125 Z M 7.746094 6.886719 Z M 7.703125 6.847656 L 7.664062 6.808594 Z M 7.746094 6.886719 Z M 7.746094 6.886719 "/>
<path style=" stroke:none;fill-rule:nonzero;fill:rgb(92.941176%,41.176471%,36.078431%);fill-opacity:1;" d="M 21.253906 5.710938 C 20.9375 5.398438 20.421875 5.398438 20.105469 5.710938 C 19.792969 6.023438 19.792969 6.53125 20.105469 6.84375 C 23.332031 10.03125 23.332031 15.21875 20.105469 18.410156 C 19.792969 18.722656 19.792969 19.230469 20.105469 19.542969 C 20.421875 19.855469 20.9375 19.855469 21.253906 19.542969 C 25.113281 15.726562 25.113281 9.523438 21.253906 5.707031 Z M 21.253906 5.710938 "/>
<path style=" stroke:none;fill-rule:nonzero;fill:rgb(92.941176%,41.176471%,36.078431%);fill-opacity:1;" d="M 21.253906 5.710938 C 20.9375 5.398438 20.421875 5.398438 20.105469 5.710938 C 19.792969 6.023438 19.792969 6.53125 20.105469 6.84375 C 23.332031 10.03125 23.332031 15.21875 20.105469 18.410156 C 19.792969 18.722656 19.792969 19.230469 20.105469 19.542969 C 20.421875 19.855469 20.9375 19.855469 21.253906 19.542969 C 25.113281 15.726562 25.113281 9.523438 21.253906 5.707031 Z M 21.253906 5.710938 "/>
<path style=" stroke:none;fill-rule:nonzero;fill:rgb(99.607843%,99.607843%,99.607843%);fill-opacity:1;" d="M 20.148438 5.75 L 20.066406 5.671875 L 20.097656 5.640625 L 20.128906 5.613281 L 20.164062 5.585938 L 20.203125 5.558594 L 20.238281 5.535156 L 20.308594 5.496094 L 20.351562 5.480469 L 20.390625 5.464844 L 20.429688 5.453125 L 20.472656 5.441406 L 20.511719 5.433594 L 20.554688 5.425781 L 20.632812 5.417969 L 20.714844 5.417969 L 20.757812 5.421875 L 20.796875 5.425781 L 20.835938 5.433594 L 20.878906 5.441406 L 20.917969 5.453125 L 20.960938 5.464844 L 21.039062 5.496094 L 21.078125 5.515625 L 21.113281 5.535156 L 21.148438 5.558594 L 21.183594 5.585938 L 21.222656 5.613281 L 21.253906 5.640625 L 21.285156 5.671875 L 21.203125 5.75 L 21.148438 5.695312 L 21.117188 5.675781 L 21.085938 5.652344 L 21.054688 5.632812 L 21.023438 5.617188 L 20.992188 5.597656 L 20.960938 5.585938 L 20.921875 5.570312 L 20.816406 5.546875 L 20.777344 5.539062 L 20.707031 5.53125 L 20.632812 5.53125 L 20.5625 5.539062 L 20.492188 5.554688 L 20.453125 5.5625 L 20.417969 5.570312 L 20.382812 5.585938 L 20.351562 5.597656 L 20.320312 5.617188 L 20.289062 5.632812 L 20.253906 5.652344 L 20.222656 5.675781 L 20.191406 5.695312 L 20.136719 5.75 Z M 20.148438 5.75 Z M 20.148438 6.808594 L 20.066406 6.886719 L 20.035156 6.855469 L 20.007812 6.824219 L 19.953125 6.753906 L 19.929688 6.71875 L 19.890625 6.648438 L 19.871094 6.605469 L 19.859375 6.566406 L 19.84375 6.527344 L 19.835938 6.484375 L 19.828125 6.445312 L 19.816406 6.40625 L 19.8125 6.367188 L 19.808594 6.324219 L 19.808594 6.246094 L 19.8125 6.207031 L 19.816406 6.164062 L 19.828125 6.125 L 19.835938 6.085938 L 19.84375 6.042969 L 19.859375 6.003906 L 19.871094 5.964844 L 19.890625 5.925781 L 19.910156 5.890625 L 19.929688 5.851562 L 19.953125 5.816406 L 20.007812 5.746094 L 20.035156 5.714844 L 20.066406 5.683594 L 20.148438 5.765625 L 20.121094 5.789062 L 20.09375 5.816406 L 20.046875 5.878906 L 20.03125 5.910156 L 20.011719 5.941406 L 19.996094 5.972656 L 19.980469 6.007812 L 19.96875 6.042969 L 19.953125 6.082031 L 19.945312 6.117188 L 19.933594 6.152344 L 19.921875 6.257812 L 19.921875 6.328125 L 19.925781 6.367188 L 19.933594 6.4375 L 19.945312 6.472656 L 19.953125 6.507812 L 19.96875 6.542969 L 19.980469 6.578125 L 19.996094 6.617188 L 20.011719 6.648438 L 20.03125 6.679688 L 20.046875 6.707031 L 20.09375 6.769531 L 20.121094 6.800781 L 20.148438 6.828125 Z M 20.148438 18.457031 L 20.066406 18.375 L 20.359375 18.070312 L 20.628906 17.761719 L 20.882812 17.433594 L 21.117188 17.101562 L 21.332031 16.757812 L 21.53125 16.40625 L 21.710938 16.046875 L 21.871094 15.683594 L 22.011719 15.3125 L 22.132812 14.9375 L 22.234375 14.558594 L 22.320312 14.175781 L 22.390625 13.789062 L 22.433594 13.398438 L 22.460938 13.011719 L 22.46875 12.625 L 22.460938 12.238281 L 22.433594 11.847656 L 22.390625 11.460938 L 22.320312 11.074219 L 22.234375 10.691406 L 22.132812 10.3125 L 22.011719 9.9375 L 21.871094 9.566406 L 21.710938 9.199219 L 21.53125 8.84375 L 21.332031 8.496094 L 21.117188 8.152344 L 20.882812 7.820312 L 20.628906 7.492188 L 20.359375 7.179688 L 20.066406 6.878906 L 20.148438 6.796875 L 20.441406 7.105469 L 20.714844 7.421875 L 20.972656 7.753906 L 21.210938 8.089844 L 21.429688 8.4375 L 21.625 8.796875 L 21.808594 9.15625 L 21.96875 9.527344 L 22.113281 9.902344 L 22.234375 10.28125 L 22.339844 10.664062 L 22.425781 11.050781 L 22.492188 11.441406 L 22.542969 11.835938 L 22.570312 12.226562 L 22.578125 12.625 L 22.570312 13.019531 L 22.542969 13.414062 L 22.492188 13.804688 L 22.425781 14.199219 L 22.339844 14.585938 L 22.234375 14.96875 L 22.113281 15.347656 L 21.96875 15.722656 L 21.808594 16.09375 L 21.625 16.453125 L 21.429688 16.808594 L 21.210938 17.160156 L 20.972656 17.496094 L 20.714844 17.828125 L 20.441406 18.144531 L 20.148438 18.449219 Z M 20.148438 18.457031 Z M 20.148438 19.507812 L 20.066406 19.585938 L 20.035156 19.554688 L 20.007812 19.523438 L 19.953125 19.453125 L 19.929688 19.417969 L 19.890625 19.347656 L 19.871094 19.308594 L 19.859375 19.265625 L 19.84375 19.226562 L 19.835938 19.1875 L 19.828125 19.144531 L 19.816406 19.105469 L 19.808594 19.027344 L 19.808594 18.945312 L 19.816406 18.867188 L 19.828125 18.824219 L 19.84375 18.746094 L 19.859375 18.707031 L 19.871094 18.664062 L 19.890625 18.625 L 19.929688 18.554688 L 19.953125 18.519531 L 19.980469 18.480469 L 20.007812 18.445312 L 20.035156 18.414062 L 20.066406 18.382812 L 20.148438 18.464844 L 20.09375 18.519531 L 20.046875 18.582031 L 20.03125 18.613281 L 20.011719 18.644531 L 19.980469 18.707031 L 19.96875 18.742188 L 19.953125 18.777344 L 19.945312 18.8125 L 19.933594 18.847656 L 19.921875 18.953125 L 19.921875 19.027344 L 19.933594 19.132812 L 19.945312 19.167969 L 19.953125 19.203125 L 19.96875 19.238281 L 19.980469 19.277344 L 20.011719 19.339844 L 20.03125 19.371094 L 20.046875 19.402344 L 20.09375 19.464844 L 20.121094 19.488281 L 20.148438 19.515625 Z M 20.148438 19.507812 L 20.09375 19.453125 Z M 21.210938 19.507812 L 21.292969 19.585938 L 21.261719 19.617188 L 21.230469 19.644531 L 21.195312 19.671875 L 21.15625 19.699219 L 21.121094 19.722656 L 21.050781 19.761719 L 21.007812 19.78125 L 20.96875 19.792969 L 20.925781 19.804688 L 20.886719 19.816406 L 20.847656 19.824219 L 20.804688 19.832031 L 20.765625 19.835938 L 20.726562 19.84375 L 20.644531 19.84375 L 20.601562 19.835938 L 20.5625 19.832031 L 20.523438 19.824219 L 20.480469 19.816406 L 20.441406 19.804688 L 20.398438 19.792969 L 20.359375 19.78125 L 20.28125 19.742188 L 20.246094 19.722656 L 20.210938 19.699219 L 20.175781 19.671875 L 20.136719 19.644531 L 20.105469 19.617188 L 20.074219 19.585938 L 20.15625 19.507812 L 20.210938 19.5625 L 20.242188 19.582031 L 20.273438 19.605469 L 20.304688 19.625 L 20.335938 19.640625 L 20.367188 19.660156 L 20.398438 19.671875 L 20.4375 19.6875 L 20.542969 19.710938 L 20.582031 19.71875 L 20.652344 19.726562 L 20.726562 19.726562 L 20.796875 19.71875 L 20.867188 19.703125 L 20.90625 19.695312 L 20.941406 19.6875 L 20.976562 19.671875 L 21.007812 19.660156 L 21.039062 19.640625 L 21.070312 19.625 L 21.105469 19.605469 L 21.136719 19.582031 L 21.167969 19.5625 L 21.222656 19.507812 Z M 21.210938 5.75 L 21.292969 5.671875 L 21.644531 6.035156 L 21.972656 6.414062 L 22.28125 6.808594 L 22.566406 7.210938 L 22.828125 7.628906 L 23.066406 8.050781 L 23.28125 8.484375 L 23.476562 8.925781 L 23.648438 9.371094 L 23.796875 9.824219 L 23.921875 10.285156 L 24.027344 10.746094 L 24.105469 11.214844 L 24.164062 11.683594 L 24.203125 12.15625 L 24.214844 12.628906 L 24.203125 13.101562 L 24.164062 13.574219 L 24.105469 14.042969 L 24.027344 14.511719 L 23.921875 14.972656 L 23.796875 15.433594 L 23.648438 15.886719 L 23.476562 16.332031 L 23.28125 16.773438 L 23.066406 17.207031 L 22.828125 17.628906 L 22.566406 18.046875 L 22.28125 18.449219 L 21.972656 18.84375 L 21.644531 19.222656 L 21.292969 19.585938 L 21.210938 19.507812 L 21.558594 19.144531 L 21.882812 18.773438 L 22.1875 18.382812 L 22.464844 17.988281 L 22.722656 17.578125 L 22.957031 17.160156 L 23.167969 16.730469 L 23.359375 16.292969 L 23.523438 15.851562 L 23.667969 15.402344 L 23.792969 14.945312 L 23.894531 14.488281 L 23.972656 14.023438 L 24.027344 13.5625 L 24.058594 13.09375 L 24.070312 12.625 L 24.058594 12.15625 L 24.027344 11.6875 L 23.972656 11.226562 L 23.894531 10.761719 L 23.792969 10.300781 L 23.667969 9.847656 L 23.523438 9.398438 L 23.359375 8.957031 L 23.167969 8.519531 L 22.957031 8.089844 L 22.722656 7.671875 L 22.464844 7.261719 L 22.1875 6.863281 L 21.882812 6.476562 L 21.558594 6.101562 L 21.210938 5.742188 Z M 21.210938 5.75 "/>
<path style=" stroke:none;fill-rule:nonzero;fill:rgb(92.941176%,41.176471%,36.078431%);fill-opacity:1;" d="M 5.257812 4.425781 C 5.570312 4.113281 5.570312 3.605469 5.257812 3.292969 C 4.941406 2.980469 4.425781 2.980469 4.105469 3.292969 C -1.300781 8.640625 -1.289062 16.636719 4.105469 21.96875 C 4.421875 22.28125 4.9375 22.28125 5.257812 21.96875 C 5.570312 21.65625 5.570312 21.148438 5.257812 20.835938 C 0.523438 16.160156 0.523438 9.105469 5.257812 4.429688 Z M 5.257812 4.425781 "/>
<path style=" stroke:none;fill-rule:nonzero;fill:rgb(92.941176%,41.176471%,36.078431%);fill-opacity:1;" d="M 5.257812 4.425781 C 5.570312 4.113281 5.570312 3.605469 5.257812 3.292969 C 4.941406 2.980469 4.425781 2.980469 4.105469 3.292969 C -1.300781 8.640625 -1.289062 16.636719 4.105469 21.96875 C 4.421875 22.28125 4.9375 22.28125 5.257812 21.96875 C 5.570312 21.65625 5.570312 21.148438 5.257812 20.835938 C 0.523438 16.160156 0.523438 9.105469 5.257812 4.429688 Z M 5.257812 4.425781 "/>
<path style=" stroke:none;fill-rule:nonzero;fill:rgb(99.607843%,99.607843%,99.607843%);fill-opacity:1;" d="M 5.214844 3.328125 L 5.296875 3.25 L 5.328125 3.28125 L 5.410156 3.386719 L 5.433594 3.421875 L 5.453125 3.460938 L 5.472656 3.496094 L 5.492188 3.535156 L 5.503906 3.574219 L 5.519531 3.613281 L 5.527344 3.65625 L 5.542969 3.734375 L 5.550781 3.777344 L 5.554688 3.816406 L 5.554688 3.894531 L 5.550781 3.9375 L 5.527344 4.054688 L 5.519531 4.097656 L 5.503906 4.136719 L 5.492188 4.175781 L 5.472656 4.21875 L 5.433594 4.289062 L 5.410156 4.324219 L 5.355469 4.394531 L 5.328125 4.425781 L 5.296875 4.457031 L 5.214844 4.378906 L 5.269531 4.324219 L 5.316406 4.261719 L 5.332031 4.230469 L 5.351562 4.199219 L 5.367188 4.167969 L 5.382812 4.132812 L 5.40625 4.0625 L 5.414062 4.023438 L 5.421875 3.988281 L 5.425781 3.953125 L 5.433594 3.917969 L 5.4375 3.882812 L 5.4375 3.8125 L 5.433594 3.777344 L 5.425781 3.738281 L 5.421875 3.703125 L 5.40625 3.632812 L 5.382812 3.5625 L 5.367188 3.527344 L 5.351562 3.496094 L 5.332031 3.464844 L 5.316406 3.433594 L 5.269531 3.371094 L 5.214844 3.316406 Z M 5.296875 3.25 Z M 4.148438 3.328125 L 4.066406 3.25 L 4.097656 3.21875 L 4.128906 3.191406 L 4.199219 3.136719 L 4.238281 3.117188 L 4.273438 3.09375 L 4.308594 3.074219 L 4.347656 3.058594 L 4.390625 3.042969 L 4.429688 3.03125 L 4.472656 3.023438 L 4.511719 3.011719 L 4.550781 3.003906 L 4.59375 3 L 4.632812 2.996094 L 4.714844 2.996094 L 4.753906 3 L 4.796875 3.003906 L 4.835938 3.011719 L 4.878906 3.023438 L 4.917969 3.03125 L 4.957031 3.042969 L 5 3.058594 L 5.039062 3.074219 L 5.074219 3.09375 L 5.113281 3.117188 L 5.148438 3.136719 L 5.183594 3.160156 L 5.21875 3.1875 L 5.25 3.214844 L 5.28125 3.246094 L 5.203125 3.324219 L 5.175781 3.296875 L 5.148438 3.273438 L 5.085938 3.226562 L 5.054688 3.210938 L 5.023438 3.191406 L 4.953125 3.160156 L 4.882812 3.136719 L 4.84375 3.128906 L 4.808594 3.121094 L 4.738281 3.113281 L 4.703125 3.105469 L 4.628906 3.105469 L 4.59375 3.113281 L 4.558594 3.117188 L 4.519531 3.121094 L 4.449219 3.136719 L 4.414062 3.148438 L 4.375 3.160156 L 4.339844 3.175781 L 4.308594 3.191406 L 4.277344 3.210938 L 4.246094 3.226562 L 4.152344 3.296875 L 4.125 3.324219 Z M 4.066406 3.25 Z M 4.148438 21.921875 L 4.066406 22.003906 L 3.574219 21.496094 L 3.113281 20.96875 L 2.683594 20.429688 L 2.289062 19.878906 L 1.921875 19.316406 L 1.589844 18.742188 L 1.289062 18.15625 L 1.015625 17.5625 L 0.777344 16.960938 L 0.570312 16.355469 L 0.394531 15.742188 L 0.25 15.121094 L 0.136719 14.496094 L 0.0546875 13.871094 L 0.0078125 13.246094 L -0.0117188 12.617188 L 0.00390625 11.988281 L 0.0507812 11.359375 L 0.132812 10.734375 L 0.246094 10.109375 L 0.390625 9.492188 L 0.566406 8.875 L 0.773438 8.269531 L 1.011719 7.667969 L 1.28125 7.074219 L 1.585938 6.492188 L 1.917969 5.914062 L 2.285156 5.355469 L 2.679688 4.800781 L 3.109375 4.261719 L 3.570312 3.734375 L 4.0625 3.226562 L 4.140625 3.308594 L 3.65625 3.816406 L 3.199219 4.335938 L 2.777344 4.871094 L 2.382812 5.421875 L 2.023438 5.976562 L 1.691406 6.546875 L 1.394531 7.128906 L 1.128906 7.714844 L 0.894531 8.3125 L 0.691406 8.914062 L 0.519531 9.523438 L 0.382812 10.132812 L 0.273438 10.746094 L 0.195312 11.367188 L 0.152344 11.988281 L 0.136719 12.609375 L 0.15625 13.234375 L 0.203125 13.855469 L 0.285156 14.472656 L 0.394531 15.089844 L 0.535156 15.699219 L 0.707031 16.308594 L 0.910156 16.910156 L 1.144531 17.5 L 1.410156 18.089844 L 1.707031 18.667969 L 2.035156 19.238281 L 2.398438 19.796875 L 2.789062 20.34375 L 3.214844 20.878906 L 3.667969 21.402344 L 4.15625 21.90625 Z M 5.214844 21.921875 L 5.296875 22.003906 L 5.265625 22.035156 L 5.234375 22.0625 L 5.199219 22.089844 L 5.160156 22.117188 L 5.125 22.136719 L 5.089844 22.160156 L 5.046875 22.179688 L 4.96875 22.210938 L 4.925781 22.222656 L 4.886719 22.230469 L 4.84375 22.238281 L 4.804688 22.25 L 4.765625 22.253906 L 4.722656 22.257812 L 4.644531 22.257812 L 4.601562 22.253906 L 4.5625 22.25 L 4.519531 22.238281 L 4.441406 22.222656 L 4.398438 22.210938 L 4.359375 22.195312 L 4.316406 22.179688 L 4.277344 22.160156 L 4.242188 22.136719 L 4.207031 22.117188 L 4.167969 22.089844 L 4.132812 22.0625 L 4.101562 22.035156 L 4.070312 22.003906 L 4.152344 21.921875 L 4.207031 21.976562 L 4.269531 22.023438 L 4.300781 22.039062 L 4.332031 22.058594 L 4.363281 22.074219 L 4.398438 22.089844 L 4.433594 22.101562 L 4.472656 22.109375 L 4.507812 22.121094 L 4.542969 22.128906 L 4.578125 22.132812 L 4.617188 22.136719 L 4.652344 22.140625 L 4.722656 22.140625 L 4.761719 22.136719 L 4.832031 22.128906 L 4.867188 22.121094 L 4.902344 22.109375 L 4.941406 22.101562 L 4.976562 22.089844 L 5.011719 22.074219 L 5.042969 22.058594 L 5.074219 22.039062 L 5.105469 22.023438 L 5.140625 22 L 5.171875 21.976562 L 5.199219 21.949219 L 5.222656 21.921875 Z M 5.214844 20.867188 L 5.296875 20.785156 L 5.328125 20.816406 L 5.355469 20.847656 L 5.382812 20.886719 L 5.410156 20.921875 L 5.433594 20.957031 L 5.453125 20.992188 L 5.492188 21.070312 L 5.503906 21.113281 L 5.519531 21.152344 L 5.527344 21.191406 L 5.535156 21.234375 L 5.550781 21.3125 L 5.554688 21.351562 L 5.554688 21.433594 L 5.550781 21.472656 L 5.542969 21.511719 L 5.535156 21.554688 L 5.519531 21.632812 L 5.503906 21.675781 L 5.492188 21.714844 L 5.433594 21.832031 L 5.410156 21.867188 L 5.355469 21.9375 L 5.328125 21.96875 L 5.296875 22 L 5.214844 21.917969 L 5.242188 21.890625 L 5.269531 21.867188 L 5.316406 21.804688 L 5.332031 21.773438 L 5.351562 21.742188 L 5.367188 21.710938 L 5.382812 21.675781 L 5.394531 21.636719 L 5.40625 21.601562 L 5.421875 21.53125 L 5.425781 21.496094 L 5.433594 21.460938 L 5.4375 21.425781 L 5.4375 21.351562 L 5.433594 21.316406 L 5.425781 21.28125 L 5.421875 21.246094 L 5.40625 21.175781 L 5.394531 21.140625 L 5.382812 21.101562 L 5.367188 21.066406 L 5.351562 21.035156 L 5.332031 21.003906 L 5.316406 20.972656 L 5.269531 20.910156 L 5.242188 20.886719 L 5.214844 20.859375 Z M 5.214844 4.382812 L 5.296875 4.460938 L 4.867188 4.902344 L 4.464844 5.359375 L 4.09375 5.828125 L 3.75 6.308594 L 3.433594 6.796875 L 3.144531 7.296875 L 2.882812 7.804688 L 2.648438 8.324219 L 2.441406 8.84375 L 2.261719 9.375 L 2.109375 9.910156 L 1.980469 10.449219 L 1.886719 10.992188 L 1.820312 11.535156 L 1.777344 12.082031 L 1.765625 12.628906 L 1.777344 13.175781 L 1.820312 13.726562 L 1.886719 14.269531 L 1.980469 14.808594 L 2.109375 15.347656 L 2.261719 15.882812 L 2.441406 16.414062 L 2.648438 16.933594 L 2.882812 17.453125 L 3.144531 17.960938 L 3.433594 18.460938 L 3.75 18.949219 L 4.09375 19.433594 L 4.464844 19.898438 L 4.867188 20.355469 L 5.296875 20.796875 L 5.214844 20.875 L 4.78125 20.429688 L 4.375 19.972656 L 4.003906 19.5 L 3.65625 19.011719 L 3.335938 18.519531 L 3.042969 18.015625 L 2.777344 17.5 L 2.535156 16.980469 L 2.328125 16.453125 L 2.148438 15.917969 L 1.996094 15.378906 L 1.867188 14.835938 L 1.769531 14.289062 L 1.703125 13.738281 L 1.660156 13.1875 L 1.648438 12.632812 L 1.660156 12.082031 L 1.703125 11.527344 L 1.769531 10.980469 L 1.867188 10.429688 L 1.996094 9.886719 L 2.148438 9.347656 L 2.328125 8.8125 L 2.535156 8.285156 L 2.777344 7.765625 L 3.042969 7.253906 L 3.335938 6.75 L 3.65625 6.253906 L 4.003906 5.769531 L 4.375 5.296875 L 4.78125 4.835938 L 5.214844 4.390625 Z M 5.257812 4.421875 L 5.214844 4.382812 Z M 5.257812 4.421875 "/>
<path style=" stroke:none;fill-rule:nonzero;fill:rgb(92.941176%,41.176471%,36.078431%);fill-opacity:1;" d="M 23.703125 3.289062 C 23.386719 2.976562 22.871094 2.976562 22.554688 3.289062 C 22.238281 3.601562 22.238281 4.109375 22.554688 4.421875 C 27.285156 9.097656 27.285156 16.152344 22.554688 20.828125 C 22.238281 21.140625 22.238281 21.648438 22.554688 21.960938 C 22.871094 22.269531 23.386719 22.269531 23.703125 21.960938 C 29.109375 16.613281 29.09375 8.617188 23.703125 3.285156 Z M 23.703125 3.289062 "/>
<path style=" stroke:none;fill-rule:nonzero;fill:rgb(92.941176%,41.176471%,36.078431%);fill-opacity:1;" d="M 23.703125 3.289062 C 23.386719 2.976562 22.871094 2.976562 22.554688 3.289062 C 22.238281 3.601562 22.238281 4.109375 22.554688 4.421875 C 27.285156 9.097656 27.285156 16.152344 22.554688 20.828125 C 22.238281 21.140625 22.238281 21.648438 22.554688 21.960938 C 22.871094 22.269531 23.386719 22.269531 23.703125 21.960938 C 29.109375 16.613281 29.09375 8.617188 23.703125 3.285156 Z M 23.703125 3.289062 "/>
<path style=" stroke:none;fill-rule:nonzero;fill:rgb(99.607843%,99.607843%,99.607843%);fill-opacity:1;" d="M 22.59375 3.328125 L 22.511719 3.25 L 22.542969 3.21875 L 22.574219 3.191406 L 22.609375 3.164062 L 22.644531 3.144531 L 22.683594 3.121094 L 22.71875 3.097656 L 22.753906 3.082031 L 22.792969 3.0625 L 22.835938 3.050781 L 22.875 3.035156 L 22.917969 3.027344 L 22.957031 3.019531 L 22.996094 3.007812 L 23.039062 3.003906 L 23.078125 3 L 23.160156 3 L 23.199219 3.003906 L 23.242188 3.007812 L 23.28125 3.019531 L 23.324219 3.027344 L 23.363281 3.035156 L 23.402344 3.050781 L 23.445312 3.0625 L 23.484375 3.082031 L 23.519531 3.097656 L 23.558594 3.121094 L 23.59375 3.144531 L 23.628906 3.164062 L 23.664062 3.191406 L 23.695312 3.21875 L 23.726562 3.25 L 23.648438 3.328125 L 23.621094 3.304688 L 23.59375 3.277344 L 23.53125 3.230469 L 23.5 3.214844 L 23.464844 3.195312 L 23.402344 3.164062 L 23.367188 3.152344 L 23.332031 3.144531 L 23.296875 3.132812 L 23.257812 3.125 L 23.152344 3.113281 L 23.078125 3.113281 L 23.007812 3.121094 L 22.96875 3.125 L 22.933594 3.132812 L 22.898438 3.144531 L 22.863281 3.152344 L 22.828125 3.164062 L 22.792969 3.179688 L 22.761719 3.195312 L 22.730469 3.214844 L 22.699219 3.230469 L 22.636719 3.277344 L 22.609375 3.304688 L 22.582031 3.328125 Z M 22.59375 3.328125 Z M 22.59375 4.386719 L 22.511719 4.464844 L 22.480469 4.433594 L 22.453125 4.402344 L 22.398438 4.332031 L 22.351562 4.261719 L 22.335938 4.222656 L 22.316406 4.179688 L 22.304688 4.140625 L 22.289062 4.101562 L 22.28125 4.0625 L 22.273438 4.019531 L 22.261719 3.980469 L 22.253906 3.902344 L 22.253906 3.820312 L 22.257812 3.78125 L 22.261719 3.738281 L 22.273438 3.699219 L 22.289062 3.621094 L 22.304688 3.578125 L 22.316406 3.539062 L 22.335938 3.5 L 22.351562 3.460938 L 22.375 3.421875 L 22.398438 3.386719 L 22.453125 3.316406 L 22.480469 3.285156 L 22.511719 3.253906 L 22.59375 3.335938 L 22.566406 3.359375 L 22.539062 3.386719 L 22.492188 3.449219 L 22.472656 3.480469 L 22.457031 3.511719 L 22.4375 3.542969 L 22.425781 3.578125 L 22.410156 3.613281 L 22.402344 3.652344 L 22.394531 3.6875 L 22.382812 3.722656 L 22.371094 3.828125 L 22.371094 3.902344 L 22.382812 4.007812 L 22.394531 4.042969 L 22.410156 4.113281 L 22.425781 4.148438 L 22.4375 4.1875 L 22.457031 4.21875 L 22.472656 4.25 L 22.492188 4.28125 L 22.539062 4.34375 L 22.566406 4.367188 L 22.59375 4.394531 Z M 22.59375 20.871094 L 22.511719 20.792969 L 22.9375 20.351562 L 23.339844 19.894531 L 23.714844 19.425781 L 24.058594 18.945312 L 24.375 18.457031 L 24.660156 17.957031 L 24.921875 17.449219 L 25.15625 16.929688 L 25.367188 16.410156 L 25.546875 15.878906 L 25.699219 15.34375 L 25.820312 14.804688 L 25.914062 14.265625 L 25.984375 13.722656 L 26.023438 13.171875 L 26.039062 12.625 L 26.023438 12.078125 L 25.984375 11.53125 L 25.914062 10.988281 L 25.820312 10.445312 L 25.699219 9.90625 L 25.546875 9.371094 L 25.367188 8.839844 L 25.15625 8.316406 L 24.921875 7.800781 L 24.660156 7.292969 L 24.375 6.792969 L 24.058594 6.304688 L 23.714844 5.820312 L 23.339844 5.355469 L 22.9375 4.898438 L 22.511719 4.457031 L 22.59375 4.378906 L 23.023438 4.824219 L 23.429688 5.28125 L 23.804688 5.753906 L 24.152344 6.242188 L 24.472656 6.734375 L 24.765625 7.238281 L 25.03125 7.753906 L 25.269531 8.273438 L 25.476562 8.800781 L 25.660156 9.335938 L 25.8125 9.875 L 25.9375 10.417969 L 26.039062 10.964844 L 26.105469 11.515625 L 26.144531 12.066406 L 26.160156 12.621094 L 26.144531 13.171875 L 26.105469 13.726562 L 26.039062 14.273438 L 25.9375 14.824219 L 25.8125 15.367188 L 25.660156 15.90625 L 25.476562 16.441406 L 25.269531 16.964844 L 25.03125 17.488281 L 24.765625 18 L 24.472656 18.503906 L 24.152344 19 L 23.804688 19.484375 L 23.429688 19.957031 L 23.023438 20.417969 L 22.59375 20.863281 Z M 22.59375 21.929688 L 22.511719 22.007812 L 22.480469 21.976562 L 22.453125 21.945312 L 22.398438 21.875 L 22.351562 21.804688 L 22.335938 21.761719 L 22.316406 21.722656 L 22.304688 21.683594 L 22.289062 21.644531 L 22.28125 21.601562 L 22.273438 21.5625 L 22.261719 21.523438 L 22.257812 21.480469 L 22.253906 21.441406 L 22.253906 21.363281 L 22.257812 21.320312 L 22.261719 21.28125 L 22.273438 21.242188 L 22.28125 21.203125 L 22.289062 21.160156 L 22.304688 21.121094 L 22.316406 21.082031 L 22.335938 21.042969 L 22.351562 21 L 22.398438 20.929688 L 22.453125 20.859375 L 22.480469 20.828125 L 22.511719 20.796875 L 22.59375 20.875 L 22.539062 20.929688 L 22.492188 20.992188 L 22.472656 21.023438 L 22.457031 21.054688 L 22.4375 21.085938 L 22.425781 21.121094 L 22.410156 21.15625 L 22.394531 21.226562 L 22.382812 21.265625 L 22.371094 21.371094 L 22.371094 21.441406 L 22.378906 21.511719 L 22.382812 21.550781 L 22.394531 21.585938 L 22.410156 21.65625 L 22.425781 21.691406 L 22.4375 21.726562 L 22.457031 21.757812 L 22.472656 21.789062 L 22.492188 21.820312 L 22.539062 21.882812 L 22.59375 21.9375 Z M 22.59375 21.929688 Z M 23.660156 21.929688 L 23.742188 22.007812 L 23.710938 22.039062 L 23.679688 22.066406 L 23.644531 22.09375 L 23.605469 22.121094 L 23.570312 22.140625 L 23.535156 22.164062 L 23.492188 22.183594 L 23.414062 22.214844 L 23.371094 22.226562 L 23.332031 22.234375 L 23.289062 22.246094 L 23.25 22.253906 L 23.210938 22.257812 L 23.167969 22.261719 L 23.089844 22.261719 L 23.046875 22.257812 L 23.007812 22.253906 L 22.964844 22.246094 L 22.925781 22.234375 L 22.886719 22.226562 L 22.84375 22.214844 L 22.804688 22.199219 L 22.761719 22.183594 L 22.722656 22.164062 L 22.6875 22.140625 L 22.652344 22.121094 L 22.613281 22.09375 L 22.578125 22.066406 L 22.546875 22.039062 L 22.515625 22.007812 L 22.597656 21.929688 L 22.625 21.953125 L 22.652344 21.980469 L 22.714844 22.027344 L 22.746094 22.042969 L 22.777344 22.0625 L 22.808594 22.078125 L 22.84375 22.09375 L 22.878906 22.105469 L 22.917969 22.117188 L 22.988281 22.132812 L 23.023438 22.136719 L 23.0625 22.140625 L 23.097656 22.148438 L 23.167969 22.148438 L 23.207031 22.140625 L 23.277344 22.132812 L 23.347656 22.117188 L 23.386719 22.105469 L 23.421875 22.09375 L 23.457031 22.078125 L 23.488281 22.0625 L 23.519531 22.042969 L 23.550781 22.027344 L 23.585938 22.003906 L 23.617188 21.980469 L 23.667969 21.929688 Z M 23.660156 3.328125 L 23.742188 3.25 L 24.234375 3.757812 L 24.695312 4.285156 L 25.121094 4.824219 L 25.519531 5.371094 L 25.882812 5.933594 L 26.21875 6.507812 L 26.519531 7.09375 L 26.789062 7.683594 L 27.03125 8.285156 L 27.238281 8.894531 L 27.414062 9.507812 L 27.558594 10.128906 L 27.667969 10.746094 L 27.75 11.371094 L 27.800781 12 L 27.820312 12.628906 L 27.804688 13.257812 L 27.761719 13.886719 L 27.679688 14.511719 L 27.566406 15.132812 L 27.421875 15.753906 L 27.246094 16.371094 L 27.039062 16.976562 L 26.800781 17.578125 L 26.527344 18.171875 L 26.226562 18.753906 L 25.894531 19.328125 L 25.527344 19.890625 L 25.132812 20.445312 L 24.703125 20.984375 L 24.242188 21.507812 L 23.75 22.015625 L 23.667969 21.9375 L 24.15625 21.429688 L 24.613281 20.90625 L 25.035156 20.371094 L 25.429688 19.824219 L 25.789062 19.265625 L 26.117188 18.695312 L 26.417969 18.117188 L 26.683594 17.527344 L 26.917969 16.929688 L 27.121094 16.328125 L 27.292969 15.722656 L 27.429688 15.113281 L 27.539062 14.496094 L 27.617188 13.878906 L 27.660156 13.257812 L 27.675781 12.632812 L 27.65625 12.007812 L 27.605469 11.390625 L 27.53125 10.769531 L 27.417969 10.15625 L 27.277344 9.542969 L 27.105469 8.9375 L 26.902344 8.335938 L 26.667969 7.742188 L 26.402344 7.15625 L 26.105469 6.574219 L 25.777344 6.003906 L 25.414062 5.449219 L 25.023438 4.898438 L 24.597656 4.363281 L 24.144531 3.84375 L 23.65625 3.339844 Z M 23.660156 3.328125 Z M 23.703125 3.289062 L 23.660156 3.328125 Z M 23.660156 3.328125 Z M 23.660156 3.328125 "/>
</g>
</svg>
