<?xml version="1.0" encoding="UTF-8"?>
<svg xmlns="http://www.w3.org/2000/svg" xmlns:xlink="http://www.w3.org/1999/xlink" width="28px" height="28px" viewBox="0 0 28 34" version="1.1">
<g id="surface1">
<path style=" stroke:none;fill-rule:nonzero;fill:rgb(92.941176%,41.176471%,36.078431%);fill-opacity:1;" d="M 13.011719 32.390625 C 13.011719 30.730469 13.011719 29.128906 13.011719 27.5625 C 12.160156 27.410156 11.320312 27.324219 10.515625 27.105469 C 5.117188 25.621094 1.730469 22.152344 0.339844 16.769531 C -0.0546875 15.246094 -0.0117188 13.6875 0.015625 12.128906 C 0.0234375 11.664062 0.390625 11.332031 0.820312 11.339844 C 1.273438 11.339844 1.613281 11.6875 1.628906 12.179688 C 1.660156 13.101562 1.601562 14.035156 1.710938 14.949219 C 2.277344 19.691406 4.753906 23.125 9.175781 24.960938 C 16.316406 27.917969 24.140625 23.769531 25.8125 16.269531 C 26.089844 15.011719 26.082031 13.730469 26.074219 12.453125 C 26.066406 11.738281 26.351562 11.351562 26.875 11.34375 C 27.410156 11.332031 27.6875 11.730469 27.699219 12.46875 C 27.746094 14.390625 27.664062 16.296875 26.984375 18.117188 C 25.015625 23.421875 21.222656 26.539062 15.589844 27.417969 C 15.433594 27.4375 15.289062 27.460938 15.136719 27.476562 C 14.996094 27.488281 14.859375 27.496094 14.699219 27.511719 C 14.699219 29.136719 14.699219 30.730469 14.699219 32.375 C 14.828125 32.382812 14.96875 32.390625 15.097656 32.390625 C 15.777344 32.390625 16.449219 32.382812 17.121094 32.398438 C 17.601562 32.414062 17.910156 32.746094 17.910156 33.195312 C 17.910156 33.636719 17.585938 33.992188 17.113281 33.992188 C 14.9375 34.007812 12.757812 34.007812 10.582031 33.992188 C 10.109375 33.992188 9.789062 33.644531 9.78125 33.203125 C 9.773438 32.738281 10.09375 32.40625 10.597656 32.398438 C 11.386719 32.382812 12.171875 32.398438 12.996094 32.398438 Z M 13.011719 32.390625 "/>
<path style=" stroke:none;fill-rule:nonzero;fill:rgb(92.941176%,41.176471%,36.078431%);fill-opacity:1;" d="M 9.789062 10.503906 C 9.789062 10.503906 9.792969 10.503906 9.792969 10.503906 C 9.792969 12.199219 9.757812 13.898438 9.800781 15.585938 C 9.851562 17.71875 11.675781 19.421875 13.84375 19.429688 C 16.003906 19.429688 17.871094 17.726562 17.902344 15.609375 C 17.945312 12.222656 17.953125 8.828125 17.902344 5.445312 C 17.863281 2.992188 15.421875 1.175781 13.011719 1.710938 C 11.09375 2.136719 9.816406 3.695312 9.792969 5.691406 C 9.773438 7.292969 9.789062 8.902344 9.789062 10.503906 Z M 8.144531 10.519531 C 8.144531 8.917969 8.132812 7.308594 8.144531 5.707031 C 8.175781 2.441406 10.75 -0.0507812 14.003906 0.0078125 C 17.027344 0.0585938 19.507812 2.515625 19.542969 5.605469 C 19.585938 8.886719 19.585938 12.179688 19.542969 15.464844 C 19.507812 18.363281 17.304688 20.734375 14.492188 21.023438 C 11.617188 21.320312 9.019531 19.539062 8.328125 16.769531 C 8.203125 16.273438 8.152344 15.746094 8.144531 15.230469 C 8.125 13.664062 8.136719 12.097656 8.136719 10.527344 Z M 8.144531 10.519531 "/>
</g>
</svg>
