<?xml version="1.0" encoding="UTF-8"?>
<svg xmlns="http://www.w3.org/2000/svg" xmlns:xlink="http://www.w3.org/1999/xlink" width="28px" height="28px" viewBox="0 0 28 28" version="1.1">
<g id="surface1">
<path style=" stroke:none;fill-rule:nonzero;fill:rgb(92.941176%,41.176471%,36.078431%);fill-opacity:1;" d="M 13.1875 26.675781 C 13.1875 25.308594 13.1875 23.988281 13.1875 22.699219 C 12.484375 22.574219 11.792969 22.503906 11.128906 22.320312 C 6.683594 21.101562 3.894531 18.242188 2.75 13.808594 C 2.425781 12.554688 2.460938 11.273438 2.484375 9.988281 C 2.488281 9.605469 2.792969 9.332031 3.144531 9.339844 C 3.519531 9.339844 3.800781 9.625 3.8125 10.03125 C 3.835938 10.789062 3.789062 11.558594 3.878906 12.3125 C 4.347656 16.214844 6.386719 19.042969 10.027344 20.554688 C 15.90625 22.992188 22.351562 19.574219 23.726562 13.398438 C 23.957031 12.363281 23.949219 11.308594 23.945312 10.253906 C 23.9375 9.667969 24.171875 9.347656 24.601562 9.34375 C 25.042969 9.332031 25.273438 9.660156 25.28125 10.269531 C 25.320312 11.851562 25.253906 13.421875 24.691406 14.921875 C 23.070312 19.289062 19.949219 21.855469 15.308594 22.578125 C 15.179688 22.59375 15.0625 22.613281 14.9375 22.628906 C 14.820312 22.636719 14.707031 22.644531 14.574219 22.65625 C 14.574219 23.996094 14.574219 25.308594 14.574219 26.660156 C 14.683594 26.667969 14.796875 26.675781 14.902344 26.675781 C 15.464844 26.675781 16.015625 26.667969 16.570312 26.679688 C 16.964844 26.695312 17.21875 26.96875 17.21875 27.335938 C 17.21875 27.699219 16.953125 27.992188 16.5625 27.992188 C 14.773438 28.007812 12.976562 28.007812 11.183594 27.992188 C 10.796875 27.992188 10.53125 27.707031 10.527344 27.34375 C 10.519531 26.960938 10.78125 26.6875 11.199219 26.679688 C 11.847656 26.667969 12.496094 26.679688 13.171875 26.679688 Z M 13.1875 26.675781 "/>
<path style=" stroke:none;fill-rule:nonzero;fill:rgb(92.941176%,41.176471%,36.078431%);fill-opacity:1;" d="M 10.53125 8.648438 C 10.53125 8.648438 10.535156 8.648438 10.535156 8.648438 C 10.535156 10.046875 10.507812 11.445312 10.542969 12.835938 C 10.582031 14.59375 12.085938 15.996094 13.871094 16 C 15.648438 16 17.1875 14.597656 17.214844 12.855469 C 17.25 10.066406 17.253906 7.269531 17.214844 4.484375 C 17.179688 2.464844 15.171875 0.96875 13.1875 1.410156 C 11.605469 1.757812 10.554688 3.042969 10.535156 4.6875 C 10.519531 6.007812 10.53125 7.332031 10.53125 8.648438 Z M 9.179688 8.664062 C 9.179688 7.34375 9.167969 6.019531 9.179688 4.699219 C 9.203125 2.011719 11.324219 -0.0429688 14.003906 0.0078125 C 16.492188 0.046875 18.535156 2.070312 18.566406 4.617188 C 18.601562 7.320312 18.601562 10.03125 18.566406 12.734375 C 18.535156 15.121094 16.722656 17.074219 14.40625 17.3125 C 12.039062 17.558594 9.898438 16.089844 9.328125 13.808594 C 9.226562 13.402344 9.183594 12.96875 9.179688 12.542969 C 9.160156 11.253906 9.171875 9.960938 9.171875 8.667969 Z M 9.179688 8.664062 "/>
</g>
</svg>
