<?xml version="1.0" encoding="UTF-8"?>
<svg xmlns="http://www.w3.org/2000/svg" xmlns:xlink="http://www.w3.org/1999/xlink" width="28px" height="28px" viewBox="0 0 28 23" version="1.1">
<g id="surface1">
<path style=" stroke:none;fill-rule:nonzero;fill:rgb(92.941176%,41.176471%,36.078431%);fill-opacity:1;" d="M 7.660156 17.226562 C 7.660156 13.523438 7.660156 9.847656 7.660156 6.171875 C 7.605469 6.167969 7.5625 6.15625 7.527344 6.15625 C 6.089844 6.15625 4.65625 6.15625 3.21875 6.160156 C 3.023438 6.160156 2.820312 6.203125 2.632812 6.257812 C 1.789062 6.511719 1.308594 7.1875 1.304688 8.128906 C 1.300781 9.707031 1.300781 11.277344 1.304688 12.855469 C 1.304688 13.726562 1.285156 14.601562 1.320312 15.476562 C 1.363281 16.445312 2.117188 17.1875 3.121094 17.210938 C 4.628906 17.246094 6.132812 17.21875 7.660156 17.21875 Z M 15.320312 21.585938 C 15.320312 14.972656 15.320312 8.402344 15.320312 1.8125 C 15.269531 1.839844 15.242188 1.847656 15.21875 1.863281 C 13.425781 3.015625 11.636719 4.160156 9.84375 5.3125 C 9.242188 5.699219 8.96875 6.257812 8.96875 6.953125 C 8.972656 10.113281 8.972656 13.273438 8.96875 16.4375 C 8.96875 17.183594 9.296875 17.742188 9.945312 18.144531 C 10.605469 18.554688 11.253906 18.984375 11.910156 19.402344 C 13.039062 20.125 14.164062 20.84375 15.324219 21.585938 Z M 16.632812 11.707031 C 16.632812 15.320312 16.632812 18.929688 16.632812 22.542969 C 16.632812 22.804688 16.625 23.066406 16.382812 23.25 C 16.125 23.449219 15.871094 23.441406 15.503906 23.207031 C 13.554688 21.957031 11.601562 20.710938 9.660156 19.449219 C 9.246094 19.179688 8.863281 18.847656 8.460938 18.558594 C 8.375 18.496094 8.246094 18.472656 8.132812 18.472656 C 6.546875 18.472656 4.957031 18.472656 3.371094 18.472656 C 2.105469 18.472656 1.117188 17.988281 0.449219 16.9375 C 0.152344 16.46875 0.015625 15.953125 0.015625 15.402344 C 0.0195312 12.992188 0.0546875 10.578125 0 8.167969 C -0.0351562 6.539062 1.242188 4.894531 3.363281 4.917969 C 4.941406 4.9375 6.515625 4.921875 8.097656 4.925781 C 8.285156 4.925781 8.429688 4.894531 8.5625 4.746094 C 8.71875 4.574219 8.910156 4.425781 9.109375 4.300781 C 11.246094 2.921875 13.386719 1.550781 15.527344 0.175781 C 15.734375 0.0429688 15.941406 -0.0546875 16.199219 0.046875 C 16.425781 0.136719 16.582031 0.289062 16.613281 0.527344 C 16.628906 0.660156 16.632812 0.792969 16.632812 0.929688 C 16.632812 4.523438 16.632812 8.117188 16.632812 11.710938 Z M 16.632812 11.707031 "/>
<path style=" stroke:none;fill-rule:nonzero;fill:rgb(92.941176%,41.176471%,36.078431%);fill-opacity:1;" d="M 23.644531 12.324219 C 22.421875 12.324219 21.195312 12.328125 19.96875 12.316406 C 19.78125 12.316406 19.570312 12.257812 19.414062 12.160156 C 19.191406 12.027344 19.136719 11.789062 19.195312 11.546875 C 19.25 11.304688 19.429688 11.152344 19.683594 11.089844 C 19.765625 11.070312 19.859375 11.066406 19.949219 11.066406 C 22.421875 11.0625 24.890625 11.0625 27.363281 11.066406 C 27.816406 11.066406 28.105469 11.304688 28.125 11.671875 C 28.136719 12.058594 27.84375 12.320312 27.382812 12.324219 C 26.136719 12.324219 24.890625 12.324219 23.644531 12.324219 Z M 23.644531 12.324219 "/>
</g>
</svg>
