<?xml version="1.0" encoding="UTF-8"?>
<svg xmlns="http://www.w3.org/2000/svg" xmlns:xlink="http://www.w3.org/1999/xlink" width="28px" height="28px" viewBox="0 0 28 28" version="1.1">
<g id="surface1">
<path style=" stroke:none;fill-rule:nonzero;fill:rgb(92.941176%,41.176471%,36.078431%);fill-opacity:1;" d="M 7.660156 19.726562 C 7.660156 16.023438 7.660156 12.347656 7.660156 8.671875 C 7.605469 8.667969 7.5625 8.65625 7.527344 8.65625 C 6.089844 8.65625 4.65625 8.65625 3.21875 8.660156 C 3.023438 8.660156 2.820312 8.703125 2.632812 8.757812 C 1.789062 9.011719 1.308594 9.6875 1.304688 10.628906 C 1.300781 12.207031 1.300781 13.777344 1.304688 15.355469 C 1.304688 16.226562 1.285156 17.101562 1.320312 17.976562 C 1.363281 18.945312 2.117188 19.6875 3.121094 19.710938 C 4.628906 19.746094 6.132812 19.71875 7.660156 19.71875 Z M 15.320312 24.085938 C 15.320312 17.472656 15.320312 10.902344 15.320312 4.3125 C 15.269531 4.339844 15.242188 4.347656 15.21875 4.363281 C 13.425781 5.515625 11.636719 6.660156 9.84375 7.8125 C 9.242188 8.199219 8.96875 8.757812 8.96875 9.453125 C 8.972656 12.613281 8.972656 15.773438 8.96875 18.9375 C 8.96875 19.683594 9.296875 20.242188 9.945312 20.644531 C 10.605469 21.054688 11.253906 21.484375 11.910156 21.902344 C 13.039062 22.625 14.164062 23.34375 15.324219 24.085938 Z M 16.632812 14.207031 C 16.632812 17.820312 16.632812 21.429688 16.632812 25.042969 C 16.632812 25.304688 16.625 25.566406 16.382812 25.75 C 16.125 25.949219 15.871094 25.941406 15.503906 25.707031 C 13.554688 24.457031 11.601562 23.210938 9.660156 21.949219 C 9.246094 21.679688 8.863281 21.347656 8.460938 21.058594 C 8.375 20.996094 8.246094 20.972656 8.132812 20.972656 C 6.546875 20.972656 4.957031 20.972656 3.371094 20.972656 C 2.105469 20.972656 1.117188 20.488281 0.449219 19.4375 C 0.152344 18.96875 0.015625 18.453125 0.015625 17.902344 C 0.0195312 15.492188 0.0546875 13.078125 0 10.667969 C -0.0351562 9.039062 1.242188 7.394531 3.363281 7.417969 C 4.941406 7.4375 6.515625 7.421875 8.097656 7.425781 C 8.285156 7.425781 8.429688 7.394531 8.5625 7.246094 C 8.71875 7.074219 8.910156 6.925781 9.109375 6.800781 C 11.246094 5.421875 13.386719 4.050781 15.527344 2.675781 C 15.734375 2.542969 15.941406 2.445312 16.199219 2.546875 C 16.425781 2.636719 16.582031 2.789062 16.613281 3.027344 C 16.628906 3.160156 16.632812 3.292969 16.632812 3.429688 C 16.632812 7.023438 16.632812 10.617188 16.632812 14.210938 Z M 16.632812 14.207031 "/>
<path style=" stroke:none;fill-rule:nonzero;fill:rgb(92.941176%,41.176471%,36.078431%);fill-opacity:1;" d="M 23.644531 14.824219 C 22.421875 14.824219 21.195312 14.828125 19.96875 14.816406 C 19.78125 14.816406 19.570312 14.757812 19.414062 14.660156 C 19.191406 14.527344 19.136719 14.289062 19.195312 14.046875 C 19.25 13.804688 19.429688 13.652344 19.683594 13.589844 C 19.765625 13.570312 19.859375 13.566406 19.949219 13.566406 C 22.421875 13.5625 24.890625 13.5625 27.363281 13.566406 C 27.816406 13.566406 28.105469 13.804688 28.125 14.171875 C 28.136719 14.558594 27.84375 14.820312 27.382812 14.824219 C 26.136719 14.824219 24.890625 14.824219 23.644531 14.824219 Z M 23.644531 14.824219 "/>
</g>
</svg>
