<?xml version="1.0" encoding="UTF-8"?>
<svg xmlns="http://www.w3.org/2000/svg" xmlns:xlink="http://www.w3.org/1999/xlink" width="28px" height="28px" viewBox="0 0 28 23" version="1.1">
<g id="surface1">
<path style=" stroke:none;fill-rule:nonzero;fill:rgb(92.941176%,41.176471%,36.078431%);fill-opacity:1;" d="M 7.652344 6.15625 C 7.550781 6.15625 7.464844 6.15625 7.378906 6.15625 C 6.03125 6.15625 4.683594 6.152344 3.335938 6.15625 C 2.101562 6.160156 1.296875 6.917969 1.292969 8.117188 C 1.28125 10.5 1.28125 12.878906 1.289062 15.261719 C 1.292969 16.472656 2.097656 17.222656 3.359375 17.226562 C 4.695312 17.230469 6.03125 17.226562 7.367188 17.226562 C 7.460938 17.226562 7.554688 17.226562 7.648438 17.226562 C 7.648438 13.515625 7.648438 9.851562 7.648438 6.15625 Z M 15.320312 1.792969 C 15.199219 1.867188 15.125 1.910156 15.050781 1.957031 C 13.351562 3.046875 11.65625 4.148438 9.953125 5.230469 C 9.277344 5.65625 8.949219 6.230469 8.949219 7.011719 C 8.960938 10.132812 8.960938 13.253906 8.949219 16.375 C 8.949219 17.152344 9.277344 17.730469 9.953125 18.15625 C 11.667969 19.238281 13.371094 20.34375 15.078125 21.441406 C 15.148438 21.488281 15.226562 21.523438 15.320312 21.574219 C 15.320312 14.976562 15.320312 8.410156 15.320312 1.792969 Z M 16.617188 11.707031 C 16.617188 15.289062 16.617188 18.871094 16.617188 22.453125 C 16.617188 22.558594 16.621094 22.667969 16.609375 22.773438 C 16.558594 23.300781 16.050781 23.554688 15.589844 23.257812 C 13.371094 21.839844 11.164062 20.414062 8.949219 18.992188 C 8.894531 18.953125 8.828125 18.914062 8.789062 18.859375 C 8.5 18.464844 8.09375 18.449219 7.636719 18.453125 C 6.050781 18.464844 4.460938 18.480469 2.878906 18.425781 C 1.359375 18.375 0.015625 17 0.0117188 15.535156 C -0.00390625 12.96875 -0.00390625 10.40625 0.0117188 7.839844 C 0.015625 6.375 1.359375 5 2.878906 4.949219 C 4.605469 4.894531 6.332031 4.921875 8.054688 4.921875 C 8.269531 4.921875 8.421875 4.871094 8.574219 4.710938 C 8.738281 4.535156 8.941406 4.390625 9.144531 4.257812 C 11.25 2.898438 13.355469 1.550781 15.460938 0.199219 C 15.546875 0.144531 15.628906 0.0898438 15.71875 0.0507812 C 16.09375 -0.105469 16.515625 0.109375 16.589844 0.496094 C 16.613281 0.625 16.613281 0.761719 16.613281 0.894531 C 16.617188 4.496094 16.617188 8.101562 16.617188 11.703125 Z M 16.617188 11.707031 "/>
<path style=" stroke:none;fill-rule:nonzero;fill:rgb(92.941176%,41.176471%,36.078431%);fill-opacity:1;" d="M 24.277344 12.320312 C 24.277344 12.453125 24.277344 12.566406 24.277344 12.679688 C 24.277344 13.550781 24.285156 14.425781 24.273438 15.304688 C 24.265625 15.84375 23.808594 16.152344 23.355469 15.941406 C 23.101562 15.820312 22.988281 15.613281 22.988281 15.332031 C 22.996094 14.445312 22.992188 13.566406 22.992188 12.679688 C 22.992188 12.574219 22.992188 12.46875 22.992188 12.320312 C 22.871094 12.320312 22.769531 12.320312 22.664062 12.320312 C 21.734375 12.320312 20.808594 12.324219 19.878906 12.316406 C 19.460938 12.316406 19.179688 12.078125 19.160156 11.734375 C 19.136719 11.339844 19.421875 11.066406 19.878906 11.066406 C 20.792969 11.058594 21.714844 11.0625 22.628906 11.0625 C 22.738281 11.0625 22.84375 11.0625 22.992188 11.0625 C 22.992188 10.738281 22.992188 10.433594 22.992188 10.128906 C 22.992188 9.457031 22.992188 8.785156 22.992188 8.113281 C 22.992188 7.671875 23.230469 7.390625 23.609375 7.375 C 23.992188 7.363281 24.269531 7.65625 24.273438 8.105469 C 24.28125 8.980469 24.277344 9.855469 24.277344 10.730469 C 24.277344 10.832031 24.277344 10.933594 24.277344 11.0625 C 25.117188 11.0625 25.925781 11.0625 26.730469 11.0625 C 26.949219 11.0625 27.171875 11.058594 27.390625 11.066406 C 27.816406 11.074219 28.09375 11.328125 28.097656 11.6875 C 28.097656 12.054688 27.816406 12.316406 27.394531 12.316406 C 26.453125 12.324219 25.519531 12.320312 24.578125 12.320312 C 24.492188 12.320312 24.402344 12.320312 24.277344 12.320312 Z M 24.277344 12.320312 "/>
</g>
</svg>
