<?xml version="1.0" encoding="UTF-8"?>
<svg xmlns="http://www.w3.org/2000/svg" xmlns:xlink="http://www.w3.org/1999/xlink" width="28px" height="28px" viewBox="0 0 28 28" version="1.1">
<g id="surface1">
<path style=" stroke:none;fill-rule:nonzero;fill:rgb(92.941176%,41.176471%,36.078431%);fill-opacity:1;" d="M 7.652344 8.65625 C 7.550781 8.65625 7.464844 8.65625 7.378906 8.65625 C 6.03125 8.65625 4.683594 8.652344 3.335938 8.65625 C 2.101562 8.660156 1.296875 9.417969 1.292969 10.617188 C 1.28125 13 1.28125 15.378906 1.289062 17.761719 C 1.292969 18.972656 2.097656 19.722656 3.359375 19.726562 C 4.695312 19.730469 6.03125 19.726562 7.367188 19.726562 C 7.460938 19.726562 7.554688 19.726562 7.648438 19.726562 C 7.648438 16.015625 7.648438 12.351562 7.648438 8.65625 Z M 15.320312 4.292969 C 15.199219 4.367188 15.125 4.410156 15.050781 4.457031 C 13.351562 5.546875 11.65625 6.648438 9.953125 7.730469 C 9.277344 8.15625 8.949219 8.730469 8.949219 9.511719 C 8.960938 12.632812 8.960938 15.753906 8.949219 18.875 C 8.949219 19.652344 9.277344 20.230469 9.953125 20.65625 C 11.667969 21.738281 13.371094 22.84375 15.078125 23.941406 C 15.148438 23.988281 15.226562 24.023438 15.320312 24.074219 C 15.320312 17.476562 15.320312 10.910156 15.320312 4.292969 Z M 16.617188 14.207031 C 16.617188 17.789062 16.617188 21.371094 16.617188 24.953125 C 16.617188 25.058594 16.621094 25.167969 16.609375 25.273438 C 16.558594 25.800781 16.050781 26.054688 15.589844 25.757812 C 13.371094 24.339844 11.164062 22.914062 8.949219 21.492188 C 8.894531 21.453125 8.828125 21.414062 8.789062 21.359375 C 8.5 20.964844 8.09375 20.949219 7.636719 20.953125 C 6.050781 20.964844 4.460938 20.980469 2.878906 20.925781 C 1.359375 20.875 0.015625 19.5 0.0117188 18.035156 C -0.00390625 15.46875 -0.00390625 12.90625 0.0117188 10.339844 C 0.015625 8.875 1.359375 7.5 2.878906 7.449219 C 4.605469 7.394531 6.332031 7.421875 8.054688 7.421875 C 8.269531 7.421875 8.421875 7.371094 8.574219 7.210938 C 8.738281 7.035156 8.941406 6.890625 9.144531 6.757812 C 11.25 5.398438 13.355469 4.050781 15.460938 2.699219 C 15.546875 2.644531 15.628906 2.589844 15.71875 2.550781 C 16.09375 2.394531 16.515625 2.609375 16.589844 2.996094 C 16.613281 3.125 16.613281 3.261719 16.613281 3.394531 C 16.617188 6.996094 16.617188 10.601562 16.617188 14.203125 Z M 16.617188 14.207031 "/>
<path style=" stroke:none;fill-rule:nonzero;fill:rgb(92.941176%,41.176471%,36.078431%);fill-opacity:1;" d="M 24.277344 14.820312 C 24.277344 14.953125 24.277344 15.066406 24.277344 15.179688 C 24.277344 16.050781 24.285156 16.925781 24.273438 17.804688 C 24.265625 18.34375 23.808594 18.652344 23.355469 18.441406 C 23.101562 18.320312 22.988281 18.113281 22.988281 17.832031 C 22.996094 16.945312 22.992188 16.066406 22.992188 15.179688 C 22.992188 15.074219 22.992188 14.96875 22.992188 14.820312 C 22.871094 14.820312 22.769531 14.820312 22.664062 14.820312 C 21.734375 14.820312 20.808594 14.824219 19.878906 14.816406 C 19.460938 14.816406 19.179688 14.578125 19.160156 14.234375 C 19.136719 13.839844 19.421875 13.566406 19.878906 13.566406 C 20.792969 13.558594 21.714844 13.5625 22.628906 13.5625 C 22.738281 13.5625 22.84375 13.5625 22.992188 13.5625 C 22.992188 13.238281 22.992188 12.933594 22.992188 12.628906 C 22.992188 11.957031 22.992188 11.285156 22.992188 10.613281 C 22.992188 10.171875 23.230469 9.890625 23.609375 9.875 C 23.992188 9.863281 24.269531 10.15625 24.273438 10.605469 C 24.28125 11.480469 24.277344 12.355469 24.277344 13.230469 C 24.277344 13.332031 24.277344 13.433594 24.277344 13.5625 C 25.117188 13.5625 25.925781 13.5625 26.730469 13.5625 C 26.949219 13.5625 27.171875 13.558594 27.390625 13.566406 C 27.816406 13.574219 28.09375 13.828125 28.097656 14.1875 C 28.097656 14.554688 27.816406 14.816406 27.394531 14.816406 C 26.453125 14.824219 25.519531 14.820312 24.578125 14.820312 C 24.492188 14.820312 24.402344 14.820312 24.277344 14.820312 Z M 24.277344 14.820312 "/>
</g>
</svg>
