<?xml version="1.0" encoding="UTF-8"?>
<svg xmlns="http://www.w3.org/2000/svg" xmlns:xlink="http://www.w3.org/1999/xlink" width="28px" height="28px" viewBox="0 0 28 28" version="1.1">
<g id="surface1">
<path style=" stroke:none;fill-rule:nonzero;fill:rgb(92.941176%,41.176471%,36.078431%);fill-opacity:1;" d="M 7.90625 7.972656 C 7.78125 7.972656 7.683594 7.972656 7.582031 7.972656 C 6.214844 7.972656 4.847656 7.972656 3.480469 7.972656 C 2.164062 7.976562 1.347656 8.769531 1.34375 10.066406 C 1.335938 12.550781 1.335938 15.03125 1.34375 17.515625 C 1.34375 18.8125 2.164062 19.609375 3.480469 19.609375 C 4.847656 19.613281 6.214844 19.609375 7.582031 19.609375 C 7.6875 19.609375 7.796875 19.609375 7.90625 19.609375 C 7.90625 15.714844 7.90625 11.871094 7.90625 7.972656 Z M 15.785156 24.191406 C 15.785156 17.238281 15.785156 10.332031 15.785156 3.382812 C 13.8125 4.679688 11.871094 5.945312 9.949219 7.238281 C 9.492188 7.546875 9.253906 8.039062 9.253906 8.597656 C 9.246094 12.058594 9.246094 15.523438 9.253906 18.984375 C 9.253906 19.613281 9.574219 20.105469 10.089844 20.460938 C 10.539062 20.765625 10.992188 21.058594 11.445312 21.355469 C 12.878906 22.292969 14.3125 23.230469 15.785156 24.191406 Z M 17.132812 13.804688 C 17.132812 17.601562 17.132812 21.398438 17.132812 25.195312 C 17.132812 25.472656 17.125 25.742188 16.875 25.9375 C 16.605469 26.144531 16.347656 26.136719 15.972656 25.890625 C 13.878906 24.515625 11.78125 23.152344 9.695312 21.773438 C 9.359375 21.546875 9.0625 21.261719 8.730469 21.023438 C 8.636719 20.953125 8.492188 20.917969 8.375 20.917969 C 6.738281 20.910156 5.105469 20.910156 3.472656 20.910156 C 2.167969 20.914062 1.144531 20.402344 0.460938 19.296875 C 0.15625 18.804688 0.0117188 18.261719 0.015625 17.683594 C 0.0195312 15.148438 0.0585938 12.613281 0.00390625 10.082031 C -0.0351562 8.367188 1.28125 6.640625 3.46875 6.667969 C 5.105469 6.6875 6.738281 6.675781 8.375 6.664062 C 8.515625 6.664062 8.671875 6.578125 8.792969 6.492188 C 9.003906 6.347656 9.175781 6.152344 9.386719 6.011719 C 11.585938 4.5625 13.792969 3.121094 15.996094 1.679688 C 16.207031 1.539062 16.421875 1.4375 16.6875 1.542969 C 16.925781 1.640625 17.082031 1.796875 17.113281 2.050781 C 17.128906 2.191406 17.132812 2.332031 17.132812 2.472656 C 17.136719 6.25 17.136719 10.027344 17.136719 13.804688 Z M 17.132812 13.804688 "/>
<path style=" stroke:none;fill-rule:nonzero;fill:rgb(92.941176%,41.176471%,36.078431%);fill-opacity:1;" d="M 27.65625 14.382812 C 27.632812 15.839844 27.265625 17.722656 26.15625 19.402344 C 25.835938 19.886719 25.40625 20.304688 24.996094 20.726562 C 24.730469 20.996094 24.296875 20.957031 24.058594 20.699219 C 23.8125 20.4375 23.8125 20.027344 24.105469 19.777344 C 25.230469 18.804688 25.785156 17.527344 26.078125 16.132812 C 26.523438 14.03125 26.410156 11.964844 25.554688 9.964844 C 25.207031 9.148438 24.710938 8.421875 23.992188 7.863281 C 23.65625 7.605469 23.609375 7.230469 23.839844 6.933594 C 24.070312 6.632812 24.476562 6.59375 24.824219 6.855469 C 25.824219 7.609375 26.460938 8.625 26.910156 9.761719 C 27.433594 11.082031 27.660156 12.457031 27.65625 14.382812 Z M 27.65625 14.382812 "/>
<path style=" stroke:none;fill-rule:nonzero;fill:rgb(92.941176%,41.176471%,36.078431%);fill-opacity:1;" d="M 23.722656 13.515625 C 23.679688 15.640625 23.199219 17.273438 21.972656 18.640625 C 21.703125 18.9375 21.375 19.195312 21.054688 19.441406 C 20.691406 19.714844 20.289062 19.660156 20.050781 19.332031 C 19.828125 19.023438 19.914062 18.648438 20.273438 18.390625 C 21.414062 17.582031 22.003906 16.441406 22.25 15.121094 C 22.546875 13.523438 22.351562 11.988281 21.480469 10.578125 C 21.140625 10.027344 20.699219 9.570312 20.140625 9.21875 C 19.742188 8.972656 19.640625 8.601562 19.859375 8.269531 C 20.078125 7.9375 20.460938 7.875 20.855469 8.121094 C 22.25 8.996094 23.039062 10.289062 23.4375 11.820312 C 23.609375 12.480469 23.664062 13.167969 23.71875 13.515625 Z M 23.722656 13.515625 "/>
</g>
</svg>
