<?xml version="1.0" encoding="UTF-8"?>
<svg xmlns="http://www.w3.org/2000/svg" xmlns:xlink="http://www.w3.org/1999/xlink" width="28px" height="28px" viewBox="0 0 28 25" version="1.1">
<g id="surface1">
<path style=" stroke:none;fill-rule:nonzero;fill:rgb(92.941176%,41.176471%,36.078431%);fill-opacity:1;" d="M 7.90625 6.472656 C 7.78125 6.472656 7.683594 6.472656 7.582031 6.472656 C 6.214844 6.472656 4.847656 6.472656 3.480469 6.472656 C 2.164062 6.476562 1.347656 7.269531 1.34375 8.566406 C 1.335938 11.050781 1.335938 13.53125 1.34375 16.015625 C 1.34375 17.3125 2.164062 18.109375 3.480469 18.109375 C 4.847656 18.113281 6.214844 18.109375 7.582031 18.109375 C 7.6875 18.109375 7.796875 18.109375 7.90625 18.109375 C 7.90625 14.214844 7.90625 10.371094 7.90625 6.472656 Z M 15.785156 22.691406 C 15.785156 15.738281 15.785156 8.832031 15.785156 1.882812 C 13.8125 3.179688 11.871094 4.445312 9.949219 5.738281 C 9.492188 6.046875 9.253906 6.539062 9.253906 7.097656 C 9.246094 10.558594 9.246094 14.023438 9.253906 17.484375 C 9.253906 18.113281 9.574219 18.605469 10.089844 18.960938 C 10.539062 19.265625 10.992188 19.558594 11.445312 19.855469 C 12.878906 20.792969 14.3125 21.730469 15.785156 22.691406 Z M 17.132812 12.304688 C 17.132812 16.101562 17.132812 19.898438 17.132812 23.695312 C 17.132812 23.972656 17.125 24.242188 16.875 24.4375 C 16.605469 24.644531 16.347656 24.636719 15.972656 24.390625 C 13.878906 23.015625 11.78125 21.652344 9.695312 20.273438 C 9.359375 20.046875 9.0625 19.761719 8.730469 19.523438 C 8.636719 19.453125 8.492188 19.417969 8.375 19.417969 C 6.738281 19.410156 5.105469 19.410156 3.472656 19.410156 C 2.167969 19.414062 1.144531 18.902344 0.460938 17.796875 C 0.15625 17.304688 0.0117188 16.761719 0.015625 16.183594 C 0.0195312 13.648438 0.0585938 11.113281 0.00390625 8.582031 C -0.0351562 6.867188 1.28125 5.140625 3.46875 5.167969 C 5.105469 5.1875 6.738281 5.175781 8.375 5.164062 C 8.515625 5.164062 8.671875 5.078125 8.792969 4.992188 C 9.003906 4.847656 9.175781 4.652344 9.386719 4.511719 C 11.585938 3.0625 13.792969 1.621094 15.996094 0.179688 C 16.207031 0.0390625 16.421875 -0.0625 16.6875 0.0429688 C 16.925781 0.140625 17.082031 0.296875 17.113281 0.550781 C 17.128906 0.691406 17.132812 0.832031 17.132812 0.972656 C 17.136719 4.75 17.136719 8.527344 17.136719 12.304688 Z M 17.132812 12.304688 "/>
<path style=" stroke:none;fill-rule:nonzero;fill:rgb(92.941176%,41.176471%,36.078431%);fill-opacity:1;" d="M 27.65625 12.882812 C 27.632812 14.339844 27.265625 16.222656 26.15625 17.902344 C 25.835938 18.386719 25.40625 18.804688 24.996094 19.226562 C 24.730469 19.496094 24.296875 19.457031 24.058594 19.199219 C 23.8125 18.9375 23.8125 18.527344 24.105469 18.277344 C 25.230469 17.304688 25.785156 16.027344 26.078125 14.632812 C 26.523438 12.53125 26.410156 10.464844 25.554688 8.464844 C 25.207031 7.648438 24.710938 6.921875 23.992188 6.363281 C 23.65625 6.105469 23.609375 5.730469 23.839844 5.433594 C 24.070312 5.132812 24.476562 5.09375 24.824219 5.355469 C 25.824219 6.109375 26.460938 7.125 26.910156 8.261719 C 27.433594 9.582031 27.660156 10.957031 27.65625 12.882812 Z M 27.65625 12.882812 "/>
<path style=" stroke:none;fill-rule:nonzero;fill:rgb(92.941176%,41.176471%,36.078431%);fill-opacity:1;" d="M 23.722656 12.015625 C 23.679688 14.140625 23.199219 15.773438 21.972656 17.140625 C 21.703125 17.4375 21.375 17.695312 21.054688 17.941406 C 20.691406 18.214844 20.289062 18.160156 20.050781 17.832031 C 19.828125 17.523438 19.914062 17.148438 20.273438 16.890625 C 21.414062 16.082031 22.003906 14.941406 22.25 13.621094 C 22.546875 12.023438 22.351562 10.488281 21.480469 9.078125 C 21.140625 8.527344 20.699219 8.070312 20.140625 7.71875 C 19.742188 7.472656 19.640625 7.101562 19.859375 6.769531 C 20.078125 6.4375 20.460938 6.375 20.855469 6.621094 C 22.25 7.496094 23.039062 8.789062 23.4375 10.320312 C 23.609375 10.980469 23.664062 11.667969 23.71875 12.015625 Z M 23.722656 12.015625 "/>
</g>
</svg>
