<?xml version="1.0" encoding="UTF-8"?>
<svg xmlns="http://www.w3.org/2000/svg" xmlns:xlink="http://www.w3.org/1999/xlink" width="28px" height="28px" viewBox="0 0 28 28" version="1.1">
<g id="surface1">
<path style=" stroke:none;fill-rule:nonzero;fill:rgb(92.941176%,41.176471%,36.078431%);fill-opacity:1;" d="M 7.882812 19.972656 C 7.882812 16.105469 7.882812 12.273438 7.882812 8.433594 C 7.820312 8.429688 7.78125 8.425781 7.742188 8.425781 C 6.261719 8.421875 4.78125 8.417969 3.300781 8.425781 C 3.101562 8.429688 2.890625 8.46875 2.699219 8.527344 C 1.828125 8.792969 1.335938 9.5 1.332031 10.484375 C 1.324219 12.125 1.328125 13.773438 1.328125 15.414062 C 1.328125 16.328125 1.308594 17.242188 1.347656 18.152344 C 1.390625 19.160156 2.167969 19.9375 3.207031 19.960938 C 4.753906 20 6.304688 19.972656 7.882812 19.972656 Z M 15.773438 24.523438 C 15.773438 17.621094 15.773438 10.765625 15.773438 3.878906 C 15.660156 3.949219 15.570312 4.003906 15.488281 4.054688 C 13.78125 5.167969 12.082031 6.292969 10.355469 7.382812 C 9.5625 7.882812 9.210938 8.539062 9.21875 9.457031 C 9.238281 12.617188 9.226562 15.777344 9.226562 18.933594 C 9.226562 19.082031 9.230469 19.234375 9.242188 19.382812 C 9.277344 19.984375 9.558594 20.453125 10.054688 20.800781 C 10.449219 21.074219 10.851562 21.328125 11.253906 21.589844 C 12.75 22.558594 14.242188 23.53125 15.773438 24.523438 Z M 17.125 14.21875 C 17.125 17.949219 17.125 21.679688 17.125 25.410156 C 17.125 25.519531 17.128906 25.628906 17.117188 25.738281 C 17.070312 26.3125 16.550781 26.585938 16.058594 26.269531 C 13.785156 24.796875 11.511719 23.316406 9.242188 21.832031 C 9.140625 21.769531 9.027344 21.695312 8.960938 21.601562 C 8.738281 21.292969 8.433594 21.261719 8.078125 21.261719 C 6.371094 21.265625 4.664062 21.285156 2.960938 21.230469 C 1.394531 21.179688 0.015625 19.738281 0.0078125 18.207031 C -0.00390625 15.539062 -0.00390625 12.871094 0.0078125 10.207031 C 0.015625 8.65625 1.386719 7.21875 2.972656 7.167969 C 4.738281 7.109375 6.507812 7.136719 8.277344 7.132812 C 8.503906 7.132812 8.679688 7.101562 8.839844 6.914062 C 8.996094 6.734375 9.203125 6.585938 9.40625 6.453125 C 11.589844 5.027344 13.777344 3.605469 15.96875 2.183594 C 16.050781 2.128906 16.140625 2.078125 16.234375 2.042969 C 16.601562 1.90625 17.011719 2.121094 17.09375 2.492188 C 17.121094 2.636719 17.121094 2.792969 17.121094 2.941406 C 17.125 6.703125 17.125 10.460938 17.125 14.21875 Z M 17.125 14.21875 "/>
<path style=" stroke:none;fill-rule:nonzero;fill:rgb(92.941176%,41.176471%,36.078431%);fill-opacity:1;" d="M 24.363281 13.277344 C 25.0625 12.59375 25.734375 11.9375 26.410156 11.277344 C 26.492188 11.199219 26.570312 11.121094 26.652344 11.042969 C 26.957031 10.765625 27.347656 10.757812 27.613281 11.019531 C 27.886719 11.285156 27.878906 11.652344 27.589844 11.957031 C 27.414062 12.144531 27.230469 12.316406 27.046875 12.492188 C 26.472656 13.050781 25.898438 13.609375 25.300781 14.191406 C 25.386719 14.28125 25.460938 14.359375 25.539062 14.433594 C 26.21875 15.101562 26.910156 15.761719 27.582031 16.4375 C 27.964844 16.820312 27.847656 17.363281 27.363281 17.53125 C 27.0625 17.632812 26.824219 17.527344 26.613281 17.316406 C 25.945312 16.664062 25.273438 16.015625 24.609375 15.359375 C 24.53125 15.28125 24.492188 15.167969 24.417969 15.050781 C 23.6875 15.765625 23.042969 16.394531 22.398438 17.027344 C 22.296875 17.125 22.195312 17.226562 22.089844 17.324219 C 21.757812 17.632812 21.363281 17.648438 21.085938 17.367188 C 20.820312 17.101562 20.847656 16.710938 21.15625 16.40625 C 21.828125 15.746094 22.507812 15.085938 23.179688 14.429688 C 23.253906 14.359375 23.320312 14.285156 23.410156 14.191406 C 22.855469 13.652344 22.3125 13.125 21.769531 12.59375 C 21.558594 12.390625 21.34375 12.183594 21.136719 11.976562 C 20.847656 11.683594 20.824219 11.300781 21.078125 11.039062 C 21.351562 10.757812 21.75 10.75 22.0625 11.050781 C 22.773438 11.734375 23.472656 12.421875 24.179688 13.109375 C 24.230469 13.160156 24.285156 13.207031 24.363281 13.277344 Z M 24.363281 13.277344 "/>
</g>
</svg>
