<?xml version="1.0" encoding="UTF-8"?>
<svg xmlns="http://www.w3.org/2000/svg" xmlns:xlink="http://www.w3.org/1999/xlink" width="28px" height="28px" viewBox="0 0 28 24" version="1.1">
<g id="surface1">
<path style=" stroke:none;fill-rule:nonzero;fill:rgb(92.941176%,41.176471%,36.078431%);fill-opacity:1;" d="M 7.882812 17.972656 C 7.882812 14.105469 7.882812 10.273438 7.882812 6.433594 C 7.820312 6.429688 7.78125 6.425781 7.742188 6.425781 C 6.261719 6.421875 4.78125 6.417969 3.300781 6.425781 C 3.101562 6.429688 2.890625 6.46875 2.699219 6.527344 C 1.828125 6.792969 1.335938 7.5 1.332031 8.484375 C 1.324219 10.125 1.328125 11.773438 1.328125 13.414062 C 1.328125 14.328125 1.308594 15.242188 1.347656 16.152344 C 1.390625 17.160156 2.167969 17.9375 3.207031 17.960938 C 4.753906 18 6.304688 17.972656 7.882812 17.972656 Z M 15.773438 22.523438 C 15.773438 15.621094 15.773438 8.765625 15.773438 1.878906 C 15.660156 1.949219 15.570312 2.003906 15.488281 2.054688 C 13.78125 3.167969 12.082031 4.292969 10.355469 5.382812 C 9.5625 5.882812 9.210938 6.539062 9.21875 7.457031 C 9.238281 10.617188 9.226562 13.777344 9.226562 16.933594 C 9.226562 17.082031 9.230469 17.234375 9.242188 17.382812 C 9.277344 17.984375 9.558594 18.453125 10.054688 18.800781 C 10.449219 19.074219 10.851562 19.328125 11.253906 19.589844 C 12.75 20.558594 14.242188 21.53125 15.773438 22.523438 Z M 17.125 12.21875 C 17.125 15.949219 17.125 19.679688 17.125 23.410156 C 17.125 23.519531 17.128906 23.628906 17.117188 23.738281 C 17.070312 24.3125 16.550781 24.585938 16.058594 24.269531 C 13.785156 22.796875 11.511719 21.316406 9.242188 19.832031 C 9.140625 19.769531 9.027344 19.695312 8.960938 19.601562 C 8.738281 19.292969 8.433594 19.261719 8.078125 19.261719 C 6.371094 19.265625 4.664062 19.285156 2.960938 19.230469 C 1.394531 19.179688 0.015625 17.738281 0.0078125 16.207031 C -0.00390625 13.539062 -0.00390625 10.871094 0.0078125 8.207031 C 0.015625 6.65625 1.386719 5.21875 2.972656 5.167969 C 4.738281 5.109375 6.507812 5.136719 8.277344 5.132812 C 8.503906 5.132812 8.679688 5.101562 8.839844 4.914062 C 8.996094 4.734375 9.203125 4.585938 9.40625 4.453125 C 11.589844 3.027344 13.777344 1.605469 15.96875 0.183594 C 16.050781 0.128906 16.140625 0.078125 16.234375 0.0429688 C 16.601562 -0.09375 17.011719 0.121094 17.09375 0.492188 C 17.121094 0.636719 17.121094 0.792969 17.121094 0.941406 C 17.125 4.703125 17.125 8.460938 17.125 12.21875 Z M 17.125 12.21875 "/>
<path style=" stroke:none;fill-rule:nonzero;fill:rgb(92.941176%,41.176471%,36.078431%);fill-opacity:1;" d="M 24.363281 11.277344 C 25.0625 10.59375 25.734375 9.9375 26.410156 9.277344 C 26.492188 9.199219 26.570312 9.121094 26.652344 9.042969 C 26.957031 8.765625 27.347656 8.757812 27.613281 9.019531 C 27.886719 9.285156 27.878906 9.652344 27.589844 9.957031 C 27.414062 10.144531 27.230469 10.316406 27.046875 10.492188 C 26.472656 11.050781 25.898438 11.609375 25.300781 12.191406 C 25.386719 12.28125 25.460938 12.359375 25.539062 12.433594 C 26.21875 13.101562 26.910156 13.761719 27.582031 14.4375 C 27.964844 14.820312 27.847656 15.363281 27.363281 15.53125 C 27.0625 15.632812 26.824219 15.527344 26.613281 15.316406 C 25.945312 14.664062 25.273438 14.015625 24.609375 13.359375 C 24.53125 13.28125 24.492188 13.167969 24.417969 13.050781 C 23.6875 13.765625 23.042969 14.394531 22.398438 15.027344 C 22.296875 15.125 22.195312 15.226562 22.089844 15.324219 C 21.757812 15.632812 21.363281 15.648438 21.085938 15.367188 C 20.820312 15.101562 20.847656 14.710938 21.15625 14.40625 C 21.828125 13.746094 22.507812 13.085938 23.179688 12.429688 C 23.253906 12.359375 23.320312 12.285156 23.410156 12.191406 C 22.855469 11.652344 22.3125 11.125 21.769531 10.59375 C 21.558594 10.390625 21.34375 10.183594 21.136719 9.976562 C 20.847656 9.683594 20.824219 9.300781 21.078125 9.039062 C 21.351562 8.757812 21.75 8.75 22.0625 9.050781 C 22.773438 9.734375 23.472656 10.421875 24.179688 11.109375 C 24.230469 11.160156 24.285156 11.207031 24.363281 11.277344 Z M 24.363281 11.277344 "/>
</g>
</svg>
