<?xml version="1.0" encoding="UTF-8"?>
<svg xmlns="http://www.w3.org/2000/svg" xmlns:xlink="http://www.w3.org/1999/xlink" width="28px" height="28px" viewBox="0 0 28 29" version="1.1">
<g id="surface1">
<path style=" stroke:none;fill-rule:nonzero;fill:rgb(92.941176%,41.176471%,36.078431%);fill-opacity:1;" d="M 9.933594 23.359375 C 9.929688 21.128906 8.0625 19.3125 5.78125 19.328125 C 3.488281 19.34375 1.648438 21.152344 1.660156 23.386719 C 1.671875 25.601562 3.515625 27.390625 5.789062 27.394531 C 8.078125 27.398438 9.933594 25.589844 9.933594 23.359375 Z M 18.230469 18.519531 C 18.230469 20.742188 20.097656 22.558594 22.382812 22.554688 C 24.648438 22.550781 26.5 20.761719 26.527344 18.546875 C 26.546875 16.339844 24.675781 14.5 22.386719 14.488281 C 20.117188 14.472656 18.234375 16.300781 18.230469 18.519531 Z M 11.632812 11.714844 C 11.769531 11.675781 11.878906 11.648438 11.984375 11.609375 C 16.730469 9.992188 21.472656 8.378906 26.21875 6.769531 C 26.460938 6.691406 26.53125 6.582031 26.53125 6.34375 C 26.519531 4.984375 26.527344 3.625 26.527344 2.265625 C 26.527344 2.167969 26.511719 2.070312 26.5 1.949219 C 26.398438 1.972656 26.324219 1.984375 26.253906 2.007812 C 21.472656 3.636719 16.695312 5.269531 11.914062 6.890625 C 11.679688 6.972656 11.601562 7.074219 11.601562 7.316406 C 11.613281 8.675781 11.605469 10.035156 11.609375 11.398438 C 11.609375 11.492188 11.625 11.589844 11.632812 11.714844 Z M 9.9375 19.386719 C 9.9375 19.164062 9.9375 19.027344 9.9375 18.890625 C 9.9375 14.835938 9.9375 10.777344 9.9375 6.722656 C 9.9375 5.996094 10.066406 5.816406 10.753906 5.582031 C 16.132812 3.75 21.519531 1.925781 26.894531 0.078125 C 27.535156 -0.144531 28.023438 0.132812 28.148438 0.578125 C 28.175781 0.6875 28.179688 0.804688 28.179688 0.917969 C 28.179688 6.8125 28.191406 12.710938 28.171875 18.609375 C 28.164062 21.5 25.75 23.992188 22.867188 24.148438 C 19.660156 24.320312 16.992188 22.214844 16.613281 19.214844 C 16.328125 16.929688 17.511719 14.679688 19.582031 13.574219 C 21.675781 12.460938 24.210938 12.695312 26.058594 14.167969 C 26.195312 14.273438 26.332031 14.382812 26.507812 14.523438 C 26.507812 12.457031 26.507812 10.453125 26.507812 8.414062 C 26.398438 8.4375 26.3125 8.449219 26.230469 8.476562 C 21.484375 10.089844 16.738281 11.710938 11.988281 13.316406 C 11.695312 13.414062 11.597656 13.535156 11.597656 13.839844 C 11.613281 16.699219 11.621094 19.558594 11.597656 22.421875 C 11.589844 23.207031 11.578125 24.019531 11.390625 24.777344 C 10.714844 27.492188 8.136719 29.207031 5.203125 28.976562 C 2.527344 28.769531 0.296875 26.585938 0.03125 23.90625 C -0.203125 21.585938 1.027344 19.394531 3.171875 18.328125 C 5.273438 17.28125 7.832031 17.59375 9.625 19.121094 C 9.699219 19.1875 9.777344 19.253906 9.9375 19.386719 Z M 9.9375 19.386719 "/>
</g>
</svg>
