<?xml version="1.0" encoding="UTF-8"?>
<svg xmlns="http://www.w3.org/2000/svg" xmlns:xlink="http://www.w3.org/1999/xlink" width="28px" height="28px" viewBox="0 0 28 28" version="1.1">
<g id="surface1">
<path style=" stroke:none;fill-rule:nonzero;fill:rgb(92.941176%,41.176471%,36.078431%);fill-opacity:1;" d="M 10.074219 22.554688 C 10.070312 20.398438 8.265625 18.648438 6.066406 18.660156 C 3.851562 18.675781 2.074219 20.421875 2.085938 22.582031 C 2.097656 24.71875 3.878906 26.445312 6.070312 26.449219 C 8.28125 26.453125 10.074219 24.707031 10.074219 22.554688 Z M 18.085938 17.882812 C 18.085938 20.027344 19.886719 21.78125 22.09375 21.777344 C 24.28125 21.773438 26.070312 20.046875 26.09375 17.90625 C 26.113281 15.777344 24.308594 14 22.097656 13.988281 C 19.90625 13.972656 18.089844 15.738281 18.085938 17.882812 Z M 11.714844 11.3125 C 11.847656 11.273438 11.953125 11.246094 12.054688 11.210938 C 16.636719 9.648438 21.214844 8.089844 25.796875 6.535156 C 26.03125 6.460938 26.097656 6.355469 26.097656 6.125 C 26.085938 4.8125 26.09375 3.5 26.09375 2.1875 C 26.09375 2.09375 26.082031 2 26.070312 1.882812 C 25.972656 1.90625 25.898438 1.914062 25.832031 1.9375 C 21.214844 3.511719 16.601562 5.085938 11.984375 6.652344 C 11.757812 6.730469 11.683594 6.832031 11.683594 7.0625 C 11.695312 8.375 11.6875 9.6875 11.691406 11.003906 C 11.691406 11.097656 11.707031 11.191406 11.714844 11.3125 Z M 10.078125 18.71875 C 10.078125 18.503906 10.078125 18.371094 10.078125 18.238281 C 10.078125 14.324219 10.078125 10.40625 10.078125 6.492188 C 10.078125 5.789062 10.203125 5.617188 10.867188 5.390625 C 16.058594 3.621094 21.261719 1.859375 26.449219 0.0742188 C 27.070312 -0.140625 27.539062 0.128906 27.660156 0.558594 C 27.6875 0.664062 27.691406 0.777344 27.691406 0.886719 C 27.691406 6.578125 27.703125 12.273438 27.683594 17.96875 C 27.675781 20.757812 25.34375 23.164062 22.5625 23.316406 C 19.464844 23.480469 16.890625 21.449219 16.523438 18.550781 C 16.246094 16.347656 17.390625 14.171875 19.390625 13.105469 C 21.410156 12.03125 23.859375 12.257812 25.644531 13.679688 C 25.773438 13.78125 25.90625 13.886719 26.078125 14.023438 C 26.078125 12.027344 26.078125 10.09375 26.078125 8.125 C 25.972656 8.148438 25.886719 8.15625 25.808594 8.183594 C 21.226562 9.742188 16.644531 11.308594 12.058594 12.855469 C 11.773438 12.953125 11.679688 13.070312 11.679688 13.363281 C 11.695312 16.125 11.703125 18.882812 11.679688 21.648438 C 11.671875 22.40625 11.660156 23.191406 11.480469 23.921875 C 10.828125 26.542969 8.339844 28.199219 5.507812 27.976562 C 2.921875 27.777344 0.769531 25.667969 0.511719 23.082031 C 0.285156 20.839844 1.476562 18.726562 3.546875 17.695312 C 5.574219 16.683594 8.042969 16.988281 9.777344 18.460938 C 9.847656 18.527344 9.921875 18.589844 10.078125 18.71875 Z M 10.078125 18.71875 "/>
</g>
</svg>
