<?xml version="1.0" encoding="UTF-8"?>
<svg xmlns="http://www.w3.org/2000/svg" xmlns:xlink="http://www.w3.org/1999/xlink" width="28px" height="28px" viewBox="0 0 28 28" version="1.1">
<g id="surface1">
<path style=" stroke:none;fill-rule:nonzero;fill:rgb(92.941176%,41.176471%,36.078431%);fill-opacity:1;" d="M 12.492188 26.273438 C 14.78125 26.292969 16.648438 24.460938 16.679688 22.171875 C 16.710938 19.890625 14.828125 17.992188 12.539062 17.980469 C 10.257812 17.96875 8.394531 19.828125 8.382812 22.117188 C 8.371094 24.417969 10.195312 26.265625 12.492188 26.28125 Z M 16.679688 18.398438 C 16.679688 18.238281 16.679688 18.113281 16.679688 17.984375 C 16.679688 12.335938 16.679688 6.6875 16.679688 1.035156 C 16.679688 0.90625 16.671875 0.773438 16.683594 0.640625 C 16.714844 0.28125 16.984375 0.015625 17.339844 0 C 17.695312 -0.0117188 18.007812 0.25 18.054688 0.617188 C 18.066406 0.703125 18.0625 0.792969 18.0625 0.878906 C 18.0625 7.9375 18.0625 14.984375 18.0625 22.042969 C 18.0625 24.839844 16.210938 27.0625 13.46875 27.578125 C 10.375 28.164062 7.300781 25.828125 7.03125 22.699219 C 6.777344 19.765625 8.628906 17.25 11.5 16.699219 C 13.351562 16.34375 14.984375 16.859375 16.367188 18.148438 C 16.445312 18.21875 16.523438 18.292969 16.601562 18.371094 C 16.605469 18.375 16.617188 18.375 16.683594 18.398438 Z M 16.679688 18.398438 "/>
<path style=" stroke:none;fill-rule:nonzero;fill:rgb(92.941176%,41.176471%,36.078431%);fill-opacity:1;" d="M 17.910156 0.257812 L 20.5 2.648438 C 20.796875 2.921875 20.8125 3.378906 20.539062 3.671875 L 20.53125 3.679688 C 20.257812 3.976562 19.785156 3.984375 19.492188 3.714844 L 16.90625 1.316406 C 16.683594 1.113281 16.609375 0.792969 16.734375 0.511719 C 16.929688 0.046875 17.539062 -0.0859375 17.910156 0.257812 Z M 17.910156 0.257812 "/>
</g>
</svg>
