<?xml version="1.0" encoding="UTF-8"?>
<svg xmlns="http://www.w3.org/2000/svg" xmlns:xlink="http://www.w3.org/1999/xlink" width="28px" height="28px" viewBox="0 0 28 56" version="1.1">
<g id="surface1">
<path style=" stroke:none;fill-rule:nonzero;fill:rgb(92.941176%,41.176471%,36.078431%);fill-opacity:1;" d="M 10.988281 52.550781 C 15.558594 52.585938 19.296875 48.921875 19.355469 44.339844 C 19.417969 39.785156 15.652344 35.984375 11.074219 35.960938 C 6.515625 35.9375 2.789062 39.652344 2.765625 44.230469 C 2.742188 48.835938 6.394531 52.527344 10.988281 52.5625 Z M 19.355469 36.800781 C 19.355469 36.476562 19.355469 36.226562 19.355469 35.972656 C 19.355469 24.671875 19.355469 13.371094 19.355469 2.070312 C 19.355469 1.816406 19.34375 1.550781 19.367188 1.285156 C 19.429688 0.566406 19.96875 0.0351562 20.679688 0 C 21.386719 -0.0234375 22.011719 0.503906 22.109375 1.238281 C 22.132812 1.40625 22.121094 1.585938 22.121094 1.757812 C 22.121094 15.871094 22.121094 29.972656 22.121094 44.085938 C 22.121094 49.679688 18.417969 54.125 12.9375 55.160156 C 6.746094 56.328125 0.601562 51.660156 0.0585938 45.398438 C -0.445312 39.53125 3.257812 34.503906 9.003906 33.398438 C 12.707031 32.691406 15.964844 33.722656 18.730469 36.296875 C 18.886719 36.441406 19.042969 36.585938 19.199219 36.742188 C 19.210938 36.753906 19.234375 36.753906 19.367188 36.800781 Z M 19.355469 36.800781 "/>
<path style=" stroke:none;fill-rule:nonzero;fill:rgb(92.941176%,41.176471%,36.078431%);fill-opacity:1;" d="M 21.820312 0.515625 L 27.003906 5.300781 C 27.59375 5.84375 27.628906 6.757812 27.074219 7.347656 L 27.0625 7.359375 C 26.511719 7.949219 25.570312 7.972656 24.984375 7.429688 L 19.8125 2.632812 C 19.367188 2.226562 19.222656 1.585938 19.464844 1.023438 C 19.863281 0.0976562 21.074219 -0.167969 21.820312 0.515625 Z M 21.820312 0.515625 "/>
</g>
</svg>
