<?xml version="1.0" encoding="UTF-8"?>
<svg xmlns="http://www.w3.org/2000/svg" xmlns:xlink="http://www.w3.org/1999/xlink" width="28px" height="28px" viewBox="0 0 28 28" version="1.1">
<g id="surface1">
<path style="fill-rule:nonzero;fill:rgb(92.941176%,41.176471%,36.078431%);fill-opacity:1;stroke-width:0.24;stroke-linecap:butt;stroke-linejoin:miter;stroke:rgb(92.941176%,41.176471%,36.078431%);stroke-opacity:1;stroke-miterlimit:22.9256;" d="M 35.28006 0.121064 L 5.826861 0.121064 C 2.687838 0.121064 0.128194 2.680708 0.128194 5.828378 L 0.128194 56.009504 C 0.128194 59.157174 2.687838 61.708171 5.826861 61.708171 L 35.28006 61.708171 C 38.42773 61.708171 40.987374 59.148527 40.987374 56.009504 L 40.987374 5.828378 C 40.987374 2.680708 38.42773 0.121064 35.28006 0.121064 Z M 39.067641 56.000857 C 39.067641 58.076244 37.372742 59.77979 35.28006 59.77979 L 5.826861 59.77979 C 3.751474 59.77979 2.047927 58.076244 2.047927 56.000857 L 2.047927 5.828378 C 2.047927 3.735696 3.751474 2.040797 5.826861 2.040797 L 35.28006 2.040797 C 37.364094 2.040797 39.067641 3.735696 39.067641 5.819731 Z M 39.067641 56.000857 " transform="matrix(0.451723,0,0,0.451723,0.000685556,0)"/>
<path style="fill-rule:nonzero;fill:rgb(92.941176%,41.176471%,36.078431%);fill-opacity:1;stroke-width:0.24;stroke-linecap:butt;stroke-linejoin:miter;stroke:rgb(92.941176%,41.176471%,36.078431%);stroke-opacity:1;stroke-miterlimit:22.9256;" d="M 20.55346 29.392667 C 13.78251 29.392667 8.248145 34.90109 8.248145 41.689335 C 8.248145 48.477579 13.756568 53.986002 20.55346 53.986002 C 27.341705 53.986002 32.850128 48.477579 32.850128 41.689335 C 32.850128 34.90109 27.341705 29.392667 20.55346 29.392667 Z M 20.55346 52.057622 C 14.837499 52.057622 10.176526 47.396648 10.176526 41.689335 C 10.176526 35.982021 14.837499 31.321047 20.55346 31.321047 C 26.269422 31.321047 30.921747 35.982021 30.921747 41.689335 C 30.921747 47.396648 26.278069 52.057622 20.55346 52.057622 Z M 20.55346 52.057622 " transform="matrix(0.451723,0,0,0.451723,0.000685556,0)"/>
<path style="fill-rule:nonzero;fill:rgb(92.941176%,41.176471%,36.078431%);fill-opacity:1;stroke-width:0.24;stroke-linecap:butt;stroke-linejoin:miter;stroke:rgb(92.941176%,41.176471%,36.078431%);stroke-opacity:1;stroke-miterlimit:22.9256;" d="M 20.55346 26.141228 C 25.586273 26.141228 29.69381 22.042338 29.69381 17.000878 C 29.69381 11.959417 25.586273 7.860528 20.55346 7.860528 C 15.511999 7.860528 11.41311 11.959417 11.41311 17.000878 C 11.41311 22.042338 15.520647 26.141228 20.55346 26.141228 Z M 20.55346 9.780261 C 24.531285 9.780261 27.774077 13.023053 27.774077 17.000878 C 27.774077 20.978703 24.531285 24.221495 20.55346 24.221495 C 16.566988 24.221495 13.332843 20.978703 13.332843 17.000878 C 13.332843 13.023053 16.584283 9.780261 20.55346 9.780261 Z M 20.55346 9.780261 " transform="matrix(0.451723,0,0,0.451723,0.000685556,0)"/>
<path style=" stroke:none;fill-rule:nonzero;fill:rgb(92.941176%,41.176471%,36.078431%);fill-opacity:1;" d="M 28.328125 14.5625 C 28.304688 16.039062 27.941406 17.953125 26.835938 19.65625 C 26.515625 20.148438 26.09375 20.570312 25.679688 20.996094 C 25.414062 21.273438 24.984375 21.230469 24.746094 20.96875 C 24.503906 20.703125 24.507812 20.285156 24.796875 20.035156 C 25.917969 19.042969 26.46875 17.753906 26.761719 16.339844 C 27.203125 14.210938 27.089844 12.109375 26.242188 10.085938 C 25.894531 9.253906 25.402344 8.523438 24.683594 7.953125 C 24.347656 7.6875 24.304688 7.3125 24.535156 7.011719 C 24.765625 6.707031 25.167969 6.667969 25.515625 6.933594 C 26.511719 7.699219 27.140625 8.726562 27.59375 9.878906 C 28.113281 11.222656 28.335938 12.613281 28.332031 14.5625 Z M 28.328125 14.5625 "/>
<path style=" stroke:none;fill-rule:nonzero;fill:rgb(92.941176%,41.176471%,36.078431%);fill-opacity:1;" d="M 24.410156 13.6875 C 24.371094 15.84375 23.890625 17.496094 22.667969 18.882812 C 22.398438 19.183594 22.078125 19.445312 21.75 19.695312 C 21.390625 19.976562 20.988281 19.917969 20.757812 19.585938 C 20.535156 19.269531 20.617188 18.890625 20.980469 18.628906 C 22.113281 17.808594 22.703125 16.65625 22.949219 15.316406 C 23.246094 13.695312 23.046875 12.140625 22.183594 10.710938 C 21.847656 10.148438 21.40625 9.691406 20.851562 9.335938 C 20.453125 9.085938 20.351562 8.710938 20.570312 8.375 C 20.789062 8.035156 21.171875 7.972656 21.566406 8.226562 C 22.953125 9.109375 23.738281 10.421875 24.136719 11.976562 C 24.308594 12.644531 24.363281 13.339844 24.417969 13.695312 Z M 24.410156 13.6875 "/>
</g>
</svg>
