<?xml version="1.0" encoding="UTF-8"?>
<svg xmlns="http://www.w3.org/2000/svg" xmlns:xlink="http://www.w3.org/1999/xlink" width="28px" height="28px" viewBox="0 0 28 28" version="1.1">
<g id="surface1">
<path style="fill-rule:nonzero;fill:rgb(92.941176%,41.176471%,36.078431%);fill-opacity:1;stroke-width:0.24;stroke-linecap:butt;stroke-linejoin:miter;stroke:rgb(92.941176%,41.176471%,36.078431%);stroke-opacity:1;stroke-miterlimit:22.9256;" d="M 35.280064 0.121064 L 5.826861 0.121064 C 2.687838 0.121064 0.128194 2.680708 0.128194 5.828379 L 0.128194 56.00951 C 0.128194 59.157181 2.687838 61.708178 5.826861 61.708178 L 35.280064 61.708178 C 38.427734 61.708178 40.987378 59.148533 40.987378 56.00951 L 40.987378 5.828379 C 40.987378 2.680708 38.427734 0.121064 35.280064 0.121064 Z M 39.067645 56.000863 C 39.067645 58.07625 37.372746 59.779797 35.280064 59.779797 L 5.826861 59.779797 C 3.751474 59.779797 2.047927 58.07625 2.047927 56.000863 L 2.047927 5.828379 C 2.047927 3.735697 3.751474 2.040797 5.826861 2.040797 L 35.280064 2.040797 C 37.364098 2.040797 39.067645 3.735697 39.067645 5.819731 Z M 39.067645 56.000863 " transform="matrix(0.451723,0,0,0.451723,0.000685556,0)"/>
<path style="fill-rule:nonzero;fill:rgb(92.941176%,41.176471%,36.078431%);fill-opacity:1;stroke-width:0.24;stroke-linecap:butt;stroke-linejoin:miter;stroke:rgb(92.941176%,41.176471%,36.078431%);stroke-opacity:1;stroke-miterlimit:22.9256;" d="M 20.553462 29.39267 C 13.782512 29.39267 8.248146 34.901094 8.248146 41.689339 C 8.248146 48.477585 13.75657 53.986008 20.553462 53.986008 C 27.341708 53.986008 32.850131 48.477585 32.850131 41.689339 C 32.850131 34.901094 27.341708 29.39267 20.553462 29.39267 Z M 20.553462 52.057627 C 14.8375 52.057627 10.176527 47.396654 10.176527 41.689339 C 10.176527 35.982024 14.8375 31.321051 20.553462 31.321051 C 26.269425 31.321051 30.921751 35.982024 30.921751 41.689339 C 30.921751 47.396654 26.278072 52.057627 20.553462 52.057627 Z M 20.553462 52.057627 " transform="matrix(0.451723,0,0,0.451723,0.000685556,0)"/>
<path style="fill-rule:nonzero;fill:rgb(92.941176%,41.176471%,36.078431%);fill-opacity:1;stroke-width:0.24;stroke-linecap:butt;stroke-linejoin:miter;stroke:rgb(92.941176%,41.176471%,36.078431%);stroke-opacity:1;stroke-miterlimit:22.9256;" d="M 20.553462 26.14123 C 25.586276 26.14123 29.693813 22.042341 29.693813 17.00088 C 29.693813 11.959418 25.586276 7.860529 20.553462 7.860529 C 15.512001 7.860529 11.413112 11.959418 11.413112 17.00088 C 11.413112 22.042341 15.520649 26.14123 20.553462 26.14123 Z M 20.553462 9.780262 C 24.531288 9.780262 27.77408 13.023054 27.77408 17.00088 C 27.77408 20.978705 24.531288 24.221497 20.553462 24.221497 C 16.56699 24.221497 13.332845 20.978705 13.332845 17.00088 C 13.332845 13.023054 16.584285 9.780262 20.553462 9.780262 Z M 20.553462 9.780262 " transform="matrix(0.451723,0,0,0.451723,0.000685556,0)"/>
<path style=" stroke:none;fill-rule:nonzero;fill:rgb(92.941176%,41.176471%,36.078431%);fill-opacity:1;" d="M 28.328125 14.5625 C 28.304688 16.039062 27.941406 17.953125 26.835938 19.65625 C 26.515625 20.148438 26.09375 20.570312 25.679688 20.996094 C 25.414062 21.273438 24.984375 21.230469 24.746094 20.96875 C 24.503906 20.703125 24.507812 20.285156 24.796875 20.035156 C 25.917969 19.042969 26.46875 17.753906 26.761719 16.339844 C 27.203125 14.210938 27.089844 12.109375 26.242188 10.085938 C 25.894531 9.253906 25.402344 8.523438 24.683594 7.953125 C 24.347656 7.6875 24.304688 7.3125 24.535156 7.011719 C 24.765625 6.707031 25.167969 6.667969 25.515625 6.933594 C 26.511719 7.699219 27.140625 8.726562 27.59375 9.878906 C 28.113281 11.222656 28.335938 12.613281 28.332031 14.5625 Z M 28.328125 14.5625 "/>
<path style=" stroke:none;fill-rule:nonzero;fill:rgb(92.941176%,41.176471%,36.078431%);fill-opacity:1;" d="M 24.410156 13.6875 C 24.371094 15.84375 23.890625 17.496094 22.667969 18.882812 C 22.398438 19.183594 22.078125 19.445312 21.75 19.695312 C 21.390625 19.976562 20.988281 19.917969 20.757812 19.585938 C 20.535156 19.269531 20.617188 18.890625 20.980469 18.628906 C 22.113281 17.808594 22.703125 16.65625 22.949219 15.316406 C 23.246094 13.695312 23.046875 12.140625 22.183594 10.710938 C 21.847656 10.148438 21.40625 9.691406 20.851562 9.335938 C 20.453125 9.085938 20.351562 8.710938 20.570312 8.375 C 20.789062 8.035156 21.171875 7.972656 21.566406 8.226562 C 22.953125 9.109375 23.738281 10.421875 24.136719 11.976562 C 24.308594 12.644531 24.363281 13.339844 24.417969 13.695312 Z M 24.410156 13.6875 "/>
</g>
</svg>
