<?xml version="1.0" encoding="UTF-8"?>
<svg xmlns="http://www.w3.org/2000/svg" xmlns:xlink="http://www.w3.org/1999/xlink" width="28px" height="28px" viewBox="0 0 28 28" version="1.1">
<g id="surface1">
<path style="fill-rule:nonzero;fill:rgb(92.941176%,41.176471%,36.078431%);fill-opacity:1;stroke-width:0.18;stroke-linecap:butt;stroke-linejoin:miter;stroke:rgb(92.941176%,41.176471%,36.078431%);stroke-opacity:1;stroke-miterlimit:22.9256;" d="M 25.977509 0.0891733 L 4.288295 0.0891733 C 1.980538 0.0891733 0.0923729 1.980921 0.0923729 4.299427 L 0.0923729 41.261758 C 0.0923729 43.580263 1.980538 45.459272 4.288295 45.459272 L 25.977509 45.459272 C 28.297607 45.459272 30.191943 43.567524 30.191943 41.261758 L 30.191943 4.299427 C 30.191943 1.980921 28.297607 0.0891733 25.977509 0.0891733 Z M 28.772734 41.249019 C 28.772734 42.777704 27.520128 44.032499 25.977509 44.032499 L 4.288295 44.032499 C 2.758017 44.032499 1.511582 42.777704 1.511582 41.249019 L 1.511582 4.299427 C 1.511582 2.758003 2.758017 1.509576 4.288295 1.509576 L 25.977509 1.509576 C 27.507787 1.509576 28.772734 2.758003 28.772734 4.293057 Z M 28.772734 41.249019 " transform="matrix(0.633055,0,0,0.613272,0.000116634,0)"/>
<path style="fill-rule:nonzero;fill:rgb(92.941176%,41.176471%,36.078431%);fill-opacity:1;stroke-width:0.18;stroke-linecap:butt;stroke-linejoin:miter;stroke:rgb(92.941176%,41.176471%,36.078431%);stroke-opacity:1;stroke-miterlimit:22.9256;" d="M 15.129817 21.650002 C 10.137904 21.650002 6.071562 25.707387 6.071562 30.707461 C 6.071562 35.707535 10.131733 39.77129 15.129817 39.77129 C 20.1279 39.77129 24.188072 35.707535 24.188072 30.707461 C 24.188072 25.707387 20.1279 21.650002 15.129817 21.650002 Z M 15.129817 38.338147 C 10.921554 38.338147 7.490771 34.911345 7.490771 30.701092 C 7.490771 26.490838 10.921554 23.057666 15.129817 23.057666 C 19.33808 23.057666 22.768863 26.490838 22.768863 30.701092 C 22.768863 34.911345 19.350421 38.338147 15.129817 38.338147 Z M 15.129817 38.338147 " transform="matrix(0.633055,0,0,0.613272,0.000116634,0)"/>
<path style="fill-rule:nonzero;fill:rgb(92.941176%,41.176471%,36.078431%);fill-opacity:1;stroke-width:0.18;stroke-linecap:butt;stroke-linejoin:miter;stroke:rgb(92.941176%,41.176471%,36.078431%);stroke-opacity:1;stroke-miterlimit:22.9256;" d="M 15.129817 19.261432 C 18.838271 19.261432 21.861804 16.242279 21.861804 12.528848 C 21.861804 8.821787 18.838271 5.802634 15.129817 5.802634 C 11.421362 5.802634 8.39783 8.821787 8.39783 12.528848 C 8.39783 16.242279 11.427533 19.261432 15.129817 19.261432 Z M 15.129817 7.210298 C 18.060792 7.210298 20.448765 9.592499 20.448765 12.528848 C 20.448765 15.458828 18.066962 17.847398 15.129817 17.847398 C 12.198842 17.847398 9.810869 15.471567 9.810869 12.528848 C 9.810869 9.598868 12.198842 7.210298 15.129817 7.210298 Z M 15.129817 7.210298 " transform="matrix(0.633055,0,0,0.613272,0.000116634,0)"/>
<path style=" stroke:none;fill-rule:nonzero;fill:rgb(92.941176%,41.176471%,36.078431%);fill-opacity:1;" d="M 24.621094 13.019531 C 25.335938 12.328125 26.03125 11.652344 26.722656 10.976562 C 26.804688 10.898438 26.886719 10.816406 26.96875 10.738281 C 27.285156 10.457031 27.683594 10.445312 27.957031 10.714844 C 28.234375 10.984375 28.226562 11.359375 27.929688 11.671875 C 27.753906 11.859375 27.5625 12.03125 27.375 12.214844 C 26.785156 12.785156 26.195312 13.355469 25.574219 13.945312 C 25.664062 14.039062 25.738281 14.117188 25.824219 14.191406 C 26.523438 14.871094 27.234375 15.546875 27.925781 16.234375 C 28.316406 16.625 28.195312 17.183594 27.695312 17.347656 C 27.390625 17.453125 27.144531 17.34375 26.925781 17.136719 C 26.242188 16.464844 25.550781 15.804688 24.867188 15.136719 C 24.785156 15.054688 24.738281 14.9375 24.671875 14.824219 C 23.917969 15.550781 23.257812 16.195312 22.59375 16.839844 C 22.492188 16.945312 22.386719 17.042969 22.277344 17.148438 C 21.933594 17.464844 21.53125 17.476562 21.246094 17.191406 C 20.972656 16.921875 21 16.523438 21.316406 16.207031 C 22.003906 15.535156 22.703125 14.859375 23.398438 14.191406 C 23.472656 14.117188 23.542969 14.042969 23.632812 13.953125 C 23.0625 13.398438 22.503906 12.859375 21.949219 12.320312 C 21.734375 12.113281 21.511719 11.902344 21.296875 11.6875 C 21 11.386719 20.972656 10.996094 21.234375 10.730469 C 21.511719 10.445312 21.921875 10.445312 22.246094 10.746094 C 22.972656 11.4375 23.695312 12.144531 24.421875 12.84375 C 24.472656 12.890625 24.53125 12.941406 24.613281 13.011719 Z M 24.621094 13.019531 "/>
</g>
</svg>
