<?xml version="1.0" encoding="UTF-8"?>
<svg xmlns="http://www.w3.org/2000/svg" xmlns:xlink="http://www.w3.org/1999/xlink" width="28px" height="28px" viewBox="0 0 28 28" version="1.1">
<g id="surface1">
<path style="fill-rule:nonzero;fill:rgb(92.941176%,41.176471%,36.078431%);fill-opacity:1;stroke-width:0.18;stroke-linecap:butt;stroke-linejoin:miter;stroke:rgb(92.941176%,41.176471%,36.078431%);stroke-opacity:1;stroke-miterlimit:22.9256;" d="M 25.977515 0.0891733 L 4.288296 0.0891733 C 1.980538 0.0891733 0.0923729 1.980922 0.0923729 4.299428 L 0.0923729 41.261769 C 0.0923729 43.580275 1.980538 45.459284 4.288296 45.459284 L 25.977515 45.459284 C 28.297614 45.459284 30.19195 43.567536 30.19195 41.261769 L 30.19195 4.299428 C 30.19195 1.980922 28.297614 0.0891733 25.977515 0.0891733 Z M 28.77274 41.24903 C 28.77274 42.777715 27.520134 44.032511 25.977515 44.032511 L 4.288296 44.032511 C 2.758018 44.032511 1.511582 42.777715 1.511582 41.24903 L 1.511582 4.299428 C 1.511582 2.758003 2.758018 1.509577 4.288296 1.509577 L 25.977515 1.509577 C 27.507793 1.509577 28.77274 2.758003 28.77274 4.293058 Z M 28.77274 41.24903 " transform="matrix(0.633055,0,0,0.613272,0.000116634,0)"/>
<path style="fill-rule:nonzero;fill:rgb(92.941176%,41.176471%,36.078431%);fill-opacity:1;stroke-width:0.18;stroke-linecap:butt;stroke-linejoin:miter;stroke:rgb(92.941176%,41.176471%,36.078431%);stroke-opacity:1;stroke-miterlimit:22.9256;" d="M 15.12982 21.650008 C 10.137906 21.650008 6.071563 25.707394 6.071563 30.70747 C 6.071563 35.707545 10.131736 39.7713 15.12982 39.7713 C 20.127905 39.7713 24.188077 35.707545 24.188077 30.70747 C 24.188077 25.707394 20.127905 21.650008 15.12982 21.650008 Z M 15.12982 38.338158 C 10.921556 38.338158 7.490772 34.911355 7.490772 30.7011 C 7.490772 26.490845 10.921556 23.057673 15.12982 23.057673 C 19.338084 23.057673 22.768868 26.490845 22.768868 30.7011 C 22.768868 34.911355 19.350425 38.338158 15.12982 38.338158 Z M 15.12982 38.338158 " transform="matrix(0.633055,0,0,0.613272,0.000116634,0)"/>
<path style="fill-rule:nonzero;fill:rgb(92.941176%,41.176471%,36.078431%);fill-opacity:1;stroke-width:0.18;stroke-linecap:butt;stroke-linejoin:miter;stroke:rgb(92.941176%,41.176471%,36.078431%);stroke-opacity:1;stroke-miterlimit:22.9256;" d="M 15.12982 19.261437 C 18.838276 19.261437 21.861808 16.242283 21.861808 12.528851 C 21.861808 8.821789 18.838276 5.802635 15.12982 5.802635 C 11.421365 5.802635 8.397832 8.821789 8.397832 12.528851 C 8.397832 16.242283 11.427535 19.261437 15.12982 19.261437 Z M 15.12982 7.2103 C 18.060796 7.2103 20.44877 9.592501 20.44877 12.528851 C 20.44877 15.458832 18.066966 17.847403 15.12982 17.847403 C 12.198845 17.847403 9.810871 15.471571 9.810871 12.528851 C 9.810871 9.598871 12.198845 7.2103 15.12982 7.2103 Z M 15.12982 7.2103 " transform="matrix(0.633055,0,0,0.613272,0.000116634,0)"/>
<path style=" stroke:none;fill-rule:nonzero;fill:rgb(92.941176%,41.176471%,36.078431%);fill-opacity:1;" d="M 24.621094 13.019531 C 25.335938 12.328125 26.03125 11.652344 26.722656 10.976562 C 26.804688 10.898438 26.886719 10.816406 26.96875 10.738281 C 27.285156 10.457031 27.683594 10.445312 27.957031 10.714844 C 28.234375 10.984375 28.226562 11.359375 27.929688 11.671875 C 27.753906 11.859375 27.5625 12.03125 27.375 12.214844 C 26.785156 12.785156 26.195312 13.355469 25.574219 13.945312 C 25.664062 14.039062 25.738281 14.117188 25.824219 14.191406 C 26.523438 14.871094 27.234375 15.546875 27.925781 16.234375 C 28.316406 16.625 28.195312 17.183594 27.695312 17.347656 C 27.390625 17.453125 27.144531 17.34375 26.925781 17.136719 C 26.242188 16.464844 25.550781 15.804688 24.867188 15.136719 C 24.785156 15.054688 24.738281 14.9375 24.671875 14.824219 C 23.917969 15.550781 23.257812 16.195312 22.59375 16.839844 C 22.492188 16.945312 22.386719 17.042969 22.277344 17.148438 C 21.933594 17.464844 21.53125 17.476562 21.246094 17.191406 C 20.972656 16.921875 21 16.523438 21.316406 16.207031 C 22.003906 15.535156 22.703125 14.859375 23.398438 14.191406 C 23.472656 14.117188 23.542969 14.042969 23.632812 13.953125 C 23.0625 13.398438 22.503906 12.859375 21.949219 12.320312 C 21.734375 12.113281 21.511719 11.902344 21.296875 11.6875 C 21 11.386719 20.972656 10.996094 21.234375 10.730469 C 21.511719 10.445312 21.921875 10.445312 22.246094 10.746094 C 22.972656 11.4375 23.695312 12.144531 24.421875 12.84375 C 24.472656 12.890625 24.53125 12.941406 24.613281 13.011719 Z M 24.621094 13.019531 "/>
</g>
</svg>
