<?xml version="1.0" encoding="UTF-8"?>
<svg xmlns="http://www.w3.org/2000/svg" xmlns:xlink="http://www.w3.org/1999/xlink" width="28px" height="28px" viewBox="0 0 28 28" version="1.1">
<g id="surface1">
<path style=" stroke:none;fill-rule:nonzero;fill:rgb(92.941176%,41.176471%,36.078431%);fill-opacity:1;" d="M 13.910156 26.511719 C 20.832031 26.53125 26.472656 20.910156 26.515625 13.941406 C 26.566406 7.023438 20.894531 1.339844 13.929688 1.316406 C 7.007812 1.300781 1.367188 6.921875 1.324219 13.886719 C 1.28125 20.804688 6.945312 26.488281 13.910156 26.511719 Z M 13.902344 0 C 21.582031 -0.0117188 27.832031 6.226562 27.839844 13.914062 C 27.839844 21.589844 21.617188 27.816406 13.9375 27.828125 C 6.257812 27.839844 0 21.59375 0 13.914062 C 0 6.238281 6.222656 0.015625 13.902344 0 Z M 13.902344 0 "/>
<path style=" stroke:none;fill-rule:nonzero;fill:rgb(92.941176%,41.176471%,36.078431%);fill-opacity:1;" d="M 17.207031 10.015625 C 15.554688 11.339844 13.957031 12.617188 12.328125 13.917969 C 13.957031 15.222656 15.558594 16.503906 17.207031 17.816406 C 17.207031 15.199219 17.207031 12.640625 17.207031 10.015625 Z M 18.5625 13.914062 C 18.5625 15.632812 18.574219 17.351562 18.550781 19.070312 C 18.550781 19.292969 18.441406 19.558594 18.296875 19.726562 C 18.074219 19.976562 17.722656 19.929688 17.402344 19.667969 C 15.839844 18.425781 14.28125 17.179688 12.722656 15.925781 C 12.136719 15.453125 11.546875 14.988281 10.957031 14.515625 C 10.476562 14.125 10.484375 13.695312 10.972656 13.308594 C 13.113281 11.59375 15.253906 9.882812 17.394531 8.167969 C 17.628906 7.980469 17.875 7.886719 18.167969 8.019531 C 18.472656 8.15625 18.5625 8.417969 18.5625 8.730469 C 18.5625 10.460938 18.5625 12.191406 18.5625 13.914062 Z M 18.5625 13.914062 "/>
<path style=" stroke:none;fill-rule:nonzero;fill:rgb(92.941176%,41.176471%,36.078431%);fill-opacity:1;" d="M 9.277344 13.914062 C 9.277344 15.621094 9.28125 17.328125 9.269531 19.03125 C 9.269531 19.203125 9.253906 19.390625 9.175781 19.535156 C 9.042969 19.796875 8.792969 19.914062 8.496094 19.859375 C 8.191406 19.796875 8.007812 19.597656 7.957031 19.292969 C 7.941406 19.191406 7.953125 19.085938 7.953125 18.980469 C 7.953125 15.597656 7.953125 12.21875 7.953125 8.835938 C 7.953125 8.785156 7.953125 8.730469 7.953125 8.679688 C 7.964844 8.242188 8.238281 7.941406 8.621094 7.945312 C 9 7.953125 9.265625 8.230469 9.265625 8.664062 C 9.269531 9.867188 9.265625 11.0625 9.265625 12.261719 C 9.265625 12.8125 9.265625 13.359375 9.265625 13.910156 Z M 9.277344 13.914062 "/>
</g>
</svg>
