<?xml version="1.0" encoding="UTF-8"?>
<svg xmlns="http://www.w3.org/2000/svg" xmlns:xlink="http://www.w3.org/1999/xlink" width="28px" height="28px" viewBox="0 0 28 28" version="1.1">
<g id="surface1">
<path style=" stroke:none;fill-rule:nonzero;fill:rgb(92.941176%,41.176471%,36.078431%);fill-opacity:1;" d="M 26.515625 13.890625 C 26.476562 6.925781 20.832031 1.304688 13.910156 1.320312 C 6.941406 1.34375 1.277344 7.027344 1.324219 13.941406 C 1.371094 20.910156 7.011719 26.53125 13.9375 26.511719 C 20.902344 26.488281 26.566406 20.804688 26.519531 13.890625 Z M 27.839844 13.917969 C 27.839844 21.601562 21.582031 27.84375 13.902344 27.832031 C 6.222656 27.820312 0 21.585938 0 13.917969 C 0 6.230469 6.253906 -0.0117188 13.933594 0 C 21.613281 0.015625 27.835938 6.242188 27.84375 13.917969 Z M 27.839844 13.917969 "/>
<path style=" stroke:none;fill-rule:nonzero;fill:rgb(92.941176%,41.176471%,36.078431%);fill-opacity:1;" d="M 10.628906 17.816406 C 12.273438 16.5 13.878906 15.21875 15.507812 13.917969 C 13.878906 12.613281 12.277344 11.335938 10.628906 10.015625 C 10.628906 12.640625 10.628906 15.199219 10.628906 17.816406 Z M 9.273438 8.730469 C 9.273438 8.417969 9.363281 8.160156 9.667969 8.019531 C 9.960938 7.882812 10.207031 7.980469 10.441406 8.167969 C 12.582031 9.882812 14.722656 11.59375 16.859375 13.304688 C 17.351562 13.695312 17.359375 14.125 16.878906 14.511719 C 16.289062 14.988281 15.695312 15.457031 15.105469 15.929688 C 13.550781 17.175781 11.988281 18.425781 10.429688 19.671875 C 10.109375 19.929688 9.757812 19.980469 9.535156 19.726562 C 9.386719 19.558594 9.28125 19.292969 9.28125 19.066406 C 9.257812 17.351562 9.269531 15.632812 9.269531 13.917969 C 9.269531 12.1875 9.269531 10.457031 9.269531 8.734375 Z M 9.273438 8.730469 "/>
<path style=" stroke:none;fill-rule:nonzero;fill:rgb(92.941176%,41.176471%,36.078431%);fill-opacity:1;" d="M 18.566406 13.917969 C 18.566406 15.625 18.5625 17.332031 18.566406 19.03125 C 18.566406 19.203125 18.585938 19.394531 18.660156 19.542969 C 18.796875 19.804688 19.046875 19.917969 19.335938 19.863281 C 19.640625 19.800781 19.828125 19.601562 19.875 19.296875 C 19.890625 19.195312 19.878906 19.089844 19.878906 18.984375 C 19.882812 15.601562 19.882812 12.222656 19.882812 8.839844 C 19.882812 8.785156 19.882812 8.734375 19.878906 8.683594 C 19.875 8.246094 19.597656 7.949219 19.210938 7.953125 C 18.832031 7.957031 18.5625 8.238281 18.5625 8.671875 C 18.558594 9.871094 18.5625 11.074219 18.5625 12.269531 C 18.5625 12.820312 18.5625 13.367188 18.5625 13.917969 Z M 18.566406 13.917969 "/>
</g>
</svg>
