<?xml version="1.0" encoding="UTF-8"?>
<svg xmlns="http://www.w3.org/2000/svg" xmlns:xlink="http://www.w3.org/1999/xlink" width="28px" height="28px" viewBox="0 0 28 28" version="1.1">
<g id="surface1">
<path style=" stroke:none;fill-rule:nonzero;fill:rgb(92.941176%,41.176471%,36.078431%);fill-opacity:1;" d="M 26.519531 13.929688 C 26.523438 6.992188 20.902344 1.359375 13.9375 1.324219 C 7.019531 1.289062 1.328125 6.964844 1.320312 13.917969 C 1.316406 20.851562 6.9375 26.488281 13.894531 26.527344 C 20.816406 26.5625 26.511719 20.882812 26.515625 13.929688 Z M 13.925781 27.847656 C 6.242188 27.855469 -0.0078125 21.605469 0 13.917969 C 0.0078125 6.238281 6.230469 0.015625 13.910156 0.00390625 C 21.59375 -0.00390625 27.847656 6.246094 27.839844 13.933594 C 27.832031 21.609375 21.601562 27.835938 13.925781 27.847656 Z M 13.925781 27.847656 "/>
<path style=" stroke:none;fill-rule:nonzero;fill:rgb(92.941176%,41.176471%,36.078431%);fill-opacity:1;" d="M 11.277344 19.351562 C 14.179688 17.535156 17.042969 15.742188 19.960938 13.921875 C 17.035156 12.101562 14.171875 10.304688 11.277344 8.496094 C 11.277344 12.140625 11.277344 15.714844 11.277344 19.351562 Z M 9.9375 13.933594 C 9.9375 11.78125 9.945312 9.628906 9.9375 7.46875 C 9.9375 7.160156 9.984375 6.886719 10.273438 6.722656 C 10.574219 6.550781 10.839844 6.65625 11.109375 6.824219 C 14.519531 8.960938 17.9375 11.09375 21.347656 13.226562 C 21.394531 13.253906 21.4375 13.28125 21.480469 13.308594 C 22.003906 13.652344 22.011719 14.195312 21.472656 14.53125 C 19.96875 15.480469 18.460938 16.417969 16.949219 17.363281 C 14.980469 18.589844 13.015625 19.820312 11.050781 21.050781 C 10.804688 21.203125 10.5625 21.273438 10.292969 21.132812 C 10.011719 20.984375 9.914062 20.730469 9.929688 20.425781 C 9.9375 20.351562 9.929688 20.28125 9.929688 20.207031 C 9.929688 18.117188 9.929688 16.023438 9.929688 13.933594 Z M 9.9375 13.933594 "/>
</g>
</svg>
