<?xml version="1.0" encoding="UTF-8"?>
<svg xmlns="http://www.w3.org/2000/svg" xmlns:xlink="http://www.w3.org/1999/xlink" width="28px" height="28px" viewBox="0 0 28 28" version="1.1">
<g id="surface1">
<path style=" stroke:none;fill-rule:nonzero;fill:rgb(92.941176%,41.176471%,36.078431%);fill-opacity:1;" d="M 13.921875 26.515625 C 20.863281 26.511719 26.492188 20.882812 26.515625 13.929688 C 26.539062 7 20.859375 1.316406 13.914062 1.320312 C 6.972656 1.328125 1.335938 6.957031 1.320312 13.90625 C 1.300781 20.835938 6.980469 26.519531 13.921875 26.515625 Z M 13.90625 0 C 21.59375 -0.0117188 27.84375 6.234375 27.839844 13.921875 C 27.839844 21.59375 21.609375 27.824219 13.933594 27.835938 C 6.253906 27.847656 -0.00390625 21.597656 0 13.914062 C 0 6.238281 6.230469 0.0117188 13.90625 0 Z M 13.90625 0 "/>
<path style=" stroke:none;fill-rule:nonzero;fill:rgb(92.941176%,41.176471%,36.078431%);fill-opacity:1;" d="M 11.261719 13.933594 C 11.261719 15.382812 11.261719 16.832031 11.261719 18.28125 C 11.261719 18.394531 11.261719 18.507812 11.25 18.621094 C 11.214844 18.957031 10.972656 19.191406 10.640625 19.210938 C 10.300781 19.226562 10.015625 19.003906 9.953125 18.667969 C 9.941406 18.585938 9.941406 18.503906 9.941406 18.421875 C 9.941406 15.417969 9.941406 12.417969 9.941406 9.414062 C 9.941406 9.355469 9.941406 9.289062 9.949219 9.230469 C 9.984375 8.871094 10.261719 8.621094 10.613281 8.625 C 10.96875 8.628906 11.242188 8.875 11.25 9.242188 C 11.265625 9.710938 11.261719 10.175781 11.261719 10.640625 C 11.261719 11.738281 11.261719 12.832031 11.261719 13.929688 Z M 11.261719 13.933594 "/>
<path style=" stroke:none;fill-rule:nonzero;fill:rgb(92.941176%,41.176471%,36.078431%);fill-opacity:1;" d="M 17.894531 13.9375 C 17.894531 15.449219 17.894531 16.960938 17.894531 18.46875 C 17.894531 18.921875 17.636719 19.207031 17.238281 19.210938 C 16.894531 19.210938 16.628906 18.976562 16.582031 18.628906 C 16.574219 18.558594 16.574219 18.484375 16.574219 18.414062 C 16.574219 15.410156 16.574219 12.410156 16.574219 9.410156 C 16.574219 8.9375 16.777344 8.664062 17.152344 8.625 C 17.582031 8.582031 17.890625 8.871094 17.894531 9.339844 C 17.902344 10.582031 17.894531 11.824219 17.894531 13.066406 C 17.894531 13.355469 17.894531 13.648438 17.894531 13.933594 Z M 17.894531 13.9375 "/>
</g>
</svg>
