<?xml version="1.0" encoding="UTF-8"?>
<svg xmlns="http://www.w3.org/2000/svg" xmlns:xlink="http://www.w3.org/1999/xlink" width="28px" height="28px" viewBox="0 0 28 28" version="1.1">
<g id="surface1">
<path style=" stroke:none;fill-rule:nonzero;fill:rgb(92.941176%,41.176471%,36.078431%);fill-opacity:1;" d="M 13.921875 26.507812 C 20.859375 26.503906 26.496094 20.878906 26.511719 13.929688 C 26.535156 7 20.859375 1.3125 13.914062 1.320312 C 6.972656 1.328125 1.34375 6.953125 1.320312 13.902344 C 1.304688 20.832031 6.980469 26.515625 13.921875 26.511719 Z M 13.910156 0 C 21.589844 -0.0117188 27.839844 6.234375 27.839844 13.917969 C 27.832031 21.589844 21.613281 27.820312 13.929688 27.832031 C 6.25 27.839844 0 21.59375 0 13.914062 C 0.0078125 6.238281 6.226562 0.0117188 13.910156 0 Z M 13.910156 0 "/>
<path style=" stroke:none;fill-rule:nonzero;fill:rgb(92.941176%,41.176471%,36.078431%);fill-opacity:1;" d="M 9.644531 19.550781 L 18.195312 19.550781 L 18.195312 20.785156 L 9.644531 20.785156 Z M 7.046875 18.191406 L 8.28125 18.191406 L 8.289062 18.332031 L 8.296875 18.398438 L 8.308594 18.464844 L 8.324219 18.53125 L 8.363281 18.65625 L 8.386719 18.71875 L 8.414062 18.78125 L 8.445312 18.835938 L 8.476562 18.894531 L 8.515625 18.949219 L 8.550781 19.003906 L 8.59375 19.054688 L 8.632812 19.105469 L 8.679688 19.152344 L 8.726562 19.195312 L 8.828125 19.28125 L 8.992188 19.386719 L 9.050781 19.417969 L 9.113281 19.445312 L 9.171875 19.46875 L 9.234375 19.488281 L 9.300781 19.507812 L 9.367188 19.523438 L 9.433594 19.535156 L 9.503906 19.542969 L 9.570312 19.546875 L 9.644531 19.550781 L 9.644531 20.785156 L 9.507812 20.785156 L 9.378906 20.773438 L 9.25 20.757812 L 9.121094 20.734375 L 8.996094 20.707031 L 8.871094 20.671875 L 8.75 20.628906 L 8.632812 20.582031 L 8.515625 20.53125 L 8.402344 20.472656 L 8.292969 20.410156 L 8.191406 20.34375 L 7.988281 20.195312 L 7.894531 20.113281 L 7.804688 20.027344 L 7.71875 19.9375 L 7.636719 19.84375 L 7.558594 19.746094 L 7.488281 19.644531 L 7.421875 19.539062 L 7.359375 19.429688 L 7.300781 19.316406 L 7.25 19.199219 L 7.203125 19.082031 L 7.160156 18.964844 L 7.125 18.839844 L 7.09375 18.710938 L 7.074219 18.585938 L 7.054688 18.457031 L 7.046875 18.324219 L 7.042969 18.191406 Z M 8.28125 9.636719 L 8.28125 18.191406 L 7.046875 18.191406 L 7.046875 9.636719 Z M 9.644531 7.042969 L 9.644531 8.277344 L 9.503906 8.285156 L 9.4375 8.292969 L 9.367188 8.304688 L 9.300781 8.320312 L 9.175781 8.359375 L 9.113281 8.386719 L 8.996094 8.441406 L 8.9375 8.476562 L 8.828125 8.546875 L 8.777344 8.585938 L 8.726562 8.632812 L 8.679688 8.675781 L 8.636719 8.722656 L 8.550781 8.824219 L 8.515625 8.878906 L 8.476562 8.933594 L 8.445312 8.988281 L 8.414062 9.046875 L 8.386719 9.109375 L 8.363281 9.167969 L 8.34375 9.234375 L 8.324219 9.296875 L 8.308594 9.359375 L 8.296875 9.429688 L 8.289062 9.496094 L 8.28125 9.636719 L 7.046875 9.636719 L 7.046875 9.503906 L 7.058594 9.371094 L 7.074219 9.242188 L 7.097656 9.113281 L 7.128906 8.988281 L 7.164062 8.863281 L 7.203125 8.742188 L 7.25 8.625 L 7.359375 8.398438 L 7.425781 8.289062 L 7.492188 8.183594 L 7.5625 8.082031 L 7.640625 7.984375 L 7.722656 7.890625 L 7.808594 7.800781 L 7.898438 7.714844 L 7.992188 7.632812 L 8.195312 7.484375 L 8.300781 7.417969 L 8.410156 7.355469 L 8.523438 7.296875 L 8.636719 7.246094 L 8.753906 7.199219 L 8.875 7.160156 L 9 7.125 L 9.125 7.09375 L 9.253906 7.070312 L 9.382812 7.054688 L 9.515625 7.046875 L 9.648438 7.042969 Z M 18.195312 8.277344 L 9.644531 8.277344 L 9.644531 7.042969 L 18.195312 7.042969 Z M 20.789062 9.636719 L 19.554688 9.636719 L 19.546875 9.496094 L 19.539062 9.425781 L 19.523438 9.359375 L 19.511719 9.296875 L 19.492188 9.230469 L 19.472656 9.167969 L 19.445312 9.109375 L 19.421875 9.046875 L 19.390625 8.988281 L 19.355469 8.933594 L 19.320312 8.875 L 19.242188 8.773438 L 19.199219 8.722656 L 19.15625 8.675781 L 19.109375 8.632812 L 19.007812 8.546875 L 18.898438 8.476562 L 18.839844 8.441406 L 18.722656 8.386719 L 18.660156 8.359375 L 18.535156 8.320312 L 18.46875 8.304688 L 18.402344 8.292969 L 18.332031 8.285156 L 18.265625 8.28125 L 18.195312 8.277344 L 18.195312 7.042969 L 18.328125 7.046875 L 18.457031 7.054688 L 18.589844 7.070312 L 18.714844 7.09375 L 18.839844 7.121094 L 18.964844 7.160156 L 19.085938 7.199219 L 19.203125 7.246094 L 19.320312 7.296875 L 19.429688 7.355469 L 19.539062 7.417969 L 19.644531 7.484375 L 19.746094 7.558594 L 19.84375 7.632812 L 19.9375 7.714844 L 20.027344 7.800781 L 20.113281 7.890625 L 20.195312 7.984375 L 20.273438 8.082031 L 20.34375 8.183594 L 20.410156 8.289062 L 20.472656 8.398438 L 20.53125 8.511719 L 20.582031 8.625 L 20.628906 8.746094 L 20.671875 8.863281 L 20.707031 8.988281 L 20.734375 9.113281 L 20.757812 9.242188 L 20.773438 9.371094 L 20.785156 9.503906 Z M 19.554688 18.191406 L 19.554688 9.636719 L 20.789062 9.636719 L 20.789062 18.191406 Z M 18.195312 20.785156 L 18.195312 19.550781 L 18.335938 19.542969 L 18.402344 19.535156 L 18.46875 19.523438 L 18.535156 19.507812 L 18.601562 19.488281 L 18.664062 19.46875 L 18.726562 19.445312 L 18.785156 19.417969 L 18.84375 19.386719 L 18.898438 19.355469 L 18.953125 19.320312 L 19.007812 19.28125 L 19.109375 19.195312 L 19.15625 19.152344 L 19.199219 19.105469 L 19.242188 19.054688 L 19.28125 19.003906 L 19.320312 18.949219 L 19.355469 18.894531 L 19.390625 18.835938 L 19.417969 18.78125 L 19.445312 18.71875 L 19.46875 18.660156 L 19.492188 18.597656 L 19.523438 18.464844 L 19.535156 18.402344 L 19.546875 18.332031 L 19.550781 18.261719 L 19.550781 18.191406 L 20.789062 18.191406 L 20.785156 18.324219 L 20.777344 18.457031 L 20.738281 18.714844 L 20.707031 18.839844 L 20.671875 18.964844 L 20.632812 19.082031 L 20.585938 19.203125 L 20.476562 19.429688 L 20.414062 19.539062 L 20.34375 19.644531 L 20.273438 19.746094 L 20.195312 19.84375 L 20.113281 19.9375 L 20.027344 20.027344 L 19.9375 20.113281 L 19.84375 20.195312 L 19.746094 20.269531 L 19.644531 20.34375 L 19.539062 20.410156 L 19.429688 20.472656 L 19.320312 20.53125 L 19.203125 20.582031 L 19.085938 20.628906 L 18.964844 20.671875 L 18.839844 20.707031 L 18.714844 20.734375 L 18.585938 20.757812 L 18.457031 20.773438 L 18.324219 20.785156 L 18.191406 20.789062 Z M 18.195312 20.785156 "/>
</g>
</svg>
