<?xml version="1.0" encoding="UTF-8"?>
<svg xmlns="http://www.w3.org/2000/svg" xmlns:xlink="http://www.w3.org/1999/xlink" width="28px" height="28px" viewBox="0 0 28 28" version="1.1">
<g id="surface1">
<path style=" stroke:none;fill-rule:nonzero;fill:rgb(92.941176%,41.176471%,36.078431%);fill-opacity:1;" d="M 13.914062 26.527344 C 20.847656 26.539062 26.480469 20.914062 26.519531 13.945312 C 26.558594 7.019531 20.878906 1.332031 13.925781 1.320312 C 6.996094 1.3125 1.355469 6.941406 1.320312 13.902344 C 1.289062 20.828125 6.960938 26.515625 13.914062 26.527344 Z M 13.921875 27.847656 C 6.230469 27.847656 -0.015625 21.589844 0 13.90625 C 0.0117188 6.226562 6.242188 0 13.921875 0 C 21.609375 0 27.851562 6.253906 27.839844 13.9375 C 27.824219 21.621094 21.59375 27.847656 13.921875 27.847656 Z M 13.921875 27.847656 "/>
<path style=" stroke:none;fill-rule:nonzero;fill:rgb(92.941176%,41.176471%,36.078431%);fill-opacity:1;" d="M 10.792969 13.898438 C 11.042969 14.121094 11.203125 14.25 11.351562 14.394531 C 13.191406 16.230469 15.023438 18.066406 16.863281 19.90625 C 17.273438 20.316406 17.335938 20.707031 17.046875 21.011719 C 16.746094 21.324219 16.339844 21.261719 15.917969 20.84375 C 13.828125 18.75 11.734375 16.65625 9.644531 14.5625 C 9.152344 14.074219 9.152344 13.773438 9.648438 13.28125 C 11.738281 11.183594 13.835938 9.089844 15.925781 7 C 16.335938 6.589844 16.726562 6.527344 17.03125 6.820312 C 17.34375 7.121094 17.28125 7.527344 16.851562 7.949219 C 14.949219 9.851562 13.050781 11.757812 11.148438 13.65625 C 11.066406 13.734375 10.957031 13.789062 10.792969 13.898438 Z M 10.792969 13.898438 "/>
</g>
</svg>
