<?xml version="1.0" encoding="UTF-8"?>
<svg xmlns="http://www.w3.org/2000/svg" xmlns:xlink="http://www.w3.org/1999/xlink" width="28px" height="28px" viewBox="0 0 28 28" version="1.1">
<g id="surface1">
<path style=" stroke:none;fill-rule:nonzero;fill:rgb(92.941176%,41.176471%,36.078431%);fill-opacity:1;" d="M 26.519531 13.898438 C 26.484375 6.9375 20.839844 1.3125 13.917969 1.320312 C 6.957031 1.332031 1.289062 7.015625 1.328125 13.941406 C 1.363281 20.90625 7 26.53125 13.929688 26.519531 C 20.882812 26.507812 26.550781 20.820312 26.519531 13.898438 Z M 0 13.9375 C -0.0117188 6.253906 6.238281 0 13.921875 0 C 21.597656 0 27.824219 6.226562 27.839844 13.90625 C 27.851562 21.585938 21.605469 27.839844 13.921875 27.839844 C 6.25 27.839844 0.0195312 21.617188 0 13.9375 Z M 0 13.9375 "/>
<path style=" stroke:none;fill-rule:nonzero;fill:rgb(92.941176%,41.176471%,36.078431%);fill-opacity:1;" d="M 17.042969 13.894531 C 16.796875 14.117188 16.632812 14.246094 16.488281 14.390625 C 14.648438 16.226562 12.8125 18.0625 10.976562 19.902344 C 10.566406 20.3125 10.5 20.703125 10.796875 21.003906 C 11.09375 21.316406 11.496094 21.257812 11.917969 20.835938 C 14.015625 18.742188 16.105469 16.652344 18.199219 14.558594 C 18.683594 14.070312 18.683594 13.769531 18.195312 13.277344 C 16.097656 11.183594 14.003906 9.089844 11.914062 6.996094 C 11.503906 6.585938 11.109375 6.523438 10.808594 6.820312 C 10.5 7.121094 10.5625 7.523438 10.984375 7.945312 C 12.886719 9.847656 14.789062 11.75 16.695312 13.652344 C 16.773438 13.730469 16.875 13.785156 17.042969 13.894531 Z M 17.042969 13.894531 "/>
</g>
</svg>
