<?xml version="1.0" encoding="UTF-8"?>
<svg xmlns="http://www.w3.org/2000/svg" xmlns:xlink="http://www.w3.org/1999/xlink" width="28px" height="28px" viewBox="0 0 28 28" version="1.1">
<g id="surface1">
<path style=" stroke:none;fill-rule:nonzero;fill:rgb(92.941176%,41.176471%,36.078431%);fill-opacity:1;" d="M 27.796875 12.335938 C 27.570312 12.335938 27.382812 12.523438 27.382812 12.75 L 27.382812 15.402344 C 27.382812 15.917969 28.210938 15.941406 28.210938 15.402344 L 28.210938 12.75 C 28.210938 12.523438 28.027344 12.335938 27.796875 12.335938 Z M 27.796875 12.335938 "/>
<path style=" stroke:none;fill-rule:nonzero;fill:rgb(92.941176%,41.176471%,36.078431%);fill-opacity:1;" d="M 26.089844 9.644531 C 25.859375 9.644531 25.675781 9.832031 25.675781 10.058594 L 25.675781 18.09375 C 25.675781 18.613281 26.503906 18.636719 26.503906 18.09375 L 26.503906 10.058594 C 26.503906 9.832031 26.316406 9.644531 26.089844 9.644531 Z M 26.089844 9.644531 "/>
<path style=" stroke:none;fill-rule:nonzero;fill:rgb(92.941176%,41.176471%,36.078431%);fill-opacity:1;" d="M 24.378906 10.546875 C 24.152344 10.546875 23.964844 10.730469 23.964844 10.957031 L 23.964844 17.195312 C 23.964844 17.714844 24.792969 17.738281 24.792969 17.195312 L 24.792969 10.957031 C 24.792969 10.730469 24.605469 10.546875 24.378906 10.546875 Z M 24.378906 10.546875 "/>
<path style=" stroke:none;fill-rule:nonzero;fill:rgb(92.941176%,41.176471%,36.078431%);fill-opacity:1;" d="M 22.667969 7.773438 C 22.441406 7.773438 22.253906 7.957031 22.253906 8.1875 L 22.253906 19.96875 C 22.253906 20.484375 23.082031 20.507812 23.082031 19.96875 L 23.082031 8.1875 C 23.082031 7.957031 22.894531 7.773438 22.667969 7.773438 Z M 22.667969 7.773438 "/>
<path style=" stroke:none;fill-rule:nonzero;fill:rgb(92.941176%,41.176471%,36.078431%);fill-opacity:1;" d="M 0.414062 12.335938 C 0.1875 12.335938 0 12.523438 0 12.75 L 0 15.402344 C 0 15.917969 0.828125 15.941406 0.828125 15.402344 L 0.828125 12.75 C 0.828125 12.523438 0.640625 12.335938 0.414062 12.335938 Z M 0.414062 12.335938 "/>
<path style=" stroke:none;fill-rule:nonzero;fill:rgb(92.941176%,41.176471%,36.078431%);fill-opacity:1;" d="M 2.121094 9.644531 C 1.894531 9.644531 1.710938 9.832031 1.710938 10.058594 L 1.710938 18.09375 C 1.710938 18.613281 2.535156 18.636719 2.535156 18.09375 L 2.535156 10.058594 C 2.535156 9.832031 2.351562 9.644531 2.121094 9.644531 Z M 2.121094 9.644531 "/>
<path style=" stroke:none;fill-rule:nonzero;fill:rgb(92.941176%,41.176471%,36.078431%);fill-opacity:1;" d="M 3.832031 10.546875 C 3.605469 10.546875 3.417969 10.730469 3.417969 10.957031 L 3.417969 17.195312 C 3.417969 17.714844 4.246094 17.738281 4.246094 17.195312 L 4.246094 10.957031 C 4.246094 10.730469 4.058594 10.546875 3.832031 10.546875 Z M 3.832031 10.546875 "/>
<path style=" stroke:none;fill-rule:nonzero;fill:rgb(92.941176%,41.176471%,36.078431%);fill-opacity:1;" d="M 5.542969 7.773438 C 5.316406 7.773438 5.128906 7.957031 5.128906 8.1875 L 5.128906 19.96875 C 5.128906 20.484375 5.957031 20.507812 5.957031 19.96875 L 5.957031 8.1875 C 5.957031 7.957031 5.769531 7.773438 5.542969 7.773438 Z M 5.542969 7.773438 "/>
<path style=" stroke:none;fill-rule:nonzero;fill:rgb(92.941176%,41.176471%,36.078431%);fill-opacity:1;" d="M 21.359375 11.054688 C 21.367188 11.023438 21.371094 10.992188 21.371094 10.957031 L 21.371094 6.515625 C 21.371094 5.996094 20.546875 5.972656 20.546875 6.515625 L 20.546875 9.578125 C 20.28125 9.203125 19.988281 8.851562 19.660156 8.527344 L 19.660156 2.902344 C 19.660156 2.382812 18.835938 2.359375 18.835938 2.902344 L 18.835938 7.808594 C 18.554688 7.597656 18.257812 7.40625 17.949219 7.230469 L 17.949219 4.027344 C 17.949219 3.515625 17.125 3.488281 17.125 4.027344 L 17.125 6.828125 C 16.835938 6.707031 16.539062 6.605469 16.238281 6.523438 L 16.238281 1.691406 C 16.238281 1.171875 15.410156 1.148438 15.410156 1.691406 L 15.410156 6.335938 C 15.113281 6.289062 14.808594 6.253906 14.5 6.238281 L 14.5 0.398438 C 14.5 -0.121094 13.671875 -0.144531 13.671875 0.398438 L 13.671875 6.242188 C 13.371094 6.257812 13.078125 6.292969 12.789062 6.34375 L 12.789062 1.691406 C 12.789062 1.171875 11.960938 1.148438 11.960938 1.691406 L 11.960938 6.53125 C 11.660156 6.617188 11.363281 6.71875 11.078125 6.839844 L 11.078125 4.027344 C 11.078125 3.515625 10.25 3.488281 10.25 4.027344 L 10.25 7.246094 C 9.941406 7.421875 9.644531 7.617188 9.363281 7.832031 L 9.363281 2.902344 C 9.363281 2.386719 8.539062 2.363281 8.539062 2.902344 L 8.539062 8.558594 C 8.214844 8.886719 7.917969 9.242188 7.652344 9.621094 L 7.652344 6.515625 C 7.652344 6 6.828125 5.976562 6.828125 6.515625 L 6.828125 11.078125 C 6.828125 11.097656 6.828125 11.117188 6.832031 11.140625 C 6.460938 12.046875 6.261719 13.039062 6.261719 14.078125 C 6.261719 15.089844 6.449219 16.078125 6.828125 17.007812 L 6.828125 21.640625 C 6.828125 22.15625 7.652344 22.179688 7.652344 21.640625 L 7.652344 17.089844 C 7.652344 16.082031 7.085938 15.675781 7.085938 14.078125 C 7.085938 10.207031 10.234375 7.058594 14.105469 7.058594 C 17.976562 7.058594 21.125 10.207031 21.125 14.078125 C 21.125 17.949219 17.976562 21.097656 14.105469 21.097656 C 12.300781 21.097656 10.589844 20.414062 9.28125 19.175781 C 9.019531 18.929688 8.535156 19.117188 8.535156 19.476562 L 8.535156 25.25 C 8.535156 25.769531 9.363281 25.792969 9.363281 25.25 L 9.363281 20.324219 C 9.644531 20.542969 9.941406 20.734375 10.246094 20.910156 L 10.246094 24.121094 C 10.246094 24.640625 11.074219 24.664062 11.074219 24.121094 L 11.074219 21.316406 C 11.363281 21.4375 11.65625 21.539062 11.957031 21.625 L 11.957031 26.464844 C 11.957031 26.980469 12.785156 27.003906 12.785156 26.464844 L 12.785156 21.8125 C 13.074219 21.859375 13.371094 21.894531 13.671875 21.910156 L 13.671875 27.757812 C 13.671875 28.273438 14.496094 28.296875 14.496094 27.757812 L 14.496094 21.914062 C 14.804688 21.898438 15.109375 21.867188 15.410156 21.816406 L 15.410156 26.464844 C 15.410156 26.980469 16.234375 27.003906 16.234375 26.464844 L 16.234375 21.628906 C 16.539062 21.542969 16.832031 21.441406 17.121094 21.324219 L 17.121094 24.125 C 17.121094 24.640625 17.949219 24.664062 17.949219 24.125 L 17.949219 20.921875 C 18.257812 20.75 18.550781 20.554688 18.832031 20.34375 L 18.832031 25.253906 C 18.832031 25.769531 19.660156 25.792969 19.660156 25.253906 L 19.660156 19.625 C 19.984375 19.304688 20.277344 18.949219 20.542969 18.574219 L 20.542969 21.640625 C 20.542969 22.15625 21.371094 22.179688 21.371094 21.640625 L 21.371094 17.199219 C 21.371094 17.164062 21.367188 17.132812 21.359375 17.101562 C 21.75 16.167969 21.964844 15.148438 21.964844 14.078125 C 21.964844 13.007812 21.75 11.988281 21.359375 11.058594 Z M 21.359375 11.054688 "/>
<path style=" stroke:none;fill-rule:nonzero;fill:rgb(92.941176%,41.176471%,36.078431%);fill-opacity:1;" d="M 15.625 10.851562 C 16.109375 10.675781 15.851562 9.894531 15.34375 10.074219 L 12.382812 11.128906 C 12.222656 11.1875 12.109375 11.347656 12.109375 11.519531 L 12.109375 15.46875 C 11.902344 15.363281 11.664062 15.300781 11.414062 15.300781 C 10.578125 15.300781 9.894531 15.984375 9.894531 16.820312 C 9.894531 17.660156 10.578125 18.34375 11.414062 18.34375 C 12.253906 18.34375 12.9375 17.660156 12.9375 16.820312 L 12.9375 13.234375 L 16.542969 11.945312 L 16.542969 13.886719 C 16.332031 13.78125 16.097656 13.71875 15.847656 13.71875 C 15.011719 13.71875 14.328125 14.398438 14.328125 15.238281 C 14.328125 16.078125 15.011719 16.757812 15.847656 16.757812 C 16.6875 16.757812 17.371094 16.078125 17.371094 15.238281 L 17.371094 9.933594 C 17.371094 9.417969 16.542969 9.394531 16.542969 9.933594 L 16.542969 11.066406 L 12.9375 12.355469 L 12.9375 11.808594 L 15.625 10.847656 Z M 15.847656 15.9375 C 15.464844 15.9375 15.152344 15.625 15.152344 15.242188 C 15.152344 14.859375 15.460938 14.546875 15.847656 14.546875 C 16.230469 14.546875 16.542969 14.855469 16.542969 15.242188 C 16.542969 15.625 16.230469 15.9375 15.847656 15.9375 Z M 11.414062 17.519531 C 11.03125 17.519531 10.71875 17.210938 10.71875 16.824219 C 10.71875 16.441406 11.03125 16.128906 11.414062 16.128906 C 11.796875 16.128906 12.109375 16.441406 12.109375 16.824219 C 12.109375 17.207031 11.796875 17.519531 11.414062 17.519531 Z M 11.414062 17.519531 "/>
</g>
</svg>
