<?xml version="1.0" encoding="UTF-8"?>
<svg xmlns="http://www.w3.org/2000/svg" xmlns:xlink="http://www.w3.org/1999/xlink" width="28px" height="28px" viewBox="0 0 28 28" version="1.1">
<g id="surface1">
<path style=" stroke:none;fill-rule:nonzero;fill:rgb(92.941176%,41.176471%,36.078431%);fill-opacity:1;" d="M 15.976562 16.035156 C 15.976562 16.472656 15.976562 16.835938 15.976562 17.199219 C 15.976562 20.035156 16.007812 22.871094 15.960938 25.707031 C 15.929688 27.457031 14.511719 28.46875 13.09375 27.773438 C 12.296875 27.382812 11.949219 26.703125 11.949219 25.796875 C 11.964844 22.929688 11.949219 20.066406 11.949219 17.199219 C 11.949219 16.851562 11.949219 16.519531 11.949219 16.035156 C 11.570312 16.035156 11.253906 16.035156 10.921875 16.035156 C 8.027344 16.035156 5.128906 16.050781 2.234375 16.035156 C 0.933594 16.023438 0.046875 15.265625 -0.015625 14.152344 C -0.0898438 12.882812 0.800781 11.980469 2.21875 11.980469 C 5.085938 11.964844 7.949219 11.980469 10.816406 11.980469 C 11.148438 11.980469 11.496094 11.980469 11.933594 11.980469 C 11.933594 10.921875 11.933594 9.941406 11.933594 8.945312 C 11.933594 6.757812 11.933594 4.585938 11.933594 2.398438 C 11.933594 0.980469 12.6875 0.0585938 13.863281 0.015625 C 15.054688 -0.03125 15.929688 0.933594 15.929688 2.382812 C 15.945312 5.21875 15.929688 8.054688 15.929688 10.890625 C 15.929688 11.222656 15.929688 11.554688 15.929688 11.980469 C 18.554688 11.980469 21.074219 11.980469 23.59375 11.980469 C 24.273438 11.980469 24.96875 11.964844 25.648438 11.980469 C 26.972656 12.007812 27.847656 12.824219 27.863281 14 C 27.863281 15.175781 26.988281 16.023438 25.660156 16.035156 C 22.734375 16.050781 19.808594 16.035156 16.867188 16.035156 C 16.59375 16.035156 16.308594 16.035156 15.917969 16.035156 Z M 15.976562 16.035156 "/>
</g>
</svg>
