<?xml version="1.0" encoding="UTF-8"?>
<svg xmlns="http://www.w3.org/2000/svg" xmlns:xlink="http://www.w3.org/1999/xlink" width="28px" height="28px" viewBox="0 0 28 28" version="1.1">
<g id="surface1">
<path style=" stroke:none;fill-rule:nonzero;fill:rgb(92.941176%,41.176471%,36.078431%);fill-opacity:1;" d="M 13.992188 16.074219 C 10.15625 16.074219 6.332031 16.097656 2.492188 16.050781 C 1.902344 16.050781 1.253906 15.847656 0.757812 15.542969 C 0.0585938 15.117188 -0.105469 14.328125 0.0703125 13.546875 C 0.261719 12.753906 0.804688 12.261719 1.59375 12.058594 C 1.867188 12 2.148438 11.988281 2.433594 11.988281 C 10.167969 11.988281 17.902344 11.976562 25.625 11.988281 C 27.054688 11.988281 27.964844 12.753906 28 13.949219 C 28.046875 15.199219 27.125 16.0625 25.683594 16.0625 C 21.789062 16.074219 17.890625 16.0625 13.992188 16.0625 Z M 13.992188 16.074219 "/>
</g>
</svg>
