<?xml version="1.0" encoding="UTF-8"?>
<svg xmlns="http://www.w3.org/2000/svg" xmlns:xlink="http://www.w3.org/1999/xlink" width="28px" height="28px" viewBox="0 0 28 4" version="1.1">
<g id="surface1">
<path style=" stroke:none;fill-rule:nonzero;fill:rgb(92.941176%,41.176471%,36.078431%);fill-opacity:1;" d="M 13.992188 4.074219 C 10.15625 4.074219 6.332031 4.097656 2.492188 4.050781 C 1.902344 4.050781 1.253906 3.847656 0.757812 3.542969 C 0.0585938 3.117188 -0.105469 2.328125 0.0703125 1.546875 C 0.261719 0.753906 0.804688 0.261719 1.59375 0.0585938 C 1.867188 0 2.148438 -0.0117188 2.433594 -0.0117188 C 10.167969 -0.0117188 17.902344 -0.0234375 25.625 -0.0117188 C 27.054688 -0.0117188 27.964844 0.753906 28 1.949219 C 28.046875 3.199219 27.125 4.0625 25.683594 4.0625 C 21.789062 4.074219 17.890625 4.0625 13.992188 4.0625 Z M 13.992188 4.074219 "/>
</g>
</svg>
