<?xml version="1.0" encoding="UTF-8"?>
<svg xmlns="http://www.w3.org/2000/svg" xmlns:xlink="http://www.w3.org/1999/xlink" width="28px" height="28px" viewBox="0 0 28 38" version="1.1">
<g id="surface1">
<path style=" stroke:none;fill-rule:nonzero;fill:rgb(92.941176%,41.176471%,36.078431%);fill-opacity:1;" d="M 25.136719 22.84375 L 15.832031 31.933594 L 15.832031 1.710938 C 15.832031 0.769531 15.050781 -0.0078125 14.070312 -0.0078125 C 13.105469 -0.0078125 12.308594 0.757812 12.308594 1.710938 L 12.308594 31.933594 L 3.003906 22.84375 C 2.316406 22.167969 1.210938 22.167969 0.519531 22.84375 C -0.160156 23.519531 -0.160156 24.597656 0.519531 25.273438 C 13.554688 37.976562 12.828125 37.382812 13.242188 37.605469 C 13.75 37.863281 14.324219 37.875 14.820312 37.640625 C 15.210938 37.460938 14.820312 37.785156 27.625 25.273438 C 28.316406 24.597656 28.316406 23.519531 27.625 22.84375 C 26.933594 22.167969 25.828125 22.167969 25.136719 22.84375 Z M 25.136719 22.84375 "/>
</g>
</svg>
