<?xml version="1.0" encoding="UTF-8"?>
<svg xmlns="http://www.w3.org/2000/svg" xmlns:xlink="http://www.w3.org/1999/xlink" width="28px" height="28px" viewBox="0 0 28 28" version="1.1">
<g id="surface1">
<path style=" stroke:none;fill-rule:nonzero;fill:rgb(92.941176%,41.176471%,36.078431%);fill-opacity:1;" d="M 22.207031 16.832031 L 15.351562 23.53125 L 15.351562 1.261719 C 15.351562 0.566406 14.773438 -0.00390625 14.050781 -0.00390625 C 13.339844 -0.00390625 12.753906 0.558594 12.753906 1.261719 L 12.753906 23.53125 L 5.898438 16.832031 C 5.390625 16.335938 4.578125 16.335938 4.066406 16.832031 C 3.566406 17.332031 3.566406 18.125 4.066406 18.621094 C 13.671875 27.984375 13.136719 27.546875 13.441406 27.710938 C 13.816406 27.898438 14.238281 27.90625 14.605469 27.734375 C 14.890625 27.601562 14.605469 27.839844 24.039062 18.621094 C 24.550781 18.125 24.550781 17.332031 24.039062 16.832031 C 23.53125 16.335938 22.714844 16.335938 22.207031 16.832031 Z M 22.207031 16.832031 "/>
</g>
</svg>
