<?xml version="1.0" encoding="UTF-8"?>
<svg xmlns="http://www.w3.org/2000/svg" xmlns:xlink="http://www.w3.org/1999/xlink" width="28px" height="28px" viewBox="0 0 28 38" version="1.1">
<g id="surface1">
<path style=" stroke:none;fill-rule:nonzero;fill:rgb(92.941176%,41.176471%,36.078431%);fill-opacity:1;" d="M 3 14.964844 L 12.3125 5.867188 L 12.3125 36.089844 C 12.3125 37.039062 13.101562 37.8125 14.070312 37.8125 C 15.042969 37.8125 15.832031 37.039062 15.832031 36.089844 L 15.832031 5.867188 L 25.144531 14.964844 C 25.828125 15.636719 26.945312 15.636719 27.632812 14.964844 C 28.324219 14.292969 28.324219 13.199219 27.632812 12.53125 C 14.59375 -0.179688 15.320312 0.425781 14.90625 0.203125 C 14.40625 -0.0546875 13.828125 -0.0625 13.332031 0.167969 C 12.929688 0.347656 13.332031 0.0195312 0.519531 12.53125 C -0.171875 13.199219 -0.171875 14.292969 0.519531 14.964844 C 1.203125 15.636719 2.324219 15.636719 3.007812 14.964844 Z M 3 14.964844 "/>
</g>
</svg>
