<?xml version="1.0" encoding="UTF-8"?>
<svg xmlns="http://www.w3.org/2000/svg" xmlns:xlink="http://www.w3.org/1999/xlink" width="28px" height="28px" viewBox="0 0 28 28" version="1.1">
<g id="surface1">
<path style=" stroke:none;fill-rule:nonzero;fill:rgb(92.941176%,41.176471%,36.078431%);fill-opacity:1;" d="M 5.894531 11.027344 L 12.757812 4.324219 L 12.757812 26.59375 C 12.757812 27.292969 13.339844 27.863281 14.050781 27.863281 C 14.769531 27.863281 15.351562 27.292969 15.351562 26.59375 L 15.351562 4.324219 L 22.210938 11.027344 C 22.714844 11.523438 23.539062 11.523438 24.046875 11.027344 C 24.554688 10.53125 24.554688 9.726562 24.046875 9.234375 C 14.4375 -0.132812 14.972656 0.3125 14.667969 0.148438 C 14.300781 -0.0390625 13.875 -0.046875 13.507812 0.125 C 13.210938 0.257812 13.507812 0.015625 4.066406 9.234375 C 3.558594 9.726562 3.558594 10.53125 4.066406 11.027344 C 4.570312 11.523438 5.398438 11.523438 5.902344 11.027344 Z M 5.894531 11.027344 "/>
</g>
</svg>
