<?xml version="1.0" encoding="UTF-8"?>
<svg xmlns="http://www.w3.org/2000/svg" xmlns:xlink="http://www.w3.org/1999/xlink" width="28px" height="28px" viewBox="0 0 28 28" version="1.1">
<g id="surface1">
<path style=" stroke:none;fill-rule:nonzero;fill:rgb(92.941176%,41.176471%,36.078431%);fill-opacity:1;" d="M 16.835938 6.144531 L 23.539062 12.792969 L 1.269531 12.792969 C 0.570312 12.792969 0.00390625 13.355469 0.00390625 14.050781 C 0.00390625 14.746094 0.570312 15.304688 1.269531 15.304688 L 23.539062 15.304688 L 16.835938 21.957031 C 16.339844 22.449219 16.339844 23.242188 16.835938 23.730469 C 17.328125 24.222656 18.128906 24.222656 18.628906 23.730469 C 27.992188 14.417969 27.550781 14.941406 27.710938 14.644531 C 27.902344 14.285156 27.910156 13.871094 27.738281 13.515625 C 27.605469 13.234375 27.847656 13.519531 18.625 4.367188 C 18.128906 3.878906 17.328125 3.878906 16.835938 4.367188 C 16.339844 4.859375 16.339844 5.652344 16.835938 6.144531 Z M 16.835938 6.144531 "/>
</g>
</svg>
