<?xml version="1.0" encoding="UTF-8"?>
<svg xmlns="http://www.w3.org/2000/svg" xmlns:xlink="http://www.w3.org/1999/xlink" width="28px" height="28px" viewBox="0 0 28 20" version="1.1">
<g id="surface1">
<path style=" stroke:none;fill-rule:nonzero;fill:rgb(92.941176%,41.176471%,36.078431%);fill-opacity:1;" d="M 16.835938 2.144531 L 23.539062 8.792969 L 1.269531 8.792969 C 0.570312 8.792969 0.00390625 9.355469 0.00390625 10.050781 C 0.00390625 10.746094 0.570312 11.304688 1.269531 11.304688 L 23.539062 11.304688 L 16.835938 17.957031 C 16.339844 18.449219 16.339844 19.242188 16.835938 19.730469 C 17.328125 20.222656 18.128906 20.222656 18.628906 19.730469 C 27.992188 10.417969 27.550781 10.941406 27.710938 10.644531 C 27.902344 10.285156 27.910156 9.871094 27.738281 9.515625 C 27.605469 9.234375 27.847656 9.519531 18.625 0.367188 C 18.128906 -0.121094 17.328125 -0.121094 16.835938 0.367188 C 16.339844 0.859375 16.339844 1.652344 16.835938 2.144531 Z M 16.835938 2.144531 "/>
</g>
</svg>
