<?xml version="1.0" encoding="UTF-8"?>
<svg xmlns="http://www.w3.org/2000/svg" xmlns:xlink="http://www.w3.org/1999/xlink" width="28px" height="28px" viewBox="0 0 28 28" version="1.1">
<g id="surface1">
<path style=" stroke:none;fill-rule:nonzero;fill:rgb(92.941176%,41.176471%,36.078431%);fill-opacity:1;" d="M 11.027344 21.957031 L 4.324219 15.304688 L 26.59375 15.304688 C 27.292969 15.304688 27.859375 14.746094 27.859375 14.050781 C 27.859375 13.355469 27.292969 12.796875 26.59375 12.796875 L 4.324219 12.796875 L 11.027344 6.144531 C 11.519531 5.65625 11.519531 4.859375 11.027344 4.371094 C 10.53125 3.878906 9.730469 3.878906 9.234375 4.371094 C -0.132812 13.683594 0.3125 13.160156 0.148438 13.457031 C -0.0429688 13.816406 -0.046875 14.230469 0.121094 14.585938 C 0.253906 14.867188 0.0117188 14.585938 9.234375 23.734375 C 9.730469 24.222656 10.53125 24.222656 11.027344 23.734375 C 11.523438 23.242188 11.523438 22.449219 11.027344 21.957031 Z M 11.027344 21.957031 "/>
</g>
</svg>
