<?xml version="1.0" encoding="UTF-8"?>
<svg xmlns="http://www.w3.org/2000/svg" xmlns:xlink="http://www.w3.org/1999/xlink" width="28px" height="28px" viewBox="0 0 28 20" version="1.1">
<g id="surface1">
<path style=" stroke:none;fill-rule:nonzero;fill:rgb(92.941176%,41.176471%,36.078431%);fill-opacity:1;" d="M 11.027344 17.957031 L 4.324219 11.304688 L 26.59375 11.304688 C 27.292969 11.304688 27.859375 10.746094 27.859375 10.050781 C 27.859375 9.355469 27.292969 8.796875 26.59375 8.796875 L 4.324219 8.796875 L 11.027344 2.144531 C 11.519531 1.65625 11.519531 0.859375 11.027344 0.371094 C 10.53125 -0.121094 9.730469 -0.121094 9.234375 0.371094 C -0.132812 9.683594 0.3125 9.160156 0.148438 9.457031 C -0.0429688 9.816406 -0.046875 10.230469 0.121094 10.585938 C 0.253906 10.867188 0.0117188 10.585938 9.234375 19.734375 C 9.730469 20.222656 10.53125 20.222656 11.027344 19.734375 C 11.523438 19.242188 11.523438 18.449219 11.027344 17.957031 Z M 11.027344 17.957031 "/>
</g>
</svg>
