<?xml version="1.0" encoding="UTF-8"?>
<svg xmlns="http://www.w3.org/2000/svg" xmlns:xlink="http://www.w3.org/1999/xlink" width="28px" height="28px" viewBox="0 0 28 51" version="1.1">
<g id="surface1">
<path style=" stroke:none;fill-rule:nonzero;fill:rgb(92.941176%,41.176471%,36.078431%);fill-opacity:1;" d="M 5.332031 25.171875 C 6.203125 25.941406 6.777344 26.386719 7.28125 26.894531 C 13.734375 33.253906 20.191406 39.621094 26.648438 45.992188 C 28.09375 47.417969 28.320312 48.773438 27.292969 49.824219 C 26.242188 50.910156 24.816406 50.695312 23.335938 49.234375 C 15.984375 41.980469 8.632812 34.726562 1.277344 27.460938 C -0.429688 25.773438 -0.429688 24.738281 1.304688 23.027344 C 8.65625 15.773438 16.007812 8.519531 23.359375 1.253906 C 24.792969 -0.160156 26.167969 -0.386719 27.234375 0.640625 C 28.320312 1.691406 28.105469 3.082031 26.609375 4.546875 C 19.929688 11.136719 13.246094 17.742188 6.550781 24.324219 C 6.277344 24.59375 5.894531 24.785156 5.320312 25.160156 Z M 5.332031 25.171875 "/>
</g>
</svg>
