<?xml version="1.0" encoding="UTF-8"?>
<svg xmlns="http://www.w3.org/2000/svg" xmlns:xlink="http://www.w3.org/1999/xlink" width="28px" height="28px" viewBox="0 0 28 28" version="1.1">
<g id="surface1">
<path style=" stroke:none;fill-rule:nonzero;fill:rgb(92.941176%,41.176471%,36.078431%);fill-opacity:1;" d="M 9.242188 13.820312 C 9.71875 14.242188 10.035156 14.488281 10.3125 14.765625 C 13.855469 18.257812 17.398438 21.753906 20.945312 25.25 C 21.738281 26.035156 21.863281 26.777344 21.296875 27.355469 C 20.722656 27.949219 19.9375 27.832031 19.125 27.03125 C 15.089844 23.046875 11.054688 19.066406 7.015625 15.078125 C 6.078125 14.148438 6.078125 13.582031 7.03125 12.640625 C 11.066406 8.660156 15.101562 4.675781 19.136719 0.6875 C 19.925781 -0.0898438 20.679688 -0.210938 21.265625 0.351562 C 21.863281 0.929688 21.746094 1.691406 20.921875 2.496094 C 17.253906 6.113281 13.585938 9.742188 9.910156 13.355469 C 9.761719 13.503906 9.550781 13.609375 9.234375 13.8125 Z M 9.242188 13.820312 "/>
</g>
</svg>
