<?xml version="1.0" encoding="UTF-8"?>
<svg xmlns="http://www.w3.org/2000/svg" xmlns:xlink="http://www.w3.org/1999/xlink" width="28px" height="28px" viewBox="0 0 28 51" version="1.1">
<g id="surface1">
<path style=" stroke:none;fill-rule:nonzero;fill:rgb(92.941176%,41.176471%,36.078431%);fill-opacity:1;" d="M 22.59375 25.339844 C 21.714844 24.574219 21.144531 24.132812 20.632812 23.628906 C 14.175781 17.257812 7.722656 10.890625 1.265625 4.539062 C -0.183594 3.109375 -0.410156 1.757812 0.613281 0.710938 C 1.675781 -0.378906 3.085938 -0.15625 4.574219 1.296875 C 11.929688 8.550781 19.285156 15.808594 26.640625 23.0625 C 28.355469 24.757812 28.355469 25.785156 26.617188 27.496094 C 19.265625 34.753906 11.910156 42.007812 4.554688 49.265625 C 3.125 50.675781 1.738281 50.898438 0.675781 49.871094 C -0.410156 48.820312 -0.183594 47.429688 1.285156 45.960938 C 7.96875 39.367188 14.648438 32.757812 21.347656 26.1875 C 21.632812 25.90625 22 25.722656 22.574219 25.339844 Z M 22.59375 25.339844 "/>
</g>
</svg>
