<?xml version="1.0" encoding="UTF-8"?>
<svg xmlns="http://www.w3.org/2000/svg" xmlns:xlink="http://www.w3.org/1999/xlink" width="28px" height="28px" viewBox="0 0 28 28" version="1.1">
<g id="surface1">
<path style=" stroke:none;fill-rule:nonzero;fill:rgb(92.941176%,41.176471%,36.078431%);fill-opacity:1;" d="M 18.71875 13.910156 C 18.234375 13.492188 17.921875 13.25 17.640625 12.972656 C 14.097656 9.476562 10.554688 5.980469 7.007812 2.492188 C 6.214844 1.707031 6.089844 0.964844 6.652344 0.390625 C 7.234375 -0.207031 8.007812 -0.0859375 8.824219 0.710938 C 12.863281 4.695312 16.902344 8.679688 20.941406 12.660156 C 21.882812 13.59375 21.882812 14.15625 20.925781 15.097656 C 16.890625 19.082031 12.851562 23.0625 8.8125 27.046875 C 8.03125 27.820312 7.269531 27.945312 6.683594 27.378906 C 6.089844 26.804688 6.214844 26.039062 7.019531 25.234375 C 10.6875 21.613281 14.355469 17.984375 18.035156 14.378906 C 18.191406 14.222656 18.390625 14.121094 18.707031 13.910156 Z M 18.71875 13.910156 "/>
</g>
</svg>
