<?xml version="1.0" encoding="UTF-8"?>
<svg xmlns="http://www.w3.org/2000/svg" xmlns:xlink="http://www.w3.org/1999/xlink" width="28px" height="28px" viewBox="0 0 28 28" version="1.1">
<g id="surface1">
<path style=" stroke:none;fill-rule:nonzero;fill:rgb(92.941176%,41.176471%,36.078431%);fill-opacity:1;" d="M 13.359375 13.816406 C 13.835938 14.238281 14.148438 14.484375 14.429688 14.753906 C 17.972656 18.246094 21.5 21.738281 25.027344 25.242188 C 25.820312 26.023438 25.945312 26.765625 25.382812 27.34375 C 24.808594 27.941406 24.03125 27.828125 23.21875 27.023438 C 19.1875 23.039062 15.167969 19.058594 11.140625 15.070312 C 10.203125 14.148438 10.203125 13.578125 11.148438 12.632812 C 15.167969 8.644531 19.199219 4.667969 23.226562 0.679688 C 24.019531 -0.101562 24.769531 -0.214844 25.351562 0.351562 C 25.945312 0.914062 25.832031 1.691406 25.019531 2.492188 C 21.351562 6.117188 17.699219 9.738281 14.035156 13.351562 C 13.878906 13.507812 13.679688 13.601562 13.359375 13.816406 Z M 13.359375 13.816406 "/>
<path style=" stroke:none;fill-rule:nonzero;fill:rgb(92.941176%,41.176471%,36.078431%);fill-opacity:1;" d="M 5.714844 13.816406 C 6.195312 14.238281 6.507812 14.484375 6.789062 14.753906 C 10.328125 18.246094 13.859375 21.738281 17.386719 25.242188 C 18.179688 26.023438 18.304688 26.765625 17.742188 27.34375 C 17.167969 27.941406 16.386719 27.828125 15.574219 27.023438 C 11.546875 23.039062 7.527344 19.058594 3.5 15.070312 C 2.5625 14.148438 2.5625 13.578125 3.507812 12.632812 C 7.527344 8.644531 11.554688 4.667969 15.585938 0.679688 C 16.378906 -0.101562 17.128906 -0.214844 17.710938 0.351562 C 18.304688 0.914062 18.1875 1.691406 17.367188 2.492188 C 13.710938 6.117188 10.046875 9.738281 6.382812 13.351562 C 6.226562 13.507812 6.019531 13.601562 5.707031 13.816406 Z M 5.714844 13.816406 "/>
</g>
</svg>
