<?xml version="1.0" encoding="UTF-8"?>
<svg xmlns="http://www.w3.org/2000/svg" xmlns:xlink="http://www.w3.org/1999/xlink" width="28px" height="28px" viewBox="0 0 28 35" version="1.1">
<g id="surface1">
<path style=" stroke:none;fill-rule:nonzero;fill:rgb(92.941176%,41.176471%,36.078431%);fill-opacity:1;" d="M 13.199219 17.269531 C 13.796875 17.796875 14.1875 18.105469 14.539062 18.441406 C 18.964844 22.808594 23.375 27.171875 27.785156 31.550781 C 28.777344 32.53125 28.933594 33.457031 28.230469 34.179688 C 27.511719 34.925781 26.539062 34.785156 25.523438 33.78125 C 20.484375 28.796875 15.460938 23.824219 10.425781 18.839844 C 9.253906 17.683594 9.253906 16.972656 10.4375 15.789062 C 15.460938 10.804688 20.5 5.835938 25.535156 0.851562 C 26.523438 -0.128906 27.460938 -0.269531 28.191406 0.4375 C 28.933594 1.144531 28.789062 2.113281 27.773438 3.117188 C 23.191406 7.648438 18.625 12.171875 14.042969 16.691406 C 13.847656 16.882812 13.601562 17 13.199219 17.269531 Z M 13.199219 17.269531 "/>
<path style=" stroke:none;fill-rule:nonzero;fill:rgb(92.941176%,41.176471%,36.078431%);fill-opacity:1;" d="M 3.644531 17.269531 C 4.242188 17.796875 4.632812 18.105469 4.984375 18.441406 C 9.410156 22.808594 13.824219 27.171875 18.234375 31.550781 C 19.222656 32.53125 19.378906 33.457031 18.675781 34.179688 C 17.960938 34.925781 16.984375 34.785156 15.96875 33.78125 C 10.933594 28.796875 5.910156 23.824219 0.875 18.839844 C -0.296875 17.683594 -0.296875 16.972656 0.886719 15.789062 C 5.910156 10.804688 10.945312 5.835938 15.984375 0.851562 C 16.972656 -0.128906 17.910156 -0.269531 18.636719 0.4375 C 19.378906 1.144531 19.234375 2.113281 18.207031 3.117188 C 13.640625 7.648438 9.058594 12.171875 4.476562 16.691406 C 4.28125 16.882812 4.023438 17 3.632812 17.269531 Z M 3.644531 17.269531 "/>
</g>
</svg>
