<?xml version="1.0" encoding="UTF-8"?>
<svg xmlns="http://www.w3.org/2000/svg" xmlns:xlink="http://www.w3.org/1999/xlink" width="28px" height="28px" viewBox="0 0 28 28" version="1.1">
<g id="surface1">
<path style=" stroke:none;fill-rule:nonzero;fill:rgb(92.941176%,41.176471%,36.078431%);fill-opacity:1;" d="M 15.167969 13.816406 C 14.695312 14.230469 14.382812 14.484375 14.101562 14.765625 C 10.566406 18.253906 7.027344 21.753906 3.503906 25.253906 C 2.707031 26.027344 2.585938 26.773438 3.152344 27.351562 C 3.730469 27.9375 4.503906 27.832031 5.3125 27.03125 C 9.335938 23.050781 13.359375 19.066406 17.382812 15.085938 C 18.316406 14.148438 18.316406 13.585938 17.367188 12.640625 C 13.347656 8.660156 9.320312 4.675781 5.300781 0.695312 C 4.515625 -0.0820312 3.757812 -0.199219 3.179688 0.359375 C 2.585938 0.933594 2.707031 1.695312 3.515625 2.5 C 7.175781 6.117188 10.835938 9.742188 14.492188 13.363281 C 14.640625 13.507812 14.84375 13.617188 15.167969 13.828125 Z M 15.167969 13.816406 "/>
<path style=" stroke:none;fill-rule:nonzero;fill:rgb(92.941176%,41.176471%,36.078431%);fill-opacity:1;" d="M 22.808594 13.816406 C 22.335938 14.230469 22.027344 14.484375 21.742188 14.765625 C 18.207031 18.253906 14.679688 21.753906 11.144531 25.253906 C 10.363281 26.027344 10.226562 26.773438 10.792969 27.351562 C 11.375 27.9375 12.144531 27.832031 12.953125 27.03125 C 16.976562 23.050781 21 19.066406 25.023438 15.085938 C 25.957031 14.148438 25.957031 13.585938 25.011719 12.640625 C 20.988281 8.660156 16.964844 4.675781 12.941406 0.695312 C 12.15625 -0.0820312 11.398438 -0.199219 10.820312 0.359375 C 10.226562 0.933594 10.347656 1.695312 11.160156 2.5 C 14.820312 6.117188 18.476562 9.742188 22.132812 13.363281 C 22.285156 13.507812 22.5 13.617188 22.808594 13.828125 Z M 22.808594 13.816406 "/>
</g>
</svg>
