<?xml version="1.0" encoding="UTF-8"?>
<svg xmlns="http://www.w3.org/2000/svg" xmlns:xlink="http://www.w3.org/1999/xlink" width="28px" height="28px" viewBox="0 0 28 35" version="1.1">
<g id="surface1">
<path style=" stroke:none;fill-rule:nonzero;fill:rgb(92.941176%,41.176471%,36.078431%);fill-opacity:1;" d="M 15.460938 17.269531 C 14.871094 17.789062 14.480469 18.105469 14.128906 18.457031 C 9.707031 22.816406 5.285156 27.191406 0.878906 31.566406 C -0.117188 32.535156 -0.269531 33.46875 0.441406 34.1875 C 1.164062 34.921875 2.128906 34.789062 3.140625 33.789062 C 8.167969 28.8125 13.199219 23.832031 18.230469 18.855469 C 19.394531 17.6875 19.394531 16.984375 18.210938 15.800781 C 13.183594 10.824219 8.152344 5.84375 3.125 0.867188 C 2.144531 -0.101562 1.199219 -0.25 0.472656 0.449219 C -0.269531 1.167969 -0.117188 2.121094 0.894531 3.125 C 5.46875 7.648438 10.042969 12.175781 14.617188 16.703125 C 14.800781 16.886719 15.054688 17.019531 15.460938 17.285156 Z M 15.460938 17.269531 "/>
<path style=" stroke:none;fill-rule:nonzero;fill:rgb(92.941176%,41.176471%,36.078431%);fill-opacity:1;" d="M 25.011719 17.269531 C 24.421875 17.789062 24.035156 18.105469 23.679688 18.457031 C 19.257812 22.816406 14.851562 27.191406 10.429688 31.566406 C 9.453125 32.535156 9.285156 33.46875 9.992188 34.1875 C 10.71875 34.921875 11.679688 34.789062 12.691406 33.789062 C 17.722656 28.8125 22.75 23.832031 27.78125 18.855469 C 28.945312 17.6875 28.945312 16.984375 27.765625 15.800781 C 22.734375 10.824219 17.707031 5.84375 12.675781 0.867188 C 11.695312 -0.101562 10.75 -0.25 10.027344 0.449219 C 9.285156 1.167969 9.433594 2.121094 10.449219 3.125 C 15.023438 7.648438 19.597656 12.175781 24.167969 16.703125 C 24.355469 16.886719 24.625 17.019531 25.011719 17.285156 Z M 25.011719 17.269531 "/>
</g>
</svg>
