<?xml version="1.0" encoding="UTF-8"?>
<svg xmlns="http://www.w3.org/2000/svg" xmlns:xlink="http://www.w3.org/1999/xlink" width="28px" height="28px" viewBox="0 0 28 28" version="1.1">
<g id="surface1">
<path style=" stroke:none;fill-rule:nonzero;fill:rgb(92.941176%,41.176471%,36.078431%);fill-opacity:1;" d="M 7.699219 3.078125 C 8.050781 2.898438 8.492188 3.03125 8.683594 3.378906 C 8.867188 3.726562 8.726562 4.15625 8.371094 4.335938 Z M 1.941406 14.710938 L 0.484375 14.710938 L 0.492188 14.238281 L 0.511719 13.773438 L 0.554688 13.308594 L 0.613281 12.851562 L 0.6875 12.398438 L 0.777344 11.949219 L 0.886719 11.507812 L 1.007812 11.074219 L 1.140625 10.644531 L 1.289062 10.21875 L 1.453125 9.796875 L 1.632812 9.386719 L 1.824219 8.988281 L 2.03125 8.59375 L 2.246094 8.207031 L 2.476562 7.828125 L 2.726562 7.457031 L 2.984375 7.09375 L 3.253906 6.738281 L 3.535156 6.394531 L 3.820312 6.058594 L 4.121094 5.734375 L 4.433594 5.414062 L 4.761719 5.109375 L 5.09375 4.816406 L 5.4375 4.535156 L 5.792969 4.261719 L 6.15625 4 L 6.527344 3.757812 L 6.910156 3.519531 L 7.300781 3.296875 L 7.699219 3.085938 L 8.371094 4.34375 L 8.019531 4.535156 L 7.667969 4.734375 L 7.332031 4.945312 L 7 5.167969 L 6.671875 5.398438 L 6.359375 5.636719 L 6.054688 5.890625 L 5.753906 6.15625 L 5.46875 6.425781 L 5.191406 6.710938 L 4.917969 7 L 4.660156 7.296875 L 4.414062 7.601562 L 4.171875 7.925781 L 3.941406 8.246094 L 3.726562 8.578125 L 3.523438 8.914062 L 3.328125 9.257812 L 3.144531 9.613281 L 2.980469 9.972656 L 2.820312 10.335938 L 2.679688 10.707031 L 2.546875 11.085938 L 2.425781 11.464844 L 2.316406 11.855469 L 2.21875 12.25 L 2.140625 12.648438 L 2.074219 13.058594 L 2.023438 13.460938 L 1.984375 13.871094 L 1.960938 14.289062 L 1.953125 14.714844 Z M 13.914062 26.402344 L 13.914062 27.824219 L 13.21875 27.808594 L 12.535156 27.75 L 11.863281 27.671875 L 11.203125 27.550781 L 10.550781 27.402344 L 9.910156 27.230469 L 9.28125 27.023438 L 8.675781 26.789062 L 8.078125 26.523438 L 7.496094 26.234375 L 6.941406 25.917969 L 6.398438 25.574219 L 5.871094 25.210938 L 5.367188 24.820312 L 4.875 24.410156 L 4.414062 23.976562 L 3.96875 23.519531 L 3.546875 23.042969 L 3.144531 22.550781 L 2.773438 22.039062 L 2.425781 21.507812 L 2.097656 20.957031 L 1.804688 20.398438 L 1.53125 19.8125 L 1.289062 19.21875 L 1.078125 18.613281 L 0.898438 17.988281 L 0.746094 17.351562 L 0.625 16.703125 L 0.542969 16.050781 L 0.492188 15.386719 L 0.472656 14.710938 L 1.929688 14.710938 L 1.945312 15.308594 L 1.996094 15.90625 L 2.074219 16.484375 L 2.175781 17.0625 L 2.308594 17.628906 L 2.46875 18.183594 L 2.660156 18.722656 L 2.878906 19.253906 L 3.117188 19.769531 L 3.382812 20.277344 L 3.667969 20.765625 L 3.988281 21.242188 L 4.316406 21.703125 L 4.671875 22.144531 L 5.046875 22.570312 L 5.441406 22.972656 L 5.859375 23.359375 L 6.292969 23.726562 L 6.746094 24.074219 L 7.214844 24.398438 L 7.707031 24.703125 L 8.203125 24.988281 L 8.722656 25.246094 L 9.25 25.480469 L 9.792969 25.691406 L 10.347656 25.875 L 10.914062 26.035156 L 11.496094 26.164062 L 12.085938 26.265625 L 12.683594 26.339844 L 13.289062 26.386719 L 13.90625 26.40625 Z M 25.882812 14.710938 L 27.339844 14.710938 L 27.324219 15.386719 L 27.269531 16.050781 L 27.183594 16.703125 L 27.066406 17.351562 L 26.914062 17.988281 L 26.734375 18.613281 L 26.523438 19.222656 L 26.28125 19.820312 L 26.007812 20.398438 L 25.714844 20.964844 L 25.390625 21.511719 L 25.039062 22.042969 L 24.664062 22.554688 L 24.265625 23.050781 L 23.847656 23.527344 L 23.398438 23.980469 L 22.933594 24.417969 L 22.449219 24.828125 L 21.9375 25.214844 L 21.414062 25.582031 L 20.875 25.921875 L 20.3125 26.238281 L 19.738281 26.527344 L 19.136719 26.792969 L 18.53125 27.03125 L 17.902344 27.234375 L 17.261719 27.410156 L 16.613281 27.558594 L 15.949219 27.675781 L 15.28125 27.757812 L 14.601562 27.8125 L 13.90625 27.832031 L 13.90625 26.40625 L 14.519531 26.386719 L 15.132812 26.339844 L 15.726562 26.265625 L 16.316406 26.164062 L 16.898438 26.035156 L 17.460938 25.875 L 18.015625 25.691406 L 18.558594 25.480469 L 19.089844 25.246094 L 19.609375 24.988281 L 20.109375 24.703125 L 20.597656 24.398438 L 21.066406 24.074219 L 21.519531 23.726562 L 21.953125 23.359375 L 22.367188 22.972656 L 22.765625 22.570312 L 23.140625 22.144531 L 23.496094 21.703125 L 23.828125 21.242188 L 24.140625 20.765625 L 24.433594 20.277344 L 24.695312 19.769531 L 24.9375 19.253906 L 25.152344 18.722656 L 25.339844 18.183594 L 25.503906 17.628906 L 25.636719 17.0625 L 25.738281 16.484375 L 25.816406 15.90625 L 25.867188 15.308594 Z M 19.445312 4.34375 L 20.121094 3.085938 L 20.515625 3.296875 L 20.910156 3.519531 L 21.289062 3.757812 L 21.664062 4 L 22.027344 4.261719 L 22.378906 4.535156 L 22.722656 4.816406 L 23.054688 5.109375 L 23.378906 5.414062 L 23.695312 5.734375 L 23.996094 6.058594 L 24.285156 6.394531 L 24.5625 6.738281 L 24.835938 7.09375 L 25.09375 7.457031 L 25.339844 7.828125 L 25.570312 8.207031 L 25.785156 8.59375 L 25.988281 8.988281 L 26.1875 9.394531 L 26.367188 9.804688 L 26.527344 10.226562 L 26.679688 10.648438 L 26.8125 11.078125 L 26.933594 11.515625 L 27.035156 11.957031 L 27.125 12.402344 L 27.195312 12.851562 L 27.257812 13.3125 L 27.296875 13.777344 L 27.324219 14.246094 L 27.328125 14.714844 L 25.867188 14.714844 L 25.867188 14.289062 L 25.839844 13.871094 L 25.804688 13.460938 L 25.753906 13.058594 L 25.683594 12.648438 L 25.605469 12.25 L 25.511719 11.855469 L 25.402344 11.464844 L 25.28125 11.085938 L 25.148438 10.707031 L 25 10.335938 L 24.847656 9.972656 L 24.675781 9.613281 L 24.496094 9.257812 L 24.304688 8.914062 L 24.101562 8.570312 L 23.882812 8.242188 L 23.652344 7.917969 L 23.410156 7.601562 L 23.164062 7.292969 L 22.90625 6.992188 L 22.359375 6.421875 L 22.066406 6.152344 L 21.773438 5.886719 L 21.464844 5.632812 L 21.152344 5.394531 L 20.828125 5.164062 L 20.496094 4.9375 L 20.15625 4.726562 L 19.808594 4.527344 L 19.449219 4.335938 Z M 19.445312 4.34375 C 19.089844 4.160156 18.953125 3.730469 19.136719 3.382812 C 19.324219 3.035156 19.765625 2.898438 20.121094 3.085938 Z M 19.445312 4.34375 "/>
<path style=" stroke:none;fill-rule:nonzero;fill:rgb(92.941176%,41.176471%,36.078431%);fill-opacity:1;" d="M 13.179688 0.710938 C 13.179688 0.316406 13.507812 0 13.914062 0 C 14.316406 0 14.640625 0.316406 14.640625 0.710938 Z M 13.179688 11.433594 L 13.179688 0.710938 L 14.640625 0.710938 L 14.640625 11.433594 Z M 14.640625 11.433594 C 14.640625 11.832031 14.316406 12.148438 13.914062 12.148438 C 13.507812 12.148438 13.179688 11.832031 13.179688 11.433594 Z M 14.640625 11.433594 "/>
</g>
</svg>
