<?xml version="1.0" encoding="UTF-8"?>
<svg xmlns="http://www.w3.org/2000/svg" xmlns:xlink="http://www.w3.org/1999/xlink" width="28px" height="28px" viewBox="0 0 28 29" version="1.1">
<g id="surface1">
<path style=" stroke:none;fill-rule:nonzero;fill:rgb(92.941176%,41.176471%,36.078431%);fill-opacity:1;" d="M 7.472656 3.1875 C 7.839844 3 8.296875 3.140625 8.492188 3.5 C 8.683594 3.859375 8.539062 4.304688 8.171875 4.492188 Z M 1.511719 15.234375 L 0 15.234375 L 0.0078125 14.746094 L 0.03125 14.265625 L 0.0742188 13.785156 L 0.136719 13.308594 L 0.210938 12.839844 L 0.304688 12.375 L 0.417969 11.917969 L 0.542969 11.46875 L 0.679688 11.023438 L 0.835938 10.582031 L 1.003906 10.148438 L 1.191406 9.722656 L 1.390625 9.308594 L 1.605469 8.902344 L 1.828125 8.5 L 2.066406 8.109375 L 2.324219 7.722656 L 2.589844 7.347656 L 2.871094 6.980469 L 3.160156 6.621094 L 3.457031 6.273438 L 3.769531 5.9375 L 4.09375 5.609375 L 4.433594 5.292969 L 4.777344 4.988281 L 5.132812 4.695312 L 5.5 4.414062 L 5.875 4.144531 L 6.261719 3.890625 L 6.65625 3.644531 L 7.0625 3.414062 L 7.472656 3.195312 L 8.171875 4.5 L 7.804688 4.695312 L 7.441406 4.902344 L 7.09375 5.121094 L 6.75 5.351562 L 6.410156 5.589844 L 6.085938 5.839844 L 5.769531 6.101562 L 5.460938 6.375 L 5.164062 6.65625 L 4.875 6.949219 L 4.59375 7.25 L 4.328125 7.558594 L 4.070312 7.875 L 3.820312 8.207031 L 3.582031 8.539062 L 3.359375 8.882812 L 3.148438 9.230469 L 2.945312 9.589844 L 2.757812 9.957031 L 2.585938 10.328125 L 2.421875 10.707031 L 2.273438 11.089844 L 2.136719 11.480469 L 2.011719 11.875 L 1.898438 12.277344 L 1.796875 12.6875 L 1.71875 13.101562 L 1.648438 13.523438 L 1.59375 13.941406 L 1.554688 14.367188 L 1.53125 14.800781 L 1.523438 15.242188 Z M 13.910156 27.34375 L 13.910156 28.816406 L 13.191406 28.800781 L 12.484375 28.742188 L 11.785156 28.660156 L 11.101562 28.535156 L 10.425781 28.382812 L 9.765625 28.203125 L 9.113281 27.988281 L 8.484375 27.746094 L 7.867188 27.46875 L 7.265625 27.171875 L 6.6875 26.84375 L 6.125 26.488281 L 5.582031 26.109375 L 5.058594 25.707031 L 4.550781 25.28125 L 4.070312 24.832031 L 3.609375 24.359375 L 3.171875 23.867188 L 2.757812 23.355469 L 2.371094 22.824219 L 2.011719 22.277344 L 1.671875 21.707031 L 1.367188 21.125 L 1.085938 20.519531 L 0.835938 19.90625 L 0.617188 19.277344 L 0.429688 18.628906 L 0.273438 17.972656 L 0.148438 17.300781 L 0.0625 16.625 L 0.0078125 15.9375 L -0.0117188 15.234375 L 1.5 15.234375 L 1.515625 15.855469 L 1.566406 16.472656 L 1.648438 17.074219 L 1.753906 17.671875 L 1.890625 18.257812 L 2.058594 18.832031 L 2.253906 19.390625 L 2.480469 19.941406 L 2.726562 20.476562 L 3.003906 21 L 3.300781 21.507812 L 3.628906 22 L 3.96875 22.476562 L 4.339844 22.933594 L 4.726562 23.375 L 5.136719 23.792969 L 5.570312 24.195312 L 6.019531 24.574219 L 6.488281 24.933594 L 6.972656 25.269531 L 7.480469 25.585938 L 7.996094 25.878906 L 8.535156 26.148438 L 9.082031 26.390625 L 9.644531 26.609375 L 10.21875 26.800781 L 10.804688 26.964844 L 11.40625 27.097656 L 12.019531 27.203125 L 12.636719 27.28125 L 13.265625 27.328125 L 13.902344 27.347656 Z M 26.308594 15.234375 L 27.816406 15.234375 L 27.800781 15.9375 L 27.742188 16.625 L 27.65625 17.300781 L 27.53125 17.972656 L 27.375 18.628906 L 27.1875 19.277344 L 26.96875 19.910156 L 26.71875 20.527344 L 26.4375 21.128906 L 26.132812 21.714844 L 25.796875 22.28125 L 25.433594 22.832031 L 25.046875 23.359375 L 24.632812 23.875 L 24.199219 24.367188 L 23.734375 24.835938 L 23.253906 25.289062 L 22.75 25.714844 L 22.222656 26.117188 L 21.679688 26.496094 L 21.121094 26.847656 L 20.539062 27.175781 L 19.941406 27.476562 L 19.320312 27.75 L 18.691406 27.996094 L 18.042969 28.207031 L 17.378906 28.390625 L 16.707031 28.542969 L 16.019531 28.664062 L 15.328125 28.75 L 14.621094 28.804688 L 13.902344 28.824219 L 13.902344 27.347656 L 14.539062 27.328125 L 15.171875 27.28125 L 15.789062 27.203125 L 16.398438 27.097656 L 17 26.964844 L 17.585938 26.800781 L 18.160156 26.609375 L 18.722656 26.390625 L 19.273438 26.148438 L 19.808594 25.878906 L 20.328125 25.585938 L 20.832031 25.269531 L 21.320312 24.933594 L 21.789062 24.574219 L 22.238281 24.195312 L 22.667969 23.792969 L 23.078125 23.375 L 23.46875 22.933594 L 23.835938 22.476562 L 24.179688 22 L 24.503906 21.507812 L 24.804688 21 L 25.078125 20.476562 L 25.328125 19.941406 L 25.550781 19.390625 L 25.746094 18.832031 L 25.914062 18.257812 L 26.050781 17.671875 L 26.15625 17.074219 L 26.238281 16.472656 L 26.289062 15.855469 Z M 19.640625 4.5 L 20.339844 3.195312 L 20.75 3.414062 L 21.15625 3.644531 L 21.550781 3.890625 L 21.9375 4.144531 L 22.3125 4.414062 L 22.679688 4.695312 L 23.035156 4.988281 L 23.378906 5.292969 L 23.714844 5.609375 L 24.042969 5.9375 L 24.351562 6.273438 L 24.652344 6.621094 L 24.941406 6.980469 L 25.222656 7.347656 L 25.488281 7.722656 L 25.746094 8.109375 L 25.984375 8.5 L 26.207031 8.902344 L 26.417969 9.308594 L 26.621094 9.730469 L 26.808594 10.15625 L 26.976562 10.589844 L 27.132812 11.027344 L 27.269531 11.472656 L 27.394531 11.925781 L 27.5 12.382812 L 27.59375 12.84375 L 27.667969 13.3125 L 27.730469 13.789062 L 27.773438 14.269531 L 27.800781 14.753906 L 27.804688 15.242188 L 26.292969 15.242188 L 26.289062 14.800781 L 26.261719 14.367188 L 26.226562 13.941406 L 26.171875 13.523438 L 26.101562 13.101562 L 26.019531 12.6875 L 25.921875 12.277344 L 25.808594 11.875 L 25.683594 11.480469 L 25.546875 11.089844 L 25.394531 10.707031 L 25.234375 10.328125 L 25.058594 9.957031 L 24.871094 9.589844 L 24.671875 9.230469 L 24.460938 8.875 L 24.234375 8.535156 L 23.996094 8.199219 L 23.746094 7.871094 L 23.492188 7.554688 L 23.222656 7.242188 L 22.941406 6.945312 L 22.65625 6.652344 L 22.355469 6.371094 L 22.050781 6.097656 L 21.730469 5.835938 L 21.40625 5.585938 L 21.070312 5.347656 L 20.726562 5.113281 L 20.375 4.894531 L 20.015625 4.6875 L 19.644531 4.492188 Z M 19.640625 4.5 C 19.273438 4.308594 19.128906 3.863281 19.320312 3.503906 C 19.515625 3.144531 19.972656 3.003906 20.339844 3.195312 Z M 19.640625 4.5 "/>
<path style=" stroke:none;fill-rule:nonzero;fill:rgb(92.941176%,41.176471%,36.078431%);fill-opacity:1;" d="M 13.152344 0.738281 C 13.152344 0.328125 13.492188 0 13.910156 0 C 14.328125 0 14.664062 0.328125 14.664062 0.738281 Z M 13.152344 11.84375 L 13.152344 0.738281 L 14.664062 0.738281 L 14.664062 11.84375 Z M 14.664062 11.84375 C 14.664062 12.253906 14.328125 12.582031 13.910156 12.582031 C 13.492188 12.582031 13.152344 12.253906 13.152344 11.84375 Z M 14.664062 11.84375 "/>
</g>
</svg>
