<?xml version="1.0" encoding="UTF-8"?>
<svg xmlns="http://www.w3.org/2000/svg" xmlns:xlink="http://www.w3.org/1999/xlink" width="28px" height="28px" viewBox="0 0 28 28" version="1.1">
<g id="surface1">
<path style="fill-rule:nonzero;fill:rgb(92.941176%,41.176471%,36.078431%);fill-opacity:1;stroke-width:0.52;stroke-linecap:round;stroke-linejoin:miter;stroke:rgb(92.941176%,41.176471%,36.078431%);stroke-opacity:1;stroke-miterlimit:10;" d="M 16.340799 1.727571 C 8.284248 1.727571 1.739743 8.28529 1.739743 16.335537 L 1.739743 16.51182 C 1.739743 24.562067 8.29579 31.119786 16.340799 31.119786 L 66.076729 31.119786 C 74.13328 31.119786 80.689327 24.573819 80.689327 16.51182 L 80.689327 16.335537 C 80.689327 8.28529 74.13328 1.727571 66.076729 1.727571 Z M 66.076729 32.600561 L 16.340799 32.600561 C 7.476284 32.600561 0.262323 25.38472 0.262323 16.523572 L 0.262323 16.347289 C 0.262323 7.47439 7.476284 0.2703 16.340799 0.2703 L 66.076729 0.2703 C 74.941243 0.2703 82.155204 7.47439 82.155204 16.347289 L 82.155204 16.523572 C 82.155204 25.38472 74.941243 32.600561 66.076729 32.600561 Z M 66.076729 32.600561 " transform="matrix(0.338428,0,0,0.332385,0.00106617,8.5)"/>
<path style="fill-rule:nonzero;fill:rgb(92.941176%,41.176471%,36.078431%);fill-opacity:1;stroke-width:0.52;stroke-linecap:butt;stroke-linejoin:miter;stroke:rgb(92.941176%,41.176471%,36.078431%);stroke-opacity:1;stroke-miterlimit:10;" d="M 16.340799 1.727571 C 8.284248 1.727571 1.739743 8.28529 1.739743 16.335537 L 1.739743 16.51182 C 1.739743 24.562067 8.29579 31.119786 16.340799 31.119786 L 66.076729 31.119786 C 74.13328 31.119786 80.689327 24.573819 80.689327 16.51182 L 80.689327 16.335537 C 80.689327 8.28529 74.13328 1.727571 66.076729 1.727571 Z M 66.076729 32.600561 L 16.340799 32.600561 C 7.476284 32.600561 0.262323 25.38472 0.262323 16.523572 L 0.262323 16.347289 C 0.262323 7.47439 7.476284 0.2703 16.340799 0.2703 L 66.076729 0.2703 C 74.941243 0.2703 82.155204 7.47439 82.155204 16.347289 L 82.155204 16.523572 C 82.155204 25.38472 74.941243 32.600561 66.076729 32.600561 Z M 66.076729 32.600561 " transform="matrix(0.338428,0,0,0.332385,0.00106617,8.5)"/>
<path style="fill-rule:nonzero;fill:rgb(92.941176%,41.176471%,36.078431%);fill-opacity:1;stroke-width:0.52;stroke-linecap:butt;stroke-linejoin:miter;stroke:rgb(92.941176%,41.176471%,36.078431%);stroke-opacity:1;stroke-miterlimit:10;" d="M 64.818614 5.523527 C 58.805056 5.523527 53.911105 10.412436 53.911105 16.429555 C 53.911105 22.446673 58.805056 27.335582 64.818614 27.335582 C 70.832171 27.335582 75.726122 22.434921 75.726122 16.429555 C 75.726122 10.412436 70.832171 5.523527 64.818614 5.523527 Z M 64.818614 28.816358 C 57.98555 28.816358 52.433686 23.257574 52.433686 16.429555 C 52.433686 9.601535 57.98555 4.042752 64.818614 4.042752 C 71.651677 4.042752 77.215084 9.601535 77.215084 16.429555 C 77.215084 23.257574 71.651677 28.816358 64.818614 28.816358 Z M 64.818614 28.816358 " transform="matrix(0.338428,0,0,0.332385,0.00106617,8.5)"/>
<path style="fill-rule:nonzero;fill:rgb(92.941176%,41.176471%,36.078431%);fill-opacity:1;stroke-width:0.52;stroke-linecap:butt;stroke-linejoin:miter;stroke:rgb(92.941176%,41.176471%,36.078431%);stroke-opacity:1;stroke-miterlimit:10;" d="M 64.818614 5.523527 C 58.805056 5.523527 53.911105 10.412436 53.911105 16.429555 C 53.911105 22.446673 58.805056 27.335582 64.818614 27.335582 C 70.832171 27.335582 75.726122 22.434921 75.726122 16.429555 C 75.726122 10.412436 70.832171 5.523527 64.818614 5.523527 Z M 64.818614 28.816358 C 57.98555 28.816358 52.433686 23.257574 52.433686 16.429555 C 52.433686 9.601535 57.98555 4.042752 64.818614 4.042752 C 71.651677 4.042752 77.215084 9.601535 77.215084 16.429555 C 77.215084 23.257574 71.651677 28.816358 64.818614 28.816358 Z M 64.818614 28.816358 " transform="matrix(0.338428,0,0,0.332385,0.00106617,8.5)"/>
<path style="fill-rule:nonzero;fill:rgb(92.941176%,41.176471%,36.078431%);fill-opacity:1;stroke-width:0.52;stroke-linecap:butt;stroke-linejoin:miter;stroke:rgb(92.941176%,41.176471%,36.078431%);stroke-opacity:1;stroke-miterlimit:10;" d="M 17.575829 20.049228 C 18.083692 20.049228 18.545385 19.95521 18.972452 19.790679 C 19.399518 19.614397 19.768873 19.367601 20.103601 19.050292 C 20.415244 18.732983 20.669175 18.345161 20.84231 17.898578 C 21.026988 17.463747 21.107784 16.970155 21.107784 16.429555 C 21.107784 15.888954 21.015445 15.395362 20.84231 14.960531 C 20.669175 14.525701 20.415244 14.137879 20.103601 13.808817 C 19.780415 13.491508 19.41106 13.244712 18.983994 13.06843 C 18.545385 12.903899 18.083692 12.809882 17.575829 12.809882 C 17.056424 12.809882 16.606272 12.903899 16.179206 13.06843 C 15.75214 13.244712 15.394327 13.491508 15.059599 13.808817 C 14.724872 14.126126 14.494025 14.513948 14.297805 14.960531 C 14.12467 15.395362 14.043874 15.888954 14.043874 16.429555 C 14.043874 16.958403 14.12467 17.440242 14.297805 17.886826 C 14.494025 18.345161 14.724872 18.721231 15.036515 19.03854 C 15.348158 19.355849 15.740597 19.614397 16.167664 19.778927 C 16.59473 19.95521 17.056424 20.037475 17.564286 20.037475 Z M 17.587371 22.282143 C 16.687069 22.282143 15.867563 22.129364 15.105769 21.83556 C 14.355517 21.553507 13.686061 21.142181 13.132029 20.613332 C 12.589539 20.084484 12.139388 19.461618 11.839287 18.756487 C 11.539187 18.051356 11.377594 17.275712 11.377594 16.429555 C 11.377594 15.595149 11.539187 14.807753 11.839287 14.102622 C 12.139388 13.385739 12.577997 12.774625 13.143571 12.245777 C 13.697604 11.705176 14.355517 11.305602 15.094226 11.011797 C 15.856021 10.717993 16.675526 10.565214 17.564286 10.565214 C 18.453046 10.565214 19.284095 10.706241 20.022804 11.011797 C 20.761514 11.305602 21.419427 11.705176 21.973459 12.245777 C 22.527491 12.774625 22.954558 13.385739 23.266201 14.09087 C 23.589386 14.796001 23.739437 15.571645 23.739437 16.417802 C 23.739437 17.26396 23.577844 18.039604 23.266201 18.744735 C 22.954558 19.47337 22.527491 20.084484 21.973459 20.613332 C 21.430969 21.130429 20.773056 21.541755 20.022804 21.83556 C 19.284095 22.117612 18.441504 22.270391 17.564286 22.270391 Z M 17.587371 22.282143 " transform="matrix(0.338428,0,0,0.332385,0.00106617,8.5)"/>
<path style="fill-rule:nonzero;fill:rgb(92.941176%,41.176471%,36.078431%);fill-opacity:1;stroke-width:0.52;stroke-linecap:butt;stroke-linejoin:miter;stroke:rgb(92.941176%,41.176471%,36.078431%);stroke-opacity:1;stroke-miterlimit:10;" d="M 28.171694 15.86545 L 33.596592 15.86545 L 33.596592 17.957339 L 28.171694 17.957339 Z M 28.356371 22.082356 L 25.736261 22.082356 L 25.736261 10.776754 L 34.289133 10.776754 L 34.289133 12.880395 L 28.356371 12.880395 Z M 28.356371 22.082356 " transform="matrix(0.338428,0,0,0.332385,0.00106617,8.5)"/>
<path style="fill-rule:nonzero;fill:rgb(92.941176%,41.176471%,36.078431%);fill-opacity:1;stroke-width:0.52;stroke-linecap:butt;stroke-linejoin:miter;stroke:rgb(92.941176%,41.176471%,36.078431%);stroke-opacity:1;stroke-miterlimit:10;" d="M 38.479001 15.86545 L 43.915442 15.86545 L 43.915442 17.957339 L 38.479001 17.957339 Z M 38.675221 22.082356 L 36.05511 22.082356 L 36.05511 10.776754 L 44.607982 10.776754 L 44.607982 12.880395 L 38.675221 12.880395 Z M 38.675221 22.082356 " transform="matrix(0.338428,0,0,0.332385,0.00106617,8.5)"/>
</g>
</svg>
