<?xml version="1.0" encoding="UTF-8"?>
<svg xmlns="http://www.w3.org/2000/svg" xmlns:xlink="http://www.w3.org/1999/xlink" width="28px" height="28px" viewBox="0 0 28 11" version="1.1">
<g id="surface1">
<path style="fill-rule:nonzero;fill:rgb(92.941176%,41.176471%,36.078431%);fill-opacity:1;stroke-width:0.52;stroke-linecap:round;stroke-linejoin:miter;stroke:rgb(92.941176%,41.176471%,36.078431%);stroke-opacity:1;stroke-miterlimit:10;" d="M 16.340804 1.727574 C 8.28425 1.727574 1.739743 8.285302 1.739743 16.33556 L 1.739743 16.511843 C 1.739743 24.562102 8.295793 31.11983 16.340804 31.11983 L 66.076752 31.11983 C 74.133306 31.11983 80.689356 24.573854 80.689356 16.511843 L 80.689356 16.33556 C 80.689356 8.285302 74.133306 1.727574 66.076752 1.727574 Z M 66.076752 32.600608 L 16.340804 32.600608 C 7.476287 32.600608 0.262323 25.384756 0.262323 16.523596 L 0.262323 16.347313 C 0.262323 7.4744 7.476287 0.270301 16.340804 0.270301 L 66.076752 0.270301 C 74.94127 0.270301 82.155233 7.4744 82.155233 16.347313 L 82.155233 16.523596 C 82.155233 25.384756 74.94127 32.600608 66.076752 32.600608 Z M 66.076752 32.600608 " transform="matrix(0.338428,0,0,0.332385,0.00106617,0)"/>
<path style="fill-rule:nonzero;fill:rgb(92.941176%,41.176471%,36.078431%);fill-opacity:1;stroke-width:0.52;stroke-linecap:butt;stroke-linejoin:miter;stroke:rgb(92.941176%,41.176471%,36.078431%);stroke-opacity:1;stroke-miterlimit:10;" d="M 16.340804 1.727574 C 8.28425 1.727574 1.739743 8.285302 1.739743 16.33556 L 1.739743 16.511843 C 1.739743 24.562102 8.295793 31.11983 16.340804 31.11983 L 66.076752 31.11983 C 74.133306 31.11983 80.689356 24.573854 80.689356 16.511843 L 80.689356 16.33556 C 80.689356 8.285302 74.133306 1.727574 66.076752 1.727574 Z M 66.076752 32.600608 L 16.340804 32.600608 C 7.476287 32.600608 0.262323 25.384756 0.262323 16.523596 L 0.262323 16.347313 C 0.262323 7.4744 7.476287 0.270301 16.340804 0.270301 L 66.076752 0.270301 C 74.94127 0.270301 82.155233 7.4744 82.155233 16.347313 L 82.155233 16.523596 C 82.155233 25.384756 74.94127 32.600608 66.076752 32.600608 Z M 66.076752 32.600608 " transform="matrix(0.338428,0,0,0.332385,0.00106617,0)"/>
<path style="fill-rule:nonzero;fill:rgb(92.941176%,41.176471%,36.078431%);fill-opacity:1;stroke-width:0.52;stroke-linecap:butt;stroke-linejoin:miter;stroke:rgb(92.941176%,41.176471%,36.078431%);stroke-opacity:1;stroke-miterlimit:10;" d="M 64.818637 5.523535 C 58.805077 5.523535 53.911124 10.412451 53.911124 16.429578 C 53.911124 22.446705 58.805077 27.335621 64.818637 27.335621 C 70.832196 27.335621 75.726149 22.434953 75.726149 16.429578 C 75.726149 10.412451 70.832196 5.523535 64.818637 5.523535 Z M 64.818637 28.816399 C 57.985571 28.816399 52.433705 23.257607 52.433705 16.429578 C 52.433705 9.601549 57.985571 4.042757 64.818637 4.042757 C 71.651703 4.042757 77.215111 9.601549 77.215111 16.429578 C 77.215111 23.257607 71.651703 28.816399 64.818637 28.816399 Z M 64.818637 28.816399 " transform="matrix(0.338428,0,0,0.332385,0.00106617,0)"/>
<path style="fill-rule:nonzero;fill:rgb(92.941176%,41.176471%,36.078431%);fill-opacity:1;stroke-width:0.52;stroke-linecap:butt;stroke-linejoin:miter;stroke:rgb(92.941176%,41.176471%,36.078431%);stroke-opacity:1;stroke-miterlimit:10;" d="M 64.818637 5.523535 C 58.805077 5.523535 53.911124 10.412451 53.911124 16.429578 C 53.911124 22.446705 58.805077 27.335621 64.818637 27.335621 C 70.832196 27.335621 75.726149 22.434953 75.726149 16.429578 C 75.726149 10.412451 70.832196 5.523535 64.818637 5.523535 Z M 64.818637 28.816399 C 57.985571 28.816399 52.433705 23.257607 52.433705 16.429578 C 52.433705 9.601549 57.985571 4.042757 64.818637 4.042757 C 71.651703 4.042757 77.215111 9.601549 77.215111 16.429578 C 77.215111 23.257607 71.651703 28.816399 64.818637 28.816399 Z M 64.818637 28.816399 " transform="matrix(0.338428,0,0,0.332385,0.00106617,0)"/>
<path style="fill-rule:nonzero;fill:rgb(92.941176%,41.176471%,36.078431%);fill-opacity:1;stroke-width:0.52;stroke-linecap:butt;stroke-linejoin:miter;stroke:rgb(92.941176%,41.176471%,36.078431%);stroke-opacity:1;stroke-miterlimit:10;" d="M 17.575835 20.049256 C 18.083698 20.049256 18.545392 19.955239 18.972458 19.790708 C 19.399525 19.614425 19.76888 19.367628 20.103608 19.050319 C 20.415251 18.73301 20.669182 18.345187 20.842317 17.898603 C 21.026995 17.463772 21.107791 16.970179 21.107791 16.429578 C 21.107791 15.888977 21.015453 15.395384 20.842317 14.960553 C 20.669182 14.525721 20.415251 14.137899 20.103608 13.808837 C 19.780422 13.491528 19.411067 13.244731 18.984001 13.068448 C 18.545392 12.903918 18.083698 12.8099 17.575835 12.8099 C 17.05643 12.8099 16.606278 12.903918 16.179212 13.068448 C 15.752145 13.244731 15.394333 13.491528 15.059605 13.808837 C 14.724877 14.126146 14.49403 14.513969 14.29781 14.960553 C 14.124675 15.395384 14.043879 15.888977 14.043879 16.429578 C 14.043879 16.958427 14.124675 17.440267 14.29781 17.886851 C 14.49403 18.345187 14.724877 18.721257 15.03652 19.038567 C 15.348163 19.355876 15.740603 19.614425 16.167669 19.778956 C 16.594736 19.955239 17.05643 20.037504 17.564293 20.037504 Z M 17.587377 22.282174 C 16.687075 22.282174 15.867568 22.129396 15.105774 21.835591 C 14.355522 21.553538 13.686066 21.142211 13.132034 20.613362 C 12.589544 20.084513 12.139392 19.461646 11.839291 18.756514 C 11.539191 18.051382 11.377598 17.275737 11.377598 16.429578 C 11.377598 15.595172 11.539191 14.807774 11.839291 14.102642 C 12.139392 13.385758 12.578001 12.774643 13.143576 12.245794 C 13.697608 11.705193 14.355522 11.305618 15.094232 11.011813 C 15.856026 10.718008 16.675532 10.565229 17.564293 10.565229 C 18.453053 10.565229 19.284101 10.706256 20.022811 11.011813 C 20.761521 11.305618 21.419435 11.705193 21.973467 12.245794 C 22.527499 12.774643 22.954566 13.385758 23.266209 14.09089 C 23.589395 14.796022 23.739445 15.571667 23.739445 16.417826 C 23.739445 17.263984 23.577852 18.03963 23.266209 18.744762 C 22.954566 19.473398 22.527499 20.084513 21.973467 20.613362 C 21.430977 21.130459 20.773063 21.541786 20.022811 21.835591 C 19.284101 22.117644 18.441511 22.270422 17.564293 22.270422 Z M 17.587377 22.282174 " transform="matrix(0.338428,0,0,0.332385,0.00106617,0)"/>
<path style="fill-rule:nonzero;fill:rgb(92.941176%,41.176471%,36.078431%);fill-opacity:1;stroke-width:0.52;stroke-linecap:butt;stroke-linejoin:miter;stroke:rgb(92.941176%,41.176471%,36.078431%);stroke-opacity:1;stroke-miterlimit:10;" d="M 28.171704 15.865472 L 33.596604 15.865472 L 33.596604 17.957364 L 28.171704 17.957364 Z M 28.356381 22.082387 L 25.73627 22.082387 L 25.73627 10.776769 L 34.289145 10.776769 L 34.289145 12.880413 L 28.356381 12.880413 Z M 28.356381 22.082387 " transform="matrix(0.338428,0,0,0.332385,0.00106617,0)"/>
<path style="fill-rule:nonzero;fill:rgb(92.941176%,41.176471%,36.078431%);fill-opacity:1;stroke-width:0.52;stroke-linecap:butt;stroke-linejoin:miter;stroke:rgb(92.941176%,41.176471%,36.078431%);stroke-opacity:1;stroke-miterlimit:10;" d="M 38.479015 15.865472 L 43.915457 15.865472 L 43.915457 17.957364 L 38.479015 17.957364 Z M 38.675234 22.082387 L 36.055123 22.082387 L 36.055123 10.776769 L 44.607998 10.776769 L 44.607998 12.880413 L 38.675234 12.880413 Z M 38.675234 22.082387 " transform="matrix(0.338428,0,0,0.332385,0.00106617,0)"/>
</g>
</svg>
