<?xml version="1.0" encoding="UTF-8"?>
<svg xmlns="http://www.w3.org/2000/svg" xmlns:xlink="http://www.w3.org/1999/xlink" width="28px" height="28px" viewBox="0 0 28 11" version="1.1">
<g id="surface1">
<path style="fill-rule:nonzero;fill:rgb(92.941176%,41.176471%,36.078431%);fill-opacity:1;stroke-width:0.7;stroke-linecap:butt;stroke-linejoin:miter;stroke:rgb(92.941176%,41.176471%,36.078431%);stroke-opacity:1;stroke-miterlimit:10;" d="M 22.214108 2.36386 C 11.271894 2.36386 2.354852 11.2672 2.354852 22.232535 L 2.354852 22.472302 C 2.354852 33.421652 11.271894 42.340977 22.214108 42.340977 L 89.86117 42.340977 C 100.834782 42.340977 109.751824 33.421652 109.751824 22.472302 L 109.751824 22.232535 C 109.751824 11.2672 100.834782 2.36386 89.86117 2.36386 Z M 89.86117 44.339034 L 22.214108 44.339034 C 10.157264 44.339034 0.345378 34.524579 0.345378 22.472302 L 0.345378 22.232535 C 0.345378 10.164273 10.172963 0.349819 22.214108 0.349819 L 89.86117 0.349819 C 101.933714 0.349819 111.745599 10.164273 111.745599 22.232535 L 111.745599 22.472302 C 111.745599 34.524579 101.933714 44.339034 89.86117 44.339034 Z M 89.86117 44.339034 " transform="matrix(0.248821,0,0,0.244378,0,0.000449494)"/>
<path style="fill-rule:nonzero;fill:rgb(92.941176%,41.176471%,36.078431%);fill-opacity:1;stroke-width:0.7;stroke-linecap:butt;stroke-linejoin:miter;stroke:rgb(92.941176%,41.176471%,36.078431%);stroke-opacity:1;stroke-miterlimit:10;" d="M 22.214108 2.36386 C 11.271894 2.36386 2.354852 11.2672 2.354852 22.232535 L 2.354852 22.472302 C 2.354852 33.421652 11.271894 42.340977 22.214108 42.340977 L 89.86117 42.340977 C 100.834782 42.340977 109.751824 33.421652 109.751824 22.472302 L 109.751824 22.232535 C 109.751824 11.2672 100.834782 2.36386 89.86117 2.36386 Z M 89.86117 44.339034 L 22.214108 44.339034 C 10.157264 44.339034 0.345378 34.524579 0.345378 22.472302 L 0.345378 22.232535 C 0.345378 10.164273 10.172963 0.349819 22.214108 0.349819 L 89.86117 0.349819 C 101.933714 0.349819 111.745599 10.164273 111.745599 22.232535 L 111.745599 22.472302 C 111.745599 34.524579 101.933714 44.339034 89.86117 44.339034 Z M 89.86117 44.339034 " transform="matrix(0.248821,0,0,0.244378,0,0.000449494)"/>
<path style="fill-rule:nonzero;fill:rgb(92.941176%,41.176471%,36.078431%);fill-opacity:1;stroke-width:0.7;stroke-linecap:butt;stroke-linejoin:miter;stroke:rgb(92.941176%,41.176471%,36.078431%);stroke-opacity:1;stroke-miterlimit:10;" d="M 25.275416 7.510854 C 17.096229 7.510854 10.439846 14.176371 10.439846 22.344426 C 10.439846 30.544451 17.096229 37.193983 25.275416 37.193983 C 33.454604 37.193983 40.126686 30.528466 40.126686 22.344426 C 40.126686 14.160386 33.454604 7.510854 25.275416 7.510854 Z M 25.275416 39.19204 C 15.997298 39.19204 8.430372 31.647378 8.430372 22.344426 C 8.430372 13.057459 15.997298 5.496813 25.275416 5.496813 C 34.569234 5.496813 42.13616 13.057459 42.13616 22.344426 C 42.13616 31.647378 34.569234 39.19204 25.275416 39.19204 Z M 25.275416 39.19204 " transform="matrix(0.248821,0,0,0.244378,0,0.000449494)"/>
<path style="fill-rule:nonzero;fill:rgb(92.941176%,41.176471%,36.078431%);fill-opacity:1;stroke-width:0.7;stroke-linecap:butt;stroke-linejoin:miter;stroke:rgb(92.941176%,41.176471%,36.078431%);stroke-opacity:1;stroke-miterlimit:10;" d="M 25.275416 7.510854 C 17.096229 7.510854 10.439846 14.176371 10.439846 22.344426 C 10.439846 30.544451 17.096229 37.193983 25.275416 37.193983 C 33.454604 37.193983 40.126686 30.528466 40.126686 22.344426 C 40.126686 14.160386 33.454604 7.510854 25.275416 7.510854 Z M 25.275416 39.19204 C 15.997298 39.19204 8.430372 31.647378 8.430372 22.344426 C 8.430372 13.057459 15.997298 5.496813 25.275416 5.496813 C 34.569234 5.496813 42.13616 13.057459 42.13616 22.344426 C 42.13616 31.647378 34.569234 39.19204 25.275416 39.19204 Z M 25.275416 39.19204 " transform="matrix(0.248821,0,0,0.244378,0,0.000449494)"/>
<path style="fill-rule:nonzero;fill:rgb(92.941176%,41.176471%,36.078431%);fill-opacity:1;stroke-width:0.7;stroke-linecap:butt;stroke-linejoin:miter;stroke:rgb(92.941176%,41.176471%,36.078431%);stroke-opacity:1;stroke-miterlimit:10;" d="M 63.549618 27.267638 C 64.256074 27.267638 64.868336 27.155746 65.464898 26.91598 C 66.014364 26.676213 66.548131 26.356524 66.987703 25.908959 C 67.427276 25.477379 67.756955 24.949892 68.008139 24.342483 C 68.243624 23.751058 68.353517 23.079711 68.353517 22.344426 C 68.353517 21.625126 68.243624 20.953779 68.008139 20.346369 C 67.756955 19.754945 67.427276 19.227458 67.003402 18.795877 C 66.56383 18.348313 66.045762 18.012639 65.464898 17.772872 C 64.868336 17.533106 64.256074 17.437199 63.549618 17.437199 C 62.874561 17.437199 62.230901 17.54909 61.665736 17.772872 C 61.069174 18.012639 60.566805 18.348313 60.127233 18.795877 C 59.68766 19.227458 59.342282 19.754945 59.106797 20.346369 C 58.887011 20.953779 58.745719 21.625126 58.745719 22.344426 C 58.745719 23.063726 58.887011 23.735073 59.106797 24.342483 C 59.342282 24.949892 59.68766 25.477379 60.127233 25.908959 C 60.551106 26.356524 61.053475 26.692197 61.634338 26.91598 C 62.215202 27.155746 62.874561 27.267638 63.549618 27.267638 Z M 63.565317 30.304684 C 62.356493 30.304684 61.226164 30.096886 60.205728 29.713259 C 59.169593 29.313648 58.274749 28.754192 57.536895 28.034891 C 56.767643 27.315591 56.18678 26.484399 55.762906 25.509348 C 55.354732 24.550281 55.134946 23.495307 55.134946 22.344426 C 55.134946 21.20953 55.354732 20.154556 55.762906 19.195489 C 56.18678 18.220437 56.767643 17.373261 57.536895 16.669945 C 58.290448 15.950645 59.185292 15.391189 60.221427 15.007562 C 61.257562 14.607951 62.356493 14.416137 63.549618 14.416137 C 64.774142 14.416137 65.888772 14.607951 66.893509 15.007562 C 67.929644 15.407173 68.808789 15.950645 69.562342 16.669945 C 70.331594 17.389246 70.912457 18.220437 71.320632 19.179504 C 71.744505 20.138572 71.964291 21.193545 71.964291 22.344426 C 71.964291 23.495307 71.744505 24.550281 71.320632 25.525332 C 70.912457 26.484399 70.331594 27.34756 69.562342 28.050876 C 68.808789 28.754192 67.929644 29.313648 66.893509 29.713259 C 65.888772 30.096886 64.774142 30.304684 63.565317 30.304684 Z M 63.565317 30.304684 " transform="matrix(0.248821,0,0,0.244378,0,0.000449494)"/>
<path style="fill-rule:nonzero;fill:rgb(92.941176%,41.176471%,36.078431%);fill-opacity:1;stroke-width:0.7;stroke-linecap:butt;stroke-linejoin:miter;stroke:rgb(92.941176%,41.176471%,36.078431%);stroke-opacity:1;stroke-miterlimit:10;" d="M 74.648823 30.032948 L 74.648823 14.655904 L 77.600238 14.655904 L 86.67427 25.73313 L 85.22996 25.73313 L 85.22996 14.655904 L 88.762239 14.655904 L 88.762239 30.032948 L 85.826523 30.032948 L 76.736792 18.971706 L 78.165403 18.971706 L 78.165403 30.032948 Z M 74.648823 30.032948 " transform="matrix(0.248821,0,0,0.244378,0,0.000449494)"/>
</g>
</svg>
