<?xml version="1.0" encoding="UTF-8"?>
<svg xmlns="http://www.w3.org/2000/svg" xmlns:xlink="http://www.w3.org/1999/xlink" width="28px" height="28px" viewBox="0 0 28 28" version="1.1">
<g id="surface1">
<path style="fill-rule:nonzero;fill:rgb(92.941176%,41.176471%,36.078431%);fill-opacity:1;stroke-width:1.63;stroke-linecap:butt;stroke-linejoin:miter;stroke:rgb(92.941176%,41.176471%,36.078431%);stroke-opacity:1;stroke-miterlimit:22.9256;" d="M 3.68323 55.039592 C 15.707775 46.881304 27.616142 38.798323 39.599195 30.673505 C 27.591247 22.10521 15.674581 13.587121 3.68323 5.018826 C 3.68323 21.753776 3.68323 38.313009 3.68323 55.039592 Z M 2.239288 59.248432 C 1.467527 59.106185 0.911526 58.604136 0.828541 57.901268 C 0.803646 57.733919 0.803646 57.549834 0.803646 57.36575 C 0.803646 39.116287 0.803646 20.866824 0.803646 2.634096 C 0.803646 2.542054 0.803646 2.450012 0.803646 2.357969 C 0.787048 1.747144 1.027705 1.278565 1.575407 0.994071 C 2.139706 0.701209 2.645915 0.801619 3.152125 1.153053 C 5.069081 2.516951 6.986038 3.889217 8.902995 5.253116 C 20.064495 13.218952 31.209398 21.184788 42.379197 29.150624 C 42.520272 29.259401 42.669645 29.359811 42.81072 29.460221 C 43.765049 30.188191 43.765049 31.259228 42.777526 31.945361 C 40.769286 33.325994 38.744449 34.689893 36.711313 36.062159 C 25.632797 43.584519 14.537685 51.098511 3.442573 58.604136 C 3.06914 58.863528 2.637617 59.030877 2.239288 59.240064 Z M 2.239288 59.248432 " transform="matrix(0.470717,0,0,0.466837,3.684211,0.000774274)"/>
</g>
</svg>
