<?xml version="1.0" encoding="UTF-8"?>
<svg xmlns="http://www.w3.org/2000/svg" xmlns:xlink="http://www.w3.org/1999/xlink" width="28px" height="28px" viewBox="0 0 28 38" version="1.1">
<g id="surface1">
<path style="fill-rule:nonzero;fill:rgb(92.941176%,41.176471%,36.078431%);fill-opacity:1;stroke-width:1.63;stroke-linecap:butt;stroke-linejoin:miter;stroke:rgb(92.941176%,41.176471%,36.078431%);stroke-opacity:1;stroke-miterlimit:22.9256;" d="M 3.681046 55.037844 C 15.708651 46.880875 27.620076 38.797892 39.598763 30.671751 C 27.589503 22.101693 15.678077 13.587124 3.681046 5.017066 C 3.681046 21.750259 3.681046 38.316982 3.681046 55.037844 Z M 2.237978 59.248887 C 1.467527 59.10708 0.91109 58.601508 0.831598 57.89864 C 0.801025 57.732171 0.80714 57.547206 0.80714 57.368406 C 0.80714 39.118498 0.80714 20.868591 0.80714 2.631014 C 0.80714 2.538531 0.80714 2.452214 0.80714 2.359732 C 0.788796 1.749346 1.027269 1.280767 1.577591 0.990988 C 2.140143 0.70121 2.647663 0.799858 3.149068 1.151292 C 5.069082 2.520035 6.982981 3.888778 8.902996 5.251355 C 20.062313 13.217194 31.209402 21.183032 42.380949 29.14887 C 42.521587 29.259849 42.66834 29.358497 42.808978 29.457145 C 43.768985 30.190841 43.768985 31.257474 42.778404 31.941846 C 40.772785 33.329085 38.742706 34.691663 36.712627 36.060406 C 25.6328 43.582327 14.540744 51.098083 3.442573 58.607674 C 3.069577 58.860459 2.641548 59.026928 2.237978 59.242721 Z M 2.237978 59.248887 " transform="matrix(0.63883,0,0,0.633565,0,0.0010508)"/>
</g>
</svg>
