<?xml version="1.0" encoding="UTF-8"?>
<svg xmlns="http://www.w3.org/2000/svg" xmlns:xlink="http://www.w3.org/1999/xlink" width="28px" height="28px" viewBox="0 0 28 36" version="1.1">
<g id="surface1">
<path style="fill-rule:nonzero;fill:rgb(92.941176%,41.176471%,36.078431%);fill-opacity:1;stroke-width:0.73;stroke-linecap:butt;stroke-linejoin:miter;stroke:rgb(92.941176%,41.176471%,36.078431%);stroke-opacity:1;stroke-miterlimit:10;" d="M 100.726486 136.923259 C 70.431532 116.385536 40.413807 96.021194 10.257468 75.546519 C 40.506217 53.95275 70.50854 32.516601 100.726486 10.938594 C 100.726486 53.085847 100.726486 94.80753 100.726486 136.923259 Z M 104.345863 147.531001 C 106.271063 147.18424 107.672609 145.907528 107.87283 144.126436 C 107.965239 143.685103 107.919035 143.243771 107.919035 142.786677 C 107.919035 96.82505 107.919035 50.863423 107.919035 4.917558 C 107.919035 4.68113 107.919035 4.460464 107.919035 4.224035 C 107.965239 2.695134 107.364577 1.512993 105.993834 0.772185 C 104.576887 0.0471386 103.298554 0.31509 102.051024 1.197755 C 97.21492 4.633844 92.394218 8.085695 87.573517 11.537545 C 59.450189 31.58665 31.373066 51.667278 3.26514 71.716383 C 2.895501 71.984335 2.541265 72.236525 2.171626 72.504477 C -0.246426 74.332854 -0.246426 77.043897 2.248634 78.761941 C 7.315762 82.261077 12.429094 85.697166 17.527025 89.133255 C 45.450131 108.079028 73.357837 127.024802 101.327148 145.939051 C 102.251245 146.569526 103.329357 146.995097 104.345863 147.515239 Z M 104.345863 147.531001 " transform="matrix(0.253626,0,0,0.247829,0,0.0000364454)"/>
</g>
</svg>
