<?xml version="1.0" encoding="UTF-8"?>
<svg xmlns="http://www.w3.org/2000/svg" xmlns:xlink="http://www.w3.org/1999/xlink" width="28px" height="28px" viewBox="0 0 28 28" version="1.1">
<g id="surface1">
<path style="fill-rule:nonzero;fill:rgb(92.941176%,41.176471%,36.078431%);fill-opacity:1;stroke-width:0.73;stroke-linecap:butt;stroke-linejoin:miter;stroke:rgb(92.941176%,41.176471%,36.078431%);stroke-opacity:1;stroke-miterlimit:10;" d="M 100.724362 136.932278 C 70.427185 116.383295 40.407237 96.016699 10.248675 75.548777 C 40.506247 53.946 70.506393 32.52561 100.724362 10.943098 C 100.724362 53.094859 100.724362 94.800783 100.724362 136.932278 Z M 104.348142 147.531014 C 106.268943 147.186504 107.674891 145.909792 107.872911 144.126448 C 107.971922 143.680612 107.912515 143.234776 107.912515 142.788941 C 107.912515 96.82731 107.912515 50.865679 107.912515 4.924313 C 107.912515 4.68113 107.912515 4.458212 107.912515 4.215029 C 107.971922 2.695134 107.358057 1.519748 105.991714 0.769933 C 104.585767 0.0403835 103.298632 0.324097 102.051101 1.195504 C 97.219394 4.6406 92.387688 8.085695 87.575783 11.530791 C 59.456835 31.593408 31.37749 51.67629 3.258542 71.718641 C 2.902104 71.98209 2.545667 72.245538 2.169427 72.508987 C -0.246426 74.332861 -0.246426 77.048407 2.248636 78.770955 C 7.317967 82.256581 12.426903 85.701677 17.535839 89.126507 C 45.456766 108.074534 73.357892 127.022561 101.318424 145.930057 C 102.249122 146.578546 103.338236 147.004117 104.348142 147.510748 Z M 104.348142 147.531014 " transform="matrix(0.197265,0,0,0.192756,3.111111,0.0000283464)"/>
</g>
</svg>
