<?xml version="1.0" encoding="UTF-8"?>
<svg xmlns="http://www.w3.org/2000/svg" xmlns:xlink="http://www.w3.org/1999/xlink" width="28px" height="28px" viewBox="0 0 28 28" version="1.1">
<g id="surface1">
<path style="fill-rule:nonzero;fill:rgb(92.941176%,41.176471%,36.078431%);fill-opacity:1;stroke-width:10.08;stroke-linecap:butt;stroke-linejoin:miter;stroke:rgb(92.941176%,41.176471%,36.078431%);stroke-opacity:1;stroke-miterlimit:22.9256;" d="M 320.769989 189.29304 C 320.769989 143.174686 320.875416 97.002768 320.769989 50.777286 C 320.769989 33.422644 309.911013 22.602775 292.568281 22.549211 C 276.437958 22.495647 260.307635 22.495647 244.071885 22.549211 C 226.623725 22.602775 215.606609 33.529772 215.606609 51.045105 C 215.606609 143.228249 215.501182 235.35783 215.606609 327.594539 C 215.606609 344.734926 226.729152 355.76905 243.808318 355.822614 C 260.202208 355.929741 276.437958 355.929741 292.779135 355.76905 C 295.731089 355.76905 298.788471 355.501232 301.740425 354.697776 C 313.600957 351.376826 320.717276 341.360412 320.717276 327.75523 C 320.822702 281.636876 320.717276 235.464958 320.717276 189.29304 Z M 198.053022 188.757403 C 198.053022 143.067558 198.053022 97.270586 198.053022 51.527178 C 198.053022 23.727613 216.660879 5.087442 244.335452 5.087442 C 260.571202 5.033878 276.701525 5.033878 292.884561 5.087442 C 319.399439 5.141005 338.376289 23.781176 338.481716 50.241649 C 338.587143 142.906867 338.587143 235.518522 338.481716 328.130176 C 338.376289 354.590649 319.399439 373.284383 292.884561 373.337947 C 276.437958 373.391511 259.991354 373.391511 243.54475 373.337947 C 216.97716 373.284383 198.053022 354.376394 198.053022 327.701666 C 198.053022 281.422621 198.053022 235.090012 198.053022 188.757403 Z M 198.053022 188.757403 " transform="matrix(0.0741034,0,0,0.0729272,1.354839,0.0000809999)"/>
<path style=" stroke:none;fill-rule:nonzero;fill:rgb(92.941176%,41.176471%,36.078431%);fill-opacity:1;" d="M 25.125 13.804688 C 25.125 10.441406 25.132812 7.074219 25.125 3.703125 C 25.125 2.4375 24.320312 1.648438 23.035156 1.644531 C 21.839844 1.640625 20.644531 1.640625 19.441406 1.644531 C 18.148438 1.648438 17.332031 2.445312 17.332031 3.722656 C 17.332031 10.445312 17.324219 17.164062 17.332031 23.890625 C 17.332031 25.140625 18.15625 25.945312 19.421875 25.949219 C 20.636719 25.957031 21.839844 25.957031 23.050781 25.945312 C 23.269531 25.945312 23.496094 25.925781 23.714844 25.867188 C 24.59375 25.625 25.121094 24.894531 25.121094 23.902344 C 25.128906 20.539062 25.121094 17.171875 25.121094 13.804688 Z M 16.03125 13.765625 C 16.03125 10.433594 16.03125 7.09375 16.03125 3.757812 C 16.03125 1.730469 17.410156 0.371094 19.460938 0.371094 C 20.664062 0.367188 21.859375 0.367188 23.058594 0.371094 C 25.023438 0.375 26.429688 1.734375 26.4375 3.664062 C 26.445312 10.421875 26.445312 17.175781 26.4375 23.929688 C 26.429688 25.859375 25.023438 27.222656 23.058594 27.226562 C 21.839844 27.230469 20.621094 27.230469 19.402344 27.226562 C 17.433594 27.222656 16.03125 25.84375 16.03125 23.898438 C 16.03125 20.523438 16.03125 17.144531 16.03125 13.765625 Z M 16.03125 13.765625 "/>
<path style=" stroke:none;fill-rule:nonzero;fill:rgb(92.941176%,41.176471%,36.078431%);fill-opacity:1;" d="M 24.964844 3.707031 L 25.277344 3.707031 L 25.277344 3.703125 L 25.28125 4.023438 L 25.28125 5.285156 L 25.285156 5.597656 L 25.285156 9.074219 L 25.28125 9.386719 L 25.28125 11.914062 L 25.277344 12.230469 L 25.277344 13.808594 L 24.964844 13.808594 L 24.964844 12.230469 L 24.96875 11.914062 L 24.96875 9.386719 L 24.972656 9.074219 L 24.972656 5.597656 L 24.96875 5.285156 L 24.96875 4.023438 L 24.964844 3.707031 L 24.964844 3.703125 Z M 24.964844 3.707031 Z M 23.035156 1.800781 L 23.035156 1.492188 L 23.164062 1.496094 L 23.28125 1.503906 L 23.402344 1.511719 L 23.523438 1.53125 L 23.636719 1.550781 L 23.855469 1.613281 L 23.960938 1.648438 L 24.0625 1.6875 L 24.15625 1.730469 L 24.253906 1.78125 L 24.34375 1.835938 L 24.433594 1.894531 L 24.519531 1.953125 L 24.59375 2.023438 L 24.671875 2.09375 L 24.8125 2.246094 L 24.875 2.328125 L 24.933594 2.417969 L 24.988281 2.503906 L 25.039062 2.601562 L 25.082031 2.695312 L 25.125 2.796875 L 25.160156 2.898438 L 25.191406 3.007812 L 25.21875 3.117188 L 25.242188 3.226562 L 25.257812 3.34375 L 25.269531 3.460938 L 25.277344 3.585938 L 25.28125 3.707031 L 24.96875 3.707031 L 24.964844 3.59375 L 24.960938 3.484375 L 24.949219 3.378906 L 24.933594 3.28125 L 24.917969 3.179688 L 24.863281 2.992188 L 24.832031 2.902344 L 24.800781 2.820312 L 24.761719 2.734375 L 24.71875 2.65625 L 24.625 2.507812 L 24.566406 2.4375 L 24.511719 2.371094 L 24.449219 2.3125 L 24.386719 2.25 L 24.253906 2.140625 L 24.179688 2.09375 L 24.101562 2.046875 L 24.019531 2.007812 L 23.933594 1.96875 L 23.851562 1.933594 L 23.757812 1.902344 L 23.667969 1.878906 L 23.570312 1.851562 L 23.46875 1.835938 L 23.363281 1.816406 L 23.257812 1.804688 L 23.148438 1.800781 Z M 19.441406 1.800781 L 19.441406 1.492188 L 19.664062 1.492188 L 19.777344 1.488281 L 20.566406 1.488281 L 20.679688 1.484375 L 21.800781 1.484375 L 21.914062 1.488281 L 22.699219 1.488281 L 22.8125 1.492188 L 23.035156 1.492188 L 23.035156 1.800781 L 22.925781 1.796875 L 22.476562 1.796875 L 22.363281 1.792969 L 20.113281 1.792969 L 20 1.796875 L 19.554688 1.796875 Z M 17.484375 3.722656 L 17.175781 3.722656 L 17.179688 3.597656 L 17.1875 3.480469 L 17.199219 3.359375 L 17.21875 3.242188 L 17.238281 3.128906 L 17.265625 3.019531 L 17.300781 2.910156 L 17.335938 2.808594 L 17.375 2.707031 L 17.421875 2.609375 L 17.472656 2.515625 L 17.527344 2.425781 L 17.652344 2.253906 L 17.71875 2.175781 L 17.792969 2.097656 L 17.871094 2.027344 L 17.953125 1.960938 L 18.035156 1.898438 L 18.125 1.839844 L 18.214844 1.785156 L 18.3125 1.734375 L 18.410156 1.691406 L 18.511719 1.652344 L 18.617188 1.617188 L 18.835938 1.554688 L 19.070312 1.515625 L 19.191406 1.503906 L 19.3125 1.496094 L 19.441406 1.492188 L 19.441406 1.800781 L 19.328125 1.804688 L 19.21875 1.808594 L 19.109375 1.820312 L 19.007812 1.835938 L 18.902344 1.855469 L 18.804688 1.878906 L 18.710938 1.90625 L 18.617188 1.9375 L 18.449219 2.007812 L 18.363281 2.050781 L 18.285156 2.097656 L 18.210938 2.148438 L 18.140625 2.203125 L 18.074219 2.257812 L 18.011719 2.316406 L 17.949219 2.378906 L 17.890625 2.445312 L 17.839844 2.515625 L 17.738281 2.664062 L 17.660156 2.828125 L 17.625 2.914062 L 17.589844 3.007812 L 17.5625 3.097656 L 17.542969 3.191406 L 17.519531 3.296875 L 17.507812 3.398438 L 17.492188 3.503906 Z M 17.484375 23.890625 L 17.175781 23.890625 L 17.175781 22 L 17.171875 21.371094 L 17.171875 11.914062 L 17.175781 11.285156 L 17.175781 6.246094 L 17.179688 5.613281 L 17.179688 3.726562 L 17.488281 3.726562 L 17.488281 5.613281 L 17.484375 6.246094 L 17.484375 11.285156 L 17.480469 11.914062 L 17.480469 21.371094 L 17.484375 22 Z M 17.484375 23.890625 Z M 19.425781 25.800781 L 19.421875 26.105469 L 19.425781 26.105469 L 19.304688 26.101562 L 19.179688 26.09375 L 19.058594 26.085938 L 18.941406 26.066406 L 18.832031 26.042969 L 18.722656 26.015625 L 18.613281 25.984375 L 18.507812 25.949219 L 18.40625 25.90625 L 18.308594 25.863281 L 18.210938 25.8125 L 18.121094 25.757812 L 18.03125 25.699219 L 17.949219 25.636719 L 17.871094 25.570312 L 17.792969 25.5 L 17.722656 25.425781 L 17.652344 25.34375 L 17.589844 25.261719 L 17.527344 25.175781 L 17.421875 24.992188 L 17.375 24.894531 L 17.335938 24.796875 L 17.300781 24.695312 L 17.265625 24.585938 L 17.238281 24.480469 L 17.214844 24.367188 L 17.195312 24.25 L 17.1875 24.132812 L 17.179688 24.011719 L 17.175781 23.890625 L 17.484375 23.890625 L 17.488281 24 L 17.496094 24.109375 L 17.519531 24.3125 L 17.566406 24.507812 L 17.59375 24.597656 L 17.628906 24.6875 L 17.664062 24.773438 L 17.699219 24.855469 L 17.742188 24.933594 L 17.789062 25.011719 L 17.839844 25.085938 L 17.890625 25.152344 L 17.953125 25.21875 L 18.011719 25.285156 L 18.074219 25.34375 L 18.140625 25.398438 L 18.210938 25.453125 L 18.285156 25.503906 L 18.363281 25.546875 L 18.445312 25.589844 L 18.53125 25.628906 L 18.617188 25.664062 L 18.707031 25.695312 L 18.898438 25.746094 L 18.996094 25.761719 L 19.101562 25.78125 L 19.207031 25.792969 Z M 19.425781 25.800781 L 19.421875 25.800781 Z M 23.050781 25.796875 L 23.050781 26.101562 L 22.9375 26.105469 L 22.484375 26.105469 L 22.367188 26.109375 L 21.804688 26.109375 L 21.6875 26.113281 L 20.328125 26.113281 L 20.214844 26.109375 L 19.648438 26.109375 L 19.535156 26.105469 L 19.421875 26.105469 L 19.421875 25.800781 L 19.878906 25.800781 L 19.992188 25.804688 L 22.03125 25.804688 L 22.144531 25.800781 L 22.59375 25.800781 L 22.707031 25.796875 Z M 23.050781 25.796875 Z M 23.671875 25.722656 L 23.753906 26.015625 L 23.730469 26.023438 L 23.710938 26.027344 L 23.683594 26.035156 L 23.644531 26.042969 L 23.621094 26.050781 L 23.597656 26.050781 L 23.554688 26.058594 L 23.535156 26.066406 L 23.507812 26.070312 L 23.464844 26.078125 L 23.445312 26.078125 L 23.425781 26.082031 L 23.398438 26.085938 L 23.355469 26.085938 L 23.332031 26.089844 L 23.3125 26.09375 L 23.289062 26.09375 L 23.269531 26.097656 L 23.242188 26.097656 L 23.222656 26.101562 L 23.203125 26.101562 L 23.179688 26.105469 L 23.132812 26.105469 L 23.113281 26.109375 L 23.050781 26.109375 L 23.050781 25.800781 L 23.144531 25.800781 L 23.167969 25.796875 L 23.183594 25.796875 L 23.207031 25.792969 L 23.28125 25.792969 L 23.324219 25.785156 L 23.34375 25.785156 L 23.363281 25.78125 L 23.382812 25.78125 L 23.5 25.757812 L 23.519531 25.757812 L 23.539062 25.753906 L 23.574219 25.746094 L 23.597656 25.742188 L 23.617188 25.734375 L 23.652344 25.726562 L 23.675781 25.722656 Z M 23.753906 26.015625 L 23.761719 26.011719 Z M 24.964844 23.90625 L 25.277344 23.90625 L 25.277344 24.003906 L 25.261719 24.191406 L 25.25 24.285156 L 25.238281 24.375 L 25.199219 24.554688 L 25.148438 24.722656 L 25.085938 24.882812 L 25.050781 24.960938 L 25.011719 25.039062 L 24.96875 25.113281 L 24.875 25.253906 L 24.824219 25.320312 L 24.773438 25.390625 L 24.59375 25.570312 L 24.527344 25.621094 L 24.464844 25.675781 L 24.394531 25.722656 L 24.320312 25.769531 L 24.171875 25.855469 L 24.09375 25.894531 L 24.007812 25.929688 L 23.929688 25.960938 L 23.84375 25.988281 L 23.753906 26.011719 L 23.671875 25.722656 L 23.75 25.699219 L 23.824219 25.675781 L 23.894531 25.648438 L 23.964844 25.613281 L 24.03125 25.582031 L 24.15625 25.511719 L 24.21875 25.472656 L 24.335938 25.386719 L 24.386719 25.339844 L 24.441406 25.289062 L 24.488281 25.242188 L 24.582031 25.136719 L 24.625 25.078125 L 24.699219 24.957031 L 24.773438 24.832031 L 24.800781 24.765625 L 24.855469 24.625 L 24.898438 24.476562 L 24.917969 24.402344 L 24.933594 24.324219 L 24.957031 24.160156 L 24.960938 24.078125 L 24.964844 23.992188 L 24.96875 23.902344 Z M 24.964844 23.90625 Z M 24.964844 13.804688 L 25.277344 13.804688 L 25.277344 15.382812 L 25.28125 15.699219 L 25.28125 18.226562 L 25.285156 18.539062 L 25.285156 22.011719 L 25.28125 22.332031 L 25.28125 23.59375 L 25.277344 23.90625 L 24.964844 23.90625 L 24.96875 23.59375 L 24.96875 22.332031 L 24.972656 22.011719 L 24.972656 18.539062 L 24.96875 18.226562 L 24.96875 15.699219 L 24.964844 15.382812 Z M 15.878906 3.757812 L 16.1875 3.757812 L 16.1875 13.769531 L 15.878906 13.769531 Z M 19.460938 0.21875 L 19.460938 0.523438 L 19.277344 0.527344 L 19.097656 0.539062 L 18.921875 0.558594 L 18.753906 0.585938 L 18.585938 0.617188 L 18.425781 0.65625 L 18.269531 0.703125 L 18.117188 0.757812 L 17.96875 0.820312 L 17.828125 0.886719 L 17.691406 0.957031 L 17.558594 1.039062 L 17.433594 1.121094 L 17.3125 1.214844 L 17.199219 1.308594 L 17.089844 1.410156 L 16.984375 1.519531 L 16.886719 1.632812 L 16.792969 1.753906 L 16.710938 1.878906 L 16.628906 2.007812 L 16.554688 2.140625 L 16.488281 2.28125 L 16.425781 2.425781 L 16.371094 2.578125 L 16.324219 2.734375 L 16.28125 2.894531 L 16.25 3.054688 L 16.222656 3.226562 L 16.207031 3.398438 L 16.191406 3.578125 L 16.1875 3.757812 L 15.878906 3.757812 L 15.882812 3.5625 L 15.894531 3.371094 L 15.914062 3.1875 L 15.945312 3.003906 L 15.980469 2.824219 L 16.023438 2.652344 L 16.078125 2.484375 L 16.136719 2.316406 L 16.277344 2.003906 L 16.359375 1.855469 L 16.449219 1.710938 L 16.542969 1.574219 L 16.644531 1.441406 L 16.753906 1.316406 L 16.867188 1.195312 L 16.992188 1.082031 L 17.117188 0.976562 L 17.253906 0.875 L 17.390625 0.78125 L 17.539062 0.691406 L 17.6875 0.613281 L 17.847656 0.539062 L 18.003906 0.472656 L 18.171875 0.414062 L 18.34375 0.363281 L 18.519531 0.316406 L 18.699219 0.28125 L 18.882812 0.253906 L 19.070312 0.234375 L 19.265625 0.222656 Z M 23.058594 0.21875 L 23.058594 0.523438 L 21.820312 0.523438 L 21.710938 0.519531 L 21.261719 0.519531 L 21.148438 0.523438 L 19.457031 0.523438 L 19.457031 0.21875 L 19.910156 0.21875 L 20.023438 0.214844 L 22.722656 0.214844 L 22.835938 0.21875 Z M 26.589844 3.664062 L 26.277344 3.664062 L 26.277344 3.667969 L 26.273438 3.496094 L 26.265625 3.328125 L 26.242188 3.160156 L 26.214844 3 L 26.183594 2.84375 L 26.140625 2.6875 L 26.089844 2.539062 L 26.035156 2.394531 L 25.976562 2.253906 L 25.90625 2.117188 L 25.832031 1.988281 L 25.753906 1.863281 L 25.664062 1.738281 L 25.574219 1.621094 L 25.371094 1.402344 L 25.261719 1.304688 L 25.027344 1.117188 L 24.902344 1.039062 L 24.773438 0.957031 L 24.636719 0.886719 L 24.5 0.820312 L 24.355469 0.757812 L 24.207031 0.707031 L 24.054688 0.660156 L 23.898438 0.617188 L 23.738281 0.585938 L 23.570312 0.558594 L 23.402344 0.539062 L 23.234375 0.527344 L 23.058594 0.523438 L 23.058594 0.21875 L 23.246094 0.222656 L 23.429688 0.238281 L 23.613281 0.257812 L 23.792969 0.285156 L 23.96875 0.320312 L 24.140625 0.363281 L 24.304688 0.417969 L 24.46875 0.476562 L 24.628906 0.539062 L 24.777344 0.613281 L 24.925781 0.691406 L 25.070312 0.78125 L 25.210938 0.871094 L 25.339844 0.96875 L 25.464844 1.074219 L 25.585938 1.1875 L 25.703125 1.304688 L 25.8125 1.429688 L 25.914062 1.558594 L 26.011719 1.695312 L 26.097656 1.832031 L 26.179688 1.980469 L 26.253906 2.128906 L 26.324219 2.28125 L 26.382812 2.441406 L 26.4375 2.605469 L 26.484375 2.773438 L 26.519531 2.941406 L 26.550781 3.117188 L 26.570312 3.300781 L 26.582031 3.480469 L 26.589844 3.664062 L 26.589844 3.667969 Z M 26.589844 3.664062 Z M 26.589844 23.933594 L 26.277344 23.929688 L 26.277344 23.933594 L 26.28125 23.296875 L 26.28125 20.761719 L 26.285156 20.132812 L 26.285156 16.332031 L 26.289062 15.699219 L 26.289062 11.902344 L 26.285156 11.265625 L 26.285156 7.46875 L 26.28125 6.835938 L 26.28125 4.300781 L 26.277344 3.667969 L 26.589844 3.667969 L 26.59375 4.300781 L 26.59375 6.835938 L 26.597656 7.46875 L 26.597656 20.132812 L 26.59375 20.761719 L 26.59375 23.296875 Z M 26.589844 23.933594 Z M 23.058594 27.378906 L 23.058594 27.074219 L 23.234375 27.070312 L 23.402344 27.058594 L 23.570312 27.039062 L 23.738281 27.011719 L 23.898438 26.980469 L 24.054688 26.941406 L 24.207031 26.890625 L 24.355469 26.839844 L 24.5 26.777344 L 24.636719 26.710938 L 24.773438 26.640625 L 24.902344 26.5625 L 25.027344 26.480469 L 25.144531 26.390625 L 25.261719 26.292969 L 25.371094 26.195312 L 25.574219 25.976562 L 25.664062 25.859375 L 25.753906 25.734375 L 25.832031 25.613281 L 25.90625 25.476562 L 25.976562 25.34375 L 26.035156 25.203125 L 26.089844 25.058594 L 26.140625 24.910156 L 26.183594 24.753906 L 26.214844 24.59375 L 26.242188 24.4375 L 26.265625 24.269531 L 26.273438 24.101562 L 26.277344 23.933594 L 26.589844 23.933594 L 26.585938 24.117188 L 26.570312 24.300781 L 26.550781 24.480469 L 26.523438 24.65625 L 26.484375 24.824219 L 26.4375 24.992188 L 26.382812 25.15625 L 26.324219 25.316406 L 26.257812 25.46875 L 26.179688 25.617188 L 26.097656 25.765625 L 26.011719 25.902344 L 25.914062 26.039062 L 25.8125 26.167969 L 25.703125 26.292969 L 25.589844 26.410156 L 25.464844 26.523438 L 25.339844 26.628906 L 25.210938 26.726562 L 25.070312 26.816406 L 24.925781 26.90625 L 24.777344 26.984375 L 24.628906 27.058594 L 24.46875 27.125 L 24.140625 27.234375 L 23.972656 27.28125 L 23.792969 27.316406 L 23.617188 27.34375 L 23.433594 27.363281 L 23.246094 27.375 Z M 19.402344 27.378906 L 19.402344 27.074219 L 20.316406 27.074219 L 20.433594 27.078125 L 22.03125 27.078125 L 22.144531 27.074219 L 23.058594 27.074219 L 23.058594 27.378906 L 22.828125 27.378906 L 22.714844 27.382812 L 19.742188 27.382812 L 19.632812 27.378906 Z M 15.878906 23.898438 L 16.1875 23.898438 L 16.191406 24.074219 L 16.203125 24.242188 L 16.222656 24.410156 L 16.246094 24.574219 L 16.28125 24.734375 L 16.324219 24.886719 L 16.371094 25.035156 L 16.425781 25.183594 L 16.488281 25.324219 L 16.554688 25.464844 L 16.628906 25.59375 L 16.710938 25.722656 L 16.792969 25.84375 L 16.886719 25.964844 L 16.984375 26.078125 L 17.085938 26.183594 L 17.195312 26.285156 L 17.429688 26.472656 L 17.554688 26.558594 L 17.683594 26.632812 L 17.816406 26.707031 L 17.957031 26.777344 L 18.101562 26.835938 L 18.25 26.890625 L 18.402344 26.9375 L 18.558594 26.976562 L 18.722656 27.011719 L 18.886719 27.035156 L 19.054688 27.058594 L 19.230469 27.070312 L 19.402344 27.070312 L 19.402344 27.378906 L 19.027344 27.363281 L 18.84375 27.339844 L 18.664062 27.3125 L 18.488281 27.273438 L 18.320312 27.230469 L 18.148438 27.179688 L 17.988281 27.117188 L 17.832031 27.054688 L 17.675781 26.980469 L 17.527344 26.898438 L 17.386719 26.8125 L 17.25 26.71875 L 17.117188 26.617188 L 16.988281 26.511719 L 16.867188 26.398438 L 16.753906 26.28125 L 16.644531 26.15625 L 16.542969 26.023438 L 16.453125 25.890625 L 16.363281 25.75 L 16.277344 25.605469 L 16.207031 25.453125 L 16.136719 25.296875 L 16.078125 25.136719 L 16.023438 24.972656 L 15.984375 24.804688 L 15.945312 24.628906 L 15.914062 24.449219 L 15.894531 24.269531 L 15.878906 24.085938 Z M 15.878906 13.765625 L 16.1875 13.765625 L 16.1875 23.898438 L 15.878906 23.898438 Z M 15.878906 13.765625 "/>
<path style="fill-rule:nonzero;fill:rgb(92.941176%,41.176471%,36.078431%);fill-opacity:1;stroke-width:10.08;stroke-linecap:butt;stroke-linejoin:miter;stroke:rgb(92.941176%,41.176471%,36.078431%);stroke-opacity:1;stroke-miterlimit:22.9256;" d="M 22.728009 189.132349 C 22.728009 235.304267 22.728009 281.476185 22.780723 327.648103 C 22.780723 344.949181 33.639698 355.822614 50.982431 355.876178 C 67.112754 355.929741 83.348504 355.929741 99.53154 355.876178 C 116.926987 355.822614 127.996816 344.78849 127.996816 327.32672 C 127.996816 235.250703 127.996816 143.228249 127.996816 51.25936 C 127.996816 33.529772 116.9797 22.602775 99.215259 22.549211 C 83.559358 22.495647 68.061597 22.924157 52.352981 22.442084 C 34.852108 21.799319 22.306302 34.172536 22.675296 52.27707 C 23.149717 97.913351 22.780723 143.549632 22.780723 189.132349 Z M 145.497689 189.185913 C 145.497689 235.036448 145.497689 280.940548 145.497689 326.791083 C 145.497689 354.804903 126.889833 373.337947 98.846265 373.337947 C 82.821369 373.337947 66.74376 373.391511 50.718864 373.337947 C 24.309414 373.284383 5.174423 354.590649 5.068996 328.18374 C 5.016282 235.572085 5.016282 142.960431 5.068996 50.348777 C 5.068996 23.888304 24.203987 5.141005 50.613437 5.087442 C 67.218181 5.033878 83.770212 5.033878 100.322242 5.087442 C 126.520839 5.194569 145.392262 24.102559 145.497689 50.241649 C 145.497689 96.520694 145.497689 142.79974 145.497689 189.185913 Z M 145.497689 189.185913 " transform="matrix(0.0741034,0,0,0.0729272,1.354839,0.0000809999)"/>
<path style=" stroke:none;fill-rule:nonzero;fill:rgb(92.941176%,41.176471%,36.078431%);fill-opacity:1;" d="M 3.039062 13.792969 C 3.039062 17.160156 3.039062 20.527344 3.042969 23.894531 C 3.042969 25.15625 3.847656 25.949219 5.132812 25.953125 C 6.328125 25.957031 7.53125 25.957031 8.730469 25.953125 C 10.019531 25.949219 10.839844 25.144531 10.839844 23.871094 C 10.839844 17.15625 10.839844 10.445312 10.839844 3.738281 C 10.839844 2.445312 10.023438 1.648438 8.707031 1.644531 C 7.546875 1.640625 6.398438 1.671875 5.234375 1.636719 C 3.9375 1.589844 3.007812 2.492188 3.035156 3.8125 C 3.070312 7.140625 3.042969 10.46875 3.042969 13.792969 Z M 12.136719 13.796875 C 12.136719 17.140625 12.136719 20.488281 12.136719 23.832031 C 12.136719 25.875 10.757812 27.226562 8.679688 27.226562 C 7.492188 27.226562 6.300781 27.230469 5.113281 27.226562 C 3.15625 27.222656 1.738281 25.859375 1.730469 23.933594 C 1.726562 17.179688 1.726562 10.425781 1.730469 3.671875 C 1.730469 1.742188 3.148438 0.375 5.105469 0.371094 C 6.335938 0.367188 7.5625 0.367188 8.789062 0.371094 C 10.730469 0.378906 12.128906 1.757812 12.136719 3.664062 C 12.136719 7.039062 12.136719 10.414062 12.136719 13.796875 Z M 12.136719 13.796875 "/>
<path style=" stroke:none;fill-rule:nonzero;fill:rgb(92.941176%,41.176471%,36.078431%);fill-opacity:1;" d="M 3.203125 23.894531 L 2.894531 23.894531 L 2.890625 23.578125 L 2.890625 22.316406 L 2.886719 22 L 2.886719 20.421875 L 2.882812 20.105469 L 2.882812 18.210938 L 2.878906 17.894531 L 2.878906 13.792969 L 3.191406 13.792969 L 3.191406 20.105469 L 3.195312 20.421875 L 3.195312 22 L 3.199219 22.316406 L 3.199219 23.578125 Z M 3.203125 23.894531 Z M 5.132812 25.796875 L 5.132812 26.105469 L 5.007812 26.101562 L 4.765625 26.085938 L 4.648438 26.066406 L 4.535156 26.042969 L 4.425781 26.015625 L 4.316406 25.984375 L 4.210938 25.949219 L 4.109375 25.910156 L 4.011719 25.867188 L 3.917969 25.816406 L 3.824219 25.757812 L 3.738281 25.703125 L 3.65625 25.640625 L 3.574219 25.574219 L 3.5 25.503906 L 3.425781 25.429688 L 3.359375 25.347656 L 3.296875 25.265625 L 3.234375 25.179688 L 3.183594 25.089844 L 3.132812 24.996094 L 3.085938 24.898438 L 3.042969 24.800781 L 3.007812 24.699219 L 2.976562 24.589844 L 2.953125 24.480469 L 2.933594 24.371094 L 2.914062 24.253906 L 2.898438 24.136719 L 2.890625 23.894531 L 3.199219 23.894531 L 3.203125 24.003906 L 3.210938 24.113281 L 3.234375 24.316406 L 3.257812 24.414062 L 3.277344 24.511719 L 3.304688 24.601562 L 3.335938 24.691406 L 3.371094 24.777344 L 3.410156 24.859375 L 3.453125 24.9375 L 3.5 25.015625 L 3.601562 25.15625 L 3.660156 25.222656 L 3.71875 25.285156 L 3.78125 25.34375 L 3.847656 25.398438 L 3.917969 25.453125 L 3.992188 25.503906 L 4.148438 25.589844 L 4.234375 25.628906 L 4.410156 25.691406 L 4.503906 25.722656 L 4.699219 25.761719 L 4.804688 25.777344 L 4.910156 25.789062 L 5.019531 25.792969 Z M 5.132812 25.796875 Z M 8.730469 25.796875 L 8.730469 26.105469 L 8.507812 26.105469 L 8.394531 26.109375 L 7.601562 26.109375 L 7.492188 26.113281 L 6.140625 26.113281 L 6.027344 26.109375 L 5.464844 26.109375 L 5.351562 26.105469 L 5.125 26.105469 L 5.125 25.796875 L 5.238281 25.800781 L 5.691406 25.800781 L 5.804688 25.804688 L 7.941406 25.804688 L 8.054688 25.800781 L 8.617188 25.800781 Z M 10.683594 23.871094 L 10.992188 23.871094 L 10.992188 23.996094 L 10.984375 24.117188 L 10.953125 24.351562 L 10.929688 24.464844 L 10.902344 24.578125 L 10.871094 24.683594 L 10.835938 24.789062 L 10.792969 24.886719 L 10.746094 24.988281 L 10.699219 25.082031 L 10.640625 25.175781 L 10.582031 25.257812 L 10.519531 25.34375 L 10.449219 25.421875 L 10.375 25.5 L 10.300781 25.570312 L 10.222656 25.636719 L 10.136719 25.699219 L 10.046875 25.757812 L 9.957031 25.8125 L 9.863281 25.863281 L 9.757812 25.90625 L 9.65625 25.949219 L 9.550781 25.984375 L 9.441406 26.015625 L 9.332031 26.042969 L 9.214844 26.066406 L 9.097656 26.085938 L 8.980469 26.09375 L 8.855469 26.105469 L 8.730469 26.105469 L 8.730469 25.800781 L 8.949219 25.792969 L 9.058594 25.78125 L 9.265625 25.746094 L 9.363281 25.722656 L 9.546875 25.664062 L 9.636719 25.628906 L 9.71875 25.589844 L 9.800781 25.546875 L 9.878906 25.503906 L 9.953125 25.453125 L 10.023438 25.398438 L 10.089844 25.34375 L 10.15625 25.285156 L 10.21875 25.21875 L 10.273438 25.152344 L 10.328125 25.082031 L 10.378906 25.007812 L 10.425781 24.929688 L 10.46875 24.851562 L 10.507812 24.769531 L 10.542969 24.679688 L 10.574219 24.589844 L 10.601562 24.5 L 10.644531 24.300781 L 10.660156 24.199219 L 10.671875 24.09375 L 10.679688 23.984375 L 10.679688 23.871094 Z M 10.683594 3.738281 L 10.992188 3.738281 L 10.992188 23.875 L 10.683594 23.875 Z M 8.707031 1.800781 L 8.707031 1.492188 L 8.835938 1.496094 L 8.960938 1.503906 L 9.203125 1.53125 L 9.316406 1.550781 L 9.542969 1.613281 L 9.648438 1.648438 L 9.753906 1.691406 L 9.855469 1.734375 L 9.949219 1.785156 L 10.042969 1.839844 L 10.128906 1.898438 L 10.21875 1.960938 L 10.296875 2.027344 L 10.371094 2.097656 L 10.519531 2.253906 L 10.582031 2.339844 L 10.640625 2.425781 L 10.699219 2.519531 L 10.746094 2.609375 L 10.792969 2.710938 L 10.835938 2.8125 L 10.871094 2.917969 L 10.902344 3.027344 L 10.929688 3.136719 L 10.953125 3.253906 L 10.984375 3.488281 L 10.992188 3.613281 L 10.992188 3.738281 L 10.683594 3.738281 L 10.679688 3.625 L 10.671875 3.515625 L 10.664062 3.410156 L 10.648438 3.300781 L 10.628906 3.199219 L 10.601562 3.105469 L 10.574219 3.007812 L 10.542969 2.921875 L 10.507812 2.832031 L 10.46875 2.75 L 10.425781 2.671875 L 10.378906 2.59375 L 10.328125 2.519531 L 10.273438 2.449219 L 10.21875 2.382812 L 10.152344 2.316406 L 10.089844 2.257812 L 10.023438 2.203125 L 9.875 2.097656 L 9.796875 2.050781 L 9.714844 2.007812 L 9.539062 1.9375 L 9.449219 1.90625 L 9.253906 1.851562 L 9.152344 1.835938 L 9.042969 1.820312 L 8.9375 1.804688 L 8.824219 1.804688 Z M 8.707031 1.800781 L 8.710938 1.800781 Z M 5.230469 1.789062 L 5.242188 1.480469 L 5.347656 1.484375 L 5.566406 1.492188 L 5.671875 1.496094 L 5.78125 1.496094 L 5.890625 1.5 L 5.996094 1.5 L 6.105469 1.503906 L 6.433594 1.503906 L 6.542969 1.507812 L 6.648438 1.503906 L 7.191406 1.503906 L 7.300781 1.5 L 7.625 1.5 L 7.734375 1.496094 L 8.167969 1.496094 L 8.277344 1.492188 L 8.714844 1.492188 L 8.714844 1.800781 L 8.0625 1.800781 L 7.953125 1.804688 L 7.085938 1.804688 L 6.976562 1.808594 L 6.214844 1.808594 L 6.105469 1.804688 L 5.777344 1.804688 L 5.667969 1.800781 L 5.558594 1.800781 Z M 3.191406 3.8125 L 2.878906 3.8125 L 2.878906 3.816406 L 2.878906 3.6875 L 2.886719 3.558594 L 2.898438 3.4375 L 2.917969 3.3125 L 2.9375 3.195312 L 2.96875 3.082031 L 3.003906 2.96875 L 3.042969 2.855469 L 3.085938 2.75 L 3.136719 2.644531 L 3.191406 2.546875 L 3.25 2.449219 L 3.3125 2.355469 L 3.378906 2.269531 L 3.453125 2.183594 L 3.53125 2.105469 L 3.613281 2.027344 L 3.699219 1.957031 L 3.789062 1.890625 L 3.882812 1.832031 L 3.976562 1.769531 L 4.078125 1.71875 L 4.179688 1.671875 L 4.289062 1.628906 L 4.398438 1.589844 L 4.511719 1.558594 L 4.625 1.535156 L 4.746094 1.511719 L 4.988281 1.488281 L 5.117188 1.480469 L 5.242188 1.484375 L 5.230469 1.789062 L 5.121094 1.789062 L 5.007812 1.792969 L 4.792969 1.8125 L 4.6875 1.835938 L 4.589844 1.855469 L 4.492188 1.882812 L 4.394531 1.914062 L 4.304688 1.949219 L 4.214844 1.992188 L 4.132812 2.035156 L 4.046875 2.085938 L 3.96875 2.136719 L 3.890625 2.195312 L 3.75 2.320312 L 3.683594 2.386719 L 3.625 2.460938 L 3.5625 2.535156 L 3.511719 2.613281 L 3.457031 2.695312 L 3.410156 2.785156 L 3.371094 2.871094 L 3.332031 2.964844 L 3.300781 3.058594 L 3.265625 3.15625 L 3.242188 3.261719 L 3.222656 3.363281 L 3.207031 3.472656 L 3.195312 3.582031 L 3.191406 3.695312 Z M 3.191406 3.808594 L 3.191406 3.8125 Z M 3.195312 13.792969 L 2.886719 13.792969 L 2.886719 12.855469 L 2.890625 12.546875 L 2.890625 11.296875 L 2.894531 10.988281 L 2.894531 10.050781 L 2.898438 9.738281 L 2.898438 5.996094 L 2.894531 5.683594 L 2.894531 5.375 L 2.890625 5.0625 L 2.890625 4.75 L 2.882812 4.128906 L 2.878906 3.8125 L 3.191406 3.808594 L 3.191406 4.125 L 3.195312 4.433594 L 3.199219 4.75 L 3.199219 5.058594 L 3.203125 5.375 L 3.203125 5.683594 L 3.207031 5.996094 L 3.207031 6.933594 L 3.210938 7.242188 L 3.210938 8.179688 L 3.207031 8.492188 L 3.207031 9.738281 L 3.203125 10.050781 L 3.203125 10.988281 L 3.199219 11.300781 L 3.199219 12.546875 L 3.195312 12.855469 Z M 12.292969 23.832031 L 11.980469 23.832031 L 11.980469 13.800781 L 12.292969 13.800781 Z M 8.679688 27.378906 L 8.679688 27.074219 L 8.867188 27.070312 L 9.050781 27.058594 L 9.226562 27.039062 L 9.398438 27.015625 L 9.570312 26.980469 L 9.730469 26.941406 L 9.890625 26.894531 L 10.042969 26.839844 L 10.191406 26.78125 L 10.335938 26.714844 L 10.472656 26.640625 L 10.605469 26.5625 L 10.734375 26.480469 L 10.96875 26.292969 L 11.078125 26.1875 L 11.183594 26.082031 L 11.285156 25.96875 L 11.375 25.847656 L 11.464844 25.722656 L 11.539062 25.59375 L 11.613281 25.457031 L 11.683594 25.320312 L 11.746094 25.171875 L 11.800781 25.023438 L 11.847656 24.867188 L 11.890625 24.703125 L 11.921875 24.539062 L 11.949219 24.371094 L 11.96875 24.195312 L 11.980469 24.015625 L 11.984375 23.832031 L 12.296875 23.832031 L 12.289062 24.03125 L 12.277344 24.222656 L 12.257812 24.410156 L 12.230469 24.589844 L 12.191406 24.773438 L 12.148438 24.945312 L 12.09375 25.117188 L 12.035156 25.28125 L 11.96875 25.441406 L 11.894531 25.59375 L 11.8125 25.746094 L 11.722656 25.890625 L 11.628906 26.027344 L 11.527344 26.160156 L 11.417969 26.285156 L 11.300781 26.40625 L 11.175781 26.519531 L 11.046875 26.628906 L 10.914062 26.726562 L 10.773438 26.820312 L 10.628906 26.910156 L 10.476562 26.988281 L 10.316406 27.0625 L 10.152344 27.128906 L 9.984375 27.183594 L 9.8125 27.238281 L 9.636719 27.28125 L 9.453125 27.316406 L 9.265625 27.34375 L 9.074219 27.363281 L 8.878906 27.375 L 8.679688 27.382812 Z M 5.113281 27.378906 L 5.113281 27.070312 L 5.226562 27.074219 L 8.683594 27.074219 L 8.683594 27.382812 L 5.667969 27.382812 L 5.558594 27.378906 Z M 1.582031 23.933594 L 1.890625 23.933594 L 1.894531 24.105469 L 1.90625 24.273438 L 1.925781 24.4375 L 1.953125 24.597656 L 1.988281 24.757812 L 2.027344 24.910156 L 2.078125 25.058594 L 2.132812 25.203125 L 2.195312 25.34375 L 2.265625 25.480469 L 2.339844 25.613281 L 2.421875 25.738281 L 2.503906 25.859375 L 2.601562 25.976562 L 2.699219 26.085938 L 2.800781 26.195312 L 2.910156 26.296875 L 3.027344 26.390625 L 3.148438 26.480469 L 3.269531 26.5625 L 3.402344 26.640625 L 3.535156 26.710938 L 3.671875 26.777344 L 3.816406 26.839844 L 3.964844 26.890625 L 4.117188 26.941406 L 4.273438 26.980469 L 4.433594 27.011719 L 4.597656 27.039062 L 4.765625 27.058594 L 4.9375 27.070312 L 5.113281 27.074219 L 5.113281 27.378906 L 4.925781 27.375 L 4.738281 27.363281 L 4.554688 27.34375 L 4.378906 27.316406 L 4.203125 27.277344 L 4.03125 27.234375 L 3.703125 27.125 L 3.546875 27.058594 L 3.394531 26.984375 L 3.246094 26.90625 L 3.101562 26.816406 L 2.964844 26.726562 L 2.832031 26.628906 L 2.707031 26.523438 L 2.585938 26.410156 L 2.46875 26.292969 L 2.359375 26.167969 L 2.257812 26.042969 L 2.164062 25.90625 L 2.074219 25.765625 L 1.988281 25.621094 L 1.914062 25.46875 L 1.847656 25.320312 L 1.785156 25.160156 L 1.730469 24.992188 L 1.691406 24.828125 L 1.652344 24.65625 L 1.621094 24.480469 L 1.597656 24.300781 L 1.585938 24.117188 Z M 1.582031 23.933594 Z M 1.582031 3.671875 L 1.890625 3.671875 L 1.886719 4.304688 L 1.886719 6.835938 L 1.882812 7.46875 L 1.882812 10.003906 L 1.878906 10.636719 L 1.878906 16.96875 L 1.882812 17.601562 L 1.882812 20.136719 L 1.886719 20.765625 L 1.886719 23.300781 L 1.890625 23.933594 L 1.582031 23.933594 L 1.578125 23.300781 L 1.578125 20.765625 L 1.574219 20.136719 L 1.574219 17.601562 L 1.570312 16.96875 L 1.570312 10.636719 L 1.574219 10.003906 L 1.574219 7.46875 L 1.578125 6.835938 L 1.578125 4.304688 Z M 1.890625 3.671875 Z M 5.105469 0.21875 L 5.105469 0.523438 L 4.929688 0.527344 L 4.757812 0.539062 L 4.589844 0.558594 L 4.429688 0.585938 L 4.265625 0.617188 L 4.109375 0.65625 L 3.957031 0.707031 L 3.808594 0.757812 L 3.664062 0.820312 L 3.527344 0.886719 L 3.394531 0.957031 L 3.261719 1.035156 L 3.140625 1.117188 L 3.019531 1.210938 L 2.902344 1.304688 L 2.792969 1.40625 L 2.691406 1.511719 L 2.59375 1.625 L 2.496094 1.742188 L 2.414062 1.863281 L 2.332031 1.988281 L 2.257812 2.125 L 2.191406 2.257812 L 2.128906 2.398438 L 2.074219 2.542969 L 2.023438 2.691406 L 1.988281 2.847656 L 1.949219 3.003906 L 1.921875 3.164062 L 1.90625 3.332031 L 1.890625 3.496094 L 1.886719 3.667969 L 1.578125 3.667969 L 1.585938 3.480469 L 1.59375 3.300781 L 1.617188 3.121094 L 1.644531 2.945312 L 1.683594 2.777344 L 1.730469 2.605469 L 1.78125 2.445312 L 1.839844 2.285156 L 1.910156 2.132812 L 1.984375 1.980469 L 2.0625 1.835938 L 2.15625 1.695312 L 2.25 1.558594 L 2.351562 1.433594 L 2.460938 1.308594 L 2.574219 1.1875 L 2.695312 1.078125 L 2.824219 0.972656 L 2.957031 0.871094 L 3.09375 0.78125 L 3.234375 0.691406 L 3.382812 0.613281 L 3.539062 0.539062 L 3.695312 0.476562 L 3.855469 0.417969 L 4.027344 0.363281 L 4.195312 0.320312 L 4.367188 0.28125 L 4.546875 0.253906 L 4.914062 0.222656 Z M 8.789062 0.21875 L 8.789062 0.523438 L 8.441406 0.523438 L 8.332031 0.519531 L 5.796875 0.519531 L 5.679688 0.523438 L 5.101562 0.523438 L 5.101562 0.21875 L 5.21875 0.214844 L 6.027344 0.214844 L 6.144531 0.210938 L 7.984375 0.210938 L 8.101562 0.214844 L 8.671875 0.214844 Z M 12.292969 3.664062 L 11.980469 3.664062 L 11.976562 3.492188 L 11.964844 3.328125 L 11.945312 3.160156 L 11.917969 3.003906 L 11.886719 2.847656 L 11.84375 2.695312 L 11.792969 2.542969 L 11.742188 2.398438 L 11.679688 2.261719 L 11.613281 2.128906 L 11.539062 1.992188 L 11.457031 1.871094 L 11.371094 1.746094 L 11.28125 1.628906 L 11.179688 1.515625 L 11.078125 1.410156 L 10.96875 1.308594 L 10.855469 1.214844 L 10.738281 1.121094 L 10.613281 1.039062 L 10.484375 0.960938 L 10.351562 0.886719 L 10.214844 0.820312 L 10.074219 0.757812 L 9.925781 0.707031 L 9.773438 0.660156 L 9.617188 0.617188 L 9.460938 0.585938 L 9.296875 0.558594 L 9.132812 0.539062 L 8.960938 0.527344 L 8.789062 0.523438 L 8.789062 0.214844 L 8.976562 0.222656 L 9.160156 0.234375 L 9.339844 0.253906 L 9.519531 0.285156 L 9.691406 0.320312 L 9.863281 0.367188 L 10.027344 0.417969 L 10.1875 0.476562 L 10.339844 0.542969 L 10.496094 0.617188 L 10.640625 0.695312 L 10.78125 0.785156 L 10.917969 0.875 L 11.050781 0.976562 L 11.175781 1.082031 L 11.296875 1.195312 L 11.410156 1.3125 L 11.519531 1.4375 L 11.617188 1.566406 L 11.714844 1.699219 L 11.800781 1.839844 L 11.882812 1.984375 L 11.960938 2.132812 L 12.027344 2.285156 L 12.085938 2.445312 L 12.140625 2.605469 L 12.183594 2.773438 L 12.222656 2.941406 L 12.25 3.117188 L 12.269531 3.296875 L 12.285156 3.476562 L 12.292969 3.660156 Z M 12.292969 3.664062 Z M 12.292969 13.796875 L 11.980469 13.796875 L 11.980469 3.664062 L 12.292969 3.664062 Z M 12.292969 13.796875 "/>
</g>
</svg>
