<?xml version="1.0" encoding="UTF-8"?>
<svg xmlns="http://www.w3.org/2000/svg" xmlns:xlink="http://www.w3.org/1999/xlink" width="28px" height="28px" viewBox="0 0 28 31" version="1.1">
<g id="surface1">
<path style="fill-rule:nonzero;fill:rgb(92.941176%,41.176471%,36.078431%);fill-opacity:1;stroke-width:10.08;stroke-linecap:butt;stroke-linejoin:miter;stroke:rgb(92.941176%,41.176471%,36.078431%);stroke-opacity:1;stroke-miterlimit:22.9256;" d="M 320.763284 189.310309 C 320.763284 143.155672 320.858508 97.001035 320.763284 50.798018 C 320.763284 33.429554 309.907706 22.592407 292.576871 22.544026 C 276.436341 22.495646 260.29581 22.495646 244.060055 22.544026 C 226.633996 22.592407 215.587969 33.526314 215.587969 51.039919 C 215.587969 143.204052 215.492745 235.368185 215.587969 327.580699 C 215.587969 344.755642 226.72922 355.78631 243.821995 355.83469 C 260.200586 355.931451 276.436341 355.931451 292.76732 355.78631 C 295.719275 355.78631 298.766455 355.496029 301.71841 354.721948 C 313.621456 351.383719 320.715672 341.369034 320.715672 327.774219 C 320.810896 281.619582 320.715672 235.464946 320.715672 189.310309 Z M 198.066686 188.778127 C 198.066686 143.058912 198.066686 97.291316 198.066686 51.52372 C 198.066686 23.705149 216.68305 5.078802 244.345729 5.078802 C 260.581483 5.030422 276.722014 5.030422 292.862544 5.078802 C 319.382531 5.127182 338.379792 23.80191 338.475016 50.265837 C 338.570241 142.913771 338.570241 235.513326 338.475016 328.11288 C 338.379792 354.576807 319.382531 373.299915 292.862544 373.348295 C 276.436341 373.396675 260.010137 373.396675 243.536321 373.348295 C 216.968723 373.299915 198.066686 354.383287 198.066686 327.725839 C 198.066686 281.426062 198.066686 235.077905 198.066686 188.778127 Z M 198.066686 188.778127 " transform="matrix(0.0820431,0,0,0.0807408,0,0.0000896785)"/>
<path style=" stroke:none;fill-rule:nonzero;fill:rgb(92.941176%,41.176471%,36.078431%);fill-opacity:1;" d="M 26.316406 15.285156 C 26.316406 11.558594 26.324219 7.832031 26.316406 4.101562 C 26.316406 2.699219 25.425781 1.824219 24.003906 1.820312 C 22.679688 1.816406 21.355469 1.816406 20.023438 1.820312 C 18.59375 1.824219 17.6875 2.707031 17.6875 4.121094 C 17.6875 11.5625 17.679688 19.003906 17.6875 26.449219 C 17.6875 27.835938 18.601562 28.726562 20.003906 28.730469 C 21.347656 28.738281 22.679688 28.738281 24.019531 28.726562 C 24.261719 28.726562 24.511719 28.703125 24.753906 28.640625 C 25.730469 28.371094 26.3125 27.5625 26.3125 26.464844 C 26.320312 22.738281 26.3125 19.011719 26.3125 15.285156 Z M 16.25 15.242188 C 16.25 11.550781 16.25 7.855469 16.25 4.160156 C 16.25 1.914062 17.777344 0.410156 20.046875 0.410156 C 21.378906 0.40625 22.703125 0.40625 24.027344 0.410156 C 26.203125 0.414062 27.761719 1.921875 27.769531 4.058594 C 27.777344 11.539062 27.777344 19.015625 27.769531 26.492188 C 27.761719 28.628906 26.203125 30.140625 24.027344 30.144531 C 22.679688 30.148438 21.332031 30.148438 19.980469 30.144531 C 17.800781 30.140625 16.25 28.613281 16.25 26.460938 C 16.25 22.722656 16.25 18.980469 16.25 15.242188 Z M 16.25 15.242188 "/>
<path style=" stroke:none;fill-rule:nonzero;fill:rgb(92.941176%,41.176471%,36.078431%);fill-opacity:1;" d="M 26.140625 4.105469 L 26.484375 4.105469 L 26.484375 4.101562 L 26.488281 4.453125 L 26.488281 5.851562 L 26.492188 6.199219 L 26.492188 10.046875 L 26.488281 10.394531 L 26.488281 13.191406 L 26.484375 13.542969 L 26.484375 15.289062 L 26.140625 15.289062 L 26.140625 13.542969 L 26.144531 13.191406 L 26.144531 10.394531 L 26.148438 10.046875 L 26.148438 6.199219 L 26.144531 5.851562 L 26.144531 4.453125 L 26.140625 4.105469 L 26.140625 4.101562 Z M 26.140625 4.105469 Z M 24.003906 1.992188 L 24.003906 1.652344 L 24.144531 1.65625 L 24.277344 1.664062 L 24.410156 1.675781 L 24.542969 1.695312 L 24.667969 1.71875 L 24.789062 1.75 L 24.910156 1.785156 L 25.027344 1.824219 L 25.140625 1.867188 L 25.246094 1.917969 L 25.351562 1.972656 L 25.453125 2.03125 L 25.550781 2.097656 L 25.644531 2.164062 L 25.730469 2.238281 L 25.816406 2.316406 L 25.972656 2.488281 L 26.039062 2.578125 L 26.105469 2.675781 L 26.164062 2.773438 L 26.222656 2.878906 L 26.269531 2.984375 L 26.316406 3.097656 L 26.355469 3.210938 L 26.390625 3.328125 L 26.421875 3.449219 L 26.445312 3.574219 L 26.464844 3.703125 L 26.476562 3.832031 L 26.484375 3.96875 L 26.488281 4.105469 L 26.144531 4.105469 L 26.140625 3.980469 L 26.136719 3.859375 L 26.121094 3.742188 L 26.105469 3.632812 L 26.085938 3.519531 L 26.058594 3.417969 L 26.027344 3.3125 L 25.992188 3.214844 L 25.957031 3.121094 L 25.914062 3.027344 L 25.867188 2.941406 L 25.816406 2.859375 L 25.761719 2.777344 L 25.699219 2.699219 L 25.636719 2.625 L 25.570312 2.558594 L 25.5 2.492188 L 25.425781 2.429688 L 25.351562 2.371094 L 25.269531 2.316406 L 25.183594 2.265625 L 25.09375 2.222656 L 25 2.179688 L 24.90625 2.140625 L 24.804688 2.105469 L 24.703125 2.078125 L 24.59375 2.050781 L 24.484375 2.03125 L 24.367188 2.011719 L 24.25 2 L 24.128906 1.992188 Z M 20.023438 1.992188 L 20.023438 1.652344 L 20.269531 1.652344 L 20.394531 1.648438 L 21.269531 1.648438 L 21.394531 1.644531 L 22.636719 1.644531 L 22.761719 1.648438 L 23.632812 1.648438 L 23.757812 1.652344 L 24.003906 1.652344 L 24.003906 1.992188 L 23.882812 1.988281 L 23.382812 1.988281 L 23.257812 1.984375 L 20.769531 1.984375 L 20.644531 1.988281 L 20.148438 1.988281 Z M 17.859375 4.121094 L 17.515625 4.121094 L 17.519531 3.984375 L 17.527344 3.851562 L 17.542969 3.71875 L 17.5625 3.589844 L 17.585938 3.464844 L 17.617188 3.34375 L 17.652344 3.222656 L 17.691406 3.109375 L 17.738281 2.996094 L 17.789062 2.890625 L 17.84375 2.785156 L 17.90625 2.683594 L 17.972656 2.589844 L 18.042969 2.496094 L 18.117188 2.410156 L 18.199219 2.324219 L 18.285156 2.246094 L 18.375 2.171875 L 18.46875 2.101562 L 18.566406 2.039062 L 18.667969 1.976562 L 18.773438 1.921875 L 18.882812 1.871094 L 18.996094 1.828125 L 19.113281 1.789062 L 19.234375 1.753906 L 19.355469 1.722656 L 19.484375 1.699219 L 19.613281 1.679688 L 19.746094 1.664062 L 19.882812 1.65625 L 20.023438 1.652344 L 20.023438 1.992188 L 19.898438 1.996094 L 19.777344 2.003906 L 19.65625 2.015625 L 19.542969 2.03125 L 19.429688 2.054688 L 19.320312 2.078125 L 19.214844 2.109375 L 19.113281 2.144531 L 18.925781 2.222656 L 18.832031 2.269531 L 18.746094 2.320312 L 18.664062 2.378906 L 18.585938 2.4375 L 18.511719 2.5 L 18.441406 2.5625 L 18.371094 2.632812 L 18.308594 2.707031 L 18.25 2.785156 L 18.140625 2.949219 L 18.09375 3.039062 L 18.050781 3.132812 L 18.011719 3.226562 L 17.976562 3.328125 L 17.945312 3.429688 L 17.921875 3.535156 L 17.898438 3.648438 L 17.882812 3.761719 L 17.867188 3.878906 Z M 17.859375 26.449219 L 17.515625 26.449219 L 17.515625 24.355469 L 17.511719 23.660156 L 17.511719 13.191406 L 17.515625 12.496094 L 17.515625 6.914062 L 17.519531 6.214844 L 17.519531 4.125 L 17.863281 4.125 L 17.863281 6.214844 L 17.859375 6.914062 L 17.859375 12.496094 L 17.855469 13.191406 L 17.855469 23.660156 L 17.859375 24.355469 Z M 17.859375 26.449219 Z M 20.007812 28.566406 L 20.003906 28.902344 L 20.007812 28.902344 L 19.871094 28.898438 L 19.734375 28.890625 L 19.601562 28.878906 L 19.472656 28.859375 L 19.347656 28.832031 L 19.226562 28.804688 L 19.105469 28.769531 L 18.992188 28.730469 L 18.878906 28.683594 L 18.769531 28.632812 L 18.664062 28.578125 L 18.5625 28.519531 L 18.464844 28.453125 L 18.371094 28.382812 L 18.285156 28.308594 L 18.199219 28.230469 L 18.121094 28.148438 L 18.042969 28.058594 L 17.972656 27.96875 L 17.90625 27.875 L 17.789062 27.671875 L 17.738281 27.5625 L 17.691406 27.453125 L 17.652344 27.339844 L 17.617188 27.21875 L 17.585938 27.101562 L 17.558594 26.976562 L 17.539062 26.847656 L 17.527344 26.71875 L 17.519531 26.585938 L 17.515625 26.449219 L 17.859375 26.449219 L 17.863281 26.570312 L 17.871094 26.691406 L 17.882812 26.804688 L 17.898438 26.917969 L 17.921875 27.027344 L 17.949219 27.132812 L 17.980469 27.234375 L 18.015625 27.332031 L 18.054688 27.429688 L 18.097656 27.519531 L 18.144531 27.605469 L 18.195312 27.691406 L 18.25 27.773438 L 18.308594 27.847656 L 18.375 27.921875 L 18.441406 27.992188 L 18.511719 28.058594 L 18.585938 28.121094 L 18.664062 28.179688 L 18.746094 28.234375 L 18.832031 28.285156 L 18.921875 28.332031 L 19.015625 28.375 L 19.113281 28.414062 L 19.210938 28.449219 L 19.421875 28.503906 L 19.53125 28.523438 L 19.648438 28.542969 L 19.765625 28.554688 L 19.886719 28.5625 Z M 20.007812 28.566406 L 20.003906 28.566406 Z M 24.019531 28.5625 L 24.019531 28.898438 L 23.894531 28.902344 L 23.394531 28.902344 L 23.265625 28.90625 L 22.640625 28.90625 L 22.511719 28.910156 L 21.007812 28.910156 L 20.882812 28.90625 L 20.253906 28.90625 L 20.128906 28.902344 L 20.003906 28.902344 L 20.003906 28.566406 L 20.507812 28.566406 L 20.632812 28.570312 L 22.890625 28.570312 L 23.015625 28.566406 L 23.515625 28.566406 L 23.640625 28.5625 Z M 24.019531 28.5625 Z M 24.707031 28.476562 L 24.800781 28.804688 L 24.796875 28.804688 L 24.773438 28.8125 L 24.75 28.816406 L 24.722656 28.824219 L 24.675781 28.832031 L 24.652344 28.839844 L 24.625 28.84375 L 24.578125 28.851562 L 24.554688 28.859375 L 24.527344 28.863281 L 24.480469 28.871094 L 24.457031 28.871094 L 24.433594 28.875 L 24.40625 28.878906 L 24.382812 28.882812 L 24.359375 28.882812 L 24.332031 28.886719 L 24.308594 28.890625 L 24.285156 28.890625 L 24.261719 28.894531 L 24.234375 28.894531 L 24.210938 28.898438 L 24.1875 28.898438 L 24.164062 28.902344 L 24.113281 28.902344 L 24.089844 28.90625 L 24.019531 28.90625 L 24.019531 28.566406 L 24.125 28.566406 L 24.148438 28.5625 L 24.167969 28.5625 L 24.191406 28.558594 L 24.234375 28.558594 L 24.257812 28.554688 L 24.277344 28.554688 L 24.324219 28.546875 L 24.34375 28.546875 L 24.367188 28.542969 L 24.386719 28.542969 L 24.410156 28.539062 L 24.429688 28.535156 L 24.476562 28.527344 L 24.496094 28.523438 L 24.519531 28.519531 L 24.539062 28.515625 L 24.5625 28.511719 L 24.601562 28.503906 L 24.625 28.5 L 24.648438 28.492188 L 24.6875 28.484375 L 24.710938 28.476562 Z M 24.800781 28.804688 L 24.796875 28.804688 L 24.808594 28.800781 Z M 26.140625 26.46875 L 26.484375 26.46875 L 26.484375 26.574219 L 26.46875 26.785156 L 26.457031 26.886719 L 26.441406 26.988281 L 26.421875 27.085938 L 26.398438 27.183594 L 26.34375 27.371094 L 26.273438 27.550781 L 26.234375 27.636719 L 26.191406 27.722656 L 26.144531 27.804688 L 26.09375 27.882812 L 26.039062 27.960938 L 25.984375 28.035156 L 25.925781 28.109375 L 25.863281 28.175781 L 25.730469 28.308594 L 25.65625 28.367188 L 25.585938 28.425781 L 25.507812 28.480469 L 25.425781 28.53125 L 25.261719 28.625 L 25.175781 28.667969 L 25.082031 28.707031 L 24.992188 28.742188 L 24.898438 28.773438 L 24.800781 28.800781 L 24.707031 28.476562 L 24.792969 28.453125 L 24.875 28.425781 L 24.953125 28.394531 L 25.03125 28.359375 L 25.105469 28.324219 L 25.246094 28.246094 L 25.3125 28.203125 L 25.378906 28.15625 L 25.441406 28.105469 L 25.5 28.054688 L 25.558594 28 L 25.613281 27.945312 L 25.714844 27.828125 L 25.761719 27.765625 L 25.847656 27.632812 L 25.925781 27.492188 L 25.957031 27.417969 L 26.019531 27.261719 L 26.066406 27.097656 L 26.085938 27.015625 L 26.105469 26.929688 L 26.128906 26.75 L 26.136719 26.65625 L 26.140625 26.5625 L 26.144531 26.464844 Z M 26.140625 26.46875 Z M 26.140625 15.285156 L 26.484375 15.285156 L 26.484375 17.03125 L 26.488281 17.382812 L 26.488281 20.179688 L 26.492188 20.527344 L 26.492188 24.371094 L 26.488281 24.722656 L 26.488281 26.121094 L 26.484375 26.46875 L 26.140625 26.46875 L 26.144531 26.121094 L 26.144531 24.722656 L 26.148438 24.371094 L 26.148438 20.527344 L 26.144531 20.179688 L 26.144531 17.382812 L 26.140625 17.03125 Z M 16.078125 4.160156 L 16.421875 4.160156 L 16.421875 15.246094 L 16.078125 15.246094 Z M 20.046875 0.242188 L 20.046875 0.578125 L 19.84375 0.582031 L 19.644531 0.597656 L 19.449219 0.617188 L 19.261719 0.648438 L 19.078125 0.683594 L 18.898438 0.726562 L 18.726562 0.777344 L 18.558594 0.839844 L 18.394531 0.90625 L 18.238281 0.980469 L 18.085938 1.058594 L 17.941406 1.148438 L 17.800781 1.242188 L 17.667969 1.34375 L 17.542969 1.449219 L 17.421875 1.5625 L 17.304688 1.683594 L 17.195312 1.808594 L 17.09375 1.941406 L 17 2.078125 L 16.910156 2.222656 L 16.828125 2.371094 L 16.753906 2.527344 L 16.6875 2.6875 L 16.625 2.855469 L 16.574219 3.027344 L 16.527344 3.203125 L 16.492188 3.382812 L 16.460938 3.570312 L 16.441406 3.761719 L 16.425781 3.960938 L 16.421875 4.160156 L 16.078125 4.160156 L 16.085938 3.945312 L 16.097656 3.734375 L 16.121094 3.527344 L 16.152344 3.324219 L 16.191406 3.128906 L 16.242188 2.9375 L 16.300781 2.75 L 16.367188 2.566406 L 16.441406 2.390625 L 16.523438 2.21875 L 16.613281 2.054688 L 16.710938 1.894531 L 16.816406 1.742188 L 16.929688 1.597656 L 17.050781 1.457031 L 17.175781 1.324219 L 17.3125 1.199219 L 17.453125 1.082031 L 17.601562 0.96875 L 17.753906 0.863281 L 17.917969 0.765625 L 18.082031 0.679688 L 18.257812 0.597656 L 18.433594 0.523438 L 18.617188 0.457031 L 18.808594 0.402344 L 19.003906 0.351562 L 19.203125 0.3125 L 19.40625 0.28125 L 19.613281 0.257812 L 19.828125 0.246094 Z M 24.027344 0.242188 L 24.027344 0.578125 L 22.660156 0.578125 L 22.535156 0.574219 L 22.039062 0.574219 L 21.914062 0.578125 L 20.042969 0.578125 L 20.042969 0.242188 L 20.542969 0.242188 L 20.667969 0.238281 L 23.65625 0.238281 L 23.78125 0.242188 Z M 27.9375 4.058594 L 27.59375 4.058594 L 27.59375 4.0625 L 27.589844 3.871094 L 27.578125 3.683594 L 27.554688 3.5 L 27.523438 3.320312 L 27.488281 3.148438 L 27.441406 2.976562 L 27.386719 2.8125 L 27.324219 2.652344 L 27.257812 2.496094 L 27.183594 2.34375 L 27.101562 2.199219 L 27.011719 2.0625 L 26.914062 1.925781 L 26.8125 1.796875 L 26.703125 1.675781 L 26.589844 1.554688 L 26.46875 1.445312 L 26.339844 1.339844 L 26.207031 1.238281 L 26.070312 1.148438 L 25.925781 1.058594 L 25.777344 0.980469 L 25.625 0.90625 L 25.464844 0.839844 L 25.300781 0.78125 L 25.132812 0.730469 L 24.957031 0.683594 L 24.78125 0.648438 L 24.597656 0.617188 L 24.410156 0.597656 L 24.222656 0.585938 L 24.027344 0.578125 L 24.027344 0.242188 L 24.238281 0.246094 L 24.441406 0.261719 L 24.644531 0.285156 L 24.84375 0.316406 L 25.035156 0.355469 L 25.226562 0.402344 L 25.410156 0.460938 L 25.589844 0.527344 L 25.765625 0.597656 L 25.933594 0.679688 L 26.097656 0.765625 L 26.257812 0.863281 L 26.410156 0.964844 L 26.554688 1.074219 L 26.695312 1.191406 L 26.828125 1.316406 L 26.957031 1.445312 L 27.078125 1.582031 L 27.191406 1.726562 L 27.296875 1.875 L 27.394531 2.027344 L 27.484375 2.191406 L 27.566406 2.355469 L 27.644531 2.527344 L 27.710938 2.703125 L 27.769531 2.882812 L 27.820312 3.070312 L 27.859375 3.257812 L 27.894531 3.453125 L 27.917969 3.652344 L 27.929688 3.855469 L 27.9375 4.058594 L 27.9375 4.0625 Z M 27.9375 4.058594 Z M 27.9375 26.496094 L 27.59375 26.492188 L 27.59375 26.496094 L 27.597656 25.792969 L 27.597656 22.988281 L 27.601562 22.289062 L 27.601562 18.082031 L 27.605469 17.382812 L 27.605469 13.175781 L 27.601562 12.472656 L 27.601562 8.269531 L 27.597656 7.566406 L 27.597656 4.761719 L 27.59375 4.0625 L 27.9375 4.0625 L 27.941406 4.761719 L 27.941406 7.566406 L 27.945312 8.269531 L 27.945312 12.472656 L 27.949219 13.175781 L 27.949219 17.382812 L 27.945312 18.082031 L 27.945312 22.289062 L 27.941406 22.988281 L 27.941406 25.792969 Z M 27.9375 26.496094 Z M 24.027344 30.3125 L 24.027344 29.976562 L 24.222656 29.96875 L 24.410156 29.957031 L 24.597656 29.9375 L 24.78125 29.90625 L 24.957031 29.871094 L 25.132812 29.828125 L 25.300781 29.773438 L 25.464844 29.714844 L 25.625 29.648438 L 25.777344 29.574219 L 25.925781 29.496094 L 26.070312 29.410156 L 26.207031 29.316406 L 26.339844 29.21875 L 26.46875 29.109375 L 26.589844 29 L 26.703125 28.882812 L 26.8125 28.757812 L 26.914062 28.628906 L 27.011719 28.492188 L 27.101562 28.355469 L 27.183594 28.207031 L 27.257812 28.058594 L 27.324219 27.902344 L 27.386719 27.742188 L 27.441406 27.578125 L 27.488281 27.40625 L 27.523438 27.230469 L 27.554688 27.054688 L 27.578125 26.871094 L 27.589844 26.683594 L 27.59375 26.496094 L 27.9375 26.496094 L 27.933594 26.699219 L 27.917969 26.902344 L 27.894531 27.101562 L 27.863281 27.296875 L 27.820312 27.484375 L 27.769531 27.671875 L 27.710938 27.851562 L 27.644531 28.027344 L 27.570312 28.199219 L 27.484375 28.363281 L 27.394531 28.527344 L 27.296875 28.679688 L 27.191406 28.828125 L 27.078125 28.972656 L 26.957031 29.109375 L 26.832031 29.238281 L 26.695312 29.363281 L 26.554688 29.480469 L 26.410156 29.589844 L 26.257812 29.691406 L 26.097656 29.789062 L 25.933594 29.875 L 25.765625 29.957031 L 25.589844 30.03125 L 25.410156 30.09375 L 25.226562 30.152344 L 25.039062 30.203125 L 24.84375 30.242188 L 24.648438 30.273438 L 24.445312 30.292969 L 24.238281 30.308594 L 24.03125 30.3125 Z M 19.980469 30.3125 L 19.980469 29.976562 L 20.992188 29.976562 L 21.121094 29.980469 L 22.890625 29.980469 L 23.015625 29.976562 L 24.027344 29.976562 L 24.027344 30.3125 L 23.773438 30.3125 L 23.648438 30.316406 L 20.359375 30.316406 L 20.234375 30.3125 Z M 16.078125 26.460938 L 16.421875 26.460938 L 16.425781 26.652344 L 16.4375 26.839844 L 16.460938 27.027344 L 16.488281 27.207031 L 16.527344 27.382812 L 16.574219 27.554688 L 16.625 27.71875 L 16.6875 27.882812 L 16.753906 28.039062 L 16.828125 28.191406 L 16.910156 28.335938 L 17 28.480469 L 17.09375 28.613281 L 17.195312 28.746094 L 17.304688 28.871094 L 17.417969 28.988281 L 17.539062 29.101562 L 17.667969 29.207031 L 17.796875 29.308594 L 17.9375 29.402344 L 18.078125 29.488281 L 18.226562 29.570312 L 18.382812 29.644531 L 18.542969 29.710938 L 18.707031 29.773438 L 18.875 29.824219 L 19.046875 29.867188 L 19.226562 29.90625 L 19.410156 29.933594 L 19.597656 29.957031 L 19.789062 29.96875 L 19.980469 29.972656 L 19.980469 30.3125 L 19.773438 30.304688 L 19.566406 30.292969 L 19.363281 30.269531 L 19.164062 30.238281 L 18.96875 30.195312 L 18.78125 30.148438 L 18.59375 30.089844 L 18.414062 30.023438 L 18.242188 29.953125 L 18.070312 29.871094 L 17.90625 29.78125 L 17.75 29.683594 L 17.597656 29.582031 L 17.449219 29.46875 L 17.308594 29.351562 L 17.175781 29.226562 L 17.050781 29.097656 L 16.929688 28.957031 L 16.816406 28.8125 L 16.714844 28.664062 L 16.617188 28.507812 L 16.523438 28.347656 L 16.441406 28.179688 L 16.367188 28.007812 L 16.300781 27.828125 L 16.242188 27.648438 L 16.195312 27.460938 L 16.152344 27.269531 L 16.121094 27.070312 L 16.097656 26.871094 L 16.082031 26.667969 Z M 16.078125 15.242188 L 16.421875 15.242188 L 16.421875 26.457031 L 16.078125 26.457031 Z M 16.078125 15.242188 "/>
<path style="fill-rule:nonzero;fill:rgb(92.941176%,41.176471%,36.078431%);fill-opacity:1;stroke-width:10.08;stroke-linecap:butt;stroke-linejoin:miter;stroke:rgb(92.941176%,41.176471%,36.078431%);stroke-opacity:1;stroke-miterlimit:22.9256;" d="M 22.711012 189.116788 C 22.711012 235.319805 22.711012 281.474442 22.806236 327.629079 C 22.806236 344.949163 33.661814 355.83469 50.992649 355.88307 C 67.13318 355.931451 83.368934 355.931451 99.509465 355.88307 C 116.935524 355.83469 127.981551 344.804022 127.981551 327.338798 C 127.981551 235.271425 127.981551 143.252432 127.981551 51.233439 C 127.981551 33.526314 116.983136 22.592407 99.223792 22.544026 C 83.559383 22.495646 68.037811 22.931067 52.373402 22.447266 C 34.852119 21.818325 22.330114 34.155256 22.6634 52.297802 C 23.139521 97.920257 22.758624 143.542713 22.758624 189.116788 Z M 145.502834 189.165168 C 145.502834 235.029524 145.502834 280.942261 145.502834 326.806617 C 145.502834 354.818708 126.886471 373.348295 98.842894 373.348295 C 82.797588 373.348295 66.752282 373.396675 50.706976 373.348295 C 24.329826 373.299915 5.189728 354.576807 5.094504 328.20964 C 4.999279 235.561706 4.999279 142.962151 5.094504 50.362597 C 5.094504 23.89867 24.186989 5.127182 50.611752 5.078802 C 67.228404 5.030422 83.749832 5.030422 100.318872 5.078802 C 126.505573 5.175562 145.40761 24.09219 145.502834 50.217456 C 145.502834 96.517234 145.502834 142.817011 145.502834 189.165168 Z M 145.502834 189.165168 " transform="matrix(0.0820431,0,0,0.0807408,0,0.0000896785)"/>
<path style=" stroke:none;fill-rule:nonzero;fill:rgb(92.941176%,41.176471%,36.078431%);fill-opacity:1;" d="M 1.863281 15.269531 C 1.863281 19 1.863281 22.726562 1.871094 26.453125 C 1.871094 27.851562 2.761719 28.730469 4.183594 28.734375 C 5.507812 28.738281 6.839844 28.738281 8.164062 28.734375 C 9.59375 28.730469 10.5 27.839844 10.5 26.429688 C 10.5 18.996094 10.5 11.566406 10.5 4.136719 C 10.5 2.707031 9.597656 1.824219 8.140625 1.820312 C 6.855469 1.816406 5.582031 1.851562 4.296875 1.8125 C 2.859375 1.761719 1.832031 2.757812 1.859375 4.222656 C 1.898438 7.90625 1.867188 11.589844 1.867188 15.269531 Z M 11.9375 15.273438 C 11.9375 18.976562 11.9375 22.683594 11.9375 26.386719 C 11.9375 28.648438 10.410156 30.144531 8.109375 30.144531 C 6.792969 30.144531 5.476562 30.148438 4.160156 30.144531 C 1.996094 30.140625 0.425781 28.628906 0.417969 26.5 C 0.410156 19.019531 0.410156 11.542969 0.417969 4.066406 C 0.417969 1.929688 1.984375 0.414062 4.152344 0.410156 C 5.515625 0.40625 6.871094 0.40625 8.230469 0.410156 C 10.378906 0.417969 11.929688 1.945312 11.9375 4.054688 C 11.9375 7.792969 11.9375 11.53125 11.9375 15.273438 Z M 11.9375 15.273438 "/>
<path style=" stroke:none;fill-rule:nonzero;fill:rgb(92.941176%,41.176471%,36.078431%);fill-opacity:1;" d="M 2.046875 26.453125 L 1.703125 26.453125 L 1.699219 26.105469 L 1.699219 24.707031 L 1.695312 24.355469 L 1.695312 22.609375 L 1.691406 22.261719 L 1.691406 20.164062 L 1.6875 19.8125 L 1.6875 15.269531 L 2.03125 15.269531 L 2.03125 19.8125 L 2.035156 20.164062 L 2.035156 22.261719 L 2.039062 22.609375 L 2.039062 24.355469 L 2.042969 24.707031 L 2.042969 26.105469 Z M 2.046875 26.453125 Z M 4.183594 28.5625 L 4.183594 28.902344 L 4.042969 28.898438 L 3.910156 28.890625 L 3.777344 28.878906 L 3.648438 28.859375 L 3.519531 28.832031 L 3.398438 28.804688 L 3.277344 28.769531 L 3.164062 28.730469 L 3.050781 28.6875 L 2.941406 28.636719 L 2.835938 28.582031 L 2.734375 28.519531 L 2.636719 28.457031 L 2.546875 28.386719 L 2.457031 28.3125 L 2.375 28.234375 L 2.292969 28.152344 L 2.21875 28.0625 L 2.148438 27.972656 L 2.082031 27.878906 L 2.023438 27.777344 L 1.96875 27.675781 L 1.917969 27.566406 L 1.871094 27.457031 L 1.832031 27.34375 L 1.796875 27.222656 L 1.769531 27.101562 L 1.746094 26.980469 L 1.726562 26.851562 L 1.710938 26.722656 L 1.703125 26.589844 L 1.699219 26.453125 L 2.042969 26.453125 L 2.046875 26.574219 L 2.054688 26.695312 L 2.066406 26.808594 L 2.082031 26.921875 L 2.105469 27.03125 L 2.128906 27.136719 L 2.160156 27.238281 L 2.195312 27.335938 L 2.234375 27.433594 L 2.277344 27.523438 L 2.324219 27.609375 L 2.375 27.695312 L 2.429688 27.773438 L 2.488281 27.851562 L 2.550781 27.925781 L 2.617188 27.992188 L 2.6875 28.058594 L 2.761719 28.121094 L 2.839844 28.179688 L 2.921875 28.234375 L 3.007812 28.285156 L 3.09375 28.332031 L 3.1875 28.375 L 3.382812 28.445312 L 3.488281 28.476562 L 3.59375 28.5 L 3.703125 28.523438 L 3.820312 28.539062 L 3.9375 28.550781 L 4.058594 28.558594 Z M 4.183594 28.5625 Z M 8.164062 28.5625 L 8.164062 28.902344 L 7.917969 28.902344 L 7.792969 28.90625 L 6.917969 28.90625 L 6.792969 28.910156 L 5.296875 28.910156 L 5.171875 28.90625 L 4.550781 28.90625 L 4.425781 28.902344 L 4.175781 28.902344 L 4.175781 28.5625 L 4.300781 28.566406 L 4.800781 28.566406 L 4.925781 28.570312 L 7.292969 28.570312 L 7.417969 28.566406 L 8.039062 28.566406 Z M 10.328125 26.429688 L 10.671875 26.429688 L 10.667969 26.566406 L 10.660156 26.703125 L 10.644531 26.832031 L 10.625 26.960938 L 10.601562 27.085938 L 10.570312 27.210938 L 10.535156 27.328125 L 10.496094 27.445312 L 10.449219 27.554688 L 10.398438 27.664062 L 10.34375 27.769531 L 10.28125 27.871094 L 10.214844 27.964844 L 10.144531 28.058594 L 10.070312 28.144531 L 9.988281 28.230469 L 9.902344 28.308594 L 9.816406 28.382812 L 9.722656 28.453125 L 9.625 28.519531 L 9.523438 28.578125 L 9.417969 28.632812 L 9.304688 28.683594 L 9.191406 28.730469 L 9.074219 28.769531 L 8.953125 28.804688 L 8.832031 28.832031 L 8.703125 28.859375 L 8.574219 28.878906 L 8.441406 28.890625 L 8.304688 28.902344 L 8.164062 28.902344 L 8.164062 28.566406 L 8.289062 28.5625 L 8.410156 28.554688 L 8.53125 28.542969 L 8.757812 28.503906 L 8.867188 28.476562 L 9.070312 28.414062 L 9.167969 28.375 L 9.261719 28.332031 L 9.351562 28.285156 L 9.4375 28.234375 L 9.519531 28.179688 L 9.597656 28.121094 L 9.671875 28.058594 L 9.746094 27.992188 L 9.8125 27.921875 L 9.875 27.847656 L 9.933594 27.769531 L 9.992188 27.6875 L 10.042969 27.601562 L 10.089844 27.515625 L 10.132812 27.421875 L 10.171875 27.324219 L 10.207031 27.226562 L 10.238281 27.125 L 10.285156 26.90625 L 10.300781 26.792969 L 10.316406 26.675781 L 10.324219 26.554688 L 10.324219 26.429688 Z M 10.328125 4.136719 L 10.671875 4.136719 L 10.671875 26.433594 L 10.328125 26.433594 Z M 8.140625 1.992188 L 8.140625 1.652344 L 8.28125 1.65625 L 8.421875 1.664062 L 8.6875 1.695312 L 8.816406 1.71875 L 8.941406 1.75 L 9.066406 1.785156 L 9.183594 1.824219 L 9.296875 1.871094 L 9.410156 1.921875 L 9.515625 1.976562 L 9.617188 2.035156 L 9.714844 2.101562 L 9.8125 2.171875 L 9.898438 2.246094 L 9.984375 2.324219 L 10.066406 2.410156 L 10.144531 2.496094 L 10.214844 2.589844 L 10.28125 2.6875 L 10.34375 2.789062 L 10.398438 2.890625 L 10.449219 3 L 10.496094 3.113281 L 10.535156 3.230469 L 10.570312 3.351562 L 10.601562 3.472656 L 10.625 3.601562 L 10.644531 3.730469 L 10.660156 3.863281 L 10.667969 4 L 10.671875 4.140625 L 10.328125 4.140625 L 10.324219 4.011719 L 10.316406 3.890625 L 10.304688 3.773438 L 10.289062 3.65625 L 10.265625 3.542969 L 10.238281 3.4375 L 10.207031 3.332031 L 10.171875 3.234375 L 10.132812 3.136719 L 10.089844 3.042969 L 10.042969 2.957031 L 9.992188 2.871094 L 9.933594 2.789062 L 9.875 2.710938 L 9.8125 2.636719 L 9.742188 2.566406 L 9.671875 2.5 L 9.597656 2.4375 L 9.433594 2.320312 L 9.347656 2.269531 L 9.257812 2.222656 L 9.0625 2.144531 L 8.960938 2.109375 L 8.855469 2.078125 L 8.746094 2.050781 L 8.632812 2.03125 L 8.511719 2.015625 L 8.394531 2 L 8.269531 1.996094 Z M 8.140625 1.992188 L 8.144531 1.992188 Z M 4.292969 1.980469 L 4.304688 1.640625 L 4.421875 1.644531 L 4.664062 1.652344 L 4.78125 1.65625 L 4.902344 1.65625 L 5.023438 1.660156 L 5.140625 1.660156 L 5.261719 1.664062 L 5.621094 1.664062 L 5.742188 1.667969 L 5.859375 1.664062 L 6.460938 1.664062 L 6.582031 1.660156 L 6.941406 1.660156 L 7.0625 1.65625 L 7.542969 1.65625 L 7.664062 1.652344 L 8.148438 1.652344 L 8.148438 1.992188 L 7.425781 1.992188 L 7.304688 1.996094 L 6.945312 1.996094 L 6.824219 2 L 6.34375 2 L 6.222656 2.003906 L 5.378906 2.003906 L 5.257812 2 L 5.015625 2 L 4.894531 1.996094 L 4.777344 1.992188 L 4.65625 1.992188 Z M 2.03125 4.222656 L 1.6875 4.222656 L 1.6875 4.226562 L 1.6875 4.082031 L 1.695312 3.941406 L 1.707031 3.804688 L 1.730469 3.667969 L 1.753906 3.539062 L 1.785156 3.410156 L 1.824219 3.285156 L 1.867188 3.160156 L 1.917969 3.042969 L 1.972656 2.929688 L 2.03125 2.820312 L 2.097656 2.710938 L 2.167969 2.609375 L 2.242188 2.511719 L 2.324219 2.417969 L 2.410156 2.332031 L 2.5 2.246094 L 2.59375 2.167969 L 2.695312 2.09375 L 2.796875 2.027344 L 2.902344 1.960938 L 3.015625 1.902344 L 3.128906 1.851562 L 3.25 1.804688 L 3.371094 1.761719 L 3.496094 1.726562 L 3.621094 1.699219 L 3.753906 1.675781 L 3.886719 1.660156 L 4.023438 1.648438 L 4.164062 1.640625 L 4.304688 1.644531 L 4.292969 1.980469 L 4.167969 1.980469 L 4.042969 1.984375 L 3.808594 2.007812 L 3.691406 2.03125 L 3.582031 2.054688 L 3.472656 2.085938 L 3.367188 2.121094 L 3.265625 2.160156 L 3.167969 2.207031 L 3.074219 2.253906 L 2.980469 2.308594 L 2.894531 2.367188 L 2.808594 2.429688 L 2.652344 2.570312 L 2.578125 2.644531 L 2.511719 2.722656 L 2.445312 2.808594 L 2.386719 2.894531 L 2.328125 2.984375 L 2.277344 3.082031 L 2.230469 3.179688 L 2.1875 3.28125 L 2.152344 3.386719 L 2.117188 3.496094 L 2.089844 3.609375 L 2.066406 3.722656 L 2.050781 3.84375 L 2.039062 3.964844 L 2.03125 4.089844 Z M 2.03125 4.21875 L 2.03125 4.222656 Z M 2.039062 15.269531 L 1.695312 15.269531 L 1.695312 14.234375 L 1.699219 13.890625 L 1.699219 12.507812 L 1.703125 12.164062 L 1.703125 11.128906 L 1.707031 10.78125 L 1.707031 9.402344 L 1.710938 9.054688 L 1.710938 8.019531 L 1.707031 7.675781 L 1.707031 6.640625 L 1.703125 6.292969 L 1.703125 5.949219 L 1.699219 5.605469 L 1.699219 5.257812 L 1.691406 4.570312 L 1.6875 4.222656 L 2.03125 4.21875 L 2.035156 4.566406 L 2.039062 4.910156 L 2.042969 5.257812 L 2.042969 5.601562 L 2.046875 5.949219 L 2.046875 6.292969 L 2.050781 6.636719 L 2.050781 7.675781 L 2.054688 8.019531 L 2.054688 9.054688 L 2.050781 9.402344 L 2.050781 10.78125 L 2.046875 11.128906 L 2.046875 12.164062 L 2.042969 12.511719 L 2.042969 13.890625 L 2.039062 14.234375 Z M 12.109375 26.386719 L 11.765625 26.386719 L 11.765625 15.277344 L 12.109375 15.277344 Z M 8.109375 30.3125 L 8.109375 29.976562 L 8.316406 29.972656 L 8.519531 29.957031 L 8.714844 29.9375 L 8.90625 29.910156 L 9.09375 29.871094 L 9.273438 29.828125 L 9.449219 29.777344 L 9.617188 29.714844 L 9.78125 29.652344 L 9.941406 29.578125 L 10.09375 29.496094 L 10.242188 29.410156 L 10.382812 29.316406 L 10.515625 29.214844 L 10.644531 29.109375 L 10.765625 28.992188 L 10.882812 28.875 L 10.992188 28.75 L 11.09375 28.617188 L 11.191406 28.476562 L 11.277344 28.335938 L 11.359375 28.183594 L 11.4375 28.03125 L 11.503906 27.867188 L 11.566406 27.703125 L 11.617188 27.53125 L 11.664062 27.351562 L 11.699219 27.167969 L 11.730469 26.980469 L 11.75 26.789062 L 11.765625 26.589844 L 11.769531 26.386719 L 12.113281 26.386719 L 12.105469 26.605469 L 12.09375 26.816406 L 12.070312 27.027344 L 12.039062 27.226562 L 11.996094 27.425781 L 11.949219 27.617188 L 11.890625 27.808594 L 11.824219 27.988281 L 11.75 28.167969 L 11.667969 28.335938 L 11.578125 28.503906 L 11.480469 28.664062 L 11.375 28.816406 L 11.261719 28.960938 L 11.140625 29.101562 L 11.011719 29.234375 L 10.875 29.359375 L 10.730469 29.480469 L 10.582031 29.589844 L 10.425781 29.695312 L 10.265625 29.792969 L 10.097656 29.878906 L 9.921875 29.960938 L 9.742188 30.035156 L 9.554688 30.097656 L 9.363281 30.15625 L 9.167969 30.203125 L 8.964844 30.242188 L 8.757812 30.273438 L 8.546875 30.296875 L 8.332031 30.308594 L 8.109375 30.316406 Z M 4.160156 30.3125 L 4.160156 29.972656 L 4.285156 29.976562 L 8.113281 29.976562 L 8.113281 30.316406 L 4.777344 30.316406 L 4.652344 30.3125 Z M 0.25 26.5 L 0.59375 26.5 L 0.59375 26.496094 L 0.597656 26.6875 L 0.609375 26.875 L 0.632812 27.054688 L 0.664062 27.234375 L 0.703125 27.410156 L 0.746094 27.578125 L 0.800781 27.742188 L 0.863281 27.902344 L 0.929688 28.058594 L 1.007812 28.210938 L 1.089844 28.355469 L 1.179688 28.496094 L 1.273438 28.628906 L 1.378906 28.757812 L 1.488281 28.882812 L 1.601562 29 L 1.722656 29.113281 L 1.851562 29.21875 L 1.984375 29.316406 L 2.121094 29.410156 L 2.265625 29.496094 L 2.414062 29.574219 L 2.566406 29.648438 L 2.726562 29.714844 L 2.890625 29.773438 L 3.058594 29.828125 L 3.230469 29.871094 L 3.410156 29.90625 L 3.589844 29.9375 L 3.777344 29.957031 L 3.964844 29.972656 L 4.160156 29.976562 L 4.160156 30.3125 L 3.953125 30.308594 L 3.746094 30.292969 L 3.542969 30.273438 L 3.347656 30.242188 L 3.152344 30.199219 L 2.964844 30.152344 L 2.78125 30.09375 L 2.601562 30.03125 L 2.425781 29.957031 L 2.257812 29.875 L 2.09375 29.789062 L 1.933594 29.691406 L 1.78125 29.589844 L 1.636719 29.480469 L 1.496094 29.363281 L 1.363281 29.238281 L 1.234375 29.109375 L 1.113281 28.972656 L 1 28.832031 L 0.894531 28.683594 L 0.796875 28.527344 L 0.703125 28.367188 L 0.621094 28.199219 L 0.546875 28.03125 L 0.476562 27.855469 L 0.417969 27.671875 L 0.371094 27.488281 L 0.328125 27.296875 L 0.292969 27.105469 L 0.269531 26.90625 L 0.257812 26.703125 Z M 0.25 26.5 Z M 0.25 4.066406 L 0.59375 4.066406 L 0.589844 4.765625 L 0.589844 7.570312 L 0.585938 8.269531 L 0.585938 11.074219 L 0.582031 11.777344 L 0.582031 18.785156 L 0.585938 19.488281 L 0.585938 22.292969 L 0.589844 22.992188 L 0.589844 25.796875 L 0.59375 26.496094 L 0.25 26.496094 L 0.246094 25.796875 L 0.246094 22.992188 L 0.242188 22.292969 L 0.242188 19.488281 L 0.238281 18.785156 L 0.238281 11.777344 L 0.242188 11.074219 L 0.242188 8.269531 L 0.246094 7.570312 L 0.246094 4.765625 Z M 0.59375 4.066406 Z M 4.152344 0.242188 L 4.152344 0.578125 L 3.957031 0.582031 L 3.769531 0.597656 L 3.582031 0.617188 L 3.402344 0.648438 L 3.222656 0.683594 L 3.050781 0.726562 L 2.882812 0.78125 L 2.71875 0.839844 L 2.558594 0.90625 L 2.40625 0.980469 L 2.257812 1.058594 L 2.113281 1.144531 L 1.976562 1.238281 L 1.84375 1.339844 L 1.714844 1.445312 L 1.59375 1.558594 L 1.480469 1.675781 L 1.371094 1.800781 L 1.265625 1.929688 L 1.171875 2.0625 L 1.082031 2.203125 L 1 2.351562 L 0.925781 2.5 L 0.855469 2.65625 L 0.796875 2.816406 L 0.742188 2.980469 L 0.699219 3.152344 L 0.660156 3.324219 L 0.628906 3.503906 L 0.609375 3.6875 L 0.59375 3.871094 L 0.589844 4.0625 L 0.246094 4.0625 L 0.253906 3.855469 L 0.265625 3.65625 L 0.289062 3.457031 L 0.320312 3.261719 L 0.363281 3.074219 L 0.414062 2.886719 L 0.472656 2.707031 L 0.539062 2.53125 L 0.613281 2.359375 L 0.695312 2.191406 L 0.785156 2.03125 L 0.886719 1.878906 L 0.992188 1.726562 L 1.105469 1.585938 L 1.226562 1.449219 L 1.351562 1.316406 L 1.484375 1.195312 L 1.625 1.078125 L 1.773438 0.964844 L 1.925781 0.863281 L 2.082031 0.765625 L 2.246094 0.679688 L 2.417969 0.597656 L 2.589844 0.527344 L 2.769531 0.460938 L 2.957031 0.402344 L 3.144531 0.355469 L 3.335938 0.3125 L 3.535156 0.28125 L 3.738281 0.261719 L 3.941406 0.246094 Z M 8.230469 0.242188 L 8.230469 0.578125 L 7.847656 0.578125 L 7.722656 0.574219 L 4.917969 0.574219 L 4.789062 0.578125 L 4.148438 0.578125 L 4.148438 0.242188 L 4.277344 0.238281 L 5.171875 0.238281 L 5.300781 0.234375 L 7.339844 0.234375 L 7.46875 0.238281 L 8.101562 0.238281 Z M 12.109375 4.054688 L 11.765625 4.054688 L 11.761719 3.867188 L 11.746094 3.683594 L 11.726562 3.5 L 11.695312 3.324219 L 11.660156 3.152344 L 11.613281 2.984375 L 11.558594 2.816406 L 11.5 2.65625 L 11.429688 2.503906 L 11.355469 2.355469 L 11.273438 2.207031 L 11.183594 2.070312 L 11.089844 1.933594 L 10.988281 1.804688 L 10.878906 1.679688 L 10.765625 1.5625 L 10.644531 1.449219 L 10.519531 1.34375 L 10.386719 1.242188 L 10.25 1.148438 L 10.109375 1.0625 L 9.960938 0.980469 L 9.808594 0.910156 L 9.652344 0.839844 L 9.488281 0.78125 L 9.320312 0.730469 L 9.148438 0.683594 L 8.972656 0.648438 L 8.792969 0.617188 L 8.609375 0.597656 L 8.421875 0.582031 L 8.230469 0.578125 L 8.230469 0.238281 L 8.4375 0.246094 L 8.640625 0.257812 L 8.839844 0.28125 L 9.039062 0.316406 L 9.230469 0.355469 L 9.417969 0.40625 L 9.601562 0.460938 L 9.777344 0.527344 L 9.949219 0.601562 L 10.121094 0.683594 L 10.28125 0.769531 L 10.4375 0.867188 L 10.589844 0.96875 L 10.734375 1.082031 L 10.875 1.199219 L 11.007812 1.324219 L 11.132812 1.453125 L 11.253906 1.589844 L 11.363281 1.734375 L 11.46875 1.882812 L 11.566406 2.035156 L 11.65625 2.195312 L 11.742188 2.359375 L 11.816406 2.53125 L 11.882812 2.707031 L 11.941406 2.886719 L 11.988281 3.070312 L 12.03125 3.257812 L 12.0625 3.453125 L 12.085938 3.648438 L 12.101562 3.847656 L 12.109375 4.050781 Z M 12.109375 4.054688 Z M 12.109375 15.273438 L 11.765625 15.273438 L 11.765625 4.058594 L 12.109375 4.058594 Z M 12.109375 15.273438 "/>
</g>
</svg>
