<?xml version="1.0" encoding="UTF-8"?>
<svg xmlns="http://www.w3.org/2000/svg" xmlns:xlink="http://www.w3.org/1999/xlink" width="28px" height="28px" viewBox="0 0 28 23" version="1.1">
<g id="surface1">
<path style="fill-rule:nonzero;fill:rgb(92.941176%,41.176471%,36.078431%);fill-opacity:1;stroke-width:3.45;stroke-linecap:butt;stroke-linejoin:miter;stroke:rgb(92.941176%,41.176471%,36.078431%);stroke-opacity:1;stroke-miterlimit:22.9256;" d="M 147.359981 12.027029 C 121.961779 29.26279 96.781215 46.342066 71.470068 63.510761 C 96.824742 81.640725 121.983543 99.614204 147.359981 117.721813 C 147.359981 82.378443 147.359981 47.348044 147.359981 12.027029 Z M 150.406894 3.12971 C 151.995642 3.420326 153.214407 4.49337 153.388517 5.991159 C 153.453808 6.348841 153.41028 6.728877 153.41028 7.108913 C 153.41028 45.671413 153.41028 84.233914 153.41028 122.796414 C 153.41028 122.975255 153.41028 123.154095 153.41028 123.355291 C 153.432044 124.62953 152.909716 125.635508 151.756242 126.239095 C 150.602767 126.865037 149.49282 126.641487 148.491691 125.903769 C 144.443649 123.019965 140.395607 120.13616 136.347564 117.230001 C 112.755748 100.396631 89.185694 83.563262 65.593878 66.729892 C 65.289186 66.506341 64.984495 66.28279 64.679804 66.05924 C 62.677546 64.51674 62.677546 62.258877 64.766858 60.828153 C 69.010774 57.899638 73.298216 55.015834 77.585659 52.109674 C 101.003366 36.237573 124.442838 20.320761 147.860545 4.448659 C 148.665801 3.912138 149.558111 3.576812 150.428658 3.12971 Z M 150.406894 3.12971 " transform="matrix(0.179485,0,0,0.174737,0.000326577,0)"/>
<path style="fill-rule:nonzero;fill:rgb(92.941176%,41.176471%,36.078431%);fill-opacity:1;stroke-width:1.44;stroke-linecap:butt;stroke-linejoin:miter;stroke:rgb(92.941176%,41.176471%,36.078431%);stroke-opacity:1;stroke-miterlimit:10;" d="M 147.359981 12.027029 C 121.961779 29.26279 96.781215 46.342066 71.470068 63.510761 C 96.824742 81.640725 121.983543 99.614204 147.359981 117.721813 C 147.359981 82.378443 147.359981 47.348044 147.359981 12.027029 Z M 150.406894 3.12971 C 151.995642 3.420326 153.214407 4.49337 153.388517 5.991159 C 153.453808 6.348841 153.41028 6.728877 153.41028 7.108913 C 153.41028 45.671413 153.41028 84.233914 153.41028 122.796414 C 153.41028 122.975255 153.41028 123.154095 153.41028 123.355291 C 153.432044 124.62953 152.909716 125.635508 151.756242 126.239095 C 150.602767 126.865037 149.49282 126.641487 148.491691 125.903769 C 144.443649 123.019965 140.395607 120.13616 136.347564 117.230001 C 112.755748 100.396631 89.185694 83.563262 65.593878 66.729892 C 65.289186 66.506341 64.984495 66.28279 64.679804 66.05924 C 62.677546 64.51674 62.677546 62.258877 64.766858 60.828153 C 69.010774 57.899638 73.298216 55.015834 77.585659 52.109674 C 101.003366 36.237573 124.442838 20.320761 147.860545 4.448659 C 148.665801 3.912138 149.558111 3.576812 150.428658 3.12971 Z M 150.406894 3.12971 " transform="matrix(0.179485,0,0,0.174737,0.000326577,0)"/>
<path style="fill-rule:nonzero;fill:rgb(92.941176%,41.176471%,36.078431%);fill-opacity:1;stroke-width:3.45;stroke-linecap:butt;stroke-linejoin:miter;stroke:rgb(92.941176%,41.176471%,36.078431%);stroke-opacity:1;stroke-miterlimit:22.9256;" d="M 43.808445 64.896776 C 43.808445 49.069384 43.808445 33.241993 43.808445 17.414602 C 43.808445 11.468152 40.043331 7.734855 34.101849 7.734855 C 28.573877 7.7125 23.045906 7.7125 17.517934 7.734855 C 11.489397 7.734855 7.724283 11.512862 7.724283 17.504022 C 7.724283 49.069384 7.724283 80.612392 7.724283 112.177755 C 7.724283 118.235979 11.489397 121.991631 17.561461 121.991631 C 22.937087 122.013986 28.29095 121.879856 33.644812 122.036342 C 39.651585 122.237537 43.939027 118.012428 43.873736 111.797718 C 43.677863 96.149167 43.808445 80.522972 43.808445 64.896776 Z M 1.739274 64.874421 C 1.739274 49.158805 1.739274 33.420834 1.739274 17.682862 C 1.739274 8.070181 8.094265 1.743696 17.757334 1.721341 C 23.220015 1.721341 28.726223 1.721341 34.210668 1.721341 C 43.307881 1.743696 49.858745 8.159602 49.858745 17.213406 C 49.880509 48.957609 49.880509 80.701812 49.858745 112.46837 C 49.858745 121.522175 43.307881 127.960436 34.254195 127.982791 C 28.595641 127.982791 22.89356 128.005146 17.213242 127.982791 C 8.290138 127.960436 1.761038 121.477465 1.761038 112.490726 C 1.739274 96.618624 1.761038 80.746522 1.761038 64.874421 Z M 1.739274 64.874421 " transform="matrix(0.179485,0,0,0.174737,0.000326577,0)"/>
<path style="fill-rule:nonzero;fill:rgb(92.941176%,41.176471%,36.078431%);fill-opacity:1;stroke-width:1.44;stroke-linecap:butt;stroke-linejoin:miter;stroke:rgb(92.941176%,41.176471%,36.078431%);stroke-opacity:1;stroke-miterlimit:10;" d="M 43.808445 64.896776 C 43.808445 49.069384 43.808445 33.241993 43.808445 17.414602 C 43.808445 11.468152 40.043331 7.734855 34.101849 7.734855 C 28.573877 7.7125 23.045906 7.7125 17.517934 7.734855 C 11.489397 7.734855 7.724283 11.512862 7.724283 17.504022 C 7.724283 49.069384 7.724283 80.612392 7.724283 112.177755 C 7.724283 118.235979 11.489397 121.991631 17.561461 121.991631 C 22.937087 122.013986 28.29095 121.879856 33.644812 122.036342 C 39.651585 122.237537 43.939027 118.012428 43.873736 111.797718 C 43.677863 96.149167 43.808445 80.522972 43.808445 64.896776 Z M 1.739274 64.874421 C 1.739274 49.158805 1.739274 33.420834 1.739274 17.682862 C 1.739274 8.070181 8.094265 1.743696 17.757334 1.721341 C 23.220015 1.721341 28.726223 1.721341 34.210668 1.721341 C 43.307881 1.743696 49.858745 8.159602 49.858745 17.213406 C 49.880509 48.957609 49.880509 80.701812 49.858745 112.46837 C 49.858745 121.522175 43.307881 127.960436 34.254195 127.982791 C 28.595641 127.982791 22.89356 128.005146 17.213242 127.982791 C 8.290138 127.960436 1.761038 121.477465 1.761038 112.490726 C 1.739274 96.618624 1.761038 80.746522 1.761038 64.874421 Z M 1.739274 64.874421 " transform="matrix(0.179485,0,0,0.174737,0.000326577,0)"/>
</g>
</svg>
