<?xml version="1.0" encoding="UTF-8"?>
<svg xmlns="http://www.w3.org/2000/svg" xmlns:xlink="http://www.w3.org/1999/xlink" width="28px" height="28px" viewBox="0 0 28 28" version="1.1">
<g id="surface1">
<path style="fill-rule:nonzero;fill:rgb(92.941176%,41.176471%,36.078431%);fill-opacity:1;stroke-width:3.45;stroke-linecap:butt;stroke-linejoin:miter;stroke:rgb(92.941176%,41.176471%,36.078431%);stroke-opacity:1;stroke-miterlimit:22.9256;" d="M 147.359903 12.027003 C 121.961715 29.262728 96.781164 46.341967 71.47003 63.510626 C 96.824691 81.640551 121.983479 99.613991 147.359903 117.721562 C 147.359903 82.378267 147.359903 47.347943 147.359903 12.027003 Z M 150.406815 3.129703 C 151.995562 3.420319 153.214327 4.49336 153.388436 5.991147 C 153.453727 6.348827 153.4102 6.728863 153.4102 7.108898 C 153.4102 45.671316 153.4102 84.233734 153.4102 122.796152 C 153.4102 122.974992 153.4102 123.153833 153.4102 123.355028 C 153.431963 124.629264 152.909635 125.63524 151.756162 126.238826 C 150.602688 126.864767 149.492741 126.641217 148.491613 125.903501 C 144.443573 123.019702 140.395533 120.135904 136.347492 117.229751 C 112.755688 100.396417 89.185647 83.563083 65.593843 66.72975 C 65.289152 66.506199 64.984461 66.282649 64.679769 66.059099 C 62.677513 64.516602 62.677513 62.258745 64.766824 60.828023 C 69.010737 57.899515 73.298178 55.015716 77.585618 52.109563 C 101.003313 36.237495 124.442772 20.320718 147.860467 4.44865 C 148.665722 3.912129 149.558032 3.576804 150.428579 3.129703 Z M 150.406815 3.129703 " transform="matrix(0.179485,0,0,0.174737,0.000326577,2.5)"/>
<path style="fill-rule:nonzero;fill:rgb(92.941176%,41.176471%,36.078431%);fill-opacity:1;stroke-width:1.44;stroke-linecap:butt;stroke-linejoin:miter;stroke:rgb(92.941176%,41.176471%,36.078431%);stroke-opacity:1;stroke-miterlimit:10;" d="M 147.359903 12.027003 C 121.961715 29.262728 96.781164 46.341967 71.47003 63.510626 C 96.824691 81.640551 121.983479 99.613991 147.359903 117.721562 C 147.359903 82.378267 147.359903 47.347943 147.359903 12.027003 Z M 150.406815 3.129703 C 151.995562 3.420319 153.214327 4.49336 153.388436 5.991147 C 153.453727 6.348827 153.4102 6.728863 153.4102 7.108898 C 153.4102 45.671316 153.4102 84.233734 153.4102 122.796152 C 153.4102 122.974992 153.4102 123.153833 153.4102 123.355028 C 153.431963 124.629264 152.909635 125.63524 151.756162 126.238826 C 150.602688 126.864767 149.492741 126.641217 148.491613 125.903501 C 144.443573 123.019702 140.395533 120.135904 136.347492 117.229751 C 112.755688 100.396417 89.185647 83.563083 65.593843 66.72975 C 65.289152 66.506199 64.984461 66.282649 64.679769 66.059099 C 62.677513 64.516602 62.677513 62.258745 64.766824 60.828023 C 69.010737 57.899515 73.298178 55.015716 77.585618 52.109563 C 101.003313 36.237495 124.442772 20.320718 147.860467 4.44865 C 148.665722 3.912129 149.558032 3.576804 150.428579 3.129703 Z M 150.406815 3.129703 " transform="matrix(0.179485,0,0,0.174737,0.000326577,2.5)"/>
<path style="fill-rule:nonzero;fill:rgb(92.941176%,41.176471%,36.078431%);fill-opacity:1;stroke-width:3.45;stroke-linecap:butt;stroke-linejoin:miter;stroke:rgb(92.941176%,41.176471%,36.078431%);stroke-opacity:1;stroke-miterlimit:22.9256;" d="M 43.808422 64.896638 C 43.808422 49.06928 43.808422 33.241922 43.808422 17.414564 C 43.808422 11.468128 40.04331 7.734839 34.101831 7.734839 C 28.573862 7.712484 23.045893 7.712484 17.517924 7.734839 C 11.489391 7.734839 7.724279 11.512838 7.724279 17.503985 C 7.724279 49.06928 7.724279 80.61222 7.724279 112.177515 C 7.724279 118.235727 11.489391 121.991371 17.561452 121.991371 C 22.937075 122.013726 28.290935 121.879596 33.644794 122.036081 C 39.651564 122.237277 43.939004 118.012177 43.873713 111.79748 C 43.67784 96.148962 43.808422 80.5228 43.808422 64.896638 Z M 1.739273 64.874282 C 1.739273 49.1587 1.739273 33.420762 1.739273 17.682825 C 1.739273 8.070164 8.094261 1.743692 17.757325 1.721337 C 23.220003 1.721337 28.726208 1.721337 34.210649 1.721337 C 43.307858 1.743692 49.858719 8.159584 49.858719 17.213369 C 49.880483 48.957505 49.880483 80.70164 49.858719 112.468131 C 49.858719 121.521916 43.307858 127.960163 34.254177 127.982518 C 28.595626 127.982518 22.893548 128.004873 17.213233 127.982518 C 8.290134 127.960163 1.761037 121.477206 1.761037 112.490486 C 1.739273 96.618418 1.761037 80.74635 1.761037 64.874282 Z M 1.739273 64.874282 " transform="matrix(0.179485,0,0,0.174737,0.000326577,2.5)"/>
<path style="fill-rule:nonzero;fill:rgb(92.941176%,41.176471%,36.078431%);fill-opacity:1;stroke-width:1.44;stroke-linecap:butt;stroke-linejoin:miter;stroke:rgb(92.941176%,41.176471%,36.078431%);stroke-opacity:1;stroke-miterlimit:10;" d="M 43.808422 64.896638 C 43.808422 49.06928 43.808422 33.241922 43.808422 17.414564 C 43.808422 11.468128 40.04331 7.734839 34.101831 7.734839 C 28.573862 7.712484 23.045893 7.712484 17.517924 7.734839 C 11.489391 7.734839 7.724279 11.512838 7.724279 17.503985 C 7.724279 49.06928 7.724279 80.61222 7.724279 112.177515 C 7.724279 118.235727 11.489391 121.991371 17.561452 121.991371 C 22.937075 122.013726 28.290935 121.879596 33.644794 122.036081 C 39.651564 122.237277 43.939004 118.012177 43.873713 111.79748 C 43.67784 96.148962 43.808422 80.5228 43.808422 64.896638 Z M 1.739273 64.874282 C 1.739273 49.1587 1.739273 33.420762 1.739273 17.682825 C 1.739273 8.070164 8.094261 1.743692 17.757325 1.721337 C 23.220003 1.721337 28.726208 1.721337 34.210649 1.721337 C 43.307858 1.743692 49.858719 8.159584 49.858719 17.213369 C 49.880483 48.957505 49.880483 80.70164 49.858719 112.468131 C 49.858719 121.521916 43.307858 127.960163 34.254177 127.982518 C 28.595626 127.982518 22.893548 128.004873 17.213233 127.982518 C 8.290134 127.960163 1.761037 121.477206 1.761037 112.490486 C 1.739273 96.618418 1.761037 80.74635 1.761037 64.874282 Z M 1.739273 64.874282 " transform="matrix(0.179485,0,0,0.174737,0.000326577,2.5)"/>
</g>
</svg>
