<?xml version="1.0" encoding="UTF-8"?>
<svg xmlns="http://www.w3.org/2000/svg" xmlns:xlink="http://www.w3.org/1999/xlink" width="28px" height="28px" viewBox="0 0 28 28" version="1.1">
<g id="surface1">
<path style="fill-rule:nonzero;fill:rgb(92.941176%,41.176471%,36.078431%);fill-opacity:1;stroke-width:1.94;stroke-linecap:butt;stroke-linejoin:miter;stroke:rgb(92.941176%,41.176471%,36.078431%);stroke-opacity:1;stroke-miterlimit:22.9256;" d="M 4.360184 66.059616 C 18.6151 56.385928 32.747866 46.787523 46.953921 37.151476 C 32.723436 26.975911 18.602885 16.888175 4.360184 6.725157 C 4.360184 26.561863 4.360184 46.222911 4.360184 66.047069 Z M 2.662298 71.053296 C 1.770602 70.877639 1.086562 70.275386 0.988842 69.447288 C 0.952197 69.233991 0.964412 69.03324 0.964412 68.819942 C 0.964412 47.176478 0.964412 25.545561 0.964412 3.88955 C 0.964412 3.789175 0.964412 3.676252 0.964412 3.575877 C 0.952197 2.848154 1.233142 2.296089 1.880538 1.944775 C 2.540148 1.606008 3.175328 1.731477 3.737219 2.145526 C 6.009211 3.764081 8.293417 5.382635 10.565409 7.013737 C 23.794264 16.461579 37.023119 25.896875 50.264189 35.344718 C 50.435199 35.470187 50.593994 35.595656 50.765004 35.721126 C 51.913215 36.574317 51.913215 37.854105 50.728359 38.657109 C 48.334217 40.313304 45.940076 41.919312 43.533719 43.550413 C 30.378154 52.471285 17.234804 61.392156 4.091454 70.30048 C 3.639499 70.601606 3.114253 70.802357 2.650083 71.040749 Z M 2.662298 71.053296 " transform="matrix(0.319791,0,0,0.311331,0.000183528,2.5)"/>
<path style="fill-rule:nonzero;fill:rgb(92.941176%,41.176471%,36.078431%);fill-opacity:1;stroke-width:0.81;stroke-linecap:butt;stroke-linejoin:miter;stroke:rgb(92.941176%,41.176471%,36.078431%);stroke-opacity:1;stroke-miterlimit:10;" d="M 4.360184 66.059616 C 18.6151 56.385928 32.747866 46.787523 46.953921 37.151476 C 32.723436 26.975911 18.602885 16.888175 4.360184 6.725157 C 4.360184 26.561863 4.360184 46.222911 4.360184 66.047069 Z M 2.662298 71.053296 C 1.770602 70.877639 1.086562 70.275386 0.988842 69.447288 C 0.952197 69.233991 0.964412 69.03324 0.964412 68.819942 C 0.964412 47.176478 0.964412 25.545561 0.964412 3.88955 C 0.964412 3.789175 0.964412 3.676252 0.964412 3.575877 C 0.952197 2.848154 1.233142 2.296089 1.880538 1.944775 C 2.540148 1.606008 3.175328 1.731477 3.737219 2.145526 C 6.009211 3.764081 8.293417 5.382635 10.565409 7.013737 C 23.794264 16.461579 37.023119 25.896875 50.264189 35.344718 C 50.435199 35.470187 50.593994 35.595656 50.765004 35.721126 C 51.913215 36.574317 51.913215 37.854105 50.728359 38.657109 C 48.334217 40.313304 45.940076 41.919312 43.533719 43.550413 C 30.378154 52.471285 17.234804 61.392156 4.091454 70.30048 C 3.639499 70.601606 3.114253 70.802357 2.650083 71.040749 Z M 2.662298 71.053296 " transform="matrix(0.319791,0,0,0.311331,0.000183528,2.5)"/>
<path style="fill-rule:nonzero;fill:rgb(92.941176%,41.176471%,36.078431%);fill-opacity:1;stroke-width:1.94;stroke-linecap:butt;stroke-linejoin:miter;stroke:rgb(92.941176%,41.176471%,36.078431%);stroke-opacity:1;stroke-miterlimit:22.9256;" d="M 62.503628 36.386113 C 62.503628 45.269344 62.503628 54.152574 62.503628 63.035804 C 62.503628 66.360742 64.60461 68.456081 67.939307 68.468627 C 71.054134 68.481174 74.144532 68.481174 77.259359 68.468627 C 80.630702 68.456081 82.743898 66.335648 82.743898 62.985617 C 82.743898 45.269344 82.743898 27.565617 82.743898 9.849344 C 82.743898 6.436578 80.630702 4.34124 77.198284 4.34124 C 74.205607 4.328693 71.200715 4.416521 68.195822 4.316146 C 64.82448 4.21577 62.418123 6.587141 62.454768 10.075189 C 62.564703 18.845497 62.503628 27.615805 62.503628 36.39866 Z M 86.103026 36.386113 C 86.103026 45.219156 86.103026 54.052198 86.103026 62.885241 C 86.103026 68.267876 82.524028 71.818659 77.124994 71.831206 C 74.046812 71.831206 70.956414 71.831206 67.878232 71.831206 C 62.784573 71.818659 59.107856 68.217689 59.107856 63.13618 C 59.095641 45.319531 59.095641 27.502883 59.107856 9.686234 C 59.107856 4.592178 62.772358 0.978661 67.866017 0.966114 C 71.041919 0.966114 74.217822 0.966114 77.430369 0.966114 C 82.450738 0.991208 86.103026 4.629819 86.103026 9.66114 C 86.115241 18.569465 86.103026 27.465242 86.103026 36.386113 Z M 86.103026 36.386113 " transform="matrix(0.319791,0,0,0.311331,0.000183528,2.5)"/>
<path style="fill-rule:nonzero;fill:rgb(92.941176%,41.176471%,36.078431%);fill-opacity:1;stroke-width:0.81;stroke-linecap:butt;stroke-linejoin:miter;stroke:rgb(92.941176%,41.176471%,36.078431%);stroke-opacity:1;stroke-miterlimit:10;" d="M 62.503628 36.386113 C 62.503628 45.269344 62.503628 54.152574 62.503628 63.035804 C 62.503628 66.360742 64.60461 68.456081 67.939307 68.468627 C 71.054134 68.481174 74.144532 68.481174 77.259359 68.468627 C 80.630702 68.456081 82.743898 66.335648 82.743898 62.985617 C 82.743898 45.269344 82.743898 27.565617 82.743898 9.849344 C 82.743898 6.436578 80.630702 4.34124 77.198284 4.34124 C 74.205607 4.328693 71.200715 4.416521 68.195822 4.316146 C 64.82448 4.21577 62.418123 6.587141 62.454768 10.075189 C 62.564703 18.845497 62.503628 27.615805 62.503628 36.39866 Z M 86.103026 36.386113 C 86.103026 45.219156 86.103026 54.052198 86.103026 62.885241 C 86.103026 68.267876 82.524028 71.818659 77.124994 71.831206 C 74.046812 71.831206 70.956414 71.831206 67.878232 71.831206 C 62.784573 71.818659 59.107856 68.217689 59.107856 63.13618 C 59.095641 45.319531 59.095641 27.502883 59.107856 9.686234 C 59.107856 4.592178 62.772358 0.978661 67.866017 0.966114 C 71.041919 0.966114 74.217822 0.966114 77.430369 0.966114 C 82.450738 0.991208 86.103026 4.629819 86.103026 9.66114 C 86.115241 18.569465 86.103026 27.465242 86.103026 36.386113 Z M 86.103026 36.386113 " transform="matrix(0.319791,0,0,0.311331,0.000183528,2.5)"/>
</g>
</svg>
