<?xml version="1.0" encoding="UTF-8"?>
<svg xmlns="http://www.w3.org/2000/svg" xmlns:xlink="http://www.w3.org/1999/xlink" width="28px" height="28px" viewBox="0 0 28 23" version="1.1">
<g id="surface1">
<path style="fill-rule:nonzero;fill:rgb(92.941176%,41.176471%,36.078431%);fill-opacity:1;stroke-width:1.94;stroke-linecap:butt;stroke-linejoin:miter;stroke:rgb(92.941176%,41.176471%,36.078431%);stroke-opacity:1;stroke-miterlimit:22.9256;" d="M 4.360189 66.059706 C 18.615121 56.386006 32.747902 46.787587 46.953974 37.151527 C 32.723472 26.975949 18.602906 16.888198 4.360189 6.725167 C 4.360189 26.561899 4.360189 46.222974 4.360189 66.04716 Z M 2.662301 71.053394 C 1.770604 70.877736 1.086563 70.275483 0.988843 69.447384 C 0.952198 69.234086 0.964413 69.033334 0.964413 68.820036 C 0.964413 47.176543 0.964413 25.545596 0.964413 3.889555 C 0.964413 3.78918 0.964413 3.676257 0.964413 3.575882 C 0.952198 2.848158 1.233143 2.296092 1.88054 1.944778 C 2.540151 1.60601 3.175332 1.731479 3.737223 2.145529 C 6.009217 3.764086 8.293427 5.382643 10.565421 7.013747 C 23.794291 16.461602 37.02316 25.896911 50.264245 35.344766 C 50.435255 35.470236 50.594051 35.595705 50.765061 35.721175 C 51.913273 36.574367 51.913273 37.854157 50.728416 38.657162 C 48.334271 40.313359 45.940127 41.919369 43.533767 43.550473 C 30.378188 52.471357 17.234823 61.39224 4.091459 70.300577 C 3.639503 70.601703 3.114257 70.802455 2.650086 71.040847 Z M 2.662301 71.053394 " transform="matrix(0.319791,0,0,0.311331,0.000183528,0)"/>
<path style="fill-rule:nonzero;fill:rgb(92.941176%,41.176471%,36.078431%);fill-opacity:1;stroke-width:0.81;stroke-linecap:butt;stroke-linejoin:miter;stroke:rgb(92.941176%,41.176471%,36.078431%);stroke-opacity:1;stroke-miterlimit:10;" d="M 4.360189 66.059706 C 18.615121 56.386006 32.747902 46.787587 46.953974 37.151527 C 32.723472 26.975949 18.602906 16.888198 4.360189 6.725167 C 4.360189 26.561899 4.360189 46.222974 4.360189 66.04716 Z M 2.662301 71.053394 C 1.770604 70.877736 1.086563 70.275483 0.988843 69.447384 C 0.952198 69.234086 0.964413 69.033334 0.964413 68.820036 C 0.964413 47.176543 0.964413 25.545596 0.964413 3.889555 C 0.964413 3.78918 0.964413 3.676257 0.964413 3.575882 C 0.952198 2.848158 1.233143 2.296092 1.88054 1.944778 C 2.540151 1.60601 3.175332 1.731479 3.737223 2.145529 C 6.009217 3.764086 8.293427 5.382643 10.565421 7.013747 C 23.794291 16.461602 37.02316 25.896911 50.264245 35.344766 C 50.435255 35.470236 50.594051 35.595705 50.765061 35.721175 C 51.913273 36.574367 51.913273 37.854157 50.728416 38.657162 C 48.334271 40.313359 45.940127 41.919369 43.533767 43.550473 C 30.378188 52.471357 17.234823 61.39224 4.091459 70.300577 C 3.639503 70.601703 3.114257 70.802455 2.650086 71.040847 Z M 2.662301 71.053394 " transform="matrix(0.319791,0,0,0.311331,0.000183528,0)"/>
<path style="fill-rule:nonzero;fill:rgb(92.941176%,41.176471%,36.078431%);fill-opacity:1;stroke-width:1.94;stroke-linecap:butt;stroke-linejoin:miter;stroke:rgb(92.941176%,41.176471%,36.078431%);stroke-opacity:1;stroke-miterlimit:22.9256;" d="M 62.503698 36.386163 C 62.503698 45.269406 62.503698 54.152648 62.503698 63.035891 C 62.503698 66.360833 64.604682 68.456174 67.939383 68.468721 C 71.054214 68.481268 74.144615 68.481268 77.259445 68.468721 C 80.630792 68.456174 82.743991 66.335739 82.743991 62.985703 C 82.743991 45.269406 82.743991 27.565655 82.743991 9.849358 C 82.743991 6.436587 80.630792 4.341246 77.19837 4.341246 C 74.20569 4.328699 71.200794 4.416527 68.195899 4.316152 C 64.824552 4.215776 62.418193 6.58715 62.454838 10.075203 C 62.564773 18.845523 62.503698 27.615843 62.503698 36.39871 Z M 86.103122 36.386163 C 86.103122 45.219218 86.103122 54.052273 86.103122 62.885327 C 86.103122 68.26797 82.52412 71.818758 77.12508 71.831305 C 74.046894 71.831305 70.956494 71.831305 67.878308 71.831305 C 62.784643 71.818758 59.107922 68.217782 59.107922 63.136266 C 59.095707 45.319593 59.095707 27.502921 59.107922 9.686248 C 59.107922 4.592185 62.772428 0.978662 67.866093 0.966115 C 71.041999 0.966115 74.217905 0.966115 77.430456 0.966115 C 82.45083 0.991209 86.103122 4.629826 86.103122 9.661154 C 86.115337 18.56949 86.103122 27.46528 86.103122 36.386163 Z M 86.103122 36.386163 " transform="matrix(0.319791,0,0,0.311331,0.000183528,0)"/>
<path style="fill-rule:nonzero;fill:rgb(92.941176%,41.176471%,36.078431%);fill-opacity:1;stroke-width:0.81;stroke-linecap:butt;stroke-linejoin:miter;stroke:rgb(92.941176%,41.176471%,36.078431%);stroke-opacity:1;stroke-miterlimit:10;" d="M 62.503698 36.386163 C 62.503698 45.269406 62.503698 54.152648 62.503698 63.035891 C 62.503698 66.360833 64.604682 68.456174 67.939383 68.468721 C 71.054214 68.481268 74.144615 68.481268 77.259445 68.468721 C 80.630792 68.456174 82.743991 66.335739 82.743991 62.985703 C 82.743991 45.269406 82.743991 27.565655 82.743991 9.849358 C 82.743991 6.436587 80.630792 4.341246 77.19837 4.341246 C 74.20569 4.328699 71.200794 4.416527 68.195899 4.316152 C 64.824552 4.215776 62.418193 6.58715 62.454838 10.075203 C 62.564773 18.845523 62.503698 27.615843 62.503698 36.39871 Z M 86.103122 36.386163 C 86.103122 45.219218 86.103122 54.052273 86.103122 62.885327 C 86.103122 68.26797 82.52412 71.818758 77.12508 71.831305 C 74.046894 71.831305 70.956494 71.831305 67.878308 71.831305 C 62.784643 71.818758 59.107922 68.217782 59.107922 63.136266 C 59.095707 45.319593 59.095707 27.502921 59.107922 9.686248 C 59.107922 4.592185 62.772428 0.978662 67.866093 0.966115 C 71.041999 0.966115 74.217905 0.966115 77.430456 0.966115 C 82.45083 0.991209 86.103122 4.629826 86.103122 9.661154 C 86.115337 18.56949 86.103122 27.46528 86.103122 36.386163 Z M 86.103122 36.386163 " transform="matrix(0.319791,0,0,0.311331,0.000183528,0)"/>
</g>
</svg>
