<?xml version="1.0" encoding="UTF-8"?>
<svg xmlns="http://www.w3.org/2000/svg" xmlns:xlink="http://www.w3.org/1999/xlink" width="28px" height="28px" viewBox="0 0 28 39" version="1.1">
<g id="surface1">
<path style=" stroke:none;fill-rule:nonzero;fill:rgb(92.941176%,41.176471%,36.078431%);fill-opacity:1;" d="M 13.992188 37.53125 C 7.207031 37.511719 1.726562 32.078125 1.75 25.40625 C 1.773438 18.730469 7.300781 13.347656 14.085938 13.367188 C 20.875 13.390625 26.351562 18.824219 26.328125 25.484375 C 26.269531 32.148438 20.769531 37.511719 13.992188 37.53125 Z M 6.046875 9.542969 C 6.046875 5.226562 9.605469 1.730469 13.992188 1.730469 C 18.382812 1.730469 21.9375 5.226562 21.9375 9.542969 L 21.9375 14.175781 C 17.15625 10.921875 10.832031 10.921875 6.046875 14.175781 Z M 23.59375 15.476562 L 23.59375 9.542969 C 23.652344 4.328125 19.390625 0.0585938 14.097656 0 C 8.792969 -0.0585938 4.449219 4.132812 4.402344 9.335938 C 4.402344 9.40625 4.402344 9.464844 4.402344 9.53125 L 4.402344 15.464844 C 1.601562 18.027344 0.015625 21.625 0.015625 25.394531 C -0.0195312 32.988281 6.210938 39.171875 13.9375 39.21875 C 21.660156 39.253906 27.949219 33.136719 27.996094 25.542969 C 28.019531 21.738281 26.433594 18.082031 23.605469 15.476562 Z M 23.59375 15.476562 "/>
<path style=" stroke:none;fill-rule:nonzero;fill:rgb(92.941176%,41.176471%,36.078431%);fill-opacity:1;" d="M 13.992188 24.585938 C 12.660156 24.585938 11.597656 23.527344 11.597656 22.226562 C 11.597656 20.929688 12.671875 19.871094 13.992188 19.871094 C 15.3125 19.871094 16.390625 20.929688 16.390625 22.226562 C 16.390625 23.527344 15.3125 24.585938 13.992188 24.585938 Z M 13.992188 18.242188 C 11.757812 18.242188 9.941406 20.03125 9.941406 22.238281 C 9.941406 24.128906 11.285156 25.746094 13.160156 26.132812 L 13.160156 31.828125 C 13.160156 32.273438 13.53125 32.636719 13.980469 32.636719 C 14.433594 32.636719 14.804688 32.273438 14.804688 31.828125 L 14.804688 26.132812 C 16.992188 25.679688 18.40625 23.570312 17.945312 21.410156 C 17.550781 19.5625 15.894531 18.242188 13.980469 18.242188 Z M 13.992188 18.242188 "/>
</g>
</svg>
