<?xml version="1.0" encoding="UTF-8"?>
<svg xmlns="http://www.w3.org/2000/svg" xmlns:xlink="http://www.w3.org/1999/xlink" width="28px" height="28px" viewBox="0 0 28 28" version="1.1">
<g id="surface1">
<path style=" stroke:none;fill-rule:nonzero;fill:rgb(92.941176%,41.176471%,36.078431%);fill-opacity:1;" d="M 13.996094 26.945312 C 9.121094 26.929688 5.1875 23.03125 5.207031 18.242188 C 5.222656 13.449219 9.191406 9.582031 14.0625 9.597656 C 18.9375 9.613281 22.867188 13.515625 22.851562 18.296875 C 22.808594 23.082031 18.859375 26.929688 13.996094 26.945312 Z M 8.289062 6.851562 C 8.289062 3.753906 10.84375 1.242188 13.996094 1.242188 C 17.148438 1.242188 19.699219 3.753906 19.699219 6.851562 L 19.699219 10.175781 C 16.265625 7.839844 11.726562 7.839844 8.289062 10.175781 Z M 20.886719 11.113281 L 20.886719 6.851562 C 20.929688 3.105469 17.871094 0.0429688 14.070312 0 C 10.261719 -0.0429688 7.144531 2.96875 7.109375 6.703125 C 7.109375 6.753906 7.109375 6.796875 7.109375 6.84375 L 7.109375 11.101562 C 5.097656 12.941406 3.960938 15.527344 3.960938 18.230469 C 3.933594 23.683594 8.40625 28.125 13.957031 28.15625 C 19.5 28.183594 24.015625 23.789062 24.046875 18.339844 C 24.066406 15.605469 22.925781 12.980469 20.894531 11.113281 Z M 20.886719 11.113281 "/>
<path style=" stroke:none;fill-rule:nonzero;fill:rgb(92.941176%,41.176471%,36.078431%);fill-opacity:1;" d="M 13.996094 17.652344 C 13.039062 17.652344 12.273438 16.890625 12.273438 15.957031 C 12.273438 15.027344 13.046875 14.265625 13.996094 14.265625 C 14.941406 14.265625 15.714844 15.027344 15.714844 15.957031 C 15.714844 16.890625 14.941406 17.652344 13.996094 17.652344 Z M 13.996094 13.097656 C 12.390625 13.097656 11.085938 14.382812 11.085938 15.964844 C 11.085938 17.324219 12.050781 18.484375 13.398438 18.761719 L 13.398438 22.851562 C 13.398438 23.171875 13.664062 23.429688 13.984375 23.429688 C 14.3125 23.429688 14.578125 23.171875 14.578125 22.851562 L 14.578125 18.761719 C 16.148438 18.4375 17.164062 16.921875 16.832031 15.371094 C 16.550781 14.042969 15.359375 13.097656 13.984375 13.097656 Z M 13.996094 13.097656 "/>
</g>
</svg>
