<?xml version="1.0" encoding="UTF-8"?>
<svg xmlns="http://www.w3.org/2000/svg" xmlns:xlink="http://www.w3.org/1999/xlink" width="28px" height="28px" viewBox="0 0 28 39" version="1.1">
<g id="surface1">
<path style=" stroke:none;fill-rule:nonzero;fill:rgb(92.941176%,41.176471%,36.078431%);fill-opacity:1;" d="M 13.988281 37.539062 C 7.007812 37.511719 1.410156 31.773438 1.757812 24.839844 C 2.066406 18.648438 7.199219 13.648438 13.488281 13.378906 C 20.539062 13.082031 26.335938 18.628906 26.308594 25.484375 C 26.246094 32.140625 20.75 37.511719 13.980469 37.527344 Z M 23.671875 15.5625 C 22.90625 14.882812 21.898438 14.164062 21.640625 13.996094 C 16.898438 10.933594 10.722656 10.988281 6.042969 14.183594 L 6.042969 9.546875 C 6.042969 5.234375 9.601562 1.738281 13.988281 1.738281 C 18.375 1.738281 21.933594 5.226562 21.933594 9.546875 C 21.933594 9.546875 21.933594 9.546875 21.933594 9.558594 L 21.933594 10.570312 L 23.589844 10.570312 L 23.589844 9.558594 C 23.644531 4.339844 19.382812 0.0742188 14.089844 0.0195312 C 8.78125 -0.0351562 4.441406 4.152344 4.386719 9.359375 C 4.386719 9.421875 4.386719 9.484375 4.386719 9.558594 L 4.386719 15.488281 C 1.582031 18.058594 -0.0078125 21.65625 0 25.421875 C -0.0351562 33.019531 6.1875 39.203125 13.914062 39.246094 C 21.640625 39.28125 27.929688 33.160156 27.976562 25.566406 C 27.992188 21.796875 26.4375 18.183594 23.671875 15.578125 Z M 23.671875 15.5625 "/>
<path style=" stroke:none;fill-rule:nonzero;fill:rgb(92.941176%,41.176471%,36.078431%);fill-opacity:1;" d="M 13.988281 24.597656 C 12.667969 24.597656 11.585938 23.542969 11.585938 22.238281 C 11.585938 20.9375 12.660156 19.875 13.988281 19.875 C 15.316406 19.875 16.390625 20.929688 16.390625 22.238281 C 16.390625 23.542969 15.316406 24.597656 13.988281 24.597656 Z M 13.988281 18.246094 C 11.75 18.246094 9.9375 20.035156 9.9375 22.238281 C 9.9375 24.125 11.285156 25.746094 13.160156 26.136719 L 13.160156 31.828125 C 13.160156 32.277344 13.53125 32.644531 13.988281 32.644531 C 14.441406 32.644531 14.816406 32.277344 14.816406 31.828125 L 14.816406 26.136719 C 17.007812 25.691406 18.410156 23.570312 17.957031 21.414062 C 17.566406 19.570312 15.910156 18.246094 13.988281 18.246094 Z M 13.988281 18.246094 "/>
<path style=" stroke:none;fill-rule:nonzero;fill:rgb(92.941176%,41.176471%,36.078431%);fill-opacity:1;" d="M 23.597656 10.488281 C 23.597656 10.933594 23.226562 11.300781 22.769531 11.300781 C 22.316406 11.300781 21.941406 10.933594 21.941406 10.488281 C 21.941406 10.039062 22.316406 9.675781 22.769531 9.675781 C 23.226562 9.675781 23.597656 10.039062 23.597656 10.488281 Z M 23.597656 10.488281 "/>
</g>
</svg>
