<?xml version="1.0" encoding="UTF-8"?>
<svg xmlns="http://www.w3.org/2000/svg" xmlns:xlink="http://www.w3.org/1999/xlink" width="28px" height="28px" viewBox="0 0 28 28" version="1.1">
<g id="surface1">
<path style=" stroke:none;fill-rule:nonzero;fill:rgb(92.941176%,41.176471%,36.078431%);fill-opacity:1;" d="M 14.867188 19.765625 C 14.867188 20.257812 14.464844 20.660156 13.972656 20.660156 C 13.476562 20.660156 13.074219 20.257812 13.074219 19.765625 L 13.074219 16.667969 C 13.074219 16.167969 13.472656 15.769531 13.972656 15.769531 C 14.464844 15.769531 14.867188 16.167969 14.867188 16.667969 Z M 13.972656 14.464844 C 12.753906 14.464844 11.765625 15.449219 11.765625 16.667969 L 11.765625 19.765625 C 11.765625 20.980469 12.753906 21.96875 13.972656 21.96875 C 15.183594 21.96875 16.171875 20.980469 16.171875 19.765625 L 16.171875 16.667969 C 16.171875 15.449219 15.183594 14.464844 13.972656 14.464844 Z M 13.972656 14.464844 "/>
<path style=" stroke:none;fill-rule:nonzero;fill:rgb(92.941176%,41.176471%,36.078431%);fill-opacity:1;" d="M 24.164062 24.292969 C 24.164062 25.710938 23.015625 26.859375 21.597656 26.859375 L 6.335938 26.859375 C 4.925781 26.859375 3.777344 25.710938 3.777344 24.292969 L 3.777344 14.199219 C 3.777344 12.789062 4.925781 11.640625 6.335938 11.640625 L 21.597656 11.640625 C 23.015625 11.640625 24.164062 12.789062 24.164062 14.199219 Z M 22.367188 10.410156 C 22.210938 10.355469 21.066406 10.328125 21.066406 10.328125 L 6.875 10.328125 L 6.875 7.628906 C 6.875 4.140625 10.0625 1.304688 13.972656 1.304688 C 17.773438 1.304688 20.882812 3.976562 21.058594 7.320312 L 21.058594 7.335938 C 21.058594 7.695312 21.351562 7.988281 21.710938 7.988281 C 22.070312 7.988281 22.359375 7.695312 22.359375 7.335938 L 22.359375 7.316406 C 22.179688 3.25 18.492188 -0.00390625 13.972656 -0.00390625 C 9.339844 -0.00390625 5.570312 3.417969 5.570312 7.625 L 5.570312 10.40625 C 3.765625 10.769531 2.46875 12.347656 2.46875 14.195312 L 2.46875 24.289062 C 2.46875 26.417969 4.203125 28.15625 6.335938 28.15625 L 21.597656 28.15625 C 23.734375 28.15625 25.46875 26.421875 25.46875 24.289062 L 25.46875 14.191406 C 25.46875 12.34375 24.171875 10.765625 22.367188 10.402344 Z M 22.367188 10.410156 "/>
</g>
</svg>
