<?xml version="1.0" encoding="UTF-8"?>
<svg xmlns="http://www.w3.org/2000/svg" xmlns:xlink="http://www.w3.org/1999/xlink" width="28px" height="28px" viewBox="0 0 28 34" version="1.1">
<g id="surface1">
<path style=" stroke:none;fill-rule:nonzero;fill:rgb(92.941176%,41.176471%,36.078431%);fill-opacity:1;" d="M 15.054688 24 C 15.054688 24.597656 14.566406 25.085938 13.964844 25.085938 C 13.363281 25.085938 12.875 24.597656 12.875 24 L 12.875 20.238281 C 12.875 19.632812 13.359375 19.148438 13.964844 19.148438 C 14.566406 19.148438 15.054688 19.632812 15.054688 20.238281 Z M 13.964844 17.5625 C 12.488281 17.5625 11.289062 18.761719 11.289062 20.238281 L 11.289062 24 C 11.289062 25.476562 12.488281 26.675781 13.964844 26.675781 C 15.4375 26.675781 16.636719 25.476562 16.636719 24 L 16.636719 20.238281 C 16.636719 18.761719 15.4375 17.5625 13.964844 17.5625 Z M 13.964844 17.5625 "/>
<path style=" stroke:none;fill-rule:nonzero;fill:rgb(92.941176%,41.176471%,36.078431%);fill-opacity:1;" d="M 26.339844 29.5 C 26.339844 31.21875 24.945312 32.617188 23.226562 32.617188 L 4.695312 32.617188 C 2.980469 32.617188 1.585938 31.21875 1.585938 29.5 L 1.585938 17.242188 C 1.585938 15.53125 2.980469 14.132812 4.695312 14.132812 L 23.226562 14.132812 C 24.945312 14.132812 26.339844 15.53125 26.339844 17.242188 Z M 24.160156 12.640625 C 23.96875 12.574219 22.582031 12.542969 22.582031 12.542969 L 5.347656 12.542969 L 5.347656 9.261719 C 5.347656 5.027344 9.21875 1.585938 13.96875 1.585938 C 18.582031 1.585938 22.355469 4.828125 22.570312 8.886719 L 22.570312 8.90625 C 22.570312 9.34375 22.925781 9.699219 23.363281 9.699219 C 23.800781 9.699219 24.152344 9.34375 24.152344 8.90625 L 24.152344 8.882812 C 23.933594 3.945312 19.453125 -0.00390625 13.964844 -0.00390625 C 8.339844 -0.00390625 3.765625 4.148438 3.765625 9.257812 L 3.765625 12.636719 C 1.574219 13.078125 0 14.992188 0 17.238281 L 0 29.492188 C 0 32.078125 2.105469 34.191406 4.695312 34.191406 L 23.226562 34.191406 C 25.820312 34.191406 27.925781 32.085938 27.925781 29.492188 L 27.925781 17.234375 C 27.925781 14.988281 26.351562 13.074219 24.160156 12.632812 Z M 24.160156 12.640625 "/>
</g>
</svg>
