<?xml version="1.0" encoding="UTF-8"?>
<svg xmlns="http://www.w3.org/2000/svg" xmlns:xlink="http://www.w3.org/1999/xlink" width="28px" height="28px" viewBox="0 0 28 34" version="1.1">
<g id="surface1">
<path style=" stroke:none;fill-rule:nonzero;fill:rgb(92.941176%,41.176471%,36.078431%);fill-opacity:1;" d="M 24.03125 12.761719 L 24.03125 9.222656 C 24.03125 4.179688 19.507812 0.0820312 13.949219 0.0820312 C 8.390625 0.0820312 3.863281 4.179688 3.863281 9.222656 L 3.863281 12.761719 C 1.71875 13.128906 0.0820312 14.996094 0.0820312 17.25 L 0.0820312 29.566406 C 0.0820312 32.078125 2.125 34.121094 4.632812 34.121094 L 23.261719 34.121094 C 25.773438 34.121094 27.8125 32.074219 27.8125 29.566406 L 27.8125 17.246094 C 27.8125 14.996094 26.175781 13.128906 24.03125 12.761719 Z M 5.121094 9.222656 C 5.121094 4.878906 9.082031 1.34375 13.945312 1.34375 C 18.8125 1.34375 22.769531 4.878906 22.769531 9.222656 L 22.769531 12.691406 L 5.117188 12.691406 L 5.117188 9.222656 Z M 26.554688 29.566406 C 26.554688 31.382812 25.074219 32.863281 23.261719 32.863281 L 4.632812 32.863281 C 2.820312 32.863281 1.339844 31.382812 1.339844 29.566406 L 1.339844 17.246094 C 1.339844 15.425781 2.820312 13.949219 4.632812 13.949219 L 23.261719 13.949219 C 25.074219 13.949219 26.554688 15.425781 26.554688 17.246094 Z M 26.554688 29.566406 "/>
<path style=" stroke:none;fill-rule:nonzero;fill:rgb(92.941176%,41.176471%,36.078431%);fill-opacity:1;" d="M 5.199219 12.609375 L 22.695312 12.609375 L 22.695312 9.222656 C 22.695312 4.925781 18.769531 1.425781 13.949219 1.425781 C 9.128906 1.425781 5.203125 4.921875 5.203125 9.222656 L 5.203125 12.609375 Z M 22.855469 12.769531 L 5.042969 12.769531 L 5.042969 9.222656 C 5.042969 4.835938 9.039062 1.265625 13.949219 1.265625 C 18.859375 1.265625 22.855469 4.835938 22.855469 9.222656 Z M 4.632812 14.035156 C 2.863281 14.035156 1.421875 15.476562 1.421875 17.25 L 1.421875 29.570312 C 1.421875 31.34375 2.863281 32.789062 4.632812 32.789062 L 23.261719 32.789062 C 25.035156 32.789062 26.476562 31.34375 26.476562 29.570312 L 26.476562 17.25 C 26.476562 15.476562 25.03125 14.035156 23.261719 14.035156 Z M 23.261719 32.945312 L 4.632812 32.945312 C 2.773438 32.945312 1.261719 31.429688 1.261719 29.566406 L 1.261719 17.246094 C 1.261719 15.382812 2.773438 13.871094 4.632812 13.871094 L 23.261719 13.871094 C 25.121094 13.871094 26.636719 15.382812 26.636719 17.246094 L 26.636719 29.566406 C 26.636719 31.429688 25.121094 32.945312 23.261719 32.945312 Z M 13.949219 0.164062 C 8.429688 0.164062 3.941406 4.230469 3.941406 9.226562 L 3.941406 12.832031 L 3.878906 12.84375 C 1.726562 13.214844 0.160156 15.066406 0.160156 17.253906 L 0.160156 29.574219 C 0.160156 32.042969 2.167969 34.046875 4.632812 34.046875 L 23.261719 34.046875 C 25.726562 34.046875 27.734375 32.042969 27.734375 29.574219 L 27.734375 17.25 C 27.734375 15.066406 26.167969 13.214844 24.015625 12.84375 L 23.949219 12.832031 L 23.949219 9.226562 C 23.949219 4.230469 19.460938 0.164062 13.945312 0.164062 Z M 23.261719 34.203125 L 4.632812 34.203125 C 2.078125 34.203125 0 32.125 0 29.566406 L 0 17.25 C 0 15.007812 1.585938 13.105469 3.78125 12.691406 L 3.78125 9.222656 C 3.78125 4.136719 8.34375 0 13.949219 0 C 19.554688 0 24.113281 4.136719 24.113281 9.222656 L 24.113281 12.691406 C 26.308594 13.101562 27.894531 15.007812 27.894531 17.246094 L 27.894531 29.566406 C 27.894531 32.121094 25.816406 34.203125 23.261719 34.203125 Z M 23.261719 34.203125 "/>
<path style=" stroke:none;fill-rule:nonzero;fill:rgb(92.941176%,41.176471%,36.078431%);fill-opacity:1;" d="M 13.949219 17.730469 C 12.558594 17.730469 11.425781 18.863281 11.425781 20.253906 L 11.425781 24.03125 C 11.425781 25.421875 12.558594 26.554688 13.949219 26.554688 C 15.335938 26.554688 16.472656 25.421875 16.472656 24.03125 L 16.472656 20.253906 C 16.472656 18.859375 15.335938 17.730469 13.949219 17.730469 Z M 15.210938 24.035156 C 15.210938 24.730469 14.644531 25.296875 13.949219 25.296875 C 13.257812 25.296875 12.691406 24.730469 12.691406 24.035156 L 12.691406 20.257812 C 12.691406 19.558594 13.253906 18.992188 13.949219 18.992188 C 14.644531 18.992188 15.210938 19.554688 15.210938 20.257812 Z M 15.210938 24.035156 "/>
<path style=" stroke:none;fill-rule:nonzero;fill:rgb(92.941176%,41.176471%,36.078431%);fill-opacity:1;" d="M 13.949219 19.074219 C 13.300781 19.074219 12.769531 19.601562 12.769531 20.257812 L 12.769531 24.035156 C 12.769531 24.683594 13.300781 25.214844 13.949219 25.214844 C 14.601562 25.214844 15.128906 24.683594 15.128906 24.035156 L 15.128906 20.257812 C 15.128906 19.601562 14.601562 19.074219 13.949219 19.074219 Z M 13.949219 25.375 C 13.210938 25.375 12.609375 24.773438 12.609375 24.035156 L 12.609375 20.257812 C 12.609375 19.515625 13.210938 18.910156 13.949219 18.910156 C 14.691406 18.910156 15.292969 19.511719 15.292969 20.257812 L 15.292969 24.035156 C 15.292969 24.773438 14.691406 25.375 13.949219 25.375 Z M 13.949219 17.8125 C 12.601562 17.8125 11.507812 18.910156 11.507812 20.257812 L 11.507812 24.035156 C 11.507812 25.382812 12.601562 26.480469 13.949219 26.480469 C 15.296875 26.480469 16.390625 25.382812 16.390625 24.035156 L 16.390625 20.257812 C 16.390625 18.910156 15.292969 17.8125 13.949219 17.8125 Z M 13.949219 26.640625 C 12.511719 26.640625 11.34375 25.472656 11.34375 24.035156 L 11.34375 20.257812 C 11.34375 18.820312 12.511719 17.652344 13.949219 17.652344 C 15.382812 17.652344 16.550781 18.820312 16.550781 20.257812 L 16.550781 24.035156 C 16.550781 25.472656 15.382812 26.640625 13.949219 26.640625 Z M 13.949219 26.640625 "/>
</g>
</svg>
