<?xml version="1.0" encoding="UTF-8"?>
<svg xmlns="http://www.w3.org/2000/svg" xmlns:xlink="http://www.w3.org/1999/xlink" width="28px" height="28px" viewBox="0 0 28 28" version="1.1">
<g id="surface1">
<path style=" stroke:none;fill-rule:nonzero;fill:rgb(92.941176%,41.176471%,36.078431%);fill-opacity:1;" d="M 22.261719 10.507812 L 22.261719 7.59375 C 22.261719 3.441406 18.535156 0.0664062 13.957031 0.0664062 C 9.378906 0.0664062 5.652344 3.441406 5.652344 7.59375 L 5.652344 10.507812 C 3.886719 10.8125 2.539062 12.351562 2.539062 14.207031 L 2.539062 24.347656 C 2.539062 26.417969 4.21875 28.101562 6.285156 28.101562 L 21.628906 28.101562 C 23.695312 28.101562 25.375 26.414062 25.375 24.347656 L 25.375 14.203125 C 25.375 12.351562 24.027344 10.8125 22.261719 10.507812 Z M 6.6875 7.59375 C 6.6875 4.019531 9.949219 1.105469 13.953125 1.105469 C 17.964844 1.105469 21.222656 4.019531 21.222656 7.59375 L 21.222656 10.453125 L 6.683594 10.453125 L 6.683594 7.59375 Z M 24.339844 24.347656 C 24.339844 25.84375 23.121094 27.0625 21.628906 27.0625 L 6.285156 27.0625 C 4.792969 27.0625 3.574219 25.84375 3.574219 24.347656 L 3.574219 14.203125 C 3.574219 12.703125 4.792969 11.488281 6.285156 11.488281 L 21.628906 11.488281 C 23.121094 11.488281 24.339844 12.703125 24.339844 14.203125 Z M 24.339844 24.347656 "/>
<path style=" stroke:none;fill-rule:nonzero;fill:rgb(92.941176%,41.176471%,36.078431%);fill-opacity:1;" d="M 6.753906 10.382812 L 21.160156 10.382812 L 21.160156 7.59375 C 21.160156 4.054688 17.929688 1.175781 13.957031 1.175781 C 9.988281 1.175781 6.753906 4.054688 6.753906 7.59375 Z M 21.292969 10.515625 L 6.625 10.515625 L 6.625 7.59375 C 6.625 3.984375 9.914062 1.042969 13.957031 1.042969 C 18 1.042969 21.292969 3.984375 21.292969 7.59375 Z M 6.285156 11.558594 C 4.828125 11.558594 3.640625 12.746094 3.640625 14.207031 L 3.640625 24.351562 C 3.640625 25.8125 4.828125 27.003906 6.285156 27.003906 L 21.628906 27.003906 C 23.085938 27.003906 24.273438 25.8125 24.273438 24.351562 L 24.273438 14.207031 C 24.273438 12.746094 23.085938 11.558594 21.628906 11.558594 Z M 21.628906 27.132812 L 6.285156 27.132812 C 4.753906 27.132812 3.507812 25.882812 3.507812 24.347656 L 3.507812 14.203125 C 3.507812 12.667969 4.753906 11.421875 6.285156 11.421875 L 21.628906 11.421875 C 23.160156 11.421875 24.40625 12.667969 24.40625 14.203125 L 24.40625 24.347656 C 24.40625 25.882812 23.160156 27.132812 21.628906 27.132812 Z M 13.957031 0.136719 C 9.414062 0.136719 5.714844 3.484375 5.714844 7.597656 L 5.714844 10.566406 L 5.664062 10.578125 C 3.890625 10.882812 2.601562 12.40625 2.601562 14.210938 L 2.601562 24.355469 C 2.601562 26.386719 4.257812 28.039062 6.285156 28.039062 L 21.628906 28.039062 C 23.65625 28.039062 25.3125 26.386719 25.3125 24.355469 L 25.3125 14.207031 C 25.3125 12.40625 24.019531 10.882812 22.25 10.578125 L 22.195312 10.566406 L 22.195312 7.597656 C 22.195312 3.484375 18.496094 0.136719 13.953125 0.136719 Z M 21.628906 28.167969 L 6.285156 28.167969 C 4.183594 28.167969 2.46875 26.457031 2.46875 24.347656 L 2.46875 14.207031 C 2.46875 12.359375 3.777344 10.792969 5.585938 10.453125 L 5.585938 7.59375 C 5.585938 3.40625 9.34375 0 13.957031 0 C 18.574219 0 22.328125 3.40625 22.328125 7.59375 L 22.328125 10.453125 C 24.136719 10.789062 25.441406 12.359375 25.441406 14.203125 L 25.441406 24.347656 C 25.441406 26.453125 23.730469 28.167969 21.628906 28.167969 Z M 21.628906 28.167969 "/>
<path style=" stroke:none;fill-rule:nonzero;fill:rgb(92.941176%,41.176471%,36.078431%);fill-opacity:1;" d="M 13.957031 14.601562 C 12.8125 14.601562 11.878906 15.535156 11.878906 16.679688 L 11.878906 19.789062 C 11.878906 20.9375 12.8125 21.867188 13.957031 21.867188 C 15.101562 21.867188 16.035156 20.9375 16.035156 19.789062 L 16.035156 16.679688 C 16.035156 15.53125 15.101562 14.601562 13.957031 14.601562 Z M 14.996094 19.792969 C 14.996094 20.367188 14.53125 20.832031 13.957031 20.832031 C 13.390625 20.832031 12.921875 20.367188 12.921875 19.792969 L 12.921875 16.683594 C 12.921875 16.105469 13.386719 15.640625 13.957031 15.640625 C 14.53125 15.640625 14.996094 16.105469 14.996094 16.683594 Z M 14.996094 19.792969 "/>
<path style=" stroke:none;fill-rule:nonzero;fill:rgb(92.941176%,41.176471%,36.078431%);fill-opacity:1;" d="M 13.957031 15.707031 C 13.425781 15.707031 12.988281 16.140625 12.988281 16.683594 L 12.988281 19.792969 C 12.988281 20.328125 13.425781 20.765625 13.957031 20.765625 C 14.496094 20.765625 14.929688 20.328125 14.929688 19.792969 L 14.929688 16.683594 C 14.929688 16.140625 14.496094 15.707031 13.957031 15.707031 Z M 13.957031 20.898438 C 13.351562 20.898438 12.855469 20.402344 12.855469 19.792969 L 12.855469 16.683594 C 12.855469 16.070312 13.351562 15.574219 13.957031 15.574219 C 14.570312 15.574219 15.066406 16.070312 15.066406 16.683594 L 15.066406 19.792969 C 15.066406 20.402344 14.570312 20.898438 13.957031 20.898438 Z M 13.957031 14.667969 C 12.847656 14.667969 11.949219 15.574219 11.949219 16.683594 L 11.949219 19.792969 C 11.949219 20.902344 12.847656 21.808594 13.957031 21.808594 C 15.066406 21.808594 15.96875 20.902344 15.96875 19.792969 L 15.96875 16.683594 C 15.96875 15.574219 15.066406 14.667969 13.957031 14.667969 Z M 13.957031 21.9375 C 12.773438 21.9375 11.8125 20.976562 11.8125 19.792969 L 11.8125 16.683594 C 11.8125 15.5 12.773438 14.539062 13.957031 14.539062 C 15.140625 14.539062 16.101562 15.5 16.101562 16.683594 L 16.101562 19.792969 C 16.101562 20.976562 15.140625 21.9375 13.957031 21.9375 Z M 13.957031 21.9375 "/>
</g>
</svg>
