<?xml version="1.0" encoding="UTF-8"?>
<svg xmlns="http://www.w3.org/2000/svg" xmlns:xlink="http://www.w3.org/1999/xlink" width="28px" height="28px" viewBox="0 0 28 36" version="1.1">
<g id="surface1">
<path style=" stroke:none;fill-rule:nonzero;fill:rgb(92.941176%,41.176471%,36.078431%);fill-opacity:1;" d="M 2.34375 2.363281 L 2.34375 1.839844 L 25.21875 1.839844 L 25.21875 2.363281 C 25.21875 3.445312 24.328125 4.328125 23.238281 4.328125 L 4.324219 4.328125 C 3.230469 4.328125 2.34375 3.445312 2.34375 2.363281 Z M 11.632812 6.167969 L 15.929688 6.167969 L 15.347656 13.707031 L 12.21875 13.707031 Z M 20.441406 20.632812 C 20.320312 21.617188 19.476562 22.363281 18.472656 22.363281 L 9.089844 22.363281 C 8.085938 22.363281 7.242188 21.617188 7.121094 20.632812 L 5.371094 6.167969 L 9.769531 6.167969 L 10.433594 14.699219 C 10.46875 15.175781 10.875 15.546875 11.359375 15.546875 L 16.203125 15.546875 C 16.6875 15.546875 17.09375 15.175781 17.128906 14.699219 L 17.792969 6.167969 L 22.191406 6.167969 L 20.4375 20.632812 Z M 3.492188 6.082031 L 5.277344 20.851562 C 5.511719 22.761719 7.148438 24.203125 9.089844 24.203125 L 18.472656 24.203125 C 20.414062 24.203125 22.050781 22.761719 22.285156 20.851562 L 24.070312 6.082031 L 24.179688 6.054688 C 25.882812 5.625 27.074219 4.109375 27.074219 2.363281 L 27.074219 0.917969 C 27.074219 0.414062 26.65625 0 26.144531 0 L 1.417969 0 C 0.902344 0 0.488281 0.414062 0.488281 0.917969 L 0.488281 2.363281 C 0.488281 4.109375 1.679688 5.625 3.382812 6.054688 Z M 3.492188 6.082031 "/>
<path style=" stroke:none;fill-rule:nonzero;fill:rgb(92.941176%,41.176471%,36.078431%);fill-opacity:1;" d="M 3.449219 27.632812 C 3.296875 27.683594 3.160156 27.777344 3.054688 27.902344 L 0.222656 31.191406 C 0.0625 31.378906 -0.0195312 31.617188 0.00390625 31.863281 C 0.0234375 32.109375 0.136719 32.328125 0.324219 32.488281 C 0.511719 32.652344 0.753906 32.726562 1 32.707031 C 1.085938 32.703125 1.164062 32.683594 1.238281 32.65625 C 1.390625 32.601562 1.527344 32.511719 1.632812 32.386719 L 4.464844 29.097656 C 4.625 28.910156 4.707031 28.671875 4.6875 28.425781 C 4.667969 28.179688 4.554688 27.957031 4.363281 27.796875 C 4.113281 27.585938 3.761719 27.519531 3.449219 27.632812 Z M 3.449219 27.632812 "/>
<path style=" stroke:none;fill-rule:nonzero;fill:rgb(92.941176%,41.176471%,36.078431%);fill-opacity:1;" d="M 24.21875 27.632812 C 24.375 27.683594 24.511719 27.777344 24.617188 27.902344 L 27.449219 31.191406 C 27.609375 31.378906 27.6875 31.617188 27.667969 31.863281 C 27.648438 32.109375 27.535156 32.328125 27.34375 32.488281 C 27.15625 32.652344 26.917969 32.726562 26.667969 32.707031 C 26.585938 32.703125 26.507812 32.683594 26.429688 32.65625 C 26.277344 32.601562 26.144531 32.511719 26.035156 32.386719 L 23.203125 29.097656 C 23.042969 28.910156 22.964844 28.671875 22.984375 28.425781 C 23.003906 28.179688 23.117188 27.957031 23.308594 27.796875 C 23.558594 27.585938 23.910156 27.519531 24.21875 27.632812 Z M 24.21875 27.632812 "/>
<path style=" stroke:none;fill-rule:nonzero;fill:rgb(92.941176%,41.176471%,36.078431%);fill-opacity:1;" d="M 12.984375 30.085938 C 12.902344 30.222656 12.859375 30.382812 12.859375 30.542969 L 12.847656 34.871094 C 12.847656 35.117188 12.941406 35.347656 13.117188 35.523438 C 13.292969 35.699219 13.527344 35.792969 13.773438 35.792969 C 14.019531 35.796875 14.253906 35.699219 14.429688 35.527344 C 14.488281 35.46875 14.539062 35.40625 14.578125 35.335938 C 14.660156 35.199219 14.703125 35.042969 14.703125 34.878906 L 14.714844 30.550781 C 14.714844 30.300781 14.617188 30.070312 14.445312 29.898438 C 14.269531 29.722656 14.039062 29.625 13.789062 29.625 C 13.457031 29.625 13.148438 29.800781 12.984375 30.085938 Z M 12.984375 30.085938 "/>
</g>
</svg>
