<?xml version="1.0" encoding="UTF-8"?>
<svg xmlns="http://www.w3.org/2000/svg" xmlns:xlink="http://www.w3.org/1999/xlink" width="28px" height="28px" viewBox="0 0 28 28" version="1.1">
<g id="surface1">
<path style=" stroke:none;fill-rule:nonzero;fill:rgb(92.941176%,41.176471%,36.078431%);fill-opacity:1;" d="M 4.933594 1.839844 L 4.933594 1.429688 L 22.726562 1.429688 L 22.726562 1.839844 C 22.726562 2.679688 22.03125 3.367188 21.183594 3.367188 L 6.472656 3.367188 C 5.625 3.367188 4.933594 2.679688 4.933594 1.839844 Z M 12.160156 4.796875 L 15.5 4.796875 L 15.046875 10.660156 L 12.613281 10.660156 Z M 19.011719 16.046875 C 18.914062 16.8125 18.257812 17.394531 17.480469 17.394531 L 10.179688 17.394531 C 9.398438 17.394531 8.742188 16.8125 8.648438 16.046875 L 7.289062 4.796875 L 10.710938 4.796875 L 11.226562 11.433594 C 11.253906 11.804688 11.570312 12.09375 11.945312 12.09375 L 15.714844 12.09375 C 16.089844 12.09375 16.40625 11.804688 16.433594 11.433594 L 16.949219 4.796875 L 20.371094 4.796875 L 19.007812 16.046875 Z M 5.828125 4.730469 L 7.214844 16.21875 C 7.398438 17.703125 8.671875 18.824219 10.179688 18.824219 L 17.480469 18.824219 C 18.988281 18.824219 20.261719 17.703125 20.445312 16.21875 L 21.832031 4.730469 L 21.917969 4.710938 C 23.242188 4.375 24.167969 3.195312 24.167969 1.839844 L 24.167969 0.714844 C 24.167969 0.320312 23.84375 0 23.445312 0 L 4.214844 0 C 3.8125 0 3.492188 0.320312 3.492188 0.714844 L 3.492188 1.839844 C 3.492188 3.195312 4.417969 4.375 5.742188 4.710938 Z M 5.828125 4.730469 "/>
<path style=" stroke:none;fill-rule:nonzero;fill:rgb(92.941176%,41.176471%,36.078431%);fill-opacity:1;" d="M 5.792969 21.492188 C 5.675781 21.53125 5.570312 21.605469 5.488281 21.703125 L 3.285156 24.261719 C 3.160156 24.40625 3.097656 24.589844 3.113281 24.78125 C 3.128906 24.972656 3.21875 25.144531 3.363281 25.269531 C 3.507812 25.394531 3.699219 25.453125 3.890625 25.4375 C 3.957031 25.4375 4.015625 25.421875 4.074219 25.398438 C 4.191406 25.355469 4.300781 25.285156 4.382812 25.191406 L 6.582031 22.632812 C 6.707031 22.484375 6.773438 22.300781 6.757812 22.109375 C 6.742188 21.917969 6.652344 21.746094 6.503906 21.621094 C 6.308594 21.457031 6.035156 21.402344 5.792969 21.492188 Z M 5.792969 21.492188 "/>
<path style=" stroke:none;fill-rule:nonzero;fill:rgb(92.941176%,41.176471%,36.078431%);fill-opacity:1;" d="M 21.949219 21.492188 C 22.070312 21.53125 22.175781 21.605469 22.257812 21.703125 L 24.460938 24.261719 C 24.585938 24.40625 24.644531 24.589844 24.628906 24.78125 C 24.617188 24.972656 24.527344 25.144531 24.378906 25.269531 C 24.234375 25.394531 24.046875 25.453125 23.851562 25.4375 C 23.789062 25.4375 23.726562 25.421875 23.667969 25.398438 C 23.550781 25.355469 23.445312 25.285156 23.359375 25.191406 L 21.15625 22.632812 C 21.035156 22.484375 20.972656 22.300781 20.988281 22.109375 C 21.003906 21.917969 21.089844 21.746094 21.238281 21.621094 C 21.433594 21.457031 21.707031 21.402344 21.949219 21.492188 Z M 21.949219 21.492188 "/>
<path style=" stroke:none;fill-rule:nonzero;fill:rgb(92.941176%,41.176471%,36.078431%);fill-opacity:1;" d="M 13.210938 23.398438 C 13.144531 23.507812 13.113281 23.632812 13.113281 23.753906 L 13.105469 27.121094 C 13.105469 27.3125 13.175781 27.492188 13.3125 27.628906 C 13.449219 27.765625 13.632812 27.839844 13.824219 27.839844 C 14.015625 27.84375 14.199219 27.765625 14.335938 27.632812 C 14.378906 27.585938 14.417969 27.539062 14.449219 27.484375 C 14.511719 27.378906 14.546875 27.253906 14.546875 27.128906 L 14.554688 23.761719 C 14.554688 23.566406 14.480469 23.386719 14.347656 23.253906 C 14.210938 23.117188 14.03125 23.042969 13.835938 23.042969 C 13.578125 23.042969 13.335938 23.179688 13.210938 23.398438 Z M 13.210938 23.398438 "/>
</g>
</svg>
