<?xml version="1.0" encoding="UTF-8"?>
<svg xmlns="http://www.w3.org/2000/svg" xmlns:xlink="http://www.w3.org/1999/xlink" width="28px" height="28px" viewBox="0 0 28 32" version="1.1">
<g id="surface1">
<path style=" stroke:none;fill-rule:nonzero;fill:rgb(92.941176%,41.176471%,36.078431%);fill-opacity:1;" d="M 13.820312 7.691406 C 13.90625 7.691406 13.992188 7.71875 14.066406 7.765625 L 21.054688 12.195312 L 21.054688 11.035156 L 13.820312 6.449219 L 6.585938 11.035156 L 6.585938 12.195312 L 13.574219 7.765625 C 13.648438 7.71875 13.734375 7.691406 13.820312 7.691406 Z M 21.507812 13.453125 C 21.421875 13.453125 21.335938 13.425781 21.261719 13.378906 L 13.820312 8.664062 L 6.378906 13.378906 C 6.238281 13.46875 6.0625 13.476562 5.914062 13.398438 C 5.769531 13.320312 5.679688 13.171875 5.679688 13.007812 L 5.679688 10.792969 C 5.679688 10.644531 5.757812 10.503906 5.886719 10.421875 L 13.574219 5.550781 C 13.722656 5.453125 13.914062 5.453125 14.066406 5.550781 L 21.753906 10.421875 C 21.882812 10.503906 21.960938 10.644531 21.960938 10.792969 L 21.960938 13.007812 C 21.960938 13.253906 21.757812 13.453125 21.507812 13.453125 Z M 21.507812 13.453125 "/>
<path style=" stroke:none;fill-rule:nonzero;fill:rgb(92.941176%,41.176471%,36.078431%);fill-opacity:1;" d="M 20.605469 21.425781 L 12.464844 21.425781 L 12.464844 20.539062 L 20.152344 20.539062 L 20.152344 12.121094 L 21.058594 12.121094 L 21.058594 20.980469 C 21.058594 21.226562 20.855469 21.425781 20.605469 21.425781 Z M 20.605469 21.425781 "/>
<path style=" stroke:none;fill-rule:nonzero;fill:rgb(92.941176%,41.176471%,36.078431%);fill-opacity:1;" d="M 11.105469 21.425781 L 7.039062 21.425781 C 6.785156 21.425781 6.585938 21.226562 6.585938 20.980469 L 6.585938 12.121094 L 7.488281 12.121094 L 7.488281 20.539062 L 10.65625 20.539062 L 10.65625 16.550781 C 10.65625 14.839844 12.074219 13.453125 13.820312 13.453125 C 15.570312 13.453125 16.988281 14.839844 16.988281 16.550781 L 16.988281 19.652344 L 16.082031 19.652344 L 16.082031 16.550781 C 16.082031 15.328125 15.070312 14.339844 13.820312 14.339844 C 12.570312 14.339844 11.558594 15.328125 11.558594 16.550781 L 11.558594 20.980469 C 11.558594 21.226562 11.359375 21.425781 11.105469 21.425781 Z M 11.105469 21.425781 "/>
<path style=" stroke:none;fill-rule:nonzero;fill:rgb(92.941176%,41.176471%,36.078431%);fill-opacity:1;" d="M 26.359375 12.710938 C 26.34375 20.582031 21.5 27.523438 14.023438 30.398438 L 13.820312 30.480469 L 13.617188 30.402344 C 6.140625 27.523438 1.296875 20.582031 1.28125 12.710938 L 1.28125 6.902344 L 1.441406 6.828125 L 13.820312 1.316406 L 13.933594 1.367188 L 26.359375 6.902344 Z M 27.265625 5.925781 L 14.085938 0.0585938 C 14.003906 0.0195312 13.910156 0 13.820312 0 C 13.730469 0 13.636719 0.0195312 13.558594 0.0585938 L 0.375 5.925781 C 0.144531 6.027344 0 6.25 0 6.496094 L 0 12.710938 C 0.015625 21.179688 5.484375 28.824219 13.601562 31.738281 C 13.742188 31.785156 13.898438 31.785156 14.039062 31.738281 C 22.15625 28.824219 27.621094 21.179688 27.640625 12.710938 L 27.640625 6.496094 C 27.640625 6.25 27.492188 6.027344 27.265625 5.925781 Z M 27.265625 5.925781 "/>
</g>
</svg>
