<?xml version="1.0" encoding="UTF-8"?>
<svg xmlns="http://www.w3.org/2000/svg" xmlns:xlink="http://www.w3.org/1999/xlink" width="28px" height="28px" viewBox="0 0 28 28" version="1.1">
<g id="surface1">
<path style=" stroke:none;fill-rule:nonzero;fill:rgb(92.941176%,41.176471%,36.078431%);fill-opacity:1;" d="M 13.84375 6.730469 C 13.917969 6.730469 13.992188 6.753906 14.058594 6.796875 L 20.171875 10.671875 L 20.171875 9.65625 L 13.84375 5.644531 L 7.511719 9.65625 L 7.511719 10.671875 L 13.628906 6.796875 C 13.691406 6.753906 13.765625 6.730469 13.84375 6.730469 Z M 20.570312 11.773438 C 20.496094 11.773438 20.417969 11.746094 20.355469 11.707031 L 13.84375 7.582031 L 7.332031 11.707031 C 7.207031 11.785156 7.054688 11.792969 6.925781 11.722656 C 6.796875 11.65625 6.71875 11.523438 6.71875 11.382812 L 6.71875 9.445312 C 6.71875 9.3125 6.789062 9.191406 6.902344 9.117188 L 13.628906 4.855469 C 13.757812 4.773438 13.925781 4.773438 14.058594 4.855469 L 20.785156 9.117188 C 20.898438 9.191406 20.964844 9.3125 20.964844 9.445312 L 20.964844 11.382812 C 20.964844 11.597656 20.789062 11.773438 20.570312 11.773438 Z M 20.570312 11.773438 "/>
<path style=" stroke:none;fill-rule:nonzero;fill:rgb(92.941176%,41.176471%,36.078431%);fill-opacity:1;" d="M 19.78125 18.746094 L 12.65625 18.746094 L 12.65625 17.972656 L 19.382812 17.972656 L 19.382812 10.605469 L 20.175781 10.605469 L 20.175781 18.359375 C 20.175781 18.574219 20 18.746094 19.78125 18.746094 Z M 19.78125 18.746094 "/>
<path style=" stroke:none;fill-rule:nonzero;fill:rgb(92.941176%,41.176471%,36.078431%);fill-opacity:1;" d="M 11.46875 18.746094 L 7.910156 18.746094 C 7.6875 18.746094 7.511719 18.574219 7.511719 18.359375 L 7.511719 10.605469 L 8.300781 10.605469 L 8.300781 17.972656 L 11.074219 17.972656 L 11.074219 14.480469 C 11.074219 12.984375 12.316406 11.773438 13.84375 11.773438 C 15.375 11.773438 16.613281 12.984375 16.613281 14.480469 L 16.613281 17.195312 L 15.820312 17.195312 L 15.820312 14.480469 C 15.820312 13.410156 14.9375 12.546875 13.84375 12.546875 C 12.75 12.546875 11.863281 13.410156 11.863281 14.480469 L 11.863281 18.359375 C 11.863281 18.574219 11.6875 18.746094 11.46875 18.746094 Z M 11.46875 18.746094 "/>
<path style=" stroke:none;fill-rule:nonzero;fill:rgb(92.941176%,41.176471%,36.078431%);fill-opacity:1;" d="M 24.816406 11.121094 C 24.800781 18.007812 20.5625 24.082031 14.019531 26.597656 L 13.84375 26.671875 L 13.664062 26.601562 C 7.125 24.082031 2.882812 18.007812 2.871094 11.121094 L 2.871094 6.039062 L 3.011719 5.972656 L 13.84375 1.152344 L 13.941406 1.195312 L 24.816406 6.039062 Z M 25.605469 5.183594 L 14.074219 0.0507812 C 14.003906 0.015625 13.921875 0 13.84375 0 C 13.765625 0 13.683594 0.015625 13.613281 0.0507812 L 2.078125 5.183594 C 1.875 5.273438 1.75 5.46875 1.75 5.683594 L 1.75 11.121094 C 1.765625 18.53125 6.546875 25.222656 13.652344 27.769531 C 13.773438 27.8125 13.910156 27.8125 14.035156 27.769531 C 21.136719 25.222656 25.917969 18.53125 25.9375 11.121094 L 25.9375 5.683594 C 25.9375 5.46875 25.804688 5.273438 25.605469 5.183594 Z M 25.605469 5.183594 "/>
</g>
</svg>
