<?xml version="1.0" encoding="UTF-8"?>
<svg xmlns="http://www.w3.org/2000/svg" xmlns:xlink="http://www.w3.org/1999/xlink" width="28px" height="28px" viewBox="0 0 28 28" version="1.1">
<g id="surface1">
<path style=" stroke:none;fill-rule:nonzero;fill:rgb(92.941176%,41.176471%,36.078431%);fill-opacity:1;" d="M 24.816406 11.121094 C 24.800781 18.007812 20.5625 24.082031 14.019531 26.601562 L 13.84375 26.671875 L 13.664062 26.601562 C 7.125 24.082031 2.882812 18.007812 2.871094 11.125 L 2.871094 6.039062 L 3.011719 5.976562 L 13.84375 1.152344 L 13.941406 1.195312 L 24.816406 6.039062 L 24.816406 11.125 Z M 25.605469 5.183594 L 14.070312 0.0507812 C 14 0.015625 13.921875 0 13.839844 0 C 13.761719 0 13.683594 0.015625 13.609375 0.0507812 L 2.074219 5.183594 C 1.875 5.269531 1.746094 5.46875 1.746094 5.683594 L 1.746094 11.121094 C 1.765625 18.53125 6.546875 25.222656 13.652344 27.769531 C 13.773438 27.8125 13.910156 27.8125 14.035156 27.769531 C 21.136719 25.226562 25.917969 18.53125 25.9375 11.121094 L 25.9375 5.683594 C 25.9375 5.46875 25.804688 5.273438 25.605469 5.183594 Z M 25.605469 5.183594 "/>
<path style="fill-rule:nonzero;fill:rgb(92.941176%,41.176471%,36.078431%);fill-opacity:1;stroke-width:1.12;stroke-linecap:butt;stroke-linejoin:miter;stroke:rgb(92.941176%,41.176471%,36.078431%);stroke-opacity:1;stroke-miterlimit:10;" d="M 66.407105 114.063683 C 52.919837 113.998015 42.048541 103.031567 42.091426 89.569759 C 42.134311 76.107951 53.091376 65.229059 66.557202 65.294727 C 80.023027 65.338505 90.894323 76.283064 90.851438 89.744872 C 90.722784 103.184791 79.808603 114.019904 66.385663 114.063683 Z M 50.6255 57.545979 C 50.6255 48.855999 57.680049 41.785813 66.385663 41.785813 C 75.091276 41.785813 82.167267 48.83411 82.167267 57.545979 L 82.167267 66.914521 C 72.668285 60.347786 60.10304 60.347786 50.6255 66.914521 Z M 85.426512 69.541216 L 85.426512 57.545979 C 85.533724 47.039202 77.085419 38.414889 66.578644 38.305444 C 56.050427 38.195998 47.452026 46.645198 47.344814 57.151975 C 47.344814 57.283309 47.344814 57.414644 47.344814 57.545979 L 47.344814 69.519327 C 41.76979 74.707048 38.617758 81.974235 38.617758 89.569759 C 38.531988 104.892142 50.904252 117.390829 66.235566 117.456496 C 81.56688 117.544052 94.046355 105.176701 94.132125 89.854318 C 94.17501 82.171237 91.022977 74.794604 85.426512 69.519327 Z M 85.426512 69.541216 " transform="matrix(0.182174,0,0,0.178456,1.75,0.0000916878)"/>
<path style="fill-rule:nonzero;fill:rgb(92.941176%,41.176471%,36.078431%);fill-opacity:1;stroke-width:1.12;stroke-linecap:butt;stroke-linejoin:miter;stroke:rgb(92.941176%,41.176471%,36.078431%);stroke-opacity:1;stroke-miterlimit:10;" d="M 66.407105 87.928075 C 63.748248 87.928075 61.62545 85.804831 61.62545 83.178136 C 61.62545 80.551442 63.748248 78.406309 66.407105 78.406309 C 69.023078 78.406309 71.145875 80.551442 71.145875 83.178136 C 71.145875 85.804831 69.023078 87.928075 66.407105 87.928075 Z M 66.407105 75.14483 C 61.947086 75.14483 58.323321 78.756535 58.344764 83.178136 C 58.344764 86.986843 61.003621 90.2921 64.75604 91.058219 L 64.75604 102.550006 C 64.75604 103.469349 65.485082 104.19169 66.407105 104.19169 C 67.307686 104.19169 68.036727 103.44746 68.036727 102.550006 L 68.036727 91.058219 C 72.389534 90.160765 75.155603 85.870498 74.255022 81.536453 C 73.461654 77.815302 70.180967 75.14483 66.407105 75.14483 Z M 66.407105 75.14483 " transform="matrix(0.182174,0,0,0.178456,1.75,0.0000916878)"/>
</g>
</svg>
