<?xml version="1.0" encoding="UTF-8"?>
<svg xmlns="http://www.w3.org/2000/svg" xmlns:xlink="http://www.w3.org/1999/xlink" width="28px" height="28px" viewBox="0 0 28 32" version="1.1">
<g id="surface1">
<path style=" stroke:none;fill-rule:nonzero;fill:rgb(92.941176%,41.176471%,36.078431%);fill-opacity:1;" d="M 26.359375 12.710938 C 26.34375 20.582031 21.5 27.523438 14.023438 30.402344 L 13.820312 30.480469 L 13.617188 30.402344 C 6.140625 27.523438 1.296875 20.582031 1.28125 12.714844 L 1.28125 6.902344 L 1.441406 6.832031 L 13.820312 1.316406 L 13.933594 1.367188 L 26.359375 6.902344 L 26.359375 12.714844 Z M 27.265625 5.925781 L 14.082031 0.0585938 C 14 0.0195312 13.910156 0 13.816406 0 C 13.726562 0 13.636719 0.0195312 13.554688 0.0585938 L 0.371094 5.925781 C 0.144531 6.023438 -0.00390625 6.25 -0.00390625 6.496094 L -0.00390625 12.710938 C 0.015625 21.179688 5.480469 28.824219 13.601562 31.738281 C 13.742188 31.785156 13.898438 31.785156 14.039062 31.738281 C 22.15625 28.828125 27.621094 21.179688 27.640625 12.710938 L 27.640625 6.496094 C 27.640625 6.25 27.492188 6.027344 27.265625 5.925781 Z M 27.265625 5.925781 "/>
<path style="fill-rule:nonzero;fill:rgb(92.941176%,41.176471%,36.078431%);fill-opacity:1;stroke-width:1.12;stroke-linecap:butt;stroke-linejoin:miter;stroke:rgb(92.941176%,41.176471%,36.078431%);stroke-opacity:1;stroke-miterlimit:10;" d="M 66.398985 114.055315 C 52.927815 113.997857 42.045811 103.042368 42.083335 89.577843 C 42.139621 76.113318 53.096673 65.234441 66.567844 65.2919 C 80.020252 65.349358 90.902256 76.285694 90.845969 89.750219 C 90.733397 103.176439 79.813869 114.01701 66.380223 114.055315 Z M 50.62008 57.554107 C 50.62008 48.858667 57.67462 41.791228 66.380223 41.791228 C 75.085826 41.791228 82.159128 48.839514 82.159128 57.554107 L 82.159128 66.919901 C 72.665518 60.350438 60.094928 60.350438 50.62008 66.919901 Z M 85.423729 69.543855 L 85.423729 57.554107 C 85.536302 47.039136 77.093368 38.420308 66.586606 38.30539 C 56.061081 38.190473 47.449289 46.656077 47.336716 57.151895 C 47.336716 57.285966 47.336716 57.420036 47.336716 57.554107 L 47.336716 69.524702 C 41.76438 74.715152 38.612351 81.974121 38.612351 89.577843 C 38.537303 104.900204 50.901511 117.387929 66.230126 117.464541 C 81.558742 117.541153 94.054284 105.187499 94.129332 89.845984 C 94.166857 82.16565 91.014828 74.791764 85.423729 69.524702 Z M 85.423729 69.543855 " transform="matrix(0.208199,0,0,0.20395,0,0.000104786)"/>
<path style="fill-rule:nonzero;fill:rgb(92.941176%,41.176471%,36.078431%);fill-opacity:1;stroke-width:1.12;stroke-linecap:butt;stroke-linejoin:miter;stroke:rgb(92.941176%,41.176471%,36.078431%);stroke-opacity:1;stroke-miterlimit:10;" d="M 66.398985 87.930689 C 63.753532 87.930689 61.633418 85.804711 61.633418 83.180757 C 61.633418 80.556802 63.753532 78.411672 66.398985 78.411672 C 69.025676 78.411672 71.14579 80.556802 71.14579 83.180757 C 71.14579 85.804711 69.025676 87.930689 66.398985 87.930689 Z M 66.398985 75.136517 C 61.952373 75.136517 58.331293 78.756425 58.350055 83.180757 C 58.350055 86.992194 61.014269 90.286502 64.747922 91.05262 L 64.747922 102.544391 C 64.747922 103.463733 65.479643 104.191545 66.398985 104.191545 C 67.299565 104.191545 68.031286 103.44458 68.031286 102.544391 L 68.031286 91.05262 C 72.384087 90.152431 75.160874 85.881323 74.260295 81.533603 C 73.472287 77.81793 70.188924 75.136517 66.398985 75.136517 Z M 66.398985 75.136517 " transform="matrix(0.208199,0,0,0.20395,0,0.000104786)"/>
</g>
</svg>
