<?xml version="1.0" encoding="UTF-8"?>
<svg xmlns="http://www.w3.org/2000/svg" xmlns:xlink="http://www.w3.org/1999/xlink" width="28px" height="28px" viewBox="0 0 28 28" version="1.1">
<g id="surface1">
<path style=" stroke:none;fill-rule:nonzero;fill:rgb(92.941176%,41.176471%,36.078431%);fill-opacity:1;" d="M 24.816406 11.125 C 24.800781 18.007812 20.566406 24.085938 14.023438 26.597656 L 13.847656 26.671875 L 13.667969 26.597656 C 7.125 24.082031 2.890625 18.007812 2.875 11.121094 L 2.875 6.035156 L 3.015625 5.972656 L 13.847656 1.148438 L 13.945312 1.191406 L 24.820312 6.035156 L 24.820312 11.121094 Z M 25.609375 5.183594 L 14.074219 0.0507812 C 14.003906 0.0195312 13.921875 0 13.847656 0 C 13.765625 0 13.683594 0.015625 13.613281 0.0507812 L 2.078125 5.183594 C 1.878906 5.273438 1.75 5.46875 1.75 5.683594 L 1.75 11.125 C 1.765625 18.53125 6.546875 25.226562 13.65625 27.769531 C 13.777344 27.816406 13.914062 27.816406 14.035156 27.769531 C 21.140625 25.226562 25.921875 18.53125 25.9375 11.121094 L 25.9375 5.683594 C 25.9375 5.46875 25.808594 5.273438 25.605469 5.183594 Z M 25.609375 5.183594 "/>
<path style=" stroke:none;fill-rule:nonzero;fill:rgb(92.941176%,41.176471%,36.078431%);fill-opacity:1;" d="M 13.847656 20.355469 C 11.324219 20.34375 9.300781 18.28125 9.421875 15.78125 C 9.539062 13.546875 11.390625 11.746094 13.667969 11.652344 C 16.214844 11.546875 18.308594 13.542969 18.304688 16.011719 C 18.28125 18.414062 16.296875 20.34375 13.847656 20.351562 Z M 17.347656 12.441406 C 17.070312 12.191406 16.703125 11.933594 16.609375 11.878906 C 14.898438 10.773438 12.667969 10.792969 10.972656 11.941406 L 10.972656 10.273438 C 10.972656 8.71875 12.257812 7.457031 13.84375 7.457031 C 15.429688 7.457031 16.71875 8.714844 16.71875 10.269531 C 16.71875 10.269531 16.71875 10.269531 16.71875 10.273438 L 16.71875 10.636719 L 17.3125 10.636719 L 17.3125 10.273438 C 17.332031 8.398438 15.792969 6.855469 13.875 6.839844 C 11.960938 6.820312 10.390625 8.328125 10.371094 10.203125 C 10.371094 10.226562 10.371094 10.25 10.371094 10.273438 L 10.371094 12.410156 C 9.359375 13.332031 8.785156 14.632812 8.785156 15.988281 C 8.773438 18.722656 11.023438 20.953125 13.816406 20.964844 C 16.609375 20.980469 18.882812 18.773438 18.898438 16.039062 C 18.90625 14.683594 18.34375 13.382812 17.34375 12.441406 Z M 17.347656 12.441406 "/>
<path style=" stroke:none;fill-rule:nonzero;fill:rgb(92.941176%,41.176471%,36.078431%);fill-opacity:1;" d="M 9.320312 15.777344 L 9.527344 15.789062 L 9.519531 16.011719 L 9.527344 16.238281 L 9.542969 16.460938 L 9.574219 16.679688 L 9.613281 16.890625 L 9.664062 17.105469 L 9.726562 17.3125 L 9.800781 17.515625 L 9.882812 17.707031 L 9.972656 17.902344 L 10.074219 18.089844 L 10.183594 18.269531 L 10.300781 18.445312 L 10.429688 18.609375 L 10.566406 18.773438 L 10.710938 18.925781 L 10.867188 19.074219 L 11.023438 19.21875 L 11.1875 19.347656 L 11.359375 19.476562 L 11.535156 19.59375 L 11.71875 19.703125 L 11.910156 19.800781 L 12.109375 19.894531 L 12.308594 19.976562 L 12.515625 20.042969 L 12.726562 20.105469 L 12.941406 20.152344 L 13.160156 20.195312 L 13.382812 20.222656 L 13.609375 20.242188 L 13.839844 20.25 L 13.839844 20.449219 L 13.601562 20.441406 L 13.363281 20.421875 L 13.132812 20.390625 L 12.902344 20.351562 L 12.675781 20.296875 L 12.457031 20.234375 L 12.238281 20.15625 L 12.03125 20.070312 L 11.824219 19.976562 L 11.625 19.871094 L 11.429688 19.757812 L 11.242188 19.636719 L 11.058594 19.507812 L 10.886719 19.367188 L 10.722656 19.21875 L 10.566406 19.0625 L 10.414062 18.898438 L 10.269531 18.726562 L 10.136719 18.550781 L 10.011719 18.367188 L 9.894531 18.175781 L 9.789062 17.980469 L 9.691406 17.78125 L 9.605469 17.570312 L 9.53125 17.359375 L 9.464844 17.144531 L 9.410156 16.925781 L 9.363281 16.699219 L 9.335938 16.472656 L 9.3125 16.242188 L 9.308594 16.007812 L 9.3125 15.769531 Z M 13.660156 11.550781 L 13.671875 11.753906 L 13.464844 11.765625 L 13.261719 11.789062 L 13.058594 11.820312 L 12.863281 11.859375 L 12.671875 11.910156 L 12.480469 11.972656 L 12.289062 12.039062 L 12.109375 12.113281 L 11.929688 12.195312 L 11.753906 12.289062 L 11.582031 12.386719 L 11.414062 12.492188 L 11.257812 12.609375 L 11.105469 12.726562 L 10.953125 12.855469 L 10.8125 12.988281 L 10.675781 13.125 L 10.546875 13.273438 L 10.425781 13.421875 L 10.308594 13.578125 L 10.199219 13.738281 L 10.097656 13.90625 L 10.003906 14.074219 L 9.914062 14.25 L 9.835938 14.429688 L 9.769531 14.613281 L 9.707031 14.800781 L 9.65625 14.988281 L 9.609375 15.183594 L 9.574219 15.378906 L 9.546875 15.574219 L 9.53125 15.78125 L 9.328125 15.769531 L 9.34375 15.558594 L 9.367188 15.351562 L 9.40625 15.144531 L 9.449219 14.941406 L 9.503906 14.742188 L 9.570312 14.546875 L 9.644531 14.351562 L 9.726562 14.164062 L 9.820312 13.980469 L 9.914062 13.800781 L 10.023438 13.628906 L 10.132812 13.460938 L 10.257812 13.296875 L 10.386719 13.140625 L 10.523438 12.988281 L 10.664062 12.839844 L 10.8125 12.703125 L 10.96875 12.566406 L 11.128906 12.441406 L 11.296875 12.324219 L 11.46875 12.214844 L 11.648438 12.109375 L 11.832031 12.015625 L 12.019531 11.929688 L 12.214844 11.847656 L 12.410156 11.777344 L 12.613281 11.71875 L 12.8125 11.660156 L 13.023438 11.617188 L 13.230469 11.582031 L 13.445312 11.554688 L 13.660156 11.546875 Z M 18.40625 16.015625 L 18.199219 16.011719 L 18.195312 15.789062 L 18.175781 15.570312 L 18.148438 15.351562 L 18.113281 15.136719 L 18.0625 14.921875 L 18 14.71875 L 17.925781 14.515625 L 17.84375 14.316406 L 17.757812 14.125 L 17.652344 13.933594 L 17.542969 13.753906 L 17.425781 13.578125 L 17.300781 13.410156 L 17.164062 13.246094 L 17.023438 13.085938 L 16.871094 12.941406 L 16.714844 12.796875 L 16.546875 12.664062 L 16.375 12.535156 L 16.199219 12.421875 L 16.015625 12.3125 L 15.824219 12.210938 L 15.628906 12.117188 L 15.433594 12.035156 L 15.222656 11.960938 L 15.015625 11.898438 L 14.796875 11.847656 L 14.578125 11.804688 L 14.355469 11.773438 L 14.128906 11.757812 L 13.902344 11.746094 L 13.667969 11.75 L 13.65625 11.550781 L 13.902344 11.550781 L 14.140625 11.554688 L 14.375 11.578125 L 14.609375 11.609375 L 14.835938 11.652344 L 15.0625 11.707031 L 15.28125 11.773438 L 15.496094 11.847656 L 15.710938 11.933594 L 15.910156 12.027344 L 16.113281 12.132812 L 16.308594 12.246094 L 16.492188 12.371094 L 16.671875 12.503906 L 16.84375 12.644531 L 17.007812 12.789062 L 17.167969 12.945312 L 17.316406 13.109375 L 17.460938 13.28125 L 17.59375 13.457031 L 17.710938 13.640625 L 17.824219 13.832031 L 17.933594 14.027344 L 18.027344 14.230469 L 18.113281 14.433594 L 18.183594 14.644531 L 18.25 14.859375 L 18.300781 15.082031 L 18.34375 15.308594 L 18.371094 15.535156 L 18.390625 15.765625 L 18.398438 16 Z M 18.40625 16.015625 Z M 13.847656 20.453125 L 13.847656 20.253906 L 14.066406 20.25 L 14.285156 20.234375 L 14.503906 20.203125 L 14.71875 20.167969 L 14.925781 20.117188 L 15.132812 20.0625 L 15.332031 19.996094 L 15.53125 19.917969 L 15.722656 19.835938 L 16.089844 19.640625 L 16.265625 19.527344 L 16.4375 19.410156 L 16.601562 19.285156 L 16.761719 19.152344 L 16.914062 19.011719 L 17.058594 18.863281 L 17.191406 18.710938 L 17.324219 18.546875 L 17.445312 18.378906 L 17.558594 18.207031 L 17.664062 18.035156 L 17.761719 17.847656 L 17.847656 17.660156 L 17.925781 17.46875 L 18 17.269531 L 18.058594 17.070312 L 18.109375 16.863281 L 18.144531 16.65625 L 18.175781 16.445312 L 18.195312 16.230469 L 18.199219 16.011719 L 18.40625 16.011719 L 18.394531 16.242188 L 18.375 16.46875 L 18.347656 16.6875 L 18.304688 16.90625 L 18.253906 17.121094 L 18.191406 17.332031 L 18.117188 17.539062 L 18.035156 17.738281 L 17.941406 17.9375 L 17.84375 18.125 L 17.730469 18.3125 L 17.613281 18.496094 L 17.484375 18.667969 L 17.351562 18.835938 L 17.210938 18.996094 L 17.058594 19.152344 L 16.898438 19.296875 L 16.734375 19.433594 L 16.5625 19.566406 L 16.386719 19.691406 L 16.203125 19.808594 L 16.011719 19.914062 L 15.816406 20.011719 L 15.613281 20.101562 L 15.40625 20.179688 L 15.199219 20.25 L 14.980469 20.308594 L 14.761719 20.359375 L 14.539062 20.398438 L 14.3125 20.425781 L 14.085938 20.445312 L 13.851562 20.449219 Z M 13.847656 20.453125 Z M 16.558594 11.960938 L 16.667969 11.792969 L 16.671875 11.796875 L 16.695312 11.804688 L 16.710938 11.816406 L 16.722656 11.828125 L 16.753906 11.847656 L 16.789062 11.875 L 16.808594 11.886719 L 16.832031 11.90625 L 16.855469 11.921875 L 16.878906 11.933594 L 16.898438 11.953125 L 16.925781 11.972656 L 16.949219 11.988281 L 16.976562 12.011719 L 17.003906 12.027344 L 17.027344 12.046875 L 17.082031 12.09375 L 17.113281 12.113281 L 17.140625 12.136719 L 17.171875 12.15625 L 17.199219 12.179688 L 17.230469 12.203125 L 17.257812 12.226562 L 17.289062 12.246094 L 17.316406 12.269531 L 17.347656 12.289062 L 17.375 12.3125 L 17.40625 12.339844 L 17.429688 12.359375 L 17.292969 12.507812 L 17.265625 12.484375 L 17.242188 12.464844 L 17.214844 12.441406 L 17.1875 12.421875 L 17.132812 12.375 L 17.105469 12.355469 L 17.078125 12.332031 L 17.050781 12.3125 L 16.996094 12.265625 L 16.964844 12.242188 L 16.941406 12.222656 L 16.832031 12.144531 L 16.785156 12.105469 L 16.765625 12.09375 L 16.71875 12.058594 L 16.699219 12.046875 L 16.660156 12.015625 L 16.644531 12.007812 L 16.628906 11.992188 L 16.609375 11.984375 L 16.601562 11.972656 L 16.585938 11.964844 L 16.566406 11.953125 L 16.570312 11.957031 Z M 16.667969 11.792969 L 16.671875 11.796875 L 16.667969 11.792969 L 16.667969 11.796875 Z M 10.871094 11.941406 L 11.074219 11.941406 L 10.914062 11.859375 L 11.078125 11.753906 L 11.246094 11.65625 L 11.414062 11.5625 L 11.582031 11.476562 L 11.757812 11.398438 L 11.933594 11.328125 L 12.113281 11.257812 L 12.292969 11.199219 L 12.476562 11.144531 L 12.660156 11.097656 L 12.84375 11.058594 L 13.21875 11.003906 L 13.402344 10.984375 L 13.589844 10.972656 L 13.777344 10.964844 L 13.964844 10.964844 L 14.148438 10.976562 L 14.339844 10.992188 L 14.527344 11.011719 L 14.714844 11.039062 L 14.902344 11.078125 L 15.082031 11.117188 L 15.269531 11.167969 L 15.449219 11.21875 L 15.628906 11.28125 L 15.808594 11.347656 L 15.980469 11.421875 L 16.15625 11.507812 L 16.328125 11.59375 L 16.496094 11.6875 L 16.660156 11.792969 L 16.546875 11.960938 L 16.390625 11.859375 L 16.230469 11.769531 L 16.066406 11.683594 L 15.898438 11.605469 L 15.726562 11.53125 L 15.554688 11.464844 L 15.378906 11.40625 L 15.207031 11.351562 L 15.03125 11.304688 L 14.855469 11.261719 L 14.675781 11.226562 L 14.5 11.199219 L 14.320312 11.175781 L 13.960938 11.160156 L 13.777344 11.160156 L 13.597656 11.167969 L 13.414062 11.175781 L 13.234375 11.195312 L 12.875 11.25 L 12.523438 11.335938 L 12.347656 11.386719 L 12.175781 11.441406 L 12.003906 11.507812 L 11.832031 11.578125 L 11.664062 11.652344 L 11.5 11.734375 L 11.339844 11.824219 L 11.175781 11.917969 L 11.019531 12.015625 L 10.859375 11.933594 Z M 11.03125 12.023438 L 10.871094 12.132812 L 10.871094 11.941406 Z M 11.078125 10.273438 L 11.078125 11.941406 L 10.875 11.941406 L 10.875 10.273438 Z M 13.847656 7.359375 L 13.847656 7.558594 L 13.707031 7.5625 L 13.566406 7.570312 L 13.425781 7.585938 L 13.289062 7.613281 L 13.160156 7.644531 L 13.027344 7.679688 L 12.894531 7.722656 L 12.769531 7.769531 L 12.648438 7.820312 L 12.527344 7.882812 L 12.410156 7.945312 L 12.296875 8.019531 L 12.1875 8.09375 L 12.085938 8.171875 L 11.988281 8.257812 L 11.886719 8.347656 L 11.796875 8.441406 L 11.710938 8.542969 L 11.632812 8.640625 L 11.550781 8.75 L 11.480469 8.859375 L 11.414062 8.972656 L 11.351562 9.09375 L 11.296875 9.210938 L 11.203125 9.460938 L 11.132812 9.71875 L 11.109375 9.855469 L 11.089844 9.988281 L 11.082031 10.128906 L 11.078125 10.265625 L 10.875 10.265625 L 10.878906 10.117188 L 10.890625 9.96875 L 10.910156 9.824219 L 10.9375 9.683594 L 10.96875 9.539062 L 11.003906 9.398438 L 11.054688 9.261719 L 11.105469 9.132812 L 11.164062 9.003906 L 11.226562 8.875 L 11.296875 8.753906 L 11.375 8.632812 L 11.460938 8.519531 L 11.546875 8.410156 L 11.640625 8.304688 L 11.738281 8.203125 L 11.839844 8.109375 L 11.945312 8.015625 L 12.058594 7.929688 L 12.175781 7.847656 L 12.292969 7.773438 L 12.421875 7.699219 L 12.550781 7.640625 L 12.683594 7.582031 L 12.816406 7.53125 L 12.957031 7.480469 L 13.101562 7.445312 L 13.246094 7.414062 L 13.390625 7.390625 L 13.539062 7.367188 L 13.6875 7.355469 L 13.84375 7.351562 Z M 16.824219 10.273438 L 16.617188 10.273438 L 16.613281 10.132812 L 16.605469 9.992188 L 16.589844 9.859375 L 16.5625 9.726562 L 16.53125 9.597656 L 16.492188 9.46875 L 16.449219 9.339844 L 16.402344 9.21875 L 16.347656 9.09375 L 16.285156 8.980469 L 16.21875 8.867188 L 16.148438 8.753906 L 16.070312 8.648438 L 15.988281 8.546875 L 15.8125 8.351562 L 15.714844 8.261719 L 15.613281 8.175781 L 15.511719 8.097656 L 15.402344 8.023438 L 15.289062 7.949219 L 15.171875 7.886719 L 15.050781 7.824219 L 14.929688 7.773438 L 14.804688 7.722656 L 14.675781 7.679688 L 14.542969 7.640625 L 14.410156 7.609375 L 14.273438 7.585938 L 14.136719 7.566406 L 13.992188 7.558594 L 13.851562 7.558594 L 13.851562 7.355469 L 14.003906 7.359375 L 14.152344 7.371094 L 14.304688 7.394531 L 14.449219 7.417969 L 14.59375 7.449219 L 14.734375 7.484375 L 14.875 7.53125 L 15.011719 7.582031 L 15.140625 7.640625 L 15.273438 7.699219 L 15.398438 7.773438 L 15.515625 7.847656 L 15.632812 7.929688 L 15.746094 8.015625 L 15.957031 8.199219 L 16.054688 8.300781 L 16.148438 8.40625 L 16.234375 8.515625 L 16.316406 8.628906 L 16.394531 8.75 L 16.46875 8.871094 L 16.53125 9 L 16.589844 9.128906 L 16.640625 9.257812 L 16.691406 9.394531 L 16.726562 9.535156 L 16.761719 9.679688 L 16.785156 9.820312 L 16.804688 9.96875 L 16.820312 10.113281 L 16.824219 10.265625 Z M 16.824219 10.277344 L 16.617188 10.277344 Z M 16.617188 10.640625 L 16.617188 10.277344 L 16.824219 10.277344 L 16.824219 10.640625 L 16.71875 10.742188 L 16.613281 10.640625 Z M 16.722656 10.742188 L 16.617188 10.742188 L 16.617188 10.640625 Z M 17.320312 10.742188 L 16.722656 10.742188 L 16.722656 10.539062 L 17.320312 10.539062 L 17.421875 10.644531 Z M 17.421875 10.640625 L 17.421875 10.742188 L 17.320312 10.742188 Z M 17.421875 10.277344 L 17.421875 10.640625 L 17.21875 10.640625 L 17.21875 10.277344 Z M 17.21875 10.277344 Z M 13.886719 6.941406 L 13.890625 6.742188 L 14.074219 6.75 L 14.257812 6.765625 L 14.609375 6.820312 L 14.78125 6.863281 L 14.945312 6.914062 L 15.109375 6.972656 L 15.273438 7.035156 L 15.433594 7.105469 L 15.585938 7.183594 L 15.734375 7.269531 L 15.878906 7.363281 L 16.015625 7.460938 L 16.148438 7.5625 L 16.28125 7.675781 L 16.402344 7.792969 L 16.519531 7.914062 L 16.628906 8.046875 L 16.730469 8.179688 L 16.832031 8.320312 L 16.917969 8.460938 L 17.003906 8.609375 L 17.078125 8.761719 L 17.152344 8.917969 L 17.214844 9.074219 L 17.269531 9.238281 L 17.3125 9.40625 L 17.351562 9.578125 L 17.378906 9.75 L 17.40625 9.925781 L 17.417969 10.101562 L 17.417969 10.28125 L 17.214844 10.277344 L 17.214844 10.105469 L 17.203125 9.9375 L 17.183594 9.773438 L 17.15625 9.609375 L 17.121094 9.449219 L 17.074219 9.292969 L 17.023438 9.136719 L 16.964844 8.984375 L 16.898438 8.839844 L 16.828125 8.699219 L 16.746094 8.558594 L 16.660156 8.421875 L 16.464844 8.164062 L 16.363281 8.046875 L 16.25 7.929688 L 16.132812 7.820312 L 16.015625 7.714844 L 15.890625 7.613281 L 15.757812 7.523438 L 15.621094 7.433594 L 15.484375 7.351562 L 15.335938 7.277344 L 15.1875 7.210938 L 15.035156 7.148438 L 14.882812 7.097656 L 14.722656 7.050781 L 14.558594 7.015625 L 14.398438 6.980469 L 14.230469 6.960938 L 14.058594 6.941406 L 13.882812 6.933594 Z M 10.484375 10.207031 L 10.28125 10.207031 L 10.289062 10.023438 L 10.300781 9.851562 L 10.328125 9.675781 L 10.359375 9.503906 L 10.40625 9.335938 L 10.457031 9.171875 L 10.515625 9.007812 L 10.578125 8.847656 L 10.648438 8.695312 L 10.734375 8.542969 L 10.820312 8.398438 L 10.914062 8.253906 L 11.011719 8.117188 L 11.117188 7.988281 L 11.234375 7.859375 L 11.351562 7.742188 L 11.476562 7.628906 L 11.609375 7.519531 L 11.746094 7.417969 L 11.886719 7.320312 L 12.183594 7.148438 L 12.34375 7.074219 L 12.5 7.007812 L 12.660156 6.945312 L 12.828125 6.890625 L 13 6.847656 L 13.171875 6.808594 L 13.351562 6.78125 L 13.527344 6.761719 L 13.710938 6.746094 L 13.894531 6.742188 L 13.890625 6.941406 L 13.714844 6.945312 L 13.546875 6.957031 L 13.378906 6.972656 L 13.210938 7.003906 L 13.042969 7.039062 L 12.882812 7.082031 L 12.726562 7.132812 L 12.570312 7.1875 L 12.421875 7.253906 L 12.277344 7.324219 L 12.132812 7.402344 L 11.992188 7.488281 L 11.863281 7.582031 L 11.734375 7.679688 L 11.609375 7.78125 L 11.492188 7.890625 L 11.378906 8 L 11.273438 8.117188 L 11.074219 8.371094 L 10.984375 8.503906 L 10.898438 8.640625 L 10.824219 8.785156 L 10.757812 8.925781 L 10.695312 9.078125 L 10.640625 9.226562 L 10.59375 9.386719 L 10.550781 9.542969 L 10.519531 9.703125 L 10.496094 9.867188 L 10.480469 10.035156 L 10.476562 10.207031 Z M 10.28125 10.207031 Z M 10.484375 10.277344 L 10.28125 10.277344 L 10.28125 10.175781 L 10.484375 10.175781 Z M 10.28125 12.414062 L 10.28125 10.277344 L 10.484375 10.277344 L 10.484375 12.414062 L 10.453125 12.484375 Z M 10.484375 12.414062 L 10.484375 12.457031 L 10.453125 12.484375 Z M 8.898438 15.992188 L 8.695312 15.992188 L 8.695312 15.863281 L 8.699219 15.734375 L 8.710938 15.601562 L 8.722656 15.472656 L 8.734375 15.347656 L 8.757812 15.21875 L 8.804688 14.96875 L 8.867188 14.722656 L 8.898438 14.597656 L 8.984375 14.351562 L 9.027344 14.230469 L 9.074219 14.117188 L 9.128906 14 L 9.179688 13.878906 L 9.234375 13.765625 L 9.292969 13.65625 L 9.355469 13.542969 L 9.421875 13.433594 L 9.484375 13.328125 L 9.554688 13.21875 L 9.710938 13.007812 L 9.789062 12.90625 L 9.953125 12.707031 L 10.042969 12.613281 L 10.128906 12.519531 L 10.226562 12.425781 L 10.320312 12.339844 L 10.460938 12.484375 L 10.371094 12.566406 L 10.191406 12.746094 L 10.109375 12.835938 L 10.027344 12.933594 L 9.949219 13.03125 L 9.875 13.125 L 9.800781 13.222656 L 9.726562 13.328125 L 9.660156 13.425781 L 9.597656 13.53125 L 9.535156 13.632812 L 9.472656 13.742188 L 9.417969 13.847656 L 9.363281 13.960938 L 9.308594 14.070312 L 9.257812 14.183594 L 9.214844 14.300781 L 9.171875 14.414062 L 9.132812 14.53125 L 9.097656 14.644531 L 9.035156 14.886719 L 8.988281 15.125 L 8.96875 15.246094 L 8.941406 15.492188 L 8.929688 15.617188 L 8.925781 15.738281 L 8.921875 15.863281 L 8.921875 15.984375 Z M 8.898438 15.992188 Z M 13.824219 20.871094 L 13.824219 21.070312 L 13.5625 21.058594 L 13.300781 21.039062 L 12.785156 20.960938 L 12.535156 20.902344 L 12.289062 20.832031 L 12.050781 20.746094 L 11.820312 20.660156 L 11.589844 20.554688 L 11.367188 20.441406 L 11.152344 20.320312 L 10.941406 20.1875 L 10.742188 20.042969 L 10.546875 19.894531 L 10.359375 19.730469 L 10.183594 19.5625 L 10.011719 19.386719 L 9.851562 19.203125 L 9.699219 19.011719 L 9.554688 18.8125 L 9.421875 18.605469 L 9.304688 18.394531 L 9.191406 18.175781 L 9.085938 17.953125 L 8.996094 17.722656 L 8.914062 17.484375 L 8.84375 17.246094 L 8.789062 17.003906 L 8.746094 16.753906 L 8.714844 16.503906 L 8.695312 16.246094 L 8.6875 15.984375 L 8.894531 15.984375 L 8.898438 16.234375 L 8.914062 16.480469 L 8.945312 16.722656 L 8.984375 16.96875 L 9.039062 17.199219 L 9.105469 17.433594 L 9.183594 17.652344 L 9.269531 17.875 L 9.363281 18.089844 L 9.476562 18.300781 L 9.597656 18.5 L 9.722656 18.699219 L 9.859375 18.886719 L 10.007812 19.074219 L 10.160156 19.25 L 10.320312 19.421875 L 10.492188 19.582031 L 10.671875 19.734375 L 10.859375 19.882812 L 11.054688 20.019531 L 11.25 20.144531 L 11.460938 20.261719 L 11.671875 20.367188 L 11.890625 20.46875 L 12.113281 20.554688 L 12.34375 20.632812 L 12.578125 20.699219 L 12.816406 20.75 L 13.058594 20.792969 L 13.308594 20.828125 L 13.5625 20.847656 L 13.816406 20.851562 Z M 18.804688 16.042969 L 19.007812 16.042969 L 18.996094 16.300781 L 18.976562 16.558594 L 18.9375 16.808594 L 18.890625 17.058594 L 18.832031 17.304688 L 18.761719 17.542969 L 18.679688 17.78125 L 18.582031 18.007812 L 18.480469 18.230469 L 18.363281 18.449219 L 18.238281 18.664062 L 18.105469 18.867188 L 17.957031 19.0625 L 17.804688 19.253906 L 17.640625 19.433594 L 17.46875 19.609375 L 17.289062 19.777344 L 17.101562 19.9375 L 16.90625 20.085938 L 16.703125 20.222656 L 16.492188 20.355469 L 16.277344 20.472656 L 16.054688 20.582031 L 15.824219 20.6875 L 15.589844 20.773438 L 15.351562 20.851562 L 15.105469 20.917969 L 14.855469 20.972656 L 14.601562 21.015625 L 14.34375 21.046875 L 14.082031 21.070312 L 13.816406 21.074219 L 13.816406 20.875 L 14.070312 20.871094 L 14.324219 20.851562 L 14.570312 20.824219 L 14.816406 20.785156 L 15.054688 20.730469 L 15.292969 20.664062 L 15.519531 20.589844 L 15.746094 20.503906 L 15.964844 20.410156 L 16.179688 20.304688 L 16.386719 20.1875 L 16.585938 20.058594 L 16.777344 19.925781 L 16.96875 19.785156 L 17.148438 19.632812 L 17.324219 19.476562 L 17.484375 19.304688 L 17.648438 19.132812 L 17.792969 18.949219 L 17.933594 18.757812 L 18.0625 18.5625 L 18.179688 18.359375 L 18.292969 18.152344 L 18.390625 17.9375 L 18.480469 17.71875 L 18.558594 17.492188 L 18.628906 17.265625 L 18.6875 17.027344 L 18.730469 16.792969 L 18.761719 16.550781 L 18.78125 16.300781 L 18.789062 16.050781 Z M 17.285156 12.519531 L 17.421875 12.371094 L 17.425781 12.371094 L 17.519531 12.464844 L 17.609375 12.558594 L 17.703125 12.652344 L 17.789062 12.75 L 17.953125 12.945312 L 18.03125 13.054688 L 18.105469 13.160156 L 18.246094 13.371094 L 18.3125 13.484375 L 18.378906 13.59375 L 18.441406 13.710938 L 18.5 13.820312 L 18.554688 13.933594 L 18.605469 14.050781 L 18.699219 14.289062 L 18.742188 14.410156 L 18.777344 14.53125 L 18.816406 14.652344 L 18.847656 14.777344 L 18.875 14.898438 L 18.90625 15.027344 L 18.933594 15.152344 L 18.964844 15.40625 L 18.980469 15.53125 L 18.992188 15.660156 L 18.992188 15.789062 L 18.996094 15.917969 L 18.996094 16.046875 L 18.796875 16.046875 L 18.796875 15.925781 L 18.792969 15.800781 L 18.785156 15.679688 L 18.773438 15.554688 L 18.746094 15.308594 L 18.726562 15.191406 L 18.703125 15.066406 L 18.679688 14.945312 L 18.617188 14.710938 L 18.582031 14.59375 L 18.542969 14.476562 L 18.5 14.359375 L 18.457031 14.246094 L 18.410156 14.132812 L 18.355469 14.019531 L 18.304688 13.910156 L 18.25 13.796875 L 18.191406 13.691406 L 18.128906 13.582031 L 18.0625 13.480469 L 18 13.375 L 17.925781 13.273438 L 17.855469 13.171875 L 17.78125 13.078125 L 17.707031 12.976562 L 17.625 12.882812 L 17.539062 12.789062 L 17.457031 12.699219 L 17.367188 12.609375 L 17.277344 12.523438 L 17.28125 12.523438 Z M 17.421875 12.371094 L 17.425781 12.371094 Z M 17.421875 12.371094 "/>
<path style=" stroke:none;fill-rule:nonzero;fill:rgb(92.941176%,41.176471%,36.078431%);fill-opacity:1;" d="M 13.847656 15.695312 C 13.367188 15.695312 12.976562 15.316406 12.976562 14.84375 C 12.976562 14.375 13.363281 13.992188 13.847656 13.992188 C 14.324219 13.992188 14.714844 14.371094 14.714844 14.84375 C 14.714844 15.316406 14.324219 15.695312 13.847656 15.695312 Z M 13.847656 13.410156 C 13.035156 13.410156 12.378906 14.050781 12.378906 14.847656 C 12.378906 15.527344 12.863281 16.113281 13.546875 16.253906 L 13.546875 18.300781 C 13.546875 18.460938 13.683594 18.589844 13.847656 18.589844 C 14.011719 18.589844 14.144531 18.457031 14.148438 18.300781 L 14.148438 16.253906 C 14.9375 16.089844 15.445312 15.328125 15.277344 14.550781 C 15.136719 13.882812 14.539062 13.410156 13.847656 13.410156 Z M 13.847656 13.410156 "/>
<path style=" stroke:none;fill-rule:nonzero;fill:rgb(92.941176%,41.176471%,36.078431%);fill-opacity:1;" d="M 12.871094 14.84375 L 13.078125 14.84375 L 13.078125 14.882812 L 13.082031 14.917969 L 13.09375 14.996094 L 13.101562 15.027344 L 13.109375 15.066406 L 13.140625 15.136719 L 13.15625 15.167969 L 13.167969 15.199219 L 13.191406 15.234375 L 13.210938 15.265625 L 13.230469 15.292969 L 13.253906 15.324219 L 13.277344 15.351562 L 13.304688 15.375 L 13.332031 15.402344 L 13.359375 15.421875 L 13.390625 15.445312 L 13.417969 15.464844 L 13.449219 15.488281 L 13.484375 15.503906 L 13.515625 15.519531 L 13.550781 15.535156 L 13.585938 15.546875 L 13.625 15.5625 L 13.65625 15.574219 L 13.691406 15.578125 L 13.734375 15.585938 L 13.769531 15.59375 L 13.808594 15.597656 L 13.847656 15.597656 L 13.847656 15.792969 L 13.75 15.792969 L 13.703125 15.789062 L 13.605469 15.765625 L 13.5625 15.753906 L 13.46875 15.722656 L 13.386719 15.683594 L 13.34375 15.660156 L 13.304688 15.632812 L 13.269531 15.609375 L 13.230469 15.578125 L 13.195312 15.550781 L 13.164062 15.519531 L 13.132812 15.492188 L 13.101562 15.453125 L 13.046875 15.382812 L 13.023438 15.34375 L 13 15.300781 L 12.957031 15.21875 L 12.941406 15.175781 L 12.914062 15.085938 L 12.890625 14.992188 L 12.882812 14.898438 L 12.882812 14.851562 Z M 13.84375 13.894531 L 13.84375 14.09375 L 13.800781 14.09375 L 13.765625 14.097656 L 13.726562 14.101562 L 13.683594 14.109375 L 13.617188 14.128906 L 13.578125 14.140625 L 13.546875 14.152344 L 13.507812 14.171875 L 13.476562 14.183594 L 13.445312 14.207031 L 13.410156 14.222656 L 13.382812 14.246094 L 13.355469 14.265625 L 13.300781 14.316406 L 13.246094 14.371094 L 13.222656 14.398438 L 13.164062 14.488281 L 13.148438 14.519531 L 13.132812 14.554688 L 13.105469 14.621094 L 13.097656 14.65625 L 13.085938 14.691406 L 13.082031 14.726562 L 13.074219 14.769531 L 13.070312 14.808594 L 13.070312 14.84375 L 12.863281 14.84375 L 12.863281 14.796875 L 12.867188 14.75 L 12.875 14.699219 L 12.894531 14.605469 L 12.910156 14.5625 L 12.925781 14.515625 L 12.941406 14.476562 L 12.960938 14.429688 L 12.984375 14.390625 L 13.003906 14.347656 L 13.03125 14.3125 L 13.054688 14.273438 L 13.085938 14.238281 L 13.113281 14.207031 L 13.148438 14.175781 L 13.179688 14.140625 L 13.21875 14.113281 L 13.25 14.085938 L 13.289062 14.058594 L 13.371094 14.011719 L 13.453125 13.96875 L 13.5 13.957031 L 13.546875 13.9375 L 13.589844 13.925781 L 13.636719 13.917969 L 13.683594 13.90625 L 13.738281 13.902344 L 13.785156 13.898438 L 13.832031 13.898438 Z M 14.808594 14.84375 L 14.609375 14.84375 L 14.609375 14.808594 L 14.605469 14.769531 L 14.597656 14.726562 L 14.589844 14.691406 L 14.570312 14.621094 L 14.558594 14.589844 L 14.546875 14.554688 L 14.53125 14.519531 L 14.496094 14.457031 L 14.476562 14.425781 L 14.429688 14.371094 L 14.402344 14.34375 L 14.378906 14.316406 L 14.324219 14.265625 L 14.292969 14.246094 L 14.265625 14.222656 L 14.234375 14.207031 L 14.203125 14.183594 L 14.167969 14.171875 L 14.132812 14.152344 L 14.09375 14.140625 L 14.027344 14.121094 L 13.988281 14.109375 L 13.914062 14.097656 L 13.875 14.09375 L 13.835938 14.09375 L 13.835938 13.894531 L 13.882812 13.894531 L 13.929688 13.898438 L 14.03125 13.914062 L 14.078125 13.925781 L 14.121094 13.933594 L 14.167969 13.953125 L 14.210938 13.964844 L 14.257812 13.984375 L 14.296875 14.007812 L 14.378906 14.054688 L 14.417969 14.082031 L 14.488281 14.136719 L 14.519531 14.171875 L 14.554688 14.203125 L 14.582031 14.234375 L 14.613281 14.269531 L 14.636719 14.308594 L 14.664062 14.347656 L 14.683594 14.390625 L 14.707031 14.429688 L 14.726562 14.472656 L 14.742188 14.515625 L 14.757812 14.5625 L 14.773438 14.601562 L 14.792969 14.699219 L 14.800781 14.792969 L 14.800781 14.839844 Z M 13.84375 15.792969 L 13.84375 15.597656 L 13.878906 15.597656 L 13.917969 15.59375 L 13.960938 15.585938 L 14.035156 15.574219 L 14.066406 15.5625 L 14.101562 15.546875 L 14.140625 15.535156 L 14.175781 15.519531 L 14.238281 15.488281 L 14.300781 15.445312 L 14.328125 15.421875 L 14.359375 15.402344 L 14.382812 15.375 L 14.410156 15.351562 L 14.4375 15.324219 L 14.457031 15.292969 L 14.480469 15.265625 L 14.5 15.234375 L 14.519531 15.199219 L 14.535156 15.167969 L 14.554688 15.136719 L 14.5625 15.101562 L 14.578125 15.066406 L 14.585938 15.027344 L 14.597656 14.996094 L 14.613281 14.917969 L 14.613281 14.84375 L 14.816406 14.84375 L 14.816406 14.890625 L 14.8125 14.941406 L 14.804688 14.984375 L 14.796875 15.03125 L 14.789062 15.082031 L 14.777344 15.125 L 14.742188 15.214844 L 14.722656 15.253906 L 14.675781 15.335938 L 14.652344 15.375 L 14.597656 15.449219 L 14.566406 15.484375 L 14.535156 15.515625 L 14.46875 15.574219 L 14.433594 15.601562 L 14.355469 15.65625 L 14.3125 15.675781 L 14.269531 15.699219 L 14.230469 15.714844 L 14.183594 15.734375 L 14.140625 15.746094 L 14.09375 15.761719 L 13.996094 15.78125 L 13.949219 15.789062 L 13.851562 15.789062 Z M 13.84375 15.792969 Z M 12.480469 14.847656 L 12.277344 14.847656 L 12.28125 14.769531 L 12.285156 14.6875 L 12.292969 14.613281 L 12.308594 14.535156 L 12.324219 14.460938 L 12.34375 14.390625 L 12.371094 14.316406 L 12.398438 14.25 L 12.433594 14.179688 L 12.46875 14.113281 L 12.507812 14.050781 L 12.550781 13.984375 L 12.59375 13.925781 L 12.640625 13.871094 L 12.691406 13.8125 L 12.742188 13.757812 L 12.796875 13.710938 L 12.855469 13.660156 L 12.972656 13.574219 L 13.039062 13.53125 L 13.101562 13.492188 L 13.167969 13.457031 L 13.242188 13.425781 L 13.3125 13.398438 L 13.386719 13.371094 L 13.535156 13.332031 L 13.613281 13.324219 L 13.6875 13.3125 L 13.769531 13.304688 L 13.851562 13.300781 L 13.851562 13.5 L 13.78125 13.503906 L 13.710938 13.511719 L 13.511719 13.546875 L 13.449219 13.570312 L 13.382812 13.589844 L 13.261719 13.644531 L 13.203125 13.671875 L 13.144531 13.707031 L 13.089844 13.738281 L 13.035156 13.777344 L 12.933594 13.855469 L 12.839844 13.949219 L 12.800781 13.996094 L 12.753906 14.046875 L 12.71875 14.097656 L 12.683594 14.152344 L 12.648438 14.210938 L 12.59375 14.328125 L 12.546875 14.453125 L 12.527344 14.515625 L 12.511719 14.578125 L 12.488281 14.710938 L 12.484375 14.777344 Z M 13.644531 16.253906 L 13.441406 16.253906 L 13.523438 16.347656 L 13.453125 16.335938 L 13.390625 16.3125 L 13.328125 16.292969 L 13.261719 16.269531 L 13.199219 16.246094 L 13.023438 16.152344 L 12.96875 16.121094 L 12.914062 16.082031 L 12.863281 16.039062 L 12.808594 16 L 12.757812 15.957031 L 12.671875 15.863281 L 12.585938 15.761719 L 12.546875 15.707031 L 12.511719 15.65625 L 12.449219 15.539062 L 12.417969 15.484375 L 12.394531 15.421875 L 12.371094 15.363281 L 12.34375 15.296875 L 12.328125 15.238281 L 12.3125 15.171875 L 12.296875 15.109375 L 12.289062 15.042969 L 12.28125 14.910156 L 12.28125 14.84375 L 12.484375 14.84375 L 12.484375 14.964844 L 12.492188 15.023438 L 12.503906 15.078125 L 12.523438 15.191406 L 12.539062 15.246094 L 12.5625 15.296875 L 12.578125 15.355469 L 12.601562 15.40625 L 12.628906 15.453125 L 12.652344 15.503906 L 12.714844 15.601562 L 12.816406 15.734375 L 12.859375 15.773438 L 12.894531 15.816406 L 12.9375 15.851562 L 13.078125 15.957031 L 13.171875 16.011719 L 13.273438 16.066406 L 13.332031 16.085938 L 13.386719 16.105469 L 13.445312 16.125 L 13.5625 16.152344 L 13.640625 16.253906 Z M 13.566406 16.152344 L 13.644531 16.171875 L 13.644531 16.253906 Z M 13.441406 18.300781 L 13.441406 16.253906 L 13.644531 16.253906 L 13.644531 18.300781 Z M 13.84375 18.496094 L 13.84375 18.691406 L 13.820312 18.691406 L 13.738281 18.679688 L 13.722656 18.671875 L 13.683594 18.664062 L 13.628906 18.632812 L 13.617188 18.625 L 13.582031 18.597656 L 13.570312 18.585938 L 13.554688 18.574219 L 13.542969 18.554688 L 13.519531 18.53125 L 13.496094 18.5 L 13.46875 18.449219 L 13.460938 18.429688 L 13.453125 18.414062 L 13.449219 18.390625 L 13.441406 18.375 L 13.433594 18.3125 L 13.433594 18.292969 L 13.632812 18.292969 L 13.632812 18.324219 L 13.636719 18.332031 L 13.652344 18.371094 L 13.65625 18.378906 L 13.660156 18.398438 L 13.683594 18.417969 L 13.683594 18.425781 L 13.710938 18.453125 L 13.71875 18.457031 L 13.726562 18.464844 L 13.734375 18.46875 L 13.738281 18.472656 L 13.800781 18.496094 Z M 13.84375 18.691406 Z M 14.039062 18.300781 L 14.242188 18.300781 L 14.242188 18.335938 L 14.238281 18.359375 L 14.234375 18.375 L 14.234375 18.394531 L 14.226562 18.417969 L 14.21875 18.433594 L 14.210938 18.453125 L 14.203125 18.46875 L 14.183594 18.5 L 14.175781 18.515625 L 14.160156 18.53125 L 14.148438 18.546875 L 14.109375 18.585938 L 14.09375 18.597656 L 14.082031 18.609375 L 14.066406 18.621094 L 14.046875 18.628906 L 14.035156 18.636719 L 13.996094 18.660156 L 13.976562 18.664062 L 13.960938 18.667969 L 13.9375 18.675781 L 13.917969 18.679688 L 13.902344 18.683594 L 13.878906 18.6875 L 13.84375 18.6875 L 13.84375 18.488281 L 13.871094 18.488281 L 13.890625 18.480469 L 13.898438 18.476562 L 13.917969 18.472656 L 13.925781 18.46875 L 13.957031 18.457031 L 13.964844 18.449219 L 13.972656 18.445312 L 13.976562 18.4375 L 13.996094 18.417969 L 14.003906 18.414062 L 14.011719 18.40625 L 14.019531 18.390625 L 14.023438 18.378906 L 14.027344 18.371094 L 14.035156 18.351562 L 14.035156 18.339844 L 14.039062 18.332031 L 14.039062 18.292969 Z M 14.242188 18.300781 Z M 14.242188 16.253906 L 14.242188 18.300781 L 14.039062 18.300781 L 14.039062 16.253906 L 14.121094 16.152344 Z M 14.039062 16.253906 L 14.039062 16.171875 L 14.121094 16.152344 Z M 15.175781 14.570312 L 15.375 14.53125 L 15.386719 14.605469 L 15.398438 14.6875 L 15.40625 14.761719 L 15.40625 14.914062 L 15.402344 14.988281 L 15.390625 15.066406 L 15.363281 15.210938 L 15.34375 15.28125 L 15.320312 15.355469 L 15.296875 15.421875 L 15.234375 15.558594 L 15.199219 15.621094 L 15.160156 15.683594 L 15.117188 15.746094 L 15.074219 15.804688 L 15.023438 15.863281 L 14.859375 16.015625 L 14.800781 16.066406 L 14.738281 16.109375 L 14.675781 16.148438 L 14.609375 16.1875 L 14.46875 16.257812 L 14.398438 16.285156 L 14.324219 16.308594 L 14.246094 16.332031 L 14.167969 16.347656 L 14.125 16.152344 L 14.261719 16.121094 L 14.324219 16.09375 L 14.390625 16.070312 L 14.453125 16.042969 L 14.566406 15.976562 L 14.621094 15.941406 L 14.730469 15.863281 L 14.78125 15.820312 L 14.867188 15.726562 L 14.949219 15.625 L 14.988281 15.574219 L 15.023438 15.519531 L 15.054688 15.460938 L 15.082031 15.40625 L 15.109375 15.34375 L 15.132812 15.28125 L 15.152344 15.222656 L 15.167969 15.160156 L 15.1875 15.097656 L 15.195312 15.03125 L 15.203125 14.96875 L 15.207031 14.898438 L 15.207031 14.835938 L 15.203125 14.769531 L 15.199219 14.699219 L 15.1875 14.636719 L 15.175781 14.566406 Z M 13.84375 13.507812 L 13.84375 13.308594 L 13.914062 13.308594 L 13.980469 13.3125 L 14.046875 13.320312 L 14.183594 13.339844 L 14.3125 13.375 L 14.375 13.398438 L 14.4375 13.417969 L 14.5 13.445312 L 14.558594 13.472656 L 14.613281 13.503906 L 14.722656 13.574219 L 14.78125 13.609375 L 14.882812 13.691406 L 14.929688 13.738281 L 15.023438 13.828125 L 15.101562 13.929688 L 15.140625 13.984375 L 15.175781 14.039062 L 15.207031 14.09375 L 15.242188 14.152344 L 15.296875 14.269531 L 15.316406 14.335938 L 15.339844 14.398438 L 15.359375 14.464844 L 15.375 14.53125 L 15.175781 14.570312 L 15.160156 14.515625 L 15.144531 14.457031 L 15.128906 14.402344 L 15.109375 14.347656 L 15.058594 14.246094 L 15.003906 14.144531 L 14.96875 14.097656 L 14.941406 14.050781 L 14.90625 14.007812 L 14.867188 13.960938 L 14.832031 13.921875 L 14.789062 13.878906 L 14.746094 13.84375 L 14.65625 13.773438 L 14.613281 13.742188 L 14.558594 13.710938 L 14.511719 13.683594 L 14.410156 13.628906 L 14.359375 13.609375 L 14.304688 13.589844 L 14.195312 13.554688 L 14.140625 13.542969 L 14.082031 13.535156 L 14.023438 13.523438 L 13.90625 13.515625 L 13.847656 13.515625 Z M 13.84375 13.308594 Z M 13.84375 13.308594 "/>
<path style=" stroke:none;fill-rule:nonzero;fill:rgb(92.941176%,41.176471%,36.078431%);fill-opacity:1;" d="M 17.316406 10.617188 C 17.316406 10.777344 17.183594 10.910156 17.015625 10.910156 C 16.851562 10.910156 16.71875 10.777344 16.71875 10.617188 C 16.71875 10.453125 16.851562 10.320312 17.015625 10.320312 C 17.183594 10.320312 17.316406 10.453125 17.316406 10.617188 Z M 17.316406 10.617188 "/>
<path style=" stroke:none;fill-rule:nonzero;fill:rgb(92.941176%,41.176471%,36.078431%);fill-opacity:1;" d="M 17.015625 11.003906 L 17.015625 10.808594 L 17.046875 10.808594 L 17.066406 10.800781 L 17.074219 10.796875 L 17.105469 10.785156 L 17.125 10.785156 L 17.164062 10.742188 L 17.179688 10.734375 L 17.183594 10.726562 L 17.191406 10.703125 L 17.195312 10.699219 L 17.207031 10.667969 L 17.210938 10.660156 L 17.214844 10.640625 L 17.214844 10.613281 L 17.417969 10.613281 L 17.417969 10.652344 L 17.410156 10.691406 L 17.40625 10.707031 L 17.402344 10.730469 L 17.394531 10.746094 L 17.378906 10.785156 L 17.367188 10.800781 L 17.351562 10.832031 L 17.324219 10.867188 L 17.308594 10.875 L 17.296875 10.894531 L 17.28125 10.90625 L 17.269531 10.917969 L 17.25 10.929688 L 17.238281 10.945312 L 17.21875 10.953125 L 17.203125 10.960938 L 17.167969 10.980469 L 17.128906 10.996094 L 17.050781 11.011719 L 17.027344 11.015625 L 17.007812 11.015625 Z M 16.609375 10.617188 L 16.816406 10.617188 L 16.816406 10.644531 L 16.824219 10.660156 L 16.832031 10.691406 L 16.832031 10.703125 L 16.835938 10.707031 L 16.839844 10.71875 L 16.847656 10.730469 L 16.859375 10.742188 L 16.867188 10.746094 L 16.886719 10.765625 L 16.890625 10.773438 L 16.898438 10.78125 L 16.910156 10.785156 L 16.917969 10.785156 L 16.949219 10.796875 L 16.957031 10.800781 L 16.988281 10.8125 L 17.015625 10.8125 L 17.015625 11.007812 L 16.996094 11.007812 L 16.972656 11.003906 L 16.953125 11.003906 L 16.9375 11 L 16.914062 10.996094 L 16.894531 10.988281 L 16.878906 10.980469 L 16.855469 10.976562 L 16.835938 10.964844 L 16.824219 10.953125 L 16.804688 10.949219 L 16.789062 10.9375 L 16.777344 10.921875 L 16.757812 10.914062 L 16.746094 10.898438 L 16.726562 10.886719 L 16.71875 10.871094 L 16.703125 10.863281 L 16.675781 10.828125 L 16.660156 10.796875 L 16.648438 10.78125 L 16.640625 10.761719 L 16.636719 10.742188 L 16.628906 10.726562 L 16.621094 10.703125 L 16.617188 10.6875 L 16.609375 10.648438 L 16.609375 10.609375 Z M 17.015625 10.21875 L 17.015625 10.417969 L 16.988281 10.417969 L 16.957031 10.429688 L 16.949219 10.429688 L 16.898438 10.449219 L 16.847656 10.5 L 16.832031 10.519531 L 16.832031 10.535156 L 16.816406 10.574219 L 16.8125 10.582031 L 16.8125 10.613281 L 16.609375 10.613281 L 16.609375 10.59375 L 16.617188 10.53125 L 16.625 10.515625 L 16.632812 10.492188 L 16.640625 10.476562 L 16.644531 10.457031 L 16.660156 10.425781 L 16.667969 10.40625 L 16.679688 10.394531 L 16.695312 10.375 L 16.707031 10.363281 L 16.71875 10.347656 L 16.746094 10.320312 L 16.761719 10.3125 L 16.777344 10.296875 L 16.792969 10.285156 L 16.808594 10.277344 L 16.828125 10.265625 L 16.839844 10.257812 L 16.859375 10.246094 L 16.882812 10.238281 L 16.898438 10.238281 L 16.941406 10.222656 L 16.957031 10.21875 L 16.976562 10.214844 L 17 10.210938 L 17.019531 10.210938 Z M 17.417969 10.617188 L 17.214844 10.617188 L 17.214844 10.585938 L 17.210938 10.574219 L 17.207031 10.566406 L 17.195312 10.539062 L 17.191406 10.53125 L 17.1875 10.519531 L 17.183594 10.511719 L 17.179688 10.5 L 17.171875 10.492188 L 17.164062 10.488281 L 17.125 10.449219 L 17.117188 10.445312 L 17.066406 10.429688 L 17.058594 10.425781 L 17.039062 10.417969 L 17.007812 10.417969 L 17.007812 10.21875 L 17.027344 10.21875 L 17.050781 10.222656 L 17.089844 10.230469 L 17.109375 10.238281 L 17.128906 10.238281 L 17.167969 10.253906 L 17.203125 10.273438 L 17.21875 10.28125 L 17.238281 10.292969 L 17.25 10.304688 L 17.269531 10.320312 L 17.285156 10.328125 L 17.296875 10.34375 L 17.308594 10.355469 L 17.324219 10.367188 L 17.351562 10.402344 L 17.359375 10.414062 L 17.367188 10.429688 L 17.386719 10.464844 L 17.402344 10.503906 L 17.40625 10.523438 L 17.414062 10.539062 L 17.417969 10.5625 L 17.417969 10.578125 L 17.421875 10.601562 L 17.421875 10.621094 Z M 17.417969 10.617188 "/>
</g>
</svg>
