<?xml version="1.0" encoding="UTF-8"?>
<svg xmlns="http://www.w3.org/2000/svg" xmlns:xlink="http://www.w3.org/1999/xlink" width="28px" height="28px" viewBox="0 0 28 32" version="1.1">
<g id="surface1">
<path style=" stroke:none;fill-rule:nonzero;fill:rgb(92.941176%,41.176471%,36.078431%);fill-opacity:1;" d="M 26.363281 12.714844 C 26.34375 20.582031 21.503906 27.527344 14.027344 30.398438 L 13.824219 30.480469 L 13.621094 30.398438 C 6.144531 27.523438 1.304688 20.578125 1.285156 12.710938 L 1.285156 6.898438 L 1.445312 6.824219 L 13.828125 1.3125 L 13.9375 1.363281 L 26.367188 6.898438 L 26.367188 12.710938 Z M 27.269531 5.925781 L 14.085938 0.0585938 C 14.003906 0.0234375 13.910156 0 13.824219 0 C 13.730469 0 13.636719 0.0195312 13.558594 0.0585938 L 0.375 5.925781 C 0.148438 6.027344 0 6.25 0 6.496094 L 0 12.714844 C 0.0195312 21.179688 5.484375 28.828125 13.605469 31.738281 C 13.746094 31.789062 13.902344 31.789062 14.039062 31.738281 C 22.160156 28.828125 27.625 21.179688 27.640625 12.710938 L 27.640625 6.496094 C 27.640625 6.25 27.496094 6.027344 27.265625 5.925781 Z M 27.269531 5.925781 "/>
<path style=" stroke:none;fill-rule:nonzero;fill:rgb(92.941176%,41.176471%,36.078431%);fill-opacity:1;" d="M 13.824219 23.261719 C 10.941406 23.25 8.628906 20.890625 8.769531 18.035156 C 8.902344 15.484375 11.019531 13.425781 13.621094 13.316406 C 16.53125 13.195312 18.925781 15.476562 18.917969 18.300781 C 18.894531 21.042969 16.625 23.25 13.828125 23.257812 Z M 17.824219 14.21875 C 17.507812 13.933594 17.089844 13.640625 16.984375 13.574219 C 15.027344 12.3125 12.476562 12.335938 10.539062 13.648438 L 10.539062 11.742188 C 10.539062 9.964844 12.007812 8.523438 13.820312 8.523438 C 15.632812 8.523438 17.105469 9.960938 17.105469 11.738281 C 17.105469 11.738281 17.105469 11.738281 17.105469 11.742188 L 17.105469 12.15625 L 17.785156 12.15625 L 17.785156 11.742188 C 17.808594 9.597656 16.050781 7.835938 13.859375 7.816406 C 11.671875 7.792969 9.875 9.515625 9.851562 11.660156 C 9.851562 11.6875 9.851562 11.714844 9.851562 11.742188 L 9.851562 14.183594 C 8.695312 15.238281 8.039062 16.722656 8.039062 18.273438 C 8.027344 21.398438 10.597656 23.945312 13.789062 23.960938 C 16.980469 23.976562 19.578125 21.457031 19.597656 18.332031 C 19.605469 16.78125 18.964844 15.292969 17.820312 14.21875 Z M 17.824219 14.21875 "/>
<path style=" stroke:none;fill-rule:nonzero;fill:rgb(92.941176%,41.176471%,36.078431%);fill-opacity:1;" d="M 8.652344 18.03125 L 8.886719 18.042969 L 8.878906 18.300781 L 8.886719 18.558594 L 8.90625 18.8125 L 8.941406 19.0625 L 8.988281 19.304688 L 9.046875 19.546875 L 9.117188 19.785156 L 9.199219 20.015625 L 9.292969 20.238281 L 9.398438 20.460938 L 9.511719 20.671875 L 9.636719 20.878906 L 9.773438 21.078125 L 9.921875 21.269531 L 10.078125 21.453125 L 10.242188 21.628906 L 10.417969 21.800781 L 10.597656 21.964844 L 10.785156 22.113281 L 10.980469 22.257812 L 11.183594 22.394531 L 11.394531 22.515625 L 11.613281 22.628906 L 11.839844 22.734375 L 12.066406 22.828125 L 12.304688 22.90625 L 12.542969 22.976562 L 12.789062 23.03125 L 13.039062 23.082031 L 13.296875 23.113281 L 13.554688 23.132812 L 13.816406 23.140625 L 13.816406 23.371094 L 13.542969 23.363281 L 13.273438 23.339844 L 13.007812 23.304688 L 12.746094 23.257812 L 12.488281 23.195312 L 12.238281 23.125 L 11.988281 23.035156 L 11.75 22.9375 L 11.511719 22.832031 L 11.285156 22.710938 L 11.0625 22.582031 L 10.847656 22.441406 L 10.640625 22.292969 L 10.441406 22.132812 L 10.253906 21.964844 L 10.074219 21.785156 L 9.902344 21.597656 L 9.738281 21.402344 L 9.585938 21.199219 L 9.441406 20.992188 L 9.308594 20.773438 L 9.1875 20.550781 L 9.078125 20.320312 L 8.976562 20.082031 L 8.890625 19.839844 L 8.816406 19.59375 L 8.753906 19.34375 L 8.703125 19.085938 L 8.667969 18.824219 L 8.644531 18.5625 L 8.636719 18.292969 L 8.644531 18.023438 Z M 13.613281 13.203125 L 13.625 13.433594 L 13.386719 13.445312 L 13.15625 13.472656 L 12.925781 13.507812 L 12.703125 13.554688 L 12.480469 13.613281 L 12.261719 13.683594 L 12.046875 13.757812 L 11.839844 13.84375 L 11.632812 13.9375 L 11.433594 14.042969 L 11.238281 14.15625 L 11.046875 14.277344 L 10.867188 14.410156 L 10.691406 14.546875 L 10.519531 14.691406 L 10.359375 14.84375 L 10.203125 15 L 10.054688 15.167969 L 9.914062 15.339844 L 9.78125 15.519531 L 9.65625 15.703125 L 9.539062 15.890625 L 9.433594 16.085938 L 9.332031 16.285156 L 9.242188 16.492188 L 9.164062 16.699219 L 9.09375 16.914062 L 9.035156 17.128906 L 8.980469 17.351562 L 8.941406 17.574219 L 8.910156 17.800781 L 8.894531 18.035156 L 8.660156 18.023438 L 8.679688 17.78125 L 8.707031 17.542969 L 8.75 17.308594 L 8.800781 17.074219 L 8.863281 16.847656 L 8.9375 16.625 L 9.023438 16.402344 L 9.117188 16.1875 L 9.222656 15.976562 L 9.332031 15.773438 L 9.453125 15.574219 L 9.582031 15.382812 L 9.722656 15.195312 L 9.871094 15.015625 L 10.027344 14.84375 L 10.1875 14.675781 L 10.359375 14.515625 L 10.535156 14.363281 L 10.71875 14.21875 L 10.910156 14.085938 L 11.109375 13.960938 L 11.3125 13.839844 L 11.523438 13.734375 L 11.738281 13.632812 L 11.960938 13.539062 L 12.183594 13.460938 L 12.414062 13.390625 L 12.644531 13.328125 L 12.882812 13.277344 L 13.121094 13.238281 L 13.367188 13.207031 L 13.613281 13.195312 Z M 19.035156 18.304688 L 18.800781 18.300781 L 18.792969 18.042969 L 18.773438 17.792969 L 18.742188 17.542969 L 18.699219 17.296875 L 18.640625 17.054688 L 18.570312 16.820312 L 18.488281 16.589844 L 18.394531 16.359375 L 18.292969 16.140625 L 18.175781 15.925781 L 18.050781 15.71875 L 17.914062 15.519531 L 17.773438 15.324219 L 17.617188 15.136719 L 17.453125 14.957031 L 17.28125 14.789062 L 17.101562 14.625 L 16.910156 14.472656 L 16.714844 14.328125 L 16.511719 14.195312 L 16.304688 14.070312 L 16.085938 13.953125 L 15.863281 13.847656 L 15.636719 13.753906 L 15.398438 13.671875 L 15.160156 13.597656 L 14.910156 13.539062 L 14.660156 13.492188 L 14.40625 13.457031 L 14.148438 13.4375 L 13.886719 13.425781 L 13.621094 13.429688 L 13.609375 13.199219 L 13.886719 13.199219 L 14.160156 13.207031 L 14.429688 13.230469 L 14.695312 13.265625 L 14.957031 13.316406 L 15.214844 13.378906 L 15.464844 13.453125 L 15.710938 13.539062 L 15.953125 13.636719 L 16.183594 13.746094 L 16.414062 13.867188 L 16.636719 13.996094 L 16.847656 14.136719 L 17.054688 14.289062 L 17.25 14.449219 L 17.4375 14.617188 L 17.621094 14.796875 L 17.789062 14.984375 L 17.953125 15.179688 L 18.105469 15.378906 L 18.242188 15.589844 L 18.371094 15.808594 L 18.496094 16.03125 L 18.601562 16.261719 L 18.699219 16.496094 L 18.78125 16.738281 L 18.855469 16.984375 L 18.914062 17.238281 L 18.964844 17.496094 L 18.996094 17.753906 L 19.019531 18.019531 L 19.027344 18.285156 Z M 19.035156 18.304688 Z M 13.824219 23.375 L 13.824219 23.148438 L 14.078125 23.140625 L 14.328125 23.125 L 14.574219 23.089844 L 14.820312 23.046875 L 15.058594 22.992188 L 15.296875 22.929688 L 15.523438 22.851562 L 15.75 22.765625 L 15.96875 22.667969 L 16.179688 22.558594 L 16.386719 22.445312 L 16.589844 22.316406 L 16.785156 22.183594 L 16.972656 22.039062 L 17.15625 21.886719 L 17.328125 21.726562 L 17.496094 21.558594 L 17.648438 21.382812 L 17.796875 21.195312 L 17.9375 21.003906 L 18.066406 20.808594 L 18.1875 20.609375 L 18.300781 20.398438 L 18.398438 20.183594 L 18.488281 19.964844 L 18.570312 19.738281 L 18.636719 19.507812 L 18.695312 19.273438 L 18.738281 19.035156 L 18.773438 18.792969 L 18.792969 18.546875 L 18.800781 18.296875 L 19.035156 18.300781 L 19.023438 18.5625 L 19 18.820312 L 18.96875 19.070312 L 18.917969 19.320312 L 18.859375 19.566406 L 18.789062 19.808594 L 18.707031 20.042969 L 18.613281 20.273438 L 18.503906 20.5 L 18.390625 20.714844 L 18.265625 20.929688 L 18.128906 21.136719 L 17.984375 21.335938 L 17.832031 21.527344 L 17.667969 21.710938 L 17.496094 21.886719 L 17.3125 22.054688 L 17.125 22.210938 L 16.929688 22.363281 L 16.726562 22.503906 L 16.515625 22.636719 L 16.300781 22.757812 L 16.074219 22.871094 L 15.84375 22.972656 L 15.609375 23.0625 L 15.371094 23.140625 L 15.121094 23.210938 L 14.871094 23.269531 L 14.617188 23.3125 L 14.359375 23.34375 L 14.097656 23.367188 L 13.832031 23.371094 Z M 13.824219 23.375 Z M 16.921875 13.667969 L 17.050781 13.476562 L 17.054688 13.480469 L 17.066406 13.488281 L 17.082031 13.492188 L 17.097656 13.503906 L 17.109375 13.515625 L 17.148438 13.539062 L 17.1875 13.570312 L 17.210938 13.585938 L 17.238281 13.605469 L 17.261719 13.625 L 17.289062 13.640625 L 17.3125 13.660156 L 17.34375 13.683594 L 17.371094 13.703125 L 17.402344 13.726562 L 17.433594 13.746094 L 17.460938 13.769531 L 17.492188 13.792969 L 17.523438 13.820312 L 17.558594 13.84375 L 17.589844 13.871094 L 17.625 13.894531 L 17.65625 13.921875 L 17.691406 13.945312 L 17.722656 13.972656 L 17.757812 13.996094 L 17.789062 14.023438 L 17.824219 14.046875 L 17.855469 14.070312 L 17.890625 14.101562 L 17.917969 14.125 L 17.761719 14.296875 L 17.730469 14.269531 L 17.703125 14.246094 L 17.671875 14.21875 L 17.640625 14.195312 L 17.613281 14.167969 L 17.578125 14.144531 L 17.550781 14.121094 L 17.519531 14.09375 L 17.488281 14.070312 L 17.453125 14.042969 L 17.421875 14.019531 L 17.386719 13.992188 L 17.359375 13.96875 L 17.328125 13.945312 L 17.300781 13.925781 L 17.238281 13.878906 L 17.210938 13.859375 L 17.183594 13.835938 L 17.160156 13.820312 L 17.105469 13.78125 L 17.085938 13.765625 L 17.039062 13.734375 L 17.023438 13.722656 L 17.003906 13.707031 L 16.984375 13.695312 L 16.972656 13.683594 L 16.957031 13.675781 L 16.933594 13.660156 L 16.9375 13.664062 Z M 17.050781 13.476562 L 17.054688 13.480469 L 17.046875 13.476562 L 17.050781 13.480469 Z M 10.425781 13.648438 L 10.65625 13.648438 L 10.472656 13.554688 L 10.660156 13.433594 L 10.851562 13.320312 L 11.042969 13.214844 L 11.238281 13.117188 L 11.4375 13.027344 L 11.640625 12.945312 L 11.84375 12.867188 L 12.050781 12.800781 L 12.257812 12.738281 L 12.46875 12.683594 L 12.679688 12.640625 L 12.890625 12.605469 L 13.105469 12.574219 L 13.316406 12.554688 L 13.53125 12.539062 L 13.746094 12.53125 L 13.960938 12.53125 L 14.171875 12.542969 L 14.386719 12.5625 L 14.601562 12.585938 L 14.816406 12.617188 L 15.03125 12.660156 L 15.238281 12.707031 L 15.449219 12.761719 L 15.65625 12.820312 L 15.863281 12.890625 L 16.066406 12.96875 L 16.265625 13.054688 L 16.464844 13.152344 L 16.660156 13.25 L 16.851562 13.359375 L 17.039062 13.476562 L 16.910156 13.667969 L 16.730469 13.554688 L 16.546875 13.449219 L 16.359375 13.351562 L 16.167969 13.261719 L 15.972656 13.179688 L 15.777344 13.101562 L 15.578125 13.035156 L 15.378906 12.972656 L 15.179688 12.917969 L 14.976562 12.871094 L 14.773438 12.832031 L 14.570312 12.800781 L 14.367188 12.773438 L 14.160156 12.761719 L 13.953125 12.753906 L 13.746094 12.753906 L 13.539062 12.761719 L 13.332031 12.773438 L 13.125 12.796875 L 12.917969 12.824219 L 12.714844 12.859375 L 12.511719 12.90625 L 12.3125 12.957031 L 12.113281 13.011719 L 11.914062 13.078125 L 11.71875 13.152344 L 11.523438 13.230469 L 11.332031 13.316406 L 11.144531 13.410156 L 10.960938 13.511719 L 10.773438 13.621094 L 10.59375 13.734375 L 10.410156 13.640625 Z M 10.609375 13.742188 L 10.425781 13.867188 L 10.425781 13.648438 Z M 10.660156 11.742188 L 10.660156 13.648438 L 10.429688 13.648438 L 10.429688 11.742188 Z M 13.828125 8.410156 L 13.828125 8.640625 L 13.664062 8.644531 L 13.503906 8.652344 L 13.34375 8.671875 L 13.1875 8.699219 L 13.039062 8.738281 L 12.886719 8.777344 L 12.738281 8.824219 L 12.59375 8.878906 L 12.453125 8.9375 L 12.316406 9.007812 L 12.183594 9.082031 L 12.054688 9.164062 L 11.929688 9.25 L 11.8125 9.339844 L 11.699219 9.4375 L 11.585938 9.539062 L 11.484375 9.648438 L 11.382812 9.761719 L 11.292969 9.875 L 11.203125 10 L 11.121094 10.125 L 11.042969 10.253906 L 10.972656 10.390625 L 10.910156 10.527344 L 10.855469 10.667969 L 10.804688 10.8125 L 10.761719 10.960938 L 10.722656 11.109375 L 10.695312 11.261719 L 10.675781 11.414062 L 10.664062 11.574219 L 10.660156 11.734375 L 10.429688 11.734375 L 10.433594 11.5625 L 10.445312 11.394531 L 10.46875 11.226562 L 10.5 11.066406 L 10.535156 10.902344 L 10.578125 10.742188 L 10.632812 10.585938 L 10.691406 10.4375 L 10.757812 10.289062 L 10.832031 10.144531 L 10.910156 10.003906 L 11 9.867188 L 11.097656 9.738281 L 11.195312 9.613281 L 11.304688 9.492188 L 11.414062 9.375 L 11.53125 9.265625 L 11.652344 9.160156 L 11.78125 9.0625 L 11.914062 8.96875 L 12.050781 8.882812 L 12.195312 8.800781 L 12.34375 8.730469 L 12.496094 8.664062 L 12.648438 8.605469 L 12.808594 8.550781 L 12.972656 8.507812 L 13.136719 8.472656 L 13.304688 8.445312 L 13.472656 8.421875 L 13.644531 8.40625 L 13.820312 8.402344 Z M 17.226562 11.742188 L 16.992188 11.742188 L 16.988281 11.582031 L 16.976562 11.421875 L 16.960938 11.265625 L 16.929688 11.117188 L 16.894531 10.96875 L 16.847656 10.820312 L 16.800781 10.675781 L 16.746094 10.535156 L 16.683594 10.394531 L 16.613281 10.261719 L 16.535156 10.132812 L 16.453125 10.003906 L 16.367188 9.882812 L 16.273438 9.765625 L 16.070312 9.546875 L 15.960938 9.441406 L 15.84375 9.34375 L 15.726562 9.253906 L 15.601562 9.167969 L 15.472656 9.085938 L 15.339844 9.011719 L 15.203125 8.941406 L 15.0625 8.882812 L 14.917969 8.828125 L 14.773438 8.777344 L 14.621094 8.734375 L 14.46875 8.695312 L 14.3125 8.667969 L 14.15625 8.648438 L 13.992188 8.640625 L 13.832031 8.636719 L 13.832031 8.40625 L 14.003906 8.410156 L 14.175781 8.425781 L 14.347656 8.449219 L 14.511719 8.476562 L 14.679688 8.511719 L 14.839844 8.554688 L 15 8.605469 L 15.15625 8.664062 L 15.304688 8.730469 L 15.453125 8.800781 L 15.597656 8.882812 L 15.734375 8.96875 L 15.867188 9.0625 L 15.996094 9.160156 L 16.238281 9.371094 L 16.347656 9.488281 L 16.453125 9.609375 L 16.554688 9.734375 L 16.648438 9.863281 L 16.738281 10 L 16.820312 10.140625 L 16.894531 10.285156 L 16.960938 10.433594 L 17.019531 10.582031 L 17.074219 10.738281 L 17.117188 10.898438 L 17.15625 11.0625 L 17.183594 11.222656 L 17.207031 11.390625 L 17.222656 11.558594 L 17.226562 11.730469 Z M 17.226562 11.746094 L 16.992188 11.746094 Z M 16.992188 12.160156 L 16.992188 11.746094 L 17.226562 11.746094 L 17.226562 12.160156 L 17.105469 12.277344 L 16.988281 12.160156 Z M 17.109375 12.277344 L 16.992188 12.277344 L 16.992188 12.160156 Z M 17.792969 12.277344 L 17.109375 12.277344 L 17.109375 12.046875 L 17.792969 12.046875 L 17.910156 12.164062 Z M 17.910156 12.160156 L 17.910156 12.277344 L 17.792969 12.277344 Z M 17.910156 11.746094 L 17.910156 12.160156 L 17.679688 12.160156 L 17.679688 11.746094 Z M 17.679688 11.746094 Z M 13.871094 7.933594 L 13.875 7.707031 L 14.085938 7.714844 L 14.292969 7.730469 L 14.496094 7.761719 L 14.695312 7.796875 L 14.890625 7.84375 L 15.082031 7.902344 L 15.269531 7.96875 L 15.453125 8.039062 L 15.636719 8.121094 L 15.8125 8.210938 L 15.980469 8.308594 L 16.148438 8.414062 L 16.304688 8.527344 L 16.457031 8.644531 L 16.605469 8.773438 L 16.746094 8.90625 L 16.878906 9.046875 L 17.003906 9.195312 L 17.121094 9.347656 L 17.234375 9.507812 L 17.335938 9.667969 L 17.433594 9.839844 L 17.519531 10.011719 L 17.601562 10.191406 L 17.671875 10.371094 L 17.734375 10.558594 L 17.785156 10.75 L 17.832031 10.945312 L 17.863281 11.144531 L 17.890625 11.34375 L 17.90625 11.546875 L 17.90625 11.75 L 17.675781 11.746094 L 17.671875 11.550781 L 17.660156 11.359375 L 17.636719 11.171875 L 17.605469 10.984375 L 17.566406 10.800781 L 17.511719 10.621094 L 17.453125 10.441406 L 17.386719 10.269531 L 17.3125 10.101562 L 17.230469 9.941406 L 17.136719 9.78125 L 17.039062 9.625 L 16.929688 9.476562 L 16.816406 9.332031 L 16.699219 9.195312 L 16.570312 9.0625 L 16.4375 8.9375 L 16.304688 8.816406 L 16.160156 8.703125 L 16.007812 8.597656 L 15.851562 8.496094 L 15.695312 8.402344 L 15.527344 8.316406 L 15.359375 8.242188 L 15.183594 8.171875 L 15.007812 8.113281 L 14.828125 8.058594 L 14.640625 8.015625 L 14.453125 7.976562 L 14.261719 7.953125 L 14.066406 7.933594 L 13.867188 7.925781 Z M 9.980469 11.664062 L 9.75 11.664062 L 9.757812 11.457031 L 9.773438 11.257812 L 9.804688 11.058594 L 9.839844 10.863281 L 9.890625 10.667969 L 9.949219 10.480469 L 10.015625 10.292969 L 10.089844 10.113281 L 10.171875 9.9375 L 10.265625 9.761719 L 10.367188 9.597656 L 10.472656 9.433594 L 10.585938 9.277344 L 10.707031 9.128906 L 10.839844 8.984375 L 10.972656 8.847656 L 11.117188 8.71875 L 11.269531 8.59375 L 11.425781 8.476562 L 11.585938 8.367188 L 11.753906 8.265625 L 11.925781 8.171875 L 12.105469 8.085938 L 12.285156 8.007812 L 12.46875 7.9375 L 12.660156 7.875 L 12.855469 7.824219 L 13.054688 7.78125 L 13.257812 7.75 L 13.460938 7.726562 L 13.667969 7.710938 L 13.878906 7.707031 L 13.875 7.933594 L 13.675781 7.9375 L 13.480469 7.949219 L 13.289062 7.96875 L 13.097656 8.003906 L 12.90625 8.042969 L 12.722656 8.09375 L 12.542969 8.152344 L 12.367188 8.214844 L 12.195312 8.289062 L 12.03125 8.371094 L 11.867188 8.460938 L 11.707031 8.558594 L 11.558594 8.664062 L 11.410156 8.777344 L 11.269531 8.890625 L 11.132812 9.015625 L 11.003906 9.144531 L 10.882812 9.277344 L 10.65625 9.566406 L 10.554688 9.71875 L 10.457031 9.875 L 10.371094 10.039062 L 10.292969 10.203125 L 10.222656 10.375 L 10.160156 10.546875 L 10.105469 10.726562 L 10.058594 10.90625 L 10.023438 11.089844 L 9.996094 11.277344 L 9.976562 11.46875 L 9.972656 11.664062 Z M 9.75 11.664062 Z M 9.980469 11.746094 L 9.75 11.746094 L 9.75 11.628906 L 9.980469 11.628906 Z M 9.75 14.1875 L 9.75 11.746094 L 9.980469 11.746094 L 9.980469 14.1875 L 9.945312 14.269531 Z M 9.980469 14.1875 L 9.980469 14.238281 L 9.945312 14.269531 Z M 8.171875 18.277344 L 7.9375 18.277344 L 7.9375 18.128906 L 7.941406 17.980469 L 7.953125 17.832031 L 7.96875 17.683594 L 7.984375 17.539062 L 8.007812 17.394531 L 8.0625 17.105469 L 8.132812 16.824219 L 8.171875 16.683594 L 8.265625 16.402344 L 8.316406 16.265625 L 8.371094 16.132812 L 8.433594 16 L 8.492188 15.863281 L 8.554688 15.734375 L 8.621094 15.605469 L 8.691406 15.476562 L 8.765625 15.351562 L 8.839844 15.230469 L 8.921875 15.105469 L 9.007812 14.988281 L 9.097656 14.867188 L 9.1875 14.75 L 9.375 14.523438 L 9.476562 14.414062 L 9.578125 14.308594 L 9.6875 14.203125 L 9.796875 14.101562 L 9.957031 14.265625 L 9.851562 14.363281 L 9.648438 14.566406 L 9.554688 14.671875 L 9.460938 14.78125 L 9.371094 14.890625 L 9.285156 15 L 9.199219 15.113281 L 9.117188 15.230469 L 9.039062 15.34375 L 8.96875 15.464844 L 8.898438 15.582031 L 8.828125 15.707031 L 8.761719 15.828125 L 8.699219 15.957031 L 8.636719 16.082031 L 8.582031 16.210938 L 8.53125 16.34375 L 8.484375 16.472656 L 8.4375 16.605469 L 8.398438 16.738281 L 8.328125 17.011719 L 8.273438 17.285156 L 8.25 17.421875 L 8.21875 17.703125 L 8.207031 17.847656 L 8.199219 17.988281 L 8.195312 18.128906 L 8.195312 18.269531 Z M 8.171875 18.277344 Z M 13.800781 23.851562 L 13.800781 24.078125 L 13.5 24.066406 L 13.199219 24.042969 L 12.90625 24 L 12.613281 23.953125 L 12.328125 23.886719 L 12.046875 23.808594 L 11.773438 23.710938 L 11.507812 23.609375 L 11.246094 23.492188 L 10.992188 23.363281 L 10.746094 23.222656 L 10.503906 23.070312 L 10.277344 22.90625 L 10.054688 22.734375 L 9.839844 22.546875 L 9.636719 22.355469 L 9.441406 22.15625 L 9.257812 21.945312 L 9.085938 21.726562 L 8.921875 21.5 L 8.769531 21.265625 L 8.632812 21.023438 L 8.503906 20.773438 L 8.382812 20.515625 L 8.28125 20.253906 L 8.1875 19.984375 L 8.109375 19.710938 L 8.046875 19.433594 L 7.996094 19.148438 L 7.960938 18.859375 L 7.9375 18.566406 L 7.929688 18.269531 L 8.164062 18.269531 L 8.171875 18.554688 L 8.1875 18.835938 L 8.222656 19.113281 L 8.269531 19.390625 L 8.332031 19.65625 L 8.40625 19.921875 L 8.496094 20.175781 L 8.59375 20.429688 L 8.703125 20.675781 L 8.832031 20.914062 L 8.96875 21.144531 L 9.113281 21.371094 L 9.269531 21.585938 L 9.4375 21.796875 L 9.613281 22 L 9.796875 22.195312 L 9.992188 22.378906 L 10.195312 22.554688 L 10.410156 22.722656 L 10.632812 22.878906 L 10.859375 23.023438 L 11.097656 23.15625 L 11.339844 23.277344 L 11.589844 23.390625 L 11.84375 23.492188 L 12.105469 23.578125 L 12.375 23.65625 L 12.648438 23.714844 L 12.925781 23.765625 L 13.210938 23.804688 L 13.5 23.824219 L 13.789062 23.832031 Z M 19.492188 18.335938 L 19.722656 18.335938 L 19.710938 18.628906 L 19.6875 18.921875 L 19.644531 19.210938 L 19.589844 19.496094 L 19.523438 19.777344 L 19.441406 20.050781 L 19.347656 20.320312 L 19.238281 20.578125 L 19.121094 20.835938 L 18.988281 21.085938 L 18.84375 21.328125 L 18.691406 21.5625 L 18.523438 21.785156 L 18.347656 22.003906 L 18.160156 22.210938 L 17.964844 22.410156 L 17.757812 22.601562 L 17.542969 22.785156 L 17.320312 22.953125 L 17.089844 23.113281 L 16.847656 23.261719 L 16.601562 23.398438 L 16.347656 23.523438 L 16.085938 23.640625 L 15.816406 23.742188 L 15.542969 23.832031 L 15.261719 23.90625 L 14.976562 23.96875 L 14.6875 24.019531 L 14.390625 24.054688 L 14.09375 24.078125 L 13.789062 24.085938 L 13.789062 23.855469 L 14.082031 23.851562 L 14.371094 23.832031 L 14.652344 23.800781 L 14.933594 23.753906 L 15.207031 23.691406 L 15.476562 23.617188 L 15.738281 23.53125 L 15.996094 23.433594 L 16.246094 23.324219 L 16.492188 23.203125 L 16.726562 23.070312 L 16.957031 22.925781 L 17.175781 22.773438 L 17.390625 22.609375 L 17.597656 22.4375 L 17.796875 22.257812 L 17.984375 22.0625 L 18.167969 21.867188 L 18.335938 21.65625 L 18.496094 21.4375 L 18.640625 21.214844 L 18.777344 20.984375 L 18.90625 20.746094 L 19.019531 20.5 L 19.121094 20.25 L 19.210938 19.992188 L 19.289062 19.730469 L 19.355469 19.460938 L 19.40625 19.191406 L 19.441406 18.914062 L 19.464844 18.628906 L 19.472656 18.34375 Z M 17.753906 14.308594 L 17.910156 14.136719 L 17.914062 14.140625 L 18.023438 14.246094 L 18.125 14.351562 L 18.230469 14.460938 L 18.328125 14.570312 L 18.425781 14.683594 L 18.515625 14.796875 L 18.605469 14.917969 L 18.691406 15.039062 L 18.773438 15.160156 L 18.851562 15.28125 L 18.929688 15.410156 L 19.003906 15.535156 L 19.074219 15.667969 L 19.140625 15.796875 L 19.203125 15.925781 L 19.261719 16.058594 L 19.371094 16.332031 L 19.417969 16.46875 L 19.460938 16.605469 L 19.503906 16.746094 L 19.539062 16.886719 L 19.570312 17.027344 L 19.605469 17.171875 L 19.636719 17.316406 L 19.675781 17.605469 L 19.691406 17.75 L 19.703125 17.898438 L 19.707031 18.042969 L 19.710938 18.191406 L 19.710938 18.339844 L 19.480469 18.339844 L 19.480469 18.199219 L 19.476562 18.058594 L 19.46875 17.917969 L 19.457031 17.777344 L 19.425781 17.496094 L 19.402344 17.359375 L 19.375 17.21875 L 19.347656 17.082031 L 19.3125 16.945312 L 19.277344 16.8125 L 19.238281 16.679688 L 19.191406 16.542969 L 19.144531 16.410156 L 19.09375 16.28125 L 19.039062 16.152344 L 18.976562 16.023438 L 18.917969 15.898438 L 18.855469 15.769531 L 18.789062 15.648438 L 18.71875 15.523438 L 18.644531 15.40625 L 18.570312 15.285156 L 18.488281 15.171875 L 18.40625 15.054688 L 18.320312 14.945312 L 18.234375 14.832031 L 18.140625 14.722656 L 18.042969 14.617188 L 17.949219 14.511719 L 17.847656 14.410156 L 17.746094 14.3125 L 17.75 14.3125 Z M 17.910156 14.136719 L 17.914062 14.140625 Z M 17.910156 14.136719 "/>
<path style=" stroke:none;fill-rule:nonzero;fill:rgb(92.941176%,41.176471%,36.078431%);fill-opacity:1;" d="M 13.824219 17.9375 C 13.277344 17.9375 12.832031 17.503906 12.832031 16.964844 C 12.832031 16.429688 13.273438 15.992188 13.824219 15.992188 C 14.371094 15.992188 14.816406 16.425781 14.816406 16.964844 C 14.816406 17.503906 14.371094 17.9375 13.824219 17.9375 Z M 13.824219 15.324219 C 12.898438 15.324219 12.148438 16.058594 12.148438 16.96875 C 12.148438 17.746094 12.703125 18.414062 13.480469 18.574219 L 13.480469 20.914062 C 13.480469 21.097656 13.636719 21.246094 13.824219 21.246094 C 14.011719 21.246094 14.164062 21.09375 14.167969 20.914062 L 14.167969 18.574219 C 15.070312 18.386719 15.652344 17.515625 15.460938 16.628906 C 15.300781 15.867188 14.617188 15.324219 13.824219 15.324219 Z M 13.824219 15.324219 "/>
<path style=" stroke:none;fill-rule:nonzero;fill:rgb(92.941176%,41.176471%,36.078431%);fill-opacity:1;" d="M 12.710938 16.964844 L 12.945312 16.964844 L 12.945312 17.007812 L 12.949219 17.050781 L 12.964844 17.136719 L 12.972656 17.175781 L 12.984375 17.21875 L 13.015625 17.296875 L 13.035156 17.335938 L 13.050781 17.371094 L 13.074219 17.410156 L 13.097656 17.445312 L 13.121094 17.476562 L 13.148438 17.511719 L 13.175781 17.542969 L 13.207031 17.570312 L 13.238281 17.601562 L 13.269531 17.625 L 13.304688 17.652344 L 13.335938 17.675781 L 13.371094 17.699219 L 13.410156 17.71875 L 13.445312 17.738281 L 13.488281 17.753906 L 13.527344 17.769531 L 13.570312 17.785156 L 13.609375 17.796875 L 13.648438 17.804688 L 13.695312 17.8125 L 13.738281 17.820312 L 13.78125 17.824219 L 13.828125 17.824219 L 13.828125 18.050781 L 13.773438 18.050781 L 13.714844 18.046875 L 13.660156 18.042969 L 13.550781 18.019531 L 13.5 18.003906 L 13.445312 17.988281 L 13.394531 17.96875 L 13.300781 17.921875 L 13.25 17.898438 L 13.207031 17.867188 L 13.164062 17.839844 L 13.121094 17.804688 L 13.082031 17.773438 L 13.042969 17.738281 L 13.007812 17.703125 L 12.972656 17.660156 L 12.941406 17.621094 L 12.910156 17.578125 L 12.882812 17.535156 L 12.855469 17.488281 L 12.808594 17.394531 L 12.789062 17.34375 L 12.757812 17.242188 L 12.734375 17.132812 L 12.726562 17.078125 L 12.722656 17.027344 L 12.722656 16.972656 Z M 13.820312 15.878906 L 13.820312 16.105469 L 13.773438 16.105469 L 13.730469 16.109375 L 13.6875 16.117188 L 13.640625 16.125 L 13.5625 16.148438 L 13.519531 16.160156 L 13.480469 16.175781 L 13.4375 16.195312 L 13.402344 16.210938 L 13.367188 16.234375 L 13.328125 16.253906 L 13.296875 16.28125 L 13.261719 16.304688 L 13.199219 16.359375 L 13.171875 16.390625 L 13.140625 16.421875 L 13.113281 16.453125 L 13.042969 16.558594 L 13.027344 16.59375 L 13.007812 16.632812 L 12.976562 16.710938 L 12.96875 16.75 L 12.957031 16.789062 L 12.949219 16.832031 L 12.941406 16.878906 L 12.9375 16.921875 L 12.9375 16.964844 L 12.703125 16.964844 L 12.703125 16.910156 L 12.707031 16.855469 L 12.714844 16.800781 L 12.738281 16.691406 L 12.753906 16.640625 L 12.773438 16.589844 L 12.789062 16.542969 L 12.8125 16.492188 L 12.839844 16.445312 L 12.863281 16.398438 L 12.894531 16.355469 L 12.921875 16.3125 L 12.957031 16.273438 L 12.988281 16.234375 L 13.027344 16.199219 L 13.0625 16.160156 L 13.105469 16.128906 L 13.144531 16.097656 L 13.1875 16.066406 L 13.28125 16.011719 L 13.375 15.964844 L 13.429688 15.949219 L 13.480469 15.929688 L 13.53125 15.914062 L 13.585938 15.90625 L 13.640625 15.894531 L 13.699219 15.886719 L 13.753906 15.882812 L 13.808594 15.882812 Z M 14.925781 16.964844 L 14.695312 16.964844 L 14.695312 16.921875 L 14.691406 16.878906 L 14.683594 16.832031 L 14.675781 16.789062 L 14.652344 16.710938 L 14.636719 16.671875 L 14.625 16.632812 L 14.605469 16.59375 L 14.566406 16.523438 L 14.542969 16.488281 L 14.515625 16.453125 L 14.492188 16.421875 L 14.460938 16.390625 L 14.433594 16.359375 L 14.371094 16.304688 L 14.335938 16.28125 L 14.304688 16.253906 L 14.265625 16.234375 L 14.230469 16.210938 L 14.191406 16.195312 L 14.152344 16.175781 L 14.109375 16.160156 L 14.03125 16.136719 L 13.988281 16.125 L 13.902344 16.109375 L 13.855469 16.105469 L 13.8125 16.105469 L 13.8125 15.878906 L 13.867188 15.878906 L 13.921875 15.882812 L 13.976562 15.890625 L 14.035156 15.902344 L 14.089844 15.914062 L 14.140625 15.925781 L 14.191406 15.945312 L 14.242188 15.960938 L 14.292969 15.984375 L 14.339844 16.007812 L 14.433594 16.0625 L 14.476562 16.09375 L 14.515625 16.125 L 14.558594 16.15625 L 14.59375 16.195312 L 14.632812 16.230469 L 14.664062 16.269531 L 14.699219 16.308594 L 14.726562 16.351562 L 14.757812 16.398438 L 14.78125 16.445312 L 14.808594 16.492188 L 14.832031 16.539062 L 14.847656 16.589844 L 14.867188 16.640625 L 14.882812 16.6875 L 14.90625 16.796875 L 14.914062 16.90625 L 14.914062 16.960938 Z M 13.820312 18.050781 L 13.820312 17.824219 L 13.863281 17.824219 L 13.90625 17.820312 L 13.953125 17.8125 L 14.039062 17.796875 L 14.078125 17.785156 L 14.117188 17.769531 L 14.160156 17.753906 L 14.199219 17.738281 L 14.238281 17.71875 L 14.273438 17.699219 L 14.34375 17.652344 L 14.375 17.625 L 14.410156 17.601562 L 14.4375 17.570312 L 14.46875 17.542969 L 14.5 17.511719 L 14.523438 17.476562 L 14.550781 17.445312 L 14.570312 17.410156 L 14.59375 17.371094 L 14.613281 17.335938 L 14.632812 17.296875 L 14.644531 17.257812 L 14.660156 17.21875 L 14.671875 17.175781 L 14.683594 17.136719 L 14.699219 17.050781 L 14.703125 17.007812 L 14.703125 16.964844 L 14.933594 16.964844 L 14.933594 17.019531 L 14.929688 17.074219 L 14.921875 17.125 L 14.910156 17.179688 L 14.902344 17.234375 L 14.886719 17.285156 L 14.847656 17.386719 L 14.828125 17.433594 L 14.773438 17.527344 L 14.746094 17.570312 L 14.683594 17.65625 L 14.648438 17.695312 L 14.613281 17.730469 L 14.535156 17.800781 L 14.496094 17.832031 L 14.449219 17.859375 L 14.40625 17.890625 L 14.359375 17.914062 L 14.308594 17.941406 L 14.261719 17.960938 L 14.210938 17.980469 L 14.160156 17.996094 L 14.105469 18.011719 L 13.996094 18.035156 L 13.941406 18.042969 L 13.832031 18.042969 Z M 13.820312 18.050781 Z M 12.261719 16.96875 L 12.03125 16.96875 L 12.035156 16.878906 L 12.039062 16.785156 L 12.050781 16.699219 L 12.066406 16.613281 L 12.085938 16.527344 L 12.109375 16.445312 L 12.140625 16.363281 L 12.171875 16.285156 L 12.210938 16.203125 L 12.25 16.128906 L 12.296875 16.058594 L 12.34375 15.984375 L 12.394531 15.914062 L 12.445312 15.851562 L 12.503906 15.785156 L 12.5625 15.722656 L 12.625 15.667969 L 12.691406 15.613281 L 12.757812 15.5625 L 12.828125 15.511719 L 12.902344 15.464844 L 12.972656 15.421875 L 13.050781 15.378906 L 13.132812 15.34375 L 13.214844 15.3125 L 13.300781 15.28125 L 13.382812 15.257812 L 13.46875 15.238281 L 13.558594 15.226562 L 13.644531 15.214844 L 13.738281 15.207031 L 13.832031 15.203125 L 13.832031 15.429688 L 13.75 15.433594 L 13.671875 15.441406 L 13.59375 15.453125 L 13.515625 15.46875 L 13.441406 15.484375 L 13.371094 15.507812 L 13.296875 15.53125 L 13.15625 15.59375 L 13.089844 15.625 L 13.023438 15.664062 L 12.960938 15.703125 L 12.898438 15.746094 L 12.839844 15.789062 L 12.78125 15.835938 L 12.726562 15.886719 L 12.675781 15.941406 L 12.628906 15.996094 L 12.578125 16.054688 L 12.535156 16.113281 L 12.496094 16.175781 L 12.457031 16.242188 L 12.390625 16.375 L 12.367188 16.445312 L 12.339844 16.515625 L 12.316406 16.589844 L 12.300781 16.660156 L 12.285156 16.734375 L 12.273438 16.8125 L 12.265625 16.886719 Z M 13.59375 18.574219 L 13.363281 18.574219 L 13.453125 18.683594 L 13.375 18.667969 L 13.304688 18.644531 L 13.230469 18.621094 L 13.15625 18.59375 L 13.085938 18.566406 L 13.015625 18.53125 L 12.882812 18.460938 L 12.820312 18.421875 L 12.757812 18.378906 L 12.699219 18.332031 L 12.636719 18.285156 L 12.582031 18.234375 L 12.53125 18.183594 L 12.480469 18.128906 L 12.433594 18.070312 L 12.382812 18.011719 L 12.339844 17.949219 L 12.300781 17.890625 L 12.261719 17.824219 L 12.226562 17.757812 L 12.191406 17.695312 L 12.164062 17.625 L 12.136719 17.558594 L 12.109375 17.484375 L 12.089844 17.414062 L 12.070312 17.339844 L 12.054688 17.269531 L 12.042969 17.191406 L 12.039062 17.117188 L 12.035156 17.039062 L 12.035156 16.964844 L 12.265625 16.964844 L 12.265625 17.03125 L 12.269531 17.101562 L 12.277344 17.167969 L 12.289062 17.230469 L 12.3125 17.363281 L 12.332031 17.421875 L 12.355469 17.484375 L 12.375 17.546875 L 12.402344 17.605469 L 12.433594 17.660156 L 12.460938 17.71875 L 12.53125 17.828125 L 12.648438 17.980469 L 12.695312 18.027344 L 12.738281 18.074219 L 12.785156 18.117188 L 12.839844 18.15625 L 12.890625 18.195312 L 12.945312 18.234375 L 13 18.269531 L 13.054688 18.300781 L 13.113281 18.332031 L 13.171875 18.359375 L 13.238281 18.382812 L 13.300781 18.40625 L 13.367188 18.429688 L 13.5 18.460938 L 13.589844 18.574219 Z M 13.503906 18.460938 L 13.59375 18.480469 L 13.59375 18.574219 Z M 13.363281 20.914062 L 13.363281 18.574219 L 13.59375 18.574219 L 13.59375 20.914062 Z M 13.820312 21.136719 L 13.820312 21.363281 L 13.796875 21.363281 L 13.703125 21.347656 L 13.683594 21.339844 L 13.660156 21.335938 L 13.636719 21.328125 L 13.578125 21.292969 L 13.5625 21.285156 L 13.523438 21.253906 L 13.507812 21.242188 L 13.492188 21.226562 L 13.476562 21.207031 L 13.449219 21.179688 L 13.4375 21.160156 L 13.425781 21.144531 L 13.390625 21.085938 L 13.382812 21.0625 L 13.375 21.042969 L 13.371094 21.019531 L 13.363281 21 L 13.351562 20.929688 L 13.351562 20.90625 L 13.582031 20.90625 L 13.582031 20.941406 L 13.585938 20.949219 L 13.601562 20.996094 L 13.605469 21.003906 L 13.613281 21.027344 L 13.636719 21.050781 L 13.640625 21.058594 L 13.671875 21.089844 L 13.679688 21.09375 L 13.6875 21.101562 L 13.695312 21.105469 L 13.703125 21.113281 L 13.773438 21.136719 Z M 13.820312 21.363281 Z M 14.042969 20.914062 L 14.277344 20.914062 L 14.277344 20.957031 L 14.273438 20.980469 L 14.269531 21 L 14.265625 21.023438 L 14.257812 21.046875 L 14.25 21.066406 L 14.242188 21.089844 L 14.234375 21.105469 L 14.210938 21.144531 L 14.199219 21.160156 L 14.183594 21.179688 L 14.171875 21.195312 L 14.125 21.242188 L 14.109375 21.253906 L 14.09375 21.269531 L 14.074219 21.28125 L 14.054688 21.289062 L 14.039062 21.300781 L 14.019531 21.3125 L 13.996094 21.324219 L 13.972656 21.332031 L 13.953125 21.335938 L 13.929688 21.34375 L 13.90625 21.347656 L 13.886719 21.351562 L 13.863281 21.355469 L 13.820312 21.355469 L 13.820312 21.128906 L 13.851562 21.128906 L 13.875 21.121094 L 13.882812 21.117188 L 13.90625 21.109375 L 13.914062 21.105469 L 13.949219 21.09375 L 13.960938 21.085938 L 13.96875 21.078125 L 13.972656 21.070312 L 13.996094 21.046875 L 14.003906 21.042969 L 14.011719 21.035156 L 14.015625 21.027344 L 14.023438 21.015625 L 14.027344 21.003906 L 14.03125 20.996094 L 14.039062 20.972656 L 14.039062 20.960938 L 14.042969 20.949219 L 14.042969 20.90625 Z M 14.277344 20.914062 Z M 14.277344 18.574219 L 14.277344 20.914062 L 14.042969 20.914062 L 14.042969 18.574219 L 14.136719 18.460938 Z M 14.042969 18.574219 L 14.042969 18.480469 L 14.136719 18.460938 Z M 15.34375 16.652344 L 15.570312 16.605469 L 15.585938 16.691406 L 15.597656 16.785156 L 15.605469 16.871094 L 15.609375 16.957031 L 15.609375 17.042969 L 15.601562 17.128906 L 15.589844 17.21875 L 15.558594 17.382812 L 15.535156 17.464844 L 15.507812 17.546875 L 15.480469 17.625 L 15.410156 17.78125 L 15.371094 17.851562 L 15.324219 17.925781 L 15.277344 17.996094 L 15.226562 18.0625 L 15.171875 18.128906 L 15.046875 18.246094 L 14.980469 18.304688 L 14.914062 18.359375 L 14.84375 18.410156 L 14.773438 18.457031 L 14.695312 18.5 L 14.617188 18.539062 L 14.535156 18.578125 L 14.453125 18.609375 L 14.371094 18.636719 L 14.28125 18.664062 L 14.191406 18.683594 L 14.144531 18.460938 L 14.300781 18.421875 L 14.371094 18.394531 L 14.445312 18.367188 L 14.515625 18.335938 L 14.648438 18.257812 L 14.710938 18.21875 L 14.773438 18.175781 L 14.835938 18.128906 L 14.890625 18.078125 L 14.941406 18.027344 L 14.992188 17.972656 L 15.085938 17.855469 L 15.128906 17.796875 L 15.171875 17.734375 L 15.207031 17.667969 L 15.238281 17.605469 L 15.269531 17.535156 L 15.296875 17.464844 L 15.316406 17.398438 L 15.335938 17.324219 L 15.355469 17.253906 L 15.367188 17.179688 L 15.375 17.105469 L 15.378906 17.027344 L 15.378906 16.953125 L 15.375 16.878906 L 15.371094 16.800781 L 15.359375 16.726562 L 15.34375 16.648438 Z M 13.820312 15.4375 L 13.820312 15.210938 L 13.902344 15.210938 L 13.976562 15.214844 L 14.054688 15.222656 L 14.210938 15.246094 L 14.359375 15.285156 L 14.429688 15.3125 L 14.5 15.335938 L 14.570312 15.367188 L 14.636719 15.398438 L 14.703125 15.433594 L 14.828125 15.511719 L 14.890625 15.554688 L 15.007812 15.648438 L 15.0625 15.699219 L 15.167969 15.804688 L 15.214844 15.863281 L 15.257812 15.917969 L 15.304688 15.980469 L 15.34375 16.042969 L 15.378906 16.105469 L 15.417969 16.171875 L 15.449219 16.242188 L 15.480469 16.308594 L 15.503906 16.382812 L 15.53125 16.453125 L 15.554688 16.53125 L 15.570312 16.605469 L 15.34375 16.652344 L 15.328125 16.589844 L 15.308594 16.523438 L 15.289062 16.460938 L 15.265625 16.398438 L 15.210938 16.28125 L 15.148438 16.164062 L 15.109375 16.109375 L 15.074219 16.058594 L 15.035156 16.007812 L 14.992188 15.957031 L 14.949219 15.910156 L 14.902344 15.863281 L 14.851562 15.820312 L 14.75 15.742188 L 14.699219 15.707031 L 14.640625 15.671875 L 14.585938 15.636719 L 14.527344 15.609375 L 14.46875 15.578125 L 14.410156 15.554688 L 14.347656 15.53125 L 14.222656 15.492188 L 14.160156 15.476562 L 14.09375 15.46875 L 14.027344 15.457031 L 13.960938 15.449219 L 13.894531 15.445312 L 13.824219 15.445312 Z M 13.820312 15.210938 Z M 13.820312 15.210938 "/>
<path style=" stroke:none;fill-rule:nonzero;fill:rgb(92.941176%,41.176471%,36.078431%);fill-opacity:1;" d="M 17.789062 12.132812 C 17.789062 12.316406 17.636719 12.46875 17.445312 12.46875 C 17.257812 12.46875 17.105469 12.316406 17.105469 12.132812 C 17.105469 11.945312 17.257812 11.792969 17.445312 11.792969 C 17.636719 11.792969 17.789062 11.945312 17.789062 12.132812 Z M 17.789062 12.132812 "/>
<path style=" stroke:none;fill-rule:nonzero;fill:rgb(92.941176%,41.176471%,36.078431%);fill-opacity:1;" d="M 17.445312 12.578125 L 17.445312 12.351562 L 17.480469 12.351562 L 17.503906 12.34375 L 17.511719 12.339844 L 17.546875 12.328125 L 17.558594 12.328125 L 17.570312 12.324219 L 17.617188 12.277344 L 17.625 12.273438 L 17.632812 12.265625 L 17.636719 12.257812 L 17.644531 12.246094 L 17.648438 12.234375 L 17.652344 12.226562 L 17.664062 12.191406 L 17.667969 12.183594 L 17.675781 12.160156 L 17.675781 12.128906 L 17.90625 12.128906 L 17.90625 12.175781 L 17.902344 12.195312 L 17.898438 12.21875 L 17.894531 12.238281 L 17.886719 12.261719 L 17.878906 12.28125 L 17.871094 12.304688 L 17.859375 12.328125 L 17.847656 12.34375 L 17.839844 12.363281 L 17.828125 12.378906 L 17.796875 12.417969 L 17.78125 12.429688 L 17.769531 12.449219 L 17.75 12.464844 L 17.734375 12.476562 L 17.714844 12.492188 L 17.699219 12.507812 L 17.679688 12.519531 L 17.660156 12.527344 L 17.621094 12.550781 L 17.574219 12.566406 L 17.554688 12.570312 L 17.53125 12.578125 L 17.507812 12.582031 L 17.488281 12.585938 L 17.460938 12.589844 L 17.4375 12.589844 Z M 16.984375 12.132812 L 17.21875 12.132812 L 17.21875 12.164062 L 17.222656 12.175781 L 17.226562 12.183594 L 17.238281 12.21875 L 17.238281 12.230469 L 17.242188 12.238281 L 17.246094 12.25 L 17.253906 12.261719 L 17.269531 12.277344 L 17.277344 12.28125 L 17.300781 12.304688 L 17.304688 12.3125 L 17.3125 12.320312 L 17.324219 12.328125 L 17.335938 12.328125 L 17.371094 12.339844 L 17.378906 12.34375 L 17.414062 12.355469 L 17.445312 12.355469 L 17.445312 12.582031 L 17.425781 12.582031 L 17.398438 12.578125 L 17.375 12.574219 L 17.355469 12.570312 L 17.332031 12.566406 L 17.308594 12.558594 L 17.289062 12.550781 L 17.265625 12.542969 L 17.242188 12.53125 L 17.226562 12.519531 L 17.207031 12.511719 L 17.1875 12.5 L 17.171875 12.484375 L 17.152344 12.472656 L 17.136719 12.457031 L 17.117188 12.441406 L 17.105469 12.425781 L 17.089844 12.414062 L 17.058594 12.375 L 17.046875 12.359375 L 17.039062 12.339844 L 17.027344 12.320312 L 17.019531 12.300781 L 17.011719 12.277344 L 17.003906 12.257812 L 16.996094 12.234375 L 16.992188 12.214844 L 16.988281 12.191406 L 16.984375 12.171875 L 16.980469 12.144531 L 16.980469 12.125 Z M 17.445312 11.679688 L 17.445312 11.90625 L 17.414062 11.90625 L 17.378906 11.917969 L 17.371094 11.921875 L 17.3125 11.941406 L 17.304688 11.949219 L 17.300781 11.957031 L 17.269531 11.988281 L 17.261719 11.992188 L 17.253906 12 L 17.238281 12.023438 L 17.238281 12.03125 L 17.234375 12.039062 L 17.21875 12.085938 L 17.214844 12.09375 L 17.214844 12.128906 L 16.980469 12.128906 L 16.980469 12.105469 L 16.992188 12.035156 L 17 12.015625 L 17.007812 11.992188 L 17.015625 11.972656 L 17.023438 11.949219 L 17.03125 11.933594 L 17.039062 11.914062 L 17.050781 11.894531 L 17.0625 11.878906 L 17.078125 11.859375 L 17.09375 11.84375 L 17.105469 11.828125 L 17.136719 11.796875 L 17.15625 11.785156 L 17.171875 11.769531 L 17.191406 11.753906 L 17.210938 11.746094 L 17.230469 11.734375 L 17.246094 11.722656 L 17.269531 11.710938 L 17.292969 11.703125 L 17.3125 11.699219 L 17.359375 11.683594 L 17.378906 11.679688 L 17.402344 11.675781 L 17.429688 11.671875 L 17.449219 11.671875 Z M 17.90625 12.132812 L 17.671875 12.132812 L 17.671875 12.097656 L 17.667969 12.085938 L 17.664062 12.078125 L 17.652344 12.042969 L 17.648438 12.035156 L 17.644531 12.023438 L 17.636719 12.011719 L 17.632812 12 L 17.625 11.992188 L 17.617188 11.988281 L 17.570312 11.941406 L 17.5625 11.9375 L 17.503906 11.917969 L 17.496094 11.914062 L 17.472656 11.90625 L 17.4375 11.90625 L 17.4375 11.679688 L 17.460938 11.679688 L 17.488281 11.683594 L 17.507812 11.6875 L 17.53125 11.691406 L 17.554688 11.699219 L 17.574219 11.703125 L 17.621094 11.71875 L 17.660156 11.742188 L 17.679688 11.75 L 17.699219 11.761719 L 17.714844 11.777344 L 17.734375 11.792969 L 17.753906 11.804688 L 17.769531 11.820312 L 17.78125 11.835938 L 17.796875 11.847656 L 17.828125 11.886719 L 17.839844 11.902344 L 17.847656 11.921875 L 17.871094 11.960938 L 17.878906 11.984375 L 17.886719 12.003906 L 17.894531 12.027344 L 17.902344 12.046875 L 17.90625 12.070312 L 17.90625 12.089844 L 17.910156 12.117188 L 17.910156 12.136719 Z M 17.90625 12.132812 "/>
</g>
</svg>
