<?xml version="1.0" encoding="UTF-8"?>
<svg xmlns="http://www.w3.org/2000/svg" xmlns:xlink="http://www.w3.org/1999/xlink" width="28px" height="28px" viewBox="0 0 28 28" version="1.1">
<g id="surface1">
<path style=" stroke:none;fill-rule:nonzero;fill:rgb(92.941176%,41.176471%,36.078431%);fill-opacity:1;" d="M 14.082031 3.914062 C 14.234375 3.914062 14.378906 3.957031 14.507812 4.035156 L 26.601562 11.863281 L 26.601562 9.8125 L 14.082031 1.714844 L 1.5625 9.8125 L 1.5625 11.863281 L 13.65625 4.035156 C 13.78125 3.953125 13.929688 3.910156 14.082031 3.910156 Z M 27.382812 14.082031 C 27.230469 14.082031 27.085938 14.039062 26.957031 13.953125 L 14.082031 5.625 L 1.207031 13.953125 C 0.964844 14.109375 0.660156 14.121094 0.410156 13.980469 C 0.15625 13.847656 0 13.582031 0 13.296875 L 0 9.386719 C 0 9.121094 0.136719 8.875 0.355469 8.730469 L 13.65625 0.125 C 13.914062 -0.0390625 14.246094 -0.0390625 14.507812 0.125 L 27.808594 8.730469 C 28.03125 8.875 28.164062 9.121094 28.164062 9.386719 L 28.164062 13.296875 C 28.164062 13.730469 27.816406 14.078125 27.382812 14.078125 Z M 27.382812 14.082031 "/>
<path style=" stroke:none;fill-rule:nonzero;fill:rgb(92.941176%,41.176471%,36.078431%);fill-opacity:1;" d="M 25.816406 28.164062 L 11.734375 28.164062 L 11.734375 26.597656 L 25.035156 26.597656 L 25.035156 11.734375 L 26.597656 11.734375 L 26.597656 27.378906 C 26.597656 27.8125 26.25 28.160156 25.816406 28.160156 Z M 25.816406 28.164062 "/>
<path style=" stroke:none;fill-rule:nonzero;fill:rgb(92.941176%,41.176471%,36.078431%);fill-opacity:1;" d="M 2.34375 28.164062 C 1.910156 28.164062 1.5625 27.8125 1.5625 27.382812 L 1.5625 11.738281 L 3.125 11.738281 L 3.125 26.601562 L 16.425781 26.601562 L 16.425781 28.167969 L 2.34375 28.167969 Z M 2.34375 28.164062 "/>
<path style=" stroke:none;fill-rule:nonzero;fill:rgb(92.941176%,41.176471%,36.078431%);fill-opacity:1;" d="M 14.082031 23.996094 C 11.515625 23.988281 9.449219 21.898438 9.457031 19.335938 C 9.464844 16.773438 11.554688 14.703125 14.113281 14.710938 C 16.675781 14.71875 18.75 16.804688 18.738281 19.371094 C 18.714844 21.925781 16.640625 23.992188 14.082031 23.996094 Z M 11.078125 13.242188 C 11.078125 11.582031 12.421875 10.238281 14.082031 10.238281 C 15.738281 10.238281 17.085938 11.582031 17.085938 13.238281 C 17.085938 13.238281 17.085938 13.238281 17.085938 13.242188 L 17.085938 15.023438 C 15.28125 13.773438 12.886719 13.773438 11.078125 15.023438 Z M 17.707031 15.519531 L 17.707031 13.242188 C 17.726562 11.234375 16.117188 9.597656 14.117188 9.578125 C 12.113281 9.558594 10.472656 11.164062 10.453125 13.164062 C 10.453125 13.1875 10.453125 13.210938 10.453125 13.242188 L 10.453125 15.519531 C 9.394531 16.507812 8.792969 17.890625 8.800781 19.335938 C 8.78125 22.257812 11.136719 24.632812 14.054688 24.648438 C 16.972656 24.664062 19.347656 22.3125 19.363281 19.394531 C 19.371094 17.929688 18.769531 16.527344 17.707031 15.527344 Z M 17.707031 15.519531 "/>
<path style=" stroke:none;fill-rule:nonzero;fill:rgb(92.941176%,41.176471%,36.078431%);fill-opacity:1;" d="M 9.347656 19.335938 L 9.558594 19.335938 L 9.566406 19.570312 L 9.582031 19.796875 L 9.609375 20.027344 L 9.648438 20.25 L 9.695312 20.472656 L 9.757812 20.6875 L 9.828125 20.902344 L 9.910156 21.105469 L 9.996094 21.304688 L 10.097656 21.503906 L 10.207031 21.691406 L 10.320312 21.875 L 10.445312 22.050781 L 10.578125 22.222656 L 10.71875 22.386719 L 10.867188 22.542969 L 11.023438 22.695312 L 11.1875 22.839844 L 11.359375 22.976562 L 11.535156 23.105469 L 11.722656 23.226562 L 11.910156 23.335938 L 12.105469 23.433594 L 12.304688 23.527344 L 12.511719 23.605469 L 12.722656 23.679688 L 12.941406 23.738281 L 13.160156 23.792969 L 13.382812 23.832031 L 13.613281 23.859375 L 13.839844 23.878906 L 14.074219 23.886719 L 14.074219 24.101562 L 13.828125 24.09375 L 13.589844 24.070312 L 13.351562 24.039062 L 13.121094 23.996094 L 12.890625 23.945312 L 12.667969 23.878906 L 12.445312 23.804688 L 12.230469 23.71875 L 12.023438 23.621094 L 11.816406 23.519531 L 11.621094 23.402344 L 11.429688 23.277344 L 11.242188 23.144531 L 11.0625 23.003906 L 10.890625 22.855469 L 10.726562 22.699219 L 10.570312 22.535156 L 10.421875 22.363281 L 10.28125 22.183594 L 10.148438 21.996094 L 10.027344 21.804688 L 9.914062 21.601562 L 9.808594 21.398438 L 9.710938 21.1875 L 9.628906 20.96875 L 9.554688 20.75 L 9.492188 20.523438 L 9.441406 20.296875 L 9.398438 20.0625 L 9.371094 19.828125 L 9.355469 19.585938 L 9.351562 19.339844 Z M 14.113281 14.609375 L 14.113281 14.820312 L 13.882812 14.824219 L 13.652344 14.839844 L 13.425781 14.867188 L 13.199219 14.90625 L 12.980469 14.957031 L 12.761719 15.015625 L 12.550781 15.089844 L 12.347656 15.167969 L 12.144531 15.257812 L 11.949219 15.355469 L 11.761719 15.464844 L 11.578125 15.582031 L 11.402344 15.707031 L 11.226562 15.839844 L 11.0625 15.976562 L 10.90625 16.125 L 10.753906 16.28125 L 10.609375 16.449219 L 10.472656 16.621094 L 10.347656 16.796875 L 10.226562 16.980469 L 10.117188 17.167969 L 10.015625 17.367188 L 9.925781 17.566406 L 9.84375 17.769531 L 9.773438 17.980469 L 9.710938 18.195312 L 9.660156 18.414062 L 9.621094 18.640625 L 9.59375 18.867188 L 9.574219 19.097656 L 9.566406 19.328125 L 9.351562 19.328125 L 9.359375 19.085938 L 9.378906 18.84375 L 9.414062 18.609375 L 9.457031 18.375 L 9.507812 18.148438 L 9.574219 17.921875 L 9.648438 17.703125 L 9.734375 17.484375 L 9.828125 17.277344 L 9.933594 17.074219 L 10.050781 16.875 L 10.171875 16.683594 L 10.304688 16.5 L 10.445312 16.320312 L 10.59375 16.148438 L 10.75 15.984375 L 10.914062 15.824219 L 11.085938 15.679688 L 11.269531 15.539062 L 11.457031 15.40625 L 11.648438 15.28125 L 11.847656 15.167969 L 12.054688 15.066406 L 12.265625 14.96875 L 12.484375 14.882812 L 12.703125 14.8125 L 12.925781 14.746094 L 13.15625 14.695312 L 13.390625 14.65625 L 13.625 14.628906 L 13.867188 14.613281 L 14.109375 14.609375 Z M 18.84375 19.371094 L 18.632812 19.371094 L 18.628906 19.136719 L 18.613281 18.910156 L 18.582031 18.679688 L 18.542969 18.457031 L 18.496094 18.234375 L 18.433594 18.019531 L 18.363281 17.804688 L 18.285156 17.601562 L 18.195312 17.402344 L 18.09375 17.203125 L 17.988281 17.015625 L 17.871094 16.832031 L 17.746094 16.65625 L 17.613281 16.484375 L 17.472656 16.320312 L 17.324219 16.164062 L 17.167969 16.011719 L 17.003906 15.867188 L 16.832031 15.730469 L 16.65625 15.601562 L 16.472656 15.480469 L 16.28125 15.375 L 16.085938 15.273438 L 15.886719 15.179688 L 15.679688 15.101562 L 15.472656 15.027344 L 15.257812 14.96875 L 15.035156 14.917969 L 14.8125 14.875 L 14.582031 14.847656 L 14.351562 14.828125 L 14.117188 14.820312 L 14.117188 14.609375 L 14.363281 14.617188 L 14.601562 14.636719 L 14.839844 14.667969 L 15.074219 14.710938 L 15.300781 14.765625 L 15.523438 14.828125 L 15.746094 14.902344 L 15.960938 14.988281 L 16.171875 15.085938 L 16.375 15.1875 L 16.570312 15.304688 L 16.765625 15.429688 L 16.949219 15.5625 L 17.128906 15.703125 L 17.300781 15.851562 L 17.464844 16.007812 L 17.621094 16.171875 L 17.769531 16.34375 L 17.910156 16.523438 L 18.042969 16.710938 L 18.167969 16.90625 L 18.277344 17.105469 L 18.382812 17.308594 L 18.480469 17.519531 L 18.5625 17.734375 L 18.636719 17.953125 L 18.699219 18.179688 L 18.753906 18.40625 L 18.792969 18.640625 L 18.820312 18.875 L 18.835938 19.117188 L 18.839844 19.363281 Z M 18.84375 19.371094 Z M 14.078125 24.105469 L 14.078125 23.890625 L 14.3125 23.882812 L 14.539062 23.863281 L 14.761719 23.835938 L 14.988281 23.796875 L 15.207031 23.742188 L 15.425781 23.683594 L 15.632812 23.609375 L 15.839844 23.53125 L 16.039062 23.4375 L 16.234375 23.339844 L 16.421875 23.230469 L 16.609375 23.113281 L 16.785156 22.988281 L 16.957031 22.855469 L 17.121094 22.71875 L 17.277344 22.570312 L 17.429688 22.414062 L 17.574219 22.246094 L 17.710938 22.074219 L 17.839844 21.898438 L 17.957031 21.714844 L 18.070312 21.527344 L 18.171875 21.328125 L 18.261719 21.128906 L 18.347656 20.925781 L 18.417969 20.714844 L 18.484375 20.5 L 18.535156 20.28125 L 18.574219 20.054688 L 18.609375 19.832031 L 18.628906 19.601562 L 18.636719 19.371094 L 18.847656 19.371094 L 18.839844 19.613281 L 18.820312 19.855469 L 18.789062 20.089844 L 18.746094 20.324219 L 18.6875 20.550781 L 18.625 20.777344 L 18.546875 20.996094 L 18.460938 21.214844 L 18.363281 21.421875 L 18.257812 21.625 L 18.144531 21.824219 L 18.019531 22.015625 L 17.886719 22.199219 L 17.746094 22.378906 L 17.597656 22.550781 L 17.441406 22.71875 L 17.277344 22.875 L 17.105469 23.023438 L 16.925781 23.160156 L 16.738281 23.292969 L 16.546875 23.417969 L 16.347656 23.53125 L 16.144531 23.636719 L 15.933594 23.730469 L 15.71875 23.816406 L 15.496094 23.890625 L 15.273438 23.957031 L 15.042969 24.007812 L 14.8125 24.046875 L 14.574219 24.078125 L 14.335938 24.101562 L 14.089844 24.109375 Z M 14.078125 24.105469 Z M 14.078125 10.132812 L 14.078125 10.347656 L 13.929688 10.351562 L 13.78125 10.363281 L 13.636719 10.382812 L 13.492188 10.40625 L 13.351562 10.4375 L 13.078125 10.523438 L 12.949219 10.574219 L 12.820312 10.632812 L 12.695312 10.695312 L 12.574219 10.761719 L 12.457031 10.839844 L 12.347656 10.917969 L 12.238281 11.003906 L 12.132812 11.097656 L 12.035156 11.191406 L 11.9375 11.292969 L 11.84375 11.398438 L 11.761719 11.503906 L 11.679688 11.617188 L 11.605469 11.734375 L 11.535156 11.855469 L 11.472656 11.976562 L 11.417969 12.105469 L 11.363281 12.238281 L 11.320312 12.375 L 11.28125 12.511719 L 11.25 12.652344 L 11.222656 12.796875 L 11.203125 12.941406 L 11.191406 13.089844 L 11.1875 13.238281 L 10.976562 13.238281 L 10.980469 13.078125 L 10.992188 12.917969 L 11.011719 12.761719 L 11.039062 12.609375 L 11.074219 12.457031 L 11.117188 12.3125 L 11.164062 12.167969 L 11.21875 12.027344 L 11.28125 11.890625 L 11.347656 11.757812 L 11.425781 11.628906 L 11.503906 11.503906 L 11.59375 11.382812 L 11.683594 11.269531 L 11.78125 11.15625 L 11.886719 11.046875 L 11.992188 10.945312 L 12.105469 10.847656 L 12.222656 10.753906 L 12.34375 10.667969 L 12.472656 10.585938 L 12.597656 10.511719 L 12.730469 10.441406 L 12.867188 10.378906 L 13.007812 10.324219 L 13.152344 10.273438 L 13.300781 10.234375 L 13.453125 10.199219 L 13.605469 10.171875 L 13.761719 10.148438 L 13.917969 10.136719 Z M 17.1875 13.242188 L 16.976562 13.242188 L 16.972656 13.09375 L 16.960938 12.945312 L 16.941406 12.800781 L 16.917969 12.65625 L 16.882812 12.515625 L 16.84375 12.378906 L 16.800781 12.242188 L 16.746094 12.109375 L 16.691406 11.980469 L 16.628906 11.859375 L 16.558594 11.738281 L 16.484375 11.621094 L 16.402344 11.507812 L 16.320312 11.402344 L 16.226562 11.296875 L 16.128906 11.195312 L 16.03125 11.101562 L 15.925781 11.007812 L 15.816406 10.921875 L 15.707031 10.84375 L 15.589844 10.765625 L 15.46875 10.699219 L 15.34375 10.636719 L 15.214844 10.578125 L 15.085938 10.527344 L 14.8125 10.441406 L 14.671875 10.410156 L 14.527344 10.386719 L 14.382812 10.367188 L 14.234375 10.355469 L 14.085938 10.351562 L 14.085938 10.136719 L 14.246094 10.140625 L 14.402344 10.152344 L 14.558594 10.175781 L 14.710938 10.203125 L 14.859375 10.238281 L 15.007812 10.277344 L 15.152344 10.328125 L 15.292969 10.382812 L 15.429688 10.441406 L 15.566406 10.511719 L 15.695312 10.585938 L 15.820312 10.667969 L 15.941406 10.753906 L 16.058594 10.847656 L 16.171875 10.945312 L 16.277344 11.046875 L 16.382812 11.15625 L 16.480469 11.269531 L 16.570312 11.382812 L 16.660156 11.503906 L 16.738281 11.628906 L 16.816406 11.757812 L 16.882812 11.890625 L 16.949219 12.027344 L 17.003906 12.167969 L 17.050781 12.3125 L 17.09375 12.457031 L 17.128906 12.605469 L 17.15625 12.757812 L 17.175781 12.914062 L 17.1875 13.070312 L 17.191406 13.234375 Z M 17.1875 13.246094 L 16.976562 13.246094 Z M 16.976562 15.027344 L 16.976562 13.246094 L 17.1875 13.246094 L 17.1875 15.027344 L 17.019531 15.117188 L 16.972656 15.027344 Z M 17.1875 15.027344 L 17.1875 15.234375 L 17.019531 15.117188 Z M 10.972656 15.027344 L 11.183594 15.027344 L 11.015625 14.941406 L 11.1875 14.824219 L 11.363281 14.714844 L 11.542969 14.617188 L 11.730469 14.523438 L 11.917969 14.4375 L 12.105469 14.359375 L 12.296875 14.285156 L 12.492188 14.222656 L 12.683594 14.167969 L 12.878906 14.117188 L 13.074219 14.078125 L 13.277344 14.046875 L 13.476562 14.019531 L 13.675781 14 L 13.878906 13.984375 L 14.078125 13.980469 L 14.277344 13.984375 L 14.480469 14 L 14.679688 14.019531 L 14.878906 14.046875 L 15.082031 14.078125 L 15.277344 14.117188 L 15.472656 14.167969 L 15.664062 14.222656 L 15.859375 14.285156 L 16.050781 14.359375 L 16.238281 14.4375 L 16.425781 14.523438 L 16.613281 14.617188 L 16.792969 14.714844 L 16.96875 14.824219 L 17.144531 14.941406 L 17.023438 15.117188 L 16.855469 15.003906 L 16.683594 14.898438 L 16.511719 14.804688 L 16.335938 14.714844 L 16.15625 14.632812 L 15.972656 14.554688 L 15.789062 14.488281 L 15.605469 14.425781 L 15.417969 14.371094 L 15.230469 14.324219 L 15.039062 14.28125 L 14.847656 14.25 L 14.65625 14.226562 L 14.464844 14.207031 L 14.269531 14.195312 L 14.078125 14.191406 L 13.886719 14.195312 L 13.695312 14.207031 L 13.5 14.226562 L 13.308594 14.25 L 13.117188 14.28125 L 12.925781 14.324219 L 12.738281 14.371094 L 12.550781 14.425781 L 12.367188 14.488281 L 12.183594 14.554688 L 12 14.632812 L 11.820312 14.714844 L 11.644531 14.804688 L 11.472656 14.898438 L 11.304688 15.003906 L 11.136719 15.117188 L 10.96875 15.027344 Z M 11.140625 15.117188 L 10.972656 15.234375 L 10.972656 15.027344 Z M 11.1875 13.25 L 11.1875 15.03125 L 10.976562 15.03125 L 10.976562 13.25 Z M 17.8125 13.25 L 17.8125 15.53125 L 17.601562 15.53125 L 17.601562 13.25 Z M 17.601562 13.25 Z M 14.117188 9.691406 L 14.121094 9.480469 L 14.316406 9.488281 L 14.503906 9.503906 L 14.691406 9.527344 L 14.875 9.566406 L 15.054688 9.609375 L 15.234375 9.660156 L 15.40625 9.722656 L 15.574219 9.789062 L 15.738281 9.867188 L 15.898438 9.949219 L 16.054688 10.042969 L 16.207031 10.140625 L 16.351562 10.246094 L 16.492188 10.359375 L 16.625 10.480469 L 16.75 10.601562 L 16.871094 10.734375 L 16.988281 10.871094 L 17.097656 11.011719 L 17.199219 11.160156 L 17.296875 11.3125 L 17.386719 11.46875 L 17.464844 11.628906 L 17.539062 11.792969 L 17.601562 11.964844 L 17.65625 12.136719 L 17.707031 12.316406 L 17.746094 12.496094 L 17.777344 12.679688 L 17.796875 12.867188 L 17.808594 13.054688 L 17.8125 13.25 L 17.601562 13.246094 L 17.597656 13.0625 L 17.585938 12.882812 L 17.566406 12.707031 L 17.539062 12.535156 L 17.5 12.363281 L 17.457031 12.195312 L 17.40625 12.03125 L 17.34375 11.871094 L 17.277344 11.714844 L 17.199219 11.5625 L 17.117188 11.414062 L 17.027344 11.269531 L 16.933594 11.128906 L 16.828125 10.996094 L 16.71875 10.867188 L 16.605469 10.742188 L 16.484375 10.625 L 16.355469 10.515625 L 16.222656 10.410156 L 16.085938 10.308594 L 15.945312 10.21875 L 15.796875 10.128906 L 15.644531 10.050781 L 15.488281 9.976562 L 15.328125 9.914062 L 15.164062 9.855469 L 15 9.808594 L 14.832031 9.769531 L 14.660156 9.738281 L 14.484375 9.714844 L 14.300781 9.695312 L 14.121094 9.6875 Z M 10.5625 13.175781 L 10.351562 13.175781 L 10.359375 12.984375 L 10.375 12.796875 L 10.398438 12.605469 L 10.433594 12.421875 L 10.476562 12.242188 L 10.53125 12.066406 L 10.589844 11.894531 L 10.660156 11.726562 L 10.734375 11.5625 L 10.820312 11.402344 L 10.910156 11.246094 L 11.011719 11.09375 L 11.117188 10.949219 L 11.226562 10.808594 L 11.347656 10.675781 L 11.472656 10.546875 L 11.605469 10.425781 L 11.742188 10.308594 L 11.882812 10.203125 L 12.03125 10.097656 L 12.183594 10 L 12.339844 9.914062 L 12.5 9.832031 L 12.664062 9.761719 L 12.835938 9.695312 L 13.007812 9.640625 L 13.183594 9.59375 L 13.363281 9.550781 L 13.550781 9.519531 L 13.738281 9.5 L 13.925781 9.488281 L 14.117188 9.484375 L 14.113281 9.695312 L 13.933594 9.699219 L 13.753906 9.714844 L 13.578125 9.734375 L 13.40625 9.761719 L 13.230469 9.796875 L 13.0625 9.839844 L 12.898438 9.894531 L 12.738281 9.953125 L 12.582031 10.023438 L 12.429688 10.097656 L 12.28125 10.183594 L 12.136719 10.269531 L 11.996094 10.367188 L 11.867188 10.46875 L 11.738281 10.578125 L 11.613281 10.695312 L 11.496094 10.816406 L 11.382812 10.945312 L 11.28125 11.074219 L 11.179688 11.210938 L 11.085938 11.351562 L 11 11.5 L 10.917969 11.652344 L 10.847656 11.808594 L 10.78125 11.96875 L 10.726562 12.132812 L 10.679688 12.300781 L 10.640625 12.472656 L 10.605469 12.644531 L 10.582031 12.820312 L 10.566406 13 L 10.558594 13.179688 Z M 10.351562 13.175781 Z M 10.5625 13.253906 L 10.351562 13.253906 L 10.351562 13.125 L 10.5625 13.125 Z M 10.351562 15.535156 L 10.351562 13.253906 L 10.5625 13.253906 L 10.5625 15.535156 L 10.527344 15.613281 L 10.347656 15.535156 Z M 10.5625 15.535156 L 10.5625 15.582031 L 10.527344 15.613281 Z M 8.90625 19.351562 L 8.695312 19.351562 L 8.695312 19.210938 L 8.699219 19.074219 L 8.707031 18.9375 L 8.71875 18.800781 L 8.734375 18.664062 L 8.753906 18.527344 L 8.777344 18.390625 L 8.804688 18.257812 L 8.832031 18.128906 L 8.863281 17.996094 L 8.898438 17.863281 L 8.9375 17.734375 L 9.03125 17.476562 L 9.078125 17.351562 L 9.132812 17.230469 L 9.1875 17.105469 L 9.246094 16.984375 L 9.371094 16.742188 L 9.441406 16.628906 L 9.511719 16.511719 L 9.660156 16.285156 L 9.742188 16.179688 L 9.824219 16.070312 L 9.914062 15.960938 L 10 15.859375 L 10.09375 15.757812 L 10.191406 15.65625 L 10.285156 15.5625 L 10.386719 15.464844 L 10.53125 15.621094 L 10.433594 15.714844 L 10.34375 15.804688 L 10.25 15.902344 L 10.160156 16 L 10.078125 16.097656 L 9.992188 16.199219 L 9.914062 16.304688 L 9.835938 16.40625 L 9.765625 16.515625 L 9.691406 16.625 L 9.625 16.734375 L 9.558594 16.847656 L 9.496094 16.964844 L 9.4375 17.082031 L 9.378906 17.195312 L 9.226562 17.558594 L 9.183594 17.679688 L 9.144531 17.800781 L 9.066406 18.050781 L 9.035156 18.179688 L 9.007812 18.308594 L 8.984375 18.4375 L 8.964844 18.5625 L 8.941406 18.691406 L 8.925781 18.824219 L 8.914062 18.957031 L 8.90625 19.089844 L 8.902344 19.222656 L 8.902344 19.355469 Z M 8.90625 19.351562 Z M 14.058594 24.554688 L 14.058594 24.765625 L 13.78125 24.757812 L 13.507812 24.734375 L 13.242188 24.695312 L 12.976562 24.648438 L 12.714844 24.589844 L 12.457031 24.515625 L 12.210938 24.433594 L 11.964844 24.335938 L 11.730469 24.226562 L 11.496094 24.109375 L 11.273438 23.976562 L 11.054688 23.835938 L 10.84375 23.683594 L 10.640625 23.523438 L 10.441406 23.351562 L 10.253906 23.167969 L 10.078125 22.980469 L 9.910156 22.785156 L 9.75 22.582031 L 9.601562 22.367188 L 9.460938 22.148438 L 9.332031 21.921875 L 9.214844 21.691406 L 9.109375 21.449219 L 9.011719 21.207031 L 8.925781 20.953125 L 8.855469 20.695312 L 8.792969 20.4375 L 8.746094 20.171875 L 8.714844 19.902344 L 8.695312 19.628906 L 8.691406 19.355469 L 8.902344 19.355469 L 8.90625 19.617188 L 8.925781 19.882812 L 8.960938 20.144531 L 9.003906 20.398438 L 9.058594 20.652344 L 9.128906 20.898438 L 9.207031 21.136719 L 9.300781 21.375 L 9.398438 21.601562 L 9.511719 21.828125 L 9.636719 22.042969 L 9.769531 22.257812 L 9.914062 22.460938 L 10.066406 22.65625 L 10.226562 22.84375 L 10.398438 23.027344 L 10.578125 23.199219 L 10.765625 23.363281 L 10.964844 23.519531 L 11.164062 23.664062 L 11.371094 23.800781 L 11.589844 23.921875 L 11.8125 24.039062 L 12.042969 24.144531 L 12.277344 24.234375 L 12.519531 24.320312 L 12.761719 24.390625 L 13.011719 24.453125 L 13.269531 24.5 L 13.527344 24.53125 L 13.792969 24.554688 L 14.0625 24.5625 Z M 19.261719 19.402344 L 19.472656 19.402344 L 19.464844 19.679688 L 19.445312 19.949219 L 19.410156 20.21875 L 19.363281 20.484375 L 19.300781 20.746094 L 19.230469 21 L 19.144531 21.25 L 19.050781 21.496094 L 18.941406 21.730469 L 18.820312 21.964844 L 18.6875 22.1875 L 18.546875 22.402344 L 18.394531 22.617188 L 18.234375 22.820312 L 18.0625 23.015625 L 17.882812 23.207031 L 17.695312 23.382812 L 17.496094 23.550781 L 17.292969 23.710938 L 17.082031 23.859375 L 16.859375 24 L 16.636719 24.128906 L 16.402344 24.246094 L 16.164062 24.351562 L 15.917969 24.449219 L 15.664062 24.53125 L 15.410156 24.605469 L 15.148438 24.664062 L 14.882812 24.714844 L 14.617188 24.746094 L 14.34375 24.765625 L 14.066406 24.769531 L 14.066406 24.558594 L 14.332031 24.554688 L 14.59375 24.53125 L 14.855469 24.5 L 15.113281 24.457031 L 15.363281 24.402344 L 15.609375 24.332031 L 15.851562 24.253906 L 16.085938 24.160156 L 16.316406 24.054688 L 16.539062 23.945312 L 16.757812 23.820312 L 16.96875 23.6875 L 17.171875 23.542969 L 17.371094 23.390625 L 17.558594 23.230469 L 17.738281 23.058594 L 17.910156 22.878906 L 18.074219 22.6875 L 18.230469 22.492188 L 18.375 22.289062 L 18.511719 22.078125 L 18.636719 21.863281 L 18.753906 21.636719 L 18.855469 21.410156 L 18.949219 21.171875 L 19.03125 20.933594 L 19.105469 20.6875 L 19.164062 20.441406 L 19.214844 20.183594 L 19.25 19.921875 L 19.269531 19.660156 L 19.277344 19.390625 Z M 17.605469 15.535156 L 17.816406 15.535156 L 17.785156 15.457031 L 17.886719 15.554688 L 17.984375 15.652344 L 18.078125 15.753906 L 18.171875 15.859375 L 18.257812 15.964844 L 18.34375 16.074219 L 18.425781 16.183594 L 18.507812 16.296875 L 18.582031 16.40625 L 18.660156 16.523438 L 18.730469 16.640625 L 18.800781 16.761719 L 18.863281 16.878906 L 18.929688 17.003906 L 18.988281 17.128906 L 19.042969 17.253906 L 19.097656 17.382812 L 19.144531 17.507812 L 19.1875 17.636719 L 19.234375 17.769531 L 19.273438 17.902344 L 19.308594 18.035156 L 19.339844 18.167969 L 19.371094 18.304688 L 19.394531 18.441406 L 19.417969 18.574219 L 19.4375 18.710938 L 19.453125 18.847656 L 19.464844 18.984375 L 19.472656 19.125 L 19.476562 19.265625 L 19.476562 19.40625 L 19.265625 19.40625 L 19.265625 19.273438 L 19.261719 19.140625 L 19.253906 19.007812 L 19.242188 18.875 L 19.226562 18.746094 L 19.207031 18.613281 L 19.183594 18.480469 L 19.160156 18.351562 L 19.132812 18.222656 L 19.101562 18.09375 L 19.066406 17.964844 L 18.988281 17.714844 L 18.945312 17.589844 L 18.898438 17.464844 L 18.84375 17.34375 L 18.792969 17.226562 L 18.734375 17.105469 L 18.675781 16.988281 L 18.613281 16.871094 L 18.480469 16.644531 L 18.40625 16.53125 L 18.332031 16.421875 L 18.175781 16.210938 L 18.089844 16.105469 L 18.007812 16.007812 L 17.917969 15.90625 L 17.828125 15.808594 L 17.734375 15.714844 L 17.636719 15.621094 L 17.605469 15.546875 Z M 17.636719 15.609375 L 17.605469 15.578125 L 17.605469 15.53125 L 17.636719 15.605469 Z M 17.636719 15.609375 "/>
<path style=" stroke:none;fill-rule:nonzero;fill:rgb(92.941176%,41.176471%,36.078431%);fill-opacity:1;" d="M 14.082031 19.023438 C 13.582031 19.023438 13.175781 18.621094 13.175781 18.117188 C 13.175781 17.617188 13.582031 17.214844 14.082031 17.214844 C 14.582031 17.214844 14.988281 17.617188 14.988281 18.117188 C 14.988281 18.621094 14.582031 19.023438 14.082031 19.023438 Z M 14.082031 16.585938 C 13.238281 16.585938 12.550781 17.277344 12.550781 18.121094 C 12.550781 18.847656 13.058594 19.472656 13.769531 19.617188 L 13.769531 21.808594 C 13.769531 21.980469 13.910156 22.121094 14.082031 22.121094 C 14.253906 22.121094 14.394531 21.980469 14.394531 21.808594 L 14.394531 19.617188 C 15.226562 19.445312 15.753906 18.632812 15.582031 17.804688 C 15.433594 17.097656 14.808594 16.585938 14.082031 16.585938 Z M 14.082031 16.585938 "/>
<path style=" stroke:none;fill-rule:nonzero;fill:rgb(92.941176%,41.176471%,36.078431%);fill-opacity:1;" d="M 13.066406 18.117188 L 13.28125 18.117188 L 13.28125 18.160156 L 13.289062 18.238281 L 13.296875 18.28125 L 13.304688 18.320312 L 13.316406 18.359375 L 13.328125 18.394531 L 13.34375 18.433594 L 13.375 18.503906 L 13.398438 18.535156 L 13.417969 18.566406 L 13.441406 18.601562 L 13.464844 18.632812 L 13.488281 18.660156 L 13.515625 18.6875 L 13.546875 18.714844 L 13.574219 18.742188 L 13.601562 18.765625 L 13.632812 18.789062 L 13.664062 18.808594 L 13.699219 18.828125 L 13.804688 18.875 L 13.839844 18.886719 L 13.882812 18.902344 L 13.960938 18.917969 L 14.003906 18.921875 L 14.042969 18.925781 L 14.082031 18.925781 L 14.082031 19.136719 L 14.03125 19.136719 L 13.976562 19.132812 L 13.925781 19.125 L 13.878906 19.117188 L 13.828125 19.105469 L 13.78125 19.09375 L 13.734375 19.078125 L 13.683594 19.058594 L 13.597656 19.011719 L 13.558594 18.988281 L 13.515625 18.960938 L 13.4375 18.90625 L 13.402344 18.871094 L 13.363281 18.839844 L 13.300781 18.769531 L 13.246094 18.691406 L 13.214844 18.652344 L 13.191406 18.609375 L 13.167969 18.5625 L 13.148438 18.519531 L 13.128906 18.472656 L 13.113281 18.421875 L 13.078125 18.28125 L 13.070312 18.226562 L 13.066406 18.175781 Z M 14.082031 17.105469 L 14.082031 17.316406 L 14.042969 17.316406 L 14.003906 17.320312 L 13.960938 17.324219 L 13.882812 17.339844 L 13.84375 17.351562 L 13.808594 17.367188 L 13.773438 17.378906 L 13.703125 17.410156 L 13.667969 17.429688 L 13.636719 17.449219 L 13.605469 17.472656 L 13.578125 17.496094 L 13.550781 17.523438 L 13.519531 17.550781 L 13.492188 17.578125 L 13.46875 17.605469 L 13.445312 17.636719 L 13.421875 17.671875 L 13.402344 17.703125 L 13.378906 17.734375 L 13.347656 17.804688 L 13.332031 17.84375 L 13.320312 17.878906 L 13.308594 17.917969 L 13.300781 17.957031 L 13.292969 18 L 13.285156 18.078125 L 13.285156 18.117188 L 13.070312 18.117188 L 13.070312 18.066406 L 13.074219 18.015625 L 13.085938 17.960938 L 13.09375 17.914062 L 13.117188 17.820312 L 13.132812 17.769531 L 13.152344 17.722656 L 13.171875 17.679688 L 13.195312 17.632812 L 13.21875 17.589844 L 13.25 17.550781 L 13.277344 17.507812 L 13.304688 17.472656 L 13.367188 17.402344 L 13.40625 17.371094 L 13.441406 17.335938 L 13.480469 17.304688 L 13.519531 17.277344 L 13.5625 17.25 L 13.648438 17.203125 L 13.742188 17.164062 L 13.789062 17.148438 L 13.835938 17.136719 L 13.886719 17.125 L 13.933594 17.117188 L 13.984375 17.109375 L 14.039062 17.105469 L 14.089844 17.105469 Z M 15.097656 18.117188 L 14.882812 18.117188 L 14.882812 18.078125 L 14.875 18 L 14.867188 17.957031 L 14.859375 17.917969 L 14.835938 17.847656 L 14.824219 17.808594 L 14.792969 17.738281 L 14.773438 17.707031 L 14.75 17.675781 L 14.726562 17.640625 L 14.679688 17.585938 L 14.625 17.53125 L 14.59375 17.503906 L 14.53125 17.457031 L 14.46875 17.417969 L 14.429688 17.402344 L 14.394531 17.386719 L 14.324219 17.363281 L 14.285156 17.347656 L 14.207031 17.332031 L 14.167969 17.328125 L 14.125 17.324219 L 14.085938 17.324219 L 14.085938 17.113281 L 14.136719 17.113281 L 14.191406 17.117188 L 14.242188 17.125 L 14.289062 17.132812 L 14.339844 17.144531 L 14.386719 17.15625 L 14.433594 17.171875 L 14.484375 17.191406 L 14.527344 17.214844 L 14.570312 17.234375 L 14.617188 17.257812 L 14.695312 17.3125 L 14.734375 17.34375 L 14.773438 17.378906 L 14.808594 17.410156 L 14.871094 17.480469 L 14.898438 17.523438 L 14.929688 17.5625 L 14.957031 17.601562 L 14.980469 17.644531 L 15.003906 17.691406 L 15.042969 17.777344 L 15.058594 17.828125 L 15.074219 17.875 L 15.085938 17.921875 L 15.09375 17.96875 L 15.101562 18.023438 L 15.105469 18.074219 L 15.105469 18.128906 Z M 15.097656 18.117188 Z M 14.082031 19.132812 L 14.082031 18.921875 L 14.121094 18.921875 L 14.164062 18.917969 L 14.203125 18.914062 L 14.28125 18.898438 L 14.324219 18.882812 L 14.359375 18.871094 L 14.429688 18.839844 L 14.46875 18.824219 L 14.53125 18.785156 L 14.5625 18.761719 L 14.589844 18.738281 L 14.621094 18.710938 L 14.675781 18.65625 L 14.722656 18.601562 L 14.746094 18.566406 L 14.769531 18.535156 L 14.789062 18.503906 L 14.820312 18.433594 L 14.832031 18.394531 L 14.84375 18.359375 L 14.855469 18.320312 L 14.863281 18.28125 L 14.871094 18.238281 L 14.878906 18.160156 L 14.878906 18.117188 L 15.09375 18.117188 L 15.09375 18.171875 L 15.089844 18.222656 L 15.074219 18.324219 L 15.058594 18.371094 L 15.046875 18.417969 L 15.03125 18.46875 L 15.011719 18.515625 L 14.992188 18.558594 L 14.96875 18.605469 L 14.945312 18.648438 L 14.914062 18.6875 L 14.886719 18.726562 L 14.859375 18.769531 L 14.796875 18.839844 L 14.757812 18.871094 L 14.722656 18.90625 L 14.644531 18.960938 L 14.601562 18.988281 L 14.5625 19.011719 L 14.476562 19.058594 L 14.425781 19.078125 L 14.378906 19.09375 L 14.332031 19.105469 L 14.28125 19.117188 L 14.234375 19.125 L 14.183594 19.132812 L 14.128906 19.136719 L 14.078125 19.136719 Z M 12.660156 18.121094 L 12.445312 18.121094 L 12.449219 18.039062 L 12.457031 17.953125 L 12.488281 17.789062 L 12.527344 17.632812 L 12.550781 17.558594 L 12.578125 17.480469 L 12.609375 17.410156 L 12.648438 17.335938 L 12.6875 17.269531 L 12.730469 17.199219 L 12.777344 17.136719 L 12.824219 17.078125 L 12.875 17.015625 L 12.933594 16.960938 L 12.988281 16.90625 L 13.046875 16.851562 L 13.109375 16.804688 L 13.171875 16.761719 L 13.242188 16.714844 L 13.308594 16.675781 L 13.378906 16.640625 L 13.527344 16.578125 L 13.605469 16.554688 L 13.679688 16.53125 L 13.761719 16.511719 L 13.839844 16.496094 L 13.921875 16.484375 L 14.007812 16.476562 L 14.089844 16.472656 L 14.089844 16.683594 L 14.019531 16.683594 L 13.945312 16.6875 L 13.875 16.695312 L 13.800781 16.707031 L 13.734375 16.722656 L 13.664062 16.742188 L 13.597656 16.769531 L 13.53125 16.792969 L 13.46875 16.820312 L 13.410156 16.851562 L 13.347656 16.886719 L 13.238281 16.964844 L 13.183594 17.007812 L 13.132812 17.050781 L 13.085938 17.101562 L 13.035156 17.148438 L 12.992188 17.199219 L 12.90625 17.308594 L 12.835938 17.425781 L 12.804688 17.484375 L 12.777344 17.550781 L 12.75 17.613281 L 12.726562 17.683594 L 12.707031 17.75 L 12.691406 17.820312 L 12.679688 17.890625 L 12.671875 17.960938 L 12.667969 18.035156 L 12.667969 18.105469 Z M 13.878906 19.617188 L 13.664062 19.617188 L 13.75 19.722656 L 13.675781 19.707031 L 13.609375 19.6875 L 13.542969 19.664062 L 13.472656 19.636719 L 13.410156 19.609375 L 13.34375 19.582031 L 13.285156 19.550781 L 13.222656 19.515625 L 13.113281 19.4375 L 13.054688 19.394531 L 13.003906 19.351562 L 12.953125 19.300781 L 12.902344 19.253906 L 12.855469 19.203125 L 12.8125 19.148438 L 12.769531 19.097656 L 12.730469 19.039062 L 12.695312 18.984375 L 12.660156 18.925781 L 12.597656 18.800781 L 12.570312 18.738281 L 12.546875 18.671875 L 12.523438 18.609375 L 12.503906 18.539062 L 12.488281 18.472656 L 12.476562 18.402344 L 12.460938 18.335938 L 12.453125 18.261719 L 12.449219 18.191406 L 12.449219 18.117188 L 12.664062 18.117188 L 12.664062 18.183594 L 12.667969 18.246094 L 12.675781 18.3125 L 12.683594 18.371094 L 12.695312 18.433594 L 12.726562 18.550781 L 12.746094 18.609375 L 12.765625 18.664062 L 12.820312 18.773438 L 12.847656 18.824219 L 12.878906 18.875 L 12.910156 18.929688 L 12.949219 18.976562 L 12.984375 19.023438 L 13.023438 19.070312 L 13.0625 19.113281 L 13.148438 19.199219 L 13.191406 19.238281 L 13.242188 19.273438 L 13.289062 19.308594 L 13.339844 19.339844 L 13.394531 19.375 L 13.445312 19.402344 L 13.5 19.429688 L 13.558594 19.453125 L 13.613281 19.472656 L 13.671875 19.492188 L 13.734375 19.511719 L 13.792969 19.523438 L 13.878906 19.625 Z M 13.792969 19.515625 L 13.878906 19.53125 L 13.878906 19.617188 Z M 13.664062 21.808594 L 13.664062 19.617188 L 13.878906 19.617188 L 13.878906 21.808594 Z M 14.085938 22.011719 L 14.085938 22.222656 L 14.046875 22.222656 L 14.007812 22.214844 L 13.984375 22.210938 L 13.964844 22.207031 L 13.90625 22.183594 L 13.890625 22.175781 L 13.871094 22.164062 L 13.855469 22.152344 L 13.835938 22.140625 L 13.789062 22.105469 L 13.777344 22.085938 L 13.730469 22.023438 L 13.71875 22.003906 L 13.710938 21.988281 L 13.703125 21.96875 L 13.695312 21.945312 L 13.683594 21.925781 L 13.667969 21.847656 L 13.667969 21.808594 L 13.882812 21.808594 L 13.882812 21.851562 L 13.886719 21.863281 L 13.914062 21.917969 L 13.921875 21.925781 L 13.925781 21.933594 L 13.933594 21.941406 L 13.941406 21.953125 L 13.957031 21.96875 L 13.964844 21.972656 L 13.972656 21.980469 L 13.996094 21.992188 L 14.007812 21.996094 L 14.03125 22.007812 L 14.042969 22.011719 Z M 14.085938 22.222656 Z M 14.289062 21.804688 L 14.503906 21.804688 L 14.503906 21.84375 L 14.488281 21.921875 L 14.480469 21.941406 L 14.472656 21.964844 L 14.464844 21.984375 L 14.453125 22 L 14.441406 22.019531 L 14.382812 22.097656 L 14.367188 22.113281 L 14.320312 22.148438 L 14.28125 22.171875 L 14.265625 22.179688 L 14.207031 22.203125 L 14.167969 22.210938 L 14.144531 22.214844 L 14.125 22.21875 L 14.085938 22.21875 L 14.085938 22.007812 L 14.132812 22.007812 L 14.140625 22.003906 L 14.15625 22 L 14.167969 21.996094 L 14.207031 21.976562 L 14.230469 21.953125 L 14.238281 21.941406 L 14.253906 21.925781 L 14.257812 21.917969 L 14.265625 21.910156 L 14.292969 21.855469 L 14.296875 21.84375 L 14.296875 21.800781 Z M 14.503906 19.613281 L 14.503906 21.804688 L 14.289062 21.804688 L 14.289062 19.613281 L 14.375 19.511719 Z M 14.289062 19.613281 L 14.289062 19.527344 L 14.375 19.511719 Z M 15.476562 17.824219 L 15.6875 17.777344 L 15.703125 17.863281 L 15.714844 17.945312 L 15.722656 18.03125 L 15.726562 18.113281 L 15.722656 18.195312 L 15.71875 18.273438 L 15.710938 18.355469 L 15.699219 18.4375 L 15.679688 18.511719 L 15.660156 18.589844 L 15.636719 18.664062 L 15.609375 18.738281 L 15.578125 18.808594 L 15.542969 18.878906 L 15.503906 18.949219 L 15.464844 19.015625 L 15.421875 19.082031 L 15.320312 19.207031 L 15.269531 19.261719 L 15.152344 19.371094 L 15.09375 19.417969 L 14.960938 19.511719 L 14.890625 19.550781 L 14.820312 19.585938 L 14.671875 19.65625 L 14.59375 19.683594 L 14.515625 19.707031 L 14.433594 19.726562 L 14.390625 19.519531 L 14.464844 19.503906 L 14.597656 19.457031 L 14.667969 19.429688 L 14.730469 19.402344 L 14.796875 19.371094 L 14.855469 19.332031 L 14.910156 19.292969 L 14.96875 19.253906 L 15.019531 19.210938 L 15.074219 19.164062 L 15.121094 19.117188 L 15.167969 19.066406 L 15.253906 18.957031 L 15.292969 18.902344 L 15.328125 18.84375 L 15.359375 18.785156 L 15.394531 18.722656 L 15.421875 18.660156 L 15.445312 18.597656 L 15.484375 18.464844 L 15.5 18.394531 L 15.511719 18.328125 L 15.519531 18.257812 L 15.523438 18.1875 L 15.523438 18.113281 L 15.519531 18.042969 L 15.515625 17.96875 L 15.507812 17.898438 L 15.496094 17.828125 Z M 14.082031 16.6875 L 14.082031 16.476562 L 14.15625 16.476562 L 14.226562 16.480469 L 14.296875 16.488281 L 14.367188 16.5 L 14.433594 16.511719 L 14.503906 16.527344 L 14.570312 16.546875 L 14.636719 16.570312 L 14.824219 16.652344 L 14.882812 16.683594 L 14.945312 16.71875 L 15.054688 16.796875 L 15.113281 16.835938 L 15.164062 16.878906 L 15.214844 16.929688 L 15.265625 16.976562 L 15.3125 17.027344 L 15.398438 17.136719 L 15.4375 17.191406 L 15.507812 17.308594 L 15.542969 17.371094 L 15.574219 17.433594 L 15.601562 17.496094 L 15.625 17.566406 L 15.648438 17.632812 L 15.6875 17.773438 L 15.476562 17.820312 L 15.464844 17.757812 L 15.449219 17.699219 L 15.429688 17.636719 L 15.410156 17.582031 L 15.386719 17.527344 L 15.355469 17.46875 L 15.328125 17.417969 L 15.296875 17.367188 L 15.265625 17.3125 L 15.230469 17.265625 L 15.152344 17.171875 L 15.113281 17.128906 L 15.066406 17.085938 L 15.023438 17.042969 L 14.980469 17.003906 L 14.933594 16.96875 L 14.882812 16.933594 L 14.835938 16.902344 L 14.785156 16.867188 L 14.730469 16.839844 L 14.679688 16.8125 L 14.625 16.789062 L 14.566406 16.769531 L 14.511719 16.75 L 14.449219 16.730469 L 14.390625 16.714844 L 14.332031 16.703125 L 14.207031 16.6875 L 14.140625 16.683594 L 14.078125 16.683594 Z M 14.082031 16.476562 Z M 14.082031 16.476562 "/>
</g>
</svg>
