<?xml version="1.0" encoding="UTF-8"?>
<svg xmlns="http://www.w3.org/2000/svg" xmlns:xlink="http://www.w3.org/1999/xlink" width="28px" height="28px" viewBox="0 0 28 28" version="1.1">
<g id="surface1">
<path style=" stroke:none;fill-rule:nonzero;fill:rgb(92.941176%,41.176471%,36.078431%);fill-opacity:1;" d="M 14.085938 3.914062 C 14.238281 3.914062 14.382812 3.960938 14.507812 4.039062 L 26.601562 11.863281 L 26.601562 9.816406 L 14.085938 1.71875 L 1.566406 9.816406 L 1.566406 11.863281 L 13.660156 4.039062 C 13.785156 3.953125 13.933594 3.914062 14.085938 3.914062 Z M 27.382812 14.085938 C 27.230469 14.085938 27.085938 14.042969 26.960938 13.960938 L 14.085938 5.632812 L 1.210938 13.960938 C 0.96875 14.117188 0.664062 14.128906 0.414062 13.992188 C 0.164062 13.855469 0.00390625 13.59375 0.00390625 13.304688 L 0.00390625 9.390625 C 0.00390625 9.125 0.140625 8.878906 0.363281 8.738281 L 13.660156 0.132812 C 13.917969 -0.0351562 14.253906 -0.0351562 14.507812 0.132812 L 27.808594 8.738281 C 28.035156 8.878906 28.164062 9.128906 28.164062 9.390625 L 28.164062 13.304688 C 28.164062 13.738281 27.8125 14.085938 27.382812 14.085938 Z M 27.382812 14.085938 "/>
<path style=" stroke:none;fill-rule:nonzero;fill:rgb(92.941176%,41.176471%,36.078431%);fill-opacity:1;" d="M 25.816406 28.164062 L 11.734375 28.164062 L 11.734375 26.597656 L 25.03125 26.597656 L 25.03125 11.734375 L 26.597656 11.734375 L 26.597656 27.378906 C 26.597656 27.8125 26.246094 28.160156 25.816406 28.160156 Z M 25.816406 28.164062 "/>
<path style=" stroke:none;fill-rule:nonzero;fill:rgb(92.941176%,41.176471%,36.078431%);fill-opacity:1;" d="M 2.347656 28.164062 C 1.910156 28.164062 1.566406 27.8125 1.566406 27.382812 L 1.566406 11.738281 L 3.132812 11.738281 L 3.132812 26.605469 L 16.429688 26.605469 L 16.429688 28.171875 L 2.347656 28.171875 Z M 2.347656 28.164062 "/>
<path style=" stroke:none;fill-rule:nonzero;fill:rgb(92.941176%,41.176471%,36.078431%);fill-opacity:1;" d="M 14.085938 24 C 11.449219 23.988281 9.335938 21.785156 9.464844 19.125 C 9.585938 16.746094 11.519531 14.824219 13.894531 14.722656 C 16.558594 14.609375 18.75 16.742188 18.742188 19.375 C 18.71875 21.929688 16.640625 23.996094 14.085938 24 Z M 17.746094 15.558594 C 17.457031 15.296875 17.074219 15.023438 16.980469 14.953125 C 15.191406 13.777344 12.859375 13.800781 11.089844 15.027344 L 11.089844 13.246094 C 11.089844 11.585938 12.429688 10.246094 14.089844 10.246094 C 15.746094 10.246094 17.089844 11.585938 17.089844 13.246094 L 17.089844 13.632812 L 17.714844 13.632812 L 17.714844 13.246094 C 17.734375 11.246094 16.128906 9.601562 14.125 9.582031 C 12.125 9.558594 10.488281 11.167969 10.460938 13.167969 C 10.460938 13.195312 10.460938 13.214844 10.460938 13.242188 L 10.460938 15.519531 C 9.402344 16.503906 8.800781 17.886719 8.804688 19.332031 C 8.789062 22.25 11.140625 24.628906 14.0625 24.644531 C 16.980469 24.660156 19.359375 22.308594 19.375 19.386719 C 19.378906 17.941406 18.792969 16.550781 17.75 15.546875 Z M 17.746094 15.558594 "/>
<path style=" stroke:none;fill-rule:nonzero;fill:rgb(92.941176%,41.176471%,36.078431%);fill-opacity:1;" d="M 9.355469 19.117188 L 9.570312 19.128906 L 9.566406 19.371094 L 9.570312 19.609375 L 9.589844 19.847656 L 9.621094 20.078125 L 9.664062 20.308594 L 9.714844 20.53125 L 9.777344 20.753906 L 9.851562 20.96875 L 9.9375 21.175781 L 10.03125 21.382812 L 10.136719 21.582031 L 10.25 21.773438 L 10.375 21.964844 L 10.511719 22.140625 L 10.652344 22.3125 L 10.804688 22.480469 L 10.964844 22.640625 L 11.128906 22.789062 L 11.304688 22.933594 L 11.480469 23.066406 L 11.671875 23.195312 L 11.863281 23.308594 L 12.0625 23.414062 L 12.265625 23.507812 L 12.476562 23.59375 L 12.691406 23.671875 L 12.910156 23.734375 L 13.136719 23.785156 L 13.367188 23.828125 L 13.597656 23.859375 L 13.832031 23.878906 L 14.074219 23.886719 L 14.074219 24.101562 L 13.824219 24.09375 L 13.578125 24.074219 L 13.332031 24.042969 L 13.089844 23.996094 L 12.855469 23.9375 L 12.625 23.871094 L 12.398438 23.792969 L 12.179688 23.703125 L 11.964844 23.601562 L 11.753906 23.492188 L 11.550781 23.371094 L 11.355469 23.242188 L 11.167969 23.101562 L 10.984375 22.953125 L 10.8125 22.796875 L 10.644531 22.628906 L 10.488281 22.457031 L 10.339844 22.273438 L 10.199219 22.082031 L 10.066406 21.890625 L 9.945312 21.683594 L 9.835938 21.476562 L 9.738281 21.261719 L 9.648438 21.042969 L 9.570312 20.816406 L 9.5 20.585938 L 9.445312 20.351562 L 9.402344 20.109375 L 9.371094 19.863281 L 9.351562 19.617188 L 9.34375 19.363281 L 9.351562 19.113281 Z M 13.890625 14.613281 L 13.902344 14.828125 L 13.6875 14.84375 L 13.472656 14.871094 L 13.261719 14.90625 L 13.054688 14.949219 L 12.847656 15 L 12.648438 15.066406 L 12.457031 15.136719 L 12.261719 15.214844 L 12.074219 15.304688 L 11.890625 15.40625 L 11.710938 15.511719 L 11.539062 15.625 L 11.371094 15.746094 L 11.210938 15.871094 L 11.050781 16.007812 L 10.90625 16.148438 L 10.765625 16.296875 L 10.628906 16.449219 L 10.496094 16.609375 L 10.375 16.777344 L 10.261719 16.949219 L 10.15625 17.128906 L 10.058594 17.3125 L 9.96875 17.5 L 9.882812 17.6875 L 9.8125 17.882812 L 9.746094 18.082031 L 9.691406 18.285156 L 9.644531 18.496094 L 9.605469 18.703125 L 9.582031 18.917969 L 9.566406 19.132812 L 9.351562 19.125 L 9.367188 18.898438 L 9.390625 18.671875 L 9.429688 18.453125 L 9.476562 18.238281 L 9.53125 18.023438 L 9.601562 17.816406 L 9.679688 17.609375 L 9.761719 17.410156 L 9.859375 17.21875 L 9.960938 17.027344 L 10.074219 16.84375 L 10.191406 16.667969 L 10.320312 16.496094 L 10.453125 16.328125 L 10.597656 16.164062 L 10.742188 16.007812 L 10.898438 15.859375 L 11.0625 15.71875 L 11.230469 15.582031 L 11.402344 15.457031 L 11.582031 15.335938 L 11.769531 15.226562 L 11.957031 15.128906 L 12.152344 15.03125 L 12.351562 14.949219 L 12.554688 14.875 L 12.765625 14.808594 L 12.980469 14.75 L 13.199219 14.703125 L 13.417969 14.667969 L 13.644531 14.640625 L 13.871094 14.625 Z M 18.847656 19.375 L 18.632812 19.375 L 18.625 19.132812 L 18.609375 18.898438 L 18.578125 18.664062 L 18.535156 18.433594 L 18.484375 18.207031 L 18.421875 17.988281 L 18.347656 17.773438 L 18.265625 17.5625 L 18.171875 17.359375 L 18.066406 17.160156 L 17.949219 16.964844 L 17.824219 16.777344 L 17.695312 16.59375 L 17.550781 16.421875 L 17.402344 16.253906 L 17.242188 16.097656 L 17.074219 15.945312 L 16.902344 15.804688 L 16.726562 15.667969 L 16.542969 15.542969 L 16.347656 15.425781 L 16.148438 15.320312 L 15.945312 15.222656 L 15.734375 15.132812 L 15.519531 15.054688 L 15.300781 14.984375 L 15.074219 14.929688 L 14.84375 14.886719 L 14.613281 14.855469 L 14.378906 14.835938 L 14.136719 14.824219 L 13.894531 14.828125 L 13.886719 14.613281 L 14.136719 14.609375 L 14.386719 14.621094 L 14.636719 14.640625 L 14.882812 14.675781 L 15.121094 14.722656 L 15.359375 14.78125 L 15.589844 14.851562 L 15.8125 14.929688 L 16.035156 15.015625 L 16.25 15.121094 L 16.457031 15.230469 L 16.65625 15.351562 L 16.851562 15.484375 L 17.039062 15.625 L 17.21875 15.777344 L 17.390625 15.933594 L 17.550781 16.101562 L 17.710938 16.273438 L 17.855469 16.457031 L 17.992188 16.644531 L 18.125 16.839844 L 18.242188 17.042969 L 18.355469 17.253906 L 18.453125 17.46875 L 18.542969 17.6875 L 18.621094 17.914062 L 18.6875 18.144531 L 18.746094 18.378906 L 18.789062 18.621094 L 18.820312 18.867188 L 18.839844 19.113281 L 18.847656 19.363281 Z M 18.847656 19.375 Z M 14.078125 24.109375 L 14.078125 23.894531 L 14.316406 23.890625 L 14.546875 23.875 L 14.769531 23.84375 L 14.996094 23.800781 L 15.214844 23.75 L 15.429688 23.6875 L 15.640625 23.613281 L 15.84375 23.535156 L 16.042969 23.445312 L 16.238281 23.347656 L 16.425781 23.234375 L 16.609375 23.121094 L 16.789062 22.996094 L 16.960938 22.859375 L 17.121094 22.71875 L 17.28125 22.566406 L 17.433594 22.410156 L 17.574219 22.246094 L 17.710938 22.074219 L 17.835938 21.894531 L 17.957031 21.710938 L 18.066406 21.523438 L 18.164062 21.328125 L 18.257812 21.128906 L 18.34375 20.925781 L 18.417969 20.714844 L 18.480469 20.5 L 18.53125 20.28125 L 18.574219 20.054688 L 18.605469 19.832031 L 18.625 19.601562 L 18.636719 19.371094 L 18.851562 19.371094 L 18.839844 19.617188 L 18.820312 19.855469 L 18.789062 20.09375 L 18.746094 20.328125 L 18.695312 20.558594 L 18.632812 20.785156 L 18.554688 21.003906 L 18.46875 21.21875 L 18.375 21.429688 L 18.269531 21.632812 L 18.15625 21.832031 L 18.027344 22.027344 L 17.898438 22.210938 L 17.757812 22.386719 L 17.605469 22.558594 L 17.449219 22.722656 L 17.28125 22.878906 L 17.105469 23.027344 L 16.929688 23.167969 L 16.742188 23.296875 L 16.546875 23.417969 L 16.347656 23.535156 L 16.144531 23.640625 L 15.933594 23.734375 L 15.71875 23.816406 L 15.5 23.890625 L 15.273438 23.953125 L 15.042969 24.003906 L 14.808594 24.046875 L 14.570312 24.078125 L 14.332031 24.101562 L 14.085938 24.105469 Z M 14.078125 24.109375 Z M 16.914062 15.050781 L 17.027344 14.871094 L 17.035156 14.871094 L 17.042969 14.875 L 17.066406 14.898438 L 17.082031 14.90625 L 17.113281 14.929688 L 17.152344 14.960938 L 17.175781 14.976562 L 17.195312 14.992188 L 17.242188 15.023438 L 17.269531 15.042969 L 17.296875 15.066406 L 17.320312 15.085938 L 17.347656 15.105469 L 17.375 15.128906 L 17.402344 15.148438 L 17.433594 15.167969 L 17.457031 15.191406 L 17.519531 15.230469 L 17.613281 15.3125 L 17.648438 15.335938 L 17.710938 15.390625 L 17.742188 15.414062 L 17.773438 15.441406 L 17.796875 15.46875 L 17.824219 15.492188 L 17.683594 15.652344 L 17.65625 15.625 L 17.632812 15.597656 L 17.605469 15.574219 L 17.550781 15.519531 L 17.527344 15.492188 L 17.496094 15.46875 L 17.46875 15.445312 L 17.441406 15.425781 L 17.410156 15.40625 L 17.382812 15.382812 L 17.359375 15.363281 L 17.332031 15.34375 L 17.304688 15.320312 L 17.28125 15.300781 L 17.253906 15.28125 L 17.226562 15.257812 L 17.203125 15.238281 L 17.175781 15.214844 L 17.148438 15.195312 L 17.128906 15.179688 L 17.105469 15.164062 L 17.066406 15.132812 L 17.042969 15.117188 L 17.027344 15.105469 L 17.011719 15.097656 L 16.980469 15.074219 L 16.972656 15.066406 L 16.960938 15.058594 L 16.949219 15.054688 L 16.957031 15.054688 Z M 17.027344 14.871094 L 17.035156 14.871094 Z M 10.96875 15.03125 L 11.183594 15.03125 L 11.015625 14.945312 L 11.1875 14.828125 L 11.359375 14.722656 L 11.539062 14.625 L 11.71875 14.53125 L 11.902344 14.445312 L 12.082031 14.367188 L 12.273438 14.300781 L 12.460938 14.238281 L 12.648438 14.179688 L 12.84375 14.132812 L 13.039062 14.089844 L 13.230469 14.054688 L 13.425781 14.027344 L 13.617188 14.007812 L 13.816406 13.996094 L 14.011719 13.992188 L 14.210938 13.992188 L 14.410156 14 L 14.601562 14.015625 L 14.796875 14.039062 L 14.992188 14.070312 L 15.183594 14.105469 L 15.378906 14.152344 L 15.574219 14.207031 L 15.761719 14.261719 L 15.949219 14.332031 L 16.136719 14.40625 L 16.320312 14.484375 L 16.503906 14.570312 L 16.683594 14.667969 L 16.859375 14.765625 L 17.035156 14.875 L 16.917969 15.054688 L 16.75 14.949219 L 16.582031 14.851562 L 16.410156 14.761719 L 16.238281 14.675781 L 16.058594 14.597656 L 15.882812 14.53125 L 15.703125 14.46875 L 15.519531 14.410156 L 15.335938 14.363281 L 15.152344 14.320312 L 14.964844 14.285156 L 14.777344 14.257812 L 14.585938 14.238281 L 14.398438 14.222656 L 14.210938 14.210938 L 14.023438 14.210938 L 13.832031 14.214844 L 13.644531 14.226562 L 13.457031 14.246094 L 13.269531 14.273438 L 13.078125 14.304688 L 12.894531 14.347656 L 12.710938 14.394531 L 12.527344 14.445312 L 12.347656 14.507812 L 12.167969 14.578125 L 11.988281 14.652344 L 11.816406 14.734375 L 11.644531 14.824219 L 11.476562 14.917969 L 11.308594 15.015625 L 11.144531 15.128906 L 10.980469 15.039062 Z M 11.136719 15.121094 L 10.96875 15.238281 L 10.96875 15.03125 Z M 11.183594 13.253906 L 11.183594 15.03125 L 10.96875 15.03125 L 10.96875 13.253906 Z M 14.074219 10.140625 L 14.074219 10.355469 L 13.925781 10.359375 L 13.78125 10.371094 L 13.632812 10.390625 L 13.492188 10.417969 L 13.351562 10.449219 L 13.214844 10.488281 L 13.078125 10.535156 L 12.949219 10.585938 L 12.816406 10.644531 L 12.691406 10.707031 L 12.570312 10.773438 L 12.457031 10.847656 L 12.339844 10.925781 L 12.230469 11.011719 L 12.125 11.097656 L 12.027344 11.195312 L 11.933594 11.292969 L 11.84375 11.398438 L 11.757812 11.507812 L 11.679688 11.625 L 11.605469 11.738281 L 11.539062 11.859375 L 11.476562 11.984375 L 11.417969 12.109375 L 11.367188 12.242188 L 11.320312 12.378906 L 11.28125 12.515625 L 11.25 12.65625 L 11.226562 12.796875 L 11.203125 12.941406 L 11.1875 13.238281 L 10.972656 13.238281 L 10.980469 13.078125 L 10.988281 12.921875 L 11.011719 12.765625 L 11.035156 12.613281 L 11.074219 12.460938 L 11.113281 12.316406 L 11.160156 12.167969 L 11.21875 12.027344 L 11.28125 11.890625 L 11.351562 11.753906 L 11.425781 11.625 L 11.503906 11.496094 L 11.589844 11.378906 L 11.6875 11.261719 L 11.785156 11.148438 L 11.890625 11.035156 L 12 10.933594 L 12.117188 10.832031 L 12.230469 10.738281 L 12.351562 10.648438 L 12.476562 10.570312 L 12.609375 10.496094 L 12.742188 10.429688 L 12.878906 10.367188 L 13.023438 10.308594 L 13.167969 10.261719 L 13.316406 10.21875 L 13.464844 10.183594 L 13.617188 10.15625 L 13.777344 10.136719 L 13.933594 10.125 L 14.089844 10.121094 Z M 17.1875 13.246094 L 16.972656 13.246094 L 16.964844 13.101562 L 16.957031 12.953125 L 16.933594 12.808594 L 16.90625 12.664062 L 16.875 12.523438 L 16.839844 12.386719 L 16.792969 12.25 L 16.742188 12.121094 L 16.683594 11.996094 L 16.621094 11.871094 L 16.550781 11.75 L 16.480469 11.632812 L 16.398438 11.519531 L 16.316406 11.410156 L 16.226562 11.304688 L 16.132812 11.203125 L 16.035156 11.109375 L 15.929688 11.019531 L 15.820312 10.9375 L 15.703125 10.859375 L 15.589844 10.785156 L 15.46875 10.71875 L 15.34375 10.652344 L 15.085938 10.542969 L 14.949219 10.496094 L 14.8125 10.460938 L 14.671875 10.429688 L 14.53125 10.402344 L 14.382812 10.382812 L 14.238281 10.371094 L 14.089844 10.367188 L 14.089844 10.152344 L 14.246094 10.15625 L 14.40625 10.167969 L 14.5625 10.1875 L 14.714844 10.214844 L 14.867188 10.25 L 15.011719 10.292969 L 15.160156 10.339844 L 15.300781 10.398438 L 15.4375 10.460938 L 15.574219 10.527344 L 15.703125 10.601562 L 15.828125 10.679688 L 15.949219 10.765625 L 16.066406 10.859375 L 16.179688 10.957031 L 16.289062 11.0625 L 16.394531 11.171875 L 16.496094 11.289062 L 16.589844 11.402344 L 16.675781 11.523438 L 16.757812 11.648438 L 16.828125 11.78125 L 16.898438 11.917969 L 16.960938 12.054688 L 17.019531 12.195312 L 17.066406 12.339844 L 17.105469 12.488281 L 17.144531 12.640625 L 17.171875 12.792969 L 17.191406 12.949219 L 17.203125 13.105469 L 17.207031 13.261719 Z M 17.1875 13.246094 L 16.972656 13.246094 Z M 16.972656 13.632812 L 16.972656 13.246094 L 17.1875 13.246094 L 17.1875 13.632812 L 17.082031 13.738281 L 16.976562 13.632812 Z M 17.074219 13.738281 L 16.972656 13.738281 L 16.972656 13.632812 Z M 17.699219 13.738281 L 17.074219 13.738281 L 17.074219 13.523438 L 17.699219 13.523438 L 17.804688 13.628906 L 17.699219 13.734375 Z M 17.804688 13.632812 L 17.804688 13.738281 L 17.699219 13.738281 Z M 17.804688 13.246094 L 17.804688 13.632812 L 17.589844 13.632812 L 17.589844 13.246094 Z M 17.589844 13.246094 Z M 14.105469 9.691406 L 14.105469 9.476562 L 14.300781 9.480469 L 14.488281 9.496094 L 14.675781 9.523438 L 14.859375 9.558594 L 15.039062 9.601562 L 15.214844 9.652344 L 15.390625 9.714844 L 15.558594 9.785156 L 15.71875 9.863281 L 15.882812 9.945312 L 16.039062 10.035156 L 16.191406 10.136719 L 16.335938 10.242188 L 16.480469 10.351562 L 16.613281 10.472656 L 16.746094 10.597656 L 16.867188 10.726562 L 16.980469 10.863281 L 17.089844 11.003906 L 17.195312 11.152344 L 17.289062 11.304688 L 17.378906 11.460938 L 17.457031 11.625 L 17.53125 11.789062 L 17.59375 11.964844 L 17.652344 12.136719 L 17.699219 12.316406 L 17.742188 12.496094 L 17.773438 12.679688 L 17.792969 12.871094 L 17.804688 13.058594 L 17.808594 13.253906 L 17.59375 13.253906 L 17.589844 13.070312 L 17.578125 12.890625 L 17.558594 12.710938 L 17.527344 12.539062 L 17.488281 12.367188 L 17.441406 12.199219 L 17.390625 12.035156 L 17.328125 11.875 L 17.257812 11.71875 L 17.179688 11.566406 L 17.097656 11.417969 L 17.007812 11.273438 L 16.914062 11.132812 L 16.808594 10.996094 L 16.699219 10.863281 L 16.582031 10.738281 L 16.460938 10.617188 L 16.335938 10.507812 L 16.207031 10.402344 L 16.070312 10.304688 L 15.929688 10.210938 L 15.78125 10.125 L 15.628906 10.046875 L 15.472656 9.972656 L 15.316406 9.910156 L 15.152344 9.851562 L 14.984375 9.804688 L 14.816406 9.765625 L 14.644531 9.730469 L 14.46875 9.707031 L 14.289062 9.691406 L 14.105469 9.683594 Z M 10.550781 13.171875 L 10.335938 13.171875 L 10.339844 12.980469 L 10.355469 12.792969 L 10.382812 12.601562 L 10.417969 12.417969 L 10.460938 12.242188 L 10.511719 12.0625 L 10.574219 11.890625 L 10.644531 11.722656 L 10.722656 11.558594 L 10.804688 11.398438 L 10.894531 11.242188 L 10.996094 11.089844 L 11.097656 10.941406 L 11.210938 10.800781 L 11.328125 10.664062 L 11.457031 10.539062 L 11.585938 10.417969 L 11.722656 10.304688 L 11.863281 10.191406 L 12.011719 10.089844 L 12.164062 9.996094 L 12.320312 9.90625 L 12.480469 9.828125 L 12.648438 9.753906 L 12.824219 9.691406 L 12.996094 9.632812 L 13.171875 9.585938 L 13.355469 9.542969 L 13.539062 9.511719 L 13.730469 9.492188 L 13.917969 9.480469 L 14.109375 9.476562 L 14.109375 9.691406 L 13.925781 9.695312 L 13.75 9.707031 L 13.570312 9.726562 L 13.398438 9.757812 L 13.226562 9.796875 L 13.058594 9.84375 L 12.894531 9.894531 L 12.734375 9.957031 L 12.578125 10.027344 L 12.425781 10.105469 L 12.277344 10.1875 L 12.132812 10.277344 L 11.988281 10.371094 L 11.851562 10.476562 L 11.722656 10.585938 L 11.597656 10.703125 L 11.476562 10.820312 L 11.367188 10.949219 L 11.261719 11.078125 L 11.160156 11.214844 L 11.066406 11.355469 L 10.984375 11.503906 L 10.90625 11.65625 L 10.832031 11.8125 L 10.769531 11.96875 L 10.710938 12.132812 L 10.664062 12.300781 L 10.621094 12.464844 L 10.589844 12.640625 L 10.566406 12.816406 L 10.550781 12.996094 L 10.542969 13.179688 Z M 10.335938 13.171875 Z M 10.550781 13.246094 L 10.335938 13.246094 L 10.335938 13.242188 L 10.550781 13.242188 Z M 10.335938 15.527344 L 10.335938 13.246094 L 10.550781 13.246094 L 10.550781 15.527344 L 10.511719 15.605469 Z M 10.550781 15.527344 L 10.550781 15.574219 L 10.511719 15.605469 Z M 8.894531 19.34375 L 8.679688 19.34375 L 8.679688 19.207031 L 8.683594 19.070312 L 8.695312 18.933594 L 8.707031 18.800781 L 8.722656 18.664062 L 8.761719 18.390625 L 8.789062 18.257812 L 8.820312 18.128906 L 8.851562 17.996094 L 8.890625 17.867188 L 8.929688 17.734375 L 8.972656 17.605469 L 9.066406 17.355469 L 9.121094 17.226562 L 9.175781 17.101562 L 9.234375 16.980469 L 9.296875 16.859375 L 9.359375 16.742188 L 9.429688 16.625 L 9.5 16.511719 L 9.574219 16.394531 L 9.730469 16.175781 L 9.816406 16.066406 L 9.898438 15.960938 L 9.988281 15.855469 L 10.078125 15.757812 L 10.171875 15.65625 L 10.273438 15.558594 L 10.371094 15.460938 L 10.519531 15.621094 L 10.421875 15.707031 L 10.328125 15.804688 L 10.238281 15.898438 L 10.152344 15.996094 L 10.066406 16.097656 L 9.984375 16.195312 L 9.828125 16.40625 L 9.679688 16.625 L 9.613281 16.734375 L 9.546875 16.851562 L 9.484375 16.964844 L 9.429688 17.082031 L 9.371094 17.195312 L 9.316406 17.316406 L 9.265625 17.4375 L 9.21875 17.558594 L 9.175781 17.679688 L 9.097656 17.929688 L 9.0625 18.054688 L 9.03125 18.179688 L 8.976562 18.4375 L 8.957031 18.570312 L 8.9375 18.699219 L 8.921875 18.832031 L 8.910156 18.960938 L 8.898438 19.09375 L 8.894531 19.222656 L 8.894531 19.355469 Z M 8.894531 19.34375 Z M 14.042969 24.546875 L 14.042969 24.761719 L 13.765625 24.75 L 13.492188 24.730469 L 13.226562 24.691406 L 12.957031 24.644531 L 12.695312 24.582031 L 12.441406 24.507812 L 12.1875 24.425781 L 11.941406 24.324219 L 11.707031 24.214844 L 11.476562 24.09375 L 11.25 23.964844 L 11.03125 23.824219 L 10.820312 23.671875 L 10.617188 23.507812 L 10.421875 23.339844 L 10.234375 23.164062 L 10.058594 22.972656 L 9.890625 22.78125 L 9.730469 22.574219 L 9.585938 22.359375 L 9.445312 22.140625 L 9.3125 21.914062 L 9.191406 21.679688 L 9.085938 21.4375 L 8.992188 21.191406 L 8.910156 20.941406 L 8.835938 20.683594 L 8.777344 20.421875 L 8.730469 20.15625 L 8.699219 19.890625 L 8.679688 19.617188 L 8.675781 19.339844 L 8.890625 19.339844 L 8.894531 19.605469 L 8.914062 19.867188 L 8.945312 20.125 L 8.988281 20.382812 L 9.046875 20.632812 L 9.113281 20.878906 L 9.191406 21.121094 L 9.28125 21.355469 L 9.386719 21.585938 L 9.5 21.8125 L 9.628906 22.03125 L 9.757812 22.242188 L 9.898438 22.445312 L 10.050781 22.640625 L 10.214844 22.828125 L 10.386719 23.011719 L 10.566406 23.183594 L 10.753906 23.347656 L 10.949219 23.503906 L 11.152344 23.648438 L 11.359375 23.785156 L 11.574219 23.910156 L 11.800781 24.027344 L 12.03125 24.132812 L 12.265625 24.226562 L 12.507812 24.308594 L 12.753906 24.382812 L 13.003906 24.441406 L 13.261719 24.488281 L 13.519531 24.519531 L 13.78125 24.539062 L 14.046875 24.550781 Z M 19.246094 19.394531 L 19.457031 19.394531 L 19.449219 19.675781 L 19.425781 19.945312 L 19.390625 20.214844 L 19.34375 20.480469 L 19.28125 20.742188 L 19.207031 21 L 19.125 21.25 L 19.023438 21.496094 L 18.914062 21.738281 L 18.792969 21.96875 L 18.664062 22.195312 L 18.519531 22.414062 L 18.371094 22.621094 L 18.207031 22.828125 L 18.035156 23.019531 L 17.855469 23.210938 L 17.667969 23.386719 L 17.46875 23.554688 L 17.265625 23.710938 L 17.050781 23.859375 L 16.828125 24 L 16.605469 24.132812 L 16.375 24.253906 L 16.132812 24.355469 L 15.886719 24.449219 L 15.636719 24.535156 L 15.378906 24.609375 L 15.117188 24.664062 L 14.847656 24.714844 L 14.582031 24.746094 L 14.308594 24.765625 L 14.03125 24.769531 L 14.03125 24.554688 L 14.300781 24.550781 L 14.5625 24.53125 L 14.816406 24.5 L 15.074219 24.457031 L 15.328125 24.398438 L 15.574219 24.332031 L 15.8125 24.253906 L 16.050781 24.164062 L 16.28125 24.0625 L 16.503906 23.949219 L 16.726562 23.824219 L 16.933594 23.691406 L 17.136719 23.550781 L 17.332031 23.398438 L 17.519531 23.234375 L 17.703125 23.0625 L 17.878906 22.886719 L 18.039062 22.695312 L 18.195312 22.503906 L 18.34375 22.296875 L 18.480469 22.089844 L 18.605469 21.875 L 18.71875 21.652344 L 18.824219 21.421875 L 18.917969 21.1875 L 19.003906 20.945312 L 19.078125 20.699219 L 19.132812 20.449219 L 19.179688 20.191406 L 19.21875 19.9375 L 19.238281 19.675781 L 19.25 19.40625 Z M 17.652344 15.640625 L 17.792969 15.484375 L 17.894531 15.582031 L 17.988281 15.683594 L 18.082031 15.78125 L 18.171875 15.886719 L 18.257812 15.992188 L 18.34375 16.101562 L 18.425781 16.210938 L 18.503906 16.320312 L 18.578125 16.4375 L 18.652344 16.550781 L 18.71875 16.667969 L 18.789062 16.789062 L 18.851562 16.910156 L 18.914062 17.027344 L 18.972656 17.148438 L 19.023438 17.273438 L 19.078125 17.402344 L 19.171875 17.652344 L 19.210938 17.78125 L 19.25 17.914062 L 19.285156 18.046875 L 19.316406 18.175781 L 19.371094 18.449219 L 19.390625 18.585938 L 19.410156 18.71875 L 19.425781 18.855469 L 19.449219 19.128906 L 19.453125 19.265625 L 19.453125 19.402344 L 19.238281 19.402344 L 19.238281 19.269531 L 19.234375 19.140625 L 19.222656 19.007812 L 19.210938 18.878906 L 19.195312 18.746094 L 19.179688 18.617188 L 19.160156 18.484375 L 19.132812 18.355469 L 19.109375 18.226562 L 19.046875 17.976562 L 19.007812 17.851562 L 18.964844 17.726562 L 18.925781 17.605469 L 18.832031 17.363281 L 18.777344 17.242188 L 18.71875 17.125 L 18.664062 17.007812 L 18.601562 16.894531 L 18.535156 16.777344 L 18.402344 16.558594 L 18.328125 16.449219 L 18.253906 16.34375 L 18.097656 16.132812 L 18.011719 16.035156 L 17.929688 15.933594 L 17.839844 15.835938 L 17.746094 15.742188 L 17.652344 15.644531 Z M 17.792969 15.484375 L 17.789062 15.476562 Z M 17.792969 15.484375 "/>
<path style=" stroke:none;fill-rule:nonzero;fill:rgb(92.941176%,41.176471%,36.078431%);fill-opacity:1;" d="M 14.085938 19.03125 C 13.585938 19.03125 13.179688 18.621094 13.179688 18.125 C 13.179688 17.625 13.585938 17.21875 14.085938 17.21875 C 14.585938 17.21875 14.992188 17.625 14.992188 18.125 C 14.992188 18.625 14.585938 19.03125 14.085938 19.03125 Z M 14.085938 16.589844 C 13.234375 16.589844 12.554688 17.273438 12.554688 18.125 C 12.554688 18.847656 13.0625 19.476562 13.769531 19.621094 L 13.769531 21.8125 C 13.769531 21.984375 13.910156 22.125 14.085938 22.125 C 14.257812 22.125 14.398438 21.984375 14.398438 21.8125 L 14.398438 19.621094 C 15.226562 19.449219 15.753906 18.636719 15.582031 17.808594 C 15.4375 17.101562 14.808594 16.59375 14.085938 16.589844 Z M 14.085938 16.589844 "/>
<path style=" stroke:none;fill-rule:nonzero;fill:rgb(92.941176%,41.176471%,36.078431%);fill-opacity:1;" d="M 13.070312 18.125 L 13.285156 18.125 L 13.285156 18.164062 L 13.292969 18.25 L 13.300781 18.292969 L 13.308594 18.328125 L 13.320312 18.363281 L 13.332031 18.402344 L 13.363281 18.472656 L 13.378906 18.511719 L 13.417969 18.574219 L 13.464844 18.636719 L 13.492188 18.667969 L 13.519531 18.695312 L 13.546875 18.71875 L 13.609375 18.773438 L 13.640625 18.792969 L 13.671875 18.816406 L 13.703125 18.835938 L 13.738281 18.851562 L 13.777344 18.867188 L 13.8125 18.882812 L 13.847656 18.894531 L 13.886719 18.902344 L 13.921875 18.914062 L 13.964844 18.917969 L 14.007812 18.925781 L 14.046875 18.929688 L 14.089844 18.929688 L 14.089844 19.144531 L 14.039062 19.144531 L 13.984375 19.140625 L 13.933594 19.132812 L 13.878906 19.125 L 13.832031 19.113281 L 13.691406 19.066406 L 13.644531 19.046875 L 13.601562 19.023438 L 13.5625 19 L 13.476562 18.945312 L 13.441406 18.914062 L 13.402344 18.882812 L 13.367188 18.851562 L 13.335938 18.816406 L 13.304688 18.777344 L 13.273438 18.742188 L 13.21875 18.65625 L 13.195312 18.617188 L 13.171875 18.574219 L 13.152344 18.527344 L 13.105469 18.386719 L 13.09375 18.339844 L 13.085938 18.285156 L 13.078125 18.234375 L 13.074219 18.179688 L 13.074219 18.128906 Z M 14.078125 17.113281 L 14.078125 17.328125 L 14.039062 17.328125 L 13.953125 17.335938 L 13.910156 17.34375 L 13.875 17.355469 L 13.839844 17.363281 L 13.800781 17.375 L 13.730469 17.40625 L 13.691406 17.421875 L 13.660156 17.441406 L 13.628906 17.464844 L 13.597656 17.484375 L 13.566406 17.511719 L 13.535156 17.535156 L 13.507812 17.5625 L 13.484375 17.589844 L 13.429688 17.652344 L 13.410156 17.683594 L 13.386719 17.714844 L 13.367188 17.746094 L 13.351562 17.78125 L 13.335938 17.820312 L 13.320312 17.855469 L 13.308594 17.894531 L 13.300781 17.929688 L 13.289062 17.964844 L 13.285156 18.007812 L 13.277344 18.050781 L 13.273438 18.09375 L 13.273438 18.132812 L 13.058594 18.132812 L 13.058594 18.082031 L 13.0625 18.027344 L 13.078125 17.925781 L 13.089844 17.878906 L 13.105469 17.832031 L 13.121094 17.78125 L 13.136719 17.734375 L 13.15625 17.6875 L 13.179688 17.648438 L 13.203125 17.605469 L 13.257812 17.519531 L 13.320312 17.449219 L 13.351562 17.410156 L 13.386719 17.378906 L 13.425781 17.347656 L 13.460938 17.316406 L 13.503906 17.289062 L 13.546875 17.265625 L 13.585938 17.238281 L 13.628906 17.21875 L 13.675781 17.195312 L 13.816406 17.148438 L 13.863281 17.140625 L 13.917969 17.128906 L 13.96875 17.125 L 14.023438 17.117188 L 14.074219 17.117188 Z M 15.089844 18.125 L 14.875 18.125 L 14.875 18.082031 L 14.867188 17.996094 L 14.859375 17.957031 L 14.847656 17.917969 L 14.839844 17.882812 L 14.828125 17.847656 L 14.8125 17.808594 L 14.796875 17.773438 L 14.78125 17.734375 L 14.761719 17.703125 L 14.738281 17.671875 L 14.71875 17.640625 L 14.691406 17.609375 L 14.613281 17.53125 L 14.582031 17.503906 L 14.519531 17.457031 L 14.457031 17.417969 L 14.421875 17.402344 L 14.382812 17.386719 L 14.347656 17.371094 L 14.308594 17.359375 L 14.238281 17.335938 L 14.152344 17.328125 L 14.109375 17.320312 L 14.070312 17.320312 L 14.070312 17.105469 L 14.121094 17.105469 L 14.175781 17.113281 L 14.226562 17.117188 L 14.277344 17.128906 L 14.324219 17.140625 L 14.371094 17.15625 L 14.421875 17.171875 L 14.46875 17.1875 L 14.515625 17.207031 L 14.554688 17.226562 L 14.640625 17.28125 L 14.683594 17.304688 L 14.71875 17.335938 L 14.753906 17.371094 L 14.792969 17.402344 L 14.855469 17.472656 L 14.886719 17.511719 L 14.914062 17.550781 L 14.9375 17.59375 L 14.964844 17.636719 L 14.984375 17.679688 L 15.007812 17.726562 L 15.054688 17.867188 L 15.0625 17.914062 L 15.074219 17.964844 L 15.078125 18.019531 L 15.085938 18.070312 L 15.085938 18.125 Z M 14.078125 19.140625 L 14.078125 18.925781 L 14.121094 18.925781 L 14.164062 18.917969 L 14.207031 18.914062 L 14.246094 18.910156 L 14.285156 18.898438 L 14.320312 18.886719 L 14.355469 18.878906 L 14.394531 18.863281 L 14.429688 18.847656 L 14.46875 18.832031 L 14.5 18.808594 L 14.5625 18.769531 L 14.625 18.714844 L 14.703125 18.636719 L 14.722656 18.605469 L 14.746094 18.574219 L 14.785156 18.511719 L 14.800781 18.472656 L 14.832031 18.402344 L 14.84375 18.363281 L 14.867188 18.292969 L 14.875 18.207031 L 14.882812 18.164062 L 14.882812 18.125 L 15.097656 18.125 L 15.097656 18.175781 L 15.089844 18.226562 L 15.085938 18.28125 L 15.074219 18.332031 L 15.0625 18.378906 L 15.03125 18.472656 L 15.015625 18.523438 L 14.996094 18.570312 L 14.976562 18.609375 L 14.921875 18.695312 L 14.898438 18.738281 L 14.867188 18.773438 L 14.832031 18.808594 L 14.800781 18.847656 L 14.730469 18.910156 L 14.691406 18.941406 L 14.652344 18.96875 L 14.609375 18.992188 L 14.566406 19.019531 L 14.523438 19.039062 L 14.476562 19.0625 L 14.335938 19.109375 L 14.289062 19.117188 L 14.238281 19.128906 L 14.183594 19.132812 L 14.132812 19.140625 Z M 14.078125 19.140625 Z M 12.65625 18.128906 L 12.441406 18.128906 L 12.441406 18.046875 L 12.445312 17.960938 L 12.457031 17.878906 L 12.472656 17.796875 L 12.488281 17.71875 L 12.507812 17.640625 L 12.535156 17.5625 L 12.566406 17.488281 L 12.597656 17.417969 L 12.632812 17.34375 L 12.675781 17.273438 L 12.71875 17.207031 L 12.8125 17.082031 L 12.863281 17.023438 L 12.917969 16.964844 L 12.972656 16.914062 L 13.03125 16.859375 L 13.15625 16.765625 L 13.226562 16.726562 L 13.292969 16.683594 L 13.363281 16.644531 L 13.433594 16.613281 L 13.507812 16.582031 L 13.582031 16.558594 L 13.660156 16.535156 L 13.738281 16.515625 L 13.816406 16.5 L 13.902344 16.488281 L 13.984375 16.484375 L 14.070312 16.484375 L 14.070312 16.699219 L 13.996094 16.699219 L 13.921875 16.703125 L 13.847656 16.714844 L 13.78125 16.726562 L 13.714844 16.742188 L 13.644531 16.761719 L 13.578125 16.78125 L 13.515625 16.808594 L 13.449219 16.835938 L 13.386719 16.867188 L 13.332031 16.902344 L 13.214844 16.980469 L 13.164062 17.023438 L 13.109375 17.070312 L 13.015625 17.164062 L 12.96875 17.21875 L 12.925781 17.269531 L 12.847656 17.386719 L 12.8125 17.441406 L 12.78125 17.503906 L 12.753906 17.566406 L 12.726562 17.632812 L 12.6875 17.765625 L 12.671875 17.835938 L 12.660156 17.902344 L 12.648438 17.976562 L 12.644531 18.050781 L 12.644531 18.125 Z M 13.871094 19.625 L 13.65625 19.625 L 13.738281 19.730469 L 13.671875 19.714844 L 13.601562 19.695312 L 13.535156 19.675781 L 13.464844 19.648438 L 13.402344 19.621094 L 13.277344 19.558594 L 13.21875 19.523438 L 13.164062 19.484375 L 13.105469 19.445312 L 13.054688 19.402344 L 13 19.359375 L 12.949219 19.3125 L 12.902344 19.265625 L 12.855469 19.214844 L 12.8125 19.160156 L 12.769531 19.109375 L 12.726562 19.050781 L 12.65625 18.933594 L 12.59375 18.808594 L 12.539062 18.683594 L 12.519531 18.617188 L 12.496094 18.546875 L 12.480469 18.480469 L 12.464844 18.410156 L 12.449219 18.277344 L 12.445312 18.203125 L 12.445312 18.128906 L 12.660156 18.128906 L 12.660156 18.191406 L 12.664062 18.253906 L 12.679688 18.378906 L 12.691406 18.4375 L 12.722656 18.554688 L 12.742188 18.609375 L 12.765625 18.667969 L 12.792969 18.726562 L 12.816406 18.777344 L 12.84375 18.832031 L 12.90625 18.933594 L 12.941406 18.984375 L 12.980469 19.03125 L 13.015625 19.078125 L 13.058594 19.117188 L 13.101562 19.160156 L 13.140625 19.203125 L 13.1875 19.238281 L 13.234375 19.277344 L 13.285156 19.3125 L 13.386719 19.375 L 13.441406 19.402344 L 13.492188 19.429688 L 13.609375 19.476562 L 13.664062 19.496094 L 13.722656 19.511719 L 13.785156 19.527344 L 13.871094 19.632812 Z M 13.785156 19.523438 L 13.871094 19.539062 L 13.871094 19.625 Z M 13.65625 21.8125 L 13.65625 19.621094 L 13.871094 19.621094 L 13.871094 21.8125 Z M 14.074219 22.015625 L 14.074219 22.230469 L 14.011719 22.230469 L 13.992188 22.226562 L 13.96875 22.21875 L 13.949219 22.214844 L 13.925781 22.210938 L 13.90625 22.203125 L 13.890625 22.195312 L 13.84375 22.160156 L 13.828125 22.152344 L 13.8125 22.140625 L 13.75 22.078125 L 13.738281 22.0625 L 13.730469 22.046875 L 13.695312 22 L 13.6875 21.980469 L 13.675781 21.957031 L 13.671875 21.9375 L 13.664062 21.914062 L 13.65625 21.875 L 13.65625 21.8125 L 13.871094 21.8125 L 13.871094 21.863281 L 13.875 21.875 L 13.878906 21.882812 L 13.886719 21.894531 L 13.890625 21.90625 L 13.894531 21.914062 L 13.902344 21.925781 L 13.90625 21.929688 L 13.910156 21.941406 L 13.921875 21.953125 L 13.925781 21.964844 L 13.933594 21.96875 L 13.945312 21.980469 L 13.953125 21.984375 L 13.964844 21.988281 L 13.976562 21.996094 L 13.984375 22 L 13.996094 22.003906 L 14.007812 22.011719 L 14.015625 22.015625 L 14.027344 22.019531 L 14.039062 22.027344 L 14.078125 22.027344 Z M 14.074219 22.230469 Z M 14.277344 21.8125 L 14.492188 21.8125 L 14.492188 21.851562 L 14.488281 21.875 L 14.484375 21.894531 L 14.476562 21.914062 L 14.472656 21.9375 L 14.46875 21.957031 L 14.460938 21.980469 L 14.453125 21.996094 L 14.441406 22.011719 L 14.429688 22.03125 L 14.421875 22.046875 L 14.386719 22.09375 L 14.339844 22.140625 L 14.324219 22.152344 L 14.308594 22.160156 L 14.261719 22.195312 L 14.246094 22.203125 L 14.226562 22.210938 L 14.207031 22.214844 L 14.183594 22.21875 L 14.164062 22.226562 L 14.140625 22.230469 L 14.121094 22.234375 L 14.078125 22.234375 L 14.078125 22.019531 L 14.132812 22.019531 L 14.140625 22.015625 L 14.152344 22.011719 L 14.164062 22.003906 L 14.175781 22 L 14.183594 21.996094 L 14.195312 21.988281 L 14.207031 21.984375 L 14.210938 21.980469 L 14.222656 21.972656 L 14.238281 21.957031 L 14.246094 21.941406 L 14.253906 21.929688 L 14.257812 21.921875 L 14.261719 21.910156 L 14.269531 21.898438 L 14.273438 21.890625 L 14.277344 21.878906 L 14.285156 21.867188 L 14.289062 21.859375 L 14.289062 21.804688 Z M 14.492188 21.8125 Z M 14.492188 19.621094 L 14.492188 21.8125 L 14.277344 21.8125 L 14.277344 19.621094 L 14.363281 19.515625 Z M 14.277344 19.621094 L 14.277344 19.53125 L 14.363281 19.515625 Z M 15.46875 17.832031 L 15.675781 17.789062 L 15.691406 17.871094 L 15.703125 17.957031 L 15.707031 18.039062 L 15.714844 18.125 L 15.714844 18.207031 L 15.699219 18.363281 L 15.683594 18.441406 L 15.667969 18.523438 L 15.644531 18.601562 L 15.621094 18.671875 L 15.59375 18.746094 L 15.5625 18.820312 L 15.523438 18.894531 L 15.488281 18.960938 L 15.445312 19.03125 L 15.351562 19.15625 L 15.300781 19.21875 L 15.246094 19.277344 L 15.191406 19.332031 L 15.132812 19.386719 L 15.007812 19.480469 L 14.9375 19.523438 L 14.871094 19.5625 L 14.796875 19.601562 L 14.722656 19.636719 L 14.644531 19.667969 L 14.566406 19.695312 L 14.488281 19.714844 L 14.40625 19.738281 L 14.363281 19.527344 L 14.4375 19.511719 L 14.503906 19.492188 L 14.570312 19.46875 L 14.640625 19.445312 L 14.703125 19.410156 L 14.765625 19.378906 L 14.882812 19.308594 L 14.992188 19.222656 L 15.042969 19.175781 L 15.089844 19.128906 L 15.136719 19.078125 L 15.179688 19.023438 L 15.222656 18.972656 L 15.292969 18.855469 L 15.328125 18.800781 L 15.359375 18.738281 L 15.382812 18.671875 L 15.410156 18.609375 L 15.429688 18.546875 L 15.445312 18.480469 L 15.460938 18.410156 L 15.484375 18.277344 L 15.488281 18.207031 L 15.488281 18.066406 L 15.484375 17.992188 L 15.472656 17.917969 L 15.457031 17.847656 Z M 14.074219 16.699219 L 14.074219 16.484375 L 14.148438 16.484375 L 14.222656 16.488281 L 14.363281 16.503906 L 14.429688 16.519531 L 14.5 16.535156 L 14.566406 16.558594 L 14.636719 16.578125 L 14.699219 16.605469 L 14.761719 16.628906 L 14.824219 16.664062 L 14.886719 16.695312 L 14.945312 16.730469 L 15 16.765625 L 15.058594 16.808594 L 15.113281 16.851562 L 15.214844 16.945312 L 15.261719 16.992188 L 15.308594 17.042969 L 15.351562 17.097656 L 15.394531 17.148438 L 15.4375 17.207031 L 15.472656 17.265625 L 15.507812 17.328125 L 15.539062 17.390625 L 15.574219 17.453125 L 15.597656 17.515625 L 15.625 17.585938 L 15.644531 17.652344 L 15.667969 17.71875 L 15.683594 17.789062 L 15.472656 17.832031 L 15.457031 17.765625 L 15.441406 17.710938 L 15.421875 17.652344 L 15.375 17.535156 L 15.320312 17.425781 L 15.289062 17.375 L 15.257812 17.320312 L 15.222656 17.273438 L 15.183594 17.226562 L 15.148438 17.179688 L 15.105469 17.140625 L 15.0625 17.097656 L 15.023438 17.054688 L 14.976562 17.019531 L 14.929688 16.980469 L 14.882812 16.945312 L 14.828125 16.914062 L 14.777344 16.882812 L 14.722656 16.855469 L 14.671875 16.828125 L 14.554688 16.78125 L 14.5 16.761719 L 14.382812 16.730469 L 14.324219 16.71875 L 14.199219 16.703125 L 14.136719 16.699219 Z M 14.074219 16.484375 Z M 14.074219 16.484375 "/>
<path style=" stroke:none;fill-rule:nonzero;fill:rgb(92.941176%,41.176471%,36.078431%);fill-opacity:1;" d="M 17.710938 13.609375 C 17.710938 13.78125 17.566406 13.921875 17.394531 13.921875 C 17.222656 13.921875 17.082031 13.78125 17.082031 13.609375 C 17.082031 13.4375 17.222656 13.292969 17.394531 13.292969 C 17.566406 13.292969 17.710938 13.4375 17.710938 13.609375 Z M 17.710938 13.609375 "/>
<path style=" stroke:none;fill-rule:nonzero;fill:rgb(92.941176%,41.176471%,36.078431%);fill-opacity:1;" d="M 17.394531 14.027344 L 17.394531 13.8125 L 17.4375 13.8125 L 17.449219 13.808594 L 17.457031 13.800781 L 17.480469 13.792969 L 17.488281 13.785156 L 17.511719 13.777344 L 17.519531 13.769531 L 17.527344 13.765625 L 17.53125 13.761719 L 17.535156 13.753906 L 17.542969 13.75 L 17.546875 13.746094 L 17.550781 13.738281 L 17.558594 13.734375 L 17.5625 13.730469 L 17.566406 13.71875 L 17.574219 13.707031 L 17.578125 13.699219 L 17.582031 13.6875 L 17.589844 13.675781 L 17.59375 13.667969 L 17.597656 13.65625 L 17.605469 13.644531 L 17.605469 13.601562 L 17.820312 13.601562 L 17.820312 13.667969 L 17.8125 13.6875 L 17.808594 13.707031 L 17.804688 13.730469 L 17.796875 13.75 L 17.792969 13.769531 L 17.773438 13.808594 L 17.75 13.839844 L 17.742188 13.855469 L 17.730469 13.871094 L 17.667969 13.933594 L 17.652344 13.945312 L 17.636719 13.953125 L 17.605469 13.976562 L 17.566406 13.996094 L 17.546875 14 L 17.527344 14.007812 L 17.503906 14.011719 L 17.484375 14.015625 L 17.464844 14.023438 L 17.402344 14.023438 Z M 16.976562 13.609375 L 17.191406 13.609375 L 17.191406 13.648438 L 17.195312 13.660156 L 17.203125 13.671875 L 17.207031 13.683594 L 17.210938 13.691406 L 17.21875 13.703125 L 17.222656 13.714844 L 17.226562 13.722656 L 17.234375 13.734375 L 17.238281 13.738281 L 17.242188 13.746094 L 17.25 13.75 L 17.253906 13.753906 L 17.257812 13.761719 L 17.265625 13.765625 L 17.269531 13.769531 L 17.273438 13.777344 L 17.296875 13.785156 L 17.304688 13.792969 L 17.328125 13.800781 L 17.335938 13.808594 L 17.359375 13.816406 L 17.402344 13.816406 L 17.402344 14.03125 L 17.335938 14.03125 L 17.296875 14.023438 L 17.273438 14.015625 L 17.234375 14.007812 L 17.210938 13.996094 L 17.195312 13.984375 L 17.179688 13.976562 L 17.148438 13.953125 L 17.132812 13.945312 L 17.085938 13.898438 L 17.070312 13.878906 L 17.058594 13.863281 L 17.050781 13.847656 L 17.027344 13.816406 L 17.019531 13.800781 L 17.007812 13.78125 L 17.003906 13.761719 L 16.996094 13.738281 L 16.988281 13.699219 L 16.980469 13.675781 L 16.980469 13.613281 Z M 17.394531 13.1875 L 17.394531 13.402344 L 17.351562 13.402344 L 17.34375 13.410156 L 17.320312 13.417969 L 17.3125 13.425781 L 17.300781 13.429688 L 17.289062 13.4375 L 17.28125 13.441406 L 17.269531 13.445312 L 17.265625 13.453125 L 17.257812 13.457031 L 17.253906 13.460938 L 17.25 13.46875 L 17.242188 13.472656 L 17.238281 13.476562 L 17.234375 13.484375 L 17.226562 13.488281 L 17.222656 13.5 L 17.21875 13.507812 L 17.210938 13.519531 L 17.207031 13.53125 L 17.203125 13.539062 L 17.195312 13.550781 L 17.191406 13.5625 L 17.1875 13.570312 L 17.1875 13.613281 L 16.972656 13.613281 L 16.972656 13.550781 L 16.976562 13.53125 L 16.980469 13.507812 L 16.988281 13.488281 L 16.992188 13.46875 L 16.996094 13.445312 L 17.007812 13.425781 L 17.019531 13.410156 L 17.027344 13.394531 L 17.050781 13.363281 L 17.058594 13.347656 L 17.121094 13.285156 L 17.152344 13.261719 L 17.171875 13.253906 L 17.203125 13.230469 L 17.242188 13.214844 L 17.265625 13.210938 L 17.285156 13.207031 L 17.304688 13.199219 L 17.328125 13.195312 L 17.390625 13.195312 Z M 17.8125 13.609375 L 17.597656 13.609375 L 17.597656 13.566406 L 17.59375 13.554688 L 17.589844 13.546875 L 17.582031 13.535156 L 17.578125 13.523438 L 17.574219 13.515625 L 17.566406 13.503906 L 17.5625 13.492188 L 17.558594 13.484375 L 17.515625 13.441406 L 17.503906 13.4375 L 17.496094 13.429688 L 17.484375 13.425781 L 17.472656 13.417969 L 17.464844 13.414062 L 17.453125 13.410156 L 17.441406 13.402344 L 17.433594 13.398438 L 17.390625 13.398438 L 17.390625 13.183594 L 17.453125 13.183594 L 17.472656 13.1875 L 17.496094 13.195312 L 17.515625 13.199219 L 17.535156 13.207031 L 17.558594 13.210938 L 17.578125 13.222656 L 17.59375 13.230469 L 17.625 13.253906 L 17.640625 13.261719 L 17.65625 13.273438 L 17.71875 13.335938 L 17.742188 13.367188 L 17.75 13.382812 L 17.773438 13.414062 L 17.78125 13.4375 L 17.789062 13.457031 L 17.792969 13.476562 L 17.796875 13.5 L 17.804688 13.519531 L 17.808594 13.539062 L 17.808594 13.601562 Z M 17.8125 13.609375 "/>
</g>
</svg>
