<?xml version="1.0" encoding="UTF-8"?>
<svg xmlns="http://www.w3.org/2000/svg" xmlns:xlink="http://www.w3.org/1999/xlink" width="28px" height="28px" viewBox="0 0 28 28" version="1.1">
<g id="surface1">
<path style=" stroke:none;fill-rule:nonzero;fill:rgb(92.941176%,41.176471%,36.078431%);fill-opacity:1;" d="M 14.078125 3.910156 C 14.230469 3.910156 14.375 3.957031 14.503906 4.039062 L 26.597656 11.863281 L 26.597656 9.8125 L 14.078125 1.710938 L 1.558594 9.8125 L 1.558594 11.863281 L 13.65625 4.039062 C 13.78125 3.957031 13.929688 3.910156 14.078125 3.910156 Z M 27.378906 14.078125 C 27.226562 14.078125 27.082031 14.039062 26.953125 13.953125 L 14.078125 5.621094 L 1.203125 13.953125 C 0.964844 14.109375 0.65625 14.121094 0.40625 13.980469 C 0.15625 13.847656 0 13.578125 0 13.292969 L 0 9.382812 C 0 9.121094 0.132812 8.871094 0.355469 8.726562 L 13.65625 0.121094 C 13.910156 -0.046875 14.25 -0.046875 14.503906 0.121094 L 27.804688 8.726562 C 28.023438 8.871094 28.160156 9.113281 28.160156 9.382812 L 28.160156 13.292969 C 28.160156 13.722656 27.808594 14.074219 27.378906 14.074219 Z M 27.378906 14.078125 "/>
<path style=" stroke:none;fill-rule:nonzero;fill:rgb(92.941176%,41.176471%,36.078431%);fill-opacity:1;" d="M 25.820312 28.164062 L 11.738281 28.164062 L 11.738281 26.597656 L 25.039062 26.597656 L 25.039062 11.734375 L 26.605469 11.734375 L 26.605469 27.378906 C 26.605469 27.808594 26.253906 28.160156 25.824219 28.160156 Z M 25.820312 28.164062 "/>
<path style=" stroke:none;fill-rule:nonzero;fill:rgb(92.941176%,41.176471%,36.078431%);fill-opacity:1;" d="M 2.34375 28.164062 C 1.914062 28.164062 1.566406 27.816406 1.566406 27.386719 L 1.566406 11.738281 L 3.132812 11.738281 L 3.132812 26.605469 L 16.429688 26.605469 L 16.429688 28.171875 L 2.351562 28.171875 Z M 2.34375 28.164062 "/>
<path style=" stroke:none;fill-rule:nonzero;fill:rgb(92.941176%,41.176471%,36.078431%);fill-opacity:1;" d="M 14.078125 18.128906 C 13.660156 18.128906 13.316406 17.789062 13.316406 17.367188 C 13.316406 16.949219 13.660156 16.605469 14.078125 16.605469 C 14.5 16.605469 14.839844 16.949219 14.839844 17.367188 C 14.839844 17.789062 14.5 18.128906 14.078125 18.128906 Z M 14.078125 15.6875 C 13.152344 15.6875 12.398438 16.4375 12.398438 17.367188 C 12.398438 18.136719 12.914062 18.78125 13.621094 18.984375 L 13.621094 24.210938 C 13.621094 24.46875 13.824219 24.671875 14.078125 24.671875 C 14.335938 24.671875 14.539062 24.46875 14.539062 24.210938 L 14.539062 18.984375 C 15.242188 18.789062 15.761719 18.136719 15.761719 17.367188 C 15.761719 16.441406 15.003906 15.6875 14.078125 15.6875 Z M 14.078125 15.6875 "/>
<path style=" stroke:none;fill-rule:nonzero;fill:rgb(92.941176%,41.176471%,36.078431%);fill-opacity:1;" d="M 14.078125 18.128906 C 13.660156 18.128906 13.316406 17.789062 13.316406 17.367188 C 13.316406 16.949219 13.660156 16.605469 14.078125 16.605469 C 14.5 16.605469 14.839844 16.949219 14.839844 17.367188 C 14.839844 17.789062 14.5 18.128906 14.078125 18.128906 Z M 14.078125 15.6875 C 13.152344 15.6875 12.398438 16.4375 12.398438 17.367188 C 12.398438 18.136719 12.914062 18.78125 13.621094 18.984375 L 13.621094 24.210938 C 13.621094 24.46875 13.824219 24.671875 14.078125 24.671875 C 14.335938 24.671875 14.539062 24.46875 14.539062 24.210938 L 14.539062 18.984375 C 15.242188 18.789062 15.761719 18.136719 15.761719 17.367188 C 15.761719 16.441406 15.003906 15.6875 14.078125 15.6875 Z M 14.078125 15.6875 "/>
<path style=" stroke:none;fill-rule:nonzero;fill:rgb(99.607843%,99.607843%,99.607843%);fill-opacity:1;" d="M 13.289062 17.367188 L 13.351562 17.367188 L 13.351562 17.402344 L 13.359375 17.4375 L 13.363281 17.472656 L 13.371094 17.507812 L 13.375 17.542969 L 13.410156 17.648438 L 13.425781 17.683594 L 13.445312 17.710938 L 13.460938 17.742188 L 13.480469 17.769531 L 13.503906 17.796875 L 13.527344 17.828125 L 13.550781 17.855469 L 13.597656 17.902344 L 13.625 17.925781 L 13.65625 17.949219 L 13.683594 17.972656 L 13.710938 17.992188 L 13.742188 18.007812 L 13.769531 18.027344 L 13.804688 18.042969 L 13.910156 18.078125 L 13.945312 18.082031 L 13.980469 18.089844 L 14.015625 18.09375 L 14.050781 18.101562 L 14.085938 18.101562 L 14.085938 18.164062 L 14.042969 18.164062 L 14.003906 18.160156 L 13.964844 18.152344 L 13.921875 18.148438 L 13.882812 18.136719 L 13.839844 18.125 L 13.769531 18.101562 L 13.734375 18.082031 L 13.699219 18.066406 L 13.667969 18.050781 L 13.632812 18.027344 L 13.601562 18.003906 L 13.574219 17.980469 L 13.542969 17.957031 L 13.515625 17.925781 L 13.492188 17.898438 L 13.46875 17.867188 L 13.445312 17.839844 L 13.398438 17.777344 L 13.382812 17.742188 L 13.363281 17.707031 L 13.347656 17.671875 L 13.3125 17.566406 L 13.300781 17.523438 L 13.292969 17.484375 L 13.289062 17.445312 L 13.28125 17.402344 L 13.28125 17.363281 Z M 14.085938 16.570312 L 14.085938 16.632812 L 14.050781 16.632812 L 14.015625 16.640625 L 13.980469 16.644531 L 13.945312 16.652344 L 13.910156 16.65625 L 13.804688 16.691406 L 13.769531 16.710938 L 13.742188 16.726562 L 13.710938 16.746094 L 13.683594 16.761719 L 13.65625 16.785156 L 13.625 16.808594 L 13.597656 16.832031 L 13.550781 16.878906 L 13.527344 16.910156 L 13.480469 16.964844 L 13.460938 16.996094 L 13.445312 17.023438 L 13.425781 17.054688 L 13.410156 17.089844 L 13.375 17.195312 L 13.371094 17.226562 L 13.363281 17.261719 L 13.359375 17.296875 L 13.351562 17.332031 L 13.351562 17.367188 L 13.289062 17.367188 L 13.289062 17.328125 L 13.292969 17.285156 L 13.300781 17.246094 L 13.304688 17.207031 L 13.316406 17.164062 L 13.351562 17.058594 L 13.371094 17.023438 L 13.402344 16.953125 L 13.425781 16.917969 L 13.472656 16.863281 L 13.496094 16.832031 L 13.519531 16.804688 L 13.550781 16.773438 L 13.578125 16.75 L 13.609375 16.726562 L 13.636719 16.703125 L 13.671875 16.679688 L 13.707031 16.664062 L 13.742188 16.644531 L 13.777344 16.628906 L 13.847656 16.605469 L 13.886719 16.59375 L 13.929688 16.582031 L 13.96875 16.578125 L 14.007812 16.570312 L 14.050781 16.566406 L 14.089844 16.566406 Z M 14.882812 17.367188 L 14.820312 17.367188 L 14.820312 17.332031 L 14.8125 17.296875 L 14.808594 17.261719 L 14.800781 17.226562 L 14.796875 17.195312 L 14.761719 17.089844 L 14.742188 17.054688 L 14.726562 17.023438 L 14.707031 16.996094 L 14.691406 16.964844 L 14.644531 16.910156 L 14.621094 16.878906 L 14.574219 16.832031 L 14.542969 16.808594 L 14.488281 16.761719 L 14.457031 16.746094 L 14.429688 16.726562 L 14.398438 16.710938 L 14.363281 16.691406 L 14.257812 16.65625 L 14.226562 16.652344 L 14.191406 16.644531 L 14.15625 16.640625 L 14.121094 16.632812 L 14.085938 16.632812 L 14.085938 16.570312 L 14.125 16.570312 L 14.167969 16.578125 L 14.207031 16.582031 L 14.25 16.589844 L 14.289062 16.601562 L 14.359375 16.625 L 14.394531 16.632812 L 14.429688 16.652344 L 14.464844 16.667969 L 14.5 16.6875 L 14.535156 16.710938 L 14.589844 16.757812 L 14.621094 16.78125 L 14.648438 16.808594 L 14.671875 16.839844 L 14.695312 16.867188 L 14.71875 16.898438 L 14.742188 16.925781 L 14.765625 16.960938 L 14.785156 16.996094 L 14.800781 17.03125 L 14.820312 17.066406 L 14.832031 17.101562 L 14.839844 17.136719 L 14.851562 17.171875 L 14.863281 17.210938 L 14.871094 17.25 L 14.875 17.292969 L 14.882812 17.332031 L 14.882812 17.375 Z M 14.085938 18.164062 L 14.085938 18.101562 L 14.121094 18.101562 L 14.15625 18.09375 L 14.191406 18.089844 L 14.226562 18.082031 L 14.257812 18.078125 L 14.363281 18.042969 L 14.398438 18.027344 L 14.429688 18.007812 L 14.457031 17.992188 L 14.488281 17.972656 L 14.542969 17.925781 L 14.574219 17.902344 L 14.621094 17.855469 L 14.644531 17.828125 L 14.667969 17.796875 L 14.691406 17.769531 L 14.707031 17.742188 L 14.726562 17.710938 L 14.742188 17.683594 L 14.761719 17.648438 L 14.796875 17.542969 L 14.800781 17.507812 L 14.808594 17.472656 L 14.8125 17.4375 L 14.820312 17.402344 L 14.820312 17.367188 L 14.882812 17.367188 L 14.882812 17.410156 L 14.875 17.449219 L 14.871094 17.492188 L 14.863281 17.53125 L 14.851562 17.570312 L 14.839844 17.605469 L 14.832031 17.640625 L 14.820312 17.675781 L 14.800781 17.710938 L 14.785156 17.746094 L 14.765625 17.78125 L 14.742188 17.816406 L 14.71875 17.84375 L 14.695312 17.875 L 14.671875 17.902344 L 14.648438 17.933594 L 14.621094 17.960938 L 14.589844 17.984375 L 14.535156 18.03125 L 14.5 18.054688 L 14.464844 18.074219 L 14.394531 18.105469 L 14.289062 18.140625 L 14.25 18.152344 L 14.207031 18.160156 L 14.167969 18.164062 L 14.125 18.171875 L 14.085938 18.171875 Z M 12.4375 17.367188 L 12.375 17.367188 L 12.375 17.28125 L 12.378906 17.195312 L 12.390625 17.105469 L 12.410156 17.023438 L 12.425781 16.941406 L 12.449219 16.863281 L 12.480469 16.78125 L 12.507812 16.703125 L 12.542969 16.628906 L 12.582031 16.554688 L 12.625 16.484375 L 12.71875 16.34375 L 12.769531 16.28125 L 12.820312 16.214844 L 12.9375 16.097656 L 13.003906 16.046875 L 13.066406 15.996094 L 13.207031 15.902344 L 13.277344 15.859375 L 13.351562 15.820312 L 13.425781 15.785156 L 13.503906 15.753906 L 13.585938 15.726562 L 13.667969 15.703125 L 13.746094 15.6875 L 13.828125 15.667969 L 13.917969 15.65625 L 14.003906 15.652344 L 14.089844 15.652344 L 14.089844 15.714844 L 14.003906 15.714844 L 13.921875 15.722656 L 13.839844 15.734375 L 13.675781 15.765625 L 13.527344 15.8125 L 13.449219 15.84375 L 13.375 15.878906 L 13.304688 15.914062 L 13.234375 15.953125 L 13.164062 15.996094 L 13.101562 16.042969 L 13.039062 16.085938 L 12.980469 16.140625 L 12.921875 16.191406 L 12.867188 16.25 L 12.816406 16.308594 L 12.769531 16.371094 L 12.722656 16.4375 L 12.683594 16.507812 L 12.640625 16.578125 L 12.605469 16.644531 L 12.570312 16.722656 L 12.542969 16.796875 L 12.519531 16.875 L 12.496094 16.949219 L 12.480469 17.03125 L 12.460938 17.113281 L 12.449219 17.195312 L 12.445312 17.273438 L 12.445312 17.363281 Z M 13.660156 18.984375 L 13.597656 18.984375 L 13.621094 19.015625 L 13.554688 18.992188 L 13.492188 18.96875 L 13.425781 18.945312 L 13.363281 18.917969 L 13.300781 18.886719 L 13.125 18.78125 L 13.066406 18.742188 L 13.015625 18.699219 L 12.960938 18.65625 L 12.910156 18.609375 L 12.863281 18.5625 L 12.816406 18.507812 L 12.769531 18.457031 L 12.730469 18.402344 L 12.6875 18.351562 L 12.648438 18.292969 L 12.578125 18.175781 L 12.546875 18.113281 L 12.519531 18.050781 L 12.492188 17.984375 L 12.46875 17.921875 L 12.445312 17.855469 L 12.425781 17.789062 L 12.410156 17.71875 L 12.386719 17.578125 L 12.378906 17.507812 L 12.375 17.4375 L 12.375 17.363281 L 12.4375 17.363281 L 12.4375 17.433594 L 12.445312 17.5 L 12.449219 17.570312 L 12.460938 17.640625 L 12.472656 17.707031 L 12.492188 17.769531 L 12.507812 17.832031 L 12.53125 17.898438 L 12.554688 17.960938 L 12.578125 18.027344 L 12.605469 18.082031 L 12.636719 18.140625 L 12.707031 18.257812 L 12.742188 18.3125 L 12.820312 18.414062 L 12.863281 18.46875 L 13.003906 18.609375 L 13.105469 18.6875 L 13.160156 18.730469 L 13.210938 18.765625 L 13.269531 18.800781 L 13.328125 18.828125 L 13.386719 18.859375 L 13.445312 18.886719 L 13.507812 18.910156 L 13.574219 18.933594 L 13.636719 18.953125 L 13.660156 18.980469 Z M 13.636719 18.957031 L 13.660156 18.960938 L 13.660156 18.984375 Z M 13.597656 24.210938 L 13.597656 18.984375 L 13.660156 18.984375 L 13.660156 24.210938 Z M 14.085938 24.636719 L 14.085938 24.703125 L 14.039062 24.703125 L 14.015625 24.695312 L 13.992188 24.691406 L 13.96875 24.683594 L 13.945312 24.679688 L 13.921875 24.671875 L 13.828125 24.625 L 13.8125 24.613281 L 13.792969 24.601562 L 13.6875 24.496094 L 13.675781 24.480469 L 13.621094 24.371094 L 13.613281 24.347656 L 13.609375 24.324219 L 13.601562 24.300781 L 13.597656 24.277344 L 13.589844 24.253906 L 13.589844 24.207031 L 13.65625 24.207031 L 13.65625 24.277344 L 13.660156 24.300781 L 13.667969 24.324219 L 13.671875 24.347656 L 13.675781 24.363281 L 13.683594 24.382812 L 13.6875 24.398438 L 13.699219 24.417969 L 13.710938 24.433594 L 13.722656 24.453125 L 13.746094 24.484375 L 13.757812 24.503906 L 13.769531 24.519531 L 13.789062 24.53125 L 13.804688 24.542969 L 13.824219 24.554688 L 13.839844 24.566406 L 13.859375 24.578125 L 13.875 24.589844 L 13.894531 24.601562 L 13.910156 24.609375 L 13.929688 24.613281 L 13.945312 24.621094 L 13.96875 24.625 L 13.992188 24.632812 L 14.015625 24.636719 Z M 14.511719 24.210938 L 14.574219 24.210938 L 14.574219 24.257812 L 14.566406 24.28125 L 14.5625 24.304688 L 14.554688 24.328125 L 14.550781 24.351562 L 14.535156 24.398438 L 14.5 24.46875 L 14.488281 24.484375 L 14.476562 24.503906 L 14.464844 24.519531 L 14.375 24.609375 L 14.359375 24.621094 L 14.339844 24.632812 L 14.269531 24.667969 L 14.25 24.679688 L 14.226562 24.683594 L 14.203125 24.691406 L 14.179688 24.695312 L 14.15625 24.703125 L 14.132812 24.707031 L 14.085938 24.707031 L 14.085938 24.644531 L 14.15625 24.644531 L 14.179688 24.636719 L 14.203125 24.632812 L 14.226562 24.625 L 14.242188 24.621094 L 14.257812 24.613281 L 14.277344 24.609375 L 14.292969 24.597656 L 14.3125 24.585938 L 14.328125 24.574219 L 14.347656 24.5625 L 14.363281 24.550781 L 14.382812 24.539062 L 14.398438 24.527344 L 14.410156 24.507812 L 14.433594 24.476562 L 14.445312 24.457031 L 14.457031 24.441406 L 14.46875 24.421875 L 14.480469 24.40625 L 14.492188 24.386719 L 14.5 24.371094 L 14.503906 24.351562 L 14.511719 24.335938 L 14.515625 24.3125 L 14.523438 24.289062 L 14.523438 24.21875 Z M 14.574219 18.984375 L 14.574219 24.210938 L 14.511719 24.210938 L 14.511719 18.984375 L 14.535156 18.957031 Z M 14.511719 18.984375 L 14.511719 18.960938 L 14.535156 18.957031 Z M 15.730469 17.367188 L 15.796875 17.367188 L 15.796875 17.445312 L 15.789062 17.511719 L 15.785156 17.582031 L 15.761719 17.722656 L 15.742188 17.792969 L 15.726562 17.863281 L 15.703125 17.925781 L 15.679688 17.992188 L 15.652344 18.054688 L 15.621094 18.117188 L 15.59375 18.183594 L 15.523438 18.300781 L 15.480469 18.359375 L 15.402344 18.460938 L 15.355469 18.515625 L 15.308594 18.566406 L 15.261719 18.613281 L 15.207031 18.660156 L 15.15625 18.707031 L 15.105469 18.746094 L 15.046875 18.789062 L 14.871094 18.894531 L 14.808594 18.921875 L 14.742188 18.953125 L 14.679688 18.972656 L 14.613281 18.996094 L 14.550781 19.019531 L 14.535156 18.957031 L 14.597656 18.941406 L 14.660156 18.917969 L 14.726562 18.894531 L 14.785156 18.863281 L 14.839844 18.835938 L 14.898438 18.804688 L 14.957031 18.769531 L 15.011719 18.734375 L 15.0625 18.695312 L 15.117188 18.65625 L 15.167969 18.613281 L 15.308594 18.472656 L 15.347656 18.421875 L 15.390625 18.371094 L 15.429688 18.316406 L 15.464844 18.265625 L 15.535156 18.148438 L 15.5625 18.089844 L 15.59375 18.03125 L 15.617188 17.96875 L 15.640625 17.902344 L 15.664062 17.839844 L 15.679688 17.777344 L 15.699219 17.710938 L 15.707031 17.648438 L 15.71875 17.578125 L 15.726562 17.507812 L 15.730469 17.4375 Z M 14.085938 15.722656 L 14.085938 15.65625 L 14.171875 15.65625 L 14.257812 15.664062 L 14.347656 15.675781 L 14.429688 15.691406 L 14.511719 15.710938 L 14.589844 15.734375 L 14.671875 15.761719 L 14.75 15.789062 L 14.824219 15.824219 L 14.898438 15.867188 L 14.96875 15.90625 L 15.109375 16 L 15.171875 16.050781 L 15.238281 16.105469 L 15.355469 16.222656 L 15.457031 16.347656 L 15.550781 16.488281 L 15.59375 16.558594 L 15.632812 16.632812 L 15.667969 16.710938 L 15.699219 16.785156 L 15.726562 16.867188 L 15.75 16.949219 L 15.765625 17.03125 L 15.785156 17.113281 L 15.796875 17.199219 L 15.800781 17.285156 L 15.800781 17.375 L 15.738281 17.375 L 15.738281 17.285156 L 15.730469 17.207031 L 15.71875 17.125 L 15.6875 16.960938 L 15.664062 16.886719 L 15.640625 16.808594 L 15.609375 16.734375 L 15.574219 16.65625 L 15.539062 16.589844 L 15.5 16.519531 L 15.457031 16.449219 L 15.414062 16.382812 L 15.367188 16.320312 L 15.3125 16.261719 L 15.261719 16.203125 L 15.203125 16.152344 L 15.144531 16.097656 L 15.082031 16.050781 L 15.015625 16.007812 L 14.953125 15.964844 L 14.882812 15.925781 L 14.8125 15.890625 L 14.738281 15.855469 L 14.660156 15.824219 L 14.511719 15.777344 L 14.347656 15.746094 L 14.265625 15.734375 L 14.183594 15.726562 L 14.097656 15.726562 Z M 14.085938 15.722656 "/>
<path style=" stroke:none;fill-rule:nonzero;fill:rgb(92.941176%,41.176471%,36.078431%);fill-opacity:1;" d="M 11.960938 14.917969 C 11.78125 14.738281 11.488281 14.738281 11.316406 14.917969 C 9.894531 16.335938 9.894531 18.636719 11.316406 20.0625 C 11.496094 20.242188 11.785156 20.242188 11.960938 20.0625 C 12.140625 19.882812 12.140625 19.589844 11.960938 19.417969 C 10.894531 18.351562 10.894531 16.632812 11.960938 15.570312 C 12.140625 15.390625 12.140625 15.097656 11.960938 14.921875 Z M 11.960938 14.917969 "/>
<path style=" stroke:none;fill-rule:nonzero;fill:rgb(92.941176%,41.176471%,36.078431%);fill-opacity:1;" d="M 11.960938 14.917969 C 11.78125 14.738281 11.488281 14.738281 11.316406 14.917969 C 9.894531 16.335938 9.894531 18.636719 11.316406 20.0625 C 11.496094 20.242188 11.785156 20.242188 11.960938 20.0625 C 12.140625 19.882812 12.140625 19.589844 11.960938 19.417969 C 10.894531 18.351562 10.894531 16.632812 11.960938 15.570312 C 12.140625 15.390625 12.140625 15.097656 11.960938 14.921875 Z M 11.960938 14.917969 "/>
<path style=" stroke:none;fill-rule:nonzero;fill:rgb(99.607843%,99.607843%,99.607843%);fill-opacity:1;" d="M 11.339844 14.941406 L 11.292969 14.894531 L 11.34375 14.84375 L 11.359375 14.832031 L 11.453125 14.785156 L 11.476562 14.777344 L 11.5 14.773438 L 11.523438 14.765625 L 11.546875 14.761719 L 11.570312 14.753906 L 11.59375 14.75 L 11.6875 14.75 L 11.710938 14.753906 L 11.734375 14.761719 L 11.757812 14.765625 L 11.78125 14.773438 L 11.804688 14.777344 L 11.828125 14.785156 L 11.921875 14.832031 L 11.9375 14.84375 L 11.988281 14.894531 L 11.941406 14.941406 L 11.925781 14.921875 L 11.910156 14.910156 L 11.890625 14.898438 L 11.875 14.886719 L 11.855469 14.878906 L 11.839844 14.867188 L 11.820312 14.855469 L 11.804688 14.847656 L 11.785156 14.84375 L 11.769531 14.835938 L 11.75 14.832031 L 11.734375 14.824219 L 11.710938 14.820312 L 11.582031 14.820312 L 11.566406 14.824219 L 11.546875 14.832031 L 11.53125 14.835938 L 11.511719 14.84375 L 11.496094 14.847656 L 11.476562 14.855469 L 11.460938 14.867188 L 11.441406 14.878906 L 11.425781 14.886719 L 11.40625 14.898438 L 11.390625 14.910156 L 11.371094 14.921875 L 11.355469 14.941406 Z M 11.339844 14.941406 L 11.414062 14.867188 Z M 11.339844 20.039062 L 11.292969 20.085938 L 11.164062 19.945312 L 11.042969 19.808594 L 10.925781 19.660156 L 10.820312 19.511719 L 10.722656 19.351562 L 10.632812 19.195312 L 10.550781 19.03125 L 10.480469 18.871094 L 10.417969 18.699219 L 10.367188 18.53125 L 10.320312 18.363281 L 10.277344 18.1875 L 10.25 18.015625 L 10.226562 17.839844 L 10.214844 17.664062 L 10.207031 17.492188 L 10.214844 17.316406 L 10.226562 17.140625 L 10.25 16.964844 L 10.277344 16.792969 L 10.320312 16.617188 L 10.367188 16.449219 L 10.417969 16.28125 L 10.480469 16.109375 L 10.550781 15.949219 L 10.632812 15.785156 L 10.722656 15.628906 L 10.820312 15.46875 L 10.925781 15.320312 L 11.042969 15.171875 L 11.164062 15.035156 L 11.292969 14.894531 L 11.339844 14.941406 L 11.210938 15.074219 L 11.085938 15.214844 L 10.976562 15.359375 L 10.871094 15.503906 L 10.777344 15.65625 L 10.691406 15.8125 L 10.617188 15.972656 L 10.546875 16.132812 L 10.480469 16.296875 L 10.429688 16.464844 L 10.382812 16.632812 L 10.347656 16.804688 L 10.320312 16.972656 L 10.296875 17.140625 L 10.285156 17.316406 L 10.277344 17.492188 L 10.285156 17.664062 L 10.296875 17.839844 L 10.320312 18.007812 L 10.347656 18.175781 L 10.382812 18.347656 L 10.429688 18.515625 L 10.480469 18.683594 L 10.546875 18.847656 L 10.617188 19.007812 L 10.691406 19.167969 L 10.777344 19.324219 L 10.871094 19.476562 L 10.976562 19.621094 L 11.085938 19.765625 L 11.210938 19.90625 Z M 11.292969 20.085938 L 11.371094 20.167969 Z M 11.9375 20.039062 L 11.984375 20.085938 L 11.949219 20.121094 L 11.929688 20.136719 L 11.914062 20.148438 L 11.820312 20.195312 L 11.796875 20.203125 L 11.773438 20.207031 L 11.75 20.214844 L 11.726562 20.21875 L 11.703125 20.226562 L 11.679688 20.230469 L 11.589844 20.230469 L 11.566406 20.226562 L 11.542969 20.21875 L 11.519531 20.214844 L 11.496094 20.207031 L 11.472656 20.203125 L 11.449219 20.195312 L 11.355469 20.148438 L 11.339844 20.136719 L 11.320312 20.121094 L 11.285156 20.085938 L 11.332031 20.039062 L 11.347656 20.058594 L 11.367188 20.070312 L 11.382812 20.082031 L 11.402344 20.09375 L 11.417969 20.105469 L 11.4375 20.117188 L 11.453125 20.125 L 11.472656 20.132812 L 11.488281 20.136719 L 11.507812 20.144531 L 11.523438 20.148438 L 11.542969 20.15625 L 11.558594 20.160156 L 11.6875 20.160156 L 11.710938 20.15625 L 11.726562 20.148438 L 11.746094 20.144531 L 11.761719 20.136719 L 11.78125 20.132812 L 11.796875 20.125 L 11.816406 20.117188 L 11.832031 20.105469 L 11.851562 20.09375 L 11.867188 20.082031 L 11.886719 20.070312 L 11.902344 20.058594 L 11.921875 20.039062 Z M 11.984375 20.085938 L 12.042969 20.027344 Z M 11.9375 19.441406 L 11.984375 19.394531 L 12.035156 19.445312 L 12.046875 19.464844 L 12.082031 19.535156 L 12.09375 19.554688 L 12.101562 19.578125 L 12.105469 19.601562 L 12.113281 19.625 L 12.117188 19.648438 L 12.125 19.671875 L 12.128906 19.695312 L 12.128906 19.789062 L 12.125 19.8125 L 12.117188 19.835938 L 12.113281 19.859375 L 12.105469 19.882812 L 12.101562 19.90625 L 12.09375 19.929688 L 12.046875 20.023438 L 12.035156 20.039062 L 12.019531 20.058594 L 12 20.074219 L 11.984375 20.09375 L 11.9375 20.046875 L 11.953125 20.027344 L 11.964844 20.011719 L 11.976562 19.992188 L 11.988281 19.976562 L 12 19.957031 L 12.011719 19.941406 L 12.023438 19.921875 L 12.03125 19.90625 L 12.035156 19.886719 L 12.042969 19.871094 L 12.046875 19.851562 L 12.054688 19.835938 L 12.058594 19.8125 L 12.058594 19.683594 L 12.054688 19.660156 L 12.046875 19.644531 L 12.042969 19.625 L 12.035156 19.609375 L 12.03125 19.589844 L 12.023438 19.574219 L 12.011719 19.554688 L 11.988281 19.523438 L 11.976562 19.503906 L 11.964844 19.488281 L 11.953125 19.46875 L 11.9375 19.453125 Z M 11.9375 19.441406 Z M 11.9375 15.546875 L 11.984375 15.59375 L 11.890625 15.691406 L 11.804688 15.796875 L 11.722656 15.902344 L 11.644531 16.011719 L 11.578125 16.121094 L 11.511719 16.238281 L 11.453125 16.355469 L 11.402344 16.476562 L 11.355469 16.601562 L 11.316406 16.722656 L 11.28125 16.851562 L 11.25 16.976562 L 11.226562 17.105469 L 11.210938 17.234375 L 11.199219 17.363281 L 11.191406 17.492188 L 11.199219 17.617188 L 11.210938 17.746094 L 11.226562 17.875 L 11.25 18.003906 L 11.28125 18.128906 L 11.316406 18.257812 L 11.355469 18.378906 L 11.402344 18.503906 L 11.453125 18.625 L 11.511719 18.742188 L 11.578125 18.859375 L 11.644531 18.96875 L 11.722656 19.078125 L 11.804688 19.183594 L 11.890625 19.289062 L 11.984375 19.386719 L 11.9375 19.433594 L 11.839844 19.328125 L 11.746094 19.226562 L 11.65625 19.113281 L 11.578125 19.003906 L 11.507812 18.886719 L 11.441406 18.769531 L 11.382812 18.648438 L 11.332031 18.527344 L 11.285156 18.398438 L 11.246094 18.269531 L 11.210938 18.140625 L 11.179688 18.015625 L 11.15625 17.886719 L 11.140625 17.753906 L 11.128906 17.617188 L 11.121094 17.484375 L 11.128906 17.351562 L 11.140625 17.214844 L 11.15625 17.082031 L 11.179688 16.953125 L 11.210938 16.828125 L 11.246094 16.699219 L 11.285156 16.570312 L 11.332031 16.441406 L 11.382812 16.320312 L 11.441406 16.199219 L 11.507812 16.082031 L 11.578125 15.964844 L 11.65625 15.855469 L 11.746094 15.746094 L 11.839844 15.640625 L 11.9375 15.535156 Z M 11.9375 15.546875 L 12.023438 15.460938 Z M 11.9375 14.941406 L 11.984375 14.894531 L 12.035156 14.945312 L 12.046875 14.964844 L 12.09375 15.058594 L 12.101562 15.082031 L 12.105469 15.105469 L 12.113281 15.128906 L 12.117188 15.152344 L 12.125 15.171875 L 12.128906 15.195312 L 12.128906 15.289062 L 12.125 15.3125 L 12.117188 15.335938 L 12.113281 15.359375 L 12.105469 15.382812 L 12.101562 15.40625 L 12.09375 15.429688 L 12.046875 15.523438 L 12.035156 15.539062 L 12.019531 15.558594 L 12 15.574219 L 11.984375 15.59375 L 11.9375 15.546875 L 11.953125 15.527344 L 11.964844 15.511719 L 11.976562 15.492188 L 12 15.460938 L 12.011719 15.441406 L 12.023438 15.425781 L 12.03125 15.40625 L 12.035156 15.390625 L 12.042969 15.371094 L 12.046875 15.355469 L 12.054688 15.335938 L 12.058594 15.3125 L 12.058594 15.179688 L 12.054688 15.15625 L 12.046875 15.140625 L 12.042969 15.121094 L 12.035156 15.105469 L 12.03125 15.085938 L 12.023438 15.070312 L 12.011719 15.050781 L 12 15.035156 L 11.988281 15.015625 L 11.976562 15 L 11.964844 14.980469 L 11.953125 14.964844 L 11.9375 14.945312 Z M 11.9375 14.941406 L 11.890625 14.894531 Z M 11.960938 14.917969 L 11.9375 14.941406 Z M 11.9375 14.941406 L 11.890625 14.894531 Z M 11.9375 14.941406 "/>
<path style=" stroke:none;fill-rule:nonzero;fill:rgb(92.941176%,41.176471%,36.078431%);fill-opacity:1;" d="M 16.851562 14.917969 C 16.667969 14.738281 16.378906 14.738281 16.203125 14.917969 C 16.023438 15.097656 16.023438 15.390625 16.203125 15.5625 C 17.261719 16.625 17.261719 18.351562 16.203125 19.410156 C 16.023438 19.589844 16.023438 19.882812 16.203125 20.058594 C 16.382812 20.238281 16.675781 20.238281 16.851562 20.058594 C 18.269531 18.636719 18.269531 16.332031 16.851562 14.910156 Z M 16.851562 14.917969 "/>
<path style=" stroke:none;fill-rule:nonzero;fill:rgb(92.941176%,41.176471%,36.078431%);fill-opacity:1;" d="M 16.851562 14.917969 C 16.667969 14.738281 16.378906 14.738281 16.203125 14.917969 C 16.023438 15.097656 16.023438 15.390625 16.203125 15.5625 C 17.261719 16.625 17.261719 18.351562 16.203125 19.410156 C 16.023438 19.589844 16.023438 19.882812 16.203125 20.058594 C 16.382812 20.238281 16.675781 20.238281 16.851562 20.058594 C 18.269531 18.636719 18.269531 16.332031 16.851562 14.910156 Z M 16.851562 14.917969 "/>
<path style=" stroke:none;fill-rule:nonzero;fill:rgb(99.607843%,99.607843%,99.607843%);fill-opacity:1;" d="M 16.226562 14.941406 L 16.179688 14.894531 L 16.199219 14.878906 L 16.214844 14.859375 L 16.234375 14.84375 L 16.25 14.832031 L 16.34375 14.785156 L 16.367188 14.777344 L 16.390625 14.773438 L 16.414062 14.765625 L 16.4375 14.761719 L 16.460938 14.753906 L 16.484375 14.75 L 16.578125 14.75 L 16.597656 14.753906 L 16.621094 14.761719 L 16.644531 14.765625 L 16.667969 14.773438 L 16.691406 14.777344 L 16.714844 14.785156 L 16.832031 14.84375 L 16.851562 14.859375 L 16.867188 14.878906 L 16.882812 14.894531 L 16.839844 14.941406 L 16.820312 14.921875 L 16.804688 14.910156 L 16.785156 14.898438 L 16.769531 14.886719 L 16.75 14.878906 L 16.734375 14.867188 L 16.714844 14.855469 L 16.699219 14.847656 L 16.679688 14.84375 L 16.664062 14.835938 L 16.644531 14.832031 L 16.628906 14.824219 L 16.609375 14.820312 L 16.484375 14.820312 L 16.460938 14.824219 L 16.441406 14.832031 L 16.425781 14.835938 L 16.40625 14.84375 L 16.390625 14.847656 L 16.371094 14.855469 L 16.355469 14.867188 L 16.335938 14.878906 L 16.320312 14.886719 L 16.300781 14.898438 L 16.269531 14.921875 L 16.25 14.941406 Z M 16.226562 15.546875 L 16.179688 15.59375 L 16.164062 15.574219 L 16.144531 15.558594 L 16.128906 15.539062 L 16.117188 15.523438 L 16.070312 15.429688 L 16.0625 15.40625 L 16.058594 15.382812 L 16.050781 15.359375 L 16.046875 15.335938 L 16.039062 15.3125 L 16.035156 15.289062 L 16.035156 15.195312 L 16.039062 15.171875 L 16.046875 15.152344 L 16.050781 15.128906 L 16.058594 15.105469 L 16.0625 15.082031 L 16.070312 15.058594 L 16.117188 14.964844 L 16.128906 14.945312 L 16.179688 14.894531 L 16.226562 14.941406 L 16.210938 14.957031 L 16.199219 14.976562 L 16.1875 14.992188 L 16.175781 15.011719 L 16.164062 15.027344 L 16.152344 15.046875 L 16.140625 15.0625 L 16.132812 15.082031 L 16.128906 15.097656 L 16.121094 15.117188 L 16.117188 15.132812 L 16.109375 15.152344 L 16.105469 15.171875 L 16.105469 15.300781 L 16.109375 15.324219 L 16.117188 15.34375 L 16.121094 15.359375 L 16.128906 15.378906 L 16.132812 15.394531 L 16.140625 15.414062 L 16.152344 15.429688 L 16.164062 15.449219 L 16.1875 15.480469 L 16.199219 15.5 L 16.210938 15.515625 L 16.226562 15.535156 Z M 16.226562 19.441406 L 16.179688 19.394531 L 16.273438 19.292969 L 16.359375 19.191406 L 16.441406 19.085938 L 16.519531 18.972656 L 16.585938 18.863281 L 16.652344 18.746094 L 16.710938 18.632812 L 16.761719 18.507812 L 16.808594 18.386719 L 16.851562 18.265625 L 16.914062 18.007812 L 16.9375 17.878906 L 16.953125 17.753906 L 16.964844 17.625 L 16.972656 17.496094 L 16.964844 17.367188 L 16.953125 17.238281 L 16.9375 17.113281 L 16.914062 16.984375 L 16.851562 16.726562 L 16.808594 16.605469 L 16.761719 16.484375 L 16.710938 16.359375 L 16.652344 16.246094 L 16.585938 16.128906 L 16.519531 16.019531 L 16.441406 15.90625 L 16.359375 15.800781 L 16.273438 15.699219 L 16.179688 15.597656 L 16.226562 15.550781 L 16.324219 15.65625 L 16.417969 15.761719 L 16.507812 15.871094 L 16.582031 15.984375 L 16.652344 16.097656 L 16.714844 16.214844 L 16.773438 16.335938 L 16.828125 16.460938 L 16.871094 16.589844 L 16.914062 16.714844 L 16.949219 16.84375 L 16.976562 16.972656 L 17 17.101562 L 17.019531 17.234375 L 17.03125 17.367188 L 17.035156 17.5 L 17.03125 17.636719 L 17.019531 17.769531 L 17 17.902344 L 16.976562 18.03125 L 16.949219 18.160156 L 16.914062 18.289062 L 16.871094 18.414062 L 16.828125 18.542969 L 16.773438 18.664062 L 16.714844 18.789062 L 16.652344 18.90625 L 16.582031 19.019531 L 16.507812 19.132812 L 16.417969 19.242188 L 16.324219 19.347656 L 16.226562 19.453125 Z M 16.226562 20.046875 L 16.179688 20.09375 L 16.164062 20.074219 L 16.144531 20.058594 L 16.128906 20.039062 L 16.117188 20.023438 L 16.070312 19.929688 L 16.0625 19.90625 L 16.058594 19.882812 L 16.050781 19.859375 L 16.046875 19.835938 L 16.039062 19.8125 L 16.035156 19.789062 L 16.035156 19.695312 L 16.039062 19.671875 L 16.046875 19.648438 L 16.050781 19.625 L 16.058594 19.601562 L 16.0625 19.578125 L 16.070312 19.554688 L 16.082031 19.535156 L 16.117188 19.464844 L 16.128906 19.445312 L 16.179688 19.394531 L 16.226562 19.441406 L 16.210938 19.457031 L 16.199219 19.476562 L 16.1875 19.492188 L 16.175781 19.511719 L 16.152344 19.542969 L 16.140625 19.5625 L 16.132812 19.578125 L 16.128906 19.597656 L 16.121094 19.613281 L 16.117188 19.632812 L 16.109375 19.648438 L 16.105469 19.671875 L 16.105469 19.800781 L 16.109375 19.824219 L 16.117188 19.839844 L 16.121094 19.859375 L 16.128906 19.875 L 16.132812 19.894531 L 16.140625 19.910156 L 16.152344 19.929688 L 16.164062 19.945312 L 16.175781 19.964844 L 16.1875 19.980469 L 16.199219 20 L 16.210938 20.015625 L 16.226562 20.035156 Z M 16.179688 20.09375 L 16.132812 20.046875 Z M 16.828125 20.046875 L 16.871094 20.09375 L 16.820312 20.144531 L 16.703125 20.203125 L 16.679688 20.207031 L 16.65625 20.214844 L 16.632812 20.21875 L 16.609375 20.226562 L 16.585938 20.230469 L 16.566406 20.238281 L 16.472656 20.238281 L 16.449219 20.230469 L 16.425781 20.226562 L 16.402344 20.21875 L 16.378906 20.214844 L 16.355469 20.207031 L 16.332031 20.203125 L 16.238281 20.15625 L 16.222656 20.144531 L 16.1875 20.109375 L 16.167969 20.09375 L 16.214844 20.046875 L 16.234375 20.0625 L 16.25 20.074219 L 16.269531 20.085938 L 16.300781 20.109375 L 16.320312 20.121094 L 16.335938 20.132812 L 16.355469 20.136719 L 16.371094 20.144531 L 16.390625 20.148438 L 16.40625 20.15625 L 16.425781 20.160156 L 16.449219 20.167969 L 16.578125 20.167969 L 16.59375 20.160156 L 16.609375 20.15625 L 16.628906 20.148438 L 16.644531 20.144531 L 16.664062 20.136719 L 16.679688 20.132812 L 16.699219 20.121094 L 16.714844 20.109375 L 16.734375 20.097656 L 16.75 20.085938 L 16.769531 20.074219 L 16.785156 20.0625 L 16.804688 20.046875 Z M 16.871094 20.09375 L 16.820312 20.144531 Z M 16.828125 14.953125 L 16.871094 14.90625 L 17 15.039062 L 17.125 15.179688 L 17.234375 15.324219 L 17.339844 15.476562 L 17.4375 15.628906 L 17.523438 15.785156 L 17.605469 15.949219 L 17.675781 16.109375 L 17.742188 16.28125 L 17.792969 16.449219 L 17.839844 16.617188 L 17.875 16.792969 L 17.902344 16.964844 L 17.925781 17.140625 L 17.9375 17.316406 L 17.945312 17.492188 L 17.9375 17.664062 L 17.925781 17.839844 L 17.902344 18.015625 L 17.875 18.1875 L 17.839844 18.363281 L 17.792969 18.53125 L 17.742188 18.699219 L 17.675781 18.871094 L 17.605469 19.03125 L 17.523438 19.195312 L 17.4375 19.351562 L 17.339844 19.503906 L 17.234375 19.65625 L 17.125 19.800781 L 17 19.941406 L 16.871094 20.074219 L 16.828125 20.027344 L 16.953125 19.894531 L 17.078125 19.753906 L 17.1875 19.609375 L 17.292969 19.464844 L 17.386719 19.3125 L 17.472656 19.15625 L 17.546875 18.996094 L 17.617188 18.835938 L 17.683594 18.671875 L 17.734375 18.503906 L 17.78125 18.335938 L 17.816406 18.164062 L 17.84375 17.996094 L 17.867188 17.820312 L 17.878906 17.648438 L 17.886719 17.472656 L 17.878906 17.296875 L 17.867188 17.125 L 17.84375 16.949219 L 17.816406 16.78125 L 17.78125 16.613281 L 17.734375 16.441406 L 17.683594 16.273438 L 17.617188 16.109375 L 17.546875 15.949219 L 17.472656 15.789062 L 17.386719 15.632812 L 17.292969 15.480469 L 17.1875 15.335938 L 17.078125 15.191406 L 16.953125 15.050781 L 16.828125 14.917969 Z M 16.871094 14.90625 L 16.785156 14.820312 Z M 16.851562 14.929688 L 16.828125 14.953125 Z M 16.871094 14.90625 L 16.785156 14.820312 Z M 16.871094 14.90625 "/>
<path style=" stroke:none;fill-rule:nonzero;fill:rgb(92.941176%,41.176471%,36.078431%);fill-opacity:1;" d="M 10.582031 14.183594 C 10.761719 14.003906 10.761719 13.714844 10.582031 13.539062 C 10.402344 13.359375 10.109375 13.359375 9.933594 13.539062 C 7.753906 15.722656 7.753906 19.265625 9.933594 21.449219 C 10.117188 21.628906 10.40625 21.628906 10.582031 21.449219 C 10.761719 21.269531 10.761719 20.976562 10.582031 20.800781 C 8.757812 18.980469 8.757812 16.011719 10.582031 14.191406 Z M 10.582031 14.183594 "/>
<path style=" stroke:none;fill-rule:nonzero;fill:rgb(92.941176%,41.176471%,36.078431%);fill-opacity:1;" d="M 10.582031 14.183594 C 10.761719 14.003906 10.761719 13.714844 10.582031 13.539062 C 10.402344 13.359375 10.109375 13.359375 9.933594 13.539062 C 7.753906 15.722656 7.753906 19.265625 9.933594 21.449219 C 10.117188 21.628906 10.40625 21.628906 10.582031 21.449219 C 10.761719 21.269531 10.761719 20.976562 10.582031 20.800781 C 8.757812 18.980469 8.757812 16.011719 10.582031 14.191406 Z M 10.582031 14.183594 "/>
<path style=" stroke:none;fill-rule:nonzero;fill:rgb(99.607843%,99.607843%,99.607843%);fill-opacity:1;" d="M 10.558594 13.554688 L 10.605469 13.507812 L 10.621094 13.527344 L 10.640625 13.542969 L 10.65625 13.5625 L 10.667969 13.578125 L 10.714844 13.671875 L 10.722656 13.695312 L 10.726562 13.71875 L 10.734375 13.742188 L 10.738281 13.765625 L 10.746094 13.789062 L 10.75 13.8125 L 10.75 13.90625 L 10.746094 13.929688 L 10.738281 13.953125 L 10.734375 13.976562 L 10.726562 14 L 10.722656 14.019531 L 10.714844 14.042969 L 10.667969 14.136719 L 10.65625 14.15625 L 10.605469 14.207031 L 10.558594 14.160156 L 10.574219 14.144531 L 10.585938 14.125 L 10.597656 14.109375 L 10.609375 14.089844 L 10.621094 14.074219 L 10.632812 14.054688 L 10.644531 14.039062 L 10.652344 14.019531 L 10.65625 14.003906 L 10.664062 13.988281 L 10.667969 13.96875 L 10.675781 13.953125 L 10.679688 13.933594 L 10.679688 13.804688 L 10.675781 13.789062 L 10.667969 13.769531 L 10.664062 13.753906 L 10.65625 13.734375 L 10.652344 13.71875 L 10.644531 13.703125 L 10.632812 13.683594 L 10.621094 13.667969 L 10.609375 13.648438 L 10.597656 13.632812 L 10.585938 13.613281 L 10.574219 13.597656 L 10.558594 13.578125 Z M 10.605469 13.507812 L 10.558594 13.460938 Z M 9.957031 13.554688 L 9.910156 13.507812 L 9.929688 13.492188 L 9.945312 13.472656 L 9.964844 13.457031 L 9.980469 13.445312 L 10.074219 13.398438 L 10.097656 13.394531 L 10.121094 13.386719 L 10.144531 13.382812 L 10.167969 13.375 L 10.191406 13.371094 L 10.214844 13.363281 L 10.308594 13.363281 L 10.332031 13.371094 L 10.355469 13.375 L 10.378906 13.382812 L 10.402344 13.386719 L 10.425781 13.394531 L 10.449219 13.398438 L 10.472656 13.410156 L 10.492188 13.421875 L 10.539062 13.445312 L 10.558594 13.457031 L 10.609375 13.507812 L 10.5625 13.554688 L 10.546875 13.539062 L 10.527344 13.527344 L 10.511719 13.515625 L 10.492188 13.503906 L 10.460938 13.480469 L 10.441406 13.46875 L 10.425781 13.460938 L 10.40625 13.457031 L 10.390625 13.449219 L 10.371094 13.445312 L 10.355469 13.4375 L 10.332031 13.433594 L 10.203125 13.433594 L 10.183594 13.4375 L 10.167969 13.445312 L 10.152344 13.449219 L 10.132812 13.457031 L 10.117188 13.460938 L 10.097656 13.46875 L 10.082031 13.480469 L 10.0625 13.492188 L 10.046875 13.503906 L 10.027344 13.515625 L 10.011719 13.527344 L 9.992188 13.539062 L 9.976562 13.554688 Z M 9.957031 21.417969 L 9.910156 21.464844 L 9.714844 21.257812 L 9.527344 21.039062 L 9.351562 20.8125 L 9.191406 20.582031 L 9.042969 20.34375 L 8.910156 20.097656 L 8.789062 19.847656 L 8.679688 19.597656 L 8.578125 19.339844 L 8.496094 19.078125 L 8.429688 18.816406 L 8.371094 18.550781 L 8.324219 18.28125 L 8.289062 18.015625 L 8.269531 17.746094 L 8.265625 17.480469 L 8.269531 17.210938 L 8.289062 16.941406 L 8.324219 16.675781 L 8.371094 16.40625 L 8.429688 16.140625 L 8.496094 15.878906 L 8.578125 15.617188 L 8.679688 15.359375 L 8.789062 15.109375 L 8.910156 14.859375 L 9.042969 14.613281 L 9.191406 14.375 L 9.351562 14.144531 L 9.527344 13.917969 L 9.714844 13.703125 L 9.910156 13.492188 L 9.957031 13.539062 L 9.761719 13.746094 L 9.574219 13.964844 L 9.40625 14.183594 L 9.25 14.410156 L 9.101562 14.644531 L 8.96875 14.882812 L 8.847656 15.128906 L 8.734375 15.378906 L 8.644531 15.628906 L 8.5625 15.882812 L 8.492188 16.144531 L 8.433594 16.40625 L 8.386719 16.667969 L 8.359375 16.9375 L 8.339844 17.207031 L 8.335938 17.472656 L 8.339844 17.742188 L 8.359375 18.007812 L 8.386719 18.277344 L 8.433594 18.539062 L 8.492188 18.800781 L 8.5625 19.0625 L 8.644531 19.316406 L 8.734375 19.566406 L 8.847656 19.820312 L 8.96875 20.0625 L 9.101562 20.300781 L 9.25 20.535156 L 9.40625 20.761719 L 9.574219 20.984375 L 9.761719 21.199219 L 9.957031 21.40625 Z M 10.5625 21.417969 L 10.609375 21.464844 L 10.59375 21.484375 L 10.574219 21.5 L 10.558594 21.519531 L 10.539062 21.53125 L 10.492188 21.554688 L 10.472656 21.566406 L 10.425781 21.582031 L 10.402344 21.585938 L 10.378906 21.59375 L 10.355469 21.597656 L 10.332031 21.605469 L 10.308594 21.609375 L 10.214844 21.609375 L 10.191406 21.605469 L 10.167969 21.597656 L 10.144531 21.59375 L 10.121094 21.585938 L 10.097656 21.582031 L 10.050781 21.566406 L 9.980469 21.53125 L 9.964844 21.519531 L 9.910156 21.464844 L 9.957031 21.417969 L 9.976562 21.4375 L 9.992188 21.449219 L 10.011719 21.460938 L 10.027344 21.472656 L 10.046875 21.484375 L 10.0625 21.496094 L 10.082031 21.507812 L 10.097656 21.511719 L 10.117188 21.519531 L 10.132812 21.523438 L 10.152344 21.53125 L 10.167969 21.535156 L 10.183594 21.542969 L 10.3125 21.542969 L 10.335938 21.535156 L 10.355469 21.53125 L 10.371094 21.523438 L 10.390625 21.519531 L 10.40625 21.511719 L 10.425781 21.507812 L 10.441406 21.496094 L 10.460938 21.484375 L 10.492188 21.460938 L 10.511719 21.449219 L 10.527344 21.4375 L 10.546875 21.417969 Z M 10.609375 21.464844 L 10.550781 21.523438 Z M 10.5625 20.820312 L 10.609375 20.773438 L 10.628906 20.789062 L 10.644531 20.808594 L 10.664062 20.824219 L 10.675781 20.84375 L 10.722656 20.9375 L 10.726562 20.960938 L 10.734375 20.984375 L 10.738281 21.003906 L 10.746094 21.027344 L 10.75 21.050781 L 10.757812 21.074219 L 10.757812 21.167969 L 10.75 21.191406 L 10.746094 21.214844 L 10.738281 21.238281 L 10.734375 21.261719 L 10.726562 21.285156 L 10.722656 21.308594 L 10.675781 21.402344 L 10.664062 21.417969 L 10.609375 21.472656 L 10.5625 21.425781 L 10.582031 21.40625 L 10.59375 21.390625 L 10.605469 21.371094 L 10.617188 21.355469 L 10.628906 21.335938 L 10.640625 21.320312 L 10.652344 21.300781 L 10.65625 21.285156 L 10.664062 21.269531 L 10.667969 21.25 L 10.675781 21.234375 L 10.679688 21.214844 L 10.6875 21.191406 L 10.6875 21.0625 L 10.679688 21.039062 L 10.675781 21.023438 L 10.667969 21.003906 L 10.664062 20.988281 L 10.65625 20.972656 L 10.652344 20.953125 L 10.640625 20.9375 L 10.628906 20.917969 L 10.617188 20.902344 L 10.605469 20.882812 L 10.59375 20.867188 L 10.582031 20.847656 L 10.5625 20.832031 Z M 10.5625 14.160156 L 10.609375 14.207031 L 10.449219 14.382812 L 10.296875 14.5625 L 10.152344 14.75 L 10.015625 14.941406 L 9.894531 15.140625 L 9.785156 15.335938 L 9.683594 15.539062 L 9.597656 15.75 L 9.515625 15.960938 L 9.445312 16.175781 L 9.386719 16.390625 L 9.339844 16.613281 L 9.308594 16.832031 L 9.277344 17.054688 L 9.261719 17.273438 L 9.253906 17.496094 L 9.261719 17.71875 L 9.277344 17.9375 L 9.308594 18.160156 L 9.339844 18.378906 L 9.386719 18.601562 L 9.445312 18.816406 L 9.515625 19.03125 L 9.597656 19.242188 L 9.683594 19.453125 L 9.785156 19.65625 L 9.894531 19.851562 L 10.015625 20.050781 L 10.152344 20.242188 L 10.296875 20.429688 L 10.449219 20.609375 L 10.609375 20.785156 L 10.5625 20.832031 L 10.394531 20.65625 L 10.238281 20.476562 L 10.09375 20.289062 L 9.957031 20.097656 L 9.835938 19.898438 L 9.726562 19.695312 L 9.621094 19.488281 L 9.527344 19.277344 L 9.445312 19.0625 L 9.375 18.847656 L 9.316406 18.625 L 9.273438 18.402344 L 9.238281 18.183594 L 9.207031 17.957031 L 9.191406 17.730469 L 9.183594 17.5 L 9.191406 17.273438 L 9.207031 17.046875 L 9.238281 16.820312 L 9.273438 16.601562 L 9.316406 16.378906 L 9.375 16.15625 L 9.445312 15.941406 L 9.527344 15.726562 L 9.621094 15.515625 L 9.726562 15.308594 L 9.835938 15.105469 L 9.957031 14.90625 L 10.09375 14.714844 L 10.238281 14.527344 L 10.394531 14.347656 L 10.5625 14.171875 Z M 10.609375 14.207031 Z M 10.585938 14.183594 L 10.5625 14.160156 Z M 10.609375 14.207031 Z M 10.609375 14.207031 "/>
<path style=" stroke:none;fill-rule:nonzero;fill:rgb(92.941176%,41.176471%,36.078431%);fill-opacity:1;" d="M 18.234375 13.53125 C 18.054688 13.351562 17.761719 13.351562 17.589844 13.53125 C 17.410156 13.714844 17.410156 14.003906 17.589844 14.179688 C 19.410156 16 19.410156 18.96875 17.589844 20.789062 C 17.410156 20.972656 17.410156 21.261719 17.589844 21.4375 C 17.769531 21.617188 18.058594 21.617188 18.234375 21.4375 C 20.417969 19.253906 20.417969 15.710938 18.234375 13.527344 Z M 18.234375 13.53125 "/>
<path style=" stroke:none;fill-rule:nonzero;fill:rgb(92.941176%,41.176471%,36.078431%);fill-opacity:1;" d="M 18.234375 13.53125 C 18.054688 13.351562 17.761719 13.351562 17.589844 13.53125 C 17.410156 13.714844 17.410156 14.003906 17.589844 14.179688 C 19.410156 16 19.410156 18.96875 17.589844 20.789062 C 17.410156 20.972656 17.410156 21.261719 17.589844 21.4375 C 17.769531 21.617188 18.058594 21.617188 18.234375 21.4375 C 20.417969 19.253906 20.417969 15.710938 18.234375 13.527344 Z M 18.234375 13.53125 "/>
<path style=" stroke:none;fill-rule:nonzero;fill:rgb(99.607843%,99.607843%,99.607843%);fill-opacity:1;" d="M 17.605469 13.554688 L 17.558594 13.507812 L 17.578125 13.492188 L 17.59375 13.472656 L 17.613281 13.457031 L 17.628906 13.445312 L 17.722656 13.398438 L 17.746094 13.394531 L 17.769531 13.386719 L 17.792969 13.382812 L 17.816406 13.375 L 17.839844 13.371094 L 17.863281 13.363281 L 17.957031 13.363281 L 17.980469 13.371094 L 18.003906 13.375 L 18.027344 13.382812 L 18.046875 13.386719 L 18.070312 13.394531 L 18.09375 13.398438 L 18.1875 13.445312 L 18.207031 13.457031 L 18.257812 13.507812 L 18.210938 13.554688 L 18.195312 13.539062 L 18.175781 13.527344 L 18.160156 13.515625 L 18.140625 13.503906 L 18.125 13.492188 L 18.105469 13.480469 L 18.089844 13.46875 L 18.070312 13.460938 L 18.054688 13.457031 L 18.035156 13.449219 L 18.019531 13.445312 L 18.003906 13.4375 L 17.980469 13.433594 L 17.851562 13.433594 L 17.828125 13.4375 L 17.808594 13.445312 L 17.792969 13.449219 L 17.773438 13.457031 L 17.757812 13.460938 L 17.742188 13.46875 L 17.722656 13.480469 L 17.707031 13.492188 L 17.6875 13.503906 L 17.671875 13.515625 L 17.652344 13.527344 L 17.636719 13.539062 L 17.617188 13.554688 Z M 17.605469 13.554688 L 17.519531 13.644531 Z M 17.605469 14.160156 L 17.558594 14.207031 L 17.507812 14.15625 L 17.449219 14.039062 L 17.445312 14.015625 L 17.4375 13.992188 L 17.433594 13.96875 L 17.425781 13.945312 L 17.421875 13.921875 L 17.414062 13.898438 L 17.414062 13.804688 L 17.421875 13.78125 L 17.425781 13.757812 L 17.433594 13.734375 L 17.4375 13.714844 L 17.445312 13.691406 L 17.449219 13.667969 L 17.496094 13.574219 L 17.507812 13.554688 L 17.558594 13.503906 L 17.605469 13.550781 L 17.589844 13.566406 L 17.578125 13.585938 L 17.566406 13.601562 L 17.554688 13.621094 L 17.542969 13.636719 L 17.53125 13.65625 L 17.519531 13.671875 L 17.511719 13.691406 L 17.507812 13.707031 L 17.5 13.722656 L 17.496094 13.742188 L 17.488281 13.757812 L 17.484375 13.78125 L 17.484375 13.910156 L 17.488281 13.929688 L 17.496094 13.945312 L 17.5 13.964844 L 17.507812 13.980469 L 17.511719 14 L 17.519531 14.015625 L 17.53125 14.03125 L 17.542969 14.050781 L 17.554688 14.066406 L 17.566406 14.085938 L 17.578125 14.101562 L 17.589844 14.121094 L 17.605469 14.136719 Z M 17.605469 20.820312 L 17.558594 20.773438 L 17.722656 20.597656 L 17.875 20.417969 L 18.019531 20.230469 L 18.152344 20.039062 L 18.277344 19.839844 L 18.386719 19.644531 L 18.484375 19.441406 L 18.574219 19.230469 L 18.652344 19.019531 L 18.722656 18.804688 L 18.78125 18.589844 L 18.828125 18.371094 L 18.863281 18.148438 L 18.894531 17.925781 L 18.910156 17.707031 L 18.914062 17.484375 L 18.910156 17.261719 L 18.894531 17.042969 L 18.863281 16.820312 L 18.828125 16.601562 L 18.78125 16.378906 L 18.722656 16.164062 L 18.652344 15.949219 L 18.574219 15.738281 L 18.484375 15.527344 L 18.386719 15.324219 L 18.277344 15.128906 L 18.152344 14.929688 L 18.019531 14.738281 L 17.875 14.550781 L 17.722656 14.371094 L 17.558594 14.195312 L 17.605469 14.148438 L 17.773438 14.324219 L 17.933594 14.503906 L 18.078125 14.691406 L 18.210938 14.882812 L 18.332031 15.082031 L 18.445312 15.285156 L 18.542969 15.492188 L 18.636719 15.703125 L 18.71875 15.917969 L 18.789062 16.132812 L 18.847656 16.355469 L 18.894531 16.578125 L 18.925781 16.796875 L 18.957031 17.023438 L 18.972656 17.25 L 18.980469 17.480469 L 18.972656 17.707031 L 18.957031 17.933594 L 18.925781 18.160156 L 18.894531 18.378906 L 18.847656 18.601562 L 18.789062 18.824219 L 18.71875 19.039062 L 18.636719 19.253906 L 18.542969 19.464844 L 18.445312 19.671875 L 18.332031 19.875 L 18.210938 20.074219 L 18.078125 20.265625 L 17.933594 20.453125 L 17.773438 20.632812 L 17.605469 20.808594 Z M 17.605469 20.820312 L 17.53125 20.894531 Z M 17.605469 21.425781 L 17.558594 21.472656 L 17.542969 21.453125 L 17.523438 21.4375 L 17.507812 21.417969 L 17.496094 21.402344 L 17.449219 21.308594 L 17.445312 21.285156 L 17.4375 21.261719 L 17.433594 21.238281 L 17.425781 21.214844 L 17.421875 21.191406 L 17.414062 21.167969 L 17.414062 21.074219 L 17.421875 21.050781 L 17.425781 21.027344 L 17.433594 21.003906 L 17.4375 20.984375 L 17.445312 20.960938 L 17.449219 20.9375 L 17.496094 20.84375 L 17.507812 20.824219 L 17.558594 20.773438 L 17.605469 20.820312 L 17.589844 20.835938 L 17.578125 20.855469 L 17.566406 20.871094 L 17.554688 20.890625 L 17.542969 20.90625 L 17.53125 20.925781 L 17.519531 20.941406 L 17.511719 20.960938 L 17.507812 20.976562 L 17.5 20.992188 L 17.496094 21.011719 L 17.488281 21.027344 L 17.484375 21.050781 L 17.484375 21.179688 L 17.488281 21.203125 L 17.496094 21.222656 L 17.5 21.238281 L 17.507812 21.257812 L 17.511719 21.273438 L 17.519531 21.289062 L 17.53125 21.308594 L 17.542969 21.324219 L 17.554688 21.34375 L 17.566406 21.359375 L 17.578125 21.378906 L 17.589844 21.394531 L 17.605469 21.414062 Z M 17.605469 21.425781 L 17.546875 21.367188 Z M 18.210938 21.425781 L 18.257812 21.472656 L 18.207031 21.523438 L 18.1875 21.535156 L 18.09375 21.582031 L 18.070312 21.585938 L 18.046875 21.59375 L 18.027344 21.597656 L 18.003906 21.605469 L 17.980469 21.609375 L 17.957031 21.617188 L 17.863281 21.617188 L 17.839844 21.609375 L 17.816406 21.605469 L 17.792969 21.597656 L 17.769531 21.59375 L 17.746094 21.585938 L 17.722656 21.582031 L 17.628906 21.535156 L 17.613281 21.523438 L 17.59375 21.507812 L 17.578125 21.488281 L 17.558594 21.472656 L 17.605469 21.425781 L 17.625 21.441406 L 17.640625 21.453125 L 17.660156 21.464844 L 17.675781 21.476562 L 17.695312 21.488281 L 17.710938 21.5 L 17.730469 21.511719 L 17.746094 21.519531 L 17.761719 21.523438 L 17.78125 21.53125 L 17.796875 21.535156 L 17.816406 21.542969 L 17.839844 21.546875 L 17.96875 21.546875 L 17.992188 21.542969 L 18.007812 21.535156 L 18.027344 21.53125 L 18.042969 21.523438 L 18.058594 21.519531 L 18.078125 21.511719 L 18.09375 21.5 L 18.113281 21.488281 L 18.128906 21.476562 L 18.148438 21.464844 L 18.164062 21.453125 L 18.183594 21.441406 L 18.199219 21.425781 Z M 18.210938 13.5625 L 18.257812 13.515625 L 18.457031 13.722656 L 18.640625 13.941406 L 18.816406 14.167969 L 18.980469 14.398438 L 19.125 14.636719 L 19.257812 14.882812 L 19.382812 15.132812 L 19.492188 15.382812 L 19.589844 15.640625 L 19.671875 15.902344 L 19.742188 16.164062 L 19.800781 16.429688 L 19.847656 16.699219 L 19.882812 16.964844 L 19.898438 17.234375 L 19.90625 17.5 L 19.898438 17.769531 L 19.882812 18.039062 L 19.847656 18.304688 L 19.800781 18.574219 L 19.742188 18.839844 L 19.671875 19.101562 L 19.589844 19.363281 L 19.492188 19.621094 L 19.382812 19.871094 L 19.257812 20.121094 L 19.125 20.367188 L 18.980469 20.605469 L 18.816406 20.835938 L 18.640625 21.0625 L 18.457031 21.277344 L 18.257812 21.488281 L 18.210938 21.441406 L 18.410156 21.234375 L 18.597656 21.015625 L 18.765625 20.796875 L 18.921875 20.570312 L 19.066406 20.335938 L 19.199219 20.097656 L 19.324219 19.851562 L 19.433594 19.601562 L 19.527344 19.351562 L 19.609375 19.097656 L 19.679688 18.835938 L 19.738281 18.574219 L 19.78125 18.3125 L 19.8125 18.042969 L 19.828125 17.777344 L 19.835938 17.507812 L 19.828125 17.238281 L 19.8125 16.972656 L 19.78125 16.703125 L 19.738281 16.441406 L 19.679688 16.179688 L 19.609375 15.917969 L 19.527344 15.664062 L 19.433594 15.414062 L 19.324219 15.164062 L 19.199219 14.917969 L 19.066406 14.679688 L 18.921875 14.445312 L 18.765625 14.21875 L 18.597656 14 L 18.410156 13.78125 L 18.210938 13.574219 Z M 18.210938 13.5625 "/>
<path style=" stroke:none;fill-rule:nonzero;fill:rgb(92.941176%,41.176471%,36.078431%);fill-opacity:1;" d="M 9.195312 12.800781 C 9.375 12.617188 9.375 12.328125 9.195312 12.152344 C 9.015625 11.972656 8.726562 11.972656 8.550781 12.152344 C 5.496094 15.207031 5.5 19.777344 8.550781 22.828125 C 8.730469 23.007812 9.019531 23.007812 9.195312 22.828125 C 9.375 22.648438 9.375 22.355469 9.195312 22.179688 C 6.523438 19.511719 6.523438 15.476562 9.195312 12.804688 Z M 9.195312 12.800781 "/>
<path style=" stroke:none;fill-rule:nonzero;fill:rgb(92.941176%,41.176471%,36.078431%);fill-opacity:1;" d="M 9.195312 12.800781 C 9.375 12.617188 9.375 12.328125 9.195312 12.152344 C 9.015625 11.972656 8.726562 11.972656 8.550781 12.152344 C 5.496094 15.207031 5.5 19.777344 8.550781 22.828125 C 8.730469 23.007812 9.019531 23.007812 9.195312 22.828125 C 9.375 22.648438 9.375 22.355469 9.195312 22.179688 C 6.523438 19.511719 6.523438 15.476562 9.195312 12.804688 Z M 9.195312 12.800781 "/>
<path style=" stroke:none;fill-rule:nonzero;fill:rgb(99.607843%,99.607843%,99.607843%);fill-opacity:1;" d="M 9.171875 12.175781 L 9.21875 12.128906 L 9.273438 12.183594 L 9.308594 12.253906 L 9.316406 12.273438 L 9.328125 12.296875 L 9.335938 12.320312 L 9.339844 12.34375 L 9.347656 12.367188 L 9.351562 12.390625 L 9.359375 12.414062 L 9.363281 12.4375 L 9.363281 12.53125 L 9.359375 12.554688 L 9.351562 12.578125 L 9.347656 12.601562 L 9.339844 12.625 L 9.335938 12.648438 L 9.328125 12.671875 L 9.316406 12.695312 L 9.308594 12.71875 L 9.285156 12.765625 L 9.273438 12.78125 L 9.21875 12.835938 L 9.171875 12.789062 L 9.191406 12.769531 L 9.203125 12.753906 L 9.214844 12.734375 L 9.226562 12.71875 L 9.238281 12.699219 L 9.25 12.683594 L 9.261719 12.664062 L 9.265625 12.648438 L 9.273438 12.628906 L 9.277344 12.613281 L 9.285156 12.59375 L 9.289062 12.578125 L 9.296875 12.554688 L 9.296875 12.425781 L 9.289062 12.410156 L 9.285156 12.390625 L 9.277344 12.375 L 9.273438 12.355469 L 9.265625 12.339844 L 9.261719 12.320312 L 9.25 12.304688 L 9.238281 12.285156 L 9.214844 12.253906 L 9.203125 12.234375 L 9.191406 12.21875 L 9.171875 12.199219 Z M 9.21875 12.128906 L 9.308594 12.21875 Z M 8.574219 12.175781 L 8.527344 12.128906 L 8.578125 12.078125 L 8.695312 12.019531 L 8.71875 12.011719 L 8.742188 12.007812 L 8.765625 12 L 8.789062 11.996094 L 8.8125 11.988281 L 8.835938 11.984375 L 8.929688 11.984375 L 8.953125 11.988281 L 8.976562 11.996094 L 9 12 L 9.019531 12.007812 L 9.042969 12.011719 L 9.066406 12.019531 L 9.160156 12.066406 L 9.179688 12.078125 L 9.230469 12.128906 L 9.183594 12.175781 L 9.167969 12.160156 L 9.148438 12.148438 L 9.132812 12.136719 L 9.113281 12.125 L 9.097656 12.113281 L 9.078125 12.101562 L 9.0625 12.089844 L 9.042969 12.082031 L 9.027344 12.078125 L 9.011719 12.070312 L 8.992188 12.066406 L 8.976562 12.058594 L 8.953125 12.054688 L 8.824219 12.054688 L 8.804688 12.058594 L 8.789062 12.066406 L 8.769531 12.070312 L 8.753906 12.078125 L 8.734375 12.082031 L 8.71875 12.089844 L 8.703125 12.101562 L 8.683594 12.113281 L 8.667969 12.125 L 8.648438 12.136719 L 8.632812 12.148438 L 8.613281 12.160156 L 8.597656 12.175781 Z M 8.527344 12.128906 L 8.613281 12.042969 Z M 8.574219 22.804688 L 8.527344 22.851562 L 8.246094 22.558594 L 7.984375 22.261719 L 7.742188 21.953125 L 7.515625 21.640625 L 7.308594 21.320312 L 7.125 20.992188 L 6.957031 20.664062 L 6.804688 20.324219 L 6.671875 19.980469 L 6.554688 19.632812 L 6.453125 19.28125 L 6.375 18.929688 L 6.308594 18.574219 L 6.261719 18.21875 L 6.234375 17.855469 L 6.222656 17.496094 L 6.234375 17.136719 L 6.261719 16.773438 L 6.308594 16.417969 L 6.375 16.0625 L 6.453125 15.710938 L 6.554688 15.359375 L 6.671875 15.011719 L 6.804688 14.667969 L 6.957031 14.328125 L 7.125 14 L 7.308594 13.671875 L 7.515625 13.351562 L 7.742188 13.039062 L 7.984375 12.730469 L 8.246094 12.425781 L 8.527344 12.136719 L 8.574219 12.183594 L 8.300781 12.472656 L 8.042969 12.769531 L 7.804688 13.074219 L 7.582031 13.386719 L 7.378906 13.707031 L 7.195312 14.03125 L 7.023438 14.363281 L 6.875 14.703125 L 6.738281 15.046875 L 6.625 15.390625 L 6.523438 15.738281 L 6.441406 16.085938 L 6.378906 16.441406 L 6.332031 16.796875 L 6.304688 17.152344 L 6.292969 17.507812 L 6.304688 17.863281 L 6.332031 18.21875 L 6.378906 18.574219 L 6.441406 18.921875 L 6.523438 19.269531 L 6.625 19.621094 L 6.738281 19.964844 L 6.875 20.300781 L 7.023438 20.640625 L 7.195312 20.972656 L 7.378906 21.296875 L 7.582031 21.617188 L 7.804688 21.929688 L 8.042969 22.234375 L 8.300781 22.53125 L 8.574219 22.820312 Z M 9.179688 22.804688 L 9.226562 22.851562 L 9.207031 22.867188 L 9.191406 22.886719 L 9.171875 22.902344 L 9.15625 22.914062 L 9.0625 22.960938 L 9.039062 22.96875 L 9.015625 22.972656 L 8.992188 22.980469 L 8.96875 22.984375 L 8.945312 22.992188 L 8.921875 22.996094 L 8.828125 22.996094 L 8.804688 22.992188 L 8.78125 22.984375 L 8.757812 22.980469 L 8.734375 22.972656 L 8.714844 22.96875 L 8.691406 22.960938 L 8.597656 22.914062 L 8.578125 22.902344 L 8.527344 22.851562 L 8.574219 22.804688 L 8.589844 22.820312 L 8.609375 22.832031 L 8.625 22.84375 L 8.644531 22.855469 L 8.660156 22.867188 L 8.679688 22.878906 L 8.695312 22.890625 L 8.714844 22.898438 L 8.730469 22.902344 L 8.746094 22.910156 L 8.765625 22.914062 L 8.78125 22.921875 L 8.804688 22.925781 L 8.933594 22.925781 L 8.957031 22.921875 L 8.976562 22.914062 L 8.992188 22.910156 L 9.011719 22.902344 L 9.027344 22.898438 L 9.042969 22.890625 L 9.0625 22.878906 L 9.078125 22.867188 L 9.097656 22.855469 L 9.113281 22.84375 L 9.132812 22.832031 L 9.148438 22.820312 L 9.167969 22.804688 Z M 9.179688 22.199219 L 9.226562 22.152344 L 9.277344 22.203125 L 9.289062 22.222656 L 9.335938 22.316406 L 9.339844 22.339844 L 9.347656 22.363281 L 9.351562 22.386719 L 9.359375 22.410156 L 9.363281 22.433594 L 9.371094 22.453125 L 9.371094 22.546875 L 9.363281 22.570312 L 9.359375 22.59375 L 9.351562 22.617188 L 9.347656 22.640625 L 9.339844 22.664062 L 9.335938 22.6875 L 9.289062 22.78125 L 9.277344 22.796875 L 9.261719 22.816406 L 9.242188 22.832031 L 9.226562 22.851562 L 9.179688 22.804688 L 9.195312 22.785156 L 9.207031 22.769531 L 9.21875 22.75 L 9.242188 22.71875 L 9.253906 22.699219 L 9.265625 22.683594 L 9.273438 22.664062 L 9.277344 22.648438 L 9.285156 22.628906 L 9.289062 22.613281 L 9.296875 22.59375 L 9.300781 22.570312 L 9.300781 22.441406 L 9.296875 22.421875 L 9.289062 22.402344 L 9.285156 22.386719 L 9.277344 22.367188 L 9.273438 22.351562 L 9.265625 22.332031 L 9.253906 22.316406 L 9.242188 22.296875 L 9.230469 22.28125 L 9.21875 22.261719 L 9.207031 22.246094 L 9.195312 22.226562 L 9.179688 22.210938 Z M 9.179688 12.777344 L 9.226562 12.824219 L 8.980469 13.078125 L 8.753906 13.339844 L 8.542969 13.609375 L 8.351562 13.882812 L 8.171875 14.160156 L 8.007812 14.445312 L 7.863281 14.738281 L 7.730469 15.035156 L 7.613281 15.332031 L 7.515625 15.632812 L 7.425781 15.9375 L 7.355469 16.246094 L 7.304688 16.554688 L 7.265625 16.863281 L 7.242188 17.175781 L 7.234375 17.492188 L 7.242188 17.804688 L 7.265625 18.117188 L 7.304688 18.425781 L 7.355469 18.734375 L 7.425781 19.042969 L 7.515625 19.347656 L 7.613281 19.648438 L 7.730469 19.945312 L 7.863281 20.242188 L 8.007812 20.535156 L 8.171875 20.820312 L 8.351562 21.097656 L 8.542969 21.371094 L 8.753906 21.640625 L 8.980469 21.902344 L 9.226562 22.15625 L 9.179688 22.203125 L 8.933594 21.949219 L 8.707031 21.6875 L 8.492188 21.417969 L 8.292969 21.140625 L 8.113281 20.855469 L 7.949219 20.5625 L 7.800781 20.273438 L 7.664062 19.976562 L 7.550781 19.671875 L 7.445312 19.371094 L 7.355469 19.0625 L 7.285156 18.753906 L 7.234375 18.4375 L 7.195312 18.125 L 7.171875 17.808594 L 7.164062 17.496094 L 7.171875 17.183594 L 7.195312 16.867188 L 7.234375 16.554688 L 7.285156 16.238281 L 7.355469 15.929688 L 7.445312 15.621094 L 7.550781 15.320312 L 7.664062 15.015625 L 7.800781 14.71875 L 7.949219 14.429688 L 8.113281 14.136719 L 8.292969 13.851562 L 8.492188 13.574219 L 8.707031 13.304688 L 8.933594 13.042969 L 9.179688 12.789062 Z M 9.203125 12.800781 L 9.179688 12.777344 Z M 9.203125 12.800781 "/>
<path style=" stroke:none;fill-rule:nonzero;fill:rgb(92.941176%,41.176471%,36.078431%);fill-opacity:1;" d="M 19.613281 12.152344 C 19.433594 11.972656 19.144531 11.972656 18.96875 12.152344 C 18.789062 12.332031 18.789062 12.625 18.96875 12.800781 C 21.640625 15.46875 21.640625 19.503906 18.96875 22.175781 C 18.789062 22.355469 18.789062 22.648438 18.96875 22.820312 C 19.148438 23.003906 19.441406 23.003906 19.613281 22.820312 C 22.671875 19.765625 22.664062 15.195312 19.613281 12.148438 Z M 19.613281 12.152344 "/>
<path style=" stroke:none;fill-rule:nonzero;fill:rgb(92.941176%,41.176471%,36.078431%);fill-opacity:1;" d="M 19.613281 12.152344 C 19.433594 11.972656 19.144531 11.972656 18.96875 12.152344 C 18.789062 12.332031 18.789062 12.625 18.96875 12.800781 C 21.640625 15.46875 21.640625 19.503906 18.96875 22.175781 C 18.789062 22.355469 18.789062 22.648438 18.96875 22.820312 C 19.148438 23.003906 19.441406 23.003906 19.613281 22.820312 C 22.671875 19.765625 22.664062 15.195312 19.613281 12.148438 Z M 19.613281 12.152344 "/>
<path style=" stroke:none;fill-rule:nonzero;fill:rgb(99.607843%,99.607843%,99.607843%);fill-opacity:1;" d="M 18.992188 12.175781 L 18.945312 12.128906 L 18.996094 12.078125 L 19.015625 12.066406 L 19.109375 12.019531 L 19.132812 12.011719 L 19.15625 12.007812 L 19.179688 12 L 19.199219 11.996094 L 19.222656 11.988281 L 19.246094 11.984375 L 19.339844 11.984375 L 19.363281 11.988281 L 19.386719 11.996094 L 19.410156 12 L 19.433594 12.007812 L 19.457031 12.011719 L 19.480469 12.019531 L 19.574219 12.066406 L 19.589844 12.078125 L 19.609375 12.09375 L 19.625 12.113281 L 19.644531 12.128906 L 19.597656 12.175781 L 19.578125 12.160156 L 19.5625 12.148438 L 19.542969 12.136719 L 19.527344 12.125 L 19.507812 12.113281 L 19.476562 12.089844 L 19.457031 12.082031 L 19.441406 12.078125 L 19.421875 12.070312 L 19.40625 12.066406 L 19.386719 12.058594 L 19.363281 12.054688 L 19.234375 12.054688 L 19.210938 12.058594 L 19.195312 12.066406 L 19.179688 12.070312 L 19.160156 12.078125 L 19.144531 12.082031 L 19.125 12.089844 L 19.109375 12.101562 L 19.089844 12.113281 L 19.074219 12.125 L 19.054688 12.136719 L 19.039062 12.148438 L 19.019531 12.160156 L 19.003906 12.175781 Z M 18.992188 12.175781 Z M 18.992188 12.78125 L 18.945312 12.828125 L 18.925781 12.8125 L 18.910156 12.792969 L 18.894531 12.777344 L 18.882812 12.757812 L 18.835938 12.664062 L 18.828125 12.640625 L 18.824219 12.617188 L 18.816406 12.59375 L 18.8125 12.570312 L 18.804688 12.550781 L 18.800781 12.527344 L 18.800781 12.433594 L 18.804688 12.410156 L 18.8125 12.386719 L 18.816406 12.363281 L 18.824219 12.339844 L 18.828125 12.316406 L 18.835938 12.292969 L 18.882812 12.199219 L 18.894531 12.183594 L 18.910156 12.164062 L 18.945312 12.128906 L 18.992188 12.175781 L 18.972656 12.195312 L 18.960938 12.210938 L 18.949219 12.230469 L 18.925781 12.261719 L 18.914062 12.28125 L 18.90625 12.296875 L 18.898438 12.316406 L 18.894531 12.332031 L 18.886719 12.351562 L 18.882812 12.367188 L 18.875 12.386719 L 18.871094 12.402344 L 18.871094 12.53125 L 18.875 12.550781 L 18.882812 12.566406 L 18.886719 12.582031 L 18.894531 12.601562 L 18.898438 12.617188 L 18.90625 12.636719 L 18.914062 12.652344 L 18.925781 12.671875 L 18.9375 12.6875 L 18.949219 12.707031 L 18.960938 12.722656 L 18.972656 12.742188 L 18.992188 12.757812 Z M 18.992188 22.203125 L 18.945312 22.15625 L 19.191406 21.902344 L 19.417969 21.640625 L 19.625 21.371094 L 19.816406 21.097656 L 20 20.820312 L 20.160156 20.535156 L 20.308594 20.242188 L 20.441406 19.945312 L 20.558594 19.648438 L 20.65625 19.347656 L 20.742188 19.042969 L 20.8125 18.734375 L 20.867188 18.425781 L 20.90625 18.117188 L 20.929688 17.804688 L 20.9375 17.492188 L 20.929688 17.175781 L 20.90625 16.863281 L 20.867188 16.554688 L 20.8125 16.246094 L 20.742188 15.9375 L 20.65625 15.632812 L 20.558594 15.332031 L 20.441406 15.035156 L 20.308594 14.738281 L 20.160156 14.445312 L 20 14.160156 L 19.816406 13.882812 L 19.625 13.609375 L 19.417969 13.339844 L 19.191406 13.078125 L 18.945312 12.824219 L 18.992188 12.777344 L 19.234375 13.03125 L 19.464844 13.292969 L 19.679688 13.5625 L 19.875 13.839844 L 20.058594 14.125 L 20.21875 14.417969 L 20.371094 14.707031 L 20.503906 15.003906 L 20.621094 15.308594 L 20.726562 15.609375 L 20.8125 15.917969 L 20.882812 16.226562 L 20.9375 16.542969 L 20.976562 16.855469 L 21 17.171875 L 21.003906 17.484375 L 21 17.796875 L 20.976562 18.113281 L 20.9375 18.425781 L 20.882812 18.742188 L 20.8125 19.050781 L 20.726562 19.359375 L 20.621094 19.660156 L 20.503906 19.964844 L 20.371094 20.261719 L 20.21875 20.550781 L 20.058594 20.84375 L 19.875 21.128906 L 19.679688 21.40625 L 19.464844 21.675781 L 19.234375 21.9375 L 18.992188 22.191406 Z M 18.992188 22.203125 L 18.90625 22.292969 Z M 18.992188 22.808594 L 18.945312 22.855469 L 18.925781 22.839844 L 18.910156 22.820312 L 18.894531 22.804688 L 18.882812 22.785156 L 18.859375 22.738281 L 18.847656 22.71875 L 18.835938 22.695312 L 18.828125 22.671875 L 18.824219 22.648438 L 18.816406 22.625 L 18.8125 22.601562 L 18.804688 22.578125 L 18.800781 22.554688 L 18.800781 22.460938 L 18.804688 22.4375 L 18.8125 22.414062 L 18.816406 22.390625 L 18.824219 22.367188 L 18.828125 22.34375 L 18.835938 22.320312 L 18.882812 22.226562 L 18.894531 22.210938 L 18.910156 22.191406 L 18.945312 22.15625 L 18.992188 22.203125 L 18.972656 22.222656 L 18.960938 22.238281 L 18.949219 22.257812 L 18.9375 22.273438 L 18.925781 22.292969 L 18.914062 22.308594 L 18.90625 22.328125 L 18.898438 22.34375 L 18.894531 22.363281 L 18.886719 22.378906 L 18.882812 22.398438 L 18.875 22.414062 L 18.871094 22.4375 L 18.871094 22.570312 L 18.875 22.59375 L 18.882812 22.613281 L 18.886719 22.628906 L 18.894531 22.648438 L 18.898438 22.664062 L 18.90625 22.683594 L 18.914062 22.699219 L 18.925781 22.71875 L 18.949219 22.75 L 18.960938 22.769531 L 18.972656 22.785156 L 18.992188 22.804688 Z M 18.992188 22.808594 L 18.933594 22.75 Z M 19.597656 22.808594 L 19.644531 22.855469 L 19.589844 22.910156 L 19.574219 22.921875 L 19.480469 22.96875 L 19.457031 22.972656 L 19.433594 22.980469 L 19.410156 22.984375 L 19.386719 22.992188 L 19.363281 22.996094 L 19.339844 23.003906 L 19.246094 23.003906 L 19.222656 22.996094 L 19.199219 22.992188 L 19.179688 22.984375 L 19.15625 22.980469 L 19.132812 22.972656 L 19.109375 22.96875 L 19.015625 22.921875 L 18.996094 22.910156 L 18.980469 22.890625 L 18.960938 22.875 L 18.945312 22.855469 L 18.992188 22.808594 L 19.007812 22.828125 L 19.027344 22.839844 L 19.042969 22.851562 L 19.0625 22.863281 L 19.078125 22.875 L 19.097656 22.886719 L 19.113281 22.898438 L 19.132812 22.902344 L 19.148438 22.910156 L 19.167969 22.914062 L 19.183594 22.921875 L 19.199219 22.925781 L 19.222656 22.933594 L 19.351562 22.933594 L 19.375 22.925781 L 19.394531 22.921875 L 19.410156 22.914062 L 19.429688 22.910156 L 19.445312 22.902344 L 19.464844 22.898438 L 19.496094 22.875 L 19.515625 22.863281 L 19.53125 22.851562 L 19.550781 22.839844 L 19.566406 22.828125 L 19.585938 22.808594 Z M 19.597656 12.183594 L 19.644531 12.136719 L 19.921875 12.425781 L 20.183594 12.722656 L 20.429688 13.03125 L 20.65625 13.347656 L 20.859375 13.667969 L 21.046875 13.992188 L 21.214844 14.324219 L 21.367188 14.660156 L 21.5 15.003906 L 21.617188 15.355469 L 21.714844 15.703125 L 21.796875 16.058594 L 21.859375 16.414062 L 21.90625 16.769531 L 21.9375 17.128906 L 21.949219 17.492188 L 21.9375 17.851562 L 21.90625 18.210938 L 21.859375 18.566406 L 21.796875 18.921875 L 21.714844 19.277344 L 21.617188 19.625 L 21.5 19.976562 L 21.367188 20.320312 L 21.214844 20.65625 L 21.046875 20.988281 L 20.859375 21.3125 L 20.65625 21.632812 L 20.429688 21.949219 L 20.183594 22.257812 L 19.921875 22.558594 L 19.644531 22.851562 L 19.597656 22.804688 L 19.871094 22.511719 L 20.125 22.214844 L 20.363281 21.914062 L 20.585938 21.597656 L 20.789062 21.277344 L 20.976562 20.953125 L 21.144531 20.621094 L 21.296875 20.285156 L 21.429688 19.941406 L 21.546875 19.597656 L 21.644531 19.246094 L 21.726562 18.898438 L 21.792969 18.542969 L 21.835938 18.1875 L 21.867188 17.832031 L 21.878906 17.480469 L 21.867188 17.125 L 21.835938 16.769531 L 21.792969 16.414062 L 21.726562 16.0625 L 21.644531 15.714844 L 21.546875 15.367188 L 21.429688 15.023438 L 21.296875 14.683594 L 21.144531 14.347656 L 20.976562 14.015625 L 20.789062 13.691406 L 20.585938 13.371094 L 20.363281 13.054688 L 20.125 12.753906 L 19.871094 12.457031 L 19.597656 12.164062 Z M 19.621094 12.160156 L 19.597656 12.183594 Z M 19.621094 12.160156 "/>
</g>
</svg>
