<?xml version="1.0" encoding="UTF-8"?>
<svg xmlns="http://www.w3.org/2000/svg" xmlns:xlink="http://www.w3.org/1999/xlink" width="28px" height="28px" viewBox="0 0 28 28" version="1.1">
<g id="surface1">
<path style=" stroke:none;fill-rule:nonzero;fill:rgb(92.941176%,41.176471%,36.078431%);fill-opacity:1;" d="M 14.082031 3.914062 C 14.234375 3.914062 14.378906 3.957031 14.507812 4.039062 L 26.601562 11.863281 L 26.601562 9.816406 L 14.082031 1.71875 L 1.566406 9.816406 L 1.566406 11.863281 L 13.660156 4.039062 C 13.785156 3.957031 13.933594 3.914062 14.082031 3.914062 Z M 27.382812 14.082031 C 27.230469 14.082031 27.085938 14.042969 26.960938 13.957031 L 14.085938 5.628906 L 1.210938 13.957031 C 0.972656 14.113281 0.664062 14.125 0.414062 13.992188 C 0.160156 13.851562 0.00390625 13.589844 0.00390625 13.304688 L 0.00390625 9.394531 C 0.00390625 9.128906 0.136719 8.878906 0.363281 8.738281 L 13.664062 0.132812 C 13.921875 -0.0351562 14.257812 -0.0351562 14.515625 0.132812 L 27.816406 8.738281 C 28.039062 8.878906 28.171875 9.128906 28.171875 9.394531 L 28.171875 13.304688 C 28.171875 13.738281 27.824219 14.085938 27.394531 14.085938 Z M 27.382812 14.082031 "/>
<path style=" stroke:none;fill-rule:nonzero;fill:rgb(92.941176%,41.176471%,36.078431%);fill-opacity:1;" d="M 25.816406 28.164062 L 11.734375 28.164062 L 11.734375 26.597656 L 25.039062 26.597656 L 25.039062 11.734375 L 26.601562 11.734375 L 26.601562 27.382812 C 26.601562 27.816406 26.253906 28.164062 25.824219 28.164062 Z M 25.816406 28.164062 "/>
<path style=" stroke:none;fill-rule:nonzero;fill:rgb(92.941176%,41.176471%,36.078431%);fill-opacity:1;" d="M 2.347656 28.164062 C 1.914062 28.164062 1.566406 27.816406 1.566406 27.382812 L 1.566406 11.734375 L 3.132812 11.734375 L 3.132812 26.597656 L 16.433594 26.597656 L 16.433594 28.164062 Z M 2.347656 28.164062 "/>
<path style=" stroke:none;fill-rule:nonzero;fill:rgb(92.941176%,41.176471%,36.078431%);fill-opacity:1;" d="M 11.023438 11.957031 C 11.261719 11.832031 11.558594 11.925781 11.683594 12.164062 C 11.808594 12.402344 11.71875 12.695312 11.480469 12.824219 Z M 8.453125 17.820312 L 7.476562 17.820312 L 7.480469 17.582031 L 7.492188 17.347656 L 7.515625 17.113281 L 7.542969 16.882812 L 7.582031 16.652344 L 7.625 16.429688 L 7.675781 16.203125 L 7.738281 15.984375 L 7.804688 15.769531 L 7.878906 15.550781 L 7.960938 15.339844 L 8.050781 15.132812 L 8.144531 14.933594 L 8.246094 14.734375 L 8.351562 14.535156 L 8.464844 14.34375 L 8.585938 14.15625 L 8.710938 13.972656 L 8.84375 13.792969 L 8.980469 13.617188 L 9.125 13.449219 L 9.269531 13.285156 L 9.421875 13.121094 L 9.582031 12.972656 L 9.746094 12.824219 L 9.917969 12.683594 L 10.09375 12.542969 L 10.269531 12.410156 L 10.453125 12.289062 L 10.644531 12.167969 L 10.835938 12.054688 L 11.035156 11.949219 L 11.488281 12.816406 L 11.324219 12.90625 L 11.15625 13.003906 L 10.996094 13.105469 L 10.839844 13.210938 L 10.6875 13.320312 L 10.542969 13.433594 L 10.394531 13.558594 L 10.113281 13.816406 L 9.980469 13.953125 L 9.851562 14.089844 L 9.730469 14.234375 L 9.609375 14.382812 L 9.496094 14.53125 L 9.390625 14.6875 L 9.289062 14.847656 L 9.191406 15.015625 L 9.101562 15.179688 L 9.011719 15.351562 L 8.929688 15.523438 L 8.855469 15.699219 L 8.789062 15.878906 L 8.722656 16.0625 L 8.667969 16.246094 L 8.617188 16.433594 L 8.574219 16.621094 L 8.535156 16.816406 L 8.503906 17.007812 L 8.480469 17.203125 L 8.460938 17.402344 L 8.453125 17.605469 L 8.449219 17.804688 Z M 14.085938 23.453125 L 14.085938 24.433594 L 13.746094 24.421875 L 13.410156 24.394531 L 13.082031 24.355469 L 12.753906 24.292969 L 12.433594 24.21875 L 12.121094 24.132812 L 11.8125 24.027344 L 11.515625 23.910156 L 11.222656 23.773438 L 10.9375 23.628906 L 10.660156 23.46875 L 10.394531 23.296875 L 10.136719 23.113281 L 9.890625 22.917969 L 9.652344 22.710938 L 9.421875 22.488281 L 9.203125 22.261719 L 8.996094 22.019531 L 8.796875 21.773438 L 8.613281 21.515625 L 8.445312 21.25 L 8.28125 20.972656 L 8.136719 20.691406 L 8.003906 20.394531 L 7.882812 20.097656 L 7.777344 19.789062 L 7.691406 19.476562 L 7.617188 19.15625 L 7.558594 18.832031 L 7.515625 18.5 L 7.488281 18.164062 L 7.480469 17.824219 L 8.457031 17.824219 L 8.464844 18.113281 L 8.488281 18.398438 L 8.527344 18.679688 L 8.578125 18.953125 L 8.640625 19.226562 L 8.71875 19.492188 L 8.804688 19.753906 L 8.90625 20.011719 L 9.023438 20.257812 L 9.144531 20.5 L 9.285156 20.734375 L 9.429688 20.964844 L 9.585938 21.1875 L 9.753906 21.398438 L 9.929688 21.601562 L 10.121094 21.800781 L 10.316406 21.988281 L 10.523438 22.167969 L 10.734375 22.332031 L 10.957031 22.488281 L 11.183594 22.636719 L 11.417969 22.769531 L 11.664062 22.894531 L 11.910156 23.007812 L 12.167969 23.109375 L 12.429688 23.195312 L 12.695312 23.269531 L 12.964844 23.335938 L 13.242188 23.386719 L 13.523438 23.421875 L 13.808594 23.445312 L 14.097656 23.453125 Z M 19.71875 17.820312 L 20.699219 17.820312 L 20.6875 18.160156 L 20.660156 18.496094 L 20.621094 18.824219 L 20.5625 19.152344 L 20.488281 19.472656 L 20.398438 19.785156 L 20.292969 20.09375 L 20.175781 20.390625 L 20.042969 20.683594 L 19.894531 20.96875 L 19.734375 21.246094 L 19.566406 21.511719 L 19.378906 21.769531 L 19.183594 22.015625 L 18.976562 22.253906 L 18.757812 22.484375 L 18.527344 22.707031 L 18.289062 22.910156 L 18.039062 23.109375 L 17.78125 23.292969 L 17.515625 23.464844 L 17.242188 23.625 L 16.957031 23.769531 L 16.664062 23.902344 L 16.363281 24.023438 L 16.054688 24.128906 L 15.746094 24.214844 L 15.421875 24.289062 L 15.097656 24.347656 L 14.765625 24.390625 L 14.429688 24.417969 L 14.089844 24.425781 L 14.089844 23.449219 L 14.378906 23.441406 L 14.664062 23.417969 L 14.945312 23.378906 L 15.222656 23.328125 L 15.492188 23.265625 L 15.757812 23.191406 L 16.019531 23.105469 L 16.277344 23.003906 L 16.523438 22.890625 L 16.769531 22.765625 L 17.003906 22.632812 L 17.230469 22.484375 L 17.453125 22.328125 L 17.664062 22.164062 L 17.867188 21.984375 L 18.0625 21.796875 L 18.25 21.597656 L 18.429688 21.390625 L 18.59375 21.179688 L 18.75 20.960938 L 18.898438 20.730469 L 19.03125 20.496094 L 19.15625 20.253906 L 19.269531 20.003906 L 19.371094 19.75 L 19.457031 19.488281 L 19.535156 19.21875 L 19.601562 18.949219 L 19.652344 18.675781 L 19.6875 18.394531 L 19.710938 18.109375 Z M 16.695312 12.824219 L 17.148438 11.957031 L 17.347656 12.0625 L 17.539062 12.175781 L 17.726562 12.296875 L 17.910156 12.421875 L 18.089844 12.554688 L 18.265625 12.691406 L 18.433594 12.832031 L 18.601562 12.980469 L 18.761719 13.132812 L 18.914062 13.292969 L 19.058594 13.457031 L 19.203125 13.628906 L 19.339844 13.800781 L 19.472656 13.980469 L 19.597656 14.164062 L 19.714844 14.351562 L 19.832031 14.546875 L 19.9375 14.742188 L 20.039062 14.941406 L 20.132812 15.144531 L 20.222656 15.351562 L 20.304688 15.5625 L 20.378906 15.777344 L 20.445312 15.992188 L 20.503906 16.214844 L 20.554688 16.4375 L 20.601562 16.664062 L 20.640625 16.890625 L 20.667969 17.121094 L 20.6875 17.355469 L 20.703125 17.589844 L 20.707031 17.828125 L 19.730469 17.828125 L 19.726562 17.628906 L 19.714844 17.425781 L 19.699219 17.226562 L 19.675781 17.03125 L 19.640625 16.835938 L 19.605469 16.644531 L 19.558594 16.457031 L 19.507812 16.269531 L 19.453125 16.085938 L 19.390625 15.902344 L 19.320312 15.722656 L 19.246094 15.546875 L 19.164062 15.371094 L 19.078125 15.203125 L 18.984375 15.039062 L 18.890625 14.871094 L 18.789062 14.710938 L 18.683594 14.554688 L 18.574219 14.402344 L 18.453125 14.257812 L 18.328125 14.113281 L 18.199219 13.976562 L 18.066406 13.839844 L 17.929688 13.710938 L 17.789062 13.582031 L 17.640625 13.457031 L 17.492188 13.34375 L 17.34375 13.234375 L 17.1875 13.128906 L 17.023438 13.027344 L 16.859375 12.929688 L 16.695312 12.839844 Z M 16.695312 12.824219 C 16.457031 12.699219 16.363281 12.402344 16.488281 12.164062 C 16.613281 11.925781 16.910156 11.832031 17.148438 11.957031 Z M 16.695312 12.824219 "/>
<path style=" stroke:none;fill-rule:nonzero;fill:rgb(92.941176%,41.176471%,36.078431%);fill-opacity:1;" d="M 13.59375 10.910156 C 13.59375 10.640625 13.816406 10.417969 14.085938 10.417969 C 14.359375 10.417969 14.578125 10.640625 14.578125 10.910156 Z M 13.59375 16.203125 L 13.59375 10.910156 L 14.574219 10.910156 L 14.574219 16.203125 Z M 14.574219 16.203125 C 14.574219 16.476562 14.351562 16.695312 14.082031 16.695312 C 13.8125 16.695312 13.589844 16.476562 13.589844 16.203125 Z M 14.574219 16.203125 "/>
</g>
</svg>
