<?xml version="1.0" encoding="UTF-8"?>
<svg xmlns="http://www.w3.org/2000/svg" xmlns:xlink="http://www.w3.org/1999/xlink" width="28px" height="28px" viewBox="0 0 28 28" version="1.1">
<g id="surface1">
<path style=" stroke:none;fill-rule:nonzero;fill:rgb(92.941176%,41.176471%,36.078431%);fill-opacity:1;" d="M 18.230469 2.449219 L 18.230469 2.238281 L 27.355469 2.238281 L 27.355469 2.449219 C 27.355469 2.882812 27 3.234375 26.566406 3.234375 L 19.023438 3.234375 C 18.585938 3.234375 18.234375 2.882812 18.234375 2.449219 Z M 21.9375 3.976562 L 23.652344 3.976562 L 23.417969 7 L 22.167969 7 Z M 25.449219 9.78125 C 25.402344 10.179688 25.066406 10.476562 24.664062 10.476562 L 20.921875 10.476562 C 20.519531 10.476562 20.1875 10.175781 20.136719 9.78125 L 19.4375 3.976562 L 21.195312 3.976562 L 21.460938 7.398438 C 21.476562 7.589844 21.636719 7.738281 21.832031 7.738281 L 23.765625 7.738281 C 23.957031 7.738281 24.117188 7.589844 24.132812 7.398438 L 24.398438 3.976562 L 26.15625 3.976562 L 25.457031 9.78125 Z M 18.6875 3.941406 L 19.398438 9.871094 C 19.492188 10.636719 20.144531 11.214844 20.917969 11.214844 L 24.660156 11.214844 C 25.4375 11.214844 26.089844 10.636719 26.183594 9.871094 L 26.894531 3.941406 L 26.941406 3.929688 C 27.617188 3.757812 28.09375 3.148438 28.09375 2.449219 L 28.09375 1.867188 C 28.09375 1.664062 27.929688 1.496094 27.722656 1.496094 L 17.855469 1.496094 C 17.652344 1.496094 17.484375 1.664062 17.484375 1.867188 L 17.484375 2.449219 C 17.484375 3.148438 17.960938 3.757812 18.640625 3.929688 L 18.683594 3.941406 Z M 18.6875 3.941406 "/>
<path style=" stroke:none;fill-rule:nonzero;fill:rgb(92.941176%,41.176471%,36.078431%);fill-opacity:1;" d="M 18.671875 12.589844 C 18.613281 12.613281 18.554688 12.652344 18.515625 12.699219 L 17.382812 14.023438 C 17.320312 14.097656 17.289062 14.191406 17.296875 14.292969 C 17.304688 14.386719 17.351562 14.480469 17.425781 14.542969 C 17.503906 14.605469 17.597656 14.636719 17.699219 14.628906 C 17.730469 14.625 17.761719 14.621094 17.792969 14.609375 C 17.851562 14.589844 17.90625 14.550781 17.949219 14.503906 L 19.078125 13.179688 C 19.144531 13.105469 19.175781 13.007812 19.164062 12.910156 C 19.15625 12.8125 19.113281 12.71875 19.035156 12.65625 C 18.9375 12.570312 18.796875 12.546875 18.671875 12.589844 Z M 18.671875 12.589844 "/>
<path style=" stroke:none;fill-rule:nonzero;fill:rgb(92.941176%,41.176471%,36.078431%);fill-opacity:1;" d="M 26.957031 12.589844 C 27.019531 12.613281 27.074219 12.652344 27.117188 12.699219 L 28.246094 14.023438 C 28.3125 14.097656 28.339844 14.191406 28.332031 14.292969 C 28.324219 14.386719 28.277344 14.480469 28.203125 14.542969 C 28.125 14.605469 28.03125 14.636719 27.933594 14.628906 C 27.898438 14.625 27.867188 14.621094 27.835938 14.609375 C 27.777344 14.589844 27.722656 14.550781 27.679688 14.503906 L 26.550781 13.179688 C 26.484375 13.105469 26.457031 13.007812 26.464844 12.910156 C 26.472656 12.8125 26.515625 12.71875 26.59375 12.65625 C 26.691406 12.570312 26.832031 12.546875 26.957031 12.589844 Z M 26.957031 12.589844 "/>
<path style=" stroke:none;fill-rule:nonzero;fill:rgb(92.941176%,41.176471%,36.078431%);fill-opacity:1;" d="M 22.472656 13.578125 C 22.441406 13.632812 22.425781 13.695312 22.425781 13.757812 L 22.417969 15.496094 C 22.417969 15.59375 22.457031 15.691406 22.527344 15.757812 C 22.597656 15.828125 22.691406 15.867188 22.789062 15.867188 C 22.890625 15.867188 22.980469 15.828125 23.050781 15.757812 C 23.078125 15.734375 23.097656 15.710938 23.113281 15.683594 C 23.144531 15.628906 23.160156 15.566406 23.160156 15.5 L 23.167969 13.765625 C 23.167969 13.664062 23.128906 13.574219 23.058594 13.503906 C 22.988281 13.433594 22.894531 13.394531 22.796875 13.394531 C 22.664062 13.394531 22.542969 13.464844 22.472656 13.578125 Z M 22.472656 13.578125 "/>
<path style=" stroke:none;fill-rule:nonzero;fill:rgb(92.941176%,41.176471%,36.078431%);fill-opacity:1;" d="M 9.234375 17.332031 L 10.660156 17.332031 C 10.84375 17.332031 10.992188 17.183594 10.992188 17 C 10.992188 16.816406 10.84375 16.667969 10.660156 16.667969 L 9.234375 16.667969 C 9.050781 16.667969 8.902344 16.816406 8.902344 17 C 8.902344 17.183594 9.050781 17.332031 9.234375 17.332031 Z M 9.234375 17.332031 "/>
<path style=" stroke:none;fill-rule:nonzero;fill:rgb(92.941176%,41.176471%,36.078431%);fill-opacity:1;" d="M 18.53125 20.730469 C 18.519531 20.726562 18.511719 20.722656 18.5 20.71875 L 15.972656 19.746094 C 15.707031 19.644531 15.503906 19.433594 15.414062 19.164062 L 15.3125 18.859375 C 15.878906 18.046875 16.097656 17.253906 15.570312 16.457031 C 15.328125 16.101562 15.03125 15.839844 14.667969 15.667969 C 14.828125 15.078125 14.914062 14.453125 14.914062 13.800781 L 14.914062 13.777344 L 14.9375 13.777344 C 15.316406 13.777344 15.625 13.472656 15.625 13.089844 L 15.625 12.378906 C 15.625 12.121094 15.480469 11.898438 15.269531 11.777344 L 15.269531 10.957031 C 15.269531 8.03125 12.882812 5.652344 9.949219 5.652344 C 7.019531 5.652344 4.632812 8.03125 4.632812 10.957031 L 4.632812 11.777344 C 4.421875 11.898438 4.277344 12.121094 4.277344 12.378906 L 4.277344 13.089844 C 4.277344 13.472656 4.585938 13.777344 4.964844 13.777344 L 4.988281 13.777344 L 4.988281 13.800781 C 4.988281 14.453125 5.074219 15.078125 5.234375 15.667969 C 4.867188 15.839844 4.574219 16.097656 4.332031 16.457031 C 3.804688 17.253906 4.019531 18.050781 4.585938 18.859375 L 4.488281 19.164062 C 4.398438 19.429688 4.195312 19.644531 3.929688 19.746094 L 1.402344 20.71875 C 1.390625 20.71875 1.382812 20.726562 1.371094 20.730469 C 0.53125 21.152344 0.00390625 21.996094 0.00390625 22.9375 L 0.00390625 25.171875 C 0.00390625 25.746094 0.472656 26.214844 1.050781 26.214844 L 18.855469 26.214844 C 19.429688 26.214844 19.902344 25.75 19.902344 25.171875 L 19.902344 22.9375 C 19.902344 21.996094 19.378906 21.152344 18.535156 20.730469 Z M 15.011719 16.828125 C 15.207031 17.121094 15.367188 17.558594 14.863281 18.34375 C 14.601562 18.75 14.207031 19.1875 13.761719 19.640625 C 13.597656 19.59375 13.488281 19.449219 13.488281 19.28125 L 13.488281 18.066406 C 13.488281 18.046875 13.484375 18.035156 13.484375 18.019531 C 13.886719 17.523438 14.21875 16.949219 14.460938 16.308594 C 14.679688 16.429688 14.855469 16.597656 15.015625 16.828125 Z M 5.800781 15.199219 L 5.882812 15.199219 C 6.117188 15.199219 6.339844 15.292969 6.507812 15.460938 C 6.800781 15.75 7.1875 15.914062 7.601562 15.914062 L 12.292969 15.914062 C 12.707031 15.914062 13.097656 15.75 13.386719 15.460938 C 13.554688 15.296875 13.773438 15.203125 14.011719 15.203125 L 14.09375 15.203125 C 13.597656 17.480469 11.925781 19.15625 9.945312 19.15625 C 7.964844 19.15625 6.292969 17.480469 5.800781 15.203125 Z M 6.78125 20.003906 C 6.964844 19.816406 7.074219 19.558594 7.074219 19.28125 L 7.074219 18.707031 C 7.886719 19.40625 8.878906 19.820312 9.945312 19.820312 C 11.015625 19.820312 12.007812 19.40625 12.816406 18.707031 L 12.816406 19.28125 C 12.816406 19.558594 12.925781 19.816406 13.109375 20.003906 C 12.140625 20.609375 11.050781 20.929688 9.945312 20.929688 C 8.839844 20.929688 7.75 20.609375 6.78125 20.003906 Z M 9.945312 21.59375 C 10.707031 21.59375 11.460938 21.460938 12.183594 21.195312 C 11.269531 22.117188 10.402344 23.121094 9.945312 24.246094 C 9.488281 23.121094 8.621094 22.117188 7.707031 21.195312 C 8.429688 21.457031 9.183594 21.59375 9.945312 21.59375 Z M 14.953125 13.089844 C 14.953125 13.105469 14.941406 13.113281 14.929688 13.113281 L 14.195312 13.113281 L 14.195312 12.355469 L 14.929688 12.355469 C 14.945312 12.355469 14.953125 12.367188 14.953125 12.378906 Z M 12.414062 13.113281 L 12.414062 12.355469 L 13.527344 12.355469 L 13.527344 13.113281 Z M 10.277344 13.113281 L 10.277344 12.355469 L 11.746094 12.355469 L 11.746094 13.113281 Z M 8.140625 13.113281 L 8.140625 12.355469 L 9.609375 12.355469 L 9.609375 13.113281 Z M 6.363281 13.113281 L 6.363281 12.355469 L 7.472656 12.355469 L 7.472656 13.113281 Z M 12.816406 11.691406 L 11.347656 11.691406 L 11.347656 10.957031 C 11.347656 9.601562 11.234375 8.328125 11.027344 7.367188 C 10.957031 7.035156 10.878906 6.753906 10.792969 6.523438 C 11.214844 6.738281 11.601562 7.105469 11.929688 7.621094 C 12.5 8.503906 12.816406 9.691406 12.816406 10.957031 Z M 9.210938 11.691406 L 9.210938 10.957031 C 9.210938 9.75 9.304688 8.59375 9.476562 7.703125 C 9.648438 6.804688 9.847656 6.441406 9.941406 6.335938 C 10.039062 6.441406 10.238281 6.804688 10.410156 7.703125 C 10.582031 8.597656 10.675781 9.75 10.675781 10.957031 L 10.675781 11.691406 L 9.207031 11.691406 Z M 9.097656 6.523438 C 9.011719 6.753906 8.933594 7.035156 8.863281 7.367188 C 8.65625 8.328125 8.542969 9.601562 8.542969 10.957031 L 8.542969 11.691406 L 7.074219 11.691406 L 7.074219 10.957031 C 7.074219 9.691406 7.390625 8.503906 7.960938 7.621094 C 8.289062 7.109375 8.679688 6.738281 9.097656 6.523438 Z M 14.59375 10.957031 L 14.59375 11.691406 L 13.484375 11.691406 L 13.484375 10.957031 C 13.484375 9.5625 13.132812 8.25 12.492188 7.257812 C 12.417969 7.144531 12.339844 7.035156 12.261719 6.929688 C 13.652344 7.734375 14.59375 9.234375 14.59375 10.953125 Z M 7.628906 6.933594 C 7.550781 7.035156 7.46875 7.144531 7.398438 7.261719 C 6.757812 8.253906 6.40625 9.566406 6.40625 10.957031 L 6.40625 11.691406 L 5.292969 11.691406 L 5.292969 10.957031 C 5.292969 9.242188 6.234375 7.738281 7.628906 6.9375 Z M 4.9375 13.085938 L 4.9375 12.378906 C 4.9375 12.363281 4.945312 12.355469 4.957031 12.355469 L 5.695312 12.355469 L 5.695312 13.113281 L 4.957031 13.113281 C 4.945312 13.113281 4.9375 13.101562 4.9375 13.089844 Z M 7.832031 13.777344 C 7.832031 13.785156 7.832031 13.792969 7.832031 13.796875 L 7.832031 14.152344 C 7.832031 14.335938 7.980469 14.484375 8.164062 14.484375 C 8.347656 14.484375 8.496094 14.335938 8.496094 14.152344 L 8.496094 13.796875 C 8.496094 13.789062 8.496094 13.78125 8.496094 13.777344 L 11.390625 13.777344 C 11.390625 13.785156 11.390625 13.792969 11.390625 13.796875 L 11.390625 14.152344 C 11.390625 14.335938 11.539062 14.484375 11.722656 14.484375 C 11.90625 14.484375 12.054688 14.335938 12.054688 14.152344 L 12.054688 13.796875 C 12.054688 13.789062 12.054688 13.78125 12.054688 13.777344 L 14.238281 13.777344 L 14.238281 13.796875 C 14.238281 14.046875 14.222656 14.292969 14.199219 14.53125 L 14.003906 14.53125 C 13.589844 14.53125 13.203125 14.695312 12.910156 14.984375 C 12.746094 15.148438 12.523438 15.242188 12.289062 15.242188 L 7.597656 15.242188 C 7.363281 15.242188 7.140625 15.148438 6.976562 14.980469 C 6.683594 14.691406 6.292969 14.527344 5.878906 14.527344 L 5.6875 14.527344 C 5.660156 14.289062 5.648438 14.046875 5.648438 13.792969 L 5.648438 13.773438 L 7.832031 13.773438 Z M 4.878906 16.824219 C 5.035156 16.59375 5.214844 16.425781 5.433594 16.308594 C 5.675781 16.945312 6.007812 17.523438 6.40625 18.015625 C 6.40625 18.03125 6.40625 18.046875 6.40625 18.0625 L 6.40625 19.277344 C 6.40625 19.445312 6.292969 19.59375 6.132812 19.636719 C 5.683594 19.183594 5.289062 18.75 5.03125 18.339844 C 4.527344 17.550781 4.6875 17.117188 4.882812 16.824219 Z M 0.664062 25.167969 L 0.664062 22.933594 C 0.664062 22.253906 1.039062 21.640625 1.644531 21.332031 L 4.15625 20.367188 C 4.574219 20.207031 4.898438 19.886719 5.070312 19.480469 C 5.464844 19.933594 5.929688 20.386719 6.40625 20.851562 C 7.820312 22.226562 9.410156 23.773438 9.589844 25.546875 L 4.222656 25.546875 L 4.222656 24.457031 C 4.222656 24.273438 4.074219 24.125 3.890625 24.125 C 3.707031 24.125 3.558594 24.273438 3.558594 24.457031 L 3.558594 25.546875 L 1.042969 25.546875 C 0.832031 25.546875 0.664062 25.375 0.664062 25.167969 Z M 19.222656 25.167969 C 19.222656 25.375 19.050781 25.546875 18.84375 25.546875 L 16.328125 25.546875 L 16.328125 24.457031 C 16.328125 24.273438 16.179688 24.125 15.996094 24.125 C 15.8125 24.125 15.664062 24.273438 15.664062 24.457031 L 15.664062 25.546875 L 10.292969 25.546875 C 10.476562 23.773438 12.066406 22.222656 13.476562 20.851562 C 13.953125 20.386719 14.421875 19.933594 14.816406 19.480469 C 14.984375 19.890625 15.3125 20.207031 15.726562 20.367188 L 18.242188 21.332031 C 18.847656 21.640625 19.222656 22.253906 19.222656 22.933594 Z M 19.222656 25.167969 "/>
</g>
</svg>
