<?xml version="1.0" encoding="UTF-8"?>
<svg xmlns="http://www.w3.org/2000/svg" xmlns:xlink="http://www.w3.org/1999/xlink" width="28px" height="28px" viewBox="0 0 28 25" version="1.1">
<g id="surface1">
<path style=" stroke:none;fill-rule:nonzero;fill:rgb(92.941176%,41.176471%,36.078431%);fill-opacity:1;" d="M 18.230469 0.949219 L 18.230469 0.738281 L 27.355469 0.738281 L 27.355469 0.949219 C 27.355469 1.382812 27 1.734375 26.566406 1.734375 L 19.023438 1.734375 C 18.585938 1.734375 18.234375 1.382812 18.234375 0.949219 Z M 21.9375 2.476562 L 23.652344 2.476562 L 23.417969 5.5 L 22.167969 5.5 Z M 25.449219 8.28125 C 25.402344 8.679688 25.066406 8.976562 24.664062 8.976562 L 20.921875 8.976562 C 20.519531 8.976562 20.1875 8.675781 20.136719 8.28125 L 19.4375 2.476562 L 21.195312 2.476562 L 21.460938 5.898438 C 21.476562 6.089844 21.636719 6.238281 21.832031 6.238281 L 23.765625 6.238281 C 23.957031 6.238281 24.117188 6.089844 24.132812 5.898438 L 24.398438 2.476562 L 26.15625 2.476562 L 25.457031 8.28125 Z M 18.6875 2.441406 L 19.398438 8.371094 C 19.492188 9.136719 20.144531 9.714844 20.917969 9.714844 L 24.660156 9.714844 C 25.4375 9.714844 26.089844 9.136719 26.183594 8.371094 L 26.894531 2.441406 L 26.941406 2.429688 C 27.617188 2.257812 28.09375 1.648438 28.09375 0.949219 L 28.09375 0.367188 C 28.09375 0.164062 27.929688 -0.00390625 27.722656 -0.00390625 L 17.855469 -0.00390625 C 17.652344 -0.00390625 17.484375 0.164062 17.484375 0.367188 L 17.484375 0.949219 C 17.484375 1.648438 17.960938 2.257812 18.640625 2.429688 L 18.683594 2.441406 Z M 18.6875 2.441406 "/>
<path style=" stroke:none;fill-rule:nonzero;fill:rgb(92.941176%,41.176471%,36.078431%);fill-opacity:1;" d="M 18.671875 11.089844 C 18.613281 11.113281 18.554688 11.152344 18.515625 11.199219 L 17.382812 12.523438 C 17.320312 12.597656 17.289062 12.691406 17.296875 12.792969 C 17.304688 12.886719 17.351562 12.980469 17.425781 13.042969 C 17.503906 13.105469 17.597656 13.136719 17.699219 13.128906 C 17.730469 13.125 17.761719 13.121094 17.792969 13.109375 C 17.851562 13.089844 17.90625 13.050781 17.949219 13.003906 L 19.078125 11.679688 C 19.144531 11.605469 19.175781 11.507812 19.164062 11.410156 C 19.15625 11.3125 19.113281 11.21875 19.035156 11.15625 C 18.9375 11.070312 18.796875 11.046875 18.671875 11.089844 Z M 18.671875 11.089844 "/>
<path style=" stroke:none;fill-rule:nonzero;fill:rgb(92.941176%,41.176471%,36.078431%);fill-opacity:1;" d="M 26.957031 11.089844 C 27.019531 11.113281 27.074219 11.152344 27.117188 11.199219 L 28.246094 12.523438 C 28.3125 12.597656 28.339844 12.691406 28.332031 12.792969 C 28.324219 12.886719 28.277344 12.980469 28.203125 13.042969 C 28.125 13.105469 28.03125 13.136719 27.933594 13.128906 C 27.898438 13.125 27.867188 13.121094 27.835938 13.109375 C 27.777344 13.089844 27.722656 13.050781 27.679688 13.003906 L 26.550781 11.679688 C 26.484375 11.605469 26.457031 11.507812 26.464844 11.410156 C 26.472656 11.3125 26.515625 11.21875 26.59375 11.15625 C 26.691406 11.070312 26.832031 11.046875 26.957031 11.089844 Z M 26.957031 11.089844 "/>
<path style=" stroke:none;fill-rule:nonzero;fill:rgb(92.941176%,41.176471%,36.078431%);fill-opacity:1;" d="M 22.472656 12.078125 C 22.441406 12.132812 22.425781 12.195312 22.425781 12.257812 L 22.417969 13.996094 C 22.417969 14.09375 22.457031 14.191406 22.527344 14.257812 C 22.597656 14.328125 22.691406 14.367188 22.789062 14.367188 C 22.890625 14.367188 22.980469 14.328125 23.050781 14.257812 C 23.078125 14.234375 23.097656 14.210938 23.113281 14.183594 C 23.144531 14.128906 23.160156 14.066406 23.160156 14 L 23.167969 12.265625 C 23.167969 12.164062 23.128906 12.074219 23.058594 12.003906 C 22.988281 11.933594 22.894531 11.894531 22.796875 11.894531 C 22.664062 11.894531 22.542969 11.964844 22.472656 12.078125 Z M 22.472656 12.078125 "/>
<path style=" stroke:none;fill-rule:nonzero;fill:rgb(92.941176%,41.176471%,36.078431%);fill-opacity:1;" d="M 9.234375 15.832031 L 10.660156 15.832031 C 10.84375 15.832031 10.992188 15.683594 10.992188 15.5 C 10.992188 15.316406 10.84375 15.167969 10.660156 15.167969 L 9.234375 15.167969 C 9.050781 15.167969 8.902344 15.316406 8.902344 15.5 C 8.902344 15.683594 9.050781 15.832031 9.234375 15.832031 Z M 9.234375 15.832031 "/>
<path style=" stroke:none;fill-rule:nonzero;fill:rgb(92.941176%,41.176471%,36.078431%);fill-opacity:1;" d="M 18.53125 19.230469 C 18.519531 19.226562 18.511719 19.222656 18.5 19.21875 L 15.972656 18.246094 C 15.707031 18.144531 15.503906 17.933594 15.414062 17.664062 L 15.3125 17.359375 C 15.878906 16.546875 16.097656 15.753906 15.570312 14.957031 C 15.328125 14.601562 15.03125 14.339844 14.667969 14.167969 C 14.828125 13.578125 14.914062 12.953125 14.914062 12.300781 L 14.914062 12.277344 L 14.9375 12.277344 C 15.316406 12.277344 15.625 11.972656 15.625 11.589844 L 15.625 10.878906 C 15.625 10.621094 15.480469 10.398438 15.269531 10.277344 L 15.269531 9.457031 C 15.269531 6.53125 12.882812 4.152344 9.949219 4.152344 C 7.019531 4.152344 4.632812 6.53125 4.632812 9.457031 L 4.632812 10.277344 C 4.421875 10.398438 4.277344 10.621094 4.277344 10.878906 L 4.277344 11.589844 C 4.277344 11.972656 4.585938 12.277344 4.964844 12.277344 L 4.988281 12.277344 L 4.988281 12.300781 C 4.988281 12.953125 5.074219 13.578125 5.234375 14.167969 C 4.867188 14.339844 4.574219 14.597656 4.332031 14.957031 C 3.804688 15.753906 4.019531 16.550781 4.585938 17.359375 L 4.488281 17.664062 C 4.398438 17.929688 4.195312 18.144531 3.929688 18.246094 L 1.402344 19.21875 C 1.390625 19.21875 1.382812 19.226562 1.371094 19.230469 C 0.53125 19.652344 0.00390625 20.496094 0.00390625 21.4375 L 0.00390625 23.671875 C 0.00390625 24.246094 0.472656 24.714844 1.050781 24.714844 L 18.855469 24.714844 C 19.429688 24.714844 19.902344 24.25 19.902344 23.671875 L 19.902344 21.4375 C 19.902344 20.496094 19.378906 19.652344 18.535156 19.230469 Z M 15.011719 15.328125 C 15.207031 15.621094 15.367188 16.058594 14.863281 16.84375 C 14.601562 17.25 14.207031 17.6875 13.761719 18.140625 C 13.597656 18.09375 13.488281 17.949219 13.488281 17.78125 L 13.488281 16.566406 C 13.488281 16.546875 13.484375 16.535156 13.484375 16.519531 C 13.886719 16.023438 14.21875 15.449219 14.460938 14.808594 C 14.679688 14.929688 14.855469 15.097656 15.015625 15.328125 Z M 5.800781 13.699219 L 5.882812 13.699219 C 6.117188 13.699219 6.339844 13.792969 6.507812 13.960938 C 6.800781 14.25 7.1875 14.414062 7.601562 14.414062 L 12.292969 14.414062 C 12.707031 14.414062 13.097656 14.25 13.386719 13.960938 C 13.554688 13.796875 13.773438 13.703125 14.011719 13.703125 L 14.09375 13.703125 C 13.597656 15.980469 11.925781 17.65625 9.945312 17.65625 C 7.964844 17.65625 6.292969 15.980469 5.800781 13.703125 Z M 6.78125 18.503906 C 6.964844 18.316406 7.074219 18.058594 7.074219 17.78125 L 7.074219 17.207031 C 7.886719 17.90625 8.878906 18.320312 9.945312 18.320312 C 11.015625 18.320312 12.007812 17.90625 12.816406 17.207031 L 12.816406 17.78125 C 12.816406 18.058594 12.925781 18.316406 13.109375 18.503906 C 12.140625 19.109375 11.050781 19.429688 9.945312 19.429688 C 8.839844 19.429688 7.75 19.109375 6.78125 18.503906 Z M 9.945312 20.09375 C 10.707031 20.09375 11.460938 19.960938 12.183594 19.695312 C 11.269531 20.617188 10.402344 21.621094 9.945312 22.746094 C 9.488281 21.621094 8.621094 20.617188 7.707031 19.695312 C 8.429688 19.957031 9.183594 20.09375 9.945312 20.09375 Z M 14.953125 11.589844 C 14.953125 11.605469 14.941406 11.613281 14.929688 11.613281 L 14.195312 11.613281 L 14.195312 10.855469 L 14.929688 10.855469 C 14.945312 10.855469 14.953125 10.867188 14.953125 10.878906 Z M 12.414062 11.613281 L 12.414062 10.855469 L 13.527344 10.855469 L 13.527344 11.613281 Z M 10.277344 11.613281 L 10.277344 10.855469 L 11.746094 10.855469 L 11.746094 11.613281 Z M 8.140625 11.613281 L 8.140625 10.855469 L 9.609375 10.855469 L 9.609375 11.613281 Z M 6.363281 11.613281 L 6.363281 10.855469 L 7.472656 10.855469 L 7.472656 11.613281 Z M 12.816406 10.191406 L 11.347656 10.191406 L 11.347656 9.457031 C 11.347656 8.101562 11.234375 6.828125 11.027344 5.867188 C 10.957031 5.535156 10.878906 5.253906 10.792969 5.023438 C 11.214844 5.238281 11.601562 5.605469 11.929688 6.121094 C 12.5 7.003906 12.816406 8.191406 12.816406 9.457031 Z M 9.210938 10.191406 L 9.210938 9.457031 C 9.210938 8.25 9.304688 7.09375 9.476562 6.203125 C 9.648438 5.304688 9.847656 4.941406 9.941406 4.835938 C 10.039062 4.941406 10.238281 5.304688 10.410156 6.203125 C 10.582031 7.097656 10.675781 8.25 10.675781 9.457031 L 10.675781 10.191406 L 9.207031 10.191406 Z M 9.097656 5.023438 C 9.011719 5.253906 8.933594 5.535156 8.863281 5.867188 C 8.65625 6.828125 8.542969 8.101562 8.542969 9.457031 L 8.542969 10.191406 L 7.074219 10.191406 L 7.074219 9.457031 C 7.074219 8.191406 7.390625 7.003906 7.960938 6.121094 C 8.289062 5.609375 8.679688 5.238281 9.097656 5.023438 Z M 14.59375 9.457031 L 14.59375 10.191406 L 13.484375 10.191406 L 13.484375 9.457031 C 13.484375 8.0625 13.132812 6.75 12.492188 5.757812 C 12.417969 5.644531 12.339844 5.535156 12.261719 5.429688 C 13.652344 6.234375 14.59375 7.734375 14.59375 9.453125 Z M 7.628906 5.433594 C 7.550781 5.535156 7.46875 5.644531 7.398438 5.761719 C 6.757812 6.753906 6.40625 8.066406 6.40625 9.457031 L 6.40625 10.191406 L 5.292969 10.191406 L 5.292969 9.457031 C 5.292969 7.742188 6.234375 6.238281 7.628906 5.4375 Z M 4.9375 11.585938 L 4.9375 10.878906 C 4.9375 10.863281 4.945312 10.855469 4.957031 10.855469 L 5.695312 10.855469 L 5.695312 11.613281 L 4.957031 11.613281 C 4.945312 11.613281 4.9375 11.601562 4.9375 11.589844 Z M 7.832031 12.277344 C 7.832031 12.285156 7.832031 12.292969 7.832031 12.296875 L 7.832031 12.652344 C 7.832031 12.835938 7.980469 12.984375 8.164062 12.984375 C 8.347656 12.984375 8.496094 12.835938 8.496094 12.652344 L 8.496094 12.296875 C 8.496094 12.289062 8.496094 12.28125 8.496094 12.277344 L 11.390625 12.277344 C 11.390625 12.285156 11.390625 12.292969 11.390625 12.296875 L 11.390625 12.652344 C 11.390625 12.835938 11.539062 12.984375 11.722656 12.984375 C 11.90625 12.984375 12.054688 12.835938 12.054688 12.652344 L 12.054688 12.296875 C 12.054688 12.289062 12.054688 12.28125 12.054688 12.277344 L 14.238281 12.277344 L 14.238281 12.296875 C 14.238281 12.546875 14.222656 12.792969 14.199219 13.03125 L 14.003906 13.03125 C 13.589844 13.03125 13.203125 13.195312 12.910156 13.484375 C 12.746094 13.648438 12.523438 13.742188 12.289062 13.742188 L 7.597656 13.742188 C 7.363281 13.742188 7.140625 13.648438 6.976562 13.480469 C 6.683594 13.191406 6.292969 13.027344 5.878906 13.027344 L 5.6875 13.027344 C 5.660156 12.789062 5.648438 12.546875 5.648438 12.292969 L 5.648438 12.273438 L 7.832031 12.273438 Z M 4.878906 15.324219 C 5.035156 15.09375 5.214844 14.925781 5.433594 14.808594 C 5.675781 15.445312 6.007812 16.023438 6.40625 16.515625 C 6.40625 16.53125 6.40625 16.546875 6.40625 16.5625 L 6.40625 17.777344 C 6.40625 17.945312 6.292969 18.09375 6.132812 18.136719 C 5.683594 17.683594 5.289062 17.25 5.03125 16.839844 C 4.527344 16.050781 4.6875 15.617188 4.882812 15.324219 Z M 0.664062 23.667969 L 0.664062 21.433594 C 0.664062 20.753906 1.039062 20.140625 1.644531 19.832031 L 4.15625 18.867188 C 4.574219 18.707031 4.898438 18.386719 5.070312 17.980469 C 5.464844 18.433594 5.929688 18.886719 6.40625 19.351562 C 7.820312 20.726562 9.410156 22.273438 9.589844 24.046875 L 4.222656 24.046875 L 4.222656 22.957031 C 4.222656 22.773438 4.074219 22.625 3.890625 22.625 C 3.707031 22.625 3.558594 22.773438 3.558594 22.957031 L 3.558594 24.046875 L 1.042969 24.046875 C 0.832031 24.046875 0.664062 23.875 0.664062 23.667969 Z M 19.222656 23.667969 C 19.222656 23.875 19.050781 24.046875 18.84375 24.046875 L 16.328125 24.046875 L 16.328125 22.957031 C 16.328125 22.773438 16.179688 22.625 15.996094 22.625 C 15.8125 22.625 15.664062 22.773438 15.664062 22.957031 L 15.664062 24.046875 L 10.292969 24.046875 C 10.476562 22.273438 12.066406 20.722656 13.476562 19.351562 C 13.953125 18.886719 14.421875 18.433594 14.816406 17.980469 C 14.984375 18.390625 15.3125 18.707031 15.726562 18.867188 L 18.242188 19.832031 C 18.847656 20.140625 19.222656 20.753906 19.222656 21.433594 Z M 19.222656 23.667969 "/>
</g>
</svg>
