<?xml version="1.0" encoding="UTF-8"?>
<svg xmlns="http://www.w3.org/2000/svg" xmlns:xlink="http://www.w3.org/1999/xlink" width="28px" height="28px" viewBox="0 0 28 29" version="1.1">
<g id="surface1">
<path style=" stroke:none;fill-rule:nonzero;fill:rgb(92.941176%,41.176471%,36.078431%);fill-opacity:1;" d="M 16.75 1.070312 L 16.75 0.832031 L 27.253906 0.832031 L 27.253906 1.070312 C 27.253906 1.558594 26.847656 1.957031 26.34375 1.957031 L 17.660156 1.957031 C 17.15625 1.957031 16.75 1.558594 16.75 1.070312 Z M 21.015625 2.789062 L 22.988281 2.789062 L 22.71875 6.199219 L 21.28125 6.199219 L 21.011719 2.789062 Z M 25.058594 9.332031 C 25.003906 9.777344 24.617188 10.113281 24.15625 10.113281 L 19.84375 10.113281 C 19.382812 10.113281 18.996094 9.777344 18.941406 9.332031 L 18.136719 2.789062 L 20.15625 2.789062 L 20.460938 6.648438 C 20.476562 6.863281 20.664062 7.03125 20.886719 7.03125 L 23.113281 7.03125 C 23.335938 7.03125 23.523438 6.863281 23.539062 6.648438 L 23.84375 2.789062 L 25.863281 2.789062 Z M 17.273438 2.75 L 18.09375 9.429688 C 18.199219 10.296875 18.953125 10.949219 19.84375 10.949219 L 24.15625 10.949219 C 25.046875 10.949219 25.796875 10.296875 25.90625 9.429688 L 26.726562 2.75 L 26.777344 2.738281 C 27.558594 2.542969 28.105469 1.855469 28.105469 1.066406 L 28.105469 0.414062 C 28.105469 0.183594 27.914062 0 27.679688 0 L 16.320312 0 C 16.082031 0 15.890625 0.183594 15.890625 0.414062 L 15.890625 1.066406 C 15.890625 1.855469 16.4375 2.542969 17.222656 2.738281 L 17.269531 2.75 Z M 17.273438 2.75 "/>
<path style=" stroke:none;fill-rule:nonzero;fill:rgb(92.941176%,41.176471%,36.078431%);fill-opacity:1;" d="M 17.253906 12.496094 C 17.1875 12.523438 17.121094 12.5625 17.074219 12.621094 L 15.773438 14.109375 C 15.699219 14.195312 15.660156 14.300781 15.671875 14.410156 C 15.679688 14.523438 15.730469 14.621094 15.820312 14.695312 C 15.90625 14.765625 16.015625 14.800781 16.128906 14.792969 C 16.164062 14.792969 16.203125 14.785156 16.238281 14.773438 C 16.308594 14.746094 16.371094 14.707031 16.417969 14.648438 L 17.722656 13.160156 C 17.796875 13.078125 17.832031 12.96875 17.820312 12.859375 C 17.8125 12.746094 17.761719 12.648438 17.675781 12.574219 C 17.558594 12.476562 17.398438 12.449219 17.253906 12.5 Z M 17.253906 12.496094 "/>
<path style=" stroke:none;fill-rule:nonzero;fill:rgb(92.941176%,41.176471%,36.078431%);fill-opacity:1;" d="M 26.796875 12.496094 C 26.867188 12.523438 26.929688 12.5625 26.976562 12.621094 L 28.28125 14.109375 C 28.355469 14.195312 28.390625 14.300781 28.378906 14.410156 C 28.371094 14.523438 28.316406 14.621094 28.234375 14.695312 C 28.144531 14.765625 28.035156 14.800781 27.921875 14.792969 C 27.886719 14.792969 27.847656 14.785156 27.8125 14.773438 C 27.746094 14.746094 27.679688 14.707031 27.632812 14.648438 L 26.328125 13.160156 C 26.257812 13.078125 26.21875 12.96875 26.230469 12.859375 C 26.238281 12.746094 26.292969 12.648438 26.378906 12.574219 C 26.492188 12.476562 26.652344 12.449219 26.796875 12.5 Z M 26.796875 12.496094 "/>
<path style=" stroke:none;fill-rule:nonzero;fill:rgb(92.941176%,41.176471%,36.078431%);fill-opacity:1;" d="M 21.632812 13.609375 C 21.597656 13.671875 21.578125 13.742188 21.578125 13.816406 L 21.574219 15.773438 C 21.574219 15.886719 21.617188 15.988281 21.699219 16.070312 C 21.777344 16.148438 21.886719 16.191406 21.996094 16.191406 C 22.113281 16.191406 22.21875 16.152344 22.300781 16.070312 C 22.328125 16.046875 22.347656 16.015625 22.367188 15.984375 C 22.40625 15.921875 22.421875 15.851562 22.421875 15.777344 L 22.429688 13.820312 C 22.429688 13.707031 22.386719 13.601562 22.304688 13.523438 C 22.222656 13.445312 22.117188 13.402344 22.003906 13.402344 C 21.851562 13.402344 21.707031 13.480469 21.632812 13.609375 Z M 21.632812 13.609375 "/>
<path style=" stroke:none;fill-rule:nonzero;fill:rgb(92.941176%,41.176471%,36.078431%);fill-opacity:1;" d="M 14.3125 25.28125 C 14.292969 25.273438 12.554688 24.296875 12.054688 22.421875 C 11.71875 21.164062 12.007812 19.785156 12.921875 18.316406 C 14.695312 15.464844 15.019531 12.195312 13.769531 9.785156 C 12.925781 8.160156 11.445312 7.144531 9.703125 6.992188 C 5.191406 6.605469 1.851562 8.363281 0.808594 9.558594 C -0.113281 10.601562 0.0664062 13.136719 0.257812 14.558594 C 0.304688 14.910156 0.308594 15.273438 0.261719 15.628906 C 0.238281 15.8125 0.210938 16.03125 0.191406 16.265625 C -0.0585938 18.675781 -0.113281 21.777344 1.054688 22.875 C 1.363281 23.164062 1.789062 23.351562 2.304688 23.453125 L 2.632812 24.425781 C 1.71875 24.785156 0.996094 25.25 0.53125 25.597656 C 0.03125 25.972656 -0.136719 26.632812 0.128906 27.160156 C 0.546875 28 1.714844 29.050781 4.90625 29.28125 C 5.148438 29.300781 5.386719 29.308594 5.625 29.308594 C 10.277344 29.308594 14.207031 26.078125 14.378906 25.933594 C 14.480469 25.847656 14.535156 25.722656 14.519531 25.59375 C 14.507812 25.464844 14.429688 25.347656 14.316406 25.285156 Z M 1.066406 14.453125 C 1.03125 14.191406 1.003906 13.9375 0.980469 13.6875 C 1.878906 13.378906 3.441406 13.066406 5.3125 13.617188 C 6.933594 14.097656 7.527344 14.671875 7.746094 15.074219 C 7.867188 15.296875 7.78125 15.582031 7.550781 15.707031 C 6.957031 16.03125 5.675781 16.523438 3.726562 16.222656 C 2.496094 16.027344 1.675781 15.933594 1.050781 15.910156 C 1.054688 15.847656 1.066406 15.789062 1.070312 15.734375 C 1.125 15.304688 1.121094 14.871094 1.066406 14.453125 Z M 4.960938 28.488281 C 2.011719 28.269531 1.128906 27.347656 0.859375 26.8125 C 0.765625 26.621094 0.832031 26.375 1.023438 26.230469 C 1.4375 25.921875 2.078125 25.511719 2.886719 25.183594 L 3.273438 26.339844 C 3.332031 26.507812 3.492188 26.617188 3.664062 26.617188 C 3.703125 26.617188 3.746094 26.609375 3.789062 26.597656 C 4.003906 26.527344 4.121094 26.304688 4.050781 26.09375 L 3.527344 24.53125 L 3.195312 23.542969 C 4.375 23.554688 5.714844 23.246094 6.695312 22.957031 C 7.503906 22.714844 8.195312 22.246094 8.703125 21.597656 L 9.15625 21.011719 C 9.292969 20.835938 9.257812 20.585938 9.078125 20.453125 C 8.898438 20.316406 8.640625 20.351562 8.503906 20.527344 L 8.046875 21.109375 C 7.648438 21.625 7.097656 22 6.453125 22.1875 C 5.566406 22.453125 3.886719 22.871094 2.664062 22.707031 C 2.65625 22.707031 2.648438 22.703125 2.644531 22.703125 C 2.1875 22.644531 1.839844 22.507812 1.617188 22.296875 C 0.9375 21.660156 0.703125 19.582031 0.964844 16.707031 C 1.554688 16.722656 2.375 16.816406 3.59375 17.007812 C 4.0625 17.082031 4.503906 17.113281 4.90625 17.113281 C 6.378906 17.113281 7.40625 16.699219 7.941406 16.40625 C 8.566406 16.066406 8.800781 15.300781 8.460938 14.699219 C 8.042969 13.921875 7.0625 13.300781 5.546875 12.851562 C 3.601562 12.277344 1.953125 12.542969 0.925781 12.859375 C 0.878906 11.511719 1.050781 10.496094 1.421875 10.078125 C 2.433594 8.917969 5.644531 7.445312 9.625 7.789062 C 11.101562 7.914062 12.3125 8.75 13.03125 10.144531 C 14.15625 12.3125 13.84375 15.285156 12.21875 17.898438 C 11.1875 19.5625 10.863281 21.148438 11.257812 22.621094 C 11.671875 24.164062 12.769531 25.171875 13.414062 25.652344 C 12.226562 26.511719 8.734375 28.761719 4.960938 28.484375 Z M 4.960938 28.488281 "/>
</g>
</svg>
