<?xml version="1.0" encoding="UTF-8"?>
<svg xmlns="http://www.w3.org/2000/svg" xmlns:xlink="http://www.w3.org/1999/xlink" width="28px" height="28px" viewBox="0 0 28 28" version="1.1">
<g id="surface1">
<path style=" stroke:none;fill-rule:nonzero;fill:rgb(92.941176%,41.176471%,36.078431%);fill-opacity:1;" d="M 16.65625 1.035156 L 16.65625 0.804688 L 26.796875 0.804688 L 26.796875 1.035156 C 26.796875 1.503906 26.40625 1.890625 25.917969 1.890625 L 17.535156 1.890625 C 17.046875 1.890625 16.65625 1.503906 16.65625 1.035156 Z M 20.773438 2.691406 L 22.679688 2.691406 L 22.417969 5.984375 L 21.03125 5.984375 L 20.769531 2.691406 Z M 24.675781 9.011719 C 24.625 9.441406 24.25 9.765625 23.804688 9.765625 L 19.640625 9.765625 C 19.195312 9.765625 18.824219 9.441406 18.769531 9.011719 L 17.992188 2.691406 L 19.945312 2.691406 L 20.238281 6.417969 C 20.253906 6.625 20.433594 6.789062 20.648438 6.789062 L 22.800781 6.789062 C 23.015625 6.789062 23.195312 6.625 23.210938 6.417969 L 23.503906 2.691406 L 25.453125 2.691406 Z M 17.160156 2.65625 L 17.953125 9.105469 C 18.054688 9.941406 18.78125 10.570312 19.640625 10.570312 L 23.804688 10.570312 C 24.664062 10.570312 25.390625 9.941406 25.496094 9.105469 L 26.289062 2.65625 L 26.335938 2.644531 C 27.089844 2.457031 27.617188 1.792969 27.617188 1.03125 L 27.617188 0.398438 C 27.617188 0.175781 27.433594 0 27.207031 0 L 16.242188 0 C 16.011719 0 15.824219 0.175781 15.824219 0.398438 L 15.824219 1.03125 C 15.824219 1.792969 16.351562 2.457031 17.113281 2.644531 L 17.15625 2.65625 Z M 17.160156 2.65625 "/>
<path style=" stroke:none;fill-rule:nonzero;fill:rgb(92.941176%,41.176471%,36.078431%);fill-opacity:1;" d="M 17.140625 12.066406 C 17.078125 12.089844 17.011719 12.128906 16.96875 12.1875 L 15.710938 13.621094 C 15.640625 13.707031 15.601562 13.808594 15.613281 13.914062 C 15.621094 14.023438 15.671875 14.117188 15.757812 14.1875 C 15.839844 14.257812 15.945312 14.289062 16.054688 14.28125 C 16.089844 14.28125 16.128906 14.273438 16.160156 14.265625 C 16.230469 14.238281 16.289062 14.199219 16.335938 14.144531 L 17.59375 12.707031 C 17.664062 12.628906 17.699219 12.523438 17.6875 12.414062 C 17.679688 12.304688 17.632812 12.210938 17.550781 12.140625 C 17.4375 12.046875 17.28125 12.019531 17.140625 12.070312 Z M 17.140625 12.066406 "/>
<path style=" stroke:none;fill-rule:nonzero;fill:rgb(92.941176%,41.176471%,36.078431%);fill-opacity:1;" d="M 26.355469 12.066406 C 26.421875 12.089844 26.484375 12.128906 26.527344 12.1875 L 27.789062 13.621094 C 27.859375 13.707031 27.894531 13.808594 27.882812 13.914062 C 27.875 14.023438 27.824219 14.117188 27.742188 14.1875 C 27.65625 14.257812 27.550781 14.289062 27.441406 14.28125 C 27.40625 14.28125 27.371094 14.273438 27.335938 14.265625 C 27.273438 14.238281 27.207031 14.199219 27.164062 14.144531 L 25.902344 12.707031 C 25.835938 12.628906 25.796875 12.523438 25.808594 12.414062 C 25.816406 12.304688 25.867188 12.210938 25.953125 12.140625 C 26.0625 12.046875 26.214844 12.019531 26.355469 12.070312 Z M 26.355469 12.066406 "/>
<path style=" stroke:none;fill-rule:nonzero;fill:rgb(92.941176%,41.176471%,36.078431%);fill-opacity:1;" d="M 21.371094 13.140625 C 21.335938 13.199219 21.316406 13.269531 21.316406 13.339844 L 21.3125 15.230469 C 21.3125 15.339844 21.355469 15.4375 21.433594 15.515625 C 21.507812 15.589844 21.613281 15.632812 21.71875 15.632812 C 21.832031 15.632812 21.933594 15.59375 22.015625 15.515625 C 22.039062 15.492188 22.058594 15.464844 22.078125 15.433594 C 22.117188 15.371094 22.132812 15.304688 22.132812 15.234375 L 22.140625 13.34375 C 22.140625 13.234375 22.097656 13.132812 22.019531 13.058594 C 21.9375 12.980469 21.835938 12.941406 21.726562 12.941406 C 21.582031 12.941406 21.441406 13.015625 21.371094 13.140625 Z M 21.371094 13.140625 "/>
<path style=" stroke:none;fill-rule:nonzero;fill:rgb(92.941176%,41.176471%,36.078431%);fill-opacity:1;" d="M 14.300781 24.410156 C 14.28125 24.402344 12.605469 23.460938 12.121094 21.648438 C 11.796875 20.433594 12.078125 19.101562 12.960938 17.683594 C 14.671875 14.929688 14.984375 11.773438 13.777344 9.449219 C 12.960938 7.878906 11.535156 6.898438 9.851562 6.75 C 5.496094 6.378906 2.269531 8.074219 1.261719 9.230469 C 0.375 10.234375 0.546875 12.683594 0.730469 14.054688 C 0.777344 14.394531 0.78125 14.746094 0.734375 15.089844 C 0.710938 15.265625 0.6875 15.476562 0.667969 15.703125 C 0.425781 18.03125 0.375 21.027344 1.5 22.085938 C 1.800781 22.367188 2.210938 22.546875 2.707031 22.644531 L 3.023438 23.582031 C 2.140625 23.929688 1.445312 24.378906 0.996094 24.714844 C 0.511719 25.078125 0.351562 25.714844 0.605469 26.222656 C 1.011719 27.035156 2.136719 28.050781 5.21875 28.273438 C 5.453125 28.289062 5.683594 28.296875 5.914062 28.296875 C 10.40625 28.296875 14.199219 25.179688 14.367188 25.039062 C 14.464844 24.957031 14.515625 24.835938 14.5 24.710938 C 14.492188 24.585938 14.414062 24.472656 14.304688 24.414062 Z M 1.511719 13.953125 C 1.476562 13.703125 1.453125 13.457031 1.429688 13.214844 C 2.296875 12.917969 3.804688 12.617188 5.613281 13.148438 C 7.175781 13.613281 7.75 14.164062 7.960938 14.554688 C 8.078125 14.769531 7.996094 15.042969 7.773438 15.164062 C 7.199219 15.476562 5.960938 15.953125 4.082031 15.664062 C 2.894531 15.476562 2.101562 15.382812 1.496094 15.363281 C 1.5 15.300781 1.511719 15.246094 1.515625 15.191406 C 1.570312 14.777344 1.566406 14.359375 1.511719 13.953125 Z M 5.273438 27.507812 C 2.425781 27.292969 1.574219 26.40625 1.3125 25.886719 C 1.222656 25.703125 1.285156 25.464844 1.472656 25.324219 C 1.871094 25.027344 2.488281 24.632812 3.269531 24.316406 L 3.644531 25.429688 C 3.699219 25.59375 3.855469 25.699219 4.019531 25.699219 C 4.058594 25.699219 4.101562 25.691406 4.140625 25.679688 C 4.347656 25.613281 4.460938 25.398438 4.394531 25.195312 L 3.886719 23.683594 L 3.566406 22.730469 C 4.707031 22.742188 6 22.445312 6.945312 22.164062 C 7.726562 21.929688 8.394531 21.480469 8.886719 20.851562 L 9.324219 20.289062 C 9.457031 20.117188 9.421875 19.875 9.246094 19.746094 C 9.074219 19.617188 8.824219 19.648438 8.695312 19.820312 L 8.253906 20.382812 C 7.867188 20.878906 7.335938 21.242188 6.714844 21.421875 C 5.855469 21.679688 4.234375 22.082031 3.054688 21.925781 C 3.046875 21.925781 3.039062 21.921875 3.035156 21.921875 C 2.59375 21.863281 2.257812 21.730469 2.042969 21.527344 C 1.386719 20.914062 1.160156 18.90625 1.414062 16.132812 C 1.984375 16.144531 2.777344 16.238281 3.953125 16.421875 C 4.40625 16.492188 4.832031 16.523438 5.21875 16.523438 C 6.640625 16.523438 7.632812 16.125 8.148438 15.839844 C 8.753906 15.511719 8.980469 14.773438 8.652344 14.191406 C 8.25 13.441406 7.300781 12.84375 5.839844 12.410156 C 3.960938 11.855469 2.367188 12.109375 1.375 12.414062 C 1.332031 11.113281 1.496094 10.132812 1.855469 9.730469 C 2.832031 8.609375 5.933594 7.1875 9.777344 7.519531 C 11.203125 7.640625 12.371094 8.449219 13.066406 9.792969 C 14.152344 11.886719 13.847656 14.757812 12.28125 17.28125 C 11.285156 18.886719 10.972656 20.417969 11.351562 21.839844 C 11.753906 23.332031 12.8125 24.304688 13.433594 24.769531 C 12.289062 25.597656 8.914062 27.769531 5.273438 27.503906 Z M 5.273438 27.507812 "/>
</g>
</svg>
