<?xml version="1.0" encoding="UTF-8"?>
<svg xmlns="http://www.w3.org/2000/svg" xmlns:xlink="http://www.w3.org/1999/xlink" width="28px" height="28px" viewBox="0 0 28 20" version="1.1">
<g id="surface1">
<path style=" stroke:none;fill-rule:nonzero;fill:rgb(92.941176%,41.176471%,36.078431%);fill-opacity:1;" d="M 24.664062 4.675781 L 3.007812 4.675781 C 2.675781 4.675781 2.40625 4.9375 2.40625 5.257812 L 2.40625 8.765625 C 2.40625 14.886719 7.53125 19.867188 13.835938 19.867188 C 20.136719 19.867188 25.261719 14.886719 25.261719 8.765625 L 25.261719 5.257812 C 25.261719 4.9375 24.992188 4.675781 24.660156 4.675781 Z M 24.0625 8.765625 C 24.0625 14.242188 19.472656 18.699219 13.835938 18.699219 C 8.195312 18.699219 3.609375 14.242188 3.609375 8.765625 L 3.609375 5.84375 L 24.0625 5.84375 Z M 24.0625 8.765625 "/>
<path style=" stroke:none;fill-rule:nonzero;fill:rgb(92.941176%,41.176471%,36.078431%);fill-opacity:1;" d="M 13.835938 7.011719 C 10.851562 7.011719 8.421875 9.371094 8.421875 12.273438 C 8.421875 15.171875 10.851562 17.53125 13.835938 17.53125 C 16.820312 17.53125 19.25 15.171875 19.25 12.273438 C 19.25 9.371094 16.820312 7.011719 13.835938 7.011719 Z M 13.835938 16.363281 C 11.511719 16.363281 9.625 14.527344 9.625 12.269531 C 9.625 10.015625 11.511719 8.179688 13.835938 8.179688 C 16.15625 8.179688 18.046875 10.015625 18.046875 12.269531 C 18.046875 14.527344 16.15625 16.363281 13.835938 16.363281 Z M 13.835938 16.363281 "/>
<path style=" stroke:none;fill-rule:nonzero;fill:rgb(92.941176%,41.176471%,36.078431%);fill-opacity:1;" d="M 13.835938 9.351562 C 12.175781 9.351562 10.828125 10.660156 10.828125 12.273438 C 10.828125 13.882812 12.175781 15.195312 13.835938 15.195312 C 15.492188 15.195312 16.84375 13.882812 16.84375 12.273438 C 16.84375 10.660156 15.492188 9.351562 13.835938 9.351562 Z M 13.835938 14.023438 C 12.839844 14.023438 12.03125 13.238281 12.03125 12.273438 C 12.03125 11.304688 12.839844 10.519531 13.835938 10.519531 C 14.832031 10.519531 15.640625 11.304688 15.640625 12.273438 C 15.640625 13.238281 14.832031 14.023438 13.835938 14.023438 Z M 13.835938 14.023438 "/>
<path style=" stroke:none;fill-rule:nonzero;fill:rgb(92.941176%,41.176471%,36.078431%);fill-opacity:1;" d="M 27.070312 0 L 0.601562 0 C 0.269531 0 0 0.261719 0 0.585938 L 0 4.089844 C 0 5.058594 0.808594 5.84375 1.804688 5.84375 L 25.867188 5.84375 C 26.863281 5.84375 27.671875 5.058594 27.671875 4.089844 L 27.671875 0.585938 C 27.671875 0.261719 27.402344 0 27.070312 0 Z M 26.46875 4.089844 C 26.46875 4.414062 26.195312 4.675781 25.867188 4.675781 L 1.804688 4.675781 C 1.472656 4.675781 1.203125 4.414062 1.203125 4.089844 L 1.203125 1.167969 L 26.464844 1.167969 L 26.464844 4.089844 Z M 26.46875 4.089844 "/>
<path style=" stroke:none;fill-rule:nonzero;fill:rgb(92.941176%,41.176471%,36.078431%);fill-opacity:1;" d="M 21.65625 8.765625 C 21.65625 9.089844 21.386719 9.351562 21.054688 9.351562 C 20.722656 9.351562 20.453125 9.089844 20.453125 8.765625 C 20.453125 8.441406 20.722656 8.179688 21.054688 8.179688 C 21.386719 8.179688 21.65625 8.441406 21.65625 8.765625 Z M 21.65625 8.765625 "/>
</g>
</svg>
