<?xml version="1.0" encoding="UTF-8"?>
<svg xmlns="http://www.w3.org/2000/svg" xmlns:xlink="http://www.w3.org/1999/xlink" width="28px" height="28px" viewBox="0 0 28 28" version="1.1">
<g id="surface1">
<path style=" stroke:none;fill-rule:nonzero;fill:rgb(92.941176%,41.176471%,36.078431%);fill-opacity:1;" d="M 24.664062 8.675781 L 3.007812 8.675781 C 2.675781 8.675781 2.40625 8.9375 2.40625 9.257812 L 2.40625 12.765625 C 2.40625 18.886719 7.53125 23.867188 13.835938 23.867188 C 20.136719 23.867188 25.261719 18.886719 25.261719 12.765625 L 25.261719 9.257812 C 25.261719 8.9375 24.992188 8.675781 24.660156 8.675781 Z M 24.0625 12.765625 C 24.0625 18.242188 19.472656 22.699219 13.835938 22.699219 C 8.195312 22.699219 3.609375 18.242188 3.609375 12.765625 L 3.609375 9.84375 L 24.0625 9.84375 Z M 24.0625 12.765625 "/>
<path style=" stroke:none;fill-rule:nonzero;fill:rgb(92.941176%,41.176471%,36.078431%);fill-opacity:1;" d="M 13.835938 11.011719 C 10.851562 11.011719 8.421875 13.371094 8.421875 16.273438 C 8.421875 19.171875 10.851562 21.53125 13.835938 21.53125 C 16.820312 21.53125 19.25 19.171875 19.25 16.273438 C 19.25 13.371094 16.820312 11.011719 13.835938 11.011719 Z M 13.835938 20.363281 C 11.511719 20.363281 9.625 18.527344 9.625 16.269531 C 9.625 14.015625 11.511719 12.179688 13.835938 12.179688 C 16.15625 12.179688 18.046875 14.015625 18.046875 16.269531 C 18.046875 18.527344 16.15625 20.363281 13.835938 20.363281 Z M 13.835938 20.363281 "/>
<path style=" stroke:none;fill-rule:nonzero;fill:rgb(92.941176%,41.176471%,36.078431%);fill-opacity:1;" d="M 13.835938 13.351562 C 12.175781 13.351562 10.828125 14.660156 10.828125 16.273438 C 10.828125 17.882812 12.175781 19.195312 13.835938 19.195312 C 15.492188 19.195312 16.84375 17.882812 16.84375 16.273438 C 16.84375 14.660156 15.492188 13.351562 13.835938 13.351562 Z M 13.835938 18.023438 C 12.839844 18.023438 12.03125 17.238281 12.03125 16.273438 C 12.03125 15.304688 12.839844 14.519531 13.835938 14.519531 C 14.832031 14.519531 15.640625 15.304688 15.640625 16.273438 C 15.640625 17.238281 14.832031 18.023438 13.835938 18.023438 Z M 13.835938 18.023438 "/>
<path style=" stroke:none;fill-rule:nonzero;fill:rgb(92.941176%,41.176471%,36.078431%);fill-opacity:1;" d="M 27.070312 4 L 0.601562 4 C 0.269531 4 0 4.261719 0 4.585938 L 0 8.089844 C 0 9.058594 0.808594 9.84375 1.804688 9.84375 L 25.867188 9.84375 C 26.863281 9.84375 27.671875 9.058594 27.671875 8.089844 L 27.671875 4.585938 C 27.671875 4.261719 27.402344 4 27.070312 4 Z M 26.46875 8.089844 C 26.46875 8.414062 26.195312 8.675781 25.867188 8.675781 L 1.804688 8.675781 C 1.472656 8.675781 1.203125 8.414062 1.203125 8.089844 L 1.203125 5.167969 L 26.464844 5.167969 L 26.464844 8.089844 Z M 26.46875 8.089844 "/>
<path style=" stroke:none;fill-rule:nonzero;fill:rgb(92.941176%,41.176471%,36.078431%);fill-opacity:1;" d="M 21.65625 12.765625 C 21.65625 13.089844 21.386719 13.351562 21.054688 13.351562 C 20.722656 13.351562 20.453125 13.089844 20.453125 12.765625 C 20.453125 12.441406 20.722656 12.179688 21.054688 12.179688 C 21.386719 12.179688 21.65625 12.441406 21.65625 12.765625 Z M 21.65625 12.765625 "/>
</g>
</svg>
