<?xml version="1.0" encoding="UTF-8"?>
<svg xmlns="http://www.w3.org/2000/svg" xmlns:xlink="http://www.w3.org/1999/xlink" width="28px" height="28px" viewBox="0 0 28 28" version="1.1">
<g id="surface1">
<path style=" stroke:none;fill-rule:nonzero;fill:rgb(92.941176%,41.176471%,36.078431%);fill-opacity:1;" d="M 22.285156 14.230469 C 22.253906 14.230469 22.222656 14.226562 22.191406 14.222656 L 5 11.171875 C 4.167969 11.023438 3.613281 10.230469 3.761719 9.398438 L 4.363281 6.003906 C 4.511719 5.171875 5.304688 4.617188 6.136719 4.765625 L 26.535156 8.382812 C 26.828125 8.433594 27.027344 8.714844 26.972656 9.007812 C 26.957031 9.105469 26.914062 9.195312 26.847656 9.269531 L 22.695312 14.042969 C 22.59375 14.164062 22.445312 14.230469 22.289062 14.230469 Z M 5.867188 5.824219 C 5.652344 5.824219 5.464844 5.980469 5.425781 6.195312 L 4.824219 9.589844 C 4.78125 9.832031 4.945312 10.066406 5.1875 10.109375 L 22.078125 13.105469 L 25.402344 9.28125 L 5.949219 5.832031 C 5.921875 5.824219 5.894531 5.824219 5.867188 5.824219 Z M 5.867188 5.824219 "/>
<path style=" stroke:none;fill-rule:nonzero;fill:rgb(92.941176%,41.176471%,36.078431%);fill-opacity:1;" d="M 23.949219 17.28125 C 23.917969 17.28125 23.886719 17.277344 23.855469 17.273438 L 5.597656 14.035156 C 4.765625 13.886719 4.210938 13.09375 4.355469 12.261719 L 4.65625 10.5625 C 4.710938 10.269531 4.992188 10.074219 5.285156 10.125 C 5.578125 10.179688 5.773438 10.460938 5.722656 10.753906 L 5.421875 12.453125 C 5.378906 12.695312 5.539062 12.925781 5.785156 12.96875 L 23.511719 16.113281 L 24.457031 10.769531 C 24.515625 10.476562 24.796875 10.285156 25.089844 10.339844 C 25.378906 10.398438 25.566406 10.667969 25.523438 10.957031 L 24.484375 16.832031 C 24.4375 17.09375 24.210938 17.28125 23.949219 17.28125 Z M 23.949219 17.28125 "/>
<path style=" stroke:none;fill-rule:nonzero;fill:rgb(92.941176%,41.176471%,36.078431%);fill-opacity:1;" d="M 26.46875 15.523438 C 26.433594 15.523438 26.402344 15.519531 26.371094 15.515625 L 24.234375 15.136719 C 23.941406 15.082031 23.746094 14.804688 23.796875 14.507812 L 24.460938 10.769531 C 24.511719 10.476562 24.792969 10.277344 25.085938 10.332031 L 27.226562 10.710938 C 27.519531 10.761719 27.714844 11.042969 27.664062 11.335938 L 27 15.078125 C 26.953125 15.335938 26.730469 15.523438 26.464844 15.523438 Z M 24.953125 14.164062 L 26.027344 14.355469 L 26.5 11.679688 L 25.429688 11.488281 Z M 24.953125 14.164062 "/>
<path style=" stroke:none;fill-rule:nonzero;fill:rgb(92.941176%,41.176471%,36.078431%);fill-opacity:1;" d="M 2.710938 27.671875 L 0.539062 27.671875 C 0.242188 27.671875 0 27.429688 0 27.128906 L 0 19.53125 C 0 19.234375 0.242188 18.992188 0.539062 18.992188 L 2.710938 18.992188 C 3.007812 18.992188 3.25 19.234375 3.25 19.53125 L 3.25 27.128906 C 3.25 27.429688 3.007812 27.671875 2.710938 27.671875 Z M 1.082031 26.589844 L 2.171875 26.589844 L 2.171875 20.074219 L 1.082031 20.074219 Z M 1.082031 26.589844 "/>
<path style=" stroke:none;fill-rule:nonzero;fill:rgb(92.941176%,41.176471%,36.078431%);fill-opacity:1;" d="M 4.882812 26.042969 L 2.710938 26.042969 C 2.414062 26.042969 2.171875 25.800781 2.171875 25.503906 L 2.171875 21.160156 C 2.171875 20.863281 2.414062 20.621094 2.710938 20.621094 L 4.882812 20.621094 C 5.179688 20.621094 5.421875 20.863281 5.421875 21.160156 L 5.421875 25.503906 C 5.421875 25.800781 5.179688 26.042969 4.882812 26.042969 Z M 3.25 24.960938 L 4.339844 24.960938 L 4.339844 21.699219 L 3.25 21.699219 Z M 3.25 24.960938 "/>
<path style=" stroke:none;fill-rule:nonzero;fill:rgb(92.941176%,41.176471%,36.078431%);fill-opacity:1;" d="M 11.71875 20.902344 C 11.417969 20.902344 11.175781 20.660156 11.179688 20.363281 C 11.179688 20.257812 11.210938 20.152344 11.269531 20.066406 L 14.710938 14.882812 C 14.878906 14.632812 15.214844 14.566406 15.460938 14.730469 C 15.710938 14.898438 15.777344 15.234375 15.613281 15.480469 L 12.167969 20.664062 C 12.070312 20.8125 11.898438 20.902344 11.71875 20.902344 Z M 11.71875 20.902344 "/>
<path style=" stroke:none;fill-rule:nonzero;fill:rgb(92.941176%,41.176471%,36.078431%);fill-opacity:1;" d="M 9.660156 20.074219 C 9.363281 20.074219 9.121094 19.832031 9.121094 19.535156 C 9.121094 19.429688 9.152344 19.324219 9.210938 19.234375 L 12.382812 14.46875 C 12.546875 14.21875 12.878906 14.152344 13.128906 14.316406 C 13.378906 14.480469 13.449219 14.8125 13.285156 15.0625 C 13.285156 15.066406 13.28125 15.066406 13.28125 15.066406 L 10.113281 19.835938 C 10.011719 19.984375 9.84375 20.074219 9.660156 20.074219 Z M 9.660156 20.074219 "/>
<path style=" stroke:none;fill-rule:nonzero;fill:rgb(92.941176%,41.176471%,36.078431%);fill-opacity:1;" d="M 8.136719 24.957031 L 4.882812 24.957031 C 4.582031 24.957031 4.339844 24.714844 4.339844 24.417969 L 4.339844 22.246094 C 4.339844 21.949219 4.582031 21.707031 4.882812 21.707031 L 7.050781 21.707031 C 7.351562 21.707031 7.59375 21.949219 7.59375 22.246094 C 7.59375 22.546875 7.351562 22.785156 7.050781 22.785156 L 5.421875 22.785156 L 5.421875 23.875 L 8.136719 23.875 C 8.4375 23.875 8.679688 24.117188 8.679688 24.417969 C 8.679688 24.714844 8.4375 24.957031 8.136719 24.957031 Z M 8.136719 24.957031 "/>
<path style=" stroke:none;fill-rule:nonzero;fill:rgb(92.941176%,41.176471%,36.078431%);fill-opacity:1;" d="M 9.765625 25.5 C 7.96875 25.5 6.511719 24.042969 6.511719 22.246094 C 6.511719 20.449219 7.96875 18.992188 9.765625 18.992188 C 11.5625 18.992188 13.019531 20.449219 13.019531 22.246094 C 13.015625 24.042969 11.5625 25.5 9.765625 25.5 Z M 9.765625 20.074219 C 8.566406 20.074219 7.59375 21.046875 7.59375 22.246094 C 7.59375 23.445312 8.566406 24.417969 9.765625 24.417969 C 10.964844 24.417969 11.9375 23.445312 11.9375 22.246094 C 11.9375 21.046875 10.964844 20.074219 9.765625 20.074219 Z M 9.765625 20.074219 "/>
<path style=" stroke:none;fill-rule:nonzero;fill:rgb(92.941176%,41.176471%,36.078431%);fill-opacity:1;" d="M 2.710938 5.964844 C 2.414062 5.964844 2.171875 5.722656 2.171875 5.425781 C 2.171875 3.628906 3.628906 2.171875 5.425781 2.171875 C 5.722656 2.171875 5.964844 2.414062 5.964844 2.710938 C 5.964844 3.007812 5.722656 3.25 5.425781 3.25 C 4.222656 3.253906 3.253906 4.226562 3.25 5.425781 C 3.25 5.722656 3.007812 5.964844 2.710938 5.964844 Z M 2.710938 5.964844 "/>
<path style=" stroke:none;fill-rule:nonzero;fill:rgb(92.941176%,41.176471%,36.078431%);fill-opacity:1;" d="M 0.539062 5.964844 C 0.242188 5.964844 0 5.722656 0 5.425781 C 0.00390625 2.429688 2.429688 0.00390625 5.425781 0 C 5.722656 0 5.964844 0.242188 5.964844 0.539062 C 5.964844 0.839844 5.722656 1.082031 5.425781 1.082031 C 3.027344 1.082031 1.082031 3.027344 1.082031 5.425781 C 1.082031 5.722656 0.839844 5.964844 0.539062 5.964844 Z M 0.539062 5.964844 "/>
</g>
</svg>
