<?xml version="1.0" encoding="UTF-8"?>
<svg xmlns="http://www.w3.org/2000/svg" xmlns:xlink="http://www.w3.org/1999/xlink" width="28px" height="28px" viewBox="0 0 28 33" version="1.1">
<g id="surface1">
<path style=" stroke:none;fill-rule:nonzero;fill:rgb(92.941176%,41.176471%,36.078431%);fill-opacity:1;" d="M 13.75 33 C 10.90625 33 8.59375 30.683594 8.59375 27.84375 C 8.59375 27.273438 9.054688 26.808594 9.625 26.808594 C 10.195312 26.808594 10.660156 27.273438 10.660156 27.84375 C 10.660156 29.546875 12.046875 30.9375 13.753906 30.9375 C 15.460938 30.9375 16.851562 29.546875 16.851562 27.84375 C 16.851562 27.273438 17.3125 26.808594 17.882812 26.808594 C 18.453125 26.808594 18.917969 27.273438 18.917969 27.84375 C 18.917969 30.683594 16.601562 33 13.757812 33 Z M 13.75 33 Z M 13.75 33 "/>
<path style=" stroke:none;fill-rule:nonzero;fill:rgb(92.941176%,41.176471%,36.078431%);fill-opacity:1;" d="M 25.09375 28.875 L 2.40625 28.875 C 1.078125 28.875 0 27.796875 0 26.46875 C 0 25.765625 0.304688 25.097656 0.84375 24.640625 C 2.933594 22.871094 4.125 20.304688 4.125 17.585938 L 4.125 13.75 C 4.125 8.441406 8.445312 4.125 13.75 4.125 C 19.054688 4.125 23.375 8.441406 23.375 13.75 L 23.375 17.585938 C 23.375 20.304688 24.570312 22.875 26.644531 24.628906 C 27.195312 25.097656 27.5 25.761719 27.5 26.46875 C 27.5 27.796875 26.421875 28.875 25.09375 28.875 Z M 13.75 6.1875 C 9.582031 6.1875 6.1875 9.578125 6.1875 13.75 L 6.1875 17.585938 C 6.1875 20.910156 4.726562 24.054688 2.1875 26.207031 C 2.136719 26.246094 2.0625 26.332031 2.0625 26.46875 C 2.0625 26.65625 2.21875 26.8125 2.40625 26.8125 L 25.09375 26.8125 C 25.28125 26.8125 25.4375 26.65625 25.4375 26.46875 C 25.4375 26.332031 25.363281 26.246094 25.316406 26.210938 C 22.773438 24.054688 21.3125 20.914062 21.3125 17.585938 L 21.3125 13.75 C 21.3125 9.578125 17.921875 6.1875 13.75 6.1875 Z M 13.75 6.1875 Z M 13.75 6.1875 "/>
<path style=" stroke:none;fill-rule:nonzero;fill:rgb(92.941176%,41.176471%,36.078431%);fill-opacity:1;" d="M 13.75 6.1875 C 13.179688 6.1875 12.71875 5.722656 12.71875 5.152344 L 12.71875 1.027344 C 12.71875 0.457031 13.179688 -0.00390625 13.75 -0.00390625 C 14.320312 -0.00390625 14.785156 0.457031 14.785156 1.027344 L 14.785156 5.152344 C 14.785156 5.722656 14.320312 6.1875 13.75 6.1875 Z M 13.75 6.1875 Z M 13.75 6.1875 "/>
</g>
</svg>
