<?xml version="1.0" encoding="UTF-8"?>
<svg xmlns="http://www.w3.org/2000/svg" xmlns:xlink="http://www.w3.org/1999/xlink" width="28px" height="28px" viewBox="0 0 28 28" version="1.1">
<g id="surface1">
<path style=" stroke:none;fill-rule:nonzero;fill:rgb(92.941176%,41.176471%,36.078431%);fill-opacity:1;" d="M 13.789062 28 C 11.375 28 9.414062 26.035156 9.414062 23.625 C 9.414062 23.140625 9.804688 22.746094 10.289062 22.746094 C 10.773438 22.746094 11.167969 23.140625 11.167969 23.625 C 11.167969 25.070312 12.34375 26.25 13.792969 26.25 C 15.238281 26.25 16.417969 25.070312 16.417969 23.625 C 16.417969 23.140625 16.8125 22.746094 17.292969 22.746094 C 17.777344 22.746094 18.171875 23.140625 18.171875 23.625 C 18.171875 26.035156 16.207031 28 13.792969 28 Z M 13.789062 28 Z M 13.789062 28 "/>
<path style=" stroke:none;fill-rule:nonzero;fill:rgb(92.941176%,41.176471%,36.078431%);fill-opacity:1;" d="M 23.414062 24.5 L 4.164062 24.5 C 3.035156 24.5 2.121094 23.585938 2.121094 22.457031 C 2.121094 21.863281 2.378906 21.296875 2.835938 20.90625 C 4.609375 19.40625 5.621094 17.226562 5.621094 14.921875 L 5.621094 11.667969 C 5.621094 7.164062 9.285156 3.5 13.789062 3.5 C 18.289062 3.5 21.953125 7.164062 21.953125 11.667969 L 21.953125 14.921875 C 21.953125 17.226562 22.96875 19.410156 24.730469 20.898438 C 25.195312 21.296875 25.453125 21.859375 25.453125 22.457031 C 25.453125 23.585938 24.539062 24.5 23.414062 24.5 Z M 13.789062 5.25 C 10.25 5.25 7.371094 8.125 7.371094 11.667969 L 7.371094 14.921875 C 7.371094 17.742188 6.132812 20.410156 3.976562 22.234375 C 3.933594 22.269531 3.871094 22.34375 3.871094 22.457031 C 3.871094 22.617188 4.003906 22.75 4.164062 22.75 L 23.414062 22.75 C 23.570312 22.75 23.703125 22.617188 23.703125 22.457031 C 23.703125 22.34375 23.640625 22.269531 23.601562 22.238281 C 21.445312 20.410156 20.203125 17.746094 20.203125 14.921875 L 20.203125 11.667969 C 20.203125 8.125 17.328125 5.25 13.789062 5.25 Z M 13.789062 5.25 Z M 13.789062 5.25 "/>
<path style=" stroke:none;fill-rule:nonzero;fill:rgb(92.941176%,41.176471%,36.078431%);fill-opacity:1;" d="M 13.789062 5.25 C 13.304688 5.25 12.914062 4.855469 12.914062 4.371094 L 12.914062 0.871094 C 12.914062 0.386719 13.304688 -0.00390625 13.789062 -0.00390625 C 14.273438 -0.00390625 14.667969 0.386719 14.667969 0.871094 L 14.667969 4.371094 C 14.667969 4.855469 14.273438 5.25 13.789062 5.25 Z M 13.789062 5.25 Z M 13.789062 5.25 "/>
</g>
</svg>
