<?xml version="1.0" encoding="UTF-8"?>
<svg xmlns="http://www.w3.org/2000/svg" xmlns:xlink="http://www.w3.org/1999/xlink" width="28px" height="28px" viewBox="0 0 28 28" version="1.1">
<g id="surface1">
<path style=" stroke:none;fill-rule:nonzero;fill:rgb(92.941176%,41.176471%,36.078431%);fill-opacity:1;" d="M 26.386719 12.542969 C 25.894531 12.542969 25.488281 12.148438 25.488281 11.667969 C 25.488281 8.3125 24.148438 5.167969 21.71875 2.796875 C 21.367188 2.453125 21.367188 1.898438 21.71875 1.558594 C 22.066406 1.214844 22.636719 1.214844 22.992188 1.558594 C 25.761719 4.257812 27.285156 7.847656 27.285156 11.667969 C 27.285156 12.148438 26.878906 12.542969 26.386719 12.542969 Z M 26.386719 12.542969 Z M 26.386719 12.542969 "/>
<path style=" stroke:none;fill-rule:nonzero;fill:rgb(92.941176%,41.176471%,36.078431%);fill-opacity:1;" d="M 1.832031 12.542969 C 1.339844 12.542969 0.933594 12.148438 0.933594 11.667969 C 0.933594 7.847656 2.460938 4.257812 5.230469 1.558594 C 5.585938 1.21875 6.152344 1.21875 6.503906 1.558594 C 6.855469 1.902344 6.855469 2.457031 6.503906 2.796875 C 4.074219 5.167969 2.730469 8.3125 2.730469 11.667969 C 2.730469 12.148438 2.324219 12.542969 1.832031 12.542969 Z M 1.832031 12.542969 Z M 1.832031 12.542969 "/>
<path style=" stroke:none;fill-rule:nonzero;fill:rgb(92.941176%,41.176471%,36.078431%);fill-opacity:1;" d="M 14.109375 28 C 11.632812 28 9.617188 26.039062 9.617188 23.625 C 9.617188 23.144531 10.019531 22.75 10.515625 22.75 C 11.011719 22.75 11.414062 23.144531 11.414062 23.625 C 11.414062 25.074219 12.621094 26.25 14.109375 26.25 C 15.59375 26.25 16.804688 25.074219 16.804688 23.625 C 16.804688 23.144531 17.207031 22.75 17.699219 22.75 C 18.195312 22.75 18.601562 23.144531 18.601562 23.625 C 18.601562 26.039062 16.585938 28 14.109375 28 Z M 14.109375 28 Z M 14.109375 28 "/>
<path style=" stroke:none;fill-rule:nonzero;fill:rgb(92.941176%,41.176471%,36.078431%);fill-opacity:1;" d="M 23.988281 24.5 L 4.226562 24.5 C 3.070312 24.5 2.128906 23.585938 2.128906 22.457031 C 2.128906 21.859375 2.398438 21.296875 2.867188 20.90625 C 4.683594 19.40625 5.722656 17.226562 5.722656 14.917969 L 5.722656 11.667969 C 5.722656 7.164062 9.484375 3.5 14.109375 3.5 C 18.730469 3.5 22.496094 7.164062 22.496094 11.667969 L 22.496094 14.917969 C 22.496094 17.226562 23.535156 19.40625 25.34375 20.898438 C 25.820312 21.296875 26.085938 21.863281 26.085938 22.457031 C 26.085938 23.585938 25.144531 24.5 23.988281 24.5 Z M 14.109375 5.25 C 10.476562 5.25 7.519531 8.125 7.519531 11.667969 L 7.519531 14.917969 C 7.519531 17.746094 6.25 20.414062 4.035156 22.234375 C 3.992188 22.269531 3.925781 22.339844 3.925781 22.457031 C 3.925781 22.617188 4.066406 22.75 4.226562 22.75 L 23.988281 22.75 C 24.152344 22.75 24.292969 22.617188 24.292969 22.457031 C 24.292969 22.339844 24.222656 22.273438 24.1875 22.238281 C 21.96875 20.414062 20.699219 17.746094 20.699219 14.921875 L 20.699219 11.671875 C 20.699219 8.128906 17.746094 5.25 14.109375 5.25 Z M 14.109375 5.25 Z M 14.109375 5.25 "/>
<path style=" stroke:none;fill-rule:nonzero;fill:rgb(92.941176%,41.176471%,36.078431%);fill-opacity:1;" d="M 14.109375 5.25 C 13.613281 5.25 13.207031 4.855469 13.207031 4.375 L 13.207031 0.875 C 13.207031 0.394531 13.613281 0 14.109375 0 C 14.605469 0 15.007812 0.394531 15.007812 0.875 L 15.007812 4.375 C 15.007812 4.855469 14.605469 5.25 14.109375 5.25 Z M 14.109375 5.25 Z M 14.109375 5.25 "/>
</g>
</svg>
