<?xml version="1.0" encoding="UTF-8"?>
<svg xmlns="http://www.w3.org/2000/svg" xmlns:xlink="http://www.w3.org/1999/xlink" width="28px" height="28px" viewBox="0 0 28 30" version="1.1">
<g id="surface1">
<path style=" stroke:none;fill-rule:nonzero;fill:rgb(92.941176%,41.176471%,36.078431%);fill-opacity:1;" d="M 27.273438 13.4375 C 26.742188 13.4375 26.308594 13.015625 26.308594 12.5 C 26.308594 8.90625 24.875 5.535156 22.269531 2.996094 C 21.894531 2.628906 21.894531 2.035156 22.269531 1.667969 C 22.644531 1.300781 23.253906 1.300781 23.632812 1.667969 C 26.601562 4.5625 28.234375 8.40625 28.234375 12.5 C 28.234375 13.015625 27.800781 13.4375 27.273438 13.4375 Z M 27.273438 13.4375 Z M 27.273438 13.4375 "/>
<path style=" stroke:none;fill-rule:nonzero;fill:rgb(92.941176%,41.176471%,36.078431%);fill-opacity:1;" d="M 0.964844 13.4375 C 0.433594 13.4375 0 13.015625 0 12.5 C 0 8.410156 1.636719 4.5625 4.605469 1.671875 C 4.984375 1.304688 5.589844 1.304688 5.96875 1.671875 C 6.34375 2.039062 6.34375 2.632812 5.96875 2.996094 C 3.363281 5.535156 1.925781 8.90625 1.925781 12.5 C 1.925781 13.015625 1.492188 13.4375 0.964844 13.4375 Z M 0.964844 13.4375 Z M 0.964844 13.4375 "/>
<path style=" stroke:none;fill-rule:nonzero;fill:rgb(92.941176%,41.176471%,36.078431%);fill-opacity:1;" d="M 14.117188 30 C 11.464844 30 9.304688 27.898438 9.304688 25.3125 C 9.304688 24.796875 9.734375 24.375 10.265625 24.375 C 10.796875 24.375 11.230469 24.796875 11.230469 25.3125 C 11.230469 26.863281 12.523438 28.125 14.117188 28.125 C 15.707031 28.125 17.003906 26.863281 17.003906 25.3125 C 17.003906 24.796875 17.4375 24.375 17.964844 24.375 C 18.496094 24.375 18.929688 24.796875 18.929688 25.3125 C 18.929688 27.898438 16.769531 30 14.117188 30 Z M 14.117188 30 Z M 14.117188 30 "/>
<path style=" stroke:none;fill-rule:nonzero;fill:rgb(92.941176%,41.176471%,36.078431%);fill-opacity:1;" d="M 24.703125 26.25 L 3.527344 26.25 C 2.289062 26.25 1.28125 25.269531 1.28125 24.0625 C 1.28125 23.421875 1.570312 22.816406 2.070312 22.398438 C 4.019531 20.792969 5.132812 18.457031 5.132812 15.984375 L 5.132812 12.5 C 5.132812 7.675781 9.160156 3.75 14.117188 3.75 C 19.070312 3.75 23.101562 7.675781 23.101562 12.5 L 23.101562 15.984375 C 23.101562 18.457031 24.214844 20.792969 26.152344 22.390625 C 26.664062 22.816406 26.949219 23.425781 26.949219 24.0625 C 26.949219 25.269531 25.941406 26.25 24.703125 26.25 Z M 14.117188 5.625 C 10.226562 5.625 7.058594 8.707031 7.058594 12.5 L 7.058594 15.984375 C 7.058594 19.011719 5.695312 21.871094 3.324219 23.824219 C 3.277344 23.859375 3.207031 23.9375 3.207031 24.0625 C 3.207031 24.234375 3.355469 24.375 3.527344 24.375 L 24.703125 24.375 C 24.878906 24.375 25.027344 24.234375 25.027344 24.0625 C 25.027344 23.9375 24.953125 23.863281 24.914062 23.828125 C 22.539062 21.871094 21.175781 19.011719 21.175781 15.988281 L 21.175781 12.503906 C 21.175781 8.710938 18.011719 5.625 14.117188 5.625 Z M 14.117188 5.625 Z M 14.117188 5.625 "/>
<path style=" stroke:none;fill-rule:nonzero;fill:rgb(92.941176%,41.176471%,36.078431%);fill-opacity:1;" d="M 14.117188 5.625 C 13.585938 5.625 13.152344 5.203125 13.152344 4.6875 L 13.152344 0.9375 C 13.152344 0.421875 13.585938 0 14.117188 0 C 14.648438 0 15.078125 0.421875 15.078125 0.9375 L 15.078125 4.6875 C 15.078125 5.203125 14.648438 5.625 14.117188 5.625 Z M 14.117188 5.625 Z M 14.117188 5.625 "/>
</g>
</svg>
