<?xml version="1.0" encoding="UTF-8"?>
<svg xmlns="http://www.w3.org/2000/svg" xmlns:xlink="http://www.w3.org/1999/xlink" width="28px" height="28px" viewBox="0 0 28 22" version="1.1">
<g id="surface1">
<path style=" stroke:none;fill-rule:evenodd;fill:rgb(92.941176%,41.176471%,36.078431%);fill-opacity:1;" d="M 23.230469 10.097656 C 22.90625 10.097656 22.6875 9.671875 22.90625 9.453125 C 23.609375 8.707031 23.609375 7.585938 22.90625 6.890625 C 22.585938 6.515625 23.121094 5.980469 23.5 6.300781 C 24.472656 7.320312 24.472656 8.972656 23.5 9.933594 C 23.390625 10.042969 23.335938 10.097656 23.230469 10.097656 Z M 20.585938 16.347656 L 19.398438 16.347656 C 19.398438 17.097656 19.398438 17.628906 19.019531 18.324219 C 19.234375 18.324219 19.398438 18.488281 19.398438 18.699219 L 19.398438 21.957031 C 19.398438 22.171875 19.234375 22.332031 19.019531 22.332031 L 10.8125 22.332031 C 10.597656 22.332031 10.4375 22.171875 10.4375 21.957031 L 10.4375 18.699219 C 10.4375 18.539062 10.542969 18.378906 10.707031 18.324219 C 10.328125 17.632812 10.277344 17.097656 10.277344 16.347656 L 7.632812 16.347656 C 7.039062 16.347656 6.550781 15.867188 6.550781 15.222656 L 6.550781 1.125 C 6.550781 0.480469 7.039062 0 7.632812 0 L 20.589844 0 C 21.238281 0 21.722656 0.480469 21.722656 1.125 L 21.722656 15.222656 C 21.722656 15.8125 21.238281 16.347656 20.589844 16.347656 Z M 18.695312 13.085938 C 18.695312 12.820312 18.425781 12.875 18.265625 12.875 C 17.78125 12.875 18.429688 14.050781 17.671875 14.050781 C 16.757812 14.050781 17.78125 12.234375 16.808594 12.234375 C 15.890625 12.234375 16.863281 14.050781 15.945312 14.050781 C 15.730469 14.050781 15.566406 13.886719 15.566406 13.675781 L 15.566406 11.914062 C 15.566406 11.328125 14.59375 11.328125 14.59375 11.914062 L 14.59375 13.675781 C 14.59375 14.210938 13.785156 14.210938 13.785156 13.675781 L 13.785156 8.171875 C 13.785156 7.585938 12.871094 7.585938 12.871094 8.171875 L 12.871094 15.652344 C 12.871094 16.1875 12.0625 16.1875 12.0625 15.652344 L 12.0625 13.785156 L 10.980469 11.96875 C 10.601562 11.328125 9.953125 11.808594 9.578125 12.023438 L 11.035156 14.535156 C 11.144531 14.640625 11.09375 16.457031 11.09375 16.726562 C 11.09375 17.3125 11.257812 17.847656 11.632812 18.328125 L 18.167969 18.328125 C 18.546875 17.847656 18.707031 17.261719 18.707031 16.675781 C 18.707031 15.5 18.707031 14.269531 18.707031 13.097656 Z M 19.398438 15.546875 L 20.585938 15.546875 C 20.800781 15.546875 20.964844 15.386719 20.964844 15.226562 L 20.964844 1.128906 C 20.964844 0.914062 20.800781 0.753906 20.585938 0.753906 L 7.628906 0.753906 C 7.464844 0.753906 7.304688 0.914062 7.304688 1.128906 L 7.304688 15.226562 C 7.304688 15.390625 7.46875 15.546875 7.628906 15.546875 L 10.273438 15.546875 L 10.273438 14.796875 L 8.652344 12.125 C 8.59375 11.914062 8.652344 11.699219 8.816406 11.589844 L 9.730469 11.054688 C 10.433594 10.679688 11.296875 10.949219 11.675781 11.589844 L 12.054688 12.285156 L 12.054688 10.199219 C 10.972656 9.664062 10.273438 8.542969 10.273438 7.3125 C 10.214844 5.605469 11.621094 4.21875 13.402344 4.21875 C 15.183594 4.21875 16.589844 5.605469 16.589844 7.371094 C 16.589844 8.652344 15.78125 9.773438 14.589844 10.308594 L 14.589844 10.789062 C 15.074219 10.523438 15.992188 10.789062 16.210938 11.589844 C 16.859375 11.324219 17.5625 11.589844 17.882812 12.175781 C 18.535156 12.015625 19.398438 12.234375 19.398438 13.082031 Z M 14.59375 9.457031 C 16.753906 8.230469 15.835938 5.023438 13.40625 5.023438 C 11.085938 5.023438 10.113281 8.015625 12.058594 9.351562 L 12.058594 8.175781 C 12.058594 7.535156 12.648438 6.949219 13.351562 6.949219 C 14 6.949219 14.59375 7.535156 14.59375 8.175781 Z M 11.25 19.074219 L 11.25 21.585938 L 18.589844 21.585938 L 18.589844 19.074219 C 16.160156 19.074219 13.679688 19.074219 11.25 19.074219 Z M 2.070312 12.554688 C 1.964844 12.554688 1.855469 12.554688 1.75 12.449219 C -0.574219 10.101562 -0.574219 6.253906 1.75 3.902344 C 2.128906 3.527344 2.71875 4.0625 2.34375 4.4375 C 0.289062 6.523438 0.289062 9.886719 2.34375 11.917969 C 2.558594 12.183594 2.398438 12.558594 2.070312 12.558594 Z M 3.257812 11.328125 C 3.152344 11.328125 3.042969 11.269531 2.933594 11.21875 C 1.3125 9.507812 1.3125 6.785156 2.933594 5.132812 C 3.3125 4.757812 3.90625 5.292969 3.527344 5.667969 C 2.179688 7.054688 2.179688 9.300781 3.527344 10.6875 C 3.742188 10.902344 3.636719 11.332031 3.257812 11.332031 Z M 4.445312 10.097656 C 3.742188 10.097656 2.714844 7.800781 4.175781 6.355469 C 4.550781 5.980469 5.089844 6.570312 4.714844 6.945312 C 4.066406 7.636719 4.066406 8.761719 4.714844 9.507812 C 4.929688 9.671875 4.878906 10.097656 4.445312 10.097656 Z M 25.609375 12.554688 C 25.289062 12.554688 25.070312 12.179688 25.339844 11.914062 C 27.390625 9.828125 27.390625 6.464844 25.339844 4.433594 C 24.960938 4.058594 25.554688 3.472656 25.933594 3.847656 C 28.257812 6.195312 28.257812 10.042969 25.933594 12.445312 C 25.828125 12.550781 25.71875 12.550781 25.609375 12.550781 Z M 24.425781 11.328125 C 24.101562 11.328125 23.9375 10.902344 24.152344 10.683594 C 25.503906 9.296875 25.503906 7 24.152344 5.664062 C 23.773438 5.289062 24.316406 4.703125 24.746094 5.128906 C 26.367188 6.78125 26.367188 9.503906 24.746094 11.214844 C 24.640625 11.269531 24.53125 11.324219 24.425781 11.324219 Z M 24.425781 11.328125 "/>
</g>
</svg>
