<?xml version="1.0" encoding="UTF-8"?>
<svg xmlns="http://www.w3.org/2000/svg" xmlns:xlink="http://www.w3.org/1999/xlink" width="28px" height="28px" viewBox="0 0 28 28" version="1.1">
<g id="surface1">
<path style=" stroke:none;fill-rule:evenodd;fill:rgb(92.941176%,41.176471%,36.078431%);fill-opacity:1;" d="M 23.230469 13.097656 C 22.90625 13.097656 22.6875 12.671875 22.90625 12.453125 C 23.609375 11.707031 23.609375 10.585938 22.90625 9.890625 C 22.585938 9.515625 23.121094 8.980469 23.5 9.300781 C 24.472656 10.320312 24.472656 11.972656 23.5 12.933594 C 23.390625 13.042969 23.335938 13.097656 23.230469 13.097656 Z M 20.585938 19.347656 L 19.398438 19.347656 C 19.398438 20.097656 19.398438 20.628906 19.019531 21.324219 C 19.234375 21.324219 19.398438 21.488281 19.398438 21.699219 L 19.398438 24.957031 C 19.398438 25.171875 19.234375 25.332031 19.019531 25.332031 L 10.8125 25.332031 C 10.597656 25.332031 10.4375 25.171875 10.4375 24.957031 L 10.4375 21.699219 C 10.4375 21.539062 10.542969 21.378906 10.707031 21.324219 C 10.328125 20.632812 10.277344 20.097656 10.277344 19.347656 L 7.632812 19.347656 C 7.039062 19.347656 6.550781 18.867188 6.550781 18.222656 L 6.550781 4.125 C 6.550781 3.480469 7.039062 3 7.632812 3 L 20.589844 3 C 21.238281 3 21.722656 3.480469 21.722656 4.125 L 21.722656 18.222656 C 21.722656 18.8125 21.238281 19.347656 20.589844 19.347656 Z M 18.695312 16.085938 C 18.695312 15.820312 18.425781 15.875 18.265625 15.875 C 17.78125 15.875 18.429688 17.050781 17.671875 17.050781 C 16.757812 17.050781 17.78125 15.234375 16.808594 15.234375 C 15.890625 15.234375 16.863281 17.050781 15.945312 17.050781 C 15.730469 17.050781 15.566406 16.886719 15.566406 16.675781 L 15.566406 14.914062 C 15.566406 14.328125 14.59375 14.328125 14.59375 14.914062 L 14.59375 16.675781 C 14.59375 17.210938 13.785156 17.210938 13.785156 16.675781 L 13.785156 11.171875 C 13.785156 10.585938 12.871094 10.585938 12.871094 11.171875 L 12.871094 18.652344 C 12.871094 19.1875 12.0625 19.1875 12.0625 18.652344 L 12.0625 16.785156 L 10.980469 14.96875 C 10.601562 14.328125 9.953125 14.808594 9.578125 15.023438 L 11.035156 17.535156 C 11.144531 17.640625 11.09375 19.457031 11.09375 19.726562 C 11.09375 20.3125 11.257812 20.847656 11.632812 21.328125 L 18.167969 21.328125 C 18.546875 20.847656 18.707031 20.261719 18.707031 19.675781 C 18.707031 18.5 18.707031 17.269531 18.707031 16.097656 Z M 19.398438 18.546875 L 20.585938 18.546875 C 20.800781 18.546875 20.964844 18.386719 20.964844 18.226562 L 20.964844 4.128906 C 20.964844 3.914062 20.800781 3.753906 20.585938 3.753906 L 7.628906 3.753906 C 7.464844 3.753906 7.304688 3.914062 7.304688 4.128906 L 7.304688 18.226562 C 7.304688 18.390625 7.46875 18.546875 7.628906 18.546875 L 10.273438 18.546875 L 10.273438 17.796875 L 8.652344 15.125 C 8.59375 14.914062 8.652344 14.699219 8.816406 14.589844 L 9.730469 14.054688 C 10.433594 13.679688 11.296875 13.949219 11.675781 14.589844 L 12.054688 15.285156 L 12.054688 13.199219 C 10.972656 12.664062 10.273438 11.542969 10.273438 10.3125 C 10.214844 8.605469 11.621094 7.21875 13.402344 7.21875 C 15.183594 7.21875 16.589844 8.605469 16.589844 10.371094 C 16.589844 11.652344 15.78125 12.773438 14.589844 13.308594 L 14.589844 13.789062 C 15.074219 13.523438 15.992188 13.789062 16.210938 14.589844 C 16.859375 14.324219 17.5625 14.589844 17.882812 15.175781 C 18.535156 15.015625 19.398438 15.234375 19.398438 16.082031 Z M 14.59375 12.457031 C 16.753906 11.230469 15.835938 8.023438 13.40625 8.023438 C 11.085938 8.023438 10.113281 11.015625 12.058594 12.351562 L 12.058594 11.175781 C 12.058594 10.535156 12.648438 9.949219 13.351562 9.949219 C 14 9.949219 14.59375 10.535156 14.59375 11.175781 Z M 11.25 22.074219 L 11.25 24.585938 L 18.589844 24.585938 L 18.589844 22.074219 C 16.160156 22.074219 13.679688 22.074219 11.25 22.074219 Z M 2.070312 15.554688 C 1.964844 15.554688 1.855469 15.554688 1.75 15.449219 C -0.574219 13.101562 -0.574219 9.253906 1.75 6.902344 C 2.128906 6.527344 2.71875 7.0625 2.34375 7.4375 C 0.289062 9.523438 0.289062 12.886719 2.34375 14.917969 C 2.558594 15.183594 2.398438 15.558594 2.070312 15.558594 Z M 3.257812 14.328125 C 3.152344 14.328125 3.042969 14.269531 2.933594 14.21875 C 1.3125 12.507812 1.3125 9.785156 2.933594 8.132812 C 3.3125 7.757812 3.90625 8.292969 3.527344 8.667969 C 2.179688 10.054688 2.179688 12.300781 3.527344 13.6875 C 3.742188 13.902344 3.636719 14.332031 3.257812 14.332031 Z M 4.445312 13.097656 C 3.742188 13.097656 2.714844 10.800781 4.175781 9.355469 C 4.550781 8.980469 5.089844 9.570312 4.714844 9.945312 C 4.066406 10.636719 4.066406 11.761719 4.714844 12.507812 C 4.929688 12.671875 4.878906 13.097656 4.445312 13.097656 Z M 25.609375 15.554688 C 25.289062 15.554688 25.070312 15.179688 25.339844 14.914062 C 27.390625 12.828125 27.390625 9.464844 25.339844 7.433594 C 24.960938 7.058594 25.554688 6.472656 25.933594 6.847656 C 28.257812 9.195312 28.257812 13.042969 25.933594 15.445312 C 25.828125 15.550781 25.71875 15.550781 25.609375 15.550781 Z M 24.425781 14.328125 C 24.101562 14.328125 23.9375 13.902344 24.152344 13.683594 C 25.503906 12.296875 25.503906 10 24.152344 8.664062 C 23.773438 8.289062 24.316406 7.703125 24.746094 8.128906 C 26.367188 9.78125 26.367188 12.503906 24.746094 14.214844 C 24.640625 14.269531 24.53125 14.324219 24.425781 14.324219 Z M 24.425781 14.328125 "/>
</g>
</svg>
