<?xml version="1.0" encoding="UTF-8"?>
<svg xmlns="http://www.w3.org/2000/svg" xmlns:xlink="http://www.w3.org/1999/xlink" width="28px" height="28px" viewBox="0 0 28 43" version="1.1">
<g id="surface1">
<path style=" stroke:none;fill-rule:nonzero;fill:rgb(92.941176%,41.176471%,36.078431%);fill-opacity:1;" d="M 21.191406 0 L 6.84375 0 C 3.097656 0 0.00390625 3.023438 0.00390625 6.796875 L 0.00390625 35.734375 C 0.00390625 39.457031 3.097656 42.480469 6.84375 42.480469 L 21.191406 42.480469 C 24.9375 42.480469 28.03125 39.457031 28.03125 35.683594 L 28.03125 6.796875 C 28.03125 3.023438 24.9375 0 21.191406 0 Z M 6.84375 1.410156 L 21.191406 1.410156 C 24.183594 1.410156 26.609375 3.824219 26.609375 6.796875 L 26.609375 18.316406 L 1.425781 18.316406 L 1.425781 6.796875 C 1.425781 3.824219 3.851562 1.410156 6.84375 1.410156 Z M 21.191406 41.070312 L 6.84375 41.070312 C 3.851562 41.070312 1.425781 38.660156 1.425781 35.683594 L 1.425781 19.730469 L 26.558594 19.730469 L 26.558594 35.734375 C 26.609375 38.660156 24.183594 41.070312 21.191406 41.070312 Z M 21.191406 41.070312 "/>
<path style=" stroke:none;fill-rule:nonzero;fill:rgb(92.941176%,41.176471%,36.078431%);fill-opacity:1;" d="M 14.023438 12.746094 C 16.589844 12.746094 18.675781 10.671875 18.675781 8.121094 C 18.675781 5.574219 16.589844 3.5 14.023438 3.5 C 11.457031 3.5 9.371094 5.574219 9.371094 8.121094 C 9.371094 10.671875 11.457031 12.746094 14.023438 12.746094 Z M 14.023438 4.910156 C 15.785156 4.910156 17.253906 6.324219 17.253906 8.121094 C 17.253906 9.871094 15.832031 11.332031 14.023438 11.332031 C 12.261719 11.332031 10.792969 9.921875 10.792969 8.121094 C 10.792969 6.371094 12.261719 4.910156 14.023438 4.910156 Z M 14.023438 4.910156 "/>
<path style=" stroke:none;fill-rule:nonzero;fill:rgb(92.941176%,41.176471%,36.078431%);fill-opacity:1;" d="M 14.023438 22.242188 C 11.835938 22.242188 9.796875 23.089844 8.226562 24.601562 C 5.046875 27.761719 5.046875 32.910156 8.226562 36.070312 C 9.835938 37.671875 11.9375 38.433594 14.023438 38.433594 C 16.109375 38.433594 18.210938 37.632812 19.820312 36.070312 C 23 32.910156 23 27.761719 19.820312 24.601562 C 18.25 23.089844 16.210938 22.242188 14.023438 22.242188 Z M 18.777344 35.136719 C 16.160156 37.734375 11.835938 37.734375 9.234375 35.136719 C 6.617188 32.535156 6.617188 28.238281 9.234375 25.652344 C 10.515625 24.378906 12.175781 23.664062 13.984375 23.664062 C 15.796875 23.664062 17.507812 24.378906 18.738281 25.652344 C 21.441406 28.25 21.441406 32.5 18.789062 35.136719 Z M 18.777344 35.136719 "/>
<path style=" stroke:none;fill-rule:nonzero;fill:rgb(92.941176%,41.176471%,36.078431%);fill-opacity:1;" d="M 14.023438 25.777344 C 11.457031 25.777344 9.371094 27.851562 9.371094 30.398438 C 9.371094 32.949219 11.457031 35.023438 14.023438 35.023438 C 16.589844 35.023438 18.675781 32.949219 18.675781 30.398438 C 18.675781 27.800781 16.589844 25.777344 14.023438 25.777344 Z M 14.023438 33.5625 C 12.261719 33.5625 10.792969 32.148438 10.792969 30.347656 C 10.792969 28.601562 12.210938 27.136719 14.023438 27.136719 C 15.785156 27.136719 17.253906 28.550781 17.253906 30.347656 C 17.253906 32.148438 15.785156 33.5625 14.023438 33.5625 Z M 14.023438 33.5625 "/>
<path style=" stroke:none;fill-rule:nonzero;fill:rgb(92.941176%,41.176471%,36.078431%);fill-opacity:1;" d="M 16.300781 14.820312 C 15.921875 14.820312 15.582031 15.144531 15.582031 15.53125 C 15.582031 15.90625 15.910156 16.242188 16.300781 16.242188 C 16.675781 16.242188 17.015625 15.917969 17.015625 15.53125 C 17.015625 15.15625 16.6875 14.820312 16.300781 14.820312 Z M 16.300781 14.820312 "/>
<path style=" stroke:none;fill-rule:nonzero;fill:rgb(92.941176%,41.176471%,36.078431%);fill-opacity:1;" d="M 7.222656 16.242188 C 7.597656 16.242188 7.9375 15.917969 7.9375 15.53125 C 7.9375 15.15625 7.609375 14.820312 7.222656 14.820312 C 6.84375 14.820312 6.503906 15.144531 6.503906 15.53125 C 6.503906 15.90625 6.832031 16.242188 7.222656 16.242188 Z M 7.222656 16.242188 "/>
<path style=" stroke:none;fill-rule:nonzero;fill:rgb(92.941176%,41.176471%,36.078431%);fill-opacity:1;" d="M 20.8125 16.242188 C 21.191406 16.242188 21.53125 15.917969 21.53125 15.53125 C 21.53125 15.15625 21.203125 14.820312 20.8125 14.820312 C 20.4375 14.820312 20.097656 15.144531 20.097656 15.53125 C 20.097656 15.957031 20.386719 16.242188 20.8125 16.242188 Z M 20.8125 16.242188 "/>
<path style=" stroke:none;fill-rule:nonzero;fill:rgb(92.941176%,41.176471%,36.078431%);fill-opacity:1;" d="M 11.734375 14.820312 C 11.359375 14.820312 11.019531 15.144531 11.019531 15.53125 C 11.019531 15.90625 11.34375 16.242188 11.734375 16.242188 C 12.113281 16.242188 12.453125 15.917969 12.453125 15.53125 C 12.453125 15.15625 12.164062 14.820312 11.734375 14.820312 Z M 11.734375 14.820312 "/>
<path style=" stroke:none;fill-rule:nonzero;fill:rgb(92.941176%,41.176471%,36.078431%);fill-opacity:1;" d="M 14.023438 8.832031 C 14.402344 8.832031 14.738281 8.507812 14.738281 8.121094 C 14.738281 7.746094 14.414062 7.410156 14.023438 7.410156 C 13.644531 7.410156 13.304688 7.734375 13.304688 8.121094 C 13.304688 8.496094 13.632812 8.832031 14.023438 8.832031 Z M 14.023438 8.832031 "/>
</g>
</svg>
