<?xml version="1.0" encoding="UTF-8"?>
<svg xmlns="http://www.w3.org/2000/svg" xmlns:xlink="http://www.w3.org/1999/xlink" width="28px" height="28px" viewBox="0 0 28 28" version="1.1">
<g id="surface1">
<path style=" stroke:none;fill-rule:nonzero;fill:rgb(92.941176%,41.176471%,36.078431%);fill-opacity:1;" d="M 18.683594 0 L 9.339844 0 C 6.902344 0 4.886719 1.96875 4.886719 4.425781 L 4.886719 23.269531 C 4.886719 25.691406 6.902344 27.660156 9.339844 27.660156 L 18.683594 27.660156 C 21.121094 27.660156 23.136719 25.691406 23.136719 23.234375 L 23.136719 4.425781 C 23.136719 1.96875 21.121094 0 18.683594 0 Z M 9.339844 0.917969 L 18.683594 0.917969 C 20.632812 0.917969 22.210938 2.488281 22.210938 4.425781 L 22.210938 11.925781 L 5.8125 11.925781 L 5.8125 4.425781 C 5.8125 2.488281 7.390625 0.917969 9.339844 0.917969 Z M 18.683594 26.742188 L 9.339844 26.742188 C 7.390625 26.742188 5.8125 25.175781 5.8125 23.234375 L 5.8125 12.847656 L 22.175781 12.847656 L 22.175781 23.269531 C 22.210938 25.175781 20.632812 26.742188 18.683594 26.742188 Z M 18.683594 26.742188 "/>
<path style=" stroke:none;fill-rule:nonzero;fill:rgb(92.941176%,41.176471%,36.078431%);fill-opacity:1;" d="M 14.015625 8.300781 C 15.6875 8.300781 17.042969 6.949219 17.042969 5.289062 C 17.042969 3.628906 15.6875 2.277344 14.015625 2.277344 C 12.34375 2.277344 10.984375 3.628906 10.984375 5.289062 C 10.984375 6.949219 12.34375 8.300781 14.015625 8.300781 Z M 14.015625 3.199219 C 15.164062 3.199219 16.117188 4.117188 16.117188 5.289062 C 16.117188 6.425781 15.191406 7.378906 14.015625 7.378906 C 12.867188 7.378906 11.910156 6.460938 11.910156 5.289062 C 11.910156 4.148438 12.867188 3.199219 14.015625 3.199219 Z M 14.015625 3.199219 "/>
<path style=" stroke:none;fill-rule:nonzero;fill:rgb(92.941176%,41.176471%,36.078431%);fill-opacity:1;" d="M 14.015625 14.484375 C 12.589844 14.484375 11.261719 15.035156 10.242188 16.019531 C 8.171875 18.078125 8.171875 21.429688 10.242188 23.488281 C 11.289062 24.53125 12.65625 25.027344 14.015625 25.027344 C 15.375 25.027344 16.742188 24.503906 17.789062 23.488281 C 19.859375 21.429688 19.859375 18.078125 17.789062 16.019531 C 16.765625 15.035156 15.441406 14.484375 14.015625 14.484375 Z M 17.109375 22.878906 C 15.40625 24.570312 12.589844 24.570312 10.898438 22.878906 C 9.191406 21.1875 9.191406 18.386719 10.898438 16.703125 C 11.730469 15.875 12.8125 15.410156 13.988281 15.410156 C 15.171875 15.410156 16.285156 15.875 17.085938 16.703125 C 18.84375 18.394531 18.84375 21.164062 17.117188 22.878906 Z M 17.109375 22.878906 "/>
<path style=" stroke:none;fill-rule:nonzero;fill:rgb(92.941176%,41.176471%,36.078431%);fill-opacity:1;" d="M 14.015625 16.785156 C 12.34375 16.785156 10.984375 18.136719 10.984375 19.792969 C 10.984375 21.457031 12.34375 22.804688 14.015625 22.804688 C 15.6875 22.804688 17.042969 21.457031 17.042969 19.792969 C 17.042969 18.101562 15.6875 16.785156 14.015625 16.785156 Z M 14.015625 21.855469 C 12.867188 21.855469 11.910156 20.933594 11.910156 19.761719 C 11.910156 18.625 12.835938 17.671875 14.015625 17.671875 C 15.164062 17.671875 16.117188 18.589844 16.117188 19.761719 C 16.117188 20.933594 15.164062 21.855469 14.015625 21.855469 Z M 14.015625 21.855469 "/>
<path style=" stroke:none;fill-rule:nonzero;fill:rgb(92.941176%,41.176471%,36.078431%);fill-opacity:1;" d="M 15.5 9.652344 C 15.25 9.652344 15.03125 9.863281 15.03125 10.113281 C 15.03125 10.359375 15.242188 10.578125 15.5 10.578125 C 15.742188 10.578125 15.964844 10.363281 15.964844 10.113281 C 15.964844 9.871094 15.75 9.652344 15.5 9.652344 Z M 15.5 9.652344 "/>
<path style=" stroke:none;fill-rule:nonzero;fill:rgb(92.941176%,41.176471%,36.078431%);fill-opacity:1;" d="M 9.585938 10.578125 C 9.832031 10.578125 10.050781 10.363281 10.050781 10.113281 C 10.050781 9.871094 9.839844 9.652344 9.585938 9.652344 C 9.339844 9.652344 9.117188 9.863281 9.117188 10.113281 C 9.117188 10.359375 9.332031 10.578125 9.585938 10.578125 Z M 9.585938 10.578125 "/>
<path style=" stroke:none;fill-rule:nonzero;fill:rgb(92.941176%,41.176471%,36.078431%);fill-opacity:1;" d="M 18.4375 10.578125 C 18.683594 10.578125 18.902344 10.363281 18.902344 10.113281 C 18.902344 9.871094 18.691406 9.652344 18.4375 9.652344 C 18.191406 9.652344 17.96875 9.863281 17.96875 10.113281 C 17.96875 10.390625 18.160156 10.578125 18.4375 10.578125 Z M 18.4375 10.578125 "/>
<path style=" stroke:none;fill-rule:nonzero;fill:rgb(92.941176%,41.176471%,36.078431%);fill-opacity:1;" d="M 12.523438 9.652344 C 12.28125 9.652344 12.058594 9.863281 12.058594 10.113281 C 12.058594 10.359375 12.269531 10.578125 12.523438 10.578125 C 12.769531 10.578125 12.992188 10.363281 12.992188 10.113281 C 12.992188 9.871094 12.804688 9.652344 12.523438 9.652344 Z M 12.523438 9.652344 "/>
<path style=" stroke:none;fill-rule:nonzero;fill:rgb(92.941176%,41.176471%,36.078431%);fill-opacity:1;" d="M 14.015625 5.75 C 14.261719 5.75 14.480469 5.539062 14.480469 5.289062 C 14.480469 5.042969 14.269531 4.824219 14.015625 4.824219 C 13.769531 4.824219 13.546875 5.035156 13.546875 5.289062 C 13.546875 5.53125 13.761719 5.75 14.015625 5.75 Z M 14.015625 5.75 "/>
</g>
</svg>
