<?xml version="1.0" encoding="UTF-8"?>
<svg xmlns="http://www.w3.org/2000/svg" xmlns:xlink="http://www.w3.org/1999/xlink" width="28px" height="28px" viewBox="0 0 28 28" version="1.1">
<g id="surface1">
<path style=" stroke:none;fill-rule:nonzero;fill:rgb(92.941176%,41.176471%,36.078431%);fill-opacity:1;" d="M 24.886719 19.519531 C 24.785156 19.414062 24.644531 19.355469 24.5 19.355469 C 24.359375 19.355469 24.214844 19.414062 24.117188 19.519531 C 24.011719 19.617188 23.953125 19.761719 23.953125 19.902344 C 23.953125 20.046875 24.011719 20.1875 24.117188 20.289062 C 24.214844 20.394531 24.359375 20.449219 24.5 20.449219 C 24.644531 20.449219 24.785156 20.394531 24.886719 20.289062 C 24.992188 20.1875 25.046875 20.046875 25.046875 19.902344 C 25.046875 19.761719 24.992188 19.617188 24.886719 19.519531 Z M 24.886719 19.519531 "/>
<path style=" stroke:none;fill-rule:nonzero;fill:rgb(92.941176%,41.176471%,36.078431%);fill-opacity:1;" d="M 2.570312 12.289062 L 1.378906 11.097656 L 14.003906 1.242188 L 26.628906 11.097656 L 25.4375 12.289062 L 14.339844 3.628906 C 14.238281 3.550781 14.121094 3.511719 14.003906 3.511719 C 13.886719 3.511719 13.765625 3.550781 13.667969 3.628906 Z M 21.332031 3.113281 L 23.410156 3.113281 L 23.410156 7.195312 L 21.332031 5.578125 Z M 27.453125 26.902344 L 25.046875 26.902344 L 25.046875 21.8125 C 25.046875 21.511719 24.804688 21.269531 24.5 21.269531 C 24.195312 21.269531 23.953125 21.511719 23.953125 21.8125 L 23.953125 26.902344 L 6.667969 26.902344 L 6.667969 21.765625 C 6.667969 21.460938 6.425781 21.21875 6.125 21.21875 C 5.820312 21.21875 5.578125 21.460938 5.578125 21.765625 L 5.578125 26.902344 L 4.046875 26.902344 L 4.046875 12.519531 L 13.996094 4.753906 L 23.949219 12.519531 L 23.949219 17.714844 C 23.949219 18.015625 24.191406 18.257812 24.496094 18.257812 C 24.796875 18.257812 25.039062 18.011719 25.039062 17.714844 L 25.039062 13.371094 L 25.132812 13.445312 C 25.234375 13.523438 25.351562 13.5625 25.46875 13.5625 C 25.609375 13.5625 25.746094 13.507812 25.851562 13.402344 L 27.828125 11.429688 C 27.9375 11.316406 27.992188 11.167969 27.988281 11.007812 C 27.976562 10.851562 27.902344 10.707031 27.777344 10.609375 L 24.488281 8.039062 L 24.488281 2.5625 C 24.488281 2.257812 24.246094 2.015625 23.941406 2.015625 L 20.773438 2.015625 C 20.46875 2.015625 20.226562 2.257812 20.226562 2.5625 L 20.226562 4.714844 L 14.324219 0.105469 C 14.128906 -0.0507812 13.847656 -0.0507812 13.648438 0.105469 L 0.199219 10.609375 C 0.0742188 10.707031 0 10.851562 -0.0117188 11.007812 C -0.0234375 11.160156 0.0390625 11.316406 0.148438 11.429688 L 2.121094 13.402344 C 2.320312 13.601562 2.628906 13.617188 2.847656 13.445312 L 2.941406 13.371094 L 2.941406 26.894531 L 0.535156 26.894531 C 0.230469 26.894531 -0.0117188 27.144531 -0.0117188 27.441406 C -0.0117188 27.746094 0.230469 27.988281 0.535156 27.988281 L 27.441406 27.988281 C 27.746094 27.988281 27.988281 27.738281 27.988281 27.441406 C 27.988281 27.136719 27.746094 26.894531 27.441406 26.894531 Z M 27.453125 26.902344 "/>
<path style=" stroke:none;fill-rule:nonzero;fill:rgb(92.941176%,41.176471%,36.078431%);fill-opacity:1;" d="M 18.707031 17.171875 L 14.550781 17.171875 L 14.550781 13.015625 L 18.707031 13.015625 Z M 18.707031 22.421875 L 14.550781 22.421875 L 14.550781 18.265625 L 18.707031 18.265625 Z M 13.457031 17.171875 L 9.300781 17.171875 L 9.300781 13.015625 L 13.457031 13.015625 Z M 13.457031 22.421875 L 9.300781 22.421875 L 9.300781 18.265625 L 13.457031 18.265625 Z M 19.25 11.917969 L 8.753906 11.917969 C 8.449219 11.917969 8.207031 12.167969 8.207031 12.464844 L 8.207031 22.960938 C 8.207031 23.265625 8.457031 23.507812 8.753906 23.507812 L 19.25 23.507812 C 19.554688 23.507812 19.796875 23.265625 19.796875 22.960938 L 19.796875 12.464844 C 19.796875 12.160156 19.554688 11.917969 19.25 11.917969 Z M 19.25 11.917969 "/>
<path style=" stroke:none;fill-rule:nonzero;fill:rgb(92.941176%,41.176471%,36.078431%);fill-opacity:1;" d="M 6.125 19.058594 C 5.820312 19.058594 5.578125 19.300781 5.578125 19.605469 L 5.578125 19.613281 C 5.578125 19.914062 5.820312 20.15625 6.125 20.15625 C 6.425781 20.15625 6.667969 19.914062 6.667969 19.613281 L 6.667969 19.605469 C 6.667969 19.308594 6.425781 19.058594 6.125 19.058594 Z M 6.125 19.058594 "/>
</g>
</svg>
