<?xml version="1.0" encoding="UTF-8"?>
<svg xmlns="http://www.w3.org/2000/svg" xmlns:xlink="http://www.w3.org/1999/xlink" width="28px" height="28px" viewBox="0 0 28 24" version="1.1">
<g id="surface1">
<path style=" stroke:none;fill-rule:nonzero;fill:rgb(92.941176%,41.176471%,36.078431%);fill-opacity:1;" d="M 25.539062 12.890625 L 5.851562 12.890625 C 5.625 12.890625 5.445312 13.066406 5.445312 13.285156 C 5.445312 13.503906 5.625 13.679688 5.851562 13.679688 L 12.800781 13.679688 L 9.597656 16.066406 L 1.078125 16.066406 C 1.035156 16.066406 1 16.046875 0.976562 16.011719 C 0.964844 15.992188 0.941406 15.933594 0.984375 15.867188 L 2.285156 13.679688 L 4.207031 13.679688 C 4.433594 13.679688 4.617188 13.503906 4.617188 13.285156 C 4.617188 13.066406 4.429688 12.890625 4.207031 12.890625 L 2.460938 12.890625 L 2.460938 8.40625 L 3.691406 8.40625 C 3.78125 8.40625 3.867188 8.378906 3.945312 8.324219 L 7.246094 5.859375 L 10.546875 8.324219 C 10.621094 8.378906 10.710938 8.40625 10.800781 8.40625 L 13.125 8.40625 L 13.125 11.703125 C 13.125 11.921875 13.308594 12.097656 13.53125 12.097656 L 16.269531 12.097656 C 16.496094 12.097656 16.679688 11.917969 16.679688 11.703125 L 16.679688 8.40625 L 20.039062 8.40625 L 20.039062 11.703125 C 20.039062 11.921875 20.222656 12.097656 20.449219 12.097656 L 23.179688 12.097656 C 23.40625 12.097656 23.589844 11.917969 23.589844 11.703125 L 23.589844 8.40625 L 25.53125 8.40625 L 25.53125 12.890625 Z M 27.015625 16 C 27 16.023438 26.964844 16.066406 26.894531 16.066406 L 18.402344 16.066406 L 15.199219 13.679688 L 25.710938 13.679688 L 27.011719 15.867188 C 27.046875 15.921875 27.023438 15.976562 27.011719 16 Z M 22.773438 18.175781 L 20.863281 18.175781 L 20.863281 16.855469 L 22.773438 16.855469 Z M 20.863281 19.757812 L 20.863281 18.96875 L 22.773438 18.96875 L 22.773438 19.757812 Z M 15.78125 21.988281 L 15.78125 16.460938 C 15.78125 16.242188 15.59375 16.066406 15.371094 16.066406 L 12.640625 16.066406 C 12.414062 16.066406 12.230469 16.242188 12.230469 16.460938 L 12.230469 21.988281 L 10.15625 21.988281 L 10.15625 16.65625 L 14.007812 13.785156 L 17.859375 16.65625 L 17.859375 21.988281 Z M 14.957031 21.988281 L 13.046875 21.988281 L 13.046875 16.855469 L 14.957031 16.855469 Z M 5.230469 18.964844 L 7.144531 18.964844 L 7.144531 19.753906 L 5.230469 19.753906 Z M 7.144531 16.855469 L 7.144531 18.175781 L 5.230469 18.175781 L 5.230469 16.855469 Z M 4.410156 16.855469 L 4.410156 20.152344 C 4.410156 20.371094 4.597656 20.546875 4.820312 20.546875 L 7.550781 20.546875 C 7.777344 20.546875 7.960938 20.367188 7.960938 20.152344 L 7.960938 16.855469 L 9.328125 16.855469 L 9.328125 21.988281 L 2.464844 21.988281 L 2.464844 16.855469 Z M 15.863281 9.722656 L 13.949219 9.722656 L 13.949219 8.402344 L 15.863281 8.402344 Z M 13.949219 10.515625 L 15.863281 10.515625 L 15.863281 11.304688 L 13.949219 11.304688 Z M 22.78125 9.722656 L 20.867188 9.722656 L 20.867188 8.402344 L 22.78125 8.402344 Z M 20.867188 10.515625 L 22.78125 10.515625 L 22.78125 11.304688 L 20.867188 11.304688 Z M 20.863281 0.789062 L 22.785156 0.789062 L 22.785156 3.378906 L 20.863281 3.378906 Z M 27.050781 8.40625 C 27.394531 8.40625 27.703125 8.234375 27.875 7.945312 C 28.050781 7.65625 28.050781 7.308594 27.875 7.023438 L 25.824219 3.578125 C 25.75 3.457031 25.613281 3.378906 25.46875 3.378906 L 23.601562 3.378906 L 23.601562 0.394531 C 23.601562 0.175781 23.421875 0 23.191406 0 L 20.453125 0 C 20.226562 0 20.042969 0.175781 20.042969 0.394531 L 20.042969 3.378906 L 15.183594 3.378906 C 14.953125 3.378906 14.773438 3.558594 14.773438 3.773438 C 14.773438 3.992188 14.953125 4.167969 15.183594 4.167969 L 25.234375 4.167969 L 27.164062 7.414062 C 27.199219 7.46875 27.175781 7.519531 27.164062 7.546875 C 27.152344 7.570312 27.117188 7.613281 27.046875 7.613281 L 10.945312 7.613281 L 7.503906 5.046875 C 7.351562 4.933594 7.148438 4.933594 7.003906 5.046875 L 3.558594 7.613281 L 0.964844 7.613281 C 0.894531 7.613281 0.859375 7.570312 0.84375 7.546875 C 0.832031 7.519531 0.808594 7.46875 0.84375 7.414062 L 2.773438 4.167969 L 13.535156 4.167969 C 13.765625 4.167969 13.945312 3.992188 13.945312 3.773438 C 13.945312 3.554688 13.765625 3.378906 13.535156 3.378906 L 2.539062 3.378906 C 2.390625 3.378906 2.253906 3.457031 2.183594 3.578125 L 0.132812 7.023438 C -0.0429688 7.3125 -0.0351562 7.65625 0.132812 7.945312 C 0.304688 8.234375 0.617188 8.40625 0.960938 8.40625 L 1.640625 8.40625 L 1.640625 13.175781 L 0.277344 15.46875 C 0.0976562 15.761719 0.09375 16.113281 0.269531 16.402344 C 0.4375 16.683594 0.738281 16.855469 1.082031 16.855469 L 1.644531 16.855469 L 1.644531 21.996094 C 1.183594 22.0625 0.828125 22.449219 0.828125 22.910156 L 0.828125 23.964844 C 0.828125 24.1875 1.007812 24.359375 1.234375 24.359375 L 10.996094 24.359375 C 11.222656 24.359375 11.402344 24.1875 11.402344 23.964844 C 11.402344 23.746094 11.222656 23.570312 10.996094 23.570312 L 1.644531 23.570312 L 1.644531 22.914062 C 1.644531 22.84375 1.707031 22.78125 1.78125 22.78125 L 26.226562 22.78125 C 26.300781 22.78125 26.363281 22.84375 26.363281 22.914062 L 26.363281 23.570312 L 12.636719 23.570312 C 12.410156 23.570312 12.226562 23.75 12.226562 23.964844 C 12.226562 24.1875 12.410156 24.359375 12.636719 24.359375 L 26.773438 24.359375 C 27 24.359375 27.179688 24.1875 27.179688 23.964844 L 27.179688 22.910156 C 27.179688 22.449219 26.820312 22.066406 26.363281 21.996094 L 26.363281 18.027344 C 26.363281 17.808594 26.175781 17.632812 25.953125 17.632812 C 25.726562 17.632812 25.542969 17.8125 25.542969 18.027344 L 25.542969 21.988281 L 18.679688 21.988281 L 18.679688 16.855469 L 20.046875 16.855469 L 20.046875 20.152344 C 20.046875 20.371094 20.230469 20.546875 20.457031 20.546875 L 23.191406 20.546875 C 23.421875 20.546875 23.601562 20.367188 23.601562 20.152344 L 23.601562 16.855469 L 26.90625 16.855469 C 27.25 16.855469 27.5625 16.683594 27.730469 16.394531 C 27.90625 16.105469 27.90625 15.761719 27.734375 15.472656 L 26.367188 13.175781 L 26.367188 8.40625 Z M 27.050781 8.40625 "/>
<path style=" stroke:none;fill-rule:nonzero;fill:rgb(92.941176%,41.176471%,36.078431%);fill-opacity:1;" d="M 6.292969 11.308594 L 6.292969 10.519531 L 8.203125 10.519531 L 8.203125 11.308594 Z M 8.203125 8.40625 L 8.203125 9.726562 L 6.292969 9.726562 L 6.292969 8.40625 Z M 8.613281 7.617188 L 5.882812 7.617188 C 5.65625 7.617188 5.472656 7.792969 5.472656 8.011719 L 5.472656 11.703125 C 5.472656 11.921875 5.660156 12.097656 5.882812 12.097656 L 8.613281 12.097656 C 8.839844 12.097656 9.023438 11.917969 9.023438 11.703125 L 9.023438 8.011719 C 9.023438 7.792969 8.839844 7.617188 8.613281 7.617188 Z M 8.613281 7.617188 "/>
</g>
</svg>
