<?xml version="1.0" encoding="UTF-8"?>
<svg xmlns="http://www.w3.org/2000/svg" xmlns:xlink="http://www.w3.org/1999/xlink" width="28px" height="28px" viewBox="0 0 28 28" version="1.1">
<g id="surface1">
<path style=" stroke:none;fill-rule:nonzero;fill:rgb(92.941176%,41.176471%,36.078431%);fill-opacity:1;" d="M 25.539062 14.890625 L 5.851562 14.890625 C 5.625 14.890625 5.445312 15.066406 5.445312 15.285156 C 5.445312 15.503906 5.625 15.679688 5.851562 15.679688 L 12.800781 15.679688 L 9.597656 18.066406 L 1.078125 18.066406 C 1.035156 18.066406 1 18.046875 0.976562 18.011719 C 0.964844 17.992188 0.941406 17.933594 0.984375 17.867188 L 2.285156 15.679688 L 4.207031 15.679688 C 4.433594 15.679688 4.617188 15.503906 4.617188 15.285156 C 4.617188 15.066406 4.429688 14.890625 4.207031 14.890625 L 2.460938 14.890625 L 2.460938 10.40625 L 3.691406 10.40625 C 3.78125 10.40625 3.867188 10.378906 3.945312 10.324219 L 7.246094 7.859375 L 10.546875 10.324219 C 10.621094 10.378906 10.710938 10.40625 10.800781 10.40625 L 13.125 10.40625 L 13.125 13.703125 C 13.125 13.921875 13.308594 14.097656 13.53125 14.097656 L 16.269531 14.097656 C 16.496094 14.097656 16.679688 13.917969 16.679688 13.703125 L 16.679688 10.40625 L 20.039062 10.40625 L 20.039062 13.703125 C 20.039062 13.921875 20.222656 14.097656 20.449219 14.097656 L 23.179688 14.097656 C 23.40625 14.097656 23.589844 13.917969 23.589844 13.703125 L 23.589844 10.40625 L 25.53125 10.40625 L 25.53125 14.890625 Z M 27.015625 18 C 27 18.023438 26.964844 18.066406 26.894531 18.066406 L 18.402344 18.066406 L 15.199219 15.679688 L 25.710938 15.679688 L 27.011719 17.867188 C 27.046875 17.921875 27.023438 17.976562 27.011719 18 Z M 22.773438 20.175781 L 20.863281 20.175781 L 20.863281 18.855469 L 22.773438 18.855469 Z M 20.863281 21.757812 L 20.863281 20.96875 L 22.773438 20.96875 L 22.773438 21.757812 Z M 15.78125 23.988281 L 15.78125 18.460938 C 15.78125 18.242188 15.59375 18.066406 15.371094 18.066406 L 12.640625 18.066406 C 12.414062 18.066406 12.230469 18.242188 12.230469 18.460938 L 12.230469 23.988281 L 10.15625 23.988281 L 10.15625 18.65625 L 14.007812 15.785156 L 17.859375 18.65625 L 17.859375 23.988281 Z M 14.957031 23.988281 L 13.046875 23.988281 L 13.046875 18.855469 L 14.957031 18.855469 Z M 5.230469 20.964844 L 7.144531 20.964844 L 7.144531 21.753906 L 5.230469 21.753906 Z M 7.144531 18.855469 L 7.144531 20.175781 L 5.230469 20.175781 L 5.230469 18.855469 Z M 4.410156 18.855469 L 4.410156 22.152344 C 4.410156 22.371094 4.597656 22.546875 4.820312 22.546875 L 7.550781 22.546875 C 7.777344 22.546875 7.960938 22.367188 7.960938 22.152344 L 7.960938 18.855469 L 9.328125 18.855469 L 9.328125 23.988281 L 2.464844 23.988281 L 2.464844 18.855469 Z M 15.863281 11.722656 L 13.949219 11.722656 L 13.949219 10.402344 L 15.863281 10.402344 Z M 13.949219 12.515625 L 15.863281 12.515625 L 15.863281 13.304688 L 13.949219 13.304688 Z M 22.78125 11.722656 L 20.867188 11.722656 L 20.867188 10.402344 L 22.78125 10.402344 Z M 20.867188 12.515625 L 22.78125 12.515625 L 22.78125 13.304688 L 20.867188 13.304688 Z M 20.863281 2.789062 L 22.785156 2.789062 L 22.785156 5.378906 L 20.863281 5.378906 Z M 27.050781 10.40625 C 27.394531 10.40625 27.703125 10.234375 27.875 9.945312 C 28.050781 9.65625 28.050781 9.308594 27.875 9.023438 L 25.824219 5.578125 C 25.75 5.457031 25.613281 5.378906 25.46875 5.378906 L 23.601562 5.378906 L 23.601562 2.394531 C 23.601562 2.175781 23.421875 2 23.191406 2 L 20.453125 2 C 20.226562 2 20.042969 2.175781 20.042969 2.394531 L 20.042969 5.378906 L 15.183594 5.378906 C 14.953125 5.378906 14.773438 5.558594 14.773438 5.773438 C 14.773438 5.992188 14.953125 6.167969 15.183594 6.167969 L 25.234375 6.167969 L 27.164062 9.414062 C 27.199219 9.46875 27.175781 9.519531 27.164062 9.546875 C 27.152344 9.570312 27.117188 9.613281 27.046875 9.613281 L 10.945312 9.613281 L 7.503906 7.046875 C 7.351562 6.933594 7.148438 6.933594 7.003906 7.046875 L 3.558594 9.613281 L 0.964844 9.613281 C 0.894531 9.613281 0.859375 9.570312 0.84375 9.546875 C 0.832031 9.519531 0.808594 9.46875 0.84375 9.414062 L 2.773438 6.167969 L 13.535156 6.167969 C 13.765625 6.167969 13.945312 5.992188 13.945312 5.773438 C 13.945312 5.554688 13.765625 5.378906 13.535156 5.378906 L 2.539062 5.378906 C 2.390625 5.378906 2.253906 5.457031 2.183594 5.578125 L 0.132812 9.023438 C -0.0429688 9.3125 -0.0351562 9.65625 0.132812 9.945312 C 0.304688 10.234375 0.617188 10.40625 0.960938 10.40625 L 1.640625 10.40625 L 1.640625 15.175781 L 0.277344 17.46875 C 0.0976562 17.761719 0.09375 18.113281 0.269531 18.402344 C 0.4375 18.683594 0.738281 18.855469 1.082031 18.855469 L 1.644531 18.855469 L 1.644531 23.996094 C 1.183594 24.0625 0.828125 24.449219 0.828125 24.910156 L 0.828125 25.964844 C 0.828125 26.1875 1.007812 26.359375 1.234375 26.359375 L 10.996094 26.359375 C 11.222656 26.359375 11.402344 26.1875 11.402344 25.964844 C 11.402344 25.746094 11.222656 25.570312 10.996094 25.570312 L 1.644531 25.570312 L 1.644531 24.914062 C 1.644531 24.84375 1.707031 24.78125 1.78125 24.78125 L 26.226562 24.78125 C 26.300781 24.78125 26.363281 24.84375 26.363281 24.914062 L 26.363281 25.570312 L 12.636719 25.570312 C 12.410156 25.570312 12.226562 25.75 12.226562 25.964844 C 12.226562 26.1875 12.410156 26.359375 12.636719 26.359375 L 26.773438 26.359375 C 27 26.359375 27.179688 26.1875 27.179688 25.964844 L 27.179688 24.910156 C 27.179688 24.449219 26.820312 24.066406 26.363281 23.996094 L 26.363281 20.027344 C 26.363281 19.808594 26.175781 19.632812 25.953125 19.632812 C 25.726562 19.632812 25.542969 19.8125 25.542969 20.027344 L 25.542969 23.988281 L 18.679688 23.988281 L 18.679688 18.855469 L 20.046875 18.855469 L 20.046875 22.152344 C 20.046875 22.371094 20.230469 22.546875 20.457031 22.546875 L 23.191406 22.546875 C 23.421875 22.546875 23.601562 22.367188 23.601562 22.152344 L 23.601562 18.855469 L 26.90625 18.855469 C 27.25 18.855469 27.5625 18.683594 27.730469 18.394531 C 27.90625 18.105469 27.90625 17.761719 27.734375 17.472656 L 26.367188 15.175781 L 26.367188 10.40625 Z M 27.050781 10.40625 "/>
<path style=" stroke:none;fill-rule:nonzero;fill:rgb(92.941176%,41.176471%,36.078431%);fill-opacity:1;" d="M 6.292969 13.308594 L 6.292969 12.519531 L 8.203125 12.519531 L 8.203125 13.308594 Z M 8.203125 10.40625 L 8.203125 11.726562 L 6.292969 11.726562 L 6.292969 10.40625 Z M 8.613281 9.617188 L 5.882812 9.617188 C 5.65625 9.617188 5.472656 9.792969 5.472656 10.011719 L 5.472656 13.703125 C 5.472656 13.921875 5.660156 14.097656 5.882812 14.097656 L 8.613281 14.097656 C 8.839844 14.097656 9.023438 13.917969 9.023438 13.703125 L 9.023438 10.011719 C 9.023438 9.792969 8.839844 9.617188 8.613281 9.617188 Z M 8.613281 9.617188 "/>
</g>
</svg>
