<?xml version="1.0" encoding="UTF-8"?>
<svg xmlns="http://www.w3.org/2000/svg" xmlns:xlink="http://www.w3.org/1999/xlink" width="28px" height="28px" viewBox="0 0 28 28" version="1.1">
<g id="surface1">
<path style=" stroke:none;fill-rule:nonzero;fill:rgb(92.941176%,41.176471%,36.078431%);fill-opacity:1;" d="M 26.167969 24.691406 L 18.839844 24.691406 L 18.839844 18.453125 C 18.839844 18.203125 18.636719 18.003906 18.386719 18.003906 L 15.476562 18.003906 C 15.226562 18.003906 15.023438 18.203125 15.023438 18.453125 L 15.023438 24.691406 L 13.023438 24.691406 L 13.023438 10.75 L 19.597656 5.648438 L 26.167969 10.75 Z M 17.933594 21.351562 C 17.921875 21.351562 17.910156 21.347656 17.902344 21.347656 C 17.785156 21.347656 17.667969 21.394531 17.582031 21.480469 C 17.496094 21.5625 17.449219 21.679688 17.449219 21.796875 C 17.449219 21.910156 17.496094 22.027344 17.582031 22.113281 C 17.667969 22.195312 17.785156 22.242188 17.902344 22.242188 C 17.910156 22.242188 17.921875 22.242188 17.933594 22.242188 L 17.933594 24.691406 L 15.933594 24.691406 L 15.933594 18.898438 L 17.933594 18.898438 Z M 4.785156 23.675781 L 9.207031 23.675781 L 9.207031 24.691406 L 4.785156 24.691406 Z M 9.207031 20.871094 L 4.785156 20.871094 L 4.785156 19.855469 L 9.207031 19.855469 Z M 4.785156 21.765625 L 9.207031 21.765625 L 9.207031 22.78125 L 4.785156 22.78125 Z M 1.875 19.347656 L 6.992188 15.375 L 12.113281 19.347656 L 12.113281 24.691406 L 10.113281 24.691406 L 10.113281 19.40625 C 10.113281 19.160156 9.910156 18.957031 9.660156 18.957031 L 4.328125 18.957031 C 4.078125 18.957031 3.875 19.160156 3.875 19.40625 L 3.875 24.691406 L 1.875 24.691406 Z M 0.910156 17.710938 L 6.675781 13.230469 C 6.863281 13.085938 7.125 13.085938 7.3125 13.230469 L 12.113281 16.960938 L 12.113281 18.207031 L 7.273438 14.449219 C 7.109375 14.320312 6.875 14.320312 6.710938 14.449219 L 0.90625 18.957031 L 0.90625 17.707031 Z M 12.054688 9.113281 L 19.277344 3.503906 C 19.464844 3.355469 19.726562 3.355469 19.914062 3.503906 L 27.136719 9.113281 L 27.136719 10.363281 L 19.878906 4.722656 C 19.796875 4.65625 19.695312 4.625 19.597656 4.625 C 19.496094 4.625 19.398438 4.660156 19.316406 4.722656 L 12.054688 10.363281 Z M 13.992188 4.566406 L 15.023438 4.566406 L 15.023438 5.667969 L 13.992188 6.46875 Z M 27.308594 11.636719 C 27.390625 11.699219 27.492188 11.730469 27.589844 11.730469 C 27.65625 11.730469 27.726562 11.714844 27.789062 11.6875 C 27.945312 11.613281 28.046875 11.453125 28.046875 11.285156 L 28.046875 8.894531 C 28.046875 8.757812 27.980469 8.625 27.871094 8.542969 L 20.472656 2.796875 C 19.957031 2.394531 19.230469 2.394531 18.714844 2.796875 L 15.929688 4.960938 L 15.929688 4.117188 C 15.929688 3.867188 15.726562 3.667969 15.476562 3.667969 L 13.535156 3.667969 C 13.285156 3.667969 13.082031 3.867188 13.082031 4.117188 L 13.082031 7.171875 L 11.316406 8.542969 C 11.207031 8.625 11.144531 8.757812 11.144531 8.894531 L 11.144531 11.285156 C 11.144531 11.457031 11.246094 11.613281 11.402344 11.6875 C 11.558594 11.761719 11.746094 11.742188 11.882812 11.636719 L 12.117188 11.453125 L 12.117188 15.816406 L 7.878906 12.527344 C 7.359375 12.125 6.632812 12.125 6.117188 12.527344 L 0.171875 17.144531 C 0.0625 17.230469 0 17.355469 0 17.496094 L 0 19.886719 C 0 20.058594 0.101562 20.214844 0.257812 20.289062 C 0.320312 20.320312 0.386719 20.332031 0.453125 20.332031 C 0.554688 20.332031 0.652344 20.300781 0.734375 20.238281 L 0.96875 20.054688 L 0.96875 24.691406 L 0.453125 24.691406 C 0.203125 24.691406 0 24.890625 0 25.140625 C 0 25.386719 0.203125 25.585938 0.453125 25.585938 L 27.59375 25.585938 C 27.84375 25.585938 28.046875 25.386719 28.046875 25.140625 C 28.046875 24.890625 27.84375 24.691406 27.59375 24.691406 L 27.078125 24.691406 L 27.078125 11.457031 L 27.3125 11.640625 Z M 27.308594 11.636719 "/>
<path style=" stroke:none;fill-rule:nonzero;fill:rgb(92.941176%,41.176471%,36.078431%);fill-opacity:1;" d="M 23.261719 18.898438 L 23.261719 19.4375 L 21.265625 19.4375 L 21.265625 18.898438 Z M 21.265625 21.824219 L 21.265625 20.332031 L 23.261719 20.332031 L 23.261719 21.824219 Z M 20.808594 22.71875 L 23.71875 22.71875 C 23.96875 22.71875 24.171875 22.519531 24.171875 22.273438 L 24.171875 18.453125 C 24.171875 18.203125 23.96875 18.003906 23.71875 18.003906 L 20.808594 18.003906 C 20.558594 18.003906 20.355469 18.203125 20.355469 18.453125 L 20.355469 22.273438 C 20.355469 22.519531 20.558594 22.71875 20.808594 22.71875 Z M 20.808594 22.71875 "/>
<path style=" stroke:none;fill-rule:nonzero;fill:rgb(92.941176%,41.176471%,36.078431%);fill-opacity:1;" d="M 23.261719 12.210938 L 23.261719 12.75 L 21.265625 12.75 L 21.265625 12.210938 Z M 21.265625 15.136719 L 21.265625 13.644531 L 23.261719 13.644531 L 23.261719 15.136719 Z M 20.808594 16.03125 L 23.71875 16.03125 C 23.96875 16.03125 24.171875 15.832031 24.171875 15.585938 L 24.171875 11.765625 C 24.171875 11.515625 23.96875 11.316406 23.71875 11.316406 L 20.808594 11.316406 C 20.558594 11.316406 20.355469 11.515625 20.355469 11.765625 L 20.355469 15.585938 C 20.355469 15.832031 20.558594 16.03125 20.808594 16.03125 Z M 20.808594 16.03125 "/>
<path style=" stroke:none;fill-rule:nonzero;fill:rgb(92.941176%,41.176471%,36.078431%);fill-opacity:1;" d="M 15.933594 15.136719 L 15.933594 13.644531 L 17.933594 13.644531 L 17.933594 15.136719 Z M 17.933594 12.210938 L 17.933594 12.75 L 15.933594 12.75 L 15.933594 12.210938 Z M 18.386719 11.316406 L 15.476562 11.316406 C 15.226562 11.316406 15.023438 11.515625 15.023438 11.765625 L 15.023438 15.585938 C 15.023438 15.832031 15.226562 16.03125 15.476562 16.03125 L 18.386719 16.03125 C 18.636719 16.03125 18.839844 15.832031 18.839844 15.585938 L 18.839844 11.765625 C 18.839844 11.515625 18.636719 11.316406 18.386719 11.316406 Z M 18.386719 11.316406 "/>
</g>
</svg>
