<?xml version="1.0" encoding="UTF-8"?>
<svg xmlns="http://www.w3.org/2000/svg" xmlns:xlink="http://www.w3.org/1999/xlink" width="28px" height="28px" viewBox="0 0 28 23" version="1.1">
<g id="surface1">
<path style=" stroke:none;fill-rule:nonzero;fill:rgb(92.941176%,41.176471%,36.078431%);fill-opacity:1;" d="M 26.167969 22.191406 L 18.839844 22.191406 L 18.839844 15.953125 C 18.839844 15.703125 18.636719 15.503906 18.386719 15.503906 L 15.476562 15.503906 C 15.226562 15.503906 15.023438 15.703125 15.023438 15.953125 L 15.023438 22.191406 L 13.023438 22.191406 L 13.023438 8.25 L 19.597656 3.148438 L 26.167969 8.25 Z M 17.933594 18.851562 C 17.921875 18.851562 17.910156 18.847656 17.902344 18.847656 C 17.785156 18.847656 17.667969 18.894531 17.582031 18.980469 C 17.496094 19.0625 17.449219 19.179688 17.449219 19.296875 C 17.449219 19.410156 17.496094 19.527344 17.582031 19.613281 C 17.667969 19.695312 17.785156 19.742188 17.902344 19.742188 C 17.910156 19.742188 17.921875 19.742188 17.933594 19.742188 L 17.933594 22.191406 L 15.933594 22.191406 L 15.933594 16.398438 L 17.933594 16.398438 Z M 4.785156 21.175781 L 9.207031 21.175781 L 9.207031 22.191406 L 4.785156 22.191406 Z M 9.207031 18.371094 L 4.785156 18.371094 L 4.785156 17.355469 L 9.207031 17.355469 Z M 4.785156 19.265625 L 9.207031 19.265625 L 9.207031 20.28125 L 4.785156 20.28125 Z M 1.875 16.847656 L 6.992188 12.875 L 12.113281 16.847656 L 12.113281 22.191406 L 10.113281 22.191406 L 10.113281 16.90625 C 10.113281 16.660156 9.910156 16.457031 9.660156 16.457031 L 4.328125 16.457031 C 4.078125 16.457031 3.875 16.660156 3.875 16.90625 L 3.875 22.191406 L 1.875 22.191406 Z M 0.910156 15.210938 L 6.675781 10.730469 C 6.863281 10.585938 7.125 10.585938 7.3125 10.730469 L 12.113281 14.460938 L 12.113281 15.707031 L 7.273438 11.949219 C 7.109375 11.820312 6.875 11.820312 6.710938 11.949219 L 0.90625 16.457031 L 0.90625 15.207031 Z M 12.054688 6.613281 L 19.277344 1.003906 C 19.464844 0.855469 19.726562 0.855469 19.914062 1.003906 L 27.136719 6.613281 L 27.136719 7.863281 L 19.878906 2.222656 C 19.796875 2.15625 19.695312 2.125 19.597656 2.125 C 19.496094 2.125 19.398438 2.160156 19.316406 2.222656 L 12.054688 7.863281 Z M 13.992188 2.066406 L 15.023438 2.066406 L 15.023438 3.167969 L 13.992188 3.96875 Z M 27.308594 9.136719 C 27.390625 9.199219 27.492188 9.230469 27.589844 9.230469 C 27.65625 9.230469 27.726562 9.214844 27.789062 9.1875 C 27.945312 9.113281 28.046875 8.953125 28.046875 8.785156 L 28.046875 6.394531 C 28.046875 6.257812 27.980469 6.125 27.871094 6.042969 L 20.472656 0.296875 C 19.957031 -0.105469 19.230469 -0.105469 18.714844 0.296875 L 15.929688 2.460938 L 15.929688 1.617188 C 15.929688 1.367188 15.726562 1.167969 15.476562 1.167969 L 13.535156 1.167969 C 13.285156 1.167969 13.082031 1.367188 13.082031 1.617188 L 13.082031 4.671875 L 11.316406 6.042969 C 11.207031 6.125 11.144531 6.257812 11.144531 6.394531 L 11.144531 8.785156 C 11.144531 8.957031 11.246094 9.113281 11.402344 9.1875 C 11.558594 9.261719 11.746094 9.242188 11.882812 9.136719 L 12.117188 8.953125 L 12.117188 13.316406 L 7.878906 10.027344 C 7.359375 9.625 6.632812 9.625 6.117188 10.027344 L 0.171875 14.644531 C 0.0625 14.730469 0 14.855469 0 14.996094 L 0 17.386719 C 0 17.558594 0.101562 17.714844 0.257812 17.789062 C 0.320312 17.820312 0.386719 17.832031 0.453125 17.832031 C 0.554688 17.832031 0.652344 17.800781 0.734375 17.738281 L 0.96875 17.554688 L 0.96875 22.191406 L 0.453125 22.191406 C 0.203125 22.191406 0 22.390625 0 22.640625 C 0 22.886719 0.203125 23.085938 0.453125 23.085938 L 27.59375 23.085938 C 27.84375 23.085938 28.046875 22.886719 28.046875 22.640625 C 28.046875 22.390625 27.84375 22.191406 27.59375 22.191406 L 27.078125 22.191406 L 27.078125 8.957031 L 27.3125 9.140625 Z M 27.308594 9.136719 "/>
<path style=" stroke:none;fill-rule:nonzero;fill:rgb(92.941176%,41.176471%,36.078431%);fill-opacity:1;" d="M 23.261719 16.398438 L 23.261719 16.9375 L 21.265625 16.9375 L 21.265625 16.398438 Z M 21.265625 19.324219 L 21.265625 17.832031 L 23.261719 17.832031 L 23.261719 19.324219 Z M 20.808594 20.21875 L 23.71875 20.21875 C 23.96875 20.21875 24.171875 20.019531 24.171875 19.773438 L 24.171875 15.953125 C 24.171875 15.703125 23.96875 15.503906 23.71875 15.503906 L 20.808594 15.503906 C 20.558594 15.503906 20.355469 15.703125 20.355469 15.953125 L 20.355469 19.773438 C 20.355469 20.019531 20.558594 20.21875 20.808594 20.21875 Z M 20.808594 20.21875 "/>
<path style=" stroke:none;fill-rule:nonzero;fill:rgb(92.941176%,41.176471%,36.078431%);fill-opacity:1;" d="M 23.261719 9.710938 L 23.261719 10.25 L 21.265625 10.25 L 21.265625 9.710938 Z M 21.265625 12.636719 L 21.265625 11.144531 L 23.261719 11.144531 L 23.261719 12.636719 Z M 20.808594 13.53125 L 23.71875 13.53125 C 23.96875 13.53125 24.171875 13.332031 24.171875 13.085938 L 24.171875 9.265625 C 24.171875 9.015625 23.96875 8.816406 23.71875 8.816406 L 20.808594 8.816406 C 20.558594 8.816406 20.355469 9.015625 20.355469 9.265625 L 20.355469 13.085938 C 20.355469 13.332031 20.558594 13.53125 20.808594 13.53125 Z M 20.808594 13.53125 "/>
<path style=" stroke:none;fill-rule:nonzero;fill:rgb(92.941176%,41.176471%,36.078431%);fill-opacity:1;" d="M 15.933594 12.636719 L 15.933594 11.144531 L 17.933594 11.144531 L 17.933594 12.636719 Z M 17.933594 9.710938 L 17.933594 10.25 L 15.933594 10.25 L 15.933594 9.710938 Z M 18.386719 8.816406 L 15.476562 8.816406 C 15.226562 8.816406 15.023438 9.015625 15.023438 9.265625 L 15.023438 13.085938 C 15.023438 13.332031 15.226562 13.53125 15.476562 13.53125 L 18.386719 13.53125 C 18.636719 13.53125 18.839844 13.332031 18.839844 13.085938 L 18.839844 9.265625 C 18.839844 9.015625 18.636719 8.816406 18.386719 8.816406 Z M 18.386719 8.816406 "/>
</g>
</svg>
