<?xml version="1.0" encoding="UTF-8"?>
<svg xmlns="http://www.w3.org/2000/svg" xmlns:xlink="http://www.w3.org/1999/xlink" width="28px" height="28px" viewBox="0 0 28 29" version="1.1">
<g id="surface1">
<path style=" stroke:none;fill-rule:nonzero;fill:rgb(92.941176%,41.176471%,36.078431%);fill-opacity:1;" d="M 7.488281 23.605469 C 7.214844 23.605469 6.988281 23.824219 6.988281 24.09375 C 6.988281 24.363281 7.214844 24.582031 7.488281 24.582031 C 7.765625 24.582031 7.992188 24.363281 7.992188 24.09375 C 7.992188 23.824219 7.765625 23.605469 7.488281 23.605469 Z M 7.488281 23.605469 "/>
<path style=" stroke:none;fill-rule:nonzero;fill:rgb(92.941176%,41.176471%,36.078431%);fill-opacity:1;" d="M 25.917969 8.9375 L 14.515625 8.9375 L 14.515625 6.472656 L 25.917969 6.472656 Z M 16.03125 11.417969 L 14.636719 11.417969 C 14.570312 11.417969 14.515625 11.363281 14.515625 11.300781 L 14.515625 9.785156 L 16.03125 9.785156 Z M 18.480469 11.417969 L 16.90625 11.417969 L 16.90625 9.789062 L 18.480469 9.789062 Z M 20.925781 11.417969 L 19.351562 11.417969 L 19.351562 9.789062 L 20.925781 9.789062 Z M 23.371094 11.417969 L 21.796875 11.417969 L 21.796875 9.789062 L 23.371094 9.789062 Z M 25.917969 11.417969 L 24.242188 11.417969 L 24.242188 9.789062 L 25.917969 9.789062 Z M 12.136719 28.164062 L 12.136719 18.015625 L 19.410156 18.015625 C 19.652344 18.015625 19.84375 17.824219 19.84375 17.589844 C 19.84375 17.355469 19.648438 17.164062 19.410156 17.164062 L 2.242188 17.164062 L 2.242188 6.46875 L 6.847656 6.46875 C 7.089844 6.46875 7.28125 6.277344 7.28125 6.046875 C 7.28125 5.8125 7.089844 5.621094 6.847656 5.621094 L 0.871094 5.621094 L 0.871094 3.324219 L 27.289062 3.324219 L 27.289062 5.621094 L 8.59375 5.621094 C 8.351562 5.621094 8.15625 5.8125 8.15625 6.046875 C 8.15625 6.277344 8.351562 6.46875 8.59375 6.46875 L 13.644531 6.46875 L 13.644531 11.300781 C 13.644531 11.832031 14.089844 12.265625 14.636719 12.265625 L 25.917969 12.265625 L 25.917969 17.164062 L 21.15625 17.164062 C 20.914062 17.164062 20.71875 17.355469 20.71875 17.589844 C 20.71875 17.824219 20.914062 18.015625 21.15625 18.015625 L 25.917969 18.015625 L 25.917969 28.164062 Z M 8.753906 28.164062 L 4.746094 28.164062 L 4.746094 20.347656 C 4.746094 20.316406 4.769531 20.289062 4.804688 20.289062 L 8.699219 20.289062 C 8.730469 20.289062 8.753906 20.316406 8.753906 20.347656 Z M 2.242188 18.015625 L 11.265625 18.015625 L 11.265625 28.164062 L 9.628906 28.164062 L 9.628906 20.347656 C 9.628906 19.847656 9.210938 19.441406 8.699219 19.441406 L 4.804688 19.441406 C 4.289062 19.441406 3.871094 19.847656 3.871094 20.347656 L 3.871094 28.164062 L 2.242188 28.164062 Z M 2.242188 0.851562 L 17.253906 0.851562 L 17.253906 2.476562 L 2.242188 2.476562 Z M 27.554688 6.472656 C 27.886719 6.472656 28.15625 6.207031 28.15625 5.882812 L 28.15625 3.070312 C 28.15625 2.742188 27.886719 2.476562 27.554688 2.476562 L 18.125 2.476562 L 18.125 0.621094 C 18.125 0.28125 17.835938 0 17.488281 0 L 2.007812 0 C 1.65625 0 1.371094 0.28125 1.371094 0.621094 L 1.371094 2.476562 L 0.605469 2.476562 C 0.273438 2.476562 0.00390625 2.738281 0.00390625 3.070312 L 0.00390625 6.046875 C 0.00390625 6.28125 0.195312 6.472656 0.4375 6.472656 L 1.375 6.472656 L 1.375 28.164062 L 0.4375 28.164062 C 0.195312 28.164062 0.00390625 28.355469 0.00390625 28.59375 C 0.00390625 28.824219 0.195312 29.015625 0.4375 29.015625 L 27.726562 29.015625 C 27.96875 29.015625 28.164062 28.824219 28.164062 28.59375 C 28.164062 28.355469 27.96875 28.164062 27.726562 28.164062 L 26.789062 28.164062 L 26.789062 6.472656 Z M 27.554688 6.472656 "/>
<path style=" stroke:none;fill-rule:nonzero;fill:rgb(92.941176%,41.176471%,36.078431%);fill-opacity:1;" d="M 10.335938 14.648438 L 5.25 14.648438 C 5.246094 14.648438 5.242188 14.644531 5.242188 14.636719 L 5.242188 13.277344 L 10.34375 13.277344 L 10.34375 14.636719 C 10.34375 14.644531 10.339844 14.648438 10.335938 14.648438 Z M 5.25 8.789062 L 10.335938 8.789062 C 10.339844 8.789062 10.34375 8.792969 10.34375 8.796875 L 10.34375 10.253906 L 5.242188 10.253906 L 5.242188 8.796875 C 5.242188 8.792969 5.246094 8.789062 5.25 8.789062 Z M 5.242188 11.101562 L 10.34375 11.101562 L 10.34375 12.425781 L 5.242188 12.425781 Z M 10.335938 7.9375 L 5.25 7.9375 C 4.765625 7.9375 4.371094 8.324219 4.371094 8.796875 L 4.371094 14.640625 C 4.371094 15.113281 4.765625 15.5 5.25 15.5 L 10.335938 15.5 C 10.820312 15.5 11.21875 15.113281 11.21875 14.640625 L 11.21875 8.796875 C 11.21875 8.324219 10.820312 7.9375 10.335938 7.9375 Z M 10.335938 7.9375 "/>
<path style=" stroke:none;fill-rule:nonzero;fill:rgb(92.941176%,41.176471%,36.078431%);fill-opacity:1;" d="M 23.089844 25.957031 L 19.351562 25.957031 L 19.351562 24.585938 L 23.101562 24.585938 L 23.101562 25.949219 C 23.101562 25.953125 23.097656 25.957031 23.089844 25.957031 Z M 14.726562 25.949219 L 14.726562 20.105469 C 14.726562 20.101562 14.734375 20.09375 14.738281 20.09375 L 18.476562 20.09375 L 18.476562 25.953125 L 14.738281 25.953125 C 14.734375 25.953125 14.726562 25.949219 14.726562 25.945312 Z M 23.101562 20.105469 L 23.101562 21.5625 L 19.351562 21.5625 L 19.351562 20.09375 L 23.089844 20.09375 C 23.097656 20.09375 23.101562 20.101562 23.101562 20.105469 Z M 19.351562 22.410156 L 23.101562 22.410156 L 23.101562 23.734375 L 19.351562 23.734375 Z M 23.089844 19.246094 L 14.738281 19.246094 C 14.253906 19.246094 13.855469 19.632812 13.855469 20.105469 L 13.855469 25.949219 C 13.855469 26.421875 14.253906 26.808594 14.738281 26.808594 L 23.089844 26.808594 C 23.578125 26.808594 23.972656 26.421875 23.972656 25.949219 L 23.972656 20.105469 C 23.972656 19.632812 23.578125 19.246094 23.089844 19.246094 Z M 23.089844 19.246094 "/>
</g>
</svg>
