<?xml version="1.0" encoding="UTF-8"?>
<svg xmlns="http://www.w3.org/2000/svg" xmlns:xlink="http://www.w3.org/1999/xlink" width="28px" height="28px" viewBox="0 0 28 28" version="1.1">
<g id="surface1">
<path style=" stroke:none;fill-rule:nonzero;fill:rgb(92.941176%,41.176471%,36.078431%);fill-opacity:1;" d="M 7.710938 22.792969 C 7.449219 22.792969 7.230469 23.003906 7.230469 23.261719 C 7.230469 23.523438 7.449219 23.734375 7.710938 23.734375 C 7.980469 23.734375 8.199219 23.523438 8.199219 23.261719 C 8.199219 23.003906 7.980469 22.792969 7.710938 22.792969 Z M 7.710938 22.792969 "/>
<path style=" stroke:none;fill-rule:nonzero;fill:rgb(92.941176%,41.176471%,36.078431%);fill-opacity:1;" d="M 25.507812 8.628906 L 14.496094 8.628906 L 14.496094 6.25 L 25.507812 6.25 Z M 15.960938 11.023438 L 14.613281 11.023438 C 14.550781 11.023438 14.496094 10.972656 14.496094 10.910156 L 14.496094 9.449219 L 15.960938 9.449219 Z M 18.324219 11.023438 L 16.804688 11.023438 L 16.804688 9.453125 L 18.324219 9.453125 Z M 20.6875 11.023438 L 19.167969 11.023438 L 19.167969 9.453125 L 20.6875 9.453125 Z M 23.046875 11.023438 L 21.527344 11.023438 L 21.527344 9.453125 L 23.046875 9.453125 Z M 25.507812 11.023438 L 23.890625 11.023438 L 23.890625 9.453125 L 25.507812 9.453125 Z M 12.199219 27.191406 L 12.199219 17.394531 L 19.222656 17.394531 C 19.457031 17.394531 19.640625 17.210938 19.640625 16.984375 C 19.640625 16.757812 19.453125 16.570312 19.222656 16.570312 L 2.648438 16.570312 L 2.648438 6.246094 L 7.09375 6.246094 C 7.328125 6.246094 7.511719 6.0625 7.511719 5.839844 C 7.511719 5.613281 7.328125 5.425781 7.09375 5.425781 L 1.324219 5.425781 L 1.324219 3.210938 L 26.832031 3.210938 L 26.832031 5.425781 L 8.78125 5.425781 C 8.546875 5.425781 8.359375 5.613281 8.359375 5.839844 C 8.359375 6.0625 8.546875 6.246094 8.78125 6.246094 L 13.65625 6.246094 L 13.65625 10.910156 C 13.65625 11.425781 14.085938 11.84375 14.613281 11.84375 L 25.507812 11.84375 L 25.507812 16.570312 L 20.910156 16.570312 C 20.675781 16.570312 20.488281 16.757812 20.488281 16.984375 C 20.488281 17.210938 20.675781 17.394531 20.910156 17.394531 L 25.507812 17.394531 L 25.507812 27.191406 Z M 8.933594 27.191406 L 5.066406 27.191406 L 5.066406 19.644531 C 5.066406 19.617188 5.085938 19.589844 5.121094 19.589844 L 8.882812 19.589844 C 8.914062 19.589844 8.933594 19.617188 8.933594 19.644531 Z M 2.648438 17.394531 L 11.359375 17.394531 L 11.359375 27.191406 L 9.78125 27.191406 L 9.78125 19.644531 C 9.78125 19.164062 9.375 18.769531 8.882812 18.769531 L 5.121094 18.769531 C 4.625 18.769531 4.21875 19.164062 4.21875 19.644531 L 4.21875 27.191406 L 2.648438 27.191406 Z M 2.648438 0.820312 L 17.140625 0.820312 L 17.140625 2.390625 L 2.648438 2.390625 Z M 27.085938 6.25 C 27.40625 6.25 27.667969 5.992188 27.667969 5.679688 L 27.667969 2.964844 C 27.667969 2.648438 27.40625 2.390625 27.085938 2.390625 L 17.984375 2.390625 L 17.984375 0.601562 C 17.984375 0.273438 17.703125 0 17.367188 0 L 2.421875 0 C 2.082031 0 1.804688 0.273438 1.804688 0.601562 L 1.804688 2.390625 L 1.066406 2.390625 C 0.746094 2.390625 0.488281 2.644531 0.488281 2.964844 L 0.488281 5.839844 C 0.488281 6.066406 0.671875 6.25 0.90625 6.25 L 1.808594 6.25 L 1.808594 27.191406 L 0.90625 27.191406 C 0.671875 27.191406 0.488281 27.378906 0.488281 27.609375 C 0.488281 27.832031 0.671875 28.015625 0.90625 28.015625 L 27.253906 28.015625 C 27.488281 28.015625 27.675781 27.832031 27.675781 27.609375 C 27.675781 27.378906 27.488281 27.191406 27.253906 27.191406 L 26.347656 27.191406 L 26.347656 6.25 Z M 27.085938 6.25 "/>
<path style=" stroke:none;fill-rule:nonzero;fill:rgb(92.941176%,41.176471%,36.078431%);fill-opacity:1;" d="M 10.460938 14.144531 L 5.550781 14.144531 C 5.546875 14.144531 5.542969 14.140625 5.542969 14.132812 L 5.542969 12.820312 L 10.46875 12.820312 L 10.46875 14.132812 C 10.46875 14.140625 10.464844 14.144531 10.460938 14.144531 Z M 5.550781 8.484375 L 10.460938 8.484375 C 10.464844 8.484375 10.46875 8.488281 10.46875 8.492188 L 10.46875 9.898438 L 5.542969 9.898438 L 5.542969 8.492188 C 5.542969 8.488281 5.546875 8.484375 5.550781 8.484375 Z M 5.542969 10.71875 L 10.46875 10.71875 L 10.46875 11.996094 L 5.542969 11.996094 Z M 10.460938 7.664062 L 5.550781 7.664062 C 5.085938 7.664062 4.703125 8.039062 4.703125 8.492188 L 4.703125 14.136719 C 4.703125 14.59375 5.085938 14.964844 5.550781 14.964844 L 10.460938 14.964844 C 10.929688 14.964844 11.316406 14.59375 11.316406 14.136719 L 11.316406 8.492188 C 11.316406 8.039062 10.929688 7.664062 10.460938 7.664062 Z M 10.460938 7.664062 "/>
<path style=" stroke:none;fill-rule:nonzero;fill:rgb(92.941176%,41.176471%,36.078431%);fill-opacity:1;" d="M 22.777344 25.0625 L 19.167969 25.0625 L 19.167969 23.738281 L 22.789062 23.738281 L 22.789062 25.054688 C 22.789062 25.058594 22.785156 25.0625 22.777344 25.0625 Z M 14.703125 25.054688 L 14.703125 19.414062 C 14.703125 19.410156 14.710938 19.402344 14.710938 19.402344 L 18.320312 19.402344 L 18.320312 25.058594 L 14.710938 25.058594 C 14.710938 25.058594 14.703125 25.054688 14.703125 25.050781 Z M 22.789062 19.414062 L 22.789062 20.820312 L 19.167969 20.820312 L 19.167969 19.402344 L 22.777344 19.402344 C 22.785156 19.402344 22.789062 19.410156 22.789062 19.414062 Z M 19.167969 21.636719 L 22.789062 21.636719 L 22.789062 22.914062 L 19.167969 22.914062 Z M 22.777344 18.582031 L 14.710938 18.582031 C 14.246094 18.582031 13.859375 18.957031 13.859375 19.414062 L 13.859375 25.054688 C 13.859375 25.511719 14.246094 25.882812 14.710938 25.882812 L 22.777344 25.882812 C 23.246094 25.882812 23.628906 25.511719 23.628906 25.054688 L 23.628906 19.414062 C 23.628906 18.957031 23.246094 18.582031 22.777344 18.582031 Z M 22.777344 18.582031 "/>
</g>
</svg>
