<?xml version="1.0" encoding="UTF-8"?>
<svg xmlns="http://www.w3.org/2000/svg" xmlns:xlink="http://www.w3.org/1999/xlink" width="28px" height="28px" viewBox="0 0 28 28" version="1.1">
<g id="surface1">
<path style=" stroke:none;fill-rule:nonzero;fill:rgb(92.941176%,41.176471%,36.078431%);fill-opacity:1;" d="M 17.675781 9.585938 L 18.503906 9.585938 L 18.503906 10.40625 L 17.675781 10.40625 Z M 16.84375 9.175781 L 16.84375 10.820312 C 16.84375 11.046875 17.03125 11.230469 17.261719 11.230469 L 18.917969 11.230469 C 19.148438 11.230469 19.335938 11.046875 19.335938 10.820312 L 19.335938 9.175781 C 19.335938 8.949219 19.148438 8.761719 18.917969 8.761719 L 17.261719 8.761719 C 17.03125 8.761719 16.84375 8.949219 16.84375 9.175781 Z M 16.84375 9.175781 "/>
<path style=" stroke:none;fill-rule:nonzero;fill:rgb(92.941176%,41.176471%,36.078431%);fill-opacity:1;" d="M 27.492188 14.496094 L 23.023438 14.496094 C 22.796875 14.496094 22.609375 14.679688 22.609375 14.90625 C 22.609375 15.136719 22.796875 15.316406 23.023438 15.316406 L 24.976562 15.316406 L 24.976562 19.507812 L 24.019531 19.507812 L 24.019531 16.902344 C 24.019531 16.675781 23.832031 16.492188 23.605469 16.492188 L 20.285156 16.492188 C 20.054688 16.492188 19.871094 16.675781 19.871094 16.902344 L 19.871094 19.507812 L 18.914062 19.507812 L 18.914062 15.316406 L 21.089844 15.316406 C 21.320312 15.316406 21.503906 15.136719 21.503906 14.90625 C 21.503906 14.679688 21.320312 14.496094 21.089844 14.496094 L 18.613281 14.496094 L 10.445312 9.699219 C 10.320312 9.628906 10.167969 9.625 10.039062 9.691406 L 7.253906 11.164062 C 7.050781 11.269531 6.976562 11.519531 7.085938 11.71875 C 7.191406 11.921875 7.441406 11.996094 7.644531 11.890625 L 10.222656 10.523438 L 16.144531 14.003906 L 3.648438 14.003906 L 5.949219 12.785156 C 6.148438 12.679688 6.226562 12.429688 6.117188 12.230469 C 6.007812 12.03125 5.757812 11.953125 5.554688 12.0625 L 1.226562 14.351562 L 0.878906 13.707031 L 10.15625 8.804688 C 10.199219 8.78125 10.25 8.785156 10.292969 8.808594 L 18.820312 13.757812 C 18.886719 13.796875 18.957031 13.816406 19.03125 13.816406 L 27.492188 13.816406 Z M 26.636719 22.464844 L 25.804688 22.464844 L 25.804688 15.316406 L 26.636719 15.316406 Z M 19.871094 22.464844 L 18.910156 22.464844 L 18.910156 20.332031 L 19.871094 20.332031 Z M 23.1875 22.464844 L 20.699219 22.464844 L 20.699219 17.316406 L 23.1875 17.316406 Z M 24.019531 20.332031 L 24.976562 20.332031 L 24.976562 22.464844 L 24.019531 22.464844 Z M 2.386719 20.332031 L 4.839844 20.332031 L 4.839844 20.660156 C 4.839844 20.886719 5.027344 21.070312 5.253906 21.070312 L 8.574219 21.070312 C 8.804688 21.070312 8.988281 20.886719 8.988281 20.660156 L 8.988281 20.332031 L 11.476562 20.332031 L 11.476562 20.660156 C 11.476562 20.886719 11.664062 21.070312 11.894531 21.070312 L 15.210938 21.070312 C 15.441406 21.070312 15.625 20.886719 15.625 20.660156 L 15.625 20.332031 L 18.082031 20.332031 L 18.082031 22.464844 L 2.386719 22.464844 Z M 6.5 16.683594 L 6.5 18.054688 L 5.671875 18.054688 L 5.671875 16.683594 Z M 8.160156 18.054688 L 7.328125 18.054688 L 7.328125 16.683594 L 8.160156 16.683594 Z M 7.328125 18.875 L 8.160156 18.875 L 8.160156 20.25 L 7.328125 20.25 Z M 5.671875 18.875 L 6.5 18.875 L 6.5 20.25 L 5.671875 20.25 Z M 13.136719 16.683594 L 13.136719 18.054688 L 12.308594 18.054688 L 12.308594 16.683594 Z M 14.796875 18.054688 L 13.96875 18.054688 L 13.96875 16.683594 L 14.796875 16.683594 Z M 13.96875 18.875 L 14.796875 18.875 L 14.796875 20.25 L 13.96875 20.25 Z M 12.308594 18.875 L 13.136719 18.875 L 13.136719 20.25 L 12.308594 20.25 Z M 18.023438 5.839844 C 18.0625 5.816406 18.113281 5.816406 18.152344 5.839844 L 27.441406 10.75 L 27.097656 11.390625 L 18.285156 6.730469 C 18.160156 6.667969 18.015625 6.667969 17.894531 6.730469 L 12.898438 9.371094 L 12.15625 8.941406 Z M 24.277344 7.324219 C 24.335938 7.324219 24.394531 7.363281 24.410156 7.425781 L 24.683594 8.359375 L 22.726562 7.324219 Z M 25.9375 12.996094 L 19.140625 12.996094 L 13.742188 9.859375 L 18.089844 7.558594 L 25.9375 11.707031 Z M 27.628906 12.996094 L 26.765625 12.996094 L 26.765625 12.148438 L 26.832031 12.179688 C 26.933594 12.234375 27.046875 12.261719 27.152344 12.261719 C 27.402344 12.261719 27.640625 12.128906 27.765625 11.898438 L 28.242188 11.015625 C 28.328125 10.851562 28.347656 10.667969 28.292969 10.492188 C 28.238281 10.316406 28.121094 10.175781 27.957031 10.089844 L 25.707031 8.898438 L 25.207031 7.195312 C 25.085938 6.789062 24.703125 6.5 24.277344 6.5 L 21.171875 6.5 L 18.542969 5.113281 C 18.257812 4.960938 17.917969 4.960938 17.632812 5.113281 L 15.003906 6.5 L 9.449219 6.5 C 9.21875 6.5 9.035156 6.6875 9.035156 6.914062 C 9.035156 7.140625 9.21875 7.324219 9.449219 7.324219 L 13.449219 7.324219 L 11.316406 8.453125 L 10.710938 8.097656 C 10.421875 7.933594 10.058594 7.925781 9.765625 8.082031 L 2.613281 11.863281 L 3.914062 7.425781 C 3.929688 7.367188 3.984375 7.324219 4.046875 7.324219 L 7.511719 7.324219 C 7.742188 7.324219 7.925781 7.140625 7.925781 6.914062 C 7.925781 6.6875 7.742188 6.503906 7.511719 6.503906 L 4.046875 6.503906 C 3.617188 6.503906 3.234375 6.789062 3.117188 7.195312 L 1.589844 12.402344 L 0.367188 13.050781 C 0.203125 13.136719 0.0820312 13.277344 0.03125 13.453125 C -0.0234375 13.628906 -0.00390625 13.8125 0.0820312 13.972656 L 0.558594 14.859375 C 0.734375 15.191406 1.15625 15.320312 1.492188 15.140625 L 1.554688 15.109375 L 1.554688 16.433594 C 1.554688 16.660156 1.742188 16.84375 1.96875 16.84375 C 2.199219 16.84375 2.386719 16.660156 2.386719 16.433594 L 2.386719 14.824219 L 17.542969 14.824219 L 18.082031 15.140625 L 18.082031 19.507812 L 15.625 19.507812 L 15.625 16.273438 C 15.625 16.046875 15.441406 15.863281 15.210938 15.863281 L 11.894531 15.863281 C 11.664062 15.863281 11.476562 16.046875 11.476562 16.273438 L 11.476562 19.507812 L 8.988281 19.507812 L 8.988281 16.273438 C 8.988281 16.046875 8.800781 15.863281 8.574219 15.863281 L 5.253906 15.863281 C 5.027344 15.863281 4.839844 16.046875 4.839844 16.273438 L 4.839844 19.507812 L 2.386719 19.507812 L 2.386719 18.351562 C 2.386719 18.125 2.199219 17.941406 1.96875 17.941406 C 1.742188 17.941406 1.554688 18.125 1.554688 18.351562 L 1.554688 22.464844 L 0.414062 22.464844 C 0.183594 22.464844 0 22.648438 0 22.878906 C 0 23.105469 0.183594 23.289062 0.414062 23.289062 L 27.90625 23.289062 C 28.136719 23.289062 28.324219 23.105469 28.324219 22.878906 C 28.324219 22.648438 28.136719 22.464844 27.90625 22.464844 L 27.464844 22.464844 L 27.464844 15.316406 L 27.628906 15.316406 C 28.011719 15.316406 28.324219 15.011719 28.324219 14.632812 L 28.324219 13.679688 C 28.324219 13.300781 28.011719 12.996094 27.628906 12.996094 Z M 27.628906 12.996094 "/>
<path style=" stroke:none;fill-rule:nonzero;fill:rgb(92.941176%,41.176471%,36.078431%);fill-opacity:1;" d="M 10.234375 13.230469 C 10.464844 13.230469 10.648438 13.046875 10.648438 12.820312 L 10.648438 12 C 10.648438 11.769531 10.464844 11.585938 10.234375 11.585938 C 10.003906 11.585938 9.820312 11.769531 9.820312 12 L 9.820312 12.820312 C 9.820312 13.046875 10.003906 13.230469 10.234375 13.230469 Z M 10.234375 13.230469 "/>
<path style=" stroke:none;fill-rule:nonzero;fill:rgb(92.941176%,41.176471%,36.078431%);fill-opacity:1;" d="M 21.707031 20.578125 C 21.9375 20.578125 22.121094 20.390625 22.121094 20.164062 L 22.121094 19.617188 C 22.121094 19.390625 21.9375 19.203125 21.707031 19.203125 C 21.476562 19.203125 21.292969 19.390625 21.292969 19.617188 L 21.292969 20.164062 C 21.292969 20.390625 21.476562 20.578125 21.707031 20.578125 Z M 21.707031 20.578125 "/>
</g>
</svg>
