<?xml version="1.0" encoding="UTF-8"?>
<svg xmlns="http://www.w3.org/2000/svg" xmlns:xlink="http://www.w3.org/1999/xlink" width="28px" height="28px" viewBox="0 0 28 18" version="1.1">
<g id="surface1">
<path style=" stroke:none;fill-rule:nonzero;fill:rgb(92.941176%,41.176471%,36.078431%);fill-opacity:1;" d="M 17.675781 4.585938 L 18.503906 4.585938 L 18.503906 5.40625 L 17.675781 5.40625 Z M 16.84375 4.175781 L 16.84375 5.820312 C 16.84375 6.046875 17.03125 6.230469 17.261719 6.230469 L 18.917969 6.230469 C 19.148438 6.230469 19.335938 6.046875 19.335938 5.820312 L 19.335938 4.175781 C 19.335938 3.949219 19.148438 3.761719 18.917969 3.761719 L 17.261719 3.761719 C 17.03125 3.761719 16.84375 3.949219 16.84375 4.175781 Z M 16.84375 4.175781 "/>
<path style=" stroke:none;fill-rule:nonzero;fill:rgb(92.941176%,41.176471%,36.078431%);fill-opacity:1;" d="M 27.492188 9.496094 L 23.023438 9.496094 C 22.796875 9.496094 22.609375 9.679688 22.609375 9.90625 C 22.609375 10.136719 22.796875 10.316406 23.023438 10.316406 L 24.976562 10.316406 L 24.976562 14.507812 L 24.019531 14.507812 L 24.019531 11.902344 C 24.019531 11.675781 23.832031 11.492188 23.605469 11.492188 L 20.285156 11.492188 C 20.054688 11.492188 19.871094 11.675781 19.871094 11.902344 L 19.871094 14.507812 L 18.914062 14.507812 L 18.914062 10.316406 L 21.089844 10.316406 C 21.320312 10.316406 21.503906 10.136719 21.503906 9.90625 C 21.503906 9.679688 21.320312 9.496094 21.089844 9.496094 L 18.613281 9.496094 L 10.445312 4.699219 C 10.320312 4.628906 10.167969 4.625 10.039062 4.691406 L 7.253906 6.164062 C 7.050781 6.269531 6.976562 6.519531 7.085938 6.71875 C 7.191406 6.921875 7.441406 6.996094 7.644531 6.890625 L 10.222656 5.523438 L 16.144531 9.003906 L 3.648438 9.003906 L 5.949219 7.785156 C 6.148438 7.679688 6.226562 7.429688 6.117188 7.230469 C 6.007812 7.03125 5.757812 6.953125 5.554688 7.0625 L 1.226562 9.351562 L 0.878906 8.707031 L 10.15625 3.804688 C 10.199219 3.78125 10.25 3.785156 10.292969 3.808594 L 18.820312 8.757812 C 18.886719 8.796875 18.957031 8.816406 19.03125 8.816406 L 27.492188 8.816406 Z M 26.636719 17.464844 L 25.804688 17.464844 L 25.804688 10.316406 L 26.636719 10.316406 Z M 19.871094 17.464844 L 18.910156 17.464844 L 18.910156 15.332031 L 19.871094 15.332031 Z M 23.1875 17.464844 L 20.699219 17.464844 L 20.699219 12.316406 L 23.1875 12.316406 Z M 24.019531 15.332031 L 24.976562 15.332031 L 24.976562 17.464844 L 24.019531 17.464844 Z M 2.386719 15.332031 L 4.839844 15.332031 L 4.839844 15.660156 C 4.839844 15.886719 5.027344 16.070312 5.253906 16.070312 L 8.574219 16.070312 C 8.804688 16.070312 8.988281 15.886719 8.988281 15.660156 L 8.988281 15.332031 L 11.476562 15.332031 L 11.476562 15.660156 C 11.476562 15.886719 11.664062 16.070312 11.894531 16.070312 L 15.210938 16.070312 C 15.441406 16.070312 15.625 15.886719 15.625 15.660156 L 15.625 15.332031 L 18.082031 15.332031 L 18.082031 17.464844 L 2.386719 17.464844 Z M 6.5 11.683594 L 6.5 13.054688 L 5.671875 13.054688 L 5.671875 11.683594 Z M 8.160156 13.054688 L 7.328125 13.054688 L 7.328125 11.683594 L 8.160156 11.683594 Z M 7.328125 13.875 L 8.160156 13.875 L 8.160156 15.25 L 7.328125 15.25 Z M 5.671875 13.875 L 6.5 13.875 L 6.5 15.25 L 5.671875 15.25 Z M 13.136719 11.683594 L 13.136719 13.054688 L 12.308594 13.054688 L 12.308594 11.683594 Z M 14.796875 13.054688 L 13.96875 13.054688 L 13.96875 11.683594 L 14.796875 11.683594 Z M 13.96875 13.875 L 14.796875 13.875 L 14.796875 15.25 L 13.96875 15.25 Z M 12.308594 13.875 L 13.136719 13.875 L 13.136719 15.25 L 12.308594 15.25 Z M 18.023438 0.839844 C 18.0625 0.816406 18.113281 0.816406 18.152344 0.839844 L 27.441406 5.75 L 27.097656 6.390625 L 18.285156 1.730469 C 18.160156 1.667969 18.015625 1.667969 17.894531 1.730469 L 12.898438 4.371094 L 12.15625 3.941406 Z M 24.277344 2.324219 C 24.335938 2.324219 24.394531 2.363281 24.410156 2.425781 L 24.683594 3.359375 L 22.726562 2.324219 Z M 25.9375 7.996094 L 19.140625 7.996094 L 13.742188 4.859375 L 18.089844 2.558594 L 25.9375 6.707031 Z M 27.628906 7.996094 L 26.765625 7.996094 L 26.765625 7.148438 L 26.832031 7.179688 C 26.933594 7.234375 27.046875 7.261719 27.152344 7.261719 C 27.402344 7.261719 27.640625 7.128906 27.765625 6.898438 L 28.242188 6.015625 C 28.328125 5.851562 28.347656 5.667969 28.292969 5.492188 C 28.238281 5.316406 28.121094 5.175781 27.957031 5.089844 L 25.707031 3.898438 L 25.207031 2.195312 C 25.085938 1.789062 24.703125 1.5 24.277344 1.5 L 21.171875 1.5 L 18.542969 0.113281 C 18.257812 -0.0390625 17.917969 -0.0390625 17.632812 0.113281 L 15.003906 1.5 L 9.449219 1.5 C 9.21875 1.5 9.035156 1.6875 9.035156 1.914062 C 9.035156 2.140625 9.21875 2.324219 9.449219 2.324219 L 13.449219 2.324219 L 11.316406 3.453125 L 10.710938 3.097656 C 10.421875 2.933594 10.058594 2.925781 9.765625 3.082031 L 2.613281 6.863281 L 3.914062 2.425781 C 3.929688 2.367188 3.984375 2.324219 4.046875 2.324219 L 7.511719 2.324219 C 7.742188 2.324219 7.925781 2.140625 7.925781 1.914062 C 7.925781 1.6875 7.742188 1.503906 7.511719 1.503906 L 4.046875 1.503906 C 3.617188 1.503906 3.234375 1.789062 3.117188 2.195312 L 1.589844 7.402344 L 0.367188 8.050781 C 0.203125 8.136719 0.0820312 8.277344 0.03125 8.453125 C -0.0234375 8.628906 -0.00390625 8.8125 0.0820312 8.972656 L 0.558594 9.859375 C 0.734375 10.191406 1.15625 10.320312 1.492188 10.140625 L 1.554688 10.109375 L 1.554688 11.433594 C 1.554688 11.660156 1.742188 11.84375 1.96875 11.84375 C 2.199219 11.84375 2.386719 11.660156 2.386719 11.433594 L 2.386719 9.824219 L 17.542969 9.824219 L 18.082031 10.140625 L 18.082031 14.507812 L 15.625 14.507812 L 15.625 11.273438 C 15.625 11.046875 15.441406 10.863281 15.210938 10.863281 L 11.894531 10.863281 C 11.664062 10.863281 11.476562 11.046875 11.476562 11.273438 L 11.476562 14.507812 L 8.988281 14.507812 L 8.988281 11.273438 C 8.988281 11.046875 8.800781 10.863281 8.574219 10.863281 L 5.253906 10.863281 C 5.027344 10.863281 4.839844 11.046875 4.839844 11.273438 L 4.839844 14.507812 L 2.386719 14.507812 L 2.386719 13.351562 C 2.386719 13.125 2.199219 12.941406 1.96875 12.941406 C 1.742188 12.941406 1.554688 13.125 1.554688 13.351562 L 1.554688 17.464844 L 0.414062 17.464844 C 0.183594 17.464844 0 17.648438 0 17.878906 C 0 18.105469 0.183594 18.289062 0.414062 18.289062 L 27.90625 18.289062 C 28.136719 18.289062 28.324219 18.105469 28.324219 17.878906 C 28.324219 17.648438 28.136719 17.464844 27.90625 17.464844 L 27.464844 17.464844 L 27.464844 10.316406 L 27.628906 10.316406 C 28.011719 10.316406 28.324219 10.011719 28.324219 9.632812 L 28.324219 8.679688 C 28.324219 8.300781 28.011719 7.996094 27.628906 7.996094 Z M 27.628906 7.996094 "/>
<path style=" stroke:none;fill-rule:nonzero;fill:rgb(92.941176%,41.176471%,36.078431%);fill-opacity:1;" d="M 10.234375 8.230469 C 10.464844 8.230469 10.648438 8.046875 10.648438 7.820312 L 10.648438 7 C 10.648438 6.769531 10.464844 6.585938 10.234375 6.585938 C 10.003906 6.585938 9.820312 6.769531 9.820312 7 L 9.820312 7.820312 C 9.820312 8.046875 10.003906 8.230469 10.234375 8.230469 Z M 10.234375 8.230469 "/>
<path style=" stroke:none;fill-rule:nonzero;fill:rgb(92.941176%,41.176471%,36.078431%);fill-opacity:1;" d="M 21.707031 15.578125 C 21.9375 15.578125 22.121094 15.390625 22.121094 15.164062 L 22.121094 14.617188 C 22.121094 14.390625 21.9375 14.203125 21.707031 14.203125 C 21.476562 14.203125 21.292969 14.390625 21.292969 14.617188 L 21.292969 15.164062 C 21.292969 15.390625 21.476562 15.578125 21.707031 15.578125 Z M 21.707031 15.578125 "/>
</g>
</svg>
