<?xml version="1.0" encoding="UTF-8"?>
<svg xmlns="http://www.w3.org/2000/svg" xmlns:xlink="http://www.w3.org/1999/xlink" width="28px" height="28px" viewBox="0 0 28 28" version="1.1">
<g id="surface1">
<path style=" stroke:none;fill-rule:nonzero;fill:rgb(92.941176%,41.176471%,36.078431%);fill-opacity:1;" d="M 26.859375 24.019531 L 1.292969 24.019531 C 1.035156 24.019531 0.824219 23.820312 0.824219 23.570312 C 0.824219 23.324219 1.035156 23.125 1.292969 23.125 L 26.859375 23.125 C 27.117188 23.125 27.324219 23.324219 27.324219 23.570312 C 27.324219 23.820312 27.117188 24.019531 26.859375 24.019531 Z M 2.558594 17.652344 L 17.070312 17.652344 L 17.070312 22.335938 L 15.121094 22.335938 L 15.121094 19.046875 C 15.121094 18.828125 14.933594 18.652344 14.707031 18.652344 L 7.03125 18.652344 C 6.804688 18.652344 6.617188 18.828125 6.617188 19.046875 C 6.617188 19.265625 6.804688 19.441406 7.03125 19.441406 L 14.292969 19.441406 L 14.292969 22.335938 L 4.671875 22.335938 L 4.671875 19.441406 L 5.28125 19.441406 C 5.507812 19.441406 5.695312 19.265625 5.695312 19.046875 C 5.695312 18.828125 5.507812 18.652344 5.28125 18.652344 L 4.261719 18.652344 C 4.035156 18.652344 3.847656 18.828125 3.847656 19.046875 L 3.847656 22.335938 L 2.554688 22.335938 L 2.554688 17.652344 Z M 3.195312 15.636719 L 3.875 15.636719 L 3.875 16.863281 L 3.195312 16.863281 Z M 23.449219 6.136719 L 23.449219 16.863281 L 4.699219 16.863281 L 4.699219 9.964844 Z M 24.953125 15.636719 L 24.953125 16.863281 L 24.273438 16.863281 L 24.273438 15.636719 Z M 22.789062 18.28125 L 17.898438 18.28125 L 17.898438 17.652344 L 22.789062 17.652344 Z M 17.898438 21.707031 L 22.789062 21.707031 L 22.789062 22.335938 L 17.898438 22.335938 Z M 22.789062 19.597656 L 17.898438 19.597656 L 17.898438 19.070312 L 22.789062 19.070312 Z M 17.898438 20.390625 L 22.789062 20.390625 L 22.789062 20.917969 L 17.898438 20.917969 Z M 26.859375 22.335938 L 26.417969 22.335938 L 26.417969 21.730469 C 26.417969 21.511719 26.234375 21.335938 26.007812 21.335938 C 25.777344 21.335938 25.59375 21.511719 25.59375 21.730469 L 25.59375 22.335938 L 23.613281 22.335938 L 23.613281 17.652344 L 25.59375 17.652344 L 25.59375 20.050781 C 25.59375 20.269531 25.777344 20.445312 26.007812 20.445312 C 26.234375 20.445312 26.417969 20.269531 26.417969 20.050781 L 26.417969 17.257812 C 26.417969 17.039062 26.234375 16.863281 26.007812 16.863281 L 25.777344 16.863281 L 25.777344 15.636719 L 26.007812 15.636719 C 26.234375 15.636719 26.417969 15.460938 26.417969 15.242188 C 26.417969 15.023438 26.234375 14.847656 26.007812 14.847656 L 24.273438 14.847656 L 24.273438 5.96875 L 24.890625 5.84375 C 25.214844 5.777344 25.488281 5.59375 25.667969 5.328125 C 25.851562 5.0625 25.910156 4.746094 25.839844 4.4375 C 25.699219 3.796875 25.039062 3.390625 24.375 3.527344 L 21.257812 4.164062 C 21.035156 4.210938 20.894531 4.417969 20.941406 4.628906 C 20.988281 4.84375 21.207031 4.980469 21.429688 4.933594 L 24.546875 4.296875 C 24.769531 4.253906 24.988281 4.386719 25.035156 4.601562 C 25.058594 4.703125 25.039062 4.808594 24.976562 4.898438 C 24.917969 4.988281 24.824219 5.046875 24.71875 5.070312 L 3.605469 9.382812 C 3.574219 9.390625 3.546875 9.394531 3.519531 9.394531 C 3.324219 9.394531 3.15625 9.261719 3.113281 9.082031 C 3.09375 8.976562 3.113281 8.871094 3.171875 8.785156 C 3.230469 8.695312 3.324219 8.632812 3.433594 8.613281 L 19.6875 5.289062 C 19.910156 5.246094 20.054688 5.035156 20.003906 4.820312 C 19.957031 4.609375 19.738281 4.472656 19.515625 4.519531 L 3.261719 7.839844 C 2.9375 7.90625 2.660156 8.089844 2.480469 8.355469 C 2.300781 8.621094 2.238281 8.9375 2.308594 9.246094 C 2.429688 9.789062 2.9375 10.183594 3.519531 10.183594 C 3.605469 10.183594 3.691406 10.171875 3.777344 10.15625 L 3.875 10.136719 L 3.875 14.847656 L 2.144531 14.847656 C 1.914062 14.847656 1.730469 15.023438 1.730469 15.242188 C 1.730469 15.460938 1.914062 15.636719 2.144531 15.636719 L 2.371094 15.636719 L 2.371094 16.863281 L 2.144531 16.863281 C 1.914062 16.863281 1.730469 17.039062 1.730469 17.257812 L 1.730469 22.335938 L 1.292969 22.335938 C 0.578125 22.335938 0 22.890625 0 23.570312 C 0 24.253906 0.578125 24.808594 1.292969 24.808594 L 26.859375 24.808594 C 27.570312 24.808594 28.152344 24.253906 28.152344 23.570312 C 28.152344 22.890625 27.570312 22.335938 26.859375 22.335938 Z M 26.859375 22.335938 "/>
<path style=" stroke:none;fill-rule:nonzero;fill:rgb(92.941176%,41.176471%,36.078431%);fill-opacity:1;" d="M 6.351562 11.054688 L 9.265625 10.449219 L 9.265625 15.285156 L 6.351562 15.285156 Z M 21.800781 15.285156 L 18.886719 15.285156 L 18.886719 8.460938 L 21.800781 7.859375 Z M 14.488281 9.371094 L 18.0625 8.628906 L 18.0625 15.285156 L 14.488281 15.285156 Z M 13.664062 15.285156 L 10.089844 15.285156 L 10.089844 10.28125 L 13.664062 9.539062 Z M 5.9375 16.074219 L 22.214844 16.074219 C 22.441406 16.074219 22.625 15.898438 22.625 15.679688 L 22.625 7.367188 C 22.625 7.25 22.566406 7.136719 22.472656 7.0625 C 22.375 6.984375 22.246094 6.957031 22.125 6.984375 L 9.597656 9.574219 C 9.59375 9.574219 9.585938 9.574219 9.582031 9.578125 L 5.851562 10.347656 C 5.660156 10.386719 5.527344 10.546875 5.527344 10.734375 L 5.527344 15.679688 C 5.527344 15.898438 5.710938 16.074219 5.9375 16.074219 Z M 5.9375 16.074219 "/>
</g>
</svg>
