<?xml version="1.0" encoding="UTF-8"?>
<svg xmlns="http://www.w3.org/2000/svg" xmlns:xlink="http://www.w3.org/1999/xlink" width="28px" height="28px" viewBox="0 0 28 21" version="1.1">
<g id="surface1">
<path style=" stroke:none;fill-rule:nonzero;fill:rgb(92.941176%,41.176471%,36.078431%);fill-opacity:1;" d="M 26.859375 20.519531 L 1.292969 20.519531 C 1.035156 20.519531 0.824219 20.320312 0.824219 20.070312 C 0.824219 19.824219 1.035156 19.625 1.292969 19.625 L 26.859375 19.625 C 27.117188 19.625 27.324219 19.824219 27.324219 20.070312 C 27.324219 20.320312 27.117188 20.519531 26.859375 20.519531 Z M 2.558594 14.152344 L 17.070312 14.152344 L 17.070312 18.835938 L 15.121094 18.835938 L 15.121094 15.546875 C 15.121094 15.328125 14.933594 15.152344 14.707031 15.152344 L 7.03125 15.152344 C 6.804688 15.152344 6.617188 15.328125 6.617188 15.546875 C 6.617188 15.765625 6.804688 15.941406 7.03125 15.941406 L 14.292969 15.941406 L 14.292969 18.835938 L 4.671875 18.835938 L 4.671875 15.941406 L 5.28125 15.941406 C 5.507812 15.941406 5.695312 15.765625 5.695312 15.546875 C 5.695312 15.328125 5.507812 15.152344 5.28125 15.152344 L 4.261719 15.152344 C 4.035156 15.152344 3.847656 15.328125 3.847656 15.546875 L 3.847656 18.835938 L 2.554688 18.835938 L 2.554688 14.152344 Z M 3.195312 12.136719 L 3.875 12.136719 L 3.875 13.363281 L 3.195312 13.363281 Z M 23.449219 2.636719 L 23.449219 13.363281 L 4.699219 13.363281 L 4.699219 6.464844 Z M 24.953125 12.136719 L 24.953125 13.363281 L 24.273438 13.363281 L 24.273438 12.136719 Z M 22.789062 14.78125 L 17.898438 14.78125 L 17.898438 14.152344 L 22.789062 14.152344 Z M 17.898438 18.207031 L 22.789062 18.207031 L 22.789062 18.835938 L 17.898438 18.835938 Z M 22.789062 16.097656 L 17.898438 16.097656 L 17.898438 15.570312 L 22.789062 15.570312 Z M 17.898438 16.890625 L 22.789062 16.890625 L 22.789062 17.417969 L 17.898438 17.417969 Z M 26.859375 18.835938 L 26.417969 18.835938 L 26.417969 18.230469 C 26.417969 18.011719 26.234375 17.835938 26.007812 17.835938 C 25.777344 17.835938 25.59375 18.011719 25.59375 18.230469 L 25.59375 18.835938 L 23.613281 18.835938 L 23.613281 14.152344 L 25.59375 14.152344 L 25.59375 16.550781 C 25.59375 16.769531 25.777344 16.945312 26.007812 16.945312 C 26.234375 16.945312 26.417969 16.769531 26.417969 16.550781 L 26.417969 13.757812 C 26.417969 13.539062 26.234375 13.363281 26.007812 13.363281 L 25.777344 13.363281 L 25.777344 12.136719 L 26.007812 12.136719 C 26.234375 12.136719 26.417969 11.960938 26.417969 11.742188 C 26.417969 11.523438 26.234375 11.347656 26.007812 11.347656 L 24.273438 11.347656 L 24.273438 2.46875 L 24.890625 2.34375 C 25.214844 2.277344 25.488281 2.09375 25.667969 1.828125 C 25.851562 1.5625 25.910156 1.246094 25.839844 0.9375 C 25.699219 0.296875 25.039062 -0.109375 24.375 0.0273438 L 21.257812 0.664062 C 21.035156 0.710938 20.894531 0.917969 20.941406 1.128906 C 20.988281 1.34375 21.207031 1.480469 21.429688 1.433594 L 24.546875 0.796875 C 24.769531 0.753906 24.988281 0.886719 25.035156 1.101562 C 25.058594 1.203125 25.039062 1.308594 24.976562 1.398438 C 24.917969 1.488281 24.824219 1.546875 24.71875 1.570312 L 3.605469 5.882812 C 3.574219 5.890625 3.546875 5.894531 3.519531 5.894531 C 3.324219 5.894531 3.15625 5.761719 3.113281 5.582031 C 3.09375 5.476562 3.113281 5.371094 3.171875 5.285156 C 3.230469 5.195312 3.324219 5.132812 3.433594 5.113281 L 19.6875 1.789062 C 19.910156 1.746094 20.054688 1.535156 20.003906 1.320312 C 19.957031 1.109375 19.738281 0.972656 19.515625 1.019531 L 3.261719 4.339844 C 2.9375 4.40625 2.660156 4.589844 2.480469 4.855469 C 2.300781 5.121094 2.238281 5.4375 2.308594 5.746094 C 2.429688 6.289062 2.9375 6.683594 3.519531 6.683594 C 3.605469 6.683594 3.691406 6.671875 3.777344 6.65625 L 3.875 6.636719 L 3.875 11.347656 L 2.144531 11.347656 C 1.914062 11.347656 1.730469 11.523438 1.730469 11.742188 C 1.730469 11.960938 1.914062 12.136719 2.144531 12.136719 L 2.371094 12.136719 L 2.371094 13.363281 L 2.144531 13.363281 C 1.914062 13.363281 1.730469 13.539062 1.730469 13.757812 L 1.730469 18.835938 L 1.292969 18.835938 C 0.578125 18.835938 0 19.390625 0 20.070312 C 0 20.753906 0.578125 21.308594 1.292969 21.308594 L 26.859375 21.308594 C 27.570312 21.308594 28.152344 20.753906 28.152344 20.070312 C 28.152344 19.390625 27.570312 18.835938 26.859375 18.835938 Z M 26.859375 18.835938 "/>
<path style=" stroke:none;fill-rule:nonzero;fill:rgb(92.941176%,41.176471%,36.078431%);fill-opacity:1;" d="M 6.351562 7.554688 L 9.265625 6.949219 L 9.265625 11.785156 L 6.351562 11.785156 Z M 21.800781 11.785156 L 18.886719 11.785156 L 18.886719 4.960938 L 21.800781 4.359375 Z M 14.488281 5.871094 L 18.0625 5.128906 L 18.0625 11.785156 L 14.488281 11.785156 Z M 13.664062 11.785156 L 10.089844 11.785156 L 10.089844 6.78125 L 13.664062 6.039062 Z M 5.9375 12.574219 L 22.214844 12.574219 C 22.441406 12.574219 22.625 12.398438 22.625 12.179688 L 22.625 3.867188 C 22.625 3.75 22.566406 3.636719 22.472656 3.5625 C 22.375 3.484375 22.246094 3.457031 22.125 3.484375 L 9.597656 6.074219 C 9.59375 6.074219 9.585938 6.074219 9.582031 6.078125 L 5.851562 6.847656 C 5.660156 6.886719 5.527344 7.046875 5.527344 7.234375 L 5.527344 12.179688 C 5.527344 12.398438 5.710938 12.574219 5.9375 12.574219 Z M 5.9375 12.574219 "/>
</g>
</svg>
