<?xml version="1.0" encoding="UTF-8"?>
<svg xmlns="http://www.w3.org/2000/svg" xmlns:xlink="http://www.w3.org/1999/xlink" width="28px" height="28px" viewBox="0 0 28 28" version="1.1">
<g id="surface1">
<path style=" stroke:none;fill-rule:nonzero;fill:rgb(92.941176%,41.176471%,36.078431%);fill-opacity:1;" d="M 13.890625 22.898438 L 13.890625 16.480469 C 13.890625 16.242188 13.6875 16.050781 13.441406 16.050781 L 4.480469 16.050781 C 4.234375 16.050781 4.03125 16.242188 4.03125 16.480469 L 4.03125 22.898438 L 3.585938 22.898438 L 3.585938 15.195312 L 24.191406 15.195312 L 24.191406 22.898438 Z M 11.648438 22.898438 L 11.648438 16.910156 L 12.992188 16.910156 L 12.992188 22.898438 Z M 9.410156 22.898438 L 9.410156 16.910156 L 10.753906 16.910156 L 10.753906 22.898438 Z M 7.167969 22.898438 L 7.167969 16.910156 L 8.511719 16.910156 L 8.511719 22.898438 Z M 4.929688 22.898438 L 4.929688 16.910156 L 6.273438 16.910156 L 6.273438 22.898438 Z M 1.792969 9.074219 L 11.648438 5.546875 L 11.648438 14.339844 L 1.792969 14.339844 Z M 25.984375 9.207031 L 25.984375 9.632812 L 13.441406 9.632812 C 13.191406 9.632812 12.992188 9.824219 12.992188 10.0625 L 12.992188 13.484375 C 12.992188 13.722656 13.191406 13.914062 13.441406 13.914062 L 25.984375 13.914062 L 25.984375 14.339844 L 12.542969 14.339844 L 12.542969 9.207031 Z M 25.089844 13.054688 L 13.886719 13.054688 L 13.886719 10.488281 L 25.089844 10.488281 Z M 25.535156 22.898438 L 25.089844 22.898438 L 25.089844 15.195312 L 26.433594 15.195312 C 26.679688 15.195312 26.882812 15.003906 26.882812 14.765625 L 26.882812 13.484375 C 26.882812 13.246094 26.679688 13.054688 26.433594 13.054688 L 25.984375 13.054688 L 25.984375 10.488281 L 26.433594 10.488281 C 26.679688 10.488281 26.882812 10.296875 26.882812 10.058594 L 26.882812 8.777344 C 26.882812 8.539062 26.679688 8.347656 26.433594 8.347656 L 12.542969 8.347656 L 12.542969 4.925781 C 12.542969 4.691406 12.34375 4.5 12.097656 4.5 C 12.042969 4.496094 11.988281 4.507812 11.9375 4.527344 L 1.1875 8.375 C 1.011719 8.4375 0.898438 8.601562 0.898438 8.777344 L 0.898438 14.769531 C 0.898438 15.003906 1.097656 15.195312 1.34375 15.195312 L 2.6875 15.195312 L 2.6875 22.898438 L 0.449219 22.898438 C 0.199219 22.898438 0 23.089844 0 23.328125 C 0 23.5625 0.199219 23.753906 0.449219 23.753906 L 25.535156 23.753906 C 25.78125 23.753906 25.984375 23.5625 25.984375 23.328125 C 25.984375 23.089844 25.785156 22.898438 25.535156 22.898438 Z M 25.535156 22.898438 "/>
<path style=" stroke:none;fill-rule:nonzero;fill:rgb(92.941176%,41.176471%,36.078431%);fill-opacity:1;" d="M 27.328125 22.898438 L 26.882812 22.898438 C 26.632812 22.898438 26.433594 23.089844 26.433594 23.328125 C 26.433594 23.5625 26.632812 23.753906 26.882812 23.753906 L 27.328125 23.753906 C 27.574219 23.753906 27.777344 23.5625 27.777344 23.328125 C 27.777344 23.089844 27.574219 22.898438 27.328125 22.898438 Z M 27.328125 22.898438 "/>
<path style=" stroke:none;fill-rule:nonzero;fill:rgb(92.941176%,41.176471%,36.078431%);fill-opacity:1;" d="M 22.847656 20.332031 L 21.054688 20.332031 L 21.054688 16.910156 L 22.847656 16.910156 Z M 18.371094 20.332031 L 18.371094 16.910156 L 20.160156 16.910156 L 20.160156 20.332031 Z M 15.683594 20.332031 L 15.683594 16.910156 L 17.472656 16.910156 L 17.472656 20.332031 Z M 23.296875 16.050781 L 15.234375 16.050781 C 14.988281 16.050781 14.785156 16.242188 14.785156 16.480469 L 14.785156 20.757812 C 14.785156 20.992188 14.988281 21.1875 15.234375 21.1875 L 23.296875 21.1875 C 23.546875 21.1875 23.746094 20.992188 23.746094 20.757812 L 23.746094 16.480469 C 23.746094 16.242188 23.546875 16.050781 23.296875 16.050781 Z M 23.296875 16.050781 "/>
<path style=" stroke:none;fill-rule:nonzero;fill:rgb(92.941176%,41.176471%,36.078431%);fill-opacity:1;" d="M 3.585938 10.488281 L 5.375 10.488281 L 5.375 13.054688 L 3.585938 13.054688 Z M 7.617188 10.488281 L 7.617188 13.054688 L 6.273438 13.054688 L 6.273438 10.488281 Z M 10.304688 10.488281 L 10.304688 13.054688 L 8.511719 13.054688 L 8.511719 10.488281 Z M 10.753906 13.914062 C 11 13.914062 11.199219 13.71875 11.199219 13.484375 L 11.199219 10.058594 C 11.199219 9.824219 11 9.632812 10.753906 9.632812 L 3.136719 9.632812 C 2.890625 9.632812 2.691406 9.824219 2.691406 10.058594 L 2.691406 13.484375 C 2.691406 13.71875 2.890625 13.914062 3.136719 13.914062 Z M 10.753906 13.914062 "/>
</g>
</svg>
