<?xml version="1.0" encoding="UTF-8"?>
<svg xmlns="http://www.w3.org/2000/svg" xmlns:xlink="http://www.w3.org/1999/xlink" width="28px" height="28px" viewBox="0 0 28 19" version="1.1">
<g id="surface1">
<path style=" stroke:none;fill-rule:nonzero;fill:rgb(92.941176%,41.176471%,36.078431%);fill-opacity:1;" d="M 13.890625 18.398438 L 13.890625 11.980469 C 13.890625 11.742188 13.6875 11.550781 13.441406 11.550781 L 4.480469 11.550781 C 4.234375 11.550781 4.03125 11.742188 4.03125 11.980469 L 4.03125 18.398438 L 3.585938 18.398438 L 3.585938 10.695312 L 24.191406 10.695312 L 24.191406 18.398438 Z M 11.648438 18.398438 L 11.648438 12.410156 L 12.992188 12.410156 L 12.992188 18.398438 Z M 9.410156 18.398438 L 9.410156 12.410156 L 10.753906 12.410156 L 10.753906 18.398438 Z M 7.167969 18.398438 L 7.167969 12.410156 L 8.511719 12.410156 L 8.511719 18.398438 Z M 4.929688 18.398438 L 4.929688 12.410156 L 6.273438 12.410156 L 6.273438 18.398438 Z M 1.792969 4.574219 L 11.648438 1.046875 L 11.648438 9.839844 L 1.792969 9.839844 Z M 25.984375 4.707031 L 25.984375 5.132812 L 13.441406 5.132812 C 13.191406 5.132812 12.992188 5.324219 12.992188 5.5625 L 12.992188 8.984375 C 12.992188 9.222656 13.191406 9.414062 13.441406 9.414062 L 25.984375 9.414062 L 25.984375 9.839844 L 12.542969 9.839844 L 12.542969 4.707031 Z M 25.089844 8.554688 L 13.886719 8.554688 L 13.886719 5.988281 L 25.089844 5.988281 Z M 25.535156 18.398438 L 25.089844 18.398438 L 25.089844 10.695312 L 26.433594 10.695312 C 26.679688 10.695312 26.882812 10.503906 26.882812 10.265625 L 26.882812 8.984375 C 26.882812 8.746094 26.679688 8.554688 26.433594 8.554688 L 25.984375 8.554688 L 25.984375 5.988281 L 26.433594 5.988281 C 26.679688 5.988281 26.882812 5.796875 26.882812 5.558594 L 26.882812 4.277344 C 26.882812 4.039062 26.679688 3.847656 26.433594 3.847656 L 12.542969 3.847656 L 12.542969 0.425781 C 12.542969 0.191406 12.34375 0 12.097656 0 C 12.042969 -0.00390625 11.988281 0.0078125 11.9375 0.0273438 L 1.1875 3.875 C 1.011719 3.9375 0.898438 4.101562 0.898438 4.277344 L 0.898438 10.269531 C 0.898438 10.503906 1.097656 10.695312 1.34375 10.695312 L 2.6875 10.695312 L 2.6875 18.398438 L 0.449219 18.398438 C 0.199219 18.398438 0 18.589844 0 18.828125 C 0 19.0625 0.199219 19.253906 0.449219 19.253906 L 25.535156 19.253906 C 25.78125 19.253906 25.984375 19.0625 25.984375 18.828125 C 25.984375 18.589844 25.785156 18.398438 25.535156 18.398438 Z M 25.535156 18.398438 "/>
<path style=" stroke:none;fill-rule:nonzero;fill:rgb(92.941176%,41.176471%,36.078431%);fill-opacity:1;" d="M 27.328125 18.398438 L 26.882812 18.398438 C 26.632812 18.398438 26.433594 18.589844 26.433594 18.828125 C 26.433594 19.0625 26.632812 19.253906 26.882812 19.253906 L 27.328125 19.253906 C 27.574219 19.253906 27.777344 19.0625 27.777344 18.828125 C 27.777344 18.589844 27.574219 18.398438 27.328125 18.398438 Z M 27.328125 18.398438 "/>
<path style=" stroke:none;fill-rule:nonzero;fill:rgb(92.941176%,41.176471%,36.078431%);fill-opacity:1;" d="M 22.847656 15.832031 L 21.054688 15.832031 L 21.054688 12.410156 L 22.847656 12.410156 Z M 18.371094 15.832031 L 18.371094 12.410156 L 20.160156 12.410156 L 20.160156 15.832031 Z M 15.683594 15.832031 L 15.683594 12.410156 L 17.472656 12.410156 L 17.472656 15.832031 Z M 23.296875 11.550781 L 15.234375 11.550781 C 14.988281 11.550781 14.785156 11.742188 14.785156 11.980469 L 14.785156 16.257812 C 14.785156 16.492188 14.988281 16.6875 15.234375 16.6875 L 23.296875 16.6875 C 23.546875 16.6875 23.746094 16.492188 23.746094 16.257812 L 23.746094 11.980469 C 23.746094 11.742188 23.546875 11.550781 23.296875 11.550781 Z M 23.296875 11.550781 "/>
<path style=" stroke:none;fill-rule:nonzero;fill:rgb(92.941176%,41.176471%,36.078431%);fill-opacity:1;" d="M 3.585938 5.988281 L 5.375 5.988281 L 5.375 8.554688 L 3.585938 8.554688 Z M 7.617188 5.988281 L 7.617188 8.554688 L 6.273438 8.554688 L 6.273438 5.988281 Z M 10.304688 5.988281 L 10.304688 8.554688 L 8.511719 8.554688 L 8.511719 5.988281 Z M 10.753906 9.414062 C 11 9.414062 11.199219 9.21875 11.199219 8.984375 L 11.199219 5.558594 C 11.199219 5.324219 11 5.132812 10.753906 5.132812 L 3.136719 5.132812 C 2.890625 5.132812 2.691406 5.324219 2.691406 5.558594 L 2.691406 8.984375 C 2.691406 9.21875 2.890625 9.414062 3.136719 9.414062 Z M 10.753906 9.414062 "/>
</g>
</svg>
