<?xml version="1.0" encoding="UTF-8"?>
<svg xmlns="http://www.w3.org/2000/svg" xmlns:xlink="http://www.w3.org/1999/xlink" width="28px" height="28px" viewBox="0 0 28 28" version="1.1">
<g id="surface1">
<path style=" stroke:none;fill-rule:nonzero;fill:rgb(92.941176%,41.176471%,36.078431%);fill-opacity:1;" d="M 27.703125 14.710938 C 28.097656 14.324219 28.101562 13.6875 27.710938 13.296875 C 27.707031 13.292969 27.707031 13.292969 27.703125 13.289062 L 14.710938 0.292969 C 14.320312 -0.0976562 13.6875 -0.101562 13.296875 0.289062 C 13.292969 0.289062 13.292969 0.292969 13.292969 0.292969 L 0.296875 13.289062 C -0.09375 13.679688 -0.09375 14.316406 0.296875 14.707031 C 0.6875 15.097656 1.328125 15.097656 1.714844 14.707031 L 14 2.410156 L 26.285156 14.707031 C 26.675781 15.097656 27.308594 15.101562 27.703125 14.710938 C 27.703125 14.710938 27.703125 14.707031 27.703125 14.707031 Z M 19.820312 27.996094 L 8.183594 27.996094 C 5.445312 28.097656 3.136719 25.972656 3.007812 23.238281 L 3.007812 17 C 3.007812 16.449219 3.453125 16 4.003906 16 C 4.558594 16 5.007812 16.449219 5.007812 17 L 5.007812 23.238281 C 5.136719 24.871094 6.550781 26.101562 8.1875 25.996094 L 19.820312 25.996094 C 21.457031 26.101562 22.875 24.871094 23 23.238281 L 23 17 C 23 16.449219 23.449219 16 24.003906 16 C 24.554688 16 25 16.449219 25 17 L 25 23.238281 C 24.871094 25.972656 22.558594 28.097656 19.824219 27.996094 Z M 19.820312 27.996094 "/>
</g>
</svg>
