<?xml version="1.0" encoding="UTF-8"?>
<svg xmlns="http://www.w3.org/2000/svg" xmlns:xlink="http://www.w3.org/1999/xlink" width="28px" height="28px" viewBox="0 0 28 28" version="1.1">
<g id="surface1">
<path style=" stroke:none;fill-rule:nonzero;fill:rgb(92.941176%,41.176471%,36.078431%);fill-opacity:1;" d="M 10.539062 26.246094 L 10.539062 16.589844 C 10.539062 16.101562 10.933594 15.707031 11.414062 15.707031 L 16.683594 15.707031 C 17.167969 15.707031 17.5625 16.101562 17.5625 16.589844 L 17.5625 26.246094 Z M 27.777344 10.644531 L 23.265625 6.890625 L 23.265625 3.863281 C 23.265625 3.375 22.871094 2.984375 22.390625 2.984375 C 21.90625 2.984375 21.511719 3.378906 21.511719 3.863281 L 21.511719 5.421875 L 15.734375 0.613281 C 14.757812 -0.199219 13.339844 -0.199219 12.363281 0.613281 L 0.320312 10.644531 C -0.0507812 10.957031 -0.101562 11.507812 0.207031 11.878906 C 0.519531 12.257812 1.070312 12.304688 1.441406 11.996094 L 13.484375 1.957031 C 13.808594 1.683594 14.285156 1.683594 14.609375 1.957031 L 24.582031 10.269531 L 24.582031 25.371094 C 24.582031 25.855469 24.191406 26.246094 23.707031 26.246094 L 19.320312 26.246094 L 19.320312 16.589844 C 19.320312 15.136719 18.136719 13.953125 16.683594 13.953125 L 11.414062 13.953125 C 9.960938 13.953125 8.78125 15.132812 8.78125 16.589844 L 8.78125 26.246094 L 4.390625 26.246094 C 3.910156 26.246094 3.515625 25.851562 3.515625 25.371094 L 3.515625 14.835938 C 3.515625 14.351562 3.121094 13.960938 2.640625 13.960938 C 2.15625 13.960938 1.761719 14.351562 1.761719 14.835938 L 1.761719 25.371094 C 1.761719 26.824219 2.941406 28.003906 4.398438 28.003906 L 23.710938 28.003906 C 25.164062 28.003906 26.34375 26.824219 26.34375 25.371094 L 26.34375 11.734375 L 26.660156 12 C 26.820312 12.132812 27.019531 12.203125 27.222656 12.203125 C 27.707031 12.203125 28.101562 11.808594 28.101562 11.324219 C 28.101562 11.0625 27.988281 10.816406 27.785156 10.648438 Z M 27.777344 10.644531 "/>
<path style=" stroke:none;fill-rule:nonzero;fill:rgb(92.941176%,41.176471%,36.078431%);fill-opacity:1;" d="M 13.167969 20.101562 C 13.652344 20.101562 14.046875 20.496094 14.046875 20.976562 C 14.046875 21.460938 13.652344 21.855469 13.167969 21.855469 C 12.683594 21.855469 12.292969 21.460938 12.292969 20.976562 C 12.292969 20.488281 12.683594 20.101562 13.167969 20.101562 Z M 13.167969 20.101562 "/>
</g>
</svg>
