<?xml version="1.0" encoding="UTF-8"?>
<svg xmlns="http://www.w3.org/2000/svg" xmlns:xlink="http://www.w3.org/1999/xlink" width="28px" height="28px" viewBox="0 0 28 28" version="1.1">
<g id="surface1">
<path style=" stroke:none;fill-rule:nonzero;fill:rgb(92.941176%,41.176471%,36.078431%);fill-opacity:1;" d="M 13.992188 3.890625 C 14.144531 3.890625 14.289062 3.933594 14.417969 4.019531 L 26.445312 11.796875 L 26.445312 9.761719 L 13.992188 1.710938 L 1.550781 9.761719 L 1.550781 11.796875 L 13.578125 4.019531 C 13.703125 3.933594 13.851562 3.894531 14 3.890625 Z M 27.21875 14 C 27.074219 14 26.921875 13.957031 26.796875 13.875 L 13.992188 5.59375 L 1.195312 13.875 C 0.953125 14.027344 0.648438 14.042969 0.398438 13.90625 C 0.144531 13.769531 -0.00390625 13.507812 -0.00390625 13.222656 L -0.00390625 9.332031 C -0.00390625 9.070312 0.125 8.820312 0.347656 8.675781 L 13.574219 0.117188 C 13.832031 -0.0507812 14.15625 -0.0507812 14.417969 0.117188 L 27.644531 8.675781 C 27.867188 8.816406 27.996094 9.0625 27.996094 9.332031 L 27.996094 13.222656 C 27.996094 13.652344 27.648438 14 27.21875 14 Z M 27.21875 14 "/>
<path style=" stroke:none;fill-rule:nonzero;fill:rgb(92.941176%,41.176471%,36.078431%);fill-opacity:1;" d="M 25.667969 28 L 11.660156 28 L 11.660156 26.441406 L 24.882812 26.441406 L 24.882812 11.664062 L 26.441406 11.664062 L 26.441406 27.21875 C 26.441406 27.652344 26.09375 28 25.660156 28 Z M 25.667969 28 "/>
<path style=" stroke:none;fill-rule:nonzero;fill:rgb(92.941176%,41.176471%,36.078431%);fill-opacity:1;" d="M 9.332031 28 L 2.332031 28 C 1.898438 28 1.550781 27.652344 1.550781 27.21875 L 1.550781 11.664062 L 3.109375 11.664062 L 3.109375 26.441406 L 8.550781 26.441406 L 8.550781 19.441406 C 8.550781 16.433594 10.988281 13.996094 13.992188 13.996094 C 17.003906 13.996094 19.441406 16.433594 19.441406 19.441406 L 19.441406 24.886719 L 17.882812 24.886719 L 17.882812 19.441406 C 17.882812 17.296875 16.144531 15.550781 13.992188 15.550781 C 11.847656 15.550781 10.109375 17.296875 10.109375 19.441406 L 10.109375 27.21875 C 10.109375 27.652344 9.757812 28 9.332031 28 Z M 9.332031 28 "/>
</g>
</svg>
