<?xml version="1.0" encoding="UTF-8"?>
<svg xmlns="http://www.w3.org/2000/svg" xmlns:xlink="http://www.w3.org/1999/xlink" width="28px" height="28px" viewBox="0 0 28 28" version="1.1">
<g id="surface1">
<path style="fill-rule:evenodd;fill:rgb(92.941176%,41.176471%,36.078431%);fill-opacity:1;stroke-width:0.09;stroke-linecap:butt;stroke-linejoin:miter;stroke:rgb(92.941176%,41.176471%,36.078431%);stroke-opacity:1;stroke-miterlimit:22.9256;" d="M 33.717372 27.868137 L 29.089915 27.868137 L 29.089915 31.198773 L 43.482513 31.198773 L 43.482513 27.868137 Z M 13.138295 50.551893 L 0.729905 50.551893 C 0.347236 50.551893 0.0496052 50.240089 0.0496052 49.871593 L 0.0496052 31.893246 C 0.0496052 31.510577 0.361409 31.212946 0.729905 31.212946 L 11.210778 31.212946 L 11.210778 30.079113 L 9.439164 30.079113 C 8.539183 30.079113 8.539183 28.732685 9.439164 28.732685 L 11.210778 28.732685 L 11.210778 26.918552 C 11.210778 25.189456 12.620984 23.793423 14.342993 23.793423 C 17.241355 23.793423 18.318497 27.598852 16.801995 27.598852 C 16.419326 27.598852 16.121694 27.287048 16.121694 26.918552 C 16.121694 24.587107 12.557206 24.587107 12.557206 26.918552 L 12.557206 31.220032 L 27.729315 31.220032 L 27.729315 27.20201 C 27.729315 26.819341 28.041119 26.528797 28.409615 26.528797 L 30.641849 26.528797 C 30.641849 24.062709 30.322959 24.409945 33.717372 24.409945 C 34.617353 24.409945 34.397673 25.579211 34.397673 26.528797 L 38.167669 26.528797 C 38.167669 24.062709 37.841692 24.409945 41.243192 24.409945 C 42.128999 24.409945 41.923492 25.579211 41.923492 26.528797 L 44.14864 26.528797 C 44.531309 26.528797 44.82894 26.819341 44.82894 27.20201 L 44.82894 31.220032 L 50.349292 31.220032 C 50.731961 31.220032 51.029592 31.531837 51.029592 31.900333 L 51.029592 49.878679 C 51.029592 50.261348 50.717788 50.558979 50.349292 50.558979 L 13.131209 50.558979 Z M 13.811509 32.559373 L 13.811509 49.198379 L 24.873472 49.198379 L 24.873472 32.559373 Z M 1.403119 49.198379 L 12.457995 49.198379 L 12.457995 32.559373 L 1.403119 32.559373 Z M 26.219899 49.198379 L 37.281861 49.198379 L 37.281861 32.559373 L 26.219899 32.559373 Z M 38.628289 49.198379 L 49.690251 49.198379 L 49.690251 32.559373 L 38.628289 32.559373 Z M 17.248441 18.939199 L 0.729905 18.939199 C 0.347236 18.939199 0.0496052 18.627395 0.0496052 18.258899 L 0.0496052 0.741172 C 0.0496052 0.358503 0.361409 0.0608717 0.729905 0.0608717 L 17.269701 0.0608717 C 17.65237 0.0608717 17.950001 0.372676 17.950001 0.741172 L 17.950001 15.488093 L 21.181426 9.32996 L 21.181426 0.726999 C 21.181426 0.351417 21.471971 0.0466988 21.847553 0.0466988 L 29.231644 0.0466988 C 29.607226 0.0466988 29.897771 0.358503 29.897771 0.726999 L 29.897771 9.32996 L 33.129196 15.502266 L 33.129196 0.726999 C 33.129196 0.351417 33.441001 0.0466988 33.809496 0.0466988 L 50.349292 0.0466988 C 50.731961 0.0466988 51.029592 0.358503 51.029592 0.726999 L 51.029592 18.251812 C 51.029592 18.627395 50.717788 18.932112 50.349292 18.932112 L 17.241355 18.932112 Z M 1.403119 17.592772 L 16.589401 17.592772 L 16.589401 1.407299 L 1.403119 1.407299 Z M 34.496883 17.592772 L 49.690251 17.592772 L 49.690251 1.407299 L 34.496883 1.407299 Z M 18.389361 17.592772 L 32.696922 17.592772 L 28.827716 10.180335 L 22.272741 10.180335 L 18.403534 17.592772 Z M 22.542026 8.819735 L 28.55843 8.819735 L 28.55843 1.407299 L 22.542026 1.407299 Z M 32.009536 26.528797 L 33.051245 26.528797 L 33.051245 25.763459 L 32.009536 25.763459 Z M 39.528269 26.528797 L 40.569978 26.528797 L 40.569978 25.763459 L 39.528269 25.763459 Z M 39.528269 26.528797 " transform="matrix(0.551227,0,0,0.551227,0,0.00160211)"/>
</g>
</svg>
