<?xml version="1.0" encoding="UTF-8"?>
<svg xmlns="http://www.w3.org/2000/svg" xmlns:xlink="http://www.w3.org/1999/xlink" width="28px" height="28px" viewBox="0 0 28 28" version="1.1">
<g id="surface1">
<path style=" stroke:none;fill-rule:nonzero;fill:rgb(92.941176%,41.176471%,36.078431%);fill-opacity:1;" d="M 27.992188 21.097656 L 18.542969 13.414062 L 18.542969 2.441406 C 18.542969 2.199219 18.335938 2 18.085938 2 L 9.988281 2 C 9.738281 2 9.535156 2.199219 9.535156 2.441406 L 9.535156 13.414062 L 0.160156 21.097656 C 0.0546875 21.179688 0 21.304688 0 21.429688 L 0 25.8125 C 0 26.054688 0.207031 26.25 0.457031 26.25 L 27.695312 26.25 C 27.945312 26.25 28.152344 26.054688 28.152344 25.8125 L 28.152344 21.429688 C 28.160156 21.304688 28.097656 21.179688 27.996094 21.097656 Z M 10.449219 2.878906 L 17.636719 2.878906 L 17.636719 13.179688 L 10.449219 13.179688 Z M 10.164062 14.050781 L 17.921875 14.050781 L 26.996094 21.429688 L 1.171875 21.429688 L 10.167969 14.050781 Z M 27.242188 25.375 L 0.917969 25.375 L 0.917969 22.308594 L 27.242188 22.308594 Z M 27.242188 25.375 "/>
<path style=" stroke:none;fill-rule:nonzero;fill:rgb(92.941176%,41.176471%,36.078431%);fill-opacity:1;" d="M 12.566406 23.402344 L 15.59375 23.402344 L 15.59375 24.28125 L 12.566406 24.28125 Z M 12.566406 23.402344 "/>
<path style=" stroke:none;fill-rule:nonzero;fill:rgb(92.941176%,41.176471%,36.078431%);fill-opacity:1;" d="M 19.074219 23.402344 L 20.132812 23.402344 L 20.132812 24.28125 L 19.074219 24.28125 Z M 19.074219 23.402344 "/>
<path style=" stroke:none;fill-rule:nonzero;fill:rgb(92.941176%,41.176471%,36.078431%);fill-opacity:1;" d="M 8.027344 23.402344 L 9.015625 23.402344 L 9.015625 24.28125 L 8.027344 24.28125 Z M 8.027344 23.402344 "/>
<path style=" stroke:none;fill-rule:nonzero;fill:rgb(92.941176%,41.176471%,36.078431%);fill-opacity:1;" d="M 17.148438 23.402344 L 18.132812 23.402344 L 18.132812 24.28125 L 17.148438 24.28125 Z M 17.148438 23.402344 "/>
<path style=" stroke:none;fill-rule:nonzero;fill:rgb(92.941176%,41.176471%,36.078431%);fill-opacity:1;" d="M 10.03125 23.402344 L 11.089844 23.402344 L 11.089844 24.28125 L 10.03125 24.28125 Z M 10.03125 23.402344 "/>
</g>
</svg>
