<?xml version="1.0" encoding="UTF-8"?>
<svg xmlns="http://www.w3.org/2000/svg" xmlns:xlink="http://www.w3.org/1999/xlink" width="28px" height="28px" viewBox="0 0 28 24" version="1.1">
<g id="surface1">
<path style=" stroke:none;fill-rule:nonzero;fill:rgb(92.941176%,41.176471%,36.078431%);fill-opacity:1;" d="M 27.992188 19.097656 L 18.542969 11.414062 L 18.542969 0.441406 C 18.542969 0.199219 18.335938 0 18.085938 0 L 9.988281 0 C 9.738281 0 9.535156 0.199219 9.535156 0.441406 L 9.535156 11.414062 L 0.160156 19.097656 C 0.0546875 19.179688 0 19.304688 0 19.429688 L 0 23.8125 C 0 24.054688 0.207031 24.25 0.457031 24.25 L 27.695312 24.25 C 27.945312 24.25 28.152344 24.054688 28.152344 23.8125 L 28.152344 19.429688 C 28.160156 19.304688 28.097656 19.179688 27.996094 19.097656 Z M 10.449219 0.878906 L 17.636719 0.878906 L 17.636719 11.179688 L 10.449219 11.179688 Z M 10.164062 12.050781 L 17.921875 12.050781 L 26.996094 19.429688 L 1.171875 19.429688 L 10.167969 12.050781 Z M 27.242188 23.375 L 0.917969 23.375 L 0.917969 20.308594 L 27.242188 20.308594 Z M 27.242188 23.375 "/>
<path style=" stroke:none;fill-rule:nonzero;fill:rgb(92.941176%,41.176471%,36.078431%);fill-opacity:1;" d="M 12.566406 21.402344 L 15.59375 21.402344 L 15.59375 22.28125 L 12.566406 22.28125 Z M 12.566406 21.402344 "/>
<path style=" stroke:none;fill-rule:nonzero;fill:rgb(92.941176%,41.176471%,36.078431%);fill-opacity:1;" d="M 19.074219 21.402344 L 20.132812 21.402344 L 20.132812 22.28125 L 19.074219 22.28125 Z M 19.074219 21.402344 "/>
<path style=" stroke:none;fill-rule:nonzero;fill:rgb(92.941176%,41.176471%,36.078431%);fill-opacity:1;" d="M 8.027344 21.402344 L 9.015625 21.402344 L 9.015625 22.28125 L 8.027344 22.28125 Z M 8.027344 21.402344 "/>
<path style=" stroke:none;fill-rule:nonzero;fill:rgb(92.941176%,41.176471%,36.078431%);fill-opacity:1;" d="M 17.148438 21.402344 L 18.132812 21.402344 L 18.132812 22.28125 L 17.148438 22.28125 Z M 17.148438 21.402344 "/>
<path style=" stroke:none;fill-rule:nonzero;fill:rgb(92.941176%,41.176471%,36.078431%);fill-opacity:1;" d="M 10.03125 21.402344 L 11.089844 21.402344 L 11.089844 22.28125 L 10.03125 22.28125 Z M 10.03125 21.402344 "/>
</g>
</svg>
