<?xml version="1.0" encoding="UTF-8"?>
<svg xmlns="http://www.w3.org/2000/svg" xmlns:xlink="http://www.w3.org/1999/xlink" width="28px" height="28px" viewBox="0 0 28 29" version="1.1">
<g id="surface1">
<path style=" stroke:none;fill-rule:nonzero;fill:rgb(92.941176%,41.176471%,36.078431%);fill-opacity:1;" d="M 26.90625 11.648438 L 1 11.648438 C 0.449219 11.648438 0.00390625 12.085938 0.00390625 12.628906 L 0.00390625 13.402344 C 0.00390625 13.9375 0.449219 14.378906 1 14.378906 L 1.480469 14.378906 L 1.480469 26.242188 C 1.480469 26.476562 1.675781 26.671875 1.917969 26.671875 L 3.574219 26.671875 L 3.234375 28.5 C 3.128906 29.050781 3.984375 29.207031 4.089844 28.652344 L 4.464844 26.671875 L 10.878906 26.671875 L 11.25 28.652344 C 11.355469 29.214844 12.210938 29.050781 12.109375 28.5 L 11.765625 26.671875 L 16.148438 26.671875 L 15.808594 28.5 C 15.703125 29.050781 16.558594 29.207031 16.664062 28.652344 L 17.039062 26.671875 L 23.453125 26.671875 L 23.824219 28.652344 C 23.929688 29.214844 24.785156 29.050781 24.683594 28.5 L 24.339844 26.671875 L 26 26.671875 C 26.242188 26.671875 26.4375 26.480469 26.4375 26.242188 L 26.4375 14.378906 L 26.914062 14.378906 C 27.464844 14.378906 27.917969 13.941406 27.917969 13.402344 L 27.917969 12.628906 C 27.917969 12.089844 27.46875 11.648438 26.914062 11.648438 Z M 4.621094 25.8125 L 4.886719 24.390625 L 10.449219 24.390625 L 10.714844 25.8125 Z M 10.269531 17.789062 L 10.28125 18.824219 L 9.925781 18.824219 C 9.921875 18.824219 9.921875 18.824219 9.921875 18.824219 L 5.410156 18.824219 C 5.386719 18.824219 5.371094 18.828125 5.347656 18.832031 L 5.0625 18.832031 L 5.050781 17.789062 Z M 5.773438 19.675781 L 9.558594 19.675781 L 10.285156 23.539062 L 5.046875 23.539062 Z M 17.1875 25.8125 L 17.457031 24.390625 L 23.015625 24.390625 L 23.28125 25.8125 Z M 22.839844 17.789062 L 22.847656 18.824219 L 22.492188 18.824219 C 22.492188 18.824219 22.488281 18.824219 22.488281 18.824219 L 17.976562 18.824219 C 17.953125 18.824219 17.9375 18.828125 17.914062 18.832031 L 17.628906 18.832031 L 17.613281 17.789062 Z M 18.339844 19.675781 L 22.125 19.675781 L 22.851562 23.539062 L 17.613281 23.539062 Z M 25.550781 25.8125 L 24.167969 25.8125 L 23.011719 19.660156 C 23.410156 19.585938 23.710938 19.246094 23.710938 18.832031 L 23.710938 17.773438 C 23.710938 17.308594 23.324219 16.933594 22.847656 16.933594 L 17.613281 16.933594 C 17.140625 16.933594 16.753906 17.308594 16.753906 17.773438 L 16.753906 18.832031 C 16.753906 19.246094 17.054688 19.585938 17.453125 19.660156 L 16.296875 25.8125 L 11.59375 25.8125 L 10.4375 19.660156 C 10.835938 19.585938 11.136719 19.246094 11.136719 18.832031 L 11.136719 17.773438 C 11.136719 17.308594 10.75 16.933594 10.273438 16.933594 L 5.039062 16.933594 C 4.566406 16.933594 4.179688 17.308594 4.179688 17.773438 L 4.179688 18.832031 C 4.179688 19.246094 4.480469 19.585938 4.878906 19.660156 L 3.722656 25.8125 L 2.335938 25.8125 L 2.335938 14.378906 L 25.542969 14.378906 L 25.542969 25.8125 Z M 27.03125 13.402344 C 27.03125 13.472656 26.972656 13.527344 26.902344 13.527344 C 13.351562 13.527344 24.328125 13.527344 0.996094 13.527344 C 0.925781 13.527344 0.871094 13.472656 0.871094 13.402344 L 0.871094 12.628906 C 0.871094 12.558594 0.929688 12.503906 0.996094 12.503906 L 26.902344 12.503906 C 26.972656 12.503906 27.03125 12.558594 27.03125 12.628906 Z M 27.03125 13.402344 "/>
<path style=" stroke:none;fill-rule:nonzero;fill:rgb(92.941176%,41.176471%,36.078431%);fill-opacity:1;" d="M 8.53125 0 C 8.289062 0 8.09375 0.191406 8.09375 0.429688 L 8.09375 3.011719 C 6.335938 3.222656 4.96875 4.691406 4.96875 6.46875 C 4.96875 6.707031 5.167969 6.898438 5.40625 6.898438 L 6.636719 6.898438 C 6.792969 7.785156 7.582031 8.457031 8.53125 8.457031 C 9.476562 8.457031 10.261719 7.78125 10.421875 6.898438 L 11.648438 6.898438 C 11.890625 6.898438 12.085938 6.710938 12.085938 6.46875 C 12.085938 4.695312 10.722656 3.230469 8.960938 3.015625 L 8.960938 0.433594 C 8.960938 0.195312 8.765625 0.00390625 8.523438 0.00390625 Z M 8.535156 7.601562 C 8.074219 7.601562 7.679688 7.3125 7.535156 6.894531 L 9.53125 6.894531 C 9.390625 7.304688 8.996094 7.601562 8.535156 7.601562 Z M 11.183594 6.042969 C 9.355469 6.042969 7.929688 6.042969 5.882812 6.042969 C 6.089844 4.792969 7.199219 3.835938 8.539062 3.835938 C 9.871094 3.835938 10.976562 4.792969 11.1875 6.042969 Z M 11.183594 6.042969 "/>
<path style=" stroke:none;fill-rule:nonzero;fill:rgb(92.941176%,41.176471%,36.078431%);fill-opacity:1;" d="M 19.371094 0 C 19.132812 0 18.933594 0.191406 18.933594 0.429688 L 18.933594 3.011719 C 17.175781 3.222656 15.808594 4.691406 15.808594 6.46875 C 15.808594 6.707031 16.007812 6.898438 16.246094 6.898438 L 17.476562 6.898438 C 17.636719 7.785156 18.421875 8.457031 19.371094 8.457031 C 20.316406 8.457031 21.101562 7.78125 21.261719 6.898438 L 22.488281 6.898438 C 22.730469 6.898438 22.925781 6.710938 22.925781 6.46875 C 22.925781 4.695312 21.5625 3.230469 19.800781 3.015625 L 19.800781 0.433594 C 19.800781 0.195312 19.605469 0.00390625 19.363281 0.00390625 Z M 19.375 7.601562 C 18.914062 7.601562 18.519531 7.3125 18.378906 6.894531 L 20.375 6.894531 C 20.238281 7.304688 19.839844 7.601562 19.378906 7.601562 Z M 22.023438 6.042969 C 20.195312 6.042969 18.769531 6.042969 16.722656 6.042969 C 16.929688 4.792969 18.039062 3.835938 19.378906 3.835938 C 20.710938 3.835938 21.816406 4.792969 22.027344 6.042969 Z M 22.023438 6.042969 "/>
</g>
</svg>
