<?xml version="1.0" encoding="UTF-8"?>
<svg xmlns="http://www.w3.org/2000/svg" xmlns:xlink="http://www.w3.org/1999/xlink" width="28px" height="28px" viewBox="0 0 28 28" version="1.1">
<g id="surface1">
<path style=" stroke:none;fill-rule:nonzero;fill:rgb(92.941176%,41.176471%,36.078431%);fill-opacity:1;" d="M 26.460938 11.246094 L 1.449219 11.246094 C 0.917969 11.246094 0.488281 11.667969 0.488281 12.195312 L 0.488281 12.941406 C 0.488281 13.457031 0.917969 13.882812 1.449219 13.882812 L 1.914062 13.882812 L 1.914062 25.335938 C 1.914062 25.5625 2.101562 25.753906 2.335938 25.753906 L 3.933594 25.753906 L 3.605469 27.515625 C 3.503906 28.050781 4.328125 28.199219 4.429688 27.664062 L 4.792969 25.753906 L 10.988281 25.753906 L 11.34375 27.664062 C 11.445312 28.207031 12.273438 28.050781 12.175781 27.515625 L 11.84375 25.753906 L 16.074219 25.753906 L 15.746094 27.515625 C 15.644531 28.050781 16.46875 28.199219 16.570312 27.664062 L 16.933594 25.753906 L 23.128906 25.753906 L 23.484375 27.664062 C 23.585938 28.207031 24.414062 28.050781 24.316406 27.515625 L 23.984375 25.753906 L 25.585938 25.753906 C 25.820312 25.753906 26.007812 25.566406 26.007812 25.335938 L 26.007812 13.882812 L 26.46875 13.882812 C 27 13.882812 27.4375 13.460938 27.4375 12.941406 L 27.4375 12.195312 C 27.4375 11.671875 27.003906 11.246094 26.46875 11.246094 Z M 4.945312 24.921875 L 5.199219 23.550781 L 10.570312 23.550781 L 10.828125 24.921875 Z M 10.398438 17.175781 L 10.410156 18.175781 L 10.066406 18.175781 C 10.0625 18.175781 10.0625 18.175781 10.0625 18.175781 L 5.707031 18.175781 C 5.683594 18.175781 5.667969 18.179688 5.644531 18.183594 L 5.371094 18.183594 L 5.359375 17.175781 Z M 6.058594 18.996094 L 9.710938 18.996094 L 10.414062 22.726562 L 5.355469 22.726562 Z M 17.078125 24.921875 L 17.335938 23.550781 L 22.703125 23.550781 L 22.960938 24.921875 Z M 22.535156 17.175781 L 22.542969 18.175781 L 22.199219 18.175781 C 22.199219 18.175781 22.195312 18.175781 22.195312 18.175781 L 17.839844 18.175781 C 17.816406 18.175781 17.800781 18.179688 17.777344 18.183594 L 17.503906 18.183594 L 17.488281 17.175781 Z M 18.191406 18.996094 L 21.84375 18.996094 L 22.546875 22.726562 L 17.488281 22.726562 Z M 25.152344 24.921875 L 23.816406 24.921875 L 22.699219 18.980469 C 23.085938 18.910156 23.375 18.582031 23.375 18.183594 L 23.375 17.160156 C 23.375 16.710938 23.003906 16.351562 22.542969 16.351562 L 17.488281 16.351562 C 17.03125 16.351562 16.660156 16.710938 16.660156 17.160156 L 16.660156 18.183594 C 16.660156 18.582031 16.949219 18.910156 17.335938 18.980469 L 16.21875 24.921875 L 11.675781 24.921875 L 10.558594 18.980469 C 10.945312 18.910156 11.234375 18.582031 11.234375 18.183594 L 11.234375 17.160156 C 11.234375 16.710938 10.863281 16.351562 10.402344 16.351562 L 5.347656 16.351562 C 4.890625 16.351562 4.519531 16.710938 4.519531 17.160156 L 4.519531 18.183594 C 4.519531 18.582031 4.808594 18.910156 5.195312 18.980469 L 4.078125 24.921875 L 2.738281 24.921875 L 2.738281 13.882812 L 25.144531 13.882812 L 25.144531 24.921875 Z M 26.582031 12.941406 C 26.582031 13.007812 26.523438 13.0625 26.457031 13.0625 C 13.375 13.0625 23.972656 13.0625 1.445312 13.0625 C 1.375 13.0625 1.324219 13.007812 1.324219 12.941406 L 1.324219 12.195312 C 1.324219 12.125 1.378906 12.074219 1.445312 12.074219 L 26.457031 12.074219 C 26.523438 12.074219 26.582031 12.125 26.582031 12.195312 Z M 26.582031 12.941406 "/>
<path style=" stroke:none;fill-rule:nonzero;fill:rgb(92.941176%,41.176471%,36.078431%);fill-opacity:1;" d="M 8.71875 0 C 8.484375 0 8.296875 0.183594 8.296875 0.414062 L 8.296875 2.90625 C 6.601562 3.113281 5.28125 4.53125 5.28125 6.246094 C 5.28125 6.476562 5.472656 6.660156 5.703125 6.660156 L 6.890625 6.660156 C 7.042969 7.515625 7.804688 8.164062 8.71875 8.164062 C 9.632812 8.164062 10.390625 7.511719 10.546875 6.660156 L 11.730469 6.660156 C 11.964844 6.660156 12.152344 6.480469 12.152344 6.246094 C 12.152344 4.535156 10.835938 3.117188 9.132812 2.910156 L 9.132812 0.417969 C 9.132812 0.1875 8.945312 0.00390625 8.710938 0.00390625 Z M 8.722656 7.339844 C 8.277344 7.339844 7.898438 7.058594 7.757812 6.65625 L 9.683594 6.65625 C 9.550781 7.054688 9.167969 7.339844 8.722656 7.339844 Z M 11.28125 5.835938 C 9.515625 5.835938 8.140625 5.835938 6.164062 5.835938 C 6.363281 4.628906 7.433594 3.703125 8.726562 3.703125 C 10.011719 3.703125 11.082031 4.628906 11.285156 5.835938 Z M 11.28125 5.835938 "/>
<path style=" stroke:none;fill-rule:nonzero;fill:rgb(92.941176%,41.176471%,36.078431%);fill-opacity:1;" d="M 19.1875 0 C 18.957031 0 18.761719 0.183594 18.761719 0.414062 L 18.761719 2.90625 C 17.066406 3.113281 15.746094 4.53125 15.746094 6.246094 C 15.746094 6.476562 15.9375 6.660156 16.167969 6.660156 L 17.355469 6.660156 C 17.511719 7.515625 18.269531 8.164062 19.1875 8.164062 C 20.097656 8.164062 20.855469 7.511719 21.011719 6.660156 L 22.195312 6.660156 C 22.429688 6.660156 22.617188 6.480469 22.617188 6.246094 C 22.617188 4.535156 21.300781 3.117188 19.601562 2.910156 L 19.601562 0.417969 C 19.601562 0.1875 19.414062 0.00390625 19.179688 0.00390625 Z M 19.191406 7.339844 C 18.746094 7.339844 18.363281 7.058594 18.226562 6.65625 L 20.15625 6.65625 C 20.023438 7.054688 19.636719 7.339844 19.195312 7.339844 Z M 21.746094 5.835938 C 19.980469 5.835938 18.605469 5.835938 16.628906 5.835938 C 16.828125 4.628906 17.898438 3.703125 19.195312 3.703125 C 20.480469 3.703125 21.546875 4.628906 21.75 5.835938 Z M 21.746094 5.835938 "/>
</g>
</svg>
