<?xml version="1.0" encoding="UTF-8"?>
<svg xmlns="http://www.w3.org/2000/svg" xmlns:xlink="http://www.w3.org/1999/xlink" width="28px" height="28px" viewBox="0 0 28 28" version="1.1">
<g id="surface1">
<path style="fill-rule:nonzero;fill:rgb(92.941176%,41.176471%,36.078431%);fill-opacity:1;stroke-width:4.67;stroke-linecap:butt;stroke-linejoin:miter;stroke:rgb(92.941176%,41.176471%,36.078431%);stroke-opacity:1;stroke-miterlimit:22.9256;" d="M 194.868209 46.095405 C 206.904991 46.095405 216.707674 36.292722 216.707674 24.210346 C 216.707674 12.12797 206.904991 2.325287 194.868209 2.325287 L 134.775486 2.325287 C 122.69311 2.325287 112.890427 12.12797 112.890427 24.210346 C 112.890427 36.292722 122.69311 46.095405 134.775486 46.095405 Z M 121.006136 24.210346 C 121.006136 16.641763 127.161309 10.440997 134.775486 10.440997 L 194.868209 10.440997 C 202.436792 10.440997 208.591964 16.641763 208.591964 24.210346 C 208.591964 31.778929 202.436792 37.934101 194.868209 37.934101 L 134.775486 37.934101 C 127.161309 37.934101 121.006136 31.778929 121.006136 24.210346 Z M 121.006136 24.210346 " transform="matrix(0.0856749,0,0,0.0856749,0,0)"/>
<path style="fill-rule:nonzero;fill:rgb(92.941176%,41.176471%,36.078431%);fill-opacity:1;stroke-width:4.67;stroke-linecap:butt;stroke-linejoin:miter;stroke:rgb(92.941176%,41.176471%,36.078431%);stroke-opacity:1;stroke-miterlimit:22.9256;" d="M 24.210346 216.707674 C 36.292722 216.707674 46.095405 206.904991 46.095405 194.868209 L 46.095405 134.775486 C 46.095405 122.69311 36.292722 112.890427 24.210346 112.890427 C 12.12797 112.890427 2.325287 122.69311 2.325287 134.775486 L 2.325287 194.868209 C 2.325287 206.904991 12.12797 216.707674 24.210346 216.707674 Z M 10.440997 134.775486 C 10.440997 127.161309 16.641763 121.006136 24.210346 121.006136 C 31.778929 121.006136 37.934101 127.161309 37.934101 134.775486 L 37.934101 194.868209 C 37.934101 202.436792 31.778929 208.591964 24.210346 208.591964 C 16.641763 208.591964 10.440997 202.436792 10.440997 194.868209 Z M 10.440997 134.775486 " transform="matrix(0.0856749,0,0,0.0856749,0,0)"/>
<path style="fill-rule:nonzero;fill:rgb(92.941176%,41.176471%,36.078431%);fill-opacity:1;stroke-width:4.67;stroke-linecap:butt;stroke-linejoin:miter;stroke:rgb(92.941176%,41.176471%,36.078431%);stroke-opacity:1;stroke-miterlimit:22.9256;" d="M 134.775486 283.54829 C 122.69311 283.54829 112.890427 293.350972 112.890427 305.387755 C 112.890427 317.470131 122.69311 327.272813 134.775486 327.272813 L 194.868209 327.272813 C 206.904991 327.272813 216.707674 317.470131 216.707674 305.387755 C 216.707674 293.350972 206.904991 283.54829 194.868209 283.54829 Z M 208.591964 305.387755 C 208.591964 313.001931 202.436792 319.157104 194.868209 319.157104 L 134.775486 319.157104 C 127.161309 319.157104 121.006136 313.001931 121.006136 305.387755 C 121.006136 297.819172 127.161309 291.663999 134.775486 291.663999 L 194.868209 291.663999 C 202.436792 291.663999 208.591964 297.819172 208.591964 305.387755 Z M 208.591964 305.387755 " transform="matrix(0.0856749,0,0,0.0856749,0,0)"/>
<path style="fill-rule:nonzero;fill:rgb(92.941176%,41.176471%,36.078431%);fill-opacity:1;stroke-width:4.67;stroke-linecap:butt;stroke-linejoin:miter;stroke:rgb(92.941176%,41.176471%,36.078431%);stroke-opacity:1;stroke-miterlimit:22.9256;" d="M 305.387755 112.890427 C 293.350972 112.890427 283.54829 122.69311 283.54829 134.775486 L 283.54829 194.868209 C 283.54829 206.904991 293.350972 216.707674 305.387755 216.707674 C 317.470131 216.707674 327.272813 206.904991 327.272813 194.868209 L 327.272813 134.775486 C 327.272813 122.69311 317.470131 112.890427 305.387755 112.890427 Z M 319.157104 194.868209 C 319.157104 202.436792 313.001931 208.591964 305.387755 208.591964 C 297.819172 208.591964 291.663999 202.436792 291.663999 194.868209 L 291.663999 134.775486 C 291.663999 127.161309 297.819172 121.006136 305.387755 121.006136 C 313.001931 121.006136 319.157104 127.161309 319.157104 134.775486 Z M 319.157104 194.868209 " transform="matrix(0.0856749,0,0,0.0856749,0,0)"/>
<path style="fill-rule:nonzero;fill:rgb(92.941176%,41.176471%,36.078431%);fill-opacity:1;stroke-width:4.67;stroke-linecap:butt;stroke-linejoin:miter;stroke:rgb(92.941176%,41.176471%,36.078431%);stroke-opacity:1;stroke-miterlimit:22.9256;" d="M 58.223375 164.821847 C 58.223375 223.592348 106.051346 271.42032 164.821847 271.42032 C 223.592348 271.42032 271.42032 223.592348 271.42032 164.821847 C 271.42032 106.051346 223.592348 58.223375 164.821847 58.223375 C 106.051346 58.223375 58.223375 106.051346 58.223375 164.821847 Z M 164.821847 66.339084 C 219.124149 66.339084 263.259017 110.519546 263.259017 164.821847 C 263.259017 219.124149 219.124149 263.259017 164.821847 263.259017 C 110.519546 263.259017 66.339084 219.124149 66.339084 164.821847 C 66.339084 110.519546 110.519546 66.339084 164.821847 66.339084 Z M 164.821847 66.339084 " transform="matrix(0.0856749,0,0,0.0856749,0,0)"/>
</g>
</svg>
