<?xml version="1.0" encoding="UTF-8"?>
<svg xmlns="http://www.w3.org/2000/svg" xmlns:xlink="http://www.w3.org/1999/xlink" width="28px" height="28px" viewBox="0 0 28 28" version="1.1">
<g id="surface1">
<path style="fill-rule:nonzero;fill:rgb(92.941176%,41.176471%,36.078431%);fill-opacity:1;stroke-width:4.67;stroke-linecap:butt;stroke-linejoin:miter;stroke:rgb(92.941176%,41.176471%,36.078431%);stroke-opacity:1;stroke-miterlimit:22.9256;" d="M 194.868188 46.0954 C 206.904969 46.0954 216.70765 36.292718 216.70765 24.210343 C 216.70765 12.127969 206.904969 2.325287 194.868188 2.325287 L 134.775471 2.325287 C 122.693096 2.325287 112.890415 12.127969 112.890415 24.210343 C 112.890415 36.292718 122.693096 46.0954 134.775471 46.0954 Z M 121.006123 24.210343 C 121.006123 16.641761 127.161295 10.440996 134.775471 10.440996 L 194.868188 10.440996 C 202.43677 10.440996 208.591942 16.641761 208.591942 24.210343 C 208.591942 31.778925 202.43677 37.934097 194.868188 37.934097 L 134.775471 37.934097 C 127.161295 37.934097 121.006123 31.778925 121.006123 24.210343 Z M 121.006123 24.210343 " transform="matrix(0.0856749,0,0,0.0856749,0,0)"/>
<path style="fill-rule:nonzero;fill:rgb(92.941176%,41.176471%,36.078431%);fill-opacity:1;stroke-width:4.67;stroke-linecap:butt;stroke-linejoin:miter;stroke:rgb(92.941176%,41.176471%,36.078431%);stroke-opacity:1;stroke-miterlimit:22.9256;" d="M 24.210343 216.70765 C 36.292718 216.70765 46.0954 206.904969 46.0954 194.868188 L 46.0954 134.775471 C 46.0954 122.693096 36.292718 112.890415 24.210343 112.890415 C 12.127969 112.890415 2.325287 122.693096 2.325287 134.775471 L 2.325287 194.868188 C 2.325287 206.904969 12.127969 216.70765 24.210343 216.70765 Z M 10.440996 134.775471 C 10.440996 127.161295 16.641761 121.006123 24.210343 121.006123 C 31.778925 121.006123 37.934097 127.161295 37.934097 134.775471 L 37.934097 194.868188 C 37.934097 202.43677 31.778925 208.591942 24.210343 208.591942 C 16.641761 208.591942 10.440996 202.43677 10.440996 194.868188 Z M 10.440996 134.775471 " transform="matrix(0.0856749,0,0,0.0856749,0,0)"/>
<path style="fill-rule:nonzero;fill:rgb(92.941176%,41.176471%,36.078431%);fill-opacity:1;stroke-width:4.67;stroke-linecap:butt;stroke-linejoin:miter;stroke:rgb(92.941176%,41.176471%,36.078431%);stroke-opacity:1;stroke-miterlimit:22.9256;" d="M 134.775471 283.548259 C 122.693096 283.548259 112.890415 293.350941 112.890415 305.387721 C 112.890415 317.470096 122.693096 327.272778 134.775471 327.272778 L 194.868188 327.272778 C 206.904969 327.272778 216.70765 317.470096 216.70765 305.387721 C 216.70765 293.350941 206.904969 283.548259 194.868188 283.548259 Z M 208.591942 305.387721 C 208.591942 313.001897 202.43677 319.157069 194.868188 319.157069 L 134.775471 319.157069 C 127.161295 319.157069 121.006123 313.001897 121.006123 305.387721 C 121.006123 297.81914 127.161295 291.663968 134.775471 291.663968 L 194.868188 291.663968 C 202.43677 291.663968 208.591942 297.81914 208.591942 305.387721 Z M 208.591942 305.387721 " transform="matrix(0.0856749,0,0,0.0856749,0,0)"/>
<path style="fill-rule:nonzero;fill:rgb(92.941176%,41.176471%,36.078431%);fill-opacity:1;stroke-width:4.67;stroke-linecap:butt;stroke-linejoin:miter;stroke:rgb(92.941176%,41.176471%,36.078431%);stroke-opacity:1;stroke-miterlimit:22.9256;" d="M 305.387721 112.890415 C 293.350941 112.890415 283.548259 122.693096 283.548259 134.775471 L 283.548259 194.868188 C 283.548259 206.904969 293.350941 216.70765 305.387721 216.70765 C 317.470096 216.70765 327.272778 206.904969 327.272778 194.868188 L 327.272778 134.775471 C 327.272778 122.693096 317.470096 112.890415 305.387721 112.890415 Z M 319.157069 194.868188 C 319.157069 202.43677 313.001897 208.591942 305.387721 208.591942 C 297.81914 208.591942 291.663968 202.43677 291.663968 194.868188 L 291.663968 134.775471 C 291.663968 127.161295 297.81914 121.006123 305.387721 121.006123 C 313.001897 121.006123 319.157069 127.161295 319.157069 134.775471 Z M 319.157069 194.868188 " transform="matrix(0.0856749,0,0,0.0856749,0,0)"/>
<path style="fill-rule:nonzero;fill:rgb(92.941176%,41.176471%,36.078431%);fill-opacity:1;stroke-width:4.67;stroke-linecap:butt;stroke-linejoin:miter;stroke:rgb(92.941176%,41.176471%,36.078431%);stroke-opacity:1;stroke-miterlimit:22.9256;" d="M 58.223368 164.821829 C 58.223368 223.592324 106.051335 271.420291 164.821829 271.420291 C 223.592324 271.420291 271.420291 223.592324 271.420291 164.821829 C 271.420291 106.051335 223.592324 58.223368 164.821829 58.223368 C 106.051335 58.223368 58.223368 106.051335 58.223368 164.821829 Z M 164.821829 66.339077 C 219.124125 66.339077 263.258988 110.519534 263.258988 164.821829 C 263.258988 219.124125 219.124125 263.258988 164.821829 263.258988 C 110.519534 263.258988 66.339077 219.124125 66.339077 164.821829 C 66.339077 110.519534 110.519534 66.339077 164.821829 66.339077 Z M 164.821829 66.339077 " transform="matrix(0.0856749,0,0,0.0856749,0,0)"/>
</g>
</svg>
