<?xml version="1.0" encoding="UTF-8"?>
<svg xmlns="http://www.w3.org/2000/svg" xmlns:xlink="http://www.w3.org/1999/xlink" width="28px" height="28px" viewBox="0 0 28 28" version="1.1">
<g id="surface1">
<path style=" stroke:none;fill-rule:nonzero;fill:rgb(92.941176%,41.176471%,36.078431%);fill-opacity:1;" d="M 27.816406 6.90625 C 27.578125 6.648438 27.238281 6.5 26.882812 6.5 L 26.507812 6.5 C 25.523438 6.5 24.714844 7.234375 24.628906 8.207031 L 24.222656 12.800781 C 24.183594 13.207031 23.847656 13.511719 23.433594 13.511719 L 19.914062 13.511719 C 18.785156 13.511719 17.867188 14.421875 17.867188 15.539062 L 17.867188 15.742188 C 17.867188 16.417969 18.421875 16.96875 19.105469 16.96875 L 19.859375 16.96875 L 19.117188 19.371094 C 19.117188 19.375 19.113281 19.375 19.113281 19.378906 L 18.546875 21.214844 C 18.480469 21.429688 18.601562 21.660156 18.820312 21.726562 C 18.859375 21.738281 18.902344 21.742188 18.941406 21.742188 C 19.117188 21.742188 19.28125 21.628906 19.335938 21.453125 L 19.8125 19.90625 L 25.46875 19.90625 L 25.949219 21.453125 C 26.003906 21.628906 26.167969 21.742188 26.34375 21.742188 C 26.382812 21.742188 26.421875 21.738281 26.464844 21.726562 C 26.679688 21.660156 26.804688 21.429688 26.738281 21.214844 L 25.390625 16.851562 C 25.625 16.785156 25.855469 16.691406 26.070312 16.570312 C 26.265625 16.457031 26.335938 16.207031 26.222656 16.011719 C 26.109375 15.816406 25.855469 15.75 25.660156 15.859375 C 25.328125 16.050781 24.949219 16.148438 24.5625 16.148438 L 20.417969 16.148438 C 20.414062 16.148438 20.414062 16.148438 20.414062 16.148438 L 19.105469 16.148438 C 18.878906 16.148438 18.691406 15.96875 18.691406 15.742188 L 18.691406 15.539062 C 18.691406 14.875 19.242188 14.332031 19.914062 14.332031 L 23.433594 14.332031 C 24.277344 14.332031 24.96875 13.703125 25.042969 12.871094 L 25.449219 8.277344 C 25.496094 7.730469 25.953125 7.316406 26.507812 7.316406 L 26.882812 7.316406 C 27.007812 7.316406 27.125 7.367188 27.210938 7.460938 C 27.292969 7.550781 27.335938 7.671875 27.324219 7.792969 L 26.761719 14.152344 C 26.746094 14.3125 26.714844 14.464844 26.667969 14.613281 C 26.601562 14.832031 26.722656 15.058594 26.941406 15.125 C 27.160156 15.195312 27.390625 15.074219 27.457031 14.859375 C 27.523438 14.652344 27.5625 14.441406 27.582031 14.226562 L 28.144531 7.867188 C 28.175781 7.515625 28.058594 7.167969 27.816406 6.90625 Z M 20.722656 16.96875 L 24.5625 16.96875 L 25.21875 19.085938 L 20.066406 19.085938 Z M 20.722656 16.96875 "/>
<path style=" stroke:none;fill-rule:nonzero;fill:rgb(92.941176%,41.176471%,36.078431%);fill-opacity:1;" d="M 8.238281 13.511719 L 4.714844 13.511719 C 4.304688 13.511719 3.964844 13.207031 3.929688 12.800781 L 3.523438 8.207031 C 3.4375 7.234375 2.628906 6.5 1.644531 6.5 L 1.265625 6.5 C 0.914062 6.5 0.570312 6.648438 0.332031 6.90625 C 0.09375 7.167969 -0.0273438 7.515625 0.00390625 7.867188 L 0.566406 14.226562 C 0.632812 14.976562 0.980469 15.667969 1.539062 16.179688 C 1.890625 16.5 2.308594 16.726562 2.761719 16.855469 L 1.414062 21.214844 C 1.347656 21.433594 1.46875 21.660156 1.6875 21.726562 C 1.726562 21.738281 1.769531 21.746094 1.808594 21.746094 C 1.984375 21.746094 2.148438 21.632812 2.203125 21.457031 L 2.679688 19.90625 L 8.335938 19.90625 L 8.816406 21.457031 C 8.871094 21.632812 9.035156 21.746094 9.210938 21.746094 C 9.25 21.746094 9.289062 21.738281 9.332031 21.726562 C 9.546875 21.660156 9.671875 21.433594 9.605469 21.214844 L 9.035156 19.378906 C 9.035156 19.375 9.035156 19.375 9.035156 19.371094 L 8.292969 16.96875 L 9.046875 16.96875 C 9.726562 16.96875 10.28125 16.417969 10.28125 15.742188 L 10.28125 15.542969 C 10.28125 14.421875 9.363281 13.515625 8.234375 13.515625 Z M 2.933594 19.085938 L 3.589844 16.96875 L 7.429688 16.96875 L 8.085938 19.085938 Z M 9.457031 15.742188 C 9.457031 15.96875 9.273438 16.148438 9.046875 16.148438 L 7.738281 16.148438 C 7.738281 16.148438 7.734375 16.148438 7.734375 16.148438 L 3.589844 16.148438 C 3.5 16.148438 3.414062 16.144531 3.328125 16.132812 C 2.296875 16.015625 1.484375 15.203125 1.390625 14.152344 L 0.828125 7.792969 C 0.816406 7.667969 0.855469 7.550781 0.941406 7.460938 C 1.027344 7.367188 1.140625 7.316406 1.265625 7.316406 L 1.644531 7.316406 C 2.199219 7.316406 2.652344 7.730469 2.703125 8.277344 L 3.109375 12.871094 C 3.183594 13.703125 3.875 14.332031 4.714844 14.332031 L 8.238281 14.332031 C 8.910156 14.332031 9.457031 14.875 9.457031 15.539062 Z M 9.457031 15.742188 "/>
<path style=" stroke:none;fill-rule:nonzero;fill:rgb(92.941176%,41.176471%,36.078431%);fill-opacity:1;" d="M 17.207031 20.394531 C 17.035156 19.75 16.445312 19.296875 15.769531 19.296875 L 15.515625 19.296875 L 15.515625 11.855469 L 20.59375 11.855469 C 20.882812 11.855469 21.160156 11.726562 21.34375 11.5 C 21.527344 11.277344 21.601562 10.984375 21.542969 10.703125 C 21.363281 9.847656 20.597656 9.226562 19.714844 9.226562 L 11.144531 9.226562 C 10.914062 9.226562 10.730469 9.410156 10.730469 9.636719 C 10.730469 9.859375 10.914062 10.042969 11.144531 10.042969 L 19.714844 10.042969 C 20.207031 10.042969 20.636719 10.390625 20.734375 10.867188 C 20.746094 10.925781 20.71875 10.964844 20.703125 10.984375 C 20.6875 11.003906 20.652344 11.039062 20.59375 11.039062 L 7.558594 11.039062 C 7.5 11.039062 7.464844 11.003906 7.445312 10.984375 C 7.429688 10.964844 7.40625 10.925781 7.417969 10.867188 C 7.515625 10.390625 7.945312 10.042969 8.433594 10.042969 L 9.207031 10.042969 C 9.4375 10.042969 9.621094 9.859375 9.621094 9.636719 C 9.621094 9.410156 9.4375 9.226562 9.207031 9.226562 L 8.433594 9.226562 C 7.554688 9.226562 6.785156 9.847656 6.609375 10.703125 C 6.550781 10.984375 6.621094 11.277344 6.808594 11.5 C 6.992188 11.726562 7.265625 11.855469 7.558594 11.855469 L 12.636719 11.855469 L 12.636719 19.296875 L 12.382812 19.292969 C 11.707031 19.292969 11.113281 19.746094 10.945312 20.394531 L 10.847656 20.765625 C 10.785156 21 10.835938 21.246094 10.988281 21.441406 C 11.136719 21.632812 11.363281 21.742188 11.613281 21.742188 L 16.539062 21.742188 C 16.785156 21.742188 17.011719 21.632812 17.164062 21.441406 C 17.316406 21.246094 17.367188 21 17.304688 20.765625 Z M 13.460938 11.855469 L 14.691406 11.855469 L 14.691406 19.296875 L 13.460938 19.296875 Z M 11.65625 20.925781 L 11.742188 20.601562 C 11.816406 20.3125 12.082031 20.113281 12.382812 20.113281 L 15.769531 20.113281 C 16.070312 20.113281 16.332031 20.3125 16.40625 20.601562 L 16.492188 20.925781 Z M 11.65625 20.925781 "/>
</g>
</svg>
