<?xml version="1.0" encoding="UTF-8"?>
<svg xmlns="http://www.w3.org/2000/svg" xmlns:xlink="http://www.w3.org/1999/xlink" width="28px" height="28px" viewBox="0 0 28 15" version="1.1">
<g id="surface1">
<path style=" stroke:none;fill-rule:nonzero;fill:rgb(92.941176%,41.176471%,36.078431%);fill-opacity:1;" d="M 27.816406 0.40625 C 27.578125 0.148438 27.238281 0 26.882812 0 L 26.507812 0 C 25.523438 0 24.714844 0.734375 24.628906 1.707031 L 24.222656 6.300781 C 24.183594 6.707031 23.847656 7.011719 23.433594 7.011719 L 19.914062 7.011719 C 18.785156 7.011719 17.867188 7.921875 17.867188 9.039062 L 17.867188 9.242188 C 17.867188 9.917969 18.421875 10.46875 19.105469 10.46875 L 19.859375 10.46875 L 19.117188 12.871094 C 19.117188 12.875 19.113281 12.875 19.113281 12.878906 L 18.546875 14.714844 C 18.480469 14.929688 18.601562 15.160156 18.820312 15.226562 C 18.859375 15.238281 18.902344 15.242188 18.941406 15.242188 C 19.117188 15.242188 19.28125 15.128906 19.335938 14.953125 L 19.8125 13.40625 L 25.46875 13.40625 L 25.949219 14.953125 C 26.003906 15.128906 26.167969 15.242188 26.34375 15.242188 C 26.382812 15.242188 26.421875 15.238281 26.464844 15.226562 C 26.679688 15.160156 26.804688 14.929688 26.738281 14.714844 L 25.390625 10.351562 C 25.625 10.285156 25.855469 10.191406 26.070312 10.070312 C 26.265625 9.957031 26.335938 9.707031 26.222656 9.511719 C 26.109375 9.316406 25.855469 9.25 25.660156 9.359375 C 25.328125 9.550781 24.949219 9.648438 24.5625 9.648438 L 20.417969 9.648438 C 20.414062 9.648438 20.414062 9.648438 20.414062 9.648438 L 19.105469 9.648438 C 18.878906 9.648438 18.691406 9.46875 18.691406 9.242188 L 18.691406 9.039062 C 18.691406 8.375 19.242188 7.832031 19.914062 7.832031 L 23.433594 7.832031 C 24.277344 7.832031 24.96875 7.203125 25.042969 6.371094 L 25.449219 1.777344 C 25.496094 1.230469 25.953125 0.816406 26.507812 0.816406 L 26.882812 0.816406 C 27.007812 0.816406 27.125 0.867188 27.210938 0.960938 C 27.292969 1.050781 27.335938 1.171875 27.324219 1.292969 L 26.761719 7.652344 C 26.746094 7.8125 26.714844 7.964844 26.667969 8.113281 C 26.601562 8.332031 26.722656 8.558594 26.941406 8.625 C 27.160156 8.695312 27.390625 8.574219 27.457031 8.359375 C 27.523438 8.152344 27.5625 7.941406 27.582031 7.726562 L 28.144531 1.367188 C 28.175781 1.015625 28.058594 0.667969 27.816406 0.40625 Z M 20.722656 10.46875 L 24.5625 10.46875 L 25.21875 12.585938 L 20.066406 12.585938 Z M 20.722656 10.46875 "/>
<path style=" stroke:none;fill-rule:nonzero;fill:rgb(92.941176%,41.176471%,36.078431%);fill-opacity:1;" d="M 8.238281 7.011719 L 4.714844 7.011719 C 4.304688 7.011719 3.964844 6.707031 3.929688 6.300781 L 3.523438 1.707031 C 3.4375 0.734375 2.628906 0 1.644531 0 L 1.265625 0 C 0.914062 0 0.570312 0.148438 0.332031 0.40625 C 0.09375 0.667969 -0.0273438 1.015625 0.00390625 1.367188 L 0.566406 7.726562 C 0.632812 8.476562 0.980469 9.167969 1.539062 9.679688 C 1.890625 10 2.308594 10.226562 2.761719 10.355469 L 1.414062 14.714844 C 1.347656 14.933594 1.46875 15.160156 1.6875 15.226562 C 1.726562 15.238281 1.769531 15.246094 1.808594 15.246094 C 1.984375 15.246094 2.148438 15.132812 2.203125 14.957031 L 2.679688 13.40625 L 8.335938 13.40625 L 8.816406 14.957031 C 8.871094 15.132812 9.035156 15.246094 9.210938 15.246094 C 9.25 15.246094 9.289062 15.238281 9.332031 15.226562 C 9.546875 15.160156 9.671875 14.933594 9.605469 14.714844 L 9.035156 12.878906 C 9.035156 12.875 9.035156 12.875 9.035156 12.871094 L 8.292969 10.46875 L 9.046875 10.46875 C 9.726562 10.46875 10.28125 9.917969 10.28125 9.242188 L 10.28125 9.042969 C 10.28125 7.921875 9.363281 7.015625 8.234375 7.015625 Z M 2.933594 12.585938 L 3.589844 10.46875 L 7.429688 10.46875 L 8.085938 12.585938 Z M 9.457031 9.242188 C 9.457031 9.46875 9.273438 9.648438 9.046875 9.648438 L 7.738281 9.648438 C 7.738281 9.648438 7.734375 9.648438 7.734375 9.648438 L 3.589844 9.648438 C 3.5 9.648438 3.414062 9.644531 3.328125 9.632812 C 2.296875 9.515625 1.484375 8.703125 1.390625 7.652344 L 0.828125 1.292969 C 0.816406 1.167969 0.855469 1.050781 0.941406 0.960938 C 1.027344 0.867188 1.140625 0.816406 1.265625 0.816406 L 1.644531 0.816406 C 2.199219 0.816406 2.652344 1.230469 2.703125 1.777344 L 3.109375 6.371094 C 3.183594 7.203125 3.875 7.832031 4.714844 7.832031 L 8.238281 7.832031 C 8.910156 7.832031 9.457031 8.375 9.457031 9.039062 Z M 9.457031 9.242188 "/>
<path style=" stroke:none;fill-rule:nonzero;fill:rgb(92.941176%,41.176471%,36.078431%);fill-opacity:1;" d="M 17.207031 13.894531 C 17.035156 13.25 16.445312 12.796875 15.769531 12.796875 L 15.515625 12.796875 L 15.515625 5.355469 L 20.59375 5.355469 C 20.882812 5.355469 21.160156 5.226562 21.34375 5 C 21.527344 4.777344 21.601562 4.484375 21.542969 4.203125 C 21.363281 3.347656 20.597656 2.726562 19.714844 2.726562 L 11.144531 2.726562 C 10.914062 2.726562 10.730469 2.910156 10.730469 3.136719 C 10.730469 3.359375 10.914062 3.542969 11.144531 3.542969 L 19.714844 3.542969 C 20.207031 3.542969 20.636719 3.890625 20.734375 4.367188 C 20.746094 4.425781 20.71875 4.464844 20.703125 4.484375 C 20.6875 4.503906 20.652344 4.539062 20.59375 4.539062 L 7.558594 4.539062 C 7.5 4.539062 7.464844 4.503906 7.445312 4.484375 C 7.429688 4.464844 7.40625 4.425781 7.417969 4.367188 C 7.515625 3.890625 7.945312 3.542969 8.433594 3.542969 L 9.207031 3.542969 C 9.4375 3.542969 9.621094 3.359375 9.621094 3.136719 C 9.621094 2.910156 9.4375 2.726562 9.207031 2.726562 L 8.433594 2.726562 C 7.554688 2.726562 6.785156 3.347656 6.609375 4.203125 C 6.550781 4.484375 6.621094 4.777344 6.808594 5 C 6.992188 5.226562 7.265625 5.355469 7.558594 5.355469 L 12.636719 5.355469 L 12.636719 12.796875 L 12.382812 12.792969 C 11.707031 12.792969 11.113281 13.246094 10.945312 13.894531 L 10.847656 14.265625 C 10.785156 14.5 10.835938 14.746094 10.988281 14.941406 C 11.136719 15.132812 11.363281 15.242188 11.613281 15.242188 L 16.539062 15.242188 C 16.785156 15.242188 17.011719 15.132812 17.164062 14.941406 C 17.316406 14.746094 17.367188 14.5 17.304688 14.265625 Z M 13.460938 5.355469 L 14.691406 5.355469 L 14.691406 12.796875 L 13.460938 12.796875 Z M 11.65625 14.425781 L 11.742188 14.101562 C 11.816406 13.8125 12.082031 13.613281 12.382812 13.613281 L 15.769531 13.613281 C 16.070312 13.613281 16.332031 13.8125 16.40625 14.101562 L 16.492188 14.425781 Z M 11.65625 14.425781 "/>
</g>
</svg>
