<?xml version="1.0" encoding="UTF-8"?>
<svg xmlns="http://www.w3.org/2000/svg" xmlns:xlink="http://www.w3.org/1999/xlink" width="28px" height="28px" viewBox="0 0 28 28" version="1.1">
<g id="surface1">
<path style=" stroke:none;fill-rule:nonzero;fill:rgb(92.941176%,41.176471%,36.078431%);fill-opacity:1;" d="M 22.609375 11.566406 L 21.835938 6.902344 C 21.796875 6.679688 21.585938 6.53125 21.355469 6.566406 C 21.128906 6.601562 20.972656 6.8125 21.011719 7.035156 L 21.703125 11.195312 C 18.171875 10.511719 14.46875 10.332031 10.691406 10.671875 C 10.460938 10.691406 10.292969 10.890625 10.3125 11.117188 C 10.332031 11.34375 10.539062 11.511719 10.765625 11.488281 C 14.492188 11.152344 18.144531 11.328125 21.628906 12.015625 C 22.214844 12.128906 22.644531 12.644531 22.644531 13.238281 L 22.644531 14.53125 C 22.644531 15.21875 22.074219 15.777344 21.375 15.777344 L 6.992188 15.777344 C 6.292969 15.777344 5.722656 15.21875 5.722656 14.53125 L 5.722656 13.265625 C 5.722656 12.660156 6.160156 12.148438 6.761719 12.035156 C 7.503906 11.902344 8.257812 11.785156 9.007812 11.683594 C 9.234375 11.65625 9.398438 11.449219 9.367188 11.226562 C 9.335938 11 9.125 10.84375 8.894531 10.875 C 8.132812 10.976562 7.367188 11.09375 6.609375 11.234375 L 7.785156 4.144531 C 8.105469 2.21875 9.78125 0.820312 11.773438 0.820312 L 16.546875 0.820312 C 18.539062 0.820312 20.214844 2.21875 20.53125 4.144531 L 20.726562 5.304688 C 20.761719 5.527344 20.976562 5.675781 21.207031 5.640625 C 21.433594 5.605469 21.585938 5.394531 21.550781 5.171875 L 21.355469 4.011719 C 21.167969 2.894531 20.582031 1.871094 19.703125 1.140625 C 18.824219 0.40625 17.699219 0 16.546875 0 L 11.769531 0 C 10.613281 0 9.492188 0.40625 8.613281 1.140625 C 7.734375 1.871094 7.148438 2.894531 6.960938 4.015625 L 5.695312 11.632812 C 5.199219 12.019531 4.890625 12.609375 4.890625 13.265625 L 4.890625 14.53125 C 4.890625 15.667969 5.832031 16.597656 6.996094 16.597656 L 7.308594 16.597656 L 5.683594 27.128906 C 5.648438 27.347656 5.714844 27.566406 5.859375 27.734375 C 6.003906 27.902344 6.21875 28 6.445312 28 L 6.859375 28 C 7.207031 28 7.5 27.785156 7.601562 27.457031 L 10.195312 18.988281 L 11.144531 18.40625 L 17.21875 18.40625 L 18.171875 18.988281 L 18.59375 20.363281 C 18.648438 20.539062 18.816406 20.652344 18.992188 20.652344 C 19.03125 20.652344 19.070312 20.648438 19.113281 20.636719 C 19.332031 20.570312 19.460938 20.339844 19.394531 20.125 L 18.3125 16.59375 L 20.214844 16.59375 L 21.851562 27.175781 L 21.554688 27.175781 L 19.910156 21.796875 C 19.84375 21.578125 19.609375 21.457031 19.386719 21.519531 C 19.167969 21.585938 19.042969 21.8125 19.109375 22.03125 L 20.769531 27.453125 C 20.863281 27.777344 21.164062 27.992188 21.507812 27.992188 L 21.921875 27.992188 C 22.148438 27.992188 22.363281 27.898438 22.511719 27.730469 C 22.65625 27.5625 22.722656 27.339844 22.6875 27.121094 L 21.058594 16.59375 L 21.375 16.59375 C 22.535156 16.59375 23.484375 15.667969 23.484375 14.523438 L 23.484375 13.230469 C 23.484375 12.554688 23.144531 11.941406 22.613281 11.558594 Z M 6.8125 27.179688 L 6.515625 27.179688 L 8.152344 16.597656 L 10.050781 16.597656 Z M 17.808594 17.804688 L 17.648438 17.707031 C 17.523438 17.632812 17.378906 17.589844 17.226562 17.589844 L 11.132812 17.589844 C 10.984375 17.589844 10.839844 17.628906 10.710938 17.707031 L 10.554688 17.804688 L 10.921875 16.597656 L 17.4375 16.597656 Z M 17.808594 17.804688 "/>
</g>
</svg>
