<?xml version="1.0" encoding="UTF-8"?>
<svg xmlns="http://www.w3.org/2000/svg" xmlns:xlink="http://www.w3.org/1999/xlink" width="28px" height="28px" viewBox="0 0 28 28" version="1.1">
<g id="surface1">
<path style=" stroke:none;fill-rule:nonzero;fill:rgb(92.941176%,41.176471%,36.078431%);fill-opacity:1;" d="M 26.132812 19.363281 C 26.648438 19.363281 27.066406 18.949219 27.070312 18.441406 L 27.070312 14.75 L 27.535156 14.75 C 27.792969 14.75 28.003906 14.542969 28.003906 14.285156 C 28.003906 14.03125 27.792969 13.824219 27.535156 13.824219 L 16.714844 13.824219 C 16.773438 13.679688 16.800781 13.519531 16.800781 13.363281 L 16.800781 11.054688 C 17.316406 11.054688 17.734375 10.640625 17.738281 10.128906 L 17.738281 9.207031 C 17.738281 8.699219 17.320312 8.285156 16.800781 8.28125 L 15.59375 8.28125 C 15.929688 7.949219 16.199219 7.550781 16.382812 7.117188 C 16.699219 6.207031 16.699219 5.214844 16.386719 4.300781 C 16.339844 4.179688 16.242188 4.078125 16.121094 4.03125 C 16 3.980469 15.863281 3.988281 15.742188 4.046875 C 14.980469 4.449219 14.347656 5.054688 13.921875 5.796875 C 13.367188 5.019531 12.570312 4.441406 11.65625 4.148438 C 11.527344 4.113281 11.390625 4.128906 11.277344 4.199219 C 11.164062 4.265625 11.089844 4.378906 11.0625 4.511719 C 10.914062 5.464844 11.089844 6.4375 11.558594 7.28125 C 11.8125 7.671875 12.136719 8.011719 12.519531 8.28125 L 11.203125 8.28125 C 10.691406 8.28125 10.273438 8.695312 10.269531 9.207031 L 10.269531 10.128906 C 10.269531 10.636719 10.6875 11.050781 11.203125 11.054688 L 11.203125 13.363281 C 11.207031 13.519531 11.234375 13.675781 11.289062 13.824219 L 0.46875 13.824219 C 0.210938 13.824219 0.00390625 14.03125 0.00390625 14.285156 C 0.00390625 14.542969 0.210938 14.75 0.46875 14.75 L 0.9375 14.75 L 0.9375 18.441406 C 0.9375 18.949219 1.355469 19.363281 1.871094 19.363281 L 3.917969 19.363281 L 2.050781 23.054688 L 0.472656 23.054688 C 0.214844 23.054688 0.00390625 23.261719 0.00390625 23.519531 C 0.00390625 23.773438 0.214844 23.980469 0.472656 23.980469 L 27.542969 23.980469 C 27.800781 23.980469 28.007812 23.773438 28.007812 23.519531 C 28.007812 23.261719 27.800781 23.054688 27.542969 23.054688 L 25.964844 23.054688 L 24.097656 19.363281 L 26.140625 19.363281 Z M 26.132812 18.441406 L 19.597656 18.441406 L 19.597656 14.75 L 26.132812 14.75 Z M 8.863281 19.363281 L 20.308594 19.363281 L 23.292969 23.054688 L 4.703125 23.054688 L 7.6875 19.363281 Z M 14.644531 6.433594 C 14.863281 5.945312 15.207031 5.519531 15.644531 5.203125 C 15.742188 5.730469 15.695312 6.273438 15.511719 6.777344 C 15.292969 7.265625 14.949219 7.691406 14.511719 8.003906 C 14.496094 7.910156 14.484375 7.800781 14.476562 7.691406 C 14.476562 7.667969 14.472656 7.644531 14.46875 7.617188 C 14.441406 7.214844 14.5 6.808594 14.644531 6.429688 Z M 11.941406 5.273438 C 12.425781 5.507812 12.839844 5.871094 13.140625 6.3125 C 13.40625 6.777344 13.546875 7.304688 13.542969 7.839844 C 13.058594 7.601562 12.644531 7.242188 12.34375 6.796875 C 12.078125 6.332031 11.9375 5.804688 11.941406 5.269531 Z M 11.195312 9.210938 L 16.796875 9.210938 L 16.796875 10.132812 L 11.195312 10.132812 Z M 12.128906 13.363281 L 12.128906 11.054688 L 15.863281 11.054688 L 15.863281 13.363281 C 15.863281 13.621094 15.65625 13.828125 15.398438 13.828125 L 12.597656 13.828125 C 12.339844 13.828125 12.128906 13.621094 12.128906 13.363281 Z M 12.597656 14.75 L 18.667969 14.75 L 18.667969 18.441406 L 9.332031 18.441406 L 9.332031 14.75 Z M 1.863281 14.75 L 8.398438 14.75 L 8.398438 18.441406 L 1.863281 18.441406 Z M 3.085938 23.054688 L 4.953125 19.363281 L 6.492188 19.363281 L 3.503906 23.054688 Z M 24.90625 23.054688 L 24.488281 23.054688 L 21.5 19.363281 L 23.039062 19.363281 Z M 24.90625 23.054688 Z M 24.90625 23.054688 "/>
<path style=" stroke:none;fill-rule:nonzero;fill:rgb(92.941176%,41.176471%,36.078431%);fill-opacity:1;" d="M 14 17.054688 C 14.257812 17.054688 14.46875 16.847656 14.46875 16.59375 L 14.46875 16.128906 C 14.46875 15.875 14.257812 15.667969 14 15.667969 C 13.742188 15.667969 13.53125 15.875 13.53125 16.128906 L 13.53125 16.59375 C 13.53125 16.847656 13.742188 17.054688 14 17.054688 Z M 14 17.054688 Z M 14 17.054688 "/>
</g>
</svg>
