<?xml version="1.0" encoding="UTF-8"?>
<svg xmlns="http://www.w3.org/2000/svg" xmlns:xlink="http://www.w3.org/1999/xlink" width="28px" height="28px" viewBox="0 0 28 20" version="1.1">
<g id="surface1">
<path style=" stroke:none;fill-rule:nonzero;fill:rgb(92.941176%,41.176471%,36.078431%);fill-opacity:1;" d="M 26.132812 15.363281 C 26.648438 15.363281 27.066406 14.949219 27.070312 14.441406 L 27.070312 10.75 L 27.535156 10.75 C 27.792969 10.75 28.003906 10.542969 28.003906 10.285156 C 28.003906 10.03125 27.792969 9.824219 27.535156 9.824219 L 16.714844 9.824219 C 16.773438 9.679688 16.800781 9.519531 16.800781 9.363281 L 16.800781 7.054688 C 17.316406 7.054688 17.734375 6.640625 17.738281 6.128906 L 17.738281 5.207031 C 17.738281 4.699219 17.320312 4.285156 16.800781 4.28125 L 15.59375 4.28125 C 15.929688 3.949219 16.199219 3.550781 16.382812 3.117188 C 16.699219 2.207031 16.699219 1.214844 16.386719 0.300781 C 16.339844 0.179688 16.242188 0.078125 16.121094 0.03125 C 16 -0.0195312 15.863281 -0.0117188 15.742188 0.046875 C 14.980469 0.449219 14.347656 1.054688 13.921875 1.796875 C 13.367188 1.019531 12.570312 0.441406 11.65625 0.148438 C 11.527344 0.113281 11.390625 0.128906 11.277344 0.199219 C 11.164062 0.265625 11.089844 0.378906 11.0625 0.511719 C 10.914062 1.464844 11.089844 2.4375 11.558594 3.28125 C 11.8125 3.671875 12.136719 4.011719 12.519531 4.28125 L 11.203125 4.28125 C 10.691406 4.28125 10.273438 4.695312 10.269531 5.207031 L 10.269531 6.128906 C 10.269531 6.636719 10.6875 7.050781 11.203125 7.054688 L 11.203125 9.363281 C 11.207031 9.519531 11.234375 9.675781 11.289062 9.824219 L 0.46875 9.824219 C 0.210938 9.824219 0.00390625 10.03125 0.00390625 10.285156 C 0.00390625 10.542969 0.210938 10.75 0.46875 10.75 L 0.9375 10.75 L 0.9375 14.441406 C 0.9375 14.949219 1.355469 15.363281 1.871094 15.363281 L 3.917969 15.363281 L 2.050781 19.054688 L 0.472656 19.054688 C 0.214844 19.054688 0.00390625 19.261719 0.00390625 19.519531 C 0.00390625 19.773438 0.214844 19.980469 0.472656 19.980469 L 27.542969 19.980469 C 27.800781 19.980469 28.007812 19.773438 28.007812 19.519531 C 28.007812 19.261719 27.800781 19.054688 27.542969 19.054688 L 25.964844 19.054688 L 24.097656 15.363281 L 26.140625 15.363281 Z M 26.132812 14.441406 L 19.597656 14.441406 L 19.597656 10.75 L 26.132812 10.75 Z M 8.863281 15.363281 L 20.308594 15.363281 L 23.292969 19.054688 L 4.703125 19.054688 L 7.6875 15.363281 Z M 14.644531 2.433594 C 14.863281 1.945312 15.207031 1.519531 15.644531 1.203125 C 15.742188 1.730469 15.695312 2.273438 15.511719 2.777344 C 15.292969 3.265625 14.949219 3.691406 14.511719 4.003906 C 14.496094 3.910156 14.484375 3.800781 14.476562 3.691406 C 14.476562 3.667969 14.472656 3.644531 14.46875 3.617188 C 14.441406 3.214844 14.5 2.808594 14.644531 2.429688 Z M 11.941406 1.273438 C 12.425781 1.507812 12.839844 1.871094 13.140625 2.3125 C 13.40625 2.777344 13.546875 3.304688 13.542969 3.839844 C 13.058594 3.601562 12.644531 3.242188 12.34375 2.796875 C 12.078125 2.332031 11.9375 1.804688 11.941406 1.269531 Z M 11.195312 5.210938 L 16.796875 5.210938 L 16.796875 6.132812 L 11.195312 6.132812 Z M 12.128906 9.363281 L 12.128906 7.054688 L 15.863281 7.054688 L 15.863281 9.363281 C 15.863281 9.621094 15.65625 9.828125 15.398438 9.828125 L 12.597656 9.828125 C 12.339844 9.828125 12.128906 9.621094 12.128906 9.363281 Z M 12.597656 10.75 L 18.667969 10.75 L 18.667969 14.441406 L 9.332031 14.441406 L 9.332031 10.75 Z M 1.863281 10.75 L 8.398438 10.75 L 8.398438 14.441406 L 1.863281 14.441406 Z M 3.085938 19.054688 L 4.953125 15.363281 L 6.492188 15.363281 L 3.503906 19.054688 Z M 24.90625 19.054688 L 24.488281 19.054688 L 21.5 15.363281 L 23.039062 15.363281 Z M 24.90625 19.054688 Z M 24.90625 19.054688 "/>
<path style=" stroke:none;fill-rule:nonzero;fill:rgb(92.941176%,41.176471%,36.078431%);fill-opacity:1;" d="M 14 13.054688 C 14.257812 13.054688 14.46875 12.847656 14.46875 12.59375 L 14.46875 12.128906 C 14.46875 11.875 14.257812 11.667969 14 11.667969 C 13.742188 11.667969 13.53125 11.875 13.53125 12.128906 L 13.53125 12.59375 C 13.53125 12.847656 13.742188 13.054688 14 13.054688 Z M 14 13.054688 Z M 14 13.054688 "/>
</g>
</svg>
