<?xml version="1.0" encoding="UTF-8"?>
<svg xmlns="http://www.w3.org/2000/svg" xmlns:xlink="http://www.w3.org/1999/xlink" width="28px" height="28px" viewBox="0 0 28 18" version="1.1">
<g id="surface1">
<path style=" stroke:none;fill-rule:nonzero;fill:rgb(92.941176%,41.176471%,36.078431%);fill-opacity:1;" d="M 27.152344 0 L 0.847656 0 C 0.382812 0 0.00390625 0.367188 0.00390625 0.816406 L 0.00390625 8.425781 C 0.00390625 8.875 0.382812 9.242188 0.847656 9.242188 L 1.753906 9.242188 L 1.753906 16.457031 C 1.753906 17.140625 2.332031 17.695312 3.039062 17.695312 L 9.175781 17.695312 C 9.886719 17.695312 10.460938 17.140625 10.460938 16.457031 L 10.460938 10.003906 C 10.609375 10.0625 10.761719 10.089844 10.929688 10.089844 L 17.0625 10.089844 C 17.402344 10.089844 17.710938 9.964844 17.941406 9.757812 C 18.171875 9.964844 18.480469 10.089844 18.820312 10.089844 L 24.957031 10.089844 C 25.519531 10.089844 26.003906 9.738281 26.175781 9.242188 L 27.148438 9.242188 C 27.613281 9.242188 27.992188 8.875 27.992188 8.425781 L 27.992188 0.816406 C 27.992188 0.367188 27.613281 0 27.148438 0 Z M 1.753906 8.453125 L 0.847656 8.453125 C 0.835938 8.453125 0.824219 8.441406 0.824219 8.425781 L 0.824219 2.480469 L 1.753906 2.480469 Z M 2.574219 3.378906 L 2.574219 2.480469 L 9.644531 2.480469 L 9.644531 3.378906 Z M 4.386719 4.621094 L 4.386719 5.886719 C 4.386719 6.136719 4.175781 6.335938 3.917969 6.335938 L 3.039062 6.335938 C 2.78125 6.335938 2.574219 6.136719 2.574219 5.886719 L 2.574219 4.621094 C 2.574219 4.371094 2.78125 4.171875 3.039062 4.171875 L 3.917969 4.171875 C 4.175781 4.171875 4.386719 4.371094 4.386719 4.621094 Z M 17.535156 8.847656 C 17.535156 9.09375 17.324219 9.296875 17.066406 9.296875 L 10.933594 9.296875 C 10.675781 9.296875 10.464844 9.09375 10.464844 8.847656 L 10.464844 6.308594 C 10.464844 6.089844 10.28125 5.914062 10.058594 5.914062 C 9.832031 5.914062 9.644531 6.089844 9.644531 6.308594 L 9.644531 16.457031 C 9.644531 16.703125 9.4375 16.90625 9.179688 16.90625 L 3.042969 16.90625 C 2.785156 16.90625 2.578125 16.703125 2.578125 16.457031 L 2.578125 7.046875 C 2.726562 7.101562 2.878906 7.128906 3.042969 7.128906 L 3.921875 7.128906 C 4.632812 7.128906 5.210938 6.574219 5.210938 5.890625 L 5.210938 4.625 C 5.210938 4.464844 5.179688 4.3125 5.121094 4.175781 L 9.648438 4.175781 L 9.648438 4.625 C 9.648438 4.84375 9.835938 5.015625 10.058594 5.015625 C 10.285156 5.015625 10.464844 4.839844 10.464844 4.625 L 10.464844 4.175781 L 17.539062 4.175781 L 17.539062 8.851562 Z M 17.535156 3.378906 L 10.460938 3.378906 L 10.460938 2.480469 L 17.535156 2.480469 Z M 25.425781 8.847656 C 25.425781 9.09375 25.21875 9.296875 24.960938 9.296875 L 18.824219 9.296875 C 18.566406 9.296875 18.359375 9.09375 18.359375 8.847656 L 18.359375 4.171875 L 22.886719 4.171875 C 22.828125 4.3125 22.796875 4.460938 22.796875 4.621094 L 22.796875 5.886719 C 22.796875 6.570312 23.375 7.125 24.085938 7.125 L 24.964844 7.125 C 25.128906 7.125 25.28125 7.097656 25.429688 7.042969 L 25.429688 8.84375 Z M 25.425781 5.886719 C 25.425781 6.136719 25.21875 6.335938 24.960938 6.335938 L 24.082031 6.335938 C 23.824219 6.335938 23.613281 6.136719 23.613281 5.886719 L 23.613281 4.621094 C 23.613281 4.371094 23.824219 4.171875 24.082031 4.171875 L 24.960938 4.171875 C 25.21875 4.171875 25.425781 4.371094 25.425781 4.621094 Z M 27.175781 8.421875 C 27.175781 8.4375 27.164062 8.449219 27.152344 8.449219 L 26.246094 8.449219 L 26.246094 2.476562 L 27.175781 2.476562 Z M 27.175781 1.6875 L 24.960938 1.6875 C 24.730469 1.6875 24.550781 1.863281 24.550781 2.078125 C 24.550781 2.300781 24.734375 2.472656 24.960938 2.472656 L 25.425781 2.472656 L 25.425781 3.371094 L 18.355469 3.371094 L 18.355469 2.472656 L 23.203125 2.472656 C 23.429688 2.472656 23.609375 2.296875 23.609375 2.078125 C 23.609375 1.859375 23.425781 1.683594 23.203125 1.683594 L 0.820312 1.683594 L 0.820312 0.808594 C 0.820312 0.792969 0.832031 0.785156 0.84375 0.785156 L 27.148438 0.785156 C 27.164062 0.785156 27.171875 0.792969 27.171875 0.808594 L 27.171875 1.683594 Z M 27.175781 1.6875 "/>
</g>
</svg>
