<?xml version="1.0" encoding="UTF-8"?>
<svg xmlns="http://www.w3.org/2000/svg" xmlns:xlink="http://www.w3.org/1999/xlink" width="28px" height="28px" viewBox="0 0 28 28" version="1.1">
<g id="surface1">
<path style=" stroke:none;fill-rule:nonzero;fill:rgb(92.941176%,41.176471%,36.078431%);fill-opacity:1;" d="M 27.152344 5 L 0.847656 5 C 0.382812 5 0.00390625 5.367188 0.00390625 5.816406 L 0.00390625 13.425781 C 0.00390625 13.875 0.382812 14.242188 0.847656 14.242188 L 1.753906 14.242188 L 1.753906 21.457031 C 1.753906 22.140625 2.332031 22.695312 3.039062 22.695312 L 9.175781 22.695312 C 9.886719 22.695312 10.460938 22.140625 10.460938 21.457031 L 10.460938 15.003906 C 10.609375 15.0625 10.761719 15.089844 10.929688 15.089844 L 17.0625 15.089844 C 17.402344 15.089844 17.710938 14.964844 17.941406 14.757812 C 18.171875 14.964844 18.480469 15.089844 18.820312 15.089844 L 24.957031 15.089844 C 25.519531 15.089844 26.003906 14.738281 26.175781 14.242188 L 27.148438 14.242188 C 27.613281 14.242188 27.992188 13.875 27.992188 13.425781 L 27.992188 5.816406 C 27.992188 5.367188 27.613281 5 27.148438 5 Z M 1.753906 13.453125 L 0.847656 13.453125 C 0.835938 13.453125 0.824219 13.441406 0.824219 13.425781 L 0.824219 7.480469 L 1.753906 7.480469 Z M 2.574219 8.378906 L 2.574219 7.480469 L 9.644531 7.480469 L 9.644531 8.378906 Z M 4.386719 9.621094 L 4.386719 10.886719 C 4.386719 11.136719 4.175781 11.335938 3.917969 11.335938 L 3.039062 11.335938 C 2.78125 11.335938 2.574219 11.136719 2.574219 10.886719 L 2.574219 9.621094 C 2.574219 9.371094 2.78125 9.171875 3.039062 9.171875 L 3.917969 9.171875 C 4.175781 9.171875 4.386719 9.371094 4.386719 9.621094 Z M 17.535156 13.847656 C 17.535156 14.09375 17.324219 14.296875 17.066406 14.296875 L 10.933594 14.296875 C 10.675781 14.296875 10.464844 14.09375 10.464844 13.847656 L 10.464844 11.308594 C 10.464844 11.089844 10.28125 10.914062 10.058594 10.914062 C 9.832031 10.914062 9.644531 11.089844 9.644531 11.308594 L 9.644531 21.457031 C 9.644531 21.703125 9.4375 21.90625 9.179688 21.90625 L 3.042969 21.90625 C 2.785156 21.90625 2.578125 21.703125 2.578125 21.457031 L 2.578125 12.046875 C 2.726562 12.101562 2.878906 12.128906 3.042969 12.128906 L 3.921875 12.128906 C 4.632812 12.128906 5.210938 11.574219 5.210938 10.890625 L 5.210938 9.625 C 5.210938 9.464844 5.179688 9.3125 5.121094 9.175781 L 9.648438 9.175781 L 9.648438 9.625 C 9.648438 9.84375 9.835938 10.015625 10.058594 10.015625 C 10.285156 10.015625 10.464844 9.839844 10.464844 9.625 L 10.464844 9.175781 L 17.539062 9.175781 L 17.539062 13.851562 Z M 17.535156 8.378906 L 10.460938 8.378906 L 10.460938 7.480469 L 17.535156 7.480469 Z M 25.425781 13.847656 C 25.425781 14.09375 25.21875 14.296875 24.960938 14.296875 L 18.824219 14.296875 C 18.566406 14.296875 18.359375 14.09375 18.359375 13.847656 L 18.359375 9.171875 L 22.886719 9.171875 C 22.828125 9.3125 22.796875 9.460938 22.796875 9.621094 L 22.796875 10.886719 C 22.796875 11.570312 23.375 12.125 24.085938 12.125 L 24.964844 12.125 C 25.128906 12.125 25.28125 12.097656 25.429688 12.042969 L 25.429688 13.84375 Z M 25.425781 10.886719 C 25.425781 11.136719 25.21875 11.335938 24.960938 11.335938 L 24.082031 11.335938 C 23.824219 11.335938 23.613281 11.136719 23.613281 10.886719 L 23.613281 9.621094 C 23.613281 9.371094 23.824219 9.171875 24.082031 9.171875 L 24.960938 9.171875 C 25.21875 9.171875 25.425781 9.371094 25.425781 9.621094 Z M 27.175781 13.421875 C 27.175781 13.4375 27.164062 13.449219 27.152344 13.449219 L 26.246094 13.449219 L 26.246094 7.476562 L 27.175781 7.476562 Z M 27.175781 6.6875 L 24.960938 6.6875 C 24.730469 6.6875 24.550781 6.863281 24.550781 7.078125 C 24.550781 7.300781 24.734375 7.472656 24.960938 7.472656 L 25.425781 7.472656 L 25.425781 8.371094 L 18.355469 8.371094 L 18.355469 7.472656 L 23.203125 7.472656 C 23.429688 7.472656 23.609375 7.296875 23.609375 7.078125 C 23.609375 6.859375 23.425781 6.683594 23.203125 6.683594 L 0.820312 6.683594 L 0.820312 5.808594 C 0.820312 5.792969 0.832031 5.785156 0.84375 5.785156 L 27.148438 5.785156 C 27.164062 5.785156 27.171875 5.792969 27.171875 5.808594 L 27.171875 6.683594 Z M 27.175781 6.6875 "/>
</g>
</svg>
