<?xml version="1.0" encoding="UTF-8"?>
<svg xmlns="http://www.w3.org/2000/svg" xmlns:xlink="http://www.w3.org/1999/xlink" width="28px" height="28px" viewBox="0 0 28 28" version="1.1">
<g id="surface1">
<path style=" stroke:none;fill-rule:nonzero;fill:rgb(92.941176%,41.176471%,36.078431%);fill-opacity:1;" d="M 26.609375 10.632812 L 26.054688 10.632812 L 26.054688 8.640625 C 26.054688 7.460938 25.058594 6.503906 23.84375 6.503906 L 15.808594 6.503906 C 15.066406 6.503906 14.40625 6.863281 14 7.40625 C 13.597656 6.863281 12.941406 6.503906 12.191406 6.503906 L 7.144531 6.503906 C 6.917969 6.503906 6.734375 6.679688 6.734375 6.902344 C 6.734375 7.121094 6.917969 7.296875 7.144531 7.296875 L 12.191406 7.296875 C 12.960938 7.296875 13.589844 7.898438 13.589844 8.644531 L 13.589844 12.597656 C 13.578125 12.589844 13.570312 12.585938 13.5625 12.574219 C 13.078125 12.136719 12.421875 11.886719 11.757812 11.886719 L 4.925781 11.886719 C 4.890625 11.359375 4.515625 10.890625 3.996094 10.710938 C 3.851562 10.664062 3.691406 10.636719 3.539062 10.636719 L 2.765625 10.636719 L 2.765625 8.644531 C 2.765625 7.902344 3.390625 7.296875 4.164062 7.296875 L 5.511719 7.296875 C 5.738281 7.296875 5.921875 7.121094 5.921875 6.902344 C 5.921875 6.679688 5.738281 6.503906 5.511719 6.503906 L 4.164062 6.503906 C 2.941406 6.503906 1.949219 7.464844 1.949219 8.640625 L 1.949219 10.632812 L 1.394531 10.632812 C 0.632812 10.632812 0.0078125 11.234375 0.0078125 11.96875 L 0.0078125 16.101562 C 0.0078125 17.636719 1.304688 18.886719 2.894531 18.886719 L 3.101562 18.886719 C 3.101562 18.886719 2.652344 20.050781 2.652344 20.050781 C 2.371094 20.785156 2.953125 21.59375 3.761719 21.59375 L 4.421875 21.59375 C 4.792969 21.59375 5.144531 21.425781 5.367188 21.140625 L 7.136719 18.886719 L 20.871094 18.886719 L 22.636719 21.140625 C 22.859375 21.421875 23.214844 21.59375 23.585938 21.59375 C 23.585938 21.59375 24.242188 21.59375 24.242188 21.59375 C 25.054688 21.59375 25.640625 20.785156 25.351562 20.050781 L 24.902344 18.886719 L 25.109375 18.886719 C 26.703125 18.886719 27.996094 17.632812 27.996094 16.101562 L 27.996094 11.96875 C 27.996094 11.234375 27.375 10.632812 26.609375 10.632812 Z M 14.410156 8.640625 C 14.410156 7.898438 15.035156 7.292969 15.808594 7.292969 L 23.84375 7.292969 C 24.609375 7.292969 25.238281 7.894531 25.238281 8.640625 L 25.238281 10.632812 C 25.238281 10.632812 24.464844 10.632812 24.464844 10.632812 C 23.921875 10.632812 23.394531 10.96875 23.1875 11.453125 C 23.128906 11.585938 23.09375 11.734375 23.085938 11.882812 C 23.085938 11.882812 16.253906 11.882812 16.253906 11.882812 C 15.578125 11.882812 14.90625 12.144531 14.417969 12.59375 L 14.417969 8.640625 Z M 4.925781 12.675781 L 11.757812 12.675781 C 12.765625 12.675781 13.59375 13.46875 13.59375 14.449219 L 13.59375 15.011719 L 4.929688 15.011719 L 4.929688 12.679688 Z M 4.710938 20.667969 C 4.644531 20.753906 4.535156 20.804688 4.421875 20.804688 C 4.421875 20.804688 3.761719 20.804688 3.761719 20.804688 C 3.507812 20.804688 3.332031 20.558594 3.421875 20.332031 L 3.976562 18.890625 L 6.105469 18.890625 Z M 24.242188 20.804688 L 23.585938 20.804688 C 23.46875 20.804688 23.363281 20.753906 23.292969 20.667969 L 21.898438 18.890625 L 24.03125 18.890625 C 24.03125 18.890625 24.585938 20.328125 24.585938 20.332031 C 24.675781 20.5625 24.492188 20.808594 24.242188 20.808594 Z M 25.109375 18.097656 L 2.894531 18.097656 C 1.753906 18.097656 0.824219 17.203125 0.824219 16.101562 L 0.824219 11.96875 C 0.824219 11.667969 1.078125 11.417969 1.390625 11.417969 L 3.539062 11.417969 C 3.851562 11.417969 4.101562 11.664062 4.101562 11.96875 L 4.101562 15.398438 C 4.101562 15.617188 4.285156 15.792969 4.515625 15.792969 L 19.578125 15.792969 C 19.804688 15.792969 19.988281 15.617188 19.988281 15.398438 C 19.988281 15.179688 19.804688 15 19.578125 15 L 14.410156 15 L 14.410156 14.4375 C 14.410156 13.464844 15.234375 12.667969 16.25 12.667969 L 23.078125 12.667969 L 23.078125 14.996094 L 21.222656 14.996094 C 20.992188 14.996094 20.8125 15.171875 20.8125 15.394531 C 20.8125 15.613281 20.992188 15.789062 21.222656 15.789062 L 23.484375 15.789062 C 23.714844 15.789062 23.898438 15.613281 23.898438 15.394531 L 23.898438 11.964844 C 23.898438 11.664062 24.148438 11.414062 24.464844 11.414062 L 26.617188 11.414062 C 26.929688 11.414062 27.183594 11.660156 27.183594 11.964844 L 27.183594 16.09375 C 27.183594 17.195312 26.257812 18.09375 25.113281 18.09375 Z M 25.109375 18.097656 "/>
</g>
</svg>
