<?xml version="1.0" encoding="UTF-8"?>
<svg xmlns="http://www.w3.org/2000/svg" xmlns:xlink="http://www.w3.org/1999/xlink" width="28px" height="28px" viewBox="0 0 28 15" version="1.1">
<g id="surface1">
<path style=" stroke:none;fill-rule:nonzero;fill:rgb(92.941176%,41.176471%,36.078431%);fill-opacity:1;" d="M 26.609375 4.132812 L 26.054688 4.132812 L 26.054688 2.140625 C 26.054688 0.960938 25.058594 0.00390625 23.84375 0.00390625 L 15.808594 0.00390625 C 15.066406 0.00390625 14.40625 0.363281 14 0.90625 C 13.597656 0.363281 12.941406 0.00390625 12.191406 0.00390625 L 7.144531 0.00390625 C 6.917969 0.00390625 6.734375 0.179688 6.734375 0.402344 C 6.734375 0.621094 6.917969 0.796875 7.144531 0.796875 L 12.191406 0.796875 C 12.960938 0.796875 13.589844 1.398438 13.589844 2.144531 L 13.589844 6.097656 C 13.578125 6.089844 13.570312 6.085938 13.5625 6.074219 C 13.078125 5.636719 12.421875 5.386719 11.757812 5.386719 L 4.925781 5.386719 C 4.890625 4.859375 4.515625 4.390625 3.996094 4.210938 C 3.851562 4.164062 3.691406 4.136719 3.539062 4.136719 L 2.765625 4.136719 L 2.765625 2.144531 C 2.765625 1.402344 3.390625 0.796875 4.164062 0.796875 L 5.511719 0.796875 C 5.738281 0.796875 5.921875 0.621094 5.921875 0.402344 C 5.921875 0.179688 5.738281 0.00390625 5.511719 0.00390625 L 4.164062 0.00390625 C 2.941406 0.00390625 1.949219 0.964844 1.949219 2.140625 L 1.949219 4.132812 L 1.394531 4.132812 C 0.632812 4.132812 0.0078125 4.734375 0.0078125 5.46875 L 0.0078125 9.601562 C 0.0078125 11.136719 1.304688 12.386719 2.894531 12.386719 L 3.101562 12.386719 C 3.101562 12.386719 2.652344 13.550781 2.652344 13.550781 C 2.371094 14.285156 2.953125 15.09375 3.761719 15.09375 L 4.421875 15.09375 C 4.792969 15.09375 5.144531 14.925781 5.367188 14.640625 L 7.136719 12.386719 L 20.871094 12.386719 L 22.636719 14.640625 C 22.859375 14.921875 23.214844 15.09375 23.585938 15.09375 C 23.585938 15.09375 24.242188 15.09375 24.242188 15.09375 C 25.054688 15.09375 25.640625 14.285156 25.351562 13.550781 L 24.902344 12.386719 L 25.109375 12.386719 C 26.703125 12.386719 27.996094 11.132812 27.996094 9.601562 L 27.996094 5.46875 C 27.996094 4.734375 27.375 4.132812 26.609375 4.132812 Z M 14.410156 2.140625 C 14.410156 1.398438 15.035156 0.792969 15.808594 0.792969 L 23.84375 0.792969 C 24.609375 0.792969 25.238281 1.394531 25.238281 2.140625 L 25.238281 4.132812 C 25.238281 4.132812 24.464844 4.132812 24.464844 4.132812 C 23.921875 4.132812 23.394531 4.46875 23.1875 4.953125 C 23.128906 5.085938 23.09375 5.234375 23.085938 5.382812 C 23.085938 5.382812 16.253906 5.382812 16.253906 5.382812 C 15.578125 5.382812 14.90625 5.644531 14.417969 6.09375 L 14.417969 2.140625 Z M 4.925781 6.175781 L 11.757812 6.175781 C 12.765625 6.175781 13.59375 6.96875 13.59375 7.949219 L 13.59375 8.511719 L 4.929688 8.511719 L 4.929688 6.179688 Z M 4.710938 14.167969 C 4.644531 14.253906 4.535156 14.304688 4.421875 14.304688 C 4.421875 14.304688 3.761719 14.304688 3.761719 14.304688 C 3.507812 14.304688 3.332031 14.058594 3.421875 13.832031 L 3.976562 12.390625 L 6.105469 12.390625 Z M 24.242188 14.304688 L 23.585938 14.304688 C 23.46875 14.304688 23.363281 14.253906 23.292969 14.167969 L 21.898438 12.390625 L 24.03125 12.390625 C 24.03125 12.390625 24.585938 13.828125 24.585938 13.832031 C 24.675781 14.0625 24.492188 14.308594 24.242188 14.308594 Z M 25.109375 11.597656 L 2.894531 11.597656 C 1.753906 11.597656 0.824219 10.703125 0.824219 9.601562 L 0.824219 5.46875 C 0.824219 5.167969 1.078125 4.917969 1.390625 4.917969 L 3.539062 4.917969 C 3.851562 4.917969 4.101562 5.164062 4.101562 5.46875 L 4.101562 8.898438 C 4.101562 9.117188 4.285156 9.292969 4.515625 9.292969 L 19.578125 9.292969 C 19.804688 9.292969 19.988281 9.117188 19.988281 8.898438 C 19.988281 8.679688 19.804688 8.5 19.578125 8.5 L 14.410156 8.5 L 14.410156 7.9375 C 14.410156 6.964844 15.234375 6.167969 16.25 6.167969 L 23.078125 6.167969 L 23.078125 8.496094 L 21.222656 8.496094 C 20.992188 8.496094 20.8125 8.671875 20.8125 8.894531 C 20.8125 9.113281 20.992188 9.289062 21.222656 9.289062 L 23.484375 9.289062 C 23.714844 9.289062 23.898438 9.113281 23.898438 8.894531 L 23.898438 5.464844 C 23.898438 5.164062 24.148438 4.914062 24.464844 4.914062 L 26.617188 4.914062 C 26.929688 4.914062 27.183594 5.160156 27.183594 5.464844 L 27.183594 9.59375 C 27.183594 10.695312 26.257812 11.59375 25.113281 11.59375 Z M 25.109375 11.597656 "/>
</g>
</svg>
