<?xml version="1.0" encoding="UTF-8"?>
<svg xmlns="http://www.w3.org/2000/svg" xmlns:xlink="http://www.w3.org/1999/xlink" width="28px" height="28px" viewBox="0 0 28 28" version="1.1">
<g id="surface1">
<path style=" stroke:none;fill-rule:nonzero;fill:rgb(92.941176%,41.176471%,36.078431%);fill-opacity:1;" d="M 26.90625 17.164062 L 18.355469 17.164062 L 17.519531 15.769531 L 25.976562 15.769531 C 26.488281 15.769531 26.90625 15.355469 26.90625 14.839844 L 26.90625 0.921875 C 26.90625 0.414062 26.492188 -0.0078125 25.976562 -0.0078125 L 1.855469 -0.0078125 C 1.34375 -0.0078125 0.925781 0.40625 0.925781 0.921875 L 0.925781 14.839844 C 0.925781 15.351562 1.339844 15.769531 1.855469 15.769531 L 10.3125 15.769531 L 9.480469 17.164062 L 0.925781 17.164062 C 0.417969 17.164062 -0.00390625 17.578125 -0.00390625 18.09375 L -0.00390625 24.585938 C -0.00390625 25.097656 0.410156 25.515625 0.925781 25.515625 L 2.421875 25.515625 L 1.457031 27.128906 C 1.363281 27.273438 1.359375 27.453125 1.441406 27.601562 C 1.519531 27.75 1.675781 27.839844 1.84375 27.839844 C 2.011719 27.839844 2.164062 27.757812 2.25 27.609375 L 3.507812 25.515625 L 24.320312 25.515625 L 25.578125 27.609375 C 25.660156 27.75 25.816406 27.839844 25.984375 27.839844 C 26.152344 27.839844 26.304688 27.742188 26.382812 27.601562 C 26.460938 27.453125 26.460938 27.273438 26.371094 27.128906 L 25.402344 25.515625 L 26.902344 25.515625 C 27.410156 25.515625 27.828125 25.101562 27.828125 24.585938 L 27.828125 18.09375 C 27.828125 17.582031 27.417969 17.164062 26.902344 17.164062 Z M 9.277344 21.804688 L 18.554688 21.804688 L 18.554688 24.585938 L 9.277344 24.585938 Z M 18.554688 20.875 L 9.277344 20.875 L 9.277344 18.09375 L 18.554688 18.09375 Z M 1.855469 0.929688 L 25.976562 0.929688 L 25.976562 14.847656 L 1.855469 14.847656 Z M 11.394531 15.769531 L 16.4375 15.769531 L 17.269531 17.164062 L 10.558594 17.164062 L 11.390625 15.769531 Z M 0.925781 18.085938 L 8.347656 18.085938 L 8.347656 24.582031 L 0.925781 24.582031 Z M 19.476562 24.582031 L 19.476562 18.085938 L 26.902344 18.085938 L 26.902344 24.582031 Z M 19.476562 24.582031 "/>
<path style=" stroke:none;fill-rule:nonzero;fill:rgb(92.941176%,41.176471%,36.078431%);fill-opacity:1;" d="M 6.03125 19.015625 L 3.25 19.015625 C 2.992188 19.015625 2.785156 19.222656 2.785156 19.480469 C 2.785156 19.738281 2.992188 19.945312 3.25 19.945312 L 6.03125 19.945312 C 6.289062 19.945312 6.496094 19.738281 6.496094 19.480469 C 6.496094 19.222656 6.289062 19.015625 6.03125 19.015625 Z M 6.03125 19.015625 "/>
<path style=" stroke:none;fill-rule:nonzero;fill:rgb(92.941176%,41.176471%,36.078431%);fill-opacity:1;" d="M 24.582031 19.015625 L 21.800781 19.015625 C 21.542969 19.015625 21.335938 19.222656 21.335938 19.480469 C 21.335938 19.738281 21.542969 19.945312 21.800781 19.945312 L 24.582031 19.945312 C 24.839844 19.945312 25.046875 19.738281 25.046875 19.480469 C 25.046875 19.222656 24.839844 19.015625 24.582031 19.015625 Z M 24.582031 19.015625 "/>
<path style=" stroke:none;fill-rule:nonzero;fill:rgb(92.941176%,41.176471%,36.078431%);fill-opacity:1;" d="M 3.25 3.246094 C 3.371094 3.246094 3.488281 3.195312 3.578125 3.109375 L 4.042969 2.648438 C 4.21875 2.464844 4.21875 2.175781 4.039062 1.996094 C 3.855469 1.8125 3.566406 1.8125 3.386719 1.988281 L 2.921875 2.453125 C 2.785156 2.589844 2.746094 2.78125 2.816406 2.957031 C 2.886719 3.128906 3.054688 3.242188 3.242188 3.242188 Z M 3.25 3.246094 "/>
<path style=" stroke:none;fill-rule:nonzero;fill:rgb(92.941176%,41.176471%,36.078431%);fill-opacity:1;" d="M 6.167969 1.988281 L 2.921875 5.234375 C 2.796875 5.351562 2.753906 5.523438 2.792969 5.6875 C 2.835938 5.847656 2.960938 5.976562 3.121094 6.015625 C 3.28125 6.0625 3.457031 6.007812 3.574219 5.886719 L 6.820312 2.640625 C 6.941406 2.523438 6.988281 2.347656 6.949219 2.1875 C 6.902344 2.027344 6.78125 1.898438 6.621094 1.859375 C 6.457031 1.8125 6.285156 1.867188 6.167969 1.988281 Z M 6.167969 1.988281 "/>
</g>
</svg>
