<?xml version="1.0" encoding="UTF-8"?>
<svg xmlns="http://www.w3.org/2000/svg" xmlns:xlink="http://www.w3.org/1999/xlink" width="28px" height="28px" viewBox="0 0 28 25" version="1.1">
<g id="surface1">
<path style=" stroke:none;fill-rule:nonzero;fill:rgb(92.941176%,41.176471%,36.078431%);fill-opacity:1;" d="M 27.425781 21.359375 L 25.289062 21.359375 L 25.289062 6.535156 L 26.105469 6.535156 C 26.332031 6.535156 26.515625 6.355469 26.515625 6.132812 L 26.515625 3.933594 L 27.433594 3.933594 C 27.664062 3.933594 27.847656 3.753906 27.847656 3.53125 L 27.847656 0.394531 C 27.847656 0.171875 27.664062 -0.0078125 27.433594 -0.0078125 L 12.726562 -0.0078125 C 12.5 -0.0078125 12.316406 0.171875 12.316406 0.394531 C 12.316406 0.617188 12.5 0.796875 12.726562 0.796875 L 27.023438 0.796875 L 27.023438 3.136719 C 26.28125 3.136719 8.742188 3.136719 7.789062 3.136719 C 7.5625 3.136719 7.378906 3.316406 7.378906 3.539062 C 7.378906 3.757812 7.5625 3.9375 7.789062 3.9375 C 8.832031 3.9375 25.003906 3.9375 25.695312 3.9375 L 25.695312 5.746094 C 24.496094 5.746094 3.109375 5.746094 2.140625 5.746094 L 2.140625 3.9375 L 6.15625 3.9375 C 6.386719 3.9375 6.570312 3.757812 6.570312 3.539062 C 6.570312 3.316406 6.386719 3.136719 6.15625 3.136719 C 5.59375 3.136719 1.890625 3.136719 1.324219 3.136719 L 0.816406 3.136719 L 0.816406 0.796875 L 11.085938 0.796875 C 11.316406 0.796875 11.5 0.617188 11.5 0.394531 C 11.5 0.171875 11.316406 -0.0078125 11.085938 -0.0078125 L 0.40625 -0.0078125 C 0.175781 -0.0078125 -0.0078125 0.171875 -0.0078125 0.394531 L -0.0078125 3.53125 C -0.0078125 3.753906 0.175781 3.933594 0.40625 3.933594 L 1.324219 3.933594 L 1.324219 6.132812 C 1.324219 6.355469 1.507812 6.535156 1.734375 6.535156 C 1.808594 6.535156 2.34375 6.535156 2.550781 6.535156 L 2.550781 21.359375 L 0.414062 21.359375 C 0.183594 21.359375 0 21.539062 0 21.761719 L 0 24.898438 C 0 25.121094 0.183594 25.300781 0.414062 25.300781 L 6.15625 25.300781 C 6.386719 25.300781 6.570312 25.121094 6.570312 24.898438 C 6.570312 24.675781 6.386719 24.496094 6.15625 24.496094 L 0.816406 24.496094 L 0.816406 22.15625 C 3.828125 22.15625 5.769531 22.15625 11.085938 22.15625 C 11.316406 22.15625 11.5 21.976562 11.5 21.753906 C 11.5 21.53125 11.316406 21.351562 11.085938 21.351562 L 7.523438 21.351562 L 7.523438 9.957031 L 20.308594 9.957031 L 20.308594 21.351562 L 12.71875 21.351562 C 12.492188 21.351562 12.308594 21.53125 12.308594 21.753906 C 12.308594 21.976562 12.492188 22.15625 12.71875 22.15625 C 13.460938 22.15625 26.503906 22.15625 27.015625 22.15625 L 27.015625 24.496094 L 7.78125 24.496094 C 7.554688 24.496094 7.371094 24.675781 7.371094 24.898438 C 7.371094 25.121094 7.554688 25.300781 7.78125 25.300781 L 27.421875 25.300781 C 27.648438 25.300781 27.832031 25.121094 27.832031 24.898438 L 27.832031 21.761719 C 27.832031 21.539062 27.648438 21.359375 27.421875 21.359375 Z M 24.472656 21.359375 L 21.132812 21.359375 L 21.132812 9.5625 C 21.132812 9.34375 20.949219 9.164062 20.71875 9.164062 L 7.121094 9.164062 C 6.890625 9.164062 6.707031 9.34375 6.707031 9.5625 L 6.707031 21.359375 L 3.367188 21.359375 L 3.367188 6.535156 L 24.472656 6.535156 Z M 24.472656 21.359375 "/>
<path style=" stroke:none;fill-rule:nonzero;fill:rgb(92.941176%,41.176471%,36.078431%);fill-opacity:1;" d="M 17.683594 14.929688 C 17.625 14.746094 17.4375 14.621094 17.238281 14.652344 C 17.039062 14.679688 16.890625 14.851562 16.890625 15.046875 C 16.898438 15.597656 16.757812 15.921875 16.628906 16.109375 C 15.488281 14.265625 16.023438 11.042969 16.03125 11.011719 C 16.054688 10.863281 15.996094 10.710938 15.871094 10.625 C 15.746094 10.539062 15.578125 10.527344 15.445312 10.589844 C 13.828125 11.402344 13.027344 12.972656 12.851562 14.746094 C 12.769531 14.308594 12.71875 13.746094 12.71875 13.460938 C 12.71875 13.300781 12.617188 13.152344 12.460938 13.09375 C 12.308594 13.035156 12.132812 13.074219 12.019531 13.1875 C 10.660156 14.535156 10.765625 15.742188 11.085938 16.550781 C 10.835938 16.402344 10.59375 16.136719 10.46875 15.691406 C 10.351562 15.269531 9.722656 15.320312 9.667969 15.75 C 9.664062 15.792969 9.550781 16.867188 9.890625 18.058594 C 11.269531 22.886719 18.066406 21.804688 18.191406 17.601562 C 18.222656 16.660156 17.933594 15.742188 17.683594 14.929688 Z M 17.375 17.578125 C 17.273438 21.035156 11.210938 21.917969 10.523438 17.148438 C 11 17.484375 11.542969 17.578125 11.886719 17.5625 C 12.035156 17.558594 12.160156 17.476562 12.226562 17.347656 C 12.292969 17.21875 12.285156 17.078125 12.210938 16.953125 C 11.894531 16.464844 11.351562 15.628906 11.976562 14.535156 C 12.085938 15.347656 12.367188 16.460938 13.203125 16.539062 C 13.46875 16.558594 13.679688 16.34375 13.652344 16.09375 C 13.644531 16.066406 13.304688 13.265625 15.113281 11.757812 C 15.011719 13.007812 15.011719 15.320312 16.105469 16.796875 C 16.203125 16.925781 16.347656 17.011719 16.503906 17.035156 C 16.832031 17.082031 17.089844 16.847656 17.28125 16.582031 C 17.347656 16.917969 17.382812 17.25 17.371094 17.585938 Z M 17.375 17.578125 "/>
<path style=" stroke:none;fill-rule:nonzero;fill:rgb(92.941176%,41.176471%,36.078431%);fill-opacity:1;" d="M 15.621094 17.953125 C 15.339844 17.40625 15.269531 16.660156 15.28125 16.050781 C 15.28125 15.535156 14.652344 15.347656 14.355469 15.714844 C 13.777344 16.429688 13.585938 17.105469 13.550781 17.601562 C 13.386719 17.5 13.246094 17.441406 13.078125 17.441406 C 12.769531 17.441406 12.5 17.652344 12.417969 17.945312 C 12.21875 18.691406 12.511719 19.359375 13.035156 19.746094 C 13.671875 20.320312 14.980469 20.285156 15.53125 19.558594 C 15.90625 19.0625 15.898438 18.488281 15.628906 17.945312 Z M 13.578125 19.15625 C 13.484375 19.070312 13.121094 18.839844 13.175781 18.324219 C 13.484375 18.53125 13.550781 18.734375 13.859375 18.734375 C 14.179688 18.734375 14.421875 18.453125 14.371094 18.144531 C 14.3125 17.808594 14.351562 17.414062 14.511719 17.019531 C 14.660156 18.132812 14.996094 18.332031 14.996094 18.726562 C 14.996094 19.453125 13.917969 19.496094 13.570312 19.171875 Z M 13.578125 19.15625 "/>
</g>
</svg>
