<?xml version="1.0" encoding="UTF-8"?>
<svg xmlns="http://www.w3.org/2000/svg" xmlns:xlink="http://www.w3.org/1999/xlink" width="28px" height="28px" viewBox="0 0 28 28" version="1.1">
<g id="surface1">
<path style=" stroke:none;fill-rule:nonzero;fill:rgb(92.941176%,41.176471%,36.078431%);fill-opacity:1;" d="M 27.425781 22.859375 L 25.289062 22.859375 L 25.289062 8.035156 L 26.105469 8.035156 C 26.332031 8.035156 26.515625 7.855469 26.515625 7.632812 L 26.515625 5.433594 L 27.433594 5.433594 C 27.664062 5.433594 27.847656 5.253906 27.847656 5.03125 L 27.847656 1.894531 C 27.847656 1.671875 27.664062 1.492188 27.433594 1.492188 L 12.726562 1.492188 C 12.5 1.492188 12.316406 1.671875 12.316406 1.894531 C 12.316406 2.117188 12.5 2.296875 12.726562 2.296875 L 27.023438 2.296875 L 27.023438 4.636719 C 26.28125 4.636719 8.742188 4.636719 7.789062 4.636719 C 7.5625 4.636719 7.378906 4.816406 7.378906 5.039062 C 7.378906 5.257812 7.5625 5.4375 7.789062 5.4375 C 8.832031 5.4375 25.003906 5.4375 25.695312 5.4375 L 25.695312 7.246094 C 24.496094 7.246094 3.109375 7.246094 2.140625 7.246094 L 2.140625 5.4375 L 6.15625 5.4375 C 6.386719 5.4375 6.570312 5.257812 6.570312 5.039062 C 6.570312 4.816406 6.386719 4.636719 6.15625 4.636719 C 5.59375 4.636719 1.890625 4.636719 1.324219 4.636719 L 0.816406 4.636719 L 0.816406 2.296875 L 11.085938 2.296875 C 11.316406 2.296875 11.5 2.117188 11.5 1.894531 C 11.5 1.671875 11.316406 1.492188 11.085938 1.492188 L 0.40625 1.492188 C 0.175781 1.492188 -0.0078125 1.671875 -0.0078125 1.894531 L -0.0078125 5.03125 C -0.0078125 5.253906 0.175781 5.433594 0.40625 5.433594 L 1.324219 5.433594 L 1.324219 7.632812 C 1.324219 7.855469 1.507812 8.035156 1.734375 8.035156 C 1.808594 8.035156 2.34375 8.035156 2.550781 8.035156 L 2.550781 22.859375 L 0.414062 22.859375 C 0.183594 22.859375 0 23.039062 0 23.261719 L 0 26.398438 C 0 26.621094 0.183594 26.800781 0.414062 26.800781 L 6.15625 26.800781 C 6.386719 26.800781 6.570312 26.621094 6.570312 26.398438 C 6.570312 26.175781 6.386719 25.996094 6.15625 25.996094 L 0.816406 25.996094 L 0.816406 23.65625 C 3.828125 23.65625 5.769531 23.65625 11.085938 23.65625 C 11.316406 23.65625 11.5 23.476562 11.5 23.253906 C 11.5 23.03125 11.316406 22.851562 11.085938 22.851562 L 7.523438 22.851562 L 7.523438 11.457031 L 20.308594 11.457031 L 20.308594 22.851562 L 12.71875 22.851562 C 12.492188 22.851562 12.308594 23.03125 12.308594 23.253906 C 12.308594 23.476562 12.492188 23.65625 12.71875 23.65625 C 13.460938 23.65625 26.503906 23.65625 27.015625 23.65625 L 27.015625 25.996094 L 7.78125 25.996094 C 7.554688 25.996094 7.371094 26.175781 7.371094 26.398438 C 7.371094 26.621094 7.554688 26.800781 7.78125 26.800781 L 27.421875 26.800781 C 27.648438 26.800781 27.832031 26.621094 27.832031 26.398438 L 27.832031 23.261719 C 27.832031 23.039062 27.648438 22.859375 27.421875 22.859375 Z M 24.472656 22.859375 L 21.132812 22.859375 L 21.132812 11.0625 C 21.132812 10.84375 20.949219 10.664062 20.71875 10.664062 L 7.121094 10.664062 C 6.890625 10.664062 6.707031 10.84375 6.707031 11.0625 L 6.707031 22.859375 L 3.367188 22.859375 L 3.367188 8.035156 L 24.472656 8.035156 Z M 24.472656 22.859375 "/>
<path style=" stroke:none;fill-rule:nonzero;fill:rgb(92.941176%,41.176471%,36.078431%);fill-opacity:1;" d="M 17.683594 16.429688 C 17.625 16.246094 17.4375 16.121094 17.238281 16.152344 C 17.039062 16.179688 16.890625 16.351562 16.890625 16.546875 C 16.898438 17.097656 16.757812 17.421875 16.628906 17.609375 C 15.488281 15.765625 16.023438 12.542969 16.03125 12.511719 C 16.054688 12.363281 15.996094 12.210938 15.871094 12.125 C 15.746094 12.039062 15.578125 12.027344 15.445312 12.089844 C 13.828125 12.902344 13.027344 14.472656 12.851562 16.246094 C 12.769531 15.808594 12.71875 15.246094 12.71875 14.960938 C 12.71875 14.800781 12.617188 14.652344 12.460938 14.59375 C 12.308594 14.535156 12.132812 14.574219 12.019531 14.6875 C 10.660156 16.035156 10.765625 17.242188 11.085938 18.050781 C 10.835938 17.902344 10.59375 17.636719 10.46875 17.191406 C 10.351562 16.769531 9.722656 16.820312 9.667969 17.25 C 9.664062 17.292969 9.550781 18.367188 9.890625 19.558594 C 11.269531 24.386719 18.066406 23.304688 18.191406 19.101562 C 18.222656 18.160156 17.933594 17.242188 17.683594 16.429688 Z M 17.375 19.078125 C 17.273438 22.535156 11.210938 23.417969 10.523438 18.648438 C 11 18.984375 11.542969 19.078125 11.886719 19.0625 C 12.035156 19.058594 12.160156 18.976562 12.226562 18.847656 C 12.292969 18.71875 12.285156 18.578125 12.210938 18.453125 C 11.894531 17.964844 11.351562 17.128906 11.976562 16.035156 C 12.085938 16.847656 12.367188 17.960938 13.203125 18.039062 C 13.46875 18.058594 13.679688 17.84375 13.652344 17.59375 C 13.644531 17.566406 13.304688 14.765625 15.113281 13.257812 C 15.011719 14.507812 15.011719 16.820312 16.105469 18.296875 C 16.203125 18.425781 16.347656 18.511719 16.503906 18.535156 C 16.832031 18.582031 17.089844 18.347656 17.28125 18.082031 C 17.347656 18.417969 17.382812 18.75 17.371094 19.085938 Z M 17.375 19.078125 "/>
<path style=" stroke:none;fill-rule:nonzero;fill:rgb(92.941176%,41.176471%,36.078431%);fill-opacity:1;" d="M 15.621094 19.453125 C 15.339844 18.90625 15.269531 18.160156 15.28125 17.550781 C 15.28125 17.035156 14.652344 16.847656 14.355469 17.214844 C 13.777344 17.929688 13.585938 18.605469 13.550781 19.101562 C 13.386719 19 13.246094 18.941406 13.078125 18.941406 C 12.769531 18.941406 12.5 19.152344 12.417969 19.445312 C 12.21875 20.191406 12.511719 20.859375 13.035156 21.246094 C 13.671875 21.820312 14.980469 21.785156 15.53125 21.058594 C 15.90625 20.5625 15.898438 19.988281 15.628906 19.445312 Z M 13.578125 20.65625 C 13.484375 20.570312 13.121094 20.339844 13.175781 19.824219 C 13.484375 20.03125 13.550781 20.234375 13.859375 20.234375 C 14.179688 20.234375 14.421875 19.953125 14.371094 19.644531 C 14.3125 19.308594 14.351562 18.914062 14.511719 18.519531 C 14.660156 19.632812 14.996094 19.832031 14.996094 20.226562 C 14.996094 20.953125 13.917969 20.996094 13.570312 20.671875 Z M 13.578125 20.65625 "/>
</g>
</svg>
