<?xml version="1.0" encoding="UTF-8"?>
<svg xmlns="http://www.w3.org/2000/svg" xmlns:xlink="http://www.w3.org/1999/xlink" width="28px" height="28px" viewBox="0 0 28 28" version="1.1">
<g id="surface1">
<path style="fill-rule:nonzero;fill:rgb(92.941176%,41.176471%,36.078431%);fill-opacity:1;stroke-width:0.69;stroke-linecap:butt;stroke-linejoin:miter;stroke:rgb(92.941176%,41.176471%,36.078431%);stroke-opacity:1;stroke-miterlimit:22.9256;" d="M 38.169523 0.341734 C 37.698536 0.341734 37.430336 0.712097 37.430336 1.176734 L 37.430336 8.772538 L 31.47105 8.772538 C 31.000063 8.772538 30.679531 9.183304 30.679531 9.647941 L 30.679531 16.361609 L 23.837145 16.361609 C 23.3727 16.361609 23.091417 16.718504 23.091417 17.189874 L 23.091417 23.937211 L 16.301363 23.937211 C 15.830376 23.937211 15.509844 24.307574 15.509844 24.778945 L 15.509844 31.533015 L 8.667458 31.533015 C 8.203013 31.533015 7.928271 31.937047 7.928271 32.408418 L 7.928271 39.122085 L 0.35324 39.122085 L 0.35324 40.812286 L 8.680541 40.812286 C 9.151527 40.812286 9.622514 40.468859 9.622514 39.997488 L 9.622514 33.223216 L 16.307904 33.223216 C 16.778891 33.223216 17.197545 32.879789 17.197545 32.408418 L 17.197545 25.627412 L 23.837145 25.627412 C 24.308131 25.627412 24.779118 25.250315 24.779118 24.778945 L 24.779118 18.05181 L 31.47105 18.05181 C 31.942036 18.05181 32.367232 17.661245 32.367232 17.189874 L 32.367232 10.462739 L 38.169523 10.462739 C 38.640509 10.462739 39.111496 10.119312 39.111496 9.647941 L 39.111496 2.031936 L 45.849218 2.031936 L 45.849218 0.341734 Z M 38.169523 0.341734 " transform="matrix(0.597151,0,0,0.58009,0,2.000982)"/>
<path style="fill-rule:nonzero;fill:rgb(92.941176%,41.176471%,36.078431%);fill-opacity:1;stroke-width:0.69;stroke-linecap:butt;stroke-linejoin:miter;stroke:rgb(92.941176%,41.176471%,36.078431%);stroke-opacity:1;stroke-miterlimit:22.9256;" d="M 38.169523 23.937211 L 33.112961 23.937211 C 32.641974 23.937211 32.26911 24.321042 32.26911 24.778945 C 32.26911 25.250315 32.648516 25.620678 33.112961 25.620678 L 35.72301 25.620678 L 30.816902 30.509467 C 30.489828 30.839427 30.489828 31.371402 30.816902 31.701362 C 30.980439 31.862975 31.202849 31.950515 31.418718 31.950515 C 31.641128 31.950515 31.902787 31.869709 32.059783 31.701362 L 37.410711 26.401807 L 37.410711 29.829346 C 37.410711 30.300717 37.790117 30.67108 38.248021 30.67108 C 38.719007 30.67108 39.091871 30.287249 39.091871 29.829346 L 39.091871 24.772211 C 39.091871 24.30084 38.620885 23.930477 38.149898 23.930477 Z M 38.169523 23.937211 " transform="matrix(0.597151,0,0,0.58009,0,2.000982)"/>
</g>
</svg>
