<?xml version="1.0" encoding="UTF-8"?>
<svg xmlns="http://www.w3.org/2000/svg" xmlns:xlink="http://www.w3.org/1999/xlink" width="28px" height="28px" viewBox="0 0 28 24" version="1.1">
<g id="surface1">
<path style="fill-rule:nonzero;fill:rgb(92.941176%,41.176471%,36.078431%);fill-opacity:1;stroke-width:0.69;stroke-linecap:butt;stroke-linejoin:miter;stroke:rgb(92.941176%,41.176471%,36.078431%);stroke-opacity:1;stroke-miterlimit:22.9256;" d="M 38.169494 0.341734 C 37.698507 0.341734 37.430307 0.712097 37.430307 1.176734 L 37.430307 8.772538 L 31.471025 8.772538 C 31.000039 8.772538 30.679507 9.183304 30.679507 9.647941 L 30.679507 16.361609 L 23.837127 16.361609 C 23.372682 16.361609 23.091399 16.718504 23.091399 17.189875 L 23.091399 23.937211 L 16.30135 23.937211 C 15.830364 23.937211 15.509832 24.307574 15.509832 24.778945 L 15.509832 31.533016 L 8.667451 31.533016 C 8.203007 31.533016 7.928265 31.937048 7.928265 32.408419 L 7.928265 39.122086 L 0.35324 39.122086 L 0.35324 40.812287 L 8.680534 40.812287 C 9.15152 40.812287 9.622506 40.46886 9.622506 39.997489 L 9.622506 33.223217 L 16.307892 33.223217 C 16.778878 33.223217 17.197532 32.87979 17.197532 32.408419 L 17.197532 25.627413 L 23.837127 25.627413 C 24.308113 25.627413 24.779099 25.250316 24.779099 24.778945 L 24.779099 18.05181 L 31.471025 18.05181 C 31.942011 18.05181 32.367207 17.661246 32.367207 17.189875 L 32.367207 10.46274 L 38.169494 10.46274 C 38.64048 10.46274 39.111466 10.119312 39.111466 9.647941 L 39.111466 2.031936 L 45.849183 2.031936 L 45.849183 0.341734 Z M 38.169494 0.341734 " transform="matrix(0.597151,0,0,0.58009,0,0.000982002)"/>
<path style="fill-rule:nonzero;fill:rgb(92.941176%,41.176471%,36.078431%);fill-opacity:1;stroke-width:0.69;stroke-linecap:butt;stroke-linejoin:miter;stroke:rgb(92.941176%,41.176471%,36.078431%);stroke-opacity:1;stroke-miterlimit:22.9256;" d="M 38.169494 23.937211 L 33.112935 23.937211 C 32.641949 23.937211 32.269085 24.321042 32.269085 24.778945 C 32.269085 25.250316 32.648491 25.620679 33.112935 25.620679 L 35.722983 25.620679 L 30.816878 30.509468 C 30.489805 30.839427 30.489805 31.371403 30.816878 31.701362 C 30.980415 31.862975 31.202825 31.950516 31.418694 31.950516 C 31.641104 31.950516 31.902763 31.869709 32.059758 31.701362 L 37.410683 26.401808 L 37.410683 29.829347 C 37.410683 30.300718 37.790088 30.671081 38.247991 30.671081 C 38.718977 30.671081 39.091841 30.28725 39.091841 29.829347 L 39.091841 24.772211 C 39.091841 24.30084 38.620855 23.930478 38.149869 23.930478 Z M 38.169494 23.937211 " transform="matrix(0.597151,0,0,0.58009,0,0.000982002)"/>
</g>
</svg>
