<?xml version="1.0" encoding="UTF-8"?>
<svg xmlns="http://www.w3.org/2000/svg" xmlns:xlink="http://www.w3.org/1999/xlink" width="28px" height="28px" viewBox="0 0 28 28" version="1.1">
<g id="surface1">
<path style="fill-rule:nonzero;fill:rgb(92.941176%,41.176471%,36.078431%);fill-opacity:1;stroke-width:0.87;stroke-linecap:butt;stroke-linejoin:miter;stroke:rgb(92.941176%,41.176471%,36.078431%);stroke-opacity:1;stroke-miterlimit:22.9256;" d="M 48.323907 0.443325 C 47.72761 0.443325 47.37977 0.912227 47.37977 1.500486 L 47.37977 11.108709 L 39.84324 11.108709 C 39.246943 11.108709 38.84113 11.628763 38.84113 12.217022 L 38.84113 20.708407 L 30.178261 20.708407 C 29.590246 20.708407 29.242406 21.168783 29.242406 21.757041 L 29.242406 30.308104 L 20.63751 30.308104 C 20.049495 30.308104 19.643682 30.777006 19.643682 31.37379 L 19.643682 39.907802 L 10.980813 39.907802 C 10.392798 39.907802 10.036676 40.427857 10.036676 41.016115 L 10.036676 49.5075 L 0.437952 49.5075 L 0.437952 51.638871 L 10.989095 51.638871 C 11.57711 51.638871 12.181688 51.212597 12.181688 50.615813 L 12.181688 42.039174 L 20.654074 42.039174 C 21.242089 42.039174 21.780412 41.612899 21.780412 41.016115 L 21.780412 32.439476 L 30.186543 32.439476 C 30.782839 32.439476 31.379136 31.953523 31.379136 31.356739 L 31.379136 22.831253 L 39.84324 22.831253 C 40.431255 22.831253 40.97786 22.336774 40.97786 21.748516 L 40.97786 13.231555 L 48.323907 13.231555 C 48.911922 13.231555 49.508219 12.796755 49.508219 12.208497 L 49.508219 2.557646 L 58.04686 2.557646 L 58.04686 0.426274 L 48.323907 0.426274 Z M 48.323907 0.443325 " transform="matrix(0.471661,0,0,0.458185,0.000466412,2)"/>
<path style="fill-rule:nonzero;fill:rgb(92.941176%,41.176471%,36.078431%);fill-opacity:1;stroke-width:0.87;stroke-linecap:butt;stroke-linejoin:miter;stroke:rgb(92.941176%,41.176471%,36.078431%);stroke-opacity:1;stroke-miterlimit:22.9256;" d="M 39.909495 40.461959 L 46.311405 40.461959 C 46.89942 40.461959 47.37977 39.976006 47.37977 39.387747 C 47.37977 38.799489 46.89942 38.322062 46.311405 38.322062 L 42.998644 38.322062 L 49.201789 32.132558 C 49.615884 31.706284 49.615884 31.041296 49.201789 30.623547 C 48.986459 30.41041 48.721438 30.308104 48.448136 30.308104 C 48.183115 30.308104 47.843557 30.418936 47.628227 30.623547 L 40.853632 37.333105 L 40.853632 32.993632 C 40.853632 32.396848 40.373282 31.919421 39.776985 31.919421 C 39.18897 31.919421 38.708619 32.396848 38.708619 32.993632 L 38.708619 39.387747 C 38.708619 39.976006 39.313198 40.453433 39.901213 40.453433 Z M 39.909495 40.461959 " transform="matrix(0.471661,0,0,0.458185,0.000466412,2)"/>
</g>
</svg>
