<?xml version="1.0" encoding="UTF-8"?>
<svg xmlns="http://www.w3.org/2000/svg" xmlns:xlink="http://www.w3.org/1999/xlink" width="28px" height="28px" viewBox="0 0 28 24" version="1.1">
<g id="surface1">
<path style="fill-rule:nonzero;fill:rgb(92.941176%,41.176471%,36.078431%);fill-opacity:1;stroke-width:0.87;stroke-linecap:butt;stroke-linejoin:miter;stroke:rgb(92.941176%,41.176471%,36.078431%);stroke-opacity:1;stroke-miterlimit:22.9256;" d="M 48.323885 0.443325 C 47.727588 0.443325 47.379748 0.912227 47.379748 1.500485 L 47.379748 11.108704 L 39.843221 11.108704 C 39.246925 11.108704 38.841112 11.628759 38.841112 12.217017 L 38.841112 20.708398 L 30.178247 20.708398 C 29.590232 20.708398 29.242392 21.168774 29.242392 21.757033 L 29.242392 30.308092 L 20.6375 30.308092 C 20.049486 30.308092 19.643673 30.776994 19.643673 31.373778 L 19.643673 39.907786 L 10.980808 39.907786 C 10.392793 39.907786 10.036671 40.427841 10.036671 41.016099 L 10.036671 49.50748 L 0.437952 49.50748 L 0.437952 51.638851 L 10.98909 51.638851 C 11.577104 51.638851 12.181683 51.212577 12.181683 50.615793 L 12.181683 42.039157 L 20.654064 42.039157 C 21.242079 42.039157 21.780402 41.612883 21.780402 41.016099 L 21.780402 32.439463 L 30.186529 32.439463 C 30.782825 32.439463 31.379122 31.95351 31.379122 31.356727 L 31.379122 22.831244 L 39.843221 22.831244 C 40.431236 22.831244 40.977841 22.336766 40.977841 21.748507 L 40.977841 13.23155 L 48.323885 13.23155 C 48.9119 13.23155 49.508196 12.79675 49.508196 12.208492 L 49.508196 2.557645 L 58.046833 2.557645 L 58.046833 0.426274 L 48.323885 0.426274 Z M 48.323885 0.443325 " transform="matrix(0.471661,0,0,0.458185,0.000466412,0)"/>
<path style="fill-rule:nonzero;fill:rgb(92.941176%,41.176471%,36.078431%);fill-opacity:1;stroke-width:0.87;stroke-linecap:butt;stroke-linejoin:miter;stroke:rgb(92.941176%,41.176471%,36.078431%);stroke-opacity:1;stroke-miterlimit:22.9256;" d="M 39.909477 40.461943 L 46.311384 40.461943 C 46.899398 40.461943 47.379748 39.97599 47.379748 39.387732 C 47.379748 38.799473 46.899398 38.322046 46.311384 38.322046 L 42.998625 38.322046 L 49.201766 32.132546 C 49.615861 31.706271 49.615861 31.041284 49.201766 30.623535 C 48.986437 30.410398 48.721416 30.308092 48.448113 30.308092 C 48.183093 30.308092 47.843535 30.418923 47.628205 30.623535 L 40.853613 37.33309 L 40.853613 32.993619 C 40.853613 32.396836 40.373263 31.919409 39.776966 31.919409 C 39.188952 31.919409 38.708601 32.396836 38.708601 32.993619 L 38.708601 39.387732 C 38.708601 39.97599 39.31318 40.453417 39.901195 40.453417 Z M 39.909477 40.461943 " transform="matrix(0.471661,0,0,0.458185,0.000466412,0)"/>
</g>
</svg>
