<?xml version="1.0" encoding="UTF-8"?>
<svg xmlns="http://www.w3.org/2000/svg" xmlns:xlink="http://www.w3.org/1999/xlink" width="28px" height="28px" viewBox="0 0 28 28" version="1.1">
<g id="surface1">
<path style="fill-rule:nonzero;fill:rgb(92.941176%,41.176471%,36.078431%);fill-opacity:1;stroke-width:0.29;stroke-linecap:butt;stroke-linejoin:miter;stroke:rgb(92.941176%,41.176471%,36.078431%);stroke-opacity:1;stroke-miterlimit:22.9256;" d="M 72.857784 19.280087 L 65.165873 19.280087 L 65.165873 8.576786 C 65.165873 8.471023 65.145361 8.365259 65.124849 8.259495 L 69.914346 8.259495 C 72.150128 8.259495 73.965419 6.440357 73.965419 4.198163 C 73.965419 1.95597 72.150128 0.136832 69.914346 0.136832 L 55.945835 0.136832 C 55.094597 0.136832 54.263871 0.411818 53.556215 0.919484 L 11.476332 31.548693 C 10.994305 31.90829 10.881491 32.595755 11.240446 33.103421 C 11.599402 33.589935 12.286546 33.695699 12.789085 33.336102 L 54.858712 2.706893 C 55.176644 2.484789 55.545856 2.357873 55.945835 2.357873 L 69.914346 2.357873 C 70.929678 2.357873 71.750149 3.193407 71.750149 4.198163 C 71.750149 5.224073 70.919423 6.038454 69.914346 6.038454 L 56.909888 6.038454 C 56.684259 6.038454 56.448373 6.112489 56.263767 6.249982 L 5.292035 43.362514 C 4.974103 43.595194 4.604891 43.711535 4.204912 43.711535 C 3.61007 43.711535 3.066509 43.425972 2.717809 42.950035 C 2.122968 42.125077 2.297318 40.972251 3.128044 40.369397 L 8.7175 36.297489 C 9.209782 35.937892 9.322597 35.250427 8.963641 34.753337 C 8.604685 34.256247 7.907285 34.150483 7.415003 34.51008 L 1.815291 38.581988 C 0.0102559 39.904036 -0.389724 42.442369 0.933285 44.25093 C 1.69222 45.297992 2.922926 45.921999 4.204912 45.921999 C 5.066406 45.921999 5.897132 45.647013 6.604788 45.139347 L 8.327776 43.880757 L 8.327776 56.212821 L 3.804932 56.212821 C 2.143479 56.212821 0.789703 57.556022 0.789703 59.22709 C 0.789703 60.898159 2.143479 62.251936 3.804932 62.251936 L 4.112609 62.251936 L 4.112609 73.462903 C 4.112609 74.065757 4.604891 74.573424 5.220244 74.573424 L 72.86804 74.573424 C 73.483393 74.573424 73.975675 74.076334 73.975675 73.462903 L 73.975675 49.094914 C 73.975675 48.49206 73.493649 47.99497 72.86804 47.99497 C 72.262943 47.99497 71.760405 48.49206 71.760405 49.094914 L 71.760405 72.352383 L 6.317623 72.352383 L 6.317623 62.251936 L 22.132193 62.251936 C 22.73729 62.251936 23.239828 61.754846 23.239828 61.141416 L 23.239828 49.930449 L 39.054398 49.930449 C 39.659495 49.930449 40.162033 49.433358 40.162033 48.819928 L 40.162033 37.608961 L 55.966347 37.608961 C 56.5817 37.608961 57.084238 37.122447 57.084238 36.498441 L 57.084238 25.287473 L 71.780917 25.287473 L 71.780917 44.652833 C 71.780917 45.255687 72.283455 45.763353 72.888552 45.763353 C 73.503905 45.763353 73.996187 45.266263 73.996187 44.652833 L 73.996187 20.348302 C 73.996187 19.734872 73.514161 19.237782 72.888552 19.237782 Z M 21.014302 60.052048 L 3.804932 60.052048 C 3.353673 60.052048 2.994717 59.692451 2.994717 59.237667 C 2.994717 58.793458 3.353673 58.433861 3.804932 58.433861 L 21.014302 58.433861 Z M 21.014302 56.223397 L 10.532791 56.223397 L 10.532791 42.283723 L 26.531966 30.628547 L 26.531966 43.90191 L 20.706625 43.90191 C 19.034917 43.90191 17.691396 45.255687 17.691396 46.916179 C 17.691396 48.587248 19.045172 49.941025 20.706625 49.941025 L 21.014302 49.941025 Z M 37.915995 47.730561 L 20.706625 47.730561 C 20.255367 47.730561 19.896411 47.370964 19.896411 46.916179 C 19.896411 46.471971 20.255367 46.112374 20.706625 46.112374 L 37.915995 46.112374 Z M 37.915995 43.90191 L 28.736981 43.90191 L 28.736981 29.010361 L 44.736156 17.355185 L 44.736156 31.580422 L 37.618574 31.580422 C 35.946866 31.580422 34.603345 32.934199 34.603345 34.605268 C 34.603345 36.26576 35.957122 37.619537 37.618574 37.619537 L 37.915995 37.619537 Z M 54.827944 35.409073 L 37.618574 35.409073 C 37.167316 35.409073 36.80836 35.049476 36.80836 34.605268 C 36.80836 34.150483 37.167316 33.790886 37.618574 33.790886 L 54.827944 33.790886 Z M 54.827944 31.580422 L 46.951427 31.580422 L 46.951427 15.747575 L 57.258588 8.238342 L 63.001882 8.238342 C 62.971114 8.344106 62.950602 8.44987 62.950602 8.555634 L 62.950602 19.258934 L 54.530523 19.258934 C 52.858815 19.258934 51.505038 20.612712 51.505038 22.28378 C 51.505038 23.954849 52.858815 25.29805 54.530523 25.29805 L 54.827944 25.29805 Z M 54.530523 23.087586 C 54.079265 23.087586 53.720309 22.727988 53.720309 22.28378 C 53.720309 21.828996 54.079265 21.469399 54.530523 21.469399 L 71.739893 21.469399 L 71.739893 23.087586 Z M 54.530523 23.087586 Z M 54.530523 23.087586 " transform="matrix(0.380879,0,0,0.369337,0,0.000244175)"/>
</g>
</svg>
