<?xml version="1.0" encoding="UTF-8"?>
<svg xmlns="http://www.w3.org/2000/svg" xmlns:xlink="http://www.w3.org/1999/xlink" width="28px" height="28px" viewBox="0 0 28 28" version="1.1">
<g id="surface1">
<path style="fill-rule:nonzero;fill:rgb(92.941176%,41.176471%,36.078431%);fill-opacity:1;stroke-width:0.29;stroke-linecap:butt;stroke-linejoin:miter;stroke:rgb(92.941176%,41.176471%,36.078431%);stroke-opacity:1;stroke-miterlimit:22.9256;" d="M 72.857857 19.280095 L 65.165938 19.280095 L 65.165938 8.57679 C 65.165938 8.471026 65.145426 8.365262 65.124915 8.259498 L 69.914416 8.259498 C 72.150201 8.259498 73.965494 6.44036 73.965494 4.198165 C 73.965494 1.955971 72.150201 0.136832 69.914416 0.136832 L 55.945891 0.136832 C 55.094652 0.136832 54.263925 0.411818 53.556268 0.919485 L 11.476343 31.548706 C 10.994316 31.908304 10.881501 32.595769 11.240458 33.103436 C 11.599414 33.589949 12.286559 33.695713 12.789097 33.336116 L 54.858767 2.706894 C 55.176699 2.48479 55.545911 2.357874 55.945891 2.357874 L 69.914416 2.357874 C 70.92975 2.357874 71.750221 3.193408 71.750221 4.198165 C 71.750221 5.224075 70.919494 6.038457 69.914416 6.038457 L 56.909945 6.038457 C 56.684316 6.038457 56.44843 6.112492 56.263824 6.249985 L 5.29204 43.362533 C 4.974108 43.595213 4.604896 43.711553 4.204916 43.711553 C 3.610074 43.711553 3.066512 43.425991 2.717811 42.950053 C 2.12297 42.125095 2.29732 40.972269 3.128047 40.369415 L 8.717508 36.297505 C 9.209791 35.937908 9.322606 35.250442 8.96365 34.753352 C 8.604693 34.256262 7.907293 34.150498 7.41501 34.510095 L 1.815293 38.582005 C 0.0102559 39.904053 -0.389724 42.442387 0.933286 44.250949 C 1.692222 45.298012 2.922929 45.922019 4.204916 45.922019 C 5.066411 45.922019 5.897138 45.647033 6.604794 45.139366 L 8.327784 43.880776 L 8.327784 56.212845 L 3.804936 56.212845 C 2.143481 56.212845 0.789704 57.556046 0.789704 59.227116 C 0.789704 60.898185 2.143481 62.251963 3.804936 62.251963 L 4.112613 62.251963 L 4.112613 73.462935 C 4.112613 74.065789 4.604896 74.573456 5.220249 74.573456 L 72.868113 74.573456 C 73.483467 74.573456 73.97575 74.076365 73.97575 73.462935 L 73.97575 49.094935 C 73.97575 48.492081 73.493723 47.994991 72.868113 47.994991 C 72.263016 47.994991 71.760477 48.492081 71.760477 49.094935 L 71.760477 72.352414 L 6.31763 72.352414 L 6.31763 62.251963 L 22.132215 62.251963 C 22.737313 62.251963 23.239851 61.754873 23.239851 61.141442 L 23.239851 49.93047 L 39.054437 49.93047 C 39.659535 49.93047 40.162073 49.43338 40.162073 48.819949 L 40.162073 37.608977 L 55.966403 37.608977 C 56.581757 37.608977 57.084295 37.122463 57.084295 36.498456 L 57.084295 25.287484 L 71.780989 25.287484 L 71.780989 44.652852 C 71.780989 45.255706 72.283527 45.763373 72.888625 45.763373 C 73.503979 45.763373 73.996261 45.266283 73.996261 44.652852 L 73.996261 20.348311 C 73.996261 19.73488 73.514234 19.23779 72.888625 19.23779 Z M 21.014323 60.052074 L 3.804936 60.052074 C 3.353677 60.052074 2.99472 59.692477 2.99472 59.237692 C 2.99472 58.793484 3.353677 58.433886 3.804936 58.433886 L 21.014323 58.433886 Z M 21.014323 56.223421 L 10.532801 56.223421 L 10.532801 42.283741 L 26.531993 30.628561 L 26.531993 43.901928 L 20.706646 43.901928 C 19.034936 43.901928 17.691414 45.255706 17.691414 46.916199 C 17.691414 48.587269 19.045192 49.941046 20.706646 49.941046 L 21.014323 49.941046 Z M 37.916033 47.730581 L 20.706646 47.730581 C 20.255387 47.730581 19.896431 47.370984 19.896431 46.916199 C 19.896431 46.471991 20.255387 46.112394 20.706646 46.112394 L 37.916033 46.112394 Z M 37.916033 43.901928 L 28.73701 43.901928 L 28.73701 29.010373 L 44.736201 17.355193 L 44.736201 31.580436 L 37.618612 31.580436 C 35.946902 31.580436 34.60338 32.934213 34.60338 34.605283 C 34.60338 36.265776 35.957158 37.619554 37.618612 37.619554 L 37.916033 37.619554 Z M 54.827999 35.409088 L 37.618612 35.409088 C 37.167353 35.409088 36.808397 35.049491 36.808397 34.605283 C 36.808397 34.150498 37.167353 33.790901 37.618612 33.790901 L 54.827999 33.790901 Z M 54.827999 31.580436 L 46.951474 31.580436 L 46.951474 15.747582 L 57.258645 8.238346 L 63.001945 8.238346 C 62.971177 8.34411 62.950666 8.449873 62.950666 8.555637 L 62.950666 19.258943 L 54.530578 19.258943 C 52.858868 19.258943 51.50509 20.61272 51.50509 22.28379 C 51.50509 23.954859 52.858868 25.298061 54.530578 25.298061 L 54.827999 25.298061 Z M 54.530578 23.087595 C 54.079319 23.087595 53.720363 22.727998 53.720363 22.28379 C 53.720363 21.829005 54.079319 21.469408 54.530578 21.469408 L 71.739965 21.469408 L 71.739965 23.087595 Z M 54.530578 23.087595 Z M 54.530578 23.087595 " transform="matrix(0.380879,0,0,0.369337,0,0.000244175)"/>
</g>
</svg>
