<?xml version="1.0" encoding="UTF-8"?>
<svg xmlns="http://www.w3.org/2000/svg" xmlns:xlink="http://www.w3.org/1999/xlink" width="28px" height="28px" viewBox="0 0 28 28" version="1.1">
<g id="surface1">
<path style=" stroke:none;fill-rule:nonzero;fill:rgb(92.941176%,41.176471%,36.078431%);fill-opacity:1;" d="M 1.308594 27.839844 L 26.570312 27.839844 C 27.289062 27.839844 27.875 27.253906 27.875 26.53125 L 27.875 22.0625 C 27.875 21.339844 27.289062 20.753906 26.570312 20.753906 L 1.308594 20.753906 C 0.589844 20.753906 0 21.339844 0 22.0625 L 0 26.53125 C 0 27.253906 0.585938 27.839844 1.308594 27.839844 Z M 27.003906 22.0625 L 27.003906 26.53125 C 27.003906 26.773438 26.808594 26.96875 26.570312 26.96875 L 18.875 26.96875 L 18.875 21.625 C 18.921875 21.625 26.613281 21.625 26.570312 21.625 C 26.808594 21.625 27.003906 21.820312 27.003906 22.058594 Z M 18.003906 26.96875 L 9.875 26.96875 L 9.875 21.628906 L 18.003906 21.628906 Z M 0.871094 22.0625 C 0.871094 21.820312 1.066406 21.628906 1.308594 21.628906 L 9 21.628906 L 9 26.96875 L 1.308594 26.96875 C 1.066406 26.96875 0.871094 26.773438 0.871094 26.535156 Z M 0.871094 22.0625 "/>
<path style=" stroke:none;fill-rule:nonzero;fill:rgb(92.941176%,41.176471%,36.078431%);fill-opacity:1;" d="M 4.21875 24.730469 L 5.65625 24.730469 C 5.898438 24.730469 6.089844 24.535156 6.089844 24.296875 C 6.089844 24.054688 5.894531 23.863281 5.65625 23.863281 L 4.21875 23.863281 C 3.976562 23.863281 3.78125 24.054688 3.78125 24.296875 C 3.78125 24.539062 3.976562 24.730469 4.21875 24.730469 Z M 4.21875 24.730469 "/>
<path style=" stroke:none;fill-rule:nonzero;fill:rgb(92.941176%,41.176471%,36.078431%);fill-opacity:1;" d="M 13.214844 24.730469 L 14.65625 24.730469 C 14.898438 24.730469 15.09375 24.535156 15.09375 24.296875 C 15.09375 24.054688 14.898438 23.863281 14.65625 23.863281 L 13.214844 23.863281 C 12.976562 23.863281 12.78125 24.054688 12.78125 24.296875 C 12.78125 24.539062 12.976562 24.730469 13.214844 24.730469 Z M 13.214844 24.730469 "/>
<path style=" stroke:none;fill-rule:nonzero;fill:rgb(92.941176%,41.176471%,36.078431%);fill-opacity:1;" d="M 23.660156 23.863281 L 22.21875 23.863281 C 21.976562 23.863281 21.78125 24.054688 21.78125 24.296875 C 21.78125 24.539062 21.976562 24.730469 22.21875 24.730469 L 23.660156 24.730469 C 23.898438 24.730469 24.09375 24.535156 24.09375 24.296875 C 24.09375 24.054688 23.898438 23.863281 23.660156 23.863281 Z M 23.660156 23.863281 "/>
<path style=" stroke:none;fill-rule:nonzero;fill:rgb(92.941176%,41.176471%,36.078431%);fill-opacity:1;" d="M 17.699219 6.429688 L 14.320312 0.226562 C 14.242188 0.0859375 14.097656 0 13.9375 0 C 13.777344 0 13.628906 0.0859375 13.550781 0.226562 L 10.171875 6.429688 C 8.414062 7.632812 7.257812 9.65625 7.257812 11.9375 C 7.257812 15.597656 10.226562 18.613281 13.9375 18.613281 C 17.617188 18.613281 20.609375 15.621094 20.609375 11.9375 C 20.609375 9.785156 19.570312 7.714844 17.695312 6.429688 Z M 13.9375 1.347656 L 16.308594 5.699219 C 15.617188 5.433594 14.867188 5.261719 13.941406 5.261719 C 13.101562 5.261719 12.300781 5.425781 11.558594 5.710938 Z M 13.941406 17.746094 C 10.6875 17.746094 8.128906 15.097656 8.128906 11.9375 C 8.128906 8.738281 10.734375 6.132812 13.941406 6.132812 C 17.164062 6.132812 19.742188 8.765625 19.742188 11.9375 C 19.742188 15.140625 17.140625 17.746094 13.941406 17.746094 Z M 13.941406 17.746094 "/>
</g>
</svg>
