<?xml version="1.0" encoding="UTF-8"?>
<svg xmlns="http://www.w3.org/2000/svg" xmlns:xlink="http://www.w3.org/1999/xlink" width="28px" height="28px" viewBox="0 0 28 28" version="1.1">
<g id="surface1">
<path style=" stroke:none;fill-rule:nonzero;fill:rgb(92.941176%,41.176471%,36.078431%);fill-opacity:1;" d="M 26.945312 20.652344 L 14.445312 12.507812 L 14.445312 10.617188 C 16.019531 10.355469 17.226562 8.988281 17.226562 7.308594 C 17.226562 5.46875 15.757812 4 13.917969 4 C 12.082031 4 10.609375 5.46875 10.609375 7.308594 C 10.609375 7.625 10.820312 7.832031 11.136719 7.832031 C 11.449219 7.832031 11.660156 7.625 11.660156 7.308594 C 11.660156 6.046875 12.660156 5.050781 13.917969 5.050781 C 15.179688 5.050781 16.175781 6.046875 16.175781 7.308594 C 16.175781 8.570312 15.179688 9.566406 13.917969 9.566406 C 13.605469 9.566406 13.394531 9.777344 13.394531 10.09375 L 13.394531 12.507812 L 0.839844 20.703125 C 0.3125 21.070312 0 21.648438 0 22.277344 C 0 23.277344 0.734375 24.066406 1.679688 24.117188 L 26.105469 24.117188 C 27.050781 24.066406 27.839844 23.277344 27.839844 22.277344 C 27.839844 21.597656 27.472656 21.019531 26.945312 20.648438 Z M 25.949219 23.121094 L 1.890625 23.121094 C 1.417969 23.121094 1.050781 22.753906 1.050781 22.28125 C 1.050781 22.015625 1.207031 21.753906 1.417969 21.597656 L 13.917969 13.402344 L 26.367188 21.492188 C 26.628906 21.648438 26.839844 21.910156 26.839844 22.226562 C 26.789062 22.75 26.421875 23.121094 25.949219 23.121094 Z M 25.949219 23.121094 "/>
</g>
</svg>
