<?xml version="1.0" encoding="UTF-8"?>
<svg xmlns="http://www.w3.org/2000/svg" xmlns:xlink="http://www.w3.org/1999/xlink" width="28px" height="28px" viewBox="0 0 28 20" version="1.1">
<g id="surface1">
<path style=" stroke:none;fill-rule:nonzero;fill:rgb(92.941176%,41.176471%,36.078431%);fill-opacity:1;" d="M 26.945312 16.652344 L 14.445312 8.507812 L 14.445312 6.617188 C 16.019531 6.355469 17.226562 4.988281 17.226562 3.308594 C 17.226562 1.46875 15.757812 0 13.917969 0 C 12.082031 0 10.609375 1.46875 10.609375 3.308594 C 10.609375 3.625 10.820312 3.832031 11.136719 3.832031 C 11.449219 3.832031 11.660156 3.625 11.660156 3.308594 C 11.660156 2.046875 12.660156 1.050781 13.917969 1.050781 C 15.179688 1.050781 16.175781 2.046875 16.175781 3.308594 C 16.175781 4.570312 15.179688 5.566406 13.917969 5.566406 C 13.605469 5.566406 13.394531 5.777344 13.394531 6.09375 L 13.394531 8.507812 L 0.839844 16.703125 C 0.3125 17.070312 0 17.648438 0 18.277344 C 0 19.277344 0.734375 20.066406 1.679688 20.117188 L 26.105469 20.117188 C 27.050781 20.066406 27.839844 19.277344 27.839844 18.277344 C 27.839844 17.597656 27.472656 17.019531 26.945312 16.648438 Z M 25.949219 19.121094 L 1.890625 19.121094 C 1.417969 19.121094 1.050781 18.753906 1.050781 18.28125 C 1.050781 18.015625 1.207031 17.753906 1.417969 17.597656 L 13.917969 9.402344 L 26.367188 17.492188 C 26.628906 17.648438 26.839844 17.910156 26.839844 18.226562 C 26.789062 18.75 26.421875 19.121094 25.949219 19.121094 Z M 25.949219 19.121094 "/>
</g>
</svg>
