<?xml version="1.0" encoding="UTF-8"?>
<svg xmlns="http://www.w3.org/2000/svg" xmlns:xlink="http://www.w3.org/1999/xlink" width="28px" height="28px" viewBox="0 0 28 37" version="1.1">
<g id="surface1">
<path style=" stroke:none;fill-rule:nonzero;fill:rgb(92.941176%,41.176471%,36.078431%);fill-opacity:1;" d="M 26.699219 0 L 0.832031 0 C 0.375 0 0 0.367188 0 0.816406 L 0 32.984375 C 0 33.433594 0.375 33.800781 0.832031 33.800781 L 3.03125 33.800781 L 3.03125 35.96875 C 3.03125 36.421875 3.402344 36.789062 3.863281 36.789062 C 4.320312 36.789062 4.695312 36.421875 4.695312 35.96875 L 4.695312 33.800781 L 22.835938 33.800781 L 22.835938 35.96875 C 22.835938 36.421875 23.207031 36.789062 23.667969 36.789062 C 24.128906 36.789062 24.5 36.421875 24.5 35.96875 L 24.5 33.800781 L 26.699219 33.800781 C 27.15625 33.800781 27.53125 33.433594 27.53125 32.984375 L 27.53125 0.816406 C 27.53125 0.367188 27.15625 0 26.699219 0 Z M 1.664062 1.636719 L 12.933594 1.636719 L 12.933594 32.167969 L 1.664062 32.167969 Z M 25.863281 32.167969 L 14.597656 32.167969 L 14.597656 1.636719 L 25.863281 1.636719 Z M 25.863281 32.167969 "/>
<path style=" stroke:none;fill-rule:nonzero;fill:rgb(92.941176%,41.176471%,36.078431%);fill-opacity:1;" d="M 10.664062 18.394531 C 10.664062 18.929688 10.222656 19.363281 9.679688 19.363281 C 9.132812 19.363281 8.691406 18.929688 8.691406 18.394531 C 8.691406 17.859375 9.132812 17.425781 9.679688 17.425781 C 10.222656 17.425781 10.664062 17.859375 10.664062 18.394531 Z M 10.664062 18.394531 "/>
<path style=" stroke:none;fill-rule:nonzero;fill:rgb(92.941176%,41.176471%,36.078431%);fill-opacity:1;" d="M 18.839844 18.394531 C 18.839844 18.929688 18.398438 19.363281 17.851562 19.363281 C 17.308594 19.363281 16.867188 18.929688 16.867188 18.394531 C 16.867188 17.859375 17.308594 17.425781 17.851562 17.425781 C 18.398438 17.425781 18.839844 17.859375 18.839844 18.394531 Z M 18.839844 18.394531 "/>
</g>
</svg>
