<?xml version="1.0" encoding="UTF-8"?>
<svg xmlns="http://www.w3.org/2000/svg" xmlns:xlink="http://www.w3.org/1999/xlink" width="28px" height="28px" viewBox="0 0 28 28" version="1.1">
<g id="surface1">
<path style=" stroke:none;fill-rule:nonzero;fill:rgb(92.941176%,41.176471%,36.078431%);fill-opacity:1;" d="M 23.609375 0 L 4.035156 0 C 3.6875 0 3.40625 0.277344 3.40625 0.617188 L 3.40625 24.960938 C 3.40625 25.300781 3.6875 25.578125 4.035156 25.578125 L 5.699219 25.578125 L 5.699219 27.21875 C 5.699219 27.5625 5.980469 27.839844 6.328125 27.839844 C 6.675781 27.839844 6.957031 27.5625 6.957031 27.21875 L 6.957031 25.578125 L 20.6875 25.578125 L 20.6875 27.21875 C 20.6875 27.5625 20.96875 27.839844 21.316406 27.839844 C 21.664062 27.839844 21.945312 27.5625 21.945312 27.21875 L 21.945312 25.578125 L 23.609375 25.578125 C 23.957031 25.578125 24.238281 25.300781 24.238281 24.960938 L 24.238281 0.617188 C 24.238281 0.277344 23.957031 0 23.609375 0 Z M 4.664062 1.238281 L 13.191406 1.238281 L 13.191406 24.34375 L 4.664062 24.34375 Z M 22.976562 24.34375 L 14.453125 24.34375 L 14.453125 1.238281 L 22.976562 1.238281 Z M 22.976562 24.34375 "/>
<path style=" stroke:none;fill-rule:nonzero;fill:rgb(92.941176%,41.176471%,36.078431%);fill-opacity:1;" d="M 11.476562 13.921875 C 11.476562 14.324219 11.140625 14.652344 10.730469 14.652344 C 10.316406 14.652344 9.984375 14.324219 9.984375 13.921875 C 9.984375 13.515625 10.316406 13.1875 10.730469 13.1875 C 11.140625 13.1875 11.476562 13.515625 11.476562 13.921875 Z M 11.476562 13.921875 "/>
<path style=" stroke:none;fill-rule:nonzero;fill:rgb(92.941176%,41.176471%,36.078431%);fill-opacity:1;" d="M 17.664062 13.921875 C 17.664062 14.324219 17.328125 14.652344 16.914062 14.652344 C 16.503906 14.652344 16.167969 14.324219 16.167969 13.921875 C 16.167969 13.515625 16.503906 13.1875 16.914062 13.1875 C 17.328125 13.1875 17.664062 13.515625 17.664062 13.921875 Z M 17.664062 13.921875 "/>
</g>
</svg>
