<?xml version="1.0" encoding="UTF-8"?>
<svg xmlns="http://www.w3.org/2000/svg" xmlns:xlink="http://www.w3.org/1999/xlink" width="28px" height="28px" viewBox="0 0 28 28" version="1.1">
<g id="surface1">
<path style=" stroke:none;fill-rule:nonzero;fill:rgb(92.941176%,41.176471%,36.078431%);fill-opacity:1;" d="M 19.699219 9.671875 L 14.515625 0.34375 C 14.398438 0.132812 14.171875 0 13.929688 0 C 13.6875 0 13.460938 0.132812 13.34375 0.34375 L 8.152344 9.675781 C 5.460938 11.484375 3.6875 14.519531 3.6875 17.957031 C 3.6875 23.464844 8.242188 28 13.941406 28 C 19.585938 28 24.179688 23.496094 24.179688 17.957031 C 24.179688 14.722656 22.589844 11.605469 19.703125 9.671875 Z M 13.929688 2.027344 L 17.570312 8.574219 C 16.507812 8.175781 15.359375 7.914062 13.9375 7.914062 C 12.648438 7.914062 11.417969 8.160156 10.277344 8.589844 Z M 13.9375 26.691406 C 8.941406 26.691406 5.019531 22.707031 5.019531 17.960938 C 5.019531 13.144531 9.019531 9.226562 13.9375 9.226562 C 18.882812 9.226562 22.839844 13.191406 22.839844 17.960938 C 22.839844 22.777344 18.84375 26.691406 13.9375 26.691406 Z M 13.9375 26.691406 "/>
<path style=" stroke:none;fill-rule:nonzero;fill:rgb(92.941176%,41.176471%,36.078431%);fill-opacity:1;" d="M 11.324219 13.125 C 11.128906 12.933594 10.8125 12.933594 10.613281 13.125 L 8.601562 15.097656 C 8.402344 15.292969 8.402344 15.605469 8.601562 15.800781 C 8.699219 15.894531 8.824219 15.941406 8.957031 15.941406 C 9.082031 15.941406 9.214844 15.894531 9.3125 15.800781 L 11.324219 13.820312 C 11.523438 13.632812 11.523438 13.316406 11.324219 13.125 Z M 11.324219 13.125 "/>
<path style=" stroke:none;fill-rule:nonzero;fill:rgb(92.941176%,41.176471%,36.078431%);fill-opacity:1;" d="M 13.339844 14.113281 C 13.144531 13.921875 12.824219 13.921875 12.628906 14.113281 L 8.601562 18.0625 C 8.402344 18.253906 8.402344 18.566406 8.601562 18.761719 C 8.699219 18.855469 8.824219 18.90625 8.957031 18.90625 C 9.082031 18.90625 9.214844 18.855469 9.3125 18.761719 L 13.339844 14.8125 C 13.535156 14.617188 13.535156 14.304688 13.339844 14.113281 Z M 13.339844 14.113281 "/>
</g>
</svg>
