<?xml version="1.0" encoding="UTF-8"?>
<svg xmlns="http://www.w3.org/2000/svg" xmlns:xlink="http://www.w3.org/1999/xlink" width="28px" height="28px" viewBox="0 0 28 38" version="1.1">
<g id="surface1">
<path style=" stroke:none;fill-rule:nonzero;fill:rgb(92.941176%,41.176471%,36.078431%);fill-opacity:1;" d="M 21.734375 13.125 L 14.699219 0.464844 C 14.542969 0.179688 14.234375 0 13.90625 0 C 13.574219 0 13.269531 0.179688 13.109375 0.464844 L 6.066406 13.128906 C 2.410156 15.585938 0.00390625 19.707031 0.00390625 24.371094 C 0.00390625 31.84375 6.183594 38 13.917969 38 C 21.582031 38 27.816406 31.886719 27.816406 24.371094 C 27.816406 19.980469 25.65625 15.75 21.742188 13.125 Z M 13.902344 2.75 L 18.84375 11.636719 C 17.402344 11.09375 15.84375 10.742188 13.914062 10.742188 C 12.164062 10.742188 10.496094 11.074219 8.949219 11.65625 Z M 13.914062 36.222656 C 7.136719 36.222656 1.8125 30.816406 1.8125 24.375 C 1.8125 17.839844 7.242188 12.523438 13.914062 12.523438 C 20.628906 12.523438 25.996094 17.902344 25.996094 24.375 C 25.996094 30.910156 20.574219 36.222656 13.914062 36.222656 Z M 13.914062 36.222656 "/>
<path style=" stroke:none;fill-rule:nonzero;fill:rgb(92.941176%,41.176471%,36.078431%);fill-opacity:1;" d="M 10.371094 17.8125 C 10.105469 17.550781 9.671875 17.550781 9.40625 17.8125 L 6.671875 20.492188 C 6.402344 20.753906 6.402344 21.179688 6.671875 21.441406 C 6.804688 21.570312 6.976562 21.636719 7.15625 21.636719 C 7.328125 21.636719 7.503906 21.570312 7.636719 21.441406 L 10.371094 18.757812 C 10.636719 18.5 10.636719 18.074219 10.371094 17.8125 Z M 10.371094 17.8125 "/>
<path style=" stroke:none;fill-rule:nonzero;fill:rgb(92.941176%,41.176471%,36.078431%);fill-opacity:1;" d="M 13.105469 19.152344 C 12.839844 18.894531 12.402344 18.894531 12.136719 19.152344 L 6.671875 24.511719 C 6.402344 24.773438 6.402344 25.199219 6.671875 25.460938 C 6.804688 25.589844 6.976562 25.65625 7.15625 25.65625 C 7.328125 25.65625 7.503906 25.589844 7.636719 25.460938 L 13.105469 20.101562 C 13.371094 19.839844 13.371094 19.414062 13.105469 19.152344 Z M 13.105469 19.152344 "/>
</g>
</svg>
