<?xml version="1.0" encoding="UTF-8"?>
<svg xmlns="http://www.w3.org/2000/svg" xmlns:xlink="http://www.w3.org/1999/xlink" width="28px" height="28px" viewBox="0 0 28 28" version="1.1">
<g id="surface1">
<path style=" stroke:none;fill-rule:nonzero;fill:rgb(92.941176%,41.176471%,36.078431%);fill-opacity:1;" d="M 15.390625 23.441406 L 1.921875 23.441406 C 0.863281 23.441406 0 22.574219 0 21.507812 L 0 15.308594 C 0 14.257812 0.84375 13.375 1.921875 13.375 C 2.984375 13.375 3.847656 14.242188 3.847656 15.308594 L 3.847656 17.460938 C 3.847656 17.71875 3.628906 17.921875 3.363281 17.921875 C 3.09375 17.921875 2.882812 17.714844 2.882812 17.460938 L 2.882812 15.308594 C 2.882812 14.757812 2.453125 14.304688 1.925781 14.304688 C 1.410156 14.304688 0.96875 14.738281 0.96875 15.308594 L 0.96875 21.507812 C 0.96875 22.0625 1.398438 22.515625 1.925781 22.515625 L 15.390625 22.515625 C 15.917969 22.515625 16.347656 22.0625 16.347656 21.507812 C 16.339844 14.984375 16.367188 15.292969 16.328125 15.097656 C 16.175781 14.335938 15.269531 14.03125 14.726562 14.585938 C 14.589844 14.726562 14.496094 14.902344 14.457031 15.097656 C 14.421875 15.285156 14.441406 15.203125 14.4375 17.457031 C 14.4375 17.714844 14.21875 17.921875 13.953125 17.921875 C 13.6875 17.921875 13.472656 17.714844 13.472656 17.457031 L 13.472656 15.308594 C 13.472656 13.671875 15.375 12.769531 16.628906 13.820312 C 17.054688 14.183594 17.316406 14.722656 17.316406 15.308594 L 17.316406 21.503906 C 17.316406 22.574219 16.453125 23.441406 15.394531 23.441406 Z M 15.390625 23.441406 "/>
<path style=" stroke:none;fill-rule:nonzero;fill:rgb(92.941176%,41.176471%,36.078431%);fill-opacity:1;" d="M 3.136719 25.664062 L 2.261719 25.664062 C 1.832031 25.664062 1.480469 25.339844 1.480469 24.941406 L 1.480469 22.980469 C 1.480469 22.722656 1.699219 22.515625 1.964844 22.515625 C 2.230469 22.515625 2.445312 22.722656 2.445312 22.980469 L 2.445312 24.734375 L 3.058594 24.734375 L 4.8125 22.683594 C 4.980469 22.484375 5.285156 22.457031 5.492188 22.621094 C 5.699219 22.78125 5.730469 23.074219 5.558594 23.273438 L 3.746094 25.390625 C 3.597656 25.5625 3.375 25.664062 3.136719 25.664062 Z M 3.136719 25.664062 "/>
<path style=" stroke:none;fill-rule:nonzero;fill:rgb(92.941176%,41.176471%,36.078431%);fill-opacity:1;" d="M 15.054688 25.664062 L 14.175781 25.664062 C 13.9375 25.664062 13.714844 25.5625 13.566406 25.390625 L 11.753906 23.273438 C 11.585938 23.078125 11.613281 22.785156 11.820312 22.621094 C 12.023438 22.457031 12.332031 22.484375 12.5 22.683594 L 14.257812 24.734375 L 14.867188 24.734375 L 14.867188 22.980469 C 14.867188 22.722656 15.082031 22.515625 15.347656 22.515625 C 15.617188 22.515625 15.832031 22.722656 15.832031 22.980469 L 15.832031 24.941406 C 15.832031 25.339844 15.480469 25.664062 15.050781 25.664062 Z M 15.054688 25.664062 "/>
<path style=" stroke:none;fill-rule:nonzero;fill:rgb(92.941176%,41.176471%,36.078431%);fill-opacity:1;" d="M 13.953125 20.738281 L 3.363281 20.738281 C 3.09375 20.738281 2.882812 20.53125 2.882812 20.273438 L 2.882812 13.769531 C 2.882812 12.359375 4.074219 11.214844 5.539062 11.214844 C 12.128906 11.21875 11.820312 11.207031 12.042969 11.226562 C 13.394531 11.355469 14.4375 12.449219 14.4375 13.769531 L 14.4375 20.273438 C 14.4375 20.53125 14.21875 20.738281 13.953125 20.738281 Z M 13.46875 19.808594 L 13.46875 13.769531 C 13.46875 12.925781 12.8125 12.230469 11.945312 12.152344 C 11.804688 12.140625 12.144531 12.148438 5.535156 12.144531 C 4.605469 12.144531 3.847656 12.871094 3.847656 13.769531 L 3.847656 19.808594 Z M 13.46875 19.808594 "/>
<path style=" stroke:none;fill-rule:nonzero;fill:rgb(92.941176%,41.176471%,36.078431%);fill-opacity:1;" d="M 13.953125 20.738281 C 13.683594 20.738281 13.46875 20.53125 13.46875 20.273438 L 13.46875 18.984375 C 13.46875 18.390625 12.964844 17.90625 12.347656 17.90625 L 4.964844 17.90625 C 4.347656 17.90625 3.847656 18.390625 3.847656 18.984375 L 3.847656 20.273438 C 3.847656 20.53125 3.628906 20.738281 3.363281 20.738281 C 3.09375 20.738281 2.882812 20.53125 2.882812 20.273438 L 2.882812 18.984375 C 2.882812 17.878906 3.816406 16.980469 4.964844 16.980469 L 12.347656 16.980469 C 13.5 16.980469 14.4375 17.878906 14.4375 18.984375 L 14.4375 20.273438 C 14.4375 20.53125 14.21875 20.738281 13.953125 20.738281 Z M 13.953125 20.738281 "/>
<path style=" stroke:none;fill-rule:nonzero;fill:rgb(92.941176%,41.176471%,36.078431%);fill-opacity:1;" d="M 27.667969 22.25 L 16.832031 22.25 C 16.5625 22.25 16.347656 22.042969 16.347656 21.785156 C 16.347656 21.527344 16.5625 21.324219 16.832031 21.324219 L 27.183594 21.324219 L 27.183594 2.929688 L 12.472656 2.929688 L 12.472656 11.691406 C 12.472656 11.949219 12.257812 12.15625 11.992188 12.15625 C 11.722656 12.15625 11.507812 11.949219 11.507812 11.691406 L 11.507812 2.46875 C 11.507812 2.210938 11.722656 2.003906 11.992188 2.003906 L 27.667969 2.003906 C 27.933594 2.003906 28.148438 2.210938 28.148438 2.46875 L 28.148438 21.789062 C 28.148438 22.042969 27.933594 22.25 27.667969 22.25 Z M 27.667969 22.25 "/>
<path style=" stroke:none;fill-rule:nonzero;fill:rgb(92.941176%,41.176471%,36.078431%);fill-opacity:1;" d="M 26.757812 24.601562 L 25.027344 24.601562 C 24.832031 24.601562 24.660156 24.492188 24.582031 24.320312 L 23.53125 21.96875 C 23.425781 21.730469 23.539062 21.457031 23.785156 21.355469 C 24.03125 21.253906 24.316406 21.367188 24.421875 21.601562 L 25.347656 23.671875 L 26.273438 23.671875 L 26.273438 21.785156 C 26.273438 21.527344 26.488281 21.320312 26.757812 21.320312 C 27.023438 21.320312 27.238281 21.527344 27.238281 21.785156 L 27.238281 24.136719 C 27.238281 24.394531 27.023438 24.601562 26.757812 24.601562 Z M 26.757812 24.601562 "/>
<path style=" stroke:none;fill-rule:nonzero;fill:rgb(92.941176%,41.176471%,36.078431%);fill-opacity:1;" d="M 27.667969 16.789062 L 16.832031 16.789062 C 16.5625 16.789062 16.347656 16.578125 16.347656 16.324219 C 16.347656 16.070312 16.5625 15.859375 16.832031 15.859375 L 27.667969 15.859375 C 27.933594 15.859375 28.148438 16.070312 28.148438 16.324219 C 28.148438 16.582031 27.933594 16.789062 27.667969 16.789062 Z M 27.667969 16.789062 "/>
<path style=" stroke:none;fill-rule:nonzero;fill:rgb(92.941176%,41.176471%,36.078431%);fill-opacity:1;" d="M 19.828125 22.25 C 19.558594 22.25 19.347656 22.042969 19.347656 21.785156 L 19.347656 2.464844 C 19.347656 2.207031 19.5625 2.003906 19.828125 2.003906 C 20.097656 2.003906 20.3125 2.210938 20.3125 2.464844 L 20.3125 21.785156 C 20.3125 22.042969 20.09375 22.25 19.828125 22.25 Z M 19.828125 22.25 "/>
<path style=" stroke:none;fill-rule:nonzero;fill:rgb(92.941176%,41.176471%,36.078431%);fill-opacity:1;" d="M 18.378906 20.128906 C 18.109375 20.128906 17.898438 19.921875 17.898438 19.667969 L 17.898438 18.4375 C 17.898438 18.179688 18.113281 17.976562 18.378906 17.976562 C 18.644531 17.976562 18.863281 18.183594 18.863281 18.4375 L 18.863281 19.667969 C 18.863281 19.925781 18.644531 20.128906 18.378906 20.128906 Z M 18.378906 20.128906 "/>
<path style=" stroke:none;fill-rule:nonzero;fill:rgb(92.941176%,41.176471%,36.078431%);fill-opacity:1;" d="M 21.28125 20.128906 C 21.011719 20.128906 20.796875 19.921875 20.796875 19.667969 L 20.796875 18.4375 C 20.796875 18.179688 21.011719 17.976562 21.28125 17.976562 C 21.546875 17.976562 21.761719 18.183594 21.761719 18.4375 L 21.761719 19.667969 C 21.761719 19.925781 21.546875 20.128906 21.28125 20.128906 Z M 21.28125 20.128906 "/>
<path style=" stroke:none;fill-rule:nonzero;fill:rgb(92.941176%,41.176471%,36.078431%);fill-opacity:1;" d="M 18.058594 12.328125 C 17.789062 12.328125 17.574219 12.121094 17.574219 11.867188 L 17.574219 6.921875 C 17.574219 6.664062 17.789062 6.457031 18.058594 6.457031 C 18.324219 6.457031 18.542969 6.664062 18.542969 6.921875 L 18.542969 11.867188 C 18.542969 12.125 18.324219 12.328125 18.058594 12.328125 Z M 18.058594 12.328125 "/>
<path style=" stroke:none;fill-rule:nonzero;fill:rgb(92.941176%,41.176471%,36.078431%);fill-opacity:1;" d="M 21.601562 12.328125 C 21.332031 12.328125 21.117188 12.121094 21.117188 11.867188 L 21.117188 6.921875 C 21.117188 6.664062 21.335938 6.457031 21.601562 6.457031 C 21.867188 6.457031 22.082031 6.664062 22.082031 6.921875 L 22.082031 11.867188 C 22.082031 12.125 21.867188 12.328125 21.601562 12.328125 Z M 21.601562 12.328125 "/>
</g>
</svg>
