<?xml version="1.0" encoding="UTF-8"?>
<svg xmlns="http://www.w3.org/2000/svg" xmlns:xlink="http://www.w3.org/1999/xlink" width="28px" height="28px" viewBox="0 0 28 24" version="1.1">
<g id="surface1">
<path style=" stroke:none;fill-rule:nonzero;fill:rgb(92.941176%,41.176471%,36.078431%);fill-opacity:1;" d="M 15.390625 21.441406 L 1.921875 21.441406 C 0.863281 21.441406 0 20.574219 0 19.507812 L 0 13.308594 C 0 12.257812 0.84375 11.375 1.921875 11.375 C 2.984375 11.375 3.847656 12.242188 3.847656 13.308594 L 3.847656 15.460938 C 3.847656 15.71875 3.628906 15.921875 3.363281 15.921875 C 3.09375 15.921875 2.882812 15.714844 2.882812 15.460938 L 2.882812 13.308594 C 2.882812 12.757812 2.453125 12.304688 1.925781 12.304688 C 1.410156 12.304688 0.96875 12.738281 0.96875 13.308594 L 0.96875 19.507812 C 0.96875 20.0625 1.398438 20.515625 1.925781 20.515625 L 15.390625 20.515625 C 15.917969 20.515625 16.347656 20.0625 16.347656 19.507812 C 16.339844 12.984375 16.367188 13.292969 16.328125 13.097656 C 16.175781 12.335938 15.269531 12.03125 14.726562 12.585938 C 14.589844 12.726562 14.496094 12.902344 14.457031 13.097656 C 14.421875 13.285156 14.441406 13.203125 14.4375 15.457031 C 14.4375 15.714844 14.21875 15.921875 13.953125 15.921875 C 13.6875 15.921875 13.472656 15.714844 13.472656 15.457031 L 13.472656 13.308594 C 13.472656 11.671875 15.375 10.769531 16.628906 11.820312 C 17.054688 12.183594 17.316406 12.722656 17.316406 13.308594 L 17.316406 19.503906 C 17.316406 20.574219 16.453125 21.441406 15.394531 21.441406 Z M 15.390625 21.441406 "/>
<path style=" stroke:none;fill-rule:nonzero;fill:rgb(92.941176%,41.176471%,36.078431%);fill-opacity:1;" d="M 3.136719 23.664062 L 2.261719 23.664062 C 1.832031 23.664062 1.480469 23.339844 1.480469 22.941406 L 1.480469 20.980469 C 1.480469 20.722656 1.699219 20.515625 1.964844 20.515625 C 2.230469 20.515625 2.445312 20.722656 2.445312 20.980469 L 2.445312 22.734375 L 3.058594 22.734375 L 4.8125 20.683594 C 4.980469 20.484375 5.285156 20.457031 5.492188 20.621094 C 5.699219 20.78125 5.730469 21.074219 5.558594 21.273438 L 3.746094 23.390625 C 3.597656 23.5625 3.375 23.664062 3.136719 23.664062 Z M 3.136719 23.664062 "/>
<path style=" stroke:none;fill-rule:nonzero;fill:rgb(92.941176%,41.176471%,36.078431%);fill-opacity:1;" d="M 15.054688 23.664062 L 14.175781 23.664062 C 13.9375 23.664062 13.714844 23.5625 13.566406 23.390625 L 11.753906 21.273438 C 11.585938 21.078125 11.613281 20.785156 11.820312 20.621094 C 12.023438 20.457031 12.332031 20.484375 12.5 20.683594 L 14.257812 22.734375 L 14.867188 22.734375 L 14.867188 20.980469 C 14.867188 20.722656 15.082031 20.515625 15.347656 20.515625 C 15.617188 20.515625 15.832031 20.722656 15.832031 20.980469 L 15.832031 22.941406 C 15.832031 23.339844 15.480469 23.664062 15.050781 23.664062 Z M 15.054688 23.664062 "/>
<path style=" stroke:none;fill-rule:nonzero;fill:rgb(92.941176%,41.176471%,36.078431%);fill-opacity:1;" d="M 13.953125 18.738281 L 3.363281 18.738281 C 3.09375 18.738281 2.882812 18.53125 2.882812 18.273438 L 2.882812 11.769531 C 2.882812 10.359375 4.074219 9.214844 5.539062 9.214844 C 12.128906 9.21875 11.820312 9.207031 12.042969 9.226562 C 13.394531 9.355469 14.4375 10.449219 14.4375 11.769531 L 14.4375 18.273438 C 14.4375 18.53125 14.21875 18.738281 13.953125 18.738281 Z M 13.46875 17.808594 L 13.46875 11.769531 C 13.46875 10.925781 12.8125 10.230469 11.945312 10.152344 C 11.804688 10.140625 12.144531 10.148438 5.535156 10.144531 C 4.605469 10.144531 3.847656 10.871094 3.847656 11.769531 L 3.847656 17.808594 Z M 13.46875 17.808594 "/>
<path style=" stroke:none;fill-rule:nonzero;fill:rgb(92.941176%,41.176471%,36.078431%);fill-opacity:1;" d="M 13.953125 18.738281 C 13.683594 18.738281 13.46875 18.53125 13.46875 18.273438 L 13.46875 16.984375 C 13.46875 16.390625 12.964844 15.90625 12.347656 15.90625 L 4.964844 15.90625 C 4.347656 15.90625 3.847656 16.390625 3.847656 16.984375 L 3.847656 18.273438 C 3.847656 18.53125 3.628906 18.738281 3.363281 18.738281 C 3.09375 18.738281 2.882812 18.53125 2.882812 18.273438 L 2.882812 16.984375 C 2.882812 15.878906 3.816406 14.980469 4.964844 14.980469 L 12.347656 14.980469 C 13.5 14.980469 14.4375 15.878906 14.4375 16.984375 L 14.4375 18.273438 C 14.4375 18.53125 14.21875 18.738281 13.953125 18.738281 Z M 13.953125 18.738281 "/>
<path style=" stroke:none;fill-rule:nonzero;fill:rgb(92.941176%,41.176471%,36.078431%);fill-opacity:1;" d="M 27.667969 20.25 L 16.832031 20.25 C 16.5625 20.25 16.347656 20.042969 16.347656 19.785156 C 16.347656 19.527344 16.5625 19.324219 16.832031 19.324219 L 27.183594 19.324219 L 27.183594 0.929688 L 12.472656 0.929688 L 12.472656 9.691406 C 12.472656 9.949219 12.257812 10.15625 11.992188 10.15625 C 11.722656 10.15625 11.507812 9.949219 11.507812 9.691406 L 11.507812 0.46875 C 11.507812 0.210938 11.722656 0.00390625 11.992188 0.00390625 L 27.667969 0.00390625 C 27.933594 0.00390625 28.148438 0.210938 28.148438 0.46875 L 28.148438 19.789062 C 28.148438 20.042969 27.933594 20.25 27.667969 20.25 Z M 27.667969 20.25 "/>
<path style=" stroke:none;fill-rule:nonzero;fill:rgb(92.941176%,41.176471%,36.078431%);fill-opacity:1;" d="M 26.757812 22.601562 L 25.027344 22.601562 C 24.832031 22.601562 24.660156 22.492188 24.582031 22.320312 L 23.53125 19.96875 C 23.425781 19.730469 23.539062 19.457031 23.785156 19.355469 C 24.03125 19.253906 24.316406 19.367188 24.421875 19.601562 L 25.347656 21.671875 L 26.273438 21.671875 L 26.273438 19.785156 C 26.273438 19.527344 26.488281 19.320312 26.757812 19.320312 C 27.023438 19.320312 27.238281 19.527344 27.238281 19.785156 L 27.238281 22.136719 C 27.238281 22.394531 27.023438 22.601562 26.757812 22.601562 Z M 26.757812 22.601562 "/>
<path style=" stroke:none;fill-rule:nonzero;fill:rgb(92.941176%,41.176471%,36.078431%);fill-opacity:1;" d="M 27.667969 14.789062 L 16.832031 14.789062 C 16.5625 14.789062 16.347656 14.578125 16.347656 14.324219 C 16.347656 14.070312 16.5625 13.859375 16.832031 13.859375 L 27.667969 13.859375 C 27.933594 13.859375 28.148438 14.070312 28.148438 14.324219 C 28.148438 14.582031 27.933594 14.789062 27.667969 14.789062 Z M 27.667969 14.789062 "/>
<path style=" stroke:none;fill-rule:nonzero;fill:rgb(92.941176%,41.176471%,36.078431%);fill-opacity:1;" d="M 19.828125 20.25 C 19.558594 20.25 19.347656 20.042969 19.347656 19.785156 L 19.347656 0.464844 C 19.347656 0.207031 19.5625 0.00390625 19.828125 0.00390625 C 20.097656 0.00390625 20.3125 0.210938 20.3125 0.464844 L 20.3125 19.785156 C 20.3125 20.042969 20.09375 20.25 19.828125 20.25 Z M 19.828125 20.25 "/>
<path style=" stroke:none;fill-rule:nonzero;fill:rgb(92.941176%,41.176471%,36.078431%);fill-opacity:1;" d="M 18.378906 18.128906 C 18.109375 18.128906 17.898438 17.921875 17.898438 17.667969 L 17.898438 16.4375 C 17.898438 16.179688 18.113281 15.976562 18.378906 15.976562 C 18.644531 15.976562 18.863281 16.183594 18.863281 16.4375 L 18.863281 17.667969 C 18.863281 17.925781 18.644531 18.128906 18.378906 18.128906 Z M 18.378906 18.128906 "/>
<path style=" stroke:none;fill-rule:nonzero;fill:rgb(92.941176%,41.176471%,36.078431%);fill-opacity:1;" d="M 21.28125 18.128906 C 21.011719 18.128906 20.796875 17.921875 20.796875 17.667969 L 20.796875 16.4375 C 20.796875 16.179688 21.011719 15.976562 21.28125 15.976562 C 21.546875 15.976562 21.761719 16.183594 21.761719 16.4375 L 21.761719 17.667969 C 21.761719 17.925781 21.546875 18.128906 21.28125 18.128906 Z M 21.28125 18.128906 "/>
<path style=" stroke:none;fill-rule:nonzero;fill:rgb(92.941176%,41.176471%,36.078431%);fill-opacity:1;" d="M 18.058594 10.328125 C 17.789062 10.328125 17.574219 10.121094 17.574219 9.867188 L 17.574219 4.921875 C 17.574219 4.664062 17.789062 4.457031 18.058594 4.457031 C 18.324219 4.457031 18.542969 4.664062 18.542969 4.921875 L 18.542969 9.867188 C 18.542969 10.125 18.324219 10.328125 18.058594 10.328125 Z M 18.058594 10.328125 "/>
<path style=" stroke:none;fill-rule:nonzero;fill:rgb(92.941176%,41.176471%,36.078431%);fill-opacity:1;" d="M 21.601562 10.328125 C 21.332031 10.328125 21.117188 10.121094 21.117188 9.867188 L 21.117188 4.921875 C 21.117188 4.664062 21.335938 4.457031 21.601562 4.457031 C 21.867188 4.457031 22.082031 4.664062 22.082031 4.921875 L 22.082031 9.867188 C 22.082031 10.125 21.867188 10.328125 21.601562 10.328125 Z M 21.601562 10.328125 "/>
</g>
</svg>
