<?xml version="1.0" encoding="UTF-8"?>
<svg xmlns="http://www.w3.org/2000/svg" xmlns:xlink="http://www.w3.org/1999/xlink" width="28px" height="28px" viewBox="0 0 28 18" version="1.1">
<g id="surface1">
<path style=" stroke:none;fill-rule:nonzero;fill:rgb(92.941176%,41.176471%,36.078431%);fill-opacity:1;" d="M 24.191406 5.441406 L 23.75 5.441406 L 23.75 2.09375 C 23.75 0.9375 22.769531 0 21.554688 0 L 6.597656 0 C 5.382812 0 4.398438 0.9375 4.398438 2.09375 L 4.398438 5.441406 L 3.960938 5.441406 C 1.773438 5.445312 0.00390625 7.128906 0 9.207031 L 0 15.066406 L 0.878906 15.066406 L 0.878906 17.996094 L 3.078125 17.996094 L 3.078125 15.066406 L 25.074219 15.066406 L 25.074219 17.996094 L 27.269531 17.996094 L 27.269531 15.066406 L 28.152344 15.066406 L 28.152344 9.207031 C 28.148438 7.128906 26.378906 5.445312 24.191406 5.441406 Z M 5.28125 2.09375 C 5.28125 1.402344 5.871094 0.835938 6.601562 0.835938 L 21.558594 0.835938 C 22.285156 0.835938 22.878906 1.398438 22.878906 2.09375 L 22.878906 5.441406 L 21.558594 5.441406 L 21.558594 3.769531 C 21.558594 3.074219 20.96875 2.511719 20.238281 2.511719 L 16.277344 2.511719 C 15.550781 2.511719 14.957031 3.074219 14.957031 3.769531 L 14.957031 5.441406 L 13.195312 5.441406 L 13.195312 3.769531 C 13.195312 3.074219 12.605469 2.511719 11.875 2.511719 L 7.914062 2.511719 C 7.1875 2.511719 6.59375 3.074219 6.59375 3.769531 L 6.59375 5.441406 L 5.273438 5.441406 L 5.273438 2.09375 Z M 20.671875 3.769531 L 20.671875 5.441406 L 15.832031 5.441406 L 15.832031 3.769531 C 15.832031 3.535156 16.03125 3.347656 16.273438 3.347656 L 20.234375 3.347656 C 20.476562 3.347656 20.671875 3.535156 20.671875 3.769531 Z M 12.316406 3.769531 L 12.316406 5.441406 L 7.476562 5.441406 L 7.476562 3.769531 C 7.476562 3.535156 7.671875 3.347656 7.914062 3.347656 L 11.875 3.347656 C 12.117188 3.347656 12.316406 3.535156 12.316406 3.769531 Z M 2.199219 17.160156 L 1.757812 17.160156 L 1.757812 15.070312 L 2.199219 15.070312 Z M 26.390625 17.160156 L 25.949219 17.160156 L 25.949219 15.070312 L 26.390625 15.070312 Z M 27.269531 14.230469 L 0.878906 14.230469 L 0.878906 12.140625 L 27.269531 12.140625 Z M 27.269531 11.300781 L 0.878906 11.300781 L 0.878906 9.210938 C 0.882812 7.59375 2.261719 6.28125 3.960938 6.28125 L 24.191406 6.28125 C 25.890625 6.285156 27.265625 7.59375 27.269531 9.210938 Z M 27.269531 11.300781 "/>
</g>
</svg>
