<?xml version="1.0" encoding="UTF-8"?>
<svg xmlns="http://www.w3.org/2000/svg" xmlns:xlink="http://www.w3.org/1999/xlink" width="28px" height="28px" viewBox="0 0 28 28" version="1.1">
<g id="surface1">
<path style=" stroke:none;fill-rule:nonzero;fill:rgb(92.941176%,41.176471%,36.078431%);fill-opacity:1;" d="M 24.191406 10.441406 L 23.75 10.441406 L 23.75 7.09375 C 23.75 5.9375 22.769531 5 21.554688 5 L 6.597656 5 C 5.382812 5 4.398438 5.9375 4.398438 7.09375 L 4.398438 10.441406 L 3.960938 10.441406 C 1.773438 10.445312 0.00390625 12.128906 0 14.207031 L 0 20.066406 L 0.878906 20.066406 L 0.878906 22.996094 L 3.078125 22.996094 L 3.078125 20.066406 L 25.074219 20.066406 L 25.074219 22.996094 L 27.269531 22.996094 L 27.269531 20.066406 L 28.152344 20.066406 L 28.152344 14.207031 C 28.148438 12.128906 26.378906 10.445312 24.191406 10.441406 Z M 5.28125 7.09375 C 5.28125 6.402344 5.871094 5.835938 6.601562 5.835938 L 21.558594 5.835938 C 22.285156 5.835938 22.878906 6.398438 22.878906 7.09375 L 22.878906 10.441406 L 21.558594 10.441406 L 21.558594 8.769531 C 21.558594 8.074219 20.96875 7.511719 20.238281 7.511719 L 16.277344 7.511719 C 15.550781 7.511719 14.957031 8.074219 14.957031 8.769531 L 14.957031 10.441406 L 13.195312 10.441406 L 13.195312 8.769531 C 13.195312 8.074219 12.605469 7.511719 11.875 7.511719 L 7.914062 7.511719 C 7.1875 7.511719 6.59375 8.074219 6.59375 8.769531 L 6.59375 10.441406 L 5.273438 10.441406 L 5.273438 7.09375 Z M 20.671875 8.769531 L 20.671875 10.441406 L 15.832031 10.441406 L 15.832031 8.769531 C 15.832031 8.535156 16.03125 8.347656 16.273438 8.347656 L 20.234375 8.347656 C 20.476562 8.347656 20.671875 8.535156 20.671875 8.769531 Z M 12.316406 8.769531 L 12.316406 10.441406 L 7.476562 10.441406 L 7.476562 8.769531 C 7.476562 8.535156 7.671875 8.347656 7.914062 8.347656 L 11.875 8.347656 C 12.117188 8.347656 12.316406 8.535156 12.316406 8.769531 Z M 2.199219 22.160156 L 1.757812 22.160156 L 1.757812 20.070312 L 2.199219 20.070312 Z M 26.390625 22.160156 L 25.949219 22.160156 L 25.949219 20.070312 L 26.390625 20.070312 Z M 27.269531 19.230469 L 0.878906 19.230469 L 0.878906 17.140625 L 27.269531 17.140625 Z M 27.269531 16.300781 L 0.878906 16.300781 L 0.878906 14.210938 C 0.882812 12.59375 2.261719 11.28125 3.960938 11.28125 L 24.191406 11.28125 C 25.890625 11.285156 27.265625 12.59375 27.269531 14.210938 Z M 27.269531 16.300781 "/>
</g>
</svg>
