<?xml version="1.0" encoding="UTF-8"?>
<svg xmlns="http://www.w3.org/2000/svg" xmlns:xlink="http://www.w3.org/1999/xlink" width="28px" height="28px" viewBox="0 0 28 28" version="1.1">
<g id="surface1">
<path style=" stroke:none;fill-rule:nonzero;fill:rgb(92.941176%,41.176471%,36.078431%);fill-opacity:1;" d="M 12.589844 17.476562 L 1.03125 17.476562 C 0.777344 17.476562 0.578125 17.285156 0.578125 17.046875 L 0.578125 14.710938 C 0.578125 13.347656 1.734375 12.242188 3.164062 12.242188 L 10.460938 12.242188 C 11.886719 12.242188 13.046875 13.347656 13.046875 14.710938 L 13.046875 17.046875 C 13.046875 17.285156 12.84375 17.476562 12.59375 17.476562 Z M 1.480469 16.609375 L 12.132812 16.609375 L 12.132812 14.710938 C 12.132812 13.828125 11.382812 13.109375 10.457031 13.109375 L 3.160156 13.109375 C 2.230469 13.109375 1.480469 13.828125 1.480469 14.710938 Z M 1.480469 16.609375 "/>
<path style=" stroke:none;fill-rule:nonzero;fill:rgb(92.941176%,41.176471%,36.078431%);fill-opacity:1;" d="M 1.699219 13.664062 C 1.449219 13.664062 1.25 13.472656 1.25 13.230469 L 1.25 7.9375 C 1.25 7.695312 1.449219 7.503906 1.699219 7.503906 L 11.917969 7.503906 C 12.167969 7.503906 12.371094 7.695312 12.371094 7.9375 L 12.371094 13.210938 C 12.371094 13.449219 12.167969 13.644531 11.917969 13.644531 C 11.667969 13.644531 11.464844 13.449219 11.464844 13.210938 L 11.464844 8.367188 L 2.15625 8.367188 L 2.15625 13.230469 C 2.15625 13.472656 1.957031 13.664062 1.707031 13.664062 Z M 1.699219 13.664062 "/>
<path style=" stroke:none;fill-rule:nonzero;fill:rgb(92.941176%,41.176471%,36.078431%);fill-opacity:1;" d="M 13.160156 20.746094 L 0.453125 20.746094 C 0.203125 20.746094 0.00390625 20.550781 0.00390625 20.3125 L 0.00390625 17.046875 C 0.00390625 16.804688 0.203125 16.613281 0.453125 16.613281 L 13.160156 16.613281 C 13.410156 16.613281 13.613281 16.804688 13.613281 17.046875 L 13.613281 20.3125 C 13.613281 20.550781 13.410156 20.746094 13.160156 20.746094 Z M 0.910156 19.878906 L 12.707031 19.878906 L 12.707031 17.476562 L 0.910156 17.476562 Z M 0.910156 19.878906 "/>
<path style=" stroke:none;fill-rule:nonzero;fill:rgb(92.941176%,41.176471%,36.078431%);fill-opacity:1;" d="M 9.410156 13.109375 L 4.203125 13.109375 C 3.953125 13.109375 3.75 12.917969 3.75 12.679688 L 3.75 10.820312 C 3.75 10.265625 4.222656 9.816406 4.800781 9.816406 L 8.8125 9.816406 C 9.394531 9.816406 9.863281 10.265625 9.863281 10.820312 L 9.863281 12.679688 C 9.863281 12.917969 9.660156 13.109375 9.410156 13.109375 Z M 4.65625 12.242188 L 8.953125 12.242188 L 8.953125 10.8125 C 8.953125 10.738281 8.886719 10.675781 8.808594 10.675781 L 4.796875 10.675781 C 4.71875 10.675781 4.652344 10.738281 4.652344 10.8125 L 4.652344 12.242188 Z M 4.65625 12.242188 "/>
<path style=" stroke:none;fill-rule:nonzero;fill:rgb(92.941176%,41.176471%,36.078431%);fill-opacity:1;" d="M 27.125 17.476562 L 15.566406 17.476562 C 15.316406 17.476562 15.113281 17.285156 15.113281 17.046875 L 15.113281 14.710938 C 15.113281 13.347656 16.273438 12.242188 17.699219 12.242188 L 24.996094 12.242188 C 26.425781 12.242188 27.582031 13.347656 27.582031 14.710938 L 27.582031 17.046875 C 27.582031 17.285156 27.382812 17.476562 27.132812 17.476562 Z M 16.019531 16.609375 L 26.671875 16.609375 L 26.671875 14.710938 C 26.671875 13.828125 25.917969 13.109375 24.992188 13.109375 L 17.695312 13.109375 C 16.769531 13.109375 16.019531 13.828125 16.019531 14.710938 Z M 16.019531 16.609375 "/>
<path style=" stroke:none;fill-rule:nonzero;fill:rgb(92.941176%,41.176471%,36.078431%);fill-opacity:1;" d="M 26.453125 13.664062 C 26.203125 13.664062 26.003906 13.472656 26.003906 13.230469 L 26.003906 8.367188 L 16.695312 8.367188 L 16.695312 13.230469 C 16.695312 13.472656 16.492188 13.664062 16.242188 13.664062 C 15.992188 13.664062 15.789062 13.472656 15.789062 13.230469 L 15.789062 7.9375 C 15.789062 7.695312 15.992188 7.503906 16.242188 7.503906 L 26.460938 7.503906 C 26.710938 7.503906 26.910156 7.695312 26.910156 7.9375 L 26.910156 13.230469 C 26.910156 13.472656 26.710938 13.664062 26.460938 13.664062 Z M 26.453125 13.664062 "/>
<path style=" stroke:none;fill-rule:nonzero;fill:rgb(92.941176%,41.176471%,36.078431%);fill-opacity:1;" d="M 27.699219 20.746094 L 14.992188 20.746094 C 14.742188 20.746094 14.539062 20.550781 14.539062 20.3125 L 14.539062 17.046875 C 14.539062 16.804688 14.742188 16.613281 14.992188 16.613281 L 27.699219 16.613281 C 27.949219 16.613281 28.148438 16.804688 28.148438 17.046875 L 28.148438 20.3125 C 28.148438 20.550781 27.949219 20.746094 27.699219 20.746094 Z M 15.449219 19.878906 L 27.246094 19.878906 L 27.246094 17.476562 L 15.449219 17.476562 Z M 15.449219 19.878906 "/>
<path style=" stroke:none;fill-rule:nonzero;fill:rgb(92.941176%,41.176471%,36.078431%);fill-opacity:1;" d="M 23.949219 13.109375 L 18.742188 13.109375 C 18.492188 13.109375 18.289062 12.917969 18.289062 12.679688 L 18.289062 10.820312 C 18.289062 10.265625 18.757812 9.816406 19.339844 9.816406 L 23.351562 9.816406 C 23.929688 9.816406 24.398438 10.265625 24.398438 10.820312 L 24.398438 12.679688 C 24.398438 12.917969 24.199219 13.109375 23.949219 13.109375 Z M 19.191406 12.242188 L 23.492188 12.242188 L 23.492188 10.8125 C 23.492188 10.738281 23.425781 10.675781 23.347656 10.675781 L 19.332031 10.675781 C 19.253906 10.675781 19.1875 10.738281 19.1875 10.8125 L 19.1875 12.242188 Z M 19.191406 12.242188 "/>
</g>
</svg>
