<?xml version="1.0" encoding="UTF-8"?>
<svg xmlns="http://www.w3.org/2000/svg" xmlns:xlink="http://www.w3.org/1999/xlink" width="28px" height="28px" viewBox="0 0 28 13" version="1.1">
<g id="surface1">
<path style=" stroke:none;fill-rule:nonzero;fill:rgb(92.941176%,41.176471%,36.078431%);fill-opacity:1;" d="M 12.589844 9.976562 L 1.03125 9.976562 C 0.777344 9.976562 0.578125 9.785156 0.578125 9.546875 L 0.578125 7.210938 C 0.578125 5.847656 1.734375 4.742188 3.164062 4.742188 L 10.460938 4.742188 C 11.886719 4.742188 13.046875 5.847656 13.046875 7.210938 L 13.046875 9.546875 C 13.046875 9.785156 12.84375 9.976562 12.59375 9.976562 Z M 1.480469 9.109375 L 12.132812 9.109375 L 12.132812 7.210938 C 12.132812 6.328125 11.382812 5.609375 10.457031 5.609375 L 3.160156 5.609375 C 2.230469 5.609375 1.480469 6.328125 1.480469 7.210938 Z M 1.480469 9.109375 "/>
<path style=" stroke:none;fill-rule:nonzero;fill:rgb(92.941176%,41.176471%,36.078431%);fill-opacity:1;" d="M 1.699219 6.164062 C 1.449219 6.164062 1.25 5.972656 1.25 5.730469 L 1.25 0.4375 C 1.25 0.195312 1.449219 0.00390625 1.699219 0.00390625 L 11.917969 0.00390625 C 12.167969 0.00390625 12.371094 0.195312 12.371094 0.4375 L 12.371094 5.710938 C 12.371094 5.949219 12.167969 6.144531 11.917969 6.144531 C 11.667969 6.144531 11.464844 5.949219 11.464844 5.710938 L 11.464844 0.867188 L 2.15625 0.867188 L 2.15625 5.730469 C 2.15625 5.972656 1.957031 6.164062 1.707031 6.164062 Z M 1.699219 6.164062 "/>
<path style=" stroke:none;fill-rule:nonzero;fill:rgb(92.941176%,41.176471%,36.078431%);fill-opacity:1;" d="M 13.160156 13.246094 L 0.453125 13.246094 C 0.203125 13.246094 0.00390625 13.050781 0.00390625 12.8125 L 0.00390625 9.546875 C 0.00390625 9.304688 0.203125 9.113281 0.453125 9.113281 L 13.160156 9.113281 C 13.410156 9.113281 13.613281 9.304688 13.613281 9.546875 L 13.613281 12.8125 C 13.613281 13.050781 13.410156 13.246094 13.160156 13.246094 Z M 0.910156 12.378906 L 12.707031 12.378906 L 12.707031 9.976562 L 0.910156 9.976562 Z M 0.910156 12.378906 "/>
<path style=" stroke:none;fill-rule:nonzero;fill:rgb(92.941176%,41.176471%,36.078431%);fill-opacity:1;" d="M 9.410156 5.609375 L 4.203125 5.609375 C 3.953125 5.609375 3.75 5.417969 3.75 5.179688 L 3.75 3.320312 C 3.75 2.765625 4.222656 2.316406 4.800781 2.316406 L 8.8125 2.316406 C 9.394531 2.316406 9.863281 2.765625 9.863281 3.320312 L 9.863281 5.179688 C 9.863281 5.417969 9.660156 5.609375 9.410156 5.609375 Z M 4.65625 4.742188 L 8.953125 4.742188 L 8.953125 3.3125 C 8.953125 3.238281 8.886719 3.175781 8.808594 3.175781 L 4.796875 3.175781 C 4.71875 3.175781 4.652344 3.238281 4.652344 3.3125 L 4.652344 4.742188 Z M 4.65625 4.742188 "/>
<path style=" stroke:none;fill-rule:nonzero;fill:rgb(92.941176%,41.176471%,36.078431%);fill-opacity:1;" d="M 27.125 9.976562 L 15.566406 9.976562 C 15.316406 9.976562 15.113281 9.785156 15.113281 9.546875 L 15.113281 7.210938 C 15.113281 5.847656 16.273438 4.742188 17.699219 4.742188 L 24.996094 4.742188 C 26.425781 4.742188 27.582031 5.847656 27.582031 7.210938 L 27.582031 9.546875 C 27.582031 9.785156 27.382812 9.976562 27.132812 9.976562 Z M 16.019531 9.109375 L 26.671875 9.109375 L 26.671875 7.210938 C 26.671875 6.328125 25.917969 5.609375 24.992188 5.609375 L 17.695312 5.609375 C 16.769531 5.609375 16.019531 6.328125 16.019531 7.210938 Z M 16.019531 9.109375 "/>
<path style=" stroke:none;fill-rule:nonzero;fill:rgb(92.941176%,41.176471%,36.078431%);fill-opacity:1;" d="M 26.453125 6.164062 C 26.203125 6.164062 26.003906 5.972656 26.003906 5.730469 L 26.003906 0.867188 L 16.695312 0.867188 L 16.695312 5.730469 C 16.695312 5.972656 16.492188 6.164062 16.242188 6.164062 C 15.992188 6.164062 15.789062 5.972656 15.789062 5.730469 L 15.789062 0.4375 C 15.789062 0.195312 15.992188 0.00390625 16.242188 0.00390625 L 26.460938 0.00390625 C 26.710938 0.00390625 26.910156 0.195312 26.910156 0.4375 L 26.910156 5.730469 C 26.910156 5.972656 26.710938 6.164062 26.460938 6.164062 Z M 26.453125 6.164062 "/>
<path style=" stroke:none;fill-rule:nonzero;fill:rgb(92.941176%,41.176471%,36.078431%);fill-opacity:1;" d="M 27.699219 13.246094 L 14.992188 13.246094 C 14.742188 13.246094 14.539062 13.050781 14.539062 12.8125 L 14.539062 9.546875 C 14.539062 9.304688 14.742188 9.113281 14.992188 9.113281 L 27.699219 9.113281 C 27.949219 9.113281 28.148438 9.304688 28.148438 9.546875 L 28.148438 12.8125 C 28.148438 13.050781 27.949219 13.246094 27.699219 13.246094 Z M 15.449219 12.378906 L 27.246094 12.378906 L 27.246094 9.976562 L 15.449219 9.976562 Z M 15.449219 12.378906 "/>
<path style=" stroke:none;fill-rule:nonzero;fill:rgb(92.941176%,41.176471%,36.078431%);fill-opacity:1;" d="M 23.949219 5.609375 L 18.742188 5.609375 C 18.492188 5.609375 18.289062 5.417969 18.289062 5.179688 L 18.289062 3.320312 C 18.289062 2.765625 18.757812 2.316406 19.339844 2.316406 L 23.351562 2.316406 C 23.929688 2.316406 24.398438 2.765625 24.398438 3.320312 L 24.398438 5.179688 C 24.398438 5.417969 24.199219 5.609375 23.949219 5.609375 Z M 19.191406 4.742188 L 23.492188 4.742188 L 23.492188 3.3125 C 23.492188 3.238281 23.425781 3.175781 23.347656 3.175781 L 19.332031 3.175781 C 19.253906 3.175781 19.1875 3.238281 19.1875 3.3125 L 19.1875 4.742188 Z M 19.191406 4.742188 "/>
</g>
</svg>
