<?xml version="1.0" encoding="UTF-8"?>
<svg xmlns="http://www.w3.org/2000/svg" xmlns:xlink="http://www.w3.org/1999/xlink" width="28px" height="28px" viewBox="0 0 28 28" version="1.1">
<g id="surface1">
<path style=" stroke:none;fill-rule:nonzero;fill:rgb(92.941176%,41.176471%,36.078431%);fill-opacity:1;" d="M 27.695312 0 L 0.46875 0 C 0.210938 0 0 0.210938 0 0.46875 L 0 2.347656 C 0 2.605469 0.210938 2.816406 0.46875 2.816406 L 0.9375 2.816406 L 0.9375 23.003906 C 0.9375 23.261719 1.148438 23.472656 1.40625 23.472656 L 1.878906 23.472656 L 1.878906 27.695312 C 1.878906 27.953125 2.089844 28.164062 2.347656 28.164062 L 4.222656 28.164062 C 4.445312 28.164062 4.640625 28.007812 4.679688 27.789062 L 5.542969 23.472656 L 22.613281 23.472656 L 23.476562 27.789062 C 23.523438 28.007812 23.710938 28.164062 23.933594 28.164062 L 25.8125 28.164062 C 26.070312 28.164062 26.28125 27.953125 26.28125 27.695312 L 26.28125 23.472656 L 26.75 23.472656 C 27.007812 23.472656 27.21875 23.261719 27.21875 23.003906 L 27.21875 2.816406 L 27.6875 2.816406 C 27.949219 2.816406 28.160156 2.605469 28.160156 2.347656 L 28.160156 0.46875 C 28.160156 0.210938 27.949219 0 27.6875 0 Z M 3.835938 27.226562 L 2.816406 27.226562 L 2.816406 23.472656 L 4.59375 23.472656 L 3.84375 27.226562 Z M 25.347656 27.226562 L 24.328125 27.226562 L 23.578125 23.472656 L 25.355469 23.472656 L 25.355469 27.226562 Z M 26.289062 22.53125 L 1.878906 22.53125 L 1.878906 2.816406 L 26.289062 2.816406 Z M 27.226562 1.878906 L 0.9375 1.878906 L 0.9375 0.9375 L 27.226562 0.9375 Z M 27.226562 1.878906 "/>
<path style=" stroke:none;fill-rule:nonzero;fill:rgb(92.941176%,41.176471%,36.078431%);fill-opacity:1;" d="M 24.410156 3.753906 L 3.753906 3.753906 C 3.496094 3.753906 3.285156 3.964844 3.285156 4.222656 L 3.285156 11.734375 C 3.285156 11.992188 3.496094 12.203125 3.753906 12.203125 L 24.410156 12.203125 C 24.667969 12.203125 24.878906 11.992188 24.878906 11.734375 L 24.878906 4.222656 C 24.878906 3.964844 24.667969 3.753906 24.410156 3.753906 Z M 23.941406 11.261719 L 4.222656 11.261719 L 4.222656 4.691406 L 23.941406 4.691406 Z M 23.941406 11.261719 "/>
<path style=" stroke:none;fill-rule:nonzero;fill:rgb(92.941176%,41.176471%,36.078431%);fill-opacity:1;" d="M 24.410156 13.148438 L 3.753906 13.148438 C 3.496094 13.148438 3.285156 13.359375 3.285156 13.617188 L 3.285156 21.125 C 3.285156 21.382812 3.496094 21.59375 3.753906 21.59375 L 24.410156 21.59375 C 24.667969 21.59375 24.878906 21.382812 24.878906 21.125 L 24.878906 13.617188 C 24.878906 13.359375 24.667969 13.148438 24.410156 13.148438 Z M 23.941406 20.65625 L 4.222656 20.65625 L 4.222656 14.085938 L 23.941406 14.085938 Z M 23.941406 20.65625 "/>
<path style=" stroke:none;fill-rule:nonzero;fill:rgb(92.941176%,41.176471%,36.078431%);fill-opacity:1;" d="M 14.085938 5.632812 C 13.304688 5.632812 12.675781 6.265625 12.675781 7.039062 C 12.675781 7.820312 13.3125 8.449219 14.085938 8.449219 C 14.867188 8.449219 15.492188 7.820312 15.492188 7.039062 C 15.492188 6.257812 14.859375 5.632812 14.085938 5.632812 Z M 14.085938 7.507812 C 13.828125 7.507812 13.617188 7.296875 13.617188 7.039062 C 13.617188 6.78125 13.828125 6.570312 14.085938 6.570312 C 14.34375 6.570312 14.554688 6.78125 14.554688 7.039062 C 14.554688 7.296875 14.34375 7.507812 14.085938 7.507812 Z M 14.085938 7.507812 "/>
<path style=" stroke:none;fill-rule:nonzero;fill:rgb(92.941176%,41.176471%,36.078431%);fill-opacity:1;" d="M 14.085938 15.023438 C 13.304688 15.023438 12.675781 15.65625 12.675781 16.433594 C 12.675781 17.210938 13.3125 17.839844 14.085938 17.839844 C 14.867188 17.839844 15.492188 17.210938 15.492188 16.433594 C 15.492188 15.652344 14.859375 15.023438 14.085938 15.023438 Z M 14.085938 16.902344 C 13.828125 16.902344 13.617188 16.691406 13.617188 16.433594 C 13.617188 16.171875 13.828125 15.960938 14.085938 15.960938 C 14.34375 15.960938 14.554688 16.171875 14.554688 16.433594 C 14.554688 16.691406 14.34375 16.902344 14.085938 16.902344 Z M 14.085938 16.902344 "/>
</g>
</svg>
