<?xml version="1.0" encoding="UTF-8"?>
<svg xmlns="http://www.w3.org/2000/svg" xmlns:xlink="http://www.w3.org/1999/xlink" width="28px" height="28px" viewBox="0 0 28 28" version="1.1">
<g id="surface1">
<path style=" stroke:none;fill-rule:nonzero;fill:rgb(92.941176%,41.176471%,36.078431%);fill-opacity:1;" d="M 21.007812 9.976562 L 17.253906 0.613281 C 17.046875 0.117188 16.46875 -0.128906 15.953125 0.0625 L 6.367188 3.730469 C 5.851562 3.925781 5.601562 4.496094 5.800781 5 L 9.582031 14.363281 C 9.789062 14.867188 10.367188 15.113281 10.886719 14.914062 L 20.445312 11.25 C 20.960938 11.050781 21.210938 10.480469 21.007812 9.976562 Z M 10.589844 13.839844 L 6.925781 4.738281 L 16.246094 1.152344 L 19.914062 10.265625 L 10.589844 13.84375 Z M 10.589844 13.839844 "/>
<path style=" stroke:none;fill-rule:nonzero;fill:rgb(92.941176%,41.176471%,36.078431%);fill-opacity:1;" d="M 11.753906 15.851562 L 1.484375 15.851562 C 0.929688 15.851562 0.484375 16.292969 0.484375 16.828125 L 0.484375 26.859375 C 0.484375 27.402344 0.929688 27.835938 1.484375 27.835938 L 11.753906 27.835938 C 12.304688 27.835938 12.753906 27.398438 12.753906 26.859375 L 12.753906 16.828125 C 12.753906 16.289062 12.304688 15.851562 11.753906 15.851562 Z M 11.632812 26.738281 L 1.609375 26.738281 L 1.609375 16.953125 L 11.632812 16.953125 Z M 11.632812 26.738281 "/>
<path style=" stroke:none;fill-rule:nonzero;fill:rgb(92.941176%,41.176471%,36.078431%);fill-opacity:1;" d="M 26.910156 15.796875 L 16.992188 13.21875 C 16.453125 13.089844 15.90625 13.40625 15.765625 13.9375 L 13.125 23.621094 C 12.984375 24.144531 13.296875 24.683594 13.835938 24.820312 L 23.757812 27.398438 C 24.292969 27.535156 24.84375 27.226562 24.984375 26.707031 L 27.597656 16.996094 C 27.742188 16.480469 27.4375 15.941406 26.910156 15.796875 Z M 23.929688 26.253906 L 14.246094 23.769531 L 16.820312 14.316406 L 26.503906 16.835938 Z M 23.929688 26.253906 "/>
<path style=" stroke:none;fill-rule:nonzero;fill:rgb(92.941176%,41.176471%,36.078431%);fill-opacity:1;" d="M 16.777344 8.578125 C 16.671875 8.386719 16.535156 8.214844 16.375 8.070312 L 13.558594 5.167969 L 13.222656 4.816406 C 13.140625 4.734375 13.050781 4.652344 12.949219 4.589844 C 12.851562 4.523438 12.730469 4.480469 12.609375 4.460938 C 12.320312 4.441406 12.039062 4.550781 11.84375 4.757812 C 11.765625 4.851562 11.710938 4.960938 11.679688 5.082031 C 11.652344 5.21875 11.640625 5.355469 11.644531 5.5 C 11.644531 5.660156 11.644531 5.796875 11.644531 5.914062 L 11.644531 9.921875 C 11.652344 10.089844 11.660156 10.21875 11.671875 10.304688 C 11.675781 10.386719 11.695312 10.46875 11.726562 10.546875 C 11.777344 10.671875 11.886719 10.773438 12.023438 10.820312 C 12.160156 10.878906 12.316406 10.878906 12.453125 10.820312 C 12.59375 10.785156 12.703125 10.679688 12.753906 10.546875 C 12.796875 10.335938 12.8125 10.117188 12.800781 9.902344 L 12.800781 9.121094 L 15.027344 8.261719 L 15.558594 8.8125 L 15.804688 9.054688 C 15.871094 9.128906 15.945312 9.1875 16.03125 9.242188 C 16.097656 9.277344 16.167969 9.300781 16.242188 9.308594 C 16.324219 9.3125 16.402344 9.296875 16.484375 9.269531 C 16.613281 9.214844 16.722656 9.121094 16.785156 8.988281 C 16.839844 8.859375 16.839844 8.710938 16.785156 8.585938 Z M 12.742188 8.175781 L 12.664062 5.675781 L 14.378906 7.550781 L 12.742188 8.179688 Z M 12.742188 8.175781 "/>
<path style=" stroke:none;fill-rule:nonzero;fill:rgb(92.941176%,41.176471%,36.078431%);fill-opacity:1;" d="M 8.027344 21.414062 C 8.5625 21.214844 8.914062 20.710938 8.910156 20.15625 C 8.910156 19.992188 8.878906 19.835938 8.820312 19.683594 C 8.765625 19.527344 8.6875 19.394531 8.578125 19.269531 C 8.476562 19.144531 8.351562 19.042969 8.210938 18.960938 C 8.039062 18.863281 7.847656 18.789062 7.644531 18.761719 C 7.40625 18.726562 7.164062 18.714844 6.917969 18.714844 L 5.046875 18.714844 C 4.84375 18.691406 4.640625 18.75 4.480469 18.875 C 4.351562 19.035156 4.292969 19.230469 4.3125 19.429688 L 4.3125 23.746094 C 4.292969 23.945312 4.347656 24.140625 4.476562 24.296875 C 4.632812 24.433594 4.839844 24.492188 5.046875 24.46875 L 6.839844 24.46875 C 7.105469 24.457031 7.363281 24.4375 7.625 24.394531 C 7.835938 24.371094 8.050781 24.316406 8.25 24.238281 C 8.527344 24.121094 8.765625 23.933594 8.929688 23.683594 C 9.101562 23.429688 9.1875 23.128906 9.183594 22.816406 C 9.199219 22.140625 8.707031 21.546875 8.023438 21.414062 Z M 5.523438 19.59375 L 6.460938 19.59375 C 6.789062 19.578125 7.113281 19.628906 7.425781 19.738281 C 7.636719 19.839844 7.761719 20.058594 7.738281 20.289062 C 7.738281 20.414062 7.710938 20.546875 7.636719 20.65625 C 7.5625 20.804688 7.425781 20.917969 7.265625 20.96875 C 7.039062 21.035156 6.808594 21.058594 6.578125 21.050781 L 5.492188 21.050781 L 5.523438 19.589844 Z M 7.980469 22.734375 C 7.980469 23.300781 7.578125 23.585938 6.777344 23.585938 L 5.496094 23.585938 L 5.523438 21.914062 L 6.746094 21.914062 C 7.070312 21.898438 7.394531 21.964844 7.683594 22.113281 C 7.890625 22.257812 8.003906 22.492188 7.984375 22.742188 Z M 7.980469 22.734375 "/>
<path style=" stroke:none;fill-rule:nonzero;fill:rgb(92.941176%,41.176471%,36.078431%);fill-opacity:1;" d="M 23.195312 18.679688 C 23.046875 18.332031 22.816406 18.027344 22.523438 17.789062 C 22.195312 17.523438 21.808594 17.335938 21.394531 17.238281 C 21.027344 17.136719 20.644531 17.113281 20.265625 17.15625 C 19.902344 17.199219 19.550781 17.316406 19.238281 17.5 C 18.914062 17.691406 18.640625 17.957031 18.421875 18.257812 C 18.179688 18.609375 18 18.992188 17.898438 19.402344 C 17.824219 19.664062 17.78125 19.929688 17.765625 20.199219 C 17.75 20.453125 17.769531 20.707031 17.8125 20.953125 C 17.863281 21.1875 17.9375 21.417969 18.039062 21.636719 C 18.148438 21.863281 18.296875 22.066406 18.46875 22.246094 C 18.644531 22.417969 18.847656 22.566406 19.066406 22.683594 C 19.320312 22.808594 19.582031 22.914062 19.859375 22.980469 C 20.210938 23.082031 20.585938 23.109375 20.945312 23.0625 C 21.253906 23.019531 21.550781 22.90625 21.808594 22.746094 C 22.027344 22.613281 22.21875 22.449219 22.371094 22.25 C 22.503906 22.089844 22.601562 21.902344 22.660156 21.699219 C 22.695312 21.570312 22.679688 21.425781 22.605469 21.3125 C 22.539062 21.195312 22.425781 21.117188 22.292969 21.082031 C 22.160156 21.039062 22.015625 21.054688 21.902344 21.132812 C 21.796875 21.222656 21.703125 21.328125 21.625 21.441406 C 21.449219 21.691406 21.199219 21.882812 20.914062 21.992188 C 20.621094 22.082031 20.304688 22.082031 20.011719 21.992188 C 19.742188 21.941406 19.5 21.820312 19.296875 21.644531 C 19.097656 21.425781 18.976562 21.15625 18.949219 20.867188 C 18.910156 20.496094 18.949219 20.121094 19.058594 19.761719 C 19.15625 19.210938 19.445312 18.707031 19.878906 18.339844 C 20.242188 18.066406 20.71875 17.984375 21.15625 18.109375 C 21.421875 18.171875 21.664062 18.308594 21.84375 18.507812 C 22.027344 18.726562 22.148438 18.980469 22.207031 19.261719 C 22.238281 19.40625 22.285156 19.546875 22.359375 19.675781 C 22.429688 19.773438 22.542969 19.84375 22.664062 19.863281 C 22.792969 19.902344 22.929688 19.878906 23.039062 19.804688 C 23.152344 19.738281 23.238281 19.632812 23.269531 19.503906 C 23.332031 19.226562 23.300781 18.941406 23.1875 18.679688 Z M 23.195312 18.679688 "/>
</g>
</svg>
