<?xml version="1.0" encoding="UTF-8"?>
<svg xmlns="http://www.w3.org/2000/svg" xmlns:xlink="http://www.w3.org/1999/xlink" width="28px" height="28px" viewBox="0 0 28 29" version="1.1">
<g id="surface1">
<path style=" stroke:none;fill-rule:nonzero;fill:rgb(92.941176%,41.176471%,36.078431%);fill-opacity:1;" d="M 21.257812 10.332031 L 17.371094 0.636719 C 17.15625 0.121094 16.558594 -0.132812 16.023438 0.0664062 L 6.09375 3.863281 C 5.558594 4.066406 5.300781 4.65625 5.507812 5.179688 L 9.425781 14.875 C 9.636719 15.398438 10.238281 15.652344 10.777344 15.445312 L 20.675781 11.652344 C 21.210938 11.445312 21.46875 10.855469 21.257812 10.332031 Z M 10.46875 14.335938 L 6.671875 4.90625 L 16.328125 1.195312 L 20.125 10.632812 L 10.46875 14.339844 Z M 10.46875 14.335938 "/>
<path style=" stroke:none;fill-rule:nonzero;fill:rgb(92.941176%,41.176471%,36.078431%);fill-opacity:1;" d="M 11.671875 16.417969 L 1.039062 16.417969 C 0.460938 16.417969 0 16.875 0 17.429688 L 0 27.820312 C 0 28.382812 0.460938 28.832031 1.039062 28.832031 L 11.671875 28.832031 C 12.246094 28.832031 12.710938 28.375 12.710938 27.820312 L 12.710938 17.429688 C 12.710938 16.871094 12.242188 16.417969 11.671875 16.417969 Z M 11.546875 27.691406 L 1.167969 27.691406 L 1.167969 17.558594 L 11.546875 17.558594 Z M 11.546875 27.691406 "/>
<path style=" stroke:none;fill-rule:nonzero;fill:rgb(92.941176%,41.176471%,36.078431%);fill-opacity:1;" d="M 27.371094 16.359375 L 17.097656 13.691406 C 16.539062 13.558594 15.972656 13.886719 15.828125 14.433594 L 13.09375 24.464844 C 12.949219 25.007812 13.273438 25.566406 13.828125 25.707031 L 24.105469 28.375 C 24.660156 28.519531 25.230469 28.199219 25.375 27.660156 L 28.082031 17.601562 C 28.234375 17.070312 27.917969 16.511719 27.371094 16.359375 Z M 24.285156 27.191406 L 14.253906 24.617188 L 16.921875 14.828125 L 26.949219 17.4375 Z M 24.285156 27.191406 "/>
<path style=" stroke:none;fill-rule:nonzero;fill:rgb(92.941176%,41.176471%,36.078431%);fill-opacity:1;" d="M 16.875 8.882812 C 16.765625 8.6875 16.625 8.507812 16.460938 8.359375 L 13.542969 5.351562 L 13.195312 4.988281 C 13.109375 4.902344 13.015625 4.820312 12.910156 4.753906 C 12.808594 4.683594 12.683594 4.640625 12.558594 4.621094 C 12.261719 4.601562 11.96875 4.714844 11.765625 4.929688 C 11.6875 5.023438 11.628906 5.136719 11.597656 5.261719 C 11.570312 5.40625 11.554688 5.546875 11.558594 5.695312 C 11.558594 5.863281 11.558594 6.003906 11.558594 6.125 L 11.558594 10.277344 C 11.570312 10.449219 11.578125 10.582031 11.589844 10.671875 C 11.59375 10.757812 11.613281 10.84375 11.644531 10.921875 C 11.699219 11.054688 11.8125 11.160156 11.953125 11.207031 C 12.09375 11.265625 12.257812 11.265625 12.398438 11.207031 C 12.542969 11.171875 12.65625 11.0625 12.710938 10.921875 C 12.753906 10.703125 12.769531 10.480469 12.757812 10.257812 L 12.757812 9.445312 L 15.0625 8.558594 L 15.613281 9.128906 L 15.867188 9.378906 C 15.9375 9.453125 16.015625 9.515625 16.105469 9.570312 C 16.171875 9.609375 16.246094 9.632812 16.320312 9.640625 C 16.40625 9.644531 16.488281 9.628906 16.574219 9.601562 C 16.707031 9.542969 16.820312 9.445312 16.882812 9.308594 C 16.941406 9.175781 16.941406 9.023438 16.882812 8.890625 Z M 12.699219 8.46875 L 12.617188 5.878906 L 14.390625 7.820312 L 12.695312 8.472656 Z M 12.699219 8.46875 "/>
<path style=" stroke:none;fill-rule:nonzero;fill:rgb(92.941176%,41.176471%,36.078431%);fill-opacity:1;" d="M 7.8125 22.179688 C 8.367188 21.972656 8.734375 21.449219 8.726562 20.875 C 8.726562 20.707031 8.695312 20.542969 8.636719 20.386719 C 8.578125 20.226562 8.496094 20.085938 8.382812 19.957031 C 8.277344 19.828125 8.148438 19.722656 8.003906 19.636719 C 7.824219 19.535156 7.628906 19.460938 7.417969 19.433594 C 7.171875 19.394531 6.917969 19.382812 6.664062 19.382812 L 4.726562 19.382812 C 4.515625 19.359375 4.304688 19.417969 4.140625 19.550781 C 4.007812 19.714844 3.945312 19.917969 3.964844 20.125 L 3.964844 24.59375 C 3.945312 24.800781 4.003906 25.003906 4.136719 25.164062 C 4.296875 25.304688 4.511719 25.367188 4.726562 25.34375 L 6.585938 25.34375 C 6.859375 25.332031 7.125 25.308594 7.398438 25.265625 C 7.617188 25.242188 7.839844 25.183594 8.042969 25.105469 C 8.332031 24.984375 8.578125 24.789062 8.75 24.53125 C 8.925781 24.265625 9.015625 23.953125 9.011719 23.632812 C 9.027344 22.929688 8.519531 22.316406 7.808594 22.179688 Z M 5.21875 20.292969 L 6.191406 20.292969 C 6.53125 20.277344 6.867188 20.328125 7.191406 20.441406 C 7.410156 20.546875 7.539062 20.773438 7.515625 21.011719 C 7.515625 21.144531 7.484375 21.28125 7.410156 21.394531 C 7.332031 21.546875 7.191406 21.664062 7.023438 21.71875 C 6.789062 21.785156 6.550781 21.8125 6.3125 21.800781 L 5.1875 21.800781 L 5.21875 20.289062 Z M 7.765625 23.546875 C 7.765625 24.132812 7.347656 24.429688 6.519531 24.429688 L 5.191406 24.429688 L 5.222656 22.695312 L 6.488281 22.695312 C 6.824219 22.679688 7.160156 22.75 7.457031 22.902344 C 7.671875 23.050781 7.789062 23.296875 7.769531 23.554688 Z M 7.765625 23.546875 "/>
<path style=" stroke:none;fill-rule:nonzero;fill:rgb(92.941176%,41.176471%,36.078431%);fill-opacity:1;" d="M 23.523438 19.347656 C 23.371094 18.988281 23.132812 18.671875 22.828125 18.425781 C 22.488281 18.148438 22.085938 17.953125 21.660156 17.855469 C 21.277344 17.75 20.882812 17.722656 20.488281 17.769531 C 20.113281 17.8125 19.75 17.933594 19.425781 18.125 C 19.089844 18.324219 18.804688 18.597656 18.578125 18.910156 C 18.328125 19.273438 18.144531 19.671875 18.039062 20.09375 C 17.960938 20.367188 17.917969 20.640625 17.898438 20.921875 C 17.882812 21.183594 17.902344 21.445312 17.949219 21.703125 C 18 21.945312 18.078125 22.183594 18.183594 22.410156 C 18.296875 22.644531 18.449219 22.855469 18.628906 23.039062 C 18.808594 23.21875 19.019531 23.371094 19.246094 23.492188 C 19.511719 23.625 19.78125 23.730469 20.070312 23.800781 C 20.433594 23.90625 20.820312 23.933594 21.195312 23.886719 C 21.511719 23.839844 21.820312 23.722656 22.085938 23.558594 C 22.3125 23.421875 22.511719 23.25 22.671875 23.042969 C 22.808594 22.878906 22.910156 22.683594 22.96875 22.472656 C 23.007812 22.339844 22.988281 22.191406 22.914062 22.074219 C 22.84375 21.953125 22.726562 21.871094 22.589844 21.835938 C 22.453125 21.789062 22.300781 21.808594 22.183594 21.886719 C 22.074219 21.980469 21.976562 22.089844 21.898438 22.207031 C 21.714844 22.464844 21.457031 22.664062 21.160156 22.777344 C 20.859375 22.871094 20.53125 22.871094 20.226562 22.777344 C 19.949219 22.726562 19.695312 22.601562 19.484375 22.417969 C 19.28125 22.191406 19.15625 21.910156 19.125 21.613281 C 19.085938 21.226562 19.125 20.839844 19.238281 20.46875 C 19.339844 19.898438 19.640625 19.375 20.089844 18.996094 C 20.464844 18.710938 20.957031 18.625 21.410156 18.757812 C 21.6875 18.820312 21.9375 18.960938 22.125 19.167969 C 22.3125 19.394531 22.441406 19.660156 22.5 19.949219 C 22.53125 20.097656 22.582031 20.246094 22.65625 20.378906 C 22.730469 20.480469 22.847656 20.550781 22.972656 20.574219 C 23.105469 20.613281 23.25 20.589844 23.363281 20.511719 C 23.480469 20.441406 23.566406 20.332031 23.601562 20.199219 C 23.664062 19.914062 23.632812 19.617188 23.515625 19.347656 Z M 23.523438 19.347656 "/>
</g>
</svg>
