<?xml version="1.0" encoding="UTF-8"?>
<svg xmlns="http://www.w3.org/2000/svg" xmlns:xlink="http://www.w3.org/1999/xlink" width="28px" height="28px" viewBox="0 0 28 25" version="1.1">
<g id="surface1">
<path style=" stroke:none;fill-rule:nonzero;fill:rgb(92.941176%,41.176471%,36.078431%);fill-opacity:1;" d="M 24.128906 4.53125 C 24.128906 4.78125 23.921875 4.984375 23.667969 4.984375 C 23.410156 4.984375 23.203125 4.78125 23.203125 4.53125 C 23.203125 4.28125 23.410156 4.078125 23.667969 4.078125 C 23.921875 4.078125 24.128906 4.28125 24.128906 4.53125 Z M 24.128906 4.53125 "/>
<path style=" stroke:none;fill-rule:nonzero;fill:rgb(92.941176%,41.176471%,36.078431%);fill-opacity:1;" d="M 2.789062 15.40625 C 3.730469 15.472656 4.652344 15.117188 5.292969 14.433594 C 5.390625 14.605469 5.5 14.765625 5.621094 14.925781 C 5.746094 15.09375 5.730469 15.324219 5.585938 15.476562 C 4.757812 16.40625 4.082031 17.449219 3.574219 18.574219 C 3.464844 18.492188 3.363281 18.402344 3.265625 18.304688 C 2.601562 17.554688 1.445312 17.464844 0.664062 18.101562 C -0.117188 18.746094 -0.21875 19.890625 0.441406 20.652344 C 0.589844 20.828125 4.226562 24.925781 13.921875 24.925781 C 23.613281 24.925781 27.253906 20.828125 27.402344 20.652344 C 27.992188 19.96875 27.976562 18.96875 27.375 18.296875 C 26.769531 17.628906 25.75 17.488281 24.980469 17.972656 C 24.328125 16.550781 23.417969 15.25 22.300781 14.140625 C 22.171875 14.007812 22.136719 13.8125 22.210938 13.644531 C 22.90625 11.832031 22.589844 9.355469 22.382812 8.21875 C 22.761719 8.324219 23.109375 8.523438 23.386719 8.796875 C 23.820312 9.246094 24.421875 9.503906 25.050781 9.515625 C 26.109375 9.515625 27.375 9.046875 27.375 6.796875 C 27.375 5.925781 25.867188 3.429688 25.167969 2.320312 C 25.640625 1.804688 25.925781 1.148438 25.980469 0.457031 C 25.980469 0.203125 25.773438 0.00390625 25.519531 0.00390625 C 24.726562 0 23.941406 0.140625 23.203125 0.414062 C 22.617188 0.164062 21.984375 0.0273438 21.34375 0.00390625 C 16.546875 0.00390625 15.269531 5.117188 14.9375 7.316406 C 14.90625 7.539062 14.710938 7.707031 14.476562 7.707031 L 8.351562 7.707031 C 7.953125 7.707031 7.5625 7.765625 7.1875 7.882812 C 6.757812 6.632812 5.523438 5.816406 4.171875 5.894531 C 3.171875 5.84375 2.226562 6.332031 1.699219 7.164062 C 1.089844 8.21875 0.992188 9.488281 1.433594 10.625 C 1.742188 11.195312 1.808594 11.851562 1.628906 12.472656 C 1.371094 13.027344 0.882812 13.449219 0.28125 13.628906 C 0.164062 13.675781 0.0664062 13.773438 0.0234375 13.890625 C -0.0234375 14.011719 -0.015625 14.140625 0.0429688 14.253906 C 0.105469 14.375 0.699219 15.410156 2.78125 15.410156 Z M 26.589844 18.804688 C 26.777344 18.957031 26.890625 19.179688 26.910156 19.414062 C 26.929688 19.648438 26.851562 19.886719 26.695312 20.066406 C 26.554688 20.226562 23.183594 24.011719 13.921875 24.011719 C 4.660156 24.011719 1.289062 20.226562 1.148438 20.066406 C 0.917969 19.796875 0.863281 19.421875 1.015625 19.101562 C 1.167969 18.78125 1.496094 18.578125 1.855469 18.574219 C 2.132812 18.574219 2.390625 18.695312 2.570312 18.898438 C 2.699219 19.035156 5.746094 22.203125 13.925781 22.203125 C 22.160156 22.203125 25.160156 19.03125 25.285156 18.894531 C 25.621094 18.523438 26.203125 18.480469 26.59375 18.804688 Z M 14.980469 16.269531 C 16.304688 15.964844 17.667969 15.824219 19.027344 15.859375 C 19.273438 15.859375 19.519531 15.839844 19.761719 15.796875 C 19.90625 15.765625 20.0625 15.804688 20.171875 15.902344 C 21.253906 16.941406 22.105469 18.191406 22.652344 19.574219 C 21.003906 20.390625 18.207031 21.300781 13.921875 21.300781 C 10.265625 21.300781 7.695312 20.636719 5.992188 19.9375 C 6.476562 18.746094 7.21875 17.664062 8.167969 16.773438 C 8.269531 16.679688 8.410156 16.636719 8.550781 16.660156 C 8.949219 16.734375 9.347656 16.765625 9.75 16.765625 C 11.507812 16.824219 13.265625 16.65625 14.980469 16.269531 Z M 25.058594 8.609375 C 24.742188 8.613281 24.433594 8.492188 24.199219 8.277344 L 26.285156 6.242188 C 26.371094 6.417969 26.429688 6.605469 26.453125 6.796875 C 26.453125 8.390625 25.785156 8.609375 25.0625 8.609375 Z M 24.199219 2.507812 C 24.804688 3.445312 25.429688 4.515625 25.867188 5.367188 L 23.46875 7.707031 C 22.976562 7.390625 22.398438 7.230469 21.808594 7.25 C 21.667969 7.25 21.53125 7.3125 21.445312 7.421875 C 21.359375 7.53125 21.324219 7.675781 21.359375 7.808594 C 21.363281 7.84375 22.15625 11.207031 21.34375 13.328125 C 21.140625 13.832031 21.261719 14.402344 21.648438 14.789062 C 22.746094 15.886719 23.632812 17.179688 24.246094 18.589844 C 23.996094 18.785156 23.738281 18.964844 23.46875 19.128906 C 22.867188 17.664062 21.957031 16.339844 20.796875 15.242188 C 20.472656 14.945312 20.015625 14.824219 19.582031 14.914062 C 19.398438 14.945312 19.210938 14.960938 19.023438 14.957031 C 17.59375 14.921875 16.164062 15.066406 14.773438 15.390625 C 14.035156 15.566406 13.285156 15.6875 12.53125 15.757812 L 12.53125 13.148438 C 14.066406 13.144531 15.308594 11.929688 15.3125 10.429688 L 15.3125 8.617188 L 16.242188 8.617188 C 17.648438 8.617188 18.152344 7.101562 18.546875 5.554688 C 18.765625 4.703125 19.429688 2.726562 20.882812 2.726562 C 22.265625 2.726562 23.222656 1.640625 23.503906 1.277344 C 23.964844 1.097656 24.449219 0.988281 24.945312 0.941406 C 24.796875 1.324219 24.566406 1.667969 24.265625 1.953125 C 24.109375 2.105469 24.085938 2.335938 24.199219 2.515625 Z M 21.34375 0.90625 C 21.710938 0.917969 22.074219 0.980469 22.421875 1.097656 C 22.019531 1.519531 21.472656 1.777344 20.878906 1.816406 C 19.394531 1.816406 18.21875 3.097656 17.644531 5.328125 C 17.136719 7.308594 16.730469 7.707031 16.238281 7.707031 L 15.792969 7.707031 C 15.824219 7.621094 15.84375 7.53125 15.859375 7.445312 C 16.152344 5.480469 17.273438 0.90625 21.34375 0.90625 Z M 14.382812 8.609375 L 14.382812 10.421875 C 14.382812 11.421875 13.554688 12.234375 12.53125 12.234375 L 11.601562 12.234375 C 10.574219 12.234375 9.746094 11.421875 9.746094 10.421875 L 9.746094 8.609375 Z M 8.816406 8.609375 L 8.816406 10.421875 C 8.816406 11.921875 10.0625 13.136719 11.601562 13.140625 L 11.601562 15.816406 C 11.074219 15.839844 10.464844 15.855469 9.746094 15.855469 C 9.402344 15.855469 9.058594 15.828125 8.726562 15.765625 C 8.296875 15.683594 7.859375 15.808594 7.539062 16.097656 C 6.503906 17.070312 5.691406 18.246094 5.152344 19.550781 C 4.84375 19.394531 4.574219 19.242188 4.34375 19.101562 C 4.824219 18 5.476562 16.976562 6.277344 16.074219 C 6.71875 15.597656 6.75 14.878906 6.355469 14.367188 C 5.414062 13.144531 5.234375 11.515625 5.886719 10.121094 C 6.324219 9.179688 7.296875 8.585938 8.355469 8.609375 L 8.820312 8.609375 Z M 2.5 12.792969 C 2.78125 11.9375 2.699219 11.011719 2.269531 10.21875 C 1.972656 9.367188 2.046875 8.429688 2.488281 7.636719 C 2.847656 7.074219 3.5 6.753906 4.175781 6.796875 C 5.171875 6.710938 6.082031 7.332031 6.34375 8.269531 C 5.789062 8.632812 5.339844 9.132812 5.050781 9.722656 C 4.496094 10.894531 4.425781 12.230469 4.847656 13.453125 C 4.496094 14.144531 3.808594 14.5 2.789062 14.5 C 2.257812 14.523438 1.730469 14.414062 1.261719 14.171875 C 1.828125 13.867188 2.265625 13.375 2.507812 12.792969 Z M 2.5 12.792969 "/>
</g>
</svg>
