<?xml version="1.0" encoding="UTF-8"?>
<svg xmlns="http://www.w3.org/2000/svg" xmlns:xlink="http://www.w3.org/1999/xlink" width="28px" height="28px" viewBox="0 0 28 28" version="1.1">
<g id="surface1">
<path style=" stroke:none;fill-rule:nonzero;fill:rgb(92.941176%,41.176471%,36.078431%);fill-opacity:1;" d="M 24.128906 6.03125 C 24.128906 6.28125 23.921875 6.484375 23.667969 6.484375 C 23.410156 6.484375 23.203125 6.28125 23.203125 6.03125 C 23.203125 5.78125 23.410156 5.578125 23.667969 5.578125 C 23.921875 5.578125 24.128906 5.78125 24.128906 6.03125 Z M 24.128906 6.03125 "/>
<path style=" stroke:none;fill-rule:nonzero;fill:rgb(92.941176%,41.176471%,36.078431%);fill-opacity:1;" d="M 2.789062 16.90625 C 3.730469 16.972656 4.652344 16.617188 5.292969 15.933594 C 5.390625 16.105469 5.5 16.265625 5.621094 16.425781 C 5.746094 16.59375 5.730469 16.824219 5.585938 16.976562 C 4.757812 17.90625 4.082031 18.949219 3.574219 20.074219 C 3.464844 19.992188 3.363281 19.902344 3.265625 19.804688 C 2.601562 19.054688 1.445312 18.964844 0.664062 19.601562 C -0.117188 20.246094 -0.21875 21.390625 0.441406 22.152344 C 0.589844 22.328125 4.226562 26.425781 13.921875 26.425781 C 23.613281 26.425781 27.253906 22.328125 27.402344 22.152344 C 27.992188 21.46875 27.976562 20.46875 27.375 19.796875 C 26.769531 19.128906 25.75 18.988281 24.980469 19.472656 C 24.328125 18.050781 23.417969 16.75 22.300781 15.640625 C 22.171875 15.507812 22.136719 15.3125 22.210938 15.144531 C 22.90625 13.332031 22.589844 10.855469 22.382812 9.71875 C 22.761719 9.824219 23.109375 10.023438 23.386719 10.296875 C 23.820312 10.746094 24.421875 11.003906 25.050781 11.015625 C 26.109375 11.015625 27.375 10.546875 27.375 8.296875 C 27.375 7.425781 25.867188 4.929688 25.167969 3.820312 C 25.640625 3.304688 25.925781 2.648438 25.980469 1.957031 C 25.980469 1.703125 25.773438 1.503906 25.519531 1.503906 C 24.726562 1.5 23.941406 1.640625 23.203125 1.914062 C 22.617188 1.664062 21.984375 1.527344 21.34375 1.503906 C 16.546875 1.503906 15.269531 6.617188 14.9375 8.816406 C 14.90625 9.039062 14.710938 9.207031 14.476562 9.207031 L 8.351562 9.207031 C 7.953125 9.207031 7.5625 9.265625 7.1875 9.382812 C 6.757812 8.132812 5.523438 7.316406 4.171875 7.394531 C 3.171875 7.34375 2.226562 7.832031 1.699219 8.664062 C 1.089844 9.71875 0.992188 10.988281 1.433594 12.125 C 1.742188 12.695312 1.808594 13.351562 1.628906 13.972656 C 1.371094 14.527344 0.882812 14.949219 0.28125 15.128906 C 0.164062 15.175781 0.0664062 15.273438 0.0234375 15.390625 C -0.0234375 15.511719 -0.015625 15.640625 0.0429688 15.753906 C 0.105469 15.875 0.699219 16.910156 2.78125 16.910156 Z M 26.589844 20.304688 C 26.777344 20.457031 26.890625 20.679688 26.910156 20.914062 C 26.929688 21.148438 26.851562 21.386719 26.695312 21.566406 C 26.554688 21.726562 23.183594 25.511719 13.921875 25.511719 C 4.660156 25.511719 1.289062 21.726562 1.148438 21.566406 C 0.917969 21.296875 0.863281 20.921875 1.015625 20.601562 C 1.167969 20.28125 1.496094 20.078125 1.855469 20.074219 C 2.132812 20.074219 2.390625 20.195312 2.570312 20.398438 C 2.699219 20.535156 5.746094 23.703125 13.925781 23.703125 C 22.160156 23.703125 25.160156 20.53125 25.285156 20.394531 C 25.621094 20.023438 26.203125 19.980469 26.59375 20.304688 Z M 14.980469 17.769531 C 16.304688 17.464844 17.667969 17.324219 19.027344 17.359375 C 19.273438 17.359375 19.519531 17.339844 19.761719 17.296875 C 19.90625 17.265625 20.0625 17.304688 20.171875 17.402344 C 21.253906 18.441406 22.105469 19.691406 22.652344 21.074219 C 21.003906 21.890625 18.207031 22.800781 13.921875 22.800781 C 10.265625 22.800781 7.695312 22.136719 5.992188 21.4375 C 6.476562 20.246094 7.21875 19.164062 8.167969 18.273438 C 8.269531 18.179688 8.410156 18.136719 8.550781 18.160156 C 8.949219 18.234375 9.347656 18.265625 9.75 18.265625 C 11.507812 18.324219 13.265625 18.15625 14.980469 17.769531 Z M 25.058594 10.109375 C 24.742188 10.113281 24.433594 9.992188 24.199219 9.777344 L 26.285156 7.742188 C 26.371094 7.917969 26.429688 8.105469 26.453125 8.296875 C 26.453125 9.890625 25.785156 10.109375 25.0625 10.109375 Z M 24.199219 4.007812 C 24.804688 4.945312 25.429688 6.015625 25.867188 6.867188 L 23.46875 9.207031 C 22.976562 8.890625 22.398438 8.730469 21.808594 8.75 C 21.667969 8.75 21.53125 8.8125 21.445312 8.921875 C 21.359375 9.03125 21.324219 9.175781 21.359375 9.308594 C 21.363281 9.34375 22.15625 12.707031 21.34375 14.828125 C 21.140625 15.332031 21.261719 15.902344 21.648438 16.289062 C 22.746094 17.386719 23.632812 18.679688 24.246094 20.089844 C 23.996094 20.285156 23.738281 20.464844 23.46875 20.628906 C 22.867188 19.164062 21.957031 17.839844 20.796875 16.742188 C 20.472656 16.445312 20.015625 16.324219 19.582031 16.414062 C 19.398438 16.445312 19.210938 16.460938 19.023438 16.457031 C 17.59375 16.421875 16.164062 16.566406 14.773438 16.890625 C 14.035156 17.066406 13.285156 17.1875 12.53125 17.257812 L 12.53125 14.648438 C 14.066406 14.644531 15.308594 13.429688 15.3125 11.929688 L 15.3125 10.117188 L 16.242188 10.117188 C 17.648438 10.117188 18.152344 8.601562 18.546875 7.054688 C 18.765625 6.203125 19.429688 4.226562 20.882812 4.226562 C 22.265625 4.226562 23.222656 3.140625 23.503906 2.777344 C 23.964844 2.597656 24.449219 2.488281 24.945312 2.441406 C 24.796875 2.824219 24.566406 3.167969 24.265625 3.453125 C 24.109375 3.605469 24.085938 3.835938 24.199219 4.015625 Z M 21.34375 2.40625 C 21.710938 2.417969 22.074219 2.480469 22.421875 2.597656 C 22.019531 3.019531 21.472656 3.277344 20.878906 3.316406 C 19.394531 3.316406 18.21875 4.597656 17.644531 6.828125 C 17.136719 8.808594 16.730469 9.207031 16.238281 9.207031 L 15.792969 9.207031 C 15.824219 9.121094 15.84375 9.03125 15.859375 8.945312 C 16.152344 6.980469 17.273438 2.40625 21.34375 2.40625 Z M 14.382812 10.109375 L 14.382812 11.921875 C 14.382812 12.921875 13.554688 13.734375 12.53125 13.734375 L 11.601562 13.734375 C 10.574219 13.734375 9.746094 12.921875 9.746094 11.921875 L 9.746094 10.109375 Z M 8.816406 10.109375 L 8.816406 11.921875 C 8.816406 13.421875 10.0625 14.636719 11.601562 14.640625 L 11.601562 17.316406 C 11.074219 17.339844 10.464844 17.355469 9.746094 17.355469 C 9.402344 17.355469 9.058594 17.328125 8.726562 17.265625 C 8.296875 17.183594 7.859375 17.308594 7.539062 17.597656 C 6.503906 18.570312 5.691406 19.746094 5.152344 21.050781 C 4.84375 20.894531 4.574219 20.742188 4.34375 20.601562 C 4.824219 19.5 5.476562 18.476562 6.277344 17.574219 C 6.71875 17.097656 6.75 16.378906 6.355469 15.867188 C 5.414062 14.644531 5.234375 13.015625 5.886719 11.621094 C 6.324219 10.679688 7.296875 10.085938 8.355469 10.109375 L 8.820312 10.109375 Z M 2.5 14.292969 C 2.78125 13.4375 2.699219 12.511719 2.269531 11.71875 C 1.972656 10.867188 2.046875 9.929688 2.488281 9.136719 C 2.847656 8.574219 3.5 8.253906 4.175781 8.296875 C 5.171875 8.210938 6.082031 8.832031 6.34375 9.769531 C 5.789062 10.132812 5.339844 10.632812 5.050781 11.222656 C 4.496094 12.394531 4.425781 13.730469 4.847656 14.953125 C 4.496094 15.644531 3.808594 16 2.789062 16 C 2.257812 16.023438 1.730469 15.914062 1.261719 15.671875 C 1.828125 15.367188 2.265625 14.875 2.507812 14.292969 Z M 2.5 14.292969 "/>
</g>
</svg>
