<?xml version="1.0" encoding="UTF-8"?>
<svg xmlns="http://www.w3.org/2000/svg" xmlns:xlink="http://www.w3.org/1999/xlink" width="28px" height="28px" viewBox="0 0 28 32" version="1.1">
<g id="surface1">
<path style=" stroke:none;fill-rule:nonzero;fill:rgb(92.941176%,41.176471%,36.078431%);fill-opacity:1;" d="M 14.203125 17.953125 C 15.554688 17.949219 16.816406 17.28125 17.5625 16.167969 C 18.304688 15.058594 18.433594 13.652344 17.90625 12.425781 C 17.894531 12.398438 17.878906 12.371094 17.863281 12.34375 C 17.207031 10.9375 15.777344 10.03125 14.207031 10.03125 C 12.632812 10.03125 11.203125 10.9375 10.546875 12.34375 C 10.53125 12.371094 10.515625 12.398438 10.5 12.429688 C 9.972656 13.652344 10.105469 15.058594 10.847656 16.167969 C 11.59375 17.277344 12.851562 17.949219 14.203125 17.953125 Z M 11.621094 12.980469 C 11.632812 12.957031 11.648438 12.933594 11.65625 12.910156 C 12.003906 12.117188 12.71875 11.535156 13.574219 11.34375 L 13.574219 13.324219 C 13.574219 13.664062 13.855469 13.941406 14.199219 13.941406 C 14.546875 13.941406 14.824219 13.664062 14.824219 13.324219 L 14.824219 11.34375 C 15.683594 11.535156 16.394531 12.117188 16.742188 12.910156 C 16.753906 12.9375 16.765625 12.957031 16.777344 12.980469 C 17.234375 14.117188 16.863281 15.417969 15.875 16.15625 C 14.882812 16.894531 13.515625 16.894531 12.523438 16.15625 C 11.53125 15.417969 11.164062 14.117188 11.621094 12.980469 L 11.621094 12.984375 Z M 11.621094 12.980469 Z M 11.621094 12.980469 "/>
<path style=" stroke:none;fill-rule:nonzero;fill:rgb(92.941176%,41.176471%,36.078431%);fill-opacity:1;" d="M 22.257812 15.792969 C 23.816406 13.589844 24.363281 10.84375 23.761719 8.222656 C 25.433594 7.503906 26.472656 5.839844 26.371094 4.046875 C 26.265625 2.257812 25.042969 0.71875 23.300781 0.191406 C 21.558594 -0.335938 19.664062 0.257812 18.554688 1.683594 C 15.808594 0.355469 12.589844 0.355469 9.84375 1.683594 C 8.738281 0.257812 6.84375 -0.339844 5.101562 0.1875 C 3.359375 0.714844 2.132812 2.253906 2.03125 4.046875 C 1.925781 5.835938 2.96875 7.503906 4.636719 8.222656 C 4.035156 10.839844 4.582031 13.589844 6.144531 15.789062 C 4.25 15.613281 2.382812 16.332031 1.105469 17.722656 C 0.257812 18.558594 -0.136719 19.738281 0.0390625 20.910156 C 0.226562 21.804688 0.84375 22.554688 1.695312 22.921875 C 2.054688 23.085938 2.433594 23.195312 2.828125 23.25 C 2.75 23.726562 2.710938 24.210938 2.703125 24.695312 C 2.683594 25.730469 2.914062 26.75 3.382812 27.675781 L 3.382812 27.703125 C 3.296875 29.980469 5.09375 31.898438 7.40625 31.996094 C 8.296875 31.988281 9.15625 31.671875 9.835938 31.101562 C 11.285156 31.269531 12.742188 31.347656 14.203125 31.328125 C 15.460938 31.335938 16.71875 31.28125 17.972656 31.167969 C 18.640625 31.695312 19.464844 31.988281 20.320312 31.996094 C 22.207031 31.953125 23.816406 30.636719 24.199219 28.816406 C 25.234375 27.691406 25.777344 26.210938 25.707031 24.691406 C 25.699219 24.210938 25.660156 23.722656 25.582031 23.246094 C 25.96875 23.191406 26.351562 23.082031 26.707031 22.921875 C 27.554688 22.550781 28.171875 21.804688 28.359375 20.914062 C 28.535156 19.742188 28.144531 18.5625 27.296875 17.722656 C 26.019531 16.332031 24.152344 15.613281 22.257812 15.789062 Z M 5.933594 7.53125 C 5.851562 7.386719 5.714844 7.285156 5.550781 7.238281 C 4.195312 6.867188 3.261719 5.648438 3.277344 4.261719 C 3.289062 2.875 4.25 1.671875 5.613281 1.328125 C 6.976562 0.984375 8.40625 1.585938 9.09375 2.792969 C 9.175781 2.933594 9.3125 3.039062 9.472656 3.082031 C 9.636719 3.125 9.808594 3.105469 9.949219 3.019531 C 12.578125 1.523438 15.820312 1.523438 18.449219 3.019531 C 18.589844 3.101562 18.761719 3.125 18.921875 3.082031 C 19.085938 3.039062 19.21875 2.9375 19.304688 2.792969 C 19.992188 1.582031 21.421875 0.980469 22.789062 1.324219 C 24.152344 1.667969 25.113281 2.871094 25.128906 4.257812 C 25.140625 5.648438 24.207031 6.867188 22.847656 7.238281 C 22.6875 7.28125 22.550781 7.386719 22.46875 7.53125 C 22.386719 7.675781 22.363281 7.84375 22.414062 8.003906 C 23.152344 10.539062 22.636719 13.269531 21.023438 15.378906 C 19.410156 17.488281 16.882812 18.726562 14.199219 18.726562 C 13.871094 18.726562 13.539062 18.707031 13.210938 18.671875 C 10.714844 18.390625 8.472656 17.042969 7.082031 14.988281 C 5.6875 12.929688 5.289062 10.375 5.984375 8.003906 C 6.03125 7.84375 6.011719 7.675781 5.929688 7.53125 Z M 1.265625 20.667969 C 1.175781 19.882812 1.460938 19.097656 2.039062 18.542969 C 2.890625 17.628906 4.070312 17.070312 5.324219 16.984375 C 5.296875 17.03125 5.273438 17.074219 5.242188 17.117188 C 5.039062 17.425781 4.847656 17.742188 4.664062 18.058594 C 4.621094 18.132812 4.578125 18.207031 4.539062 18.28125 C 4.339844 18.640625 4.15625 19.011719 3.984375 19.382812 C 3.953125 19.457031 3.921875 19.53125 3.886719 19.605469 C 3.738281 19.949219 3.601562 20.289062 3.480469 20.632812 C 3.460938 20.6875 3.441406 20.742188 3.417969 20.796875 C 3.285156 21.179688 3.175781 21.5625 3.078125 21.941406 C 3.070312 21.976562 3.058594 22.011719 3.050781 22.046875 C 2.765625 22.011719 2.488281 21.933594 2.226562 21.8125 C 1.734375 21.609375 1.375 21.183594 1.261719 20.667969 Z M 4.636719 27.703125 C 4.636719 27.679688 4.636719 27.652344 4.636719 27.636719 C 4.636719 27.617188 4.640625 27.59375 4.640625 27.574219 C 4.613281 26.023438 5.832031 24.730469 7.40625 24.644531 C 9.027344 24.742188 10.265625 26.109375 10.179688 27.707031 C 10.179688 27.925781 10.160156 28.140625 10.117188 28.351562 C 10.105469 28.417969 10.078125 28.480469 10.058594 28.546875 C 10.027344 28.691406 9.984375 28.828125 9.933594 28.960938 C 9.902344 29.035156 9.855469 29.105469 9.820312 29.175781 C 9.769531 29.292969 9.707031 29.40625 9.636719 29.515625 C 9.589844 29.589844 9.53125 29.648438 9.476562 29.714844 C 9.402344 29.816406 9.320312 29.910156 9.234375 30.003906 C 9.226562 30.011719 9.21875 30.015625 9.210938 30.023438 C 8.730469 30.496094 8.082031 30.761719 7.402344 30.769531 C 5.78125 30.667969 4.542969 29.300781 4.632812 27.703125 Z M 20.316406 30.765625 C 19.667969 30.761719 19.042969 30.515625 18.570312 30.074219 C 17.902344 29.460938 17.53125 28.601562 17.542969 27.703125 C 17.457031 26.109375 18.695312 24.738281 20.316406 24.640625 C 21.9375 24.738281 23.171875 26.109375 23.085938 27.703125 C 23.085938 27.929688 23.066406 28.160156 23.019531 28.386719 C 22.816406 29.714844 21.683594 30.714844 20.316406 30.769531 Z M 24.183594 26.503906 C 24.183594 26.496094 24.175781 26.488281 24.171875 26.480469 C 24.117188 26.285156 24.050781 26.097656 23.972656 25.914062 C 23.957031 25.878906 23.9375 25.839844 23.921875 25.804688 C 23.839844 25.621094 23.746094 25.449219 23.640625 25.28125 C 23.628906 25.265625 23.617188 25.25 23.605469 25.234375 C 23.5 25.082031 23.390625 24.933594 23.265625 24.792969 C 23.242188 24.769531 23.226562 24.746094 23.203125 24.71875 C 23.074219 24.578125 22.9375 24.449219 22.789062 24.328125 C 22.761719 24.300781 22.726562 24.277344 22.699219 24.253906 C 22.550781 24.128906 22.390625 24.023438 22.222656 23.925781 L 22.195312 23.910156 C 22.03125 23.820312 21.863281 23.738281 21.6875 23.675781 C 21.65625 23.664062 21.621094 23.648438 21.585938 23.636719 C 21.410156 23.570312 21.222656 23.519531 21.035156 23.484375 C 20.996094 23.476562 20.960938 23.472656 20.921875 23.464844 C 20.722656 23.433594 20.523438 23.414062 20.316406 23.414062 C 18.003906 23.511719 16.207031 25.429688 16.296875 27.707031 C 16.296875 27.894531 16.308594 28.082031 16.332031 28.265625 C 16.335938 28.320312 16.347656 28.375 16.355469 28.433594 C 16.375 28.5625 16.402344 28.695312 16.4375 28.824219 C 16.449219 28.878906 16.464844 28.933594 16.480469 28.988281 C 16.523438 29.136719 16.570312 29.285156 16.628906 29.425781 C 16.640625 29.449219 16.648438 29.476562 16.660156 29.503906 C 16.730469 29.667969 16.8125 29.828125 16.90625 29.984375 C 16.914062 29.996094 16.917969 30.007812 16.925781 30.019531 C 16.113281 30.074219 15.214844 30.097656 14.199219 30.097656 C 12.882812 30.097656 11.78125 30.058594 10.820312 29.976562 C 10.828125 29.957031 10.835938 29.945312 10.84375 29.925781 C 10.933594 29.773438 11.011719 29.613281 11.078125 29.453125 L 11.085938 29.433594 C 11.152344 29.277344 11.207031 29.113281 11.253906 28.949219 C 11.265625 28.898438 11.277344 28.847656 11.289062 28.792969 C 11.320312 28.667969 11.347656 28.535156 11.367188 28.40625 C 11.375 28.351562 11.386719 28.300781 11.390625 28.246094 C 11.414062 28.066406 11.425781 27.882812 11.425781 27.703125 C 11.515625 25.425781 9.714844 23.507812 7.402344 23.410156 C 7.242188 23.410156 7.082031 23.421875 6.925781 23.441406 C 6.875 23.445312 6.832031 23.457031 6.785156 23.464844 C 6.667969 23.484375 6.558594 23.507812 6.445312 23.535156 C 6.398438 23.546875 6.359375 23.558594 6.3125 23.570312 C 6.164062 23.613281 6.019531 23.664062 5.875 23.726562 L 5.863281 23.730469 C 5.726562 23.792969 5.59375 23.859375 5.464844 23.9375 C 5.425781 23.960938 5.386719 23.988281 5.347656 24.007812 C 5.253906 24.070312 5.160156 24.132812 5.070312 24.203125 C 5.035156 24.230469 4.996094 24.257812 4.960938 24.285156 C 4.84375 24.382812 4.726562 24.484375 4.621094 24.59375 C 4.613281 24.601562 4.609375 24.609375 4.601562 24.617188 C 4.5 24.71875 4.402344 24.832031 4.316406 24.945312 C 4.285156 24.984375 4.257812 25.023438 4.226562 25.066406 C 4.164062 25.15625 4.097656 25.25 4.042969 25.347656 C 4.023438 25.375 4.007812 25.398438 3.988281 25.425781 C 3.964844 25.179688 3.949219 24.9375 3.949219 24.691406 C 3.957031 24.054688 4.027344 23.421875 4.164062 22.800781 C 4.636719 20.628906 5.59375 18.589844 6.96875 16.824219 C 7.007812 16.867188 7.054688 16.90625 7.097656 16.949219 C 7.199219 17.058594 7.308594 17.160156 7.417969 17.261719 C 7.570312 17.40625 7.71875 17.542969 7.878906 17.675781 C 7.992188 17.773438 8.113281 17.867188 8.234375 17.957031 C 8.394531 18.078125 8.5625 18.195312 8.730469 18.308594 C 8.855469 18.394531 8.976562 18.472656 9.113281 18.554688 C 9.285156 18.65625 9.464844 18.753906 9.644531 18.847656 C 9.777344 18.917969 9.90625 18.984375 10.042969 19.050781 C 10.230469 19.136719 10.421875 19.210938 10.613281 19.285156 C 10.75 19.335938 10.886719 19.390625 11.023438 19.4375 C 11.230469 19.503906 11.4375 19.5625 11.648438 19.617188 C 11.78125 19.652344 11.914062 19.691406 12.050781 19.71875 C 12.285156 19.769531 12.519531 19.808594 12.761719 19.84375 C 12.878906 19.863281 12.992188 19.886719 13.109375 19.894531 C 13.832031 19.976562 14.5625 19.976562 15.28125 19.894531 C 15.402344 19.882812 15.515625 19.859375 15.636719 19.839844 C 15.871094 19.808594 16.109375 19.773438 16.34375 19.722656 C 16.480469 19.691406 16.613281 19.652344 16.75 19.617188 C 16.957031 19.5625 17.164062 19.507812 17.367188 19.4375 C 17.507812 19.390625 17.644531 19.335938 17.78125 19.28125 C 17.972656 19.207031 18.164062 19.132812 18.347656 19.046875 C 18.488281 18.984375 18.621094 18.914062 18.753906 18.84375 C 18.933594 18.753906 19.109375 18.65625 19.285156 18.554688 C 19.414062 18.472656 19.542969 18.390625 19.667969 18.308594 C 19.835938 18.195312 20 18.078125 20.160156 17.957031 C 20.28125 17.867188 20.402344 17.773438 20.519531 17.671875 C 20.675781 17.542969 20.828125 17.40625 20.976562 17.265625 C 21.082031 17.160156 21.195312 17.058594 21.300781 16.949219 C 21.34375 16.902344 21.386719 16.867188 21.429688 16.820312 L 21.4375 16.828125 C 21.65625 17.117188 21.867188 17.417969 22.070312 17.722656 C 23.109375 19.269531 23.84375 20.996094 24.238281 22.808594 C 24.375 23.425781 24.445312 24.058594 24.449219 24.691406 C 24.460938 25.300781 24.371094 25.914062 24.183594 26.496094 Z M 27.140625 20.667969 C 27.023438 21.183594 26.664062 21.605469 26.175781 21.8125 C 25.914062 21.929688 25.636719 22.007812 25.351562 22.042969 C 25.339844 22.007812 25.328125 21.972656 25.320312 21.9375 C 25.226562 21.558594 25.113281 21.183594 24.984375 20.804688 C 24.964844 20.742188 24.9375 20.683594 24.914062 20.617188 C 24.792969 20.28125 24.664062 19.945312 24.519531 19.613281 C 24.484375 19.535156 24.453125 19.460938 24.417969 19.382812 C 24.25 19.011719 24.0625 18.640625 23.863281 18.28125 C 23.824219 18.207031 23.78125 18.136719 23.738281 18.066406 C 23.550781 17.742188 23.355469 17.421875 23.148438 17.105469 C 23.121094 17.066406 23.101562 17.023438 23.074219 16.984375 C 24.332031 17.070312 25.507812 17.628906 26.359375 18.546875 C 26.941406 19.097656 27.226562 19.882812 27.132812 20.675781 Z M 27.140625 20.667969 Z M 27.140625 20.667969 "/>
<path style=" stroke:none;fill-rule:nonzero;fill:rgb(92.941176%,41.176471%,36.078431%);fill-opacity:1;" d="M 17.265625 5.945312 C 16.441406 5.945312 15.773438 6.601562 15.773438 7.410156 C 15.773438 8.222656 16.441406 8.878906 17.265625 8.878906 C 18.085938 8.878906 18.753906 8.222656 18.753906 7.410156 C 18.753906 6.601562 18.085938 5.945312 17.265625 5.945312 Z M 17.265625 7.898438 C 16.988281 7.898438 16.769531 7.679688 16.769531 7.410156 C 16.769531 7.140625 16.988281 6.921875 17.265625 6.921875 C 17.539062 6.921875 17.761719 7.140625 17.761719 7.410156 C 17.761719 7.679688 17.539062 7.898438 17.265625 7.898438 Z M 17.265625 7.898438 "/>
<path style=" stroke:none;fill-rule:nonzero;fill:rgb(92.941176%,41.176471%,36.078431%);fill-opacity:1;" d="M 11.136719 5.945312 C 10.3125 5.945312 9.644531 6.601562 9.644531 7.410156 C 9.644531 8.222656 10.3125 8.878906 11.136719 8.878906 C 11.960938 8.878906 12.625 8.222656 12.625 7.410156 C 12.625 6.601562 11.960938 5.945312 11.136719 5.945312 Z M 11.136719 7.898438 C 10.863281 7.898438 10.640625 7.679688 10.640625 7.410156 C 10.640625 7.140625 10.863281 6.921875 11.136719 6.921875 C 11.410156 6.921875 11.632812 7.140625 11.632812 7.410156 C 11.632812 7.679688 11.410156 7.898438 11.136719 7.898438 Z M 11.136719 7.898438 "/>
</g>
</svg>
