<?xml version="1.0" encoding="UTF-8"?>
<svg xmlns="http://www.w3.org/2000/svg" xmlns:xlink="http://www.w3.org/1999/xlink" width="28px" height="28px" viewBox="0 0 28 28" version="1.1">
<g id="surface1">
<path style=" stroke:none;fill-rule:nonzero;fill:rgb(92.941176%,41.176471%,36.078431%);fill-opacity:1;" d="M 14.175781 15.710938 C 15.359375 15.707031 16.464844 15.121094 17.117188 14.148438 C 17.765625 13.175781 17.878906 11.945312 17.417969 10.871094 C 17.40625 10.847656 17.394531 10.824219 17.378906 10.800781 C 16.804688 9.570312 15.554688 8.777344 14.179688 8.777344 C 12.804688 8.777344 11.550781 9.570312 10.976562 10.800781 C 10.964844 10.824219 10.953125 10.847656 10.9375 10.875 C 10.476562 11.945312 10.59375 13.175781 11.242188 14.148438 C 11.894531 15.117188 12.996094 15.707031 14.175781 15.710938 Z M 11.917969 11.359375 C 11.929688 11.335938 11.941406 11.316406 11.949219 11.296875 C 12.253906 10.601562 12.878906 10.09375 13.628906 9.925781 L 13.628906 11.660156 C 13.628906 11.957031 13.875 12.199219 14.175781 12.199219 C 14.476562 12.199219 14.722656 11.957031 14.722656 11.660156 L 14.722656 9.925781 C 15.472656 10.09375 16.09375 10.601562 16.398438 11.296875 C 16.410156 11.320312 16.417969 11.335938 16.429688 11.359375 C 16.832031 12.351562 16.503906 13.492188 15.640625 14.136719 C 14.773438 14.78125 13.578125 14.78125 12.707031 14.136719 C 11.839844 13.492188 11.519531 12.351562 11.917969 11.359375 Z M 11.917969 11.359375 Z M 11.917969 11.359375 "/>
<path style=" stroke:none;fill-rule:nonzero;fill:rgb(92.941176%,41.176471%,36.078431%);fill-opacity:1;" d="M 21.226562 13.820312 C 22.589844 11.890625 23.066406 9.488281 22.542969 7.195312 C 24.003906 6.566406 24.914062 5.109375 24.824219 3.539062 C 24.730469 1.976562 23.664062 0.628906 22.136719 0.167969 C 20.613281 -0.292969 18.957031 0.226562 17.984375 1.472656 C 15.582031 0.3125 12.765625 0.3125 10.363281 1.472656 C 9.394531 0.226562 7.738281 -0.296875 6.214844 0.164062 C 4.6875 0.625 3.617188 1.972656 3.527344 3.539062 C 3.433594 5.105469 4.347656 6.566406 5.808594 7.195312 C 5.28125 9.484375 5.757812 11.890625 7.125 13.816406 C 5.46875 13.660156 3.835938 14.289062 2.71875 15.507812 C 1.976562 16.238281 1.628906 17.269531 1.785156 18.296875 C 1.949219 19.078125 2.488281 19.734375 3.234375 20.058594 C 3.546875 20.199219 3.878906 20.296875 4.226562 20.34375 C 4.15625 20.761719 4.121094 21.183594 4.117188 21.609375 C 4.097656 22.515625 4.300781 23.40625 4.710938 24.214844 L 4.710938 24.242188 C 4.632812 26.234375 6.207031 27.910156 8.230469 27.996094 C 9.007812 27.988281 9.761719 27.714844 10.355469 27.214844 C 11.625 27.359375 12.898438 27.429688 14.175781 27.414062 C 15.277344 27.417969 16.378906 27.371094 17.476562 27.273438 C 18.0625 27.734375 18.78125 27.988281 19.53125 27.996094 C 21.179688 27.960938 22.589844 26.808594 22.925781 25.214844 C 23.832031 24.230469 24.304688 22.933594 24.242188 21.605469 C 24.238281 21.183594 24.203125 20.757812 24.132812 20.339844 C 24.472656 20.292969 24.808594 20.195312 25.117188 20.058594 C 25.859375 19.730469 26.402344 19.078125 26.566406 18.300781 C 26.71875 17.273438 26.375 16.242188 25.636719 15.507812 C 24.515625 14.289062 22.882812 13.660156 21.226562 13.816406 Z M 6.941406 6.589844 C 6.871094 6.464844 6.75 6.375 6.605469 6.332031 C 5.421875 6.007812 4.605469 4.941406 4.617188 3.730469 C 4.628906 2.515625 5.46875 1.460938 6.660156 1.164062 C 7.855469 0.859375 9.105469 1.386719 9.707031 2.445312 C 9.777344 2.566406 9.898438 2.660156 10.039062 2.695312 C 10.183594 2.734375 10.332031 2.71875 10.457031 2.640625 C 12.753906 1.332031 15.59375 1.332031 17.894531 2.640625 C 18.015625 2.714844 18.167969 2.734375 18.308594 2.695312 C 18.449219 2.660156 18.566406 2.570312 18.640625 2.445312 C 19.242188 1.382812 20.496094 0.859375 21.691406 1.160156 C 22.882812 1.460938 23.722656 2.511719 23.738281 3.726562 C 23.75 4.941406 22.929688 6.007812 21.742188 6.332031 C 21.601562 6.371094 21.480469 6.464844 21.410156 6.589844 C 21.339844 6.714844 21.316406 6.863281 21.363281 7.003906 C 22.007812 9.222656 21.558594 11.609375 20.144531 13.457031 C 18.734375 15.300781 16.523438 16.386719 14.175781 16.386719 C 13.886719 16.386719 13.597656 16.367188 13.308594 16.339844 C 11.125 16.09375 9.164062 14.914062 7.945312 13.113281 C 6.726562 11.3125 6.378906 9.078125 6.984375 7.003906 C 7.027344 6.863281 7.011719 6.714844 6.9375 6.589844 Z M 2.859375 18.085938 C 2.777344 17.398438 3.027344 16.710938 3.535156 16.226562 C 4.28125 15.425781 5.3125 14.9375 6.410156 14.859375 C 6.382812 14.902344 6.363281 14.941406 6.335938 14.976562 C 6.160156 15.246094 5.992188 15.523438 5.832031 15.800781 C 5.792969 15.867188 5.757812 15.929688 5.722656 15.996094 C 5.546875 16.3125 5.386719 16.636719 5.234375 16.960938 C 5.210938 17.023438 5.179688 17.089844 5.152344 17.15625 C 5.019531 17.457031 4.902344 17.753906 4.796875 18.054688 C 4.777344 18.101562 4.761719 18.148438 4.742188 18.199219 C 4.625 18.53125 4.527344 18.867188 4.445312 19.199219 C 4.4375 19.230469 4.425781 19.261719 4.417969 19.292969 C 4.171875 19.261719 3.925781 19.191406 3.699219 19.085938 C 3.265625 18.910156 2.953125 18.535156 2.855469 18.085938 Z M 5.808594 24.242188 C 5.808594 24.21875 5.808594 24.195312 5.808594 24.183594 C 5.808594 24.164062 5.8125 24.144531 5.8125 24.128906 C 5.785156 22.769531 6.851562 21.640625 8.230469 21.5625 C 9.648438 21.648438 10.734375 22.847656 10.65625 24.242188 C 10.65625 24.433594 10.640625 24.625 10.601562 24.808594 C 10.59375 24.867188 10.566406 24.921875 10.550781 24.980469 C 10.523438 25.105469 10.484375 25.226562 10.441406 25.339844 C 10.414062 25.40625 10.375 25.46875 10.34375 25.527344 C 10.296875 25.632812 10.242188 25.730469 10.183594 25.828125 C 10.140625 25.890625 10.089844 25.941406 10.042969 26 C 9.976562 26.089844 9.90625 26.171875 9.828125 26.253906 C 9.824219 26.261719 9.816406 26.265625 9.808594 26.269531 C 9.390625 26.683594 8.820312 26.917969 8.226562 26.921875 C 6.808594 26.835938 5.726562 25.636719 5.804688 24.242188 Z M 19.527344 26.917969 C 18.960938 26.917969 18.414062 26.703125 18 26.316406 C 17.414062 25.777344 17.089844 25.027344 17.101562 24.242188 C 17.023438 22.847656 18.109375 21.644531 19.527344 21.5625 C 20.945312 21.644531 22.027344 22.847656 21.949219 24.242188 C 21.949219 24.4375 21.933594 24.640625 21.890625 24.839844 C 21.714844 26 20.722656 26.875 19.527344 26.921875 Z M 22.910156 23.191406 C 22.910156 23.183594 22.902344 23.175781 22.902344 23.171875 C 22.851562 23 22.792969 22.835938 22.726562 22.675781 C 22.710938 22.644531 22.695312 22.609375 22.683594 22.578125 C 22.609375 22.417969 22.527344 22.269531 22.4375 22.121094 C 22.425781 22.105469 22.414062 22.09375 22.40625 22.082031 C 22.3125 21.945312 22.21875 21.816406 22.105469 21.695312 C 22.085938 21.671875 22.074219 21.652344 22.054688 21.628906 C 21.941406 21.507812 21.820312 21.394531 21.691406 21.289062 C 21.667969 21.261719 21.636719 21.242188 21.613281 21.222656 C 21.480469 21.113281 21.34375 21.019531 21.195312 20.933594 L 21.171875 20.921875 C 21.027344 20.84375 20.878906 20.769531 20.726562 20.714844 C 20.699219 20.707031 20.667969 20.691406 20.636719 20.683594 C 20.484375 20.625 20.320312 20.578125 20.15625 20.546875 C 20.121094 20.542969 20.089844 20.539062 20.058594 20.53125 C 19.882812 20.503906 19.707031 20.488281 19.527344 20.488281 C 17.503906 20.574219 15.929688 22.25 16.011719 24.242188 C 16.011719 24.40625 16.019531 24.570312 16.039062 24.730469 C 16.042969 24.78125 16.054688 24.828125 16.0625 24.878906 C 16.078125 24.992188 16.101562 25.109375 16.132812 25.222656 C 16.144531 25.269531 16.15625 25.316406 16.171875 25.363281 C 16.207031 25.496094 16.25 25.625 16.300781 25.746094 C 16.3125 25.769531 16.316406 25.792969 16.328125 25.816406 C 16.390625 25.960938 16.460938 26.101562 16.542969 26.234375 C 16.550781 26.246094 16.554688 26.257812 16.558594 26.265625 C 15.847656 26.316406 15.0625 26.335938 14.175781 26.335938 C 13.023438 26.335938 12.058594 26.300781 11.21875 26.230469 C 11.222656 26.210938 11.230469 26.203125 11.238281 26.183594 C 11.316406 26.050781 11.386719 25.910156 11.441406 25.773438 L 11.449219 25.753906 C 11.507812 25.617188 11.554688 25.472656 11.597656 25.332031 C 11.609375 25.285156 11.617188 25.242188 11.628906 25.195312 C 11.65625 25.085938 11.679688 24.96875 11.695312 24.855469 C 11.703125 24.808594 11.714844 24.761719 11.71875 24.714844 C 11.738281 24.558594 11.746094 24.398438 11.746094 24.242188 C 11.828125 22.246094 10.25 20.570312 8.226562 20.484375 C 8.085938 20.484375 7.945312 20.496094 7.808594 20.511719 C 7.765625 20.515625 7.726562 20.523438 7.6875 20.53125 C 7.585938 20.546875 7.488281 20.570312 7.390625 20.59375 C 7.347656 20.605469 7.3125 20.613281 7.273438 20.625 C 7.144531 20.660156 7.015625 20.707031 6.890625 20.761719 L 6.878906 20.765625 C 6.761719 20.820312 6.644531 20.878906 6.53125 20.945312 C 6.496094 20.964844 6.464844 20.988281 6.429688 21.007812 C 6.347656 21.0625 6.265625 21.117188 6.1875 21.179688 C 6.15625 21.203125 6.121094 21.226562 6.089844 21.25 C 5.988281 21.335938 5.886719 21.421875 5.792969 21.519531 C 5.785156 21.527344 5.78125 21.535156 5.777344 21.539062 C 5.6875 21.628906 5.601562 21.726562 5.527344 21.828125 C 5.5 21.859375 5.476562 21.894531 5.449219 21.933594 C 5.394531 22.011719 5.335938 22.09375 5.289062 22.179688 C 5.269531 22.203125 5.257812 22.222656 5.238281 22.246094 C 5.21875 22.03125 5.207031 21.820312 5.207031 21.605469 C 5.210938 21.046875 5.273438 20.496094 5.394531 19.949219 C 5.808594 18.050781 6.644531 16.265625 7.847656 14.722656 C 7.882812 14.757812 7.921875 14.792969 7.960938 14.832031 C 8.050781 14.925781 8.144531 15.015625 8.242188 15.105469 C 8.375 15.230469 8.503906 15.351562 8.644531 15.464844 C 8.742188 15.550781 8.847656 15.632812 8.953125 15.710938 C 9.09375 15.820312 9.242188 15.921875 9.390625 16.019531 C 9.5 16.09375 9.605469 16.164062 9.722656 16.234375 C 9.875 16.324219 10.03125 16.410156 10.1875 16.492188 C 10.304688 16.554688 10.417969 16.609375 10.539062 16.667969 C 10.703125 16.746094 10.867188 16.808594 11.035156 16.875 C 11.15625 16.917969 11.277344 16.96875 11.394531 17.007812 C 11.578125 17.066406 11.757812 17.117188 11.941406 17.164062 C 12.058594 17.195312 12.175781 17.230469 12.292969 17.253906 C 12.5 17.296875 12.703125 17.332031 12.917969 17.363281 C 13.019531 17.378906 13.117188 17.402344 13.21875 17.40625 C 13.851562 17.480469 14.492188 17.480469 15.121094 17.40625 C 15.226562 17.398438 15.328125 17.378906 15.433594 17.359375 C 15.636719 17.332031 15.847656 17.300781 16.050781 17.257812 C 16.171875 17.230469 16.285156 17.195312 16.40625 17.164062 C 16.585938 17.117188 16.769531 17.070312 16.945312 17.007812 C 17.070312 16.96875 17.1875 16.917969 17.308594 16.871094 C 17.476562 16.804688 17.644531 16.742188 17.804688 16.667969 C 17.925781 16.609375 18.042969 16.550781 18.160156 16.488281 C 18.316406 16.410156 18.472656 16.324219 18.625 16.234375 C 18.738281 16.164062 18.851562 16.09375 18.960938 16.019531 C 19.105469 15.921875 19.25 15.820312 19.390625 15.710938 C 19.496094 15.632812 19.601562 15.550781 19.703125 15.464844 C 19.839844 15.351562 19.976562 15.230469 20.105469 15.105469 C 20.195312 15.015625 20.296875 14.925781 20.386719 14.832031 C 20.425781 14.789062 20.464844 14.757812 20.5 14.71875 L 20.507812 14.726562 C 20.699219 14.976562 20.882812 15.242188 21.0625 15.507812 C 21.972656 16.859375 22.613281 18.371094 22.957031 19.957031 C 23.078125 20.496094 23.140625 21.050781 23.144531 21.605469 C 23.152344 22.136719 23.074219 22.675781 22.910156 23.183594 Z M 25.5 18.085938 C 25.394531 18.535156 25.082031 18.90625 24.652344 19.085938 C 24.425781 19.1875 24.183594 19.257812 23.933594 19.289062 C 23.921875 19.257812 23.914062 19.226562 23.90625 19.195312 C 23.824219 18.863281 23.722656 18.535156 23.609375 18.203125 C 23.59375 18.148438 23.570312 18.097656 23.550781 18.039062 C 23.445312 17.746094 23.332031 17.453125 23.203125 17.160156 C 23.171875 17.09375 23.148438 17.027344 23.117188 16.960938 C 22.96875 16.636719 22.804688 16.3125 22.628906 15.996094 C 22.597656 15.929688 22.558594 15.871094 22.519531 15.808594 C 22.355469 15.523438 22.1875 15.246094 22.003906 14.96875 C 21.980469 14.933594 21.964844 14.894531 21.941406 14.859375 C 23.039062 14.9375 24.070312 15.425781 24.816406 16.230469 C 25.324219 16.710938 25.574219 17.398438 25.492188 18.089844 Z M 25.5 18.085938 Z M 25.5 18.085938 "/>
<path style=" stroke:none;fill-rule:nonzero;fill:rgb(92.941176%,41.176471%,36.078431%);fill-opacity:1;" d="M 16.855469 5.203125 C 16.136719 5.203125 15.550781 5.777344 15.550781 6.484375 C 15.550781 7.195312 16.136719 7.769531 16.855469 7.769531 C 17.574219 7.769531 18.160156 7.195312 18.160156 6.484375 C 18.160156 5.777344 17.574219 5.203125 16.855469 5.203125 Z M 16.855469 6.910156 C 16.613281 6.910156 16.421875 6.71875 16.421875 6.484375 C 16.421875 6.25 16.613281 6.054688 16.855469 6.054688 C 17.097656 6.054688 17.292969 6.25 17.292969 6.484375 C 17.292969 6.71875 17.097656 6.910156 16.855469 6.910156 Z M 16.855469 6.910156 "/>
<path style=" stroke:none;fill-rule:nonzero;fill:rgb(92.941176%,41.176471%,36.078431%);fill-opacity:1;" d="M 11.496094 5.203125 C 10.773438 5.203125 10.1875 5.777344 10.1875 6.484375 C 10.1875 7.195312 10.773438 7.769531 11.496094 7.769531 C 12.214844 7.769531 12.796875 7.195312 12.796875 6.484375 C 12.796875 5.777344 12.214844 5.203125 11.496094 5.203125 Z M 11.496094 6.910156 C 11.253906 6.910156 11.058594 6.71875 11.058594 6.484375 C 11.058594 6.25 11.253906 6.054688 11.496094 6.054688 C 11.734375 6.054688 11.929688 6.25 11.929688 6.484375 C 11.929688 6.71875 11.734375 6.910156 11.496094 6.910156 Z M 11.496094 6.910156 "/>
</g>
</svg>
