<?xml version="1.0" encoding="UTF-8"?>
<svg xmlns="http://www.w3.org/2000/svg" xmlns:xlink="http://www.w3.org/1999/xlink" width="28px" height="28px" viewBox="0 0 28 21" version="1.1">
<g id="surface1">
<path style=" stroke:none;fill-rule:nonzero;fill:rgb(92.941176%,41.176471%,36.078431%);fill-opacity:1;" d="M 27.949219 0.414062 C 28.050781 0.660156 27.996094 0.949219 27.804688 1.140625 C 24.550781 4.394531 23.773438 7.886719 25.300781 12.457031 C 25.367188 12.660156 25.332031 12.882812 25.207031 13.058594 C 25.082031 13.230469 24.878906 13.335938 24.667969 13.335938 C 19.539062 13.335938 16.347656 15.730469 14.632812 20.878906 C 14.542969 21.152344 14.289062 21.335938 14 21.335938 C 13.714844 21.335938 13.457031 21.152344 13.371094 20.878906 C 11.652344 15.730469 8.464844 13.335938 3.335938 13.335938 C 3.121094 13.335938 2.917969 13.230469 2.792969 13.058594 C 2.667969 12.886719 2.632812 12.660156 2.703125 12.457031 C 4.226562 7.886719 3.453125 4.394531 0.195312 1.140625 C 0.00390625 0.949219 -0.0507812 0.660156 0.0507812 0.414062 C 0.15625 0.164062 0.398438 0 0.667969 0 C 4.863281 0 8.222656 2.304688 9.6875 3.5 L 10.703125 0.457031 C 10.773438 0.238281 10.957031 0.0703125 11.179688 0.0195312 C 11.40625 -0.0351562 11.640625 0.03125 11.804688 0.195312 L 14 2.390625 L 16.195312 0.195312 C 16.359375 0.03125 16.59375 -0.0351562 16.820312 0.0195312 C 17.042969 0.0703125 17.226562 0.238281 17.300781 0.457031 L 18.347656 3.605469 C 19.996094 2.484375 24.03125 0 27.335938 0 C 27.601562 0 27.847656 0.164062 27.949219 0.414062 Z M 23.769531 12.023438 C 22.964844 9.210938 22.605469 5.425781 25.65625 1.550781 C 22.226562 2.359375 18.445312 5.167969 18.398438 5.199219 C 18.230469 5.328125 18.007812 5.371094 17.800781 5.300781 C 17.597656 5.238281 17.433594 5.082031 17.367188 4.878906 L 16.375 1.902344 L 14.472656 3.804688 C 14.210938 4.066406 13.789062 4.066406 13.53125 3.804688 L 11.625 1.902344 L 10.632812 4.878906 C 10.558594 5.097656 10.378906 5.261719 10.152344 5.316406 C 9.933594 5.367188 9.691406 5.300781 9.53125 5.140625 C 9.496094 5.105469 6.453125 2.121094 2.273438 1.464844 C 5.402344 5.367188 5.042969 9.191406 4.230469 12.023438 C 8.871094 12.273438 12.085938 14.507812 14 18.816406 C 15.914062 14.507812 19.125 12.273438 23.769531 12.023438 Z M 23.769531 12.023438 "/>
</g>
</svg>
