<?xml version="1.0" encoding="UTF-8"?>
<svg xmlns="http://www.w3.org/2000/svg" xmlns:xlink="http://www.w3.org/1999/xlink" width="28px" height="28px" viewBox="0 0 28 28" version="1.1">
<g id="surface1">
<path style=" stroke:none;fill-rule:nonzero;fill:rgb(92.941176%,41.176471%,36.078431%);fill-opacity:1;" d="M 27.949219 3.914062 C 28.050781 4.160156 27.996094 4.449219 27.804688 4.640625 C 24.550781 7.894531 23.773438 11.386719 25.300781 15.957031 C 25.367188 16.160156 25.332031 16.382812 25.207031 16.558594 C 25.082031 16.730469 24.878906 16.835938 24.667969 16.835938 C 19.539062 16.835938 16.347656 19.230469 14.632812 24.378906 C 14.542969 24.652344 14.289062 24.835938 14 24.835938 C 13.714844 24.835938 13.457031 24.652344 13.371094 24.378906 C 11.652344 19.230469 8.464844 16.835938 3.335938 16.835938 C 3.121094 16.835938 2.917969 16.730469 2.792969 16.558594 C 2.667969 16.386719 2.632812 16.160156 2.703125 15.957031 C 4.226562 11.386719 3.453125 7.894531 0.195312 4.640625 C 0.00390625 4.449219 -0.0507812 4.160156 0.0507812 3.914062 C 0.15625 3.664062 0.398438 3.5 0.667969 3.5 C 4.863281 3.5 8.222656 5.804688 9.6875 7 L 10.703125 3.957031 C 10.773438 3.738281 10.957031 3.570312 11.179688 3.519531 C 11.40625 3.464844 11.640625 3.53125 11.804688 3.695312 L 14 5.890625 L 16.195312 3.695312 C 16.359375 3.53125 16.59375 3.464844 16.820312 3.519531 C 17.042969 3.570312 17.226562 3.738281 17.300781 3.957031 L 18.347656 7.105469 C 19.996094 5.984375 24.03125 3.5 27.335938 3.5 C 27.601562 3.5 27.847656 3.664062 27.949219 3.914062 Z M 23.769531 15.523438 C 22.964844 12.710938 22.605469 8.925781 25.65625 5.050781 C 22.226562 5.859375 18.445312 8.667969 18.398438 8.699219 C 18.230469 8.828125 18.007812 8.871094 17.800781 8.800781 C 17.597656 8.738281 17.433594 8.582031 17.367188 8.378906 L 16.375 5.402344 L 14.472656 7.304688 C 14.210938 7.566406 13.789062 7.566406 13.53125 7.304688 L 11.625 5.402344 L 10.632812 8.378906 C 10.558594 8.597656 10.378906 8.761719 10.152344 8.816406 C 9.933594 8.867188 9.691406 8.800781 9.53125 8.640625 C 9.496094 8.605469 6.453125 5.621094 2.273438 4.964844 C 5.402344 8.867188 5.042969 12.691406 4.230469 15.523438 C 8.871094 15.773438 12.085938 18.007812 14 22.316406 C 15.914062 18.007812 19.125 15.773438 23.769531 15.523438 Z M 23.769531 15.523438 "/>
</g>
</svg>
