<?xml version="1.0" encoding="UTF-8"?>
<svg xmlns="http://www.w3.org/2000/svg" xmlns:xlink="http://www.w3.org/1999/xlink" width="28px" height="28px" viewBox="0 0 28 28" version="1.1">
<g id="surface1">
<path style=" stroke:none;fill-rule:nonzero;fill:rgb(92.941176%,41.176471%,36.078431%);fill-opacity:1;" d="M 26.1875 23.4375 L 23.222656 24.050781 C 23.0625 24.085938 22.898438 24.113281 22.734375 24.144531 L 22.734375 20.199219 C 24.574219 19.085938 25.878906 17.265625 26.335938 15.164062 L 26.832031 12.929688 C 27.058594 12.867188 27.261719 12.75 27.425781 12.582031 C 27.691406 12.324219 27.839844 11.96875 27.839844 11.601562 C 27.839844 10.832031 27.214844 10.207031 26.449219 10.207031 L 15.777344 10.207031 L 15.777344 1.390625 C 15.773438 0.625 15.152344 0.00390625 14.382812 0 C 13.796875 0.00390625 13.273438 0.375 13.078125 0.929688 L 10.671875 0.929688 C 9.886719 0.929688 9.105469 1.03125 8.34375 1.21875 C 8.296875 1.226562 8.25 1.238281 8.207031 1.257812 C 6.089844 1.8125 4.21875 3.070312 2.902344 4.820312 C 2.855469 4.855469 2.816406 4.902344 2.789062 4.957031 C 2.785156 4.960938 2.785156 4.972656 2.78125 4.980469 C 1.660156 6.527344 1.019531 8.375 0.949219 10.285156 C 0.746094 10.351562 0.5625 10.464844 0.414062 10.613281 C 0.148438 10.871094 0 11.230469 0 11.601562 C 0.00390625 12.21875 0.414062 12.761719 1.007812 12.929688 L 1.503906 15.167969 C 1.921875 17.082031 3.042969 18.769531 4.640625 19.898438 L 4.640625 24.054688 L 4.613281 24.050781 L 1.65625 23.4375 C 1.5625 23.417969 1.46875 23.410156 1.375 23.410156 C 0.671875 23.40625 0.0820312 23.941406 0.0078125 24.640625 C -0.0625 25.339844 0.40625 25.980469 1.09375 26.121094 L 4.425781 26.8125 C 7.550781 27.460938 10.730469 27.789062 13.917969 27.789062 C 17.109375 27.789062 20.289062 27.460938 23.414062 26.816406 L 26.746094 26.125 C 27.488281 25.96875 27.964844 25.242188 27.808594 24.5 C 27.65625 23.761719 26.929688 23.285156 26.1875 23.4375 Z M 13.917969 1.390625 C 13.917969 1.136719 14.128906 0.929688 14.382812 0.929688 C 14.507812 0.925781 14.628906 0.980469 14.714844 1.070312 C 14.800781 1.15625 14.847656 1.269531 14.847656 1.390625 L 14.847656 10.207031 L 13.917969 10.207031 Z M 10.671875 1.855469 L 12.992188 1.855469 L 12.992188 8.910156 L 9.089844 2.003906 C 9.613281 1.90625 10.140625 1.855469 10.671875 1.855469 Z M 8.148438 2.222656 L 12.265625 9.507812 L 3.914062 5.03125 C 5.019531 3.703125 6.492188 2.726562 8.148438 2.222656 Z M 3.351562 5.78125 L 11.609375 10.207031 L 1.867188 10.207031 C 1.953125 8.625 2.464844 7.097656 3.351562 5.78125 Z M 1.390625 12.0625 C 1.136719 12.0625 0.929688 11.855469 0.929688 11.601562 C 0.929688 11.472656 0.980469 11.355469 1.070312 11.269531 C 1.15625 11.183594 1.269531 11.136719 1.390625 11.136719 L 26.449219 11.136719 C 26.703125 11.136719 26.910156 11.34375 26.910156 11.601562 C 26.910156 11.726562 26.859375 11.84375 26.769531 11.929688 C 26.683594 12.015625 26.570312 12.066406 26.449219 12.0625 Z M 2.410156 14.964844 L 1.972656 12.992188 L 25.867188 12.992188 L 25.429688 14.964844 C 25.011719 16.878906 23.804688 18.523438 22.105469 19.496094 C 22.078125 19.511719 22.046875 19.527344 22.019531 19.546875 C 20.984375 20.121094 19.820312 20.417969 18.632812 20.414062 L 9.203125 20.414062 C 7.839844 20.417969 6.507812 20.023438 5.367188 19.273438 C 5.339844 19.25 5.3125 19.230469 5.28125 19.214844 C 3.816406 18.21875 2.789062 16.699219 2.410156 14.964844 Z M 19.953125 24.59375 C 15.792969 25.148438 11.578125 25.125 7.425781 24.535156 L 7.425781 21.140625 C 8.007812 21.273438 8.605469 21.34375 9.203125 21.34375 L 18.636719 21.34375 C 19.078125 21.34375 19.515625 21.304688 19.953125 21.234375 Z M 26.558594 25.214844 L 23.226562 25.90625 C 17.089844 27.179688 10.753906 27.179688 4.613281 25.90625 L 1.28125 25.214844 C 1.058594 25.167969 0.90625 24.960938 0.929688 24.734375 C 0.953125 24.503906 1.148438 24.332031 1.375 24.335938 C 1.40625 24.335938 1.4375 24.339844 1.46875 24.34375 L 4.425781 24.957031 C 4.625 25 4.824219 25.039062 5.019531 25.074219 C 5.273438 25.125 5.515625 24.957031 5.5625 24.707031 C 5.566406 24.675781 5.566406 24.648438 5.570312 24.617188 L 5.570312 20.460938 C 5.867188 20.617188 6.179688 20.75 6.496094 20.867188 L 6.496094 24.871094 C 6.496094 24.917969 6.5 24.96875 6.507812 25.015625 C 6.539062 25.214844 6.695312 25.367188 6.890625 25.398438 C 9.210938 25.75 11.554688 25.925781 13.902344 25.925781 C 16.101562 25.925781 18.300781 25.773438 20.480469 25.464844 C 20.679688 25.433594 20.835938 25.28125 20.867188 25.082031 C 20.875 25.03125 20.878906 24.984375 20.878906 24.933594 L 20.878906 21.019531 C 21.195312 20.925781 21.503906 20.8125 21.808594 20.679688 L 21.808594 24.707031 C 21.808594 24.964844 22.015625 25.171875 22.273438 25.171875 C 22.300781 25.171875 22.328125 25.167969 22.355469 25.164062 L 26.375 24.34375 C 26.507812 24.316406 26.644531 24.351562 26.75 24.4375 C 26.851562 24.523438 26.914062 24.648438 26.910156 24.78125 C 26.910156 24.992188 26.761719 25.171875 26.558594 25.214844 Z M 26.558594 25.214844 Z M 26.558594 25.214844 "/>
</g>
</svg>
