<?xml version="1.0" encoding="UTF-8"?>
<svg xmlns="http://www.w3.org/2000/svg" xmlns:xlink="http://www.w3.org/1999/xlink" width="28px" height="28px" viewBox="0 0 28 28" version="1.1">
<g id="surface1">
<path style=" stroke:none;fill-rule:nonzero;fill:rgb(92.941176%,41.176471%,36.078431%);fill-opacity:1;" d="M 26.101562 13.816406 L 1.742188 13.816406 C 0.785156 13.816406 0 14.597656 0 15.558594 C 0 16.519531 0.78125 17.300781 1.742188 17.300781 L 26.101562 17.300781 C 27.058594 17.300781 27.84375 16.523438 27.84375 15.558594 C 27.84375 14.601562 27.066406 13.816406 26.101562 13.816406 Z M 26.101562 16.136719 L 1.742188 16.136719 C 1.421875 16.136719 1.160156 15.878906 1.160156 15.554688 C 1.160156 15.234375 1.421875 14.972656 1.742188 14.972656 L 26.101562 14.972656 C 26.421875 14.972656 26.683594 15.230469 26.683594 15.554688 C 26.683594 15.875 26.421875 16.136719 26.101562 16.136719 Z M 26.101562 16.136719 "/>
<path style=" stroke:none;fill-rule:nonzero;fill:rgb(92.941176%,41.176471%,36.078431%);fill-opacity:1;" d="M 26.257812 16.160156 C 25.945312 16.070312 25.632812 16.25 25.542969 16.558594 L 23.945312 22.152344 C 23.59375 23.390625 22.445312 24.253906 21.15625 24.253906 L 6.683594 24.253906 C 5.394531 24.253906 4.253906 23.386719 3.894531 22.152344 L 2.296875 16.558594 C 2.207031 16.25 1.894531 16.070312 1.582031 16.160156 C 1.273438 16.25 1.09375 16.566406 1.183594 16.875 L 2.777344 22.472656 C 3.273438 24.207031 4.878906 25.417969 6.683594 25.417969 L 21.152344 25.417969 C 22.953125 25.417969 24.5625 24.207031 25.054688 22.472656 L 26.652344 16.875 C 26.742188 16.566406 26.5625 16.25 26.253906 16.160156 Z M 26.257812 16.160156 "/>
<path style=" stroke:none;fill-rule:nonzero;fill:rgb(92.941176%,41.176471%,36.078431%);fill-opacity:1;" d="M 6.6875 21.941406 C 6.429688 21.941406 6.203125 21.765625 6.128906 21.519531 L 5.378906 18.882812 C 5.289062 18.574219 4.976562 18.394531 4.660156 18.484375 C 4.351562 18.574219 4.175781 18.894531 4.261719 19.199219 L 5.015625 21.839844 C 5.226562 22.582031 5.914062 23.097656 6.6875 23.097656 C 7.007812 23.097656 7.269531 22.839844 7.269531 22.523438 C 7.269531 22.203125 7.015625 21.941406 6.6875 21.941406 Z M 6.6875 21.941406 "/>
<path style=" stroke:none;fill-rule:nonzero;fill:rgb(92.941176%,41.176471%,36.078431%);fill-opacity:1;" d="M 7.796875 24.316406 C 7.511719 24.175781 7.164062 24.285156 7.019531 24.574219 L 5.859375 26.890625 C 5.71875 27.175781 5.832031 27.523438 6.117188 27.667969 C 6.203125 27.710938 6.292969 27.730469 6.375 27.730469 C 6.589844 27.730469 6.789062 27.613281 6.894531 27.414062 L 8.054688 25.09375 C 8.195312 24.808594 8.082031 24.460938 7.796875 24.316406 Z M 7.796875 24.316406 "/>
<path style=" stroke:none;fill-rule:nonzero;fill:rgb(92.941176%,41.176471%,36.078431%);fill-opacity:1;" d="M 21.980469 26.898438 L 20.820312 24.578125 C 20.675781 24.292969 20.328125 24.175781 20.042969 24.320312 C 19.757812 24.464844 19.640625 24.8125 19.785156 25.097656 L 20.945312 27.417969 C 21.042969 27.621094 21.25 27.738281 21.464844 27.738281 C 21.554688 27.738281 21.636719 27.714844 21.722656 27.675781 C 22.007812 27.53125 22.125 27.183594 21.980469 26.898438 Z M 21.980469 26.898438 "/>
<path style=" stroke:none;fill-rule:nonzero;fill:rgb(92.941176%,41.176471%,36.078431%);fill-opacity:1;" d="M 23.300781 0 C 22.707031 0 22.152344 0.230469 21.734375 0.648438 L 19.890625 2.492188 C 19.667969 2.714844 19.667969 3.085938 19.890625 3.308594 C 20.113281 3.535156 20.484375 3.535156 20.707031 3.308594 L 22.550781 1.472656 C 22.746094 1.269531 23.015625 1.164062 23.300781 1.164062 C 23.882812 1.164062 24.355469 1.640625 24.355469 2.21875 L 24.355469 14.402344 C 24.355469 14.71875 24.613281 14.984375 24.9375 14.984375 C 25.257812 14.984375 25.519531 14.726562 25.519531 14.402344 L 25.519531 2.21875 C 25.519531 0.996094 24.527344 0 23.296875 0 Z M 23.300781 0 "/>
<path style=" stroke:none;fill-rule:nonzero;fill:rgb(92.941176%,41.176471%,36.078431%);fill-opacity:1;" d="M 21.292969 3.070312 L 20.132812 1.910156 C 19.996094 1.777344 19.8125 1.714844 19.628906 1.746094 L 16.726562 2.222656 C 16.511719 2.257812 16.339844 2.410156 16.265625 2.617188 C 16.199219 2.824219 16.25 3.046875 16.402344 3.203125 L 19.878906 6.789062 C 19.984375 6.902344 20.144531 6.960938 20.292969 6.960938 C 20.351562 6.960938 20.40625 6.957031 20.460938 6.941406 C 20.667969 6.878906 20.828125 6.710938 20.867188 6.496094 L 21.449219 3.597656 C 21.488281 3.40625 21.425781 3.210938 21.292969 3.070312 Z M 19.945312 5.179688 L 18.007812 3.1875 L 19.519531 2.941406 L 20.25 3.667969 Z M 19.945312 5.179688 "/>
<path style=" stroke:none;fill-rule:nonzero;fill:rgb(92.941176%,41.176471%,36.078431%);fill-opacity:1;" d="M 13.75 7.03125 C 13.527344 6.804688 13.15625 6.804688 12.933594 7.03125 L 11.773438 8.1875 C 11.550781 8.414062 11.550781 8.78125 11.773438 9.007812 C 11.886719 9.117188 12.039062 9.175781 12.183594 9.175781 C 12.335938 9.175781 12.480469 9.117188 12.59375 9.007812 L 13.75 7.847656 C 13.976562 7.625 13.976562 7.253906 13.75 7.03125 Z M 13.75 7.03125 "/>
<path style=" stroke:none;fill-rule:nonzero;fill:rgb(92.941176%,41.176471%,36.078431%);fill-opacity:1;" d="M 16.070312 9.347656 C 15.847656 9.125 15.476562 9.125 15.253906 9.347656 L 14.09375 10.507812 C 13.871094 10.730469 13.871094 11.101562 14.09375 11.324219 C 14.207031 11.4375 14.355469 11.492188 14.503906 11.492188 C 14.652344 11.492188 14.800781 11.4375 14.910156 11.324219 L 16.070312 10.167969 C 16.292969 9.941406 16.292969 9.574219 16.070312 9.347656 Z M 16.070312 9.347656 "/>
<path style=" stroke:none;fill-rule:nonzero;fill:rgb(92.941176%,41.176471%,36.078431%);fill-opacity:1;" d="M 17.230469 5.871094 C 17.007812 5.644531 16.636719 5.644531 16.414062 5.871094 L 15.253906 7.03125 C 15.027344 7.253906 15.027344 7.625 15.253906 7.847656 C 15.363281 7.960938 15.515625 8.015625 15.660156 8.015625 C 15.8125 8.015625 15.957031 7.960938 16.070312 7.847656 L 17.230469 6.6875 C 17.453125 6.464844 17.453125 6.09375 17.230469 5.871094 Z M 17.230469 5.871094 "/>
</g>
</svg>
