<?xml version="1.0" encoding="UTF-8"?>
<svg xmlns="http://www.w3.org/2000/svg" xmlns:xlink="http://www.w3.org/1999/xlink" width="28px" height="28px" viewBox="0 0 28 28" version="1.1">
<g id="surface1">
<path style=" stroke:none;fill-rule:nonzero;fill:rgb(92.941176%,41.176471%,36.078431%);fill-opacity:1;" d="M 21.722656 0 L 6.363281 0 C 4.730469 0 3.40625 1.304688 3.40625 2.898438 L 3.40625 24.9375 C 3.40625 26.535156 4.734375 27.835938 6.363281 27.835938 L 21.722656 27.835938 C 23.351562 27.835938 24.675781 26.535156 24.675781 24.9375 L 24.675781 2.898438 C 24.675781 1.296875 23.347656 0 21.722656 0 Z M 23.496094 24.9375 C 23.496094 25.894531 22.699219 26.675781 21.722656 26.675781 L 6.363281 26.675781 C 5.382812 26.675781 4.585938 25.894531 4.585938 24.9375 L 4.585938 2.898438 C 4.585938 1.9375 5.382812 1.160156 6.363281 1.160156 L 21.722656 1.160156 C 22.699219 1.160156 23.496094 1.9375 23.496094 2.898438 Z M 23.496094 24.9375 "/>
<path style=" stroke:none;fill-rule:nonzero;fill:rgb(92.941176%,41.176471%,36.078431%);fill-opacity:1;" d="M 21.722656 2.316406 L 6.363281 2.316406 C 6.035156 2.316406 5.765625 2.578125 5.765625 2.898438 L 5.765625 24.9375 C 5.765625 25.253906 6.03125 25.515625 6.363281 25.515625 L 21.722656 25.515625 C 22.046875 25.515625 22.3125 25.257812 22.3125 24.9375 L 22.3125 2.898438 C 22.3125 2.582031 22.050781 2.316406 21.722656 2.316406 Z M 21.128906 24.355469 L 6.949219 24.355469 L 6.949219 3.476562 L 21.128906 3.476562 Z M 21.128906 24.355469 "/>
<path style=" stroke:none;fill-rule:nonzero;fill:rgb(92.941176%,41.176471%,36.078431%);fill-opacity:1;" d="M 11.503906 4.808594 C 11.273438 4.585938 10.894531 4.585938 10.667969 4.808594 L 8.304688 7.128906 C 8.074219 7.351562 8.074219 7.722656 8.304688 7.945312 C 8.421875 8.058594 8.574219 8.117188 8.726562 8.117188 C 8.878906 8.117188 9.027344 8.0625 9.140625 7.945312 L 11.503906 5.628906 C 11.734375 5.402344 11.734375 5.035156 11.503906 4.808594 Z M 11.503906 4.808594 "/>
<path style=" stroke:none;fill-rule:nonzero;fill:rgb(92.941176%,41.176471%,36.078431%);fill-opacity:1;" d="M 13.867188 5.96875 C 13.640625 5.742188 13.261719 5.742188 13.035156 5.96875 L 8.304688 10.609375 C 8.074219 10.835938 8.074219 11.203125 8.304688 11.429688 C 8.421875 11.542969 8.574219 11.597656 8.726562 11.597656 C 8.878906 11.597656 9.027344 11.542969 9.140625 11.429688 L 13.867188 6.789062 C 14.097656 6.5625 14.097656 6.191406 13.867188 5.96875 Z M 13.867188 5.96875 "/>
</g>
</svg>
