<?xml version="1.0" encoding="UTF-8"?>
<svg xmlns="http://www.w3.org/2000/svg" xmlns:xlink="http://www.w3.org/1999/xlink" width="28px" height="28px" viewBox="0 0 28 37" version="1.1">
<g id="surface1">
<path style=" stroke:none;fill-rule:nonzero;fill:rgb(92.941176%,41.176471%,36.078431%);fill-opacity:1;" d="M 24.203125 0 L 3.90625 0 C 1.75 0 0 1.722656 0 3.832031 L 0 32.953125 C 0 35.066406 1.757812 36.78125 3.90625 36.78125 L 24.203125 36.78125 C 26.359375 36.78125 28.105469 35.0625 28.105469 32.953125 L 28.105469 3.832031 C 28.105469 1.714844 26.351562 0 24.203125 0 Z M 26.546875 32.953125 C 26.546875 34.21875 25.496094 35.25 24.203125 35.25 L 3.90625 35.25 C 2.613281 35.25 1.5625 34.21875 1.5625 32.953125 L 1.5625 3.832031 C 1.5625 2.5625 2.613281 1.53125 3.90625 1.53125 L 24.203125 1.53125 C 25.496094 1.53125 26.546875 2.5625 26.546875 3.832031 Z M 26.546875 32.953125 "/>
<path style=" stroke:none;fill-rule:nonzero;fill:rgb(92.941176%,41.176471%,36.078431%);fill-opacity:1;" d="M 24.203125 3.0625 L 3.90625 3.0625 C 3.476562 3.0625 3.121094 3.40625 3.121094 3.832031 L 3.121094 32.953125 C 3.121094 33.371094 3.46875 33.71875 3.90625 33.71875 L 24.203125 33.71875 C 24.632812 33.71875 24.984375 33.378906 24.984375 32.953125 L 24.984375 3.832031 C 24.984375 3.410156 24.636719 3.0625 24.203125 3.0625 Z M 23.421875 32.183594 L 4.683594 32.183594 L 4.683594 4.59375 L 23.421875 4.59375 Z M 23.421875 32.183594 "/>
<path style=" stroke:none;fill-rule:nonzero;fill:rgb(92.941176%,41.176471%,36.078431%);fill-opacity:1;" d="M 10.699219 6.355469 C 10.394531 6.058594 9.898438 6.058594 9.597656 6.355469 L 6.476562 9.417969 C 6.171875 9.714844 6.171875 10.203125 6.476562 10.5 C 6.628906 10.648438 6.832031 10.726562 7.03125 10.726562 C 7.230469 10.726562 7.429688 10.652344 7.578125 10.5 L 10.699219 7.4375 C 11.003906 7.140625 11.003906 6.652344 10.699219 6.355469 Z M 10.699219 6.355469 "/>
<path style=" stroke:none;fill-rule:nonzero;fill:rgb(92.941176%,41.176471%,36.078431%);fill-opacity:1;" d="M 13.824219 7.886719 C 13.523438 7.589844 13.023438 7.589844 12.722656 7.886719 L 6.476562 14.019531 C 6.171875 14.316406 6.171875 14.804688 6.476562 15.101562 C 6.628906 15.253906 6.832031 15.324219 7.03125 15.324219 C 7.230469 15.324219 7.429688 15.253906 7.578125 15.101562 L 13.824219 8.96875 C 14.128906 8.671875 14.128906 8.183594 13.824219 7.886719 Z M 13.824219 7.886719 "/>
</g>
</svg>
