<?xml version="1.0" encoding="UTF-8"?>
<svg xmlns="http://www.w3.org/2000/svg" xmlns:xlink="http://www.w3.org/1999/xlink" width="28px" height="28px" viewBox="0 0 28 28" version="1.1">
<g id="surface1">
<path style=" stroke:none;fill-rule:nonzero;fill:rgb(92.941176%,41.176471%,36.078431%);fill-opacity:1;" d="M 23.484375 10.265625 L 19.902344 10.265625 C 21 9.136719 21.609375 7.632812 21.605469 6.066406 C 21.605469 5.808594 21.394531 5.601562 21.140625 5.601562 L 17.847656 5.601562 L 17.847656 4.667969 C 17.847656 4.410156 17.632812 4.203125 17.375 4.203125 L 15.492188 4.203125 C 15.234375 4.203125 15.023438 4.414062 15.023438 4.667969 L 15.023438 5.601562 L 14.550781 5.601562 L 14.550781 2.335938 C 14.550781 1.5625 15.183594 0.933594 15.960938 0.933594 C 16.738281 0.933594 17.371094 1.5625 17.371094 2.335938 C 17.371094 2.59375 17.582031 2.800781 17.84375 2.800781 C 18.105469 2.800781 18.3125 2.589844 18.3125 2.335938 C 18.3125 1.046875 17.257812 0.00390625 15.960938 0.00390625 C 14.660156 0.00390625 13.613281 1.046875 13.613281 2.335938 L 13.613281 5.601562 L 13.136719 5.601562 L 13.136719 4.667969 C 13.136719 4.410156 12.929688 4.203125 12.667969 4.203125 L 10.785156 4.203125 C 10.527344 4.203125 10.316406 4.414062 10.316406 4.667969 L 10.316406 5.601562 L 7.023438 5.601562 C 6.761719 5.601562 6.554688 5.808594 6.554688 6.066406 C 6.554688 7.632812 7.167969 9.136719 8.265625 10.265625 L 4.671875 10.265625 C 4.414062 10.265625 4.203125 10.476562 4.203125 10.734375 L 4.203125 22.867188 C 4.203125 23.125 4.417969 23.335938 4.671875 23.335938 L 5.144531 23.335938 L 5.144531 27.535156 C 5.144531 27.792969 5.355469 28 5.613281 28 L 7.023438 28 C 7.253906 28 7.449219 27.835938 7.488281 27.609375 L 7.824219 25.589844 C 7.863281 25.363281 8.0625 25.199219 8.289062 25.199219 L 19.867188 25.199219 C 20.097656 25.199219 20.292969 25.363281 20.332031 25.589844 L 20.667969 27.609375 C 20.707031 27.835938 20.902344 28 21.132812 28 L 22.542969 28 C 22.804688 28 23.011719 27.789062 23.011719 27.535156 L 23.011719 23.335938 L 23.484375 23.335938 C 23.746094 23.335938 23.953125 23.125 23.953125 22.867188 L 23.953125 10.734375 C 23.953125 10.476562 23.742188 10.265625 23.484375 10.265625 Z M 15.960938 5.132812 L 16.902344 5.132812 L 16.902344 5.597656 L 15.960938 5.597656 Z M 11.257812 5.132812 L 12.199219 5.132812 L 12.199219 5.597656 L 11.257812 5.597656 Z M 7.515625 6.53125 L 20.640625 6.53125 C 20.507812 8.035156 19.710938 9.402344 18.46875 10.265625 L 9.691406 10.265625 C 8.445312 9.402344 7.648438 8.035156 7.511719 6.53125 Z M 5.140625 22.398438 L 5.140625 11.199219 L 13.609375 11.199219 L 13.609375 22.398438 Z M 22.078125 27.066406 L 21.535156 27.066406 L 21.261719 25.433594 C 21.152344 24.761719 20.558594 24.265625 19.871094 24.265625 L 8.292969 24.265625 C 7.601562 24.261719 7.011719 24.761719 6.902344 25.433594 L 6.628906 27.066406 L 6.085938 27.066406 L 6.085938 23.332031 L 22.082031 23.332031 L 22.082031 27.066406 Z M 23.019531 22.398438 L 14.550781 22.398438 L 14.550781 11.199219 L 23.019531 11.199219 Z M 23.019531 22.398438 "/>
<path style=" stroke:none;fill-rule:nonzero;fill:rgb(92.941176%,41.176471%,36.078431%);fill-opacity:1;" d="M 15.488281 18.199219 C 15.75 18.199219 15.957031 17.988281 15.957031 17.734375 L 15.957031 15.867188 C 15.957031 15.609375 15.746094 15.402344 15.488281 15.402344 C 15.230469 15.402344 15.019531 15.609375 15.019531 15.867188 L 15.019531 17.734375 C 15.019531 17.992188 15.234375 18.199219 15.488281 18.199219 Z M 15.488281 18.199219 "/>
<path style=" stroke:none;fill-rule:nonzero;fill:rgb(92.941176%,41.176471%,36.078431%);fill-opacity:1;" d="M 12.664062 15.398438 C 12.40625 15.398438 12.199219 15.609375 12.199219 15.863281 L 12.199219 17.730469 C 12.199219 17.988281 12.410156 18.199219 12.664062 18.199219 C 12.929688 18.199219 13.136719 17.988281 13.136719 17.730469 L 13.136719 15.863281 C 13.136719 15.605469 12.925781 15.398438 12.664062 15.398438 Z M 12.664062 15.398438 "/>
</g>
</svg>
