<?xml version="1.0" encoding="UTF-8"?>
<svg xmlns="http://www.w3.org/2000/svg" xmlns:xlink="http://www.w3.org/1999/xlink" width="28px" height="28px" viewBox="0 0 28 28" version="1.1">
<g id="surface1">
<path style=" stroke:none;fill-rule:nonzero;fill:rgb(92.941176%,41.176471%,36.078431%);fill-opacity:1;" d="M 20.070312 12.992188 L 19.597656 12.992188 L 19.597656 12.066406 L 20.070312 12.066406 C 20.851562 12.066406 21.484375 11.441406 21.484375 10.671875 L 21.484375 2.699219 C 22.214844 2.445312 22.601562 1.652344 22.34375 0.929688 C 22.144531 0.371094 21.609375 0 21.011719 0.00390625 L 6.890625 0.00390625 C 6.113281 0 5.480469 0.621094 5.476562 1.386719 C 5.476562 1.976562 5.855469 2.503906 6.417969 2.699219 L 6.417969 10.671875 C 6.417969 11.441406 7.050781 12.066406 7.828125 12.066406 L 8.304688 12.066406 L 8.304688 12.992188 L 7.828125 12.992188 C 6.53125 12.996094 5.476562 14.03125 5.476562 15.3125 C 5.476562 15.570312 5.6875 15.777344 5.949219 15.777344 C 5.941406 18.875 7.785156 21.691406 10.65625 22.957031 L 10.65625 27.378906 C 10.65625 27.632812 10.867188 27.839844 11.128906 27.839844 L 16.773438 27.839844 C 17.035156 27.839844 17.246094 27.632812 17.246094 27.378906 L 17.246094 22.957031 C 20.117188 21.691406 21.964844 18.875 21.953125 15.777344 C 22.214844 15.777344 22.425781 15.570312 22.425781 15.3125 C 22.425781 14.03125 21.371094 12.996094 20.074219 12.992188 Z M 6.417969 1.390625 C 6.417969 1.136719 6.632812 0.925781 6.890625 0.925781 L 21.011719 0.925781 C 21.269531 0.925781 21.484375 1.136719 21.484375 1.390625 C 21.484375 1.648438 21.273438 1.855469 21.011719 1.855469 L 6.890625 1.855469 C 6.632812 1.855469 6.417969 1.648438 6.417969 1.390625 Z M 7.828125 11.136719 C 7.570312 11.136719 7.359375 10.929688 7.359375 10.671875 L 7.359375 2.785156 L 20.542969 2.785156 L 20.542969 10.671875 C 20.542969 10.929688 20.328125 11.136719 20.066406 11.136719 Z M 18.65625 12.066406 L 18.65625 12.992188 L 9.242188 12.992188 L 9.242188 12.066406 Z M 11.597656 26.914062 L 11.597656 23.316406 L 11.640625 23.332031 C 11.6875 23.34375 11.734375 23.355469 11.78125 23.367188 C 11.953125 23.414062 12.125 23.457031 12.300781 23.496094 C 12.386719 23.511719 12.472656 23.523438 12.558594 23.539062 C 12.703125 23.566406 12.847656 23.585938 12.996094 23.605469 C 13.085938 23.613281 13.175781 23.621094 13.265625 23.632812 C 13.457031 23.648438 13.648438 23.65625 13.839844 23.660156 C 13.875 23.660156 13.910156 23.664062 13.949219 23.664062 C 13.980469 23.664062 14.019531 23.660156 14.050781 23.660156 C 14.246094 23.65625 14.4375 23.644531 14.628906 23.632812 C 14.71875 23.621094 14.808594 23.613281 14.898438 23.605469 C 15.042969 23.585938 15.1875 23.566406 15.332031 23.539062 C 15.417969 23.523438 15.503906 23.511719 15.589844 23.496094 C 15.761719 23.457031 15.929688 23.414062 16.097656 23.371094 C 16.152344 23.355469 16.203125 23.34375 16.257812 23.332031 C 16.269531 23.324219 16.285156 23.324219 16.300781 23.316406 L 16.300781 26.914062 L 11.59375 26.914062 Z M 16.597656 22.230469 C 15.328125 22.734375 13.941406 22.863281 12.597656 22.605469 C 12.15625 22.523438 11.71875 22.394531 11.300781 22.226562 C 8.628906 21.171875 6.882812 18.613281 6.886719 15.777344 L 21.011719 15.777344 C 21.019531 18.613281 19.269531 21.171875 16.597656 22.230469 Z M 6.5 14.847656 C 6.699219 14.292969 7.234375 13.921875 7.828125 13.917969 L 20.070312 13.917969 C 20.667969 13.921875 21.203125 14.292969 21.402344 14.847656 Z M 6.5 14.847656 "/>
</g>
</svg>
