<?xml version="1.0" encoding="UTF-8"?>
<svg xmlns="http://www.w3.org/2000/svg" xmlns:xlink="http://www.w3.org/1999/xlink" width="28px" height="28px" viewBox="0 0 28 30" version="1.1">
<g id="surface1">
<path style=" stroke:none;fill-rule:nonzero;fill:rgb(92.941176%,41.176471%,36.078431%);fill-opacity:1;" d="M 5.582031 2.484375 C 3.902344 2.484375 2.539062 3.820312 2.539062 5.46875 C 2.539062 7.113281 3.902344 8.449219 5.582031 8.453125 C 7.265625 8.453125 8.628906 7.117188 8.628906 5.46875 C 8.628906 3.820312 7.265625 2.484375 5.582031 2.484375 Z M 5.582031 7.457031 C 4.460938 7.457031 3.550781 6.566406 3.550781 5.46875 C 3.550781 4.371094 4.460938 3.480469 5.582031 3.480469 C 6.703125 3.480469 7.613281 4.371094 7.613281 5.46875 C 7.613281 6.566406 6.703125 7.457031 5.582031 7.457031 Z M 5.582031 7.457031 "/>
<path style=" stroke:none;fill-rule:nonzero;fill:rgb(92.941176%,41.176471%,36.078431%);fill-opacity:1;" d="M 11.144531 19.742188 L 8.097656 9.800781 C 8.035156 9.589844 7.835938 9.445312 7.613281 9.445312 L 3.550781 9.445312 C 3.328125 9.445312 3.128906 9.589844 3.066406 9.800781 L 0.0195312 19.742188 C -0.0234375 19.894531 0.00390625 20.058594 0.101562 20.183594 C 0.195312 20.308594 0.347656 20.382812 0.507812 20.382812 L 2.539062 20.382812 L 2.539062 26.84375 C 2.539062 27.121094 2.765625 27.34375 3.046875 27.34375 L 8.121094 27.34375 C 8.398438 27.34375 8.628906 27.121094 8.628906 26.84375 L 8.628906 20.382812 L 10.65625 20.382812 C 10.9375 20.382812 11.164062 20.160156 11.164062 19.886719 C 11.164062 19.835938 11.15625 19.789062 11.144531 19.742188 Z M 8.121094 19.386719 C 7.839844 19.386719 7.613281 19.609375 7.613281 19.886719 L 7.613281 26.347656 L 6.089844 26.347656 L 6.089844 19.386719 L 5.074219 19.386719 L 5.074219 26.347656 L 3.554688 26.347656 L 3.554688 19.886719 C 3.554688 19.609375 3.328125 19.386719 3.046875 19.386719 L 1.191406 19.386719 L 3.929688 10.441406 L 7.234375 10.441406 L 9.976562 19.386719 Z M 8.121094 19.386719 "/>
<path style=" stroke:none;fill-rule:nonzero;fill:rgb(92.941176%,41.176471%,36.078431%);fill-opacity:1;" d="M 22.835938 2.484375 C 21.15625 2.484375 19.792969 3.820312 19.792969 5.46875 C 19.792969 7.117188 21.15625 8.453125 22.835938 8.453125 C 24.519531 8.449219 25.882812 7.113281 25.882812 5.46875 C 25.882812 3.820312 24.519531 2.484375 22.835938 2.484375 Z M 22.835938 7.457031 C 21.714844 7.457031 20.808594 6.566406 20.808594 5.46875 C 20.808594 4.371094 21.714844 3.480469 22.835938 3.480469 C 23.957031 3.480469 24.867188 4.371094 24.867188 5.46875 C 24.867188 6.566406 23.957031 7.457031 22.835938 7.457031 Z M 22.835938 7.457031 "/>
<path style=" stroke:none;fill-rule:nonzero;fill:rgb(92.941176%,41.176471%,36.078431%);fill-opacity:1;" d="M 24.359375 9.445312 L 21.316406 9.445312 C 19.355469 9.449219 17.765625 11.003906 17.761719 12.925781 L 17.761719 19.886719 C 17.761719 20.160156 17.988281 20.382812 18.269531 20.382812 L 19.792969 20.382812 L 19.792969 26.84375 C 19.792969 27.121094 20.019531 27.34375 20.300781 27.34375 L 25.375 27.34375 C 25.65625 27.34375 25.882812 27.121094 25.882812 26.84375 L 25.882812 20.382812 L 27.40625 20.382812 C 27.683594 20.382812 27.910156 20.160156 27.910156 19.886719 L 27.910156 12.925781 C 27.910156 11.003906 26.320312 9.449219 24.359375 9.445312 Z M 26.898438 19.386719 L 25.882812 19.386719 L 25.882812 13.421875 L 24.867188 13.421875 L 24.867188 26.347656 L 23.34375 26.347656 L 23.34375 19.386719 L 22.328125 19.386719 L 22.328125 26.347656 L 20.808594 26.347656 L 20.808594 13.421875 L 19.792969 13.421875 L 19.792969 19.386719 L 18.777344 19.386719 L 18.777344 12.925781 C 18.777344 11.554688 19.914062 10.441406 21.316406 10.441406 L 24.359375 10.441406 C 25.761719 10.441406 26.894531 11.554688 26.898438 12.925781 Z M 26.898438 19.386719 "/>
<path style=" stroke:none;fill-rule:nonzero;fill:rgb(92.941176%,41.176471%,36.078431%);fill-opacity:1;" d="M 13.703125 0 L 14.71875 0 L 14.71875 29.828125 L 13.703125 29.828125 Z M 13.703125 0 "/>
</g>
</svg>
