<?xml version="1.0" encoding="UTF-8"?>
<svg xmlns="http://www.w3.org/2000/svg" xmlns:xlink="http://www.w3.org/1999/xlink" width="28px" height="28px" viewBox="0 0 28 28" version="1.1">
<g id="surface1">
<path style=" stroke:none;fill-rule:nonzero;fill:rgb(92.941176%,41.176471%,36.078431%);fill-opacity:1;" d="M 6.144531 2.320312 C 4.574219 2.320312 3.304688 3.566406 3.304688 5.105469 C 3.304688 6.640625 4.574219 7.886719 6.144531 7.890625 C 7.714844 7.890625 8.988281 6.644531 8.988281 5.105469 C 8.988281 3.566406 7.714844 2.320312 6.144531 2.320312 Z M 6.144531 6.960938 C 5.097656 6.960938 4.246094 6.128906 4.246094 5.105469 C 4.246094 4.078125 5.097656 3.25 6.144531 3.25 C 7.191406 3.25 8.039062 4.078125 8.039062 5.105469 C 8.039062 6.128906 7.191406 6.960938 6.144531 6.960938 Z M 6.144531 6.960938 "/>
<path style=" stroke:none;fill-rule:nonzero;fill:rgb(92.941176%,41.176471%,36.078431%);fill-opacity:1;" d="M 11.335938 18.425781 L 8.492188 9.148438 C 8.433594 8.949219 8.246094 8.816406 8.039062 8.816406 L 4.246094 8.816406 C 4.039062 8.816406 3.855469 8.949219 3.796875 9.148438 L 0.953125 18.425781 C 0.910156 18.566406 0.9375 18.722656 1.027344 18.839844 C 1.117188 18.953125 1.257812 19.023438 1.40625 19.023438 L 3.304688 19.023438 L 3.304688 25.054688 C 3.304688 25.3125 3.515625 25.519531 3.777344 25.519531 L 8.511719 25.519531 C 8.773438 25.519531 8.988281 25.3125 8.988281 25.054688 L 8.988281 19.023438 L 10.878906 19.023438 C 11.140625 19.023438 11.351562 18.816406 11.351562 18.5625 C 11.351562 18.511719 11.347656 18.46875 11.335938 18.425781 Z M 8.511719 18.09375 C 8.25 18.09375 8.039062 18.300781 8.039062 18.5625 L 8.039062 24.589844 L 6.617188 24.589844 L 6.617188 18.09375 L 5.667969 18.09375 L 5.667969 24.589844 L 4.25 24.589844 L 4.25 18.5625 C 4.25 18.300781 4.039062 18.09375 3.777344 18.09375 L 2.046875 18.09375 L 4.601562 9.746094 L 7.683594 9.746094 L 10.246094 18.09375 Z M 8.511719 18.09375 "/>
<path style=" stroke:none;fill-rule:nonzero;fill:rgb(92.941176%,41.176471%,36.078431%);fill-opacity:1;" d="M 22.246094 2.320312 C 20.679688 2.320312 19.40625 3.566406 19.40625 5.105469 C 19.40625 6.644531 20.679688 7.890625 22.246094 7.890625 C 23.816406 7.886719 25.089844 6.640625 25.089844 5.105469 C 25.089844 3.566406 23.816406 2.320312 22.246094 2.320312 Z M 22.246094 6.960938 C 21.199219 6.960938 20.355469 6.128906 20.355469 5.105469 C 20.355469 4.078125 21.199219 3.25 22.246094 3.25 C 23.292969 3.25 24.144531 4.078125 24.144531 5.105469 C 24.144531 6.128906 23.292969 6.960938 22.246094 6.960938 Z M 22.246094 6.960938 "/>
<path style=" stroke:none;fill-rule:nonzero;fill:rgb(92.941176%,41.176471%,36.078431%);fill-opacity:1;" d="M 23.667969 8.816406 L 20.828125 8.816406 C 19 8.820312 17.515625 10.269531 17.511719 12.0625 L 17.511719 18.5625 C 17.511719 18.816406 17.722656 19.023438 17.984375 19.023438 L 19.40625 19.023438 L 19.40625 25.054688 C 19.40625 25.3125 19.617188 25.519531 19.878906 25.519531 L 24.617188 25.519531 C 24.878906 25.519531 25.089844 25.3125 25.089844 25.054688 L 25.089844 19.023438 L 26.511719 19.023438 C 26.769531 19.023438 26.984375 18.816406 26.984375 18.5625 L 26.984375 12.0625 C 26.984375 10.269531 25.5 8.820312 23.667969 8.816406 Z M 26.039062 18.09375 L 25.089844 18.09375 L 25.089844 12.527344 L 24.144531 12.527344 L 24.144531 24.589844 L 22.722656 24.589844 L 22.722656 18.09375 L 21.773438 18.09375 L 21.773438 24.589844 L 20.355469 24.589844 L 20.355469 12.527344 L 19.40625 12.527344 L 19.40625 18.09375 L 18.457031 18.09375 L 18.457031 12.0625 C 18.457031 10.785156 19.519531 9.746094 20.828125 9.746094 L 23.667969 9.746094 C 24.976562 9.746094 26.035156 10.785156 26.039062 12.0625 Z M 26.039062 18.09375 "/>
<path style=" stroke:none;fill-rule:nonzero;fill:rgb(92.941176%,41.176471%,36.078431%);fill-opacity:1;" d="M 13.722656 0 L 14.671875 0 L 14.671875 27.839844 L 13.722656 27.839844 Z M 13.722656 0 "/>
</g>
</svg>
