<?xml version="1.0" encoding="UTF-8"?>
<svg xmlns="http://www.w3.org/2000/svg" xmlns:xlink="http://www.w3.org/1999/xlink" width="28px" height="28px" viewBox="0 0 28 37" version="1.1">
<g id="surface1">
<path style=" stroke:none;fill-rule:nonzero;fill:rgb(92.941176%,41.176471%,36.078431%);fill-opacity:1;" d="M 25.214844 0 L 3.199219 0 C 1.4375 0 0 1.40625 0 3.136719 L 0 32.378906 C 0 33.199219 0.542969 33.898438 1.292969 34.144531 L 1.292969 34.921875 C 1.292969 35.949219 2.148438 36.785156 3.199219 36.785156 L 25.214844 36.785156 C 26.261719 36.785156 27.117188 35.949219 27.117188 34.917969 L 27.117188 34.144531 C 27.867188 33.894531 28.410156 33.195312 28.410156 32.375 L 28.410156 3.136719 C 28.410156 1.40625 26.976562 -0.00390625 25.214844 -0.00390625 Z M 3.199219 1.191406 L 25.214844 1.191406 C 26.308594 1.191406 27.195312 2.066406 27.195312 3.136719 L 27.195312 7.628906 L 1.214844 7.628906 L 1.214844 3.136719 C 1.214844 2.066406 2.105469 1.191406 3.199219 1.191406 Z M 25.214844 35.59375 L 3.199219 35.59375 C 2.816406 35.59375 2.511719 35.292969 2.511719 34.921875 L 2.511719 34.246094 L 25.902344 34.246094 L 25.902344 34.921875 C 25.902344 35.292969 25.597656 35.59375 25.214844 35.59375 Z M 26.507812 33.050781 L 1.902344 33.050781 C 1.523438 33.050781 1.214844 32.75 1.214844 32.378906 L 1.214844 8.820312 L 27.195312 8.820312 L 27.195312 32.378906 C 27.195312 32.75 26.890625 33.050781 26.511719 33.050781 Z M 26.507812 33.050781 "/>
<path style=" stroke:none;fill-rule:nonzero;fill:rgb(92.941176%,41.176471%,36.078431%);fill-opacity:1;" d="M 14.207031 10.804688 C 8.515625 10.804688 3.886719 15.351562 3.886719 20.9375 C 3.886719 26.523438 8.515625 31.066406 14.207031 31.066406 C 19.898438 31.066406 24.527344 26.523438 24.527344 20.9375 C 24.527344 15.351562 19.898438 10.804688 14.207031 10.804688 Z M 14.207031 29.875 C 9.1875 29.875 5.097656 25.863281 5.097656 20.933594 C 5.097656 16.007812 9.183594 11.996094 14.207031 11.996094 C 19.226562 11.996094 23.3125 16.003906 23.3125 20.933594 C 23.3125 25.863281 19.226562 29.875 14.207031 29.875 Z M 14.207031 29.875 "/>
<path style=" stroke:none;fill-rule:nonzero;fill:rgb(92.941176%,41.176471%,36.078431%);fill-opacity:1;" d="M 18.09375 6.277344 C 19.140625 6.277344 19.996094 5.441406 19.996094 4.410156 C 19.996094 3.378906 19.144531 2.539062 18.09375 2.539062 C 17.042969 2.539062 16.1875 3.378906 16.1875 4.410156 C 16.1875 5.4375 17.042969 6.277344 18.09375 6.277344 Z M 18.09375 3.734375 C 18.472656 3.734375 18.78125 4.035156 18.78125 4.410156 C 18.78125 4.78125 18.472656 5.082031 18.09375 5.082031 C 17.710938 5.082031 17.40625 4.78125 17.40625 4.410156 C 17.40625 4.035156 17.710938 3.734375 18.09375 3.734375 Z M 18.09375 3.734375 "/>
<path style=" stroke:none;fill-rule:nonzero;fill:rgb(92.941176%,41.176471%,36.078431%);fill-opacity:1;" d="M 23.273438 6.277344 C 24.320312 6.277344 25.175781 5.441406 25.175781 4.410156 C 25.175781 3.378906 24.324219 2.539062 23.273438 2.539062 C 22.226562 2.539062 21.371094 3.378906 21.371094 4.410156 C 21.371094 5.4375 22.222656 6.277344 23.273438 6.277344 Z M 23.273438 3.734375 C 23.652344 3.734375 23.960938 4.035156 23.960938 4.410156 C 23.960938 4.78125 23.652344 5.082031 23.273438 5.082031 C 22.894531 5.082031 22.585938 4.78125 22.585938 4.410156 C 22.585938 4.035156 22.894531 3.734375 23.273438 3.734375 Z M 23.273438 3.734375 "/>
<path style=" stroke:none;fill-rule:nonzero;fill:rgb(92.941176%,41.176471%,36.078431%);fill-opacity:1;" d="M 4.496094 6.277344 L 12.910156 6.277344 C 13.605469 6.277344 14.164062 5.722656 14.164062 5.046875 L 14.164062 3.777344 C 14.164062 3.097656 13.601562 2.546875 12.910156 2.546875 L 4.496094 2.546875 C 3.800781 2.546875 3.242188 3.097656 3.242188 3.777344 L 3.242188 5.046875 C 3.242188 5.726562 3.804688 6.277344 4.496094 6.277344 Z M 4.453125 3.773438 C 4.453125 3.753906 4.472656 3.734375 4.496094 3.734375 L 12.910156 3.734375 C 12.933594 3.734375 12.953125 3.753906 12.953125 3.773438 L 12.953125 5.042969 C 12.953125 5.0625 12.933594 5.082031 12.910156 5.082031 L 4.496094 5.082031 C 4.472656 5.082031 4.453125 5.0625 4.453125 5.042969 Z M 4.453125 3.773438 "/>
<path style=" stroke:none;fill-rule:nonzero;fill:rgb(92.941176%,41.176471%,36.078431%);fill-opacity:1;" d="M 14.207031 13.347656 C 9.941406 13.347656 6.476562 16.75 6.476562 20.9375 C 6.476562 25.121094 9.941406 28.527344 14.207031 28.527344 C 18.46875 28.527344 21.9375 25.121094 21.9375 20.9375 C 21.9375 16.75 18.46875 13.347656 14.207031 13.347656 Z M 14.207031 27.332031 C 10.613281 27.332031 7.6875 24.464844 7.6875 20.933594 C 7.6875 17.40625 10.609375 14.535156 14.207031 14.535156 C 17.796875 14.535156 20.722656 17.40625 20.722656 20.933594 C 20.722656 24.460938 17.800781 27.332031 14.207031 27.332031 Z M 14.207031 27.332031 "/>
<path style=" stroke:none;fill-rule:nonzero;fill:rgb(92.941176%,41.176471%,36.078431%);fill-opacity:1;" d="M 14.207031 15.890625 C 13.871094 15.890625 13.597656 16.160156 13.597656 16.488281 C 13.597656 16.816406 13.871094 17.082031 14.207031 17.082031 C 16.371094 17.082031 18.132812 18.8125 18.132812 20.9375 C 18.132812 21.265625 18.40625 21.53125 18.738281 21.53125 C 19.074219 21.53125 19.347656 21.265625 19.347656 20.9375 C 19.347656 18.15625 17.039062 15.890625 14.207031 15.890625 Z M 14.207031 15.890625 "/>
</g>
</svg>
