<?xml version="1.0" encoding="UTF-8"?>
<svg xmlns="http://www.w3.org/2000/svg" xmlns:xlink="http://www.w3.org/1999/xlink" width="28px" height="28px" viewBox="0 0 28 28" version="1.1">
<g id="surface1">
<path style=" stroke:none;fill-rule:nonzero;fill:rgb(92.941176%,41.176471%,36.078431%);fill-opacity:1;" d="M 6.558594 7.464844 C 6.328125 7.464844 6.140625 7.648438 6.140625 7.875 L 6.140625 8.390625 C 6.140625 8.617188 6.328125 8.800781 6.558594 8.800781 C 6.789062 8.800781 6.976562 8.617188 6.976562 8.390625 L 6.976562 7.875 C 6.976562 7.648438 6.789062 7.464844 6.558594 7.464844 Z M 6.558594 7.464844 Z M 6.558594 7.464844 "/>
<path style=" stroke:none;fill-rule:nonzero;fill:rgb(92.941176%,41.176471%,36.078431%);fill-opacity:1;" d="M 8.804688 7.464844 C 8.574219 7.464844 8.386719 7.648438 8.386719 7.875 L 8.386719 8.390625 C 8.386719 8.617188 8.574219 8.800781 8.804688 8.800781 C 9.035156 8.800781 9.222656 8.617188 9.222656 8.390625 L 9.222656 7.875 C 9.222656 7.648438 9.035156 7.464844 8.804688 7.464844 Z M 8.804688 7.464844 Z M 8.804688 7.464844 "/>
<path style=" stroke:none;fill-rule:nonzero;fill:rgb(92.941176%,41.176471%,36.078431%);fill-opacity:1;" d="M 11.054688 7.464844 C 10.824219 7.464844 10.636719 7.648438 10.636719 7.875 L 10.636719 8.390625 C 10.636719 8.617188 10.824219 8.800781 11.054688 8.800781 C 11.28125 8.800781 11.46875 8.617188 11.46875 8.390625 L 11.46875 7.875 C 11.46875 7.648438 11.28125 7.464844 11.054688 7.464844 Z M 11.054688 7.464844 Z M 11.054688 7.464844 "/>
<path style=" stroke:none;fill-rule:nonzero;fill:rgb(92.941176%,41.176471%,36.078431%);fill-opacity:1;" d="M 13.300781 7.464844 C 13.070312 7.464844 12.882812 7.648438 12.882812 7.875 L 12.882812 8.390625 C 12.882812 8.617188 13.070312 8.800781 13.300781 8.800781 C 13.527344 8.800781 13.714844 8.617188 13.714844 8.390625 L 13.714844 7.875 C 13.714844 7.648438 13.527344 7.464844 13.300781 7.464844 Z M 13.300781 7.464844 Z M 13.300781 7.464844 "/>
<path style=" stroke:none;fill-rule:nonzero;fill:rgb(92.941176%,41.176471%,36.078431%);fill-opacity:1;" d="M 15.546875 7.464844 C 15.320312 7.464844 15.132812 7.648438 15.132812 7.875 L 15.132812 8.390625 C 15.132812 8.617188 15.320312 8.800781 15.546875 8.800781 C 15.777344 8.800781 15.964844 8.617188 15.964844 8.390625 L 15.964844 7.875 C 15.964844 7.648438 15.777344 7.464844 15.546875 7.464844 Z M 15.546875 7.464844 Z M 15.546875 7.464844 "/>
<path style=" stroke:none;fill-rule:nonzero;fill:rgb(92.941176%,41.176471%,36.078431%);fill-opacity:1;" d="M 7.683594 9.765625 C 7.453125 9.765625 7.265625 9.949219 7.265625 10.175781 L 7.265625 10.695312 C 7.265625 10.921875 7.453125 11.105469 7.683594 11.105469 C 7.914062 11.105469 8.101562 10.921875 8.101562 10.695312 L 8.101562 10.175781 C 8.101562 9.949219 7.914062 9.765625 7.683594 9.765625 Z M 7.683594 9.765625 Z M 7.683594 9.765625 "/>
<path style=" stroke:none;fill-rule:nonzero;fill:rgb(92.941176%,41.176471%,36.078431%);fill-opacity:1;" d="M 9.929688 9.765625 C 9.699219 9.765625 9.511719 9.949219 9.511719 10.175781 L 9.511719 10.695312 C 9.511719 10.921875 9.699219 11.105469 9.929688 11.105469 C 10.15625 11.105469 10.347656 10.921875 10.347656 10.695312 L 10.347656 10.175781 C 10.347656 9.949219 10.15625 9.765625 9.929688 9.765625 Z M 9.929688 9.765625 Z M 9.929688 9.765625 "/>
<path style=" stroke:none;fill-rule:nonzero;fill:rgb(92.941176%,41.176471%,36.078431%);fill-opacity:1;" d="M 12.179688 9.765625 C 11.949219 9.765625 11.761719 9.949219 11.761719 10.175781 L 11.761719 10.695312 C 11.761719 10.921875 11.949219 11.105469 12.179688 11.105469 C 12.40625 11.105469 12.59375 10.921875 12.59375 10.695312 L 12.59375 10.175781 C 12.59375 9.949219 12.40625 9.765625 12.179688 9.765625 Z M 12.179688 9.765625 Z M 12.179688 9.765625 "/>
<path style=" stroke:none;fill-rule:nonzero;fill:rgb(92.941176%,41.176471%,36.078431%);fill-opacity:1;" d="M 14.421875 9.765625 C 14.195312 9.765625 14.007812 9.949219 14.007812 10.175781 L 14.007812 10.695312 C 14.007812 10.921875 14.195312 11.105469 14.421875 11.105469 C 14.652344 11.105469 14.839844 10.921875 14.839844 10.695312 L 14.839844 10.175781 C 14.839844 9.949219 14.652344 9.765625 14.421875 9.765625 Z M 14.421875 9.765625 Z M 14.421875 9.765625 "/>
<path style=" stroke:none;fill-rule:nonzero;fill:rgb(92.941176%,41.176471%,36.078431%);fill-opacity:1;" d="M 6.558594 11.78125 C 6.328125 11.78125 6.140625 11.964844 6.140625 12.191406 L 6.140625 12.707031 C 6.140625 12.933594 6.328125 13.117188 6.558594 13.117188 C 6.789062 13.117188 6.976562 12.933594 6.976562 12.707031 L 6.976562 12.191406 C 6.976562 11.964844 6.789062 11.78125 6.558594 11.78125 Z M 6.558594 11.78125 Z M 6.558594 11.78125 "/>
<path style=" stroke:none;fill-rule:nonzero;fill:rgb(92.941176%,41.176471%,36.078431%);fill-opacity:1;" d="M 8.804688 11.78125 C 8.574219 11.78125 8.386719 11.964844 8.386719 12.191406 L 8.386719 12.707031 C 8.386719 12.933594 8.574219 13.117188 8.804688 13.117188 C 9.035156 13.117188 9.222656 12.933594 9.222656 12.707031 L 9.222656 12.191406 C 9.222656 11.964844 9.035156 11.78125 8.804688 11.78125 Z M 8.804688 11.78125 Z M 8.804688 11.78125 "/>
<path style=" stroke:none;fill-rule:nonzero;fill:rgb(92.941176%,41.176471%,36.078431%);fill-opacity:1;" d="M 11.054688 11.78125 C 10.824219 11.78125 10.636719 11.964844 10.636719 12.191406 L 10.636719 12.707031 C 10.636719 12.933594 10.824219 13.117188 11.054688 13.117188 C 11.28125 13.117188 11.46875 12.933594 11.46875 12.707031 L 11.46875 12.191406 C 11.46875 11.964844 11.28125 11.78125 11.054688 11.78125 Z M 11.054688 11.78125 Z M 11.054688 11.78125 "/>
<path style=" stroke:none;fill-rule:nonzero;fill:rgb(92.941176%,41.176471%,36.078431%);fill-opacity:1;" d="M 13.300781 11.78125 C 13.070312 11.78125 12.882812 11.964844 12.882812 12.191406 L 12.882812 12.707031 C 12.882812 12.933594 13.070312 13.117188 13.300781 13.117188 C 13.527344 13.117188 13.714844 12.933594 13.714844 12.707031 L 13.714844 12.191406 C 13.714844 11.964844 13.527344 11.78125 13.300781 11.78125 Z M 13.300781 11.78125 Z M 13.300781 11.78125 "/>
<path style=" stroke:none;fill-rule:nonzero;fill:rgb(92.941176%,41.176471%,36.078431%);fill-opacity:1;" d="M 15.546875 11.78125 C 15.320312 11.78125 15.132812 11.964844 15.132812 12.191406 L 15.132812 12.707031 C 15.132812 12.933594 15.320312 13.117188 15.546875 13.117188 C 15.777344 13.117188 15.964844 12.933594 15.964844 12.707031 L 15.964844 12.191406 C 15.964844 11.964844 15.777344 11.78125 15.546875 11.78125 Z M 15.546875 11.78125 Z M 15.546875 11.78125 "/>
<path style=" stroke:none;fill-rule:nonzero;fill:rgb(92.941176%,41.176471%,36.078431%);fill-opacity:1;" d="M 7.683594 14.078125 C 7.453125 14.078125 7.265625 14.261719 7.265625 14.488281 L 7.265625 15.007812 C 7.265625 15.234375 7.453125 15.417969 7.683594 15.417969 C 7.914062 15.417969 8.101562 15.234375 8.101562 15.007812 L 8.101562 14.488281 C 8.101562 14.261719 7.914062 14.078125 7.683594 14.078125 Z M 7.683594 14.078125 Z M 7.683594 14.078125 "/>
<path style=" stroke:none;fill-rule:nonzero;fill:rgb(92.941176%,41.176471%,36.078431%);fill-opacity:1;" d="M 9.929688 14.078125 C 9.699219 14.078125 9.511719 14.261719 9.511719 14.488281 L 9.511719 15.007812 C 9.511719 15.234375 9.699219 15.417969 9.929688 15.417969 C 10.15625 15.417969 10.347656 15.234375 10.347656 15.007812 L 10.347656 14.488281 C 10.347656 14.261719 10.15625 14.078125 9.929688 14.078125 Z M 9.929688 14.078125 Z M 9.929688 14.078125 "/>
<path style=" stroke:none;fill-rule:nonzero;fill:rgb(92.941176%,41.176471%,36.078431%);fill-opacity:1;" d="M 12.179688 14.078125 C 11.949219 14.078125 11.761719 14.261719 11.761719 14.488281 L 11.761719 15.007812 C 11.761719 15.234375 11.949219 15.417969 12.179688 15.417969 C 12.40625 15.417969 12.59375 15.234375 12.59375 15.007812 L 12.59375 14.488281 C 12.59375 14.261719 12.40625 14.078125 12.179688 14.078125 Z M 12.179688 14.078125 Z M 12.179688 14.078125 "/>
<path style=" stroke:none;fill-rule:nonzero;fill:rgb(92.941176%,41.176471%,36.078431%);fill-opacity:1;" d="M 14.421875 14.078125 C 14.195312 14.078125 14.007812 14.261719 14.007812 14.488281 L 14.007812 15.007812 C 14.007812 15.234375 14.195312 15.417969 14.421875 15.417969 C 14.652344 15.417969 14.839844 15.234375 14.839844 15.007812 L 14.839844 14.488281 C 14.839844 14.261719 14.652344 14.078125 14.421875 14.078125 Z M 14.421875 14.078125 Z M 14.421875 14.078125 "/>
<path style=" stroke:none;fill-rule:nonzero;fill:rgb(92.941176%,41.176471%,36.078431%);fill-opacity:1;" d="M 6.558594 16.09375 C 6.328125 16.09375 6.140625 16.28125 6.140625 16.503906 L 6.140625 17.023438 C 6.140625 17.246094 6.328125 17.433594 6.558594 17.433594 C 6.789062 17.433594 6.976562 17.246094 6.976562 17.023438 L 6.976562 16.503906 C 6.976562 16.28125 6.789062 16.09375 6.558594 16.09375 Z M 6.558594 16.09375 Z M 6.558594 16.09375 "/>
<path style=" stroke:none;fill-rule:nonzero;fill:rgb(92.941176%,41.176471%,36.078431%);fill-opacity:1;" d="M 8.804688 16.09375 C 8.574219 16.09375 8.386719 16.28125 8.386719 16.503906 L 8.386719 17.023438 C 8.386719 17.246094 8.574219 17.433594 8.804688 17.433594 C 9.035156 17.433594 9.222656 17.246094 9.222656 17.023438 L 9.222656 16.503906 C 9.222656 16.28125 9.035156 16.09375 8.804688 16.09375 Z M 8.804688 16.09375 Z M 8.804688 16.09375 "/>
<path style=" stroke:none;fill-rule:nonzero;fill:rgb(92.941176%,41.176471%,36.078431%);fill-opacity:1;" d="M 11.054688 16.09375 C 10.824219 16.09375 10.636719 16.28125 10.636719 16.503906 L 10.636719 17.023438 C 10.636719 17.246094 10.824219 17.433594 11.054688 17.433594 C 11.28125 17.433594 11.46875 17.246094 11.46875 17.023438 L 11.46875 16.503906 C 11.46875 16.28125 11.28125 16.09375 11.054688 16.09375 Z M 11.054688 16.09375 Z M 11.054688 16.09375 "/>
<path style=" stroke:none;fill-rule:nonzero;fill:rgb(92.941176%,41.176471%,36.078431%);fill-opacity:1;" d="M 13.300781 16.09375 C 13.070312 16.09375 12.882812 16.28125 12.882812 16.503906 L 12.882812 17.023438 C 12.882812 17.246094 13.070312 17.433594 13.300781 17.433594 C 13.527344 17.433594 13.714844 17.246094 13.714844 17.023438 L 13.714844 16.503906 C 13.714844 16.28125 13.527344 16.09375 13.300781 16.09375 Z M 13.300781 16.09375 Z M 13.300781 16.09375 "/>
<path style=" stroke:none;fill-rule:nonzero;fill:rgb(92.941176%,41.176471%,36.078431%);fill-opacity:1;" d="M 15.546875 16.09375 C 15.320312 16.09375 15.132812 16.28125 15.132812 16.503906 L 15.132812 17.023438 C 15.132812 17.246094 15.320312 17.433594 15.546875 17.433594 C 15.777344 17.433594 15.964844 17.246094 15.964844 17.023438 L 15.964844 16.503906 C 15.964844 16.28125 15.777344 16.09375 15.546875 16.09375 Z M 15.546875 16.09375 Z M 15.546875 16.09375 "/>
<path style=" stroke:none;fill-rule:nonzero;fill:rgb(92.941176%,41.176471%,36.078431%);fill-opacity:1;" d="M 8.804688 20.792969 C 8.574219 20.792969 8.386719 20.976562 8.386719 21.203125 L 8.386719 21.722656 C 8.386719 21.945312 8.574219 22.132812 8.804688 22.132812 C 9.035156 22.132812 9.222656 21.945312 9.222656 21.722656 L 9.222656 21.203125 C 9.222656 20.976562 9.035156 20.792969 8.804688 20.792969 Z M 8.804688 20.792969 Z M 8.804688 20.792969 "/>
<path style=" stroke:none;fill-rule:nonzero;fill:rgb(92.941176%,41.176471%,36.078431%);fill-opacity:1;" d="M 11.054688 20.792969 C 10.824219 20.792969 10.636719 20.976562 10.636719 21.203125 L 10.636719 21.722656 C 10.636719 21.945312 10.824219 22.132812 11.054688 22.132812 C 11.28125 22.132812 11.46875 21.945312 11.46875 21.722656 L 11.46875 21.203125 C 11.46875 20.976562 11.28125 20.792969 11.054688 20.792969 Z M 11.054688 20.792969 Z M 11.054688 20.792969 "/>
<path style=" stroke:none;fill-rule:nonzero;fill:rgb(92.941176%,41.176471%,36.078431%);fill-opacity:1;" d="M 13.300781 20.792969 C 13.070312 20.792969 12.882812 20.976562 12.882812 21.203125 L 12.882812 21.722656 C 12.882812 21.945312 13.070312 22.132812 13.300781 22.132812 C 13.527344 22.132812 13.714844 21.945312 13.714844 21.722656 L 13.714844 21.203125 C 13.714844 20.976562 13.527344 20.792969 13.300781 20.792969 Z M 13.300781 20.792969 Z M 13.300781 20.792969 "/>
<path style=" stroke:none;fill-rule:nonzero;fill:rgb(92.941176%,41.176471%,36.078431%);fill-opacity:1;" d="M 7.683594 18.449219 C 7.453125 18.449219 7.265625 18.636719 7.265625 18.859375 L 7.265625 19.378906 C 7.265625 19.605469 7.453125 19.789062 7.683594 19.789062 C 7.914062 19.789062 8.101562 19.605469 8.101562 19.378906 L 8.101562 18.859375 C 8.101562 18.636719 7.914062 18.449219 7.683594 18.449219 Z M 7.683594 18.449219 Z M 7.683594 18.449219 "/>
<path style=" stroke:none;fill-rule:nonzero;fill:rgb(92.941176%,41.176471%,36.078431%);fill-opacity:1;" d="M 9.929688 18.449219 C 9.699219 18.449219 9.511719 18.636719 9.511719 18.859375 L 9.511719 19.378906 C 9.511719 19.605469 9.699219 19.789062 9.929688 19.789062 C 10.15625 19.789062 10.347656 19.605469 10.347656 19.378906 L 10.347656 18.859375 C 10.347656 18.636719 10.15625 18.449219 9.929688 18.449219 Z M 9.929688 18.449219 Z M 9.929688 18.449219 "/>
<path style=" stroke:none;fill-rule:nonzero;fill:rgb(92.941176%,41.176471%,36.078431%);fill-opacity:1;" d="M 12.179688 18.449219 C 11.949219 18.449219 11.761719 18.636719 11.761719 18.859375 L 11.761719 19.378906 C 11.761719 19.605469 11.949219 19.789062 12.179688 19.789062 C 12.40625 19.789062 12.59375 19.605469 12.59375 19.378906 L 12.59375 18.859375 C 12.59375 18.636719 12.40625 18.449219 12.179688 18.449219 Z M 12.179688 18.449219 Z M 12.179688 18.449219 "/>
<path style=" stroke:none;fill-rule:nonzero;fill:rgb(92.941176%,41.176471%,36.078431%);fill-opacity:1;" d="M 14.421875 18.449219 C 14.195312 18.449219 14.007812 18.636719 14.007812 18.859375 L 14.007812 19.378906 C 14.007812 19.605469 14.195312 19.789062 14.421875 19.789062 C 14.652344 19.789062 14.839844 19.605469 14.839844 19.378906 L 14.839844 18.859375 C 14.839844 18.636719 14.652344 18.449219 14.421875 18.449219 Z M 14.421875 18.449219 Z M 14.421875 18.449219 "/>
<path style=" stroke:none;fill-rule:nonzero;fill:rgb(92.941176%,41.176471%,36.078431%);fill-opacity:1;" d="M 25.328125 24.574219 L 23.636719 24.574219 L 23.636719 22.148438 C 23.636719 21.921875 23.449219 21.738281 23.222656 21.738281 C 22.992188 21.738281 22.804688 21.921875 22.804688 22.148438 L 22.804688 24.574219 L 21.492188 24.574219 L 21.492188 0.820312 L 22.804688 0.820312 L 22.804688 20.152344 C 22.804688 20.378906 22.992188 20.5625 23.222656 20.5625 C 23.449219 20.5625 23.636719 20.378906 23.636719 20.152344 L 23.636719 0.683594 C 23.636719 0.304688 23.324219 0 22.941406 0 L 11.328125 0 C 10.945312 0 10.628906 0.308594 10.628906 0.683594 L 10.628906 1.644531 C 9.285156 1.832031 8.238281 2.929688 8.148438 4.28125 L 7.890625 4.28125 C 7.507812 4.28125 7.199219 4.585938 7.199219 4.960938 L 7.199219 5.972656 C 7.199219 6.347656 7.507812 6.65625 7.890625 6.65625 L 14.203125 6.65625 C 14.585938 6.65625 14.898438 6.347656 14.898438 5.96875 L 14.898438 4.960938 C 14.898438 4.578125 14.585938 4.277344 14.203125 4.277344 L 13.949219 4.277344 C 13.859375 2.925781 12.808594 1.832031 11.464844 1.640625 L 11.464844 0.816406 L 20.65625 0.816406 L 20.65625 12.703125 L 20.058594 12.703125 C 19.675781 12.703125 19.363281 13.007812 19.363281 13.382812 L 19.363281 17.597656 C 19.363281 17.976562 19.675781 18.28125 20.058594 18.28125 L 20.65625 18.28125 L 20.65625 24.570312 L 8.492188 24.570312 C 8.261719 24.570312 8.074219 24.757812 8.074219 24.980469 C 8.074219 25.207031 8.261719 25.390625 8.492188 25.390625 L 25.179688 25.390625 L 25.179688 27.175781 L 2.574219 27.175781 L 2.574219 25.390625 L 6.570312 25.390625 C 6.796875 25.390625 6.984375 25.207031 6.984375 24.980469 C 6.984375 24.757812 6.796875 24.570312 6.570312 24.570312 L 2.433594 24.570312 C 2.050781 24.570312 1.738281 24.878906 1.738281 25.257812 L 1.738281 27.3125 C 1.738281 27.691406 2.054688 28 2.433594 28 L 25.316406 28 C 25.703125 28 26.011719 27.691406 26.011719 27.316406 L 26.011719 25.261719 C 26.011719 24.882812 25.699219 24.578125 25.316406 24.578125 Z M 13.113281 4.28125 L 12.769531 4.28125 C 12.539062 4.28125 12.351562 4.464844 12.351562 4.6875 C 12.351562 4.914062 12.539062 5.097656 12.769531 5.097656 L 14.066406 5.097656 L 14.066406 5.835938 L 8.03125 5.835938 L 8.03125 5.097656 L 10.765625 5.097656 C 11 5.097656 11.183594 4.914062 11.183594 4.6875 C 11.183594 4.464844 11 4.28125 10.765625 4.28125 L 8.984375 4.28125 C 9.082031 3.242188 9.96875 2.433594 11.046875 2.433594 C 12.125 2.433594 13.015625 3.242188 13.109375 4.28125 Z M 20.660156 17.460938 L 20.203125 17.460938 L 20.203125 13.523438 L 20.660156 13.523438 Z M 20.660156 17.460938 Z M 20.660156 17.460938 "/>
</g>
</svg>
