<?xml version="1.0" encoding="UTF-8"?>
<svg xmlns="http://www.w3.org/2000/svg" xmlns:xlink="http://www.w3.org/1999/xlink" width="28px" height="28px" viewBox="0 0 28 24" version="1.1">
<g id="surface1">
<path style=" stroke:none;fill-rule:nonzero;fill:rgb(92.941176%,41.176471%,36.078431%);fill-opacity:1;" d="M 16.03125 7.894531 C 16.472656 8.53125 17.21875 8.945312 18.066406 8.945312 C 18.910156 8.945312 19.664062 8.523438 20.097656 7.894531 C 20.539062 8.53125 21.285156 8.945312 22.128906 8.945312 C 23.480469 8.945312 24.574219 7.890625 24.574219 6.589844 C 24.574219 6.550781 24.566406 6.511719 24.550781 6.46875 C 24.519531 6.371094 24.023438 4.871094 22.566406 3.328125 C 22.414062 3.171875 22.152344 3.160156 21.984375 3.304688 C 21.820312 3.449219 21.808594 3.703125 21.960938 3.863281 C 22.808594 4.765625 23.308594 5.65625 23.554688 6.195312 L 20.414062 6.195312 C 20.414062 6.183594 20.410156 6.175781 20.410156 6.171875 C 20.132812 5.199219 19.730469 4.253906 19.210938 3.378906 C 18.785156 2.664062 18.265625 1.984375 17.636719 1.425781 C 17.546875 1.351562 17.464844 1.273438 17.371094 1.199219 C 18.65625 1.539062 19.800781 2.085938 20.804688 2.835938 C 20.980469 2.96875 21.238281 2.941406 21.378906 2.765625 C 21.519531 2.59375 21.488281 2.34375 21.304688 2.210938 C 19.347656 0.738281 16.886719 -0.00390625 13.996094 -0.00390625 C 12.0625 -0.00390625 10.308594 0.328125 8.773438 1 C 7.539062 1.535156 6.449219 2.28125 5.53125 3.21875 C 3.992188 4.796875 3.472656 6.359375 3.4375 6.46875 C 3.433594 6.488281 3.417969 6.570312 3.417969 6.589844 C 3.417969 7.890625 4.511719 8.945312 5.859375 8.945312 C 6.703125 8.945312 7.457031 8.523438 7.890625 7.894531 C 8.332031 8.53125 9.078125 8.945312 9.925781 8.945312 C 10.769531 8.945312 11.523438 8.523438 11.957031 7.894531 C 12.144531 8.160156 12.382812 8.390625 12.65625 8.566406 L 12.65625 13.660156 L 9.324219 13.660156 C 9.09375 13.660156 8.914062 13.835938 8.914062 14.054688 C 8.914062 14.273438 9.09375 14.449219 9.324219 14.449219 L 22.414062 14.449219 C 22.683594 14.449219 22.902344 14.660156 22.902344 14.921875 C 22.902344 15.179688 22.683594 15.390625 22.414062 15.390625 L 5.5625 15.390625 C 5.292969 15.390625 5.078125 15.179688 5.078125 14.921875 C 5.078125 14.660156 5.292969 14.449219 5.5625 14.449219 L 7.683594 14.449219 C 7.914062 14.449219 8.09375 14.273438 8.09375 14.054688 C 8.09375 13.835938 7.914062 13.660156 7.683594 13.660156 L 5.5625 13.660156 C 4.84375 13.660156 4.257812 14.226562 4.257812 14.921875 C 4.257812 15.613281 4.84375 16.179688 5.5625 16.179688 L 10.121094 16.179688 L 12.355469 19.214844 C 12.355469 19.214844 9.566406 23.003906 9.5625 23.015625 C 9.371094 23.269531 9.570312 23.640625 9.894531 23.640625 L 12.152344 23.640625 C 12.289062 23.640625 12.414062 23.582031 12.492188 23.476562 L 13.988281 21.433594 L 15.488281 23.476562 C 15.566406 23.582031 15.691406 23.640625 15.824219 23.640625 C 15.824219 23.640625 18.082031 23.640625 18.085938 23.640625 C 18.414062 23.640625 18.609375 23.273438 18.421875 23.015625 L 15.628906 19.214844 L 17.863281 16.179688 L 22.421875 16.179688 C 23.140625 16.179688 23.726562 15.613281 23.726562 14.921875 C 23.726562 14.226562 23.140625 13.660156 22.421875 13.660156 L 15.328125 13.660156 L 15.328125 8.566406 C 15.609375 8.390625 15.847656 8.160156 16.027344 7.894531 Z M 23.703125 6.984375 C 23.519531 7.65625 22.882812 8.15625 22.128906 8.15625 C 21.378906 8.15625 20.742188 7.660156 20.558594 6.984375 Z M 14.601562 16.175781 L 14 16.988281 L 13.398438 16.175781 Z M 11.953125 22.84375 L 10.695312 22.84375 L 12.871094 19.894531 L 13.496094 20.746094 Z M 17.304688 22.84375 L 16.046875 22.84375 L 11.136719 16.175781 L 12.394531 16.175781 Z M 15.128906 18.53125 L 14.503906 17.679688 L 15.609375 16.179688 L 16.863281 16.179688 Z M 18.066406 8.15625 C 17.3125 8.15625 16.675781 7.660156 16.496094 6.984375 L 19.636719 6.984375 C 19.453125 7.65625 18.816406 8.15625 18.066406 8.15625 Z M 14.964844 0.890625 C 14.976562 0.890625 14.984375 0.894531 14.996094 0.894531 C 15.03125 0.90625 15.074219 0.914062 15.109375 0.921875 C 16.085938 1.164062 16.902344 1.75 17.558594 2.476562 C 18.113281 3.089844 18.546875 3.796875 18.90625 4.53125 C 19.164062 5.066406 19.382812 5.625 19.558594 6.191406 L 16.433594 6.191406 C 16.433594 6.183594 16.433594 6.179688 16.433594 6.175781 C 16.40625 5.234375 16.296875 4.300781 16.058594 3.386719 C 15.832031 2.511719 15.488281 1.648438 14.964844 0.898438 C 14.960938 0.894531 14.960938 0.890625 14.953125 0.886719 C 14.953125 0.886719 14.960938 0.886719 14.960938 0.886719 Z M 5.863281 8.15625 C 5.113281 8.15625 4.476562 7.660156 4.292969 6.984375 L 7.4375 6.984375 C 7.253906 7.65625 6.617188 8.15625 5.863281 8.15625 Z M 7.582031 6.183594 C 7.582031 6.191406 7.582031 6.191406 7.574219 6.195312 L 4.433594 6.195312 C 4.699219 5.628906 5.226562 4.679688 6.15625 3.734375 C 7 2.878906 8 2.199219 9.132812 1.710938 C 9.601562 1.503906 10.101562 1.335938 10.621094 1.199219 C 10.582031 1.230469 10.542969 1.261719 10.503906 1.296875 C 9.570312 2.074219 8.886719 3.09375 8.359375 4.164062 C 8.042969 4.816406 7.777344 5.488281 7.582031 6.183594 Z M 9.929688 8.15625 C 9.179688 8.15625 8.539062 7.660156 8.359375 6.984375 L 11.5 6.984375 C 11.320312 7.65625 10.679688 8.15625 9.929688 8.15625 Z M 11.71875 4.414062 C 11.71875 4.421875 11.71875 4.421875 11.71875 4.425781 C 11.644531 4.855469 11.609375 5.285156 11.578125 5.71875 C 11.566406 5.878906 11.5625 6.035156 11.558594 6.195312 L 8.429688 6.195312 C 8.824219 4.925781 10.140625 1.523438 13.03125 0.894531 C 12.5625 1.566406 11.992188 2.695312 11.714844 4.414062 Z M 12.386719 5.941406 C 12.414062 5.429688 12.464844 4.914062 12.554688 4.410156 C 12.722656 3.421875 13.03125 2.445312 13.566406 1.574219 C 13.695312 1.359375 13.839844 1.15625 14 0.964844 C 14 0.964844 14.003906 0.96875 14.003906 0.96875 C 14.171875 1.160156 14.3125 1.363281 14.445312 1.578125 C 14.984375 2.460938 15.292969 3.460938 15.457031 4.464844 C 15.550781 5.035156 15.609375 5.613281 15.617188 6.191406 L 12.382812 6.191406 C 12.382812 6.105469 12.386719 6.019531 12.394531 5.933594 Z M 14.507812 13.660156 L 13.488281 13.660156 L 13.488281 8.894531 C 13.492188 8.894531 13.496094 8.894531 13.503906 8.898438 C 13.835938 8.964844 14.175781 8.964844 14.507812 8.894531 Z M 14.675781 8.011719 C 14.25 8.199219 13.746094 8.199219 13.320312 8.011719 C 12.886719 7.816406 12.554688 7.441406 12.429688 6.984375 L 15.570312 6.984375 C 15.445312 7.441406 15.113281 7.816406 14.679688 8.011719 Z M 14.675781 8.011719 "/>
<path style=" stroke:none;fill-rule:nonzero;fill:rgb(92.941176%,41.176471%,36.078431%);fill-opacity:1;" d="M 27.3125 12.398438 L 26.480469 12.203125 C 26.003906 12.089844 25.507812 12.378906 25.386719 12.84375 L 24.097656 17.90625 L 20.109375 17.90625 C 19.667969 17.90625 19.304688 18.25 19.304688 18.679688 L 19.304688 19.699219 C 19.304688 20.109375 19.640625 20.449219 20.0625 20.46875 C 20.0625 20.46875 19.300781 23.128906 19.300781 23.140625 C 19.226562 23.390625 19.429688 23.640625 19.695312 23.640625 L 21.335938 23.640625 C 21.523438 23.640625 21.683594 23.519531 21.730469 23.351562 L 22.546875 20.476562 L 22.929688 20.476562 L 23.742188 23.351562 C 23.789062 23.519531 23.957031 23.640625 24.136719 23.640625 C 24.136719 23.640625 25.78125 23.640625 25.78125 23.640625 C 26.050781 23.640625 26.246094 23.390625 26.175781 23.140625 L 25.40625 20.445312 C 25.898438 20.34375 26.300781 19.984375 26.425781 19.496094 C 26.425781 19.496094 27.964844 13.460938 27.964844 13.457031 C 28.082031 12.996094 27.777344 12.515625 27.300781 12.398438 Z M 21.019531 22.84375 L 20.226562 22.84375 L 20.90625 20.46875 L 21.695312 20.46875 Z M 24.457031 22.84375 L 23.785156 20.46875 L 24.574219 20.46875 L 25.253906 22.84375 Z M 27.175781 13.265625 L 25.636719 19.304688 C 25.578125 19.523438 25.375 19.679688 25.136719 19.679688 L 20.125 19.679688 L 20.125 18.695312 L 24.417969 18.695312 C 24.605469 18.695312 24.769531 18.570312 24.816406 18.394531 L 26.183594 13.035156 C 26.195312 12.996094 26.242188 12.964844 26.285156 12.976562 C 26.285156 12.976562 27.113281 13.171875 27.113281 13.171875 C 27.160156 13.179688 27.1875 13.226562 27.175781 13.265625 Z M 27.175781 13.265625 "/>
<path style=" stroke:none;fill-rule:nonzero;fill:rgb(92.941176%,41.176471%,36.078431%);fill-opacity:1;" d="M 8.699219 23.140625 L 7.9375 20.46875 C 8.359375 20.445312 8.695312 20.109375 8.695312 19.699219 L 8.695312 18.679688 C 8.695312 18.253906 8.335938 17.90625 7.890625 17.90625 L 3.90625 17.90625 C 3.90625 17.90625 2.613281 12.84375 2.613281 12.84375 C 2.492188 12.386719 1.996094 12.09375 1.519531 12.203125 C 1.519531 12.203125 0.691406 12.398438 0.691406 12.398438 C 0.210938 12.515625 -0.0898438 12.996094 0.0273438 13.457031 L 1.566406 19.496094 C 1.691406 19.980469 2.089844 20.339844 2.582031 20.445312 C 2.582031 20.445312 1.816406 23.136719 1.816406 23.140625 C 1.742188 23.390625 1.945312 23.640625 2.207031 23.640625 L 3.851562 23.640625 C 4.039062 23.640625 4.199219 23.519531 4.246094 23.351562 L 5.0625 20.476562 L 5.445312 20.476562 L 6.257812 23.351562 C 6.304688 23.519531 6.472656 23.640625 6.652344 23.640625 C 6.652344 23.640625 8.296875 23.640625 8.296875 23.640625 C 8.554688 23.640625 8.761719 23.390625 8.691406 23.140625 Z M 3.535156 22.851562 L 2.742188 22.851562 L 3.421875 20.476562 L 4.210938 20.476562 Z M 6.972656 22.851562 L 6.300781 20.476562 L 7.089844 20.476562 L 7.765625 22.851562 Z M 7.875 19.679688 L 2.863281 19.679688 C 2.625 19.679688 2.421875 19.523438 2.363281 19.304688 L 0.824219 13.265625 C 0.820312 13.238281 0.824219 13.214844 0.835938 13.207031 C 0.84375 13.191406 0.859375 13.175781 0.886719 13.171875 L 1.714844 12.976562 C 1.761719 12.964844 1.804688 12.988281 1.816406 13.035156 L 3.183594 18.394531 C 3.230469 18.570312 3.390625 18.695312 3.582031 18.695312 L 7.875 18.695312 Z M 7.875 19.679688 "/>
</g>
</svg>
