<?xml version="1.0" encoding="UTF-8"?>
<svg xmlns="http://www.w3.org/2000/svg" xmlns:xlink="http://www.w3.org/1999/xlink" width="28px" height="28px" viewBox="0 0 28 41" version="1.1">
<g id="surface1">
<path style=" stroke:none;fill-rule:nonzero;fill:rgb(92.941176%,41.176471%,36.078431%);fill-opacity:1;" d="M 25.695312 37.097656 L 16.671875 37.097656 L 16.671875 35.433594 C 22.277344 34.402344 26.355469 29.574219 26.386719 23.925781 C 26.386719 17.882812 21.882812 8.960938 15.96875 7.183594 L 15.96875 4.539062 C 16.410156 4.042969 16.660156 3.40625 16.660156 2.738281 C 16.660156 1.214844 15.417969 -0.0078125 13.886719 -0.0078125 C 12.351562 -0.0078125 11.113281 1.222656 11.113281 2.738281 C 11.113281 3.398438 11.363281 4.042969 11.808594 4.539062 L 11.808594 7.183594 C 5.898438 8.960938 1.394531 17.882812 1.394531 23.925781 C 1.429688 29.574219 5.507812 34.402344 11.113281 35.433594 L 11.113281 37.097656 L 2.089844 37.097656 C 0.9375 37.097656 0.0078125 38.023438 0.0078125 39.15625 C 0.0078125 40.296875 0.945312 41.214844 2.089844 41.214844 L 25.695312 41.214844 C 26.847656 41.214844 27.777344 40.289062 27.777344 39.15625 C 27.777344 38.011719 26.839844 37.097656 25.695312 37.097656 Z M 13.886719 1.371094 C 14.65625 1.371094 15.273438 1.984375 15.273438 2.746094 C 15.273438 3.503906 14.65625 4.117188 13.886719 4.117188 C 13.117188 4.117188 12.5 3.503906 12.5 2.746094 C 12.5 1.984375 13.117188 1.371094 13.886719 1.371094 Z M 13.195312 5.398438 C 13.417969 5.464844 13.652344 5.5 13.886719 5.5 C 14.121094 5.5 14.355469 5.464844 14.582031 5.398438 L 14.582031 6.910156 C 14.355469 6.886719 14.121094 6.871094 13.886719 6.871094 C 13.652344 6.871094 13.417969 6.886719 13.195312 6.910156 Z M 2.773438 23.925781 C 2.773438 17.875 7.855469 8.242188 13.886719 8.242188 C 19.914062 8.242188 25 17.875 25 23.925781 C 25 29.769531 20.121094 34.351562 13.886719 34.351562 C 7.652344 34.351562 2.773438 29.769531 2.773438 23.925781 Z M 12.492188 35.648438 C 12.953125 35.699219 13.417969 35.722656 13.878906 35.722656 C 14.339844 35.722656 14.808594 35.699219 15.265625 35.648438 L 15.265625 37.097656 L 12.492188 37.097656 Z M 25.6875 39.839844 L 2.082031 39.839844 C 1.695312 39.839844 1.386719 39.535156 1.386719 39.15625 C 1.386719 38.773438 1.695312 38.46875 2.082031 38.46875 L 25.6875 38.46875 C 26.070312 38.46875 26.378906 38.773438 26.378906 39.15625 C 26.378906 39.535156 26.070312 39.839844 25.6875 39.839844 Z M 25.6875 39.839844 "/>
<path style=" stroke:none;fill-rule:nonzero;fill:rgb(92.941176%,41.176471%,36.078431%);fill-opacity:1;" d="M 23.605469 23.644531 C 23.605469 18.128906 19.429688 9.625 13.886719 9.625 C 8.339844 9.625 4.167969 18.128906 4.167969 23.644531 C 4.167969 28.40625 8.082031 31.605469 13.886719 31.605469 C 19.703125 31.605469 23.605469 28.40625 23.605469 23.644531 Z M 9.023438 29.199219 L 9.023438 28.167969 C 9.023438 27.40625 9.644531 26.792969 10.410156 26.792969 L 17.355469 26.792969 C 18.125 26.792969 18.742188 27.40625 18.742188 28.167969 L 18.742188 29.199219 C 17.304688 29.878906 15.734375 30.234375 14.136719 30.234375 C 14.054688 30.234375 13.964844 30.234375 13.878906 30.234375 C 13.796875 30.234375 13.703125 30.234375 13.621094 30.234375 C 12.023438 30.234375 10.453125 29.878906 9.015625 29.199219 Z M 18.742188 23.363281 L 18.742188 25.804688 C 18.324219 25.554688 17.839844 25.421875 17.355469 25.421875 L 10.410156 25.421875 C 9.917969 25.421875 9.441406 25.554688 9.023438 25.804688 L 9.023438 23.363281 C 9.023438 22.792969 8.839844 22.230469 8.5 21.769531 C 8.875 20.667969 9.917969 19.933594 11.097656 19.933594 C 11.097656 19.933594 11.105469 19.933594 11.105469 19.933594 L 16.660156 19.933594 C 16.660156 19.933594 16.671875 19.933594 16.671875 19.933594 C 17.839844 19.933594 18.894531 20.667969 19.269531 21.769531 C 18.925781 22.230469 18.742188 22.792969 18.742188 23.363281 Z M 20.65625 26.679688 L 20.65625 23.363281 C 20.65625 22.601562 21.273438 21.992188 22.042969 21.992188 L 22.601562 21.992188 C 22.511719 22.554688 22.378906 23.109375 22.210938 23.644531 C 22.210938 23.6875 22.210938 23.734375 22.210938 23.785156 C 22.210938 25.511719 21.449219 27.148438 20.128906 28.28125 L 20.65625 26.6875 Z M 13.878906 10.996094 C 16.671875 10.996094 18.742188 13.765625 19.730469 15.417969 C 20.679688 17.039062 21.390625 18.792969 21.816406 20.621094 L 21.515625 20.621094 C 21.125 20.621094 20.738281 20.703125 20.378906 20.867188 C 19.695312 19.460938 18.25 18.5625 16.671875 18.5625 C 16.671875 18.5625 16.660156 18.5625 16.652344 18.5625 L 11.097656 18.5625 C 11.097656 18.5625 11.089844 18.5625 11.082031 18.5625 C 9.5 18.5625 8.054688 19.453125 7.371094 20.867188 C 7.011719 20.710938 6.625 20.621094 6.234375 20.621094 L 5.933594 20.621094 C 6.367188 18.792969 7.078125 17.039062 8.03125 15.417969 C 9.015625 13.765625 11.089844 10.996094 13.878906 10.996094 Z M 5.546875 23.644531 C 5.558594 23.089844 5.597656 22.539062 5.683594 21.984375 L 6.242188 21.984375 C 7.011719 21.984375 7.628906 22.59375 7.628906 23.355469 L 7.628906 28.265625 C 6.308594 27.140625 5.546875 25.496094 5.546875 23.769531 C 5.546875 23.71875 5.546875 23.679688 5.546875 23.628906 Z M 5.546875 23.644531 "/>
</g>
</svg>
