<?xml version="1.0" encoding="UTF-8"?>
<svg xmlns="http://www.w3.org/2000/svg" xmlns:xlink="http://www.w3.org/1999/xlink" width="28px" height="28px" viewBox="0 0 28 28" version="1.1">
<g id="surface1">
<path style=" stroke:none;fill-rule:nonzero;fill:rgb(92.941176%,41.176471%,36.078431%);fill-opacity:1;" d="M 21.988281 25.335938 L 15.824219 25.335938 L 15.824219 24.199219 C 19.652344 23.496094 22.4375 20.195312 22.460938 16.339844 C 22.460938 12.210938 19.382812 6.121094 15.34375 4.90625 L 15.34375 3.101562 C 15.644531 2.761719 15.816406 2.328125 15.816406 1.871094 C 15.816406 0.828125 14.96875 -0.00390625 13.921875 -0.00390625 C 12.875 -0.00390625 12.027344 0.835938 12.027344 1.871094 C 12.027344 2.320312 12.199219 2.761719 12.503906 3.101562 L 12.503906 4.90625 C 8.46875 6.121094 5.390625 12.210938 5.390625 16.339844 C 5.414062 20.195312 8.199219 23.496094 12.027344 24.199219 L 12.027344 25.335938 L 5.867188 25.335938 C 5.078125 25.335938 4.445312 25.96875 4.445312 26.742188 C 4.445312 27.519531 5.085938 28.148438 5.867188 28.148438 L 21.988281 28.148438 C 22.773438 28.148438 23.410156 27.515625 23.410156 26.742188 C 23.410156 25.960938 22.769531 25.335938 21.988281 25.335938 Z M 13.921875 0.9375 C 14.449219 0.9375 14.871094 1.355469 14.871094 1.875 C 14.871094 2.394531 14.449219 2.8125 13.921875 2.8125 C 13.398438 2.8125 12.976562 2.394531 12.976562 1.875 C 12.976562 1.355469 13.398438 0.9375 13.921875 0.9375 Z M 13.449219 3.6875 C 13.601562 3.730469 13.761719 3.757812 13.921875 3.757812 C 14.082031 3.757812 14.242188 3.730469 14.398438 3.6875 L 14.398438 4.71875 C 14.242188 4.703125 14.082031 4.691406 13.921875 4.691406 C 13.761719 4.691406 13.601562 4.703125 13.449219 4.71875 Z M 6.332031 16.339844 C 6.332031 12.207031 9.804688 5.628906 13.921875 5.628906 C 18.039062 5.628906 21.511719 12.207031 21.511719 16.339844 C 21.511719 20.332031 18.179688 23.460938 13.921875 23.460938 C 9.664062 23.460938 6.332031 20.332031 6.332031 16.339844 Z M 12.96875 24.34375 C 13.285156 24.378906 13.601562 24.394531 13.917969 24.394531 C 14.230469 24.394531 14.550781 24.378906 14.863281 24.34375 L 14.863281 25.335938 L 12.96875 25.335938 Z M 21.980469 27.207031 L 5.859375 27.207031 C 5.597656 27.207031 5.386719 27 5.386719 26.742188 C 5.386719 26.480469 5.597656 26.269531 5.859375 26.269531 L 21.980469 26.269531 C 22.242188 26.269531 22.453125 26.480469 22.453125 26.742188 C 22.453125 27 22.242188 27.207031 21.980469 27.207031 Z M 21.980469 27.207031 "/>
<path style=" stroke:none;fill-rule:nonzero;fill:rgb(92.941176%,41.176471%,36.078431%);fill-opacity:1;" d="M 20.558594 16.148438 C 20.558594 12.378906 17.707031 6.574219 13.921875 6.574219 C 10.132812 6.574219 7.285156 12.378906 7.285156 16.148438 C 7.285156 19.398438 9.957031 21.585938 13.921875 21.585938 C 17.894531 21.585938 20.558594 19.398438 20.558594 16.148438 Z M 10.601562 19.941406 L 10.601562 19.238281 C 10.601562 18.714844 11.027344 18.296875 11.546875 18.296875 L 16.292969 18.296875 C 16.816406 18.296875 17.238281 18.714844 17.238281 19.238281 L 17.238281 19.941406 C 16.257812 20.40625 15.183594 20.648438 14.09375 20.648438 C 14.039062 20.648438 13.976562 20.648438 13.917969 20.648438 C 13.859375 20.648438 13.796875 20.648438 13.742188 20.648438 C 12.648438 20.648438 11.578125 20.40625 10.597656 19.941406 Z M 17.238281 15.957031 L 17.238281 17.621094 C 16.953125 17.453125 16.621094 17.359375 16.292969 17.359375 L 11.546875 17.359375 C 11.210938 17.359375 10.886719 17.453125 10.601562 17.621094 L 10.601562 15.957031 C 10.601562 15.566406 10.476562 15.183594 10.242188 14.867188 C 10.5 14.113281 11.210938 13.613281 12.019531 13.613281 C 12.019531 13.613281 12.023438 13.613281 12.023438 13.613281 L 15.816406 13.613281 C 15.816406 13.613281 15.824219 13.613281 15.824219 13.613281 C 16.621094 13.613281 17.34375 14.113281 17.597656 14.867188 C 17.363281 15.183594 17.238281 15.566406 17.238281 15.957031 Z M 18.546875 18.21875 L 18.546875 15.957031 C 18.546875 15.433594 18.96875 15.019531 19.492188 15.019531 L 19.875 15.019531 C 19.8125 15.402344 19.722656 15.78125 19.609375 16.148438 C 19.609375 16.175781 19.609375 16.207031 19.609375 16.242188 C 19.609375 17.421875 19.085938 18.539062 18.1875 19.3125 L 18.546875 18.226562 Z M 13.917969 7.507812 C 15.824219 7.507812 17.238281 9.402344 17.914062 10.53125 C 18.5625 11.636719 19.046875 12.835938 19.339844 14.082031 L 19.132812 14.082031 C 18.867188 14.082031 18.601562 14.140625 18.355469 14.25 C 17.890625 13.289062 16.902344 12.675781 15.824219 12.675781 C 15.824219 12.675781 15.816406 12.675781 15.8125 12.675781 L 12.019531 12.675781 C 12.019531 12.675781 12.011719 12.675781 12.007812 12.675781 C 10.925781 12.675781 9.941406 13.285156 9.472656 14.25 C 9.226562 14.144531 8.964844 14.082031 8.695312 14.082031 L 8.492188 14.082031 C 8.789062 12.835938 9.273438 11.636719 9.921875 10.53125 C 10.597656 9.402344 12.011719 7.507812 13.917969 7.507812 Z M 8.226562 16.148438 C 8.234375 15.769531 8.261719 15.390625 8.320312 15.015625 L 8.703125 15.015625 C 9.226562 15.015625 9.648438 15.429688 9.648438 15.949219 L 9.648438 19.304688 C 8.746094 18.535156 8.226562 17.410156 8.226562 16.234375 C 8.226562 16.199219 8.226562 16.171875 8.226562 16.136719 Z M 8.226562 16.148438 "/>
</g>
</svg>
