<?xml version="1.0" encoding="UTF-8"?>
<svg xmlns="http://www.w3.org/2000/svg" xmlns:xlink="http://www.w3.org/1999/xlink" width="28px" height="28px" viewBox="0 0 28 44" version="1.1">
<g id="surface1">
<path style=" stroke:none;fill-rule:evenodd;fill:rgb(92.941176%,41.176471%,36.078431%);fill-opacity:1;" d="M 23.207031 40.601562 L 4.214844 40.601562 L 4.214844 43.164062 C 4.214844 43.484375 3.949219 43.75 3.621094 43.75 L 0.59375 43.75 C 0.269531 43.75 0 43.484375 0 43.164062 L 0 0.585938 C 0 0.261719 0.269531 0 0.59375 0 L 3.621094 0 C 3.949219 0 4.214844 0.261719 4.214844 0.585938 L 4.214844 3.148438 L 23.207031 3.148438 L 23.207031 0.585938 C 23.207031 0.261719 23.472656 0 23.800781 0 L 26.828125 0 C 27.152344 0 27.421875 0.261719 27.421875 0.585938 L 27.421875 43.164062 C 27.421875 43.484375 27.152344 43.75 26.828125 43.75 L 23.800781 43.75 C 23.472656 43.75 23.207031 43.484375 23.207031 43.164062 Z M 3.03125 40.015625 L 3.03125 1.160156 L 1.195312 1.160156 L 1.195312 42.578125 L 3.03125 42.578125 Z M 4.214844 36.449219 L 23.207031 36.449219 L 23.207031 32.269531 L 4.214844 32.269531 Z M 4.214844 28.125 L 23.207031 28.125 L 23.207031 23.945312 L 4.214844 23.945312 Z M 4.214844 19.804688 L 23.207031 19.804688 L 23.207031 15.621094 L 4.214844 15.621094 Z M 4.214844 11.480469 L 23.207031 11.480469 L 23.207031 7.300781 L 4.214844 7.300781 Z M 24.390625 37.042969 L 24.390625 42.578125 L 26.226562 42.578125 L 26.226562 1.160156 L 24.390625 1.160156 Z M 4.214844 6.140625 L 23.207031 6.140625 L 23.207031 4.328125 L 4.214844 4.328125 Z M 4.214844 14.460938 L 23.207031 14.460938 L 23.207031 12.640625 L 4.214844 12.640625 Z M 4.214844 22.785156 L 23.207031 22.785156 L 23.207031 20.964844 L 4.214844 20.964844 Z M 4.214844 31.097656 L 23.207031 31.097656 L 23.207031 29.285156 L 4.214844 29.285156 Z M 4.214844 39.421875 L 23.207031 39.421875 L 23.207031 37.609375 L 4.214844 37.609375 Z M 4.214844 39.421875 "/>
</g>
</svg>
