<?xml version="1.0" encoding="UTF-8"?>
<svg xmlns="http://www.w3.org/2000/svg" xmlns:xlink="http://www.w3.org/1999/xlink" width="28px" height="28px" viewBox="0 0 28 28" version="1.1">
<g id="surface1">
<path style=" stroke:none;fill-rule:evenodd;fill:rgb(92.941176%,41.176471%,36.078431%);fill-opacity:1;" d="M 19.859375 25.835938 L 7.773438 25.835938 L 7.773438 27.46875 C 7.773438 27.671875 7.605469 27.839844 7.394531 27.839844 L 5.46875 27.839844 C 5.261719 27.839844 5.089844 27.671875 5.089844 27.46875 L 5.089844 0.371094 C 5.089844 0.167969 5.261719 0 5.46875 0 L 7.394531 0 C 7.605469 0 7.773438 0.167969 7.773438 0.371094 L 7.773438 2.003906 L 19.859375 2.003906 L 19.859375 0.371094 C 19.859375 0.167969 20.027344 0 20.238281 0 L 22.164062 0 C 22.371094 0 22.542969 0.167969 22.542969 0.371094 L 22.542969 27.46875 C 22.542969 27.671875 22.371094 27.839844 22.164062 27.839844 L 20.238281 27.839844 C 20.027344 27.839844 19.859375 27.671875 19.859375 27.46875 Z M 7.019531 25.464844 L 7.019531 0.738281 L 5.851562 0.738281 L 5.851562 27.09375 L 7.019531 27.09375 Z M 7.773438 23.195312 L 19.859375 23.195312 L 19.859375 20.535156 L 7.773438 20.535156 Z M 7.773438 17.898438 L 19.859375 17.898438 L 19.859375 15.238281 L 7.773438 15.238281 Z M 7.773438 12.601562 L 19.859375 12.601562 L 19.859375 9.941406 L 7.773438 9.941406 Z M 7.773438 7.304688 L 19.859375 7.304688 L 19.859375 4.644531 L 7.773438 4.644531 Z M 20.613281 23.574219 L 20.613281 27.09375 L 21.78125 27.09375 L 21.78125 0.738281 L 20.613281 0.738281 Z M 7.773438 3.90625 L 19.859375 3.90625 L 19.859375 2.753906 L 7.773438 2.753906 Z M 7.773438 9.203125 L 19.859375 9.203125 L 19.859375 8.042969 L 7.773438 8.042969 Z M 7.773438 14.5 L 19.859375 14.5 L 19.859375 13.339844 L 7.773438 13.339844 Z M 7.773438 19.789062 L 19.859375 19.789062 L 19.859375 18.636719 L 7.773438 18.636719 Z M 7.773438 25.085938 L 19.859375 25.085938 L 19.859375 23.933594 L 7.773438 23.933594 Z M 7.773438 25.085938 "/>
</g>
</svg>
