<?xml version="1.0" encoding="UTF-8"?>
<svg xmlns="http://www.w3.org/2000/svg" xmlns:xlink="http://www.w3.org/1999/xlink" width="28px" height="28px" viewBox="0 0 28 20" version="1.1">
<g id="surface1">
<path style=" stroke:none;fill-rule:nonzero;fill:rgb(92.941176%,41.176471%,36.078431%);fill-opacity:1;" d="M 6.535156 14.308594 C 4.988281 14.308594 3.738281 15.550781 3.738281 17.074219 C 3.738281 18.605469 4.992188 19.84375 6.535156 19.84375 C 8.082031 19.84375 9.332031 18.597656 9.332031 17.074219 C 9.332031 15.546875 8.078125 14.308594 6.535156 14.308594 Z M 6.535156 18.921875 C 5.507812 18.921875 4.667969 18.09375 4.667969 17.074219 C 4.667969 16.058594 5.507812 15.226562 6.535156 15.226562 C 7.566406 15.226562 8.402344 16.058594 8.402344 17.074219 C 8.402344 18.09375 7.566406 18.921875 6.535156 18.921875 Z M 6.535156 18.921875 "/>
<path style=" stroke:none;fill-rule:nonzero;fill:rgb(92.941176%,41.176471%,36.078431%);fill-opacity:1;" d="M 22.398438 14.308594 C 20.851562 14.308594 19.601562 15.550781 19.601562 17.074219 C 19.601562 18.605469 20.855469 19.84375 22.398438 19.84375 C 23.945312 19.84375 25.195312 18.597656 25.195312 17.074219 C 25.195312 15.546875 23.941406 14.308594 22.398438 14.308594 Z M 22.398438 18.921875 C 21.371094 18.921875 20.53125 18.09375 20.53125 17.074219 C 20.53125 16.058594 21.371094 15.226562 22.398438 15.226562 C 23.429688 15.226562 24.265625 16.058594 24.265625 17.074219 C 24.265625 18.09375 23.433594 18.921875 22.398438 18.921875 Z M 22.398438 18.921875 "/>
<path style=" stroke:none;fill-rule:nonzero;fill:rgb(92.941176%,41.176471%,36.078431%);fill-opacity:1;" d="M 27.925781 11.75 L 23.726562 5.285156 C 23.640625 5.15625 23.488281 5.074219 23.332031 5.074219 L 18.199219 5.074219 C 17.941406 5.074219 17.730469 5.28125 17.730469 5.535156 L 17.730469 17.074219 C 17.730469 17.328125 17.9375 17.535156 18.199219 17.535156 L 20.066406 17.535156 L 20.066406 16.613281 L 18.667969 16.613281 L 18.667969 5.996094 L 23.078125 5.996094 L 27.066406 12.132812 L 27.066406 16.613281 L 24.730469 16.613281 L 24.730469 17.535156 L 27.527344 17.535156 C 27.785156 17.535156 27.996094 17.332031 27.996094 17.074219 L 27.996094 11.996094 C 27.996094 11.90625 27.96875 11.820312 27.921875 11.75 Z M 27.925781 11.75 "/>
<path style=" stroke:none;fill-rule:nonzero;fill:rgb(92.941176%,41.176471%,36.078431%);fill-opacity:1;" d="M 20.535156 11.078125 L 20.535156 7.847656 L 24.265625 7.847656 L 24.265625 6.925781 L 20.066406 6.925781 C 19.8125 6.925781 19.601562 7.132812 19.601562 7.386719 L 19.601562 11.539062 C 19.601562 11.792969 19.808594 12 20.066406 12 L 27.070312 12 L 27.070312 11.078125 Z M 20.535156 11.078125 "/>
<path style=" stroke:none;fill-rule:nonzero;fill:rgb(92.941176%,41.176471%,36.078431%);fill-opacity:1;" d="M 18.199219 1.847656 L 0.46875 1.847656 C 0.210938 1.847656 0 2.054688 0 2.308594 L 0 17.078125 C 0 17.332031 0.210938 17.539062 0.46875 17.539062 L 4.199219 17.539062 L 4.199219 16.617188 L 0.933594 16.617188 L 0.933594 2.773438 L 17.738281 2.773438 L 17.738281 16.617188 L 8.871094 16.617188 L 8.871094 17.539062 L 18.203125 17.539062 C 18.460938 17.539062 18.671875 17.335938 18.671875 17.078125 L 18.671875 2.308594 C 18.671875 2.054688 18.464844 1.847656 18.203125 1.847656 Z M 18.199219 1.847656 "/>
<path style=" stroke:none;fill-rule:nonzero;fill:rgb(92.941176%,41.176471%,36.078431%);fill-opacity:1;" d="M 0.46875 14.769531 L 3.265625 14.769531 L 3.265625 15.691406 L 0.46875 15.691406 Z M 0.46875 14.769531 "/>
<path style=" stroke:none;fill-rule:nonzero;fill:rgb(92.941176%,41.176471%,36.078431%);fill-opacity:1;" d="M 9.800781 14.769531 L 17.730469 14.769531 L 17.730469 15.691406 L 9.800781 15.691406 Z M 9.800781 14.769531 "/>
<path style=" stroke:none;fill-rule:nonzero;fill:rgb(92.941176%,41.176471%,36.078431%);fill-opacity:1;" d="M 25.667969 14.769531 L 27.535156 14.769531 L 27.535156 15.691406 L 25.667969 15.691406 Z M 25.667969 14.769531 "/>
<path style=" stroke:none;fill-rule:nonzero;fill:rgb(92.941176%,41.176471%,36.078431%);fill-opacity:1;" d="M 1.867188 3.691406 L 18.203125 3.691406 L 18.203125 4.613281 L 1.867188 4.613281 Z M 1.867188 3.691406 "/>
<path style=" stroke:none;fill-rule:nonzero;fill:rgb(92.941176%,41.176471%,36.078431%);fill-opacity:1;" d="M 6.066406 16.617188 L 7.003906 16.617188 L 7.003906 17.539062 L 6.066406 17.539062 Z M 6.066406 16.617188 "/>
<path style=" stroke:none;fill-rule:nonzero;fill:rgb(92.941176%,41.176471%,36.078431%);fill-opacity:1;" d="M 21.9375 16.617188 L 22.871094 16.617188 L 22.871094 17.539062 L 21.9375 17.539062 Z M 21.9375 16.617188 "/>
<path style=" stroke:none;fill-rule:nonzero;fill:rgb(92.941176%,41.176471%,36.078431%);fill-opacity:1;" d="M 1.867188 0 L 8.402344 0 L 8.402344 0.925781 L 1.867188 0.925781 Z M 1.867188 0 "/>
<path style=" stroke:none;fill-rule:nonzero;fill:rgb(92.941176%,41.176471%,36.078431%);fill-opacity:1;" d="M 0 0 L 0.933594 0 L 0.933594 0.925781 L 0 0.925781 Z M 0 0 "/>
</g>
</svg>
