<?xml version="1.0" encoding="UTF-8"?>
<svg xmlns="http://www.w3.org/2000/svg" xmlns:xlink="http://www.w3.org/1999/xlink" width="28px" height="28px" viewBox="0 0 28 28" version="1.1">
<g id="surface1">
<path style=" stroke:none;fill-rule:nonzero;fill:rgb(92.941176%,41.176471%,36.078431%);fill-opacity:1;" d="M 6.535156 18.308594 C 4.988281 18.308594 3.738281 19.550781 3.738281 21.074219 C 3.738281 22.605469 4.992188 23.84375 6.535156 23.84375 C 8.082031 23.84375 9.332031 22.597656 9.332031 21.074219 C 9.332031 19.546875 8.078125 18.308594 6.535156 18.308594 Z M 6.535156 22.921875 C 5.507812 22.921875 4.667969 22.09375 4.667969 21.074219 C 4.667969 20.058594 5.507812 19.226562 6.535156 19.226562 C 7.566406 19.226562 8.402344 20.058594 8.402344 21.074219 C 8.402344 22.09375 7.566406 22.921875 6.535156 22.921875 Z M 6.535156 22.921875 "/>
<path style=" stroke:none;fill-rule:nonzero;fill:rgb(92.941176%,41.176471%,36.078431%);fill-opacity:1;" d="M 22.398438 18.308594 C 20.851562 18.308594 19.601562 19.550781 19.601562 21.074219 C 19.601562 22.605469 20.855469 23.84375 22.398438 23.84375 C 23.945312 23.84375 25.195312 22.597656 25.195312 21.074219 C 25.195312 19.546875 23.941406 18.308594 22.398438 18.308594 Z M 22.398438 22.921875 C 21.371094 22.921875 20.53125 22.09375 20.53125 21.074219 C 20.53125 20.058594 21.371094 19.226562 22.398438 19.226562 C 23.429688 19.226562 24.265625 20.058594 24.265625 21.074219 C 24.265625 22.09375 23.433594 22.921875 22.398438 22.921875 Z M 22.398438 22.921875 "/>
<path style=" stroke:none;fill-rule:nonzero;fill:rgb(92.941176%,41.176471%,36.078431%);fill-opacity:1;" d="M 27.925781 15.75 L 23.726562 9.285156 C 23.640625 9.15625 23.488281 9.074219 23.332031 9.074219 L 18.199219 9.074219 C 17.941406 9.074219 17.730469 9.28125 17.730469 9.535156 L 17.730469 21.074219 C 17.730469 21.328125 17.9375 21.535156 18.199219 21.535156 L 20.066406 21.535156 L 20.066406 20.613281 L 18.667969 20.613281 L 18.667969 9.996094 L 23.078125 9.996094 L 27.066406 16.132812 L 27.066406 20.613281 L 24.730469 20.613281 L 24.730469 21.535156 L 27.527344 21.535156 C 27.785156 21.535156 27.996094 21.332031 27.996094 21.074219 L 27.996094 15.996094 C 27.996094 15.90625 27.96875 15.820312 27.921875 15.75 Z M 27.925781 15.75 "/>
<path style=" stroke:none;fill-rule:nonzero;fill:rgb(92.941176%,41.176471%,36.078431%);fill-opacity:1;" d="M 20.535156 15.078125 L 20.535156 11.847656 L 24.265625 11.847656 L 24.265625 10.925781 L 20.066406 10.925781 C 19.8125 10.925781 19.601562 11.132812 19.601562 11.386719 L 19.601562 15.539062 C 19.601562 15.792969 19.808594 16 20.066406 16 L 27.070312 16 L 27.070312 15.078125 Z M 20.535156 15.078125 "/>
<path style=" stroke:none;fill-rule:nonzero;fill:rgb(92.941176%,41.176471%,36.078431%);fill-opacity:1;" d="M 18.199219 5.847656 L 0.46875 5.847656 C 0.210938 5.847656 0 6.054688 0 6.308594 L 0 21.078125 C 0 21.332031 0.210938 21.539062 0.46875 21.539062 L 4.199219 21.539062 L 4.199219 20.617188 L 0.933594 20.617188 L 0.933594 6.773438 L 17.738281 6.773438 L 17.738281 20.617188 L 8.871094 20.617188 L 8.871094 21.539062 L 18.203125 21.539062 C 18.460938 21.539062 18.671875 21.335938 18.671875 21.078125 L 18.671875 6.308594 C 18.671875 6.054688 18.464844 5.847656 18.203125 5.847656 Z M 18.199219 5.847656 "/>
<path style=" stroke:none;fill-rule:nonzero;fill:rgb(92.941176%,41.176471%,36.078431%);fill-opacity:1;" d="M 0.46875 18.769531 L 3.265625 18.769531 L 3.265625 19.691406 L 0.46875 19.691406 Z M 0.46875 18.769531 "/>
<path style=" stroke:none;fill-rule:nonzero;fill:rgb(92.941176%,41.176471%,36.078431%);fill-opacity:1;" d="M 9.800781 18.769531 L 17.730469 18.769531 L 17.730469 19.691406 L 9.800781 19.691406 Z M 9.800781 18.769531 "/>
<path style=" stroke:none;fill-rule:nonzero;fill:rgb(92.941176%,41.176471%,36.078431%);fill-opacity:1;" d="M 25.667969 18.769531 L 27.535156 18.769531 L 27.535156 19.691406 L 25.667969 19.691406 Z M 25.667969 18.769531 "/>
<path style=" stroke:none;fill-rule:nonzero;fill:rgb(92.941176%,41.176471%,36.078431%);fill-opacity:1;" d="M 1.867188 7.691406 L 18.203125 7.691406 L 18.203125 8.613281 L 1.867188 8.613281 Z M 1.867188 7.691406 "/>
<path style=" stroke:none;fill-rule:nonzero;fill:rgb(92.941176%,41.176471%,36.078431%);fill-opacity:1;" d="M 6.066406 20.617188 L 7.003906 20.617188 L 7.003906 21.539062 L 6.066406 21.539062 Z M 6.066406 20.617188 "/>
<path style=" stroke:none;fill-rule:nonzero;fill:rgb(92.941176%,41.176471%,36.078431%);fill-opacity:1;" d="M 21.9375 20.617188 L 22.871094 20.617188 L 22.871094 21.539062 L 21.9375 21.539062 Z M 21.9375 20.617188 "/>
<path style=" stroke:none;fill-rule:nonzero;fill:rgb(92.941176%,41.176471%,36.078431%);fill-opacity:1;" d="M 1.867188 4 L 8.402344 4 L 8.402344 4.925781 L 1.867188 4.925781 Z M 1.867188 4 "/>
<path style=" stroke:none;fill-rule:nonzero;fill:rgb(92.941176%,41.176471%,36.078431%);fill-opacity:1;" d="M 0 4 L 0.933594 4 L 0.933594 4.925781 L 0 4.925781 Z M 0 4 "/>
</g>
</svg>
