<?xml version="1.0" encoding="UTF-8"?>
<svg xmlns="http://www.w3.org/2000/svg" xmlns:xlink="http://www.w3.org/1999/xlink" width="28px" height="28px" viewBox="0 0 28 29" version="1.1">
<g id="surface1">
<path style=" stroke:none;fill-rule:nonzero;fill:rgb(92.941176%,41.176471%,36.078431%);fill-opacity:1;" d="M 27.753906 6.4375 L 14.191406 0.0429688 C 14.066406 -0.0117188 13.929688 -0.0117188 13.808594 0.0429688 L 0.246094 6.4375 C 0.0976562 6.507812 0 6.65625 0 6.820312 L 0 22.347656 C 0 22.511719 0.0976562 22.664062 0.246094 22.734375 L 13.808594 29.125 C 13.871094 29.15625 13.933594 29.167969 14 29.167969 C 14.0625 29.167969 14.128906 29.15625 14.191406 29.125 L 27.753906 22.734375 C 27.902344 22.664062 28 22.511719 28 22.347656 L 28 6.820312 C 28 6.65625 27.902344 6.507812 27.753906 6.4375 Z M 14 0.902344 L 26.558594 6.820312 L 22.917969 8.539062 C 22.894531 8.519531 22.871094 8.503906 22.839844 8.492188 L 10.371094 2.613281 Z M 9.382812 3.097656 L 21.917969 9.007812 L 19.351562 10.21875 L 6.820312 4.3125 Z M 22.210938 9.820312 L 22.210938 14.292969 L 19.8125 15.425781 L 19.8125 10.953125 Z M 27.121094 22.082031 L 14.4375 28.0625 L 14.4375 13.488281 L 17.460938 12.0625 C 17.679688 11.960938 17.769531 11.703125 17.664062 11.492188 C 17.5625 11.277344 17.300781 11.191406 17.082031 11.292969 L 14 12.746094 L 12.785156 12.171875 C 12.566406 12.070312 12.308594 12.160156 12.203125 12.371094 C 12.097656 12.585938 12.1875 12.839844 12.40625 12.941406 L 13.5625 13.488281 L 13.5625 28.0625 L 0.878906 22.082031 L 0.878906 7.507812 L 10.539062 12.0625 C 10.597656 12.089844 10.664062 12.101562 10.726562 12.101562 C 10.890625 12.101562 11.046875 12.015625 11.121094 11.863281 C 11.226562 11.648438 11.136719 11.394531 10.917969 11.292969 L 1.445312 6.824219 L 5.792969 4.777344 L 18.9375 10.972656 C 18.941406 10.976562 18.941406 10.976562 18.945312 10.980469 L 18.945312 16.109375 C 18.945312 16.253906 19.023438 16.390625 19.148438 16.46875 C 19.21875 16.511719 19.296875 16.535156 19.378906 16.535156 C 19.445312 16.535156 19.507812 16.519531 19.570312 16.492188 L 22.84375 14.953125 C 22.996094 14.882812 23.09375 14.730469 23.09375 14.566406 L 23.09375 9.410156 L 27.125 7.507812 L 27.125 22.085938 Z M 27.121094 22.082031 "/>
<path style=" stroke:none;fill-rule:nonzero;fill:rgb(92.941176%,41.176471%,36.078431%);fill-opacity:1;" d="M 15.183594 14.667969 L 13.195312 13.730469 C 12.976562 13.628906 12.714844 13.71875 12.609375 13.929688 C 12.507812 14.144531 12.597656 14.398438 12.816406 14.5 L 14.804688 15.4375 C 14.867188 15.464844 14.929688 15.480469 14.996094 15.480469 C 15.15625 15.480469 15.3125 15.390625 15.390625 15.238281 C 15.492188 15.023438 15.402344 14.769531 15.183594 14.667969 Z M 15.183594 14.667969 "/>
<path style=" stroke:none;fill-rule:nonzero;fill:rgb(92.941176%,41.176471%,36.078431%);fill-opacity:1;" d="M 16.097656 15.101562 L 12.277344 13.300781 C 12.058594 13.199219 11.796875 13.289062 11.695312 13.5 C 11.589844 13.714844 11.679688 13.96875 11.898438 14.070312 L 15.71875 15.871094 C 15.777344 15.898438 15.84375 15.914062 15.90625 15.914062 C 16.070312 15.914062 16.226562 15.824219 16.300781 15.671875 C 16.40625 15.457031 16.316406 15.203125 16.097656 15.101562 Z M 16.097656 15.101562 "/>
</g>
</svg>
