<?xml version="1.0" encoding="UTF-8"?>
<svg xmlns="http://www.w3.org/2000/svg" xmlns:xlink="http://www.w3.org/1999/xlink" width="28px" height="28px" viewBox="0 0 28 28" version="1.1">
<g id="surface1">
<path style=" stroke:none;fill-rule:nonzero;fill:rgb(92.941176%,41.176471%,36.078431%);fill-opacity:1;" d="M 27.28125 6.214844 L 14.183594 0.0429688 C 14.0625 -0.0117188 13.933594 -0.0117188 13.816406 0.0429688 L 0.71875 6.214844 C 0.578125 6.285156 0.484375 6.425781 0.484375 6.585938 L 0.484375 21.578125 C 0.484375 21.734375 0.578125 21.882812 0.71875 21.949219 L 13.816406 28.121094 C 13.875 28.152344 13.9375 28.164062 14 28.164062 C 14.058594 28.164062 14.125 28.152344 14.183594 28.121094 L 27.28125 21.949219 C 27.421875 21.882812 27.515625 21.734375 27.515625 21.578125 L 27.515625 6.585938 C 27.515625 6.425781 27.421875 6.285156 27.28125 6.214844 Z M 14 0.871094 L 26.125 6.585938 L 22.609375 8.246094 C 22.585938 8.226562 22.566406 8.210938 22.535156 8.199219 L 10.496094 2.523438 Z M 9.542969 2.992188 L 21.644531 8.695312 L 19.167969 9.867188 L 7.066406 4.164062 Z M 21.929688 9.480469 L 21.929688 13.800781 L 19.613281 14.894531 L 19.613281 10.574219 Z M 26.667969 21.320312 L 14.421875 27.09375 L 14.421875 13.023438 L 17.339844 11.648438 C 17.554688 11.546875 17.640625 11.300781 17.539062 11.097656 C 17.441406 10.886719 17.1875 10.804688 16.976562 10.902344 L 14 12.304688 L 12.828125 11.753906 C 12.617188 11.652344 12.367188 11.742188 12.265625 11.945312 C 12.164062 12.152344 12.25 12.398438 12.460938 12.496094 L 13.578125 13.023438 L 13.578125 27.09375 L 1.332031 21.320312 L 1.332031 7.25 L 10.660156 11.648438 C 10.714844 11.671875 10.777344 11.683594 10.839844 11.683594 C 10.996094 11.683594 11.148438 11.601562 11.21875 11.453125 C 11.320312 11.246094 11.234375 11 11.023438 10.902344 L 1.878906 6.589844 L 6.074219 4.613281 L 18.765625 10.59375 C 18.769531 10.597656 18.769531 10.597656 18.773438 10.601562 L 18.773438 15.554688 C 18.773438 15.695312 18.851562 15.824219 18.972656 15.902344 C 19.039062 15.941406 19.113281 15.964844 19.195312 15.964844 C 19.257812 15.964844 19.316406 15.949219 19.378906 15.921875 L 22.539062 14.4375 C 22.6875 14.371094 22.78125 14.222656 22.78125 14.0625 L 22.78125 9.085938 L 26.671875 7.25 L 26.671875 21.324219 Z M 26.667969 21.320312 "/>
<path style=" stroke:none;fill-rule:nonzero;fill:rgb(92.941176%,41.176471%,36.078431%);fill-opacity:1;" d="M 15.144531 14.164062 L 13.222656 13.257812 C 13.011719 13.160156 12.757812 13.246094 12.65625 13.449219 C 12.558594 13.65625 12.644531 13.902344 12.855469 14 L 14.777344 14.90625 C 14.835938 14.929688 14.898438 14.945312 14.960938 14.945312 C 15.117188 14.945312 15.265625 14.859375 15.34375 14.710938 C 15.441406 14.503906 15.355469 14.261719 15.144531 14.164062 Z M 15.144531 14.164062 "/>
<path style=" stroke:none;fill-rule:nonzero;fill:rgb(92.941176%,41.176471%,36.078431%);fill-opacity:1;" d="M 16.023438 14.582031 L 12.335938 12.84375 C 12.125 12.742188 11.871094 12.832031 11.773438 13.035156 C 11.671875 13.242188 11.757812 13.488281 11.972656 13.585938 L 15.660156 15.324219 C 15.714844 15.351562 15.78125 15.367188 15.839844 15.367188 C 16 15.367188 16.148438 15.277344 16.222656 15.132812 C 16.324219 14.925781 16.238281 14.679688 16.023438 14.582031 Z M 16.023438 14.582031 "/>
</g>
</svg>
