<?xml version="1.0" encoding="UTF-8"?>
<svg xmlns="http://www.w3.org/2000/svg" xmlns:xlink="http://www.w3.org/1999/xlink" width="28px" height="28px" viewBox="0 0 28 28" version="1.1">
<g id="surface1">
<path style=" stroke:none;fill-rule:nonzero;fill:rgb(92.941176%,41.176471%,36.078431%);fill-opacity:1;" d="M 1.003906 9.136719 L 2.761719 10.15625 L 2.761719 26.144531 C 2.761719 27.078125 3.546875 27.839844 4.507812 27.839844 C 5.472656 27.839844 6.253906 27.078125 6.253906 26.144531 L 6.253906 10.15625 L 8.019531 9.136719 C 8.636719 8.78125 9.015625 8.125 9.015625 7.425781 L 9.015625 0.460938 C 9.015625 0.207031 8.804688 0 8.539062 0 L 0.476562 0 C 0.210938 0 0 0.207031 0 0.460938 L 0 7.425781 C 0 8.121094 0.382812 8.773438 1.003906 9.136719 Z M 0.953125 0.925781 L 2.019531 0.925781 L 2.019531 6.601562 C 2.019531 6.859375 2.234375 7.066406 2.496094 7.066406 C 2.761719 7.066406 2.972656 6.859375 2.972656 6.601562 L 2.972656 0.925781 L 4.035156 0.925781 L 4.035156 6.601562 C 4.035156 6.859375 4.246094 7.066406 4.507812 7.066406 C 4.773438 7.066406 4.984375 6.859375 4.984375 6.601562 L 4.984375 0.925781 L 6.046875 0.925781 L 6.046875 6.601562 C 6.046875 6.859375 6.261719 7.066406 6.519531 7.066406 C 6.785156 7.066406 7 6.859375 7 6.601562 L 7 0.925781 L 8.0625 0.925781 L 8.0625 7.429688 C 8.0625 7.808594 7.863281 8.152344 7.53125 8.34375 L 5.535156 9.492188 C 5.390625 9.578125 5.300781 9.730469 5.300781 9.890625 L 5.300781 26.140625 C 5.300781 26.566406 4.945312 26.914062 4.507812 26.914062 C 4.066406 26.914062 3.710938 26.566406 3.710938 26.140625 L 3.710938 9.890625 C 3.710938 9.726562 3.625 9.574219 3.480469 9.492188 L 1.488281 8.34375 C 1.15625 8.148438 0.949219 7.796875 0.949219 7.425781 L 0.949219 0.921875 Z M 0.953125 0.925781 "/>
<path style=" stroke:none;fill-rule:nonzero;fill:rgb(92.941176%,41.176471%,36.078431%);fill-opacity:1;" d="M 21.964844 11.519531 L 21.964844 19.84375 C 21.964844 19.851562 21.960938 19.859375 21.960938 19.867188 L 21.960938 21.554688 C 21.960938 21.5625 21.964844 21.570312 21.964844 21.578125 L 21.964844 26.144531 C 21.964844 27.078125 22.75 27.839844 23.710938 27.839844 C 24.675781 27.839844 25.457031 27.078125 25.457031 26.144531 L 25.457031 11.519531 C 27.234375 10.617188 28.410156 8.433594 28.410156 5.964844 C 28.410156 2.675781 26.304688 0 23.710938 0 C 21.117188 0 19.007812 2.675781 19.007812 5.964844 C 19.007812 8.433594 20.183594 10.621094 21.964844 11.519531 Z M 23.710938 0.925781 C 25.777344 0.925781 27.457031 3.1875 27.457031 5.964844 C 27.457031 8.167969 26.363281 10.15625 24.796875 10.804688 C 24.621094 10.875 24.507812 11.042969 24.507812 11.230469 L 24.507812 26.144531 C 24.507812 26.570312 24.148438 26.914062 23.710938 26.914062 C 23.273438 26.914062 22.917969 26.570312 22.917969 26.144531 L 22.917969 11.230469 C 22.917969 11.042969 22.804688 10.875 22.628906 10.804688 C 21.058594 10.15625 19.960938 8.167969 19.960938 5.964844 C 19.960938 3.1875 21.644531 0.925781 23.710938 0.925781 Z M 23.710938 0.925781 "/>
<path style=" stroke:none;fill-rule:nonzero;fill:rgb(92.941176%,41.176471%,36.078431%);fill-opacity:1;" d="M 16.511719 27.839844 C 16.773438 27.839844 16.984375 27.632812 16.984375 27.375 L 16.984375 1.695312 C 16.984375 0.757812 16.203125 -0.00390625 15.238281 -0.00390625 C 14.277344 -0.00390625 13.492188 0.757812 13.492188 1.695312 L 13.492188 11.929688 L 11.625 11.929688 C 11.363281 11.929688 11.148438 12.136719 11.148438 12.394531 L 11.148438 20.175781 C 11.148438 22.023438 11.640625 23.890625 12.5 25.304688 C 13.496094 26.9375 14.917969 27.839844 16.507812 27.839844 Z M 12.101562 12.855469 L 13.964844 12.855469 C 14.230469 12.855469 14.445312 12.648438 14.445312 12.394531 L 14.445312 1.699219 C 14.445312 1.273438 14.800781 0.925781 15.238281 0.925781 C 15.675781 0.925781 16.035156 1.273438 16.035156 1.699219 L 16.035156 26.882812 C 14.714844 26.6875 13.835938 25.6875 13.320312 24.839844 C 12.542969 23.566406 12.097656 21.867188 12.097656 20.179688 L 12.097656 12.859375 Z M 12.101562 12.855469 "/>
</g>
</svg>
