<?xml version="1.0" encoding="UTF-8"?>
<svg xmlns="http://www.w3.org/2000/svg" xmlns:xlink="http://www.w3.org/1999/xlink" width="28px" height="28px" viewBox="0 0 28 28" version="1.1">
<g id="surface1">
<path style=" stroke:none;fill-rule:nonzero;fill:rgb(92.941176%,41.176471%,36.078431%);fill-opacity:1;" d="M 27.84375 17.0625 C 27.84375 16.316406 27.238281 15.714844 26.496094 15.714844 L 24.703125 15.714844 C 23.960938 15.714844 23.355469 16.316406 23.355469 17.0625 C 23.355469 17.644531 23.730469 18.140625 24.253906 18.324219 L 24.253906 18.40625 C 24.253906 18.65625 24.050781 18.855469 23.804688 18.855469 L 22.90625 18.855469 L 22.90625 16.097656 C 23.679688 15.898438 24.253906 15.199219 24.253906 14.367188 C 24.253906 13.46875 23.585938 12.726562 22.722656 12.597656 C 23.328125 10.960938 22.261719 8.171875 19.980469 5.453125 L 20.730469 4.703125 C 20.914062 4.789062 21.109375 4.835938 21.304688 4.835938 C 21.652344 4.835938 21.996094 4.707031 22.257812 4.445312 C 22.785156 3.917969 22.785156 3.0625 22.257812 2.539062 L 20.355469 0.632812 C 19.828125 0.109375 18.972656 0.109375 18.449219 0.632812 C 18.035156 1.046875 17.953125 1.660156 18.1875 2.164062 L 17.441406 2.910156 C 14.25 0.238281 10.960938 -0.773438 9.554688 0.632812 C 9.378906 0.808594 9.378906 1.09375 9.554688 1.269531 L 20.855469 12.570312 L 5.390625 12.570312 C 4.398438 12.570312 3.59375 13.375 3.59375 14.367188 C 3.59375 15.203125 4.167969 15.898438 4.941406 16.097656 L 4.941406 18.859375 L 4.042969 18.859375 C 3.796875 18.859375 3.59375 18.65625 3.59375 18.410156 L 3.59375 18.328125 C 4.113281 18.140625 4.492188 17.644531 4.492188 17.0625 C 4.492188 16.320312 3.886719 15.714844 3.144531 15.714844 L 1.347656 15.714844 C 0.605469 15.714844 0 16.320312 0 17.0625 C 0 17.648438 0.375 18.140625 0.898438 18.328125 L 0.898438 18.859375 C 0.898438 20.34375 2.105469 21.550781 3.589844 21.550781 L 4.9375 21.550781 L 4.9375 24.695312 C 4.9375 26.429688 6.347656 27.839844 8.082031 27.839844 L 19.761719 27.839844 C 21.492188 27.839844 22.902344 26.429688 22.902344 24.695312 L 22.902344 21.550781 L 24.25 21.550781 C 25.738281 21.550781 26.945312 20.34375 26.945312 18.859375 L 26.945312 18.328125 C 27.46875 18.140625 27.84375 17.644531 27.84375 17.0625 Z M 19.082031 1.269531 C 19.257812 1.09375 19.542969 1.09375 19.71875 1.269531 L 21.621094 3.171875 C 21.796875 3.347656 21.796875 3.632812 21.621094 3.808594 C 21.445312 3.984375 21.160156 3.984375 20.988281 3.808594 L 19.082031 1.902344 C 18.90625 1.726562 18.90625 1.441406 19.082031 1.269531 Z M 18.765625 2.855469 L 20.035156 4.125 L 19.386719 4.773438 C 19.183594 4.558594 18.980469 4.339844 18.765625 4.125 C 18.550781 3.910156 18.332031 3.707031 18.113281 3.503906 Z M 18.128906 4.761719 C 20.609375 7.242188 22.582031 10.746094 21.882812 12.324219 L 10.566406 1.011719 C 12.144531 0.3125 15.648438 2.28125 18.128906 4.761719 Z M 4.492188 14.367188 C 4.492188 13.871094 4.894531 13.46875 5.386719 13.46875 L 22.457031 13.46875 C 22.949219 13.46875 23.351562 13.871094 23.351562 14.367188 C 23.351562 14.863281 22.949219 15.265625 22.457031 15.265625 L 5.386719 15.265625 C 4.894531 15.265625 4.492188 14.863281 4.492188 14.367188 Z M 1.347656 16.613281 L 3.144531 16.613281 C 3.390625 16.613281 3.59375 16.8125 3.59375 17.0625 C 3.59375 17.308594 3.390625 17.511719 3.144531 17.511719 L 1.347656 17.511719 C 1.097656 17.511719 0.898438 17.308594 0.898438 17.0625 C 0.898438 16.8125 1.097656 16.613281 1.347656 16.613281 Z M 3.589844 20.652344 C 2.601562 20.652344 1.796875 19.847656 1.796875 18.859375 L 1.796875 18.410156 L 2.695312 18.410156 C 2.695312 19.152344 3.296875 19.753906 4.042969 19.753906 L 4.9375 19.753906 L 4.9375 20.652344 Z M 19.761719 26.941406 L 8.082031 26.941406 C 6.84375 26.941406 5.839844 25.933594 5.839844 24.695312 L 5.839844 16.164062 L 22.007812 16.164062 L 22.007812 24.695312 C 22.007812 25.933594 21 26.941406 19.761719 26.941406 Z M 24.25 20.652344 L 22.902344 20.652344 L 22.902344 19.753906 L 23.800781 19.753906 C 24.542969 19.753906 25.148438 19.152344 25.148438 18.410156 L 26.046875 18.410156 L 26.046875 18.859375 C 26.046875 19.847656 25.242188 20.652344 24.25 20.652344 Z M 26.496094 17.511719 L 24.699219 17.511719 C 24.453125 17.511719 24.25 17.308594 24.25 17.0625 C 24.25 16.8125 24.453125 16.613281 24.699219 16.613281 L 26.496094 16.613281 C 26.742188 16.613281 26.945312 16.8125 26.945312 17.0625 C 26.945312 17.308594 26.742188 17.511719 26.496094 17.511719 Z M 26.496094 17.511719 "/>
<path style=" stroke:none;fill-rule:nonzero;fill:rgb(92.941176%,41.176471%,36.078431%);fill-opacity:1;" d="M 20.660156 24.695312 C 20.660156 25.191406 20.257812 25.59375 19.761719 25.59375 L 19.761719 26.492188 C 20.753906 26.492188 21.558594 25.6875 21.558594 24.695312 L 21.558594 18.410156 L 20.660156 18.410156 Z M 20.660156 24.695312 "/>
<path style=" stroke:none;fill-rule:nonzero;fill:rgb(92.941176%,41.176471%,36.078431%);fill-opacity:1;" d="M 7.289062 8.816406 C 7.511719 9.039062 7.636719 9.335938 7.636719 9.652344 C 7.636719 9.964844 7.511719 10.261719 7.289062 10.484375 L 6.417969 11.355469 L 7.054688 11.988281 L 7.925781 11.121094 C 8.316406 10.726562 8.53125 10.207031 8.53125 9.652344 C 8.53125 9.097656 8.316406 8.574219 7.925781 8.183594 L 7.53125 7.789062 C 7.308594 7.566406 7.1875 7.273438 7.1875 6.957031 C 7.1875 6.640625 7.308594 6.347656 7.53125 6.125 L 8.402344 5.253906 L 7.765625 4.617188 L 6.894531 5.488281 C 6.503906 5.882812 6.289062 6.402344 6.289062 6.957031 C 6.289062 7.511719 6.503906 8.03125 6.894531 8.425781 L 7.292969 8.820312 Z M 7.289062 8.816406 "/>
<path style=" stroke:none;fill-rule:nonzero;fill:rgb(92.941176%,41.176471%,36.078431%);fill-opacity:1;" d="M 12.441406 5.253906 L 11.808594 4.617188 L 10.9375 5.488281 C 10.542969 5.878906 10.328125 6.402344 10.328125 6.957031 C 10.328125 7.511719 10.542969 8.03125 10.9375 8.421875 L 11.332031 8.816406 C 11.554688 9.039062 11.675781 9.335938 11.675781 9.652344 C 11.675781 9.964844 11.554688 10.261719 11.332031 10.484375 L 10.460938 11.355469 L 11.097656 11.988281 L 11.964844 11.121094 C 12.359375 10.726562 12.574219 10.207031 12.574219 9.652344 C 12.574219 9.097656 12.359375 8.574219 11.964844 8.183594 L 11.570312 7.789062 C 11.347656 7.566406 11.226562 7.273438 11.226562 6.957031 C 11.226562 6.640625 11.351562 6.347656 11.574219 6.125 Z M 12.441406 5.253906 "/>
</g>
</svg>
