<?xml version="1.0" encoding="UTF-8"?>
<svg xmlns="http://www.w3.org/2000/svg" xmlns:xlink="http://www.w3.org/1999/xlink" width="28px" height="28px" viewBox="0 0 28 28" version="1.1">
<g id="surface1">
<path style=" stroke:none;fill-rule:nonzero;fill:rgb(92.941176%,41.176471%,36.078431%);fill-opacity:1;" d="M 24.8125 18.183594 C 24.785156 18.136719 24.757812 18.09375 24.730469 18.054688 C 24.449219 17.664062 24.03125 17.402344 23.554688 17.324219 C 23.078125 17.246094 22.597656 17.359375 22.207031 17.640625 L 17.019531 21.34375 L 11.601562 21.34375 C 11.34375 21.34375 11.136719 21.136719 11.136719 20.878906 C 11.136719 20.625 11.34375 20.414062 11.601562 20.414062 L 14.617188 20.414062 C 15.511719 20.414062 16.238281 19.6875 16.238281 18.792969 C 16.238281 18.785156 16.238281 18.742188 16.238281 18.738281 C 16.210938 17.84375 15.457031 17.144531 14.578125 17.167969 L 8.542969 17.167969 C 8.007812 17.171875 7.488281 17.363281 7.074219 17.707031 L 4.808594 19.59375 C 4.703125 19.683594 4.640625 19.8125 4.640625 19.953125 L 4.640625 25.519531 C 4.640625 25.777344 4.847656 25.984375 5.105469 25.984375 L 16.617188 25.984375 C 17.371094 25.984375 18.105469 25.71875 18.683594 25.238281 L 24.308594 20.589844 C 25.074219 20.042969 25.296875 18.988281 24.8125 18.183594 Z M 23.746094 19.855469 L 18.09375 24.523438 C 17.675781 24.867188 17.152344 25.054688 16.617188 25.054688 L 5.566406 25.054688 L 5.566406 20.167969 L 7.671875 18.417969 C 7.917969 18.214844 8.230469 18.097656 8.546875 18.097656 L 14.59375 18.09375 C 14.976562 18.09375 15.300781 18.386719 15.3125 18.792969 C 15.3125 19.175781 15 19.488281 14.617188 19.488281 L 11.601562 19.488281 C 10.832031 19.488281 10.207031 20.113281 10.207031 20.878906 C 10.207031 21.648438 10.832031 22.273438 11.601562 22.273438 L 17.167969 22.273438 C 17.265625 22.273438 17.359375 22.242188 17.4375 22.1875 L 22.746094 18.394531 C 22.9375 18.257812 23.171875 18.203125 23.402344 18.242188 C 23.636719 18.277344 23.839844 18.40625 23.980469 18.601562 C 23.992188 18.621094 24.003906 18.640625 24.015625 18.660156 C 24.253906 19.050781 24.144531 19.570312 23.742188 19.855469 Z M 23.746094 19.855469 "/>
<path style=" stroke:none;fill-rule:nonzero;fill:rgb(92.941176%,41.176471%,36.078431%);fill-opacity:1;" d="M 5.089844 19.023438 L 0 19.023438 L 0 19.953125 L 4.625 19.953125 L 4.625 26.910156 L 0 26.910156 L 0 27.839844 L 5.089844 27.839844 C 5.347656 27.839844 5.554688 27.632812 5.554688 27.375 L 5.554688 19.488281 C 5.554688 19.230469 5.347656 19.023438 5.089844 19.023438 Z M 5.089844 19.023438 "/>
<path style=" stroke:none;fill-rule:nonzero;fill:rgb(92.941176%,41.176471%,36.078431%);fill-opacity:1;" d="M 2.320312 23.199219 C 1.550781 23.199219 0.929688 23.824219 0.929688 24.589844 C 0.929688 25.359375 1.550781 25.984375 2.320312 25.984375 C 3.085938 25.984375 3.710938 25.359375 3.710938 24.589844 C 3.710938 23.824219 3.085938 23.199219 2.320312 23.199219 Z M 2.320312 25.054688 C 2.0625 25.054688 1.855469 24.847656 1.855469 24.589844 C 1.855469 24.335938 2.0625 24.128906 2.320312 24.128906 C 2.574219 24.128906 2.785156 24.335938 2.785156 24.589844 C 2.785156 24.847656 2.574219 25.054688 2.320312 25.054688 Z M 2.320312 25.054688 "/>
<path style=" stroke:none;fill-rule:nonzero;fill:rgb(92.941176%,41.176471%,36.078431%);fill-opacity:1;" d="M 27.375 14.382812 L 0.464844 14.382812 C 0.207031 14.382812 0 14.589844 0 14.847656 C 0 16.636719 1.457031 18.09375 3.25 18.09375 L 24.589844 18.09375 C 26.382812 18.09375 27.839844 16.636719 27.839844 14.847656 C 27.839844 14.589844 27.632812 14.382812 27.375 14.382812 Z M 24.589844 17.167969 L 3.25 17.167969 C 2.128906 17.167969 1.191406 16.367188 0.976562 15.3125 L 26.863281 15.3125 C 26.648438 16.367188 25.710938 17.167969 24.59375 17.167969 Z M 24.589844 17.167969 "/>
<path style=" stroke:none;fill-rule:nonzero;fill:rgb(92.941176%,41.176471%,36.078431%);fill-opacity:1;" d="M 13.917969 2.320312 C 7.269531 2.320312 1.855469 7.730469 1.855469 14.382812 L 1.855469 14.847656 C 1.855469 15.105469 2.0625 15.3125 2.320312 15.3125 L 25.519531 15.3125 C 25.777344 15.3125 25.984375 15.105469 25.984375 14.847656 L 25.984375 14.382812 C 25.984375 7.730469 20.570312 2.320312 13.917969 2.320312 Z M 2.785156 14.382812 C 2.785156 8.242188 7.78125 3.246094 13.917969 3.246094 C 20.058594 3.246094 25.054688 8.242188 25.054688 14.382812 Z M 2.785156 14.382812 "/>
<path style=" stroke:none;fill-rule:nonzero;fill:rgb(92.941176%,41.176471%,36.078431%);fill-opacity:1;" d="M 6.289062 7.613281 C 5.964844 7.976562 5.664062 8.367188 5.394531 8.773438 L 6.167969 9.285156 C 6.414062 8.917969 6.6875 8.5625 6.980469 8.230469 Z M 6.289062 7.613281 "/>
<path style=" stroke:none;fill-rule:nonzero;fill:rgb(92.941176%,41.176471%,36.078431%);fill-opacity:1;" d="M 13.917969 4.175781 C 11.3125 4.175781 8.832031 5.160156 6.933594 6.945312 L 7.570312 7.621094 C 9.296875 6 11.550781 5.105469 13.921875 5.105469 Z M 13.917969 4.175781 "/>
<path style=" stroke:none;fill-rule:nonzero;fill:rgb(92.941176%,41.176471%,36.078431%);fill-opacity:1;" d="M 12.527344 0 L 15.3125 0 L 15.3125 0.929688 L 12.527344 0.929688 Z M 12.527344 0 "/>
<path style=" stroke:none;fill-rule:nonzero;fill:rgb(92.941176%,41.176471%,36.078431%);fill-opacity:1;" d="M 13.457031 0.464844 L 14.382812 0.464844 L 14.382812 2.785156 L 13.457031 2.785156 Z M 13.457031 0.464844 "/>
</g>
</svg>
