<?xml version="1.0" encoding="UTF-8"?>
<svg xmlns="http://www.w3.org/2000/svg" xmlns:xlink="http://www.w3.org/1999/xlink" width="28px" height="28px" viewBox="0 0 28 42" version="1.1">
<g id="surface1">
<path style=" stroke:none;fill-rule:nonzero;fill:rgb(92.941176%,41.176471%,36.078431%);fill-opacity:1;" d="M 17.351562 12.914062 C 17.214844 12.777344 17.140625 12.59375 17.140625 12.398438 C 17.140625 12.203125 17.214844 12.023438 17.351562 11.882812 C 17.589844 11.644531 17.589844 11.253906 17.351562 11.015625 C 17.113281 10.773438 16.722656 10.773438 16.484375 11.015625 C 16.113281 11.382812 15.910156 11.875 15.910156 12.398438 C 15.910156 12.917969 16.113281 13.414062 16.484375 13.78125 C 16.765625 14.0625 16.765625 14.527344 16.484375 14.808594 C 16.242188 15.046875 16.242188 15.4375 16.484375 15.679688 C 16.601562 15.800781 16.761719 15.859375 16.917969 15.859375 C 17.074219 15.859375 17.230469 15.800781 17.351562 15.679688 C 18.117188 14.914062 18.117188 13.671875 17.351562 12.914062 Z M 17.351562 12.914062 "/>
<path style=" stroke:none;fill-rule:nonzero;fill:rgb(92.941176%,41.176471%,36.078431%);fill-opacity:1;" d="M 23.410156 12.914062 C 23.273438 12.777344 23.199219 12.59375 23.199219 12.398438 C 23.199219 12.203125 23.273438 12.023438 23.410156 11.882812 C 23.648438 11.644531 23.648438 11.253906 23.410156 11.011719 C 23.171875 10.773438 22.78125 10.773438 22.542969 11.011719 C 21.777344 11.773438 21.777344 13.015625 22.542969 13.777344 C 22.679688 13.914062 22.753906 14.097656 22.753906 14.292969 C 22.753906 14.488281 22.679688 14.667969 22.542969 14.808594 C 22.304688 15.046875 22.304688 15.4375 22.542969 15.675781 C 22.660156 15.796875 22.820312 15.859375 22.976562 15.859375 C 23.136719 15.859375 23.292969 15.796875 23.410156 15.675781 C 23.78125 15.304688 23.984375 14.816406 23.984375 14.292969 C 23.984375 13.769531 23.78125 13.277344 23.410156 12.910156 Z M 23.410156 12.914062 "/>
<path style=" stroke:none;fill-rule:nonzero;fill:rgb(92.941176%,41.176471%,36.078431%);fill-opacity:1;" d="M 26.9375 19.648438 L 26.132812 19.648438 C 26.140625 19.597656 26.140625 19.554688 26.140625 19.503906 L 26.140625 18.371094 C 26.140625 17.613281 25.523438 16.996094 24.765625 16.996094 L 23.828125 16.996094 C 23.488281 16.996094 23.214844 17.269531 23.214844 17.609375 C 23.214844 17.949219 23.488281 18.226562 23.828125 18.226562 L 24.765625 18.226562 C 24.847656 18.226562 24.910156 18.292969 24.910156 18.371094 L 24.910156 19.5 C 24.910156 19.582031 24.84375 19.644531 24.765625 19.644531 L 13.238281 19.644531 C 13.160156 19.644531 13.09375 19.578125 13.09375 19.5 L 13.09375 18.371094 C 13.09375 18.289062 13.160156 18.226562 13.238281 18.226562 L 20.925781 18.226562 C 21.261719 18.226562 21.539062 17.949219 21.539062 17.609375 C 21.539062 17.269531 21.261719 16.996094 20.925781 16.996094 L 13.238281 16.996094 C 12.480469 16.996094 11.863281 17.613281 11.863281 18.371094 L 11.863281 19.503906 C 11.863281 19.554688 11.867188 19.601562 11.871094 19.648438 L 6.550781 19.648438 C 6.511719 19.523438 6.460938 19.40625 6.402344 19.292969 L 20.816406 4.882812 C 21.339844 4.355469 21.339844 3.503906 20.816406 2.980469 L 20.15625 2.320312 C 18.660156 0.824219 16.671875 0 14.554688 0 C 12.4375 0 10.449219 0.824219 8.953125 2.320312 L 8.175781 3.097656 L 7.71875 2.644531 C 7.148438 2.070312 6.257812 2.035156 5.734375 2.5625 L 3.195312 5.101562 C 2.667969 5.625 2.707031 6.515625 3.273438 7.085938 L 3.730469 7.542969 L 2.953125 8.320312 C -0.0585938 11.332031 -0.132812 16.183594 2.726562 19.285156 C 2.570312 19.578125 2.484375 19.910156 2.484375 20.261719 C 2.484375 21.199219 3.105469 21.992188 3.957031 22.25 C 3.960938 22.359375 3.964844 22.464844 3.976562 22.570312 L 1.71875 22.570312 C 0.769531 22.570312 -0.00390625 23.34375 -0.00390625 24.292969 C -0.00390625 25.242188 0.769531 26.011719 1.71875 26.011719 L 5.085938 26.011719 C 6.109375 27.707031 7.75 28.988281 9.695312 29.542969 L 7.816406 36.824219 C 7.730469 37.152344 7.929688 37.488281 8.257812 37.574219 C 8.308594 37.585938 8.359375 37.59375 8.414062 37.59375 C 8.6875 37.59375 8.9375 37.410156 9.007812 37.132812 L 10.902344 29.789062 C 11.222656 29.828125 11.539062 29.847656 11.867188 29.847656 L 12.269531 29.847656 L 9.578125 40.265625 C 9.5 40.5625 9.234375 40.769531 8.929688 40.769531 C 8.875 40.769531 8.816406 40.761719 8.761719 40.746094 C 8.589844 40.703125 8.445312 40.59375 8.351562 40.441406 C 8.261719 40.285156 8.238281 40.105469 8.28125 39.933594 L 8.523438 39 C 8.609375 38.671875 8.410156 38.335938 8.082031 38.25 C 7.75 38.164062 7.417969 38.363281 7.332031 38.691406 L 7.089844 39.628906 C 6.960938 40.117188 7.035156 40.628906 7.292969 41.066406 C 7.550781 41.503906 7.960938 41.8125 8.453125 41.941406 C 8.609375 41.980469 8.769531 42.003906 8.929688 42.003906 C 9.796875 42.003906 10.550781 41.417969 10.765625 40.578125 L 11.675781 37.0625 L 20.550781 37.0625 L 20.828125 38.121094 C 20.628906 38.492188 20.515625 38.914062 20.515625 39.363281 C 20.515625 40.820312 21.699219 42.003906 23.15625 42.003906 C 24.613281 42.003906 25.796875 40.820312 25.796875 39.363281 C 25.796875 38.386719 25.265625 37.535156 24.476562 37.078125 L 22.527344 29.546875 C 24.574219 28.964844 26.285156 27.578125 27.292969 25.75 C 27.316406 25.714844 27.335938 25.679688 27.351562 25.640625 C 27.9375 24.53125 28.273438 23.269531 28.273438 21.933594 L 28.273438 20.996094 C 28.273438 20.257812 27.667969 19.65625 26.929688 19.65625 Z M 4.066406 5.96875 L 6.605469 3.429688 C 6.628906 3.40625 6.75 3.410156 6.851562 3.511719 L 7.308594 3.96875 L 4.605469 6.671875 L 4.148438 6.214844 C 4.070312 6.136719 4.058594 6.058594 4.054688 6.03125 C 4.054688 6 4.058594 5.980469 4.066406 5.96875 Z M 3.828125 9.191406 L 9.828125 3.191406 C 11.09375 1.925781 12.769531 1.230469 14.558594 1.230469 C 16.347656 1.230469 18.027344 1.925781 19.292969 3.191406 L 19.953125 3.851562 C 19.996094 3.894531 19.996094 3.964844 19.953125 4.007812 L 5.539062 18.421875 C 5.25 18.269531 4.921875 18.179688 4.570312 18.179688 C 4.222656 18.179688 3.898438 18.265625 3.609375 18.417969 C 1.226562 15.792969 1.296875 11.722656 3.832031 9.1875 Z M 1.722656 24.78125 C 1.453125 24.78125 1.234375 24.5625 1.234375 24.292969 C 1.234375 24.019531 1.453125 23.800781 1.722656 23.800781 L 4.179688 23.800781 C 4.261719 24.136719 4.363281 24.464844 4.484375 24.78125 Z M 4.570312 21.113281 C 4.101562 21.113281 3.71875 20.730469 3.71875 20.261719 C 3.71875 19.792969 4.101562 19.414062 4.570312 19.414062 C 5.035156 19.414062 5.417969 19.792969 5.417969 20.261719 C 5.417969 20.730469 5.035156 21.113281 4.570312 21.113281 Z M 12.003906 35.828125 L 12.347656 34.492188 L 19.894531 34.492188 L 20.242188 35.828125 Z M 12.664062 33.261719 L 13.546875 29.847656 L 18.691406 29.847656 L 19.578125 33.261719 Z M 24.578125 39.355469 C 24.578125 40.136719 23.945312 40.765625 23.167969 40.765625 C 22.386719 40.765625 21.757812 40.136719 21.757812 39.355469 C 21.757812 38.578125 22.386719 37.945312 23.167969 37.945312 C 23.945312 37.945312 24.578125 38.578125 24.578125 39.355469 Z M 23.125 36.714844 C 22.65625 36.722656 22.21875 36.851562 21.835938 37.078125 L 19.960938 29.847656 L 20.359375 29.847656 C 20.6875 29.847656 21.007812 29.828125 21.328125 29.789062 L 23.125 36.71875 Z M 20.363281 28.613281 L 11.878906 28.613281 C 9.726562 28.613281 7.808594 27.589844 6.585938 26.011719 L 25.65625 26.011719 C 24.429688 27.589844 22.515625 28.613281 20.367188 28.613281 Z M 26.414062 24.78125 L 5.832031 24.78125 C 5.460938 24.003906 5.238281 23.148438 5.195312 22.246094 C 5.84375 22.039062 6.355469 21.523438 6.558594 20.875 L 26.945312 20.875 C 27.007812 20.875 27.058594 20.925781 27.058594 20.988281 L 27.058594 21.921875 C 27.058594 22.945312 26.824219 23.910156 26.414062 24.777344 Z M 26.414062 24.78125 "/>
<path style=" stroke:none;fill-rule:nonzero;fill:rgb(92.941176%,41.176471%,36.078431%);fill-opacity:1;" d="M 20.382812 12.914062 C 20.246094 12.777344 20.171875 12.59375 20.171875 12.398438 C 20.171875 12.203125 20.246094 12.023438 20.382812 11.882812 C 20.621094 11.644531 20.621094 11.253906 20.382812 11.015625 C 20.144531 10.773438 19.753906 10.773438 19.515625 11.015625 C 18.75 11.777344 18.75 13.015625 19.515625 13.78125 C 19.652344 13.917969 19.726562 14.101562 19.726562 14.296875 C 19.726562 14.492188 19.652344 14.671875 19.515625 14.8125 C 19.273438 15.050781 19.273438 15.441406 19.515625 15.683594 C 19.632812 15.800781 19.792969 15.863281 19.949219 15.863281 C 20.105469 15.863281 20.261719 15.800781 20.382812 15.683594 C 20.753906 15.3125 20.957031 14.820312 20.957031 14.296875 C 20.957031 13.777344 20.753906 13.285156 20.382812 12.914062 Z M 20.382812 12.914062 "/>
</g>
</svg>
