<?xml version="1.0" encoding="UTF-8"?>
<svg xmlns="http://www.w3.org/2000/svg" xmlns:xlink="http://www.w3.org/1999/xlink" width="28px" height="28px" viewBox="0 0 28 28" version="1.1">
<g id="surface1">
<path style=" stroke:none;fill-rule:nonzero;fill:rgb(92.941176%,41.176471%,36.078431%);fill-opacity:1;" d="M 16.234375 8.609375 C 16.144531 8.519531 16.09375 8.394531 16.09375 8.265625 C 16.09375 8.136719 16.144531 8.015625 16.234375 7.921875 C 16.394531 7.761719 16.394531 7.503906 16.234375 7.34375 C 16.074219 7.183594 15.816406 7.183594 15.65625 7.34375 C 15.410156 7.589844 15.273438 7.917969 15.273438 8.265625 C 15.273438 8.613281 15.410156 8.941406 15.65625 9.1875 C 15.84375 9.375 15.84375 9.683594 15.65625 9.871094 C 15.496094 10.03125 15.496094 10.292969 15.65625 10.453125 C 15.734375 10.535156 15.839844 10.574219 15.945312 10.574219 C 16.050781 10.574219 16.152344 10.535156 16.234375 10.453125 C 16.746094 9.941406 16.746094 9.113281 16.234375 8.609375 Z M 16.234375 8.609375 "/>
<path style=" stroke:none;fill-rule:nonzero;fill:rgb(92.941176%,41.176471%,36.078431%);fill-opacity:1;" d="M 20.273438 8.609375 C 20.183594 8.519531 20.132812 8.394531 20.132812 8.265625 C 20.132812 8.136719 20.183594 8.015625 20.273438 7.921875 C 20.433594 7.761719 20.433594 7.503906 20.273438 7.339844 C 20.113281 7.183594 19.855469 7.183594 19.695312 7.339844 C 19.183594 7.847656 19.183594 8.675781 19.695312 9.183594 C 19.785156 9.277344 19.835938 9.398438 19.835938 9.527344 C 19.835938 9.660156 19.785156 9.777344 19.695312 9.871094 C 19.535156 10.03125 19.535156 10.292969 19.695312 10.449219 C 19.773438 10.53125 19.878906 10.574219 19.984375 10.574219 C 20.089844 10.574219 20.195312 10.53125 20.273438 10.449219 C 20.519531 10.203125 20.65625 9.878906 20.65625 9.527344 C 20.65625 9.179688 20.519531 8.851562 20.273438 8.605469 Z M 20.273438 8.609375 "/>
<path style=" stroke:none;fill-rule:nonzero;fill:rgb(92.941176%,41.176471%,36.078431%);fill-opacity:1;" d="M 22.625 13.097656 L 22.089844 13.097656 C 22.09375 13.066406 22.09375 13.035156 22.09375 13.003906 L 22.09375 12.246094 C 22.09375 11.742188 21.683594 11.332031 21.175781 11.332031 L 20.550781 11.332031 C 20.324219 11.332031 20.144531 11.511719 20.144531 11.738281 C 20.144531 11.964844 20.324219 12.152344 20.550781 12.152344 L 21.175781 12.152344 C 21.230469 12.152344 21.273438 12.195312 21.273438 12.246094 L 21.273438 13 C 21.273438 13.054688 21.230469 13.097656 21.175781 13.097656 L 13.492188 13.097656 C 13.441406 13.097656 13.394531 13.050781 13.394531 13 L 13.394531 12.246094 C 13.394531 12.191406 13.441406 12.152344 13.492188 12.152344 L 18.617188 12.152344 C 18.839844 12.152344 19.027344 11.964844 19.027344 11.738281 C 19.027344 11.511719 18.839844 11.332031 18.617188 11.332031 L 13.492188 11.332031 C 12.988281 11.332031 12.574219 11.742188 12.574219 12.246094 L 12.574219 13.003906 C 12.574219 13.035156 12.578125 13.066406 12.582031 13.097656 L 9.035156 13.097656 C 9.007812 13.015625 8.972656 12.9375 8.933594 12.863281 L 18.542969 3.253906 C 18.894531 2.902344 18.894531 2.335938 18.542969 1.988281 L 18.105469 1.546875 C 17.105469 0.550781 15.78125 0 14.371094 0 C 12.957031 0 11.632812 0.550781 10.636719 1.546875 L 10.117188 2.066406 L 9.8125 1.761719 C 9.433594 1.378906 8.839844 1.355469 8.488281 1.707031 L 6.796875 3.402344 C 6.445312 3.75 6.472656 4.34375 6.847656 4.722656 L 7.152344 5.027344 L 6.636719 5.546875 C 4.628906 7.554688 4.578125 10.789062 6.484375 12.855469 C 6.378906 13.050781 6.324219 13.273438 6.324219 13.507812 C 6.324219 14.132812 6.738281 14.660156 7.304688 14.832031 C 7.308594 14.90625 7.308594 14.976562 7.316406 15.046875 L 5.8125 15.046875 C 5.179688 15.046875 4.664062 15.5625 4.664062 16.195312 C 4.664062 16.828125 5.179688 17.339844 5.8125 17.339844 L 8.058594 17.339844 C 8.738281 18.472656 9.832031 19.324219 11.128906 19.695312 L 9.878906 24.550781 C 9.820312 24.769531 9.953125 24.992188 10.171875 25.050781 C 10.207031 25.058594 10.238281 25.0625 10.277344 25.0625 C 10.457031 25.0625 10.625 24.941406 10.671875 24.753906 L 11.933594 19.859375 C 12.148438 19.886719 12.359375 19.898438 12.578125 19.898438 L 12.847656 19.898438 L 11.050781 26.84375 C 11 27.042969 10.824219 27.179688 10.621094 27.179688 C 10.582031 27.179688 10.542969 27.175781 10.507812 27.164062 C 10.394531 27.136719 10.296875 27.0625 10.234375 26.960938 C 10.175781 26.855469 10.160156 26.738281 10.1875 26.621094 L 10.347656 26 C 10.40625 25.78125 10.273438 25.558594 10.054688 25.5 C 9.832031 25.441406 9.613281 25.574219 9.554688 25.792969 L 9.394531 26.417969 C 9.308594 26.746094 9.355469 27.085938 9.527344 27.378906 C 9.699219 27.667969 9.972656 27.875 10.300781 27.960938 C 10.40625 27.988281 10.511719 28.003906 10.621094 28.003906 C 11.199219 28.003906 11.699219 27.613281 11.84375 27.050781 L 12.449219 24.707031 L 18.367188 24.707031 L 18.550781 25.414062 C 18.417969 25.660156 18.34375 25.941406 18.34375 26.242188 C 18.34375 27.214844 19.132812 28.003906 20.105469 28.003906 C 21.074219 28.003906 21.863281 27.214844 21.863281 26.242188 C 21.863281 25.589844 21.511719 25.023438 20.984375 24.71875 L 19.683594 19.699219 C 21.050781 19.308594 22.191406 18.386719 22.863281 17.167969 C 22.878906 17.144531 22.890625 17.121094 22.902344 17.09375 C 23.292969 16.355469 23.515625 15.511719 23.515625 14.621094 L 23.515625 13.996094 C 23.515625 13.503906 23.113281 13.105469 22.621094 13.105469 Z M 7.378906 3.980469 L 9.070312 2.285156 C 9.085938 2.269531 9.167969 2.273438 9.234375 2.339844 L 9.539062 2.644531 L 7.738281 4.449219 L 7.433594 4.144531 C 7.378906 4.089844 7.371094 4.039062 7.371094 4.019531 C 7.371094 4 7.371094 3.988281 7.378906 3.980469 Z M 7.21875 6.128906 L 11.21875 2.128906 C 12.0625 1.285156 13.179688 0.820312 14.371094 0.820312 C 15.566406 0.820312 16.683594 1.285156 17.527344 2.128906 L 17.96875 2.566406 C 17.996094 2.597656 17.996094 2.644531 17.96875 2.671875 L 8.359375 12.28125 C 8.167969 12.179688 7.949219 12.121094 7.714844 12.121094 C 7.480469 12.121094 7.265625 12.175781 7.074219 12.277344 C 5.484375 10.527344 5.53125 7.816406 7.222656 6.125 Z M 5.816406 16.519531 C 5.636719 16.519531 5.488281 16.375 5.488281 16.195312 C 5.488281 16.011719 5.636719 15.867188 5.816406 15.867188 L 7.453125 15.867188 C 7.507812 16.089844 7.574219 16.308594 7.65625 16.519531 Z M 7.714844 14.074219 C 7.402344 14.074219 7.144531 13.820312 7.144531 13.507812 C 7.144531 13.195312 7.402344 12.941406 7.714844 12.941406 C 8.023438 12.941406 8.277344 13.195312 8.277344 13.507812 C 8.277344 13.820312 8.023438 14.074219 7.714844 14.074219 Z M 12.667969 23.886719 L 12.898438 22.996094 L 17.929688 22.996094 L 18.160156 23.886719 Z M 13.109375 22.175781 L 13.699219 19.898438 L 17.128906 19.898438 L 17.71875 22.175781 Z M 21.050781 26.238281 C 21.050781 26.757812 20.628906 27.175781 20.113281 27.175781 C 19.589844 27.175781 19.171875 26.757812 19.171875 26.238281 C 19.171875 25.71875 19.589844 25.296875 20.113281 25.296875 C 20.628906 25.296875 21.050781 25.71875 21.050781 26.238281 Z M 20.082031 24.476562 C 19.769531 24.480469 19.480469 24.566406 19.222656 24.71875 L 17.972656 19.898438 L 18.238281 19.898438 C 18.457031 19.898438 18.671875 19.886719 18.886719 19.859375 L 20.082031 24.480469 Z M 18.242188 19.074219 L 12.585938 19.074219 C 11.152344 19.074219 9.871094 18.394531 9.058594 17.339844 L 21.769531 17.339844 C 20.953125 18.394531 19.675781 19.074219 18.246094 19.074219 Z M 22.277344 16.519531 L 8.554688 16.519531 C 8.308594 16.003906 8.160156 15.433594 8.128906 14.832031 C 8.5625 14.691406 8.902344 14.347656 9.039062 13.917969 L 22.628906 13.917969 C 22.671875 13.917969 22.707031 13.949219 22.707031 13.992188 L 22.707031 14.613281 C 22.707031 15.296875 22.550781 15.941406 22.277344 16.519531 Z M 22.277344 16.519531 "/>
<path style=" stroke:none;fill-rule:nonzero;fill:rgb(92.941176%,41.176471%,36.078431%);fill-opacity:1;" d="M 18.253906 8.609375 C 18.164062 8.519531 18.113281 8.394531 18.113281 8.265625 C 18.113281 8.136719 18.164062 8.015625 18.253906 7.921875 C 18.414062 7.761719 18.414062 7.503906 18.253906 7.34375 C 18.097656 7.183594 17.835938 7.183594 17.675781 7.34375 C 17.167969 7.851562 17.167969 8.675781 17.675781 9.1875 C 17.769531 9.277344 17.816406 9.402344 17.816406 9.53125 C 17.816406 9.660156 17.769531 9.78125 17.675781 9.875 C 17.515625 10.035156 17.515625 10.292969 17.675781 10.457031 C 17.753906 10.535156 17.863281 10.574219 17.964844 10.574219 C 18.070312 10.574219 18.175781 10.535156 18.253906 10.457031 C 18.503906 10.207031 18.636719 9.878906 18.636719 9.53125 C 18.636719 9.183594 18.503906 8.855469 18.253906 8.609375 Z M 18.253906 8.609375 "/>
</g>
</svg>
