<?xml version="1.0" encoding="UTF-8"?>
<svg xmlns="http://www.w3.org/2000/svg" xmlns:xlink="http://www.w3.org/1999/xlink" width="28px" height="28px" viewBox="0 0 28 31" version="1.1">
<g id="surface1">
<path style=" stroke:none;fill-rule:nonzero;fill:rgb(92.941176%,41.176471%,36.078431%);fill-opacity:1;" d="M 12.824219 3.410156 L 6.925781 2.277344 C 6.667969 2.226562 6.410156 2.34375 6.28125 2.566406 C 6.191406 2.71875 4.109375 6.300781 3.203125 10.890625 C 2.992188 11.945312 2.902344 12.996094 2.921875 13.996094 C 2.933594 14.777344 3.03125 15.5625 3.207031 16.324219 C 3.253906 16.539062 3.3125 16.753906 3.378906 16.964844 C 3.886719 18.550781 4.75 19.632812 5.851562 20.085938 L 4.574219 26.863281 L 1.832031 26.332031 C 1.136719 26.199219 0.417969 26.582031 0.152344 27.230469 C 0.109375 27.339844 0.0820312 27.457031 0.0585938 27.570312 C 0.0390625 27.679688 0.015625 27.792969 0.00390625 27.902344 C -0.0195312 28.257812 0.0898438 28.613281 0.304688 28.898438 C 0.53125 29.183594 0.851562 29.386719 1.214844 29.453125 L 7.910156 30.742188 C 8.492188 30.855469 9.105469 30.601562 9.441406 30.121094 C 9.523438 29.992188 9.59375 29.855469 9.636719 29.710938 C 9.6875 29.527344 9.730469 29.335938 9.738281 29.148438 C 9.757812 28.804688 9.644531 28.460938 9.433594 28.183594 C 9.214844 27.898438 8.886719 27.695312 8.527344 27.628906 L 5.777344 27.097656 L 7.054688 20.316406 C 8.179688 20.304688 9.324219 19.691406 10.347656 18.539062 C 10.433594 18.445312 10.515625 18.347656 10.589844 18.25 C 11.339844 17.324219 11.972656 16.15625 12.433594 14.847656 C 12.671875 14.171875 12.859375 13.476562 12.996094 12.777344 C 13.902344 8.191406 13.335938 4.097656 13.316406 3.925781 C 13.28125 3.667969 13.082031 3.464844 12.828125 3.414062 Z M 8.46875 28.921875 C 8.511719 28.988281 8.519531 29.074219 8.503906 29.152344 C 8.496094 29.222656 8.480469 29.308594 8.457031 29.375 C 8.40625 29.503906 8.285156 29.582031 8.140625 29.554688 L 1.445312 28.265625 C 1.367188 28.25 1.292969 28.199219 1.253906 28.128906 C 1.199219 28.03125 1.230469 27.929688 1.25 27.828125 C 1.269531 27.734375 1.28125 27.644531 1.351562 27.578125 C 1.414062 27.523438 1.503906 27.496094 1.589844 27.511719 L 8.285156 28.804688 C 8.382812 28.820312 8.4375 28.882812 8.460938 28.917969 Z M 7.128906 3.542969 L 12.152344 4.511719 C 12.269531 5.660156 12.5 8.980469 11.796875 12.542969 C 11.738281 12.824219 11.675781 13.101562 11.605469 13.375 L 4.144531 13.375 C 4.167969 12.644531 4.253906 11.882812 4.402344 11.113281 C 5.101562 7.5625 6.585938 4.566406 7.128906 3.542969 Z M 10.707031 15.804688 C 10.394531 16.429688 10.023438 17.03125 9.574219 17.570312 C 8.917969 18.355469 8.226562 18.855469 7.558594 19.035156 C 7.222656 19.121094 6.871094 19.128906 6.535156 19.042969 C 5.96875 18.886719 5.476562 18.453125 5.082031 17.808594 C 4.628906 17.0625 4.390625 16.191406 4.261719 15.339844 C 4.226562 15.089844 4.195312 14.839844 4.175781 14.585938 L 11.230469 14.585938 C 11.078125 15.003906 10.902344 15.410156 10.707031 15.808594 Z M 10.707031 15.804688 Z M 10.707031 15.804688 "/>
<path style=" stroke:none;fill-rule:nonzero;fill:rgb(92.941176%,41.176471%,36.078431%);fill-opacity:1;" d="M 10.722656 10.472656 C 10.742188 10.472656 10.761719 10.476562 10.78125 10.476562 C 11.09375 10.476562 11.359375 10.242188 11.390625 9.929688 C 11.507812 8.6875 11.539062 7.40625 11.484375 6.117188 C 11.472656 5.785156 11.191406 5.523438 10.847656 5.539062 C 10.515625 5.550781 10.25 5.828125 10.261719 6.164062 C 10.3125 7.402344 10.28125 8.628906 10.171875 9.820312 C 10.140625 10.152344 10.394531 10.445312 10.730469 10.472656 Z M 10.722656 10.472656 Z M 10.722656 10.472656 "/>
<path style=" stroke:none;fill-rule:nonzero;fill:rgb(92.941176%,41.176471%,36.078431%);fill-opacity:1;" d="M 27.972656 27.722656 C 27.925781 27.5 27.882812 27.273438 27.769531 27.074219 C 27.675781 26.902344 27.546875 26.753906 27.390625 26.632812 C 27.050781 26.363281 26.597656 26.253906 26.167969 26.339844 L 23.421875 26.867188 L 22.078125 20.085938 C 24.433594 19.117188 25.585938 15.265625 24.722656 10.890625 C 23.820312 6.300781 21.734375 2.71875 21.644531 2.566406 C 21.515625 2.347656 21.253906 2.226562 21 2.277344 L 15.101562 3.410156 C 14.847656 3.460938 14.648438 3.664062 14.613281 3.917969 C 14.589844 4.09375 14.023438 8.1875 14.929688 12.769531 C 15.792969 17.144531 18.332031 20.289062 20.882812 20.308594 L 22.226562 27.09375 L 19.476562 27.625 C 18.90625 27.734375 18.433594 28.183594 18.304688 28.746094 C 18.230469 29.078125 18.277344 29.4375 18.386719 29.753906 C 18.488281 30.066406 18.699219 30.34375 18.976562 30.523438 C 19.304688 30.734375 19.710938 30.820312 20.09375 30.742188 L 26.789062 29.453125 C 27.589844 29.300781 28.128906 28.511719 27.972656 27.71875 Z M 15.78125 4.511719 L 20.800781 3.542969 C 21.347656 4.566406 22.828125 7.5625 23.53125 11.113281 C 23.5625 11.273438 23.589844 11.429688 23.617188 11.585938 L 15.96875 11.585938 C 15.476562 8.40625 15.679688 5.558594 15.78125 4.511719 Z M 26.730469 28.15625 C 26.710938 28.191406 26.65625 28.25 26.558594 28.269531 L 19.863281 29.558594 C 19.777344 29.578125 19.6875 29.550781 19.625 29.492188 C 19.554688 29.425781 19.535156 29.335938 19.523438 29.246094 C 19.503906 29.152344 19.476562 29.054688 19.519531 28.96875 C 19.554688 28.886719 19.628906 28.824219 19.714844 28.808594 L 26.410156 27.519531 C 26.550781 27.492188 26.667969 27.574219 26.722656 27.699219 C 26.773438 27.828125 26.816406 28.03125 26.738281 28.15625 Z M 20.792969 19.097656 C 20.265625 19.070312 19.773438 18.828125 19.351562 18.523438 C 18.933594 18.21875 18.570312 17.84375 18.25 17.4375 C 18.058594 17.195312 17.878906 16.933594 17.714844 16.667969 C 17.402344 16.164062 17.113281 15.597656 16.863281 14.984375 C 16.574219 14.273438 16.351562 13.535156 16.1875 12.789062 L 23.757812 12.789062 C 23.832031 13.886719 23.78125 15.011719 23.527344 16.085938 C 23.457031 16.390625 23.363281 16.695312 23.25 16.988281 C 22.820312 18.097656 22.175781 18.8125 21.425781 19.027344 C 21.222656 19.085938 21.007812 19.109375 20.796875 19.09375 Z M 20.792969 19.097656 Z M 20.792969 19.097656 "/>
<path style=" stroke:none;fill-rule:nonzero;fill:rgb(92.941176%,41.176471%,36.078431%);fill-opacity:1;" d="M 14.484375 0.605469 C 14.484375 0.273438 14.210938 0 13.871094 0 C 13.535156 0 13.261719 0.269531 13.261719 0.605469 L 13.261719 2.566406 C 13.261719 2.898438 13.535156 3.171875 13.871094 3.171875 C 14.207031 3.171875 14.484375 2.902344 14.484375 2.566406 Z M 14.484375 0.605469 Z M 14.484375 0.605469 "/>
<path style=" stroke:none;fill-rule:nonzero;fill:rgb(92.941176%,41.176471%,36.078431%);fill-opacity:1;" d="M 11.394531 2.285156 C 11.511719 2.46875 11.714844 2.578125 11.917969 2.578125 C 12.027344 2.578125 12.136719 2.550781 12.238281 2.488281 C 12.523438 2.316406 12.617188 1.945312 12.441406 1.65625 L 11.691406 0.433594 C 11.515625 0.148438 11.140625 0.0585938 10.847656 0.230469 C 10.5625 0.402344 10.46875 0.773438 10.644531 1.0625 Z M 11.394531 2.285156 Z M 11.394531 2.285156 "/>
<path style=" stroke:none;fill-rule:nonzero;fill:rgb(92.941176%,41.176471%,36.078431%);fill-opacity:1;" d="M 15.632812 2.488281 C 15.730469 2.546875 15.84375 2.578125 15.953125 2.578125 C 16.15625 2.578125 16.359375 2.476562 16.476562 2.285156 L 17.226562 1.0625 C 17.402344 0.777344 17.3125 0.40625 17.019531 0.230469 C 16.734375 0.0585938 16.359375 0.144531 16.179688 0.433594 L 15.425781 1.65625 C 15.253906 1.941406 15.34375 2.3125 15.632812 2.488281 Z M 15.632812 2.488281 Z M 15.632812 2.488281 "/>
<path style=" stroke:none;fill-rule:nonzero;fill:rgb(92.941176%,41.176471%,36.078431%);fill-opacity:1;" d="M 20.378906 7.511719 C 20.609375 8.140625 20.820312 8.78125 21.003906 9.425781 C 21.074219 9.683594 21.117188 9.949219 21.367188 10.097656 C 21.585938 10.226562 21.871094 10.207031 22.070312 10.050781 C 22.253906 9.898438 22.328125 9.65625 22.269531 9.425781 C 22.191406 9.113281 22.097656 8.804688 21.996094 8.492188 C 21.898438 8.175781 21.792969 7.855469 21.679688 7.539062 C 21.625 7.382812 21.578125 7.222656 21.507812 7.070312 C 21.464844 6.964844 21.390625 6.875 21.292969 6.8125 C 21.078125 6.667969 20.785156 6.671875 20.578125 6.832031 C 20.367188 6.992188 20.285156 7.273438 20.371094 7.519531 Z M 20.378906 7.511719 Z M 20.378906 7.511719 "/>
<path style=" stroke:none;fill-rule:nonzero;fill:rgb(92.941176%,41.176471%,36.078431%);fill-opacity:1;" d="M 11.046875 12.261719 C 11.046875 12.597656 10.773438 12.867188 10.433594 12.867188 C 10.09375 12.867188 9.820312 12.597656 9.820312 12.261719 C 9.820312 11.925781 10.09375 11.65625 10.433594 11.65625 C 10.773438 11.65625 11.046875 11.925781 11.046875 12.261719 Z M 11.046875 12.261719 Z M 11.046875 12.261719 "/>
<path style=" stroke:none;fill-rule:nonzero;fill:rgb(92.941176%,41.176471%,36.078431%);fill-opacity:1;" d="M 20.640625 5.082031 C 20.640625 5.417969 20.367188 5.6875 20.027344 5.6875 C 19.6875 5.6875 19.414062 5.417969 19.414062 5.082031 C 19.414062 4.746094 19.6875 4.476562 20.027344 4.476562 C 20.367188 4.476562 20.640625 4.746094 20.640625 5.082031 Z M 20.640625 5.082031 Z M 20.640625 5.082031 "/>
</g>
</svg>
