<?xml version="1.0" encoding="UTF-8"?>
<svg xmlns="http://www.w3.org/2000/svg" xmlns:xlink="http://www.w3.org/1999/xlink" width="28px" height="28px" viewBox="0 0 28 28" version="1.1">
<g id="surface1">
<path style=" stroke:none;fill-rule:nonzero;fill:rgb(92.941176%,41.176471%,36.078431%);fill-opacity:1;" d="M 12.9375 3.082031 L 7.609375 2.058594 C 7.378906 2.011719 7.144531 2.117188 7.027344 2.316406 C 6.945312 2.457031 5.066406 5.691406 4.246094 9.835938 C 4.058594 10.789062 3.976562 11.738281 3.992188 12.640625 C 4.003906 13.347656 4.09375 14.054688 4.25 14.746094 C 4.292969 14.9375 4.347656 15.132812 4.40625 15.324219 C 4.867188 16.753906 5.644531 17.734375 6.640625 18.140625 L 5.488281 24.261719 L 3.007812 23.785156 C 2.382812 23.664062 1.730469 24.007812 1.492188 24.59375 C 1.453125 24.695312 1.429688 24.800781 1.40625 24.902344 C 1.390625 25 1.367188 25.101562 1.359375 25.203125 C 1.335938 25.523438 1.4375 25.84375 1.628906 26.101562 C 1.835938 26.359375 2.125 26.542969 2.453125 26.601562 L 8.5 27.765625 C 9.023438 27.871094 9.578125 27.640625 9.882812 27.207031 C 9.957031 27.089844 10.019531 26.964844 10.058594 26.835938 C 10.105469 26.667969 10.144531 26.496094 10.152344 26.328125 C 10.167969 26.015625 10.066406 25.707031 9.875 25.457031 C 9.679688 25.199219 9.382812 25.015625 9.058594 24.957031 L 6.574219 24.476562 L 7.726562 18.351562 C 8.742188 18.339844 9.777344 17.785156 10.699219 16.746094 C 10.777344 16.660156 10.851562 16.570312 10.917969 16.484375 C 11.597656 15.648438 12.167969 14.59375 12.585938 13.410156 C 12.800781 12.800781 12.96875 12.171875 13.09375 11.539062 C 13.910156 7.398438 13.398438 3.699219 13.382812 3.546875 C 13.351562 3.3125 13.171875 3.128906 12.941406 3.082031 Z M 9.003906 26.121094 C 9.042969 26.183594 9.050781 26.261719 9.035156 26.332031 C 9.027344 26.394531 9.015625 26.472656 8.992188 26.53125 C 8.949219 26.648438 8.839844 26.71875 8.707031 26.695312 L 2.660156 25.53125 C 2.589844 25.515625 2.523438 25.46875 2.488281 25.40625 C 2.4375 25.320312 2.464844 25.226562 2.484375 25.136719 C 2.5 25.050781 2.511719 24.96875 2.574219 24.910156 C 2.632812 24.859375 2.714844 24.835938 2.789062 24.847656 L 8.839844 26.015625 C 8.925781 26.03125 8.976562 26.085938 8.996094 26.121094 Z M 7.792969 3.199219 L 12.332031 4.074219 C 12.4375 5.113281 12.644531 8.113281 12.011719 11.328125 C 11.957031 11.582031 11.902344 11.832031 11.835938 12.082031 L 5.097656 12.082031 C 5.121094 11.421875 5.195312 10.734375 5.332031 10.039062 C 5.960938 6.832031 7.304688 4.125 7.792969 3.199219 Z M 11.027344 14.273438 C 10.742188 14.839844 10.410156 15.382812 10.003906 15.871094 C 9.410156 16.578125 8.785156 17.03125 8.183594 17.191406 C 7.878906 17.269531 7.5625 17.277344 7.257812 17.199219 C 6.746094 17.058594 6.300781 16.667969 5.945312 16.085938 C 5.535156 15.410156 5.320312 14.625 5.203125 13.855469 C 5.171875 13.628906 5.144531 13.402344 5.125 13.175781 L 11.5 13.175781 C 11.359375 13.550781 11.203125 13.917969 11.027344 14.277344 Z M 11.027344 14.273438 Z M 11.027344 14.273438 "/>
<path style=" stroke:none;fill-rule:nonzero;fill:rgb(92.941176%,41.176471%,36.078431%);fill-opacity:1;" d="M 11.039062 9.460938 C 11.058594 9.460938 11.074219 9.460938 11.09375 9.460938 C 11.375 9.460938 11.613281 9.25 11.644531 8.96875 C 11.75 7.847656 11.777344 6.691406 11.726562 5.523438 C 11.71875 5.226562 11.464844 4.988281 11.152344 5.003906 C 10.851562 5.011719 10.613281 5.265625 10.625 5.566406 C 10.667969 6.6875 10.640625 7.792969 10.542969 8.871094 C 10.515625 9.167969 10.742188 9.433594 11.046875 9.460938 Z M 11.039062 9.460938 Z M 11.039062 9.460938 "/>
<path style=" stroke:none;fill-rule:nonzero;fill:rgb(92.941176%,41.176471%,36.078431%);fill-opacity:1;" d="M 26.621094 25.039062 C 26.578125 24.839844 26.539062 24.632812 26.4375 24.453125 C 26.351562 24.300781 26.234375 24.164062 26.09375 24.054688 C 25.789062 23.8125 25.378906 23.714844 24.992188 23.789062 L 22.511719 24.265625 L 21.296875 18.140625 C 23.425781 17.265625 24.464844 13.789062 23.683594 9.835938 C 22.871094 5.691406 20.984375 2.457031 20.90625 2.316406 C 20.789062 2.121094 20.550781 2.011719 20.324219 2.058594 L 14.996094 3.082031 C 14.765625 3.125 14.585938 3.308594 14.554688 3.539062 C 14.53125 3.699219 14.019531 7.394531 14.839844 11.535156 C 15.621094 15.484375 17.914062 18.324219 20.214844 18.34375 L 21.429688 24.472656 L 18.945312 24.953125 C 18.429688 25.050781 18.003906 25.457031 17.886719 25.964844 C 17.820312 26.265625 17.863281 26.589844 17.960938 26.875 C 18.054688 27.15625 18.246094 27.40625 18.496094 27.570312 C 18.792969 27.761719 19.160156 27.835938 19.503906 27.765625 L 25.550781 26.601562 C 26.273438 26.464844 26.761719 25.753906 26.621094 25.035156 Z M 15.609375 4.074219 L 20.144531 3.199219 C 20.636719 4.125 21.972656 6.832031 22.609375 10.039062 C 22.636719 10.183594 22.660156 10.324219 22.6875 10.464844 L 15.777344 10.464844 C 15.332031 7.59375 15.515625 5.019531 15.609375 4.074219 Z M 25.5 25.429688 C 25.480469 25.464844 25.429688 25.515625 25.34375 25.535156 L 19.296875 26.699219 C 19.21875 26.714844 19.136719 26.691406 19.082031 26.636719 C 19.015625 26.578125 19 26.496094 18.988281 26.414062 C 18.972656 26.332031 18.945312 26.242188 18.984375 26.164062 C 19.015625 26.089844 19.085938 26.035156 19.160156 26.019531 L 25.210938 24.855469 C 25.335938 24.832031 25.441406 24.90625 25.492188 25.019531 C 25.539062 25.136719 25.574219 25.320312 25.503906 25.429688 Z M 20.136719 17.25 C 19.660156 17.226562 19.214844 17.007812 18.832031 16.730469 C 18.457031 16.457031 18.128906 16.117188 17.839844 15.75 C 17.664062 15.53125 17.503906 15.292969 17.355469 15.054688 C 17.074219 14.601562 16.8125 14.089844 16.585938 13.535156 C 16.324219 12.890625 16.125 12.226562 15.976562 11.550781 L 22.8125 11.550781 C 22.878906 12.542969 22.835938 13.558594 22.605469 14.527344 C 22.542969 14.804688 22.457031 15.078125 22.355469 15.34375 C 21.964844 16.347656 21.382812 16.992188 20.707031 17.1875 C 20.523438 17.238281 20.328125 17.261719 20.140625 17.246094 Z M 20.136719 17.25 Z M 20.136719 17.25 "/>
<path style=" stroke:none;fill-rule:nonzero;fill:rgb(92.941176%,41.176471%,36.078431%);fill-opacity:1;" d="M 14.4375 0.546875 C 14.4375 0.246094 14.191406 0 13.882812 0 C 13.582031 0 13.332031 0.242188 13.332031 0.546875 L 13.332031 2.316406 C 13.332031 2.617188 13.582031 2.863281 13.882812 2.863281 C 14.1875 2.863281 14.4375 2.621094 14.4375 2.316406 Z M 14.4375 0.546875 Z M 14.4375 0.546875 "/>
<path style=" stroke:none;fill-rule:nonzero;fill:rgb(92.941176%,41.176471%,36.078431%);fill-opacity:1;" d="M 11.648438 2.0625 C 11.753906 2.230469 11.9375 2.328125 12.121094 2.328125 C 12.21875 2.328125 12.316406 2.304688 12.410156 2.246094 C 12.667969 2.09375 12.75 1.757812 12.59375 1.496094 L 11.914062 0.390625 C 11.757812 0.132812 11.417969 0.0546875 11.152344 0.207031 C 10.894531 0.363281 10.808594 0.699219 10.96875 0.960938 Z M 11.648438 2.0625 Z M 11.648438 2.0625 "/>
<path style=" stroke:none;fill-rule:nonzero;fill:rgb(92.941176%,41.176471%,36.078431%);fill-opacity:1;" d="M 15.476562 2.246094 C 15.5625 2.300781 15.664062 2.328125 15.765625 2.328125 C 15.949219 2.328125 16.132812 2.238281 16.238281 2.0625 L 16.914062 0.960938 C 17.074219 0.703125 16.992188 0.367188 16.726562 0.207031 C 16.46875 0.0546875 16.132812 0.128906 15.96875 0.390625 L 15.289062 1.496094 C 15.132812 1.753906 15.214844 2.089844 15.476562 2.246094 Z M 15.476562 2.246094 Z M 15.476562 2.246094 "/>
<path style=" stroke:none;fill-rule:nonzero;fill:rgb(92.941176%,41.176471%,36.078431%);fill-opacity:1;" d="M 19.761719 6.785156 C 19.96875 7.351562 20.160156 7.929688 20.324219 8.511719 C 20.390625 8.746094 20.429688 8.988281 20.652344 9.121094 C 20.851562 9.238281 21.109375 9.21875 21.289062 9.078125 C 21.457031 8.941406 21.523438 8.722656 21.46875 8.511719 C 21.398438 8.230469 21.3125 7.953125 21.222656 7.671875 C 21.132812 7.382812 21.039062 7.09375 20.9375 6.808594 C 20.886719 6.667969 20.84375 6.523438 20.78125 6.386719 C 20.742188 6.289062 20.675781 6.210938 20.585938 6.152344 C 20.394531 6.023438 20.128906 6.027344 19.941406 6.171875 C 19.75 6.316406 19.675781 6.570312 19.753906 6.792969 Z M 19.761719 6.785156 Z M 19.761719 6.785156 "/>
<path style=" stroke:none;fill-rule:nonzero;fill:rgb(92.941176%,41.176471%,36.078431%);fill-opacity:1;" d="M 11.332031 11.074219 C 11.332031 11.378906 11.085938 11.621094 10.777344 11.621094 C 10.472656 11.621094 10.226562 11.378906 10.226562 11.074219 C 10.226562 10.773438 10.472656 10.527344 10.777344 10.527344 C 11.085938 10.527344 11.332031 10.773438 11.332031 11.074219 Z M 11.332031 11.074219 Z M 11.332031 11.074219 "/>
<path style=" stroke:none;fill-rule:nonzero;fill:rgb(92.941176%,41.176471%,36.078431%);fill-opacity:1;" d="M 19.996094 4.589844 C 19.996094 4.894531 19.75 5.136719 19.445312 5.136719 C 19.136719 5.136719 18.890625 4.894531 18.890625 4.589844 C 18.890625 4.285156 19.136719 4.042969 19.445312 4.042969 C 19.75 4.042969 19.996094 4.285156 19.996094 4.589844 Z M 19.996094 4.589844 Z M 19.996094 4.589844 "/>
</g>
</svg>
