<?xml version="1.0" encoding="UTF-8"?>
<svg xmlns="http://www.w3.org/2000/svg" xmlns:xlink="http://www.w3.org/1999/xlink" width="28px" height="28px" viewBox="0 0 28 28" version="1.1">
<g id="surface1">
<path style=" stroke:none;fill-rule:nonzero;fill:rgb(92.941176%,41.176471%,36.078431%);fill-opacity:1;" d="M 11.90625 9.890625 L 10.992188 8.71875 C 10.800781 8.480469 10.699219 8.179688 10.699219 7.878906 L 10.699219 3.304688 C 10.839844 3.203125 10.933594 3.035156 10.933594 2.851562 L 10.933594 1.789062 C 10.933594 1.601562 10.847656 1.4375 10.699219 1.335938 L 10.699219 0.792969 C 10.699219 0.351562 10.34375 0 9.910156 0 L 7.863281 0 C 7.421875 0 7.070312 0.359375 7.070312 0.792969 L 7.070312 1.335938 C 6.929688 1.4375 6.835938 1.601562 6.835938 1.789062 L 6.835938 2.851562 C 6.835938 3.035156 6.921875 3.203125 7.070312 3.304688 L 7.070312 7.878906 C 7.070312 8.179688 6.96875 8.480469 6.78125 8.71875 L 5.867188 9.890625 C 5.238281 10.691406 4.890625 11.699219 4.890625 12.71875 L 4.890625 17.351562 C 4.890625 17.582031 5.078125 17.757812 5.304688 17.757812 C 5.53125 17.757812 5.714844 17.574219 5.714844 17.351562 L 5.714844 12.71875 C 5.714844 11.878906 5.996094 11.050781 6.515625 10.390625 L 7.429688 9.21875 C 7.734375 8.839844 7.890625 8.359375 7.890625 7.871094 L 7.890625 3.417969 L 9.878906 3.417969 L 9.878906 7.871094 C 9.878906 8.359375 10.046875 8.832031 10.34375 9.21875 L 11.257812 10.390625 C 11.777344 11.050781 12.058594 11.878906 12.058594 12.71875 L 12.058594 14.433594 L 8.667969 14.433594 C 8.0625 14.433594 7.574219 14.921875 7.574219 15.527344 L 7.574219 20.351562 C 7.574219 20.957031 8.0625 21.445312 8.667969 21.445312 L 12.058594 21.445312 L 12.058594 26.953125 C 12.058594 27.152344 11.890625 27.316406 11.691406 27.316406 L 6.089844 27.316406 C 5.886719 27.316406 5.71875 27.152344 5.71875 26.953125 L 5.71875 19.269531 C 5.71875 19.039062 5.53125 18.859375 5.308594 18.859375 C 5.078125 18.859375 4.898438 19.046875 4.898438 19.269531 L 4.898438 26.953125 C 4.898438 27.613281 5.4375 28.144531 6.09375 28.144531 L 11.699219 28.144531 C 12.359375 28.144531 12.894531 27.613281 12.894531 26.953125 L 12.894531 12.710938 C 12.894531 11.691406 12.546875 10.6875 11.917969 9.882812 Z M 7.890625 0.828125 L 9.878906 0.828125 L 9.878906 1.222656 L 7.890625 1.222656 Z M 10.101562 2.59375 L 7.660156 2.59375 L 7.660156 2.046875 L 10.101562 2.046875 Z M 12.050781 20.625 L 8.660156 20.625 C 8.511719 20.625 8.394531 20.503906 8.394531 20.359375 L 8.394531 15.535156 C 8.394531 15.382812 8.519531 15.265625 8.660156 15.265625 L 12.050781 15.265625 L 12.050781 20.632812 Z M 12.050781 20.625 "/>
<path style=" stroke:none;fill-rule:nonzero;fill:rgb(92.941176%,41.176471%,36.078431%);fill-opacity:1;" d="M 23.152344 16.375 C 23.152344 16.292969 23.152344 16.214844 23.144531 16.136719 C 23.144531 16.121094 23.144531 16.109375 23.144531 16.09375 C 23.140625 16 23.140625 15.90625 23.125 15.8125 C 22.972656 13.972656 22.257812 12.203125 22.214844 12.09375 C 22.148438 11.933594 22 11.835938 21.835938 11.835938 L 15.9375 11.835938 C 15.769531 11.835938 15.617188 11.933594 15.554688 12.09375 C 15.511719 12.195312 14.796875 13.972656 14.644531 15.8125 C 14.636719 15.90625 14.628906 16 14.625 16.09375 C 14.625 16.109375 14.625 16.121094 14.625 16.136719 C 14.625 16.214844 14.617188 16.292969 14.617188 16.378906 C 14.617188 16.394531 14.617188 16.410156 14.617188 16.425781 C 14.617188 16.511719 14.617188 16.589844 14.617188 16.675781 C 14.617188 16.6875 14.617188 16.695312 14.617188 16.710938 C 14.617188 16.789062 14.625 16.863281 14.628906 16.941406 C 14.628906 16.957031 14.628906 16.964844 14.628906 16.976562 C 14.636719 17.050781 14.644531 17.128906 14.652344 17.199219 C 14.652344 17.207031 14.652344 17.21875 14.652344 17.226562 C 14.660156 17.300781 14.675781 17.378906 14.6875 17.453125 C 14.6875 17.460938 14.6875 17.464844 14.6875 17.472656 C 14.703125 17.542969 14.71875 17.625 14.734375 17.695312 C 14.734375 17.695312 14.734375 17.703125 14.734375 17.703125 C 14.746094 17.773438 14.769531 17.855469 14.792969 17.925781 C 15.382812 19.90625 17.109375 20.75 18.09375 21.078125 C 18.183594 21.105469 18.277344 21.136719 18.378906 21.15625 C 18.402344 21.164062 18.429688 21.164062 18.453125 21.171875 L 18.453125 26.011719 C 18.378906 26.011719 18.308594 26.035156 18.242188 26.070312 L 16.195312 27.265625 C 16.007812 27.375 15.921875 27.597656 15.972656 27.808594 C 16.03125 28.015625 16.21875 28.15625 16.433594 28.15625 L 21.285156 28.15625 C 21.5 28.15625 21.6875 28.015625 21.746094 27.808594 C 21.804688 27.597656 21.710938 27.375 21.523438 27.265625 L 19.476562 26.070312 C 19.410156 26.035156 19.339844 26.011719 19.269531 26.011719 L 19.269531 21.171875 C 19.390625 21.148438 19.511719 21.121094 19.625 21.082031 C 20.082031 20.933594 20.6875 20.675781 21.273438 20.246094 C 21.957031 19.742188 22.613281 19.003906 22.929688 17.933594 C 22.949219 17.859375 22.972656 17.789062 22.988281 17.707031 C 22.988281 17.707031 22.988281 17.703125 22.988281 17.703125 C 23 17.628906 23.015625 17.550781 23.03125 17.480469 C 23.03125 17.472656 23.03125 17.464844 23.03125 17.460938 C 23.046875 17.386719 23.050781 17.3125 23.066406 17.234375 C 23.066406 17.226562 23.066406 17.214844 23.074219 17.207031 C 23.082031 17.136719 23.089844 17.0625 23.097656 16.984375 C 23.097656 16.972656 23.097656 16.964844 23.097656 16.949219 C 23.101562 16.871094 23.101562 16.796875 23.109375 16.71875 C 23.109375 16.703125 23.109375 16.695312 23.109375 16.683594 C 23.109375 16.597656 23.109375 16.519531 23.109375 16.433594 C 23.109375 16.417969 23.109375 16.402344 23.109375 16.386719 Z M 20.039062 27.324219 L 17.730469 27.324219 L 18.464844 26.894531 L 19.296875 26.894531 Z M 22.207031 17.53125 C 22.191406 17.582031 22.179688 17.628906 22.164062 17.6875 C 21.683594 19.3125 20.21875 20.015625 19.398438 20.296875 C 19.359375 20.304688 19.332031 20.316406 19.296875 20.324219 L 18.464844 20.324219 C 18.429688 20.316406 18.402344 20.308594 18.363281 20.296875 C 17.535156 20.023438 16.082031 19.320312 15.597656 17.6875 C 15.582031 17.636719 15.570312 17.585938 15.554688 17.53125 C 15.46875 17.164062 15.433594 16.738281 15.445312 16.257812 L 16.859375 16.257812 C 17.089844 16.257812 17.269531 16.074219 17.269531 15.847656 C 17.269531 15.621094 17.082031 15.441406 16.859375 15.441406 L 15.519531 15.441406 C 15.675781 14.269531 16.046875 13.15625 16.226562 12.667969 L 21.542969 12.667969 C 21.71875 13.15625 22.09375 14.269531 22.25 15.441406 L 18.792969 15.441406 C 18.5625 15.441406 18.378906 15.628906 18.378906 15.847656 C 18.378906 16.078125 18.566406 16.257812 18.792969 16.257812 L 22.324219 16.257812 C 22.339844 16.738281 22.300781 17.164062 22.214844 17.53125 Z M 22.207031 17.53125 "/>
</g>
</svg>
