<?xml version="1.0" encoding="UTF-8"?>
<svg xmlns="http://www.w3.org/2000/svg" xmlns:xlink="http://www.w3.org/1999/xlink" width="28px" height="28px" viewBox="0 0 28 43" version="1.1">
<g id="surface1">
<path style=" stroke:none;fill-rule:nonzero;fill:rgb(92.941176%,41.176471%,36.078431%);fill-opacity:1;" d="M 10.785156 15.1875 L 9.378906 13.390625 C 9.089844 13.023438 8.933594 12.5625 8.933594 12.097656 L 8.933594 5.074219 C 9.144531 4.917969 9.289062 4.664062 9.289062 4.378906 L 9.289062 2.746094 C 9.289062 2.460938 9.15625 2.207031 8.933594 2.050781 L 8.933594 1.214844 C 8.933594 0.539062 8.382812 0 7.71875 0 L 4.574219 0 C 3.898438 0 3.355469 0.550781 3.355469 1.214844 L 3.355469 2.050781 C 3.144531 2.207031 3 2.460938 3 2.746094 L 3 4.378906 C 3 4.664062 3.132812 4.917969 3.355469 5.074219 L 3.355469 12.097656 C 3.355469 12.5625 3.199219 13.023438 2.914062 13.390625 L 1.507812 15.1875 C 0.542969 16.421875 0.0117188 17.964844 0.0117188 19.53125 L 0.0117188 26.644531 C 0.0117188 27 0.300781 27.273438 0.644531 27.273438 C 0.996094 27.273438 1.273438 26.988281 1.273438 26.644531 L 1.273438 19.53125 C 1.273438 18.242188 1.707031 16.972656 2.503906 15.957031 L 3.910156 14.160156 C 4.375 13.578125 4.617188 12.835938 4.617188 12.085938 L 4.617188 5.25 L 7.671875 5.25 L 7.671875 12.085938 C 7.671875 12.835938 7.929688 13.566406 8.382812 14.160156 L 9.789062 15.957031 C 10.585938 16.972656 11.015625 18.242188 11.015625 19.53125 L 11.015625 22.167969 L 5.8125 22.167969 C 4.882812 22.167969 4.128906 22.917969 4.128906 23.84375 L 4.128906 31.253906 C 4.128906 32.183594 4.882812 32.933594 5.8125 32.933594 L 11.015625 32.933594 L 11.015625 41.390625 C 11.015625 41.699219 10.761719 41.953125 10.453125 41.953125 L 1.851562 41.953125 C 1.539062 41.953125 1.285156 41.699219 1.285156 41.390625 L 1.285156 29.589844 C 1.285156 29.238281 0.996094 28.960938 0.652344 28.960938 C 0.300781 28.960938 0.0234375 29.25 0.0234375 29.589844 L 0.0234375 41.390625 C 0.0234375 42.40625 0.851562 43.222656 1.859375 43.222656 L 10.464844 43.222656 C 11.480469 43.222656 12.300781 42.40625 12.300781 41.390625 L 12.300781 19.519531 C 12.300781 17.953125 11.769531 16.410156 10.804688 15.175781 Z M 4.617188 1.269531 L 7.671875 1.269531 L 7.671875 1.875 L 4.617188 1.875 Z M 8.015625 3.980469 L 4.261719 3.980469 L 4.261719 3.144531 L 8.015625 3.144531 Z M 11.003906 31.675781 L 5.800781 31.675781 C 5.570312 31.675781 5.390625 31.488281 5.390625 31.265625 L 5.390625 23.855469 C 5.390625 23.625 5.582031 23.445312 5.800781 23.445312 L 11.003906 23.445312 L 11.003906 31.683594 Z M 11.003906 31.675781 "/>
<path style=" stroke:none;fill-rule:nonzero;fill:rgb(92.941176%,41.176471%,36.078431%);fill-opacity:1;" d="M 28.054688 25.144531 C 28.054688 25.023438 28.054688 24.902344 28.042969 24.78125 C 28.042969 24.757812 28.042969 24.738281 28.042969 24.714844 C 28.035156 24.570312 28.035156 24.429688 28.011719 24.285156 C 27.777344 21.460938 26.683594 18.738281 26.617188 18.574219 C 26.515625 18.328125 26.285156 18.175781 26.03125 18.175781 L 16.972656 18.175781 C 16.71875 18.175781 16.484375 18.328125 16.386719 18.574219 C 16.320312 18.726562 15.222656 21.460938 14.992188 24.285156 C 14.980469 24.429688 14.96875 24.570312 14.957031 24.714844 C 14.957031 24.738281 14.957031 24.757812 14.957031 24.78125 C 14.957031 24.902344 14.945312 25.023438 14.945312 25.15625 C 14.945312 25.179688 14.945312 25.199219 14.945312 25.222656 C 14.945312 25.355469 14.945312 25.476562 14.945312 25.609375 C 14.945312 25.628906 14.945312 25.640625 14.945312 25.664062 C 14.945312 25.785156 14.957031 25.894531 14.96875 26.015625 C 14.96875 26.039062 14.96875 26.050781 14.96875 26.070312 C 14.980469 26.183594 14.992188 26.304688 15.003906 26.414062 C 15.003906 26.425781 15.003906 26.445312 15.003906 26.457031 C 15.011719 26.566406 15.035156 26.691406 15.058594 26.800781 C 15.058594 26.8125 15.058594 26.820312 15.058594 26.832031 C 15.078125 26.941406 15.101562 27.066406 15.125 27.175781 C 15.125 27.175781 15.125 27.1875 15.125 27.1875 C 15.144531 27.296875 15.179688 27.417969 15.214844 27.527344 C 16.121094 30.570312 18.777344 31.863281 20.285156 32.371094 C 20.425781 32.414062 20.570312 32.457031 20.726562 32.492188 C 20.757812 32.5 20.804688 32.5 20.835938 32.511719 L 20.835938 39.945312 C 20.726562 39.945312 20.617188 39.980469 20.515625 40.035156 L 17.371094 41.875 C 17.082031 42.042969 16.949219 42.382812 17.027344 42.703125 C 17.117188 43.023438 17.40625 43.242188 17.738281 43.242188 L 25.1875 43.242188 C 25.519531 43.242188 25.808594 43.023438 25.898438 42.703125 C 25.984375 42.382812 25.839844 42.042969 25.554688 41.875 L 22.410156 40.035156 C 22.308594 39.980469 22.199219 39.945312 22.089844 39.945312 L 22.089844 32.511719 C 22.277344 32.480469 22.464844 32.433594 22.640625 32.378906 C 23.339844 32.148438 24.269531 31.75 25.167969 31.089844 C 26.21875 30.316406 27.226562 29.183594 27.710938 27.539062 C 27.746094 27.429688 27.777344 27.316406 27.800781 27.195312 C 27.800781 27.195312 27.800781 27.1875 27.800781 27.1875 C 27.824219 27.074219 27.84375 26.953125 27.867188 26.84375 C 27.867188 26.832031 27.867188 26.820312 27.867188 26.8125 C 27.890625 26.699219 27.902344 26.589844 27.921875 26.46875 C 27.921875 26.457031 27.921875 26.4375 27.933594 26.425781 C 27.945312 26.316406 27.957031 26.203125 27.96875 26.082031 C 27.96875 26.0625 27.96875 26.050781 27.96875 26.027344 C 27.976562 25.90625 27.976562 25.796875 27.988281 25.675781 C 27.988281 25.652344 27.988281 25.640625 27.988281 25.621094 C 27.988281 25.488281 27.988281 25.367188 27.988281 25.234375 C 27.988281 25.210938 27.988281 25.191406 27.988281 25.167969 Z M 23.273438 41.964844 L 19.730469 41.964844 L 20.859375 41.300781 L 22.132812 41.300781 Z M 26.605469 26.921875 C 26.582031 27 26.5625 27.074219 26.539062 27.164062 C 25.796875 29.65625 23.550781 30.738281 22.289062 31.167969 C 22.230469 31.179688 22.1875 31.199219 22.132812 31.210938 L 20.859375 31.210938 C 20.804688 31.199219 20.757812 31.1875 20.703125 31.167969 C 19.429688 30.75 17.195312 29.667969 16.453125 27.164062 C 16.429688 27.085938 16.410156 27.007812 16.386719 26.921875 C 16.253906 26.359375 16.199219 25.707031 16.21875 24.96875 L 18.390625 24.96875 C 18.746094 24.96875 19.019531 24.683594 19.019531 24.339844 C 19.019531 23.988281 18.734375 23.710938 18.390625 23.710938 L 16.332031 23.710938 C 16.574219 21.914062 17.140625 20.203125 17.417969 19.453125 L 25.585938 19.453125 C 25.851562 20.203125 26.429688 21.914062 26.671875 23.710938 L 21.359375 23.710938 C 21.003906 23.710938 20.726562 24 20.726562 24.339844 C 20.726562 24.691406 21.015625 24.96875 21.359375 24.96875 L 26.78125 24.96875 C 26.804688 25.707031 26.75 26.359375 26.617188 26.921875 Z M 26.605469 26.921875 "/>
</g>
</svg>
