<?xml version="1.0" encoding="UTF-8"?>
<svg xmlns="http://www.w3.org/2000/svg" xmlns:xlink="http://www.w3.org/1999/xlink" width="28px" height="28px" viewBox="0 0 28 30" version="1.1">
<g id="surface1">
<path style=" stroke:none;fill-rule:nonzero;fill:rgb(92.941176%,41.176471%,36.078431%);fill-opacity:1;" d="M 27.265625 24.957031 L 22.976562 24.957031 C 22.730469 24.957031 22.53125 25.148438 22.53125 25.390625 C 22.53125 25.632812 22.730469 25.828125 22.976562 25.828125 L 26.824219 25.828125 L 26.824219 26.074219 L 20.347656 27.28125 L 7.371094 27.28125 L 0.894531 26.074219 L 0.894531 25.828125 L 21.304688 25.828125 C 21.550781 25.828125 21.746094 25.632812 21.746094 25.390625 C 21.746094 25.148438 21.550781 24.957031 21.304688 24.957031 L 18.4375 24.957031 C 18.96875 24.628906 19.46875 24.238281 19.914062 23.796875 C 20.554688 23.167969 21.085938 22.449219 21.488281 21.679688 C 22.046875 21.90625 22.648438 22.019531 23.261719 22.019531 C 25.867188 22.019531 27.984375 19.9375 27.984375 17.382812 C 27.984375 14.824219 25.863281 12.746094 23.261719 12.746094 C 22.984375 12.746094 22.703125 12.773438 22.421875 12.820312 L 22.421875 12.570312 C 22.421875 12.015625 21.960938 11.558594 21.394531 11.558594 L 19.292969 11.558594 C 19.046875 11.558594 18.847656 11.753906 18.847656 11.996094 C 18.847656 12.238281 19.046875 12.429688 19.292969 12.429688 L 21.394531 12.429688 C 21.46875 12.429688 21.535156 12.492188 21.535156 12.570312 L 21.535156 13.316406 L 6.148438 13.316406 L 6.148438 12.570312 C 6.148438 12.492188 6.210938 12.429688 6.292969 12.429688 L 17.640625 12.429688 C 17.886719 12.429688 18.082031 12.238281 18.082031 11.996094 C 18.082031 11.753906 17.886719 11.558594 17.640625 11.558594 L 6.292969 11.558594 C 5.726562 11.558594 5.261719 12.015625 5.261719 12.570312 L 5.261719 17.84375 C 5.261719 18.503906 5.339844 19.160156 5.496094 19.789062 C 4.773438 19.574219 3.910156 19.742188 3.121094 20.269531 C 2.914062 20.40625 2.867188 20.679688 3.003906 20.882812 C 3.140625 21.082031 3.421875 21.128906 3.625 20.996094 C 4.144531 20.648438 4.683594 20.511719 5.132812 20.601562 L 3.515625 22.980469 C 3.378906 23.179688 3.433594 23.449219 3.640625 23.582031 C 3.714844 23.628906 3.804688 23.65625 3.882812 23.65625 C 4.027344 23.65625 4.171875 23.589844 4.253906 23.460938 L 5.871094 21.082031 C 6.039062 21.332031 6.128906 21.644531 6.136719 22.019531 C 6.144531 22.597656 5.9375 23.21875 5.554688 23.777344 C 5.339844 24.089844 5.085938 24.367188 4.800781 24.585938 C 4.601562 24.742188 4.390625 24.863281 4.171875 24.957031 L 2.765625 24.957031 C 2.753906 24.949219 2.730469 24.933594 2.71875 24.929688 C 1.972656 24.445312 1.933594 23.1875 2.609375 22.066406 C 2.738281 21.859375 2.664062 21.589844 2.457031 21.472656 C 2.246094 21.351562 1.972656 21.417969 1.851562 21.617188 C 1.414062 22.328125 1.203125 23.125 1.257812 23.855469 C 1.285156 24.273438 1.394531 24.640625 1.578125 24.957031 L 0.445312 24.957031 C 0.199219 24.957031 0.00390625 25.148438 0.00390625 25.390625 L 0.00390625 26.4375 C 0.00390625 26.644531 0.152344 26.824219 0.363281 26.867188 L 6.902344 28.085938 L 6.902344 29.378906 C 6.902344 29.621094 7.097656 29.8125 7.34375 29.8125 L 20.363281 29.8125 C 20.609375 29.8125 20.804688 29.621094 20.804688 29.378906 L 20.804688 28.085938 L 27.347656 26.867188 C 27.5625 26.824219 27.710938 26.644531 27.710938 26.4375 L 27.710938 25.390625 C 27.710938 25.148438 27.511719 24.957031 27.265625 24.957031 Z M 22.4375 17.839844 L 22.4375 15.773438 C 22.695312 15.648438 22.984375 15.574219 23.277344 15.574219 C 24.292969 15.574219 25.113281 16.382812 25.113281 17.382812 C 25.113281 18.382812 24.285156 19.1875 23.277344 19.1875 C 22.957031 19.1875 22.640625 19.105469 22.367188 18.953125 C 22.417969 18.589844 22.445312 18.214844 22.445312 17.84375 Z M 22.191406 19.84375 C 22.53125 19.984375 22.894531 20.0625 23.269531 20.0625 C 24.769531 20.0625 26 18.863281 26 17.382812 C 26 15.910156 24.777344 14.703125 23.269531 14.703125 C 22.984375 14.703125 22.703125 14.75 22.429688 14.828125 L 22.429688 13.75 C 22.429688 13.75 22.429688 13.75 22.429688 13.746094 C 22.429688 13.746094 22.429688 13.746094 22.429688 13.738281 L 22.429688 13.703125 C 22.703125 13.644531 22.984375 13.609375 23.269531 13.609375 C 25.382812 13.609375 27.105469 15.300781 27.105469 17.375 C 27.105469 19.453125 25.382812 21.144531 23.269531 21.144531 C 22.777344 21.144531 22.308594 21.054688 21.855469 20.882812 C 21.992188 20.539062 22.101562 20.199219 22.191406 19.84375 Z M 6.15625 14.179688 L 21.542969 14.179688 L 21.542969 17.839844 C 21.542969 19.855469 20.746094 21.753906 19.292969 23.179688 C 18.484375 23.96875 17.503906 24.582031 16.4375 24.957031 L 11.265625 24.957031 C 11.125 24.910156 10.980469 24.847656 10.835938 24.792969 C 11.164062 24.292969 11.289062 23.730469 11.179688 23.191406 C 11.035156 22.496094 10.539062 21.925781 9.773438 21.585938 C 9.054688 21.261719 8.175781 21.183594 7.304688 21.351562 C 7.222656 21.363281 7.144531 21.382812 7.0625 21.402344 C 6.46875 20.3125 6.15625 19.09375 6.15625 17.84375 Z M 6.300781 24.265625 C 6.710938 23.664062 6.960938 22.980469 7.015625 22.320312 C 7.167969 22.273438 7.316406 22.226562 7.472656 22.203125 C 8.605469 21.980469 9.699219 22.316406 10.132812 22.953125 L 7.277344 23.507812 C 7.035156 23.554688 6.878906 23.78125 6.929688 24.023438 C 6.96875 24.230469 7.152344 24.371094 7.363281 24.371094 C 7.390625 24.371094 7.425781 24.371094 7.453125 24.367188 L 10.3125 23.808594 C 10.257812 24.097656 10.09375 24.386719 9.828125 24.648438 C 9.71875 24.753906 9.59375 24.863281 9.460938 24.957031 L 5.71875 24.957031 C 5.929688 24.746094 6.128906 24.519531 6.300781 24.265625 Z M 19.914062 28.941406 L 7.789062 28.941406 L 7.789062 28.160156 L 19.914062 28.160156 Z M 19.914062 28.941406 "/>
<path style=" stroke:none;fill-rule:nonzero;fill:rgb(92.941176%,41.176471%,36.078431%);fill-opacity:1;" d="M 15.011719 8.730469 C 15.007812 8.738281 15 8.738281 14.992188 8.746094 C 15 8.746094 15.007812 8.738281 15.011719 8.730469 Z M 15.011719 8.730469 "/>
<path style=" stroke:none;fill-rule:nonzero;fill:rgb(92.941176%,41.176471%,36.078431%);fill-opacity:1;" d="M 14.992188 8.746094 C 14.980469 8.75 14.980469 8.75 14.992188 8.746094 Z M 14.992188 8.746094 "/>
<path style=" stroke:none;fill-rule:nonzero;fill:rgb(92.941176%,41.176471%,36.078431%);fill-opacity:1;" d="M 15.976562 4.769531 C 16.574219 4.214844 16.917969 3.4375 16.917969 2.605469 C 16.917969 1.574219 16.382812 0.625 15.492188 0.0742188 C 15.285156 -0.0546875 15.007812 0.0078125 14.875 0.207031 C 14.746094 0.410156 14.808594 0.683594 15.011719 0.8125 C 15.648438 1.199219 16.023438 1.875 16.023438 2.605469 C 16.023438 3.335938 15.648438 4.015625 15.011719 4.402344 C 14.742188 4.570312 14.742188 4.972656 15.011719 5.140625 C 15.648438 5.527344 16.023438 6.207031 16.023438 6.9375 C 16.023438 7.667969 15.648438 8.34375 15.011719 8.730469 C 15.011719 8.730469 15.007812 8.730469 15.007812 8.738281 C 15.007812 8.738281 15.011719 8.738281 15.011719 8.730469 C 14.808594 8.859375 14.742188 9.128906 14.875 9.335938 C 14.957031 9.46875 15.109375 9.535156 15.253906 9.535156 C 15.332031 9.535156 15.414062 9.515625 15.492188 9.46875 C 16.382812 8.917969 16.917969 7.96875 16.917969 6.9375 C 16.917969 6.105469 16.570312 5.328125 15.976562 4.769531 Z M 15.253906 8.589844 C 15.265625 8.585938 15.265625 8.585938 15.253906 8.589844 Z M 15.199219 8.625 C 15.203125 8.617188 15.21875 8.609375 15.226562 8.609375 C 15.21875 8.617188 15.210938 8.617188 15.199219 8.625 Z M 15.199219 8.625 "/>
<path style=" stroke:none;fill-rule:nonzero;fill:rgb(92.941176%,41.176471%,36.078431%);fill-opacity:1;" d="M 18.621094 4.394531 C 18.417969 4.269531 18.136719 4.328125 18.007812 4.53125 C 17.878906 4.730469 17.941406 5.007812 18.144531 5.132812 C 18.78125 5.523438 19.15625 6.199219 19.15625 6.929688 C 19.15625 7.660156 18.78125 8.335938 18.144531 8.726562 C 17.941406 8.851562 17.871094 9.121094 18.007812 9.328125 C 18.089844 9.460938 18.242188 9.527344 18.382812 9.527344 C 18.464844 9.527344 18.546875 9.507812 18.621094 9.460938 C 19.515625 8.914062 20.046875 7.960938 20.046875 6.929688 C 20.046875 5.898438 19.515625 4.945312 18.621094 4.394531 Z M 18.621094 4.394531 "/>
<path style=" stroke:none;fill-rule:nonzero;fill:rgb(92.941176%,41.176471%,36.078431%);fill-opacity:1;" d="M 12.105469 4.394531 C 11.902344 4.269531 11.621094 4.328125 11.492188 4.53125 C 11.363281 4.730469 11.425781 5.007812 11.628906 5.132812 C 12.261719 5.523438 12.640625 6.199219 12.640625 6.929688 C 12.640625 7.660156 12.261719 8.335938 11.628906 8.726562 C 11.425781 8.851562 11.355469 9.121094 11.492188 9.328125 C 11.574219 9.460938 11.722656 9.527344 11.867188 9.527344 C 11.949219 9.527344 12.03125 9.507812 12.105469 9.460938 C 13 8.914062 13.53125 7.960938 13.53125 6.929688 C 13.53125 5.898438 13 4.945312 12.105469 4.394531 Z M 12.105469 4.394531 "/>
</g>
</svg>
