<?xml version="1.0" encoding="UTF-8"?>
<svg xmlns="http://www.w3.org/2000/svg" xmlns:xlink="http://www.w3.org/1999/xlink" width="28px" height="28px" viewBox="0 0 28 28" version="1.1">
<g id="surface1">
<path style=" stroke:none;fill-rule:nonzero;fill:rgb(92.941176%,41.176471%,36.078431%);fill-opacity:1;" d="M 15.777344 17.636719 C 15.777344 20.199219 17.855469 22.277344 20.417969 22.277344 C 22.980469 22.277344 25.058594 20.199219 25.058594 17.636719 C 25.058594 15.074219 22.980469 12.996094 20.417969 12.996094 C 17.855469 13 15.78125 15.074219 15.777344 17.636719 Z M 20.417969 13.921875 C 22.464844 13.921875 24.128906 15.585938 24.128906 17.636719 C 24.128906 19.6875 22.464844 21.351562 20.417969 21.351562 C 18.367188 21.351562 16.703125 19.6875 16.703125 17.636719 C 16.703125 15.585938 18.367188 13.929688 20.417969 13.921875 Z M 20.417969 13.921875 Z M 20.417969 13.921875 "/>
<path style=" stroke:none;fill-rule:nonzero;fill:rgb(92.941176%,41.176471%,36.078431%);fill-opacity:1;" d="M 17.765625 26.914062 L 23.070312 26.914062 L 23.070312 27.839844 L 17.765625 27.839844 Z M 17.765625 26.914062 Z M 17.765625 26.914062 "/>
<path style=" stroke:none;fill-rule:nonzero;fill:rgb(92.941176%,41.176471%,36.078431%);fill-opacity:1;" d="M 15.777344 25.058594 L 25.058594 25.058594 L 25.058594 25.984375 L 15.777344 25.984375 Z M 15.777344 25.058594 Z M 15.777344 25.058594 "/>
<path style=" stroke:none;fill-rule:nonzero;fill:rgb(92.941176%,41.176471%,36.078431%);fill-opacity:1;" d="M 5.566406 25.058594 L 6.496094 25.058594 L 6.496094 25.984375 L 5.566406 25.984375 Z M 5.566406 25.058594 Z M 5.566406 25.058594 "/>
<path style=" stroke:none;fill-rule:nonzero;fill:rgb(92.941176%,41.176471%,36.078431%);fill-opacity:1;" d="M 2.785156 25.984375 L 3.714844 25.984375 L 3.714844 26.914062 L 2.785156 26.914062 Z M 2.785156 25.984375 Z M 2.785156 25.984375 "/>
<path style=" stroke:none;fill-rule:nonzero;fill:rgb(92.941176%,41.176471%,36.078431%);fill-opacity:1;" d="M 5.613281 22.445312 C 8.035156 18.222656 9.554688 13.546875 10.074219 8.710938 L 14.390625 13 C 14.476562 13.085938 14.59375 13.136719 14.714844 13.136719 C 14.738281 13.136719 14.765625 13.136719 14.789062 13.128906 C 14.933594 13.105469 15.0625 13.011719 15.128906 12.878906 C 16.003906 11.128906 15.660156 9.023438 14.28125 7.644531 L 13.898438 7.265625 L 17.160156 7.265625 C 17.417969 7.265625 17.625 7.058594 17.625 6.800781 C 17.625 6.753906 17.617188 6.703125 17.601562 6.65625 C 16.988281 4.804688 15.25 3.550781 13.296875 3.558594 L 12.695312 3.558594 L 15.011719 1.230469 C 15.191406 1.042969 15.191406 0.753906 15.011719 0.570312 C 14.976562 0.535156 14.933594 0.507812 14.894531 0.488281 C 13.144531 -0.390625 11.035156 -0.0429688 9.65625 1.335938 L 9.214844 1.777344 C 9.070312 1.921875 8.933594 2.078125 8.8125 2.238281 C 8.691406 2.078125 8.554688 1.921875 8.414062 1.777344 L 7.976562 1.335938 C 6.59375 -0.0429688 4.484375 -0.390625 2.742188 0.488281 C 2.511719 0.605469 2.417969 0.878906 2.535156 1.105469 C 2.558594 1.152344 2.585938 1.191406 2.617188 1.230469 L 4.9375 3.558594 L 4.328125 3.558594 C 2.375 3.558594 0.640625 4.804688 0.0234375 6.65625 C -0.0625 6.902344 0.0742188 7.164062 0.3125 7.242188 C 0.355469 7.261719 0.40625 7.265625 0.457031 7.265625 L 3.71875 7.265625 L 3.339844 7.644531 C 1.953125 9.023438 1.613281 11.136719 2.492188 12.878906 C 2.558594 13.011719 2.6875 13.105469 2.832031 13.128906 C 2.855469 13.136719 2.882812 13.136719 2.910156 13.136719 C 3.03125 13.136719 3.148438 13.085938 3.238281 13 L 7.261719 9.007812 C 6.761719 13.453125 5.085938 17.6875 2.40625 21.273438 C 1.78125 21.109375 1.152344 20.980469 0.515625 20.886719 L 0.222656 20.859375 L 0.128906 21.78125 L 0.398438 21.808594 C 0.859375 21.875 1.324219 21.96875 1.78125 22.074219 C 1.6875 22.195312 1.597656 22.3125 1.503906 22.429688 L 2.210938 23.027344 C 5.773438 18.785156 7.902344 13.519531 8.28125 7.996094 L 8.816406 7.46875 L 9.21875 7.863281 C 8.734375 13.773438 6.703125 19.453125 3.332031 24.335938 L 4.09375 24.867188 C 4.457031 24.347656 4.808594 23.808594 5.144531 23.253906 C 7.316406 24.292969 9.230469 25.796875 10.753906 27.65625 L 11.476562 27.070312 C 10.570312 25.96875 9.539062 24.984375 8.394531 24.140625 L 27.839844 24.140625 L 27.839844 23.214844 L 7.019531 23.214844 C 6.566406 22.941406 6.097656 22.691406 5.617188 22.460938 Z M 14.546875 11.84375 L 9.644531 6.96875 C 10.902344 6.597656 12.257812 6.9375 13.183594 7.859375 L 13.625 8.300781 C 14.554688 9.226562 14.90625 10.582031 14.542969 11.84375 Z M 16.457031 6.339844 L 12.617188 6.339844 C 11.722656 5.914062 10.710938 5.792969 9.738281 6 C 10.414062 5.050781 11.507812 4.484375 12.671875 4.484375 L 13.296875 4.484375 C 14.609375 4.484375 15.816406 5.195312 16.453125 6.339844 Z M 9.867188 2.429688 L 10.308594 1.988281 C 11.234375 1.0625 12.59375 0.710938 13.855469 1.074219 L 11.101562 3.835938 C 10.207031 4.167969 9.445312 4.769531 8.914062 5.558594 C 8.695312 4.421875 9.050781 3.25 9.867188 2.429688 Z M 7.308594 1.988281 L 7.75 2.429688 C 7.957031 2.640625 8.136719 2.875 8.289062 3.132812 C 8.074219 3.625 7.957031 4.144531 7.929688 4.675781 C 7.511719 4.3125 7.035156 4.027344 6.515625 3.835938 L 3.765625 1.074219 C 5.027344 0.710938 6.382812 1.0625 7.308594 1.988281 Z M 4.324219 4.484375 L 4.949219 4.484375 C 6.113281 4.484375 7.210938 5.050781 7.886719 6 C 6.914062 5.796875 5.910156 5.914062 5.015625 6.34375 L 1.171875 6.34375 C 1.808594 5.199219 3.015625 4.484375 4.328125 4.492188 Z M 3.082031 11.851562 C 2.71875 10.589844 3.070312 9.230469 4 8.304688 L 4.441406 7.863281 C 5.109375 7.199219 6.015625 6.824219 6.957031 6.832031 C 7.304688 6.832031 7.652344 6.878906 7.984375 6.976562 Z M 3.082031 11.851562 Z M 3.082031 11.851562 "/>
</g>
</svg>
