<?xml version="1.0" encoding="UTF-8"?>
<svg xmlns="http://www.w3.org/2000/svg" xmlns:xlink="http://www.w3.org/1999/xlink" width="28px" height="28px" viewBox="0 0 28 28" version="1.1">
<g id="surface1">
<path style=" stroke:none;fill-rule:nonzero;fill:rgb(92.941176%,41.176471%,36.078431%);fill-opacity:1;" d="M 25.367188 5.207031 C 25.226562 5.027344 24.960938 4.996094 24.777344 5.132812 C 24.597656 5.269531 24.5625 5.523438 24.703125 5.703125 C 25.996094 7.316406 26.734375 9.296875 26.820312 11.324219 L 21.183594 9.855469 C 21.417969 8.40625 21.511719 6.929688 21.460938 5.46875 C 21.429688 4.621094 21.347656 3.773438 21.222656 2.929688 C 22.015625 3.3125 22.757812 3.796875 23.417969 4.367188 C 23.589844 4.519531 23.859375 4.5 24.007812 4.332031 C 24.164062 4.164062 24.144531 3.902344 23.972656 3.757812 C 22.875 2.8125 21.59375 2.101562 20.207031 1.644531 L 20.613281 0.542969 C 20.691406 0.328125 20.574219 0.0976562 20.359375 0.0234375 C 20.136719 -0.0546875 19.898438 0.0585938 19.824219 0.269531 L 19.402344 1.417969 C 14.648438 0.273438 9.667969 2.371094 7.261719 6.546875 C 7.226562 6.605469 7.199219 6.679688 7.203125 6.777344 L 7.355469 8.902344 C 7.382812 9.308594 7.671875 9.652344 8.078125 9.753906 L 12.222656 10.835938 C 12.621094 10.941406 13.050781 10.785156 13.285156 10.449219 L 13.824219 9.667969 L 13.890625 10.609375 C 13.917969 11.015625 14.210938 11.355469 14.613281 11.460938 L 16.28125 11.894531 L 13.933594 20.40625 L 10.007812 20.394531 C 9.777344 20.394531 9.589844 20.578125 9.589844 20.800781 C 9.589844 21.023438 9.777344 21.210938 10.007812 21.210938 L 18.226562 21.234375 L 18.234375 21.234375 C 18.644531 21.234375 19.042969 21.070312 19.332031 20.789062 L 22.289062 17.855469 C 22.898438 17.25 23.828125 17.03125 24.652344 17.300781 L 25.554688 17.59375 L 19.941406 23.082031 C 19.707031 23.308594 19.382812 23.441406 19.050781 23.441406 L 2.796875 23.441406 C 2.753906 22.820312 2.933594 22.21875 3.390625 21.773438 C 3.769531 21.402344 4.277344 21.203125 4.8125 21.203125 L 4.816406 21.203125 L 8.035156 21.214844 C 8.265625 21.214844 8.453125 21.035156 8.453125 20.8125 C 8.453125 20.585938 8.265625 20.398438 8.035156 20.398438 L 4.816406 20.390625 C 4.050781 20.386719 3.332031 20.675781 2.789062 21.203125 C 2.109375 21.863281 1.949219 22.769531 1.949219 23.691406 C 1.949219 24.007812 2.210938 24.261719 2.535156 24.261719 L 3.542969 24.261719 L 2.675781 26.117188 C 2.535156 26.417969 2.53125 26.742188 2.632812 27.035156 L 0.398438 27.035156 C 0.167969 27.035156 -0.0195312 27.214844 -0.0195312 27.4375 C -0.0195312 27.664062 0.167969 27.84375 0.398438 27.84375 L 26.234375 27.84375 C 26.464844 27.84375 26.652344 27.664062 26.652344 27.4375 C 26.652344 27.214844 26.464844 27.035156 26.234375 27.035156 L 22.292969 27.035156 C 22.394531 26.746094 22.390625 26.417969 22.25 26.117188 L 20.917969 23.273438 L 26.417969 17.894531 C 26.722656 17.601562 26.589844 17.078125 26.1875 16.949219 L 24.902344 16.535156 C 23.769531 16.167969 22.503906 16.464844 21.667969 17.292969 L 18.707031 20.222656 C 18.574219 20.351562 18.390625 20.425781 18.210938 20.425781 L 14.785156 20.417969 L 17.074219 12.117188 L 18.738281 12.550781 C 19.136719 12.65625 19.570312 12.5 19.804688 12.164062 L 20.34375 11.382812 L 20.410156 12.320312 C 20.4375 12.726562 20.730469 13.070312 21.132812 13.175781 L 25.277344 14.253906 C 25.675781 14.359375 26.105469 14.203125 26.339844 13.867188 L 27.566406 12.097656 C 27.605469 12.042969 27.636719 11.972656 27.636719 11.871094 C 27.667969 9.476562 26.851562 7.117188 25.335938 5.214844 Z M 3.84375 27.023438 C 3.785156 27.023438 3.726562 27.011719 3.671875 26.988281 C 3.460938 26.898438 3.367188 26.648438 3.464844 26.445312 L 4.492188 24.253906 L 5.417969 24.253906 L 4.230469 26.78125 C 4.164062 26.929688 4.007812 27.019531 3.84375 27.019531 Z M 12.117188 27.023438 L 5.035156 27.023438 L 6.332031 24.257812 L 12.878906 24.257812 L 12.113281 27.023438 Z M 12.984375 27.023438 L 13.75 24.257812 L 18.640625 24.257812 L 19.9375 27.023438 Z M 21.511719 26.445312 C 21.605469 26.648438 21.511719 26.890625 21.300781 26.988281 C 21.246094 27.011719 21.1875 27.023438 21.128906 27.023438 C 20.964844 27.023438 20.8125 26.929688 20.742188 26.789062 L 19.53125 24.203125 C 19.808594 24.136719 20.066406 24.023438 20.296875 23.859375 L 21.507812 26.449219 Z M 12.597656 9.992188 C 12.5625 10.042969 12.503906 10.0625 12.445312 10.046875 L 8.300781 8.96875 C 8.246094 8.953125 8.203125 8.902344 8.199219 8.84375 L 8.089844 7.289062 L 13.496094 8.699219 L 12.601562 9.992188 Z M 13.90625 7.960938 L 8.273438 6.492188 C 10.304688 3.363281 13.964844 1.636719 17.683594 1.957031 C 17.03125 2.648438 16.429688 3.386719 15.894531 4.167969 C 15.082031 5.347656 14.417969 6.621094 13.90625 7.953125 Z M 19.136719 11.691406 C 19.105469 11.742188 19.042969 11.761719 18.984375 11.746094 L 14.839844 10.667969 C 14.785156 10.652344 14.742188 10.605469 14.738281 10.542969 L 14.628906 8.988281 L 20.035156 10.398438 Z M 20.367188 9.640625 L 14.71875 8.167969 C 15.199219 6.921875 15.828125 5.726562 16.589844 4.617188 C 17.210938 3.71875 17.917969 2.871094 18.695312 2.097656 C 19.242188 2.203125 19.78125 2.347656 20.300781 2.539062 C 20.476562 3.515625 20.578125 4.507812 20.617188 5.492188 C 20.667969 6.875 20.582031 8.265625 20.363281 9.640625 Z M 25.675781 13.398438 C 25.640625 13.449219 25.582031 13.464844 25.519531 13.453125 L 21.375 12.371094 C 21.320312 12.359375 21.277344 12.308594 21.273438 12.25 L 21.164062 10.695312 L 26.570312 12.101562 Z M 25.675781 13.398438 "/>
</g>
</svg>
