<?xml version="1.0" encoding="UTF-8"?>
<svg xmlns="http://www.w3.org/2000/svg" xmlns:xlink="http://www.w3.org/1999/xlink" width="28px" height="28px" viewBox="0 0 28 42" version="1.1">
<g id="surface1">
<path style=" stroke:none;fill-rule:nonzero;fill:rgb(92.941176%,41.176471%,36.078431%);fill-opacity:1;" d="M 26.394531 10.722656 C 25.628906 9.96875 24.605469 9.523438 23.460938 9.523438 L 20.765625 9.523438 L 20.765625 2.550781 C 20.765625 1.878906 20.535156 1.234375 20.117188 0.789062 C 19.703125 0.304688 19.09375 0 18.410156 0 L 9.207031 0 C 8.523438 0 7.914062 0.296875 7.496094 0.789062 C 7.082031 1.234375 6.851562 1.871094 6.851562 2.550781 L 6.851562 9.488281 L 4.15625 9.488281 C 3.011719 9.488281 1.949219 9.933594 1.222656 10.6875 C 0.460938 11.4375 0.0078125 12.449219 0.0078125 13.570312 L 0.0078125 33.921875 C 0.0078125 35.046875 0.460938 36.09375 1.222656 36.804688 C 1.796875 37.367188 2.558594 37.777344 3.429688 37.929688 L 3.429688 38.789062 C 3.429688 39.613281 3.773438 40.363281 4.300781 40.890625 C 4.835938 41.417969 5.59375 41.75 6.433594 41.75 L 6.550781 41.75 C 7.386719 41.75 8.148438 41.410156 8.683594 40.890625 C 9.21875 40.363281 9.558594 39.621094 9.558594 38.789062 L 9.558594 38.003906 L 18.074219 38.003906 L 18.074219 38.789062 C 18.074219 39.613281 18.417969 40.363281 18.945312 40.890625 C 19.480469 41.417969 20.234375 41.75 21.078125 41.75 L 21.195312 41.75 C 21.996094 41.75 22.757812 41.457031 23.285156 40.929688 L 23.320312 40.890625 C 23.855469 40.363281 24.195312 39.621094 24.195312 38.789062 L 24.195312 37.929688 C 25.03125 37.777344 25.792969 37.367188 26.398438 36.804688 C 27.164062 36.050781 27.617188 35.039062 27.617188 33.921875 L 27.617188 13.605469 C 27.617188 12.476562 27.164062 11.429688 26.398438 10.714844 Z M 8.324219 2.550781 C 8.324219 2.246094 8.445312 1.953125 8.625 1.761719 C 8.78125 1.574219 8.972656 1.503906 9.199219 1.503906 L 18.402344 1.503906 C 18.632812 1.503906 18.820312 1.617188 18.976562 1.761719 C 19.167969 1.953125 19.277344 2.246094 19.277344 2.550781 L 19.277344 9.488281 L 17.523438 9.488281 L 17.523438 4.949219 C 17.523438 4.464844 17.40625 4.011719 17.179688 3.679688 C 16.917969 3.230469 16.5 2.960938 16 2.960938 L 11.585938 2.960938 C 11.089844 2.960938 10.671875 3.222656 10.40625 3.679688 C 10.179688 4.015625 10.0625 4.464844 10.0625 4.949219 L 10.0625 9.523438 L 8.3125 9.523438 L 8.3125 2.550781 Z M 11.59375 4.949219 C 11.59375 4.726562 11.632812 4.574219 11.710938 4.421875 L 15.898438 4.421875 C 15.96875 4.539062 16.015625 4.71875 16.015625 4.90625 L 16.015625 9.480469 L 11.601562 9.480469 L 11.601562 4.941406 Z M 8.019531 38.875 C 8.019531 39.289062 7.863281 39.664062 7.5625 39.921875 C 7.300781 40.183594 6.917969 40.371094 6.5 40.371094 L 6.382812 40.371094 C 5.964844 40.371094 5.585938 40.21875 5.320312 39.921875 C 5.058594 39.664062 4.867188 39.289062 4.867188 38.875 L 4.867188 38.089844 L 8.027344 38.089844 L 8.027344 38.875 Z M 22.734375 38.875 C 22.734375 39.289062 22.582031 39.664062 22.28125 39.921875 L 22.246094 39.960938 C 21.980469 40.21875 21.597656 40.371094 21.21875 40.371094 L 21.101562 40.371094 C 20.683594 40.371094 20.300781 40.21875 20.039062 39.921875 C 19.773438 39.664062 19.582031 39.289062 19.582031 38.875 L 19.582031 38.089844 L 22.742188 38.089844 L 22.742188 38.875 Z M 26.160156 33.964844 C 26.160156 34.679688 25.859375 35.351562 25.359375 35.796875 C 24.867188 36.28125 24.214844 36.585938 23.496094 36.585938 L 4.105469 36.585938 C 3.378906 36.585938 2.695312 36.289062 2.242188 35.796875 C 1.746094 35.316406 1.445312 34.671875 1.445312 33.964844 L 1.445312 13.613281 C 1.445312 12.898438 1.746094 12.226562 2.242188 11.777344 C 2.734375 11.285156 3.386719 10.988281 4.105469 10.988281 L 23.417969 10.988281 C 24.214844 10.988281 24.859375 11.285156 25.359375 11.777344 C 25.859375 12.261719 26.160156 12.902344 26.160156 13.613281 Z M 26.160156 33.964844 "/>
</g>
</svg>
