<?xml version="1.0" encoding="UTF-8"?>
<svg xmlns="http://www.w3.org/2000/svg" xmlns:xlink="http://www.w3.org/1999/xlink" width="28px" height="28px" viewBox="0 0 28 28" version="1.1">
<g id="surface1">
<path style=" stroke:none;fill-rule:nonzero;fill:rgb(92.941176%,41.176471%,36.078431%);fill-opacity:1;" d="M 22.261719 7.148438 C 21.753906 6.644531 21.070312 6.347656 20.308594 6.347656 L 18.511719 6.347656 L 18.511719 1.699219 C 18.511719 1.253906 18.355469 0.824219 18.078125 0.527344 C 17.800781 0.203125 17.394531 0 16.941406 0 L 10.804688 0 C 10.347656 0 9.941406 0.199219 9.664062 0.527344 C 9.386719 0.824219 9.234375 1.246094 9.234375 1.699219 L 9.234375 6.324219 L 7.4375 6.324219 C 6.675781 6.324219 5.964844 6.621094 5.480469 7.125 C 4.972656 7.625 4.671875 8.300781 4.671875 9.046875 L 4.671875 22.613281 C 4.671875 23.363281 4.972656 24.0625 5.480469 24.535156 C 5.863281 24.910156 6.371094 25.183594 6.953125 25.285156 L 6.953125 25.859375 C 6.953125 26.410156 7.183594 26.910156 7.535156 27.261719 C 7.890625 27.613281 8.394531 27.832031 8.957031 27.832031 L 9.035156 27.832031 C 9.589844 27.832031 10.097656 27.605469 10.457031 27.261719 C 10.8125 26.910156 11.039062 26.414062 11.039062 25.859375 L 11.039062 25.335938 L 16.714844 25.335938 L 16.714844 25.859375 C 16.714844 26.410156 16.945312 26.910156 17.296875 27.261719 C 17.652344 27.613281 18.15625 27.832031 18.71875 27.832031 L 18.796875 27.832031 C 19.332031 27.832031 19.839844 27.636719 20.191406 27.285156 L 20.214844 27.261719 C 20.570312 26.910156 20.796875 26.414062 20.796875 25.859375 L 20.796875 25.285156 C 21.355469 25.183594 21.863281 24.910156 22.265625 24.535156 C 22.777344 24.035156 23.078125 23.359375 23.078125 22.613281 L 23.078125 9.070312 C 23.078125 8.316406 22.777344 7.621094 22.265625 7.144531 Z M 10.214844 1.699219 C 10.214844 1.496094 10.296875 1.300781 10.417969 1.175781 C 10.519531 1.050781 10.648438 1.003906 10.800781 1.003906 L 16.933594 1.003906 C 17.089844 1.003906 17.214844 1.078125 17.316406 1.175781 C 17.445312 1.300781 17.519531 1.496094 17.519531 1.699219 L 17.519531 6.324219 L 16.347656 6.324219 L 16.347656 3.300781 C 16.347656 2.976562 16.269531 2.675781 16.121094 2.453125 C 15.945312 2.152344 15.667969 1.972656 15.332031 1.972656 L 12.390625 1.972656 C 12.058594 1.972656 11.78125 2.148438 11.605469 2.453125 C 11.453125 2.675781 11.375 2.976562 11.375 3.300781 L 11.375 6.347656 L 10.207031 6.347656 L 10.207031 1.699219 Z M 12.394531 3.300781 C 12.394531 3.152344 12.421875 3.050781 12.472656 2.949219 L 15.265625 2.949219 C 15.3125 3.027344 15.34375 3.144531 15.34375 3.269531 L 15.34375 6.320312 L 12.402344 6.320312 L 12.402344 3.292969 Z M 10.011719 25.917969 C 10.011719 26.191406 9.910156 26.441406 9.707031 26.613281 C 9.535156 26.789062 9.277344 26.914062 9 26.914062 L 8.921875 26.914062 C 8.644531 26.914062 8.390625 26.8125 8.214844 26.613281 C 8.039062 26.441406 7.910156 26.191406 7.910156 25.917969 L 7.910156 25.394531 L 10.019531 25.394531 L 10.019531 25.917969 Z M 19.824219 25.917969 C 19.824219 26.191406 19.722656 26.441406 19.519531 26.613281 L 19.496094 26.640625 C 19.320312 26.8125 19.066406 26.914062 18.8125 26.914062 L 18.734375 26.914062 C 18.457031 26.914062 18.199219 26.8125 18.027344 26.613281 C 17.847656 26.441406 17.722656 26.191406 17.722656 25.917969 L 17.722656 25.394531 L 19.828125 25.394531 L 19.828125 25.917969 Z M 22.105469 22.644531 C 22.105469 23.121094 21.90625 23.566406 21.574219 23.863281 C 21.246094 24.1875 20.808594 24.390625 20.332031 24.390625 L 7.402344 24.390625 C 6.917969 24.390625 6.464844 24.191406 6.160156 23.863281 C 5.832031 23.542969 5.628906 23.113281 5.628906 22.644531 L 5.628906 9.074219 C 5.628906 8.597656 5.832031 8.152344 6.160156 7.851562 C 6.488281 7.523438 6.925781 7.324219 7.402344 7.324219 L 20.277344 7.324219 C 20.808594 7.324219 21.238281 7.523438 21.574219 7.851562 C 21.90625 8.175781 22.105469 8.601562 22.105469 9.074219 Z M 22.105469 22.644531 "/>
</g>
</svg>
