<?xml version="1.0" encoding="UTF-8"?>
<svg xmlns="http://www.w3.org/2000/svg" xmlns:xlink="http://www.w3.org/1999/xlink" width="28px" height="28px" viewBox="0 0 28 28" version="1.1">
<g id="surface1">
<path style=" stroke:none;fill-rule:nonzero;fill:rgb(92.941176%,41.176471%,36.078431%);fill-opacity:1;" d="M 21.53125 0 L 6.496094 0 C 5.71875 0 5.089844 0.625 5.089844 1.394531 C 5.089844 2.160156 5.71875 2.785156 6.496094 2.785156 L 21.53125 2.785156 C 22.308594 2.785156 22.941406 2.160156 22.941406 1.394531 C 22.941406 0.625 22.308594 0 21.53125 0 Z M 21.53125 1.855469 L 6.496094 1.855469 C 6.238281 1.855469 6.027344 1.648438 6.027344 1.390625 C 6.027344 1.132812 6.238281 0.925781 6.496094 0.925781 L 21.53125 0.925781 C 21.789062 0.925781 22 1.132812 22 1.390625 C 22 1.648438 21.789062 1.855469 21.53125 1.855469 Z M 21.53125 1.855469 "/>
<path style=" stroke:none;fill-rule:nonzero;fill:rgb(92.941176%,41.176471%,36.078431%);fill-opacity:1;" d="M 21.53125 25.058594 L 6.496094 25.058594 C 5.71875 25.058594 5.089844 25.679688 5.089844 26.449219 C 5.089844 27.21875 5.71875 27.84375 6.496094 27.84375 L 21.53125 27.84375 C 22.308594 27.84375 22.941406 27.21875 22.941406 26.449219 C 22.941406 25.679688 22.308594 25.058594 21.53125 25.058594 Z M 21.53125 26.914062 L 6.496094 26.914062 C 6.238281 26.914062 6.027344 26.707031 6.027344 26.449219 C 6.027344 26.191406 6.238281 25.988281 6.496094 25.988281 L 21.53125 25.988281 C 21.789062 25.988281 22 26.191406 22 26.449219 C 22 26.707031 21.789062 26.914062 21.53125 26.914062 Z M 21.53125 26.914062 "/>
<path style=" stroke:none;fill-rule:nonzero;fill:rgb(92.941176%,41.176471%,36.078431%);fill-opacity:1;" d="M 17.363281 12.199219 C 19.746094 9.839844 21.058594 6.710938 21.058594 3.378906 L 21.058594 2.320312 C 21.058594 2.0625 20.851562 1.855469 20.589844 1.855469 L 7.4375 1.855469 C 7.179688 1.855469 6.96875 2.0625 6.96875 2.320312 L 6.96875 3.378906 C 6.96875 6.710938 8.28125 9.839844 10.667969 12.199219 L 11.140625 12.664062 C 11.476562 13 11.664062 13.457031 11.664062 13.921875 C 11.664062 14.390625 11.476562 14.847656 11.140625 15.179688 L 10.667969 15.648438 C 8.28125 18.003906 6.96875 21.136719 6.96875 24.46875 L 6.96875 25.527344 C 6.96875 25.785156 7.179688 25.992188 7.4375 25.992188 L 20.589844 25.992188 C 20.851562 25.992188 21.058594 25.785156 21.058594 25.527344 L 21.058594 24.46875 C 21.058594 21.136719 19.746094 18.003906 17.363281 15.648438 L 16.886719 15.179688 C 16.550781 14.84375 16.363281 14.398438 16.363281 13.921875 C 16.363281 13.449219 16.550781 13.003906 16.886719 12.664062 Z M 16.226562 12.007812 C 15.710938 12.519531 15.425781 13.199219 15.425781 13.921875 C 15.425781 14.644531 15.710938 15.324219 16.226562 15.835938 L 16.703125 16.304688 C 18.90625 18.484375 20.121094 21.386719 20.121094 24.46875 L 20.121094 25.0625 L 7.910156 25.0625 L 7.910156 24.46875 C 7.910156 21.386719 9.125 18.484375 11.332031 16.304688 L 11.804688 15.835938 C 12.320312 15.324219 12.609375 14.644531 12.609375 13.921875 C 12.609375 13.203125 12.320312 12.519531 11.804688 12.007812 L 11.332031 11.542969 C 9.125 9.363281 7.910156 6.460938 7.910156 3.378906 L 7.910156 2.785156 L 20.121094 2.785156 L 20.121094 3.378906 C 20.121094 6.460938 18.90625 9.359375 16.703125 11.542969 Z M 16.226562 12.007812 "/>
<path style=" stroke:none;fill-rule:nonzero;fill:rgb(92.941176%,41.176471%,36.078431%);fill-opacity:1;" d="M 17.988281 7.816406 C 17.941406 7.699219 17.777344 7.425781 17.304688 7.425781 C 14.863281 7.425781 13.777344 6.90625 13.347656 6.601562 C 12.808594 6.21875 12.117188 6.113281 11.5 6.332031 C 10.90625 6.539062 10.476562 6.996094 10.3125 7.589844 C 10.269531 7.746094 10.265625 7.84375 10.265625 7.84375 C 10.257812 7.9375 10.277344 8.035156 10.324219 8.113281 C 10.761719 8.886719 11.269531 9.695312 12 10.421875 L 12.472656 10.886719 C 13.167969 11.574219 13.550781 12.484375 13.550781 13.457031 C 13.550781 13.714844 13.761719 13.921875 14.019531 13.921875 C 14.28125 13.921875 14.492188 13.714844 14.492188 13.457031 C 14.492188 12.488281 14.871094 11.578125 15.570312 10.886719 L 16.042969 10.421875 C 16.15625 10.304688 16.308594 10.167969 16.476562 10.011719 C 17.6875 8.886719 18.199219 8.335938 17.992188 7.816406 Z M 15.820312 9.335938 C 15.652344 9.5 15.492188 9.648438 15.371094 9.769531 L 14.894531 10.238281 C 14.53125 10.59375 14.234375 11.007812 14.015625 11.449219 C 13.792969 11.003906 13.496094 10.59375 13.136719 10.238281 L 12.660156 9.769531 C 12.082031 9.199219 11.660156 8.570312 11.222656 7.816406 C 11.335938 7.425781 11.636719 7.269531 11.808594 7.210938 C 12.136719 7.097656 12.503906 7.148438 12.792969 7.355469 C 13.390625 7.78125 14.570312 8.289062 16.832031 8.351562 C 16.539062 8.671875 16.085938 9.09375 15.820312 9.339844 Z M 15.820312 9.335938 "/>
<path style=" stroke:none;fill-rule:nonzero;fill:rgb(92.941176%,41.176471%,36.078431%);fill-opacity:1;" d="M 19.152344 23.628906 C 19.035156 22.125 18.425781 21.5 17.714844 20.777344 C 17.621094 20.679688 17.523438 20.578125 17.417969 20.46875 C 16.828125 19.847656 15.996094 19.488281 15.132812 19.488281 L 12.898438 19.488281 C 12.035156 19.488281 11.203125 19.847656 10.613281 20.46875 C 10.507812 20.578125 10.410156 20.679688 10.3125 20.777344 C 9.605469 21.503906 8.996094 22.128906 8.875 23.632812 C 8.867188 23.761719 8.910156 23.886719 9 23.984375 C 9.089844 24.078125 9.210938 24.128906 9.34375 24.128906 L 18.679688 24.128906 C 18.808594 24.128906 18.933594 24.078125 19.023438 23.984375 C 19.109375 23.886719 19.15625 23.757812 19.144531 23.632812 Z M 9.886719 23.203125 C 10.046875 22.390625 10.425781 22.003906 10.996094 21.421875 C 11.09375 21.320312 11.195312 21.214844 11.304688 21.105469 C 11.71875 20.667969 12.300781 20.421875 12.90625 20.421875 L 15.136719 20.421875 C 15.742188 20.421875 16.324219 20.671875 16.738281 21.105469 C 16.847656 21.214844 16.945312 21.324219 17.046875 21.425781 C 17.617188 22.007812 17.996094 22.398438 18.152344 23.203125 Z M 9.886719 23.203125 "/>
<path style=" stroke:none;fill-rule:nonzero;fill:rgb(92.941176%,41.176471%,36.078431%);fill-opacity:1;" d="M 14.003906 14.847656 C 13.742188 14.847656 13.53125 15.054688 13.53125 15.3125 L 13.53125 15.777344 C 13.53125 16.035156 13.742188 16.242188 14.003906 16.242188 C 14.261719 16.242188 14.472656 16.035156 14.472656 15.777344 L 14.472656 15.3125 C 14.472656 15.054688 14.261719 14.847656 14.003906 14.847656 Z M 14.003906 14.847656 "/>
<path style=" stroke:none;fill-rule:nonzero;fill:rgb(92.941176%,41.176471%,36.078431%);fill-opacity:1;" d="M 14.003906 17.167969 C 13.742188 17.167969 13.53125 17.375 13.53125 17.632812 L 13.53125 18.097656 C 13.53125 18.351562 13.742188 18.5625 14.003906 18.5625 C 14.261719 18.5625 14.472656 18.351562 14.472656 18.097656 L 14.472656 17.632812 C 14.472656 17.375 14.261719 17.167969 14.003906 17.167969 Z M 14.003906 17.167969 "/>
</g>
</svg>
