<?xml version="1.0" encoding="UTF-8"?>
<svg xmlns="http://www.w3.org/2000/svg" xmlns:xlink="http://www.w3.org/1999/xlink" width="28px" height="28px" viewBox="0 0 28 44" version="1.1">
<g id="surface1">
<path style=" stroke:none;fill-rule:nonzero;fill:rgb(92.941176%,41.176471%,36.078431%);fill-opacity:1;" d="M 25.835938 0 L 2.210938 0 C 0.988281 0 -0.00390625 0.984375 -0.00390625 2.191406 C -0.00390625 3.394531 0.988281 4.378906 2.210938 4.378906 L 25.835938 4.378906 C 27.054688 4.378906 28.050781 3.394531 28.050781 2.191406 C 28.050781 0.984375 27.054688 0 25.835938 0 Z M 25.835938 2.914062 L 2.210938 2.914062 C 1.804688 2.914062 1.472656 2.589844 1.472656 2.183594 C 1.472656 1.78125 1.804688 1.453125 2.210938 1.453125 L 25.835938 1.453125 C 26.242188 1.453125 26.574219 1.78125 26.574219 2.183594 C 26.574219 2.589844 26.242188 2.914062 25.835938 2.914062 Z M 25.835938 2.914062 "/>
<path style=" stroke:none;fill-rule:nonzero;fill:rgb(92.941176%,41.176471%,36.078431%);fill-opacity:1;" d="M 25.835938 39.375 L 2.210938 39.375 C 0.988281 39.375 -0.00390625 40.355469 -0.00390625 41.5625 C -0.00390625 42.769531 0.988281 43.753906 2.210938 43.753906 L 25.835938 43.753906 C 27.054688 43.753906 28.050781 42.769531 28.050781 41.5625 C 28.050781 40.355469 27.054688 39.375 25.835938 39.375 Z M 25.835938 42.292969 L 2.210938 42.292969 C 1.804688 42.292969 1.472656 41.96875 1.472656 41.5625 C 1.472656 41.160156 1.804688 40.835938 2.210938 40.835938 L 25.835938 40.835938 C 26.242188 40.835938 26.574219 41.160156 26.574219 41.5625 C 26.574219 41.96875 26.242188 42.292969 25.835938 42.292969 Z M 25.835938 42.292969 "/>
<path style=" stroke:none;fill-rule:nonzero;fill:rgb(92.941176%,41.176471%,36.078431%);fill-opacity:1;" d="M 19.285156 19.167969 C 23.03125 15.464844 25.09375 10.542969 25.09375 5.308594 L 25.09375 3.644531 C 25.09375 3.242188 24.765625 2.914062 24.355469 2.914062 L 3.6875 2.914062 C 3.28125 2.914062 2.949219 3.242188 2.949219 3.644531 L 2.949219 5.308594 C 2.949219 10.542969 5.015625 15.464844 8.761719 19.167969 L 9.507812 19.902344 C 10.035156 20.425781 10.332031 21.144531 10.332031 21.878906 C 10.332031 22.613281 10.035156 23.332031 9.507812 23.855469 L 8.761719 24.589844 C 5.015625 28.292969 2.949219 33.214844 2.949219 38.449219 L 2.949219 40.113281 C 2.949219 40.519531 3.28125 40.84375 3.6875 40.84375 L 24.355469 40.84375 C 24.765625 40.84375 25.09375 40.519531 25.09375 40.113281 L 25.09375 38.449219 C 25.09375 33.214844 23.03125 28.292969 19.285156 24.589844 L 18.539062 23.855469 C 18.007812 23.328125 17.710938 22.628906 17.710938 21.878906 C 17.710938 21.132812 18.007812 20.433594 18.539062 19.902344 Z M 17.5 18.871094 C 16.6875 19.675781 16.238281 20.742188 16.238281 21.878906 C 16.238281 23.011719 16.6875 24.082031 17.5 24.886719 L 18.246094 25.621094 C 21.710938 29.046875 23.621094 33.605469 23.621094 38.449219 L 23.621094 39.382812 L 4.429688 39.382812 L 4.429688 38.449219 C 4.429688 33.605469 6.339844 29.046875 9.808594 25.621094 L 10.550781 24.886719 C 11.363281 24.082031 11.8125 23.015625 11.8125 21.878906 C 11.8125 20.746094 11.363281 19.675781 10.550781 18.871094 L 9.808594 18.136719 C 6.339844 14.710938 4.429688 10.152344 4.429688 5.308594 L 4.429688 4.375 L 23.621094 4.375 L 23.621094 5.308594 C 23.621094 10.152344 21.710938 14.707031 18.246094 18.136719 Z M 17.5 18.871094 "/>
<path style=" stroke:none;fill-rule:nonzero;fill:rgb(92.941176%,41.176471%,36.078431%);fill-opacity:1;" d="M 20.265625 12.285156 C 20.191406 12.101562 19.933594 11.667969 19.195312 11.667969 C 15.359375 11.667969 13.648438 10.855469 12.972656 10.371094 C 12.125 9.769531 11.042969 9.609375 10.074219 9.949219 C 9.140625 10.277344 8.460938 10.996094 8.207031 11.929688 C 8.136719 12.171875 8.128906 12.328125 8.128906 12.328125 C 8.117188 12.472656 8.148438 12.625 8.222656 12.75 C 8.910156 13.964844 9.707031 15.238281 10.859375 16.375 L 11.601562 17.109375 C 12.691406 18.1875 13.292969 19.621094 13.292969 21.148438 C 13.292969 21.554688 13.625 21.878906 14.03125 21.878906 C 14.441406 21.878906 14.773438 21.554688 14.773438 21.148438 C 14.773438 19.625 15.371094 18.191406 16.464844 17.109375 L 17.210938 16.375 C 17.390625 16.195312 17.628906 15.976562 17.890625 15.734375 C 19.796875 13.964844 20.597656 13.097656 20.273438 12.285156 Z M 16.863281 14.671875 C 16.59375 14.925781 16.34375 15.160156 16.152344 15.351562 L 15.40625 16.085938 C 14.835938 16.648438 14.367188 17.296875 14.023438 17.992188 C 13.671875 17.292969 13.210938 16.648438 12.640625 16.085938 L 11.894531 15.351562 C 10.988281 14.453125 10.324219 13.46875 9.632812 12.28125 C 9.816406 11.671875 10.289062 11.421875 10.554688 11.332031 C 11.074219 11.152344 11.648438 11.234375 12.101562 11.558594 C 13.042969 12.230469 14.894531 13.023438 18.449219 13.121094 C 17.992188 13.628906 17.277344 14.292969 16.863281 14.679688 Z M 16.863281 14.671875 "/>
<path style=" stroke:none;fill-rule:nonzero;fill:rgb(92.941176%,41.176471%,36.078431%);fill-opacity:1;" d="M 22.097656 37.132812 C 21.910156 34.765625 20.953125 33.785156 19.839844 32.652344 C 19.691406 32.496094 19.535156 32.339844 19.371094 32.167969 C 18.445312 31.191406 17.136719 30.625 15.777344 30.625 L 12.269531 30.625 C 10.914062 30.625 9.605469 31.1875 8.675781 32.167969 C 8.511719 32.339844 8.359375 32.496094 8.207031 32.652344 C 7.09375 33.789062 6.136719 34.773438 5.949219 37.136719 C 5.933594 37.339844 6.003906 37.539062 6.140625 37.6875 C 6.28125 37.835938 6.476562 37.917969 6.683594 37.917969 L 21.351562 37.917969 C 21.558594 37.917969 21.75 37.835938 21.894531 37.6875 C 22.03125 37.535156 22.105469 37.335938 22.085938 37.136719 Z M 7.535156 36.460938 C 7.789062 35.183594 8.382812 34.578125 9.28125 33.664062 C 9.433594 33.503906 9.59375 33.335938 9.761719 33.167969 C 10.414062 32.480469 11.328125 32.089844 12.28125 32.089844 L 15.785156 32.089844 C 16.738281 32.089844 17.652344 32.484375 18.304688 33.167969 C 18.472656 33.339844 18.628906 33.507812 18.785156 33.667969 C 19.683594 34.582031 20.277344 35.195312 20.523438 36.464844 L 7.542969 36.464844 Z M 7.535156 36.460938 "/>
<path style=" stroke:none;fill-rule:nonzero;fill:rgb(92.941176%,41.176471%,36.078431%);fill-opacity:1;" d="M 14.003906 23.332031 C 13.59375 23.332031 13.265625 23.660156 13.265625 24.0625 L 13.265625 24.792969 C 13.265625 25.195312 13.59375 25.523438 14.003906 25.523438 C 14.414062 25.523438 14.742188 25.195312 14.742188 24.792969 L 14.742188 24.0625 C 14.742188 23.660156 14.414062 23.332031 14.003906 23.332031 Z M 14.003906 23.332031 "/>
<path style=" stroke:none;fill-rule:nonzero;fill:rgb(92.941176%,41.176471%,36.078431%);fill-opacity:1;" d="M 14.003906 26.976562 C 13.59375 26.976562 13.265625 27.304688 13.265625 27.707031 L 13.265625 28.4375 C 13.265625 28.839844 13.59375 29.167969 14.003906 29.167969 C 14.414062 29.167969 14.742188 28.839844 14.742188 28.4375 L 14.742188 27.707031 C 14.742188 27.304688 14.414062 26.976562 14.003906 26.976562 Z M 14.003906 26.976562 "/>
</g>
</svg>
