<?xml version="1.0" encoding="UTF-8"?>
<svg xmlns="http://www.w3.org/2000/svg" xmlns:xlink="http://www.w3.org/1999/xlink" width="28px" height="28px" viewBox="0 0 28 19" version="1.1">
<g id="surface1">
<path style=" stroke:none;fill-rule:nonzero;fill:rgb(92.941176%,41.176471%,36.078431%);fill-opacity:1;" d="M 13.902344 17.617188 C 9.597656 17.617188 6.105469 14.195312 6.105469 9.972656 C 6.105469 5.753906 9.597656 2.332031 13.902344 2.332031 C 18.210938 2.332031 21.703125 5.753906 21.703125 9.972656 C 21.695312 14.191406 18.207031 17.613281 13.902344 17.617188 Z M 13.902344 3.285156 C 10.136719 3.285156 7.082031 6.28125 7.082031 9.972656 C 7.082031 13.667969 10.136719 16.660156 13.902344 16.660156 C 17.671875 16.660156 20.726562 13.667969 20.726562 9.972656 C 20.722656 6.28125 17.671875 3.289062 13.902344 3.285156 Z M 13.902344 3.285156 "/>
<path style=" stroke:none;fill-rule:nonzero;fill:rgb(92.941176%,41.176471%,36.078431%);fill-opacity:1;" d="M 13.902344 10.453125 C 13.632812 10.453125 13.417969 10.238281 13.417969 9.972656 L 13.417969 5.199219 C 13.417969 4.933594 13.632812 4.71875 13.902344 4.71875 C 14.171875 4.71875 14.390625 4.933594 14.390625 5.199219 L 14.390625 9.972656 C 14.390625 10.238281 14.171875 10.453125 13.902344 10.453125 Z M 13.902344 10.453125 "/>
<path style=" stroke:none;fill-rule:nonzero;fill:rgb(92.941176%,41.176471%,36.078431%);fill-opacity:1;" d="M 17.316406 10.453125 L 13.902344 10.453125 C 13.632812 10.453125 13.417969 10.238281 13.417969 9.972656 C 13.417969 9.710938 13.632812 9.496094 13.902344 9.496094 L 17.316406 9.496094 C 17.585938 9.496094 17.800781 9.710938 17.800781 9.972656 C 17.800781 10.238281 17.585938 10.453125 17.316406 10.453125 Z M 17.316406 10.453125 "/>
<path style=" stroke:none;fill-rule:nonzero;fill:rgb(92.941176%,41.176471%,36.078431%);fill-opacity:1;" d="M 20.238281 19.050781 C 20.078125 19.050781 19.925781 18.96875 19.832031 18.835938 L 17.882812 15.972656 C 17.734375 15.75 17.796875 15.457031 18.019531 15.308594 C 18.246094 15.164062 18.546875 15.222656 18.695312 15.441406 L 20.644531 18.308594 C 20.792969 18.527344 20.734375 18.824219 20.507812 18.96875 C 20.429688 19.023438 20.335938 19.050781 20.238281 19.050781 Z M 20.238281 19.050781 "/>
<path style=" stroke:none;fill-rule:nonzero;fill:rgb(92.941176%,41.176471%,36.078431%);fill-opacity:1;" d="M 7.570312 19.050781 C 7.300781 19.050781 7.082031 18.835938 7.082031 18.570312 C 7.082031 18.476562 7.109375 18.386719 7.164062 18.308594 L 9.113281 15.441406 C 9.261719 15.222656 9.566406 15.164062 9.789062 15.308594 C 10.011719 15.453125 10.074219 15.75 9.921875 15.972656 L 7.972656 18.835938 C 7.882812 18.96875 7.730469 19.050781 7.566406 19.050781 Z M 7.570312 19.050781 "/>
<path style=" stroke:none;fill-rule:nonzero;fill:rgb(92.941176%,41.176471%,36.078431%);fill-opacity:1;" d="M 21.761719 5.847656 C 21.632812 5.847656 21.507812 5.796875 21.417969 5.707031 L 17.28125 1.65625 C 17.089844 1.46875 17.089844 1.167969 17.28125 0.980469 C 18.613281 -0.328125 20.773438 -0.328125 22.105469 0.980469 C 23.4375 2.285156 23.4375 4.402344 22.105469 5.707031 C 22.015625 5.796875 21.890625 5.847656 21.761719 5.847656 Z M 18.351562 1.351562 L 21.726562 4.660156 C 22.367188 3.714844 22.234375 2.457031 21.417969 1.65625 C 20.597656 0.851562 19.316406 0.722656 18.351562 1.351562 Z M 18.351562 1.351562 "/>
<path style=" stroke:none;fill-rule:nonzero;fill:rgb(92.941176%,41.176471%,36.078431%);fill-opacity:1;" d="M 6.046875 5.847656 C 5.917969 5.847656 5.792969 5.796875 5.703125 5.707031 C 4.371094 4.402344 4.371094 2.285156 5.703125 0.980469 C 7.035156 -0.324219 9.195312 -0.328125 10.527344 0.980469 C 10.71875 1.167969 10.71875 1.46875 10.527344 1.65625 L 6.390625 5.707031 C 6.300781 5.796875 6.175781 5.847656 6.046875 5.847656 Z M 8.113281 0.957031 C 7.46875 0.953125 6.847656 1.207031 6.390625 1.65625 C 5.574219 2.457031 5.441406 3.714844 6.082031 4.660156 L 9.460938 1.351562 C 9.058594 1.09375 8.59375 0.953125 8.113281 0.957031 Z M 8.113281 0.957031 "/>
<path style=" stroke:none;fill-rule:nonzero;fill:rgb(92.941176%,41.176471%,36.078431%);fill-opacity:1;" d="M 24.367188 12.617188 C 24.097656 12.617188 23.878906 12.40625 23.878906 12.140625 C 23.878906 12.015625 23.929688 11.890625 24.019531 11.804688 C 24.78125 11.058594 24.78125 9.847656 24.019531 9.101562 C 23.835938 8.910156 23.839844 8.609375 24.035156 8.425781 C 24.222656 8.246094 24.519531 8.246094 24.710938 8.425781 C 25.851562 9.546875 25.851562 11.359375 24.710938 12.480469 C 24.621094 12.570312 24.496094 12.617188 24.367188 12.617188 Z M 24.367188 12.617188 "/>
<path style=" stroke:none;fill-rule:nonzero;fill:rgb(92.941176%,41.176471%,36.078431%);fill-opacity:1;" d="M 26.089844 14.308594 C 25.820312 14.308594 25.601562 14.09375 25.601562 13.828125 C 25.601562 13.703125 25.652344 13.582031 25.742188 13.492188 C 27.453125 11.8125 27.453125 9.089844 25.742188 7.410156 C 25.558594 7.222656 25.5625 6.917969 25.757812 6.734375 C 25.945312 6.558594 26.246094 6.558594 26.433594 6.734375 C 28.523438 8.789062 28.523438 12.113281 26.433594 14.167969 C 26.34375 14.257812 26.21875 14.308594 26.089844 14.308594 Z M 26.089844 14.308594 "/>
<path style=" stroke:none;fill-rule:nonzero;fill:rgb(92.941176%,41.176471%,36.078431%);fill-opacity:1;" d="M 3.636719 12.617188 C 3.507812 12.617188 3.382812 12.566406 3.289062 12.476562 C 2.152344 11.359375 2.152344 9.546875 3.289062 8.425781 C 3.484375 8.242188 3.792969 8.246094 3.980469 8.4375 C 4.160156 8.621094 4.160156 8.917969 3.980469 9.101562 C 3.21875 9.847656 3.21875 11.058594 3.980469 11.804688 C 4.171875 11.988281 4.171875 12.292969 3.980469 12.480469 C 3.890625 12.566406 3.765625 12.617188 3.636719 12.617188 Z M 3.636719 12.617188 "/>
<path style=" stroke:none;fill-rule:nonzero;fill:rgb(92.941176%,41.176471%,36.078431%);fill-opacity:1;" d="M 1.914062 14.308594 C 1.785156 14.308594 1.660156 14.257812 1.566406 14.167969 C -0.523438 12.113281 -0.523438 8.789062 1.566406 6.734375 C 1.765625 6.554688 2.074219 6.566406 2.257812 6.757812 C 2.433594 6.941406 2.433594 7.226562 2.257812 7.410156 C 0.546875 9.089844 0.546875 11.8125 2.257812 13.492188 C 2.445312 13.675781 2.445312 13.980469 2.257812 14.167969 C 2.164062 14.257812 2.039062 14.308594 1.910156 14.308594 Z M 1.914062 14.308594 "/>
</g>
</svg>
