<?xml version="1.0" encoding="UTF-8"?>
<svg xmlns="http://www.w3.org/2000/svg" xmlns:xlink="http://www.w3.org/1999/xlink" width="28px" height="28px" viewBox="0 0 28 28" version="1.1">
<g id="surface1">
<path style=" stroke:none;fill-rule:nonzero;fill:rgb(92.941176%,41.176471%,36.078431%);fill-opacity:1;" d="M 13.902344 22.117188 C 9.597656 22.117188 6.105469 18.695312 6.105469 14.472656 C 6.105469 10.253906 9.597656 6.832031 13.902344 6.832031 C 18.210938 6.832031 21.703125 10.253906 21.703125 14.472656 C 21.695312 18.691406 18.207031 22.113281 13.902344 22.117188 Z M 13.902344 7.785156 C 10.136719 7.785156 7.082031 10.78125 7.082031 14.472656 C 7.082031 18.167969 10.136719 21.160156 13.902344 21.160156 C 17.671875 21.160156 20.726562 18.167969 20.726562 14.472656 C 20.722656 10.78125 17.671875 7.789062 13.902344 7.785156 Z M 13.902344 7.785156 "/>
<path style=" stroke:none;fill-rule:nonzero;fill:rgb(92.941176%,41.176471%,36.078431%);fill-opacity:1;" d="M 13.902344 14.953125 C 13.632812 14.953125 13.417969 14.738281 13.417969 14.472656 L 13.417969 9.699219 C 13.417969 9.433594 13.632812 9.21875 13.902344 9.21875 C 14.171875 9.21875 14.390625 9.433594 14.390625 9.699219 L 14.390625 14.472656 C 14.390625 14.738281 14.171875 14.953125 13.902344 14.953125 Z M 13.902344 14.953125 "/>
<path style=" stroke:none;fill-rule:nonzero;fill:rgb(92.941176%,41.176471%,36.078431%);fill-opacity:1;" d="M 17.316406 14.953125 L 13.902344 14.953125 C 13.632812 14.953125 13.417969 14.738281 13.417969 14.472656 C 13.417969 14.210938 13.632812 13.996094 13.902344 13.996094 L 17.316406 13.996094 C 17.585938 13.996094 17.800781 14.210938 17.800781 14.472656 C 17.800781 14.738281 17.585938 14.953125 17.316406 14.953125 Z M 17.316406 14.953125 "/>
<path style=" stroke:none;fill-rule:nonzero;fill:rgb(92.941176%,41.176471%,36.078431%);fill-opacity:1;" d="M 20.238281 23.550781 C 20.078125 23.550781 19.925781 23.46875 19.832031 23.335938 L 17.882812 20.472656 C 17.734375 20.25 17.796875 19.957031 18.019531 19.808594 C 18.246094 19.664062 18.546875 19.722656 18.695312 19.941406 L 20.644531 22.808594 C 20.792969 23.027344 20.734375 23.324219 20.507812 23.46875 C 20.429688 23.523438 20.335938 23.550781 20.238281 23.550781 Z M 20.238281 23.550781 "/>
<path style=" stroke:none;fill-rule:nonzero;fill:rgb(92.941176%,41.176471%,36.078431%);fill-opacity:1;" d="M 7.570312 23.550781 C 7.300781 23.550781 7.082031 23.335938 7.082031 23.070312 C 7.082031 22.976562 7.109375 22.886719 7.164062 22.808594 L 9.113281 19.941406 C 9.261719 19.722656 9.566406 19.664062 9.789062 19.808594 C 10.011719 19.953125 10.074219 20.25 9.921875 20.472656 L 7.972656 23.335938 C 7.882812 23.46875 7.730469 23.550781 7.566406 23.550781 Z M 7.570312 23.550781 "/>
<path style=" stroke:none;fill-rule:nonzero;fill:rgb(92.941176%,41.176471%,36.078431%);fill-opacity:1;" d="M 21.761719 10.347656 C 21.632812 10.347656 21.507812 10.296875 21.417969 10.207031 L 17.28125 6.15625 C 17.089844 5.96875 17.089844 5.667969 17.28125 5.480469 C 18.613281 4.171875 20.773438 4.171875 22.105469 5.480469 C 23.4375 6.785156 23.4375 8.902344 22.105469 10.207031 C 22.015625 10.296875 21.890625 10.347656 21.761719 10.347656 Z M 18.351562 5.851562 L 21.726562 9.160156 C 22.367188 8.214844 22.234375 6.957031 21.417969 6.15625 C 20.597656 5.351562 19.316406 5.222656 18.351562 5.851562 Z M 18.351562 5.851562 "/>
<path style=" stroke:none;fill-rule:nonzero;fill:rgb(92.941176%,41.176471%,36.078431%);fill-opacity:1;" d="M 6.046875 10.347656 C 5.917969 10.347656 5.792969 10.296875 5.703125 10.207031 C 4.371094 8.902344 4.371094 6.785156 5.703125 5.480469 C 7.035156 4.175781 9.195312 4.171875 10.527344 5.480469 C 10.71875 5.667969 10.71875 5.96875 10.527344 6.15625 L 6.390625 10.207031 C 6.300781 10.296875 6.175781 10.347656 6.046875 10.347656 Z M 8.113281 5.457031 C 7.46875 5.453125 6.847656 5.707031 6.390625 6.15625 C 5.574219 6.957031 5.441406 8.214844 6.082031 9.160156 L 9.460938 5.851562 C 9.058594 5.59375 8.59375 5.453125 8.113281 5.457031 Z M 8.113281 5.457031 "/>
<path style=" stroke:none;fill-rule:nonzero;fill:rgb(92.941176%,41.176471%,36.078431%);fill-opacity:1;" d="M 24.367188 17.117188 C 24.097656 17.117188 23.878906 16.90625 23.878906 16.640625 C 23.878906 16.515625 23.929688 16.390625 24.019531 16.304688 C 24.78125 15.558594 24.78125 14.347656 24.019531 13.601562 C 23.835938 13.410156 23.839844 13.109375 24.035156 12.925781 C 24.222656 12.746094 24.519531 12.746094 24.710938 12.925781 C 25.851562 14.046875 25.851562 15.859375 24.710938 16.980469 C 24.621094 17.070312 24.496094 17.117188 24.367188 17.117188 Z M 24.367188 17.117188 "/>
<path style=" stroke:none;fill-rule:nonzero;fill:rgb(92.941176%,41.176471%,36.078431%);fill-opacity:1;" d="M 26.089844 18.808594 C 25.820312 18.808594 25.601562 18.59375 25.601562 18.328125 C 25.601562 18.203125 25.652344 18.082031 25.742188 17.992188 C 27.453125 16.3125 27.453125 13.589844 25.742188 11.910156 C 25.558594 11.722656 25.5625 11.417969 25.757812 11.234375 C 25.945312 11.058594 26.246094 11.058594 26.433594 11.234375 C 28.523438 13.289062 28.523438 16.613281 26.433594 18.667969 C 26.34375 18.757812 26.21875 18.808594 26.089844 18.808594 Z M 26.089844 18.808594 "/>
<path style=" stroke:none;fill-rule:nonzero;fill:rgb(92.941176%,41.176471%,36.078431%);fill-opacity:1;" d="M 3.636719 17.117188 C 3.507812 17.117188 3.382812 17.066406 3.289062 16.976562 C 2.152344 15.859375 2.152344 14.046875 3.289062 12.925781 C 3.484375 12.742188 3.792969 12.746094 3.980469 12.9375 C 4.160156 13.121094 4.160156 13.417969 3.980469 13.601562 C 3.21875 14.347656 3.21875 15.558594 3.980469 16.304688 C 4.171875 16.488281 4.171875 16.792969 3.980469 16.980469 C 3.890625 17.066406 3.765625 17.117188 3.636719 17.117188 Z M 3.636719 17.117188 "/>
<path style=" stroke:none;fill-rule:nonzero;fill:rgb(92.941176%,41.176471%,36.078431%);fill-opacity:1;" d="M 1.914062 18.808594 C 1.785156 18.808594 1.660156 18.757812 1.566406 18.667969 C -0.523438 16.613281 -0.523438 13.289062 1.566406 11.234375 C 1.765625 11.054688 2.074219 11.066406 2.257812 11.257812 C 2.433594 11.441406 2.433594 11.726562 2.257812 11.910156 C 0.546875 13.589844 0.546875 16.3125 2.257812 17.992188 C 2.445312 18.175781 2.445312 18.480469 2.257812 18.667969 C 2.164062 18.757812 2.039062 18.808594 1.910156 18.808594 Z M 1.914062 18.808594 "/>
</g>
</svg>
