<?xml version="1.0" encoding="UTF-8"?>
<svg xmlns="http://www.w3.org/2000/svg" xmlns:xlink="http://www.w3.org/1999/xlink" width="28px" height="28px" viewBox="0 0 28 24" version="1.1">
<g id="surface1">
<path style=" stroke:none;fill-rule:nonzero;fill:rgb(92.941176%,41.176471%,36.078431%);fill-opacity:1;" d="M 26.449219 4.039062 L 20.414062 4.039062 L 20.414062 2.246094 C 20.414062 1.003906 19.375 0 18.097656 0 L 9.742188 0 C 8.464844 0 7.425781 1.003906 7.425781 2.246094 L 7.425781 4.039062 L 1.390625 4.039062 C 0.621094 4.039062 0 4.644531 0 5.386719 L 0 15.382812 C 0.00390625 15.953125 0.375 16.460938 0.929688 16.652344 L 0.929688 22.898438 C 0.929688 23.644531 1.550781 24.246094 2.320312 24.246094 L 25.519531 24.246094 C 26.289062 24.246094 26.910156 23.644531 26.910156 22.898438 L 26.910156 16.652344 C 27.464844 16.460938 27.835938 15.953125 27.839844 15.382812 L 27.839844 5.386719 C 27.839844 4.644531 27.214844 4.042969 26.449219 4.042969 Z M 8.351562 2.246094 C 8.351562 1.5 8.976562 0.898438 9.742188 0.898438 L 18.097656 0.898438 C 18.863281 0.898438 19.488281 1.5 19.488281 2.246094 L 19.488281 4.039062 L 18.558594 4.039062 L 18.558594 2.246094 C 18.558594 1.996094 18.351562 1.796875 18.097656 1.796875 L 9.742188 1.796875 C 9.488281 1.796875 9.28125 1.996094 9.28125 2.246094 L 9.28125 4.039062 L 8.351562 4.039062 Z M 17.632812 4.039062 L 10.207031 4.039062 L 10.207031 2.695312 L 17.632812 2.695312 Z M 25.984375 22.898438 C 25.984375 23.148438 25.777344 23.347656 25.519531 23.347656 L 2.320312 23.347656 C 2.0625 23.347656 1.855469 23.148438 1.855469 22.898438 L 1.855469 16.804688 L 12.0625 18.167969 L 12.0625 19.308594 C 12.0625 20.050781 12.6875 20.65625 13.457031 20.65625 L 14.382812 20.65625 C 15.152344 20.65625 15.777344 20.050781 15.777344 19.308594 L 15.777344 18.167969 L 25.984375 16.804688 Z M 14.847656 19.308594 C 14.847656 19.554688 14.640625 19.757812 14.382812 19.757812 L 13.457031 19.757812 C 13.199219 19.757812 12.992188 19.554688 12.992188 19.308594 L 12.992188 16.613281 C 12.992188 16.367188 13.199219 16.164062 13.457031 16.164062 L 14.382812 16.164062 C 14.640625 16.164062 14.847656 16.367188 14.847656 16.613281 Z M 26.914062 15.382812 C 26.914062 15.605469 26.742188 15.796875 26.511719 15.828125 L 26.382812 15.84375 L 15.777344 17.261719 L 15.777344 16.613281 C 15.777344 15.871094 15.152344 15.265625 14.382812 15.265625 L 13.457031 15.265625 C 12.6875 15.265625 12.0625 15.871094 12.0625 16.613281 L 12.0625 17.261719 L 1.328125 15.828125 C 1.097656 15.796875 0.925781 15.605469 0.929688 15.382812 L 0.929688 5.386719 C 0.929688 5.140625 1.136719 4.9375 1.390625 4.9375 L 26.449219 4.9375 C 26.703125 4.9375 26.910156 5.140625 26.910156 5.386719 L 26.910156 15.382812 Z M 26.914062 15.382812 Z M 26.914062 15.382812 "/>
</g>
</svg>
