<?xml version="1.0" encoding="UTF-8"?>
<svg xmlns="http://www.w3.org/2000/svg" xmlns:xlink="http://www.w3.org/1999/xlink" width="28px" height="28px" viewBox="0 0 28 20" version="1.1">
<g id="surface1">
<path style=" stroke:none;fill-rule:nonzero;fill:rgb(92.941176%,41.176471%,36.078431%);fill-opacity:1;" d="M 27.261719 2.578125 L 25.601562 2.578125 L 25.601562 1.332031 C 25.601562 1.097656 25.464844 0.890625 25.25 0.800781 C 21.75 -0.695312 17.445312 -0.0625 13.917969 2.441406 C 10.390625 -0.0585938 6.085938 -0.695312 2.585938 0.800781 C 2.375 0.890625 2.234375 1.097656 2.234375 1.332031 L 2.234375 2.578125 L 0.578125 2.578125 C 0.253906 2.578125 -0.00390625 2.839844 -0.00390625 3.15625 L -0.00390625 19.191406 C -0.00390625 19.511719 0.257812 19.769531 0.578125 19.769531 L 27.253906 19.769531 C 27.578125 19.769531 27.835938 19.507812 27.835938 19.191406 L 27.835938 3.15625 C 27.835938 2.835938 27.574219 2.578125 27.253906 2.578125 Z M 1.160156 18.609375 L 1.160156 3.738281 L 2.238281 3.738281 L 2.238281 17.363281 C 2.238281 17.558594 2.335938 17.738281 2.5 17.847656 C 2.664062 17.957031 2.871094 17.976562 3.046875 17.898438 C 5.765625 16.738281 9.046875 17.027344 11.957031 18.613281 L 1.164062 18.613281 Z M 13.339844 18.082031 C 11.226562 16.730469 8.871094 16.03125 6.59375 16.03125 C 5.5 16.03125 4.417969 16.195312 3.398438 16.527344 L 3.398438 3.164062 C 3.398438 3.160156 3.398438 3.15625 3.398438 3.15625 C 3.398438 3.15625 3.398438 3.152344 3.398438 3.148438 L 3.398438 1.722656 C 6.492188 0.5625 10.242188 1.210938 13.339844 3.449219 Z M 14.5 3.449219 C 17.601562 1.210938 21.351562 0.566406 24.441406 1.722656 L 24.441406 3.152344 C 24.441406 3.15625 24.441406 3.15625 24.441406 3.15625 C 24.441406 3.160156 24.441406 3.164062 24.441406 3.164062 L 24.441406 16.527344 C 21.300781 15.507812 17.640625 16.082031 14.5 18.082031 Z M 26.679688 18.609375 L 15.886719 18.609375 C 18.800781 17.027344 22.078125 16.734375 24.796875 17.894531 C 24.976562 17.972656 25.179688 17.953125 25.34375 17.84375 C 25.507812 17.738281 25.605469 17.554688 25.605469 17.359375 L 25.605469 3.738281 L 26.683594 3.738281 L 26.683594 18.605469 Z M 26.679688 18.609375 "/>
</g>
</svg>
