<?xml version="1.0" encoding="UTF-8"?>
<svg xmlns="http://www.w3.org/2000/svg" xmlns:xlink="http://www.w3.org/1999/xlink" width="28px" height="28px" viewBox="0 0 28 28" version="1.1">
<g id="surface1">
<path style=" stroke:none;fill-rule:nonzero;fill:rgb(92.941176%,41.176471%,36.078431%);fill-opacity:1;" d="M 27.261719 6.578125 L 25.601562 6.578125 L 25.601562 5.332031 C 25.601562 5.097656 25.464844 4.890625 25.25 4.800781 C 21.75 3.304688 17.445312 3.9375 13.917969 6.441406 C 10.390625 3.941406 6.085938 3.304688 2.585938 4.800781 C 2.375 4.890625 2.234375 5.097656 2.234375 5.332031 L 2.234375 6.578125 L 0.578125 6.578125 C 0.253906 6.578125 -0.00390625 6.839844 -0.00390625 7.15625 L -0.00390625 23.191406 C -0.00390625 23.511719 0.257812 23.769531 0.578125 23.769531 L 27.253906 23.769531 C 27.578125 23.769531 27.835938 23.507812 27.835938 23.191406 L 27.835938 7.15625 C 27.835938 6.835938 27.574219 6.578125 27.253906 6.578125 Z M 1.160156 22.609375 L 1.160156 7.738281 L 2.238281 7.738281 L 2.238281 21.363281 C 2.238281 21.558594 2.335938 21.738281 2.5 21.847656 C 2.664062 21.957031 2.871094 21.976562 3.046875 21.898438 C 5.765625 20.738281 9.046875 21.027344 11.957031 22.613281 L 1.164062 22.613281 Z M 13.339844 22.082031 C 11.226562 20.730469 8.871094 20.03125 6.59375 20.03125 C 5.5 20.03125 4.417969 20.195312 3.398438 20.527344 L 3.398438 7.164062 C 3.398438 7.160156 3.398438 7.15625 3.398438 7.15625 C 3.398438 7.15625 3.398438 7.152344 3.398438 7.148438 L 3.398438 5.722656 C 6.492188 4.5625 10.242188 5.210938 13.339844 7.449219 Z M 14.5 7.449219 C 17.601562 5.210938 21.351562 4.566406 24.441406 5.722656 L 24.441406 7.152344 C 24.441406 7.15625 24.441406 7.15625 24.441406 7.15625 C 24.441406 7.160156 24.441406 7.164062 24.441406 7.164062 L 24.441406 20.527344 C 21.300781 19.507812 17.640625 20.082031 14.5 22.082031 Z M 26.679688 22.609375 L 15.886719 22.609375 C 18.800781 21.027344 22.078125 20.734375 24.796875 21.894531 C 24.976562 21.972656 25.179688 21.953125 25.34375 21.84375 C 25.507812 21.738281 25.605469 21.554688 25.605469 21.359375 L 25.605469 7.738281 L 26.683594 7.738281 L 26.683594 22.605469 Z M 26.679688 22.609375 "/>
</g>
</svg>
