<?xml version="1.0" encoding="UTF-8"?>
<svg xmlns="http://www.w3.org/2000/svg" xmlns:xlink="http://www.w3.org/1999/xlink" width="28px" height="28px" viewBox="0 0 28 24" version="1.1">
<g id="surface1">
<path style=" stroke:none;fill-rule:nonzero;fill:rgb(92.941176%,41.176471%,36.078431%);fill-opacity:1;" d="M 14 24.296875 C 13.601562 24.296875 13.214844 24.15625 12.917969 23.898438 C 11.789062 22.9375 10.699219 22.027344 9.734375 21.226562 L 9.730469 21.222656 C 6.910156 18.878906 4.472656 16.855469 2.78125 14.859375 C 0.886719 12.625 0.00390625 10.515625 0.00390625 8.207031 C 0.00390625 5.960938 0.792969 3.890625 2.222656 2.375 C 3.675781 0.84375 5.664062 -0.00390625 7.824219 -0.00390625 C 9.441406 -0.00390625 10.921875 0.496094 12.222656 1.476562 C 12.882812 1.972656 13.476562 2.578125 14.003906 3.285156 C 14.527344 2.578125 15.125 1.972656 15.785156 1.476562 C 17.085938 0.492188 18.566406 -0.00390625 20.183594 -0.00390625 C 22.34375 -0.00390625 24.335938 0.84375 25.785156 2.375 C 27.214844 3.890625 28.003906 5.960938 28.003906 8.207031 C 28.003906 10.515625 27.121094 12.632812 25.226562 14.859375 C 23.53125 16.851562 21.097656 18.878906 18.277344 21.21875 C 17.3125 22.019531 16.21875 22.925781 15.089844 23.894531 C 14.792969 24.152344 14.40625 24.292969 14.007812 24.292969 Z M 7.820312 1.597656 C 6.121094 1.597656 4.5625 2.261719 3.425781 3.460938 C 2.273438 4.679688 1.636719 6.367188 1.636719 8.207031 C 1.636719 10.148438 2.378906 11.886719 4.039062 13.839844 C 5.644531 15.726562 8.027344 17.710938 10.792969 20.007812 L 10.796875 20.011719 C 11.761719 20.8125 12.855469 21.722656 13.996094 22.695312 C 15.144531 21.722656 16.238281 20.8125 17.203125 20.007812 C 19.964844 17.710938 22.351562 15.726562 23.957031 13.839844 C 25.617188 11.886719 26.359375 10.152344 26.359375 8.207031 C 26.359375 6.363281 25.726562 4.679688 24.570312 3.460938 C 23.433594 2.261719 21.871094 1.597656 20.175781 1.597656 C 18.929688 1.597656 17.785156 1.984375 16.777344 2.746094 C 15.875 3.425781 15.253906 4.285156 14.882812 4.882812 C 14.695312 5.191406 14.363281 5.378906 13.996094 5.378906 C 13.628906 5.378906 13.296875 5.195312 13.109375 4.882812 C 12.738281 4.285156 12.113281 3.425781 11.214844 2.746094 C 10.203125 1.988281 9.0625 1.597656 7.816406 1.597656 Z M 7.820312 1.597656 Z M 7.820312 1.597656 "/>
</g>
</svg>
