<?xml version="1.0" encoding="UTF-8"?>
<svg xmlns="http://www.w3.org/2000/svg" xmlns:xlink="http://www.w3.org/1999/xlink" width="28px" height="28px" viewBox="0 0 28 28" version="1.1">
<g id="surface1">
<path style=" stroke:none;fill-rule:nonzero;fill:rgb(92.941176%,41.176471%,36.078431%);fill-opacity:1;" d="M 14 26.296875 C 13.601562 26.296875 13.214844 26.15625 12.917969 25.898438 C 11.789062 24.9375 10.699219 24.027344 9.734375 23.226562 L 9.730469 23.222656 C 6.910156 20.878906 4.472656 18.855469 2.78125 16.859375 C 0.886719 14.625 0.00390625 12.515625 0.00390625 10.207031 C 0.00390625 7.960938 0.792969 5.890625 2.222656 4.375 C 3.675781 2.84375 5.664062 1.996094 7.824219 1.996094 C 9.441406 1.996094 10.921875 2.496094 12.222656 3.476562 C 12.882812 3.972656 13.476562 4.578125 14.003906 5.285156 C 14.527344 4.578125 15.125 3.972656 15.785156 3.476562 C 17.085938 2.492188 18.566406 1.996094 20.183594 1.996094 C 22.34375 1.996094 24.335938 2.84375 25.785156 4.375 C 27.214844 5.890625 28.003906 7.960938 28.003906 10.207031 C 28.003906 12.515625 27.121094 14.632812 25.226562 16.859375 C 23.53125 18.851562 21.097656 20.878906 18.277344 23.21875 C 17.3125 24.019531 16.21875 24.925781 15.089844 25.894531 C 14.792969 26.152344 14.40625 26.292969 14.007812 26.292969 Z M 7.820312 3.597656 C 6.121094 3.597656 4.5625 4.261719 3.425781 5.460938 C 2.273438 6.679688 1.636719 8.367188 1.636719 10.207031 C 1.636719 12.148438 2.378906 13.886719 4.039062 15.839844 C 5.644531 17.726562 8.027344 19.710938 10.792969 22.007812 L 10.796875 22.011719 C 11.761719 22.8125 12.855469 23.722656 13.996094 24.695312 C 15.144531 23.722656 16.238281 22.8125 17.203125 22.007812 C 19.964844 19.710938 22.351562 17.726562 23.957031 15.839844 C 25.617188 13.886719 26.359375 12.152344 26.359375 10.207031 C 26.359375 8.363281 25.726562 6.679688 24.570312 5.460938 C 23.433594 4.261719 21.871094 3.597656 20.175781 3.597656 C 18.929688 3.597656 17.785156 3.984375 16.777344 4.746094 C 15.875 5.425781 15.253906 6.285156 14.882812 6.882812 C 14.695312 7.191406 14.363281 7.378906 13.996094 7.378906 C 13.628906 7.378906 13.296875 7.195312 13.109375 6.882812 C 12.738281 6.285156 12.113281 5.425781 11.214844 4.746094 C 10.203125 3.988281 9.0625 3.597656 7.816406 3.597656 Z M 7.820312 3.597656 Z M 7.820312 3.597656 "/>
</g>
</svg>
