<?xml version="1.0" encoding="UTF-8"?>
<svg xmlns="http://www.w3.org/2000/svg" xmlns:xlink="http://www.w3.org/1999/xlink" width="28px" height="28px" viewBox="0 0 28 39" version="1.1">
<g id="surface1">
<path style=" stroke:none;fill-rule:nonzero;fill:rgb(92.941176%,41.176471%,36.078431%);fill-opacity:1;" d="M 18.71875 24.816406 C 18.667969 24.816406 18.617188 24.808594 18.570312 24.800781 C 18.519531 24.792969 18.46875 24.773438 18.425781 24.757812 C 18.375 24.742188 18.332031 24.71875 18.292969 24.691406 C 18.25 24.667969 18.207031 24.632812 18.171875 24.601562 C 18.140625 24.566406 18.105469 24.527344 18.082031 24.484375 C 18.054688 24.441406 18.03125 24.402344 18.015625 24.351562 C 17.996094 24.300781 17.980469 24.257812 17.972656 24.210938 C 17.964844 24.160156 17.953125 24.109375 17.953125 24.058594 C 17.953125 24.007812 17.964844 23.960938 17.972656 23.910156 C 17.980469 23.859375 17.996094 23.808594 18.015625 23.769531 C 18.03125 23.71875 18.054688 23.675781 18.082031 23.636719 C 18.105469 23.59375 18.140625 23.550781 18.171875 23.519531 C 18.207031 23.484375 18.25 23.453125 18.292969 23.417969 C 18.332031 23.394531 18.375 23.367188 18.425781 23.351562 C 18.476562 23.335938 18.519531 23.320312 18.570312 23.3125 C 18.667969 23.292969 18.769531 23.292969 18.871094 23.3125 C 18.921875 23.320312 18.972656 23.335938 19.015625 23.351562 C 19.066406 23.367188 19.105469 23.394531 19.148438 23.417969 C 19.191406 23.445312 19.234375 23.476562 19.265625 23.519531 C 19.300781 23.550781 19.332031 23.59375 19.359375 23.636719 C 19.382812 23.675781 19.410156 23.71875 19.425781 23.769531 C 19.441406 23.816406 19.460938 23.859375 19.46875 23.910156 C 19.476562 23.960938 19.484375 24.007812 19.484375 24.058594 C 19.484375 24.109375 19.476562 24.160156 19.46875 24.210938 C 19.460938 24.257812 19.441406 24.308594 19.425781 24.351562 C 19.410156 24.402344 19.382812 24.441406 19.359375 24.484375 C 19.332031 24.527344 19.300781 24.566406 19.265625 24.601562 C 19.234375 24.632812 19.191406 24.667969 19.148438 24.691406 C 19.105469 24.71875 19.066406 24.742188 19.015625 24.757812 C 18.964844 24.773438 18.921875 24.792969 18.871094 24.800781 C 18.820312 24.808594 18.769531 24.816406 18.71875 24.816406 Z M 18.71875 24.816406 Z M 18.71875 24.816406 "/>
<path style=" stroke:none;fill-rule:nonzero;fill:rgb(92.941176%,41.176471%,36.078431%);fill-opacity:1;" d="M 27.898438 32.246094 L 23.570312 24.816406 L 23.972656 24.816406 C 24.25 24.816406 24.503906 24.667969 24.644531 24.433594 C 24.78125 24.191406 24.78125 23.902344 24.644531 23.667969 L 19.820312 15.398438 L 19.980469 15.398438 C 20.257812 15.398438 20.511719 15.25 20.652344 15.015625 C 20.789062 14.785156 20.789062 14.484375 20.652344 14.25 L 17.449219 8.761719 C 17.449219 8.746094 17.449219 8.726562 17.449219 8.703125 L 17.382812 6.324219 L 18.9375 4.328125 C 19.089844 4.128906 19.140625 3.859375 19.066406 3.621094 C 18.988281 3.378906 18.796875 3.195312 18.550781 3.121094 L 16.105469 2.40625 L 14.667969 0.324219 C 14.523438 0.117188 14.28125 -0.0078125 14.03125 -0.0078125 C 13.777344 -0.0078125 13.535156 0.117188 13.390625 0.324219 L 11.953125 2.40625 L 9.507812 3.121094 C 9.261719 3.195312 9.070312 3.378906 8.984375 3.621094 C 8.910156 3.859375 8.953125 4.128906 9.113281 4.328125 L 10.667969 6.324219 L 10.601562 8.703125 C 10.601562 8.71875 10.601562 8.734375 10.601562 8.761719 L 7.398438 14.25 C 7.261719 14.492188 7.261719 14.785156 7.398438 15.015625 C 7.53125 15.257812 7.792969 15.398438 8.070312 15.398438 L 8.230469 15.398438 L 3.40625 23.667969 C 3.269531 23.902344 3.269531 24.199219 3.40625 24.433594 C 3.539062 24.667969 3.800781 24.816406 4.078125 24.816406 L 4.480469 24.816406 L 0.152344 32.246094 C 0.015625 32.488281 0.015625 32.777344 0.152344 33.011719 C 0.285156 33.253906 0.546875 33.394531 0.824219 33.394531 L 10.953125 33.394531 L 10.953125 38.425781 C 10.953125 38.851562 11.296875 39.191406 11.726562 39.191406 L 16.367188 39.191406 C 16.796875 39.191406 17.140625 38.851562 17.140625 38.425781 L 17.140625 33.394531 L 27.269531 33.394531 C 27.546875 33.394531 27.796875 33.242188 27.941406 33.011719 C 28.074219 32.777344 28.074219 32.476562 27.941406 32.246094 Z M 12.625 3.804688 C 12.792969 3.753906 12.945312 3.644531 13.046875 3.503906 L 14.003906 2.121094 L 14.960938 3.503906 C 15.0625 3.644531 15.214844 3.753906 15.382812 3.804688 L 17.003906 4.277344 L 15.972656 5.609375 C 15.863281 5.75 15.804688 5.925781 15.8125 6.097656 L 15.863281 7.769531 L 14.265625 7.207031 C 14.097656 7.148438 13.910156 7.148438 13.742188 7.207031 L 12.148438 7.769531 L 12.195312 6.097656 C 12.207031 5.925781 12.148438 5.75 12.039062 5.609375 L 11.003906 4.277344 Z M 11.945312 9.46875 L 14.003906 8.746094 L 16.0625 9.46875 L 18.636719 13.867188 L 9.382812 13.867188 L 11.953125 9.46875 Z M 15.550781 37.667969 L 12.457031 37.667969 L 12.457031 33.402344 L 15.550781 33.402344 Z M 2.117188 31.871094 L 6.230469 24.824219 L 15.214844 24.824219 C 15.625 24.824219 15.988281 24.515625 16.011719 24.109375 C 16.039062 23.660156 15.683594 23.292969 15.238281 23.292969 L 5.378906 23.292969 L 9.976562 15.40625 L 18.03125 15.40625 L 22.628906 23.292969 L 22.242188 23.292969 C 22.234375 23.292969 22.214844 23.292969 22.183594 23.292969 C 21.59375 23.3125 21.25 23.960938 21.570312 24.449219 L 25.898438 31.871094 Z M 2.117188 31.871094 Z M 2.117188 31.871094 "/>
</g>
</svg>
