<?xml version="1.0" encoding="UTF-8"?>
<svg xmlns="http://www.w3.org/2000/svg" xmlns:xlink="http://www.w3.org/1999/xlink" width="28px" height="28px" viewBox="0 0 28 28" version="1.1">
<g id="surface1">
<path style=" stroke:none;fill-rule:nonzero;fill:rgb(92.941176%,41.176471%,36.078431%);fill-opacity:1;" d="M 17.386719 17.816406 C 17.351562 17.816406 17.316406 17.8125 17.28125 17.804688 C 17.246094 17.800781 17.207031 17.785156 17.175781 17.773438 C 17.140625 17.761719 17.109375 17.746094 17.082031 17.726562 C 17.050781 17.710938 17.019531 17.683594 16.996094 17.664062 C 16.972656 17.636719 16.949219 17.609375 16.929688 17.578125 C 16.910156 17.546875 16.894531 17.519531 16.882812 17.484375 C 16.867188 17.445312 16.859375 17.414062 16.851562 17.382812 C 16.847656 17.347656 16.839844 17.308594 16.839844 17.273438 C 16.839844 17.238281 16.847656 17.203125 16.851562 17.167969 C 16.859375 17.128906 16.867188 17.09375 16.882812 17.066406 C 16.894531 17.027344 16.910156 16.996094 16.929688 16.96875 C 16.949219 16.9375 16.972656 16.910156 16.996094 16.886719 C 17.019531 16.859375 17.050781 16.839844 17.082031 16.8125 C 17.109375 16.796875 17.140625 16.777344 17.175781 16.765625 C 17.214844 16.753906 17.246094 16.742188 17.28125 16.738281 C 17.351562 16.722656 17.425781 16.722656 17.496094 16.738281 C 17.535156 16.742188 17.570312 16.753906 17.601562 16.765625 C 17.636719 16.777344 17.664062 16.796875 17.695312 16.8125 C 17.726562 16.832031 17.757812 16.855469 17.78125 16.886719 C 17.804688 16.910156 17.828125 16.9375 17.847656 16.96875 C 17.863281 16.996094 17.882812 17.027344 17.894531 17.066406 C 17.90625 17.097656 17.921875 17.128906 17.925781 17.167969 C 17.933594 17.203125 17.9375 17.238281 17.9375 17.273438 C 17.9375 17.308594 17.933594 17.347656 17.925781 17.382812 C 17.921875 17.414062 17.90625 17.453125 17.894531 17.484375 C 17.882812 17.519531 17.863281 17.546875 17.847656 17.578125 C 17.828125 17.609375 17.804688 17.636719 17.78125 17.664062 C 17.757812 17.683594 17.726562 17.710938 17.695312 17.726562 C 17.664062 17.746094 17.636719 17.761719 17.601562 17.773438 C 17.566406 17.785156 17.535156 17.800781 17.496094 17.804688 C 17.460938 17.8125 17.425781 17.816406 17.386719 17.816406 Z M 17.386719 17.816406 Z M 17.386719 17.816406 "/>
<path style=" stroke:none;fill-rule:nonzero;fill:rgb(92.941176%,41.176471%,36.078431%);fill-opacity:1;" d="M 23.976562 23.152344 L 20.871094 17.816406 L 21.160156 17.816406 C 21.359375 17.816406 21.542969 17.710938 21.640625 17.542969 C 21.742188 17.367188 21.742188 17.160156 21.640625 16.992188 L 18.179688 11.054688 L 18.292969 11.054688 C 18.492188 11.054688 18.675781 10.949219 18.777344 10.78125 C 18.875 10.613281 18.875 10.398438 18.777344 10.230469 L 16.476562 6.289062 C 16.476562 6.277344 16.476562 6.265625 16.476562 6.25 L 16.429688 4.539062 L 17.542969 3.105469 C 17.652344 2.964844 17.691406 2.769531 17.636719 2.601562 C 17.582031 2.425781 17.445312 2.292969 17.265625 2.242188 L 15.511719 1.726562 L 14.480469 0.234375 C 14.375 0.0859375 14.203125 -0.00390625 14.023438 -0.00390625 C 13.839844 -0.00390625 13.667969 0.0859375 13.5625 0.234375 L 12.53125 1.726562 L 10.773438 2.242188 C 10.597656 2.292969 10.460938 2.425781 10.398438 2.601562 C 10.347656 2.769531 10.375 2.964844 10.492188 3.105469 L 11.609375 4.539062 L 11.558594 6.25 C 11.558594 6.257812 11.558594 6.269531 11.558594 6.289062 L 9.261719 10.230469 C 9.164062 10.40625 9.164062 10.613281 9.261719 10.78125 C 9.355469 10.953125 9.542969 11.054688 9.742188 11.054688 L 9.859375 11.054688 L 6.394531 16.992188 C 6.296875 17.160156 6.296875 17.375 6.394531 17.542969 C 6.488281 17.710938 6.675781 17.816406 6.875 17.816406 L 7.164062 17.816406 L 4.058594 23.152344 C 3.960938 23.324219 3.960938 23.53125 4.058594 23.699219 C 4.152344 23.875 4.339844 23.976562 4.539062 23.976562 L 11.8125 23.976562 L 11.8125 27.585938 C 11.8125 27.894531 12.058594 28.136719 12.367188 28.136719 L 15.699219 28.136719 C 16.007812 28.136719 16.253906 27.894531 16.253906 27.585938 L 16.253906 23.976562 L 23.527344 23.976562 C 23.726562 23.976562 23.90625 23.867188 24.007812 23.699219 C 24.105469 23.53125 24.105469 23.316406 24.007812 23.152344 Z M 13.011719 2.730469 C 13.132812 2.695312 13.242188 2.617188 13.316406 2.515625 L 14.003906 1.523438 L 14.691406 2.515625 C 14.761719 2.617188 14.871094 2.695312 14.992188 2.730469 L 16.15625 3.070312 L 15.417969 4.027344 C 15.335938 4.128906 15.296875 4.253906 15.300781 4.378906 L 15.335938 5.578125 L 14.191406 5.175781 C 14.070312 5.132812 13.933594 5.132812 13.816406 5.175781 L 12.671875 5.578125 L 12.703125 4.378906 C 12.710938 4.253906 12.671875 4.128906 12.59375 4.027344 L 11.847656 3.070312 Z M 12.523438 6.796875 L 14.003906 6.277344 L 15.480469 6.796875 L 17.328125 9.957031 L 10.683594 9.957031 L 12.53125 6.796875 Z M 15.113281 27.042969 L 12.890625 27.042969 L 12.890625 23.980469 L 15.113281 23.980469 Z M 5.46875 22.882812 L 8.421875 17.824219 L 14.871094 17.824219 C 15.167969 17.824219 15.425781 17.601562 15.445312 17.308594 C 15.464844 16.988281 15.207031 16.722656 14.890625 16.722656 L 7.808594 16.722656 L 11.113281 11.0625 L 16.894531 11.0625 L 20.195312 16.722656 L 19.917969 16.722656 C 19.910156 16.722656 19.898438 16.722656 19.875 16.722656 C 19.453125 16.738281 19.207031 17.203125 19.433594 17.554688 L 22.542969 22.882812 Z M 5.46875 22.882812 Z M 5.46875 22.882812 "/>
</g>
</svg>
