<?xml version="1.0" encoding="UTF-8"?>
<svg xmlns="http://www.w3.org/2000/svg" xmlns:xlink="http://www.w3.org/1999/xlink" width="28px" height="28px" viewBox="0 0 28 28" version="1.1">
<g id="surface1">
<path style=" stroke:none;fill-rule:nonzero;fill:rgb(92.941176%,41.176471%,36.078431%);fill-opacity:1;" d="M 27.269531 12.820312 L 23.300781 12.820312 C 23.113281 12.109375 22.449219 11.582031 21.65625 11.570312 C 21.652344 11.570312 21.648438 11.566406 21.640625 11.566406 L 17.308594 11.566406 C 16.503906 11.566406 15.832031 12.101562 15.640625 12.820312 L 11.683594 12.820312 L 11.683594 12.8125 C 11.683594 11.898438 10.90625 11.152344 9.953125 11.152344 C 9.949219 11.152344 9.945312 11.152344 9.945312 11.152344 L 9.089844 11.152344 L 9.089844 10.699219 C 9.808594 10.296875 10.359375 9.664062 10.636719 8.894531 C 10.757812 9.210938 10.828125 9.546875 10.828125 9.898438 C 10.828125 10.128906 11.023438 10.3125 11.257812 10.3125 C 11.5 10.3125 11.6875 10.125 11.6875 9.898438 L 11.6875 5.738281 C 11.6875 3.675781 9.945312 1.996094 7.792969 1.996094 C 7.019531 1.996094 6.21875 2.289062 5.460938 2.84375 C 4.582031 2.925781 3.898438 3.628906 3.898438 4.492188 L 3.898438 7.820312 C 3.898438 9.050781 4.59375 10.121094 5.625 10.695312 L 5.625 11.148438 L 4.773438 11.148438 C 4.769531 11.148438 4.765625 11.148438 4.765625 11.148438 C 3.8125 11.148438 3.035156 11.894531 3.035156 12.808594 L 3.035156 12.8125 L 0.4375 12.8125 C 0.195312 12.8125 0.00390625 13 0.00390625 13.226562 L 0.00390625 14.890625 C 0.00390625 15.121094 0.199219 15.304688 0.4375 15.304688 L 0.4375 23.207031 C 0.4375 24.8125 1.796875 26.113281 3.460938 26.121094 C 3.460938 26.121094 3.464844 26.121094 3.464844 26.121094 L 24.238281 26.121094 C 25.910156 26.121094 27.269531 24.8125 27.269531 23.207031 L 27.269531 15.304688 C 27.507812 15.304688 27.699219 15.117188 27.699219 14.890625 L 27.699219 13.226562 C 27.699219 12.996094 27.503906 12.8125 27.269531 12.8125 Z M 21.632812 12.398438 C 21.953125 12.398438 22.230469 12.566406 22.378906 12.820312 L 20.886719 12.820312 C 21.035156 12.566406 21.3125 12.398438 21.632812 12.398438 Z M 20.78125 17.8125 L 20.78125 15.316406 L 22.070312 15.316406 L 22.070312 19.058594 L 18.609375 19.058594 L 18.609375 18.230469 L 20.34375 18.230469 C 20.585938 18.230469 20.773438 18.042969 20.773438 17.816406 Z M 16.449219 13.226562 C 16.449219 12.769531 16.832031 12.394531 17.316406 12.394531 L 20.136719 12.394531 C 19.988281 12.640625 19.898438 12.925781 19.898438 13.226562 C 19.898438 13.253906 19.90625 13.273438 19.914062 13.289062 L 19.914062 17.386719 L 16.449219 17.386719 L 16.449219 13.222656 Z M 16.015625 18.226562 L 17.746094 18.226562 L 17.746094 19.054688 L 14.28125 19.054688 L 14.28125 15.308594 L 15.585938 15.308594 L 15.585938 17.804688 C 15.585938 18.039062 15.78125 18.222656 16.015625 18.222656 Z M 6.0625 3.449219 C 6.5 3.140625 7.109375 2.828125 7.792969 2.828125 C 9.460938 2.828125 10.820312 4.136719 10.820312 5.738281 L 10.820312 7.550781 C 10.785156 7.507812 10.75 7.46875 10.710938 7.429688 C 10.699219 7.417969 10.691406 7.40625 10.675781 7.398438 C 9.964844 6.640625 8.9375 6.160156 7.789062 6.160156 L 6.921875 6.160156 C 6.445312 6.160156 6.050781 5.789062 6.050781 5.324219 L 6.050781 3.449219 Z M 4.765625 4.492188 C 4.765625 4.183594 4.941406 3.917969 5.195312 3.773438 L 5.195312 5.320312 C 5.195312 5.628906 5.019531 5.894531 4.765625 6.039062 Z M 4.765625 7.816406 L 4.765625 6.925781 C 5.105469 6.839844 5.40625 6.65625 5.632812 6.410156 C 5.949219 6.761719 6.410156 6.984375 6.929688 6.984375 L 7.796875 6.984375 C 8.644531 6.984375 9.40625 7.320312 9.957031 7.859375 C 9.933594 9.214844 8.78125 10.3125 7.367188 10.3125 C 5.933594 10.3125 4.769531 9.195312 4.769531 7.816406 Z M 3.898438 12.808594 C 3.898438 12.351562 4.28125 11.984375 4.753906 11.980469 C 4.757812 11.980469 4.757812 11.980469 4.765625 11.980469 L 6.0625 11.980469 C 6.304688 11.980469 6.492188 11.792969 6.492188 11.566406 L 6.492188 11.035156 C 6.769531 11.101562 7.0625 11.148438 7.363281 11.148438 C 7.664062 11.148438 7.949219 11.109375 8.230469 11.035156 L 8.230469 11.5625 C 8.230469 11.792969 8.425781 11.976562 8.660156 11.976562 L 9.957031 11.976562 C 9.964844 11.976562 9.964844 11.976562 9.96875 11.976562 C 10.441406 11.980469 10.828125 12.351562 10.828125 12.804688 L 10.828125 12.808594 L 3.902344 12.808594 L 3.902344 12.804688 Z M 0.867188 13.648438 L 15.585938 13.648438 L 15.585938 14.480469 L 0.867188 14.480469 Z M 13.414062 15.308594 L 13.414062 19.054688 L 9.949219 19.054688 L 9.949219 15.308594 Z M 9.085938 15.308594 L 9.085938 19.054688 L 5.621094 19.054688 L 5.621094 15.308594 Z M 4.757812 15.308594 L 4.757812 19.054688 L 1.304688 19.054688 L 1.304688 15.308594 Z M 4.757812 25.296875 L 3.46875 25.296875 C 3.46875 25.296875 3.46875 25.296875 3.464844 25.296875 C 2.273438 25.296875 1.300781 24.359375 1.300781 23.21875 L 1.300781 21.550781 L 4.753906 21.550781 L 4.753906 25.296875 Z M 9.085938 25.296875 L 5.621094 25.296875 L 5.621094 21.550781 L 9.085938 21.550781 Z M 13.414062 25.296875 L 9.949219 25.296875 L 9.949219 21.550781 L 13.414062 21.550781 Z M 17.742188 25.296875 L 14.277344 25.296875 L 14.277344 21.550781 L 17.742188 21.550781 Z M 22.070312 25.296875 L 18.609375 25.296875 L 18.609375 21.550781 L 22.070312 21.550781 Z M 26.402344 23.214844 C 26.402344 24.359375 25.429688 25.296875 24.234375 25.296875 L 22.929688 25.296875 L 22.929688 21.550781 L 26.402344 21.550781 L 26.402344 23.21875 Z M 26.402344 20.71875 L 22.503906 20.71875 C 22.503906 20.71875 22.5 20.71875 22.5 20.71875 C 22.5 20.71875 22.5 20.71875 22.496094 20.71875 L 18.175781 20.71875 C 18.175781 20.71875 18.175781 20.71875 18.171875 20.71875 C 18.171875 20.71875 18.167969 20.71875 18.167969 20.71875 L 13.84375 20.71875 C 13.84375 20.71875 13.839844 20.71875 13.839844 20.71875 C 13.839844 20.71875 13.839844 20.71875 13.835938 20.71875 L 9.511719 20.71875 C 9.511719 20.71875 9.507812 20.71875 9.507812 20.71875 C 9.507812 20.71875 9.503906 20.71875 9.503906 20.71875 L 5.179688 20.71875 C 5.179688 20.71875 5.175781 20.71875 5.175781 20.71875 C 5.175781 20.71875 5.175781 20.71875 5.171875 20.71875 L 1.289062 20.71875 L 1.289062 19.882812 L 26.390625 19.882812 L 26.390625 20.71875 Z M 26.402344 19.054688 L 22.929688 19.054688 L 22.929688 15.308594 L 26.402344 15.308594 Z M 26.832031 14.480469 L 20.773438 14.480469 L 20.773438 13.648438 L 26.832031 13.648438 Z M 26.832031 14.480469 Z M 26.832031 14.480469 "/>
<path style=" stroke:none;fill-rule:nonzero;fill:rgb(92.941176%,41.176471%,36.078431%);fill-opacity:1;" d="M 16.140625 8.957031 C 16.226562 9.039062 16.335938 9.078125 16.449219 9.078125 C 16.558594 9.078125 16.671875 9.035156 16.753906 8.953125 C 16.785156 8.925781 17.53125 8.171875 16.832031 6.8125 C 16.425781 6.023438 16.738281 5.648438 16.761719 5.617188 C 16.925781 5.457031 16.917969 5.195312 16.753906 5.039062 C 16.582031 4.878906 16.308594 4.882812 16.140625 5.046875 C 16.113281 5.078125 15.363281 5.828125 16.0625 7.183594 C 16.472656 7.988281 16.148438 8.367188 16.140625 8.371094 C 15.972656 8.535156 15.976562 8.792969 16.148438 8.957031 Z M 16.140625 8.957031 Z M 16.140625 8.957031 "/>
<path style=" stroke:none;fill-rule:nonzero;fill:rgb(92.941176%,41.176471%,36.078431%);fill-opacity:1;" d="M 19.171875 8.953125 C 19.253906 9.035156 19.367188 9.074219 19.476562 9.074219 C 19.585938 9.074219 19.695312 9.035156 19.78125 8.953125 C 19.816406 8.925781 20.570312 8.171875 19.863281 6.808594 C 19.449219 6.023438 19.761719 5.648438 19.789062 5.617188 C 19.949219 5.457031 19.949219 5.199219 19.777344 5.039062 C 19.605469 4.878906 19.335938 4.878906 19.164062 5.039062 C 19.136719 5.070312 18.378906 5.820312 19.085938 7.183594 C 19.5 7.984375 19.171875 8.359375 19.164062 8.367188 C 18.996094 8.53125 18.996094 8.789062 19.164062 8.953125 Z M 19.171875 8.953125 Z M 19.171875 8.953125 "/>
<path style=" stroke:none;fill-rule:nonzero;fill:rgb(92.941176%,41.176471%,36.078431%);fill-opacity:1;" d="M 22.199219 8.953125 C 22.285156 9.035156 22.394531 9.074219 22.503906 9.074219 C 22.613281 9.074219 22.726562 9.035156 22.8125 8.953125 C 22.839844 8.925781 23.597656 8.171875 22.890625 6.808594 C 22.480469 6.023438 22.789062 5.648438 22.816406 5.617188 C 22.976562 5.457031 22.976562 5.199219 22.804688 5.039062 C 22.636719 4.878906 22.363281 4.878906 22.195312 5.039062 C 22.164062 5.074219 21.40625 5.820312 22.113281 7.183594 C 22.53125 7.984375 22.199219 8.359375 22.195312 8.367188 C 22.023438 8.53125 22.023438 8.789062 22.195312 8.953125 Z M 22.199219 8.953125 Z M 22.199219 8.953125 "/>
</g>
</svg>
