<?xml version="1.0" encoding="UTF-8"?>
<svg xmlns="http://www.w3.org/2000/svg" xmlns:xlink="http://www.w3.org/1999/xlink" width="28px" height="28px" viewBox="0 0 28 24" version="1.1">
<g id="surface1">
<path style=" stroke:none;fill-rule:nonzero;fill:rgb(92.941176%,41.176471%,36.078431%);fill-opacity:1;" d="M 27.269531 10.820312 L 23.300781 10.820312 C 23.113281 10.109375 22.449219 9.582031 21.65625 9.570312 C 21.652344 9.570312 21.648438 9.566406 21.640625 9.566406 L 17.308594 9.566406 C 16.503906 9.566406 15.832031 10.101562 15.640625 10.820312 L 11.683594 10.820312 L 11.683594 10.8125 C 11.683594 9.898438 10.90625 9.152344 9.953125 9.152344 C 9.949219 9.152344 9.945312 9.152344 9.945312 9.152344 L 9.089844 9.152344 L 9.089844 8.699219 C 9.808594 8.296875 10.359375 7.664062 10.636719 6.894531 C 10.757812 7.210938 10.828125 7.546875 10.828125 7.898438 C 10.828125 8.128906 11.023438 8.3125 11.257812 8.3125 C 11.5 8.3125 11.6875 8.125 11.6875 7.898438 L 11.6875 3.738281 C 11.6875 1.675781 9.945312 -0.00390625 7.792969 -0.00390625 C 7.019531 -0.00390625 6.21875 0.289062 5.460938 0.84375 C 4.582031 0.925781 3.898438 1.628906 3.898438 2.492188 L 3.898438 5.820312 C 3.898438 7.050781 4.59375 8.121094 5.625 8.695312 L 5.625 9.148438 L 4.773438 9.148438 C 4.769531 9.148438 4.765625 9.148438 4.765625 9.148438 C 3.8125 9.148438 3.035156 9.894531 3.035156 10.808594 L 3.035156 10.8125 L 0.4375 10.8125 C 0.195312 10.8125 0.00390625 11 0.00390625 11.226562 L 0.00390625 12.890625 C 0.00390625 13.121094 0.199219 13.304688 0.4375 13.304688 L 0.4375 21.207031 C 0.4375 22.8125 1.796875 24.113281 3.460938 24.121094 C 3.460938 24.121094 3.464844 24.121094 3.464844 24.121094 L 24.238281 24.121094 C 25.910156 24.121094 27.269531 22.8125 27.269531 21.207031 L 27.269531 13.304688 C 27.507812 13.304688 27.699219 13.117188 27.699219 12.890625 L 27.699219 11.226562 C 27.699219 10.996094 27.503906 10.8125 27.269531 10.8125 Z M 21.632812 10.398438 C 21.953125 10.398438 22.230469 10.566406 22.378906 10.820312 L 20.886719 10.820312 C 21.035156 10.566406 21.3125 10.398438 21.632812 10.398438 Z M 20.78125 15.8125 L 20.78125 13.316406 L 22.070312 13.316406 L 22.070312 17.058594 L 18.609375 17.058594 L 18.609375 16.230469 L 20.34375 16.230469 C 20.585938 16.230469 20.773438 16.042969 20.773438 15.816406 Z M 16.449219 11.226562 C 16.449219 10.769531 16.832031 10.394531 17.316406 10.394531 L 20.136719 10.394531 C 19.988281 10.640625 19.898438 10.925781 19.898438 11.226562 C 19.898438 11.253906 19.90625 11.273438 19.914062 11.289062 L 19.914062 15.386719 L 16.449219 15.386719 L 16.449219 11.222656 Z M 16.015625 16.226562 L 17.746094 16.226562 L 17.746094 17.054688 L 14.28125 17.054688 L 14.28125 13.308594 L 15.585938 13.308594 L 15.585938 15.804688 C 15.585938 16.039062 15.78125 16.222656 16.015625 16.222656 Z M 6.0625 1.449219 C 6.5 1.140625 7.109375 0.828125 7.792969 0.828125 C 9.460938 0.828125 10.820312 2.136719 10.820312 3.738281 L 10.820312 5.550781 C 10.785156 5.507812 10.75 5.46875 10.710938 5.429688 C 10.699219 5.417969 10.691406 5.40625 10.675781 5.398438 C 9.964844 4.640625 8.9375 4.160156 7.789062 4.160156 L 6.921875 4.160156 C 6.445312 4.160156 6.050781 3.789062 6.050781 3.324219 L 6.050781 1.449219 Z M 4.765625 2.492188 C 4.765625 2.183594 4.941406 1.917969 5.195312 1.773438 L 5.195312 3.320312 C 5.195312 3.628906 5.019531 3.894531 4.765625 4.039062 Z M 4.765625 5.816406 L 4.765625 4.925781 C 5.105469 4.839844 5.40625 4.65625 5.632812 4.410156 C 5.949219 4.761719 6.410156 4.984375 6.929688 4.984375 L 7.796875 4.984375 C 8.644531 4.984375 9.40625 5.320312 9.957031 5.859375 C 9.933594 7.214844 8.78125 8.3125 7.367188 8.3125 C 5.933594 8.3125 4.769531 7.195312 4.769531 5.816406 Z M 3.898438 10.808594 C 3.898438 10.351562 4.28125 9.984375 4.753906 9.980469 C 4.757812 9.980469 4.757812 9.980469 4.765625 9.980469 L 6.0625 9.980469 C 6.304688 9.980469 6.492188 9.792969 6.492188 9.566406 L 6.492188 9.035156 C 6.769531 9.101562 7.0625 9.148438 7.363281 9.148438 C 7.664062 9.148438 7.949219 9.109375 8.230469 9.035156 L 8.230469 9.5625 C 8.230469 9.792969 8.425781 9.976562 8.660156 9.976562 L 9.957031 9.976562 C 9.964844 9.976562 9.964844 9.976562 9.96875 9.976562 C 10.441406 9.980469 10.828125 10.351562 10.828125 10.804688 L 10.828125 10.808594 L 3.902344 10.808594 L 3.902344 10.804688 Z M 0.867188 11.648438 L 15.585938 11.648438 L 15.585938 12.480469 L 0.867188 12.480469 Z M 13.414062 13.308594 L 13.414062 17.054688 L 9.949219 17.054688 L 9.949219 13.308594 Z M 9.085938 13.308594 L 9.085938 17.054688 L 5.621094 17.054688 L 5.621094 13.308594 Z M 4.757812 13.308594 L 4.757812 17.054688 L 1.304688 17.054688 L 1.304688 13.308594 Z M 4.757812 23.296875 L 3.46875 23.296875 C 3.46875 23.296875 3.46875 23.296875 3.464844 23.296875 C 2.273438 23.296875 1.300781 22.359375 1.300781 21.21875 L 1.300781 19.550781 L 4.753906 19.550781 L 4.753906 23.296875 Z M 9.085938 23.296875 L 5.621094 23.296875 L 5.621094 19.550781 L 9.085938 19.550781 Z M 13.414062 23.296875 L 9.949219 23.296875 L 9.949219 19.550781 L 13.414062 19.550781 Z M 17.742188 23.296875 L 14.277344 23.296875 L 14.277344 19.550781 L 17.742188 19.550781 Z M 22.070312 23.296875 L 18.609375 23.296875 L 18.609375 19.550781 L 22.070312 19.550781 Z M 26.402344 21.214844 C 26.402344 22.359375 25.429688 23.296875 24.234375 23.296875 L 22.929688 23.296875 L 22.929688 19.550781 L 26.402344 19.550781 L 26.402344 21.21875 Z M 26.402344 18.71875 L 22.503906 18.71875 C 22.503906 18.71875 22.5 18.71875 22.5 18.71875 C 22.5 18.71875 22.5 18.71875 22.496094 18.71875 L 18.175781 18.71875 C 18.175781 18.71875 18.175781 18.71875 18.171875 18.71875 C 18.171875 18.71875 18.167969 18.71875 18.167969 18.71875 L 13.84375 18.71875 C 13.84375 18.71875 13.839844 18.71875 13.839844 18.71875 C 13.839844 18.71875 13.839844 18.71875 13.835938 18.71875 L 9.511719 18.71875 C 9.511719 18.71875 9.507812 18.71875 9.507812 18.71875 C 9.507812 18.71875 9.503906 18.71875 9.503906 18.71875 L 5.179688 18.71875 C 5.179688 18.71875 5.175781 18.71875 5.175781 18.71875 C 5.175781 18.71875 5.175781 18.71875 5.171875 18.71875 L 1.289062 18.71875 L 1.289062 17.882812 L 26.390625 17.882812 L 26.390625 18.71875 Z M 26.402344 17.054688 L 22.929688 17.054688 L 22.929688 13.308594 L 26.402344 13.308594 Z M 26.832031 12.480469 L 20.773438 12.480469 L 20.773438 11.648438 L 26.832031 11.648438 Z M 26.832031 12.480469 Z M 26.832031 12.480469 "/>
<path style=" stroke:none;fill-rule:nonzero;fill:rgb(92.941176%,41.176471%,36.078431%);fill-opacity:1;" d="M 16.140625 6.957031 C 16.226562 7.039062 16.335938 7.078125 16.449219 7.078125 C 16.558594 7.078125 16.671875 7.035156 16.753906 6.953125 C 16.785156 6.925781 17.53125 6.171875 16.832031 4.8125 C 16.425781 4.023438 16.738281 3.648438 16.761719 3.617188 C 16.925781 3.457031 16.917969 3.195312 16.753906 3.039062 C 16.582031 2.878906 16.308594 2.882812 16.140625 3.046875 C 16.113281 3.078125 15.363281 3.828125 16.0625 5.183594 C 16.472656 5.988281 16.148438 6.367188 16.140625 6.371094 C 15.972656 6.535156 15.976562 6.792969 16.148438 6.957031 Z M 16.140625 6.957031 Z M 16.140625 6.957031 "/>
<path style=" stroke:none;fill-rule:nonzero;fill:rgb(92.941176%,41.176471%,36.078431%);fill-opacity:1;" d="M 19.171875 6.953125 C 19.253906 7.035156 19.367188 7.074219 19.476562 7.074219 C 19.585938 7.074219 19.695312 7.035156 19.78125 6.953125 C 19.816406 6.925781 20.570312 6.171875 19.863281 4.808594 C 19.449219 4.023438 19.761719 3.648438 19.789062 3.617188 C 19.949219 3.457031 19.949219 3.199219 19.777344 3.039062 C 19.605469 2.878906 19.335938 2.878906 19.164062 3.039062 C 19.136719 3.070312 18.378906 3.820312 19.085938 5.183594 C 19.5 5.984375 19.171875 6.359375 19.164062 6.367188 C 18.996094 6.53125 18.996094 6.789062 19.164062 6.953125 Z M 19.171875 6.953125 Z M 19.171875 6.953125 "/>
<path style=" stroke:none;fill-rule:nonzero;fill:rgb(92.941176%,41.176471%,36.078431%);fill-opacity:1;" d="M 22.199219 6.953125 C 22.285156 7.035156 22.394531 7.074219 22.503906 7.074219 C 22.613281 7.074219 22.726562 7.035156 22.8125 6.953125 C 22.839844 6.925781 23.597656 6.171875 22.890625 4.808594 C 22.480469 4.023438 22.789062 3.648438 22.816406 3.617188 C 22.976562 3.457031 22.976562 3.199219 22.804688 3.039062 C 22.636719 2.878906 22.363281 2.878906 22.195312 3.039062 C 22.164062 3.074219 21.40625 3.820312 22.113281 5.183594 C 22.53125 5.984375 22.199219 6.359375 22.195312 6.367188 C 22.023438 6.53125 22.023438 6.789062 22.195312 6.953125 Z M 22.199219 6.953125 Z M 22.199219 6.953125 "/>
</g>
</svg>
