<?xml version="1.0" encoding="UTF-8"?>
<svg xmlns="http://www.w3.org/2000/svg" xmlns:xlink="http://www.w3.org/1999/xlink" width="28px" height="28px" viewBox="0 0 28 21" version="1.1">
<g id="surface1">
<path style=" stroke:none;fill-rule:nonzero;fill:rgb(92.941176%,41.176471%,36.078431%);fill-opacity:1;" d="M 0.636719 15.90625 C 0.644531 15.90625 0.652344 15.90625 0.660156 15.90625 C 0.859375 15.90625 1.058594 15.921875 1.257812 15.953125 C 1.273438 15.957031 1.289062 15.960938 1.304688 15.964844 C 1.746094 16.046875 2.160156 16.214844 2.539062 16.453125 C 3.265625 16.921875 4.121094 17.167969 4.996094 17.167969 C 5.03125 17.167969 5.058594 17.167969 5.09375 17.167969 C 5.125 17.167969 5.164062 17.167969 5.195312 17.167969 C 6.054688 17.167969 6.898438 16.925781 7.617188 16.464844 C 7.625 16.460938 7.632812 16.457031 7.644531 16.453125 C 8.179688 16.097656 8.8125 15.90625 9.464844 15.90625 C 9.492188 15.90625 9.519531 15.90625 9.542969 15.90625 C 9.570312 15.90625 9.59375 15.90625 9.617188 15.90625 C 10.273438 15.90625 10.914062 16.097656 11.453125 16.449219 C 12.175781 16.917969 13.03125 17.164062 13.90625 17.164062 C 13.9375 17.164062 13.972656 17.164062 14 17.164062 C 14.027344 17.164062 14.058594 17.164062 14.085938 17.164062 C 14.964844 17.164062 15.824219 16.917969 16.554688 16.449219 C 17.09375 16.09375 17.722656 15.902344 18.378906 15.902344 C 18.402344 15.902344 18.429688 15.902344 18.457031 15.902344 C 18.480469 15.902344 18.5 15.902344 18.527344 15.902344 C 19.183594 15.902344 19.828125 16.09375 20.375 16.453125 C 21.101562 16.917969 21.953125 17.164062 22.824219 17.164062 C 22.855469 17.164062 22.886719 17.164062 22.914062 17.164062 C 22.949219 17.164062 22.980469 17.164062 23.015625 17.164062 C 23.589844 17.164062 24.160156 17.054688 24.691406 16.84375 C 24.960938 16.730469 25.222656 16.597656 25.46875 16.449219 C 26.019531 16.09375 26.667969 15.902344 27.335938 15.902344 C 27.351562 15.902344 27.367188 15.902344 27.378906 15.902344 C 27.730469 15.902344 28.015625 15.628906 28.015625 15.289062 C 28.015625 14.953125 27.730469 14.675781 27.378906 14.675781 C 27.363281 14.675781 27.34375 14.675781 27.328125 14.675781 C 27.097656 14.675781 26.867188 14.691406 26.640625 14.726562 C 25.996094 14.820312 25.375 15.046875 24.824219 15.390625 C 24.621094 15.507812 24.414062 15.617188 24.195312 15.710938 C 23.824219 15.859375 23.425781 15.9375 23.019531 15.9375 C 22.984375 15.9375 22.953125 15.9375 22.921875 15.9375 C 22.894531 15.9375 22.867188 15.9375 22.835938 15.9375 C 22.179688 15.9375 21.539062 15.746094 20.996094 15.382812 C 20.464844 15.050781 19.867188 14.828125 19.238281 14.730469 L 13.992188 7.347656 L 20.710938 4.101562 C 21.476562 3.734375 21.960938 2.976562 21.960938 2.152344 C 21.960938 1.683594 21.804688 1.222656 21.511719 0.847656 C 21.078125 0.308594 20.40625 -0.0078125 19.695312 -0.0078125 C 19.363281 -0.0078125 19.039062 0.0585938 18.742188 0.191406 L 9.457031 4.429688 C 8.550781 4.84375 7.8125 5.734375 7.976562 6.6875 C 8.179688 7.871094 8.472656 8.035156 9.566406 8.78125 L 1.324219 14.714844 C 1.097656 14.6875 0.875 14.671875 0.652344 14.671875 C 0.300781 14.671875 0.015625 14.945312 0.015625 15.285156 C 0.015625 15.625 0.300781 15.898438 0.652344 15.898438 Z M 10.1875 9.878906 C 10.582031 9.652344 10.820312 9.246094 10.820312 8.808594 C 10.820312 7.628906 9.238281 7.847656 9.238281 6.691406 C 9.238281 6.203125 9.53125 5.75 9.992188 5.542969 L 19.273438 1.308594 C 19.40625 1.246094 19.550781 1.210938 19.699219 1.210938 C 20.242188 1.210938 20.679688 1.632812 20.679688 2.15625 C 20.679688 2.234375 20.671875 2.308594 20.652344 2.382812 C 20.585938 2.65625 20.394531 2.886719 20.132812 3.003906 L 13.417969 6.246094 C 13.082031 6.402344 12.839844 6.691406 12.742188 7.039062 C 12.714844 7.144531 12.703125 7.25 12.703125 7.359375 C 12.703125 7.609375 12.78125 7.855469 12.929688 8.0625 L 17.683594 14.730469 C 17.050781 14.828125 16.441406 15.054688 15.90625 15.390625 C 15.371094 15.746094 14.734375 15.9375 14.085938 15.9375 C 14.058594 15.9375 14.027344 15.9375 14 15.9375 C 13.976562 15.9375 13.945312 15.9375 13.921875 15.9375 C 13.265625 15.9375 12.625 15.746094 12.082031 15.382812 C 11.355469 14.921875 10.503906 14.675781 9.636719 14.675781 C 9.605469 14.675781 9.574219 14.675781 9.542969 14.675781 C 9.515625 14.675781 9.476562 14.675781 9.449219 14.675781 C 8.582031 14.675781 7.734375 14.921875 7.015625 15.382812 C 7.007812 15.386719 6.992188 15.394531 6.984375 15.398438 C 6.457031 15.75 5.828125 15.9375 5.1875 15.9375 C 5.160156 15.9375 5.125 15.9375 5.097656 15.9375 C 5.070312 15.9375 5.042969 15.9375 5.019531 15.9375 C 4.363281 15.9375 3.722656 15.746094 3.1875 15.390625 C 3.097656 15.335938 3.003906 15.285156 2.910156 15.238281 L 10.191406 9.878906 Z M 10.1875 9.878906 "/>
<path style=" stroke:none;fill-rule:nonzero;fill:rgb(92.941176%,41.176471%,36.078431%);fill-opacity:1;" d="M 27.363281 18.453125 C 27.335938 18.453125 27.300781 18.453125 27.273438 18.453125 C 26.398438 18.453125 25.539062 18.703125 24.8125 19.167969 C 24.246094 19.523438 23.582031 19.714844 22.902344 19.714844 C 22.226562 19.714844 21.5625 19.523438 20.992188 19.167969 C 20.234375 18.703125 19.34375 18.453125 18.445312 18.453125 C 17.542969 18.453125 16.652344 18.703125 15.894531 19.167969 C 15.355469 19.523438 14.71875 19.714844 14.066406 19.714844 C 14.042969 19.714844 14.011719 19.714844 13.988281 19.714844 C 13.960938 19.714844 13.9375 19.714844 13.910156 19.714844 C 13.257812 19.714844 12.621094 19.523438 12.082031 19.167969 C 11.355469 18.703125 10.5 18.453125 9.625 18.453125 C 9.597656 18.453125 9.566406 18.453125 9.535156 18.453125 C 9.507812 18.453125 9.472656 18.453125 9.445312 18.453125 C 8.574219 18.453125 7.71875 18.703125 6.984375 19.167969 C 6.449219 19.523438 5.8125 19.714844 5.160156 19.714844 C 5.132812 19.714844 5.105469 19.714844 5.078125 19.714844 C 5.054688 19.714844 5.03125 19.714844 5 19.714844 C 4.347656 19.714844 3.710938 19.523438 3.175781 19.167969 C 2.445312 18.703125 1.589844 18.453125 0.71875 18.453125 C 0.691406 18.453125 0.65625 18.453125 0.628906 18.453125 C 0.277344 18.453125 -0.0078125 18.730469 -0.0078125 19.070312 C -0.0078125 19.40625 0.277344 19.683594 0.628906 19.683594 C 0.652344 19.683594 0.679688 19.683594 0.707031 19.683594 C 1.359375 19.683594 1.996094 19.875 2.535156 20.226562 C 3.261719 20.695312 4.117188 20.941406 4.988281 20.941406 C 5.019531 20.941406 5.050781 20.941406 5.078125 20.941406 C 5.109375 20.941406 5.140625 20.941406 5.171875 20.941406 C 6.042969 20.941406 6.898438 20.695312 7.628906 20.226562 C 8.167969 19.875 8.804688 19.683594 9.457031 19.683594 C 9.480469 19.683594 9.511719 19.683594 9.535156 19.683594 C 9.5625 19.683594 9.585938 19.683594 9.613281 19.683594 C 10.265625 19.683594 10.902344 19.875 11.441406 20.226562 C 12.167969 20.695312 13.023438 20.941406 13.898438 20.941406 C 13.925781 20.941406 13.957031 20.941406 13.988281 20.941406 C 14.015625 20.941406 14.050781 20.941406 14.078125 20.941406 C 14.949219 20.941406 15.808594 20.695312 16.539062 20.226562 C 17.105469 19.875 17.769531 19.683594 18.445312 19.683594 C 19.121094 19.683594 19.78125 19.875 20.347656 20.226562 C 21.109375 20.695312 22 20.941406 22.898438 20.941406 C 23.800781 20.941406 24.6875 20.695312 25.449219 20.226562 C 25.988281 19.875 26.628906 19.683594 27.28125 19.683594 C 27.304688 19.683594 27.335938 19.683594 27.359375 19.683594 C 27.710938 19.683594 27.996094 19.40625 27.996094 19.070312 C 27.996094 18.730469 27.710938 18.453125 27.359375 18.453125 Z M 27.363281 18.453125 "/>
<path style=" stroke:none;fill-rule:nonzero;fill:rgb(92.941176%,41.176471%,36.078431%);fill-opacity:1;" d="M 18.253906 9.636719 C 18.253906 12.058594 20.292969 14.023438 22.800781 14.023438 C 25.3125 14.023438 27.347656 12.058594 27.347656 9.636719 C 27.347656 7.214844 25.308594 5.253906 22.800781 5.253906 C 20.292969 5.257812 18.253906 7.21875 18.253906 9.636719 Z M 22.800781 6.480469 C 24.609375 6.480469 26.074219 7.894531 26.074219 9.636719 C 26.074219 11.382812 24.605469 12.792969 22.800781 12.792969 C 20.992188 12.792969 19.527344 11.378906 19.527344 9.636719 C 19.527344 7.894531 20.992188 6.480469 22.800781 6.480469 Z M 22.800781 6.480469 "/>
</g>
</svg>
