<?xml version="1.0" encoding="UTF-8"?>
<svg xmlns="http://www.w3.org/2000/svg" xmlns:xlink="http://www.w3.org/1999/xlink" width="28px" height="28px" viewBox="0 0 28 28" version="1.1">
<g id="surface1">
<path style=" stroke:none;fill-rule:nonzero;fill:rgb(92.941176%,41.176471%,36.078431%);fill-opacity:1;" d="M 0.636719 19.40625 C 0.644531 19.40625 0.652344 19.40625 0.660156 19.40625 C 0.859375 19.40625 1.058594 19.421875 1.257812 19.453125 C 1.273438 19.457031 1.289062 19.460938 1.304688 19.464844 C 1.746094 19.546875 2.160156 19.714844 2.539062 19.953125 C 3.265625 20.421875 4.121094 20.667969 4.996094 20.667969 C 5.03125 20.667969 5.058594 20.667969 5.09375 20.667969 C 5.125 20.667969 5.164062 20.667969 5.195312 20.667969 C 6.054688 20.667969 6.898438 20.425781 7.617188 19.964844 C 7.625 19.960938 7.632812 19.957031 7.644531 19.953125 C 8.179688 19.597656 8.8125 19.40625 9.464844 19.40625 C 9.492188 19.40625 9.519531 19.40625 9.542969 19.40625 C 9.570312 19.40625 9.59375 19.40625 9.617188 19.40625 C 10.273438 19.40625 10.914062 19.597656 11.453125 19.949219 C 12.175781 20.417969 13.03125 20.664062 13.90625 20.664062 C 13.9375 20.664062 13.972656 20.664062 14 20.664062 C 14.027344 20.664062 14.058594 20.664062 14.085938 20.664062 C 14.964844 20.664062 15.824219 20.417969 16.554688 19.949219 C 17.09375 19.59375 17.722656 19.402344 18.378906 19.402344 C 18.402344 19.402344 18.429688 19.402344 18.457031 19.402344 C 18.480469 19.402344 18.5 19.402344 18.527344 19.402344 C 19.183594 19.402344 19.828125 19.59375 20.375 19.953125 C 21.101562 20.417969 21.953125 20.664062 22.824219 20.664062 C 22.855469 20.664062 22.886719 20.664062 22.914062 20.664062 C 22.949219 20.664062 22.980469 20.664062 23.015625 20.664062 C 23.589844 20.664062 24.160156 20.554688 24.691406 20.34375 C 24.960938 20.230469 25.222656 20.097656 25.46875 19.949219 C 26.019531 19.59375 26.667969 19.402344 27.335938 19.402344 C 27.351562 19.402344 27.367188 19.402344 27.378906 19.402344 C 27.730469 19.402344 28.015625 19.128906 28.015625 18.789062 C 28.015625 18.453125 27.730469 18.175781 27.378906 18.175781 C 27.363281 18.175781 27.34375 18.175781 27.328125 18.175781 C 27.097656 18.175781 26.867188 18.191406 26.640625 18.226562 C 25.996094 18.320312 25.375 18.546875 24.824219 18.890625 C 24.621094 19.007812 24.414062 19.117188 24.195312 19.210938 C 23.824219 19.359375 23.425781 19.4375 23.019531 19.4375 C 22.984375 19.4375 22.953125 19.4375 22.921875 19.4375 C 22.894531 19.4375 22.867188 19.4375 22.835938 19.4375 C 22.179688 19.4375 21.539062 19.246094 20.996094 18.882812 C 20.464844 18.550781 19.867188 18.328125 19.238281 18.230469 L 13.992188 10.847656 L 20.710938 7.601562 C 21.476562 7.234375 21.960938 6.476562 21.960938 5.652344 C 21.960938 5.183594 21.804688 4.722656 21.511719 4.347656 C 21.078125 3.808594 20.40625 3.492188 19.695312 3.492188 C 19.363281 3.492188 19.039062 3.558594 18.742188 3.691406 L 9.457031 7.929688 C 8.550781 8.34375 7.8125 9.234375 7.976562 10.1875 C 8.179688 11.371094 8.472656 11.535156 9.566406 12.28125 L 1.324219 18.214844 C 1.097656 18.1875 0.875 18.171875 0.652344 18.171875 C 0.300781 18.171875 0.015625 18.445312 0.015625 18.785156 C 0.015625 19.125 0.300781 19.398438 0.652344 19.398438 Z M 10.1875 13.378906 C 10.582031 13.152344 10.820312 12.746094 10.820312 12.308594 C 10.820312 11.128906 9.238281 11.347656 9.238281 10.191406 C 9.238281 9.703125 9.53125 9.25 9.992188 9.042969 L 19.273438 4.808594 C 19.40625 4.746094 19.550781 4.710938 19.699219 4.710938 C 20.242188 4.710938 20.679688 5.132812 20.679688 5.65625 C 20.679688 5.734375 20.671875 5.808594 20.652344 5.882812 C 20.585938 6.15625 20.394531 6.386719 20.132812 6.503906 L 13.417969 9.746094 C 13.082031 9.902344 12.839844 10.191406 12.742188 10.539062 C 12.714844 10.644531 12.703125 10.75 12.703125 10.859375 C 12.703125 11.109375 12.78125 11.355469 12.929688 11.5625 L 17.683594 18.230469 C 17.050781 18.328125 16.441406 18.554688 15.90625 18.890625 C 15.371094 19.246094 14.734375 19.4375 14.085938 19.4375 C 14.058594 19.4375 14.027344 19.4375 14 19.4375 C 13.976562 19.4375 13.945312 19.4375 13.921875 19.4375 C 13.265625 19.4375 12.625 19.246094 12.082031 18.882812 C 11.355469 18.421875 10.503906 18.175781 9.636719 18.175781 C 9.605469 18.175781 9.574219 18.175781 9.542969 18.175781 C 9.515625 18.175781 9.476562 18.175781 9.449219 18.175781 C 8.582031 18.175781 7.734375 18.421875 7.015625 18.882812 C 7.007812 18.886719 6.992188 18.894531 6.984375 18.898438 C 6.457031 19.25 5.828125 19.4375 5.1875 19.4375 C 5.160156 19.4375 5.125 19.4375 5.097656 19.4375 C 5.070312 19.4375 5.042969 19.4375 5.019531 19.4375 C 4.363281 19.4375 3.722656 19.246094 3.1875 18.890625 C 3.097656 18.835938 3.003906 18.785156 2.910156 18.738281 L 10.191406 13.378906 Z M 10.1875 13.378906 "/>
<path style=" stroke:none;fill-rule:nonzero;fill:rgb(92.941176%,41.176471%,36.078431%);fill-opacity:1;" d="M 27.363281 21.953125 C 27.335938 21.953125 27.300781 21.953125 27.273438 21.953125 C 26.398438 21.953125 25.539062 22.203125 24.8125 22.667969 C 24.246094 23.023438 23.582031 23.214844 22.902344 23.214844 C 22.226562 23.214844 21.5625 23.023438 20.992188 22.667969 C 20.234375 22.203125 19.34375 21.953125 18.445312 21.953125 C 17.542969 21.953125 16.652344 22.203125 15.894531 22.667969 C 15.355469 23.023438 14.71875 23.214844 14.066406 23.214844 C 14.042969 23.214844 14.011719 23.214844 13.988281 23.214844 C 13.960938 23.214844 13.9375 23.214844 13.910156 23.214844 C 13.257812 23.214844 12.621094 23.023438 12.082031 22.667969 C 11.355469 22.203125 10.5 21.953125 9.625 21.953125 C 9.597656 21.953125 9.566406 21.953125 9.535156 21.953125 C 9.507812 21.953125 9.472656 21.953125 9.445312 21.953125 C 8.574219 21.953125 7.71875 22.203125 6.984375 22.667969 C 6.449219 23.023438 5.8125 23.214844 5.160156 23.214844 C 5.132812 23.214844 5.105469 23.214844 5.078125 23.214844 C 5.054688 23.214844 5.03125 23.214844 5 23.214844 C 4.347656 23.214844 3.710938 23.023438 3.175781 22.667969 C 2.445312 22.203125 1.589844 21.953125 0.71875 21.953125 C 0.691406 21.953125 0.65625 21.953125 0.628906 21.953125 C 0.277344 21.953125 -0.0078125 22.230469 -0.0078125 22.570312 C -0.0078125 22.90625 0.277344 23.183594 0.628906 23.183594 C 0.652344 23.183594 0.679688 23.183594 0.707031 23.183594 C 1.359375 23.183594 1.996094 23.375 2.535156 23.726562 C 3.261719 24.195312 4.117188 24.441406 4.988281 24.441406 C 5.019531 24.441406 5.050781 24.441406 5.078125 24.441406 C 5.109375 24.441406 5.140625 24.441406 5.171875 24.441406 C 6.042969 24.441406 6.898438 24.195312 7.628906 23.726562 C 8.167969 23.375 8.804688 23.183594 9.457031 23.183594 C 9.480469 23.183594 9.511719 23.183594 9.535156 23.183594 C 9.5625 23.183594 9.585938 23.183594 9.613281 23.183594 C 10.265625 23.183594 10.902344 23.375 11.441406 23.726562 C 12.167969 24.195312 13.023438 24.441406 13.898438 24.441406 C 13.925781 24.441406 13.957031 24.441406 13.988281 24.441406 C 14.015625 24.441406 14.050781 24.441406 14.078125 24.441406 C 14.949219 24.441406 15.808594 24.195312 16.539062 23.726562 C 17.105469 23.375 17.769531 23.183594 18.445312 23.183594 C 19.121094 23.183594 19.78125 23.375 20.347656 23.726562 C 21.109375 24.195312 22 24.441406 22.898438 24.441406 C 23.800781 24.441406 24.6875 24.195312 25.449219 23.726562 C 25.988281 23.375 26.628906 23.183594 27.28125 23.183594 C 27.304688 23.183594 27.335938 23.183594 27.359375 23.183594 C 27.710938 23.183594 27.996094 22.90625 27.996094 22.570312 C 27.996094 22.230469 27.710938 21.953125 27.359375 21.953125 Z M 27.363281 21.953125 "/>
<path style=" stroke:none;fill-rule:nonzero;fill:rgb(92.941176%,41.176471%,36.078431%);fill-opacity:1;" d="M 18.253906 13.136719 C 18.253906 15.558594 20.292969 17.523438 22.800781 17.523438 C 25.3125 17.523438 27.347656 15.558594 27.347656 13.136719 C 27.347656 10.714844 25.308594 8.753906 22.800781 8.753906 C 20.292969 8.757812 18.253906 10.71875 18.253906 13.136719 Z M 22.800781 9.980469 C 24.609375 9.980469 26.074219 11.394531 26.074219 13.136719 C 26.074219 14.882812 24.605469 16.292969 22.800781 16.292969 C 20.992188 16.292969 19.527344 14.878906 19.527344 13.136719 C 19.527344 11.394531 20.992188 9.980469 22.800781 9.980469 Z M 22.800781 9.980469 "/>
</g>
</svg>
