<?xml version="1.0" encoding="UTF-8"?>
<svg xmlns="http://www.w3.org/2000/svg" xmlns:xlink="http://www.w3.org/1999/xlink" width="28px" height="28px" viewBox="0 0 28 20" version="1.1">
<g id="surface1">
<path style=" stroke:none;fill-rule:nonzero;fill:rgb(92.941176%,41.176471%,36.078431%);fill-opacity:1;" d="M 22.878906 3.714844 L 22.878906 1.5625 C 22.878906 1.152344 23.210938 0.820312 23.621094 0.820312 L 24.609375 0.820312 C 24.835938 0.820312 25.019531 0.636719 25.019531 0.414062 C 25.019531 0.1875 24.835938 0.00390625 24.609375 0.00390625 L 23.621094 0.00390625 C 22.757812 0.00390625 22.050781 0.703125 22.050781 1.566406 L 22.050781 3.390625 C 21.179688 3.097656 20.25 2.941406 19.304688 2.9375 L 19.304688 1.566406 C 19.304688 1.15625 19.636719 0.828125 20.046875 0.828125 L 21.039062 0.828125 C 21.265625 0.828125 21.449219 0.644531 21.449219 0.417969 C 21.449219 0.191406 21.265625 0.0078125 21.039062 0.0078125 L 20.046875 0.0078125 C 19.183594 0.0078125 18.480469 0.707031 18.480469 1.570312 L 18.480469 2.972656 C 16.953125 3.101562 15.5 3.625 14.238281 4.503906 C 14.097656 4.601562 13.902344 4.601562 13.761719 4.503906 C 8.066406 0.550781 0.0507812 4.515625 0 11.589844 C 0.015625 11.667969 -0.238281 15.003906 2.574219 17.800781 C 5.6875 20.902344 10.398438 21.136719 13.757812 18.804688 C 13.898438 18.703125 14.09375 18.703125 14.234375 18.804688 C 17.648438 21.167969 22.375 20.867188 25.457031 17.765625 C 25.617188 17.605469 25.617188 17.34375 25.457031 17.183594 C 25.292969 17.027344 25.035156 17.027344 24.871094 17.1875 C 22.042969 20.035156 17.753906 20.242188 14.710938 18.128906 C 14.285156 17.835938 13.71875 17.832031 13.289062 18.128906 C 8.085938 21.742188 0.824219 18.046875 0.824219 11.648438 L 0.824219 11.59375 C 0.871094 5.261719 8.085938 1.5625 13.289062 5.171875 C 13.714844 5.46875 14.28125 5.46875 14.707031 5.171875 C 15.832031 4.390625 17.121094 3.925781 18.476562 3.796875 L 18.476562 4.894531 C 17.347656 5.019531 16.273438 5.417969 15.335938 6.070312 C 14.601562 6.578125 13.644531 6.613281 12.886719 6.207031 C 12.683594 6.097656 12.433594 6.171875 12.324219 6.371094 C 12.214844 6.570312 12.292969 6.820312 12.492188 6.929688 C 13.5 7.46875 14.789062 7.445312 15.804688 6.738281 C 16.601562 6.183594 17.515625 5.839844 18.472656 5.71875 L 18.472656 10.101562 C 18.472656 10.328125 18.660156 10.511719 18.886719 10.511719 C 19.113281 10.511719 19.296875 10.328125 19.296875 10.101562 L 19.296875 9.179688 L 22.042969 9.179688 L 22.042969 10.101562 C 22.042969 10.328125 22.230469 10.511719 22.457031 10.511719 C 22.683594 10.511719 22.867188 10.328125 22.867188 10.101562 L 22.867188 6.886719 C 25.371094 8.785156 25.238281 11.632812 25.238281 11.644531 C 25.238281 16.355469 19.839844 19.355469 15.800781 16.554688 C 14.722656 15.808594 13.269531 15.800781 12.179688 16.554688 C 9.859375 18.167969 6.636719 17.980469 4.507812 15.863281 C 2.578125 13.941406 2.753906 11.675781 2.738281 11.601562 C 2.769531 7.324219 7.171875 4.488281 11.089844 6.136719 C 11.300781 6.222656 11.542969 6.125 11.632812 5.917969 C 11.71875 5.710938 11.621094 5.46875 11.414062 5.378906 C 6.980469 3.511719 1.953125 6.707031 1.917969 11.597656 C 1.925781 11.640625 1.726562 14.25 3.929688 16.441406 C 6.347656 18.847656 10.015625 19.058594 12.652344 17.226562 C 13.449219 16.675781 14.523438 16.667969 15.332031 17.226562 C 19.894531 20.390625 26.066406 17.035156 26.066406 11.640625 L 26.066406 11.59375 C 26.046875 9.21875 24.808594 7.101562 22.871094 5.886719 L 22.871094 4.632812 C 27.054688 6.796875 28.457031 12.0625 25.851562 15.972656 C 25.726562 16.160156 25.777344 16.414062 25.96875 16.539062 C 26.15625 16.664062 26.414062 16.613281 26.539062 16.425781 C 29.519531 11.945312 27.726562 5.917969 22.871094 3.714844 Z M 22.050781 8.355469 L 19.304688 8.355469 L 19.304688 7.757812 L 22.050781 7.757812 Z M 22.050781 6.9375 L 19.304688 6.9375 L 19.304688 5.667969 C 20.277344 5.679688 21.214844 5.917969 22.050781 6.359375 Z M 22.050781 5.445312 C 21.199219 5.0625 20.265625 4.855469 19.304688 4.847656 L 19.304688 3.753906 C 20.269531 3.757812 21.195312 3.941406 22.050781 4.265625 Z M 22.050781 5.445312 "/>
<path style=" stroke:none;fill-rule:nonzero;fill:rgb(92.941176%,41.176471%,36.078431%);fill-opacity:1;" d="M 8.488281 9.613281 C 8.335938 9.441406 8.078125 9.425781 7.90625 9.578125 C 7.765625 9.695312 7.558594 9.699219 7.414062 9.574219 C 6.964844 9.183594 6.292969 9.183594 5.839844 9.578125 C 5.703125 9.699219 5.496094 9.699219 5.355469 9.578125 C 5.183594 9.425781 4.921875 9.445312 4.773438 9.613281 C 4.28125 10.164062 5.566406 10.90625 6.386719 10.191406 C 6.523438 10.070312 6.730469 10.070312 6.871094 10.191406 C 7.273438 10.566406 7.976562 10.605469 8.445312 10.191406 C 8.617188 10.042969 8.632812 9.785156 8.484375 9.613281 Z M 8.488281 9.613281 "/>
<path style=" stroke:none;fill-rule:nonzero;fill:rgb(92.941176%,41.176471%,36.078431%);fill-opacity:1;" d="M 12.230469 12.488281 C 12.078125 12.316406 11.820312 12.300781 11.648438 12.449219 C 11.511719 12.570312 11.304688 12.574219 11.15625 12.449219 C 10.707031 12.058594 10.035156 12.058594 9.582031 12.449219 C 9.445312 12.570312 9.238281 12.570312 9.097656 12.449219 C 8.925781 12.300781 8.664062 12.316406 8.515625 12.488281 C 8.03125 13.03125 9.304688 13.785156 10.128906 13.066406 C 10.253906 12.953125 10.457031 12.933594 10.617188 13.070312 C 11.4375 13.785156 12.710938 13.035156 12.226562 12.488281 Z M 12.230469 12.488281 "/>
<path style=" stroke:none;fill-rule:nonzero;fill:rgb(92.941176%,41.176471%,36.078431%);fill-opacity:1;" d="M 16.734375 8.773438 C 16.582031 8.601562 16.324219 8.585938 16.152344 8.734375 C 16.023438 8.847656 15.820312 8.867188 15.660156 8.734375 C 15.210938 8.34375 14.539062 8.34375 14.085938 8.734375 C 13.949219 8.855469 13.742188 8.855469 13.601562 8.734375 C 13.429688 8.585938 13.167969 8.601562 13.019531 8.773438 C 12.527344 9.324219 13.8125 10.066406 14.632812 9.351562 C 14.773438 9.230469 14.976562 9.230469 15.117188 9.351562 C 15.945312 10.074219 17.210938 9.316406 16.730469 8.773438 Z M 16.734375 8.773438 "/>
<path style=" stroke:none;fill-rule:nonzero;fill:rgb(92.941176%,41.176471%,36.078431%);fill-opacity:1;" d="M 23.15625 11.167969 C 23.007812 10.996094 22.746094 10.980469 22.574219 11.128906 C 22.441406 11.246094 22.238281 11.257812 22.085938 11.128906 C 21.636719 10.738281 20.960938 10.738281 20.511719 11.128906 C 20.375 11.25 20.164062 11.25 20.023438 11.128906 C 19.851562 10.980469 19.59375 10.996094 19.441406 11.167969 C 18.953125 11.71875 20.238281 12.460938 21.054688 11.742188 C 21.1875 11.628906 21.390625 11.613281 21.542969 11.746094 C 22.367188 12.464844 23.632812 11.710938 23.15625 11.167969 Z M 23.15625 11.167969 "/>
<path style=" stroke:none;fill-rule:nonzero;fill:rgb(92.941176%,41.176471%,36.078431%);fill-opacity:1;" d="M 19.554688 14.574219 C 19.402344 14.402344 19.144531 14.386719 18.972656 14.535156 C 18.84375 14.648438 18.644531 14.667969 18.480469 14.535156 C 18.03125 14.144531 17.359375 14.144531 16.90625 14.535156 C 16.769531 14.660156 16.5625 14.660156 16.421875 14.535156 C 16.25 14.386719 15.988281 14.402344 15.839844 14.574219 C 15.347656 15.125 16.632812 15.867188 17.453125 15.152344 C 17.589844 15.03125 17.796875 15.03125 17.9375 15.152344 C 18.765625 15.875 20.03125 15.121094 19.550781 14.574219 Z M 19.554688 14.574219 "/>
</g>
</svg>
