<?xml version="1.0" encoding="UTF-8"?>
<svg xmlns="http://www.w3.org/2000/svg" xmlns:xlink="http://www.w3.org/1999/xlink" width="28px" height="28px" viewBox="0 0 28 28" version="1.1">
<g id="surface1">
<path style=" stroke:none;fill-rule:nonzero;fill:rgb(92.941176%,41.176471%,36.078431%);fill-opacity:1;" d="M 18.785156 2 C 15.089844 2 11.777344 4.125 10.253906 7.4375 C 9.960938 7.414062 9.667969 7.398438 9.367188 7.398438 C 4.199219 7.398438 0 11.5625 0 16.679688 C 0 21.800781 4.199219 25.964844 9.367188 25.964844 C 13.148438 25.964844 16.414062 23.730469 17.890625 20.527344 C 18.1875 20.554688 18.488281 20.566406 18.78125 20.566406 C 23.949219 20.566406 28.148438 16.402344 28.148438 11.285156 C 28.148438 6.164062 23.949219 2 18.78125 2 Z M 26.78125 8.300781 C 22.0625 9.230469 17.0625 7.835938 13.527344 4.601562 C 14.996094 3.464844 16.832031 2.816406 18.785156 2.816406 C 22.433594 2.816406 25.558594 5.097656 26.78125 8.296875 Z M 9.367188 25.148438 C 4.65625 25.148438 0.824219 21.351562 0.824219 16.679688 C 0.824219 12.011719 4.65625 8.214844 9.367188 8.214844 C 14.078125 8.214844 17.910156 12.011719 17.910156 16.679688 C 17.910156 21.351562 14.078125 25.148438 9.367188 25.148438 Z M 18.214844 19.730469 C 18.386719 19.238281 18.519531 18.722656 18.609375 18.195312 C 19.464844 18.335938 20.332031 18.40625 21.203125 18.40625 C 22.035156 18.40625 22.867188 18.339844 23.691406 18.210938 C 22.300781 19.179688 20.609375 19.75 18.785156 19.75 C 18.59375 19.75 18.40625 19.742188 18.214844 19.730469 Z M 24.972656 17.117188 C 22.941406 17.632812 20.785156 17.726562 18.710938 17.382812 C 18.726562 17.152344 18.738281 16.917969 18.738281 16.679688 C 18.738281 12.152344 15.445312 8.371094 11.113281 7.558594 C 11.566406 6.636719 12.175781 5.824219 12.902344 5.140625 C 14.757812 6.859375 17.023438 8.125 19.484375 8.8125 C 20.902344 9.207031 22.363281 9.40625 23.824219 9.40625 C 24.902344 9.40625 25.976562 9.296875 27.035156 9.082031 C 27.226562 9.78125 27.328125 10.519531 27.328125 11.28125 C 27.328125 13.539062 26.433594 15.59375 24.972656 17.113281 Z M 24.972656 17.117188 "/>
<path style=" stroke:none;fill-rule:nonzero;fill:rgb(92.941176%,41.176471%,36.078431%);fill-opacity:1;" d="M 11.300781 14.011719 C 11.570312 13.734375 11.738281 13.359375 11.738281 12.941406 C 11.738281 12.089844 11.039062 11.398438 10.183594 11.398438 C 9.324219 11.398438 8.625 12.09375 8.625 12.941406 C 8.625 13.359375 8.792969 13.734375 9.066406 14.011719 C 8.542969 14.367188 8.203125 14.960938 8.203125 15.632812 C 8.203125 16.714844 9.089844 17.597656 10.183594 17.597656 C 11.277344 17.597656 12.164062 16.71875 12.164062 15.632812 C 12.164062 14.960938 11.820312 14.367188 11.300781 14.011719 Z M 9.449219 12.941406 C 9.449219 12.542969 9.777344 12.21875 10.179688 12.21875 C 10.585938 12.21875 10.914062 12.542969 10.914062 12.941406 C 10.914062 13.339844 10.585938 13.667969 10.179688 13.667969 C 9.777344 13.667969 9.449219 13.339844 9.449219 12.941406 Z M 10.179688 16.777344 C 9.542969 16.777344 9.023438 16.265625 9.023438 15.632812 C 9.023438 15 9.542969 14.484375 10.179688 14.484375 C 10.820312 14.484375 11.339844 15 11.339844 15.632812 C 11.339844 16.265625 10.816406 16.777344 10.179688 16.777344 Z M 10.179688 16.777344 "/>
<path style=" stroke:none;fill-rule:nonzero;fill:rgb(92.941176%,41.176471%,36.078431%);fill-opacity:1;" d="M 10.179688 9.65625 C 7.488281 9.65625 5.296875 11.828125 5.296875 14.5 C 5.296875 17.167969 7.488281 19.339844 10.179688 19.339844 C 12.875 19.339844 15.066406 17.167969 15.066406 14.5 C 15.066406 11.828125 12.875 9.65625 10.179688 9.65625 Z M 10.179688 18.523438 C 7.941406 18.523438 6.121094 16.71875 6.121094 14.5 C 6.121094 12.28125 7.941406 10.476562 10.179688 10.476562 C 12.417969 10.476562 14.242188 12.28125 14.242188 14.5 C 14.242188 16.71875 12.417969 18.523438 10.179688 18.523438 Z M 10.179688 18.523438 "/>
</g>
</svg>
