<?xml version="1.0" encoding="UTF-8"?>
<svg xmlns="http://www.w3.org/2000/svg" xmlns:xlink="http://www.w3.org/1999/xlink" width="28px" height="28px" viewBox="0 0 28 24" version="1.1">
<g id="surface1">
<path style=" stroke:none;fill-rule:nonzero;fill:rgb(92.941176%,41.176471%,36.078431%);fill-opacity:1;" d="M 18.785156 0 C 15.089844 0 11.777344 2.125 10.253906 5.4375 C 9.960938 5.414062 9.667969 5.398438 9.367188 5.398438 C 4.199219 5.398438 0 9.5625 0 14.679688 C 0 19.800781 4.199219 23.964844 9.367188 23.964844 C 13.148438 23.964844 16.414062 21.730469 17.890625 18.527344 C 18.1875 18.554688 18.488281 18.566406 18.78125 18.566406 C 23.949219 18.566406 28.148438 14.402344 28.148438 9.285156 C 28.148438 4.164062 23.949219 0 18.78125 0 Z M 26.78125 6.300781 C 22.0625 7.230469 17.0625 5.835938 13.527344 2.601562 C 14.996094 1.464844 16.832031 0.816406 18.785156 0.816406 C 22.433594 0.816406 25.558594 3.097656 26.78125 6.296875 Z M 9.367188 23.148438 C 4.65625 23.148438 0.824219 19.351562 0.824219 14.679688 C 0.824219 10.011719 4.65625 6.214844 9.367188 6.214844 C 14.078125 6.214844 17.910156 10.011719 17.910156 14.679688 C 17.910156 19.351562 14.078125 23.148438 9.367188 23.148438 Z M 18.214844 17.730469 C 18.386719 17.238281 18.519531 16.722656 18.609375 16.195312 C 19.464844 16.335938 20.332031 16.40625 21.203125 16.40625 C 22.035156 16.40625 22.867188 16.339844 23.691406 16.210938 C 22.300781 17.179688 20.609375 17.75 18.785156 17.75 C 18.59375 17.75 18.40625 17.742188 18.214844 17.730469 Z M 24.972656 15.117188 C 22.941406 15.632812 20.785156 15.726562 18.710938 15.382812 C 18.726562 15.152344 18.738281 14.917969 18.738281 14.679688 C 18.738281 10.152344 15.445312 6.371094 11.113281 5.558594 C 11.566406 4.636719 12.175781 3.824219 12.902344 3.140625 C 14.757812 4.859375 17.023438 6.125 19.484375 6.8125 C 20.902344 7.207031 22.363281 7.40625 23.824219 7.40625 C 24.902344 7.40625 25.976562 7.296875 27.035156 7.082031 C 27.226562 7.78125 27.328125 8.519531 27.328125 9.28125 C 27.328125 11.539062 26.433594 13.59375 24.972656 15.113281 Z M 24.972656 15.117188 "/>
<path style=" stroke:none;fill-rule:nonzero;fill:rgb(92.941176%,41.176471%,36.078431%);fill-opacity:1;" d="M 11.300781 12.011719 C 11.570312 11.734375 11.738281 11.359375 11.738281 10.941406 C 11.738281 10.089844 11.039062 9.398438 10.183594 9.398438 C 9.324219 9.398438 8.625 10.09375 8.625 10.941406 C 8.625 11.359375 8.792969 11.734375 9.066406 12.011719 C 8.542969 12.367188 8.203125 12.960938 8.203125 13.632812 C 8.203125 14.714844 9.089844 15.597656 10.183594 15.597656 C 11.277344 15.597656 12.164062 14.71875 12.164062 13.632812 C 12.164062 12.960938 11.820312 12.367188 11.300781 12.011719 Z M 9.449219 10.941406 C 9.449219 10.542969 9.777344 10.21875 10.179688 10.21875 C 10.585938 10.21875 10.914062 10.542969 10.914062 10.941406 C 10.914062 11.339844 10.585938 11.667969 10.179688 11.667969 C 9.777344 11.667969 9.449219 11.339844 9.449219 10.941406 Z M 10.179688 14.777344 C 9.542969 14.777344 9.023438 14.265625 9.023438 13.632812 C 9.023438 13 9.542969 12.484375 10.179688 12.484375 C 10.820312 12.484375 11.339844 13 11.339844 13.632812 C 11.339844 14.265625 10.816406 14.777344 10.179688 14.777344 Z M 10.179688 14.777344 "/>
<path style=" stroke:none;fill-rule:nonzero;fill:rgb(92.941176%,41.176471%,36.078431%);fill-opacity:1;" d="M 10.179688 7.65625 C 7.488281 7.65625 5.296875 9.828125 5.296875 12.5 C 5.296875 15.167969 7.488281 17.339844 10.179688 17.339844 C 12.875 17.339844 15.066406 15.167969 15.066406 12.5 C 15.066406 9.828125 12.875 7.65625 10.179688 7.65625 Z M 10.179688 16.523438 C 7.941406 16.523438 6.121094 14.71875 6.121094 12.5 C 6.121094 10.28125 7.941406 8.476562 10.179688 8.476562 C 12.417969 8.476562 14.242188 10.28125 14.242188 12.5 C 14.242188 14.71875 12.417969 16.523438 10.179688 16.523438 Z M 10.179688 16.523438 "/>
</g>
</svg>
