<?xml version="1.0" encoding="UTF-8"?>
<svg xmlns="http://www.w3.org/2000/svg" xmlns:xlink="http://www.w3.org/1999/xlink" width="28px" height="28px" viewBox="0 0 28 28" version="1.1">
<g id="surface1">
<path style=" stroke:none;fill-rule:nonzero;fill:rgb(92.941176%,41.176471%,36.078431%);fill-opacity:1;" d="M 27.824219 17.371094 C 27.753906 15.8125 27.476562 14.082031 27.0625 12.453125 C 26.644531 10.890625 26.125 9.433594 25.5 8.3125 C 23.074219 4.140625 20.4375 4.785156 17.285156 5.601562 C 16.277344 5.835938 15.203125 6.109375 14.09375 6.210938 L 13.746094 6.210938 C 12.636719 6.109375 11.5625 5.835938 10.558594 5.601562 C 7.402344 4.820312 4.765625 4.140625 2.339844 8.347656 C 1.714844 9.46875 1.160156 10.925781 0.777344 12.488281 C 0.363281 14.113281 0.0859375 15.84375 0.015625 17.40625 C -0.0546875 19.132812 0.121094 20.390625 0.5 21.273438 C 0.882812 22.085938 1.4375 22.59375 2.167969 22.796875 C 2.824219 22.96875 3.585938 22.902344 4.386719 22.5625 C 5.738281 22.019531 7.296875 20.863281 8.824219 19.472656 C 9.898438 18.457031 11.910156 17.945312 13.921875 17.945312 C 15.933594 17.945312 17.945312 18.457031 19.019531 19.472656 C 20.546875 20.863281 22.105469 22.019531 23.457031 22.5625 C 24.253906 22.867188 25.019531 22.96875 25.675781 22.796875 C 26.371094 22.59375 26.960938 22.121094 27.339844 21.238281 C 27.722656 20.390625 27.894531 19.132812 27.828125 17.371094 Z M 26.160156 20.761719 C 25.953125 21.238281 25.675781 21.511719 25.328125 21.609375 C 24.945312 21.714844 24.460938 21.644531 23.90625 21.441406 C 22.691406 20.964844 21.269531 19.914062 19.882812 18.625 C 18.566406 17.335938 16.242188 16.691406 13.917969 16.691406 C 11.597656 16.691406 9.273438 17.335938 7.921875 18.558594 C 6.5 19.847656 5.078125 20.933594 3.898438 21.375 C 3.34375 21.578125 2.859375 21.679688 2.476562 21.542969 C 2.128906 21.441406 1.851562 21.167969 1.644531 20.695312 C 1.367188 20.050781 1.230469 19 1.296875 17.4375 C 1.367188 15.980469 1.609375 14.316406 2.027344 12.757812 C 2.40625 11.296875 2.894531 9.941406 3.484375 8.925781 C 5.390625 5.566406 7.609375 6.109375 10.246094 6.789062 C 11.320312 7.058594 12.429688 7.328125 13.640625 7.433594 C 13.675781 7.433594 13.675781 7.433594 13.710938 7.433594 L 14.09375 7.433594 C 14.128906 7.433594 14.128906 7.433594 14.164062 7.433594 C 15.410156 7.328125 16.519531 7.058594 17.597656 6.789062 C 20.230469 6.144531 22.449219 5.566406 24.355469 8.925781 C 24.945312 9.941406 25.433594 11.265625 25.8125 12.757812 C 26.195312 14.316406 26.472656 15.945312 26.542969 17.4375 C 26.613281 19 26.472656 20.050781 26.160156 20.761719 Z M 26.160156 20.761719 "/>
<path style=" stroke:none;fill-rule:nonzero;fill:rgb(92.941176%,41.176471%,36.078431%);fill-opacity:1;" d="M 10.894531 10.921875 C 10.566406 10.632812 10.171875 10.40625 9.710938 10.375 C 9.675781 9.957031 9.480469 9.535156 9.183594 9.25 L 9.152344 9.214844 C 8.789062 8.863281 8.328125 8.667969 7.804688 8.667969 C 7.277344 8.667969 6.785156 8.894531 6.457031 9.214844 C 6.160156 9.503906 5.929688 9.921875 5.898438 10.375 C 5.4375 10.40625 5.042969 10.597656 4.714844 10.886719 L 4.679688 10.921875 C 4.316406 11.273438 4.121094 11.726562 4.121094 12.238281 C 4.121094 12.753906 4.351562 13.234375 4.679688 13.558594 C 5.007812 13.878906 5.402344 14.074219 5.894531 14.105469 C 5.929688 14.554688 6.125 14.972656 6.457031 15.261719 C 6.816406 15.617188 7.277344 15.808594 7.804688 15.808594 C 8.328125 15.808594 8.820312 15.585938 9.152344 15.261719 C 9.445312 14.941406 9.675781 14.554688 9.710938 14.105469 C 10.171875 14.070312 10.597656 13.878906 10.894531 13.558594 C 11.253906 13.203125 11.453125 12.753906 11.453125 12.238281 C 11.453125 11.726562 11.222656 11.242188 10.894531 10.921875 Z M 10.074219 12.722656 C 9.941406 12.851562 9.777344 12.914062 9.578125 12.914062 L 9.121094 12.914062 C 8.789062 12.914062 8.496094 13.171875 8.496094 13.527344 L 8.496094 13.945312 C 8.496094 14.136719 8.429688 14.296875 8.296875 14.425781 C 8.164062 14.554688 8 14.621094 7.804688 14.621094 C 7.605469 14.621094 7.441406 14.554688 7.3125 14.425781 C 7.179688 14.296875 7.113281 14.136719 7.113281 13.945312 L 7.113281 13.496094 C 7.113281 13.171875 6.851562 12.882812 6.488281 12.882812 L 6.027344 12.882812 C 5.832031 12.882812 5.667969 12.820312 5.535156 12.691406 C 5.4375 12.59375 5.339844 12.433594 5.339844 12.238281 C 5.339844 12.046875 5.402344 11.886719 5.535156 11.757812 C 5.535156 11.757812 5.535156 11.757812 5.570312 11.722656 C 5.699219 11.628906 5.863281 11.5625 6.027344 11.5625 L 6.488281 11.5625 C 6.816406 11.5625 7.113281 11.304688 7.113281 10.953125 L 7.113281 10.5 C 7.113281 10.308594 7.179688 10.148438 7.3125 10.019531 C 7.441406 9.890625 7.605469 9.824219 7.804688 9.824219 C 8 9.824219 8.164062 9.890625 8.296875 10.019531 C 8.296875 10.019531 8.296875 10.019531 8.332031 10.050781 C 8.429688 10.179688 8.496094 10.339844 8.496094 10.5 L 8.496094 10.953125 C 8.496094 11.273438 8.757812 11.5625 9.121094 11.5625 L 9.582031 11.5625 C 9.777344 11.5625 9.941406 11.628906 10.074219 11.753906 C 10.207031 11.882812 10.269531 12.046875 10.269531 12.238281 C 10.269531 12.429688 10.207031 12.59375 10.074219 12.722656 Z M 10.074219 12.722656 "/>
<path style=" stroke:none;fill-rule:nonzero;fill:rgb(92.941176%,41.176471%,36.078431%);fill-opacity:1;" d="M 20.792969 9.957031 C 20.792969 10.578125 20.277344 11.082031 19.640625 11.082031 C 19.007812 11.082031 18.492188 10.578125 18.492188 9.957031 C 18.492188 9.335938 19.007812 8.832031 19.640625 8.832031 C 20.277344 8.832031 20.792969 9.335938 20.792969 9.957031 Z M 20.792969 9.957031 "/>
<path style=" stroke:none;fill-rule:nonzero;fill:rgb(92.941176%,41.176471%,36.078431%);fill-opacity:1;" d="M 20.792969 14.523438 C 20.792969 15.144531 20.277344 15.648438 19.640625 15.648438 C 19.007812 15.648438 18.492188 15.144531 18.492188 14.523438 C 18.492188 13.902344 19.007812 13.398438 19.640625 13.398438 C 20.277344 13.398438 20.792969 13.902344 20.792969 14.523438 Z M 20.792969 14.523438 "/>
<path style=" stroke:none;fill-rule:nonzero;fill:rgb(92.941176%,41.176471%,36.078431%);fill-opacity:1;" d="M 18.457031 12.238281 C 18.457031 12.863281 17.941406 13.367188 17.308594 13.367188 C 16.671875 13.367188 16.15625 12.863281 16.15625 12.238281 C 16.15625 11.617188 16.671875 11.113281 17.308594 11.113281 C 17.941406 11.113281 18.457031 11.617188 18.457031 12.238281 Z M 18.457031 12.238281 "/>
<path style=" stroke:none;fill-rule:nonzero;fill:rgb(92.941176%,41.176471%,36.078431%);fill-opacity:1;" d="M 23.125 12.238281 C 23.125 12.863281 22.609375 13.367188 21.976562 13.367188 C 21.339844 13.367188 20.824219 12.863281 20.824219 12.238281 C 20.824219 11.617188 21.339844 11.113281 21.976562 11.113281 C 22.609375 11.113281 23.125 11.617188 23.125 12.238281 Z M 23.125 12.238281 "/>
</g>
</svg>
