<?xml version="1.0" encoding="UTF-8"?>
<svg xmlns="http://www.w3.org/2000/svg" xmlns:xlink="http://www.w3.org/1999/xlink" width="28px" height="28px" viewBox="0 0 28 18" version="1.1">
<g id="surface1">
<path style=" stroke:none;fill-rule:nonzero;fill:rgb(92.941176%,41.176471%,36.078431%);fill-opacity:1;" d="M 27.824219 12.371094 C 27.753906 10.8125 27.476562 9.082031 27.0625 7.453125 C 26.644531 5.890625 26.125 4.433594 25.5 3.3125 C 23.074219 -0.859375 20.4375 -0.214844 17.285156 0.601562 C 16.277344 0.835938 15.203125 1.109375 14.09375 1.210938 L 13.746094 1.210938 C 12.636719 1.109375 11.5625 0.835938 10.558594 0.601562 C 7.402344 -0.179688 4.765625 -0.859375 2.339844 3.347656 C 1.714844 4.46875 1.160156 5.925781 0.777344 7.488281 C 0.363281 9.113281 0.0859375 10.84375 0.015625 12.40625 C -0.0546875 14.132812 0.121094 15.390625 0.5 16.273438 C 0.882812 17.085938 1.4375 17.59375 2.167969 17.796875 C 2.824219 17.96875 3.585938 17.902344 4.386719 17.5625 C 5.738281 17.019531 7.296875 15.863281 8.824219 14.472656 C 9.898438 13.457031 11.910156 12.945312 13.921875 12.945312 C 15.933594 12.945312 17.945312 13.457031 19.019531 14.472656 C 20.546875 15.863281 22.105469 17.019531 23.457031 17.5625 C 24.253906 17.867188 25.019531 17.96875 25.675781 17.796875 C 26.371094 17.59375 26.960938 17.121094 27.339844 16.238281 C 27.722656 15.390625 27.894531 14.132812 27.828125 12.371094 Z M 26.160156 15.761719 C 25.953125 16.238281 25.675781 16.511719 25.328125 16.609375 C 24.945312 16.714844 24.460938 16.644531 23.90625 16.441406 C 22.691406 15.964844 21.269531 14.914062 19.882812 13.625 C 18.566406 12.335938 16.242188 11.691406 13.917969 11.691406 C 11.597656 11.691406 9.273438 12.335938 7.921875 13.558594 C 6.5 14.847656 5.078125 15.933594 3.898438 16.375 C 3.34375 16.578125 2.859375 16.679688 2.476562 16.542969 C 2.128906 16.441406 1.851562 16.167969 1.644531 15.695312 C 1.367188 15.050781 1.230469 14 1.296875 12.4375 C 1.367188 10.980469 1.609375 9.316406 2.027344 7.757812 C 2.40625 6.296875 2.894531 4.941406 3.484375 3.925781 C 5.390625 0.566406 7.609375 1.109375 10.246094 1.789062 C 11.320312 2.058594 12.429688 2.328125 13.640625 2.433594 C 13.675781 2.433594 13.675781 2.433594 13.710938 2.433594 L 14.09375 2.433594 C 14.128906 2.433594 14.128906 2.433594 14.164062 2.433594 C 15.410156 2.328125 16.519531 2.058594 17.597656 1.789062 C 20.230469 1.144531 22.449219 0.566406 24.355469 3.925781 C 24.945312 4.941406 25.433594 6.265625 25.8125 7.757812 C 26.195312 9.316406 26.472656 10.945312 26.542969 12.4375 C 26.613281 14 26.472656 15.050781 26.160156 15.761719 Z M 26.160156 15.761719 "/>
<path style=" stroke:none;fill-rule:nonzero;fill:rgb(92.941176%,41.176471%,36.078431%);fill-opacity:1;" d="M 10.894531 5.921875 C 10.566406 5.632812 10.171875 5.40625 9.710938 5.375 C 9.675781 4.957031 9.480469 4.535156 9.183594 4.25 L 9.152344 4.214844 C 8.789062 3.863281 8.328125 3.667969 7.804688 3.667969 C 7.277344 3.667969 6.785156 3.894531 6.457031 4.214844 C 6.160156 4.503906 5.929688 4.921875 5.898438 5.375 C 5.4375 5.40625 5.042969 5.597656 4.714844 5.886719 L 4.679688 5.921875 C 4.316406 6.273438 4.121094 6.726562 4.121094 7.238281 C 4.121094 7.753906 4.351562 8.234375 4.679688 8.558594 C 5.007812 8.878906 5.402344 9.074219 5.894531 9.105469 C 5.929688 9.554688 6.125 9.972656 6.457031 10.261719 C 6.816406 10.617188 7.277344 10.808594 7.804688 10.808594 C 8.328125 10.808594 8.820312 10.585938 9.152344 10.261719 C 9.445312 9.941406 9.675781 9.554688 9.710938 9.105469 C 10.171875 9.070312 10.597656 8.878906 10.894531 8.558594 C 11.253906 8.203125 11.453125 7.753906 11.453125 7.238281 C 11.453125 6.726562 11.222656 6.242188 10.894531 5.921875 Z M 10.074219 7.722656 C 9.941406 7.851562 9.777344 7.914062 9.578125 7.914062 L 9.121094 7.914062 C 8.789062 7.914062 8.496094 8.171875 8.496094 8.527344 L 8.496094 8.945312 C 8.496094 9.136719 8.429688 9.296875 8.296875 9.425781 C 8.164062 9.554688 8 9.621094 7.804688 9.621094 C 7.605469 9.621094 7.441406 9.554688 7.3125 9.425781 C 7.179688 9.296875 7.113281 9.136719 7.113281 8.945312 L 7.113281 8.496094 C 7.113281 8.171875 6.851562 7.882812 6.488281 7.882812 L 6.027344 7.882812 C 5.832031 7.882812 5.667969 7.820312 5.535156 7.691406 C 5.4375 7.59375 5.339844 7.433594 5.339844 7.238281 C 5.339844 7.046875 5.402344 6.886719 5.535156 6.757812 C 5.535156 6.757812 5.535156 6.757812 5.570312 6.722656 C 5.699219 6.628906 5.863281 6.5625 6.027344 6.5625 L 6.488281 6.5625 C 6.816406 6.5625 7.113281 6.304688 7.113281 5.953125 L 7.113281 5.5 C 7.113281 5.308594 7.179688 5.148438 7.3125 5.019531 C 7.441406 4.890625 7.605469 4.824219 7.804688 4.824219 C 8 4.824219 8.164062 4.890625 8.296875 5.019531 C 8.296875 5.019531 8.296875 5.019531 8.332031 5.050781 C 8.429688 5.179688 8.496094 5.339844 8.496094 5.5 L 8.496094 5.953125 C 8.496094 6.273438 8.757812 6.5625 9.121094 6.5625 L 9.582031 6.5625 C 9.777344 6.5625 9.941406 6.628906 10.074219 6.753906 C 10.207031 6.882812 10.269531 7.046875 10.269531 7.238281 C 10.269531 7.429688 10.207031 7.59375 10.074219 7.722656 Z M 10.074219 7.722656 "/>
<path style=" stroke:none;fill-rule:nonzero;fill:rgb(92.941176%,41.176471%,36.078431%);fill-opacity:1;" d="M 20.792969 4.957031 C 20.792969 5.578125 20.277344 6.082031 19.640625 6.082031 C 19.007812 6.082031 18.492188 5.578125 18.492188 4.957031 C 18.492188 4.335938 19.007812 3.832031 19.640625 3.832031 C 20.277344 3.832031 20.792969 4.335938 20.792969 4.957031 Z M 20.792969 4.957031 "/>
<path style=" stroke:none;fill-rule:nonzero;fill:rgb(92.941176%,41.176471%,36.078431%);fill-opacity:1;" d="M 20.792969 9.523438 C 20.792969 10.144531 20.277344 10.648438 19.640625 10.648438 C 19.007812 10.648438 18.492188 10.144531 18.492188 9.523438 C 18.492188 8.902344 19.007812 8.398438 19.640625 8.398438 C 20.277344 8.398438 20.792969 8.902344 20.792969 9.523438 Z M 20.792969 9.523438 "/>
<path style=" stroke:none;fill-rule:nonzero;fill:rgb(92.941176%,41.176471%,36.078431%);fill-opacity:1;" d="M 18.457031 7.238281 C 18.457031 7.863281 17.941406 8.367188 17.308594 8.367188 C 16.671875 8.367188 16.15625 7.863281 16.15625 7.238281 C 16.15625 6.617188 16.671875 6.113281 17.308594 6.113281 C 17.941406 6.113281 18.457031 6.617188 18.457031 7.238281 Z M 18.457031 7.238281 "/>
<path style=" stroke:none;fill-rule:nonzero;fill:rgb(92.941176%,41.176471%,36.078431%);fill-opacity:1;" d="M 23.125 7.238281 C 23.125 7.863281 22.609375 8.367188 21.976562 8.367188 C 21.339844 8.367188 20.824219 7.863281 20.824219 7.238281 C 20.824219 6.617188 21.339844 6.113281 21.976562 6.113281 C 22.609375 6.113281 23.125 6.617188 23.125 7.238281 Z M 23.125 7.238281 "/>
</g>
</svg>
