<?xml version="1.0" encoding="UTF-8"?>
<svg xmlns="http://www.w3.org/2000/svg" xmlns:xlink="http://www.w3.org/1999/xlink" width="28pt" height="28pt" viewBox="0 0 28 28" version="1.1">
<g id="surface1">
<path style=" stroke:none;fill-rule:nonzero;fill:rgb(0%,0%,0%);fill-opacity:1;" d="M 12.941406 3.105469 L 7.640625 2.070312 C 7.410156 2.027344 7.175781 2.132812 7.058594 2.335938 C 6.980469 2.472656 5.109375 5.734375 4.292969 9.90625 C 4.105469 10.867188 4.023438 11.824219 4.042969 12.730469 C 4.050781 13.441406 4.136719 14.160156 4.296875 14.851562 C 4.34375 15.050781 4.398438 15.242188 4.457031 15.4375 C 4.910156 16.878906 5.6875 17.867188 6.675781 18.273438 L 5.53125 24.445312 L 3.0625 23.964844 C 2.441406 23.84375 1.796875 24.1875 1.558594 24.78125 C 1.519531 24.878906 1.492188 24.984375 1.472656 25.089844 C 1.453125 25.1875 1.433594 25.289062 1.425781 25.390625 C 1.402344 25.714844 1.5 26.035156 1.695312 26.292969 C 1.894531 26.558594 2.1875 26.738281 2.511719 26.800781 L 8.523438 27.976562 C 9.046875 28.078125 9.597656 27.84375 9.898438 27.40625 C 9.976562 27.292969 10.035156 27.164062 10.074219 27.03125 C 10.121094 26.867188 10.15625 26.691406 10.164062 26.519531 C 10.179688 26.207031 10.082031 25.894531 9.894531 25.644531 C 9.695312 25.382812 9.402344 25.199219 9.078125 25.136719 L 6.609375 24.65625 L 7.753906 18.484375 C 8.761719 18.472656 9.789062 17.914062 10.710938 16.867188 C 10.785156 16.78125 10.859375 16.695312 10.929688 16.605469 C 11.605469 15.761719 12.171875 14.699219 12.585938 13.507812 C 12.800781 12.894531 12.96875 12.261719 13.09375 11.621094 C 13.910156 7.449219 13.402344 3.722656 13.378906 3.566406 C 13.347656 3.335938 13.171875 3.148438 12.941406 3.105469 Z M 9.027344 26.320312 C 9.066406 26.382812 9.070312 26.457031 9.058594 26.527344 C 9.050781 26.59375 9.039062 26.667969 9.015625 26.730469 C 8.96875 26.847656 8.859375 26.921875 8.734375 26.898438 L 2.722656 25.722656 C 2.648438 25.710938 2.585938 25.664062 2.550781 25.597656 C 2.503906 25.511719 2.527344 25.417969 2.546875 25.328125 C 2.5625 25.242188 2.574219 25.160156 2.640625 25.101562 C 2.695312 25.050781 2.777344 25.027344 2.855469 25.042969 L 8.867188 26.214844 C 8.957031 26.230469 9.003906 26.289062 9.027344 26.320312 Z M 7.824219 3.226562 L 12.335938 4.105469 C 12.441406 5.152344 12.648438 8.171875 12.019531 11.410156 C 11.96875 11.671875 11.910156 11.925781 11.84375 12.171875 L 5.140625 12.171875 C 5.160156 11.507812 5.238281 10.8125 5.371094 10.113281 C 6.003906 6.882812 7.335938 4.15625 7.824219 3.226562 Z M 11.035156 14.382812 C 10.757812 14.953125 10.421875 15.5 10.019531 15.988281 C 9.429688 16.703125 8.804688 17.15625 8.207031 17.320312 C 7.90625 17.398438 7.589844 17.410156 7.285156 17.324219 C 6.777344 17.183594 6.332031 16.789062 5.980469 16.203125 C 5.574219 15.523438 5.359375 14.734375 5.246094 13.957031 C 5.210938 13.730469 5.1875 13.5 5.167969 13.273438 L 11.507812 13.273438 C 11.371094 13.648438 11.214844 14.019531 11.035156 14.382812 Z M 11.035156 14.382812 "/>
<path style=" stroke:none;fill-rule:nonzero;fill:rgb(0%,0%,0%);fill-opacity:1;" d="M 11.054688 9.53125 C 11.070312 9.53125 11.089844 9.53125 11.105469 9.53125 C 11.386719 9.53125 11.625 9.320312 11.652344 9.035156 C 11.753906 7.902344 11.785156 6.738281 11.738281 5.566406 C 11.726562 5.261719 11.472656 5.027344 11.167969 5.039062 C 10.863281 5.050781 10.628906 5.304688 10.640625 5.609375 C 10.683594 6.734375 10.65625 7.851562 10.558594 8.933594 C 10.53125 9.234375 10.753906 9.503906 11.054688 9.53125 Z M 11.054688 9.53125 "/>
<path style=" stroke:none;fill-rule:nonzero;fill:rgb(0%,0%,0%);fill-opacity:1;" d="M 26.554688 25.222656 C 26.515625 25.023438 26.472656 24.820312 26.375 24.636719 C 26.289062 24.480469 26.171875 24.34375 26.03125 24.234375 C 25.726562 23.988281 25.320312 23.886719 24.9375 23.964844 L 22.46875 24.445312 L 21.261719 18.273438 C 23.378906 17.394531 24.417969 13.886719 23.640625 9.90625 C 22.824219 5.734375 20.953125 2.472656 20.875 2.335938 C 20.757812 2.132812 20.523438 2.027344 20.292969 2.070312 L 14.992188 3.105469 C 14.765625 3.148438 14.585938 3.335938 14.554688 3.566406 C 14.53125 3.722656 14.023438 7.449219 14.839844 11.621094 C 15.617188 15.605469 17.894531 18.464844 20.1875 18.484375 L 21.390625 24.65625 L 18.921875 25.136719 C 18.40625 25.238281 17.984375 25.648438 17.867188 26.15625 C 17.796875 26.460938 17.84375 26.785156 17.9375 27.074219 C 18.03125 27.359375 18.222656 27.609375 18.472656 27.773438 C 18.765625 27.96875 19.128906 28.042969 19.476562 27.976562 L 25.488281 26.800781 C 26.210938 26.660156 26.695312 25.945312 26.554688 25.222656 Z M 15.597656 4.105469 L 20.109375 3.226562 C 20.597656 4.15625 21.929688 6.882812 22.5625 10.113281 C 22.589844 10.257812 22.613281 10.402344 22.636719 10.542969 L 15.765625 10.542969 C 15.324219 7.648438 15.503906 5.058594 15.597656 4.105469 Z M 25.4375 25.621094 C 25.417969 25.652344 25.367188 25.707031 25.28125 25.722656 L 19.265625 26.898438 C 19.191406 26.914062 19.109375 26.890625 19.050781 26.835938 C 18.984375 26.777344 18.972656 26.695312 18.957031 26.613281 C 18.941406 26.527344 18.917969 26.441406 18.953125 26.359375 C 18.984375 26.285156 19.054688 26.230469 19.132812 26.214844 L 25.144531 25.042969 C 25.269531 25.015625 25.382812 25.09375 25.425781 25.207031 C 25.472656 25.324219 25.511719 25.507812 25.4375 25.621094 Z M 20.101562 17.382812 C 19.628906 17.355469 19.1875 17.136719 18.808594 16.859375 C 18.433594 16.582031 18.105469 16.238281 17.820312 15.871094 C 17.644531 15.648438 17.484375 15.414062 17.335938 15.171875 C 17.054688 14.714844 16.796875 14.199219 16.570312 13.640625 C 16.308594 12.996094 16.109375 12.324219 15.964844 11.640625 L 22.761719 11.640625 C 22.832031 12.640625 22.789062 13.664062 22.558594 14.640625 C 22.492188 14.917969 22.410156 15.195312 22.304688 15.460938 C 21.921875 16.46875 21.34375 17.121094 20.667969 17.320312 C 20.484375 17.371094 20.292969 17.394531 20.101562 17.382812 Z M 20.101562 17.382812 "/>
<path style=" stroke:none;fill-rule:nonzero;fill:rgb(0%,0%,0%);fill-opacity:1;" d="M 14.433594 0.550781 C 14.433594 0.246094 14.1875 0 13.886719 0 C 13.582031 0 13.335938 0.246094 13.335938 0.550781 L 13.335938 2.332031 C 13.335938 2.636719 13.582031 2.882812 13.886719 2.882812 C 14.1875 2.882812 14.433594 2.636719 14.433594 2.332031 Z M 14.433594 0.550781 "/>
<path style=" stroke:none;fill-rule:nonzero;fill:rgb(0%,0%,0%);fill-opacity:1;" d="M 11.660156 2.078125 C 11.761719 2.246094 11.941406 2.34375 12.128906 2.34375 C 12.226562 2.34375 12.324219 2.316406 12.414062 2.261719 C 12.671875 2.105469 12.753906 1.765625 12.597656 1.507812 L 11.921875 0.394531 C 11.761719 0.132812 11.425781 0.0507812 11.167969 0.210938 C 10.90625 0.367188 10.824219 0.703125 10.980469 0.964844 Z M 11.660156 2.078125 "/>
<path style=" stroke:none;fill-rule:nonzero;fill:rgb(0%,0%,0%);fill-opacity:1;" d="M 15.464844 2.261719 C 15.554688 2.316406 15.652344 2.34375 15.75 2.34375 C 15.9375 2.34375 16.117188 2.246094 16.222656 2.078125 L 16.898438 0.964844 C 17.054688 0.703125 16.972656 0.367188 16.714844 0.210938 C 16.453125 0.0507812 16.117188 0.132812 15.957031 0.394531 L 15.28125 1.507812 C 15.125 1.765625 15.207031 2.105469 15.464844 2.261719 Z M 15.464844 2.261719 "/>
<path style=" stroke:none;fill-rule:nonzero;fill:rgb(0%,0%,0%);fill-opacity:1;" d="M 19.726562 6.835938 C 19.9375 7.410156 20.125 7.988281 20.289062 8.574219 C 20.355469 8.808594 20.390625 9.050781 20.617188 9.1875 C 20.8125 9.304688 21.070312 9.285156 21.246094 9.140625 C 21.414062 9.003906 21.480469 8.78125 21.429688 8.574219 C 21.355469 8.289062 21.269531 8.007812 21.183594 7.726562 C 21.09375 7.4375 21 7.148438 20.902344 6.859375 C 20.851562 6.71875 20.808594 6.570312 20.746094 6.433594 C 20.707031 6.335938 20.640625 6.253906 20.554688 6.195312 C 20.363281 6.0625 20.097656 6.070312 19.910156 6.210938 C 19.722656 6.355469 19.644531 6.613281 19.726562 6.835938 Z M 19.726562 6.835938 "/>
<path style=" stroke:none;fill-rule:nonzero;fill:rgb(0%,0%,0%);fill-opacity:1;" d="M 11.347656 11.160156 C 11.347656 11.460938 11.101562 11.710938 10.796875 11.710938 C 10.492188 11.710938 10.246094 11.460938 10.246094 11.160156 C 10.246094 10.855469 10.492188 10.605469 10.796875 10.605469 C 11.101562 10.605469 11.347656 10.855469 11.347656 11.160156 Z M 11.347656 11.160156 "/>
<path style=" stroke:none;fill-rule:nonzero;fill:rgb(0%,0%,0%);fill-opacity:1;" d="M 19.96875 4.625 C 19.96875 4.929688 19.71875 5.175781 19.414062 5.175781 C 19.113281 5.175781 18.863281 4.929688 18.863281 4.625 C 18.863281 4.320312 19.113281 4.074219 19.414062 4.074219 C 19.71875 4.074219 19.96875 4.320312 19.96875 4.625 Z M 19.96875 4.625 "/>
</g>
</svg>
