<?xml version="1.0" encoding="UTF-8"?>
<svg xmlns="http://www.w3.org/2000/svg" xmlns:xlink="http://www.w3.org/1999/xlink" width="28pt" height="28pt" viewBox="0 0 28 28" version="1.1">
<g id="surface1">
<path style=" stroke:none;fill-rule:nonzero;fill:rgb(0%,0%,0%);fill-opacity:1;" d="M 4.976562 22.21875 C 4.875 22.117188 4.734375 22.058594 4.589844 22.058594 C 4.445312 22.058594 4.304688 22.117188 4.203125 22.21875 C 4.101562 22.320312 4.042969 22.464844 4.042969 22.609375 C 4.042969 22.753906 4.101562 22.894531 4.203125 22.996094 C 4.304688 23.097656 4.445312 23.15625 4.589844 23.15625 C 4.734375 23.15625 4.875 23.097656 4.976562 22.996094 C 5.078125 22.894531 5.136719 22.753906 5.136719 22.609375 C 5.136719 22.464844 5.078125 22.320312 4.976562 22.21875 Z M 4.976562 22.21875 "/>
<path style=" stroke:none;fill-rule:nonzero;fill:rgb(0%,0%,0%);fill-opacity:1;" d="M 27.808594 24.277344 C 26.992188 23.3125 26.710938 21.976562 27.074219 20.785156 C 27.152344 20.519531 27.023438 20.238281 26.773438 20.125 C 26.65625 20.074219 26.542969 20.015625 26.433594 19.953125 C 25.332031 19.316406 24.628906 18.1875 24.550781 16.929688 C 24.535156 16.65625 24.320312 16.4375 24.050781 16.414062 C 23.488281 16.371094 22.957031 16.203125 22.464844 15.917969 C 21.878906 15.578125 21.390625 15.089844 21.058594 14.5 C 20.921875 14.257812 20.625 14.15625 20.367188 14.265625 C 19.796875 14.507812 19.171875 14.605469 18.554688 14.550781 C 18.8125 13.984375 19.210938 13.488281 19.710938 13.113281 C 19.933594 12.945312 19.996094 12.636719 19.851562 12.398438 C 19.507812 11.816406 19.328125 11.148438 19.328125 10.46875 C 19.328125 9.902344 19.449219 9.359375 19.6875 8.851562 C 19.804688 8.605469 19.722656 8.3125 19.496094 8.160156 C 18.445312 7.464844 17.820312 6.289062 17.820312 5.019531 C 17.820312 4.890625 17.824219 4.761719 17.835938 4.636719 C 17.863281 4.363281 17.683594 4.109375 17.417969 4.046875 C 16.207031 3.765625 15.1875 2.851562 14.761719 1.667969 C 14.648438 1.34375 14.351562 1.132812 14.007812 1.132812 C 13.664062 1.132812 13.367188 1.34375 13.25 1.667969 C 12.824219 2.851562 11.808594 3.765625 10.59375 4.046875 C 10.328125 4.109375 10.148438 4.363281 10.175781 4.636719 C 10.1875 4.761719 10.195312 4.890625 10.195312 5.019531 C 10.195312 6.289062 9.566406 7.464844 8.515625 8.160156 C 8.289062 8.3125 8.207031 8.605469 8.324219 8.851562 C 8.5625 9.359375 8.683594 9.902344 8.683594 10.46875 C 8.683594 11.152344 8.503906 11.816406 8.160156 12.398438 C 8.015625 12.636719 8.078125 12.945312 8.300781 13.113281 C 8.800781 13.488281 9.195312 13.984375 9.457031 14.546875 C 8.835938 14.605469 8.207031 14.507812 7.632812 14.265625 C 7.375 14.15625 7.078125 14.253906 6.941406 14.5 C 6.609375 15.085938 6.125 15.578125 5.535156 15.917969 C 5.042969 16.199219 4.511719 16.367188 3.953125 16.414062 C 3.679688 16.4375 3.46875 16.65625 3.449219 16.925781 C 3.371094 18.183594 2.667969 19.316406 1.570312 19.949219 C 1.457031 20.011719 1.34375 20.070312 1.226562 20.125 C 0.976562 20.238281 0.847656 20.519531 0.929688 20.78125 C 1.289062 21.972656 1.007812 23.308594 0.191406 24.269531 C -0.03125 24.535156 -0.0625 24.894531 0.109375 25.191406 C 0.28125 25.488281 0.609375 25.640625 0.949219 25.582031 C 2.1875 25.359375 3.488281 25.78125 4.339844 26.691406 C 4.527344 26.890625 4.835938 26.921875 5.058594 26.761719 C 5.164062 26.6875 5.269531 26.617188 5.382812 26.554688 C 6.480469 25.917969 7.8125 25.875 8.941406 26.433594 C 9.183594 26.554688 9.480469 26.480469 9.636719 26.257812 C 9.953125 25.796875 10.367188 25.417969 10.855469 25.132812 C 11.445312 24.792969 12.113281 24.621094 12.789062 24.625 C 12.789062 24.625 12.792969 24.625 12.792969 24.625 C 13.070312 24.625 13.304688 24.417969 13.335938 24.144531 C 13.410156 23.527344 13.640625 22.933594 14 22.429688 C 14.359375 22.933594 14.589844 23.527344 14.664062 24.144531 C 14.699219 24.421875 14.929688 24.628906 15.207031 24.628906 C 15.210938 24.628906 15.210938 24.628906 15.214844 24.628906 C 15.890625 24.621094 16.554688 24.796875 17.144531 25.136719 C 17.636719 25.417969 18.046875 25.796875 18.367188 26.257812 C 18.523438 26.480469 18.816406 26.558594 19.0625 26.4375 C 20.191406 25.875 21.519531 25.921875 22.621094 26.554688 C 22.730469 26.617188 22.839844 26.6875 22.941406 26.761719 C 23.039062 26.832031 23.152344 26.867188 23.261719 26.867188 C 23.410156 26.867188 23.554688 26.808594 23.660156 26.691406 C 24.511719 25.785156 25.8125 25.359375 27.050781 25.585938 C 27.390625 25.648438 27.71875 25.496094 27.890625 25.199219 C 28.0625 24.898438 28.03125 24.539062 27.808594 24.277344 Z M 9.320312 12.539062 C 9.621094 11.894531 9.78125 11.1875 9.78125 10.46875 C 9.78125 9.894531 9.683594 9.335938 9.488281 8.804688 C 10.625 7.886719 11.289062 6.503906 11.289062 5.019531 C 11.289062 5.007812 11.289062 4.996094 11.289062 4.988281 C 12.449219 4.589844 13.429688 3.746094 14.007812 2.660156 C 14.582031 3.746094 15.566406 4.589844 16.722656 4.988281 C 16.722656 4.996094 16.722656 5.007812 16.722656 5.019531 C 16.722656 6.503906 17.386719 7.886719 18.523438 8.804688 C 18.328125 9.335938 18.230469 9.894531 18.230469 10.46875 C 18.230469 11.1875 18.390625 11.894531 18.691406 12.539062 C 18.070312 13.109375 17.601562 13.839844 17.34375 14.644531 C 17.105469 14.570312 16.851562 14.527344 16.589844 14.515625 C 16.226562 13.910156 15.65625 13.445312 14.980469 13.210938 L 16.582031 11.609375 C 16.796875 11.398438 16.796875 11.050781 16.582031 10.835938 C 16.367188 10.621094 16.019531 10.621094 15.808594 10.835938 L 14.554688 12.089844 L 14.554688 8.554688 C 14.554688 8.25 14.308594 8.003906 14.003906 8.003906 C 13.703125 8.003906 13.457031 8.25 13.457031 8.554688 L 13.457031 10.28125 L 12.542969 9.367188 C 12.328125 9.152344 11.984375 9.152344 11.769531 9.367188 C 11.554688 9.582031 11.554688 9.929688 11.769531 10.140625 L 13.429688 11.804688 C 13.441406 11.8125 13.449219 11.820312 13.457031 11.828125 L 13.457031 13.101562 C 12.59375 13.261719 11.859375 13.789062 11.425781 14.515625 C 11.164062 14.527344 10.910156 14.570312 10.667969 14.644531 C 10.410156 13.839844 9.941406 13.109375 9.320312 12.539062 Z M 16.992188 15.683594 C 17.792969 15.910156 18.378906 16.648438 18.378906 17.523438 C 18.378906 18.578125 17.523438 19.4375 16.46875 19.4375 C 15.945312 19.4375 15.453125 19.222656 15.101562 18.859375 C 16.21875 18.421875 17.015625 17.332031 17.015625 16.058594 C 17.015625 15.929688 17.007812 15.804688 16.992188 15.683594 Z M 12.90625 18.859375 C 12.554688 19.222656 12.0625 19.4375 11.539062 19.4375 C 10.484375 19.4375 9.625 18.578125 9.625 17.523438 C 9.625 16.648438 10.21875 15.90625 11.023438 15.679688 C 11.007812 15.804688 11 15.929688 11 16.058594 C 11 17.328125 11.792969 18.417969 12.90625 18.859375 Z M 13.453125 21.359375 C 12.898438 21.980469 12.507812 22.738281 12.328125 23.546875 C 11.621094 23.609375 10.929688 23.828125 10.308594 24.183594 C 9.808594 24.472656 9.375 24.835938 9.011719 25.269531 C 7.648438 24.746094 6.117188 24.863281 4.832031 25.605469 C 4.824219 25.609375 4.816406 25.613281 4.804688 25.621094 C 3.882812 24.816406 2.660156 24.386719 1.429688 24.429688 C 2.082031 23.386719 2.324219 22.117188 2.089844 20.914062 C 2.097656 20.910156 2.105469 20.902344 2.117188 20.898438 C 3.402344 20.15625 4.269531 18.886719 4.496094 17.449219 C 5.050781 17.347656 5.585938 17.152344 6.082031 16.867188 C 6.703125 16.507812 7.238281 16.019531 7.644531 15.433594 C 8.140625 15.589844 8.660156 15.667969 9.179688 15.660156 C 8.773438 16.171875 8.53125 16.820312 8.53125 17.523438 C 8.53125 17.957031 8.625 18.367188 8.789062 18.742188 L 7.167969 18.304688 C 6.875 18.226562 6.574219 18.402344 6.496094 18.695312 C 6.417969 18.984375 6.59375 19.285156 6.882812 19.363281 L 8.40625 19.773438 L 6.148438 21.074219 C 5.886719 21.226562 5.796875 21.5625 5.949219 21.824219 C 6.050781 22 6.234375 22.097656 6.421875 22.097656 C 6.515625 22.097656 6.609375 22.074219 6.695312 22.023438 L 7.535156 21.539062 L 7.324219 22.332031 C 7.246094 22.625 7.417969 22.925781 7.710938 23.003906 C 7.757812 23.015625 7.804688 23.023438 7.851562 23.023438 C 8.09375 23.023438 8.316406 22.863281 8.382812 22.617188 L 8.875 20.773438 C 8.875 20.769531 8.878906 20.769531 8.878906 20.765625 L 10.007812 20.113281 C 10.457031 20.378906 10.980469 20.53125 11.539062 20.53125 C 12.25 20.53125 12.921875 20.28125 13.453125 19.84375 Z M 12.09375 16.058594 C 12.09375 15.003906 12.953125 14.144531 14.007812 14.144531 C 15.0625 14.144531 15.921875 15.003906 15.921875 16.058594 C 15.921875 17.113281 15.0625 17.972656 14.007812 17.972656 C 12.953125 17.972656 12.09375 17.113281 12.09375 16.058594 Z M 23.195312 25.621094 C 23.1875 25.617188 23.175781 25.613281 23.167969 25.605469 C 22.410156 25.167969 21.570312 24.949219 20.726562 24.949219 C 20.140625 24.949219 19.550781 25.054688 18.992188 25.273438 C 18.625 24.839844 18.191406 24.476562 17.691406 24.1875 C 17.070312 23.828125 16.378906 23.609375 15.671875 23.550781 C 15.492188 22.738281 15.101562 21.980469 14.546875 21.359375 L 14.546875 19.839844 C 15.078125 20.277344 15.753906 20.53125 16.46875 20.53125 C 16.945312 20.53125 17.394531 20.417969 17.796875 20.222656 L 18.394531 22.449219 C 18.460938 22.691406 18.679688 22.855469 18.921875 22.855469 C 18.96875 22.855469 19.015625 22.847656 19.066406 22.835938 C 19.355469 22.757812 19.53125 22.457031 19.453125 22.164062 L 19.070312 20.734375 L 21.347656 22.050781 C 21.433594 22.101562 21.527344 22.125 21.621094 22.125 C 21.8125 22.125 21.996094 22.027344 22.097656 21.851562 C 22.246094 21.589844 22.15625 21.253906 21.894531 21.101562 L 21.015625 20.59375 L 21.761719 20.394531 C 22.054688 20.3125 22.226562 20.015625 22.148438 19.722656 C 22.070312 19.429688 21.769531 19.253906 21.476562 19.335938 L 19.683594 19.816406 C 19.679688 19.816406 19.675781 19.816406 19.671875 19.816406 L 18.859375 19.347656 C 19.246094 18.839844 19.476562 18.207031 19.476562 17.523438 C 19.476562 16.820312 19.234375 16.171875 18.828125 15.660156 C 19.34375 15.667969 19.863281 15.59375 20.355469 15.4375 C 20.765625 16.019531 21.296875 16.507812 21.917969 16.867188 C 22.417969 17.15625 22.949219 17.351562 23.507812 17.449219 C 23.734375 18.890625 24.597656 20.160156 25.886719 20.902344 C 25.894531 20.90625 25.902344 20.910156 25.914062 20.917969 C 25.675781 22.117188 25.917969 23.390625 26.570312 24.433594 C 25.339844 24.390625 24.117188 24.816406 23.195312 25.621094 Z M 23.195312 25.621094 "/>
<path style=" stroke:none;fill-rule:nonzero;fill:rgb(0%,0%,0%);fill-opacity:1;" d="M 14.386719 5.890625 C 14.285156 5.789062 14.144531 5.730469 14 5.730469 C 13.855469 5.730469 13.714844 5.789062 13.613281 5.890625 C 13.511719 5.992188 13.453125 6.136719 13.453125 6.28125 C 13.453125 6.421875 13.511719 6.566406 13.613281 6.667969 C 13.714844 6.769531 13.855469 6.828125 14 6.828125 C 14.144531 6.828125 14.285156 6.769531 14.386719 6.667969 C 14.488281 6.566406 14.546875 6.421875 14.546875 6.28125 C 14.546875 6.136719 14.488281 5.992188 14.386719 5.890625 Z M 14.386719 5.890625 "/>
<path style=" stroke:none;fill-rule:nonzero;fill:rgb(0%,0%,0%);fill-opacity:1;" d="M 23.835938 22.242188 C 23.734375 22.140625 23.59375 22.082031 23.449219 22.082031 C 23.304688 22.082031 23.164062 22.140625 23.0625 22.242188 C 22.960938 22.347656 22.902344 22.488281 22.902344 22.632812 C 22.902344 22.773438 22.960938 22.917969 23.0625 23.019531 C 23.164062 23.121094 23.304688 23.179688 23.449219 23.179688 C 23.59375 23.179688 23.734375 23.121094 23.835938 23.019531 C 23.9375 22.917969 23.996094 22.773438 23.996094 22.632812 C 23.996094 22.488281 23.9375 22.347656 23.835938 22.242188 Z M 23.835938 22.242188 "/>
</g>
</svg>
