<?xml version="1.0" encoding="UTF-8"?>
<svg xmlns="http://www.w3.org/2000/svg" xmlns:xlink="http://www.w3.org/1999/xlink" width="28pt" height="28pt" viewBox="0 0 28 28" version="1.1">
<g id="surface1">
<path style=" stroke:none;fill-rule:nonzero;fill:rgb(0%,0%,0%);fill-opacity:1;" d="M 24.738281 6.773438 L 22.335938 6.773438 C 23.648438 5.503906 23.941406 3.441406 22.925781 1.835938 C 22.199219 0.6875 20.953125 0 19.59375 0 C 18.847656 0 18.121094 0.210938 17.488281 0.609375 C 16.101562 1.488281 14.617188 4.835938 14 6.347656 C 13.382812 4.835938 11.898438 1.488281 10.511719 0.613281 C 9.878906 0.210938 9.152344 0 8.410156 0 C 7.046875 0 5.800781 0.6875 5.074219 1.835938 C 4.0625 3.441406 4.351562 5.5 5.664062 6.773438 L 3.261719 6.773438 C 2.867188 6.773438 2.546875 7.09375 2.546875 7.488281 L 2.546875 13.566406 C 2.546875 13.960938 2.867188 14.28125 3.261719 14.28125 L 3.65625 14.28125 L 3.65625 27.285156 C 3.65625 27.679688 3.976562 28 4.371094 28 L 23.628906 28 C 24.023438 28 24.34375 27.679688 24.34375 27.285156 L 24.34375 14.28125 L 24.738281 14.28125 C 25.132812 14.28125 25.453125 13.960938 25.453125 13.566406 L 25.453125 7.488281 C 25.453125 7.09375 25.132812 6.773438 24.738281 6.773438 Z M 24.023438 12.847656 L 17.335938 12.847656 L 17.335938 8.207031 L 24.023438 8.207031 Z M 15.902344 8.207031 L 15.902344 12.847656 L 12.097656 12.847656 L 12.097656 8.207031 Z M 18.253906 1.820312 C 18.65625 1.566406 19.117188 1.433594 19.589844 1.433594 C 20.457031 1.433594 21.253906 1.867188 21.714844 2.601562 C 22.453125 3.773438 22.105469 5.324219 20.933594 6.0625 C 20.6875 6.21875 19.8125 6.582031 16.984375 6.582031 C 16.417969 6.582031 15.890625 6.566406 15.46875 6.550781 C 16.246094 4.703125 17.445312 2.332031 18.253906 1.820312 Z M 6.28125 2.601562 C 6.746094 1.867188 7.539062 1.433594 8.40625 1.433594 C 8.878906 1.433594 9.34375 1.566406 9.746094 1.820312 C 10.554688 2.332031 11.753906 4.703125 12.53125 6.550781 C 12.105469 6.566406 11.574219 6.582031 11.003906 6.582031 C 8.183594 6.582031 7.308594 6.222656 7.0625 6.066406 C 5.894531 5.324219 5.542969 3.769531 6.28125 2.601562 Z M 3.976562 8.207031 L 10.664062 8.207031 L 10.664062 12.847656 L 3.976562 12.847656 Z M 5.089844 14.28125 L 10.664062 14.28125 L 10.664062 26.566406 L 5.089844 26.566406 Z M 12.097656 26.566406 L 12.097656 14.28125 L 15.902344 14.28125 L 15.902344 26.566406 Z M 22.910156 26.566406 L 17.335938 26.566406 L 17.335938 14.28125 L 22.910156 14.28125 Z M 22.910156 26.566406 "/>
</g>
</svg>
