<?xml version="1.0" encoding="UTF-8"?>
<svg xmlns="http://www.w3.org/2000/svg" xmlns:xlink="http://www.w3.org/1999/xlink" width="28pt" height="28pt" viewBox="0 0 28 28" version="1.1">
<g id="surface1">
<path style=" stroke:none;fill-rule:nonzero;fill:rgb(0%,0%,0%);fill-opacity:1;" d="M 12.601562 6.066406 L 2.332031 6.066406 C 1.046875 6.066406 0 7.113281 0 8.398438 L 0 23.332031 C 0 24.621094 1.046875 25.667969 2.332031 25.667969 L 8.398438 25.667969 L 8.398438 24.734375 L 2.332031 24.734375 C 1.5625 24.734375 0.933594 24.105469 0.933594 23.332031 L 0.933594 8.398438 C 0.933594 7.628906 1.5625 7 2.332031 7 L 12.601562 7 C 13.371094 7 14 7.628906 14 8.398438 L 14 8.867188 L 14.933594 8.867188 L 14.933594 8.398438 C 14.933594 7.113281 13.886719 6.066406 12.601562 6.066406 Z M 12.601562 6.066406 "/>
<path style=" stroke:none;fill-rule:nonzero;fill:rgb(0%,0%,0%);fill-opacity:1;" d="M 10.265625 0 L 4.667969 0 C 3.894531 0 3.265625 0.628906 3.265625 1.398438 C 3.265625 2.171875 3.894531 2.800781 4.667969 2.800781 L 10.265625 2.800781 C 11.039062 2.800781 11.667969 2.171875 11.667969 1.398438 C 11.667969 0.628906 11.039062 0 10.265625 0 Z M 10.265625 1.867188 L 4.667969 1.867188 C 4.410156 1.867188 4.199219 1.65625 4.199219 1.398438 C 4.199219 1.144531 4.410156 0.933594 4.667969 0.933594 L 10.265625 0.933594 C 10.523438 0.933594 10.734375 1.144531 10.734375 1.398438 C 10.734375 1.65625 10.523438 1.867188 10.265625 1.867188 Z M 10.265625 1.867188 "/>
<path style=" stroke:none;fill-rule:nonzero;fill:rgb(0%,0%,0%);fill-opacity:1;" d="M 5.132812 2.332031 L 6.066406 2.332031 L 6.066406 6.535156 L 5.132812 6.535156 Z M 5.132812 2.332031 "/>
<path style=" stroke:none;fill-rule:nonzero;fill:rgb(0%,0%,0%);fill-opacity:1;" d="M 8.867188 2.332031 L 9.800781 2.332031 L 9.800781 6.535156 L 8.867188 6.535156 Z M 8.867188 2.332031 "/>
<path style=" stroke:none;fill-rule:nonzero;fill:rgb(0%,0%,0%);fill-opacity:1;" d="M 2.800781 14 L 3.734375 14 L 3.734375 22.398438 L 2.800781 22.398438 Z M 2.800781 14 "/>
<path style=" stroke:none;fill-rule:nonzero;fill:rgb(0%,0%,0%);fill-opacity:1;" d="M 8.398438 8.867188 L 9.332031 8.867188 L 9.332031 12.601562 L 8.398438 12.601562 Z M 8.398438 8.867188 "/>
<path style=" stroke:none;fill-rule:nonzero;fill:rgb(0%,0%,0%);fill-opacity:1;" d="M 2.101562 24.734375 C 1.199219 24.734375 0.464844 25.464844 0.464844 26.367188 C 0.464844 27.265625 1.199219 28 2.101562 28 C 3 28 3.734375 27.265625 3.734375 26.367188 C 3.734375 25.464844 3 24.734375 2.101562 24.734375 Z M 2.101562 27.066406 C 1.714844 27.066406 1.398438 26.753906 1.398438 26.367188 C 1.398438 25.980469 1.714844 25.667969 2.101562 25.667969 C 2.484375 25.667969 2.800781 25.980469 2.800781 26.367188 C 2.800781 26.753906 2.484375 27.066406 2.101562 27.066406 Z M 2.101562 27.066406 "/>
<path style=" stroke:none;fill-rule:nonzero;fill:rgb(0%,0%,0%);fill-opacity:1;" d="M 5.601562 8.867188 L 6.535156 8.867188 L 6.535156 22.398438 L 5.601562 22.398438 Z M 5.601562 8.867188 "/>
<path style=" stroke:none;fill-rule:nonzero;fill:rgb(0%,0%,0%);fill-opacity:1;" d="M 5.101562 12.894531 L 4.167969 10.558594 C 4.121094 10.441406 4.027344 10.351562 3.910156 10.300781 C 3.796875 10.253906 3.664062 10.253906 3.550781 10.304688 L 0.28125 11.703125 C 0.109375 11.777344 0 11.945312 0 12.132812 L 0 14.933594 C 0 15.089844 0.078125 15.238281 0.210938 15.324219 C 0.289062 15.375 0.378906 15.398438 0.464844 15.398438 C 0.53125 15.398438 0.59375 15.386719 0.65625 15.359375 L 4.855469 13.492188 C 5.085938 13.390625 5.191406 13.125 5.101562 12.894531 Z M 0.933594 14.214844 L 0.933594 12.441406 L 3.476562 11.351562 L 4.066406 12.824219 Z M 0.933594 14.214844 "/>
<path style=" stroke:none;fill-rule:nonzero;fill:rgb(0%,0%,0%);fill-opacity:1;" d="M 2.800781 8.867188 L 3.734375 8.867188 L 3.734375 11.199219 L 2.800781 11.199219 Z M 2.800781 8.867188 "/>
<path style=" stroke:none;fill-rule:nonzero;fill:rgb(0%,0%,0%);fill-opacity:1;" d="M 11.199219 8.867188 L 12.132812 8.867188 L 12.132812 12.601562 L 11.199219 12.601562 Z M 11.199219 8.867188 "/>
<path style=" stroke:none;fill-rule:nonzero;fill:rgb(0%,0%,0%);fill-opacity:1;" d="M 12.832031 24.734375 C 11.933594 24.734375 11.199219 25.464844 11.199219 26.367188 C 11.199219 27.265625 11.933594 28 12.832031 28 C 13.734375 28 14.464844 27.265625 14.464844 26.367188 C 14.464844 25.464844 13.734375 24.734375 12.832031 24.734375 Z M 12.832031 27.066406 C 12.449219 27.066406 12.132812 26.753906 12.132812 26.367188 C 12.132812 25.980469 12.449219 25.667969 12.832031 25.667969 C 13.21875 25.667969 13.535156 25.980469 13.535156 26.367188 C 13.535156 26.753906 13.21875 27.066406 12.832031 27.066406 Z M 12.832031 27.066406 "/>
<path style=" stroke:none;fill-rule:nonzero;fill:rgb(0%,0%,0%);fill-opacity:1;" d="M 25.667969 11.667969 L 9.332031 11.667969 C 8.046875 11.667969 7 12.714844 7 14 L 7 23.332031 C 7 24.621094 8.046875 25.667969 9.332031 25.667969 L 25.667969 25.667969 C 26.953125 25.667969 28 24.621094 28 23.332031 L 28 14 C 28 12.714844 26.953125 11.667969 25.667969 11.667969 Z M 27.066406 23.332031 C 27.066406 24.105469 26.4375 24.734375 25.667969 24.734375 L 9.332031 24.734375 C 8.5625 24.734375 7.933594 24.105469 7.933594 23.332031 L 7.933594 14 C 7.933594 13.226562 8.5625 12.601562 9.332031 12.601562 L 25.667969 12.601562 C 26.4375 12.601562 27.066406 13.226562 27.066406 14 Z M 27.066406 23.332031 "/>
<path style=" stroke:none;fill-rule:nonzero;fill:rgb(0%,0%,0%);fill-opacity:1;" d="M 19.601562 9.800781 L 15.398438 9.800781 C 15.140625 9.800781 14.933594 10.007812 14.933594 10.265625 L 14.933594 12.132812 L 15.867188 12.132812 L 15.867188 10.734375 L 19.132812 10.734375 L 19.132812 12.132812 L 20.066406 12.132812 L 20.066406 10.265625 C 20.066406 10.007812 19.859375 9.800781 19.601562 9.800781 Z M 19.601562 9.800781 "/>
<path style=" stroke:none;fill-rule:nonzero;fill:rgb(0%,0%,0%);fill-opacity:1;" d="M 19.601562 7.933594 L 15.398438 7.933594 C 14.113281 7.933594 13.066406 8.980469 13.066406 10.265625 L 13.066406 12.132812 L 14 12.132812 L 14 10.265625 C 14 9.496094 14.628906 8.867188 15.398438 8.867188 L 19.601562 8.867188 C 20.371094 8.867188 21 9.496094 21 10.265625 L 21 12.132812 L 21.933594 12.132812 L 21.933594 10.265625 C 21.933594 8.980469 20.886719 7.933594 19.601562 7.933594 Z M 19.601562 7.933594 "/>
<path style=" stroke:none;fill-rule:nonzero;fill:rgb(0%,0%,0%);fill-opacity:1;" d="M 19.511719 16.996094 L 17.179688 13.730469 C 17.003906 13.484375 16.59375 13.484375 16.421875 13.730469 L 14.085938 16.996094 C 13.984375 17.136719 13.972656 17.324219 14.050781 17.480469 C 14.132812 17.636719 14.292969 17.734375 14.464844 17.734375 L 19.132812 17.734375 C 19.308594 17.734375 19.46875 17.636719 19.546875 17.480469 C 19.628906 17.324219 19.613281 17.136719 19.511719 16.996094 Z M 15.375 16.800781 L 16.800781 14.804688 L 18.226562 16.800781 Z M 15.375 16.800781 "/>
<path style=" stroke:none;fill-rule:nonzero;fill:rgb(0%,0%,0%);fill-opacity:1;" d="M 24.0625 18.351562 C 22.59375 17.875 21.078125 18.480469 20.679688 19.703125 C 20.480469 20.3125 20.582031 20.976562 20.972656 21.570312 C 21.339844 22.128906 21.921875 22.5625 22.617188 22.789062 C 22.957031 22.898438 23.300781 22.949219 23.632812 22.949219 C 24.726562 22.949219 25.691406 22.375 26 21.4375 C 26.398438 20.214844 25.53125 18.832031 24.0625 18.351562 Z M 25.113281 21.148438 C 24.871094 21.882812 23.882812 22.21875 22.90625 21.898438 C 22.414062 21.738281 22.003906 21.441406 21.753906 21.054688 C 21.523438 20.707031 21.457031 20.328125 21.566406 19.992188 C 21.742188 19.445312 22.335938 19.121094 23.03125 19.121094 C 23.269531 19.121094 23.523438 19.160156 23.773438 19.238281 C 24.75 19.558594 25.351562 20.414062 25.113281 21.148438 Z M 25.113281 21.148438 "/>
<path style=" stroke:none;fill-rule:nonzero;fill:rgb(0%,0%,0%);fill-opacity:1;" d="M 9.101562 24.734375 C 8.199219 24.734375 7.464844 25.464844 7.464844 26.367188 C 7.464844 27.265625 8.199219 28 9.101562 28 C 10 28 10.734375 27.265625 10.734375 26.367188 C 10.734375 25.464844 10 24.734375 9.101562 24.734375 Z M 9.101562 27.066406 C 8.714844 27.066406 8.398438 26.753906 8.398438 26.367188 C 8.398438 25.980469 8.714844 25.667969 9.101562 25.667969 C 9.484375 25.667969 9.800781 25.980469 9.800781 26.367188 C 9.800781 26.753906 9.484375 27.066406 9.101562 27.066406 Z M 9.101562 27.066406 "/>
<path style=" stroke:none;fill-rule:nonzero;fill:rgb(0%,0%,0%);fill-opacity:1;" d="M 25.898438 24.734375 C 25 24.734375 24.265625 25.464844 24.265625 26.367188 C 24.265625 27.265625 25 28 25.898438 28 C 26.800781 28 27.535156 27.265625 27.535156 26.367188 C 27.535156 25.464844 26.800781 24.734375 25.898438 24.734375 Z M 25.898438 27.066406 C 25.515625 27.066406 25.199219 26.753906 25.199219 26.367188 C 25.199219 25.980469 25.515625 25.667969 25.898438 25.667969 C 26.285156 25.667969 26.601562 25.980469 26.601562 26.367188 C 26.601562 26.753906 26.285156 27.066406 25.898438 27.066406 Z M 25.898438 27.066406 "/>
<path style=" stroke:none;fill-rule:nonzero;fill:rgb(0%,0%,0%);fill-opacity:1;" d="M 11.199219 21.464844 L 12.132812 21.464844 L 12.132812 25.199219 L 11.199219 25.199219 Z M 11.199219 21.464844 "/>
<path style=" stroke:none;fill-rule:nonzero;fill:rgb(0%,0%,0%);fill-opacity:1;" d="M 11.667969 11.667969 L 9.800781 11.667969 C 9.542969 11.667969 9.332031 11.875 9.332031 12.132812 L 9.332031 17.734375 L 10.265625 17.734375 L 10.265625 12.601562 L 11.199219 12.601562 L 11.199219 18.667969 L 12.132812 18.667969 L 12.132812 12.132812 C 12.132812 11.875 11.925781 11.667969 11.667969 11.667969 Z M 11.667969 11.667969 "/>
<path style=" stroke:none;fill-rule:nonzero;fill:rgb(0%,0%,0%);fill-opacity:1;" d="M 9.332031 20.066406 L 10.265625 20.066406 L 10.265625 25.199219 L 9.332031 25.199219 Z M 9.332031 20.066406 "/>
<path style=" stroke:none;fill-rule:nonzero;fill:rgb(0%,0%,0%);fill-opacity:1;" d="M 24.734375 21.933594 L 25.667969 21.933594 L 25.667969 25.199219 L 24.734375 25.199219 Z M 24.734375 21.933594 "/>
<path style=" stroke:none;fill-rule:nonzero;fill:rgb(0%,0%,0%);fill-opacity:1;" d="M 25.199219 11.667969 L 23.332031 11.667969 C 23.074219 11.667969 22.867188 11.875 22.867188 12.132812 L 22.867188 18.667969 L 23.800781 18.667969 L 23.800781 12.601562 L 24.734375 12.601562 L 24.734375 19.601562 L 25.667969 19.601562 L 25.667969 12.132812 C 25.667969 11.875 25.457031 11.667969 25.199219 11.667969 Z M 25.199219 11.667969 "/>
<path style=" stroke:none;fill-rule:nonzero;fill:rgb(0%,0%,0%);fill-opacity:1;" d="M 22.867188 22.398438 L 23.800781 22.398438 L 23.800781 25.199219 L 22.867188 25.199219 Z M 22.867188 22.398438 "/>
<path style=" stroke:none;fill-rule:nonzero;fill:rgb(0%,0%,0%);fill-opacity:1;" d="M 13.300781 19.195312 L 7.703125 15.929688 L 7.230469 16.738281 L 12.453125 19.78125 L 11.941406 20.808594 L 7.707031 18.265625 L 7.226562 19.066406 L 11.894531 21.867188 C 11.964844 21.910156 12.050781 21.933594 12.132812 21.933594 C 12.175781 21.933594 12.222656 21.925781 12.265625 21.914062 C 12.386719 21.878906 12.492188 21.792969 12.550781 21.675781 L 13.484375 19.808594 C 13.59375 19.589844 13.515625 19.320312 13.300781 19.195312 Z M 13.300781 19.195312 "/>
</g>
</svg>
