<?xml version="1.0" encoding="UTF-8"?>
<svg xmlns="http://www.w3.org/2000/svg" xmlns:xlink="http://www.w3.org/1999/xlink" width="28pt" height="27pt" viewBox="0 0 28 27" version="1.1">
<g id="surface1">
<path style=" stroke:none;fill-rule:nonzero;fill:rgb(0%,0%,0%);fill-opacity:1;" d="M 24.117188 22.183594 C 24.417969 22.183594 24.664062 21.949219 24.664062 21.65625 C 24.664062 21.363281 24.417969 21.128906 24.117188 21.128906 C 23.816406 21.128906 23.570312 21.363281 23.570312 21.65625 C 23.570312 21.949219 23.816406 22.183594 24.117188 22.183594 Z M 24.117188 22.183594 "/>
<path style=" stroke:none;fill-rule:nonzero;fill:rgb(0%,0%,0%);fill-opacity:1;" d="M 0.0742188 10.578125 C 0.203125 11.175781 0.417969 11.742188 0.710938 12.253906 C 1.679688 13.929688 2.132812 15.667969 2.132812 17.246094 L 2.132812 23.769531 C 2.132812 24.0625 2.375 24.296875 2.679688 24.296875 L 4.867188 24.296875 C 5.167969 24.296875 5.414062 24.0625 5.414062 23.769531 L 5.414062 17.875 C 5.414062 16.683594 5.695312 15.488281 6.234375 14.414062 L 6.285156 14.339844 C 8.875 16.421875 10.945312 19.074219 12.300781 22.046875 C 12.921875 23.414062 14.300781 24.296875 15.816406 24.296875 L 20.289062 24.296875 C 22.449219 24.296875 24.144531 24.253906 25.410156 24.042969 C 26.035156 23.941406 27.945312 23.625 27.945312 22.183594 C 27.945312 21.371094 27.246094 20.1875 26.167969 19.175781 C 25.441406 18.492188 23.914062 17.304688 21.839844 17.011719 C 21.675781 16.988281 21.515625 17.035156 21.394531 17.140625 C 20.851562 17.613281 19.789062 17.957031 18.867188 17.957031 C 17.558594 17.957031 16.171875 17.234375 15.640625 16.277344 C 15.628906 16.257812 15.617188 16.238281 15.605469 16.222656 L 11.957031 11.191406 C 9.695312 8.074219 7 5.285156 3.9375 2.890625 C 3.738281 2.734375 3.453125 2.734375 3.253906 2.890625 C 2.398438 3.546875 1.6875 4.332031 1.136719 5.226562 C 0.0742188 6.949219 -0.269531 8.917969 0.0742188 10.5625 C 0.0742188 10.566406 0.0742188 10.570312 0.0742188 10.578125 Z M 4.320312 17.875 L 4.320312 23.242188 L 3.226562 23.242188 L 3.226562 17.246094 C 3.226562 17.089844 3.21875 16.917969 3.210938 16.738281 C 3.042969 13.84375 1.738281 11.929688 1.496094 11.410156 C 2.882812 12.03125 4.199219 12.789062 5.421875 13.679688 C 4.832031 14.601562 4.320312 16.222656 4.320312 17.875 Z M 2.078125 5.765625 C 2.484375 5.105469 2.996094 4.507812 3.597656 3.988281 C 6.4375 6.257812 8.945312 8.882812 11.058594 11.796875 L 14.691406 16.804688 C 15.417969 18.085938 17.167969 19.015625 18.867188 19.015625 C 19.945312 19.015625 21.148438 18.644531 21.914062 18.09375 C 23.566406 18.398438 24.800781 19.367188 25.40625 19.933594 C 26.355469 20.824219 26.851562 21.742188 26.851562 22.183594 C 26.851562 22.636719 25.964844 22.878906 25.222656 23.003906 C 24.035156 23.199219 22.390625 23.242188 20.289062 23.242188 L 15.816406 23.242188 C 14.734375 23.242188 13.75 22.605469 13.300781 21.621094 C 10.933594 16.421875 6.554688 12.277344 1.097656 10.085938 C 0.898438 8.785156 1.199219 7.191406 2.078125 5.765625 Z M 2.078125 5.765625 "/>
<path style=" stroke:none;fill-rule:nonzero;fill:rgb(0%,0%,0%);fill-opacity:1;" d="M 15.804688 22.183594 L 21.929688 22.183594 C 22.230469 22.183594 22.476562 21.949219 22.476562 21.65625 C 22.476562 21.363281 22.230469 21.128906 21.929688 21.128906 L 15.804688 21.128906 C 15.5 21.128906 15.257812 21.363281 15.257812 21.65625 C 15.257812 21.949219 15.5 22.183594 15.804688 22.183594 Z M 15.804688 22.183594 "/>
</g>
</svg>
