<?xml version="1.0" encoding="UTF-8"?>
<svg xmlns="http://www.w3.org/2000/svg" xmlns:xlink="http://www.w3.org/1999/xlink" width="28pt" height="28pt" viewBox="0 0 28 28" version="1.1">
<g id="surface1">
<path style=" stroke:none;fill-rule:nonzero;fill:rgb(0%,0%,0%);fill-opacity:1;" d="M 1.898438 13.050781 L 26.101562 13.050781 C 26.363281 13.050781 26.578125 12.839844 26.578125 12.578125 L 26.578125 3.558594 C 26.578125 3.296875 26.363281 3.085938 26.101562 3.085938 L 18.507812 3.085938 L 18.507812 1.660156 C 18.507812 1.398438 18.296875 1.1875 18.035156 1.1875 L 9.964844 1.1875 C 9.703125 1.1875 9.492188 1.398438 9.492188 1.660156 L 9.492188 3.085938 L 1.898438 3.085938 C 1.636719 3.085938 1.421875 3.296875 1.421875 3.558594 L 1.421875 12.578125 C 1.421875 12.839844 1.636719 13.050781 1.898438 13.050781 Z M 2.371094 11.152344 L 9.492188 11.152344 L 9.492188 12.101562 L 2.371094 12.101562 Z M 25.628906 4.035156 L 25.628906 12.101562 L 18.507812 12.101562 L 18.507812 4.035156 Z M 10.441406 2.136719 L 17.558594 2.136719 L 17.558594 12.101562 L 10.441406 12.101562 Z M 2.371094 4.035156 L 9.492188 4.035156 L 9.492188 10.203125 L 2.371094 10.203125 Z M 2.371094 4.035156 "/>
<path style=" stroke:none;fill-rule:nonzero;fill:rgb(0%,0%,0%);fill-opacity:1;" d="M 8.066406 19.21875 L 9.015625 19.21875 L 9.015625 20.644531 L 8.066406 20.644531 Z M 8.066406 19.21875 "/>
<path style=" stroke:none;fill-rule:nonzero;fill:rgb(0%,0%,0%);fill-opacity:1;" d="M 8.066406 7.355469 L 9.015625 7.355469 L 9.015625 8.78125 L 8.066406 8.78125 Z M 8.066406 7.355469 "/>
<path style=" stroke:none;fill-rule:nonzero;fill:rgb(0%,0%,0%);fill-opacity:1;" d="M 16.136719 19.21875 L 17.085938 19.21875 L 17.085938 20.644531 L 16.136719 20.644531 Z M 16.136719 19.21875 "/>
<path style=" stroke:none;fill-rule:nonzero;fill:rgb(0%,0%,0%);fill-opacity:1;" d="M 16.136719 7.355469 L 17.085938 7.355469 L 17.085938 8.78125 L 16.136719 8.78125 Z M 16.136719 7.355469 "/>
<path style=" stroke:none;fill-rule:nonzero;fill:rgb(0%,0%,0%);fill-opacity:1;" d="M 24.203125 19.21875 L 25.152344 19.21875 L 25.152344 20.644531 L 24.203125 20.644531 Z M 24.203125 19.21875 "/>
<path style=" stroke:none;fill-rule:nonzero;fill:rgb(0%,0%,0%);fill-opacity:1;" d="M 24.203125 7.355469 L 25.152344 7.355469 L 25.152344 8.78125 L 24.203125 8.78125 Z M 24.203125 7.355469 "/>
<path style=" stroke:none;fill-rule:nonzero;fill:rgb(0%,0%,0%);fill-opacity:1;" d="M 28 18.269531 L 28 17.320312 L 0 17.320312 L 0 18.269531 L 1.421875 18.269531 L 1.421875 24.441406 C 1.160156 24.441406 0.949219 24.652344 0.949219 24.914062 L 0.949219 26.339844 C 0.949219 26.601562 1.160156 26.8125 1.421875 26.8125 L 26.578125 26.8125 C 26.839844 26.8125 27.050781 26.601562 27.050781 26.339844 L 27.050781 24.914062 C 27.050781 24.652344 26.839844 24.441406 26.578125 24.441406 L 26.578125 18.269531 Z M 17.558594 24.441406 L 10.441406 24.441406 L 10.441406 18.269531 L 17.558594 18.269531 Z M 2.371094 18.269531 L 9.492188 18.269531 L 9.492188 24.441406 L 2.371094 24.441406 Z M 26.101562 25.863281 L 1.898438 25.863281 L 1.898438 25.390625 L 26.101562 25.390625 Z M 25.628906 24.441406 L 18.507812 24.441406 L 18.507812 18.269531 L 25.628906 18.269531 Z M 25.628906 24.441406 "/>
</g>
</svg>
