<?xml version="1.0" encoding="UTF-8"?>
<svg xmlns="http://www.w3.org/2000/svg" xmlns:xlink="http://www.w3.org/1999/xlink" width="28pt" height="28pt" viewBox="0 0 28 28" version="1.1">
<g id="surface1">
<path style=" stroke:none;fill-rule:nonzero;fill:rgb(0%,0%,0%);fill-opacity:1;" d="M 27.316406 1.230469 L 0.691406 1.230469 C 0.308594 1.230469 0 1.542969 0 1.925781 L 0 26.210938 C 0.00390625 26.332031 0.0507812 26.777344 0.597656 26.777344 L 1.390625 26.777344 C 1.988281 26.777344 1.964844 26.089844 1.964844 26.089844 L 1.964844 3.792969 C 1.964844 3.464844 2.230469 3.195312 2.5625 3.195312 L 25.445312 3.195312 C 25.777344 3.195312 26.042969 3.464844 26.042969 3.792969 L 26.042969 26.339844 C 26.046875 26.472656 26.097656 26.777344 26.453125 26.777344 L 27.546875 26.777344 C 27.910156 26.777344 27.992188 26.484375 28.007812 26.292969 L 28.007812 1.925781 C 28.007812 1.542969 27.699219 1.230469 27.316406 1.230469 Z M 27.316406 1.230469 "/>
<path style=" stroke:none;fill-rule:nonzero;fill:rgb(0%,0%,0%);fill-opacity:1;" d="M 21.226562 16.992188 C 20.402344 13.890625 17.996094 12.496094 16.289062 10.375 C 14.578125 8.253906 14.136719 7.652344 14.609375 6.023438 C 12.363281 7.875 11.984375 9.296875 12.523438 11.546875 C 13.058594 13.796875 12.457031 14.046875 11.667969 14.238281 C 10.875 14.429688 10.496094 13.605469 10.589844 12.84375 C 9.355469 13.636719 5.527344 15.632812 6.761719 20 C 7.679688 22.375 9.832031 23.925781 12.394531 24.402344 C 13.035156 24.492188 13.792969 24.507812 14.472656 24.496094 C 14.175781 24.488281 13.878906 24.46875 13.609375 24.433594 C 11.859375 24.109375 10.390625 23.050781 9.765625 21.429688 C 8.921875 18.449219 11.539062 17.089844 12.378906 16.550781 C 12.3125 17.066406 12.574219 17.628906 13.113281 17.5 C 13.652344 17.371094 14.0625 17.199219 13.695312 15.664062 C 13.328125 14.128906 13.585938 13.15625 15.121094 11.894531 C 14.796875 13.003906 15.101562 13.417969 16.265625 14.863281 C 17.433594 16.3125 19.074219 17.261719 19.636719 19.378906 C 20.449219 22.429688 18.320312 23.707031 17.082031 24.183594 C 18.78125 23.621094 22.511719 21.8125 21.226562 16.992188 Z M 21.226562 16.992188 "/>
</g>
</svg>
