<?xml version="1.0" encoding="UTF-8"?>
<svg xmlns="http://www.w3.org/2000/svg" xmlns:xlink="http://www.w3.org/1999/xlink" width="28pt" height="28pt" viewBox="0 0 28 28" version="1.1">
<g id="surface1">
<path style=" stroke:none;fill-rule:nonzero;fill:rgb(0%,0%,0%);fill-opacity:1;" d="M 27.378906 22.960938 L 25.976562 22.960938 L 25.976562 5.378906 L 27.917969 1.949219 C 28.027344 1.757812 28.027344 1.523438 27.914062 1.332031 C 27.804688 1.140625 27.597656 1.019531 27.378906 1.019531 L 0.621094 1.019531 C 0.402344 1.019531 0.195312 1.140625 0.0859375 1.332031 C -0.0273438 1.523438 -0.0273438 1.757812 0.0820312 1.949219 L 2.023438 5.378906 L 2.023438 22.960938 L 0.621094 22.960938 C 0.277344 22.960938 0 23.238281 0 23.582031 L 0 26.355469 C 0 26.699219 0.277344 26.976562 0.621094 26.976562 L 27.378906 26.976562 C 27.722656 26.976562 28 26.699219 28 26.355469 L 28 23.582031 C 28 23.238281 27.722656 22.960938 27.378906 22.960938 Z M 22.414062 22.960938 L 22.414062 10.847656 C 22.414062 10.503906 22.136719 10.226562 21.792969 10.226562 C 20.203125 10.226562 18.550781 9.273438 17.09375 8.433594 C 15.90625 7.75 14.878906 7.15625 14 7.15625 C 13.121094 7.15625 12.09375 7.75 10.902344 8.433594 C 9.449219 9.273438 7.796875 10.226562 6.207031 10.226562 C 5.863281 10.226562 5.585938 10.503906 5.585938 10.847656 L 5.585938 22.960938 L 3.269531 22.960938 L 3.269531 5.835938 L 24.730469 5.835938 L 24.730469 22.960938 Z M 17.542969 22.960938 C 17.769531 22.753906 17.980469 22.53125 18.164062 22.292969 C 18.9375 21.292969 19.25 20.085938 19.042969 18.894531 C 18.796875 17.480469 17.796875 16.382812 16.914062 15.417969 C 15.460938 13.820312 15.1875 13.265625 16.027344 12.410156 C 16.1875 12.25 16.246094 12.015625 16.179688 11.796875 C 16.117188 11.582031 15.941406 11.414062 15.71875 11.367188 C 15.457031 11.308594 15.195312 11.277344 14.9375 11.277344 C 14.03125 11.277344 13.21875 11.644531 12.652344 12.304688 C 12.140625 12.902344 11.855469 13.707031 11.816406 14.640625 C 11.566406 14.574219 11.300781 14.539062 11.027344 14.539062 C 10.074219 14.539062 9.28125 14.964844 8.957031 15.652344 C 8.820312 15.941406 8.921875 16.285156 9.195312 16.449219 C 9.882812 16.871094 9.871094 17.277344 9.726562 18.496094 C 9.65625 19.097656 9.578125 19.777344 9.617188 20.589844 C 9.675781 21.679688 10.070312 22.433594 10.570312 22.957031 L 6.828125 22.957031 L 6.828125 11.433594 C 8.53125 11.238281 10.175781 10.289062 11.527344 9.511719 C 12.515625 8.941406 13.453125 8.402344 14 8.402344 C 14.546875 8.402344 15.484375 8.941406 16.472656 9.511719 C 17.824219 10.292969 19.46875 11.238281 21.171875 11.433594 L 21.171875 22.960938 Z M 10.460938 15.882812 C 10.625 15.820312 10.820312 15.78125 11.027344 15.78125 C 11.433594 15.78125 11.820312 15.917969 12.085938 16.15625 C 12.28125 16.332031 12.566406 16.367188 12.796875 16.242188 C 13.027344 16.117188 13.15625 15.859375 13.117188 15.597656 C 12.953125 14.546875 13.125 13.664062 13.597656 13.117188 C 13.820312 12.851562 14.105469 12.675781 14.433594 12.585938 C 13.917969 13.976562 15.050781 15.21875 15.996094 16.253906 C 16.800781 17.136719 17.632812 18.050781 17.816406 19.105469 C 17.988281 20.097656 17.605469 21.246094 16.714844 22.054688 C 16.808594 21.78125 16.878906 21.496094 16.90625 21.210938 C 16.972656 20.574219 16.816406 20.007812 16.453125 19.570312 C 16.3125 19.402344 16.097656 19.320312 15.878906 19.355469 C 15.726562 19.378906 15.59375 19.457031 15.496094 19.570312 C 15.542969 19.3125 15.5625 19.039062 15.542969 18.757812 C 15.476562 17.878906 15.023438 17.125 14.226562 16.585938 C 14.039062 16.457031 13.800781 16.441406 13.597656 16.542969 C 13.398438 16.640625 13.265625 16.84375 13.253906 17.070312 C 13.230469 17.523438 12.910156 17.972656 12.539062 18.496094 C 11.902344 19.386719 11.089844 20.53125 11.59375 22.214844 C 11.207031 21.859375 10.90625 21.332031 10.863281 20.523438 C 10.824219 19.816406 10.898438 19.195312 10.964844 18.644531 C 11.082031 17.632812 11.195312 16.667969 10.460938 15.882812 Z M 13.320312 22.960938 C 12.160156 21.171875 12.808594 20.261719 13.550781 19.21875 C 13.765625 18.917969 13.980469 18.617188 14.152344 18.292969 C 14.210938 18.410156 14.253906 18.535156 14.277344 18.667969 C 14.414062 19.382812 14.015625 20.160156 13.890625 20.34375 C 13.789062 20.476562 13.746094 20.648438 13.769531 20.816406 C 13.800781 21.019531 13.929688 21.195312 14.113281 21.285156 C 14.335938 21.390625 14.574219 21.445312 14.820312 21.445312 C 15.113281 21.445312 15.394531 21.371094 15.648438 21.234375 C 15.53125 21.882812 15.082031 22.617188 14.824219 22.957031 L 13.320312 22.957031 Z M 26.308594 2.265625 L 24.988281 4.59375 L 3.011719 4.59375 L 1.691406 2.265625 Z M 26.753906 25.734375 L 1.246094 25.734375 L 1.246094 24.203125 L 26.753906 24.203125 Z M 26.753906 25.734375 "/>
</g>
</svg>
