<?xml version="1.0" encoding="UTF-8"?>
<svg xmlns="http://www.w3.org/2000/svg" xmlns:xlink="http://www.w3.org/1999/xlink" width="28pt" height="28pt" viewBox="0 0 28 28" version="1.1">
<g id="surface1">
<path style=" stroke:none;fill-rule:nonzero;fill:rgb(0%,0%,0%);fill-opacity:1;" d="M 21 3.5 L 7 3.5 C 6.515625 3.5 6.125 3.890625 6.125 4.375 L 6.125 23.625 C 6.125 24.109375 6.515625 24.5 7 24.5 L 21 24.5 C 21.484375 24.5 21.875 24.109375 21.875 23.625 L 21.875 4.375 C 21.875 3.890625 21.484375 3.5 21 3.5 Z M 7 23.625 L 7 4.375 L 21 4.375 L 21 23.625 Z M 7 23.625 "/>
<path style=" stroke:none;fill-rule:nonzero;fill:rgb(0%,0%,0%);fill-opacity:1;" d="M 18.8125 11.375 C 18.570312 11.375 18.375 11.570312 18.375 11.8125 L 18.375 21 L 9.625 21 L 9.625 18.8125 C 9.625 18.570312 9.429688 18.375 9.1875 18.375 C 8.945312 18.375 8.75 18.570312 8.75 18.8125 L 8.75 21.4375 C 8.75 21.679688 8.945312 21.875 9.1875 21.875 L 18.8125 21.875 C 19.054688 21.875 19.25 21.679688 19.25 21.4375 L 19.25 11.8125 C 19.25 11.570312 19.054688 11.375 18.8125 11.375 Z M 18.8125 11.375 "/>
<path style=" stroke:none;fill-rule:nonzero;fill:rgb(0%,0%,0%);fill-opacity:1;" d="M 18.8125 6.125 L 9.1875 6.125 C 8.945312 6.125 8.75 6.320312 8.75 6.5625 L 8.75 16.1875 C 8.75 16.429688 8.945312 16.625 9.1875 16.625 C 9.429688 16.625 9.625 16.429688 9.625 16.1875 L 9.625 7 L 18.375 7 L 18.375 9.1875 C 18.375 9.429688 18.570312 9.625 18.8125 9.625 C 19.054688 9.625 19.25 9.429688 19.25 9.1875 L 19.25 6.5625 C 19.25 6.320312 19.054688 6.125 18.8125 6.125 Z M 18.8125 6.125 "/>
<path style=" stroke:none;fill-rule:nonzero;fill:rgb(0%,0%,0%);fill-opacity:1;" d="M 14.4375 10.5 C 14.550781 10.5 14.664062 10.453125 14.75 10.375 C 14.828125 10.289062 14.875 10.175781 14.875 10.0625 C 14.875 9.949219 14.828125 9.835938 14.75 9.75 C 14.582031 9.589844 14.292969 9.589844 14.125 9.75 C 14.046875 9.835938 14 9.949219 14 10.0625 C 14 10.175781 14.046875 10.289062 14.125 10.375 C 14.210938 10.453125 14.324219 10.5 14.4375 10.5 Z M 14.4375 10.5 "/>
<path style=" stroke:none;fill-rule:nonzero;fill:rgb(0%,0%,0%);fill-opacity:1;" d="M 13.253906 8.003906 L 10.628906 10.628906 C 10.457031 10.800781 10.457031 11.074219 10.628906 11.246094 C 10.714844 11.332031 10.824219 11.375 10.9375 11.375 C 11.050781 11.375 11.160156 11.332031 11.246094 11.246094 L 13.871094 8.621094 C 14.042969 8.449219 14.042969 8.175781 13.871094 8.003906 C 13.699219 7.832031 13.425781 7.832031 13.253906 8.003906 Z M 13.253906 8.003906 "/>
<path style=" stroke:none;fill-rule:nonzero;fill:rgb(0%,0%,0%);fill-opacity:1;" d="M 10.628906 13.871094 C 10.714844 13.957031 10.824219 14 10.9375 14 C 11.050781 14 11.160156 13.957031 11.246094 13.871094 L 13.871094 11.246094 C 14.042969 11.074219 14.042969 10.800781 13.871094 10.628906 C 13.699219 10.457031 13.425781 10.457031 13.253906 10.628906 L 10.628906 13.253906 C 10.457031 13.425781 10.457031 13.699219 10.628906 13.871094 Z M 10.628906 13.871094 "/>
<path style=" stroke:none;fill-rule:nonzero;fill:rgb(0%,0%,0%);fill-opacity:1;" d="M 9.5 17.8125 C 9.578125 17.726562 9.625 17.613281 9.625 17.5 C 9.625 17.386719 9.578125 17.273438 9.5 17.1875 C 9.335938 17.027344 9.042969 17.027344 8.875 17.1875 C 8.796875 17.273438 8.75 17.386719 8.75 17.5 C 8.75 17.613281 8.796875 17.726562 8.875 17.8125 C 8.960938 17.890625 9.074219 17.9375 9.1875 17.9375 C 9.300781 17.9375 9.414062 17.890625 9.5 17.8125 Z M 9.5 17.8125 "/>
<path style=" stroke:none;fill-rule:nonzero;fill:rgb(0%,0%,0%);fill-opacity:1;" d="M 18.5 10.1875 C 18.421875 10.273438 18.375 10.386719 18.375 10.5 C 18.375 10.613281 18.421875 10.726562 18.5 10.8125 C 18.585938 10.890625 18.699219 10.9375 18.8125 10.9375 C 18.925781 10.9375 19.039062 10.890625 19.125 10.8125 C 19.203125 10.726562 19.25 10.613281 19.25 10.5 C 19.25 10.386719 19.203125 10.273438 19.125 10.1875 C 18.960938 10.027344 18.667969 10.027344 18.5 10.1875 Z M 18.5 10.1875 "/>
</g>
</svg>
