<?xml version="1.0" encoding="UTF-8"?>
<svg xmlns="http://www.w3.org/2000/svg" xmlns:xlink="http://www.w3.org/1999/xlink" width="28pt" height="28pt" viewBox="0 0 28 28" version="1.1">
<g id="surface1">
<path style=" stroke:none;fill-rule:nonzero;fill:rgb(0%,0%,0%);fill-opacity:1;" d="M 23.25 6.949219 C 23.25 6.6875 23.039062 6.476562 22.777344 6.476562 L 19.074219 6.476562 L 19.074219 5.347656 C 19.074219 5.089844 18.863281 4.875 18.601562 4.875 L 16.988281 4.875 C 16.730469 4.875 16.519531 5.089844 16.519531 5.347656 L 16.519531 6.476562 L 15.792969 6.476562 L 15.792969 0.84375 C 15.792969 0.378906 15.414062 0 14.949219 0 L 13.050781 0 C 12.585938 0 12.207031 0.378906 12.207031 0.84375 L 12.207031 6.476562 L 11.480469 6.476562 L 11.480469 5.347656 C 11.480469 5.089844 11.269531 4.875 11.011719 4.875 L 9.398438 4.875 C 9.136719 4.875 8.925781 5.089844 8.925781 5.347656 L 8.925781 6.476562 L 5.222656 6.476562 C 4.960938 6.476562 4.75 6.6875 4.75 6.949219 C 4.75 7.113281 4.753906 7.273438 4.765625 7.433594 L 4.765625 27.527344 C 4.765625 27.789062 4.976562 28 5.234375 28 L 22.765625 28 C 23.023438 28 23.234375 27.789062 23.234375 27.527344 L 23.234375 7.433594 C 23.246094 7.273438 23.25 7.113281 23.25 6.949219 Z M 17.460938 5.820312 L 18.132812 5.820312 L 18.132812 6.476562 L 17.460938 6.476562 Z M 14.847656 0.945312 L 14.847656 1.386719 L 13.152344 1.386719 L 13.152344 0.945312 Z M 13.152344 2.332031 L 14.847656 2.332031 L 14.847656 6.476562 L 13.152344 6.476562 Z M 9.867188 5.820312 L 10.539062 5.820312 L 10.539062 6.476562 L 9.867188 6.476562 Z M 22.292969 7.421875 C 22.046875 11.78125 18.421875 15.253906 14 15.253906 C 9.578125 15.253906 5.953125 11.78125 5.707031 7.421875 Z M 5.707031 17.808594 L 22.292969 17.808594 L 22.292969 21.730469 L 5.707031 21.730469 Z M 5.707031 27.054688 L 5.707031 22.675781 L 22.292969 22.675781 L 22.292969 27.054688 Z M 22.292969 16.867188 L 5.707031 16.867188 L 5.707031 11.042969 C 7.21875 14.09375 10.367188 16.199219 14 16.199219 C 17.632812 16.199219 20.78125 14.09375 22.292969 11.042969 Z M 22.292969 16.867188 "/>
<path style=" stroke:none;fill-rule:nonzero;fill:rgb(0%,0%,0%);fill-opacity:1;" d="M 14 14.5625 C 16.710938 14.5625 19.242188 13.097656 20.601562 10.738281 C 20.730469 10.511719 20.652344 10.222656 20.429688 10.09375 C 20.203125 9.964844 19.914062 10.042969 19.785156 10.269531 C 18.59375 12.335938 16.375 13.617188 14 13.617188 C 13.738281 13.617188 13.527344 13.828125 13.527344 14.089844 C 13.527344 14.351562 13.738281 14.5625 14 14.5625 Z M 14 14.5625 "/>
<path style=" stroke:none;fill-rule:nonzero;fill:rgb(0%,0%,0%);fill-opacity:1;" d="M 20.609375 9.695312 C 20.660156 9.710938 20.710938 9.71875 20.761719 9.71875 C 20.957031 9.71875 21.140625 9.597656 21.207031 9.398438 C 21.285156 9.167969 21.355469 8.929688 21.410156 8.691406 C 21.472656 8.4375 21.3125 8.183594 21.058594 8.125 C 20.804688 8.066406 20.550781 8.222656 20.492188 8.476562 C 20.445312 8.683594 20.382812 8.894531 20.316406 9.09375 C 20.230469 9.34375 20.363281 9.609375 20.609375 9.695312 Z M 20.609375 9.695312 "/>
<path style=" stroke:none;fill-rule:nonzero;fill:rgb(0%,0%,0%);fill-opacity:1;" d="M 15.175781 18.304688 L 12.824219 18.304688 C 12.566406 18.304688 12.355469 18.515625 12.355469 18.777344 C 12.355469 19.039062 12.566406 19.25 12.824219 19.25 L 15.175781 19.25 C 15.433594 19.25 15.644531 19.039062 15.644531 18.777344 C 15.644531 18.515625 15.433594 18.304688 15.175781 18.304688 Z M 15.175781 18.304688 "/>
<path style=" stroke:none;fill-rule:nonzero;fill:rgb(0%,0%,0%);fill-opacity:1;" d="M 15.175781 23.214844 L 12.824219 23.214844 C 12.566406 23.214844 12.355469 23.425781 12.355469 23.683594 C 12.355469 23.945312 12.566406 24.15625 12.824219 24.15625 L 15.175781 24.15625 C 15.433594 24.15625 15.644531 23.945312 15.644531 23.683594 C 15.644531 23.425781 15.433594 23.214844 15.175781 23.214844 Z M 15.175781 23.214844 "/>
</g>
</svg>
