<?xml version="1.0" encoding="UTF-8"?>
<svg xmlns="http://www.w3.org/2000/svg" xmlns:xlink="http://www.w3.org/1999/xlink" width="28pt" height="28pt" viewBox="0 0 28 28" version="1.1">
<g id="surface1">
<path style=" stroke:none;fill-rule:nonzero;fill:rgb(0%,0%,0%);fill-opacity:1;" d="M 25.347656 0.519531 L 18.792969 13.226562 C 18.832031 13.234375 18.871094 13.246094 18.90625 13.257812 C 19.183594 13.347656 19.445312 13.457031 19.6875 13.585938 C 19.976562 13.738281 20.242188 13.921875 20.480469 14.128906 L 27.046875 1.394531 C 27.289062 0.925781 27.105469 0.347656 26.636719 0.105469 C 26.167969 -0.136719 25.589844 0.046875 25.347656 0.519531 Z M 25.347656 0.519531 "/>
<path style=" stroke:none;fill-rule:nonzero;fill:rgb(0%,0%,0%);fill-opacity:1;" d="M 3.695312 24.085938 C 4.738281 25.023438 6.015625 25.84375 7.496094 26.519531 C 10 27.660156 12.199219 27.996094 12.292969 28.007812 C 12.296875 28.011719 12.296875 28.011719 12.300781 28.011719 C 12.328125 28.015625 12.359375 28.015625 12.386719 28.015625 C 12.394531 28.015625 12.402344 28.015625 12.410156 28.015625 C 15.042969 27.929688 17.09375 27.054688 18.507812 25.410156 C 20.363281 23.25 21.035156 20.003906 20.90625 17.210938 C 20.867188 16.410156 20.582031 15.59375 20.023438 15.011719 C 19.984375 14.96875 19.941406 14.925781 19.894531 14.886719 C 19.699219 14.707031 19.480469 14.558594 19.246094 14.433594 C 19.042969 14.328125 18.832031 14.238281 18.613281 14.167969 C 18.523438 14.140625 18.433594 14.117188 18.34375 14.101562 C 18.21875 14.078125 18.089844 14.070312 17.96875 14.070312 C 17.042969 14.070312 16.160156 14.648438 15.484375 15.242188 C 14.785156 15.851562 14.078125 16.519531 13.289062 17.042969 C 12.425781 17.613281 11.476562 17.902344 10.488281 18.183594 C 9.214844 18.546875 7.902344 18.777344 6.585938 18.925781 C 5.414062 19.058594 4.226562 19.132812 3.042969 19.132812 C 2.574219 19.132812 2.105469 19.121094 1.636719 19.097656 C 1.609375 19.09375 1.582031 19.09375 1.554688 19.09375 C 1.542969 19.089844 1.527344 19.089844 1.511719 19.089844 C 1.308594 19.089844 1.121094 19.183594 0.996094 19.34375 C 0.863281 19.519531 0.824219 19.746094 0.898438 19.953125 C 1.429688 21.5 2.371094 22.890625 3.695312 24.085938 Z M 2.785156 20.429688 C 2.851562 20.429688 2.917969 20.429688 2.988281 20.429688 C 3.945312 20.429688 5.277344 20.386719 6.773438 20.21875 C 9.9375 19.855469 12.519531 19.085938 14.472656 17.921875 C 14.527344 17.890625 14.589844 17.875 14.652344 17.875 C 14.710938 17.875 14.769531 17.886719 14.824219 17.917969 C 15.957031 18.542969 17.722656 19.464844 18.980469 19.914062 C 19.132812 19.96875 19.230469 20.125 19.210938 20.289062 C 19.0625 21.601562 18.636719 23.273438 17.515625 24.570312 C 16.371094 25.898438 14.675781 26.621094 12.480469 26.714844 C 12.476562 26.714844 12.46875 26.714844 12.460938 26.714844 C 12.433594 26.714844 12.40625 26.710938 12.375 26.707031 C 12.15625 26.667969 11.609375 26.5625 10.878906 26.359375 C 11.085938 26.269531 11.300781 26.160156 11.519531 26.035156 C 11.714844 25.925781 11.914062 25.804688 12.109375 25.679688 C 12.710938 25.289062 13.296875 24.847656 13.75 24.484375 C 13.855469 24.398438 13.757812 24.234375 13.632812 24.289062 C 12.640625 24.703125 11.371094 24.984375 10.234375 25.167969 C 9.875 25.222656 9.53125 25.273438 9.214844 25.3125 C 8.84375 25.359375 8.507812 25.394531 8.226562 25.421875 C 8.152344 25.390625 8.082031 25.355469 8.007812 25.324219 C 7.375 25.035156 6.785156 24.714844 6.238281 24.375 C 6.476562 24.351562 6.726562 24.3125 6.980469 24.261719 C 7.210938 24.214844 7.445312 24.15625 7.675781 24.09375 C 8.351562 23.914062 8.992188 23.679688 9.429688 23.511719 C 9.515625 23.476562 9.484375 23.351562 9.394531 23.363281 C 8.597656 23.4375 7.488281 23.445312 6.539062 23.429688 C 6.230469 23.425781 5.9375 23.421875 5.675781 23.414062 C 5.335938 23.402344 5.054688 23.390625 4.871094 23.386719 C 4.761719 23.292969 4.65625 23.203125 4.550781 23.109375 C 4.417969 22.988281 4.289062 22.863281 4.164062 22.738281 C 4.355469 22.71875 4.554688 22.6875 4.757812 22.648438 C 4.949219 22.613281 5.140625 22.570312 5.332031 22.523438 C 6.085938 22.332031 6.820312 22.066406 7.308594 21.878906 C 7.390625 21.847656 7.363281 21.722656 7.273438 21.730469 C 6.523438 21.800781 5.5 21.8125 4.59375 21.800781 C 4.371094 21.800781 4.152344 21.796875 3.949219 21.792969 C 3.722656 21.785156 3.511719 21.78125 3.328125 21.773438 C 3.0625 21.425781 2.832031 21.0625 2.628906 20.683594 C 2.566406 20.570312 2.652344 20.429688 2.785156 20.429688 Z M 2.785156 20.429688 "/>
<path style=" stroke:none;fill-rule:nonzero;fill:rgb(0%,0%,0%);fill-opacity:1;" d="M 25.296875 23.707031 C 25.296875 24.554688 24.613281 25.242188 23.761719 25.242188 C 22.914062 25.242188 22.226562 24.554688 22.226562 23.707031 C 22.226562 22.859375 22.914062 22.171875 23.761719 22.171875 C 24.613281 22.171875 25.296875 22.859375 25.296875 23.707031 Z M 25.296875 23.707031 "/>
<path style=" stroke:none;fill-rule:nonzero;fill:rgb(0%,0%,0%);fill-opacity:1;" d="M 21.226562 27.222656 C 21.226562 27.648438 20.882812 27.996094 20.453125 27.996094 C 20.023438 27.996094 19.675781 27.648438 19.675781 27.222656 C 19.675781 26.792969 20.023438 26.445312 20.453125 26.445312 C 20.882812 26.445312 21.226562 26.792969 21.226562 27.222656 Z M 21.226562 27.222656 "/>
<path style=" stroke:none;fill-rule:nonzero;fill:rgb(0%,0%,0%);fill-opacity:1;" d="M 25.433594 27.042969 C 25.433594 27.46875 25.085938 27.816406 24.660156 27.816406 C 24.230469 27.816406 23.882812 27.46875 23.882812 27.042969 C 23.882812 26.613281 24.230469 26.265625 24.660156 26.265625 C 25.085938 26.265625 25.433594 26.613281 25.433594 27.042969 Z M 25.433594 27.042969 "/>
</g>
</svg>
