<?xml version="1.0" encoding="UTF-8"?>
<svg xmlns="http://www.w3.org/2000/svg" xmlns:xlink="http://www.w3.org/1999/xlink" width="28pt" height="27pt" viewBox="0 0 28 27" version="1.1">
<g id="surface1">
<path style=" stroke:none;fill-rule:nonzero;fill:rgb(0%,0%,0%);fill-opacity:1;" d="M 15.230469 12.390625 C 15.957031 11.746094 18.914062 8.9375 18.683594 6.117188 C 18.492188 3.726562 15.625 3.003906 14.035156 3.003906 C 12.449219 3.003906 9.585938 3.726562 9.394531 6.117188 C 9.171875 8.878906 12.011719 11.632812 12.808594 12.347656 C 13.113281 12.054688 13.535156 11.871094 14 11.871094 C 14.484375 11.871094 14.921875 12.074219 15.230469 12.390625 Z M 15.230469 12.390625 "/>
<path style=" stroke:none;fill-rule:nonzero;fill:rgb(0%,0%,0%);fill-opacity:1;" d="M 12.3125 13.5 C 12.3125 13.226562 12.382812 12.96875 12.507812 12.742188 C 11.460938 12.433594 7.578125 11.449219 5.210938 13.015625 C 3.160156 14.371094 3.945312 17.125 4.738281 18.453125 C 5.535156 19.78125 7.609375 21.808594 9.855469 20.773438 C 12.246094 19.671875 13.328125 16.402344 13.671875 15.097656 C 12.898438 14.949219 12.3125 14.289062 12.3125 13.5 Z M 12.3125 13.5 "/>
<path style=" stroke:none;fill-rule:nonzero;fill:rgb(0%,0%,0%);fill-opacity:1;" d="M 22.789062 13.058594 C 20.4375 11.507812 16.597656 12.46875 15.515625 12.785156 C 15.625 13 15.6875 13.242188 15.6875 13.5 C 15.6875 14.296875 15.09375 14.957031 14.3125 15.097656 C 14.644531 16.371094 15.722656 19.703125 18.140625 20.820312 C 20.386719 21.855469 22.46875 19.820312 23.261719 18.492188 C 24.058594 17.164062 24.839844 14.417969 22.789062 13.058594 Z M 22.789062 13.058594 "/>
<path style=" stroke:none;fill-rule:nonzero;fill:rgb(0%,0%,0%);fill-opacity:1;" d="M 14 0 C 6.28125 0 0 6.054688 0 13.5 C 0 20.945312 6.28125 27 14 27 C 21.71875 27 28 20.945312 28 13.5 C 28 6.054688 21.71875 0 14 0 Z M 14 25.554688 C 7.105469 25.554688 1.5 20.144531 1.5 13.5 C 1.5 6.855469 7.105469 1.445312 14 1.445312 C 20.894531 1.445312 26.5 6.855469 26.5 13.5 C 26.5 20.144531 20.890625 25.554688 14 25.554688 Z M 14 25.554688 "/>
</g>
</svg>
