<?xml version="1.0" encoding="UTF-8"?>
<svg xmlns="http://www.w3.org/2000/svg" xmlns:xlink="http://www.w3.org/1999/xlink" width="28pt" height="28pt" viewBox="0 0 28 28" version="1.1">
<g id="surface1">
<path style=" stroke:none;fill-rule:nonzero;fill:rgb(0.392157%,0%,0.784314%);fill-opacity:1;" d="M 17.933594 11.898438 C 19.632812 11.171875 21.851562 10.730469 25.097656 10.824219 C 23.542969 8.847656 22.152344 7.402344 21.320312 5.953125 C 19.015625 7.28125 17.328125 8.65625 16.070312 10.046875 C 15.492188 9.746094 14.84375 9.558594 14.152344 9.535156 C 14.367188 7.714844 15.082031 5.582031 16.800781 2.796875 C 14.933594 2.796875 13.066406 2.796875 11.199219 2.796875 C 10.808594 6.109375 11.0625 8.410156 11.621094 10.214844 C 11.046875 10.574219 10.5625 11.066406 10.203125 11.644531 C 8.734375 10.578125 7.253906 9.078125 5.71875 6.960938 C 4.953125 8.675781 4.191406 9.828125 2.898438 10.820312 C 5.554688 12.800781 7.683594 13.75 9.535156 14.171875 C 9.5625 14.871094 9.753906 15.519531 10.066406 16.097656 C 8.363281 16.820312 6.148438 17.261719 2.898438 17.167969 C 4.453125 19.148438 5.84375 20.589844 6.679688 22.042969 C 8.980469 20.714844 10.671875 19.339844 11.925781 17.945312 C 12.503906 18.25 13.152344 18.4375 13.847656 18.460938 C 13.632812 20.28125 12.917969 22.414062 11.199219 25.199219 C 13.066406 25.199219 14.933594 25.199219 16.800781 25.199219 C 17.191406 21.886719 16.933594 19.585938 16.375 17.78125 C 16.953125 17.421875 17.4375 16.929688 17.796875 16.351562 C 19.265625 17.417969 20.75 18.917969 22.28125 21.03125 C 23.046875 19.316406 23.808594 18.164062 25.101562 17.175781 C 22.445312 15.191406 20.316406 14.246094 18.460938 13.820312 C 18.433594 13.125 18.242188 12.476562 17.933594 11.898438 Z M 14 15.398438 C 13.226562 15.398438 12.601562 14.773438 12.601562 14 C 12.601562 13.226562 13.226562 12.601562 14 12.601562 C 14.773438 12.601562 15.398438 13.226562 15.398438 14 C 15.398438 14.773438 14.773438 15.398438 14 15.398438 Z M 14 15.398438 "/>
<path style=" stroke:none;fill-rule:nonzero;fill:rgb(0.392157%,0%,0.784314%);fill-opacity:1;" d="M 25.761719 0 L 2.238281 0 C 1.007812 0 0 1.007812 0 2.238281 L 0 25.761719 C 0 26.992188 1.007812 28 2.238281 28 L 25.761719 28 C 26.992188 28 28 26.992188 28 25.761719 L 28 2.238281 C 28 1.007812 26.992188 0 25.761719 0 Z M 1.960938 1.121094 C 2.425781 1.121094 2.800781 1.496094 2.800781 1.960938 C 2.800781 2.425781 2.425781 2.800781 1.960938 2.800781 C 1.496094 2.800781 1.121094 2.425781 1.121094 1.960938 C 1.121094 1.496094 1.496094 1.121094 1.960938 1.121094 Z M 1.960938 26.878906 C 1.496094 26.878906 1.121094 26.503906 1.121094 26.039062 C 1.121094 25.574219 1.496094 25.199219 1.960938 25.199219 C 2.425781 25.199219 2.800781 25.574219 2.800781 26.039062 C 2.800781 26.503906 2.425781 26.878906 1.960938 26.878906 Z M 14 26.320312 C 7.203125 26.320312 1.679688 20.808594 1.679688 14 C 1.679688 7.191406 7.203125 1.679688 14 1.679688 C 20.796875 1.679688 26.320312 7.191406 26.320312 14 C 26.320312 20.808594 20.796875 26.320312 14 26.320312 Z M 26.039062 26.878906 C 25.574219 26.878906 25.199219 26.503906 25.199219 26.039062 C 25.199219 25.574219 25.574219 25.199219 26.039062 25.199219 C 26.503906 25.199219 26.878906 25.574219 26.878906 26.039062 C 26.878906 26.503906 26.503906 26.878906 26.039062 26.878906 Z M 26.039062 2.800781 C 25.574219 2.800781 25.199219 2.425781 25.199219 1.960938 C 25.199219 1.496094 25.574219 1.121094 26.039062 1.121094 C 26.503906 1.121094 26.878906 1.496094 26.878906 1.960938 C 26.878906 2.425781 26.503906 2.800781 26.039062 2.800781 Z M 26.039062 2.800781 "/>
</g>
</svg>
