<?xml version="1.0" encoding="UTF-8"?>
<svg xmlns="http://www.w3.org/2000/svg" xmlns:xlink="http://www.w3.org/1999/xlink" width="28pt" height="28pt" viewBox="0 0 28 28" version="1.1">
<g id="surface1">
<path style=" stroke:none;fill-rule:nonzero;fill:rgb(0%,0%,0%);fill-opacity:1;" d="M 25.535156 20.832031 C 25.425781 20.238281 24.855469 19.847656 24.261719 19.957031 C 23.667969 20.070312 23.277344 20.640625 23.386719 21.234375 C 23.46875 21.675781 23.277344 21.988281 23.152344 22.136719 C 23.03125 22.285156 22.757812 22.53125 22.3125 22.53125 L 5.710938 22.53125 C 5.261719 22.53125 4.992188 22.285156 4.867188 22.136719 C 4.746094 21.988281 4.550781 21.675781 4.632812 21.234375 C 4.945312 19.578125 5.566406 18.488281 6.167969 17.4375 C 6.898438 16.15625 7.65625 14.835938 7.65625 12.796875 L 7.65625 11.15625 C 7.65625 7.707031 10.460938 4.863281 13.90625 4.8125 L 14.113281 4.8125 C 17.550781 4.863281 20.34375 7.707031 20.34375 11.15625 L 20.34375 12.796875 C 20.34375 14.53125 20.910156 15.726562 21.441406 16.707031 C 21.640625 17.074219 22.015625 17.28125 22.40625 17.28125 C 22.582031 17.28125 22.761719 17.238281 22.925781 17.148438 C 23.457031 16.863281 23.65625 16.199219 23.367188 15.667969 C 22.835938 14.6875 22.53125 13.90625 22.53125 12.796875 L 22.53125 11.15625 C 22.53125 8.90625 21.660156 6.777344 20.074219 5.167969 C 18.71875 3.789062 16.976562 2.929688 15.09375 2.691406 L 15.09375 1.09375 C 15.09375 0.488281 14.605469 0 14 0 C 13.394531 0 12.90625 0.488281 12.90625 1.09375 L 12.90625 2.695312 C 8.726562 3.238281 5.46875 6.847656 5.46875 11.15625 L 5.46875 12.796875 C 5.46875 14.253906 4.941406 15.179688 4.269531 16.351562 C 3.609375 17.503906 2.863281 18.8125 2.484375 20.832031 C 2.304688 21.792969 2.558594 22.78125 3.183594 23.535156 C 3.808594 24.285156 4.730469 24.71875 5.710938 24.71875 L 10.738281 24.71875 C 10.738281 26.527344 12.210938 28 14.019531 28 C 15.832031 28 17.300781 26.527344 17.300781 24.71875 L 22.3125 24.71875 C 23.289062 24.71875 24.210938 24.285156 24.835938 23.535156 C 25.460938 22.78125 25.71875 21.792969 25.535156 20.832031 Z M 14.019531 25.8125 C 13.417969 25.8125 12.925781 25.320312 12.925781 24.71875 L 15.113281 24.71875 C 15.113281 25.320312 14.625 25.8125 14.019531 25.8125 Z M 14.019531 25.8125 "/>
<path style=" stroke:none;fill-rule:nonzero;fill:rgb(0%,0%,0%);fill-opacity:1;" d="M 5.925781 2.464844 C 5.476562 2.0625 4.785156 2.101562 4.382812 2.550781 C 2.261719 4.921875 1.09375 7.976562 1.09375 11.15625 C 1.09375 11.761719 1.582031 12.25 2.1875 12.25 C 2.792969 12.25 3.28125 11.761719 3.28125 11.15625 C 3.28125 8.515625 4.25 5.976562 6.011719 4.011719 C 6.414062 3.5625 6.375 2.871094 5.925781 2.464844 Z M 5.925781 2.464844 "/>
<path style=" stroke:none;fill-rule:nonzero;fill:rgb(0%,0%,0%);fill-opacity:1;" d="M 23.617188 2.550781 C 23.214844 2.101562 22.523438 2.0625 22.074219 2.464844 C 21.625 2.871094 21.585938 3.5625 21.988281 4.011719 C 23.75 5.976562 24.71875 8.515625 24.71875 11.15625 C 24.71875 11.761719 25.207031 12.25 25.8125 12.25 C 26.417969 12.25 26.90625 11.761719 26.90625 11.15625 C 26.90625 7.976562 25.738281 4.921875 23.617188 2.550781 Z M 23.617188 2.550781 "/>
</g>
</svg>
