<?xml version="1.0" encoding="UTF-8"?>
<svg xmlns="http://www.w3.org/2000/svg" xmlns:xlink="http://www.w3.org/1999/xlink" width="28pt" height="28pt" viewBox="0 0 28 28" version="1.1">
<g id="surface1">
<path style=" stroke:none;fill-rule:nonzero;fill:rgb(0%,0%,0%);fill-opacity:1;" d="M 17.828125 14 C 17.527344 14 17.28125 14.246094 17.28125 14.546875 C 17.28125 14.847656 17.527344 15.09375 17.828125 15.09375 C 18.128906 15.09375 18.375 14.847656 18.375 14.546875 C 18.375 14.246094 18.128906 14 17.828125 14 Z M 17.828125 14 "/>
<path style=" stroke:none;fill-rule:nonzero;fill:rgb(0%,0%,0%);fill-opacity:1;" d="M 22.75 22.75 L 22.097656 22.75 L 20.316406 12.769531 C 19.984375 10.945312 18.402344 9.625 16.550781 9.625 L 11.449219 9.625 C 9.597656 9.625 8.015625 10.945312 7.683594 12.769531 L 5.902344 22.75 L 5.25 22.75 C 4.34375 22.75 3.609375 23.484375 3.609375 24.390625 L 3.609375 26.578125 C 3.609375 26.878906 3.855469 27.125 4.15625 27.125 L 23.84375 27.125 C 24.144531 27.125 24.390625 26.878906 24.390625 26.578125 L 24.390625 24.390625 C 24.390625 23.484375 23.65625 22.75 22.75 22.75 Z M 8.761719 12.964844 C 8.996094 11.664062 10.128906 10.71875 11.449219 10.71875 L 16.550781 10.71875 C 17.871094 10.71875 19.003906 11.664062 19.238281 12.960938 L 20.984375 22.75 L 7.015625 22.75 Z M 23.296875 26.03125 L 4.703125 26.03125 L 4.703125 24.390625 C 4.703125 24.089844 4.949219 23.84375 5.25 23.84375 C 6.480469 23.84375 22.003906 23.84375 22.75 23.84375 C 23.050781 23.84375 23.296875 24.089844 23.296875 24.390625 Z M 23.296875 26.03125 "/>
<path style=" stroke:none;fill-rule:nonzero;fill:rgb(0%,0%,0%);fill-opacity:1;" d="M 19.589844 21.011719 L 18.789062 16.59375 C 18.734375 16.296875 18.449219 16.101562 18.152344 16.15625 C 17.855469 16.210938 17.660156 16.492188 17.710938 16.792969 L 18.515625 21.207031 C 18.570312 21.507812 18.855469 21.703125 19.152344 21.648438 C 19.449219 21.59375 19.644531 21.308594 19.589844 21.011719 Z M 19.589844 21.011719 "/>
<path style=" stroke:none;fill-rule:nonzero;fill:rgb(0%,0%,0%);fill-opacity:1;" d="M 27.453125 14 L 22.75 14 C 22.449219 14 22.203125 14.246094 22.203125 14.546875 C 22.203125 14.847656 22.449219 15.09375 22.75 15.09375 L 27.453125 15.09375 C 27.753906 15.09375 28 14.847656 28 14.546875 C 28 14.246094 27.753906 14 27.453125 14 Z M 27.453125 14 "/>
<path style=" stroke:none;fill-rule:nonzero;fill:rgb(0%,0%,0%);fill-opacity:1;" d="M 5.25 14 L 0.546875 14 C 0.246094 14 0 14.246094 0 14.546875 C 0 14.847656 0.246094 15.09375 0.546875 15.09375 L 5.25 15.09375 C 5.550781 15.09375 5.796875 14.847656 5.796875 14.546875 C 5.796875 14.246094 5.550781 14 5.25 14 Z M 5.25 14 "/>
<path style=" stroke:none;fill-rule:nonzero;fill:rgb(0%,0%,0%);fill-opacity:1;" d="M 23.667969 4.878906 C 23.453125 4.664062 23.109375 4.664062 22.894531 4.878906 L 19.800781 7.972656 C 19.585938 8.1875 19.585938 8.53125 19.800781 8.746094 C 20.015625 8.960938 20.359375 8.960938 20.574219 8.746094 L 23.667969 5.652344 C 23.882812 5.4375 23.882812 5.09375 23.667969 4.878906 Z M 23.667969 4.878906 "/>
<path style=" stroke:none;fill-rule:nonzero;fill:rgb(0%,0%,0%);fill-opacity:1;" d="M 8.199219 7.972656 L 5.105469 4.878906 C 4.890625 4.664062 4.546875 4.664062 4.332031 4.878906 C 4.117188 5.09375 4.117188 5.4375 4.332031 5.652344 L 7.425781 8.746094 C 7.640625 8.960938 7.984375 8.960938 8.199219 8.746094 C 8.414062 8.53125 8.414062 8.1875 8.199219 7.972656 Z M 8.199219 7.972656 "/>
<path style=" stroke:none;fill-rule:nonzero;fill:rgb(0%,0%,0%);fill-opacity:1;" d="M 14 0.875 C 13.699219 0.875 13.453125 1.121094 13.453125 1.421875 L 13.453125 5.796875 C 13.453125 6.097656 13.699219 6.34375 14 6.34375 C 14.300781 6.34375 14.546875 6.097656 14.546875 5.796875 L 14.546875 1.421875 C 14.546875 1.121094 14.300781 0.875 14 0.875 Z M 14 0.875 "/>
</g>
</svg>
