<?xml version="1.0" encoding="UTF-8"?>
<svg xmlns="http://www.w3.org/2000/svg" xmlns:xlink="http://www.w3.org/1999/xlink" width="28pt" height="28pt" viewBox="0 0 28 28" version="1.1">
<g id="surface1">
<path style=" stroke:none;fill-rule:nonzero;fill:rgb(0%,0%,0%);fill-opacity:1;" d="M 18.90625 14.253906 C 18.976562 13.734375 19.039062 13.191406 19.089844 12.640625 C 19.601562 13.234375 20.496094 14.242188 21.160156 13.890625 C 21.429688 13.75 21.5625 13.449219 21.5625 12.996094 C 21.5625 11.625 20.367188 8.421875 19.167969 5.828125 C 19.117188 5.636719 18.949219 5.515625 18.765625 5.515625 C 17.796875 5.515625 15.976562 5.515625 15.128906 5.515625 C 14.914062 5.515625 14.738281 5.679688 14.71875 5.894531 C 14.539062 8.101562 14.597656 10.40625 14.800781 12.574219 C 14.222656 12.519531 13.65625 12.523438 13.121094 12.585938 C 13.242188 11.273438 13.308594 9.902344 13.308594 8.628906 C 13.308594 6.582031 12.996094 0 10.972656 0 C 8.941406 0 8.636719 6.617188 8.636719 8.628906 C 8.636719 10.476562 8.777344 12.523438 9.023438 14.3125 C 7.25 15.757812 6.117188 17.957031 6.117188 20.417969 L 6.117188 21.679688 C 6.117188 21.910156 6.300781 22.09375 6.53125 22.09375 C 6.757812 22.09375 6.941406 21.910156 6.941406 21.679688 C 7.03125 21.140625 6.378906 17.898438 9.167969 15.277344 C 11.855469 12.75 16.027344 12.710938 18.761719 15.214844 C 20.171875 16.503906 21.058594 18.359375 21.058594 20.417969 L 21.058594 23 C 21.058594 25.300781 19.183594 27.175781 16.882812 27.175781 L 11.117188 27.175781 C 8.9375 27.175781 7.105469 25.472656 6.953125 23.300781 C 6.9375 23.074219 6.738281 22.902344 6.511719 22.917969 C 6.285156 22.933594 6.113281 23.128906 6.128906 23.359375 C 6.3125 25.960938 8.503906 28 11.117188 28 L 16.882812 28 C 19.640625 28 21.882812 25.757812 21.882812 23 L 21.882812 20.417969 C 21.882812 17.925781 20.71875 15.699219 18.90625 14.253906 Z M 12.277344 12.726562 C 12.121094 12.761719 11.964844 12.800781 11.8125 12.84375 C 12.148438 9.800781 11.96875 5.988281 11.5625 3.542969 C 11.460938 2.882812 10.496094 2.84375 10.378906 3.5625 C 10.1875 4.878906 10.058594 6.289062 9.996094 7.617188 C 9.988281 7.84375 10.164062 8.035156 10.390625 8.046875 C 10.617188 8.058594 10.808594 7.882812 10.820312 7.65625 C 10.855469 6.9375 10.90625 6.222656 10.972656 5.527344 C 11.203125 7.910156 11.257812 10.511719 10.972656 12.929688 C 10.828125 11.703125 10.769531 10.304688 10.777344 9.285156 C 10.78125 9.058594 10.597656 8.871094 10.367188 8.871094 C 10.140625 8.871094 9.957031 9.054688 9.953125 9.28125 C 9.941406 10.515625 10.023438 12.132812 10.214844 13.503906 C 10.070312 13.585938 9.925781 13.671875 9.78125 13.761719 C 9.371094 10.464844 9.261719 6.117188 10.011719 2.914062 C 10.417969 1.179688 10.875 0.824219 10.972656 0.824219 C 11.070312 0.824219 11.527344 1.179688 11.933594 2.914062 C 12.625 5.867188 12.574219 9.707031 12.277344 12.726562 Z M 16.949219 12.53125 C 16.9375 12.425781 16.929688 12.316406 16.917969 12.210938 C 16.898438 11.984375 16.699219 11.816406 16.472656 11.835938 C 16.246094 11.855469 16.078125 12.054688 16.097656 12.28125 C 16.113281 12.46875 16.132812 12.652344 16.152344 12.835938 C 15.984375 12.785156 15.8125 12.746094 15.640625 12.707031 C 15.472656 10.964844 15.394531 9.070312 15.460938 7.335938 C 15.617188 7.601562 15.773438 7.867188 15.933594 8.128906 C 15.921875 8.894531 15.9375 9.710938 15.980469 10.621094 C 15.992188 10.847656 16.1875 11.023438 16.414062 11.011719 C 16.640625 11 16.816406 10.808594 16.804688 10.582031 C 16.785156 10.199219 16.773438 9.820312 16.765625 9.449219 C 16.882812 9.632812 17 9.8125 17.117188 9.988281 C 17.085938 10.832031 17.03125 11.695312 16.949219 12.53125 Z M 18.144531 13.714844 C 17.992188 13.621094 17.835938 13.53125 17.679688 13.449219 C 17.699219 13.246094 17.808594 12.390625 17.886719 11.097656 C 18.035156 11.304688 18.1875 11.511719 18.34375 11.710938 C 18.292969 12.394531 18.226562 13.070312 18.144531 13.714844 Z M 15.839844 6.339844 L 18.496094 6.339844 C 19.085938 7.628906 20.824219 11.683594 20.734375 13.085938 C 19.398438 12.277344 16.625 7.726562 15.839844 6.339844 Z M 15.839844 6.339844 "/>
<path style=" stroke:none;fill-rule:nonzero;fill:rgb(0%,0%,0%);fill-opacity:1;" d="M 11.574219 17.886719 C 11.574219 18.15625 11.355469 18.378906 11.082031 18.378906 C 10.808594 18.378906 10.585938 18.15625 10.585938 17.886719 C 10.585938 17.613281 10.808594 17.390625 11.082031 17.390625 C 11.355469 17.390625 11.574219 17.613281 11.574219 17.886719 Z M 11.574219 17.886719 "/>
<path style=" stroke:none;fill-rule:nonzero;fill:rgb(0%,0%,0%);fill-opacity:1;" d="M 17.414062 17.886719 C 17.414062 18.15625 17.191406 18.378906 16.917969 18.378906 C 16.644531 18.378906 16.425781 18.15625 16.425781 17.886719 C 16.425781 17.613281 16.644531 17.390625 16.917969 17.390625 C 17.191406 17.390625 17.414062 17.613281 17.414062 17.886719 Z M 17.414062 17.886719 "/>
<path style=" stroke:none;fill-rule:nonzero;fill:rgb(0%,0%,0%);fill-opacity:1;" d="M 18.328125 22.238281 C 18.128906 22.128906 17.878906 22.203125 17.769531 22.40625 C 16.976562 23.875 14.777344 23.542969 14.449219 21.914062 C 15.378906 21.667969 15.59375 20.839844 15.816406 20.542969 C 16.476562 19.398438 15.648438 17.964844 14.328125 17.964844 L 13.671875 17.964844 C 12.722656 17.964844 11.953125 18.738281 11.953125 19.6875 C 11.953125 20.339844 12.304688 20.695312 12.511719 21.113281 C 12.746094 21.515625 13.117188 21.796875 13.550781 21.914062 C 13.222656 23.542969 11.023438 23.875 10.230469 22.40625 C 10.121094 22.203125 9.871094 22.128906 9.671875 22.238281 C 9.46875 22.34375 9.394531 22.59375 9.503906 22.796875 C 10.011719 23.738281 11.050781 24.289062 12.144531 24.144531 L 12.144531 25.359375 C 12.144531 26.316406 13.265625 26.839844 14 26.230469 C 14.734375 26.839844 15.855469 26.316406 15.855469 25.359375 L 15.855469 24.144531 C 16.949219 24.289062 17.988281 23.738281 18.496094 22.796875 C 18.605469 22.59375 18.53125 22.34375 18.328125 22.238281 Z M 13.589844 25.359375 C 13.589844 25.527344 13.449219 25.667969 13.277344 25.667969 C 13.109375 25.667969 12.96875 25.527344 12.96875 25.359375 L 12.96875 23.890625 C 13.195312 23.777344 13.40625 23.632812 13.589844 23.460938 Z M 13.226562 20.699219 L 12.898438 20.128906 C 12.550781 19.535156 12.988281 18.789062 13.671875 18.789062 L 14.328125 18.789062 C 14.882812 18.789062 15.222656 19.253906 15.222656 19.6875 C 15.222656 20.046875 15.03125 20.207031 14.773438 20.699219 C 14.429688 21.296875 13.570312 21.296875 13.226562 20.699219 Z M 15.03125 25.359375 C 15.03125 25.53125 14.890625 25.667969 14.722656 25.667969 C 14.550781 25.667969 14.410156 25.527344 14.410156 25.359375 L 14.410156 23.460938 C 14.597656 23.632812 14.804688 23.777344 15.03125 23.890625 Z M 15.03125 25.359375 "/>
<path style=" stroke:none;fill-rule:nonzero;fill:rgb(0%,0%,0%);fill-opacity:1;" d="M 9.574219 18.386719 C 8.621094 18.386719 7.902344 18.863281 7.902344 19.496094 C 7.902344 20.125 8.621094 20.601562 9.574219 20.601562 C 10.527344 20.601562 11.246094 20.125 11.246094 19.496094 C 11.246094 18.863281 10.527344 18.386719 9.574219 18.386719 Z M 9.574219 19.777344 C 9.042969 19.777344 8.753906 19.566406 8.726562 19.496094 C 8.753906 19.421875 9.042969 19.210938 9.574219 19.210938 C 10.105469 19.210938 10.394531 19.421875 10.421875 19.496094 C 10.394531 19.566406 10.105469 19.777344 9.574219 19.777344 Z M 9.574219 19.777344 "/>
<path style=" stroke:none;fill-rule:nonzero;fill:rgb(0%,0%,0%);fill-opacity:1;" d="M 18.425781 18.386719 C 17.472656 18.386719 16.753906 18.863281 16.753906 19.496094 C 16.753906 20.125 17.472656 20.601562 18.425781 20.601562 C 19.378906 20.601562 20.097656 20.125 20.097656 19.496094 C 20.097656 18.863281 19.378906 18.386719 18.425781 18.386719 Z M 18.425781 19.777344 C 17.894531 19.777344 17.605469 19.566406 17.578125 19.496094 C 17.605469 19.421875 17.894531 19.210938 18.425781 19.210938 C 18.957031 19.210938 19.246094 19.421875 19.273438 19.496094 C 19.246094 19.566406 18.957031 19.777344 18.425781 19.777344 Z M 18.425781 19.777344 "/>
</g>
</svg>
