<?xml version="1.0" encoding="UTF-8"?>
<svg xmlns="http://www.w3.org/2000/svg" xmlns:xlink="http://www.w3.org/1999/xlink" width="28pt" height="28pt" viewBox="0 0 28 28" version="1.1">
<g id="surface1">
<path style=" stroke:none;fill-rule:nonzero;fill:rgb(0%,0%,0%);fill-opacity:1;" d="M 11.304688 14.007812 L 21.777344 3.53125 C 22.066406 3.242188 22.226562 2.859375 22.226562 2.449219 C 22.226562 2.039062 22.066406 1.652344 21.777344 1.363281 L 20.859375 0.449219 C 20.570312 0.160156 20.1875 0 19.777344 0 C 19.367188 0 18.980469 0.160156 18.695312 0.449219 L 6.222656 12.917969 C 5.933594 13.207031 5.773438 13.59375 5.773438 14.003906 C 5.773438 14.417969 5.933594 14.804688 6.222656 15.09375 L 18.683594 27.550781 C 18.96875 27.839844 19.355469 28 19.765625 28 C 20.175781 28 20.558594 27.839844 20.847656 27.550781 L 21.765625 26.636719 C 22.363281 26.039062 22.363281 25.066406 21.765625 24.46875 Z M 11.304688 14.007812 "/>
</g>
</svg>
