<?xml version="1.0" encoding="UTF-8"?>
<svg xmlns="http://www.w3.org/2000/svg" xmlns:xlink="http://www.w3.org/1999/xlink" width="28pt" height="28pt" viewBox="0 0 28 28" version="1.1">
<g id="surface1">
<path style=" stroke:none;fill-rule:nonzero;fill:rgb(0%,0%,0%);fill-opacity:1;" d="M 26.425781 11.804688 L 26.46875 11.8125 L 7.734375 11.8125 L 13.625 5.910156 C 13.910156 5.621094 14.070312 5.230469 14.070312 4.824219 C 14.070312 4.414062 13.910156 4.023438 13.625 3.734375 L 12.707031 2.820312 C 12.417969 2.53125 12.035156 2.371094 11.625 2.371094 C 11.214844 2.371094 10.832031 2.53125 10.542969 2.816406 L 0.445312 12.914062 C 0.15625 13.203125 0 13.589844 0 14 C 0 14.410156 0.15625 14.796875 0.445312 15.085938 L 10.542969 25.183594 C 10.832031 25.46875 11.214844 25.628906 11.625 25.628906 C 12.035156 25.628906 12.417969 25.46875 12.707031 25.183594 L 13.625 24.265625 C 13.910156 23.976562 14.070312 23.59375 14.070312 23.183594 C 14.070312 22.773438 13.910156 22.410156 13.625 22.121094 L 7.667969 16.1875 L 26.445312 16.1875 C 27.289062 16.1875 28 15.457031 28 14.613281 L 28 13.316406 C 28 12.476562 27.269531 11.804688 26.425781 11.804688 Z M 26.425781 11.804688 "/>
</g>
</svg>
