<?xml version="1.0" encoding="UTF-8"?>
<svg xmlns="http://www.w3.org/2000/svg" xmlns:xlink="http://www.w3.org/1999/xlink" width="28pt" height="27pt" viewBox="0 0 28 27" version="1.1">
<g id="surface1">
<path style=" stroke:none;fill-rule:nonzero;fill:rgb(0%,0%,0%);fill-opacity:1;" d="M 3.261719 10.21875 L 24.714844 10.21875 L 24.714844 21.785156 L 3.261719 21.785156 Z M 3.261719 10.21875 "/>
<path style=" stroke:none;fill-rule:nonzero;fill:rgb(0%,0%,0%);fill-opacity:1;" d="M 27.171875 7.117188 L 20.839844 7.117188 L 15.40625 3.507812 C 15.40625 3.492188 15.40625 3.472656 15.40625 3.457031 C 15.40625 2.699219 14.769531 2.085938 13.988281 2.085938 C 13.203125 2.085938 12.570312 2.699219 12.570312 3.457031 C 12.570312 3.480469 12.570312 3.503906 12.570312 3.527344 L 7.171875 7.117188 L 0.800781 7.117188 C 0.359375 7.117188 0 7.464844 0 7.890625 L 0 24.113281 C 0 24.539062 0.359375 24.890625 0.800781 24.890625 L 27.171875 24.890625 C 27.613281 24.890625 27.976562 24.539062 27.976562 24.113281 L 27.976562 7.890625 C 27.976562 7.464844 27.613281 7.117188 27.171875 7.117188 Z M 13.167969 4.574219 C 13.398438 4.730469 13.683594 4.824219 13.988281 4.824219 C 14.296875 4.824219 14.585938 4.726562 14.820312 4.566406 L 18.664062 7.117188 L 9.34375 7.117188 Z M 25.949219 22.378906 C 25.949219 22.707031 25.671875 22.972656 25.332031 22.972656 L 2.644531 22.972656 C 2.300781 22.972656 2.027344 22.707031 2.027344 22.378906 L 2.027344 9.625 C 2.027344 9.296875 2.300781 9.03125 2.644531 9.03125 L 25.332031 9.03125 C 25.496094 9.03125 25.652344 9.09375 25.769531 9.203125 C 25.882812 9.316406 25.949219 9.46875 25.949219 9.625 Z M 25.949219 22.378906 "/>
</g>
</svg>
