<?xml version="1.0" encoding="UTF-8"?>
<svg xmlns="http://www.w3.org/2000/svg" xmlns:xlink="http://www.w3.org/1999/xlink" width="28pt" height="28pt" viewBox="0 0 28 28" version="1.1">
<g id="surface1">
<path style=" stroke:none;fill-rule:nonzero;fill:rgb(0%,0%,0%);fill-opacity:1;" d="M 27.3125 12.667969 L 27.3125 7.460938 C 27.3125 7.453125 27.3125 7.445312 27.3125 7.4375 L 21.199219 12.65625 L 17.109375 12.65625 L 21.933594 1.730469 C 21.816406 1.722656 21.695312 1.71875 21.570312 1.71875 L 16.496094 1.71875 C 16.042969 1.71875 15.675781 2.085938 15.675781 2.539062 L 15.675781 12.65625 L 4.175781 12.65625 L 4.175781 8.6875 C 4.175781 6.835938 2.671875 5.328125 0.820312 5.328125 C 0.367188 5.328125 0 5.699219 0 6.148438 C 0 6.601562 0.367188 6.96875 0.820312 6.96875 C 1.765625 6.96875 2.535156 7.742188 2.535156 8.6875 L 2.535156 15.976562 C 2.535156 17.828125 3.222656 19.523438 4.351562 20.820312 C 5.171875 19.359375 6.730469 18.375 8.519531 18.375 C 11.152344 18.375 13.292969 20.515625 13.292969 23.148438 C 13.292969 23.21875 13.292969 23.285156 13.289062 23.355469 L 16.65625 23.355469 C 16.652344 23.285156 16.648438 23.21875 16.648438 23.148438 C 16.648438 20.515625 18.792969 18.375 21.425781 18.375 C 23.375 18.375 25.054688 19.550781 25.796875 21.230469 C 27.15625 19.890625 28 18.03125 28 15.976562 L 28 13.476562 C 28 13.070312 27.703125 12.730469 27.3125 12.667969 Z M 27.3125 12.667969 "/>
<path style=" stroke:none;fill-rule:nonzero;fill:rgb(0%,0%,0%);fill-opacity:1;" d="M 23.574219 2.078125 L 19.042969 12.335938 L 26.988281 5.558594 C 26.425781 3.953125 25.164062 2.671875 23.574219 2.078125 Z M 23.574219 2.078125 "/>
<path style=" stroke:none;fill-rule:nonzero;fill:rgb(0%,0%,0%);fill-opacity:1;" d="M 8.519531 20.015625 C 6.789062 20.015625 5.386719 21.417969 5.386719 23.148438 C 5.386719 24.878906 6.789062 26.28125 8.519531 26.28125 C 10.25 26.28125 11.652344 24.878906 11.652344 23.148438 C 11.652344 21.417969 10.25 20.015625 8.519531 20.015625 Z M 8.519531 24.191406 C 7.945312 24.191406 7.476562 23.722656 7.476562 23.148438 C 7.476562 22.574219 7.945312 22.109375 8.519531 22.109375 C 9.09375 22.109375 9.5625 22.574219 9.5625 23.148438 C 9.5625 23.722656 9.09375 24.191406 8.519531 24.191406 Z M 8.519531 24.191406 "/>
<path style=" stroke:none;fill-rule:nonzero;fill:rgb(0%,0%,0%);fill-opacity:1;" d="M 21.425781 20.015625 C 19.695312 20.015625 18.289062 21.417969 18.289062 23.148438 C 18.289062 24.878906 19.695312 26.28125 21.425781 26.28125 C 23.15625 26.28125 24.558594 24.878906 24.558594 23.148438 C 24.558594 21.417969 23.15625 20.015625 21.425781 20.015625 Z M 21.425781 24.191406 C 20.851562 24.191406 20.382812 23.722656 20.382812 23.148438 C 20.382812 22.574219 20.851562 22.109375 21.425781 22.109375 C 22 22.109375 22.464844 22.574219 22.464844 23.148438 C 22.464844 23.722656 22 24.191406 21.425781 24.191406 Z M 21.425781 24.191406 "/>
</g>
</svg>
