<?xml version="1.0" encoding="UTF-8"?>
<svg xmlns="http://www.w3.org/2000/svg" xmlns:xlink="http://www.w3.org/1999/xlink" width="14pt" height="14pt" viewBox="0 0 14 14" version="1.1">
<g id="surface1">
<path style=" stroke:none;fill-rule:nonzero;fill:rgb(0%,0%,0%);fill-opacity:1;" d="M 12.769531 6.578125 L 10.9375 6.578125 C 10.65625 7.082031 10.117188 7.421875 9.5 7.421875 L 7.410156 7.421875 L 7.410156 13.914062 C 7.539062 13.960938 7.675781 13.984375 7.820312 13.984375 L 12.769531 13.984375 C 13.445312 13.984375 14 13.433594 14 12.757812 L 14 7.804688 C 14 7.128906 13.445312 6.578125 12.769531 6.578125 Z M 12.5 11.066406 C 12.5 11.726562 11.960938 12.265625 11.304688 12.265625 L 9.585938 12.265625 C 9.359375 12.265625 9.175781 12.078125 9.175781 11.851562 L 9.175781 8.710938 C 9.175781 8.484375 9.359375 8.296875 9.585938 8.296875 L 11.304688 8.296875 C 11.960938 8.296875 12.5 8.835938 12.5 9.496094 C 12.5 9.796875 12.390625 10.070312 12.203125 10.28125 C 12.390625 10.492188 12.5 10.765625 12.5 11.066406 Z M 12.5 11.066406 "/>
<path style=" stroke:none;fill-rule:nonzero;fill:rgb(0%,0%,0%);fill-opacity:1;" d="M 11.304688 10.691406 L 9.996094 10.691406 L 9.996094 11.445312 L 11.304688 11.445312 C 11.511719 11.445312 11.679688 11.273438 11.679688 11.066406 C 11.679688 10.859375 11.511719 10.691406 11.304688 10.691406 Z M 11.304688 10.691406 "/>
<path style=" stroke:none;fill-rule:nonzero;fill:rgb(0%,0%,0%);fill-opacity:1;" d="M 11.304688 9.117188 L 9.996094 9.117188 L 9.996094 9.871094 L 11.304688 9.871094 C 11.511719 9.871094 11.679688 9.703125 11.679688 9.496094 C 11.679688 9.289062 11.511719 9.117188 11.304688 9.117188 Z M 11.304688 9.117188 "/>
<path style=" stroke:none;fill-rule:nonzero;fill:rgb(0%,0%,0%);fill-opacity:1;" d="M 3.375 9.625 L 2.902344 10.578125 L 3.851562 10.578125 Z M 3.375 9.625 "/>
<path style=" stroke:none;fill-rule:nonzero;fill:rgb(0%,0%,0%);fill-opacity:1;" d="M 4.550781 7.421875 C 3.933594 7.421875 3.394531 7.082031 3.117188 6.578125 L 1.230469 6.578125 C 0.554688 6.578125 0 7.128906 0 7.804688 L 0 12.757812 C 0 13.433594 0.554688 13.984375 1.230469 13.984375 L 6.179688 13.984375 C 6.324219 13.984375 6.460938 13.960938 6.589844 13.914062 L 6.589844 7.421875 Z M 5.132812 12.21875 C 5.070312 12.25 5.007812 12.265625 4.949219 12.265625 C 4.796875 12.265625 4.65625 12.179688 4.582031 12.035156 L 4.257812 11.390625 C 4.242188 11.394531 4.226562 11.398438 4.210938 11.398438 L 2.539062 11.398438 C 2.523438 11.398438 2.507812 11.394531 2.492188 11.390625 L 2.171875 12.035156 C 2.070312 12.238281 1.824219 12.320312 1.625 12.21875 C 1.421875 12.117188 1.335938 11.871094 1.4375 11.671875 L 3.007812 8.527344 C 3.078125 8.386719 3.21875 8.296875 3.375 8.296875 C 3.53125 8.296875 3.671875 8.386719 3.742188 8.527344 L 5.3125 11.671875 C 5.414062 11.871094 5.335938 12.117188 5.132812 12.21875 Z M 5.132812 12.21875 "/>
<path style=" stroke:none;fill-rule:nonzero;fill:rgb(0%,0%,0%);fill-opacity:1;" d="M 9.5 0.015625 L 4.550781 0.015625 C 4.101562 0.015625 3.730469 0.382812 3.730469 0.835938 L 3.730469 5.78125 C 3.730469 6.234375 4.101562 6.601562 4.550781 6.601562 L 9.5 6.601562 C 9.953125 6.601562 10.320312 6.234375 10.320312 5.78125 L 10.320312 0.835938 C 10.320312 0.382812 9.953125 0.015625 9.5 0.015625 Z M 7.070312 4.46875 L 8.1875 4.46875 C 8.414062 4.46875 8.59375 4.65625 8.59375 4.882812 C 8.59375 5.105469 8.414062 5.289062 8.1875 5.289062 L 7.070312 5.289062 C 6.179688 5.289062 5.457031 4.566406 5.457031 3.679688 L 5.457031 2.9375 C 5.457031 2.050781 6.179688 1.328125 7.070312 1.328125 L 8.1875 1.328125 C 8.414062 1.328125 8.59375 1.507812 8.59375 1.734375 C 8.59375 1.960938 8.414062 2.148438 8.1875 2.148438 L 7.070312 2.148438 C 6.632812 2.148438 6.277344 2.5 6.277344 2.9375 L 6.277344 3.679688 C 6.277344 4.117188 6.632812 4.46875 7.070312 4.46875 Z M 7.070312 4.46875 "/>
</g>
</svg>
