<?xml version="1.0" encoding="UTF-8"?>
<svg xmlns="http://www.w3.org/2000/svg" xmlns:xlink="http://www.w3.org/1999/xlink" width="28pt" height="28pt" viewBox="0 0 28 28" version="1.1">
<g id="surface1">
<path style=" stroke:none;fill-rule:nonzero;fill:rgb(0%,0%,0%);fill-opacity:1;" d="M 24.871094 20.535156 C 24.425781 19.761719 23.769531 19.261719 22.917969 19.042969 C 22.714844 18.992188 22.507812 18.957031 22.304688 18.945312 C 22.332031 18.652344 22.347656 18.359375 22.347656 18.0625 C 22.347656 17.691406 22.324219 17.316406 22.28125 16.945312 C 23.792969 16.738281 24.960938 15.484375 24.960938 13.96875 C 24.960938 12.308594 23.5625 10.960938 21.84375 10.960938 C 21.671875 10.960938 21.507812 10.972656 21.34375 11 C 21.695312 10.148438 21.890625 9.21875 21.890625 8.25 C 21.890625 7.617188 21.808594 6.996094 21.648438 6.390625 C 22.886719 5.867188 23.714844 4.679688 23.714844 3.335938 C 23.714844 1.496094 22.160156 0 20.253906 0 C 19.089844 0 18.015625 0.566406 17.378906 1.480469 C 16.363281 1.03125 15.253906 0.796875 14.128906 0.796875 C 13.007812 0.796875 11.894531 1.03125 10.882812 1.480469 C 10.246094 0.566406 9.167969 0 8.007812 0 C 6.097656 0 4.546875 1.496094 4.546875 3.335938 C 4.546875 4.679688 5.371094 5.867188 6.613281 6.390625 C 6.449219 6.996094 6.367188 7.617188 6.367188 8.25 C 6.367188 9.21875 6.5625 10.148438 6.917969 11 C 6.753906 10.972656 6.585938 10.960938 6.417969 10.960938 C 4.699219 10.960938 3.300781 12.308594 3.300781 13.96875 C 3.300781 15.484375 4.464844 16.738281 5.976562 16.945312 C 5.933594 17.316406 5.914062 17.691406 5.914062 18.0625 C 5.914062 18.367188 5.929688 18.667969 5.957031 18.96875 C 5.933594 18.96875 5.914062 18.96875 5.890625 18.96875 C 5.625 18.96875 5.351562 19.003906 5.082031 19.070312 C 4.230469 19.289062 3.574219 19.792969 3.128906 20.5625 C 2.359375 21.898438 2.398438 23.875 2.78125 25.238281 C 3.238281 26.863281 4.773438 28 6.523438 28 C 6.59375 28 6.667969 27.996094 6.742188 27.992188 C 6.746094 27.992188 6.75 27.992188 6.75 27.992188 C 6.757812 27.992188 6.761719 27.992188 6.765625 27.992188 C 6.769531 27.992188 6.777344 27.992188 6.78125 27.992188 C 8.214844 27.914062 9.476562 27.066406 10.074219 25.847656 C 11.304688 26.613281 12.695312 27.011719 14.128906 27.011719 C 15.5 27.011719 16.835938 26.644531 18.027344 25.941406 C 18.046875 25.976562 18.066406 26.015625 18.085938 26.050781 C 18.601562 26.945312 19.453125 27.582031 20.476562 27.84375 C 20.804688 27.929688 21.140625 27.96875 21.476562 27.96875 C 23.226562 27.96875 24.761719 26.835938 25.21875 25.207031 C 25.601562 23.84375 25.640625 21.871094 24.871094 20.535156 Z M 5.640625 3.335938 C 5.640625 2.101562 6.699219 1.09375 8.007812 1.09375 C 8.941406 1.09375 9.789062 1.617188 10.167969 2.425781 C 10.234375 2.558594 10.347656 2.664062 10.488281 2.710938 C 10.632812 2.757812 10.785156 2.746094 10.917969 2.675781 C 11.894531 2.164062 13.007812 1.890625 14.128906 1.890625 C 15.253906 1.890625 16.363281 2.164062 17.339844 2.675781 C 17.472656 2.746094 17.628906 2.757812 17.769531 2.710938 C 17.910156 2.664062 18.027344 2.558594 18.089844 2.425781 C 18.472656 1.617188 19.320312 1.09375 20.253906 1.09375 C 21.558594 1.09375 22.621094 2.097656 22.621094 3.335938 C 22.621094 4.210938 22.089844 4.988281 21.28125 5.355469 C 21.152344 5.058594 21.003906 4.769531 20.835938 4.496094 C 20.675781 4.234375 20.339844 4.152344 20.082031 4.3125 C 19.824219 4.46875 19.742188 4.804688 19.898438 5.0625 C 20.121094 5.429688 20.308594 5.820312 20.449219 6.222656 C 20.453125 6.230469 20.457031 6.242188 20.460938 6.25 C 20.683594 6.894531 20.796875 7.566406 20.796875 8.25 C 20.796875 11.578125 18.097656 14.320312 14.675781 14.585938 L 14.675781 10.519531 C 15.46875 10.246094 16.027344 9.425781 16.027344 8.699219 C 16.027344 8.300781 15.84375 7.375 14.128906 7.375 C 12.417969 7.375 12.230469 8.300781 12.230469 8.699219 C 12.230469 9.425781 12.789062 10.246094 13.582031 10.519531 L 13.582031 14.585938 C 10.160156 14.320312 7.460938 11.578125 7.460938 8.25 C 7.460938 7.554688 7.578125 6.875 7.808594 6.222656 C 7.859375 6.074219 7.847656 5.914062 7.773438 5.777344 C 7.699219 5.640625 7.570312 5.542969 7.421875 5.507812 C 6.371094 5.253906 5.640625 4.363281 5.640625 3.335938 Z M 14.128906 18.816406 C 13.828125 18.816406 13.582031 19.0625 13.582031 19.363281 L 13.582031 21.023438 C 11.730469 20.753906 10.300781 19.15625 10.300781 17.230469 C 10.300781 16.453125 10.539062 15.695312 10.980469 15.058594 C 11.941406 15.472656 13.007812 15.699219 14.128906 15.699219 C 15.25 15.699219 16.316406 15.472656 17.28125 15.058594 C 17.71875 15.695312 17.957031 16.453125 17.957031 17.230469 C 17.957031 19.15625 16.53125 20.753906 14.675781 21.023438 L 14.675781 19.363281 C 14.675781 19.0625 14.433594 18.816406 14.128906 18.816406 Z M 13.324219 8.699219 C 13.324219 8.644531 13.324219 8.621094 13.417969 8.578125 C 13.5 8.535156 13.703125 8.46875 14.128906 8.46875 C 14.554688 8.46875 14.761719 8.535156 14.84375 8.578125 C 14.933594 8.621094 14.933594 8.644531 14.933594 8.699219 C 14.933594 9.007812 14.558594 9.515625 14.128906 9.515625 C 13.703125 9.515625 13.324219 9.007812 13.324219 8.699219 Z M 8.964844 25.53125 C 8.597656 26.167969 7.988281 26.625 7.25 26.8125 C 7.070312 26.859375 6.890625 26.886719 6.707031 26.898438 C 6.707031 26.898438 6.707031 26.898438 6.703125 26.898438 C 6.644531 26.902344 6.582031 26.90625 6.523438 26.90625 C 5.261719 26.90625 4.160156 26.097656 3.835938 24.941406 C 3.523438 23.835938 3.46875 22.164062 4.078125 21.109375 C 4.375 20.597656 4.792969 20.277344 5.355469 20.132812 C 5.535156 20.085938 5.714844 20.0625 5.890625 20.0625 C 6.078125 20.0625 6.257812 20.085938 6.429688 20.132812 C 6.4375 20.136719 6.445312 20.140625 6.457031 20.140625 C 7.863281 20.542969 8.875 22.378906 9.214844 23.585938 C 9.398438 24.246094 9.308594 24.9375 8.964844 25.53125 Z M 17.734375 23.261719 C 17.582031 23.800781 17.558594 24.351562 17.65625 24.886719 C 16.585938 25.5625 15.375 25.917969 14.128906 25.917969 C 12.792969 25.917969 11.5 25.511719 10.371094 24.734375 C 10.433594 24.257812 10.402344 23.769531 10.269531 23.292969 C 9.871094 21.871094 8.75 19.882812 7.082031 19.203125 C 7.03125 18.828125 7.007812 18.445312 7.007812 18.0625 C 7.007812 17.546875 7.054688 17.027344 7.144531 16.519531 C 7.175781 16.355469 7.128906 16.183594 7.015625 16.058594 C 6.902344 15.933594 6.738281 15.867188 6.570312 15.878906 C 6.519531 15.882812 6.46875 15.882812 6.417969 15.882812 C 5.300781 15.882812 4.394531 15.023438 4.394531 13.96875 C 4.394531 12.914062 5.300781 12.054688 6.417969 12.054688 C 6.953125 12.054688 7.453125 12.25 7.835938 12.601562 C 8.417969 13.378906 9.152344 14.042969 10 14.554688 C 9.484375 15.347656 9.207031 16.277344 9.207031 17.230469 C 9.207031 19.945312 11.414062 22.15625 14.128906 22.15625 C 16.84375 22.15625 19.054688 19.945312 19.054688 17.230469 C 19.054688 16.277344 18.773438 15.347656 18.261719 14.554688 C 19.105469 14.042969 19.839844 13.378906 20.425781 12.601562 C 20.804688 12.25 21.308594 12.054688 21.84375 12.054688 C 22.957031 12.054688 23.867188 12.914062 23.867188 13.96875 C 23.867188 15.023438 22.957031 15.882812 21.84375 15.882812 C 21.792969 15.882812 21.742188 15.882812 21.691406 15.878906 C 21.523438 15.867188 21.359375 15.933594 21.246094 16.058594 C 21.132812 16.183594 21.085938 16.355469 21.113281 16.519531 C 21.207031 17.027344 21.253906 17.546875 21.253906 18.0625 C 21.253906 18.402344 21.230469 18.742188 21.191406 19.078125 C 19.375 19.632812 18.152344 21.765625 17.734375 23.261719 Z M 24.164062 24.914062 C 23.84375 26.070312 22.738281 26.875 21.476562 26.875 C 21.234375 26.875 20.988281 26.84375 20.75 26.785156 C 20.011719 26.59375 19.402344 26.140625 19.035156 25.503906 C 18.691406 24.90625 18.601562 24.214844 18.785156 23.558594 C 19.140625 22.285156 20.246094 20.320312 21.773438 20.0625 C 21.777344 20.058594 21.785156 20.058594 21.789062 20.058594 C 21.894531 20.042969 22 20.03125 22.109375 20.03125 C 22.285156 20.03125 22.464844 20.054688 22.644531 20.101562 C 23.207031 20.246094 23.625 20.566406 23.921875 21.082031 C 24.53125 22.136719 24.476562 23.808594 24.164062 24.914062 Z M 24.164062 24.914062 "/>
<path style=" stroke:none;fill-rule:nonzero;fill:rgb(0%,0%,0%);fill-opacity:1;" d="M 17.570312 6.195312 C 17.0625 6.195312 16.652344 6.589844 16.652344 7.074219 C 16.652344 7.558594 17.0625 7.949219 17.570312 7.949219 C 18.074219 7.949219 18.484375 7.558594 18.484375 7.074219 C 18.484375 6.589844 18.074219 6.195312 17.570312 6.195312 Z M 17.570312 6.195312 "/>
<path style=" stroke:none;fill-rule:nonzero;fill:rgb(0%,0%,0%);fill-opacity:1;" d="M 10.691406 6.195312 C 10.1875 6.195312 9.773438 6.589844 9.773438 7.074219 C 9.773438 7.558594 10.1875 7.949219 10.691406 7.949219 C 11.195312 7.949219 11.605469 7.558594 11.605469 7.074219 C 11.605469 6.589844 11.195312 6.195312 10.691406 6.195312 Z M 10.691406 6.195312 "/>
<path style=" stroke:none;fill-rule:nonzero;fill:rgb(0%,0%,0%);fill-opacity:1;" d="M 19.734375 3.09375 L 19.722656 3.082031 C 19.503906 2.871094 19.160156 2.875 18.949219 3.09375 C 18.738281 3.308594 18.742188 3.65625 18.960938 3.867188 C 19.070312 3.976562 19.207031 4.027344 19.347656 4.027344 C 19.488281 4.027344 19.628906 3.976562 19.734375 3.867188 C 19.949219 3.65625 19.949219 3.308594 19.734375 3.09375 Z M 19.734375 3.09375 "/>
<path style=" stroke:none;fill-rule:nonzero;fill:rgb(0%,0%,0%);fill-opacity:1;" d="M 14.128906 17.230469 C 13.828125 17.230469 13.582031 17.476562 13.582031 17.777344 L 13.582031 17.792969 C 13.582031 18.09375 13.828125 18.339844 14.128906 18.339844 C 14.433594 18.339844 14.675781 18.09375 14.675781 17.792969 L 14.675781 17.777344 C 14.675781 17.476562 14.433594 17.230469 14.128906 17.230469 Z M 14.128906 17.230469 "/>
</g>
</svg>
