<?xml version="1.0" encoding="UTF-8"?>
<svg xmlns="http://www.w3.org/2000/svg" xmlns:xlink="http://www.w3.org/1999/xlink" width="28pt" height="28pt" viewBox="0 0 28 28" version="1.1">
<g id="surface1">
<path style=" stroke:none;fill-rule:nonzero;fill:rgb(0%,0%,0%);fill-opacity:1;" d="M 24.65625 0 L 3.34375 0 C 3.042969 0 2.796875 0.246094 2.796875 0.546875 L 2.796875 27.453125 C 2.796875 27.753906 3.042969 28 3.34375 28 L 24.65625 28 C 24.957031 28 25.203125 27.753906 25.203125 27.453125 L 25.203125 0.546875 C 25.203125 0.246094 24.957031 0 24.65625 0 Z M 3.890625 1.09375 L 24.109375 1.09375 L 24.109375 2.445312 L 18.011719 2.445312 C 17.707031 2.445312 17.464844 2.691406 17.464844 2.992188 L 17.464844 3.117188 L 10.535156 3.117188 L 10.535156 2.992188 C 10.535156 2.691406 10.292969 2.445312 9.988281 2.445312 L 3.890625 2.445312 Z M 18.558594 13.875 L 18.679688 13.875 C 19.050781 13.875 19.351562 14.175781 19.351562 14.546875 C 19.351562 14.917969 19.050781 15.21875 18.679688 15.21875 L 18.558594 15.21875 Z M 13.453125 5.617188 C 12.082031 5.652344 10.980469 6.777344 10.980469 8.15625 L 10.980469 9.480469 L 10.535156 9.480469 L 10.535156 4.210938 L 13.453125 4.210938 Z M 13.519531 6.707031 L 14.480469 6.707031 C 15.277344 6.707031 15.925781 7.355469 15.925781 8.15625 L 15.925781 9.480469 L 12.074219 9.480469 L 12.074219 8.15625 C 12.074219 7.355469 12.722656 6.707031 13.519531 6.707031 Z M 10.535156 10.574219 L 17.464844 10.574219 L 17.464844 23.789062 L 10.535156 23.789062 Z M 17.019531 9.480469 L 17.019531 8.15625 C 17.019531 6.777344 15.917969 5.652344 14.546875 5.617188 L 14.546875 4.210938 L 17.464844 4.210938 L 17.464844 9.480469 Z M 3.890625 3.539062 L 9.441406 3.539062 L 9.441406 12.78125 L 9.320312 12.78125 C 8.347656 12.78125 7.554688 13.574219 7.554688 14.546875 C 7.554688 15.519531 8.347656 16.3125 9.320312 16.3125 L 9.441406 16.3125 L 9.441406 24.460938 L 5.597656 24.460938 L 5.597656 8.058594 C 5.597656 7.757812 5.351562 7.511719 5.050781 7.511719 C 4.75 7.511719 4.503906 7.757812 4.503906 8.058594 L 4.503906 24.460938 L 3.890625 24.460938 Z M 9.441406 13.875 L 9.441406 15.21875 L 9.320312 15.21875 C 8.949219 15.21875 8.648438 14.917969 8.648438 14.546875 C 8.648438 14.175781 8.949219 13.875 9.320312 13.875 Z M 24.109375 26.90625 L 3.890625 26.90625 L 3.890625 25.554688 L 9.988281 25.554688 C 10.292969 25.554688 10.535156 25.308594 10.535156 25.007812 L 10.535156 24.882812 L 17.464844 24.882812 L 17.464844 25.007812 C 17.464844 25.308594 17.707031 25.554688 18.011719 25.554688 L 24.109375 25.554688 Z M 24.109375 24.460938 L 23.496094 24.460938 L 23.496094 8.058594 C 23.496094 7.757812 23.25 7.511719 22.949219 7.511719 C 22.648438 7.511719 22.402344 7.757812 22.402344 8.058594 L 22.402344 24.460938 L 18.558594 24.460938 L 18.558594 16.3125 L 18.679688 16.3125 C 19.652344 16.3125 20.445312 15.519531 20.445312 14.546875 C 20.445312 13.574219 19.652344 12.78125 18.679688 12.78125 L 18.558594 12.78125 L 18.558594 3.539062 L 24.109375 3.539062 Z M 24.109375 24.460938 "/>
<path style=" stroke:none;fill-rule:nonzero;fill:rgb(0%,0%,0%);fill-opacity:1;" d="M 5.585938 5.839844 C 5.578125 5.804688 5.570312 5.769531 5.554688 5.734375 C 5.542969 5.703125 5.523438 5.671875 5.503906 5.640625 C 5.484375 5.613281 5.460938 5.585938 5.4375 5.558594 C 5.410156 5.535156 5.382812 5.511719 5.355469 5.492188 C 5.324219 5.472656 5.292969 5.453125 5.257812 5.441406 C 5.226562 5.425781 5.191406 5.417969 5.15625 5.410156 C 5.085938 5.394531 5.015625 5.394531 4.941406 5.410156 C 4.90625 5.417969 4.875 5.425781 4.839844 5.441406 C 4.808594 5.453125 4.777344 5.472656 4.746094 5.492188 C 4.71875 5.511719 4.6875 5.535156 4.664062 5.558594 C 4.5625 5.660156 4.503906 5.800781 4.503906 5.945312 C 4.503906 5.980469 4.507812 6.015625 4.515625 6.050781 C 4.519531 6.085938 4.53125 6.121094 4.546875 6.15625 C 4.558594 6.1875 4.574219 6.21875 4.59375 6.25 C 4.617188 6.277344 4.636719 6.308594 4.664062 6.332031 C 4.6875 6.359375 4.714844 6.378906 4.746094 6.398438 C 4.777344 6.417969 4.808594 6.4375 4.839844 6.449219 C 4.875 6.464844 4.90625 6.472656 4.941406 6.480469 C 4.980469 6.488281 5.015625 6.492188 5.050781 6.492188 C 5.085938 6.492188 5.121094 6.488281 5.15625 6.480469 C 5.191406 6.472656 5.226562 6.464844 5.257812 6.449219 C 5.292969 6.4375 5.324219 6.417969 5.355469 6.398438 C 5.382812 6.378906 5.410156 6.359375 5.4375 6.332031 C 5.460938 6.308594 5.484375 6.277344 5.503906 6.25 C 5.523438 6.21875 5.542969 6.1875 5.554688 6.15625 C 5.570312 6.121094 5.578125 6.085938 5.585938 6.050781 C 5.59375 6.015625 5.597656 5.980469 5.597656 5.945312 C 5.597656 5.910156 5.59375 5.875 5.585938 5.839844 Z M 5.585938 5.839844 "/>
<path style=" stroke:none;fill-rule:nonzero;fill:rgb(0%,0%,0%);fill-opacity:1;" d="M 23.335938 5.558594 C 23.3125 5.535156 23.28125 5.511719 23.253906 5.492188 C 23.222656 5.472656 23.191406 5.453125 23.160156 5.441406 C 23.125 5.425781 23.09375 5.417969 23.058594 5.410156 C 22.984375 5.394531 22.914062 5.394531 22.84375 5.410156 C 22.808594 5.417969 22.773438 5.425781 22.742188 5.441406 C 22.707031 5.453125 22.675781 5.472656 22.644531 5.492188 C 22.617188 5.511719 22.589844 5.535156 22.5625 5.558594 C 22.460938 5.660156 22.402344 5.800781 22.402344 5.945312 C 22.402344 6.089844 22.460938 6.230469 22.5625 6.332031 C 22.589844 6.355469 22.617188 6.378906 22.644531 6.398438 C 22.675781 6.417969 22.707031 6.4375 22.742188 6.449219 C 22.773438 6.464844 22.808594 6.472656 22.84375 6.480469 C 22.878906 6.488281 22.914062 6.492188 22.949219 6.492188 C 22.984375 6.492188 23.019531 6.488281 23.058594 6.480469 C 23.09375 6.472656 23.125 6.464844 23.160156 6.449219 C 23.191406 6.4375 23.222656 6.417969 23.253906 6.398438 C 23.28125 6.378906 23.3125 6.355469 23.335938 6.332031 C 23.4375 6.230469 23.496094 6.089844 23.496094 5.945312 C 23.496094 5.800781 23.4375 5.660156 23.335938 5.558594 Z M 23.335938 5.558594 "/>
<path style=" stroke:none;fill-rule:nonzero;fill:rgb(0%,0%,0%);fill-opacity:1;" d="M 14.394531 11.210938 C 14.289062 11.105469 14.148438 11.042969 14 11.042969 C 13.851562 11.042969 13.710938 11.105469 13.605469 11.210938 C 13.28125 11.550781 12.523438 12.40625 12.523438 13.070312 C 12.523438 13.882812 13.183594 14.546875 14 14.546875 C 14.816406 14.546875 15.476562 13.882812 15.476562 13.070312 C 15.476562 12.40625 14.71875 11.550781 14.394531 11.210938 Z M 14 13.453125 C 13.789062 13.453125 13.617188 13.28125 13.617188 13.074219 C 13.632812 12.960938 13.789062 12.703125 14 12.429688 C 14.210938 12.703125 14.367188 12.960938 14.382812 13.074219 C 14.382812 13.28125 14.210938 13.453125 14 13.453125 Z M 14 13.453125 "/>
<path style=" stroke:none;fill-rule:nonzero;fill:rgb(0%,0%,0%);fill-opacity:1;" d="M 12.730469 14.730469 C 12.628906 14.625 12.488281 14.5625 12.339844 14.5625 C 12.191406 14.5625 12.046875 14.625 11.945312 14.730469 C 11.621094 15.066406 10.863281 15.925781 10.863281 16.585938 C 10.863281 17.402344 11.523438 18.066406 12.339844 18.066406 C 13.152344 18.066406 13.816406 17.402344 13.816406 16.585938 C 13.816406 15.925781 13.058594 15.066406 12.730469 14.730469 Z M 12.339844 16.972656 C 12.128906 16.972656 11.957031 16.800781 11.957031 16.59375 C 11.96875 16.476562 12.125 16.222656 12.339844 15.949219 C 12.550781 16.222656 12.707031 16.480469 12.722656 16.59375 C 12.71875 16.800781 12.546875 16.972656 12.339844 16.972656 Z M 12.339844 16.972656 "/>
<path style=" stroke:none;fill-rule:nonzero;fill:rgb(0%,0%,0%);fill-opacity:1;" d="M 16.054688 14.730469 C 15.953125 14.625 15.808594 14.5625 15.660156 14.5625 C 15.511719 14.5625 15.371094 14.625 15.269531 14.730469 C 14.941406 15.066406 14.183594 15.925781 14.183594 16.585938 C 14.183594 17.402344 14.847656 18.066406 15.660156 18.066406 C 16.476562 18.066406 17.140625 17.402344 17.140625 16.585938 C 17.140625 15.925781 16.378906 15.066406 16.054688 14.730469 Z M 15.660156 16.972656 C 15.453125 16.972656 15.28125 16.800781 15.277344 16.59375 C 15.292969 16.476562 15.449219 16.222656 15.660156 15.949219 C 15.871094 16.222656 16.03125 16.480469 16.042969 16.59375 C 16.042969 16.800781 15.871094 16.972656 15.660156 16.972656 Z M 15.660156 16.972656 "/>
</g>
</svg>
