<?xml version="1.0" encoding="UTF-8"?>
<svg xmlns="http://www.w3.org/2000/svg" xmlns:xlink="http://www.w3.org/1999/xlink" width="28pt" height="28pt" viewBox="0 0 28 28" version="1.1">
<g id="surface1">
<path style=" stroke:none;fill-rule:nonzero;fill:rgb(0%,0%,0%);fill-opacity:1;" d="M 22.640625 0 L 12.53125 0 C 10.511719 0.00390625 8.871094 1.640625 8.867188 3.664062 L 8.867188 6.105469 L 7.9375 6.105469 C 7.726562 6.105469 7.554688 6.277344 7.554688 6.488281 L 7.554688 7.964844 L 4.265625 7.964844 C 4.164062 7.964844 4.066406 8.007812 3.992188 8.082031 L 1.804688 10.34375 C 1.734375 10.414062 1.695312 10.511719 1.695312 10.609375 L 1.695312 12.871094 C 1.695312 13.082031 1.867188 13.253906 2.078125 13.253906 L 18.613281 13.253906 C 18.824219 13.253906 18.996094 13.082031 18.996094 12.871094 L 18.996094 10.609375 C 18.992188 10.511719 18.953125 10.414062 18.886719 10.34375 L 16.699219 8.082031 C 16.625 8.007812 16.527344 7.964844 16.421875 7.964844 L 13.132812 7.964844 L 13.132812 6.488281 C 13.132812 6.277344 12.960938 6.105469 12.75 6.105469 L 11.820312 6.105469 L 11.820312 3.664062 C 11.820312 3.273438 12.140625 2.953125 12.53125 2.953125 L 22.640625 2.953125 C 23.03125 2.953125 23.351562 3.273438 23.351562 3.664062 L 23.351562 27.617188 C 23.351562 27.828125 23.523438 28 23.734375 28 L 25.921875 28 C 26.132812 28 26.304688 27.828125 26.304688 27.617188 L 26.304688 3.664062 C 26.300781 1.640625 24.664062 0.00390625 22.640625 0 Z M 2.460938 12.488281 L 2.460938 10.992188 L 18.230469 10.992188 L 18.230469 12.488281 Z M 17.707031 10.226562 L 2.980469 10.226562 L 4.429688 8.730469 L 16.261719 8.730469 Z M 12.367188 7.964844 L 8.320312 7.964844 L 8.320312 6.871094 L 12.367188 6.871094 Z M 25.539062 27.234375 L 24.117188 27.234375 L 24.117188 3.664062 C 24.117188 2.847656 23.457031 2.1875 22.640625 2.1875 L 12.53125 2.1875 C 11.71875 2.1875 11.058594 2.847656 11.054688 3.664062 L 11.054688 6.105469 L 9.632812 6.105469 L 9.632812 3.664062 C 9.636719 2.0625 10.933594 0.765625 12.53125 0.765625 L 22.640625 0.765625 C 24.242188 0.765625 25.539062 2.0625 25.539062 3.664062 Z M 25.539062 27.234375 "/>
<path style=" stroke:none;fill-rule:nonzero;fill:rgb(0%,0%,0%);fill-opacity:1;" d="M 6.726562 16.699219 C 6.726562 15.9375 5.671875 14.890625 5.457031 14.6875 C 5.3125 14.546875 5.078125 14.546875 4.929688 14.6875 C 4.71875 14.890625 3.664062 15.9375 3.664062 16.699219 C 3.664062 17.542969 4.347656 18.230469 5.195312 18.230469 C 6.039062 18.230469 6.726562 17.542969 6.726562 16.699219 Z M 5.195312 17.464844 C 4.769531 17.464844 4.429688 17.121094 4.429688 16.699219 C 4.429688 16.46875 4.789062 15.953125 5.195312 15.511719 C 5.597656 15.953125 5.960938 16.464844 5.960938 16.699219 C 5.960938 17.121094 5.617188 17.464844 5.195312 17.464844 Z M 5.195312 17.464844 "/>
<path style=" stroke:none;fill-rule:nonzero;fill:rgb(0%,0%,0%);fill-opacity:1;" d="M 11.875 16.699219 C 11.875 15.9375 10.820312 14.890625 10.609375 14.6875 C 10.460938 14.546875 10.230469 14.546875 10.082031 14.6875 C 9.867188 14.890625 8.8125 15.9375 8.8125 16.699219 C 8.8125 17.542969 9.5 18.230469 10.34375 18.230469 C 11.191406 18.230469 11.875 17.542969 11.875 16.699219 Z M 10.34375 17.464844 C 9.921875 17.464844 9.578125 17.121094 9.578125 16.699219 C 9.578125 16.46875 9.941406 15.953125 10.34375 15.511719 C 10.75 15.953125 11.109375 16.464844 11.109375 16.699219 C 11.109375 17.121094 10.769531 17.464844 10.34375 17.464844 Z M 10.34375 17.464844 "/>
<path style=" stroke:none;fill-rule:nonzero;fill:rgb(0%,0%,0%);fill-opacity:1;" d="M 15.761719 14.6875 C 15.613281 14.546875 15.378906 14.546875 15.230469 14.6875 C 15.019531 14.890625 13.964844 15.9375 13.964844 16.699219 C 13.964844 17.542969 14.648438 18.230469 15.496094 18.230469 C 16.339844 18.230469 17.027344 17.542969 17.027344 16.699219 C 17.027344 15.9375 15.972656 14.890625 15.761719 14.6875 Z M 15.496094 17.464844 C 15.074219 17.464844 14.730469 17.121094 14.730469 16.699219 C 14.730469 16.46875 15.089844 15.953125 15.496094 15.511719 C 15.902344 15.953125 16.261719 16.464844 16.261719 16.699219 C 16.261719 17.121094 15.917969 17.464844 15.496094 17.464844 Z M 15.496094 17.464844 "/>
<path style=" stroke:none;fill-rule:nonzero;fill:rgb(0%,0%,0%);fill-opacity:1;" d="M 8.035156 19.519531 C 7.886719 19.375 7.652344 19.375 7.503906 19.519531 C 7.292969 19.71875 6.238281 20.765625 6.238281 21.527344 C 6.238281 22.371094 6.925781 23.058594 7.769531 23.058594 C 8.617188 23.058594 9.300781 22.371094 9.300781 21.527344 C 9.300781 20.765625 8.246094 19.71875 8.035156 19.519531 Z M 7.769531 22.292969 C 7.347656 22.292969 7.003906 21.949219 7.003906 21.527344 C 7.003906 21.296875 7.363281 20.78125 7.769531 20.34375 C 8.175781 20.78125 8.535156 21.296875 8.535156 21.527344 C 8.535156 21.949219 8.191406 22.292969 7.769531 22.292969 Z M 7.769531 22.292969 "/>
<path style=" stroke:none;fill-rule:nonzero;fill:rgb(0%,0%,0%);fill-opacity:1;" d="M 13.183594 19.519531 C 13.035156 19.375 12.804688 19.375 12.65625 19.519531 C 12.445312 19.71875 11.390625 20.765625 11.390625 21.527344 C 11.390625 22.371094 12.074219 23.058594 12.921875 23.058594 C 13.765625 23.058594 14.453125 22.371094 14.453125 21.527344 C 14.453125 20.765625 13.394531 19.71875 13.183594 19.519531 Z M 12.921875 22.292969 C 12.496094 22.292969 12.15625 21.949219 12.15625 21.527344 C 12.15625 21.296875 12.515625 20.78125 12.921875 20.34375 C 13.324219 20.78125 13.6875 21.296875 13.6875 21.527344 C 13.6875 21.949219 13.34375 22.292969 12.921875 22.292969 Z M 12.921875 22.292969 "/>
</g>
</svg>
