<?xml version="1.0" encoding="UTF-8"?>
<svg xmlns="http://www.w3.org/2000/svg" xmlns:xlink="http://www.w3.org/1999/xlink" width="28pt" height="28pt" viewBox="0 0 28 28" version="1.1">
<g id="surface1">
<path style=" stroke:none;fill-rule:nonzero;fill:rgb(0%,0%,0%);fill-opacity:1;" d="M 26.332031 6.871094 L 25.90625 6.871094 L 25.90625 6.632812 C 26.03125 5.089844 25.617188 3.71875 24.746094 2.765625 C 23.996094 1.953125 22.976562 1.519531 21.886719 1.550781 L 4.613281 1.550781 C 3.003906 1.550781 1.695312 2.859375 1.695312 4.46875 L 1.695312 6.871094 L 1.667969 6.871094 C 0.746094 6.871094 0 7.621094 0 8.539062 L 0 8.964844 C 0 9.882812 0.746094 10.632812 1.667969 10.632812 L 1.695312 10.632812 L 1.695312 23.53125 C 1.695312 25.140625 3.003906 26.449219 4.613281 26.449219 L 18.859375 26.449219 C 20.515625 26.449219 21.441406 26.117188 21.953125 25.339844 C 22.4375 24.601562 22.445312 23.546875 22.445312 22.328125 L 24.496094 22.328125 C 25.285156 22.328125 25.90625 21.535156 25.90625 20.519531 L 25.90625 10.632812 L 26.332031 10.632812 C 27.253906 10.632812 28 9.882812 28 8.964844 L 28 8.539062 C 28 7.621094 27.253906 6.871094 26.332031 6.871094 Z M 1.695312 9.539062 L 1.667969 9.539062 C 1.351562 9.539062 1.09375 9.28125 1.09375 8.964844 L 1.09375 8.539062 C 1.09375 8.222656 1.351562 7.964844 1.667969 7.964844 L 1.695312 7.964844 Z M 24.8125 6.707031 L 24.8125 6.871094 L 22.453125 6.871094 C 22.503906 6.480469 22.628906 6.167969 22.820312 5.957031 C 23.042969 5.71875 23.3125 5.667969 23.496094 5.667969 C 23.953125 5.667969 24.546875 5.992188 24.8125 6.707031 Z M 21.351562 22.296875 C 21.351562 23.523438 21.328125 24.296875 21.039062 24.738281 C 20.847656 25.027344 20.429688 25.355469 18.859375 25.355469 L 4.613281 25.355469 C 3.605469 25.355469 2.789062 24.539062 2.789062 23.53125 L 2.789062 20.59375 L 21.351562 20.59375 Z M 21.351562 19.5 L 2.789062 19.5 L 2.789062 17.148438 L 21.351562 17.148438 Z M 22.019531 5.214844 C 21.660156 5.601562 21.253906 6.339844 21.351562 7.65625 L 21.351562 16.054688 L 2.789062 16.054688 L 2.789062 15.007812 L 8.136719 15.007812 C 8.441406 15.007812 8.683594 14.761719 8.683594 14.460938 C 8.683594 14.160156 8.441406 13.914062 8.136719 13.914062 L 2.789062 13.914062 L 2.789062 4.46875 C 2.789062 3.464844 3.605469 2.644531 4.613281 2.644531 L 21.898438 2.644531 C 21.902344 2.644531 21.910156 2.644531 21.914062 2.644531 C 22.683594 2.621094 23.40625 2.929688 23.9375 3.507812 C 24.289062 3.886719 24.539062 4.363281 24.683594 4.90625 C 24.324219 4.691406 23.917969 4.574219 23.496094 4.574219 C 22.925781 4.574219 22.402344 4.800781 22.019531 5.214844 Z M 24.8125 20.519531 C 24.8125 20.988281 24.578125 21.234375 24.496094 21.234375 L 22.445312 21.234375 L 22.445312 10.632812 L 24.8125 10.632812 Z M 26.90625 8.964844 C 26.90625 9.28125 26.648438 9.539062 26.332031 9.539062 L 22.445312 9.539062 L 22.445312 7.964844 L 26.332031 7.964844 C 26.648438 7.964844 26.90625 8.222656 26.90625 8.539062 Z M 26.90625 8.964844 "/>
<path style=" stroke:none;fill-rule:nonzero;fill:rgb(0%,0%,0%);fill-opacity:1;" d="M 9.851562 13.914062 L 9.808594 13.914062 C 9.507812 13.914062 9.261719 14.160156 9.261719 14.460938 C 9.261719 14.761719 9.507812 15.007812 9.808594 15.007812 L 9.851562 15.007812 C 10.152344 15.007812 10.398438 14.761719 10.398438 14.460938 C 10.398438 14.160156 10.152344 13.914062 9.851562 13.914062 Z M 9.851562 13.914062 "/>
</g>
</svg>
