<?xml version="1.0" encoding="UTF-8"?>
<svg xmlns="http://www.w3.org/2000/svg" xmlns:xlink="http://www.w3.org/1999/xlink" width="28pt" height="28pt" viewBox="0 0 28 28" version="1.1">
<g id="surface1">
<path style=" stroke:none;fill-rule:nonzero;fill:rgb(0%,0%,0%);fill-opacity:1;" d="M 28 10.84375 C 28 10.457031 27.6875 10.144531 27.300781 10.144531 L 4.21875 10.144531 L 4.21875 7.292969 L 6.410156 7.292969 L 6.410156 8.59375 C 6.410156 8.980469 6.722656 9.292969 7.105469 9.292969 C 7.492188 9.292969 7.804688 8.980469 7.804688 8.59375 L 7.804688 6.59375 C 7.804688 6.210938 7.492188 5.898438 7.105469 5.898438 L 3.519531 5.898438 C 3.132812 5.898438 2.820312 6.210938 2.820312 6.59375 L 2.820312 10.144531 L 0.699219 10.144531 C 0.3125 10.144531 0 10.457031 0 10.84375 C 0 15.222656 2.632812 18.996094 6.394531 20.671875 L 6.183594 20.761719 C 5.828125 20.910156 5.660156 21.320312 5.808594 21.675781 C 5.917969 21.941406 6.179688 22.101562 6.449219 22.101562 C 6.539062 22.101562 6.632812 22.085938 6.71875 22.046875 L 8.417969 21.339844 C 9.167969 21.503906 9.949219 21.59375 10.75 21.59375 L 17.25 21.59375 C 18.199219 21.59375 19.117188 21.46875 19.996094 21.238281 L 21.933594 22.046875 C 22.023438 22.085938 22.113281 22.101562 22.203125 22.101562 C 22.476562 22.101562 22.734375 21.941406 22.847656 21.675781 C 22.996094 21.320312 22.828125 20.910156 22.472656 20.761719 L 21.914062 20.527344 C 25.511719 18.789062 28 15.101562 28 10.84375 Z M 17.25 20.199219 L 10.75 20.199219 C 5.828125 20.199219 1.777344 16.375 1.421875 11.542969 L 26.578125 11.542969 C 26.222656 16.375 22.175781 20.199219 17.25 20.199219 Z M 17.25 20.199219 "/>
</g>
</svg>
