<?xml version="1.0" encoding="UTF-8"?>
<svg xmlns="http://www.w3.org/2000/svg" xmlns:xlink="http://www.w3.org/1999/xlink" width="28pt" height="28pt" viewBox="0 0 28 28" version="1.1">
<g id="surface1">
<path style=" stroke:none;fill-rule:nonzero;fill:rgb(0%,0%,0%);fill-opacity:1;" d="M 14.914062 10.425781 L 14.914062 9.410156 L 17.574219 9.410156 L 17.574219 5.53125 L 15.746094 5.53125 L 15.746094 7.585938 L 14.914062 7.585938 L 14.914062 3.628906 C 14.914062 2.160156 13.71875 0.964844 12.25 0.964844 C 10.785156 0.964844 9.589844 2.160156 9.589844 3.628906 L 11.414062 3.628906 C 11.414062 3.167969 11.789062 2.792969 12.25 2.792969 C 12.710938 2.792969 13.085938 3.167969 13.085938 3.628906 L 13.085938 10.425781 L 0 10.425781 L 0 27.035156 L 1.824219 27.035156 L 1.824219 23.300781 L 26.175781 23.300781 L 26.175781 27.035156 L 28 27.035156 L 28 10.425781 Z M 8.875 18.121094 C 8.179688 18.121094 7.613281 17.558594 7.613281 16.863281 C 7.613281 16.164062 8.179688 15.601562 8.875 15.601562 C 9.574219 15.601562 10.136719 16.164062 10.136719 16.863281 C 10.136719 17.558594 9.574219 18.121094 8.875 18.121094 Z M 19.125 18.121094 C 18.425781 18.121094 17.863281 17.558594 17.863281 16.863281 C 17.863281 16.164062 18.425781 15.601562 19.125 15.601562 C 19.820312 15.601562 20.386719 16.164062 20.386719 16.863281 C 20.386719 17.558594 19.820312 18.121094 19.125 18.121094 Z M 19.125 18.121094 "/>
</g>
</svg>
