<?xml version="1.0" encoding="UTF-8"?>
<svg xmlns="http://www.w3.org/2000/svg" xmlns:xlink="http://www.w3.org/1999/xlink" width="28pt" height="28pt" viewBox="0 0 28 28" version="1.1">
<g id="surface1">
<path style=" stroke:none;fill-rule:nonzero;fill:rgb(0%,0%,0%);fill-opacity:1;" d="M 0.484375 17.058594 C 0.484375 20.777344 2.738281 23.972656 5.953125 25.347656 L 5.953125 28 L 7.886719 28 L 7.886719 25.925781 C 8.40625 26.019531 8.945312 26.070312 9.496094 26.070312 L 18.503906 26.070312 C 19.054688 26.070312 19.59375 26.019531 20.113281 25.925781 L 20.113281 28 L 22.046875 28 L 22.046875 25.347656 C 25.261719 23.972656 27.515625 20.777344 27.515625 17.058594 Z M 0.484375 17.058594 "/>
<path style=" stroke:none;fill-rule:nonzero;fill:rgb(0%,0%,0%);fill-opacity:1;" d="M 18.828125 12.550781 L 16.894531 12.550781 L 16.894531 15.125 L 18.828125 15.125 Z M 18.828125 12.550781 "/>
<path style=" stroke:none;fill-rule:nonzero;fill:rgb(0%,0%,0%);fill-opacity:1;" d="M 13.035156 12.550781 L 14.964844 12.550781 L 14.964844 15.125 L 13.035156 15.125 Z M 13.035156 12.550781 "/>
<path style=" stroke:none;fill-rule:nonzero;fill:rgb(0%,0%,0%);fill-opacity:1;" d="M 9.171875 12.550781 L 11.101562 12.550781 L 11.101562 15.125 L 9.171875 15.125 Z M 9.171875 12.550781 "/>
<path style=" stroke:none;fill-rule:nonzero;fill:rgb(0%,0%,0%);fill-opacity:1;" d="M 25.128906 2.980469 C 23.492188 1.058594 21.140625 0 18.503906 0 C 15.488281 0 13.035156 2.453125 13.035156 5.472656 L 13.035156 5.59375 C 11.367188 6.023438 10.136719 7.535156 10.136719 9.332031 C 10.136719 10.042969 10.714844 10.621094 11.425781 10.621094 L 16.574219 10.621094 C 17.285156 10.621094 17.863281 10.042969 17.863281 9.332031 C 17.863281 7.535156 16.632812 6.023438 14.964844 5.59375 L 14.964844 5.472656 C 14.964844 3.519531 16.554688 1.929688 18.503906 1.929688 C 22.675781 1.929688 25.585938 5.238281 25.585938 9.976562 L 25.585938 15.125 L 27.515625 15.125 L 27.515625 9.976562 C 27.515625 7.269531 26.667969 4.785156 25.128906 2.980469 Z M 25.128906 2.980469 "/>
</g>
</svg>
