<?xml version="1.0" encoding="UTF-8"?>
<svg xmlns="http://www.w3.org/2000/svg" xmlns:xlink="http://www.w3.org/1999/xlink" width="28pt" height="28pt" viewBox="0 0 28 28" version="1.1">
<g id="surface1">
<path style=" stroke:none;fill-rule:nonzero;fill:rgb(0%,0%,0%);fill-opacity:1;" d="M 8.125 12.921875 L 7.820312 12.921875 L 7.820312 10.433594 C 7.820312 10.140625 7.582031 9.902344 7.285156 9.902344 L 7.238281 9.902344 L 7.238281 4.8125 C 7.238281 4.609375 7.125 4.425781 6.945312 4.335938 L 2.8125 2.269531 C 2.648438 2.1875 2.453125 2.195312 2.292969 2.292969 C 2.136719 2.390625 2.042969 2.5625 2.042969 2.746094 L 2.042969 9.902344 L 1.996094 9.902344 C 1.699219 9.902344 1.460938 10.140625 1.460938 10.433594 L 1.460938 12.921875 L 1.15625 12.921875 C 0.859375 12.921875 0.621094 13.160156 0.621094 13.457031 L 0.621094 27.464844 C 0.621094 27.761719 0.859375 28 1.15625 28 L 8.125 28 C 8.421875 28 8.660156 27.761719 8.660156 27.464844 L 8.660156 13.457031 C 8.660156 13.160156 8.421875 12.921875 8.125 12.921875 Z M 3.109375 3.609375 L 6.171875 5.140625 L 6.171875 9.902344 L 3.109375 9.902344 Z M 2.53125 10.96875 L 6.75 10.96875 L 6.75 12.921875 L 2.53125 12.921875 Z M 7.59375 26.933594 L 1.6875 26.933594 L 1.6875 13.988281 L 7.59375 13.988281 Z M 7.59375 26.933594 "/>
<path style=" stroke:none;fill-rule:nonzero;fill:rgb(0%,0%,0%);fill-opacity:1;" d="M 26.84375 21.65625 L 9.507812 21.65625 C 9.214844 21.65625 8.972656 21.894531 8.972656 22.1875 C 8.972656 22.484375 9.214844 22.722656 9.507812 22.722656 L 25.996094 22.722656 L 25.875 22.976562 C 25.203125 24.371094 23.769531 25.269531 22.226562 25.269531 L 9.507812 25.269531 C 9.214844 25.269531 8.972656 25.507812 8.972656 25.804688 C 8.972656 26.097656 9.214844 26.335938 9.507812 26.335938 L 22.226562 26.335938 C 24.179688 26.335938 25.988281 25.199219 26.835938 23.4375 L 27.324219 22.421875 C 27.40625 22.253906 27.394531 22.058594 27.296875 21.90625 C 27.199219 21.75 27.027344 21.65625 26.84375 21.65625 Z M 26.84375 21.65625 "/>
<path style=" stroke:none;fill-rule:nonzero;fill:rgb(0%,0%,0%);fill-opacity:1;" d="M 8.277344 3.925781 C 10.265625 2.082031 12.855469 1.066406 15.570312 1.066406 C 21.492188 1.066406 26.3125 5.886719 26.3125 11.808594 C 26.3125 15 24.90625 18.007812 22.453125 20.054688 C 22.226562 20.246094 22.195312 20.582031 22.382812 20.808594 C 22.488281 20.933594 22.640625 21 22.792969 21 C 22.914062 21 23.035156 20.957031 23.136719 20.875 C 25.832031 18.621094 27.378906 15.316406 27.378906 11.808594 C 27.378906 5.296875 22.082031 0 15.570312 0 C 12.585938 0 9.738281 1.117188 7.550781 3.140625 C 7.335938 3.34375 7.320312 3.679688 7.519531 3.894531 C 7.722656 4.113281 8.058594 4.125 8.277344 3.925781 Z M 8.277344 3.925781 "/>
<path style=" stroke:none;fill-rule:nonzero;fill:rgb(0%,0%,0%);fill-opacity:1;" d="M 15.570312 3.289062 C 20.269531 3.289062 24.089844 7.109375 24.089844 11.808594 C 24.089844 16.507812 20.269531 20.328125 15.570312 20.328125 C 13.457031 20.328125 11.433594 19.550781 9.867188 18.136719 C 9.648438 17.941406 9.308594 17.957031 9.113281 18.175781 C 8.914062 18.394531 8.933594 18.730469 9.152344 18.929688 C 10.914062 20.519531 13.195312 21.394531 15.570312 21.394531 C 20.859375 21.394531 25.160156 17.09375 25.160156 11.808594 C 25.160156 6.519531 20.859375 2.21875 15.570312 2.21875 C 12.535156 2.21875 9.644531 3.683594 7.84375 6.128906 C 7.667969 6.367188 7.71875 6.703125 7.957031 6.875 C 8.195312 7.050781 8.527344 7 8.703125 6.761719 C 10.304688 4.585938 12.871094 3.289062 15.570312 3.289062 Z M 15.570312 3.289062 "/>
<path style=" stroke:none;fill-rule:nonzero;fill:rgb(0%,0%,0%);fill-opacity:1;" d="M 21.441406 7.601562 L 11.703125 17.34375 C 11.492188 17.550781 11.492188 17.890625 11.703125 18.097656 C 11.804688 18.203125 11.941406 18.253906 12.078125 18.253906 C 12.214844 18.253906 12.351562 18.203125 12.457031 18.097656 L 22.199219 8.359375 C 22.40625 8.148438 22.40625 7.8125 22.199219 7.601562 C 21.988281 7.394531 21.652344 7.394531 21.441406 7.601562 Z M 21.441406 7.601562 "/>
<path style=" stroke:none;fill-rule:nonzero;fill:rgb(0%,0%,0%);fill-opacity:1;" d="M 14.667969 17.410156 C 14.460938 17.617188 14.460938 17.957031 14.667969 18.164062 C 14.773438 18.269531 14.910156 18.320312 15.046875 18.320312 C 15.183594 18.320312 15.320312 18.269531 15.421875 18.164062 L 22.738281 10.851562 C 22.945312 10.644531 22.945312 10.304688 22.738281 10.097656 C 22.527344 9.886719 22.191406 9.886719 21.980469 10.097656 Z M 14.667969 17.410156 "/>
</g>
</svg>
