<?xml version="1.0" encoding="UTF-8"?>
<svg xmlns="http://www.w3.org/2000/svg" xmlns:xlink="http://www.w3.org/1999/xlink" width="28pt" height="28pt" viewBox="0 0 28 28" version="1.1">
<g id="surface1">
<path style=" stroke:none;fill-rule:nonzero;fill:rgb(0%,0%,0%);fill-opacity:1;" d="M 22.21875 11.722656 L 22.21875 0.914062 C 22.21875 0.410156 21.808594 0 21.304688 0 L 6.695312 0 C 6.191406 0 5.78125 0.410156 5.78125 0.914062 L 5.78125 11.722656 C 4.71875 12.097656 3.957031 13.113281 3.957031 14.304688 C 3.957031 15.507812 4.738281 16.53125 5.820312 16.898438 C 6.046875 19.359375 7.367188 21.507812 9.285156 22.855469 L 7.679688 26.738281 C 7.5625 27.019531 7.59375 27.339844 7.761719 27.59375 C 7.933594 27.847656 8.21875 28 8.523438 28 L 19.476562 28 C 19.78125 28 20.066406 27.847656 20.238281 27.59375 C 20.40625 27.339844 20.4375 27.019531 20.320312 26.738281 L 18.714844 22.855469 C 20.632812 21.507812 21.953125 19.359375 22.179688 16.898438 C 23.261719 16.53125 24.042969 15.507812 24.042969 14.304688 C 24.042969 13.113281 23.28125 12.097656 22.21875 11.722656 Z M 7.609375 1.824219 L 20.390625 1.824219 L 20.390625 11.566406 L 7.609375 11.566406 Z M 9.886719 26.175781 L 10.894531 23.738281 C 11.851562 24.128906 12.902344 24.347656 14 24.347656 C 15.097656 24.347656 16.144531 24.128906 17.105469 23.738281 L 18.113281 26.175781 Z M 14 22.523438 C 10.785156 22.523438 8.117188 20.136719 7.675781 17.042969 L 20.324219 17.042969 C 19.882812 20.136719 17.214844 22.523438 14 22.523438 Z M 21.304688 15.21875 L 6.695312 15.21875 C 6.191406 15.21875 5.78125 14.808594 5.78125 14.304688 C 5.78125 13.800781 6.191406 13.390625 6.695312 13.390625 L 21.304688 13.390625 C 21.808594 13.390625 22.21875 13.800781 22.21875 14.304688 C 22.21875 14.808594 21.808594 15.21875 21.304688 15.21875 Z M 21.304688 15.21875 "/>
<path style=" stroke:none;fill-rule:nonzero;fill:rgb(0%,0%,0%);fill-opacity:1;" d="M 17.652344 3.652344 L 15.824219 3.652344 C 15.320312 3.652344 14.914062 4.0625 14.914062 4.566406 C 14.914062 5.070312 15.320312 5.476562 15.824219 5.476562 L 17.652344 5.476562 C 18.15625 5.476562 18.566406 5.070312 18.566406 4.566406 C 18.566406 4.0625 18.15625 3.652344 17.652344 3.652344 Z M 17.652344 3.652344 "/>
</g>
</svg>
