<?xml version="1.0" encoding="UTF-8"?>
<svg xmlns="http://www.w3.org/2000/svg" xmlns:xlink="http://www.w3.org/1999/xlink" width="28pt" height="28pt" viewBox="0 0 28 28" version="1.1">
<g id="surface1">
<path style=" stroke:none;fill-rule:nonzero;fill:rgb(0%,0%,0%);fill-opacity:1;" d="M 26.644531 12.015625 L 4.46875 12.015625 L 4.46875 6.210938 C 4.46875 6.207031 4.46875 6.207031 4.46875 6.203125 C 4.472656 5.40625 5.136719 4.757812 5.960938 4.757812 C 6.667969 4.75 7.285156 5.25 7.421875 5.949219 L 6.507812 6.164062 C 6.394531 6.1875 6.300781 6.273438 6.265625 6.386719 C 6.230469 6.5 6.261719 6.621094 6.34375 6.707031 C 6.421875 6.792969 6.542969 6.828125 6.660156 6.800781 L 7.808594 6.53125 C 7.835938 6.527344 7.863281 6.523438 7.890625 6.511719 L 9.03125 6.246094 C 9.144531 6.21875 9.238281 6.132812 9.269531 6.019531 C 9.304688 5.90625 9.277344 5.785156 9.195312 5.699219 C 9.113281 5.613281 8.996094 5.578125 8.878906 5.605469 L 8.0625 5.796875 C 7.851562 4.804688 6.972656 4.097656 5.960938 4.101562 C 4.78125 4.101562 3.824219 5.035156 3.816406 6.1875 C 3.816406 6.191406 3.8125 6.199219 3.8125 6.203125 L 3.8125 12.015625 L 1.355469 12.015625 C 0.902344 12.015625 0.546875 12.5 0.546875 13.117188 L 0.546875 13.242188 C 0.546875 13.699219 0.742188 14.078125 1.023438 14.25 C 1.074219 16.207031 1.699219 18.105469 2.824219 19.707031 C 3.96875 21.351562 5.621094 22.714844 7.597656 23.65625 C 7.859375 23.78125 8.148438 23.847656 8.4375 23.84375 L 19.640625 23.847656 C 19.945312 23.847656 20.242188 23.777344 20.515625 23.644531 C 22.441406 22.683594 24.054688 21.304688 25.183594 19.660156 C 26.308594 18.023438 26.921875 16.160156 26.96875 14.253906 C 27.257812 14.085938 27.453125 13.703125 27.453125 13.242188 L 27.453125 13.117188 C 27.453125 12.5 27.097656 12.015625 26.644531 12.015625 Z M 26.796875 13.117188 L 26.796875 13.242188 C 26.796875 13.511719 26.683594 13.667969 26.640625 13.6875 L 23.390625 13.6875 L 23.390625 12.671875 L 26.640625 12.671875 C 26.683594 12.691406 26.796875 12.847656 26.796875 13.117188 Z M 17.609375 12.671875 L 22.734375 12.671875 L 22.734375 18.535156 L 17.609375 18.535156 Z M 22.722656 19.191406 C 22.65625 19.6875 22.296875 20.0625 21.859375 20.0625 L 18.484375 20.0625 C 18.050781 20.0625 17.691406 19.683594 17.625 19.191406 Z M 1.203125 13.117188 C 1.203125 12.847656 1.316406 12.691406 1.359375 12.671875 L 16.953125 12.671875 L 16.953125 13.6875 L 1.359375 13.6875 C 1.316406 13.667969 1.203125 13.511719 1.203125 13.242188 Z M 24.644531 19.289062 C 23.574219 20.839844 22.046875 22.144531 20.222656 23.054688 C 20.042969 23.144531 19.84375 23.191406 19.640625 23.191406 L 8.4375 23.1875 C 8.246094 23.191406 8.054688 23.148438 7.878906 23.066406 C 4.105469 21.269531 1.8125 18.023438 1.683594 14.34375 L 16.953125 14.34375 L 16.953125 19.023438 C 16.953125 19.960938 17.640625 20.722656 18.484375 20.722656 L 21.859375 20.722656 C 22.707031 20.722656 23.390625 19.960938 23.390625 19.023438 L 23.390625 14.34375 L 26.308594 14.34375 C 26.246094 16.085938 25.671875 17.789062 24.644531 19.289062 Z M 24.644531 19.289062 "/>
</g>
</svg>
