<?xml version="1.0" encoding="UTF-8"?>
<svg xmlns="http://www.w3.org/2000/svg" xmlns:xlink="http://www.w3.org/1999/xlink" width="28pt" height="28pt" viewBox="0 0 28 28" version="1.1">
<g id="surface1">
<path style=" stroke:none;fill-rule:nonzero;fill:rgb(0%,0%,0%);fill-opacity:1;" d="M 12.765625 8.628906 L 4.09375 8.628906 C 2.203125 8.628906 0.707031 10.179688 0.707031 12.074219 L 0.707031 18.046875 C 0.707031 19.875 2.128906 21.375 3.933594 21.472656 L 3.933594 24.496094 C 3.933594 26.414062 5.441406 28 7.328125 28 L 20.660156 28 C 22.542969 28 24.066406 26.414062 24.066406 24.496094 L 24.066406 21.472656 C 25.871094 21.375 27.292969 19.875 27.292969 18.046875 L 27.292969 12.074219 C 27.292969 10.179688 25.785156 8.628906 23.890625 8.628906 L 15.234375 8.628906 L 15.234375 2.960938 C 15.234375 2.636719 15.128906 2.320312 14.894531 2.089844 L 13.179688 0.363281 C 12.695312 -0.121094 11.921875 -0.121094 11.4375 0.363281 C 10.957031 0.84375 10.9375 1.625 11.417969 2.109375 L 12.765625 3.472656 L 12.765625 5.140625 C 11.53125 4.269531 9.683594 3.507812 7.109375 3.507812 C 6.429688 3.507812 5.886719 4.0625 5.886719 4.742188 C 5.886719 5.425781 6.421875 5.976562 7.105469 5.976562 C 10.730469 5.976562 12.386719 7.964844 12.765625 8.628906 Z M 20.660156 25.53125 L 7.328125 25.53125 C 6.8125 25.53125 6.402344 25.042969 6.402344 24.496094 L 6.402344 21.449219 L 21.597656 21.449219 L 21.597656 24.496094 C 21.597656 25.042969 21.175781 25.53125 20.660156 25.53125 Z M 24.921875 18.011719 C 24.921875 18.546875 24.488281 18.980469 23.957031 18.980469 L 4.140625 18.980469 C 3.605469 18.980469 3.175781 18.546875 3.175781 18.011719 L 3.175781 12.0625 C 3.175781 11.527344 3.605469 11.097656 4.140625 11.097656 L 23.957031 11.097656 C 24.488281 11.097656 24.921875 11.527344 24.921875 12.0625 Z M 24.921875 18.011719 "/>
</g>
</svg>
