<?xml version="1.0" encoding="UTF-8"?>
<svg xmlns="http://www.w3.org/2000/svg" xmlns:xlink="http://www.w3.org/1999/xlink" width="28pt" height="28pt" viewBox="0 0 28 28" version="1.1">
<g id="surface1">
<path style=" stroke:none;fill-rule:nonzero;fill:rgb(0%,0%,0%);fill-opacity:1;" d="M 21.9375 13.308594 L 19.355469 4.117188 C 19.144531 3.371094 18.464844 2.855469 17.6875 2.851562 L 10.3125 2.851562 C 9.535156 2.855469 8.855469 3.371094 8.644531 4.117188 L 6.0625 13.308594 C 6.03125 13.425781 6.054688 13.550781 6.125 13.644531 C 6.199219 13.742188 6.3125 13.796875 6.429688 13.796875 L 11.632812 13.796875 C 11.289062 14.574219 10.828125 15.292969 10.269531 15.933594 C 8.691406 17.757812 8.667969 20.453125 10.214844 22.300781 L 10.113281 22.300781 C 8.859375 22.300781 7.847656 23.316406 7.84375 24.570312 L 7.84375 24.765625 C 7.84375 24.976562 8.015625 25.148438 8.226562 25.148438 L 19.773438 25.148438 C 19.984375 25.148438 20.15625 24.976562 20.15625 24.765625 L 20.15625 24.570312 C 20.152344 23.316406 19.140625 22.300781 17.886719 22.300781 L 17.792969 22.300781 C 19.324219 20.457031 19.304688 17.777344 17.746094 15.953125 C 17.183594 15.304688 16.71875 14.578125 16.367188 13.796875 L 19.769531 13.796875 L 19.769531 15.285156 C 19.238281 15.472656 18.921875 16.011719 19.015625 16.566406 C 19.109375 17.121094 19.589844 17.527344 20.152344 17.527344 C 20.714844 17.527344 21.195312 17.121094 21.289062 16.566406 C 21.382812 16.011719 21.066406 15.472656 20.535156 15.285156 L 20.535156 13.796875 L 21.570312 13.796875 C 21.6875 13.796875 21.800781 13.742188 21.875 13.644531 C 21.945312 13.550781 21.96875 13.425781 21.9375 13.308594 Z M 20.152344 16.753906 C 19.9375 16.753906 19.765625 16.582031 19.765625 16.367188 C 19.765625 16.152344 19.9375 15.980469 20.152344 15.980469 C 20.367188 15.980469 20.539062 16.152344 20.539062 16.367188 C 20.539062 16.582031 20.367188 16.753906 20.152344 16.753906 Z M 9.382812 4.324219 C 9.5 3.90625 9.878906 3.621094 10.3125 3.617188 L 17.6875 3.617188 C 18.121094 3.621094 18.5 3.90625 18.617188 4.324219 L 20.496094 11.007812 L 7.503906 11.007812 Z M 19.378906 24.382812 L 8.621094 24.382812 C 8.71875 23.628906 9.355469 23.066406 10.113281 23.066406 L 17.886719 23.066406 C 18.644531 23.066406 19.28125 23.628906 19.378906 24.382812 Z M 17.164062 16.453125 C 18.652344 18.191406 18.457031 20.804688 16.726562 22.300781 L 11.289062 22.300781 C 10.449219 21.585938 9.929688 20.5625 9.847656 19.460938 C 9.765625 18.359375 10.125 17.269531 10.851562 16.4375 C 11.53125 15.652344 12.078125 14.761719 12.464844 13.796875 L 15.539062 13.796875 C 15.929688 14.765625 16.480469 15.664062 17.164062 16.453125 Z M 20.15625 13.03125 L 6.9375 13.03125 L 7.289062 11.773438 L 20.710938 11.773438 L 21.0625 13.03125 Z M 20.15625 13.03125 "/>
</g>
</svg>
