<?xml version="1.0" encoding="UTF-8"?>
<svg xmlns="http://www.w3.org/2000/svg" xmlns:xlink="http://www.w3.org/1999/xlink" width="28pt" height="28pt" viewBox="0 0 28 28" version="1.1">
<g id="surface1">
<path style=" stroke:none;fill-rule:nonzero;fill:rgb(0%,0%,0%);fill-opacity:1;" d="M 23.320312 15.207031 L 21.132812 2.089844 C 21.085938 1.824219 20.859375 1.628906 20.589844 1.628906 L 14.546875 1.628906 L 14.546875 1.097656 L 16.21875 1.097656 C 16.523438 1.097656 16.769531 0.851562 16.769531 0.550781 C 16.769531 0.246094 16.523438 0 16.21875 0 L 11.78125 0 C 11.476562 0 11.230469 0.246094 11.230469 0.550781 C 11.230469 0.851562 11.476562 1.097656 11.78125 1.097656 L 13.449219 1.097656 L 13.449219 1.628906 L 7.410156 1.628906 C 7.140625 1.628906 6.910156 1.824219 6.867188 2.089844 L 4.671875 15.246094 C 4.644531 15.40625 4.6875 15.570312 4.792969 15.691406 C 4.898438 15.816406 5.050781 15.886719 5.210938 15.886719 L 13.449219 15.886719 L 13.449219 24.703125 L 9.640625 24.703125 C 8.730469 24.703125 7.992188 25.441406 7.992188 26.347656 L 7.992188 27.449219 C 7.992188 27.753906 8.238281 28 8.542969 28 C 8.554688 28 8.570312 27.996094 8.582031 27.996094 L 19.414062 27.996094 C 19.433594 28 19.453125 28 19.472656 28 C 19.777344 28 20.023438 27.753906 20.023438 27.449219 L 20.023438 26.347656 C 20.023438 25.441406 19.285156 24.703125 18.375 24.703125 L 14.546875 24.703125 L 14.546875 15.886719 L 22.785156 15.886719 C 22.789062 15.886719 22.789062 15.886719 22.789062 15.886719 C 23.089844 15.886719 23.335938 15.640625 23.335938 15.339844 C 23.335938 15.292969 23.332031 15.25 23.320312 15.207031 Z M 18.925781 26.347656 L 18.925781 26.898438 L 9.089844 26.898438 L 9.089844 26.347656 C 9.089844 26.046875 9.335938 25.800781 9.640625 25.800781 L 18.375 25.800781 C 18.679688 25.800781 18.925781 26.046875 18.925781 26.347656 Z M 7.875 2.730469 L 10.910156 2.730469 L 10.144531 14.789062 L 5.859375 14.789062 Z M 17.855469 14.789062 L 17.265625 5.464844 C 17.246094 5.164062 16.984375 4.933594 16.679688 4.953125 C 16.378906 4.972656 16.148438 5.230469 16.167969 5.535156 L 16.753906 14.789062 L 11.242188 14.789062 L 12.007812 2.730469 L 15.988281 2.730469 L 16.035156 3.476562 C 16.054688 3.777344 16.316406 4.007812 16.621094 3.988281 C 16.921875 3.96875 17.152344 3.710938 17.132812 3.40625 L 17.089844 2.730469 L 20.125 2.730469 L 22.136719 14.789062 Z M 17.855469 14.789062 "/>
</g>
</svg>
