<?xml version="1.0" encoding="UTF-8"?>
<svg xmlns="http://www.w3.org/2000/svg" xmlns:xlink="http://www.w3.org/1999/xlink" width="28pt" height="28pt" viewBox="0 0 28 28" version="1.1">
<g id="surface1">
<path style=" stroke:none;fill-rule:nonzero;fill:rgb(0%,0%,0.784314%);fill-opacity:1;" d="M 14.339844 5.554688 C 10.230469 5.554688 6.886719 8.898438 6.886719 13.011719 C 6.886719 14.695312 7.4375 16.285156 8.480469 17.609375 C 8.683594 17.863281 8.898438 18.113281 9.105469 18.355469 C 9.726562 19.078125 10.316406 19.757812 10.523438 20.523438 C 10.527344 20.542969 10.566406 20.703125 10.5625 21.25 L 10.5625 21.328125 C 10.554688 21.773438 10.546875 22.382812 10.996094 22.839844 C 11.304688 23.152344 11.738281 23.304688 12.320312 23.304688 L 16.351562 23.304688 C 16.976562 23.304688 17.429688 23.152344 17.730469 22.835938 C 18.136719 22.410156 18.109375 21.855469 18.089844 21.492188 C 18.085938 21.425781 18.085938 21.363281 18.082031 21.296875 C 18.078125 20.75 18.117188 20.59375 18.121094 20.585938 C 18.332031 19.820312 19.019531 19.011719 19.625 18.300781 C 19.828125 18.0625 20.019531 17.835938 20.199219 17.609375 C 21.242188 16.285156 21.796875 14.695312 21.796875 13.011719 C 21.796875 8.898438 18.453125 5.554688 14.339844 5.554688 Z M 19.019531 16.679688 C 18.859375 16.882812 18.675781 17.097656 18.484375 17.324219 C 17.777344 18.15625 16.972656 19.101562 16.671875 20.1875 C 16.628906 20.339844 16.574219 20.625 16.582031 21.316406 C 16.582031 21.398438 16.585938 21.480469 16.589844 21.566406 C 16.59375 21.632812 16.597656 21.71875 16.597656 21.785156 C 16.546875 21.796875 16.464844 21.804688 16.351562 21.804688 L 12.320312 21.804688 C 12.191406 21.804688 12.117188 21.789062 12.078125 21.78125 C 12.058594 21.683594 12.0625 21.480469 12.0625 21.351562 L 12.0625 21.265625 C 12.070312 20.574219 12.015625 20.285156 11.972656 20.128906 C 11.675781 19.035156 10.914062 18.152344 10.242188 17.375 C 10.035156 17.132812 9.839844 16.90625 9.660156 16.679688 C 8.828125 15.621094 8.386719 14.351562 8.386719 13.011719 C 8.386719 9.726562 11.058594 7.054688 14.339844 7.054688 C 17.625 7.054688 20.292969 9.726562 20.292969 13.011719 C 20.292969 14.355469 19.851562 15.625 19.019531 16.679688 Z M 19.019531 16.679688 "/>
<path style=" stroke:none;fill-rule:nonzero;fill:rgb(0%,0%,0.784314%);fill-opacity:1;" d="M 16.195312 23.984375 L 12.488281 23.984375 C 11.6875 23.984375 11.035156 24.636719 11.035156 25.433594 L 11.035156 26.546875 C 11.035156 27.347656 11.6875 28 12.488281 28 L 16.195312 28 C 16.996094 28 17.648438 27.347656 17.648438 26.546875 L 17.648438 25.433594 C 17.648438 24.636719 16.996094 23.984375 16.195312 23.984375 Z M 16.144531 26.5 L 12.535156 26.5 L 12.535156 25.484375 L 16.144531 25.484375 Z M 16.144531 26.5 "/>
<path style=" stroke:none;fill-rule:nonzero;fill:rgb(0%,0%,0.784314%);fill-opacity:1;" d="M 14.339844 4.582031 C 14.753906 4.582031 15.089844 4.246094 15.089844 3.832031 L 15.089844 0.75 C 15.089844 0.335938 14.753906 0 14.339844 0 C 13.925781 0 13.589844 0.335938 13.589844 0.75 L 13.589844 3.832031 C 13.589844 4.246094 13.925781 4.582031 14.339844 4.582031 Z M 14.339844 4.582031 "/>
<path style=" stroke:none;fill-rule:nonzero;fill:rgb(0%,0%,0.784314%);fill-opacity:1;" d="M 24.21875 3.464844 C 23.933594 3.164062 23.457031 3.152344 23.15625 3.4375 L 20.878906 5.613281 C 20.578125 5.902344 20.566406 6.375 20.851562 6.675781 C 21 6.832031 21.199219 6.910156 21.398438 6.910156 C 21.582031 6.910156 21.769531 6.839844 21.914062 6.699219 L 24.195312 4.523438 C 24.496094 4.238281 24.503906 3.765625 24.21875 3.464844 Z M 24.21875 3.464844 "/>
<path style=" stroke:none;fill-rule:nonzero;fill:rgb(0%,0%,0.784314%);fill-opacity:1;" d="M 26.457031 10.972656 L 23.523438 10.976562 C 23.105469 10.976562 22.769531 11.3125 22.773438 11.730469 C 22.773438 12.144531 23.109375 12.480469 23.523438 12.480469 L 26.457031 12.472656 C 26.875 12.472656 27.207031 12.136719 27.207031 11.722656 C 27.207031 11.308594 26.871094 10.972656 26.457031 10.972656 Z M 26.457031 10.972656 "/>
<path style=" stroke:none;fill-rule:nonzero;fill:rgb(0%,0%,0.784314%);fill-opacity:1;" d="M 7.445312 6.476562 C 7.734375 6.175781 7.722656 5.699219 7.421875 5.414062 L 5.144531 3.238281 C 4.84375 2.953125 4.367188 2.964844 4.082031 3.261719 C 3.792969 3.5625 3.804688 4.039062 4.105469 4.324219 L 6.386719 6.5 C 6.53125 6.640625 6.71875 6.707031 6.902344 6.707031 C 7.101562 6.707031 7.300781 6.628906 7.445312 6.476562 Z M 7.445312 6.476562 "/>
<path style=" stroke:none;fill-rule:nonzero;fill:rgb(0%,0%,0.784314%);fill-opacity:1;" d="M 4.476562 10.976562 L 1.542969 10.972656 C 1.128906 10.972656 0.792969 11.308594 0.792969 11.722656 C 0.789062 12.136719 1.125 12.472656 1.542969 12.472656 L 4.476562 12.480469 C 4.890625 12.480469 5.226562 12.144531 5.226562 11.730469 C 5.226562 11.3125 4.894531 10.976562 4.476562 10.976562 Z M 4.476562 10.976562 "/>
</g>
</svg>
