<?xml version="1.0" encoding="UTF-8"?>
<svg xmlns="http://www.w3.org/2000/svg" xmlns:xlink="http://www.w3.org/1999/xlink" width="28pt" height="28pt" viewBox="0 0 28 28" version="1.1">
<g id="surface1">
<path style=" stroke:none;fill-rule:nonzero;fill:rgb(0%,0%,0%);fill-opacity:1;" d="M 13.945312 4.980469 C 8.9375 5 5.007812 9.015625 4.976562 13.945312 C 4.957031 17.039062 6.515625 19.898438 9.078125 21.5625 L 9.078125 22.257812 C 9.078125 22.984375 9.394531 23.640625 9.898438 24.089844 L 9.898438 25.539062 C 9.898438 26.894531 11.003906 28 12.359375 28 L 15.640625 28 C 16.996094 28 18.101562 26.894531 18.101562 25.539062 L 18.101562 24.089844 C 18.605469 23.640625 18.921875 22.984375 18.921875 22.257812 L 18.921875 21.5625 C 21.425781 19.929688 23.023438 17.125 23.023438 14 C 23.023438 9.023438 18.992188 4.957031 13.945312 4.980469 Z M 16.460938 25.539062 C 16.460938 25.992188 16.09375 26.359375 15.640625 26.359375 L 12.359375 26.359375 C 11.90625 26.359375 11.539062 25.992188 11.539062 25.539062 L 11.539062 24.71875 L 16.460938 24.71875 Z M 13.179688 16.460938 L 12.359375 16.460938 C 11.003906 16.460938 9.898438 15.355469 9.898438 14 L 9.898438 13.179688 L 10.71875 13.179688 C 12.074219 13.179688 13.179688 14.285156 13.179688 15.640625 Z M 17.691406 20.394531 C 17.4375 20.542969 17.28125 20.8125 17.28125 21.105469 L 17.28125 22.257812 C 17.28125 22.710938 16.914062 23.078125 16.460938 23.078125 L 14.820312 23.078125 L 14.820312 18.101562 L 15.640625 18.101562 C 17.902344 18.101562 19.742188 16.261719 19.742188 14 L 19.742188 12.359375 C 19.742188 11.90625 19.375 11.539062 18.921875 11.539062 L 17.28125 11.539062 C 15.941406 11.539062 14.75 12.183594 14 13.183594 C 13.25 12.183594 12.058594 11.539062 10.71875 11.539062 L 9.078125 11.539062 C 8.625 11.539062 8.257812 11.90625 8.257812 12.359375 L 8.257812 14 C 8.257812 16.261719 10.097656 18.101562 12.359375 18.101562 L 13.179688 18.101562 L 13.179688 23.078125 L 11.539062 23.078125 C 11.085938 23.078125 10.71875 22.710938 10.71875 22.257812 L 10.71875 21.105469 C 10.71875 20.8125 10.5625 20.542969 10.308594 20.394531 C 7.9375 19.023438 6.578125 16.566406 6.617188 13.890625 C 6.679688 9.90625 9.84375 6.621094 13.980469 6.621094 C 18.082031 6.621094 21.382812 9.914062 21.382812 14 C 21.382812 16.628906 19.96875 19.078125 17.691406 20.394531 Z M 14.820312 16.460938 L 14.820312 15.640625 C 14.820312 14.285156 15.925781 13.179688 17.28125 13.179688 L 18.101562 13.179688 L 18.101562 14 C 18.101562 15.355469 16.996094 16.460938 15.640625 16.460938 Z M 14.820312 16.460938 "/>
<path style=" stroke:none;fill-rule:nonzero;fill:rgb(0%,0%,0%);fill-opacity:1;" d="M 14 0 C 13.546875 0 13.179688 0.367188 13.179688 0.820312 L 13.179688 2.515625 C 13.179688 2.96875 13.546875 3.335938 14 3.335938 C 14.453125 3.335938 14.820312 2.96875 14.820312 2.515625 L 14.820312 0.820312 C 14.820312 0.367188 14.453125 0 14 0 Z M 14 0 "/>
<path style=" stroke:none;fill-rule:nonzero;fill:rgb(0%,0%,0%);fill-opacity:1;" d="M 6.460938 5.300781 L 5.300781 4.140625 C 4.980469 3.820312 4.460938 3.820312 4.140625 4.140625 C 3.820312 4.460938 3.820312 4.980469 4.140625 5.300781 L 5.300781 6.460938 C 5.621094 6.78125 6.140625 6.78125 6.460938 6.460938 C 6.78125 6.140625 6.78125 5.621094 6.460938 5.300781 Z M 6.460938 5.300781 "/>
<path style=" stroke:none;fill-rule:nonzero;fill:rgb(0%,0%,0%);fill-opacity:1;" d="M 2.515625 13.179688 L 0.820312 13.179688 C 0.367188 13.179688 0 13.546875 0 14 C 0 14.453125 0.367188 14.820312 0.820312 14.820312 L 2.515625 14.820312 C 2.96875 14.820312 3.335938 14.453125 3.335938 14 C 3.335938 13.546875 2.96875 13.179688 2.515625 13.179688 Z M 2.515625 13.179688 "/>
<path style=" stroke:none;fill-rule:nonzero;fill:rgb(0%,0%,0%);fill-opacity:1;" d="M 27.179688 13.179688 L 25.484375 13.179688 C 25.03125 13.179688 24.664062 13.546875 24.664062 14 C 24.664062 14.453125 25.03125 14.820312 25.484375 14.820312 L 27.179688 14.820312 C 27.632812 14.820312 28 14.453125 28 14 C 28 13.546875 27.632812 13.179688 27.179688 13.179688 Z M 27.179688 13.179688 "/>
<path style=" stroke:none;fill-rule:nonzero;fill:rgb(0%,0%,0%);fill-opacity:1;" d="M 23.859375 4.140625 C 23.539062 3.820312 23.019531 3.820312 22.699219 4.140625 L 21.539062 5.300781 C 21.21875 5.621094 21.21875 6.140625 21.539062 6.460938 C 21.859375 6.78125 22.378906 6.78125 22.699219 6.460938 L 23.859375 5.300781 C 24.179688 4.980469 24.179688 4.460938 23.859375 4.140625 Z M 23.859375 4.140625 "/>
</g>
</svg>
