<?xml version="1.0" encoding="UTF-8"?>
<svg xmlns="http://www.w3.org/2000/svg" xmlns:xlink="http://www.w3.org/1999/xlink" width="28pt" height="28pt" viewBox="0 0 28 28" version="1.1">
<g id="surface1">
<path style=" stroke:none;fill-rule:nonzero;fill:rgb(0%,0%,0%);fill-opacity:1;" d="M 14 4.148438 C 9.140625 4.148438 5.183594 8.101562 5.183594 12.964844 C 5.183594 16.652344 7.460938 19.917969 10.890625 21.207031 L 10.890625 25.925781 C 10.890625 26.210938 11.121094 26.445312 11.40625 26.445312 L 11.925781 26.445312 L 11.925781 27.480469 C 11.925781 27.769531 12.15625 28 12.445312 28 L 15.554688 28 C 15.84375 28 16.074219 27.769531 16.074219 27.480469 L 16.074219 26.445312 L 16.59375 26.445312 C 16.878906 26.445312 17.109375 26.210938 17.109375 25.925781 L 17.109375 21.207031 C 20.539062 19.917969 22.816406 16.652344 22.816406 12.964844 C 22.816406 8.101562 18.859375 4.148438 14 4.148438 Z M 15.554688 25.40625 C 15.269531 25.40625 15.035156 25.640625 15.035156 25.925781 L 15.035156 26.964844 L 12.964844 26.964844 L 12.964844 25.925781 C 12.964844 25.640625 12.730469 25.40625 12.445312 25.40625 L 11.925781 25.40625 L 11.925781 22.816406 L 16.074219 22.816406 L 16.074219 25.40625 Z M 16.429688 20.347656 C 16.21875 20.417969 16.074219 20.617188 16.074219 20.839844 L 16.074219 21.777344 L 11.925781 21.777344 L 11.925781 20.839844 C 11.925781 20.617188 11.78125 20.417969 11.570312 20.347656 C 8.371094 19.296875 6.222656 16.328125 6.222656 12.964844 C 6.222656 8.675781 9.710938 5.183594 14 5.183594 C 18.289062 5.183594 21.777344 8.675781 21.777344 12.964844 C 21.777344 16.328125 19.628906 19.296875 16.429688 20.347656 Z M 16.429688 20.347656 "/>
<path style=" stroke:none;fill-rule:nonzero;fill:rgb(0%,0%,0%);fill-opacity:1;" d="M 14 3.109375 C 14.285156 3.109375 14.519531 2.878906 14.519531 2.59375 L 14.519531 0.519531 C 14.519531 0.230469 14.285156 0 14 0 C 13.714844 0 13.480469 0.230469 13.480469 0.519531 L 13.480469 2.59375 C 13.480469 2.878906 13.714844 3.109375 14 3.109375 Z M 14 3.109375 "/>
<path style=" stroke:none;fill-rule:nonzero;fill:rgb(0%,0%,0%);fill-opacity:1;" d="M 26.445312 12.445312 L 24.371094 12.445312 C 24.082031 12.445312 23.851562 12.675781 23.851562 12.964844 C 23.851562 13.25 24.082031 13.480469 24.371094 13.480469 L 26.445312 13.480469 C 26.730469 13.480469 26.964844 13.25 26.964844 12.964844 C 26.964844 12.675781 26.730469 12.445312 26.445312 12.445312 Z M 26.445312 12.445312 "/>
<path style=" stroke:none;fill-rule:nonzero;fill:rgb(0%,0%,0%);fill-opacity:1;" d="M 3.628906 12.445312 L 1.554688 12.445312 C 1.269531 12.445312 1.035156 12.675781 1.035156 12.964844 C 1.035156 13.25 1.269531 13.480469 1.554688 13.480469 L 3.628906 13.480469 C 3.917969 13.480469 4.148438 13.25 4.148438 12.964844 C 4.148438 12.675781 3.917969 12.445312 3.628906 12.445312 Z M 3.628906 12.445312 "/>
<path style=" stroke:none;fill-rule:nonzero;fill:rgb(0%,0%,0%);fill-opacity:1;" d="M 22.433594 3.796875 L 20.96875 5.261719 C 20.765625 5.464844 20.765625 5.792969 20.96875 5.996094 C 21.066406 6.097656 21.199219 6.148438 21.332031 6.148438 C 21.464844 6.148438 21.597656 6.097656 21.699219 5.996094 L 23.167969 4.53125 C 23.367188 4.328125 23.367188 4 23.167969 3.796875 C 22.964844 3.59375 22.636719 3.59375 22.433594 3.796875 Z M 22.433594 3.796875 "/>
<path style=" stroke:none;fill-rule:nonzero;fill:rgb(0%,0%,0%);fill-opacity:1;" d="M 6.300781 19.929688 L 4.832031 21.394531 C 4.632812 21.597656 4.632812 21.925781 4.832031 22.128906 C 4.933594 22.230469 5.066406 22.28125 5.199219 22.28125 C 5.332031 22.28125 5.464844 22.230469 5.566406 22.128906 L 7.03125 20.664062 C 7.234375 20.460938 7.234375 20.132812 7.03125 19.929688 C 6.832031 19.726562 6.503906 19.726562 6.300781 19.929688 Z M 6.300781 19.929688 "/>
<path style=" stroke:none;fill-rule:nonzero;fill:rgb(0%,0%,0%);fill-opacity:1;" d="M 21.699219 19.929688 C 21.496094 19.726562 21.167969 19.726562 20.96875 19.929688 C 20.765625 20.132812 20.765625 20.460938 20.96875 20.664062 L 22.433594 22.128906 C 22.535156 22.230469 22.667969 22.28125 22.800781 22.28125 C 22.933594 22.28125 23.066406 22.230469 23.167969 22.128906 C 23.367188 21.925781 23.367188 21.597656 23.167969 21.394531 Z M 21.699219 19.929688 "/>
<path style=" stroke:none;fill-rule:nonzero;fill:rgb(0%,0%,0%);fill-opacity:1;" d="M 6.300781 5.996094 C 6.402344 6.097656 6.535156 6.148438 6.667969 6.148438 C 6.800781 6.148438 6.933594 6.097656 7.03125 5.996094 C 7.234375 5.792969 7.234375 5.464844 7.03125 5.261719 L 5.566406 3.796875 C 5.363281 3.59375 5.035156 3.59375 4.832031 3.796875 C 4.632812 4 4.632812 4.328125 4.832031 4.53125 Z M 6.300781 5.996094 "/>
<path style=" stroke:none;fill-rule:nonzero;fill:rgb(0%,0%,0%);fill-opacity:1;" d="M 14 6.742188 C 10.570312 6.742188 7.777344 9.53125 7.777344 12.964844 C 7.777344 13.25 8.007812 13.480469 8.296875 13.480469 C 8.582031 13.480469 8.816406 13.25 8.816406 12.964844 C 8.816406 10.105469 11.140625 7.777344 14 7.777344 C 14.285156 7.777344 14.519531 7.546875 14.519531 7.257812 C 14.519531 6.972656 14.285156 6.742188 14 6.742188 Z M 14 6.742188 "/>
</g>
</svg>
