<?xml version="1.0" encoding="UTF-8"?>
<svg xmlns="http://www.w3.org/2000/svg" xmlns:xlink="http://www.w3.org/1999/xlink" width="28pt" height="28pt" viewBox="0 0 28 28" version="1.1">
<g id="surface1">
<path style=" stroke:none;fill-rule:nonzero;fill:rgb(0%,0%,0%);fill-opacity:1;" d="M 14 5.519531 C 9.957031 5.523438 6.683594 8.796875 6.679688 12.839844 C 6.714844 15.480469 8 17.945312 10.140625 19.488281 L 10.140625 24.773438 C 10.140625 24.832031 10.152344 24.894531 10.175781 24.949219 L 10.175781 24.992188 C 10.183594 25.011719 10.195312 25.03125 10.207031 25.054688 L 12.035156 27.773438 C 12.128906 27.914062 12.292969 28 12.464844 28 L 15.484375 28 C 15.65625 28 15.816406 27.914062 15.914062 27.773438 L 17.742188 25.054688 C 17.753906 25.03125 17.761719 25.011719 17.773438 24.992188 L 17.773438 24.949219 C 17.792969 24.894531 17.804688 24.832031 17.808594 24.773438 L 17.808594 19.488281 C 19.949219 17.945312 21.230469 15.480469 21.269531 12.839844 C 21.265625 8.820312 18.019531 5.550781 14 5.519531 Z M 15.234375 26.976562 L 12.765625 26.976562 L 11.632812 25.296875 L 16.359375 25.296875 Z M 11.183594 24.257812 L 11.183594 22.882812 L 16.816406 22.882812 L 16.824219 24.257812 Z M 17.054688 18.777344 L 17.054688 18.792969 C 16.910156 18.886719 16.820312 19.050781 16.824219 19.226562 L 16.824219 21.863281 L 11.183594 21.863281 L 11.183594 19.195312 C 11.183594 19.019531 11.097656 18.855469 10.949219 18.761719 C 8.964844 17.433594 7.757812 15.214844 7.722656 12.824219 C 7.820312 9.355469 10.714844 6.625 14.183594 6.726562 C 17.511719 6.820312 20.1875 9.496094 20.28125 12.824219 C 20.253906 15.21875 19.046875 17.445312 17.054688 18.777344 Z M 17.054688 18.777344 "/>
<path style=" stroke:none;fill-rule:nonzero;fill:rgb(0%,0%,0%);fill-opacity:1;" d="M 14.207031 7.871094 C 13.921875 7.871094 13.6875 8.101562 13.6875 8.390625 C 13.6875 8.675781 13.921875 8.90625 14.207031 8.90625 C 16.363281 8.910156 18.109375 10.65625 18.113281 12.816406 C 18.113281 13.101562 18.347656 13.332031 18.632812 13.332031 C 18.917969 13.332031 19.152344 13.101562 19.152344 12.816406 C 19.148438 10.085938 16.9375 7.875 14.207031 7.871094 Z M 14.207031 7.871094 "/>
<path style=" stroke:none;fill-rule:nonzero;fill:rgb(0%,0%,0%);fill-opacity:1;" d="M 5.285156 12.296875 L 1.546875 12.296875 C 1.261719 12.296875 1.03125 12.527344 1.03125 12.816406 C 1.03125 13.101562 1.261719 13.332031 1.546875 13.332031 L 5.285156 13.332031 C 5.570312 13.332031 5.804688 13.101562 5.804688 12.816406 C 5.804688 12.527344 5.570312 12.296875 5.285156 12.296875 Z M 5.285156 12.296875 "/>
<path style=" stroke:none;fill-rule:nonzero;fill:rgb(0%,0%,0%);fill-opacity:1;" d="M 26.453125 12.296875 L 22.714844 12.296875 C 22.429688 12.296875 22.195312 12.527344 22.195312 12.816406 C 22.195312 13.101562 22.429688 13.332031 22.714844 13.332031 L 26.453125 13.332031 C 26.738281 13.332031 26.96875 13.101562 26.96875 12.816406 C 26.96875 12.527344 26.738281 12.296875 26.453125 12.296875 Z M 26.453125 12.296875 "/>
<path style=" stroke:none;fill-rule:nonzero;fill:rgb(0%,0%,0%);fill-opacity:1;" d="M 8.257812 18.621094 C 8.070312 18.402344 7.742188 18.378906 7.523438 18.5625 C 7.503906 18.582031 7.484375 18.601562 7.46875 18.621094 L 7.46875 18.609375 L 4.816406 21.269531 C 4.597656 21.457031 4.574219 21.785156 4.761719 22.003906 C 4.945312 22.21875 5.273438 22.246094 5.492188 22.058594 C 5.511719 22.042969 5.53125 22.023438 5.546875 22.003906 L 8.199219 19.351562 C 8.417969 19.164062 8.441406 18.835938 8.257812 18.621094 Z M 8.257812 18.621094 "/>
<path style=" stroke:none;fill-rule:nonzero;fill:rgb(0%,0%,0%);fill-opacity:1;" d="M 23.125 3.632812 C 22.933594 3.464844 22.644531 3.464844 22.453125 3.632812 L 19.800781 6.28125 C 19.597656 6.484375 19.59375 6.8125 19.796875 7.015625 C 19.894531 7.117188 20.027344 7.171875 20.167969 7.167969 L 20.164062 7.164062 C 20.300781 7.164062 20.433594 7.113281 20.53125 7.015625 L 23.183594 4.363281 C 23.371094 4.144531 23.34375 3.816406 23.125 3.632812 Z M 23.125 3.632812 "/>
<path style=" stroke:none;fill-rule:nonzero;fill:rgb(0%,0%,0%);fill-opacity:1;" d="M 23.285156 21.375 C 23.257812 21.335938 23.222656 21.300781 23.183594 21.269531 L 20.53125 18.609375 C 20.34375 18.390625 20.019531 18.367188 19.800781 18.554688 C 19.582031 18.738281 19.558594 19.066406 19.742188 19.285156 C 19.761719 19.304688 19.78125 19.324219 19.800781 19.339844 L 22.453125 21.992188 C 22.621094 22.222656 22.945312 22.269531 23.175781 22.101562 C 23.40625 21.929688 23.457031 21.605469 23.285156 21.375 Z M 23.285156 21.375 "/>
<path style=" stroke:none;fill-rule:nonzero;fill:rgb(0%,0%,0%);fill-opacity:1;" d="M 8.199219 6.28125 L 5.546875 3.632812 C 5.332031 3.445312 5.003906 3.46875 4.816406 3.6875 C 4.652344 3.882812 4.652344 4.167969 4.816406 4.363281 L 7.46875 7.015625 C 7.6875 7.199219 8.011719 7.175781 8.199219 6.957031 C 8.367188 6.761719 8.367188 6.476562 8.199219 6.28125 Z M 8.199219 6.28125 "/>
<path style=" stroke:none;fill-rule:nonzero;fill:rgb(0%,0%,0%);fill-opacity:1;" d="M 14 0 C 13.714844 0 13.480469 0.230469 13.480469 0.519531 L 13.480469 4.269531 C 13.472656 4.554688 13.699219 4.796875 13.984375 4.804688 C 13.988281 4.804688 13.996094 4.804688 14 4.804688 C 14.285156 4.804688 14.519531 4.570312 14.519531 4.285156 L 14.519531 0.519531 C 14.519531 0.230469 14.285156 0 14 0 Z M 14 0 "/>
</g>
</svg>
