<?xml version="1.0" encoding="UTF-8"?>
<svg xmlns="http://www.w3.org/2000/svg" xmlns:xlink="http://www.w3.org/1999/xlink" width="28pt" height="28pt" viewBox="0 0 28 28" version="1.1">
<g id="surface1">
<path style=" stroke:none;fill-rule:nonzero;fill:rgb(13.72549%,12.156863%,12.54902%);fill-opacity:1;" d="M 18.515625 7.441406 C 17.226562 6.203125 15.53125 5.5625 13.738281 5.628906 C 10.296875 5.765625 7.492188 8.671875 7.480469 12.117188 C 7.476562 13.644531 8.011719 15.132812 8.992188 16.300781 C 10.402344 17.996094 11.179688 20.136719 11.179688 22.328125 C 11.179688 22.328125 11.03125 23.335938 11.746094 23.335938 L 16.253906 23.335938 C 16.984375 23.335938 16.820312 22.328125 16.820312 22.328125 C 16.820312 20.183594 17.609375 18.0625 19.101562 16.191406 C 20.027344 15.027344 20.519531 13.628906 20.519531 12.140625 C 20.519531 10.351562 19.808594 8.679688 18.515625 7.441406 Z M 18.210938 15.480469 C 16.585938 17.515625 15.71875 19.835938 15.683594 22.199219 L 12.316406 22.199219 C 12.28125 19.785156 11.417969 17.441406 9.867188 15.574219 C 9.0625 14.605469 8.617188 13.382812 8.625 12.125 C 8.636719 9.28125 10.949219 6.878906 13.785156 6.765625 C 15.269531 6.710938 16.667969 7.242188 17.730469 8.261719 C 18.796875 9.285156 19.382812 10.664062 19.382812 12.140625 C 19.375 13.371094 18.976562 14.523438 18.210938 15.480469 Z M 18.210938 15.480469 "/>
<path style=" stroke:none;fill-rule:nonzero;fill:rgb(13.72549%,12.156863%,12.54902%);fill-opacity:1;" d="M 21.503906 3.707031 C 21.277344 3.484375 20.917969 3.484375 20.699219 3.707031 L 19.308594 5.097656 C 19.085938 5.320312 19.085938 5.683594 19.308594 5.902344 C 19.535156 6.121094 19.894531 6.125 20.113281 5.902344 L 21.503906 4.511719 C 21.726562 4.292969 21.726562 3.933594 21.503906 3.707031 Z M 21.503906 3.707031 "/>
<path style=" stroke:none;fill-rule:nonzero;fill:rgb(13.72549%,12.156863%,12.54902%);fill-opacity:1;" d="M 16.273438 24.113281 L 11.726562 24.113281 C 11.40625 24.113281 11.15625 24.367188 11.15625 24.679688 C 11.15625 24.996094 11.414062 25.25 11.726562 25.25 L 16.273438 25.25 C 16.59375 25.25 16.84375 24.992188 16.84375 24.679688 C 16.84375 24.367188 16.585938 24.113281 16.273438 24.113281 Z M 16.273438 24.113281 "/>
<path style=" stroke:none;fill-rule:nonzero;fill:rgb(13.72549%,12.156863%,12.54902%);fill-opacity:1;" d="M 15.417969 26.253906 L 12.589844 26.253906 C 12.273438 26.253906 12.019531 26.511719 12.019531 26.824219 C 12.019531 27.140625 12.277344 27.394531 12.589844 27.394531 L 15.417969 27.394531 C 15.734375 27.394531 15.984375 27.136719 15.984375 26.824219 C 15.984375 26.511719 15.726562 26.253906 15.417969 26.253906 Z M 15.417969 26.253906 "/>
<path style=" stroke:none;fill-rule:nonzero;fill:rgb(13.72549%,12.156863%,12.54902%);fill-opacity:1;" d="M 14 3.703125 C 14.316406 3.703125 14.570312 3.445312 14.570312 3.132812 L 14.570312 1.171875 C 14.570312 0.851562 14.3125 0.601562 14 0.601562 C 13.6875 0.601562 13.429688 0.859375 13.429688 1.171875 L 13.429688 3.132812 C 13.429688 3.449219 13.683594 3.703125 14 3.703125 Z M 14 3.703125 "/>
<path style=" stroke:none;fill-rule:nonzero;fill:rgb(13.72549%,12.156863%,12.54902%);fill-opacity:1;" d="M 8.691406 5.90625 C 8.914062 5.683594 8.914062 5.320312 8.691406 5.101562 L 7.300781 3.714844 C 7.078125 3.488281 6.714844 3.488281 6.496094 3.714844 C 6.277344 3.9375 6.273438 4.296875 6.496094 4.515625 L 7.886719 5.90625 C 8.109375 6.125 8.472656 6.125 8.691406 5.90625 Z M 8.691406 5.90625 "/>
<path style=" stroke:none;fill-rule:nonzero;fill:rgb(13.72549%,12.156863%,12.54902%);fill-opacity:1;" d="M 24.039062 10.640625 L 22.078125 10.640625 C 21.761719 10.640625 21.507812 10.898438 21.507812 11.210938 C 21.507812 11.523438 21.765625 11.78125 22.078125 11.78125 L 24.039062 11.78125 C 24.359375 11.78125 24.609375 11.523438 24.609375 11.210938 C 24.609375 10.898438 24.351562 10.640625 24.039062 10.640625 Z M 24.039062 10.640625 "/>
<path style=" stroke:none;fill-rule:nonzero;fill:rgb(13.72549%,12.156863%,12.54902%);fill-opacity:1;" d="M 5.921875 10.640625 L 3.960938 10.640625 C 3.640625 10.640625 3.390625 10.898438 3.390625 11.210938 C 3.390625 11.523438 3.648438 11.78125 3.960938 11.78125 L 5.921875 11.78125 C 6.238281 11.78125 6.492188 11.523438 6.492188 11.210938 C 6.492188 10.898438 6.238281 10.640625 5.921875 10.640625 Z M 5.921875 10.640625 "/>
</g>
</svg>
