<?xml version="1.0" encoding="UTF-8"?>
<svg xmlns="http://www.w3.org/2000/svg" xmlns:xlink="http://www.w3.org/1999/xlink" width="28pt" height="27pt" viewBox="0 0 28 27" version="1.1">
<g id="surface1">
<path style=" stroke:none;fill-rule:nonzero;fill:rgb(0%,0%,0%);fill-opacity:1;" d="M 27.515625 18.789062 L 22.832031 22.636719 L 22.832031 24.019531 C 22.832031 24.3125 22.570312 24.515625 22.261719 24.515625 L 19.136719 24.515625 C 18.832031 24.515625 18.570312 24.304688 18.570312 24.019531 L 18.570312 20.921875 C 18.570312 20.757812 18.65625 20.585938 18.789062 20.503906 L 24.515625 17.074219 L 25.082031 9.796875 C 25.082031 9.164062 25.597656 8.664062 26.253906 8.664062 C 26.90625 8.664062 27.425781 9.164062 27.425781 9.75 L 27.992188 17.617188 C 28.035156 18.253906 27.953125 18.457031 27.515625 18.789062 Z M 5.042969 16.078125 L 5.042969 10.636719 C 5.042969 10.089844 5.128906 9.714844 5.390625 9.171875 L 8.167969 3.609375 C 8.472656 2.980469 9.339844 2.441406 10.074219 2.441406 L 17.929688 2.441406 C 18.707031 2.441406 19.582031 2.9375 19.878906 3.609375 L 22.65625 9.171875 C 22.917969 9.71875 23.003906 10.136719 23.003906 10.636719 L 23.003906 16.082031 C 23.003906 16.292969 22.785156 16.5 22.570312 16.5 L 20.359375 16.5 C 20.097656 16.5 19.925781 16.289062 19.925781 16.082031 L 19.925781 14.738281 L 8.121094 14.738281 L 8.121094 16.078125 C 8.121094 16.289062 7.902344 16.496094 7.6875 16.496094 L 5.476562 16.496094 C 5.261719 16.496094 5.042969 16.285156 5.042969 16.078125 Z M 20.097656 10.425781 C 19.320312 10.425781 18.707031 11.058594 18.707031 11.765625 C 18.707031 12.476562 19.316406 13.109375 20.097656 13.109375 C 20.875 13.109375 21.488281 12.523438 21.488281 11.765625 C 21.488281 11.011719 20.875 10.425781 20.097656 10.425781 Z M 7.558594 9.003906 L 20.488281 9.003906 L 18.578125 5.160156 C 18.191406 4.410156 17.84375 4.238281 17.0625 4.238281 L 10.949219 4.238281 C 10.171875 4.238281 9.824219 4.398438 9.476562 5.160156 Z M 6.5625 11.761719 C 6.5625 12.472656 7.167969 13.105469 7.953125 13.105469 C 8.734375 13.105469 9.34375 12.515625 9.34375 11.761719 C 9.34375 11.007812 8.734375 10.421875 7.953125 10.421875 C 7.167969 10.421875 6.5625 11.050781 6.5625 11.761719 Z M 9.25 20.546875 L 3.527344 17.117188 L 2.960938 9.839844 C 3 9.167969 2.445312 8.671875 1.789062 8.671875 C 1.136719 8.671875 0.578125 9.167969 0.578125 9.796875 L 0.0078125 17.664062 C -0.03125 18.296875 0.0507812 18.5 0.484375 18.835938 L 5.171875 22.683594 L 5.171875 24.0625 C 5.171875 24.359375 5.429688 24.5625 5.738281 24.5625 L 8.90625 24.5625 C 9.214844 24.5625 9.476562 24.351562 9.476562 24.0625 L 9.476562 20.964844 C 9.464844 20.800781 9.378906 20.640625 9.25 20.546875 Z M 9.25 20.546875 "/>
</g>
</svg>
