<?xml version="1.0" encoding="UTF-8"?>
<svg xmlns="http://www.w3.org/2000/svg" xmlns:xlink="http://www.w3.org/1999/xlink" width="28pt" height="28pt" viewBox="0 0 28 28" version="1.1">
<g id="surface1">
<path style=" stroke:none;fill-rule:nonzero;fill:rgb(0%,0%,0%);fill-opacity:1;" d="M 13.535156 26.132812 L 14.464844 26.132812 L 14.464844 28 L 13.535156 28 Z M 13.535156 26.132812 "/>
<path style=" stroke:none;fill-rule:nonzero;fill:rgb(0%,0%,0%);fill-opacity:1;" d="M 16.96875 25.097656 L 17.628906 24.4375 L 18.949219 25.757812 L 18.289062 26.417969 Z M 16.96875 25.097656 "/>
<path style=" stroke:none;fill-rule:nonzero;fill:rgb(0%,0%,0%);fill-opacity:1;" d="M 18.667969 21 L 20.535156 21 L 20.535156 21.933594 L 18.667969 21.933594 Z M 18.667969 21 "/>
<path style=" stroke:none;fill-rule:nonzero;fill:rgb(0%,0%,0%);fill-opacity:1;" d="M 16.96875 17.835938 L 18.289062 16.515625 L 18.949219 17.175781 L 17.628906 18.496094 Z M 16.96875 17.835938 "/>
<path style=" stroke:none;fill-rule:nonzero;fill:rgb(0%,0%,0%);fill-opacity:1;" d="M 9.050781 17.175781 L 9.710938 16.515625 L 11.03125 17.835938 L 10.371094 18.496094 Z M 9.050781 17.175781 "/>
<path style=" stroke:none;fill-rule:nonzero;fill:rgb(0%,0%,0%);fill-opacity:1;" d="M 7.464844 21 L 9.332031 21 L 9.332031 21.933594 L 7.464844 21.933594 Z M 7.464844 21 "/>
<path style=" stroke:none;fill-rule:nonzero;fill:rgb(0%,0%,0%);fill-opacity:1;" d="M 9.050781 25.757812 L 10.371094 24.4375 L 11.03125 25.097656 L 9.710938 26.417969 Z M 9.050781 25.757812 "/>
<path style=" stroke:none;fill-rule:nonzero;fill:rgb(0%,0%,0%);fill-opacity:1;" d="M 20.535156 0 L 7.464844 0 C 7.207031 0 7 0.207031 7 0.464844 L 7 2.332031 C 7 2.589844 7.207031 2.800781 7.464844 2.800781 L 13.535156 2.800781 L 13.535156 13.066406 L 12.132812 13.066406 C 11.875 13.066406 11.667969 13.277344 11.667969 13.535156 L 11.667969 17.265625 C 11.667969 17.523438 11.875 17.734375 12.132812 17.734375 L 12.132812 18.238281 C 10.671875 19.082031 9.957031 20.804688 10.394531 22.4375 C 10.832031 24.070312 12.308594 25.203125 14 25.203125 C 15.691406 25.203125 17.167969 24.070312 17.605469 22.4375 C 18.042969 20.804688 17.328125 19.082031 15.867188 18.238281 L 15.867188 17.734375 C 16.125 17.734375 16.332031 17.523438 16.332031 17.265625 L 16.332031 13.535156 C 16.332031 13.277344 16.125 13.066406 15.867188 13.066406 L 14.464844 13.066406 L 14.464844 2.800781 L 20.535156 2.800781 C 20.792969 2.800781 21 2.589844 21 2.332031 L 21 0.464844 C 21 0.207031 20.792969 0 20.535156 0 Z M 15.199219 18.941406 C 16.382812 19.5 17.019531 20.808594 16.730469 22.085938 C 16.445312 23.363281 15.308594 24.269531 14 24.269531 C 12.691406 24.269531 11.554688 23.363281 11.269531 22.085938 C 10.980469 20.808594 11.617188 19.5 12.800781 18.941406 C 12.960938 18.863281 13.066406 18.699219 13.066406 18.519531 L 13.066406 17.734375 L 14.933594 17.734375 L 14.933594 18.519531 C 14.933594 18.699219 15.035156 18.863281 15.199219 18.941406 Z M 15.398438 16.800781 L 12.601562 16.800781 L 12.601562 14 L 15.398438 14 Z M 20.066406 1.867188 L 7.933594 1.867188 L 7.933594 0.933594 L 20.066406 0.933594 Z M 20.066406 1.867188 "/>
</g>
</svg>
