<?xml version="1.0" encoding="UTF-8"?>
<svg xmlns="http://www.w3.org/2000/svg" xmlns:xlink="http://www.w3.org/1999/xlink" width="28pt" height="28pt" viewBox="0 0 28 28" version="1.1">
<g id="surface1">
<path style=" stroke:none;fill-rule:nonzero;fill:rgb(0%,0%,0%);fill-opacity:1;" d="M 22.042969 16.011719 C 21.6875 14.484375 20.324219 13.398438 18.753906 13.398438 L 15.824219 13.398438 L 15.824219 0.589844 C 15.816406 0.269531 15.558594 0.0117188 15.238281 0 L 12.988281 0 C 12.679688 0 12.445312 0.28125 12.445312 0.589844 L 12.445312 13.398438 L 9.292969 13.398438 C 7.722656 13.398438 6.359375 14.484375 6.003906 16.011719 L 4.265625 23.417969 C 4.226562 23.582031 4.265625 23.757812 4.371094 23.890625 C 4.480469 24.023438 4.640625 24.097656 4.8125 24.097656 L 10.476562 24.097656 L 10.476562 24.464844 C 10.476562 26.421875 12.066406 28.011719 14.023438 28.011719 C 15.984375 28.011719 17.570312 26.421875 17.570312 24.464844 L 17.570312 24.097656 L 23.234375 24.097656 C 23.40625 24.101562 23.570312 24.027344 23.675781 23.890625 C 23.785156 23.757812 23.820312 23.582031 23.78125 23.417969 Z M 13.574219 1.125 L 14.699219 1.125 L 14.699219 13.398438 L 13.574219 13.398438 Z M 9.292969 14.527344 L 18.753906 14.527344 C 19.796875 14.523438 20.707031 15.242188 20.941406 16.261719 L 21.066406 16.777344 L 6.980469 16.777344 L 7.105469 16.261719 C 7.339844 15.242188 8.25 14.523438 9.292969 14.527344 Z M 16.445312 24.464844 C 16.445312 25.800781 15.359375 26.886719 14.023438 26.886719 C 12.6875 26.886719 11.601562 25.800781 11.601562 24.464844 L 11.601562 24.097656 L 16.445312 24.097656 Z M 5.523438 22.972656 L 6.714844 17.90625 L 21.332031 17.90625 L 22.523438 22.972656 Z M 5.523438 22.972656 "/>
</g>
</svg>
