<?xml version="1.0" encoding="UTF-8"?>
<svg xmlns="http://www.w3.org/2000/svg" xmlns:xlink="http://www.w3.org/1999/xlink" width="28pt" height="28pt" viewBox="0 0 28 28" version="1.1">
<g id="surface1">
<path style=" stroke:none;fill-rule:nonzero;fill:rgb(0%,0%,0%);fill-opacity:1;" d="M 21.53125 11.207031 C 20.152344 9.757812 18.3125 8.730469 16.261719 8.308594 L 16.261719 7.035156 C 16.261719 6.753906 16.15625 6.46875 15.945312 6.292969 C 15.730469 6.117188 15.484375 5.976562 15.203125 5.976562 L 14.636719 5.976562 L 14.601562 0.53125 C 14.601562 0.210938 14.355469 0 14.070312 0 C 13.753906 0 13.539062 0.246094 13.539062 0.53125 L 13.574219 5.976562 L 13.011719 5.976562 C 12.726562 5.976562 12.445312 6.082031 12.269531 6.292969 C 12.089844 6.503906 11.949219 6.753906 11.949219 7.035156 L 11.949219 8.273438 C 9.792969 8.730469 7.917969 9.757812 6.46875 11.207031 C 4.523438 13.152344 3.359375 15.804688 3.359375 18.773438 C 3.359375 19.089844 3.605469 19.304688 3.890625 19.304688 L 9.546875 19.304688 C 9.6875 20.328125 10.109375 21.246094 10.816406 21.953125 C 11.632812 22.769531 12.761719 23.261719 14 23.261719 C 15.238281 23.261719 16.367188 22.769531 17.183594 21.953125 C 17.890625 21.246094 18.3125 20.328125 18.453125 19.304688 L 24.109375 19.304688 C 24.429688 19.304688 24.640625 19.054688 24.640625 18.773438 C 24.640625 15.839844 23.4375 13.152344 21.53125 11.207031 Z M 12.976562 7.070312 L 15.167969 7.070312 L 15.167969 8.132812 C 15.132812 8.132812 15.132812 8.132812 15.097656 8.132812 C 15.023438 8.132812 14.988281 8.132812 14.917969 8.132812 C 14.636719 8.097656 14.316406 8.097656 14.035156 8.097656 C 13.753906 8.0625 13.46875 8.097656 13.1875 8.097656 C 13.117188 8.097656 13.046875 8.097656 12.976562 8.132812 Z M 16.4375 21.175781 C 15.804688 21.8125 14.953125 22.167969 14.035156 22.167969 C 13.082031 22.167969 12.230469 21.777344 11.632812 21.175781 C 11.136719 20.683594 10.78125 20.046875 10.675781 19.304688 L 17.429688 19.304688 C 17.289062 20.011719 16.96875 20.683594 16.4375 21.175781 Z M 17.996094 18.207031 L 4.453125 18.207031 C 4.597656 15.769531 5.621094 13.574219 7.246094 11.984375 C 8.730469 10.5 10.675781 9.511719 12.867188 9.261719 C 12.9375 9.261719 13.046875 9.226562 13.117188 9.226562 C 13.398438 9.191406 13.71875 9.191406 14 9.191406 C 14.316406 9.191406 14.601562 9.191406 14.917969 9.226562 C 14.988281 9.226562 15.097656 9.261719 15.167969 9.261719 C 17.359375 9.511719 19.304688 10.5 20.789062 11.984375 C 22.414062 13.609375 23.4375 15.769531 23.582031 18.207031 Z M 17.996094 18.207031 "/>
<path style=" stroke:none;fill-rule:nonzero;fill:rgb(0%,0%,0%);fill-opacity:1;" d="M 14.035156 24.003906 C 13.71875 24.003906 13.503906 24.253906 13.503906 24.535156 L 13.503906 27.46875 C 13.503906 27.789062 13.753906 28 14.035156 28 C 14.355469 28 14.566406 27.753906 14.566406 27.46875 L 14.566406 24.535156 C 14.566406 24.21875 14.355469 24.003906 14.035156 24.003906 Z M 14.035156 24.003906 "/>
<path style=" stroke:none;fill-rule:nonzero;fill:rgb(0%,0%,0%);fill-opacity:1;" d="M 18.878906 26.019531 L 17.394531 23.476562 C 17.253906 23.226562 16.898438 23.121094 16.652344 23.261719 C 16.402344 23.402344 16.296875 23.757812 16.4375 24.003906 L 17.925781 26.550781 C 18.066406 26.796875 18.417969 26.902344 18.667969 26.761719 C 18.914062 26.621094 19.019531 26.269531 18.878906 26.019531 Z M 18.878906 26.019531 "/>
<path style=" stroke:none;fill-rule:nonzero;fill:rgb(0%,0%,0%);fill-opacity:1;" d="M 21.847656 22.660156 L 19.304688 21.175781 C 19.054688 21.035156 18.703125 21.105469 18.5625 21.390625 C 18.417969 21.636719 18.488281 21.988281 18.773438 22.132812 L 21.316406 23.617188 C 21.566406 23.757812 21.917969 23.6875 22.0625 23.402344 C 22.203125 23.15625 22.132812 22.804688 21.847656 22.660156 Z M 21.847656 22.660156 "/>
<path style=" stroke:none;fill-rule:nonzero;fill:rgb(0%,0%,0%);fill-opacity:1;" d="M 9.511719 21.390625 C 9.367188 21.140625 9.015625 21.035156 8.769531 21.175781 L 6.222656 22.660156 C 5.976562 22.804688 5.867188 23.15625 6.011719 23.402344 C 6.152344 23.652344 6.503906 23.757812 6.753906 23.617188 L 9.296875 22.132812 C 9.546875 21.953125 9.652344 21.636719 9.511719 21.390625 Z M 9.511719 21.390625 "/>
<path style=" stroke:none;fill-rule:nonzero;fill:rgb(0%,0%,0%);fill-opacity:1;" d="M 11.417969 23.261719 C 11.171875 23.121094 10.816406 23.226562 10.675781 23.476562 L 9.191406 26.019531 C 9.050781 26.269531 9.121094 26.621094 9.402344 26.761719 C 9.652344 26.902344 10.003906 26.832031 10.144531 26.550781 L 11.632812 24.003906 C 11.773438 23.757812 11.703125 23.402344 11.417969 23.261719 Z M 11.417969 23.261719 "/>
</g>
</svg>
