<?xml version="1.0" encoding="UTF-8"?>
<svg xmlns="http://www.w3.org/2000/svg" xmlns:xlink="http://www.w3.org/1999/xlink" width="28pt" height="28pt" viewBox="0 0 28 28" version="1.1">
<g id="surface1">
<path style=" stroke:none;fill-rule:nonzero;fill:rgb(0%,0%,0%);fill-opacity:1;" d="M 27.535156 1.867188 L 0.464844 1.867188 C 0.210938 1.867188 0 2.074219 0 2.332031 C 0 2.589844 0.210938 2.800781 0.464844 2.800781 L 27.535156 2.800781 C 27.792969 2.800781 28 2.589844 28 2.332031 C 28 2.074219 27.792969 1.867188 27.535156 1.867188 Z M 27.535156 1.867188 "/>
<path style=" stroke:none;fill-rule:nonzero;fill:rgb(0%,0%,0%);fill-opacity:1;" d="M 14 1.867188 C 13.742188 1.867188 13.535156 2.074219 13.535156 2.332031 L 13.535156 7 C 13.535156 7.257812 13.742188 7.464844 14 7.464844 C 14.257812 7.464844 14.464844 7.257812 14.464844 7 L 14.464844 2.332031 C 14.464844 2.074219 14.257812 1.867188 14 1.867188 Z M 14 1.867188 "/>
<path style=" stroke:none;fill-rule:nonzero;fill:rgb(0%,0%,0%);fill-opacity:1;" d="M 27.789062 20.609375 L 17.054688 13.609375 C 16.980469 13.558594 16.890625 13.535156 16.800781 13.535156 L 11.199219 13.535156 C 11.109375 13.535156 11.019531 13.558594 10.945312 13.609375 L 0.210938 20.609375 C 0.078125 20.695312 0 20.84375 0 21 L 0 23.332031 C 0 23.589844 0.210938 23.800781 0.464844 23.800781 L 27.535156 23.800781 C 27.792969 23.800781 28 23.589844 28 23.332031 L 28 21 C 28 20.84375 27.921875 20.695312 27.789062 20.609375 Z M 27.066406 22.867188 L 0.933594 22.867188 L 0.933594 21.253906 L 11.339844 14.464844 L 16.660156 14.464844 L 27.066406 21.253906 Z M 27.066406 22.867188 "/>
<path style=" stroke:none;fill-rule:nonzero;fill:rgb(0%,0%,0%);fill-opacity:1;" d="M 27.535156 20.535156 L 0.464844 20.535156 C 0.210938 20.535156 0 20.742188 0 21 L 0 23.332031 C 0 23.589844 0.210938 23.800781 0.464844 23.800781 L 27.535156 23.800781 C 27.792969 23.800781 28 23.589844 28 23.332031 L 28 21 C 28 20.742188 27.792969 20.535156 27.535156 20.535156 Z M 27.066406 22.867188 L 0.933594 22.867188 L 0.933594 21.464844 L 27.066406 21.464844 Z M 27.066406 22.867188 "/>
<path style=" stroke:none;fill-rule:nonzero;fill:rgb(0%,0%,0%);fill-opacity:1;" d="M 16.332031 22.867188 L 11.667969 22.867188 C 11.410156 22.867188 11.199219 23.074219 11.199219 23.332031 C 11.199219 24.878906 12.457031 26.132812 14 26.132812 C 15.542969 26.132812 16.800781 24.878906 16.800781 23.332031 C 16.800781 23.074219 16.589844 22.867188 16.332031 22.867188 Z M 14 25.199219 C 13.132812 25.199219 12.398438 24.605469 12.191406 23.800781 L 15.808594 23.800781 C 15.601562 24.605469 14.867188 25.199219 14 25.199219 Z M 14 25.199219 "/>
<path style=" stroke:none;fill-rule:nonzero;fill:rgb(0%,0%,0%);fill-opacity:1;" d="M 14 6.535156 C 12.078125 6.535156 10.734375 8.261719 10.734375 10.734375 L 10.734375 14 C 10.734375 14.257812 10.941406 14.464844 11.199219 14.464844 L 16.800781 14.464844 C 17.058594 14.464844 17.265625 14.257812 17.265625 14 L 17.265625 10.734375 C 17.265625 8.261719 15.921875 6.535156 14 6.535156 Z M 16.332031 13.535156 L 11.667969 13.535156 L 11.667969 10.734375 C 11.667969 8.808594 12.625 7.464844 14 7.464844 C 15.375 7.464844 16.332031 8.808594 16.332031 10.734375 Z M 16.332031 13.535156 "/>
</g>
</svg>
