<?xml version="1.0" encoding="UTF-8"?>
<svg xmlns="http://www.w3.org/2000/svg" xmlns:xlink="http://www.w3.org/1999/xlink" width="28pt" height="28pt" viewBox="0 0 28 28" version="1.1">
<g id="surface1">
<path style=" stroke:none;fill-rule:nonzero;fill:rgb(0%,0%,0%);fill-opacity:1;" d="M 22.867188 12.367188 L 16.800781 12.367188 L 16.800781 9.566406 L 14.464844 9.566406 L 14.464844 0.699219 L 13.535156 0.699219 L 13.535156 9.566406 L 11.199219 9.566406 L 11.199219 12.367188 L 5.132812 12.367188 C 2.296875 12.367188 0 14.664062 0 17.5 L 0 17.964844 L 10.734375 17.964844 L 10.734375 20.300781 C 10.734375 22.105469 12.195312 23.566406 14 23.566406 C 15.804688 23.566406 17.265625 22.105469 17.265625 20.300781 L 17.265625 17.964844 L 28 17.964844 L 28 17.5 C 28 14.664062 25.703125 12.367188 22.867188 12.367188 Z M 12.132812 10.5 L 15.867188 10.5 L 15.867188 12.367188 L 12.132812 12.367188 Z M 16.332031 20.300781 C 16.332031 21.589844 15.289062 22.632812 14 22.632812 C 12.710938 22.632812 11.667969 21.589844 11.667969 20.300781 L 11.667969 17.964844 L 16.332031 17.964844 Z M 0.960938 17.035156 C 1.199219 14.910156 2.996094 13.300781 5.132812 13.300781 L 22.867188 13.300781 C 25.003906 13.300781 26.800781 14.910156 27.039062 17.035156 Z M 0.960938 17.035156 "/>
<path style=" stroke:none;fill-rule:nonzero;fill:rgb(0%,0%,0%);fill-opacity:1;" d="M 13.535156 25.433594 L 14.464844 25.433594 L 14.464844 27.300781 L 13.535156 27.300781 Z M 13.535156 25.433594 "/>
<path style=" stroke:none;fill-rule:nonzero;fill:rgb(0%,0%,0%);fill-opacity:1;" d="M 7.601562 24.636719 L 9.46875 22.769531 L 10.128906 23.429688 L 8.261719 25.296875 Z M 7.601562 24.636719 "/>
<path style=" stroke:none;fill-rule:nonzero;fill:rgb(0%,0%,0%);fill-opacity:1;" d="M 17.867188 23.429688 L 18.527344 22.769531 L 20.394531 24.640625 L 19.734375 25.300781 Z M 17.867188 23.429688 "/>
<path style=" stroke:none;fill-rule:nonzero;fill:rgb(0%,0%,0%);fill-opacity:1;" d="M 12.601562 19.367188 L 13.535156 19.367188 L 13.535156 21.234375 L 12.601562 21.234375 Z M 12.601562 19.367188 "/>
</g>
</svg>
