<?xml version="1.0" encoding="UTF-8"?>
<svg xmlns="http://www.w3.org/2000/svg" xmlns:xlink="http://www.w3.org/1999/xlink" width="28pt" height="28pt" viewBox="0 0 28 28" version="1.1">
<g id="surface1">
<path style=" stroke:none;fill-rule:nonzero;fill:rgb(0%,0%,0%);fill-opacity:1;" d="M 14 20.78125 C 16.382812 20.78125 18.320312 18.84375 18.320312 16.460938 C 18.320312 14.078125 16.382812 12.140625 14 12.140625 C 11.617188 12.140625 9.679688 14.078125 9.679688 16.460938 C 9.679688 18.84375 11.617188 20.78125 14 20.78125 Z M 14 20.78125 "/>
<path style=" stroke:none;fill-rule:nonzero;fill:rgb(0%,0%,0%);fill-opacity:1;" d="M 4.132812 0 L 4.132812 5.570312 L 23.867188 5.570312 L 23.867188 0 Z M 18.667969 3.535156 L 16.988281 3.535156 L 16.988281 1.851562 L 18.667969 1.851562 Z M 21.566406 3.535156 L 19.886719 3.535156 L 19.886719 1.851562 L 21.566406 1.851562 Z M 21.566406 3.535156 "/>
<path style=" stroke:none;fill-rule:nonzero;fill:rgb(0%,0%,0%);fill-opacity:1;" d="M 4.132812 28 L 23.867188 28 L 23.867188 7.210938 L 4.132812 7.210938 Z M 14 10.5 C 17.285156 10.5 19.960938 13.171875 19.960938 16.460938 C 19.960938 19.746094 17.289062 22.421875 14 22.421875 C 10.710938 22.421875 8.039062 19.746094 8.039062 16.460938 C 8.039062 13.171875 10.710938 10.5 14 10.5 Z M 14 10.5 "/>
</g>
</svg>
