<?xml version="1.0" encoding="UTF-8"?>
<svg xmlns="http://www.w3.org/2000/svg" xmlns:xlink="http://www.w3.org/1999/xlink" width="14pt" height="14pt" viewBox="0 0 14 14" version="1.1">
<g id="surface1">
<path style=" stroke:none;fill-rule:nonzero;fill:rgb(0%,0%,0%);fill-opacity:1;" d="M 7 10.390625 C 8.191406 10.390625 9.160156 9.421875 9.160156 8.230469 C 9.160156 7.039062 8.191406 6.070312 7 6.070312 C 5.808594 6.070312 4.839844 7.039062 4.839844 8.230469 C 4.839844 9.421875 5.808594 10.390625 7 10.390625 Z M 7 10.390625 "/>
<path style=" stroke:none;fill-rule:nonzero;fill:rgb(0%,0%,0%);fill-opacity:1;" d="M 2.066406 0 L 2.066406 2.785156 L 11.933594 2.785156 L 11.933594 0 Z M 9.335938 1.765625 L 8.492188 1.765625 L 8.492188 0.925781 L 9.335938 0.925781 Z M 10.78125 1.765625 L 9.945312 1.765625 L 9.945312 0.925781 L 10.78125 0.925781 Z M 10.78125 1.765625 "/>
<path style=" stroke:none;fill-rule:nonzero;fill:rgb(0%,0%,0%);fill-opacity:1;" d="M 2.066406 14 L 11.933594 14 L 11.933594 3.605469 L 2.066406 3.605469 Z M 7 5.25 C 8.640625 5.25 9.980469 6.585938 9.980469 8.230469 C 9.980469 9.875 8.644531 11.210938 7 11.210938 C 5.355469 11.210938 4.019531 9.875 4.019531 8.230469 C 4.019531 6.585938 5.355469 5.25 7 5.25 Z M 7 5.25 "/>
</g>
</svg>
