<?xml version="1.0" encoding="UTF-8"?>
<svg xmlns="http://www.w3.org/2000/svg" xmlns:xlink="http://www.w3.org/1999/xlink" width="14pt" height="14pt" viewBox="0 0 14 14" version="1.1">
<g id="surface1">
<path style=" stroke:none;fill-rule:evenodd;fill:rgb(0%,0%,0%);fill-opacity:1;" d="M 3.289062 13.046875 C 3.289062 13.046875 3.5 14 4.574219 14 L 9.425781 14 C 10.5 14 10.710938 13.046875 10.710938 13.046875 L 11.664062 3.734375 L 2.335938 3.734375 Z M 8.867188 5.132812 C 8.867188 4.875 9.078125 4.664062 9.335938 4.664062 C 9.59375 4.664062 9.800781 4.875 9.800781 5.132812 L 9.335938 12.132812 C 9.335938 12.390625 9.125 12.601562 8.867188 12.601562 C 8.609375 12.601562 8.398438 12.390625 8.398438 12.132812 Z M 6.53125 5.132812 C 6.53125 4.875 6.742188 4.664062 7 4.664062 C 7.257812 4.664062 7.46875 4.875 7.46875 5.132812 L 7.46875 12.132812 C 7.46875 12.390625 7.257812 12.601562 7 12.601562 C 6.742188 12.601562 6.53125 12.390625 6.53125 12.132812 Z M 4.664062 4.664062 C 4.921875 4.664062 5.132812 4.875 5.132812 5.132812 L 5.601562 12.132812 C 5.601562 12.390625 5.390625 12.601562 5.132812 12.601562 C 4.875 12.601562 4.664062 12.390625 4.664062 12.132812 L 4.199219 5.132812 C 4.199219 4.875 4.40625 4.664062 4.664062 4.664062 Z M 11.386719 1.867188 L 9.335938 1.867188 L 9.335938 0.933594 C 9.335938 0.226562 9.101562 0 8.398438 0 L 5.601562 0 C 4.953125 0 4.664062 0.3125 4.664062 0.933594 L 4.664062 1.867188 L 2.613281 1.867188 C 2.203125 1.867188 1.867188 2.179688 1.867188 2.570312 C 1.867188 2.953125 2.203125 3.265625 2.613281 3.265625 L 11.386719 3.265625 C 11.796875 3.265625 12.132812 2.953125 12.132812 2.570312 C 12.132812 2.179688 11.796875 1.867188 11.386719 1.867188 Z M 8.398438 1.867188 L 5.601562 1.867188 L 5.601562 0.933594 L 8.398438 0.933594 Z M 8.398438 1.867188 "/>
</g>
</svg>
