<?xml version="1.0" encoding="UTF-8"?>
<svg xmlns="http://www.w3.org/2000/svg" xmlns:xlink="http://www.w3.org/1999/xlink" width="28pt" height="28pt" viewBox="0 0 28 28" version="1.1">
<g id="surface1">
<path style=" stroke:none;fill-rule:nonzero;fill:rgb(0%,0%,0%);fill-opacity:1;" d="M 24.113281 2.921875 L 22.140625 2.921875 C 22.183594 2.695312 22.164062 2.457031 22.082031 2.234375 C 21.960938 1.910156 21.722656 1.65625 21.410156 1.515625 L 18.328125 0.113281 C 18.160156 0.0390625 17.980469 0 17.796875 0 C 17.425781 0 17.078125 0.164062 16.835938 0.433594 L 11.164062 0.433594 C 10.921875 0.164062 10.574219 0 10.203125 0 C 10.019531 0 9.839844 0.0390625 9.671875 0.113281 L 6.589844 1.515625 C 6.277344 1.65625 6.039062 1.910156 5.917969 2.234375 C 5.835938 2.457031 5.816406 2.695312 5.859375 2.921875 L 3.886719 2.921875 C 2.945312 2.921875 2.179688 3.6875 2.179688 4.628906 L 2.179688 26.292969 C 2.179688 27.234375 2.945312 28 3.886719 28 L 24.113281 28 C 25.054688 28 25.820312 27.234375 25.820312 26.292969 L 25.820312 4.628906 C 25.820312 3.6875 25.054688 2.921875 24.113281 2.921875 Z M 17.621094 1.203125 C 17.660156 1.121094 17.742188 1.09375 17.796875 1.09375 C 17.824219 1.09375 17.851562 1.097656 17.875 1.109375 L 20.957031 2.511719 C 21.019531 2.539062 21.046875 2.589844 21.058594 2.617188 C 21.066406 2.644531 21.082031 2.703125 21.054688 2.761719 L 18.003906 9.480469 C 17.964844 9.5625 17.886719 9.589844 17.828125 9.589844 C 17.800781 9.589844 17.777344 9.585938 17.75 9.574219 L 14.667969 8.171875 C 14.605469 8.144531 14.578125 8.09375 14.570312 8.066406 C 14.558594 8.039062 14.546875 7.984375 14.574219 7.921875 Z M 15.925781 11.816406 L 12.195312 11.816406 L 11.363281 10.265625 L 13.785156 9.167969 C 13.863281 9.132812 13.933594 9.089844 14 9.042969 C 14.066406 9.09375 14.140625 9.132812 14.214844 9.167969 L 16.746094 10.316406 Z M 16.96875 21.347656 L 14.339844 24.640625 L 11.355469 21.339844 L 12.355469 12.914062 L 15.773438 12.910156 Z M 16.277344 1.527344 L 14 6.539062 L 11.722656 1.527344 Z M 6.941406 2.617188 C 6.953125 2.589844 6.980469 2.539062 7.042969 2.511719 L 10.125 1.109375 C 10.148438 1.097656 10.175781 1.09375 10.203125 1.09375 C 10.257812 1.09375 10.339844 1.121094 10.378906 1.203125 L 13.425781 7.921875 C 13.46875 8.015625 13.425781 8.128906 13.332031 8.171875 L 10.25 9.574219 C 10.222656 9.585938 10.199219 9.589844 10.171875 9.589844 C 10.113281 9.589844 10.035156 9.5625 9.996094 9.480469 L 6.945312 2.761719 C 6.917969 2.699219 6.933594 2.644531 6.941406 2.617188 Z M 24.113281 26.90625 L 21.914062 26.90625 L 21.914062 22.441406 C 21.914062 22.140625 21.667969 21.894531 21.367188 21.894531 C 21.066406 21.894531 20.820312 22.140625 20.820312 22.441406 L 20.820312 26.90625 L 8.5 26.90625 L 8.5 22.34375 C 8.5 22.042969 8.253906 21.796875 7.953125 21.796875 C 7.648438 21.796875 7.40625 22.042969 7.40625 22.34375 L 7.40625 26.90625 L 3.886719 26.90625 C 3.550781 26.90625 3.273438 26.632812 3.273438 26.292969 L 3.273438 4.628906 C 3.273438 4.292969 3.550781 4.015625 3.886719 4.015625 L 6.316406 4.015625 L 9 9.929688 C 9.207031 10.386719 9.667969 10.683594 10.171875 10.683594 C 10.230469 10.683594 10.285156 10.679688 10.339844 10.671875 L 11.304688 12.472656 L 10.242188 21.457031 C 10.222656 21.617188 10.273438 21.773438 10.378906 21.890625 L 13.960938 25.851562 C 14.066406 25.96875 14.210938 26.035156 14.367188 26.035156 C 14.371094 26.035156 14.378906 26.035156 14.382812 26.035156 C 14.542969 26.027344 14.695312 25.953125 14.792969 25.828125 L 17.96875 21.847656 C 18.0625 21.730469 18.105469 21.578125 18.085938 21.429688 L 16.816406 12.464844 L 17.792969 10.683594 C 17.804688 10.683594 17.816406 10.683594 17.828125 10.683594 C 18.332031 10.683594 18.792969 10.386719 19 9.929688 L 21.683594 4.015625 L 24.113281 4.015625 C 24.449219 4.015625 24.726562 4.292969 24.726562 4.628906 L 24.726562 26.292969 C 24.726562 26.632812 24.449219 26.90625 24.113281 26.90625 Z M 24.113281 26.90625 "/>
<path style=" stroke:none;fill-rule:nonzero;fill:rgb(0%,0%,0%);fill-opacity:1;" d="M 7.953125 20.109375 C 7.648438 20.109375 7.40625 20.355469 7.40625 20.65625 L 7.40625 20.695312 C 7.40625 20.996094 7.648438 21.242188 7.953125 21.242188 C 8.253906 21.242188 8.5 20.996094 8.5 20.695312 L 8.5 20.65625 C 8.5 20.355469 8.253906 20.109375 7.953125 20.109375 Z M 7.953125 20.109375 "/>
<path style=" stroke:none;fill-rule:nonzero;fill:rgb(0%,0%,0%);fill-opacity:1;" d="M 21.367188 20.207031 C 21.066406 20.207031 20.820312 20.449219 20.820312 20.753906 L 20.820312 20.792969 C 20.820312 21.09375 21.066406 21.339844 21.367188 21.339844 C 21.667969 21.339844 21.914062 21.09375 21.914062 20.792969 L 21.914062 20.753906 C 21.914062 20.449219 21.667969 20.207031 21.367188 20.207031 Z M 21.367188 20.207031 "/>
</g>
</svg>
