<?xml version="1.0" encoding="UTF-8"?>
<svg xmlns="http://www.w3.org/2000/svg" xmlns:xlink="http://www.w3.org/1999/xlink" width="14pt" height="14pt" viewBox="0 0 14 14" version="1.1">
<g id="surface1">
<path style=" stroke:none;fill-rule:nonzero;fill:rgb(0%,0%,0%);fill-opacity:1;" d="M 11.664062 7.164062 L 11.148438 6.648438 C 12.835938 4.957031 12.835938 2.207031 11.148438 0.515625 L 11.664062 0 C 13.640625 1.976562 13.640625 5.191406 11.664062 7.164062 Z M 10.25 5.753906 L 10.765625 6.273438 C 12.25 4.789062 12.25 2.375 10.765625 0.894531 L 10.25 1.414062 C 11.445312 2.609375 11.445312 4.554688 10.25 5.753906 Z M 9.84375 5.347656 C 10.820312 4.375 10.820312 2.789062 9.84375 1.820312 L 9.328125 2.335938 C 10.015625 3.023438 10.015625 4.140625 9.328125 4.828125 Z M 3.039062 0.515625 L 2.523438 0 C 0.546875 1.976562 0.546875 5.191406 2.523438 7.164062 L 3.039062 6.648438 C 1.347656 4.960938 1.351562 2.207031 3.039062 0.515625 Z M 3.414062 6.273438 L 3.933594 5.753906 C 2.734375 4.554688 2.734375 2.609375 3.933594 1.414062 L 3.414062 0.894531 C 1.933594 2.375 1.933594 4.789062 3.414062 6.273438 Z M 4.339844 5.347656 L 4.859375 4.828125 C 4.167969 4.140625 4.167969 3.023438 4.859375 2.335938 L 4.339844 1.820312 C 3.367188 2.789062 3.367188 4.375 4.339844 5.347656 Z M 10.070312 12.664062 L 8.289062 12.664062 L 7.21875 4.953125 C 7.71875 4.886719 8.101562 4.46875 8.101562 3.953125 C 8.101562 3.394531 7.648438 2.941406 7.09375 2.941406 C 6.53125 2.941406 6.078125 3.394531 6.078125 3.953125 C 6.078125 4.46875 6.46875 4.886719 6.960938 4.953125 L 5.898438 12.664062 L 4.117188 12.664062 C 3.695312 12.664062 3.355469 13.003906 3.355469 13.421875 C 3.355469 13.84375 3.695312 14.1875 4.117188 14.1875 L 10.070312 14.1875 C 10.488281 14.1875 10.828125 13.84375 10.828125 13.421875 C 10.828125 13.003906 10.488281 12.664062 10.070312 12.664062 Z M 10.070312 12.664062 "/>
</g>
</svg>
