<?xml version="1.0" encoding="UTF-8"?>
<svg xmlns="http://www.w3.org/2000/svg" xmlns:xlink="http://www.w3.org/1999/xlink" width="28pt" height="28pt" viewBox="0 0 28 28" version="1.1">
<g id="surface1">
<path style=" stroke:none;fill-rule:nonzero;fill:rgb(0%,0%,0%);fill-opacity:1;" d="M 13.179688 9.835938 L 15.492188 14.921875 C 15.609375 15.179688 15.84375 15.363281 16.117188 15.414062 C 16.394531 15.460938 16.679688 15.375 16.878906 15.175781 L 26.121094 5.925781 C 26.320312 5.726562 26.40625 5.445312 26.359375 5.167969 C 26.308594 4.890625 26.125 4.65625 25.871094 4.539062 L 20.785156 2.226562 C 20.316406 2.011719 19.101562 1.460938 18.128906 2.265625 L 16.878906 1.015625 C 16.222656 0.359375 15.351562 0 14.421875 0 C 13.492188 0 12.621094 0.359375 11.96875 1.015625 C 10.757812 2.222656 10.628906 4.113281 11.582031 5.464844 L 1.878906 15.175781 C 1.546875 15.507812 1.546875 16.050781 1.878906 16.386719 L 11.414062 25.925781 L 11.414062 26.285156 L 7.703125 26.285156 C 7.230469 26.285156 6.847656 26.667969 6.847656 27.144531 C 6.847656 27.617188 7.230469 28 7.703125 28 L 16.839844 28 C 17.3125 28 17.695312 27.617188 17.695312 27.144531 C 17.695312 26.667969 17.3125 26.285156 16.839844 26.285156 L 13.128906 26.285156 L 13.128906 25.570312 C 13.128906 25.34375 13.039062 25.125 12.878906 24.964844 L 3.699219 15.78125 L 12.757812 6.714844 L 13.21875 7.175781 C 12.414062 8.152344 12.964844 9.367188 13.179688 9.835938 Z M 19.1875 3.613281 C 19.230469 3.570312 19.347656 3.457031 20.074219 3.789062 L 24.035156 5.589844 L 16.539062 13.085938 L 14.742188 9.128906 C 14.410156 8.394531 14.523438 8.28125 14.566406 8.238281 Z M 13.179688 4.714844 C 12.496094 4.027344 12.496094 2.910156 13.179688 2.226562 C 13.511719 1.894531 13.953125 1.714844 14.421875 1.714844 C 14.894531 1.714844 15.335938 1.894531 15.664062 2.226562 L 16.910156 3.46875 L 14.421875 5.957031 Z M 13.179688 4.714844 "/>
</g>
</svg>
