<?xml version="1.0" encoding="UTF-8"?>
<svg xmlns="http://www.w3.org/2000/svg" xmlns:xlink="http://www.w3.org/1999/xlink" width="28pt" height="28pt" viewBox="0 0 28 28" version="1.1">
<g id="surface1">
<path style=" stroke:none;fill-rule:nonzero;fill:rgb(0%,0%,0%);fill-opacity:1;" d="M 27.441406 22.9375 L 25.632812 22.9375 L 25.632812 21.867188 C 25.632812 21.558594 25.382812 21.308594 25.074219 21.308594 L 23.6875 21.308594 L 23.691406 21.003906 C 23.695312 20.121094 24.039062 19.292969 24.660156 18.664062 C 25.488281 17.824219 25.949219 16.707031 25.949219 15.523438 L 25.949219 8.636719 C 26.585938 8.460938 27.054688 7.878906 27.054688 7.1875 C 27.054688 6.355469 26.378906 5.683594 25.546875 5.683594 L 24.148438 5.683594 C 23.214844 2.988281 20.652344 1.050781 17.648438 1.050781 L 6.878906 1.050781 C 3.085938 1.050781 0 4.136719 0 7.933594 L 0 9.34375 C 0 9.652344 0.25 9.902344 0.558594 9.902344 L 23.96875 9.902344 C 24.277344 9.902344 24.527344 9.652344 24.527344 9.34375 L 24.527344 8.691406 L 24.832031 8.691406 L 24.832031 15.523438 C 24.832031 16.414062 24.488281 17.25 23.863281 17.878906 C 23.039062 18.714844 22.582031 19.820312 22.574219 20.996094 L 22.574219 21.308594 L 21.234375 21.308594 C 20.925781 21.308594 20.675781 21.558594 20.675781 21.867188 L 20.675781 22.9375 L 18.867188 22.9375 C 18.558594 22.9375 18.308594 23.1875 18.308594 23.496094 L 18.308594 26.390625 C 18.308594 26.699219 18.558594 26.949219 18.867188 26.949219 L 27.441406 26.949219 C 27.75 26.949219 28 26.699219 28 26.390625 L 28 23.496094 C 28 23.1875 27.75 22.9375 27.441406 22.9375 Z M 1.117188 8.785156 L 1.117188 7.933594 C 1.117188 4.753906 3.703125 2.167969 6.878906 2.167969 L 17.648438 2.167969 C 20.828125 2.167969 23.410156 4.753906 23.410156 7.933594 L 23.410156 8.785156 Z M 24.519531 7.574219 C 24.503906 7.3125 24.476562 7.054688 24.433594 6.796875 L 25.546875 6.796875 C 25.761719 6.796875 25.9375 6.972656 25.9375 7.1875 C 25.9375 7.402344 25.761719 7.574219 25.546875 7.574219 Z M 21.792969 22.421875 L 24.515625 22.421875 L 24.515625 22.9375 L 21.792969 22.9375 Z M 26.882812 25.832031 L 19.425781 25.832031 L 19.425781 24.054688 L 26.882812 24.054688 Z M 26.882812 25.832031 "/>
<path style=" stroke:none;fill-rule:nonzero;fill:rgb(0%,0%,0%);fill-opacity:1;" d="M 8.765625 7.101562 L 8.554688 7.101562 C 8.246094 7.101562 7.996094 7.351562 7.996094 7.660156 C 7.996094 7.96875 8.246094 8.21875 8.554688 8.21875 L 8.765625 8.21875 C 9.074219 8.21875 9.324219 7.96875 9.324219 7.660156 C 9.324219 7.351562 9.074219 7.101562 8.765625 7.101562 Z M 8.765625 7.101562 "/>
<path style=" stroke:none;fill-rule:nonzero;fill:rgb(0%,0%,0%);fill-opacity:1;" d="M 6.820312 7.101562 L 2.453125 7.101562 C 2.144531 7.101562 1.894531 7.351562 1.894531 7.660156 C 1.894531 7.96875 2.144531 8.21875 2.453125 8.21875 L 6.820312 8.21875 C 7.125 8.21875 7.375 7.96875 7.375 7.660156 C 7.375 7.351562 7.125 7.101562 6.820312 7.101562 Z M 6.820312 7.101562 "/>
</g>
</svg>
