<?xml version="1.0" encoding="UTF-8"?>
<svg xmlns="http://www.w3.org/2000/svg" xmlns:xlink="http://www.w3.org/1999/xlink" width="28pt" height="28pt" viewBox="0 0 28 28" version="1.1">
<g id="surface1">
<path style=" stroke:none;fill-rule:nonzero;fill:rgb(0%,0%,0%);fill-opacity:1;" d="M 27.753906 26.570312 L 20.949219 19.769531 C 22.777344 17.667969 23.878906 14.929688 23.878906 11.9375 C 23.878906 5.351562 18.523438 0 11.941406 0 C 5.355469 0 0.00390625 5.359375 0.00390625 11.9375 C 0.00390625 18.519531 5.359375 23.878906 11.941406 23.878906 C 14.933594 23.878906 17.671875 22.773438 19.769531 20.945312 L 26.574219 27.75 C 26.738281 27.914062 26.953125 28 27.164062 28 C 27.375 28 27.59375 27.917969 27.753906 27.75 C 28.078125 27.429688 28.078125 26.894531 27.753906 26.570312 Z M 1.671875 11.9375 C 1.671875 6.277344 6.28125 1.675781 11.9375 1.675781 C 17.597656 1.675781 22.199219 6.28125 22.199219 11.9375 C 22.199219 17.59375 17.597656 22.207031 11.9375 22.207031 C 6.28125 22.207031 1.671875 17.601562 1.671875 11.9375 Z M 1.671875 11.9375 "/>
</g>
</svg>
