<?xml version="1.0" encoding="UTF-8"?>
<svg xmlns="http://www.w3.org/2000/svg" xmlns:xlink="http://www.w3.org/1999/xlink" width="28pt" height="28pt" viewBox="0 0 28 28" version="1.1">
<g id="surface1">
<path style=" stroke:none;fill-rule:nonzero;fill:rgb(0%,0%,0%);fill-opacity:1;" d="M 23.332031 14 C 23.589844 14 23.800781 13.792969 23.800781 13.535156 L 23.800781 7 L 27.535156 7 C 27.792969 7 28 6.792969 28 6.535156 L 28 4.667969 C 27.996094 4.648438 27.996094 4.632812 27.988281 4.617188 C 27.988281 4.582031 27.980469 4.546875 27.96875 4.515625 C 27.960938 4.492188 27.949219 4.46875 27.9375 4.449219 C 27.894531 4.367188 27.832031 4.300781 27.75 4.261719 C 27.726562 4.246094 27.703125 4.238281 27.679688 4.226562 C 27.664062 4.222656 27.652344 4.214844 27.640625 4.210938 L 9.90625 0.0117188 C 9.871094 0.00390625 9.835938 0 9.800781 0 L 7.933594 0 C 7.878906 0 7.824219 0.0117188 7.773438 0.03125 C 7.757812 0.0390625 7.75 0.0429688 7.734375 0.046875 C 7.722656 0.0507812 7.714844 0.0546875 7.703125 0.0585938 L 0.238281 4.257812 C 0.214844 4.273438 0.191406 4.292969 0.171875 4.3125 C 0.15625 4.324219 0.144531 4.335938 0.128906 4.347656 C 0.0898438 4.386719 0.0585938 4.433594 0.0351562 4.484375 L 0.0351562 4.492188 C 0.015625 4.542969 0.00390625 4.597656 0.00390625 4.652344 C 0.00390625 4.65625 0 4.660156 0 4.667969 L 0 6.535156 C 0 6.792969 0.207031 7 0.464844 7 L 7 7 L 7 15.671875 L 5.269531 17.402344 C 5.183594 17.492188 5.132812 17.609375 5.132812 17.734375 L 5.132812 25.199219 L 4.199219 25.199219 L 4.199219 28 L 13.535156 28 L 13.535156 25.199219 L 12.601562 25.199219 L 12.601562 17.734375 C 12.601562 17.609375 12.550781 17.492188 12.464844 17.402344 L 10.734375 15.671875 L 10.734375 7 L 20.066406 7 L 20.066406 13.535156 C 20.066406 13.792969 20.277344 14 20.535156 14 L 21.464844 14 L 21.464844 15.398438 C 21.464844 15.65625 21.675781 15.867188 21.933594 15.867188 C 22.449219 15.867188 22.867188 16.285156 22.867188 16.800781 C 22.867188 17.316406 22.449219 17.734375 21.933594 17.734375 C 21.417969 17.734375 21 17.316406 21 16.800781 L 21 16.332031 L 20.066406 16.332031 L 20.066406 16.800781 C 20.070312 17.480469 20.445312 18.105469 21.042969 18.429688 L 17.539062 21.933594 L 16.332031 21.933594 C 16.074219 21.933594 15.867188 22.140625 15.867188 22.398438 L 15.867188 26.601562 C 15.867188 26.859375 16.074219 27.066406 16.332031 27.066406 L 27.535156 27.066406 C 27.792969 27.066406 28 26.859375 28 26.601562 L 28 22.398438 C 28 22.140625 27.792969 21.933594 27.535156 21.933594 L 26.328125 21.933594 L 22.824219 18.429688 C 23.726562 17.941406 24.066406 16.816406 23.578125 15.910156 C 23.332031 15.453125 22.902344 15.121094 22.398438 14.992188 L 22.398438 14 Z M 23.800781 5.132812 L 27.066406 5.132812 L 27.066406 6.066406 L 23.800781 6.066406 Z M 27.066406 22.867188 L 27.066406 26.132812 L 16.800781 26.132812 L 16.800781 22.867188 Z M 25.007812 21.933594 L 18.859375 21.933594 L 21.933594 18.859375 Z M 22.867188 11.199219 L 21 11.199219 L 21 7 L 22.867188 7 Z M 22.867188 6.066406 L 21 6.066406 L 21 5.132812 L 22.867188 5.132812 Z M 8.398438 0.933594 L 9.332031 0.933594 L 9.332031 4.199219 L 8.398438 4.199219 Z M 7.933594 5.132812 L 9.800781 5.132812 L 9.800781 5.875 L 9.605469 6.066406 L 7.933594 6.066406 Z M 9.800781 7.191406 L 9.800781 10.539062 L 8.125 8.867188 Z M 7.933594 7 L 8.671875 7 L 7.933594 7.738281 Z M 7.933594 9.992188 L 9.605469 11.667969 L 7.933594 13.339844 Z M 9.800781 12.792969 L 9.800781 16.140625 L 8.125 14.464844 Z M 7.933594 15.867188 L 7.933594 15.59375 L 9.605469 17.265625 L 7.933594 18.941406 Z M 9.800781 18.394531 L 9.800781 21.738281 L 8.125 20.066406 Z M 7.933594 21.191406 L 9.605469 22.867188 L 7.933594 24.539062 Z M 9.800781 23.992188 L 9.800781 25.199219 L 8.59375 25.199219 Z M 7.464844 1.265625 L 7.464844 4.199219 L 2.246094 4.199219 Z M 0.933594 6.066406 L 0.933594 5.132812 L 7 5.132812 L 7 6.066406 Z M 6.066406 17.925781 L 7 16.992188 L 7 25.199219 L 6.066406 25.199219 Z M 12.601562 26.132812 L 12.601562 27.066406 L 5.132812 27.066406 L 5.132812 26.132812 Z M 11.667969 17.925781 L 11.667969 25.199219 L 10.734375 25.199219 L 10.734375 16.992188 Z M 20.066406 6.066406 L 10.734375 6.066406 L 10.734375 5.132812 L 20.066406 5.132812 Z M 10.265625 4.199219 L 10.265625 1.054688 L 23.539062 4.199219 Z M 21 13.066406 L 21 12.132812 L 22.867188 12.132812 L 22.867188 13.066406 Z M 21 13.066406 "/>
</g>
</svg>
