<?xml version="1.0" encoding="UTF-8"?>
<svg xmlns="http://www.w3.org/2000/svg" xmlns:xlink="http://www.w3.org/1999/xlink" width="28pt" height="28pt" viewBox="0 0 28 28" version="1.1">
<g id="surface1">
<path style=" stroke:none;fill-rule:nonzero;fill:rgb(0%,0%,0%);fill-opacity:1;" d="M 12.53125 10.074219 C 10.867188 9.648438 11.835938 9.894531 9.84375 9.390625 C 8.875 9.140625 8.292969 8.160156 8.539062 7.191406 C 8.785156 6.21875 9.769531 5.636719 10.738281 5.882812 C 11.507812 6.078125 11.320312 6.03125 12.53125 6.339844 L 12.53125 2.867188 C 12.53125 2.609375 12.363281 2.378906 12.113281 2.308594 L 8.195312 1.164062 L 18.351562 1.164062 L 18.351562 3.179688 C 18.707031 3.015625 19.101562 2.921875 19.515625 2.914062 L 19.515625 0.582031 C 19.515625 0.261719 19.257812 0 18.933594 0 L 4.125 0 C 3.800781 0 3.542969 0.265625 3.542969 0.582031 L 3.542969 21.851562 C 3.542969 22.101562 3.707031 22.335938 3.960938 22.410156 L 11.789062 24.695312 C 11.960938 24.746094 12.152344 24.710938 12.300781 24.601562 C 12.445312 24.492188 12.53125 24.320312 12.53125 24.136719 L 12.53125 22.433594 L 16.148438 22.433594 L 16.148438 21.269531 L 12.53125 21.269531 Z M 10.875 15.300781 C 10.875 15.625 10.613281 15.882812 10.292969 15.882812 C 9.96875 15.882812 9.710938 15.625 9.710938 15.300781 L 9.710938 11.941406 C 9.710938 11.621094 9.96875 11.359375 10.292969 11.359375 C 10.613281 11.359375 10.875 11.621094 10.875 11.941406 Z M 10.875 15.300781 "/>
<path style=" stroke:none;fill-rule:nonzero;fill:rgb(0%,0%,0%);fill-opacity:1;" d="M 24.421875 10.652344 C 24.417969 9.691406 23.605469 8.394531 22.144531 8.386719 C 22.144531 8.386719 18.03125 8.386719 17.140625 8.386719 L 10.527344 6.703125 C 10.039062 6.582031 9.550781 6.851562 9.386719 7.3125 C 9.191406 7.859375 9.515625 8.433594 10.054688 8.570312 C 17.328125 10.421875 16.84375 10.3125 17.015625 10.3125 C 17.015625 20.628906 16.996094 11.285156 16.996094 26.84375 C 16.996094 27.484375 17.511719 28 18.148438 28 C 18.789062 28 19.304688 27.484375 19.304688 26.84375 L 19.304688 17.613281 L 19.804688 17.613281 L 19.804688 26.84375 C 19.804688 27.484375 20.320312 28 20.960938 28 C 21.597656 28 22.113281 27.484375 22.113281 26.84375 L 22.113281 10.664062 C 22.113281 10.558594 22.199219 10.472656 22.304688 10.472656 C 22.410156 10.472656 22.496094 10.554688 22.496094 10.660156 C 22.496094 10.660156 22.496094 10.660156 22.496094 10.664062 L 22.53125 17.734375 C 22.535156 18.265625 22.964844 18.691406 23.496094 18.691406 C 23.496094 18.691406 23.496094 18.691406 23.5 18.691406 C 24.03125 18.691406 24.460938 18.257812 24.457031 17.726562 Z M 24.421875 10.652344 "/>
<path style=" stroke:none;fill-rule:nonzero;fill:rgb(0%,0%,0%);fill-opacity:1;" d="M 17.558594 5.753906 C 17.558594 6.859375 18.457031 7.75 19.554688 7.75 C 20.652344 7.75 21.550781 6.863281 21.550781 5.753906 C 21.550781 4.652344 20.65625 3.761719 19.554688 3.761719 C 18.457031 3.761719 17.558594 4.652344 17.558594 5.753906 Z M 17.558594 5.753906 "/>
</g>
</svg>
