<?xml version="1.0" encoding="UTF-8"?>
<svg xmlns="http://www.w3.org/2000/svg" xmlns:xlink="http://www.w3.org/1999/xlink" width="28pt" height="28pt" viewBox="0 0 28 28" version="1.1">
<g id="surface1">
<path style=" stroke:none;fill-rule:nonzero;fill:rgb(0%,0%,0%);fill-opacity:1;" d="M 17.5 15.167969 C 16.855469 15.167969 16.332031 15.691406 16.332031 16.332031 L 16.332031 21 C 16.332031 21.644531 15.808594 22.167969 15.167969 22.167969 L 11.667969 22.167969 L 11.667969 4.667969 C 11.667969 3.671875 11.03125 2.78125 10.078125 2.449219 L 9.730469 2.332031 L 15.167969 2.332031 C 15.808594 2.332031 16.332031 2.859375 16.332031 3.5 L 16.332031 7 C 16.332031 7.644531 16.855469 8.167969 17.5 8.167969 C 18.144531 8.167969 18.667969 7.644531 18.667969 7 L 18.667969 3.5 C 18.667969 1.570312 17.097656 0 15.167969 0 L 2.625 0 C 2.582031 0 2.542969 0.0195312 2.5 0.0273438 C 2.445312 0.0195312 2.390625 0 2.332031 0 C 1.046875 0 0 1.046875 0 2.332031 L 0 23.332031 C 0 24.328125 0.632812 25.21875 1.589844 25.550781 L 8.609375 27.890625 C 8.847656 27.964844 9.085938 28 9.332031 28 C 10.621094 28 11.667969 26.953125 11.667969 25.667969 L 11.667969 24.5 L 15.167969 24.5 C 17.097656 24.5 18.667969 22.929688 18.667969 21 L 18.667969 16.332031 C 18.667969 15.691406 18.144531 15.167969 17.5 15.167969 Z M 17.5 15.167969 "/>
<path style=" stroke:none;fill-rule:nonzero;fill:rgb(0%,0%,0%);fill-opacity:1;" d="M 27.65625 10.84375 L 22.992188 6.175781 C 22.65625 5.839844 22.15625 5.742188 21.71875 5.921875 C 21.285156 6.101562 21 6.527344 21 7 L 21 10.5 L 16.332031 10.5 C 15.6875 10.5 15.167969 11.023438 15.167969 11.667969 C 15.167969 12.3125 15.6875 12.832031 16.332031 12.832031 L 21 12.832031 L 21 16.332031 C 21 16.804688 21.285156 17.230469 21.71875 17.410156 C 22.15625 17.59375 22.65625 17.492188 22.992188 17.160156 L 27.65625 12.492188 C 28.113281 12.035156 28.113281 11.296875 27.65625 10.84375 Z M 27.65625 10.84375 "/>
</g>
</svg>
