<?xml version="1.0" encoding="UTF-8"?>
<svg xmlns="http://www.w3.org/2000/svg" xmlns:xlink="http://www.w3.org/1999/xlink" width="28pt" height="28pt" viewBox="0 0 28 28" version="1.1">
<g id="surface1">
<path style=" stroke:none;fill-rule:nonzero;fill:rgb(0%,0%,0%);fill-opacity:1;" d="M 27.53125 23.910156 C 26.167969 22.375 24.273438 21.652344 22.339844 21.898438 L 21.457031 18.515625 C 24.832031 17.144531 26.476562 13.289062 25.09375 9.898438 L 22.585938 3.722656 C 22.429688 3.339844 22.011719 3.132812 21.613281 3.238281 L 14.011719 5.277344 L 6.410156 3.238281 C 6.011719 3.132812 5.59375 3.339844 5.4375 3.722656 L 2.929688 9.898438 C 1.554688 13.273438 3.175781 17.140625 6.570312 18.515625 L 5.683594 21.894531 C 3.738281 21.648438 1.835938 22.371094 0.46875 23.910156 C 0.210938 24.203125 -0.109375 24.480469 0.0429688 24.984375 C 0.125 25.257812 0.34375 25.464844 0.621094 25.539062 L 9.980469 27.972656 C 10.253906 28.042969 10.546875 27.96875 10.753906 27.773438 C 11.128906 27.417969 10.992188 27.023438 10.914062 26.636719 C 10.523438 24.730469 9.222656 23.109375 7.269531 22.316406 L 8.152344 18.941406 C 10.382812 19.253906 12.558594 18.402344 14.011719 16.765625 C 15.296875 18.222656 17.117188 19.003906 18.96875 19.003906 C 19.269531 19.003906 19.570312 18.980469 19.871094 18.941406 L 20.753906 22.316406 C 18.800781 23.109375 17.5 24.730469 17.109375 26.636719 C 17.039062 26.992188 16.886719 27.410156 17.273438 27.773438 C 17.476562 27.96875 17.769531 28.042969 18.042969 27.972656 L 27.378906 25.539062 C 27.65625 25.464844 27.875 25.257812 27.957031 24.984375 C 28.109375 24.484375 27.792969 24.207031 27.53125 23.910156 Z M 6.6875 5.011719 L 11.539062 6.3125 C 11.5 6.429688 11.484375 6.558594 11.503906 6.691406 L 12.136719 11.277344 C 11.070312 11.933594 9.851562 11.800781 8.84375 10.882812 C 7.628906 9.773438 6.136719 9.414062 4.742188 9.796875 Z M 8.996094 26.023438 L 2.441406 24.316406 C 3.488281 23.539062 4.769531 23.292969 6.070312 23.640625 C 7.417969 24.003906 8.460938 24.863281 8.996094 26.023438 Z M 7.769531 17.191406 C 5.4375 16.566406 3.882812 14.355469 4.101562 11.9375 C 5.246094 11.023438 6.621094 11.074219 7.738281 12.09375 C 9.050781 13.292969 10.765625 13.667969 12.375 12.992188 C 12.4375 13.449219 12.527344 14.296875 13.054688 15.347656 C 11.851562 16.96875 9.742188 17.722656 7.769531 17.191406 Z M 13.640625 10.179688 L 13.226562 7.183594 L 21.339844 5.011719 L 23.445312 10.199219 C 23.117188 10.382812 22.800781 10.609375 22.503906 10.882812 C 21.328125 11.953125 19.863281 11.953125 18.6875 10.882812 C 17.195312 9.519531 15.28125 9.289062 13.640625 10.179688 Z M 20.253906 17.191406 C 17.367188 17.964844 14.449219 16.03125 14.042969 13.070312 L 13.890625 11.984375 C 15.046875 11.023438 16.445312 11.058594 17.582031 12.09375 C 19.386719 13.738281 21.808594 13.738281 23.609375 12.09375 C 23.707031 12.003906 23.808594 11.921875 23.910156 11.847656 C 24.179688 14.292969 22.621094 16.558594 20.253906 17.191406 Z M 19.027344 26.019531 C 19.5625 24.863281 20.605469 24.003906 21.953125 23.640625 C 23.21875 23.304688 24.492188 23.527344 25.5625 24.316406 Z M 19.027344 26.019531 "/>
<path style=" stroke:none;fill-rule:nonzero;fill:rgb(0%,0%,0%);fill-opacity:1;" d="M 13.992188 0 C 13.539062 0 13.171875 0.367188 13.171875 0.820312 L 13.171875 2.460938 C 13.171875 2.914062 13.539062 3.28125 13.992188 3.28125 C 14.445312 3.28125 14.8125 2.914062 14.8125 2.460938 L 14.8125 0.820312 C 14.8125 0.367188 14.445312 0 13.992188 0 Z M 13.992188 0 "/>
<path style=" stroke:none;fill-rule:nonzero;fill:rgb(0%,0%,0%);fill-opacity:1;" d="M 11.289062 1.882812 L 9.648438 0.242188 C 9.328125 -0.078125 8.808594 -0.078125 8.488281 0.242188 C 8.167969 0.5625 8.167969 1.082031 8.488281 1.402344 L 10.128906 3.042969 C 10.449219 3.363281 10.96875 3.363281 11.289062 3.042969 C 11.609375 2.722656 11.609375 2.203125 11.289062 1.882812 Z M 11.289062 1.882812 "/>
<path style=" stroke:none;fill-rule:nonzero;fill:rgb(0%,0%,0%);fill-opacity:1;" d="M 19.496094 0.242188 C 19.175781 -0.078125 18.65625 -0.078125 18.335938 0.242188 L 16.691406 1.882812 C 16.371094 2.203125 16.371094 2.722656 16.691406 3.042969 C 17.011719 3.363281 17.53125 3.363281 17.851562 3.042969 L 19.496094 1.402344 C 19.816406 1.082031 19.816406 0.5625 19.496094 0.242188 Z M 19.496094 0.242188 "/>
</g>
</svg>
