<?xml version="1.0" encoding="UTF-8"?>
<svg xmlns="http://www.w3.org/2000/svg" xmlns:xlink="http://www.w3.org/1999/xlink" width="28pt" height="28pt" viewBox="0 0 28 28" version="1.1">
<g id="surface1">
<path style=" stroke:none;fill-rule:nonzero;fill:rgb(0%,0%,0%);fill-opacity:1;" d="M 28 20.503906 L 28 0 L 0 0 L 0 28 L 28 28 L 28 21.324219 L 27.179688 21.324219 L 27.179688 27.179688 L 0.820312 27.179688 L 0.820312 0.820312 L 27.179688 0.820312 L 27.179688 20.503906 Z M 28 20.503906 "/>
<path style=" stroke:none;fill-rule:nonzero;fill:rgb(0%,0%,0%);fill-opacity:1;" d="M 24.542969 1.90625 C 23.632812 1.90625 22.890625 2.644531 22.890625 3.554688 C 22.890625 4.464844 23.632812 5.203125 24.542969 5.203125 C 25.449219 5.203125 26.191406 4.464844 26.191406 3.554688 C 26.191406 2.644531 25.449219 1.90625 24.542969 1.90625 Z M 24.542969 4.382812 C 24.082031 4.382812 23.710938 4.011719 23.710938 3.554688 C 23.710938 3.097656 24.082031 2.726562 24.542969 2.726562 C 25 2.726562 25.371094 3.097656 25.371094 3.554688 C 25.371094 4.011719 25 4.382812 24.542969 4.382812 Z M 24.542969 4.382812 "/>
<path style=" stroke:none;fill-rule:nonzero;fill:rgb(0%,0%,0%);fill-opacity:1;" d="M 3.457031 5.203125 C 4.367188 5.203125 5.109375 4.464844 5.109375 3.554688 C 5.109375 2.644531 4.367188 1.90625 3.457031 1.90625 C 2.550781 1.90625 1.808594 2.644531 1.808594 3.554688 C 1.808594 4.464844 2.550781 5.203125 3.457031 5.203125 Z M 3.457031 2.726562 C 3.917969 2.726562 4.289062 3.097656 4.289062 3.554688 C 4.289062 4.011719 3.917969 4.382812 3.457031 4.382812 C 3 4.382812 2.628906 4.011719 2.628906 3.554688 C 2.628906 3.097656 3 2.726562 3.457031 2.726562 Z M 3.457031 2.726562 "/>
<path style=" stroke:none;fill-rule:nonzero;fill:rgb(0%,0%,0%);fill-opacity:1;" d="M 24.542969 26.09375 C 25.449219 26.09375 26.191406 25.355469 26.191406 24.445312 C 26.191406 23.535156 25.449219 22.796875 24.542969 22.796875 C 23.632812 22.796875 22.890625 23.535156 22.890625 24.445312 C 22.890625 25.355469 23.632812 26.09375 24.542969 26.09375 Z M 24.542969 23.617188 C 25 23.617188 25.371094 23.988281 25.371094 24.445312 C 25.371094 24.902344 25 25.273438 24.542969 25.273438 C 24.082031 25.273438 23.710938 24.902344 23.710938 24.445312 C 23.710938 23.988281 24.082031 23.617188 24.542969 23.617188 Z M 24.542969 23.617188 "/>
<path style=" stroke:none;fill-rule:nonzero;fill:rgb(0%,0%,0%);fill-opacity:1;" d="M 3.457031 26.09375 C 4.367188 26.09375 5.109375 25.355469 5.109375 24.445312 C 5.109375 23.535156 4.367188 22.796875 3.457031 22.796875 C 2.550781 22.796875 1.808594 23.535156 1.808594 24.445312 C 1.808594 25.355469 2.550781 26.09375 3.457031 26.09375 Z M 3.457031 23.617188 C 3.917969 23.617188 4.289062 23.988281 4.289062 24.445312 C 4.289062 24.902344 3.917969 25.273438 3.457031 25.273438 C 3 25.273438 2.628906 24.902344 2.628906 24.445312 C 2.628906 23.988281 3 23.617188 3.457031 23.617188 Z M 3.457031 23.617188 "/>
<path style=" stroke:none;fill-rule:nonzero;fill:rgb(0%,0%,0%);fill-opacity:1;" d="M 23.1875 22.121094 L 23.1875 5.878906 L 4.8125 5.878906 L 4.8125 9.53125 L 5.632812 9.53125 L 5.632812 6.699219 L 13.589844 6.699219 L 13.589844 21.300781 L 5.632812 21.300781 L 5.632812 10.351562 L 4.8125 10.351562 L 4.8125 22.121094 Z M 22.367188 21.300781 L 14.410156 21.300781 L 14.410156 6.699219 L 22.367188 6.699219 Z M 22.367188 21.300781 "/>
<path style=" stroke:none;fill-rule:nonzero;fill:rgb(0%,0%,0%);fill-opacity:1;" d="M 6.863281 17.308594 L 12.359375 17.308594 L 12.359375 18.128906 L 6.863281 18.128906 Z M 6.863281 17.308594 "/>
<path style=" stroke:none;fill-rule:nonzero;fill:rgb(0%,0%,0%);fill-opacity:1;" d="M 6.863281 19.296875 L 12.359375 19.296875 L 12.359375 20.117188 L 6.863281 20.117188 Z M 6.863281 19.296875 "/>
<path style=" stroke:none;fill-rule:nonzero;fill:rgb(0%,0%,0%);fill-opacity:1;" d="M 15.640625 17.308594 L 21.136719 17.308594 L 21.136719 18.128906 L 15.640625 18.128906 Z M 15.640625 17.308594 "/>
<path style=" stroke:none;fill-rule:nonzero;fill:rgb(0%,0%,0%);fill-opacity:1;" d="M 15.640625 19.296875 L 21.136719 19.296875 L 21.136719 20.117188 L 15.640625 20.117188 Z M 15.640625 19.296875 "/>
<path style=" stroke:none;fill-rule:nonzero;fill:rgb(0%,0%,0%);fill-opacity:1;" d="M 20.34375 3.964844 L 10.9375 3.964844 L 10.9375 3.144531 L 20.34375 3.144531 Z M 10.117188 3.964844 L 9.296875 3.964844 L 9.296875 3.144531 L 10.117188 3.144531 Z M 8.476562 3.964844 L 7.65625 3.964844 L 7.65625 3.144531 L 8.476562 3.144531 Z M 8.476562 3.964844 "/>
</g>
</svg>
