<?xml version="1.0" encoding="UTF-8"?>
<svg xmlns="http://www.w3.org/2000/svg" xmlns:xlink="http://www.w3.org/1999/xlink" width="28pt" height="28pt" viewBox="0 0 28 28" version="1.1">
<g id="surface1">
<path style=" stroke:none;fill-rule:nonzero;fill:rgb(0%,0%,0%);fill-opacity:1;" d="M 25.054688 0 L 2.976562 0 C 1.453125 0 0.21875 1.238281 0.21875 2.757812 L 0.21875 25.269531 C 0.21875 26.792969 1.457031 28.03125 2.976562 28.03125 L 25.054688 28.03125 C 26.574219 28.03125 27.8125 26.792969 27.8125 25.269531 L 27.8125 2.757812 C 27.8125 1.238281 26.574219 0 25.054688 0 Z M 25.972656 25.269531 C 25.972656 25.777344 25.5625 26.191406 25.054688 26.191406 L 2.976562 26.191406 C 2.46875 26.191406 2.054688 25.777344 2.054688 25.269531 L 2.054688 2.757812 C 2.054688 2.253906 2.46875 1.839844 2.976562 1.839844 L 25.054688 1.839844 C 25.558594 1.839844 25.972656 2.253906 25.972656 2.757812 Z M 25.972656 25.269531 "/>
<path style=" stroke:none;fill-rule:nonzero;fill:rgb(0%,0%,0%);fill-opacity:1;" d="M 14.015625 3.984375 C 8.484375 3.984375 3.984375 8.484375 3.984375 14.015625 C 3.984375 19.546875 8.484375 24.042969 14.015625 24.042969 C 19.546875 24.042969 24.042969 19.546875 24.042969 14.015625 C 24.042969 8.484375 19.546875 3.984375 14.015625 3.984375 Z M 14.015625 22.203125 C 9.5 22.203125 5.824219 18.53125 5.824219 14.015625 C 5.824219 9.5 9.5 5.824219 14.015625 5.824219 C 18.53125 5.824219 22.203125 9.5 22.203125 14.015625 C 22.203125 18.53125 18.53125 22.203125 14.015625 22.203125 Z M 14.015625 22.203125 "/>
<path style=" stroke:none;fill-rule:nonzero;fill:rgb(0%,0%,0%);fill-opacity:1;" d="M 10.796875 12.710938 C 10.289062 12.710938 9.875 13.125 9.875 13.632812 L 9.875 14.21875 C 9.875 14.726562 10.289062 15.136719 10.796875 15.136719 C 11.304688 15.136719 11.714844 14.726562 11.714844 14.21875 L 11.714844 13.632812 C 11.714844 13.125 11.304688 12.710938 10.796875 12.710938 Z M 10.796875 12.710938 "/>
<path style=" stroke:none;fill-rule:nonzero;fill:rgb(0%,0%,0%);fill-opacity:1;" d="M 17.542969 12.710938 C 17.035156 12.710938 16.621094 13.125 16.621094 13.632812 L 16.621094 14.21875 C 16.621094 14.726562 17.035156 15.136719 17.542969 15.136719 C 18.050781 15.136719 18.460938 14.726562 18.460938 14.21875 L 18.460938 13.632812 C 18.460938 13.125 18.050781 12.710938 17.542969 12.710938 Z M 17.542969 12.710938 "/>
</g>
</svg>
