<?xml version="1.0" encoding="UTF-8"?>
<svg xmlns="http://www.w3.org/2000/svg" xmlns:xlink="http://www.w3.org/1999/xlink" width="28pt" height="28pt" viewBox="0 0 28 28" version="1.1">
<g id="surface1">
<path style=" stroke:none;fill-rule:nonzero;fill:rgb(0%,0%,0%);fill-opacity:1;" d="M 6.125 21.953125 C 5.6875 21.511719 5.105469 21.273438 4.488281 21.273438 C 4.121094 21.273438 3.769531 21.355469 3.453125 21.515625 C 0.328125 17.09375 0.320312 11.03125 3.476562 6.597656 C 3.652344 6.351562 3.597656 6.011719 3.351562 5.835938 C 3.105469 5.660156 2.761719 5.71875 2.585938 5.964844 C 0.84375 8.410156 -0.0507812 11.296875 0.00390625 14.316406 C 0.0507812 17.1875 0.953125 19.914062 2.613281 22.226562 C 1.953125 23.132812 2.03125 24.410156 2.847656 25.226562 C 3.300781 25.679688 3.894531 25.90625 4.488281 25.90625 C 5.082031 25.90625 5.675781 25.679688 6.125 25.226562 C 7.027344 24.324219 7.027344 22.855469 6.125 21.953125 Z M 5.351562 24.453125 C 4.875 24.929688 4.097656 24.929688 3.621094 24.453125 C 3.144531 23.976562 3.144531 23.203125 3.621094 22.726562 C 3.851562 22.492188 4.160156 22.367188 4.488281 22.367188 C 4.8125 22.367188 5.121094 22.492188 5.351562 22.726562 C 5.828125 23.203125 5.828125 23.976562 5.351562 24.453125 Z M 5.351562 24.453125 "/>
<path style=" stroke:none;fill-rule:nonzero;fill:rgb(0%,0%,0%);fill-opacity:1;" d="M 22.308594 24.671875 C 22.132812 24.425781 21.792969 24.371094 21.546875 24.550781 C 19.984375 25.679688 18.226562 26.425781 16.324219 26.773438 C 15.882812 26.855469 15.433594 26.734375 15.089844 26.449219 C 14.75 26.164062 14.554688 25.746094 14.554688 25.304688 L 14.554688 21.296875 L 14.601562 21.296875 C 15.234375 21.296875 15.75 20.78125 15.75 20.148438 L 15.75 19.222656 C 17.601562 18.515625 18.921875 16.722656 18.921875 14.625 L 18.921875 12.035156 C 19.804688 11.792969 20.453125 10.988281 20.453125 10.03125 C 20.453125 8.976562 19.664062 8.105469 18.648438 7.96875 L 18.648438 4.5625 C 18.648438 3.65625 17.914062 2.921875 17.007812 2.921875 C 16.101562 2.921875 15.367188 3.65625 15.367188 4.5625 L 15.367188 7.953125 L 12.632812 7.953125 L 12.632812 4.5625 C 12.632812 3.65625 11.898438 2.921875 10.992188 2.921875 C 10.085938 2.921875 9.351562 3.65625 9.351562 4.5625 L 9.351562 7.96875 C 8.335938 8.105469 7.546875 8.976562 7.546875 10.03125 C 7.546875 10.988281 8.195312 11.792969 9.078125 12.035156 L 9.078125 14.625 C 9.078125 16.722656 10.398438 18.515625 12.25 19.222656 L 12.25 20.148438 C 12.25 20.78125 12.765625 21.296875 13.398438 21.296875 L 13.460938 21.296875 L 13.460938 25.304688 C 13.460938 26.074219 13.796875 26.796875 14.390625 27.289062 C 14.859375 27.683594 15.445312 27.890625 16.050781 27.890625 C 16.207031 27.890625 16.363281 27.878906 16.519531 27.847656 C 18.582031 27.472656 20.492188 26.660156 22.1875 25.4375 C 22.433594 25.257812 22.488281 24.917969 22.308594 24.671875 Z M 16.460938 4.5625 C 16.460938 4.257812 16.707031 4.015625 17.007812 4.015625 C 17.308594 4.015625 17.554688 4.257812 17.554688 4.5625 L 17.554688 7.953125 L 16.460938 7.953125 Z M 10.445312 4.5625 C 10.445312 4.257812 10.691406 4.015625 10.992188 4.015625 C 11.292969 4.015625 11.539062 4.257812 11.539062 4.5625 L 11.539062 7.953125 L 10.445312 7.953125 Z M 8.640625 10.03125 C 8.640625 9.488281 9.082031 9.046875 9.625 9.046875 L 18.375 9.046875 C 18.917969 9.046875 19.359375 9.488281 19.359375 10.03125 C 19.359375 10.574219 18.917969 11.015625 18.375 11.015625 L 9.625 11.015625 C 9.082031 11.015625 8.640625 10.574219 8.640625 10.03125 Z M 10.171875 14.625 L 10.171875 12.109375 L 17.828125 12.109375 L 17.828125 14.625 C 17.828125 16.734375 16.109375 18.453125 14 18.453125 C 11.890625 18.453125 10.171875 16.734375 10.171875 14.625 Z M 14.019531 20.203125 C 14.015625 20.203125 14.011719 20.199219 14.007812 20.199219 C 14.003906 20.199219 13.996094 20.203125 13.992188 20.203125 L 13.398438 20.203125 C 13.367188 20.203125 13.34375 20.175781 13.34375 20.148438 L 13.34375 19.5 C 13.558594 19.53125 13.777344 19.546875 14 19.546875 C 14.222656 19.546875 14.441406 19.53125 14.65625 19.5 L 14.65625 20.148438 C 14.65625 20.175781 14.632812 20.203125 14.601562 20.203125 Z M 14.019531 20.203125 "/>
<path style=" stroke:none;fill-rule:nonzero;fill:rgb(0%,0%,0%);fill-opacity:1;" d="M 23.886719 23.191406 C 23.667969 22.988281 23.332031 22.996094 23.125 23.203125 C 23.121094 23.210938 23.117188 23.214844 23.113281 23.21875 C 22.90625 23.4375 22.917969 23.785156 23.136719 23.992188 C 23.242188 24.089844 23.378906 24.136719 23.511719 24.136719 C 23.652344 24.136719 23.792969 24.082031 23.898438 23.976562 C 23.90625 23.972656 23.910156 23.96875 23.914062 23.960938 C 24.117188 23.742188 24.105469 23.394531 23.886719 23.191406 Z M 23.886719 23.191406 "/>
<path style=" stroke:none;fill-rule:nonzero;fill:rgb(0%,0%,0%);fill-opacity:1;" d="M 27.964844 13.054688 C 27.71875 9.707031 26.277344 6.554688 23.898438 4.175781 C 21.5625 1.839844 18.445312 0.410156 15.113281 0.152344 C 11.824219 -0.105469 8.550781 0.785156 5.894531 2.664062 C 5.648438 2.839844 5.589844 3.179688 5.765625 3.425781 C 5.9375 3.671875 6.28125 3.730469 6.527344 3.558594 C 11.605469 -0.03125 18.742188 0.566406 23.125 4.949219 C 27.65625 9.480469 28.207031 16.519531 24.429688 21.683594 C 24.25 21.925781 24.304688 22.269531 24.546875 22.449219 C 24.644531 22.519531 24.757812 22.554688 24.871094 22.554688 C 25.039062 22.554688 25.203125 22.476562 25.3125 22.328125 C 27.261719 19.660156 28.203125 16.367188 27.964844 13.054688 Z M 27.964844 13.054688 "/>
<path style=" stroke:none;fill-rule:nonzero;fill:rgb(0%,0%,0%);fill-opacity:1;" d="M 4.808594 4.242188 C 4.59375 4.027344 4.246094 4.03125 4.035156 4.246094 L 4.023438 4.253906 C 3.8125 4.46875 3.8125 4.8125 4.027344 5.027344 C 4.136719 5.132812 4.273438 5.183594 4.414062 5.183594 C 4.554688 5.183594 4.695312 5.132812 4.800781 5.023438 L 4.8125 5.015625 C 5.023438 4.800781 5.023438 4.453125 4.808594 4.242188 Z M 4.808594 4.242188 "/>
<path style=" stroke:none;fill-rule:nonzero;fill:rgb(0%,0%,0%);fill-opacity:1;" d="M 15.234375 14.421875 C 15.136719 14.253906 14.957031 14.148438 14.761719 14.148438 L 14.371094 14.148438 L 15.089844 13.242188 C 15.277344 13.003906 15.238281 12.660156 15 12.472656 C 14.761719 12.285156 14.417969 12.324219 14.230469 12.5625 L 12.8125 14.355469 C 12.679688 14.523438 12.65625 14.746094 12.746094 14.933594 C 12.839844 15.125 13.03125 15.242188 13.238281 15.242188 L 13.824219 15.242188 L 13.152344 16.425781 C 13.003906 16.6875 13.097656 17.023438 13.359375 17.171875 C 13.445312 17.21875 13.535156 17.242188 13.628906 17.242188 C 13.820312 17.242188 14.003906 17.140625 14.105469 16.964844 L 15.238281 14.964844 C 15.332031 14.796875 15.332031 14.589844 15.234375 14.421875 Z M 15.234375 14.421875 "/>
</g>
</svg>
