<?xml version="1.0" encoding="UTF-8"?>
<svg xmlns="http://www.w3.org/2000/svg" xmlns:xlink="http://www.w3.org/1999/xlink" width="28pt" height="28pt" viewBox="0 0 28 28" version="1.1">
<g id="surface1">
<path style=" stroke:none;fill-rule:nonzero;fill:rgb(0%,0%,0%);fill-opacity:1;" d="M 28 4.402344 L 28 2.675781 C 28 2.179688 27.597656 1.777344 27.097656 1.777344 L 26.609375 1.777344 L 26.351562 0.828125 C 26.234375 0.40625 25.847656 0.109375 25.40625 0.109375 L 2.59375 0.109375 C 2.15625 0.109375 1.765625 0.40625 1.648438 0.828125 L 1.390625 1.777344 L 0.902344 1.777344 C 0.402344 1.777344 0 2.179688 0 2.675781 L 0 4.402344 C 0 4.871094 0.359375 5.257812 0.816406 5.300781 L 0.816406 14.171875 C 0.816406 14.398438 1 14.582031 1.226562 14.582031 C 1.453125 14.582031 1.632812 14.398438 1.632812 14.171875 L 1.632812 5.304688 L 26.367188 5.304688 L 26.367188 23.601562 L 22.8125 23.601562 L 22.8125 15.796875 C 22.8125 14.703125 22.609375 13.636719 22.214844 12.625 C 22.132812 12.414062 21.894531 12.308594 21.683594 12.394531 C 21.472656 12.476562 21.371094 12.714844 21.453125 12.921875 C 21.808594 13.839844 21.992188 14.804688 21.992188 15.796875 L 21.992188 23.601562 L 20.882812 23.601562 L 20.882812 15.984375 C 20.882812 12.230469 17.828125 9.175781 14.070312 9.175781 L 13.929688 9.175781 C 10.171875 9.175781 7.117188 12.230469 7.117188 15.984375 L 7.117188 23.601562 L 6.007812 23.601562 L 6.007812 15.796875 C 6.007812 11.441406 9.550781 7.898438 13.910156 7.898438 L 14.089844 7.898438 C 16.699219 7.898438 19.136719 9.183594 20.613281 11.335938 C 20.738281 11.523438 20.996094 11.570312 21.179688 11.441406 C 21.367188 11.3125 21.414062 11.058594 21.289062 10.871094 C 19.660156 8.496094 16.96875 7.078125 14.089844 7.078125 L 13.910156 7.078125 C 9.101562 7.078125 5.1875 10.988281 5.1875 15.796875 L 5.1875 23.601562 L 1.632812 23.601562 L 1.632812 16.0625 C 1.632812 15.835938 1.453125 15.652344 1.226562 15.652344 C 1 15.652344 0.816406 15.835938 0.816406 16.0625 L 0.816406 23.605469 C 0.359375 23.648438 0 24.035156 0 24.503906 L 0 26.996094 C 0 27.492188 0.402344 27.898438 0.902344 27.898438 L 27.097656 27.898438 C 27.597656 27.898438 28 27.492188 28 26.996094 L 28 24.503906 C 28 24.035156 27.640625 23.648438 27.183594 23.605469 L 27.183594 5.300781 C 27.640625 5.257812 28 4.871094 28 4.402344 Z M 2.441406 1.046875 C 2.460938 0.976562 2.523438 0.929688 2.59375 0.929688 L 25.40625 0.929688 C 25.476562 0.929688 25.539062 0.976562 25.558594 1.046875 L 25.753906 1.746094 L 2.246094 1.746094 Z M 7.9375 15.984375 C 7.9375 12.683594 10.625 9.992188 13.929688 9.992188 L 14.070312 9.992188 C 17.375 9.992188 20.0625 12.683594 20.0625 15.984375 L 20.0625 23.601562 L 17.203125 23.601562 C 17.433594 23.386719 17.667969 23.121094 17.882812 22.804688 C 19.105469 21.011719 18.675781 19.035156 18.101562 17.695312 C 18.007812 17.484375 17.820312 17.335938 17.589844 17.308594 C 17.363281 17.277344 17.140625 17.363281 16.996094 17.542969 L 16.371094 18.324219 C 16.234375 17.394531 15.789062 15.988281 14.546875 14.058594 C 14.425781 13.875 14.222656 13.761719 14 13.761719 C 13.777344 13.761719 13.574219 13.875 13.453125 14.058594 C 12.210938 15.988281 11.765625 17.394531 11.628906 18.324219 L 11.003906 17.542969 C 10.859375 17.363281 10.636719 17.277344 10.410156 17.308594 C 10.179688 17.335938 9.992188 17.484375 9.898438 17.695312 C 9.324219 19.035156 8.894531 21.011719 10.117188 22.804688 C 10.332031 23.121094 10.566406 23.386719 10.796875 23.601562 L 7.9375 23.601562 Z M 12.914062 22.109375 C 12.941406 21.59375 13.246094 21.101562 13.820312 20.65625 L 14 20.515625 L 14.179688 20.65625 C 14.753906 21.101562 15.058594 21.589844 15.082031 22.105469 C 15.117188 22.777344 14.683594 23.363281 14.480469 23.601562 L 13.519531 23.601562 C 13.316406 23.363281 12.882812 22.777344 12.914062 22.109375 Z M 15.902344 22.070312 C 15.863281 21.304688 15.453125 20.609375 14.683594 20.011719 L 14.476562 19.847656 C 14.195312 19.628906 13.804688 19.628906 13.523438 19.847656 L 13.316406 20.007812 C 12.546875 20.609375 12.136719 21.304688 12.097656 22.070312 C 12.066406 22.675781 12.28125 23.207031 12.515625 23.601562 L 12.144531 23.601562 C 11.652344 23.328125 9.210938 21.75 10.546875 18.28125 L 11.25 19.160156 C 11.417969 19.371094 11.691406 19.457031 11.953125 19.375 C 12.210938 19.292969 12.386719 19.0625 12.402344 18.792969 C 12.488281 17.378906 13.382812 15.71875 14 14.730469 C 15.296875 16.808594 15.558594 18.160156 15.597656 18.792969 C 15.613281 19.0625 15.789062 19.292969 16.046875 19.375 C 16.308594 19.457031 16.582031 19.371094 16.753906 19.160156 L 17.453125 18.28125 C 18.789062 21.75 16.34375 23.328125 15.859375 23.601562 L 15.484375 23.601562 C 15.71875 23.207031 15.933594 22.675781 15.902344 22.070312 Z M 27.179688 26.996094 C 27.179688 27.042969 27.144531 27.078125 27.097656 27.078125 L 0.902344 27.078125 C 0.855469 27.078125 0.820312 27.042969 0.820312 26.996094 L 0.820312 24.503906 C 0.820312 24.457031 0.855469 24.421875 0.902344 24.421875 L 27.097656 24.421875 C 27.144531 24.421875 27.179688 24.457031 27.179688 24.503906 Z M 27.179688 4.402344 C 27.179688 4.449219 27.144531 4.484375 27.097656 4.484375 L 0.902344 4.484375 C 0.855469 4.484375 0.820312 4.449219 0.820312 4.402344 L 0.820312 2.675781 C 0.820312 2.632812 0.855469 2.597656 0.902344 2.597656 L 27.097656 2.597656 C 27.144531 2.597656 27.179688 2.632812 27.179688 2.675781 Z M 27.179688 4.402344 "/>
</g>
</svg>
