<?xml version="1.0" encoding="UTF-8"?>
<svg xmlns="http://www.w3.org/2000/svg" xmlns:xlink="http://www.w3.org/1999/xlink" width="28pt" height="28pt" viewBox="0 0 28 28" version="1.1">
<g id="surface1">
<path style=" stroke:none;fill-rule:nonzero;fill:rgb(0%,0%,0%);fill-opacity:1;" d="M 2.949219 8.84375 L 6.878906 8.84375 L 6.878906 22.597656 L 2.949219 22.597656 Z M 2.949219 8.84375 "/>
<path style=" stroke:none;fill-rule:nonzero;fill:rgb(0%,0%,0%);fill-opacity:1;" d="M 21.617188 8.84375 L 25.546875 8.84375 L 25.546875 22.597656 L 21.617188 22.597656 Z M 21.617188 8.84375 "/>
<path style=" stroke:none;fill-rule:nonzero;fill:rgb(0%,0%,0%);fill-opacity:1;" d="M 27.019531 5.402344 L 0.984375 5.402344 C 0.441406 5.402344 0 5.84375 0 6.386719 L 0 6.878906 C 0 7.421875 0.441406 7.859375 0.984375 7.859375 L 27.019531 7.859375 C 27.5625 7.859375 28.003906 7.421875 28.003906 6.878906 L 28.003906 6.386719 C 28.003906 5.84375 27.5625 5.402344 27.019531 5.402344 Z M 27.019531 5.402344 "/>
<path style=" stroke:none;fill-rule:nonzero;fill:rgb(0%,0%,0%);fill-opacity:1;" d="M 16.445312 13.3125 C 16.617188 13.859375 16.660156 14.414062 16.648438 14.894531 C 15.5 14.148438 14.359375 13.582031 14.359375 12.582031 C 14.359375 10.9375 15.609375 9.554688 15.609375 9.554688 C 15.609375 9.554688 10.132812 9.972656 9.300781 14.355469 C 8.464844 18.734375 10.082031 22.230469 13.472656 22.230469 C 16.953125 22.230469 18.769531 19.832031 18.9375 18.464844 L 18.949219 18.476562 C 19.316406 15.929688 16.445312 13.3125 16.445312 13.3125 Z M 14.121094 19.359375 C 13.097656 19.78125 12.175781 18.925781 11.886719 17.503906 C 11.59375 16.078125 13.195312 15.273438 13.195312 15.273438 C 13.195312 15.273438 12.988281 15.84375 13.191406 16.339844 C 13.4375 16.9375 14.816406 16.464844 15.273438 17.472656 C 15.449219 17.859375 15.234375 18.902344 14.121094 19.359375 Z M 14.121094 19.359375 "/>
</g>
</svg>
