<?xml version="1.0" encoding="UTF-8"?>
<svg xmlns="http://www.w3.org/2000/svg" xmlns:xlink="http://www.w3.org/1999/xlink" width="28pt" height="28pt" viewBox="0 0 28 28" version="1.1">
<g id="surface1">
<path style=" stroke:none;fill-rule:nonzero;fill:rgb(0%,0%,0%);fill-opacity:1;" d="M 21.808594 0.171875 C 21.292969 -0.09375 20.679688 -0.046875 20.207031 0.289062 L 18.25 1.6875 L 16.257812 0.28125 C 15.726562 -0.09375 15.011719 -0.09375 14.480469 0.28125 L 12.484375 1.6875 L 10.53125 0.289062 C 10.058594 -0.0507812 9.445312 -0.09375 8.925781 0.171875 C 8.410156 0.4375 8.089844 0.964844 8.089844 1.542969 L 8.089844 6.542969 C 8.089844 8.484375 8.855469 10.300781 10.242188 11.65625 C 11.464844 12.847656 13.042969 13.558594 14.742188 13.703125 L 14.742188 18.976562 C 13.738281 17.574219 12.101562 16.710938 10.339844 16.710938 C 8.242188 16.710938 6.3125 17.941406 5.429688 19.847656 C 5.328125 20.066406 5.328125 20.320312 5.429688 20.539062 C 6.3125 22.445312 8.242188 23.675781 10.339844 23.675781 C 12.101562 23.675781 13.738281 22.808594 14.742188 21.410156 L 14.742188 27.179688 C 14.742188 27.632812 15.109375 28 15.5625 28 C 16.015625 28 16.382812 27.632812 16.382812 27.179688 L 16.382812 13.667969 C 17.957031 13.464844 19.402344 12.765625 20.53125 11.648438 C 21.894531 10.296875 22.644531 8.484375 22.644531 6.542969 L 22.644531 1.542969 C 22.644531 0.964844 22.324219 0.4375 21.808594 0.171875 Z M 10.390625 21.011719 L 12.917969 21.011719 C 12.230469 21.65625 11.3125 22.035156 10.339844 22.035156 C 9.007812 22.035156 7.777344 21.324219 7.101562 20.191406 C 7.777344 19.0625 9.007812 18.351562 10.339844 18.351562 C 11.3125 18.351562 12.230469 18.730469 12.917969 19.371094 L 10.390625 19.371094 C 9.9375 19.371094 9.570312 19.738281 9.570312 20.191406 C 9.570312 20.644531 9.9375 21.011719 10.390625 21.011719 Z M 21.003906 6.542969 C 21.003906 8.042969 20.425781 9.441406 19.378906 10.480469 C 18.332031 11.519531 16.925781 12.089844 15.417969 12.089844 L 15.378906 12.089844 C 13.867188 12.089844 12.453125 11.519531 11.386719 10.480469 C 10.320312 9.4375 9.730469 8.039062 9.730469 6.542969 L 9.730469 1.734375 L 12.003906 3.359375 C 12.289062 3.5625 12.667969 3.5625 12.953125 3.363281 L 15.367188 1.664062 L 17.78125 3.363281 C 18.066406 3.5625 18.449219 3.5625 18.730469 3.359375 L 21.003906 1.734375 Z M 21.003906 6.542969 "/>
</g>
</svg>
