<?xml version="1.0" encoding="UTF-8"?>
<svg xmlns="http://www.w3.org/2000/svg" xmlns:xlink="http://www.w3.org/1999/xlink" width="28pt" height="28pt" viewBox="0 0 28 28" version="1.1">
<g id="surface1">
<path style=" stroke:none;fill-rule:nonzero;fill:rgb(0%,0%,0%);fill-opacity:1;" d="M 27.96875 24.71875 L 25.726562 16.625 C 25.628906 16.269531 25.304688 16.023438 24.9375 16.023438 L 23.570312 16.023438 L 23.570312 15.148438 C 23.570312 14.882812 23.441406 14.636719 23.226562 14.480469 C 23.21875 14.472656 22.195312 13.726562 21.1875 12.351562 C 19.867188 10.535156 19.195312 8.535156 19.195312 6.398438 C 19.195312 5.945312 18.828125 5.578125 18.375 5.578125 L 17.554688 5.578125 L 17.554688 3.554688 C 17.554688 1.59375 15.960938 0 14 0 C 12.039062 0 10.445312 1.59375 10.445312 3.554688 L 10.445312 5.578125 L 9.625 5.578125 C 9.171875 5.578125 8.804688 5.945312 8.804688 6.398438 C 8.804688 8.535156 8.132812 10.535156 6.8125 12.351562 C 5.804688 13.726562 4.78125 14.472656 4.773438 14.480469 C 4.558594 14.632812 4.429688 14.882812 4.429688 15.148438 L 4.429688 16.023438 L 3.0625 16.023438 C 2.695312 16.023438 2.371094 16.269531 2.273438 16.625 L 0.03125 24.71875 C -0.0898438 25.15625 0.164062 25.605469 0.601562 25.726562 C 1.035156 25.847656 1.488281 25.59375 1.609375 25.15625 L 3.6875 17.664062 L 4.429688 17.664062 L 4.429688 27.179688 C 4.429688 27.632812 4.796875 28 5.25 28 L 22.75 28 C 23.203125 28 23.570312 27.632812 23.570312 27.179688 L 23.570312 17.664062 L 24.3125 17.664062 L 26.390625 25.15625 C 26.511719 25.59375 26.964844 25.847656 27.398438 25.726562 C 27.835938 25.605469 28.089844 25.15625 27.96875 24.71875 Z M 12.085938 3.554688 C 12.085938 2.5 12.945312 1.640625 14 1.640625 C 15.054688 1.640625 15.914062 2.5 15.914062 3.554688 L 15.914062 5.578125 L 12.085938 5.578125 Z M 21.929688 26.359375 L 6.070312 26.359375 L 6.070312 15.546875 C 6.507812 15.179688 7.304688 14.445312 8.097656 13.371094 C 9.464844 11.515625 10.257812 9.40625 10.414062 7.21875 L 17.585938 7.21875 C 17.742188 9.40625 18.535156 11.515625 19.902344 13.371094 C 20.695312 14.445312 21.492188 15.179688 21.929688 15.546875 Z M 21.929688 26.359375 "/>
<path style=" stroke:none;fill-rule:nonzero;fill:rgb(0%,0%,0%);fill-opacity:1;" d="M 17.828125 16.1875 L 10.171875 16.1875 C 9.71875 16.1875 9.351562 16.554688 9.351562 17.007812 L 9.351562 19.742188 C 9.351562 20.195312 9.71875 20.5625 10.171875 20.5625 L 17.828125 20.5625 C 18.28125 20.5625 18.648438 20.195312 18.648438 19.742188 L 18.648438 17.007812 C 18.648438 16.554688 18.28125 16.1875 17.828125 16.1875 Z M 17.007812 18.921875 L 10.992188 18.921875 L 10.992188 17.828125 L 17.007812 17.828125 Z M 17.007812 18.921875 "/>
</g>
</svg>
