<?xml version="1.0" encoding="UTF-8"?>
<svg xmlns="http://www.w3.org/2000/svg" xmlns:xlink="http://www.w3.org/1999/xlink" width="28pt" height="28pt" viewBox="0 0 28 28" version="1.1">
<g id="surface1">
<path style=" stroke:none;fill-rule:nonzero;fill:rgb(0%,0%,0%);fill-opacity:1;" d="M 16.433594 0 C 11.136719 0 6.828125 4.308594 6.828125 9.605469 L 6.828125 12.347656 L 5.773438 11.925781 C 4.492188 11.414062 3.007812 11.933594 2.324219 13.132812 C 1.785156 14.078125 1.847656 15.261719 2.488281 16.144531 L 6.828125 22.128906 L 6.828125 22.921875 L 26.042969 22.921875 L 26.042969 9.605469 C 26.042969 4.308594 21.730469 0 16.433594 0 Z M 16.433594 0 "/>
<path style=" stroke:none;fill-rule:nonzero;fill:rgb(0%,0%,0%);fill-opacity:1;" d="M 6.828125 24.5625 L 6.828125 27.179688 C 6.828125 27.632812 7.195312 28 7.648438 28 L 25.222656 28 C 25.671875 28 26.042969 27.632812 26.042969 27.179688 L 26.042969 24.5625 Z M 6.828125 24.5625 "/>
</g>
</svg>
