<?xml version="1.0" encoding="UTF-8"?>
<svg xmlns="http://www.w3.org/2000/svg" xmlns:xlink="http://www.w3.org/1999/xlink" width="28pt" height="28pt" viewBox="0 0 28 28" version="1.1">
<g id="surface1">
<path style=" stroke:none;fill-rule:nonzero;fill:rgb(0%,0%,0%);fill-opacity:1;" d="M 2.609375 22.242188 L 2.582031 22.242188 L 2.144531 15.125 L 1.335938 15.125 L 1.335938 27.578125 L 2.144531 27.578125 L 2.378906 24.910156 L 6.324219 24.910156 L 6.65625 27.578125 L 7.117188 27.578125 L 7.117188 22.242188 Z M 6.269531 24.464844 L 2.414062 24.464844 L 2.492188 23.578125 L 6.160156 23.578125 Z M 6.269531 24.464844 "/>
<path style=" stroke:none;fill-rule:nonzero;fill:rgb(0%,0%,0%);fill-opacity:1;" d="M 25.328125 22.242188 L 20.460938 22.242188 L 20.460938 27.578125 L 21.257812 27.578125 L 21.585938 24.910156 L 25.535156 24.910156 L 25.769531 27.578125 L 26.691406 27.578125 L 26.691406 15.125 L 25.769531 15.125 Z M 25.496094 24.464844 L 21.640625 24.464844 L 21.75 23.578125 L 25.417969 23.578125 Z M 25.496094 24.464844 "/>
<path style=" stroke:none;fill-rule:nonzero;fill:rgb(0%,0%,0%);fill-opacity:1;" d="M 23.128906 19.179688 L 23.128906 17.742188 C 23.128906 17.523438 22.957031 17.347656 22.738281 17.347656 L 5.285156 17.347656 C 5.066406 17.347656 4.894531 17.523438 4.894531 17.742188 L 4.894531 19.179688 C 4.894531 19.398438 5.066406 19.574219 5.285156 19.574219 L 10.230469 19.574219 L 10.230469 20.460938 L 12.011719 20.460938 L 12.011719 27.085938 C 12.011719 27.101562 12.015625 27.117188 12.015625 27.132812 L 10.230469 27.132812 L 10.230469 28.023438 L 17.792969 28.023438 L 17.792969 27.132812 L 16.007812 27.132812 C 16.011719 27.117188 16.015625 27.101562 16.015625 27.085938 L 16.015625 20.460938 L 17.792969 20.460938 L 17.792969 19.574219 L 22.742188 19.574219 C 22.957031 19.574219 23.128906 19.398438 23.128906 19.179688 Z M 23.128906 19.179688 "/>
<path style=" stroke:none;fill-rule:nonzero;fill:rgb(0%,0%,0%);fill-opacity:1;" d="M 11.386719 0 L 11.386719 6.371094 L 11.085938 6.371094 C 10.730469 7.5625 10.230469 8.570312 10.230469 10.1875 C 10.230469 11.632812 10.804688 12.871094 10.9375 13.589844 L 12.492188 13.589844 C 12.765625 12.773438 13.09375 11.585938 13.09375 10.1875 C 13.09375 8.570312 12.707031 7.5625 12.351562 6.371094 L 11.980469 6.371094 L 11.980469 0 Z M 11.386719 0 "/>
<path style=" stroke:none;fill-rule:nonzero;fill:rgb(0%,0%,0%);fill-opacity:1;" d="M 15.550781 0 L 15.550781 2.804688 L 15.28125 2.804688 C 14.90625 3.992188 14.511719 5.109375 14.511719 6.808594 C 14.511719 8.601562 15.074219 9.652344 15.214844 10.40625 L 16.753906 10.40625 C 17.046875 9.550781 17.402344 8.28125 17.402344 6.8125 C 17.402344 5.109375 16.980469 3.992188 16.609375 2.804688 L 16.144531 2.804688 L 16.144531 0 Z M 15.550781 0 "/>
</g>
</svg>
