<?xml version="1.0" encoding="UTF-8"?>
<svg xmlns="http://www.w3.org/2000/svg" xmlns:xlink="http://www.w3.org/1999/xlink" width="28pt" height="27pt" viewBox="0 0 28 27" version="1.1">
<g id="surface1">
<path style=" stroke:none;fill-rule:nonzero;fill:rgb(0%,0%,0%);fill-opacity:1;" d="M 20.8125 10.832031 L 22.457031 10.734375 C 22.460938 10.734375 22.464844 10.734375 22.46875 10.734375 C 23.640625 10.636719 24.691406 10.042969 25.355469 9.105469 L 26.65625 7.261719 C 27.789062 5.65625 28.226562 3.71875 27.890625 1.800781 C 27.824219 1.425781 27.625 1.078125 27.328125 0.828125 C 27.035156 0.574219 26.652344 0.425781 26.261719 0.40625 C 24.25 0.3125 22.3125 0.964844 20.800781 2.246094 L 19.0625 3.714844 C 18.175781 4.460938 17.691406 5.542969 17.734375 6.679688 C 17.734375 6.679688 17.734375 6.683594 17.734375 6.6875 L 17.828125 8.277344 C 17.863281 8.894531 17.628906 9.507812 17.183594 9.953125 L 3.601562 23.433594 C 3.238281 23.800781 3.050781 24.304688 3.074219 24.847656 C 3.097656 25.449219 3.382812 26.042969 3.835938 26.429688 C 4.246094 26.78125 4.808594 26.980469 5.371094 26.980469 C 5.433594 26.980469 5.492188 26.976562 5.554688 26.972656 C 6.117188 26.929688 6.613281 26.6875 6.945312 26.292969 L 19.167969 11.652344 C 19.570312 11.171875 20.171875 10.871094 20.8125 10.832031 Z M 18.515625 11.144531 L 6.292969 25.78125 C 6.109375 26.003906 5.820312 26.140625 5.488281 26.164062 C 5.089844 26.195312 4.679688 26.066406 4.394531 25.824219 C 4.109375 25.578125 3.929688 25.203125 3.914062 24.816406 C 3.898438 24.492188 4.003906 24.199219 4.207031 23.996094 L 17.785156 10.519531 C 18.394531 9.910156 18.714844 9.074219 18.667969 8.230469 L 18.574219 6.644531 C 18.539062 5.753906 18.917969 4.910156 19.613281 4.324219 L 21.351562 2.855469 C 22.699219 1.714844 24.429688 1.132812 26.21875 1.214844 C 26.421875 1.226562 26.621094 1.304688 26.773438 1.433594 C 26.925781 1.5625 27.027344 1.742188 27.0625 1.9375 C 27.363281 3.644531 26.972656 5.371094 25.960938 6.804688 L 24.660156 8.648438 C 24.140625 9.382812 23.320312 9.847656 22.402344 9.925781 L 20.761719 10.023438 C 19.886719 10.078125 19.066406 10.484375 18.515625 11.144531 Z M 18.515625 11.144531 "/>
<path style=" stroke:none;fill-rule:nonzero;fill:rgb(0%,0%,0%);fill-opacity:1;" d="M 27.222656 23.332031 L 18.117188 15.316406 C 17.945312 15.167969 17.679688 15.179688 17.523438 15.34375 C 17.367188 15.511719 17.382812 15.765625 17.554688 15.917969 L 26.65625 23.929688 C 26.875 24.121094 26.996094 24.40625 27.003906 24.730469 C 27.011719 25.117188 26.855469 25.503906 26.585938 25.765625 C 26.3125 26.023438 25.914062 26.175781 25.515625 26.167969 C 25.179688 26.164062 24.886719 26.042969 24.6875 25.835938 L 16.574219 17.230469 C 16.417969 17.0625 16.152344 17.050781 15.980469 17.203125 C 15.808594 17.351562 15.796875 17.609375 15.953125 17.773438 L 24.070312 26.386719 C 24.425781 26.757812 24.933594 26.96875 25.5 26.980469 C 25.515625 26.980469 25.527344 26.980469 25.542969 26.980469 C 26.152344 26.980469 26.757812 26.742188 27.175781 26.335938 C 27.605469 25.921875 27.855469 25.316406 27.84375 24.714844 C 27.832031 24.167969 27.613281 23.679688 27.222656 23.332031 Z M 27.222656 23.332031 "/>
<path style=" stroke:none;fill-rule:nonzero;fill:rgb(0%,0%,0%);fill-opacity:1;" d="M 5.066406 10.757812 C 5.757812 11.375 6.660156 11.726562 7.605469 11.75 C 7.609375 11.75 7.613281 11.75 7.613281 11.75 L 9.261719 11.753906 C 9.90625 11.757812 10.523438 12.019531 10.957031 12.476562 L 11.683594 13.246094 C 11.765625 13.335938 11.878906 13.378906 11.992188 13.378906 C 12.09375 13.378906 12.195312 13.34375 12.277344 13.273438 C 12.445312 13.121094 12.460938 12.867188 12.304688 12.699219 L 11.578125 11.929688 C 10.984375 11.304688 10.140625 10.945312 9.265625 10.945312 L 7.621094 10.9375 C 6.890625 10.921875 6.195312 10.652344 5.652344 10.175781 L 0.875 4.691406 C 0.828125 4.636719 0.832031 4.554688 0.882812 4.5 C 0.921875 4.464844 0.964844 4.460938 0.988281 4.460938 C 1.007812 4.460938 1.050781 4.464844 1.089844 4.5 L 5.4375 8.703125 C 5.867188 9.117188 6.566406 9.117188 6.996094 8.703125 L 7.507812 8.210938 L 8.414062 7.332031 L 8.925781 6.839844 C 9.355469 6.421875 9.355469 5.746094 8.925781 5.332031 L 4.578125 1.132812 C 4.519531 1.078125 4.519531 0.988281 4.578125 0.933594 C 4.632812 0.882812 4.714844 0.878906 4.773438 0.925781 L 10.453125 5.539062 C 10.941406 6.0625 11.222656 6.738281 11.238281 7.445312 L 11.246094 9.03125 C 11.246094 9.878906 11.621094 10.691406 12.265625 11.265625 L 13.042969 11.949219 C 13.214844 12.101562 13.480469 12.089844 13.636719 11.921875 C 13.792969 11.757812 13.78125 11.5 13.609375 11.351562 L 12.832031 10.667969 C 12.359375 10.246094 12.085938 9.648438 12.085938 9.027344 L 12.078125 7.4375 C 12.078125 7.433594 12.078125 7.429688 12.078125 7.429688 C 12.054688 6.515625 11.691406 5.644531 11.050781 4.972656 C 11.039062 4.960938 11.027344 4.949219 11.011719 4.9375 L 5.3125 0.304688 C 4.917969 -0.015625 4.347656 0.0078125 3.984375 0.359375 C 3.601562 0.730469 3.601562 1.332031 3.984375 1.703125 L 8.332031 5.90625 C 8.433594 6.003906 8.433594 6.167969 8.332031 6.265625 L 8.117188 6.472656 L 3.273438 1.789062 C 3.109375 1.632812 2.84375 1.632812 2.679688 1.789062 C 2.515625 1.949219 2.515625 2.207031 2.679688 2.363281 L 7.523438 7.046875 L 7.210938 7.347656 L 2.363281 2.667969 C 2.199219 2.507812 1.933594 2.507812 1.769531 2.667969 C 1.605469 2.824219 1.605469 3.082031 1.769531 3.238281 L 6.617188 7.921875 L 6.402344 8.128906 C 6.300781 8.226562 6.132812 8.226562 6.03125 8.128906 L 1.683594 3.929688 C 1.496094 3.75 1.25 3.648438 0.988281 3.648438 C 0.722656 3.648438 0.476562 3.75 0.289062 3.929688 C -0.0742188 4.28125 -0.0976562 4.832031 0.234375 5.214844 L 5.027344 10.71875 C 5.039062 10.734375 5.050781 10.746094 5.066406 10.757812 Z M 5.066406 10.757812 "/>
</g>
</svg>
