<?xml version="1.0" encoding="UTF-8"?>
<svg xmlns="http://www.w3.org/2000/svg" xmlns:xlink="http://www.w3.org/1999/xlink" width="28pt" height="28pt" viewBox="0 0 28 28" version="1.1">
<g id="surface1">
<path style=" stroke:none;fill-rule:nonzero;fill:rgb(0%,0%,0%);fill-opacity:1;" d="M 26.804688 14.289062 L 25.832031 14.289062 C 25.742188 12.8125 25.382812 11.386719 24.757812 10.046875 C 24.664062 9.839844 24.421875 9.75 24.214844 9.847656 C 24.011719 9.941406 23.921875 10.183594 24.015625 10.390625 C 24.589844 11.621094 24.921875 12.933594 25.011719 14.289062 L 6.25 14.289062 C 6.023438 14.289062 5.839844 14.472656 5.839844 14.699219 C 5.839844 14.925781 6.023438 15.109375 6.25 15.109375 L 26.804688 15.109375 C 27.011719 15.109375 27.179688 15.277344 27.179688 15.484375 L 27.179688 15.984375 C 27.179688 16.191406 27.011719 16.359375 26.804688 16.359375 L 1.195312 16.359375 C 0.988281 16.359375 0.820312 16.191406 0.820312 15.984375 L 0.820312 15.484375 C 0.820312 15.277344 0.988281 15.109375 1.195312 15.109375 L 4.339844 15.109375 C 4.566406 15.109375 4.75 14.925781 4.75 14.699219 C 4.75 14.472656 4.566406 14.289062 4.339844 14.289062 L 2.988281 14.289062 C 3.167969 11.570312 4.335938 9.039062 6.300781 7.125 C 8.195312 5.277344 10.644531 4.191406 13.261719 4.019531 C 13.265625 4.019531 13.265625 4.019531 13.269531 4.019531 C 13.378906 4.011719 13.488281 4.007812 13.597656 4.003906 C 13.621094 4.003906 13.640625 4 13.664062 4 C 13.703125 4 13.742188 4 13.78125 4 C 13.851562 3.996094 13.925781 3.996094 14 3.996094 C 14.097656 3.996094 14.195312 3.996094 14.292969 4 C 14.320312 4 14.351562 4 14.378906 4.003906 C 14.453125 4.003906 14.53125 4.007812 14.605469 4.011719 C 14.644531 4.015625 14.683594 4.015625 14.722656 4.019531 C 18.085938 4.242188 21.179688 5.988281 23.105469 8.792969 C 23.234375 8.980469 23.488281 9.027344 23.675781 8.898438 C 23.863281 8.769531 23.910156 8.515625 23.78125 8.328125 C 21.886719 5.570312 18.9375 3.761719 15.679688 3.296875 C 15.882812 2.980469 15.996094 2.605469 15.996094 2.214844 C 15.996094 1.992188 15.898438 1.582031 15.234375 1.339844 C 14.902344 1.214844 14.464844 1.148438 14 1.148438 C 13.535156 1.148438 13.097656 1.214844 12.765625 1.339844 C 12.101562 1.582031 12.003906 1.992188 12.003906 2.214844 C 12.003906 2.605469 12.117188 2.976562 12.320312 3.292969 C 9.84375 3.644531 7.550781 4.765625 5.730469 6.535156 C 3.605469 8.605469 2.347656 11.347656 2.167969 14.289062 L 1.195312 14.289062 C 0.535156 14.289062 0 14.824219 0 15.484375 L 0 15.984375 C 0 16.644531 0.535156 17.179688 1.195312 17.179688 L 5.605469 17.179688 C 5.386719 17.332031 5.175781 17.5 4.976562 17.6875 L 4.96875 17.695312 C 4.957031 17.707031 4.945312 17.71875 4.933594 17.734375 L 2.988281 20.09375 C 2.746094 19.941406 2.457031 19.882812 2.171875 19.9375 C 1.875 19.996094 1.617188 20.164062 1.449219 20.414062 L 0.683594 21.542969 C 0.335938 22.058594 0.46875 22.761719 0.984375 23.113281 L 6.21875 26.667969 C 6.40625 26.796875 6.625 26.863281 6.851562 26.863281 C 6.921875 26.863281 6.996094 26.855469 7.066406 26.84375 C 7.363281 26.785156 7.621094 26.617188 7.789062 26.367188 L 8.554688 25.238281 C 8.902344 24.722656 8.769531 24.019531 8.253906 23.667969 L 8.222656 23.648438 C 8.589844 23.234375 9.074219 22.9375 9.601562 22.816406 C 10.714844 22.558594 12.023438 22.722656 12.914062 22.871094 C 14.011719 23.054688 15.167969 22.992188 16.253906 22.691406 L 17.761719 22.273438 C 18.765625 21.996094 19.691406 21.53125 20.507812 20.886719 C 20.515625 20.878906 20.519531 20.875 20.527344 20.871094 L 23.117188 18.578125 C 23.558594 18.238281 23.652344 17.652344 23.5 17.179688 L 26.804688 17.179688 C 27.464844 17.179688 28 16.644531 28 15.984375 L 28 15.484375 C 28 14.824219 27.464844 14.289062 26.804688 14.289062 Z M 14 1.96875 C 14.691406 1.96875 15.101562 2.136719 15.179688 2.234375 C 15.171875 2.621094 14.976562 2.980469 14.65625 3.195312 C 14.578125 3.191406 14.496094 3.1875 14.417969 3.183594 C 14.390625 3.183594 14.363281 3.183594 14.335938 3.183594 C 14.222656 3.179688 14.109375 3.175781 14 3.175781 C 13.921875 3.175781 13.839844 3.175781 13.761719 3.179688 C 13.722656 3.179688 13.683594 3.179688 13.644531 3.183594 C 13.597656 3.183594 13.550781 3.183594 13.503906 3.1875 C 13.449219 3.191406 13.394531 3.191406 13.34375 3.195312 C 13.023438 2.980469 12.828125 2.621094 12.820312 2.234375 C 12.898438 2.136719 13.308594 1.96875 14 1.96875 Z M 16.9375 17.378906 C 16.90625 17.308594 16.871094 17.242188 16.828125 17.179688 L 20.757812 17.179688 L 19.058594 18.304688 L 16.636719 19.003906 L 16.554688 19.007812 C 17.019531 18.617188 17.191406 17.953125 16.9375 17.378906 Z M 12.496094 17.179688 L 11.90625 17.304688 L 11.449219 17.179688 Z M 7.875 24.78125 L 7.113281 25.90625 C 7.066406 25.976562 6.996094 26.023438 6.914062 26.039062 C 6.832031 26.054688 6.746094 26.039062 6.679688 25.992188 L 1.445312 22.433594 C 1.300781 22.339844 1.265625 22.144531 1.363281 22 L 2.125 20.875 C 2.171875 20.804688 2.246094 20.757812 2.328125 20.742188 C 2.347656 20.738281 2.367188 20.738281 2.386719 20.738281 C 2.449219 20.738281 2.507812 20.753906 2.558594 20.792969 L 2.84375 20.984375 L 7.792969 24.347656 C 7.9375 24.441406 7.972656 24.636719 7.875 24.78125 Z M 22.613281 17.929688 C 22.605469 17.9375 22.59375 17.945312 22.585938 17.953125 L 19.992188 20.25 C 19.261719 20.820312 18.4375 21.238281 17.542969 21.484375 L 16.035156 21.902344 C 15.0625 22.171875 14.03125 22.226562 13.046875 22.0625 C 12.089844 21.90625 10.671875 21.726562 9.417969 22.019531 C 8.691406 22.1875 8.027344 22.605469 7.542969 23.183594 L 3.671875 20.554688 L 5.550781 18.273438 C 6.261719 17.601562 7.164062 17.203125 8.027344 17.179688 L 8.042969 17.179688 C 8.308594 17.175781 8.59375 17.253906 8.894531 17.339844 C 8.953125 17.355469 9.011719 17.371094 9.074219 17.386719 L 11.785156 18.121094 C 11.847656 18.136719 11.914062 18.136719 11.976562 18.125 L 15.527344 17.382812 C 15.6875 17.351562 15.859375 17.382812 15.992188 17.472656 C 16.078125 17.53125 16.144531 17.613281 16.1875 17.707031 C 16.308594 17.984375 16.195312 18.308594 15.921875 18.449219 L 14.710938 19.089844 C 14.542969 19.179688 14.457031 19.371094 14.507812 19.554688 C 14.554688 19.738281 14.722656 19.863281 14.910156 19.863281 L 16.707031 19.824219 C 16.746094 19.820312 16.78125 19.816406 16.8125 19.804688 L 19.347656 19.074219 C 19.386719 19.0625 19.425781 19.042969 19.460938 19.023438 L 22.015625 17.332031 C 22.230469 17.199219 22.515625 17.089844 22.667969 17.3125 C 22.785156 17.488281 22.789062 17.800781 22.613281 17.929688 Z M 22.613281 17.929688 "/>
</g>
</svg>
