<?xml version="1.0" encoding="UTF-8"?>
<svg xmlns="http://www.w3.org/2000/svg" xmlns:xlink="http://www.w3.org/1999/xlink" width="28pt" height="28pt" viewBox="0 0 28 28" version="1.1">
<g id="surface1">
<path style=" stroke:none;fill-rule:nonzero;fill:rgb(0%,0%,0%);fill-opacity:1;" d="M 23.105469 27.945312 L 25.566406 27.988281 L 25.574219 27.988281 C 25.828125 27.988281 26.035156 27.78125 26.039062 27.527344 L 26.039062 15.203125 L 26.738281 15.816406 C 26.820312 15.886719 26.929688 15.925781 27.039062 15.925781 C 27.101562 15.925781 27.160156 15.914062 27.214844 15.886719 C 27.375 15.808594 27.476562 15.644531 27.472656 15.46875 L 27.472656 11.769531 C 27.476562 11.636719 27.421875 11.511719 27.324219 11.421875 L 14.304688 0.113281 C 14.132812 -0.0390625 13.878906 -0.0390625 13.707031 0.113281 L 0.660156 11.421875 C 0.5625 11.511719 0.507812 11.636719 0.515625 11.769531 L 0.515625 15.46875 C 0.507812 15.644531 0.609375 15.808594 0.769531 15.886719 C 0.929688 15.960938 1.121094 15.933594 1.253906 15.816406 L 1.71875 15.40625 L 1.71875 27.34375 C 1.71875 27.59375 1.917969 27.796875 2.167969 27.800781 L 4.859375 27.871094 C 4.984375 27.871094 5.105469 27.824219 5.191406 27.738281 C 5.28125 27.652344 5.332031 27.535156 5.332031 27.410156 L 5.332031 15.640625 L 22.65625 15.6875 L 22.65625 27.488281 C 22.65625 27.738281 22.855469 27.941406 23.105469 27.945312 Z M 1.433594 11.976562 L 14.011719 1.066406 L 26.554688 11.976562 L 26.554688 14.460938 L 14.300781 3.8125 C 14.132812 3.664062 13.882812 3.664062 13.714844 3.8125 L 1.433594 14.464844 Z M 4.875 14.738281 L 4.871094 14.738281 C 4.753906 14.734375 4.636719 14.78125 4.550781 14.863281 C 4.464844 14.945312 4.414062 15.058594 4.414062 15.179688 L 4.414062 26.941406 L 2.636719 26.894531 L 2.636719 14.613281 L 14.011719 4.765625 L 25.121094 14.40625 L 25.121094 27.0625 L 23.570312 27.035156 L 23.570312 15.230469 C 23.570312 15.109375 23.523438 14.992188 23.4375 14.910156 C 23.351562 14.824219 23.234375 14.777344 23.113281 14.777344 Z M 4.875 14.738281 "/>
<path style=" stroke:none;fill-rule:nonzero;fill:rgb(0%,0%,0%);fill-opacity:1;" d="M 20.820312 27.527344 L 20.820312 22.757812 C 20.816406 22.265625 20.617188 21.792969 20.261719 21.453125 L 20 21.175781 L 18.992188 18.449219 C 18.796875 17.914062 18.289062 17.554688 17.71875 17.550781 L 10.449219 17.550781 C 9.878906 17.554688 9.371094 17.914062 9.175781 18.449219 L 8.183594 21.125 L 7.800781 21.484375 C 7.398438 21.828125 7.167969 22.332031 7.167969 22.859375 L 7.167969 27.527344 C 7.167969 27.78125 7.375 27.988281 7.632812 27.988281 L 10.183594 27.988281 C 10.433594 27.988281 10.667969 27.78125 10.667969 27.527344 L 10.667969 26.441406 L 17.320312 26.441406 L 17.320312 27.527344 C 17.320312 27.78125 17.550781 27.988281 17.804688 27.988281 L 20.355469 27.988281 C 20.609375 27.988281 20.816406 27.78125 20.820312 27.527344 Z M 10.035156 18.765625 C 10.097656 18.589844 10.261719 18.472656 10.449219 18.46875 L 17.71875 18.46875 C 17.90625 18.472656 18.070312 18.589844 18.132812 18.765625 L 18.929688 20.933594 L 9.234375 20.933594 Z M 8.085938 22.859375 C 8.085938 22.597656 8.203125 22.347656 8.402344 22.179688 C 8.40625 22.175781 8.414062 22.171875 8.417969 22.164062 L 8.757812 21.851562 L 19.378906 21.851562 L 19.597656 22.085938 C 19.605469 22.09375 19.613281 22.101562 19.621094 22.109375 C 19.796875 22.277344 19.898438 22.511719 19.902344 22.757812 L 19.902344 25.101562 C 19.898438 25.214844 19.851562 25.328125 19.765625 25.40625 C 19.683594 25.484375 19.570312 25.527344 19.457031 25.523438 L 8.53125 25.523438 C 8.417969 25.527344 8.304688 25.484375 8.21875 25.40625 C 8.136719 25.324219 8.085938 25.214844 8.085938 25.101562 Z M 9.75 27.070312 L 8.085938 27.070312 L 8.085938 26.386719 C 8.199219 26.433594 8.375 26.441406 8.53125 26.441406 L 9.75 26.441406 Z M 18.238281 27.070312 L 18.238281 26.441406 L 19.457031 26.441406 C 19.609375 26.441406 19.785156 26.433594 19.902344 26.386719 L 19.902344 27.070312 Z M 18.238281 27.070312 "/>
<path style=" stroke:none;fill-rule:nonzero;fill:rgb(0%,0%,0%);fill-opacity:1;" d="M 11.527344 23.113281 C 11.527344 22.859375 11.320312 22.652344 11.066406 22.652344 L 8.945312 22.652344 C 8.691406 22.652344 8.488281 22.859375 8.488281 23.113281 L 8.488281 24.605469 C 8.488281 24.859375 8.691406 25.0625 8.945312 25.0625 L 11.066406 25.0625 C 11.320312 25.0625 11.527344 24.859375 11.527344 24.605469 Z M 9.40625 23.570312 L 10.667969 23.570312 L 10.667969 24.144531 L 9.40625 24.144531 Z M 9.40625 23.570312 "/>
<path style=" stroke:none;fill-rule:nonzero;fill:rgb(0%,0%,0%);fill-opacity:1;" d="M 19.441406 23.113281 C 19.441406 22.859375 19.238281 22.652344 18.984375 22.652344 L 16.859375 22.652344 C 16.609375 22.652344 16.402344 22.859375 16.402344 23.113281 L 16.402344 24.605469 C 16.402344 24.859375 16.609375 25.0625 16.859375 25.0625 L 18.984375 25.0625 C 19.238281 25.0625 19.441406 24.859375 19.441406 24.605469 Z M 17.320312 23.570312 L 18.582031 23.570312 L 18.582031 24.144531 L 17.320312 24.144531 Z M 17.320312 23.570312 "/>
<path style=" stroke:none;fill-rule:nonzero;fill:rgb(0%,0%,0%);fill-opacity:1;" d="M 12.621094 24.261719 L 15.367188 24.261719 C 15.621094 24.261719 15.824219 24.054688 15.824219 23.800781 C 15.824219 23.546875 15.621094 23.34375 15.367188 23.34375 L 12.621094 23.34375 C 12.367188 23.34375 12.160156 23.546875 12.160156 23.800781 C 12.160156 24.054688 12.367188 24.261719 12.621094 24.261719 Z M 12.621094 24.261719 "/>
</g>
</svg>
