<?xml version="1.0" encoding="UTF-8"?>
<svg xmlns="http://www.w3.org/2000/svg" xmlns:xlink="http://www.w3.org/1999/xlink" width="28pt" height="28pt" viewBox="0 0 28 28" version="1.1">
<g id="surface1">
<path style=" stroke:none;fill-rule:nonzero;fill:rgb(0%,0%,0%);fill-opacity:1;" d="M 20.683594 15.609375 L 20.535156 16.921875 C 20.480469 16.890625 20.425781 16.863281 20.371094 16.835938 L 19.742188 14.097656 C 19.511719 12.789062 18.527344 11.832031 17.089844 11.878906 L 11.085938 11.878906 C 9.785156 11.878906 8.65625 12.371094 8.433594 14.097656 L 7.804688 16.835938 C 7.746094 16.863281 7.695312 16.890625 7.636719 16.921875 L 7.492188 15.609375 C 7.492188 15.609375 5.398438 14.6875 4.902344 15.609375 C 4.402344 16.53125 4.902344 16.863281 4.902344 16.863281 L 7.507812 17.003906 C 7.019531 17.328125 6.707031 17.824219 6.707031 18.378906 L 6.707031 20.890625 C 6.707031 21.515625 7.101562 22.0625 7.695312 22.378906 L 7.695312 24.066406 C 7.695312 24.636719 8.402344 25.097656 9.273438 25.097656 C 10.140625 25.097656 10.847656 24.636719 10.847656 24.066406 L 10.847656 22.664062 L 17.058594 22.664062 L 17.058594 24.066406 C 17.058594 24.636719 17.761719 25.097656 18.632812 25.097656 C 19.503906 25.097656 20.207031 24.636719 20.207031 24.066406 L 20.207031 22.5 C 20.953125 22.21875 21.46875 21.605469 21.46875 20.890625 L 21.46875 18.378906 C 21.46875 17.824219 21.15625 17.328125 20.667969 17.003906 L 23.273438 16.863281 C 23.273438 16.863281 23.378906 16.53125 23.273438 15.609375 C 23.171875 14.6875 20.683594 15.609375 20.683594 15.609375 Z M 11.117188 20.402344 L 8.277344 20.402344 L 8.277344 19.050781 L 11.117188 19.050781 Z M 16.679688 20.445312 L 11.808594 20.445312 L 11.808594 19.855469 L 16.679688 19.855469 Z M 16.726562 19.683594 L 11.859375 19.683594 L 11.859375 19.09375 L 16.726562 19.09375 Z M 8.472656 16.457031 C 8.429688 16.457031 8.386719 16.460938 8.34375 16.460938 L 9.019531 13.753906 C 9.144531 12.988281 10 12.324219 10.835938 12.324219 L 17.339844 12.324219 C 18.175781 12.324219 18.945312 12.863281 19.15625 13.753906 L 19.828125 16.460938 C 19.789062 16.460938 19.746094 16.457031 19.703125 16.457031 Z M 20.292969 20.402344 L 17.449219 20.402344 L 17.449219 19.050781 L 20.292969 19.050781 Z M 20.292969 20.402344 "/>
<path style=" stroke:none;fill-rule:nonzero;fill:rgb(0%,0%,0%);fill-opacity:1;" d="M 14.101562 2.207031 L 0 8.203125 L 0 25.792969 L 3.011719 25.792969 L 3.011719 10.203125 L 24.988281 10.203125 L 24.988281 25.792969 L 28 25.792969 L 28 8.203125 Z M 14.101562 2.207031 "/>
</g>
</svg>
