<?xml version="1.0" encoding="UTF-8"?>
<svg xmlns="http://www.w3.org/2000/svg" xmlns:xlink="http://www.w3.org/1999/xlink" width="28pt" height="28pt" viewBox="0 0 28 28" version="1.1">
<g id="surface1">
<path style=" stroke:none;fill-rule:nonzero;fill:rgb(0%,0%,0%);fill-opacity:1;" d="M 6.957031 22.710938 C 6.0625 22.710938 5.363281 21.972656 5.363281 21.117188 C 5.363281 20.222656 6.101562 19.523438 6.957031 19.523438 C 7.855469 19.523438 8.550781 20.222656 8.550781 21.117188 C 8.550781 22.011719 7.855469 22.710938 6.957031 22.710938 Z M 19.160156 13.195312 C 18.738281 12.296875 18.34375 12.109375 17.414062 12.109375 L 10.417969 12.109375 C 9.484375 12.109375 9.097656 12.304688 8.671875 13.195312 L 6.496094 17.777344 L 21.378906 17.777344 Z M 26.738281 9.65625 L 16.871094 1.886719 C 16.050781 1.261719 15.003906 0.914062 13.957031 0.914062 C 12.90625 0.914062 11.859375 1.226562 11.042969 1.886719 L 1.167969 9.65625 C 0.160156 10.394531 0 11.136719 0 12.261719 L 0 25.398438 C 0 26.332031 0.738281 27.066406 1.667969 27.066406 L 3.6875 27.066406 L 3.6875 19.796875 C 3.6875 19.175781 3.765625 18.710938 4.078125 18.050781 L 7.261719 11.402344 C 7.652344 10.628906 8.621094 10.007812 9.480469 10.007812 L 18.496094 10.007812 C 19.351562 10.007812 20.363281 10.628906 20.710938 11.402344 L 23.90625 18.050781 C 24.214844 18.710938 24.292969 19.175781 24.292969 19.796875 L 24.292969 27.058594 L 26.3125 27.058594 C 27.246094 27.058594 27.980469 26.324219 27.980469 25.390625 L 27.980469 12.261719 C 27.90625 11.09375 27.746094 10.394531 26.738281 9.65625 Z M 20.871094 19.523438 C 19.972656 19.523438 19.277344 20.222656 19.277344 21.117188 C 19.277344 22.011719 19.972656 22.710938 20.871094 22.710938 C 21.765625 22.710938 22.464844 21.972656 22.464844 21.117188 C 22.464844 20.261719 21.765625 19.523438 20.871094 19.523438 Z M 7.15625 27.023438 L 20.679688 27.023438 L 20.679688 24.652344 L 7.15625 24.652344 Z M 7.15625 27.023438 "/>
</g>
</svg>
