<?xml version="1.0" encoding="UTF-8"?>
<svg xmlns="http://www.w3.org/2000/svg" xmlns:xlink="http://www.w3.org/1999/xlink" width="28pt" height="28pt" viewBox="0 0 28 28" version="1.1">
<g id="surface1">
<path style=" stroke:none;fill-rule:nonzero;fill:rgb(0%,0%,0%);fill-opacity:1;" d="M 14 19.699219 C 13.738281 19.890625 13.464844 20.0625 13.179688 20.21875 L 13.179688 28 L 14.820312 28 L 14.820312 20.21875 C 14.539062 20.0625 14.261719 19.890625 14 19.699219 Z M 14 19.699219 "/>
<path style=" stroke:none;fill-rule:nonzero;fill:rgb(0%,0%,0%);fill-opacity:1;" d="M 21.554688 6.535156 C 21.308594 4.816406 20.484375 3.238281 19.203125 2.046875 C 17.785156 0.726562 15.9375 0 14 0 C 12.0625 0 10.214844 0.726562 8.796875 2.046875 C 7.515625 3.238281 6.691406 4.816406 6.445312 6.535156 C 3.683594 7.738281 1.863281 10.488281 1.863281 13.53125 C 1.863281 17.742188 5.289062 21.167969 9.5 21.167969 C 10.796875 21.167969 12.058594 20.835938 13.179688 20.21875 L 13.179688 16.878906 L 9.5 14.945312 L 10.265625 13.492188 L 13.179688 15.027344 L 13.179688 8.160156 L 14.820312 8.160156 L 14.820312 11.390625 L 17.734375 9.855469 L 18.5 11.308594 L 14.820312 13.242188 L 14.820312 20.21875 C 15.941406 20.835938 17.203125 21.167969 18.5 21.167969 C 22.710938 21.167969 26.136719 17.742188 26.136719 13.53125 C 26.136719 10.488281 24.316406 7.738281 21.554688 6.535156 Z M 21.554688 6.535156 "/>
</g>
</svg>
