<?xml version="1.0" encoding="UTF-8"?>
<svg xmlns="http://www.w3.org/2000/svg" xmlns:xlink="http://www.w3.org/1999/xlink" width="28pt" height="28pt" viewBox="0 0 28 28" version="1.1">
<g id="surface1">
<path style=" stroke:none;fill-rule:nonzero;fill:rgb(0%,0%,0%);fill-opacity:1;" d="M 27.988281 23.761719 L 25.992188 8.347656 C 25.980469 8.246094 25.9375 8.152344 25.875 8.078125 C 26.308594 7.601562 26.570312 6.96875 26.570312 6.277344 C 26.570312 4.792969 25.363281 3.585938 23.878906 3.585938 C 22.394531 3.585938 21.1875 4.792969 21.1875 6.277344 C 21.1875 6.96875 21.453125 7.601562 21.882812 8.078125 C 21.808594 8.171875 21.761719 8.289062 21.761719 8.417969 L 21.761719 8.570312 C 20.871094 7.976562 19.917969 7.492188 18.921875 7.117188 L 18.921875 6.335938 C 18.921875 6.03125 18.675781 5.789062 18.375 5.789062 C 18.074219 5.789062 17.828125 6.03125 17.828125 6.335938 L 17.828125 6.757812 C 16.761719 6.453125 15.660156 6.273438 14.546875 6.230469 L 14.546875 5.480469 C 14.546875 5.179688 14.300781 4.933594 14 4.933594 C 13.699219 4.933594 13.453125 5.179688 13.453125 5.480469 L 13.453125 6.230469 C 12.339844 6.273438 11.238281 6.453125 10.171875 6.757812 L 10.171875 6.335938 C 10.171875 6.03125 9.925781 5.789062 9.625 5.789062 C 9.324219 5.789062 9.078125 6.03125 9.078125 6.335938 L 9.078125 7.117188 C 8.082031 7.492188 7.125 7.976562 6.234375 8.570312 L 6.234375 8.417969 C 6.234375 8.289062 6.191406 8.171875 6.117188 8.078125 C 6.546875 7.601562 6.808594 6.96875 6.808594 6.277344 C 6.808594 4.792969 5.601562 3.585938 4.121094 3.585938 C 2.636719 3.585938 1.429688 4.792969 1.429688 6.277344 C 1.429688 6.96875 1.691406 7.601562 2.121094 8.078125 C 2.0625 8.152344 2.019531 8.246094 2.007812 8.347656 L 0.00390625 23.796875 C -0.015625 23.953125 0.03125 24.109375 0.136719 24.230469 C 0.238281 24.347656 0.390625 24.414062 0.546875 24.414062 L 5.6875 24.414062 C 5.992188 24.414062 6.234375 24.171875 6.234375 23.867188 L 6.234375 23.253906 L 21.761719 23.253906 L 21.761719 23.867188 C 21.761719 24.171875 22.007812 24.414062 22.308594 24.414062 L 27.453125 24.414062 C 27.753906 24.414062 28 24.171875 28 23.867188 C 28 23.832031 27.996094 23.796875 27.988281 23.761719 Z M 1.167969 23.320312 L 1.300781 22.300781 L 2.4375 22.300781 C 2.738281 22.300781 2.984375 22.058594 2.984375 21.753906 C 2.984375 21.453125 2.738281 21.207031 2.4375 21.207031 L 1.441406 21.207031 L 3.03125 8.964844 L 5.140625 8.964844 C 5.140625 8.964844 5.140625 23.320312 5.140625 23.320312 Z M 4.121094 7.871094 C 3.238281 7.871094 2.523438 7.15625 2.523438 6.277344 C 2.523438 5.394531 3.238281 4.679688 4.121094 4.679688 C 5 4.679688 5.714844 5.394531 5.714844 6.277344 C 5.714844 7.15625 5 7.871094 4.121094 7.871094 Z M 9.078125 22.160156 L 6.234375 22.160156 L 6.234375 14.640625 L 9.078125 14.640625 Z M 9.078125 13.546875 L 6.234375 13.546875 L 6.234375 9.910156 C 7.113281 9.25 8.070312 8.707031 9.078125 8.292969 Z M 13.453125 22.160156 L 10.171875 22.160156 L 10.171875 14.640625 L 13.453125 14.640625 Z M 13.453125 13.546875 L 10.171875 13.546875 L 10.171875 7.898438 C 11.234375 7.566406 12.335938 7.371094 13.453125 7.324219 Z M 17.828125 22.160156 L 14.546875 22.160156 L 14.546875 14.640625 L 17.828125 14.640625 Z M 17.828125 13.546875 L 14.546875 13.546875 L 14.546875 7.324219 C 15.664062 7.371094 16.765625 7.566406 17.828125 7.898438 Z M 21.761719 22.160156 L 18.921875 22.160156 L 18.921875 14.640625 L 21.761719 14.640625 Z M 21.761719 13.546875 L 18.921875 13.546875 L 18.921875 8.292969 C 19.929688 8.707031 20.886719 9.25 21.761719 9.910156 Z M 22.28125 6.277344 C 22.28125 5.394531 23 4.679688 23.878906 4.679688 C 24.761719 4.679688 25.476562 5.394531 25.476562 6.277344 C 25.476562 7.15625 24.761719 7.871094 23.878906 7.871094 C 23 7.871094 22.28125 7.15625 22.28125 6.277344 Z M 22.855469 23.320312 L 22.855469 8.964844 L 24.96875 8.964844 L 26.554688 21.207031 L 25.5625 21.207031 C 25.257812 21.207031 25.015625 21.453125 25.015625 21.753906 C 25.015625 22.058594 25.257812 22.300781 25.5625 22.300781 L 26.699219 22.300781 L 26.828125 23.320312 Z M 22.855469 23.320312 "/>
<path style=" stroke:none;fill-rule:nonzero;fill:rgb(0%,0%,0%);fill-opacity:1;" d="M 4.023438 21.207031 L 4.007812 21.207031 C 3.707031 21.207031 3.460938 21.453125 3.460938 21.753906 C 3.460938 22.058594 3.707031 22.300781 4.007812 22.300781 L 4.023438 22.300781 C 4.324219 22.300781 4.570312 22.058594 4.570312 21.753906 C 4.570312 21.453125 4.324219 21.207031 4.023438 21.207031 Z M 4.023438 21.207031 "/>
<path style=" stroke:none;fill-rule:nonzero;fill:rgb(0%,0%,0%);fill-opacity:1;" d="M 23.988281 21.207031 L 23.976562 21.207031 C 23.675781 21.207031 23.429688 21.453125 23.429688 21.753906 C 23.429688 22.058594 23.675781 22.300781 23.976562 22.300781 L 23.988281 22.300781 C 24.292969 22.300781 24.535156 22.058594 24.535156 21.753906 C 24.535156 21.453125 24.292969 21.207031 23.988281 21.207031 Z M 23.988281 21.207031 "/>
</g>
</svg>
