<?xml version="1.0" encoding="UTF-8"?>
<svg xmlns="http://www.w3.org/2000/svg" xmlns:xlink="http://www.w3.org/1999/xlink" width="28pt" height="28pt" viewBox="0 0 28 28" version="1.1">
<g id="surface1">
<path style=" stroke:none;fill-rule:nonzero;fill:rgb(0%,0%,0%);fill-opacity:1;" d="M 11.582031 7.507812 C 9.242188 7.507812 7.035156 8.875 5.3125 10.429688 L 5.3125 10.164062 C 5.3125 8.699219 4.121094 7.507812 2.65625 7.507812 C 1.191406 7.507812 0 8.699219 0 10.164062 L 0 26.960938 C 0 27.429688 0.378906 27.808594 0.847656 27.808594 L 4.464844 27.808594 C 4.933594 27.808594 5.3125 27.429688 5.3125 26.960938 L 5.3125 26.421875 C 5.589844 26.421875 11.316406 26.421875 11.582031 26.421875 C 12.050781 26.421875 12.429688 26.042969 12.429688 25.574219 L 12.429688 8.355469 C 12.429688 7.886719 12.050781 7.507812 11.582031 7.507812 Z M 3.617188 26.109375 L 1.699219 26.109375 L 1.699219 10.164062 C 1.699219 9.636719 2.128906 9.207031 2.65625 9.207031 C 3.1875 9.207031 3.617188 9.636719 3.617188 10.164062 C 3.617188 10.875 3.617188 25.53125 3.617188 26.109375 Z M 7.0625 24.722656 L 5.3125 24.722656 L 5.3125 12.835938 C 5.6875 12.421875 6.292969 11.792969 7.0625 11.171875 Z M 10.730469 24.722656 L 8.757812 24.722656 L 8.757812 10.019531 C 9.207031 9.757812 9.988281 9.425781 10.730469 9.285156 Z M 10.730469 24.722656 "/>
<path style=" stroke:none;fill-rule:nonzero;fill:rgb(0%,0%,0%);fill-opacity:1;" d="M 25.34375 7.507812 C 23.878906 7.507812 22.6875 8.699219 22.6875 10.164062 L 22.6875 10.429688 C 20.96875 8.875 18.757812 7.507812 16.417969 7.507812 C 15.949219 7.507812 15.570312 7.886719 15.570312 8.355469 L 15.570312 25.574219 C 15.570312 26.042969 15.949219 26.421875 16.417969 26.421875 C 16.683594 26.421875 22.410156 26.421875 22.6875 26.421875 L 22.6875 26.960938 C 22.6875 27.429688 23.066406 27.808594 23.535156 27.808594 L 27.152344 27.808594 C 27.621094 27.808594 28 27.429688 28 26.960938 L 28 10.164062 C 28 8.699219 26.808594 7.507812 25.34375 7.507812 Z M 19.242188 24.722656 L 17.269531 24.722656 L 17.269531 9.285156 C 18.03125 9.429688 18.824219 9.777344 19.242188 10.019531 Z M 22.6875 24.722656 L 20.9375 24.722656 L 20.9375 11.171875 C 21.703125 11.792969 22.3125 12.421875 22.6875 12.835938 Z M 26.300781 26.109375 L 24.382812 26.109375 C 24.382812 25.535156 24.382812 10.871094 24.382812 10.164062 C 24.382812 9.636719 24.8125 9.207031 25.34375 9.207031 C 25.871094 9.207031 26.300781 9.636719 26.300781 10.164062 Z M 26.300781 26.109375 "/>
<path style=" stroke:none;fill-rule:nonzero;fill:rgb(0%,0%,0%);fill-opacity:1;" d="M 5.535156 6.125 C 5.867188 6.457031 6.40625 6.457031 6.738281 6.125 C 7.070312 5.792969 7.070312 5.253906 6.738281 4.921875 L 5.945312 4.132812 L 9.332031 4.132812 C 9.800781 4.132812 10.179688 3.75 10.179688 3.28125 C 10.179688 2.8125 9.800781 2.433594 9.332031 2.433594 L 5.945312 2.433594 L 6.738281 1.640625 C 7.070312 1.308594 7.070312 0.773438 6.738281 0.441406 C 6.40625 0.109375 5.867188 0.109375 5.535156 0.441406 L 3.292969 2.683594 C 2.960938 3.011719 2.960938 3.550781 3.292969 3.882812 Z M 5.535156 6.125 "/>
<path style=" stroke:none;fill-rule:nonzero;fill:rgb(0%,0%,0%);fill-opacity:1;" d="M 18.496094 4.132812 L 21.878906 4.132812 L 21.085938 4.921875 C 20.757812 5.253906 20.757812 5.792969 21.085938 6.125 C 21.417969 6.457031 21.957031 6.457031 22.289062 6.125 L 24.53125 3.882812 C 24.863281 3.550781 24.863281 3.011719 24.53125 2.679688 L 22.289062 0.441406 C 21.957031 0.109375 21.417969 0.109375 21.085938 0.441406 C 20.757812 0.769531 20.757812 1.308594 21.085938 1.640625 L 21.878906 2.433594 L 18.496094 2.433594 C 18.023438 2.433594 17.644531 2.8125 17.644531 3.28125 C 17.644531 3.75 18.023438 4.132812 18.496094 4.132812 Z M 18.496094 4.132812 "/>
</g>
</svg>
