<?xml version="1.0" encoding="UTF-8"?>
<svg xmlns="http://www.w3.org/2000/svg" xmlns:xlink="http://www.w3.org/1999/xlink" width="28pt" height="28pt" viewBox="0 0 28 28" version="1.1">
<g id="surface1">
<path style=" stroke:none;fill-rule:nonzero;fill:rgb(0%,0%,0%);fill-opacity:1;" d="M 3.652344 2.128906 C 1.636719 2.128906 0 3.769531 0 5.78125 C 0 7.796875 1.636719 9.433594 3.652344 9.433594 C 5.667969 9.433594 7.304688 7.796875 7.304688 5.78125 C 7.304688 3.769531 5.667969 2.128906 3.652344 2.128906 Z M 3.652344 2.128906 "/>
<path style=" stroke:none;fill-rule:nonzero;fill:rgb(0%,0%,0%);fill-opacity:1;" d="M 24.347656 11.261719 C 22.417969 11.261719 20.660156 10.222656 19.691406 8.652344 C 19.347656 8.527344 18.972656 8.40625 18.566406 8.285156 L 18.566406 7.160156 C 18.566406 6.65625 18.15625 6.246094 17.652344 6.246094 C 17.148438 6.246094 16.738281 6.65625 16.738281 7.160156 L 16.738281 7.863281 C 16.160156 7.757812 15.550781 7.679688 14.914062 7.640625 L 14.914062 4.871094 C 14.914062 4.363281 14.503906 3.957031 14 3.957031 C 13.496094 3.957031 13.085938 4.363281 13.085938 4.871094 L 13.085938 7.640625 C 12.449219 7.679688 11.839844 7.757812 11.261719 7.863281 L 11.261719 7.160156 C 11.261719 6.65625 10.851562 6.246094 10.347656 6.246094 C 9.84375 6.246094 9.433594 6.65625 9.433594 7.160156 L 9.433594 8.285156 C 9.027344 8.40625 8.652344 8.527344 8.308594 8.652344 C 7.351562 10.203125 5.601562 11.261719 3.652344 11.261719 C 2.25 11.261719 0.96875 10.726562 0 9.855469 L 0 24.957031 C 0 25.460938 0.410156 25.871094 0.914062 25.871094 L 6.390625 25.871094 C 6.894531 25.871094 7.304688 25.460938 7.304688 24.957031 L 7.304688 24.042969 L 20.695312 24.042969 L 20.695312 24.957031 C 20.695312 25.460938 21.105469 25.871094 21.609375 25.871094 L 27.085938 25.871094 C 27.589844 25.871094 28 25.460938 28 24.957031 L 28 9.855469 C 27.03125 10.726562 25.75 11.261719 24.347656 11.261719 Z M 9.433594 22.21875 L 7.304688 22.21875 L 7.304688 11.058594 C 7.621094 10.898438 8.382812 10.539062 9.433594 10.199219 Z M 13.085938 22.21875 L 11.261719 22.21875 L 11.261719 9.71875 C 11.832031 9.601562 12.445312 9.515625 13.085938 9.472656 Z M 16.738281 22.21875 L 14.914062 22.21875 L 14.914062 9.472656 C 15.550781 9.515625 16.164062 9.605469 16.738281 9.71875 Z M 20.695312 22.21875 L 18.566406 22.21875 L 18.566406 10.203125 C 19.613281 10.542969 20.378906 10.902344 20.695312 11.058594 Z M 20.695312 22.21875 "/>
<path style=" stroke:none;fill-rule:nonzero;fill:rgb(0%,0%,0%);fill-opacity:1;" d="M 24.347656 2.128906 C 22.332031 2.128906 20.695312 3.769531 20.695312 5.78125 C 20.695312 7.796875 22.332031 9.433594 24.347656 9.433594 C 26.363281 9.433594 28 7.796875 28 5.78125 C 28 3.769531 26.363281 2.128906 24.347656 2.128906 Z M 24.347656 2.128906 "/>
</g>
</svg>
