<?xml version="1.0" encoding="UTF-8"?>
<svg xmlns="http://www.w3.org/2000/svg" xmlns:xlink="http://www.w3.org/1999/xlink" width="28pt" height="28pt" viewBox="0 0 28 28" version="1.1">
<g id="surface1">
<path style=" stroke:none;fill-rule:nonzero;fill:rgb(0%,0%,0%);fill-opacity:1;" d="M 25.199219 28 L 2.800781 28 C 2.566406 28 2.375 27.808594 2.375 27.570312 L 2.375 10.382812 L 1.890625 10.382812 C 1.65625 10.382812 1.464844 10.191406 1.464844 9.953125 L 1.464844 6.066406 C 1.464844 5.832031 1.65625 5.640625 1.890625 5.640625 L 10.277344 5.640625 L 6.707031 4.808594 C 6.046875 4.652344 5.476562 4.226562 5.140625 3.640625 C 4.804688 3.050781 4.730469 2.34375 4.9375 1.699219 C 5.261719 0.683594 6.195312 0 7.265625 0 C 7.886719 0 8.476562 0.238281 8.933594 0.667969 L 12.117188 3.691406 C 12.316406 3.179688 12.816406 2.820312 13.394531 2.820312 L 14.605469 2.820312 C 15.183594 2.820312 15.683594 3.179688 15.882812 3.691406 L 19.066406 0.667969 C 19.523438 0.238281 20.113281 0 20.734375 0 C 21.804688 0 22.742188 0.683594 23.0625 1.699219 C 23.269531 2.34375 23.195312 3.050781 22.859375 3.640625 C 22.523438 4.226562 21.953125 4.652344 21.292969 4.808594 L 17.722656 5.640625 L 26.109375 5.640625 C 26.34375 5.640625 26.535156 5.832031 26.535156 6.066406 L 26.535156 9.953125 C 26.535156 10.191406 26.34375 10.382812 26.109375 10.382812 L 25.625 10.382812 L 25.625 27.570312 C 25.625 27.808594 25.433594 28 25.199219 28 Z M 16.601562 27.144531 L 24.769531 27.144531 L 24.769531 10.382812 L 16.601562 10.382812 Z M 12.253906 27.144531 L 15.746094 27.144531 L 15.746094 10.382812 L 12.253906 10.382812 Z M 3.230469 27.144531 L 11.398438 27.144531 L 11.398438 10.382812 L 3.230469 10.382812 Z M 25.199219 9.527344 L 25.679688 9.527344 L 25.679688 6.496094 L 16.601562 6.496094 L 16.601562 9.527344 Z M 12.253906 9.527344 L 15.746094 9.527344 L 15.746094 6.496094 L 12.253906 6.496094 Z M 2.800781 9.527344 L 11.398438 9.527344 L 11.398438 6.496094 L 2.320312 6.496094 L 2.320312 9.527344 Z M 13.394531 5.640625 L 14.605469 5.640625 C 14.742188 5.640625 14.871094 5.585938 14.96875 5.488281 C 14.972656 5.484375 14.976562 5.476562 14.984375 5.472656 C 15.074219 5.378906 15.121094 5.253906 15.125 5.125 L 15.125 4.195312 C 15.125 3.90625 14.890625 3.675781 14.605469 3.675781 L 13.394531 3.675781 C 13.109375 3.675781 12.875 3.90625 12.875 4.195312 L 12.875 5.121094 C 12.878906 5.253906 12.925781 5.378906 13.015625 5.472656 C 13.019531 5.476562 13.027344 5.484375 13.03125 5.488281 C 13.128906 5.585938 13.257812 5.640625 13.394531 5.640625 Z M 15.980469 4.777344 L 15.980469 5.121094 C 15.980469 5.136719 15.980469 5.152344 15.976562 5.167969 L 21.101562 3.972656 C 21.535156 3.871094 21.894531 3.605469 22.113281 3.214844 C 22.335938 2.828125 22.382812 2.382812 22.246094 1.957031 C 22.039062 1.296875 21.429688 0.855469 20.734375 0.855469 C 20.335938 0.855469 19.949219 1.011719 19.65625 1.289062 Z M 7.265625 0.855469 C 6.570312 0.855469 5.960938 1.296875 5.753906 1.957031 C 5.617188 2.382812 5.664062 2.828125 5.886719 3.214844 C 6.105469 3.605469 6.464844 3.871094 6.898438 3.972656 L 12.023438 5.167969 C 12.019531 5.15625 12.019531 5.144531 12.019531 5.136719 C 12.019531 5.132812 12.019531 5.132812 12.019531 5.132812 L 12.019531 4.777344 L 8.34375 1.289062 C 8.050781 1.011719 7.664062 0.855469 7.265625 0.855469 Z M 7.265625 0.855469 "/>
</g>
</svg>
