<?xml version="1.0" encoding="UTF-8"?>
<svg xmlns="http://www.w3.org/2000/svg" xmlns:xlink="http://www.w3.org/1999/xlink" width="28pt" height="28pt" viewBox="0 0 28 28" version="1.1">
<g id="surface1">
<path style=" stroke:none;fill-rule:nonzero;fill:rgb(0%,0%,0%);fill-opacity:1;" d="M 28 14.125 C 28 10.386719 26.542969 6.867188 23.902344 4.226562 C 21.257812 1.582031 17.738281 0.125 14 0.125 C 10.261719 0.125 6.742188 1.582031 4.097656 4.226562 C 1.457031 6.867188 0 10.386719 0 14.125 L 0 20.753906 C 0 24.5 3.050781 27.550781 6.796875 27.550781 C 7.246094 27.550781 7.605469 27.191406 7.605469 26.742188 L 7.605469 14.773438 C 7.605469 14.324219 7.246094 13.964844 6.796875 13.964844 C 4.722656 13.964844 2.863281 14.894531 1.617188 16.359375 L 1.617188 14.125 C 1.617188 7.300781 7.171875 1.742188 14 1.742188 C 20.828125 1.742188 26.382812 7.300781 26.382812 14.125 C 26.382812 14.179688 26.386719 14.234375 26.398438 14.289062 C 26.386719 14.339844 26.382812 14.394531 26.382812 14.449219 L 26.382812 16.683594 C 25.136719 15.214844 23.277344 14.289062 21.203125 14.289062 C 20.753906 14.289062 20.394531 14.648438 20.394531 15.097656 L 20.394531 27.066406 C 20.394531 27.515625 20.753906 27.875 21.203125 27.875 C 24.949219 27.875 28 24.824219 28 21.078125 L 28 14.449219 C 28 14.394531 27.992188 14.339844 27.980469 14.289062 C 27.992188 14.234375 28 14.179688 28 14.125 Z M 5.980469 15.640625 L 5.980469 25.867188 C 3.511719 25.476562 1.613281 23.332031 1.613281 20.753906 C 1.617188 18.175781 3.511719 16.03125 5.980469 15.640625 Z M 22.019531 26.191406 L 22.019531 15.964844 C 24.488281 16.355469 26.386719 18.5 26.386719 21.078125 C 26.382812 23.660156 24.488281 25.800781 22.019531 26.191406 Z M 22.019531 26.191406 "/>
</g>
</svg>
