<?xml version="1.0" encoding="UTF-8"?>
<svg xmlns="http://www.w3.org/2000/svg" xmlns:xlink="http://www.w3.org/1999/xlink" width="28pt" height="28pt" viewBox="0 0 28 28" version="1.1">
<g id="surface1">
<path style=" stroke:none;fill-rule:nonzero;fill:rgb(0%,0%,0%);fill-opacity:1;" d="M 26.714844 25.449219 L 1.273438 25.449219 C 0.570312 25.449219 0 26.019531 0 26.722656 C 0 27.425781 0.570312 27.992188 1.273438 27.992188 L 26.714844 27.992188 C 27.417969 27.992188 27.988281 27.425781 27.988281 26.722656 C 27.988281 26.019531 27.417969 25.449219 26.714844 25.449219 Z M 26.714844 25.449219 "/>
<path style=" stroke:none;fill-rule:nonzero;fill:rgb(0%,0%,0%);fill-opacity:1;" d="M 2.863281 22.140625 C 2.160156 22.140625 1.589844 22.710938 1.589844 23.414062 C 1.589844 24.117188 2.160156 24.6875 2.863281 24.6875 L 25.125 24.6875 C 25.828125 24.6875 26.398438 24.117188 26.398438 23.414062 C 26.398438 22.710938 25.828125 22.140625 25.125 22.140625 L 24.808594 22.140625 L 24.808594 10.691406 L 25.125 10.691406 C 25.476562 10.691406 25.761719 10.40625 25.761719 10.054688 C 25.761719 9.703125 25.476562 9.417969 25.125 9.417969 L 2.863281 9.417969 C 2.511719 9.417969 2.226562 9.703125 2.226562 10.054688 C 2.226562 10.40625 2.511719 10.691406 2.863281 10.691406 L 3.179688 10.691406 L 3.179688 22.140625 Z M 22.261719 10.691406 L 22.261719 22.140625 L 18.445312 22.140625 L 18.445312 10.691406 Z M 15.902344 10.691406 L 15.902344 22.140625 L 12.085938 22.140625 L 12.085938 10.691406 Z M 5.722656 10.691406 L 9.539062 10.691406 L 9.539062 22.140625 L 5.722656 22.140625 Z M 5.722656 10.691406 "/>
<path style=" stroke:none;fill-rule:nonzero;fill:rgb(0%,0%,0%);fill-opacity:1;" d="M 1.273438 8.277344 L 26.714844 8.277344 C 26.71875 8.277344 26.722656 8.277344 26.726562 8.277344 C 27.433594 8.277344 28 7.707031 28 7.003906 C 28 6.445312 27.640625 5.96875 27.140625 5.800781 L 14.515625 0.117188 C 14.183594 -0.03125 13.804688 -0.03125 13.472656 0.117188 L 0.75 5.84375 C 0.203125 6.089844 -0.0976562 6.683594 0.0273438 7.269531 C 0.15625 7.855469 0.671875 8.277344 1.273438 8.277344 Z M 1.273438 8.277344 "/>
</g>
</svg>
