<?xml version="1.0" encoding="UTF-8"?>
<svg xmlns="http://www.w3.org/2000/svg" xmlns:xlink="http://www.w3.org/1999/xlink" width="28pt" height="28pt" viewBox="0 0 28 28" version="1.1">
<g id="surface1">
<path style=" stroke:none;fill-rule:nonzero;fill:rgb(0%,0%,0%);fill-opacity:1;" d="M 19.234375 5.734375 L 3.78125 5.734375 C 3.554688 5.734375 3.371094 5.917969 3.371094 6.144531 L 3.371094 11.035156 C 3.371094 11.261719 3.554688 11.445312 3.78125 11.445312 L 19.234375 11.445312 C 19.460938 11.445312 19.644531 11.261719 19.644531 11.035156 L 19.644531 6.144531 C 19.644531 5.917969 19.460938 5.734375 19.234375 5.734375 Z M 7.234375 10.625 L 4.191406 10.625 L 4.191406 6.554688 L 7.234375 6.554688 Z M 11.097656 10.625 L 8.054688 10.625 L 8.054688 6.554688 L 11.097656 6.554688 Z M 14.960938 10.625 L 11.917969 10.625 L 11.917969 6.554688 L 14.960938 6.554688 Z M 18.824219 10.625 L 15.78125 10.625 L 15.78125 6.554688 L 18.824219 6.554688 Z M 18.824219 10.625 "/>
<path style=" stroke:none;fill-rule:nonzero;fill:rgb(0%,0%,0%);fill-opacity:1;" d="M 27.589844 12.886719 L 22.0625 12.886719 L 22.0625 5.078125 L 22.605469 5.078125 C 22.832031 5.078125 23.015625 4.894531 23.015625 4.667969 L 23.015625 2.578125 C 23.015625 2.351562 22.832031 2.167969 22.605469 2.167969 C 22.605469 2.167969 5.308594 2.167969 5.238281 2.167969 C 4.714844 2.167969 4.707031 2.988281 5.238281 2.988281 L 22.195312 2.988281 L 22.195312 4.257812 L 0.820312 4.257812 L 0.820312 2.988281 C 0.820312 2.988281 3.578125 2.988281 3.597656 2.988281 C 4.121094 2.988281 4.132812 2.167969 3.597656 2.167969 L 0.410156 2.167969 C 0.183594 2.167969 0 2.351562 0 2.578125 L 0 4.667969 C 0 4.894531 0.183594 5.078125 0.410156 5.078125 L 0.957031 5.078125 L 0.957031 25.421875 C 0.957031 25.648438 1.140625 25.832031 1.367188 25.832031 L 27.589844 25.832031 C 27.816406 25.832031 28 25.648438 28 25.421875 L 28 13.296875 C 28 13.070312 27.816406 12.886719 27.589844 12.886719 Z M 9.285156 25.011719 L 6.777344 25.011719 L 6.777344 15.453125 L 9.285156 15.453125 Z M 10.902344 25.011719 L 10.105469 25.011719 L 10.105469 15.042969 C 10.105469 14.816406 9.921875 14.632812 9.695312 14.632812 L 6.367188 14.632812 C 6.140625 14.632812 5.957031 14.816406 5.957031 15.042969 L 5.957031 25.011719 L 5.160156 25.011719 L 5.160156 13.707031 L 10.902344 13.707031 Z M 14.394531 13.296875 L 14.394531 25.011719 L 11.722656 25.011719 L 11.722656 13.296875 C 11.722656 13.070312 11.539062 12.886719 11.3125 12.886719 L 4.75 12.886719 C 4.523438 12.886719 4.339844 13.070312 4.339844 13.296875 L 4.339844 25.011719 L 1.777344 25.011719 L 1.777344 5.078125 L 21.242188 5.078125 L 21.242188 12.886719 L 14.804688 12.886719 C 14.578125 12.886719 14.394531 13.070312 14.394531 13.296875 Z M 25.101562 25.011719 L 17.296875 25.011719 L 17.296875 23.371094 L 25.101562 23.371094 Z M 25.101562 22.550781 L 17.296875 22.550781 L 17.296875 20.910156 L 25.101562 20.910156 Z M 25.101562 20.089844 L 17.296875 20.089844 L 17.296875 18.445312 L 25.101562 18.445312 Z M 25.101562 17.625 L 17.296875 17.625 L 17.296875 15.984375 L 25.101562 15.984375 Z M 27.179688 25.011719 L 25.921875 25.011719 L 25.921875 15.574219 C 25.921875 15.558594 25.921875 15.542969 25.917969 15.53125 C 25.898438 15.339844 25.742188 15.183594 25.554688 15.164062 C 25.539062 15.164062 25.523438 15.164062 25.511719 15.164062 L 16.886719 15.164062 C 16.871094 15.164062 16.855469 15.164062 16.84375 15.164062 C 16.65625 15.183594 16.496094 15.339844 16.476562 15.53125 C 16.476562 15.542969 16.476562 15.558594 16.476562 15.574219 L 16.476562 25.011719 L 15.214844 25.011719 L 15.214844 13.707031 L 27.179688 13.707031 Z M 27.179688 25.011719 "/>
</g>
</svg>
