<?xml version="1.0" encoding="UTF-8"?>
<svg xmlns="http://www.w3.org/2000/svg" xmlns:xlink="http://www.w3.org/1999/xlink" width="28pt" height="28pt" viewBox="0 0 28 28" version="1.1">
<g id="surface1">
<path style=" stroke:none;fill-rule:nonzero;fill:rgb(0%,0%,0%);fill-opacity:1;" d="M 27.742188 12.695312 L 14.566406 0.914062 C 14.542969 0.890625 14.519531 0.871094 14.488281 0.855469 C 14.203125 0.578125 13.742188 0.566406 13.4375 0.839844 L 0.257812 12.621094 C -0.0625 12.910156 -0.0859375 13.398438 0.195312 13.722656 C 0.351562 13.894531 0.566406 13.980469 0.777344 13.980469 C 0.960938 13.980469 1.148438 13.917969 1.296875 13.785156 L 3.667969 11.660156 L 3.667969 25.398438 C 3.667969 26.476562 4.542969 27.359375 5.628906 27.359375 C 5.644531 27.359375 5.65625 27.359375 5.671875 27.359375 C 5.691406 27.359375 5.703125 27.359375 5.71875 27.359375 L 9.785156 27.359375 C 10.796875 27.359375 11.621094 26.535156 11.621094 25.519531 L 11.621094 18.535156 C 11.621094 18.378906 11.75 18.253906 11.90625 18.253906 L 16.101562 18.253906 C 16.257812 18.253906 16.386719 18.378906 16.386719 18.535156 L 16.386719 25.519531 C 16.386719 26.535156 17.207031 27.359375 18.222656 27.359375 L 22.378906 27.359375 C 23.472656 27.359375 24.339844 26.28125 24.339844 24.90625 L 24.339844 11.734375 L 26.710938 13.859375 C 26.859375 13.992188 27.042969 14.054688 27.230469 14.054688 C 27.441406 14.054688 27.65625 13.96875 27.8125 13.796875 C 28.085938 13.472656 28.058594 12.984375 27.742188 12.695312 Z M 22.777344 16.539062 L 22.777344 24.894531 C 22.777344 25.453125 22.5 25.792969 22.375 25.792969 L 18.214844 25.792969 C 18.0625 25.792969 17.933594 25.664062 17.933594 25.511719 L 17.933594 18.535156 C 17.933594 17.523438 17.109375 16.699219 16.097656 16.699219 L 11.898438 16.699219 C 10.886719 16.699219 10.0625 17.523438 10.0625 18.535156 L 10.0625 25.519531 C 10.0625 25.675781 9.933594 25.804688 9.777344 25.804688 L 5.714844 25.804688 C 5.695312 25.804688 5.683594 25.804688 5.667969 25.804688 C 5.648438 25.804688 5.636719 25.804688 5.621094 25.804688 C 5.402344 25.804688 5.21875 25.625 5.21875 25.398438 L 5.21875 10.265625 L 13.960938 2.457031 L 22.777344 10.339844 Z M 22.777344 16.539062 "/>
</g>
</svg>
