<?xml version="1.0" encoding="UTF-8"?>
<svg xmlns="http://www.w3.org/2000/svg" xmlns:xlink="http://www.w3.org/1999/xlink" width="28pt" height="28pt" viewBox="0 0 28 28" version="1.1">
<g id="surface1">
<path style=" stroke:none;fill-rule:nonzero;fill:rgb(0%,0%,0%);fill-opacity:1;" d="M 14 28 C 6.28125 28 0 21.71875 0 14 C 0 6.28125 6.28125 0 14 0 C 21.71875 0 28 6.28125 28 14 C 28 21.71875 21.71875 28 14 28 Z M 14 1.167969 C 6.921875 1.167969 1.167969 6.921875 1.167969 14 C 1.167969 21.078125 6.921875 26.832031 14 26.832031 C 21.078125 26.832031 26.832031 21.078125 26.832031 14 C 26.832031 6.921875 21.078125 1.167969 14 1.167969 Z M 14 1.167969 "/>
<path style=" stroke:none;fill-rule:nonzero;fill:rgb(0%,0%,0%);fill-opacity:1;" d="M 14 16.332031 C 12.714844 16.332031 11.667969 15.285156 11.667969 14 C 11.667969 12.714844 12.714844 11.667969 14 11.667969 C 15.285156 11.667969 16.332031 12.714844 16.332031 14 C 16.332031 15.285156 15.285156 16.332031 14 16.332031 Z M 14 12.832031 C 13.355469 12.832031 12.832031 13.355469 12.832031 14 C 12.832031 14.644531 13.355469 15.167969 14 15.167969 C 14.644531 15.167969 15.167969 14.644531 15.167969 14 C 15.167969 13.355469 14.644531 12.832031 14 12.832031 Z M 14 12.832031 "/>
<path style=" stroke:none;fill-rule:nonzero;fill:rgb(0%,0%,0%);fill-opacity:1;" d="M 24.238281 18.824219 C 24.164062 18.824219 24.085938 18.8125 24.015625 18.78125 L 21.859375 17.886719 C 21.5625 17.765625 21.421875 17.421875 21.542969 17.125 C 21.667969 16.828125 22.011719 16.683594 22.308594 16.808594 L 24.460938 17.703125 C 24.757812 17.824219 24.898438 18.167969 24.777344 18.464844 C 24.683594 18.6875 24.46875 18.824219 24.238281 18.824219 Z M 3.761719 18.824219 C 3.53125 18.824219 3.3125 18.6875 3.222656 18.464844 C 3.097656 18.167969 3.238281 17.824219 3.535156 17.703125 L 5.691406 16.808594 C 5.988281 16.683594 6.332031 16.828125 6.453125 17.125 C 6.578125 17.421875 6.433594 17.765625 6.136719 17.886719 L 3.984375 18.78125 C 3.910156 18.808594 3.835938 18.824219 3.761719 18.824219 Z M 5.183594 14.800781 L 2.851562 14.800781 C 2.527344 14.800781 2.265625 14.539062 2.265625 14.214844 C 2.265625 13.894531 2.527344 13.632812 2.851562 13.632812 L 5.183594 13.632812 C 5.503906 13.632812 5.765625 13.894531 5.765625 14.214844 C 5.765625 14.539062 5.503906 14.800781 5.183594 14.800781 Z M 25.082031 14.585938 L 22.75 14.582031 C 22.425781 14.582031 22.167969 14.324219 22.167969 14 C 22.167969 13.675781 22.425781 13.417969 22.75 13.417969 L 25.082031 13.417969 C 25.40625 13.417969 25.664062 13.679688 25.664062 14 C 25.664062 14.324219 25.40625 14.585938 25.082031 14.585938 Z M 15.238281 13.34375 C 15.089844 13.34375 14.9375 13.289062 14.824219 13.175781 C 14.597656 12.945312 14.597656 12.578125 14.824219 12.351562 L 20.597656 6.578125 C 20.828125 6.347656 21.195312 6.347656 21.421875 6.578125 C 21.652344 6.804688 21.652344 7.171875 21.421875 7.402344 L 15.648438 13.175781 C 15.535156 13.289062 15.386719 13.34375 15.238281 13.34375 Z M 5.914062 11.234375 C 5.839844 11.234375 5.765625 11.21875 5.691406 11.191406 L 3.539062 10.296875 C 3.242188 10.171875 3.097656 9.832031 3.222656 9.535156 C 3.347656 9.234375 3.6875 9.097656 3.984375 9.21875 L 6.140625 10.113281 C 6.4375 10.234375 6.578125 10.578125 6.453125 10.875 C 6.359375 11.101562 6.144531 11.234375 5.914062 11.234375 Z M 22.082031 11.234375 C 21.855469 11.234375 21.636719 11.097656 21.542969 10.875 C 21.421875 10.578125 21.5625 10.234375 21.859375 10.113281 L 24.015625 9.21875 C 24.3125 9.097656 24.65625 9.238281 24.777344 9.535156 C 24.902344 9.835938 24.761719 10.175781 24.460938 10.296875 L 22.308594 11.191406 C 22.234375 11.21875 22.15625 11.234375 22.082031 11.234375 Z M 7.8125 8.394531 C 7.664062 8.394531 7.511719 8.339844 7.398438 8.222656 L 5.75 6.574219 C 5.523438 6.347656 5.523438 5.976562 5.75 5.75 C 5.980469 5.523438 6.347656 5.523438 6.578125 5.75 L 8.222656 7.398438 C 8.453125 7.628906 8.453125 7.996094 8.222656 8.222656 C 8.109375 8.339844 7.960938 8.394531 7.8125 8.394531 Z M 10.652344 6.5 C 10.421875 6.5 10.207031 6.363281 10.113281 6.136719 L 9.21875 3.984375 C 9.097656 3.6875 9.238281 3.34375 9.535156 3.222656 C 9.832031 3.097656 10.175781 3.238281 10.296875 3.535156 L 11.191406 5.691406 C 11.3125 5.988281 11.171875 6.332031 10.875 6.453125 C 10.800781 6.484375 10.726562 6.5 10.652344 6.5 Z M 17.347656 6.5 C 17.273438 6.5 17.199219 6.484375 17.125 6.453125 C 16.828125 6.332031 16.6875 5.988281 16.808594 5.691406 L 17.703125 3.539062 C 17.828125 3.242188 18.167969 3.097656 18.464844 3.222656 C 18.761719 3.347656 18.902344 3.6875 18.78125 3.984375 L 17.886719 6.136719 C 17.792969 6.363281 17.578125 6.5 17.347656 6.5 Z M 13.933594 6.050781 C 13.609375 6.050781 13.351562 5.789062 13.351562 5.46875 L 13.351562 3.132812 C 13.351562 2.8125 13.609375 2.550781 13.933594 2.550781 C 14.253906 2.550781 14.515625 2.8125 14.515625 3.132812 L 14.515625 5.46875 C 14.515625 5.789062 14.253906 6.050781 13.933594 6.050781 Z M 13.933594 6.050781 "/>
<path style=" stroke:none;fill-rule:nonzero;fill:rgb(0%,0%,0%);fill-opacity:1;" d="M 19.25 23.332031 L 8.75 23.332031 C 8.425781 23.332031 8.167969 23.074219 8.167969 22.75 L 8.167969 19.25 C 8.167969 18.925781 8.425781 18.667969 8.75 18.667969 L 19.25 18.667969 C 19.574219 18.667969 19.832031 18.925781 19.832031 19.25 L 19.832031 22.75 C 19.832031 23.074219 19.574219 23.332031 19.25 23.332031 Z M 9.332031 22.167969 L 18.667969 22.167969 L 18.667969 19.832031 L 9.332031 19.832031 Z M 9.332031 22.167969 "/>
</g>
</svg>
