<?xml version="1.0" encoding="UTF-8"?>
<svg xmlns="http://www.w3.org/2000/svg" xmlns:xlink="http://www.w3.org/1999/xlink" width="28pt" height="28pt" viewBox="0 0 28 28" version="1.1">
<g id="surface1">
<path style=" stroke:none;fill-rule:nonzero;fill:rgb(0%,0%,0%);fill-opacity:1;" d="M 24.375 27.066406 L 22.46875 13.394531 C 22.429688 13.117188 22.25 12.875 21.992188 12.761719 C 21.988281 12.757812 21.332031 12.4375 20.667969 11.566406 C 19.449219 9.972656 19.195312 7.875 19.195312 6.398438 C 19.195312 5.945312 18.828125 5.578125 18.375 5.578125 L 17.554688 5.578125 L 17.554688 3.554688 C 17.554688 1.59375 15.960938 0 14 0 C 12.039062 0 10.445312 1.59375 10.445312 3.554688 L 10.445312 5.578125 L 9.625 5.578125 C 9.171875 5.578125 8.804688 5.945312 8.804688 6.398438 C 8.804688 8.46875 8.316406 10.226562 7.394531 11.484375 C 6.730469 12.386719 6.058594 12.734375 6.003906 12.761719 C 5.738281 12.875 5.570312 13.109375 5.53125 13.394531 L 3.625 27.066406 C 3.589844 27.300781 3.660156 27.539062 3.816406 27.71875 C 3.972656 27.898438 4.199219 28 4.4375 28 L 23.5625 28 C 23.800781 28 24.027344 27.898438 24.183594 27.71875 C 24.339844 27.539062 24.410156 27.300781 24.375 27.066406 Z M 12.085938 3.554688 C 12.085938 2.5 12.945312 1.640625 14 1.640625 C 15.054688 1.640625 15.914062 2.5 15.914062 3.554688 L 15.914062 5.578125 L 12.085938 5.578125 Z M 5.378906 26.359375 L 7.101562 14.015625 C 8.03125 13.410156 10.179688 11.550781 10.421875 7.21875 L 17.578125 7.21875 C 17.820312 11.550781 19.96875 13.410156 20.898438 14.015625 L 22.621094 26.359375 Z M 5.378906 26.359375 "/>
<path style=" stroke:none;fill-rule:nonzero;fill:rgb(0%,0%,0%);fill-opacity:1;" d="M 17.828125 21.65625 L 10.171875 21.65625 C 9.71875 21.65625 9.351562 22.023438 9.351562 22.476562 C 9.351562 22.929688 9.71875 23.296875 10.171875 23.296875 L 17.828125 23.296875 C 18.28125 23.296875 18.648438 22.929688 18.648438 22.476562 C 18.648438 22.023438 18.28125 21.65625 17.828125 21.65625 Z M 17.828125 21.65625 "/>
<path style=" stroke:none;fill-rule:nonzero;fill:rgb(0%,0%,0%);fill-opacity:1;" d="M 17.828125 18.375 L 10.171875 18.375 C 9.71875 18.375 9.351562 18.742188 9.351562 19.195312 C 9.351562 19.648438 9.71875 20.015625 10.171875 20.015625 L 17.828125 20.015625 C 18.28125 20.015625 18.648438 19.648438 18.648438 19.195312 C 18.648438 18.742188 18.28125 18.375 17.828125 18.375 Z M 17.828125 18.375 "/>
</g>
</svg>
