<?xml version="1.0" encoding="UTF-8"?>
<svg xmlns="http://www.w3.org/2000/svg" xmlns:xlink="http://www.w3.org/1999/xlink" width="28pt" height="28pt" viewBox="0 0 28 28" version="1.1">
<g id="surface1">
<path style=" stroke:none;fill-rule:nonzero;fill:rgb(0%,0%,0%);fill-opacity:1;" d="M 19.246094 0 L 8.78125 0 C 7.59375 0 6.621094 0.972656 6.621094 2.164062 L 6.621094 9.332031 C 6.621094 10.523438 7.59375 11.496094 8.78125 11.496094 L 11.847656 11.496094 L 11.847656 26.046875 L 12.792969 26.914062 L 12.792969 11.496094 L 13.742188 11.496094 L 13.742188 27.777344 L 14.011719 28.027344 L 16.179688 26.042969 L 16.179688 11.496094 L 19.246094 11.496094 C 20.433594 11.496094 21.40625 10.523438 21.40625 9.332031 L 21.40625 2.164062 C 21.40625 0.972656 20.433594 0 19.246094 0 Z M 17.261719 5.160156 L 10.765625 5.160156 C 9.578125 5.160156 8.601562 4.460938 8.601562 3.605469 C 8.601562 2.75 9.578125 2.050781 10.765625 2.050781 L 17.261719 2.050781 C 18.449219 2.050781 19.425781 2.75 19.425781 3.605469 C 19.425781 4.460938 18.449219 5.160156 17.261719 5.160156 Z M 17.261719 5.160156 "/>
</g>
</svg>
