<?xml version="1.0" encoding="UTF-8"?>
<svg xmlns="http://www.w3.org/2000/svg" xmlns:xlink="http://www.w3.org/1999/xlink" width="28pt" height="28pt" viewBox="0 0 28 28" version="1.1">
<g id="surface1">
<path style=" stroke:none;fill-rule:nonzero;fill:rgb(0%,0%,0%);fill-opacity:1;" d="M 21.851562 14.871094 C 21.566406 14.871094 21.296875 14.925781 21.046875 15.023438 C 20.679688 14.320312 19.945312 13.839844 19.101562 13.839844 C 18.816406 13.839844 18.546875 13.894531 18.296875 13.992188 C 17.929688 13.292969 17.195312 12.8125 16.351562 12.8125 C 16.160156 12.8125 15.972656 12.835938 15.796875 12.882812 L 15.796875 11.085938 C 15.796875 9.875 14.8125 8.890625 13.601562 8.890625 C 12.390625 8.890625 11.40625 9.875 11.40625 11.085938 L 11.40625 16.796875 C 10.546875 15.984375 9.1875 16 8.347656 16.839844 C 7.492188 17.695312 7.492188 19.089844 8.347656 19.945312 L 9.820312 21.414062 C 10.296875 21.894531 10.636719 22.492188 10.808594 23.144531 C 11.546875 26.003906 14.121094 28 17.074219 28 L 17.292969 28 C 21.015625 28 24.042969 24.96875 24.042969 21.246094 L 24.042969 17.066406 C 24.042969 15.855469 23.058594 14.871094 21.851562 14.871094 Z M 22.402344 21.246094 C 22.402344 24.066406 20.109375 26.359375 17.292969 26.359375 L 17.074219 26.359375 C 14.871094 26.359375 12.945312 24.867188 12.394531 22.734375 C 12.152344 21.796875 11.664062 20.941406 10.980469 20.253906 L 9.507812 18.785156 C 9.292969 18.566406 9.292969 18.214844 9.507812 18 C 9.722656 17.785156 10.074219 17.785156 10.292969 18 L 13.046875 20.757812 L 13.046875 11.085938 C 13.046875 10.78125 13.296875 10.53125 13.601562 10.53125 C 13.90625 10.53125 14.15625 10.78125 14.15625 11.085938 L 14.15625 19.085938 L 15.796875 19.085938 L 15.796875 15.003906 C 15.796875 14.699219 16.046875 14.453125 16.351562 14.453125 C 16.65625 14.453125 16.90625 14.699219 16.90625 15.003906 L 16.90625 19.085938 L 18.546875 19.085938 L 18.546875 16.035156 C 18.546875 15.730469 18.796875 15.480469 19.101562 15.480469 C 19.40625 15.480469 19.65625 15.730469 19.65625 16.035156 L 19.65625 19.085938 L 21.296875 19.085938 L 21.296875 17.066406 C 21.296875 16.757812 21.542969 16.511719 21.851562 16.511719 C 22.15625 16.511719 22.402344 16.757812 22.402344 17.066406 Z M 22.402344 21.246094 "/>
<path style=" stroke:none;fill-rule:nonzero;fill:rgb(0%,0%,0%);fill-opacity:1;" d="M 6.417969 0 C 5.058594 0 3.957031 1.121094 3.957031 2.5 C 3.957031 3.878906 5.058594 5 6.417969 5 C 7.773438 5 8.878906 3.878906 8.878906 2.5 C 8.878906 1.121094 7.773438 0 6.417969 0 Z M 6.417969 3.359375 C 5.964844 3.359375 5.597656 2.976562 5.597656 2.5 C 5.597656 2.027344 5.964844 1.640625 6.417969 1.640625 C 6.867188 1.640625 7.238281 2.027344 7.238281 2.5 C 7.238281 2.976562 6.867188 3.359375 6.417969 3.359375 Z M 6.417969 3.359375 "/>
<path style=" stroke:none;fill-rule:nonzero;fill:rgb(0%,0%,0%);fill-opacity:1;" d="M 13.628906 0 C 12.269531 0 11.164062 1.121094 11.164062 2.5 C 11.164062 3.878906 12.269531 5 13.628906 5 C 14.984375 5 16.085938 3.878906 16.085938 2.5 C 16.085938 1.121094 14.984375 0 13.628906 0 Z M 13.628906 3.359375 C 13.175781 3.359375 12.804688 2.976562 12.804688 2.5 C 12.804688 2.027344 13.175781 1.640625 13.628906 1.640625 C 14.078125 1.640625 14.445312 2.027344 14.445312 2.5 C 14.449219 2.976562 14.078125 3.359375 13.628906 3.359375 Z M 13.628906 3.359375 "/>
<path style=" stroke:none;fill-rule:nonzero;fill:rgb(0%,0%,0%);fill-opacity:1;" d="M 20.835938 0 C 19.480469 0 18.375 1.121094 18.375 2.5 C 18.375 3.878906 19.480469 5 20.835938 5 C 22.195312 5 23.296875 3.878906 23.296875 2.5 C 23.296875 1.121094 22.195312 0 20.835938 0 Z M 20.835938 3.359375 C 20.386719 3.359375 20.015625 2.976562 20.015625 2.5 C 20.015625 2.027344 20.386719 1.640625 20.835938 1.640625 C 21.289062 1.640625 21.65625 2.027344 21.65625 2.5 C 21.65625 2.976562 21.289062 3.359375 20.835938 3.359375 Z M 20.835938 3.359375 "/>
<path style=" stroke:none;fill-rule:nonzero;fill:rgb(0%,0%,0%);fill-opacity:1;" d="M 20.835938 7.210938 C 19.480469 7.210938 18.375 8.332031 18.375 9.710938 C 18.375 11.089844 19.480469 12.210938 20.835938 12.210938 C 22.195312 12.210938 23.296875 11.089844 23.296875 9.710938 C 23.296875 8.332031 22.195312 7.210938 20.835938 7.210938 Z M 20.835938 10.570312 C 20.386719 10.570312 20.015625 10.1875 20.015625 9.710938 C 20.015625 9.238281 20.386719 8.851562 20.835938 8.851562 C 21.289062 8.851562 21.65625 9.238281 21.65625 9.710938 C 21.65625 10.1875 21.289062 10.570312 20.835938 10.570312 Z M 20.835938 10.570312 "/>
<path style=" stroke:none;fill-rule:nonzero;fill:rgb(0%,0%,0%);fill-opacity:1;" d="M 6.417969 7.210938 C 5.058594 7.210938 3.957031 8.332031 3.957031 9.710938 C 3.957031 11.089844 5.058594 12.210938 6.417969 12.210938 C 7.773438 12.210938 8.878906 11.089844 8.878906 9.710938 C 8.878906 8.332031 7.773438 7.210938 6.417969 7.210938 Z M 6.417969 10.570312 C 5.964844 10.570312 5.597656 10.183594 5.597656 9.710938 C 5.597656 9.238281 5.964844 8.851562 6.417969 8.851562 C 6.867188 8.851562 7.238281 9.238281 7.238281 9.710938 C 7.238281 10.1875 6.867188 10.570312 6.417969 10.570312 Z M 6.417969 10.570312 "/>
</g>
</svg>
