<?xml version="1.0" encoding="UTF-8"?>
<svg xmlns="http://www.w3.org/2000/svg" xmlns:xlink="http://www.w3.org/1999/xlink" width="28pt" height="28pt" viewBox="0 0 28 28" version="1.1">
<g id="surface1">
<path style=" stroke:none;fill-rule:nonzero;fill:rgb(0%,0%,0%);fill-opacity:1;" d="M 27.535156 9.332031 L 11.199219 9.332031 L 11.199219 7 C 11.199219 6.742188 10.992188 6.535156 10.734375 6.535156 L 4.199219 6.535156 C 3.941406 6.535156 3.734375 6.742188 3.734375 7 L 3.734375 9.332031 L 3.265625 9.332031 L 3.265625 2.800781 L 7 2.800781 L 7 4.199219 L 7.933594 4.199219 L 7.933594 2.332031 C 7.933594 2.074219 7.722656 1.867188 7.464844 1.867188 L 2.800781 1.867188 C 2.542969 1.867188 2.332031 2.074219 2.332031 2.332031 L 2.332031 9.332031 L 0.464844 9.332031 C 0.207031 9.332031 0 9.542969 0 9.800781 L 0 25.667969 C 0 25.925781 0.207031 26.132812 0.464844 26.132812 L 27.535156 26.132812 C 27.792969 26.132812 28 25.925781 28 25.667969 L 28 9.800781 C 28 9.542969 27.792969 9.332031 27.535156 9.332031 Z M 4.667969 7.464844 L 10.265625 7.464844 L 10.265625 9.332031 L 4.667969 9.332031 Z M 7 25.199219 L 0.933594 25.199219 L 0.933594 12.132812 L 7 12.132812 Z M 13.535156 25.199219 L 7.933594 25.199219 L 7.933594 12.132812 L 13.535156 12.132812 Z M 20.535156 25.199219 L 14.464844 25.199219 L 14.464844 12.132812 L 20.535156 12.132812 Z M 27.066406 25.199219 L 21.464844 25.199219 L 21.464844 12.132812 L 27.066406 12.132812 Z M 27.066406 11.199219 L 0.933594 11.199219 L 0.933594 10.265625 L 27.066406 10.265625 Z M 27.066406 11.199219 "/>
<path style=" stroke:none;fill-rule:nonzero;fill:rgb(0%,0%,0%);fill-opacity:1;" d="M 4.667969 18.199219 L 6.535156 18.199219 L 6.535156 19.132812 L 4.667969 19.132812 Z M 4.667969 18.199219 "/>
<path style=" stroke:none;fill-rule:nonzero;fill:rgb(0%,0%,0%);fill-opacity:1;" d="M 11.199219 18.199219 L 13.066406 18.199219 L 13.066406 19.132812 L 11.199219 19.132812 Z M 11.199219 18.199219 "/>
<path style=" stroke:none;fill-rule:nonzero;fill:rgb(0%,0%,0%);fill-opacity:1;" d="M 18.199219 18.199219 L 20.066406 18.199219 L 20.066406 19.132812 L 18.199219 19.132812 Z M 18.199219 18.199219 "/>
<path style=" stroke:none;fill-rule:nonzero;fill:rgb(0%,0%,0%);fill-opacity:1;" d="M 24.734375 18.199219 L 26.601562 18.199219 L 26.601562 19.132812 L 24.734375 19.132812 Z M 24.734375 18.199219 "/>
</g>
</svg>
