<?xml version="1.0" encoding="UTF-8"?>
<svg xmlns="http://www.w3.org/2000/svg" xmlns:xlink="http://www.w3.org/1999/xlink" width="28pt" height="28pt" viewBox="0 0 28 28" version="1.1">
<g id="surface1">
<path style=" stroke:none;fill-rule:nonzero;fill:rgb(0%,0%,0%);fill-opacity:1;" d="M 20.050781 27.417969 L 14.601562 6.066406 L 17.734375 6.066406 C 17.992188 6.066406 18.199219 5.859375 18.199219 5.601562 L 18.199219 0.464844 C 18.199219 0.210938 17.992188 0 17.734375 0 L 10.265625 0 C 10.007812 0 9.800781 0.210938 9.800781 0.464844 L 9.800781 5.601562 C 9.800781 5.859375 10.007812 6.066406 10.265625 6.066406 L 13.398438 6.066406 L 7.949219 27.417969 C 7.882812 27.667969 8.035156 27.921875 8.285156 27.984375 C 8.324219 27.996094 8.363281 28 8.402344 28 C 8.609375 28 8.796875 27.859375 8.851562 27.648438 L 13.074219 11.113281 C 13.140625 10.847656 13.535156 10.898438 13.535156 11.171875 L 13.535156 23.332031 C 13.535156 23.589844 13.742188 23.800781 14 23.800781 C 14.257812 23.800781 14.464844 23.589844 14.464844 23.332031 L 14.464844 11.171875 C 14.464844 10.898438 14.859375 10.847656 14.925781 11.113281 L 19.148438 27.648438 C 19.203125 27.859375 19.390625 28 19.601562 28 C 19.636719 28 19.675781 27.996094 19.714844 27.984375 C 19.964844 27.921875 20.117188 27.667969 20.050781 27.417969 Z M 20.050781 27.417969 "/>
</g>
</svg>
