<?xml version="1.0" encoding="UTF-8"?>
<svg xmlns="http://www.w3.org/2000/svg" xmlns:xlink="http://www.w3.org/1999/xlink" width="28pt" height="28pt" viewBox="0 0 28 28" version="1.1">
<g id="surface1">
<path style=" stroke:none;fill-rule:nonzero;fill:rgb(0%,0%,0%);fill-opacity:1;" d="M 27.75 24.90625 C 27.589844 24.640625 29.042969 25.902344 10.386719 10.242188 C 10.375 10.265625 10.375 10.289062 10.367188 10.316406 C 10.152344 10.945312 9.695312 11.652344 9.089844 12.261719 C 8.417969 12.929688 7.660156 13.398438 6.835938 13.65625 C 6.800781 13.667969 6.753906 13.675781 6.71875 13.6875 C 10.03125 18.675781 15.109375 26.324219 15.109375 26.324219 C 15.144531 26.390625 15.1875 26.449219 15.242188 26.507812 C 16.269531 27.589844 19.183594 27.972656 21.367188 27.972656 C 22.039062 27.972656 27.917969 27.902344 27.917969 25.515625 C 27.917969 25.210938 27.820312 25.050781 27.75 24.90625 Z M 21.367188 26.335938 C 18.847656 26.335938 17.105469 25.855469 16.597656 25.527344 C 17.550781 24.917969 19.96875 24.699219 21.367188 24.699219 C 22.652344 24.699219 24.757812 24.886719 25.890625 25.394531 L 26.078125 25.550781 C 25.46875 25.890625 23.839844 26.335938 21.367188 26.335938 Z M 21.367188 26.335938 "/>
<path style=" stroke:none;fill-rule:nonzero;fill:rgb(0%,0%,0%);fill-opacity:1;" d="M 27.898438 5.707031 C 27.761719 5.125 27.464844 4.589844 27.042969 4.167969 C 26.433594 3.546875 25.617188 3.203125 24.746094 3.199219 C 23.894531 3.261719 23.035156 3.539062 22.410156 4.164062 L 19.515625 7.042969 C 19.511719 7.046875 19.511719 7.050781 19.507812 7.050781 C 19.507812 7.054688 19.503906 7.054688 19.5 7.058594 C 18.441406 8.160156 18.941406 9.945312 20.101562 11.101562 C 21.132812 12.132812 22.679688 12.710938 23.878906 11.875 C 23.980469 11.832031 24.074219 11.773438 24.15625 11.691406 C 24.160156 11.6875 24.164062 11.683594 24.167969 11.683594 L 27.050781 8.785156 C 27.664062 8.148438 28 7.332031 28 6.480469 C 28 6.273438 27.988281 5.964844 27.898438 5.707031 Z M 23 10.53125 L 23 10.535156 C 22.832031 10.699219 22.484375 10.632812 22.324219 10.59375 C 21.980469 10.515625 21.59375 10.277344 21.261719 9.945312 C 21.027344 9.710938 20.855469 9.480469 20.742188 9.222656 C 20.527344 8.792969 20.503906 8.378906 20.664062 8.210938 C 20.929688 7.949219 21.785156 8.15625 22.417969 8.796875 C 23.019531 9.390625 23.285156 10.242188 23 10.53125 Z M 23 10.53125 "/>
<path style=" stroke:none;fill-rule:nonzero;fill:rgb(0%,0%,0%);fill-opacity:1;" d="M 8.53125 7.046875 C 8.527344 7.042969 8.523438 7.039062 8.519531 7.035156 L 5.644531 4.171875 C 4.433594 2.925781 2.199219 2.933594 1.003906 4.164062 C 0.554688 4.617188 0.246094 5.179688 0.109375 5.804688 C -0.117188 6.890625 0.21875 8.007812 1.003906 8.792969 C 4.160156 11.949219 3.9375 11.777344 4.1875 11.875 C 5.414062 12.722656 6.972656 12.070312 7.941406 11.101562 C 9.042969 10.003906 9.621094 8.136719 8.53125 7.046875 Z M 7.347656 9.070312 C 7.339844 9.089844 7.332031 9.113281 7.324219 9.132812 C 7.234375 9.394531 7.046875 9.683594 6.785156 9.945312 C 6.496094 10.230469 6.183594 10.433594 5.824219 10.546875 C 5.5 10.671875 5.195312 10.664062 5.054688 10.527344 C 5 10.476562 4.9375 10.335938 4.9375 10.171875 C 4.9375 9.835938 5.121094 9.296875 5.640625 8.789062 C 6.320312 8.09375 7.136719 7.96875 7.375 8.203125 C 7.519531 8.347656 7.507812 8.699219 7.347656 9.070312 Z M 7.347656 9.070312 "/>
<path style=" stroke:none;fill-rule:nonzero;fill:rgb(0%,0%,0%);fill-opacity:1;" d="M 11.324219 23.609375 L 7.976562 18.617188 C 3.785156 22.109375 0.769531 24.609375 0.769531 24.609375 C 0.539062 24.800781 0.394531 25.1875 0.394531 25.515625 C 0.394531 27.902344 6.273438 27.972656 6.941406 27.972656 C 9.207031 27.972656 12.128906 27.5625 13.164062 26.355469 Z M 6.941406 26.335938 C 4.4375 26.335938 2.800781 25.878906 2.210938 25.539062 C 2.765625 25.070312 4.980469 24.699219 6.941406 24.699219 C 8.273438 24.699219 10.675781 24.886719 11.707031 25.515625 C 11.148438 25.855469 9.488281 26.335938 6.941406 26.335938 Z M 6.941406 26.335938 "/>
<path style=" stroke:none;fill-rule:nonzero;fill:rgb(0%,0%,0%);fill-opacity:1;" d="M 5.730469 0.0273438 L 0.820312 0.0273438 C 0.367188 0.0273438 0 0.394531 0 0.847656 L 0 2.800781 C 0.847656 2.050781 2 1.601562 3.222656 1.601562 C 4.488281 1.601562 5.675781 2.074219 6.550781 2.886719 L 6.550781 0.847656 C 6.550781 0.394531 6.183594 0.0273438 5.730469 0.0273438 Z M 5.730469 0.0273438 "/>
<path style=" stroke:none;fill-rule:nonzero;fill:rgb(0%,0%,0%);fill-opacity:1;" d="M 27.101562 0.0273438 L 22.1875 0.0273438 C 21.734375 0.0273438 21.367188 0.394531 21.367188 0.847656 L 21.367188 2.910156 C 22.199219 2.132812 23.316406 1.664062 24.625 1.566406 C 25.925781 1.570312 27.035156 2.007812 27.917969 2.777344 L 27.917969 0.847656 C 27.917969 0.394531 27.550781 0.0273438 27.101562 0.0273438 Z M 27.101562 0.0273438 "/>
<path style=" stroke:none;fill-rule:nonzero;fill:rgb(0%,0%,0%);fill-opacity:1;" d="M 21.53125 13.769531 C 20.636719 13.5625 19.707031 13.023438 18.945312 12.261719 C 18.429688 11.746094 18.03125 11.183594 17.769531 10.59375 C 17.742188 10.542969 17.738281 10.488281 17.714844 10.433594 L 15.445312 12.324219 L 19.976562 16.097656 Z M 21.53125 13.769531 "/>
</g>
</svg>
