<?xml version="1.0" encoding="UTF-8"?>
<svg xmlns="http://www.w3.org/2000/svg" xmlns:xlink="http://www.w3.org/1999/xlink" width="14pt" height="14pt" viewBox="0 0 14 14" version="1.1">
<g id="surface1">
<path style=" stroke:none;fill-rule:nonzero;fill:rgb(0%,0%,0%);fill-opacity:1;" d="M 9.492188 9.84375 L 9.492188 11.074219 C 9.492188 11.300781 9.3125 11.484375 9.085938 11.484375 L 7.4375 11.484375 L 7.4375 10.253906 C 7.4375 9.710938 6.625 9.710938 6.625 10.253906 L 6.625 11.484375 L 4.921875 11.484375 C 4.695312 11.484375 4.511719 11.300781 4.511719 11.074219 L 4.511719 9.84375 L 2.875 9.84375 L 2.875 11.128906 C 2.875 12.273438 3.796875 13.171875 4.921875 13.171875 L 6.625 13.171875 L 6.625 13.589844 C 6.625 14.132812 7.4375 14.132812 7.4375 13.589844 L 7.4375 13.171875 L 9.078125 13.171875 C 10.199219 13.171875 11.128906 12.273438 11.128906 11.128906 L 11.128906 9.84375 Z M 9.492188 9.84375 "/>
<path style=" stroke:none;fill-rule:nonzero;fill:rgb(0%,0%,0%);fill-opacity:1;" d="M 13.589844 3.28125 C 8.839844 3.28125 5.160156 3.28125 0.410156 3.28125 C -0.140625 3.28125 -0.132812 4.089844 0.410156 4.089844 C 5.160156 4.089844 8.839844 4.089844 13.589844 4.089844 C 14.140625 4.089844 14.132812 3.28125 13.589844 3.28125 Z M 13.589844 3.28125 "/>
<path style=" stroke:none;fill-rule:nonzero;fill:rgb(0%,0%,0%);fill-opacity:1;" d="M 11.128906 0.820312 L 10.71875 0.820312 L 10.71875 0.410156 C 10.71875 -0.132812 9.90625 -0.132812 9.90625 0.410156 L 9.90625 0.820312 L 9.488281 0.820312 C 8.503906 0.820312 7.675781 1.515625 7.484375 2.449219 L 13.132812 2.449219 C 12.941406 1.515625 12.113281 0.820312 11.128906 0.820312 Z M 11.128906 0.820312 "/>
<path style=" stroke:none;fill-rule:nonzero;fill:rgb(0%,0%,0%);fill-opacity:1;" d="M 12.769531 8.203125 L 7.847656 8.203125 C 7.304688 8.203125 7.304688 9.015625 7.847656 9.015625 L 12.769531 9.015625 C 13.3125 9.015625 13.3125 8.203125 12.769531 8.203125 Z M 12.769531 8.203125 "/>
<path style=" stroke:none;fill-rule:nonzero;fill:rgb(0%,0%,0%);fill-opacity:1;" d="M 10.726562 4.921875 L 10.726562 7.375 L 12.476562 7.375 L 13.089844 4.921875 Z M 10.726562 4.921875 "/>
<path style=" stroke:none;fill-rule:nonzero;fill:rgb(0%,0%,0%);fill-opacity:1;" d="M 7.527344 4.921875 L 8.140625 7.375 L 9.898438 7.375 L 9.898438 4.921875 Z M 7.527344 4.921875 "/>
<path style=" stroke:none;fill-rule:nonzero;fill:rgb(0%,0%,0%);fill-opacity:1;" d="M 4.109375 4.921875 L 4.109375 7.375 L 5.859375 7.375 L 6.472656 4.921875 Z M 4.109375 4.921875 "/>
<path style=" stroke:none;fill-rule:nonzero;fill:rgb(0%,0%,0%);fill-opacity:1;" d="M 0.910156 4.921875 L 1.523438 7.375 L 3.28125 7.375 L 3.28125 4.921875 Z M 0.910156 4.921875 "/>
<path style=" stroke:none;fill-rule:nonzero;fill:rgb(0%,0%,0%);fill-opacity:1;" d="M 4.511719 0.820312 L 4.101562 0.820312 L 4.101562 0.410156 C 4.101562 -0.132812 3.289062 -0.132812 3.289062 0.410156 L 3.289062 0.820312 L 2.871094 0.820312 C 1.886719 0.820312 1.058594 1.515625 0.867188 2.449219 L 6.515625 2.449219 C 6.324219 1.515625 5.496094 0.820312 4.511719 0.820312 Z M 4.511719 0.820312 "/>
<path style=" stroke:none;fill-rule:nonzero;fill:rgb(0%,0%,0%);fill-opacity:1;" d="M 6.152344 8.203125 L 1.230469 8.203125 C 0.6875 8.203125 0.6875 9.015625 1.230469 9.015625 L 6.152344 9.015625 C 6.695312 9.015625 6.695312 8.203125 6.152344 8.203125 Z M 6.152344 8.203125 "/>
</g>
</svg>
