<?xml version="1.0" encoding="UTF-8"?>
<svg xmlns="http://www.w3.org/2000/svg" xmlns:xlink="http://www.w3.org/1999/xlink" width="28pt" height="28pt" viewBox="0 0 28 28" version="1.1">
<g id="surface1">
<path style=" stroke:none;fill-rule:nonzero;fill:rgb(0%,0%,0%);fill-opacity:1;" d="M 11.53125 3.21875 C 11.609375 3.402344 11.808594 3.820312 12.3125 3.820312 L 15.773438 3.820312 C 15.949219 3.820312 16.371094 3.757812 16.566406 3.199219 L 17.667969 1.082031 L 17.691406 1.023438 C 17.773438 0.8125 17.738281 0.578125 17.601562 0.378906 C 17.441406 0.148438 17.164062 0 16.898438 0 L 11.191406 0 C 10.921875 0 10.65625 0.132812 10.496094 0.347656 C 10.355469 0.539062 10.316406 0.773438 10.382812 0.992188 Z M 11.53125 3.21875 "/>
<path style=" stroke:none;fill-rule:nonzero;fill:rgb(0%,0%,0%);fill-opacity:1;" d="M 16.851562 4.898438 L 16.851562 8.359375 C 16.851562 8.535156 16.914062 8.957031 17.472656 9.152344 L 19.589844 10.253906 L 19.652344 10.28125 C 19.722656 10.308594 19.800781 10.320312 19.878906 10.320312 C 20.292969 10.320312 20.671875 9.921875 20.671875 9.480469 L 20.671875 3.777344 C 20.671875 3.320312 20.3125 2.9375 19.886719 2.9375 C 19.820312 2.9375 19.75 2.949219 19.683594 2.96875 L 17.453125 4.117188 C 17.269531 4.195312 16.851562 4.394531 16.851562 4.898438 Z M 16.851562 4.898438 "/>
<path style=" stroke:none;fill-rule:nonzero;fill:rgb(0%,0%,0%);fill-opacity:1;" d="M 8.195312 10.320312 C 8.265625 10.320312 8.335938 10.308594 8.402344 10.289062 L 10.632812 9.140625 C 10.8125 9.0625 11.234375 8.867188 11.234375 8.359375 L 11.234375 4.898438 C 11.234375 4.722656 11.171875 4.300781 10.613281 4.105469 L 8.496094 3.003906 L 8.433594 2.976562 C 8.363281 2.949219 8.285156 2.9375 8.207031 2.9375 C 7.789062 2.9375 7.414062 3.335938 7.414062 3.777344 L 7.414062 9.480469 C 7.410156 9.9375 7.773438 10.320312 8.195312 10.320312 Z M 8.195312 10.320312 "/>
<path style=" stroke:none;fill-rule:nonzero;fill:rgb(0%,0%,0%);fill-opacity:1;" d="M 20.042969 27.585938 C 20.058594 27.457031 20.03125 27.320312 19.953125 27.203125 L 17.722656 23.953125 C 17.78125 23.984375 17.851562 23.984375 17.90625 23.945312 C 17.984375 23.894531 18.003906 23.789062 17.949219 23.710938 L 17.175781 22.597656 C 17.125 22.523438 17.015625 22.503906 16.941406 22.554688 C 16.890625 22.59375 16.867188 22.652344 16.871094 22.710938 L 14.585938 19.375 L 14.585938 17.925781 C 14.878906 17.789062 15.085938 17.492188 15.085938 17.144531 C 15.085938 16.800781 14.878906 16.503906 14.585938 16.367188 L 14.585938 13.257812 L 16.894531 13.257812 C 17.164062 13.257812 17.429688 13.125 17.589844 12.910156 C 17.730469 12.722656 17.769531 12.488281 17.707031 12.269531 L 16.554688 10.039062 C 16.476562 9.855469 16.28125 9.4375 15.773438 9.4375 L 14.585938 9.4375 L 14.585938 9.027344 C 15.683594 8.777344 16.503906 7.796875 16.503906 6.628906 C 16.503906 5.273438 15.402344 4.167969 14.046875 4.167969 C 12.691406 4.167969 11.585938 5.273438 11.585938 6.628906 C 11.585938 7.796875 12.40625 8.777344 13.503906 9.027344 L 13.503906 9.4375 L 12.316406 9.4375 C 12.140625 9.4375 11.714844 9.5 11.523438 10.058594 L 10.421875 12.175781 L 10.394531 12.238281 C 10.316406 12.445312 10.351562 12.679688 10.488281 12.878906 C 10.652344 13.113281 10.917969 13.257812 11.191406 13.257812 L 13.503906 13.257812 L 13.503906 16.367188 C 13.207031 16.5 13 16.796875 13 17.144531 C 13 17.492188 13.207031 17.785156 13.503906 17.921875 L 13.503906 19.375 L 11.210938 22.71875 C 11.21875 22.65625 11.195312 22.59375 11.140625 22.554688 C 11.0625 22.503906 10.957031 22.523438 10.90625 22.597656 L 10.132812 23.710938 C 10.078125 23.785156 10.097656 23.890625 10.171875 23.945312 C 10.238281 23.988281 10.316406 23.980469 10.375 23.9375 L 8.132812 27.199219 C 8.054688 27.316406 8.027344 27.453125 8.046875 27.582031 C 7.605469 27.625 7.292969 27.71875 7.292969 27.824219 C 7.292969 27.972656 7.871094 28.089844 8.582031 28.089844 C 9.292969 28.089844 9.867188 27.972656 9.867188 27.824219 C 9.867188 27.722656 9.589844 27.632812 9.179688 27.589844 L 13.503906 21.289062 L 13.503906 26.007812 C 13.503906 26.070312 13.515625 26.128906 13.535156 26.1875 C 13.078125 26.226562 12.757812 26.320312 12.757812 26.429688 C 12.757812 26.578125 13.335938 26.695312 14.046875 26.695312 C 14.757812 26.695312 15.332031 26.578125 15.332031 26.429688 C 15.332031 26.320312 15.011719 26.226562 14.554688 26.1875 C 14.574219 26.128906 14.589844 26.070312 14.589844 26.007812 L 14.589844 21.289062 L 18.914062 27.589844 C 18.503906 27.636719 18.226562 27.722656 18.226562 27.824219 C 18.226562 27.972656 18.800781 28.09375 19.511719 28.09375 C 20.222656 28.09375 20.800781 27.972656 20.800781 27.824219 C 20.792969 27.71875 20.484375 27.628906 20.042969 27.585938 Z M 14.042969 8.003906 C 13.285156 8.003906 12.667969 7.386719 12.667969 6.628906 C 12.667969 5.871094 13.285156 5.253906 14.042969 5.253906 C 14.800781 5.253906 15.417969 5.871094 15.417969 6.628906 C 15.417969 7.386719 14.800781 8.003906 14.042969 8.003906 Z M 14.042969 8.003906 "/>
</g>
</svg>
