<?xml version="1.0" encoding="UTF-8"?>
<svg xmlns="http://www.w3.org/2000/svg" xmlns:xlink="http://www.w3.org/1999/xlink" width="28pt" height="28pt" viewBox="0 0 28 28" version="1.1">
<g id="surface1">
<path style=" stroke:none;fill-rule:nonzero;fill:rgb(0%,0%,0%);fill-opacity:1;" d="M 21.175781 9.25 L 14 0 L 6.824219 9.25 C 5.296875 11.222656 4.652344 13.667969 5.015625 16.140625 C 5.382812 18.609375 6.703125 20.769531 8.738281 22.214844 C 10.078125 23.167969 11.613281 23.714844 13.179688 23.855469 L 13.179688 28 L 14.820312 28 L 14.820312 23.855469 C 16.386719 23.714844 17.921875 23.167969 19.261719 22.214844 C 21.296875 20.769531 22.617188 18.609375 22.984375 16.140625 C 23.347656 13.667969 22.707031 11.222656 21.175781 9.25 Z M 21.355469 15.898438 C 21.058594 17.921875 19.976562 19.691406 18.308594 20.875 C 17.253906 21.625 16.050781 22.066406 14.820312 22.203125 L 14.820312 19.066406 L 20.234375 15.988281 L 19.421875 14.558594 L 14.820312 17.175781 L 14.820312 13.878906 L 17.769531 12.199219 L 16.957031 10.769531 L 14.820312 11.988281 L 14.820312 7.71875 L 13.179688 7.71875 L 13.179688 11.988281 L 11.042969 10.769531 L 10.230469 12.199219 L 13.179688 13.878906 L 13.179688 17.175781 L 8.578125 14.558594 L 7.765625 15.988281 L 13.179688 19.066406 L 13.179688 22.203125 C 11.949219 22.066406 10.746094 21.625 9.691406 20.875 C 8.023438 19.691406 6.941406 17.921875 6.644531 15.898438 C 6.34375 13.878906 6.871094 11.871094 8.125 10.257812 L 14 2.679688 L 19.875 10.257812 C 21.128906 11.871094 21.65625 13.878906 21.355469 15.898438 Z M 21.355469 15.898438 "/>
</g>
</svg>
