<?xml version="1.0" encoding="UTF-8"?>
<svg xmlns="http://www.w3.org/2000/svg" xmlns:xlink="http://www.w3.org/1999/xlink" width="28pt" height="28pt" viewBox="0 0 28 28" version="1.1">
<g id="surface1">
<path style=" stroke:none;fill-rule:nonzero;fill:rgb(0%,0%,0%);fill-opacity:1;" d="M 26.140625 5.449219 C 26.769531 5.082031 28 3.863281 28 2.933594 C 28 1.550781 25.601562 1.828125 24.429688 2.507812 C 23.683594 2.941406 23.324219 3.738281 23.464844 4.449219 C 21.273438 5.632812 19.972656 6.515625 19.289062 6.941406 C 19.289062 6.476562 19.417969 5.859375 19.539062 5.410156 C 20.25 5.429688 20.976562 4.984375 21.328125 4.171875 C 21.421875 3.960938 21.324219 3.71875 21.117188 3.628906 C 20.90625 3.539062 20.664062 3.632812 20.574219 3.84375 C 20.355469 4.339844 19.949219 4.585938 19.585938 4.585938 C 18.9375 4.585938 18.613281 3.824219 18.964844 3.148438 C 19.332031 2.445312 20.476562 1.480469 20.75 1.621094 C 20.777344 1.636719 20.890625 1.789062 20.890625 2.261719 C 20.890625 2.304688 20.890625 2.34375 20.886719 2.386719 C 20.878906 2.613281 21.054688 2.804688 21.285156 2.8125 C 21.511719 2.824219 21.703125 2.644531 21.710938 2.417969 C 21.734375 1.835938 21.644531 1.15625 21.128906 0.890625 C 20.191406 0.402344 18.6875 1.898438 18.234375 2.765625 C 17.769531 3.660156 18.015625 4.699219 18.75 5.167969 C 18.578125 5.804688 18.363281 6.816406 18.519531 7.457031 C 17.433594 8.199219 16.210938 9.097656 15.039062 10.039062 C 15.25 9.332031 15.46875 8.417969 15.421875 7.679688 C 16.207031 7.40625 16.667969 6.554688 16.570312 5.6875 C 16.472656 4.769531 15.625 2.765625 14.5625 2.882812 C 13.496094 2.996094 13.09375 5.105469 13.191406 6.046875 C 13.28125 6.902344 13.863281 7.578125 14.597656 7.730469 C 14.65625 8.679688 14.160156 10.1875 13.804688 11.0625 C 12.007812 12.597656 10.519531 14.109375 10.511719 14.121094 C 9.675781 14.976562 9.949219 14.703125 9.707031 14.953125 C 8.921875 14.253906 9.21875 12.75 9.578125 11.753906 C 9.582031 11.753906 9.589844 11.753906 9.59375 11.753906 C 10.394531 11.753906 11.105469 11.152344 11.328125 10.289062 C 11.59375 9.246094 11.414062 6.933594 10.210938 6.933594 C 9.171875 6.933594 7.964844 8.9375 7.964844 9.972656 C 7.964844 10.632812 8.285156 11.21875 8.785156 11.527344 C 8.304688 12.875 8.085938 14.597656 9.144531 15.558594 C 7.75 17.078125 6.910156 18.167969 6.640625 18.5 C 6.296875 18.304688 5.992188 17.042969 5.914062 16.65625 C 6.542969 16.363281 7.015625 15.648438 6.96875 14.75 C 6.957031 14.523438 6.761719 14.347656 6.535156 14.359375 C 6.308594 14.371094 6.132812 14.566406 6.144531 14.792969 C 6.183594 15.507812 5.726562 15.976562 5.265625 15.976562 L 5.25 15.976562 C 4.777344 15.964844 4.394531 15.488281 4.394531 14.910156 L 4.394531 14.886719 C 4.402344 14.511719 4.554688 13.925781 4.765625 13.457031 C 5.011719 12.910156 5.242188 12.726562 5.3125 12.726562 C 5.347656 12.726562 5.546875 12.839844 5.777344 13.347656 C 5.871094 13.554688 6.113281 13.648438 6.320312 13.554688 C 6.53125 13.460938 6.621094 13.21875 6.527344 13.007812 C 6.121094 12.105469 5.652344 11.90625 5.328125 11.902344 L 5.3125 11.902344 C 4.242188 11.902344 3.570312 13.980469 3.570312 14.910156 C 3.570312 15.898438 4.230469 16.699219 5.097656 16.789062 C 5.230469 17.46875 5.542969 18.714844 6.136719 19.152344 C 6.050781 19.269531 4.738281 20.941406 3.359375 23.210938 C 3.332031 22.226562 3.203125 21.453125 2.984375 20.898438 C 2.988281 20.894531 3.640625 20.472656 3.640625 19.503906 C 3.640625 19.214844 3.574219 18.917969 3.453125 18.648438 C 3.070312 17.800781 1.65625 16.164062 0.667969 16.613281 C -0.296875 17.046875 -0.0429688 19.167969 0.351562 20.046875 C 0.714844 20.847656 1.492188 21.289062 2.21875 21.207031 C 2.691406 22.378906 2.503906 24.6875 2.503906 24.691406 C 1.867188 25.859375 1.566406 26.570312 1.539062 26.636719 C 1.453125 26.847656 1.550781 27.085938 1.761719 27.175781 C 1.976562 27.261719 2.214844 27.160156 2.300781 26.953125 C 2.304688 26.945312 2.363281 26.800781 2.488281 26.542969 C 2.84375 26.363281 4.632812 25.511719 5.777344 25.5 C 5.980469 26.226562 6.710938 26.789062 7.636719 26.789062 C 8.441406 26.789062 10.578125 26.296875 10.613281 25.191406 L 10.613281 25.160156 C 10.613281 24.074219 8.527344 23.417969 7.675781 23.386719 C 6.75 23.355469 5.972656 23.910156 5.769531 24.675781 C 4.929688 24.683594 3.859375 25.050781 3.078125 25.371094 C 3.082031 25.371094 3.082031 25.371094 3.082031 25.371094 C 4.695312 22.347656 6.527344 20.015625 6.617188 19.882812 C 7.015625 20.179688 8.691406 21.378906 10.011719 21.628906 C 10.027344 21.683594 10.035156 22.167969 10.480469 22.636719 C 10.925781 23.101562 11.484375 23.261719 12.09375 23.261719 C 14.625 23.261719 15.96875 21.789062 13.78125 20.492188 C 13.257812 20.183594 12.457031 19.84375 11.839844 19.84375 C 11.089844 19.84375 10.449219 20.234375 10.164062 20.820312 C 9.179688 20.636719 7.71875 19.671875 7.117188 19.226562 C 7.601562 18.609375 8.078125 18.023438 8.660156 17.347656 C 9.695312 17.65625 11.292969 18.007812 12.367188 17.84375 C 12.375 17.847656 12.765625 18.847656 14.042969 18.847656 C 15.082031 18.847656 17.292969 17.667969 17.066406 16.550781 C 16.859375 15.519531 14.730469 15.28125 13.792969 15.472656 C 12.953125 15.636719 12.332031 16.277344 12.242188 17.027344 C 11.398438 17.160156 10.085938 16.878906 9.261719 16.660156 C 9.847656 16.003906 10.484375 15.324219 11.175781 14.632812 C 11.628906 14.410156 13.316406 13.628906 14.414062 13.617188 C 14.617188 14.335938 15.328125 14.875 16.195312 14.902344 C 16.21875 14.902344 16.246094 14.90625 16.273438 14.90625 C 17.078125 14.90625 19.214844 14.414062 19.25 13.304688 C 19.273438 12.726562 18.726562 12.316406 18.207031 12.046875 C 18.007812 11.945312 17.757812 12.023438 17.652344 12.226562 C 17.550781 12.429688 17.628906 12.675781 17.832031 12.78125 C 18.328125 13.035156 18.425781 13.238281 18.425781 13.277344 C 18.425781 13.320312 18.292969 13.535156 17.710938 13.769531 C 17.285156 13.941406 16.644531 14.09375 16.222656 14.078125 C 15.675781 14.058594 15.164062 13.683594 15.179688 13.167969 C 15.195312 12.710938 15.6875 12.261719 16.40625 12.335938 C 16.632812 12.363281 16.835938 12.199219 16.859375 11.972656 C 16.882812 11.746094 16.71875 11.542969 16.492188 11.519531 C 15.445312 11.40625 14.617188 12.003906 14.40625 12.792969 C 13.902344 12.796875 13.316406 12.929688 12.757812 13.105469 C 15.445312 10.621094 17.851562 8.949219 17.96875 8.859375 C 18.882812 9.730469 20.449219 9.667969 21.683594 9.375 C 21.960938 9.972656 22.609375 10.371094 23.371094 10.371094 C 24.378906 10.371094 26.558594 9.351562 26.402344 8.246094 C 26.25 7.167969 24.070312 6.859375 23.191406 6.984375 C 22.304688 7.109375 21.625 7.773438 21.542969 8.558594 C 20.675781 8.773438 19.378906 8.90625 18.660156 8.367188 C 20.242188 7.273438 21.960938 6.199219 23.828125 5.1875 C 24.382812 5.808594 25.363281 5.902344 26.140625 5.449219 Z M 24.269531 4.019531 C 24.316406 3.707031 24.53125 3.40625 24.84375 3.222656 C 25.222656 3.003906 26.03125 2.769531 26.644531 2.769531 C 27.023438 2.769531 27.152344 2.859375 27.167969 2.886719 C 27.3125 3.148438 26.429688 4.328125 25.726562 4.734375 C 25.003906 5.15625 24.160156 4.765625 24.269531 4.019531 Z M 2.046875 20.390625 C 1.667969 20.390625 1.289062 20.117188 1.105469 19.707031 C 0.964844 19.402344 0.824219 18.777344 0.824219 18.179688 C 0.824219 17.578125 0.972656 17.382812 1.007812 17.363281 C 1.007812 17.363281 1.015625 17.359375 1.035156 17.359375 C 1.445312 17.359375 2.40625 18.335938 2.699219 18.988281 C 3.003906 19.660156 2.671875 20.390625 2.046875 20.390625 Z M 6.542969 25.050781 C 6.558594 24.589844 7.03125 24.210938 7.601562 24.210938 C 8.023438 24.210938 8.660156 24.414062 9.0625 24.601562 C 9.609375 24.855469 9.789062 25.09375 9.789062 25.164062 C 9.789062 25.203125 9.65625 25.421875 9.074219 25.652344 C 8.617188 25.835938 8.027344 25.964844 7.636719 25.964844 C 6.988281 25.964844 6.542969 25.519531 6.542969 25.074219 Z M 10.839844 21.398438 C 10.902344 20.953125 11.410156 20.59375 12.027344 20.683594 C 12.78125 20.792969 14.054688 21.519531 14.054688 21.859375 C 14.027344 22.054688 13.121094 22.4375 12.09375 22.4375 C 11.152344 22.4375 10.773438 21.84375 10.839844 21.398438 Z M 8.792969 9.972656 C 8.792969 9.125 9.921875 7.6875 10.21875 7.761719 C 10.503906 7.832031 10.730469 9.300781 10.527344 10.085938 C 10.402344 10.578125 10.007812 10.929688 9.59375 10.929688 C 9.105469 10.929688 8.792969 10.46875 8.792969 9.972656 Z M 13.953125 16.28125 C 14.355469 16.199219 15.152344 16.230469 15.738281 16.414062 C 16.148438 16.542969 16.253906 16.683594 16.257812 16.710938 L 16.257812 16.71875 C 16.257812 17.085938 15.003906 17.855469 14.296875 17.996094 C 13.605469 18.132812 13.058594 17.710938 13.058594 17.210938 C 13.058594 16.78125 13.441406 16.382812 13.953125 16.28125 Z M 14.011719 5.957031 C 13.972656 5.609375 14.042969 4.925781 14.246094 4.351562 C 14.429688 3.832031 14.613281 3.707031 14.652344 3.703125 C 15 3.703125 15.757812 5.171875 15.757812 5.914062 C 15.757812 6.449219 15.429688 6.886719 14.992188 6.933594 C 14.511719 6.984375 14.070312 6.539062 14.011719 5.957031 Z M 23.617188 7.78125 C 24.058594 7.78125 24.578125 7.863281 24.980469 8 C 25.464844 8.160156 25.582031 8.328125 25.585938 8.367188 C 25.585938 8.710938 24.128906 9.546875 23.371094 9.546875 C 22.839844 9.546875 22.359375 9.203125 22.359375 8.714844 C 22.359375 8.269531 22.777344 7.78125 23.617188 7.78125 Z M 23.617188 7.78125 "/>
</g>
</svg>
