<?xml version="1.0" encoding="UTF-8"?>
<svg xmlns="http://www.w3.org/2000/svg" xmlns:xlink="http://www.w3.org/1999/xlink" width="28pt" height="28pt" viewBox="0 0 28 28" version="1.1">
<g id="surface1">
<path style=" stroke:none;fill-rule:nonzero;fill:rgb(0%,0%,0%);fill-opacity:1;" d="M 16.5625 22.78125 L 10.410156 22.78125 L 10.410156 23.800781 L 17.589844 23.800781 L 17.589844 22.78125 Z M 16.5625 22.78125 "/>
<path style=" stroke:none;fill-rule:nonzero;fill:rgb(0%,0%,0%);fill-opacity:1;" d="M 11.4375 24.828125 L 10.410156 24.828125 L 10.410156 24.996094 C 10.410156 26.652344 12.019531 28 14 28 C 15.980469 28 17.589844 26.652344 17.589844 24.996094 L 17.589844 24.828125 Z M 11.4375 24.828125 "/>
<path style=" stroke:none;fill-rule:nonzero;fill:rgb(0%,0%,0%);fill-opacity:1;" d="M 3.855469 12.164062 L 1.835938 12.164062 C 1.550781 12.164062 1.324219 12.394531 1.324219 12.675781 C 1.324219 12.960938 1.550781 13.191406 1.835938 13.191406 L 3.855469 13.191406 C 4.136719 13.191406 4.367188 12.960938 4.367188 12.675781 C 4.367188 12.394531 4.136719 12.164062 3.855469 12.164062 Z M 3.855469 12.164062 "/>
<path style=" stroke:none;fill-rule:nonzero;fill:rgb(0%,0%,0%);fill-opacity:1;" d="M 26.164062 12.164062 L 24.144531 12.164062 C 23.863281 12.164062 23.632812 12.394531 23.632812 12.675781 C 23.632812 12.960938 23.863281 13.191406 24.144531 13.191406 L 26.164062 13.191406 C 26.449219 13.191406 26.675781 12.960938 26.675781 12.675781 C 26.675781 12.394531 26.449219 12.164062 26.164062 12.164062 Z M 26.164062 12.164062 "/>
<path style=" stroke:none;fill-rule:nonzero;fill:rgb(0%,0%,0%);fill-opacity:1;" d="M 14 0 C 13.71875 0 13.488281 0.230469 13.488281 0.511719 L 13.488281 2.53125 C 13.488281 2.816406 13.71875 3.046875 14 3.046875 C 14.28125 3.046875 14.511719 2.816406 14.511719 2.53125 L 14.511719 0.511719 C 14.511719 0.230469 14.28125 0 14 0 Z M 14 0 "/>
<path style=" stroke:none;fill-rule:nonzero;fill:rgb(0%,0%,0%);fill-opacity:1;" d="M 7.242188 19.492188 C 7.058594 19.273438 6.734375 19.25 6.519531 19.433594 C 6.5 19.453125 6.480469 19.46875 6.464844 19.492188 L 5.035156 20.921875 C 4.820312 21.105469 4.792969 21.429688 4.976562 21.644531 C 5.164062 21.859375 5.484375 21.882812 5.699219 21.699219 C 5.722656 21.683594 5.738281 21.664062 5.757812 21.644531 L 7.1875 20.214844 C 7.402344 20.027344 7.425781 19.707031 7.242188 19.492188 Z M 7.242188 19.492188 "/>
<path style=" stroke:none;fill-rule:nonzero;fill:rgb(0%,0%,0%);fill-opacity:1;" d="M 22.90625 3.710938 C 22.714844 3.546875 22.429688 3.546875 22.238281 3.710938 L 20.808594 5.140625 C 20.59375 5.324219 20.566406 5.648438 20.75 5.863281 C 20.9375 6.078125 21.257812 6.105469 21.476562 5.921875 C 21.496094 5.902344 21.511719 5.882812 21.53125 5.863281 L 22.960938 4.433594 C 23.144531 4.21875 23.121094 3.894531 22.90625 3.710938 Z M 22.90625 3.710938 "/>
<path style=" stroke:none;fill-rule:nonzero;fill:rgb(0%,0%,0%);fill-opacity:1;" d="M 22.964844 20.921875 L 21.535156 19.492188 C 21.351562 19.273438 21.027344 19.25 20.8125 19.433594 C 20.597656 19.617188 20.574219 19.941406 20.757812 20.15625 C 20.773438 20.175781 20.792969 20.195312 20.8125 20.214844 L 22.242188 21.644531 C 22.457031 21.828125 22.78125 21.800781 22.964844 21.585938 C 23.128906 21.394531 23.128906 21.113281 22.964844 20.921875 Z M 22.964844 20.921875 "/>
<path style=" stroke:none;fill-rule:nonzero;fill:rgb(0%,0%,0%);fill-opacity:1;" d="M 7.1875 5.140625 L 5.757812 3.710938 C 5.574219 3.496094 5.25 3.472656 5.035156 3.65625 C 4.820312 3.839844 4.792969 4.164062 4.976562 4.378906 C 4.996094 4.398438 5.015625 4.417969 5.035156 4.433594 L 6.464844 5.863281 C 6.679688 6.046875 7.003906 6.023438 7.1875 5.808594 C 7.351562 5.617188 7.351562 5.332031 7.1875 5.140625 Z M 7.1875 5.140625 "/>
<path style=" stroke:none;fill-rule:nonzero;fill:rgb(0%,0%,0%);fill-opacity:1;" d="M 15.183594 13.617188 C 15.183594 14.269531 14.652344 14.800781 14 14.800781 C 13.347656 14.800781 12.816406 14.269531 12.816406 13.617188 C 12.816406 12.960938 13.347656 12.429688 14 12.429688 C 14.652344 12.429688 15.183594 12.960938 15.183594 13.617188 Z M 15.183594 13.617188 "/>
<path style=" stroke:none;fill-rule:nonzero;fill:rgb(0%,0%,0%);fill-opacity:1;" d="M 22.046875 8.957031 C 20.632812 5.777344 17.476562 3.734375 14 3.746094 C 9.160156 3.742188 5.230469 7.664062 5.222656 12.503906 C 5.21875 15.964844 7.253906 19.101562 10.410156 20.515625 L 10.410156 21.746094 L 13.488281 21.746094 L 13.488281 15.757812 C 12.300781 15.476562 11.566406 14.285156 11.851562 13.097656 C 12.132812 11.910156 13.324219 11.175781 14.511719 11.460938 C 15.699219 11.742188 16.433594 12.933594 16.148438 14.121094 C 15.957031 14.933594 15.324219 15.566406 14.511719 15.757812 L 14.511719 21.757812 L 17.589844 21.757812 L 17.589844 20.527344 C 22.011719 18.5625 24.007812 13.382812 22.046875 8.957031 Z M 22.046875 8.957031 "/>
</g>
</svg>
