<?xml version="1.0" encoding="UTF-8"?>
<svg xmlns="http://www.w3.org/2000/svg" xmlns:xlink="http://www.w3.org/1999/xlink" width="28pt" height="28pt" viewBox="0 0 28 28" version="1.1">
<g id="surface1">
<path style=" stroke:none;fill-rule:nonzero;fill:rgb(0%,0%,0%);fill-opacity:1;" d="M 18.941406 17.222656 L 18.941406 2.980469 C 18.941406 1.332031 17.601562 0 15.953125 0 L 15.914062 0 C 15.207031 0 14.554688 0.25 14.039062 0.664062 C 13.527344 0.25 12.875 0 12.164062 0 L 12.128906 0 C 10.480469 0 9.078125 1.332031 9.078125 2.980469 L 9.078125 17.210938 C 8.425781 17.289062 7.867188 17.878906 7.867188 18.597656 L 7.867188 20.457031 C 7.867188 21.226562 8.523438 21.863281 9.296875 21.863281 L 9.789062 21.863281 C 9.550781 21.957031 9.355469 22.234375 9.355469 22.527344 L 9.355469 22.574219 C 9.355469 22.90625 9.570312 23.1875 9.863281 23.292969 C 9.570312 23.402344 9.355469 23.683594 9.355469 24.015625 L 9.355469 24.0625 C 9.355469 24.484375 9.730469 24.839844 10.15625 24.839844 L 10.972656 24.839844 C 10.972656 24.839844 10.96875 24.851562 10.96875 24.859375 C 10.96875 26.554688 12.34375 27.925781 14.039062 27.925781 C 15.734375 27.925781 17.109375 26.554688 17.109375 24.859375 C 17.109375 24.851562 17.109375 24.839844 17.109375 24.839844 L 17.832031 24.839844 C 18.253906 24.839844 18.566406 24.484375 18.566406 24.0625 L 18.566406 24.015625 C 18.566406 23.683594 18.355469 23.402344 18.0625 23.292969 C 18.355469 23.1875 18.566406 22.90625 18.566406 22.574219 L 18.566406 22.527344 C 18.566406 22.234375 18.4375 21.957031 18.199219 21.863281 L 18.691406 21.863281 C 19.460938 21.863281 20.058594 21.226562 20.058594 20.457031 L 20.058594 18.597656 C 20.058594 17.910156 19.589844 17.34375 18.941406 17.222656 Z M 12.894531 17.210938 L 11.3125 17.210938 L 11.3125 2.980469 C 11.3125 2.5625 11.710938 2.234375 12.128906 2.234375 L 12.164062 2.234375 C 12.582031 2.234375 12.894531 2.5625 12.894531 2.980469 Z M 16.707031 17.210938 L 16.710938 17.210938 L 15.125 17.210938 L 15.125 2.980469 C 15.125 2.5625 15.496094 2.234375 15.914062 2.234375 L 15.953125 2.234375 C 16.371094 2.234375 16.722656 2.5625 16.722656 2.980469 "/>
</g>
</svg>
