<?xml version="1.0" encoding="UTF-8"?>
<svg xmlns="http://www.w3.org/2000/svg" xmlns:xlink="http://www.w3.org/1999/xlink" width="28pt" height="28pt" viewBox="0 0 28 28" version="1.1">
<g id="surface1">
<path style=" stroke:none;fill-rule:nonzero;fill:rgb(0%,0%,0%);fill-opacity:1;" d="M 10.386719 12.015625 C 9.636719 12.394531 8.941406 12.898438 8.328125 13.511719 C 7.425781 14.414062 6.765625 15.496094 6.378906 16.679688 C 6.910156 16.789062 7.457031 16.847656 8.015625 16.847656 C 8.714844 16.847656 9.414062 16.753906 10.097656 16.570312 C 10.945312 16.34375 11.722656 15.988281 12.417969 15.53125 C 11.511719 14.507812 10.820312 13.3125 10.386719 12.015625 Z M 10.386719 12.015625 "/>
<path style=" stroke:none;fill-rule:nonzero;fill:rgb(0%,0%,0%);fill-opacity:1;" d="M 19.671875 13.507812 C 19.058594 12.894531 18.363281 12.394531 17.613281 12.015625 C 17.179688 13.308594 16.488281 14.507812 15.582031 15.53125 C 16.277344 15.988281 17.058594 16.34375 17.902344 16.570312 C 18.585938 16.75 19.285156 16.84375 19.984375 16.84375 C 20.542969 16.84375 21.089844 16.785156 21.625 16.675781 C 21.238281 15.492188 20.574219 14.410156 19.671875 13.507812 Z M 19.671875 13.507812 "/>
<path style=" stroke:none;fill-rule:nonzero;fill:rgb(0%,0%,0%);fill-opacity:1;" d="M 14 11.160156 C 13.445312 11.160156 12.894531 11.21875 12.363281 11.328125 C 12.707031 12.375 13.265625 13.339844 14 14.164062 C 14.734375 13.339844 15.292969 12.375 15.636719 11.328125 C 15.105469 11.214844 14.558594 11.160156 14 11.160156 Z M 14 11.160156 "/>
<path style=" stroke:none;fill-rule:nonzero;fill:rgb(0%,0%,0%);fill-opacity:1;" d="M 15.765625 6.75 C 15.433594 5.503906 14.816406 4.398438 13.996094 3.484375 C 13.179688 4.398438 12.5625 5.507812 12.230469 6.75 C 12.003906 7.59375 11.921875 8.441406 11.96875 9.269531 C 12.632812 9.136719 13.3125 9.066406 14 9.066406 C 14.691406 9.066406 15.367188 9.136719 16.027344 9.269531 C 16.074219 8.441406 15.992188 7.59375 15.765625 6.75 Z M 15.765625 6.75 "/>
<path style=" stroke:none;fill-rule:nonzero;fill:rgb(0%,0%,0%);fill-opacity:1;" d="M 26.921875 4.8125 C 25.847656 2.957031 24.121094 1.628906 22.050781 1.074219 C 21.367188 0.894531 20.667969 0.800781 19.972656 0.800781 C 18.371094 0.800781 16.855469 1.28125 15.582031 2.117188 C 16.601562 3.265625 17.371094 4.652344 17.785156 6.207031 C 18.121094 7.453125 18.207031 8.707031 18.074219 9.917969 C 19.207031 10.417969 20.246094 11.125 21.148438 12.027344 C 22.277344 13.15625 23.109375 14.503906 23.597656 15.976562 C 25.582031 14.96875 27.121094 13.152344 27.722656 10.894531 C 28.277344 8.828125 27.992188 6.664062 26.921875 4.8125 Z M 26.921875 4.8125 "/>
<path style=" stroke:none;fill-rule:nonzero;fill:rgb(0%,0%,0%);fill-opacity:1;" d="M 22.007812 18.730469 C 21.351562 18.867188 20.671875 18.9375 19.984375 18.9375 C 19.101562 18.9375 18.222656 18.820312 17.363281 18.589844 C 16.117188 18.257812 14.984375 17.703125 14 16.980469 C 13.019531 17.703125 11.886719 18.257812 10.640625 18.59375 C 9.78125 18.824219 8.898438 18.941406 8.015625 18.941406 C 7.328125 18.941406 6.652344 18.871094 5.996094 18.734375 C 5.988281 18.882812 5.980469 19.03125 5.984375 19.183594 C 5.984375 21.324219 6.816406 23.335938 8.332031 24.851562 C 9.847656 26.367188 11.859375 27.199219 14 27.199219 C 16.144531 27.199219 18.160156 26.363281 19.675781 24.847656 C 21.1875 23.332031 22.023438 21.320312 22.019531 19.175781 C 22.019531 19.027344 22.015625 18.878906 22.007812 18.730469 Z M 22.007812 18.730469 "/>
<path style=" stroke:none;fill-rule:nonzero;fill:rgb(0%,0%,0%);fill-opacity:1;" d="M 12.410156 2.117188 C 11.136719 1.28125 9.625 0.804688 8.027344 0.804688 C 7.328125 0.804688 6.625 0.898438 5.941406 1.082031 C 1.671875 2.226562 -0.871094 6.632812 0.273438 10.902344 C 0.878906 13.160156 2.417969 14.976562 4.402344 15.984375 C 4.894531 14.511719 5.722656 13.160156 6.851562 12.03125 C 7.75 11.128906 8.792969 10.417969 9.925781 9.921875 C 9.792969 8.710938 9.875 7.453125 10.210938 6.207031 C 10.625 4.652344 11.394531 3.265625 12.410156 2.117188 Z M 12.410156 2.117188 "/>
</g>
</svg>
