<?xml version="1.0" encoding="UTF-8"?>
<svg xmlns="http://www.w3.org/2000/svg" xmlns:xlink="http://www.w3.org/1999/xlink" width="28pt" height="28pt" viewBox="0 0 28 28" version="1.1">
<g id="surface1">
<path style=" stroke:none;fill-rule:nonzero;fill:rgb(0%,0%,0%);fill-opacity:1;" d="M 13.996094 12.84375 L 15.730469 11.113281 L 12.265625 11.113281 Z M 13.996094 12.84375 "/>
<path style=" stroke:none;fill-rule:nonzero;fill:rgb(0%,0%,0%);fill-opacity:1;" d="M 13.996094 0 C 10.703125 0 8.035156 5.320312 8.035156 11.882812 C 8.035156 15.441406 8.824219 18.625 10.066406 20.800781 L 10.066406 24.535156 C 10.066406 25.292969 10.683594 25.910156 11.441406 25.910156 L 12.265625 25.910156 L 12.265625 26.261719 C 12.265625 27.21875 13.039062 27.992188 13.996094 27.992188 C 14.953125 27.992188 15.726562 27.21875 15.726562 26.261719 L 15.726562 25.910156 L 16.550781 25.910156 C 17.308594 25.910156 17.925781 25.292969 17.925781 24.535156 L 17.925781 20.800781 C 19.167969 18.621094 19.957031 15.4375 19.957031 11.882812 C 19.957031 5.320312 17.289062 0 13.996094 0 Z M 16.515625 24.5 L 11.476562 24.5 L 11.476562 21.691406 L 16.515625 21.691406 Z M 14.703125 14.132812 L 14.703125 19.933594 L 13.289062 19.933594 L 13.289062 14.132812 L 10.0625 10.90625 C 9.859375 10.703125 9.800781 10.402344 9.910156 10.136719 C 10.019531 9.875 10.273438 9.703125 10.5625 9.703125 L 17.433594 9.703125 C 17.71875 9.703125 17.972656 9.875 18.085938 10.136719 C 18.191406 10.402344 18.132812 10.703125 17.929688 10.90625 Z M 14.703125 14.132812 "/>
</g>
</svg>
