<?xml version="1.0" encoding="UTF-8"?>
<svg xmlns="http://www.w3.org/2000/svg" xmlns:xlink="http://www.w3.org/1999/xlink" width="28pt" height="27pt" viewBox="0 0 28 27" version="1.1">
<g id="surface1">
<path style=" stroke:none;fill-rule:nonzero;fill:rgb(0%,0%,0%);fill-opacity:1;" d="M 22.089844 11.246094 C 21.597656 11.246094 21.195312 11.628906 21.195312 12.101562 L 21.195312 12.933594 L 22.976562 12.933594 L 22.976562 12.101562 C 22.976562 11.628906 22.578125 11.246094 22.089844 11.246094 Z M 22.089844 11.246094 "/>
<path style=" stroke:none;fill-rule:nonzero;fill:rgb(0%,0%,0%);fill-opacity:1;" d="M 24.558594 7.195312 L 3.441406 7.195312 C 1.550781 7.195312 0 8.679688 0 10.484375 L 0 16.285156 C 0 18.09375 1.550781 19.570312 3.441406 19.570312 L 24.558594 19.570312 C 26.449219 19.570312 28 18.09375 28 16.285156 L 28 10.484375 C 28 8.679688 26.449219 7.195312 24.558594 7.195312 Z M 7.484375 14.285156 L 8.308594 15.136719 L 6.875 16.164062 L 6.292969 15.136719 C 6.207031 14.992188 6.070312 14.707031 5.878906 14.285156 C 5.671875 14.746094 5.53125 15.035156 5.464844 15.136719 L 4.871094 16.164062 L 3.40625 15.136719 L 4.289062 14.285156 C 4.539062 14.046875 4.785156 13.84375 5.023438 13.675781 C 4.78125 13.65625 4.457031 13.609375 4.0625 13.542969 L 2.828125 13.347656 L 3.398438 11.746094 L 4.507812 12.230469 C 4.621094 12.277344 4.90625 12.433594 5.367188 12.695312 C 5.273438 12.269531 5.210938 11.957031 5.179688 11.746094 L 5.023438 10.601562 L 6.777344 10.601562 L 6.636719 11.746094 C 6.601562 12.027344 6.535156 12.34375 6.433594 12.695312 C 6.636719 12.601562 6.765625 12.535156 6.832031 12.5 C 7.054688 12.382812 7.222656 12.300781 7.34375 12.246094 L 8.445312 11.746094 L 8.992188 13.347656 L 7.769531 13.59375 C 7.546875 13.632812 7.214844 13.660156 6.777344 13.675781 C 7.074219 13.902344 7.304688 14.101562 7.484375 14.285156 Z M 15.570312 14.285156 L 16.398438 15.136719 L 14.964844 16.164062 L 14.382812 15.136719 C 14.296875 14.992188 14.160156 14.707031 13.972656 14.285156 C 13.761719 14.746094 13.625 15.035156 13.558594 15.136719 L 12.960938 16.164062 L 11.492188 15.136719 L 12.382812 14.285156 C 12.632812 14.046875 12.875 13.84375 13.109375 13.675781 C 12.871094 13.65625 12.546875 13.609375 12.148438 13.542969 L 10.917969 13.347656 L 11.492188 11.746094 L 12.597656 12.230469 C 12.710938 12.277344 13 12.433594 13.460938 12.695312 C 13.363281 12.269531 13.296875 11.957031 13.269531 11.746094 L 13.109375 10.601562 L 14.867188 10.601562 L 14.726562 11.746094 C 14.691406 12.027344 14.625 12.34375 14.523438 12.695312 C 14.726562 12.601562 14.859375 12.535156 14.921875 12.5 C 15.144531 12.382812 15.316406 12.300781 15.429688 12.246094 L 16.535156 11.746094 L 17.082031 13.347656 L 15.859375 13.59375 C 15.636719 13.632812 15.308594 13.660156 14.867188 13.675781 C 15.164062 13.902344 15.394531 14.101562 15.570312 14.285156 Z M 24.632812 15.734375 C 24.632812 16.082031 24.332031 16.375 23.960938 16.375 L 20.210938 16.375 C 19.847656 16.375 19.542969 16.082031 19.542969 15.734375 L 19.542969 13.570312 C 19.542969 13.21875 19.847656 12.933594 20.210938 12.933594 L 20.304688 12.933594 L 20.304688 12.101562 C 20.304688 11.160156 21.105469 10.390625 22.089844 10.390625 C 23.074219 10.390625 23.871094 11.15625 23.871094 12.101562 L 23.871094 12.933594 L 23.960938 12.933594 C 24.332031 12.933594 24.632812 13.21875 24.632812 13.570312 Z M 24.632812 15.734375 "/>
</g>
</svg>
