<?xml version="1.0" encoding="UTF-8"?>
<svg xmlns="http://www.w3.org/2000/svg" xmlns:xlink="http://www.w3.org/1999/xlink" width="28pt" height="28pt" viewBox="0 0 28 28" version="1.1">
<g id="surface1">
<path style=" stroke:none;fill-rule:nonzero;fill:rgb(0%,0%,0%);fill-opacity:1;" d="M 25.417969 0 L 2.582031 0 C 2.273438 0 2.023438 0.25 2.023438 0.558594 L 2.023438 27.441406 C 2.023438 27.75 2.273438 28 2.582031 28 L 25.417969 28 C 25.726562 28 25.976562 27.75 25.976562 27.441406 L 25.976562 0.558594 C 25.976562 0.25 25.726562 0 25.417969 0 Z M 3.140625 1.117188 L 24.859375 1.117188 L 24.859375 2.898438 L 3.140625 2.898438 Z M 21.863281 4.015625 L 21.863281 6.917969 L 16.285156 6.917969 L 16.285156 4.015625 Z M 3.140625 4.015625 L 15.171875 4.015625 L 15.171875 6.917969 L 3.140625 6.917969 Z M 3.140625 26.882812 L 3.140625 8.03125 L 24.859375 8.03125 L 24.859375 26.882812 Z M 24.859375 6.917969 L 22.980469 6.917969 L 22.980469 4.015625 L 24.859375 4.015625 Z M 24.859375 6.917969 "/>
<path style=" stroke:none;fill-rule:nonzero;fill:rgb(0%,0%,0%);fill-opacity:1;" d="M 14 9.761719 C 9.753906 9.761719 6.304688 13.214844 6.304688 17.457031 C 6.304688 21.703125 9.753906 25.15625 14 25.15625 C 18.246094 25.15625 21.695312 21.703125 21.695312 17.457031 C 21.695312 13.214844 18.246094 9.761719 14 9.761719 Z M 14 24.039062 C 10.371094 24.039062 7.417969 21.085938 7.417969 17.457031 C 7.417969 13.828125 10.371094 10.875 14 10.875 C 17.628906 10.875 20.582031 13.828125 20.582031 17.457031 C 20.582031 21.085938 17.628906 24.039062 14 24.039062 Z M 14 24.039062 "/>
<path style=" stroke:none;fill-rule:nonzero;fill:rgb(0%,0%,0%);fill-opacity:1;" d="M 14 11.824219 C 10.894531 11.824219 8.367188 14.351562 8.367188 17.457031 C 8.367188 17.660156 8.378906 17.867188 8.398438 18.070312 C 8.398438 18.074219 8.398438 18.074219 8.398438 18.074219 C 8.710938 20.933594 11.117188 23.089844 14 23.089844 C 15.496094 23.089844 16.90625 22.511719 17.96875 21.457031 C 19.027344 20.40625 19.621094 19.003906 19.632812 17.507812 L 19.632812 17.492188 C 19.632812 17.480469 19.632812 17.46875 19.632812 17.457031 C 19.632812 14.351562 17.105469 11.824219 14 11.824219 Z M 14 21.976562 C 11.8125 21.976562 9.964844 20.425781 9.5625 18.3125 C 10.054688 18.078125 10.636719 17.960938 11.292969 17.960938 C 12.46875 17.960938 13.09375 18.324219 13.644531 18.644531 C 14.085938 18.902344 14.539062 19.164062 15.140625 19.164062 C 15.734375 19.164062 16.160156 18.957031 16.609375 18.734375 C 17.070312 18.507812 17.585938 18.253906 18.46875 18.125 C 18.144531 20.296875 16.257812 21.976562 14 21.976562 Z M 16.117188 17.734375 C 15.730469 17.921875 15.476562 18.050781 15.140625 18.050781 C 14.855469 18.050781 14.609375 17.914062 14.207031 17.679688 C 13.601562 17.328125 12.769531 16.84375 11.292969 16.84375 C 10.636719 16.84375 10.035156 16.941406 9.492188 17.136719 C 9.660156 14.792969 11.617188 12.941406 14 12.941406 C 16.335938 12.941406 18.261719 14.722656 18.496094 16.996094 C 17.316406 17.144531 16.632812 17.480469 16.117188 17.734375 Z M 16.117188 17.734375 "/>
<path style=" stroke:none;fill-rule:nonzero;fill:rgb(0%,0%,0%);fill-opacity:1;" d="M 14.085938 15.734375 C 13.632812 15.507812 13.136719 15.273438 12.441406 15.128906 C 12.140625 15.066406 11.84375 15.257812 11.78125 15.558594 C 11.71875 15.859375 11.910156 16.15625 12.214844 16.21875 C 12.777344 16.335938 13.179688 16.527344 13.582031 16.730469 C 13.660156 16.769531 13.746094 16.789062 13.832031 16.789062 C 14.035156 16.789062 14.230469 16.679688 14.332031 16.484375 C 14.46875 16.210938 14.359375 15.875 14.085938 15.734375 Z M 14.085938 15.734375 "/>
<path style=" stroke:none;fill-rule:nonzero;fill:rgb(0%,0%,0%);fill-opacity:1;" d="M 16.75 16.28125 C 16.636719 15.996094 16.3125 15.855469 16.027344 15.96875 C 15.792969 16.0625 15.617188 16.109375 15.441406 16.128906 C 15.136719 16.164062 14.917969 16.441406 14.953125 16.75 C 14.984375 17.03125 15.226562 17.242188 15.503906 17.242188 C 15.527344 17.242188 15.546875 17.242188 15.570312 17.238281 C 15.921875 17.199219 16.21875 17.09375 16.4375 17.007812 C 16.722656 16.894531 16.863281 16.570312 16.75 16.28125 Z M 16.75 16.28125 "/>
<path style=" stroke:none;fill-rule:nonzero;fill:rgb(0%,0%,0%);fill-opacity:1;" d="M 20.582031 4.683594 L 20.304688 4.683594 C 19.996094 4.683594 19.746094 4.933594 19.746094 5.242188 C 19.746094 5.550781 19.996094 5.800781 20.304688 5.800781 L 20.582031 5.800781 C 20.890625 5.800781 21.140625 5.550781 21.140625 5.242188 C 21.140625 4.933594 20.890625 4.683594 20.582031 4.683594 Z M 20.582031 4.683594 "/>
<path style=" stroke:none;fill-rule:nonzero;fill:rgb(0%,0%,0%);fill-opacity:1;" d="M 18.574219 4.683594 L 17.625 4.683594 C 17.316406 4.683594 17.066406 4.933594 17.066406 5.242188 C 17.066406 5.550781 17.316406 5.800781 17.625 5.800781 L 18.574219 5.800781 C 18.882812 5.800781 19.132812 5.550781 19.132812 5.242188 C 19.132812 4.933594 18.882812 4.683594 18.574219 4.683594 Z M 18.574219 4.683594 "/>
<path style=" stroke:none;fill-rule:nonzero;fill:rgb(0%,0%,0%);fill-opacity:1;" d="M 5.300781 4.628906 C 4.835938 4.628906 4.460938 5.003906 4.460938 5.464844 C 4.460938 5.925781 4.835938 6.304688 5.300781 6.304688 C 5.761719 6.304688 6.136719 5.925781 6.136719 5.464844 C 6.136719 5.003906 5.761719 4.628906 5.300781 4.628906 Z M 5.300781 5.746094 C 5.144531 5.746094 5.019531 5.621094 5.019531 5.464844 C 5.019531 5.3125 5.144531 5.1875 5.300781 5.1875 C 5.453125 5.1875 5.578125 5.3125 5.578125 5.464844 C 5.578125 5.621094 5.453125 5.746094 5.300781 5.746094 Z M 5.300781 5.746094 "/>
<path style=" stroke:none;fill-rule:nonzero;fill:rgb(0%,0%,0%);fill-opacity:1;" d="M 7.976562 4.628906 C 7.515625 4.628906 7.140625 5.003906 7.140625 5.464844 C 7.140625 5.925781 7.515625 6.304688 7.976562 6.304688 C 8.4375 6.304688 8.8125 5.925781 8.8125 5.464844 C 8.8125 5.003906 8.4375 4.628906 7.976562 4.628906 Z M 7.976562 5.746094 C 7.824219 5.746094 7.695312 5.621094 7.695312 5.464844 C 7.695312 5.3125 7.824219 5.1875 7.976562 5.1875 C 8.128906 5.1875 8.253906 5.3125 8.253906 5.464844 C 8.253906 5.621094 8.128906 5.746094 7.976562 5.746094 Z M 7.976562 5.746094 "/>
</g>
</svg>
