<?xml version="1.0" encoding="UTF-8"?>
<svg xmlns="http://www.w3.org/2000/svg" xmlns:xlink="http://www.w3.org/1999/xlink" width="28pt" height="27pt" viewBox="0 0 28 27" version="1.1">
<g id="surface1">
<path style=" stroke:none;fill-rule:nonzero;fill:rgb(0%,0%,0%);fill-opacity:1;" d="M 26.808594 0.121094 C 26.699219 0.03125 26.554688 -0.0117188 26.40625 0.00390625 L 10.625 1.957031 C 10.371094 1.988281 10.183594 2.195312 10.183594 2.441406 L 10.183594 19.792969 C 9.253906 18.722656 7.773438 18.03125 6.109375 18.03125 C 3.300781 18.03125 1.019531 19.996094 1.019531 22.414062 C 1.019531 24.835938 3.300781 26.800781 6.109375 26.800781 C 8.917969 26.800781 11.199219 24.835938 11.199219 22.414062 C 11.199219 22.304688 11.191406 22.191406 11.179688 22.082031 C 11.1875 22.046875 11.199219 22.019531 11.199219 21.984375 L 11.199219 7.855469 L 25.964844 6.027344 L 25.964844 14.921875 C 25.035156 13.855469 23.558594 13.15625 21.890625 13.15625 C 19.082031 13.15625 16.800781 15.125 16.800781 17.542969 C 16.800781 19.960938 19.082031 21.925781 21.890625 21.925781 C 24.671875 21.925781 26.9375 19.996094 26.976562 17.609375 C 26.976562 17.601562 26.980469 17.597656 26.980469 17.589844 L 26.980469 0.488281 C 26.980469 0.34375 26.917969 0.214844 26.808594 0.121094 Z M 26.808594 0.121094 "/>
</g>
</svg>
