<?xml version="1.0" encoding="UTF-8"?>
<svg xmlns="http://www.w3.org/2000/svg" xmlns:xlink="http://www.w3.org/1999/xlink" width="28pt" height="28pt" viewBox="0 0 28 28" version="1.1">
<g id="surface1">
<path style=" stroke:none;fill-rule:nonzero;fill:rgb(0%,0%,0%);fill-opacity:1;" d="M 21.242188 13.515625 C 20.976562 13.515625 20.757812 13.734375 20.757812 14 L 20.757812 16.898438 C 20.757812 20.625 17.726562 23.65625 14 23.65625 C 10.273438 23.65625 7.242188 20.625 7.242188 16.898438 L 7.242188 14 C 7.242188 13.734375 7.023438 13.515625 6.757812 13.515625 C 6.492188 13.515625 6.277344 13.734375 6.277344 14 L 6.277344 16.898438 C 6.277344 20.992188 9.484375 24.34375 13.515625 24.597656 L 13.515625 27.035156 L 11.101562 27.035156 C 10.835938 27.035156 10.621094 27.25 10.621094 27.515625 C 10.621094 27.785156 10.835938 28 11.101562 28 L 16.898438 28 C 17.164062 28 17.378906 27.785156 17.378906 27.515625 C 17.378906 27.25 17.164062 27.035156 16.898438 27.035156 L 14.484375 27.035156 L 14.484375 24.597656 C 18.515625 24.34375 21.722656 20.992188 21.722656 16.898438 L 21.722656 14 C 21.722656 13.734375 21.507812 13.515625 21.242188 13.515625 Z M 21.242188 13.515625 "/>
<path style=" stroke:none;fill-rule:nonzero;fill:rgb(0%,0%,0%);fill-opacity:1;" d="M 14 22.207031 C 16.929688 22.207031 19.308594 19.824219 19.308594 16.898438 L 19.308594 5.308594 C 19.308594 2.382812 16.929688 0 14 0 C 11.070312 0 8.691406 2.382812 8.691406 5.308594 L 8.691406 16.898438 C 8.691406 19.824219 11.070312 22.207031 14 22.207031 Z M 9.65625 5.308594 C 9.65625 2.914062 11.605469 0.964844 14 0.964844 C 16.394531 0.964844 18.34375 2.914062 18.34375 5.308594 L 18.34375 16.898438 C 18.34375 19.292969 16.394531 21.242188 14 21.242188 C 11.605469 21.242188 9.65625 19.292969 9.65625 16.898438 Z M 9.65625 5.308594 "/>
</g>
</svg>
