<?xml version="1.0" encoding="UTF-8"?>
<svg xmlns="http://www.w3.org/2000/svg" xmlns:xlink="http://www.w3.org/1999/xlink" width="28pt" height="27pt" viewBox="0 0 28 27" version="1.1">
<g id="surface1">
<path style=" stroke:none;fill-rule:nonzero;fill:rgb(0%,0%,0%);fill-opacity:1;" d="M 25.238281 17.902344 C 24.730469 16.679688 23.671875 15.890625 22.335938 15.734375 C 20.160156 15.480469 17.761719 16.890625 15.75 19.605469 C 11.238281 25.695312 6.945312 26.105469 5.734375 26.085938 C 4.6875 26.070312 4.003906 25.757812 3.792969 25.453125 C 3.242188 24.652344 4.394531 23.207031 5.117188 22.476562 C 5.636719 22.84375 6.261719 23.042969 6.921875 23.042969 C 7.738281 23.042969 8.503906 22.738281 9.082031 22.179688 L 15.792969 15.710938 C 15.96875 15.726562 16.144531 15.738281 16.324219 15.738281 C 17.628906 15.738281 18.855469 15.246094 19.78125 14.359375 C 20.703125 13.46875 21.210938 12.285156 21.210938 11.027344 C 21.210938 9.769531 20.703125 8.585938 19.78125 7.695312 C 17.875 5.859375 14.777344 5.859375 12.871094 7.695312 C 11.949219 8.585938 11.441406 9.769531 11.441406 11.027344 C 11.441406 11.199219 11.449219 11.371094 11.46875 11.539062 L 4.757812 18.011719 C 4.179688 18.566406 3.863281 19.308594 3.863281 20.097656 C 3.863281 20.730469 4.070312 21.332031 4.449219 21.832031 C 4.1875 22.09375 3.8125 22.503906 3.476562 22.980469 C 2.421875 24.476562 2.640625 25.425781 3.007812 25.960938 C 3.445312 26.589844 4.457031 26.980469 5.71875 27 C 5.753906 27 5.789062 27 5.824219 27 C 6.902344 27 8.585938 26.742188 10.660156 25.570312 C 12.753906 24.386719 14.722656 22.558594 16.519531 20.136719 C 18.296875 17.738281 20.429688 16.429688 22.21875 16.636719 C 23.207031 16.753906 23.984375 17.335938 24.359375 18.238281 C 25.015625 19.828125 24.351562 22.011719 22.578125 24.078125 C 22.023438 24.726562 21.507812 25.367188 21.046875 25.980469 C 20.894531 26.1875 20.945312 26.472656 21.15625 26.617188 C 21.367188 26.765625 21.664062 26.71875 21.816406 26.515625 C 22.261719 25.914062 22.765625 25.292969 23.308594 24.660156 C 25.304688 22.332031 26.023438 19.804688 25.238281 17.902344 Z M 5.425781 21.535156 C 5.027344 21.152344 4.808594 20.640625 4.808594 20.097656 C 4.808594 19.707031 4.921875 19.335938 5.128906 19.015625 L 8.042969 21.820312 C 7.707031 22.023438 7.324219 22.132812 6.921875 22.132812 C 6.355469 22.132812 5.824219 21.921875 5.425781 21.535156 Z M 13.539062 13.714844 C 12.796875 12.996094 12.386719 12.042969 12.386719 11.027344 C 12.386719 10.820312 12.402344 10.617188 12.4375 10.417969 L 16.957031 14.777344 C 16.75 14.808594 16.539062 14.824219 16.324219 14.824219 C 15.273438 14.824219 14.285156 14.429688 13.539062 13.714844 Z M 13.539062 8.339844 C 14.308594 7.597656 15.316406 7.230469 16.324219 7.230469 C 17.335938 7.230469 18.34375 7.597656 19.113281 8.339844 C 19.855469 9.058594 20.265625 10.011719 20.265625 11.027344 C 20.265625 12.042969 19.855469 12.996094 19.113281 13.710938 C 18.777344 14.035156 18.398438 14.289062 17.984375 14.476562 L 12.75 9.429688 C 12.941406 9.027344 13.207031 8.660156 13.539062 8.339844 Z M 12.871094 14.359375 C 13.398438 14.863281 14.019531 15.242188 14.703125 15.472656 L 8.746094 21.214844 L 5.761719 18.332031 L 11.714844 12.59375 C 11.953125 13.25 12.34375 13.851562 12.871094 14.359375 Z M 12.871094 14.359375 "/>
<path style=" stroke:none;fill-rule:nonzero;fill:rgb(0%,0%,0%);fill-opacity:1;" d="M 4.5 9.53125 C 4.742188 9.53125 4.988281 9.488281 5.226562 9.402344 C 5.738281 9.210938 6.144531 8.84375 6.367188 8.363281 C 6.59375 7.882812 6.609375 7.34375 6.414062 6.851562 L 4.675781 2.449219 L 8.507812 1.042969 L 9.628906 3.894531 C 9.261719 3.816406 8.863281 3.839844 8.484375 3.980469 C 7.429688 4.367188 6.894531 5.507812 7.296875 6.527344 C 7.609375 7.316406 8.386719 7.800781 9.214844 7.800781 C 9.457031 7.800781 9.703125 7.757812 9.941406 7.671875 C 10.453125 7.484375 10.859375 7.117188 11.082031 6.632812 C 11.304688 6.152344 11.320312 5.617188 11.128906 5.125 L 9.222656 0.292969 C 9.179688 0.179688 9.089844 0.0898438 8.976562 0.0390625 C 8.859375 -0.0078125 8.730469 -0.0117188 8.613281 0.03125 L 3.898438 1.757812 C 3.65625 1.847656 3.53125 2.109375 3.625 2.347656 L 4.917969 5.621094 C 4.546875 5.546875 4.148438 5.566406 3.769531 5.707031 C 2.714844 6.09375 2.183594 7.238281 2.582031 8.257812 C 2.894531 9.042969 3.675781 9.53125 4.5 9.53125 Z M 10.21875 6.261719 C 10.097656 6.519531 9.878906 6.71875 9.605469 6.820312 C 9.035156 7.027344 8.398438 6.75 8.179688 6.203125 C 7.964844 5.65625 8.25 5.039062 8.820312 4.832031 C 8.949219 4.785156 9.082031 4.761719 9.210938 4.761719 C 9.65625 4.761719 10.078125 5.023438 10.242188 5.449219 C 10.347656 5.714844 10.339844 6.003906 10.21875 6.261719 Z M 4.105469 6.558594 C 4.234375 6.511719 4.367188 6.488281 4.496094 6.488281 C 4.941406 6.488281 5.363281 6.75 5.53125 7.175781 C 5.632812 7.441406 5.625 7.730469 5.503906 7.988281 C 5.382812 8.25 5.167969 8.445312 4.890625 8.546875 C 4.324219 8.757812 3.683594 8.480469 3.46875 7.933594 C 3.25 7.382812 3.539062 6.769531 4.105469 6.558594 Z M 4.105469 6.558594 "/>
</g>
</svg>
