<?xml version="1.0" encoding="UTF-8"?>
<svg xmlns="http://www.w3.org/2000/svg" xmlns:xlink="http://www.w3.org/1999/xlink" width="28pt" height="28pt" viewBox="0 0 28 28" version="1.1">
<g id="surface1">
<path style=" stroke:none;fill-rule:nonzero;fill:rgb(0%,0%,0%);fill-opacity:1;" d="M 26.429688 1.539062 C 25.40625 0.511719 24.171875 0 22.726562 0 L 5.246094 0 C 3.800781 0 2.566406 0.511719 1.539062 1.539062 C 0.511719 2.5625 0 3.800781 0 5.246094 L 0 22.726562 C 0 24.171875 0.511719 25.40625 1.539062 26.429688 C 2.566406 27.457031 3.800781 27.96875 5.246094 27.96875 L 22.726562 27.96875 C 24.171875 27.96875 25.40625 27.457031 26.429688 26.429688 C 27.457031 25.40625 27.96875 24.171875 27.96875 22.726562 L 27.96875 5.246094 C 27.96875 3.800781 27.457031 2.5625 26.429688 1.539062 Z M 23.308594 15.152344 C 23.308594 15.464844 23.195312 15.738281 22.964844 15.96875 C 22.730469 16.199219 22.457031 16.316406 22.144531 16.316406 L 5.828125 16.316406 C 5.511719 16.316406 5.238281 16.199219 5.007812 15.96875 C 4.777344 15.738281 4.660156 15.464844 4.660156 15.152344 L 4.660156 12.820312 C 4.660156 12.503906 4.777344 12.230469 5.007812 12 C 5.238281 11.769531 5.511719 11.652344 5.828125 11.652344 L 22.144531 11.652344 C 22.457031 11.652344 22.730469 11.769531 22.964844 12 C 23.195312 12.230469 23.308594 12.503906 23.308594 12.820312 Z M 23.308594 15.152344 "/>
</g>
</svg>
