<?xml version="1.0" encoding="UTF-8"?>
<svg xmlns="http://www.w3.org/2000/svg" xmlns:xlink="http://www.w3.org/1999/xlink" width="28pt" height="27pt" viewBox="0 0 28 27" version="1.1">
<g id="surface1">
<path style=" stroke:none;fill-rule:nonzero;fill:rgb(0%,0%,0%);fill-opacity:1;" d="M 10.441406 17.238281 L 10.242188 19.054688 C 10.226562 19.199219 10.273438 19.34375 10.375 19.453125 C 10.476562 19.566406 10.625 19.625 10.777344 19.625 L 16.46875 19.625 C 16.621094 19.625 16.769531 19.5625 16.871094 19.453125 C 16.972656 19.34375 17.023438 19.199219 17.003906 19.054688 L 16.804688 17.238281 L 23.898438 17.238281 C 25.003906 17.238281 25.898438 16.371094 25.898438 15.308594 L 25.898438 1.929688 C 25.898438 0.867188 25.003906 0 23.898438 0 L 2.917969 0 C 1.8125 0 0.914062 0.867188 0.914062 1.929688 L 0.914062 15.308594 C 0.914062 16.371094 1.8125 17.238281 2.917969 17.238281 Z M 15.871094 18.589844 L 11.375 18.589844 L 11.523438 17.238281 L 15.722656 17.238281 Z M 2.917969 1.039062 L 23.898438 1.039062 C 24.410156 1.039062 24.824219 1.4375 24.824219 1.929688 L 24.824219 13.707031 L 1.992188 13.707031 L 1.992188 1.929688 C 1.992188 1.4375 2.40625 1.039062 2.917969 1.039062 Z M 1.992188 15.308594 L 1.992188 14.746094 L 24.824219 14.746094 L 24.824219 15.308594 C 24.824219 15.800781 24.40625 16.199219 23.898438 16.199219 L 2.917969 16.199219 C 2.40625 16.199219 1.992188 15.800781 1.992188 15.308594 Z M 1.992188 15.308594 "/>
<path style=" stroke:none;fill-rule:nonzero;fill:rgb(0%,0%,0%);fill-opacity:1;" d="M 23.882812 23.117188 C 23.980469 22.960938 23.988281 22.769531 23.902344 22.605469 L 22.835938 20.632812 C 22.746094 20.460938 22.558594 20.355469 22.359375 20.355469 L 4.457031 20.355469 C 4.253906 20.355469 4.070312 20.460938 3.976562 20.632812 L 2.914062 22.605469 C 2.828125 22.769531 2.835938 22.960938 2.933594 23.117188 C 3.03125 23.269531 3.203125 23.367188 3.390625 23.367188 L 23.421875 23.367188 C 23.609375 23.367188 23.785156 23.269531 23.882812 23.117188 Z M 4.277344 22.328125 L 4.78125 21.390625 L 22.03125 21.390625 L 22.535156 22.328125 Z M 4.277344 22.328125 "/>
<path style=" stroke:none;fill-rule:nonzero;fill:rgb(0%,0%,0%);fill-opacity:1;" d="M 24.824219 24.300781 L 23.960938 24.300781 C 22.714844 24.300781 21.699219 25.277344 21.699219 26.480469 C 21.699219 26.765625 21.941406 27 22.238281 27 L 26.546875 27 C 26.84375 27 27.085938 26.765625 27.085938 26.480469 C 27.085938 25.277344 26.070312 24.300781 24.824219 24.300781 Z M 22.90625 25.960938 C 23.101562 25.59375 23.503906 25.339844 23.960938 25.339844 L 24.824219 25.339844 C 25.28125 25.339844 25.679688 25.59375 25.878906 25.960938 Z M 22.90625 25.960938 "/>
</g>
</svg>
