<?xml version="1.0" encoding="UTF-8"?>
<svg xmlns="http://www.w3.org/2000/svg" xmlns:xlink="http://www.w3.org/1999/xlink" width="28pt" height="28pt" viewBox="0 0 28 28" version="1.1">
<g id="surface1">
<path style=" stroke:none;fill-rule:nonzero;fill:rgb(0%,0%,0%);fill-opacity:1;" d="M 23.898438 4.101562 C 18.425781 -1.367188 9.574219 -1.367188 4.101562 4.101562 C -1.367188 9.574219 -1.367188 18.425781 4.101562 23.898438 C 9.574219 29.367188 18.425781 29.367188 23.898438 23.898438 C 29.367188 18.425781 29.367188 9.574219 23.898438 4.101562 Z M 14 25.699219 C 7.550781 25.699219 2.300781 20.449219 2.300781 14 C 2.300781 7.550781 7.550781 2.300781 14 2.300781 C 20.449219 2.300781 25.699219 7.550781 25.699219 14 C 25.699219 20.449219 20.449219 25.699219 14 25.699219 Z M 14 25.699219 "/>
<path style=" stroke:none;fill-rule:nonzero;fill:rgb(0%,0%,0%);fill-opacity:1;" d="M 19.523438 7.054688 L 11.347656 9.390625 C 10.855469 9.53125 10.515625 9.984375 10.515625 10.496094 L 10.515625 14.601562 L 9.621094 14.601562 C 7.859375 14.601562 6.425781 16.035156 6.425781 17.796875 C 6.425781 19.558594 7.859375 20.988281 9.621094 20.988281 C 11.382812 20.988281 12.8125 19.558594 12.8125 17.796875 C 12.8125 17.429688 12.8125 11.753906 12.8125 11.363281 L 18.691406 9.683594 L 18.691406 12.851562 L 17.796875 12.851562 C 16.035156 12.851562 14.601562 14.28125 14.601562 16.042969 C 14.601562 17.804688 16.035156 19.238281 17.796875 19.238281 C 19.558594 19.238281 20.988281 17.804688 20.988281 16.042969 C 20.988281 15.414062 20.988281 9.242188 20.988281 8.160156 C 20.988281 7.394531 20.253906 6.84375 19.523438 7.054688 Z M 10.515625 17.796875 C 10.515625 18.289062 10.113281 18.691406 9.621094 18.691406 C 9.128906 18.691406 8.726562 18.289062 8.726562 17.796875 C 8.726562 17.300781 9.128906 16.902344 9.621094 16.902344 L 10.515625 16.902344 Z M 18.691406 16.042969 C 18.691406 16.535156 18.289062 16.9375 17.796875 16.9375 C 17.300781 16.9375 16.902344 16.535156 16.902344 16.042969 C 16.902344 15.550781 17.300781 15.148438 17.796875 15.148438 L 18.691406 15.148438 Z M 18.691406 16.042969 "/>
</g>
</svg>
