<?xml version="1.0" encoding="UTF-8"?>
<svg xmlns="http://www.w3.org/2000/svg" xmlns:xlink="http://www.w3.org/1999/xlink" width="28pt" height="28pt" viewBox="0 0 28 28" version="1.1">
<g id="surface1">
<path style=" stroke:none;fill-rule:nonzero;fill:rgb(0%,0%,0%);fill-opacity:1;" d="M 27.410156 19.183594 C 27.367188 18.941406 27.261719 18.734375 27.089844 18.5625 C 26.710938 18.1875 26.273438 18.105469 25.777344 18.328125 C 24.4375 18.945312 23.050781 19.257812 21.613281 19.257812 C 19.8125 19.257812 18.152344 18.8125 16.632812 17.925781 C 15.109375 17.035156 13.90625 15.832031 13.019531 14.3125 C 12.128906 12.789062 11.6875 11.128906 11.6875 9.328125 C 11.6875 7.929688 11.960938 6.601562 12.515625 5.339844 C 13.070312 4.082031 13.871094 2.976562 14.917969 2.027344 C 15.316406 1.652344 15.410156 1.210938 15.191406 0.714844 C 14.984375 0.214844 14.613281 -0.0234375 14.078125 0 C 12.214844 0.0742188 10.449219 0.492188 8.785156 1.25 C 7.117188 2.011719 5.683594 3.011719 4.484375 4.253906 C 3.289062 5.496094 2.339844 6.964844 1.636719 8.660156 C 0.9375 10.359375 0.589844 12.140625 0.589844 14 C 0.589844 15.898438 0.960938 17.710938 1.703125 19.441406 C 2.445312 21.167969 3.441406 22.65625 4.695312 23.910156 C 5.949219 25.164062 7.4375 26.160156 9.167969 26.90625 C 10.894531 27.644531 12.707031 28.019531 14.605469 28.019531 C 17.332031 28.019531 19.847656 27.277344 22.152344 25.800781 C 24.457031 24.320312 26.183594 22.347656 27.328125 19.878906 C 27.425781 19.660156 27.453125 19.429688 27.410156 19.183594 Z M 19.597656 24.558594 C 18.023438 25.308594 16.359375 25.679688 14.605469 25.679688 C 13.023438 25.679688 11.511719 25.371094 10.070312 24.75 C 8.628906 24.128906 7.386719 23.300781 6.347656 22.257812 C 5.308594 21.21875 4.476562 19.976562 3.855469 18.535156 C 3.234375 17.09375 2.925781 15.582031 2.925781 14 C 2.925781 11.382812 3.699219 9.046875 5.253906 6.992188 C 6.804688 4.9375 8.800781 3.542969 11.246094 2.8125 C 9.980469 4.820312 9.347656 6.992188 9.347656 9.328125 C 9.347656 11.542969 9.898438 13.59375 10.992188 15.480469 C 12.085938 17.367188 13.578125 18.855469 15.464844 19.949219 C 17.347656 21.046875 19.398438 21.59375 21.613281 21.59375 C 22.296875 21.59375 22.964844 21.539062 23.621094 21.429688 C 22.515625 22.769531 21.171875 23.8125 19.597656 24.558594 Z M 19.597656 24.558594 "/>
</g>
</svg>
