<?xml version="1.0" encoding="UTF-8"?>
<svg xmlns="http://www.w3.org/2000/svg" xmlns:xlink="http://www.w3.org/1999/xlink" width="28pt" height="28pt" viewBox="0 0 28 28" version="1.1">
<g id="surface1">
<path style=" stroke:none;fill-rule:nonzero;fill:rgb(0%,0%,0%);fill-opacity:1;" d="M 18.394531 8.414062 C 18.335938 8.234375 18.191406 8.097656 18.011719 8.050781 L 15.726562 7.464844 L 14.460938 5.472656 C 14.363281 5.316406 14.1875 5.21875 14 5.21875 C 13.8125 5.21875 13.636719 5.316406 13.539062 5.472656 L 12.273438 7.464844 L 9.988281 8.050781 C 9.808594 8.097656 9.664062 8.234375 9.605469 8.414062 C 9.546875 8.589844 9.585938 8.785156 9.703125 8.929688 L 11.207031 10.746094 L 11.058594 13.101562 C 11.046875 13.289062 11.132812 13.46875 11.285156 13.578125 C 11.4375 13.6875 11.632812 13.714844 11.808594 13.644531 L 14 12.777344 L 16.191406 13.644531 C 16.257812 13.671875 16.328125 13.683594 16.394531 13.683594 C 16.507812 13.683594 16.621094 13.648438 16.714844 13.578125 C 16.867188 13.46875 16.953125 13.289062 16.941406 13.101562 L 16.792969 10.746094 L 18.296875 8.929688 C 18.414062 8.785156 18.453125 8.589844 18.394531 8.414062 Z M 15.8125 10.21875 C 15.722656 10.324219 15.675781 10.460938 15.6875 10.601562 L 15.792969 12.308594 L 14.203125 11.679688 C 14.136719 11.652344 14.070312 11.640625 14 11.640625 C 13.933594 11.640625 13.863281 11.652344 13.796875 11.679688 L 12.207031 12.308594 L 12.3125 10.601562 C 12.324219 10.460938 12.277344 10.324219 12.1875 10.21875 L 11.097656 8.898438 L 12.757812 8.472656 C 12.890625 8.4375 13.007812 8.351562 13.082031 8.234375 L 14 6.789062 L 14.917969 8.234375 C 14.992188 8.351562 15.109375 8.4375 15.242188 8.472656 L 16.902344 8.898438 Z M 15.8125 10.21875 "/>
<path style=" stroke:none;fill-rule:nonzero;fill:rgb(0%,0%,0%);fill-opacity:1;" d="M 14 15.238281 C 13.699219 15.238281 13.453125 15.484375 13.453125 15.785156 L 13.453125 27.453125 C 13.453125 27.753906 13.699219 28 14 28 C 14.300781 28 14.546875 27.753906 14.546875 27.453125 L 14.546875 15.785156 C 14.546875 15.484375 14.300781 15.238281 14 15.238281 Z M 14 15.238281 "/>
<path style=" stroke:none;fill-rule:nonzero;fill:rgb(0%,0%,0%);fill-opacity:1;" d="M 22.566406 13.226562 C 22.367188 13 22.023438 12.976562 21.792969 13.175781 C 20.847656 14 20.078125 15.128906 19.503906 16.53125 C 18.726562 18.421875 18.332031 20.765625 18.332031 23.496094 C 18.332031 23.800781 18.578125 24.042969 18.878906 24.042969 C 19.179688 24.042969 19.425781 23.800781 19.425781 23.496094 C 19.425781 17.582031 21.359375 15.007812 22.515625 13.996094 C 22.742188 13.800781 22.765625 13.453125 22.566406 13.226562 Z M 22.566406 13.226562 "/>
<path style=" stroke:none;fill-rule:nonzero;fill:rgb(0%,0%,0%);fill-opacity:1;" d="M 27.925781 10.097656 C 27.832031 9.9375 27.664062 9.835938 27.476562 9.828125 L 26.34375 9.777344 L 25.554688 8.96875 C 25.421875 8.835938 25.230469 8.777344 25.046875 8.816406 C 24.863281 8.855469 24.714844 8.988281 24.648438 9.164062 L 24.253906 10.222656 L 23.242188 10.726562 C 23.074219 10.808594 22.960938 10.972656 22.941406 11.160156 C 22.921875 11.34375 22.996094 11.527344 23.144531 11.644531 L 24.03125 12.347656 L 24.195312 13.46875 C 24.222656 13.652344 24.34375 13.8125 24.515625 13.886719 C 24.585938 13.917969 24.664062 13.933594 24.738281 13.933594 C 24.84375 13.933594 24.949219 13.90625 25.039062 13.84375 L 25.984375 13.21875 L 27.101562 13.40625 C 27.132812 13.410156 27.164062 13.414062 27.195312 13.414062 C 27.496094 13.410156 27.738281 13.167969 27.738281 12.867188 C 27.738281 12.804688 27.726562 12.742188 27.707031 12.683594 L 27.414062 11.628906 L 27.9375 10.625 C 28.023438 10.460938 28.019531 10.261719 27.925781 10.097656 Z M 26.300781 11.714844 L 26.433594 12.183594 L 25.953125 12.101562 C 25.816406 12.078125 25.675781 12.109375 25.558594 12.1875 L 25.152344 12.457031 L 25.082031 11.972656 C 25.0625 11.835938 24.988281 11.710938 24.878906 11.625 L 24.5 11.324219 L 24.933594 11.105469 C 25.058594 11.046875 25.15625 10.9375 25.203125 10.808594 L 25.375 10.351562 L 25.714844 10.699219 C 25.8125 10.796875 25.945312 10.855469 26.082031 10.863281 L 26.570312 10.882812 L 26.34375 11.3125 C 26.277344 11.4375 26.265625 11.582031 26.300781 11.714844 Z M 26.300781 11.714844 "/>
<path style=" stroke:none;fill-rule:nonzero;fill:rgb(0%,0%,0%);fill-opacity:1;" d="M 6.207031 13.175781 C 5.976562 12.976562 5.632812 13 5.433594 13.226562 C 5.234375 13.453125 5.257812 13.800781 5.484375 13.996094 C 6.640625 15.007812 8.574219 17.582031 8.574219 23.496094 C 8.574219 23.800781 8.820312 24.042969 9.121094 24.042969 C 9.421875 24.042969 9.667969 23.800781 9.667969 23.496094 C 9.667969 20.765625 9.273438 18.421875 8.5 16.53125 C 7.921875 15.128906 7.152344 14 6.207031 13.175781 Z M 6.207031 13.175781 "/>
<path style=" stroke:none;fill-rule:nonzero;fill:rgb(0%,0%,0%);fill-opacity:1;" d="M 5.058594 11.160156 C 5.039062 10.972656 4.925781 10.808594 4.757812 10.726562 L 3.746094 10.222656 L 3.351562 9.164062 C 3.285156 8.988281 3.136719 8.855469 2.953125 8.816406 C 2.769531 8.777344 2.578125 8.835938 2.445312 8.96875 L 1.65625 9.777344 L 0.523438 9.828125 C 0.335938 9.835938 0.167969 9.9375 0.0742188 10.097656 C -0.0195312 10.261719 -0.0234375 10.460938 0.0625 10.625 L 0.585938 11.628906 L 0.28125 12.71875 C 0.230469 12.898438 0.277344 13.09375 0.402344 13.234375 C 0.527344 13.371094 0.714844 13.4375 0.902344 13.40625 L 2.015625 13.21875 L 2.960938 13.84375 C 3.050781 13.90625 3.15625 13.933594 3.261719 13.933594 C 3.335938 13.933594 3.414062 13.917969 3.484375 13.886719 C 3.65625 13.8125 3.777344 13.652344 3.804688 13.46875 L 3.96875 12.347656 L 4.855469 11.644531 C 5.003906 11.527344 5.078125 11.34375 5.058594 11.160156 Z M 3.121094 11.625 C 3.011719 11.710938 2.9375 11.835938 2.917969 11.972656 L 2.847656 12.457031 L 2.441406 12.1875 C 2.351562 12.125 2.246094 12.09375 2.140625 12.09375 C 2.109375 12.09375 2.078125 12.097656 2.046875 12.101562 L 1.566406 12.183594 L 1.699219 11.714844 C 1.734375 11.582031 1.722656 11.4375 1.65625 11.3125 L 1.429688 10.882812 L 1.917969 10.863281 C 2.054688 10.855469 2.1875 10.796875 2.285156 10.699219 L 2.625 10.351562 L 2.796875 10.808594 C 2.84375 10.9375 2.941406 11.046875 3.066406 11.105469 L 3.5 11.324219 Z M 3.121094 11.625 "/>
<path style=" stroke:none;fill-rule:nonzero;fill:rgb(0%,0%,0%);fill-opacity:1;" d="M 7.566406 3.609375 C 8.394531 4.078125 9.234375 5.417969 9.40625 6.539062 C 9.445312 6.808594 9.679688 7.003906 9.945312 7.003906 C 9.972656 7.003906 10 7 10.027344 6.996094 C 10.328125 6.953125 10.53125 6.671875 10.488281 6.375 C 10.265625 4.917969 9.21875 3.285156 8.101562 2.65625 C 7.839844 2.507812 7.503906 2.601562 7.355469 2.867188 C 7.210938 3.128906 7.300781 3.464844 7.566406 3.609375 Z M 7.566406 3.609375 "/>
<path style=" stroke:none;fill-rule:nonzero;fill:rgb(0%,0%,0%);fill-opacity:1;" d="M 5.121094 3.28125 C 6.023438 3.28125 6.761719 2.546875 6.761719 1.640625 C 6.761719 0.734375 6.023438 0 5.121094 0 C 4.214844 0 3.480469 0.734375 3.480469 1.640625 C 3.480469 2.546875 4.214844 3.28125 5.121094 3.28125 Z M 5.121094 1.09375 C 5.421875 1.09375 5.667969 1.339844 5.667969 1.640625 C 5.667969 1.941406 5.421875 2.1875 5.121094 2.1875 C 4.820312 2.1875 4.574219 1.941406 4.574219 1.640625 C 4.574219 1.339844 4.820312 1.09375 5.121094 1.09375 Z M 5.121094 1.09375 "/>
<path style=" stroke:none;fill-rule:nonzero;fill:rgb(0%,0%,0%);fill-opacity:1;" d="M 17.972656 6.996094 C 18 7 18.027344 7.003906 18.054688 7.003906 C 18.320312 7.003906 18.554688 6.808594 18.59375 6.539062 C 18.765625 5.417969 19.605469 4.078125 20.433594 3.609375 C 20.699219 3.464844 20.789062 3.128906 20.644531 2.867188 C 20.496094 2.601562 20.160156 2.507812 19.898438 2.65625 C 18.78125 3.285156 17.734375 4.917969 17.511719 6.375 C 17.46875 6.671875 17.671875 6.953125 17.972656 6.996094 Z M 17.972656 6.996094 "/>
<path style=" stroke:none;fill-rule:nonzero;fill:rgb(0%,0%,0%);fill-opacity:1;" d="M 22.878906 3.28125 C 23.785156 3.28125 24.519531 2.546875 24.519531 1.640625 C 24.519531 0.734375 23.785156 0 22.878906 0 C 21.976562 0 21.238281 0.734375 21.238281 1.640625 C 21.238281 2.546875 21.976562 3.28125 22.878906 3.28125 Z M 22.878906 1.09375 C 23.179688 1.09375 23.425781 1.339844 23.425781 1.640625 C 23.425781 1.941406 23.179688 2.1875 22.878906 2.1875 C 22.578125 2.1875 22.332031 1.941406 22.332031 1.640625 C 22.332031 1.339844 22.578125 1.09375 22.878906 1.09375 Z M 22.878906 1.09375 "/>
<path style=" stroke:none;fill-rule:nonzero;fill:rgb(0%,0%,0%);fill-opacity:1;" d="M 4.601562 18.910156 C 4.300781 18.910156 4.054688 19.15625 4.054688 19.457031 C 4.054688 19.757812 4.300781 20.003906 4.601562 20.003906 C 4.902344 20.003906 5.148438 19.757812 5.148438 19.457031 C 5.148438 19.15625 4.902344 18.910156 4.601562 18.910156 Z M 4.601562 18.910156 "/>
<path style=" stroke:none;fill-rule:nonzero;fill:rgb(0%,0%,0%);fill-opacity:1;" d="M 6.351562 8.054688 C 6.351562 8.355469 6.597656 8.601562 6.898438 8.601562 C 7.199219 8.601562 7.445312 8.355469 7.445312 8.054688 C 7.445312 7.753906 7.199219 7.507812 6.898438 7.507812 C 6.597656 7.507812 6.351562 7.753906 6.351562 8.054688 Z M 6.351562 8.054688 "/>
<path style=" stroke:none;fill-rule:nonzero;fill:rgb(0%,0%,0%);fill-opacity:1;" d="M 13.953125 3.351562 C 14.253906 3.351562 14.5 3.105469 14.5 2.804688 C 14.5 2.503906 14.253906 2.257812 13.953125 2.257812 C 13.652344 2.257812 13.40625 2.503906 13.40625 2.804688 C 13.40625 3.105469 13.652344 3.351562 13.953125 3.351562 Z M 13.953125 3.351562 "/>
<path style=" stroke:none;fill-rule:nonzero;fill:rgb(0%,0%,0%);fill-opacity:1;" d="M 21.609375 7.890625 C 21.609375 8.191406 21.855469 8.4375 22.15625 8.4375 C 22.457031 8.4375 22.703125 8.191406 22.703125 7.890625 C 22.703125 7.589844 22.457031 7.34375 22.15625 7.34375 C 21.855469 7.34375 21.609375 7.589844 21.609375 7.890625 Z M 21.609375 7.890625 "/>
<path style=" stroke:none;fill-rule:nonzero;fill:rgb(0%,0%,0%);fill-opacity:1;" d="M 22.8125 18.910156 C 22.511719 18.910156 22.265625 19.15625 22.265625 19.457031 C 22.265625 19.757812 22.511719 20.003906 22.8125 20.003906 C 23.113281 20.003906 23.359375 19.757812 23.359375 19.457031 C 23.359375 19.15625 23.113281 18.910156 22.8125 18.910156 Z M 22.8125 18.910156 "/>
<path style=" stroke:none;fill-rule:nonzero;fill:rgb(0%,0%,0%);fill-opacity:1;" d="M 9.121094 24.535156 C 8.820312 24.535156 8.574219 24.78125 8.574219 25.082031 C 8.574219 25.382812 8.820312 25.628906 9.121094 25.628906 C 9.421875 25.628906 9.667969 25.382812 9.667969 25.082031 C 9.667969 24.78125 9.421875 24.535156 9.121094 24.535156 Z M 9.121094 24.535156 "/>
<path style=" stroke:none;fill-rule:nonzero;fill:rgb(0%,0%,0%);fill-opacity:1;" d="M 18.878906 24.535156 C 18.578125 24.535156 18.332031 24.78125 18.332031 25.082031 C 18.332031 25.382812 18.578125 25.628906 18.878906 25.628906 C 19.179688 25.628906 19.425781 25.382812 19.425781 25.082031 C 19.425781 24.78125 19.179688 24.535156 18.878906 24.535156 Z M 18.878906 24.535156 "/>
<path style=" stroke:none;fill-rule:nonzero;fill:rgb(0%,0%,0%);fill-opacity:1;" d="M 10.964844 15.730469 C 10.664062 15.730469 10.417969 15.976562 10.417969 16.277344 C 10.417969 16.582031 10.664062 16.824219 10.964844 16.824219 C 11.265625 16.824219 11.511719 16.582031 11.511719 16.277344 C 11.511719 15.976562 11.265625 15.730469 10.964844 15.730469 Z M 10.964844 15.730469 "/>
<path style=" stroke:none;fill-rule:nonzero;fill:rgb(0%,0%,0%);fill-opacity:1;" d="M 17.078125 15.484375 C 16.777344 15.484375 16.53125 15.730469 16.53125 16.03125 C 16.53125 16.335938 16.777344 16.578125 17.078125 16.578125 C 17.378906 16.578125 17.625 16.335938 17.625 16.03125 C 17.625 15.730469 17.378906 15.484375 17.078125 15.484375 Z M 17.078125 15.484375 "/>
</g>
</svg>
