<?xml version="1.0" encoding="UTF-8"?>
<svg xmlns="http://www.w3.org/2000/svg" xmlns:xlink="http://www.w3.org/1999/xlink" width="28pt" height="28pt" viewBox="0 0 28 28" version="1.1">
<g id="surface1">
<path style=" stroke:none;fill-rule:nonzero;fill:rgb(0%,0%,0%);fill-opacity:1;" d="M 24.265625 23.800781 L 23.800781 23.800781 L 23.800781 23.332031 C 23.800781 23.074219 23.589844 22.867188 23.332031 22.867188 C 23.074219 22.867188 22.867188 23.074219 22.867188 23.332031 L 22.867188 23.800781 L 22.398438 23.800781 C 22.140625 23.800781 21.933594 24.007812 21.933594 24.265625 C 21.933594 24.523438 22.140625 24.734375 22.398438 24.734375 L 22.867188 24.734375 L 22.867188 25.199219 C 22.867188 25.457031 23.074219 25.667969 23.332031 25.667969 C 23.589844 25.667969 23.800781 25.457031 23.800781 25.199219 L 23.800781 24.734375 L 24.265625 24.734375 C 24.523438 24.734375 24.734375 24.523438 24.734375 24.265625 C 24.734375 24.007812 24.523438 23.800781 24.265625 23.800781 Z M 24.265625 23.800781 "/>
<path style=" stroke:none;fill-rule:nonzero;fill:rgb(0%,0%,0%);fill-opacity:1;" d="M 22.535156 2.664062 C 22.628906 2.753906 22.746094 2.800781 22.867188 2.800781 C 22.984375 2.800781 23.105469 2.753906 23.195312 2.664062 L 23.800781 2.058594 L 24.402344 2.664062 C 24.496094 2.753906 24.613281 2.800781 24.734375 2.800781 C 24.851562 2.800781 24.972656 2.753906 25.0625 2.664062 C 25.246094 2.480469 25.246094 2.1875 25.0625 2.003906 L 24.460938 1.398438 L 25.0625 0.796875 C 25.246094 0.613281 25.246094 0.320312 25.0625 0.136719 C 24.882812 -0.046875 24.585938 -0.046875 24.402344 0.136719 L 23.800781 0.742188 L 23.195312 0.136719 C 23.015625 -0.046875 22.71875 -0.046875 22.535156 0.136719 C 22.355469 0.320312 22.355469 0.613281 22.535156 0.796875 L 23.140625 1.398438 L 22.535156 2.003906 C 22.355469 2.1875 22.355469 2.480469 22.535156 2.664062 Z M 22.535156 2.664062 "/>
<path style=" stroke:none;fill-rule:nonzero;fill:rgb(0%,0%,0%);fill-opacity:1;" d="M 19.132812 7.464844 C 19.132812 7.722656 19.34375 7.933594 19.601562 7.933594 C 19.859375 7.933594 20.066406 7.722656 20.066406 7.464844 C 20.066406 7.210938 19.859375 7 19.601562 7 C 19.34375 7 19.132812 7.210938 19.132812 7.464844 Z M 19.132812 7.464844 "/>
<path style=" stroke:none;fill-rule:nonzero;fill:rgb(0%,0%,0%);fill-opacity:1;" d="M 15.398438 4.667969 C 15.65625 4.667969 15.867188 4.457031 15.867188 4.199219 C 15.867188 3.941406 15.65625 3.734375 15.398438 3.734375 C 15.140625 3.734375 14.933594 3.941406 14.933594 4.199219 C 14.933594 4.457031 15.140625 4.667969 15.398438 4.667969 Z M 15.398438 4.667969 "/>
<path style=" stroke:none;fill-rule:nonzero;fill:rgb(0%,0%,0%);fill-opacity:1;" d="M 23.800781 11.199219 C 23.800781 11.457031 24.007812 11.667969 24.265625 11.667969 C 24.523438 11.667969 24.734375 11.457031 24.734375 11.199219 C 24.734375 10.941406 24.523438 10.734375 24.265625 10.734375 C 24.007812 10.734375 23.800781 10.941406 23.800781 11.199219 Z M 23.800781 11.199219 "/>
<path style=" stroke:none;fill-rule:nonzero;fill:rgb(0%,0%,0%);fill-opacity:1;" d="M 19.601562 13.066406 C 19.601562 13.324219 19.808594 13.535156 20.066406 13.535156 C 20.324219 13.535156 20.535156 13.324219 20.535156 13.066406 C 20.535156 12.808594 20.324219 12.601562 20.066406 12.601562 C 19.808594 12.601562 19.601562 12.808594 19.601562 13.066406 Z M 19.601562 13.066406 "/>
<path style=" stroke:none;fill-rule:nonzero;fill:rgb(0%,0%,0%);fill-opacity:1;" d="M 27.066406 3.734375 C 26.808594 3.734375 26.601562 3.941406 26.601562 4.199219 C 26.601562 4.457031 26.808594 4.667969 27.066406 4.667969 C 27.324219 4.667969 27.535156 4.457031 27.535156 4.199219 C 27.535156 3.941406 27.324219 3.734375 27.066406 3.734375 Z M 27.066406 3.734375 "/>
<path style=" stroke:none;fill-rule:nonzero;fill:rgb(0%,0%,0%);fill-opacity:1;" d="M 26.132812 7.464844 C 21.265625 7.464844 17.308594 12.140625 16.550781 13.09375 L 14.742188 11.28125 C 16.765625 9.917969 17.222656 8.605469 17.242188 8.546875 C 17.324219 8.304688 17.195312 8.042969 16.949219 7.960938 C 16.707031 7.878906 16.445312 8.007812 16.359375 8.25 C 16.355469 8.261719 15.929688 9.398438 14.066406 10.609375 L 12.40625 8.945312 C 13.277344 7.917969 13.535156 5.085938 13.535156 3.265625 C 13.535156 3.007812 13.324219 2.800781 13.066406 2.800781 C 12.808594 2.800781 12.601562 3.007812 12.601562 3.265625 C 12.601562 6.082031 12.09375 7.867188 11.765625 8.304688 L 10.128906 6.671875 C 10.019531 6.5625 9.863281 6.511719 9.710938 6.542969 C 9.558594 6.570312 9.433594 6.671875 9.371094 6.816406 L 4.519531 18.050781 C 4.519531 18.050781 4.519531 18.054688 4.515625 18.054688 L 0.503906 27.347656 C 0.429688 27.523438 0.46875 27.726562 0.601562 27.863281 C 0.691406 27.953125 0.8125 28 0.933594 28 C 0.996094 28 1.058594 27.988281 1.117188 27.960938 L 7.644531 25.144531 C 7.648438 25.140625 7.652344 25.140625 7.65625 25.136719 L 10.410156 23.949219 C 10.414062 23.949219 10.417969 23.945312 10.417969 23.945312 L 14.617188 22.132812 C 14.621094 22.132812 14.625 22.128906 14.628906 22.128906 L 17.382812 20.9375 C 17.386719 20.9375 17.394531 20.933594 17.398438 20.929688 L 21.652344 19.09375 C 21.792969 19.035156 21.894531 18.90625 21.925781 18.753906 C 21.953125 18.601562 21.90625 18.445312 21.796875 18.335938 L 19.648438 16.1875 C 19.957031 15.691406 21.726562 14.933594 24.734375 14.933594 C 24.992188 14.933594 25.199219 14.722656 25.199219 14.464844 C 25.199219 14.210938 24.992188 14 24.734375 14 C 22.300781 14 19.847656 14.523438 18.988281 15.527344 L 17.21875 13.757812 C 17.667969 13.183594 21.558594 8.398438 26.132812 8.398438 C 26.390625 8.398438 26.601562 8.191406 26.601562 7.933594 C 26.601562 7.675781 26.390625 7.464844 26.132812 7.464844 Z M 14.550781 21.144531 L 7.320312 13.914062 L 8.117188 12.070312 L 16.394531 20.347656 Z M 10.34375 22.960938 L 5.503906 18.125 L 6.925781 14.835938 L 13.628906 21.542969 Z M 7.578125 24.15625 L 4.308594 20.890625 L 5.105469 19.046875 L 9.421875 23.359375 Z M 3.914062 21.8125 L 6.65625 24.554688 L 1.828125 26.640625 Z M 17.316406 19.949219 L 8.515625 11.148438 L 9.957031 7.816406 L 13.675781 11.535156 C 13.675781 11.535156 13.675781 11.539062 13.675781 11.539062 L 18.800781 16.660156 C 18.800781 16.664062 18.804688 16.664062 18.808594 16.667969 L 20.652344 18.511719 Z M 17.316406 19.949219 "/>
<path style=" stroke:none;fill-rule:nonzero;fill:rgb(0%,0%,0%);fill-opacity:1;" d="M 17.730469 7 L 17.734375 7 C 17.988281 7 18.195312 6.792969 18.199219 6.539062 C 18.199219 6.472656 18.25 4.898438 20.308594 3.667969 C 20.527344 3.535156 20.597656 3.246094 20.464844 3.027344 C 20.335938 2.804688 20.046875 2.734375 19.828125 2.867188 C 17.296875 4.386719 17.265625 6.445312 17.265625 6.535156 C 17.265625 6.789062 17.472656 6.996094 17.730469 7 Z M 17.730469 7 "/>
<path style=" stroke:none;fill-rule:nonzero;fill:rgb(0%,0%,0%);fill-opacity:1;" d="M 0.933594 2.800781 C 1.707031 2.800781 2.332031 3.429688 2.332031 4.199219 C 2.332031 4.457031 2.542969 4.667969 2.800781 4.667969 C 3.058594 4.667969 3.265625 4.457031 3.265625 4.199219 C 3.265625 3.429688 3.894531 2.800781 4.667969 2.800781 C 4.925781 2.800781 5.132812 2.589844 5.132812 2.332031 C 5.132812 2.074219 4.925781 1.867188 4.667969 1.867188 C 3.894531 1.867188 3.265625 1.238281 3.265625 0.46875 C 3.265625 0.210938 3.058594 0 2.800781 0 C 2.542969 0 2.332031 0.210938 2.332031 0.46875 C 2.332031 1.238281 1.707031 1.867188 0.933594 1.867188 C 0.675781 1.867188 0.464844 2.074219 0.464844 2.332031 C 0.464844 2.589844 0.675781 2.800781 0.933594 2.800781 Z M 2.800781 1.867188 C 2.933594 2.042969 3.089844 2.199219 3.269531 2.332031 C 3.089844 2.464844 2.933594 2.625 2.800781 2.800781 C 2.667969 2.625 2.507812 2.464844 2.332031 2.332031 C 2.507812 2.199219 2.667969 2.042969 2.800781 1.867188 Z M 2.800781 1.867188 "/>
</g>
</svg>
