<?xml version="1.0" encoding="UTF-8"?>
<svg xmlns="http://www.w3.org/2000/svg" xmlns:xlink="http://www.w3.org/1999/xlink" width="28pt" height="28pt" viewBox="0 0 28 28" version="1.1">
<g id="surface1">
<path style=" stroke:none;fill-rule:nonzero;fill:rgb(0%,0%,0%);fill-opacity:1;" d="M 23.539062 14.324219 C 24.898438 12.738281 25.644531 10.644531 25.644531 8.417969 C 25.644531 6.195312 24.898438 4.097656 23.539062 2.511719 C 22.152344 0.890625 20.292969 0 18.308594 0 C 17.300781 0 16.324219 0.230469 15.425781 0.671875 C 15.683594 0.914062 15.929688 1.171875 16.167969 1.445312 C 17.777344 3.328125 18.664062 5.800781 18.664062 8.417969 C 18.664062 11.035156 17.777344 13.507812 16.167969 15.390625 C 15.929688 15.664062 15.683594 15.921875 15.425781 16.164062 C 15.847656 16.371094 16.289062 16.535156 16.746094 16.644531 L 14 25.324219 L 11.75 18.214844 L 11.253906 16.644531 C 12.636719 16.304688 13.90625 15.507812 14.921875 14.324219 C 16.277344 12.738281 17.027344 10.640625 17.027344 8.417969 C 17.027344 6.195312 16.277344 4.097656 14.921875 2.511719 C 13.53125 0.890625 11.675781 0 9.691406 0 C 7.707031 0 5.847656 0.890625 4.460938 2.511719 C 3.101562 4.097656 2.355469 6.195312 2.355469 8.417969 C 2.355469 10.640625 3.101562 12.738281 4.460938 14.324219 C 5.828125 15.917969 7.648438 16.808594 9.59375 16.835938 L 10.109375 18.464844 L 13.128906 28 L 15.039062 28 C 15.050781 27.144531 15.445312 26.359375 16.128906 25.835938 C 16.820312 25.308594 17.699219 25.136719 18.542969 25.367188 C 19.976562 25.757812 21.484375 25.46875 22.675781 24.574219 L 23.453125 23.992188 L 22.46875 22.679688 L 21.691406 23.265625 C 20.910156 23.851562 19.917969 24.042969 18.972656 23.785156 C 18.019531 23.523438 17.039062 23.585938 16.152344 23.949219 L 18.40625 16.835938 C 20.351562 16.808594 22.171875 15.917969 23.539062 14.324219 Z M 20.988281 3.519531 L 22.148438 4.675781 L 20.988281 5.835938 L 19.828125 4.675781 Z M 7.269531 8.167969 L 6.109375 7.007812 L 7.269531 5.851562 L 8.429688 7.007812 Z M 9.613281 5.835938 L 8.453125 4.675781 L 9.613281 3.519531 L 10.773438 4.675781 Z M 9.613281 5.835938 "/>
</g>
</svg>
