<?xml version="1.0" encoding="UTF-8"?>
<svg xmlns="http://www.w3.org/2000/svg" xmlns:xlink="http://www.w3.org/1999/xlink" width="28pt" height="28pt" viewBox="0 0 28 28" version="1.1">
<g id="surface1">
<path style=" stroke:none;fill-rule:nonzero;fill:rgb(0%,0%,0%);fill-opacity:1;" d="M 20.742188 14.003906 C 20.683594 13.8125 20.503906 13.675781 20.300781 13.675781 C 20.09375 13.671875 19.917969 13.800781 19.851562 13.996094 L 15.707031 26.582031 C 15.628906 26.8125 15.742188 27.0625 15.964844 27.15625 C 17.289062 27.71875 18.710938 28 20.132812 28 C 21.558594 28 22.980469 27.71875 24.304688 27.15625 C 24.523438 27.0625 24.636719 26.820312 24.566406 26.589844 Z M 16.730469 26.457031 L 20.277344 15.6875 L 23.550781 26.453125 C 21.359375 27.269531 18.917969 27.273438 16.730469 26.457031 Z M 16.730469 26.457031 "/>
<path style=" stroke:none;fill-rule:nonzero;fill:rgb(0%,0%,0%);fill-opacity:1;" d="M 16.140625 16.734375 C 15.515625 17.242188 15.128906 17.964844 15.050781 18.765625 C 14.976562 19.566406 15.21875 20.347656 15.734375 20.964844 C 15.828125 21.074219 15.960938 21.128906 16.09375 21.128906 C 16.199219 21.128906 16.304688 21.09375 16.390625 21.023438 C 16.589844 20.855469 16.617188 20.5625 16.449219 20.363281 C 16.09375 19.941406 15.929688 19.40625 15.980469 18.855469 C 16.03125 18.304688 16.296875 17.808594 16.726562 17.460938 C 17.355469 16.949219 17.742188 16.222656 17.816406 15.417969 C 17.890625 14.613281 17.644531 13.835938 17.121094 13.21875 C 19.726562 12.683594 21.714844 9.945312 21.714844 6.65625 C 21.714844 2.988281 19.238281 0 16.191406 0 C 14.15625 0 12.28125 1.367188 11.328125 3.507812 C 11.199219 3.5 11.074219 3.492188 10.945312 3.492188 C 7.902344 3.492188 5.425781 6.480469 5.425781 10.148438 C 5.425781 13.730469 7.78125 16.660156 10.726562 16.800781 L 11.160156 17.308594 C 11.519531 17.734375 11.691406 18.273438 11.640625 18.824219 C 11.589844 19.378906 11.324219 19.878906 10.890625 20.226562 C 10.265625 20.734375 9.878906 21.457031 9.804688 22.257812 C 9.726562 23.058594 9.96875 23.839844 10.488281 24.457031 L 12.082031 26.355469 C 12.171875 26.464844 12.304688 26.523438 12.4375 26.523438 C 12.542969 26.523438 12.648438 26.488281 12.738281 26.414062 C 12.933594 26.25 12.960938 25.953125 12.796875 25.757812 L 11.203125 23.855469 C 10.847656 23.433594 10.679688 22.898438 10.734375 22.347656 C 10.785156 21.796875 11.050781 21.300781 11.480469 20.953125 C 12.109375 20.441406 12.496094 19.714844 12.570312 18.910156 C 12.640625 18.109375 12.394531 17.328125 11.875 16.710938 C 13.578125 16.363281 15.015625 15.070312 15.808594 13.296875 C 15.863281 13.304688 15.917969 13.304688 15.972656 13.308594 L 16.40625 13.816406 C 16.765625 14.242188 16.9375 14.777344 16.886719 15.332031 C 16.835938 15.886719 16.570312 16.382812 16.140625 16.734375 Z M 16.191406 0.933594 C 18.722656 0.933594 20.78125 3.5 20.78125 6.65625 C 20.78125 9.8125 18.722656 12.382812 16.191406 12.382812 C 16.175781 12.382812 16.164062 12.382812 16.148438 12.378906 C 16.351562 11.683594 16.464844 10.933594 16.464844 10.148438 C 16.464844 7.03125 14.675781 4.40625 12.273438 3.6875 C 13.097656 2 14.59375 0.933594 16.191406 0.933594 Z M 10.945312 15.875 C 8.414062 15.875 6.355469 13.308594 6.355469 10.148438 C 6.355469 6.992188 8.414062 4.425781 10.945312 4.425781 C 13.476562 4.425781 15.53125 6.992188 15.53125 10.148438 C 15.53125 13.304688 13.476562 15.875 10.945312 15.875 Z M 10.945312 15.875 "/>
<path style=" stroke:none;fill-rule:nonzero;fill:rgb(0%,0%,0%);fill-opacity:1;" d="M 19.976562 20.902344 C 19.867188 20.648438 19.558594 20.539062 19.316406 20.675781 C 19.050781 20.824219 19.003906 21.195312 19.214844 21.410156 C 19.367188 21.558594 19.601562 21.589844 19.785156 21.480469 C 19.980469 21.367188 20.0625 21.113281 19.976562 20.902344 C 19.964844 20.875 19.988281 20.929688 19.976562 20.902344 Z M 19.976562 20.902344 "/>
<path style=" stroke:none;fill-rule:nonzero;fill:rgb(0%,0%,0%);fill-opacity:1;" d="M 20.730469 23.5 C 20.804688 23.671875 20.972656 23.785156 21.164062 23.785156 C 21.351562 23.785156 21.527344 23.667969 21.597656 23.488281 C 21.667969 23.308594 21.617188 23.097656 21.472656 22.972656 C 21.324219 22.839844 21.097656 22.816406 20.925781 22.917969 C 20.730469 23.035156 20.640625 23.285156 20.730469 23.5 C 20.742188 23.527344 20.71875 23.46875 20.730469 23.5 Z M 20.730469 23.5 "/>
<path style=" stroke:none;fill-rule:nonzero;fill:rgb(0%,0%,0%);fill-opacity:1;" d="M 19.230469 25.503906 C 19.152344 25.320312 18.964844 25.203125 18.765625 25.21875 C 18.570312 25.234375 18.402344 25.371094 18.351562 25.558594 C 18.238281 25.964844 18.707031 26.308594 19.058594 26.070312 C 19.242188 25.949219 19.3125 25.707031 19.230469 25.503906 C 19.21875 25.476562 19.242188 25.535156 19.230469 25.503906 Z M 19.230469 25.503906 "/>
<path style=" stroke:none;fill-rule:nonzero;fill:rgb(0%,0%,0%);fill-opacity:1;" d="M 3.207031 2.09375 C 3.027344 1.910156 2.730469 1.910156 2.546875 2.09375 C 2.367188 2.277344 2.367188 2.570312 2.546875 2.753906 L 3.140625 3.34375 C 3.230469 3.433594 3.351562 3.480469 3.46875 3.480469 C 3.589844 3.480469 3.707031 3.433594 3.800781 3.34375 C 3.980469 3.160156 3.980469 2.867188 3.800781 2.683594 Z M 3.207031 2.09375 "/>
<path style=" stroke:none;fill-rule:nonzero;fill:rgb(0%,0%,0%);fill-opacity:1;" d="M 23.726562 4.695312 C 23.847656 4.695312 23.964844 4.648438 24.058594 4.558594 L 24.648438 3.964844 C 24.828125 3.785156 24.828125 3.488281 24.648438 3.304688 C 24.464844 3.125 24.171875 3.125 23.988281 3.304688 L 23.398438 3.898438 C 23.214844 4.078125 23.214844 4.375 23.398438 4.558594 C 23.488281 4.648438 23.609375 4.695312 23.726562 4.695312 Z M 23.726562 4.695312 "/>
<path style=" stroke:none;fill-rule:nonzero;fill:rgb(0%,0%,0%);fill-opacity:1;" d="M 17.640625 9.632812 C 17.714844 9.675781 17.796875 9.695312 17.878906 9.695312 C 18.039062 9.695312 18.195312 9.613281 18.28125 9.46875 L 18.707031 8.75 C 18.835938 8.527344 18.765625 8.242188 18.542969 8.109375 C 18.320312 7.976562 18.035156 8.050781 17.902344 8.273438 L 17.476562 8.992188 C 17.347656 9.214844 17.417969 9.5 17.640625 9.632812 Z M 17.640625 9.632812 "/>
<path style=" stroke:none;fill-rule:nonzero;fill:rgb(0%,0%,0%);fill-opacity:1;" d="M 7.894531 21.308594 L 7.304688 21.898438 C 7.121094 22.078125 7.121094 22.375 7.304688 22.558594 C 7.394531 22.648438 7.511719 22.695312 7.632812 22.695312 C 7.753906 22.695312 7.871094 22.648438 7.960938 22.558594 L 8.554688 21.964844 C 8.734375 21.785156 8.734375 21.488281 8.554688 21.308594 C 8.371094 21.125 8.074219 21.125 7.894531 21.308594 Z M 7.894531 21.308594 "/>
<path style=" stroke:none;fill-rule:nonzero;fill:rgb(0%,0%,0%);fill-opacity:1;" d="M 3.140625 14.242188 C 2.882812 14.242188 2.675781 14.449219 2.675781 14.707031 L 2.675781 15.542969 C 2.675781 15.800781 2.882812 16.011719 3.140625 16.011719 C 3.398438 16.011719 3.605469 15.800781 3.605469 15.542969 L 3.605469 14.707031 C 3.605469 14.449219 3.398438 14.242188 3.140625 14.242188 Z M 3.140625 14.242188 "/>
<path style=" stroke:none;fill-rule:nonzero;fill:rgb(0%,0%,0%);fill-opacity:1;" d="M 25.121094 12.261719 L 24.285156 12.261719 C 24.027344 12.261719 23.820312 12.472656 23.820312 12.730469 C 23.820312 12.988281 24.027344 13.195312 24.285156 13.195312 L 25.121094 13.195312 C 25.378906 13.195312 25.589844 12.988281 25.589844 12.730469 C 25.589844 12.472656 25.378906 12.261719 25.121094 12.261719 Z M 25.121094 12.261719 "/>
<path style=" stroke:none;fill-rule:nonzero;fill:rgb(0%,0%,0%);fill-opacity:1;" d="M 10.421875 5.765625 L 9.585938 5.765625 C 9.328125 5.765625 9.121094 5.976562 9.121094 6.234375 C 9.121094 6.492188 9.328125 6.699219 9.585938 6.699219 L 10.421875 6.699219 C 10.679688 6.699219 10.886719 6.492188 10.886719 6.234375 C 10.886719 5.976562 10.679688 5.765625 10.421875 5.765625 Z M 10.421875 5.765625 "/>
</g>
</svg>
