<?xml version="1.0" encoding="UTF-8"?>
<svg xmlns="http://www.w3.org/2000/svg" xmlns:xlink="http://www.w3.org/1999/xlink" width="28pt" height="28pt" viewBox="0 0 28 28" version="1.1">
<g id="surface1">
<path style=" stroke:none;fill-rule:nonzero;fill:rgb(0%,0%,0%);fill-opacity:1;" d="M 21.929688 15.808594 L 21.027344 15.808594 L 21.027344 15.6875 C 21.027344 15.09375 20.761719 14.535156 20.304688 14.15625 C 19.847656 13.78125 19.246094 13.628906 18.664062 13.742188 L 18.664062 13.746094 C 18.507812 13.777344 18.347656 13.777344 18.195312 13.746094 L 17.394531 13.589844 C 16.613281 13.433594 15.8125 13.433594 15.03125 13.589844 C 14.816406 13.628906 14.601562 13.660156 14.382812 13.675781 L 14.382812 13.089844 L 16.085938 11.386719 L 16.773438 11.386719 C 18.15625 11.382812 19.28125 10.261719 19.28125 8.875 L 19.28125 8.066406 C 19.28125 7.964844 19.242188 7.867188 19.171875 7.796875 C 19.097656 7.722656 19 7.683594 18.898438 7.683594 L 18.089844 7.683594 C 16.703125 7.683594 15.582031 8.808594 15.578125 10.195312 L 15.578125 10.8125 L 14.382812 12.007812 L 14.382812 9.234375 L 16.578125 7.042969 C 17.441406 7.042969 18.261719 7.054688 19.027344 6.574219 C 19.929688 5.984375 20.457031 4.96875 20.425781 3.890625 L 20.425781 3.035156 C 20.425781 2.933594 20.382812 2.835938 20.3125 2.765625 C 20.242188 2.695312 20.144531 2.652344 20.042969 2.652344 L 19.042969 2.652344 C 17.382812 2.65625 16.039062 4 16.035156 5.660156 L 16.035156 6.5 L 14.382812 8.15625 L 14.382812 5.664062 L 14.976562 5.070312 C 16.148438 3.894531 16.148438 1.992188 14.976562 0.816406 L 14.269531 0.113281 C 14.121094 -0.0390625 13.878906 -0.0390625 13.730469 0.113281 L 13.023438 0.816406 C 11.851562 1.992188 11.851562 3.894531 13.023438 5.070312 L 13.617188 5.664062 L 13.617188 8.15625 L 11.964844 6.5 L 11.964844 5.660156 C 11.960938 4 10.617188 2.65625 8.957031 2.652344 L 7.957031 2.652344 C 7.855469 2.652344 7.757812 2.695312 7.6875 2.765625 C 7.617188 2.835938 7.574219 2.933594 7.574219 3.035156 L 7.574219 4.035156 C 7.578125 5.695312 8.921875 7.039062 10.582031 7.042969 L 11.421875 7.042969 L 13.617188 9.234375 L 13.617188 12.007812 L 12.421875 10.8125 L 12.421875 10.195312 C 12.417969 8.808594 11.296875 7.683594 9.910156 7.683594 L 9.101562 7.683594 C 9 7.683594 8.902344 7.722656 8.828125 7.796875 C 8.757812 7.867188 8.71875 7.964844 8.71875 8.066406 L 8.71875 8.875 C 8.71875 10.261719 9.84375 11.382812 11.226562 11.386719 L 11.914062 11.386719 L 13.617188 13.089844 L 13.617188 13.675781 C 13.402344 13.660156 13.1875 13.632812 12.972656 13.589844 L 12.964844 13.589844 C 12.183594 13.433594 11.382812 13.433594 10.601562 13.589844 L 9.804688 13.746094 C 9.648438 13.777344 9.488281 13.777344 9.335938 13.746094 C 8.753906 13.632812 8.152344 13.78125 7.695312 14.15625 C 7.238281 14.535156 6.972656 15.09375 6.972656 15.6875 L 6.972656 15.808594 L 6.070312 15.808594 C 5.96875 15.808594 5.871094 15.847656 5.800781 15.917969 C 5.726562 15.992188 5.6875 16.089844 5.6875 16.191406 L 5.6875 19.195312 C 5.6875 19.296875 5.726562 19.394531 5.800781 19.464844 C 5.871094 19.539062 5.96875 19.578125 6.070312 19.578125 L 6.976562 19.578125 C 7.039062 22.277344 7.714844 24.925781 8.957031 27.320312 L 9.203125 27.792969 C 9.269531 27.921875 9.398438 28 9.542969 28 L 18.457031 28 C 18.601562 28 18.730469 27.921875 18.796875 27.792969 L 19.042969 27.320312 C 20.285156 24.925781 20.960938 22.277344 21.023438 19.578125 L 21.929688 19.578125 C 22.03125 19.578125 22.128906 19.539062 22.199219 19.464844 C 22.273438 19.394531 22.3125 19.296875 22.3125 19.195312 L 22.3125 16.191406 C 22.3125 16.089844 22.273438 15.992188 22.199219 15.917969 C 22.128906 15.847656 22.03125 15.808594 21.929688 15.808594 Z M 16.34375 10.195312 C 16.347656 9.230469 17.125 8.449219 18.089844 8.449219 L 18.515625 8.449219 L 18.515625 8.875 C 18.515625 9.839844 17.734375 10.621094 16.773438 10.621094 L 16.34375 10.621094 Z M 16.800781 5.660156 C 16.804688 4.421875 17.808594 3.421875 19.042969 3.417969 L 19.660156 3.417969 C 19.660156 3.667969 19.671875 3.921875 19.65625 4.171875 C 19.585938 5.296875 18.691406 6.195312 17.566406 6.273438 C 17.3125 6.289062 17.054688 6.277344 16.800781 6.277344 Z M 11.199219 6.277344 L 10.582031 6.277344 C 9.34375 6.273438 8.34375 5.269531 8.339844 4.035156 L 8.339844 3.417969 L 8.957031 3.417969 C 10.191406 3.421875 11.195312 4.421875 11.199219 5.660156 Z M 11.65625 10.621094 L 11.226562 10.621094 C 10.265625 10.621094 9.484375 9.839844 9.484375 8.875 L 9.484375 8.449219 L 9.910156 8.449219 C 10.875 8.449219 11.652344 9.230469 11.65625 10.195312 Z M 13.566406 4.53125 C 12.691406 3.652344 12.691406 2.234375 13.566406 1.359375 L 14 0.921875 L 14.433594 1.359375 C 15.308594 2.234375 15.308594 3.652344 14.433594 4.53125 L 14 4.964844 Z M 7.738281 15.6875 C 7.738281 15.324219 7.902344 14.980469 8.179688 14.75 C 8.460938 14.519531 8.828125 14.425781 9.183594 14.496094 C 9.4375 14.546875 9.699219 14.546875 9.953125 14.496094 L 10.75 14.339844 C 11.429688 14.203125 12.128906 14.203125 12.808594 14.335938 C 12.808594 14.335938 12.8125 14.339844 12.816406 14.339844 C 13.597656 14.496094 14.398438 14.496094 15.179688 14.339844 C 15.863281 14.203125 16.5625 14.203125 17.246094 14.339844 L 18.046875 14.496094 C 18.300781 14.546875 18.5625 14.546875 18.816406 14.496094 C 18.894531 14.480469 18.972656 14.472656 19.054688 14.472656 C 19.722656 14.472656 20.261719 15.019531 20.261719 15.6875 L 20.261719 15.808594 L 7.738281 15.808594 Z M 18.363281 26.96875 L 18.222656 27.234375 L 9.777344 27.234375 L 9.636719 26.96875 C 8.453125 24.679688 7.804688 22.152344 7.742188 19.578125 L 20.257812 19.578125 C 20.195312 22.152344 19.546875 24.679688 18.363281 26.96875 Z M 21.546875 18.8125 L 6.453125 18.8125 L 6.453125 16.574219 L 21.546875 16.574219 Z M 21.546875 18.8125 "/>
</g>
</svg>
