<?xml version="1.0" encoding="UTF-8"?>
<svg xmlns="http://www.w3.org/2000/svg" xmlns:xlink="http://www.w3.org/1999/xlink" width="28pt" height="28pt" viewBox="0 0 28 28" version="1.1">
<g id="surface1">
<path style=" stroke:none;fill-rule:nonzero;fill:rgb(0%,0%,0%);fill-opacity:1;" d="M 28 9.03125 C 28 4.050781 23.949219 0 18.96875 0 C 17.132812 0 15.425781 0.554688 14 1.496094 C 12.574219 0.554688 10.867188 0 9.03125 0 C 4.050781 0 0 4.050781 0 9.03125 C 0 12.621094 2.109375 15.71875 5.148438 17.175781 C 5.03125 17.753906 4.96875 18.355469 4.96875 18.96875 C 4.96875 23.949219 9.019531 28 14 28 C 18.980469 28 23.03125 23.949219 23.03125 18.96875 C 23.03125 18.355469 22.96875 17.753906 22.851562 17.175781 C 25.890625 15.71875 28 12.621094 28 9.03125 Z M 17.160156 9.03125 C 17.160156 9.523438 17.109375 10 17.027344 10.46875 C 16.078125 10.128906 15.0625 9.933594 14 9.933594 C 12.9375 9.933594 11.921875 10.128906 10.972656 10.46875 C 10.890625 10 10.839844 9.523438 10.839844 9.03125 C 10.839844 6.421875 12.082031 4.101562 14 2.613281 C 15.917969 4.101562 17.160156 6.421875 17.160156 9.03125 Z M 11.179688 11.351562 C 12.0625 11.027344 13.007812 10.839844 14 10.839844 C 14.992188 10.839844 15.9375 11.027344 16.820312 11.351562 C 16.328125 13 15.324219 14.425781 14 15.453125 C 12.675781 14.425781 11.671875 13 11.179688 11.351562 Z M 13.214844 15.988281 C 11.992188 16.726562 10.5625 17.160156 9.03125 17.160156 C 8.039062 17.160156 7.09375 16.972656 6.210938 16.648438 C 6.855469 14.492188 8.371094 12.71875 10.34375 11.71875 C 10.871094 13.40625 11.882812 14.886719 13.214844 15.988281 Z M 17.65625 11.71875 C 19.628906 12.71875 21.144531 14.492188 21.789062 16.644531 C 20.90625 16.972656 19.960938 17.160156 18.96875 17.160156 C 17.4375 17.160156 16.007812 16.726562 14.785156 15.988281 C 16.117188 14.886719 17.128906 13.40625 17.65625 11.71875 Z M 0.902344 9.03125 C 0.902344 4.550781 4.550781 0.902344 9.03125 0.902344 C 10.5625 0.902344 11.992188 1.335938 13.214844 2.074219 C 11.214844 3.734375 9.933594 6.234375 9.933594 9.03125 C 9.933594 9.644531 10 10.246094 10.117188 10.824219 C 7.867188 11.902344 6.128906 13.875 5.375 16.28125 C 2.726562 14.941406 0.902344 12.199219 0.902344 9.03125 Z M 14 27.097656 C 9.519531 27.097656 5.871094 23.449219 5.871094 18.96875 C 5.871094 18.476562 5.921875 18 6.007812 17.53125 C 6.953125 17.871094 7.96875 18.066406 9.03125 18.066406 C 10.867188 18.066406 12.574219 17.511719 14 16.566406 C 15.425781 17.511719 17.132812 18.066406 18.96875 18.066406 C 20.03125 18.066406 21.046875 17.871094 21.992188 17.53125 C 22.078125 18 22.128906 18.476562 22.128906 18.96875 C 22.128906 23.449219 18.480469 27.097656 14 27.097656 Z M 22.625 16.28125 C 21.871094 13.875 20.132812 11.902344 17.882812 10.824219 C 18 10.246094 18.066406 9.644531 18.066406 9.03125 C 18.066406 6.234375 16.785156 3.734375 14.785156 2.074219 C 16.007812 1.335938 17.4375 0.902344 18.96875 0.902344 C 23.449219 0.902344 27.097656 4.550781 27.097656 9.03125 C 27.097656 12.199219 25.273438 14.941406 22.625 16.28125 Z M 22.625 16.28125 "/>
<path style=" stroke:none;fill-rule:nonzero;fill:rgb(0%,0%,0%);fill-opacity:1;" d="M 18.96875 7.675781 L 19.871094 7.675781 L 19.871094 8.582031 L 18.96875 8.582031 Z M 18.96875 7.675781 "/>
<path style=" stroke:none;fill-rule:nonzero;fill:rgb(0%,0%,0%);fill-opacity:1;" d="M 20.773438 7.675781 L 21.675781 7.675781 L 21.675781 8.582031 L 20.773438 8.582031 Z M 20.773438 7.675781 "/>
<path style=" stroke:none;fill-rule:nonzero;fill:rgb(0%,0%,0%);fill-opacity:1;" d="M 22.582031 7.675781 L 23.484375 7.675781 L 23.484375 8.582031 L 22.582031 8.582031 Z M 22.582031 7.675781 "/>
<path style=" stroke:none;fill-rule:nonzero;fill:rgb(0%,0%,0%);fill-opacity:1;" d="M 4.515625 7.675781 L 5.417969 7.675781 L 5.417969 8.582031 L 4.515625 8.582031 Z M 4.515625 7.675781 "/>
<path style=" stroke:none;fill-rule:nonzero;fill:rgb(0%,0%,0%);fill-opacity:1;" d="M 6.324219 7.675781 L 7.226562 7.675781 L 7.226562 8.582031 L 6.324219 8.582031 Z M 6.324219 7.675781 "/>
<path style=" stroke:none;fill-rule:nonzero;fill:rgb(0%,0%,0%);fill-opacity:1;" d="M 8.128906 7.675781 L 9.03125 7.675781 L 9.03125 8.582031 L 8.128906 8.582031 Z M 8.128906 7.675781 "/>
<path style=" stroke:none;fill-rule:nonzero;fill:rgb(0%,0%,0%);fill-opacity:1;" d="M 11.742188 18.96875 L 12.644531 18.96875 L 12.644531 19.871094 L 11.742188 19.871094 Z M 11.742188 18.96875 "/>
<path style=" stroke:none;fill-rule:nonzero;fill:rgb(0%,0%,0%);fill-opacity:1;" d="M 13.546875 18.96875 L 14.453125 18.96875 L 14.453125 19.871094 L 13.546875 19.871094 Z M 13.546875 18.96875 "/>
<path style=" stroke:none;fill-rule:nonzero;fill:rgb(0%,0%,0%);fill-opacity:1;" d="M 15.355469 18.96875 L 16.257812 18.96875 L 16.257812 19.871094 L 15.355469 19.871094 Z M 15.355469 18.96875 "/>
</g>
</svg>
