<?xml version="1.0" encoding="UTF-8"?>
<svg xmlns="http://www.w3.org/2000/svg" xmlns:xlink="http://www.w3.org/1999/xlink" width="28pt" height="28pt" viewBox="0 0 28 28" version="1.1">
<g id="surface1">
<path style=" stroke:none;fill-rule:nonzero;fill:rgb(0%,0%,0%);fill-opacity:1;" d="M 18.941406 8.039062 C 18.945312 8.183594 19.003906 8.320312 19.105469 8.421875 C 19.210938 8.523438 19.34375 8.578125 19.488281 8.578125 C 19.492188 8.578125 19.496094 8.578125 19.5 8.578125 C 19.644531 8.574219 19.78125 8.515625 19.882812 8.410156 C 19.984375 8.304688 20.039062 8.167969 20.035156 8.023438 C 20.035156 7.878906 19.976562 7.742188 19.871094 7.640625 C 19.765625 7.539062 19.628906 7.480469 19.480469 7.484375 C 19.179688 7.488281 18.9375 7.738281 18.941406 8.039062 Z M 18.941406 8.039062 "/>
<path style=" stroke:none;fill-rule:nonzero;fill:rgb(0%,0%,0%);fill-opacity:1;" d="M 8.914062 10.664062 C 9.003906 10.851562 9.199219 10.972656 9.40625 10.972656 C 9.492188 10.972656 9.570312 10.953125 9.644531 10.917969 C 9.777344 10.855469 9.875 10.742188 9.925781 10.605469 C 9.972656 10.46875 9.964844 10.320312 9.898438 10.1875 C 9.613281 9.59375 9.457031 8.960938 9.433594 8.296875 C 9.433594 8.242188 9.429688 8.183594 9.429688 8.125 C 9.433594 6.855469 9.925781 5.664062 10.824219 4.765625 C 11.722656 3.867188 12.917969 3.371094 14.1875 3.371094 C 16.039062 3.371094 17.734375 4.457031 18.511719 6.144531 C 18.601562 6.335938 18.796875 6.460938 19.007812 6.460938 C 19.085938 6.460938 19.164062 6.445312 19.238281 6.410156 C 19.371094 6.351562 19.46875 6.242188 19.519531 6.105469 C 19.570312 5.96875 19.566406 5.820312 19.503906 5.6875 C 19.042969 4.683594 18.3125 3.832031 17.382812 3.226562 C 16.433594 2.605469 15.328125 2.277344 14.1875 2.277344 C 13.398438 2.277344 12.632812 2.433594 11.910156 2.738281 C 11.214844 3.03125 10.589844 3.453125 10.050781 3.992188 C 9.515625 4.527344 9.09375 5.152344 8.796875 5.847656 C 8.492188 6.570312 8.339844 7.335938 8.335938 8.125 C 8.335938 8.199219 8.339844 8.269531 8.339844 8.335938 C 8.371094 9.152344 8.5625 9.933594 8.914062 10.664062 Z M 8.914062 10.664062 "/>
<path style=" stroke:none;fill-rule:nonzero;fill:rgb(0%,0%,0%);fill-opacity:1;" d="M 16.917969 7.113281 C 16.917969 5.605469 15.691406 4.378906 14.183594 4.378906 C 12.675781 4.378906 11.449219 5.605469 11.449219 7.113281 L 11.449219 11.488281 C 11.449219 11.789062 11.695312 12.035156 11.996094 12.035156 C 12.300781 12.035156 12.542969 11.789062 12.542969 11.488281 L 12.542969 9.300781 C 12.941406 9.597656 13.425781 9.792969 13.949219 9.835938 L 15.984375 11.875 C 16.09375 11.980469 16.230469 12.035156 16.371094 12.035156 C 16.511719 12.035156 16.652344 11.980469 16.757812 11.875 C 16.972656 11.660156 16.972656 11.316406 16.757812 11.101562 L 15.277344 9.621094 C 16.242188 9.199219 16.917969 8.234375 16.917969 7.113281 Z M 14.183594 8.753906 C 13.28125 8.753906 12.542969 8.019531 12.542969 7.113281 C 12.542969 6.210938 13.28125 5.472656 14.183594 5.472656 C 15.089844 5.472656 15.824219 6.210938 15.824219 7.113281 C 15.824219 8.019531 15.089844 8.753906 14.183594 8.753906 Z M 14.183594 8.753906 "/>
<path style=" stroke:none;fill-rule:nonzero;fill:rgb(0%,0%,0%);fill-opacity:1;" d="M 21.257812 11.941406 C 21.875 10.804688 22.222656 9.507812 22.222656 8.125 C 22.222656 3.695312 18.617188 0.0898438 14.1875 0.0898438 C 9.753906 0.0898438 6.152344 3.695312 6.152344 8.125 C 6.152344 9.488281 6.492188 10.769531 7.089844 11.890625 C 3.101562 12.363281 0 15.761719 0 19.875 C 0 24.304688 3.605469 27.910156 8.035156 27.910156 C 10.402344 27.910156 12.527344 26.882812 14 25.253906 C 15.472656 26.882812 17.601562 27.910156 19.964844 27.910156 C 24.394531 27.910156 28 24.304688 28 19.875 C 28 15.882812 25.078125 12.5625 21.257812 11.941406 Z M 14.1875 1.183594 C 18.015625 1.183594 21.128906 4.296875 21.128906 8.125 C 21.128906 9.492188 20.734375 10.761719 20.050781 11.835938 C 20.023438 11.835938 19.992188 11.835938 19.964844 11.835938 C 17.601562 11.835938 15.472656 12.863281 14 14.492188 C 12.589844 12.929688 10.574219 11.921875 8.324219 11.84375 C 7.640625 10.765625 7.242188 9.492188 7.242188 8.125 C 7.246094 4.296875 10.359375 1.183594 14.1875 1.183594 Z M 8.035156 26.816406 C 4.207031 26.816406 1.09375 23.703125 1.09375 19.875 C 1.09375 16.042969 4.207031 12.929688 8.035156 12.929688 C 11.867188 12.929688 14.980469 16.042969 14.980469 19.875 C 14.980469 23.703125 11.867188 26.816406 8.035156 26.816406 Z M 19.964844 26.816406 C 17.855469 26.816406 15.960938 25.871094 14.6875 24.382812 C 15.5625 23.09375 16.074219 21.542969 16.074219 19.875 C 16.074219 18.203125 15.5625 16.652344 14.6875 15.363281 C 15.960938 13.875 17.855469 12.929688 19.964844 12.929688 C 23.792969 12.929688 26.90625 16.042969 26.90625 19.875 C 26.90625 23.703125 23.792969 26.816406 19.964844 26.816406 Z M 19.964844 26.816406 "/>
<path style=" stroke:none;fill-rule:nonzero;fill:rgb(0%,0%,0%);fill-opacity:1;" d="M 16.558594 15.261719 C 16.429688 15.261719 16.304688 15.308594 16.207031 15.390625 C 15.976562 15.582031 15.945312 15.929688 16.136719 16.160156 C 16.242188 16.285156 16.394531 16.355469 16.558594 16.355469 C 16.683594 16.355469 16.808594 16.308594 16.90625 16.226562 C 16.910156 16.226562 16.910156 16.226562 16.910156 16.226562 C 17.140625 16.035156 17.171875 15.6875 16.976562 15.457031 C 16.871094 15.332031 16.71875 15.261719 16.558594 15.261719 Z M 16.558594 15.261719 "/>
<path style=" stroke:none;fill-rule:nonzero;fill:rgb(0%,0%,0%);fill-opacity:1;" d="M 25.457031 17.859375 C 25.210938 17.191406 24.851562 16.578125 24.378906 16.039062 C 24.097656 15.710938 23.777344 15.417969 23.433594 15.164062 C 23.097656 14.914062 22.734375 14.703125 22.351562 14.53125 C 21.976562 14.363281 21.582031 14.238281 21.179688 14.152344 C 20.78125 14.066406 20.371094 14.023438 19.964844 14.023438 L 19.960938 14.023438 C 19.402344 14.023438 18.851562 14.101562 18.316406 14.257812 C 18.175781 14.300781 18.0625 14.390625 17.992188 14.519531 C 17.921875 14.648438 17.90625 14.796875 17.945312 14.9375 C 18.015625 15.167969 18.230469 15.332031 18.472656 15.332031 C 18.523438 15.332031 18.574219 15.324219 18.625 15.308594 C 19.058594 15.179688 19.507812 15.117188 19.960938 15.117188 C 21.339844 15.117188 22.652344 15.714844 23.554688 16.757812 C 24.304688 17.621094 24.71875 18.726562 24.71875 19.871094 C 24.71875 21.25 24.121094 22.5625 23.082031 23.464844 C 23.035156 23.503906 22.996094 23.539062 22.953125 23.570312 C 22.4375 23.988281 21.855469 24.285156 21.222656 24.460938 C 21.082031 24.5 20.964844 24.589844 20.890625 24.714844 C 20.820312 24.84375 20.800781 24.992188 20.839844 25.132812 C 20.902344 25.371094 21.121094 25.535156 21.367188 25.535156 C 21.414062 25.535156 21.464844 25.527344 21.511719 25.515625 C 22.289062 25.300781 23.003906 24.9375 23.632812 24.429688 C 23.636719 24.425781 23.640625 24.421875 23.640625 24.421875 C 23.695312 24.378906 23.746094 24.335938 23.796875 24.289062 C 24.125 24.007812 24.417969 23.6875 24.675781 23.34375 C 24.921875 23.007812 25.132812 22.640625 25.304688 22.261719 C 25.472656 21.886719 25.601562 21.492188 25.683594 21.089844 C 25.769531 20.6875 25.8125 20.277344 25.8125 19.871094 C 25.8125 19.183594 25.691406 18.503906 25.457031 17.859375 Z M 25.457031 17.859375 "/>
<path style=" stroke:none;fill-rule:nonzero;fill:rgb(0%,0%,0%);fill-opacity:1;" d="M 22.617188 20.886719 C 22.617188 19.988281 22.183594 19.164062 21.460938 18.65625 C 21.5 18.492188 21.523438 18.324219 21.523438 18.152344 C 21.523438 16.945312 20.539062 15.964844 19.335938 15.964844 C 18.128906 15.964844 17.148438 16.945312 17.148438 18.152344 L 17.148438 23.074219 C 17.148438 23.375 17.390625 23.621094 17.695312 23.621094 C 17.996094 23.621094 18.242188 23.375 18.242188 23.074219 L 18.242188 23.070312 C 18.699219 23.414062 19.265625 23.621094 19.882812 23.621094 C 21.390625 23.621094 22.617188 22.394531 22.617188 20.886719 Z M 19.882812 22.527344 C 18.976562 22.527344 18.242188 21.789062 18.242188 20.886719 L 18.242188 18.152344 C 18.242188 17.546875 18.730469 17.058594 19.335938 17.058594 C 19.9375 17.058594 20.429688 17.546875 20.429688 18.152344 C 20.429688 18.753906 19.9375 19.246094 19.335938 19.246094 C 19.03125 19.246094 18.789062 19.492188 18.789062 19.792969 C 18.789062 20.09375 19.03125 20.339844 19.335938 20.339844 C 19.96875 20.339844 20.542969 20.066406 20.941406 19.632812 C 21.304688 19.941406 21.523438 20.394531 21.523438 20.886719 C 21.523438 21.789062 20.785156 22.527344 19.882812 22.527344 Z M 19.882812 22.527344 "/>
<path style=" stroke:none;fill-rule:nonzero;fill:rgb(0%,0%,0%);fill-opacity:1;" d="M 8.625 24.597656 C 8.605469 24.597656 8.585938 24.597656 8.566406 24.601562 C 8.390625 24.621094 8.214844 24.628906 8.042969 24.628906 C 6.351562 24.628906 4.828125 23.765625 3.960938 22.320312 C 3.515625 21.582031 3.28125 20.738281 3.28125 19.878906 C 3.28125 18.1875 4.144531 16.664062 5.589844 15.796875 C 5.636719 15.765625 5.683594 15.738281 5.730469 15.714844 C 6.308594 15.390625 6.9375 15.199219 7.589844 15.136719 C 7.890625 15.109375 8.113281 14.84375 8.085938 14.542969 C 8.074219 14.40625 8.007812 14.277344 7.90625 14.1875 C 7.792969 14.085938 7.640625 14.035156 7.488281 14.046875 C 6.683594 14.125 5.914062 14.363281 5.199219 14.757812 C 5.140625 14.789062 5.082031 14.824219 5.023438 14.859375 C 4.578125 15.128906 4.167969 15.453125 3.8125 15.828125 C 3.464844 16.1875 3.164062 16.59375 2.921875 17.035156 C 2.441406 17.902344 2.1875 18.886719 2.1875 19.878906 C 2.1875 20.933594 2.476562 21.972656 3.023438 22.882812 C 3.292969 23.332031 3.617188 23.742188 3.988281 24.097656 C 4.351562 24.445312 4.757812 24.746094 5.199219 24.988281 C 6.066406 25.46875 7.046875 25.722656 8.039062 25.722656 L 8.042969 25.722656 C 8.257812 25.722656 8.472656 25.710938 8.683594 25.6875 C 8.832031 25.671875 8.960938 25.601562 9.050781 25.484375 C 9.144531 25.371094 9.183594 25.230469 9.167969 25.082031 C 9.136719 24.804688 8.902344 24.597656 8.625 24.597656 Z M 8.625 24.597656 "/>
<path style=" stroke:none;fill-rule:nonzero;fill:rgb(0%,0%,0%);fill-opacity:1;" d="M 10.6875 23.917969 C 10.59375 23.917969 10.496094 23.945312 10.414062 23.992188 C 10.289062 24.066406 10.199219 24.183594 10.160156 24.324219 C 10.121094 24.464844 10.140625 24.613281 10.214844 24.738281 C 10.3125 24.90625 10.492188 25.011719 10.6875 25.011719 C 10.785156 25.011719 10.878906 24.988281 10.960938 24.9375 C 11.222656 24.789062 11.3125 24.453125 11.160156 24.191406 C 11.0625 24.023438 10.882812 23.917969 10.6875 23.917969 Z M 10.6875 23.917969 "/>
<path style=" stroke:none;fill-rule:nonzero;fill:rgb(0%,0%,0%);fill-opacity:1;" d="M 10.851562 19.792969 C 10.851562 19.492188 10.609375 19.246094 10.304688 19.246094 L 8.207031 19.246094 C 7.902344 19.246094 7.660156 19.492188 7.660156 19.792969 C 7.660156 20.09375 7.902344 20.339844 8.207031 20.339844 L 9.757812 20.339844 L 9.757812 20.886719 C 9.757812 21.789062 9.023438 22.527344 8.117188 22.527344 C 7.214844 22.527344 6.476562 21.789062 6.476562 20.886719 L 6.476562 18.699219 C 6.476562 17.792969 7.214844 17.058594 8.117188 17.058594 C 8.703125 17.058594 9.246094 17.371094 9.539062 17.878906 C 9.691406 18.140625 10.027344 18.230469 10.289062 18.078125 C 10.550781 17.925781 10.636719 17.59375 10.488281 17.332031 C 10 16.488281 9.09375 15.964844 8.117188 15.964844 C 6.609375 15.964844 5.382812 17.191406 5.382812 18.699219 L 5.382812 20.886719 C 5.382812 22.394531 6.609375 23.621094 8.117188 23.621094 C 9.625 23.621094 10.851562 22.394531 10.851562 20.886719 Z M 10.851562 19.792969 "/>
</g>
</svg>
