<?xml version="1.0" encoding="UTF-8"?>
<svg xmlns="http://www.w3.org/2000/svg" xmlns:xlink="http://www.w3.org/1999/xlink" width="28pt" height="28pt" viewBox="0 0 28 28" version="1.1">
<g id="surface1">
<path style=" stroke:none;fill-rule:nonzero;fill:rgb(0%,0%,0%);fill-opacity:1;" d="M 27.363281 26.347656 L 27.363281 10.371094 C 27.714844 10.28125 27.976562 9.960938 27.976562 9.578125 L 27.976562 6.789062 C 27.976562 6.320312 27.695312 5.894531 27.265625 5.710938 L 14.300781 0.117188 C 14.101562 0.0351562 13.875 0.0351562 13.675781 0.117188 L 0.71875 5.601562 C 0.28125 5.789062 0 6.214844 0 6.6875 L 0 9.578125 C 0 9.992188 0.304688 10.332031 0.703125 10.386719 L 0.703125 26.347656 C 0.328125 26.429688 0.0507812 26.769531 0.0625 27.171875 C 0.078125 27.617188 0.460938 27.964844 0.90625 27.964844 L 2.136719 27.964844 C 2.582031 27.964844 2.964844 27.617188 2.980469 27.171875 C 2.992188 26.769531 2.714844 26.429688 2.339844 26.347656 L 2.339844 15.417969 L 8.316406 10.398438 L 19.746094 10.398438 L 25.722656 15.417969 L 25.722656 26.347656 C 25.347656 26.429688 25.070312 26.769531 25.085938 27.171875 C 25.097656 27.617188 25.480469 27.964844 25.925781 27.964844 L 27.15625 27.964844 C 27.601562 27.964844 27.984375 27.617188 28 27.171875 C 28.011719 26.769531 27.734375 26.429688 27.363281 26.347656 Z M 13.988281 1.761719 L 23.019531 5.488281 L 4.957031 5.488281 Z M 2.339844 13.277344 L 2.339844 10.398438 L 5.769531 10.398438 Z M 25.722656 13.277344 L 22.296875 10.398438 L 25.722656 10.398438 Z M 26.335938 8.757812 L 1.640625 8.757812 L 1.640625 7.125 L 26.335938 7.125 Z M 26.335938 8.757812 "/>
<path style=" stroke:none;fill-rule:nonzero;fill:rgb(0%,0%,0%);fill-opacity:1;" d="M 20.433594 20.714844 L 7.550781 20.714844 C 7.097656 20.714844 6.730469 21.082031 6.730469 21.535156 L 6.730469 23.882812 C 6.730469 24.332031 7.097656 24.699219 7.550781 24.699219 L 8.375 24.699219 L 8.375 27.152344 C 8.375 27.605469 8.742188 27.972656 9.195312 27.972656 C 9.648438 27.972656 10.011719 27.605469 10.011719 27.152344 L 10.011719 24.699219 L 18.050781 24.699219 L 18.050781 27.152344 C 18.050781 27.605469 18.417969 27.972656 18.871094 27.972656 C 19.324219 27.972656 19.691406 27.605469 19.691406 27.152344 L 19.691406 24.699219 L 20.433594 24.699219 C 20.886719 24.699219 21.253906 24.332031 21.253906 23.882812 L 21.253906 21.535156 C 21.253906 21.082031 20.886719 20.714844 20.433594 20.714844 Z M 8.371094 23.0625 L 8.371094 22.355469 L 19.613281 22.355469 L 19.613281 23.0625 Z M 8.371094 23.0625 "/>
</g>
</svg>
