<?xml version="1.0" encoding="UTF-8"?>
<svg xmlns="http://www.w3.org/2000/svg" xmlns:xlink="http://www.w3.org/1999/xlink" width="28pt" height="28pt" viewBox="0 0 28 28" version="1.1">
<g id="surface1">
<path style=" stroke:none;fill-rule:nonzero;fill:rgb(0%,0%,0%);fill-opacity:1;" d="M 19.894531 15.089844 L 16.089844 15.089844 C 15.046875 15.089844 14.199219 15.9375 14.199219 16.976562 L 14.199219 19.894531 C 14.199219 20.9375 15.046875 21.785156 16.089844 21.785156 L 19.894531 21.785156 C 20.933594 21.785156 21.78125 20.9375 21.78125 19.894531 L 21.78125 16.976562 C 21.78125 15.9375 20.933594 15.089844 19.894531 15.089844 Z M 20.40625 19.894531 C 20.40625 20.183594 20.171875 20.410156 19.894531 20.410156 L 16.089844 20.410156 C 15.800781 20.410156 15.574219 20.175781 15.574219 19.894531 L 15.574219 16.976562 C 15.574219 16.691406 15.808594 16.464844 16.089844 16.464844 L 19.894531 16.464844 C 20.179688 16.464844 20.40625 16.699219 20.40625 16.976562 Z M 20.40625 19.894531 "/>
<path style=" stroke:none;fill-rule:nonzero;fill:rgb(0%,0%,0%);fill-opacity:1;" d="M 28 9.785156 C 28 9.667969 27.972656 9.550781 27.910156 9.449219 L 23.742188 2.125 C 23.625 1.914062 23.394531 1.777344 23.148438 1.777344 L 4.847656 1.777344 C 4.601562 1.777344 4.371094 1.90625 4.25 2.125 L 0.0898438 9.449219 C 0.0351562 9.550781 0 9.667969 0 9.785156 C 0 11.429688 0.988281 12.835938 2.402344 13.460938 L 2.402344 25.535156 C 2.402344 25.914062 2.710938 26.222656 3.089844 26.222656 L 6.882812 26.222656 C 6.886719 26.222656 6.894531 26.222656 6.898438 26.222656 L 12.21875 26.222656 C 12.226562 26.222656 12.230469 26.222656 12.238281 26.222656 L 24.90625 26.222656 C 25.28125 26.222656 25.589844 25.914062 25.589844 25.535156 L 25.589844 13.546875 C 25.589844 13.515625 25.589844 13.492188 25.585938 13.472656 C 27.003906 12.847656 28 11.433594 28 9.785156 Z M 5.246094 3.15625 L 22.746094 3.15625 L 26.003906 8.882812 L 1.996094 8.882812 Z M 19.925781 10.25 C 19.710938 11.484375 18.628906 12.421875 17.328125 12.421875 C 16.03125 12.421875 14.949219 11.484375 14.730469 10.25 Z M 13.273438 10.25 C 13.054688 11.484375 11.976562 12.421875 10.675781 12.421875 C 9.378906 12.421875 8.296875 11.484375 8.074219 10.25 Z M 1.417969 10.25 L 6.621094 10.25 C 6.402344 11.484375 5.316406 12.421875 4.015625 12.421875 C 2.71875 12.429688 1.636719 11.484375 1.417969 10.25 Z M 11.535156 24.851562 L 7.585938 24.851562 L 7.585938 17.441406 C 7.585938 16.902344 8.019531 16.464844 8.566406 16.464844 L 10.5625 16.464844 C 11.097656 16.464844 11.539062 16.898438 11.539062 17.441406 L 11.539062 24.851562 Z M 24.21875 24.851562 L 12.90625 24.851562 L 12.90625 17.441406 C 12.90625 16.148438 11.855469 15.089844 10.554688 15.089844 L 8.558594 15.089844 C 7.265625 15.089844 6.207031 16.144531 6.207031 17.441406 L 6.207031 24.855469 L 3.777344 24.855469 L 3.777344 13.796875 C 3.855469 13.800781 3.9375 13.800781 4.015625 13.800781 C 5.402344 13.800781 6.625 13.097656 7.347656 12.027344 C 8.066406 13.097656 9.292969 13.800781 10.675781 13.800781 C 12.058594 13.800781 13.277344 13.097656 14.003906 12.027344 C 14.726562 13.097656 15.949219 13.800781 17.328125 13.800781 C 18.714844 13.800781 19.933594 13.097656 20.652344 12.027344 C 21.375 13.097656 22.597656 13.800781 23.984375 13.800781 C 24.0625 13.800781 24.136719 13.796875 24.21875 13.796875 Z M 23.984375 12.429688 C 22.683594 12.429688 21.605469 11.492188 21.386719 10.253906 L 26.585938 10.253906 C 26.363281 11.484375 25.28125 12.429688 23.984375 12.429688 Z M 23.984375 12.429688 "/>
</g>
</svg>
