<?xml version="1.0" encoding="UTF-8"?>
<svg xmlns="http://www.w3.org/2000/svg" xmlns:xlink="http://www.w3.org/1999/xlink" width="28pt" height="28pt" viewBox="0 0 28 28" version="1.1">
<g id="surface1">
<path style=" stroke:none;fill-rule:nonzero;fill:rgb(0%,0%,0%);fill-opacity:1;" d="M 14 6.742188 C 9.996094 6.742188 6.742188 9.996094 6.742188 14 C 6.742188 18.003906 9.996094 21.257812 14 21.257812 C 18.003906 21.257812 21.257812 18.003906 21.257812 14 C 21.257812 9.996094 18.003906 6.742188 14 6.742188 Z M 14 20.222656 C 10.570312 20.222656 7.777344 17.429688 7.777344 14 C 7.777344 10.570312 10.570312 7.777344 14 7.777344 C 17.429688 7.777344 20.222656 10.570312 20.222656 14 C 20.222656 17.429688 17.429688 20.222656 14 20.222656 Z M 14 20.222656 "/>
<path style=" stroke:none;fill-rule:nonzero;fill:rgb(0%,0%,0%);fill-opacity:1;" d="M 26.558594 10.890625 L 25.511719 10.890625 C 25.246094 9.898438 24.851562 8.949219 24.339844 8.058594 L 25.078125 7.320312 C 25.351562 7.046875 25.5 6.683594 25.5 6.300781 C 25.5 5.914062 25.351562 5.554688 25.078125 5.28125 L 22.71875 2.917969 C 22.175781 2.375 21.226562 2.375 20.679688 2.917969 L 19.941406 3.660156 C 19.050781 3.148438 18.101562 2.753906 17.109375 2.488281 L 17.109375 1.441406 C 17.109375 0.648438 16.464844 0 15.667969 0 L 12.332031 0 C 11.535156 0 10.890625 0.648438 10.890625 1.441406 L 10.890625 2.488281 C 9.898438 2.753906 8.949219 3.148438 8.058594 3.660156 L 7.320312 2.921875 C 6.773438 2.375 5.824219 2.375 5.28125 2.921875 L 2.917969 5.28125 C 2.648438 5.554688 2.496094 5.914062 2.496094 6.300781 C 2.496094 6.6875 2.648438 7.046875 2.917969 7.320312 L 3.660156 8.058594 C 3.148438 8.949219 2.753906 9.898438 2.488281 10.890625 L 1.441406 10.890625 C 0.648438 10.890625 0 11.535156 0 12.332031 L 0 15.667969 C 0 16.464844 0.648438 17.109375 1.441406 17.109375 L 2.488281 17.109375 C 2.753906 18.101562 3.148438 19.050781 3.660156 19.941406 L 2.921875 20.679688 C 2.648438 20.953125 2.5 21.316406 2.5 21.699219 C 2.5 22.085938 2.648438 22.445312 2.921875 22.71875 L 5.28125 25.082031 C 5.824219 25.625 6.777344 25.625 7.320312 25.082031 L 8.058594 24.339844 C 8.949219 24.851562 9.898438 25.246094 10.890625 25.511719 L 10.890625 26.558594 C 10.890625 27.355469 11.535156 28 12.332031 28 L 15.667969 28 C 16.464844 28 17.109375 27.355469 17.109375 26.558594 L 17.109375 25.511719 C 18.101562 25.246094 19.050781 24.851562 19.941406 24.339844 L 20.679688 25.082031 C 21.226562 25.625 22.175781 25.625 22.71875 25.082031 L 25.082031 22.71875 C 25.351562 22.445312 25.503906 22.085938 25.503906 21.699219 C 25.503906 21.316406 25.351562 20.953125 25.082031 20.679688 L 24.339844 19.941406 C 24.851562 19.050781 25.246094 18.101562 25.511719 17.109375 L 26.558594 17.109375 C 27.355469 17.109375 28 16.464844 28 15.667969 L 28 12.332031 C 28 11.535156 27.351562 10.890625 26.558594 10.890625 Z M 26.964844 15.667969 C 26.964844 15.894531 26.78125 16.074219 26.558594 16.074219 L 24.695312 16.074219 L 24.601562 16.476562 C 24.332031 17.636719 23.878906 18.734375 23.246094 19.746094 L 23.03125 20.097656 L 24.347656 21.414062 C 24.503906 21.570312 24.503906 21.828125 24.347656 21.984375 L 21.984375 24.347656 C 21.828125 24.503906 21.570312 24.503906 21.414062 24.347656 L 20.097656 23.03125 L 19.746094 23.246094 C 18.734375 23.878906 17.636719 24.332031 16.476562 24.601562 L 16.074219 24.695312 L 16.074219 26.558594 C 16.074219 26.78125 15.894531 26.964844 15.667969 26.964844 L 12.332031 26.964844 C 12.105469 26.964844 11.925781 26.78125 11.925781 26.558594 L 11.925781 24.695312 L 11.523438 24.601562 C 10.363281 24.332031 9.265625 23.878906 8.253906 23.246094 L 7.902344 23.03125 L 6.585938 24.347656 C 6.429688 24.503906 6.171875 24.503906 6.015625 24.347656 L 3.652344 21.984375 C 3.496094 21.828125 3.496094 21.570312 3.652344 21.414062 L 4.96875 20.097656 L 4.753906 19.746094 C 4.121094 18.734375 3.667969 17.636719 3.398438 16.476562 L 3.304688 16.074219 L 1.441406 16.074219 C 1.21875 16.074219 1.035156 15.894531 1.035156 15.667969 L 1.035156 12.332031 C 1.035156 12.105469 1.21875 11.925781 1.441406 11.925781 L 3.304688 11.925781 L 3.398438 11.523438 C 3.667969 10.363281 4.121094 9.265625 4.753906 8.253906 L 4.96875 7.902344 L 3.652344 6.585938 C 3.496094 6.429688 3.496094 6.171875 3.652344 6.015625 L 6.015625 3.652344 C 6.171875 3.496094 6.429688 3.496094 6.585938 3.652344 L 7.902344 4.96875 L 8.253906 4.753906 C 9.265625 4.121094 10.363281 3.667969 11.523438 3.398438 L 11.925781 3.304688 L 11.925781 1.441406 C 11.925781 1.21875 12.105469 1.035156 12.332031 1.035156 L 15.667969 1.035156 C 15.894531 1.035156 16.074219 1.21875 16.074219 1.441406 L 16.074219 3.304688 L 16.476562 3.398438 C 17.636719 3.667969 18.734375 4.121094 19.746094 4.753906 L 20.097656 4.96875 L 21.414062 3.652344 C 21.570312 3.496094 21.828125 3.496094 21.984375 3.652344 L 24.347656 6.015625 C 24.503906 6.171875 24.503906 6.429688 24.347656 6.585938 L 23.03125 7.902344 L 23.246094 8.253906 C 23.878906 9.261719 24.332031 10.363281 24.601562 11.523438 L 24.695312 11.925781 L 26.558594 11.925781 C 26.78125 11.925781 26.964844 12.105469 26.964844 12.332031 Z M 26.964844 15.667969 "/>
<path style=" stroke:none;fill-rule:nonzero;fill:rgb(0%,0%,0%);fill-opacity:1;" d="M 14 8.816406 C 11.140625 8.816406 8.816406 11.140625 8.816406 14 C 8.816406 16.859375 11.140625 19.183594 14 19.183594 C 16.859375 19.183594 19.183594 16.859375 19.183594 14 C 19.183594 11.140625 16.859375 8.816406 14 8.816406 Z M 14 18.148438 C 11.710938 18.148438 9.851562 16.289062 9.851562 14 C 9.851562 11.710938 11.710938 9.851562 14 9.851562 C 16.289062 9.851562 18.148438 11.710938 18.148438 14 C 18.148438 16.289062 16.289062 18.148438 14 18.148438 Z M 14 18.148438 "/>
</g>
</svg>
