<?xml version="1.0" encoding="UTF-8"?>
<svg xmlns="http://www.w3.org/2000/svg" xmlns:xlink="http://www.w3.org/1999/xlink" width="28pt" height="28pt" viewBox="0 0 28 28" version="1.1">
<g id="surface1">
<path style=" stroke:none;fill-rule:nonzero;fill:rgb(0%,0%,0%);fill-opacity:1;" d="M 19.421875 14.808594 C 19.144531 14.53125 18.777344 14.382812 18.390625 14.382812 C 18.292969 14.382812 18.203125 14.390625 18.109375 14.40625 L 11.6875 7.984375 L 12.933594 6.742188 C 13.132812 6.542969 13.132812 6.21875 12.933594 6.019531 L 12.617188 5.703125 L 17.34375 0.980469 C 17.484375 0.839844 17.53125 0.625 17.460938 0.441406 C 17.390625 0.253906 17.214844 0.121094 17.015625 0.109375 C 14.304688 -0.078125 11.648438 0.898438 9.699219 2.785156 L 9.382812 2.46875 C 9.289062 2.375 9.160156 2.320312 9.023438 2.320312 C 8.886719 2.320312 8.757812 2.375 8.660156 2.46875 L 3.589844 7.539062 C 3.390625 7.738281 3.390625 8.0625 3.589844 8.261719 L 4.082031 8.75 L 3.183594 9.644531 L 2.695312 9.15625 C 2.496094 8.957031 2.175781 8.957031 1.976562 9.15625 L 0.148438 10.984375 C 0.0546875 11.078125 0 11.207031 0 11.34375 C 0 11.480469 0.0546875 11.609375 0.148438 11.703125 L 3.699219 15.253906 C 3.796875 15.351562 3.929688 15.402344 4.058594 15.402344 C 4.191406 15.402344 4.320312 15.351562 4.421875 15.253906 L 6.246094 13.429688 C 6.339844 13.332031 6.394531 13.203125 6.394531 13.066406 C 6.394531 12.933594 6.339844 12.800781 6.246094 12.707031 L 5.757812 12.21875 L 6.652344 11.324219 L 7.140625 11.8125 C 7.238281 11.90625 7.367188 11.960938 7.5 11.960938 C 7.636719 11.960938 7.765625 11.90625 7.863281 11.8125 L 9.105469 10.566406 L 15.53125 16.988281 C 15.441406 17.449219 15.574219 17.945312 15.929688 18.300781 L 23.546875 25.917969 C 23.824219 26.191406 24.1875 26.34375 24.578125 26.34375 C 24.96875 26.34375 25.335938 26.191406 25.613281 25.917969 L 27.039062 24.488281 C 27.605469 23.921875 27.605469 22.996094 27.039062 22.425781 Z M 15.75 1.128906 L 11.894531 4.984375 L 10.421875 3.507812 C 11.871094 2.109375 13.757812 1.273438 15.75 1.128906 Z M 4.058594 14.171875 L 1.234375 11.34375 L 2.335938 10.238281 L 5.164062 13.066406 Z M 5.035156 11.496094 L 3.90625 10.367188 L 4.800781 9.472656 L 5.929688 10.601562 Z M 7.5 10.726562 L 4.675781 7.902344 L 9.023438 3.554688 L 11.851562 6.378906 Z M 10.964844 8.707031 L 17.210938 14.953125 L 16.074219 16.089844 L 9.828125 9.84375 Z M 26.316406 23.769531 L 24.890625 25.195312 C 24.804688 25.277344 24.695312 25.324219 24.578125 25.324219 C 24.460938 25.324219 24.351562 25.277344 24.269531 25.195312 L 16.652344 17.578125 C 16.480469 17.40625 16.480469 17.128906 16.652344 16.957031 L 18.078125 15.53125 C 18.164062 15.449219 18.273438 15.402344 18.390625 15.402344 C 18.507812 15.402344 18.617188 15.449219 18.699219 15.53125 L 26.316406 23.148438 C 26.488281 23.320312 26.488281 23.597656 26.316406 23.769531 Z M 26.316406 23.769531 "/>
<path style=" stroke:none;fill-rule:nonzero;fill:rgb(0%,0%,0%);fill-opacity:1;" d="M 16.914062 11.585938 C 16.714844 11.785156 16.714844 12.109375 16.914062 12.308594 C 17.113281 12.507812 17.4375 12.507812 17.636719 12.308594 L 18.726562 11.21875 C 20.023438 9.921875 20.648438 8.164062 20.453125 6.390625 C 20.332031 5.328125 20.742188 4.269531 21.550781 3.5625 C 21.78125 3.359375 22.039062 3.191406 22.316406 3.058594 L 21.898438 4.40625 C 21.722656 4.960938 21.777344 5.554688 22.046875 6.070312 C 22.316406 6.585938 22.773438 6.964844 23.332031 7.140625 C 24.480469 7.5 25.707031 6.855469 26.066406 5.707031 L 26.5 4.316406 C 26.800781 4.808594 26.96875 5.378906 26.976562 5.972656 C 26.992188 6.867188 26.652344 7.707031 26.019531 8.339844 C 25.648438 8.710938 25.210938 8.980469 24.714844 9.140625 C 23.789062 9.4375 22.949219 9.949219 22.277344 10.617188 L 19.613281 13.285156 C 19.410156 13.484375 19.410156 13.804688 19.613281 14.007812 C 19.710938 14.105469 19.839844 14.15625 19.972656 14.15625 C 20.101562 14.15625 20.234375 14.105469 20.332031 14.007812 L 23 11.339844 C 23.554688 10.785156 24.253906 10.359375 25.027344 10.113281 C 25.667969 9.90625 26.261719 9.542969 26.742188 9.0625 C 27.570312 8.234375 28.019531 7.128906 28 5.957031 C 27.980469 4.785156 27.5 3.695312 26.640625 2.890625 C 26.515625 2.769531 26.332031 2.726562 26.164062 2.769531 C 25.992188 2.816406 25.859375 2.945312 25.804688 3.113281 L 25.089844 5.402344 C 24.898438 6.015625 24.246094 6.355469 23.636719 6.164062 C 23.339844 6.074219 23.097656 5.871094 22.953125 5.59375 C 22.808594 5.320312 22.777344 5.003906 22.871094 4.710938 L 23.578125 2.445312 C 23.628906 2.277344 23.589844 2.09375 23.476562 1.960938 C 23.359375 1.824219 23.183594 1.761719 23.007812 1.789062 C 22.210938 1.917969 21.476562 2.265625 20.875 2.792969 C 19.820312 3.722656 19.28125 5.109375 19.4375 6.503906 C 19.601562 7.96875 19.078125 9.421875 18.003906 10.496094 Z M 16.914062 11.585938 "/>
<path style=" stroke:none;fill-rule:nonzero;fill:rgb(0%,0%,0%);fill-opacity:1;" d="M 14.417969 18.480469 C 13.121094 19.773438 12.496094 21.53125 12.691406 23.304688 C 12.8125 24.371094 12.402344 25.425781 11.59375 26.136719 C 11.363281 26.339844 11.105469 26.507812 10.828125 26.636719 L 11.246094 25.292969 C 11.421875 24.734375 11.367188 24.144531 11.097656 23.625 C 10.824219 23.109375 10.371094 22.730469 9.8125 22.554688 C 9.257812 22.382812 8.664062 22.4375 8.148438 22.707031 C 7.632812 22.976562 7.253906 23.433594 7.078125 23.992188 L 6.644531 25.378906 C 6.339844 24.886719 6.175781 24.320312 6.164062 23.722656 C 6.152344 22.828125 6.492188 21.988281 7.125 21.355469 C 7.496094 20.984375 7.933594 20.714844 8.429688 20.554688 C 9.355469 20.257812 10.195312 19.75 10.863281 19.082031 L 13.574219 16.371094 C 13.773438 16.171875 13.773438 15.847656 13.574219 15.648438 C 13.375 15.449219 13.054688 15.449219 12.855469 15.648438 L 10.144531 18.359375 C 9.589844 18.914062 8.886719 19.335938 8.117188 19.585938 C 7.476562 19.792969 6.882812 20.15625 6.402344 20.632812 C 5.574219 21.464844 5.125 22.566406 5.144531 23.738281 C 5.164062 24.910156 5.644531 26 6.503906 26.804688 C 6.628906 26.925781 6.8125 26.972656 6.980469 26.925781 C 7.152344 26.882812 7.285156 26.753906 7.339844 26.585938 L 8.054688 24.292969 C 8.144531 24 8.347656 23.753906 8.625 23.609375 C 8.898438 23.46875 9.210938 23.4375 9.507812 23.53125 C 9.804688 23.625 10.046875 23.824219 10.191406 24.101562 C 10.335938 24.375 10.367188 24.691406 10.273438 24.988281 L 9.566406 27.25 C 9.515625 27.417969 9.554688 27.605469 9.667969 27.738281 C 9.765625 27.851562 9.90625 27.914062 10.054688 27.914062 C 10.082031 27.914062 10.109375 27.910156 10.136719 27.90625 C 10.933594 27.777344 11.667969 27.429688 12.269531 26.902344 C 13.324219 25.972656 13.863281 24.585938 13.707031 23.195312 C 13.542969 21.730469 14.066406 20.273438 15.140625 19.199219 C 15.339844 19 15.339844 18.679688 15.140625 18.480469 C 14.9375 18.28125 14.617188 18.28125 14.417969 18.480469 Z M 14.417969 18.480469 "/>
</g>
</svg>
