<?xml version="1.0" encoding="UTF-8"?>
<svg xmlns="http://www.w3.org/2000/svg" xmlns:xlink="http://www.w3.org/1999/xlink" width="28pt" height="28pt" viewBox="0 0 28 28" version="1.1">
<g id="surface1">
<path style=" stroke:none;fill-rule:nonzero;fill:rgb(0%,0%,0%);fill-opacity:1;" d="M 25.738281 3.976562 C 24.273438 2.511719 22.332031 1.710938 20.257812 1.710938 C 18.1875 1.710938 16.242188 2.515625 14.773438 3.984375 L 14.007812 4.75 L 13.230469 3.972656 C 11.765625 2.503906 9.8125 1.691406 7.742188 1.691406 C 5.675781 1.691406 3.726562 2.5 2.269531 3.960938 C 0.800781 5.425781 -0.0078125 7.371094 0 9.445312 C 0 11.515625 0.8125 13.457031 2.28125 14.921875 L 13.425781 26.070312 C 13.582031 26.226562 13.789062 26.308594 13.992188 26.308594 C 14.191406 26.308594 14.402344 26.230469 14.554688 26.078125 L 25.726562 14.945312 C 27.191406 13.480469 28 11.535156 28 9.460938 C 28.007812 7.390625 27.203125 5.441406 25.738281 3.976562 Z M 24.597656 13.8125 L 13.992188 24.378906 L 3.40625 13.796875 C 2.242188 12.632812 1.601562 11.089844 1.601562 9.445312 C 1.601562 7.800781 2.238281 6.257812 3.402344 5.097656 C 4.558594 3.941406 6.101562 3.300781 7.742188 3.300781 C 9.386719 3.300781 10.933594 3.941406 12.097656 5.105469 L 13.4375 6.445312 C 13.753906 6.761719 14.257812 6.761719 14.574219 6.445312 L 15.902344 5.117188 C 17.066406 3.953125 18.617188 3.3125 20.253906 3.3125 C 21.890625 3.3125 23.433594 3.953125 24.597656 5.109375 C 25.761719 6.273438 26.398438 7.816406 26.398438 9.460938 C 26.402344 11.105469 25.761719 12.648438 24.597656 13.8125 Z M 24.597656 13.8125 "/>
</g>
</svg>
