<?xml version="1.0" encoding="UTF-8"?>
<svg xmlns="http://www.w3.org/2000/svg" xmlns:xlink="http://www.w3.org/1999/xlink" width="28pt" height="28pt" viewBox="0 0 28 28" version="1.1">
<g id="surface1">
<path style=" stroke:none;fill-rule:nonzero;fill:rgb(0%,0%,0%);fill-opacity:1;" d="M 23.917969 4.097656 C 18.453125 -1.367188 9.5625 -1.367188 4.097656 4.097656 C -1.367188 9.5625 -1.367188 18.453125 4.097656 23.917969 C 9.5625 29.382812 18.453125 29.382812 23.917969 23.917969 C 29.382812 18.453125 29.382812 9.5625 23.917969 4.097656 Z M 22.386719 22.390625 C 17.769531 27.011719 10.25 27.011719 5.625 22.390625 C 1.003906 17.769531 1.003906 10.246094 5.625 5.625 C 10.246094 1.003906 17.765625 1.003906 22.390625 5.625 C 27.011719 10.246094 27.007812 17.769531 22.386719 22.390625 Z M 8.78125 10.214844 C 8.78125 9.308594 9.515625 8.578125 10.417969 8.578125 C 11.324219 8.578125 12.054688 9.308594 12.054688 10.214844 C 12.054688 11.121094 11.324219 11.851562 10.417969 11.851562 C 9.515625 11.851562 8.78125 11.121094 8.78125 10.214844 Z M 16.207031 10.214844 C 16.207031 9.308594 16.941406 8.578125 17.847656 8.578125 C 18.75 8.578125 19.484375 9.308594 19.484375 10.214844 C 19.484375 11.121094 18.75 11.851562 17.847656 11.851562 C 16.941406 11.851562 16.207031 11.121094 16.207031 10.214844 Z M 20.078125 16.921875 C 19.066406 19.269531 16.6875 20.789062 14.023438 20.789062 C 11.304688 20.789062 8.910156 19.261719 7.929688 16.902344 C 7.761719 16.5 7.953125 16.035156 8.359375 15.867188 C 8.457031 15.828125 8.5625 15.808594 8.664062 15.808594 C 8.972656 15.808594 9.269531 15.992188 9.394531 16.296875 C 10.128906 18.0625 11.945312 19.203125 14.023438 19.203125 C 16.054688 19.203125 17.863281 18.0625 18.625 16.292969 C 18.800781 15.894531 19.265625 15.707031 19.667969 15.882812 C 20.070312 16.054688 20.253906 16.523438 20.078125 16.921875 Z M 20.078125 16.921875 "/>
</g>
</svg>
