<?xml version="1.0" encoding="UTF-8"?>
<svg xmlns="http://www.w3.org/2000/svg" xmlns:xlink="http://www.w3.org/1999/xlink" width="28pt" height="28pt" viewBox="0 0 28 28" version="1.1">
<g id="surface1">
<path style=" stroke:none;fill-rule:nonzero;fill:rgb(0%,0%,0%);fill-opacity:1;" d="M 26.601562 10.332031 L 26.601562 7 C 26.597656 5.710938 25.554688 4.667969 24.265625 4.667969 L 20.066406 4.667969 C 19.328125 4.667969 18.636719 5.019531 18.199219 5.613281 C 17.761719 5.019531 17.070312 4.667969 16.332031 4.667969 L 11.667969 4.667969 C 10.929688 4.667969 10.238281 5.019531 9.800781 5.613281 C 9.363281 5.019531 8.671875 4.667969 7.933594 4.667969 L 3.734375 4.667969 C 2.445312 4.667969 1.402344 5.710938 1.398438 7 L 1.398438 10.332031 C 0.578125 10.542969 0.00390625 11.285156 0 12.132812 L 0 21 C 0 21.125 0.0507812 21.242188 0.136719 21.328125 C 0.222656 21.417969 0.34375 21.464844 0.464844 21.464844 L 0.464844 21.933594 C 0.46875 22.707031 1.09375 23.332031 1.867188 23.332031 L 3.265625 23.332031 C 4.039062 23.332031 4.664062 22.707031 4.667969 21.933594 L 4.667969 21.464844 L 23.332031 21.464844 L 23.332031 21.933594 C 23.335938 22.707031 23.960938 23.332031 24.734375 23.332031 L 26.132812 23.332031 C 26.90625 23.332031 27.53125 22.707031 27.535156 21.933594 L 27.535156 21.464844 C 27.65625 21.464844 27.777344 21.417969 27.863281 21.328125 C 27.949219 21.242188 28 21.125 28 21 L 28 12.132812 C 27.996094 11.285156 27.421875 10.542969 26.601562 10.332031 Z M 18.667969 7 C 18.667969 6.226562 19.292969 5.601562 20.066406 5.601562 L 24.265625 5.601562 C 25.039062 5.601562 25.664062 6.226562 25.667969 7 L 25.667969 10.332031 C 24.84375 10.542969 24.269531 11.285156 24.265625 12.132812 L 24.265625 12.855469 C 24.039062 12.722656 23.789062 12.640625 23.527344 12.613281 C 23.464844 12.605469 23.394531 12.601562 23.332031 12.601562 L 19.601562 12.601562 C 19.269531 12.601562 18.949219 12.691406 18.667969 12.859375 Z M 18.667969 14.464844 C 18.667969 13.953125 19.085938 13.535156 19.601562 13.535156 L 23.332031 13.535156 C 23.363281 13.535156 23.398438 13.535156 23.433594 13.539062 C 23.90625 13.585938 24.269531 13.988281 24.265625 14.464844 L 24.265625 16.332031 L 18.667969 16.332031 Z M 10.265625 7 C 10.265625 6.226562 10.894531 5.601562 11.667969 5.601562 L 16.332031 5.601562 C 17.105469 5.601562 17.734375 6.226562 17.734375 7 L 17.734375 12.855469 C 17.507812 12.722656 17.253906 12.640625 16.992188 12.613281 C 16.929688 12.605469 16.863281 12.601562 16.800781 12.601562 L 11.199219 12.601562 C 10.871094 12.601562 10.550781 12.691406 10.265625 12.859375 Z M 10.265625 14.464844 C 10.265625 13.953125 10.683594 13.535156 11.199219 13.535156 L 16.800781 13.535156 C 16.832031 13.535156 16.867188 13.535156 16.898438 13.539062 C 17.375 13.585938 17.734375 13.988281 17.734375 14.464844 L 17.734375 16.332031 L 10.265625 16.332031 Z M 9.332031 16.332031 L 3.734375 16.332031 L 3.734375 14.464844 C 3.734375 13.953125 4.152344 13.535156 4.667969 13.535156 L 8.398438 13.535156 C 8.429688 13.535156 8.464844 13.535156 8.5 13.539062 C 8.972656 13.585938 9.335938 13.988281 9.332031 14.464844 Z M 2.332031 7 C 2.335938 6.226562 2.960938 5.601562 3.734375 5.601562 L 7.933594 5.601562 C 8.707031 5.601562 9.332031 6.226562 9.332031 7 L 9.332031 12.855469 C 9.105469 12.722656 8.855469 12.640625 8.59375 12.613281 C 8.53125 12.605469 8.460938 12.601562 8.398438 12.601562 L 4.667969 12.601562 C 4.339844 12.601562 4.015625 12.691406 3.734375 12.859375 L 3.734375 12.132812 C 3.730469 11.285156 3.15625 10.542969 2.332031 10.332031 Z M 0.933594 12.132812 C 0.933594 11.617188 1.351562 11.199219 1.867188 11.199219 C 2.382812 11.199219 2.800781 11.617188 2.800781 12.132812 L 2.800781 20.535156 L 0.933594 20.535156 Z M 3.734375 21.933594 C 3.734375 22.191406 3.523438 22.398438 3.265625 22.398438 L 1.867188 22.398438 C 1.609375 22.398438 1.398438 22.191406 1.398438 21.933594 L 1.398438 21.464844 L 3.734375 21.464844 Z M 3.734375 20.535156 L 3.734375 17.265625 L 24.265625 17.265625 L 24.265625 20.535156 Z M 26.601562 21.933594 C 26.601562 22.191406 26.390625 22.398438 26.132812 22.398438 L 24.734375 22.398438 C 24.476562 22.398438 24.265625 22.191406 24.265625 21.933594 L 24.265625 21.464844 L 26.601562 21.464844 Z M 27.066406 20.535156 L 25.199219 20.535156 L 25.199219 12.132812 C 25.199219 11.617188 25.617188 11.199219 26.132812 11.199219 C 26.648438 11.199219 27.066406 11.617188 27.066406 12.132812 Z M 27.066406 20.535156 "/>
</g>
</svg>
