<?xml version="1.0" encoding="UTF-8"?>
<svg xmlns="http://www.w3.org/2000/svg" xmlns:xlink="http://www.w3.org/1999/xlink" width="28pt" height="28pt" viewBox="0 0 28 28" version="1.1">
<g id="surface1">
<path style=" stroke:none;fill-rule:nonzero;fill:rgb(0%,0%,0%);fill-opacity:1;" d="M 26.222656 10.136719 L 26.222656 8.082031 C 26.222656 5.566406 24.472656 4.675781 22.816406 4.675781 L 5.183594 4.675781 C 3.527344 4.675781 1.777344 5.566406 1.777344 8.082031 L 1.777344 10.136719 C 0.765625 10.382812 0 11.300781 0 12.40625 L 0 19.613281 C 0 20.285156 0.550781 20.839844 1.226562 20.839844 L 1.808594 20.839844 L 1.808594 22.21875 C 1.808594 22.832031 2.300781 23.324219 2.914062 23.324219 L 4.140625 23.324219 C 4.753906 23.324219 5.246094 22.832031 5.246094 22.21875 L 5.246094 20.839844 L 22.753906 20.839844 L 22.753906 22.21875 C 22.753906 22.832031 23.246094 23.324219 23.859375 23.324219 L 25.085938 23.324219 C 25.699219 23.324219 26.191406 22.832031 26.191406 22.21875 L 26.191406 20.839844 L 26.773438 20.839844 C 27.449219 20.839844 28 20.285156 28 19.613281 L 28 12.40625 C 28 11.300781 27.234375 10.382812 26.222656 10.136719 Z M 2.851562 8.113281 C 2.882812 6.179688 4.140625 5.78125 5.183594 5.78125 L 22.695312 5.78125 C 23.738281 5.78125 25.023438 6.179688 25.023438 8.113281 L 25.023438 10.167969 C 24.011719 10.410156 23.246094 11.332031 23.246094 12.40625 L 23.246094 13.050781 L 4.632812 13.050781 L 4.632812 12.40625 C 4.632812 11.332031 3.863281 10.410156 2.851562 10.167969 Z M 23.246094 14.152344 L 23.246094 16.269531 L 14.351562 16.269531 L 14.351562 14.152344 Z M 13.25 14.152344 L 13.25 16.269531 L 4.632812 16.269531 L 4.632812 14.152344 Z M 4.109375 22.21875 L 2.882812 22.21875 L 2.882812 20.839844 L 4.109375 20.839844 Z M 25.023438 22.21875 L 23.796875 22.21875 L 23.796875 20.839844 L 25.023438 20.839844 Z M 26.835938 19.613281 C 26.835938 19.671875 26.773438 19.734375 26.710938 19.734375 L 1.226562 19.734375 C 1.164062 19.734375 1.105469 19.671875 1.105469 19.613281 L 1.105469 12.40625 C 1.105469 11.730469 1.65625 11.179688 2.332031 11.179688 C 3.003906 11.179688 3.558594 11.730469 3.558594 12.40625 L 3.558594 16.820312 C 3.558594 17.128906 3.804688 17.375 4.109375 17.375 L 23.828125 17.375 C 24.136719 17.375 24.382812 17.128906 24.382812 16.820312 L 24.382812 12.40625 C 24.382812 11.730469 24.933594 11.179688 25.609375 11.179688 C 26.28125 11.179688 26.835938 11.730469 26.835938 12.40625 Z M 26.835938 19.613281 "/>
<path style=" stroke:none;fill-rule:nonzero;fill:rgb(0%,0%,0%);fill-opacity:1;" d="M 7.820312 7.804688 C 6.871094 7.804688 6.132812 8.542969 6.132812 9.492188 C 6.132812 10.410156 6.898438 11.179688 7.820312 11.179688 C 8.742188 11.179688 9.507812 10.441406 9.507812 9.492188 C 9.507812 8.570312 8.769531 7.804688 7.820312 7.804688 Z M 7.820312 10.074219 C 7.515625 10.074219 7.238281 9.828125 7.238281 9.492188 C 7.238281 9.15625 7.484375 8.910156 7.820312 8.910156 C 8.128906 8.910156 8.402344 9.15625 8.402344 9.492188 C 8.402344 9.828125 8.128906 10.074219 7.820312 10.074219 Z M 7.820312 10.074219 "/>
<path style=" stroke:none;fill-rule:nonzero;fill:rgb(0%,0%,0%);fill-opacity:1;" d="M 19.8125 7.804688 C 18.859375 7.804688 18.125 8.542969 18.125 9.492188 C 18.15625 10.410156 18.890625 11.179688 19.8125 11.179688 C 20.730469 11.179688 21.5 10.441406 21.5 9.492188 C 21.5 8.570312 20.761719 7.804688 19.8125 7.804688 Z M 19.8125 10.074219 C 19.503906 10.074219 19.230469 9.828125 19.230469 9.492188 C 19.230469 9.15625 19.503906 8.910156 19.8125 8.910156 C 20.117188 8.910156 20.394531 9.15625 20.394531 9.492188 C 20.394531 9.828125 20.148438 10.074219 19.8125 10.074219 Z M 19.8125 10.074219 "/>
</g>
</svg>
