<?xml version="1.0" encoding="UTF-8"?>
<svg xmlns="http://www.w3.org/2000/svg" xmlns:xlink="http://www.w3.org/1999/xlink" width="28pt" height="28pt" viewBox="0 0 28 28" version="1.1">
<g id="surface1">
<path style=" stroke:none;fill-rule:nonzero;fill:rgb(0%,0%,0%);fill-opacity:1;" d="M 25.753906 18.378906 C 24.039062 18.378906 22.355469 18.109375 20.761719 17.582031 C 19.964844 17.3125 19.0625 17.523438 18.542969 18.050781 L 15.394531 20.429688 C 11.742188 18.480469 9.492188 16.230469 7.570312 12.605469 L 9.878906 9.539062 C 10.476562 8.941406 10.691406 8.066406 10.433594 7.246094 C 9.90625 5.644531 9.636719 3.960938 9.636719 2.246094 C 9.636719 1.007812 8.628906 0 7.390625 0 L 2.246094 0 C 1.007812 0 0 1.007812 0 2.246094 C 0 16.449219 11.554688 28 25.753906 28 C 26.992188 28 28 26.992188 28 25.753906 L 28 20.625 C 28 19.386719 26.992188 18.378906 25.753906 18.378906 Z M 26.445312 25.753906 C 26.445312 26.132812 26.132812 26.445312 25.753906 26.445312 C 12.410156 26.445312 1.554688 15.589844 1.554688 2.246094 C 1.554688 1.867188 1.867188 1.554688 2.246094 1.554688 L 7.390625 1.554688 C 7.769531 1.554688 8.082031 1.867188 8.082031 2.246094 C 8.082031 4.128906 8.375 5.976562 8.953125 7.722656 C 9.035156 7.980469 8.96875 8.25 8.707031 8.519531 L 6.035156 12.0625 C 5.855469 12.300781 5.828125 12.617188 5.960938 12.882812 C 8.144531 17.171875 10.792969 19.824219 15.113281 22.039062 C 15.378906 22.175781 15.699219 22.144531 15.9375 21.964844 L 19.558594 19.222656 C 19.742188 19.039062 20.015625 18.972656 20.265625 19.058594 C 22.027344 19.640625 23.871094 19.933594 25.753906 19.933594 C 26.132812 19.933594 26.445312 20.246094 26.445312 20.625 Z M 26.445312 25.753906 "/>
<path style=" stroke:none;fill-rule:nonzero;fill:rgb(0%,0%,0%);fill-opacity:1;" d="M 14.777344 6.222656 L 13.222656 6.222656 C 12.792969 6.222656 12.445312 6.570312 12.445312 7 C 12.445312 7.429688 12.792969 7.777344 13.222656 7.777344 L 14.777344 7.777344 C 16.066406 7.777344 17.109375 6.730469 17.109375 5.445312 C 17.109375 4.15625 16.066406 3.109375 14.777344 3.109375 C 14.347656 3.109375 14 2.761719 14 2.332031 C 14 1.902344 14.347656 1.554688 14.777344 1.554688 L 16.332031 1.554688 C 16.761719 1.554688 17.109375 1.207031 17.109375 0.777344 C 17.109375 0.347656 16.761719 0 16.332031 0 L 14.777344 0 C 13.492188 0 12.445312 1.046875 12.445312 2.332031 C 12.445312 3.621094 13.492188 4.667969 14.777344 4.667969 C 15.207031 4.667969 15.554688 5.015625 15.554688 5.445312 C 15.554688 5.875 15.207031 6.222656 14.777344 6.222656 Z M 14.777344 6.222656 "/>
<path style=" stroke:none;fill-rule:nonzero;fill:rgb(0%,0%,0%);fill-opacity:1;" d="M 25.667969 3.109375 C 25.238281 3.109375 24.890625 2.761719 24.890625 2.332031 C 24.890625 1.902344 25.238281 1.554688 25.667969 1.554688 L 27.222656 1.554688 C 27.652344 1.554688 28 1.207031 28 0.777344 C 28 0.347656 27.652344 0 27.222656 0 L 25.667969 0 C 24.378906 0 23.332031 1.046875 23.332031 2.332031 C 23.332031 3.621094 24.378906 4.667969 25.667969 4.667969 C 26.097656 4.667969 26.445312 5.015625 26.445312 5.445312 C 26.445312 5.875 26.097656 6.222656 25.667969 6.222656 L 24.109375 6.222656 C 23.679688 6.222656 23.332031 6.570312 23.332031 7 C 23.332031 7.429688 23.679688 7.777344 24.109375 7.777344 L 25.667969 7.777344 C 26.953125 7.777344 28 6.730469 28 5.445312 C 28 4.15625 26.953125 3.109375 25.667969 3.109375 Z M 25.667969 3.109375 "/>
<path style=" stroke:none;fill-rule:nonzero;fill:rgb(0%,0%,0%);fill-opacity:1;" d="M 20.222656 7.777344 C 21.507812 7.777344 22.554688 6.730469 22.554688 5.445312 L 22.554688 2.332031 C 22.554688 1.046875 21.507812 0 20.222656 0 C 18.933594 0 17.890625 1.046875 17.890625 2.332031 L 17.890625 5.445312 C 17.890625 6.730469 18.9375 7.777344 20.222656 7.777344 Z M 19.445312 2.332031 C 19.445312 1.902344 19.792969 1.554688 20.222656 1.554688 C 20.652344 1.554688 21 1.902344 21 2.332031 L 21 5.445312 C 21 5.875 20.652344 6.222656 20.222656 6.222656 C 19.792969 6.222656 19.445312 5.875 19.445312 5.445312 Z M 19.445312 2.332031 "/>
</g>
</svg>
