<?xml version="1.0" encoding="UTF-8"?>
<svg xmlns="http://www.w3.org/2000/svg" xmlns:xlink="http://www.w3.org/1999/xlink" width="28pt" height="28pt" viewBox="0 0 28 28" version="1.1">
<g id="surface1">
<path style=" stroke:none;fill-rule:nonzero;fill:rgb(0%,0%,0%);fill-opacity:1;" d="M 22.160156 0.246094 C 21.5625 -0.0898438 20.859375 -0.0820312 20.277344 0.269531 C 20.25 0.289062 20.222656 0.308594 20.199219 0.328125 L 11.953125 7.304688 L 5.480469 7.304688 C 5.140625 7.304688 4.871094 7.578125 4.871094 7.914062 L 4.871094 19.476562 C 4.871094 19.640625 4.933594 19.792969 5.046875 19.90625 C 5.164062 20.023438 5.316406 20.085938 5.480469 20.085938 L 11.9375 20.082031 L 20.179688 27.65625 C 20.210938 27.683594 20.242188 27.707031 20.277344 27.726562 C 20.578125 27.910156 20.910156 28 21.242188 28 C 21.554688 28 21.871094 27.917969 22.160156 27.753906 C 22.765625 27.410156 23.128906 26.785156 23.128906 26.078125 L 23.128906 1.921875 C 23.128906 1.214844 22.765625 0.589844 22.160156 0.246094 Z M 21.914062 26.078125 C 21.914062 26.339844 21.78125 26.570312 21.558594 26.695312 C 21.464844 26.746094 21.226562 26.851562 20.953125 26.710938 L 12.78125 19.207031 L 12.78125 16.433594 C 12.78125 16.097656 12.511719 15.824219 12.175781 15.824219 C 11.835938 15.824219 11.566406 16.097656 11.566406 16.433594 L 11.566406 18.867188 L 6.085938 18.867188 L 6.085938 8.523438 L 11.566406 8.523438 L 11.566406 10.957031 C 11.566406 11.292969 11.835938 11.566406 12.175781 11.566406 C 12.511719 11.566406 12.78125 11.292969 12.78125 10.957031 L 12.78125 8.195312 L 20.941406 1.292969 C 21.222656 1.144531 21.464844 1.25 21.558594 1.304688 C 21.78125 1.429688 21.914062 1.660156 21.914062 1.921875 Z M 21.914062 26.078125 "/>
</g>
</svg>
