<?xml version="1.0" encoding="UTF-8"?>
<svg xmlns="http://www.w3.org/2000/svg" xmlns:xlink="http://www.w3.org/1999/xlink" width="28pt" height="28pt" viewBox="0 0 28 28" version="1.1">
<g id="surface1">
<path style=" stroke:none;fill-rule:nonzero;fill:rgb(0%,0%,0%);fill-opacity:1;" d="M 23.898438 4.101562 C 18.425781 -1.367188 9.574219 -1.367188 4.101562 4.101562 C -1.367188 9.574219 -1.367188 18.425781 4.101562 23.898438 C 9.574219 29.367188 18.425781 29.367188 23.898438 23.898438 C 29.367188 18.425781 29.367188 9.574219 23.898438 4.101562 Z M 14 25.699219 C 7.550781 25.699219 2.300781 20.449219 2.300781 14 C 2.300781 7.550781 7.550781 2.300781 14 2.300781 C 20.449219 2.300781 25.699219 7.550781 25.699219 14 C 25.699219 20.449219 20.449219 25.699219 14 25.699219 Z M 14 25.699219 "/>
<path style=" stroke:none;fill-rule:nonzero;fill:rgb(0%,0%,0%);fill-opacity:1;" d="M 12.746094 7.226562 L 8.960938 9.929688 L 6.992188 9.929688 C 6.359375 9.929688 5.84375 10.445312 5.84375 11.082031 L 5.84375 16.917969 C 5.84375 17.554688 6.359375 18.070312 6.992188 18.070312 L 8.960938 18.070312 L 12.746094 20.773438 C 13.507812 21.316406 14.566406 20.773438 14.566406 19.839844 L 14.566406 8.160156 C 14.566406 7.226562 13.507812 6.683594 12.746094 7.226562 Z M 12.265625 17.605469 L 9.996094 15.984375 C 9.609375 15.707031 9.355469 15.769531 8.140625 15.769531 L 8.140625 12.230469 C 9.328125 12.230469 9.605469 12.292969 9.996094 12.015625 L 12.265625 10.394531 Z M 12.265625 17.605469 "/>
<path style=" stroke:none;fill-rule:nonzero;fill:rgb(0%,0%,0%);fill-opacity:1;" d="M 15.90625 9.882812 C 15.457031 10.332031 15.457031 11.0625 15.90625 11.507812 C 17.28125 12.886719 17.28125 15.113281 15.90625 16.492188 C 15.457031 16.9375 15.457031 17.667969 15.90625 18.117188 C 16.355469 18.566406 17.082031 18.566406 17.53125 18.117188 C 19.808594 15.839844 19.808594 12.160156 17.53125 9.882812 C 17.082031 9.433594 16.355469 9.433594 15.90625 9.882812 Z M 15.90625 9.882812 "/>
</g>
</svg>
