<?xml version="1.0" encoding="UTF-8"?>
<svg xmlns="http://www.w3.org/2000/svg" xmlns:xlink="http://www.w3.org/1999/xlink" width="28pt" height="28pt" viewBox="0 0 28 28" version="1.1">
<g id="surface1">
<path style=" stroke:none;fill-rule:nonzero;fill:rgb(0%,0%,0%);fill-opacity:1;" d="M 24.664062 15.472656 L 20.511719 15.472656 C 19.90625 15.472656 19.417969 15.960938 19.417969 16.566406 C 19.417969 17.171875 19.90625 17.660156 20.511719 17.660156 L 22.027344 17.660156 L 16.777344 22.90625 C 16.351562 23.332031 16.351562 24.027344 16.777344 24.453125 C 17.207031 24.878906 17.898438 24.878906 18.324219 24.453125 L 23.574219 19.207031 L 23.574219 20.722656 C 23.574219 21.324219 24.0625 21.816406 24.667969 21.816406 C 25.269531 21.816406 25.761719 21.324219 25.761719 20.722656 L 25.761719 16.566406 C 25.761719 15.972656 25.277344 15.472656 24.664062 15.472656 Z M 24.664062 15.472656 "/>
<path style=" stroke:none;fill-rule:nonzero;fill:rgb(0%,0%,0%);fill-opacity:1;" d="M 26.90625 3.226562 L 20.453125 3.226562 C 19.847656 3.226562 19.359375 3.714844 19.359375 4.320312 L 19.359375 9.679688 L 14 9.679688 C 13.394531 9.679688 12.90625 10.167969 12.90625 10.773438 L 12.90625 16.132812 L 7.546875 16.132812 C 6.941406 16.132812 6.453125 16.621094 6.453125 17.226562 L 6.453125 22.585938 L 1.09375 22.585938 C 0.488281 22.585938 0 23.074219 0 23.679688 C 0 24.285156 0.488281 24.773438 1.09375 24.773438 L 7.546875 24.773438 C 7.835938 24.773438 8.117188 24.660156 8.320312 24.453125 C 8.527344 24.246094 8.640625 23.96875 8.640625 23.679688 L 8.640625 18.320312 L 14 18.320312 C 14.289062 18.320312 14.570312 18.207031 14.773438 18 C 14.980469 17.792969 15.09375 17.515625 15.09375 17.226562 L 15.09375 11.867188 L 20.453125 11.867188 C 20.742188 11.867188 21.019531 11.753906 21.226562 11.546875 C 21.433594 11.339844 21.546875 11.0625 21.546875 10.773438 L 21.546875 5.414062 L 26.90625 5.414062 C 27.511719 5.414062 28 4.925781 28 4.320312 C 28 3.714844 27.511719 3.226562 26.90625 3.226562 Z M 26.90625 3.226562 "/>
</g>
</svg>
