<?xml version="1.0" encoding="UTF-8"?>
<svg xmlns="http://www.w3.org/2000/svg" xmlns:xlink="http://www.w3.org/1999/xlink" width="28pt" height="28pt" viewBox="0 0 28 28" version="1.1">
<g id="surface1">
<path style=" stroke:none;fill-rule:nonzero;fill:rgb(0%,0%,0%);fill-opacity:1;" d="M 26.601562 1.867188 L 23.332031 1.867188 L 23.332031 0.464844 C 23.332031 0.207031 23.125 0 22.867188 0 L 19.601562 0 C 19.34375 0 19.132812 0.207031 19.132812 0.464844 L 19.132812 1.867188 L 8.867188 1.867188 L 8.867188 0.464844 C 8.867188 0.207031 8.65625 0 8.398438 0 L 5.132812 0 C 4.875 0 4.667969 0.207031 4.667969 0.464844 L 4.667969 1.867188 L 1.398438 1.867188 C 1.140625 1.867188 0.933594 2.074219 0.933594 2.332031 L 0.933594 27.535156 C 0.933594 27.792969 1.140625 28 1.398438 28 L 26.601562 28 C 26.859375 28 27.066406 27.792969 27.066406 27.535156 L 27.066406 2.332031 C 27.066406 2.074219 26.859375 1.867188 26.601562 1.867188 Z M 20.066406 0.933594 L 22.398438 0.933594 L 22.398438 3.734375 L 20.066406 3.734375 Z M 5.601562 0.933594 L 7.933594 0.933594 L 7.933594 3.734375 L 5.601562 3.734375 Z M 1.867188 2.800781 L 4.667969 2.800781 L 4.667969 4.199219 C 4.667969 4.457031 4.875 4.667969 5.132812 4.667969 L 8.398438 4.667969 C 8.65625 4.667969 8.867188 4.457031 8.867188 4.199219 L 8.867188 2.800781 L 19.132812 2.800781 L 19.132812 4.199219 C 19.132812 4.457031 19.34375 4.667969 19.601562 4.667969 L 22.867188 4.667969 C 23.125 4.667969 23.332031 4.457031 23.332031 4.199219 L 23.332031 2.800781 L 26.132812 2.800781 L 26.132812 7 L 1.867188 7 Z M 1.867188 27.066406 L 1.867188 7.933594 L 26.132812 7.933594 L 26.132812 27.066406 Z M 1.867188 27.066406 "/>
<path style=" stroke:none;fill-rule:nonzero;fill:rgb(0%,0%,0%);fill-opacity:1;" d="M 17.734375 10.734375 L 5.132812 10.734375 L 5.132812 24.265625 L 22.867188 24.265625 L 22.867188 10.734375 Z M 14.464844 11.667969 L 17.734375 11.667969 L 17.734375 14.933594 L 14.464844 14.933594 Z M 17.734375 19.132812 L 14.464844 19.132812 L 14.464844 15.867188 L 17.734375 15.867188 Z M 10.265625 15.867188 L 13.535156 15.867188 L 13.535156 19.132812 L 10.265625 19.132812 Z M 10.265625 11.667969 L 13.535156 11.667969 L 13.535156 14.933594 L 10.265625 14.933594 Z M 6.066406 11.667969 L 9.332031 11.667969 L 9.332031 14.933594 L 6.066406 14.933594 Z M 6.066406 15.867188 L 9.332031 15.867188 L 9.332031 19.132812 L 6.066406 19.132812 Z M 9.332031 23.332031 L 6.066406 23.332031 L 6.066406 20.066406 L 9.332031 20.066406 Z M 13.535156 23.332031 L 10.265625 23.332031 L 10.265625 20.066406 L 13.535156 20.066406 Z M 17.734375 23.332031 L 14.464844 23.332031 L 14.464844 20.066406 L 17.734375 20.066406 Z M 21.933594 23.332031 L 18.667969 23.332031 L 18.667969 20.066406 L 21.933594 20.066406 Z M 21.933594 19.132812 L 18.667969 19.132812 L 18.667969 15.867188 L 21.933594 15.867188 Z M 21.933594 11.667969 L 21.933594 14.933594 L 18.667969 14.933594 L 18.667969 11.667969 Z M 21.933594 11.667969 "/>
</g>
</svg>
