<?xml version="1.0" encoding="UTF-8"?>
<svg xmlns="http://www.w3.org/2000/svg" xmlns:xlink="http://www.w3.org/1999/xlink" width="28pt" height="28pt" viewBox="0 0 28 28" version="1.1">
<g id="surface1">
<path style=" stroke:none;fill-rule:nonzero;fill:rgb(0%,0%,0%);fill-opacity:1;" d="M 27.535156 20.535156 L 0.464844 20.535156 C 0.210938 20.535156 0 20.742188 0 21 L 0 22.867188 C 0 23.125 0.210938 23.332031 0.464844 23.332031 L 27.535156 23.332031 C 27.792969 23.332031 28 23.125 28 22.867188 L 28 21 C 28 20.742188 27.792969 20.535156 27.535156 20.535156 Z M 27.066406 22.398438 L 0.933594 22.398438 L 0.933594 21.464844 L 27.066406 21.464844 Z M 27.066406 22.398438 "/>
<path style=" stroke:none;fill-rule:nonzero;fill:rgb(0%,0%,0%);fill-opacity:1;" d="M 2.332031 22.398438 L 0.464844 22.398438 C 0.210938 22.398438 0 22.609375 0 22.867188 L 0 27.535156 C 0 27.792969 0.210938 28 0.464844 28 L 2.332031 28 C 2.589844 28 2.800781 27.792969 2.800781 27.535156 L 2.800781 22.867188 C 2.800781 22.609375 2.589844 22.398438 2.332031 22.398438 Z M 1.867188 27.066406 L 0.933594 27.066406 L 0.933594 23.332031 L 1.867188 23.332031 Z M 1.867188 27.066406 "/>
<path style=" stroke:none;fill-rule:nonzero;fill:rgb(0%,0%,0%);fill-opacity:1;" d="M 27.535156 22.398438 L 25.667969 22.398438 C 25.410156 22.398438 25.199219 22.609375 25.199219 22.867188 L 25.199219 27.535156 C 25.199219 27.792969 25.410156 28 25.667969 28 L 27.535156 28 C 27.792969 28 28 27.792969 28 27.535156 L 28 22.867188 C 28 22.609375 27.792969 22.398438 27.535156 22.398438 Z M 27.066406 27.066406 L 26.132812 27.066406 L 26.132812 23.332031 L 27.066406 23.332031 Z M 27.066406 27.066406 "/>
<path style=" stroke:none;fill-rule:nonzero;fill:rgb(0%,0%,0%);fill-opacity:1;" d="M 25.996094 15.070312 L 24.597656 13.667969 C 24.417969 13.492188 24.128906 13.488281 23.949219 13.660156 L 16.480469 20.660156 C 16.339844 20.789062 16.296875 20.992188 16.367188 21.171875 C 16.4375 21.347656 16.609375 21.464844 16.800781 21.464844 L 19.601562 21.464844 C 19.71875 21.464844 19.828125 21.421875 19.917969 21.34375 L 25.984375 15.742188 C 26.078125 15.65625 26.128906 15.535156 26.132812 15.410156 C 26.136719 15.28125 26.085938 15.160156 25.996094 15.070312 Z M 19.417969 20.535156 L 17.980469 20.535156 L 24.257812 14.648438 L 24.992188 15.386719 Z M 19.417969 20.535156 "/>
<path style=" stroke:none;fill-rule:nonzero;fill:rgb(0%,0%,0%);fill-opacity:1;" d="M 23.839844 16.992188 L 24.691406 16.609375 L 26.558594 20.8125 L 25.707031 21.191406 Z M 23.839844 16.992188 "/>
<path style=" stroke:none;fill-rule:nonzero;fill:rgb(0%,0%,0%);fill-opacity:1;" d="M 7.933594 0 C 3.558594 0 0 3.558594 0 7.933594 L 0 8.867188 C 0 9.054688 0.113281 9.226562 0.289062 9.296875 C 0.460938 9.371094 0.664062 9.332031 0.796875 9.195312 C 1.644531 8.351562 3.023438 8.351562 3.871094 9.195312 C 4.050781 9.378906 4.347656 9.378906 4.53125 9.195312 C 5.378906 8.351562 6.757812 8.351562 7.605469 9.195312 C 7.785156 9.378906 8.082031 9.378906 8.261719 9.195312 C 9.109375 8.351562 10.488281 8.351562 11.335938 9.195312 C 11.519531 9.378906 11.816406 9.378906 11.996094 9.195312 C 12.84375 8.351562 14.222656 8.351562 15.070312 9.195312 C 15.160156 9.285156 15.277344 9.332031 15.398438 9.332031 C 15.460938 9.332031 15.519531 9.320312 15.578125 9.296875 C 15.753906 9.226562 15.867188 9.054688 15.867188 8.867188 L 15.867188 7.933594 C 15.867188 3.558594 12.308594 0 7.933594 0 Z M 14.933594 7.960938 C 13.894531 7.4375 12.621094 7.535156 11.667969 8.25 C 11.117188 7.835938 10.457031 7.628906 9.800781 7.628906 C 9.140625 7.628906 8.484375 7.835938 7.933594 8.25 C 6.832031 7.421875 5.300781 7.421875 4.199219 8.25 C 3.246094 7.535156 1.972656 7.4375 0.933594 7.960938 L 0.933594 7.933594 C 0.933594 4.074219 4.074219 0.933594 7.933594 0.933594 C 11.792969 0.933594 14.933594 4.074219 14.933594 7.933594 Z M 14.933594 7.960938 "/>
<path style=" stroke:none;fill-rule:nonzero;fill:rgb(0%,0%,0%);fill-opacity:1;" d="M 22.867188 2.332031 C 21.324219 2.332031 20.066406 3.589844 20.066406 5.132812 C 20.066406 6.675781 21.324219 7.933594 22.867188 7.933594 C 24.410156 7.933594 25.667969 6.675781 25.667969 5.132812 C 25.667969 3.589844 24.410156 2.332031 22.867188 2.332031 Z M 22.867188 7 C 21.835938 7 21 6.164062 21 5.132812 C 21 4.105469 21.835938 3.265625 22.867188 3.265625 C 23.894531 3.265625 24.734375 4.105469 24.734375 5.132812 C 24.734375 6.164062 23.894531 7 22.867188 7 Z M 22.867188 7 "/>
<path style=" stroke:none;fill-rule:nonzero;fill:rgb(0%,0%,0%);fill-opacity:1;" d="M 22.398438 0 L 23.332031 0 L 23.332031 1.398438 L 22.398438 1.398438 Z M 22.398438 0 "/>
<path style=" stroke:none;fill-rule:nonzero;fill:rgb(0%,0%,0%);fill-opacity:1;" d="M 26.601562 4.667969 L 28 4.667969 L 28 5.601562 L 26.601562 5.601562 Z M 26.601562 4.667969 "/>
<path style=" stroke:none;fill-rule:nonzero;fill:rgb(0%,0%,0%);fill-opacity:1;" d="M 17.734375 4.667969 L 19.132812 4.667969 L 19.132812 5.601562 L 17.734375 5.601562 Z M 17.734375 4.667969 "/>
<path style=" stroke:none;fill-rule:nonzero;fill:rgb(0%,0%,0%);fill-opacity:1;" d="M 25.175781 2.164062 L 26.167969 1.171875 L 26.828125 1.832031 L 25.835938 2.824219 Z M 25.175781 2.164062 "/>
<path style=" stroke:none;fill-rule:nonzero;fill:rgb(0%,0%,0%);fill-opacity:1;" d="M 18.90625 8.4375 L 19.894531 7.445312 L 20.554688 8.105469 L 19.566406 9.097656 Z M 18.90625 8.4375 "/>
<path style=" stroke:none;fill-rule:nonzero;fill:rgb(0%,0%,0%);fill-opacity:1;" d="M 25.175781 8.105469 L 25.835938 7.445312 L 26.828125 8.433594 L 26.167969 9.09375 Z M 25.175781 8.105469 "/>
<path style=" stroke:none;fill-rule:nonzero;fill:rgb(0%,0%,0%);fill-opacity:1;" d="M 18.90625 1.832031 L 19.566406 1.171875 L 20.554688 2.160156 L 19.894531 2.820312 Z M 18.90625 1.832031 "/>
<path style=" stroke:none;fill-rule:nonzero;fill:rgb(0%,0%,0%);fill-opacity:1;" d="M 22.398438 8.867188 L 23.332031 8.867188 L 23.332031 10.265625 L 22.398438 10.265625 Z M 22.398438 8.867188 "/>
<path style=" stroke:none;fill-rule:nonzero;fill:rgb(0%,0%,0%);fill-opacity:1;" d="M 7.464844 8.867188 L 8.398438 8.867188 L 8.398438 21 L 7.464844 21 Z M 7.464844 8.867188 "/>
<path style=" stroke:none;fill-rule:nonzero;fill:rgb(0%,0%,0%);fill-opacity:1;" d="M 7.464844 22.867188 L 8.398438 22.867188 L 8.398438 28 L 7.464844 28 Z M 7.464844 22.867188 "/>
</g>
</svg>
