<?xml version="1.0" encoding="UTF-8"?>
<svg xmlns="http://www.w3.org/2000/svg" xmlns:xlink="http://www.w3.org/1999/xlink" width="28pt" height="28pt" viewBox="0 0 28 28" version="1.1">
<g id="surface1">
<path style=" stroke:none;fill-rule:nonzero;fill:rgb(0%,0%,0%);fill-opacity:1;" d="M 5.464844 1.546875 C 3.707031 1.546875 2.273438 2.976562 2.273438 4.734375 C 2.273438 6.492188 3.707031 7.921875 5.464844 7.921875 C 7.222656 7.921875 8.652344 6.492188 8.652344 4.734375 C 8.652344 2.976562 7.222656 1.546875 5.464844 1.546875 Z M 5.464844 7.066406 C 4.179688 7.066406 3.132812 6.019531 3.132812 4.734375 C 3.132812 3.449219 4.179688 2.40625 5.464844 2.40625 C 6.75 2.40625 7.796875 3.449219 7.796875 4.734375 C 7.796875 6.019531 6.75 7.066406 5.464844 7.066406 Z M 5.464844 7.066406 "/>
<path style=" stroke:none;fill-rule:nonzero;fill:rgb(0%,0%,0%);fill-opacity:1;" d="M 7.546875 24.601562 C 7.546875 24.839844 7.351562 25.03125 7.117188 25.03125 C 6.878906 25.03125 6.6875 24.839844 6.6875 24.601562 C 6.6875 24.367188 6.878906 24.175781 7.117188 24.175781 C 7.351562 24.175781 7.546875 24.367188 7.546875 24.601562 Z M 7.546875 24.601562 "/>
<path style=" stroke:none;fill-rule:nonzero;fill:rgb(0%,0%,0%);fill-opacity:1;" d="M 10.832031 24.601562 C 10.832031 24.839844 10.640625 25.03125 10.402344 25.03125 C 10.167969 25.03125 9.976562 24.839844 9.976562 24.601562 C 9.976562 24.367188 10.167969 24.175781 10.402344 24.175781 C 10.640625 24.175781 10.832031 24.367188 10.832031 24.601562 Z M 10.832031 24.601562 "/>
<path style=" stroke:none;fill-rule:nonzero;fill:rgb(0%,0%,0%);fill-opacity:1;" d="M 14.003906 24.601562 C 14.003906 24.839844 13.8125 25.03125 13.574219 25.03125 C 13.339844 25.03125 13.148438 24.839844 13.148438 24.601562 C 13.148438 24.367188 13.339844 24.175781 13.574219 24.175781 C 13.8125 24.175781 14.003906 24.367188 14.003906 24.601562 Z M 14.003906 24.601562 "/>
<path style=" stroke:none;fill-rule:nonzero;fill:rgb(0%,0%,0%);fill-opacity:1;" d="M 21.664062 24.917969 C 21.664062 25.15625 21.472656 25.347656 21.234375 25.347656 C 21 25.347656 20.804688 25.15625 20.804688 24.917969 C 20.804688 24.679688 21 24.488281 21.234375 24.488281 C 21.472656 24.488281 21.664062 24.679688 21.664062 24.917969 Z M 21.664062 24.917969 "/>
<path style=" stroke:none;fill-rule:nonzero;fill:rgb(0%,0%,0%);fill-opacity:1;" d="M 19.800781 13.34375 C 19.902344 13.597656 20.144531 13.761719 20.417969 13.761719 C 20.6875 13.761719 20.929688 13.597656 21.035156 13.34375 C 21.242188 12.832031 21.738281 12.5 22.296875 12.5 C 22.851562 12.5 23.347656 12.832031 23.558594 13.34375 C 23.660156 13.597656 23.902344 13.761719 24.175781 13.761719 C 24.445312 13.761719 24.6875 13.597656 24.792969 13.34375 C 25 12.832031 25.496094 12.5 26.054688 12.5 C 26.367188 12.5 26.671875 12.609375 26.914062 12.804688 C 27.03125 12.902344 27.179688 12.953125 27.332031 12.953125 C 27.445312 12.953125 27.558594 12.925781 27.65625 12.871094 C 27.894531 12.742188 28.027344 12.480469 27.996094 12.210938 C 27.453125 7.554688 23.609375 4.011719 18.964844 3.804688 L 18.964844 3.46875 C 18.964844 3.230469 18.773438 3.039062 18.539062 3.039062 C 18.300781 3.039062 18.109375 3.230469 18.109375 3.46875 L 18.109375 3.804688 C 13.464844 4.011719 9.621094 7.554688 9.078125 12.210938 C 9.046875 12.480469 9.183594 12.742188 9.421875 12.871094 C 9.519531 12.925781 9.628906 12.953125 9.742188 12.953125 C 9.894531 12.953125 10.042969 12.902344 10.160156 12.804688 C 10.402344 12.609375 10.707031 12.5 11.023438 12.5 C 11.578125 12.5 12.074219 12.832031 12.285156 13.34375 C 12.386719 13.597656 12.628906 13.761719 12.902344 13.761719 C 13.171875 13.761719 13.414062 13.597656 13.519531 13.34375 C 13.726562 12.832031 14.222656 12.5 14.78125 12.5 C 15.335938 12.5 15.832031 12.832031 16.042969 13.34375 C 16.144531 13.597656 16.386719 13.761719 16.660156 13.761719 C 16.929688 13.761719 17.171875 13.597656 17.277344 13.34375 C 17.429688 12.96875 17.734375 12.691406 18.109375 12.570312 L 18.109375 18.203125 L 18.023438 18.203125 C 17.628906 18.203125 17.308594 18.523438 17.308594 18.914062 L 17.308594 23.824219 C 16.695312 23.53125 16.050781 23.277344 15.386719 23.074219 L 15.386719 21.953125 L 15.910156 21.953125 C 16.304688 21.953125 16.625 21.632812 16.625 21.238281 L 16.625 20.058594 C 16.625 19.664062 16.304688 19.34375 15.910156 19.34375 L 14.800781 19.34375 C 14.5625 19.34375 14.371094 19.535156 14.371094 19.769531 C 14.371094 20.007812 14.5625 20.199219 14.800781 20.199219 L 15.765625 20.199219 L 15.765625 21.09375 L 4.996094 21.097656 C 4.96875 21.09375 4.90625 21.0625 4.890625 21.042969 L 2.199219 17.269531 L 2.925781 16.75 L 5.09375 19.789062 C 5.265625 20.027344 5.601562 20.199219 5.894531 20.199219 L 13.199219 20.199219 C 13.4375 20.199219 13.628906 20.007812 13.628906 19.769531 C 13.628906 19.535156 13.4375 19.34375 13.199219 19.34375 L 6.28125 19.34375 C 6.582031 19 6.621094 18.484375 6.347656 18.097656 L 5.109375 16.363281 C 4.921875 16.101562 4.617188 15.945312 4.292969 15.945312 C 4.082031 15.945312 3.882812 16.011719 3.714844 16.132812 L 3.597656 16.214844 L 3.542969 16.136719 C 3.429688 15.980469 3.265625 15.878906 3.078125 15.847656 C 2.890625 15.816406 2.699219 15.859375 2.546875 15.96875 L 1.585938 16.65625 C 1.265625 16.886719 1.191406 17.332031 1.417969 17.652344 L 4.195312 21.539062 C 4.363281 21.78125 4.699219 21.953125 4.992188 21.953125 L 5.085938 21.953125 L 5.085938 23.703125 C 3.992188 24.203125 2.988281 24.835938 2.117188 25.59375 L 0.429688 25.59375 C 0.191406 25.59375 0 25.785156 0 26.023438 C 0 26.261719 0.191406 26.453125 0.429688 26.453125 L 8.171875 26.453125 C 8.40625 26.453125 8.601562 26.261719 8.601562 26.023438 C 8.601562 25.785156 8.40625 25.59375 8.171875 25.59375 L 3.5 25.59375 C 3.960938 25.269531 4.449219 24.976562 4.960938 24.714844 C 5.007812 24.898438 5.175781 25.03125 5.371094 25.03125 C 5.609375 25.03125 5.800781 24.839844 5.800781 24.601562 C 5.800781 24.511719 5.773438 24.429688 5.722656 24.359375 C 6.511719 24.023438 7.339844 23.761719 8.203125 23.582031 C 8.207031 23.816406 8.398438 24.003906 8.632812 24.003906 C 8.867188 24.003906 9.058594 23.8125 9.058594 23.574219 C 9.058594 23.527344 9.050781 23.476562 9.035156 23.433594 C 9.632812 23.347656 10.242188 23.296875 10.855469 23.289062 C 10.789062 23.363281 10.746094 23.464844 10.746094 23.574219 C 10.746094 23.8125 10.9375 24.003906 11.175781 24.003906 C 11.410156 24.003906 11.605469 23.8125 11.605469 23.574219 C 11.605469 23.46875 11.5625 23.367188 11.5 23.292969 C 12.300781 23.316406 13.09375 23.410156 13.863281 23.566406 C 13.863281 23.570312 13.863281 23.570312 13.863281 23.574219 C 13.863281 23.8125 14.054688 24.003906 14.289062 24.003906 C 14.460938 24.003906 14.605469 23.902344 14.675781 23.761719 C 15.132812 23.882812 15.578125 24.027344 16.011719 24.195312 C 15.953125 24.269531 15.917969 24.359375 15.917969 24.460938 C 15.917969 24.699219 16.109375 24.890625 16.347656 24.890625 C 16.566406 24.890625 16.742188 24.726562 16.773438 24.519531 C 17.433594 24.824219 18.058594 25.183594 18.636719 25.59375 L 9.769531 25.59375 C 9.535156 25.59375 9.34375 25.785156 9.34375 26.023438 C 9.34375 26.261719 9.535156 26.453125 9.769531 26.453125 L 27.230469 26.453125 C 27.464844 26.453125 27.660156 26.261719 27.660156 26.023438 C 27.660156 25.785156 27.464844 25.59375 27.230469 25.59375 L 25.488281 25.59375 C 24.199219 24.050781 22.402344 23.171875 20.535156 23.171875 C 20.277344 23.171875 20.019531 23.1875 19.765625 23.21875 L 19.765625 22.515625 C 19.765625 22.277344 19.574219 22.085938 19.335938 22.085938 C 19.101562 22.085938 18.910156 22.277344 18.910156 22.515625 L 18.910156 23.394531 C 18.65625 23.464844 18.410156 23.550781 18.164062 23.65625 L 18.164062 19.058594 L 18.910156 19.058594 L 18.910156 20.972656 C 18.910156 21.207031 19.101562 21.398438 19.335938 21.398438 C 19.574219 21.398438 19.765625 21.207031 19.765625 20.972656 L 19.765625 18.914062 C 19.765625 18.523438 19.445312 18.203125 19.050781 18.203125 L 18.964844 18.203125 L 18.964844 12.570312 C 19.339844 12.691406 19.644531 12.96875 19.800781 13.34375 Z M 4.210938 16.828125 C 4.242188 16.808594 4.273438 16.804688 4.292969 16.804688 C 4.339844 16.804688 4.382812 16.824219 4.410156 16.863281 L 5.648438 18.597656 C 5.691406 18.660156 5.679688 18.75 5.613281 18.796875 L 5.5 18.878906 L 4.09375 16.910156 Z M 6.648438 23.105469 C 6.410156 23.179688 6.175781 23.261719 5.941406 23.347656 L 5.941406 21.953125 L 6.648438 21.953125 Z M 12.964844 22.550781 C 12.34375 22.46875 11.707031 22.429688 11.066406 22.429688 C 9.851562 22.429688 8.652344 22.578125 7.503906 22.863281 L 7.503906 21.953125 L 12.964844 21.953125 Z M 14.527344 22.839844 C 14.296875 22.78125 14.0625 22.730469 13.824219 22.6875 L 13.824219 21.953125 L 14.527344 21.953125 Z M 19.390625 24.15625 C 19.382812 24.191406 19.378906 24.222656 19.378906 24.261719 C 19.378906 24.496094 19.570312 24.6875 19.804688 24.6875 C 20.042969 24.6875 20.234375 24.496094 20.234375 24.261719 C 20.234375 24.179688 20.210938 24.105469 20.171875 24.039062 C 20.292969 24.03125 20.414062 24.027344 20.535156 24.027344 C 21.144531 24.027344 21.746094 24.136719 22.320312 24.347656 C 22.265625 24.417969 22.234375 24.507812 22.234375 24.601562 C 22.234375 24.839844 22.425781 25.03125 22.664062 25.03125 C 22.871094 25.03125 23.039062 24.886719 23.082031 24.695312 C 23.519531 24.933594 23.933594 25.238281 24.3125 25.59375 L 20.019531 25.59375 C 19.539062 25.179688 19.019531 24.796875 18.464844 24.457031 C 18.765625 24.328125 19.074219 24.226562 19.390625 24.15625 Z M 22.996094 9.339844 C 23.070312 9.5625 23.316406 9.683594 23.539062 9.605469 C 23.761719 9.53125 23.882812 9.285156 23.808594 9.0625 C 23.242188 7.398438 22.449219 6.078125 21.523438 5.183594 C 24.390625 6.234375 26.570312 8.761719 27.085938 11.898438 C 26.769531 11.734375 26.414062 11.644531 26.054688 11.644531 C 25.46875 11.644531 24.929688 11.867188 24.527344 12.25 C 24.453125 11.683594 24.359375 11.128906 24.234375 10.589844 C 24.183594 10.359375 23.953125 10.214844 23.722656 10.269531 C 23.492188 10.320312 23.347656 10.550781 23.398438 10.78125 C 23.496094 11.207031 23.578125 11.648438 23.640625 12.09375 C 23.261719 11.808594 22.792969 11.644531 22.296875 11.644531 C 21.671875 11.644531 21.09375 11.902344 20.683594 12.332031 C 20.632812 10.113281 20.425781 7.929688 20.105469 6.433594 C 19.976562 5.835938 19.835938 5.34375 19.683594 4.957031 C 21.023438 5.535156 22.234375 7.105469 22.996094 9.339844 Z M 12.550781 12.25 C 12.144531 11.867188 11.605469 11.644531 11.023438 11.644531 C 10.660156 11.644531 10.304688 11.734375 9.988281 11.898438 C 10.507812 8.757812 12.691406 6.226562 15.566406 5.175781 C 15.144531 5.582031 14.753906 6.070312 14.394531 6.640625 C 13.464844 8.128906 12.820312 10.09375 12.550781 12.25 Z M 16.96875 6.433594 C 16.648438 7.941406 16.441406 10.007812 16.394531 12.25 C 16.390625 12.28125 16.394531 12.3125 16.402344 12.34375 C 15.992188 11.90625 15.410156 11.644531 14.78125 11.644531 C 14.28125 11.644531 13.8125 11.808594 13.433594 12.09375 C 13.707031 10.164062 14.292969 8.421875 15.121094 7.097656 C 15.785156 6.035156 16.566406 5.304688 17.394531 4.953125 C 17.238281 5.34375 17.097656 5.835938 16.96875 6.433594 Z M 18.539062 11.644531 C 18.066406 11.644531 17.621094 11.792969 17.253906 12.050781 C 17.308594 10.074219 17.484375 8.238281 17.757812 6.855469 C 18.03125 5.464844 18.332031 4.890625 18.492188 4.710938 C 18.507812 4.710938 18.523438 4.710938 18.539062 4.710938 C 18.554688 4.710938 18.570312 4.710938 18.585938 4.710938 C 18.742188 4.890625 19.042969 5.464844 19.316406 6.855469 C 19.589844 8.238281 19.765625 10.074219 19.820312 12.050781 C 19.453125 11.792969 19.007812 11.644531 18.539062 11.644531 Z M 18.539062 11.644531 "/>
</g>
</svg>
