<?xml version="1.0" encoding="UTF-8"?>
<svg xmlns="http://www.w3.org/2000/svg" xmlns:xlink="http://www.w3.org/1999/xlink" width="28pt" height="28pt" viewBox="0 0 28 28" version="1.1">
<g id="surface1">
<path style=" stroke:none;fill-rule:nonzero;fill:rgb(0%,0%,0%);fill-opacity:1;" d="M 23.898438 4.101562 C 21.253906 1.457031 17.738281 0 14 0 C 10.261719 0 6.746094 1.457031 4.101562 4.101562 C 1.457031 6.746094 0 10.261719 0 14 C 0 17.738281 1.457031 21.253906 4.101562 23.898438 C 6.746094 26.542969 10.261719 28 14 28 C 17.738281 28 21.253906 26.542969 23.898438 23.898438 C 26.542969 21.253906 28 17.738281 28 14 C 28 10.261719 26.542969 6.746094 23.898438 4.101562 Z M 14 27.105469 C 6.773438 27.105469 0.894531 21.226562 0.894531 14 C 0.894531 6.773438 6.773438 0.894531 14 0.894531 C 21.226562 0.894531 27.105469 6.773438 27.105469 14 C 27.105469 21.226562 21.226562 27.105469 14 27.105469 Z M 14 27.105469 "/>
<path style=" stroke:none;fill-rule:nonzero;fill:rgb(0%,0%,0%);fill-opacity:1;" d="M 26.023438 15.082031 C 25.941406 14.988281 25.824219 14.933594 25.699219 14.929688 C 24.945312 14.902344 24.25 14.476562 23.789062 13.757812 C 23.707031 13.632812 23.566406 13.554688 23.414062 13.554688 C 23.261719 13.554688 23.121094 13.632812 23.039062 13.757812 C 22.714844 14.265625 22.277344 14.625 21.785156 14.804688 C 20.816406 12.328125 17.933594 9.890625 14.386719 9.699219 L 14.386719 4.78125 C 15.226562 4.984375 15.851562 5.738281 15.851562 6.636719 C 15.851562 6.886719 16.050781 7.085938 16.296875 7.085938 C 16.542969 7.085938 16.746094 6.886719 16.746094 6.636719 C 16.746094 5.652344 16.230469 4.785156 15.460938 4.285156 C 16.003906 4.320312 16.527344 4.589844 16.871094 5.066406 C 16.960938 5.183594 17.09375 5.25 17.234375 5.25 C 17.324219 5.25 17.417969 5.222656 17.496094 5.164062 C 17.695312 5.019531 17.738281 4.738281 17.59375 4.539062 C 17.015625 3.742188 16.089844 3.339844 15.171875 3.390625 C 15.632812 3.101562 16.214844 3.011719 16.773438 3.191406 C 17.007812 3.269531 17.257812 3.140625 17.335938 2.90625 C 17.414062 2.671875 17.285156 2.417969 17.050781 2.34375 C 15.882812 1.960938 14.640625 2.394531 13.941406 3.324219 C 13.238281 2.394531 12 1.964844 10.832031 2.34375 C 10.597656 2.417969 10.46875 2.671875 10.546875 2.90625 C 10.621094 3.140625 10.875 3.269531 11.109375 3.191406 C 11.664062 3.011719 12.246094 3.101562 12.707031 3.390625 C 11.789062 3.339844 10.867188 3.742188 10.285156 4.539062 C 10.140625 4.738281 10.183594 5.019531 10.386719 5.164062 C 10.585938 5.308594 10.863281 5.265625 11.007812 5.066406 C 11.355469 4.589844 11.878906 4.320312 12.421875 4.285156 C 11.648438 4.785156 11.136719 5.652344 11.136719 6.636719 C 11.136719 6.886719 11.335938 7.085938 11.582031 7.085938 C 11.828125 7.085938 12.03125 6.886719 12.03125 6.636719 C 12.03125 5.738281 12.65625 4.984375 13.492188 4.78125 L 13.492188 9.699219 C 13.101562 9.722656 12.710938 9.769531 12.324219 9.847656 C 12.082031 9.894531 11.925781 10.128906 11.972656 10.371094 C 12.019531 10.613281 12.257812 10.773438 12.496094 10.722656 C 12.976562 10.628906 13.460938 10.582031 13.941406 10.582031 C 17.203125 10.582031 19.898438 12.703125 20.867188 14.921875 C 20.160156 14.855469 19.519531 14.441406 19.082031 13.757812 C 19 13.632812 18.859375 13.554688 18.707031 13.554688 C 18.554688 13.554688 18.414062 13.632812 18.332031 13.757812 C 17.855469 14.503906 17.132812 14.929688 16.355469 14.929688 C 15.574219 14.929688 14.851562 14.503906 14.378906 13.757812 C 14.296875 13.632812 14.152344 13.554688 14 13.554688 C 13.847656 13.554688 13.707031 13.632812 13.625 13.757812 C 13.148438 14.503906 12.429688 14.929688 11.648438 14.929688 C 10.867188 14.929688 10.148438 14.503906 9.671875 13.757812 C 9.589844 13.632812 9.445312 13.554688 9.292969 13.554688 C 9.140625 13.554688 9 13.632812 8.917969 13.757812 C 8.457031 14.480469 7.765625 14.902344 7.011719 14.929688 C 7.675781 13.414062 9.140625 12 10.886719 11.234375 C 11.113281 11.132812 11.214844 10.871094 11.117188 10.644531 C 11.015625 10.417969 10.753906 10.316406 10.527344 10.414062 C 8.480469 11.316406 6.828125 12.953125 6.113281 14.761719 C 5.664062 14.574219 5.265625 14.230469 4.964844 13.757812 C 4.882812 13.632812 4.738281 13.554688 4.585938 13.554688 C 4.433594 13.554688 4.292969 13.632812 4.210938 13.757812 C 3.753906 14.476562 3.054688 14.902344 2.300781 14.929688 C 2.175781 14.933594 2.058594 14.988281 1.976562 15.082031 C 1.894531 15.175781 1.855469 15.300781 1.871094 15.425781 C 2.214844 18.375 3.632812 21.097656 5.855469 23.09375 C 8.101562 25.105469 10.992188 26.210938 14 26.210938 C 16.695312 26.210938 19.253906 25.347656 21.394531 23.710938 C 21.59375 23.5625 21.628906 23.28125 21.480469 23.085938 C 21.332031 22.890625 21.050781 22.851562 20.855469 23 C 18.867188 24.519531 16.496094 25.320312 14 25.320312 C 8.40625 25.320312 3.675781 21.242188 2.820312 15.765625 C 3.488281 15.632812 4.105469 15.277344 4.589844 14.734375 C 5.03125 15.222656 5.578125 15.5625 6.175781 15.722656 C 6.199219 15.734375 6.226562 15.746094 6.253906 15.753906 C 6.300781 15.769531 6.34375 15.773438 6.386719 15.773438 C 6.394531 15.773438 6.398438 15.773438 6.40625 15.773438 C 6.582031 15.804688 6.761719 15.824219 6.941406 15.824219 C 7.824219 15.824219 8.667969 15.425781 9.292969 14.734375 C 9.917969 15.425781 10.765625 15.824219 11.648438 15.824219 C 12.53125 15.824219 13.375 15.425781 14 14.734375 C 14.625 15.425781 15.472656 15.824219 16.355469 15.824219 C 17.234375 15.824219 18.082031 15.425781 18.707031 14.734375 C 19.332031 15.425781 20.175781 15.824219 21.058594 15.824219 C 21.941406 15.824219 22.789062 15.425781 23.414062 14.734375 C 23.898438 15.277344 24.511719 15.632812 25.179688 15.765625 C 24.820312 18.039062 23.75 20.1875 22.136719 21.859375 C 21.96875 22.035156 21.972656 22.316406 22.148438 22.488281 C 22.328125 22.660156 22.609375 22.65625 22.78125 22.480469 C 24.632812 20.5625 25.820312 18.054688 26.128906 15.425781 C 26.144531 15.300781 26.105469 15.175781 26.023438 15.082031 Z M 26.023438 15.082031 "/>
<path style=" stroke:none;fill-rule:nonzero;fill:rgb(0%,0%,0%);fill-opacity:1;" d="M 10.15625 18.503906 C 9.910156 18.503906 9.710938 18.703125 9.710938 18.953125 C 9.710938 19.199219 9.910156 19.398438 10.15625 19.398438 L 10.753906 19.398438 C 11 19.398438 11.199219 19.199219 11.199219 18.953125 C 11.199219 18.703125 11 18.503906 10.753906 18.503906 Z M 10.15625 18.503906 "/>
<path style=" stroke:none;fill-rule:nonzero;fill:rgb(0%,0%,0%);fill-opacity:1;" d="M 6.644531 16.71875 C 6.394531 16.71875 6.195312 16.917969 6.195312 17.164062 C 6.195312 17.410156 6.394531 17.609375 6.644531 17.609375 L 7.238281 17.609375 C 7.484375 17.609375 7.6875 17.410156 7.6875 17.164062 C 7.6875 16.917969 7.484375 16.71875 7.238281 16.71875 Z M 6.644531 16.71875 "/>
<path style=" stroke:none;fill-rule:nonzero;fill:rgb(0%,0%,0%);fill-opacity:1;" d="M 21.355469 16.71875 L 20.761719 16.71875 C 20.515625 16.71875 20.316406 16.917969 20.316406 17.164062 C 20.316406 17.410156 20.515625 17.609375 20.761719 17.609375 L 21.355469 17.609375 C 21.605469 17.609375 21.804688 17.410156 21.804688 17.164062 C 21.804688 16.917969 21.605469 16.71875 21.355469 16.71875 Z M 21.355469 16.71875 "/>
</g>
</svg>
