<?xml version="1.0" encoding="UTF-8"?>
<svg xmlns="http://www.w3.org/2000/svg" xmlns:xlink="http://www.w3.org/1999/xlink" width="28pt" height="28pt" viewBox="0 0 28 28" version="1.1">
<g id="surface1">
<path style=" stroke:none;fill-rule:nonzero;fill:rgb(0%,0%,0%);fill-opacity:1;" d="M 4.683594 3.679688 C 3.21875 3.679688 2.03125 4.867188 2.03125 6.332031 C 2.03125 7.792969 3.21875 8.984375 4.683594 8.984375 C 6.144531 8.984375 7.335938 7.792969 7.335938 6.332031 C 7.335938 4.867188 6.144531 3.679688 4.683594 3.679688 Z M 4.683594 8.160156 C 3.675781 8.160156 2.851562 7.339844 2.851562 6.332031 C 2.851562 5.320312 3.675781 4.5 4.683594 4.5 C 5.691406 4.5 6.515625 5.320312 6.515625 6.332031 C 6.515625 7.339844 5.691406 8.160156 4.683594 8.160156 Z M 4.683594 8.160156 "/>
<path style=" stroke:none;fill-rule:nonzero;fill:rgb(0%,0%,0%);fill-opacity:1;" d="M 4.683594 1.648438 C 4.457031 1.648438 4.273438 1.832031 4.273438 2.058594 L 4.273438 2.886719 C 4.273438 3.113281 4.457031 3.300781 4.683594 3.300781 C 4.910156 3.300781 5.09375 3.113281 5.09375 2.886719 L 5.09375 2.058594 C 5.09375 1.832031 4.910156 1.648438 4.683594 1.648438 Z M 4.683594 1.648438 "/>
<path style=" stroke:none;fill-rule:nonzero;fill:rgb(0%,0%,0%);fill-opacity:1;" d="M 7.996094 3.019531 C 7.835938 2.859375 7.574219 2.859375 7.414062 3.019531 L 6.828125 3.605469 C 6.667969 3.765625 6.667969 4.027344 6.828125 4.1875 C 6.90625 4.265625 7.011719 4.308594 7.117188 4.308594 C 7.222656 4.308594 7.328125 4.265625 7.410156 4.1875 L 7.996094 3.601562 C 8.15625 3.441406 8.15625 3.179688 7.996094 3.019531 Z M 7.996094 3.019531 "/>
<path style=" stroke:none;fill-rule:nonzero;fill:rgb(0%,0%,0%);fill-opacity:1;" d="M 8.953125 5.917969 L 8.128906 5.917969 C 7.898438 5.917969 7.714844 6.105469 7.714844 6.332031 C 7.714844 6.558594 7.898438 6.742188 8.128906 6.742188 L 8.953125 6.742188 C 9.183594 6.742188 9.367188 6.558594 9.367188 6.332031 C 9.367188 6.105469 9.183594 5.917969 8.953125 5.917969 Z M 8.953125 5.917969 "/>
<path style=" stroke:none;fill-rule:nonzero;fill:rgb(0%,0%,0%);fill-opacity:1;" d="M 7.996094 9.0625 L 7.410156 8.476562 C 7.25 8.316406 6.988281 8.316406 6.828125 8.476562 C 6.667969 8.636719 6.667969 8.898438 6.828125 9.058594 L 7.414062 9.644531 C 7.492188 9.722656 7.597656 9.761719 7.703125 9.761719 C 7.808594 9.761719 7.914062 9.722656 7.996094 9.644531 C 8.15625 9.480469 8.15625 9.222656 7.996094 9.0625 Z M 7.996094 9.0625 "/>
<path style=" stroke:none;fill-rule:nonzero;fill:rgb(0%,0%,0%);fill-opacity:1;" d="M 4.683594 9.363281 C 4.457031 9.363281 4.273438 9.546875 4.273438 9.773438 L 4.273438 10.601562 C 4.273438 10.832031 4.457031 11.015625 4.683594 11.015625 C 4.910156 11.015625 5.09375 10.832031 5.09375 10.601562 L 5.09375 9.773438 C 5.09375 9.546875 4.910156 9.363281 4.683594 9.363281 Z M 4.683594 9.363281 "/>
<path style=" stroke:none;fill-rule:nonzero;fill:rgb(0%,0%,0%);fill-opacity:1;" d="M 2.539062 8.476562 C 2.378906 8.316406 2.117188 8.316406 1.957031 8.476562 L 1.371094 9.0625 C 1.210938 9.222656 1.210938 9.480469 1.371094 9.644531 C 1.453125 9.722656 1.558594 9.761719 1.664062 9.761719 C 1.769531 9.761719 1.875 9.722656 1.953125 9.644531 L 2.539062 9.058594 C 2.699219 8.898438 2.699219 8.636719 2.539062 8.476562 Z M 2.539062 8.476562 "/>
<path style=" stroke:none;fill-rule:nonzero;fill:rgb(0%,0%,0%);fill-opacity:1;" d="M 1.238281 5.917969 L 0.410156 5.917969 C 0.183594 5.917969 0 6.105469 0 6.332031 C 0 6.558594 0.183594 6.742188 0.410156 6.742188 L 1.238281 6.742188 C 1.464844 6.742188 1.652344 6.558594 1.652344 6.332031 C 1.652344 6.105469 1.464844 5.917969 1.238281 5.917969 Z M 1.238281 5.917969 "/>
<path style=" stroke:none;fill-rule:nonzero;fill:rgb(0%,0%,0%);fill-opacity:1;" d="M 2.539062 3.605469 L 1.953125 3.019531 C 1.792969 2.859375 1.53125 2.859375 1.371094 3.019531 C 1.210938 3.179688 1.210938 3.441406 1.371094 3.601562 L 1.957031 4.1875 C 2.039062 4.265625 2.144531 4.308594 2.25 4.308594 C 2.351562 4.308594 2.457031 4.265625 2.539062 4.1875 C 2.699219 4.027344 2.699219 3.765625 2.539062 3.605469 Z M 2.539062 3.605469 "/>
<path style=" stroke:none;fill-rule:nonzero;fill:rgb(0%,0%,0%);fill-opacity:1;" d="M 27.800781 25.003906 C 27.082031 24.515625 26.25 24.296875 25.429688 24.339844 C 24.671875 23.296875 23.242188 22.398438 21.273438 21.742188 C 20.050781 21.332031 18.683594 21.035156 17.234375 20.859375 L 20.183594 13.460938 C 20.628906 13.785156 21.015625 14.164062 21.332031 14.597656 C 21.4375 14.738281 21.601562 14.820312 21.777344 14.777344 C 22.753906 14.601562 23.785156 14.714844 24.765625 15.105469 C 25.753906 15.5 26.585938 16.132812 27.171875 16.941406 C 27.25 17.046875 27.375 17.109375 27.503906 17.109375 C 27.539062 17.109375 27.570312 17.105469 27.605469 17.097656 C 27.765625 17.058594 27.890625 16.921875 27.914062 16.757812 C 27.929688 16.648438 28.285156 14.054688 27.4375 11.234375 C 27.371094 11.015625 27.140625 10.894531 26.921875 10.957031 C 26.707031 11.023438 26.582031 11.253906 26.648438 11.472656 C 27.144531 13.117188 27.195312 14.710938 27.167969 15.683594 C 26.578125 15.113281 25.867188 14.65625 25.070312 14.339844 C 24.164062 13.976562 23.214844 13.824219 22.289062 13.886719 C 22.296875 13.863281 22.304688 13.84375 22.308594 13.824219 C 22.632812 12.839844 22.871094 11.828125 22.988281 10.800781 C 23.097656 9.859375 23.109375 8.910156 22.988281 7.96875 C 22.921875 7.425781 22.804688 6.886719 22.636719 6.363281 C 22.636719 6.359375 22.632812 6.355469 22.632812 6.351562 C 24.109375 7.152344 25.246094 8.332031 26.015625 9.867188 C 26.117188 10.070312 26.363281 10.152344 26.566406 10.050781 C 26.769531 9.949219 26.851562 9.703125 26.75 9.5 C 25.730469 7.460938 24.128906 5.996094 21.988281 5.144531 C 19.042969 3.972656 15.980469 4.355469 13.125 6.261719 C 10.996094 7.679688 9.75 9.421875 9.699219 9.496094 C 9.601562 9.632812 9.597656 9.816406 9.6875 9.957031 C 9.777344 10.097656 9.945312 10.167969 10.109375 10.140625 C 11.089844 9.957031 12.132812 10.070312 13.121094 10.460938 C 14.09375 10.851562 14.914062 11.472656 15.5 12.261719 C 15.613281 12.417969 15.78125 12.511719 15.976562 12.453125 C 16.496094 12.359375 17.035156 12.351562 17.574219 12.421875 L 14.289062 20.671875 C 14.203125 20.671875 14.121094 20.671875 14.039062 20.671875 C 12.140625 20.671875 10.328125 20.859375 8.652344 21.234375 C 8.429688 21.28125 8.289062 21.5 8.339844 21.722656 C 8.386719 21.945312 8.609375 22.085938 8.828125 22.035156 C 10.425781 21.679688 12.226562 21.492188 14.039062 21.492188 C 14.898438 21.492188 15.757812 21.535156 16.609375 21.621094 C 16.613281 21.621094 16.617188 21.621094 16.621094 21.621094 C 18.207031 21.777344 19.695312 22.082031 21.011719 22.519531 C 22.578125 23.046875 23.792969 23.738281 24.5 24.507812 C 24.144531 24.617188 23.796875 24.78125 23.472656 25.003906 C 22.4375 25.703125 21.101562 25.703125 20.070312 25.003906 C 18.753906 24.109375 17.054688 24.109375 15.742188 25.003906 C 14.707031 25.703125 13.371094 25.703125 12.335938 25.003906 C 11.023438 24.109375 9.324219 24.109375 8.007812 25.003906 C 6.976562 25.703125 5.640625 25.703125 4.605469 25.003906 C 4.28125 24.78125 3.933594 24.617188 3.578125 24.507812 C 4.285156 23.738281 5.496094 23.046875 7.0625 22.523438 C 7.277344 22.449219 7.390625 22.21875 7.320312 22.003906 C 7.246094 21.785156 7.015625 21.671875 6.800781 21.742188 C 4.832031 22.402344 3.40625 23.296875 2.648438 24.339844 C 1.828125 24.296875 0.996094 24.515625 0.277344 25.003906 C 0.0898438 25.128906 0.0390625 25.386719 0.167969 25.574219 C 0.296875 25.761719 0.550781 25.8125 0.738281 25.683594 C 1.351562 25.269531 2.066406 25.097656 2.765625 25.175781 C 2.789062 25.179688 2.8125 25.183594 2.839844 25.183594 C 3.296875 25.246094 3.742188 25.410156 4.144531 25.683594 C 5.457031 26.574219 7.15625 26.574219 8.472656 25.683594 C 9.503906 24.980469 10.839844 24.980469 11.875 25.683594 C 13.191406 26.574219 14.886719 26.574219 16.203125 25.683594 C 17.238281 24.980469 18.574219 24.980469 19.605469 25.683594 C 20.265625 26.128906 21.019531 26.351562 21.769531 26.351562 C 22.523438 26.351562 23.277344 26.128906 23.933594 25.683594 C 24.335938 25.410156 24.78125 25.246094 25.234375 25.183594 C 25.261719 25.183594 25.289062 25.179688 25.316406 25.175781 C 26.011719 25.101562 26.730469 25.269531 27.339844 25.683594 C 27.527344 25.8125 27.78125 25.761719 27.910156 25.574219 C 28.039062 25.386719 27.988281 25.128906 27.800781 25.003906 Z M 16.535156 11.5625 C 16.539062 11.550781 16.542969 11.542969 16.546875 11.535156 C 16.929688 10.730469 17.378906 9.957031 17.898438 9.234375 C 18.027344 9.058594 17.988281 8.792969 17.808594 8.660156 C 17.628906 8.53125 17.363281 8.574219 17.230469 8.75 C 16.8125 9.332031 16.441406 9.941406 16.105469 10.574219 C 15.988281 10.800781 15.863281 11.035156 15.761719 11.269531 C 15.757812 11.273438 15.757812 11.277344 15.753906 11.28125 C 15.125 10.601562 14.332031 10.058594 13.425781 9.699219 C 12.625 9.378906 11.796875 9.222656 10.976562 9.230469 C 11.527344 8.613281 12.429688 7.710938 13.605469 6.929688 C 14.769531 6.15625 15.972656 5.652344 17.179688 5.429688 C 18.347656 5.214844 19.523438 5.265625 20.691406 5.578125 C 20.6875 5.582031 20.683594 5.585938 20.675781 5.585938 C 20.046875 5.933594 19.460938 6.363281 18.925781 6.847656 C 18.71875 7.039062 18.515625 7.234375 18.324219 7.4375 C 18.167969 7.601562 18.171875 7.859375 18.335938 8.019531 C 18.5 8.175781 18.761719 8.167969 18.917969 8.003906 C 19.445312 7.449219 20.042969 6.945312 20.691406 6.535156 C 20.992188 6.347656 21.304688 6.175781 21.632812 6.039062 C 21.71875 6.234375 21.828125 6.523438 21.933594 6.898438 C 22.429688 8.6875 22.296875 10.617188 21.859375 12.402344 C 21.765625 12.785156 21.660156 13.167969 21.535156 13.542969 C 21.535156 13.546875 21.535156 13.550781 21.53125 13.554688 C 20.972656 12.960938 20.285156 12.476562 19.507812 12.128906 C 19.496094 12.125 19.484375 12.121094 19.472656 12.113281 C 18.554688 11.707031 17.539062 11.503906 16.535156 11.5625 Z M 16.382812 20.769531 C 16.191406 20.753906 16 20.742188 15.808594 20.726562 C 15.59375 20.714844 15.378906 20.703125 15.164062 20.695312 L 18.394531 12.597656 C 18.589844 12.652344 18.78125 12.71875 18.96875 12.792969 C 19 12.808594 19.472656 13.023438 19.46875 13.027344 Z M 16.382812 20.769531 "/>
</g>
</svg>
