<?xml version="1.0" encoding="UTF-8"?>
<svg xmlns="http://www.w3.org/2000/svg" xmlns:xlink="http://www.w3.org/1999/xlink" width="28pt" height="28pt" viewBox="0 0 28 28" version="1.1">
<g id="surface1">
<path style=" stroke:none;fill-rule:nonzero;fill:rgb(0%,0%,0%);fill-opacity:1;" d="M 14 20.097656 C 17.363281 20.097656 20.078125 17.363281 20.078125 14.023438 C 20.078125 10.679688 17.34375 7.945312 14 7.945312 C 10.65625 7.945312 7.921875 10.679688 7.921875 14.023438 C 7.921875 17.363281 10.636719 20.097656 14 20.097656 Z M 14 9.703125 C 16.386719 9.703125 18.320312 11.632812 18.320312 14.023438 C 18.320312 16.410156 16.386719 18.339844 14 18.339844 C 11.613281 18.339844 9.679688 16.410156 9.679688 14.023438 C 9.679688 11.632812 11.613281 9.703125 14 9.703125 Z M 14 9.703125 "/>
<path style=" stroke:none;fill-rule:nonzero;fill:rgb(0%,0%,0%);fill-opacity:1;" d="M 14.890625 5.121094 L 14.890625 2.324219 C 14.890625 1.824219 14.5 1.433594 14 1.433594 C 13.5 1.433594 13.109375 1.824219 13.109375 2.324219 L 13.109375 5.121094 C 13.109375 5.621094 13.5 6.011719 14 6.011719 C 14.5 6.011719 14.890625 5.621094 14.890625 5.121094 Z M 14.890625 5.121094 "/>
<path style=" stroke:none;fill-rule:nonzero;fill:rgb(0%,0%,0%);fill-opacity:1;" d="M 13.109375 22.921875 L 13.109375 25.722656 C 13.109375 26.21875 13.5 26.609375 14 26.609375 C 14.5 26.609375 14.890625 26.21875 14.890625 25.722656 L 14.890625 22.921875 C 14.890625 22.421875 14.5 22.03125 14 22.03125 C 13.5 22.03125 13.109375 22.421875 13.109375 22.921875 Z M 13.109375 22.921875 "/>
<path style=" stroke:none;fill-rule:nonzero;fill:rgb(0%,0%,0%);fill-opacity:1;" d="M 20.925781 8.355469 L 22.898438 6.382812 C 23.246094 6.035156 23.246094 5.46875 22.898438 5.121094 C 22.550781 4.773438 21.988281 4.773438 21.640625 5.121094 L 19.664062 7.097656 C 19.316406 7.445312 19.316406 8.007812 19.664062 8.355469 C 19.839844 8.53125 20.054688 8.617188 20.292969 8.617188 C 20.535156 8.617188 20.75 8.53125 20.925781 8.355469 Z M 20.925781 8.355469 "/>
<path style=" stroke:none;fill-rule:nonzero;fill:rgb(0%,0%,0%);fill-opacity:1;" d="M 5.101562 22.921875 C 5.273438 23.09375 5.492188 23.179688 5.730469 23.179688 C 5.949219 23.179688 6.1875 23.09375 6.359375 22.921875 L 8.335938 20.945312 C 8.683594 20.597656 8.683594 20.035156 8.335938 19.6875 C 7.988281 19.339844 7.421875 19.339844 7.074219 19.6875 L 5.101562 21.660156 C 4.753906 22.007812 4.753906 22.574219 5.101562 22.921875 Z M 5.101562 22.921875 "/>
<path style=" stroke:none;fill-rule:nonzero;fill:rgb(0%,0%,0%);fill-opacity:1;" d="M 26.589844 14.023438 C 26.589844 13.523438 26.199219 13.132812 25.699219 13.132812 L 22.898438 13.132812 C 22.398438 13.132812 22.007812 13.523438 22.007812 14.023438 C 22.007812 14.519531 22.398438 14.910156 22.898438 14.910156 L 25.699219 14.910156 C 26.175781 14.910156 26.589844 14.519531 26.589844 14.023438 Z M 26.589844 14.023438 "/>
<path style=" stroke:none;fill-rule:nonzero;fill:rgb(0%,0%,0%);fill-opacity:1;" d="M 2.300781 14.910156 L 5.101562 14.910156 C 5.601562 14.910156 5.992188 14.519531 5.992188 14.023438 C 5.992188 13.523438 5.601562 13.132812 5.101562 13.132812 L 2.300781 13.132812 C 1.800781 13.132812 1.410156 13.523438 1.410156 14.023438 C 1.410156 14.519531 1.824219 14.910156 2.300781 14.910156 Z M 2.300781 14.910156 "/>
<path style=" stroke:none;fill-rule:nonzero;fill:rgb(0%,0%,0%);fill-opacity:1;" d="M 22.269531 23.179688 C 22.488281 23.179688 22.726562 23.09375 22.898438 22.921875 C 23.246094 22.574219 23.246094 22.007812 22.898438 21.660156 L 20.925781 19.6875 C 20.578125 19.339844 20.011719 19.339844 19.664062 19.6875 C 19.316406 20.035156 19.316406 20.597656 19.664062 20.945312 L 21.640625 22.921875 C 21.8125 23.09375 22.050781 23.179688 22.269531 23.179688 Z M 22.269531 23.179688 "/>
<path style=" stroke:none;fill-rule:nonzero;fill:rgb(0%,0%,0%);fill-opacity:1;" d="M 8.335938 8.355469 C 8.683594 8.007812 8.683594 7.445312 8.335938 7.097656 L 6.359375 5.121094 C 6.011719 4.773438 5.449219 4.773438 5.101562 5.121094 C 4.753906 5.46875 4.753906 6.035156 5.101562 6.382812 L 7.074219 8.355469 C 7.25 8.53125 7.464844 8.617188 7.707031 8.617188 C 7.945312 8.617188 8.160156 8.53125 8.335938 8.355469 Z M 8.335938 8.355469 "/>
</g>
</svg>
