<?xml version="1.0" encoding="UTF-8"?>
<svg xmlns="http://www.w3.org/2000/svg" xmlns:xlink="http://www.w3.org/1999/xlink" width="28pt" height="28pt" viewBox="0 0 28 28" version="1.1">
<g id="surface1">
<path style=" stroke:none;fill-rule:nonzero;fill:rgb(0%,0%,0%);fill-opacity:1;" d="M 27.574219 8.796875 L 0.425781 8.796875 C 0.191406 8.796875 0 8.605469 0 8.371094 L 0 5.460938 C 0 5.226562 0.191406 5.039062 0.425781 5.039062 L 27.574219 5.039062 C 27.808594 5.039062 28 5.226562 28 5.460938 L 28 8.375 C 28 8.609375 27.808594 8.796875 27.574219 8.796875 Z M 0.847656 7.949219 L 27.152344 7.949219 L 27.152344 5.886719 L 0.847656 5.886719 Z M 0.847656 7.949219 "/>
<path style=" stroke:none;fill-rule:nonzero;fill:rgb(0%,0%,0%);fill-opacity:1;" d="M 2.660156 22.960938 L 1.414062 22.960938 C 1.289062 22.960938 1.171875 22.90625 1.089844 22.8125 C 1.007812 22.714844 0.976562 22.585938 0.996094 22.464844 L 3.488281 8.300781 C 3.523438 8.097656 3.699219 7.949219 3.90625 7.949219 L 6.8125 7.949219 C 6.945312 7.949219 7.074219 8.011719 7.152344 8.117188 C 7.234375 8.226562 7.257812 8.363281 7.21875 8.492188 L 3.066406 22.65625 C 3.015625 22.839844 2.847656 22.960938 2.660156 22.960938 Z M 1.921875 22.113281 L 2.34375 22.113281 L 6.246094 8.796875 L 4.261719 8.796875 Z M 1.921875 22.113281 "/>
<path style=" stroke:none;fill-rule:nonzero;fill:rgb(0%,0%,0%);fill-opacity:1;" d="M 25.855469 22.960938 L 24.609375 22.960938 C 24.417969 22.960938 24.253906 22.839844 24.203125 22.65625 L 20.050781 8.492188 C 20.011719 8.363281 20.035156 8.226562 20.117188 8.121094 C 20.195312 8.011719 20.320312 7.949219 20.457031 7.949219 L 23.363281 7.949219 C 23.570312 7.949219 23.742188 8.097656 23.78125 8.300781 L 26.273438 22.464844 C 26.292969 22.589844 26.257812 22.714844 26.179688 22.8125 C 26.097656 22.90625 25.980469 22.960938 25.855469 22.960938 Z M 24.925781 22.113281 L 25.347656 22.113281 L 23.003906 8.796875 L 21.023438 8.796875 Z M 24.925781 22.113281 "/>
<path style=" stroke:none;fill-rule:nonzero;fill:rgb(0%,0%,0%);fill-opacity:1;" d="M 21.269531 11.578125 L 5.996094 11.578125 C 5.765625 11.578125 5.574219 11.386719 5.574219 11.152344 C 5.574219 10.921875 5.765625 10.730469 5.996094 10.730469 L 21.269531 10.730469 C 21.503906 10.730469 21.695312 10.921875 21.695312 11.152344 C 21.695312 11.386719 21.503906 11.578125 21.269531 11.578125 Z M 21.269531 11.578125 "/>
</g>
</svg>
