<?xml version="1.0" encoding="UTF-8"?>
<svg xmlns="http://www.w3.org/2000/svg" xmlns:xlink="http://www.w3.org/1999/xlink" width="28pt" height="28pt" viewBox="0 0 28 28" version="1.1">
<g id="surface1">
<path style=" stroke:none;fill-rule:nonzero;fill:rgb(0%,0%,0%);fill-opacity:1;" d="M 27.515625 5.90625 L 0.484375 5.90625 C 0.195312 5.90625 0 6.101562 0 6.390625 L 0 9.359375 C 0 9.648438 0.195312 9.84375 0.484375 9.84375 L 1.847656 9.84375 L 1.847656 21.609375 C 1.847656 21.898438 2.042969 22.09375 2.332031 22.09375 L 4.421875 22.09375 C 4.714844 22.09375 4.910156 21.898438 4.910156 21.609375 L 4.910156 9.84375 L 13.171875 9.84375 L 13.171875 15.675781 C 13.171875 15.96875 13.367188 16.164062 13.660156 16.164062 L 23.042969 16.164062 L 23.042969 21.609375 C 23.042969 21.898438 23.234375 22.09375 23.527344 22.09375 L 25.667969 22.09375 C 25.957031 22.09375 26.152344 21.898438 26.152344 21.609375 L 26.152344 9.84375 L 27.515625 9.84375 C 27.804688 9.84375 28 9.648438 28 9.359375 L 28 6.390625 C 28 6.101562 27.757812 5.90625 27.515625 5.90625 Z M 3.9375 21.074219 L 2.820312 21.074219 L 2.820312 9.84375 L 3.9375 9.84375 Z M 23.042969 15.191406 L 14.144531 15.191406 L 14.144531 13.003906 L 17.5 13.003906 L 17.5 13.488281 L 19.6875 13.488281 L 19.6875 13.003906 L 23.042969 13.003906 Z M 23.042969 12.03125 L 14.144531 12.03125 L 14.144531 9.84375 L 17.5 9.84375 L 17.5 10.378906 L 19.6875 10.378906 L 19.6875 9.796875 L 23.042969 9.796875 Z M 25.179688 21.074219 L 24.0625 21.074219 L 24.0625 9.84375 L 25.179688 9.84375 Z M 25.667969 8.871094 L 0.972656 8.871094 L 0.972656 6.878906 L 26.980469 6.878906 L 26.980469 8.871094 Z M 25.667969 8.871094 "/>
</g>
</svg>
