<?xml version="1.0" encoding="UTF-8"?>
<svg xmlns="http://www.w3.org/2000/svg" xmlns:xlink="http://www.w3.org/1999/xlink" width="28pt" height="28pt" viewBox="0 0 28 28" version="1.1">
<g id="surface1">
<path style=" stroke:none;fill-rule:nonzero;fill:rgb(0%,0%,0%);fill-opacity:1;" d="M 27.0625 14.273438 L 25.097656 14.273438 L 25.097656 13.242188 L 25.128906 13.242188 C 25.644531 13.242188 26.066406 12.824219 26.066406 12.308594 L 26.066406 10.371094 C 26.066406 9.855469 25.644531 9.433594 25.128906 9.433594 L 25.097656 9.433594 L 25.097656 8.40625 L 25.128906 8.40625 C 25.644531 8.40625 26.066406 7.984375 26.066406 7.46875 L 26.066406 5.535156 C 26.066406 5.015625 25.644531 4.597656 25.128906 4.597656 L 2.871094 4.597656 C 2.355469 4.597656 1.933594 5.015625 1.933594 5.535156 L 1.933594 7.46875 C 1.933594 7.984375 2.355469 8.40625 2.871094 8.40625 L 2.902344 8.40625 L 2.902344 9.433594 L 2.871094 9.433594 C 2.355469 9.433594 1.933594 9.855469 1.933594 10.371094 L 1.933594 12.308594 C 1.933594 12.824219 2.355469 13.242188 2.871094 13.242188 L 2.902344 13.242188 L 2.902344 14.273438 L 0.9375 14.273438 C 0.421875 14.273438 0 14.691406 0 15.210938 L 0 16.175781 C 0 16.695312 0.421875 17.113281 0.9375 17.113281 L 1.933594 17.113281 L 1.933594 22.496094 L 1.90625 22.496094 C 1.65625 22.496094 1.453125 22.699219 1.453125 22.949219 C 1.453125 23.199219 1.65625 23.402344 1.90625 23.402344 L 4.808594 23.402344 C 5.058594 23.402344 5.261719 23.199219 5.261719 22.949219 C 5.261719 22.699219 5.058594 22.496094 4.808594 22.496094 L 4.777344 22.496094 L 4.777344 17.113281 L 23.222656 17.113281 L 23.222656 22.496094 L 23.191406 22.496094 C 22.941406 22.496094 22.738281 22.699219 22.738281 22.949219 C 22.738281 23.199219 22.941406 23.402344 23.191406 23.402344 L 26.09375 23.402344 C 26.34375 23.402344 26.546875 23.199219 26.546875 22.949219 C 26.546875 22.699219 26.34375 22.496094 26.09375 22.496094 L 26.066406 22.496094 L 26.066406 17.113281 L 27.0625 17.113281 C 27.578125 17.113281 28 16.695312 28 16.175781 L 28 15.210938 C 28 14.691406 27.578125 14.273438 27.0625 14.273438 Z M 24.191406 14.273438 L 23.160156 14.273438 L 23.160156 13.242188 L 24.191406 13.242188 Z M 5.746094 14.273438 L 5.746094 13.242188 L 22.253906 13.242188 L 22.253906 14.273438 Z M 24.191406 9.433594 L 23.160156 9.433594 L 23.160156 8.40625 L 24.191406 8.40625 Z M 5.746094 9.433594 L 5.746094 8.40625 L 22.253906 8.40625 L 22.253906 9.433594 Z M 2.84375 7.46875 L 2.84375 5.535156 C 2.84375 5.515625 2.855469 5.503906 2.871094 5.503906 L 25.128906 5.503906 C 25.144531 5.503906 25.15625 5.515625 25.15625 5.535156 L 25.15625 7.46875 C 25.15625 7.484375 25.144531 7.5 25.128906 7.5 L 2.871094 7.5 C 2.855469 7.5 2.84375 7.484375 2.84375 7.46875 Z M 3.808594 8.40625 L 4.839844 8.40625 L 4.839844 9.433594 L 3.808594 9.433594 Z M 2.84375 12.308594 L 2.84375 10.371094 C 2.84375 10.355469 2.855469 10.339844 2.871094 10.339844 L 25.128906 10.339844 C 25.144531 10.339844 25.15625 10.355469 25.15625 10.371094 L 25.15625 12.308594 C 25.15625 12.324219 25.144531 12.335938 25.128906 12.335938 L 2.871094 12.335938 C 2.855469 12.335938 2.84375 12.324219 2.84375 12.308594 Z M 3.808594 13.242188 L 4.839844 13.242188 L 4.839844 14.273438 L 3.808594 14.273438 Z M 3.871094 22.496094 L 2.84375 22.496094 L 2.84375 17.113281 L 3.871094 17.113281 Z M 25.15625 22.496094 L 24.128906 22.496094 L 24.128906 17.113281 L 25.15625 17.113281 Z M 27.09375 16.175781 C 27.09375 16.195312 27.078125 16.207031 27.0625 16.207031 L 0.9375 16.207031 C 0.921875 16.207031 0.90625 16.195312 0.90625 16.175781 L 0.90625 15.210938 C 0.90625 15.191406 0.921875 15.179688 0.9375 15.179688 L 27.0625 15.179688 C 27.078125 15.179688 27.09375 15.191406 27.09375 15.210938 Z M 27.09375 16.175781 "/>
<path style=" stroke:none;fill-rule:nonzero;fill:rgb(0%,0%,0%);fill-opacity:1;" d="M 3.839844 6.953125 L 4.324219 6.953125 C 4.574219 6.953125 4.777344 6.75 4.777344 6.5 C 4.777344 6.25 4.574219 6.046875 4.324219 6.046875 L 3.839844 6.046875 C 3.589844 6.046875 3.386719 6.25 3.386719 6.5 C 3.386719 6.75 3.589844 6.953125 3.839844 6.953125 Z M 3.839844 6.953125 "/>
<path style=" stroke:none;fill-rule:nonzero;fill:rgb(0%,0%,0%);fill-opacity:1;" d="M 3.839844 11.792969 L 4.324219 11.792969 C 4.574219 11.792969 4.777344 11.589844 4.777344 11.339844 C 4.777344 11.089844 4.574219 10.886719 4.324219 10.886719 L 3.839844 10.886719 C 3.589844 10.886719 3.386719 11.089844 3.386719 11.339844 C 3.386719 11.589844 3.589844 11.792969 3.839844 11.792969 Z M 3.839844 11.792969 "/>
<path style=" stroke:none;fill-rule:nonzero;fill:rgb(0%,0%,0%);fill-opacity:1;" d="M 23.675781 6.953125 L 24.160156 6.953125 C 24.410156 6.953125 24.613281 6.75 24.613281 6.5 C 24.613281 6.25 24.410156 6.046875 24.160156 6.046875 L 23.675781 6.046875 C 23.425781 6.046875 23.222656 6.25 23.222656 6.5 C 23.222656 6.75 23.425781 6.953125 23.675781 6.953125 Z M 23.675781 6.953125 "/>
<path style=" stroke:none;fill-rule:nonzero;fill:rgb(0%,0%,0%);fill-opacity:1;" d="M 23.675781 11.792969 L 24.160156 11.792969 C 24.410156 11.792969 24.613281 11.589844 24.613281 11.339844 C 24.613281 11.089844 24.410156 10.886719 24.160156 10.886719 L 23.675781 10.886719 C 23.425781 10.886719 23.222656 11.089844 23.222656 11.339844 C 23.222656 11.589844 23.425781 11.792969 23.675781 11.792969 Z M 23.675781 11.792969 "/>
</g>
</svg>
