<?xml version="1.0" encoding="UTF-8"?>
<svg xmlns="http://www.w3.org/2000/svg" xmlns:xlink="http://www.w3.org/1999/xlink" width="28pt" height="28pt" viewBox="0 0 28 28" version="1.1">
<g id="surface1">
<path style=" stroke:none;fill-rule:nonzero;fill:rgb(0%,0%,0%);fill-opacity:1;" d="M 23.292969 27.34375 L 19.558594 18.945312 C 19.484375 18.773438 19.316406 18.667969 19.132812 18.667969 L 8.867188 18.667969 C 8.683594 18.667969 8.515625 18.773438 8.441406 18.945312 L 4.707031 27.34375 C 4.644531 27.488281 4.65625 27.65625 4.742188 27.789062 C 4.828125 27.921875 4.976562 28 5.132812 28 L 9.332031 28 C 9.519531 28 9.691406 27.886719 9.765625 27.714844 L 11.203125 24.269531 C 11.671875 23.132812 12.769531 22.398438 14 22.398438 C 15.230469 22.398438 16.328125 23.132812 16.796875 24.269531 L 18.234375 27.714844 C 18.308594 27.886719 18.480469 28 18.667969 28 L 22.867188 28 C 23.023438 28 23.171875 27.921875 23.257812 27.789062 C 23.34375 27.65625 23.359375 27.488281 23.292969 27.34375 Z M 18.976562 27.066406 L 17.660156 23.910156 C 17.042969 22.425781 15.609375 21.464844 14 21.464844 C 12.390625 21.464844 10.957031 22.425781 10.339844 23.910156 L 9.023438 27.066406 L 5.851562 27.066406 L 9.171875 19.601562 L 18.832031 19.601562 L 22.148438 27.066406 Z M 18.976562 27.066406 "/>
<path style=" stroke:none;fill-rule:nonzero;fill:rgb(0%,0%,0%);fill-opacity:1;" d="M 19.132812 16.800781 L 8.867188 16.800781 C 8.609375 16.800781 8.398438 17.007812 8.398438 17.265625 L 8.398438 19.132812 L 9.332031 19.132812 L 9.332031 17.734375 L 18.667969 17.734375 L 18.667969 19.132812 L 19.601562 19.132812 L 19.601562 17.265625 C 19.601562 17.007812 19.390625 16.800781 19.132812 16.800781 Z M 19.132812 16.800781 "/>
<path style=" stroke:none;fill-rule:nonzero;fill:rgb(0%,0%,0%);fill-opacity:1;" d="M 16.785156 10.144531 C 16.730469 9.941406 16.542969 9.800781 16.332031 9.800781 L 11.667969 9.800781 C 11.457031 9.800781 11.269531 9.941406 11.214844 10.144531 L 9.347656 17.144531 L 10.25 17.386719 L 12.023438 10.734375 L 15.972656 10.734375 L 17.75 17.386719 L 18.652344 17.144531 Z M 16.785156 10.144531 "/>
<path style=" stroke:none;fill-rule:nonzero;fill:rgb(0%,0%,0%);fill-opacity:1;" d="M 14.445312 12.464844 C 14.386719 12.269531 14.207031 12.132812 14 12.132812 C 13.792969 12.132812 13.613281 12.269531 13.554688 12.464844 L 12.152344 17.132812 L 13.046875 17.402344 L 14 14.222656 L 14.953125 17.402344 L 15.847656 17.132812 Z M 14.445312 12.464844 "/>
<path style=" stroke:none;fill-rule:nonzero;fill:rgb(0%,0%,0%);fill-opacity:1;" d="M 16.332031 7.933594 L 11.667969 7.933594 C 11.410156 7.933594 11.199219 8.140625 11.199219 8.398438 L 11.199219 10.265625 C 11.199219 10.523438 11.410156 10.734375 11.667969 10.734375 L 16.332031 10.734375 C 16.589844 10.734375 16.800781 10.523438 16.800781 10.265625 L 16.800781 8.398438 C 16.800781 8.140625 16.589844 7.933594 16.332031 7.933594 Z M 15.867188 9.800781 L 12.132812 9.800781 L 12.132812 8.867188 L 15.867188 8.867188 Z M 15.867188 9.800781 "/>
<path style=" stroke:none;fill-rule:nonzero;fill:rgb(0%,0%,0%);fill-opacity:1;" d="M 15.535156 3.203125 C 15.429688 2.441406 14.769531 1.867188 14 1.867188 C 13.230469 1.867188 12.570312 2.441406 12.464844 3.195312 L 11.671875 8.328125 L 12.59375 8.472656 L 13.390625 3.332031 C 13.429688 3.027344 13.695312 2.800781 14 2.800781 C 14.308594 2.800781 14.570312 3.027344 14.613281 3.339844 L 15.40625 8.472656 L 16.328125 8.328125 Z M 15.535156 3.203125 "/>
<path style=" stroke:none;fill-rule:nonzero;fill:rgb(0%,0%,0%);fill-opacity:1;" d="M 13.535156 0 L 14.464844 0 L 14.464844 2.332031 L 13.535156 2.332031 Z M 13.535156 0 "/>
<path style=" stroke:none;fill-rule:nonzero;fill:rgb(0%,0%,0%);fill-opacity:1;" d="M 12.601562 3.734375 L 14.933594 3.734375 L 14.933594 4.667969 L 12.601562 4.667969 Z M 12.601562 3.734375 "/>
<path style=" stroke:none;fill-rule:nonzero;fill:rgb(0%,0%,0%);fill-opacity:1;" d="M 0 27.066406 L 10.734375 27.066406 L 10.734375 28 L 0 28 Z M 0 27.066406 "/>
<path style=" stroke:none;fill-rule:nonzero;fill:rgb(0%,0%,0%);fill-opacity:1;" d="M 17.265625 27.066406 L 23.800781 27.066406 L 23.800781 28 L 17.265625 28 Z M 17.265625 27.066406 "/>
<path style=" stroke:none;fill-rule:nonzero;fill:rgb(0%,0%,0%);fill-opacity:1;" d="M 7.933594 5.601562 L 0.464844 5.601562 C 0.210938 5.601562 0 5.808594 0 6.066406 L 0 12.601562 C 0 12.859375 0.210938 13.066406 0.464844 13.066406 L 7.933594 13.066406 C 8.191406 13.066406 8.398438 12.859375 8.398438 12.601562 L 8.398438 6.066406 C 8.398438 5.808594 8.191406 5.601562 7.933594 5.601562 Z M 7.464844 12.132812 L 0.933594 12.132812 L 0.933594 6.535156 L 7.464844 6.535156 Z M 7.464844 12.132812 "/>
<path style=" stroke:none;fill-rule:nonzero;fill:rgb(0%,0%,0%);fill-opacity:1;" d="M 8.261719 5.738281 L 6.398438 3.871094 C 6.308594 3.78125 6.191406 3.734375 6.066406 3.734375 L 2.332031 3.734375 C 2.210938 3.734375 2.089844 3.78125 2.003906 3.871094 L 0.136719 5.738281 C 0.00390625 5.871094 -0.0351562 6.070312 0.0351562 6.246094 C 0.109375 6.417969 0.277344 6.535156 0.464844 6.535156 L 7.933594 6.535156 C 8.121094 6.535156 8.292969 6.417969 8.363281 6.246094 C 8.4375 6.070312 8.398438 5.871094 8.261719 5.738281 Z M 1.59375 5.601562 L 2.527344 4.667969 L 5.875 4.667969 L 6.808594 5.601562 Z M 1.59375 5.601562 "/>
<path style=" stroke:none;fill-rule:nonzero;fill:rgb(0%,0%,0%);fill-opacity:1;" d="M 4.199219 7.464844 C 3.171875 7.464844 2.332031 8.304688 2.332031 9.332031 C 2.332031 10.363281 3.171875 11.199219 4.199219 11.199219 C 5.230469 11.199219 6.066406 10.363281 6.066406 9.332031 C 6.066406 8.304688 5.230469 7.464844 4.199219 7.464844 Z M 4.199219 10.265625 C 3.683594 10.265625 3.265625 9.847656 3.265625 9.332031 C 3.265625 8.820312 3.683594 8.398438 4.199219 8.398438 C 4.714844 8.398438 5.132812 8.820312 5.132812 9.332031 C 5.132812 9.847656 4.714844 10.265625 4.199219 10.265625 Z M 4.199219 10.265625 "/>
<path style=" stroke:none;fill-rule:nonzero;fill:rgb(0%,0%,0%);fill-opacity:1;" d="M 7 12.132812 L 1.398438 12.132812 C 1.140625 12.132812 0.933594 12.34375 0.933594 12.601562 L 0.933594 28 L 1.867188 28 L 1.867188 13.066406 L 6.535156 13.066406 L 6.535156 23.332031 L 7.464844 23.332031 L 7.464844 12.601562 C 7.464844 12.34375 7.257812 12.132812 7 12.132812 Z M 7 12.132812 "/>
<path style=" stroke:none;fill-rule:nonzero;fill:rgb(0%,0%,0%);fill-opacity:1;" d="M 6.066406 1.867188 L 2.332031 1.867188 C 2.074219 1.867188 1.867188 2.074219 1.867188 2.332031 L 1.867188 4.199219 C 1.867188 4.457031 2.074219 4.667969 2.332031 4.667969 L 6.066406 4.667969 C 6.324219 4.667969 6.535156 4.457031 6.535156 4.199219 L 6.535156 2.332031 C 6.535156 2.074219 6.324219 1.867188 6.066406 1.867188 Z M 5.601562 3.734375 L 2.800781 3.734375 L 2.800781 2.800781 L 5.601562 2.800781 Z M 5.601562 3.734375 "/>
<path style=" stroke:none;fill-rule:nonzero;fill:rgb(0%,0%,0%);fill-opacity:1;" d="M 6.398438 2.003906 L 4.53125 0.136719 C 4.347656 -0.046875 4.050781 -0.046875 3.871094 0.136719 L 2.003906 2.003906 C 1.871094 2.136719 1.828125 2.335938 1.902344 2.511719 C 1.972656 2.6875 2.144531 2.800781 2.332031 2.800781 L 6.066406 2.800781 C 6.253906 2.800781 6.425781 2.6875 6.496094 2.511719 C 6.570312 2.335938 6.53125 2.136719 6.398438 2.003906 Z M 3.460938 1.867188 L 4.199219 1.125 L 4.941406 1.867188 Z M 3.460938 1.867188 "/>
<path style=" stroke:none;fill-rule:nonzero;fill:rgb(0%,0%,0%);fill-opacity:1;" d="M 2.800781 14 L 3.734375 14 L 3.734375 16.800781 L 2.800781 16.800781 Z M 2.800781 14 "/>
<path style=" stroke:none;fill-rule:nonzero;fill:rgb(0%,0%,0%);fill-opacity:1;" d="M 4.667969 14 L 5.601562 14 L 5.601562 16.800781 L 4.667969 16.800781 Z M 4.667969 14 "/>
<path style=" stroke:none;fill-rule:nonzero;fill:rgb(0%,0%,0%);fill-opacity:1;" d="M 2.800781 25.199219 L 3.734375 25.199219 L 3.734375 28 L 2.800781 28 Z M 2.800781 25.199219 "/>
<path style=" stroke:none;fill-rule:nonzero;fill:rgb(0%,0%,0%);fill-opacity:1;" d="M 4.667969 25.199219 L 5.601562 25.199219 L 5.601562 28 L 4.667969 28 Z M 4.667969 25.199219 "/>
<path style=" stroke:none;fill-rule:nonzero;fill:rgb(0%,0%,0%);fill-opacity:1;" d="M 2.800781 21.464844 L 3.734375 21.464844 L 3.734375 24.265625 L 2.800781 24.265625 Z M 2.800781 21.464844 "/>
<path style=" stroke:none;fill-rule:nonzero;fill:rgb(0%,0%,0%);fill-opacity:1;" d="M 4.667969 21.464844 L 5.601562 21.464844 L 5.601562 24.265625 L 4.667969 24.265625 Z M 4.667969 21.464844 "/>
<path style=" stroke:none;fill-rule:nonzero;fill:rgb(0%,0%,0%);fill-opacity:1;" d="M 2.800781 17.734375 L 3.734375 17.734375 L 3.734375 20.535156 L 2.800781 20.535156 Z M 2.800781 17.734375 "/>
<path style=" stroke:none;fill-rule:nonzero;fill:rgb(0%,0%,0%);fill-opacity:1;" d="M 4.667969 17.734375 L 5.601562 17.734375 L 5.601562 20.535156 L 4.667969 20.535156 Z M 4.667969 17.734375 "/>
<path style=" stroke:none;fill-rule:nonzero;fill:rgb(0%,0%,0%);fill-opacity:1;" d="M 26.601562 2.800781 L 19.132812 2.800781 C 18.875 2.800781 18.667969 3.007812 18.667969 3.265625 L 18.667969 19.132812 L 19.601562 19.132812 L 19.601562 3.734375 L 26.132812 3.734375 L 26.132812 21.464844 L 20.535156 21.464844 L 20.535156 22.398438 L 26.601562 22.398438 C 26.859375 22.398438 27.066406 22.191406 27.066406 21.933594 L 27.066406 3.265625 C 27.066406 3.007812 26.859375 2.800781 26.601562 2.800781 Z M 26.601562 2.800781 "/>
<path style=" stroke:none;fill-rule:nonzero;fill:rgb(0%,0%,0%);fill-opacity:1;" d="M 18.199219 6.535156 L 27.535156 6.535156 L 27.535156 7.464844 L 18.199219 7.464844 Z M 18.199219 6.535156 "/>
<path style=" stroke:none;fill-rule:nonzero;fill:rgb(0%,0%,0%);fill-opacity:1;" d="M 22.867188 4.667969 C 22.609375 4.667969 22.398438 4.875 22.398438 5.132812 L 22.398438 7 C 22.398438 7.257812 22.609375 7.464844 22.867188 7.464844 C 23.125 7.464844 23.332031 7.257812 23.332031 7 L 23.332031 5.132812 C 23.332031 4.875 23.125 4.667969 22.867188 4.667969 Z M 22.867188 4.667969 "/>
<path style=" stroke:none;fill-rule:nonzero;fill:rgb(0%,0%,0%);fill-opacity:1;" d="M 21 4.667969 C 20.742188 4.667969 20.535156 4.875 20.535156 5.132812 L 20.535156 7 C 20.535156 7.257812 20.742188 7.464844 21 7.464844 C 21.257812 7.464844 21.464844 7.257812 21.464844 7 L 21.464844 5.132812 C 21.464844 4.875 21.257812 4.667969 21 4.667969 Z M 21 4.667969 "/>
<path style=" stroke:none;fill-rule:nonzero;fill:rgb(0%,0%,0%);fill-opacity:1;" d="M 24.734375 4.667969 C 24.476562 4.667969 24.265625 4.875 24.265625 5.132812 L 24.265625 7 C 24.265625 7.257812 24.476562 7.464844 24.734375 7.464844 C 24.992188 7.464844 25.199219 7.257812 25.199219 7 L 25.199219 5.132812 C 25.199219 4.875 24.992188 4.667969 24.734375 4.667969 Z M 24.734375 4.667969 "/>
<path style=" stroke:none;fill-rule:nonzero;fill:rgb(0%,0%,0%);fill-opacity:1;" d="M 25.667969 0 L 20.066406 0 C 19.808594 0 19.601562 0.210938 19.601562 0.464844 L 19.601562 3.265625 C 19.601562 3.523438 19.808594 3.734375 20.066406 3.734375 L 25.667969 3.734375 C 25.925781 3.734375 26.132812 3.523438 26.132812 3.265625 L 26.132812 0.464844 C 26.132812 0.210938 25.925781 0 25.667969 0 Z M 25.199219 2.800781 L 20.535156 2.800781 L 20.535156 0.933594 L 25.199219 0.933594 Z M 25.199219 2.800781 "/>
<path style=" stroke:none;fill-rule:nonzero;fill:rgb(0%,0%,0%);fill-opacity:1;" d="M 21.933594 1.867188 C 21.675781 1.867188 21.464844 2.074219 21.464844 2.332031 L 21.464844 3.265625 C 21.464844 3.523438 21.675781 3.734375 21.933594 3.734375 C 22.191406 3.734375 22.398438 3.523438 22.398438 3.265625 L 22.398438 2.332031 C 22.398438 2.074219 22.191406 1.867188 21.933594 1.867188 Z M 21.933594 1.867188 "/>
<path style=" stroke:none;fill-rule:nonzero;fill:rgb(0%,0%,0%);fill-opacity:1;" d="M 23.800781 1.867188 C 23.542969 1.867188 23.332031 2.074219 23.332031 2.332031 L 23.332031 2.800781 C 23.332031 3.058594 23.542969 3.265625 23.800781 3.265625 C 24.058594 3.265625 24.265625 3.058594 24.265625 2.800781 L 24.265625 2.332031 C 24.265625 2.074219 24.058594 1.867188 23.800781 1.867188 Z M 23.800781 1.867188 "/>
<path style=" stroke:none;fill-rule:nonzero;fill:rgb(0%,0%,0%);fill-opacity:1;" d="M 27.535156 21.464844 L 20.535156 21.464844 L 20.535156 22.398438 L 27.066406 22.398438 L 27.066406 28 L 28 28 L 28 21.933594 C 28 21.675781 27.792969 21.464844 27.535156 21.464844 Z M 27.535156 21.464844 "/>
<path style=" stroke:none;fill-rule:nonzero;fill:rgb(0%,0%,0%);fill-opacity:1;" d="M 22.867188 23.332031 C 22.09375 23.332031 21.464844 23.960938 21.464844 24.734375 L 21.464844 25.449219 L 22.398438 25.449219 L 22.398438 24.734375 C 22.398438 24.476562 22.609375 24.265625 22.867188 24.265625 C 23.125 24.265625 23.332031 24.476562 23.332031 24.734375 L 23.332031 27.535156 L 24.265625 27.535156 L 24.265625 24.734375 C 24.265625 23.960938 23.636719 23.332031 22.867188 23.332031 Z M 22.867188 23.332031 "/>
<path style=" stroke:none;fill-rule:nonzero;fill:rgb(0%,0%,0%);fill-opacity:1;" d="M 22.867188 27.066406 L 27.535156 27.066406 L 27.535156 28 L 22.867188 28 Z M 22.867188 27.066406 "/>
<path style=" stroke:none;fill-rule:nonzero;fill:rgb(0%,0%,0%);fill-opacity:1;" d="M 26.601562 23.332031 C 25.828125 23.332031 25.199219 23.960938 25.199219 24.734375 L 25.199219 27.535156 L 26.132812 27.535156 L 26.132812 24.734375 C 26.132812 24.476562 26.34375 24.265625 26.601562 24.265625 C 26.859375 24.265625 27.066406 24.476562 27.066406 24.734375 L 27.066406 27.535156 L 28 27.535156 L 28 24.734375 C 28 23.960938 27.371094 23.332031 26.601562 23.332031 Z M 26.601562 23.332031 "/>
<path style=" stroke:none;fill-rule:nonzero;fill:rgb(0%,0%,0%);fill-opacity:1;" d="M 18.199219 10.265625 L 27.535156 10.265625 L 27.535156 11.199219 L 18.199219 11.199219 Z M 18.199219 10.265625 "/>
<path style=" stroke:none;fill-rule:nonzero;fill:rgb(0%,0%,0%);fill-opacity:1;" d="M 22.867188 8.398438 C 22.609375 8.398438 22.398438 8.609375 22.398438 8.867188 L 22.398438 10.734375 C 22.398438 10.992188 22.609375 11.199219 22.867188 11.199219 C 23.125 11.199219 23.332031 10.992188 23.332031 10.734375 L 23.332031 8.867188 C 23.332031 8.609375 23.125 8.398438 22.867188 8.398438 Z M 22.867188 8.398438 "/>
<path style=" stroke:none;fill-rule:nonzero;fill:rgb(0%,0%,0%);fill-opacity:1;" d="M 21 8.398438 C 20.742188 8.398438 20.535156 8.609375 20.535156 8.867188 L 20.535156 10.734375 C 20.535156 10.992188 20.742188 11.199219 21 11.199219 C 21.257812 11.199219 21.464844 10.992188 21.464844 10.734375 L 21.464844 8.867188 C 21.464844 8.609375 21.257812 8.398438 21 8.398438 Z M 21 8.398438 "/>
<path style=" stroke:none;fill-rule:nonzero;fill:rgb(0%,0%,0%);fill-opacity:1;" d="M 24.734375 8.398438 C 24.476562 8.398438 24.265625 8.609375 24.265625 8.867188 L 24.265625 10.734375 C 24.265625 10.992188 24.476562 11.199219 24.734375 11.199219 C 24.992188 11.199219 25.199219 10.992188 25.199219 10.734375 L 25.199219 8.867188 C 25.199219 8.609375 24.992188 8.398438 24.734375 8.398438 Z M 24.734375 8.398438 "/>
<path style=" stroke:none;fill-rule:nonzero;fill:rgb(0%,0%,0%);fill-opacity:1;" d="M 18.199219 14 L 27.535156 14 L 27.535156 14.933594 L 18.199219 14.933594 Z M 18.199219 14 "/>
<path style=" stroke:none;fill-rule:nonzero;fill:rgb(0%,0%,0%);fill-opacity:1;" d="M 22.867188 12.132812 C 22.609375 12.132812 22.398438 12.34375 22.398438 12.601562 L 22.398438 14.464844 C 22.398438 14.726562 22.609375 14.933594 22.867188 14.933594 C 23.125 14.933594 23.332031 14.726562 23.332031 14.464844 L 23.332031 12.601562 C 23.332031 12.34375 23.125 12.132812 22.867188 12.132812 Z M 22.867188 12.132812 "/>
<path style=" stroke:none;fill-rule:nonzero;fill:rgb(0%,0%,0%);fill-opacity:1;" d="M 21 12.132812 C 20.742188 12.132812 20.535156 12.34375 20.535156 12.601562 L 20.535156 14.464844 C 20.535156 14.726562 20.742188 14.933594 21 14.933594 C 21.257812 14.933594 21.464844 14.726562 21.464844 14.464844 L 21.464844 12.601562 C 21.464844 12.34375 21.257812 12.132812 21 12.132812 Z M 21 12.132812 "/>
<path style=" stroke:none;fill-rule:nonzero;fill:rgb(0%,0%,0%);fill-opacity:1;" d="M 24.734375 12.132812 C 24.476562 12.132812 24.265625 12.34375 24.265625 12.601562 L 24.265625 14.464844 C 24.265625 14.726562 24.476562 14.933594 24.734375 14.933594 C 24.992188 14.933594 25.199219 14.726562 25.199219 14.464844 L 25.199219 12.601562 C 25.199219 12.34375 24.992188 12.132812 24.734375 12.132812 Z M 24.734375 12.132812 "/>
<path style=" stroke:none;fill-rule:nonzero;fill:rgb(0%,0%,0%);fill-opacity:1;" d="M 19.132812 17.734375 L 27.535156 17.734375 L 27.535156 18.667969 L 19.132812 18.667969 Z M 19.132812 17.734375 "/>
<path style=" stroke:none;fill-rule:nonzero;fill:rgb(0%,0%,0%);fill-opacity:1;" d="M 22.867188 15.867188 C 22.609375 15.867188 22.398438 16.074219 22.398438 16.332031 L 22.398438 18.199219 C 22.398438 18.457031 22.609375 18.667969 22.867188 18.667969 C 23.125 18.667969 23.332031 18.457031 23.332031 18.199219 L 23.332031 16.332031 C 23.332031 16.074219 23.125 15.867188 22.867188 15.867188 Z M 22.867188 15.867188 "/>
<path style=" stroke:none;fill-rule:nonzero;fill:rgb(0%,0%,0%);fill-opacity:1;" d="M 21 15.867188 C 20.742188 15.867188 20.535156 16.074219 20.535156 16.332031 L 20.535156 18.199219 C 20.535156 18.457031 20.742188 18.667969 21 18.667969 C 21.257812 18.667969 21.464844 18.457031 21.464844 18.199219 L 21.464844 16.332031 C 21.464844 16.074219 21.257812 15.867188 21 15.867188 Z M 21 15.867188 "/>
<path style=" stroke:none;fill-rule:nonzero;fill:rgb(0%,0%,0%);fill-opacity:1;" d="M 24.734375 15.867188 C 24.476562 15.867188 24.265625 16.074219 24.265625 16.332031 L 24.265625 18.199219 C 24.265625 18.457031 24.476562 18.667969 24.734375 18.667969 C 24.992188 18.667969 25.199219 18.457031 25.199219 18.199219 L 25.199219 16.332031 C 25.199219 16.074219 24.992188 15.867188 24.734375 15.867188 Z M 24.734375 15.867188 "/>
<path style=" stroke:none;fill-rule:nonzero;fill:rgb(0%,0%,0%);fill-opacity:1;" d="M 20.066406 21.464844 L 27.535156 21.464844 L 27.535156 22.398438 L 20.066406 22.398438 Z M 20.066406 21.464844 "/>
<path style=" stroke:none;fill-rule:nonzero;fill:rgb(0%,0%,0%);fill-opacity:1;" d="M 22.867188 19.601562 C 22.609375 19.601562 22.398438 19.808594 22.398438 20.066406 L 22.398438 21.933594 C 22.398438 22.191406 22.609375 22.398438 22.867188 22.398438 C 23.125 22.398438 23.332031 22.191406 23.332031 21.933594 L 23.332031 20.066406 C 23.332031 19.808594 23.125 19.601562 22.867188 19.601562 Z M 22.867188 19.601562 "/>
<path style=" stroke:none;fill-rule:nonzero;fill:rgb(0%,0%,0%);fill-opacity:1;" d="M 21 19.601562 C 20.742188 19.601562 20.535156 19.808594 20.535156 20.066406 L 20.535156 21.933594 C 20.535156 22.191406 20.742188 22.398438 21 22.398438 C 21.257812 22.398438 21.464844 22.191406 21.464844 21.933594 L 21.464844 20.066406 C 21.464844 19.808594 21.257812 19.601562 21 19.601562 Z M 21 19.601562 "/>
<path style=" stroke:none;fill-rule:nonzero;fill:rgb(0%,0%,0%);fill-opacity:1;" d="M 24.734375 19.601562 C 24.476562 19.601562 24.265625 19.808594 24.265625 20.066406 L 24.265625 21.933594 C 24.265625 22.191406 24.476562 22.398438 24.734375 22.398438 C 24.992188 22.398438 25.199219 22.191406 25.199219 21.933594 L 25.199219 20.066406 C 25.199219 19.808594 24.992188 19.601562 24.734375 19.601562 Z M 24.734375 19.601562 "/>
</g>
</svg>
