<?xml version="1.0" encoding="UTF-8"?>
<svg xmlns="http://www.w3.org/2000/svg" xmlns:xlink="http://www.w3.org/1999/xlink" width="28pt" height="28pt" viewBox="0 0 28 28" version="1.1">
<g id="surface1">
<path style=" stroke:none;fill-rule:nonzero;fill:rgb(0%,0%,0%);fill-opacity:1;" d="M 28 15.5625 C 28 11.976562 25.085938 9.0625 21.5 9.0625 C 20.230469 9.0625 18.984375 9.4375 17.933594 10.132812 C 17.65625 8.933594 17.292969 7.777344 16.855469 6.742188 C 15.671875 3.96875 14.128906 2.4375 12.5 2.4375 C 10.871094 2.4375 9.324219 3.960938 8.144531 6.726562 C 7.730469 7.699219 7.382812 8.785156 7.113281 9.914062 L 5.480469 3.929688 C 5.421875 3.714844 5.226562 3.5625 5 3.5625 C 4.773438 3.5625 4.578125 3.714844 4.519531 3.929688 L 0.0195312 20.429688 C -0.0234375 20.582031 0.0078125 20.742188 0.101562 20.867188 C 0.195312 20.988281 0.34375 21.0625 0.5 21.0625 L 4.5 21.0625 L 4.5 25.0625 C 4.5 25.339844 4.722656 25.5625 5 25.5625 C 5.277344 25.5625 5.5 25.339844 5.5 25.0625 L 5.5 21.0625 L 9.5 21.0625 C 9.65625 21.0625 9.804688 20.988281 9.898438 20.867188 C 9.972656 20.765625 10.007812 20.640625 9.996094 20.515625 C 10.617188 20.800781 11.289062 20.984375 12 21.042969 L 12 25.0625 C 12 25.339844 12.222656 25.5625 12.5 25.5625 C 12.777344 25.5625 13 25.339844 13 25.0625 L 13 21.042969 C 14.296875 20.933594 15.480469 20.414062 16.414062 19.609375 C 17.539062 21.023438 19.199219 21.902344 21 22.042969 L 21 25.0625 C 21 25.339844 21.222656 25.5625 21.5 25.5625 C 21.777344 25.5625 22 25.339844 22 25.0625 L 22 22.042969 C 25.351562 21.789062 28 18.976562 28 15.5625 Z M 8.84375 20.0625 L 5.5 20.0625 L 5.5 19.269531 L 6.386719 18.386719 C 6.578125 18.191406 6.578125 17.871094 6.386719 17.675781 C 6.191406 17.484375 5.871094 17.484375 5.675781 17.675781 L 5.5 17.855469 L 5.5 14.5625 C 5.5 14.285156 5.277344 14.0625 5 14.0625 C 4.722656 14.0625 4.5 14.285156 4.5 14.5625 L 4.5 16.855469 L 3.855469 16.207031 C 3.660156 16.015625 3.339844 16.015625 3.144531 16.207031 C 2.953125 16.402344 2.953125 16.722656 3.144531 16.917969 L 4.5 18.269531 L 4.5 20.0625 L 1.15625 20.0625 L 5 5.960938 L 6.695312 12.175781 C 6.5625 13.144531 6.492188 14.117188 6.492188 15.054688 C 6.492188 16.957031 7.378906 18.652344 8.761719 19.753906 Z M 13 19.269531 L 14.855469 17.417969 C 15.046875 17.222656 15.046875 16.902344 14.855469 16.707031 C 14.660156 16.515625 14.339844 16.515625 14.144531 16.707031 L 13 17.855469 L 13 15.769531 L 14.355469 14.417969 C 14.546875 14.222656 14.546875 13.902344 14.355469 13.707031 C 14.160156 13.515625 13.839844 13.515625 13.644531 13.707031 L 13 14.355469 L 13 13.0625 C 13 12.785156 12.777344 12.5625 12.5 12.5625 C 12.222656 12.5625 12 12.785156 12 13.0625 L 12 16.855469 L 10.855469 15.707031 C 10.660156 15.515625 10.339844 15.515625 10.144531 15.707031 C 9.953125 15.902344 9.953125 16.21875 10.144531 16.414062 L 12 18.269531 L 12 20.039062 C 9.472656 19.785156 7.492188 17.648438 7.492188 15.054688 C 7.492188 12.394531 8.082031 9.429688 9.066406 7.117188 C 10.0625 4.777344 11.3125 3.4375 12.5 3.4375 C 13.683594 3.4375 14.933594 4.785156 15.933594 7.136719 C 16.917969 9.453125 17.507812 12.414062 17.507812 15.054688 C 17.507812 17.648438 15.527344 19.785156 13 20.039062 Z M 22 21.039062 L 22 20.269531 L 23.855469 18.417969 C 24.046875 18.222656 24.046875 17.90625 23.855469 17.710938 C 23.660156 17.515625 23.339844 17.515625 23.144531 17.710938 L 22 18.855469 L 22 15.5625 C 22 15.285156 21.777344 15.0625 21.5 15.0625 C 21.222656 15.0625 21 15.285156 21 15.5625 L 21 17.855469 L 19.855469 16.707031 C 19.660156 16.515625 19.339844 16.515625 19.144531 16.707031 C 18.953125 16.902344 18.953125 17.222656 19.144531 17.417969 L 21 19.269531 L 21 21.039062 C 19.464844 20.898438 18.058594 20.121094 17.121094 18.890625 C 17.988281 17.847656 18.507812 16.511719 18.507812 15.054688 C 18.507812 13.808594 18.382812 12.492188 18.148438 11.199219 C 19.105469 10.464844 20.289062 10.0625 21.5 10.0625 C 24.53125 10.0625 27 12.53125 27 15.5625 C 27 18.425781 24.800781 20.785156 22 21.039062 Z M 22 21.039062 "/>
</g>
</svg>
