<?xml version="1.0" encoding="UTF-8" standalone="no"?>
<svg
   version="1.1"
   id="Warstwa_1"
   x="0px"
   y="0px"
   viewBox="0 0 208.6 208.6"
   style="enable-background:new 0 0 208.6 208.6;"
   xml:space="preserve"
   width="208.6"
   height="208.6"
   sodipodi:docname="uploadpdf_load.svg"
   inkscape:version="1.1 (c4e8f9e, 2021-05-24)"
   xmlns:inkscape="http://www.inkscape.org/namespaces/inkscape"
   xmlns:sodipodi="http://sodipodi.sourceforge.net/DTD/sodipodi-0.dtd"
   xmlns="http://www.w3.org/2000/svg"
   xmlns:svg="http://www.w3.org/2000/svg"
   xmlns:rdf="http://www.w3.org/1999/02/22-rdf-syntax-ns#"
   xmlns:cc="http://creativecommons.org/ns#"
   xmlns:dc="http://purl.org/dc/elements/1.1/"><metadata
   id="metadata173"><rdf:RDF><cc:Work
       rdf:about=""><dc:format>image/svg+xml</dc:format><dc:type
         rdf:resource="http://purl.org/dc/dcmitype/StillImage" /></cc:Work></rdf:RDF></metadata><defs
   id="defs171">   </defs><sodipodi:namedview
   pagecolor="#ffffff"
   bordercolor="#666666"
   borderopacity="1"
   objecttolerance="10"
   gridtolerance="10"
   guidetolerance="10"
   inkscape:pageopacity="0"
   inkscape:pageshadow="2"
   inkscape:window-width="1920"
   inkscape:window-height="1027"
   id="namedview169"
   showgrid="false"
   inkscape:zoom="1.3997036"
   inkscape:cx="-111.09495"
   inkscape:cy="56.79774"
   inkscape:window-x="0"
   inkscape:window-y="25"
   inkscape:window-maximized="0"
   inkscape:current-layer="Warstwa_1"
   inkscape:document-rotation="0"
   inkscape:pagecheckerboard="0" /> <style
   type="text/css"
   id="style152"> .st0{fill:#ED695C;} .st1{fill:none;stroke:#ED695C;stroke-width:5;stroke-miterlimit:10;} .st2{fill:none;stroke:#ED695C;stroke-width:5;stroke-linecap:round;stroke-miterlimit:10;} .st3{fill:#ED695C;stroke:#ED6A5C;stroke-miterlimit:10;} .st4{fill:#ED695C;stroke:#ED6A5C;stroke-width:1.5;stroke-miterlimit:10;} .st5{fill:none;stroke:#ED695C;stroke-width:4;stroke-miterlimit:10;} .st6{fill:none;stroke:#ED695C;stroke-miterlimit:10;} .st7{fill:none;stroke:#ED695C;stroke-width:4;stroke-linecap:round;stroke-miterlimit:10;} .st8{fill:#ED695C;stroke:#ED6A5C;stroke-width:0.5;stroke-miterlimit:10;} .st9{fill:none;stroke:#ED695C;stroke-width:2;stroke-miterlimit:10;} .st10{fill:#ED6A5C;} .st11{fill:#ED695C;stroke:#ED6A5C;stroke-width:0.25;stroke-miterlimit:10;} .st12{fill-rule:evenodd;clip-rule:evenodd;fill:#ED695C;} .st13{fill:#F2F2F2;} </style> <circle
   class="st1"
   cx="104.3"
   cy="104.3"
   r="101.8"
   id="circle154"
   style="fill:#ed695c;fill-opacity:1" /> <path
   id="path4680"
   style="fill:#ffffff;fill-opacity:1;stroke-width:0.219433"
   d="m 96.830078,25.916016 c -20.147618,-0.04593 -28.449811,0.0061 -29.394531,0.183593 -4.15291,0.77991 -7.603308,4.188243 -8.767578,8.658203 -0.26675,1.02377 -0.339844,2.620135 -0.339844,7.507813 v 6.207031 H 60.851562 63.375 v -6.142578 c 0,-5.530763 0.04329,-6.250863 0.423828,-7.251953 0.58883,-1.54972 1.781816,-2.918574 3.128906,-3.589844 l 1.142578,-0.570312 h 26.507813 26.509765 l 0.004,11.027343 c 0.002,6.069681 0.10145,11.698816 0.2207,12.523438 0.40999,2.83576 2.16249,5.360043 4.62109,6.654297 l 1.1875,0.625 11.24805,0.0625 11.24805,0.0625 -0.0566,41.958983 -0.0566,41.95899 -0.60157,1.13867 c -0.6997,1.32705 -1.83904,2.50052 -2.98046,3.06836 -0.67356,0.3351 -1.53112,0.50142 -5.1836,0.51172 l -14.26172,0.041 c -0.01,1.53203 -0.0182,3.2256 -0.0234,5.14844 4.5146,0.088 8.87304,0.0331 12.25196,-0.14258 6.6395,0 7.53741,-0.12555 9.90039,-1.37891 2.81042,-1.49069 5.23113,-4.88144 5.82031,-8.15234 0.16129,-0.89536 0.23442,-14.77442 0.23242,-44.43555 L 154.6543,58.457031 139.78125,42.21875 124.9082,25.980469 Z m 29.414062,8.908203 9.98242,10.910156 c 5.49133,6.000759 10.0185,10.997613 10.0586,11.103516 0.0412,0.108429 -3.69652,0.19 -8.5586,0.1875 -12.41157,-0.0069 -11.45427,0.829754 -11.54687,-10.087891 -0.0351,-4.163755 -0.0351,-8.592857 0,-9.841797 z m -67.923828,48.539062 0.05859,31.542969 0.05859,31.54297 0.597656,1.48828 c 1.52787,3.81341 4.385881,6.44812 7.925782,7.30664 0.703492,0.17062 9.048532,0.31786 18.021484,0.41602 l 41.470698,0.0391 0.0234,-5.14844 c -16.11534,-0.10313 -58.866288,-0.17508 -59.562498,-0.55469 -1.22234,-0.66653 -2.596307,-2.25183 -3.085937,-3.56054 C 63.378845,145.23587 63.375,144.99465 63.375,114.29492 V 83.363281 h -2.527344 z"
   sodipodi:nodetypes="cccscccsccccccccccccccsccccssccccccccccccccccscccccsccc" /><g
   id="g13874"
   style="fill:#ffffff;fill-opacity:1"
   transform="matrix(3.7795276,0,0,3.7795276,1.25676,-6.56677)"><path
     style="fill:#ffffff;fill-opacity:1;stroke-width:0.120533"
     d="m 12.465157,19.556076 v -3.977554 h 7.774306 7.774314 v 3.977554 l 0.100444,3.274411 h -7.774314 -7.774306 z m 2.290105,1.325853 v -0.602662 l 0.632795,-4.55e-4 c 0.891032,-9.12e-4 1.434038,-0.180226 1.844961,-0.609134 0.310068,-0.323645 0.354745,-0.459135 0.354745,-1.075842 0,-0.585163 -0.05143,-0.761297 -0.30133,-1.032142 -0.486017,-0.52674 -0.951547,-0.6571 -2.346499,-0.6571 h -1.269459 v 2.290105 2.290105 h 0.542395 0.542392 z m 0,-2.290111 v -0.723191 h 0.654317 c 0.75282,0 1.033132,0.196699 1.033132,0.724967 0,0.4678 -0.390793,0.721417 -1.111606,0.721417 h -0.575843 z m 7.252192,2.465886 c 0.646946,-0.45426 0.930674,-1.010081 0.938191,-1.837895 0.0098,-1.078533 -0.524234,-1.828894 -1.548979,-2.176467 -0.225343,-0.07643 -0.998255,-0.138966 -1.717578,-0.138966 h -1.307869 v 2.29968 2.299686 l 1.55706,-0.03972 c 1.510775,-0.03854 1.572581,-0.05061 2.079175,-0.406321 z M 19.456006,19.19448 v -1.325853 h 0.668913 c 0.85082,0 1.347948,0.255123 1.580184,0.810949 0.245183,0.586804 0.122927,1.147737 -0.333929,1.532161 -0.310197,0.261014 -0.486122,0.308597 -1.140957,0.308597 h -0.774211 z m 5.423938,1.506649 v -0.783458 h 1.024522 1.024524 v -0.482126 -0.48213 h -1.024524 -1.024522 v -0.538027 -0.538033 l 1.175187,-0.03448 1.175187,-0.03448 0.03741,-0.451991 0.0374,-0.451997 h -1.815253 -1.815259 v 2.290105 2.290111 h 0.602662 0.602661 z"
     id="path11466"
     sodipodi:nodetypes="ccccccccccccssssccccccccsssccscsscccsssccssssccccccccccccccccccccccc" /><rect
     style="fill:#ffffff;fill-opacity:1;stroke:none;stroke-width:1.58879;stroke-linejoin:miter;stroke-miterlimit:4;stroke-dasharray:none;stroke-opacity:1"
     id="rect12954"
     width="1.7103823"
     height="7.2519646"
     x="27.711792"
     y="15.578522" /><rect
     style="fill:#ffffff;fill-opacity:1;stroke:none;stroke-width:1.30227;stroke-linejoin:miter;stroke-miterlimit:4;stroke-dasharray:none;stroke-opacity:1"
     id="rect12954-2"
     width="1.1491163"
     height="7.2519646"
     x="11.93599"
     y="15.578522" /></g><path
   style="fill:#ffffff;fill-opacity:1;stroke:#ed695c;stroke-width:6;stroke-linecap:square;stroke-miterlimit:4;stroke-dasharray:none;stroke-opacity:1;paint-order:stroke markers fill"
   d="m 102.95268,232.91434 c 0.26872,0.2163 3.32288,4.07487 6.78702,8.57453 3.46414,4.49968 10.35124,13.42022 15.30468,19.82343 5.36669,6.93742 9.00627,11.91436 9.00627,12.31566 0,0.37039 -0.27045,1.00774 -0.60095,1.4163 -0.59108,0.73066 -0.70599,0.74435 -7.00125,0.83416 -5.5111,0.0786 -6.45496,0.1635 -6.79364,0.6108 -0.30572,0.40377 -0.39336,5.30061 -0.39336,21.9909 v 21.47144 l -0.8291,0.65215 c -0.8138,0.64014 -1.12073,0.65217 -16.66231,0.65217 -16.201356,0 -17.075416,-0.0606 -17.654836,-1.22261 -0.13924,-0.27944 -0.3241,-10.27832 -0.4106,-22.21976 l -0.15734,-21.71173 -6.49712,-0.15734 c -5.81675,-0.14082 -6.56639,-0.2201 -7.15858,-0.75676 -0.36935,-0.33467 -0.66144,-0.98517 -0.66144,-1.47279 0,-0.91018 0.30237,-1.32077 14.00073,-19.01019 18.794106,-24.26981 17.081836,-22.1837 18.208276,-22.1837 0.56369,0 1.24483,0.17701 1.51354,0.39335 z"
   id="path4680-2-8"
   sodipodi:nodetypes="cssssssscsssscssssssc" /></svg>
