<?xml version="1.0" encoding="UTF-8"?>
<svg xmlns="http://www.w3.org/2000/svg" xmlns:xlink="http://www.w3.org/1999/xlink" width="28pt" height="28pt" viewBox="0 0 28 28" version="1.1">
<g id="surface1">
<path style=" stroke:none;fill-rule:nonzero;fill:rgb(0%,0%,0%);fill-opacity:1;" d="M 24.636719 0 L 3.363281 0 C 2.832031 0 2.402344 0.429688 2.402344 0.960938 L 2.402344 25.90625 C 2.402344 26.4375 2.832031 26.867188 3.363281 26.867188 L 4.1875 26.867188 L 4.1875 27.488281 C 4.1875 27.769531 4.417969 28 4.699219 28 L 6.070312 28 C 6.351562 28 6.582031 27.769531 6.582031 27.488281 L 6.582031 26.867188 L 21.417969 26.867188 L 21.417969 27.488281 C 21.417969 27.769531 21.648438 28 21.929688 28 L 23.300781 28 C 23.582031 28 23.8125 27.769531 23.8125 27.488281 L 23.8125 26.867188 L 24.636719 26.867188 C 25.167969 26.867188 25.597656 26.4375 25.597656 25.90625 L 25.597656 0.960938 C 25.597656 0.429688 25.167969 0 24.636719 0 Z M 13.105469 24.945312 L 4.324219 24.945312 L 4.324219 7.390625 L 13.105469 7.390625 Z M 13.105469 5.46875 L 4.324219 5.46875 L 4.324219 1.921875 L 13.105469 1.921875 Z M 23.675781 24.945312 L 15.023438 24.945312 L 15.023438 7.390625 L 23.675781 7.390625 Z M 23.675781 5.46875 L 15.023438 5.46875 L 15.023438 1.921875 L 23.675781 1.921875 Z M 23.675781 5.46875 "/>
<path style=" stroke:none;fill-rule:nonzero;fill:rgb(0%,0%,0%);fill-opacity:1;" d="M 10.84375 12.070312 C 10.3125 12.070312 9.882812 12.5 9.882812 13.03125 L 9.882812 17.109375 C 9.882812 17.636719 10.3125 18.066406 10.84375 18.066406 C 11.375 18.066406 11.804688 17.636719 11.804688 17.109375 L 11.804688 13.03125 C 11.804688 12.5 11.375 12.070312 10.84375 12.070312 Z M 10.84375 12.070312 "/>
<path style=" stroke:none;fill-rule:nonzero;fill:rgb(0%,0%,0%);fill-opacity:1;" d="M 17.085938 12.070312 C 16.554688 12.070312 16.125 12.5 16.125 13.03125 L 16.125 17.109375 C 16.125 17.636719 16.554688 18.066406 17.085938 18.066406 C 17.617188 18.066406 18.046875 17.636719 18.046875 17.109375 L 18.046875 13.03125 C 18.046875 12.5 17.617188 12.070312 17.085938 12.070312 Z M 17.085938 12.070312 "/>
</g>
</svg>
