<?xml version="1.0" encoding="UTF-8"?>
<svg xmlns="http://www.w3.org/2000/svg" xmlns:xlink="http://www.w3.org/1999/xlink" width="28pt" height="28pt" viewBox="0 0 28 28" version="1.1">
<g id="surface1">
<path style=" stroke:none;fill-rule:nonzero;fill:rgb(0%,0%,0%);fill-opacity:1;" d="M 2.609375 8.007812 L 1.519531 3.261719 C 1.445312 2.9375 1.648438 2.609375 1.972656 2.535156 C 2.300781 2.460938 2.628906 2.664062 2.703125 2.992188 L 3.855469 8.007812 L 8.410156 8.007812 L 8.410156 0 L 2.546875 0 C 1.597656 0 0.828125 0.769531 0.828125 1.71875 L 0.828125 8.007812 Z M 2.609375 8.007812 "/>
<path style=" stroke:none;fill-rule:nonzero;fill:rgb(0%,0%,0%);fill-opacity:1;" d="M 3.453125 11.933594 C 3.777344 11.851562 4.109375 12.046875 4.191406 12.371094 L 5.574219 17.734375 L 8.410156 17.734375 L 8.410156 9.222656 L 0.828125 9.222656 L 0.828125 17.734375 L 2.085938 17.734375 L 1.050781 13.167969 C 0.976562 12.84375 1.179688 12.515625 1.507812 12.441406 C 1.832031 12.367188 2.160156 12.574219 2.234375 12.898438 L 3.300781 17.597656 C 3.3125 17.644531 3.316406 17.6875 3.316406 17.734375 L 4.320312 17.734375 L 3.015625 12.671875 C 2.933594 12.347656 3.128906 12.019531 3.453125 11.933594 Z M 3.453125 11.933594 "/>
<path style=" stroke:none;fill-rule:nonzero;fill:rgb(0%,0%,0%);fill-opacity:1;" d="M 9.625 28 L 17.71875 28 L 17.71875 0 L 9.625 0 Z M 14.441406 13.394531 L 15.128906 13.394531 C 15.464844 13.394531 15.734375 13.664062 15.734375 14 C 15.734375 14.335938 15.464844 14.605469 15.128906 14.605469 L 14.441406 14.605469 C 14.105469 14.605469 13.832031 14.335938 13.832031 14 C 13.832031 13.664062 14.105469 13.394531 14.441406 13.394531 Z M 14.441406 13.394531 "/>
<path style=" stroke:none;fill-rule:nonzero;fill:rgb(0%,0%,0%);fill-opacity:1;" d="M 8.410156 18.945312 L 0.828125 18.945312 L 0.828125 26.28125 C 0.828125 27.230469 1.597656 28 2.546875 28 L 8.410156 28 Z M 8.410156 18.945312 "/>
<path style=" stroke:none;fill-rule:nonzero;fill:rgb(0%,0%,0%);fill-opacity:1;" d="M 25.453125 0 L 18.933594 0 L 18.933594 28 L 25.453125 28 C 26.402344 28 27.171875 27.230469 27.171875 26.28125 L 27.171875 1.71875 C 27.171875 0.769531 26.402344 0 25.453125 0 Z M 22.207031 14.605469 L 21.519531 14.605469 C 21.1875 14.605469 20.914062 14.335938 20.914062 14 C 20.914062 13.664062 21.1875 13.394531 21.519531 13.394531 L 22.207031 13.394531 C 22.542969 13.394531 22.816406 13.664062 22.816406 14 C 22.816406 14.335938 22.542969 14.605469 22.207031 14.605469 Z M 22.207031 14.605469 "/>
</g>
</svg>
