<?xml version="1.0" encoding="UTF-8"?>
<svg xmlns="http://www.w3.org/2000/svg" xmlns:xlink="http://www.w3.org/1999/xlink" width="28pt" height="28pt" viewBox="0 0 28 28" version="1.1">
<g id="surface1">
<path style=" stroke:none;fill-rule:nonzero;fill:rgb(0%,0%,0%);fill-opacity:1;" d="M 27.859375 12.019531 C 27.851562 11.882812 27.789062 11.753906 27.6875 11.664062 C 27.472656 11.484375 27.152344 11.507812 26.96875 11.71875 C 24.730469 14.320312 23.148438 13.070312 21.398438 11.679688 C 20.070312 10.625 18.65625 9.503906 16.792969 9.503906 C 16.167969 9.503906 15.550781 9.632812 14.980469 9.894531 C 14.613281 10.0625 14.273438 10.292969 13.972656 10.570312 C 13.675781 10.292969 13.335938 10.066406 12.964844 9.894531 C 12.398438 9.636719 11.777344 9.503906 11.152344 9.507812 C 9.28125 9.507812 7.621094 10.640625 6.09375 11.683594 C 5.585938 12.027344 5.09375 12.363281 4.625 12.632812 C 3.292969 13.398438 2.097656 13.625 1.042969 11.816406 C 0.910156 11.566406 0.601562 11.472656 0.355469 11.605469 C 0.210938 11.683594 0.109375 11.824219 0.0898438 11.988281 C -0.046875 12.882812 -0.0273438 13.796875 0.148438 14.683594 C 0.355469 15.726562 0.933594 16.660156 1.777344 17.304688 C 2.605469 17.894531 3.570312 18.257812 4.582031 18.359375 C 6.097656 18.523438 7.628906 18.425781 9.113281 18.070312 C 10.21875 17.84375 11.289062 17.460938 12.289062 16.9375 C 12.914062 16.605469 13.484375 16.171875 13.972656 15.65625 C 14.460938 16.167969 15.03125 16.59375 15.652344 16.925781 C 16.65625 17.449219 17.722656 17.832031 18.828125 18.058594 C 20.3125 18.414062 21.84375 18.511719 23.359375 18.347656 C 24.371094 18.246094 25.335938 17.882812 26.164062 17.292969 C 27.007812 16.648438 27.589844 15.71875 27.792969 14.675781 C 27.96875 13.800781 27.988281 12.902344 27.859375 12.019531 Z M 27.859375 12.019531 "/>
</g>
</svg>
