<?xml version="1.0" encoding="UTF-8"?>
<svg xmlns="http://www.w3.org/2000/svg" xmlns:xlink="http://www.w3.org/1999/xlink" width="28pt" height="28pt" viewBox="0 0 28 28" version="1.1">
<g id="surface1">
<path style=" stroke:none;fill-rule:nonzero;fill:rgb(0%,0%,0%);fill-opacity:1;" d="M 26.390625 5.605469 L 1.609375 5.605469 C 0.722656 5.605469 0 6.328125 0 7.214844 L 0 10.796875 C 0 11.6875 0.722656 12.40625 1.609375 12.40625 L 2.757812 12.40625 L 1.265625 21.71875 C 1.214844 22.035156 1.429688 22.335938 1.75 22.386719 C 1.78125 22.390625 1.8125 22.394531 1.84375 22.394531 C 2.125 22.394531 2.371094 22.191406 2.417969 21.902344 L 3.941406 12.40625 L 24.058594 12.40625 L 25.582031 21.902344 C 25.628906 22.191406 25.875 22.394531 26.15625 22.394531 C 26.1875 22.394531 26.21875 22.390625 26.25 22.386719 C 26.570312 22.335938 26.785156 22.035156 26.734375 21.71875 L 25.242188 12.40625 L 26.390625 12.40625 C 27.277344 12.40625 28 11.6875 28 10.796875 L 28 7.214844 C 28 6.328125 27.277344 5.605469 26.390625 5.605469 Z M 14.933594 9.589844 L 13.066406 9.589844 C 12.742188 9.589844 12.480469 9.328125 12.480469 9.007812 C 12.480469 8.683594 12.742188 8.421875 13.066406 8.421875 L 14.933594 8.421875 C 15.257812 8.421875 15.519531 8.683594 15.519531 9.007812 C 15.519531 9.328125 15.257812 9.589844 14.933594 9.589844 Z M 14.933594 9.589844 "/>
</g>
</svg>
