<?xml version="1.0" encoding="UTF-8"?>
<svg xmlns="http://www.w3.org/2000/svg" xmlns:xlink="http://www.w3.org/1999/xlink" width="14pt" height="14pt" viewBox="0 0 14 14" version="1.1">
<g id="surface1">
<path style=" stroke:none;fill-rule:nonzero;fill:rgb(0%,0%,0%);fill-opacity:1;" d="M 9.703125 1.816406 C 10.070312 1.421875 10.367188 0.941406 10.5 0.351562 C 10.53125 0.195312 10.4375 0.0390625 10.28125 0.0078125 C 10.125 -0.0273438 9.96875 0.0703125 9.9375 0.226562 C 9.828125 0.703125 9.582031 1.101562 9.273438 1.425781 C 9.242188 1.417969 9.210938 1.414062 9.175781 1.414062 C 8.941406 1.414062 8.714844 1.65625 8.507812 2.046875 C 8.226562 2.226562 7.953125 2.367188 7.71875 2.46875 C 8 2.007812 8.28125 1.3125 8.367188 0.3125 C 8.378906 0.15625 8.261719 0.015625 8.101562 0.00390625 C 7.945312 -0.0117188 7.804688 0.105469 7.789062 0.265625 C 7.664062 1.757812 7.058594 2.453125 6.839844 2.664062 L 6.679688 2.664062 C 6.460938 2.457031 5.851562 1.757812 5.726562 0.265625 C 5.710938 0.105469 5.574219 -0.0117188 5.414062 0.00390625 C 5.257812 0.015625 5.136719 0.15625 5.148438 0.3125 C 5.234375 1.3125 5.523438 2.007812 5.800781 2.46875 C 5.0625 2.148438 3.851562 1.449219 3.582031 0.226562 C 3.546875 0.0703125 3.390625 -0.0273438 3.238281 0.0078125 C 3.082031 0.0390625 2.984375 0.195312 3.015625 0.351562 C 3.367188 1.945312 4.945312 2.757812 5.753906 3.078125 C 5.742188 3.117188 5.742188 3.15625 5.742188 3.195312 C 5.742188 3.492188 5.976562 3.730469 6.273438 3.730469 L 6.46875 3.730469 L 6.46875 12.898438 L 5.335938 12.898438 C 5.03125 12.898438 4.789062 13.144531 4.789062 13.449219 C 4.789062 13.753906 5.03125 14 5.335938 14 L 8.179688 14 C 8.484375 14 8.730469 13.753906 8.730469 13.449219 C 8.730469 13.144531 8.484375 12.898438 8.179688 12.898438 L 7.046875 12.898438 L 7.046875 3.730469 L 7.242188 3.730469 C 7.539062 3.730469 7.777344 3.492188 7.777344 3.195312 C 7.777344 3.15625 7.773438 3.117188 7.765625 3.078125 C 7.882812 3.03125 8.011719 2.976562 8.15625 2.90625 C 7.675781 4.320312 7.363281 6.34375 7.363281 7.15625 C 7.363281 8.46875 8.171875 7.078125 9.175781 7.078125 C 10.179688 7.078125 10.988281 8.46875 10.988281 7.15625 C 10.988281 6.085938 10.449219 2.9375 9.703125 1.816406 Z M 9.703125 1.816406 "/>
</g>
</svg>
