<?xml version="1.0" encoding="UTF-8"?>
<svg xmlns="http://www.w3.org/2000/svg" xmlns:xlink="http://www.w3.org/1999/xlink" width="28pt" height="28pt" viewBox="0 0 28 28" version="1.1">
<g id="surface1">
<path style=" stroke:none;fill-rule:nonzero;fill:rgb(0%,0%,0%);fill-opacity:1;" d="M 24.328125 23.742188 L 24.328125 15.5625 C 25.066406 15.5 25.648438 14.882812 25.648438 14.125 L 25.648438 12.847656 C 25.648438 12.488281 25.355469 12.195312 24.996094 12.195312 L 3.078125 12.195312 C 2.71875 12.195312 2.425781 12.488281 2.425781 12.847656 L 2.425781 14.125 C 2.425781 14.855469 2.96875 15.460938 3.671875 15.554688 L 3.671875 23.738281 C 2.714844 23.945312 1.996094 24.796875 1.996094 25.8125 L 1.996094 25.878906 C 1.996094 27.046875 2.945312 28 4.117188 28 L 23.882812 28 C 25.054688 28 26.003906 27.046875 26.003906 25.878906 L 26.003906 25.8125 C 26.003906 24.796875 25.285156 23.945312 24.328125 23.742188 Z M 13.476562 21.222656 C 13.476562 21.972656 12.863281 22.585938 12.113281 22.585938 L 7.910156 22.585938 C 7.160156 22.585938 6.546875 21.972656 6.546875 21.222656 L 6.546875 15.570312 L 8.1875 15.570312 L 8.1875 17.597656 C 8.1875 17.679688 8.273438 17.734375 8.351562 17.703125 L 11.765625 16.21875 C 11.808594 16.203125 11.835938 16.160156 11.835938 16.113281 L 11.835938 15.570312 L 13.476562 15.570312 Z M 21.628906 21.222656 C 21.628906 21.972656 21.019531 22.585938 20.269531 22.585938 L 16.0625 22.585938 C 15.3125 22.585938 14.703125 21.972656 14.703125 21.222656 L 14.703125 20.320312 C 14.703125 20.308594 14.703125 20.296875 14.703125 20.285156 L 14.703125 15.570312 L 16.34375 15.570312 L 16.34375 18.652344 C 16.34375 18.742188 16.441406 18.796875 16.519531 18.75 L 19.933594 16.730469 C 19.96875 16.707031 19.988281 16.671875 19.988281 16.628906 L 19.988281 15.570312 L 21.628906 15.570312 Z M 21.628906 21.222656 "/>
<path style=" stroke:none;fill-rule:nonzero;fill:rgb(0%,0%,0%);fill-opacity:1;" d="M 19.8125 18.707031 L 16.402344 20.726562 C 16.367188 20.75 16.34375 20.785156 16.34375 20.828125 C 16.34375 20.890625 16.398438 20.941406 16.460938 20.941406 L 19.875 20.941406 C 19.9375 20.941406 19.988281 20.890625 19.988281 20.828125 L 19.988281 18.804688 C 19.988281 18.714844 19.890625 18.660156 19.8125 18.707031 Z M 19.8125 18.707031 "/>
<path style=" stroke:none;fill-rule:nonzero;fill:rgb(0%,0%,0%);fill-opacity:1;" d="M 11.671875 18.042969 L 8.257812 19.527344 C 8.214844 19.546875 8.1875 19.585938 8.1875 19.632812 L 8.1875 20.828125 C 8.1875 20.890625 8.242188 20.941406 8.304688 20.941406 L 11.71875 20.941406 C 11.78125 20.941406 11.832031 20.890625 11.832031 20.828125 L 11.832031 18.152344 C 11.835938 18.066406 11.75 18.011719 11.671875 18.042969 Z M 11.671875 18.042969 "/>
<path style=" stroke:none;fill-rule:nonzero;fill:rgb(0%,0%,0%);fill-opacity:1;" d="M 26.039062 0 L 1.960938 0 C 1.507812 0 1.136719 0.367188 1.136719 0.820312 C 1.136719 1.273438 1.507812 1.640625 1.960938 1.640625 L 2.425781 1.640625 L 2.425781 2.941406 C 2.425781 3.304688 2.71875 3.597656 3.078125 3.597656 L 24.996094 3.597656 C 25.355469 3.597656 25.648438 3.304688 25.648438 2.941406 L 25.648438 1.640625 L 26.039062 1.640625 C 26.492188 1.640625 26.863281 1.273438 26.863281 0.820312 C 26.863281 0.367188 26.492188 0 26.039062 0 Z M 26.039062 0 "/>
<path style=" stroke:none;fill-rule:nonzero;fill:rgb(0%,0%,0%);fill-opacity:1;" d="M 24.996094 8.773438 L 3.078125 8.773438 C 2.71875 8.773438 2.425781 9.066406 2.425781 9.425781 L 2.425781 9.902344 C 2.425781 10.261719 2.71875 10.554688 3.078125 10.554688 L 24.996094 10.554688 C 25.355469 10.554688 25.648438 10.261719 25.648438 9.902344 L 25.648438 9.425781 C 25.648438 9.066406 25.355469 8.773438 24.996094 8.773438 Z M 24.996094 8.773438 "/>
<path style=" stroke:none;fill-rule:nonzero;fill:rgb(0%,0%,0%);fill-opacity:1;" d="M 24.996094 5.238281 L 3.078125 5.238281 C 2.71875 5.238281 2.425781 5.527344 2.425781 5.890625 L 2.425781 6.480469 C 2.425781 6.839844 2.71875 7.132812 3.078125 7.132812 L 24.996094 7.132812 C 25.355469 7.132812 25.648438 6.839844 25.648438 6.480469 L 25.648438 5.890625 C 25.648438 5.527344 25.355469 5.238281 24.996094 5.238281 Z M 24.996094 5.238281 "/>
</g>
</svg>
