<?xml version="1.0" encoding="UTF-8"?>
<svg xmlns="http://www.w3.org/2000/svg" xmlns:xlink="http://www.w3.org/1999/xlink" width="28px" height="px" viewBox="0 0 28 28" version="1.1">
<g id="surface1">
<path style=" stroke:none;fill-rule:nonzero;fill:rgb(0%,0%,0%);fill-opacity:1;" d="M 0 0.964844 L 0 1.929688 L 1.007812 1.929688 L 1.007812 28 L 10.976562 28 L 10.976562 26.234375 L 17.023438 26.234375 L 17.023438 28 L 26.992188 28 L 26.992188 1.929688 L 28 1.929688 L 28 0 L 0 0 Z M 8.988281 14 L 8.988281 26.042969 L 5.980469 26.058594 L 2.96875 26.070312 L 2.96875 1.929688 L 5.980469 1.941406 L 8.988281 1.957031 Z M 12.992188 13.117188 L 12.992188 24.308594 L 10.976562 24.308594 L 10.976562 1.929688 L 12.992188 1.929688 Z M 17.023438 13.117188 L 17.023438 24.308594 L 16.003906 24.296875 L 14.980469 24.28125 L 14.964844 13.171875 C 14.957031 7.066406 14.964844 2.035156 14.980469 1.996094 C 14.996094 1.945312 15.261719 1.929688 16.015625 1.929688 L 17.023438 1.929688 Z M 25.03125 14 L 25.03125 26.070312 L 22.023438 26.058594 L 19.011719 26.042969 L 18.996094 14.054688 C 18.988281 7.464844 18.996094 2.035156 19.011719 1.996094 C 19.027344 1.945312 19.691406 1.929688 22.035156 1.929688 L 25.03125 1.929688 Z M 25.03125 14 "/>
</g>
</svg>
