<?xml version="1.0" encoding="UTF-8"?>
<svg xmlns="http://www.w3.org/2000/svg" xmlns:xlink="http://www.w3.org/1999/xlink" width="28pt" height="28pt" viewBox="0 0 28 28" version="1.1">
<g id="surface1">
<path style=" stroke:none;fill-rule:nonzero;fill:rgb(0%,0%,0%);fill-opacity:1;" d="M 26.359375 4.308594 L 26.359375 2.515625 L 27.179688 2.515625 C 27.632812 2.515625 28 2.148438 28 1.695312 C 28 1.242188 27.632812 0.875 27.179688 0.875 L 0.820312 0.875 C 0.367188 0.875 0 1.242188 0 1.695312 C 0 2.148438 0.367188 2.515625 0.820312 2.515625 L 1.640625 2.515625 L 1.640625 4.308594 C 0.6875 4.648438 0 5.550781 0 6.617188 L 0 26.304688 C 0 26.757812 0.367188 27.125 0.820312 27.125 C 1.273438 27.125 1.640625 26.757812 1.640625 26.304688 C 1.640625 25.851562 2.007812 25.484375 2.460938 25.484375 C 2.914062 25.484375 3.28125 25.851562 3.28125 26.304688 C 3.28125 26.757812 3.648438 27.125 4.101562 27.125 C 4.554688 27.125 4.921875 26.757812 4.921875 26.304688 C 4.921875 25.851562 5.289062 25.484375 5.742188 25.484375 C 6.195312 25.484375 6.5625 25.851562 6.5625 26.304688 C 6.5625 26.757812 6.929688 27.125 7.382812 27.125 C 7.835938 27.125 8.203125 26.757812 8.203125 26.304688 L 8.203125 6.617188 C 8.203125 5.550781 7.515625 4.648438 6.5625 4.308594 L 6.5625 2.515625 L 21.4375 2.515625 L 21.4375 4.308594 C 20.484375 4.648438 19.796875 5.550781 19.796875 6.617188 L 19.796875 26.304688 C 19.796875 26.757812 20.164062 27.125 20.617188 27.125 C 21.070312 27.125 21.4375 26.757812 21.4375 26.304688 C 21.4375 25.851562 21.804688 25.484375 22.257812 25.484375 C 22.710938 25.484375 23.078125 25.851562 23.078125 26.304688 C 23.078125 26.757812 23.445312 27.125 23.898438 27.125 C 24.351562 27.125 24.71875 26.757812 24.71875 26.304688 C 24.71875 25.851562 25.085938 25.484375 25.539062 25.484375 C 25.992188 25.484375 26.359375 25.851562 26.359375 26.304688 C 26.359375 26.757812 26.726562 27.125 27.179688 27.125 C 27.632812 27.125 28 26.757812 28 26.304688 L 28 6.617188 C 28 5.550781 27.3125 4.648438 26.359375 4.308594 Z M 4.921875 4.316406 C 4.617188 4.425781 4.335938 4.582031 4.101562 4.796875 C 3.867188 4.582031 3.585938 4.425781 3.28125 4.316406 L 3.28125 2.515625 L 4.921875 2.515625 Z M 24.71875 4.316406 C 24.414062 4.425781 24.132812 4.582031 23.898438 4.796875 C 23.664062 4.582031 23.382812 4.425781 23.078125 4.316406 L 23.078125 2.515625 L 24.71875 2.515625 Z M 24.71875 4.316406 "/>
<path style=" stroke:none;fill-rule:nonzero;fill:rgb(0%,0%,0%);fill-opacity:1;" d="M 9.84375 18.921875 L 18.15625 18.921875 L 18.15625 22.203125 L 9.84375 22.203125 Z M 9.84375 18.921875 "/>
<path style=" stroke:none;fill-rule:nonzero;fill:rgb(0%,0%,0%);fill-opacity:1;" d="M 9.84375 5.796875 L 13.179688 5.796875 L 13.179688 17.28125 L 9.84375 17.28125 Z M 9.84375 5.796875 "/>
<path style=" stroke:none;fill-rule:nonzero;fill:rgb(0%,0%,0%);fill-opacity:1;" d="M 14.820312 5.796875 L 18.15625 5.796875 L 18.15625 17.28125 L 14.820312 17.28125 Z M 14.820312 5.796875 "/>
</g>
</svg>
