<?xml version="1.0" encoding="UTF-8"?>
<svg xmlns="http://www.w3.org/2000/svg" xmlns:xlink="http://www.w3.org/1999/xlink" width="28pt" height="28pt" viewBox="0 0 28 28" version="1.1">
<g id="surface1">
<path style=" stroke:none;fill-rule:evenodd;fill:rgb(0%,0%,0%);fill-opacity:1;" d="M 17.328125 14 L 27.3125 4.015625 C 28.230469 3.097656 28.230469 1.609375 27.3125 0.6875 C 26.390625 -0.230469 24.902344 -0.230469 23.984375 0.6875 L 14 10.671875 L 4.015625 0.6875 C 3.097656 -0.230469 1.609375 -0.230469 0.6875 0.6875 C -0.230469 1.609375 -0.230469 3.097656 0.6875 4.015625 L 10.671875 14 L 0.6875 23.984375 C -0.230469 24.902344 -0.230469 26.390625 0.6875 27.3125 C 1.609375 28.230469 3.097656 28.230469 4.015625 27.3125 L 14 17.328125 L 23.984375 27.3125 C 24.902344 28.230469 26.390625 28.230469 27.3125 27.3125 C 28.230469 26.390625 28.230469 24.902344 27.3125 23.984375 Z M 17.328125 14 "/>
</g>
</svg>
