<?xml version="1.0" encoding="UTF-8"?>
<svg xmlns="http://www.w3.org/2000/svg" xmlns:xlink="http://www.w3.org/1999/xlink" width="28pt" height="28pt" viewBox="0 0 28 28" version="1.1">
<g id="surface1">
<path style=" stroke:none;fill-rule:nonzero;fill:rgb(0%,0%,0%);fill-opacity:1;" d="M 14 13.910156 C 13.453125 13.910156 13.011719 13.46875 13.011719 12.925781 L 13.011719 0.984375 C 13.011719 0.441406 13.453125 0 14 0 C 14.542969 0 14.984375 0.441406 14.984375 0.984375 L 14.984375 12.925781 C 14.984375 13.46875 14.542969 13.910156 14 13.910156 Z M 14 13.910156 "/>
<path style=" stroke:none;fill-rule:nonzero;fill:rgb(0%,0%,0%);fill-opacity:1;" d="M 14 27.996094 C 7.070312 27.996094 1.433594 22.359375 1.433594 15.433594 C 1.433594 12.664062 2.320312 10.035156 3.992188 7.835938 C 5.609375 5.707031 7.90625 4.125 10.460938 3.378906 C 10.980469 3.222656 11.53125 3.523438 11.683594 4.046875 C 11.835938 4.566406 11.535156 5.117188 11.015625 5.269531 C 6.535156 6.582031 3.40625 10.761719 3.40625 15.433594 C 3.40625 21.273438 8.160156 26.027344 14 26.027344 C 19.839844 26.027344 24.589844 21.273438 24.589844 15.433594 C 24.589844 10.761719 21.460938 6.582031 16.984375 5.269531 C 16.460938 5.117188 16.160156 4.566406 16.3125 4.046875 C 16.46875 3.523438 17.015625 3.222656 17.539062 3.378906 C 20.089844 4.125 22.386719 5.707031 24.003906 7.835938 C 25.679688 10.035156 26.5625 12.664062 26.5625 15.433594 C 26.5625 22.359375 20.925781 27.996094 14 27.996094 Z M 14 27.996094 "/>
</g>
</svg>
