<?xml version="1.0" encoding="UTF-8"?>
<svg xmlns="http://www.w3.org/2000/svg" xmlns:xlink="http://www.w3.org/1999/xlink" width="28pt" height="28pt" viewBox="0 0 28 28" version="1.1">
<g id="surface1">
<path style=" stroke:none;fill-rule:nonzero;fill:rgb(0%,0%,0%);fill-opacity:1;" d="M 27.808594 24.027344 C 26.679688 21.238281 24.0625 19.304688 21.085938 19.023438 C 20.429688 17.820312 19.476562 16.800781 18.3125 16.066406 C 17.179688 15.347656 15.894531 14.929688 14.558594 14.839844 L 14.558594 11.765625 L 16.773438 11.765625 C 21.214844 11.765625 24.828125 8.152344 24.828125 3.710938 L 24.828125 0.941406 C 24.828125 0.632812 24.578125 0.382812 24.269531 0.382812 L 21.496094 0.382812 C 18.09375 0.382812 15.179688 2.503906 14 5.492188 C 12.820312 2.503906 9.90625 0.382812 6.503906 0.382812 L 3.730469 0.382812 C 3.421875 0.382812 3.171875 0.632812 3.171875 0.941406 L 3.171875 3.710938 C 3.171875 8.152344 6.785156 11.765625 11.226562 11.765625 L 13.441406 11.765625 L 13.441406 14.839844 C 12.109375 14.929688 10.820312 15.351562 9.6875 16.066406 C 8.523438 16.800781 7.570312 17.820312 6.914062 19.023438 C 3.9375 19.304688 1.320312 21.238281 0.191406 24.027344 C -0.132812 24.828125 -0.0390625 25.734375 0.445312 26.453125 C 0.9375 27.183594 1.753906 27.617188 2.628906 27.617188 L 25.371094 27.617188 C 26.246094 27.617188 27.0625 27.183594 27.554688 26.453125 C 28.039062 25.734375 28.136719 24.828125 27.808594 24.027344 Z M 14.558594 8.4375 C 14.558594 4.609375 17.671875 1.496094 21.496094 1.496094 L 23.710938 1.496094 L 23.710938 3.710938 C 23.710938 7.539062 20.597656 10.652344 16.773438 10.652344 L 15.347656 10.652344 L 21.425781 4.570312 C 21.644531 4.351562 21.644531 4 21.425781 3.78125 C 21.210938 3.566406 20.855469 3.566406 20.636719 3.78125 L 14.558594 9.863281 Z M 6.574219 4.570312 L 12.652344 10.652344 L 11.226562 10.652344 C 7.402344 10.652344 4.289062 7.539062 4.289062 3.710938 L 4.289062 1.496094 L 6.503906 1.496094 C 10.328125 1.496094 13.441406 4.609375 13.441406 8.4375 L 13.441406 9.863281 L 7.363281 3.78125 C 7.144531 3.566406 6.789062 3.566406 6.574219 3.78125 C 6.355469 4 6.355469 4.351562 6.574219 4.570312 Z M 26.628906 25.832031 C 26.339844 26.257812 25.882812 26.503906 25.371094 26.503906 L 2.628906 26.503906 C 2.117188 26.503906 1.660156 26.257812 1.371094 25.832031 C 1.089844 25.414062 1.035156 24.910156 1.222656 24.445312 C 2.234375 21.957031 4.617188 20.257812 7.292969 20.113281 C 7.496094 20.101562 7.675781 19.984375 7.765625 19.804688 C 8.949219 17.417969 11.339844 15.933594 14 15.933594 C 16.351562 15.933594 18.488281 17.089844 19.773438 19.003906 C 19.195312 19.042969 18.621094 19.144531 18.070312 19.304688 C 17.773438 19.390625 17.601562 19.703125 17.6875 19.996094 C 17.757812 20.242188 17.980469 20.398438 18.222656 20.398438 C 18.277344 20.398438 18.328125 20.394531 18.378906 20.378906 C 19.007812 20.195312 19.664062 20.101562 20.324219 20.101562 L 20.707031 20.113281 C 23.382812 20.257812 25.765625 21.957031 26.777344 24.445312 C 26.964844 24.910156 26.910156 25.414062 26.628906 25.832031 Z M 26.628906 25.832031 "/>
<path style=" stroke:none;fill-rule:nonzero;fill:rgb(0%,0%,0%);fill-opacity:1;" d="M 16.734375 20.433594 C 16.566406 20.175781 16.222656 20.097656 15.960938 20.265625 C 15.871094 20.324219 15.777344 20.386719 15.6875 20.449219 C 15.4375 20.628906 15.375 20.976562 15.554688 21.226562 C 15.660156 21.382812 15.835938 21.464844 16.011719 21.464844 C 16.121094 21.464844 16.234375 21.429688 16.328125 21.363281 C 16.40625 21.308594 16.488281 21.253906 16.566406 21.203125 C 16.824219 21.039062 16.898438 20.691406 16.734375 20.433594 Z M 16.734375 20.433594 "/>
</g>
</svg>
