<?xml version="1.0" encoding="UTF-8"?>
<svg xmlns="http://www.w3.org/2000/svg" xmlns:xlink="http://www.w3.org/1999/xlink" width="28pt" height="28pt" viewBox="0 0 28 28" version="1.1">
<g id="surface1">
<path style=" stroke:none;fill-rule:nonzero;fill:rgb(0%,0%,0%);fill-opacity:1;" d="M 21.015625 27.179688 L 20.519531 27.179688 C 20.316406 25.695312 19.042969 24.550781 17.507812 24.550781 C 17.207031 24.550781 16.910156 24.59375 16.621094 24.683594 C 16.003906 24.121094 15.234375 23.78125 14.410156 23.695312 L 14.410156 21.410156 C 16.121094 21.3125 17.71875 20.601562 18.941406 19.378906 C 20.257812 18.058594 20.984375 16.304688 20.984375 14.4375 L 20.984375 10.929688 C 20.984375 9.476562 20.539062 8.078125 19.691406 6.890625 C 19.390625 6.46875 19.230469 5.953125 19.230469 5.390625 C 19.230469 2.472656 16.929688 0.0507812 14.097656 0 C 12.683594 -0.0234375 11.34375 0.507812 10.335938 1.5 C 9.324219 2.492188 8.769531 3.816406 8.769531 5.230469 L 8.769531 5.394531 C 8.769531 5.953125 8.609375 6.46875 8.308594 6.890625 C 7.460938 8.078125 7.015625 9.476562 7.015625 10.929688 L 7.015625 14.253906 C 7.015625 17.46875 9.121094 20.3125 12.132812 21.167969 C 12.351562 21.230469 12.578125 21.101562 12.640625 20.886719 C 12.703125 20.667969 12.574219 20.441406 12.359375 20.378906 C 9.695312 19.621094 7.835938 17.101562 7.835938 14.253906 L 7.835938 10.929688 C 7.835938 9.648438 8.230469 8.414062 8.976562 7.367188 C 9.375 6.804688 9.589844 6.125 9.589844 5.394531 L 9.589844 5.230469 C 9.589844 4.039062 10.058594 2.921875 10.910156 2.082031 C 11.761719 1.246094 12.886719 0.800781 14.082031 0.820312 C 16.46875 0.863281 18.410156 2.914062 18.410156 5.394531 C 18.410156 6.125 18.625 6.804688 19.023438 7.367188 C 19.769531 8.414062 20.164062 9.648438 20.164062 10.929688 L 20.164062 14.4375 C 20.164062 16.085938 19.523438 17.632812 18.359375 18.796875 C 17.292969 19.867188 15.902344 20.492188 14.410156 20.589844 L 14.410156 15.046875 L 16.363281 13.09375 L 17.507812 13.09375 C 17.734375 13.09375 17.917969 12.910156 17.917969 12.683594 C 17.917969 12.457031 17.734375 12.273438 17.507812 12.273438 L 16.601562 12.273438 L 16.601562 11.371094 C 16.601562 11.144531 16.417969 10.960938 16.191406 10.960938 C 15.964844 10.960938 15.78125 11.144531 15.78125 11.371094 L 15.78125 12.515625 L 14.410156 13.886719 L 14.410156 8.738281 C 14.410156 8.511719 14.226562 8.328125 14 8.328125 C 13.773438 8.328125 13.589844 8.511719 13.589844 8.738281 L 13.589844 11.257812 L 12.976562 10.640625 C 12.816406 10.480469 12.554688 10.480469 12.394531 10.640625 C 12.234375 10.800781 12.234375 11.0625 12.394531 11.222656 L 13.589844 12.417969 L 13.589844 17.394531 L 12.21875 16.023438 L 12.21875 14.875 C 12.21875 14.648438 12.035156 14.464844 11.808594 14.464844 C 11.582031 14.464844 11.398438 14.648438 11.398438 14.875 L 11.398438 15.78125 L 10.492188 15.78125 C 10.265625 15.78125 10.082031 15.964844 10.082031 16.191406 C 10.082031 16.417969 10.265625 16.601562 10.492188 16.601562 L 11.636719 16.601562 L 13.589844 18.554688 L 13.589844 23.695312 C 12.746094 23.78125 11.980469 24.140625 11.378906 24.679688 C 11.09375 24.59375 10.796875 24.550781 10.492188 24.550781 C 8.957031 24.550781 7.683594 25.695312 7.480469 27.179688 L 6.984375 27.179688 C 6.757812 27.179688 6.574219 27.363281 6.574219 27.589844 C 6.574219 27.816406 6.757812 28 6.984375 28 L 21.015625 28 C 21.242188 28 21.425781 27.816406 21.425781 27.589844 C 21.425781 27.363281 21.242188 27.179688 21.015625 27.179688 Z M 16.222656 25.4375 C 16.339844 25.558594 16.519531 25.597656 16.671875 25.53125 C 16.941406 25.425781 17.222656 25.371094 17.507812 25.371094 C 18.589844 25.371094 19.496094 26.152344 19.6875 27.179688 L 14.410156 27.179688 L 14.410156 24.519531 C 15.097656 24.609375 15.730469 24.929688 16.222656 25.4375 Z M 13.589844 24.519531 L 13.589844 27.179688 L 10.929688 27.179688 C 11.113281 25.800781 12.210938 24.703125 13.589844 24.519531 Z M 10.492188 25.371094 C 10.582031 25.371094 10.675781 25.375 10.761719 25.386719 C 10.40625 25.90625 10.171875 26.519531 10.105469 27.179688 L 8.3125 27.179688 C 8.503906 26.152344 9.410156 25.371094 10.492188 25.371094 Z M 10.492188 25.371094 "/>
</g>
</svg>
