<?xml version="1.0" encoding="UTF-8"?>
<svg xmlns="http://www.w3.org/2000/svg" xmlns:xlink="http://www.w3.org/1999/xlink" width="28pt" height="28pt" viewBox="0 0 28 28" version="1.1">
<g id="surface1">
<path style=" stroke:none;fill-rule:nonzero;fill:rgb(0%,0%,0%);fill-opacity:1;" d="M 10.679688 24.660156 C 10.679688 24.664062 10.679688 24.671875 10.679688 24.679688 C 10.679688 26.511719 12.167969 28 14 28 C 15.832031 28 17.320312 26.511719 17.320312 24.679688 C 17.320312 24.671875 17.320312 24.664062 17.320312 24.660156 Z M 10.679688 24.660156 "/>
<path style=" stroke:none;fill-rule:nonzero;fill:rgb(0%,0%,0%);fill-opacity:1;" d="M 24.597656 20.507812 L 21.613281 16.121094 C 21.613281 14.777344 21.613281 11.492188 21.613281 10.644531 C 21.613281 6.949219 18.980469 3.871094 15.492188 3.179688 L 15.492188 1.492188 C 15.492188 0.667969 14.824219 0 14 0 C 13.175781 0 12.507812 0.667969 12.507812 1.492188 L 12.507812 3.179688 C 9.019531 3.871094 6.386719 6.949219 6.386719 10.644531 C 6.386719 12.089844 6.386719 15.28125 6.386719 16.121094 L 3.402344 20.507812 C 3.085938 20.972656 3.050781 21.570312 3.3125 22.0625 C 3.574219 22.558594 4.089844 22.867188 4.648438 22.867188 L 23.351562 22.867188 C 23.910156 22.867188 24.425781 22.558594 24.6875 22.0625 C 24.949219 21.570312 24.914062 20.972656 24.597656 20.507812 Z M 24.597656 20.507812 "/>
</g>
</svg>
