<?xml version="1.0" encoding="UTF-8"?>
<svg xmlns="http://www.w3.org/2000/svg" xmlns:xlink="http://www.w3.org/1999/xlink" width="28pt" height="28pt" viewBox="0 0 28 28" version="1.1">
<g id="surface1">
<path style=" stroke:none;fill-rule:nonzero;fill:rgb(0%,0%,0%);fill-opacity:1;" d="M 25.539062 13.152344 L 21.871094 13.152344 C 21.3125 14.164062 20.234375 14.847656 19 14.847656 L 14.820312 14.847656 L 14.820312 27.832031 C 15.078125 27.921875 15.351562 27.972656 15.640625 27.972656 L 25.539062 27.972656 C 26.894531 27.972656 28 26.867188 28 25.511719 L 28 15.613281 C 28 14.257812 26.894531 13.152344 25.539062 13.152344 Z M 25 22.132812 C 25 23.453125 23.925781 24.527344 22.609375 24.527344 L 19.171875 24.527344 C 18.71875 24.527344 18.351562 24.160156 18.351562 23.707031 L 18.351562 17.417969 C 18.351562 16.964844 18.71875 16.597656 19.171875 16.597656 L 22.609375 16.597656 C 23.925781 16.597656 25 17.671875 25 18.992188 C 25 19.59375 24.777344 20.140625 24.410156 20.5625 C 24.777344 20.984375 25 21.53125 25 22.132812 Z M 25 22.132812 "/>
<path style=" stroke:none;fill-rule:nonzero;fill:rgb(0%,0%,0%);fill-opacity:1;" d="M 22.609375 21.382812 L 19.992188 21.382812 L 19.992188 22.886719 L 22.609375 22.886719 C 23.023438 22.886719 23.359375 22.546875 23.359375 22.132812 C 23.359375 21.71875 23.023438 21.382812 22.609375 21.382812 Z M 22.609375 21.382812 "/>
<path style=" stroke:none;fill-rule:nonzero;fill:rgb(0%,0%,0%);fill-opacity:1;" d="M 22.609375 18.238281 L 19.992188 18.238281 L 19.992188 19.742188 L 22.609375 19.742188 C 23.023438 19.742188 23.359375 19.40625 23.359375 18.992188 C 23.359375 18.578125 23.023438 18.238281 22.609375 18.238281 Z M 22.609375 18.238281 "/>
<path style=" stroke:none;fill-rule:nonzero;fill:rgb(0%,0%,0%);fill-opacity:1;" d="M 6.753906 19.253906 L 5.804688 21.152344 L 7.703125 21.152344 Z M 6.753906 19.253906 "/>
<path style=" stroke:none;fill-rule:nonzero;fill:rgb(0%,0%,0%);fill-opacity:1;" d="M 9.101562 14.847656 C 7.867188 14.847656 6.789062 14.164062 6.230469 13.152344 L 2.460938 13.152344 C 1.105469 13.152344 0 14.257812 0 15.613281 L 0 25.511719 C 0 26.867188 1.105469 27.972656 2.460938 27.972656 L 12.359375 27.972656 C 12.648438 27.972656 12.921875 27.921875 13.179688 27.832031 L 13.179688 14.847656 Z M 10.261719 24.4375 C 10.144531 24.496094 10.019531 24.527344 9.898438 24.527344 C 9.597656 24.527344 9.308594 24.359375 9.164062 24.070312 L 8.519531 22.785156 C 8.488281 22.789062 8.457031 22.792969 8.421875 22.792969 L 5.082031 22.792969 C 5.050781 22.792969 5.019531 22.789062 4.988281 22.785156 L 4.34375 24.070312 C 4.140625 24.476562 3.648438 24.640625 3.246094 24.4375 C 2.839844 24.238281 2.675781 23.742188 2.878906 23.339844 L 6.019531 17.054688 C 6.160156 16.773438 6.441406 16.597656 6.753906 16.597656 C 7.066406 16.597656 7.347656 16.773438 7.488281 17.054688 L 10.628906 23.339844 C 10.832031 23.742188 10.667969 24.238281 10.261719 24.4375 Z M 10.261719 24.4375 "/>
<path style=" stroke:none;fill-rule:nonzero;fill:rgb(0%,0%,0%);fill-opacity:1;" d="M 19 0.0273438 L 9.101562 0.0273438 C 8.199219 0.0273438 7.460938 0.761719 7.460938 1.667969 L 7.460938 11.566406 C 7.460938 12.472656 8.199219 13.207031 9.101562 13.207031 L 19 13.207031 C 19.90625 13.207031 20.640625 12.472656 20.640625 11.566406 L 20.640625 1.667969 C 20.640625 0.761719 19.90625 0.0273438 19 0.0273438 Z M 14.136719 8.941406 L 16.371094 8.941406 C 16.824219 8.941406 17.191406 9.308594 17.191406 9.761719 C 17.191406 10.210938 16.824219 10.582031 16.371094 10.582031 L 14.136719 10.582031 C 12.359375 10.582031 10.914062 9.132812 10.914062 7.355469 L 10.914062 5.878906 C 10.914062 4.101562 12.359375 2.652344 14.136719 2.652344 L 16.371094 2.652344 C 16.824219 2.652344 17.191406 3.019531 17.191406 3.472656 C 17.191406 3.925781 16.824219 4.292969 16.371094 4.292969 L 14.136719 4.292969 C 13.261719 4.292969 12.554688 5.003906 12.554688 5.878906 L 12.554688 7.355469 C 12.554688 8.230469 13.261719 8.941406 14.136719 8.941406 Z M 14.136719 8.941406 "/>
</g>
</svg>
