<?xml version="1.0" encoding="UTF-8"?>
<svg xmlns="http://www.w3.org/2000/svg" xmlns:xlink="http://www.w3.org/1999/xlink" width="28pt" height="28pt" viewBox="0 0 28 28" version="1.1">
<g id="surface1">
<path style=" stroke:none;fill-rule:nonzero;fill:rgb(0%,0%,0%);fill-opacity:1;" d="M 26.726562 17.484375 C 27.035156 17.417969 27.277344 17.183594 27.355469 16.878906 C 27.429688 16.574219 27.324219 16.253906 27.085938 16.050781 C 26.378906 15.460938 25.496094 15.117188 24.582031 15.070312 L 24.582031 13.105469 L 25.554688 13.105469 C 26.902344 13.105469 28 12.007812 28 10.65625 C 28 9.308594 26.902344 8.210938 25.554688 8.210938 L 14.820312 8.210938 L 14.820312 6.253906 C 16.113281 5.894531 17.066406 4.707031 17.066406 3.300781 C 17.066406 1.613281 15.691406 0.238281 14 0.238281 C 12.308594 0.238281 10.933594 1.613281 10.933594 3.300781 C 10.933594 4.707031 11.886719 5.894531 13.179688 6.253906 L 13.179688 8.210938 L 2.445312 8.210938 C 1.097656 8.210938 0 9.308594 0 10.65625 C 0 12.007812 1.097656 13.105469 2.445312 13.105469 L 3.417969 13.105469 L 3.417969 15.519531 C 1.808594 16.117188 0.660156 17.667969 0.660156 19.484375 C 0.660156 21.816406 2.554688 23.710938 4.886719 23.710938 C 5.878906 23.710938 6.839844 23.359375 7.601562 22.722656 C 7.839844 22.523438 7.945312 22.199219 7.867188 21.894531 C 7.792969 21.589844 7.550781 21.355469 7.242188 21.292969 C 6.394531 21.113281 5.777344 20.351562 5.777344 19.484375 C 5.777344 18.613281 6.394531 17.855469 7.242188 17.675781 C 7.550781 17.609375 7.792969 17.375 7.867188 17.070312 C 7.945312 16.765625 7.839844 16.445312 7.601562 16.242188 C 6.886719 15.644531 5.988281 15.300781 5.058594 15.261719 L 5.058594 13.105469 L 13.179688 13.105469 L 13.179688 18.484375 L 12.457031 20.125 L 10.5 19.914062 C 10.179688 19.878906 9.863281 20.035156 9.703125 20.320312 C 9.539062 20.601562 9.558594 20.949219 9.75 21.214844 L 10.914062 22.800781 L 9.75 24.386719 C 9.558594 24.648438 9.539062 25 9.703125 25.28125 C 9.863281 25.5625 10.179688 25.722656 10.5 25.6875 L 12.457031 25.472656 L 13.25 27.273438 C 13.378906 27.570312 13.675781 27.761719 14 27.761719 C 14.324219 27.761719 14.621094 27.570312 14.75 27.273438 L 15.542969 25.472656 L 17.5 25.6875 C 17.820312 25.722656 18.136719 25.5625 18.296875 25.28125 C 18.460938 25 18.441406 24.648438 18.25 24.386719 L 17.089844 22.800781 L 18.25 21.214844 C 18.441406 20.949219 18.460938 20.601562 18.296875 20.320312 C 18.136719 20.035156 17.820312 19.878906 17.5 19.914062 L 15.542969 20.125 L 14.820312 18.484375 L 14.820312 13.105469 L 22.941406 13.105469 L 22.941406 15.3125 C 21.3125 15.902344 20.144531 17.460938 20.144531 19.289062 C 20.144531 21.621094 22.039062 23.519531 24.371094 23.519531 C 25.363281 23.519531 26.324219 23.167969 27.085938 22.53125 C 27.324219 22.328125 27.429688 22.007812 27.355469 21.703125 C 27.277344 21.398438 27.035156 21.164062 26.726562 21.097656 C 25.878906 20.921875 25.261719 20.160156 25.261719 19.289062 C 25.261719 18.421875 25.878906 17.660156 26.726562 17.484375 Z M 26.726562 17.484375 "/>
</g>
</svg>
