<?xml version="1.0" encoding="UTF-8"?>
<svg xmlns="http://www.w3.org/2000/svg" xmlns:xlink="http://www.w3.org/1999/xlink" width="28pt" height="28pt" viewBox="0 0 28 28" version="1.1">
<g id="surface1">
<path style=" stroke:none;fill-rule:nonzero;fill:rgb(0%,0%,0%);fill-opacity:1;" d="M 16.433594 3.640625 L 16.433594 0 L 11.566406 0 L 11.566406 3.640625 C 8.851562 4.589844 6.855469 7.082031 6.636719 10.0625 L 21.363281 10.0625 C 21.144531 7.082031 19.148438 4.589844 16.433594 3.640625 Z M 16.433594 3.640625 "/>
<path style=" stroke:none;fill-rule:nonzero;fill:rgb(0%,0%,0%);fill-opacity:1;" d="M 5.359375 11.703125 L 22.640625 11.703125 L 22.640625 14.820312 L 5.359375 14.820312 Z M 5.359375 11.703125 "/>
<path style=" stroke:none;fill-rule:nonzero;fill:rgb(0%,0%,0%);fill-opacity:1;" d="M 7.121094 16.023438 L 8.761719 16.023438 L 8.761719 18.25 L 7.121094 18.25 Z M 7.121094 16.023438 "/>
<path style=" stroke:none;fill-rule:nonzero;fill:rgb(0%,0%,0%);fill-opacity:1;" d="M 7.121094 19.273438 L 8.761719 19.273438 L 8.761719 21.5 L 7.121094 21.5 Z M 7.121094 19.273438 "/>
<path style=" stroke:none;fill-rule:nonzero;fill:rgb(0%,0%,0%);fill-opacity:1;" d="M 7.121094 22.523438 L 8.761719 22.523438 L 8.761719 24.75 L 7.121094 24.75 Z M 7.121094 22.523438 "/>
<path style=" stroke:none;fill-rule:nonzero;fill:rgb(0%,0%,0%);fill-opacity:1;" d="M 7.121094 25.773438 L 8.761719 25.773438 L 8.761719 28 L 7.121094 28 Z M 7.121094 25.773438 "/>
<path style=" stroke:none;fill-rule:nonzero;fill:rgb(0%,0%,0%);fill-opacity:1;" d="M 10.152344 16.023438 L 11.792969 16.023438 L 11.792969 18.25 L 10.152344 18.25 Z M 10.152344 16.023438 "/>
<path style=" stroke:none;fill-rule:nonzero;fill:rgb(0%,0%,0%);fill-opacity:1;" d="M 10.152344 19.273438 L 11.792969 19.273438 L 11.792969 21.5 L 10.152344 21.5 Z M 10.152344 19.273438 "/>
<path style=" stroke:none;fill-rule:nonzero;fill:rgb(0%,0%,0%);fill-opacity:1;" d="M 10.152344 22.523438 L 11.792969 22.523438 L 11.792969 24.75 L 10.152344 24.75 Z M 10.152344 22.523438 "/>
<path style=" stroke:none;fill-rule:nonzero;fill:rgb(0%,0%,0%);fill-opacity:1;" d="M 10.152344 25.773438 L 11.792969 25.773438 L 11.792969 28 L 10.152344 28 Z M 10.152344 25.773438 "/>
<path style=" stroke:none;fill-rule:nonzero;fill:rgb(0%,0%,0%);fill-opacity:1;" d="M 13.179688 16.023438 L 14.820312 16.023438 L 14.820312 18.25 L 13.179688 18.25 Z M 13.179688 16.023438 "/>
<path style=" stroke:none;fill-rule:nonzero;fill:rgb(0%,0%,0%);fill-opacity:1;" d="M 13.179688 19.273438 L 14.820312 19.273438 L 14.820312 21.5 L 13.179688 21.5 Z M 13.179688 19.273438 "/>
<path style=" stroke:none;fill-rule:nonzero;fill:rgb(0%,0%,0%);fill-opacity:1;" d="M 13.179688 22.523438 L 14.820312 22.523438 L 14.820312 24.75 L 13.179688 24.75 Z M 13.179688 22.523438 "/>
<path style=" stroke:none;fill-rule:nonzero;fill:rgb(0%,0%,0%);fill-opacity:1;" d="M 13.179688 25.773438 L 14.820312 25.773438 L 14.820312 28 L 13.179688 28 Z M 13.179688 25.773438 "/>
<path style=" stroke:none;fill-rule:nonzero;fill:rgb(0%,0%,0%);fill-opacity:1;" d="M 16.207031 16.023438 L 17.847656 16.023438 L 17.847656 18.25 L 16.207031 18.25 Z M 16.207031 16.023438 "/>
<path style=" stroke:none;fill-rule:nonzero;fill:rgb(0%,0%,0%);fill-opacity:1;" d="M 16.207031 19.273438 L 17.847656 19.273438 L 17.847656 21.5 L 16.207031 21.5 Z M 16.207031 19.273438 "/>
<path style=" stroke:none;fill-rule:nonzero;fill:rgb(0%,0%,0%);fill-opacity:1;" d="M 16.207031 22.523438 L 17.847656 22.523438 L 17.847656 24.75 L 16.207031 24.75 Z M 16.207031 22.523438 "/>
<path style=" stroke:none;fill-rule:nonzero;fill:rgb(0%,0%,0%);fill-opacity:1;" d="M 16.207031 25.773438 L 17.847656 25.773438 L 17.847656 28 L 16.207031 28 Z M 16.207031 25.773438 "/>
<path style=" stroke:none;fill-rule:nonzero;fill:rgb(0%,0%,0%);fill-opacity:1;" d="M 19.238281 16.023438 L 20.878906 16.023438 L 20.878906 18.25 L 19.238281 18.25 Z M 19.238281 16.023438 "/>
<path style=" stroke:none;fill-rule:nonzero;fill:rgb(0%,0%,0%);fill-opacity:1;" d="M 19.238281 19.273438 L 20.878906 19.273438 L 20.878906 21.5 L 19.238281 21.5 Z M 19.238281 19.273438 "/>
<path style=" stroke:none;fill-rule:nonzero;fill:rgb(0%,0%,0%);fill-opacity:1;" d="M 19.238281 22.523438 L 20.878906 22.523438 L 20.878906 24.75 L 19.238281 24.75 Z M 19.238281 22.523438 "/>
<path style=" stroke:none;fill-rule:nonzero;fill:rgb(0%,0%,0%);fill-opacity:1;" d="M 19.238281 25.773438 L 20.878906 25.773438 L 20.878906 28 L 19.238281 28 Z M 19.238281 25.773438 "/>
</g>
</svg>
