<?xml version="1.0" encoding="UTF-8"?>
<svg xmlns="http://www.w3.org/2000/svg" xmlns:xlink="http://www.w3.org/1999/xlink" width="28pt" height="28pt" viewBox="0 0 28 28" version="1.1">
<g id="surface1">
<path style=" stroke:none;fill-rule:nonzero;fill:rgb(13.72549%,12.156863%,12.54902%);fill-opacity:1;" d="M 27.945312 17.800781 L 24.863281 12.921875 L 24.863281 3.945312 L 23.605469 2.691406 L 4.394531 2.691406 L 3.136719 3.945312 L 3.136719 12.921875 L 0.0546875 17.800781 Z M 22.351562 5.199219 L 22.351562 11.464844 C 20.734375 11.042969 17.941406 10.527344 14 10.527344 C 10.058594 10.527344 7.265625 11.042969 5.648438 11.464844 L 5.648438 5.199219 Z M 22.351562 5.199219 "/>
<path style=" stroke:none;fill-rule:nonzero;fill:rgb(13.72549%,12.156863%,12.54902%);fill-opacity:1;" d="M 0 19.34375 L 0 21.855469 L 2.921875 21.855469 L 2.921875 25.308594 L 5.433594 25.308594 L 5.433594 21.855469 L 22.566406 21.855469 L 22.566406 25.308594 L 25.078125 25.308594 L 25.078125 21.855469 L 28 21.855469 L 28 19.34375 Z M 0 19.34375 "/>
<path style=" stroke:none;fill-rule:nonzero;fill:rgb(13.72549%,12.156863%,12.54902%);fill-opacity:1;" d="M 12.980469 9.222656 L 12.980469 7.761719 C 12.980469 6.894531 11.722656 6.191406 10.167969 6.191406 C 8.617188 6.191406 7.355469 6.894531 7.355469 7.761719 L 7.355469 9.957031 C 7.355469 9.957031 9.015625 9.539062 10.15625 9.429688 C 11.183594 9.332031 12.980469 9.222656 12.980469 9.222656 Z M 12.980469 9.222656 "/>
<path style=" stroke:none;fill-rule:nonzero;fill:rgb(13.72549%,12.156863%,12.54902%);fill-opacity:1;" d="M 20.644531 9.957031 L 20.644531 7.761719 C 20.644531 6.894531 19.382812 6.191406 17.832031 6.191406 C 16.277344 6.191406 15.019531 6.894531 15.019531 7.761719 L 15.019531 9.222656 C 15.019531 9.222656 16.816406 9.332031 17.84375 9.429688 C 18.984375 9.539062 20.644531 9.957031 20.644531 9.957031 Z M 20.644531 9.957031 "/>
</g>
</svg>
