<?xml version="1.0" encoding="UTF-8"?>
<svg xmlns="http://www.w3.org/2000/svg" xmlns:xlink="http://www.w3.org/1999/xlink" width="28pt" height="28pt" viewBox="0 0 28 28" version="1.1">
<g id="surface1">
<path style=" stroke:none;fill-rule:nonzero;fill:rgb(0%,0%,0%);fill-opacity:1;" d="M 8.683594 8.644531 C 8.933594 8.433594 8.964844 8.0625 8.753906 7.8125 C 8.136719 7.085938 7.792969 6.160156 7.792969 5.207031 C 7.792969 2.984375 9.601562 1.179688 11.824219 1.179688 C 14.042969 1.179688 15.851562 2.984375 15.851562 5.207031 C 15.851562 6.164062 15.511719 7.089844 14.890625 7.816406 C 14.679688 8.0625 14.710938 8.4375 14.957031 8.648438 C 15.070312 8.742188 15.207031 8.789062 15.339844 8.789062 C 15.507812 8.789062 15.671875 8.71875 15.789062 8.582031 C 16.589844 7.640625 17.03125 6.441406 17.03125 5.207031 C 17.03125 2.335938 14.695312 0 11.824219 0 C 8.953125 0 6.617188 2.335938 6.617188 5.207031 C 6.617188 6.441406 7.054688 7.636719 7.855469 8.578125 C 8.066406 8.824219 8.4375 8.855469 8.683594 8.644531 Z M 8.683594 8.644531 "/>
<path style=" stroke:none;fill-rule:nonzero;fill:rgb(0%,0%,0%);fill-opacity:1;" d="M 11.808594 4.046875 C 13.105469 4.046875 14.148438 4.84375 14.492188 6 C 14.566406 5.75 14.605469 5.484375 14.605469 5.207031 C 14.605469 3.667969 13.359375 2.421875 11.824219 2.421875 C 10.285156 2.421875 9.039062 3.667969 9.039062 5.207031 C 9.039062 5.464844 9.074219 5.714844 9.140625 5.949219 C 9.5 4.820312 10.527344 4.046875 11.808594 4.046875 Z M 11.808594 4.046875 "/>
<path style=" stroke:none;fill-rule:nonzero;fill:rgb(0%,0%,0%);fill-opacity:1;" d="M 23.011719 16.6875 C 22.640625 14.480469 21.085938 14.128906 20.355469 14.085938 C 20.125 14.074219 19.910156 13.957031 19.785156 13.765625 C 19.253906 12.957031 18.546875 12.742188 17.941406 12.742188 C 17.511719 12.742188 17.132812 12.855469 16.917969 12.933594 C 16.890625 12.945312 16.863281 12.949219 16.835938 12.949219 C 16.75 12.949219 16.667969 12.902344 16.621094 12.824219 C 16.085938 11.902344 15.320312 11.664062 14.675781 11.664062 C 14.296875 11.664062 13.964844 11.746094 13.734375 11.816406 C 13.710938 11.824219 13.660156 11.828125 13.636719 11.828125 C 13.515625 11.828125 13.378906 11.726562 13.378906 11.59375 L 13.378906 6.851562 C 13.378906 5.769531 12.570312 5.226562 11.757812 5.226562 C 10.945312 5.226562 10.136719 5.769531 10.136719 6.851562 L 10.136719 15.195312 C 10.136719 15.683594 9.761719 15.988281 9.359375 15.988281 C 9.113281 15.988281 8.878906 15.875 8.714844 15.628906 L 7.933594 14.421875 C 7.589844 13.851562 7.09375 13.617188 6.597656 13.617188 C 5.476562 13.617188 4.378906 14.820312 5.15625 16.105469 L 11.296875 27.863281 C 11.335938 27.941406 11.417969 28 11.503906 28 L 20.125 28 C 20.25 28 20.351562 27.894531 20.359375 27.773438 L 20.574219 24.253906 C 20.578125 24.210938 20.589844 24.171875 20.613281 24.136719 C 22.753906 20.894531 23.367188 18.804688 23.011719 16.6875 Z M 23.011719 16.6875 "/>
</g>
</svg>
