<?xml version="1.0" encoding="UTF-8"?>
<svg xmlns="http://www.w3.org/2000/svg" xmlns:xlink="http://www.w3.org/1999/xlink" width="28pt" height="28pt" viewBox="0 0 28 28" version="1.1">
<g id="surface1">
<path style=" stroke:none;fill-rule:nonzero;fill:rgb(0%,0%,0%);fill-opacity:1;" d="M 14 0 C 8.359375 0 3.773438 4.589844 3.773438 10.226562 C 3.773438 13.632812 6.90625 19.011719 8.253906 21.164062 C 9.363281 22.9375 10.550781 24.621094 11.605469 25.90625 C 13.3125 28 13.792969 28 14 28 C 14.195312 28 14.65625 28 16.363281 25.90625 C 17.417969 24.613281 18.609375 22.925781 19.714844 21.164062 C 21.070312 19.007812 24.226562 13.617188 24.226562 10.226562 C 24.226562 4.589844 19.640625 0 14 0 Z M 14 18.488281 C 9.539062 18.488281 5.910156 14.859375 5.910156 10.398438 C 5.910156 5.9375 9.539062 2.308594 14 2.308594 C 18.460938 2.308594 22.089844 5.9375 22.089844 10.398438 C 22.089844 14.859375 18.460938 18.488281 14 18.488281 Z M 14 18.488281 "/>
<path style=" stroke:none;fill-rule:nonzero;fill:rgb(0%,0%,0%);fill-opacity:1;" d="M 19.90625 7.292969 C 19.851562 7.292969 19.792969 7.300781 19.734375 7.316406 L 19.085938 7.496094 L 18.410156 5.851562 C 18.21875 5.386719 17.65625 5.007812 17.152344 5.007812 L 10.839844 5.007812 C 10.335938 5.007812 9.769531 5.386719 9.578125 5.851562 L 8.90625 7.492188 L 8.265625 7.316406 C 8.207031 7.300781 8.148438 7.292969 8.09375 7.292969 C 7.785156 7.292969 7.5625 7.527344 7.5625 7.851562 L 7.5625 8.234375 C 7.5625 8.609375 7.871094 8.917969 8.246094 8.917969 L 8.320312 8.917969 L 8.210938 9.183594 C 8.035156 9.617188 7.890625 10.347656 7.890625 10.816406 L 7.890625 14.082031 C 7.890625 14.457031 8.195312 14.765625 8.574219 14.765625 L 9.46875 14.765625 C 9.84375 14.765625 10.152344 14.457031 10.152344 14.082031 L 10.152344 13.265625 L 17.839844 13.265625 L 17.839844 14.082031 C 17.839844 14.457031 18.144531 14.765625 18.523438 14.765625 L 19.417969 14.765625 C 19.792969 14.765625 20.101562 14.457031 20.101562 14.082031 L 20.101562 10.816406 C 20.101562 10.347656 19.957031 9.617188 19.777344 9.183594 L 19.671875 8.917969 L 19.753906 8.917969 C 20.128906 8.917969 20.4375 8.609375 20.4375 8.234375 L 20.4375 7.851562 C 20.4375 7.527344 20.214844 7.292969 19.90625 7.292969 Z M 9.394531 8.546875 L 10.417969 6.0625 C 10.53125 5.78125 10.871094 5.554688 11.171875 5.554688 L 16.820312 5.554688 C 17.121094 5.554688 17.460938 5.78125 17.574219 6.0625 L 18.59375 8.546875 C 18.710938 8.824219 18.554688 9.054688 18.253906 9.054688 L 9.734375 9.054688 C 9.433594 9.054688 9.28125 8.824219 9.394531 8.546875 Z M 11.675781 11.691406 C 11.675781 11.839844 11.550781 11.964844 11.402344 11.964844 L 9.460938 11.964844 C 9.3125 11.964844 9.1875 11.839844 9.1875 11.691406 L 9.1875 10.761719 C 9.1875 10.609375 9.3125 10.488281 9.460938 10.488281 L 11.402344 10.488281 C 11.550781 10.488281 11.675781 10.609375 11.675781 10.761719 Z M 18.785156 11.691406 C 18.785156 11.839844 18.660156 11.964844 18.511719 11.964844 L 16.570312 11.964844 C 16.421875 11.964844 16.296875 11.839844 16.296875 11.691406 L 16.296875 10.761719 C 16.296875 10.609375 16.421875 10.488281 16.570312 10.488281 L 18.511719 10.488281 C 18.660156 10.488281 18.785156 10.609375 18.785156 10.761719 Z M 18.785156 11.691406 "/>
</g>
</svg>
