<?xml version="1.0" encoding="UTF-8"?>
<svg xmlns="http://www.w3.org/2000/svg" xmlns:xlink="http://www.w3.org/1999/xlink" width="28pt" height="28pt" viewBox="0 0 28 28" version="1.1">
<g id="surface1">
<path style=" stroke:none;fill-rule:nonzero;fill:rgb(0%,0%,0%);fill-opacity:1;" d="M 1.972656 0 L 1.972656 5.75 L 26.027344 5.75 L 26.027344 0 Z M 15.441406 3.460938 C 15.042969 3.460938 14.722656 3.136719 14.722656 2.738281 C 14.722656 2.339844 15.042969 2.019531 15.441406 2.019531 C 15.839844 2.019531 16.164062 2.339844 16.164062 2.738281 C 16.164062 3.136719 15.839844 3.460938 15.441406 3.460938 Z M 18.210938 3.460938 C 17.8125 3.460938 17.488281 3.136719 17.488281 2.738281 C 17.488281 2.339844 17.8125 2.019531 18.210938 2.019531 C 18.609375 2.019531 18.929688 2.339844 18.929688 2.738281 C 18.929688 3.136719 18.609375 3.460938 18.210938 3.460938 Z M 20.976562 3.460938 C 20.578125 3.460938 20.257812 3.136719 20.257812 2.738281 C 20.257812 2.339844 20.578125 2.019531 20.976562 2.019531 C 21.375 2.019531 21.699219 2.339844 21.699219 2.738281 C 21.699219 3.136719 21.375 3.460938 20.976562 3.460938 Z M 20.976562 3.460938 "/>
<path style=" stroke:none;fill-rule:nonzero;fill:rgb(0%,0%,0%);fill-opacity:1;" d="M 14 10.992188 C 10.761719 10.992188 8.128906 13.632812 8.128906 16.875 C 8.128906 20.121094 10.761719 22.757812 14 22.757812 C 17.238281 22.757812 19.871094 20.121094 19.871094 16.875 C 19.871094 13.632812 17.238281 10.992188 14 10.992188 Z M 14 20.777344 C 11.851562 20.777344 10.105469 19.027344 10.105469 16.875 C 10.105469 14.722656 11.851562 12.972656 14 12.972656 C 16.148438 12.972656 17.894531 14.722656 17.894531 16.875 C 17.894531 19.027344 16.148438 20.777344 14 20.777344 Z M 14 20.777344 "/>
<path style=" stroke:none;fill-rule:nonzero;fill:rgb(0%,0%,0%);fill-opacity:1;" d="M 1.972656 7.578125 L 1.972656 28 L 26.027344 28 L 26.027344 7.578125 Z M 14 24.585938 C 9.753906 24.585938 6.300781 21.125 6.300781 16.875 C 6.300781 12.625 9.753906 9.164062 14 9.164062 C 18.246094 9.164062 21.699219 12.625 21.699219 16.875 C 21.699219 21.125 18.246094 24.585938 14 24.585938 Z M 14 24.585938 "/>
</g>
</svg>
