<?xml version="1.0" encoding="UTF-8"?>
<svg xmlns="http://www.w3.org/2000/svg" xmlns:xlink="http://www.w3.org/1999/xlink" width="14pt" height="14pt" viewBox="0 0 14 14" version="1.1">
<g id="surface1">
<path style=" stroke:none;fill-rule:nonzero;fill:rgb(0%,0%,0%);fill-opacity:1;" d="M 8.605469 5.738281 L 5.230469 5.738281 C 4.40625 5.738281 3.734375 6.40625 3.734375 7.230469 L 3.734375 12.507812 C 3.734375 13.328125 4.40625 14 5.230469 14 L 8.605469 14 C 9.429688 14 10.097656 13.328125 10.097656 12.507812 L 10.097656 7.230469 C 10.097656 6.40625 9.429688 5.738281 8.605469 5.738281 Z M 8.179688 10.546875 C 8.179688 10.546875 8.179688 10.554688 8.179688 10.558594 C 8.179688 10.566406 8.175781 10.574219 8.171875 10.582031 C 8.171875 10.585938 8.171875 10.59375 8.171875 10.601562 C 8.171875 10.605469 8.167969 10.609375 8.167969 10.617188 C 8.164062 10.625 8.164062 10.632812 8.160156 10.640625 C 8.160156 10.644531 8.15625 10.648438 8.15625 10.652344 C 8.152344 10.664062 8.148438 10.671875 8.148438 10.679688 C 8.144531 10.679688 8.144531 10.679688 8.144531 10.679688 L 7.3125 12.542969 C 7.277344 12.652344 7.199219 12.75 7.085938 12.796875 C 7.039062 12.820312 6.992188 12.828125 6.945312 12.835938 C 6.941406 12.835938 6.933594 12.835938 6.929688 12.835938 C 6.921875 12.835938 6.921875 12.835938 6.917969 12.835938 C 6.914062 12.835938 6.914062 12.835938 6.914062 12.835938 C 6.910156 12.835938 6.90625 12.835938 6.902344 12.835938 C 6.898438 12.835938 6.890625 12.835938 6.882812 12.835938 C 6.835938 12.828125 6.789062 12.820312 6.746094 12.796875 C 6.632812 12.75 6.554688 12.652344 6.519531 12.542969 L 5.6875 10.679688 C 5.679688 10.671875 5.679688 10.664062 5.671875 10.652344 C 5.671875 10.648438 5.671875 10.644531 5.671875 10.640625 C 5.667969 10.632812 5.664062 10.625 5.664062 10.617188 C 5.664062 10.609375 5.660156 10.605469 5.660156 10.601562 C 5.65625 10.59375 5.65625 10.585938 5.65625 10.582031 C 5.65625 10.574219 5.65625 10.566406 5.652344 10.558594 C 5.652344 10.554688 5.652344 10.546875 5.652344 10.546875 C 5.648438 10.535156 5.648438 10.523438 5.648438 10.515625 C 5.648438 10.507812 5.648438 10.507812 5.648438 10.503906 C 5.648438 10.492188 5.648438 10.484375 5.652344 10.476562 C 5.652344 10.46875 5.65625 10.464844 5.65625 10.460938 C 5.65625 10.453125 5.65625 10.445312 5.65625 10.4375 C 5.65625 10.429688 5.660156 10.421875 5.664062 10.414062 C 5.664062 10.410156 5.664062 10.40625 5.664062 10.398438 C 5.667969 10.390625 5.671875 10.382812 5.671875 10.375 C 5.675781 10.371094 5.679688 10.367188 5.679688 10.359375 C 5.679688 10.355469 5.6875 10.347656 5.6875 10.339844 C 5.691406 10.335938 5.695312 10.328125 5.695312 10.328125 C 5.699219 10.320312 5.703125 10.3125 5.707031 10.304688 C 5.710938 10.300781 5.710938 10.296875 5.71875 10.289062 C 5.71875 10.285156 5.722656 10.28125 5.726562 10.273438 C 5.730469 10.269531 5.734375 10.265625 5.742188 10.257812 C 5.742188 10.253906 5.75 10.25 5.75 10.242188 C 5.757812 10.238281 5.761719 10.234375 5.765625 10.226562 C 5.769531 10.222656 5.773438 10.21875 5.777344 10.21875 C 5.78125 10.210938 5.789062 10.203125 5.796875 10.199219 C 5.800781 10.195312 5.804688 10.195312 5.808594 10.1875 C 5.8125 10.1875 5.820312 10.179688 5.828125 10.175781 C 5.832031 10.171875 5.835938 10.167969 5.84375 10.164062 C 5.851562 10.164062 5.855469 10.15625 5.859375 10.15625 C 5.867188 10.148438 5.875 10.148438 5.882812 10.140625 C 5.886719 10.140625 5.890625 10.140625 5.890625 10.140625 C 5.894531 10.140625 5.894531 10.140625 5.898438 10.136719 C 5.90625 10.132812 5.914062 10.132812 5.921875 10.125 C 5.929688 10.125 5.929688 10.125 5.9375 10.125 C 5.945312 10.117188 5.953125 10.117188 5.960938 10.117188 C 5.964844 10.117188 5.96875 10.113281 5.976562 10.109375 C 5.980469 10.109375 5.984375 10.109375 5.992188 10.109375 C 6 10.109375 6.007812 10.105469 6.015625 10.105469 C 6.023438 10.105469 6.023438 10.101562 6.03125 10.101562 C 6.039062 10.101562 6.046875 10.101562 6.058594 10.101562 C 6.058594 10.101562 6.0625 10.101562 6.0625 10.101562 L 7.769531 10.101562 C 7.769531 10.101562 7.773438 10.101562 7.773438 10.101562 C 7.78125 10.101562 7.789062 10.101562 7.800781 10.101562 C 7.804688 10.101562 7.8125 10.105469 7.8125 10.105469 C 7.820312 10.105469 7.828125 10.109375 7.835938 10.109375 C 7.84375 10.109375 7.851562 10.109375 7.855469 10.109375 C 7.859375 10.113281 7.867188 10.117188 7.875 10.117188 C 7.882812 10.117188 7.890625 10.117188 7.898438 10.125 C 7.898438 10.125 7.90625 10.125 7.90625 10.125 C 7.914062 10.132812 7.925781 10.132812 7.9375 10.136719 C 7.9375 10.140625 7.9375 10.140625 7.9375 10.140625 C 7.941406 10.140625 7.945312 10.140625 7.945312 10.140625 C 7.953125 10.148438 7.960938 10.148438 7.96875 10.15625 C 7.976562 10.15625 7.980469 10.164062 7.984375 10.164062 C 7.992188 10.167969 8 10.171875 8.003906 10.175781 C 8.007812 10.179688 8.015625 10.1875 8.023438 10.1875 C 8.023438 10.195312 8.03125 10.195312 8.035156 10.199219 C 8.039062 10.203125 8.046875 10.210938 8.054688 10.21875 C 8.054688 10.21875 8.0625 10.222656 8.0625 10.226562 C 8.070312 10.234375 8.074219 10.238281 8.078125 10.242188 C 8.085938 10.25 8.085938 10.25 8.089844 10.257812 C 8.09375 10.265625 8.101562 10.269531 8.101562 10.273438 C 8.109375 10.28125 8.109375 10.285156 8.113281 10.289062 C 8.117188 10.296875 8.121094 10.300781 8.125 10.304688 C 8.125 10.3125 8.132812 10.320312 8.132812 10.328125 C 8.136719 10.328125 8.140625 10.335938 8.140625 10.339844 C 8.144531 10.347656 8.148438 10.355469 8.148438 10.359375 C 8.152344 10.367188 8.15625 10.371094 8.15625 10.375 C 8.160156 10.382812 8.164062 10.390625 8.164062 10.398438 C 8.164062 10.40625 8.164062 10.410156 8.167969 10.414062 C 8.171875 10.421875 8.171875 10.429688 8.171875 10.4375 C 8.171875 10.445312 8.175781 10.453125 8.175781 10.460938 C 8.179688 10.464844 8.179688 10.46875 8.179688 10.476562 C 8.179688 10.484375 8.179688 10.492188 8.179688 10.503906 C 8.179688 10.507812 8.179688 10.507812 8.179688 10.515625 C 8.179688 10.523438 8.179688 10.535156 8.179688 10.546875 Z M 8.179688 9.304688 C 8.179688 9.3125 8.179688 9.320312 8.179688 9.332031 C 8.179688 9.335938 8.179688 9.34375 8.175781 9.347656 C 8.175781 9.355469 8.171875 9.363281 8.171875 9.367188 C 8.171875 9.375 8.171875 9.382812 8.167969 9.390625 C 8.167969 9.398438 8.164062 9.402344 8.164062 9.40625 C 8.164062 9.414062 8.160156 9.421875 8.15625 9.429688 C 8.15625 9.4375 8.15625 9.441406 8.152344 9.445312 C 8.148438 9.453125 8.144531 9.460938 8.140625 9.46875 C 8.140625 9.472656 8.136719 9.476562 8.132812 9.484375 C 8.132812 9.488281 8.125 9.492188 8.125 9.5 C 8.121094 9.507812 8.117188 9.511719 8.117188 9.515625 C 8.109375 9.523438 8.109375 9.527344 8.101562 9.53125 C 8.101562 9.539062 8.09375 9.546875 8.089844 9.550781 C 8.085938 9.554688 8.085938 9.558594 8.078125 9.5625 C 8.074219 9.570312 8.070312 9.574219 8.0625 9.578125 C 8.0625 9.585938 8.054688 9.585938 8.054688 9.59375 C 8.046875 9.59375 8.039062 9.601562 8.035156 9.609375 C 8.03125 9.609375 8.023438 9.617188 8.023438 9.617188 C 8.015625 9.625 8.007812 9.625 8.003906 9.632812 C 8 9.632812 7.992188 9.640625 7.984375 9.640625 C 7.980469 9.648438 7.976562 9.648438 7.96875 9.652344 C 7.960938 9.65625 7.953125 9.660156 7.945312 9.664062 C 7.945312 9.664062 7.941406 9.667969 7.9375 9.667969 C 7.9375 9.671875 7.9375 9.671875 7.9375 9.671875 C 7.921875 9.671875 7.914062 9.679688 7.90625 9.679688 C 7.898438 9.683594 7.898438 9.683594 7.894531 9.6875 C 7.882812 9.6875 7.875 9.691406 7.863281 9.695312 C 7.859375 9.695312 7.859375 9.695312 7.851562 9.695312 C 7.847656 9.695312 7.839844 9.699219 7.835938 9.699219 C 7.8125 9.703125 7.789062 9.703125 7.769531 9.703125 C 7.769531 9.703125 7.765625 9.703125 7.765625 9.703125 L 6.0625 9.703125 C 6.039062 9.703125 6.015625 9.703125 5.996094 9.699219 C 5.992188 9.699219 5.984375 9.695312 5.976562 9.695312 C 5.976562 9.695312 5.96875 9.695312 5.96875 9.695312 C 5.957031 9.691406 5.945312 9.6875 5.9375 9.6875 C 5.933594 9.683594 5.929688 9.683594 5.929688 9.679688 C 5.914062 9.679688 5.90625 9.671875 5.898438 9.671875 C 5.894531 9.671875 5.894531 9.671875 5.890625 9.667969 C 5.890625 9.667969 5.886719 9.664062 5.882812 9.664062 C 5.875 9.660156 5.867188 9.65625 5.859375 9.652344 C 5.855469 9.648438 5.851562 9.648438 5.84375 9.640625 C 5.835938 9.640625 5.832031 9.632812 5.828125 9.632812 C 5.820312 9.625 5.8125 9.625 5.808594 9.617188 C 5.804688 9.617188 5.800781 9.609375 5.796875 9.609375 C 5.789062 9.601562 5.78125 9.59375 5.777344 9.59375 C 5.773438 9.585938 5.773438 9.585938 5.765625 9.578125 C 5.761719 9.574219 5.757812 9.570312 5.75 9.5625 C 5.75 9.558594 5.742188 9.554688 5.742188 9.550781 C 5.734375 9.546875 5.734375 9.539062 5.726562 9.53125 C 5.726562 9.527344 5.71875 9.523438 5.71875 9.515625 C 5.710938 9.511719 5.710938 9.507812 5.707031 9.5 C 5.703125 9.492188 5.699219 9.488281 5.695312 9.484375 C 5.695312 9.476562 5.691406 9.472656 5.6875 9.46875 C 5.6875 9.460938 5.679688 9.453125 5.679688 9.445312 C 5.679688 9.441406 5.675781 9.4375 5.671875 9.429688 C 5.671875 9.421875 5.671875 9.414062 5.664062 9.40625 C 5.664062 9.402344 5.664062 9.398438 5.664062 9.390625 C 5.660156 9.382812 5.65625 9.375 5.65625 9.367188 C 5.65625 9.363281 5.65625 9.355469 5.65625 9.347656 C 5.65625 9.34375 5.652344 9.335938 5.652344 9.332031 C 5.652344 9.320312 5.648438 9.3125 5.648438 9.304688 C 5.648438 9.300781 5.648438 9.296875 5.648438 9.292969 C 5.648438 9.292969 5.648438 9.289062 5.648438 9.289062 C 5.648438 9.28125 5.648438 9.273438 5.652344 9.261719 C 5.652344 9.257812 5.652344 9.253906 5.652344 9.25 C 5.65625 9.242188 5.65625 9.234375 5.65625 9.226562 C 5.65625 9.21875 5.65625 9.210938 5.660156 9.207031 C 5.660156 9.203125 5.664062 9.195312 5.664062 9.191406 C 5.664062 9.183594 5.667969 9.175781 5.671875 9.167969 C 5.671875 9.164062 5.671875 9.160156 5.671875 9.15625 C 5.679688 9.148438 5.679688 9.136719 5.6875 9.128906 C 5.6875 9.125 5.6875 9.125 5.6875 9.125 L 6.523438 7.265625 C 6.554688 7.15625 6.632812 7.058594 6.746094 7.007812 C 6.789062 6.988281 6.835938 6.976562 6.882812 6.976562 C 6.882812 6.976562 6.890625 6.976562 6.890625 6.972656 C 6.898438 6.972656 6.90625 6.972656 6.914062 6.972656 C 6.921875 6.972656 6.929688 6.972656 6.941406 6.976562 C 6.945312 6.976562 6.945312 6.976562 6.945312 6.976562 C 6.992188 6.976562 7.039062 6.988281 7.085938 7.007812 C 7.199219 7.058594 7.277344 7.15625 7.3125 7.265625 L 8.144531 9.125 C 8.144531 9.125 8.144531 9.125 8.148438 9.128906 C 8.148438 9.136719 8.152344 9.148438 8.15625 9.15625 C 8.15625 9.160156 8.160156 9.164062 8.160156 9.167969 C 8.164062 9.175781 8.164062 9.183594 8.167969 9.191406 C 8.167969 9.195312 8.171875 9.203125 8.171875 9.207031 C 8.171875 9.210938 8.171875 9.21875 8.171875 9.226562 C 8.175781 9.234375 8.179688 9.242188 8.179688 9.25 C 8.179688 9.253906 8.179688 9.257812 8.179688 9.261719 C 8.179688 9.273438 8.179688 9.28125 8.179688 9.289062 C 8.179688 9.289062 8.179688 9.292969 8.179688 9.292969 C 8.179688 9.296875 8.179688 9.300781 8.179688 9.304688 Z M 8.179688 9.304688 "/>
<path style=" stroke:none;fill-rule:nonzero;fill:rgb(0%,0%,0%);fill-opacity:1;" d="M 9.445312 3.859375 C 8.695312 3.492188 7.851562 3.304688 7.015625 3.304688 C 6.179688 3.304688 5.335938 3.492188 4.585938 3.859375 L 4.554688 3.875 C 4.347656 3.972656 4.261719 4.21875 4.359375 4.421875 C 4.429688 4.570312 4.578125 4.65625 4.734375 4.65625 C 4.789062 4.65625 4.851562 4.640625 4.910156 4.617188 L 4.941406 4.601562 C 5.585938 4.289062 6.300781 4.125 7.015625 4.125 C 7.730469 4.125 8.445312 4.289062 9.089844 4.601562 C 9.296875 4.695312 9.539062 4.613281 9.640625 4.40625 C 9.738281 4.203125 9.652344 3.957031 9.445312 3.859375 Z M 9.445312 3.859375 "/>
<path style=" stroke:none;fill-rule:nonzero;fill:rgb(0%,0%,0%);fill-opacity:1;" d="M 10.820312 2.492188 L 10.453125 2.34375 C 9.359375 1.890625 8.203125 1.664062 7.015625 1.664062 C 5.835938 1.664062 4.679688 1.890625 3.582031 2.34375 L 3.21875 2.492188 C 3.007812 2.578125 2.90625 2.816406 2.992188 3.027344 C 3.054688 3.1875 3.210938 3.28125 3.375 3.28125 C 3.421875 3.28125 3.476562 3.273438 3.527344 3.25 L 3.890625 3.101562 C 4.890625 2.695312 5.941406 2.488281 7.015625 2.488281 C 8.09375 2.488281 9.148438 2.695312 10.144531 3.101562 L 10.507812 3.25 C 10.71875 3.335938 10.960938 3.234375 11.046875 3.023438 C 11.132812 2.816406 11.03125 2.578125 10.820312 2.492188 Z M 10.820312 2.492188 "/>
<path style=" stroke:none;fill-rule:nonzero;fill:rgb(0%,0%,0%);fill-opacity:1;" d="M 12.09375 1.109375 L 11.601562 0.90625 C 10.132812 0.304688 8.585938 0 7 0 C 5.414062 0 3.867188 0.304688 2.398438 0.90625 L 1.90625 1.109375 C 1.695312 1.195312 1.59375 1.429688 1.679688 1.640625 C 1.765625 1.851562 2.007812 1.953125 2.21875 1.867188 L 2.710938 1.664062 C 4.078125 1.105469 5.523438 0.820312 7 0.820312 C 8.476562 0.820312 9.921875 1.105469 11.289062 1.664062 L 11.78125 1.867188 C 11.835938 1.890625 11.886719 1.898438 11.9375 1.898438 C 12.101562 1.898438 12.253906 1.804688 12.320312 1.640625 C 12.40625 1.429688 12.304688 1.195312 12.09375 1.109375 Z M 12.09375 1.109375 "/>
</g>
</svg>
