<?xml version="1.0" encoding="UTF-8"?>
<svg xmlns="http://www.w3.org/2000/svg" xmlns:xlink="http://www.w3.org/1999/xlink" width="28pt" height="28pt" viewBox="0 0 28 28" version="1.1">
<g id="surface1">
<path style=" stroke:none;fill-rule:nonzero;fill:rgb(0%,0%,0%);fill-opacity:1;" d="M 23.328125 14.332031 L 22.292969 13.296875 C 25.671875 9.914062 25.671875 4.414062 22.292969 1.035156 L 23.328125 0 C 27.277344 3.949219 27.277344 10.382812 23.328125 14.332031 Z M 20.503906 11.507812 L 21.535156 12.542969 C 24.5 9.578125 24.5 4.753906 21.535156 1.789062 L 20.503906 2.824219 C 22.894531 5.21875 22.894531 9.113281 20.503906 11.507812 Z M 19.691406 10.695312 C 21.636719 8.75 21.636719 5.582031 19.691406 3.636719 L 18.65625 4.667969 C 20.035156 6.046875 20.035156 8.285156 18.65625 9.660156 Z M 6.078125 1.035156 L 5.042969 0 C 1.09375 3.949219 1.09375 10.382812 5.042969 14.332031 L 6.078125 13.296875 C 2.695312 9.917969 2.699219 4.414062 6.078125 1.035156 Z M 6.832031 12.542969 L 7.867188 11.507812 C 5.472656 9.113281 5.472656 5.21875 7.867188 2.824219 L 6.832031 1.789062 C 3.867188 4.753906 3.867188 9.578125 6.832031 12.542969 Z M 8.679688 10.695312 L 9.714844 9.660156 C 8.335938 8.285156 8.335938 6.042969 9.714844 4.667969 L 8.679688 3.636719 C 6.730469 5.582031 6.730469 8.75 8.679688 10.695312 Z M 20.136719 25.328125 L 16.578125 25.328125 L 14.441406 9.902344 C 15.4375 9.773438 16.207031 8.933594 16.207031 7.90625 C 16.207031 6.789062 15.300781 5.882812 14.183594 5.882812 C 13.066406 5.882812 12.160156 6.789062 12.160156 7.90625 C 12.160156 8.933594 12.933594 9.773438 13.925781 9.902344 L 11.792969 25.328125 L 8.234375 25.328125 C 7.394531 25.328125 6.710938 26.007812 6.710938 26.847656 C 6.710938 27.6875 7.394531 28.371094 8.234375 28.371094 L 20.136719 28.371094 C 20.976562 28.371094 21.660156 27.6875 21.660156 26.847656 C 21.660156 26.007812 20.976562 25.328125 20.136719 25.328125 Z M 20.136719 25.328125 "/>
</g>
</svg>
