<?xml version="1.0" encoding="UTF-8"?>
<svg xmlns="http://www.w3.org/2000/svg" xmlns:xlink="http://www.w3.org/1999/xlink" width="28pt" height="28pt" viewBox="0 0 28 28" version="1.1">
<g id="surface1">
<path style=" stroke:none;fill-rule:nonzero;fill:rgb(0%,0%,0%);fill-opacity:1;" d="M 17.210938 11.476562 L 10.460938 11.476562 C 8.8125 11.476562 7.472656 12.816406 7.472656 14.460938 L 7.472656 25.011719 C 7.472656 26.660156 8.8125 28 10.460938 28 L 17.210938 28 C 18.855469 28 20.195312 26.660156 20.195312 25.011719 L 20.195312 14.460938 C 20.195312 12.816406 18.855469 11.476562 17.210938 11.476562 Z M 16.359375 21.089844 C 16.355469 21.097656 16.355469 21.109375 16.355469 21.117188 C 16.355469 21.132812 16.351562 21.148438 16.347656 21.164062 C 16.347656 21.175781 16.34375 21.1875 16.34375 21.199219 C 16.339844 21.210938 16.335938 21.222656 16.335938 21.234375 C 16.328125 21.25 16.324219 21.265625 16.320312 21.28125 C 16.320312 21.289062 16.316406 21.296875 16.3125 21.304688 C 16.304688 21.324219 16.300781 21.339844 16.292969 21.359375 C 16.289062 21.359375 16.289062 21.363281 16.289062 21.363281 L 14.621094 25.085938 C 14.554688 25.304688 14.398438 25.496094 14.171875 25.597656 C 14.082031 25.636719 13.988281 25.660156 13.894531 25.667969 C 13.882812 25.667969 13.867188 25.667969 13.855469 25.667969 C 13.847656 25.667969 13.84375 25.667969 13.835938 25.667969 C 13.832031 25.667969 13.832031 25.667969 13.832031 25.667969 C 13.828125 25.667969 13.828125 25.667969 13.828125 25.667969 C 13.820312 25.667969 13.8125 25.667969 13.804688 25.667969 C 13.792969 25.667969 13.78125 25.667969 13.769531 25.667969 C 13.675781 25.660156 13.582031 25.636719 13.492188 25.597656 C 13.265625 25.496094 13.109375 25.304688 13.039062 25.085938 L 11.371094 21.363281 C 11.371094 21.363281 11.371094 21.359375 11.371094 21.359375 C 11.363281 21.339844 11.355469 21.324219 11.347656 21.304688 C 11.347656 21.296875 11.34375 21.289062 11.339844 21.28125 C 11.335938 21.265625 11.332031 21.25 11.328125 21.234375 C 11.324219 21.222656 11.320312 21.210938 11.320312 21.199219 C 11.316406 21.1875 11.316406 21.175781 11.3125 21.164062 C 11.308594 21.148438 11.308594 21.132812 11.304688 21.117188 C 11.304688 21.109375 11.304688 21.097656 11.304688 21.089844 C 11.300781 21.070312 11.300781 21.050781 11.300781 21.035156 C 11.300781 21.03125 11.300781 21.027344 11.300781 21.027344 C 11.300781 21.019531 11.300781 21.011719 11.300781 21.007812 C 11.300781 20.988281 11.300781 20.96875 11.304688 20.953125 C 11.304688 20.941406 11.308594 20.929688 11.308594 20.917969 C 11.308594 20.902344 11.3125 20.890625 11.316406 20.875 C 11.316406 20.859375 11.320312 20.847656 11.324219 20.832031 C 11.328125 20.820312 11.328125 20.808594 11.332031 20.796875 C 11.335938 20.785156 11.34375 20.769531 11.347656 20.753906 C 11.351562 20.742188 11.355469 20.734375 11.359375 20.722656 C 11.363281 20.710938 11.371094 20.695312 11.378906 20.679688 C 11.382812 20.671875 11.386719 20.660156 11.390625 20.652344 C 11.398438 20.636719 11.40625 20.625 11.414062 20.613281 C 11.417969 20.601562 11.425781 20.589844 11.433594 20.582031 C 11.441406 20.570312 11.445312 20.558594 11.453125 20.550781 C 11.460938 20.539062 11.472656 20.527344 11.480469 20.515625 C 11.488281 20.507812 11.496094 20.496094 11.5 20.488281 C 11.511719 20.476562 11.523438 20.464844 11.535156 20.453125 C 11.539062 20.445312 11.546875 20.441406 11.554688 20.433594 C 11.566406 20.421875 11.578125 20.410156 11.589844 20.398438 C 11.601562 20.394531 11.609375 20.386719 11.617188 20.378906 C 11.628906 20.371094 11.640625 20.359375 11.652344 20.351562 C 11.664062 20.34375 11.675781 20.335938 11.6875 20.328125 C 11.699219 20.324219 11.710938 20.316406 11.71875 20.3125 C 11.734375 20.300781 11.75 20.292969 11.769531 20.285156 C 11.773438 20.285156 11.78125 20.28125 11.785156 20.277344 C 11.789062 20.277344 11.789062 20.277344 11.792969 20.273438 C 11.808594 20.265625 11.828125 20.261719 11.84375 20.253906 C 11.855469 20.25 11.863281 20.246094 11.871094 20.246094 C 11.886719 20.238281 11.902344 20.234375 11.917969 20.230469 C 11.929688 20.230469 11.9375 20.226562 11.949219 20.222656 C 11.960938 20.222656 11.972656 20.21875 11.984375 20.21875 C 12 20.214844 12.015625 20.210938 12.035156 20.210938 C 12.042969 20.210938 12.050781 20.207031 12.058594 20.207031 C 12.078125 20.207031 12.097656 20.207031 12.117188 20.207031 C 12.117188 20.207031 12.121094 20.203125 12.121094 20.203125 L 15.539062 20.203125 C 15.539062 20.203125 15.542969 20.207031 15.542969 20.207031 C 15.5625 20.207031 15.582031 20.207031 15.601562 20.207031 C 15.609375 20.207031 15.621094 20.210938 15.628906 20.210938 C 15.644531 20.210938 15.660156 20.214844 15.675781 20.21875 C 15.6875 20.21875 15.699219 20.222656 15.710938 20.222656 C 15.722656 20.226562 15.734375 20.230469 15.746094 20.230469 C 15.761719 20.234375 15.777344 20.238281 15.792969 20.246094 C 15.800781 20.246094 15.808594 20.25 15.816406 20.253906 C 15.832031 20.261719 15.851562 20.265625 15.871094 20.273438 C 15.871094 20.277344 15.875 20.277344 15.875 20.277344 C 15.882812 20.28125 15.886719 20.285156 15.894531 20.285156 C 15.910156 20.292969 15.925781 20.300781 15.941406 20.3125 C 15.953125 20.316406 15.960938 20.324219 15.972656 20.328125 C 15.984375 20.335938 15.996094 20.34375 16.007812 20.351562 C 16.019531 20.359375 16.03125 20.371094 16.042969 20.378906 C 16.050781 20.386719 16.0625 20.394531 16.070312 20.398438 C 16.082031 20.410156 16.09375 20.421875 16.105469 20.433594 C 16.113281 20.441406 16.121094 20.445312 16.128906 20.453125 C 16.136719 20.464844 16.148438 20.476562 16.160156 20.488281 C 16.167969 20.496094 16.171875 20.503906 16.179688 20.515625 C 16.191406 20.527344 16.199219 20.539062 16.207031 20.550781 C 16.214844 20.558594 16.222656 20.570312 16.226562 20.582031 C 16.234375 20.589844 16.242188 20.601562 16.246094 20.613281 C 16.253906 20.625 16.261719 20.636719 16.269531 20.652344 C 16.273438 20.660156 16.277344 20.671875 16.285156 20.679688 C 16.289062 20.695312 16.296875 20.710938 16.300781 20.722656 C 16.304688 20.734375 16.308594 20.742188 16.3125 20.753906 C 16.320312 20.769531 16.324219 20.785156 16.328125 20.796875 C 16.332031 20.808594 16.332031 20.820312 16.335938 20.832031 C 16.339844 20.847656 16.34375 20.859375 16.347656 20.875 C 16.347656 20.890625 16.351562 20.902344 16.351562 20.917969 C 16.355469 20.929688 16.355469 20.941406 16.355469 20.953125 C 16.359375 20.96875 16.359375 20.988281 16.359375 21.007812 C 16.359375 21.011719 16.359375 21.019531 16.359375 21.027344 C 16.359375 21.027344 16.359375 21.03125 16.359375 21.035156 C 16.359375 21.050781 16.359375 21.070312 16.359375 21.089844 Z M 16.359375 18.609375 C 16.359375 18.625 16.359375 18.644531 16.355469 18.664062 C 16.355469 18.675781 16.355469 18.6875 16.351562 18.695312 C 16.351562 18.710938 16.347656 18.726562 16.347656 18.738281 C 16.34375 18.753906 16.339844 18.769531 16.335938 18.78125 C 16.335938 18.792969 16.332031 18.804688 16.328125 18.816406 C 16.324219 18.832031 16.320312 18.847656 16.3125 18.859375 C 16.308594 18.871094 16.308594 18.882812 16.304688 18.890625 C 16.296875 18.90625 16.289062 18.917969 16.285156 18.933594 C 16.28125 18.945312 16.273438 18.953125 16.269531 18.964844 C 16.261719 18.976562 16.253906 18.988281 16.25 19 C 16.242188 19.011719 16.234375 19.023438 16.230469 19.035156 C 16.222656 19.042969 16.214844 19.054688 16.207031 19.066406 C 16.199219 19.078125 16.191406 19.089844 16.179688 19.101562 C 16.175781 19.109375 16.167969 19.117188 16.160156 19.125 C 16.148438 19.136719 16.140625 19.148438 16.128906 19.160156 C 16.121094 19.167969 16.113281 19.175781 16.105469 19.183594 C 16.09375 19.191406 16.082031 19.203125 16.070312 19.214844 C 16.0625 19.222656 16.050781 19.230469 16.042969 19.234375 C 16.03125 19.246094 16.019531 19.253906 16.007812 19.261719 C 15.996094 19.269531 15.984375 19.277344 15.972656 19.285156 C 15.960938 19.292969 15.953125 19.296875 15.941406 19.304688 C 15.925781 19.3125 15.910156 19.320312 15.894531 19.328125 C 15.886719 19.332031 15.882812 19.335938 15.875 19.335938 C 15.875 19.339844 15.871094 19.339844 15.871094 19.339844 C 15.847656 19.347656 15.828125 19.355469 15.808594 19.363281 C 15.800781 19.367188 15.796875 19.367188 15.789062 19.371094 C 15.769531 19.378906 15.75 19.382812 15.726562 19.386719 C 15.71875 19.390625 15.714844 19.390625 15.707031 19.390625 C 15.695312 19.394531 15.679688 19.398438 15.667969 19.398438 C 15.625 19.40625 15.582031 19.410156 15.539062 19.410156 C 15.539062 19.410156 15.535156 19.410156 15.535156 19.410156 L 12.128906 19.410156 C 12.125 19.410156 12.125 19.410156 12.121094 19.410156 C 12.078125 19.410156 12.035156 19.40625 11.992188 19.398438 C 11.980469 19.398438 11.96875 19.394531 11.957031 19.390625 C 11.949219 19.390625 11.941406 19.390625 11.933594 19.386719 C 11.914062 19.382812 11.890625 19.378906 11.871094 19.371094 C 11.867188 19.367188 11.859375 19.367188 11.855469 19.363281 C 11.832031 19.355469 11.8125 19.347656 11.792969 19.339844 C 11.789062 19.339844 11.789062 19.339844 11.785156 19.335938 C 11.78125 19.335938 11.773438 19.332031 11.769531 19.328125 C 11.75 19.320312 11.734375 19.3125 11.71875 19.304688 C 11.710938 19.296875 11.699219 19.292969 11.691406 19.285156 C 11.675781 19.277344 11.664062 19.269531 11.652344 19.261719 C 11.640625 19.253906 11.628906 19.246094 11.617188 19.234375 C 11.609375 19.230469 11.601562 19.222656 11.589844 19.214844 C 11.578125 19.203125 11.566406 19.191406 11.554688 19.183594 C 11.546875 19.175781 11.542969 19.167969 11.535156 19.160156 C 11.523438 19.148438 11.511719 19.136719 11.503906 19.125 C 11.496094 19.117188 11.488281 19.109375 11.480469 19.101562 C 11.472656 19.089844 11.464844 19.078125 11.453125 19.066406 C 11.449219 19.054688 11.441406 19.042969 11.433594 19.035156 C 11.425781 19.023438 11.417969 19.011719 11.414062 19 C 11.40625 18.988281 11.398438 18.976562 11.390625 18.964844 C 11.386719 18.953125 11.382812 18.945312 11.378906 18.933594 C 11.371094 18.917969 11.363281 18.90625 11.359375 18.890625 C 11.355469 18.882812 11.351562 18.871094 11.347656 18.859375 C 11.34375 18.847656 11.339844 18.832031 11.332031 18.816406 C 11.332031 18.804688 11.328125 18.792969 11.324219 18.78125 C 11.320312 18.769531 11.316406 18.753906 11.316406 18.738281 C 11.3125 18.726562 11.3125 18.710938 11.308594 18.695312 C 11.308594 18.683594 11.304688 18.675781 11.304688 18.664062 C 11.304688 18.644531 11.300781 18.625 11.300781 18.609375 C 11.300781 18.601562 11.300781 18.59375 11.300781 18.585938 C 11.300781 18.585938 11.300781 18.582031 11.300781 18.582031 C 11.300781 18.5625 11.300781 18.542969 11.304688 18.523438 C 11.304688 18.515625 11.304688 18.507812 11.304688 18.5 C 11.308594 18.480469 11.308594 18.464844 11.3125 18.449219 C 11.316406 18.4375 11.316406 18.425781 11.320312 18.414062 C 11.320312 18.402344 11.324219 18.394531 11.328125 18.382812 C 11.332031 18.367188 11.335938 18.351562 11.339844 18.335938 C 11.34375 18.328125 11.347656 18.320312 11.347656 18.3125 C 11.355469 18.292969 11.363281 18.273438 11.371094 18.257812 C 11.371094 18.253906 11.371094 18.253906 11.371094 18.25 L 13.042969 14.527344 C 13.109375 14.308594 13.265625 14.117188 13.492188 14.015625 C 13.582031 13.976562 13.671875 13.957031 13.765625 13.949219 C 13.769531 13.949219 13.777344 13.949219 13.78125 13.945312 C 13.796875 13.945312 13.8125 13.945312 13.832031 13.945312 C 13.847656 13.945312 13.863281 13.945312 13.882812 13.949219 C 13.886719 13.949219 13.890625 13.949219 13.894531 13.949219 C 13.988281 13.953125 14.082031 13.976562 14.171875 14.015625 C 14.398438 14.117188 14.554688 14.308594 14.621094 14.527344 L 16.289062 18.25 C 16.289062 18.253906 16.289062 18.253906 16.292969 18.257812 C 16.300781 18.273438 16.304688 18.292969 16.3125 18.3125 C 16.316406 18.320312 16.320312 18.328125 16.320312 18.335938 C 16.328125 18.351562 16.332031 18.367188 16.335938 18.382812 C 16.335938 18.394531 16.339844 18.402344 16.34375 18.414062 C 16.34375 18.425781 16.347656 18.4375 16.347656 18.449219 C 16.351562 18.464844 16.355469 18.480469 16.355469 18.5 C 16.355469 18.507812 16.359375 18.515625 16.359375 18.523438 C 16.359375 18.542969 16.359375 18.5625 16.359375 18.582031 C 16.359375 18.582031 16.363281 18.585938 16.363281 18.585938 C 16.359375 18.59375 16.359375 18.601562 16.359375 18.609375 Z M 16.359375 18.609375 "/>
<path style=" stroke:none;fill-rule:nonzero;fill:rgb(0%,0%,0%);fill-opacity:1;" d="M 18.894531 7.71875 C 17.386719 6.988281 15.707031 6.605469 14.03125 6.605469 C 12.355469 6.605469 10.675781 6.988281 9.167969 7.71875 L 9.105469 7.75 C 8.695312 7.945312 8.523438 8.4375 8.722656 8.847656 C 8.863281 9.140625 9.160156 9.3125 9.464844 9.3125 C 9.582031 9.3125 9.707031 9.285156 9.820312 9.230469 L 9.882812 9.199219 C 11.167969 8.578125 12.601562 8.25 14.03125 8.25 C 15.460938 8.25 16.894531 8.578125 18.179688 9.199219 C 18.589844 9.394531 19.078125 9.226562 19.277344 8.816406 C 19.476562 8.40625 19.304688 7.914062 18.894531 7.71875 Z M 18.894531 7.71875 "/>
<path style=" stroke:none;fill-rule:nonzero;fill:rgb(0%,0%,0%);fill-opacity:1;" d="M 21.640625 4.980469 L 20.910156 4.683594 C 18.71875 3.785156 16.40625 3.332031 14.035156 3.332031 C 11.667969 3.332031 9.355469 3.785156 7.164062 4.683594 L 6.433594 4.980469 C 6.015625 5.152344 5.8125 5.632812 5.984375 6.054688 C 6.113281 6.371094 6.421875 6.5625 6.746094 6.5625 C 6.847656 6.5625 6.953125 6.542969 7.054688 6.503906 L 7.785156 6.203125 C 9.78125 5.386719 11.882812 4.976562 14.035156 4.976562 C 16.191406 4.976562 18.292969 5.386719 20.289062 6.203125 L 21.015625 6.503906 C 21.4375 6.675781 21.917969 6.472656 22.089844 6.050781 C 22.261719 5.632812 22.058594 5.152344 21.640625 4.980469 Z M 21.640625 4.980469 "/>
<path style=" stroke:none;fill-rule:nonzero;fill:rgb(0%,0%,0%);fill-opacity:1;" d="M 24.1875 2.214844 L 23.199219 1.808594 C 20.265625 0.609375 17.171875 0 14 0 C 10.828125 0 7.734375 0.609375 4.800781 1.808594 L 3.8125 2.214844 C 3.390625 2.386719 3.191406 2.863281 3.363281 3.285156 C 3.535156 3.707031 4.015625 3.90625 4.433594 3.734375 L 5.421875 3.332031 C 8.160156 2.210938 11.042969 1.644531 14 1.644531 C 16.957031 1.644531 19.839844 2.210938 22.578125 3.332031 L 23.566406 3.734375 C 23.667969 3.777344 23.773438 3.796875 23.875 3.796875 C 24.199219 3.796875 24.507812 3.605469 24.636719 3.285156 C 24.808594 2.863281 24.609375 2.386719 24.1875 2.214844 Z M 24.1875 2.214844 "/>
</g>
</svg>
