<?xml version="1.0" encoding="UTF-8"?>
<svg xmlns="http://www.w3.org/2000/svg" xmlns:xlink="http://www.w3.org/1999/xlink" width="28pt" height="28pt" viewBox="0 0 28 28" version="1.1">
<g id="surface1">
<path style=" stroke:none;fill-rule:nonzero;fill:rgb(0%,0%,0%);fill-opacity:1;" d="M 27.253906 5.953125 L 0.746094 5.953125 C 0.335938 5.953125 0 6.289062 0 6.699219 L 0 21.300781 C 0 21.710938 0.335938 22.046875 0.746094 22.046875 L 1.320312 22.046875 C 1.730469 22.046875 2.066406 21.710938 2.066406 21.300781 L 2.066406 10.378906 L 17.367188 10.378906 L 17.367188 14.949219 C 17.367188 15.359375 17.703125 15.695312 18.113281 15.695312 L 25.933594 15.695312 L 25.933594 21.300781 C 25.933594 21.710938 26.269531 22.046875 26.679688 22.046875 L 27.253906 22.046875 C 27.664062 22.046875 28 21.710938 28 21.300781 L 28 6.699219 C 28 6.289062 27.664062 5.953125 27.253906 5.953125 Z M 25.472656 14.347656 L 18.585938 14.347656 C 18.269531 14.347656 18.011719 14.089844 18.011719 13.773438 C 18.011719 13.457031 18.269531 13.199219 18.585938 13.199219 L 25.472656 13.199219 C 25.789062 13.199219 26.046875 13.457031 26.046875 13.773438 C 26.046875 14.089844 25.789062 14.347656 25.472656 14.347656 Z M 25.472656 11.71875 L 18.585938 11.71875 C 18.269531 11.71875 18.011719 11.460938 18.011719 11.144531 C 18.011719 10.828125 18.269531 10.570312 18.585938 10.570312 L 25.472656 10.570312 C 25.789062 10.570312 26.046875 10.828125 26.046875 11.144531 C 26.046875 11.460938 25.789062 11.71875 25.472656 11.71875 Z M 25.472656 11.71875 "/>
</g>
</svg>
