<?xml version="1.0" encoding="UTF-8"?>
<svg xmlns="http://www.w3.org/2000/svg" xmlns:xlink="http://www.w3.org/1999/xlink" width="28pt" height="28pt" viewBox="0 0 28 28" version="1.1">
<g id="surface1">
<path style=" stroke:none;fill-rule:nonzero;fill:rgb(0%,0%,0%);fill-opacity:1;" d="M 19.375 0 L 8.644531 0 L 8.644531 22.058594 L 19.375 22.058594 Z M 18.785156 12.296875 C 18.785156 12.75 18.414062 13.117188 17.960938 13.117188 L 15.429688 13.117188 C 15.011719 13.117188 14.671875 12.804688 14.621094 12.394531 C 14.613281 12.363281 14.609375 12.328125 14.609375 12.296875 L 14.609375 12.144531 C 14.609375 11.691406 14.976562 11.324219 15.429688 11.324219 L 17.960938 11.324219 C 18.414062 11.324219 18.785156 11.691406 18.785156 12.144531 Z M 18.785156 12.296875 "/>
<path style=" stroke:none;fill-rule:nonzero;fill:rgb(0%,0%,0%);fill-opacity:1;" d="M 17.960938 11.921875 L 15.429688 11.921875 C 15.308594 11.921875 15.207031 12.023438 15.207031 12.144531 L 15.207031 12.296875 C 15.207031 12.417969 15.308594 12.519531 15.429688 12.519531 L 17.960938 12.519531 C 18.058594 12.519531 18.140625 12.457031 18.167969 12.367188 C 18.175781 12.347656 18.1875 12.316406 18.1875 12.296875 L 18.1875 12.144531 C 18.1875 12.023438 18.085938 11.921875 17.960938 11.921875 Z M 17.960938 11.921875 "/>
<path style=" stroke:none;fill-rule:nonzero;fill:rgb(0%,0%,0%);fill-opacity:1;" d="M 21.164062 23.25 L 6.859375 23.25 L 5.660156 24.445312 L 22.359375 24.445312 Z M 21.164062 23.25 "/>
<path style=" stroke:none;fill-rule:nonzero;fill:rgb(0%,0%,0%);fill-opacity:1;" d="M 22.359375 25.039062 L 5.660156 25.039062 L 4.472656 26.234375 L 23.550781 26.234375 Z M 22.359375 25.039062 "/>
<path style=" stroke:none;fill-rule:nonzero;fill:rgb(0%,0%,0%);fill-opacity:1;" d="M 4.472656 26.828125 L 3.28125 28.023438 L 24.742188 28.023438 L 23.550781 26.828125 Z M 4.472656 26.828125 "/>
</g>
</svg>
