<?xml version="1.0" encoding="UTF-8"?>
<svg xmlns="http://www.w3.org/2000/svg" xmlns:xlink="http://www.w3.org/1999/xlink" width="28pt" height="28pt" viewBox="0 0 28 28" version="1.1">
<g id="surface1">
<path style=" stroke:none;fill-rule:nonzero;fill:rgb(0%,0%,0%);fill-opacity:1;" d="M 0.792969 11.769531 L 18.191406 14.453125 C 18.058594 14.183594 17.976562 13.886719 17.976562 13.566406 C 17.976562 12.453125 18.875 11.554688 19.988281 11.554688 C 21.097656 11.554688 22 12.453125 22 13.566406 C 22 14.105469 21.785156 14.59375 21.4375 14.953125 L 27.113281 15.828125 C 27.769531 15.929688 28.0625 15.53125 27.761719 14.933594 L 25.097656 9.601562 C 24.785156 9.804688 24.414062 9.925781 24.011719 9.925781 C 22.898438 9.925781 22 9.023438 22 7.914062 C 22 7.046875 22.546875 6.316406 23.3125 6.03125 L 22.003906 3.410156 C 21.703125 2.816406 20.964844 2.542969 20.351562 2.800781 L 17.472656 4.019531 C 17.855469 4.546875 18.085938 5.195312 18.085938 5.898438 C 18.085938 7.667969 16.65625 9.097656 14.890625 9.097656 C 13.308594 9.097656 12 7.953125 11.742188 6.445312 L 0.710938 11.117188 C 0.0976562 11.375 0.132812 11.667969 0.792969 11.769531 Z M 9.457031 9.273438 C 9.824219 9.273438 10.125 9.570312 10.125 9.9375 C 10.125 10.304688 9.824219 10.605469 9.457031 10.605469 C 9.089844 10.605469 8.792969 10.308594 8.792969 9.9375 C 8.792969 9.570312 9.089844 9.273438 9.457031 9.273438 Z M 9.457031 9.273438 "/>
<path style=" stroke:none;fill-rule:nonzero;fill:rgb(0%,0%,0%);fill-opacity:1;" d="M 2.28125 16.445312 C 3.5625 16.445312 4.597656 17.480469 4.597656 18.761719 C 4.597656 20.042969 3.5625 21.082031 2.28125 21.082031 C 1.796875 21.082031 1.34375 20.929688 0.972656 20.675781 L 1.203125 22.660156 C 1.28125 23.324219 1.882812 23.890625 2.546875 23.929688 L 16.773438 24.769531 C 16.769531 24.714844 16.757812 24.660156 16.757812 24.601562 C 16.757812 23.5 17.648438 22.605469 18.75 22.605469 C 19.851562 22.605469 20.746094 23.5 20.746094 24.601562 C 20.746094 24.738281 20.730469 24.871094 20.707031 25 L 25.152344 25.265625 C 25.820312 25.300781 26.457031 24.804688 26.582031 24.148438 L 27.96875 16.75 L 0 12.257812 L 0.570312 17.199219 C 0.996094 16.734375 1.601562 16.445312 2.28125 16.445312 Z M 10.195312 16.492188 C 10.96875 16.492188 11.597656 17.121094 11.597656 17.894531 C 11.597656 18.667969 10.96875 19.296875 10.195312 19.296875 C 9.421875 19.296875 8.792969 18.667969 8.792969 17.894531 C 8.792969 17.121094 9.421875 16.492188 10.195312 16.492188 Z M 7.390625 20.417969 C 7.757812 20.417969 8.058594 20.714844 8.058594 21.082031 C 8.058594 21.449219 7.757812 21.746094 7.390625 21.746094 C 7.023438 21.746094 6.726562 21.449219 6.726562 21.082031 C 6.726562 20.714844 7.023438 20.417969 7.390625 20.417969 Z M 7.390625 20.417969 "/>
</g>
</svg>
