<?xml version="1.0" encoding="UTF-8"?>
<svg xmlns="http://www.w3.org/2000/svg" xmlns:xlink="http://www.w3.org/1999/xlink" width="28pt" height="27pt" viewBox="0 0 28 27" version="1.1">
<g id="surface1">
<path style=" stroke:none;fill-rule:nonzero;fill:rgb(0%,0%,0%);fill-opacity:1;" d="M 1.3125 24.046875 L 7.4375 24.046875 L 7.4375 16.03125 L 1.3125 16.03125 Z M 5.769531 19.566406 C 6.058594 19.566406 6.289062 19.789062 6.289062 20.066406 C 6.289062 20.34375 6.058594 20.566406 5.769531 20.566406 C 5.484375 20.566406 5.25 20.34375 5.25 20.066406 C 5.25 19.789062 5.484375 19.566406 5.769531 19.566406 Z M 5.769531 19.566406 "/>
<path style=" stroke:none;fill-rule:nonzero;fill:rgb(0%,0%,0%);fill-opacity:1;" d="M 8.75 26.578125 L 8.75 14.765625 L 0 14.765625 L 0 26.578125 L 1.3125 26.578125 L 1.3125 25.3125 L 7.4375 25.3125 L 7.4375 26.578125 Z M 1.3125 24.46875 L 0.875 24.46875 L 0.875 15.609375 L 7.875 15.609375 L 7.875 24.46875 Z M 1.3125 24.46875 "/>
<path style=" stroke:none;fill-rule:nonzero;fill:rgb(0%,0%,0%);fill-opacity:1;" d="M 10.5 24.046875 L 16.625 24.046875 L 16.625 16.03125 L 10.5 16.03125 Z M 15.394531 19.566406 C 15.683594 19.566406 15.914062 19.789062 15.914062 20.066406 C 15.914062 20.34375 15.683594 20.566406 15.394531 20.566406 C 15.109375 20.566406 14.875 20.34375 14.875 20.066406 C 14.875 19.789062 15.109375 19.566406 15.394531 19.566406 Z M 15.394531 19.566406 "/>
<path style=" stroke:none;fill-rule:nonzero;fill:rgb(0%,0%,0%);fill-opacity:1;" d="M 17.9375 26.578125 L 17.9375 14.765625 L 9.1875 14.765625 L 9.1875 26.578125 L 10.5 26.578125 L 10.5 25.3125 L 16.625 25.3125 L 16.625 26.578125 Z M 10.5 24.46875 L 10.0625 24.46875 L 10.0625 15.609375 L 17.0625 15.609375 L 17.0625 24.46875 Z M 10.5 24.46875 "/>
<path style=" stroke:none;fill-rule:nonzero;fill:rgb(0%,0%,0%);fill-opacity:1;" d="M 19.6875 19.40625 L 26.6875 19.40625 L 26.6875 24.046875 L 19.6875 24.046875 Z M 19.6875 19.40625 "/>
<path style=" stroke:none;fill-rule:nonzero;fill:rgb(0%,0%,0%);fill-opacity:1;" d="M 26.25 14.34375 L 24.0625 14.34375 C 23.820312 14.34375 23.625 14.53125 23.625 14.765625 L 22.75 14.765625 C 22.75 14.53125 22.554688 14.34375 22.3125 14.34375 L 20.125 14.34375 C 19.882812 14.34375 19.6875 14.53125 19.6875 14.765625 L 18.375 14.765625 L 18.375 26.578125 L 19.6875 26.578125 L 19.6875 25.3125 L 26.6875 25.3125 L 26.6875 26.578125 L 28 26.578125 L 28 14.765625 L 26.6875 14.765625 C 26.6875 14.53125 26.492188 14.34375 26.25 14.34375 Z M 25.101562 16.269531 C 25.101562 16.546875 24.867188 16.769531 24.582031 16.769531 C 24.292969 16.769531 24.0625 16.546875 24.0625 16.269531 C 24.0625 15.992188 24.296875 15.765625 24.582031 15.765625 C 24.871094 15.765625 25.101562 15.992188 25.101562 16.269531 Z M 26.25 17.71875 C 26.371094 17.71875 26.46875 17.8125 26.46875 17.929688 C 26.46875 18.046875 26.371094 18.140625 26.25 18.140625 L 20.125 18.140625 C 20.003906 18.140625 19.90625 18.046875 19.90625 17.929688 C 19.90625 17.8125 20.003906 17.71875 20.125 17.71875 Z M 22.914062 16.269531 C 22.914062 16.546875 22.679688 16.769531 22.394531 16.769531 C 22.105469 16.769531 21.875 16.546875 21.875 16.269531 C 21.875 15.992188 22.109375 15.765625 22.394531 15.765625 C 22.683594 15.765625 22.914062 15.992188 22.914062 16.269531 Z M 20.207031 15.765625 C 20.496094 15.765625 20.726562 15.992188 20.726562 16.269531 C 20.726562 16.546875 20.496094 16.769531 20.207031 16.769531 C 19.921875 16.769531 19.6875 16.546875 19.6875 16.269531 C 19.6875 15.992188 19.921875 15.765625 20.207031 15.765625 Z M 27.125 24.46875 L 19.25 24.46875 L 19.25 18.984375 L 27.125 18.984375 Z M 26.769531 15.765625 C 27.058594 15.765625 27.289062 15.992188 27.289062 16.269531 C 27.289062 16.546875 27.058594 16.769531 26.769531 16.769531 C 26.484375 16.769531 26.25 16.546875 26.25 16.269531 C 26.25 15.992188 26.484375 15.765625 26.769531 15.765625 Z M 26.769531 15.765625 "/>
<path style=" stroke:none;fill-rule:nonzero;fill:rgb(0%,0%,0%);fill-opacity:1;" d="M 24.9375 5.90625 L 24.9375 0.421875 L 21 0.421875 L 21 5.90625 L 19.6875 5.90625 L 17.9375 8.859375 L 28 8.859375 L 26.25 5.90625 Z M 25.019531 7.910156 C 24.734375 7.910156 24.5 7.6875 24.5 7.410156 C 24.5 7.132812 24.734375 6.90625 25.019531 6.90625 C 25.308594 6.90625 25.539062 7.132812 25.539062 7.410156 C 25.539062 7.6875 25.304688 7.910156 25.019531 7.910156 Z M 25.019531 7.910156 "/>
<path style=" stroke:none;fill-rule:nonzero;fill:rgb(0%,0%,0%);fill-opacity:1;" d="M 11.375 13.078125 L 13.125 13.078125 C 13.367188 13.078125 13.5625 12.890625 13.5625 12.65625 C 13.5625 12.421875 13.367188 12.234375 13.125 12.234375 L 10.9375 12.234375 C 10.695312 12.234375 10.5 12.421875 10.5 12.65625 L 10.5 14.34375 L 11.375 14.34375 Z M 11.375 13.078125 "/>
<path style=" stroke:none;fill-rule:nonzero;fill:rgb(0%,0%,0%);fill-opacity:1;" d="M 7 14.34375 L 7 12.65625 C 7 12.421875 6.804688 12.234375 6.5625 12.234375 L 4.375 12.234375 C 4.132812 12.234375 3.9375 12.421875 3.9375 12.65625 C 3.9375 12.890625 4.132812 13.078125 4.375 13.078125 L 6.125 13.078125 L 6.125 14.34375 Z M 7 14.34375 "/>
<path style=" stroke:none;fill-rule:nonzero;fill:rgb(0%,0%,0%);fill-opacity:1;" d="M 9.1875 14.34375 L 9.1875 11.8125 C 9.429688 11.8125 9.625 11.625 9.625 11.390625 C 9.625 11.15625 9.429688 10.96875 9.1875 10.96875 L 9.1875 10.125 C 9.1875 9.890625 8.992188 9.703125 8.75 9.703125 C 8.507812 9.703125 8.3125 9.890625 8.3125 10.125 L 8.3125 10.96875 C 8.070312 10.96875 7.875 11.15625 7.875 11.390625 C 7.875 11.625 8.070312 11.8125 8.3125 11.8125 L 8.3125 14.34375 Z M 9.1875 14.34375 "/>
<path style=" stroke:none;fill-rule:nonzero;fill:rgb(0%,0%,0%);fill-opacity:1;" d="M 16.1875 5.484375 L 6.898438 5.484375 C 7.496094 4.996094 7.875 4.269531 7.875 3.453125 C 7.875 1.984375 6.636719 0.792969 5.113281 0.792969 C 3.589844 0.792969 2.351562 1.984375 2.351562 3.453125 C 2.351562 4.269531 2.730469 4.996094 3.328125 5.484375 L 0.875 5.484375 L 0.875 6.328125 L 16.1875 6.328125 Z M 3.28125 3.453125 C 3.28125 2.480469 4.101562 1.6875 5.113281 1.6875 C 6.125 1.6875 6.945312 2.480469 6.945312 3.453125 C 6.945312 4.429688 6.125 5.222656 5.113281 5.222656 C 4.101562 5.222656 3.28125 4.429688 3.28125 3.453125 Z M 3.28125 3.453125 "/>
<path style=" stroke:none;fill-rule:nonzero;fill:rgb(0%,0%,0%);fill-opacity:1;" d="M 6.507812 3.453125 C 6.507812 4.195312 5.882812 4.800781 5.113281 4.800781 C 4.34375 4.800781 3.71875 4.195312 3.71875 3.453125 C 3.71875 2.710938 4.34375 2.109375 5.113281 2.109375 C 5.882812 2.109375 6.507812 2.710938 6.507812 3.453125 Z M 6.507812 3.453125 "/>
<path style=" stroke:none;fill-rule:nonzero;fill:rgb(0%,0%,0%);fill-opacity:1;" d="M 9.40625 5.0625 L 15.53125 5.0625 C 15.652344 5.0625 15.75 4.96875 15.75 4.851562 C 15.75 4.734375 15.652344 4.640625 15.53125 4.640625 L 9.40625 4.640625 C 9.285156 4.640625 9.1875 4.734375 9.1875 4.851562 C 9.1875 4.96875 9.285156 5.0625 9.40625 5.0625 Z M 9.40625 5.0625 "/>
<path style=" stroke:none;fill-rule:nonzero;fill:rgb(0%,0%,0%);fill-opacity:1;" d="M 9.84375 4.21875 L 15.09375 4.21875 C 15.214844 4.21875 15.3125 4.125 15.3125 4.007812 C 15.3125 3.890625 15.214844 3.796875 15.09375 3.796875 L 9.84375 3.796875 C 9.722656 3.796875 9.625 3.890625 9.625 4.007812 C 9.625 4.125 9.722656 4.21875 9.84375 4.21875 Z M 9.84375 4.21875 "/>
<path style=" stroke:none;fill-rule:nonzero;fill:rgb(0%,0%,0%);fill-opacity:1;" d="M 9.84375 3.375 L 15.09375 3.375 C 15.214844 3.375 15.3125 3.28125 15.3125 3.164062 C 15.3125 3.046875 15.214844 2.953125 15.09375 2.953125 L 9.84375 2.953125 C 9.722656 2.953125 9.625 3.046875 9.625 3.164062 C 9.625 3.28125 9.722656 3.375 9.84375 3.375 Z M 9.84375 3.375 "/>
<path style=" stroke:none;fill-rule:nonzero;fill:rgb(0%,0%,0%);fill-opacity:1;" d="M 11.003906 2.53125 L 13.714844 2.53125 C 14.128906 2.53125 14.394531 1.964844 14.394531 1.558594 C 14.394531 1.273438 14.265625 0.84375 14.050781 0.84375 L 10.667969 0.84375 C 10.449219 0.84375 10.324219 1.273438 10.324219 1.558594 C 10.324219 1.964844 10.589844 2.53125 11.003906 2.53125 Z M 11.003906 2.53125 "/>
</g>
</svg>
