<?xml version="1.0" encoding="UTF-8"?>
<svg xmlns="http://www.w3.org/2000/svg" xmlns:xlink="http://www.w3.org/1999/xlink" width="28pt" height="27pt" viewBox="0 0 28 27" version="1.1">
<g id="surface1">
<path style=" stroke:none;fill-rule:nonzero;fill:rgb(0%,0%,0%);fill-opacity:1;" d="M 19.054688 11.589844 C 20.601562 12.386719 23.574219 12.144531 25.832031 9.960938 C 28.074219 7.800781 28.921875 4.640625 26.804688 2.527344 C 26.796875 2.519531 26.757812 2.484375 26.75 2.476562 C 24.558594 0.433594 21.28125 1.25 19.039062 3.410156 C 16.777344 5.589844 16.527344 8.457031 17.351562 9.945312 C 17.140625 11.164062 15.40625 12.488281 13.851562 13.347656 C 12.652344 12.632812 11.136719 11.371094 10.980469 8.835938 C 11.09375 7.824219 10.75 6.773438 9.945312 5.996094 C 9.871094 5.925781 9.660156 5.753906 9.660156 5.753906 L 3.800781 1.351562 L 3.265625 1.867188 L 9.625 7.617188 L 8.933594 8.28125 L 2.773438 2.34375 L 2.210938 2.886719 L 8.367188 8.828125 L 7.785156 9.390625 L 1.628906 3.449219 L 1.113281 3.945312 L 7.234375 9.847656 L 6.53125 10.527344 L 0.582031 4.453125 L 0 5.019531 L 4.863281 10.925781 C 4.863281 10.925781 4.976562 11.039062 5.027344 11.082031 C 5.734375 11.679688 6.621094 11.960938 7.503906 11.9375 C 7.507812 11.9375 7.515625 11.9375 7.519531 11.9375 C 9.835938 11.960938 11.265625 13.316406 12.164062 14.488281 C 9.964844 16.613281 3.132812 23.203125 3.132812 23.203125 C 3.128906 23.207031 3.117188 23.214844 3.113281 23.21875 C 2.554688 23.757812 2.554688 24.625 3.113281 25.164062 C 3.140625 25.191406 3.25 25.292969 3.277344 25.320312 C 3.832031 25.859375 4.734375 25.859375 5.289062 25.320312 C 5.296875 25.316406 5.304688 25.308594 5.308594 25.300781 C 5.308594 25.300781 11.65625 19.183594 14.085938 16.839844 C 16.402344 19.070312 22.820312 25.257812 22.820312 25.257812 L 22.820312 25.253906 C 22.824219 25.261719 22.828125 25.269531 22.835938 25.277344 C 23.382812 25.804688 24.273438 25.804688 24.824219 25.277344 C 25.371094 24.746094 25.371094 23.890625 24.824219 23.359375 C 24.816406 23.351562 24.808594 23.351562 24.800781 23.34375 L 24.800781 23.339844 C 24.800781 23.339844 17.714844 16.507812 15.746094 14.609375 C 16.636719 13.214844 17.890625 11.777344 19.054688 11.589844 Z M 18.304688 7.507812 C 18.335938 7.144531 18.414062 6.726562 18.539062 6.285156 C 18.605469 6.066406 18.683594 5.839844 18.777344 5.613281 C 18.882812 5.378906 18.992188 5.164062 19.152344 4.9375 C 19.460938 4.503906 19.835938 4.167969 20.207031 3.882812 C 20.578125 3.597656 20.953125 3.375 21.285156 3.207031 C 21.613281 3.035156 21.910156 2.921875 22.121094 2.859375 C 22.335938 2.789062 22.460938 2.78125 22.460938 2.78125 C 22.460938 2.78125 22.359375 2.855469 22.203125 2.996094 C 22.046875 3.136719 21.824219 3.335938 21.558594 3.574219 C 21.046875 4.058594 20.3125 4.683594 19.796875 5.367188 C 19.671875 5.523438 19.558594 5.726562 19.460938 5.914062 C 19.355469 6.109375 19.261719 6.304688 19.175781 6.503906 C 19 6.894531 18.851562 7.273438 18.726562 7.597656 C 18.601562 7.925781 18.507812 8.203125 18.449219 8.398438 C 18.386719 8.59375 18.394531 8.710938 18.40625 8.710938 C 18.402344 8.71875 18.324219 8.605469 18.300781 8.386719 C 18.273438 8.175781 18.269531 7.867188 18.304688 7.507812 Z M 18.304688 7.507812 "/>
</g>
</svg>
