<?xml version="1.0" encoding="UTF-8"?>
<svg xmlns="http://www.w3.org/2000/svg" xmlns:xlink="http://www.w3.org/1999/xlink" width="28pt" height="28pt" viewBox="0 0 28 28" version="1.1">
<g id="surface1">
<path style=" stroke:none;fill-rule:nonzero;fill:rgb(0%,0%,0%);fill-opacity:1;" d="M 14.050781 7.011719 C 10.167969 7.011719 7.011719 10.167969 7.011719 14.050781 C 7.011719 17.929688 10.167969 21.089844 14.050781 21.089844 C 17.929688 21.089844 21.085938 17.933594 21.085938 14.050781 C 21.085938 10.167969 17.929688 7.011719 14.050781 7.011719 Z M 14.050781 7.011719 "/>
<path style=" stroke:none;fill-rule:nonzero;fill:rgb(0%,0%,0%);fill-opacity:1;" d="M 14.050781 4.941406 C 13.292969 4.941406 12.675781 4.328125 12.675781 3.570312 L 12.675781 1.375 C 12.675781 0.613281 13.292969 0 14.050781 0 C 14.808594 0 15.421875 0.613281 15.421875 1.375 L 15.421875 3.570312 C 15.421875 4.328125 14.808594 4.941406 14.050781 4.941406 Z M 14.050781 4.941406 "/>
<path style=" stroke:none;fill-rule:nonzero;fill:rgb(0%,0%,0%);fill-opacity:1;" d="M 14.050781 23.15625 C 13.292969 23.15625 12.675781 23.769531 12.675781 24.527344 L 12.675781 26.726562 C 12.675781 27.484375 13.292969 28.097656 14.050781 28.097656 C 14.808594 28.097656 15.421875 27.484375 15.421875 26.726562 L 15.421875 24.527344 C 15.421875 23.769531 14.808594 23.15625 14.050781 23.15625 Z M 14.050781 23.15625 "/>
<path style=" stroke:none;fill-rule:nonzero;fill:rgb(0%,0%,0%);fill-opacity:1;" d="M 20.488281 7.609375 C 19.953125 7.074219 19.953125 6.203125 20.488281 5.667969 L 22.042969 4.113281 C 22.578125 3.578125 23.449219 3.578125 23.984375 4.113281 C 24.519531 4.652344 24.519531 5.519531 23.984375 6.058594 L 22.429688 7.609375 C 21.894531 8.148438 21.027344 8.148438 20.488281 7.609375 Z M 20.488281 7.609375 "/>
<path style=" stroke:none;fill-rule:nonzero;fill:rgb(0%,0%,0%);fill-opacity:1;" d="M 7.609375 20.488281 C 7.074219 19.953125 6.203125 19.953125 5.667969 20.488281 L 4.113281 22.042969 C 3.578125 22.578125 3.578125 23.449219 4.113281 23.984375 C 4.652344 24.519531 5.519531 24.519531 6.058594 23.984375 L 7.609375 22.429688 C 8.148438 21.894531 8.148438 21.023438 7.609375 20.488281 Z M 7.609375 20.488281 "/>
<path style=" stroke:none;fill-rule:nonzero;fill:rgb(0%,0%,0%);fill-opacity:1;" d="M 23.15625 14.050781 C 23.15625 13.292969 23.769531 12.675781 24.527344 12.675781 L 26.726562 12.675781 C 27.484375 12.675781 28.097656 13.292969 28.097656 14.050781 C 28.097656 14.808594 27.484375 15.421875 26.726562 15.421875 L 24.527344 15.421875 C 23.769531 15.421875 23.15625 14.808594 23.15625 14.050781 Z M 23.15625 14.050781 "/>
<path style=" stroke:none;fill-rule:nonzero;fill:rgb(0%,0%,0%);fill-opacity:1;" d="M 4.941406 14.050781 C 4.941406 13.292969 4.328125 12.675781 3.570312 12.675781 L 1.375 12.675781 C 0.613281 12.675781 0 13.292969 0 14.050781 C 0 14.808594 0.613281 15.421875 1.375 15.421875 L 3.570312 15.421875 C 4.328125 15.421875 4.941406 14.808594 4.941406 14.050781 Z M 4.941406 14.050781 "/>
<path style=" stroke:none;fill-rule:nonzero;fill:rgb(0%,0%,0%);fill-opacity:1;" d="M 20.488281 20.488281 C 21.023438 19.953125 21.894531 19.953125 22.429688 20.488281 L 23.984375 22.042969 C 24.519531 22.578125 24.519531 23.449219 23.984375 23.984375 C 23.449219 24.519531 22.578125 24.519531 22.042969 23.984375 L 20.488281 22.429688 C 19.953125 21.894531 19.953125 21.027344 20.488281 20.488281 Z M 20.488281 20.488281 "/>
<path style=" stroke:none;fill-rule:nonzero;fill:rgb(0%,0%,0%);fill-opacity:1;" d="M 7.609375 7.609375 C 8.148438 7.074219 8.148438 6.203125 7.609375 5.667969 L 6.058594 4.117188 C 5.519531 3.578125 4.652344 3.578125 4.113281 4.117188 C 3.578125 4.652344 3.578125 5.519531 4.113281 6.058594 L 5.667969 7.609375 C 6.203125 8.148438 7.074219 8.148438 7.609375 7.609375 Z M 7.609375 7.609375 "/>
</g>
</svg>
