<?xml version="1.0" encoding="UTF-8"?>
<svg xmlns="http://www.w3.org/2000/svg" xmlns:xlink="http://www.w3.org/1999/xlink" width="28pt" height="28pt" viewBox="0 0 28 28" version="1.1">
<g id="surface1">
<path style=" stroke:none;fill-rule:nonzero;fill:rgb(0%,0%,0%);fill-opacity:1;" d="M 21.992188 3.5625 L 21.992188 4.757812 L 17.367188 4.757812 L 17.367188 3.5625 Z M 20.054688 6.164062 L 17.367188 6.164062 L 17.367188 7.355469 L 20.054688 7.355469 Z M 17.367188 9.957031 L 21.992188 9.957031 L 21.992188 8.765625 L 17.367188 8.765625 Z M 20.054688 11.367188 L 17.367188 11.367188 L 17.367188 12.558594 L 20.054688 12.558594 Z M 17.367188 15.160156 L 21.992188 15.160156 L 21.992188 13.964844 L 17.367188 13.964844 Z M 18.089844 21.957031 C 18.089844 25.289062 15.378906 28 12.046875 28 C 8.71875 28 6.007812 25.289062 6.007812 21.957031 C 6.007812 19.800781 7.140625 17.839844 8.992188 16.753906 L 8.992188 3.058594 C 8.992188 1.371094 10.363281 0 12.046875 0 C 13.734375 0 15.105469 1.371094 15.105469 3.058594 L 15.105469 16.753906 C 16.957031 17.835938 18.089844 19.800781 18.089844 21.957031 Z M 16.894531 21.957031 C 16.894531 20.128906 15.878906 18.472656 14.238281 17.640625 L 13.914062 17.472656 L 13.914062 3.058594 C 13.914062 2.03125 13.078125 1.195312 12.046875 1.195312 C 11.019531 1.195312 10.183594 2.03125 10.183594 3.058594 L 10.183594 17.472656 L 9.859375 17.640625 C 8.21875 18.472656 7.199219 20.128906 7.199219 21.957031 C 7.199219 24.632812 9.375 26.808594 12.046875 26.808594 C 14.722656 26.808594 16.894531 24.632812 16.894531 21.957031 Z M 15.902344 21.957031 C 15.902344 24.082031 14.171875 25.8125 12.046875 25.8125 C 9.921875 25.8125 8.195312 24.082031 8.195312 21.957031 C 8.195312 20.21875 9.371094 18.6875 11.058594 18.238281 L 11.277344 18.179688 L 11.277344 10.820312 L 12.820312 10.820312 L 12.820312 18.179688 L 13.039062 18.238281 C 14.726562 18.6875 15.902344 20.21875 15.902344 21.957031 Z M 12.238281 19.390625 C 12.148438 18.980469 11.738281 18.714844 11.320312 18.808594 C 9.859375 19.140625 8.835938 20.417969 8.835938 21.917969 C 8.835938 22.339844 9.183594 22.6875 9.609375 22.6875 C 10.03125 22.6875 10.378906 22.339844 10.378906 21.917969 C 10.378906 21.152344 10.914062 20.480469 11.65625 20.3125 C 12.070312 20.214844 12.332031 19.804688 12.238281 19.390625 Z M 12.238281 19.390625 "/>
</g>
</svg>
