<?xml version="1.0" encoding="UTF-8"?>
<svg xmlns="http://www.w3.org/2000/svg" xmlns:xlink="http://www.w3.org/1999/xlink" width="28pt" height="28pt" viewBox="0 0 28 28" version="1.1">
<g id="surface1">
<path style=" stroke:none;fill-rule:nonzero;fill:rgb(0%,0%,0%);fill-opacity:1;" d="M 27.011719 9.785156 L 27.011719 8.144531 L 24.75 8.144531 C 24.628906 7.464844 24.359375 6.835938 23.980469 6.292969 L 25.582031 4.691406 L 24.421875 3.53125 L 22.820312 5.132812 C 22.277344 4.753906 21.648438 4.484375 20.96875 4.363281 L 20.96875 2.101562 L 19.328125 2.101562 L 19.328125 4.363281 C 18.648438 4.484375 18.019531 4.753906 17.476562 5.132812 L 15.875 3.53125 L 14.714844 4.691406 L 16.316406 6.292969 C 15.933594 6.835938 15.667969 7.464844 15.546875 8.144531 L 13.285156 8.144531 L 13.285156 9.785156 L 15.546875 9.785156 C 15.667969 10.464844 15.933594 11.09375 16.316406 11.636719 L 14.714844 13.238281 L 15.875 14.398438 L 17.476562 12.796875 C 18.019531 13.179688 18.648438 13.445312 19.328125 13.566406 L 19.328125 15.828125 L 20.96875 15.828125 L 20.96875 13.566406 C 21.648438 13.445312 22.277344 13.179688 22.820312 12.796875 L 24.421875 14.398438 L 25.582031 13.238281 L 23.980469 11.636719 C 24.359375 11.09375 24.628906 10.464844 24.75 9.785156 Z M 20.148438 12 C 18.472656 12 17.113281 10.636719 17.113281 8.964844 C 17.113281 7.292969 18.472656 5.929688 20.148438 5.929688 C 21.820312 5.929688 23.183594 7.292969 23.183594 8.964844 C 23.183594 10.636719 21.820312 12 20.148438 12 Z M 20.148438 12 "/>
<path style=" stroke:none;fill-rule:nonzero;fill:rgb(0%,0%,0%);fill-opacity:1;" d="M 8.082031 18.816406 L 8.082031 4.253906 L 6.441406 4.253906 L 6.441406 18.816406 C 5.183594 19.175781 4.253906 20.335938 4.253906 21.710938 C 4.253906 23.367188 5.605469 24.71875 7.261719 24.71875 C 8.921875 24.71875 10.269531 23.367188 10.269531 21.710938 C 10.269531 20.335938 9.34375 19.175781 8.082031 18.816406 Z M 7.261719 23.078125 C 6.507812 23.078125 5.894531 22.464844 5.894531 21.710938 C 5.894531 20.957031 6.507812 20.34375 7.261719 20.34375 C 8.015625 20.34375 8.628906 20.957031 8.628906 21.710938 C 8.628906 22.464844 8.015625 23.078125 7.261719 23.078125 Z M 7.261719 23.078125 "/>
<path style=" stroke:none;fill-rule:nonzero;fill:rgb(0%,0%,0%);fill-opacity:1;" d="M 11.53125 17.179688 L 11.53125 4.214844 C 11.53125 1.859375 9.617188 -0.0546875 7.261719 -0.0546875 C 4.910156 -0.0546875 2.992188 1.859375 2.992188 4.214844 L 2.992188 17.179688 C 1.722656 18.378906 1.015625 20.039062 1.039062 21.800781 C 1.0625 23.421875 1.710938 24.953125 2.867188 26.105469 C 4.023438 27.261719 5.550781 27.910156 7.175781 27.933594 C 7.203125 27.933594 7.234375 27.933594 7.261719 27.933594 C 8.925781 27.933594 10.488281 27.285156 11.664062 26.109375 C 12.839844 24.9375 13.488281 23.371094 13.488281 21.710938 C 13.488281 19.984375 12.78125 18.355469 11.53125 17.179688 Z M 10.503906 24.953125 C 9.625 25.832031 8.449219 26.3125 7.199219 26.292969 C 4.742188 26.257812 2.714844 24.234375 2.679688 21.777344 C 2.660156 20.382812 3.265625 19.070312 4.339844 18.179688 L 4.632812 17.933594 L 4.632812 4.214844 C 4.632812 2.765625 5.8125 1.585938 7.261719 1.585938 C 8.710938 1.585938 9.890625 2.765625 9.890625 4.214844 L 9.890625 17.933594 L 10.1875 18.179688 C 11.242188 19.054688 11.847656 20.34375 11.847656 21.710938 C 11.847656 22.933594 11.371094 24.085938 10.503906 24.953125 Z M 10.503906 24.953125 "/>
</g>
</svg>
