<?xml version="1.0" encoding="UTF-8"?>
<svg xmlns="http://www.w3.org/2000/svg" xmlns:xlink="http://www.w3.org/1999/xlink" width="28pt" height="28pt" viewBox="0 0 28 28" version="1.1">
<g id="surface1">
<path style=" stroke:none;fill-rule:nonzero;fill:rgb(0%,0%,0%);fill-opacity:1;" d="M 0.820312 21.507812 C 0.367188 21.507812 0 21.875 0 22.328125 C 0 22.78125 0.367188 23.148438 0.820312 23.148438 L 1.464844 23.148438 L 1.464844 21.507812 Z M 0.820312 21.507812 "/>
<path style=" stroke:none;fill-rule:nonzero;fill:rgb(0%,0%,0%);fill-opacity:1;" d="M 27.179688 21.507812 L 21.886719 21.507812 L 21.886719 23.148438 L 27.179688 23.148438 C 27.632812 23.148438 28 22.78125 28 22.328125 C 28 21.875 27.632812 21.507812 27.179688 21.507812 Z M 27.179688 21.507812 "/>
<path style=" stroke:none;fill-rule:nonzero;fill:rgb(0%,0%,0%);fill-opacity:1;" d="M 6.160156 6.972656 C 6.160156 6.292969 5.605469 5.738281 4.929688 5.738281 L 4.335938 5.738281 C 3.65625 5.738281 3.105469 6.292969 3.105469 6.972656 L 3.105469 24.765625 C 3.105469 25.445312 3.65625 25.996094 4.335938 25.996094 L 4.929688 25.996094 C 5.605469 25.996094 6.160156 25.445312 6.160156 24.765625 Z M 6.160156 6.972656 "/>
<path style=" stroke:none;fill-rule:nonzero;fill:rgb(0%,0%,0%);fill-opacity:1;" d="M 10.855469 6.972656 C 10.855469 6.292969 10.304688 5.738281 9.625 5.738281 L 9.035156 5.738281 C 8.355469 5.738281 7.800781 6.292969 7.800781 6.972656 L 7.800781 24.765625 C 7.800781 25.445312 8.355469 25.996094 9.035156 25.996094 L 9.625 25.996094 C 10.304688 25.996094 10.855469 25.445312 10.855469 24.765625 Z M 10.855469 6.972656 "/>
<path style=" stroke:none;fill-rule:nonzero;fill:rgb(0%,0%,0%);fill-opacity:1;" d="M 15.550781 6.972656 C 15.550781 6.292969 15 5.738281 14.320312 5.738281 L 13.730469 5.738281 C 13.050781 5.738281 12.496094 6.292969 12.496094 6.972656 L 12.496094 24.765625 C 12.496094 25.445312 13.050781 25.996094 13.730469 25.996094 L 14.320312 25.996094 C 15 25.996094 15.550781 25.445312 15.550781 24.765625 Z M 15.550781 6.972656 "/>
<path style=" stroke:none;fill-rule:nonzero;fill:rgb(0%,0%,0%);fill-opacity:1;" d="M 22.082031 5.738281 C 23.296875 5.738281 24.285156 6.726562 24.285156 7.941406 C 24.285156 8.394531 24.652344 8.761719 25.105469 8.761719 C 25.558594 8.761719 25.925781 8.394531 25.925781 7.941406 C 25.925781 5.824219 24.199219 4.097656 22.082031 4.097656 C 21.628906 4.097656 21.261719 4.464844 21.261719 4.917969 C 21.261719 5.078125 21.308594 5.222656 21.382812 5.347656 C 21.394531 5.367188 21.40625 5.382812 21.417969 5.402344 C 21.566406 5.605469 21.808594 5.738281 22.082031 5.738281 Z M 22.082031 5.738281 "/>
<path style=" stroke:none;fill-rule:nonzero;fill:rgb(0%,0%,0%);fill-opacity:1;" d="M 22.382812 3.664062 C 24.574219 3.664062 26.359375 5.449219 26.359375 7.640625 C 26.359375 8.09375 26.726562 8.460938 27.179688 8.460938 C 27.632812 8.460938 28 8.09375 28 7.640625 C 28 4.542969 25.480469 2.023438 22.382812 2.023438 C 21.929688 2.023438 21.5625 2.390625 21.5625 2.84375 C 21.5625 3.296875 21.929688 3.664062 22.382812 3.664062 Z M 22.382812 3.664062 "/>
<path style=" stroke:none;fill-rule:nonzero;fill:rgb(0%,0%,0%);fill-opacity:1;" d="M 20.335938 9.175781 C 20.304688 9.175781 20.277344 9.179688 20.246094 9.179688 L 20.246094 6.972656 C 20.246094 6.292969 19.695312 5.738281 19.015625 5.738281 L 18.425781 5.738281 C 17.746094 5.738281 17.191406 6.292969 17.191406 6.972656 L 17.191406 24.765625 C 17.191406 25.445312 17.746094 25.996094 18.425781 25.996094 L 19.015625 25.996094 C 19.695312 25.996094 20.246094 25.445312 20.246094 24.765625 L 20.246094 12.683594 C 20.277344 12.6875 20.304688 12.6875 20.335938 12.6875 C 20.789062 12.6875 21.15625 12.320312 21.15625 11.867188 L 21.15625 9.996094 C 21.15625 9.542969 20.789062 9.175781 20.335938 9.175781 Z M 20.335938 9.175781 "/>
<path style=" stroke:none;fill-rule:nonzero;fill:rgb(0%,0%,0%);fill-opacity:1;" d="M 21.484375 7.640625 C 21.484375 7.953125 21.644531 8.230469 21.886719 8.390625 C 22.03125 8.484375 22.199219 8.539062 22.382812 8.539062 C 22.878906 8.539062 23.28125 8.136719 23.28125 7.640625 C 23.28125 7.144531 22.878906 6.742188 22.382812 6.742188 C 22.199219 6.742188 22.027344 6.800781 21.886719 6.894531 C 21.644531 7.054688 21.484375 7.328125 21.484375 7.640625 Z M 21.484375 7.640625 "/>
</g>
</svg>
