<?xml version="1.0" encoding="UTF-8"?>
<svg xmlns="http://www.w3.org/2000/svg" xmlns:xlink="http://www.w3.org/1999/xlink" width="28pt" height="28pt" viewBox="0 0 28 28" version="1.1">
<g id="surface1">
<path style=" stroke:none;fill-rule:nonzero;fill:rgb(0%,0%,0%);fill-opacity:1;" d="M 1.042969 13.472656 L 7.761719 13.472656 C 8.335938 13.472656 8.804688 13.003906 8.804688 12.429688 L 8.804688 10.335938 C 8.804688 9.761719 8.335938 9.292969 7.761719 9.292969 L 1.042969 9.292969 C 0.46875 9.292969 0 9.761719 0 10.335938 L 0 12.429688 C 0 13.003906 0.46875 13.472656 1.042969 13.472656 Z M 1.042969 13.472656 "/>
<path style=" stroke:none;fill-rule:nonzero;fill:rgb(0%,0%,0%);fill-opacity:1;" d="M 18.375 12.429688 L 18.375 10.335938 C 18.375 9.761719 17.910156 9.292969 17.332031 9.292969 L 10.617188 9.292969 C 10.042969 9.292969 9.574219 9.761719 9.574219 10.335938 L 9.574219 12.429688 C 9.574219 13.003906 10.042969 13.472656 10.617188 13.472656 L 17.332031 13.472656 C 17.910156 13.472656 18.375 13.003906 18.375 12.429688 Z M 18.375 12.429688 "/>
<path style=" stroke:none;fill-rule:nonzero;fill:rgb(0%,0%,0%);fill-opacity:1;" d="M 27.949219 12.429688 L 27.949219 10.335938 C 27.949219 9.761719 27.480469 9.292969 26.90625 9.292969 L 20.191406 9.292969 C 19.613281 9.292969 19.148438 9.761719 19.148438 10.335938 L 19.148438 12.429688 C 19.148438 13.003906 19.613281 13.472656 20.191406 13.472656 L 26.90625 13.472656 C 27.480469 13.472656 27.949219 13.003906 27.949219 12.429688 Z M 27.949219 12.429688 "/>
<path style=" stroke:none;fill-rule:nonzero;fill:rgb(0%,0%,0%);fill-opacity:1;" d="M 5.769531 8.238281 L 12.488281 8.238281 C 13.0625 8.238281 13.53125 7.769531 13.53125 7.195312 L 13.53125 5.105469 C 13.53125 4.527344 13.0625 4.0625 12.488281 4.0625 L 5.769531 4.0625 C 5.195312 4.0625 4.726562 4.527344 4.726562 5.105469 L 4.726562 7.195312 C 4.726562 7.769531 5.195312 8.238281 5.769531 8.238281 Z M 5.769531 8.238281 "/>
<path style=" stroke:none;fill-rule:nonzero;fill:rgb(0%,0%,0%);fill-opacity:1;" d="M 15.445312 8.238281 L 22.160156 8.238281 C 22.734375 8.238281 23.203125 7.769531 23.203125 7.195312 L 23.203125 5.105469 C 23.203125 4.527344 22.734375 4.0625 22.160156 4.0625 L 15.445312 4.0625 C 14.867188 4.0625 14.402344 4.527344 14.402344 5.105469 L 14.402344 7.195312 C 14.402344 7.769531 14.867188 8.238281 15.445312 8.238281 Z M 15.445312 8.238281 "/>
<path style=" stroke:none;fill-rule:nonzero;fill:rgb(0%,0%,0%);fill-opacity:1;" d="M 1.042969 8.238281 L 2.871094 8.238281 C 3.445312 8.238281 3.914062 7.769531 3.914062 7.195312 L 3.914062 5.105469 C 3.914062 4.527344 3.445312 4.0625 2.871094 4.0625 L 1.042969 4.0625 C 0.46875 4.0625 0 4.527344 0 5.105469 L 0 7.195312 C 0 7.769531 0.46875 8.238281 1.042969 8.238281 Z M 1.042969 8.238281 "/>
<path style=" stroke:none;fill-rule:nonzero;fill:rgb(0%,0%,0%);fill-opacity:1;" d="M 26.957031 4.0625 L 25.128906 4.0625 C 24.554688 4.0625 24.085938 4.527344 24.085938 5.105469 L 24.085938 7.195312 C 24.085938 7.769531 24.554688 8.238281 25.128906 8.238281 L 26.957031 8.238281 C 27.53125 8.238281 28 7.769531 28 7.195312 L 28 5.105469 C 28 4.527344 27.53125 4.0625 26.957031 4.0625 Z M 26.957031 4.0625 "/>
<path style=" stroke:none;fill-rule:nonzero;fill:rgb(0%,0%,0%);fill-opacity:1;" d="M 7.761719 19.761719 L 1.042969 19.761719 C 0.46875 19.761719 0 20.230469 0 20.804688 L 0 22.894531 C 0 23.472656 0.46875 23.9375 1.042969 23.9375 L 7.761719 23.9375 C 8.335938 23.9375 8.804688 23.472656 8.804688 22.894531 L 8.804688 20.804688 C 8.804688 20.230469 8.335938 19.761719 7.761719 19.761719 Z M 7.761719 19.761719 "/>
<path style=" stroke:none;fill-rule:nonzero;fill:rgb(0%,0%,0%);fill-opacity:1;" d="M 17.332031 19.761719 L 10.617188 19.761719 C 10.042969 19.761719 9.574219 20.230469 9.574219 20.804688 L 9.574219 22.894531 C 9.574219 23.472656 10.042969 23.9375 10.617188 23.9375 L 17.332031 23.9375 C 17.910156 23.9375 18.375 23.472656 18.375 22.894531 L 18.375 20.804688 C 18.375 20.230469 17.910156 19.761719 17.332031 19.761719 Z M 17.332031 19.761719 "/>
<path style=" stroke:none;fill-rule:nonzero;fill:rgb(0%,0%,0%);fill-opacity:1;" d="M 26.90625 19.761719 L 20.191406 19.761719 C 19.613281 19.761719 19.148438 20.230469 19.148438 20.804688 L 19.148438 22.894531 C 19.148438 23.472656 19.613281 23.9375 20.191406 23.9375 L 26.90625 23.9375 C 27.480469 23.9375 27.949219 23.472656 27.949219 22.894531 L 27.949219 20.804688 C 27.949219 20.230469 27.480469 19.761719 26.90625 19.761719 Z M 26.90625 19.761719 "/>
<path style=" stroke:none;fill-rule:nonzero;fill:rgb(0%,0%,0%);fill-opacity:1;" d="M 5.769531 14.527344 C 5.195312 14.527344 4.726562 14.996094 4.726562 15.570312 L 4.726562 17.664062 C 4.726562 18.238281 5.195312 18.707031 5.769531 18.707031 L 12.488281 18.707031 C 13.0625 18.707031 13.53125 18.238281 13.53125 17.664062 L 13.53125 15.570312 C 13.53125 14.996094 13.0625 14.527344 12.488281 14.527344 Z M 5.769531 14.527344 "/>
<path style=" stroke:none;fill-rule:nonzero;fill:rgb(0%,0%,0%);fill-opacity:1;" d="M 15.445312 18.707031 L 22.160156 18.707031 C 22.734375 18.707031 23.203125 18.238281 23.203125 17.664062 L 23.203125 15.570312 C 23.203125 14.996094 22.734375 14.527344 22.160156 14.527344 L 15.445312 14.527344 C 14.867188 14.527344 14.402344 14.996094 14.402344 15.570312 L 14.402344 17.664062 C 14.402344 18.238281 14.867188 18.707031 15.445312 18.707031 Z M 15.445312 18.707031 "/>
<path style=" stroke:none;fill-rule:nonzero;fill:rgb(0%,0%,0%);fill-opacity:1;" d="M 1.042969 18.707031 L 2.871094 18.707031 C 3.445312 18.707031 3.914062 18.238281 3.914062 17.664062 L 3.914062 15.570312 C 3.914062 14.996094 3.445312 14.527344 2.871094 14.527344 L 1.042969 14.527344 C 0.46875 14.527344 0 14.996094 0 15.570312 L 0 17.664062 C 0 18.238281 0.46875 18.707031 1.042969 18.707031 Z M 1.042969 18.707031 "/>
<path style=" stroke:none;fill-rule:nonzero;fill:rgb(0%,0%,0%);fill-opacity:1;" d="M 26.957031 14.527344 L 25.128906 14.527344 C 24.554688 14.527344 24.085938 14.996094 24.085938 15.570312 L 24.085938 17.664062 C 24.085938 18.238281 24.554688 18.707031 25.128906 18.707031 L 26.957031 18.707031 C 27.53125 18.707031 28 18.238281 28 17.664062 L 28 15.570312 C 28 14.996094 27.53125 14.527344 26.957031 14.527344 Z M 26.957031 14.527344 "/>
</g>
</svg>
