<?xml version="1.0" encoding="UTF-8"?>
<svg xmlns="http://www.w3.org/2000/svg" xmlns:xlink="http://www.w3.org/1999/xlink" width="28pt" height="28pt" viewBox="0 0 28 28" version="1.1">
<g id="surface1">
<path style=" stroke:none;fill-rule:nonzero;fill:rgb(0%,0%,0%);fill-opacity:1;" d="M 22.542969 7.015625 C 22.449219 6.925781 22.328125 6.875 22.199219 6.875 C 22.066406 6.875 21.945312 6.925781 21.851562 7.015625 L 21.429688 7.441406 C 21.238281 7.628906 21.238281 7.941406 21.429688 8.128906 L 22.917969 9.617188 C 23.105469 9.808594 23.414062 9.804688 23.605469 9.617188 L 24.027344 9.191406 C 24.21875 9.003906 24.21875 8.695312 24.027344 8.503906 Z M 22.542969 7.015625 "/>
<path style=" stroke:none;fill-rule:nonzero;fill:rgb(0%,0%,0%);fill-opacity:1;" d="M 27.136719 6.773438 L 24.285156 3.925781 C 23.132812 2.773438 21.257812 2.773438 20.109375 3.925781 L 14.421875 9.609375 C 13.269531 10.761719 13.269531 12.636719 14.421875 13.789062 L 17.273438 16.636719 C 17.847656 17.214844 18.605469 17.5 19.359375 17.5 C 20.117188 17.5 20.875 17.214844 21.449219 16.636719 L 27.136719 10.953125 C 28.289062 9.800781 28.289062 7.925781 27.136719 6.773438 Z M 24.6875 9.851562 L 24.265625 10.277344 C 23.996094 10.546875 23.640625 10.691406 23.261719 10.691406 C 22.882812 10.691406 22.523438 10.542969 22.257812 10.277344 L 20.769531 8.789062 C 20.5 8.519531 20.351562 8.164062 20.351562 7.785156 C 20.351562 7.40625 20.5 7.046875 20.769531 6.78125 L 21.191406 6.355469 C 21.730469 5.820312 22.664062 5.820312 23.203125 6.355469 L 24.6875 7.84375 C 24.957031 8.113281 25.105469 8.46875 25.105469 8.847656 C 25.105469 9.226562 24.957031 9.585938 24.6875 9.851562 Z M 24.6875 9.851562 "/>
<path style=" stroke:none;fill-rule:nonzero;fill:rgb(0%,0%,0%);fill-opacity:1;" d="M 14.460938 14.460938 C 14.371094 14.371094 14.246094 14.324219 14.121094 14.324219 C 13.996094 14.324219 13.875 14.378906 13.789062 14.46875 L 11.570312 16.910156 C 11.46875 17.019531 11.421875 17.171875 11.453125 17.320312 L 11.671875 18.40625 L 10.582031 18.191406 C 10.429688 18.160156 10.273438 18.207031 10.164062 18.316406 L 7.445312 21.035156 C 7.332031 21.144531 7.285156 21.304688 7.316406 21.457031 L 7.414062 21.953125 L 6.921875 21.855469 C 6.765625 21.824219 6.609375 21.871094 6.5 21.980469 L 6.273438 22.207031 C 5.277344 23.203125 4.570312 24.449219 4.230469 25.816406 C 4.144531 26.160156 4.242188 26.519531 4.496094 26.773438 C 4.6875 26.964844 4.941406 27.066406 5.203125 27.066406 C 5.285156 27.066406 5.371094 27.058594 5.453125 27.035156 C 6.816406 26.695312 8.066406 25.988281 9.0625 24.992188 L 11.058594 22.996094 C 11.167969 22.886719 11.21875 22.726562 11.1875 22.574219 L 11.085938 22.078125 L 11.582031 22.179688 C 11.738281 22.207031 11.898438 22.160156 12.011719 22.042969 L 16.59375 17.238281 C 16.769531 17.054688 16.765625 16.765625 16.585938 16.585938 Z M 14.460938 14.460938 "/>
<path style=" stroke:none;fill-rule:nonzero;fill:rgb(0%,0%,0%);fill-opacity:1;" d="M 14.46875 1.867188 C 14.726562 1.867188 14.933594 1.65625 14.933594 1.398438 C 14.933594 1.140625 14.726562 0.933594 14.46875 0.933594 C 6.355469 0.933594 0 7.492188 0 15.867188 C 0 16.125 0.207031 16.332031 0.464844 16.332031 C 0.726562 16.332031 0.933594 16.125 0.933594 15.867188 C 0.933594 8.015625 6.878906 1.867188 14.46875 1.867188 Z M 14.46875 1.867188 "/>
<path style=" stroke:none;fill-rule:nonzero;fill:rgb(0%,0%,0%);fill-opacity:1;" d="M 14.46875 4.199219 C 14.726562 4.199219 14.933594 3.992188 14.933594 3.734375 C 14.933594 3.472656 14.726562 3.265625 14.46875 3.265625 C 7.664062 3.265625 2.332031 8.800781 2.332031 15.867188 C 2.332031 16.125 2.542969 16.332031 2.800781 16.332031 C 3.058594 16.332031 3.265625 16.125 3.265625 15.867188 C 3.265625 9.324219 8.1875 4.199219 14.46875 4.199219 Z M 14.46875 4.199219 "/>
<path style=" stroke:none;fill-rule:nonzero;fill:rgb(0%,0%,0%);fill-opacity:1;" d="M 14.46875 5.597656 C 9.0625 5.597656 4.667969 10.203125 4.667969 15.867188 C 4.667969 16.125 4.875 16.332031 5.132812 16.332031 C 5.390625 16.332031 5.601562 16.125 5.601562 15.867188 C 5.601562 10.71875 9.578125 6.53125 14.46875 6.53125 C 14.726562 6.53125 14.933594 6.324219 14.933594 6.066406 C 14.933594 5.808594 14.726562 5.597656 14.46875 5.597656 Z M 14.46875 5.597656 "/>
</g>
</svg>
