<?xml version="1.0" encoding="UTF-8"?>
<svg xmlns="http://www.w3.org/2000/svg" xmlns:xlink="http://www.w3.org/1999/xlink" width="28pt" height="28pt" viewBox="0 0 28 28" version="1.1">
<g id="surface1">
<path style=" stroke:none;fill-rule:nonzero;fill:rgb(0%,0%,0%);fill-opacity:1;" d="M 14.367188 14.921875 C 14.902344 14.382812 15.15625 13.628906 15.050781 12.878906 L 12.324219 15.601562 C 13.074219 15.707031 13.832031 15.457031 14.367188 14.921875 Z M 14.367188 14.921875 "/>
<path style=" stroke:none;fill-rule:nonzero;fill:rgb(0%,0%,0%);fill-opacity:1;" d="M 3.300781 0 L 4.265625 0 L 4.265625 6.261719 L 3.300781 6.261719 Z M 3.300781 0 "/>
<path style=" stroke:none;fill-rule:nonzero;fill:rgb(0%,0%,0%);fill-opacity:1;" d="M 12.796875 6.957031 L 6.402344 13.347656 L 8.105469 18.457031 L 17.902344 8.660156 Z M 12.796875 6.957031 "/>
<path style=" stroke:none;fill-rule:nonzero;fill:rgb(0%,0%,0%);fill-opacity:1;" d="M 0.742188 6.746094 C 0.652344 6.835938 0.601562 6.957031 0.601562 7.085938 C 0.601562 7.214844 0.652344 7.335938 0.742188 7.425781 L 5.847656 12.539062 L 11.984375 6.402344 L 6.871094 1.296875 C 6.78125 1.203125 6.660156 1.152344 6.53125 1.152344 C 6.402344 1.152344 6.28125 1.203125 6.191406 1.296875 L 5.226562 2.257812 L 5.226562 6.746094 C 5.226562 7.011719 5.011719 7.226562 4.746094 7.226562 L 2.820312 7.226562 C 2.554688 7.226562 2.335938 7.011719 2.335938 6.746094 L 2.335938 5.148438 Z M 0.742188 6.746094 "/>
<path style=" stroke:none;fill-rule:nonzero;fill:rgb(0%,0%,0%);fill-opacity:1;" d="M 17.433594 17.304688 C 17.242188 17.121094 16.945312 17.125 16.757812 17.3125 C 16.570312 17.496094 16.570312 17.796875 16.75 17.984375 L 22.882812 24.117188 C 23.003906 24.242188 23.183594 24.292969 23.351562 24.25 C 23.519531 24.207031 23.652344 24.074219 23.695312 23.90625 C 23.738281 23.738281 23.691406 23.558594 23.566406 23.4375 Z M 17.433594 17.304688 "/>
<path style=" stroke:none;fill-rule:nonzero;fill:rgb(0%,0%,0%);fill-opacity:1;" d="M 27.429688 10.175781 C 27.363281 9.917969 27.097656 9.765625 26.839844 9.832031 L 18.464844 12.078125 C 18.230469 12.140625 18.078125 12.367188 18.109375 12.605469 C 18.140625 12.84375 18.347656 13.023438 18.589844 13.023438 C 18.628906 13.023438 18.671875 13.019531 18.714844 13.007812 L 27.089844 10.765625 C 27.347656 10.695312 27.5 10.429688 27.429688 10.175781 Z M 27.429688 10.175781 "/>
<path style=" stroke:none;fill-rule:nonzero;fill:rgb(0%,0%,0%);fill-opacity:1;" d="M 11.636719 18.675781 C 11.378906 18.609375 11.113281 18.761719 11.046875 19.019531 L 8.796875 27.394531 C 8.730469 27.652344 8.882812 27.914062 9.140625 27.984375 C 9.179688 27.996094 9.222656 28 9.265625 28 C 9.484375 28 9.671875 27.851562 9.730469 27.644531 L 11.972656 19.265625 C 12.042969 19.011719 11.890625 18.746094 11.636719 18.675781 Z M 11.636719 18.675781 "/>
<path style=" stroke:none;fill-rule:nonzero;fill:rgb(0%,0%,0%);fill-opacity:1;" d="M 23.675781 16.203125 L 18.089844 14.703125 C 17.835938 14.636719 17.570312 14.789062 17.503906 15.046875 C 17.433594 15.300781 17.585938 15.566406 17.84375 15.636719 L 23.425781 17.132812 C 23.464844 17.144531 23.507812 17.148438 23.550781 17.148438 C 23.792969 17.148438 23.996094 16.96875 24.027344 16.730469 C 24.058594 16.488281 23.910156 16.265625 23.675781 16.203125 Z M 23.675781 16.203125 "/>
<path style=" stroke:none;fill-rule:nonzero;fill:rgb(0%,0%,0%);fill-opacity:1;" d="M 15.082031 18.394531 C 15.011719 18.136719 14.75 17.988281 14.492188 18.054688 C 14.238281 18.125 14.085938 18.386719 14.152344 18.644531 L 15.648438 24.226562 C 15.703125 24.4375 15.894531 24.585938 16.113281 24.585938 C 16.15625 24.585938 16.199219 24.582031 16.238281 24.570312 C 16.496094 24.5 16.648438 24.238281 16.578125 23.980469 Z M 15.082031 18.394531 "/>
</g>
</svg>
