<?xml version="1.0" encoding="UTF-8"?>
<svg xmlns="http://www.w3.org/2000/svg" xmlns:xlink="http://www.w3.org/1999/xlink" width="28pt" height="28pt" viewBox="0 0 28 28" version="1.1">
<g id="surface1">
<path style=" stroke:none;fill-rule:nonzero;fill:rgb(0%,0%,0%);fill-opacity:1;" d="M 19.003906 7.886719 C 19.125 7.734375 19.160156 7.523438 19.105469 7.289062 L 17.703125 1.09375 C 17.570312 0.511719 16.929688 0 16.332031 0 L 11.667969 0 C 11.070312 0 10.429688 0.511719 10.296875 1.09375 L 8.894531 7.289062 C 8.839844 7.523438 8.875 7.738281 8.996094 7.886719 C 9.117188 8.039062 9.316406 8.121094 9.558594 8.121094 L 18.441406 8.121094 C 18.683594 8.121094 18.882812 8.039062 19.003906 7.886719 Z M 19.003906 7.886719 "/>
<path style=" stroke:none;fill-rule:nonzero;fill:rgb(0%,0%,0%);fill-opacity:1;" d="M 16.039062 26.820312 L 14.589844 26.820312 L 14.589844 9.304688 L 13.410156 9.304688 L 13.410156 26.820312 L 11.960938 26.820312 C 11.632812 26.820312 11.371094 27.082031 11.371094 27.410156 C 11.371094 27.734375 11.632812 28 11.960938 28 L 16.039062 28 C 16.367188 28 16.628906 27.734375 16.628906 27.410156 C 16.628906 27.082031 16.367188 26.820312 16.039062 26.820312 Z M 16.039062 26.820312 "/>
</g>
</svg>
