<?xml version="1.0" encoding="UTF-8"?>
<svg xmlns="http://www.w3.org/2000/svg" xmlns:xlink="http://www.w3.org/1999/xlink" width="28pt" height="28pt" viewBox="0 0 28 28" version="1.1">
<g id="surface1">
<path style=" stroke:none;fill-rule:nonzero;fill:rgb(0%,0%,0%);fill-opacity:1;" d="M 8.53125 1.886719 C 8.902344 2.285156 11.023438 2.609375 13.261719 2.65625 L 13.261719 2.285156 C 13.261719 2.144531 13.308594 2.003906 13.355469 1.886719 C 13.496094 1.609375 13.796875 1.421875 14.125 1.421875 L 14.308594 1.421875 C 14.636719 1.421875 14.941406 1.609375 15.078125 1.886719 C 15.148438 2.003906 15.171875 2.144531 15.171875 2.285156 L 15.171875 2.65625 C 18.691406 2.65625 19.4375 1.886719 19.4375 1.886719 L 19.4375 0 L 8.53125 0 Z M 8.53125 1.886719 "/>
<path style=" stroke:none;fill-rule:nonzero;fill:rgb(0%,0%,0%);fill-opacity:1;" d="M 14.707031 2.679688 L 14.707031 2.308594 C 14.707031 2.097656 14.519531 1.910156 14.308594 1.910156 L 14.148438 1.910156 C 14.125 1.910156 14.125 1.910156 14.101562 1.910156 C 13.890625 1.933594 13.75 2.097656 13.75 2.308594 L 13.75 12.351562 L 14.707031 12.351562 Z M 14.707031 2.679688 "/>
<path style=" stroke:none;fill-rule:nonzero;fill:rgb(0%,0%,0%);fill-opacity:1;" d="M 13.285156 12.796875 L 12.328125 12.796875 L 12.328125 15.640625 L 16.128906 15.640625 L 16.128906 12.796875 Z M 13.285156 12.796875 "/>
<path style=" stroke:none;fill-rule:nonzero;fill:rgb(0%,0%,0%);fill-opacity:1;" d="M 16.128906 16.128906 L 12.28125 16.128906 L 10.464844 27.96875 L 17.96875 27.96875 L 16.152344 16.128906 Z M 16.128906 16.128906 "/>
</g>
</svg>
