<?xml version="1.0" encoding="UTF-8"?>
<svg xmlns="http://www.w3.org/2000/svg" xmlns:xlink="http://www.w3.org/1999/xlink" width="28pt" height="28pt" viewBox="0 0 28 28" version="1.1">
<g id="surface1">
<path style=" stroke:none;fill-rule:nonzero;fill:rgb(0%,0%,0%);fill-opacity:1;" d="M 12.285156 13.265625 C 11.988281 12.96875 11.996094 12.488281 12.292969 12.195312 C 12.585938 11.898438 13.070312 11.898438 13.367188 12.195312 L 14.015625 12.839844 L 14.664062 12.195312 C 14.957031 11.898438 15.4375 11.898438 15.734375 12.195312 C 16.027344 12.488281 16.011719 12.96875 15.71875 13.265625 L 14.742188 14.222656 L 14.742188 18.542969 C 16.917969 18.042969 19.554688 15.535156 19.554688 10.871094 C 19.554688 4.351562 14.730469 0.253906 14.730469 0.253906 C 14.332031 -0.0859375 13.6875 -0.0859375 13.292969 0.253906 C 13.292969 0.253906 8.445312 4.351562 8.445312 10.871094 C 8.445312 15.558594 11.148438 18.070312 13.230469 18.550781 L 13.230469 14.222656 Z M 12.285156 13.265625 "/>
<path style=" stroke:none;fill-rule:nonzero;fill:rgb(0%,0%,0%);fill-opacity:1;" d="M 12.316406 20.199219 C 11.535156 20.199219 10.863281 20.835938 10.863281 21.617188 L 10.863281 21.902344 C 10.863281 22.503906 11.277344 23.019531 11.8125 23.226562 L 11.675781 23.226562 C 11.246094 23.226562 10.863281 23.574219 10.863281 24.003906 L 10.863281 24.050781 C 10.863281 24.390625 11.078125 24.675781 11.378906 24.785156 C 11.078125 24.894531 10.863281 25.179688 10.863281 25.519531 L 10.863281 25.566406 C 10.863281 25.996094 11.246094 26.34375 11.675781 26.34375 L 12.460938 26.34375 C 12.460938 26.375 12.457031 26.40625 12.457031 26.441406 C 12.457031 27.300781 13.15625 28 14.015625 28 C 14.878906 28 15.578125 27.300781 15.578125 26.441406 C 15.578125 26.40625 15.574219 26.375 15.570312 26.34375 L 16.261719 26.34375 C 16.695312 26.34375 17.011719 25.996094 17.011719 25.566406 L 17.011719 25.519531 C 17.011719 25.179688 16.796875 24.894531 16.496094 24.785156 C 16.796875 24.675781 17.011719 24.390625 17.011719 24.050781 L 17.011719 24.003906 C 17.011719 23.574219 16.695312 23.226562 16.261719 23.226562 L 16.222656 23.226562 C 16.753906 23.019531 17.105469 22.503906 17.105469 21.902344 L 17.105469 21.617188 C 17.105469 20.835938 16.5 20.199219 15.71875 20.199219 Z M 12.316406 20.199219 "/>
</g>
</svg>
