<?xml version="1.0" encoding="UTF-8"?>
<svg xmlns="http://www.w3.org/2000/svg" xmlns:xlink="http://www.w3.org/1999/xlink" width="28pt" height="28pt" viewBox="0 0 28 28" version="1.1">
<g id="surface1">
<path style=" stroke:none;fill-rule:nonzero;fill:rgb(0%,0%,0%);fill-opacity:1;" d="M 12.488281 6.144531 C 12.90625 6.144531 13.242188 6.480469 13.242188 6.898438 L 13.242188 18.710938 C 13.433594 18.710938 13.589844 18.714844 13.746094 18.714844 L 14.316406 18.714844 C 14.472656 18.714844 14.660156 18.710938 14.757812 18.710938 L 14.757812 6.898438 C 14.757812 6.480469 15.09375 6.144531 15.511719 6.144531 C 15.929688 6.144531 16.269531 6.480469 16.269531 6.898438 L 16.269531 18.625 C 18.632812 18.378906 20.238281 17.527344 20.238281 14.933594 L 20.238281 5.953125 C 20.238281 2.664062 17.601562 0 14.316406 0 L 13.746094 0 C 10.460938 0 7.761719 2.664062 7.761719 5.953125 L 7.761719 14.933594 C 7.761719 17.527344 9.464844 18.378906 11.730469 18.625 L 11.730469 6.898438 C 11.730469 6.480469 12.070312 6.144531 12.488281 6.144531 Z M 12.488281 6.144531 "/>
<path style=" stroke:none;fill-rule:nonzero;fill:rgb(0%,0%,0%);fill-opacity:1;" d="M 9.210938 20.226562 C 8.429688 20.226562 7.761719 20.859375 7.761719 21.644531 L 7.761719 23.535156 C 7.761719 24.316406 8.429688 24.953125 9.210938 24.953125 L 10.914062 24.953125 C 10.953125 26.640625 12.332031 28 14.03125 28 C 15.730469 28 17.109375 26.640625 17.148438 24.953125 L 18.851562 24.953125 C 19.636719 24.953125 20.238281 24.316406 20.238281 23.535156 L 20.238281 21.644531 C 20.238281 20.859375 19.636719 20.226562 18.851562 20.226562 Z M 9.210938 20.226562 "/>
</g>
</svg>
