<?xml version="1.0" encoding="UTF-8"?>
<svg xmlns="http://www.w3.org/2000/svg" xmlns:xlink="http://www.w3.org/1999/xlink" width="28pt" height="28pt" viewBox="0 0 28 28" version="1.1">
<g id="surface1">
<path style=" stroke:none;fill-rule:nonzero;fill:rgb(0%,0%,0%);fill-opacity:1;" d="M 15.449219 28 L 15.449219 26.550781 C 15.449219 26.285156 15.664062 26.070312 15.929688 26.070312 L 16.414062 26.070312 L 16.414062 24.136719 L 11.585938 24.136719 L 11.585938 26.070312 L 12.070312 26.070312 C 12.335938 26.070312 12.550781 26.285156 12.550781 26.550781 L 12.550781 28 Z M 15.449219 28 "/>
<path style=" stroke:none;fill-rule:nonzero;fill:rgb(0%,0%,0%);fill-opacity:1;" d="M 16.414062 22.191406 C 16.414062 21.988281 16.542969 21.804688 16.734375 21.738281 C 20.503906 20.40625 22.765625 16.550781 22.089844 12.613281 C 21.414062 8.671875 17.996094 5.792969 14 5.792969 C 10.003906 5.792969 6.585938 8.671875 5.910156 12.613281 C 5.234375 16.550781 7.496094 20.40625 11.265625 21.738281 C 11.457031 21.804688 11.585938 21.988281 11.585938 22.191406 L 11.585938 23.171875 L 16.414062 23.171875 Z M 13.515625 8.207031 C 13.515625 7.941406 13.734375 7.722656 14 7.722656 C 17.464844 7.726562 20.273438 10.535156 20.277344 14 C 20.277344 14.265625 20.058594 14.484375 19.792969 14.484375 C 19.527344 14.484375 19.308594 14.265625 19.308594 14 C 19.308594 11.070312 16.929688 8.691406 14 8.691406 C 13.734375 8.691406 13.515625 8.472656 13.515625 8.207031 Z M 13.515625 8.207031 "/>
<path style=" stroke:none;fill-rule:nonzero;fill:rgb(0%,0%,0%);fill-opacity:1;" d="M 14 3.863281 C 14.265625 3.863281 14.484375 3.644531 14.484375 3.378906 L 14.484375 0.484375 C 14.484375 0.214844 14.265625 0 14 0 C 13.734375 0 13.515625 0.214844 13.515625 0.484375 L 13.515625 3.378906 C 13.515625 3.644531 13.734375 3.863281 14 3.863281 Z M 14 3.863281 "/>
<path style=" stroke:none;fill-rule:nonzero;fill:rgb(0%,0%,0%);fill-opacity:1;" d="M 6.148438 6.832031 C 6.339844 7.015625 6.640625 7.011719 6.824219 6.824219 C 7.011719 6.640625 7.015625 6.335938 6.832031 6.148438 L 4.785156 4.101562 C 4.59375 3.917969 4.292969 3.921875 4.105469 4.105469 C 3.921875 4.292969 3.917969 4.59375 4.101562 4.785156 Z M 6.148438 6.832031 "/>
<path style=" stroke:none;fill-rule:nonzero;fill:rgb(0%,0%,0%);fill-opacity:1;" d="M 3.378906 13.515625 L 0.484375 13.515625 C 0.214844 13.515625 0 13.734375 0 14 C 0 14.265625 0.214844 14.484375 0.484375 14.484375 L 3.378906 14.484375 C 3.644531 14.484375 3.863281 14.265625 3.863281 14 C 3.863281 13.734375 3.644531 13.515625 3.378906 13.515625 Z M 3.378906 13.515625 "/>
<path style=" stroke:none;fill-rule:nonzero;fill:rgb(0%,0%,0%);fill-opacity:1;" d="M 6.148438 21.167969 L 4.101562 23.214844 C 3.976562 23.339844 3.925781 23.515625 3.96875 23.6875 C 4.011719 23.855469 4.144531 23.988281 4.3125 24.03125 C 4.484375 24.074219 4.660156 24.023438 4.785156 23.898438 L 6.832031 21.851562 C 7.015625 21.664062 7.011719 21.359375 6.824219 21.175781 C 6.640625 20.988281 6.339844 20.984375 6.148438 21.167969 Z M 6.148438 21.167969 "/>
<path style=" stroke:none;fill-rule:nonzero;fill:rgb(0%,0%,0%);fill-opacity:1;" d="M 21.851562 21.167969 C 21.660156 20.984375 21.359375 20.988281 21.175781 21.175781 C 20.988281 21.359375 20.984375 21.664062 21.167969 21.851562 L 23.214844 23.898438 C 23.40625 24.082031 23.707031 24.078125 23.894531 23.894531 C 24.078125 23.707031 24.082031 23.40625 23.898438 23.214844 Z M 21.851562 21.167969 "/>
<path style=" stroke:none;fill-rule:nonzero;fill:rgb(0%,0%,0%);fill-opacity:1;" d="M 27.515625 13.515625 L 24.621094 13.515625 C 24.355469 13.515625 24.136719 13.734375 24.136719 14 C 24.136719 14.265625 24.355469 14.484375 24.621094 14.484375 L 27.515625 14.484375 C 27.785156 14.484375 28 14.265625 28 14 C 28 13.734375 27.785156 13.515625 27.515625 13.515625 Z M 27.515625 13.515625 "/>
<path style=" stroke:none;fill-rule:nonzero;fill:rgb(0%,0%,0%);fill-opacity:1;" d="M 23.214844 4.101562 L 21.167969 6.148438 C 21.042969 6.269531 20.992188 6.449219 21.035156 6.617188 C 21.082031 6.785156 21.210938 6.917969 21.382812 6.960938 C 21.550781 7.007812 21.730469 6.957031 21.851562 6.832031 L 23.898438 4.785156 C 24.082031 4.59375 24.078125 4.292969 23.894531 4.105469 C 23.707031 3.921875 23.40625 3.917969 23.214844 4.101562 Z M 23.214844 4.101562 "/>
</g>
</svg>
