<?xml version="1.0" encoding="UTF-8"?>
<svg xmlns="http://www.w3.org/2000/svg" xmlns:xlink="http://www.w3.org/1999/xlink" width="28pt" height="28pt" viewBox="0 0 28 28" version="1.1">
<g id="surface1">
<path style=" stroke:none;fill-rule:nonzero;fill:rgb(0%,0%,0%);fill-opacity:1;" d="M 17.496094 20.417969 L 10.503906 20.417969 C 10.183594 20.417969 9.921875 20.808594 9.921875 21.292969 C 9.921875 21.773438 10.183594 22.167969 10.503906 22.167969 L 17.496094 22.167969 C 17.816406 22.167969 18.078125 21.773438 18.078125 21.292969 C 18.078125 20.808594 17.816406 20.417969 17.496094 20.417969 Z M 17.496094 20.417969 "/>
<path style=" stroke:none;fill-rule:nonzero;fill:rgb(0%,0%,0%);fill-opacity:1;" d="M 17.496094 23.332031 L 10.503906 23.332031 C 10.183594 23.332031 9.921875 23.726562 9.921875 24.207031 C 9.921875 24.691406 10.183594 25.082031 10.503906 25.082031 L 17.496094 25.082031 C 17.816406 25.082031 18.078125 24.691406 18.078125 24.207031 C 18.078125 23.726562 17.816406 23.332031 17.496094 23.332031 Z M 17.496094 23.332031 "/>
<path style=" stroke:none;fill-rule:nonzero;fill:rgb(0%,0%,0%);fill-opacity:1;" d="M 15.75 26.25 L 12.25 26.25 C 11.929688 26.25 11.667969 26.640625 11.667969 27.125 C 11.667969 27.609375 11.925781 28 12.25 28 L 15.75 28 C 16.070312 28 16.332031 27.609375 16.332031 27.125 C 16.332031 26.640625 16.070312 26.25 15.75 26.25 Z M 15.75 26.25 "/>
<path style=" stroke:none;fill-rule:nonzero;fill:rgb(0%,0%,0%);fill-opacity:1;" d="M 22.058594 5.898438 C 21.84375 5.332031 21.34375 4.003906 20.132812 2.71875 C 18.859375 1.363281 17.339844 0.503906 15.617188 0.160156 C 14.550781 -0.0546875 13.449219 -0.0546875 12.382812 0.160156 C 10.664062 0.503906 9.144531 1.363281 7.867188 2.71875 C 6.660156 3.996094 6.15625 5.328125 5.941406 5.898438 C 5.667969 6.621094 5.160156 7.964844 5.304688 9.734375 C 5.460938 11.679688 6.308594 13.101562 6.585938 13.570312 C 6.761719 13.859375 7.113281 14.410156 7.816406 15.402344 C 7.988281 15.652344 8.144531 15.855469 8.273438 16.035156 C 8.601562 16.476562 8.78125 16.722656 8.96875 17.105469 C 9.21875 17.632812 9.40625 18.1875 9.523438 18.761719 C 9.578125 19.03125 9.816406 19.226562 10.09375 19.226562 L 17.90625 19.226562 C 18.1875 19.226562 18.429688 19.027344 18.480469 18.75 C 18.585938 18.183594 18.769531 17.632812 19.027344 17.117188 C 19.230469 16.714844 19.417969 16.457031 19.757812 15.992188 C 19.882812 15.824219 20.023438 15.632812 20.1875 15.398438 C 20.671875 14.714844 21.089844 14.125 21.414062 13.566406 C 21.722656 13.042969 22.542969 11.640625 22.695312 9.734375 C 22.835938 7.960938 22.332031 6.621094 22.058594 5.898438 Z M 22.058594 5.898438 "/>
</g>
</svg>
