<?xml version="1.0" encoding="UTF-8"?>
<svg xmlns="http://www.w3.org/2000/svg" xmlns:xlink="http://www.w3.org/1999/xlink" width="28pt" height="28pt" viewBox="0 0 28 28" version="1.1">
<g id="surface1">
<path style=" stroke:none;fill-rule:nonzero;fill:rgb(0%,0%,0%);fill-opacity:1;" d="M 17.230469 20.265625 L 10.804688 20.265625 C 10.023438 20.265625 9.355469 20.898438 9.355469 21.683594 L 9.355469 23.570312 C 9.355469 24.355469 10.023438 24.988281 10.804688 24.988281 L 10.949219 24.988281 C 10.988281 26.679688 12.367188 28.039062 14.066406 28.039062 C 15.765625 28.039062 17.144531 26.679688 17.183594 24.988281 L 17.230469 24.988281 C 18.015625 24.988281 18.617188 24.355469 18.617188 23.570312 L 18.617188 21.683594 C 18.617188 20.898438 18.015625 20.265625 17.230469 20.265625 Z M 17.230469 20.265625 "/>
<path style=" stroke:none;fill-rule:nonzero;fill:rgb(0%,0%,0%);fill-opacity:1;" d="M 10.652344 18.753906 L 17.382812 18.753906 C 17.902344 18.753906 18.457031 18.324219 18.609375 17.828125 C 18.609375 17.828125 21.035156 10.015625 21.035156 6.707031 C 21.035156 3.003906 17.894531 0 14.019531 0 C 10.144531 0 7.003906 2.996094 7.003906 6.699219 C 7.003906 10.003906 9.425781 17.828125 9.425781 17.828125 C 9.582031 18.324219 10.132812 18.753906 10.652344 18.753906 Z M 11.65625 8.640625 L 16.382812 8.640625 C 16.796875 8.640625 17.136719 8.980469 17.136719 9.398438 C 17.136719 9.8125 16.796875 10.152344 16.382812 10.152344 L 11.65625 10.152344 C 11.238281 10.152344 10.898438 9.8125 10.898438 9.398438 C 10.898438 8.980469 11.238281 8.640625 11.65625 8.640625 Z M 11.65625 11.855469 L 16.382812 11.855469 C 16.796875 11.855469 17.136719 12.191406 17.136719 12.609375 C 17.136719 13.027344 16.796875 13.367188 16.382812 13.367188 L 11.65625 13.367188 C 11.238281 13.367188 10.898438 13.027344 10.898438 12.609375 C 10.898438 12.191406 11.238281 11.855469 11.65625 11.855469 Z M 11.65625 15.066406 L 16.382812 15.066406 C 16.796875 15.066406 17.136719 15.40625 17.136719 15.824219 C 17.136719 16.242188 16.796875 16.578125 16.382812 16.578125 L 11.65625 16.578125 C 11.238281 16.578125 10.898438 16.242188 10.898438 15.824219 C 10.898438 15.40625 11.238281 15.066406 11.65625 15.066406 Z M 11.65625 15.066406 "/>
</g>
</svg>
