<?xml version="1.0" encoding="UTF-8"?>
<svg xmlns="http://www.w3.org/2000/svg" xmlns:xlink="http://www.w3.org/1999/xlink" width="28pt" height="28pt" viewBox="0 0 28 28" version="1.1">
<g id="surface1">
<path style=" stroke:none;fill-rule:nonzero;fill:rgb(0%,0%,0%);fill-opacity:1;" d="M 4.601562 21.304688 C 4.492188 21.113281 4.246094 21.050781 4.054688 21.160156 L 3.054688 21.742188 L 3.054688 20.585938 C 3.054688 20.367188 2.875 20.191406 2.65625 20.191406 C 2.4375 20.191406 2.261719 20.367188 2.261719 20.585938 L 2.261719 21.742188 L 1.257812 21.160156 C 1.070312 21.050781 0.824219 21.113281 0.714844 21.304688 C 0.605469 21.496094 0.667969 21.742188 0.855469 21.851562 L 1.863281 22.4375 L 0.855469 23.023438 C 0.667969 23.132812 0.605469 23.382812 0.714844 23.570312 C 0.824219 23.761719 1.070312 23.824219 1.257812 23.714844 L 2.261719 23.132812 L 2.261719 24.289062 C 2.261719 24.507812 2.4375 24.6875 2.65625 24.6875 C 2.875 24.6875 3.054688 24.507812 3.054688 24.289062 L 3.054688 23.132812 L 4.054688 23.714844 C 4.246094 23.824219 4.492188 23.761719 4.601562 23.570312 C 4.710938 23.382812 4.648438 23.132812 4.457031 23.023438 L 3.449219 22.4375 L 4.457031 21.851562 C 4.648438 21.738281 4.714844 21.496094 4.601562 21.304688 Z M 4.601562 21.304688 "/>
<path style=" stroke:none;fill-rule:nonzero;fill:rgb(0%,0%,0%);fill-opacity:1;" d="M 8.277344 23.566406 C 8.386719 23.753906 8.632812 23.820312 8.824219 23.710938 L 9.824219 23.128906 L 9.824219 24.285156 C 9.824219 24.503906 10.003906 24.679688 10.222656 24.679688 C 10.441406 24.679688 10.617188 24.503906 10.617188 24.285156 L 10.617188 23.128906 L 11.617188 23.710938 C 11.808594 23.820312 12.054688 23.753906 12.164062 23.566406 C 12.273438 23.375 12.210938 23.128906 12.019531 23.019531 L 11.015625 22.433594 L 12.019531 21.847656 C 12.210938 21.738281 12.273438 21.488281 12.164062 21.300781 C 12.054688 21.109375 11.808594 21.046875 11.617188 21.15625 L 10.617188 21.738281 L 10.617188 20.582031 C 10.617188 20.363281 10.441406 20.183594 10.222656 20.183594 C 10.003906 20.183594 9.824219 20.363281 9.824219 20.582031 L 9.824219 21.738281 L 8.824219 21.160156 C 8.632812 21.050781 8.386719 21.113281 8.277344 21.304688 C 8.167969 21.496094 8.230469 21.742188 8.421875 21.851562 L 9.425781 22.4375 L 8.421875 23.019531 C 8.230469 23.128906 8.167969 23.375 8.277344 23.566406 Z M 8.277344 23.566406 "/>
<path style=" stroke:none;fill-rule:nonzero;fill:rgb(0%,0%,0%);fill-opacity:1;" d="M 7.5625 26.578125 L 7.5625 27.28125 C 7.5625 27.449219 7.703125 27.585938 7.867188 27.585938 L 12.578125 27.585938 C 12.746094 27.585938 12.882812 27.449219 12.882812 27.28125 L 12.882812 26.578125 C 12.882812 26.414062 12.746094 26.273438 12.578125 26.273438 L 7.867188 26.273438 C 7.695312 26.273438 7.5625 26.414062 7.5625 26.578125 Z M 7.5625 26.578125 "/>
<path style=" stroke:none;fill-rule:nonzero;fill:rgb(0%,0%,0%);fill-opacity:1;" d="M 19.042969 6.964844 L 19.007812 6.964844 L 19.007812 5.402344 C 19.007812 2.679688 16.785156 0.367188 14.070312 0.414062 C 11.429688 0.460938 9.289062 2.625 9.289062 5.273438 L 9.289062 5.425781 C 9.289062 5.648438 9.472656 5.832031 9.699219 5.832031 L 11.003906 5.832031 C 11.226562 5.832031 11.410156 5.648438 11.410156 5.425781 L 11.410156 5.378906 C 11.410156 3.917969 12.511719 2.636719 13.972656 2.542969 C 15.558594 2.445312 16.882812 3.703125 16.882812 5.269531 L 16.882812 6.960938 L 12.855469 6.960938 L 12.855469 6.964844 L 9.132812 6.964844 C 8.445312 6.988281 7.886719 7.546875 7.886719 8.242188 L 7.886719 15.316406 C 7.886719 16.023438 8.460938 16.601562 9.167969 16.601562 L 19.039062 16.601562 C 19.746094 16.601562 20.320312 16.023438 20.320312 15.316406 L 20.320312 8.25 C 20.328125 7.542969 19.753906 6.964844 19.042969 6.964844 Z M 14.867188 12.101562 C 14.769531 12.171875 14.742188 12.246094 14.742188 12.359375 C 14.746094 12.878906 14.746094 13.394531 14.742188 13.917969 C 14.753906 14.136719 14.644531 14.34375 14.449219 14.441406 C 13.996094 14.671875 13.539062 14.351562 13.539062 13.917969 C 13.539062 13.917969 13.539062 13.917969 13.539062 13.914062 C 13.539062 13.394531 13.539062 12.875 13.539062 12.355469 C 13.539062 12.25 13.515625 12.175781 13.425781 12.109375 C 12.953125 11.761719 12.796875 11.171875 13.035156 10.648438 C 13.265625 10.140625 13.820312 9.84375 14.34375 9.949219 C 14.933594 10.066406 15.339844 10.542969 15.347656 11.125 C 15.363281 11.53125 15.195312 11.867188 14.867188 12.101562 Z M 14.867188 12.101562 "/>
<path style=" stroke:none;fill-rule:nonzero;fill:rgb(0%,0%,0%);fill-opacity:1;" d="M 15.121094 26.578125 L 15.121094 27.28125 C 15.121094 27.449219 15.257812 27.585938 15.425781 27.585938 L 20.136719 27.585938 C 20.304688 27.585938 20.441406 27.449219 20.441406 27.28125 L 20.441406 26.578125 C 20.441406 26.414062 20.304688 26.273438 20.136719 26.273438 L 15.425781 26.273438 C 15.257812 26.273438 15.121094 26.414062 15.121094 26.578125 Z M 15.121094 26.578125 "/>
<path style=" stroke:none;fill-rule:nonzero;fill:rgb(0%,0%,0%);fill-opacity:1;" d="M 15.835938 23.566406 C 15.945312 23.753906 16.191406 23.820312 16.382812 23.710938 L 17.382812 23.128906 L 17.382812 24.285156 C 17.382812 24.503906 17.558594 24.679688 17.777344 24.679688 C 17.996094 24.679688 18.175781 24.503906 18.175781 24.285156 L 18.175781 23.128906 L 19.175781 23.710938 C 19.367188 23.820312 19.613281 23.753906 19.722656 23.566406 C 19.832031 23.375 19.769531 23.128906 19.578125 23.019531 L 18.574219 22.433594 L 19.578125 21.847656 C 19.769531 21.738281 19.832031 21.488281 19.722656 21.300781 C 19.613281 21.109375 19.367188 21.046875 19.175781 21.15625 L 18.175781 21.738281 L 18.175781 20.582031 C 18.175781 20.363281 17.996094 20.183594 17.777344 20.183594 C 17.558594 20.183594 17.382812 20.363281 17.382812 20.582031 L 17.382812 21.738281 L 16.382812 21.15625 C 16.191406 21.046875 15.945312 21.109375 15.835938 21.300781 C 15.726562 21.488281 15.789062 21.738281 15.980469 21.847656 L 16.984375 22.433594 L 15.980469 23.019531 C 15.789062 23.128906 15.726562 23.375 15.835938 23.566406 Z M 15.835938 23.566406 "/>
<path style=" stroke:none;fill-rule:nonzero;fill:rgb(0%,0%,0%);fill-opacity:1;" d="M 27.695312 26.273438 L 22.984375 26.273438 C 22.816406 26.273438 22.679688 26.414062 22.679688 26.578125 L 22.679688 27.28125 C 22.679688 27.449219 22.816406 27.585938 22.984375 27.585938 L 27.695312 27.585938 C 27.863281 27.585938 28 27.449219 28 27.28125 L 28 26.578125 C 28 26.414062 27.863281 26.273438 27.695312 26.273438 Z M 27.695312 26.273438 "/>
<path style=" stroke:none;fill-rule:nonzero;fill:rgb(0%,0%,0%);fill-opacity:1;" d="M 0.304688 27.585938 L 5.015625 27.585938 C 5.183594 27.585938 5.320312 27.449219 5.320312 27.28125 L 5.320312 26.578125 C 5.320312 26.414062 5.183594 26.273438 5.015625 26.273438 L 0.304688 26.273438 C 0.136719 26.273438 0 26.414062 0 26.578125 L 0 27.28125 C 0 27.449219 0.136719 27.585938 0.304688 27.585938 Z M 0.304688 27.585938 "/>
<path style=" stroke:none;fill-rule:nonzero;fill:rgb(0%,0%,0%);fill-opacity:1;" d="M 23.398438 23.566406 C 23.507812 23.753906 23.753906 23.820312 23.945312 23.710938 L 24.945312 23.128906 L 24.945312 24.285156 C 24.945312 24.503906 25.125 24.679688 25.34375 24.679688 C 25.5625 24.679688 25.738281 24.503906 25.738281 24.285156 L 25.738281 23.128906 L 26.742188 23.710938 C 26.929688 23.820312 27.175781 23.753906 27.285156 23.566406 C 27.394531 23.375 27.332031 23.128906 27.144531 23.019531 L 26.136719 22.433594 L 27.144531 21.847656 C 27.332031 21.738281 27.394531 21.488281 27.285156 21.300781 C 27.175781 21.109375 26.929688 21.046875 26.742188 21.15625 L 25.738281 21.738281 L 25.738281 20.582031 C 25.738281 20.363281 25.5625 20.183594 25.34375 20.183594 C 25.125 20.183594 24.945312 20.363281 24.945312 20.582031 L 24.945312 21.738281 L 23.945312 21.15625 C 23.753906 21.046875 23.507812 21.109375 23.398438 21.300781 C 23.289062 21.488281 23.351562 21.738281 23.542969 21.847656 L 24.550781 22.433594 L 23.542969 23.019531 C 23.351562 23.128906 23.285156 23.375 23.398438 23.566406 Z M 23.398438 23.566406 "/>
</g>
</svg>
