<?xml version="1.0" encoding="UTF-8"?>
<svg xmlns="http://www.w3.org/2000/svg" xmlns:xlink="http://www.w3.org/1999/xlink" width="28pt" height="28pt" viewBox="0 0 28 28" version="1.1">
<g id="surface1">
<path style=" stroke:none;fill-rule:nonzero;fill:rgb(0%,0%,0%);fill-opacity:1;" d="M 13.902344 0 C 6.238281 0 0 6.238281 0 13.902344 C 0 21.566406 6.238281 27.804688 13.902344 27.804688 C 21.566406 27.804688 27.804688 21.566406 27.804688 13.902344 C 27.804688 6.238281 21.570312 0 13.902344 0 Z M 17.359375 14.390625 L 15.097656 14.390625 C 15.097656 18.003906 15.097656 22.453125 15.097656 22.453125 L 11.746094 22.453125 C 11.746094 22.453125 11.746094 18.046875 11.746094 14.390625 L 10.152344 14.390625 L 10.152344 11.542969 L 11.746094 11.542969 L 11.746094 9.699219 C 11.746094 8.378906 12.375 6.316406 15.128906 6.316406 L 17.613281 6.328125 L 17.613281 9.09375 C 17.613281 9.09375 16.101562 9.09375 15.808594 9.09375 C 15.515625 9.09375 15.097656 9.238281 15.097656 9.867188 L 15.097656 11.542969 L 17.652344 11.542969 Z M 17.359375 14.390625 "/>
</g>
</svg>
