<?xml version="1.0" encoding="UTF-8"?>
<svg xmlns="http://www.w3.org/2000/svg" xmlns:xlink="http://www.w3.org/1999/xlink" width="28pt" height="28pt" viewBox="0 0 28 28" version="1.1">
<g id="surface1">
<path style=" stroke:none;fill-rule:nonzero;fill:rgb(0%,0%,0%);fill-opacity:1;" d="M 12.25 17.5 C 12.25 19.433594 10.683594 21 8.75 21 C 6.816406 21 5.25 19.433594 5.25 17.5 C 5.25 15.566406 6.816406 14 8.75 14 C 10.683594 14 12.25 15.566406 12.25 17.5 Z M 12.25 17.5 "/>
<path style=" stroke:none;fill-rule:nonzero;fill:rgb(0%,0%,0%);fill-opacity:1;" d="M 26.25 8.75 L 6.503906 8.75 L 20.4375 3.445312 C 20.890625 3.273438 21.117188 2.765625 20.941406 2.3125 C 20.769531 1.859375 20.265625 1.632812 19.8125 1.808594 L 1.4375 8.808594 C 1.433594 8.8125 1.429688 8.8125 1.425781 8.816406 C 0.621094 8.976562 0 9.652344 0 10.5 L 0 24.5 C 0 25.46875 0.785156 26.25 1.75 26.25 L 26.25 26.25 C 27.214844 26.25 28 25.46875 28 24.5 L 28 10.5 C 28 9.535156 27.214844 8.75 26.25 8.75 Z M 8.75 22.75 C 5.855469 22.75 3.5 20.394531 3.5 17.5 C 3.5 14.605469 5.855469 12.25 8.75 12.25 C 11.644531 12.25 14 14.605469 14 17.5 C 14 20.394531 11.644531 22.75 8.75 22.75 Z M 24.5 22.75 L 17.5 22.75 L 17.5 21 L 24.5 21 Z M 24.5 19.25 L 17.5 19.25 L 17.5 17.5 L 24.5 17.5 Z M 24.5 15.75 L 17.5 15.75 L 17.5 14 L 24.5 14 Z M 24.5 15.75 "/>
</g>
</svg>
