<?xml version="1.0" encoding="UTF-8"?>
<svg xmlns="http://www.w3.org/2000/svg" xmlns:xlink="http://www.w3.org/1999/xlink" width="28pt" height="28pt" viewBox="0 0 28 28" version="1.1">
<g id="surface1">
<path style=" stroke:none;fill-rule:nonzero;fill:rgb(0%,0%,0%);fill-opacity:1;" d="M 27.707031 12.910156 L 11.886719 3.871094 C 11.460938 3.625 10.980469 3.496094 10.5 3.5 C 9.605469 3.511719 8.714844 3.949219 8.191406 4.699219 L 5.125 9.074219 C 4.824219 9.507812 4.667969 10.011719 4.667969 10.535156 C 4.667969 11.441406 5.15625 12.285156 5.9375 12.738281 L 9.273438 14.664062 L 8.671875 15.464844 C 8.347656 15.902344 8.167969 16.441406 8.167969 16.984375 C 8.167969 17.542969 8.371094 18.066406 8.703125 18.503906 L 7.8125 19.835938 L 3.5 19.835938 L 3.5 18.082031 C 3.5 17.761719 3.238281 17.5 2.917969 17.5 L 0.582031 17.5 C 0.261719 17.5 0 17.761719 0 18.082031 L 0 23.917969 C 0 24.238281 0.261719 24.5 0.582031 24.5 L 2.917969 24.5 C 3.238281 24.5 3.5 24.238281 3.5 23.917969 L 3.5 23.335938 L 7.8125 23.335938 C 8.988281 23.335938 10.074219 22.753906 10.726562 21.777344 L 11.683594 20.34375 C 11.867188 20.382812 12.050781 20.417969 12.242188 20.417969 C 13.167969 20.417969 14.042969 19.925781 14.519531 19.128906 L 15.160156 18.058594 L 20.125 20.921875 C 20.214844 20.976562 20.316406 21 20.417969 21 C 20.476562 21 20.53125 20.992188 20.585938 20.976562 C 20.738281 20.929688 20.867188 20.824219 20.941406 20.679688 L 21.371094 19.8125 C 21.441406 19.820312 21.511719 19.835938 21.582031 19.835938 C 23.835938 19.835938 25.667969 18.003906 25.667969 15.75 C 25.667969 15.503906 25.628906 15.25 25.574219 14.988281 L 27.675781 13.9375 C 27.871094 13.84375 27.992188 13.648438 28 13.433594 C 28.003906 13.21875 27.894531 13.015625 27.707031 12.910156 Z M 19.25 17.5 C 18.925781 17.5 18.667969 17.238281 18.667969 16.917969 C 18.667969 16.59375 18.925781 16.332031 19.25 16.332031 C 19.570312 16.332031 19.832031 16.59375 19.832031 16.917969 C 19.832031 17.238281 19.570312 17.5 19.25 17.5 Z M 19.25 17.5 "/>
</g>
</svg>
