<?xml version="1.0" encoding="UTF-8"?>
<svg xmlns="http://www.w3.org/2000/svg" xmlns:xlink="http://www.w3.org/1999/xlink" width="28pt" height="28pt" viewBox="0 0 28 28" version="1.1">
<g id="surface1">
<path style=" stroke:none;fill-rule:nonzero;fill:rgb(0%,0%,0%);fill-opacity:1;" d="M 17.867188 20.597656 C 13.1875 20 9.445312 16.183594 8.9375 11.492188 C 8.46875 7.175781 10.65625 3.324219 14.070312 1.363281 C 14.734375 0.980469 14.460938 -0.0351562 13.695312 0 C 12.839844 0.0429688 11.964844 0.164062 11.082031 0.378906 C 5.175781 1.816406 0.78125 6.976562 0.382812 13.039062 C -0.152344 21.199219 6.308594 27.984375 14.351562 27.984375 C 20.488281 27.984375 25.699219 24.039062 27.589844 18.546875 C 27.84375 17.816406 26.945312 17.261719 26.386719 17.800781 C 24.230469 19.871094 21.179688 21.015625 17.867188 20.597656 Z M 17.867188 20.597656 "/>
</g>
</svg>
