<?xml version="1.0" encoding="UTF-8"?>
<svg xmlns="http://www.w3.org/2000/svg" xmlns:xlink="http://www.w3.org/1999/xlink" width="28pt" height="28pt" viewBox="0 0 28 28" version="1.1">
<g id="surface1">
<path style=" stroke:none;fill-rule:nonzero;fill:rgb(0%,0%,0%);fill-opacity:1;" d="M 5.199219 10.449219 L 5.816406 12.125 C 5.839844 12.1875 5.898438 12.226562 5.964844 12.226562 C 6.03125 12.226562 6.09375 12.1875 6.117188 12.125 L 6.734375 10.449219 C 7.234375 9.09375 8.300781 8.027344 9.65625 7.527344 L 11.328125 6.910156 C 11.394531 6.886719 11.433594 6.824219 11.433594 6.757812 C 11.433594 6.691406 11.394531 6.632812 11.328125 6.609375 L 9.65625 5.992188 C 8.300781 5.492188 7.234375 4.421875 6.734375 3.066406 L 6.117188 1.394531 C 6.09375 1.332031 6.03125 1.289062 5.964844 1.289062 C 5.898438 1.289062 5.839844 1.332031 5.816406 1.394531 L 5.199219 3.066406 C 4.699219 4.421875 3.628906 5.492188 2.273438 5.992188 L 0.601562 6.609375 C 0.539062 6.632812 0.496094 6.691406 0.496094 6.757812 C 0.496094 6.824219 0.539062 6.886719 0.601562 6.910156 L 2.273438 7.527344 C 3.628906 8.027344 4.699219 9.09375 5.199219 10.449219 Z M 5.199219 10.449219 "/>
<path style=" stroke:none;fill-rule:nonzero;fill:rgb(0%,0%,0%);fill-opacity:1;" d="M 18.769531 17.519531 L 17.09375 16.902344 C 15.742188 16.402344 14.671875 15.335938 14.171875 13.980469 L 13.554688 12.304688 C 13.53125 12.242188 13.472656 12.199219 13.40625 12.199219 C 13.335938 12.199219 13.277344 12.242188 13.253906 12.304688 L 12.636719 13.980469 C 12.136719 15.335938 11.070312 16.402344 9.714844 16.902344 L 8.039062 17.519531 C 7.976562 17.542969 7.933594 17.601562 7.933594 17.671875 C 7.933594 17.738281 7.976562 17.796875 8.039062 17.820312 L 9.714844 18.4375 C 11.070312 18.9375 12.136719 20.003906 12.636719 21.359375 L 13.253906 23.035156 C 13.277344 23.097656 13.335938 23.140625 13.40625 23.140625 C 13.472656 23.140625 13.53125 23.097656 13.554688 23.035156 L 14.171875 21.359375 C 14.671875 20.003906 15.742188 18.9375 17.09375 18.4375 L 18.769531 17.820312 C 18.832031 17.796875 18.875 17.738281 18.875 17.671875 C 18.875 17.601562 18.832031 17.542969 18.769531 17.519531 Z M 18.769531 17.519531 "/>
<path style=" stroke:none;fill-rule:nonzero;fill:rgb(0%,0%,0%);fill-opacity:1;" d="M 27.433594 10.359375 L 26.296875 9.941406 C 25.375 9.601562 24.648438 8.875 24.308594 7.953125 L 23.890625 6.816406 C 23.875 6.773438 23.832031 6.746094 23.785156 6.746094 C 23.742188 6.746094 23.699219 6.773438 23.683594 6.816406 L 23.265625 7.953125 C 22.925781 8.875 22.199219 9.601562 21.277344 9.941406 L 20.140625 10.359375 C 20.097656 10.375 20.070312 10.417969 20.070312 10.460938 C 20.070312 10.507812 20.097656 10.546875 20.140625 10.5625 L 21.277344 10.984375 C 22.199219 11.324219 22.925781 12.050781 23.265625 12.96875 L 23.683594 14.109375 C 23.699219 14.152344 23.742188 14.179688 23.785156 14.179688 C 23.832031 14.179688 23.875 14.152344 23.890625 14.109375 L 24.308594 12.96875 C 24.648438 12.050781 25.375 11.324219 26.296875 10.984375 L 27.433594 10.5625 C 27.476562 10.546875 27.503906 10.507812 27.503906 10.460938 C 27.503906 10.417969 27.476562 10.375 27.433594 10.359375 Z M 27.433594 10.359375 "/>
<path style=" stroke:none;fill-rule:nonzero;fill:rgb(0%,0%,0%);fill-opacity:1;" d="M 24.675781 25.335938 L 23.882812 25.042969 C 23.242188 24.804688 22.734375 24.300781 22.496094 23.65625 L 22.203125 22.863281 C 22.195312 22.835938 22.164062 22.816406 22.132812 22.816406 C 22.101562 22.816406 22.074219 22.835938 22.0625 22.863281 L 21.769531 23.65625 C 21.53125 24.300781 21.027344 24.804688 20.382812 25.042969 L 19.589844 25.335938 C 19.5625 25.347656 19.542969 25.375 19.542969 25.40625 C 19.542969 25.4375 19.5625 25.46875 19.589844 25.476562 L 20.382812 25.769531 C 21.027344 26.007812 21.53125 26.515625 21.769531 27.15625 L 22.0625 27.949219 C 22.074219 27.980469 22.101562 28 22.132812 28 C 22.164062 28 22.195312 27.980469 22.207031 27.949219 L 22.496094 27.15625 C 22.734375 26.515625 23.242188 26.007812 23.882812 25.769531 L 24.675781 25.476562 C 24.707031 25.46875 24.726562 25.4375 24.726562 25.40625 C 24.726562 25.375 24.707031 25.347656 24.675781 25.335938 Z M 24.675781 25.335938 "/>
<path style=" stroke:none;fill-rule:nonzero;fill:rgb(0%,0%,0%);fill-opacity:1;" d="M 18.824219 2.519531 L 18.03125 2.230469 C 17.386719 1.992188 16.882812 1.484375 16.644531 0.84375 L 16.351562 0.0507812 C 16.339844 0.0195312 16.3125 0 16.28125 0 C 16.25 0 16.222656 0.0195312 16.210938 0.0507812 L 15.917969 0.84375 C 15.679688 1.484375 15.175781 1.992188 14.53125 2.230469 L 13.738281 2.519531 C 13.707031 2.53125 13.6875 2.5625 13.6875 2.59375 C 13.6875 2.625 13.707031 2.652344 13.738281 2.664062 L 14.53125 2.957031 C 15.175781 3.195312 15.679688 3.699219 15.917969 4.34375 L 16.210938 5.136719 C 16.222656 5.164062 16.25 5.183594 16.28125 5.183594 C 16.3125 5.183594 16.339844 5.164062 16.351562 5.136719 L 16.644531 4.34375 C 16.882812 3.699219 17.386719 3.195312 18.03125 2.957031 L 18.824219 2.664062 C 18.855469 2.652344 18.875 2.625 18.875 2.59375 C 18.875 2.5625 18.855469 2.53125 18.824219 2.519531 Z M 18.824219 2.519531 "/>
<path style=" stroke:none;fill-rule:nonzero;fill:rgb(0%,0%,0%);fill-opacity:1;" d="M 9.089844 23.703125 L 8.09375 23.335938 C 7.285156 23.039062 6.648438 22.402344 6.347656 21.59375 L 5.980469 20.59375 C 5.96875 20.558594 5.933594 20.53125 5.890625 20.53125 C 5.851562 20.53125 5.816406 20.558594 5.800781 20.59375 L 5.433594 21.59375 C 5.136719 22.402344 4.5 23.039062 3.691406 23.335938 L 2.691406 23.703125 C 2.65625 23.71875 2.628906 23.753906 2.628906 23.792969 C 2.628906 23.835938 2.65625 23.871094 2.691406 23.882812 L 3.691406 24.253906 C 4.5 24.550781 5.136719 25.1875 5.433594 25.996094 L 5.800781 26.992188 C 5.816406 27.03125 5.851562 27.054688 5.890625 27.054688 C 5.933594 27.054688 5.96875 27.03125 5.980469 26.992188 L 6.351562 25.996094 C 6.648438 25.1875 7.285156 24.550781 8.09375 24.253906 L 9.089844 23.882812 C 9.128906 23.871094 9.152344 23.835938 9.152344 23.792969 C 9.152344 23.753906 9.128906 23.71875 9.089844 23.703125 Z M 9.089844 23.703125 "/>
</g>
</svg>
