<?xml version="1.0" encoding="UTF-8"?>
<svg xmlns="http://www.w3.org/2000/svg" xmlns:xlink="http://www.w3.org/1999/xlink" width="28pt" height="28pt" viewBox="0 0 28 28" version="1.1">
<g id="surface1">
<path style=" stroke:none;fill-rule:nonzero;fill:rgb(0%,0%,0%);fill-opacity:1;" d="M 21.058594 13.222656 C 20.746094 12.785156 20.613281 12.242188 20.707031 11.691406 L 20.898438 10.59375 L 20.101562 9.816406 C 20.089844 9.804688 20.078125 9.792969 20.066406 9.78125 C 13.972656 14.863281 13.277344 23.015625 13.34375 27.015625 C 13.347656 27.160156 13.460938 27.28125 13.605469 27.292969 C 13.75 27.308594 13.882812 27.210938 13.910156 27.066406 C 15.59375 18.878906 18.769531 15.011719 21.058594 13.222656 Z M 21.058594 13.222656 "/>
<path style=" stroke:none;fill-rule:nonzero;fill:rgb(0%,0%,0%);fill-opacity:1;" d="M 9.109375 7.753906 L 7.269531 8.167969 L 6.566406 9.914062 C 6.554688 9.945312 6.539062 9.976562 6.523438 10.007812 C 9.394531 14.066406 10.890625 22.359375 11.488281 26.535156 C 11.5 26.632812 11.589844 26.703125 11.6875 26.695312 C 11.785156 26.6875 11.863281 26.605469 11.863281 26.507812 C 11.9375 17.5 10.558594 11.492188 9.167969 7.738281 C 9.148438 7.746094 9.128906 7.75 9.109375 7.753906 Z M 9.109375 7.753906 "/>
<path style=" stroke:none;fill-rule:nonzero;fill:rgb(0%,0%,0%);fill-opacity:1;" d="M 21.683594 22.339844 L 21.425781 21.980469 C 21.214844 21.691406 21.085938 21.359375 21.046875 21.019531 C 19.042969 21.554688 16.023438 22.925781 15.058594 26.386719 C 15.007812 26.574219 15.097656 26.769531 15.273438 26.851562 C 15.449219 26.933594 15.660156 26.878906 15.769531 26.71875 C 16.820312 25.191406 18.714844 23.179688 21.535156 22.769531 C 21.535156 22.765625 21.535156 22.761719 21.539062 22.757812 Z M 21.683594 22.339844 "/>
<path style=" stroke:none;fill-rule:nonzero;fill:rgb(0%,0%,0%);fill-opacity:1;" d="M 7.339844 18.839844 C 7.15625 19.097656 6.914062 19.3125 6.621094 19.464844 L 6.226562 19.671875 L 6.171875 20.109375 C 6.15625 20.242188 6.125 20.371094 6.085938 20.496094 C 7.769531 22.398438 9.011719 25.011719 9.761719 26.886719 C 9.8125 27.011719 9.949219 27.078125 10.078125 27.042969 C 10.210938 27.007812 10.292969 26.878906 10.269531 26.742188 C 9.605469 22.820312 8.441406 20.367188 7.339844 18.839844 Z M 7.339844 18.839844 "/>
<path style=" stroke:none;fill-rule:nonzero;fill:rgb(0%,0%,0%);fill-opacity:1;" d="M 22.855469 9.957031 L 22.507812 12 C 22.492188 12.078125 22.527344 12.160156 22.59375 12.210938 C 22.628906 12.238281 22.675781 12.25 22.71875 12.25 C 22.753906 12.25 22.789062 12.242188 22.820312 12.226562 L 24.652344 11.261719 L 26.488281 12.226562 C 26.519531 12.242188 26.554688 12.25 26.589844 12.25 C 26.632812 12.25 26.675781 12.238281 26.714844 12.210938 C 26.78125 12.160156 26.816406 12.078125 26.800781 12 L 26.453125 9.957031 L 27.933594 8.511719 C 27.992188 8.453125 28.015625 8.367188 27.988281 8.289062 C 27.964844 8.210938 27.894531 8.152344 27.816406 8.140625 L 25.765625 7.84375 L 24.847656 5.988281 C 24.8125 5.914062 24.738281 5.867188 24.652344 5.867188 C 24.570312 5.867188 24.496094 5.914062 24.460938 5.988281 L 23.542969 7.84375 L 21.492188 8.140625 C 21.410156 8.152344 21.34375 8.210938 21.320312 8.289062 C 21.292969 8.367188 21.316406 8.453125 21.375 8.511719 Z M 22.855469 9.957031 "/>
<path style=" stroke:none;fill-rule:nonzero;fill:rgb(0%,0%,0%);fill-opacity:1;" d="M 8.710938 5.972656 C 8.789062 5.957031 8.855469 5.894531 8.875 5.8125 C 8.894531 5.734375 8.863281 5.648438 8.800781 5.597656 L 6.621094 3.773438 L 6.886719 0.941406 C 6.894531 0.859375 6.855469 0.78125 6.785156 0.738281 C 6.75 0.714844 6.710938 0.703125 6.671875 0.703125 C 6.632812 0.703125 6.59375 0.714844 6.558594 0.738281 L 4.148438 2.25 L 1.539062 1.121094 C 1.511719 1.109375 1.480469 1.101562 1.453125 1.101562 C 1.402344 1.101562 1.351562 1.121094 1.3125 1.152344 C 1.25 1.207031 1.222656 1.292969 1.242188 1.371094 L 1.933594 4.128906 L 0.0546875 6.261719 C 0 6.324219 -0.015625 6.410156 0.015625 6.488281 C 0.046875 6.5625 0.121094 6.617188 0.203125 6.621094 L 3.039062 6.816406 L 4.488281 9.261719 C 4.527344 9.328125 4.597656 9.371094 4.671875 9.371094 C 4.679688 9.371094 4.683594 9.367188 4.691406 9.367188 C 4.773438 9.363281 4.84375 9.308594 4.875 9.234375 L 5.933594 6.59375 Z M 8.710938 5.972656 "/>
<path style=" stroke:none;fill-rule:nonzero;fill:rgb(0%,0%,0%);fill-opacity:1;" d="M 27.570312 21.480469 C 27.558594 21.398438 27.5 21.332031 27.421875 21.308594 L 26.089844 20.875 L 25.6875 19.53125 C 25.664062 19.449219 25.597656 19.390625 25.519531 19.378906 C 25.503906 19.375 25.492188 19.375 25.480469 19.375 C 25.414062 19.375 25.347656 19.40625 25.304688 19.464844 L 24.480469 20.597656 L 23.082031 20.5625 C 23.078125 20.5625 23.078125 20.5625 23.074219 20.5625 C 22.996094 20.5625 22.921875 20.609375 22.882812 20.679688 C 22.84375 20.753906 22.851562 20.839844 22.898438 20.90625 L 23.726562 22.042969 L 23.257812 23.363281 C 23.230469 23.441406 23.25 23.527344 23.308594 23.585938 C 23.347656 23.628906 23.40625 23.652344 23.460938 23.652344 C 23.484375 23.652344 23.507812 23.648438 23.527344 23.640625 L 24.863281 23.207031 L 25.976562 24.058594 C 26.015625 24.089844 26.058594 24.105469 26.105469 24.105469 C 26.140625 24.105469 26.171875 24.097656 26.203125 24.082031 C 26.277344 24.046875 26.324219 23.96875 26.324219 23.886719 L 26.324219 22.484375 L 27.476562 21.691406 C 27.546875 21.644531 27.582031 21.5625 27.570312 21.480469 Z M 27.570312 21.480469 "/>
<path style=" stroke:none;fill-rule:nonzero;fill:rgb(0%,0%,0%);fill-opacity:1;" d="M 5.777344 17.847656 C 5.851562 17.808594 5.894531 17.734375 5.894531 17.652344 C 5.894531 17.570312 5.84375 17.496094 5.769531 17.460938 L 4.5 16.867188 L 4.269531 15.484375 C 4.253906 15.402344 4.195312 15.335938 4.117188 15.3125 C 4.097656 15.304688 4.078125 15.300781 4.054688 15.300781 C 3.996094 15.300781 3.9375 15.328125 3.898438 15.371094 L 2.941406 16.394531 L 1.554688 16.1875 C 1.542969 16.1875 1.53125 16.1875 1.519531 16.1875 C 1.449219 16.1875 1.382812 16.21875 1.34375 16.277344 C 1.296875 16.347656 1.292969 16.433594 1.332031 16.507812 L 2.011719 17.734375 L 1.382812 18.988281 C 1.347656 19.0625 1.355469 19.148438 1.40625 19.214844 C 1.445312 19.269531 1.511719 19.300781 1.578125 19.300781 C 1.589844 19.300781 1.605469 19.300781 1.621094 19.296875 L 2.996094 19.03125 L 3.996094 20.015625 C 4.035156 20.054688 4.089844 20.078125 4.148438 20.078125 C 4.171875 20.078125 4.195312 20.074219 4.21875 20.066406 C 4.296875 20.039062 4.351562 19.96875 4.363281 19.886719 L 4.535156 18.496094 Z M 5.777344 17.847656 "/>
<path style=" stroke:none;fill-rule:nonzero;fill:rgb(0%,0%,0%);fill-opacity:1;" d="M 14.980469 6.113281 L 14.8125 5.703125 L 14.378906 5.609375 C 14.054688 5.539062 13.761719 5.394531 13.519531 5.195312 C 12.820312 7.054688 12.332031 9.925781 12.84375 14.242188 C 12.875 14.476562 13.210938 14.472656 13.234375 14.238281 C 13.425781 12.238281 13.914062 8.996094 15.164062 6.460938 C 15.09375 6.351562 15.03125 6.238281 14.980469 6.113281 Z M 14.980469 6.113281 "/>
<path style=" stroke:none;fill-rule:nonzero;fill:rgb(0%,0%,0%);fill-opacity:1;" d="M 15.597656 1.148438 L 15.738281 2.542969 L 14.667969 3.449219 C 14.605469 3.503906 14.578125 3.589844 14.597656 3.667969 C 14.621094 3.746094 14.683594 3.808594 14.765625 3.828125 L 16.132812 4.125 L 16.667969 5.421875 C 16.699219 5.496094 16.769531 5.546875 16.851562 5.554688 C 16.855469 5.554688 16.863281 5.554688 16.867188 5.554688 C 16.945312 5.554688 17.015625 5.515625 17.054688 5.445312 L 17.757812 4.234375 L 19.15625 4.128906 C 19.238281 4.125 19.3125 4.070312 19.34375 3.996094 C 19.371094 3.917969 19.359375 3.832031 19.300781 3.769531 L 18.367188 2.722656 L 18.699219 1.363281 C 18.71875 1.28125 18.691406 1.199219 18.628906 1.144531 C 18.589844 1.113281 18.539062 1.09375 18.488281 1.09375 C 18.460938 1.09375 18.429688 1.101562 18.402344 1.113281 L 17.117188 1.679688 L 15.925781 0.941406 C 15.890625 0.921875 15.851562 0.910156 15.8125 0.910156 C 15.773438 0.910156 15.730469 0.921875 15.695312 0.941406 C 15.628906 0.988281 15.589844 1.066406 15.597656 1.148438 Z M 15.597656 1.148438 "/>
</g>
</svg>
