<?xml version="1.0" encoding="UTF-8"?>
<svg xmlns="http://www.w3.org/2000/svg" xmlns:xlink="http://www.w3.org/1999/xlink" width="28pt" height="28pt" viewBox="0 0 28 28" version="1.1">
<g id="surface1">
<path style=" stroke:none;fill-rule:nonzero;fill:rgb(0%,0%,0%);fill-opacity:1;" d="M 13.992188 7.636719 C 15.398438 7.636719 16.539062 6.496094 16.539062 5.089844 C 16.539062 4.613281 16.40625 4.160156 16.175781 3.78125 L 13.992188 0 L 11.8125 3.78125 C 11.582031 4.160156 11.449219 4.613281 11.449219 5.089844 C 11.449219 6.496094 12.585938 7.636719 13.992188 7.636719 Z M 13.992188 7.636719 "/>
<path style=" stroke:none;fill-rule:nonzero;fill:rgb(0%,0%,0%);fill-opacity:1;" d="M 21.628906 11.453125 L 15.265625 11.453125 L 15.265625 8.910156 L 12.722656 8.910156 L 12.722656 11.453125 L 6.355469 11.453125 C 4.25 11.453125 2.539062 13.167969 2.539062 15.273438 L 2.539062 17.234375 C 2.539062 18.605469 3.660156 19.726562 5.035156 19.726562 C 5.703125 19.726562 6.324219 19.464844 6.796875 18.996094 L 9.519531 16.277344 L 12.238281 18.988281 C 13.179688 19.929688 14.820312 19.929688 15.761719 18.988281 L 18.488281 16.277344 L 21.203125 18.988281 C 21.675781 19.460938 22.296875 19.722656 22.964844 19.722656 C 24.339844 19.722656 25.460938 18.601562 25.460938 17.226562 L 25.460938 15.273438 C 25.449219 13.167969 23.738281 11.453125 21.628906 11.453125 Z M 21.628906 11.453125 "/>
<path style=" stroke:none;fill-rule:nonzero;fill:rgb(0%,0%,0%);fill-opacity:1;" d="M 19.84375 20.34375 L 18.472656 18.976562 L 17.097656 20.34375 C 15.4375 22.003906 12.535156 22.003906 10.875 20.34375 L 9.507812 18.976562 L 8.132812 20.34375 C 7.3125 21.179688 6.210938 21.636719 5.035156 21.636719 C 4.109375 21.636719 3.25 21.34375 2.539062 20.855469 L 2.539062 26.726562 C 2.539062 27.425781 3.113281 28 3.8125 28 L 24.175781 28 C 24.875 28 25.449219 27.425781 25.449219 26.726562 L 25.449219 20.855469 C 24.734375 21.34375 23.882812 21.636719 22.953125 21.636719 C 21.777344 21.636719 20.675781 21.179688 19.84375 20.34375 Z M 19.84375 20.34375 "/>
</g>
</svg>
