<?xml version="1.0" encoding="UTF-8"?>
<svg xmlns="http://www.w3.org/2000/svg" xmlns:xlink="http://www.w3.org/1999/xlink" width="28pt" height="28pt" viewBox="0 0 28 28" version="1.1">
<g id="surface1">
<path style=" stroke:none;fill-rule:nonzero;fill:rgb(0%,0%,0%);fill-opacity:1;" d="M 9.839844 15.5625 L 9.839844 19.265625 C 9.839844 19.566406 10.082031 19.808594 10.382812 19.808594 C 10.679688 19.808594 10.921875 19.566406 10.921875 19.265625 L 10.921875 15.898438 L 9.210938 14.09375 C 8.835938 13.699219 8.6875 13.148438 8.816406 12.621094 L 9.226562 10.902344 L 8.746094 10.902344 L 9.109375 10.355469 C 9.183594 10.390625 9.261719 10.417969 9.347656 10.433594 C 9.433594 10.179688 9.582031 9.953125 9.773438 9.777344 C 10.019531 9.546875 10.339844 9.398438 10.691406 9.359375 C 10.746094 9.355469 10.796875 9.351562 10.851562 9.351562 L 10.851562 7.582031 C 10.851562 7.285156 10.609375 7.042969 10.3125 7.042969 C 10.011719 7.042969 9.773438 7.285156 9.773438 7.582031 L 9.773438 8.234375 C 9.707031 8.222656 9.640625 8.214844 9.574219 8.214844 C 9.503906 8.214844 9.4375 8.222656 9.371094 8.234375 L 9.371094 6.695312 C 9.371094 6.398438 9.132812 6.15625 8.832031 6.15625 C 8.535156 6.15625 8.292969 6.398438 8.292969 6.695312 L 8.292969 9.628906 L 8.03125 10.027344 L 7.769531 9.628906 L 7.769531 6.695312 C 7.769531 6.398438 7.527344 6.15625 7.230469 6.15625 C 6.929688 6.15625 6.6875 6.398438 6.6875 6.695312 L 6.6875 8.234375 C 6.625 8.222656 6.558594 8.214844 6.488281 8.214844 C 6.351562 8.214844 6.21875 8.242188 6.097656 8.289062 L 6.097656 5.777344 C 6.097656 5.476562 5.855469 5.238281 5.558594 5.238281 C 5.257812 5.238281 5.015625 5.476562 5.015625 5.777344 L 5.015625 8.710938 L 4.683594 9.210938 L 4.683594 6.695312 C 4.683594 6.398438 4.445312 6.15625 4.144531 6.15625 C 3.847656 6.15625 3.605469 6.398438 3.605469 6.695312 L 3.605469 7.367188 C 3.484375 7.320312 3.351562 7.296875 3.214844 7.296875 C 2.59375 7.296875 2.09375 7.796875 2.09375 8.417969 C 2.09375 9.035156 2.59375 9.535156 3.214844 9.535156 C 3.351562 9.535156 3.484375 9.511719 3.605469 9.464844 L 3.605469 9.792969 C 3.605469 9.859375 3.617188 9.921875 3.640625 9.984375 L 2.25 9.984375 L 1.410156 8.710938 L 1.410156 5.777344 C 1.410156 5.476562 1.167969 5.238281 0.871094 5.238281 C 0.570312 5.238281 0.328125 5.476562 0.328125 5.777344 L 0.328125 8.871094 C 0.328125 8.976562 0.359375 9.082031 0.417969 9.167969 L 1.875 11.378906 L 1.875 13.738281 C 1.867188 13.773438 1.863281 13.808594 1.863281 13.847656 L 1.863281 18.347656 C 1.863281 18.644531 2.105469 18.886719 2.40625 18.886719 C 2.703125 18.886719 2.945312 18.644531 2.945312 18.347656 L 2.945312 14.640625 L 3.480469 14.640625 L 3.480469 18.347656 C 3.480469 18.644531 3.722656 18.886719 4.023438 18.886719 C 4.320312 18.886719 4.5625 18.644531 4.5625 18.347656 L 4.5625 13.847656 C 4.5625 13.808594 4.558594 13.773438 4.550781 13.738281 L 4.550781 11.390625 L 5.152344 12.300781 L 5.152344 14.660156 C 5.144531 14.695312 5.140625 14.730469 5.140625 14.769531 L 5.140625 19.265625 C 5.140625 19.566406 5.382812 19.808594 5.679688 19.808594 C 5.980469 19.808594 6.21875 19.566406 6.21875 19.265625 L 6.21875 15.5625 L 6.757812 15.5625 L 6.757812 19.265625 C 6.757812 19.566406 7 19.808594 7.296875 19.808594 C 7.597656 19.808594 7.839844 19.566406 7.839844 19.265625 L 7.839844 14.769531 C 7.839844 14.730469 7.835938 14.695312 7.828125 14.660156 L 7.828125 12.300781 L 8.03125 11.988281 L 8.234375 12.300781 L 8.234375 14.660156 C 8.226562 14.695312 8.222656 14.730469 8.222656 14.769531 L 8.222656 19.265625 C 8.222656 19.566406 8.464844 19.808594 8.765625 19.808594 C 9.0625 19.808594 9.304688 19.566406 9.304688 19.265625 L 9.304688 15.5625 Z M 6.488281 10.902344 L 5.523438 10.902344 L 5.195312 10.402344 L 5.523438 9.902344 C 5.71875 10.234375 6.078125 10.457031 6.488281 10.457031 C 6.65625 10.457031 6.8125 10.421875 6.953125 10.355469 L 7.316406 10.902344 Z M 6.488281 10.902344 "/>
<path style=" stroke:none;fill-rule:nonzero;fill:rgb(0%,0%,0%);fill-opacity:1;" d="M 12.082031 9.921875 C 12.140625 9.832031 12.199219 9.746094 12.261719 9.664062 C 12.324219 9.589844 12.386719 9.515625 12.457031 9.445312 C 12.578125 9.324219 12.707031 9.214844 12.847656 9.121094 C 13.003906 9.015625 13.167969 8.925781 13.34375 8.855469 L 13.34375 7.988281 C 13.34375 7.691406 13.101562 7.449219 12.804688 7.449219 C 12.671875 7.449219 12.550781 7.496094 12.457031 7.578125 L 12.457031 6.695312 C 12.457031 6.398438 12.214844 6.15625 11.917969 6.15625 C 11.617188 6.15625 11.375 6.398438 11.375 6.695312 L 11.375 9.4375 C 11.5 9.476562 11.617188 9.535156 11.722656 9.601562 C 11.859375 9.691406 11.980469 9.796875 12.082031 9.921875 Z M 12.082031 9.921875 "/>
<path style=" stroke:none;fill-rule:nonzero;fill:rgb(0%,0%,0%);fill-opacity:1;" d="M 11.726562 16.753906 L 11.304688 16.308594 L 11.304688 19.53125 L 11.726562 19.015625 Z M 11.726562 16.753906 "/>
<path style=" stroke:none;fill-rule:nonzero;fill:rgb(0%,0%,0%);fill-opacity:1;" d="M 26.933594 5.640625 C 26.636719 5.640625 26.394531 5.882812 26.394531 6.179688 L 26.394531 9.113281 L 25.554688 10.386719 L 24.160156 10.386719 C 24.183594 10.328125 24.199219 10.261719 24.199219 10.195312 L 24.199219 9.871094 C 24.320312 9.914062 24.453125 9.941406 24.589844 9.941406 C 25.207031 9.941406 25.710938 9.441406 25.710938 8.820312 C 25.710938 8.203125 25.207031 7.699219 24.589844 7.699219 C 24.453125 7.699219 24.320312 7.726562 24.199219 7.773438 L 24.199219 7.101562 C 24.199219 6.804688 23.957031 6.5625 23.65625 6.5625 C 23.359375 6.5625 23.117188 6.804688 23.117188 7.101562 L 23.117188 9.617188 L 22.785156 9.113281 L 22.785156 6.179688 C 22.785156 5.882812 22.542969 5.640625 22.246094 5.640625 C 21.949219 5.640625 21.707031 5.882812 21.707031 6.179688 L 21.707031 8.691406 C 21.582031 8.648438 21.453125 8.621094 21.3125 8.621094 C 21.246094 8.621094 21.179688 8.628906 21.113281 8.640625 L 21.113281 7.101562 C 21.113281 6.804688 20.871094 6.5625 20.574219 6.5625 C 20.277344 6.5625 20.035156 6.804688 20.035156 7.101562 L 20.035156 10.035156 L 19.773438 10.429688 L 19.730469 10.371094 L 19.730469 12.457031 L 19.773438 12.394531 L 19.976562 12.703125 L 19.976562 15.066406 C 19.96875 15.101562 19.964844 15.136719 19.964844 15.171875 L 19.964844 19.671875 C 19.964844 19.96875 20.207031 20.210938 20.503906 20.210938 C 20.804688 20.210938 21.046875 19.96875 21.046875 19.671875 L 21.046875 15.964844 L 21.582031 15.964844 L 21.582031 19.671875 C 21.582031 19.96875 21.824219 20.210938 22.121094 20.210938 C 22.421875 20.210938 22.664062 19.96875 22.664062 19.671875 L 22.664062 15.171875 C 22.664062 15.136719 22.660156 15.101562 22.652344 15.066406 L 22.652344 12.703125 L 23.25 11.792969 L 23.25 14.144531 C 23.246094 14.179688 23.242188 14.214844 23.242188 14.25 L 23.242188 18.75 C 23.242188 19.050781 23.484375 19.292969 23.78125 19.292969 C 24.078125 19.292969 24.320312 19.050781 24.320312 18.75 L 24.320312 15.046875 L 24.859375 15.046875 L 24.859375 18.75 C 24.859375 19.050781 25.101562 19.292969 25.398438 19.292969 C 25.695312 19.292969 25.9375 19.050781 25.9375 18.75 L 25.9375 14.25 C 25.9375 14.214844 25.933594 14.179688 25.929688 14.144531 L 25.929688 11.785156 L 27.382812 9.574219 C 27.441406 9.484375 27.472656 9.382812 27.472656 9.277344 L 27.472656 6.179688 C 27.472656 5.882812 27.230469 5.640625 26.933594 5.640625 Z M 22.277344 11.308594 L 20.488281 11.308594 L 20.851562 10.761719 C 20.992188 10.824219 21.148438 10.863281 21.316406 10.863281 C 21.726562 10.863281 22.085938 10.640625 22.28125 10.308594 L 22.609375 10.808594 Z M 22.277344 11.308594 "/>
<path style=" stroke:none;fill-rule:nonzero;fill:rgb(0%,0%,0%);fill-opacity:1;" d="M 19.570312 13.203125 C 19.539062 13.265625 19.503906 13.324219 19.46875 13.382812 L 17.347656 16.601562 L 17.347656 19.949219 C 17.355469 20.027344 17.363281 20.105469 17.363281 20.179688 L 17.363281 20.207031 C 17.382812 20.207031 17.402344 20.210938 17.421875 20.210938 C 17.71875 20.210938 17.960938 19.96875 17.960938 19.671875 L 17.960938 15.964844 L 18.5 15.964844 L 18.5 19.671875 C 18.5 19.96875 18.742188 20.210938 19.039062 20.210938 C 19.335938 20.210938 19.578125 19.96875 19.578125 19.671875 L 19.578125 15.171875 C 19.578125 15.136719 19.574219 15.101562 19.570312 15.066406 Z M 19.570312 13.203125 "/>
<path style=" stroke:none;fill-rule:nonzero;fill:rgb(0%,0%,0%);fill-opacity:1;" d="M 16.425781 7.101562 C 16.425781 6.804688 16.183594 6.5625 15.886719 6.5625 C 15.589844 6.5625 15.347656 6.804688 15.347656 7.101562 L 15.347656 7.171875 C 15.253906 7.09375 15.132812 7.042969 15 7.042969 C 14.699219 7.042969 14.457031 7.285156 14.457031 7.582031 L 14.457031 8.65625 C 14.769531 8.667969 15.070312 8.734375 15.347656 8.84375 C 15.410156 8.867188 15.476562 8.898438 15.539062 8.929688 C 15.882812 9.097656 16.183594 9.332031 16.425781 9.621094 Z M 16.425781 7.101562 "/>
<path style=" stroke:none;fill-rule:nonzero;fill:rgb(0%,0%,0%);fill-opacity:1;" d="M 4.773438 4.730469 C 5.09375 4.308594 5.109375 3.714844 4.84375 3.25 C 4.554688 2.746094 3.296875 1.789062 3.992188 1.230469 C 4.378906 0.921875 3.832031 0.382812 3.449219 0.6875 C 2.996094 1.050781 2.953125 1.609375 3.109375 2.136719 C 3.320312 2.839844 4.699219 3.570312 4.109375 4.34375 C 3.808594 4.738281 4.476562 5.121094 4.773438 4.730469 Z M 4.773438 4.730469 "/>
<path style=" stroke:none;fill-rule:nonzero;fill:rgb(0%,0%,0%);fill-opacity:1;" d="M 24.773438 1.453125 C 25.265625 1.402344 25.097656 0.652344 24.613281 0.703125 C 24.035156 0.761719 23.695312 1.207031 23.539062 1.734375 C 23.335938 2.4375 24.09375 3.804688 23.179688 4.132812 C 22.714844 4.300781 23.066406 4.980469 23.523438 4.816406 C 24.023438 4.636719 24.359375 4.144531 24.390625 3.609375 C 24.421875 3.03125 23.886719 1.542969 24.773438 1.453125 Z M 24.773438 1.453125 "/>
<path style=" stroke:none;fill-rule:nonzero;fill:rgb(0%,0%,0%);fill-opacity:1;" d="M 9.746094 4.648438 C 9.828125 5.175781 10.210938 5.632812 10.726562 5.761719 C 11.199219 5.878906 11.480469 5.167969 11 5.046875 C 10.058594 4.808594 10.679688 3.375 10.402344 2.695312 C 10.199219 2.183594 9.816406 1.777344 9.234375 1.777344 C 8.746094 1.773438 8.65625 2.539062 9.148438 2.539062 C 10.042969 2.539062 9.65625 4.074219 9.746094 4.648438 Z M 9.746094 4.648438 "/>
<path style=" stroke:none;fill-rule:nonzero;fill:rgb(0%,0%,0%);fill-opacity:1;" d="M 19.121094 1.898438 C 19.347656 1.394531 19.378906 0.835938 18.976562 0.417969 C 18.636719 0.0625 18.023438 0.527344 18.367188 0.882812 C 18.984375 1.527344 17.609375 2.3125 17.257812 2.773438 C 16.933594 3.199219 16.867188 3.792969 17.132812 4.253906 C 17.375 4.675781 18.085938 4.386719 17.839844 3.957031 C 17.355469 3.113281 18.820312 2.566406 19.121094 1.898438 Z M 19.121094 1.898438 "/>
<path style=" stroke:none;fill-rule:nonzero;fill:rgb(0%,0%,0%);fill-opacity:1;" d="M 12.195312 2.703125 C 12.402344 3.195312 12.882812 3.550781 13.414062 3.550781 C 13.898438 3.554688 14.003906 2.792969 13.511719 2.792969 C 12.539062 2.785156 12.800781 1.246094 12.371094 0.648438 C 12.050781 0.203125 11.582031 -0.105469 11.019531 0.03125 C 10.542969 0.148438 10.636719 0.910156 11.117188 0.792969 C 11.984375 0.585938 11.972656 2.167969 12.195312 2.703125 Z M 12.195312 2.703125 "/>
<path style=" stroke:none;fill-rule:nonzero;fill:rgb(0%,0%,0%);fill-opacity:1;" d="M 6.777344 4.800781 C 7.46875 4.800781 7.46875 3.726562 6.777344 3.726562 C 6.082031 3.726562 6.082031 4.800781 6.777344 4.800781 Z M 6.777344 4.800781 "/>
<path style=" stroke:none;fill-rule:nonzero;fill:rgb(0%,0%,0%);fill-opacity:1;" d="M 1.636719 3.265625 C 2.328125 3.265625 2.328125 2.191406 1.636719 2.191406 C 0.941406 2.191406 0.941406 3.265625 1.636719 3.265625 Z M 1.636719 3.265625 "/>
<path style=" stroke:none;fill-rule:nonzero;fill:rgb(0%,0%,0%);fill-opacity:1;" d="M 16.058594 0.8125 C 15.367188 0.8125 15.367188 1.886719 16.058594 1.886719 C 16.75 1.886719 16.75 0.8125 16.058594 0.8125 Z M 16.058594 0.8125 "/>
<path style=" stroke:none;fill-rule:nonzero;fill:rgb(0%,0%,0%);fill-opacity:1;" d="M 15.0625 4.648438 C 15.753906 4.648438 15.753906 3.574219 15.0625 3.574219 C 14.367188 3.574219 14.367188 4.648438 15.0625 4.648438 Z M 15.0625 4.648438 "/>
<path style=" stroke:none;fill-rule:nonzero;fill:rgb(0%,0%,0%);fill-opacity:1;" d="M 20.96875 3.035156 C 21.660156 3.035156 21.660156 1.960938 20.96875 1.960938 C 20.277344 1.960938 20.277344 3.035156 20.96875 3.035156 Z M 20.96875 3.035156 "/>
<path style=" stroke:none;fill-rule:nonzero;fill:rgb(0%,0%,0%);fill-opacity:1;" d="M 27.105469 3.113281 C 26.414062 3.113281 26.414062 4.1875 27.105469 4.1875 C 27.800781 4.1875 27.800781 3.113281 27.105469 3.113281 Z M 27.105469 3.113281 "/>
<path style=" stroke:none;fill-rule:nonzero;fill:rgb(0%,0%,0%);fill-opacity:1;" d="M 16.882812 15.914062 L 18.828125 12.960938 C 18.917969 12.824219 18.964844 12.667969 18.964844 12.503906 L 18.964844 6.625 C 18.964844 6.601562 18.960938 6.582031 18.960938 6.5625 C 18.929688 6.128906 18.570312 5.789062 18.128906 5.789062 C 17.671875 5.789062 17.296875 6.164062 17.296875 6.625 L 17.296875 12.253906 L 16.890625 12.867188 L 16.003906 14.21875 L 12.679688 14.21875 L 11.289062 12.75 L 11.566406 11.597656 L 11.671875 11.144531 C 11.671875 11.144531 11.671875 11.144531 11.675781 11.140625 C 11.679688 11.121094 11.683594 11.097656 11.6875 11.074219 C 11.6875 11.066406 11.6875 11.054688 11.691406 11.042969 C 11.699219 10.949219 11.695312 10.851562 11.671875 10.761719 C 11.652344 10.679688 11.621094 10.597656 11.578125 10.523438 C 11.464844 10.335938 11.28125 10.195312 11.058594 10.140625 C 11.050781 10.140625 11.046875 10.140625 11.039062 10.136719 C 10.980469 10.125 10.921875 10.117188 10.859375 10.117188 C 10.859375 10.117188 10.855469 10.117188 10.851562 10.117188 C 10.480469 10.121094 10.144531 10.378906 10.050781 10.757812 L 10.015625 10.902344 L 9.960938 11.128906 L 9.5625 12.796875 C 9.496094 13.074219 9.574219 13.359375 9.769531 13.566406 L 10.921875 14.785156 L 11.316406 15.203125 L 12.496094 16.445312 L 12.496094 19.289062 L 12.386719 19.421875 L 11.472656 20.539062 L 9.726562 22.671875 C 9.449219 23.015625 9.484375 23.515625 9.808594 23.8125 L 11.929688 25.773438 C 12.089844 25.921875 12.292969 25.996094 12.496094 25.996094 C 12.71875 25.996094 12.945312 25.90625 13.109375 25.726562 C 13.421875 25.386719 13.398438 24.863281 13.0625 24.550781 L 11.515625 23.121094 L 12.917969 21.40625 L 14.929688 21.40625 L 14.929688 27.121094 C 14.929688 27.582031 15.300781 27.957031 15.761719 27.957031 C 16.222656 27.957031 16.597656 27.582031 16.597656 27.121094 L 16.597656 20.179688 C 16.597656 20.125 16.589844 20.066406 16.578125 20.015625 L 16.578125 16.371094 Z M 16.882812 15.914062 "/>
<path style=" stroke:none;fill-rule:nonzero;fill:rgb(0%,0%,0%);fill-opacity:1;" d="M 12.496094 11.789062 C 12.621094 12.324219 12.96875 12.769531 13.4375 13.027344 C 13.609375 13.121094 13.796875 13.191406 13.992188 13.226562 C 14.113281 13.25 14.234375 13.265625 14.363281 13.265625 C 15.117188 13.265625 15.769531 12.828125 16.082031 12.195312 C 16.15625 12.046875 16.210938 11.890625 16.246094 11.722656 C 16.269531 11.597656 16.285156 11.472656 16.285156 11.339844 C 16.285156 11.191406 16.265625 11.046875 16.230469 10.90625 C 16.128906 10.46875 15.882812 10.089844 15.539062 9.824219 C 15.476562 9.777344 15.414062 9.734375 15.347656 9.695312 C 15.230469 9.625 15.105469 9.566406 14.976562 9.523438 C 14.8125 9.46875 14.640625 9.433594 14.460938 9.425781 C 14.425781 9.421875 14.394531 9.417969 14.363281 9.417969 C 14.082031 9.417969 13.816406 9.480469 13.578125 9.589844 C 13.496094 9.625 13.417969 9.667969 13.34375 9.714844 C 12.859375 10.019531 12.515625 10.535156 12.453125 11.132812 C 12.449219 11.144531 12.449219 11.15625 12.449219 11.164062 C 12.445312 11.21875 12.441406 11.269531 12.441406 11.324219 C 12.441406 11.328125 12.441406 11.335938 12.441406 11.339844 C 12.441406 11.402344 12.445312 11.464844 12.449219 11.527344 C 12.457031 11.617188 12.472656 11.703125 12.496094 11.789062 Z M 12.496094 11.789062 "/>
</g>
</svg>
