<?xml version="1.0" encoding="UTF-8"?>
<svg xmlns="http://www.w3.org/2000/svg" xmlns:xlink="http://www.w3.org/1999/xlink" width="28pt" height="28pt" viewBox="0 0 28 28" version="1.1">
<g id="surface1">
<path style=" stroke:none;fill-rule:nonzero;fill:rgb(0%,0%,0%);fill-opacity:1;" d="M 16.101562 4.535156 C 16.101562 5.941406 14.964844 7.078125 13.558594 7.078125 C 12.15625 7.078125 11.015625 5.941406 11.015625 4.535156 C 11.015625 3.132812 12.15625 1.992188 13.558594 1.992188 C 14.964844 1.992188 16.101562 3.132812 16.101562 4.535156 Z M 16.101562 4.535156 "/>
<path style=" stroke:none;fill-rule:nonzero;fill:rgb(0%,0%,0%);fill-opacity:1;" d="M 23.34375 20.386719 C 19.570312 15.65625 19.84375 15.980469 19.671875 15.839844 L 17.929688 8.746094 L 22.933594 1.953125 C 23.332031 1.410156 23.21875 0.640625 22.671875 0.238281 C 22.125 -0.164062 21.359375 -0.046875 20.957031 0.5 L 15.898438 7.367188 C 15.824219 7.378906 12.8125 8.113281 12.636719 8.179688 L 6.433594 1.871094 C 5.960938 1.386719 5.183594 1.378906 4.699219 1.855469 C 4.21875 2.328125 4.210938 3.105469 4.683594 3.589844 L 11.730469 10.761719 L 12.652344 14.519531 L 13.679688 18.683594 L 13.109375 20.695312 L 8.152344 19.816406 C 7.351562 19.675781 6.585938 20.210938 6.445312 21.011719 C 6.304688 21.8125 6.839844 22.574219 7.640625 22.71875 C 14.402344 23.914062 13.980469 23.851562 14.167969 23.851562 C 14.8125 23.851562 15.402344 23.421875 15.582031 22.777344 C 16.988281 17.800781 16.898438 18.144531 16.921875 17.957031 L 17.527344 17.808594 C 17.589844 17.898438 17.335938 17.578125 20.28125 21.269531 L 16.582031 25.566406 C 16.050781 26.183594 16.121094 27.113281 16.738281 27.644531 C 17.351562 28.171875 18.28125 28.105469 18.8125 27.488281 L 23.308594 22.265625 C 23.773438 21.730469 23.785156 20.9375 23.34375 20.386719 Z M 23.34375 20.386719 "/>
</g>
</svg>
