<?xml version="1.0" encoding="UTF-8"?>
<svg xmlns="http://www.w3.org/2000/svg" xmlns:xlink="http://www.w3.org/1999/xlink" width="28pt" height="28pt" viewBox="0 0 28 28" version="1.1">
<g id="surface1">
<path style=" stroke:none;fill-rule:nonzero;fill:rgb(0%,0%,0%);fill-opacity:1;" d="M 10.519531 20.117188 C 10.207031 18.734375 11.027344 17.332031 12.386719 16.925781 L 15.308594 16.054688 C 15.078125 15.703125 14.859375 15.339844 14.679688 14.972656 C 13.886719 14.707031 13.191406 13.976562 12.847656 12.988281 C 12.785156 12.816406 12.738281 12.636719 12.707031 12.460938 L 11.382812 12.066406 C 10.453125 13.203125 9.25 13.996094 7.851562 13.996094 C 6.449219 13.996094 5.25 13.203125 4.316406 12.066406 L 1.164062 13.007812 C 0.511719 13.203125 0.0625 13.804688 0.0625 14.488281 L 0.0625 15.773438 C 0.0625 20.074219 3.546875 23.5625 7.851562 23.5625 C 9.039062 23.5625 10.164062 23.285156 11.175781 22.808594 C 11.085938 22.542969 11.011719 22.273438 10.945312 21.996094 Z M 10.519531 20.117188 "/>
<path style=" stroke:none;fill-rule:nonzero;fill:rgb(0%,0%,0%);fill-opacity:1;" d="M 26.699219 17.851562 L 23.4375 16.882812 C 22.453125 18.0625 21.175781 18.945312 19.679688 18.945312 C 18.183594 18.945312 16.90625 18.0625 15.921875 16.882812 L 12.660156 17.851562 C 11.785156 18.113281 11.261719 19.011719 11.464844 19.902344 L 11.890625 21.78125 C 12.714844 25.417969 15.949219 28 19.679688 28 C 23.410156 28 26.644531 25.417969 27.46875 21.78125 L 27.894531 19.902344 C 28.097656 19.011719 27.574219 18.113281 26.699219 17.851562 Z M 26.699219 17.851562 "/>
<path style=" stroke:none;fill-rule:nonzero;fill:rgb(0%,0%,0%);fill-opacity:1;" d="M 2.960938 8.867188 C 3.257812 9.242188 3.640625 9.46875 4.003906 9.460938 C 4.824219 11.347656 6.273438 12.964844 7.925781 12.964844 C 9.582031 12.964844 11.027344 11.347656 11.851562 9.460938 C 12.214844 9.46875 12.59375 9.242188 12.894531 8.867188 C 13.050781 8.667969 13.1875 8.429688 13.285156 8.15625 C 13.460938 7.648438 13.460938 7.140625 13.320312 6.753906 C 13.210938 6.449219 13.015625 6.214844 12.746094 6.121094 C 12.703125 6.132812 12.65625 6.152344 12.609375 6.152344 C 12.59375 6.15625 12.582031 6.15625 12.566406 6.15625 C 12.476562 6.15625 12.398438 6.128906 12.320312 6.09375 C 12.175781 6.023438 12.058594 5.898438 12.007812 5.734375 C 11.996094 5.699219 11.703125 4.78125 9.960938 4.78125 C 9.796875 4.78125 9.617188 4.789062 9.433594 4.808594 C 9.433594 4.808594 9.25 4.824219 8.96875 4.824219 C 8.042969 4.824219 6.792969 4.664062 6.105469 3.902344 C 5.960938 3.738281 5.851562 3.558594 5.773438 3.359375 C 5.128906 3.769531 4.207031 4.542969 3.851562 5.753906 C 3.804688 5.910156 3.699219 6.023438 3.566406 6.09375 C 3.484375 6.140625 3.390625 6.171875 3.292969 6.171875 C 3.273438 6.171875 3.25 6.167969 3.226562 6.167969 C 3.179688 6.160156 3.136719 6.144531 3.09375 6.125 C 2.832031 6.222656 2.644531 6.453125 2.535156 6.753906 C 2.394531 7.140625 2.390625 7.648438 2.570312 8.15625 C 2.664062 8.429688 2.800781 8.667969 2.960938 8.867188 Z M 2.960938 8.867188 "/>
<path style=" stroke:none;fill-rule:nonzero;fill:rgb(0%,0%,0%);fill-opacity:1;" d="M 6.234375 2.464844 C 6.058594 4.070312 8.074219 4.246094 8.96875 4.246094 C 9.21875 4.246094 9.382812 4.230469 9.382812 4.230469 C 9.589844 4.210938 9.78125 4.203125 9.960938 4.203125 C 12.226562 4.203125 12.566406 5.585938 12.566406 5.585938 L 12.707031 4.546875 C 13 2.359375 11.480469 0.34375 9.300781 0.0273438 C 9.171875 0.0078125 9.042969 0 8.917969 0 C 8.1875 0 7.484375 0.300781 6.980469 0.839844 L 6.941406 0.882812 C 6.605469 0.726562 6.246094 0.652344 5.890625 0.652344 C 5.378906 0.652344 4.871094 0.808594 4.4375 1.113281 C 3.613281 1.695312 3.148438 2.65625 3.199219 3.664062 L 3.292969 5.59375 C 3.953125 3.351562 6.234375 2.464844 6.234375 2.464844 Z M 6.234375 2.464844 "/>
<path style=" stroke:none;fill-rule:nonzero;fill:rgb(0%,0%,0%);fill-opacity:1;" d="M 25.675781 11.066406 C 25.554688 10.71875 25.351562 10.386719 25.03125 10.34375 C 24.960938 10.332031 24.878906 10.355469 24.824219 10.355469 C 24.742188 10.355469 24.558594 10.257812 24.511719 10.222656 C 23.445312 9.417969 21.648438 8.878906 19.734375 8.878906 C 17.816406 8.878906 16.023438 9.417969 14.957031 10.222656 C 14.910156 10.257812 14.722656 10.355469 14.644531 10.355469 C 14.589844 10.355469 14.507812 10.332031 14.4375 10.34375 C 14.117188 10.386719 13.914062 10.71875 13.792969 11.066406 C 13.644531 11.492188 13.644531 12.042969 13.839844 12.597656 C 13.941406 12.890625 14.085938 13.148438 14.253906 13.363281 C 14.589844 13.792969 15.015625 14.050781 15.425781 14.042969 C 16.324219 16.105469 17.925781 17.90625 19.734375 17.90625 C 21.542969 17.90625 23.140625 16.105469 24.042969 14.042969 C 24.449219 14.050781 24.878906 13.792969 25.210938 13.363281 C 25.382812 13.148438 25.527344 12.890625 25.628906 12.597656 C 25.824219 12.042969 25.824219 11.492188 25.675781 11.066406 Z M 25.675781 11.066406 "/>
<path style=" stroke:none;fill-rule:nonzero;fill:rgb(0%,0%,0%);fill-opacity:1;" d="M 16.132812 8.878906 L 16.351562 6.933594 L 16.726562 8.6875 C 17.628906 8.425781 18.664062 8.277344 19.769531 8.277344 C 20.355469 8.277344 20.921875 8.320312 21.460938 8.402344 L 21.984375 5.828125 L 22.183594 8.53125 C 23.316406 8.777344 24.28125 9.1875 24.96875 9.707031 C 25.050781 9.335938 25.097656 8.953125 25.097656 8.558594 C 25.097656 6.683594 24.125 5.035156 22.660156 4.085938 C 22.664062 4.027344 22.679688 3.972656 22.679688 3.910156 C 22.679688 3.695312 22.636719 3.488281 22.574219 3.285156 C 22.253906 2.234375 21.144531 1.453125 19.816406 1.453125 C 18.511719 1.453125 17.421875 2.207031 17.078125 3.230469 C 17.003906 3.449219 16.953125 3.675781 16.953125 3.910156 C 16.953125 3.953125 16.964844 3.992188 16.964844 4.03125 C 15.453125 4.972656 14.441406 6.644531 14.441406 8.558594 C 14.441406 8.953125 14.484375 9.335938 14.566406 9.707031 C 14.992188 9.382812 15.523438 9.105469 16.132812 8.878906 Z M 16.132812 8.878906 "/>
</g>
</svg>
