<?xml version="1.0" encoding="UTF-8"?>
<svg xmlns="http://www.w3.org/2000/svg" xmlns:xlink="http://www.w3.org/1999/xlink" width="14pt" height="14pt" viewBox="0 0 14 14" version="1.1">
<g id="surface1">
<path style=" stroke:none;fill-rule:nonzero;fill:rgb(0%,0%,0%);fill-opacity:1;" d="M 7.34375 5.289062 C 7.242188 5.003906 6.921875 4.859375 6.640625 4.960938 L 4.851562 5.609375 L 3.382812 4.523438 L 4.855469 5.101562 L 4.859375 4.996094 C 4.878906 4.554688 4.539062 4.171875 4.09375 4.140625 L 2.703125 4.039062 C 2.476562 4.023438 2.25 4.101562 2.085938 4.257812 C 1.917969 4.414062 1.824219 4.636719 1.828125 4.867188 L 1.859375 8.863281 L 1.46875 8.863281 L 0.875 4.195312 C 0.84375 3.953125 0.625 3.78125 0.382812 3.8125 C 0.144531 3.84375 -0.0273438 4.0625 0.00390625 4.304688 L 0.640625 9.359375 C 0.671875 9.578125 0.859375 9.742188 1.078125 9.742188 L 2.667969 9.742188 L 2.667969 11.546875 L 1.625 12.398438 C 1.492188 12.503906 1.476562 12.695312 1.578125 12.824219 C 1.6875 12.953125 1.875 12.976562 2.007812 12.867188 L 2.667969 12.328125 L 2.667969 12.632812 C 2.667969 12.800781 2.804688 12.9375 2.972656 12.9375 C 3.140625 12.9375 3.273438 12.800781 3.273438 12.632812 L 3.273438 12.328125 L 3.9375 12.867188 C 4.066406 12.976562 4.257812 12.953125 4.363281 12.824219 C 4.46875 12.695312 4.449219 12.503906 4.320312 12.398438 L 3.273438 11.546875 L 3.273438 9.742188 L 4.726562 9.742188 C 4.945312 9.742188 5.125 9.582031 5.15625 9.371094 L 5.265625 9.398438 L 5.640625 12.359375 C 5.6875 12.722656 6.019531 12.976562 6.382812 12.929688 C 6.742188 12.882812 7 12.554688 6.953125 12.195312 L 6.515625 8.789062 C 6.484375 8.519531 6.289062 8.300781 6.027344 8.234375 L 4.652344 7.878906 L 4.6875 7.40625 C 4.457031 7.414062 4.234375 7.308594 4.09375 7.128906 L 2.726562 5.40625 L 4.433594 6.667969 C 4.578125 6.773438 4.773438 6.804688 4.945312 6.742188 L 7.015625 5.992188 C 7.296875 5.890625 7.445312 5.578125 7.34375 5.289062 Z M 7.34375 5.289062 "/>
<path style=" stroke:none;fill-rule:nonzero;fill:rgb(0%,0%,0%);fill-opacity:1;" d="M 4.898438 2.277344 C 4.898438 2.945312 4.355469 3.492188 3.6875 3.492188 C 3.015625 3.492188 2.472656 2.945312 2.472656 2.277344 C 2.472656 1.609375 3.015625 1.0625 3.6875 1.0625 C 4.355469 1.0625 4.898438 1.609375 4.898438 2.277344 Z M 4.898438 2.277344 "/>
<path style=" stroke:none;fill-rule:nonzero;fill:rgb(0%,0%,0%);fill-opacity:1;" d="M 13.546875 7.105469 L 7.382812 7.105469 C 7.132812 7.105469 6.929688 7.3125 6.929688 7.5625 C 6.929688 7.8125 7.132812 8.015625 7.382812 8.015625 L 7.445312 8.015625 L 7.445312 12.632812 C 7.445312 12.800781 7.582031 12.9375 7.75 12.9375 C 7.914062 12.9375 8.054688 12.800781 8.054688 12.632812 L 8.054688 8.015625 L 12.90625 8.015625 L 12.90625 12.632812 C 12.90625 12.800781 13.042969 12.9375 13.210938 12.9375 C 13.378906 12.9375 13.515625 12.800781 13.515625 12.632812 L 13.515625 8.015625 C 13.828125 8.015625 14 7.789062 14 7.5625 C 14 7.3125 13.796875 7.105469 13.546875 7.105469 Z M 13.546875 7.105469 "/>
<path style=" stroke:none;fill-rule:nonzero;fill:rgb(0%,0%,0%);fill-opacity:1;" d="M 10.59375 4.378906 C 10.449219 4.296875 10.265625 4.351562 10.183594 4.5 L 9.269531 6.167969 C 9.097656 6.167969 7.832031 6.167969 7.625 6.167969 C 7.453125 6.167969 7.320312 6.304688 7.320312 6.472656 C 7.320312 6.476562 7.320312 6.480469 7.320312 6.484375 C 7.328125 6.648438 7.460938 6.773438 7.625 6.773438 L 9.449219 6.773438 C 9.558594 6.773438 9.664062 6.714844 9.714844 6.617188 L 10.71875 4.789062 C 10.796875 4.640625 10.742188 4.460938 10.59375 4.378906 Z M 10.59375 4.378906 "/>
</g>
</svg>
