<?xml version="1.0" encoding="UTF-8"?>
<svg xmlns="http://www.w3.org/2000/svg" xmlns:xlink="http://www.w3.org/1999/xlink" width="28pt" height="28pt" viewBox="0 0 28 28" version="1.1">
<g id="surface1">
<path style=" stroke:none;fill-rule:nonzero;fill:rgb(0.392157%,0%,0.784314%);fill-opacity:1;" d="M 27.863281 16.402344 C 27.238281 15.179688 26.613281 13.957031 25.984375 12.730469 C 25.953125 13.710938 25.417969 14.566406 24.628906 15.046875 C 24.765625 15.3125 24.90625 15.582031 25.042969 15.851562 C 23.835938 15.851562 22.628906 15.851562 21.421875 15.851562 C 21.449219 15.328125 21.328125 14.796875 21.058594 14.359375 C 21.03125 14.277344 20.996094 14.195312 20.945312 14.113281 C 19.429688 11.539062 16.621094 11.265625 13.9375 10.816406 C 12.507812 10.578125 11.898438 12.761719 13.335938 13 C 14 13.113281 14.738281 13.1875 15.460938 13.3125 L 10.078125 13.316406 C 9.375 12.683594 8.671875 12.046875 7.96875 11.414062 C 7.535156 11.023438 6.789062 10.933594 6.367188 11.414062 C 5.265625 12.671875 4.164062 13.929688 3.0625 15.1875 C 2.882812 15.394531 2.792969 15.621094 2.773438 15.839844 C 2.214844 15.839844 1.65625 15.839844 1.097656 15.839844 C -0.363281 15.839844 -0.363281 18.105469 1.097656 18.105469 C 3.964844 18.105469 6.835938 18.105469 9.707031 18.105469 L 9.707031 18.117188 L 19.082031 18.121094 C 19.136719 18.121094 19.191406 18.117188 19.246094 18.117188 C 21.753906 18.117188 24.261719 18.117188 26.769531 18.117188 C 26.785156 18.117188 26.800781 18.117188 26.816406 18.117188 C 26.839844 18.117188 26.859375 18.117188 26.878906 18.117188 C 27.453125 18.117188 27.800781 17.765625 27.921875 17.339844 C 28.03125 17.0625 28.039062 16.738281 27.863281 16.402344 Z M 5.496094 15.839844 C 6.085938 15.167969 6.671875 14.496094 7.261719 13.824219 C 7.9375 14.433594 8.613281 15.046875 9.292969 15.65625 C 9.378906 15.738281 9.472656 15.792969 9.566406 15.839844 C 8.210938 15.839844 6.851562 15.839844 5.496094 15.839844 Z M 5.496094 15.839844 "/>
<path style=" stroke:none;fill-rule:nonzero;fill:rgb(0.392157%,0%,0.784314%);fill-opacity:1;" d="M 25.558594 12.285156 C 25.558594 13.613281 24.480469 14.691406 23.152344 14.691406 C 21.820312 14.691406 20.746094 13.613281 20.746094 12.285156 C 20.746094 10.953125 21.820312 9.878906 23.152344 9.878906 C 24.480469 9.878906 25.558594 10.953125 25.558594 12.285156 Z M 25.558594 12.285156 "/>
</g>
</svg>
