<?xml version="1.0" encoding="UTF-8"?>
<svg xmlns="http://www.w3.org/2000/svg" xmlns:xlink="http://www.w3.org/1999/xlink" width="28pt" height="28pt" viewBox="0 0 28 28" version="1.1">
<g id="surface1">
<path style=" stroke:none;fill-rule:nonzero;fill:rgb(0%,0%,0%);fill-opacity:1;" d="M 13.242188 1.957031 C 13.242188 3.039062 12.367188 3.914062 11.285156 3.914062 C 10.203125 3.914062 9.328125 3.039062 9.328125 1.957031 C 9.328125 0.875 10.203125 0 11.285156 0 C 12.367188 0 13.242188 0.875 13.242188 1.957031 Z M 13.242188 1.957031 "/>
<path style=" stroke:none;fill-rule:nonzero;fill:rgb(0%,0%,0%);fill-opacity:1;" d="M 26.097656 25.683594 C 25.78125 26 25.359375 26.175781 24.90625 26.175781 C 24.457031 26.175781 24.035156 26 23.714844 25.683594 C 23.050781 25.019531 22.171875 24.65625 21.234375 24.65625 C 20.296875 24.65625 19.414062 25.019531 18.753906 25.683594 C 18.433594 26 18.011719 26.175781 17.5625 26.175781 C 17.109375 26.175781 16.6875 26 16.367188 25.683594 C 15.707031 25.019531 14.824219 24.65625 13.886719 24.65625 C 12.949219 24.65625 12.070312 25.019531 11.40625 25.683594 C 11.089844 26 10.664062 26.175781 10.214844 26.175781 C 9.765625 26.175781 9.339844 26 9.023438 25.683594 C 8.667969 25.328125 8.089844 25.328125 7.734375 25.683594 C 7.378906 26.039062 7.378906 26.617188 7.734375 26.972656 C 9.101562 28.339844 11.328125 28.339844 12.695312 26.972656 C 13.015625 26.652344 13.4375 26.480469 13.886719 26.480469 C 14.339844 26.480469 14.761719 26.652344 15.078125 26.972656 C 15.742188 27.636719 16.625 28 17.5625 28 C 18.5 28 19.378906 27.636719 20.042969 26.972656 C 20.359375 26.652344 20.785156 26.480469 21.234375 26.480469 C 21.683594 26.480469 22.109375 26.652344 22.425781 26.972656 C 23.089844 27.636719 23.96875 28 24.90625 28 C 25.84375 28 26.726562 27.636719 27.386719 26.972656 C 27.746094 26.617188 27.746094 26.039062 27.386719 25.683594 C 27.03125 25.328125 26.457031 25.328125 26.097656 25.683594 Z M 26.097656 25.683594 "/>
<path style=" stroke:none;fill-rule:nonzero;fill:rgb(0%,0%,0%);fill-opacity:1;" d="M 11.40625 21.855469 C 11.089844 22.171875 10.664062 22.347656 10.214844 22.347656 C 9.765625 22.347656 9.339844 22.171875 9.023438 21.855469 C 8.667969 21.5 8.089844 21.5 7.734375 21.855469 C 7.378906 22.210938 7.378906 22.789062 7.734375 23.144531 C 9.101562 24.511719 11.328125 24.511719 12.695312 23.144531 C 13.015625 22.824219 13.4375 22.648438 13.886719 22.648438 C 14.339844 22.648438 14.761719 22.824219 15.078125 23.144531 C 15.742188 23.808594 16.625 24.171875 17.5625 24.171875 C 18.5 24.171875 19.378906 23.808594 20.042969 23.144531 C 20.359375 22.824219 20.785156 22.648438 21.234375 22.648438 C 21.683594 22.648438 22.109375 22.824219 22.425781 23.144531 C 23.089844 23.808594 23.96875 24.171875 24.90625 24.171875 C 25.84375 24.171875 26.726562 23.808594 27.386719 23.144531 C 27.746094 22.789062 27.746094 22.210938 27.386719 21.855469 C 27.03125 21.5 26.457031 21.5 26.097656 21.855469 C 25.78125 22.171875 25.359375 22.347656 24.90625 22.347656 C 24.457031 22.347656 24.035156 22.171875 23.714844 21.855469 C 23.050781 21.191406 22.171875 20.828125 21.234375 20.828125 C 20.296875 20.828125 19.414062 21.191406 18.753906 21.855469 C 18.433594 22.171875 18.011719 22.347656 17.5625 22.347656 C 17.109375 22.347656 16.6875 22.171875 16.367188 21.855469 C 15.707031 21.191406 14.824219 20.828125 13.886719 20.828125 C 12.949219 20.828125 12.070312 21.191406 11.40625 21.855469 Z M 11.40625 21.855469 "/>
<path style=" stroke:none;fill-rule:nonzero;fill:rgb(0%,0%,0%);fill-opacity:1;" d="M 4.972656 20.804688 L 2.167969 20.804688 L 2.167969 18.339844 L 8.0625 18.339844 C 8.566406 18.339844 8.972656 17.929688 8.972656 17.425781 C 8.972656 16.921875 8.566406 16.515625 8.0625 16.515625 L 5.246094 16.515625 C 5.269531 16.496094 5.289062 16.476562 5.308594 16.457031 L 8.832031 12.746094 C 9.046875 12.523438 9.152344 12.21875 9.121094 11.910156 C 9.089844 11.605469 8.929688 11.324219 8.679688 11.148438 L 6.492188 9.589844 L 8.125 7.621094 L 7.296875 5.476562 L 9.488281 8.644531 C 9.671875 8.910156 9.984375 9.050781 10.304688 9.023438 L 14.078125 8.660156 C 14.566406 8.613281 14.921875 8.179688 14.875 7.691406 C 14.828125 7.203125 14.394531 6.847656 13.910156 6.894531 L 10.652344 7.207031 L 8.535156 4.152344 L 9.882812 5.410156 C 10.097656 4.890625 9.960938 4.269531 9.503906 3.890625 C 8.773438 3.285156 7.824219 3.011719 6.882812 3.136719 C 5.945312 3.261719 5.097656 3.773438 4.550781 4.550781 L 2.929688 6.851562 C 2.523438 7.425781 2.394531 8.148438 2.585938 8.824219 C 2.835938 9.703125 3.082031 9.742188 3.828125 10.308594 L 6.445312 12.171875 L 3.765625 14.992188 C 3.359375 15.417969 3.378906 16.089844 3.804688 16.496094 C 3.8125 16.503906 3.820312 16.507812 3.828125 16.515625 L 1.257812 16.515625 C 0.753906 16.515625 0.34375 16.921875 0.34375 17.425781 C 0.34375 18.496094 0.34375 26.40625 0.34375 27.523438 C 0.34375 27.789062 0.558594 28 0.820312 28 L 4.972656 28 C 5.238281 28 5.449219 27.789062 5.449219 27.523438 L 5.449219 21.277344 C 5.449219 21.015625 5.234375 20.804688 4.972656 20.804688 Z M 4.972656 20.804688 "/>
</g>
</svg>
