<?xml version="1.0" encoding="UTF-8"?>
<svg xmlns="http://www.w3.org/2000/svg" xmlns:xlink="http://www.w3.org/1999/xlink" width="28pt" height="28pt" viewBox="0 0 28 28" version="1.1">
<g id="surface1">
<path style=" stroke:none;fill-rule:nonzero;fill:rgb(0.392157%,0%,0.784314%);fill-opacity:1;" d="M 10.363281 11.472656 C 10.277344 11.476562 9.988281 11.722656 9.988281 11.722656 C 10.144531 11.792969 10.453125 11.464844 10.363281 11.472656 Z M 10.402344 11.421875 L 10.378906 11.433594 C 10.386719 11.429688 10.394531 11.429688 10.402344 11.425781 C 10.402344 11.421875 10.402344 11.421875 10.402344 11.421875 Z M 21.03125 0.375 C 22.628906 0.375 23.914062 1.667969 23.914062 3.261719 C 23.914062 4.855469 22.628906 6.144531 21.03125 6.144531 C 19.441406 6.144531 18.148438 4.855469 18.148438 3.261719 C 18.148438 1.667969 19.441406 0.375 21.03125 0.375 Z M 3.726562 12.738281 L 4.496094 12.738281 L 4.496094 12.367188 L 3.726562 12.367188 C 3.511719 12.367188 3.359375 12.324219 3.308594 12.25 C 3.265625 12.199219 3.285156 12.125 3.285156 12.125 L 3.292969 9.882812 L 2.921875 9.882812 L 2.921875 12.046875 C 2.90625 12.121094 2.882812 12.300781 3.007812 12.46875 C 3.136719 12.644531 3.378906 12.738281 3.726562 12.738281 Z M 28.144531 18.007812 L 28.039062 17.160156 C 27.625 13.835938 27.609375 13.710938 27.769531 7.859375 C 27.777344 7.652344 27.613281 7.480469 27.410156 7.476562 C 27.214844 7.460938 27.03125 7.632812 27.027344 7.839844 C 26.863281 13.742188 26.882812 13.878906 27.300781 17.25 L 27.410156 18.101562 C 27.515625 18.917969 27.417969 19.480469 27.140625 19.699219 C 26.820312 19.945312 26.253906 19.726562 26.214844 19.710938 C 23.484375 18.871094 20.082031 20.605469 19.9375 20.679688 C 19.753906 20.769531 19.683594 20.992188 19.777344 21.175781 C 19.847656 21.304688 19.976562 21.378906 20.109375 21.378906 C 20.167969 21.378906 20.222656 21.367188 20.28125 21.335938 C 20.300781 21.324219 21.820312 20.554688 23.546875 20.296875 L 23.546875 26.074219 L 22 26.074219 C 21.6875 26.074219 21.433594 26.328125 21.433594 26.644531 C 21.433594 26.957031 21.6875 27.214844 22 27.214844 L 26.382812 27.214844 C 26.699219 27.214844 26.953125 26.957031 26.953125 26.644531 C 26.953125 26.328125 26.699219 26.074219 26.382812 26.074219 L 24.960938 26.074219 L 24.960938 20.230469 C 25.304688 20.253906 25.640625 20.304688 25.964844 20.410156 C 26.007812 20.425781 26.925781 20.800781 27.59375 20.289062 C 28.105469 19.894531 28.292969 19.125 28.144531 18.007812 Z M 26.378906 16.324219 C 26.316406 13.878906 25.515625 11.539062 25.453125 9.105469 C 25.363281 5.5625 19.929688 5.484375 19.890625 8.941406 C 17.8125 9.292969 15.734375 9.480469 13.621094 9.378906 C 11.707031 9.289062 11.699219 12.257812 13.605469 12.351562 C 15.820312 12.453125 18.023438 12.242188 20.207031 11.882812 C 20.433594 13.183594 20.699219 14.476562 20.78125 15.792969 C 16.261719 17.371094 13.757812 21.195312 13.117188 26.054688 C 13.113281 26.089844 13.113281 26.125 13.109375 26.164062 L 13.109375 15.394531 L 15.957031 15.394531 L 15.957031 12.851562 L 5.738281 12.851562 C 5.742188 12.820312 5.746094 12.785156 5.746094 12.738281 C 5.75 12.707031 5.75 12.675781 5.753906 12.644531 C 5.765625 12.425781 5.804688 12.355469 6.011719 12.3125 C 6.066406 12.304688 6.132812 12.300781 6.203125 12.300781 L 6.203125 12.480469 L 8.945312 12.480469 C 9.023438 12.496094 9.101562 12.507812 9.179688 12.507812 C 9.292969 12.507812 9.390625 12.480469 9.453125 12.398438 C 9.484375 12.363281 9.484375 12.304688 9.480469 12.246094 C 9.480469 12.195312 9.480469 12.140625 9.503906 12.105469 C 9.546875 12.0625 9.625 12.027344 9.675781 12.023438 C 9.621094 12.132812 9.585938 12.25 9.585938 12.371094 L 12.691406 12.371094 C 12.691406 11.777344 11.996094 11.289062 11.140625 11.289062 C 10.871094 11.289062 10.621094 11.34375 10.402344 11.425781 C 10.457031 11.9375 9.972656 11.886719 9.785156 11.847656 C 9.765625 11.878906 9.746094 11.90625 9.726562 11.9375 C 9.71875 11.933594 9.710938 11.929688 9.703125 11.929688 C 9.621094 11.925781 9.5 11.972656 9.4375 12.050781 C 9.386719 12.105469 9.390625 12.183594 9.390625 12.246094 C 9.390625 12.289062 9.390625 12.332031 9.378906 12.347656 C 9.347656 12.390625 9.28125 12.402344 9.207031 12.40625 L 9.207031 11.980469 L 6.203125 11.980469 L 6.203125 12.207031 C 6.121094 12.207031 6.046875 12.214844 5.996094 12.226562 C 5.730469 12.273438 5.675781 12.398438 5.664062 12.636719 C 5.660156 12.671875 5.660156 12.703125 5.660156 12.730469 C 5.65625 12.785156 5.65625 12.824219 5.648438 12.851562 L 0 12.851562 L 0 15.394531 L 1.554688 15.394531 L 1.554688 27.738281 L 13.109375 27.738281 L 13.109375 26.503906 C 13.296875 28.402344 16.542969 28.230469 16.828125 26.050781 C 17.320312 22.292969 19.515625 19.78125 23.203125 18.949219 C 24.738281 19.183594 26.433594 18.3125 26.378906 16.324219 Z M 4.191406 4.472656 L 4.660156 11.136719 L 3.425781 11.222656 L 2.957031 4.5625 Z M 4.191406 4.472656 "/>
</g>
</svg>
