<?xml version="1.0" encoding="UTF-8"?>
<svg xmlns="http://www.w3.org/2000/svg" xmlns:xlink="http://www.w3.org/1999/xlink" width="14pt" height="14pt" viewBox="0 0 14 14" version="1.1">
<g id="surface1">
<path style=" stroke:none;fill-rule:nonzero;fill:rgb(0%,0%,0%);fill-opacity:1;" d="M 14 5.960938 C 14 5.640625 13.742188 5.382812 13.425781 5.382812 L 12.246094 5.382812 C 12.144531 5.054688 12.007812 4.734375 11.851562 4.429688 L 12.6875 3.597656 C 12.792969 3.488281 12.851562 3.34375 12.851562 3.191406 C 12.851562 3.039062 12.792969 2.890625 12.6875 2.785156 L 11.210938 1.3125 C 10.992188 1.089844 10.625 1.089844 10.402344 1.3125 L 9.566406 2.148438 C 9.265625 1.992188 8.945312 1.855469 8.613281 1.753906 L 8.613281 0.574219 C 8.613281 0.257812 8.359375 0 8.039062 0 L 5.960938 0 C 5.640625 0 5.386719 0.257812 5.386719 0.574219 L 5.386719 1.753906 C 5.054688 1.855469 4.734375 1.992188 4.433594 2.148438 L 3.597656 1.3125 C 3.375 1.089844 3.007812 1.089844 2.785156 1.3125 L 1.3125 2.785156 C 1.09375 3.007812 1.09375 3.375 1.3125 3.597656 L 2.148438 4.429688 C 1.992188 4.734375 1.855469 5.054688 1.753906 5.382812 L 0.574219 5.382812 C 0.257812 5.382812 0 5.640625 0 5.960938 L 0 8.039062 C 0 8.359375 0.257812 8.613281 0.574219 8.613281 L 1.753906 8.613281 C 1.855469 8.945312 1.992188 9.265625 2.148438 9.566406 L 1.3125 10.402344 C 1.089844 10.625 1.089844 10.992188 1.3125 11.210938 L 2.785156 12.683594 C 3.007812 12.90625 3.375 12.90625 3.597656 12.683594 L 4.429688 11.851562 C 4.734375 12.007812 5.054688 12.144531 5.386719 12.246094 L 5.386719 13.425781 C 5.386719 13.742188 5.640625 14 5.960938 14 L 8.039062 14 C 8.359375 14 8.613281 13.742188 8.613281 13.425781 L 8.613281 12.246094 C 8.945312 12.144531 9.265625 12.007812 9.570312 11.851562 L 10.402344 12.6875 C 10.507812 12.792969 10.65625 12.851562 10.808594 12.851562 C 10.960938 12.851562 11.109375 12.792969 11.214844 12.6875 L 12.6875 11.214844 C 12.90625 10.992188 12.90625 10.625 12.6875 10.402344 L 11.851562 9.566406 C 12.007812 9.265625 12.144531 8.945312 12.246094 8.613281 L 13.425781 8.613281 C 13.578125 8.613281 13.726562 8.554688 13.832031 8.445312 C 13.9375 8.335938 14 8.191406 14 8.039062 Z M 7 10.640625 C 4.992188 10.640625 3.359375 9.007812 3.359375 7 C 3.359375 4.992188 4.992188 3.359375 7 3.359375 C 9.007812 3.359375 10.640625 4.992188 10.640625 7 C 10.640625 9.007812 9.007812 10.640625 7 10.640625 Z M 7 10.640625 "/>
<path style=" stroke:none;fill-rule:nonzero;fill:rgb(0%,0%,0%);fill-opacity:1;" d="M 7 4.289062 C 5.507812 4.289062 4.289062 5.507812 4.289062 7 C 4.289062 8.492188 5.507812 9.710938 7 9.710938 C 8.492188 9.710938 9.710938 8.492188 9.710938 7 C 9.710938 5.507812 8.492188 4.289062 7 4.289062 Z M 7 4.289062 "/>
</g>
</svg>
