<?xml version="1.0" encoding="UTF-8"?>
<svg xmlns="http://www.w3.org/2000/svg" xmlns:xlink="http://www.w3.org/1999/xlink" width="28pt" height="28pt" viewBox="0 0 28 28" version="1.1">
<g id="surface1">
<path style=" stroke:none;fill-rule:nonzero;fill:rgb(0%,0%,0%);fill-opacity:1;" d="M 5.136719 15.234375 L 3.320312 13.414062 C 2.480469 12.574219 2.480469 11.210938 3.320312 10.371094 L 5.136719 8.550781 C 5.542969 8.148438 6.082031 7.925781 6.660156 7.925781 C 7.234375 7.925781 7.773438 8.148438 8.179688 8.550781 L 8.96875 9.339844 C 9.058594 9.289062 9.15625 9.246094 9.253906 9.207031 L 11.664062 8.300781 C 11.90625 8.210938 12.160156 8.164062 12.417969 8.164062 C 13.308594 8.164062 14.121094 8.726562 14.433594 9.558594 L 15.339844 11.96875 C 15.542969 12.503906 15.523438 13.085938 15.285156 13.613281 C 15.046875 14.136719 14.621094 14.535156 14.082031 14.738281 L 12.238281 15.429688 L 20.3125 15.429688 L 19.175781 15.058594 C 18.632812 14.878906 18.1875 14.496094 17.929688 13.984375 C 17.667969 13.46875 17.625 12.886719 17.804688 12.34375 L 18.605469 9.898438 C 18.898438 9.015625 19.71875 8.417969 20.652344 8.417969 C 20.878906 8.417969 21.105469 8.457031 21.320312 8.527344 L 23.765625 9.328125 C 24.308594 9.507812 24.753906 9.890625 25.011719 10.402344 C 25.273438 10.917969 25.316406 11.5 25.136719 12.042969 L 24.335938 14.488281 C 24.210938 14.863281 23.992188 15.183594 23.714844 15.429688 L 26.1875 15.429688 L 26.1875 7.546875 C 26.1875 7.058594 25.785156 6.65625 25.292969 6.65625 L 2.707031 6.65625 C 2.214844 6.65625 1.8125 7.058594 1.8125 7.546875 L 1.8125 15.429688 L 5.367188 15.429688 C 5.285156 15.371094 5.210938 15.304688 5.136719 15.234375 Z M 5.136719 15.234375 "/>
<path style=" stroke:none;fill-rule:nonzero;fill:rgb(0%,0%,0%);fill-opacity:1;" d="M 26.507812 16.59375 L 1.492188 16.59375 C 0.667969 16.59375 0 17.261719 0 18.085938 L 0 18.628906 C 0 19.296875 0.441406 19.863281 1.050781 20.054688 C 1.011719 20.15625 0.992188 20.265625 0.992188 20.382812 C 0.992188 20.914062 1.421875 21.34375 1.953125 21.34375 L 3.476562 21.34375 C 4.007812 21.34375 4.441406 20.914062 4.441406 20.382812 C 4.441406 20.289062 4.425781 20.203125 4.402344 20.121094 L 23.597656 20.121094 C 23.574219 20.203125 23.558594 20.289062 23.558594 20.382812 C 23.558594 20.914062 23.992188 21.34375 24.523438 21.34375 L 26.046875 21.34375 C 26.578125 21.34375 27.007812 20.914062 27.007812 20.382812 C 27.007812 20.265625 26.988281 20.15625 26.949219 20.054688 C 27.558594 19.863281 28 19.296875 28 18.628906 L 28 18.085938 C 28 17.261719 27.332031 16.59375 26.507812 16.59375 Z M 26.507812 16.59375 "/>
<path style=" stroke:none;fill-rule:nonzero;fill:rgb(0%,0%,0%);fill-opacity:1;" d="M 23.402344 10.433594 L 20.957031 9.632812 C 20.859375 9.597656 20.757812 9.582031 20.652344 9.582031 C 20.222656 9.582031 19.84375 9.855469 19.710938 10.261719 L 18.90625 12.707031 C 18.738281 13.222656 19.019531 13.78125 19.539062 13.953125 L 21.984375 14.757812 C 22.082031 14.789062 22.183594 14.804688 22.289062 14.804688 C 22.71875 14.804688 23.097656 14.53125 23.230469 14.125 L 24.03125 11.679688 C 24.203125 11.164062 23.921875 10.605469 23.402344 10.433594 Z M 23.402344 10.433594 "/>
<path style=" stroke:none;fill-rule:nonzero;fill:rgb(0%,0%,0%);fill-opacity:1;" d="M 7.359375 9.375 C 7.171875 9.1875 6.925781 9.085938 6.660156 9.085938 C 6.394531 9.085938 6.144531 9.1875 5.960938 9.375 L 4.140625 11.195312 C 3.753906 11.578125 3.753906 12.207031 4.140625 12.589844 L 5.960938 14.410156 C 6.144531 14.597656 6.394531 14.699219 6.660156 14.699219 C 6.925781 14.699219 7.171875 14.597656 7.359375 14.410156 L 8.488281 13.28125 L 8 11.980469 C 7.765625 11.359375 7.839844 10.695312 8.144531 10.160156 Z M 7.359375 9.375 "/>
<path style=" stroke:none;fill-rule:nonzero;fill:rgb(0%,0%,0%);fill-opacity:1;" d="M 10.921875 14.617188 C 11.039062 14.617188 11.15625 14.597656 11.265625 14.554688 L 13.675781 13.648438 C 13.917969 13.558594 14.113281 13.375 14.222656 13.132812 C 14.335938 12.890625 14.34375 12.621094 14.25 12.375 L 13.347656 9.96875 C 13.203125 9.585938 12.828125 9.328125 12.417969 9.328125 C 12.300781 9.328125 12.183594 9.347656 12.074219 9.390625 L 9.664062 10.296875 C 9.15625 10.488281 8.894531 11.058594 9.085938 11.570312 L 9.992188 13.976562 C 10.136719 14.359375 10.511719 14.617188 10.921875 14.617188 Z M 10.921875 14.617188 "/>
<path style=" stroke:none;fill-rule:nonzero;fill:rgb(0%,0%,0%);fill-opacity:1;" d="M 8.941406 14.472656 L 8.179688 15.234375 C 8.109375 15.304688 8.03125 15.371094 7.953125 15.429688 L 9.75 15.429688 C 9.398438 15.203125 9.109375 14.871094 8.941406 14.472656 Z M 8.941406 14.472656 "/>
</g>
</svg>
