<?xml version="1.0" encoding="UTF-8"?>
<svg xmlns="http://www.w3.org/2000/svg" xmlns:xlink="http://www.w3.org/1999/xlink" width="28pt" height="28pt" viewBox="0 0 28 28" version="1.1">
<g id="surface1">
<path style=" stroke:none;fill-rule:nonzero;fill:rgb(0%,0%,0%);fill-opacity:1;" d="M 25.746094 26.691406 C 24.082031 24.726562 21.105469 23.226562 17.507812 22.617188 C 17.15625 20.507812 16.53125 19.523438 16.511719 19.496094 C 16.789062 19.371094 17.117188 19.324219 17.496094 19.410156 C 17.957031 19.511719 18.269531 19.757812 18.460938 20.066406 C 18.515625 20.15625 18.65625 20.125 18.671875 20.019531 C 18.695312 19.867188 18.6875 19.699219 18.636719 19.515625 C 18.503906 19.050781 18.144531 18.667969 17.675781 18.566406 C 17.371094 18.5 17.066406 18.550781 16.808594 18.6875 C 17.046875 18.484375 17.34375 18.316406 17.707031 18.199219 C 18.484375 17.949219 19.164062 18.070312 19.691406 18.40625 C 19.78125 18.464844 19.890625 18.382812 19.863281 18.277344 C 19.773438 17.960938 19.597656 17.652344 19.277344 17.367188 C 18.730469 16.886719 17.972656 16.675781 17.28125 16.90625 C 17.058594 16.980469 16.855469 17.089844 16.679688 17.226562 C 16.695312 17.207031 16.707031 17.191406 16.722656 17.175781 C 17.230469 16.578125 17.839844 16.320312 18.441406 16.304688 C 18.574219 16.300781 18.632812 16.132812 18.53125 16.046875 C 18.316406 15.871094 18.054688 15.730469 17.710938 15.65625 C 16.945312 15.492188 16.136719 15.722656 15.648438 16.339844 C 15.472656 16.558594 15.351562 16.804688 15.28125 17.0625 C 15.074219 16.894531 14.832031 16.765625 14.558594 16.6875 C 13.804688 16.472656 13.015625 16.757812 12.484375 17.339844 C 12.257812 17.589844 12.125 17.851562 12.054688 18.109375 C 12.019531 18.246094 12.171875 18.355469 12.289062 18.277344 C 12.785156 17.945312 13.425781 17.804688 14.175781 17.992188 C 14.199219 17.996094 14.21875 18.003906 14.238281 18.007812 C 14.015625 18 13.789062 18.027344 13.5625 18.097656 C 12.871094 18.316406 12.375 18.925781 12.210938 19.632812 C 12.117188 20.042969 12.152344 20.386719 12.257812 20.691406 C 12.296875 20.800781 12.445312 20.800781 12.492188 20.695312 C 12.730469 20.125 13.207031 19.640625 13.972656 19.394531 C 14.335938 19.277344 14.671875 19.242188 14.988281 19.269531 C 14.699219 19.308594 14.421875 19.445312 14.210938 19.679688 C 13.886719 20.035156 13.820312 20.554688 13.984375 21.007812 C 14.046875 21.1875 14.140625 21.332031 14.253906 21.441406 C 14.324219 21.515625 14.457031 21.460938 14.449219 21.355469 C 14.421875 20.992188 14.535156 20.613281 14.847656 20.261719 C 15.089844 19.992188 15.367188 19.816406 15.644531 19.777344 C 15.644531 19.777344 16.085938 20.863281 16.148438 22.429688 C 15.410156 22.355469 14.65625 22.3125 13.882812 22.3125 C 11.992188 22.3125 10.195312 22.546875 8.570312 22.972656 C 8.90625 15.625 13.429688 10.757812 13.433594 10.734375 L 13.433594 10.730469 C 13.992188 11.101562 14.460938 11.664062 14.765625 12.457031 C 15.164062 13.484375 15.09375 14.417969 14.734375 15.1875 C 14.632812 15.40625 14.875 15.640625 15.09375 15.535156 C 15.425781 15.382812 15.746094 15.152344 16.039062 14.808594 C 16.765625 13.953125 17.046875 12.761719 16.636719 11.71875 C 16.367188 11.039062 15.875 10.515625 15.277344 10.191406 C 15.984375 10.386719 16.695312 10.746094 17.386719 11.296875 C 18.859375 12.464844 19.503906 13.914062 19.554688 15.351562 C 19.5625 15.621094 19.894531 15.742188 20.070312 15.535156 C 20.546875 14.964844 20.910156 14.234375 21.039062 13.265625 C 21.261719 11.585938 20.683594 9.84375 19.347656 8.800781 C 18.917969 8.460938 18.445312 8.210938 17.949219 8.046875 C 18 8.050781 18.050781 8.054688 18.097656 8.0625 C 19.894531 8.269531 21.179688 9.105469 21.984375 10.234375 C 22.175781 10.5 22.601562 10.386719 22.632812 10.0625 C 22.695312 9.4375 22.621094 8.757812 22.328125 8.023438 C 21.652344 6.320312 20.160156 5.050781 18.335938 4.894531 C 17.679688 4.839844 17.042969 4.921875 16.453125 5.117188 C 16.511719 4.5 16.445312 3.863281 16.246094 3.238281 C 15.683594 1.496094 14.109375 0.328125 12.296875 0.0507812 C 11.496094 -0.0703125 10.800781 0.0195312 10.191406 0.230469 C 9.902344 0.332031 9.890625 0.753906 10.171875 0.867188 C 11.476562 1.394531 12.597656 2.457031 13.214844 4.179688 C 13.234375 4.226562 13.25 4.273438 13.265625 4.320312 C 12.992188 3.878906 12.640625 3.472656 12.214844 3.128906 C 10.894531 2.0625 9.066406 1.894531 7.480469 2.492188 C 6.539062 2.847656 5.902344 3.386719 5.449219 4.003906 C 5.304688 4.203125 5.472656 4.472656 5.714844 4.421875 C 7.148438 4.125 8.730469 4.414062 10.226562 5.601562 C 10.917969 6.152344 11.425781 6.765625 11.777344 7.410156 C 11.328125 6.898438 10.707031 6.539062 9.984375 6.429688 C 8.875 6.265625 7.777344 6.808594 7.109375 7.710938 C 6.839844 8.070312 6.691406 8.429688 6.613281 8.785156 C 6.5625 9.027344 6.847656 9.210938 7.042969 9.058594 C 7.710938 8.539062 8.601562 8.265625 9.6875 8.417969 C 10.582031 8.542969 11.269531 8.910156 11.761719 9.417969 C 11.671875 9.492188 6.214844 13.5625 2.640625 26.03125 C 2.421875 26.238281 2.222656 26.453125 2.035156 26.671875 C 1.667969 27.105469 1.976562 27.773438 2.546875 27.773438 L 25.230469 27.773438 C 25.785156 27.777344 26.105469 27.121094 25.746094 26.691406 Z M 25.746094 26.691406 "/>
</g>
</svg>
