<?xml version="1.0" encoding="UTF-8"?>
<svg xmlns="http://www.w3.org/2000/svg" xmlns:xlink="http://www.w3.org/1999/xlink" width="28pt" height="28pt" viewBox="0 0 28 28" version="1.1">
<g id="surface1">
<path style=" stroke:none;fill-rule:nonzero;fill:rgb(1.176471%,0.392157%,1.568627%);fill-opacity:1;" d="M 19.214844 11.710938 L 19.0625 11.867188 L 19.0625 13.527344 L 19.316406 13.726562 L 19.636719 13.746094 L 19.875 13.589844 L 19.875 11.890625 L 19.613281 11.710938 Z M 22.605469 11.847656 C 22.464844 11.847656 22.230469 11.992188 22.230469 11.992188 L 22.308594 13.703125 L 22.523438 13.882812 L 22.839844 13.902344 L 23.101562 13.746094 L 23.101562 12.085938 L 22.960938 11.929688 C 22.960938 11.929688 22.746094 11.847656 22.605469 11.847656 Z M 5.070312 10.882812 L 4.851562 11.078125 L 4.851562 12.757812 L 5.089844 12.914062 L 5.464844 12.914062 L 5.703125 12.777344 L 5.703125 11.078125 L 5.464844 10.882812 Z M 26.277344 9.023438 C 25.410156 9.023438 24.996094 9.0625 23.785156 9.167969 C 22.582031 9.277344 20.886719 9.277344 19.402344 9.277344 C 17.917969 9.277344 16.191406 9.492188 15.535156 9.386719 C 14.875 9.277344 13.808594 9.527344 13.1875 8.957031 C 12.566406 8.378906 12.773438 8.847656 12.253906 8.632812 C 11.738281 8.414062 11.496094 8.558594 10.839844 8.203125 C 10.1875 7.84375 9.734375 8.023438 8.910156 8.128906 C 8.078125 8.238281 7.25 8.238281 6.941406 8.238281 C 6.628906 8.238281 6.179688 8.203125 6.007812 8.238281 C 5.832031 8.273438 5.558594 8.414062 5.421875 8.414062 C 5.285156 8.414062 4.9375 8.597656 4.800781 8.667969 C 4.660156 8.738281 4.28125 8.847656 4.109375 9.023438 C 3.9375 9.203125 4.109375 9.023438 3.9375 9.273438 C 3.761719 9.523438 3.695312 9.273438 3.554688 9.308594 C 3.417969 9.34375 3.175781 9.382812 3.003906 9.417969 C 2.832031 9.453125 2.898438 9.453125 2.695312 9.453125 C 2.484375 9.453125 2.347656 9.523438 2.003906 9.382812 C 1.65625 9.238281 1.625 9.417969 1.484375 9.492188 C 1.34375 9.5625 1.449219 9.597656 1.171875 9.632812 C 0.898438 9.667969 0.449219 9.632812 0.449219 9.632812 L 0 9.597656 L 0 20.011719 L 28 20.011719 L 28 9.058594 C 28 9.058594 27.136719 9.023438 26.277344 9.023438 Z M 3.296875 13.863281 L 2.40625 13.863281 L 2.40625 12.578125 L 1.539062 12.578125 L 1.539062 13.863281 L 0.652344 13.863281 L 0.652344 10.488281 L 1.539062 10.488281 L 1.539062 11.75 L 2.40625 11.75 L 2.40625 10.488281 L 3.296875 10.488281 Z M 6.566406 13.113281 L 5.71875 13.648438 L 4.742188 13.648438 L 3.945312 13.167969 L 3.945312 10.734375 L 4.699219 10.234375 L 5.796875 10.234375 L 6.566406 10.746094 Z M 9.636719 13.648438 L 7.476562 13.585938 L 7.476562 10.273438 L 8.285156 10.3125 L 8.304688 12.914062 L 9.636719 12.996094 Z M 12.222656 13.804688 L 10.023438 13.648438 L 10.039062 10.390625 L 10.890625 10.429688 L 10.890625 12.953125 L 12.222656 13.054688 Z M 13.652344 12.796875 L 13.652344 13.902344 L 12.667969 13.882812 L 12.648438 12.738281 L 11.816406 10.46875 L 12.667969 10.507812 L 13.140625 11.789062 L 13.613281 10.527344 L 14.457031 10.582031 Z M 17.003906 14.273438 L 16.589844 14.273438 L 16.136719 13.070312 L 15.6875 14.214844 L 15.234375 14.214844 L 14.660156 10.90625 L 15.453125 10.945312 L 15.6875 12.066406 L 15.917969 10.945312 L 16.351562 10.945312 L 16.730469 12.1875 L 16.988281 11 L 17.660156 11 Z M 20.710938 13.902344 L 19.964844 14.375 L 18.957031 14.375 L 18.152344 13.902344 L 18.152344 11.492188 L 18.898438 11.078125 L 19.90625 11.078125 L 20.710938 11.554688 Z M 23.925781 14.058594 L 23.316406 14.535156 L 22.210938 14.550781 L 21.5 14.042969 L 21.464844 11.652344 L 22.152344 11.238281 L 23.179688 11.257812 L 23.925781 11.730469 Z M 27.335938 13.667969 L 26.542969 14.140625 L 24.691406 14.140625 L 24.652344 10.828125 L 26.464844 10.769531 L 27.332031 11.203125 L 27.332031 13.667969 Z M 26.152344 11.457031 L 25.5625 11.480469 L 25.582031 13.433594 C 25.582031 13.433594 26.113281 13.492188 26.210938 13.449219 C 26.308594 13.414062 26.410156 13.253906 26.410156 13.253906 C 26.410156 13.253906 26.433594 11.734375 26.410156 11.617188 C 26.390625 11.5 26.152344 11.457031 26.152344 11.457031 Z M 26.152344 11.457031 "/>
</g>
</svg>
