<?xml version="1.0" encoding="UTF-8"?>
<svg xmlns="http://www.w3.org/2000/svg" xmlns:xlink="http://www.w3.org/1999/xlink" width="14pt" height="14pt" viewBox="0 0 14 14" version="1.1">
<g id="surface1">
<path style=" stroke:none;fill-rule:nonzero;fill:rgb(0%,0%,0%);fill-opacity:1;" d="M 13.570312 0.855469 L 8.839844 0.855469 C 8.601562 0.855469 8.40625 1.050781 8.40625 1.289062 L 8.40625 2.625 L 0.574219 2.625 L 0.574219 0.855469 C 0.574219 0.695312 0.445312 0.570312 0.289062 0.570312 C 0.128906 0.570312 0 0.695312 0 0.855469 L 0 13.140625 C 0 13.296875 0.128906 13.425781 0.289062 13.425781 C 0.445312 13.425781 0.574219 13.296875 0.574219 13.140625 L 0.574219 12.210938 L 8.40625 12.210938 L 8.40625 13 C 8.40625 13.234375 8.601562 13.429688 8.839844 13.429688 L 13.570312 13.429688 C 13.804688 13.429688 14 13.234375 14 13 L 14 1.289062 C 14 1.050781 13.804688 0.855469 13.570312 0.855469 Z M 8.40625 10.0625 L 0.574219 10.0625 L 0.574219 3.203125 L 2.5625 3.203125 L 1.527344 3.578125 C 1.378906 3.632812 1.300781 3.796875 1.355469 3.945312 C 1.398438 4.0625 1.507812 4.132812 1.625 4.132812 C 1.65625 4.132812 1.691406 4.128906 1.722656 4.117188 L 1.84375 4.070312 L 1.84375 6.34375 C 1.84375 6.550781 2.015625 6.71875 2.21875 6.71875 L 4.054688 6.71875 C 4.261719 6.71875 4.429688 6.550781 4.429688 6.34375 L 4.429688 4.074219 L 4.554688 4.117188 C 4.703125 4.171875 4.867188 4.09375 4.921875 3.945312 C 4.976562 3.796875 4.898438 3.632812 4.75 3.578125 L 3.703125 3.203125 L 8.40625 3.203125 Z M 10.128906 7.234375 L 9.46875 7.234375 C 9.3125 7.234375 9.179688 7.109375 9.179688 6.949219 C 9.179688 6.789062 9.3125 6.664062 9.46875 6.664062 L 10.128906 6.664062 C 10.289062 6.664062 10.414062 6.789062 10.414062 6.949219 C 10.414062 7.109375 10.289062 7.234375 10.128906 7.234375 Z M 10.128906 7.234375 "/>
</g>
</svg>
