<?xml version="1.0" encoding="UTF-8"?>
<svg xmlns="http://www.w3.org/2000/svg" xmlns:xlink="http://www.w3.org/1999/xlink" width="28pt" height="28pt" viewBox="0 0 28 28" version="1.1">
<g id="surface1">
<path style=" stroke:none;fill-rule:nonzero;fill:rgb(0%,0%,0%);fill-opacity:1;" d="M 27.789062 0 L 0.210938 0 L 0.210938 1.925781 L 1.191406 1.925781 L 1.191406 16.722656 L 6.953125 16.722656 C 11.890625 10.492188 11.941406 5.226562 11.921875 1.925781 L 13.039062 1.925781 L 13.039062 24.324219 L 7.933594 24.324219 C 7.714844 21.558594 7.175781 19.769531 6.652344 18.644531 L 1.191406 18.644531 L 1.191406 28 L 8.035156 28 L 8.035156 27.039062 C 8.035156 26.769531 8.03125 26.503906 8.027344 26.25 L 19.972656 26.25 C 19.96875 26.503906 19.964844 26.769531 19.964844 27.039062 L 19.964844 28 L 26.808594 28 L 26.808594 18.644531 L 21.347656 18.644531 C 20.824219 19.769531 20.285156 21.558594 20.066406 24.324219 L 14.960938 24.324219 L 14.960938 1.925781 L 16.078125 1.925781 C 16.058594 5.226562 16.109375 10.492188 21.046875 16.722656 L 26.808594 16.722656 L 26.808594 1.925781 L 27.789062 1.925781 Z M 27.789062 0 "/>
</g>
</svg>
