<?xml version="1.0" encoding="UTF-8"?>
<svg xmlns="http://www.w3.org/2000/svg" xmlns:xlink="http://www.w3.org/1999/xlink" width="28pt" height="28pt" viewBox="0 0 28 28" version="1.1">
<g id="surface1">
<path style=" stroke:none;fill-rule:nonzero;fill:rgb(0%,0%,0%);fill-opacity:1;" d="M 21.15625 24.183594 C 21.15625 24.386719 21.15625 24.519531 21.085938 24.722656 C 21.085938 24.859375 21.019531 24.996094 20.953125 25.132812 C 20.953125 25.265625 20.882812 25.335938 20.75 25.402344 C 20.679688 25.402344 20.613281 25.472656 20.476562 25.472656 L 7.929688 25.472656 C 7.796875 25.472656 7.660156 25.402344 7.523438 25.402344 C 7.390625 25.335938 7.253906 25.265625 7.1875 25.199219 C 7.117188 25.132812 7.050781 24.929688 6.980469 24.792969 C 6.980469 24.589844 6.914062 24.386719 6.914062 24.113281 C 6.914062 23.910156 6.980469 23.707031 6.980469 23.503906 C 6.980469 23.367188 7.050781 23.230469 7.050781 23.097656 C 7.117188 22.960938 7.1875 22.824219 7.320312 22.6875 C 7.390625 22.554688 7.523438 22.417969 7.660156 22.214844 L 12.203125 17.601562 C 13.222656 16.515625 14.101562 15.496094 14.710938 14.683594 C 15.324219 13.800781 15.867188 13.054688 16.203125 12.308594 C 16.542969 11.628906 16.746094 11.019531 16.882812 10.410156 C 16.949219 9.867188 17.019531 9.324219 17.019531 8.847656 C 17.019531 8.304688 16.949219 7.832031 16.746094 7.355469 C 16.613281 6.949219 16.339844 6.542969 16 6.203125 C 15.730469 5.863281 15.324219 5.589844 14.847656 5.386719 C 14.375 5.183594 13.761719 5.117188 13.152344 5.117188 C 12.40625 5.117188 11.796875 5.183594 11.1875 5.386719 C 10.578125 5.589844 10.101562 5.796875 9.625 6.066406 C 9.21875 6.269531 8.8125 6.472656 8.542969 6.675781 C 8.269531 6.878906 8.066406 7.015625 7.863281 7.015625 C 7.796875 7.015625 7.726562 6.949219 7.660156 6.949219 C 7.59375 6.878906 7.523438 6.8125 7.523438 6.675781 C 7.457031 6.609375 7.457031 6.472656 7.390625 6.269531 L 7.390625 5.183594 C 7.390625 5.050781 7.390625 4.980469 7.457031 4.84375 C 7.457031 4.777344 7.523438 4.640625 7.59375 4.574219 C 7.59375 4.507812 7.726562 4.4375 7.863281 4.300781 C 8 4.167969 8.203125 4.03125 8.542969 3.761719 C 8.882812 3.554688 9.355469 3.351562 9.898438 3.148438 C 10.371094 2.945312 10.984375 2.808594 11.59375 2.675781 C 12.203125 2.539062 12.882812 2.472656 13.558594 2.472656 C 14.644531 2.472656 15.59375 2.605469 16.410156 2.878906 C 17.289062 3.21875 17.96875 3.625 18.511719 4.167969 C 19.054688 4.710938 19.460938 5.320312 19.730469 6.066406 C 20.003906 6.746094 20.136719 7.492188 20.136719 8.304688 C 20.136719 9.050781 20.070312 9.796875 19.933594 10.476562 C 19.800781 11.222656 19.527344 11.96875 19.121094 12.851562 C 18.714844 13.664062 18.105469 14.617188 17.289062 15.632812 C 16.542969 16.652344 15.457031 17.804688 14.171875 19.160156 L 10.578125 22.894531 L 20.476562 22.894531 C 20.542969 22.894531 20.613281 22.894531 20.75 22.960938 C 20.816406 23.027344 20.882812 23.097656 20.953125 23.230469 C 21.019531 23.300781 21.085938 23.433594 21.085938 23.640625 C 21.15625 23.773438 21.15625 23.976562 21.15625 24.183594 Z M 21.15625 24.183594 "/>
</g>
</svg>
