<?xml version="1.0" encoding="UTF-8"?>
<svg xmlns="http://www.w3.org/2000/svg" xmlns:xlink="http://www.w3.org/1999/xlink" width="28pt" height="28pt" viewBox="0 0 28 28" version="1.1">
<g id="surface1">
<path style=" stroke:none;fill-rule:nonzero;fill:rgb(0%,0%,0%);fill-opacity:1;" d="M 21.644531 19.398438 C 21.644531 20.402344 21.445312 21.269531 21.113281 22.007812 C 20.777344 22.742188 20.242188 23.410156 19.640625 23.945312 C 18.972656 24.414062 18.171875 24.8125 17.234375 25.082031 C 16.234375 25.347656 15.164062 25.484375 13.960938 25.484375 C 12.757812 25.484375 11.757812 25.347656 10.820312 25.148438 C 9.953125 24.882812 9.148438 24.546875 8.546875 24.078125 C 7.878906 23.609375 7.414062 23.007812 7.078125 22.339844 C 6.742188 21.605469 6.542969 20.800781 6.542969 19.933594 C 6.542969 19.265625 6.675781 18.597656 6.945312 17.996094 C 7.144531 17.460938 7.480469 16.859375 7.878906 16.390625 C 8.347656 15.921875 8.882812 15.453125 9.484375 14.984375 C 10.152344 14.585938 10.886719 14.183594 11.6875 13.78125 C 10.953125 13.382812 10.351562 13.046875 9.816406 12.644531 C 9.285156 12.246094 8.816406 11.777344 8.480469 11.375 C 8.082031 10.839844 7.8125 10.371094 7.613281 9.835938 C 7.414062 9.300781 7.34375 8.769531 7.34375 8.097656 C 7.34375 7.363281 7.480469 6.628906 7.746094 5.894531 C 8.082031 5.222656 8.480469 4.621094 9.082031 4.152344 C 9.617188 3.621094 10.351562 3.21875 11.222656 2.949219 C 12.089844 2.617188 13.160156 2.484375 14.296875 2.484375 C 15.429688 2.484375 16.433594 2.617188 17.234375 2.882812 C 18.105469 3.152344 18.773438 3.550781 19.308594 4.019531 C 19.84375 4.488281 20.242188 5.023438 20.445312 5.625 C 20.710938 6.292969 20.84375 6.960938 20.84375 7.699219 C 20.84375 8.300781 20.777344 8.835938 20.578125 9.371094 C 20.375 9.902344 20.109375 10.4375 19.707031 10.90625 C 19.375 11.375 18.90625 11.84375 18.371094 12.246094 C 17.835938 12.710938 17.234375 13.113281 16.5 13.449219 C 17.371094 13.847656 18.105469 14.25 18.707031 14.71875 C 19.375 15.121094 19.910156 15.585938 20.308594 16.054688 C 20.777344 16.589844 21.046875 17.058594 21.3125 17.59375 C 21.511719 18.195312 21.644531 18.796875 21.644531 19.398438 Z M 17.902344 7.964844 C 17.902344 7.496094 17.835938 7.027344 17.636719 6.628906 C 17.503906 6.226562 17.234375 5.894531 16.96875 5.625 C 16.632812 5.359375 16.234375 5.15625 15.765625 5.023438 C 15.230469 4.890625 14.695312 4.824219 14.09375 4.824219 C 12.824219 4.824219 11.890625 5.089844 11.289062 5.625 C 10.621094 6.226562 10.285156 6.960938 10.285156 7.964844 C 10.285156 8.433594 10.417969 8.835938 10.554688 9.234375 C 10.6875 9.570312 10.953125 9.972656 11.289062 10.304688 C 11.621094 10.640625 12.023438 10.972656 12.492188 11.308594 C 13.027344 11.644531 13.628906 11.976562 14.296875 12.378906 C 15.5 11.777344 16.367188 11.109375 16.96875 10.371094 C 17.636719 9.636719 17.902344 8.835938 17.902344 7.964844 Z M 18.640625 19.734375 C 18.640625 19.199219 18.503906 18.730469 18.304688 18.328125 C 18.171875 17.859375 17.835938 17.460938 17.4375 17.058594 C 17.035156 16.722656 16.566406 16.324219 15.964844 15.988281 C 15.363281 15.65625 14.695312 15.320312 13.894531 14.917969 C 13.160156 15.253906 12.558594 15.585938 11.957031 15.988281 C 11.421875 16.324219 11.019531 16.722656 10.621094 17.058594 C 10.285156 17.460938 10.019531 17.859375 9.816406 18.261719 C 9.683594 18.730469 9.550781 19.199219 9.550781 19.664062 C 9.550781 20.800781 9.953125 21.671875 10.753906 22.273438 C 11.488281 22.875 12.625 23.210938 14.160156 23.210938 C 15.632812 23.210938 16.769531 22.875 17.503906 22.273438 C 18.238281 21.671875 18.640625 20.800781 18.640625 19.734375 Z M 18.640625 19.734375 "/>
</g>
</svg>
