<?xml version="1.0" encoding="UTF-8"?>
<svg xmlns="http://www.w3.org/2000/svg" xmlns:xlink="http://www.w3.org/1999/xlink" width="28pt" height="28pt" viewBox="0 0 28 28" version="1.1">
<g id="surface1">
<path style=" stroke:none;fill-rule:nonzero;fill:rgb(0%,0%,0%);fill-opacity:1;" d="M 21.410156 13.078125 C 21.410156 14.015625 21.34375 15.019531 21.277344 16.019531 C 21.144531 17.023438 20.941406 17.960938 20.675781 18.894531 C 20.410156 19.765625 20.007812 20.632812 19.539062 21.4375 C 19.070312 22.238281 18.46875 22.90625 17.800781 23.507812 C 17.066406 24.109375 16.265625 24.578125 15.261719 24.980469 C 14.261719 25.3125 13.191406 25.449219 11.855469 25.449219 C 11.386719 25.449219 10.917969 25.449219 10.453125 25.382812 C 9.984375 25.3125 9.515625 25.246094 9.179688 25.113281 C 8.78125 25.046875 8.445312 24.914062 8.246094 24.847656 C 7.980469 24.710938 7.777344 24.644531 7.644531 24.511719 C 7.578125 24.445312 7.445312 24.246094 7.445312 24.109375 C 7.378906 23.910156 7.378906 23.710938 7.378906 23.375 L 7.378906 22.773438 C 7.378906 22.640625 7.445312 22.507812 7.445312 22.4375 C 7.511719 22.371094 7.511719 22.304688 7.578125 22.238281 L 7.84375 22.238281 C 7.980469 22.238281 8.113281 22.238281 8.378906 22.371094 C 8.578125 22.4375 8.914062 22.507812 9.25 22.640625 C 9.582031 22.707031 9.984375 22.839844 10.453125 22.90625 C 10.917969 22.972656 11.453125 23.039062 12.054688 23.039062 C 13.191406 23.039062 14.125 22.839844 14.929688 22.371094 C 15.730469 21.972656 16.398438 21.371094 16.933594 20.699219 C 17.402344 19.964844 17.800781 19.097656 18.070312 18.160156 C 18.335938 17.222656 18.46875 16.222656 18.46875 15.152344 C 17.867188 15.484375 17.132812 15.820312 16.265625 16.085938 C 15.394531 16.355469 14.460938 16.488281 13.324219 16.488281 C 12.054688 16.488281 11.050781 16.355469 10.183594 16.019531 C 9.316406 15.6875 8.648438 15.21875 8.179688 14.617188 C 7.644531 14.015625 7.242188 13.347656 7.042969 12.476562 C 6.84375 11.675781 6.707031 10.804688 6.707031 9.871094 C 6.707031 8.867188 6.84375 7.929688 7.109375 7.0625 C 7.445312 6.125 7.84375 5.390625 8.511719 4.652344 C 9.113281 3.984375 9.851562 3.449219 10.851562 3.050781 C 11.789062 2.648438 12.925781 2.449219 14.195312 2.449219 C 15.128906 2.449219 15.929688 2.582031 16.667969 2.78125 C 17.402344 3.050781 18.003906 3.382812 18.539062 3.851562 C 19.070312 4.253906 19.539062 4.789062 19.875 5.457031 C 20.273438 6.058594 20.542969 6.792969 20.808594 7.597656 C 21.011719 8.332031 21.210938 9.199219 21.277344 10.136719 C 21.34375 11.074219 21.410156 12.074219 21.410156 13.078125 Z M 18.402344 12.746094 C 18.402344 11.273438 18.335938 10.070312 18.136719 9 C 17.9375 7.996094 17.667969 7.195312 17.269531 6.59375 C 16.867188 5.992188 16.398438 5.523438 15.863281 5.257812 C 15.328125 4.988281 14.660156 4.855469 13.925781 4.855469 C 13.191406 4.855469 12.523438 4.988281 11.988281 5.257812 C 11.453125 5.523438 11.050781 5.859375 10.71875 6.324219 C 10.382812 6.792969 10.117188 7.261719 9.984375 7.863281 C 9.78125 8.464844 9.714844 9 9.714844 9.667969 C 9.714844 10.335938 9.78125 10.9375 9.917969 11.539062 C 10.050781 12.074219 10.316406 12.542969 10.652344 12.945312 C 10.984375 13.347656 11.386719 13.613281 11.921875 13.882812 C 12.390625 14.082031 13.058594 14.148438 13.792969 14.148438 C 14.660156 14.148438 15.53125 14.015625 16.332031 13.746094 C 17.132812 13.546875 17.800781 13.144531 18.402344 12.746094 Z M 18.402344 12.746094 "/>
</g>
</svg>
