<?xml version="1.0" encoding="UTF-8"?>
<svg xmlns="http://www.w3.org/2000/svg" xmlns:xlink="http://www.w3.org/1999/xlink" width="28pt" height="28pt" viewBox="0 0 28 28" version="1.1">
<g id="surface1">
<path style=" stroke:none;fill-rule:nonzero;fill:rgb(0%,0%,0%);fill-opacity:1;" d="M 25.289062 14.828125 L 20.195312 16.191406 L 18.230469 15.058594 L 18.230469 12.933594 L 20.171875 11.816406 L 25.289062 13.1875 C 25.394531 13.214844 25.496094 13.230469 25.597656 13.230469 C 26.125 13.230469 26.605469 12.878906 26.746094 12.347656 C 26.917969 11.710938 26.542969 11.058594 25.90625 10.886719 L 23.101562 10.136719 L 25.6875 8.652344 C 26.257812 8.324219 26.453125 7.597656 26.125 7.027344 C 25.796875 6.457031 25.070312 6.257812 24.5 6.585938 L 21.910156 8.074219 L 22.660156 5.269531 C 22.832031 4.632812 22.453125 3.980469 21.820312 3.808594 C 21.1875 3.644531 20.53125 4.015625 20.363281 4.652344 L 18.996094 9.746094 L 17.042969 10.867188 L 15.191406 9.796875 L 15.191406 7.550781 L 18.9375 3.804688 C 19.402344 3.339844 19.402344 2.585938 18.9375 2.121094 C 18.46875 1.65625 17.71875 1.65625 17.25 2.121094 L 15.191406 4.183594 L 15.191406 1.191406 C 15.191406 0.53125 14.65625 0 14 0 C 13.34375 0 12.808594 0.53125 12.808594 1.191406 L 12.808594 4.167969 L 10.761719 2.121094 C 10.296875 1.65625 9.542969 1.65625 9.078125 2.121094 C 8.613281 2.585938 8.613281 3.339844 9.078125 3.804688 L 12.808594 7.535156 L 12.808594 9.804688 L 10.972656 10.867188 L 9.015625 9.746094 L 7.652344 4.652344 C 7.484375 4.015625 6.828125 3.644531 6.195312 3.808594 C 5.558594 3.980469 5.183594 4.632812 5.351562 5.269531 L 6.105469 8.074219 L 3.511719 6.585938 C 2.941406 6.257812 2.214844 6.453125 1.886719 7.027344 C 1.558594 7.597656 1.757812 8.324219 2.328125 8.652344 L 4.914062 10.136719 L 2.109375 10.886719 C 1.472656 11.058594 1.097656 11.710938 1.265625 12.347656 C 1.410156 12.878906 1.890625 13.230469 2.414062 13.230469 C 2.515625 13.230469 2.621094 13.214844 2.722656 13.1875 L 7.84375 11.816406 L 9.78125 12.929688 L 9.785156 15.058594 L 7.820312 16.191406 L 2.722656 14.828125 C 2.09375 14.660156 1.4375 15.035156 1.265625 15.667969 C 1.097656 16.304688 1.472656 16.957031 2.109375 17.125 L 4.902344 17.875 L 2.324219 19.363281 C 1.753906 19.695312 1.558594 20.421875 1.890625 20.992188 C 2.109375 21.375 2.511719 21.585938 2.921875 21.585938 C 3.121094 21.585938 3.328125 21.535156 3.515625 21.425781 L 6.105469 19.929688 L 5.351562 22.746094 C 5.183594 23.382812 5.558594 24.035156 6.195312 24.207031 C 6.296875 24.234375 6.402344 24.246094 6.503906 24.246094 C 7.027344 24.246094 7.511719 23.894531 7.652344 23.363281 L 9.023438 18.246094 L 10.972656 17.121094 L 12.808594 18.179688 L 12.808594 20.480469 L 9.078125 24.210938 C 8.613281 24.675781 8.613281 25.425781 9.078125 25.894531 C 9.3125 26.125 9.617188 26.242188 9.921875 26.242188 C 10.222656 26.242188 10.53125 26.125 10.761719 25.894531 L 12.808594 23.847656 L 12.808594 26.824219 C 12.808594 27.480469 13.34375 28.015625 14 28.015625 C 14.65625 28.015625 15.191406 27.480469 15.191406 26.824219 L 15.191406 23.832031 L 17.25 25.894531 C 17.484375 26.125 17.789062 26.242188 18.09375 26.242188 C 18.398438 26.242188 18.703125 26.125 18.9375 25.894531 C 19.402344 25.429688 19.402344 24.675781 18.9375 24.210938 L 15.191406 20.464844 L 15.191406 18.1875 L 17.039062 17.121094 L 18.992188 18.246094 L 20.363281 23.363281 C 20.503906 23.894531 20.984375 24.246094 21.511719 24.246094 C 21.613281 24.246094 21.714844 24.234375 21.820312 24.207031 C 22.453125 24.035156 22.832031 23.382812 22.660156 22.746094 L 21.90625 19.929688 L 24.5 21.425781 C 24.6875 21.535156 24.890625 21.585938 25.09375 21.585938 C 25.503906 21.585938 25.902344 21.375 26.125 20.988281 C 26.453125 20.421875 26.257812 19.695312 25.6875 19.363281 L 23.109375 17.875 L 25.90625 17.125 C 26.542969 16.957031 26.917969 16.304688 26.746094 15.667969 C 26.578125 15.035156 25.925781 14.660156 25.289062 14.828125 Z M 15.851562 15.058594 L 14.007812 16.121094 L 12.164062 15.058594 L 12.164062 12.929688 L 14.007812 11.863281 L 15.851562 12.929688 Z M 15.851562 15.058594 "/>
</g>
</svg>
