<?xml version="1.0" encoding="UTF-8"?>
<svg xmlns="http://www.w3.org/2000/svg" xmlns:xlink="http://www.w3.org/1999/xlink" width="28pt" height="27pt" viewBox="0 0 28 27" version="1.1">
<g id="surface1">
<path style=" stroke:none;fill-rule:nonzero;fill:rgb(0%,0%,0%);fill-opacity:1;" d="M 25.714844 0 C 17.90625 0 10.09375 0 2.285156 0 C 1.023438 0 0 0.988281 0 2.203125 C 0 9.734375 0 17.265625 0 24.796875 C 0 26.011719 1.023438 27 2.285156 27 C 10.09375 27 17.90625 27 25.714844 27 C 26.976562 27 28 26.011719 28 24.796875 C 28 17.265625 28 9.734375 28 2.203125 C 28 0.988281 26.976562 0 25.714844 0 Z M 2.285156 1.652344 C 2.601562 1.652344 2.855469 1.898438 2.855469 2.203125 C 2.855469 2.507812 2.601562 2.753906 2.285156 2.753906 C 1.96875 2.753906 1.714844 2.507812 1.714844 2.203125 C 1.714844 1.898438 1.96875 1.652344 2.285156 1.652344 Z M 2.285156 25.347656 C 1.96875 25.347656 1.714844 25.101562 1.714844 24.796875 C 1.714844 24.492188 1.96875 24.246094 2.285156 24.246094 C 2.601562 24.246094 2.855469 24.492188 2.855469 24.796875 C 2.855469 25.101562 2.601562 25.347656 2.285156 25.347656 Z M 14 24.464844 C 7.71875 24.464844 2.628906 19.554688 2.628906 13.5 C 2.628906 7.445312 7.71875 2.535156 14 2.535156 C 20.28125 2.535156 25.371094 7.445312 25.371094 13.5 C 25.371094 19.554688 20.28125 24.464844 14 24.464844 Z M 25.714844 25.347656 C 25.398438 25.347656 25.144531 25.101562 25.144531 24.796875 C 25.144531 24.492188 25.398438 24.246094 25.714844 24.246094 C 26.03125 24.246094 26.285156 24.492188 26.285156 24.796875 C 26.285156 25.101562 26.03125 25.347656 25.714844 25.347656 Z M 25.714844 2.753906 C 25.398438 2.753906 25.144531 2.507812 25.144531 2.203125 C 25.144531 1.898438 25.398438 1.652344 25.714844 1.652344 C 26.03125 1.652344 26.285156 1.898438 26.285156 2.203125 C 26.285156 2.507812 26.03125 2.753906 25.714844 2.753906 Z M 25.714844 2.753906 "/>
<path style=" stroke:none;fill-rule:nonzero;fill:rgb(0%,0%,0%);fill-opacity:1;" d="M 24.019531 11.511719 C 23.960938 11.246094 23.84375 11.054688 23.628906 10.882812 C 21.894531 9.503906 19.496094 9.597656 16.425781 11.164062 C 16.222656 10.96875 16.007812 10.804688 15.765625 10.664062 C 17.878906 8.835938 19.808594 8.066406 21.550781 8.359375 C 22.066406 8.445312 22.421875 7.878906 22.101562 7.480469 C 21.394531 6.597656 20.59375 5.875 19.625 5.261719 C 19.390625 5.113281 19.167969 5.058594 18.890625 5.085938 C 16.652344 5.289062 15.023438 6.992188 14 10.195312 C 13.714844 10.195312 13.445312 10.226562 13.167969 10.292969 C 13.324219 7.554688 14.121094 5.695312 15.570312 4.714844 C 15.996094 4.425781 15.832031 3.785156 15.316406 3.71875 C 14.167969 3.574219 13.070312 3.613281 11.9375 3.839844 C 11.664062 3.894531 11.464844 4.007812 11.289062 4.214844 C 9.855469 5.886719 9.953125 8.203125 11.574219 11.164062 C 11.375 11.355469 11.207031 11.566406 11.058594 11.800781 C 9.160156 9.757812 8.363281 7.898438 8.667969 6.21875 C 8.757812 5.722656 8.167969 5.378906 7.757812 5.6875 C 6.839844 6.367188 6.09375 7.144531 5.457031 8.074219 C 5.304688 8.300781 5.246094 8.515625 5.273438 8.785156 C 5.488281 10.941406 7.253906 12.511719 10.570312 13.5 C 10.570312 13.773438 10.605469 14.035156 10.671875 14.300781 C 7.835938 14.152344 5.90625 13.382812 4.890625 11.984375 C 4.589844 11.574219 3.921875 11.734375 3.855469 12.230469 C 3.707031 13.339844 3.75 14.394531 3.980469 15.488281 C 4.039062 15.753906 4.15625 15.945312 4.371094 16.117188 C 6.105469 17.496094 8.503906 17.402344 11.574219 15.835938 C 11.777344 16.03125 11.992188 16.195312 12.234375 16.335938 C 10.121094 18.164062 8.191406 18.933594 6.449219 18.640625 C 5.933594 18.554688 5.578125 19.121094 5.898438 19.519531 C 6.605469 20.402344 7.40625 21.125 8.375 21.738281 C 8.609375 21.886719 8.832031 21.941406 9.109375 21.914062 C 11.347656 21.710938 12.976562 20.007812 14 16.804688 C 14.285156 16.804688 14.554688 16.773438 14.832031 16.707031 C 14.675781 19.445312 13.878906 21.304688 12.429688 22.285156 C 12.003906 22.574219 12.167969 23.214844 12.683594 23.28125 C 13.832031 23.425781 14.929688 23.386719 16.0625 23.160156 C 16.335938 23.105469 16.535156 22.992188 16.710938 22.785156 C 18.144531 21.113281 18.046875 18.796875 16.425781 15.835938 C 16.625 15.644531 16.792969 15.433594 16.941406 15.199219 C 18.839844 17.242188 19.636719 19.101562 19.332031 20.78125 C 19.242188 21.277344 19.832031 21.621094 20.242188 21.3125 C 21.160156 20.632812 21.90625 19.855469 22.542969 18.925781 C 22.695312 18.699219 22.753906 18.484375 22.726562 18.214844 C 22.511719 16.058594 20.746094 14.488281 17.429688 13.5 C 17.429688 13.226562 17.394531 12.964844 17.328125 12.699219 C 20.164062 12.847656 22.09375 13.617188 23.109375 15.011719 C 23.410156 15.425781 24.078125 15.265625 24.144531 14.769531 C 24.292969 13.660156 24.25 12.605469 24.019531 11.511719 Z M 14 16.253906 C 12.421875 16.253906 11.144531 15.023438 11.144531 13.5 C 11.144531 11.976562 12.421875 10.746094 14 10.746094 C 15.578125 10.746094 16.855469 11.976562 16.855469 13.5 C 16.855469 15.023438 15.578125 16.253906 14 16.253906 Z M 14 16.253906 "/>
</g>
</svg>
