<?xml version="1.0" encoding="UTF-8"?>
<svg xmlns="http://www.w3.org/2000/svg" xmlns:xlink="http://www.w3.org/1999/xlink" width="28pt" height="28pt" viewBox="0 0 28 28" version="1.1">
<g id="surface1">
<path style=" stroke:none;fill-rule:nonzero;fill:rgb(0%,0%,0%);fill-opacity:1;" d="M 22.910156 22.910156 L 22.910156 14 C 22.910156 9.085938 18.910156 5.089844 14 5.089844 C 9.089844 5.089844 5.089844 9.085938 5.089844 14 L 5.089844 22.910156 C 3.6875 22.910156 2.546875 24.050781 2.546875 25.453125 L 2.546875 27.363281 C 2.546875 27.714844 2.828125 28 3.183594 28 L 24.816406 28 C 25.171875 28 25.453125 27.714844 25.453125 27.363281 L 25.453125 25.453125 C 25.453125 24.050781 24.3125 22.910156 22.910156 22.910156 Z M 14 8.910156 C 11.191406 8.910156 8.910156 11.191406 8.910156 14 C 8.910156 14.351562 8.625 14.636719 8.273438 14.636719 C 7.921875 14.636719 7.636719 14.351562 7.636719 14 C 7.636719 10.492188 10.492188 7.636719 14 7.636719 C 14.351562 7.636719 14.636719 7.921875 14.636719 8.273438 C 14.636719 8.625 14.351562 8.910156 14 8.910156 Z M 14 8.910156 "/>
<path style=" stroke:none;fill-rule:nonzero;fill:rgb(0%,0%,0%);fill-opacity:1;" d="M 14 3.816406 C 14.351562 3.816406 14.636719 3.535156 14.636719 3.183594 L 14.636719 0.636719 C 14.636719 0.285156 14.351562 0 14 0 C 13.648438 0 13.363281 0.285156 13.363281 0.636719 L 13.363281 3.183594 C 13.363281 3.535156 13.648438 3.816406 14 3.816406 Z M 14 3.816406 "/>
<path style=" stroke:none;fill-rule:nonzero;fill:rgb(0%,0%,0%);fill-opacity:1;" d="M 20.363281 4.453125 C 20.523438 4.453125 20.6875 4.390625 20.8125 4.269531 L 22.722656 2.359375 C 22.972656 2.109375 22.972656 1.707031 22.722656 1.460938 C 22.472656 1.210938 22.070312 1.210938 21.824219 1.460938 L 19.914062 3.367188 C 19.664062 3.617188 19.664062 4.019531 19.914062 4.269531 C 20.035156 4.390625 20.199219 4.453125 20.363281 4.453125 Z M 20.363281 4.453125 "/>
<path style=" stroke:none;fill-rule:nonzero;fill:rgb(0%,0%,0%);fill-opacity:1;" d="M 7.183594 4.269531 C 7.308594 4.390625 7.472656 4.453125 7.636719 4.453125 C 7.796875 4.453125 7.960938 4.390625 8.085938 4.269531 C 8.332031 4.019531 8.332031 3.617188 8.085938 3.367188 L 6.175781 1.460938 C 5.929688 1.210938 5.527344 1.210938 5.277344 1.460938 C 5.027344 1.707031 5.027344 2.109375 5.277344 2.359375 Z M 7.183594 4.269531 "/>
<path style=" stroke:none;fill-rule:nonzero;fill:rgb(0%,0%,0%);fill-opacity:1;" d="M 27.933594 7.351562 C 27.773438 7.039062 27.394531 6.910156 27.078125 7.066406 L 24.535156 8.339844 C 24.21875 8.496094 24.09375 8.878906 24.25 9.195312 C 24.359375 9.417969 24.585938 9.546875 24.816406 9.546875 C 24.914062 9.546875 25.011719 9.523438 25.101562 9.476562 L 27.648438 8.207031 C 27.960938 8.046875 28.089844 7.667969 27.933594 7.351562 Z M 27.933594 7.351562 "/>
<path style=" stroke:none;fill-rule:nonzero;fill:rgb(0%,0%,0%);fill-opacity:1;" d="M 3.183594 9.546875 C 3.414062 9.546875 3.640625 9.417969 3.75 9.195312 C 3.90625 8.878906 3.78125 8.496094 3.464844 8.339844 L 0.921875 7.066406 C 0.605469 6.914062 0.226562 7.039062 0.0664062 7.351562 C -0.0898438 7.667969 0.0390625 8.046875 0.351562 8.207031 L 2.898438 9.476562 C 2.988281 9.523438 3.085938 9.546875 3.183594 9.546875 Z M 3.183594 9.546875 "/>
</g>
</svg>
