<?xml version="1.0" encoding="UTF-8"?>
<svg xmlns="http://www.w3.org/2000/svg" xmlns:xlink="http://www.w3.org/1999/xlink" width="28pt" height="28pt" viewBox="0 0 28 28" version="1.1">
<g id="surface1">
<path style=" stroke:none;fill-rule:nonzero;fill:rgb(0%,0%,0%);fill-opacity:1;" d="M 25.992188 21.042969 L 25.097656 16.320312 C 25.0625 16.125 24.929688 15.957031 24.75 15.875 C 24.566406 15.796875 24.355469 15.808594 24.1875 15.910156 L 20.070312 18.390625 C 19.828125 18.535156 19.71875 18.828125 19.804688 19.097656 C 19.890625 19.363281 20.148438 19.539062 20.425781 19.519531 L 22.035156 19.40625 C 20.5 21.46875 18.191406 22.316406 15.539062 22.535156 L 15.539062 9.023438 L 16.863281 9.023438 C 17.078125 9.183594 17.339844 9.28125 17.625 9.28125 C 18.332031 9.28125 18.910156 8.707031 18.910156 8 C 18.910156 7.289062 18.332031 6.714844 17.625 6.714844 C 17.339844 6.714844 17.074219 6.8125 16.863281 6.972656 L 15.539062 6.972656 L 15.539062 5.117188 C 16.292969 4.617188 16.792969 3.761719 16.792969 2.792969 C 16.792969 1.253906 15.539062 0 14 0 C 12.460938 0 11.207031 1.253906 11.207031 2.792969 C 11.207031 3.761719 11.707031 4.617188 12.460938 5.117188 L 12.460938 6.972656 L 11.136719 6.972656 C 10.925781 6.8125 10.660156 6.714844 10.375 6.714844 C 9.664062 6.714844 9.089844 7.289062 9.089844 8 C 9.089844 8.707031 9.664062 9.28125 10.375 9.28125 C 10.660156 9.28125 10.921875 9.183594 11.136719 9.023438 L 12.460938 9.023438 L 12.460938 22.535156 C 9.808594 22.316406 7.5 21.46875 5.964844 19.40625 L 7.574219 19.519531 C 7.851562 19.539062 8.109375 19.363281 8.195312 19.097656 C 8.28125 18.828125 8.171875 18.539062 7.929688 18.390625 L 3.8125 15.910156 C 3.644531 15.808594 3.433594 15.796875 3.25 15.875 C 3.070312 15.957031 2.9375 16.125 2.902344 16.320312 L 2.007812 21.042969 C 1.957031 21.316406 2.101562 21.59375 2.355469 21.707031 C 2.613281 21.824219 2.914062 21.75 3.089844 21.527344 L 4.046875 20.289062 C 5.925781 23.328125 8.875 25.875 12.28125 26.535156 L 13.570312 27.820312 C 13.808594 28.058594 14.191406 28.058594 14.429688 27.820312 L 15.71875 26.535156 C 19.121094 25.875 22.074219 23.328125 23.953125 20.289062 L 24.910156 21.527344 C 25.085938 21.75 25.386719 21.824219 25.640625 21.707031 C 25.898438 21.59375 26.042969 21.316406 25.992188 21.042969 Z M 14 2.054688 C 14.40625 2.054688 14.738281 2.382812 14.738281 2.792969 C 14.738281 3.199219 14.40625 3.527344 14 3.527344 C 13.59375 3.527344 13.261719 3.199219 13.261719 2.792969 C 13.261719 2.382812 13.59375 2.054688 14 2.054688 Z M 14 2.054688 "/>
</g>
</svg>
