<?xml version="1.0" encoding="UTF-8"?>
<svg xmlns="http://www.w3.org/2000/svg" xmlns:xlink="http://www.w3.org/1999/xlink" width="28pt" height="28pt" viewBox="0 0 28 28" version="1.1">
<g id="surface1">
<path style=" stroke:none;fill-rule:nonzero;fill:rgb(0%,0%,0%);fill-opacity:1;" d="M 23.625 13.125 L 6.167969 13.125 L 12.851562 6.757812 C 13.203125 6.425781 13.21875 5.871094 12.882812 5.519531 C 12.550781 5.171875 11.996094 5.15625 11.644531 5.492188 L 4.011719 12.761719 C 3.683594 13.09375 3.5 13.53125 3.5 14 C 3.5 14.46875 3.683594 14.90625 4.027344 15.253906 L 11.648438 22.507812 C 11.816406 22.671875 12.03125 22.75 12.25 22.75 C 12.480469 22.75 12.710938 22.660156 12.882812 22.476562 C 13.21875 22.128906 13.203125 21.574219 12.855469 21.242188 L 6.140625 14.875 L 23.625 14.875 C 24.109375 14.875 24.5 14.484375 24.5 14 C 24.5 13.515625 24.109375 13.125 23.625 13.125 Z M 23.625 13.125 "/>
</g>
</svg>
