<?xml version="1.0" encoding="UTF-8"?>
<svg xmlns="http://www.w3.org/2000/svg" xmlns:xlink="http://www.w3.org/1999/xlink" width="28pt" height="28pt" viewBox="0 0 28 28" version="1.1">
<g id="surface1">
<path style=" stroke:none;fill-rule:nonzero;fill:rgb(0%,0%,0%);fill-opacity:1;" d="M 27.550781 12.910156 L 17.441406 2.800781 C 17.152344 2.511719 16.765625 2.351562 16.355469 2.351562 C 15.945312 2.351562 15.5625 2.511719 15.273438 2.800781 L 14.355469 3.71875 C 14.066406 4.007812 13.90625 4.390625 13.90625 4.800781 C 13.90625 5.210938 14.066406 5.609375 14.355469 5.898438 L 20.253906 11.808594 L 1.511719 11.808594 C 0.667969 11.808594 0 12.472656 0 13.316406 L 0 14.617188 C 0 15.460938 0.667969 16.1875 1.511719 16.1875 L 20.320312 16.1875 L 14.355469 22.132812 C 14.066406 22.421875 13.90625 22.796875 13.90625 23.207031 C 13.90625 23.617188 14.066406 23.996094 14.355469 24.285156 L 15.273438 25.199219 C 15.5625 25.488281 15.945312 25.648438 16.355469 25.648438 C 16.765625 25.648438 17.152344 25.488281 17.441406 25.199219 L 27.550781 15.085938 C 27.84375 14.796875 28 14.410156 28 14 C 28 13.589844 27.84375 13.203125 27.550781 12.910156 Z M 27.550781 12.910156 "/>
</g>
</svg>
