<?xml version="1.0" encoding="UTF-8"?>
<svg xmlns="http://www.w3.org/2000/svg" xmlns:xlink="http://www.w3.org/1999/xlink" width="28pt" height="28pt" viewBox="0 0 28 28" version="1.1">
<g id="surface1">
<path style=" stroke:none;fill-rule:nonzero;fill:rgb(0%,0%,0%);fill-opacity:1;" d="M 14 0 C 6.28125 0 0 6.28125 0 14 C 0 21.71875 6.28125 28 14 28 C 21.71875 28 28 21.71875 28 14 C 28 6.28125 21.71875 0 14 0 Z M 14 26.78125 C 6.953125 26.78125 1.21875 21.046875 1.21875 14 C 1.21875 6.953125 6.953125 1.21875 14 1.21875 C 21.046875 1.21875 26.78125 6.953125 26.78125 14 C 26.78125 21.046875 21.046875 26.78125 14 26.78125 Z M 14 26.78125 "/>
<path style=" stroke:none;fill-rule:nonzero;fill:rgb(0%,0%,0%);fill-opacity:1;" d="M 19.304688 13.578125 L 12.003906 6.273438 C 11.765625 6.039062 11.378906 6.039062 11.144531 6.273438 C 10.90625 6.511719 10.90625 6.898438 11.144531 7.136719 L 18.011719 14.007812 L 11.140625 20.878906 C 10.90625 21.113281 10.90625 21.5 11.140625 21.738281 C 11.261719 21.855469 11.417969 21.914062 11.574219 21.914062 C 11.726562 21.914062 11.882812 21.855469 12.003906 21.738281 L 19.304688 14.4375 C 19.542969 14.199219 19.542969 13.8125 19.304688 13.578125 Z M 19.304688 13.578125 "/>
</g>
</svg>
