<?xml version="1.0" encoding="UTF-8"?>
<svg xmlns="http://www.w3.org/2000/svg" xmlns:xlink="http://www.w3.org/1999/xlink" width="28pt" height="28pt" viewBox="0 0 28 28" version="1.1">
<g id="surface1">
<path style=" stroke:none;fill-rule:nonzero;fill:rgb(0%,0%,0%);fill-opacity:1;" d="M 17.9375 27.125 L 17.5 27.125 L 17.5 25.8125 C 17.5 25.570312 17.304688 25.375 17.0625 25.375 L 16.625 25.375 C 16.382812 25.375 16.1875 25.179688 16.1875 24.9375 C 16.1875 24.695312 16.382812 24.5 16.625 24.5 C 16.867188 24.5 17.0625 24.304688 17.0625 24.0625 C 17.0625 23.820312 16.867188 23.625 16.625 23.625 L 16.617188 23.625 L 16.195312 4.375 C 16.433594 4.371094 16.625 4.175781 16.625 3.9375 C 16.625 3.695312 16.429688 3.5 16.1875 3.5 C 15.945312 3.5 15.75 3.304688 15.75 3.0625 C 15.75 2.820312 15.945312 2.625 16.1875 2.625 C 16.429688 2.625 16.625 2.429688 16.625 2.1875 L 16.625 0.875 L 17.0625 0.875 C 17.304688 0.875 17.5 0.679688 17.5 0.4375 C 17.5 0.195312 17.304688 0 17.0625 0 L 10.9375 0 C 10.695312 0 10.5 0.195312 10.5 0.4375 C 10.5 0.679688 10.695312 0.875 10.9375 0.875 L 11.375 0.875 L 11.375 2.1875 C 11.375 2.429688 11.570312 2.625 11.8125 2.625 C 12.054688 2.625 12.25 2.820312 12.25 3.0625 C 12.25 3.304688 12.054688 3.5 11.8125 3.5 C 11.570312 3.5 11.375 3.695312 11.375 3.9375 C 11.375 4.175781 11.566406 4.371094 11.804688 4.375 L 11.382812 23.625 L 11.375 23.625 C 11.132812 23.625 10.9375 23.820312 10.9375 24.0625 C 10.9375 24.304688 11.132812 24.5 11.375 24.5 C 11.617188 24.5 11.8125 24.695312 11.8125 24.9375 C 11.8125 25.179688 11.617188 25.375 11.375 25.375 L 10.9375 25.375 C 10.695312 25.375 10.5 25.570312 10.5 25.8125 L 10.5 27.125 L 10.0625 27.125 C 9.820312 27.125 9.625 27.320312 9.625 27.5625 C 9.625 27.804688 9.820312 28 10.0625 28 L 17.9375 28 C 18.179688 28 18.375 27.804688 18.375 27.5625 C 18.375 27.320312 18.179688 27.125 17.9375 27.125 Z M 15.75 0.875 L 15.75 1.75 L 12.25 1.75 L 12.25 0.875 Z M 12.613281 24.5 L 13.5625 24.5 C 13.804688 24.5 14 24.304688 14 24.0625 C 14 23.820312 13.804688 23.625 13.5625 23.625 L 12.257812 23.625 L 12.679688 4.375 L 14 4.375 C 14.242188 4.375 14.4375 4.179688 14.4375 3.9375 C 14.4375 3.695312 14.242188 3.5 14 3.5 L 13.050781 3.5 C 13.097656 3.363281 13.125 3.214844 13.125 3.0625 C 13.125 2.910156 13.097656 2.761719 13.050781 2.625 L 14.949219 2.625 C 14.902344 2.761719 14.875 2.910156 14.875 3.0625 C 14.875 3.453125 15.046875 3.800781 15.316406 4.042969 L 15.742188 23.625 L 15.3125 23.625 C 15.070312 23.625 14.875 23.820312 14.875 24.0625 C 14.875 24.304688 15.070312 24.5 15.3125 24.5 L 15.386719 24.5 C 15.339844 24.636719 15.3125 24.785156 15.3125 24.9375 C 15.3125 25.089844 15.339844 25.238281 15.386719 25.375 L 12.613281 25.375 C 12.660156 25.238281 12.6875 25.089844 12.6875 24.9375 C 12.6875 24.785156 12.660156 24.636719 12.613281 24.5 Z M 11.375 26.25 L 16.625 26.25 L 16.625 27.125 L 11.375 27.125 Z M 11.375 26.25 "/>
</g>
</svg>
