<?xml version="1.0" encoding="UTF-8" standalone="no"?>
<svg
   width="28pt"
   height="28pt"
   viewBox="0 0 28 28"
   version="1.1"
   id="svg14"
   sodipodi:docname="b8.svg"
   inkscape:version="1.1 (c4e8f9e, 2021-05-24)"
   xmlns:inkscape="http://www.inkscape.org/namespaces/inkscape"
   xmlns:sodipodi="http://sodipodi.sourceforge.net/DTD/sodipodi-0.dtd"
   xmlns="http://www.w3.org/2000/svg"
   xmlns:svg="http://www.w3.org/2000/svg">
  <defs
     id="defs18" />
  <sodipodi:namedview
     id="namedview16"
     pagecolor="#ffffff"
     bordercolor="#666666"
     borderopacity="1.0"
     inkscape:pageshadow="2"
     inkscape:pageopacity="0.0"
     inkscape:pagecheckerboard="0"
     inkscape:document-units="pt"
     showgrid="false"
     inkscape:zoom="16"
     inkscape:cx="13.65625"
     inkscape:cy="24.84375"
     inkscape:window-width="1920"
     inkscape:window-height="1027"
     inkscape:window-x="0"
     inkscape:window-y="25"
     inkscape:window-maximized="1"
     inkscape:current-layer="svg14" />
  <rect
     style="opacity:1;fill:none;stroke:#000000;stroke-width:1.1728;stroke-linejoin:round;stroke-miterlimit:4;stroke-dasharray:none;stroke-opacity:1;paint-order:markers fill stroke"
     id="rect308"
     width="26.606733"
     height="26.606733"
     x="0.72813225"
     y="0.72813225"
     ry="4.3362432"
     rx="4.3362441" />
  <path
     style="fill:#000000;fill-opacity:1;fill-rule:nonzero;stroke:none"
     d="m 17.673503,17.307814 c 0,0.550781 -0.109375,1.027344 -0.292969,1.429688 -0.183594,0.402343 -0.476562,0.769531 -0.804687,1.027343 -0.367188,0.292969 -0.808594,0.515626 -1.359375,0.660157 -0.511719,0.148437 -1.097656,0.21875 -1.796875,0.21875 -0.621094,0 -1.171875,-0.07031 -1.683594,-0.21875 -0.515625,-0.109375 -0.917969,-0.292969 -1.285156,-0.585938 -0.328126,-0.257812 -0.5859385,-0.550781 -0.7695315,-0.953125 -0.183594,-0.367187 -0.292969,-0.808594 -0.292969,-1.285156 0,-0.402344 0.07422,-0.734375 0.183593,-1.0625 0.144532,-0.332031 0.328126,-0.625 0.5507815,-0.882812 0.253907,-0.292969 0.546876,-0.550782 0.878907,-0.769532 0.367188,-0.21875 0.734375,-0.476562 1.171875,-0.660156 -0.367187,-0.21875 -0.695313,-0.402344 -0.988281,-0.625 -0.292969,-0.21875 -0.550782,-0.476562 -0.734375,-0.734375 -0.218751,-0.253906 -0.367189,-0.511719 -0.4765635,-0.804687 -0.109375,-0.292969 -0.148437,-0.625 -0.148437,-0.953126 0,-0.441406 0.07422,-0.84375 0.2226555,-1.2109375 0.144531,-0.367187 0.402345,-0.699219 0.695314,-0.992187 0.332031,-0.257813 0.734374,-0.476563 1.210937,-0.621094 0.476563,-0.183594 1.0625,-0.257813 1.6875,-0.257813 0.621094,0 1.171875,0.074219 1.613281,0.21875 0.4375,0.148438 0.84375,0.367188 1.136719,0.625 0.292969,0.21875 0.476563,0.550781 0.621094,0.878907 0.148437,0.3671875 0.222656,0.7343745 0.222656,1.1367185 0,0.292969 -0.03906,0.625 -0.148437,0.917969 -0.109376,0.292969 -0.257813,0.585937 -0.476563,0.84375 -0.183594,0.257813 -0.441406,0.515625 -0.734375,0.734375 -0.292969,0.257812 -0.621094,0.441406 -1.027344,0.660156 0.476563,0.21875 0.84375,0.441406 1.210938,0.695313 0.332031,0.222656 0.625,0.480469 0.878906,0.734375 0.222656,0.257812 0.40625,0.550781 0.550781,0.84375 0.109375,0.292968 0.183594,0.625 0.183594,0.992187 z m -2.050781,-6.273437 c 0,-0.292969 -0.03906,-0.515625 -0.148438,-0.734375 -0.07422,-0.21875 -0.21875,-0.4023445 -0.402344,-0.5507815 -0.183593,-0.144532 -0.40625,-0.257813 -0.660156,-0.328126 -0.257812,-0.109374 -0.550781,-0.148437 -0.882812,-0.148437 -0.695313,0 -1.207032,0.183594 -1.539063,0.476563 -0.367187,0.2929685 -0.550781,0.7343745 -0.550781,1.2851565 0,0.21875 0.03906,0.476562 0.148438,0.660156 0.07422,0.21875 0.21875,0.441406 0.402343,0.625 0.183594,0.183594 0.40625,0.367188 0.660157,0.546875 0.292968,0.183594 0.625,0.367187 0.992187,0.550781 0.621094,-0.328125 1.136719,-0.660156 1.464844,-1.0625 0.332031,-0.402344 0.515625,-0.84375 0.515625,-1.320312 z m 0.402344,6.457031 c 0,-0.292969 -0.07422,-0.550781 -0.183594,-0.808594 -0.109375,-0.21875 -0.257813,-0.441406 -0.476563,-0.660156 -0.21875,-0.183594 -0.476562,-0.402344 -0.808593,-0.585937 -0.328126,-0.183594 -0.695313,-0.402344 -1.136719,-0.585938 -0.402344,0.183594 -0.769531,0.367188 -1.0625,0.585938 -0.292969,0.183593 -0.550781,0.367187 -0.734375,0.585937 -0.183594,0.21875 -0.328125,0.441406 -0.4375,0.660156 -0.07422,0.222657 -0.148438,0.476563 -0.148438,0.769531 0,0.625 0.222656,1.101563 0.625,1.433594 0.4375,0.328125 1.0625,0.511719 1.90625,0.511719 0.804688,0 1.394532,-0.183594 1.832032,-0.511719 0.402343,-0.367187 0.625,-0.808594 0.625,-1.394531 z m 0,0"
     id="path2362" />
</svg>
