<?xml version="1.0" encoding="UTF-8"?>
<svg xmlns="http://www.w3.org/2000/svg" xmlns:xlink="http://www.w3.org/1999/xlink" width="28pt" height="28pt" viewBox="0 0 28 28" version="1.1">
<g id="surface1">
<path style=" stroke:none;fill-rule:nonzero;fill:rgb(0%,0%,0%);fill-opacity:1;" d="M 14 26.425781 C 8.785156 26.425781 4.214844 23 2.992188 18.234375 C 1.335938 18.207031 0 16.847656 0 15.1875 C 0 13.507812 1.367188 12.140625 3.046875 12.140625 L 3.308594 12.140625 C 4.058594 10.121094 5.464844 8.320312 7.292969 7.046875 C 7.480469 6.914062 7.746094 6.957031 7.882812 7.148438 C 8.015625 7.34375 7.96875 7.605469 7.777344 7.742188 C 6.011719 8.972656 4.671875 10.734375 4.011719 12.699219 C 3.953125 12.871094 3.792969 12.988281 3.609375 12.988281 L 3.046875 12.988281 C 1.835938 12.988281 0.847656 13.976562 0.847656 15.1875 C 0.847656 16.398438 1.835938 17.386719 3.046875 17.386719 L 3.324219 17.386719 C 3.523438 17.386719 3.699219 17.527344 3.738281 17.71875 C 4.746094 22.273438 9.0625 25.578125 14 25.578125 C 18.9375 25.578125 23.253906 22.273438 24.261719 17.71875 C 24.304688 17.527344 24.476562 17.386719 24.675781 17.386719 L 24.953125 17.386719 C 26.164062 17.386719 27.152344 16.398438 27.152344 15.1875 C 27.152344 13.976562 26.164062 12.988281 24.953125 12.988281 L 24.390625 12.988281 C 24.207031 12.988281 24.046875 12.871094 23.988281 12.699219 C 23.320312 10.71875 22.027344 9.011719 20.253906 7.761719 C 20.058594 7.628906 20.015625 7.363281 20.148438 7.171875 C 20.285156 6.980469 20.550781 6.933594 20.738281 7.066406 C 22.578125 8.359375 23.941406 10.109375 24.691406 12.140625 L 24.953125 12.140625 C 26.632812 12.140625 28 13.507812 28 15.1875 C 28 16.851562 26.664062 18.207031 25.011719 18.234375 C 23.789062 23 19.214844 26.425781 14 26.425781 Z M 14 26.425781 "/>
<path style=" stroke:none;fill-rule:nonzero;fill:rgb(0%,0%,0%);fill-opacity:1;" d="M 18.582031 16.824219 C 18.582031 17.390625 18.121094 17.847656 17.554688 17.847656 C 16.988281 17.847656 16.53125 17.390625 16.53125 16.824219 C 16.53125 16.257812 16.988281 15.800781 17.554688 15.800781 C 18.121094 15.800781 18.582031 16.257812 18.582031 16.824219 Z M 18.582031 16.824219 "/>
<path style=" stroke:none;fill-rule:nonzero;fill:rgb(0%,0%,0%);fill-opacity:1;" d="M 11.859375 16.824219 C 11.859375 17.390625 11.402344 17.847656 10.835938 17.847656 C 10.269531 17.847656 9.8125 17.390625 9.8125 16.824219 C 9.8125 16.257812 10.269531 15.800781 10.835938 15.800781 C 11.402344 15.800781 11.859375 16.257812 11.859375 16.824219 Z M 11.859375 16.824219 "/>
<path style=" stroke:none;fill-rule:nonzero;fill:rgb(0%,0%,0%);fill-opacity:1;" d="M 14 22.371094 C 12.960938 22.371094 11.925781 22.085938 11 21.515625 L 10.835938 21.414062 C 10.636719 21.292969 10.574219 21.03125 10.695312 20.832031 C 10.820312 20.632812 11.082031 20.570312 11.277344 20.691406 L 11.445312 20.792969 C 13.023438 21.765625 14.980469 21.761719 16.554688 20.792969 L 16.71875 20.691406 C 16.917969 20.570312 17.179688 20.628906 17.304688 20.828125 C 17.425781 21.027344 17.363281 21.289062 17.164062 21.414062 L 17 21.515625 C 16.074219 22.085938 15.035156 22.371094 14 22.371094 Z M 14 22.371094 "/>
<path style=" stroke:none;fill-rule:nonzero;fill:rgb(0%,0%,0%);fill-opacity:1;" d="M 14 7.402344 C 12.886719 7.402344 11.984375 6.496094 11.984375 5.386719 C 11.984375 4.273438 12.886719 3.371094 14 3.371094 C 15.113281 3.371094 16.015625 4.273438 16.015625 5.386719 C 16.015625 6.496094 15.113281 7.402344 14 7.402344 Z M 14 4.21875 C 13.355469 4.21875 12.832031 4.742188 12.832031 5.386719 C 12.832031 6.027344 13.355469 6.550781 14 6.550781 C 14.644531 6.550781 15.167969 6.027344 15.167969 5.386719 C 15.167969 4.742188 14.644531 4.21875 14 4.21875 Z M 14 4.21875 "/>
<path style=" stroke:none;fill-rule:nonzero;fill:rgb(0%,0%,0%);fill-opacity:1;" d="M 18.859375 9.199219 C 18.609375 9.199219 18.359375 9.152344 18.117188 9.058594 L 13.84375 7.371094 C 13.625 7.285156 13.519531 7.039062 13.605469 6.820312 C 13.691406 6.601562 13.9375 6.496094 14.15625 6.582031 L 18.429688 8.269531 C 18.796875 8.414062 19.191406 8.367188 19.515625 8.148438 C 19.839844 7.925781 20.023438 7.574219 20.023438 7.183594 L 20.023438 3.589844 C 20.023438 3.195312 19.839844 2.84375 19.515625 2.621094 C 19.1875 2.402344 18.792969 2.359375 18.429688 2.503906 L 14.15625 4.1875 C 13.9375 4.277344 13.691406 4.167969 13.605469 3.949219 C 13.519531 3.734375 13.625 3.484375 13.84375 3.402344 L 18.117188 1.714844 C 18.738281 1.46875 19.441406 1.546875 19.992188 1.921875 C 20.542969 2.296875 20.875 2.921875 20.875 3.589844 L 20.875 7.183594 C 20.875 7.851562 20.542969 8.476562 19.992188 8.851562 C 19.652344 9.082031 19.257812 9.199219 18.859375 9.199219 Z M 18.859375 9.199219 "/>
<path style=" stroke:none;fill-rule:nonzero;fill:rgb(0%,0%,0%);fill-opacity:1;" d="M 9.140625 9.199219 C 8.742188 9.199219 8.347656 9.078125 8.007812 8.847656 C 7.457031 8.472656 7.125 7.851562 7.125 7.183594 L 7.125 3.589844 C 7.125 2.921875 7.457031 2.296875 8.007812 1.921875 C 8.5625 1.546875 9.261719 1.46875 9.882812 1.714844 L 14.15625 3.398438 C 14.375 3.488281 14.480469 3.734375 14.394531 3.949219 C 14.308594 4.167969 14.0625 4.277344 13.84375 4.1875 L 9.570312 2.503906 C 9.203125 2.359375 8.8125 2.402344 8.484375 2.625 C 8.160156 2.84375 7.976562 3.195312 7.976562 3.589844 L 7.976562 7.183594 C 7.976562 7.574219 8.160156 7.925781 8.484375 8.148438 C 8.808594 8.367188 9.207031 8.410156 9.570312 8.269531 L 13.84375 6.582031 C 14.0625 6.496094 14.308594 6.601562 14.394531 6.820312 C 14.480469 7.039062 14.375 7.285156 14.15625 7.371094 L 9.882812 9.058594 C 9.644531 9.152344 9.390625 9.199219 9.140625 9.199219 Z M 9.140625 9.199219 "/>
</g>
</svg>
