<?xml version="1.0" encoding="UTF-8"?>
<svg xmlns="http://www.w3.org/2000/svg" xmlns:xlink="http://www.w3.org/1999/xlink" width="28pt" height="28pt" viewBox="0 0 28 28" version="1.1">
<g id="surface1">
<path style=" stroke:none;fill-rule:nonzero;fill:rgb(0%,0%,0%);fill-opacity:1;" d="M 15.300781 28 L 12.699219 28 C 12.027344 28 11.378906 27.808594 10.8125 27.449219 L 10.027344 26.949219 L 10.027344 27.414062 C 10.027344 27.492188 9.992188 27.566406 9.933594 27.617188 C 9.871094 27.667969 9.792969 27.691406 9.714844 27.675781 L 7.640625 27.304688 C 6.273438 27.058594 5.285156 25.832031 5.339844 24.445312 C 5.460938 21.367188 5.691406 15.695312 5.875 12.28125 C 6.070312 8.710938 6.871094 3.3125 7.328125 0.414062 C 7.367188 0.167969 7.566406 0 7.8125 0 C 7.8125 0 7.816406 0 7.816406 0 C 8.066406 0.00390625 8.265625 0.175781 8.300781 0.425781 L 9.242188 7.300781 L 10.605469 7.144531 C 12.859375 6.886719 15.140625 6.886719 17.394531 7.144531 L 18.757812 7.300781 L 19.699219 0.425781 C 19.734375 0.175781 19.933594 0.00390625 20.183594 0 C 20.183594 0 20.1875 0 20.1875 0 C 20.433594 0 20.632812 0.167969 20.671875 0.414062 C 21.128906 3.3125 21.929688 8.710938 22.125 12.28125 C 22.308594 15.683594 22.539062 21.363281 22.660156 24.445312 C 22.714844 25.832031 21.726562 27.058594 20.359375 27.304688 L 18.285156 27.675781 C 18.207031 27.691406 18.128906 27.667969 18.066406 27.617188 C 18.007812 27.566406 17.972656 27.492188 17.972656 27.414062 L 17.972656 26.949219 L 17.1875 27.449219 C 16.621094 27.808594 15.972656 28 15.300781 28 Z M 14 27.464844 L 15.300781 27.464844 C 15.867188 27.464844 16.421875 27.304688 16.898438 27 L 17.972656 26.3125 L 17.972656 20.246094 L 14.09375 21.695312 C 14.035156 21.71875 13.964844 21.71875 13.90625 21.695312 L 10.027344 20.246094 L 10.027344 26.3125 L 11.101562 27 C 11.578125 27.304688 12.132812 27.464844 12.699219 27.464844 Z M 18.507812 26.464844 L 18.507812 27.09375 L 20.265625 26.777344 C 21.371094 26.578125 22.167969 25.585938 22.125 24.464844 C 22.003906 21.386719 21.773438 15.710938 21.589844 12.308594 C 21.402344 8.882812 20.652344 3.746094 20.191406 0.796875 L 19.253906 7.632812 C 19.234375 7.777344 19.101562 7.878906 18.957031 7.863281 L 17.332031 7.675781 C 15.121094 7.425781 12.878906 7.425781 10.667969 7.675781 L 9.042969 7.863281 C 8.898438 7.878906 8.769531 7.777344 8.746094 7.632812 L 7.808594 0.796875 C 7.347656 3.746094 6.597656 8.882812 6.410156 12.308594 C 6.226562 15.722656 5.996094 21.390625 5.875 24.464844 C 5.832031 25.585938 6.628906 26.578125 7.734375 26.777344 L 9.492188 27.09375 L 9.492188 26.464844 C 9.492188 26.460938 9.492188 26.457031 9.492188 26.453125 L 9.492188 19.859375 C 9.492188 19.773438 9.535156 19.691406 9.609375 19.640625 C 9.679688 19.589844 9.773438 19.578125 9.855469 19.609375 L 14 21.160156 L 18.144531 19.609375 C 18.226562 19.578125 18.320312 19.589844 18.390625 19.640625 C 18.464844 19.691406 18.507812 19.773438 18.507812 19.859375 L 18.507812 26.453125 C 18.507812 26.457031 18.507812 26.460938 18.507812 26.464844 Z M 16.742188 24.542969 C 16.714844 24.542969 16.6875 24.539062 16.660156 24.527344 C 16.648438 24.523438 15.152344 24.054688 14 24.054688 C 12.847656 24.054688 11.355469 24.523438 11.339844 24.527344 C 11.199219 24.574219 11.046875 24.496094 11.003906 24.355469 C 10.957031 24.214844 11.035156 24.0625 11.175781 24.019531 C 11.242188 24 12.765625 23.515625 14 23.515625 C 15.238281 23.515625 16.761719 24 16.824219 24.019531 C 16.964844 24.0625 17.042969 24.214844 17 24.355469 C 16.960938 24.46875 16.855469 24.542969 16.742188 24.542969 Z M 16.871094 17.671875 C 16.609375 17.671875 16.371094 17.609375 16.15625 17.484375 C 15.550781 17.132812 15.417969 16.402344 15.410156 16.371094 C 15.386719 16.238281 15.46875 16.109375 15.59375 16.070312 L 19.28125 14.914062 C 19.378906 14.886719 19.488281 14.914062 19.558594 14.992188 C 19.628906 15.066406 19.648438 15.179688 19.609375 15.273438 C 19.578125 15.347656 18.839844 17.097656 17.605469 17.535156 C 17.34375 17.625 17.101562 17.671875 16.871094 17.671875 Z M 16.007812 16.503906 C 16.078125 16.671875 16.207031 16.894531 16.429688 17.023438 C 16.683594 17.171875 17.019531 17.171875 17.429688 17.027344 C 18.050781 16.808594 18.546875 16.117188 18.835938 15.617188 Z M 11.128906 17.671875 C 10.898438 17.671875 10.65625 17.625 10.394531 17.535156 C 9.160156 17.097656 8.421875 15.347656 8.390625 15.273438 C 8.351562 15.179688 8.371094 15.066406 8.441406 14.992188 C 8.511719 14.914062 8.621094 14.886719 8.71875 14.914062 L 12.40625 16.070312 C 12.535156 16.109375 12.613281 16.238281 12.589844 16.371094 C 12.582031 16.402344 12.449219 17.132812 11.84375 17.484375 C 11.628906 17.609375 11.390625 17.671875 11.128906 17.671875 Z M 9.164062 15.617188 C 9.453125 16.117188 9.949219 16.808594 10.570312 17.027344 C 10.980469 17.171875 11.316406 17.171875 11.570312 17.023438 C 11.792969 16.894531 11.921875 16.671875 11.992188 16.503906 Z M 9.164062 15.617188 "/>
</g>
</svg>
