<?xml version="1.0" encoding="UTF-8"?>
<svg xmlns="http://www.w3.org/2000/svg" xmlns:xlink="http://www.w3.org/1999/xlink" width="28pt" height="28pt" viewBox="0 0 28 28" version="1.1">
<g id="surface1">
<path style=" stroke:none;fill-rule:nonzero;fill:rgb(0%,0%,0%);fill-opacity:1;" d="M 19.960938 12.03125 L 19.960938 10.386719 L 22.679688 10.386719 L 22.679688 8.746094 L 18.320312 8.746094 L 18.320312 12.03125 L 14.820312 12.03125 L 14.820312 3.390625 C 14.820312 2.425781 15.605469 1.640625 16.570312 1.640625 C 17.535156 1.640625 18.320312 2.425781 18.320312 3.390625 L 18.320312 5.46875 L 19.960938 5.46875 L 19.960938 3.390625 C 19.960938 1.519531 18.441406 0 16.570312 0 C 14.699219 0 13.179688 1.519531 13.179688 3.390625 L 13.179688 12.03125 L 9.679688 12.03125 L 9.679688 8.746094 L 5.320312 8.746094 L 5.320312 10.386719 L 8.039062 10.386719 L 8.039062 12.03125 L 0 12.03125 L 0 14.011719 C 0 19.015625 4.070312 23.085938 9.074219 23.085938 L 11.539062 23.085938 L 11.539062 25.539062 C 11.539062 26.894531 12.640625 28 14 28 C 15.359375 28 16.460938 26.894531 16.460938 25.539062 L 16.460938 23.085938 L 18.925781 23.085938 C 23.929688 23.085938 28 19.015625 28 14.011719 L 28 12.03125 Z M 14.820312 25.539062 C 14.820312 25.992188 14.453125 26.359375 14 26.359375 C 13.546875 26.359375 13.179688 25.992188 13.179688 25.539062 L 13.179688 23.085938 L 14.820312 23.085938 Z M 26.359375 14.011719 C 26.359375 18.109375 23.023438 21.445312 18.925781 21.445312 L 9.074219 21.445312 C 4.976562 21.445312 1.640625 18.109375 1.640625 14.011719 L 1.640625 13.671875 L 26.359375 13.671875 Z M 26.359375 14.011719 "/>
</g>
</svg>
