<?xml version="1.0" encoding="UTF-8"?>
<svg xmlns="http://www.w3.org/2000/svg" xmlns:xlink="http://www.w3.org/1999/xlink" width="28pt" height="28pt" viewBox="0 0 28 28" version="1.1">
<g id="surface1">
<path style=" stroke:none;fill-rule:nonzero;fill:rgb(0.392157%,0%,0.784314%);fill-opacity:1;" d="M 19.078125 0 L 17.046875 0 L 17.046875 14.578125 L 0.285156 14.578125 L 0.285156 16.253906 L 19.078125 16.253906 Z M 19.078125 0 "/>
<path style=" stroke:none;fill-rule:nonzero;fill:rgb(0.392157%,0%,0.784314%);fill-opacity:1;" d="M 20.09375 3.554688 L 20.09375 15.746094 L 22.253906 15.746094 L 22.253906 18.214844 C 22.253906 18.71875 21.84375 19.128906 21.339844 19.128906 L 19.035156 19.128906 C 19.0625 19.050781 19.074219 19.007812 19.074219 19.007812 C 19.269531 18.300781 19.386719 17.554688 19.386719 16.761719 L 0.285156 16.761719 C 0.285156 25.238281 6.804688 28 6.804688 28 L 12.523438 28 L 12.523438 25.875 L 13.070312 24.824219 L 13.078125 24.824219 C 13.25 24.773438 13.425781 24.726562 13.59375 24.664062 C 15.890625 23.789062 17.304688 22.21875 18.117188 20.953125 L 21.339844 20.953125 C 22.851562 20.953125 24.082031 19.726562 24.082031 18.214844 L 24.082031 15.746094 L 26.191406 15.75 L 27.714844 3.558594 Z M 20.09375 3.554688 "/>
<path style=" stroke:none;fill-rule:nonzero;fill:rgb(0.392157%,0%,0.784314%);fill-opacity:1;" d="M 20.09375 1.523438 L 27.714844 1.523438 L 27.714844 3.046875 L 20.09375 3.046875 Z M 20.09375 1.523438 "/>
</g>
</svg>
