<?xml version="1.0" encoding="UTF-8"?>
<svg xmlns="http://www.w3.org/2000/svg" xmlns:xlink="http://www.w3.org/1999/xlink" width="28pt" height="28pt" viewBox="0 0 28 28" version="1.1">
<g id="surface1">
<path style=" stroke:none;fill-rule:nonzero;fill:rgb(0%,0%,0%);fill-opacity:1;" d="M 21.476562 0 L 17.007812 0 C 14.234375 0 11.976562 2.230469 11.925781 4.988281 C 10.316406 5.210938 8.953125 6.300781 8.390625 7.832031 L 8.242188 7.832031 C 7.902344 7.832031 7.628906 8.105469 7.628906 8.441406 L 7.628906 10.308594 C 7.628906 10.648438 7.902344 10.921875 8.242188 10.921875 L 16.828125 10.921875 C 17.164062 10.921875 17.4375 10.648438 17.4375 10.308594 L 17.4375 8.441406 C 17.4375 8.105469 17.164062 7.832031 16.828125 7.832031 L 16.679688 7.832031 C 16.117188 6.300781 14.757812 5.210938 13.148438 4.988281 C 13.195312 2.902344 14.90625 1.222656 17.007812 1.222656 L 21.476562 1.222656 C 21.8125 1.222656 22.085938 0.949219 22.085938 0.609375 C 22.085938 0.273438 21.8125 0 21.476562 0 Z M 16.21875 9.699219 L 8.851562 9.699219 L 8.851562 9.054688 L 16.21875 9.054688 Z M 15.34375 7.832031 L 9.726562 7.832031 C 10.273438 6.824219 11.339844 6.167969 12.535156 6.167969 C 13.730469 6.167969 14.796875 6.824219 15.34375 7.832031 Z M 15.34375 7.832031 "/>
<path style=" stroke:none;fill-rule:nonzero;fill:rgb(0%,0%,0%);fill-opacity:1;" d="M 8.96875 12.195312 C 8.636719 12.144531 8.324219 12.371094 8.269531 12.703125 L 7.96875 14.570312 C 7.914062 14.902344 8.140625 15.21875 8.472656 15.269531 C 8.507812 15.277344 8.539062 15.277344 8.570312 15.277344 C 8.867188 15.277344 9.125 15.066406 9.175781 14.765625 L 9.476562 12.898438 C 9.527344 12.5625 9.300781 12.25 8.96875 12.195312 Z M 8.96875 12.195312 "/>
<path style=" stroke:none;fill-rule:nonzero;fill:rgb(0%,0%,0%);fill-opacity:1;" d="M 8.28125 16.476562 C 7.949219 16.421875 7.632812 16.648438 7.582031 16.980469 L 7.28125 18.851562 C 7.226562 19.183594 7.453125 19.496094 7.785156 19.550781 C 7.816406 19.554688 7.851562 19.558594 7.882812 19.558594 C 8.175781 19.558594 8.4375 19.34375 8.484375 19.042969 L 8.785156 17.175781 C 8.839844 16.84375 8.613281 16.53125 8.28125 16.476562 Z M 8.28125 16.476562 "/>
<path style=" stroke:none;fill-rule:nonzero;fill:rgb(0%,0%,0%);fill-opacity:1;" d="M 7.589844 20.753906 C 7.257812 20.703125 6.945312 20.929688 6.890625 21.261719 L 6.589844 23.128906 C 6.535156 23.460938 6.761719 23.773438 7.097656 23.828125 C 7.128906 23.835938 7.160156 23.835938 7.195312 23.835938 C 7.488281 23.835938 7.746094 23.625 7.796875 23.324219 L 8.097656 21.453125 C 8.148438 21.121094 7.925781 20.808594 7.589844 20.753906 Z M 7.589844 20.753906 "/>
<path style=" stroke:none;fill-rule:nonzero;fill:rgb(0%,0%,0%);fill-opacity:1;" d="M 6.902344 25.035156 C 6.570312 24.980469 6.257812 25.207031 6.203125 25.539062 L 5.921875 27.292969 C 5.867188 27.625 6.09375 27.9375 6.425781 27.992188 C 6.457031 27.996094 6.492188 28 6.523438 28 C 6.816406 28 7.078125 27.785156 7.125 27.488281 L 7.40625 25.734375 C 7.460938 25.402344 7.234375 25.085938 6.902344 25.035156 Z M 6.902344 25.035156 "/>
<path style=" stroke:none;fill-rule:nonzero;fill:rgb(0%,0%,0%);fill-opacity:1;" d="M 10.882812 20.847656 C 10.546875 20.828125 10.257812 21.085938 10.238281 21.421875 L 10.136719 23.3125 C 10.121094 23.648438 10.378906 23.9375 10.714844 23.953125 C 10.726562 23.957031 10.738281 23.957031 10.75 23.957031 C 11.070312 23.957031 11.339844 23.703125 11.359375 23.378906 L 11.457031 21.488281 C 11.476562 21.152344 11.21875 20.863281 10.882812 20.847656 Z M 10.882812 20.847656 "/>
<path style=" stroke:none;fill-rule:nonzero;fill:rgb(0%,0%,0%);fill-opacity:1;" d="M 11.113281 16.519531 C 10.777344 16.5 10.488281 16.757812 10.472656 17.09375 L 10.371094 18.984375 C 10.351562 19.320312 10.609375 19.609375 10.949219 19.625 C 10.957031 19.628906 10.96875 19.628906 10.980469 19.628906 C 11.304688 19.628906 11.574219 19.375 11.589844 19.050781 L 11.691406 17.160156 C 11.710938 16.824219 11.449219 16.535156 11.113281 16.519531 Z M 11.113281 16.519531 "/>
<path style=" stroke:none;fill-rule:nonzero;fill:rgb(0%,0%,0%);fill-opacity:1;" d="M 10.648438 25.175781 C 10.3125 25.15625 10.027344 25.414062 10.007812 25.75 L 9.921875 27.355469 C 9.902344 27.695312 10.160156 27.980469 10.5 28 C 10.507812 28 10.519531 28 10.53125 28 C 10.851562 28 11.121094 27.746094 11.140625 27.421875 L 11.226562 25.816406 C 11.246094 25.480469 10.988281 25.191406 10.648438 25.175781 Z M 10.648438 25.175781 "/>
<path style=" stroke:none;fill-rule:nonzero;fill:rgb(0%,0%,0%);fill-opacity:1;" d="M 11.347656 12.191406 C 11.007812 12.171875 10.722656 12.429688 10.703125 12.765625 L 10.601562 14.65625 C 10.585938 14.992188 10.84375 15.28125 11.179688 15.300781 C 11.191406 15.300781 11.203125 15.300781 11.214844 15.300781 C 11.535156 15.300781 11.804688 15.046875 11.820312 14.722656 L 11.921875 12.832031 C 11.941406 12.496094 11.683594 12.207031 11.347656 12.191406 Z M 11.347656 12.191406 "/>
<path style=" stroke:none;fill-rule:nonzero;fill:rgb(0%,0%,0%);fill-opacity:1;" d="M 14.320312 23.957031 C 14.332031 23.957031 14.34375 23.957031 14.355469 23.953125 C 14.691406 23.9375 14.949219 23.648438 14.929688 23.3125 L 14.828125 21.421875 C 14.8125 21.085938 14.523438 20.828125 14.1875 20.847656 C 13.851562 20.863281 13.59375 21.152344 13.609375 21.488281 L 13.710938 23.378906 C 13.730469 23.703125 14 23.957031 14.320312 23.957031 Z M 14.320312 23.957031 "/>
<path style=" stroke:none;fill-rule:nonzero;fill:rgb(0%,0%,0%);fill-opacity:1;" d="M 15.0625 25.75 C 15.042969 25.414062 14.757812 25.15625 14.417969 25.175781 C 14.082031 25.191406 13.824219 25.480469 13.84375 25.816406 L 13.929688 27.421875 C 13.945312 27.746094 14.214844 28 14.539062 28 C 14.550781 28 14.558594 28 14.570312 28 C 14.90625 27.980469 15.167969 27.695312 15.148438 27.355469 Z M 15.0625 25.75 "/>
<path style=" stroke:none;fill-rule:nonzero;fill:rgb(0%,0%,0%);fill-opacity:1;" d="M 13.855469 15.300781 C 13.867188 15.300781 13.878906 15.300781 13.890625 15.300781 C 14.226562 15.28125 14.484375 14.992188 14.464844 14.65625 L 14.363281 12.765625 C 14.347656 12.429688 14.058594 12.171875 13.722656 12.191406 C 13.386719 12.207031 13.128906 12.496094 13.144531 12.832031 L 13.246094 14.722656 C 13.265625 15.046875 13.535156 15.300781 13.855469 15.300781 Z M 13.855469 15.300781 "/>
<path style=" stroke:none;fill-rule:nonzero;fill:rgb(0%,0%,0%);fill-opacity:1;" d="M 14.089844 19.628906 C 14.101562 19.628906 14.109375 19.628906 14.121094 19.625 C 14.457031 19.609375 14.71875 19.320312 14.699219 18.984375 L 14.597656 17.09375 C 14.578125 16.757812 14.292969 16.5 13.957031 16.519531 C 13.617188 16.535156 13.359375 16.824219 13.378906 17.160156 L 13.480469 19.050781 C 13.496094 19.375 13.765625 19.628906 14.089844 19.628906 Z M 14.089844 19.628906 "/>
<path style=" stroke:none;fill-rule:nonzero;fill:rgb(0%,0%,0%);fill-opacity:1;" d="M 17.972656 23.828125 C 18.304688 23.773438 18.53125 23.460938 18.480469 23.128906 L 18.179688 21.261719 C 18.125 20.929688 17.8125 20.703125 17.476562 20.753906 C 17.144531 20.808594 16.917969 21.121094 16.972656 21.453125 L 17.273438 23.324219 C 17.320312 23.625 17.582031 23.835938 17.875 23.835938 C 17.90625 23.835938 17.941406 23.835938 17.972656 23.828125 Z M 17.972656 23.828125 "/>
<path style=" stroke:none;fill-rule:nonzero;fill:rgb(0%,0%,0%);fill-opacity:1;" d="M 18.867188 25.539062 C 18.8125 25.207031 18.5 24.980469 18.167969 25.035156 C 17.835938 25.085938 17.609375 25.402344 17.660156 25.734375 L 17.945312 27.488281 C 17.992188 27.785156 18.25 28 18.546875 28 C 18.578125 28 18.609375 27.996094 18.644531 27.992188 C 18.976562 27.9375 19.203125 27.625 19.148438 27.292969 Z M 18.867188 25.539062 "/>
<path style=" stroke:none;fill-rule:nonzero;fill:rgb(0%,0%,0%);fill-opacity:1;" d="M 16.59375 15.269531 C 16.929688 15.21875 17.15625 14.902344 17.101562 14.570312 L 16.800781 12.703125 C 16.746094 12.371094 16.433594 12.144531 16.101562 12.195312 C 15.765625 12.25 15.542969 12.5625 15.59375 12.898438 L 15.894531 14.765625 C 15.945312 15.066406 16.203125 15.277344 16.496094 15.277344 C 16.53125 15.277344 16.5625 15.277344 16.59375 15.269531 Z M 16.59375 15.269531 "/>
<path style=" stroke:none;fill-rule:nonzero;fill:rgb(0%,0%,0%);fill-opacity:1;" d="M 17.285156 19.550781 C 17.617188 19.496094 17.84375 19.183594 17.789062 18.851562 L 17.488281 16.980469 C 17.4375 16.648438 17.121094 16.421875 16.789062 16.476562 C 16.457031 16.53125 16.230469 16.84375 16.285156 17.175781 L 16.585938 19.042969 C 16.632812 19.34375 16.890625 19.558594 17.1875 19.558594 C 17.21875 19.558594 17.25 19.554688 17.285156 19.550781 Z M 17.285156 19.550781 "/>
</g>
</svg>
