<?xml version="1.0" encoding="UTF-8"?>
<svg xmlns="http://www.w3.org/2000/svg" xmlns:xlink="http://www.w3.org/1999/xlink" width="28pt" height="28pt" viewBox="0 0 28 28" version="1.1">
<g id="surface1">
<path style=" stroke:none;fill-rule:nonzero;fill:rgb(0%,0%,0%);fill-opacity:1;" d="M 0 9.257812 C 0.00390625 11.742188 2.015625 13.753906 4.5 13.757812 L 23.5 13.757812 C 25.984375 13.753906 27.996094 11.742188 28 9.257812 L 28 8.257812 L 0 8.257812 Z M 0 9.257812 "/>
<path style=" stroke:none;fill-rule:nonzero;fill:rgb(0%,0%,0%);fill-opacity:1;" d="M 7.933594 4.257812 L 5.066406 4.257812 L 5.441406 7.257812 L 7.558594 7.257812 Z M 7.933594 4.257812 "/>
<path style=" stroke:none;fill-rule:nonzero;fill:rgb(0%,0%,0%);fill-opacity:1;" d="M 13.5 7.257812 L 14.5 7.257812 L 14.5 3.757812 C 14.5 2.472656 15.472656 1.394531 16.75 1.265625 C 18.027344 1.136719 19.195312 1.996094 19.449219 3.257812 L 20.464844 3.257812 C 20.207031 1.4375 18.582031 0.128906 16.75 0.257812 C 14.914062 0.390625 13.496094 1.917969 13.5 3.757812 Z M 13.5 7.257812 "/>
<path style=" stroke:none;fill-rule:nonzero;fill:rgb(0%,0%,0%);fill-opacity:1;" d="M 26 16.757812 L 27 16.757812 L 27 27.757812 L 26 27.757812 Z M 26 16.757812 "/>
<path style=" stroke:none;fill-rule:nonzero;fill:rgb(0%,0%,0%);fill-opacity:1;" d="M 0 14.757812 L 28 14.757812 L 28 15.757812 L 0 15.757812 Z M 0 14.757812 "/>
<path style=" stroke:none;fill-rule:nonzero;fill:rgb(0%,0%,0%);fill-opacity:1;" d="M 1 16.757812 L 2 16.757812 L 2 27.757812 L 1 27.757812 Z M 1 16.757812 "/>
<path style=" stroke:none;fill-rule:nonzero;fill:rgb(0%,0%,0%);fill-opacity:1;" d="M 25 20.757812 L 25 16.757812 L 3 16.757812 L 3 20.757812 Z M 12.5 17.757812 L 15.5 17.757812 L 15.5 18.757812 L 12.5 18.757812 Z M 12.5 17.757812 "/>
</g>
</svg>
