<?xml version="1.0" encoding="UTF-8"?>
<svg xmlns="http://www.w3.org/2000/svg" xmlns:xlink="http://www.w3.org/1999/xlink" width="28pt" height="28pt" viewBox="0 0 28 28" version="1.1">
<g id="surface1">
<path style=" stroke:none;fill-rule:nonzero;fill:rgb(0%,0%,0%);fill-opacity:1;" d="M 23.746094 9.203125 L 14.949219 9.203125 L 16.722656 7.429688 C 16.972656 7.175781 16.972656 6.769531 16.722656 6.515625 C 16.46875 6.265625 16.0625 6.265625 15.808594 6.515625 L 14.535156 7.792969 L 14.535156 3.101562 C 14.535156 2.101562 15.347656 1.289062 16.34375 1.289062 C 17.34375 1.289062 18.15625 2.101562 18.15625 3.101562 C 18.15625 3.457031 18.445312 3.746094 18.800781 3.746094 C 19.160156 3.746094 19.449219 3.457031 19.449219 3.101562 C 19.449219 1.390625 18.054688 0 16.34375 0 C 14.636719 0 13.242188 1.390625 13.242188 3.101562 L 13.242188 7.777344 L 11.984375 6.515625 C 11.730469 6.265625 11.324219 6.265625 11.070312 6.515625 C 10.820312 6.769531 10.820312 7.175781 11.070312 7.429688 L 12.84375 9.203125 L 4.253906 9.203125 C 3.40625 9.203125 2.714844 9.890625 2.714844 10.738281 L 2.714844 14.773438 L 25.285156 14.773438 L 25.285156 10.738281 C 25.285156 9.890625 24.59375 9.203125 23.746094 9.203125 Z M 15.125 12.761719 L 12.875 12.761719 C 12.515625 12.761719 12.226562 12.472656 12.226562 12.117188 C 12.226562 11.761719 12.515625 11.472656 12.875 11.472656 L 15.125 11.472656 C 15.484375 11.472656 15.769531 11.761719 15.769531 12.117188 C 15.769531 12.472656 15.484375 12.761719 15.125 12.761719 Z M 15.125 12.761719 "/>
<path style=" stroke:none;fill-rule:nonzero;fill:rgb(0%,0%,0%);fill-opacity:1;" d="M 14.644531 26.273438 L 21.710938 26.273438 L 21.710938 27.355469 C 21.710938 27.710938 22 28 22.355469 28 C 22.710938 28 23 27.710938 23 27.355469 L 23 26.273438 L 23.746094 26.273438 C 24.59375 26.273438 25.285156 25.582031 25.285156 24.734375 L 25.285156 16.0625 L 14.644531 16.0625 Z M 14.644531 26.273438 "/>
<path style=" stroke:none;fill-rule:nonzero;fill:rgb(0%,0%,0%);fill-opacity:1;" d="M 2.714844 24.734375 C 2.714844 25.582031 3.40625 26.273438 4.253906 26.273438 L 5 26.273438 L 5 27.355469 C 5 27.710938 5.289062 28 5.644531 28 C 6 28 6.289062 27.710938 6.289062 27.355469 L 6.289062 26.273438 L 13.355469 26.273438 L 13.355469 16.0625 L 2.714844 16.0625 Z M 2.714844 24.734375 "/>
</g>
</svg>
