<?xml version="1.0" encoding="UTF-8"?>
<svg xmlns="http://www.w3.org/2000/svg" xmlns:xlink="http://www.w3.org/1999/xlink" width="28pt" height="28pt" viewBox="0 0 28 28" version="1.1">
<g id="surface1">
<path style=" stroke:none;fill-rule:nonzero;fill:rgb(0%,0%,0%);fill-opacity:1;" d="M 27.980469 12.828125 C 27.863281 12.15625 27.28125 11.664062 26.601562 11.667969 L 3.265625 11.667969 L 3.265625 9.800781 L 4.199219 9.800781 L 4.199219 10.265625 C 4.199219 10.523438 4.410156 10.734375 4.667969 10.734375 C 4.925781 10.734375 5.132812 10.523438 5.132812 10.265625 L 5.132812 8.398438 C 5.132812 8.140625 4.925781 7.933594 4.667969 7.933594 C 4.410156 7.933594 4.199219 8.140625 4.199219 8.398438 L 4.199219 8.867188 L 3.265625 8.867188 L 3.265625 3.265625 C 3.265625 1.976562 4.3125 0.933594 5.601562 0.933594 C 6.890625 0.933594 7.933594 1.976562 7.933594 3.265625 L 7.933594 3.308594 C 6.585938 3.539062 5.601562 4.703125 5.601562 6.066406 C 5.601562 6.324219 5.808594 6.535156 6.066406 6.535156 L 10.734375 6.535156 C 10.992188 6.535156 11.199219 6.324219 11.199219 6.066406 C 11.199219 4.703125 10.210938 3.539062 8.867188 3.308594 L 8.867188 3.265625 C 8.867188 1.460938 7.402344 0 5.601562 0 C 3.796875 0 2.332031 1.460938 2.332031 3.265625 L 2.332031 11.667969 L 1.398438 11.667969 C 0.71875 11.664062 0.136719 12.15625 0.0195312 12.828125 C -0.09375 13.496094 0.289062 14.15625 0.933594 14.378906 L 0.933594 17.265625 C 0.9375 20.714844 2.941406 23.84375 6.066406 25.296875 L 6.066406 27.066406 C 6.066406 27.582031 6.484375 28 7 28 L 7.933594 28 C 8.449219 28 8.867188 27.582031 8.867188 27.066406 L 8.867188 26.082031 C 9.175781 26.117188 9.488281 26.132812 9.800781 26.132812 L 18.199219 26.132812 C 18.511719 26.132812 18.824219 26.117188 19.132812 26.082031 L 19.132812 27.066406 C 19.132812 27.582031 19.550781 28 20.066406 28 L 21 28 C 21.515625 28 21.933594 27.582031 21.933594 27.066406 L 21.933594 25.296875 C 25.058594 23.84375 27.0625 20.714844 27.066406 17.265625 L 27.066406 14.378906 C 27.710938 14.15625 28.09375 13.496094 27.980469 12.828125 Z M 10.207031 5.601562 L 6.59375 5.601562 C 6.804688 4.777344 7.546875 4.199219 8.398438 4.199219 C 9.25 4.199219 9.996094 4.777344 10.207031 5.601562 Z M 7.933594 27.066406 L 7 27.066406 L 7 25.671875 C 7.304688 25.777344 7.617188 25.863281 7.933594 25.929688 Z M 21 27.066406 L 20.066406 27.066406 L 20.066406 25.929688 C 20.382812 25.863281 20.695312 25.777344 21 25.671875 Z M 26.132812 17.265625 C 26.128906 20.453125 24.222656 23.328125 21.289062 24.574219 L 21.28125 24.578125 C 20.304688 24.988281 19.257812 25.199219 18.199219 25.199219 L 9.800781 25.199219 C 8.742188 25.199219 7.695312 24.988281 6.71875 24.578125 L 6.710938 24.574219 C 3.777344 23.328125 1.871094 20.453125 1.867188 17.265625 L 1.867188 14.464844 L 26.132812 14.464844 Z M 26.601562 13.535156 L 1.398438 13.535156 C 1.140625 13.535156 0.933594 13.324219 0.933594 13.066406 C 0.933594 12.808594 1.140625 12.601562 1.398438 12.601562 L 26.601562 12.601562 C 26.859375 12.601562 27.066406 12.808594 27.066406 13.066406 C 27.066406 13.324219 26.859375 13.535156 26.601562 13.535156 Z M 26.601562 13.535156 "/>
</g>
</svg>
