<?xml version="1.0" encoding="UTF-8"?>
<svg xmlns="http://www.w3.org/2000/svg" xmlns:xlink="http://www.w3.org/1999/xlink" width="28pt" height="28pt" viewBox="0 0 28 28" version="1.1">
<g id="surface1">
<path style=" stroke:none;fill-rule:nonzero;fill:rgb(0%,0%,0%);fill-opacity:1;" d="M 23.332031 0 L 4.667969 0 C 3.894531 0 3.265625 0.625 3.265625 1.398438 L 3.265625 26.601562 C 3.265625 27.375 3.894531 28 4.667969 28 L 23.332031 28 C 24.105469 28 24.734375 27.375 24.734375 26.601562 L 24.734375 1.398438 C 24.734375 0.625 24.105469 0 23.332031 0 Z M 23.800781 26.601562 C 23.800781 26.859375 23.589844 27.066406 23.332031 27.066406 L 4.667969 27.066406 C 4.410156 27.066406 4.199219 26.859375 4.199219 26.601562 L 4.199219 1.398438 C 4.199219 1.140625 4.410156 0.933594 4.667969 0.933594 L 23.332031 0.933594 C 23.589844 0.933594 23.800781 1.140625 23.800781 1.398438 Z M 23.800781 26.601562 "/>
<path style=" stroke:none;fill-rule:nonzero;fill:rgb(0%,0%,0%);fill-opacity:1;" d="M 22.398438 1.867188 L 5.601562 1.867188 C 5.34375 1.867188 5.132812 2.074219 5.132812 2.332031 L 5.132812 25.667969 C 5.132812 25.925781 5.34375 26.132812 5.601562 26.132812 L 22.398438 26.132812 C 22.65625 26.132812 22.867188 25.925781 22.867188 25.667969 L 22.867188 2.332031 C 22.867188 2.074219 22.65625 1.867188 22.398438 1.867188 Z M 21.933594 25.199219 L 6.066406 25.199219 L 6.066406 2.800781 L 21.933594 2.800781 Z M 21.933594 25.199219 "/>
<path style=" stroke:none;fill-rule:nonzero;fill:rgb(0%,0%,0%);fill-opacity:1;" d="M 7.449219 8.085938 C 7.574219 8.085938 7.691406 8.039062 7.78125 7.949219 L 11.082031 4.648438 C 11.203125 4.53125 11.25 4.359375 11.207031 4.195312 C 11.164062 4.03125 11.039062 3.90625 10.875 3.863281 C 10.710938 3.820312 10.539062 3.867188 10.421875 3.988281 L 7.121094 7.289062 C 6.988281 7.421875 6.945312 7.625 7.019531 7.796875 C 7.089844 7.972656 7.261719 8.085938 7.449219 8.085938 Z M 7.449219 8.085938 "/>
<path style=" stroke:none;fill-rule:nonzero;fill:rgb(0%,0%,0%);fill-opacity:1;" d="M 16.917969 24.285156 C 17.101562 24.464844 17.398438 24.464844 17.578125 24.285156 L 20.878906 20.984375 C 21.058594 20.800781 21.054688 20.507812 20.875 20.328125 C 20.695312 20.148438 20.402344 20.144531 20.21875 20.324219 L 16.917969 23.625 C 16.738281 23.804688 16.738281 24.101562 16.917969 24.285156 Z M 16.917969 24.285156 "/>
<path style=" stroke:none;fill-rule:nonzero;fill:rgb(0%,0%,0%);fill-opacity:1;" d="M 9.003906 18.996094 C 9.1875 19.179688 9.480469 19.179688 9.664062 18.996094 L 18.996094 9.664062 C 19.171875 9.480469 19.171875 9.1875 18.992188 9.007812 C 18.8125 8.828125 18.519531 8.828125 18.335938 9.003906 L 9.003906 18.335938 C 8.820312 18.519531 8.820312 18.8125 9.003906 18.996094 Z M 9.003906 18.996094 "/>
</g>
</svg>
