<?xml version="1.0" encoding="UTF-8"?>
<svg xmlns="http://www.w3.org/2000/svg" xmlns:xlink="http://www.w3.org/1999/xlink" width="28pt" height="27pt" viewBox="0 0 28 27" version="1.1">
<g id="surface1">
<path style=" stroke:none;fill-rule:nonzero;fill:rgb(0%,0%,0%);fill-opacity:1;" d="M 14.523438 26.140625 C 14.296875 26.140625 14.117188 25.964844 14.117188 25.75 L 14.117188 1.25 C 14.117188 1.035156 14.296875 0.859375 14.523438 0.859375 C 14.746094 0.859375 14.929688 1.035156 14.929688 1.25 L 14.929688 25.75 C 14.929688 25.964844 14.746094 26.140625 14.523438 26.140625 Z M 5.671875 22.335938 C 5.519531 22.335938 5.378906 22.253906 5.308594 22.121094 L 0.0429688 12.097656 C -0.0195312 11.976562 -0.015625 11.832031 0.0585938 11.71875 C 0.132812 11.601562 0.265625 11.53125 0.40625 11.53125 L 10.9375 11.53125 C 11.078125 11.53125 11.207031 11.601562 11.28125 11.71875 C 11.355469 11.832031 11.363281 11.976562 11.296875 12.097656 L 6.035156 22.121094 C 5.964844 22.253906 5.824219 22.335938 5.671875 22.335938 Z M 1.066406 12.3125 L 5.671875 21.078125 L 10.273438 12.3125 Z M 27.59375 22.300781 L 17.0625 22.300781 C 16.921875 22.300781 16.792969 22.230469 16.71875 22.113281 C 16.644531 21.996094 16.636719 21.851562 16.703125 21.730469 L 21.964844 11.710938 C 22.035156 11.578125 22.175781 11.496094 22.328125 11.496094 C 22.480469 11.496094 22.621094 11.578125 22.691406 11.710938 L 27.957031 21.730469 C 28.019531 21.851562 28.011719 21.996094 27.941406 22.113281 C 27.867188 22.230469 27.734375 22.300781 27.59375 22.300781 Z M 17.726562 21.515625 L 26.933594 21.515625 L 22.328125 12.753906 Z M 5.671875 10.714844 C 3.953125 10.714844 2.554688 9.363281 2.554688 7.707031 C 2.554688 6.050781 3.953125 4.699219 5.671875 4.699219 C 7.390625 4.699219 8.789062 6.050781 8.789062 7.707031 C 8.789062 9.363281 7.390625 10.714844 5.671875 10.714844 Z M 5.671875 5.484375 C 4.398438 5.484375 3.363281 6.480469 3.363281 7.707031 C 3.363281 8.933594 4.398438 9.929688 5.671875 9.929688 C 6.941406 9.929688 7.976562 8.933594 7.976562 7.707031 C 7.976562 6.480469 6.941406 5.484375 5.671875 5.484375 Z M 22.328125 10.675781 C 20.609375 10.675781 19.210938 9.328125 19.210938 7.671875 C 19.210938 6.011719 20.609375 4.664062 22.328125 4.664062 C 24.046875 4.664062 25.445312 6.011719 25.445312 7.671875 C 25.445312 9.328125 24.046875 10.675781 22.328125 10.675781 Z M 22.328125 5.445312 C 21.058594 5.445312 20.023438 6.445312 20.023438 7.671875 C 20.023438 8.898438 21.058594 9.894531 22.328125 9.894531 C 23.601562 9.894531 24.632812 8.898438 24.632812 7.671875 C 24.632812 6.445312 23.601562 5.445312 22.328125 5.445312 Z M 22.328125 5.445312 "/>
</g>
</svg>
