<?xml version="1.0" encoding="UTF-8"?>
<svg xmlns="http://www.w3.org/2000/svg" xmlns:xlink="http://www.w3.org/1999/xlink" width="28pt" height="28pt" viewBox="0 0 28 28" version="1.1">
<g id="surface1">
<path style=" stroke:none;fill-rule:nonzero;fill:rgb(0%,0%,0%);fill-opacity:1;" d="M 25.835938 10.074219 L 20.738281 10.074219 C 20.96875 9.710938 21.105469 9.277344 21.105469 8.816406 C 21.105469 7.519531 20.046875 6.460938 18.75 6.460938 C 17.453125 6.460938 16.398438 7.519531 16.398438 8.816406 C 16.398438 9.277344 16.53125 9.710938 16.765625 10.074219 L 15.652344 10.074219 L 15.652344 3.859375 C 15.652344 3.496094 15.949219 3.199219 16.3125 3.199219 C 16.679688 3.199219 16.972656 3.496094 16.972656 3.859375 L 16.972656 4.851562 C 16.972656 5.15625 17.21875 5.398438 17.519531 5.398438 L 19.625 5.398438 C 19.925781 5.398438 20.171875 5.15625 20.171875 4.851562 L 20.171875 3.859375 C 20.171875 1.730469 18.441406 0 16.3125 0 C 14.1875 0 12.453125 1.730469 12.453125 3.859375 L 12.453125 10.074219 L 11.234375 10.074219 C 11.46875 9.710938 11.601562 9.277344 11.601562 8.816406 C 11.601562 7.519531 10.546875 6.460938 9.25 6.460938 C 7.953125 6.460938 6.894531 7.519531 6.894531 8.816406 C 6.894531 9.277344 7.03125 9.710938 7.261719 10.074219 L 2.164062 10.074219 C 1.863281 10.074219 1.617188 10.320312 1.617188 10.621094 L 1.617188 13.347656 C 1.617188 13.648438 1.863281 13.894531 2.164062 13.894531 L 2.769531 13.894531 L 2.769531 15.074219 C 2.769531 18.828125 5.820312 21.882812 9.574219 21.882812 L 9.753906 21.882812 L 9.964844 23.28125 L 10.414062 26.285156 C 10.5625 27.277344 11.402344 28 12.40625 28 L 15.59375 28 C 16.597656 28 17.4375 27.277344 17.585938 26.285156 L 18.035156 23.28125 L 18.246094 21.882812 L 18.425781 21.882812 C 22.179688 21.882812 25.230469 18.828125 25.230469 15.074219 L 25.230469 13.894531 L 25.835938 13.894531 C 26.136719 13.894531 26.382812 13.648438 26.382812 13.347656 L 26.382812 10.621094 C 26.382812 10.320312 26.136719 10.074219 25.835938 10.074219 Z M 18.75 7.554688 C 19.445312 7.554688 20.011719 8.121094 20.011719 8.816406 C 20.011719 9.511719 19.445312 10.074219 18.75 10.074219 C 18.054688 10.074219 17.492188 9.511719 17.492188 8.816406 C 17.492188 8.121094 18.054688 7.554688 18.75 7.554688 Z M 13.546875 3.859375 C 13.546875 2.335938 14.789062 1.09375 16.3125 1.09375 C 17.839844 1.09375 19.078125 2.335938 19.078125 3.859375 L 19.078125 4.304688 L 18.066406 4.304688 L 18.066406 3.859375 C 18.066406 2.890625 17.28125 2.105469 16.3125 2.105469 C 15.347656 2.105469 14.558594 2.890625 14.558594 3.859375 L 14.558594 10.074219 L 13.546875 10.074219 Z M 9.25 7.554688 C 9.945312 7.554688 10.507812 8.121094 10.507812 8.816406 C 10.507812 9.511719 9.945312 10.074219 9.25 10.074219 C 8.554688 10.074219 7.988281 9.511719 7.988281 8.816406 C 7.988281 8.121094 8.554688 7.554688 9.25 7.554688 Z M 16.503906 26.121094 C 16.4375 26.578125 16.054688 26.90625 15.59375 26.90625 L 12.40625 26.90625 C 11.945312 26.90625 11.5625 26.578125 11.496094 26.121094 L 11.140625 23.75 L 16.859375 23.75 Z M 17.023438 22.65625 L 10.976562 22.65625 L 10.859375 21.882812 L 17.140625 21.882812 Z M 24.136719 15.074219 C 24.136719 18.222656 21.574219 20.789062 18.425781 20.789062 L 9.574219 20.789062 C 6.425781 20.789062 3.863281 18.222656 3.863281 15.074219 L 3.863281 13.894531 L 24.136719 13.894531 Z M 25.289062 12.800781 L 2.710938 12.800781 L 2.710938 11.167969 L 25.289062 11.167969 Z M 25.289062 12.800781 "/>
<path style=" stroke:none;fill-rule:nonzero;fill:rgb(0%,0%,0%);fill-opacity:1;" d="M 21.160156 15.382812 C 21.152344 15.347656 21.144531 15.3125 21.128906 15.28125 C 21.117188 15.246094 21.097656 15.214844 21.078125 15.1875 C 21.058594 15.15625 21.035156 15.128906 21.011719 15.101562 C 20.984375 15.078125 20.957031 15.054688 20.929688 15.035156 C 20.898438 15.015625 20.867188 15 20.832031 14.984375 C 20.800781 14.972656 20.765625 14.960938 20.730469 14.953125 C 20.660156 14.941406 20.589844 14.941406 20.519531 14.953125 C 20.484375 14.960938 20.449219 14.972656 20.414062 14.984375 C 20.382812 15 20.351562 15.015625 20.320312 15.035156 C 20.292969 15.054688 20.261719 15.078125 20.238281 15.101562 C 20.214844 15.128906 20.191406 15.15625 20.167969 15.1875 C 20.152344 15.214844 20.132812 15.246094 20.121094 15.28125 C 20.105469 15.3125 20.09375 15.347656 20.089844 15.382812 C 20.082031 15.417969 20.078125 15.453125 20.078125 15.488281 C 20.078125 15.523438 20.082031 15.5625 20.089844 15.597656 C 20.09375 15.632812 20.105469 15.664062 20.121094 15.699219 C 20.132812 15.730469 20.152344 15.761719 20.167969 15.792969 C 20.191406 15.824219 20.214844 15.851562 20.238281 15.875 C 20.261719 15.902344 20.292969 15.925781 20.320312 15.945312 C 20.351562 15.964844 20.382812 15.980469 20.414062 15.996094 C 20.449219 16.007812 20.484375 16.019531 20.519531 16.027344 C 20.554688 16.035156 20.589844 16.035156 20.625 16.035156 C 20.660156 16.035156 20.695312 16.035156 20.730469 16.027344 C 20.765625 16.019531 20.800781 16.007812 20.832031 15.996094 C 20.867188 15.980469 20.898438 15.964844 20.929688 15.945312 C 20.957031 15.925781 20.984375 15.902344 21.011719 15.875 C 21.035156 15.851562 21.058594 15.824219 21.078125 15.792969 C 21.097656 15.761719 21.117188 15.730469 21.128906 15.699219 C 21.144531 15.664062 21.152344 15.632812 21.160156 15.597656 C 21.167969 15.5625 21.171875 15.523438 21.171875 15.488281 C 21.171875 15.453125 21.167969 15.417969 21.160156 15.382812 Z M 21.160156 15.382812 "/>
<path style=" stroke:none;fill-rule:nonzero;fill:rgb(0%,0%,0%);fill-opacity:1;" d="M 18.511719 14.941406 L 7.375 14.941406 C 7.074219 14.941406 6.828125 15.1875 6.828125 15.488281 C 6.828125 15.792969 7.074219 16.035156 7.375 16.035156 L 18.511719 16.035156 C 18.8125 16.035156 19.058594 15.792969 19.058594 15.488281 C 19.058594 15.1875 18.8125 14.941406 18.511719 14.941406 Z M 18.511719 14.941406 "/>
</g>
</svg>
