<?xml version="1.0" encoding="UTF-8"?>
<svg xmlns="http://www.w3.org/2000/svg" xmlns:xlink="http://www.w3.org/1999/xlink" width="28pt" height="28pt" viewBox="0 0 28 28" version="1.1">
<g id="surface1">
<path style=" stroke:none;fill-rule:nonzero;fill:rgb(0%,0%,0%);fill-opacity:1;" d="M 27.046875 12.230469 L 3.535156 12.230469 L 3.535156 8.734375 C 3.535156 8.117188 4.039062 7.613281 4.660156 7.613281 L 8.664062 7.613281 C 9.28125 7.613281 9.785156 8.117188 9.785156 8.734375 C 9.785156 9.261719 10.210938 9.6875 10.738281 9.6875 C 11.265625 9.6875 11.691406 9.261719 11.691406 8.734375 C 11.691406 7.066406 10.332031 5.707031 8.664062 5.707031 L 4.515625 5.707031 C 5.289062 4.761719 6.246094 4.261719 6.273438 4.246094 C 6.742188 4.011719 6.933594 3.441406 6.695312 2.972656 C 6.460938 2.5 5.890625 2.308594 5.417969 2.546875 C 5.265625 2.621094 1.632812 4.484375 1.632812 8.289062 L 1.632812 12.230469 L 0.953125 12.230469 C 0.425781 12.230469 0 12.652344 0 13.175781 L 0 16.445312 C 0 19.875 2.65625 22.773438 6.265625 23.652344 L 0.953125 23.652344 C 0.425781 23.652344 0 24.078125 0 24.601562 C 0 25.128906 0.425781 25.554688 0.953125 25.554688 L 27.046875 25.554688 C 27.574219 25.554688 28 25.128906 28 24.601562 C 28 24.078125 27.574219 23.652344 27.046875 23.652344 L 21.734375 23.652344 C 25.34375 22.773438 28 19.875 28 16.445312 L 28 13.175781 C 28 12.648438 27.574219 12.230469 27.046875 12.230469 Z M 26.09375 16.445312 C 26.09375 19.519531 23.109375 22.019531 19.4375 22.019531 L 8.5625 22.019531 C 4.890625 22.019531 1.90625 19.519531 1.90625 16.445312 L 1.90625 14.136719 L 26.09375 14.136719 Z M 26.09375 16.445312 "/>
</g>
</svg>
