<?xml version="1.0" encoding="UTF-8"?>
<svg xmlns="http://www.w3.org/2000/svg" xmlns:xlink="http://www.w3.org/1999/xlink" width="28pt" height="28pt" viewBox="0 0 28 28" version="1.1">
<g id="surface1">
<path style=" stroke:none;fill-rule:nonzero;fill:rgb(0%,0%,0%);fill-opacity:1;" d="M 26.554688 12.667969 L 26.554688 5.765625 C 26.554688 4.820312 25.785156 4.050781 24.839844 4.050781 L 3.160156 4.050781 C 2.214844 4.050781 1.445312 4.820312 1.445312 5.765625 L 1.445312 12.667969 C 0.628906 12.792969 0 13.5 0 14.351562 L 0 18.625 C 0 18.921875 0.242188 19.164062 0.539062 19.164062 L 1.117188 19.164062 L 1.117188 21.828125 C 1.117188 22.125 1.359375 22.367188 1.660156 22.367188 L 2.632812 22.367188 L 2.632812 23.40625 C 2.632812 23.707031 2.875 23.949219 3.175781 23.949219 C 3.472656 23.949219 3.714844 23.707031 3.714844 23.40625 L 3.714844 22.367188 L 24.285156 22.367188 L 24.285156 23.40625 C 24.285156 23.707031 24.527344 23.949219 24.828125 23.949219 C 25.125 23.949219 25.367188 23.707031 25.367188 23.40625 L 25.367188 22.367188 L 26.339844 22.367188 C 26.640625 22.367188 26.882812 22.125 26.882812 21.828125 L 26.882812 19.164062 L 27.460938 19.164062 C 27.757812 19.164062 28 18.921875 28 18.625 L 28 14.351562 C 28 13.5 27.371094 12.792969 26.554688 12.667969 Z M 2.523438 5.765625 C 2.523438 5.417969 2.808594 5.132812 3.160156 5.132812 L 24.839844 5.132812 C 25.191406 5.132812 25.476562 5.417969 25.476562 5.765625 L 25.476562 12.648438 L 23.578125 12.648438 C 23.957031 12.242188 24.339844 11.816406 24.738281 11.359375 C 24.914062 11.15625 24.914062 10.851562 24.738281 10.648438 C 23.175781 8.855469 21.867188 7.546875 20.070312 5.984375 C 19.867188 5.808594 19.566406 5.808594 19.363281 5.984375 C 17.566406 7.546875 16.257812 8.855469 14.695312 10.648438 C 14.519531 10.851562 14.519531 11.15625 14.695312 11.359375 C 15.09375 11.816406 15.476562 12.242188 15.855469 12.648438 L 12.144531 12.648438 C 12.523438 12.242188 12.90625 11.816406 13.304688 11.359375 C 13.480469 11.15625 13.480469 10.851562 13.304688 10.648438 C 11.742188 8.855469 10.433594 7.546875 8.636719 5.984375 C 8.433594 5.808594 8.132812 5.808594 7.929688 5.984375 C 6.132812 7.546875 4.824219 8.855469 3.261719 10.648438 C 3.085938 10.851562 3.085938 11.15625 3.261719 11.359375 C 3.660156 11.816406 4.042969 12.242188 4.421875 12.648438 L 2.523438 12.648438 Z M 17.34375 12.648438 C 16.847656 12.140625 16.34375 11.597656 15.820312 11.003906 C 17.113281 9.542969 18.253906 8.398438 19.714844 7.109375 C 21.175781 8.398438 22.320312 9.542969 23.609375 11.003906 C 23.085938 11.597656 22.585938 12.140625 22.089844 12.648438 Z M 5.910156 12.648438 C 5.414062 12.140625 4.914062 11.597656 4.386719 11.003906 C 5.679688 9.542969 6.824219 8.402344 8.285156 7.109375 C 9.746094 8.402344 10.886719 9.542969 12.179688 11.003906 C 11.65625 11.597656 11.152344 12.140625 10.65625 12.648438 Z M 25.800781 21.289062 L 2.199219 21.289062 L 2.199219 19.164062 L 25.800781 19.164062 Z M 26.917969 18.082031 L 1.082031 18.082031 L 1.082031 14.351562 C 1.082031 14.007812 1.359375 13.730469 1.703125 13.730469 L 26.296875 13.730469 C 26.640625 13.730469 26.917969 14.007812 26.917969 14.351562 Z M 26.917969 18.082031 "/>
</g>
</svg>
