<?xml version="1.0" encoding="UTF-8"?>
<svg xmlns="http://www.w3.org/2000/svg" xmlns:xlink="http://www.w3.org/1999/xlink" width="28pt" height="28pt" viewBox="0 0 28 28" version="1.1">
<g id="surface1">
<path style=" stroke:none;fill-rule:nonzero;fill:rgb(0%,0%,0%);fill-opacity:1;" d="M 3.1875 10.472656 C 3.1875 9.011719 4.375 7.824219 5.839844 7.824219 L 11.789062 7.824219 C 12.710938 7.824219 13.527344 8.296875 14 9.015625 C 14.472656 8.296875 15.289062 7.824219 16.210938 7.824219 L 22.160156 7.824219 C 23.625 7.824219 24.8125 9.011719 24.8125 10.472656 L 24.8125 10.59375 L 25.476562 10.59375 L 25.476562 8.011719 C 25.476562 6.40625 24.171875 5.101562 22.566406 5.101562 L 5.433594 5.101562 C 3.828125 5.101562 2.523438 6.40625 2.523438 8.011719 L 2.523438 10.59375 L 3.1875 10.59375 Z M 3.1875 10.472656 "/>
<path style=" stroke:none;fill-rule:nonzero;fill:rgb(0%,0%,0%);fill-opacity:1;" d="M 26.886719 11.832031 L 1.113281 11.832031 C 0.5 11.832031 0 12.332031 0 12.945312 L 0 19.414062 C 0 20.027344 0.5 20.527344 1.113281 20.527344 L 1.578125 20.527344 L 1.03125 22.074219 C 0.914062 22.394531 1.085938 22.75 1.40625 22.863281 C 1.472656 22.886719 1.542969 22.898438 1.613281 22.898438 C 1.867188 22.898438 2.105469 22.738281 2.195312 22.484375 L 2.890625 20.527344 L 25.109375 20.527344 L 25.804688 22.484375 C 25.894531 22.738281 26.132812 22.898438 26.386719 22.898438 C 26.457031 22.898438 26.527344 22.886719 26.59375 22.863281 C 26.914062 22.75 27.085938 22.394531 26.96875 22.074219 L 26.421875 20.527344 L 26.886719 20.527344 C 27.5 20.527344 28 20.027344 28 19.414062 L 28 12.945312 C 28 12.332031 27.5 11.832031 26.886719 11.832031 Z M 26.886719 11.832031 "/>
<path style=" stroke:none;fill-rule:nonzero;fill:rgb(0%,0%,0%);fill-opacity:1;" d="M 16.210938 9.058594 C 15.433594 9.058594 14.800781 9.695312 14.800781 10.472656 L 14.800781 10.59375 L 23.574219 10.59375 L 23.574219 10.472656 C 23.574219 9.695312 22.941406 9.058594 22.160156 9.058594 Z M 16.210938 9.058594 "/>
<path style=" stroke:none;fill-rule:nonzero;fill:rgb(0%,0%,0%);fill-opacity:1;" d="M 5.839844 9.058594 C 5.058594 9.058594 4.425781 9.695312 4.425781 10.472656 L 4.425781 10.59375 L 13.199219 10.59375 L 13.199219 10.472656 C 13.199219 9.695312 12.566406 9.058594 11.789062 9.058594 Z M 5.839844 9.058594 "/>
</g>
</svg>
