<?xml version="1.0" encoding="UTF-8"?>
<svg xmlns="http://www.w3.org/2000/svg" xmlns:xlink="http://www.w3.org/1999/xlink" width="28pt" height="28pt" viewBox="0 0 28 28" version="1.1">
<g id="surface1">
<path style=" stroke:none;fill-rule:nonzero;fill:rgb(0%,0%,0%);fill-opacity:1;" d="M 24.621094 22.28125 C 24.539062 22.230469 23.917969 21.796875 23.296875 20.484375 C 22.160156 18.070312 21.921875 14.675781 21.921875 12.25 C 21.921875 12.242188 21.921875 12.230469 21.917969 12.21875 C 21.90625 9.015625 19.988281 6.253906 17.242188 5.015625 L 17.242188 3.121094 C 17.242188 1.398438 15.847656 0 14.128906 0 L 13.871094 0 C 12.152344 0 10.757812 1.398438 10.757812 3.121094 L 10.757812 5.015625 C 8.003906 6.257812 6.078125 9.035156 6.078125 12.25 C 6.078125 14.675781 5.839844 18.070312 4.703125 20.484375 C 4.082031 21.796875 3.460938 22.230469 3.378906 22.28125 C 3.03125 22.441406 2.863281 22.8125 2.941406 23.191406 C 3.023438 23.570312 3.375 23.832031 3.765625 23.832031 L 9.777344 23.832031 C 9.808594 26.136719 11.691406 28 14 28 C 16.308594 28 18.191406 26.136719 18.222656 23.832031 L 24.234375 23.832031 C 24.625 23.832031 24.976562 23.570312 25.058594 23.191406 C 25.136719 22.8125 24.96875 22.441406 24.621094 22.28125 Z M 12.398438 3.121094 C 12.398438 2.304688 13.058594 1.644531 13.871094 1.644531 L 14.128906 1.644531 C 14.941406 1.644531 15.601562 2.304688 15.601562 3.121094 L 15.601562 4.480469 C 15.085938 4.375 14.546875 4.320312 14 4.320312 C 13.449219 4.320312 12.914062 4.375 12.398438 4.480469 Z M 14 26.355469 C 12.597656 26.355469 11.449219 25.230469 11.417969 23.832031 L 16.582031 23.832031 C 16.550781 25.230469 15.402344 26.355469 14 26.355469 Z M 17.304688 22.1875 C 17.304688 22.1875 5.632812 22.1875 5.632812 22.1875 C 5.777344 21.964844 5.921875 21.714844 6.0625 21.433594 C 7.164062 19.265625 7.71875 16.175781 7.71875 12.25 C 7.71875 8.785156 10.539062 5.960938 14 5.960938 C 17.460938 5.960938 20.277344 8.785156 20.277344 12.253906 C 20.277344 12.265625 20.277344 12.273438 20.28125 12.285156 C 20.28125 16.191406 20.839844 19.269531 21.9375 21.433594 C 22.078125 21.714844 22.222656 21.964844 22.367188 22.1875 Z M 17.304688 22.1875 "/>
</g>
</svg>
