<?xml version="1.0" encoding="UTF-8"?>
<svg xmlns="http://www.w3.org/2000/svg" xmlns:xlink="http://www.w3.org/1999/xlink" width="28pt" height="28pt" viewBox="0 0 28 28" version="1.1">
<g id="surface1">
<path style=" stroke:none;fill-rule:nonzero;fill:rgb(0%,0%,0%);fill-opacity:1;" d="M 25.453125 2.636719 L 17.925781 2.636719 L 17.925781 1.308594 C 17.925781 0.585938 17.339844 0 16.621094 0 L 11.382812 0 C 10.660156 0 10.074219 0.585938 10.074219 1.308594 L 10.074219 2.636719 L 2.546875 2.636719 C 2.183594 2.636719 1.886719 2.933594 1.886719 3.296875 C 1.886719 3.660156 2.183594 3.957031 2.546875 3.957031 L 3.769531 3.957031 L 4.601562 25.632812 C 4.652344 26.960938 5.730469 28 7.058594 28 L 20.941406 28 C 22.269531 28 23.347656 26.960938 23.398438 25.632812 L 24.230469 3.957031 L 25.453125 3.957031 C 25.816406 3.957031 26.113281 3.660156 26.113281 3.296875 C 26.113281 2.933594 25.816406 2.636719 25.453125 2.636719 Z M 11.390625 1.316406 L 16.609375 1.316406 L 16.609375 2.636719 L 11.390625 2.636719 Z M 22.082031 25.582031 C 22.058594 26.199219 21.558594 26.683594 20.941406 26.683594 L 7.058594 26.683594 C 6.445312 26.683594 5.941406 26.199219 5.917969 25.582031 L 5.085938 3.957031 L 22.914062 3.957031 Z M 22.082031 25.582031 "/>
<path style=" stroke:none;fill-rule:nonzero;fill:rgb(0%,0%,0%);fill-opacity:1;" d="M 9.988281 9.929688 C 9.980469 9.570312 9.6875 9.285156 9.328125 9.285156 C 9.324219 9.285156 9.320312 9.285156 9.316406 9.285156 C 8.953125 9.289062 8.664062 9.589844 8.671875 9.953125 L 8.875 20.707031 C 8.882812 21.066406 9.175781 21.355469 9.535156 21.355469 C 9.539062 21.355469 9.542969 21.355469 9.546875 21.355469 C 9.910156 21.347656 10.203125 21.046875 10.195312 20.683594 Z M 9.988281 9.929688 "/>
<path style=" stroke:none;fill-rule:nonzero;fill:rgb(0%,0%,0%);fill-opacity:1;" d="M 14 9.285156 C 13.636719 9.285156 13.339844 9.578125 13.339844 9.941406 L 13.339844 20.695312 C 13.339844 21.058594 13.636719 21.355469 14 21.355469 C 14.363281 21.355469 14.660156 21.058594 14.660156 20.695312 L 14.660156 9.941406 C 14.660156 9.578125 14.363281 9.285156 14 9.285156 Z M 14 9.285156 "/>
<path style=" stroke:none;fill-rule:nonzero;fill:rgb(0%,0%,0%);fill-opacity:1;" d="M 18.683594 9.285156 C 18.320312 9.277344 18.019531 9.566406 18.011719 9.929688 L 17.804688 20.683594 C 17.796875 21.046875 18.085938 21.347656 18.453125 21.355469 C 18.457031 21.355469 18.460938 21.355469 18.464844 21.355469 C 18.824219 21.355469 19.117188 21.066406 19.125 20.707031 L 19.328125 9.953125 C 19.335938 9.589844 19.046875 9.289062 18.683594 9.285156 Z M 18.683594 9.285156 "/>
</g>
</svg>
