<?xml version="1.0" encoding="UTF-8"?>
<svg xmlns="http://www.w3.org/2000/svg" xmlns:xlink="http://www.w3.org/1999/xlink" width="28pt" height="28pt" viewBox="0 0 28 28" version="1.1">
<g id="surface1">
<path style=" stroke:none;fill-rule:nonzero;fill:rgb(0%,0%,0%);fill-opacity:1;" d="M 14 5.046875 C 9.941406 5.046875 7.011719 8.070312 6.546875 11.320312 C 6.257812 13.484375 6.957031 15.597656 8.410156 17.195312 C 9.691406 18.5625 10.390625 20.386719 10.390625 22.269531 L 10.386719 25.234375 C 10.386719 26.429688 11.375 27.398438 12.601562 27.398438 L 15.453125 27.398438 C 16.679688 27.398438 17.667969 26.429688 17.667969 25.234375 L 17.675781 22.269531 C 17.675781 20.332031 18.316406 18.5625 19.539062 17.308594 C 20.878906 15.941406 21.578125 14.175781 21.578125 12.347656 C 21.574219 8.296875 18.132812 5.046875 14 5.046875 Z M 16.558594 25.234375 C 16.558594 25.800781 16.09375 26.261719 15.507812 26.261719 L 12.65625 26.261719 C 12.070312 26.261719 11.605469 25.808594 11.605469 25.234375 L 11.605469 23.921875 L 16.554688 23.921875 L 16.554688 25.234375 Z M 18.726562 16.511719 C 17.269531 17.992188 16.511719 20.042969 16.511719 22.269531 L 16.511719 22.78125 L 11.5625 22.78125 L 11.5625 22.269531 C 11.5625 20.15625 10.6875 18.050781 9.230469 16.457031 C 7.953125 15.089844 7.425781 13.320312 7.65625 11.496094 C 8.066406 8.761719 10.609375 6.191406 14.003906 6.191406 C 17.558594 6.191406 20.414062 8.984375 20.414062 12.347656 C 20.414062 13.886719 19.828125 15.367188 18.726562 16.511719 Z M 18.726562 16.511719 "/>
<path style=" stroke:none;fill-rule:nonzero;fill:rgb(0%,0%,0%);fill-opacity:1;" d="M 13.414062 0.601562 L 14.578125 0.601562 L 14.578125 3.335938 L 13.414062 3.335938 Z M 13.414062 0.601562 "/>
<path style=" stroke:none;fill-rule:nonzero;fill:rgb(0%,0%,0%);fill-opacity:1;" d="M 21.058594 5.875 L 21.875 6.6875 L 23.871094 4.769531 L 23.050781 3.953125 Z M 21.058594 5.875 "/>
<path style=" stroke:none;fill-rule:nonzero;fill:rgb(0%,0%,0%);fill-opacity:1;" d="M 24.542969 12.917969 L 27.398438 12.917969 L 27.398438 14.058594 L 24.542969 14.058594 Z M 24.542969 12.917969 "/>
<path style=" stroke:none;fill-rule:nonzero;fill:rgb(0%,0%,0%);fill-opacity:1;" d="M 0.601562 12.917969 L 3.457031 12.917969 L 3.457031 14.058594 L 0.601562 14.058594 Z M 0.601562 12.917969 "/>
<path style=" stroke:none;fill-rule:nonzero;fill:rgb(0%,0%,0%);fill-opacity:1;" d="M 4.925781 3.949219 L 4.105469 4.761719 L 6.101562 6.683594 L 6.917969 5.867188 Z M 4.925781 3.949219 "/>
</g>
</svg>
