<?xml version="1.0" encoding="UTF-8"?>
<svg xmlns="http://www.w3.org/2000/svg" xmlns:xlink="http://www.w3.org/1999/xlink" width="28pt" height="28pt" viewBox="0 0 28 28" version="1.1">
<g id="surface1">
<path style=" stroke:none;fill-rule:nonzero;fill:rgb(0%,0%,0%);fill-opacity:1;" d="M 14 0 C 6.28125 0 0 6.28125 0 14 C 0 21.71875 6.28125 28 14 28 C 21.71875 28 28 21.71875 28 14 C 28 6.28125 21.71875 0 14 0 Z M 21.261719 14.386719 L 10.996094 21.386719 C 10.917969 21.4375 10.824219 21.464844 10.734375 21.464844 C 10.660156 21.464844 10.582031 21.449219 10.515625 21.414062 C 10.363281 21.332031 10.265625 21.171875 10.265625 21 L 10.265625 7 C 10.265625 6.828125 10.363281 6.667969 10.515625 6.585938 C 10.667969 6.507812 10.851562 6.515625 10.996094 6.613281 L 21.261719 13.613281 C 21.390625 13.703125 21.464844 13.84375 21.464844 14 C 21.464844 14.15625 21.390625 14.296875 21.261719 14.386719 Z M 21.261719 14.386719 "/>
</g>
</svg>
