<?xml version="1.0" encoding="UTF-8"?>
<svg xmlns="http://www.w3.org/2000/svg" xmlns:xlink="http://www.w3.org/1999/xlink" width="28pt" height="28pt" viewBox="0 0 28 28" version="1.1">
<g id="surface1">
<path style=" stroke:none;fill-rule:nonzero;fill:rgb(0%,0%,0%);fill-opacity:1;" d="M 27.976562 15.273438 C 27.976562 14.726562 27.851562 14.199219 27.628906 13.71875 C 27.605469 13.597656 27.578125 13.472656 27.546875 13.351562 L 25.117188 7.328125 L 25.097656 7.273438 C 24.25 4.742188 23.039062 2.398438 19.972656 2.398438 L 8.242188 2.398438 C 5.097656 2.398438 3.988281 4.800781 3.117188 7.257812 L 0.578125 13.296875 C 0.207031 13.886719 0 14.558594 0 15.273438 L 0 17.148438 C 0 17.4375 0.0351562 17.722656 0.0976562 17.996094 C 0.0351562 18.160156 0 18.339844 0 18.527344 L 0 24.097656 C 0 24.917969 0.664062 25.578125 1.480469 25.578125 L 4.550781 25.578125 C 5.367188 25.578125 6.03125 24.917969 6.03125 24.097656 L 6.03125 21.3125 L 22.121094 21.3125 L 22.121094 24.097656 C 22.121094 24.917969 22.785156 25.578125 23.601562 25.578125 L 26.496094 25.578125 C 27.316406 25.578125 27.976562 24.917969 27.976562 24.097656 L 27.976562 18.523438 C 27.976562 18.339844 27.941406 18.160156 27.878906 17.996094 C 27.945312 17.722656 27.976562 17.4375 27.976562 17.148438 Z M 4.921875 7.863281 C 5.890625 5.132812 6.667969 4.300781 8.242188 4.300781 L 19.972656 4.300781 C 21.53125 4.300781 22.402344 5.230469 23.285156 7.851562 L 25.058594 11.445312 C 24.480469 11.230469 23.84375 11.113281 23.175781 11.113281 L 4.804688 11.113281 C 4.199219 11.113281 3.625 11.210938 3.09375 11.386719 Z M 6.445312 17.859375 L 3.203125 17.859375 C 2.621094 17.859375 2.148438 17.386719 2.148438 16.804688 C 2.148438 16.21875 2.621094 15.746094 3.203125 15.746094 L 6.445312 15.746094 C 7.027344 15.746094 7.503906 16.21875 7.503906 16.804688 C 7.503906 17.386719 7.027344 17.859375 6.445312 17.859375 Z M 17.894531 17.648438 L 10.355469 17.648438 C 9.984375 17.648438 9.6875 17.351562 9.6875 16.980469 C 9.6875 16.609375 9.984375 16.3125 10.355469 16.3125 L 17.894531 16.3125 C 18.261719 16.3125 18.5625 16.609375 18.5625 16.980469 C 18.5625 17.351562 18.261719 17.648438 17.894531 17.648438 Z M 24.691406 17.859375 L 21.449219 17.859375 C 20.867188 17.859375 20.394531 17.386719 20.394531 16.804688 C 20.394531 16.21875 20.867188 15.746094 21.449219 15.746094 L 24.691406 15.746094 C 25.273438 15.746094 25.746094 16.21875 25.746094 16.804688 C 25.746094 17.386719 25.273438 17.859375 24.691406 17.859375 Z M 24.691406 17.859375 "/>
</g>
</svg>
