<?xml version="1.0" encoding="UTF-8"?>
<svg xmlns="http://www.w3.org/2000/svg" xmlns:xlink="http://www.w3.org/1999/xlink" width="28pt" height="28pt" viewBox="0 0 28 28" version="1.1">
<g id="surface1">
<path style=" stroke:none;fill-rule:nonzero;fill:rgb(0%,0%,0%);fill-opacity:1;" d="M 6.609375 22.625 C 6.609375 23.722656 5.71875 24.613281 4.617188 24.613281 C 3.519531 24.613281 2.628906 23.722656 2.628906 22.625 C 2.628906 21.527344 3.519531 20.636719 4.617188 20.636719 C 5.71875 20.636719 6.609375 21.527344 6.609375 22.625 Z M 6.609375 22.625 "/>
<path style=" stroke:none;fill-rule:nonzero;fill:rgb(0%,0%,0%);fill-opacity:1;" d="M 21.566406 22.625 C 21.566406 23.722656 20.675781 24.613281 19.578125 24.613281 C 18.476562 24.613281 17.585938 23.722656 17.585938 22.625 C 17.585938 21.527344 18.476562 20.636719 19.578125 20.636719 C 20.675781 20.636719 21.566406 21.527344 21.566406 22.625 Z M 21.566406 22.625 "/>
<path style=" stroke:none;fill-rule:nonzero;fill:rgb(0%,0%,0%);fill-opacity:1;" d="M 23.707031 18.011719 L 21.421875 16.976562 C 21.335938 16.9375 21.265625 16.871094 21.214844 16.792969 L 19.246094 13.648438 C 18.886719 13.078125 18.257812 12.730469 17.582031 12.730469 L 9.582031 12.730469 C 8.972656 12.734375 8.394531 13.019531 8.023438 13.503906 L 5.492188 16.828125 C 5.425781 16.910156 5.335938 16.972656 5.234375 17 L 0.996094 18.15625 C 0.410156 18.320312 0 18.851562 0 19.460938 L 0 21.007812 C 0 21.75 0.609375 22.328125 1.351562 22.328125 L 1.675781 22.328125 C 1.8125 20.878906 3.078125 19.640625 4.617188 19.640625 C 6.15625 19.640625 7.425781 20.878906 7.5625 22.328125 L 16.632812 22.328125 C 16.769531 20.878906 18.039062 19.640625 19.578125 19.640625 C 21.117188 19.640625 22.382812 20.878906 22.519531 22.328125 L 23.148438 22.328125 C 23.894531 22.328125 24.5 21.75 24.5 21.007812 L 24.5 19.238281 C 24.5 18.710938 24.191406 18.230469 23.707031 18.011719 Z M 23.707031 18.011719 "/>
<path style=" stroke:none;fill-rule:nonzero;fill:rgb(0%,0%,0%);fill-opacity:1;" d="M 12.054688 8.199219 C 11.785156 8.203125 11.570312 8.417969 11.566406 8.6875 C 11.566406 8.953125 11.777344 9.167969 12.042969 9.171875 L 12.046875 9.171875 L 13.941406 9.152344 L 13.941406 10.378906 C 13.941406 10.648438 14.15625 10.863281 14.421875 10.863281 C 14.6875 10.863281 14.90625 10.648438 14.90625 10.378906 L 14.90625 9.230469 L 16.523438 9.230469 C 17.5625 9.226562 18.398438 8.386719 18.40625 7.351562 L 18.40625 6.894531 C 18.398438 5.859375 17.5625 5.015625 16.523438 5.007812 L 14.90625 5.007812 L 14.90625 3.867188 C 14.90625 3.601562 14.6875 3.382812 14.421875 3.382812 C 14.15625 3.382812 13.941406 3.601562 13.941406 3.867188 L 13.941406 5.09375 L 12.058594 5.082031 C 11.792969 5.082031 11.578125 5.296875 11.574219 5.566406 C 11.574219 5.832031 11.789062 6.046875 12.058594 6.050781 L 13.941406 6.058594 L 13.941406 8.1875 Z M 12.054688 8.199219 "/>
<path style=" stroke:none;fill-rule:nonzero;fill:rgb(0%,0%,0%);fill-opacity:1;" d="M 25.683594 6.578125 L 18.949219 6.578125 L 18.949219 7.542969 L 25.683594 7.542969 C 26.425781 7.542969 27.035156 8.171875 27.035156 8.917969 L 27.035156 18.6875 C 27.03125 19.429688 26.425781 20.035156 25.683594 20.035156 L 25.042969 20.035156 L 25.042969 21 L 25.683594 21 C 26.960938 21 27.996094 19.964844 28 18.6875 L 28 8.917969 C 28 7.640625 26.957031 6.578125 25.683594 6.578125 Z M 25.683594 6.578125 "/>
</g>
</svg>
