<?xml version="1.0" encoding="UTF-8"?>
<svg xmlns="http://www.w3.org/2000/svg" xmlns:xlink="http://www.w3.org/1999/xlink" width="28pt" height="28pt" viewBox="0 0 28 28" version="1.1">
<g id="surface1">
<path style=" stroke:none;fill-rule:nonzero;fill:rgb(0%,0%,0%);fill-opacity:1;" d="M 21.933594 15.742188 C 20.648438 15.742188 19.601562 16.789062 19.601562 18.074219 C 19.601562 19.359375 20.648438 20.40625 21.933594 20.40625 C 23.21875 20.40625 24.265625 19.359375 24.265625 18.074219 C 24.265625 16.789062 23.21875 15.742188 21.933594 15.742188 Z M 21.933594 19.472656 C 21.160156 19.472656 20.535156 18.847656 20.535156 18.074219 C 20.535156 17.300781 21.160156 16.675781 21.933594 16.675781 C 22.707031 16.675781 23.332031 17.300781 23.332031 18.074219 C 23.332031 18.847656 22.707031 19.472656 21.933594 19.472656 Z M 21.933594 19.472656 "/>
<path style=" stroke:none;fill-rule:nonzero;fill:rgb(0%,0%,0%);fill-opacity:1;" d="M 6.066406 15.742188 C 4.78125 15.742188 3.734375 16.789062 3.734375 18.074219 C 3.734375 19.359375 4.78125 20.40625 6.066406 20.40625 C 7.351562 20.40625 8.398438 19.359375 8.398438 18.074219 C 8.398438 16.789062 7.351562 15.742188 6.066406 15.742188 Z M 6.066406 19.472656 C 5.292969 19.472656 4.667969 18.847656 4.667969 18.074219 C 4.667969 17.300781 5.292969 16.675781 6.066406 16.675781 C 6.839844 16.675781 7.464844 17.300781 7.464844 18.074219 C 7.464844 18.847656 6.839844 19.472656 6.066406 19.472656 Z M 6.066406 19.472656 "/>
<path style=" stroke:none;fill-rule:nonzero;fill:rgb(0%,0%,0%);fill-opacity:1;" d="M 27.535156 15.742188 L 27.535156 12.941406 C 27.535156 12.738281 27.40625 12.5625 27.214844 12.5 L 24.582031 11.621094 C 23.589844 9.941406 22.226562 8.34375 19.214844 7.816406 C 19.207031 7.8125 19.203125 7.8125 19.195312 7.8125 C 13.632812 7.042969 9.457031 8.296875 6.777344 11.542969 C 3.675781 11.585938 0.464844 12.566406 0.464844 14.339844 L 0.464844 15.742188 C 0.210938 15.742188 0 15.949219 0 16.207031 L 0 18.074219 C 0 18.332031 0.210938 18.539062 0.464844 18.539062 L 2.332031 18.539062 C 2.589844 18.539062 2.800781 18.332031 2.800781 18.074219 C 2.800781 16.273438 4.265625 14.808594 6.066406 14.808594 C 7.867188 14.808594 9.332031 16.273438 9.332031 18.074219 C 9.332031 18.332031 9.542969 18.539062 9.800781 18.539062 L 18.199219 18.539062 C 18.457031 18.539062 18.667969 18.332031 18.667969 18.074219 C 18.667969 16.273438 20.132812 14.808594 21.933594 14.808594 C 23.734375 14.808594 25.199219 16.273438 25.199219 18.074219 C 25.199219 18.332031 25.410156 18.539062 25.667969 18.539062 L 27.53125 18.539062 C 27.789062 18.539062 28 18.332031 28 18.074219 L 28 16.207031 C 28 15.949219 27.789062 15.742188 27.535156 15.742188 Z M 21.488281 9.605469 C 22.300781 10.105469 22.902344 10.761719 23.429688 11.539062 L 21.472656 11.539062 Z M 15.867188 8.527344 C 16.863281 8.511719 17.925781 8.578125 19.0625 8.734375 C 19.621094 8.835938 20.117188 8.976562 20.5625 9.148438 L 20.539062 11.542969 L 15.867188 11.542969 Z M 14.933594 8.566406 L 14.933594 11.542969 L 8.035156 11.542969 C 9.765625 9.757812 12.046875 8.769531 14.933594 8.566406 Z M 27.066406 17.609375 L 26.109375 17.609375 C 25.875 15.511719 24.089844 13.875 21.933594 13.875 C 19.773438 13.875 17.992188 15.511719 17.757812 17.609375 L 10.242188 17.609375 C 10.007812 15.511719 8.226562 13.875 6.066406 13.875 C 3.910156 13.875 2.125 15.511719 1.890625 17.609375 L 0.933594 17.609375 L 0.933594 16.675781 C 1.191406 16.675781 1.398438 16.464844 1.398438 16.207031 L 1.398438 14.808594 L 1.867188 14.808594 C 2.125 14.808594 2.332031 14.597656 2.332031 14.339844 C 2.332031 14.082031 2.125 13.875 1.867188 13.875 L 1.625 13.875 C 2.257812 13.1875 4.1875 12.472656 7 12.472656 L 24.191406 12.472656 L 26.601562 13.277344 L 26.601562 13.875 L 26.132812 13.875 C 25.875 13.875 25.667969 14.082031 25.667969 14.339844 C 25.667969 14.597656 25.875 14.808594 26.132812 14.808594 L 26.601562 14.808594 L 26.601562 16.207031 C 26.601562 16.464844 26.808594 16.675781 27.066406 16.675781 Z M 27.066406 17.609375 "/>
</g>
</svg>
