<?xml version="1.0" encoding="UTF-8"?>
<svg xmlns="http://www.w3.org/2000/svg" xmlns:xlink="http://www.w3.org/1999/xlink" width="28pt" height="28pt" viewBox="0 0 28 28" version="1.1">
<g id="surface1">
<path style=" stroke:none;fill-rule:nonzero;fill:rgb(0%,0%,0%);fill-opacity:1;" d="M 26.519531 17.796875 L 24.269531 16.777344 L 22.289062 13.613281 C 21.714844 12.6875 20.703125 12.132812 19.613281 12.132812 L 11.195312 12.132812 C 10.210938 12.136719 9.285156 12.59375 8.679688 13.378906 L 6.132812 16.722656 L 1.855469 17.890625 C 0.761719 18.1875 0.00390625 19.179688 0 20.316406 L 0 21.945312 C 0 23.332031 1.140625 24.433594 2.53125 24.433594 L 2.882812 24.433594 C 3.328125 26.136719 5.074219 27.152344 6.777344 26.707031 C 7.890625 26.414062 8.757812 25.546875 9.050781 24.433594 L 18.628906 24.433594 C 19.074219 26.136719 20.820312 27.152344 22.523438 26.707031 C 23.636719 26.414062 24.503906 25.546875 24.796875 24.433594 L 25.46875 24.433594 C 26.859375 24.433594 28 23.332031 28 21.945312 L 28 20.085938 C 27.996094 19.097656 27.414062 18.207031 26.519531 17.796875 Z M 5.96875 25.664062 C 4.855469 25.664062 3.953125 24.761719 3.953125 23.648438 C 3.953125 22.535156 4.855469 21.632812 5.96875 21.632812 C 7.082031 21.632812 7.984375 22.535156 7.984375 23.648438 C 7.984375 24.761719 7.082031 25.664062 5.96875 25.664062 Z M 21.707031 25.664062 C 20.597656 25.664062 19.695312 24.761719 19.695312 23.648438 C 19.695312 22.535156 20.597656 21.632812 21.707031 21.632812 C 22.820312 21.632812 23.722656 22.535156 23.722656 23.648438 C 23.722656 24.761719 22.820312 25.664062 21.707031 25.664062 Z M 26.828125 21.945312 C 26.828125 22.679688 26.207031 23.261719 25.46875 23.261719 L 24.878906 23.261719 C 24.679688 21.511719 23.097656 20.257812 21.351562 20.457031 C 19.875 20.625 18.710938 21.785156 18.546875 23.261719 L 9.132812 23.261719 C 8.933594 21.511719 7.351562 20.257812 5.605469 20.457031 C 4.128906 20.625 2.964844 21.785156 2.800781 23.261719 L 2.53125 23.261719 C 1.792969 23.261719 1.171875 22.6875 1.171875 21.945312 L 1.171875 20.316406 C 1.175781 19.710938 1.582031 19.179688 2.167969 19.019531 L 6.632812 17.800781 C 6.753906 17.765625 6.867188 17.695312 6.949219 17.589844 L 9.613281 14.089844 C 9.988281 13.597656 10.574219 13.304688 11.195312 13.304688 L 19.613281 13.304688 C 20.296875 13.304688 20.9375 13.65625 21.292969 14.242188 L 23.367188 17.550781 C 23.425781 17.648438 23.511719 17.726562 23.617188 17.773438 L 26.03125 18.867188 C 26.511719 19.085938 26.824219 19.566406 26.828125 20.09375 Z M 26.828125 21.945312 "/>
<path style=" stroke:none;fill-rule:nonzero;fill:rgb(0%,0%,0%);fill-opacity:1;" d="M 23.96875 4.734375 C 24.292969 4.761719 24.574219 4.523438 24.601562 4.199219 C 24.609375 4.128906 24.601562 4.058594 24.578125 3.988281 C 24.34375 3.152344 23.828125 2.417969 23.121094 1.914062 C 22.445312 1.441406 21.621094 1.199219 20.726562 1.1875 C 19.015625 1.1875 17.625 2.054688 17.003906 3.578125 L 10.808594 3.578125 C 10.0625 2.289062 8.6875 1.5 7.261719 1.5 C 6.34375 1.5 5.507812 1.75 4.851562 2.238281 C 4.140625 2.765625 3.648438 3.542969 3.433594 4.5 C 3.363281 4.816406 3.554688 5.125 3.871094 5.195312 C 3.929688 5.207031 3.988281 5.214844 4.046875 5.207031 L 6.085938 5.050781 C 6.257812 5.40625 6.257812 5.816406 6.085938 6.175781 L 4.03125 6.011719 C 3.707031 5.980469 3.425781 6.222656 3.398438 6.542969 C 3.390625 6.613281 3.398438 6.683594 3.421875 6.753906 C 3.65625 7.59375 4.171875 8.324219 4.886719 8.828125 C 5.59375 9.3125 6.433594 9.578125 7.292969 9.566406 C 9.003906 9.566406 10.390625 8.667969 11.011719 7.207031 L 17.179688 7.207031 C 17.824219 8.257812 19.097656 9.261719 20.714844 9.238281 C 21.625 9.238281 22.464844 8.972656 23.125 8.488281 C 23.835938 7.96875 24.339844 7.195312 24.574219 6.25 C 24.648438 5.933594 24.460938 5.617188 24.144531 5.535156 C 24.085938 5.519531 24.023438 5.511719 23.957031 5.519531 L 21.917969 5.6875 C 21.75 5.332031 21.75 4.921875 21.917969 4.5625 Z M 21.144531 6.667969 C 21.269531 6.820312 21.457031 6.902344 21.648438 6.890625 L 23.109375 6.777344 C 22.632812 7.605469 21.785156 8.066406 20.695312 8.066406 C 19.4375 8.082031 18.441406 7.199219 18.054688 6.367188 C 17.953125 6.164062 17.75 6.039062 17.519531 6.046875 L 10.601562 6.046875 C 10.34375 6.039062 10.117188 6.203125 10.039062 6.449219 C 9.675781 7.65625 8.621094 8.398438 7.292969 8.398438 C 6.292969 8.398438 5.453125 7.984375 4.949219 7.277344 L 6.34375 7.386719 C 6.542969 7.40625 6.738281 7.316406 6.859375 7.160156 L 6.871094 7.140625 C 7.550781 6.234375 7.542969 4.984375 6.855469 4.089844 C 6.730469 3.929688 6.542969 3.847656 6.34375 3.859375 L 4.863281 3.976562 C 5.324219 3.128906 6.164062 2.660156 7.261719 2.660156 C 8.347656 2.660156 9.441406 3.386719 9.929688 4.40625 C 10.023438 4.609375 10.226562 4.75 10.457031 4.757812 L 17.410156 4.757812 C 17.671875 4.75 17.894531 4.574219 17.972656 4.324219 C 18.335938 3.117188 19.390625 2.355469 20.714844 2.355469 C 21.707031 2.367188 22.546875 2.777344 23.050781 3.484375 L 21.65625 3.367188 C 21.457031 3.351562 21.261719 3.4375 21.140625 3.597656 L 21.128906 3.613281 C 20.445312 4.515625 20.449219 5.769531 21.144531 6.667969 Z M 21.144531 6.667969 "/>
</g>
</svg>
