<?xml version="1.0" encoding="UTF-8"?>
<svg xmlns="http://www.w3.org/2000/svg" xmlns:xlink="http://www.w3.org/1999/xlink" width="28pt" height="28pt" viewBox="0 0 28 28" version="1.1">
<g id="surface1">
<path style=" stroke:none;fill-rule:nonzero;fill:rgb(0%,0%,0%);fill-opacity:1;" d="M 27.980469 12.664062 L 27.980469 11.117188 C 27.972656 11.117188 27.964844 11.113281 27.957031 11.113281 L 26.375 11.113281 L 25.445312 12.078125 L 24.378906 8.90625 L 24.371094 8.882812 C 24.371094 8.882812 23.03125 7.660156 17.773438 7.660156 C 17.742188 7.660156 17.714844 7.660156 17.683594 7.660156 C 17.65625 7.660156 17.628906 7.660156 17.597656 7.660156 C 12.335938 7.660156 11 8.882812 11 8.882812 L 10.992188 8.90625 L 9.925781 12.078125 L 8.996094 11.113281 L 7.414062 11.113281 C 7.40625 11.113281 7.398438 11.117188 7.390625 11.117188 L 7.390625 12.664062 L 9.070312 12.832031 L 9.234375 13.140625 C 8.710938 13.652344 8.597656 14.691406 8.90625 16.148438 C 8.929688 16.261719 8.96875 16.546875 8.972656 16.898438 L 8.972656 20.238281 C 8.972656 20.28125 9.007812 20.320312 9.054688 20.320312 L 11.667969 20.320312 C 11.714844 20.320312 11.75 20.28125 11.75 20.238281 L 11.75 17.566406 L 23.617188 17.566406 L 23.617188 20.238281 C 23.617188 20.28125 23.65625 20.320312 23.699219 20.320312 L 26.316406 20.320312 C 26.359375 20.320312 26.398438 20.28125 26.398438 20.238281 L 26.398438 16.898438 C 26.402344 16.546875 26.441406 16.261719 26.464844 16.148438 C 26.769531 14.691406 26.660156 13.652344 26.136719 13.140625 L 26.300781 12.832031 Z M 14.355469 15.855469 L 11.070312 15.886719 L 10.796875 14.464844 L 14.445312 14.664062 Z M 10.800781 12.746094 L 11.929688 9.386719 C 12.070312 9.300781 12.429688 9.136719 13.257812 8.988281 C 14.320312 8.796875 15.78125 8.703125 17.597656 8.703125 C 17.628906 8.703125 17.65625 8.703125 17.683594 8.703125 C 17.714844 8.703125 17.742188 8.703125 17.773438 8.703125 C 19.589844 8.703125 21.046875 8.796875 22.109375 8.988281 C 22.941406 9.136719 23.300781 9.300781 23.441406 9.386719 L 24.570312 12.746094 Z M 24.300781 15.886719 L 21.015625 15.855469 L 20.925781 14.664062 L 24.574219 14.464844 Z M 24.300781 15.886719 "/>
<path style=" stroke:none;fill-rule:nonzero;fill:rgb(0%,0%,0%);fill-opacity:1;" d="M 2.351562 9.105469 L 0 11.148438 C 0.84375 11.808594 1.390625 12.835938 1.390625 13.988281 C 1.390625 15.144531 0.84375 16.171875 0 16.832031 L 2.351562 18.875 C 3.660156 17.652344 4.476562 15.914062 4.476562 13.988281 C 4.476562 12.0625 3.660156 10.328125 2.351562 9.105469 Z M 2.351562 9.105469 "/>
<path style=" stroke:none;fill-rule:nonzero;fill:rgb(0%,0%,0%);fill-opacity:1;" d="M 8.117188 20.238281 L 8.117188 16.90625 C 8.113281 16.589844 8.078125 16.367188 8.070312 16.324219 C 7.992188 15.964844 7.941406 15.625 7.910156 15.304688 C 7.617188 17.585938 6.566406 19.636719 5.019531 21.191406 L 7.351562 23.214844 C 7.957031 22.589844 8.5 21.902344 8.972656 21.167969 C 8.492188 21.128906 8.117188 20.726562 8.117188 20.238281 Z M 8.117188 20.238281 "/>
<path style=" stroke:none;fill-rule:nonzero;fill:rgb(0%,0%,0%);fill-opacity:1;" d="M 7.363281 10.261719 C 7.378906 10.261719 7.394531 10.257812 7.414062 10.257812 L 9.359375 10.257812 L 9.5625 10.472656 L 10.082031 8.929688 C 9.4375 7.371094 8.503906 5.960938 7.351562 4.761719 L 5.019531 6.789062 C 5.996094 7.773438 6.777344 8.953125 7.292969 10.261719 Z M 7.363281 10.261719 "/>
<path style=" stroke:none;fill-rule:nonzero;fill:rgb(0%,0%,0%);fill-opacity:1;" d="M 16.386719 6.828125 C 15.480469 4.476562 14.125 2.300781 12.363281 0.410156 L 10.027344 2.441406 C 11.328125 3.820312 12.398438 5.417969 13.179688 7.175781 C 14.003906 7.007812 15.054688 6.878906 16.386719 6.828125 Z M 16.386719 6.828125 "/>
<path style=" stroke:none;fill-rule:nonzero;fill:rgb(0%,0%,0%);fill-opacity:1;" d="M 10.027344 25.539062 L 12.363281 27.566406 C 14.789062 24.964844 16.445312 21.824219 17.214844 18.421875 L 14.03125 18.421875 C 13.292969 21.121094 11.898438 23.554688 10.027344 25.539062 Z M 10.027344 25.539062 "/>
</g>
</svg>
