<?xml version="1.0" encoding="UTF-8"?>
<svg xmlns="http://www.w3.org/2000/svg" xmlns:xlink="http://www.w3.org/1999/xlink" width="28pt" height="28pt" viewBox="0 0 28 28" version="1.1">
<g id="surface1">
<path style=" stroke:none;fill-rule:nonzero;fill:rgb(0%,0%,0%);fill-opacity:1;" d="M 25.117188 19.148438 L 24.8125 19.148438 C 24.628906 14.796875 21.863281 10.976562 17.773438 9.457031 L 17.773438 5.730469 C 17.890625 5.648438 17.96875 5.515625 17.96875 5.363281 C 17.96875 5.113281 17.765625 4.910156 17.515625 4.910156 L 10.484375 4.910156 C 10.234375 4.910156 10.03125 5.113281 10.03125 5.363281 C 10.03125 5.515625 10.109375 5.648438 10.226562 5.730469 L 10.226562 9.457031 C 6.136719 10.976562 3.371094 14.796875 3.1875 19.148438 L 2.882812 19.148438 C 2.632812 19.148438 2.433594 19.351562 2.433594 19.601562 C 2.433594 19.851562 2.632812 20.050781 2.882812 20.050781 L 5.632812 20.050781 C 5.816406 20.851562 6.636719 21.554688 7.984375 22.0625 C 9.5 22.632812 11.578125 22.933594 14 22.933594 C 16.421875 22.933594 18.5 22.632812 20.015625 22.0625 C 21.363281 21.554688 22.183594 20.851562 22.367188 20.050781 L 25.117188 20.050781 C 25.367188 20.050781 25.566406 19.851562 25.566406 19.601562 C 25.566406 19.351562 25.367188 19.148438 25.117188 19.148438 Z M 10.753906 10.226562 L 14.3125 10.226562 C 14.5625 10.226562 14.761719 10.023438 14.761719 9.777344 C 14.761719 9.527344 14.5625 9.324219 14.3125 9.324219 L 11.128906 9.324219 L 11.128906 5.8125 L 16.871094 5.8125 L 16.871094 9.324219 L 16.117188 9.324219 C 15.871094 9.324219 15.667969 9.527344 15.667969 9.777344 C 15.667969 10.023438 15.871094 10.226562 16.117188 10.226562 L 17.246094 10.226562 C 21.097656 11.558594 23.722656 15.101562 23.90625 19.148438 L 4.09375 19.148438 C 4.277344 15.101562 6.902344 11.558594 10.753906 10.226562 Z M 19.695312 21.21875 C 18.710938 21.585938 16.921875 22.027344 14 22.027344 C 11.078125 22.027344 9.289062 21.585938 8.304688 21.21875 C 7.421875 20.886719 6.816406 20.46875 6.59375 20.050781 L 21.40625 20.050781 C 21.183594 20.46875 20.578125 20.886719 19.695312 21.21875 Z M 19.695312 21.21875 "/>
<path style=" stroke:none;fill-rule:nonzero;fill:rgb(0%,0%,0%);fill-opacity:1;" d="M 10.484375 4.007812 L 17.515625 4.007812 C 17.765625 4.007812 17.96875 3.804688 17.96875 3.554688 C 17.96875 3.304688 17.765625 3.105469 17.515625 3.105469 L 17.265625 3.105469 L 17.265625 2.003906 C 17.265625 0.898438 16.429688 0 15.40625 0 L 12.59375 0 C 11.570312 0 10.734375 0.898438 10.734375 2.003906 L 10.734375 3.105469 L 10.484375 3.105469 C 10.234375 3.105469 10.03125 3.304688 10.03125 3.554688 C 10.03125 3.804688 10.234375 4.007812 10.484375 4.007812 Z M 11.640625 2.003906 C 11.640625 1.398438 12.066406 0.902344 12.59375 0.902344 L 15.40625 0.902344 C 15.933594 0.902344 16.359375 1.398438 16.359375 2.003906 L 16.359375 3.105469 L 11.640625 3.105469 Z M 11.640625 2.003906 "/>
<path style=" stroke:none;fill-rule:nonzero;fill:rgb(0%,0%,0%);fill-opacity:1;" d="M 14 23.929688 C 13.75 23.929688 13.546875 24.132812 13.546875 24.382812 L 13.546875 27.546875 C 13.546875 27.796875 13.75 28 14 28 C 14.25 28 14.453125 27.796875 14.453125 27.546875 L 14.453125 24.382812 C 14.453125 24.132812 14.25 23.929688 14 23.929688 Z M 14 23.929688 "/>
<path style=" stroke:none;fill-rule:nonzero;fill:rgb(0%,0%,0%);fill-opacity:1;" d="M 10.089844 23.644531 C 9.859375 23.546875 9.59375 23.652344 9.5 23.882812 L 8.238281 26.863281 C 8.140625 27.09375 8.25 27.359375 8.480469 27.457031 C 8.535156 27.480469 8.597656 27.492188 8.65625 27.492188 C 8.832031 27.492188 9 27.386719 9.070312 27.214844 L 10.332031 24.234375 C 10.425781 24.003906 10.320312 23.738281 10.089844 23.644531 Z M 10.089844 23.644531 "/>
<path style=" stroke:none;fill-rule:nonzero;fill:rgb(0%,0%,0%);fill-opacity:1;" d="M 18.5 23.882812 C 18.40625 23.652344 18.140625 23.546875 17.910156 23.644531 C 17.679688 23.738281 17.574219 24.003906 17.667969 24.234375 L 18.929688 27.214844 C 19 27.386719 19.167969 27.492188 19.34375 27.492188 C 19.402344 27.492188 19.464844 27.480469 19.519531 27.457031 C 19.75 27.359375 19.859375 27.09375 19.761719 26.863281 Z M 18.5 23.882812 "/>
</g>
</svg>
