<?xml version="1.0" encoding="UTF-8"?>
<svg xmlns="http://www.w3.org/2000/svg" xmlns:xlink="http://www.w3.org/1999/xlink" width="28pt" height="28pt" viewBox="0 0 28 28" version="1.1">
<g id="surface1">
<path style=" stroke:none;fill-rule:nonzero;fill:rgb(0%,0%,0%);fill-opacity:1;" d="M 22.308594 9.511719 C 20.835938 8.042969 19.042969 7.007812 17.089844 6.476562 L 17.089844 3.0625 L 14.792969 3.0625 L 14.792969 0 L 13.152344 0 L 13.152344 3.0625 L 10.859375 3.0625 L 10.859375 6.476562 C 8.902344 7.007812 7.113281 8.042969 5.640625 9.511719 C 3.414062 11.738281 2.1875 14.699219 2.1875 17.847656 L 2.1875 18.667969 L 9.085938 18.667969 C 9.476562 21.011719 11.519531 22.804688 13.972656 22.804688 C 16.429688 22.804688 18.472656 21.011719 18.863281 18.667969 L 25.761719 18.667969 L 25.761719 17.847656 C 25.761719 14.699219 24.535156 11.738281 22.308594 9.511719 Z M 12.5 4.703125 L 15.449219 4.703125 L 15.449219 6.152344 C 14.960938 6.089844 14.472656 6.0625 13.972656 6.0625 C 13.476562 6.0625 12.984375 6.089844 12.5 6.152344 Z M 13.972656 7.703125 C 18.066406 7.703125 21.601562 10.136719 23.203125 13.636719 L 4.742188 13.636719 C 6.347656 10.136719 9.878906 7.703125 13.972656 7.703125 Z M 13.972656 21.164062 C 12.429688 21.164062 11.125 20.101562 10.761719 18.667969 L 17.1875 18.667969 C 16.820312 20.101562 15.519531 21.164062 13.972656 21.164062 Z M 18.929688 17.027344 L 3.859375 17.027344 C 3.910156 16.429688 4.011719 15.84375 4.15625 15.277344 L 23.789062 15.277344 C 23.9375 15.84375 24.039062 16.429688 24.085938 17.027344 Z M 18.929688 17.027344 "/>
<path style=" stroke:none;fill-rule:nonzero;fill:rgb(0%,0%,0%);fill-opacity:1;" d="M 13.152344 25.320312 L 14.792969 25.320312 L 14.792969 28 L 13.152344 28 Z M 13.152344 25.320312 "/>
<path style=" stroke:none;fill-rule:nonzero;fill:rgb(0%,0%,0%);fill-opacity:1;" d="M 17.039062 24.78125 L 18.480469 23.996094 L 19.765625 26.347656 L 18.324219 27.132812 Z M 17.039062 24.78125 "/>
<path style=" stroke:none;fill-rule:nonzero;fill:rgb(0%,0%,0%);fill-opacity:1;" d="M 20.054688 22.519531 L 20.941406 21.140625 L 23.195312 22.589844 L 22.308594 23.96875 Z M 20.054688 22.519531 "/>
<path style=" stroke:none;fill-rule:nonzero;fill:rgb(0%,0%,0%);fill-opacity:1;" d="M 8.183594 26.34375 L 9.46875 23.992188 L 10.90625 24.777344 L 9.625 27.128906 Z M 8.183594 26.34375 "/>
<path style=" stroke:none;fill-rule:nonzero;fill:rgb(0%,0%,0%);fill-opacity:1;" d="M 4.75 22.589844 L 7.003906 21.140625 L 7.890625 22.519531 L 5.640625 23.96875 Z M 4.75 22.589844 "/>
</g>
</svg>
