<?xml version="1.0" encoding="UTF-8"?>
<svg xmlns="http://www.w3.org/2000/svg" xmlns:xlink="http://www.w3.org/1999/xlink" width="28pt" height="27pt" viewBox="0 0 28 27" version="1.1">
<g id="surface1">
<path style=" stroke:none;fill-rule:nonzero;fill:rgb(0%,0%,0%);fill-opacity:1;" d="M 4.21875 17.53125 C 4.210938 21.5625 6.855469 25.152344 10.804688 26.46875 C 14.753906 27.789062 19.136719 26.542969 21.714844 23.371094 C 24.292969 20.199219 24.496094 15.796875 22.222656 12.414062 C 22.21875 12.402344 22.210938 12.394531 22.203125 12.382812 C 20.757812 10.242188 18.472656 8.757812 15.871094 8.269531 L 15.871094 7.191406 C 15.871094 6.875 15.78125 6.566406 15.613281 6.292969 L 16.804688 6.292969 C 17.0625 6.292969 17.269531 6.09375 17.269531 5.84375 C 17.269531 5.59375 17.0625 5.394531 16.804688 5.394531 L 15.40625 5.394531 L 15.40625 2.695312 L 16.804688 2.695312 C 18.089844 2.695312 19.132812 1.691406 19.136719 0.449219 C 19.136719 0.203125 18.925781 0 18.667969 0 L 9.347656 0 C 9.089844 0 8.878906 0.203125 8.878906 0.449219 C 8.882812 1.691406 9.925781 2.695312 11.210938 2.695312 L 12.609375 2.695312 L 12.609375 5.394531 L 11.210938 5.394531 C 10.953125 5.394531 10.746094 5.59375 10.746094 5.84375 C 10.746094 6.09375 10.953125 6.292969 11.210938 6.292969 L 12.402344 6.292969 C 12.234375 6.566406 12.144531 6.875 12.144531 7.191406 L 12.144531 8.269531 C 9.542969 8.757812 7.257812 10.242188 5.8125 12.382812 C 5.804688 12.394531 5.796875 12.402344 5.792969 12.414062 C 4.765625 13.9375 4.21875 15.714844 4.21875 17.53125 Z M 9.890625 0.898438 L 18.125 0.898438 C 17.925781 1.4375 17.398438 1.796875 16.804688 1.796875 L 11.210938 1.796875 C 10.617188 1.796875 10.089844 1.4375 9.890625 0.898438 Z M 13.542969 2.695312 L 14.472656 2.695312 L 14.472656 5.394531 L 13.542969 5.394531 Z M 13.074219 7.191406 C 13.074219 6.695312 13.492188 6.292969 14.007812 6.292969 C 14.523438 6.292969 14.941406 6.695312 14.941406 7.191406 L 14.941406 8.136719 C 14.632812 8.109375 14.324219 8.089844 14.007812 8.089844 C 13.691406 8.089844 13.382812 8.109375 13.074219 8.136719 Z M 14.007812 8.988281 C 16.667969 8.992188 19.1875 10.144531 20.867188 12.136719 L 18.203125 12.136719 C 17.945312 12.136719 17.738281 12.339844 17.738281 12.585938 C 17.738281 12.835938 17.945312 13.035156 18.203125 13.035156 L 21.523438 13.035156 C 23.835938 16.613281 23.09375 21.285156 19.777344 24.035156 C 16.457031 26.78125 11.558594 26.78125 8.238281 24.035156 C 4.921875 21.285156 4.175781 16.613281 6.492188 13.035156 L 16.339844 13.035156 C 16.597656 13.035156 16.804688 12.835938 16.804688 12.585938 C 16.804688 12.339844 16.597656 12.136719 16.339844 12.136719 L 7.148438 12.136719 C 8.828125 10.144531 11.347656 8.992188 14.007812 8.988281 Z M 14.007812 8.988281 "/>
<path style=" stroke:none;fill-rule:nonzero;fill:rgb(0%,0%,0%);fill-opacity:1;" d="M 14.007812 24.273438 C 10.148438 24.269531 7.019531 21.253906 7.015625 17.53125 C 7.015625 17.28125 6.804688 17.082031 6.550781 17.082031 C 6.292969 17.082031 6.082031 17.28125 6.082031 17.53125 C 6.085938 21.75 9.632812 25.167969 14.007812 25.171875 C 14.265625 25.171875 14.472656 24.972656 14.472656 24.722656 C 14.472656 24.476562 14.265625 24.273438 14.007812 24.273438 Z M 14.007812 24.273438 "/>
</g>
</svg>
