<?xml version="1.0" encoding="UTF-8"?>
<svg xmlns="http://www.w3.org/2000/svg" xmlns:xlink="http://www.w3.org/1999/xlink" width="28pt" height="28pt" viewBox="0 0 28 28" version="1.1">
<g id="surface1">
<path style=" stroke:none;fill-rule:nonzero;fill:rgb(0%,0%,0%);fill-opacity:1;" d="M 27.535156 0 L 0.464844 0 C 0.207031 0 0 0.207031 0 0.464844 C 0 0.722656 0.207031 0.933594 0.464844 0.933594 L 2.332031 0.933594 L 2.332031 2.332031 C 2.332031 2.589844 2.542969 2.800781 2.800781 2.800781 L 5.601562 2.800781 L 5.601562 7.933594 L 4.667969 7.933594 C 4.410156 7.933594 4.199219 8.140625 4.199219 8.398438 L 4.199219 12.378906 C 4.195312 12.539062 4.113281 12.6875 3.976562 12.773438 C 2.910156 13.488281 2.289062 14.703125 2.332031 15.984375 C 2.414062 17.957031 4.007812 19.535156 5.984375 19.601562 L 6.066406 19.601562 C 8.128906 19.597656 9.796875 17.925781 9.796875 15.863281 C 9.796875 14.621094 9.179688 13.460938 8.148438 12.769531 C 8.015625 12.683594 7.933594 12.539062 7.933594 12.378906 L 7.933594 8.398438 C 7.933594 8.140625 7.722656 7.933594 7.464844 7.933594 L 6.535156 7.933594 L 6.535156 2.800781 L 13.535156 2.800781 L 13.535156 16.332031 L 12.601562 16.332031 C 12.34375 16.332031 12.132812 16.542969 12.132812 16.800781 L 12.132812 20.777344 C 12.128906 20.9375 12.046875 21.085938 11.910156 21.171875 C 10.84375 21.886719 10.222656 23.101562 10.265625 24.382812 C 10.347656 26.359375 11.941406 27.9375 13.917969 28 L 14 28 C 16.0625 28 17.730469 26.324219 17.730469 24.261719 C 17.730469 23.023438 17.109375 21.863281 16.082031 21.167969 C 15.949219 21.082031 15.867188 20.9375 15.867188 20.78125 L 15.867188 16.800781 C 15.867188 16.542969 15.65625 16.332031 15.398438 16.332031 L 14.464844 16.332031 L 14.464844 2.800781 L 21.464844 2.800781 L 21.464844 10.734375 L 20.535156 10.734375 C 20.277344 10.734375 20.066406 10.941406 20.066406 11.199219 L 20.066406 15.179688 C 20.0625 15.339844 19.980469 15.488281 19.84375 15.574219 C 18.777344 16.289062 18.15625 17.5 18.199219 18.785156 C 18.28125 20.757812 19.875 22.335938 21.851562 22.398438 L 21.933594 22.398438 C 23.996094 22.398438 25.664062 20.726562 25.664062 18.664062 C 25.664062 17.421875 25.042969 16.261719 24.015625 15.570312 C 23.882812 15.484375 23.800781 15.335938 23.800781 15.179688 L 23.800781 11.199219 C 23.800781 10.941406 23.589844 10.734375 23.332031 10.734375 L 22.398438 10.734375 L 22.398438 2.800781 L 25.199219 2.800781 C 25.457031 2.800781 25.667969 2.589844 25.667969 2.332031 L 25.667969 0.933594 L 27.535156 0.933594 C 27.792969 0.933594 28 0.722656 28 0.464844 C 28 0.207031 27.792969 0 27.535156 0 Z M 7.628906 13.542969 C 8.402344 14.0625 8.867188 14.933594 8.867188 15.867188 C 8.871094 16.621094 8.566406 17.34375 8.027344 17.867188 C 7.492188 18.40625 6.757812 18.695312 6.003906 18.667969 C 4.523438 18.617188 3.328125 17.4375 3.265625 15.953125 C 3.234375 14.992188 3.699219 14.082031 4.496094 13.546875 C 4.824219 13.328125 5.042969 12.988281 5.105469 12.601562 L 7.027344 12.601562 C 7.089844 12.984375 7.308594 13.328125 7.628906 13.542969 Z M 7 8.867188 L 7 11.667969 L 5.132812 11.667969 L 5.132812 8.867188 Z M 15.5625 21.945312 C 16.335938 22.464844 16.800781 23.335938 16.800781 24.265625 C 16.804688 25.019531 16.5 25.742188 15.960938 26.269531 C 15.425781 26.804688 14.691406 27.09375 13.9375 27.066406 C 12.457031 27.019531 11.261719 25.835938 11.199219 24.355469 C 11.167969 23.394531 11.632812 22.484375 12.429688 21.949219 C 12.753906 21.730469 12.976562 21.386719 13.039062 21 L 14.960938 21 C 15.023438 21.386719 15.238281 21.726562 15.5625 21.945312 Z M 14.933594 17.265625 L 14.933594 20.066406 L 13.066406 20.066406 L 13.066406 17.265625 Z M 23.496094 16.34375 C 24.269531 16.863281 24.734375 17.734375 24.734375 18.667969 C 24.734375 19.421875 24.433594 20.144531 23.894531 20.667969 C 23.359375 21.203125 22.625 21.492188 21.871094 21.464844 C 20.386719 21.417969 19.195312 20.234375 19.132812 18.753906 C 19.101562 17.792969 19.566406 16.882812 20.363281 16.347656 C 20.6875 16.128906 20.910156 15.785156 20.972656 15.398438 L 22.894531 15.398438 C 22.957031 15.785156 23.171875 16.125 23.496094 16.34375 Z M 22.867188 11.667969 L 22.867188 14.464844 L 21 14.464844 L 21 11.667969 Z M 24.734375 1.867188 L 3.265625 1.867188 L 3.265625 0.933594 L 24.734375 0.933594 Z M 24.734375 1.867188 "/>
</g>
</svg>
