<?xml version="1.0" encoding="UTF-8"?>
<svg xmlns="http://www.w3.org/2000/svg" xmlns:xlink="http://www.w3.org/1999/xlink" width="28pt" height="28pt" viewBox="0 0 28 28" version="1.1">
<g id="surface1">
<path style=" stroke:none;fill-rule:nonzero;fill:rgb(0%,0%,0%);fill-opacity:1;" d="M 28 1.75 L 28 0 L 0 0 L 0 1.75 L 5.25 1.75 L 5.25 17.570312 C 2.238281 18.003906 0.00390625 20.582031 0 23.625 L 0 24.5 L 12.25 24.5 L 12.25 23.625 C 12.246094 20.582031 10.011719 18.003906 7 17.570312 L 7 1.75 L 21 1.75 L 21 17.570312 C 17.988281 18.003906 15.753906 20.582031 15.75 23.625 L 15.75 24.5 L 28 24.5 L 28 23.625 C 27.996094 20.582031 25.761719 18.003906 22.75 17.570312 L 22.75 1.75 Z M 10.414062 22.75 L 1.835938 22.75 C 2.316406 20.382812 4.628906 18.851562 6.996094 19.332031 C 8.71875 19.683594 10.0625 21.027344 10.414062 22.75 Z M 26.164062 22.75 L 17.585938 22.75 C 18.066406 20.382812 20.378906 18.851562 22.746094 19.332031 C 24.46875 19.683594 25.8125 21.027344 26.164062 22.75 Z M 26.164062 22.75 "/>
<path style=" stroke:none;fill-rule:nonzero;fill:rgb(0%,0%,0%);fill-opacity:1;" d="M 5.25 26.25 L 7 26.25 L 7 28 L 5.25 28 Z M 5.25 26.25 "/>
<path style=" stroke:none;fill-rule:nonzero;fill:rgb(0%,0%,0%);fill-opacity:1;" d="M 21 26.25 L 22.75 26.25 L 22.75 28 L 21 28 Z M 21 26.25 "/>
</g>
</svg>
