<?xml version="1.0" encoding="UTF-8"?>
<svg xmlns="http://www.w3.org/2000/svg" xmlns:xlink="http://www.w3.org/1999/xlink" width="28pt" height="28pt" viewBox="0 0 28 28" version="1.1">
<g id="surface1">
<path style=" stroke:none;fill-rule:nonzero;fill:rgb(0%,0%,0%);fill-opacity:1;" d="M 24.984375 21.390625 C 24.984375 21.390625 24.984375 21.386719 24.984375 21.382812 C 24.972656 18.769531 24.03125 16.242188 22.328125 14.261719 C 20.738281 12.414062 18.578125 11.144531 16.210938 10.660156 L 16.210938 9.03125 C 16.210938 8.277344 15.597656 7.667969 14.847656 7.667969 L 14.550781 7.667969 L 14.550781 0.550781 C 14.550781 0.246094 14.304688 0 14 0 C 13.695312 0 13.449219 0.246094 13.449219 0.550781 L 13.449219 7.667969 L 13.152344 7.667969 C 12.402344 7.667969 11.789062 8.277344 11.789062 9.03125 L 11.789062 10.660156 C 9.421875 11.144531 7.261719 12.414062 5.671875 14.261719 C 3.96875 16.242188 3.027344 18.769531 3.015625 21.382812 C 3.015625 21.386719 3.015625 21.390625 3.015625 21.390625 C 3.015625 21.394531 3.015625 21.394531 3.015625 21.398438 C 3.015625 21.40625 3.015625 21.414062 3.015625 21.421875 L 3.015625 23.578125 C 3.015625 23.878906 3.261719 24.125 3.566406 24.125 L 9.640625 24.125 C 9.898438 26.304688 11.753906 28 14 28 C 16.246094 28 18.101562 26.304688 18.359375 24.125 L 24.433594 24.125 C 24.738281 24.125 24.984375 23.878906 24.984375 23.578125 L 24.984375 21.421875 C 24.984375 21.414062 24.984375 21.40625 24.984375 21.398438 C 24.984375 21.394531 24.984375 21.394531 24.984375 21.390625 Z M 14 26.902344 C 12.359375 26.902344 10.996094 25.695312 10.746094 24.125 L 17.253906 24.125 C 17.003906 25.695312 15.640625 26.902344 14 26.902344 Z M 4.113281 23.027344 L 4.113281 21.941406 L 20.0625 21.941406 C 20.367188 21.941406 20.613281 21.695312 20.613281 21.390625 C 20.613281 21.089844 20.367188 20.84375 20.0625 20.84375 L 4.132812 20.84375 C 4.394531 16.214844 7.800781 12.402344 12.425781 11.660156 C 12.457031 11.65625 12.484375 11.648438 12.511719 11.640625 L 14 11.640625 C 14.304688 11.640625 14.550781 11.394531 14.550781 11.089844 C 14.550781 10.789062 14.304688 10.542969 14 10.542969 L 12.886719 10.542969 L 12.886719 9.03125 C 12.886719 8.882812 13.007812 8.765625 13.152344 8.765625 L 14.847656 8.765625 C 14.992188 8.765625 15.113281 8.882812 15.113281 9.03125 L 15.113281 11.117188 C 15.113281 11.390625 15.308594 11.617188 15.574219 11.660156 C 20.199219 12.402344 23.605469 16.214844 23.867188 20.84375 L 22.234375 20.84375 C 21.929688 20.84375 21.683594 21.089844 21.683594 21.390625 C 21.683594 21.695312 21.929688 21.941406 22.234375 21.941406 L 23.886719 21.941406 L 23.886719 23.027344 Z M 4.113281 23.027344 "/>
</g>
</svg>
