<?xml version="1.0" encoding="UTF-8"?>
<svg xmlns="http://www.w3.org/2000/svg" xmlns:xlink="http://www.w3.org/1999/xlink" width="28pt" height="28pt" viewBox="0 0 28 28" version="1.1">
<g id="surface1">
<path style=" stroke:none;fill-rule:nonzero;fill:rgb(0%,0%,0%);fill-opacity:1;" d="M 24.492188 25.472656 L 22.089844 13.367188 C 22.046875 13.140625 21.84375 12.972656 21.613281 12.972656 L 16.328125 12.972656 L 16.066406 10.433594 C 16.042969 10.1875 15.832031 9.996094 15.582031 9.996094 L 14.488281 9.996094 L 14.488281 3.507812 C 16.226562 3.34375 17.742188 2.300781 18.519531 0.699219 C 18.59375 0.550781 18.582031 0.371094 18.492188 0.230469 C 18.40625 0.0859375 18.25 0 18.082031 0 L 16.554688 0 C 16.285156 0 16.066406 0.21875 16.066406 0.488281 C 16.066406 0.757812 16.285156 0.976562 16.554688 0.976562 L 17.210938 0.976562 C 16.453125 1.964844 15.285156 2.554688 14 2.558594 C 12.714844 2.558594 11.542969 1.964844 10.785156 0.976562 L 14.925781 0.976562 C 15.195312 0.976562 15.414062 0.757812 15.414062 0.488281 C 15.414062 0.21875 15.195312 0 14.925781 0 L 9.917969 0 C 9.75 0 9.59375 0.0859375 9.503906 0.230469 C 9.414062 0.371094 9.40625 0.550781 9.476562 0.699219 C 10.242188 2.273438 11.789062 3.335938 13.511719 3.507812 L 13.511719 9.996094 L 12.417969 9.996094 C 12.167969 9.996094 11.957031 10.1875 11.933594 10.433594 L 11.671875 12.972656 L 6.386719 12.972656 C 6.15625 12.972656 5.953125 13.140625 5.910156 13.367188 L 5.402344 15.921875 C 5.351562 16.183594 5.523438 16.441406 5.785156 16.496094 C 6.050781 16.546875 6.308594 16.375 6.359375 16.109375 L 6.789062 13.949219 L 21.210938 13.949219 L 23.417969 25.082031 L 4.582031 25.082031 L 5.996094 17.949219 C 6.046875 17.683594 5.875 17.425781 5.613281 17.375 C 5.347656 17.320312 5.089844 17.492188 5.039062 17.757812 L 3.507812 25.472656 C 3.480469 25.617188 3.515625 25.765625 3.609375 25.878906 C 3.703125 25.992188 3.839844 26.054688 3.988281 26.054688 L 10.605469 26.054688 C 11.304688 27.246094 12.605469 28 14 28 C 15.414062 28 16.6875 27.261719 17.394531 26.054688 L 24.011719 26.054688 C 24.160156 26.054688 24.296875 25.992188 24.390625 25.878906 C 24.484375 25.765625 24.519531 25.617188 24.492188 25.472656 Z M 12.652344 12.972656 L 12.855469 10.972656 L 15.144531 10.972656 L 15.347656 12.972656 Z M 14 27.023438 C 13.144531 27.023438 12.355469 26.667969 11.804688 26.054688 L 16.191406 26.054688 C 15.640625 26.667969 14.851562 27.023438 14 27.023438 Z M 14 27.023438 "/>
</g>
</svg>
