<?xml version="1.0" encoding="UTF-8"?>
<svg xmlns="http://www.w3.org/2000/svg" xmlns:xlink="http://www.w3.org/1999/xlink" width="28pt" height="28pt" viewBox="0 0 28 28" version="1.1">
<g id="surface1">
<path style=" stroke:none;fill-rule:nonzero;fill:rgb(0%,0%,0%);fill-opacity:1;" d="M 27.0625 1.429688 L 0.9375 1.429688 C 0.417969 1.429688 0 1.851562 0 2.367188 L 0 5.546875 C 0 6.0625 0.417969 6.480469 0.9375 6.480469 L 13.0625 6.480469 L 13.0625 14.085938 L 3.011719 21.035156 C 2.675781 21.269531 2.527344 21.695312 2.648438 22.085938 C 2.773438 22.476562 3.132812 22.742188 3.542969 22.742188 L 9.441406 22.742188 C 9.824219 24.914062 11.722656 26.570312 14 26.570312 C 16.277344 26.570312 18.175781 24.914062 18.558594 22.742188 L 24.457031 22.742188 C 24.976562 22.742188 25.394531 22.324219 25.394531 21.804688 C 25.394531 21.46875 25.21875 21.175781 24.949219 21.007812 L 14.9375 14.085938 L 14.9375 6.480469 L 27.0625 6.480469 C 27.582031 6.480469 28 6.0625 28 5.546875 L 28 2.367188 C 28 1.851562 27.582031 1.429688 27.0625 1.429688 Z M 14 24.695312 C 12.761719 24.695312 11.710938 23.871094 11.363281 22.742188 L 16.636719 22.742188 C 16.289062 23.871094 15.238281 24.695312 14 24.695312 Z M 6.546875 20.871094 L 14 15.714844 L 21.453125 20.871094 Z M 26.128906 4.609375 L 1.871094 4.609375 L 1.871094 3.304688 L 26.128906 3.304688 Z M 26.128906 4.609375 "/>
</g>
</svg>
