<?xml version="1.0" encoding="UTF-8"?>
<svg xmlns="http://www.w3.org/2000/svg" xmlns:xlink="http://www.w3.org/1999/xlink" width="28pt" height="28pt" viewBox="0 0 28 28" version="1.1">
<g id="surface1">
<path style=" stroke:none;fill-rule:nonzero;fill:rgb(0%,0%,0%);fill-opacity:1;" d="M 24.105469 16.632812 C 23.4375 15.707031 22.472656 15.101562 21.382812 14.894531 L 21.382812 3.863281 C 24.089844 2.921875 24.664062 1.691406 24.664062 0.820312 C 24.664062 0.367188 24.296875 0 23.84375 0 L 4.15625 0 C 3.703125 0 3.335938 0.367188 3.335938 0.820312 C 3.335938 1.691406 3.910156 2.921875 6.617188 3.863281 L 6.617188 13.253906 C 5.527344 13.460938 4.5625 14.066406 3.894531 14.992188 C 2.414062 17.046875 3.367188 19.09375 3.378906 19.179688 C 3.488281 19.515625 3.800781 19.742188 4.15625 19.742188 L 10.71875 19.742188 C 11.070312 19.742188 11.382812 19.515625 11.496094 19.179688 C 11.503906 19.089844 12.464844 17.054688 10.980469 14.992188 C 10.3125 14.066406 9.347656 13.460938 8.257812 13.253906 L 8.257812 4.328125 C 9.71875 4.664062 11.40625 4.863281 13.179688 4.910156 L 13.179688 21.460938 C 12.097656 21.664062 11.140625 22.273438 10.472656 23.203125 C 8.964844 25.289062 9.929688 27.355469 9.941406 27.4375 C 10.050781 27.773438 10.363281 28 10.71875 28 L 17.28125 28 C 17.632812 28 17.945312 27.773438 18.058594 27.4375 C 18.066406 27.351562 19.03125 25.292969 17.527344 23.203125 C 16.859375 22.273438 15.898438 21.664062 14.820312 21.460938 L 14.820312 4.910156 C 16.59375 4.863281 18.277344 4.664062 19.742188 4.328125 L 19.742188 14.894531 C 18.652344 15.101562 17.6875 15.707031 17.019531 16.632812 C 15.539062 18.6875 16.492188 20.734375 16.503906 20.820312 C 16.613281 21.15625 16.925781 21.382812 17.28125 21.382812 L 23.84375 21.382812 C 24.195312 21.382812 24.507812 21.15625 24.621094 20.820312 C 24.628906 20.730469 25.589844 18.695312 24.105469 16.632812 Z M 9.648438 15.953125 C 10.105469 16.585938 10.265625 17.351562 10.109375 18.101562 L 4.765625 18.101562 C 4.609375 17.355469 4.769531 16.585938 5.222656 15.953125 C 5.742188 15.234375 6.550781 14.820312 7.4375 14.820312 C 8.324219 14.820312 9.128906 15.234375 9.648438 15.953125 Z M 16.195312 24.160156 C 16.664062 24.8125 16.832031 25.597656 16.671875 26.359375 L 11.328125 26.359375 C 11.167969 25.597656 11.332031 24.8125 11.800781 24.160156 C 12.324219 23.4375 13.125 23.023438 14 23.023438 C 14.875 23.023438 15.675781 23.4375 16.195312 24.160156 Z M 14 3.28125 C 11.601562 3.28125 7.675781 2.914062 5.703125 1.640625 L 22.296875 1.640625 C 20.320312 2.914062 16.410156 3.28125 14 3.28125 Z M 23.234375 19.742188 L 17.890625 19.742188 C 17.734375 18.996094 17.894531 18.226562 18.347656 17.59375 C 18.867188 16.875 19.675781 16.460938 20.5625 16.460938 C 21.449219 16.460938 22.253906 16.875 22.773438 17.59375 C 23.230469 18.226562 23.390625 18.992188 23.234375 19.742188 Z M 23.234375 19.742188 "/>
</g>
</svg>
