<?xml version="1.0" encoding="UTF-8"?>
<svg xmlns="http://www.w3.org/2000/svg" xmlns:xlink="http://www.w3.org/1999/xlink" width="28pt" height="28pt" viewBox="0 0 28 28" version="1.1">
<g id="surface1">
<path style=" stroke:none;fill-rule:nonzero;fill:rgb(0%,0%,0%);fill-opacity:1;" d="M 23.65625 27.300781 L 20.910156 5.058594 L 22.199219 5.058594 C 22.890625 5.058594 23.449219 4.496094 23.449219 3.804688 L 23.449219 1.253906 C 23.449219 0.5625 22.890625 0 22.199219 0 L 5.800781 0 C 5.109375 0 4.550781 0.5625 4.550781 1.253906 L 4.550781 3.804688 C 4.550781 4.496094 5.109375 5.058594 5.800781 5.058594 L 7.089844 5.058594 L 4.34375 27.300781 C 4.304688 27.644531 4.546875 27.953125 4.886719 27.996094 C 4.910156 28 4.9375 28 4.960938 28 C 5.273438 28 5.539062 27.769531 5.578125 27.453125 L 7.238281 14 L 20.761719 14 L 22.421875 27.453125 C 22.460938 27.769531 22.726562 28 23.039062 28 C 23.0625 28 23.089844 28 23.113281 27.996094 C 23.453125 27.953125 23.695312 27.644531 23.65625 27.300781 Z M 7.636719 10.769531 L 8.339844 5.058594 L 19.660156 5.058594 L 20.363281 10.769531 Z M 7.636719 10.769531 "/>
</g>
</svg>
