<?xml version="1.0" encoding="UTF-8"?>
<svg xmlns="http://www.w3.org/2000/svg" xmlns:xlink="http://www.w3.org/1999/xlink" width="28pt" height="28pt" viewBox="0 0 28 28" version="1.1">
<g id="surface1">
<path style=" stroke:none;fill-rule:nonzero;fill:rgb(0%,0%,0%);fill-opacity:1;" d="M 20.832031 18.402344 C 22.792969 17.394531 24.015625 15.648438 24.015625 12.757812 C 24.015625 7.226562 19.53125 0 14 0 C 8.46875 0 3.984375 7.226562 3.984375 12.757812 C 3.984375 15.648438 5.207031 17.394531 7.167969 18.402344 L 4.886719 27.265625 C 4.804688 27.582031 4.996094 27.902344 5.308594 27.980469 C 5.359375 27.992188 5.40625 28 5.457031 28 C 5.71875 28 5.957031 27.824219 6.023438 27.558594 L 8.261719 18.867188 C 9.886719 19.429688 11.867188 19.628906 14 19.628906 C 16.132812 19.628906 18.113281 19.429688 19.738281 18.867188 L 21.976562 27.558594 C 22.042969 27.824219 22.28125 28 22.542969 28 C 22.59375 28 22.640625 27.992188 22.691406 27.980469 C 23.003906 27.902344 23.195312 27.582031 23.113281 27.265625 Z M 7.925781 15.398438 C 7.457031 15.28125 7.0625 14.976562 6.835938 14.570312 C 6.625 14.191406 6.578125 13.761719 6.707031 13.359375 C 6.925781 12.675781 7.5625 12.214844 8.300781 12.214844 C 8.441406 12.214844 8.585938 12.234375 8.722656 12.269531 C 10.445312 12.710938 12.222656 12.933594 14 12.933594 C 15.777344 12.933594 17.554688 12.710938 19.277344 12.269531 C 19.414062 12.234375 19.558594 12.214844 19.699219 12.214844 C 20.4375 12.214844 21.074219 12.675781 21.292969 13.359375 C 21.421875 13.761719 21.375 14.191406 21.164062 14.570312 C 20.9375 14.976562 20.542969 15.28125 20.074219 15.398438 C 18.09375 15.90625 16.046875 16.164062 14 16.164062 C 11.953125 16.164062 9.90625 15.90625 7.925781 15.398438 Z M 7.925781 15.398438 "/>
</g>
</svg>
