<?xml version="1.0" encoding="UTF-8"?>
<svg xmlns="http://www.w3.org/2000/svg" xmlns:xlink="http://www.w3.org/1999/xlink" width="28pt" height="28pt" viewBox="0 0 28 28" version="1.1">
<g id="surface1">
<path style=" stroke:none;fill-rule:nonzero;fill:rgb(0%,0%,0%);fill-opacity:1;" d="M 24.769531 12.15625 C 24.757812 12.125 24.746094 12.09375 24.734375 12.0625 C 23.289062 8.515625 20.144531 5.835938 16.308594 5.058594 L 16.308594 2.902344 C 16.308594 2.625 16.128906 2.398438 15.878906 2.3125 L 15.878906 1.878906 C 15.878906 0.84375 15.035156 0 14 0 C 12.964844 0 12.121094 0.84375 12.121094 1.878906 L 12.121094 2.3125 C 11.871094 2.398438 11.691406 2.625 11.691406 2.902344 L 11.691406 5.058594 C 6.402344 6.128906 2.410156 10.8125 2.410156 16.414062 C 2.410156 17.914062 2.707031 19.347656 3.230469 20.667969 C 3.238281 20.703125 3.253906 20.730469 3.265625 20.765625 C 4.992188 25 9.152344 28 14 28 C 20.390625 28 25.589844 22.800781 25.589844 16.414062 C 25.589844 14.910156 25.292969 13.476562 24.769531 12.15625 Z M 3.664062 16.414062 C 3.664062 15.882812 3.71875 15.363281 3.796875 14.855469 C 4.976562 15.28125 6.207031 15.503906 7.4375 15.503906 C 9.667969 15.503906 11.886719 14.816406 13.742188 13.476562 C 16.632812 11.386719 20.492188 11.109375 23.648438 12.738281 C 24.085938 13.882812 24.335938 15.117188 24.335938 16.414062 C 24.335938 16.9375 24.28125 17.453125 24.207031 17.957031 C 20.886719 16.757812 17.144531 17.261719 14.257812 19.351562 C 11.367188 21.441406 7.507812 21.714844 4.351562 20.085938 C 3.914062 18.941406 3.664062 17.707031 3.664062 16.414062 Z M 14 1.253906 C 14.347656 1.253906 14.628906 1.535156 14.628906 1.878906 L 14.628906 2.273438 L 13.375 2.273438 L 13.375 1.878906 C 13.375 1.535156 13.65625 1.253906 14 1.253906 Z M 12.945312 4.824219 L 12.945312 3.527344 L 15.058594 3.527344 L 15.058594 4.824219 Z M 14 6.078125 C 17.722656 6.078125 20.980469 8.0625 22.800781 11.019531 C 19.535156 9.898438 15.855469 10.402344 13.007812 12.460938 C 10.417969 14.332031 7.027344 14.761719 4.058594 13.625 C 5.277344 9.277344 9.269531 6.078125 14 6.078125 Z M 14 26.746094 C 10.28125 26.746094 7.023438 24.765625 5.203125 21.808594 C 6.335938 22.195312 7.515625 22.394531 8.695312 22.394531 C 10.917969 22.394531 13.132812 21.710938 14.992188 20.367188 C 17.589844 18.488281 20.972656 18.058594 23.945312 19.199219 C 22.722656 23.546875 18.734375 26.746094 14 26.746094 Z M 14 26.746094 "/>
</g>
</svg>
