<?xml version="1.0" encoding="UTF-8"?>
<svg xmlns="http://www.w3.org/2000/svg" xmlns:xlink="http://www.w3.org/1999/xlink" width="28pt" height="28pt" viewBox="0 0 28 28" version="1.1">
<g id="surface1">
<path style=" stroke:none;fill-rule:nonzero;fill:rgb(0%,0%,0%);fill-opacity:1;" d="M 24.71875 0 L 3.28125 0 C 1.472656 0 0 1.472656 0 3.28125 L 0 20.773438 C 0.207031 19.308594 1 18.023438 2.136719 17.171875 C 3.683594 17.015625 5.203125 16.5 6.671875 15.644531 C 8.296875 14.691406 9.78125 13.359375 11.082031 11.683594 C 12.320312 10.09375 13.3125 8.273438 14 6.394531 C 14.6875 8.28125 15.675781 10.109375 16.914062 11.710938 C 18.214844 13.390625 19.699219 14.730469 21.328125 15.6875 C 22.785156 16.546875 24.300781 17.0625 25.839844 17.226562 C 26.933594 18.015625 27.722656 19.199219 28 20.566406 L 28 3.28125 C 28 1.472656 26.527344 0 24.71875 0 Z M 9.355469 10.339844 C 7.292969 13 4.78125 14.609375 2.1875 14.964844 L 2.1875 13.710938 C 3.632812 13.191406 4.929688 11.984375 5.9375 10.179688 C 7.085938 8.125 7.601562 5.78125 7.601562 4.375 L 5.414062 4.375 C 5.414062 6.199219 4.226562 9.894531 2.1875 11.277344 L 2.1875 3.28125 C 2.1875 2.679688 2.679688 2.1875 3.28125 2.1875 L 12.800781 2.1875 C 12.445312 5.003906 11.214844 7.953125 9.355469 10.339844 Z M 18.644531 10.371094 C 16.785156 7.96875 15.554688 5.007812 15.199219 2.1875 L 24.71875 2.1875 C 25.320312 2.1875 25.8125 2.679688 25.8125 3.28125 L 25.8125 11.328125 C 25.015625 10.785156 24.402344 9.917969 23.972656 9.140625 C 23.019531 7.425781 22.585938 5.46875 22.585938 4.375 L 20.398438 4.375 C 20.398438 5.785156 20.914062 8.132812 22.058594 10.203125 C 23.070312 12.023438 24.367188 13.242188 25.8125 13.765625 L 25.8125 15.019531 C 23.222656 14.660156 20.710938 13.042969 18.644531 10.371094 Z M 25.34375 23.351562 C 25.707031 22.824219 25.921875 22.183594 25.921875 21.492188 C 25.921875 19.683594 24.449219 18.210938 22.640625 18.210938 C 20.832031 18.210938 19.359375 19.683594 19.359375 21.492188 C 19.359375 22.167969 19.566406 22.796875 19.917969 23.320312 C 19.289062 23.683594 18.738281 24.171875 18.300781 24.746094 C 17.871094 24.179688 17.332031 23.699219 16.710938 23.335938 C 17.070312 22.8125 17.28125 22.175781 17.28125 21.492188 C 17.28125 19.683594 15.808594 18.210938 14 18.210938 C 12.191406 18.210938 10.71875 19.683594 10.71875 21.492188 C 10.71875 22.175781 10.929688 22.8125 11.289062 23.335938 C 10.667969 23.699219 10.128906 24.179688 9.699219 24.746094 C 9.277344 24.195312 8.757812 23.726562 8.160156 23.367188 C 8.53125 22.835938 8.75 22.1875 8.75 21.492188 C 8.75 19.683594 7.277344 18.210938 5.46875 18.210938 C 3.660156 18.210938 2.1875 19.683594 2.1875 21.492188 C 2.1875 22.164062 2.390625 22.785156 2.738281 23.304688 C 1.105469 24.234375 0 25.992188 0 28 L 2.1875 28 C 2.1875 26.230469 3.625 24.792969 5.394531 24.792969 C 7.164062 24.792969 8.605469 26.230469 8.605469 28 L 10.792969 28 C 10.792969 26.230469 12.230469 24.792969 14 24.792969 C 15.769531 24.792969 17.207031 26.230469 17.207031 28 L 19.394531 28 C 19.394531 26.230469 20.835938 24.792969 22.605469 24.792969 C 24.375 24.792969 25.8125 26.230469 25.8125 28 L 28 28 C 28 26.023438 26.929688 24.292969 25.34375 23.351562 Z M 5.46875 20.398438 C 6.070312 20.398438 6.5625 20.890625 6.5625 21.492188 C 6.5625 22.09375 6.070312 22.585938 5.46875 22.585938 C 4.867188 22.585938 4.375 22.09375 4.375 21.492188 C 4.375 20.890625 4.867188 20.398438 5.46875 20.398438 Z M 14 20.398438 C 14.601562 20.398438 15.09375 20.890625 15.09375 21.492188 C 15.09375 22.09375 14.601562 22.585938 14 22.585938 C 13.398438 22.585938 12.90625 22.09375 12.90625 21.492188 C 12.90625 20.890625 13.398438 20.398438 14 20.398438 Z M 22.640625 20.398438 C 23.242188 20.398438 23.734375 20.890625 23.734375 21.492188 C 23.734375 22.09375 23.242188 22.585938 22.640625 22.585938 C 22.039062 22.585938 21.546875 22.09375 21.546875 21.492188 C 21.546875 20.890625 22.039062 20.398438 22.640625 20.398438 Z M 22.640625 20.398438 "/>
</g>
</svg>
