<?xml version="1.0" encoding="UTF-8"?>
<svg xmlns="http://www.w3.org/2000/svg" xmlns:xlink="http://www.w3.org/1999/xlink" width="28pt" height="28pt" viewBox="0 0 28 28" version="1.1">
<g id="surface1">
<path style=" stroke:none;fill-rule:nonzero;fill:rgb(0%,0%,0%);fill-opacity:1;" d="M 4.230469 16.59375 C 1.953125 17.585938 0.855469 18.601562 0.359375 19.476562 L 5.027344 19.476562 C 5.539062 19.476562 6.546875 19.164062 7.585938 17.0625 C 7.878906 16.464844 8.105469 15.859375 8.269531 15.335938 C 6.898438 15.613281 5.5 16.042969 4.230469 16.59375 Z M 4.230469 16.59375 "/>
<path style=" stroke:none;fill-rule:nonzero;fill:rgb(0%,0%,0%);fill-opacity:1;" d="M 26.140625 20.34375 C 26.226562 20.636719 26.273438 20.941406 26.273438 21.257812 C 26.273438 23.050781 24.8125 24.507812 23.023438 24.507812 C 21.230469 24.507812 19.773438 23.050781 19.773438 21.257812 C 19.773438 20.941406 19.816406 20.636719 19.902344 20.34375 L 18.042969 20.34375 L 18.042969 26.371094 L 28 26.371094 L 28 20.34375 Z M 26.140625 20.34375 "/>
<path style=" stroke:none;fill-rule:nonzero;fill:rgb(0%,0%,0%);fill-opacity:1;" d="M 11.605469 21.425781 C 10.128906 21.425781 8.925781 22.628906 8.925781 24.105469 C 8.925781 25.582031 10.128906 26.785156 11.605469 26.785156 C 13.082031 26.785156 14.285156 25.582031 14.285156 24.105469 C 14.285156 22.628906 13.082031 21.425781 11.605469 21.425781 Z M 11.605469 21.425781 "/>
<path style=" stroke:none;fill-rule:nonzero;fill:rgb(0%,0%,0%);fill-opacity:1;" d="M 23.933594 20.164062 L 23.933594 7.632812 C 23.933594 4.09375 21.054688 1.214844 17.515625 1.214844 C 13.976562 1.214844 11.097656 4.09375 11.097656 7.632812 L 11.097656 14.992188 C 10.820312 15.003906 10.539062 15.019531 10.25 15.046875 C 10.050781 15.855469 9.707031 16.890625 9.226562 17.867188 C 8.117188 20.113281 6.664062 21.300781 5.027344 21.300781 L 0 21.300781 L 0 21.925781 C 0 22.722656 0.101562 23.878906 0.992188 24.675781 C 1.636719 25.253906 2.570312 25.535156 3.941406 25.570312 L 7.347656 25.570312 C 7.1875 25.109375 7.101562 24.617188 7.101562 24.105469 C 7.101562 21.621094 9.121094 19.601562 11.605469 19.601562 C 14.089844 19.601562 16.113281 21.621094 16.113281 24.105469 C 16.113281 24.347656 16.09375 24.585938 16.054688 24.816406 C 16.855469 24.195312 17.308594 23.210938 17.308594 21.960938 L 17.308594 19.691406 C 17.277344 18.203125 16.707031 16.980469 15.65625 16.164062 C 14.941406 15.605469 14.027344 15.246094 12.925781 15.085938 L 12.925781 7.632812 C 12.925781 5.101562 14.984375 3.042969 17.515625 3.042969 C 20.050781 3.042969 22.109375 5.101562 22.109375 7.632812 L 22.109375 20.164062 C 21.796875 20.425781 21.597656 20.820312 21.597656 21.257812 C 21.597656 22.042969 22.238281 22.683594 23.023438 22.683594 C 23.808594 22.683594 24.445312 22.042969 24.445312 21.257812 C 24.445312 20.820312 24.246094 20.425781 23.933594 20.164062 Z M 23.933594 20.164062 "/>
</g>
</svg>
