<?xml version="1.0" encoding="UTF-8"?>
<svg xmlns="http://www.w3.org/2000/svg" xmlns:xlink="http://www.w3.org/1999/xlink" width="28pt" height="28pt" viewBox="0 0 28 28" version="1.1">
<g id="surface1">
<path style=" stroke:none;fill-rule:nonzero;fill:rgb(0%,0%,0%);fill-opacity:1;" d="M 27.785156 19.464844 L 15.382812 12.785156 L 15.382812 11.085938 C 15.382812 10.863281 15.195312 10.675781 14.972656 10.675781 L 14.402344 10.675781 C 14.40625 10.652344 14.410156 10.628906 14.410156 10.601562 L 14.410156 9.519531 C 15.511719 9.328125 16.351562 8.363281 16.351562 7.203125 C 16.351562 5.910156 15.296875 4.851562 14 4.851562 C 12.703125 4.851562 11.648438 5.910156 11.648438 7.207031 C 11.648438 7.429688 11.832031 7.617188 12.058594 7.617188 C 12.285156 7.617188 12.46875 7.429688 12.46875 7.207031 C 12.46875 6.359375 13.15625 5.671875 14 5.671875 C 14.84375 5.671875 15.53125 6.359375 15.53125 7.207031 C 15.53125 8.050781 14.84375 8.738281 14 8.738281 C 13.773438 8.738281 13.589844 8.921875 13.589844 9.148438 L 13.589844 10.601562 C 13.589844 10.628906 13.59375 10.652344 13.597656 10.675781 L 13.027344 10.675781 C 12.804688 10.675781 12.617188 10.863281 12.617188 11.085938 L 12.617188 12.785156 L 8.96875 14.75 C 8.769531 14.855469 8.695312 15.105469 8.800781 15.304688 C 8.910156 15.503906 9.160156 15.578125 9.359375 15.472656 L 13.132812 13.441406 L 14.867188 13.441406 L 27.179688 20.070312 L 27.179688 20.796875 C 27.179688 21.59375 26.566406 22.25 25.785156 22.320312 L 25.785156 20.65625 C 25.785156 20.503906 25.699219 20.359375 25.558594 20.292969 L 14.183594 14.605469 C 14.066406 14.546875 13.933594 14.546875 13.816406 14.605469 L 2.441406 20.292969 C 2.300781 20.359375 2.214844 20.503906 2.214844 20.65625 L 2.214844 22.320312 C 1.433594 22.25 0.820312 21.59375 0.820312 20.796875 L 0.820312 20.070312 L 7.75 16.335938 C 7.953125 16.230469 8.027344 15.980469 7.917969 15.78125 C 7.8125 15.582031 7.5625 15.507812 7.363281 15.613281 L 0.214844 19.464844 C 0.0820312 19.535156 0 19.671875 0 19.824219 L 0 20.796875 C 0 22.089844 1.054688 23.148438 2.351562 23.148438 C 2.355469 23.148438 2.359375 23.148438 2.359375 23.144531 L 2.625 23.144531 C 2.851562 23.144531 3.035156 22.960938 3.035156 22.734375 L 3.035156 22.175781 L 24.964844 22.175781 L 24.964844 22.734375 C 24.964844 22.960938 25.148438 23.144531 25.375 23.144531 L 25.640625 23.144531 C 25.640625 23.148438 25.644531 23.148438 25.648438 23.148438 C 26.945312 23.148438 28 22.089844 28 20.796875 L 28 19.824219 C 28 19.671875 27.917969 19.535156 27.785156 19.464844 Z M 14.5625 12.621094 L 13.441406 12.621094 L 13.441406 11.496094 L 14.5625 11.496094 Z M 24.964844 21.355469 L 3.035156 21.355469 L 3.035156 20.910156 L 14 15.429688 L 24.964844 20.910156 Z M 24.964844 21.355469 "/>
</g>
</svg>
