<?xml version="1.0" encoding="UTF-8"?>
<svg xmlns="http://www.w3.org/2000/svg" xmlns:xlink="http://www.w3.org/1999/xlink" width="28pt" height="28pt" viewBox="0 0 28 28" version="1.1">
<g id="surface1">
<path style=" stroke:none;fill-rule:nonzero;fill:rgb(0%,0%,0%);fill-opacity:1;" d="M 27.050781 26.664062 L 26.429688 26.664062 L 26.429688 11.277344 C 26.429688 5.058594 21.371094 0 15.152344 0 C 11.53125 0 8.132812 1.742188 6.011719 4.675781 C 5.492188 4.769531 5.097656 5.222656 5.097656 5.769531 L 5.097656 6.105469 C 1.910156 6.632812 0.367188 9.390625 0.28125 12.71875 C 0.28125 12.753906 0.296875 12.789062 0.371094 12.808594 C 4.726562 14.089844 7.75 14.160156 12.09375 12.800781 C 12.128906 12.789062 12.148438 12.765625 12.148438 12.71875 C 12.191406 9.390625 10.519531 6.632812 7.332031 6.105469 L 7.332031 5.769531 C 7.332031 5.535156 7.257812 5.316406 7.132812 5.136719 C 9.042969 2.648438 12.003906 1.175781 15.152344 1.175781 C 20.722656 1.175781 25.25 5.707031 25.25 11.277344 L 25.25 17.519531 L 24.675781 17.519531 C 24.351562 17.519531 24.089844 17.78125 24.089844 18.105469 C 24.089844 18.433594 24.351562 18.695312 24.675781 18.695312 L 25.25 18.695312 L 25.25 26.664062 L 17.90625 26.664062 C 17.535156 26.664062 17.238281 26.964844 17.238281 27.332031 C 17.238281 27.703125 17.535156 28 17.90625 28 L 27.050781 28 C 27.421875 28 27.71875 27.703125 27.71875 27.332031 C 27.71875 26.964844 27.421875 26.664062 27.050781 26.664062 Z M 27.050781 26.664062 "/>
</g>
</svg>
