<?xml version="1.0" encoding="UTF-8"?>
<svg xmlns="http://www.w3.org/2000/svg" xmlns:xlink="http://www.w3.org/1999/xlink" width="28pt" height="28pt" viewBox="0 0 28 28" version="1.1">
<g id="surface1">
<path style=" stroke:none;fill-rule:nonzero;fill:rgb(0%,0%,0%);fill-opacity:1;" d="M 24.683594 6.84375 L 24.847656 6.898438 "/>
<path style=" stroke:none;fill-rule:nonzero;fill:rgb(0%,0%,0%);fill-opacity:1;" d="M 24.847656 6.898438 L 24.726562 6.945312 "/>
<path style=" stroke:none;fill-rule:nonzero;fill:rgb(0%,0%,0%);fill-opacity:1;" d="M 26.398438 8.472656 C 26.398438 7.160156 25.332031 6.089844 24.015625 6.089844 C 23.597656 6.089844 23.207031 6.199219 22.867188 6.386719 L 11.464844 2.53125 L 11.59375 2.089844 C 11.675781 1.808594 11.644531 1.511719 11.503906 1.253906 C 11.363281 0.996094 11.132812 0.808594 10.851562 0.726562 L 8.511719 0.0429688 C 7.933594 -0.125 7.320312 0.207031 7.152344 0.789062 L 6.320312 3.632812 C 5.636719 3.722656 4.972656 3.941406 4.347656 4.28125 C 3.015625 5.011719 2.046875 6.214844 1.621094 7.675781 C 1.582031 7.796875 1.597656 7.929688 1.660156 8.039062 C 1.722656 8.152344 1.824219 8.238281 1.945312 8.273438 L 11.945312 11.199219 C 11.988281 11.210938 12.035156 11.21875 12.078125 11.21875 C 12.289062 11.21875 12.480469 11.082031 12.542969 10.871094 C 12.96875 9.410156 12.800781 7.875 12.074219 6.539062 C 11.734375 5.917969 11.289062 5.378906 10.761719 4.933594 L 10.878906 4.539062 L 21.652344 8.183594 C 21.640625 8.277344 21.632812 8.375 21.632812 8.472656 C 21.632812 9.179688 21.941406 9.8125 22.429688 10.25 L 16.265625 20.882812 C 16.179688 20.753906 16.03125 20.671875 15.867188 20.671875 L 14.128906 20.671875 C 13.863281 20.671875 13.648438 20.886719 13.648438 21.152344 L 13.648438 21.632812 L 13.214844 21.632812 C 12.949219 21.632812 12.734375 21.851562 12.734375 22.117188 C 12.734375 22.382812 12.949219 22.597656 13.214844 22.597656 L 13.648438 22.597656 L 13.648438 24.816406 L 13.15625 24.816406 L 13.15625 23.949219 C 13.15625 23.773438 13.011719 23.628906 12.835938 23.628906 L 10.320312 23.628906 C 10.144531 23.628906 10 23.773438 10 23.949219 L 10 24.816406 L 9.734375 24.816406 C 8.996094 24.816406 8.390625 25.417969 8.390625 26.160156 L 8.390625 27.519531 C 8.390625 27.785156 8.609375 28 8.875 28 L 21.125 28 C 21.390625 28 21.605469 27.785156 21.605469 27.519531 L 21.605469 26.160156 C 21.605469 25.417969 21.003906 24.816406 20.261719 24.816406 L 16.371094 24.816406 L 24.519531 10.800781 C 25.59375 10.570312 26.398438 9.613281 26.398438 8.472656 Z M 25.433594 8.472656 C 25.433594 9.253906 24.796875 9.890625 24.015625 9.890625 C 23.234375 9.890625 22.597656 9.253906 22.597656 8.472656 C 22.597656 7.691406 23.234375 7.054688 24.015625 7.054688 C 24.796875 7.054688 25.433594 7.691406 25.433594 8.472656 Z M 8.242188 0.96875 L 10.578125 1.652344 C 10.621094 1.667969 10.644531 1.695312 10.660156 1.71875 C 10.671875 1.738281 10.683594 1.773438 10.667969 1.820312 L 10.253906 3.234375 L 7.664062 2.476562 L 8.078125 1.058594 C 8.097656 0.988281 8.171875 0.949219 8.242188 0.96875 Z M 11.226562 7.003906 C 11.753906 7.96875 11.929688 9.0625 11.730469 10.128906 L 2.703125 7.488281 C 3.113281 6.484375 3.847656 5.65625 4.8125 5.125 C 5.917969 4.519531 7.195312 4.382812 8.410156 4.738281 C 9.621094 5.089844 10.621094 5.894531 11.226562 7.003906 Z M 8.679688 3.8125 C 8.238281 3.679688 7.785156 3.609375 7.339844 3.585938 L 7.484375 3.09375 L 10.074219 3.851562 L 9.929688 4.34375 C 9.539062 4.121094 9.121094 3.941406 8.679688 3.8125 Z M 11.148438 3.613281 L 11.285156 3.148438 L 22.261719 6.863281 C 22.148438 6.984375 22.046875 7.121094 21.960938 7.269531 Z M 23.753906 10.839844 L 16.347656 23.574219 L 16.347656 22.664062 L 23.265625 10.734375 C 23.421875 10.785156 23.582031 10.824219 23.753906 10.839844 Z M 14.613281 21.632812 L 15.382812 21.632812 L 15.382812 24.816406 L 14.613281 24.816406 Z M 10.644531 24.269531 L 12.511719 24.269531 L 12.511719 24.816406 L 10.644531 24.816406 Z M 20.640625 26.160156 L 20.640625 27.035156 L 9.355469 27.035156 L 9.355469 26.160156 C 9.355469 25.949219 9.527344 25.78125 9.734375 25.78125 L 20.261719 25.78125 C 20.472656 25.78125 20.640625 25.949219 20.640625 26.160156 Z M 20.640625 26.160156 "/>
<path style=" stroke:none;fill-rule:nonzero;fill:rgb(0%,0%,0%);fill-opacity:1;" d="M 24.015625 9.613281 C 24.644531 9.613281 25.15625 9.101562 25.15625 8.472656 C 25.15625 7.84375 24.644531 7.332031 24.015625 7.332031 C 23.386719 7.332031 22.875 7.84375 22.875 8.472656 C 22.875 9.101562 23.386719 9.613281 24.015625 9.613281 Z M 24.015625 7.976562 C 24.292969 7.976562 24.515625 8.199219 24.515625 8.472656 C 24.515625 8.746094 24.292969 8.972656 24.015625 8.972656 C 23.742188 8.972656 23.519531 8.746094 23.519531 8.472656 C 23.519531 8.199219 23.742188 7.976562 24.015625 7.976562 Z M 24.015625 7.976562 "/>
</g>
</svg>
