<?xml version="1.0" encoding="UTF-8"?>
<svg xmlns="http://www.w3.org/2000/svg" xmlns:xlink="http://www.w3.org/1999/xlink" width="28pt" height="28pt" viewBox="0 0 28 28" version="1.1">
<g id="surface1">
<path style=" stroke:none;fill-rule:nonzero;fill:rgb(0%,0%,0%);fill-opacity:1;" d="M 25.742188 9.699219 L 8.21875 9.699219 L 21.585938 2.789062 C 22.265625 2.472656 22.535156 1.617188 22.175781 0.984375 C 21.859375 0.304688 21 0.0351562 20.367188 0.394531 L 2.257812 9.699219 C 1.039062 9.699219 0 10.738281 0 11.957031 L 0 25.507812 C 0 26.769531 0.992188 27.765625 2.257812 27.765625 L 25.742188 27.765625 C 27.007812 27.765625 28 26.769531 28 25.507812 L 28 11.957031 C 28 10.691406 27.007812 9.699219 25.742188 9.699219 Z M 20.773438 1.164062 C 21 1.074219 21.269531 1.117188 21.359375 1.34375 C 21.453125 1.570312 21.40625 1.839844 21.179688 1.933594 L 6.230469 9.699219 L 4.199219 9.699219 Z M 27.097656 25.507812 C 27.097656 26.273438 26.507812 26.859375 25.742188 26.859375 L 2.257812 26.859375 C 1.492188 26.859375 0.902344 26.273438 0.902344 25.507812 L 0.902344 11.957031 C 0.902344 11.191406 1.492188 10.601562 2.257812 10.601562 L 25.742188 10.601562 C 26.507812 10.601562 27.097656 11.191406 27.097656 11.957031 Z M 27.097656 25.507812 "/>
<path style=" stroke:none;fill-rule:nonzero;fill:rgb(0%,0%,0%);fill-opacity:1;" d="M 22.128906 18.28125 C 20.367188 18.28125 18.96875 19.679688 18.96875 21.441406 C 18.96875 23.203125 20.367188 24.601562 22.128906 24.601562 C 23.890625 24.601562 25.289062 23.203125 25.289062 21.441406 C 25.289062 19.679688 23.890625 18.28125 22.128906 18.28125 Z M 22.128906 23.699219 C 20.863281 23.699219 19.871094 22.707031 19.871094 21.441406 C 19.871094 20.175781 20.863281 19.183594 22.128906 19.183594 C 23.394531 19.183594 24.386719 20.175781 24.386719 21.441406 C 24.386719 22.660156 23.394531 23.699219 22.128906 23.699219 Z M 22.128906 23.699219 "/>
<path style=" stroke:none;fill-rule:nonzero;fill:rgb(0%,0%,0%);fill-opacity:1;" d="M 22.128906 12.859375 C 20.863281 12.859375 19.871094 13.855469 19.871094 15.117188 C 19.871094 16.382812 20.863281 17.378906 22.128906 17.378906 C 23.394531 17.378906 24.386719 16.382812 24.386719 15.117188 C 24.386719 13.855469 23.394531 12.859375 22.128906 12.859375 Z M 22.128906 16.472656 C 21.359375 16.472656 20.773438 15.886719 20.773438 15.117188 C 20.773438 14.351562 21.359375 13.765625 22.128906 13.765625 C 22.898438 13.765625 23.484375 14.351562 23.484375 15.117188 C 23.484375 15.886719 22.898438 16.472656 22.128906 16.472656 Z M 22.128906 16.472656 "/>
<path style=" stroke:none;fill-rule:nonzero;fill:rgb(0%,0%,0%);fill-opacity:1;" d="M 8.128906 12.859375 C 4.878906 12.859375 2.257812 15.480469 2.257812 18.730469 C 2.257812 21.984375 4.878906 24.601562 8.128906 24.601562 C 11.378906 24.601562 14 21.984375 14 18.730469 C 14 15.480469 11.378906 12.859375 8.128906 12.859375 Z M 8.128906 13.765625 C 9.167969 13.765625 10.160156 14.082031 10.972656 14.667969 L 5.285156 14.667969 C 6.097656 14.082031 7.089844 13.765625 8.128906 13.765625 Z M 4.289062 15.570312 L 11.96875 15.570312 C 12.195312 15.839844 12.375 16.15625 12.554688 16.472656 L 3.703125 16.472656 C 3.882812 16.15625 4.066406 15.839844 4.289062 15.570312 Z M 3.386719 17.378906 L 12.917969 17.378906 C 13.007812 17.648438 13.050781 17.964844 13.097656 18.28125 L 3.207031 18.28125 C 3.25 17.964844 3.296875 17.648438 3.386719 17.378906 Z M 8.128906 23.699219 C 7.089844 23.699219 6.097656 23.382812 5.285156 22.796875 L 10.972656 22.796875 C 10.160156 23.339844 9.167969 23.699219 8.128906 23.699219 Z M 11.96875 21.894531 L 4.289062 21.894531 C 4.066406 21.621094 3.882812 21.304688 3.703125 20.988281 L 12.554688 20.988281 C 12.375 21.304688 12.195312 21.621094 11.96875 21.894531 Z M 12.917969 20.085938 L 3.34375 20.085938 C 3.25 19.816406 3.207031 19.5 3.160156 19.183594 L 13.050781 19.183594 C 13.050781 19.5 13.007812 19.769531 12.917969 20.085938 Z M 12.917969 20.085938 "/>
</g>
</svg>
