<?xml version="1.0" encoding="UTF-8"?>
<svg xmlns="http://www.w3.org/2000/svg" xmlns:xlink="http://www.w3.org/1999/xlink" width="28pt" height="27pt" viewBox="0 0 28 27" version="1.1">
<g id="surface1">
<path style=" stroke:none;fill-rule:nonzero;fill:rgb(0%,0%,0%);fill-opacity:1;" d="M 27.453125 11.96875 C 27.503906 11.847656 27.503906 11.714844 27.453125 11.59375 C 27.425781 11.535156 27.386719 11.480469 27.339844 11.433594 L 21.234375 5.542969 C 21.035156 5.351562 20.710938 5.351562 20.511719 5.542969 C 20.3125 5.734375 20.3125 6.046875 20.511719 6.238281 L 25.753906 11.289062 L 14.765625 11.289062 C 14.484375 11.289062 14.253906 11.511719 14.253906 11.78125 C 14.253906 12.054688 14.484375 12.273438 14.765625 12.273438 L 25.753906 12.273438 L 20.511719 17.324219 C 20.3125 17.519531 20.3125 17.828125 20.511719 18.019531 C 20.613281 18.117188 20.742188 18.164062 20.875 18.164062 C 21.003906 18.164062 21.132812 18.117188 21.234375 18.019531 L 27.339844 12.128906 C 27.386719 12.085938 27.425781 12.03125 27.453125 11.96875 Z M 27.453125 11.96875 "/>
<path style=" stroke:none;fill-rule:nonzero;fill:rgb(0%,0%,0%);fill-opacity:1;" d="M 18.328125 14.238281 C 18.046875 14.238281 17.820312 14.457031 17.820312 14.726562 L 17.820312 22.582031 L 12.726562 22.582031 L 12.726562 3.925781 C 12.726562 3.714844 12.585938 3.523438 12.371094 3.460938 L 4.296875 0.980469 L 17.820312 0.980469 L 17.820312 8.835938 C 17.820312 9.109375 18.046875 9.328125 18.328125 9.328125 C 18.609375 9.328125 18.835938 9.109375 18.835938 8.835938 L 18.835938 0.492188 C 18.835938 0.21875 18.609375 0 18.328125 0 L 1.019531 0 C 1.003906 0 0.988281 0.0078125 0.972656 0.0078125 C 0.945312 0.0117188 0.917969 0.0195312 0.890625 0.0234375 C 0.84375 0.0351562 0.800781 0.0546875 0.761719 0.078125 C 0.746094 0.0859375 0.730469 0.0859375 0.71875 0.09375 C 0.703125 0.105469 0.691406 0.121094 0.675781 0.132812 C 0.667969 0.140625 0.660156 0.148438 0.648438 0.15625 C 0.613281 0.195312 0.578125 0.238281 0.554688 0.289062 C 0.550781 0.300781 0.550781 0.308594 0.546875 0.320312 C 0.523438 0.375 0.507812 0.429688 0.507812 0.492188 L 0.507812 23.074219 C 0.507812 23.132812 0.523438 23.191406 0.546875 23.246094 C 0.554688 23.265625 0.5625 23.28125 0.574219 23.296875 C 0.59375 23.332031 0.613281 23.363281 0.640625 23.394531 C 0.65625 23.410156 0.671875 23.421875 0.6875 23.4375 C 0.714844 23.464844 0.75 23.484375 0.785156 23.5 C 0.804688 23.511719 0.820312 23.523438 0.839844 23.527344 C 0.851562 23.53125 0.855469 23.539062 0.863281 23.542969 L 12.066406 26.976562 C 12.113281 26.992188 12.167969 27 12.21875 27 C 12.324219 27 12.429688 26.96875 12.519531 26.90625 C 12.652344 26.8125 12.726562 26.667969 12.726562 26.507812 L 12.726562 23.5625 L 18.328125 23.5625 C 18.609375 23.5625 18.835938 23.34375 18.835938 23.074219 L 18.835938 14.726562 C 18.835938 14.457031 18.609375 14.238281 18.328125 14.238281 Z M 11.710938 25.839844 L 1.527344 22.714844 L 1.527344 1.160156 L 11.710938 4.285156 Z M 11.710938 25.839844 "/>
</g>
</svg>
