<?xml version="1.0" encoding="UTF-8"?>
<svg xmlns="http://www.w3.org/2000/svg" xmlns:xlink="http://www.w3.org/1999/xlink" width="28pt" height="28pt" viewBox="0 0 28 28" version="1.1">
<g id="surface1">
<path style=" stroke:none;fill-rule:nonzero;fill:rgb(0%,0%,0%);fill-opacity:1;" d="M 25.464844 26.152344 L 26.40625 20.960938 C 26.433594 20.808594 26.394531 20.648438 26.292969 20.53125 C 26.214844 20.4375 26.105469 20.386719 25.988281 20.363281 C 26.324219 18.359375 27.230469 11.835938 25.875 5.957031 C 25.808594 5.671875 25.523438 5.496094 25.238281 5.5625 C 24.957031 5.625 24.777344 5.910156 24.84375 6.195312 C 26.179688 11.980469 25.207031 18.621094 24.917969 20.339844 L 23.332031 20.339844 C 23.054688 19.902344 22.472656 18.675781 23.207031 16.839844 C 24.289062 14.132812 24.300781 8.9375 24.300781 8.71875 C 24.300781 8.425781 24.066406 8.1875 23.773438 8.1875 C 23.480469 8.1875 23.246094 8.425781 23.246094 8.71875 C 23.246094 8.769531 23.234375 13.929688 22.226562 16.445312 C 21.527344 18.191406 21.804688 19.53125 22.148438 20.339844 L 21.445312 20.339844 C 21.179688 19.8125 20.605469 18.398438 20.605469 16.113281 C 20.605469 14.511719 21.1875 13.507812 21.75 12.535156 C 22.246094 11.675781 22.71875 10.867188 22.71875 9.773438 C 22.71875 7.648438 22.207031 4.039062 22.183594 3.886719 C 22.140625 3.597656 21.871094 3.394531 21.585938 3.441406 C 21.296875 3.480469 21.097656 3.75 21.136719 4.039062 C 21.140625 4.074219 21.660156 7.722656 21.660156 9.773438 C 21.660156 10.582031 21.277344 11.242188 20.835938 12.003906 C 20.230469 13.046875 19.546875 14.226562 19.546875 16.113281 C 19.546875 18.121094 19.957031 19.527344 20.285156 20.339844 L 19.546875 20.339844 C 19.390625 20.339844 19.242188 20.410156 19.140625 20.53125 C 19.039062 20.648438 19 20.808594 19.027344 20.960938 L 19.972656 26.152344 L 16.90625 26.152344 L 16.90625 1.320312 C 16.90625 1.027344 16.667969 0.792969 16.378906 0.792969 L 3.699219 0.792969 C 3.40625 0.792969 3.167969 1.027344 3.167969 1.320312 L 3.167969 26.152344 L 0 26.152344 L 0 27.207031 L 28 27.207031 L 28 26.152344 Z M 15.847656 26.152344 L 4.226562 26.152344 L 4.226562 1.847656 L 15.847656 1.847656 Z M 24.390625 26.152344 L 21.042969 26.152344 L 20.179688 21.394531 L 25.253906 21.394531 Z M 24.390625 26.152344 "/>
<path style=" stroke:none;fill-rule:nonzero;fill:rgb(0%,0%,0%);fill-opacity:1;" d="M 12.152344 13.472656 L 14.265625 13.472656 L 14.265625 14.527344 L 12.152344 14.527344 Z M 12.152344 13.472656 "/>
</g>
</svg>
