<?xml version="1.0" encoding="UTF-8"?>
<svg xmlns="http://www.w3.org/2000/svg" xmlns:xlink="http://www.w3.org/1999/xlink" width="28pt" height="28pt" viewBox="0 0 28 28" version="1.1">
<g id="surface1">
<path style=" stroke:none;fill-rule:nonzero;fill:rgb(0%,0%,0%);fill-opacity:1;" d="M 26.601562 27.066406 L 23.800781 27.066406 L 23.800781 0.464844 C 23.800781 0.1875 23.613281 0 23.332031 0 L 4.667969 0 C 4.386719 0 4.199219 0.1875 4.199219 0.464844 L 4.199219 27.066406 L 1.398438 27.066406 C 1.121094 27.066406 0.933594 27.253906 0.933594 27.535156 C 0.933594 27.8125 1.121094 28 1.398438 28 L 26.601562 28 C 26.878906 28 27.066406 27.8125 27.066406 27.535156 C 27.066406 27.253906 26.878906 27.066406 26.601562 27.066406 Z M 7 27.066406 L 7 2.800781 L 21 2.800781 L 21 27.066406 Z M 21.933594 27.066406 L 21.933594 2.332031 C 21.933594 2.054688 21.746094 1.867188 21.464844 1.867188 L 6.535156 1.867188 C 6.253906 1.867188 6.066406 2.054688 6.066406 2.332031 L 6.066406 27.066406 L 5.132812 27.066406 L 5.132812 0.933594 L 22.867188 0.933594 L 22.867188 27.066406 Z M 21.933594 27.066406 "/>
<path style=" stroke:none;fill-rule:nonzero;fill:rgb(0%,0%,0%);fill-opacity:1;" d="M 19.601562 13.535156 L 17.734375 13.535156 C 17.453125 13.535156 17.265625 13.71875 17.265625 14 L 17.265625 14.464844 L 16.332031 14.464844 C 16.054688 14.464844 15.867188 14.652344 15.867188 14.933594 C 15.867188 15.214844 16.054688 15.398438 16.332031 15.398438 L 17.265625 15.398438 L 17.265625 15.867188 C 17.265625 16.148438 17.453125 16.332031 17.734375 16.332031 L 19.601562 16.332031 C 19.878906 16.332031 20.066406 16.148438 20.066406 15.867188 L 20.066406 14 C 20.066406 13.71875 19.878906 13.535156 19.601562 13.535156 Z M 19.132812 15.398438 L 18.199219 15.398438 L 18.199219 14.464844 L 19.132812 14.464844 Z M 19.132812 15.398438 "/>
<path style=" stroke:none;fill-rule:nonzero;fill:rgb(0%,0%,0%);fill-opacity:1;" d="M 19.601562 4.199219 L 8.398438 4.199219 C 8.121094 4.199219 7.933594 4.386719 7.933594 4.667969 L 7.933594 8.398438 C 7.933594 8.679688 8.121094 8.867188 8.398438 8.867188 L 19.601562 8.867188 C 19.878906 8.867188 20.066406 8.679688 20.066406 8.398438 L 20.066406 4.667969 C 20.066406 4.386719 19.878906 4.199219 19.601562 4.199219 Z M 19.132812 7.933594 L 8.867188 7.933594 L 8.867188 5.132812 L 19.132812 5.132812 Z M 19.132812 7.933594 "/>
<path style=" stroke:none;fill-rule:nonzero;fill:rgb(0%,0%,0%);fill-opacity:1;" d="M 19.601562 9.800781 L 8.398438 9.800781 C 8.121094 9.800781 7.933594 9.988281 7.933594 10.265625 L 7.933594 14 C 7.933594 14.28125 8.121094 14.464844 8.398438 14.464844 L 14.933594 14.464844 C 15.214844 14.464844 15.398438 14.28125 15.398438 14 L 15.398438 12.601562 L 19.601562 12.601562 C 19.878906 12.601562 20.066406 12.414062 20.066406 12.132812 L 20.066406 10.265625 C 20.066406 9.988281 19.878906 9.800781 19.601562 9.800781 Z M 19.132812 11.667969 L 14.933594 11.667969 C 14.652344 11.667969 14.464844 11.851562 14.464844 12.132812 L 14.464844 13.535156 L 8.867188 13.535156 L 8.867188 10.734375 L 19.132812 10.734375 Z M 19.132812 11.667969 "/>
<path style=" stroke:none;fill-rule:nonzero;fill:rgb(0%,0%,0%);fill-opacity:1;" d="M 19.601562 17.265625 L 15.398438 17.265625 L 15.398438 15.867188 C 15.398438 15.585938 15.214844 15.398438 14.933594 15.398438 L 8.398438 15.398438 C 8.121094 15.398438 7.933594 15.585938 7.933594 15.867188 L 7.933594 19.601562 C 7.933594 19.878906 8.121094 20.066406 8.398438 20.066406 L 19.601562 20.066406 C 19.878906 20.066406 20.066406 19.878906 20.066406 19.601562 L 20.066406 17.734375 C 20.066406 17.453125 19.878906 17.265625 19.601562 17.265625 Z M 19.132812 19.132812 L 8.867188 19.132812 L 8.867188 16.332031 L 14.464844 16.332031 L 14.464844 17.734375 C 14.464844 18.011719 14.652344 18.199219 14.933594 18.199219 L 19.132812 18.199219 Z M 19.132812 19.132812 "/>
<path style=" stroke:none;fill-rule:nonzero;fill:rgb(0%,0%,0%);fill-opacity:1;" d="M 19.601562 21 L 8.398438 21 C 8.121094 21 7.933594 21.1875 7.933594 21.464844 L 7.933594 25.199219 C 7.933594 25.480469 8.121094 25.667969 8.398438 25.667969 L 19.601562 25.667969 C 19.878906 25.667969 20.066406 25.480469 20.066406 25.199219 L 20.066406 21.464844 C 20.066406 21.1875 19.878906 21 19.601562 21 Z M 19.132812 24.734375 L 8.867188 24.734375 L 8.867188 21.933594 L 19.132812 21.933594 Z M 19.132812 24.734375 "/>
</g>
</svg>
