<?xml version="1.0" encoding="UTF-8" standalone="no"?>
<!-- Generator: Adobe Illustrator 19.0.0, SVG Export Plug-In . SVG Version: 6.00 Build 0)  -->

<svg
   version="1.1"
   id="Capa_1"
   x="0px"
   y="0px"
   viewBox="0 0 512 512"
   style="enable-background:new 0 0 512 512;"
   xml:space="preserve"
   sodipodi:docname="exitfullscreen.svg"
   inkscape:version="1.1 (c4e8f9e, 2021-05-24)"
   xmlns:inkscape="http://www.inkscape.org/namespaces/inkscape"
   xmlns:sodipodi="http://sodipodi.sourceforge.net/DTD/sodipodi-0.dtd"
   xmlns="http://www.w3.org/2000/svg"
   xmlns:svg="http://www.w3.org/2000/svg"><defs
   id="defs10700" /><sodipodi:namedview
   id="namedview10698"
   pagecolor="#ffffff"
   bordercolor="#666666"
   borderopacity="1.0"
   inkscape:pageshadow="2"
   inkscape:pageopacity="0.0"
   inkscape:pagecheckerboard="0"
   showgrid="false"
   inkscape:zoom="0.25998604"
   inkscape:cx="-1151.9849"
   inkscape:cy="248.09025"
   inkscape:window-width="1920"
   inkscape:window-height="1027"
   inkscape:window-x="0"
   inkscape:window-y="25"
   inkscape:window-maximized="1"
   inkscape:current-layer="Capa_1" />
<g
   id="g10665"
   transform="matrix(0.88897638,0,0,0.88897638,-76.149053,-71.477257)">
	<g
   id="g10663">
		<g
   id="g10661">
			<path
   d="m 323.22431,227.22431 v -32 h -112 c -8.837,0 -16,7.163 -16,16 v 112 h 32 v -73.44 l 148.64,148.64 22.56,-22.56 -148.64,-148.64 z"
   id="path10653" />
			
			<path
   d="M 480,457.44 331.36,308.8 308.8,331.36 457.44,480 H 384 v 32 h 112 c 8.837,0 16,-7.163 16,-16 V 384 h -32 z"
   id="path10657" />
			
		</g>
	</g>
</g>
<g
   id="g10667">
</g>
<g
   id="g10669">
</g>
<g
   id="g10671">
</g>
<g
   id="g10673">
</g>
<g
   id="g10675">
</g>
<g
   id="g10677">
</g>
<g
   id="g10679">
</g>
<g
   id="g10681">
</g>
<g
   id="g10683">
</g>
<g
   id="g10685">
</g>
<g
   id="g10687">
</g>
<g
   id="g10689">
</g>
<g
   id="g10691">
</g>
<g
   id="g10693">
</g>
<g
   id="g10695">
</g>
<path
   style="fill:#000000;stroke-width:0.639907"
   d="m 513.23509,460.87464 c -0.34352,10.89735 -0.63333,13.71435 -1.71198,16.64045 -5.56071,15.08458 -14.51176,24.76695 -30.0997,32.55903 l -6.54742,3.27286 H 349.43103 223.98608 l -6.54742,-3.27286 c -3.60108,-1.80013 -8.29544,-4.51339 -10.43192,-6.02946 -10.5192,-7.4647 -19.16462,-21.09459 -20.88846,-32.93152 -0.35183,-2.41584 -0.73317,-48.82103 -0.90972,-110.70385 l -0.30397,-106.54445 18.22553,18.18614 18.22552,18.18609 0.30415,84.83888 c 0.30683,85.58829 0.45747,90.96536 2.67975,95.64845 1.31981,2.78129 5.69832,5.16334 11.50953,6.26155 6.58166,1.24379 215.07439,1.24174 224.92572,0 9.11861,-1.15145 11.36007,-2.21824 13.70207,-6.52122 l 1.86331,-3.42357 0.49454,-15.72033 c 0.64738,-20.57933 0.6432,-178.89819 -0.005,-201.71793 -0.48573,-17.09115 -0.55789,-17.80901 -2.09047,-20.79697 -2.08692,-4.0687 -5.32705,-5.72717 -13.00966,-6.65903 -3.74972,-0.45482 -35.67948,-0.81538 -91.67302,-1.0352 l -85.91926,-0.33731 -16.94573,-17.33185 c -9.32036,-9.53255 -16.94595,-17.53258 -16.94595,-17.77786 0,-1.07514 33.8324,-1.36438 120.20946,-1.02769 56.61435,0.22068 94.48584,0.61267 97.51986,1.00938 19.99495,2.61442 36.83169,16.56811 43.34062,35.91917 1.07456,3.19467 1.52173,6.64086 1.94946,15.02399 0.62937,12.33493 0.60387,204.18487 -0.0298,224.28728 z M 495.64227,160.75842 h -18.24476 l 0.1674,-25.08723 0.16741,-25.08724 17.27748,-0.0837 c 9.50261,-0.046 17.63742,0.0437 18.07736,0.19933 0.62134,0.21984 0.79988,5.83813 0.79988,25.17091 v 24.88789 z m 0.17036,-81.26814 h -18.22266 l -0.3607,-13.91797 c -0.19839,-7.65489 -0.69857,-15.0698 -1.11151,-16.4776 -1.1093,-3.78184 -3.25623,-6.23325 -7.10973,-8.11805 -5.01816,-2.45444 -9.64034,-3.08032 -22.74866,-3.08032 H 434.53862 V 19.96584 2.03533 l 16.15764,0.3865 c 22.92401,0.54835 25.02231,0.8491 32.79522,4.70059 11.20204,5.55063 19.71189,13.95839 24.99465,24.69481 4.55428,9.25588 4.87868,11.14932 5.23493,30.55554 l 0.31423,17.11751 z M 378.22683,37.89634 H 353.27047 V 19.97896 2.06157 h 24.95636 24.95636 v 17.91739 17.91738 z m -81.58809,0 h -25.93647 l 0.1701,-17.7574 0.1701,-17.75741 h 25.59627 25.59626 l 0.1701,17.75741 0.1701,17.7574 z m -81.26815,0 h -25.93646 l 0.1701,-17.7574 0.1701,-17.75741 h 25.59626 25.59627 l 0.1701,17.75741 0.1701,17.7574 z M 133.7825,513.98689 H 108.82614 V 496.0695 478.15212 h 24.95636 24.95635 v 17.91738 17.91739 z m 0,-476.09055 H 108.82614 V 19.97896 2.06157 h 24.95636 24.95635 V 19.97896 37.89634 Z M 61.31307,513.6384 C 39.40834,513.10043 36.19546,512.68039 29.52354,509.48246 15.9757,502.98881 6.59038,492.96404 1.34486,479.38387 -1.04206,473.20442 -1.87772,465.31725 -1.87772,448.9686 v -12.41042 h 18.23734 18.23734 l 0.0127,11.35835 c 0.0216,19.38789 1.34323,23.715 8.30611,27.19558 4.52976,2.26431 10.29881,2.99528 23.83653,3.02023 l 10.71843,0.0198 v 17.94158 17.94157 z m 5.4392,-475.72229 c -13.53772,0.0249 -19.30676,0.75592 -23.83652,3.02023 -6.96288,3.48057 -8.28448,7.80769 -8.30611,27.19559 l -0.0127,11.35835 H 16.28081 -2.03533 L -1.72051,62.05282 C -1.43512,46.24504 -1.27134,44.19673 0.03195,40.13602 4.90598,24.94987 14.89773,13.57633 29.52352,6.56599 36.2,3.36586 39.42539,2.94539 61.31304,2.42183 l 16.15764,-0.3865 v 17.93051 17.9305 z M 16.35962,405.20276 H -1.87772 V 380.2464 355.29004 h 18.23734 18.23734 v 24.95636 24.95636 z m 0.092,-80.62824 H -1.87771 v -25.98264 -25.98264 l 17.75741,0.46278 c 9.76658,0.25455 17.86891,0.56395 18.00518,0.68752 0.13628,0.12356 0.39364,11.60745 0.57193,25.51979 l 0.32415,25.29519 z m 17.66857,-87.82719 -0.21115,5.91914 -4.93527,0.002 c -2.71439,6.4e-4 -10.76641,0.19037 -17.89337,0.42128 l -12.95811,0.41985 v -26.0178 -26.01778 h 18.23734 18.23734 l -0.1328,19.67713 c -0.0731,10.82242 -0.22784,22.34074 -0.34397,25.59626 z M 16.35963,160.75842 H -1.87771 V 135.80206 110.8457 l 6.23909,-0.0817 c 3.4315,-0.0449 6.95899,-0.1822 7.83886,-0.30508 0.87987,-0.12287 6.27908,-0.0476 11.99825,0.16722 l 10.39848,0.39062 v 24.87081 24.87081 z"
   id="path10771"
   sodipodi:nodetypes="csscccscsscccssscscscsssccsssssccccccsssccccsssscccsssscccccccccccccccccccccccccccccccccccccccccccccccsssscccssscccscsccccscsscccccccccccccccccssscccccscccccccccccccsccccc" /></svg>
