<?xml version="1.0" encoding="UTF-8"?>
<svg xmlns="http://www.w3.org/2000/svg" xmlns:xlink="http://www.w3.org/1999/xlink" width="28pt" height="28pt" viewBox="0 0 28 28" version="1.1">
<g id="surface1">
<path style=" stroke:none;fill-rule:nonzero;fill:rgb(0%,0%,0%);fill-opacity:1;" d="M 24.765625 22.816406 L 23.222656 22.816406 L 23.222656 11.4375 C 23.222656 10.074219 22.113281 8.964844 20.75 8.964844 L 17.480469 8.964844 L 17.480469 5.757812 C 17.480469 5.222656 17.050781 4.792969 16.515625 4.792969 L 16.152344 4.792969 L 15.652344 0.835938 C 15.589844 0.359375 15.183594 0 14.703125 0 L 13.21875 0 C 12.738281 0 12.332031 0.359375 12.269531 0.835938 L 11.769531 4.792969 L 11.378906 4.792969 C 10.847656 4.792969 10.414062 5.222656 10.414062 5.757812 L 10.414062 8.964844 L 7.195312 8.964844 C 5.828125 8.964844 4.722656 10.074219 4.722656 11.4375 L 4.722656 22.816406 L 3.171875 22.816406 C 2.007812 22.816406 1.066406 23.757812 1.066406 24.921875 L 1.066406 27.941406 L 26.875 27.941406 L 26.875 24.925781 C 26.875 23.761719 25.929688 22.816406 24.765625 22.816406 Z M 8.34375 11.765625 L 19.597656 11.765625 C 20.054688 11.765625 20.421875 12.132812 20.421875 12.589844 L 20.421875 22.816406 L 7.519531 22.816406 L 7.519531 12.585938 C 7.519531 12.132812 7.886719 11.765625 8.34375 11.765625 Z M 8.34375 11.765625 "/>
<path style=" stroke:none;fill-rule:nonzero;fill:rgb(0%,0%,0%);fill-opacity:1;" d="M 15.867188 16.863281 C 15.867188 16.863281 15.589844 18.019531 14.84375 18.253906 C 14.84375 18.253906 15.53125 15.554688 13.8125 13.417969 C 13.8125 13.417969 13.589844 15.539062 12.269531 16.863281 C 10.25 18.886719 11.984375 20.996094 14.097656 20.996094 C 16.410156 20.996094 16.726562 18.441406 15.867188 16.863281 Z M 15.867188 16.863281 "/>
</g>
</svg>
