<?xml version="1.0" encoding="UTF-8"?>
<svg xmlns="http://www.w3.org/2000/svg" xmlns:xlink="http://www.w3.org/1999/xlink" width="28pt" height="28pt" viewBox="0 0 28 28" version="1.1">
<g id="surface1">
<path style=" stroke:none;fill-rule:nonzero;fill:rgb(0%,0%,0%);fill-opacity:1;" d="M 28 17.386719 C 28 16.601562 27.363281 15.964844 26.578125 15.964844 L 23.644531 15.964844 L 23.644531 14.414062 C 23.769531 14.441406 23.898438 14.453125 24.027344 14.453125 C 24.550781 14.453125 25.074219 14.238281 25.460938 13.851562 C 25.953125 13.359375 26.167969 12.648438 26.019531 12 C 25.980469 11.828125 25.847656 11.699219 25.675781 11.660156 C 25.027344 11.507812 24.316406 11.722656 23.824219 12.214844 C 23.761719 12.28125 23.699219 12.347656 23.644531 12.421875 L 23.644531 10.992188 C 24.207031 10.800781 24.613281 10.269531 24.613281 9.644531 C 24.613281 9.390625 24.539062 8.921875 24.410156 8.445312 C 24.890625 8.574219 25.359375 8.648438 25.609375 8.648438 C 26.394531 8.648438 27.03125 8.011719 27.03125 7.226562 C 27.03125 6.441406 26.394531 5.804688 25.609375 5.804688 C 25.359375 5.804688 24.890625 5.878906 24.410156 6.007812 C 24.539062 5.53125 24.613281 5.058594 24.613281 4.808594 C 24.613281 4.023438 23.976562 3.386719 23.191406 3.386719 C 22.410156 3.386719 21.769531 4.023438 21.769531 4.808594 C 21.769531 5.0625 21.84375 5.53125 21.972656 6.007812 C 21.496094 5.878906 21.023438 5.804688 20.773438 5.804688 C 19.988281 5.804688 19.351562 6.441406 19.351562 7.226562 C 19.351562 8.011719 19.988281 8.648438 20.773438 8.648438 C 21.027344 8.648438 21.496094 8.574219 21.972656 8.445312 C 21.84375 8.921875 21.769531 9.394531 21.769531 9.644531 C 21.769531 10.269531 22.175781 10.800781 22.738281 10.992188 L 22.738281 12.421875 C 22.683594 12.347656 22.625 12.28125 22.558594 12.214844 C 22.066406 11.722656 21.359375 11.507812 20.707031 11.660156 C 20.539062 11.695312 20.40625 11.828125 20.367188 12 C 20.21875 12.648438 20.429688 13.359375 20.921875 13.851562 C 21.3125 14.238281 21.835938 14.453125 22.359375 14.453125 C 22.484375 14.453125 22.613281 14.441406 22.738281 14.414062 L 22.738281 15.964844 L 14.453125 15.964844 L 14.453125 15.15625 L 15.679688 13.929688 C 15.835938 13.953125 15.996094 13.964844 16.152344 13.964844 C 17.082031 13.964844 18.011719 13.585938 18.703125 12.894531 C 19.574219 12.019531 19.957031 10.761719 19.691406 9.613281 C 19.652344 9.445312 19.519531 9.3125 19.351562 9.273438 C 18.203125 9.007812 16.945312 9.390625 16.070312 10.261719 C 15.261719 11.074219 14.875 12.214844 15.035156 13.292969 L 14.453125 13.871094 L 14.453125 10.507812 C 15.015625 10.320312 15.421875 9.785156 15.421875 9.160156 C 15.421875 8.914062 15.34375 8.175781 15.210938 7.390625 C 15.824219 7.898438 16.425781 8.335938 16.640625 8.457031 C 16.863281 8.585938 17.109375 8.648438 17.347656 8.648438 C 17.839844 8.648438 18.320312 8.394531 18.582031 7.9375 C 18.972656 7.257812 18.742188 6.386719 18.0625 5.996094 C 17.847656 5.871094 17.167969 5.570312 16.421875 5.292969 C 17.167969 5.015625 17.847656 4.710938 18.0625 4.585938 C 18.742188 4.195312 18.972656 3.324219 18.582031 2.644531 C 18.191406 1.96875 17.320312 1.734375 16.640625 2.125 C 16.425781 2.25 15.824219 2.683594 15.210938 3.191406 C 15.34375 2.40625 15.421875 1.667969 15.421875 1.421875 C 15.421875 0.636719 14.785156 0 14 0 C 13.214844 0 12.578125 0.636719 12.578125 1.421875 C 12.578125 1.667969 12.65625 2.40625 12.789062 3.191406 C 12.175781 2.683594 11.574219 2.25 11.359375 2.125 C 10.679688 1.734375 9.808594 1.96875 9.417969 2.644531 C 9.027344 3.324219 9.257812 4.195312 9.9375 4.585938 C 10.152344 4.710938 10.832031 5.015625 11.578125 5.292969 C 10.832031 5.570312 10.152344 5.871094 9.9375 5.996094 C 9.257812 6.386719 9.027344 7.257812 9.417969 7.9375 C 9.679688 8.394531 10.160156 8.648438 10.652344 8.648438 C 10.890625 8.648438 11.136719 8.585938 11.359375 8.457031 C 11.574219 8.335938 12.175781 7.898438 12.789062 7.390625 C 12.65625 8.175781 12.578125 8.914062 12.578125 9.160156 C 12.578125 9.785156 12.984375 10.320312 13.546875 10.507812 L 13.546875 13.871094 L 12.964844 13.292969 C 13.125 12.214844 12.738281 11.074219 11.929688 10.261719 C 11.054688 9.390625 9.796875 9.007812 8.648438 9.273438 C 8.480469 9.3125 8.347656 9.445312 8.308594 9.613281 C 8.042969 10.761719 8.425781 12.019531 9.296875 12.894531 C 9.988281 13.585938 10.917969 13.964844 11.847656 13.964844 C 12.003906 13.964844 12.164062 13.953125 12.320312 13.929688 L 13.546875 15.15625 L 13.546875 15.964844 L 5.261719 15.964844 L 5.261719 14.414062 C 5.386719 14.441406 5.515625 14.453125 5.640625 14.453125 C 6.164062 14.453125 6.6875 14.238281 7.078125 13.851562 C 7.570312 13.359375 7.78125 12.648438 7.632812 12 C 7.59375 11.828125 7.460938 11.699219 7.292969 11.660156 C 6.640625 11.507812 5.933594 11.722656 5.441406 12.214844 C 5.375 12.28125 5.316406 12.347656 5.261719 12.421875 L 5.261719 10.992188 C 5.824219 10.800781 6.230469 10.269531 6.230469 9.644531 C 6.230469 9.390625 6.15625 8.921875 6.027344 8.445312 C 6.503906 8.574219 6.976562 8.648438 7.226562 8.648438 C 8.011719 8.648438 8.648438 8.011719 8.648438 7.226562 C 8.648438 6.441406 8.011719 5.804688 7.226562 5.804688 C 6.972656 5.804688 6.503906 5.878906 6.027344 6.007812 C 6.15625 5.53125 6.230469 5.058594 6.230469 4.808594 C 6.230469 4.023438 5.589844 3.386719 4.808594 3.386719 C 4.023438 3.386719 3.386719 4.023438 3.386719 4.808594 C 3.386719 5.0625 3.460938 5.53125 3.589844 6.007812 C 3.109375 5.878906 2.640625 5.804688 2.390625 5.804688 C 1.605469 5.804688 0.96875 6.441406 0.96875 7.226562 C 0.96875 8.011719 1.605469 8.648438 2.390625 8.648438 C 2.640625 8.648438 3.109375 8.574219 3.589844 8.445312 C 3.460938 8.921875 3.386719 9.394531 3.386719 9.644531 C 3.386719 10.269531 3.792969 10.800781 4.355469 10.992188 L 4.355469 12.421875 C 4.300781 12.347656 4.238281 12.28125 4.175781 12.214844 C 3.683594 11.722656 2.972656 11.507812 2.324219 11.660156 C 2.152344 11.695312 2.019531 11.828125 1.980469 12 C 1.832031 12.648438 2.046875 13.359375 2.539062 13.851562 C 2.925781 14.238281 3.449219 14.453125 3.972656 14.453125 C 4.101562 14.453125 4.230469 14.441406 4.355469 14.414062 L 4.355469 15.964844 L 1.421875 15.964844 C 0.636719 15.964844 0 16.601562 0 17.386719 C 0 18.019531 0.417969 18.558594 0.992188 18.742188 L 1.390625 24.738281 C 1.433594 25.347656 1.859375 25.847656 2.417969 26.007812 L 2.417969 27.0625 C 2.417969 27.578125 2.839844 28 3.355469 28 L 24.644531 28 C 25.160156 28 25.582031 27.578125 25.582031 27.0625 L 25.582031 26.007812 C 26.140625 25.847656 26.566406 25.347656 26.609375 24.738281 L 27.007812 18.742188 C 27.582031 18.558594 28 18.019531 28 17.386719 Z M 24.46875 12.855469 C 24.65625 12.664062 24.902344 12.550781 25.152344 12.523438 C 25.125 12.773438 25.011719 13.019531 24.820312 13.207031 C 24.628906 13.398438 24.382812 13.515625 24.136719 13.539062 C 24.160156 13.292969 24.277344 13.046875 24.46875 12.855469 Z M 21.5625 13.207031 C 21.375 13.019531 21.257812 12.773438 21.230469 12.523438 C 21.480469 12.550781 21.726562 12.664062 21.917969 12.855469 C 22.109375 13.046875 22.222656 13.292969 22.25 13.539062 C 22 13.515625 21.753906 13.398438 21.5625 13.207031 Z M 22.679688 7.226562 C 22.679688 6.941406 22.910156 6.710938 23.191406 6.710938 C 23.476562 6.710938 23.707031 6.941406 23.707031 7.226562 C 23.707031 7.511719 23.476562 7.742188 23.191406 7.742188 C 22.910156 7.742188 22.679688 7.511719 22.679688 7.226562 Z M 26.125 7.226562 C 26.125 7.511719 25.894531 7.742188 25.609375 7.742188 C 25.429688 7.742188 25.003906 7.671875 24.574219 7.550781 C 24.601562 7.445312 24.613281 7.339844 24.613281 7.226562 C 24.613281 7.117188 24.601562 7.007812 24.574219 6.902344 C 25.003906 6.78125 25.429688 6.710938 25.609375 6.710938 C 25.894531 6.710938 26.125 6.941406 26.125 7.226562 Z M 23.191406 4.292969 C 23.476562 4.292969 23.707031 4.523438 23.707031 4.808594 C 23.707031 4.988281 23.636719 5.414062 23.515625 5.84375 C 23.410156 5.820312 23.304688 5.804688 23.191406 5.804688 C 23.082031 5.804688 22.972656 5.820312 22.867188 5.84375 C 22.75 5.414062 22.679688 4.988281 22.679688 4.808594 C 22.679688 4.523438 22.910156 4.292969 23.191406 4.292969 Z M 20.257812 7.226562 C 20.257812 6.941406 20.488281 6.710938 20.773438 6.710938 C 20.953125 6.710938 21.378906 6.78125 21.808594 6.902344 C 21.785156 7.007812 21.769531 7.117188 21.769531 7.226562 C 21.769531 7.339844 21.785156 7.445312 21.808594 7.550781 C 21.378906 7.671875 20.953125 7.742188 20.773438 7.742188 C 20.488281 7.742188 20.257812 7.511719 20.257812 7.226562 Z M 22.867188 8.609375 C 22.972656 8.632812 23.082031 8.648438 23.191406 8.648438 C 23.304688 8.648438 23.410156 8.632812 23.515625 8.609375 C 23.636719 9.039062 23.707031 9.464844 23.707031 9.644531 C 23.707031 9.929688 23.476562 10.160156 23.191406 10.160156 C 22.910156 10.160156 22.679688 9.929688 22.679688 9.644531 C 22.679688 9.464844 22.75 9.039062 22.867188 8.609375 Z M 16.714844 10.90625 C 17.292969 10.324219 18.09375 10.03125 18.855469 10.109375 C 18.933594 10.871094 18.640625 11.671875 18.058594 12.253906 C 17.648438 12.664062 17.128906 12.929688 16.585938 13.023438 L 17.707031 11.902344 C 17.886719 11.722656 17.886719 11.4375 17.707031 11.257812 C 17.53125 11.082031 17.246094 11.082031 17.066406 11.257812 L 15.941406 12.382812 C 16.035156 11.839844 16.300781 11.316406 16.714844 10.90625 Z M 13.484375 5.292969 C 13.484375 5.007812 13.714844 4.777344 14 4.777344 C 14.285156 4.777344 14.515625 5.007812 14.515625 5.292969 C 14.515625 5.574219 14.285156 5.804688 14 5.804688 C 13.714844 5.804688 13.484375 5.574219 13.484375 5.292969 Z M 17.796875 7.484375 C 17.65625 7.730469 17.339844 7.8125 17.09375 7.671875 C 16.863281 7.539062 15.878906 6.808594 15.144531 6.128906 C 15.207031 6.046875 15.257812 5.960938 15.300781 5.863281 C 16.253906 6.160156 17.378906 6.648438 17.609375 6.78125 C 17.855469 6.921875 17.9375 7.238281 17.796875 7.484375 Z M 17.09375 2.910156 C 17.339844 2.769531 17.65625 2.855469 17.796875 3.097656 C 17.9375 3.34375 17.855469 3.660156 17.609375 3.800781 C 17.378906 3.933594 16.253906 4.421875 15.300781 4.71875 C 15.257812 4.625 15.207031 4.535156 15.144531 4.453125 C 15.878906 3.773438 16.863281 3.046875 17.09375 2.910156 Z M 14 0.90625 C 14.285156 0.90625 14.515625 1.136719 14.515625 1.421875 C 14.515625 1.6875 14.375 2.90625 14.152344 3.878906 C 14.101562 3.875 14.050781 3.871094 14 3.871094 C 13.949219 3.871094 13.898438 3.875 13.847656 3.878906 C 13.625 2.90625 13.484375 1.6875 13.484375 1.421875 C 13.484375 1.136719 13.714844 0.90625 14 0.90625 Z M 10.203125 3.097656 C 10.34375 2.855469 10.660156 2.769531 10.90625 2.910156 C 11.136719 3.046875 12.121094 3.773438 12.855469 4.453125 C 12.792969 4.535156 12.742188 4.625 12.699219 4.71875 C 11.746094 4.421875 10.621094 3.933594 10.390625 3.800781 C 10.144531 3.660156 10.0625 3.34375 10.203125 3.097656 Z M 10.90625 7.671875 C 10.660156 7.8125 10.34375 7.730469 10.203125 7.484375 C 10.0625 7.238281 10.144531 6.921875 10.390625 6.78125 C 10.621094 6.648438 11.746094 6.160156 12.699219 5.863281 C 12.742188 5.960938 12.792969 6.046875 12.855469 6.128906 C 12.121094 6.808594 11.136719 7.539062 10.90625 7.671875 Z M 13.847656 6.703125 C 13.898438 6.710938 13.949219 6.710938 14 6.710938 C 14.050781 6.710938 14.101562 6.710938 14.152344 6.703125 C 14.375 7.679688 14.515625 8.894531 14.515625 9.160156 C 14.515625 9.445312 14.285156 9.675781 14 9.675781 C 13.714844 9.675781 13.484375 9.445312 13.484375 9.160156 C 13.484375 8.894531 13.625 7.679688 13.847656 6.703125 Z M 9.941406 12.253906 C 9.359375 11.671875 9.066406 10.871094 9.144531 10.109375 C 9.90625 10.03125 10.707031 10.324219 11.285156 10.90625 C 11.699219 11.316406 11.964844 11.839844 12.058594 12.382812 L 10.933594 11.257812 C 10.753906 11.082031 10.46875 11.082031 10.292969 11.257812 C 10.113281 11.4375 10.113281 11.722656 10.292969 11.898438 L 11.414062 13.023438 C 10.871094 12.929688 10.351562 12.664062 9.941406 12.253906 Z M 6.082031 12.855469 C 6.273438 12.664062 6.519531 12.550781 6.769531 12.523438 C 6.742188 12.773438 6.625 13.019531 6.4375 13.207031 C 6.246094 13.398438 6 13.515625 5.75 13.539062 C 5.777344 13.292969 5.890625 13.046875 6.082031 12.855469 Z M 3.179688 13.207031 C 2.988281 13.019531 2.875 12.773438 2.847656 12.523438 C 3.097656 12.550781 3.34375 12.664062 3.53125 12.855469 C 3.722656 13.046875 3.839844 13.292969 3.863281 13.539062 C 3.617188 13.515625 3.371094 13.398438 3.179688 13.207031 Z M 4.292969 7.226562 C 4.292969 6.941406 4.523438 6.710938 4.808594 6.710938 C 5.089844 6.710938 5.320312 6.941406 5.320312 7.226562 C 5.320312 7.511719 5.089844 7.742188 4.808594 7.742188 C 4.523438 7.742188 4.292969 7.511719 4.292969 7.226562 Z M 7.742188 7.226562 C 7.742188 7.511719 7.511719 7.742188 7.226562 7.742188 C 7.046875 7.742188 6.621094 7.671875 6.191406 7.550781 C 6.214844 7.445312 6.230469 7.339844 6.230469 7.226562 C 6.230469 7.117188 6.214844 7.007812 6.191406 6.902344 C 6.621094 6.78125 7.046875 6.710938 7.226562 6.710938 C 7.511719 6.710938 7.742188 6.941406 7.742188 7.226562 Z M 4.808594 4.292969 C 5.089844 4.292969 5.320312 4.523438 5.320312 4.808594 C 5.320312 4.988281 5.25 5.414062 5.132812 5.84375 C 5.027344 5.820312 4.917969 5.804688 4.808594 5.804688 C 4.695312 5.804688 4.589844 5.820312 4.484375 5.84375 C 4.363281 5.414062 4.292969 4.988281 4.292969 4.808594 C 4.292969 4.523438 4.523438 4.292969 4.808594 4.292969 Z M 1.875 7.226562 C 1.875 6.941406 2.105469 6.710938 2.390625 6.710938 C 2.570312 6.710938 2.996094 6.78125 3.425781 6.902344 C 3.398438 7.007812 3.386719 7.117188 3.386719 7.226562 C 3.386719 7.339844 3.398438 7.445312 3.425781 7.550781 C 2.996094 7.671875 2.570312 7.742188 2.390625 7.742188 C 2.105469 7.742188 1.875 7.511719 1.875 7.226562 Z M 4.484375 8.609375 C 4.589844 8.632812 4.695312 8.648438 4.808594 8.648438 C 4.917969 8.648438 5.027344 8.632812 5.132812 8.609375 C 5.25 9.039062 5.320312 9.464844 5.320312 9.644531 C 5.320312 9.929688 5.089844 10.160156 4.808594 10.160156 C 4.523438 10.160156 4.292969 9.929688 4.292969 9.644531 C 4.292969 9.464844 4.363281 9.039062 4.484375 8.609375 Z M 24.644531 27.09375 L 3.355469 27.09375 C 3.339844 27.09375 3.324219 27.078125 3.324219 27.0625 L 3.324219 26.066406 L 24.675781 26.066406 L 24.675781 27.0625 C 24.675781 27.078125 24.660156 27.09375 24.644531 27.09375 Z M 25.191406 25.15625 L 2.808594 25.15625 C 2.539062 25.15625 2.316406 24.945312 2.296875 24.679688 L 1.90625 18.808594 L 26.09375 18.808594 L 25.703125 24.679688 C 25.683594 24.945312 25.460938 25.15625 25.191406 25.15625 Z M 26.578125 17.902344 L 1.421875 17.902344 C 1.136719 17.902344 0.90625 17.671875 0.90625 17.386719 C 0.90625 17.101562 1.136719 16.871094 1.421875 16.871094 L 26.578125 16.871094 C 26.863281 16.871094 27.09375 17.101562 27.09375 17.386719 C 27.09375 17.671875 26.863281 17.902344 26.578125 17.902344 Z M 26.578125 17.902344 "/>
</g>
</svg>
