<?xml version="1.0" encoding="UTF-8"?>
<svg xmlns="http://www.w3.org/2000/svg" xmlns:xlink="http://www.w3.org/1999/xlink" width="28pt" height="28pt" viewBox="0 0 28 28" version="1.1">
<g id="surface1">
<path style=" stroke:none;fill-rule:nonzero;fill:rgb(0%,0%,0%);fill-opacity:1;" d="M 7.875 15.75 L 7 15.75 L 7 17.5 L 7.875 17.5 C 8.359375 17.5 8.75 17.105469 8.75 16.625 C 8.75 16.144531 8.359375 15.75 7.875 15.75 Z M 7.875 15.75 "/>
<path style=" stroke:none;fill-rule:nonzero;fill:rgb(0%,0%,0%);fill-opacity:1;" d="M 14.875 18.484375 L 14.683594 19.25 L 15.066406 19.25 Z M 14.875 18.484375 "/>
<path style=" stroke:none;fill-rule:nonzero;fill:rgb(0%,0%,0%);fill-opacity:1;" d="M 7.875 19.25 L 7 19.25 L 7 21 L 7.875 21 C 8.359375 21 8.75 20.605469 8.75 20.125 C 8.75 19.644531 8.359375 19.25 7.875 19.25 Z M 7.875 19.25 "/>
<path style=" stroke:none;fill-rule:nonzero;fill:rgb(0%,0%,0%);fill-opacity:1;" d="M 21.875 15.75 L 21 15.75 L 21 17.5 L 21.875 17.5 C 22.355469 17.5 22.75 17.105469 22.75 16.625 C 22.75 16.144531 22.355469 15.75 21.875 15.75 Z M 21.875 15.75 "/>
<path style=" stroke:none;fill-rule:nonzero;fill:rgb(0%,0%,0%);fill-opacity:1;" d="M 24.5 6.125 L 28 6.125 L 28 2.625 L 24.5 2.625 C 24.5 2.140625 24.109375 1.75 23.625 1.75 L 20.125 1.75 C 19.640625 1.75 19.25 2.140625 19.25 2.625 L 10.5 2.625 C 10.5 2.140625 10.109375 1.75 9.625 1.75 L 6.125 1.75 C 5.640625 1.75 5.25 2.140625 5.25 2.625 L 0 2.625 L 0 6.125 L 5.25 6.125 C 5.25 6.609375 5.640625 7 6.125 7 L 6.125 10.5 L 2.625 10.5 C 2.140625 10.5 1.75 10.890625 1.75 11.375 L 1.75 25.375 C 1.75 25.859375 2.140625 26.25 2.625 26.25 L 27.125 26.25 C 27.609375 26.25 28 25.859375 28 25.375 L 28 11.375 C 28 10.890625 27.609375 10.5 27.125 10.5 L 23.625 10.5 L 23.625 7 C 24.109375 7 24.5 6.609375 24.5 6.125 Z M 9.625 7 C 10.109375 7 10.5 6.609375 10.5 6.125 L 19.25 6.125 C 19.25 6.609375 19.640625 7 20.125 7 L 20.125 10.5 L 9.625 10.5 Z M 10.5 20.125 C 10.5 21.570312 9.320312 22.75 7.875 22.75 L 6.125 22.75 C 5.640625 22.75 5.25 22.359375 5.25 21.875 L 5.25 14.875 C 5.25 14.390625 5.640625 14 6.125 14 L 7.875 14 C 9.320312 14 10.5 15.179688 10.5 16.625 C 10.5 17.296875 10.246094 17.910156 9.828125 18.375 C 10.246094 18.839844 10.5 19.453125 10.5 20.125 Z M 16.835938 22.722656 C 16.765625 22.742188 16.695312 22.75 16.625 22.75 C 16.230469 22.75 15.875 22.484375 15.777344 22.085938 L 15.503906 21 L 14.246094 21 L 13.972656 22.085938 C 13.855469 22.558594 13.378906 22.835938 12.914062 22.722656 C 12.445312 22.605469 12.160156 22.128906 12.277344 21.664062 L 14.027344 14.664062 C 14.21875 13.882812 15.527344 13.882812 15.722656 14.664062 L 17.472656 21.664062 C 17.589844 22.128906 17.308594 22.605469 16.835938 22.722656 Z M 24.5 16.625 C 24.5 17.617188 23.945312 18.484375 23.132812 18.929688 L 24.40625 21.484375 C 24.621094 21.914062 24.449219 22.441406 24.015625 22.65625 C 23.890625 22.71875 23.757812 22.75 23.625 22.75 C 23.304688 22.75 22.996094 22.570312 22.84375 22.265625 L 21.335938 19.25 L 21 19.25 L 21 21.875 C 21 22.359375 20.609375 22.75 20.125 22.75 C 19.640625 22.75 19.25 22.359375 19.25 21.875 L 19.25 14.875 C 19.25 14.390625 19.640625 14 20.125 14 L 21.875 14 C 23.320312 14 24.5 15.179688 24.5 16.625 Z M 24.5 16.625 "/>
</g>
</svg>
