<?xml version="1.0" encoding="UTF-8"?>
<svg xmlns="http://www.w3.org/2000/svg" xmlns:xlink="http://www.w3.org/1999/xlink" width="28pt" height="28pt" viewBox="0 0 28 28" version="1.1">
<g id="surface1">
<path style=" stroke:none;fill-rule:nonzero;fill:rgb(0%,0%,0%);fill-opacity:1;" d="M 27.683594 4.691406 L 14.152344 0.0273438 C 14.054688 -0.0078125 13.945312 -0.0078125 13.847656 0.0273438 L 0.316406 4.691406 C 0.125 4.757812 0 4.933594 0 5.132812 L 0 27.535156 C 0 27.789062 0.207031 28 0.464844 28 L 2.800781 28 C 3.058594 28 3.265625 27.789062 3.265625 27.535156 L 3.265625 13.066406 L 24.734375 13.066406 L 24.734375 27.535156 C 24.734375 27.789062 24.941406 28 25.199219 28 L 27.535156 28 C 27.792969 28 28 27.789062 28 27.535156 L 28 5.132812 C 28 4.933594 27.875 4.757812 27.683594 4.691406 Z M 2.332031 12.601562 L 2.332031 27.066406 L 0.933594 27.066406 L 0.933594 9.332031 L 2.332031 9.332031 Z M 24.734375 12.132812 L 3.265625 12.132812 L 3.265625 11.199219 L 24.734375 11.199219 Z M 24.734375 10.265625 L 3.265625 10.265625 L 3.265625 9.332031 L 24.734375 9.332031 Z M 27.066406 27.066406 L 25.667969 27.066406 L 25.667969 9.332031 L 27.066406 9.332031 Z M 27.066406 8.398438 L 0.933594 8.398438 L 0.933594 5.464844 L 14 0.960938 L 27.066406 5.464844 Z M 27.066406 8.398438 "/>
<path style=" stroke:none;fill-rule:nonzero;fill:rgb(0%,0%,0%);fill-opacity:1;" d="M 23.074219 20.113281 L 21.347656 19.25 L 19.808594 16.171875 C 19.570312 15.695312 19.085938 15.398438 18.554688 15.398438 L 9.445312 15.398438 C 8.914062 15.398438 8.425781 15.699219 8.191406 16.171875 L 6.652344 19.253906 L 4.925781 20.117188 C 4.765625 20.195312 4.667969 20.355469 4.667969 20.535156 L 4.667969 27.066406 C 4.667969 27.582031 5.085938 28 5.601562 28 L 7.464844 28 C 7.980469 28 8.398438 27.582031 8.398438 27.066406 L 8.398438 25.667969 L 19.601562 25.667969 L 19.601562 27.066406 C 19.601562 27.582031 20.019531 28 20.535156 28 L 22.398438 28 C 22.914062 28 23.332031 27.582031 23.332031 27.066406 L 23.332031 20.535156 C 23.335938 20.355469 23.234375 20.191406 23.074219 20.113281 Z M 9.027344 16.589844 C 9.105469 16.433594 9.265625 16.332031 9.445312 16.332031 L 18.554688 16.332031 C 18.734375 16.332031 18.894531 16.433594 18.972656 16.589844 L 20.246094 19.132812 L 7.753906 19.132812 Z M 7.464844 27.066406 L 5.601562 27.066406 L 5.601562 25.667969 L 7.464844 25.667969 Z M 22.398438 27.066406 L 20.535156 27.066406 L 20.535156 25.667969 L 22.398438 25.667969 Z M 22.398438 24.734375 L 5.601562 24.734375 L 5.601562 20.820312 L 7.109375 20.066406 L 20.890625 20.066406 L 22.398438 20.820312 Z M 22.398438 24.734375 "/>
<path style=" stroke:none;fill-rule:nonzero;fill:rgb(0%,0%,0%);fill-opacity:1;" d="M 8.867188 21 L 7.464844 21 C 6.953125 21 6.535156 21.417969 6.535156 21.933594 L 6.535156 22.867188 C 6.535156 23.382812 6.953125 23.800781 7.464844 23.800781 L 8.867188 23.800781 C 9.382812 23.800781 9.800781 23.382812 9.800781 22.867188 L 9.800781 21.933594 C 9.800781 21.417969 9.382812 21 8.867188 21 Z M 8.867188 22.867188 L 7.464844 22.867188 L 7.464844 21.933594 L 8.867188 21.933594 Z M 8.867188 22.867188 "/>
<path style=" stroke:none;fill-rule:nonzero;fill:rgb(0%,0%,0%);fill-opacity:1;" d="M 20.535156 21 L 19.132812 21 C 18.617188 21 18.199219 21.417969 18.199219 21.933594 L 18.199219 22.867188 C 18.199219 23.382812 18.617188 23.800781 19.132812 23.800781 L 20.535156 23.800781 C 21.046875 23.800781 21.464844 23.382812 21.464844 22.867188 L 21.464844 21.933594 C 21.464844 21.417969 21.046875 21 20.535156 21 Z M 20.535156 22.867188 L 19.132812 22.867188 L 19.132812 21.933594 L 20.535156 21.933594 Z M 20.535156 22.867188 "/>
<path style=" stroke:none;fill-rule:nonzero;fill:rgb(0%,0%,0%);fill-opacity:1;" d="M 16.332031 21 L 11.667969 21 C 11.152344 21 10.734375 21.417969 10.734375 21.933594 L 10.734375 22.867188 C 10.734375 23.382812 11.152344 23.800781 11.667969 23.800781 L 16.332031 23.800781 C 16.847656 23.800781 17.265625 23.382812 17.265625 22.867188 L 17.265625 21.933594 C 17.265625 21.417969 16.847656 21 16.332031 21 Z M 16.332031 22.867188 L 11.667969 22.867188 L 11.667969 21.933594 L 16.332031 21.933594 Z M 16.332031 22.867188 "/>
</g>
</svg>
