<?xml version="1.0" encoding="UTF-8"?>
<svg xmlns="http://www.w3.org/2000/svg" xmlns:xlink="http://www.w3.org/1999/xlink" width="28pt" height="28pt" viewBox="0 0 28 28" version="1.1">
<g id="surface1">
<path style=" stroke:none;fill-rule:nonzero;fill:rgb(0%,0%,0%);fill-opacity:1;" d="M 14 3.265625 L 11.199219 6.066406 L 12.132812 6.066406 C 12.648438 6.066406 13.066406 6.484375 13.066406 7 L 13.066406 10.734375 L 14.933594 10.734375 L 14.933594 7 C 14.933594 6.484375 15.351562 6.066406 15.867188 6.066406 L 16.800781 6.066406 Z M 14 3.265625 "/>
<path style=" stroke:none;fill-rule:nonzero;fill:rgb(0%,0%,0%);fill-opacity:1;" d="M 27.5625 14.402344 L 20.359375 9.890625 C 20.78125 8.984375 21 7.996094 21 7 C 21 3.132812 17.867188 0 14 0 C 10.132812 0 7 3.132812 7 7 C 7 7.996094 7.21875 8.984375 7.640625 9.886719 L 0.4375 14.402344 C 0.167969 14.570312 0 14.871094 0 15.191406 L 0 16.332031 C 0 16.847656 0.417969 17.265625 0.933594 17.265625 L 1.398438 17.265625 L 1.398438 27.066406 C 1.398438 27.582031 1.816406 28 2.332031 28 L 3.265625 28 C 3.78125 28 4.199219 27.582031 4.199219 27.066406 L 4.199219 25.199219 L 6.066406 25.199219 C 6.324219 25.199219 6.535156 24.992188 6.535156 24.734375 C 6.535156 24.476562 6.324219 24.265625 6.066406 24.265625 L 4.199219 24.265625 L 4.199219 23.332031 L 6.066406 23.332031 C 6.324219 23.332031 6.535156 23.125 6.535156 22.867188 C 6.535156 22.609375 6.324219 22.398438 6.066406 22.398438 L 4.199219 22.398438 L 4.199219 21.464844 L 6.066406 21.464844 C 6.324219 21.464844 6.535156 21.257812 6.535156 21 C 6.535156 20.742188 6.324219 20.535156 6.066406 20.535156 L 4.199219 20.535156 L 4.199219 19.601562 L 6.066406 19.601562 C 6.324219 19.601562 6.535156 19.390625 6.535156 19.132812 C 6.535156 18.875 6.324219 18.667969 6.066406 18.667969 L 4.199219 18.667969 L 4.199219 17.734375 L 6.066406 17.734375 C 6.324219 17.734375 6.535156 17.523438 6.535156 17.265625 C 6.535156 17.007812 6.324219 16.800781 6.066406 16.800781 L 4.199219 16.800781 L 4.199219 15.867188 L 23.800781 15.867188 L 23.800781 16.800781 L 7.933594 16.800781 C 7.675781 16.800781 7.464844 17.007812 7.464844 17.265625 C 7.464844 17.523438 7.675781 17.734375 7.933594 17.734375 L 23.800781 17.734375 L 23.800781 18.667969 L 7.933594 18.667969 C 7.675781 18.667969 7.464844 18.875 7.464844 19.132812 C 7.464844 19.390625 7.675781 19.601562 7.933594 19.601562 L 23.800781 19.601562 L 23.800781 20.535156 L 7.933594 20.535156 C 7.675781 20.535156 7.464844 20.742188 7.464844 21 C 7.464844 21.257812 7.675781 21.464844 7.933594 21.464844 L 23.800781 21.464844 L 23.800781 22.398438 L 7.933594 22.398438 C 7.675781 22.398438 7.464844 22.609375 7.464844 22.867188 C 7.464844 23.125 7.675781 23.332031 7.933594 23.332031 L 23.800781 23.332031 L 23.800781 24.265625 L 7.933594 24.265625 C 7.675781 24.265625 7.464844 24.476562 7.464844 24.734375 C 7.464844 24.992188 7.675781 25.199219 7.933594 25.199219 L 23.800781 25.199219 L 23.800781 27.066406 C 23.800781 27.582031 24.21875 28 24.734375 28 L 25.667969 28 C 26.183594 28 26.601562 27.582031 26.601562 27.066406 L 26.601562 17.265625 L 27.066406 17.265625 C 27.582031 17.265625 28 16.847656 28 16.332031 L 28 15.191406 C 28 14.871094 27.832031 14.570312 27.5625 14.402344 Z M 17.664062 6.425781 C 17.519531 6.773438 17.175781 7 16.800781 7 L 15.867188 7 L 15.867188 10.734375 C 15.867188 11.25 15.449219 11.667969 14.933594 11.667969 L 13.066406 11.667969 C 12.550781 11.667969 12.132812 11.25 12.132812 10.734375 L 12.132812 7 L 11.199219 7 C 10.683594 6.996094 10.269531 6.578125 10.269531 6.0625 C 10.273438 5.816406 10.367188 5.582031 10.542969 5.410156 L 13.34375 2.609375 C 13.707031 2.242188 14.296875 2.242188 14.660156 2.609375 C 14.664062 2.609375 14.664062 2.609375 14.664062 2.609375 L 17.460938 5.410156 C 17.730469 5.675781 17.808594 6.078125 17.664062 6.425781 Z M 17.664062 6.425781 "/>
</g>
</svg>
