<?xml version="1.0" encoding="UTF-8"?>
<svg xmlns="http://www.w3.org/2000/svg" xmlns:xlink="http://www.w3.org/1999/xlink" width="28pt" height="28pt" viewBox="0 0 28 28" version="1.1">
<g id="surface1">
<path style=" stroke:none;fill-rule:nonzero;fill:rgb(0%,0%,0%);fill-opacity:1;" d="M 25.808594 10.820312 C 25.808594 10.089844 25.445312 9.410156 24.839844 9.003906 L 15.214844 2.558594 C 14.476562 2.066406 13.519531 2.066406 12.78125 2.558594 L 3.15625 9.003906 C 2.550781 9.410156 2.1875 10.089844 2.1875 10.820312 L 2.1875 26.90625 C 2.1875 27.511719 1.699219 28 1.09375 28 C 0.488281 28 0 27.511719 0 26.90625 L 0 10.820312 C 0 9.359375 0.726562 8 1.941406 7.1875 L 11.566406 0.742188 C 13.042969 -0.246094 14.953125 -0.246094 16.433594 0.742188 L 26.054688 7.1875 C 27.273438 8 27.996094 9.359375 27.996094 10.820312 C 27.996094 11.425781 27.507812 11.914062 26.902344 11.914062 C 26.300781 11.914062 25.808594 11.425781 25.808594 10.820312 Z M 26.902344 15.191406 C 26.300781 15.191406 25.808594 15.683594 25.808594 16.285156 L 25.808594 26.90625 C 25.808594 27.511719 26.300781 28 26.902344 28 C 27.507812 28 27.996094 27.511719 27.996094 26.90625 L 27.996094 16.285156 C 27.996094 15.683594 27.507812 15.191406 26.902344 15.191406 Z M 22.542969 18.296875 C 23.242188 19.023438 23.621094 19.953125 23.621094 20.945312 L 23.621094 26.90625 C 23.621094 27.511719 23.132812 28 22.527344 28 L 19.636719 28 C 19.035156 28 18.542969 27.511719 18.542969 26.90625 L 18.542969 26.359375 L 9.453125 26.359375 L 9.453125 26.90625 C 9.453125 27.511719 8.964844 28 8.359375 28 L 5.46875 28 C 4.863281 28 4.375 27.511719 4.375 26.90625 L 4.375 20.972656 C 4.375 19.964844 4.773438 19.046875 5.433594 18.339844 C 5.449219 18.300781 5.464844 18.261719 5.488281 18.226562 L 7.542969 14.523438 C 8.308594 13.152344 9.808594 12.304688 11.464844 12.304688 L 16.53125 12.304688 C 18.1875 12.304688 19.691406 13.15625 20.453125 14.519531 L 22.523438 18.257812 C 22.53125 18.269531 22.535156 18.285156 22.542969 18.296875 Z M 9.453125 15.585938 L 8.695312 16.953125 L 19.300781 16.953125 L 18.542969 15.585938 C 18.171875 14.921875 17.382812 14.492188 16.53125 14.492188 L 11.464844 14.492188 C 10.613281 14.492188 9.824219 14.921875 9.453125 15.585938 Z M 21.433594 20.945312 C 21.433594 19.949219 20.484375 19.140625 19.3125 19.140625 L 8.683594 19.140625 C 7.515625 19.140625 6.5625 19.960938 6.5625 20.972656 L 6.5625 24.171875 L 10.636719 24.171875 L 11.546875 22.84375 C 11.75 22.546875 12.089844 22.367188 12.449219 22.367188 L 15.589844 22.367188 C 15.941406 22.367188 16.269531 22.535156 16.476562 22.820312 L 17.457031 24.171875 L 21.433594 24.171875 Z M 18.867188 20.617188 C 18.261719 20.617188 17.773438 21.109375 17.773438 21.710938 C 17.773438 22.316406 18.261719 22.804688 18.867188 22.804688 C 19.46875 22.804688 19.960938 22.316406 19.960938 21.710938 C 19.960938 21.109375 19.46875 20.617188 18.867188 20.617188 Z M 9.078125 20.617188 C 8.472656 20.617188 7.984375 21.109375 7.984375 21.710938 C 7.984375 22.316406 8.472656 22.804688 9.078125 22.804688 C 9.679688 22.804688 10.171875 22.316406 10.171875 21.710938 C 10.171875 21.109375 9.679688 20.617188 9.078125 20.617188 Z M 9.078125 20.617188 "/>
</g>
</svg>
