<?xml version="1.0" encoding="UTF-8"?>
<svg xmlns="http://www.w3.org/2000/svg" xmlns:xlink="http://www.w3.org/1999/xlink" width="28pt" height="28pt" viewBox="0 0 28 28" version="1.1">
<g id="surface1">
<path style=" stroke:none;fill-rule:nonzero;fill:rgb(0%,0%,0%);fill-opacity:1;" d="M 4.058594 20.476562 L 23.941406 20.476562 L 23.941406 23.417969 L 4.058594 23.417969 Z M 4.058594 20.476562 "/>
<path style=" stroke:none;fill-rule:nonzero;fill:rgb(0%,0%,0%);fill-opacity:1;" d="M 4.058594 16.417969 L 23.941406 16.417969 L 23.941406 19.355469 L 4.058594 19.355469 Z M 4.058594 16.417969 "/>
<path style=" stroke:none;fill-rule:nonzero;fill:rgb(0%,0%,0%);fill-opacity:1;" d="M 4.058594 24.535156 L 23.941406 24.535156 L 23.941406 27.6875 L 4.058594 27.6875 Z M 4.058594 24.535156 "/>
<path style=" stroke:none;fill-rule:nonzero;fill:rgb(0%,0%,0%);fill-opacity:1;" d="M 14 0.3125 L 0 8.097656 L 0 27.6875 L 2.941406 27.6875 L 2.941406 11.816406 C 2.941406 11.507812 3.167969 11.234375 3.476562 11.234375 L 24.523438 11.234375 C 24.832031 11.234375 25.058594 11.507812 25.058594 11.816406 L 25.058594 27.6875 L 28 27.6875 L 28 8.097656 Z M 14 0.3125 "/>
<path style=" stroke:none;fill-rule:nonzero;fill:rgb(0%,0%,0%);fill-opacity:1;" d="M 4.058594 12.355469 L 23.941406 12.355469 L 23.941406 15.296875 L 4.058594 15.296875 Z M 4.058594 12.355469 "/>
</g>
</svg>
