<?xml version="1.0" encoding="UTF-8"?>
<svg xmlns="http://www.w3.org/2000/svg" xmlns:xlink="http://www.w3.org/1999/xlink" width="28pt" height="28pt" viewBox="0 0 28 28" version="1.1">
<g id="surface1">
<path style=" stroke:none;fill-rule:nonzero;fill:rgb(0%,0%,0%);fill-opacity:1;" d="M 20.632812 24.355469 C 21.214844 15.019531 24.757812 7.644531 24.757812 7.644531 C 17.746094 11.582031 16.46875 21.25 16.242188 25.195312 C 16.570312 11.167969 20.777344 1.085938 20.777344 1.085938 C 12.523438 8.105469 11.863281 21.855469 11.851562 25.820312 C 11.726562 22.386719 10.722656 11.808594 3.308594 7.644531 C 3.308594 7.644531 7.101562 15.546875 7.484375 25.347656 C 7.273438 22.710938 6.070312 17.492188 0 15.652344 C 0 15.652344 3.152344 19.40625 3.152344 26.914062 L 24.847656 26.914062 C 24.847656 19.40625 28 15.652344 28 15.652344 C 22.621094 17.28125 21.0625 21.566406 20.632812 24.355469 Z M 20.632812 24.355469 "/>
</g>
</svg>
