<?xml version="1.0" encoding="UTF-8"?>
<svg xmlns="http://www.w3.org/2000/svg" xmlns:xlink="http://www.w3.org/1999/xlink" width="28pt" height="28pt" viewBox="0 0 28 28" version="1.1">
<g id="surface1">
<path style=" stroke:none;fill-rule:nonzero;fill:rgb(0%,0%,0%);fill-opacity:1;" d="M 22.796875 16.011719 C 22.054688 15.757812 21.386719 15.632812 20.78125 15.644531 C 20.179688 15.65625 19.566406 15.761719 18.945312 15.957031 C 18.328125 16.15625 17.808594 16.375 17.394531 16.613281 C 16.976562 16.851562 16.574219 17.125 16.183594 17.433594 C 15.792969 17.738281 15.535156 17.953125 15.410156 18.074219 C 15.285156 18.191406 15.191406 18.289062 15.128906 18.363281 C 15.648438 16.945312 16.03125 15.472656 16.269531 13.941406 L 16.535156 13.988281 C 16.710938 14.019531 16.953125 14.042969 17.261719 14.058594 C 17.566406 14.074219 17.917969 14.082031 18.316406 14.074219 C 18.710938 14.070312 19.125 14.019531 19.5625 13.925781 C 20 13.832031 20.441406 13.710938 20.882812 13.554688 C 21.328125 13.398438 21.75 13.160156 22.15625 12.84375 C 22.5625 12.523438 22.921875 12.152344 23.242188 11.726562 C 23.558594 11.300781 23.820312 10.753906 24.023438 10.09375 C 24.226562 9.433594 24.335938 8.695312 24.359375 7.886719 C 23.648438 7.644531 22.960938 7.519531 22.289062 7.511719 C 21.617188 7.5 21.035156 7.574219 20.539062 7.738281 C 20.046875 7.898438 19.570312 8.128906 19.109375 8.433594 C 18.652344 8.734375 18.285156 9.023438 18.003906 9.296875 C 17.722656 9.574219 17.457031 9.875 17.214844 10.203125 C 16.96875 10.53125 16.8125 10.753906 16.738281 10.875 C 16.664062 10.996094 16.613281 11.089844 16.582031 11.164062 C 16.59375 10.894531 16.597656 10.519531 16.597656 10.046875 C 16.597656 9.574219 16.59375 9.3125 16.582031 9.257812 L 16.691406 9.023438 C 16.773438 8.867188 16.863281 8.648438 16.957031 8.367188 C 17.050781 8.085938 17.148438 7.765625 17.253906 7.402344 C 17.359375 7.035156 17.425781 6.636719 17.457031 6.207031 C 17.488281 5.773438 17.492188 5.328125 17.464844 4.871094 C 17.4375 4.414062 17.332031 3.949219 17.144531 3.480469 C 16.957031 3.011719 16.707031 2.570312 16.394531 2.15625 C 16.082031 1.738281 15.644531 1.339844 15.074219 0.960938 C 14.507812 0.582031 13.84375 0.261719 13.085938 0 C 12.554688 0.707031 12.191406 1.429688 11.992188 2.164062 C 11.792969 2.894531 11.730469 3.558594 11.804688 4.144531 C 11.878906 4.734375 12.050781 5.320312 12.320312 5.902344 C 12.589844 6.484375 12.871094 6.96875 13.164062 7.355469 C 13.453125 7.738281 13.785156 8.109375 14.152344 8.46875 C 14.523438 8.828125 14.777344 9.0625 14.917969 9.164062 C 15.058594 9.269531 15.171875 9.351562 15.253906 9.414062 C 15.253906 10.175781 15.191406 11.191406 15.066406 12.460938 L 15.003906 12.210938 C 14.953125 12.054688 14.871094 11.847656 14.753906 11.59375 C 14.640625 11.339844 14.496094 11.046875 14.324219 10.71875 C 14.152344 10.390625 13.933594 10.0625 13.671875 9.734375 C 13.40625 9.40625 13.113281 9.089844 12.796875 8.78125 C 12.480469 8.476562 12.097656 8.214844 11.648438 8.003906 C 11.199219 7.789062 10.722656 7.632812 10.210938 7.535156 C 9.703125 7.433594 9.117188 7.429688 8.457031 7.519531 C 7.792969 7.605469 7.097656 7.796875 6.371094 8.089844 C 6.433594 8.816406 6.582031 9.480469 6.816406 10.078125 C 7.050781 10.675781 7.332031 11.167969 7.667969 11.554688 C 8 11.9375 8.390625 12.277344 8.835938 12.570312 C 9.285156 12.859375 9.722656 13.082031 10.148438 13.234375 C 10.574219 13.382812 11.035156 13.503906 11.53125 13.589844 C 12.027344 13.679688 12.449219 13.730469 12.804688 13.746094 C 13.15625 13.761719 13.519531 13.765625 13.886719 13.753906 C 14.257812 13.746094 14.5 13.730469 14.613281 13.714844 C 14.730469 13.699219 14.824219 13.6875 14.894531 13.675781 C 14.625 15.34375 14.214844 16.859375 13.664062 18.222656 C 13.402344 17.761719 13.109375 17.335938 12.78125 16.941406 C 12.453125 16.546875 11.992188 16.144531 11.398438 15.738281 C 10.804688 15.332031 10.15625 15.039062 9.453125 14.855469 C 8.75 14.675781 7.878906 14.636719 6.839844 14.738281 C 5.796875 14.84375 4.683594 15.140625 3.496094 15.628906 C 3.839844 16.492188 4.230469 17.253906 4.660156 17.910156 C 5.09375 18.566406 5.53125 19.085938 5.980469 19.46875 C 6.429688 19.855469 6.90625 20.164062 7.417969 20.390625 C 7.925781 20.621094 8.410156 20.769531 8.867188 20.835938 C 9.328125 20.90625 9.800781 20.917969 10.289062 20.875 C 10.777344 20.832031 11.210938 20.765625 11.585938 20.671875 C 11.960938 20.578125 12.335938 20.460938 12.710938 20.3125 C 11.648438 22.269531 10.339844 23.804688 8.78125 24.910156 C 7.226562 26.019531 5.546875 26.578125 3.746094 26.589844 C 3.550781 26.589844 3.382812 26.65625 3.246094 26.785156 C 3.113281 26.914062 3.042969 27.078125 3.042969 27.277344 C 3.042969 27.476562 3.113281 27.640625 3.246094 27.777344 C 3.382812 27.910156 3.550781 27.980469 3.746094 27.980469 C 5.914062 27.96875 7.914062 27.28125 9.75 25.910156 C 11.589844 24.542969 13.09375 22.671875 14.269531 20.296875 L 14.535156 20.453125 C 14.703125 20.558594 14.941406 20.675781 15.253906 20.804688 C 15.566406 20.933594 15.929688 21.078125 16.339844 21.234375 C 16.75 21.390625 17.199219 21.503906 17.691406 21.578125 C 18.179688 21.652344 18.683594 21.695312 19.195312 21.710938 C 19.710938 21.726562 20.242188 21.652344 20.78125 21.484375 C 21.324219 21.316406 21.839844 21.074219 22.328125 20.757812 C 22.816406 20.441406 23.289062 19.980469 23.75 19.375 C 24.207031 18.773438 24.601562 18.054688 24.933594 17.222656 C 24.246094 16.671875 23.535156 16.265625 22.796875 16.011719 Z M 22.796875 16.011719 "/>
</g>
</svg>
