<?xml version="1.0" encoding="UTF-8"?>
<svg xmlns="http://www.w3.org/2000/svg" xmlns:xlink="http://www.w3.org/1999/xlink" width="28pt" height="28pt" viewBox="0 0 28 28" version="1.1">
<g id="surface1">
<path style=" stroke:none;fill-rule:nonzero;fill:rgb(0%,0%,0%);fill-opacity:1;" d="M 27.460938 7.691406 C 27.800781 7.132812 28 6.480469 28 5.78125 C 28 3.769531 26.363281 2.128906 24.347656 2.128906 C 22.335938 2.128906 20.695312 3.769531 20.695312 5.78125 C 20.695312 6.480469 20.894531 7.132812 21.234375 7.691406 C 20.917969 7.832031 20.695312 8.152344 20.695312 8.523438 L 20.695312 9.046875 C 20.15625 8.8125 19.429688 8.535156 18.566406 8.285156 L 18.566406 7.160156 C 18.566406 6.65625 18.15625 6.246094 17.652344 6.246094 C 17.148438 6.246094 16.738281 6.65625 16.738281 7.160156 L 16.738281 7.859375 C 16.160156 7.753906 15.550781 7.675781 14.914062 7.636719 L 14.914062 4.871094 C 14.914062 4.367188 14.503906 3.957031 14 3.957031 C 13.496094 3.957031 13.085938 4.367188 13.085938 4.871094 L 13.085938 7.636719 C 12.449219 7.675781 11.839844 7.753906 11.261719 7.859375 L 11.261719 7.160156 C 11.261719 6.65625 10.851562 6.246094 10.347656 6.246094 C 9.84375 6.246094 9.433594 6.65625 9.433594 7.160156 L 9.433594 8.285156 C 8.570312 8.535156 7.84375 8.8125 7.304688 9.046875 L 7.304688 8.523438 C 7.304688 8.152344 7.082031 7.832031 6.765625 7.691406 C 7.105469 7.132812 7.304688 6.480469 7.304688 5.78125 C 7.304688 3.769531 5.664062 2.128906 3.652344 2.128906 C 1.636719 2.128906 0 3.769531 0 5.78125 C 0 6.480469 0.199219 7.132812 0.539062 7.691406 C 0.222656 7.832031 0 8.152344 0 8.523438 L 0 24.957031 C 0 25.460938 0.410156 25.871094 0.914062 25.871094 L 6.390625 25.871094 C 6.894531 25.871094 7.304688 25.460938 7.304688 24.957031 L 7.304688 24.042969 L 20.695312 24.042969 L 20.695312 24.957031 C 20.695312 25.460938 21.105469 25.871094 21.609375 25.871094 L 27.085938 25.871094 C 27.589844 25.871094 28 25.460938 28 24.957031 L 28 8.523438 C 28 8.152344 27.777344 7.832031 27.460938 7.691406 Z M 5.476562 24.042969 L 1.824219 24.042969 L 1.824219 9.433594 L 5.476562 9.433594 C 5.476562 9.925781 5.476562 23.136719 5.476562 24.042969 Z M 3.652344 7.609375 C 2.644531 7.609375 1.824219 6.789062 1.824219 5.78125 C 1.824219 4.777344 2.644531 3.957031 3.652344 3.957031 C 4.660156 3.957031 5.476562 4.777344 5.476562 5.78125 C 5.476562 6.789062 4.660156 7.609375 3.652344 7.609375 Z M 9.433594 22.21875 L 7.304688 22.21875 L 7.304688 11.058594 C 7.621094 10.898438 8.382812 10.539062 9.433594 10.195312 Z M 13.085938 22.21875 L 11.261719 22.21875 L 11.261719 9.71875 C 11.832031 9.601562 12.445312 9.511719 13.085938 9.46875 Z M 16.738281 22.21875 L 14.914062 22.21875 L 14.914062 9.46875 C 15.550781 9.511719 16.164062 9.601562 16.738281 9.71875 Z M 20.695312 22.21875 L 18.566406 22.21875 L 18.566406 10.199219 C 19.617188 10.539062 20.378906 10.898438 20.695312 11.058594 Z M 26.175781 24.042969 L 22.523438 24.042969 C 22.523438 23.140625 22.523438 9.925781 22.523438 9.433594 L 26.175781 9.433594 Z M 24.347656 7.609375 C 23.339844 7.609375 22.523438 6.789062 22.523438 5.78125 C 22.523438 4.777344 23.339844 3.957031 24.347656 3.957031 C 25.355469 3.957031 26.175781 4.777344 26.175781 5.78125 C 26.175781 6.789062 25.355469 7.609375 24.347656 7.609375 Z M 24.347656 7.609375 "/>
</g>
</svg>
