<?xml version="1.0" encoding="UTF-8"?>
<svg xmlns="http://www.w3.org/2000/svg" xmlns:xlink="http://www.w3.org/1999/xlink" width="28pt" height="28pt" viewBox="0 0 28 28" version="1.1">
<g id="surface1">
<path style=" stroke:none;fill-rule:nonzero;fill:rgb(0%,0%,0%);fill-opacity:1;" d="M 27.421875 20.402344 L 26.941406 20.402344 L 26.941406 8.386719 C 27.230469 8.195312 27.421875 7.871094 27.421875 7.5 C 27.421875 6.914062 26.945312 6.441406 26.359375 6.441406 C 25.773438 6.441406 25.300781 6.914062 25.300781 7.5 C 25.300781 7.871094 25.492188 8.195312 25.78125 8.386719 L 25.78125 8.929688 L 14.578125 8.929688 L 14.578125 8.386719 C 14.867188 8.195312 15.058594 7.871094 15.058594 7.5 C 15.058594 6.914062 14.585938 6.441406 14 6.441406 C 13.414062 6.441406 12.941406 6.914062 12.941406 7.5 C 12.941406 7.871094 13.132812 8.195312 13.421875 8.386719 L 13.421875 8.929688 L 2.21875 8.929688 L 2.21875 8.386719 C 2.507812 8.195312 2.699219 7.871094 2.699219 7.5 C 2.699219 6.914062 2.226562 6.441406 1.640625 6.441406 C 1.054688 6.441406 0.578125 6.914062 0.578125 7.5 C 0.578125 7.871094 0.769531 8.195312 1.058594 8.386719 L 1.058594 20.402344 L 0.578125 20.402344 C 0.257812 20.402344 0 20.660156 0 20.980469 C 0 21.300781 0.257812 21.558594 0.578125 21.558594 L 27.421875 21.558594 C 27.742188 21.558594 28 21.300781 28 20.980469 C 28 20.660156 27.742188 20.402344 27.421875 20.402344 Z M 6.078125 10.089844 L 9.171875 10.089844 L 9.171875 20.269531 C 9.171875 20.316406 9.175781 20.359375 9.1875 20.402344 L 6.0625 20.402344 C 6.074219 20.359375 6.078125 20.316406 6.078125 20.269531 Z M 10.328125 20.269531 L 10.328125 10.089844 L 13.421875 10.089844 L 13.421875 20.269531 C 13.421875 20.316406 13.425781 20.359375 13.4375 20.402344 L 10.3125 20.402344 C 10.324219 20.359375 10.328125 20.3125 10.328125 20.269531 Z M 14.578125 20.269531 L 14.578125 10.089844 L 17.671875 10.089844 L 17.671875 20.269531 C 17.671875 20.316406 17.675781 20.359375 17.6875 20.402344 L 14.5625 20.402344 C 14.574219 20.359375 14.578125 20.3125 14.578125 20.269531 Z M 18.828125 20.269531 L 18.828125 10.089844 L 21.921875 10.089844 L 21.921875 20.269531 C 21.921875 20.316406 21.925781 20.359375 21.9375 20.402344 L 18.8125 20.402344 C 18.824219 20.359375 18.828125 20.3125 18.828125 20.269531 Z M 2.21875 10.089844 L 4.917969 10.089844 L 4.917969 20.269531 C 4.917969 20.316406 4.925781 20.359375 4.9375 20.402344 L 2.21875 20.402344 Z M 23.0625 20.402344 C 23.074219 20.359375 23.082031 20.316406 23.082031 20.269531 L 23.082031 10.089844 L 25.78125 10.089844 L 25.78125 20.402344 Z M 23.0625 20.402344 "/>
</g>
</svg>
