<?xml version="1.0" encoding="UTF-8"?>
<svg xmlns="http://www.w3.org/2000/svg" xmlns:xlink="http://www.w3.org/1999/xlink" width="28pt" height="28pt" viewBox="0 0 28 28" version="1.1">
<g id="surface1">
<path style=" stroke:none;fill-rule:nonzero;fill:rgb(0%,0%,0%);fill-opacity:1;" d="M 27.453125 9.734375 C 27.753906 9.734375 28 9.488281 28 9.1875 L 28 7 C 28 6.699219 27.753906 6.453125 27.453125 6.453125 L 26.878906 6.453125 C 27.203125 6.007812 27.398438 5.460938 27.398438 4.867188 C 27.398438 3.390625 26.195312 2.1875 24.71875 2.1875 C 23.242188 2.1875 22.039062 3.390625 22.039062 4.867188 C 22.039062 5.460938 22.234375 6.007812 22.558594 6.453125 L 21.984375 6.453125 C 21.683594 6.453125 21.4375 6.699219 21.4375 7 L 21.4375 9.1875 C 21.4375 9.488281 21.683594 9.734375 21.984375 9.734375 L 22.203125 9.734375 L 22.203125 10.792969 L 21.308594 10.515625 C 20.367188 10.222656 19.53125 9.617188 18.960938 8.816406 C 17.90625 7.335938 16.191406 6.453125 14.375 6.453125 L 13.640625 6.453125 C 11.824219 6.453125 10.109375 7.335938 9.054688 8.816406 C 8.480469 9.617188 7.648438 10.222656 6.707031 10.515625 L 5.796875 10.796875 L 5.796875 9.734375 L 6.015625 9.734375 C 6.316406 9.734375 6.5625 9.488281 6.5625 9.1875 L 6.5625 7 C 6.5625 6.699219 6.316406 6.453125 6.015625 6.453125 L 5.441406 6.453125 C 5.765625 6.007812 5.960938 5.460938 5.960938 4.867188 C 5.960938 3.390625 4.757812 2.1875 3.28125 2.1875 C 1.804688 2.1875 0.601562 3.390625 0.601562 4.867188 C 0.601562 5.460938 0.796875 6.007812 1.121094 6.453125 L 0.546875 6.453125 C 0.246094 6.453125 0 6.699219 0 7 L 0 9.1875 C 0 9.488281 0.246094 9.734375 0.546875 9.734375 L 0.765625 9.734375 L 0.765625 22.53125 L 0.546875 22.53125 C 0.246094 22.53125 0 22.777344 0 23.078125 L 0 25.265625 C 0 25.566406 0.246094 25.8125 0.546875 25.8125 L 6.015625 25.8125 C 6.316406 25.8125 6.5625 25.566406 6.5625 25.265625 L 6.5625 23.625 L 21.4375 23.625 L 21.4375 25.265625 C 21.4375 25.566406 21.683594 25.8125 21.984375 25.8125 L 27.453125 25.8125 C 27.753906 25.8125 28 25.566406 28 25.265625 L 28 23.078125 C 28 22.777344 27.753906 22.53125 27.453125 22.53125 L 27.234375 22.53125 L 27.234375 9.734375 Z M 23.132812 4.867188 C 23.132812 3.992188 23.84375 3.28125 24.71875 3.28125 C 25.59375 3.28125 26.304688 3.992188 26.304688 4.867188 C 26.304688 5.742188 25.59375 6.453125 24.71875 6.453125 C 23.84375 6.453125 23.132812 5.742188 23.132812 4.867188 Z M 22.53125 7.546875 L 26.90625 7.546875 L 26.90625 8.640625 L 22.53125 8.640625 Z M 7.03125 11.558594 C 8.199219 11.195312 9.234375 10.445312 9.945312 9.449219 C 10.757812 8.308594 12.0625 7.605469 13.460938 7.550781 L 13.460938 12.578125 C 13.460938 12.878906 13.703125 13.125 14.007812 13.125 C 14.308594 13.125 14.554688 12.878906 14.554688 12.578125 L 14.554688 7.550781 C 15.949219 7.605469 17.253906 8.308594 18.070312 9.449219 C 18.78125 10.445312 19.816406 11.195312 20.984375 11.558594 L 22.203125 11.9375 L 22.203125 22.53125 L 14.554688 22.53125 L 14.554688 17.5 C 14.554688 17.199219 14.308594 16.953125 14.007812 16.953125 C 13.703125 16.953125 13.460938 17.199219 13.460938 17.5 L 13.460938 22.53125 L 5.796875 22.53125 L 5.796875 11.941406 Z M 1.695312 4.867188 C 1.695312 3.992188 2.40625 3.28125 3.28125 3.28125 C 4.15625 3.28125 4.867188 3.992188 4.867188 4.867188 C 4.867188 5.742188 4.15625 6.453125 3.28125 6.453125 C 2.40625 6.453125 1.695312 5.742188 1.695312 4.867188 Z M 1.09375 7.546875 L 5.46875 7.546875 L 5.46875 8.640625 L 1.09375 8.640625 Z M 1.859375 9.734375 L 4.703125 9.734375 L 4.703125 22.53125 L 1.859375 22.53125 Z M 5.46875 24.71875 L 1.09375 24.71875 L 1.09375 23.625 L 5.46875 23.625 Z M 26.90625 24.71875 L 22.53125 24.71875 L 22.53125 23.625 L 26.90625 23.625 Z M 26.140625 22.53125 L 23.296875 22.53125 L 23.296875 9.734375 L 26.140625 9.734375 Z M 26.140625 22.53125 "/>
<path style=" stroke:none;fill-rule:nonzero;fill:rgb(0%,0%,0%);fill-opacity:1;" d="M 14.007812 15.585938 C 14.152344 15.585938 14.292969 15.527344 14.394531 15.425781 C 14.496094 15.324219 14.554688 15.183594 14.554688 15.039062 C 14.554688 14.894531 14.496094 14.753906 14.394531 14.652344 C 14.292969 14.550781 14.152344 14.492188 14.007812 14.492188 C 13.863281 14.492188 13.722656 14.550781 13.621094 14.652344 C 13.519531 14.753906 13.460938 14.894531 13.460938 15.039062 C 13.460938 15.183594 13.519531 15.324219 13.621094 15.425781 C 13.722656 15.527344 13.863281 15.585938 14.007812 15.585938 Z M 14.007812 15.585938 "/>
</g>
</svg>
