<?xml version="1.0" encoding="UTF-8"?>
<svg xmlns="http://www.w3.org/2000/svg" xmlns:xlink="http://www.w3.org/1999/xlink" width="28pt" height="28pt" viewBox="0 0 28 28" version="1.1">
<g id="surface1">
<path style=" stroke:none;fill-rule:nonzero;fill:rgb(0%,0%,0%);fill-opacity:1;" d="M 25.265625 12.359375 C 24.964844 12.359375 24.71875 12.605469 24.71875 12.90625 C 24.71875 13.207031 24.964844 13.453125 25.265625 13.453125 C 25.566406 13.453125 25.8125 13.207031 25.8125 12.90625 C 25.8125 12.605469 25.566406 12.359375 25.265625 12.359375 Z M 25.265625 12.359375 "/>
<path style=" stroke:none;fill-rule:nonzero;fill:rgb(0%,0%,0%);fill-opacity:1;" d="M 2.734375 12.359375 C 2.433594 12.359375 2.1875 12.605469 2.1875 12.90625 C 2.1875 13.207031 2.433594 13.453125 2.734375 13.453125 C 3.035156 13.453125 3.28125 13.207031 3.28125 12.90625 C 3.28125 12.605469 3.035156 12.359375 2.734375 12.359375 Z M 2.734375 12.359375 "/>
<path style=" stroke:none;fill-rule:nonzero;fill:rgb(0%,0%,0%);fill-opacity:1;" d="M 27.453125 6.890625 C 27.796875 6.433594 28 5.863281 28 5.25 C 28 3.742188 26.773438 2.515625 25.265625 2.515625 C 23.757812 2.515625 22.53125 3.742188 22.53125 5.25 C 22.53125 5.863281 22.734375 6.433594 23.078125 6.890625 C 22.777344 6.890625 22.53125 7.136719 22.53125 7.4375 L 22.53125 10.171875 C 22.125 10.175781 21.59375 10.175781 21.273438 10.179688 L 21.273438 9.113281 C 21.273438 8.8125 21.027344 8.566406 20.726562 8.566406 C 20.425781 8.566406 20.179688 8.8125 20.179688 9.113281 L 20.179688 9.792969 C 20.128906 9.738281 20.074219 9.679688 20.019531 9.613281 C 19.433594 8.917969 18.679688 8.316406 17.828125 7.859375 L 17.828125 6.664062 C 17.828125 6.359375 17.582031 6.117188 17.28125 6.117188 C 16.980469 6.117188 16.734375 6.359375 16.734375 6.664062 L 16.734375 7.371094 C 16.027344 7.117188 15.289062 6.960938 14.546875 6.910156 L 14.546875 5.25 C 14.546875 4.949219 14.300781 4.703125 14 4.703125 C 13.699219 4.703125 13.453125 4.949219 13.453125 5.25 L 13.453125 6.910156 C 12.710938 6.960938 11.972656 7.117188 11.265625 7.371094 L 11.265625 6.570312 C 11.265625 6.269531 11.019531 6.023438 10.71875 6.023438 C 10.417969 6.023438 10.171875 6.269531 10.171875 6.570312 L 10.171875 7.859375 C 9.308594 8.320312 8.546875 8.933594 7.953125 9.644531 C 7.914062 9.695312 7.867188 9.742188 7.820312 9.785156 L 7.820312 9.113281 C 7.820312 8.8125 7.574219 8.566406 7.273438 8.566406 C 6.972656 8.566406 6.726562 8.8125 6.726562 9.113281 L 6.726562 10.226562 C 6.496094 10.230469 5.910156 10.230469 5.46875 10.230469 L 5.46875 7.4375 C 5.46875 7.136719 5.222656 6.890625 4.921875 6.890625 C 5.265625 6.433594 5.46875 5.863281 5.46875 5.25 C 5.46875 3.742188 4.242188 2.515625 2.734375 2.515625 C 1.226562 2.515625 0 3.742188 0 5.25 C 0 5.863281 0.203125 6.433594 0.546875 6.890625 C 0.246094 6.890625 0 7.136719 0 7.4375 L 0 24.9375 C 0 25.238281 0.246094 25.484375 0.546875 25.484375 L 4.921875 25.484375 C 5.222656 25.484375 5.46875 25.238281 5.46875 24.9375 L 5.46875 24.335938 L 22.53125 24.335938 L 22.53125 24.9375 C 22.53125 25.238281 22.777344 25.484375 23.078125 25.484375 L 27.453125 25.484375 C 27.753906 25.484375 28 25.238281 28 24.9375 L 28 7.4375 C 28 7.136719 27.753906 6.890625 27.453125 6.890625 Z M 4.375 24.390625 L 1.09375 24.390625 L 1.09375 7.984375 L 2.1875 7.984375 L 2.1875 10.71875 C 2.1875 11.019531 2.433594 11.265625 2.734375 11.265625 C 3.035156 11.265625 3.28125 11.019531 3.28125 10.71875 L 3.28125 7.984375 L 4.375 7.984375 Z M 2.734375 6.890625 C 1.828125 6.890625 1.09375 6.15625 1.09375 5.25 C 1.09375 4.34375 1.828125 3.609375 2.734375 3.609375 C 3.640625 3.609375 4.375 4.34375 4.375 5.25 C 4.375 6.15625 3.640625 6.890625 2.734375 6.890625 Z M 6.726562 23.242188 L 5.46875 23.242188 L 5.46875 22.203125 L 6.726562 22.203125 Z M 6.726562 21.109375 L 5.46875 21.109375 L 5.46875 13.507812 L 6.726562 13.507812 Z M 6.726562 12.414062 L 5.46875 12.414062 L 5.46875 11.324219 C 5.675781 11.324219 5.917969 11.324219 6.136719 11.324219 C 6.378906 11.324219 6.59375 11.324219 6.726562 11.320312 Z M 10.171875 23.242188 L 7.820312 23.242188 L 7.820312 22.203125 L 10.171875 22.203125 Z M 10.171875 15.09375 L 10.171875 21.109375 L 7.820312 21.109375 L 7.820312 13.386719 C 8.703125 13.195312 9.53125 12.785156 10.171875 12.222656 Z M 10.171875 10.640625 C 10.042969 10.769531 9.917969 10.902344 9.800781 11.046875 C 9.332031 11.601562 8.609375 12.042969 7.820312 12.261719 L 7.820312 11.082031 C 8.195312 10.914062 8.53125 10.660156 8.792969 10.347656 C 9.175781 9.886719 9.644531 9.476562 10.171875 9.128906 Z M 11.265625 8.546875 C 11.964844 8.25 12.707031 8.066406 13.453125 8.007812 L 13.453125 9.105469 C 12.679688 9.183594 11.933594 9.425781 11.265625 9.8125 Z M 11.265625 11.132812 C 11.898438 10.625 12.652344 10.308594 13.453125 10.207031 L 13.453125 14.546875 L 11.265625 14.546875 Z M 13.453125 23.242188 L 11.265625 23.242188 L 11.265625 22.203125 L 13.453125 22.203125 Z M 13.453125 21.109375 L 11.265625 21.109375 L 11.265625 17.828125 L 13.453125 17.828125 Z M 16.734375 23.242188 L 14.546875 23.242188 L 14.546875 22.203125 L 16.734375 22.203125 Z M 16.734375 21.109375 L 14.546875 21.109375 L 14.546875 17.828125 L 16.734375 17.828125 Z M 16.734375 16.734375 L 11.265625 16.734375 L 11.265625 15.640625 L 16.734375 15.640625 Z M 16.734375 14.546875 L 14.546875 14.546875 L 14.546875 10.207031 C 15.347656 10.308594 16.101562 10.625 16.734375 11.132812 Z M 16.734375 9.8125 C 16.066406 9.425781 15.320312 9.183594 14.546875 9.105469 L 14.546875 8.007812 C 15.292969 8.066406 16.035156 8.25 16.734375 8.546875 Z M 20.179688 23.242188 L 17.828125 23.242188 L 17.828125 22.203125 L 20.179688 22.203125 Z M 20.179688 21.109375 L 17.828125 21.109375 L 17.828125 12.214844 C 18.46875 12.769531 19.285156 13.164062 20.179688 13.34375 Z M 20.179688 12.21875 C 19.378906 12.011719 18.65625 11.585938 18.183594 11.023438 C 18.070312 10.890625 17.953125 10.765625 17.828125 10.640625 L 17.828125 9.128906 C 18.347656 9.46875 18.804688 9.871094 19.183594 10.320312 C 19.4375 10.621094 19.75 10.933594 20.179688 11.117188 Z M 22.53125 23.242188 L 21.273438 23.242188 L 21.273438 22.203125 L 22.53125 22.203125 Z M 22.53125 21.109375 L 21.273438 21.109375 L 21.273438 13.453125 L 22.53125 13.453125 Z M 22.53125 12.359375 L 21.273438 12.359375 L 21.273438 11.273438 C 21.585938 11.269531 22.121094 11.269531 22.53125 11.265625 Z M 26.90625 24.390625 L 23.625 24.390625 L 23.625 7.984375 L 24.71875 7.984375 L 24.71875 10.71875 C 24.71875 11.019531 24.964844 11.265625 25.265625 11.265625 C 25.566406 11.265625 25.8125 11.019531 25.8125 10.71875 L 25.8125 7.984375 L 26.90625 7.984375 Z M 25.265625 6.890625 C 24.359375 6.890625 23.625 6.15625 23.625 5.25 C 23.625 4.34375 24.359375 3.609375 25.265625 3.609375 C 26.171875 3.609375 26.90625 4.34375 26.90625 5.25 C 26.90625 6.15625 26.171875 6.890625 25.265625 6.890625 Z M 25.265625 6.890625 "/>
</g>
</svg>
