<?xml version="1.0" encoding="UTF-8"?>
<svg xmlns="http://www.w3.org/2000/svg" xmlns:xlink="http://www.w3.org/1999/xlink" width="28pt" height="28pt" viewBox="0 0 28 28" version="1.1">
<g id="surface1">
<path style=" stroke:none;fill-rule:nonzero;fill:rgb(1.176471%,0.392157%,1.568627%);fill-opacity:1;" d="M 26.769531 26.175781 L 26.769531 15.175781 L 27.226562 15.175781 L 27.226562 12.089844 L 26.605469 12.089844 L 26.605469 10.996094 L 26.804688 10.996094 L 26.804688 10.5625 L 20.519531 10.5625 L 20.519531 9.675781 L 17.875 9.675781 C 17.894531 9.585938 17.828125 9.40625 17.847656 9.292969 C 17.875 9.105469 17.863281 8.984375 17.859375 8.800781 C 17.859375 8.710938 18.089844 8.09375 18.25 8.246094 C 18.21875 8.316406 18.054688 8.476562 18.226562 8.464844 C 18.386719 8.457031 18.464844 8.4375 18.578125 8.332031 C 18.652344 8.441406 18.757812 8.425781 18.800781 8.585938 C 18.847656 8.757812 18.746094 8.925781 18.777344 9.09375 C 18.800781 9.214844 18.574219 9.292969 18.65625 9.480469 C 18.75 9.699219 18.898438 9.492188 18.949219 9.386719 C 19.015625 9.242188 18.96875 8.984375 18.976562 8.828125 C 18.980469 8.691406 19.035156 8.515625 19.019531 8.386719 C 19.015625 8.324219 18.984375 8.242188 18.976562 8.195312 C 18.957031 8.195312 18.851562 8.152344 18.84375 8.132812 C 18.746094 8.164062 18.804688 7.890625 18.804688 7.878906 C 18.800781 7.644531 19.019531 7.347656 18.785156 7.1875 C 18.730469 7.148438 18.730469 7 18.691406 6.9375 C 18.507812 6.867188 18.863281 6.675781 18.875 6.664062 C 18.925781 6.621094 19.21875 6.496094 19.113281 6.351562 C 19.011719 6.222656 19.09375 6.09375 19.085938 5.953125 C 19.085938 5.882812 19.152344 5.820312 19.160156 5.75 C 19.15625 5.695312 19.132812 5.648438 19.097656 5.605469 C 19.046875 5.445312 19.171875 5.4375 19.21875 5.308594 C 18.984375 5.351562 18.875 5.113281 18.648438 5.167969 C 18.476562 5.210938 18.292969 5.425781 18.207031 5.570312 C 18.09375 5.769531 18.03125 6.023438 17.964844 6.242188 C 17.925781 6.359375 17.84375 6.574219 17.761719 6.796875 C 17.679688 7.015625 17.066406 6.992188 16.890625 7.238281 C 16.5 7.796875 16.933594 8.867188 16.933594 8.867188 C 16.953125 9.070312 16.851562 9.484375 16.960938 9.664062 C 16.960938 9.667969 16.964844 9.671875 16.964844 9.675781 L 16.292969 9.675781 L 16.394531 9.359375 L 16.402344 8.753906 C 16.75 7.789062 16.164062 6.734375 16.164062 6.734375 C 16.148438 6.625 16.109375 6.507812 16.109375 6.398438 C 16.210938 6.335938 16.347656 6.242188 16.269531 6.132812 C 16.25 6.109375 16.238281 6.085938 16.230469 6.0625 C 16.269531 5.949219 16.261719 5.867188 16.238281 5.808594 C 16.242188 5.785156 16.242188 5.761719 16.242188 5.734375 C 16.242188 5.664062 16.308594 5.601562 16.316406 5.53125 C 16.3125 5.476562 16.289062 5.429688 16.253906 5.390625 C 16.203125 5.230469 16.328125 5.21875 16.375 5.089844 C 16.140625 5.132812 16.03125 4.898438 15.804688 4.953125 C 15.632812 4.992188 15.449219 5.207031 15.363281 5.355469 C 15.324219 5.421875 15.292969 5.5 15.261719 5.578125 C 15.246094 5.511719 15.230469 5.441406 15.203125 5.378906 C 15.140625 5.242188 15.042969 5.171875 14.90625 5.191406 C 14.761719 5.210938 14.730469 5.320312 14.742188 5.453125 C 14.746094 5.507812 14.757812 5.589844 14.667969 5.59375 C 14.546875 5.59375 14.464844 5.515625 14.386719 5.441406 C 14.3125 5.371094 14.335938 5.292969 14.378906 5.214844 C 14.421875 5.140625 14.472656 5.066406 14.511719 4.988281 C 14.558594 4.886719 14.527344 4.785156 14.425781 4.75 C 14.324219 4.710938 14.273438 4.53125 14.128906 4.625 C 14.023438 4.695312 13.957031 4.710938 13.917969 4.667969 L 13.917969 3.402344 C 14.234375 3.351562 14.472656 3.082031 14.472656 2.761719 C 14.472656 2.429688 14.234375 2.160156 13.917969 2.109375 L 13.886719 2.109375 L 13.886719 2.082031 C 14.703125 1.996094 14.605469 1.074219 14.605469 1.074219 C 14.605469 1.074219 14.117188 1.195312 13.957031 1.527344 C 13.941406 1.390625 13.871094 1.285156 13.792969 1.285156 C 13.714844 1.285156 13.644531 1.390625 13.628906 1.527344 C 13.472656 1.195312 12.984375 1.074219 12.984375 1.074219 C 12.984375 1.074219 12.882812 1.996094 13.699219 2.082031 L 13.699219 2.113281 C 13.394531 2.167969 13.160156 2.433594 13.160156 2.761719 C 13.160156 3.082031 13.398438 3.351562 13.714844 3.402344 L 13.714844 4.636719 C 13.710938 4.640625 13.710938 4.644531 13.707031 4.644531 C 13.46875 4.835938 13.316406 5.117188 13.054688 5.289062 C 12.976562 5.339844 12.949219 5.417969 12.933594 5.519531 C 12.875 5.914062 12.953125 6.296875 12.992188 6.683594 C 12.996094 6.742188 13.007812 7.152344 13.007812 7.152344 L 12.609375 6.902344 C 12.59375 6.878906 12.582031 6.855469 12.574219 6.828125 C 12.570312 6.628906 12.566406 6.449219 12.574219 6.347656 C 12.582031 6.117188 12.609375 5.859375 12.570312 5.632812 C 12.539062 5.464844 12.4375 5.199219 12.289062 5.105469 C 12.097656 4.976562 11.914062 5.160156 11.707031 5.042969 C 11.707031 5.175781 11.824219 5.230469 11.722656 5.363281 C 11.671875 5.390625 11.636719 5.425781 11.613281 5.476562 C 11.59375 5.546875 11.640625 5.628906 11.613281 5.695312 C 11.558594 5.824219 11.59375 5.972656 11.457031 6.058594 C 11.304688 6.15625 11.472656 6.390625 11.546875 6.480469 C 11.625 6.574219 11.8125 6.554688 11.8125 6.554688 C 11.796875 6.617188 11.78125 6.675781 11.777344 6.738281 C 11.777344 6.738281 11.179688 7.347656 11.691406 8.667969 L 11.765625 9.3125 C 11.816406 9.4375 11.875 9.554688 11.933594 9.675781 L 11.035156 9.675781 C 11.035156 9.671875 11.035156 9.667969 11.039062 9.664062 C 11.148438 9.484375 11.046875 9.070312 11.066406 8.867188 C 11.066406 8.867188 11.5 7.796875 11.105469 7.238281 C 10.933594 6.992188 10.320312 7.015625 10.238281 6.792969 C 10.15625 6.570312 10.070312 6.359375 10.035156 6.242188 C 9.96875 6.023438 9.90625 5.769531 9.792969 5.570312 C 9.707031 5.425781 9.523438 5.210938 9.351562 5.167969 C 9.125 5.113281 9.015625 5.351562 8.78125 5.308594 C 8.828125 5.4375 8.953125 5.445312 8.902344 5.605469 C 8.867188 5.648438 8.84375 5.695312 8.839844 5.75 C 8.847656 5.820312 8.914062 5.882812 8.914062 5.953125 C 8.90625 6.09375 8.988281 6.222656 8.886719 6.351562 C 8.777344 6.496094 9.074219 6.621094 9.125 6.664062 C 9.136719 6.675781 9.492188 6.867188 9.304688 6.9375 C 9.269531 7 9.269531 7.148438 9.210938 7.1875 C 8.980469 7.347656 9.199219 7.644531 9.195312 7.875 C 9.195312 7.890625 9.253906 8.164062 9.15625 8.132812 C 9.148438 8.152344 9.042969 8.195312 9.023438 8.195312 C 9.015625 8.242188 8.984375 8.324219 8.980469 8.382812 C 8.964844 8.515625 9.015625 8.691406 9.023438 8.824219 C 9.027344 8.984375 8.984375 9.242188 9.050781 9.386719 C 9.101562 9.492188 9.25 9.699219 9.34375 9.480469 C 9.425781 9.292969 9.199219 9.214844 9.222656 9.09375 C 9.253906 8.925781 9.152344 8.757812 9.199219 8.585938 C 9.242188 8.425781 9.347656 8.441406 9.417969 8.332031 C 9.535156 8.4375 9.613281 8.457031 9.773438 8.464844 C 9.945312 8.472656 9.78125 8.316406 9.75 8.246094 C 9.914062 8.09375 10.140625 8.710938 10.140625 8.800781 C 10.136719 8.984375 10.125 9.105469 10.15625 9.292969 C 10.171875 9.40625 10.105469 9.589844 10.125 9.675781 L 7.4375 9.675781 L 7.4375 10.566406 L 1.03125 10.566406 L 1.03125 11 L 1.425781 11 L 1.425781 12.09375 L 0.648438 12.09375 L 0.648438 15.179688 L 1.09375 15.179688 L 1.09375 26.175781 L 0 26.175781 L 0 26.925781 L 28 26.925781 L 28 26.175781 Z M 18.691406 6.285156 C 18.828125 6.371094 18.699219 6.351562 18.703125 6.402344 C 18.703125 6.390625 18.730469 6.566406 18.726562 6.546875 C 18.746094 6.636719 18.84375 6.625 18.738281 6.679688 C 18.710938 6.707031 18.6875 6.710938 18.660156 6.6875 C 18.640625 6.582031 18.628906 6.375 18.691406 6.285156 Z M 9.339844 6.6875 C 9.316406 6.710938 9.289062 6.707031 9.261719 6.679688 C 9.15625 6.625 9.253906 6.636719 9.273438 6.546875 C 9.269531 6.566406 9.300781 6.390625 9.296875 6.402344 C 9.300781 6.351562 9.171875 6.367188 9.308594 6.285156 C 9.371094 6.375 9.359375 6.582031 9.339844 6.6875 Z M 3.5625 26.175781 L 3.5625 15.40625 L 5.214844 15.40625 L 5.21875 26.175781 Z M 9.421875 26.175781 L 7.769531 26.175781 L 7.769531 15.40625 L 9.421875 15.40625 Z M 13.460938 2.839844 C 13.421875 2.769531 13.421875 2.734375 13.460938 2.660156 C 13.570312 2.679688 13.632812 2.679688 13.726562 2.667969 C 13.738281 2.574219 13.738281 2.511719 13.71875 2.402344 C 13.789062 2.363281 13.828125 2.363281 13.898438 2.402344 C 13.882812 2.511719 13.878906 2.574219 13.890625 2.667969 C 13.984375 2.679688 14.050781 2.679688 14.160156 2.660156 C 14.199219 2.734375 14.199219 2.769531 14.160156 2.839844 C 14.050781 2.824219 13.984375 2.820312 13.890625 2.832031 C 13.878906 2.925781 13.882812 2.992188 13.898438 3.101562 C 13.828125 3.140625 13.789062 3.140625 13.71875 3.101562 C 13.738281 2.992188 13.738281 2.925781 13.726562 2.832031 C 13.632812 2.820312 13.570312 2.824219 13.460938 2.839844 Z M 13.566406 5.128906 C 13.601562 5.058594 13.632812 4.945312 13.722656 4.96875 C 13.804688 4.988281 13.746094 5.097656 13.769531 5.167969 C 13.75 5.230469 13.808594 5.3125 13.738281 5.355469 C 13.683594 5.386719 13.621094 5.347656 13.566406 5.316406 C 13.457031 5.253906 13.539062 5.183594 13.566406 5.128906 Z M 15.53125 26.175781 L 11.976562 26.175781 L 11.976562 15.40625 L 15.53125 15.40625 Z M 19.988281 26.175781 L 18.082031 26.175781 L 18.082031 15.40625 L 19.988281 15.40625 Z M 24.292969 26.175781 L 22.542969 26.175781 L 22.542969 15.40625 L 24.292969 15.40625 Z M 24.292969 26.175781 "/>
</g>
</svg>
