<?xml version="1.0" encoding="UTF-8"?>
<svg xmlns="http://www.w3.org/2000/svg" xmlns:xlink="http://www.w3.org/1999/xlink" width="28pt" height="28pt" viewBox="0 0 28 28" version="1.1">
<g id="surface1">
<path style=" stroke:none;fill-rule:nonzero;fill:rgb(0%,0%,0%);fill-opacity:1;" d="M 28 4.921875 C 28 3.113281 26.527344 1.640625 24.71875 1.640625 C 22.910156 1.640625 21.4375 3.113281 21.4375 4.921875 C 21.4375 6.15625 22.121094 7.230469 23.128906 7.789062 L 23.09375 9.84375 L 20.40625 9.84375 C 20.183594 9.734375 19.960938 9.628906 19.742188 9.527344 L 19.742188 6.5625 L 18.101562 6.5625 L 18.101562 8.886719 C 16.996094 8.527344 15.898438 8.304688 14.820312 8.230469 L 14.820312 4.921875 L 13.179688 4.921875 L 13.179688 8.230469 C 12.101562 8.304688 11.003906 8.527344 9.898438 8.886719 L 9.898438 6.5625 L 8.257812 6.5625 L 8.257812 9.53125 C 8.039062 9.628906 7.820312 9.734375 7.597656 9.84375 L 4.90625 9.84375 L 4.871094 7.789062 C 5.878906 7.230469 6.5625 6.15625 6.5625 4.921875 C 6.5625 3.113281 5.089844 1.640625 3.28125 1.640625 C 1.472656 1.640625 0 3.113281 0 4.921875 C 0 6.042969 0.5625 7.03125 1.421875 7.625 L 0 10.46875 L 0 26.304688 L 4.921875 26.304688 L 4.921875 24.664062 L 23.078125 24.664062 L 23.078125 26.304688 L 28 26.304688 L 28 10.46875 L 26.578125 7.625 C 27.4375 7.03125 28 6.042969 28 4.921875 Z M 24.71875 3.28125 C 25.625 3.28125 26.359375 4.015625 26.359375 4.921875 C 26.359375 5.828125 25.625 6.5625 24.71875 6.5625 C 23.8125 6.5625 23.078125 5.828125 23.078125 4.921875 C 23.078125 4.015625 23.8125 3.28125 24.71875 3.28125 Z M 20.007812 11.484375 L 23.078125 11.484375 L 23.078125 13.125 L 19.742188 13.125 L 19.742188 11.347656 C 19.773438 11.363281 19.941406 11.449219 20.007812 11.484375 Z M 4.921875 14.765625 L 8.257812 14.765625 L 8.257812 19.742188 L 4.921875 19.742188 Z M 9.898438 14.199219 C 11.039062 13.636719 12.136719 13.292969 13.179688 13.171875 L 13.179688 19.742188 L 9.898438 19.742188 Z M 13.179688 21.382812 L 13.179688 23.023438 L 9.898438 23.023438 L 9.898438 21.382812 Z M 14.820312 21.382812 L 18.101562 21.382812 L 18.101562 23.023438 L 14.820312 23.023438 Z M 14.820312 19.742188 L 14.820312 13.171875 C 15.859375 13.292969 16.960938 13.636719 18.101562 14.195312 L 18.101562 19.742188 Z M 19.742188 14.765625 L 23.078125 14.765625 L 23.078125 19.742188 L 19.742188 19.742188 Z M 18.101562 10.628906 L 18.101562 12.390625 C 16.976562 11.914062 15.878906 11.625 14.820312 11.523438 L 14.820312 9.878906 C 15.890625 9.964844 16.988281 10.214844 18.101562 10.628906 Z M 13.179688 9.878906 L 13.179688 11.523438 C 12.121094 11.625 11.023438 11.914062 9.898438 12.390625 L 9.898438 10.628906 C 11.011719 10.214844 12.109375 9.964844 13.179688 9.878906 Z M 7.996094 11.484375 C 7.996094 11.484375 7.992188 11.484375 8.257812 11.351562 L 8.257812 13.125 L 4.921875 13.125 L 4.921875 11.484375 Z M 3.28125 3.28125 C 4.1875 3.28125 4.921875 4.015625 4.921875 4.921875 C 4.921875 5.828125 4.1875 6.5625 3.28125 6.5625 C 2.375 6.5625 1.640625 5.828125 1.640625 4.921875 C 1.640625 4.015625 2.375 3.28125 3.28125 3.28125 Z M 3.28125 24.664062 L 1.640625 24.664062 L 1.640625 10.859375 L 2.976562 8.1875 C 3.0625 8.195312 3.148438 8.199219 3.238281 8.203125 L 3.28125 10.671875 Z M 4.921875 21.382812 L 8.257812 21.382812 L 8.257812 23.023438 L 4.921875 23.023438 Z M 19.742188 23.023438 L 19.742188 21.382812 L 23.078125 21.382812 L 23.078125 23.023438 Z M 26.359375 10.859375 L 26.359375 24.664062 L 24.71875 24.664062 L 24.71875 10.671875 L 24.761719 8.203125 C 24.851562 8.199219 24.9375 8.195312 25.023438 8.1875 Z M 26.359375 10.859375 "/>
</g>
</svg>
