<?xml version="1.0" encoding="UTF-8"?>
<svg xmlns="http://www.w3.org/2000/svg" xmlns:xlink="http://www.w3.org/1999/xlink" width="28pt" height="28pt" viewBox="0 0 28 28" version="1.1">
<g id="surface1">
<path style=" stroke:none;fill-rule:nonzero;fill:rgb(0%,0%,0%);fill-opacity:1;" d="M 27.449219 22.75 L 22.636719 22.75 C 22.929688 16.234375 27.1875 10.71875 27.230469 10.660156 C 27.394531 10.453125 27.386719 10.152344 27.207031 9.953125 C 27.03125 9.757812 26.734375 9.714844 26.507812 9.855469 C 23.007812 12.019531 20.992188 15.53125 19.917969 18.097656 C 19.722656 18.5625 19.550781 19.015625 19.398438 19.445312 C 19.507812 17.019531 19.980469 13.800781 21.476562 10.949219 C 21.59375 10.726562 21.546875 10.453125 21.359375 10.285156 C 21.171875 10.117188 20.898438 10.097656 20.6875 10.234375 C 19.59375 10.953125 18.660156 11.910156 17.894531 13.085938 C 18.152344 9.59375 19.714844 4.929688 19.734375 4.875 C 19.8125 4.640625 19.726562 4.382812 19.523438 4.242188 C 19.320312 4.105469 19.046875 4.117188 18.859375 4.277344 C 17.445312 5.472656 16.292969 7.386719 15.433594 9.964844 C 15.007812 11.242188 14.710938 12.515625 14.503906 13.632812 C 13.578125 11.800781 12.34375 10.367188 10.816406 9.363281 C 10.609375 9.226562 10.332031 9.246094 10.144531 9.414062 C 9.960938 9.582031 9.910156 9.855469 10.027344 10.078125 C 11.683594 13.226562 12.167969 16.804688 12.261719 19.425781 C 12.082031 18.898438 11.871094 18.335938 11.625 17.75 C 10.480469 15.011719 8.328125 11.265625 4.59375 8.957031 C 4.367188 8.816406 4.074219 8.859375 3.894531 9.058594 C 3.71875 9.257812 3.707031 9.554688 3.871094 9.765625 C 3.914062 9.820312 7.464844 14.40625 8.515625 20.285156 C 8.246094 19.742188 7.929688 19.152344 7.570312 18.546875 C 5.679688 15.320312 3.636719 13.21875 1.5 12.289062 C 1.273438 12.191406 1.007812 12.257812 0.851562 12.449219 C 0.699219 12.640625 0.6875 12.914062 0.832031 13.113281 C 2.15625 14.976562 5.417969 20.113281 5.546875 22.75 L 0.550781 22.75 C 0.246094 22.75 0 22.996094 0 23.300781 C 0 23.605469 0.246094 23.851562 0.550781 23.851562 L 27.449219 23.851562 C 27.753906 23.851562 28 23.605469 28 23.300781 C 28 22.996094 27.753906 22.75 27.449219 22.75 Z M 20.945312 18.496094 C 21.648438 16.816406 22.78125 14.707031 24.5 12.902344 C 24.328125 13.21875 24.152344 13.558594 23.972656 13.917969 C 22.929688 16.019531 21.683594 19.222656 21.535156 22.75 L 19.609375 22.75 C 19.78125 21.921875 20.179688 20.316406 20.945312 18.496094 Z M 19.503906 12.753906 C 18.703125 15.058594 18.410156 17.359375 18.3125 19.0625 C 18.21875 20.710938 18.289062 22.035156 18.347656 22.75 L 16.480469 22.75 C 16.511719 21.113281 16.710938 18.890625 17.402344 16.730469 C 17.910156 15.140625 18.617188 13.8125 19.503906 12.753906 Z M 17.914062 7.113281 C 17.28125 9.464844 16.53125 12.882812 16.824219 15.121094 C 16.652344 15.527344 16.496094 15.953125 16.355469 16.394531 C 16.195312 16.890625 16.0625 17.390625 15.949219 17.882812 C 15.8125 17.238281 15.644531 16.582031 15.433594 15.929688 C 15.394531 15.804688 15.351562 15.683594 15.3125 15.558594 C 15.558594 13.671875 16.242188 9.863281 17.914062 7.113281 Z M 12 11.847656 C 13.015625 13.003906 13.816406 14.484375 14.386719 16.265625 C 15.132812 18.597656 15.34375 20.996094 15.371094 22.75 L 13.296875 22.75 C 13.359375 21.996094 13.441406 20.5625 13.339844 18.769531 C 13.234375 16.90625 12.90625 14.371094 12 11.847656 Z M 6.589844 11.957031 C 8.546875 13.929688 9.816406 16.285156 10.601562 18.148438 C 11.433594 20.132812 11.855469 21.878906 12.035156 22.75 L 9.894531 22.75 C 9.742188 18.972656 8.410156 15.539062 7.292969 13.285156 C 7.054688 12.808594 6.816406 12.363281 6.589844 11.957031 Z M 4.300781 16.558594 C 3.929688 15.898438 3.554688 15.277344 3.210938 14.726562 C 5.886719 17.117188 7.765625 21.136719 8.445312 22.75 L 6.644531 22.75 C 6.585938 21.304688 5.800781 19.226562 4.300781 16.558594 Z M 4.300781 16.558594 "/>
</g>
</svg>
