<?xml version="1.0" encoding="UTF-8"?>
<svg xmlns="http://www.w3.org/2000/svg" xmlns:xlink="http://www.w3.org/1999/xlink" width="28pt" height="28pt" viewBox="0 0 28 28" version="1.1">
<g id="surface1">
<path style=" stroke:none;fill-rule:nonzero;fill:rgb(0%,0%,0%);fill-opacity:1;" d="M 10.71875 1.203125 C 10.472656 0.828125 10.308594 0.582031 10.308594 0 L 8.667969 0 C 8.667969 1.074219 9.046875 1.648438 9.351562 2.105469 C 9.597656 2.480469 9.761719 2.726562 9.761719 3.308594 C 9.761719 3.890625 9.597656 4.136719 9.351562 4.511719 C 9.046875 4.96875 8.667969 5.542969 8.667969 6.617188 L 10.308594 6.617188 C 10.308594 6.035156 10.472656 5.789062 10.71875 5.414062 C 11.023438 4.957031 11.402344 4.382812 11.402344 3.308594 C 11.402344 2.234375 11.023438 1.660156 10.71875 1.203125 Z M 10.71875 1.203125 "/>
<path style=" stroke:none;fill-rule:nonzero;fill:rgb(0%,0%,0%);fill-opacity:1;" d="M 7.4375 1.203125 C 7.191406 0.828125 7.027344 0.582031 7.027344 0 L 5.386719 0 C 5.386719 1.074219 5.765625 1.648438 6.070312 2.105469 C 6.316406 2.480469 6.480469 2.726562 6.480469 3.308594 C 6.480469 3.890625 6.316406 4.136719 6.070312 4.511719 C 5.765625 4.96875 5.386719 5.542969 5.386719 6.617188 L 7.027344 6.617188 C 7.027344 6.035156 7.191406 5.789062 7.4375 5.414062 C 7.742188 4.957031 8.121094 4.382812 8.121094 3.308594 C 8.121094 2.234375 7.742188 1.660156 7.4375 1.203125 Z M 7.4375 1.203125 "/>
<path style=" stroke:none;fill-rule:nonzero;fill:rgb(0%,0%,0%);fill-opacity:1;" d="M 14 1.203125 C 13.753906 0.828125 13.589844 0.582031 13.589844 0 L 11.949219 0 C 11.949219 1.074219 12.328125 1.648438 12.632812 2.105469 C 12.878906 2.480469 13.042969 2.726562 13.042969 3.308594 C 13.042969 3.890625 12.878906 4.136719 12.632812 4.511719 C 12.328125 4.96875 11.949219 5.542969 11.949219 6.617188 L 13.589844 6.617188 C 13.589844 6.035156 13.753906 5.789062 14 5.414062 C 14.304688 4.957031 14.683594 4.382812 14.683594 3.308594 C 14.683594 2.234375 14.304688 1.660156 14 1.203125 Z M 14 1.203125 "/>
<path style=" stroke:none;fill-rule:nonzero;fill:rgb(0%,0%,0%);fill-opacity:1;" d="M 17.28125 1.203125 C 17.035156 0.828125 16.871094 0.582031 16.871094 0 L 15.230469 0 C 15.230469 1.074219 15.609375 1.648438 15.914062 2.105469 C 16.160156 2.480469 16.324219 2.726562 16.324219 3.308594 C 16.324219 3.890625 16.160156 4.136719 15.914062 4.511719 C 15.609375 4.96875 15.230469 5.542969 15.230469 6.617188 L 16.871094 6.617188 C 16.871094 6.035156 17.035156 5.789062 17.28125 5.414062 C 17.585938 4.957031 17.964844 4.382812 17.964844 3.308594 C 17.964844 2.234375 17.585938 1.660156 17.28125 1.203125 Z M 17.28125 1.203125 "/>
<path style=" stroke:none;fill-rule:nonzero;fill:rgb(0%,0%,0%);fill-opacity:1;" d="M 20.5625 1.203125 C 20.316406 0.828125 20.152344 0.582031 20.152344 0 L 18.511719 0 C 18.511719 1.074219 18.890625 1.648438 19.195312 2.105469 C 19.441406 2.480469 19.605469 2.726562 19.605469 3.308594 C 19.605469 3.890625 19.441406 4.136719 19.195312 4.511719 C 18.890625 4.96875 18.511719 5.542969 18.511719 6.617188 L 20.152344 6.617188 C 20.152344 6.035156 20.316406 5.789062 20.5625 5.414062 C 20.867188 4.957031 21.246094 4.382812 21.246094 3.308594 C 21.246094 2.234375 20.867188 1.660156 20.5625 1.203125 Z M 20.5625 1.203125 "/>
<path style=" stroke:none;fill-rule:nonzero;fill:rgb(0%,0%,0%);fill-opacity:1;" d="M 16.515625 8.257812 C 15.308594 8.257812 14.328125 9.238281 14.328125 10.445312 L 14.328125 25.8125 C 14.328125 27.019531 15.308594 28 16.515625 28 C 17.722656 28 18.703125 27.019531 18.703125 25.8125 L 18.703125 10.445312 C 18.703125 9.238281 17.722656 8.257812 16.515625 8.257812 Z M 16.515625 8.257812 "/>
<path style=" stroke:none;fill-rule:nonzero;fill:rgb(0%,0%,0%);fill-opacity:1;" d="M 4.101562 8.257812 C 2.894531 8.257812 1.914062 9.238281 1.914062 10.445312 L 1.914062 11.265625 L 0 11.265625 L 0 12.90625 L 1.914062 12.90625 L 1.914062 25.8125 C 1.914062 27.019531 2.894531 28 4.101562 28 C 5.308594 28 6.289062 27.019531 6.289062 25.8125 L 6.289062 10.445312 C 6.289062 9.238281 5.308594 8.257812 4.101562 8.257812 Z M 4.101562 8.257812 "/>
<path style=" stroke:none;fill-rule:nonzero;fill:rgb(0%,0%,0%);fill-opacity:1;" d="M 10.5 8.257812 C 9.292969 8.257812 8.3125 9.238281 8.3125 10.445312 L 8.3125 25.8125 C 8.3125 27.019531 9.292969 28 10.5 28 C 11.707031 28 12.6875 27.019531 12.6875 25.8125 L 12.6875 10.445312 C 12.6875 9.238281 11.707031 8.257812 10.5 8.257812 Z M 10.5 8.257812 "/>
<path style=" stroke:none;fill-rule:nonzero;fill:rgb(0%,0%,0%);fill-opacity:1;" d="M 26.359375 9.296875 L 26.359375 11.265625 L 24.71875 11.265625 L 24.71875 10.445312 C 24.71875 9.238281 23.738281 8.257812 22.53125 8.257812 C 21.324219 8.257812 20.34375 9.238281 20.34375 10.445312 L 20.34375 25.8125 C 20.34375 27.019531 21.324219 28 22.53125 28 C 23.738281 28 24.71875 27.019531 24.71875 25.8125 L 24.71875 12.90625 L 28 12.90625 L 28 9.296875 Z M 26.359375 9.296875 "/>
</g>
</svg>
