<?xml version="1.0" encoding="UTF-8"?>
<svg xmlns="http://www.w3.org/2000/svg" xmlns:xlink="http://www.w3.org/1999/xlink" width="28pt" height="28pt" viewBox="0 0 28 28" version="1.1">
<g id="surface1">
<path style=" stroke:none;fill-rule:nonzero;fill:rgb(0%,0%,0%);fill-opacity:1;" d="M 27.417969 18.667969 L 25.667969 18.667969 L 25.667969 5.25 C 25.667969 4.285156 24.882812 3.5 23.917969 3.5 C 22.953125 3.5 22.167969 4.285156 22.167969 5.25 L 22.167969 5.832031 L 21 5.832031 L 21 5.25 C 21 4.285156 20.214844 3.5 19.25 3.5 C 18.285156 3.5 17.5 4.285156 17.5 5.25 L 17.5 5.832031 L 16.332031 5.832031 L 16.332031 5.25 C 16.332031 4.285156 15.546875 3.5 14.582031 3.5 C 13.617188 3.5 12.832031 4.285156 12.832031 5.25 L 12.832031 5.832031 L 11.667969 5.832031 L 11.667969 5.25 C 11.667969 4.285156 10.882812 3.5 9.917969 3.5 C 8.953125 3.5 8.167969 4.285156 8.167969 5.25 L 8.167969 5.832031 L 7 5.832031 L 7 5.25 C 7 4.285156 6.214844 3.5 5.25 3.5 C 4.285156 3.5 3.5 4.285156 3.5 5.25 L 3.5 5.832031 L 0.582031 5.832031 C 0.261719 5.832031 0 6.09375 0 6.417969 L 0 8.75 C 0 9.074219 0.261719 9.332031 0.582031 9.332031 L 3.5 9.332031 L 3.5 22.75 C 3.5 23.714844 4.285156 24.5 5.25 24.5 C 6.214844 24.5 7 23.714844 7 22.75 L 7 22.167969 L 8.167969 22.167969 L 8.167969 22.75 C 8.167969 23.714844 8.953125 24.5 9.917969 24.5 C 10.882812 24.5 11.667969 23.714844 11.667969 22.75 L 11.667969 22.167969 L 12.832031 22.167969 L 12.832031 22.75 C 12.832031 23.714844 13.617188 24.5 14.582031 24.5 C 15.546875 24.5 16.332031 23.714844 16.332031 22.75 L 16.332031 22.167969 L 17.5 22.167969 L 17.5 22.75 C 17.5 23.714844 18.285156 24.5 19.25 24.5 C 20.214844 24.5 21 23.714844 21 22.75 L 21 22.167969 L 22.167969 22.167969 L 22.167969 22.75 C 22.167969 23.714844 22.953125 24.5 23.917969 24.5 C 24.882812 24.5 25.667969 23.714844 25.667969 22.75 L 25.667969 22.167969 L 27.417969 22.167969 C 27.738281 22.167969 28 21.90625 28 21.582031 L 28 19.25 C 28 18.925781 27.738281 18.667969 27.417969 18.667969 Z M 3.5 8.167969 L 1.167969 8.167969 L 1.167969 7 L 3.5 7 Z M 5.832031 22.75 C 5.832031 23.070312 5.570312 23.332031 5.25 23.332031 C 4.929688 23.332031 4.667969 23.070312 4.667969 22.75 L 4.667969 5.25 C 4.667969 4.929688 4.929688 4.667969 5.25 4.667969 C 5.570312 4.667969 5.832031 4.929688 5.832031 5.25 Z M 8.167969 21 L 7 21 L 7 19.832031 L 8.167969 19.832031 Z M 8.167969 18.667969 L 7 18.667969 L 7 9.332031 L 8.167969 9.332031 Z M 8.167969 8.167969 L 7 8.167969 L 7 7 L 8.167969 7 Z M 10.5 22.75 C 10.5 23.070312 10.238281 23.332031 9.917969 23.332031 C 9.59375 23.332031 9.332031 23.070312 9.332031 22.75 L 9.332031 5.25 C 9.332031 4.929688 9.59375 4.667969 9.917969 4.667969 C 10.238281 4.667969 10.5 4.929688 10.5 5.25 Z M 12.832031 21 L 11.667969 21 L 11.667969 19.832031 L 12.832031 19.832031 Z M 12.832031 18.667969 L 11.667969 18.667969 L 11.667969 9.332031 L 12.832031 9.332031 Z M 12.832031 8.167969 L 11.667969 8.167969 L 11.667969 7 L 12.832031 7 Z M 15.167969 22.75 C 15.167969 23.070312 14.90625 23.332031 14.582031 23.332031 C 14.261719 23.332031 14 23.070312 14 22.75 L 14 5.25 C 14 4.929688 14.261719 4.667969 14.582031 4.667969 C 14.90625 4.667969 15.167969 4.929688 15.167969 5.25 Z M 17.5 21 L 16.332031 21 L 16.332031 19.832031 L 17.5 19.832031 Z M 17.5 18.667969 L 16.332031 18.667969 L 16.332031 9.332031 L 17.5 9.332031 Z M 17.5 8.167969 L 16.332031 8.167969 L 16.332031 7 L 17.5 7 Z M 19.832031 22.75 C 19.832031 23.070312 19.570312 23.332031 19.25 23.332031 C 18.929688 23.332031 18.667969 23.070312 18.667969 22.75 L 18.667969 5.25 C 18.667969 4.929688 18.929688 4.667969 19.25 4.667969 C 19.570312 4.667969 19.832031 4.929688 19.832031 5.25 Z M 22.167969 21 L 21 21 L 21 19.832031 L 22.167969 19.832031 Z M 22.167969 18.667969 L 21 18.667969 L 21 9.332031 L 22.167969 9.332031 Z M 22.167969 8.167969 L 21 8.167969 L 21 7 L 22.167969 7 Z M 24.5 22.75 C 24.5 23.070312 24.238281 23.332031 23.917969 23.332031 C 23.59375 23.332031 23.332031 23.070312 23.332031 22.75 L 23.332031 5.25 C 23.332031 4.929688 23.59375 4.667969 23.917969 4.667969 C 24.238281 4.667969 24.5 4.929688 24.5 5.25 Z M 26.832031 21 L 25.667969 21 L 25.667969 19.832031 L 26.832031 19.832031 Z M 26.832031 21 "/>
</g>
</svg>
