<?xml version="1.0" encoding="UTF-8"?>
<svg xmlns="http://www.w3.org/2000/svg" xmlns:xlink="http://www.w3.org/1999/xlink" width="28pt" height="28pt" viewBox="0 0 28 28" version="1.1">
<g id="surface1">
<path style=" stroke:none;fill-rule:nonzero;fill:rgb(0%,0%,0%);fill-opacity:1;" d="M 17.890625 16.480469 L 17.890625 3.886719 C 17.890625 1.746094 16.144531 0 14 0 C 11.855469 0 10.109375 1.746094 10.109375 3.886719 L 10.109375 16.480469 C 8.519531 17.691406 7.578125 19.566406 7.578125 21.582031 C 7.578125 25.121094 10.460938 28 14 28 C 17.539062 28 20.421875 25.121094 20.421875 21.582031 C 20.421875 19.566406 19.480469 17.691406 17.890625 16.480469 Z M 14 26.320312 C 11.386719 26.320312 9.257812 24.195312 9.257812 21.582031 C 9.257812 19.980469 10.0625 18.5 11.410156 17.617188 C 11.648438 17.460938 11.789062 17.195312 11.789062 16.914062 L 11.789062 3.886719 C 11.789062 2.671875 12.78125 1.679688 14 1.679688 C 15.21875 1.679688 16.210938 2.671875 16.210938 3.886719 L 16.210938 16.914062 C 16.210938 17.195312 16.351562 17.460938 16.589844 17.617188 C 17.9375 18.5 18.742188 19.980469 18.742188 21.582031 C 18.742188 24.195312 16.613281 26.320312 14 26.320312 Z M 14 26.320312 "/>
<path style=" stroke:none;fill-rule:nonzero;fill:rgb(0%,0%,0%);fill-opacity:1;" d="M 14.839844 18.917969 L 14.839844 7.824219 C 14.839844 7.363281 14.464844 6.984375 14 6.984375 C 13.535156 6.984375 13.160156 7.363281 13.160156 7.824219 L 13.160156 18.917969 C 12.03125 19.273438 11.210938 20.332031 11.210938 21.582031 C 11.210938 23.121094 12.457031 24.371094 14 24.371094 C 15.542969 24.371094 16.789062 23.121094 16.789062 21.582031 C 16.789062 20.332031 15.96875 19.273438 14.839844 18.917969 Z M 14.839844 18.917969 "/>
</g>
</svg>
