<?xml version="1.0" encoding="UTF-8"?>
<svg xmlns="http://www.w3.org/2000/svg" xmlns:xlink="http://www.w3.org/1999/xlink" width="28pt" height="28pt" viewBox="0 0 28 28" version="1.1">
<g id="surface1">
<path style=" stroke:none;fill-rule:nonzero;fill:rgb(0%,0%,0%);fill-opacity:1;" d="M 27.808594 9.886719 L 24.734375 7.664062 L 24.734375 1.398438 C 24.734375 1.140625 24.523438 0.933594 24.265625 0.933594 L 20.535156 0.933594 C 20.273438 0.933594 20.066406 1.140625 20.066406 1.398438 L 20.066406 4.285156 L 14.273438 0.0898438 C 14.109375 -0.03125 13.890625 -0.03125 13.726562 0.0898438 L 0.191406 9.886719 C 0.0703125 9.976562 0 10.117188 0 10.265625 L 0 27.535156 C 0 27.789062 0.207031 28 0.464844 28 L 27.535156 28 C 27.792969 28 28 27.789062 28 27.535156 L 28 10.265625 C 28 10.117188 27.929688 9.976562 27.808594 9.886719 Z M 7 27.066406 L 5.601562 27.066406 L 5.601562 25.667969 L 7 25.667969 Z M 9.332031 27.066406 L 7.933594 27.066406 L 7.933594 25.667969 L 9.332031 25.667969 Z M 11.199219 27.066406 L 10.265625 27.066406 L 10.265625 25.667969 L 11.199219 25.667969 Z M 11.199219 23.222656 L 10.554688 21.933594 L 11.199219 21.933594 Z M 11.199219 19.132812 L 11.199219 21 L 10.265625 21 L 10.265625 18.199219 L 9.332031 18.199219 L 9.332031 21.464844 C 9.332031 21.539062 9.351562 21.609375 9.382812 21.675781 L 10.910156 24.734375 L 4.023438 24.734375 L 5.550781 21.675781 C 5.582031 21.609375 5.601562 21.539062 5.601562 21.464844 L 5.601562 18.675781 L 4.667969 18.675781 L 4.667969 21 L 3.734375 21 L 3.734375 18.199219 C 3.734375 17.429688 4.363281 16.800781 5.132812 16.800781 L 9.800781 16.800781 C 10.570312 16.800781 11.199219 17.429688 11.199219 18.199219 Z M 9.042969 13.011719 C 9.222656 13.300781 9.332031 13.636719 9.332031 14 L 9.332031 15.867188 L 5.601562 15.867188 L 5.601562 14.453125 C 7.210938 14.363281 8.496094 13.804688 9.042969 13.011719 Z M 5.671875 13.511719 C 5.890625 12.71875 6.609375 12.132812 7.464844 12.132812 C 7.785156 12.132812 8.082031 12.222656 8.34375 12.363281 C 8.101562 12.886719 7.0625 13.402344 5.671875 13.511719 Z M 15.867188 16.332031 L 15.867188 27.066406 L 14.464844 27.066406 L 14.464844 21 L 13.535156 21 L 13.535156 27.066406 L 12.132812 27.066406 L 12.132812 18.199219 C 12.132812 17.097656 11.363281 16.175781 10.332031 15.933594 C 10.503906 15.355469 11.035156 14.933594 11.667969 14.933594 L 16.332031 14.933594 C 17.105469 14.933594 17.734375 15.5625 17.734375 16.332031 L 17.734375 19.179688 C 17.386719 19.25 17.074219 19.40625 16.800781 19.613281 L 16.800781 16.332031 Z M 12.132812 12.132812 C 12.132812 11.105469 12.96875 10.265625 14 10.265625 C 15.03125 10.265625 15.867188 11.105469 15.867188 12.132812 C 15.867188 13.164062 15.03125 14 14 14 C 12.96875 14 12.132812 13.164062 12.132812 12.132812 Z M 17.734375 27.066406 L 16.800781 27.066406 L 16.800781 24.265625 L 17.734375 24.265625 Z M 21.464844 21.464844 L 21.464844 27.066406 L 20.535156 27.066406 L 20.535156 24.265625 L 19.601562 24.265625 L 19.601562 27.066406 L 18.667969 27.066406 L 18.667969 21.464844 L 17.734375 21.464844 L 17.734375 23.332031 L 16.800781 23.332031 L 16.800781 21.464844 C 16.800781 20.695312 17.429688 20.066406 18.199219 20.066406 L 21.933594 20.066406 C 22.707031 20.066406 23.332031 20.695312 23.332031 21.464844 L 23.332031 23.332031 L 22.398438 23.332031 L 22.398438 21.464844 Z M 18.667969 17.734375 C 18.667969 16.960938 19.292969 16.332031 20.066406 16.332031 C 20.839844 16.332031 21.464844 16.960938 21.464844 17.734375 C 21.464844 18.503906 20.839844 19.132812 20.066406 19.132812 C 19.292969 19.132812 18.667969 18.503906 18.667969 17.734375 Z M 27.066406 27.066406 L 22.398438 27.066406 L 22.398438 24.265625 L 23.800781 24.265625 C 24.058594 24.265625 24.265625 24.058594 24.265625 23.800781 L 24.265625 21.464844 C 24.265625 20.179688 23.21875 19.132812 21.933594 19.132812 L 21.921875 19.132812 C 22.21875 18.742188 22.398438 18.261719 22.398438 17.734375 C 22.398438 16.445312 21.351562 15.398438 20.066406 15.398438 C 19.519531 15.398438 19.023438 15.597656 18.625 15.914062 C 18.425781 14.828125 17.476562 14 16.332031 14 L 16.082031 14 C 16.527344 13.503906 16.800781 12.851562 16.800781 12.132812 C 16.800781 10.589844 15.542969 9.332031 14 9.332031 C 12.457031 9.332031 11.199219 10.589844 11.199219 12.132812 C 11.199219 12.851562 11.472656 13.503906 11.917969 14 L 11.667969 14 C 11.140625 14 10.65625 14.183594 10.265625 14.480469 L 10.265625 14 C 10.265625 12.457031 9.011719 11.199219 7.464844 11.199219 C 5.921875 11.199219 4.667969 12.457031 4.667969 14 L 4.667969 15.914062 C 3.601562 16.128906 2.800781 17.074219 2.800781 18.199219 L 2.800781 21.464844 C 2.800781 21.722656 3.007812 21.933594 3.265625 21.933594 L 4.378906 21.933594 L 2.847656 24.992188 C 2.777344 25.136719 2.785156 25.308594 2.871094 25.445312 C 2.953125 25.582031 3.105469 25.667969 3.265625 25.667969 L 4.667969 25.667969 L 4.667969 27.066406 L 0.933594 27.066406 L 0.933594 10.503906 L 14 1.042969 L 20.257812 5.574219 C 20.402344 5.679688 20.589844 5.691406 20.746094 5.613281 C 20.902344 5.535156 21 5.375 21 5.199219 L 21 1.867188 L 23.800781 1.867188 L 23.800781 7.902344 C 23.800781 8.050781 23.871094 8.191406 23.992188 8.277344 L 27.066406 10.503906 Z M 27.066406 27.066406 "/>
</g>
</svg>
