<?xml version="1.0" encoding="UTF-8"?>
<svg xmlns="http://www.w3.org/2000/svg" xmlns:xlink="http://www.w3.org/1999/xlink" width="28pt" height="28pt" viewBox="0 0 28 28" version="1.1">
<g id="surface1">
<path style=" stroke:none;fill-rule:nonzero;fill:rgb(0%,0%,0%);fill-opacity:1;" d="M 26.714844 21.136719 L 23.160156 21.136719 L 23.160156 16.269531 L 23.734375 16.269531 C 23.960938 16.269531 24.144531 16.085938 24.144531 15.859375 L 24.144531 7.4375 C 24.144531 7.210938 23.960938 7.027344 23.734375 7.027344 L 21.246094 7.027344 L 21.246094 4.703125 C 21.246094 4.476562 21.0625 4.292969 20.835938 4.292969 L 16.460938 4.292969 C 16.335938 4.292969 16.21875 4.351562 16.140625 4.445312 L 14.078125 7.027344 L 10.046875 7.027344 L 10.046875 5.796875 C 10.046875 5.570312 9.863281 5.386719 9.636719 5.386719 L 6.355469 5.386719 C 6.128906 5.386719 5.945312 5.570312 5.945312 5.796875 L 5.945312 7.027344 L 4.265625 7.027344 C 4.039062 7.027344 3.855469 7.210938 3.855469 7.4375 L 3.855469 15.859375 C 3.855469 16.085938 4.039062 16.269531 4.265625 16.269531 L 4.730469 16.269531 L 4.730469 21.136719 L 1.285156 21.136719 C 0.578125 21.136719 0 21.714844 0 22.421875 C 0 23.128906 0.578125 23.707031 1.285156 23.707031 L 22.75 23.707031 C 22.976562 23.707031 23.160156 23.523438 23.160156 23.296875 C 23.160156 23.070312 22.976562 22.886719 22.75 22.886719 L 1.285156 22.886719 C 1.027344 22.886719 0.820312 22.679688 0.820312 22.421875 C 0.820312 22.164062 1.027344 21.957031 1.285156 21.957031 L 26.714844 21.957031 C 26.972656 21.957031 27.179688 22.164062 27.179688 22.421875 C 27.179688 22.679688 26.972656 22.886719 26.714844 22.886719 L 24.488281 22.886719 C 24.261719 22.886719 24.078125 23.070312 24.078125 23.296875 C 24.078125 23.523438 24.261719 23.707031 24.488281 23.707031 L 26.714844 23.707031 C 27.421875 23.707031 28 23.128906 28 22.421875 C 28 21.714844 27.421875 21.136719 26.714844 21.136719 Z M 22.339844 21.136719 L 21.246094 21.136719 L 21.246094 16.269531 L 22.339844 16.269531 Z M 16.65625 5.113281 L 20.425781 5.113281 L 20.425781 7.027344 L 15.125 7.027344 Z M 6.765625 6.207031 L 9.226562 6.207031 L 9.226562 7.027344 L 6.765625 7.027344 Z M 4.675781 7.847656 L 23.324219 7.847656 L 23.324219 15.449219 L 4.675781 15.449219 Z M 11.457031 18.292969 L 9.433594 18.292969 L 9.433594 17.742188 L 11.457031 17.742188 Z M 9.433594 19.113281 L 11.457031 19.113281 L 11.457031 19.664062 L 9.433594 19.664062 Z M 11.457031 16.921875 L 9.433594 16.921875 L 9.433594 16.269531 L 11.457031 16.269531 Z M 7.164062 19.878906 C 6.9375 19.878906 6.753906 20.0625 6.753906 20.289062 L 6.753906 21.136719 L 5.550781 21.136719 L 5.550781 16.269531 L 6.753906 16.269531 L 6.753906 18.527344 C 6.753906 18.753906 6.9375 18.9375 7.164062 18.9375 C 7.390625 18.9375 7.574219 18.753906 7.574219 18.527344 L 7.574219 16.269531 L 8.613281 16.269531 L 8.613281 21.136719 L 7.574219 21.136719 L 7.574219 20.289062 C 7.574219 20.0625 7.390625 19.878906 7.164062 19.878906 Z M 9.433594 21.136719 L 9.433594 20.484375 L 11.457031 20.484375 L 11.457031 21.136719 Z M 14.136719 21.136719 L 14.136719 18.347656 L 18.785156 18.347656 L 18.785156 21.136719 Z M 19.605469 21.136719 L 19.605469 17.9375 C 19.605469 17.710938 19.421875 17.527344 19.195312 17.527344 L 13.726562 17.527344 C 13.5 17.527344 13.316406 17.710938 13.316406 17.9375 L 13.316406 21.136719 L 12.277344 21.136719 L 12.277344 16.269531 L 20.425781 16.269531 L 20.425781 21.136719 Z M 19.605469 21.136719 "/>
<path style=" stroke:none;fill-rule:nonzero;fill:rgb(0%,0%,0%);fill-opacity:1;" d="M 5.90625 14.628906 L 22.09375 14.628906 C 22.320312 14.628906 22.503906 14.445312 22.503906 14.21875 L 22.503906 9.078125 C 22.503906 8.851562 22.320312 8.667969 22.09375 8.667969 L 21.019531 8.667969 C 20.792969 8.667969 20.609375 8.851562 20.609375 9.078125 C 20.609375 9.304688 20.792969 9.488281 21.019531 9.488281 L 21.683594 9.488281 L 21.683594 13.808594 L 17.691406 13.808594 L 17.691406 9.488281 L 19.25 9.488281 C 19.476562 9.488281 19.660156 9.304688 19.660156 9.078125 C 19.660156 8.851562 19.476562 8.667969 19.25 8.667969 L 5.90625 8.667969 C 5.679688 8.667969 5.496094 8.851562 5.496094 9.078125 L 5.496094 14.21875 C 5.496094 14.445312 5.679688 14.628906 5.90625 14.628906 Z M 16.871094 13.808594 L 11.128906 13.808594 L 11.128906 9.488281 L 16.871094 9.488281 Z M 6.316406 9.488281 L 10.308594 9.488281 L 10.308594 13.808594 L 6.316406 13.808594 Z M 6.316406 9.488281 "/>
</g>
</svg>
