<?xml version="1.0" encoding="UTF-8"?>
<svg xmlns="http://www.w3.org/2000/svg" xmlns:xlink="http://www.w3.org/1999/xlink" width="28pt" height="28pt" viewBox="0 0 28 28" version="1.1">
<g id="surface1">
<path style=" stroke:none;fill-rule:nonzero;fill:rgb(0%,0%,0%);fill-opacity:1;" d="M 27.757812 12.777344 L 23.59375 8.910156 L 23.59375 2.574219 L 18.796875 2.574219 L 18.796875 4.453125 L 14 0 L 0.242188 12.777344 C 0.046875 12.957031 0.0351562 13.261719 0.214844 13.453125 C 0.394531 13.648438 0.699219 13.660156 0.894531 13.480469 L 2.488281 12 L 2.488281 28 L 25.515625 28 L 25.515625 12 L 27.105469 13.480469 C 27.199219 13.566406 27.316406 13.605469 27.433594 13.605469 C 27.5625 13.605469 27.691406 13.554688 27.785156 13.453125 C 27.964844 13.261719 27.953125 12.957031 27.757812 12.777344 Z M 19.757812 3.535156 L 22.636719 3.535156 L 22.636719 8.019531 L 19.757812 5.347656 Z M 11.121094 27.039062 L 11.121094 16.9375 C 11.121094 16.6875 11.324219 16.484375 11.570312 16.484375 L 16.429688 16.484375 C 16.675781 16.484375 16.878906 16.6875 16.878906 16.9375 L 16.878906 27.039062 Z M 24.554688 27.039062 L 17.835938 27.039062 L 17.835938 16.9375 C 17.835938 16.160156 17.207031 15.527344 16.429688 15.527344 L 11.570312 15.527344 C 10.792969 15.527344 10.160156 16.160156 10.160156 16.9375 L 10.160156 27.039062 L 3.445312 27.039062 L 3.445312 11.109375 L 14 1.308594 L 20.851562 7.671875 L 23.59375 10.21875 L 24.554688 11.109375 Z M 24.554688 27.039062 "/>
</g>
</svg>
