<?xml version="1.0" encoding="UTF-8" standalone="no"?>
<svg
   xmlns:dc="http://purl.org/dc/elements/1.1/"
   xmlns:cc="http://creativecommons.org/ns#"
   xmlns:rdf="http://www.w3.org/1999/02/22-rdf-syntax-ns#"
   xmlns:svg="http://www.w3.org/2000/svg"
   xmlns="http://www.w3.org/2000/svg"
   xmlns:sodipodi="http://sodipodi.sourceforge.net/DTD/sodipodi-0.dtd"
   xmlns:inkscape="http://www.inkscape.org/namespaces/inkscape"
   version="1.1"
   id="Warstwa_1"
   x="0px"
   y="0px"
   viewBox="0 0 208.6 208.6"
   style="enable-background:new 0 0 208.6 208.6;"
   xml:space="preserve"
   width="208.6"
   height="208.6"
   sodipodi:docname="icons.svg"
   inkscape:version="1.0.2 (394de47547, 2021-03-26)"><metadata
   id="metadata173"><rdf:RDF><cc:Work
       rdf:about=""><dc:format>image/svg+xml</dc:format><dc:type
         rdf:resource="http://purl.org/dc/dcmitype/StillImage" /><dc:title></dc:title></cc:Work></rdf:RDF></metadata><defs
   id="defs171">   </defs><sodipodi:namedview
   pagecolor="#ffffff"
   bordercolor="#666666"
   borderopacity="1"
   objecttolerance="10"
   gridtolerance="10"
   guidetolerance="10"
   inkscape:pageopacity="0"
   inkscape:pageshadow="2"
   inkscape:window-width="1848"
   inkscape:window-height="1016"
   id="namedview169"
   showgrid="false"
   inkscape:zoom="2.0661553"
   inkscape:cx="17.115497"
   inkscape:cy="103.83635"
   inkscape:window-x="72"
   inkscape:window-y="27"
   inkscape:window-maximized="1"
   inkscape:current-layer="Warstwa_1"
   inkscape:document-rotation="0" /> <style
   type="text/css"
   id="style152"> .st0{fill:#ED695C;} .st1{fill:none;stroke:#ED695C;stroke-width:5;stroke-miterlimit:10;} .st2{fill:none;stroke:#ED695C;stroke-width:5;stroke-linecap:round;stroke-miterlimit:10;} .st3{fill:#ED695C;stroke:#ED6A5C;stroke-miterlimit:10;} .st4{fill:#ED695C;stroke:#ED6A5C;stroke-width:1.5;stroke-miterlimit:10;} .st5{fill:none;stroke:#ED695C;stroke-width:4;stroke-miterlimit:10;} .st6{fill:none;stroke:#ED695C;stroke-miterlimit:10;} .st7{fill:none;stroke:#ED695C;stroke-width:4;stroke-linecap:round;stroke-miterlimit:10;} .st8{fill:#ED695C;stroke:#ED6A5C;stroke-width:0.5;stroke-miterlimit:10;} .st9{fill:none;stroke:#ED695C;stroke-width:2;stroke-miterlimit:10;} .st10{fill:#ED6A5C;} .st11{fill:#ED695C;stroke:#ED6A5C;stroke-width:0.25;stroke-miterlimit:10;} .st12{fill-rule:evenodd;clip-rule:evenodd;fill:#ED695C;} .st13{fill:#F2F2F2;} </style> <circle
   class="st1"
   cx="104.3"
   cy="104.3"
   r="101.8"
   id="circle154" /> <g
   id="surface1"
   transform="matrix(1.4927113,0,0,1.4927113,54.329694,55.340902)"
   style="fill:#ed695c;fill-opacity:1"><path
     style="fill:#ed695c;fill-opacity:1;fill-rule:nonzero;stroke:none"
     d="m 14,5.046875 c -4.058594,0 -6.988281,3.023437 -7.453125,6.273437 -0.289063,2.164063 0.410156,4.277344 1.863281,5.875 1.28125,1.367188 1.980469,3.191407 1.980469,5.074219 l -0.0039,2.964844 c 0,1.195313 0.988281,2.164063 2.214843,2.164063 h 2.851563 c 1.226563,0 2.214844,-0.96875 2.214844,-2.164063 l 0.0078,-2.964844 c 0,-1.9375 0.640625,-3.707031 1.863281,-4.960937 1.339844,-1.367188 2.039063,-3.132813 2.039063,-4.960938 C 21.574219,8.296875 18.132812,5.046875 14,5.046875 Z m 2.558594,20.1875 c 0,0.566406 -0.464844,1.027344 -1.050782,1.027344 H 12.65625 c -0.585938,0 -1.050781,-0.453125 -1.050781,-1.027344 v -1.3125 h 4.949219 v 1.3125 z m 2.167968,-8.722656 c -1.457031,1.480469 -2.214843,3.53125 -2.214843,5.757812 V 22.78125 H 11.5625 v -0.511719 c 0,-2.113281 -0.875,-4.21875 -2.332031,-5.8125 C 7.953125,15.089844 7.425781,13.320312 7.65625,11.496094 8.066406,8.761719 10.609375,6.191406 14.003906,6.191406 c 3.554688,0 6.410156,2.792969 6.410156,6.15625 0,1.539063 -0.585937,3.019532 -1.6875,4.164063 z m 0,0"
     id="path1329" /><path
     style="fill:#ed695c;fill-opacity:1;fill-rule:nonzero;stroke:none"
     d="m 13.414062,0.601562 h 1.164063 v 2.734376 h -1.164063 z m 0,0"
     id="path1331" /><path
     style="fill:#ed695c;fill-opacity:1;fill-rule:nonzero;stroke:none"
     d="M 21.058594,5.875 21.875,6.6875 23.871094,4.769531 23.050781,3.953125 Z m 0,0"
     id="path1333" /><path
     style="fill:#ed695c;fill-opacity:1;fill-rule:nonzero;stroke:none"
     d="m 24.542969,12.917969 h 2.855469 v 1.140625 h -2.855469 z m 0,0"
     id="path1335" /><path
     style="fill:#ed695c;fill-opacity:1;fill-rule:nonzero;stroke:none"
     d="m 0.601562,12.917969 h 2.855469 v 1.140625 H 0.601562 Z m 0,0"
     id="path1337" /><path
     style="fill:#ed695c;fill-opacity:1;fill-rule:nonzero;stroke:none"
     d="m 4.925781,3.949219 -0.820312,0.8125 1.996093,1.921875 0.816407,-0.816406 z m 0,0"
     id="path1339" /></g><g
   id="surface1-2"
   transform="matrix(1.4285714,0,0,1.4285714,51.014137,114.59943)"
   style="fill:#ed695c;fill-opacity:1"><path
     style="fill:#ed695c;fill-opacity:1;fill-rule:nonzero;stroke:none"
     d="m 12.621094,19.375 -0.367188,3.3125 c -0.01953,0.164062 0.03516,0.328125 0.144532,0.453125 0.109374,0.121094 0.269531,0.191406 0.433593,0.191406 h 2.335938 c 0.164062,0 0.324219,-0.07031 0.433593,-0.191406 0.109376,-0.125 0.164063,-0.289063 0.144532,-0.453125 L 15.378906,19.375 c 0.597656,-0.433594 0.953125,-1.121094 0.953125,-1.875 0,-1.285156 -1.046875,-2.332031 -2.332031,-2.332031 -1.285156,0 -2.332031,1.046875 -2.332031,2.332031 0,0.753906 0.355469,1.441406 0.953125,1.875 z M 14,16.332031 c 0.644531,0 1.167969,0.523438 1.167969,1.167969 0,0.445312 -0.253907,0.847656 -0.664063,1.046875 -0.222656,0.105469 -0.355468,0.34375 -0.324218,0.589844 l 0.335937,3.03125 h -1.03125 l 0.339844,-3.03125 C 13.851562,18.890625 13.71875,18.652344 13.496094,18.546875 13.085938,18.347656 12.832031,17.945312 12.832031,17.5 c 0,-0.644531 0.523438,-1.167969 1.167969,-1.167969 z m 0,0"
     id="path1386" /><path
     style="fill:#ed695c;fill-opacity:1;fill-rule:nonzero;stroke:none"
     d="m 23.917969,10.5 h -1.75 V 8.167969 C 22.167969,3.664062 18.503906,0 14,0 9.496094,0 5.832031,3.664062 5.832031,8.167969 V 8.75 c 0,0.324219 0.261719,0.582031 0.585938,0.582031 H 8.75 c 0.324219,0 0.582031,-0.257812 0.582031,-0.582031 V 8.167969 C 9.332031,5.59375 11.425781,3.5 14,3.5 c 2.574219,0 4.667969,2.09375 4.667969,4.667969 V 10.5 H 4.082031 C 3.761719,10.5 3.5,10.761719 3.5,11.082031 V 25.667969 C 3.5,26.953125 4.546875,28 5.832031,28 H 22.167969 C 23.453125,28 24.5,26.953125 24.5,25.667969 V 11.082031 C 24.5,10.761719 24.238281,10.5 23.917969,10.5 Z M 14,2.332031 c -3.214844,0 -5.832031,2.617188 -5.832031,5.835938 H 7 c 0,-3.859375 3.140625,-7 7,-7 3.859375,0 7,3.140625 7,7 V 10.5 H 19.832031 V 8.167969 C 19.832031,4.949219 17.214844,2.332031 14,2.332031 Z m 9.332031,23.335938 c 0,0.640625 -0.523437,1.164062 -1.164062,1.164062 H 5.832031 c -0.640625,0 -1.164062,-0.523437 -1.164062,-1.164062 v -14 h 18.664062 z m 0,0"
     id="path1388" /></g><g
   id="surface1-1"
   transform="matrix(1.4285714,0,0,1.4285714,114.54441,55.506598)"
   style="fill:#ed695c;fill-opacity:1"><path
     style="fill:#ed695c;fill-opacity:1;fill-rule:nonzero;stroke:none"
     d="M 22.765625,17.230469 14.65625,10 c -0.375,-0.332031 -0.9375,-0.332031 -1.3125,0 l -8.109375,7.230469 c -0.210937,0.1875 -0.332031,0.453125 -0.332031,0.734375 v 9.050781 C 4.902344,27.558594 5.34375,28 5.890625,28 h 16.21875 c 0.546875,0 0.988281,-0.441406 0.988281,-0.984375 v -9.050781 c 0,-0.28125 -0.121094,-0.546875 -0.332031,-0.734375 z M 21.125,26.03125 H 6.875 v -7.625 L 14,12.054688 21.125,18.40625 Z m 0,0"
     id="path1415" /><path
     style="fill:#ed695c;fill-opacity:1;fill-rule:nonzero;stroke:none"
     d="M 8.949219,8.578125 C 10.300781,7.226562 12.09375,6.484375 14,6.484375 c 1.90625,0 3.699219,0.742187 5.050781,2.09375 0.191407,0.191406 0.441407,0.285156 0.695313,0.285156 0.25,0 0.503906,-0.09375 0.695312,-0.285156 0.386719,-0.386719 0.386719,-1.011719 0,-1.394531 C 18.722656,5.460938 16.433594,4.515625 14,4.515625 c -2.433594,0 -4.722656,0.945313 -6.441406,2.667969 -0.386719,0.382812 -0.386719,1.007812 0,1.394531 0.382812,0.382813 1.007812,0.382813 1.390625,0 z m 0,0"
     id="path1417" /><path
     style="fill:#ed695c;fill-opacity:1;fill-rule:nonzero;stroke:none"
     d="M 23.632812,3.992188 C 21.0625,1.417969 17.640625,0 14,0 10.359375,0 6.9375,1.417969 4.367188,3.992188 3.980469,4.375 3.980469,5 4.367188,5.382812 4.558594,5.574219 4.808594,5.671875 5.0625,5.671875 c 0.25,0 0.503906,-0.097656 0.695312,-0.289063 C 7.960938,3.183594 10.886719,1.96875 14,1.96875 c 3.113281,0 6.039062,1.214844 8.242188,3.414062 0.382812,0.386719 1.007812,0.386719 1.390624,0 C 24.019531,5 24.019531,4.375 23.632812,3.992188 Z m 0,0"
     id="path1419" /></g><path
   style="fill:#ed695c;fill-opacity:1;fill-rule:nonzero;stroke:none;stroke-width:1.42861"
   d="m 150.79274,139.91887 c -1.64625,-0.94869 -7.9913,-3.56595 -12.52269,-4.50906 -0.21207,-0.68083 -0.56922,-1.28911 -1.04356,-1.80251 0.60269,-1.83042 1.12169,-4.10727 1.52348,-6.2781 2.54472,1.36165 4.45326,3.72222 5.21779,6.54038 0.173,0.62502 0.81476,0.99333 1.43978,0.82034 0.62501,-0.16742 0.99333,-0.81475 0.82033,-1.43978 -1.00449,-3.69431 -3.61618,-6.74685 -7.0761,-8.33172 0.13394,-0.88173 0.23997,-1.70206 0.32367,-2.42195 5.36289,2.15966 9.11858,7.26026 9.5148,13.09749 0.0391,0.61944 0.55805,1.09379 1.16632,1.09379 0.0279,0 0.0558,-0.005 0.0781,-0.005 0.64735,-0.0447 1.13843,-0.6027 1.09378,-1.25004 -0.49108,-7.20447 -5.28475,-13.11982 -11.68562,-15.37436 -0.0893,-3.153 -2.67865,-5.68655 -5.85397,-5.68655 -3.23112,0 -5.85955,2.62843 -5.85955,5.85955 0,1.86948 0.95985,8.92326 2.42753,13.37652 -0.47434,0.51341 -0.83708,1.12168 -1.04356,1.80251 -1.85831,0.38505 -4.02914,1.04913 -6.06044,1.76344 -0.10608,-2.92978 0.98774,-5.72003 3.05254,-7.80157 0.45761,-0.4576 0.45202,-1.19981 -0.005,-1.65741 -0.46318,-0.45761 -1.2054,-0.45203 -1.65741,0.005 -2.80142,2.82374 -4.03473,6.5906 -3.68315,10.30164 -0.82591,0.32367 -1.59045,0.63618 -2.24895,0.92078 -0.82033,-5.80373 1.72996,-11.52378 6.57943,-14.79397 0.53573,-0.35715 0.67525,-1.08819 0.3181,-1.62392 -0.36274,-0.53573 -1.09378,-0.68083 -1.62951,-0.3181 -5.82608,3.92312 -8.7447,10.89877 -7.47234,17.80188 -2.68982,1.65742 -3.58828,5.16199 -1.99782,7.91877 1.60719,2.77911 5.16198,3.76127 7.97457,2.15966 0.0111,-0.005 0.0223,-0.0111 0.0279,-0.0167 1.58486,-0.9152 7.12074,-5.21221 10.24026,-8.70562 0.68083,0.15626 1.38396,0.15626 2.08154,0 1.23329,1.38955 2.85722,2.92978 4.46441,4.33607 -2.49449,1.57929 -5.51914,2.03689 -8.33172,1.2891 -0.62502,-0.16184 -1.26678,0.21206 -1.4342,0.83708 -0.16741,0.62502 0.20649,1.26677 0.8315,1.42862 3.64408,0.96543 7.61184,0.29018 10.78716,-1.98109 0.68641,0.55805 1.33374,1.06588 1.90854,1.50116 -4.64858,3.66083 -10.93783,4.23561 -16.09982,1.70206 -0.58596,-0.2846 -1.28352,-0.0447 -1.56812,0.53573 -0.28461,0.58596 -0.0447,1.28352 0.53573,1.56812 6.12741,3.0079 13.70018,2.24337 19.15236,-2.42752 2.76235,1.48999 6.25577,0.54688 7.85738,-2.22663 1.61835,-2.80701 0.65849,-6.38412 -2.14293,-8.00805 z m -29.454,8.11966 c -1.67974,0.97101 -3.82825,0.39622 -4.79926,-1.28352 -0.97101,-1.68532 -0.39621,-3.83382 1.28353,-4.80483 1.31699,-0.75895 7.11516,-3.13626 11.39542,-4.124 0.21206,0.9431 0.70873,1.77459 1.38956,2.4052 -3.03023,3.25902 -7.99689,7.0761 -9.26925,7.80715 z m 12.45015,-8.90094 c -1.28911,0 -2.34382,-1.05471 -2.34382,-2.34382 0,-1.29468 1.05471,-2.34382 2.34382,-2.34382 1.29467,0 2.34382,1.04914 2.34382,2.34382 0,1.28911 -1.04915,2.34382 -2.34382,2.34382 z m 1.38954,-6.82498 c -0.89846,-0.27903 -1.87505,-0.27903 -2.77352,0 -1.28909,-4.23004 -2.13175,-10.62531 -2.13175,-12.08183 0,-1.93644 1.57929,-3.51573 3.51573,-3.51573 1.94202,0 3.51573,1.57929 3.51573,3.51573 0,1.46209 -0.84266,7.85737 -2.12619,12.08183 z m 15.72593,14.4424 c -0.97101,1.67974 -3.11952,2.25453 -4.79926,1.28352 -1.36164,-0.78127 -6.20554,-4.64858 -9.13531,-7.80715 0.68082,-0.63061 1.17749,-1.4621 1.38954,-2.39963 4.24121,0.98776 9.97798,3.3818 11.2615,4.11843 1.67974,0.97101 2.25454,3.11951 1.28353,4.80483 z m 0,0"
   id="path1434" /></svg>
