<?xml version="1.0" encoding="UTF-8"?>
<svg xmlns="http://www.w3.org/2000/svg" xmlns:xlink="http://www.w3.org/1999/xlink" width="28pt" height="28pt" viewBox="0 0 28 28" version="1.1">
<g id="surface1">
<path style=" stroke:none;fill-rule:nonzero;fill:rgb(0%,0%,0%);fill-opacity:1;" d="M 25.199219 11.199219 C 25.199219 10.941406 24.992188 10.734375 24.734375 10.734375 L 23.324219 10.734375 C 23.117188 4.773438 19.015625 0 14 0 C 8.984375 0 4.882812 4.773438 4.675781 10.734375 L 3.265625 10.734375 C 3.007812 10.734375 2.800781 10.941406 2.800781 11.199219 C 2.800781 17.851562 7.082031 23.355469 12.601562 24.160156 L 12.601562 25.199219 L 8.867188 25.199219 C 8.609375 25.199219 8.398438 25.410156 8.398438 25.667969 L 8.398438 27.535156 C 8.398438 27.792969 8.609375 28 8.867188 28 L 19.132812 28 C 19.390625 28 19.601562 27.792969 19.601562 27.535156 L 19.601562 25.667969 C 19.601562 25.410156 19.390625 25.199219 19.132812 25.199219 L 15.398438 25.199219 L 15.398438 24.160156 C 20.917969 23.355469 25.199219 17.851562 25.199219 11.199219 Z M 14 0.933594 C 18.632812 0.933594 22.398438 5.539062 22.398438 11.199219 C 22.398438 16.859375 18.632812 21.464844 14 21.464844 C 9.367188 21.464844 5.601562 16.859375 5.601562 11.199219 C 5.601562 5.539062 9.367188 0.933594 14 0.933594 Z M 18.667969 26.132812 L 18.667969 27.066406 L 9.332031 27.066406 L 9.332031 26.132812 Z M 13.535156 25.199219 L 13.535156 24.265625 L 14.464844 24.265625 L 14.464844 25.199219 Z M 14 23.332031 C 8.472656 23.332031 3.949219 18.140625 3.742188 11.667969 L 4.675781 11.667969 C 4.882812 17.625 8.984375 22.398438 14 22.398438 C 19.015625 22.398438 23.117188 17.625 23.324219 11.667969 L 24.257812 11.667969 C 24.050781 18.140625 19.527344 23.332031 14 23.332031 Z M 14 23.332031 "/>
<path style=" stroke:none;fill-rule:nonzero;fill:rgb(0%,0%,0%);fill-opacity:1;" d="M 14 20.535156 C 18.117188 20.535156 21.464844 16.347656 21.464844 11.199219 C 21.464844 6.054688 18.117188 1.867188 14 1.867188 C 9.882812 1.867188 6.535156 6.054688 6.535156 11.199219 C 6.535156 16.347656 9.882812 20.535156 14 20.535156 Z M 14 2.800781 C 17.601562 2.800781 20.535156 6.566406 20.535156 11.199219 C 20.535156 15.832031 17.601562 19.601562 14 19.601562 C 10.398438 19.601562 7.464844 15.832031 7.464844 11.199219 C 7.464844 6.566406 10.398438 2.800781 14 2.800781 Z M 14 2.800781 "/>
<path style=" stroke:none;fill-rule:nonzero;fill:rgb(0%,0%,0%);fill-opacity:1;" d="M 16.664062 5.929688 L 11.0625 11.53125 L 10.402344 10.871094 L 16.003906 5.269531 Z M 16.664062 5.929688 "/>
<path style=" stroke:none;fill-rule:nonzero;fill:rgb(0%,0%,0%);fill-opacity:1;" d="M 8.070312 10.402344 L 13.671875 4.804688 L 14.328125 5.464844 L 8.730469 11.0625 Z M 8.070312 10.402344 "/>
</g>
</svg>
