<?xml version="1.0" encoding="UTF-8"?>
<svg xmlns="http://www.w3.org/2000/svg" xmlns:xlink="http://www.w3.org/1999/xlink" width="28pt" height="28pt" viewBox="0 0 28 28" version="1.1">
<g id="surface1">
<path style=" stroke:none;fill-rule:nonzero;fill:rgb(0%,0%,0%);fill-opacity:1;" d="M 16.46875 7.230469 L 9.765625 0.523438 C 9.0625 -0.175781 7.933594 -0.175781 7.230469 0.523438 L 0.523438 7.230469 C -0.175781 7.933594 -0.175781 9.0625 0.523438 9.765625 L 7.230469 16.46875 C 7.933594 17.164062 9.0625 17.164062 9.765625 16.46875 L 11.191406 15.046875 L 16.46875 9.765625 C 17.164062 9.0625 17.164062 7.933594 16.46875 7.230469 Z M 9.363281 5.339844 L 5.335938 9.355469 C 4.703125 9.988281 3.675781 9.988281 3.039062 9.355469 C 2.40625 8.71875 2.40625 7.691406 3.039062 7.058594 L 3.046875 7.058594 L 7.066406 3.042969 C 7.699219 2.410156 8.726562 2.410156 9.363281 3.042969 C 9.996094 3.675781 9.996094 4.707031 9.363281 5.339844 Z M 9.363281 5.339844 "/>
<path style=" stroke:none;fill-rule:nonzero;fill:rgb(0%,0%,0%);fill-opacity:1;" d="M 12.675781 14.707031 L 12.039062 15.34375 L 24.144531 27.449219 L 25.640625 27.660156 Z M 12.675781 14.707031 "/>
<path style=" stroke:none;fill-rule:nonzero;fill:rgb(0%,0%,0%);fill-opacity:1;" d="M 27.449219 24.148438 L 26.203125 22.90625 L 24.304688 23.414062 C 24.089844 23.472656 23.871094 23.34375 23.8125 23.128906 C 23.792969 23.0625 23.792969 22.992188 23.8125 22.925781 L 24.320312 21.019531 L 23.554688 20.253906 C 22.8125 20.996094 21.609375 20.996094 20.871094 20.253906 C 20.128906 19.511719 20.128906 18.3125 20.871094 17.570312 L 15.34375 12.039062 L 13.242188 14.140625 L 26.964844 27.851562 L 28 28 Z M 27.449219 24.148438 "/>
</g>
</svg>
