<?xml version="1.0" encoding="UTF-8"?>
<svg xmlns="http://www.w3.org/2000/svg" xmlns:xlink="http://www.w3.org/1999/xlink" width="28pt" height="28pt" viewBox="0 0 28 28" version="1.1">
<g id="surface1">
<path style=" stroke:none;fill-rule:nonzero;fill:rgb(0%,0%,0%);fill-opacity:1;" d="M 22.328125 8.261719 L 1.738281 8.261719 C 1.457031 8.261719 1.226562 8.488281 1.226562 8.769531 L 1.226562 27.492188 C 1.226562 27.773438 1.457031 28 1.738281 28 L 22.328125 28 C 22.613281 28 22.839844 27.773438 22.839844 27.492188 L 22.839844 8.769531 C 22.839844 8.488281 22.613281 8.261719 22.328125 8.261719 Z M 21.820312 26.980469 L 2.246094 26.980469 L 2.246094 9.28125 L 21.820312 9.28125 Z M 21.820312 26.980469 "/>
<path style=" stroke:none;fill-rule:nonzero;fill:rgb(0%,0%,0%);fill-opacity:1;" d="M 3.53125 26.207031 L 20.535156 26.207031 C 20.816406 26.207031 21.046875 25.976562 21.046875 25.695312 L 21.046875 10.5625 C 21.046875 10.28125 20.816406 10.054688 20.535156 10.054688 L 3.53125 10.054688 C 3.25 10.054688 3.023438 10.28125 3.023438 10.5625 L 3.023438 25.695312 C 3.023438 25.976562 3.25 26.207031 3.53125 26.207031 Z M 4.042969 11.074219 L 20.027344 11.074219 L 20.027344 25.1875 L 4.042969 25.1875 Z M 4.042969 11.074219 "/>
<path style=" stroke:none;fill-rule:nonzero;fill:rgb(0%,0%,0%);fill-opacity:1;" d="M 17.648438 15.28125 L 6.417969 15.28125 C 6.136719 15.28125 5.90625 15.507812 5.90625 15.789062 L 5.90625 22.652344 C 5.90625 22.9375 6.136719 23.164062 6.417969 23.164062 L 17.648438 23.164062 C 17.929688 23.164062 18.160156 22.9375 18.160156 22.652344 L 18.160156 15.789062 C 18.160156 15.507812 17.929688 15.28125 17.648438 15.28125 Z M 17.140625 22.144531 L 6.925781 22.144531 L 6.925781 16.300781 L 17.140625 16.300781 Z M 17.140625 22.144531 "/>
<path style=" stroke:none;fill-rule:nonzero;fill:rgb(0%,0%,0%);fill-opacity:1;" d="M 19.121094 12.003906 C 18.839844 12.003906 18.609375 12.234375 18.609375 12.515625 L 18.609375 13.175781 L 5.925781 13.175781 L 5.925781 12.515625 C 5.925781 12.234375 5.695312 12.003906 5.414062 12.003906 C 5.132812 12.003906 4.90625 12.234375 4.90625 12.515625 L 4.90625 13.683594 C 4.90625 13.964844 5.132812 14.195312 5.414062 14.195312 L 19.121094 14.195312 C 19.402344 14.195312 19.628906 13.964844 19.628906 13.683594 L 19.628906 12.515625 C 19.628906 12.234375 19.402344 12.003906 19.121094 12.003906 Z M 19.121094 12.003906 "/>
<path style=" stroke:none;fill-rule:nonzero;fill:rgb(0%,0%,0%);fill-opacity:1;" d="M 1.847656 2.421875 L 2.195312 2.421875 L 2.195312 6.46875 C 2.195312 7.25 2.832031 7.882812 3.613281 7.882812 L 9.289062 7.882812 C 10.070312 7.882812 10.703125 7.25 10.703125 6.46875 L 10.703125 2.421875 L 11.050781 2.421875 C 11.332031 2.421875 11.5625 2.195312 11.5625 1.914062 C 11.5625 1.632812 11.332031 1.402344 11.050781 1.402344 L 6.804688 1.402344 L 6.804688 0.507812 C 6.804688 0.226562 6.574219 0 6.292969 0 C 6.011719 0 5.785156 0.226562 5.785156 0.507812 L 5.785156 1.402344 L 1.847656 1.402344 C 1.566406 1.402344 1.339844 1.632812 1.339844 1.914062 C 1.339844 2.195312 1.566406 2.421875 1.847656 2.421875 Z M 9.683594 2.421875 L 9.683594 6.46875 C 9.683594 6.6875 9.507812 6.863281 9.289062 6.863281 L 3.613281 6.863281 C 3.394531 6.863281 3.214844 6.6875 3.214844 6.46875 L 3.214844 2.421875 Z M 9.683594 2.421875 "/>
<path style=" stroke:none;fill-rule:nonzero;fill:rgb(0%,0%,0%);fill-opacity:1;" d="M 26.261719 4.804688 L 13.78125 4.804688 C 13.625 4.804688 13.480469 4.875 13.382812 4.996094 C 13.285156 5.117188 13.25 5.277344 13.285156 5.429688 L 13.761719 7.488281 C 13.816406 7.71875 14.023438 7.882812 14.257812 7.882812 L 20.792969 7.882812 C 21.03125 7.882812 21.234375 7.71875 21.289062 7.488281 L 21.675781 5.824219 L 26.261719 5.824219 C 26.542969 5.824219 26.773438 5.59375 26.773438 5.3125 C 26.773438 5.03125 26.542969 4.804688 26.261719 4.804688 Z M 20.386719 6.863281 L 14.664062 6.863281 L 14.421875 5.824219 L 20.628906 5.824219 Z M 20.386719 6.863281 "/>
<path style=" stroke:none;fill-rule:nonzero;fill:rgb(0%,0%,0%);fill-opacity:1;" d="M 8.722656 18.679688 L 15.34375 18.679688 C 15.625 18.679688 15.851562 18.449219 15.851562 18.167969 C 15.851562 17.886719 15.625 17.660156 15.34375 17.660156 L 8.722656 17.660156 C 8.441406 17.660156 8.214844 17.886719 8.214844 18.167969 C 8.214844 18.449219 8.441406 18.679688 8.722656 18.679688 Z M 8.722656 18.679688 "/>
<path style=" stroke:none;fill-rule:nonzero;fill:rgb(0%,0%,0%);fill-opacity:1;" d="M 8.722656 20.785156 L 15.34375 20.785156 C 15.625 20.785156 15.851562 20.558594 15.851562 20.273438 C 15.851562 19.992188 15.625 19.765625 15.34375 19.765625 L 8.722656 19.765625 C 8.441406 19.765625 8.214844 19.992188 8.214844 20.273438 C 8.214844 20.558594 8.441406 20.785156 8.722656 20.785156 Z M 8.722656 20.785156 "/>
</g>
</svg>
