<?xml version="1.0" encoding="UTF-8"?>
<svg xmlns="http://www.w3.org/2000/svg" xmlns:xlink="http://www.w3.org/1999/xlink" width="28pt" height="28pt" viewBox="0 0 28 28" version="1.1">
<g id="surface1">
<path style=" stroke:none;fill-rule:nonzero;fill:rgb(0%,0%,0%);fill-opacity:1;" d="M 20.066406 16.800781 L 7.933594 16.800781 C 7.675781 16.800781 7.464844 17.007812 7.464844 17.265625 L 7.464844 27.535156 C 7.464844 27.792969 7.675781 28 7.933594 28 L 20.066406 28 C 20.324219 28 20.535156 27.792969 20.535156 27.535156 L 20.535156 17.265625 C 20.535156 17.007812 20.324219 16.800781 20.066406 16.800781 Z M 19.601562 27.066406 L 8.398438 27.066406 L 8.398438 17.734375 L 19.601562 17.734375 Z M 19.601562 27.066406 "/>
<path style=" stroke:none;fill-rule:nonzero;fill:rgb(0%,0%,0%);fill-opacity:1;" d="M 20.066406 16.800781 L 7.933594 16.800781 C 7.675781 16.800781 7.464844 17.007812 7.464844 17.265625 L 7.464844 27.535156 C 7.464844 27.792969 7.675781 28 7.933594 28 L 20.066406 28 C 20.324219 28 20.535156 27.792969 20.535156 27.535156 L 20.535156 17.265625 C 20.535156 17.007812 20.324219 16.800781 20.066406 16.800781 Z M 19.601562 27.066406 L 8.398438 27.066406 L 8.398438 17.734375 L 19.601562 17.734375 Z M 19.601562 27.066406 "/>
<path style=" stroke:none;fill-rule:nonzero;fill:rgb(0%,0%,0%);fill-opacity:1;" d="M 7.933594 16.800781 L 0.464844 16.800781 C 0.210938 16.800781 0 17.007812 0 17.265625 L 0 27.535156 C 0 27.792969 0.210938 28 0.464844 28 L 7.933594 28 C 8.191406 28 8.398438 27.792969 8.398438 27.535156 L 8.398438 17.265625 C 8.398438 17.007812 8.191406 16.800781 7.933594 16.800781 Z M 7.464844 27.066406 L 0.933594 27.066406 L 0.933594 17.734375 L 7.464844 17.734375 Z M 7.464844 27.066406 "/>
<path style=" stroke:none;fill-rule:nonzero;fill:rgb(0%,0%,0%);fill-opacity:1;" d="M 27.535156 16.800781 L 20.066406 16.800781 C 19.808594 16.800781 19.601562 17.007812 19.601562 17.265625 L 19.601562 27.535156 C 19.601562 27.792969 19.808594 28 20.066406 28 L 27.535156 28 C 27.792969 28 28 27.792969 28 27.535156 L 28 17.265625 C 28 17.007812 27.792969 16.800781 27.535156 16.800781 Z M 27.066406 27.066406 L 20.535156 27.066406 L 20.535156 17.734375 L 27.066406 17.734375 Z M 27.066406 27.066406 "/>
<path style=" stroke:none;fill-rule:nonzero;fill:rgb(0%,0%,0%);fill-opacity:1;" d="M 18.199219 20.535156 L 9.800781 20.535156 C 9.542969 20.535156 9.332031 20.742188 9.332031 21 L 9.332031 25.667969 C 9.332031 25.925781 9.542969 26.132812 9.800781 26.132812 L 18.199219 26.132812 C 18.457031 26.132812 18.667969 25.925781 18.667969 25.667969 L 18.667969 21 C 18.667969 20.742188 18.457031 20.535156 18.199219 20.535156 Z M 17.734375 25.199219 L 10.265625 25.199219 L 10.265625 21.464844 L 17.734375 21.464844 Z M 17.734375 25.199219 "/>
<path style=" stroke:none;fill-rule:nonzero;fill:rgb(0%,0%,0%);fill-opacity:1;" d="M 14.464844 18.667969 L 15.398438 18.667969 L 15.398438 19.601562 L 14.464844 19.601562 Z M 14.464844 18.667969 "/>
<path style=" stroke:none;fill-rule:nonzero;fill:rgb(0%,0%,0%);fill-opacity:1;" d="M 12.601562 18.667969 L 13.535156 18.667969 L 13.535156 19.601562 L 12.601562 19.601562 Z M 12.601562 18.667969 "/>
<path style=" stroke:none;fill-rule:nonzero;fill:rgb(0%,0%,0%);fill-opacity:1;" d="M 10.734375 18.667969 L 11.667969 18.667969 L 11.667969 19.601562 L 10.734375 19.601562 Z M 10.734375 18.667969 "/>
<path style=" stroke:none;fill-rule:nonzero;fill:rgb(0%,0%,0%);fill-opacity:1;" d="M 16.332031 18.667969 L 17.265625 18.667969 L 17.265625 19.601562 L 16.332031 19.601562 Z M 16.332031 18.667969 "/>
<path style=" stroke:none;fill-rule:nonzero;fill:rgb(0%,0%,0%);fill-opacity:1;" d="M 0.464844 20.535156 L 7.933594 20.535156 L 7.933594 21.464844 L 0.464844 21.464844 Z M 0.464844 20.535156 "/>
<path style=" stroke:none;fill-rule:nonzero;fill:rgb(0%,0%,0%);fill-opacity:1;" d="M 3.265625 18.667969 L 5.132812 18.667969 L 5.132812 19.601562 L 3.265625 19.601562 Z M 3.265625 18.667969 "/>
<path style=" stroke:none;fill-rule:nonzero;fill:rgb(0%,0%,0%);fill-opacity:1;" d="M 3.265625 22.398438 L 5.132812 22.398438 L 5.132812 23.332031 L 3.265625 23.332031 Z M 3.265625 22.398438 "/>
<path style=" stroke:none;fill-rule:nonzero;fill:rgb(0%,0%,0%);fill-opacity:1;" d="M 20.066406 20.535156 L 27.535156 20.535156 L 27.535156 21.464844 L 20.066406 21.464844 Z M 20.066406 20.535156 "/>
<path style=" stroke:none;fill-rule:nonzero;fill:rgb(0%,0%,0%);fill-opacity:1;" d="M 23.332031 21 L 24.265625 21 L 24.265625 27.535156 L 23.332031 27.535156 Z M 23.332031 21 "/>
<path style=" stroke:none;fill-rule:nonzero;fill:rgb(0%,0%,0%);fill-opacity:1;" d="M 22.867188 18.667969 L 24.734375 18.667969 L 24.734375 19.601562 L 22.867188 19.601562 Z M 22.867188 18.667969 "/>
<path style=" stroke:none;fill-rule:nonzero;fill:rgb(0%,0%,0%);fill-opacity:1;" d="M 21.464844 23.332031 L 22.398438 23.332031 L 22.398438 24.734375 L 21.464844 24.734375 Z M 21.464844 23.332031 "/>
<path style=" stroke:none;fill-rule:nonzero;fill:rgb(0%,0%,0%);fill-opacity:1;" d="M 25.199219 23.332031 L 26.132812 23.332031 L 26.132812 24.734375 L 25.199219 24.734375 Z M 25.199219 23.332031 "/>
<path style=" stroke:none;fill-rule:nonzero;fill:rgb(0%,0%,0%);fill-opacity:1;" d="M 19.929688 7.601562 L 18.199219 5.875 L 18.199219 0.464844 C 18.199219 0.210938 17.992188 0 17.734375 0 L 10.265625 0 C 10.007812 0 9.800781 0.210938 9.800781 0.464844 L 9.800781 5.875 L 8.070312 7.601562 C 7.9375 7.738281 7.898438 7.9375 7.96875 8.113281 C 8.042969 8.285156 8.210938 8.398438 8.398438 8.398438 L 19.601562 8.398438 C 19.789062 8.398438 19.960938 8.285156 20.03125 8.113281 C 20.101562 7.9375 20.0625 7.738281 19.929688 7.601562 Z M 9.527344 7.464844 L 10.597656 6.398438 C 10.683594 6.308594 10.734375 6.191406 10.734375 6.066406 L 10.734375 0.933594 L 17.265625 0.933594 L 17.265625 6.066406 C 17.265625 6.191406 17.316406 6.308594 17.402344 6.398438 L 18.472656 7.464844 Z M 9.527344 7.464844 "/>
<path style=" stroke:none;fill-rule:nonzero;fill:rgb(0%,0%,0%);fill-opacity:1;" d="M 25.199219 10.265625 C 24.171875 10.265625 23.332031 11.105469 23.332031 12.132812 L 23.332031 12.601562 L 24.265625 12.601562 L 24.265625 12.132812 C 24.265625 11.617188 24.683594 11.199219 25.199219 11.199219 C 25.714844 11.199219 26.132812 11.617188 26.132812 12.132812 L 26.132812 17.265625 L 27.066406 17.265625 L 27.066406 12.132812 C 27.066406 11.105469 26.230469 10.265625 25.199219 10.265625 Z M 25.199219 10.265625 "/>
<path style=" stroke:none;fill-rule:nonzero;fill:rgb(0%,0%,0%);fill-opacity:1;" d="M 25.199219 14.933594 L 26.601562 14.933594 L 26.601562 15.867188 L 25.199219 15.867188 Z M 25.199219 14.933594 "/>
<path style=" stroke:none;fill-rule:nonzero;fill:rgb(0%,0%,0%);fill-opacity:1;" d="M 13.535156 14 L 8.867188 14 C 8.609375 14 8.398438 14.207031 8.398438 14.464844 L 8.398438 17.265625 C 8.398438 17.523438 8.609375 17.734375 8.867188 17.734375 L 13.535156 17.734375 C 13.789062 17.734375 14 17.523438 14 17.265625 L 14 14.464844 C 14 14.207031 13.789062 14 13.535156 14 Z M 13.066406 16.800781 L 9.332031 16.800781 L 9.332031 14.933594 L 13.066406 14.933594 Z M 13.066406 16.800781 "/>
<path style=" stroke:none;fill-rule:nonzero;fill:rgb(0%,0%,0%);fill-opacity:1;" d="M 7.464844 14.933594 L 8.867188 14.933594 L 8.867188 15.867188 L 7.464844 15.867188 Z M 7.464844 14.933594 "/>
<path style=" stroke:none;fill-rule:nonzero;fill:rgb(0%,0%,0%);fill-opacity:1;" d="M 13.535156 14.933594 L 14.933594 14.933594 L 14.933594 15.867188 L 13.535156 15.867188 Z M 13.535156 14.933594 "/>
<path style=" stroke:none;fill-rule:nonzero;fill:rgb(0%,0%,0%);fill-opacity:1;" d="M 7.933594 0 L 0.464844 0 C 0.210938 0 0 0.210938 0 0.464844 L 0 6.066406 C 0 6.324219 0.210938 6.535156 0.464844 6.535156 L 7.933594 6.535156 C 8.191406 6.535156 8.398438 6.324219 8.398438 6.066406 L 8.398438 0.464844 C 8.398438 0.210938 8.191406 0 7.933594 0 Z M 7.464844 5.601562 L 0.933594 5.601562 L 0.933594 0.933594 L 7.464844 0.933594 Z M 7.464844 5.601562 "/>
<path style=" stroke:none;fill-rule:nonzero;fill:rgb(0%,0%,0%);fill-opacity:1;" d="M 5.601562 2.800781 L 6.535156 2.800781 L 6.535156 4.667969 L 5.601562 4.667969 Z M 5.601562 2.800781 "/>
<path style=" stroke:none;fill-rule:nonzero;fill:rgb(0%,0%,0%);fill-opacity:1;" d="M 27.535156 0 L 20.066406 0 C 19.808594 0 19.601562 0.210938 19.601562 0.464844 L 19.601562 6.066406 C 19.601562 6.324219 19.808594 6.535156 20.066406 6.535156 L 27.535156 6.535156 C 27.792969 6.535156 28 6.324219 28 6.066406 L 28 0.464844 C 28 0.210938 27.792969 0 27.535156 0 Z M 27.066406 5.601562 L 20.535156 5.601562 L 20.535156 0.933594 L 27.066406 0.933594 Z M 27.066406 5.601562 "/>
<path style=" stroke:none;fill-rule:nonzero;fill:rgb(0%,0%,0%);fill-opacity:1;" d="M 21.464844 2.800781 L 22.398438 2.800781 L 22.398438 4.667969 L 21.464844 4.667969 Z M 21.464844 2.800781 "/>
<path style=" stroke:none;fill-rule:nonzero;fill:rgb(0%,0%,0%);fill-opacity:1;" d="M 0 9.332031 L 8.398438 9.332031 L 8.398438 10.265625 L 0 10.265625 Z M 0 9.332031 "/>
<path style=" stroke:none;fill-rule:nonzero;fill:rgb(0%,0%,0%);fill-opacity:1;" d="M 0.933594 8.398438 L 1.867188 8.398438 L 1.867188 12.601562 L 0.933594 12.601562 Z M 0.933594 8.398438 "/>
<path style=" stroke:none;fill-rule:nonzero;fill:rgb(0%,0%,0%);fill-opacity:1;" d="M 1.398438 12.132812 C 0.628906 12.132812 0 12.761719 0 13.535156 C 0 14.304688 0.628906 14.933594 1.398438 14.933594 C 2.171875 14.933594 2.800781 14.304688 2.800781 13.535156 C 2.800781 12.761719 2.171875 12.132812 1.398438 12.132812 Z M 1.398438 14 C 1.144531 14 0.933594 13.789062 0.933594 13.535156 C 0.933594 13.277344 1.144531 13.066406 1.398438 13.066406 C 1.65625 13.066406 1.867188 13.277344 1.867188 13.535156 C 1.867188 13.789062 1.65625 14 1.398438 14 Z M 1.398438 14 "/>
<path style=" stroke:none;fill-rule:nonzero;fill:rgb(0%,0%,0%);fill-opacity:1;" d="M 2.800781 8.398438 L 3.734375 8.398438 L 3.734375 12.601562 L 2.800781 12.601562 Z M 2.800781 8.398438 "/>
<path style=" stroke:none;fill-rule:nonzero;fill:rgb(0%,0%,0%);fill-opacity:1;" d="M 3.265625 12.132812 C 2.496094 12.132812 1.867188 12.761719 1.867188 13.535156 C 1.867188 14.304688 2.496094 14.933594 3.265625 14.933594 C 4.039062 14.933594 4.667969 14.304688 4.667969 13.535156 C 4.667969 12.761719 4.039062 12.132812 3.265625 12.132812 Z M 3.265625 14 C 3.007812 14 2.800781 13.789062 2.800781 13.535156 C 2.800781 13.277344 3.007812 13.066406 3.265625 13.066406 C 3.523438 13.066406 3.734375 13.277344 3.734375 13.535156 C 3.734375 13.789062 3.523438 14 3.265625 14 Z M 3.265625 14 "/>
<path style=" stroke:none;fill-rule:nonzero;fill:rgb(0%,0%,0%);fill-opacity:1;" d="M 4.667969 8.398438 L 5.601562 8.398438 L 5.601562 12.601562 L 4.667969 12.601562 Z M 4.667969 8.398438 "/>
<path style=" stroke:none;fill-rule:nonzero;fill:rgb(0%,0%,0%);fill-opacity:1;" d="M 5.132812 12.132812 C 4.363281 12.132812 3.734375 12.761719 3.734375 13.535156 C 3.734375 14.304688 4.363281 14.933594 5.132812 14.933594 C 5.90625 14.933594 6.535156 14.304688 6.535156 13.535156 C 6.535156 12.761719 5.90625 12.132812 5.132812 12.132812 Z M 5.132812 14 C 4.875 14 4.667969 13.789062 4.667969 13.535156 C 4.667969 13.277344 4.875 13.066406 5.132812 13.066406 C 5.390625 13.066406 5.601562 13.277344 5.601562 13.535156 C 5.601562 13.789062 5.390625 14 5.132812 14 Z M 5.132812 14 "/>
</g>
</svg>
