<?xml version="1.0" encoding="UTF-8"?>
<svg xmlns="http://www.w3.org/2000/svg" xmlns:xlink="http://www.w3.org/1999/xlink" width="28pt" height="28pt" viewBox="0 0 28 28" version="1.1">
<g id="surface1">
<path style=" stroke:none;fill-rule:nonzero;fill:rgb(0%,0%,0%);fill-opacity:1;" d="M 27.535156 6.535156 L 0.464844 6.535156 C 0.207031 6.535156 0 6.742188 0 7 L 0 9.800781 C 0.00390625 10.398438 0.386719 10.929688 0.953125 11.121094 C 1.15625 13.796875 3.382812 15.863281 6.066406 15.867188 L 21.933594 15.867188 C 24.617188 15.863281 26.84375 13.796875 27.046875 11.121094 C 27.613281 10.929688 27.996094 10.398438 28 9.800781 L 28 7 C 28 6.742188 27.792969 6.535156 27.535156 6.535156 Z M 21.933594 14.933594 L 6.066406 14.933594 C 3.929688 14.929688 2.132812 13.324219 1.890625 11.199219 L 26.109375 11.199219 C 25.867188 13.324219 24.070312 14.929688 21.933594 14.933594 Z M 27.066406 9.800781 C 27.066406 10.058594 26.859375 10.265625 26.601562 10.265625 L 1.398438 10.265625 C 1.140625 10.265625 0.933594 10.058594 0.933594 9.800781 L 0.933594 7.464844 L 27.066406 7.464844 Z M 27.066406 9.800781 "/>
<path style=" stroke:none;fill-rule:nonzero;fill:rgb(0%,0%,0%);fill-opacity:1;" d="M 13.535156 17.734375 L 14.464844 17.734375 L 14.464844 21.464844 L 13.535156 21.464844 Z M 13.535156 17.734375 "/>
<path style=" stroke:none;fill-rule:nonzero;fill:rgb(0%,0%,0%);fill-opacity:1;" d="M 18.21875 17.863281 L 19.117188 17.605469 L 20.046875 20.871094 L 19.152344 21.128906 Z M 18.21875 17.863281 "/>
<path style=" stroke:none;fill-rule:nonzero;fill:rgb(0%,0%,0%);fill-opacity:1;" d="M 7.953125 20.871094 L 8.882812 17.605469 L 9.78125 17.863281 L 8.847656 21.128906 Z M 7.953125 20.871094 "/>
</g>
</svg>
