<?xml version="1.0" encoding="UTF-8"?>
<svg xmlns="http://www.w3.org/2000/svg" xmlns:xlink="http://www.w3.org/1999/xlink" width="28pt" height="28pt" viewBox="0 0 28 28" version="1.1">
<g id="surface1">
<path style=" stroke:none;fill-rule:nonzero;fill:rgb(0%,0%,0%);fill-opacity:1;" d="M 21 25.199219 L 13.535156 25.199219 C 13.273438 25.199219 13.066406 25.410156 13.066406 25.667969 L 13.066406 27.535156 C 13.066406 27.789062 13.273438 28 13.535156 28 L 21 28 C 21.257812 28 21.464844 27.789062 21.464844 27.535156 L 21.464844 25.667969 C 21.464844 25.410156 21.257812 25.199219 21 25.199219 Z M 21 25.199219 "/>
<path style=" stroke:none;fill-rule:nonzero;fill:rgb(0%,0%,0%);fill-opacity:1;" d="M 21.730469 8.015625 L 10.0625 0.0820312 C 9.847656 -0.0625 9.558594 -0.0078125 9.414062 0.203125 C 9.269531 0.417969 9.324219 0.707031 9.539062 0.851562 L 10.546875 1.539062 L 9.800781 2.660156 L 9.800781 6.066406 L 6.535156 6.066406 C 6.277344 6.066406 6.066406 6.277344 6.066406 6.53125 L 6.066406 10.265625 C 6.066406 10.523438 6.277344 10.734375 6.535156 10.734375 L 14 10.734375 C 14.257812 10.734375 14.464844 10.523438 14.464844 10.265625 L 14.464844 6.53125 C 14.464844 6.277344 14.257812 6.066406 14 6.066406 L 10.734375 6.066406 L 10.734375 2.941406 L 11.320312 2.0625 L 16.800781 5.789062 L 16.800781 22.617188 L 15.609375 23.410156 C 15.476562 23.496094 15.398438 23.644531 15.398438 23.800781 L 15.398438 24.035156 C 15.398438 24.160156 15.503906 24.265625 15.632812 24.265625 L 18.898438 24.265625 C 19.027344 24.265625 19.132812 24.164062 19.132812 24.035156 L 19.132812 23.800781 C 19.132812 23.644531 19.054688 23.496094 18.925781 23.410156 L 17.734375 22.617188 L 17.734375 6.425781 L 21.203125 8.785156 C 21.285156 8.839844 21.375 8.867188 21.464844 8.867188 C 21.617188 8.867188 21.761719 8.796875 21.851562 8.664062 C 21.996094 8.449219 21.941406 8.160156 21.730469 8.015625 Z M 21.730469 8.015625 "/>
</g>
</svg>
