<?xml version="1.0" encoding="UTF-8"?>
<svg xmlns="http://www.w3.org/2000/svg" xmlns:xlink="http://www.w3.org/1999/xlink" width="28pt" height="28pt" viewBox="0 0 28 28" version="1.1">
<g id="surface1">
<path style=" stroke:none;fill-rule:nonzero;fill:rgb(0%,0%,0%);fill-opacity:1;" d="M 23.566406 2.332031 L 20.765625 2.332031 L 20.765625 0.464844 C 20.765625 0.210938 20.558594 0 20.300781 0 C 11.898438 0 6.300781 2.460938 6.300781 14.464844 L 6.300781 23.695312 C 4.960938 24.074219 3.964844 24.738281 3.964844 25.667969 C 3.964844 27.183594 6.609375 28 9.101562 28 C 11.589844 28 14.234375 27.183594 14.234375 25.667969 C 14.234375 24.152344 11.589844 23.332031 9.101562 23.332031 C 8.472656 23.332031 7.835938 23.386719 7.234375 23.488281 L 7.234375 14.464844 C 7.234375 2.273438 13.386719 0.988281 19.832031 0.933594 L 19.832031 2.332031 L 17.035156 2.332031 C 16.773438 2.332031 16.566406 2.542969 16.566406 2.800781 L 16.566406 5.601562 C 16.566406 5.859375 16.773438 6.066406 17.035156 6.066406 L 23.566406 6.066406 C 23.824219 6.066406 24.035156 5.859375 24.035156 5.601562 L 24.035156 2.800781 C 24.035156 2.542969 23.824219 2.332031 23.566406 2.332031 Z M 9.101562 24.265625 C 11.664062 24.265625 13.300781 25.097656 13.300781 25.667969 C 13.300781 26.238281 11.664062 27.066406 9.101562 27.066406 C 6.535156 27.066406 4.898438 26.238281 4.898438 25.667969 C 4.898438 25.347656 5.410156 24.953125 6.300781 24.660156 L 6.300781 25.199219 C 6.300781 25.457031 6.507812 25.667969 6.765625 25.667969 C 7.023438 25.667969 7.234375 25.457031 7.234375 25.199219 L 7.234375 24.429688 C 7.777344 24.328125 8.402344 24.265625 9.101562 24.265625 Z M 9.101562 24.265625 "/>
<path style=" stroke:none;fill-rule:nonzero;fill:rgb(0%,0%,0%);fill-opacity:1;" d="M 22.867188 7 L 17.734375 7 C 17.605469 7 17.5 7.105469 17.5 7.234375 L 17.5 7.933594 C 17.5 8.320312 17.707031 8.398438 17.964844 8.398438 L 22.632812 8.398438 C 22.890625 8.398438 23.101562 8.320312 23.101562 7.933594 L 23.101562 7.234375 C 23.101562 7.105469 22.996094 7 22.867188 7 Z M 22.867188 7 "/>
</g>
</svg>
