<?xml version="1.0" encoding="UTF-8"?>
<svg xmlns="http://www.w3.org/2000/svg" xmlns:xlink="http://www.w3.org/1999/xlink" width="28pt" height="28pt" viewBox="0 0 28 28" version="1.1">
<g id="surface1">
<path style=" stroke:none;fill-rule:nonzero;fill:rgb(0%,0%,0%);fill-opacity:1;" d="M 27.179688 8.3125 L 26.207031 8.3125 C 26.300781 8.054688 26.359375 7.78125 26.359375 7.492188 C 26.359375 6.539062 25.59375 3.390625 23.898438 3.390625 C 22.203125 3.390625 21.4375 6.539062 21.4375 7.492188 C 21.4375 7.78125 21.496094 8.054688 21.589844 8.3125 L 20.617188 8.3125 C 20.164062 8.3125 19.796875 8.679688 19.796875 9.132812 C 19.796875 10.46875 20.449219 11.644531 21.4375 12.394531 L 21.4375 12.414062 C 21.4375 13.769531 20.332031 14.875 18.976562 14.875 C 17.621094 14.875 16.515625 13.769531 16.515625 12.414062 C 16.515625 12.234375 16.515625 5.066406 16.515625 4.839844 C 18.386719 4.457031 19.796875 2.800781 19.796875 0.820312 C 19.796875 0.367188 19.429688 0 18.976562 0 L 9.023438 0 C 8.570312 0 8.203125 0.367188 8.203125 0.820312 C 8.203125 2.800781 9.613281 4.457031 11.484375 4.839844 C 11.484375 5.066406 11.484375 12.246094 11.484375 12.414062 C 11.484375 13.769531 10.378906 14.875 9.023438 14.875 C 7.667969 14.875 6.5625 13.769531 6.5625 12.414062 L 6.5625 12.394531 C 7.550781 11.644531 8.203125 10.46875 8.203125 9.132812 C 8.203125 8.679688 7.835938 8.3125 7.382812 8.3125 L 6.410156 8.3125 C 6.503906 8.054688 6.5625 7.78125 6.5625 7.492188 C 6.5625 6.539062 5.796875 3.390625 4.101562 3.390625 C 2.40625 3.390625 1.640625 6.539062 1.640625 7.492188 C 1.640625 7.78125 1.699219 8.054688 1.792969 8.3125 L 0.820312 8.3125 C 0.367188 8.3125 0 8.679688 0 9.132812 C 0 10.46875 0.652344 11.644531 1.640625 12.394531 L 1.640625 12.414062 C 1.640625 15.121094 3.121094 17.46875 5.304688 18.753906 C 5.074219 19.414062 4.921875 20.121094 4.921875 20.617188 C 4.921875 21.386719 5.285156 22.066406 5.839844 22.519531 C 5.21875 23.523438 4.921875 24.949219 4.921875 25.539062 C 4.921875 26.894531 6.027344 28 7.382812 28 C 8.738281 28 9.84375 26.894531 9.84375 25.539062 C 9.84375 24.949219 9.546875 23.523438 8.925781 22.519531 C 9.480469 22.066406 9.84375 21.386719 9.84375 20.617188 C 9.84375 20.371094 9.804688 20.0625 9.738281 19.730469 C 10.414062 19.664062 11.082031 19.53125 11.710938 19.285156 C 11.566406 19.828125 11.484375 20.328125 11.484375 20.617188 C 11.484375 21.386719 11.847656 22.066406 12.402344 22.519531 C 11.78125 23.523438 11.484375 24.949219 11.484375 25.539062 C 11.484375 26.894531 12.699219 28 14.054688 28 C 15.410156 28 16.515625 26.894531 16.515625 25.539062 C 16.515625 24.949219 16.21875 23.523438 15.597656 22.519531 C 16.152344 22.066406 16.515625 21.386719 16.515625 20.617188 C 16.515625 20.328125 16.433594 19.828125 16.289062 19.285156 C 16.917969 19.53125 17.585938 19.664062 18.261719 19.730469 C 18.195312 20.0625 18.15625 20.371094 18.15625 20.617188 C 18.15625 21.386719 18.519531 22.066406 19.074219 22.519531 C 18.453125 23.523438 18.15625 24.949219 18.15625 25.539062 C 18.15625 26.894531 19.261719 28 20.617188 28 C 21.972656 28 23.078125 26.894531 23.078125 25.539062 C 23.078125 24.949219 22.78125 23.523438 22.160156 22.519531 C 22.714844 22.066406 23.078125 21.386719 23.078125 20.617188 C 23.078125 20.121094 22.925781 19.414062 22.695312 18.753906 C 24.878906 17.46875 26.359375 15.121094 26.359375 12.414062 L 26.359375 12.394531 C 27.347656 11.644531 28 10.46875 28 9.132812 C 28 8.679688 27.632812 8.3125 27.179688 8.3125 Z M 4.101562 11.59375 C 3.03125 11.59375 2.121094 10.90625 1.78125 9.953125 L 6.421875 9.953125 C 6.082031 10.90625 5.171875 11.59375 4.101562 11.59375 Z M 7.382812 21.4375 C 6.929688 21.4375 6.5625 21.070312 6.5625 20.617188 C 6.5625 20.386719 6.652344 19.914062 6.8125 19.421875 C 7.207031 19.546875 7.617188 19.640625 8.039062 19.699219 C 8.144531 20.085938 8.203125 20.429688 8.203125 20.617188 C 8.203125 21.070312 7.835938 21.4375 7.382812 21.4375 Z M 14.054688 21.4375 C 13.601562 21.4375 13.125 21.070312 13.125 20.617188 C 13.125 19.9375 13.703125 18.621094 14.054688 18.226562 C 14.40625 18.621094 14.875 19.9375 14.875 20.617188 C 14.875 21.070312 14.507812 21.4375 14.054688 21.4375 Z M 15.695312 3.28125 L 12.304688 3.28125 C 11.234375 3.28125 10.324219 2.59375 9.984375 1.640625 L 18.015625 1.640625 C 17.675781 2.59375 16.765625 3.28125 15.695312 3.28125 Z M 20.617188 21.4375 C 20.164062 21.4375 19.796875 21.070312 19.796875 20.617188 C 19.796875 20.429688 19.855469 20.085938 19.960938 19.699219 C 20.382812 19.640625 20.792969 19.546875 21.1875 19.421875 C 21.347656 19.914062 21.4375 20.386719 21.4375 20.617188 C 21.4375 21.070312 21.070312 21.4375 20.617188 21.4375 Z M 23.898438 11.59375 C 22.828125 11.59375 21.917969 10.90625 21.578125 9.953125 L 26.21875 9.953125 C 25.878906 10.90625 24.96875 11.59375 23.898438 11.59375 Z M 23.898438 11.59375 "/>
</g>
</svg>
