<?xml version="1.0" encoding="UTF-8"?>
<svg xmlns="http://www.w3.org/2000/svg" xmlns:xlink="http://www.w3.org/1999/xlink" width="28pt" height="28pt" viewBox="0 0 28 28" version="1.1">
<g id="surface1">
<path style=" stroke:none;fill-rule:nonzero;fill:rgb(0%,0%,0%);fill-opacity:1;" d="M 11.257812 4.015625 C 8.8125 1.570312 4.023438 1.285156 0.636719 1.285156 C 0.285156 1.285156 0 1.570312 0 1.921875 C 0 5.308594 0.28125 10.097656 2.726562 12.542969 C 3.761719 13.574219 5.34375 14.035156 6.914062 14.035156 C 8.617188 14.035156 10.308594 13.492188 11.257812 12.542969 C 13.078125 10.71875 13.414062 6.167969 11.257812 4.015625 Z M 10.359375 11.644531 C 8.996094 13.003906 5.21875 13.234375 3.628906 11.644531 C 1.652344 9.667969 1.3125 5.660156 1.273438 2.5625 C 4.371094 2.597656 8.382812 2.941406 10.359375 4.914062 C 11.949219 6.507812 11.71875 10.285156 10.359375 11.644531 Z M 10.359375 11.644531 "/>
<path style=" stroke:none;fill-rule:nonzero;fill:rgb(0%,0%,0%);fill-opacity:1;" d="M 27.363281 3.800781 C 23.976562 3.800781 19.1875 4.082031 16.742188 6.527344 C 14.585938 8.683594 14.921875 13.234375 16.742188 15.054688 C 17.691406 16.003906 19.382812 16.550781 21.085938 16.550781 C 22.65625 16.550781 24.238281 16.089844 25.273438 15.058594 C 27.714844 12.613281 28 7.824219 28 4.4375 C 28 4.085938 27.714844 3.800781 27.363281 3.800781 Z M 24.371094 14.15625 C 22.777344 15.75 19 15.515625 17.640625 14.15625 C 16.28125 12.796875 16.050781 9.019531 17.640625 7.429688 C 19.613281 5.453125 23.625 5.113281 26.722656 5.074219 C 26.6875 8.171875 26.34375 12.183594 24.371094 14.15625 Z M 24.371094 14.15625 "/>
<path style=" stroke:none;fill-rule:nonzero;fill:rgb(0%,0%,0%);fill-opacity:1;" d="M 22.773438 9.304688 C 22.625 8.984375 22.195312 8.875 21.878906 9.023438 C 17 11.316406 14.605469 15.3125 13.515625 19.421875 C 12.171875 10.683594 8.277344 8.019531 6.625 6.890625 C 6.417969 6.75 6.257812 6.644531 6.171875 6.558594 C 5.921875 6.3125 5.519531 6.3125 5.269531 6.558594 C 5.023438 6.804688 5.023438 7.210938 5.269531 7.457031 C 5.398438 7.582031 5.613281 7.738281 5.90625 7.9375 C 7.769531 9.210938 12.714844 12.59375 12.714844 26.078125 C 12.714844 26.429688 13 26.714844 13.351562 26.714844 C 13.699219 26.714844 13.984375 26.429688 13.984375 26.078125 C 13.984375 20.632812 15.449219 13.449219 22.417969 10.175781 C 22.417969 10.171875 22.523438 10.125 22.523438 10.125 C 22.839844 9.976562 22.921875 9.621094 22.773438 9.304688 Z M 22.773438 9.304688 "/>
</g>
</svg>
