<?xml version="1.0" encoding="UTF-8"?>
<svg xmlns="http://www.w3.org/2000/svg" xmlns:xlink="http://www.w3.org/1999/xlink" width="28pt" height="28pt" viewBox="0 0 28 28" version="1.1">
<g id="surface1">
<path style=" stroke:none;fill-rule:nonzero;fill:rgb(0%,0%,0%);fill-opacity:1;" d="M 14.003906 0 C 8.847656 0 4.671875 2.789062 4.671875 8.53125 C 4.671875 13.664062 9.019531 16.109375 9.019531 16.109375 C 9.125 16.167969 9.257812 16.222656 9.351562 16.277344 L 9.351562 18.808594 C 9.351562 19.589844 10.019531 20.222656 10.796875 20.222656 L 17.210938 20.222656 C 17.992188 20.222656 18.59375 19.589844 18.59375 18.808594 L 18.59375 16.277344 C 18.78125 16.222656 18.851562 16.167969 18.957031 16.109375 C 18.957031 16.109375 23.328125 13.664062 23.328125 8.53125 C 23.328125 2.789062 19.160156 0 14.003906 0 Z M 8.722656 6.65625 C 8.617188 6.96875 8.324219 7.167969 8.007812 7.167969 C 7.929688 7.167969 7.847656 7.152344 7.765625 7.125 C 7.371094 6.992188 7.160156 6.5625 7.292969 6.167969 C 7.613281 5.234375 8.136719 4.457031 8.855469 3.855469 C 9.585938 3.242188 10.515625 2.800781 11.621094 2.535156 C 12.027344 2.4375 12.433594 2.6875 12.53125 3.09375 C 12.628906 3.496094 12.378906 3.90625 11.972656 4.003906 C 11.109375 4.210938 10.367188 4.558594 9.824219 5.011719 C 9.320312 5.433594 8.949219 5.988281 8.722656 6.65625 Z M 8.722656 6.65625 "/>
<path style=" stroke:none;fill-rule:nonzero;fill:rgb(0%,0%,0%);fill-opacity:1;" d="M 17.847656 21.730469 L 10.066406 21.730469 C 9.636719 21.730469 9.257812 22.078125 9.257812 22.507812 L 9.257812 22.554688 C 9.257812 22.984375 9.605469 23.332031 10.035156 23.332031 C 9.605469 23.332031 9.257812 23.679688 9.257812 24.109375 L 9.257812 24.160156 C 9.257812 24.585938 9.636719 24.9375 10.066406 24.9375 L 10.894531 24.9375 C 10.917969 26.632812 12.300781 28 14.003906 28 C 15.707031 28 17.089844 26.632812 17.113281 24.9375 L 17.847656 24.9375 C 18.273438 24.9375 18.59375 24.585938 18.59375 24.160156 L 18.59375 24.109375 C 18.59375 23.679688 18.242188 23.332031 17.8125 23.332031 C 18.242188 23.332031 18.59375 22.984375 18.59375 22.554688 L 18.59375 22.507812 C 18.59375 22.078125 18.273438 21.730469 17.847656 21.730469 Z M 17.847656 21.730469 "/>
</g>
</svg>
