<?xml version="1.0" encoding="UTF-8"?>
<svg xmlns="http://www.w3.org/2000/svg" xmlns:xlink="http://www.w3.org/1999/xlink" width="28pt" height="28pt" viewBox="0 0 28 28" version="1.1">
<g id="surface1">
<path style=" stroke:none;fill-rule:nonzero;fill:rgb(0%,0%,0%);fill-opacity:1;" d="M 22.445312 10.648438 C 22.511719 10.21875 22.546875 9.773438 22.546875 9.324219 C 22.546875 4.589844 18.710938 0.75 13.972656 0.75 C 9.238281 0.75 5.402344 4.589844 5.402344 9.324219 C 5.402344 9.78125 5.4375 10.230469 5.507812 10.667969 C 2.285156 11.902344 0 15.023438 0 18.675781 C 0 23.410156 3.839844 27.25 8.574219 27.25 C 10.632812 27.25 12.519531 26.523438 14 25.3125 C 11.617188 23.371094 10.492188 20.3125 10.953125 17.351562 C 8.113281 16.28125 5.988281 13.75 5.503906 10.671875 C 8.40625 9.554688 11.65625 10.121094 14 12.039062 C 16.332031 10.132812 19.554688 9.5625 22.445312 10.652344 C 21.96875 13.71875 19.863281 16.25 17.042969 17.332031 C 17.511719 20.296875 16.390625 23.367188 14 25.316406 C 15.480469 26.523438 17.367188 27.25 19.425781 27.25 C 24.160156 27.25 28 23.410156 28 18.675781 C 28 15.003906 25.691406 11.871094 22.445312 10.648438 Z M 5.640625 17.523438 C 5.867188 17.523438 6.082031 17.546875 6.285156 17.597656 C 6.492188 17.644531 6.683594 17.71875 6.859375 17.816406 C 7.035156 17.910156 7.191406 18.023438 7.332031 18.160156 C 7.472656 18.292969 7.585938 18.441406 7.675781 18.609375 L 6.660156 19.390625 C 6.558594 19.191406 6.414062 19.035156 6.214844 18.914062 C 6.019531 18.796875 5.8125 18.738281 5.59375 18.738281 C 5.429688 18.738281 5.277344 18.769531 5.144531 18.835938 C 5.007812 18.902344 4.890625 18.992188 4.792969 19.109375 C 4.695312 19.226562 4.617188 19.363281 4.5625 19.527344 C 4.503906 19.6875 4.476562 19.863281 4.476562 20.054688 C 4.476562 20.253906 4.503906 20.429688 4.5625 20.589844 C 4.617188 20.746094 4.695312 20.886719 4.796875 21 C 4.898438 21.113281 5.015625 21.203125 5.15625 21.265625 C 5.296875 21.328125 5.453125 21.359375 5.628906 21.359375 C 6.023438 21.359375 6.375 21.195312 6.679688 20.871094 L 5.816406 20.871094 L 5.816406 19.886719 L 7.863281 19.886719 L 7.863281 22.539062 L 6.734375 22.539062 L 6.734375 22.125 C 6.378906 22.425781 5.972656 22.574219 5.507812 22.574219 C 5.183594 22.574219 4.875 22.515625 4.582031 22.402344 C 4.289062 22.289062 4.03125 22.121094 3.8125 21.902344 C 3.589844 21.679688 3.414062 21.410156 3.285156 21.09375 C 3.152344 20.777344 3.089844 20.414062 3.089844 20.007812 C 3.089844 19.65625 3.152344 19.328125 3.285156 19.027344 C 3.414062 18.726562 3.59375 18.464844 3.824219 18.242188 C 4.054688 18.019531 4.324219 17.84375 4.636719 17.714844 C 4.945312 17.585938 5.28125 17.523438 5.640625 17.523438 Z M 14.605469 8.847656 L 13.730469 7.320312 L 13.21875 7.320312 L 13.21875 8.847656 L 11.851562 8.847656 L 11.851562 3.867188 L 14.136719 3.867188 C 14.378906 3.867188 14.605469 3.917969 14.808594 4.019531 C 15.015625 4.121094 15.191406 4.25 15.339844 4.410156 C 15.488281 4.574219 15.601562 4.757812 15.6875 4.964844 C 15.769531 5.175781 15.8125 5.382812 15.8125 5.59375 C 15.8125 5.882812 15.75 6.152344 15.625 6.402344 C 15.496094 6.652344 15.320312 6.859375 15.097656 7.019531 L 16.148438 8.847656 Z M 24.773438 21.875 C 24.679688 22.039062 24.550781 22.167969 24.386719 22.273438 C 24.222656 22.375 24.03125 22.453125 23.8125 22.5 C 23.597656 22.550781 23.367188 22.574219 23.125 22.574219 L 20.675781 22.574219 L 20.675781 17.59375 L 23.566406 17.59375 C 23.738281 17.59375 23.894531 17.632812 24.035156 17.707031 C 24.175781 17.78125 24.292969 17.878906 24.394531 17.996094 C 24.492188 18.117188 24.566406 18.25 24.621094 18.402344 C 24.675781 18.554688 24.703125 18.710938 24.703125 18.871094 C 24.703125 19.105469 24.640625 19.328125 24.523438 19.539062 C 24.402344 19.753906 24.222656 19.914062 23.984375 20.019531 C 24.269531 20.105469 24.496094 20.25 24.664062 20.460938 C 24.828125 20.667969 24.910156 20.945312 24.910156 21.296875 C 24.910156 21.523438 24.867188 21.714844 24.773438 21.875 Z M 24.773438 21.875 "/>
<path style=" stroke:none;fill-rule:nonzero;fill:rgb(0%,0%,0%);fill-opacity:1;" d="M 23.25 18.847656 C 23.183594 18.789062 23.105469 18.757812 23.019531 18.757812 L 22.042969 18.757812 L 22.042969 19.523438 L 22.976562 19.523438 C 23.070312 19.523438 23.15625 19.496094 23.230469 19.445312 C 23.308594 19.394531 23.347656 19.292969 23.347656 19.136719 C 23.347656 19 23.316406 18.90625 23.25 18.847656 Z M 23.25 18.847656 "/>
<path style=" stroke:none;fill-rule:nonzero;fill:rgb(0%,0%,0%);fill-opacity:1;" d="M 23.425781 20.710938 C 23.359375 20.628906 23.273438 20.589844 23.171875 20.589844 L 22.042969 20.589844 L 22.042969 21.421875 L 23.125 21.421875 C 23.234375 21.421875 23.332031 21.386719 23.40625 21.320312 C 23.484375 21.25 23.523438 21.148438 23.523438 21.015625 C 23.523438 20.894531 23.492188 20.792969 23.425781 20.710938 Z M 23.425781 20.710938 "/>
<path style=" stroke:none;fill-rule:nonzero;fill:rgb(0%,0%,0%);fill-opacity:1;" d="M 14.296875 5.199219 C 14.214844 5.105469 14.128906 5.0625 14.046875 5.0625 L 13.21875 5.0625 L 13.21875 6.125 L 14.082031 6.125 C 14.164062 6.125 14.242188 6.082031 14.316406 5.988281 C 14.386719 5.894531 14.425781 5.761719 14.425781 5.59375 C 14.425781 5.421875 14.382812 5.289062 14.296875 5.199219 Z M 14.296875 5.199219 "/>
<path style=" stroke:none;fill-rule:nonzero;fill:rgb(0%,0%,0%);fill-opacity:1;" d="M 15.996094 14.390625 C 15.464844 13.464844 14.78125 12.675781 14 12.039062 C 13.21875 12.675781 12.535156 13.464844 12.003906 14.390625 C 11.457031 15.332031 11.113281 16.335938 10.953125 17.351562 C 11.894531 17.703125 12.910156 17.898438 13.972656 17.898438 C 15.054688 17.898438 16.089844 17.695312 17.042969 17.332031 C 16.882812 16.324219 16.539062 15.328125 15.996094 14.390625 Z M 15.996094 14.390625 "/>
</g>
</svg>
