<?xml version="1.0" encoding="UTF-8"?>
<svg xmlns="http://www.w3.org/2000/svg" xmlns:xlink="http://www.w3.org/1999/xlink" width="28pt" height="28pt" viewBox="0 0 28 28" version="1.1">
<g id="surface1">
<path style=" stroke:none;fill-rule:nonzero;fill:rgb(0%,0%,0%);fill-opacity:1;" d="M 27.09375 4.316406 C 26.792969 4.015625 26.429688 3.796875 26.042969 3.652344 C 25.976562 4.269531 25.789062 4.871094 25.464844 5.425781 C 25.578125 5.480469 25.691406 5.539062 25.78125 5.628906 C 26.253906 6.101562 26.253906 6.867188 25.78125 7.339844 L 11.601562 21.523438 L 10.601562 20.519531 L 10.601562 20.523438 L 9.617188 19.539062 L 23.796875 5.355469 C 24.992188 4.160156 24.992188 2.214844 23.796875 1.019531 C 22.640625 -0.136719 20.621094 -0.136719 19.460938 1.019531 L 4.625 15.859375 C 4.261719 16.222656 4.261719 16.808594 4.625 17.171875 L 10.171875 22.71875 C 10.171875 22.71875 10.171875 22.71875 10.175781 22.71875 L 10.945312 23.492188 C 11.125 23.671875 11.363281 23.761719 11.601562 23.761719 C 11.839844 23.761719 12.074219 23.671875 12.257812 23.492188 L 27.09375 8.652344 C 28.289062 7.457031 28.289062 5.511719 27.09375 4.316406 Z M 20.773438 2.332031 C 21.230469 1.878906 22.03125 1.878906 22.484375 2.332031 C 22.957031 2.804688 22.957031 3.570312 22.484375 4.042969 L 8.304688 18.226562 L 6.59375 16.515625 Z M 20.773438 2.332031 "/>
<path style=" stroke:none;fill-rule:nonzero;fill:rgb(0%,0%,0%);fill-opacity:1;" d="M 3.5 17.996094 C 3.203125 17.699219 2.722656 17.699219 2.425781 17.996094 L 1.457031 18.960938 C 1.363281 19.058594 1.296875 19.175781 1.261719 19.308594 L 0.257812 23.152344 C 0.1875 23.414062 0.261719 23.691406 0.453125 23.878906 L 0.902344 24.328125 L 0.539062 24.691406 C -0.179688 25.410156 -0.179688 26.578125 0.542969 27.300781 C 1.261719 28.019531 2.429688 28.019531 3.152344 27.300781 L 3.511719 26.9375 L 3.960938 27.386719 C 4.152344 27.578125 4.429688 27.652344 4.6875 27.585938 L 8.535156 26.578125 C 8.664062 26.546875 8.78125 26.476562 8.878906 26.382812 L 9.84375 25.414062 C 10.140625 25.117188 10.140625 24.636719 9.84375 24.339844 Z M 3.5 17.996094 "/>
</g>
</svg>
