<?xml version="1.0" encoding="UTF-8"?>
<svg xmlns="http://www.w3.org/2000/svg" xmlns:xlink="http://www.w3.org/1999/xlink" width="28pt" height="28pt" viewBox="0 0 28 28" version="1.1">
<g id="surface1">
<path style=" stroke:none;fill-rule:nonzero;fill:rgb(0%,0%,0%);fill-opacity:1;" d="M 3.183594 22.335938 L 5.089844 24.246094 L 7.382812 21.953125 L 5.601562 20.171875 Z M 12.726562 27.300781 C 13.109375 27.300781 15.273438 27.300781 15.273438 27.300781 L 15.273438 23.609375 L 12.726562 23.609375 Z M 3.816406 12.15625 L 0 12.15625 L 0 14.699219 L 3.816406 14.699219 Z M 17.816406 6.808594 L 17.816406 0.699219 L 10.183594 0.699219 L 10.183594 6.808594 C 7.890625 8.082031 6.363281 10.628906 6.363281 13.425781 C 6.363281 17.628906 9.800781 21.0625 14 21.0625 C 18.199219 21.0625 21.636719 17.628906 21.636719 13.425781 C 21.636719 10.628906 20.109375 8.082031 17.816406 6.808594 Z M 24.183594 12.15625 L 24.183594 14.699219 L 28 14.699219 L 28 12.15625 Z M 20.617188 21.953125 L 22.910156 24.246094 L 24.691406 22.464844 L 22.398438 20.171875 Z M 20.617188 21.953125 "/>
</g>
</svg>
