<?xml version="1.0" encoding="UTF-8"?>
<svg xmlns="http://www.w3.org/2000/svg" xmlns:xlink="http://www.w3.org/1999/xlink" width="28pt" height="28pt" viewBox="0 0 28 28" version="1.1">
<g id="surface1">
<path style=" stroke:none;fill-rule:nonzero;fill:rgb(0%,0%,0%);fill-opacity:1;" d="M 9.800781 14 C 8.261719 14 7 15.261719 7 16.800781 C 7 18.339844 8.261719 19.601562 9.800781 19.601562 C 11.339844 19.601562 12.601562 18.339844 12.601562 16.800781 C 12.601562 15.261719 11.339844 14 9.800781 14 Z M 16.800781 9.800781 C 16.800781 8.261719 15.539062 7 14 7 C 12.460938 7 11.199219 8.261719 11.199219 9.800781 C 11.199219 11.339844 12.460938 12.601562 14 12.601562 C 15.539062 12.601562 16.800781 11.339844 16.800781 9.800781 Z M 14 0 C 6.300781 0 0 6.300781 0 14 C 0 21.699219 6.300781 28 14 28 C 21.699219 28 28 21.699219 28 14 C 28 6.300781 21.699219 0 14 0 Z M 14 25.199219 C 7.839844 25.199219 2.800781 20.160156 2.800781 14 C 2.800781 7.839844 7.839844 2.800781 14 2.800781 C 20.160156 2.800781 25.199219 7.839844 25.199219 14 C 25.199219 20.160156 20.160156 25.199219 14 25.199219 Z M 18.199219 14 C 16.660156 14 15.398438 15.261719 15.398438 16.800781 C 15.398438 18.339844 16.660156 19.601562 18.199219 19.601562 C 19.738281 19.601562 21 18.339844 21 16.800781 C 21 15.261719 19.738281 14 18.199219 14 Z M 18.199219 14 "/>
</g>
</svg>
