<?xml version="1.0" encoding="UTF-8"?>
<svg xmlns="http://www.w3.org/2000/svg" xmlns:xlink="http://www.w3.org/1999/xlink" width="28pt" height="28pt" viewBox="0 0 28 28" version="1.1">
<g id="surface1">
<path style=" stroke:none;fill-rule:nonzero;fill:rgb(0%,0%,0%);fill-opacity:1;" d="M 13.960938 15.03125 C 13.160156 15.03125 12.511719 15.683594 12.511719 16.484375 C 12.511719 17.023438 12.804688 17.488281 13.238281 17.742188 L 13.238281 19.355469 L 14.6875 19.355469 L 14.6875 17.742188 C 15.121094 17.488281 15.414062 17.023438 15.414062 16.484375 C 15.414062 15.683594 14.765625 15.03125 13.960938 15.03125 Z M 13.960938 15.03125 "/>
<path style=" stroke:none;fill-rule:nonzero;fill:rgb(0%,0%,0%);fill-opacity:1;" d="M 13.964844 7.992188 C 12.742188 7.992188 11.75 8.984375 11.75 10.203125 L 11.75 12.5625 L 16.175781 12.5625 L 16.175781 10.203125 C 16.175781 8.984375 15.183594 7.992188 13.964844 7.992188 Z M 13.964844 7.992188 "/>
<path style=" stroke:none;fill-rule:nonzero;fill:rgb(0%,0%,0%);fill-opacity:1;" d="M 13.960938 0 C 6.25 0 0 6.25 0 13.960938 C 0 21.671875 6.25 27.925781 13.960938 27.925781 C 21.671875 27.925781 27.925781 21.671875 27.925781 13.960938 C 27.925781 6.25 21.671875 0 13.960938 0 Z M 18.253906 21.140625 L 9.671875 21.140625 C 8.765625 21.140625 8.03125 20.40625 8.03125 19.5 L 8.03125 14.203125 C 8.03125 13.410156 8.589844 12.75 9.335938 12.597656 L 9.335938 10.203125 C 9.335938 7.652344 11.410156 5.578125 13.960938 5.578125 C 16.515625 5.578125 18.589844 7.652344 18.589844 10.203125 L 18.589844 12.597656 C 19.335938 12.75 19.894531 13.410156 19.894531 14.203125 L 19.894531 19.5 C 19.894531 20.40625 19.160156 21.140625 18.253906 21.140625 Z M 18.253906 21.140625 "/>
</g>
</svg>
