<?xml version="1.0" encoding="UTF-8"?>
<svg xmlns="http://www.w3.org/2000/svg" xmlns:xlink="http://www.w3.org/1999/xlink" width="28pt" height="28pt" viewBox="0 0 28 28" version="1.1">
<g id="surface1">
<path style=" stroke:none;fill-rule:nonzero;fill:rgb(0%,0%,0%);fill-opacity:1;" d="M 14 14.484375 C 12.933594 14.484375 12.070312 15.347656 12.070312 16.414062 L 12.070312 19.308594 C 12.070312 20.375 12.933594 21.242188 14 21.242188 C 15.066406 21.242188 15.929688 20.375 15.929688 19.308594 L 15.929688 16.414062 C 15.929688 15.347656 15.066406 14.484375 14 14.484375 Z M 14.964844 19.308594 C 14.964844 19.84375 14.53125 20.277344 14 20.277344 C 13.46875 20.277344 13.035156 19.84375 13.035156 19.308594 L 13.035156 16.414062 C 13.035156 15.882812 13.46875 15.449219 14 15.449219 C 14.53125 15.449219 14.964844 15.882812 14.964844 16.414062 Z M 14.964844 19.308594 "/>
<path style=" stroke:none;fill-rule:nonzero;fill:rgb(0%,0%,0%);fill-opacity:1;" d="M 19.308594 10.289062 L 19.308594 4.933594 C 19.308594 2.214844 16.929688 0 14 0 C 11.070312 0 8.691406 2.214844 8.691406 4.933594 C 8.691406 5.199219 8.90625 5.417969 9.171875 5.417969 C 9.4375 5.417969 9.65625 5.199219 9.65625 4.933594 C 9.65625 2.746094 11.605469 0.964844 14 0.964844 C 16.394531 0.964844 18.34375 2.746094 18.34375 4.933594 L 18.34375 9.730469 C 18.253906 9.6875 18.160156 9.644531 18.070312 9.601562 C 17.878906 9.511719 17.6875 9.429688 17.492188 9.351562 C 17.367188 9.304688 17.238281 9.257812 17.113281 9.214844 C 16.984375 9.171875 16.859375 9.128906 16.734375 9.089844 C 16.523438 9.027344 16.308594 8.972656 16.09375 8.925781 C 16 8.90625 15.90625 8.886719 15.8125 8.867188 C 15.5625 8.816406 15.308594 8.777344 15.050781 8.75 C 14.992188 8.742188 14.9375 8.738281 14.878906 8.734375 C 14.585938 8.707031 14.292969 8.691406 14 8.691406 C 8.675781 8.691406 4.34375 13.019531 4.34375 18.34375 C 4.34375 23.667969 8.675781 28 14 28 C 19.324219 28 23.65625 23.667969 23.65625 18.34375 C 23.65625 14.980469 21.925781 12.019531 19.308594 10.289062 Z M 14 27.035156 C 9.207031 27.035156 5.308594 23.136719 5.308594 18.34375 C 5.308594 13.554688 9.207031 9.65625 14 9.65625 C 14.261719 9.65625 14.515625 9.671875 14.773438 9.695312 C 14.855469 9.703125 14.9375 9.710938 15.019531 9.71875 C 15.203125 9.742188 15.382812 9.769531 15.558594 9.804688 C 15.683594 9.824219 15.804688 9.851562 15.929688 9.878906 C 16.097656 9.917969 16.261719 9.957031 16.429688 10.007812 C 16.5625 10.046875 16.695312 10.089844 16.824219 10.136719 C 16.910156 10.164062 16.996094 10.199219 17.082031 10.230469 C 17.5625 10.414062 18.023438 10.640625 18.46875 10.90625 C 20.992188 12.429688 22.691406 15.1875 22.691406 18.34375 C 22.691406 23.136719 18.792969 27.035156 14 27.035156 Z M 14 27.035156 "/>
</g>
</svg>
