<?xml version="1.0" encoding="UTF-8" standalone="no"?>
<svg
   xmlns:dc="http://purl.org/dc/elements/1.1/"
   xmlns:cc="http://creativecommons.org/ns#"
   xmlns:rdf="http://www.w3.org/1999/02/22-rdf-syntax-ns#"
   xmlns:svg="http://www.w3.org/2000/svg"
   xmlns="http://www.w3.org/2000/svg"
   xmlns:sodipodi="http://sodipodi.sourceforge.net/DTD/sodipodi-0.dtd"
   xmlns:inkscape="http://www.inkscape.org/namespaces/inkscape"
   width="159mm"
   height="39mm"
   viewBox="0 0 159 39"
   version="1.1"
   id="svg4950"
   inkscape:version="1.0.2 (394de47547, 2021-03-26)"
   sodipodi:docname="logopure.svg">
  <defs
     id="defs4944" />
  <sodipodi:namedview
     id="base"
     pagecolor="#ffffff"
     bordercolor="#666666"
     borderopacity="1.0"
     inkscape:pageopacity="0.0"
     inkscape:pageshadow="2"
     inkscape:zoom="0.98994949"
     inkscape:cx="47.716296"
     inkscape:cy="16.953697"
     inkscape:document-units="mm"
     inkscape:current-layer="layer1"
     inkscape:document-rotation="0"
     showgrid="false"
     inkscape:window-width="1920"
     inkscape:window-height="1043"
     inkscape:window-x="1920"
     inkscape:window-y="0"
     inkscape:window-maximized="1" />
  <metadata
     id="metadata4947">
    <rdf:RDF>
      <cc:Work
         rdf:about="">
        <dc:format>image/svg+xml</dc:format>
        <dc:type
           rdf:resource="http://purl.org/dc/dcmitype/StillImage" />
        <dc:title></dc:title>
      </cc:Work>
    </rdf:RDF>
  </metadata>
  <g
     inkscape:label="Warstwa 1"
     inkscape:groupmode="layer"
     id="layer1">
    <g
       id="g5544"
       transform="matrix(9.6828956,0,0,9.6828956,94.15782,-500.09633)">
      <path
         d="m -9.0119543,54.032386 c -0.073626,0.0035 -0.1461214,0.02371 -0.2130081,0.06103 -0.1005046,0.0556 -0.1897935,0.133773 -0.2722033,0.220768 -0.036195,0.156808 -0.025506,0.541232 0.030903,0.69042 0.054787,0.160904 0.1593162,0.313304 0.3152087,0.38908 0.1733894,0.09493 0.38989,0.101423 0.570193,0.02141 0.2270125,-0.09049 0.4187137,-0.244086 0.6038162,-0.401108 -0.047202,-0.07758 -0.095321,-0.1548 -0.1443223,-0.231 -0.069604,-0.1016 -0.1346914,-0.207502 -0.2112777,-0.302294 -0.1253067,-0.15621 -0.2596092,-0.312386 -0.4311306,-0.397582 -0.00749,-0.0032 -0.022569,-0.0086 -0.030091,-0.01204 -0.06971,-0.02857 -0.1444995,-0.04219 -0.2180881,-0.0387 z"
         style="fill:none;stroke:#1f1b20;stroke-width:0.352814;stroke-linecap:butt;stroke-linejoin:miter;stroke-miterlimit:22.9256;stroke-dasharray:none;stroke-opacity:1"
         id="path2498-7" />
      <path
         d="m -7.5703641,51.875891 c -0.061383,0.0011 -0.1230127,0.007 -0.1829858,0.01749 -0.7522263,0.171204 -1.3278194,1.066025 -1.5625233,1.711008 -0.081772,0.232304 -0.1740958,0.467889 -0.1845733,0.716597 0.2754841,-0.227576 0.1855972,-0.268605 0.3143964,-0.367593 0.12319,-0.09511 0.2838794,-0.134091 0.4377981,-0.114512 0.00828,0.0013 0.025083,0.0035 0.033406,0.0044 0.1919817,0.0375 0.3591983,0.145593 0.5171731,0.2558 0.096414,0.06689 0.1834092,0.145592 0.2738967,0.219815 0.094014,0.0822 0.1852083,0.167677 0.2772118,0.252095 0.024315,0.02257 0.048789,0.0454 0.072919,0.06841 0.2441945,0.214487 0.4874683,0.457306 0.7390712,0.622406 0.1159219,0.08057 0.2424271,0.147566 0.3785288,0.187393 0.2410883,0.06738 0.5177737,-0.02151 0.6722904,-0.21872 0.096377,-0.121073 0.1390994,-0.27478 0.1610069,-0.425699 0.039476,-0.333092 -0.00791,-0.673981 -0.1227323,-0.986083 -0.305398,-0.83072 -0.9400805,-1.929519 -1.8248842,-1.942817 z"
         style="fill:none;stroke:#1f1b20;stroke-width:0.352814;stroke-linecap:butt;stroke-linejoin:miter;stroke-miterlimit:22.9256;stroke-dasharray:none;stroke-opacity:1"
         id="path2500-1" />
      <path
         d="m -1.0423525,52.877109 c -0.2794,0 -0.4933235,0.04879 -0.6403975,0.148979 -0.1472141,0.100224 -0.2241206,0.254423 -0.2241206,0.450707 v 1.017201 c 0,0.05351 0.014102,0.102092 0.046109,0.134689 0.032102,0.03253 0.078917,0.046 0.1319027,0.046 0.047202,0 0.083185,-2.65e-4 0.1120087,-0.0028 0.026273,-0.0021 0.044273,-0.0028 0.063182,-0.01183 0.00132,-2.64e-4 0.00132,-0.0021 0.00283,-0.0024 7.938e-4,-2.65e-4 0.00212,1.77e-4 0.00283,0 0.029493,-0.01204 0.056409,-0.03351 0.072213,-0.0605 0.016907,-0.029 0.022569,-0.06442 0.022569,-0.103118 V 53.43725 c 0,-0.05493 0.027199,-0.09003 0.1002929,-0.121213 0.073131,-0.03111 0.1904312,-0.04861 0.35052,-0.04861 0.0114036,0 0.0257969,-7.93e-4 0.0432859,0 0.0161131,2.65e-4 0.0367242,0.0024 0.0579279,0.0036 0.002117,0 0.003175,-6.9e-5 0.005398,0 7.9375e-4,0 0.001852,-6.9e-5 0.002831,0 0.005106,2.64e-4 0.00889,0.0024 0.0143933,0.0024 h 0.0172244 0.0288925 0.0487892 c 0.11091333,0 0.18651273,0.01151 0.22672939,0.03171 0.0605023,0.02978 0.0893948,0.08237 0.0893948,0.175297 V 54.4938 c 0,0.05362 0.0128058,0.102201 0.0451908,0.134692 0.032385,0.03242 0.0819864,0.046 0.13550106,0.046 0.0472017,0 0.083185,-2.64e-4 0.11200871,-0.0028 0.0262731,-0.0021 0.0443071,-0.0028 0.0631825,-0.01183 0.001323,-2.64e-4 0.001323,-0.0021 0.002831,-0.0024 7.9375e-4,-2.64e-4 0.002117,1.75e-4 0.002831,0 0.03002227,-0.01204 0.05602023,-0.03351 0.07221273,-0.0605 0.01727729,-0.029 0.02256896,-0.06421 0.02256896,-0.103116 v -1.010709 c 0,-0.0502 0.0119327084,-0.08929 0.0343244,-0.118498 0.02246312,-0.02911 0.05859727,-0.0508 0.10929143,-0.0659 0.0413094,-0.01281 0.14580129,-0.02558 0.299085,-0.0315 0.001852,0 0.003598,0 0.005397,0 2.1166e-4,-7.1e-5 0.002117,0 0.002831,0 0.002117,-7.1e-5 0.006985,0 0.011721,0 h 0.022569 0.0488262 c 0.15828962,0 0.27548416,0.0181 0.34776833,0.04861 0.0722127,0.03069 0.0975069,0.06491 0.0975069,0.118393 v 1.059604 c 0,0.03891 0.008916,0.07412 0.0262202,0.103116 0.0162983,0.02699 0.0413808,0.04847 0.0714004,0.0605 7.938e-4,1.75e-4 0.00212,-2.64e-4 0.00283,0 0.00132,2.65e-4 0.00238,0.0021 0.0036,0.0024 0.018918,0.0088 0.033515,0.0097 0.059724,0.01183 0.028787,0.0021 0.0683,0.0028 0.1156071,0.0028 0.05288,0 0.099801,-0.01347 0.1318683,-0.046 0.03203,-0.0326 0.046,-0.08117 0.046,-0.134692 v -1.017198 c 0,-0.196003 -0.0738,-0.350308 -0.2159,-0.45071 C 1.067353,52.925491 0.861965,52.876913 0.59254774,52.876913 c -0.19818879,0 -0.34078333,0.0058 -0.42816462,0.01707 -0.1546225,0.02 -0.28642204,0.0642 -0.39662894,0.129222 -0.11860477,-0.06682 -0.24687476,-0.114088 -0.3847756,-0.131799 -7.9375e-4,-2.12e-4 -0.002117,0 -0.002831,0 -0.0363008,-0.0052 -0.0871008,-0.01013 -0.15540037,-0.01193 -0.0692838,-0.0019 -0.15740856,-0.0024 -0.26648831,-0.0024 z m 3.589901,0 c -0.2641943,0 -0.455295,0.02519 -0.5798952,0.0804 -7.937e-4,1.74e-4 -0.00318,-2.65e-4 -0.0037,0 v 0.0028 c -0.2064094,0.08481 -0.3179234,0.24811 -0.3179234,0.467995 v 1.545627 c 0,0.05277 0.013017,0.09698 0.045119,0.128974 0.032105,0.03221 0.076306,0.04611 0.1291881,0.04611 0.046601,0 0.087101,-2.65e-4 0.1156044,-0.0024 0.055917,-0.0054 0.105799,-0.02191 0.1373029,-0.07243 0.017383,-0.0285 0.02622,-0.06188 0.02622,-0.100081 v -0.313621 h 0.7750889 c 0.2768944,0 0.4890903,-0.0459 0.635,-0.140899 0.1460156,-0.095 0.2212975,-0.242676 0.2212975,-0.430001 v -0.666572 c 0,-0.180023 -0.086606,-0.324205 -0.2475098,-0.413703 C 3.3224364,52.919858 3.0901322,52.877453 2.78325,52.877453 H 2.5475591 Z m 2.9809731,0 c -0.2292006,0 -0.4213939,0.04018 -0.5798952,0.120086 -0.2154767,0.1034 -0.333375,0.265499 -0.333375,0.471594 v 0.634222 c 0,0.205883 0.1190969,0.365196 0.3360896,0.462386 0.1737096,0.07281 0.3674904,0.109291 0.5798979,0.109291 h 0.2610908 c 0.2323042,0 0.4213225,-0.0362 0.56642,-0.109291 0.2030942,-0.09528 0.3124888,-0.254 0.3124888,-0.462386 v -0.636905 c 0,-0.192723 -0.077187,-0.347591 -0.226695,-0.445416 C 6.2949322,52.9229 6.0763493,52.877109 5.7923297,52.877109 Z m -8.7966893,0.0024 c -0.2292006,0 -0.4248864,0.0375 -0.5834935,0.117512 -0.2154079,0.103294 -0.3298137,0.265499 -0.3298137,0.471594 v 0.634116 c 0,0.206094 0.1193112,0.365408 0.3361266,0.462491 0.1736037,0.0726 0.3647017,0.109292 0.5771806,0.109292 h 0.2295181 c 0.046,0 0.085582,-0.01151 0.1146863,-0.03979 0.029104,-0.02808 0.043286,-0.06971 0.043286,-0.115605 0,-0.04008 -0.00318,-0.07278 -0.0054,-0.09747 -0.00185,-0.02212 -0.00132,-0.03482 -0.009,-0.05151 -1.746e-4,-2.64e-4 -0.00238,7.94e-4 -0.00283,0 -7.938e-4,-0.0013 2.646e-4,-0.0041 0,-0.0054 -0.01061,-0.02582 -0.027694,-0.04953 -0.051506,-0.06332 -0.025612,-0.01468 -0.056198,-0.0199 -0.089501,-0.0199 H -3.262921 c -0.1146889,0 -0.2124075,-0.0141 -0.2953808,-0.03778 -0.062513,-0.0182 -0.105799,-0.03962 -0.1319054,-0.06333 -0.026008,-0.02379 -0.037923,-0.04667 -0.037923,-0.07768 v -0.634116 c 0,-0.0333 0.012039,-0.0575 0.037923,-0.08308 0.026009,-0.02572 0.068088,-0.05249 0.1291881,-0.07243 0.0865,-0.0272 0.1863011,-0.03969 0.2980981,-0.03969 h 0.2475071 c 0.1528948,0 0.2663137,0.01852 0.3360923,0.04879 0.069816,0.03031 0.094792,0.0635 0.094792,0.117406 v 0.155398 0.775123 0.126505 c 0,0.05387 0.012806,0.09969 0.045225,0.131869 0.032279,0.032 0.079587,0.046 0.1327864,0.046 0.047694,0 0.086006,-7.94e-4 0.1146863,-0.0028 0.026009,-0.0019 0.041418,-0.0028 0.060502,-0.01183 0.00132,-2.65e-4 0.00132,-0.0021 0.00283,-0.0024 7.938e-4,-2.65e-4 0.00212,1.77e-4 0.00283,0 0.029493,-0.01204 0.054999,-0.0309 0.071369,-0.05793 0.017542,-0.02868 0.02622,-0.06357 0.02622,-0.10287 V 54.370155 53.595032 53.46595 c 0,-0.192617 -0.077504,-0.345123 -0.226695,-0.442701 -0.149188,-0.09772 -0.3655113,-0.143722 -0.6494992,-0.143722 h -0.2638054 z m 7.3947152,0.0028 c -0.053306,0 -0.099306,0.01429 -0.1319028,0.04611 -0.032491,0.03157 -0.046003,0.0768 -0.046003,0.12908 v 1.424588 c 0,0.0381 0.00688,0.07521 0.023495,0.103928 0.015425,0.02678 0.039688,0.04487 0.068614,0.0569 7.938e-4,1.75e-4 0.00212,-2.64e-4 0.00283,0 0.00132,7.94e-4 0.00132,0.0021 0.00283,0.0024 0.018706,0.0085 0.034571,0.0098 0.060571,0.01193 0.028503,0.0021 0.065299,0.0024 0.112006,0.0024 0.053411,0 0.1030129,-0.014 0.1355037,-0.046 0.032491,-0.0321 0.045119,-0.07899 0.045119,-0.131902 v -1.424589 c 0,-0.03771 -0.00833,-0.07189 -0.025321,-0.100187 -0.015875,-0.02649 -0.039301,-0.04621 -0.06858,-0.05782 -0.00185,-0.0011 -0.00458,7.94e-4 -0.00632,0 -0.018812,-0.0087 -0.034573,-0.01249 -0.060571,-0.0145 -0.028223,-0.0021 -0.065934,-0.0028 -0.1120087,-0.0028 z m -1.5618169,0.38749 h 0.2212975 c 0.1522941,0 0.2569977,0.0048 0.3070913,0.01439 0.066217,0.01312 0.1131014,0.0344 0.1409356,0.05793 0.0278,0.02357 0.039793,0.04978 0.039793,0.08587 v 0.666504 c 0,0.05793 -0.024633,0.0955 -0.088617,0.126505 -0.063889,0.03111 -0.168312,0.0489 -0.3106923,0.0489 H 2.0994502 v -0.832874 c 0,-0.02611 0.00688,-0.04702 0.022569,-0.066 0.015796,-0.01913 0.039793,-0.0362 0.077716,-0.0514 0.075777,-0.03073 0.1998848,-0.04981 0.364879,-0.04981 z m 2.9692229,0.0036 h 0.25019 c 0.1528948,0 0.2639854,0.01558 0.333412,0.04622 0.06939,0.03037 0.09479,0.06607 0.09479,0.11998 v 0.663115 c 0,0.02829 -0.01061,0.04879 -0.035206,0.07218 -0.02458,0.02352 -0.065193,0.04731 -0.1229095,0.06601 -0.084595,0.02741 -0.1743075,0.0406 -0.2700867,0.0406 H 5.5366364 c -0.1145831,0 -0.2123017,-0.01119 -0.2953808,-0.03521 -0.062407,-0.0182 -0.1079157,-0.0417 -0.13462,-0.0659 -0.026707,-0.02421 -0.037888,-0.0471 -0.037888,-0.07768 v -0.634117 c 0,-0.03309 0.011615,-0.06089 0.037888,-0.08668 0.026379,-0.0259 0.070803,-0.0489 0.1319027,-0.06883 0.086712,-0.0272 0.1835864,-0.03969 0.2954152,-0.03969"
         style="fill:#1f1b20;fill-opacity:1;fill-rule:nonzero;stroke:none;stroke-width:0.352777"
         id="path2502-1" />
    </g>
  </g>
</svg>
