<?xml version="1.0" encoding="UTF-8"?>
<svg xmlns="http://www.w3.org/2000/svg" xmlns:xlink="http://www.w3.org/1999/xlink" width="28pt" height="28pt" viewBox="0 0 28 28" version="1.1">
<g id="surface1">
<path style=" stroke:none;fill-rule:nonzero;fill:rgb(0%,0%,0%);fill-opacity:1;" d="M 6.703125 15.878906 C 6.535156 15.207031 6.453125 14.574219 6.453125 13.980469 L 6.453125 11.828125 C 6.453125 11.539062 6.34375 11.285156 6.132812 11.070312 C 5.921875 10.859375 5.667969 10.753906 5.378906 10.753906 C 5.085938 10.753906 4.832031 10.859375 4.621094 11.070312 C 4.40625 11.285156 4.300781 11.539062 4.300781 11.828125 L 4.300781 13.980469 C 4.300781 15.222656 4.535156 16.421875 5.007812 17.574219 Z M 6.703125 15.878906 "/>
<path style=" stroke:none;fill-rule:nonzero;fill:rgb(0%,0%,0%);fill-opacity:1;" d="M 13.980469 19.355469 C 15.457031 19.355469 16.722656 18.828125 17.777344 17.777344 C 18.828125 16.722656 19.355469 15.457031 19.355469 13.980469 L 19.355469 11.828125 L 25.421875 5.761719 C 25.53125 5.652344 25.589844 5.523438 25.589844 5.375 C 25.589844 5.230469 25.53125 5.101562 25.421875 4.988281 L 24.042969 3.613281 C 23.929688 3.5 23.800781 3.445312 23.65625 3.445312 C 23.511719 3.445312 23.382812 3.5 23.269531 3.613281 L 2.539062 24.34375 C 2.425781 24.457031 2.371094 24.585938 2.371094 24.730469 C 2.371094 24.878906 2.425781 25.007812 2.539062 25.117188 L 3.914062 26.496094 C 4.027344 26.609375 4.15625 26.664062 4.300781 26.664062 C 4.445312 26.664062 4.574219 26.609375 4.6875 26.496094 L 8.957031 22.226562 C 10.1875 22.992188 11.503906 23.445312 12.902344 23.589844 L 12.902344 25.808594 L 8.601562 25.808594 C 8.3125 25.808594 8.058594 25.914062 7.847656 26.128906 C 7.632812 26.339844 7.527344 26.589844 7.527344 26.882812 C 7.527344 27.171875 7.632812 27.425781 7.847656 27.640625 C 8.058594 27.851562 8.3125 27.957031 8.601562 27.957031 L 19.355469 27.957031 C 19.648438 27.957031 19.898438 27.851562 20.113281 27.640625 C 20.324219 27.425781 20.429688 27.171875 20.429688 26.882812 C 20.429688 26.589844 20.324219 26.339844 20.113281 26.128906 C 19.898438 25.914062 19.648438 25.808594 19.355469 25.808594 L 15.054688 25.808594 L 15.054688 23.589844 C 17.484375 23.320312 19.527344 22.269531 21.179688 20.441406 C 22.832031 18.609375 23.65625 16.453125 23.65625 13.980469 L 23.65625 11.828125 C 23.65625 11.539062 23.550781 11.285156 23.335938 11.074219 C 23.125 10.859375 22.871094 10.753906 22.582031 10.753906 C 22.289062 10.753906 22.039062 10.859375 21.824219 11.074219 C 21.613281 11.285156 21.507812 11.539062 21.507812 11.828125 L 21.507812 13.980469 C 21.507812 16.050781 20.769531 17.824219 19.296875 19.296875 C 17.824219 20.769531 16.050781 21.503906 13.980469 21.503906 C 12.769531 21.503906 11.621094 21.21875 10.535156 20.648438 L 12.148438 19.035156 C 12.753906 19.25 13.363281 19.355469 13.980469 19.355469 Z M 13.980469 19.355469 "/>
<path style=" stroke:none;fill-rule:nonzero;fill:rgb(0%,0%,0%);fill-opacity:1;" d="M 17.078125 0.992188 C 16.15625 0.332031 15.121094 0 13.980469 0 C 12.5 0 11.234375 0.527344 10.183594 1.578125 C 9.128906 2.632812 8.601562 3.898438 8.601562 5.375 L 8.601562 13.980469 L 19.035156 3.546875 C 18.65625 2.503906 18.003906 1.652344 17.078125 0.992188 Z M 17.078125 0.992188 "/>
</g>
</svg>
