<?xml version="1.0" encoding="UTF-8"?>
<svg xmlns="http://www.w3.org/2000/svg" xmlns:xlink="http://www.w3.org/1999/xlink" width="14pt" height="14pt" viewBox="0 0 14 14" version="1.1">
<g id="surface1">
<path style=" stroke:none;fill-rule:nonzero;fill:rgb(0%,0%,0%);fill-opacity:1;" d="M 7.4375 0 L 6.125 0 L 2.1875 4.375 L 0.875 4.375 C 0.390625 4.375 0 4.765625 0 5.25 L 0 8.75 C 0 9.234375 0.390625 9.625 0.875 9.625 L 2.1875 9.625 L 6.125 14 L 7.4375 14 C 7.679688 14 7.875 13.804688 7.875 13.5625 L 7.875 0.4375 C 7.875 0.195312 7.679688 0 7.4375 0 Z M 7.4375 0 "/>
<path style=" stroke:none;fill-rule:nonzero;fill:rgb(0%,0%,0%);fill-opacity:1;" d="M 13.125 6.125 L 12.25 6.125 L 12.25 5.25 C 12.25 4.765625 11.859375 4.375 11.375 4.375 C 10.890625 4.375 10.5 4.765625 10.5 5.25 L 10.5 6.125 L 9.625 6.125 C 9.140625 6.125 8.75 6.515625 8.75 7 C 8.75 7.484375 9.140625 7.875 9.625 7.875 L 10.5 7.875 L 10.5 8.75 C 10.5 9.234375 10.890625 9.625 11.375 9.625 C 11.859375 9.625 12.25 9.234375 12.25 8.75 L 12.25 7.875 L 13.125 7.875 C 13.609375 7.875 14 7.484375 14 7 C 14 6.515625 13.609375 6.125 13.125 6.125 Z M 13.125 6.125 "/>
</g>
</svg>
