<?xml version="1.0" encoding="UTF-8"?>
<svg xmlns="http://www.w3.org/2000/svg" xmlns:xlink="http://www.w3.org/1999/xlink" width="28pt" height="28pt" viewBox="0 0 28 28" version="1.1">
<g id="surface1">
<path style=" stroke:none;fill-rule:nonzero;fill:rgb(0%,0%,0%);fill-opacity:1;" d="M 13.789062 0 C 6.183594 0 0 6.183594 0 13.789062 C 0 21.390625 6.183594 27.574219 13.789062 27.574219 C 21.390625 27.574219 27.574219 21.390625 27.574219 13.789062 C 27.574219 6.183594 21.390625 0 13.789062 0 Z M 20.417969 14.847656 L 7.160156 14.847656 C 6.574219 14.847656 6.097656 14.371094 6.097656 13.789062 C 6.097656 13.203125 6.574219 12.726562 7.160156 12.726562 L 20.417969 12.726562 C 21 12.726562 21.476562 13.203125 21.476562 13.789062 C 21.476562 14.371094 21 14.847656 20.417969 14.847656 Z M 20.417969 14.847656 "/>
</g>
</svg>
