<?xml version="1.0" encoding="UTF-8"?>
<svg xmlns="http://www.w3.org/2000/svg" xmlns:xlink="http://www.w3.org/1999/xlink" width="28pt" height="28pt" viewBox="0 0 28 28" version="1.1">
<g id="surface1">
<path style=" stroke:none;fill-rule:nonzero;fill:rgb(0%,0%,0%);fill-opacity:1;" d="M 26.09375 6.964844 C 24.84375 4.824219 23.148438 3.125 21.003906 1.875 C 18.863281 0.625 16.523438 0 13.984375 0 C 11.449219 0 9.109375 0.625 6.964844 1.875 C 4.824219 3.125 3.125 4.824219 1.875 6.964844 C 0.625 9.109375 0 11.449219 0 13.984375 C 0 16.523438 0.625 18.863281 1.875 21.003906 C 3.125 23.148438 4.824219 24.84375 6.964844 26.09375 C 9.109375 27.34375 11.449219 27.96875 13.984375 27.96875 C 16.523438 27.96875 18.863281 27.34375 21.003906 26.09375 C 23.148438 24.84375 24.84375 23.148438 26.09375 21.003906 C 27.34375 18.863281 27.96875 16.523438 27.96875 13.984375 C 27.96875 11.449219 27.34375 9.109375 26.09375 6.964844 Z M 22.144531 15.152344 C 22.144531 15.464844 22.027344 15.738281 21.796875 15.96875 C 21.566406 16.199219 21.292969 16.316406 20.976562 16.316406 L 6.992188 16.316406 C 6.675781 16.316406 6.402344 16.199219 6.171875 15.96875 C 5.941406 15.738281 5.828125 15.464844 5.828125 15.152344 L 5.828125 12.820312 C 5.828125 12.503906 5.941406 12.230469 6.171875 12 C 6.402344 11.769531 6.675781 11.652344 6.992188 11.652344 L 20.976562 11.652344 C 21.292969 11.652344 21.566406 11.769531 21.796875 12 C 22.027344 12.230469 22.144531 12.503906 22.144531 12.820312 Z M 22.144531 15.152344 "/>
</g>
</svg>
