<?xml version="1.0" encoding="UTF-8"?>
<svg xmlns="http://www.w3.org/2000/svg" xmlns:xlink="http://www.w3.org/1999/xlink" width="28pt" height="28pt" viewBox="0 0 28 28" version="1.1">
<g id="surface1">
<path style=" stroke:none;fill-rule:nonzero;fill:rgb(0%,0%,0%);fill-opacity:1;" d="M 21.042969 1.398438 L 17.621094 1.382812 C 17.167969 0.425781 15.476562 0 14 0 C 12.523438 0 10.832031 0.425781 10.398438 1.398438 L 6.957031 1.398438 C 6.464844 1.402344 6.066406 1.800781 6.066406 2.292969 L 6.066406 26.601562 C 6.066406 27.375 6.695312 28 7.464844 28 C 8.238281 28 8.867188 27.375 8.867188 26.601562 L 8.867188 25.667969 L 19.132812 25.667969 L 19.132812 26.601562 C 19.132812 27.371094 19.761719 28 20.535156 28 C 21.304688 28 21.933594 27.371094 21.933594 26.601562 L 21.933594 2.292969 C 21.933594 1.800781 21.535156 1.402344 21.042969 1.398438 Z M 7.933594 26.601562 C 7.933594 26.859375 7.722656 27.066406 7.464844 27.066406 C 7.207031 27.066406 7 26.859375 7 26.601562 L 7 20.066406 L 7.933594 20.066406 Z M 13.535156 24.734375 L 8.867188 24.734375 L 8.867188 20.066406 L 13.535156 20.066406 Z M 19.132812 24.734375 L 14.464844 24.734375 L 14.464844 20.066406 L 19.132812 20.066406 Z M 21 26.601562 C 21 26.859375 20.789062 27.066406 20.535156 27.066406 C 20.277344 27.066406 20.066406 26.859375 20.066406 26.601562 L 20.066406 20.066406 L 21 20.066406 Z M 21 19.132812 L 7 19.132812 L 7 18.199219 L 21 18.199219 Z M 8.867188 17.265625 L 8.867188 4.199219 L 11.316406 4.199219 C 11.699219 4.195312 12.035156 3.949219 12.160156 3.589844 C 12.304688 3.203125 13.03125 2.800781 14 2.800781 C 14.96875 2.800781 15.695312 3.203125 15.839844 3.589844 C 15.964844 3.949219 16.300781 4.195312 16.683594 4.199219 L 19.132812 4.199219 L 19.132812 17.265625 Z M 21 17.265625 L 20.066406 17.265625 L 20.066406 4.15625 C 20.066406 3.664062 19.667969 3.265625 19.175781 3.265625 L 16.714844 3.265625 C 16.40625 2.429688 15.3125 1.867188 14 1.867188 C 12.6875 1.867188 11.59375 2.429688 11.316406 3.265625 L 8.824219 3.265625 C 8.332031 3.265625 7.933594 3.664062 7.933594 4.15625 L 7.933594 17.265625 L 7 17.265625 L 7 2.332031 L 10.398438 2.332031 C 10.757812 2.324219 11.078125 2.113281 11.21875 1.785156 C 11.382812 1.441406 12.378906 0.933594 14 0.933594 C 15.621094 0.933594 16.617188 1.441406 16.777344 1.785156 C 16.921875 2.113281 17.242188 2.324219 17.601562 2.332031 L 21 2.332031 Z M 21 17.265625 "/>
<path style=" stroke:none;fill-rule:nonzero;fill:rgb(0%,0%,0%);fill-opacity:1;" d="M 10.265625 7 C 10.390625 7 10.507812 6.949219 10.597656 6.863281 L 11.53125 5.929688 C 11.710938 5.746094 11.707031 5.453125 11.527344 5.273438 C 11.347656 5.09375 11.054688 5.089844 10.871094 5.269531 L 9.9375 6.203125 C 9.804688 6.335938 9.761719 6.539062 9.835938 6.710938 C 9.90625 6.886719 10.078125 7 10.265625 7 Z M 10.265625 7 "/>
<path style=" stroke:none;fill-rule:nonzero;fill:rgb(0%,0%,0%);fill-opacity:1;" d="M 13.203125 5.269531 L 9.9375 8.535156 C 9.816406 8.652344 9.769531 8.828125 9.8125 8.988281 C 9.855469 9.152344 9.980469 9.277344 10.144531 9.320312 C 10.304688 9.363281 10.480469 9.316406 10.597656 9.195312 L 13.863281 5.929688 C 14.042969 5.746094 14.042969 5.453125 13.859375 5.273438 C 13.679688 5.09375 13.386719 5.089844 13.203125 5.269531 Z M 13.203125 5.269531 "/>
<path style=" stroke:none;fill-rule:nonzero;fill:rgb(0%,0%,0%);fill-opacity:1;" d="M 10.734375 22.867188 L 11.667969 22.867188 C 11.925781 22.867188 12.132812 22.65625 12.132812 22.398438 C 12.132812 22.140625 11.925781 21.933594 11.667969 21.933594 L 10.734375 21.933594 C 10.476562 21.933594 10.265625 22.140625 10.265625 22.398438 C 10.265625 22.65625 10.476562 22.867188 10.734375 22.867188 Z M 10.734375 22.867188 "/>
<path style=" stroke:none;fill-rule:nonzero;fill:rgb(0%,0%,0%);fill-opacity:1;" d="M 16.332031 22.867188 L 17.265625 22.867188 C 17.523438 22.867188 17.734375 22.65625 17.734375 22.398438 C 17.734375 22.140625 17.523438 21.933594 17.265625 21.933594 L 16.332031 21.933594 C 16.074219 21.933594 15.867188 22.140625 15.867188 22.398438 C 15.867188 22.65625 16.074219 22.867188 16.332031 22.867188 Z M 16.332031 22.867188 "/>
</g>
</svg>
