<?xml version="1.0" encoding="UTF-8"?>
<svg xmlns="http://www.w3.org/2000/svg" xmlns:xlink="http://www.w3.org/1999/xlink" width="28pt" height="28pt" viewBox="0 0 28 28" version="1.1">
<g id="surface1">
<path style=" stroke:none;fill-rule:nonzero;fill:rgb(0%,0%,0%);fill-opacity:1;" d="M 15.773438 6.21875 C 15.699219 6.148438 15.601562 6.105469 15.5 6.105469 C 15.398438 6.105469 15.300781 6.148438 15.230469 6.21875 L 11.996094 9.453125 C 11.84375 9.605469 11.84375 9.847656 11.996094 9.996094 C 12.144531 10.144531 12.386719 10.144531 12.535156 9.996094 L 15.773438 6.757812 C 15.921875 6.609375 15.921875 6.367188 15.773438 6.21875 Z M 15.773438 6.21875 "/>
<path style=" stroke:none;fill-rule:nonzero;fill:rgb(0%,0%,0%);fill-opacity:1;" d="M 15.230469 8.671875 L 14.007812 9.898438 C 13.855469 10.046875 13.855469 10.289062 14.007812 10.4375 C 14.15625 10.585938 14.398438 10.585938 14.546875 10.4375 L 15.773438 9.214844 C 15.917969 9.0625 15.914062 8.824219 15.769531 8.675781 C 15.621094 8.527344 15.382812 8.527344 15.230469 8.671875 Z M 15.230469 8.671875 "/>
<path style=" stroke:none;fill-rule:nonzero;fill:rgb(0%,0%,0%);fill-opacity:1;" d="M 23.550781 11.011719 L 19.878906 11.011719 L 19.878906 3.234375 C 19.878906 3.132812 19.839844 3.039062 19.769531 2.964844 C 19.695312 2.894531 19.597656 2.851562 19.496094 2.851562 L 8.503906 2.851562 C 8.402344 2.851562 8.304688 2.894531 8.230469 2.964844 C 8.160156 3.039062 8.121094 3.132812 8.121094 3.234375 L 8.121094 11.011719 L 4.449219 11.011719 C 4.347656 11.011719 4.25 11.050781 4.175781 11.125 C 4.105469 11.195312 4.066406 11.292969 4.066406 11.394531 L 4.066406 15.210938 C 4.066406 15.3125 4.105469 15.410156 4.175781 15.484375 C 4.25 15.554688 4.347656 15.59375 4.449219 15.59375 L 6.335938 15.59375 L 6.335938 18.769531 C 6.335938 18.980469 6.507812 19.152344 6.71875 19.152344 L 7.136719 19.152344 L 7.136719 20.066406 C 7.136719 20.277344 7.308594 20.449219 7.519531 20.449219 L 7.867188 20.449219 L 7.144531 24.699219 C 7.125 24.8125 7.15625 24.925781 7.230469 25.011719 C 7.300781 25.097656 7.410156 25.148438 7.519531 25.148438 L 8.445312 25.148438 C 8.617188 25.148438 8.769531 25.027344 8.8125 24.859375 L 9.953125 20.449219 L 18.046875 20.449219 L 19.1875 24.859375 C 19.230469 25.027344 19.382812 25.148438 19.558594 25.148438 L 20.480469 25.148438 C 20.589844 25.148438 20.699219 25.097656 20.769531 25.011719 C 20.84375 24.925781 20.875 24.8125 20.855469 24.699219 L 20.132812 20.449219 L 20.480469 20.449219 C 20.691406 20.449219 20.863281 20.277344 20.863281 20.066406 L 20.863281 19.152344 L 21.28125 19.152344 C 21.492188 19.152344 21.664062 18.980469 21.664062 18.769531 L 21.664062 15.59375 L 23.550781 15.59375 C 23.652344 15.59375 23.75 15.554688 23.824219 15.484375 C 23.894531 15.410156 23.933594 15.3125 23.933594 15.210938 L 23.933594 11.394531 C 23.933594 11.292969 23.894531 11.195312 23.824219 11.125 C 23.75 11.050781 23.652344 11.011719 23.550781 11.011719 Z M 23.167969 11.777344 L 23.167969 13.277344 L 19.878906 13.277344 L 19.878906 11.777344 Z M 19.113281 13.277344 L 18.53125 13.277344 L 18.53125 3.617188 L 19.113281 3.617188 Z M 10.234375 13.277344 L 10.234375 3.617188 L 17.765625 3.617188 L 17.765625 13.277344 Z M 8.886719 3.617188 L 9.46875 3.617188 L 9.46875 13.277344 L 8.886719 13.277344 Z M 8.121094 11.777344 L 8.121094 13.277344 L 4.832031 13.277344 L 4.832031 11.777344 Z M 8.148438 24.382812 L 7.976562 24.382812 L 8.644531 20.449219 L 9.164062 20.449219 Z M 20.023438 24.382812 L 19.851562 24.382812 L 18.835938 20.449219 L 19.355469 20.449219 Z M 20.09375 19.683594 L 7.902344 19.683594 L 7.902344 19.152344 L 20.097656 19.152344 Z M 20.894531 18.386719 L 7.101562 18.386719 L 7.101562 15.59375 L 20.898438 15.59375 Z M 23.167969 14.828125 L 4.832031 14.828125 L 4.832031 14.042969 L 23.167969 14.042969 Z M 23.167969 14.828125 "/>
<path style=" stroke:none;fill-rule:nonzero;fill:rgb(0%,0%,0%);fill-opacity:1;" d="M 13.535156 17.375 L 14.464844 17.375 C 14.675781 17.375 14.847656 17.203125 14.847656 16.992188 C 14.847656 16.78125 14.675781 16.609375 14.464844 16.609375 L 13.535156 16.609375 C 13.324219 16.609375 13.152344 16.78125 13.152344 16.992188 C 13.152344 17.203125 13.324219 17.375 13.535156 17.375 Z M 13.535156 17.375 "/>
<path style=" stroke:none;fill-rule:nonzero;fill:rgb(0%,0%,0%);fill-opacity:1;" d="M 6.011719 12.910156 L 6.941406 12.910156 C 7.152344 12.910156 7.324219 12.738281 7.324219 12.527344 C 7.324219 12.316406 7.152344 12.144531 6.941406 12.144531 L 6.011719 12.144531 C 5.800781 12.144531 5.628906 12.316406 5.628906 12.527344 C 5.628906 12.738281 5.800781 12.910156 6.011719 12.910156 Z M 6.011719 12.910156 "/>
<path style=" stroke:none;fill-rule:nonzero;fill:rgb(0%,0%,0%);fill-opacity:1;" d="M 21.058594 12.910156 L 21.988281 12.910156 C 22.199219 12.910156 22.371094 12.738281 22.371094 12.527344 C 22.371094 12.316406 22.199219 12.144531 21.988281 12.144531 L 21.058594 12.144531 C 20.847656 12.144531 20.675781 12.316406 20.675781 12.527344 C 20.675781 12.738281 20.847656 12.910156 21.058594 12.910156 Z M 21.058594 12.910156 "/>
</g>
</svg>
