<?xml version="1.0" encoding="UTF-8"?>
<svg xmlns="http://www.w3.org/2000/svg" xmlns:xlink="http://www.w3.org/1999/xlink" width="28pt" height="27pt" viewBox="0 0 28 27" version="1.1">
<g id="surface1">
<path style=" stroke:none;fill-rule:nonzero;fill:rgb(0%,0%,0%);fill-opacity:1;" d="M 26.707031 2.679688 L 1.292969 2.679688 C 0.578125 2.679688 0 3.238281 0 3.925781 L 0 19.074219 C 0 19.761719 0.578125 20.320312 1.292969 20.320312 L 10.921875 20.320312 L 10.921875 23.164062 L 8.097656 23.164062 L 8.097656 24.320312 L 19.902344 24.320312 L 19.902344 23.164062 L 17.078125 23.164062 L 17.078125 20.320312 L 26.707031 20.320312 C 27.421875 20.320312 28 19.761719 28 19.074219 L 28 3.925781 C 28 3.238281 27.421875 2.679688 26.707031 2.679688 Z M 26.917969 19.074219 C 26.917969 19.183594 26.824219 19.277344 26.707031 19.277344 L 1.292969 19.277344 C 1.175781 19.277344 1.082031 19.183594 1.082031 19.074219 L 1.082031 3.925781 C 1.082031 3.8125 1.175781 3.722656 1.292969 3.722656 L 26.707031 3.722656 C 26.824219 3.722656 26.917969 3.8125 26.917969 3.925781 C 26.917969 3.925781 26.917969 19.074219 26.917969 19.074219 Z M 26.917969 19.074219 "/>
</g>
</svg>
