<?xml version="1.0" encoding="UTF-8"?>
<svg xmlns="http://www.w3.org/2000/svg" xmlns:xlink="http://www.w3.org/1999/xlink" width="28pt" height="28pt" viewBox="0 0 28 28" version="1.1">
<g id="surface1">
<path style=" stroke:none;fill-rule:nonzero;fill:rgb(0%,0%,0%);fill-opacity:1;" d="M 20.125 26.25 L 18.375 26.25 C 17.410156 26.25 16.625 25.464844 16.625 24.5 L 16.625 21.875 L 11.375 21.875 L 11.375 24.5 C 11.375 25.464844 10.589844 26.25 9.625 26.25 L 7.875 26.25 C 7.390625 26.25 7 26.640625 7 27.125 C 7 27.609375 7.390625 28 7.875 28 L 20.125 28 C 20.609375 28 21 27.609375 21 27.125 C 21 26.640625 20.609375 26.25 20.125 26.25 Z M 26.46875 0 L 1.53125 0 C 0.6875 0 0 0.734375 0 1.640625 L 0 18.484375 C 0 19.390625 0.6875 20.125 1.53125 20.125 L 26.46875 20.125 C 27.3125 20.125 28 19.390625 28 18.484375 L 28 1.640625 C 28 0.734375 27.3125 0 26.46875 0 Z M 26.25 18.375 L 1.75 18.375 L 1.75 1.75 L 26.25 1.75 Z M 26.25 18.375 "/>
</g>
</svg>
