<?xml version="1.0" encoding="UTF-8"?>
<svg xmlns="http://www.w3.org/2000/svg" xmlns:xlink="http://www.w3.org/1999/xlink" width="28pt" height="28pt" viewBox="0 0 28 28" version="1.1">
<g id="surface1">
<path style=" stroke:none;fill-rule:nonzero;fill:rgb(0%,0%,0%);fill-opacity:1;" d="M 16.542969 9.035156 C 16.414062 8.933594 16.253906 8.882812 16.09375 8.894531 L 13.636719 8.894531 L 15.945312 6.316406 L 16.164062 6.078125 L 16.273438 5.9375 C 16.3125 5.882812 16.34375 5.824219 16.367188 5.761719 C 16.394531 5.695312 16.40625 5.625 16.40625 5.550781 C 16.425781 5.382812 16.339844 5.21875 16.191406 5.132812 C 16 5.042969 15.789062 5.003906 15.578125 5.015625 L 12.707031 5.015625 C 12.554688 5.003906 12.402344 5.050781 12.28125 5.144531 C 12.179688 5.226562 12.125 5.355469 12.128906 5.488281 C 12.128906 5.6875 12.195312 5.808594 12.328125 5.851562 C 12.515625 5.902344 12.714844 5.925781 12.910156 5.921875 L 14.78125 5.921875 C 14.703125 6.027344 14.601562 6.15625 14.480469 6.304688 L 14 6.84375 L 13.351562 7.546875 L 12.597656 8.382812 C 12.335938 8.671875 12.164062 8.867188 12.082031 8.964844 C 11.894531 9.191406 11.917969 9.523438 12.132812 9.71875 C 12.289062 9.835938 12.480469 9.890625 12.671875 9.878906 L 16.085938 9.878906 C 16.25 9.890625 16.410156 9.84375 16.542969 9.742188 C 16.640625 9.65625 16.695312 9.53125 16.695312 9.398438 C 16.699219 9.261719 16.644531 9.128906 16.542969 9.035156 Z M 16.542969 9.035156 "/>
<path style=" stroke:none;fill-rule:nonzero;fill:rgb(0%,0%,0%);fill-opacity:1;" d="M 21.714844 12.023438 C 21.613281 11.941406 21.484375 11.902344 21.351562 11.910156 L 19.390625 11.910156 L 21.230469 9.855469 L 21.40625 9.660156 L 21.515625 9.527344 C 21.546875 9.484375 21.574219 9.4375 21.59375 9.386719 C 21.613281 9.332031 21.625 9.273438 21.628906 9.21875 C 21.640625 9.082031 21.578125 8.949219 21.457031 8.878906 C 21.304688 8.808594 21.136719 8.773438 20.96875 8.785156 L 18.652344 8.785156 C 18.53125 8.777344 18.410156 8.816406 18.3125 8.890625 C 18.234375 8.957031 18.1875 9.058594 18.191406 9.164062 C 18.191406 9.320312 18.242188 9.417969 18.347656 9.457031 C 18.5 9.5 18.660156 9.515625 18.816406 9.507812 L 20.3125 9.507812 C 20.253906 9.597656 20.171875 9.695312 20.066406 9.820312 L 19.679688 10.25 L 19.179688 10.835938 L 18.59375 11.503906 C 18.382812 11.738281 18.246094 11.894531 18.179688 11.980469 C 18.042969 12.160156 18.058594 12.410156 18.21875 12.566406 C 18.34375 12.65625 18.492188 12.703125 18.648438 12.6875 L 21.359375 12.6875 C 21.488281 12.699219 21.617188 12.664062 21.722656 12.585938 C 21.796875 12.515625 21.839844 12.414062 21.839844 12.308594 C 21.839844 12.199219 21.796875 12.097656 21.714844 12.023438 Z M 21.714844 12.023438 "/>
<path style=" stroke:none;fill-rule:nonzero;fill:rgb(0%,0%,0%);fill-opacity:1;" d="M 27.847656 8.738281 C 27.71875 8.636719 27.558594 8.585938 27.398438 8.597656 L 24.925781 8.597656 L 27.234375 6.019531 L 27.449219 5.78125 L 27.589844 5.609375 C 27.628906 5.554688 27.660156 5.496094 27.683594 5.433594 C 27.710938 5.367188 27.722656 5.296875 27.726562 5.222656 C 27.742188 5.054688 27.65625 4.890625 27.507812 4.804688 C 27.316406 4.714844 27.105469 4.675781 26.894531 4.6875 L 23.996094 4.6875 C 23.84375 4.675781 23.691406 4.722656 23.570312 4.816406 C 23.46875 4.902344 23.410156 5.027344 23.417969 5.160156 C 23.417969 5.359375 23.484375 5.480469 23.617188 5.523438 C 23.804688 5.578125 24.003906 5.601562 24.199219 5.59375 L 26.070312 5.59375 C 25.992188 5.703125 25.890625 5.832031 25.765625 5.980469 L 25.28125 6.527344 L 24.648438 7.230469 L 23.894531 8.066406 C 23.636719 8.359375 23.464844 8.550781 23.382812 8.648438 C 23.195312 8.875 23.21875 9.207031 23.433594 9.402344 C 23.589844 9.519531 23.78125 9.578125 23.972656 9.5625 L 27.378906 9.5625 C 27.546875 9.582031 27.710938 9.539062 27.847656 9.445312 C 27.945312 9.359375 28.003906 9.230469 28 9.101562 C 28.003906 8.960938 27.949219 8.832031 27.847656 8.738281 Z M 27.847656 8.738281 "/>
<path style=" stroke:none;fill-rule:nonzero;fill:rgb(0%,0%,0%);fill-opacity:1;" d="M 25.832031 18.582031 C 25.664062 18.410156 25.410156 18.355469 25.1875 18.449219 C 18.851562 21.070312 11.589844 18.058594 8.964844 11.722656 C 7.636719 8.507812 7.714844 4.878906 9.1875 1.722656 C 9.328125 1.429688 9.203125 1.082031 8.910156 0.945312 C 8.761719 0.875 8.585938 0.871094 8.433594 0.933594 C 1.488281 3.785156 -1.828125 11.730469 1.023438 18.675781 C 3.875 25.625 11.820312 28.941406 18.765625 26.089844 C 21.933594 24.785156 24.496094 22.335938 25.9375 19.230469 C 26.039062 19.011719 25.996094 18.757812 25.832031 18.582031 Z M 13.609375 25.949219 C 6.742188 25.945312 1.175781 20.378906 1.175781 13.511719 C 1.175781 9.003906 3.617188 4.847656 7.558594 2.652344 C 7.089844 4.035156 6.855469 5.488281 6.855469 6.949219 C 6.855469 14.460938 12.945312 20.550781 20.460938 20.550781 C 21.71875 20.550781 22.972656 20.375 24.183594 20.03125 C 21.914062 23.695312 17.917969 25.933594 13.609375 25.949219 Z M 13.609375 25.949219 "/>
</g>
</svg>
