<?xml version="1.0" encoding="UTF-8"?>
<svg xmlns="http://www.w3.org/2000/svg" xmlns:xlink="http://www.w3.org/1999/xlink" width="28pt" height="28pt" viewBox="0 0 28 28" version="1.1">
<g id="surface1">
<path style=" stroke:none;fill-rule:nonzero;fill:rgb(0%,0%,0%);fill-opacity:1;" d="M 20.789062 4.429688 L 21.636719 6.816406 L 22.355469 4.386719 L 24.886719 4.320312 L 22.796875 2.886719 L 23.515625 0.457031 L 21.507812 2 L 19.417969 0.566406 L 20.265625 2.953125 L 18.257812 4.5 Z M 20.789062 4.429688 "/>
<path style=" stroke:none;fill-rule:nonzero;fill:rgb(0%,0%,0%);fill-opacity:1;" d="M 21.945312 11.488281 L 20.121094 8.257812 L 19.699219 11.941406 L 16.066406 12.679688 L 19.4375 14.21875 L 19.015625 17.902344 L 21.523438 15.171875 L 24.894531 16.710938 L 23.074219 13.484375 L 25.582031 10.75 Z M 21.945312 11.488281 "/>
<path style=" stroke:none;fill-rule:nonzero;fill:rgb(0%,0%,0%);fill-opacity:1;" d="M 12.769531 10.457031 L 14.359375 9.300781 L 15.953125 10.457031 L 15.34375 8.585938 L 16.933594 7.429688 L 14.96875 7.429688 L 14.359375 5.5625 L 13.753906 7.429688 L 11.785156 7.429688 L 13.378906 8.585938 Z M 12.769531 10.457031 "/>
<path style=" stroke:none;fill-rule:nonzero;fill:rgb(0%,0%,0%);fill-opacity:1;" d="M 12.550781 15.492188 C 8.359375 11.304688 7.269531 5.191406 9.273438 0 C 7.441406 0.707031 5.726562 1.796875 4.25 3.273438 C -1.417969 8.941406 -1.417969 18.125 4.25 23.792969 C 9.914062 29.457031 19.101562 29.457031 24.765625 23.792969 C 26.242188 22.316406 27.335938 20.597656 28.042969 18.765625 C 22.847656 20.773438 16.738281 19.679688 12.550781 15.492188 Z M 12.550781 15.492188 "/>
</g>
</svg>
