<?xml version="1.0" encoding="UTF-8"?>
<svg xmlns="http://www.w3.org/2000/svg" xmlns:xlink="http://www.w3.org/1999/xlink" width="28pt" height="28pt" viewBox="0 0 28 28" version="1.1">
<g id="surface1">
<path style=" stroke:none;fill-rule:nonzero;fill:rgb(0%,0%,0%);fill-opacity:1;" d="M 26.457031 4.667969 C 26.386719 4.667969 26.316406 4.675781 26.246094 4.683594 L 25.621094 4.769531 L 25.375 4.1875 C 25.011719 3.316406 24.164062 2.753906 23.21875 2.753906 C 22.097656 2.753906 21.132812 3.550781 20.921875 4.652344 L 20.800781 5.296875 L 20.144531 5.316406 C 19.484375 5.339844 18.964844 5.875 18.964844 6.535156 C 18.964844 7.207031 19.511719 7.753906 20.183594 7.753906 L 26.457031 7.753906 C 27.308594 7.753906 28 7.0625 28 6.210938 C 28 5.359375 27.308594 4.667969 26.457031 4.667969 Z M 26.457031 4.667969 "/>
<path style=" stroke:none;fill-rule:nonzero;fill:rgb(0%,0%,0%);fill-opacity:1;" d="M 11.53125 19.867188 C 11.410156 19.867188 11.28125 19.875 11.160156 19.894531 L 10.535156 19.980469 L 10.292969 19.398438 C 9.6875 17.953125 8.285156 17.019531 6.71875 17.019531 C 4.859375 17.019531 3.261719 18.34375 2.914062 20.164062 L 2.792969 20.808594 L 2.136719 20.832031 C 0.9375 20.871094 0 21.839844 0 23.039062 C 0 24.257812 0.992188 25.246094 2.207031 25.246094 L 11.53125 25.246094 C 13.015625 25.246094 14.222656 24.042969 14.222656 22.558594 C 14.222656 21.074219 13.015625 19.867188 11.53125 19.867188 Z M 11.53125 19.867188 "/>
<path style=" stroke:none;fill-rule:nonzero;fill:rgb(0%,0%,0%);fill-opacity:1;" d="M 20.058594 17.230469 C 14.945312 17.230469 10.789062 13.074219 10.789062 7.960938 C 10.789062 6.367188 11.195312 4.816406 11.960938 3.449219 C 10.316406 3.949219 8.820312 4.878906 7.636719 6.167969 C 5.988281 7.960938 5.082031 10.289062 5.082031 12.726562 C 5.082031 13.679688 5.21875 14.617188 5.488281 15.519531 C 5.886719 15.425781 6.296875 15.378906 6.71875 15.378906 C 8.746094 15.378906 10.582031 16.480469 11.546875 18.226562 C 13.859375 18.234375 15.75 20.066406 15.855469 22.355469 C 19.351562 21.960938 22.355469 19.6875 23.703125 16.488281 C 22.5625 16.976562 21.328125 17.230469 20.058594 17.230469 Z M 20.058594 17.230469 "/>
</g>
</svg>
