<?xml version="1.0" encoding="UTF-8"?>
<svg xmlns="http://www.w3.org/2000/svg" xmlns:xlink="http://www.w3.org/1999/xlink" width="28pt" height="28pt" viewBox="0 0 28 28" version="1.1">
<g id="surface1">
<path style=" stroke:none;fill-rule:nonzero;fill:rgb(0%,0%,0%);fill-opacity:1;" d="M 14 0.4375 C 6.507812 0.4375 0.4375 6.507812 0.4375 14 C 0.4375 21.492188 6.507812 27.5625 14 27.5625 C 21.492188 27.5625 27.5625 21.492188 27.5625 14 C 27.554688 6.511719 21.488281 0.445312 14 0.4375 Z M 14 26.6875 C 6.992188 26.6875 1.3125 21.007812 1.3125 14 C 1.3125 6.992188 6.992188 1.3125 14 1.3125 C 21.007812 1.3125 26.6875 6.992188 26.6875 14 C 26.679688 21.003906 21.003906 26.679688 14 26.6875 Z M 14 26.6875 "/>
<path style=" stroke:none;fill-rule:nonzero;fill:rgb(0%,0%,0%);fill-opacity:1;" d="M 16.757812 6.621094 C 16.609375 6.5625 16.441406 6.589844 16.320312 6.6875 C 16.195312 6.789062 16.136719 6.945312 16.164062 7.101562 C 16.191406 7.257812 16.300781 7.386719 16.449219 7.441406 C 19.617188 8.625 21.484375 11.902344 20.890625 15.230469 C 20.296875 18.558594 17.40625 20.984375 14.027344 20.996094 C 10.644531 21.011719 7.738281 18.605469 7.117188 15.28125 C 6.5 11.957031 8.34375 8.664062 11.503906 7.457031 C 11.726562 7.371094 11.839844 7.121094 11.753906 6.894531 C 11.667969 6.667969 11.414062 6.554688 11.191406 6.640625 C 7.636719 8 5.5625 11.703125 6.257812 15.441406 C 6.953125 19.179688 10.222656 21.886719 14.027344 21.871094 C 17.832031 21.859375 21.082031 19.128906 21.75 15.382812 C 22.421875 11.640625 20.320312 7.953125 16.757812 6.621094 Z M 16.757812 6.621094 "/>
<path style=" stroke:none;fill-rule:nonzero;fill:rgb(0%,0%,0%);fill-opacity:1;" d="M 14 13.125 C 14.242188 13.125 14.4375 12.929688 14.4375 12.6875 L 14.4375 5.25 C 14.4375 5.007812 14.242188 4.8125 14 4.8125 C 13.757812 4.8125 13.5625 5.007812 13.5625 5.25 L 13.5625 12.6875 C 13.5625 12.929688 13.757812 13.125 14 13.125 Z M 14 13.125 "/>
</g>
</svg>
