<?xml version="1.0" encoding="UTF-8"?>
<svg xmlns="http://www.w3.org/2000/svg" xmlns:xlink="http://www.w3.org/1999/xlink" width="28pt" height="28pt" viewBox="0 0 28 28" version="1.1">
<g id="surface1">
<path style=" stroke:none;fill-rule:nonzero;fill:rgb(1.176471%,0.392157%,1.568627%);fill-opacity:1;" d="M 18.324219 9.878906 C 19.222656 7.046875 18.652344 4.796875 17.371094 3.257812 C 17.132812 2.695312 17.089844 2.203125 17.195312 1.765625 C 17.378906 1.527344 17.679688 1.398438 18.035156 1.320312 C 17.808594 1.277344 17.589844 1.257812 17.375 1.285156 C 17.632812 0.796875 18.074219 0.378906 18.621094 0 C 17.441406 0.246094 16.417969 0.730469 15.878906 1.964844 C 13.796875 0.65625 11 0.539062 8.984375 1.867188 C 8.4375 0.703125 7.4375 0.242188 6.292969 0 C 6.835938 0.378906 7.277344 0.796875 7.535156 1.28125 C 7.324219 1.257812 7.109375 1.277344 6.890625 1.320312 C 7.234375 1.394531 7.527344 1.519531 7.710938 1.738281 C 7.824219 2.199219 7.78125 2.722656 7.511719 3.320312 C 6.515625 4.789062 6.074219 6.957031 6.652344 9.917969 C 4.441406 19.144531 8.703125 21.359375 12.804688 23.175781 C 12.699219 23.667969 12.429688 23.953125 12.003906 24.039062 C 10.652344 23.5 9.15625 24.71875 9.898438 26.21875 C 10.167969 25 10.691406 24.621094 11.375 24.769531 C 11.113281 25.285156 11.132812 25.835938 11.386719 26.417969 C 11.65625 25.660156 12.070312 25.152344 12.835938 25.253906 C 12.585938 25.832031 12.664062 26.492188 12.859375 27.1875 C 13.921875 24.742188 15.242188 24.949219 16.75 27.0625 C 17.101562 26.042969 17.019531 25.207031 15.820312 24.84375 L 15.824219 24.609375 C 16.871094 25.207031 17.757812 25.914062 18.324219 26.898438 C 19.601562 28.308594 20.484375 28.460938 20.800781 26.796875 C 22.859375 19.757812 22.226562 13.957031 18.324219 9.878906 Z M 12.628906 10.90625 C 8.402344 10.558594 6.925781 8.695312 7.574219 5.445312 C 8.621094 2.128906 11.058594 2.457031 12.554688 5.074219 C 13.996094 2.191406 16.144531 2.628906 17.359375 4.675781 C 18.742188 7.785156 16.832031 10.746094 12.628906 10.90625 Z M 13.554688 23.507812 L 14.867188 24.109375 C 14.207031 24.839844 13.347656 24.828125 13.554688 23.507812 Z M 19.75 25.582031 C 19.105469 20.488281 13.085938 16.953125 14.300781 12.007812 L 14.828125 11.957031 C 13.613281 16.90625 19.632812 20.4375 20.277344 25.535156 Z M 19.75 25.582031 "/>
<path style=" stroke:none;fill-rule:nonzero;fill:rgb(1.176471%,0.392157%,1.568627%);fill-opacity:1;" d="M 12.015625 8.480469 C 11.988281 9.292969 12.253906 9.914062 12.625 10.460938 C 12.972656 9.964844 13.1875 9.316406 13.207031 8.457031 C 13.09375 7.601562 12.144531 7.519531 12.015625 8.480469 Z M 12.015625 8.480469 "/>
<path style=" stroke:none;fill-rule:nonzero;fill:rgb(1.176471%,0.392157%,1.568627%);fill-opacity:1;" d="M 13.648438 7.148438 C 14.605469 8.441406 15.578125 8.253906 16.558594 6.851562 C 15.445312 5.699219 14.464844 5.699219 13.648438 7.148438 Z M 13.648438 7.148438 "/>
<path style=" stroke:none;fill-rule:nonzero;fill:rgb(1.176471%,0.392157%,1.568627%);fill-opacity:1;" d="M 8.511719 6.671875 C 9.058594 8.1875 10.042969 8.28125 11.386719 7.21875 C 10.648438 5.796875 9.710938 5.515625 8.511719 6.671875 Z M 8.511719 6.671875 "/>
</g>
</svg>
