<?xml version="1.0" encoding="UTF-8"?>
<svg xmlns="http://www.w3.org/2000/svg" xmlns:xlink="http://www.w3.org/1999/xlink" width="28pt" height="28pt" viewBox="0 0 28 28" version="1.1">
<g id="surface1">
<path style=" stroke:none;fill-rule:nonzero;fill:rgb(0%,0%,0%);fill-opacity:1;" d="M 4.125 15.359375 C 3.777344 17.105469 4.886719 18.816406 6.632812 19.195312 C 8.394531 19.578125 10.136719 18.453125 10.519531 16.691406 L 11.054688 11.773438 C 9.292969 10.816406 9.9375 14.78125 6.894531 14.125 C 4.804688 13.671875 4.234375 15.007812 4.125 15.359375 Z M 4.125 15.359375 "/>
<path style=" stroke:none;fill-rule:nonzero;fill:rgb(0%,0%,0%);fill-opacity:1;" d="M 26.75 21.265625 C 26.613281 20.855469 26.164062 20.625 25.75 20.765625 L 23.558594 21.496094 L 22.175781 17.34375 C 23.308594 16.789062 24.238281 15.902344 24.816406 14.753906 C 25.511719 13.363281 25.625 11.785156 25.109375 10.246094 L 21.503906 1.914062 L 11.914062 5.101562 L 12.554688 7.710938 L 4.359375 5.9375 L 1.65625 14.679688 C 1.328125 16.199219 1.613281 17.753906 2.453125 19.058594 C 3.152344 20.140625 4.171875 20.921875 5.355469 21.351562 L 4.433594 25.625 L 2.175781 25.140625 C 1.75 25.054688 1.328125 25.316406 1.238281 25.746094 C 1.144531 26.171875 1.414062 26.589844 1.84375 26.683594 L 4.863281 27.335938 C 4.867188 27.335938 4.867188 27.335938 4.867188 27.335938 C 4.871094 27.339844 4.875 27.335938 4.878906 27.339844 L 7.902344 27.992188 C 7.960938 28.003906 8.015625 28.007812 8.070312 28.007812 C 8.433594 28.007812 8.761719 27.757812 8.839844 27.386719 C 8.933594 26.960938 8.660156 26.539062 8.234375 26.449219 L 5.976562 25.960938 L 6.898438 21.699219 C 7.050781 21.714844 7.199219 21.726562 7.351562 21.726562 C 10.066406 21.726562 12.453125 19.796875 13.035156 17.078125 L 13.675781 12.273438 L 14.097656 13.984375 C 14.890625 16.367188 17.105469 17.964844 19.613281 17.964844 C 19.972656 17.964844 20.328125 17.921875 20.683594 17.855469 L 22.058594 21.996094 L 19.867188 22.722656 C 19.453125 22.859375 19.230469 23.308594 19.367188 23.71875 C 19.476562 24.050781 19.785156 24.261719 20.117188 24.261719 C 20.199219 24.261719 20.28125 24.25 20.367188 24.222656 L 26.25 22.265625 C 26.664062 22.128906 26.886719 21.679688 26.75 21.265625 Z M 11.484375 16.804688 C 11.003906 19.039062 8.703125 20.535156 6.449219 20.046875 L 6.445312 20.046875 C 5.339844 19.808594 4.394531 19.15625 3.78125 18.203125 C 3.167969 17.253906 2.960938 16.121094 3.183594 15.082031 L 5.441406 7.789062 L 12.480469 9.308594 Z M 15.613281 13.546875 L 13.796875 6.140625 L 20.628906 3.867188 L 23.636719 10.8125 C 23.992188 11.886719 23.910156 13.035156 23.402344 14.046875 C 22.898438 15.054688 22.027344 15.8125 20.953125 16.167969 C 20.519531 16.3125 20.066406 16.386719 19.613281 16.386719 C 17.785156 16.386719 16.171875 15.222656 15.613281 13.546875 Z M 15.613281 13.546875 "/>
<path style=" stroke:none;fill-rule:nonzero;fill:rgb(0%,0%,0%);fill-opacity:1;" d="M 22.757812 11.257812 C 22.605469 10.917969 21.898438 9.648438 19.871094 10.324219 C 16.914062 11.308594 17.128906 7.296875 15.480469 8.4375 L 16.542969 13.269531 C 17.113281 14.976562 18.96875 15.90625 20.675781 15.335938 C 22.371094 14.773438 23.289062 12.953125 22.757812 11.257812 Z M 22.757812 11.257812 "/>
<path style=" stroke:none;fill-rule:nonzero;fill:rgb(0%,0%,0%);fill-opacity:1;" d="M 9.152344 1.785156 C 9.644531 1.757812 10.023438 1.335938 9.996094 0.84375 C 9.972656 0.351562 9.550781 -0.0273438 9.058594 0 C 8.5625 0.0273438 8.1875 0.449219 8.210938 0.941406 C 8.238281 1.433594 8.660156 1.8125 9.152344 1.785156 Z M 9.152344 1.785156 "/>
<path style=" stroke:none;fill-rule:nonzero;fill:rgb(0%,0%,0%);fill-opacity:1;" d="M 12.605469 3.34375 C 13.097656 3.320312 13.476562 2.898438 13.449219 2.40625 C 13.421875 1.914062 13 1.535156 12.511719 1.5625 C 12.015625 1.589844 11.636719 2.007812 11.664062 2.5 C 11.691406 2.992188 12.113281 3.371094 12.605469 3.34375 Z M 12.605469 3.34375 "/>
<path style=" stroke:none;fill-rule:nonzero;fill:rgb(0%,0%,0%);fill-opacity:1;" d="M 8.65625 4.09375 C 8.683594 4.589844 9.105469 4.964844 9.597656 4.9375 C 10.089844 4.914062 10.46875 4.492188 10.441406 4 C 10.414062 3.507812 9.992188 3.128906 9.5 3.15625 C 9.007812 3.183594 8.628906 3.601562 8.65625 4.09375 Z M 8.65625 4.09375 "/>
</g>
</svg>
