<?xml version="1.0" encoding="UTF-8"?>
<svg xmlns="http://www.w3.org/2000/svg" xmlns:xlink="http://www.w3.org/1999/xlink" width="28pt" height="28pt" viewBox="0 0 28 28" version="1.1">
<g id="surface1">
<path style=" stroke:none;fill-rule:nonzero;fill:rgb(0%,0%,0%);fill-opacity:1;" d="M 20.34375 3.625 C 20.085938 3.179688 19.785156 2.769531 19.449219 2.394531 C 19.441406 2.386719 19.433594 2.382812 19.429688 2.375 C 18.503906 1.351562 17.308594 0.613281 15.945312 0.25 C 15.328125 0.0820312 14.695312 0 14.0625 0 C 10.792969 0 7.914062 2.210938 7.066406 5.375 L 6.753906 6.550781 C 6.542969 7.339844 6.648438 8.160156 7.058594 8.867188 C 7.464844 9.574219 8.121094 10.078125 8.910156 10.289062 C 9.167969 10.359375 9.433594 10.394531 9.703125 10.394531 C 11.078125 10.394531 12.289062 9.464844 12.648438 8.132812 L 12.960938 6.953125 C 12.996094 6.835938 13.050781 6.730469 13.113281 6.632812 C 13.125 6.617188 13.132812 6.601562 13.140625 6.589844 C 13.207031 6.496094 13.289062 6.417969 13.378906 6.347656 C 13.390625 6.339844 13.40625 6.332031 13.417969 6.320312 C 13.515625 6.253906 13.617188 6.199219 13.730469 6.164062 C 13.734375 6.164062 13.742188 6.160156 13.746094 6.160156 C 13.863281 6.125 13.988281 6.105469 14.113281 6.109375 C 14.199219 6.109375 14.28125 6.121094 14.363281 6.144531 C 14.507812 6.183594 14.636719 6.25 14.75 6.335938 C 14.835938 6.398438 14.90625 6.46875 14.96875 6.550781 C 14.976562 6.5625 14.984375 6.574219 14.992188 6.585938 C 15.050781 6.664062 15.097656 6.75 15.132812 6.84375 C 15.132812 6.84375 15.132812 6.84375 15.132812 6.847656 C 15.171875 6.945312 15.195312 7.050781 15.203125 7.15625 C 15.203125 7.164062 15.203125 7.167969 15.203125 7.171875 C 15.210938 7.277344 15.203125 7.386719 15.179688 7.496094 C 15.175781 7.511719 15.175781 7.53125 15.171875 7.546875 L 10.730469 24.125 C 10.296875 25.746094 11.261719 27.425781 12.886719 27.859375 C 13.144531 27.929688 13.414062 27.964844 13.679688 27.964844 C 15.058594 27.964844 16.269531 27.035156 16.625 25.703125 L 21.066406 9.125 C 21.570312 7.253906 21.3125 5.300781 20.34375 3.625 Z M 11.46875 7.816406 C 11.214844 8.769531 10.191406 9.367188 9.226562 9.109375 C 8.753906 8.984375 8.359375 8.679688 8.113281 8.257812 C 7.871094 7.832031 7.804688 7.339844 7.929688 6.867188 L 8.246094 5.6875 C 8.34375 5.332031 8.472656 4.988281 8.628906 4.664062 L 11.855469 6.4375 C 11.832031 6.503906 11.804688 6.566406 11.785156 6.636719 Z M 14.066406 4.882812 C 13.953125 4.882812 13.835938 4.894531 13.722656 4.914062 L 12.578125 1.40625 C 13.058594 1.285156 13.554688 1.222656 14.0625 1.222656 C 14.589844 1.222656 15.117188 1.289062 15.628906 1.425781 C 16.585938 1.683594 17.441406 2.160156 18.148438 2.8125 L 15.597656 5.457031 C 15.339844 5.234375 15.03125 5.058594 14.679688 4.964844 C 14.480469 4.910156 14.273438 4.882812 14.066406 4.882812 Z M 20.074219 7.726562 C 20.042969 8.089844 19.984375 8.449219 19.890625 8.808594 L 19.019531 12.054688 L 15.480469 11.109375 L 16.351562 7.859375 C 16.378906 7.757812 16.390625 7.65625 16.402344 7.554688 Z M 18.070312 15.59375 L 16.9375 19.820312 L 13.402344 18.871094 L 14.535156 14.644531 Z M 15.445312 25.386719 C 15.191406 26.339844 14.167969 26.941406 13.203125 26.679688 C 12.230469 26.417969 11.648438 25.414062 11.910156 24.4375 L 12.453125 22.410156 L 15.992188 23.355469 Z M 15.445312 25.386719 "/>
</g>
</svg>
