<?xml version="1.0" encoding="UTF-8"?>
<svg xmlns="http://www.w3.org/2000/svg" xmlns:xlink="http://www.w3.org/1999/xlink" width="28pt" height="28pt" viewBox="0 0 28 28" version="1.1">
<g id="surface1">
<path style=" stroke:none;fill-rule:nonzero;fill:rgb(0%,0%,0%);fill-opacity:1;" d="M 21.214844 0 L 6.457031 0 C 5.21875 0 4.214844 1.023438 4.214844 2.257812 L 4.214844 26.914062 C 4.214844 27.296875 4.519531 27.597656 4.902344 27.597656 L 6.089844 27.597656 C 6.472656 27.597656 6.789062 27.296875 6.789062 26.914062 L 6.789062 4.625 C 6.789062 4.417969 6.949219 4.257812 7.152344 4.257812 L 20.515625 4.257812 C 20.726562 4.257812 20.917969 4.417969 20.917969 4.625 L 20.917969 26.914062 C 20.917969 27.296875 21.199219 27.597656 21.582031 27.597656 L 22.769531 27.597656 C 23.152344 27.597656 23.445312 27.296875 23.445312 26.914062 L 23.445312 2.257812 C 23.445312 1.023438 22.453125 0 21.214844 0 Z M 11.417969 2.148438 C 11.417969 2.386719 11.230469 2.574219 11 2.574219 L 8.84375 2.574219 C 8.613281 2.574219 8.425781 2.386719 8.425781 2.148438 L 8.425781 1.777344 C 8.425781 1.546875 8.613281 1.359375 8.84375 1.359375 L 11 1.359375 C 11.230469 1.359375 11.417969 1.546875 11.417969 1.777344 Z M 13.667969 2.867188 C 13.164062 2.867188 12.757812 2.457031 12.757812 1.953125 C 12.757812 1.449219 13.164062 1.039062 13.667969 1.039062 C 14.171875 1.039062 14.582031 1.449219 14.582031 1.953125 C 14.582031 2.457031 14.171875 2.867188 13.667969 2.867188 Z M 19.230469 2.148438 C 19.230469 2.386719 19.042969 2.574219 18.8125 2.574219 L 16.660156 2.574219 C 16.425781 2.574219 16.238281 2.386719 16.238281 2.148438 L 16.238281 1.777344 C 16.238281 1.546875 16.425781 1.359375 16.660156 1.359375 L 18.8125 1.359375 C 19.042969 1.359375 19.230469 1.546875 19.230469 1.777344 Z M 19.230469 2.148438 "/>
<path style=" stroke:none;fill-rule:nonzero;fill:rgb(0%,0%,0%);fill-opacity:1;" d="M 17.664062 17.183594 L 17.066406 12.050781 C 16.976562 11.273438 16.316406 10.683594 15.53125 10.683594 L 12.097656 10.683594 C 11.308594 10.683594 10.644531 11.277344 10.558594 12.058594 L 9.996094 17.1875 C 9.980469 17.28125 10.007812 17.378906 10.066406 17.453125 C 10.125 17.527344 10.210938 17.574219 10.304688 17.585938 L 11.34375 17.589844 L 11.105469 19.773438 C 11.097656 19.871094 11.128906 19.960938 11.195312 20.035156 C 11.261719 20.113281 11.355469 20.144531 11.457031 20.144531 L 11.554688 20.144531 L 11.554688 27 C 11.554688 27.367188 11.867188 27.660156 12.234375 27.660156 L 12.902344 27.660156 C 13.269531 27.660156 13.558594 27.367188 13.558594 27 L 13.558594 20.144531 L 14.066406 20.144531 L 14.066406 26.996094 C 14.066406 27.367188 14.371094 27.660156 14.738281 27.660156 L 15.402344 27.660156 C 15.773438 27.660156 16.070312 27.367188 16.070312 26.996094 L 16.070312 20.144531 L 16.179688 20.144531 C 16.277344 20.144531 16.375 20.105469 16.445312 20.03125 C 16.511719 19.957031 16.542969 19.863281 16.527344 19.761719 L 16.308594 17.582031 L 17.355469 17.582031 C 17.550781 17.554688 17.6875 17.378906 17.664062 17.183594 Z M 17.664062 17.183594 "/>
<path style=" stroke:none;fill-rule:nonzero;fill:rgb(0%,0%,0%);fill-opacity:1;" d="M 15.660156 8.1875 C 15.660156 9.207031 14.835938 10.03125 13.816406 10.03125 C 12.804688 10.03125 11.980469 9.207031 11.980469 8.1875 C 11.980469 7.175781 12.804688 6.351562 13.816406 6.351562 C 14.835938 6.351562 15.660156 7.175781 15.660156 8.1875 Z M 15.660156 8.1875 "/>
</g>
</svg>
