<?xml version="1.0" encoding="UTF-8"?>
<svg xmlns="http://www.w3.org/2000/svg" xmlns:xlink="http://www.w3.org/1999/xlink" width="28pt" height="28pt" viewBox="0 0 28 28" version="1.1">
<g id="surface1">
<path style=" stroke:none;fill-rule:nonzero;fill:rgb(0%,0%,0%);fill-opacity:1;" d="M 19.707031 23.765625 C 19.453125 23.726562 19.265625 23.699219 19.109375 23.679688 C 18.632812 23.609375 18.503906 23.59375 17.945312 23.417969 C 17.726562 23.351562 16.867188 22.484375 16.867188 20.789062 C 16.867188 18.601562 17.386719 16.671875 17.609375 15.945312 C 17.617188 15.925781 17.628906 15.871094 17.648438 15.796875 C 17.6875 15.660156 17.957031 14.832031 17.957031 14.832031 C 18.105469 14.414062 18.257812 13.980469 18.355469 13.53125 L 18.359375 13.507812 C 18.507812 12.863281 18.996094 10.5 19.03125 7.234375 C 19.03125 6.902344 18.757812 6.617188 18.59375 6.445312 C 18.5625 6.414062 18.539062 6.386719 18.519531 6.363281 C 18.359375 6.179688 18.152344 5.953125 17.914062 5.691406 C 17.753906 5.519531 17.578125 5.328125 17.390625 5.121094 C 17.089844 4.789062 16.757812 4.484375 16.433594 4.191406 C 16.03125 3.828125 15.621094 3.457031 15.28125 3.035156 C 14.777344 2.40625 14.308594 1.304688 14.394531 0.414062 C 14.40625 0.28125 14.375 0.164062 14.304688 0.0898438 C 14.226562 0.00390625 14.105469 -0.0234375 14 0.0195312 C 13.894531 -0.0234375 13.773438 0.00390625 13.695312 0.0898438 C 13.625 0.164062 13.59375 0.28125 13.605469 0.414062 C 13.691406 1.304688 13.222656 2.40625 12.71875 3.035156 C 12.378906 3.457031 11.96875 3.828125 11.570312 4.191406 C 11.246094 4.484375 10.910156 4.789062 10.609375 5.121094 C 10.421875 5.328125 10.246094 5.519531 10.085938 5.691406 C 9.847656 5.953125 9.640625 6.179688 9.480469 6.363281 C 9.460938 6.386719 9.4375 6.414062 9.40625 6.445312 C 9.242188 6.617188 8.96875 6.902344 8.96875 7.234375 C 9.003906 10.5 9.492188 12.863281 9.640625 13.507812 L 9.644531 13.53125 C 9.746094 13.980469 9.894531 14.414062 10.042969 14.832031 C 10.042969 14.832031 10.3125 15.660156 10.351562 15.796875 C 10.371094 15.871094 10.386719 15.925781 10.390625 15.945312 C 10.613281 16.671875 11.132812 18.601562 11.132812 20.789062 C 11.132812 22.484375 10.273438 23.351562 10.054688 23.417969 C 9.496094 23.59375 9.367188 23.609375 8.890625 23.679688 C 8.734375 23.699219 8.546875 23.726562 8.292969 23.765625 C 5.554688 24.058594 5.257812 25.417969 5.257812 25.988281 C 5.257812 26.140625 5.339844 26.636719 5.699219 27.097656 C 6.023438 27.507812 6.671875 28 7.910156 28 C 8.09375 28 8.292969 27.988281 8.492188 27.96875 C 9.316406 27.878906 10.148438 27.746094 10.949219 27.617188 C 11.242188 27.570312 11.53125 27.523438 11.824219 27.480469 C 12.214844 27.417969 12.914062 27.378906 13.90625 27.363281 C 13.953125 27.359375 13.984375 27.359375 14 27.359375 C 14.015625 27.359375 14.046875 27.359375 14.09375 27.363281 C 15.085938 27.378906 15.785156 27.417969 16.175781 27.480469 C 16.46875 27.523438 16.757812 27.570312 17.050781 27.617188 C 17.851562 27.746094 18.683594 27.878906 19.507812 27.96875 C 19.707031 27.988281 19.90625 28 20.089844 28 C 21.328125 28 21.976562 27.507812 22.300781 27.097656 C 22.660156 26.636719 22.742188 26.140625 22.742188 25.988281 C 22.742188 25.417969 22.445312 24.058594 19.707031 23.765625 Z M 15.449219 12.640625 C 15.40625 12.640625 15.367188 12.632812 15.328125 12.613281 C 15.203125 12.5625 15.039062 12.320312 15.023438 12.226562 C 15.65625 11.785156 16.085938 10.945312 16.085938 9.984375 C 16.085938 8.5625 15.9375 7.410156 14 7.410156 C 12.0625 7.410156 11.914062 8.5625 11.914062 9.984375 C 11.914062 10.945312 12.34375 11.785156 12.976562 12.226562 C 12.960938 12.320312 12.792969 12.550781 12.671875 12.613281 C 12.632812 12.632812 12.59375 12.640625 12.550781 12.640625 C 12.144531 12.640625 11.632812 11.746094 11.5 11.390625 C 11.269531 10.789062 10.984375 9.75 10.925781 8.238281 L 10.921875 8.179688 C 10.90625 7.859375 11.386719 7.042969 11.449219 6.90625 C 11.539062 6.710938 12.671875 4.980469 13.007812 4.574219 C 13.128906 4.425781 13.734375 3.625 14 3.269531 C 14.265625 3.625 14.871094 4.425781 14.992188 4.574219 C 15.328125 4.980469 16.460938 6.710938 16.550781 6.90625 C 16.613281 7.042969 17.09375 7.859375 17.078125 8.179688 L 17.074219 8.238281 C 17.015625 9.75 16.730469 10.789062 16.5 11.390625 C 16.367188 11.746094 15.855469 12.640625 15.449219 12.640625 Z M 15.449219 12.640625 "/>
</g>
</svg>
