<?xml version="1.0" encoding="UTF-8"?>
<svg xmlns="http://www.w3.org/2000/svg" xmlns:xlink="http://www.w3.org/1999/xlink" width="28pt" height="28pt" viewBox="0 0 28 28" version="1.1">
<g id="surface1">
<path style=" stroke:none;fill-rule:nonzero;fill:rgb(0%,0%,0%);fill-opacity:1;" d="M 22.539062 7.21875 C 22.304688 6.757812 21.945312 6.398438 21.511719 6.167969 C 21.34375 4.496094 20.449219 2.953125 18.941406 1.78125 C 17.511719 0.667969 15.664062 0 14 0 C 12.335938 0 10.488281 0.667969 9.058594 1.78125 C 7.550781 2.953125 6.65625 4.496094 6.488281 6.167969 C 6.054688 6.398438 5.695312 6.757812 5.460938 7.21875 C 4.738281 8.644531 4.738281 10.34375 5.460938 11.769531 C 5.878906 12.59375 6.714844 13.109375 7.644531 13.109375 L 8.488281 13.109375 C 9.1875 14.382812 10.316406 15.390625 11.679688 15.933594 L 11.679688 17.179688 L 9.714844 17.179688 L 9.960938 17.777344 C 10.632812 19.429688 12.21875 20.496094 14 20.496094 C 15.78125 20.496094 17.367188 19.429688 18.039062 17.777344 L 18.285156 17.179688 L 16.320312 17.179688 L 16.320312 15.933594 C 17.683594 15.390625 18.8125 14.382812 19.511719 13.109375 L 20.355469 13.109375 C 21.285156 13.109375 22.121094 12.59375 22.539062 11.769531 C 23.261719 10.34375 23.261719 8.644531 22.539062 7.21875 Z M 7.644531 11.46875 C 7.339844 11.46875 7.0625 11.300781 6.925781 11.027344 C 6.4375 10.066406 6.4375 8.921875 6.925781 7.960938 C 7.0625 7.6875 7.339844 7.519531 7.644531 7.519531 L 7.777344 7.519531 C 7.734375 7.8125 7.714844 8.117188 7.714844 8.425781 L 7.714844 10.089844 C 7.714844 10.5625 7.765625 11.023438 7.867188 11.46875 Z M 12.332031 10.257812 C 11.878906 10.257812 11.511719 9.886719 11.511719 9.4375 C 11.511719 8.984375 11.878906 8.617188 12.332031 8.617188 C 12.785156 8.617188 13.152344 8.984375 13.152344 9.4375 C 13.152344 9.886719 12.785156 10.257812 12.332031 10.257812 Z M 15.667969 10.257812 C 15.214844 10.257812 14.847656 9.886719 14.847656 9.4375 C 14.847656 8.984375 15.214844 8.617188 15.667969 8.617188 C 16.121094 8.617188 16.488281 8.984375 16.488281 9.4375 C 16.488281 9.886719 16.121094 10.257812 15.667969 10.257812 Z M 19.746094 5.878906 C 18.769531 3.675781 16.558594 2.136719 14 2.136719 C 11.441406 2.136719 9.230469 3.675781 8.253906 5.878906 L 8.191406 5.878906 C 8.421875 4.828125 9.066406 3.855469 10.066406 3.074219 C 11.203125 2.191406 12.710938 1.640625 14 1.640625 C 15.289062 1.640625 16.796875 2.191406 17.933594 3.074219 C 18.933594 3.855469 19.578125 4.828125 19.808594 5.878906 Z M 21.074219 11.027344 C 20.9375 11.300781 20.660156 11.46875 20.355469 11.46875 L 20.132812 11.46875 C 20.234375 11.023438 20.285156 10.5625 20.285156 10.089844 L 20.285156 8.425781 C 20.285156 8.117188 20.265625 7.8125 20.222656 7.519531 L 20.355469 7.519531 C 20.660156 7.519531 20.9375 7.6875 21.074219 7.960938 C 21.5625 8.921875 21.5625 10.066406 21.074219 11.027344 Z M 21.074219 11.027344 "/>
<path style=" stroke:none;fill-rule:nonzero;fill:rgb(0%,0%,0%);fill-opacity:1;" d="M 14 22.136719 C 12.257812 22.136719 10.652344 21.394531 9.535156 20.152344 L 9.535156 22.789062 L 18.464844 22.789062 L 18.464844 20.152344 C 17.347656 21.394531 15.742188 22.136719 14 22.136719 Z M 14 22.136719 "/>
<path style=" stroke:none;fill-rule:nonzero;fill:rgb(0%,0%,0%);fill-opacity:1;" d="M 20.105469 17.378906 L 20.105469 22.789062 L 23.308594 22.789062 L 23.308594 21.714844 C 23.308594 19.671875 21.957031 17.949219 20.105469 17.378906 Z M 20.105469 17.378906 "/>
<path style=" stroke:none;fill-rule:nonzero;fill:rgb(0%,0%,0%);fill-opacity:1;" d="M 4.691406 21.714844 L 4.691406 22.789062 L 7.894531 22.789062 L 7.894531 17.378906 C 6.042969 17.949219 4.691406 19.671875 4.691406 21.714844 Z M 4.691406 21.714844 "/>
<path style=" stroke:none;fill-rule:nonzero;fill:rgb(0%,0%,0%);fill-opacity:1;" d="M 0 24.429688 L 28 24.429688 L 28 28 L 0 28 Z M 0 24.429688 "/>
</g>
</svg>
