<?xml version="1.0" encoding="UTF-8"?>
<svg xmlns="http://www.w3.org/2000/svg" xmlns:xlink="http://www.w3.org/1999/xlink" width="14pt" height="14pt" viewBox="0 0 14 14" version="1.1">
<g id="surface1">
<path style=" stroke:none;fill-rule:nonzero;fill:rgb(0%,0%,0%);fill-opacity:1;" d="M 5.96875 5.234375 C 5.96875 6.101562 5.265625 6.804688 4.390625 6.804688 C 3.523438 6.804688 2.820312 6.101562 2.820312 5.234375 C 2.820312 4.359375 3.523438 3.65625 4.390625 3.65625 C 5.265625 3.65625 5.96875 4.359375 5.96875 5.234375 Z M 5.96875 5.234375 "/>
<path style=" stroke:none;fill-rule:nonzero;fill:rgb(0%,0%,0%);fill-opacity:1;" d="M 13.570312 8.496094 C 13.507812 8.449219 12.058594 7.339844 10.992188 6.84375 L 7.488281 5.234375 L 7.488281 3.257812 C 8.109375 3.007812 8.554688 2.398438 8.554688 1.6875 C 8.554688 0.757812 7.796875 0 6.867188 0 C 5.929688 0 5.175781 0.757812 5.175781 1.6875 C 5.175781 2.425781 5.648438 3.050781 6.304688 3.28125 L 6.304688 5.585938 C 6.210938 5.769531 5.9375 6.328125 5.945312 6.796875 C 5.945312 7.117188 6.132812 7.421875 6.449219 7.539062 L 9.726562 8.8125 C 9.933594 8.890625 10.167969 8.878906 10.367188 8.777344 C 10.410156 8.757812 10.449219 8.730469 10.484375 8.703125 L 12.300781 9.5625 L 12.300781 13.222656 C 12.300781 13.65625 12.65625 14.007812 13.085938 14.007812 C 13.523438 14.007812 13.875 13.65625 13.875 13.222656 L 13.875 9.121094 C 13.875 8.875 13.761719 8.644531 13.570312 8.496094 Z M 6.867188 2.304688 C 6.523438 2.304688 6.25 2.03125 6.25 1.6875 C 6.25 1.347656 6.523438 1.070312 6.867188 1.070312 C 7.203125 1.070312 7.484375 1.347656 7.484375 1.6875 C 7.484375 2.03125 7.203125 2.304688 6.867188 2.304688 Z M 6.867188 2.304688 "/>
<path style=" stroke:none;fill-rule:nonzero;fill:rgb(0%,0%,0%);fill-opacity:1;" d="M 11.550781 9.757812 L 1.75 7.183594 L 1.75 0.953125 C 1.75 0.507812 1.390625 0.148438 0.945312 0.148438 C 0.496094 0.148438 0.132812 0.507812 0.132812 0.953125 L 0.132812 13.140625 C 0.132812 13.585938 0.496094 13.949219 0.945312 13.949219 C 1.390625 13.949219 1.75 13.585938 1.75 13.140625 L 1.75 8.859375 L 8.859375 10.722656 L 8.859375 13.140625 C 8.859375 13.585938 9.222656 13.949219 9.671875 13.949219 C 10.117188 13.949219 10.480469 13.585938 10.480469 13.140625 L 10.480469 11.148438 L 11.140625 11.320312 C 11.570312 11.4375 12.015625 11.175781 12.125 10.742188 C 12.242188 10.3125 11.984375 9.867188 11.550781 9.757812 Z M 11.550781 9.757812 "/>
</g>
</svg>
