<?xml version="1.0" encoding="UTF-8"?>
<svg xmlns="http://www.w3.org/2000/svg" xmlns:xlink="http://www.w3.org/1999/xlink" width="28pt" height="28pt" viewBox="0 0 28 28" version="1.1">
<g id="surface1">
<path style=" stroke:none;fill-rule:nonzero;fill:rgb(0%,0%,0%);fill-opacity:1;" d="M 20.050781 12.472656 C 19.902344 12.210938 19.570312 12.117188 19.304688 12.265625 L 19.277344 12.28125 C 19.015625 12.429688 18.921875 12.761719 19.070312 13.027344 C 19.171875 13.203125 19.359375 13.300781 19.546875 13.300781 C 19.640625 13.300781 19.734375 13.277344 19.816406 13.230469 L 19.839844 13.21875 C 20.101562 13.070312 20.199219 12.738281 20.050781 12.472656 Z M 20.050781 12.472656 "/>
<path style=" stroke:none;fill-rule:nonzero;fill:rgb(0%,0%,0%);fill-opacity:1;" d="M 11.105469 16.402344 C 11.003906 16.300781 10.863281 16.242188 10.71875 16.242188 C 10.574219 16.242188 10.433594 16.300781 10.332031 16.402344 C 10.230469 16.503906 10.171875 16.644531 10.171875 16.789062 C 10.171875 16.933594 10.230469 17.074219 10.332031 17.175781 C 10.433594 17.277344 10.574219 17.335938 10.71875 17.335938 C 10.863281 17.335938 11.003906 17.277344 11.105469 17.175781 C 11.207031 17.074219 11.265625 16.933594 11.265625 16.789062 C 11.265625 16.644531 11.207031 16.503906 11.105469 16.402344 Z M 11.105469 16.402344 "/>
<path style=" stroke:none;fill-rule:nonzero;fill:rgb(0%,0%,0%);fill-opacity:1;" d="M 14.109375 13.78125 L 12.769531 13.78125 C 13.554688 12.035156 14.074219 10.191406 14.316406 8.285156 L 14.542969 6.5 C 14.570312 6.269531 14.453125 6.046875 14.25 5.941406 C 14.046875 5.835938 13.796875 5.871094 13.628906 6.027344 L 13.445312 6.199219 C 12.683594 6.90625 12.003906 7.679688 11.410156 8.511719 C 11.890625 6.207031 12.507812 3.875 13.179688 2.414062 L 13.183594 2.40625 C 13.285156 2.179688 13.226562 1.914062 13.03125 1.753906 C 12.839844 1.597656 12.566406 1.589844 12.363281 1.738281 C 11.277344 2.527344 10.300781 3.46875 9.460938 4.519531 C 9.613281 3.226562 9.96875 1.953125 10.511719 0.777344 C 10.609375 0.566406 10.5625 0.316406 10.394531 0.152344 C 10.226562 -0.0078125 9.976562 -0.046875 9.769531 0.0585938 L 8.757812 0.566406 C 7.183594 1.351562 6.097656 2.789062 5.746094 4.460938 C 4.992188 3.597656 4.066406 2.890625 3.023438 2.390625 L 1.550781 1.6875 C 1.335938 1.582031 1.078125 1.628906 0.917969 1.804688 C 0.753906 1.976562 0.71875 2.234375 0.835938 2.441406 L 0.933594 2.621094 C 1.941406 4.453125 2.703125 6.398438 3.210938 8.417969 C 2.839844 8.140625 2.441406 7.898438 2.015625 7.699219 L 0.78125 7.105469 C 0.570312 7.003906 0.3125 7.050781 0.148438 7.226562 C -0.015625 7.398438 -0.046875 7.65625 0.0664062 7.863281 L 0.148438 8.015625 C 1.144531 9.824219 1.855469 11.761719 2.261719 13.78125 L 0.546875 13.78125 C 0.246094 13.78125 0 14.027344 0 14.328125 L 0 23.378906 C 0 25.925781 2.074219 28 4.621094 28 L 10.035156 28 C 12.582031 28 14.65625 25.925781 14.65625 23.378906 L 14.65625 14.328125 C 14.65625 14.027344 14.410156 13.78125 14.109375 13.78125 Z M 13.253906 7.953125 L 13.230469 8.148438 C 12.980469 10.109375 12.421875 12.003906 11.566406 13.78125 L 10.148438 13.78125 C 10.707031 11.605469 11.765625 9.621094 13.253906 7.953125 Z M 11.4375 3.957031 C 10.542969 6.78125 9.941406 10.308594 9.746094 11.519531 C 9.746094 11.519531 9.746094 11.523438 9.746094 11.527344 C 9.449219 12.253906 9.207031 13.007812 9.023438 13.78125 L 7.28125 13.78125 C 7.308594 10.070312 8.828125 6.53125 11.4375 3.957031 Z M 6.71875 5.640625 C 6.71875 4 7.574219 2.511719 8.976562 1.691406 C 8.519531 3.0625 8.28125 4.515625 8.28125 5.957031 L 8.28125 6.109375 C 8.28125 6.144531 8.285156 6.179688 8.292969 6.210938 C 8.125 6.492188 7.96875 6.773438 7.820312 7.0625 C 7.710938 7.28125 7.605469 7.503906 7.503906 7.730469 C 7.316406 7.054688 7.046875 6.40625 6.695312 5.796875 C 6.710938 5.746094 6.71875 5.695312 6.71875 5.640625 Z M 2.550781 3.375 C 5.0625 4.578125 6.695312 7.144531 6.71875 9.925781 C 6.375 11.179688 6.195312 12.480469 6.1875 13.78125 L 6.074219 13.78125 C 6.011719 12.558594 5.636719 11.375 4.984375 10.335938 C 4.875 10.160156 4.753906 9.992188 4.632812 9.832031 C 4.230469 7.589844 3.53125 5.421875 2.550781 3.375 Z M 1.773438 8.796875 C 3.628906 9.785156 4.851562 11.6875 4.980469 13.78125 L 3.375 13.78125 C 3.046875 12.054688 2.507812 10.386719 1.773438 8.796875 Z M 13.5625 23.378906 C 13.5625 25.324219 11.980469 26.90625 10.035156 26.90625 L 4.621094 26.90625 C 2.675781 26.90625 1.09375 25.324219 1.09375 23.378906 L 1.09375 17.335938 L 8.613281 17.335938 C 8.914062 17.335938 9.160156 17.089844 9.160156 16.789062 C 9.160156 16.488281 8.914062 16.242188 8.613281 16.242188 L 1.09375 16.242188 L 1.09375 14.875 L 9.457031 14.875 C 9.460938 14.875 9.460938 14.875 9.464844 14.875 L 11.902344 14.875 C 11.902344 14.875 11.90625 14.875 11.90625 14.875 L 13.5625 14.875 Z M 13.5625 23.378906 "/>
<path style=" stroke:none;fill-rule:nonzero;fill:rgb(0%,0%,0%);fill-opacity:1;" d="M 27.882812 19.679688 C 27.78125 19.546875 27.621094 19.46875 27.453125 19.46875 L 24.492188 19.46875 L 24.492188 15.429688 C 24.492188 15.207031 24.46875 14.980469 24.425781 14.761719 L 26.429688 13.414062 C 26.910156 13.089844 27.273438 12.609375 27.453125 12.058594 C 27.839844 10.878906 27.332031 9.582031 26.25 8.976562 C 26.242188 8.972656 26.234375 8.96875 26.226562 8.964844 C 25.347656 8.519531 24.3125 8.621094 23.539062 9.171875 L 23.539062 7.667969 C 23.539062 7.207031 23.382812 6.75 23.097656 6.386719 C 22.488281 5.605469 21.402344 5.363281 20.519531 5.808594 C 20.511719 5.8125 20.503906 5.816406 20.496094 5.820312 C 19.632812 6.304688 19.226562 7.34375 19.535156 8.285156 C 19.679688 8.722656 19.96875 9.109375 20.351562 9.367188 L 22.492188 10.808594 C 22.460938 10.964844 22.445312 11.128906 22.445312 11.292969 L 22.445312 12.207031 C 22.097656 12.042969 21.722656 11.9375 21.328125 11.890625 C 21.027344 11.859375 20.753906 12.074219 20.722656 12.375 C 20.6875 12.675781 20.90625 12.945312 21.203125 12.980469 C 21.734375 13.039062 22.222656 13.261719 22.605469 13.617188 C 22.613281 13.625 22.621094 13.632812 22.628906 13.640625 C 22.71875 13.726562 22.800781 13.816406 22.875 13.910156 C 23.210938 14.34375 23.398438 14.882812 23.398438 15.429688 L 23.398438 19.46875 L 22.71875 19.46875 L 19.667969 17.414062 C 19.214844 17.109375 18.871094 16.65625 18.699219 16.132812 C 18.507812 15.546875 18.542969 14.914062 18.796875 14.351562 C 18.921875 14.078125 18.800781 13.753906 18.523438 13.628906 C 18.25 13.503906 17.925781 13.628906 17.800781 13.902344 C 17.433594 14.714844 17.382812 15.628906 17.660156 16.472656 C 17.90625 17.226562 18.402344 17.882812 19.058594 18.324219 L 20.761719 19.46875 L 17.0625 19.46875 C 16.894531 19.46875 16.734375 19.546875 16.632812 19.679688 C 16.527344 19.808594 16.492188 19.984375 16.53125 20.144531 L 18.355469 27.582031 C 18.414062 27.828125 18.632812 28 18.886719 28 L 25.628906 28 C 25.882812 28 26.101562 27.828125 26.160156 27.582031 L 27.984375 20.144531 C 28.023438 19.984375 27.988281 19.808594 27.882812 19.679688 Z M 20.960938 8.460938 C 20.78125 8.335938 20.644531 8.152344 20.574219 7.945312 C 20.429688 7.5 20.617188 7.015625 21.019531 6.78125 C 21.441406 6.578125 21.949219 6.691406 22.238281 7.0625 C 22.371094 7.234375 22.445312 7.449219 22.445312 7.667969 L 22.445312 9.457031 Z M 23.859375 10.359375 C 24.300781 9.796875 25.082031 9.617188 25.726562 9.9375 C 26.347656 10.289062 26.636719 11.039062 26.414062 11.71875 C 26.308594 12.039062 26.097656 12.320312 25.820312 12.507812 L 24.042969 13.703125 C 23.953125 13.539062 23.851562 13.386719 23.738281 13.238281 C 23.675781 13.160156 23.609375 13.082031 23.539062 13.007812 L 23.539062 11.292969 C 23.539062 10.957031 23.652344 10.625 23.859375 10.359375 Z M 26.300781 22.421875 L 20.253906 22.421875 C 19.949219 22.421875 19.707031 22.667969 19.707031 22.96875 C 19.707031 23.269531 19.949219 23.515625 20.253906 23.515625 L 26.03125 23.515625 L 25.199219 26.90625 L 19.316406 26.90625 L 17.757812 20.5625 L 26.757812 20.5625 Z M 26.300781 22.421875 "/>
</g>
</svg>
