<?xml version="1.0" encoding="UTF-8"?>
<svg xmlns="http://www.w3.org/2000/svg" xmlns:xlink="http://www.w3.org/1999/xlink" width="28pt" height="27pt" viewBox="0 0 28 27" version="1.1">
<g id="surface1">
<path style=" stroke:none;fill-rule:nonzero;fill:rgb(0%,0%,0%);fill-opacity:1;" d="M 15.453125 5.085938 C 15.40625 4.648438 15.351562 4.226562 15.292969 3.835938 L 16.105469 3.71875 C 16.167969 4.121094 16.222656 4.554688 16.269531 5.007812 Z M 24.472656 6.578125 C 24.253906 7.210938 23.828125 7.875 23.265625 8.484375 L 23.792969 8.992188 L 23.210938 9.554688 L 22.683594 9.046875 C 22.070312 9.578125 21.40625 9.972656 20.769531 10.1875 C 20.675781 10.988281 20.507812 11.761719 20.265625 12.492188 L 21.085938 12.976562 L 20.65625 13.652344 L 19.976562 13.253906 C 19.746094 13.804688 19.46875 14.320312 19.152344 14.792969 L 21.28125 14.792969 L 21.28125 18.125 L 20.367188 18.125 L 19.492188 27 L 9.101562 27 L 8.222656 18.125 L 7.308594 18.125 L 7.308594 14.792969 L 9.4375 14.792969 C 9.121094 14.320312 8.84375 13.804688 8.613281 13.253906 L 7.933594 13.652344 L 7.507812 12.976562 L 8.328125 12.492188 C 7.988281 11.480469 7.792969 10.378906 7.753906 9.246094 L 6.84375 9.246094 L 6.84375 8.453125 L 7.753906 8.453125 C 7.769531 8 7.808594 7.550781 7.875 7.109375 C 7.007812 6.988281 5.972656 6.433594 5.089844 5.605469 L 4.558594 6.117188 L 3.976562 5.558594 L 4.53125 5.023438 C 4.070312 4.480469 3.71875 3.898438 3.527344 3.34375 C 3.242188 2.515625 3.332031 1.824219 3.777344 1.390625 C 4.226562 0.960938 4.941406 0.875 5.800781 1.152344 C 6.375 1.335938 6.980469 1.671875 7.542969 2.121094 L 8.195312 1.488281 L 8.777344 2.050781 L 8.148438 2.65625 C 8.46875 2.976562 8.753906 3.3125 8.988281 3.65625 C 9.175781 3.300781 9.386719 2.964844 9.621094 2.644531 C 9.964844 2.171875 10.339844 1.753906 10.742188 1.402344 L 10.046875 0.664062 L 10.65625 0.128906 L 11.390625 0.910156 C 12.28125 0.316406 13.269531 0 14.296875 0 C 15.324219 0 16.3125 0.316406 17.203125 0.910156 L 17.9375 0.128906 L 18.542969 0.664062 L 17.847656 1.402344 C 18.25 1.753906 18.628906 2.171875 18.972656 2.644531 C 19.300781 3.097656 19.585938 3.585938 19.832031 4.109375 L 20.65625 3.625 L 21.085938 4.300781 L 20.144531 4.855469 C 20.214844 5.046875 20.285156 5.246094 20.34375 5.445312 C 20.941406 4.953125 21.585938 4.582031 22.199219 4.386719 C 23.058594 4.109375 23.777344 4.195312 24.222656 4.625 C 24.667969 5.058594 24.757812 5.75 24.472656 6.578125 Z M 10.324219 8.851562 C 10.324219 11.109375 10.800781 13.257812 11.640625 14.792969 L 12.628906 14.792969 C 12.394531 13.617188 12.234375 12.164062 12.167969 10.558594 L 12.988281 10.523438 C 13.054688 12.140625 13.226562 13.640625 13.46875 14.792969 L 15.125 14.792969 C 15.453125 13.234375 15.636719 11.09375 15.636719 8.851562 C 15.636719 7.992188 15.609375 7.148438 15.558594 6.339844 L 16.378906 6.289062 C 16.433594 7.113281 16.460938 7.976562 16.460938 8.851562 C 16.460938 11.070312 16.28125 13.199219 15.960938 14.792969 L 16.949219 14.792969 C 17.789062 13.257812 18.269531 11.109375 18.269531 8.851562 C 18.269531 6.652344 17.828125 4.59375 17.027344 3.050781 C 16.574219 2.175781 16.042969 1.539062 15.472656 1.167969 C 15.613281 1.507812 15.738281 1.925781 15.855469 2.425781 L 15.054688 2.597656 C 14.707031 1.117188 14.363281 0.839844 14.296875 0.796875 C 14.222656 0.84375 13.800781 1.183594 13.421875 3.136719 C 13.121094 4.683594 12.953125 6.714844 12.953125 8.851562 C 12.953125 8.992188 12.953125 9.128906 12.957031 9.269531 L 12.132812 9.277344 C 12.132812 9.136719 12.132812 8.992188 12.132812 8.851562 C 12.132812 6.566406 12.316406 4.417969 12.652344 2.792969 C 12.789062 2.132812 12.941406 1.589844 13.113281 1.167969 C 12.546875 1.539062 12.015625 2.175781 11.5625 3.050781 C 10.761719 4.59375 10.324219 6.652344 10.324219 8.851562 Z M 8.070312 6.089844 L 4.191406 2.351562 C 4.171875 2.554688 4.210938 2.808594 4.308594 3.09375 C 4.523438 3.710938 4.980469 4.382812 5.597656 4.976562 C 6.375 5.726562 7.304688 6.242188 8.015625 6.328125 C 8.03125 6.25 8.050781 6.167969 8.070312 6.089844 Z M 8.570312 4.539062 C 8.320312 4.0625 7.953125 3.585938 7.496094 3.148438 C 6.878906 2.550781 6.183594 2.109375 5.542969 1.902344 C 5.246094 1.808594 4.984375 1.769531 4.773438 1.789062 L 8.320312 5.210938 C 8.398438 4.984375 8.480469 4.757812 8.570312 4.539062 Z M 10.4375 14.792969 L 10.722656 14.792969 C 9.941406 13.183594 9.5 11.058594 9.5 8.851562 C 9.5 6.53125 9.972656 4.347656 10.828125 2.695312 C 10.9375 2.488281 11.046875 2.292969 11.164062 2.105469 C 9.601562 3.546875 8.570312 6.03125 8.570312 8.851562 C 8.570312 11.113281 9.25 13.265625 10.4375 14.792969 Z M 19.542969 18.125 L 9.050781 18.125 L 9.847656 26.207031 L 18.742188 26.207031 Z M 8.132812 15.585938 L 8.132812 17.332031 L 20.460938 17.332031 L 20.460938 15.585938 Z M 20.023438 8.851562 C 20.023438 6.03125 18.988281 3.546875 17.425781 2.105469 C 17.542969 2.292969 17.65625 2.488281 17.761719 2.695312 C 18.617188 4.347656 19.089844 6.53125 19.089844 8.851562 C 19.089844 11.058594 18.648438 13.183594 17.867188 14.792969 L 18.152344 14.792969 C 19.34375 13.265625 20.023438 11.113281 20.023438 8.851562 Z M 23.226562 5.023438 C 23.015625 5.003906 22.753906 5.042969 22.457031 5.136719 C 21.839844 5.335938 21.171875 5.753906 20.574219 6.316406 C 20.652344 6.671875 20.710938 7.035156 20.757812 7.40625 Z M 23.808594 5.585938 L 20.835938 8.449219 C 20.839844 8.582031 20.84375 8.714844 20.84375 8.851562 C 20.84375 9.003906 20.839844 9.15625 20.835938 9.304688 C 21.359375 9.066406 21.910156 8.6875 22.402344 8.210938 C 23.019531 7.617188 23.476562 6.945312 23.691406 6.328125 C 23.789062 6.042969 23.828125 5.789062 23.808594 5.585938 Z M 18.476562 19.457031 L 17.65625 19.378906 L 17.53125 20.648438 L 18.347656 20.722656 Z M 18.265625 21.570312 L 17.449219 21.492188 L 17.15625 24.453125 L 17.972656 24.527344 Z M 18.265625 21.570312 "/>
</g>
</svg>
