<?xml version="1.0" encoding="UTF-8"?>
<svg xmlns="http://www.w3.org/2000/svg" xmlns:xlink="http://www.w3.org/1999/xlink" width="28pt" height="28pt" viewBox="0 0 28 28" version="1.1">
<g id="surface1">
<path style=" stroke:none;fill-rule:nonzero;fill:rgb(0%,0%,0%);fill-opacity:1;" d="M 26.5625 13.734375 C 25.71875 12.40625 24.554688 11.3125 23.183594 10.554688 C 23.230469 10.195312 23.257812 9.828125 23.265625 9.460938 C 23.355469 4.332031 19.257812 0.0898438 14.128906 0 C 9 -0.0898438 4.753906 4.007812 4.664062 9.136719 C 4.664062 9.191406 4.664062 9.246094 4.664062 9.300781 C 4.664062 9.730469 4.695312 10.15625 4.75 10.578125 C 1.867188 12.195312 0.0585938 15.207031 0 18.527344 C -0.0429688 21.011719 0.882812 23.363281 2.609375 25.148438 C 4.335938 26.933594 6.65625 27.941406 9.140625 27.984375 C 9.195312 27.984375 9.25 27.984375 9.304688 27.984375 C 10.960938 27.984375 12.566406 27.550781 13.988281 26.722656 C 15.410156 27.558594 17.035156 28 18.699219 28 C 21.183594 28 23.519531 27.03125 25.277344 25.277344 C 27.03125 23.523438 28 21.1875 28 18.703125 C 28 16.9375 27.503906 15.21875 26.5625 13.734375 Z M 14.011719 11.96875 C 15.65625 13.125 16.828125 14.851562 17.289062 16.800781 C 16.207031 17.277344 15.015625 17.519531 13.824219 17.5 C 12.734375 17.480469 11.6875 17.253906 10.707031 16.828125 C 11.167969 14.867188 12.347656 13.128906 14.011719 11.96875 Z M 9.707031 16.3125 C 7.835938 15.171875 6.480469 13.316406 5.976562 11.1875 C 7.019531 10.726562 8.15625 10.484375 9.300781 10.484375 C 9.351562 10.484375 9.398438 10.488281 9.445312 10.488281 C 10.683594 10.507812 11.894531 10.808594 12.992188 11.359375 C 11.386719 12.609375 10.230469 14.355469 9.707031 16.3125 Z M 15.027344 11.363281 C 16.164062 10.796875 17.417969 10.5 18.699219 10.5 C 19.835938 10.5 20.929688 10.726562 21.957031 11.171875 C 21.460938 13.28125 20.128906 15.128906 18.285156 16.273438 C 17.761719 14.335938 16.613281 12.605469 15.027344 11.363281 Z M 5.757812 9.152344 C 5.835938 4.679688 9.503906 1.09375 13.964844 1.09375 C 14.011719 1.09375 14.0625 1.09375 14.109375 1.09375 C 18.632812 1.175781 22.25 4.917969 22.171875 9.441406 C 22.167969 9.648438 22.15625 9.855469 22.136719 10.0625 C 21.046875 9.625 19.894531 9.40625 18.699219 9.40625 C 17.042969 9.40625 15.429688 9.84375 14.011719 10.671875 C 12.636719 9.863281 11.070312 9.421875 9.464844 9.394531 C 8.207031 9.371094 6.953125 9.605469 5.796875 10.078125 C 5.765625 9.769531 5.753906 9.460938 5.757812 9.152344 Z M 9.15625 26.890625 C 6.964844 26.851562 4.921875 25.964844 3.398438 24.386719 C 1.875 22.8125 1.054688 20.738281 1.09375 18.546875 C 1.144531 15.734375 2.617188 13.175781 4.980469 11.710938 C 5.636719 14.136719 7.269531 16.222656 9.480469 17.445312 C 9.425781 17.859375 9.398438 18.28125 9.398438 18.703125 C 9.398438 21.59375 10.71875 24.273438 12.96875 26.027344 C 11.792969 26.617188 10.492188 26.914062 9.15625 26.890625 Z M 10.492188 18.703125 C 10.492188 18.449219 10.503906 18.191406 10.527344 17.9375 C 11.566406 18.351562 12.664062 18.574219 13.804688 18.59375 C 13.855469 18.59375 13.910156 18.59375 13.964844 18.59375 C 15.167969 18.59375 16.363281 18.359375 17.472656 17.910156 C 17.5 18.214844 17.511719 18.523438 17.507812 18.832031 C 17.484375 20.214844 17.117188 21.539062 16.460938 22.707031 C 15.863281 23.773438 15.023438 24.703125 13.992188 25.421875 C 11.792969 23.886719 10.492188 21.398438 10.492188 18.703125 Z M 24.503906 24.503906 C 22.953125 26.054688 20.890625 26.90625 18.699219 26.90625 C 17.40625 26.90625 16.144531 26.605469 15.007812 26.03125 C 17.222656 24.3125 18.550781 21.6875 18.601562 18.851562 C 18.609375 18.367188 18.582031 17.882812 18.515625 17.410156 C 20.703125 16.179688 22.3125 14.097656 22.957031 11.6875 C 24.039062 12.34375 24.957031 13.242188 25.636719 14.320312 C 26.46875 15.628906 26.90625 17.144531 26.90625 18.703125 C 26.90625 20.894531 26.054688 22.953125 24.503906 24.503906 Z M 24.503906 24.503906 "/>
<path style=" stroke:none;fill-rule:nonzero;fill:rgb(0%,0%,0%);fill-opacity:1;" d="M 19.09375 24.992188 C 19.046875 24.992188 19.003906 24.992188 18.960938 24.992188 C 18.660156 24.984375 18.417969 24.734375 18.425781 24.433594 C 18.433594 24.132812 18.683594 23.890625 18.984375 23.898438 C 20.324219 23.925781 21.566406 23.441406 22.3125 22.601562 C 22.511719 22.375 22.855469 22.355469 23.082031 22.554688 C 23.308594 22.753906 23.328125 23.101562 23.128906 23.328125 C 22.199219 24.375 20.699219 24.992188 19.09375 24.992188 Z M 19.09375 24.992188 "/>
<path style=" stroke:none;fill-rule:nonzero;fill:rgb(0%,0%,0%);fill-opacity:1;" d="M 23.847656 21.703125 C 23.546875 21.703125 23.300781 21.457031 23.300781 21.15625 C 23.300781 20.855469 23.542969 20.609375 23.847656 20.609375 C 24.148438 20.609375 24.394531 20.855469 24.394531 21.15625 C 24.394531 21.457031 24.148438 21.703125 23.847656 21.703125 Z M 23.847656 21.703125 "/>
</g>
</svg>
