<?xml version="1.0" encoding="UTF-8"?>
<svg xmlns="http://www.w3.org/2000/svg" xmlns:xlink="http://www.w3.org/1999/xlink" width="28pt" height="28pt" viewBox="0 0 28 28" version="1.1">
<g id="surface1">
<path style=" stroke:none;fill-rule:nonzero;fill:rgb(0%,0%,0%);fill-opacity:1;" d="M 26.714844 24.550781 L 26.246094 24.550781 L 26.246094 12.382812 C 27.300781 11.703125 28 10.519531 28 9.179688 C 28 9.105469 27.980469 9.035156 27.945312 8.972656 L 24.691406 3.277344 C 24.460938 2.878906 24.035156 2.628906 23.574219 2.628906 L 4.425781 2.628906 C 3.964844 2.628906 3.539062 2.878906 3.308594 3.277344 L 0.0546875 8.972656 C 0.0195312 9.035156 0 9.105469 0 9.179688 C 0 10.519531 0.699219 11.703125 1.753906 12.382812 L 1.753906 24.550781 L 1.285156 24.550781 C 1.058594 24.550781 0.875 24.734375 0.875 24.960938 C 0.875 25.1875 1.058594 25.371094 1.285156 25.371094 L 26.714844 25.371094 C 26.941406 25.371094 27.125 25.1875 27.125 24.960938 C 27.125 24.734375 26.941406 24.550781 26.714844 24.550781 Z M 0.847656 9.589844 L 2.164062 9.589844 C 2.390625 9.589844 2.574219 9.402344 2.574219 9.179688 C 2.574219 8.953125 2.390625 8.769531 2.164062 8.769531 L 1.117188 8.769531 L 4.019531 3.6875 C 4.105469 3.539062 4.257812 3.449219 4.425781 3.449219 L 23.574219 3.449219 C 23.742188 3.449219 23.894531 3.539062 23.980469 3.6875 L 26.882812 8.769531 L 25.835938 8.769531 C 25.609375 8.769531 25.425781 8.953125 25.425781 9.179688 C 25.425781 9.402344 25.609375 9.589844 25.835938 9.589844 L 27.152344 9.589844 C 26.949219 11.042969 25.699219 12.164062 24.191406 12.164062 C 22.683594 12.164062 21.433594 11.042969 21.234375 9.589844 L 24.082031 9.589844 C 24.308594 9.589844 24.492188 9.402344 24.492188 9.179688 C 24.492188 8.953125 24.308594 8.769531 24.082031 8.769531 L 3.917969 8.769531 C 3.691406 8.769531 3.507812 8.953125 3.507812 9.179688 C 3.507812 9.402344 3.691406 9.589844 3.917969 9.589844 L 6.765625 9.589844 C 6.566406 11.042969 5.316406 12.164062 3.808594 12.164062 C 2.300781 12.164062 1.050781 11.042969 0.847656 9.589844 Z M 20.355469 9.589844 C 20.15625 11.042969 18.90625 12.164062 17.398438 12.164062 C 15.890625 12.164062 14.640625 11.042969 14.4375 9.589844 Z M 13.5625 9.589844 C 13.359375 11.042969 12.109375 12.164062 10.601562 12.164062 C 9.09375 12.164062 7.84375 11.042969 7.644531 9.589844 Z M 23.234375 24.550781 L 18.792969 24.550781 L 18.792969 23.179688 L 23.234375 23.179688 Z M 23.234375 22.359375 L 18.792969 22.359375 L 18.792969 14.847656 L 23.234375 14.847656 Z M 25.425781 24.550781 L 24.054688 24.550781 L 24.054688 14.4375 C 24.054688 14.210938 23.871094 14.027344 23.644531 14.027344 L 18.382812 14.027344 C 18.15625 14.027344 17.972656 14.210938 17.972656 14.4375 L 17.972656 24.550781 L 2.574219 24.550781 L 2.574219 12.777344 C 2.960938 12.910156 3.375 12.984375 3.808594 12.984375 C 5.289062 12.984375 6.574219 12.132812 7.203125 10.894531 C 7.835938 12.132812 9.121094 12.984375 10.601562 12.984375 C 12.085938 12.984375 13.371094 12.132812 14 10.894531 C 14.628906 12.132812 15.914062 12.984375 17.398438 12.984375 C 18.878906 12.984375 20.164062 12.132812 20.796875 10.894531 C 21.425781 12.132812 22.710938 12.984375 24.191406 12.984375 C 24.625 12.984375 25.039062 12.910156 25.425781 12.777344 Z M 25.425781 24.550781 "/>
<path style=" stroke:none;fill-rule:nonzero;fill:rgb(0%,0%,0%);fill-opacity:1;" d="M 16.191406 14.027344 L 4.355469 14.027344 C 4.128906 14.027344 3.945312 14.210938 3.945312 14.4375 L 3.945312 22.769531 C 3.945312 22.996094 4.128906 23.179688 4.355469 23.179688 L 16.191406 23.179688 C 16.417969 23.179688 16.601562 22.996094 16.601562 22.769531 L 16.601562 14.4375 C 16.601562 14.210938 16.417969 14.027344 16.191406 14.027344 Z M 15.78125 22.359375 L 4.765625 22.359375 L 4.765625 14.847656 L 15.78125 14.847656 Z M 15.78125 22.359375 "/>
</g>
</svg>
