<?xml version="1.0" encoding="UTF-8"?>
<svg xmlns="http://www.w3.org/2000/svg" xmlns:xlink="http://www.w3.org/1999/xlink" width="28pt" height="28pt" viewBox="0 0 28 28" version="1.1">
<g id="surface1">
<path style=" stroke:none;fill-rule:nonzero;fill:rgb(0%,0%,0%);fill-opacity:1;" d="M 24.578125 5.664062 L 14.0625 0.0625 C 13.910156 -0.0234375 13.722656 -0.0195312 13.566406 0.0664062 L 3.34375 5.667969 C 3.175781 5.757812 3.074219 5.933594 3.074219 6.125 L 3.074219 13.441406 C 3.078125 19.457031 6.644531 24.898438 12.152344 27.308594 L 13.574219 27.925781 C 13.707031 27.984375 13.855469 27.984375 13.988281 27.925781 L 15.589844 27.238281 C 21.203125 24.878906 24.851562 19.386719 24.855469 13.296875 L 24.855469 6.125 C 24.855469 5.933594 24.746094 5.753906 24.578125 5.664062 Z M 23.808594 13.296875 C 23.804688 18.964844 20.40625 24.082031 15.179688 26.273438 L 15.175781 26.277344 L 13.78125 26.875 L 12.574219 26.347656 C 7.441406 24.105469 4.125 19.042969 4.121094 13.441406 L 4.121094 6.433594 L 13.820312 1.117188 L 23.808594 6.4375 Z M 23.808594 13.296875 "/>
<path style=" stroke:none;fill-rule:nonzero;fill:rgb(0%,0%,0%);fill-opacity:1;" d="M 9.960938 13.101562 C 9.773438 12.882812 9.441406 12.855469 9.222656 13.042969 C 9.003906 13.230469 8.976562 13.5625 9.164062 13.78125 L 11.929688 17.019531 C 12.113281 17.234375 12.4375 17.265625 12.65625 17.085938 L 19.09375 11.847656 C 19.320312 11.664062 19.355469 11.335938 19.171875 11.113281 C 18.988281 10.886719 18.660156 10.851562 18.433594 11.035156 L 12.394531 15.953125 Z M 9.960938 13.101562 "/>
</g>
</svg>
