<?xml version="1.0" encoding="UTF-8"?>
<svg xmlns="http://www.w3.org/2000/svg" xmlns:xlink="http://www.w3.org/1999/xlink" width="28pt" height="28pt" viewBox="0 0 28 28" version="1.1">
<g id="surface1">
<path style=" stroke:none;fill-rule:nonzero;fill:rgb(0%,0%,0%);fill-opacity:1;" d="M 24.734375 19.132812 C 24.734375 17.332031 23.269531 15.867188 21.464844 15.867188 C 19.664062 15.867188 18.199219 17.332031 18.199219 19.132812 L 18.199219 19.601562 L 16.332031 19.601562 L 16.332031 28 L 26.601562 28 L 26.601562 19.601562 L 24.734375 19.601562 Z M 19.132812 19.132812 C 19.132812 17.847656 20.179688 16.800781 21.464844 16.800781 C 22.753906 16.800781 23.800781 17.847656 23.800781 19.132812 L 23.800781 19.601562 L 19.132812 19.601562 Z M 25.667969 20.535156 L 25.667969 27.066406 L 17.265625 27.066406 L 17.265625 20.535156 Z M 25.667969 20.535156 "/>
<path style=" stroke:none;fill-rule:nonzero;fill:rgb(0%,0%,0%);fill-opacity:1;" d="M 21 25.601562 L 21 26.132812 C 21 26.390625 21.210938 26.601562 21.464844 26.601562 C 21.722656 26.601562 21.933594 26.390625 21.933594 26.132812 L 21.933594 25.601562 C 22.734375 25.390625 23.332031 24.667969 23.332031 23.800781 C 23.332031 22.769531 22.496094 21.933594 21.464844 21.933594 C 20.4375 21.933594 19.601562 22.769531 19.601562 23.800781 C 19.601562 24.667969 20.199219 25.390625 21 25.601562 Z M 21.464844 22.867188 C 21.980469 22.867188 22.398438 23.285156 22.398438 23.800781 C 22.398438 24.316406 21.980469 24.734375 21.464844 24.734375 C 20.953125 24.734375 20.535156 24.316406 20.535156 23.800781 C 20.535156 23.285156 20.953125 22.867188 21.464844 22.867188 Z M 21.464844 22.867188 "/>
<path style=" stroke:none;fill-rule:nonzero;fill:rgb(0%,0%,0%);fill-opacity:1;" d="M 4.898438 2.800781 C 3.742188 2.800781 2.800781 3.742188 2.800781 4.898438 C 2.800781 6.058594 3.742188 7 4.898438 7 C 6.058594 7 7 6.058594 7 4.898438 C 7 3.742188 6.058594 2.800781 4.898438 2.800781 Z M 4.898438 6.066406 C 4.257812 6.066406 3.734375 5.542969 3.734375 4.898438 C 3.734375 4.257812 4.257812 3.734375 4.898438 3.734375 C 5.542969 3.734375 6.066406 4.257812 6.066406 4.898438 C 6.066406 5.542969 5.542969 6.066406 4.898438 6.066406 Z M 4.898438 6.066406 "/>
<path style=" stroke:none;fill-rule:nonzero;fill:rgb(0%,0%,0%);fill-opacity:1;" d="M 23.800781 4.199219 C 23.800781 4.457031 23.589844 4.667969 23.332031 4.667969 C 23.074219 4.667969 22.867188 4.457031 22.867188 4.199219 C 22.867188 3.941406 23.074219 3.734375 23.332031 3.734375 C 23.589844 3.734375 23.800781 3.941406 23.800781 4.199219 Z M 23.800781 4.199219 "/>
<path style=" stroke:none;fill-rule:nonzero;fill:rgb(0%,0%,0%);fill-opacity:1;" d="M 21.933594 4.199219 C 21.933594 4.457031 21.722656 4.667969 21.464844 4.667969 C 21.207031 4.667969 21 4.457031 21 4.199219 C 21 3.941406 21.207031 3.734375 21.464844 3.734375 C 21.722656 3.734375 21.933594 3.941406 21.933594 4.199219 Z M 21.933594 4.199219 "/>
<path style=" stroke:none;fill-rule:nonzero;fill:rgb(0%,0%,0%);fill-opacity:1;" d="M 24.734375 5.601562 C 24.734375 5.859375 24.523438 6.066406 24.265625 6.066406 C 24.007812 6.066406 23.800781 5.859375 23.800781 5.601562 C 23.800781 5.34375 24.007812 5.132812 24.265625 5.132812 C 24.523438 5.132812 24.734375 5.34375 24.734375 5.601562 Z M 24.734375 5.601562 "/>
<path style=" stroke:none;fill-rule:nonzero;fill:rgb(0%,0%,0%);fill-opacity:1;" d="M 22.867188 5.601562 C 22.867188 5.859375 22.65625 6.066406 22.398438 6.066406 C 22.140625 6.066406 21.933594 5.859375 21.933594 5.601562 C 21.933594 5.34375 22.140625 5.132812 22.398438 5.132812 C 22.65625 5.132812 22.867188 5.34375 22.867188 5.601562 Z M 22.867188 5.601562 "/>
<path style=" stroke:none;fill-rule:nonzero;fill:rgb(0%,0%,0%);fill-opacity:1;" d="M 20.066406 4.199219 C 20.066406 4.457031 19.859375 4.667969 19.601562 4.667969 C 19.34375 4.667969 19.132812 4.457031 19.132812 4.199219 C 19.132812 3.941406 19.34375 3.734375 19.601562 3.734375 C 19.859375 3.734375 20.066406 3.941406 20.066406 4.199219 Z M 20.066406 4.199219 "/>
<path style=" stroke:none;fill-rule:nonzero;fill:rgb(0%,0%,0%);fill-opacity:1;" d="M 21 5.601562 C 21 5.859375 20.792969 6.066406 20.535156 6.066406 C 20.277344 6.066406 20.066406 5.859375 20.066406 5.601562 C 20.066406 5.34375 20.277344 5.132812 20.535156 5.132812 C 20.792969 5.132812 21 5.34375 21 5.601562 Z M 21 5.601562 "/>
<path style=" stroke:none;fill-rule:nonzero;fill:rgb(0%,0%,0%);fill-opacity:1;" d="M 18.199219 4.199219 C 18.199219 4.457031 17.992188 4.667969 17.734375 4.667969 C 17.476562 4.667969 17.265625 4.457031 17.265625 4.199219 C 17.265625 3.941406 17.476562 3.734375 17.734375 3.734375 C 17.992188 3.734375 18.199219 3.941406 18.199219 4.199219 Z M 18.199219 4.199219 "/>
<path style=" stroke:none;fill-rule:nonzero;fill:rgb(0%,0%,0%);fill-opacity:1;" d="M 19.132812 5.601562 C 19.132812 5.859375 18.925781 6.066406 18.667969 6.066406 C 18.410156 6.066406 18.199219 5.859375 18.199219 5.601562 C 18.199219 5.34375 18.410156 5.132812 18.667969 5.132812 C 18.925781 5.132812 19.132812 5.34375 19.132812 5.601562 Z M 19.132812 5.601562 "/>
<path style=" stroke:none;fill-rule:nonzero;fill:rgb(0%,0%,0%);fill-opacity:1;" d="M 16.332031 4.199219 C 16.332031 4.457031 16.125 4.667969 15.867188 4.667969 C 15.609375 4.667969 15.398438 4.457031 15.398438 4.199219 C 15.398438 3.941406 15.609375 3.734375 15.867188 3.734375 C 16.125 3.734375 16.332031 3.941406 16.332031 4.199219 Z M 16.332031 4.199219 "/>
<path style=" stroke:none;fill-rule:nonzero;fill:rgb(0%,0%,0%);fill-opacity:1;" d="M 17.265625 5.601562 C 17.265625 5.859375 17.058594 6.066406 16.800781 6.066406 C 16.542969 6.066406 16.332031 5.859375 16.332031 5.601562 C 16.332031 5.34375 16.542969 5.132812 16.800781 5.132812 C 17.058594 5.132812 17.265625 5.34375 17.265625 5.601562 Z M 17.265625 5.601562 "/>
<path style=" stroke:none;fill-rule:nonzero;fill:rgb(0%,0%,0%);fill-opacity:1;" d="M 28 7.648438 L 28 2.152344 C 28 0.964844 27.035156 0 25.847656 0 L 2.152344 0 C 0.964844 0 0 0.964844 0 2.152344 L 0 7.648438 C 0 8.335938 0.328125 8.9375 0.828125 9.332031 C 0.328125 9.726562 0 10.332031 0 11.015625 L 0 16.515625 C 0 17.203125 0.328125 17.804688 0.828125 18.199219 C 0.328125 18.59375 0 19.199219 0 19.882812 L 0 25.382812 C 0 26.570312 0.964844 27.535156 2.152344 27.535156 L 14 27.535156 L 14 26.601562 L 2.152344 26.601562 C 1.480469 26.601562 0.933594 26.054688 0.933594 25.382812 L 0.933594 19.882812 C 0.933594 19.210938 1.480469 18.667969 2.152344 18.667969 L 15.398438 18.667969 L 15.398438 17.734375 L 2.152344 17.734375 C 1.480469 17.734375 0.933594 17.1875 0.933594 16.515625 L 0.933594 11.015625 C 0.933594 10.347656 1.480469 9.800781 2.152344 9.800781 L 25.847656 9.800781 C 26.519531 9.800781 27.066406 10.347656 27.066406 11.015625 L 27.066406 17.734375 L 28 17.734375 L 28 11.015625 C 28 10.332031 27.671875 9.726562 27.171875 9.332031 C 27.671875 8.9375 28 8.335938 28 7.648438 Z M 2.152344 8.867188 C 1.480469 8.867188 0.933594 8.320312 0.933594 7.648438 L 0.933594 2.152344 C 0.933594 1.480469 1.480469 0.933594 2.152344 0.933594 L 25.847656 0.933594 C 26.519531 0.933594 27.066406 1.480469 27.066406 2.152344 L 27.066406 7.648438 C 27.066406 8.320312 26.519531 8.867188 25.847656 8.867188 Z M 2.152344 8.867188 "/>
<path style=" stroke:none;fill-rule:nonzero;fill:rgb(0%,0%,0%);fill-opacity:1;" d="M 2.800781 13.765625 C 2.800781 14.925781 3.742188 15.867188 4.898438 15.867188 C 6.058594 15.867188 7 14.925781 7 13.765625 C 7 12.609375 6.058594 11.667969 4.898438 11.667969 C 3.742188 11.667969 2.800781 12.609375 2.800781 13.765625 Z M 6.066406 13.765625 C 6.066406 14.410156 5.542969 14.933594 4.898438 14.933594 C 4.257812 14.933594 3.734375 14.410156 3.734375 13.765625 C 3.734375 13.125 4.257812 12.601562 4.898438 12.601562 C 5.542969 12.601562 6.066406 13.125 6.066406 13.765625 Z M 6.066406 13.765625 "/>
<path style=" stroke:none;fill-rule:nonzero;fill:rgb(0%,0%,0%);fill-opacity:1;" d="M 23.800781 13.066406 C 23.800781 13.324219 23.589844 13.535156 23.332031 13.535156 C 23.074219 13.535156 22.867188 13.324219 22.867188 13.066406 C 22.867188 12.808594 23.074219 12.601562 23.332031 12.601562 C 23.589844 12.601562 23.800781 12.808594 23.800781 13.066406 Z M 23.800781 13.066406 "/>
<path style=" stroke:none;fill-rule:nonzero;fill:rgb(0%,0%,0%);fill-opacity:1;" d="M 21.933594 13.066406 C 21.933594 13.324219 21.722656 13.535156 21.464844 13.535156 C 21.207031 13.535156 21 13.324219 21 13.066406 C 21 12.808594 21.207031 12.601562 21.464844 12.601562 C 21.722656 12.601562 21.933594 12.808594 21.933594 13.066406 Z M 21.933594 13.066406 "/>
<path style=" stroke:none;fill-rule:nonzero;fill:rgb(0%,0%,0%);fill-opacity:1;" d="M 24.734375 14.464844 C 24.734375 14.722656 24.523438 14.933594 24.265625 14.933594 C 24.007812 14.933594 23.800781 14.722656 23.800781 14.464844 C 23.800781 14.207031 24.007812 14 24.265625 14 C 24.523438 14 24.734375 14.207031 24.734375 14.464844 Z M 24.734375 14.464844 "/>
<path style=" stroke:none;fill-rule:nonzero;fill:rgb(0%,0%,0%);fill-opacity:1;" d="M 22.867188 14.464844 C 22.867188 14.722656 22.65625 14.933594 22.398438 14.933594 C 22.140625 14.933594 21.933594 14.722656 21.933594 14.464844 C 21.933594 14.207031 22.140625 14 22.398438 14 C 22.65625 14 22.867188 14.207031 22.867188 14.464844 Z M 22.867188 14.464844 "/>
<path style=" stroke:none;fill-rule:nonzero;fill:rgb(0%,0%,0%);fill-opacity:1;" d="M 20.066406 13.066406 C 20.066406 13.324219 19.859375 13.535156 19.601562 13.535156 C 19.34375 13.535156 19.132812 13.324219 19.132812 13.066406 C 19.132812 12.808594 19.34375 12.601562 19.601562 12.601562 C 19.859375 12.601562 20.066406 12.808594 20.066406 13.066406 Z M 20.066406 13.066406 "/>
<path style=" stroke:none;fill-rule:nonzero;fill:rgb(0%,0%,0%);fill-opacity:1;" d="M 21 14.464844 C 21 14.722656 20.792969 14.933594 20.535156 14.933594 C 20.277344 14.933594 20.066406 14.722656 20.066406 14.464844 C 20.066406 14.207031 20.277344 14 20.535156 14 C 20.792969 14 21 14.207031 21 14.464844 Z M 21 14.464844 "/>
<path style=" stroke:none;fill-rule:nonzero;fill:rgb(0%,0%,0%);fill-opacity:1;" d="M 18.199219 13.066406 C 18.199219 13.324219 17.992188 13.535156 17.734375 13.535156 C 17.476562 13.535156 17.265625 13.324219 17.265625 13.066406 C 17.265625 12.808594 17.476562 12.601562 17.734375 12.601562 C 17.992188 12.601562 18.199219 12.808594 18.199219 13.066406 Z M 18.199219 13.066406 "/>
<path style=" stroke:none;fill-rule:nonzero;fill:rgb(0%,0%,0%);fill-opacity:1;" d="M 19.132812 14.464844 C 19.132812 14.722656 18.925781 14.933594 18.667969 14.933594 C 18.410156 14.933594 18.199219 14.722656 18.199219 14.464844 C 18.199219 14.207031 18.410156 14 18.667969 14 C 18.925781 14 19.132812 14.207031 19.132812 14.464844 Z M 19.132812 14.464844 "/>
<path style=" stroke:none;fill-rule:nonzero;fill:rgb(0%,0%,0%);fill-opacity:1;" d="M 16.332031 13.066406 C 16.332031 13.324219 16.125 13.535156 15.867188 13.535156 C 15.609375 13.535156 15.398438 13.324219 15.398438 13.066406 C 15.398438 12.808594 15.609375 12.601562 15.867188 12.601562 C 16.125 12.601562 16.332031 12.808594 16.332031 13.066406 Z M 16.332031 13.066406 "/>
<path style=" stroke:none;fill-rule:nonzero;fill:rgb(0%,0%,0%);fill-opacity:1;" d="M 17.265625 14.464844 C 17.265625 14.722656 17.058594 14.933594 16.800781 14.933594 C 16.542969 14.933594 16.332031 14.722656 16.332031 14.464844 C 16.332031 14.207031 16.542969 14 16.800781 14 C 17.058594 14 17.265625 14.207031 17.265625 14.464844 Z M 17.265625 14.464844 "/>
<path style=" stroke:none;fill-rule:nonzero;fill:rgb(0%,0%,0%);fill-opacity:1;" d="M 2.800781 22.632812 C 2.800781 23.792969 3.742188 24.734375 4.898438 24.734375 C 6.058594 24.734375 7 23.792969 7 22.632812 C 7 21.476562 6.058594 20.535156 4.898438 20.535156 C 3.742188 20.535156 2.800781 21.476562 2.800781 22.632812 Z M 6.066406 22.632812 C 6.066406 23.277344 5.542969 23.800781 4.898438 23.800781 C 4.257812 23.800781 3.734375 23.277344 3.734375 22.632812 C 3.734375 21.988281 4.257812 21.464844 4.898438 21.464844 C 5.542969 21.464844 6.066406 21.988281 6.066406 22.632812 Z M 6.066406 22.632812 "/>
</g>
</svg>
