<?xml version="1.0" encoding="UTF-8"?>
<svg xmlns="http://www.w3.org/2000/svg" xmlns:xlink="http://www.w3.org/1999/xlink" width="28pt" height="28pt" viewBox="0 0 28 28" version="1.1">
<g id="surface1">
<path style=" stroke:none;fill-rule:nonzero;fill:rgb(0%,0%,0%);fill-opacity:1;" d="M 14.816406 13.648438 L 14.816406 0.785156 C 14.816406 0.351562 14.464844 0 14.027344 0 C 13.59375 0 13.242188 0.351562 13.242188 0.785156 L 13.242188 13.648438 C 11.417969 14.015625 10.035156 15.628906 10.035156 17.566406 C 10.035156 19.5 11.417969 21.113281 13.242188 21.480469 L 13.242188 27.207031 C 13.242188 27.644531 13.59375 27.996094 14.027344 27.996094 C 14.464844 27.996094 14.816406 27.644531 14.816406 27.207031 L 14.816406 21.480469 C 16.640625 21.113281 18.023438 19.5 18.023438 17.566406 C 18.023438 15.636719 16.648438 14.015625 14.816406 13.648438 Z M 14.027344 19.984375 C 12.695312 19.984375 11.609375 18.898438 11.609375 17.566406 C 11.609375 16.230469 12.695312 15.144531 14.027344 15.144531 C 15.363281 15.144531 16.449219 16.230469 16.449219 17.566406 C 16.449219 18.898438 15.363281 19.984375 14.027344 19.984375 Z M 14.027344 19.984375 "/>
<path style=" stroke:none;fill-rule:nonzero;fill:rgb(0%,0%,0%);fill-opacity:1;" d="M 5.179688 7.046875 L 5.179688 0.785156 C 5.179688 0.351562 4.828125 0 4.394531 0 C 3.957031 0 3.605469 0.351562 3.605469 0.785156 L 3.605469 7.046875 C 1.78125 7.414062 0.398438 9.03125 0.398438 10.964844 C 0.398438 12.902344 1.78125 14.515625 3.605469 14.882812 L 3.605469 27.207031 C 3.605469 27.644531 3.957031 27.996094 4.394531 27.996094 C 4.828125 27.996094 5.179688 27.644531 5.179688 27.207031 L 5.179688 14.878906 C 7.003906 14.511719 8.386719 12.894531 8.386719 10.960938 C 8.386719 9.023438 7.003906 7.414062 5.179688 7.046875 Z M 4.394531 13.386719 C 3.058594 13.386719 1.972656 12.300781 1.972656 10.964844 C 1.972656 9.628906 3.058594 8.546875 4.394531 8.546875 C 5.726562 8.546875 6.8125 9.628906 6.8125 10.964844 C 6.8125 12.300781 5.722656 13.386719 4.394531 13.386719 Z M 4.394531 13.386719 "/>
<path style=" stroke:none;fill-rule:nonzero;fill:rgb(0%,0%,0%);fill-opacity:1;" d="M 24.394531 7.046875 L 24.394531 0.785156 C 24.394531 0.351562 24.042969 0 23.605469 0 C 23.171875 0 22.820312 0.351562 22.820312 0.785156 L 22.820312 7.046875 C 20.996094 7.414062 19.613281 9.03125 19.613281 10.964844 C 19.613281 12.902344 20.996094 14.515625 22.820312 14.882812 L 22.820312 27.214844 C 22.820312 27.648438 23.171875 28 23.605469 28 C 24.042969 28 24.394531 27.648438 24.394531 27.214844 L 24.394531 14.878906 C 26.21875 14.511719 27.601562 12.894531 27.601562 10.960938 C 27.601562 9.023438 26.226562 7.414062 24.394531 7.046875 Z M 23.605469 13.386719 C 22.273438 13.386719 21.1875 12.300781 21.1875 10.964844 C 21.1875 9.628906 22.273438 8.546875 23.605469 8.546875 C 24.941406 8.546875 26.027344 9.628906 26.027344 10.964844 C 26.027344 12.300781 24.941406 13.386719 23.605469 13.386719 Z M 23.605469 13.386719 "/>
</g>
</svg>
