<?xml version="1.0" encoding="UTF-8"?>
<svg xmlns="http://www.w3.org/2000/svg" xmlns:xlink="http://www.w3.org/1999/xlink" width="28pt" height="28pt" viewBox="0 0 28 28" version="1.1">
<g id="surface1">
<path style=" stroke:none;fill-rule:nonzero;fill:rgb(0%,0%,0%);fill-opacity:1;" d="M 27.761719 21.214844 L 25.648438 17.554688 C 25.328125 17 24.738281 16.660156 24.097656 16.660156 L 19.875 16.660156 C 19.234375 16.660156 18.644531 17 18.324219 17.554688 L 16.210938 21.214844 C 15.890625 21.765625 15.890625 22.449219 16.210938 23.003906 L 18.324219 26.660156 C 18.644531 27.214844 19.234375 27.554688 19.875 27.554688 L 24.097656 27.554688 C 24.738281 27.554688 25.328125 27.214844 25.648438 26.660156 L 27.761719 23.003906 C 28.078125 22.449219 28.078125 21.765625 27.761719 21.214844 Z M 21.984375 24.699219 C 20.554688 24.699219 19.394531 23.539062 19.394531 22.109375 C 19.394531 20.675781 20.554688 19.515625 21.984375 19.515625 C 23.417969 19.515625 24.578125 20.675781 24.578125 22.109375 C 24.578125 23.539062 23.417969 24.699219 21.984375 24.699219 Z M 21.984375 24.699219 "/>
<path style=" stroke:none;fill-rule:nonzero;fill:rgb(0%,0%,0%);fill-opacity:1;" d="M 15.453125 16.03125 L 11.921875 13.996094 C 11.296875 13.640625 11.085938 12.847656 11.445312 12.222656 L 12.933594 9.636719 C 13.101562 9.339844 13.386719 9.121094 13.71875 9.03125 C 14.050781 8.941406 14.402344 8.988281 14.703125 9.160156 L 18.238281 11.195312 C 18.585938 11.394531 19.027344 11.273438 19.230469 10.925781 C 20.054688 9.492188 19.726562 7.675781 18.453125 6.617188 L 16.976562 5.394531 C 15.574219 4.226562 13.714844 3.773438 11.933594 4.152344 L 8.535156 4.875 L 0.992188 0.53125 C 0.789062 0.414062 0.535156 0.414062 0.332031 0.53125 C 0.125 0.652344 0 0.871094 0 1.105469 L 0 7.492188 C 0 7.730469 0.125 7.949219 0.332031 8.066406 L 5.117188 10.820312 L 6.195312 14.117188 C 6.765625 15.847656 8.09375 17.226562 9.804688 17.855469 L 11.605469 18.515625 C 13.160156 19.085938 14.898438 18.453125 15.722656 17.023438 C 15.921875 16.671875 15.800781 16.230469 15.453125 16.03125 Z M 15.453125 16.03125 "/>
</g>
</svg>
