<?xml version="1.0" encoding="UTF-8"?>
<svg xmlns="http://www.w3.org/2000/svg" xmlns:xlink="http://www.w3.org/1999/xlink" width="28pt" height="28pt" viewBox="0 0 28 28" version="1.1">
<g id="surface1">
<path style=" stroke:none;fill-rule:nonzero;fill:rgb(0%,0%,0%);fill-opacity:1;" d="M 17.984375 20.164062 C 17.6875 19.988281 17.386719 19.808594 17.085938 19.636719 C 17.15625 19.03125 17.15625 18.417969 17.085938 17.8125 C 17.386719 17.640625 17.691406 17.460938 17.984375 17.285156 C 18.476562 16.988281 18.683594 16.363281 18.460938 15.832031 L 17.816406 14.277344 C 17.597656 13.742188 17.011719 13.445312 16.449219 13.585938 C 16.117188 13.667969 15.78125 13.757812 15.441406 13.847656 C 15.066406 13.367188 14.632812 12.9375 14.152344 12.558594 C 14.242188 12.21875 14.332031 11.882812 14.414062 11.550781 C 14.554688 10.992188 14.257812 10.402344 13.722656 10.183594 L 12.167969 9.539062 C 11.636719 9.316406 11.011719 9.523438 10.714844 10.015625 C 10.539062 10.308594 10.359375 10.613281 10.1875 10.914062 C 9.582031 10.84375 8.96875 10.84375 8.363281 10.914062 C 8.1875 10.609375 8.011719 10.308594 7.835938 10.015625 C 7.539062 9.523438 6.914062 9.316406 6.378906 9.539062 L 4.824219 10.183594 C 4.292969 10.402344 3.996094 10.992188 4.136719 11.550781 C 4.21875 11.882812 4.304688 12.222656 4.398438 12.558594 C 3.917969 12.933594 3.484375 13.367188 3.109375 13.847656 C 2.769531 13.753906 2.429688 13.667969 2.097656 13.585938 C 1.539062 13.445312 0.953125 13.742188 0.730469 14.277344 L 0.0898438 15.832031 C -0.132812 16.363281 0.0742188 16.988281 0.566406 17.285156 C 0.859375 17.460938 1.164062 17.640625 1.464844 17.8125 C 1.394531 18.417969 1.394531 19.03125 1.464844 19.636719 C 1.160156 19.8125 0.859375 19.988281 0.566406 20.164062 C 0.0742188 20.460938 -0.132812 21.085938 0.0898438 21.621094 L 0.730469 23.175781 C 0.953125 23.707031 1.539062 24.003906 2.097656 23.863281 C 2.429688 23.78125 2.769531 23.695312 3.109375 23.601562 C 3.484375 24.082031 3.917969 24.515625 4.398438 24.890625 C 4.304688 25.230469 4.21875 25.570312 4.136719 25.902344 C 3.996094 26.460938 4.292969 27.046875 4.824219 27.269531 L 6.378906 27.910156 C 6.523438 27.972656 6.675781 28 6.824219 28 C 7.226562 28 7.617188 27.792969 7.835938 27.433594 C 8.011719 27.140625 8.1875 26.839844 8.363281 26.535156 C 8.96875 26.605469 9.582031 26.605469 10.1875 26.535156 C 10.359375 26.835938 10.539062 27.140625 10.714844 27.433594 C 11.011719 27.925781 11.636719 28.132812 12.171875 27.910156 L 13.722656 27.269531 C 14.257812 27.046875 14.554688 26.460938 14.414062 25.902344 C 14.332031 25.570312 14.246094 25.230469 14.152344 24.890625 C 14.632812 24.515625 15.0625 24.082031 15.441406 23.601562 C 15.78125 23.695312 16.117188 23.78125 16.453125 23.863281 C 17.007812 24.003906 17.597656 23.707031 17.816406 23.175781 L 18.460938 21.621094 C 18.683594 21.085938 18.476562 20.460938 17.984375 20.164062 Z M 16.6875 22.632812 C 16.367188 22.550781 16.042969 22.46875 15.71875 22.378906 C 15.261719 22.257812 14.777344 22.417969 14.488281 22.789062 C 14.152344 23.21875 13.765625 23.605469 13.339844 23.9375 C 12.96875 24.226562 12.804688 24.710938 12.929688 25.167969 C 13.019531 25.492188 13.101562 25.820312 13.179688 26.136719 L 11.753906 26.726562 C 11.582031 26.445312 11.414062 26.15625 11.246094 25.867188 C 11.011719 25.453125 10.554688 25.226562 10.085938 25.285156 C 9.546875 25.351562 9.003906 25.351562 8.464844 25.285156 C 7.996094 25.226562 7.539062 25.453125 7.304688 25.863281 C 7.136719 26.15625 6.964844 26.445312 6.796875 26.726562 L 5.367188 26.136719 C 5.449219 25.816406 5.53125 25.492188 5.621094 25.167969 C 5.742188 24.710938 5.582031 24.226562 5.210938 23.9375 C 4.78125 23.601562 4.394531 23.21875 4.0625 22.789062 C 3.773438 22.417969 3.289062 22.257812 2.832031 22.378906 C 2.507812 22.46875 2.183594 22.550781 1.863281 22.632812 L 1.273438 21.203125 C 1.554688 21.035156 1.84375 20.863281 2.132812 20.695312 C 2.546875 20.460938 2.773438 20.003906 2.714844 19.535156 C 2.648438 19 2.648438 18.453125 2.714844 17.914062 C 2.773438 17.445312 2.546875 16.992188 2.132812 16.753906 C 1.84375 16.585938 1.554688 16.417969 1.273438 16.246094 L 1.863281 14.820312 C 2.183594 14.898438 2.507812 14.984375 2.832031 15.070312 C 3.289062 15.195312 3.773438 15.03125 4.0625 14.660156 C 4.398438 14.230469 4.78125 13.84375 5.210938 13.511719 C 5.582031 13.222656 5.742188 12.738281 5.621094 12.28125 C 5.53125 11.957031 5.449219 11.632812 5.367188 11.3125 L 6.796875 10.722656 C 6.964844 11.003906 7.136719 11.292969 7.304688 11.585938 C 7.539062 11.996094 7.996094 12.222656 8.464844 12.164062 C 9 12.097656 9.546875 12.097656 10.085938 12.164062 C 10.554688 12.222656 11.011719 11.996094 11.246094 11.585938 C 11.414062 11.292969 11.582031 11.003906 11.753906 10.722656 L 13.179688 11.3125 C 13.101562 11.632812 13.015625 11.957031 12.929688 12.28125 C 12.804688 12.738281 12.96875 13.222656 13.339844 13.511719 C 13.769531 13.847656 14.152344 14.234375 14.488281 14.660156 C 14.777344 15.03125 15.261719 15.191406 15.71875 15.070312 C 16.042969 14.984375 16.367188 14.898438 16.6875 14.816406 L 17.277344 16.246094 C 16.996094 16.414062 16.707031 16.585938 16.414062 16.753906 C 16.003906 16.988281 15.777344 17.445312 15.835938 17.914062 C 15.902344 18.449219 15.902344 18.996094 15.835938 19.535156 C 15.777344 20.003906 16.003906 20.460938 16.414062 20.695312 C 16.703125 20.863281 16.996094 21.035156 17.277344 21.203125 Z M 16.6875 22.632812 "/>
<path style=" stroke:none;fill-rule:nonzero;fill:rgb(0%,0%,0%);fill-opacity:1;" d="M 13.222656 17.089844 C 12.320312 14.914062 9.816406 13.878906 7.640625 14.777344 C 5.464844 15.679688 4.425781 18.183594 5.328125 20.359375 C 5.765625 21.414062 6.585938 22.234375 7.640625 22.671875 C 8.167969 22.890625 8.722656 23 9.273438 23 C 9.828125 23 10.382812 22.890625 10.910156 22.671875 C 13.085938 21.769531 14.121094 19.265625 13.222656 17.089844 Z M 10.429688 21.511719 C 9.683594 21.820312 8.863281 21.820312 8.121094 21.511719 C 7.375 21.203125 6.796875 20.625 6.488281 19.878906 C 5.851562 18.34375 6.582031 16.574219 8.121094 15.9375 C 8.496094 15.78125 8.886719 15.707031 9.269531 15.707031 C 10.457031 15.707031 11.582031 16.410156 12.0625 17.570312 C 12.699219 19.109375 11.96875 20.875 10.429688 21.511719 Z M 10.429688 21.511719 "/>
<path style=" stroke:none;fill-rule:nonzero;fill:rgb(0%,0%,0%);fill-opacity:1;" d="M 27.15625 5.519531 C 26.9375 5.488281 26.714844 5.457031 26.492188 5.425781 C 26.378906 5.050781 26.230469 4.6875 26.042969 4.34375 C 26.179688 4.164062 26.316406 3.984375 26.445312 3.808594 C 26.734375 3.414062 26.695312 2.859375 26.347656 2.515625 L 25.484375 1.652344 C 25.140625 1.304688 24.582031 1.265625 24.191406 1.554688 C 24.015625 1.683594 23.835938 1.820312 23.65625 1.957031 C 23.3125 1.769531 22.949219 1.621094 22.574219 1.507812 C 22.542969 1.285156 22.511719 1.0625 22.480469 0.84375 C 22.40625 0.363281 21.984375 0 21.496094 0 L 20.273438 0 C 19.789062 0 19.363281 0.363281 19.292969 0.84375 C 19.261719 1.0625 19.230469 1.28125 19.199219 1.507812 C 18.824219 1.621094 18.460938 1.769531 18.117188 1.957031 C 17.9375 1.820312 17.757812 1.683594 17.582031 1.554688 C 17.1875 1.265625 16.632812 1.304688 16.289062 1.652344 L 15.425781 2.515625 C 15.078125 2.859375 15.039062 3.414062 15.328125 3.808594 C 15.457031 3.984375 15.59375 4.164062 15.730469 4.34375 C 15.542969 4.6875 15.394531 5.050781 15.28125 5.425781 C 15.054688 5.457031 14.835938 5.488281 14.617188 5.519531 C 14.136719 5.59375 13.773438 6.015625 13.773438 6.503906 L 13.773438 7.726562 C 13.773438 8.210938 14.136719 8.636719 14.617188 8.707031 C 14.835938 8.738281 15.054688 8.769531 15.28125 8.800781 C 15.394531 9.175781 15.542969 9.539062 15.730469 9.882812 C 15.59375 10.0625 15.457031 10.242188 15.328125 10.417969 C 15.039062 10.8125 15.078125 11.367188 15.425781 11.710938 L 16.289062 12.574219 C 16.632812 12.921875 17.1875 12.960938 17.582031 12.671875 C 17.757812 12.542969 17.9375 12.40625 18.117188 12.269531 C 18.460938 12.457031 18.824219 12.605469 19.199219 12.71875 C 19.230469 12.945312 19.261719 13.164062 19.292969 13.382812 C 19.363281 13.863281 19.789062 14.226562 20.273438 14.226562 L 21.496094 14.226562 C 21.984375 14.226562 22.40625 13.863281 22.480469 13.382812 C 22.511719 13.164062 22.542969 12.945312 22.574219 12.71875 C 22.949219 12.605469 23.3125 12.457031 23.65625 12.269531 C 23.835938 12.40625 24.015625 12.542969 24.191406 12.671875 C 24.582031 12.960938 25.140625 12.921875 25.484375 12.574219 L 26.347656 11.710938 C 26.695312 11.367188 26.734375 10.8125 26.445312 10.417969 C 26.316406 10.242188 26.179688 10.0625 26.042969 9.882812 C 26.230469 9.539062 26.378906 9.175781 26.492188 8.800781 C 26.714844 8.769531 26.9375 8.738281 27.15625 8.707031 C 27.636719 8.636719 28 8.210938 28 7.726562 L 28 6.503906 C 28 6.015625 27.636719 5.59375 27.15625 5.519531 Z M 26.808594 7.554688 C 26.613281 7.582031 26.414062 7.609375 26.210938 7.636719 C 25.8125 7.6875 25.488281 7.972656 25.382812 8.355469 C 25.28125 8.726562 25.132812 9.082031 24.945312 9.414062 C 24.746094 9.761719 24.777344 10.191406 25.023438 10.507812 C 25.144531 10.667969 25.265625 10.832031 25.386719 10.988281 L 24.761719 11.613281 C 24.601562 11.492188 24.441406 11.371094 24.28125 11.25 C 23.964844 11.003906 23.535156 10.972656 23.1875 11.171875 C 22.851562 11.359375 22.496094 11.507812 22.128906 11.609375 C 21.742188 11.714844 21.460938 12.039062 21.410156 12.4375 C 21.382812 12.640625 21.355469 12.839844 21.328125 13.035156 L 20.445312 13.035156 C 20.417969 12.839844 20.390625 12.640625 20.363281 12.4375 C 20.3125 12.039062 20.027344 11.714844 19.644531 11.609375 C 19.277344 11.507812 18.921875 11.359375 18.585938 11.171875 C 18.238281 10.972656 17.808594 11.003906 17.492188 11.25 C 17.332031 11.371094 17.171875 11.492188 17.011719 11.613281 L 16.386719 10.988281 C 16.503906 10.832031 16.628906 10.667969 16.75 10.507812 C 16.996094 10.191406 17.027344 9.761719 16.828125 9.414062 C 16.640625 9.082031 16.492188 8.722656 16.390625 8.355469 C 16.285156 7.972656 15.960938 7.6875 15.5625 7.636719 C 15.359375 7.609375 15.160156 7.582031 14.964844 7.554688 L 14.964844 6.671875 C 15.160156 6.644531 15.359375 6.617188 15.5625 6.589844 C 15.960938 6.539062 16.285156 6.257812 16.390625 5.871094 C 16.492188 5.503906 16.640625 5.148438 16.828125 4.8125 C 17.027344 4.464844 16.996094 4.035156 16.75 3.71875 C 16.628906 3.558594 16.503906 3.398438 16.386719 3.238281 L 17.011719 2.613281 C 17.171875 2.734375 17.332031 2.855469 17.492188 2.976562 C 17.808594 3.222656 18.238281 3.253906 18.585938 3.054688 C 18.917969 2.867188 19.277344 2.71875 19.644531 2.617188 C 20.027344 2.511719 20.3125 2.1875 20.363281 1.789062 C 20.390625 1.585938 20.417969 1.386719 20.445312 1.191406 L 21.328125 1.191406 C 21.355469 1.386719 21.382812 1.585938 21.410156 1.789062 C 21.460938 2.1875 21.742188 2.511719 22.128906 2.617188 C 22.496094 2.71875 22.851562 2.867188 23.1875 3.054688 C 23.535156 3.253906 23.964844 3.222656 24.28125 2.976562 C 24.441406 2.855469 24.601562 2.734375 24.761719 2.613281 L 25.386719 3.238281 C 25.265625 3.398438 25.144531 3.558594 25.023438 3.71875 C 24.777344 4.035156 24.746094 4.464844 24.945312 4.8125 C 25.132812 5.148438 25.28125 5.503906 25.382812 5.871094 C 25.488281 6.257812 25.8125 6.539062 26.210938 6.589844 C 26.414062 6.617188 26.613281 6.644531 26.808594 6.671875 Z M 26.808594 7.554688 "/>
<path style=" stroke:none;fill-rule:nonzero;fill:rgb(0%,0%,0%);fill-opacity:1;" d="M 20.886719 4.574219 C 19.488281 4.574219 18.347656 5.714844 18.347656 7.113281 C 18.347656 8.511719 19.488281 9.652344 20.886719 9.652344 C 22.285156 9.652344 23.425781 8.511719 23.425781 7.113281 C 23.425781 5.714844 22.285156 4.574219 20.886719 4.574219 Z M 20.886719 8.523438 C 20.109375 8.523438 19.476562 7.890625 19.476562 7.113281 C 19.476562 6.335938 20.109375 5.703125 20.886719 5.703125 C 21.664062 5.703125 22.296875 6.335938 22.296875 7.113281 C 22.296875 7.890625 21.664062 8.523438 20.886719 8.523438 Z M 20.886719 8.523438 "/>
</g>
</svg>
