<?xml version="1.0" encoding="UTF-8"?>
<svg xmlns="http://www.w3.org/2000/svg" xmlns:xlink="http://www.w3.org/1999/xlink" width="28pt" height="28pt" viewBox="0 0 28 28" version="1.1">
<g id="surface1">
<path style=" stroke:none;fill-rule:nonzero;fill:rgb(0%,0%,0%);fill-opacity:1;" d="M 26.46875 18.300781 C 25.074219 16.90625 23.023438 16.421875 21.164062 17.027344 L 17.195312 13.058594 L 21.894531 8.359375 L 24.882812 6.6875 C 24.96875 6.640625 25.035156 6.570312 25.078125 6.484375 L 26.421875 3.800781 C 26.511719 3.617188 26.476562 3.394531 26.332031 3.25 L 24.652344 1.574219 C 24.507812 1.429688 24.289062 1.390625 24.105469 1.484375 L 21.417969 2.828125 C 21.332031 2.871094 21.261719 2.9375 21.214844 3.019531 L 19.546875 6.007812 L 14.847656 10.707031 L 11.074219 6.933594 C 11.675781 5.074219 11.191406 3.023438 9.796875 1.628906 C 8.328125 0.160156 6.128906 -0.300781 4.195312 0.460938 C 4.046875 0.515625 3.9375 0.648438 3.902344 0.804688 C 3.871094 0.960938 3.917969 1.125 4.03125 1.238281 L 7.054688 4.257812 L 5.039062 6.273438 L 2.015625 3.25 C 1.902344 3.136719 1.742188 3.089844 1.585938 3.121094 C 1.425781 3.15625 1.296875 3.265625 1.238281 3.414062 C 0.480469 5.347656 0.941406 7.546875 2.410156 9.015625 C 3.804688 10.410156 5.855469 10.894531 7.714844 10.292969 L 11.488281 14.066406 L 10.945312 14.609375 L 9.601562 13.265625 C 9.484375 13.152344 9.316406 13.101562 9.15625 13.140625 C 8.996094 13.179688 8.867188 13.296875 8.816406 13.453125 L 8.199219 15.300781 L 3.332031 18.238281 C 3.289062 18.265625 3.253906 18.296875 3.21875 18.335938 L 0.71875 21.234375 C -0.296875 22.410156 -0.226562 24.257812 0.871094 25.351562 L 2.550781 27.035156 C 3.125 27.609375 3.910156 27.902344 4.691406 27.902344 C 5.402344 27.902344 6.113281 27.660156 6.671875 27.175781 L 9.628906 24.613281 C 9.667969 24.582031 9.699219 24.542969 9.726562 24.5 L 12.605469 19.707031 L 14.453125 19.089844 C 14.609375 19.039062 14.726562 18.910156 14.765625 18.75 C 14.800781 18.589844 14.753906 18.417969 14.636719 18.304688 L 13.292969 16.960938 L 13.839844 16.414062 L 17.804688 20.382812 C 17.203125 22.242188 17.6875 24.292969 19.082031 25.6875 C 20.082031 26.6875 21.417969 27.21875 22.777344 27.21875 C 23.417969 27.21875 24.066406 27.101562 24.683594 26.859375 C 24.832031 26.800781 24.941406 26.671875 24.976562 26.515625 C 25.007812 26.355469 24.960938 26.195312 24.847656 26.082031 L 21.824219 23.058594 L 23.839844 21.046875 L 26.863281 24.066406 C 26.976562 24.179688 27.136719 24.226562 27.292969 24.195312 C 27.449219 24.164062 27.582031 24.054688 27.640625 23.902344 C 28.398438 21.96875 27.9375 19.769531 26.46875 18.300781 Z M 8.175781 9.40625 C 8.039062 9.273438 7.839844 9.234375 7.664062 9.300781 C 6.082031 9.921875 4.28125 9.546875 3.082031 8.34375 C 2.058594 7.324219 1.636719 5.871094 1.910156 4.488281 L 4.703125 7.28125 C 4.886719 7.464844 5.1875 7.464844 5.375 7.28125 L 8.058594 4.59375 C 8.246094 4.40625 8.246094 4.105469 8.058594 3.921875 L 5.269531 1.128906 C 6.652344 0.855469 8.105469 1.28125 9.125 2.300781 C 10.328125 3.503906 10.703125 5.300781 10.082031 6.882812 C 10.011719 7.058594 10.054688 7.261719 10.1875 7.394531 L 14.175781 11.378906 L 12.160156 13.394531 Z M 13.421875 18.429688 L 12.136719 18.859375 C 12.03125 18.894531 11.9375 18.96875 11.878906 19.066406 L 8.949219 23.945312 L 6.050781 26.460938 C 5.242188 27.160156 3.976562 27.117188 3.222656 26.363281 L 1.539062 24.679688 C 0.789062 23.929688 0.742188 22.660156 1.4375 21.855469 L 3.890625 19.011719 L 8.839844 16.023438 C 8.9375 15.964844 9.007812 15.875 9.042969 15.765625 L 9.472656 14.480469 L 10.609375 15.617188 L 12.285156 17.296875 Z M 12.621094 16.289062 L 11.617188 15.28125 L 20.261719 6.632812 C 20.292969 6.601562 20.320312 6.566406 20.34375 6.53125 L 21.972656 3.609375 L 24.222656 2.484375 L 25.417969 3.679688 L 24.292969 5.929688 L 21.375 7.5625 C 21.335938 7.582031 21.300781 7.609375 21.269531 7.640625 Z M 26.96875 22.832031 L 24.175781 20.039062 C 23.992188 19.851562 23.691406 19.851562 23.503906 20.039062 L 20.820312 22.726562 C 20.730469 22.8125 20.679688 22.933594 20.679688 23.058594 C 20.679688 23.1875 20.730469 23.308594 20.820312 23.394531 L 23.609375 26.1875 C 22.226562 26.460938 20.773438 26.039062 19.753906 25.015625 C 18.550781 23.816406 18.175781 22.015625 18.796875 20.433594 C 18.867188 20.257812 18.824219 20.058594 18.691406 19.925781 L 14.511719 15.746094 L 16.523438 13.730469 L 20.703125 17.910156 C 20.839844 18.042969 21.039062 18.085938 21.214844 18.015625 C 22.796875 17.394531 24.597656 17.773438 25.796875 18.972656 C 26.820312 19.996094 27.242188 21.445312 26.96875 22.832031 Z M 26.96875 22.832031 "/>
</g>
</svg>
