<?xml version="1.0" encoding="UTF-8"?>
<svg xmlns="http://www.w3.org/2000/svg" xmlns:xlink="http://www.w3.org/1999/xlink" width="28pt" height="28pt" viewBox="0 0 28 28" version="1.1">
<g id="surface1">
<path style=" stroke:none;fill-rule:nonzero;fill:rgb(0%,0%,0%);fill-opacity:1;" d="M 28 11.917969 C 28 11.285156 27.484375 10.769531 26.851562 10.769531 L 24.492188 10.769531 C 24.289062 10.105469 24.019531 9.46875 23.699219 8.863281 L 25.371094 7.195312 C 25.585938 6.976562 25.707031 6.6875 25.707031 6.382812 C 25.707031 6.078125 25.585938 5.785156 25.371094 5.570312 L 22.425781 2.628906 C 21.980469 2.179688 21.253906 2.179688 20.804688 2.628906 L 19.132812 4.300781 C 18.527344 3.980469 17.890625 3.710938 17.226562 3.507812 L 17.226562 1.148438 C 17.226562 0.515625 16.714844 0 16.078125 0 L 11.921875 0 C 11.285156 0 10.773438 0.515625 10.773438 1.148438 L 10.773438 3.507812 C 10.105469 3.710938 9.46875 3.980469 8.867188 4.300781 L 7.195312 2.628906 C 6.746094 2.179688 6.019531 2.179688 5.570312 2.628906 L 2.628906 5.570312 C 2.183594 6.019531 2.183594 6.746094 2.628906 7.195312 L 4.300781 8.863281 C 3.980469 9.46875 3.710938 10.105469 3.507812 10.769531 L 1.148438 10.769531 C 0.515625 10.769531 0 11.285156 0 11.917969 L 0 16.078125 C 0 16.714844 0.515625 17.226562 1.148438 17.226562 L 3.507812 17.226562 C 3.710938 17.890625 3.980469 18.527344 4.300781 19.132812 L 2.628906 20.804688 C 2.179688 21.25 2.179688 21.980469 2.628906 22.425781 L 5.570312 25.367188 C 6.019531 25.816406 6.746094 25.816406 7.195312 25.367188 L 8.863281 23.699219 C 9.46875 24.019531 10.105469 24.289062 10.773438 24.492188 L 10.773438 26.851562 C 10.773438 27.484375 11.285156 28 11.921875 28 L 16.078125 28 C 16.714844 28 17.226562 27.484375 17.226562 26.851562 L 17.226562 24.492188 C 17.894531 24.289062 18.53125 24.019531 19.136719 23.699219 L 20.804688 25.371094 C 21.019531 25.585938 21.3125 25.707031 21.617188 25.707031 C 21.921875 25.707031 22.214844 25.585938 22.429688 25.371094 L 25.371094 22.429688 C 25.816406 21.980469 25.816406 21.253906 25.371094 20.804688 L 23.699219 19.132812 C 24.019531 18.53125 24.289062 17.890625 24.492188 17.226562 L 26.851562 17.226562 C 27.15625 17.226562 27.449219 17.105469 27.664062 16.890625 C 27.878906 16.675781 28 16.382812 28 16.078125 Z M 14 21.285156 C 9.980469 21.285156 6.714844 18.019531 6.714844 14 C 6.714844 9.984375 9.980469 6.714844 14 6.714844 C 18.015625 6.714844 21.285156 9.984375 21.285156 14 C 21.285156 18.019531 18.015625 21.285156 14 21.285156 Z M 14 21.285156 "/>
<path style=" stroke:none;fill-rule:nonzero;fill:rgb(0%,0%,0%);fill-opacity:1;" d="M 14 8.582031 C 11.011719 8.582031 8.582031 11.011719 8.582031 14 C 8.582031 16.988281 11.011719 19.417969 14 19.417969 C 16.988281 19.417969 19.417969 16.988281 19.417969 14 C 19.417969 11.011719 16.988281 8.582031 14 8.582031 Z M 14 8.582031 "/>
</g>
</svg>
