<?xml version="1.0" encoding="UTF-8"?>
<svg xmlns="http://www.w3.org/2000/svg" xmlns:xlink="http://www.w3.org/1999/xlink" width="28pt" height="28pt" viewBox="0 0 28 28" version="1.1">
<g id="surface1">
<path style=" stroke:none;fill-rule:nonzero;fill:rgb(0%,0%,0%);fill-opacity:1;" d="M 11.609375 20.078125 L 6.925781 27.242188 C 6.925781 27.242188 3.347656 26.445312 1.269531 22.847656 C -0.804688 19.25 0.289062 15.746094 0.289062 15.746094 L 8.832031 15.269531 C 8.863281 16.207031 9.117188 17.152344 9.617188 18.023438 C 10.121094 18.890625 10.8125 19.582031 11.609375 20.078125 Z M 27.699219 15.636719 L 19.152344 15.160156 C 19.125 16.097656 18.871094 17.042969 18.367188 17.914062 C 17.867188 18.78125 17.175781 19.472656 16.378906 19.96875 L 21.0625 27.132812 C 21.0625 27.132812 24.644531 26.324219 26.722656 22.726562 C 28.796875 19.132812 27.699219 15.636719 27.699219 15.636719 Z M 13.898438 10.390625 C 14.902344 10.390625 15.847656 10.644531 16.675781 11.085938 L 20.535156 3.445312 C 20.535156 3.445312 18.046875 0.75 13.894531 0.75 C 9.738281 0.75 7.261719 3.445312 7.261719 3.445312 L 11.125 11.085938 C 11.949219 10.644531 12.894531 10.390625 13.898438 10.390625 Z M 13.898438 12.242188 C 12.226562 12.242188 10.867188 13.597656 10.867188 15.269531 C 10.867188 16.945312 12.226562 18.300781 13.898438 18.300781 C 15.574219 18.300781 16.929688 16.945312 16.929688 15.269531 C 16.929688 13.597656 15.570312 12.242188 13.898438 12.242188 Z M 13.898438 12.242188 "/>
</g>
</svg>
