<?xml version="1.0" encoding="UTF-8"?>
<svg xmlns="http://www.w3.org/2000/svg" xmlns:xlink="http://www.w3.org/1999/xlink" width="28pt" height="28pt" viewBox="0 0 28 28" version="1.1">
<g id="surface1">
<path style=" stroke:none;fill-rule:nonzero;fill:rgb(0%,0%,0%);fill-opacity:1;" d="M 4.628906 14.65625 L 8.433594 14.65625 C 7.683594 13.179688 6.402344 11.285156 4.226562 9.273438 C 3.804688 8.882812 3.234375 8.65625 2.664062 8.65625 C 2.066406 8.65625 1.480469 8.886719 0.921875 9.347656 C -0.820312 10.773438 0.367188 12.535156 0.773438 13.042969 C 1.308594 13.710938 1.867188 14.652344 2.363281 15.773438 C 2.886719 15.09375 3.707031 14.65625 4.628906 14.65625 Z M 4.628906 14.65625 "/>
<path style=" stroke:none;fill-rule:nonzero;fill:rgb(0%,0%,0%);fill-opacity:1;" d="M 27.078125 9.347656 C 26.519531 8.886719 25.933594 8.65625 25.335938 8.65625 C 24.765625 8.65625 24.195312 8.882812 23.773438 9.273438 C 21.597656 11.285156 20.316406 13.179688 19.566406 14.65625 L 23.371094 14.65625 C 24.292969 14.65625 25.113281 15.09375 25.636719 15.773438 C 26.132812 14.652344 26.691406 13.710938 27.226562 13.042969 C 27.632812 12.535156 28.820312 10.773438 27.078125 9.347656 Z M 27.078125 9.347656 "/>
<path style=" stroke:none;fill-rule:nonzero;fill:rgb(0%,0%,0%);fill-opacity:1;" d="M 25.050781 21.296875 L 25.050781 17.511719 C 25.050781 16.585938 24.296875 15.832031 23.371094 15.832031 L 4.628906 15.832031 C 3.703125 15.832031 2.949219 16.585938 2.949219 17.511719 L 2.949219 21.296875 C 2.949219 22.222656 3.703125 22.976562 4.628906 22.976562 L 23.371094 22.976562 C 24.296875 22.976562 25.050781 22.222656 25.050781 21.296875 Z M 25.050781 21.296875 "/>
<path style=" stroke:none;fill-rule:nonzero;fill:rgb(0%,0%,0%);fill-opacity:1;" d="M 21.257812 24.152344 L 21.535156 26.351562 L 22.949219 26.351562 L 23.226562 24.152344 Z M 21.257812 24.152344 "/>
<path style=" stroke:none;fill-rule:nonzero;fill:rgb(0%,0%,0%);fill-opacity:1;" d="M 4.773438 24.152344 L 5.050781 26.351562 L 6.464844 26.351562 L 6.742188 24.152344 Z M 4.773438 24.152344 "/>
<path style=" stroke:none;fill-rule:nonzero;fill:rgb(0%,0%,0%);fill-opacity:1;" d="M 18.253906 14.65625 C 19.058594 12.90625 20.476562 10.722656 22.972656 8.410156 C 23.328125 8.085938 23.734375 7.839844 24.175781 7.683594 C 22.59375 4.15625 18.628906 1.648438 14 1.648438 C 9.371094 1.648438 5.40625 4.15625 3.824219 7.683594 C 4.265625 7.839844 4.671875 8.085938 5.027344 8.410156 C 7.523438 10.722656 8.941406 12.90625 9.746094 14.65625 Z M 18.253906 14.65625 "/>
</g>
</svg>
