<?xml version="1.0" encoding="UTF-8"?>
<svg xmlns="http://www.w3.org/2000/svg" xmlns:xlink="http://www.w3.org/1999/xlink" width="28pt" height="28pt" viewBox="0 0 28 28" version="1.1">
<g id="surface1">
<path style=" stroke:none;fill-rule:nonzero;fill:rgb(0%,0%,0%);fill-opacity:1;" d="M 25.667969 8.867188 L 25.199219 8.867188 L 25.199219 5.601562 C 25.199219 4.3125 24.15625 3.269531 22.867188 3.265625 L 5.132812 3.265625 C 3.84375 3.269531 2.800781 4.3125 2.800781 5.601562 L 2.800781 8.867188 L 2.332031 8.867188 C 1.046875 8.867188 0 9.910156 0 11.199219 L 0 18.667969 C 0 19.953125 1.046875 21 2.332031 21 L 2.800781 21 L 2.800781 24.265625 C 2.800781 24.523438 3.007812 24.734375 3.265625 24.734375 L 4.199219 24.734375 C 4.394531 24.734375 4.570312 24.613281 4.636719 24.429688 L 5.921875 21 L 22.078125 21 L 23.363281 24.429688 C 23.429688 24.613281 23.605469 24.734375 23.800781 24.734375 L 24.734375 24.734375 C 24.992188 24.734375 25.199219 24.523438 25.199219 24.265625 L 25.199219 21 L 25.667969 21 C 26.953125 21 28 19.953125 28 18.667969 L 28 11.199219 C 28 9.910156 26.953125 8.867188 25.667969 8.867188 Z M 3.734375 5.601562 C 3.734375 4.828125 4.359375 4.199219 5.132812 4.199219 L 22.867188 4.199219 C 23.640625 4.199219 24.265625 4.828125 24.265625 5.601562 L 24.265625 8.867188 L 22.867188 8.867188 C 22.609375 8.867188 22.398438 9.074219 22.398438 9.332031 L 22.398438 14.464844 L 5.601562 14.464844 L 5.601562 9.332031 C 5.601562 9.074219 5.390625 8.867188 5.132812 8.867188 L 3.734375 8.867188 Z M 0.933594 11.199219 C 0.933594 10.425781 1.558594 9.800781 2.332031 9.800781 L 4.667969 9.800781 L 4.667969 14.464844 L 0.933594 14.464844 Z M 3.875 23.800781 L 3.734375 23.800781 L 3.734375 21 L 4.925781 21 Z M 24.265625 23.800781 L 24.125 23.800781 L 23.074219 21 L 24.265625 21 Z M 27.066406 18.667969 C 27.066406 19.441406 26.441406 20.066406 25.667969 20.066406 L 2.332031 20.066406 C 1.558594 20.066406 0.933594 19.441406 0.933594 18.667969 L 0.933594 15.398438 L 27.066406 15.398438 Z M 27.066406 14.464844 L 23.332031 14.464844 L 23.332031 9.800781 L 25.667969 9.800781 C 26.441406 9.800781 27.066406 10.425781 27.066406 11.199219 Z M 27.066406 14.464844 "/>
<path style=" stroke:none;fill-rule:nonzero;fill:rgb(0%,0%,0%);fill-opacity:1;" d="M 2.332031 19.132812 L 21.933594 19.132812 C 22.191406 19.132812 22.398438 18.925781 22.398438 18.667969 C 22.398438 18.410156 22.191406 18.199219 21.933594 18.199219 L 2.332031 18.199219 C 2.074219 18.199219 1.867188 18.410156 1.867188 18.667969 C 1.867188 18.925781 2.074219 19.132812 2.332031 19.132812 Z M 2.332031 19.132812 "/>
<path style=" stroke:none;fill-rule:nonzero;fill:rgb(0%,0%,0%);fill-opacity:1;" d="M 23.800781 19.132812 L 25.667969 19.132812 C 25.925781 19.132812 26.132812 18.925781 26.132812 18.667969 C 26.132812 18.410156 25.925781 18.199219 25.667969 18.199219 L 23.800781 18.199219 C 23.542969 18.199219 23.332031 18.410156 23.332031 18.667969 C 23.332031 18.925781 23.542969 19.132812 23.800781 19.132812 Z M 23.800781 19.132812 "/>
</g>
</svg>
