<?xml version="1.0" encoding="UTF-8"?>
<svg xmlns="http://www.w3.org/2000/svg" xmlns:xlink="http://www.w3.org/1999/xlink" width="28pt" height="28pt" viewBox="0 0 28 28" version="1.1">
<g id="surface1">
<path style=" stroke:none;fill-rule:nonzero;fill:rgb(0%,0%,0%);fill-opacity:1;" d="M 14.09375 28 C 13.945312 28 13.824219 27.878906 13.824219 27.730469 L 13.824219 23.15625 C 13.824219 23.007812 13.945312 22.886719 14.09375 22.886719 C 14.242188 22.886719 14.363281 23.007812 14.363281 23.15625 L 14.363281 27.730469 C 14.363281 27.878906 14.242188 28 14.09375 28 Z M 5.917969 24.890625 C 5.847656 24.890625 5.78125 24.863281 5.726562 24.8125 C 5.621094 24.707031 5.621094 24.539062 5.726562 24.433594 L 9.277344 20.882812 C 9.382812 20.777344 9.554688 20.777344 9.660156 20.882812 C 9.761719 20.984375 9.761719 21.15625 9.660156 21.261719 L 6.109375 24.8125 C 6.054688 24.863281 5.984375 24.890625 5.917969 24.890625 Z M 19.613281 23.230469 C 19.375 23.230469 19.140625 23.136719 18.964844 22.960938 L 15.75 19.746094 C 14.457031 19.914062 13.148438 19.472656 12.222656 18.550781 C 11.300781 17.625 10.859375 16.316406 11.027344 15.023438 L 7.8125 11.808594 C 7.542969 11.539062 7.46875 11.144531 7.617188 10.796875 C 7.765625 10.449219 8.109375 10.230469 8.484375 10.242188 L 13.503906 10.382812 L 17.710938 6.171875 C 18.121094 5.761719 18.675781 5.554688 19.246094 5.585938 L 19.246094 0.269531 C 19.246094 0.121094 19.367188 0 19.515625 0 L 20.996094 0 C 21.144531 0 21.265625 0.121094 21.265625 0.269531 L 21.265625 6.867188 L 22.652344 8.253906 L 23.527344 7.378906 C 24.097656 6.808594 24.410156 6.050781 24.410156 5.242188 C 24.410156 4.4375 24.097656 3.679688 23.527344 3.109375 C 22.921875 2.503906 22.589844 1.703125 22.589844 0.847656 L 22.589844 0.269531 C 22.589844 0.121094 22.710938 0 22.859375 0 C 23.007812 0 23.128906 0.121094 23.128906 0.269531 L 23.128906 0.847656 C 23.128906 1.558594 23.402344 2.226562 23.90625 2.726562 C 24.578125 3.398438 24.949219 4.292969 24.949219 5.242188 C 24.949219 6.195312 24.578125 7.085938 23.90625 7.757812 L 23.03125 8.632812 L 24.597656 10.203125 C 24.980469 10.585938 25.191406 11.09375 25.191406 11.632812 C 25.191406 12.171875 24.980469 12.679688 24.597656 13.0625 L 20.390625 17.269531 L 20.53125 22.289062 C 20.542969 22.664062 20.324219 23.007812 19.976562 23.15625 C 19.859375 23.207031 19.734375 23.230469 19.613281 23.230469 Z M 8.457031 10.777344 C 8.226562 10.777344 8.132812 10.953125 8.109375 11.007812 C 8.085938 11.0625 8.023438 11.257812 8.191406 11.425781 L 19.34375 22.582031 C 19.515625 22.75 19.707031 22.6875 19.765625 22.660156 C 19.820312 22.636719 20 22.542969 19.992188 22.300781 L 19.855469 17.273438 L 13.496094 10.917969 L 8.46875 10.777344 C 8.464844 10.777344 8.460938 10.777344 8.457031 10.777344 Z M 11.53125 15.527344 C 11.519531 16.507812 11.902344 17.464844 12.601562 18.167969 C 13.296875 18.863281 14.238281 19.242188 15.203125 19.242188 C 15.21875 19.242188 15.230469 19.242188 15.246094 19.242188 Z M 13.992188 10.652344 L 20.121094 16.78125 L 24.21875 12.679688 C 24.5 12.402344 24.652344 12.027344 24.652344 11.632812 C 24.652344 11.234375 24.5 10.863281 24.21875 10.582031 L 21.265625 7.628906 L 21.265625 10.28125 C 21.265625 10.832031 20.816406 11.277344 20.265625 11.277344 L 20.246094 11.277344 C 19.695312 11.277344 19.246094 10.832031 19.246094 10.28125 L 19.246094 6.125 C 18.820312 6.089844 18.398438 6.246094 18.089844 6.554688 Z M 20.253906 10.742188 C 20.515625 10.742188 20.726562 10.53125 20.726562 10.269531 L 20.726562 0.539062 L 19.785156 0.539062 L 19.785156 10.269531 C 19.785156 10.53125 19.996094 10.742188 20.253906 10.742188 Z M 7.652344 16.445312 L 3.078125 16.445312 C 2.929688 16.445312 2.808594 16.324219 2.808594 16.175781 C 2.808594 16.027344 2.929688 15.90625 3.078125 15.90625 L 7.652344 15.90625 C 7.800781 15.90625 7.921875 16.027344 7.921875 16.175781 C 7.921875 16.324219 7.800781 16.445312 7.652344 16.445312 Z M 20.253906 10.398438 C 20.109375 10.398438 19.988281 10.277344 19.988281 10.128906 L 19.988281 10.03125 C 19.988281 9.882812 20.109375 9.765625 20.253906 9.765625 C 20.402344 9.765625 20.523438 9.882812 20.523438 10.03125 L 20.523438 10.128906 C 20.523438 10.277344 20.402344 10.398438 20.253906 10.398438 Z M 20.253906 10.398438 "/>
</g>
</svg>
