<?xml version="1.0" encoding="UTF-8"?>
<svg xmlns="http://www.w3.org/2000/svg" xmlns:xlink="http://www.w3.org/1999/xlink" width="28pt" height="28pt" viewBox="0 0 28 28" version="1.1">
<g id="surface1">
<path style=" stroke:none;fill-rule:nonzero;fill:rgb(0%,0%,0%);fill-opacity:1;" d="M 26.769531 15.425781 L 27.667969 15.191406 L 27.257812 13.613281 L 26.390625 13.839844 L 26.09375 12.609375 C 25.773438 11.28125 24.78125 10.195312 23.488281 9.707031 L 23.488281 0 L 18.753906 0 L 18.753906 10.167969 L 12.378906 11.667969 L 6.898438 10.917969 L 7.738281 14.398438 C 6.546875 15.328125 5.851562 16.738281 5.851562 18.277344 C 5.851562 20.652344 7.558594 22.667969 9.835938 23.113281 L 10.695312 26.667969 L 15.230469 23.507812 L 23.960938 21.402344 C 26.175781 20.867188 27.542969 18.632812 27.011719 16.417969 Z M 20.386719 1.632812 L 21.859375 1.632812 L 21.859375 14 C 21.859375 14.40625 21.527344 14.738281 21.121094 14.738281 C 20.714844 14.738281 20.386719 14.40625 20.386719 14 Z M 7.484375 18.277344 C 7.484375 17.523438 7.734375 16.8125 8.183594 16.242188 L 9.390625 21.265625 C 8.261719 20.738281 7.484375 19.589844 7.484375 18.277344 Z M 11.71875 23.964844 L 9.042969 12.859375 L 11.757812 13.226562 L 13.964844 22.398438 Z M 23.578125 19.816406 L 15.492188 21.765625 L 13.402344 13.101562 L 18.753906 11.84375 L 18.753906 14 C 18.753906 15.308594 19.816406 16.367188 21.121094 16.367188 C 22.425781 16.367188 23.488281 15.308594 23.488281 14 L 23.488281 11.539062 C 23.992188 11.894531 24.367188 12.410156 24.507812 12.992188 L 25.425781 16.800781 C 25.746094 18.140625 24.921875 19.492188 23.578125 19.816406 Z M 23.578125 19.816406 "/>
<path style=" stroke:none;fill-rule:nonzero;fill:rgb(0%,0%,0%);fill-opacity:1;" d="M 0.328125 20.703125 L 3.554688 19.980469 L 3.914062 21.570312 L 0.6875 22.296875 Z M 0.328125 20.703125 "/>
<path style=" stroke:none;fill-rule:nonzero;fill:rgb(0%,0%,0%);fill-opacity:1;" d="M 4.566406 27.207031 L 6.265625 24.128906 L 7.691406 24.914062 L 5.996094 27.992188 Z M 4.566406 27.207031 "/>
<path style=" stroke:none;fill-rule:nonzero;fill:rgb(0%,0%,0%);fill-opacity:1;" d="M 0.578125 15.113281 L 1.28125 13.640625 L 4.417969 15.136719 L 3.714844 16.609375 Z M 0.578125 15.113281 "/>
</g>
</svg>
