<?xml version="1.0" encoding="UTF-8"?>
<svg xmlns="http://www.w3.org/2000/svg" xmlns:xlink="http://www.w3.org/1999/xlink" width="28pt" height="28pt" viewBox="0 0 28 28" version="1.1">
<g id="surface1">
<path style=" stroke:none;fill-rule:nonzero;fill:rgb(0%,0%,0%);fill-opacity:1;" d="M 2.738281 13.085938 L 0.914062 13.085938 C 0.410156 13.085938 0 13.496094 0 14 C 0 14.503906 0.410156 14.914062 0.914062 14.914062 L 2.738281 14.914062 C 3.242188 14.914062 3.652344 14.503906 3.652344 14 C 3.652344 13.496094 3.242188 13.085938 2.738281 13.085938 Z M 2.738281 13.085938 "/>
<path style=" stroke:none;fill-rule:nonzero;fill:rgb(0%,0%,0%);fill-opacity:1;" d="M 27.085938 13.085938 L 25.261719 13.085938 C 24.757812 13.085938 24.347656 13.496094 24.347656 14 C 24.347656 14.503906 24.757812 14.914062 25.261719 14.914062 L 27.085938 14.914062 C 27.589844 14.914062 28 14.503906 28 14 C 28 13.496094 27.589844 13.085938 27.085938 13.085938 Z M 27.085938 13.085938 "/>
<path style=" stroke:none;fill-rule:nonzero;fill:rgb(0%,0%,0%);fill-opacity:1;" d="M 14 24.347656 C 13.496094 24.347656 13.085938 24.757812 13.085938 25.261719 L 13.085938 27.085938 C 13.085938 27.589844 13.496094 28 14 28 C 14.503906 28 14.914062 27.589844 14.914062 27.085938 L 14.914062 25.261719 C 14.914062 24.757812 14.503906 24.347656 14 24.347656 Z M 14 24.347656 "/>
<path style=" stroke:none;fill-rule:nonzero;fill:rgb(0%,0%,0%);fill-opacity:1;" d="M 14 0 C 13.496094 0 13.085938 0.410156 13.085938 0.914062 L 13.085938 2.738281 C 13.085938 3.242188 13.496094 3.652344 14 3.652344 C 14.503906 3.652344 14.914062 3.242188 14.914062 2.738281 L 14.914062 0.914062 C 14.914062 0.410156 14.503906 0 14 0 Z M 14 0 "/>
<path style=" stroke:none;fill-rule:nonzero;fill:rgb(0%,0%,0%);fill-opacity:1;" d="M 21.335938 24.878906 L 20.421875 23.296875 C 20.167969 22.859375 19.609375 22.710938 19.175781 22.960938 C 18.738281 23.214844 18.585938 23.773438 18.839844 24.207031 L 19.753906 25.789062 C 20.003906 26.226562 20.5625 26.375 21 26.125 C 21.4375 25.871094 21.585938 25.3125 21.335938 24.878906 Z M 21.335938 24.878906 "/>
<path style=" stroke:none;fill-rule:nonzero;fill:rgb(0%,0%,0%);fill-opacity:1;" d="M 9.160156 3.792969 L 8.246094 2.210938 C 7.996094 1.773438 7.4375 1.625 7 1.875 C 6.5625 2.128906 6.414062 2.6875 6.664062 3.121094 L 7.578125 4.703125 C 7.832031 5.140625 8.390625 5.289062 8.824219 5.039062 C 9.261719 4.785156 9.414062 4.226562 9.160156 3.792969 Z M 9.160156 3.792969 "/>
<path style=" stroke:none;fill-rule:nonzero;fill:rgb(0%,0%,0%);fill-opacity:1;" d="M 25.789062 19.753906 L 24.207031 18.839844 C 23.773438 18.585938 23.214844 18.738281 22.960938 19.175781 C 22.710938 19.609375 22.859375 20.167969 23.296875 20.421875 L 24.878906 21.335938 C 25.3125 21.585938 25.871094 21.4375 26.125 21 C 26.375 20.5625 26.226562 20.003906 25.789062 19.753906 Z M 25.789062 19.753906 "/>
<path style=" stroke:none;fill-rule:nonzero;fill:rgb(0%,0%,0%);fill-opacity:1;" d="M 4.703125 7.578125 L 3.121094 6.664062 C 2.6875 6.414062 2.128906 6.5625 1.875 7 C 1.625 7.4375 1.773438 7.996094 2.210938 8.246094 L 3.792969 9.160156 C 4.226562 9.414062 4.785156 9.261719 5.039062 8.824219 C 5.289062 8.390625 5.140625 7.832031 4.703125 7.578125 Z M 4.703125 7.578125 "/>
<path style=" stroke:none;fill-rule:nonzero;fill:rgb(0%,0%,0%);fill-opacity:1;" d="M 26.125 7 C 25.871094 6.5625 25.3125 6.414062 24.878906 6.664062 L 23.296875 7.578125 C 22.859375 7.832031 22.710938 8.390625 22.960938 8.824219 C 23.214844 9.261719 23.773438 9.414062 24.207031 9.160156 L 25.789062 8.246094 C 26.226562 7.996094 26.375 7.4375 26.125 7 Z M 26.125 7 "/>
<path style=" stroke:none;fill-rule:nonzero;fill:rgb(0%,0%,0%);fill-opacity:1;" d="M 5.039062 19.175781 C 4.785156 18.738281 4.226562 18.585938 3.792969 18.839844 L 2.210938 19.753906 C 1.773438 20.003906 1.625 20.5625 1.875 21 C 2.128906 21.4375 2.6875 21.585938 3.121094 21.335938 L 4.703125 20.421875 C 5.140625 20.167969 5.289062 19.609375 5.039062 19.175781 Z M 5.039062 19.175781 "/>
<path style=" stroke:none;fill-rule:nonzero;fill:rgb(0%,0%,0%);fill-opacity:1;" d="M 21 1.875 C 20.5625 1.625 20.003906 1.773438 19.753906 2.210938 L 18.839844 3.792969 C 18.585938 4.226562 18.738281 4.785156 19.175781 5.039062 C 19.609375 5.289062 20.167969 5.140625 20.421875 4.703125 L 21.335938 3.121094 C 21.585938 2.6875 21.4375 2.128906 21 1.875 Z M 21 1.875 "/>
<path style=" stroke:none;fill-rule:nonzero;fill:rgb(0%,0%,0%);fill-opacity:1;" d="M 8.824219 22.960938 C 8.390625 22.710938 7.832031 22.859375 7.578125 23.296875 L 6.664062 24.878906 C 6.414062 25.3125 6.5625 25.871094 7 26.125 C 7.4375 26.375 7.996094 26.226562 8.246094 25.789062 L 9.160156 24.207031 C 9.414062 23.773438 9.261719 23.214844 8.824219 22.960938 Z M 8.824219 22.960938 "/>
<path style=" stroke:none;fill-rule:nonzero;fill:rgb(0%,0%,0%);fill-opacity:1;" d="M 14 5.476562 C 9.300781 5.476562 5.476562 9.300781 5.476562 14 C 5.476562 18.699219 9.300781 22.523438 14 22.523438 C 18.699219 22.523438 22.523438 18.699219 22.523438 14 C 22.523438 9.300781 18.699219 5.476562 14 5.476562 Z M 14 20.695312 C 10.308594 20.695312 7.304688 17.691406 7.304688 14 C 7.304688 10.308594 10.308594 7.304688 14 7.304688 C 17.691406 7.304688 20.695312 10.308594 20.695312 14 C 20.695312 17.691406 17.691406 20.695312 14 20.695312 Z M 14 20.695312 "/>
<path style=" stroke:none;fill-rule:nonzero;fill:rgb(0%,0%,0%);fill-opacity:1;" d="M 14 9.128906 C 11.316406 9.128906 9.128906 11.316406 9.128906 14 C 9.128906 14.503906 9.539062 14.914062 10.042969 14.914062 C 10.546875 14.914062 10.957031 14.503906 10.957031 14 C 10.957031 12.320312 12.320312 10.957031 14 10.957031 C 14.503906 10.957031 14.914062 10.546875 14.914062 10.042969 C 14.914062 9.539062 14.503906 9.128906 14 9.128906 Z M 14 9.128906 "/>
</g>
</svg>
