<?xml version="1.0" encoding="UTF-8"?>
<svg xmlns="http://www.w3.org/2000/svg" xmlns:xlink="http://www.w3.org/1999/xlink" width="28pt" height="28pt" viewBox="0 0 28 28" version="1.1">
<g id="surface1">
<path style=" stroke:none;fill-rule:nonzero;fill:rgb(0%,0%,0%);fill-opacity:1;" d="M 26.132812 6.527344 L 14.855469 6.527344 L 18.152344 1.207031 C 18.292969 0.972656 18.246094 0.695312 18.011719 0.554688 C 17.78125 0.414062 17.5 0.460938 17.359375 0.695312 L 13.992188 6.121094 L 10.171875 0.648438 C 10.035156 0.460938 9.753906 0.414062 9.519531 0.554688 C 9.332031 0.695312 9.285156 0.972656 9.425781 1.207031 L 13.136719 6.527344 L 1.867188 6.527344 C 0.839844 6.527344 0 7.367188 0 8.394531 L 0 24.261719 C 0 25.289062 0.839844 26.128906 1.867188 26.128906 L 2.332031 26.128906 L 2.332031 27.0625 C 2.332031 27.339844 2.519531 27.527344 2.800781 27.527344 C 3.078125 27.527344 3.265625 27.339844 3.265625 27.0625 L 3.265625 26.128906 L 24.734375 26.128906 L 24.734375 27.0625 C 24.734375 27.339844 24.917969 27.527344 25.199219 27.527344 C 25.480469 27.527344 25.667969 27.339844 25.667969 27.0625 L 25.667969 26.128906 L 26.132812 26.128906 C 27.160156 26.128906 28 25.289062 28 24.261719 L 28 8.394531 C 28 7.367188 27.160156 6.527344 26.132812 6.527344 Z M 27.066406 24.261719 C 27.066406 24.773438 26.648438 25.195312 26.132812 25.195312 L 1.867188 25.195312 C 1.351562 25.195312 0.933594 24.773438 0.933594 24.261719 L 0.933594 8.394531 C 0.933594 7.878906 1.351562 7.460938 1.867188 7.460938 L 26.132812 7.460938 C 26.648438 7.460938 27.066406 7.878906 27.066406 8.394531 Z M 27.066406 24.261719 "/>
<path style=" stroke:none;fill-rule:nonzero;fill:rgb(0%,0%,0%);fill-opacity:1;" d="M 17.734375 8.394531 L 4.667969 8.394531 C 3.125 8.394531 1.867188 9.652344 1.867188 11.195312 L 1.867188 21.460938 C 1.867188 23 3.125 24.261719 4.667969 24.261719 L 17.734375 24.261719 C 19.273438 24.261719 20.535156 23 20.535156 21.460938 L 20.535156 11.195312 C 20.535156 9.652344 19.273438 8.394531 17.734375 8.394531 Z M 19.601562 21.460938 C 19.601562 22.488281 18.761719 23.328125 17.734375 23.328125 L 4.667969 23.328125 C 3.640625 23.328125 2.800781 22.488281 2.800781 21.460938 L 2.800781 11.195312 C 2.800781 10.167969 3.640625 9.328125 4.667969 9.328125 L 17.734375 9.328125 C 18.761719 9.328125 19.601562 10.167969 19.601562 11.195312 Z M 19.601562 21.460938 "/>
<path style=" stroke:none;fill-rule:nonzero;fill:rgb(0%,0%,0%);fill-opacity:1;" d="M 25.667969 10.726562 L 21.933594 10.726562 C 21.652344 10.726562 21.464844 10.914062 21.464844 11.195312 C 21.464844 11.472656 21.652344 11.660156 21.933594 11.660156 L 25.667969 11.660156 C 25.945312 11.660156 26.132812 11.472656 26.132812 11.195312 C 26.132812 10.914062 25.945312 10.726562 25.667969 10.726562 Z M 25.667969 10.726562 "/>
<path style=" stroke:none;fill-rule:nonzero;fill:rgb(0%,0%,0%);fill-opacity:1;" d="M 25.667969 12.59375 L 21.933594 12.59375 C 21.652344 12.59375 21.464844 12.78125 21.464844 13.0625 C 21.464844 13.339844 21.652344 13.527344 21.933594 13.527344 L 25.667969 13.527344 C 25.945312 13.527344 26.132812 13.339844 26.132812 13.0625 C 26.132812 12.78125 25.945312 12.59375 25.667969 12.59375 Z M 25.667969 12.59375 "/>
<path style=" stroke:none;fill-rule:nonzero;fill:rgb(0%,0%,0%);fill-opacity:1;" d="M 25.667969 14.460938 L 21.933594 14.460938 C 21.652344 14.460938 21.464844 14.648438 21.464844 14.925781 C 21.464844 15.207031 21.652344 15.394531 21.933594 15.394531 L 25.667969 15.394531 C 25.945312 15.394531 26.132812 15.207031 26.132812 14.925781 C 26.132812 14.648438 25.945312 14.460938 25.667969 14.460938 Z M 25.667969 14.460938 "/>
<path style=" stroke:none;fill-rule:nonzero;fill:rgb(0%,0%,0%);fill-opacity:1;" d="M 25.667969 16.328125 L 21.933594 16.328125 C 21.652344 16.328125 21.464844 16.515625 21.464844 16.792969 L 21.464844 20.527344 C 21.464844 20.808594 21.652344 20.992188 21.933594 20.992188 L 25.667969 20.992188 C 25.945312 20.992188 26.132812 20.808594 26.132812 20.527344 L 26.132812 16.792969 C 26.132812 16.515625 25.945312 16.328125 25.667969 16.328125 Z M 25.199219 20.0625 L 22.398438 20.0625 L 22.398438 17.261719 L 25.199219 17.261719 Z M 25.199219 20.0625 "/>
<path style=" stroke:none;fill-rule:nonzero;fill:rgb(0%,0%,0%);fill-opacity:1;" d="M 5.738281 10.402344 L 3.875 12.265625 C 3.6875 12.453125 3.6875 12.734375 3.875 12.921875 C 3.964844 13.015625 4.058594 13.0625 4.199219 13.0625 C 4.339844 13.0625 4.433594 13.015625 4.527344 12.921875 L 6.394531 11.054688 C 6.578125 10.867188 6.578125 10.585938 6.394531 10.402344 C 6.207031 10.214844 5.925781 10.214844 5.738281 10.402344 Z M 5.738281 10.402344 "/>
<path style=" stroke:none;fill-rule:nonzero;fill:rgb(0%,0%,0%);fill-opacity:1;" d="M 4.339844 14.132812 L 3.875 14.601562 C 3.6875 14.789062 3.6875 15.066406 3.875 15.253906 C 3.964844 15.347656 4.058594 15.394531 4.199219 15.394531 C 4.339844 15.394531 4.433594 15.347656 4.527344 15.253906 L 4.992188 14.789062 C 5.179688 14.601562 5.179688 14.320312 4.992188 14.132812 C 4.804688 13.949219 4.527344 13.949219 4.339844 14.132812 Z M 4.339844 14.132812 "/>
<path style=" stroke:none;fill-rule:nonzero;fill:rgb(0%,0%,0%);fill-opacity:1;" d="M 8.539062 9.933594 L 7.140625 11.335938 C 6.953125 11.519531 6.953125 11.800781 7.140625 11.988281 C 7.234375 12.082031 7.328125 12.128906 7.464844 12.128906 C 7.605469 12.128906 7.699219 12.082031 7.792969 11.988281 L 9.191406 10.585938 C 9.378906 10.402344 9.378906 10.121094 9.191406 9.933594 C 9.007812 9.746094 8.726562 9.746094 8.539062 9.933594 Z M 8.539062 9.933594 "/>
<path style=" stroke:none;fill-rule:nonzero;fill:rgb(0%,0%,0%);fill-opacity:1;" d="M 6.066406 12.59375 C 5.785156 12.59375 5.601562 12.78125 5.601562 13.0625 C 5.601562 13.339844 5.785156 13.527344 6.066406 13.527344 C 6.347656 13.527344 6.535156 13.339844 6.535156 13.0625 C 6.535156 12.78125 6.347656 12.59375 6.066406 12.59375 Z M 6.066406 12.59375 "/>
</g>
</svg>
