<?xml version="1.0" encoding="UTF-8"?>
<svg xmlns="http://www.w3.org/2000/svg" xmlns:xlink="http://www.w3.org/1999/xlink" width="28pt" height="28pt" viewBox="0 0 28 28" version="1.1">
<g id="surface1">
<path style=" stroke:none;fill-rule:nonzero;fill:rgb(0%,0%,0%);fill-opacity:1;" d="M 12.832031 2.917969 C 12.832031 1.308594 11.523438 0 9.917969 0 C 8.308594 0 7 1.308594 7 2.917969 L 7 21.078125 C 6.253906 21.839844 5.832031 22.859375 5.832031 23.917969 C 5.832031 26.167969 7.664062 28 9.917969 28 C 12.167969 28 14 26.167969 14 23.917969 C 14 22.859375 13.578125 21.839844 12.832031 21.078125 Z M 9.917969 26.832031 C 8.308594 26.832031 7 25.523438 7 23.917969 C 7 23.089844 7.347656 22.324219 7.972656 21.757812 C 8.097656 21.648438 8.167969 21.488281 8.167969 21.324219 L 8.167969 2.917969 C 8.167969 1.953125 8.953125 1.167969 9.917969 1.167969 C 10.882812 1.167969 11.667969 1.953125 11.667969 2.917969 L 11.667969 21.324219 C 11.667969 21.488281 11.738281 21.648438 11.859375 21.757812 C 12.488281 22.324219 12.832031 23.089844 12.832031 23.917969 C 12.832031 25.523438 11.523438 26.832031 9.917969 26.832031 Z M 9.917969 26.832031 "/>
<path style=" stroke:none;fill-rule:nonzero;fill:rgb(0%,0%,0%);fill-opacity:1;" d="M 10.5 22.273438 L 10.5 12.25 C 10.5 11.925781 10.238281 11.667969 9.917969 11.667969 C 9.59375 11.667969 9.332031 11.925781 9.332031 12.25 L 9.332031 22.273438 C 8.65625 22.515625 8.167969 23.15625 8.167969 23.917969 C 8.167969 24.882812 8.953125 25.667969 9.917969 25.667969 C 10.882812 25.667969 11.667969 24.882812 11.667969 23.917969 C 11.667969 23.15625 11.175781 22.515625 10.5 22.273438 Z M 9.917969 24.5 C 9.59375 24.5 9.332031 24.238281 9.332031 23.917969 C 9.332031 23.59375 9.59375 23.332031 9.917969 23.332031 C 10.238281 23.332031 10.5 23.59375 10.5 23.917969 C 10.5 24.238281 10.238281 24.5 9.917969 24.5 Z M 9.917969 24.5 "/>
<path style=" stroke:none;fill-rule:nonzero;fill:rgb(0%,0%,0%);fill-opacity:1;" d="M 5.25 18.667969 L 1.75 18.667969 C 1.425781 18.667969 1.167969 18.925781 1.167969 19.25 C 1.167969 19.574219 1.425781 19.832031 1.75 19.832031 L 5.25 19.832031 C 5.574219 19.832031 5.832031 19.574219 5.832031 19.25 C 5.832031 18.925781 5.574219 18.667969 5.25 18.667969 Z M 5.25 18.667969 "/>
<path style=" stroke:none;fill-rule:nonzero;fill:rgb(0%,0%,0%);fill-opacity:1;" d="M 5.25 16.332031 L 4.082031 16.332031 C 3.761719 16.332031 3.5 16.59375 3.5 16.917969 C 3.5 17.238281 3.761719 17.5 4.082031 17.5 L 5.25 17.5 C 5.574219 17.5 5.832031 17.238281 5.832031 16.917969 C 5.832031 16.59375 5.574219 16.332031 5.25 16.332031 Z M 5.25 16.332031 "/>
<path style=" stroke:none;fill-rule:nonzero;fill:rgb(0%,0%,0%);fill-opacity:1;" d="M 5.25 14 L 4.082031 14 C 3.761719 14 3.5 14.261719 3.5 14.582031 C 3.5 14.90625 3.761719 15.167969 4.082031 15.167969 L 5.25 15.167969 C 5.574219 15.167969 5.832031 14.90625 5.832031 14.582031 C 5.832031 14.261719 5.574219 14 5.25 14 Z M 5.25 14 "/>
<path style=" stroke:none;fill-rule:nonzero;fill:rgb(0%,0%,0%);fill-opacity:1;" d="M 1.75 12.832031 L 5.25 12.832031 C 5.574219 12.832031 5.832031 12.574219 5.832031 12.25 C 5.832031 11.925781 5.574219 11.667969 5.25 11.667969 L 1.75 11.667969 C 1.425781 11.667969 1.167969 11.925781 1.167969 12.25 C 1.167969 12.574219 1.425781 12.832031 1.75 12.832031 Z M 1.75 12.832031 "/>
<path style=" stroke:none;fill-rule:nonzero;fill:rgb(0%,0%,0%);fill-opacity:1;" d="M 1.75 5.832031 L 5.25 5.832031 C 5.574219 5.832031 5.832031 5.574219 5.832031 5.25 C 5.832031 4.925781 5.574219 4.667969 5.25 4.667969 L 1.75 4.667969 C 1.425781 4.667969 1.167969 4.925781 1.167969 5.25 C 1.167969 5.574219 1.425781 5.832031 1.75 5.832031 Z M 1.75 5.832031 "/>
<path style=" stroke:none;fill-rule:nonzero;fill:rgb(0%,0%,0%);fill-opacity:1;" d="M 5.25 9.332031 L 4.082031 9.332031 C 3.761719 9.332031 3.5 9.59375 3.5 9.917969 C 3.5 10.238281 3.761719 10.5 4.082031 10.5 L 5.25 10.5 C 5.574219 10.5 5.832031 10.238281 5.832031 9.917969 C 5.832031 9.59375 5.574219 9.332031 5.25 9.332031 Z M 5.25 9.332031 "/>
<path style=" stroke:none;fill-rule:nonzero;fill:rgb(0%,0%,0%);fill-opacity:1;" d="M 5.25 7 L 4.082031 7 C 3.761719 7 3.5 7.261719 3.5 7.582031 C 3.5 7.90625 3.761719 8.167969 4.082031 8.167969 L 5.25 8.167969 C 5.574219 8.167969 5.832031 7.90625 5.832031 7.582031 C 5.832031 7.261719 5.574219 7 5.25 7 Z M 5.25 7 "/>
<path style=" stroke:none;fill-rule:nonzero;fill:rgb(0%,0%,0%);fill-opacity:1;" d="M 18.082031 9.332031 L 19.25 9.332031 C 20.214844 9.332031 21 10.117188 21 11.082031 C 21 11.40625 21.261719 11.667969 21.582031 11.667969 C 21.90625 11.667969 22.167969 11.40625 22.167969 11.082031 C 22.167969 9.476562 20.859375 8.167969 19.25 8.167969 L 18.082031 8.167969 C 16.476562 8.167969 15.167969 9.476562 15.167969 11.082031 L 15.167969 15.75 C 15.167969 17.359375 16.476562 18.667969 18.082031 18.667969 L 19.25 18.667969 C 20.859375 18.667969 22.167969 17.359375 22.167969 15.75 C 22.167969 15.425781 21.90625 15.167969 21.582031 15.167969 C 21.261719 15.167969 21 15.425781 21 15.75 C 21 16.714844 20.214844 17.5 19.25 17.5 L 18.082031 17.5 C 17.117188 17.5 16.332031 16.714844 16.332031 15.75 L 16.332031 11.082031 C 16.332031 10.117188 17.117188 9.332031 18.082031 9.332031 Z M 18.082031 9.332031 "/>
<path style=" stroke:none;fill-rule:nonzero;fill:rgb(0%,0%,0%);fill-opacity:1;" d="M 25.082031 8.167969 C 24.117188 8.167969 23.332031 8.953125 23.332031 9.917969 C 23.332031 10.882812 24.117188 11.667969 25.082031 11.667969 C 26.046875 11.667969 26.832031 10.882812 26.832031 9.917969 C 26.832031 8.953125 26.046875 8.167969 25.082031 8.167969 Z M 25.082031 10.5 C 24.761719 10.5 24.5 10.238281 24.5 9.917969 C 24.5 9.59375 24.761719 9.332031 25.082031 9.332031 C 25.40625 9.332031 25.667969 9.59375 25.667969 9.917969 C 25.667969 10.238281 25.40625 10.5 25.082031 10.5 Z M 25.082031 10.5 "/>
</g>
</svg>
