<?xml version="1.0" encoding="UTF-8"?>
<svg xmlns="http://www.w3.org/2000/svg" xmlns:xlink="http://www.w3.org/1999/xlink" width="28pt" height="28pt" viewBox="0 0 28 28" version="1.1">
<g id="surface1">
<path style=" stroke:none;fill-rule:nonzero;fill:rgb(0%,0%,0%);fill-opacity:1;" d="M 16.441406 15.433594 L 16.441406 3.671875 C 16.441406 1.644531 14.796875 0 12.769531 0 C 10.742188 0 9.097656 1.644531 9.097656 3.671875 L 9.097656 15.425781 C 5.921875 17.453125 4.988281 21.667969 7.015625 24.84375 C 8.265625 26.800781 10.425781 27.992188 12.75 27.996094 L 12.789062 28 C 16.554688 27.992188 19.601562 24.933594 19.59375 21.167969 C 19.589844 18.84375 18.402344 16.683594 16.441406 15.433594 Z M 9.902344 26.183594 C 7.136719 24.589844 6.1875 21.054688 7.785156 18.289062 C 8.292969 17.410156 9.023438 16.679688 9.902344 16.171875 C 10.0625 16.078125 10.164062 15.90625 10.160156 15.71875 L 10.160156 3.671875 C 10.160156 2.222656 11.339844 1.042969 12.789062 1.042969 C 14.242188 1.042969 15.417969 2.222656 15.417969 3.671875 L 15.417969 15.71875 C 15.417969 15.90625 15.519531 16.078125 15.679688 16.171875 C 18.445312 17.769531 19.390625 21.304688 17.796875 24.070312 C 16.199219 26.832031 12.664062 27.78125 9.902344 26.183594 Z M 9.902344 26.183594 "/>
<path style=" stroke:none;fill-rule:nonzero;fill:rgb(0%,0%,0%);fill-opacity:1;" d="M 13.308594 17.425781 L 13.308594 9.503906 C 13.308594 9.21875 13.078125 8.984375 12.789062 8.984375 C 12.5 8.984375 12.265625 9.21875 12.265625 9.503906 L 12.265625 17.425781 C 10.292969 17.710938 8.921875 19.539062 9.207031 21.511719 C 9.460938 23.289062 10.988281 24.609375 12.789062 24.605469 C 14.78125 24.613281 16.398438 23 16.40625 21.007812 C 16.410156 19.210938 15.089844 17.683594 13.308594 17.425781 Z M 12.789062 23.554688 C 11.371094 23.554688 10.222656 22.410156 10.222656 20.992188 C 10.226562 19.578125 11.375 18.433594 12.789062 18.429688 C 14.203125 18.429688 15.351562 19.578125 15.351562 20.992188 C 15.351562 22.410156 14.203125 23.554688 12.789062 23.554688 Z M 12.789062 23.554688 "/>
<path style=" stroke:none;fill-rule:nonzero;fill:rgb(0%,0%,0%);fill-opacity:1;" d="M 21.535156 3.589844 L 18.269531 3.589844 C 17.980469 3.589844 17.75 3.824219 17.75 4.113281 C 17.75 4.398438 17.980469 4.632812 18.269531 4.632812 L 21.535156 4.632812 C 21.820312 4.632812 22.054688 4.398438 22.054688 4.113281 C 22.054688 3.824219 21.820312 3.589844 21.535156 3.589844 Z M 21.535156 3.589844 "/>
<path style=" stroke:none;fill-rule:nonzero;fill:rgb(0%,0%,0%);fill-opacity:1;" d="M 20.839844 6.199219 L 18.921875 6.199219 C 18.632812 6.199219 18.402344 6.433594 18.402344 6.722656 C 18.402344 7.011719 18.632812 7.246094 18.921875 7.246094 L 20.839844 7.246094 C 21.128906 7.246094 21.363281 7.011719 21.363281 6.722656 C 21.363281 6.433594 21.128906 6.199219 20.839844 6.199219 Z M 20.839844 6.199219 "/>
<path style=" stroke:none;fill-rule:nonzero;fill:rgb(0%,0%,0%);fill-opacity:1;" d="M 21.535156 8.8125 L 18.269531 8.8125 C 17.980469 8.8125 17.75 9.046875 17.75 9.332031 C 17.75 9.621094 17.980469 9.855469 18.269531 9.855469 L 21.535156 9.855469 C 21.820312 9.855469 22.054688 9.621094 22.054688 9.332031 C 22.054688 9.046875 21.820312 8.8125 21.535156 8.8125 Z M 21.535156 8.8125 "/>
<path style=" stroke:none;fill-rule:nonzero;fill:rgb(0%,0%,0%);fill-opacity:1;" d="M 20.839844 11.421875 L 18.921875 11.421875 C 18.632812 11.421875 18.402344 11.65625 18.402344 11.945312 C 18.402344 12.230469 18.632812 12.464844 18.921875 12.464844 L 20.839844 12.464844 C 21.128906 12.464844 21.363281 12.230469 21.363281 11.945312 C 21.363281 11.65625 21.128906 11.421875 20.839844 11.421875 Z M 20.839844 11.421875 "/>
<path style=" stroke:none;fill-rule:nonzero;fill:rgb(0%,0%,0%);fill-opacity:1;" d="M 21.535156 14.03125 L 18.269531 14.03125 C 17.980469 14.03125 17.75 14.265625 17.75 14.554688 C 17.75 14.84375 17.980469 15.078125 18.269531 15.078125 L 21.535156 15.078125 C 21.820312 15.078125 22.054688 14.84375 22.054688 14.554688 C 22.054688 14.265625 21.820312 14.03125 21.535156 14.03125 Z M 21.535156 14.03125 "/>
</g>
</svg>
