<?xml version="1.0" encoding="UTF-8"?>
<svg xmlns="http://www.w3.org/2000/svg" xmlns:xlink="http://www.w3.org/1999/xlink" width="28pt" height="28pt" viewBox="0 0 28 28" version="1.1">
<g id="surface1">
<path style=" stroke:none;fill-rule:nonzero;fill:rgb(0.392157%,0%,0.784314%);fill-opacity:1;" d="M 1.476562 8.183594 C 0.484375 9.144531 1.003906 9.785156 2.328125 9.40625 C 5.476562 8.507812 10.90625 7.25 13.378906 8.429688 C 13.378906 8.429688 6.148438 14.160156 7.238281 25.488281 C 7.371094 26.863281 8.402344 27.960938 9.394531 27.960938 C 10.386719 27.960938 11.046875 26.847656 11.042969 25.46875 C 11.039062 22.34375 11.566406 16.527344 14.734375 9.367188 C 14.734375 9.367188 17.089844 12.464844 17.796875 15.839844 C 18.082031 17.191406 18.605469 17.382812 18.972656 16.050781 C 19.375 14.589844 19.503906 12.574219 18.328125 10.460938 C 18.328125 10.460938 22.824219 12.898438 25.753906 16.042969 C 26.695312 17.050781 27.257812 16.882812 26.890625 15.550781 C 26.117188 12.753906 23.839844 8.417969 17.128906 7.128906 C 17.128906 7.128906 19.710938 5.867188 22.847656 5.992188 C 24.226562 6.046875 24.679688 5.398438 23.449219 4.769531 C 21.957031 4.003906 19.402344 3.488281 15.253906 4.679688 C 15.253906 4.679688 13.253906 -0.195312 6.796875 0.0078125 C 5.414062 0.0507812 5.355469 0.726562 6.597656 1.328125 C 8.738281 2.375 11.699219 4.058594 12.285156 5.617188 C 12.285156 5.617188 5.628906 4.167969 1.476562 8.183594 Z M 1.476562 8.183594 "/>
</g>
</svg>
