<?xml version="1.0" encoding="UTF-8"?>
<svg xmlns="http://www.w3.org/2000/svg" xmlns:xlink="http://www.w3.org/1999/xlink" width="28pt" height="28pt" viewBox="0 0 28 28" version="1.1">
<g id="surface1">
<path style=" stroke:none;fill-rule:nonzero;fill:rgb(0%,0%,0%);fill-opacity:1;" d="M 23.714844 7.421875 C 23.804688 7.300781 23.828125 7.144531 23.78125 7 C 23.160156 5.136719 21.417969 3.878906 19.453125 3.882812 L 18.0625 3.882812 L 20.703125 1.335938 C 20.886719 1.15625 20.890625 0.863281 20.710938 0.675781 C 20.675781 0.636719 20.632812 0.605469 20.582031 0.582031 L 20.328125 0.453125 C 18.71875 -0.339844 16.785156 -0.0742188 15.449219 1.128906 L 14.519531 1.96875 C 14.328125 2.144531 14.15625 2.339844 14.003906 2.546875 C 13.851562 2.339844 13.675781 2.144531 13.488281 1.96875 L 12.554688 1.128906 C 11.21875 -0.0742188 9.285156 -0.34375 7.671875 0.457031 L 7.421875 0.582031 C 7.191406 0.699219 7.097656 0.980469 7.210938 1.210938 C 7.234375 1.257812 7.269531 1.300781 7.304688 1.335938 L 9.941406 3.882812 L 8.554688 3.882812 C 6.589844 3.878906 4.84375 5.136719 4.226562 7 C 4.144531 7.246094 4.277344 7.507812 4.519531 7.589844 C 4.566406 7.605469 4.617188 7.613281 4.667969 7.613281 L 8.96875 7.613281 C 8.730469 7.792969 8.511719 7.992188 8.3125 8.207031 C 6.898438 9.785156 6.527344 12.039062 7.359375 13.984375 L 7.507812 14.332031 C 7.609375 14.570312 7.882812 14.679688 8.117188 14.578125 C 8.183594 14.550781 8.242188 14.507812 8.289062 14.457031 L 12.542969 9.542969 L 12.144531 27.066406 L 8.402344 27.066406 L 8.402344 28 L 19.605469 28 L 19.605469 27.066406 L 15.859375 27.066406 L 15.460938 9.542969 L 19.71875 14.457031 C 19.886719 14.648438 20.179688 14.671875 20.375 14.503906 C 20.429688 14.457031 20.472656 14.398438 20.5 14.332031 L 20.648438 13.984375 C 21.476562 12.039062 21.105469 9.785156 19.691406 8.210938 C 19.492188 7.992188 19.273438 7.792969 19.039062 7.617188 L 23.335938 7.617188 C 23.488281 7.617188 23.628906 7.542969 23.714844 7.421875 Z M 15.148438 2.660156 L 16.074219 1.816406 C 17.023438 0.964844 18.363281 0.707031 19.5625 1.136719 L 16.492188 4.101562 C 15.511719 4.417969 14.671875 5.050781 14.101562 5.90625 C 13.902344 4.71875 14.289062 3.507812 15.148438 2.660156 Z M 11.929688 1.820312 L 12.859375 2.660156 C 13.109375 2.894531 13.320312 3.167969 13.480469 3.46875 C 13.277344 3.960938 13.15625 4.484375 13.125 5.015625 C 12.65625 4.605469 12.109375 4.292969 11.515625 4.101562 L 8.445312 1.136719 C 9.644531 0.707031 10.980469 0.96875 11.929688 1.820312 Z M 5.378906 6.679688 C 6.019531 5.527344 7.234375 4.8125 8.554688 4.816406 L 10.117188 4.816406 C 11.363281 4.816406 12.519531 5.460938 13.179688 6.515625 C 12.421875 6.429688 11.652344 6.488281 10.914062 6.679688 Z M 8.082031 13.265625 C 7.574219 11.730469 7.925781 10.039062 9.007812 8.832031 C 9.929688 7.898438 11.199219 7.382812 12.515625 7.410156 C 12.71875 7.410156 12.921875 7.421875 13.125 7.449219 Z M 14.925781 27.066406 L 13.078125 27.066406 L 13.503906 8.4375 L 14.003906 7.859375 L 14.5 8.4375 Z M 19.921875 13.265625 L 14.878906 7.449219 C 16.390625 7.242188 17.914062 7.753906 18.996094 8.832031 C 20.078125 10.039062 20.429688 11.730469 19.921875 13.265625 Z M 17.09375 6.679688 C 16.355469 6.488281 15.585938 6.429688 14.824219 6.515625 C 15.484375 5.460938 16.640625 4.816406 17.886719 4.816406 L 19.453125 4.816406 C 20.769531 4.8125 21.988281 5.527344 22.625 6.679688 Z M 17.09375 6.679688 "/>
</g>
</svg>
