<?xml version="1.0" encoding="UTF-8" standalone="no"?> <!-- Created with Vectornator for iOS (http://vectornator.io/) --><!DOCTYPE svg PUBLIC "-//W3C//DTD SVG 1.1//EN" "http://www.w3.org/Graphics/SVG/1.1/DTD/svg11.dtd">
<svg height="100%" style="fill-rule:nonzero;clip-rule:evenodd;stroke-linecap:round;stroke-linejoin:round;" xmlns:xlink="http://www.w3.org/1999/xlink" xmlns="http://www.w3.org/2000/svg" xml:space="preserve" width="100%" xmlns:vectornator="http://vectornator.io" version="1.1" viewBox="0 0 28 28">
<metadata>
<vectornator:setting key="DimensionsVisible" value="0"/>
<vectornator:setting key="PencilOnly" value="0"/>
<vectornator:setting key="SnapToPoints" value="0"/>
<vectornator:setting key="OutlineMode" value="0"/>
<vectornator:setting key="CMYKEnabledKey" value="0"/>
<vectornator:setting key="RulersVisible" value="1"/>
<vectornator:setting key="SnapToEdges" value="0"/>
<vectornator:setting key="GuidesVisible" value="0"/>
<vectornator:setting key="DisplayWhiteBackground" value="0"/>
<vectornator:setting key="doHistoryDisabled" value="0"/>
<vectornator:setting key="SnapToGuides" value="1"/>
<vectornator:setting key="TimeLapseWatermarkDisabled" value="0"/>
<vectornator:setting key="Units" value="Points"/>
<vectornator:setting key="DynamicGuides" value="1"/>
<vectornator:setting key="IsolateActiveLayer" value="0"/>
<vectornator:setting key="SnapToGrid" value="0"/>
</metadata>
<defs/>
<g id="surface1" vectornator:layerName="surface1">
<path d="M15.4603+20.9413L15.4603+24.2067C15.4603+24.5832+15.1471+24.8999+14.7741+24.8999L13.2259+24.8999C12.8529+24.8999+12.5397+24.5832+12.5397+24.2067L12.5397+20.9413C12.1773+20.5859+11.9661+20.0897+11.9661+19.5443C11.9661+18.5098+12.7649+17.6195+13.7854+17.5773C13.8909+17.5738+14.1091+17.5738+14.2146+17.5773C15.2351+17.6195+16.0339+18.5098+16.0339+19.5443C16.0339+20.0897+15.8227+20.5859+15.4603+20.9413ZM18.2965+10.1737L18.2965+10.68M18.4175+10.1737L18.4085+10.4513M18.2965+13.9107L6.20585+13.9107C5.49857+13.9107+4.91797+14.6426+4.91797+15.547L4.91797+26.3567C4.91797+27.2611+5.49857+28+6.20585+28L21.7941+28C22.5014+28+23.082+27.2611+23.082+26.3567L23.082+15.547C23.082+14.6426+22.5014+13.9107+21.7941+13.9107L21.3332+13.9107" opacity="1" fill="#ec695c"/>
<path d="M21.3332+13.9202L21.3332+7.881C21.3332+3.89419+18.1698+0.565405+14.2146+0.49151C14.1091+0.49151+13.8909+0.49151+13.7854+0.49151C9.83022+0.565405+6.66681+3.89419+6.66681+7.881L6.66681+7.96193C6.66681+8.7994+7.34594+9.48205+8.18342+9.48205C9.02441+9.48205+9.70354+8.7994+9.70354+7.96193L9.70354+7.881C9.70354+5.5058+11.6318+3.54231+14+3.54231C16.3682+3.54231+18.2965+5.5058+18.2965+7.881L18.3036+13.9202M12.0565+16.6565C12.0949+16.5331+12.1448+16.4146+12.205+16.3023" opacity="1" fill="#ec695c"/>
</g>
</svg>
