<?xml version="1.0" encoding="UTF-8"?>
<svg xmlns="http://www.w3.org/2000/svg" xmlns:xlink="http://www.w3.org/1999/xlink" width="28pt" height="28pt" viewBox="0 0 28 28" version="1.1">
<g id="surface1">
<path style=" stroke:none;fill-rule:nonzero;fill:rgb(0%,0%,0%);fill-opacity:1;" d="M 17.636719 13.59375 L 12.328125 10.214844 C 12.179688 10.117188 11.992188 10.113281 11.835938 10.199219 C 11.683594 10.28125 11.585938 10.445312 11.585938 10.621094 L 11.585938 17.378906 C 11.585938 17.554688 11.683594 17.71875 11.835938 17.800781 C 11.910156 17.84375 11.988281 17.863281 12.070312 17.863281 C 12.160156 17.863281 12.25 17.835938 12.328125 17.785156 L 17.636719 14.40625 C 17.777344 14.320312 17.863281 14.164062 17.863281 14 C 17.863281 13.835938 17.777344 13.679688 17.636719 13.59375 Z M 12.550781 16.5 L 12.550781 11.5 L 16.480469 14 Z M 12.550781 16.5 "/>
<path style=" stroke:none;fill-rule:nonzero;fill:rgb(0%,0%,0%);fill-opacity:1;" d="M 27.515625 2.898438 L 0.484375 2.898438 C 0.214844 2.898438 0 3.113281 0 3.378906 L 0 24.621094 C 0 24.886719 0.214844 25.101562 0.484375 25.101562 L 27.515625 25.101562 C 27.785156 25.101562 28 24.886719 28 24.621094 L 28 3.378906 C 28 3.113281 27.785156 2.898438 27.515625 2.898438 Z M 4.828125 13.515625 L 0.964844 13.515625 L 0.964844 9.171875 L 4.828125 9.171875 Z M 0.964844 14.484375 L 4.828125 14.484375 L 4.828125 18.828125 L 0.964844 18.828125 Z M 5.792969 19.308594 L 5.792969 3.863281 L 22.207031 3.863281 L 22.207031 24.136719 L 5.792969 24.136719 Z M 27.035156 13.515625 L 23.171875 13.515625 L 23.171875 9.171875 L 27.035156 9.171875 Z M 23.171875 14.484375 L 27.035156 14.484375 L 27.035156 18.828125 L 23.171875 18.828125 Z M 27.035156 3.863281 L 27.035156 8.207031 L 23.171875 8.207031 L 23.171875 3.863281 Z M 0.964844 3.863281 L 4.828125 3.863281 L 4.828125 8.207031 L 0.964844 8.207031 Z M 0.964844 24.136719 L 0.964844 19.792969 L 4.828125 19.792969 L 4.828125 24.136719 Z M 27.035156 24.136719 L 23.171875 24.136719 L 23.171875 19.792969 L 27.035156 19.792969 Z M 27.035156 24.136719 "/>
</g>
</svg>
