<?xml version="1.0" encoding="UTF-8"?>
<svg xmlns="http://www.w3.org/2000/svg" xmlns:xlink="http://www.w3.org/1999/xlink" width="28pt" height="28pt" viewBox="0 0 28 28" version="1.1">
<g id="surface1">
<path style=" stroke:none;fill-rule:nonzero;fill:rgb(0%,0%,0%);fill-opacity:1;" d="M 26.429688 1.539062 C 25.40625 0.511719 24.171875 0 22.726562 0 L 5.246094 0 C 3.800781 0 2.566406 0.511719 1.539062 1.539062 C 0.511719 2.566406 0 3.800781 0 5.246094 L 0 22.726562 C 0 24.171875 0.511719 25.40625 1.539062 26.433594 C 2.566406 27.457031 3.800781 27.96875 5.246094 27.96875 L 22.726562 27.96875 C 24.171875 27.96875 25.40625 27.457031 26.429688 26.433594 C 27.457031 25.40625 27.96875 24.171875 27.96875 22.726562 L 27.96875 5.246094 C 27.96875 3.800781 27.457031 2.5625 26.429688 1.539062 Z M 23.308594 22.726562 C 23.308594 22.882812 23.25 23.019531 23.136719 23.136719 C 23.019531 23.25 22.882812 23.308594 22.726562 23.308594 L 5.246094 23.308594 C 5.085938 23.308594 4.949219 23.25 4.835938 23.136719 C 4.71875 23.019531 4.660156 22.882812 4.660156 22.726562 L 4.660156 5.246094 C 4.660156 5.085938 4.71875 4.949219 4.835938 4.835938 C 4.949219 4.71875 5.085938 4.660156 5.246094 4.660156 L 22.726562 4.660156 C 22.882812 4.660156 23.019531 4.71875 23.136719 4.835938 C 23.25 4.949219 23.308594 5.085938 23.308594 5.246094 Z M 23.308594 22.726562 "/>
<path style=" stroke:none;fill-rule:nonzero;fill:rgb(0%,0%,0%);fill-opacity:1;" d="M 17.480469 6.992188 C 17.238281 6.992188 17.015625 7.066406 16.808594 7.210938 L 8.648438 13.039062 C 8.320312 13.269531 8.15625 13.585938 8.15625 13.984375 C 8.15625 14.386719 8.320312 14.703125 8.648438 14.933594 L 16.808594 20.757812 C 17.015625 20.90625 17.238281 20.976562 17.480469 20.976562 C 17.796875 20.976562 18.070312 20.863281 18.300781 20.632812 C 18.53125 20.402344 18.648438 20.128906 18.648438 19.8125 L 18.648438 8.15625 C 18.648438 7.84375 18.53125 7.570312 18.300781 7.339844 C 18.070312 7.109375 17.796875 6.992188 17.480469 6.992188 Z M 17.480469 6.992188 "/>
</g>
</svg>
