<?xml version="1.0" encoding="UTF-8" standalone="no"?>
<!DOCTYPE svg PUBLIC "-//W3C//DTD SVG 1.1//EN" "http://www.w3.org/Graphics/SVG/1.1/DTD/svg11.dtd">
<svg width="100%" height="100%" viewBox="0 0 28 28" version="1.1" xmlns="http://www.w3.org/2000/svg" xmlns:xlink="http://www.w3.org/1999/xlink" xml:space="preserve" xmlns:serif="http://www.serif.com/" style="fill-rule:evenodd;clip-rule:evenodd;stroke-linejoin:round;stroke-miterlimit:2;">
    <g transform="matrix(-0.908459,0,0,0.916963,13.9986,14.0013)">
        <g id="surface1">
            <path d="M2.404,-15.266C-0.712,-15.266 -3.247,-12.78 -3.247,-9.726L-3.247,-6.656C-3.247,-4.012 -5.447,-1.861 -8.148,-1.861L-11.62,-1.861L-11.62,-7.447C-11.62,-8.474 -12.47,-9.307 -13.515,-9.307L-15.036,-9.307C-15.244,-9.307 -15.412,-9.14 -15.412,-8.935L-15.412,7.447C-15.412,7.652 -15.244,7.82 -15.036,7.82L-13.517,7.82C-12.472,7.82 -11.62,6.985 -11.62,5.958L-11.62,0.373L-8.148,0.373C-4.193,0.373 -0.976,-2.78 -0.976,-6.656L-0.976,-9.726C-0.976,-11.58 0.556,-13.031 2.511,-13.031C4.361,-13.031 5.876,-11.554 5.889,-9.741L5.889,-6.087C4.964,-5.681 4.355,-4.779 4.355,-3.753L4.355,-3.35L2.952,-3.35C2.042,-3.35 1.251,-2.714 1.072,-1.839L-1.352,10.043C-1.465,10.593 -1.322,11.158 -0.965,11.592C-0.601,12.034 -0.058,12.287 0.52,12.287L3.624,12.287C3.814,13.959 5.257,15.266 7.011,15.266C8.767,15.266 10.211,13.959 10.401,12.287L13.503,12.287C14.081,12.287 14.622,12.035 14.986,11.594C15.344,11.159 15.487,10.595 15.375,10.043L12.951,-1.839C12.771,-2.714 11.981,-3.35 11.071,-3.35L9.668,-3.35L9.668,-3.753C9.668,-4.775 9.065,-5.674 8.164,-6.071L8.164,-9.741C8.147,-12.786 5.612,-15.266 2.511,-15.266L2.404,-15.266ZM2.404,-14.521L2.511,-14.521C5.199,-14.521 7.397,-12.377 7.41,-9.741L7.41,-6.3C7.172,-6.337 6.913,-6.344 6.641,-6.3L6.641,-9.739C6.624,-11.963 4.772,-13.773 2.511,-13.773C0.135,-13.773 -1.726,-11.994 -1.726,-9.722L-1.726,-6.652C-1.726,-3.186 -4.608,-0.368 -8.148,-0.368L-11.62,-0.368L-11.62,-1.113L-8.148,-1.113C-5.031,-1.113 -2.497,-3.598 -2.497,-6.652L-2.497,-9.722C-2.497,-12.367 -0.298,-14.518 2.404,-14.518L2.404,-14.521ZM-14.66,-8.563L-13.517,-8.563C-12.885,-8.563 -12.372,-8.062 -12.372,-7.447L-12.372,5.958C-12.372,6.573 -12.886,7.075 -13.517,7.075L-14.66,7.075L-14.66,-8.563L-14.66,-8.563ZM-13.517,-7.82C-13.725,-7.82 -13.893,-7.652 -13.893,-7.447L-13.893,5.958C-13.893,6.163 -13.725,6.33 -13.517,6.33C-13.309,6.33 -13.141,6.163 -13.141,5.958L-13.141,-7.447C-13.141,-7.652 -13.309,-7.82 -13.517,-7.82ZM7.004,-5.587C7.224,-5.587 7.45,-5.553 7.67,-5.468C8.415,-5.23 8.916,-4.541 8.916,-3.753L8.916,-3.351L5.107,-3.351L5.107,-3.753C5.107,-4.548 5.618,-5.244 6.383,-5.485C6.574,-5.546 6.785,-5.585 7.004,-5.587ZM2.952,-2.606L11.071,-2.606C11.625,-2.606 12.106,-2.221 12.214,-1.691L14.638,10.191C14.704,10.522 14.621,10.861 14.405,11.123C14.185,11.391 13.856,11.542 13.505,11.542L0.52,11.542C0.168,11.542 -0.161,11.389 -0.382,11.121C-0.597,10.861 -0.683,10.522 -0.615,10.191L1.811,-1.691C1.919,-2.221 2.398,-2.606 2.952,-2.606L2.952,-2.606ZM4.378,12.287L9.646,12.287C9.46,13.547 8.352,14.521 7.012,14.521C5.672,14.521 4.563,13.547 4.378,12.287Z" style="fill-rule:nonzero;"/>
        </g>
    </g>
</svg>
