<?xml version="1.0" encoding="UTF-8"?>
<svg xmlns="http://www.w3.org/2000/svg" xmlns:xlink="http://www.w3.org/1999/xlink" width="28pt" height="28pt" viewBox="0 0 28 28" version="1.1">
<g id="surface1">
<path style=" stroke:none;fill-rule:nonzero;fill:rgb(0%,0%,0%);fill-opacity:1;" d="M 27.25 10.359375 L 26.15625 10.359375 L 26.15625 5.722656 C 26.15625 5.40625 25.898438 5.148438 25.582031 5.148438 C 25.261719 5.148438 25.003906 5.40625 25.003906 5.722656 L 25.003906 10.359375 L 24.242188 10.359375 L 24.242188 5.722656 C 24.242188 5.40625 23.984375 5.148438 23.664062 5.148438 C 23.347656 5.148438 23.089844 5.40625 23.089844 5.722656 L 23.089844 10.359375 L 22.324219 10.359375 L 22.324219 5.722656 C 22.324219 5.40625 22.066406 5.148438 21.75 5.148438 C 21.429688 5.148438 21.171875 5.40625 21.171875 5.722656 L 21.171875 10.359375 L 19.238281 10.359375 L 20.695312 6.691406 C 20.8125 6.394531 20.667969 6.0625 20.375 5.945312 C 20.078125 5.824219 19.742188 5.96875 19.625 6.265625 L 17.996094 10.359375 L 12.972656 10.359375 L 13.390625 8.539062 C 13.460938 8.230469 13.261719 7.980469 12.945312 7.980469 L 11.925781 7.980469 L 11.925781 7.253906 L 12.992188 6.34375 C 13.234375 6.136719 13.261719 5.773438 13.054688 5.53125 C 12.847656 5.289062 12.484375 5.261719 12.242188 5.46875 L 11.925781 5.738281 L 11.925781 5.078125 C 11.925781 4.761719 11.667969 4.503906 11.351562 4.503906 C 11.03125 4.503906 10.773438 4.761719 10.773438 5.078125 L 10.773438 5.25 L 10.433594 4.90625 C 10.210938 4.679688 9.847656 4.675781 9.621094 4.898438 C 9.394531 5.125 9.390625 5.488281 9.613281 5.714844 L 10.773438 6.890625 L 10.773438 7.980469 L 9.449219 7.980469 C 9.132812 7.980469 8.929688 8.230469 9 8.539062 L 9.417969 10.359375 L 7.144531 10.359375 C 6.730469 10.359375 6.394531 10.699219 6.394531 11.109375 L 6.394531 13.125 C 6.394531 13.539062 6.730469 13.875 7.144531 13.875 L 27.25 13.875 C 27.664062 13.875 28 13.539062 28 13.125 L 28 11.109375 C 28 10.699219 27.664062 10.359375 27.25 10.359375 Z M 27.25 10.359375 "/>
<path style=" stroke:none;fill-rule:nonzero;fill:rgb(0%,0%,0%);fill-opacity:1;" d="M 20.855469 19.980469 L 9.730469 19.980469 L 8.316406 15.925781 C 8.210938 15.625 7.882812 15.464844 7.582031 15.570312 C 7.28125 15.675781 7.121094 16.003906 7.226562 16.304688 L 8.507812 19.980469 L 7.042969 19.980469 L 7.042969 15.460938 C 7.042969 15.140625 6.785156 14.882812 6.46875 14.882812 C 6.148438 14.882812 5.890625 15.140625 5.890625 15.460938 L 5.890625 19.980469 L 5.472656 19.980469 L 5.472656 15.460938 C 5.472656 15.140625 5.214844 14.882812 4.898438 14.882812 C 4.578125 14.882812 4.320312 15.140625 4.320312 15.460938 L 4.320312 19.980469 L 3.902344 19.980469 L 3.902344 15.460938 C 3.902344 15.140625 3.644531 14.882812 3.328125 14.882812 C 3.007812 14.882812 2.75 15.140625 2.75 15.460938 L 2.75 19.980469 L 2.332031 19.980469 L 2.332031 15.460938 C 2.332031 15.140625 2.074219 14.882812 1.757812 14.882812 C 1.4375 14.882812 1.179688 15.140625 1.179688 15.460938 L 1.179688 19.980469 L 0.75 19.980469 C 0.335938 19.980469 0 20.320312 0 20.730469 L 0 22.746094 C 0 23.160156 0.335938 23.496094 0.75 23.496094 L 20.855469 23.496094 C 21.269531 23.496094 21.605469 23.160156 21.605469 22.746094 L 21.605469 20.730469 C 21.605469 20.320312 21.269531 19.980469 20.855469 19.980469 Z M 20.855469 19.980469 "/>
</g>
</svg>
