<?xml version="1.0" encoding="UTF-8"?>
<svg xmlns="http://www.w3.org/2000/svg" xmlns:xlink="http://www.w3.org/1999/xlink" width="28pt" height="28pt" viewBox="0 0 28 28" version="1.1">
<g id="surface1">
<path style=" stroke:none;fill-rule:nonzero;fill:rgb(0%,0%,0%);fill-opacity:1;" d="M 1.714844 0 L 1.714844 28 L 26.285156 28 L 26.285156 0 Z M 10.195312 11.035156 L 17.804688 3.421875 L 17.804688 4.921875 L 10.195312 12.535156 Z M 10.195312 13.148438 L 17.804688 5.535156 L 17.804688 15.984375 L 10.195312 23.597656 Z M 10.195312 24.210938 L 17.804688 16.597656 L 17.804688 26.382812 L 10.195312 26.382812 Z M 17.804688 0.433594 L 17.804688 2.808594 L 10.195312 10.421875 L 10.195312 0.433594 Z M 2.148438 0.433594 L 9.761719 0.433594 L 9.761719 26.382812 L 2.148438 26.382812 Z M 25.851562 27.566406 L 2.148438 27.566406 L 2.148438 26.816406 L 25.851562 26.816406 Z M 18.238281 26.382812 L 18.238281 0.433594 L 25.851562 0.433594 L 25.851562 26.382812 Z M 18.238281 26.382812 "/>
<path style=" stroke:none;fill-rule:nonzero;fill:rgb(0%,0%,0%);fill-opacity:1;" d="M 2.632812 12.402344 L 3.066406 12.402344 L 3.066406 14.414062 L 2.632812 14.414062 Z M 2.632812 12.402344 "/>
<path style=" stroke:none;fill-rule:nonzero;fill:rgb(0%,0%,0%);fill-opacity:1;" d="M 24.933594 12.402344 L 25.367188 12.402344 L 25.367188 14.414062 L 24.933594 14.414062 Z M 24.933594 12.402344 "/>
</g>
</svg>
