<?xml version="1.0" encoding="UTF-8"?>
<svg xmlns="http://www.w3.org/2000/svg" xmlns:xlink="http://www.w3.org/1999/xlink" width="14pt" height="14pt" viewBox="0 0 14 14" version="1.1">
<g id="surface1">
<path style=" stroke:none;fill-rule:nonzero;fill:rgb(0%,0%,0%);fill-opacity:1;" d="M 4.09375 8.742188 L 9.742188 8.742188 L 6.917969 7.25 Z M 4.09375 8.742188 "/>
<path style=" stroke:none;fill-rule:nonzero;fill:rgb(0%,0%,0%);fill-opacity:1;" d="M 7 0 C 3.132812 0 0 3.132812 0 7 C 0 10.867188 3.132812 14 7 14 C 10.867188 14 14 10.867188 14 7 C 14 3.132812 10.867188 0 7 0 Z M 11.703125 9.257812 C 11.644531 9.390625 11.515625 9.46875 11.375 9.46875 C 11.359375 9.46875 11.34375 9.464844 11.328125 9.460938 C 11.3125 9.464844 11.296875 9.46875 11.277344 9.46875 L 2.480469 9.46875 C 2.476562 9.46875 2.476562 9.46875 2.46875 9.46875 C 2.46875 9.46875 2.460938 9.46875 2.460938 9.46875 C 2.324219 9.46875 2.195312 9.390625 2.132812 9.257812 C 2.046875 9.078125 2.125 8.859375 2.304688 8.773438 L 6.546875 6.625 L 6.546875 5.359375 L 6.554688 5.359375 L 6.554688 5.273438 C 7.066406 5.273438 7.328125 5.109375 7.328125 4.777344 C 7.328125 4.503906 7.101562 4.28125 6.828125 4.28125 C 6.554688 4.28125 6.335938 4.503906 6.335938 4.777344 L 5.609375 4.777344 C 5.609375 4.101562 6.15625 3.554688 6.828125 3.554688 C 7.503906 3.554688 8.054688 4.101562 8.054688 4.777344 C 8.054688 5.214844 7.835938 5.671875 7.273438 5.882812 L 7.273438 6.617188 L 11.53125 8.773438 C 11.710938 8.859375 11.789062 9.078125 11.703125 9.257812 Z M 11.703125 9.257812 "/>
</g>
</svg>
