<?xml version="1.0" encoding="UTF-8"?>
<svg xmlns="http://www.w3.org/2000/svg" xmlns:xlink="http://www.w3.org/1999/xlink" width="28pt" height="28pt" viewBox="0 0 28 28" version="1.1">
<g id="surface1">
<path style=" stroke:none;fill-rule:nonzero;fill:rgb(0%,0%,0%);fill-opacity:1;" d="M 8.492188 4.996094 L 19.480469 4.996094 L 19.480469 22.980469 L 8.492188 22.980469 Z M 8.492188 4.996094 "/>
<path style=" stroke:none;fill-rule:nonzero;fill:rgb(0%,0%,0%);fill-opacity:1;" d="M 19.980469 23.476562 L 19.980469 23.765625 L 27.972656 27.410156 L 27.972656 0.5625 L 19.980469 4.785156 Z M 23.476562 4.632812 L 26.476562 3.332031 L 26.476562 10.003906 L 23.476562 10.578125 Z M 23.476562 11.175781 L 26.476562 10.667969 L 26.476562 17.339844 L 23.476562 17.121094 Z M 23.476562 17.714844 L 26.476562 18.007812 L 26.476562 24.675781 L 23.476562 23.664062 Z M 20.980469 5.9375 L 22.980469 4.949219 L 22.980469 10.710938 L 20.980469 11.160156 Z M 20.980469 11.683594 L 22.980469 11.289062 L 22.980469 17.050781 L 20.980469 16.902344 Z M 20.980469 17.425781 L 22.980469 17.628906 L 22.980469 23.394531 L 20.980469 22.644531 Z M 20.980469 17.425781 "/>
<path style=" stroke:none;fill-rule:nonzero;fill:rgb(0%,0%,0%);fill-opacity:1;" d="M 0 27.410156 L 7.992188 23.765625 L 7.992188 4.785156 L 0 0.5625 Z M 4.996094 4.949219 L 6.992188 5.9375 L 6.992188 11.160156 L 4.996094 10.710938 Z M 4.996094 11.289062 L 6.992188 11.683594 L 6.992188 16.902344 L 4.996094 17.050781 Z M 4.996094 17.628906 L 6.992188 17.425781 L 6.992188 22.644531 L 4.996094 23.394531 Z M 1.5 3.332031 L 4.496094 4.632812 L 4.496094 10.578125 L 1.5 10.003906 Z M 1.5 10.667969 L 4.496094 11.171875 L 4.496094 17.121094 L 1.5 17.339844 Z M 1.5 18.007812 L 4.496094 17.714844 L 4.496094 23.664062 L 1.5 24.675781 Z M 1.5 18.007812 "/>
</g>
</svg>
