<?xml version="1.0" encoding="UTF-8"?>
<svg xmlns="http://www.w3.org/2000/svg" xmlns:xlink="http://www.w3.org/1999/xlink" width="28pt" height="28pt" viewBox="0 0 28 28" version="1.1">
<g id="surface1">
<path style=" stroke:none;fill-rule:nonzero;fill:rgb(0%,0%,0%);fill-opacity:1;" d="M 11.8125 4.839844 L 16.1875 4.839844 L 16.1875 5.660156 L 11.8125 5.660156 Z M 11.8125 4.839844 "/>
<path style=" stroke:none;fill-rule:nonzero;fill:rgb(0%,0%,0%);fill-opacity:1;" d="M 11.8125 3.417969 L 16.1875 3.417969 L 16.1875 4.238281 L 11.8125 4.238281 Z M 11.8125 3.417969 "/>
<path style=" stroke:none;fill-rule:nonzero;fill:rgb(0%,0%,0%);fill-opacity:1;" d="M 1.640625 2.871094 L 1.640625 3.378906 C 1.511719 3.332031 1.375 3.308594 1.230469 3.308594 C 0.550781 3.308594 0 3.859375 0 4.539062 C 0 5.21875 0.550781 5.769531 1.230469 5.769531 C 1.375 5.769531 1.511719 5.746094 1.640625 5.699219 L 1.640625 25.128906 L 2.050781 25.128906 C 2.527344 25.128906 2.78125 24.976562 2.984375 24.851562 C 3.144531 24.753906 3.25 24.691406 3.496094 24.691406 C 3.742188 24.691406 3.847656 24.753906 4.003906 24.851562 C 4.210938 24.976562 4.464844 25.128906 4.941406 25.128906 C 5.417969 25.128906 5.671875 24.976562 5.875 24.851562 C 6.035156 24.753906 6.136719 24.691406 6.386719 24.691406 C 6.632812 24.691406 6.738281 24.753906 6.894531 24.851562 C 7.097656 24.976562 7.355469 25.128906 7.828125 25.128906 C 8.304688 25.128906 8.558594 24.976562 8.765625 24.851562 C 8.921875 24.753906 9.027344 24.691406 9.273438 24.691406 C 9.519531 24.691406 9.625 24.753906 9.785156 24.851562 C 9.988281 24.976562 10.242188 25.128906 10.71875 25.128906 L 11.128906 25.128906 L 11.128906 2.871094 Z M 1.230469 4.949219 C 1.003906 4.949219 0.820312 4.765625 0.820312 4.539062 C 0.820312 4.3125 1.003906 4.128906 1.230469 4.128906 C 1.457031 4.128906 1.640625 4.3125 1.640625 4.539062 C 1.640625 4.765625 1.457031 4.949219 1.230469 4.949219 Z M 10.308594 24.207031 C 10.277344 24.191406 10.242188 24.171875 10.210938 24.148438 C 10.027344 24.039062 9.804688 23.902344 9.421875 23.875 L 9.421875 12.390625 L 8.601562 12.390625 L 8.601562 24.007812 C 8.5 24.050781 8.417969 24.101562 8.339844 24.148438 C 8.179688 24.246094 8.078125 24.308594 7.828125 24.308594 C 7.738281 24.308594 7.667969 24.300781 7.605469 24.285156 L 7.777344 24.285156 L 7.777344 7.765625 L 6.957031 7.765625 L 6.957031 23.964844 C 6.808594 23.910156 6.625 23.871094 6.386719 23.871094 C 6.296875 23.871094 6.214844 23.875 6.136719 23.886719 L 6.136719 12.03125 L 5.316406 12.03125 L 5.316406 24.226562 C 5.21875 24.277344 5.113281 24.308594 4.941406 24.308594 C 4.730469 24.308594 4.625 24.261719 4.496094 24.191406 L 4.496094 7.765625 L 3.675781 7.765625 L 3.675781 23.878906 C 3.621094 23.875 3.558594 23.871094 3.496094 23.871094 C 3.019531 23.871094 2.765625 24.027344 2.5625 24.148438 C 2.527344 24.171875 2.492188 24.191406 2.460938 24.207031 L 2.460938 3.691406 L 3.675781 3.691406 L 3.675781 5.933594 L 4.496094 5.933594 L 4.496094 3.691406 L 6.957031 3.691406 L 6.957031 5.933594 L 7.777344 5.933594 L 7.777344 3.691406 L 10.308594 3.691406 Z M 10.308594 24.207031 "/>
<path style=" stroke:none;fill-rule:nonzero;fill:rgb(0%,0%,0%);fill-opacity:1;" d="M 8.601562 7.492188 L 9.421875 7.492188 L 9.421875 11.101562 L 8.601562 11.101562 Z M 8.601562 7.492188 "/>
<path style=" stroke:none;fill-rule:nonzero;fill:rgb(0%,0%,0%);fill-opacity:1;" d="M 8.601562 6.125 L 9.421875 6.125 L 9.421875 6.945312 L 8.601562 6.945312 Z M 8.601562 6.125 "/>
<path style=" stroke:none;fill-rule:nonzero;fill:rgb(0%,0%,0%);fill-opacity:1;" d="M 8.601562 4.757812 L 9.421875 4.757812 L 9.421875 5.578125 L 8.601562 5.578125 Z M 8.601562 4.757812 "/>
<path style=" stroke:none;fill-rule:nonzero;fill:rgb(0%,0%,0%);fill-opacity:1;" d="M 5.320312 7.164062 L 6.140625 7.164062 L 6.140625 10.773438 L 5.320312 10.773438 Z M 5.320312 7.164062 "/>
<path style=" stroke:none;fill-rule:nonzero;fill:rgb(0%,0%,0%);fill-opacity:1;" d="M 5.320312 4.429688 L 6.140625 4.429688 L 6.140625 5.25 L 5.320312 5.25 Z M 5.320312 4.429688 "/>
<path style=" stroke:none;fill-rule:nonzero;fill:rgb(0%,0%,0%);fill-opacity:1;" d="M 5.320312 5.796875 L 6.140625 5.796875 L 6.140625 6.617188 L 5.320312 6.617188 Z M 5.320312 5.796875 "/>
<path style=" stroke:none;fill-rule:nonzero;fill:rgb(0%,0%,0%);fill-opacity:1;" d="M 23.828125 6.234375 L 24.648438 6.234375 L 24.648438 7.054688 L 23.828125 7.054688 Z M 23.828125 6.234375 "/>
<path style=" stroke:none;fill-rule:nonzero;fill:rgb(0%,0%,0%);fill-opacity:1;" d="M 23.828125 7.601562 L 24.648438 7.601562 L 24.648438 11.210938 L 23.828125 11.210938 Z M 23.828125 7.601562 "/>
<path style=" stroke:none;fill-rule:nonzero;fill:rgb(0%,0%,0%);fill-opacity:1;" d="M 23.828125 4.867188 L 24.648438 4.867188 L 24.648438 5.6875 L 23.828125 5.6875 Z M 23.828125 4.867188 "/>
<path style=" stroke:none;fill-rule:nonzero;fill:rgb(0%,0%,0%);fill-opacity:1;" d="M 20.546875 8.53125 L 21.367188 8.53125 L 21.367188 9.351562 L 20.546875 9.351562 Z M 20.546875 8.53125 "/>
<path style=" stroke:none;fill-rule:nonzero;fill:rgb(0%,0%,0%);fill-opacity:1;" d="M 20.546875 4.429688 L 21.367188 4.429688 L 21.367188 5.25 L 20.546875 5.25 Z M 20.546875 4.429688 "/>
<path style=" stroke:none;fill-rule:nonzero;fill:rgb(0%,0%,0%);fill-opacity:1;" d="M 20.546875 5.796875 L 21.367188 5.796875 L 21.367188 6.617188 L 20.546875 6.617188 Z M 20.546875 5.796875 "/>
<path style=" stroke:none;fill-rule:nonzero;fill:rgb(0%,0%,0%);fill-opacity:1;" d="M 20.546875 7.164062 L 21.367188 7.164062 L 21.367188 7.984375 L 20.546875 7.984375 Z M 20.546875 7.164062 "/>
<path style=" stroke:none;fill-rule:nonzero;fill:rgb(0%,0%,0%);fill-opacity:1;" d="M 26.769531 3.308594 C 26.625 3.308594 26.488281 3.332031 26.359375 3.378906 L 26.359375 2.871094 L 16.871094 2.871094 L 16.871094 25.128906 L 17.28125 25.128906 C 17.757812 25.128906 18.011719 24.976562 18.214844 24.851562 C 18.375 24.753906 18.480469 24.691406 18.726562 24.691406 C 18.972656 24.691406 19.078125 24.753906 19.234375 24.851562 C 19.441406 24.976562 19.695312 25.128906 20.171875 25.128906 C 20.648438 25.128906 20.902344 24.976562 21.105469 24.851562 C 21.265625 24.753906 21.367188 24.691406 21.617188 24.691406 C 21.863281 24.691406 21.96875 24.753906 22.125 24.851562 C 22.328125 24.976562 22.585938 25.128906 23.058594 25.128906 C 23.535156 25.128906 23.789062 24.976562 23.996094 24.851562 C 24.152344 24.753906 24.257812 24.691406 24.503906 24.691406 C 24.75 24.691406 24.855469 24.753906 25.015625 24.851562 C 25.21875 24.976562 25.472656 25.128906 25.949219 25.128906 L 26.359375 25.128906 L 26.359375 5.699219 C 26.488281 5.746094 26.625 5.769531 26.769531 5.769531 C 27.449219 5.769531 28 5.21875 28 4.539062 C 28 3.859375 27.449219 3.308594 26.769531 3.308594 Z M 25.539062 24.207031 C 25.507812 24.191406 25.472656 24.171875 25.441406 24.148438 C 25.257812 24.039062 25.035156 23.902344 24.648438 23.875 L 24.648438 12.390625 L 23.828125 12.390625 L 23.828125 24.007812 C 23.730469 24.050781 23.648438 24.101562 23.570312 24.148438 C 23.410156 24.246094 23.308594 24.308594 23.058594 24.308594 C 22.96875 24.308594 22.898438 24.300781 22.835938 24.285156 L 23.007812 24.285156 L 23.007812 7.765625 L 22.1875 7.765625 L 22.1875 23.964844 C 22.039062 23.910156 21.855469 23.871094 21.617188 23.871094 C 21.527344 23.871094 21.445312 23.875 21.367188 23.886719 L 21.367188 10.171875 L 20.546875 10.171875 L 20.546875 24.226562 C 20.449219 24.277344 20.34375 24.308594 20.171875 24.308594 C 19.960938 24.308594 19.855469 24.261719 19.726562 24.191406 L 19.726562 7.765625 L 18.90625 7.765625 L 18.90625 23.878906 C 18.851562 23.875 18.789062 23.871094 18.726562 23.871094 C 18.25 23.871094 17.996094 24.027344 17.792969 24.148438 C 17.757812 24.171875 17.722656 24.191406 17.691406 24.207031 L 17.691406 3.691406 L 18.910156 3.691406 L 18.910156 5.933594 L 19.730469 5.933594 L 19.730469 3.691406 L 22.191406 3.691406 L 22.191406 5.933594 L 23.011719 5.933594 L 23.011719 3.691406 L 25.539062 3.691406 Z M 26.769531 4.949219 C 26.542969 4.949219 26.359375 4.765625 26.359375 4.539062 C 26.359375 4.3125 26.542969 4.128906 26.769531 4.128906 C 26.996094 4.128906 27.179688 4.3125 27.179688 4.539062 C 27.179688 4.765625 26.996094 4.949219 26.769531 4.949219 Z M 26.769531 4.949219 "/>
</g>
</svg>
