<?xml version="1.0" encoding="UTF-8"?>
<svg xmlns="http://www.w3.org/2000/svg" xmlns:xlink="http://www.w3.org/1999/xlink" width="28pt" height="28pt" viewBox="0 0 28 28" version="1.1">
<g id="surface1">
<path style=" stroke:none;fill-rule:nonzero;fill:rgb(0%,0%,0%);fill-opacity:1;" d="M 27.363281 0 L 0.636719 0 C 0.285156 0 0 0.285156 0 0.636719 C 0 0.988281 0.285156 1.273438 0.636719 1.273438 L 2.546875 1.273438 L 2.546875 2.546875 L 1.910156 2.546875 C 1.667969 2.546875 1.449219 2.679688 1.339844 2.898438 L 0.0664062 5.441406 C -0.03125 5.640625 -0.0195312 5.875 0.09375 6.0625 C 0.210938 6.25 0.417969 6.363281 0.636719 6.363281 L 2.546875 6.363281 L 2.546875 7.636719 L 1.910156 7.636719 C 1.667969 7.636719 1.449219 7.773438 1.339844 7.988281 L 0.0664062 10.535156 C -0.03125 10.730469 -0.0195312 10.964844 0.09375 11.152344 C 0.210938 11.339844 0.417969 11.453125 0.636719 11.453125 L 2.546875 11.453125 L 2.546875 12.726562 L 1.910156 12.726562 C 1.667969 12.726562 1.449219 12.863281 1.339844 13.078125 L 0.0664062 15.625 C -0.03125 15.820312 -0.0195312 16.054688 0.09375 16.242188 C 0.210938 16.429688 0.417969 16.546875 0.636719 16.546875 L 2.546875 16.546875 L 2.546875 17.816406 L 1.910156 17.816406 C 1.667969 17.816406 1.449219 17.953125 1.339844 18.167969 L 0.0664062 20.714844 C -0.03125 20.914062 -0.0195312 21.148438 0.09375 21.335938 C 0.210938 21.523438 0.417969 21.636719 0.636719 21.636719 L 2.546875 21.636719 L 2.546875 22.90625 L 1.910156 22.90625 C 1.667969 22.90625 1.449219 23.042969 1.339844 23.257812 L 0.0664062 25.804688 C -0.03125 26.003906 -0.0195312 26.234375 0.09375 26.425781 C 0.210938 26.613281 0.417969 26.726562 0.636719 26.726562 L 2.546875 26.726562 L 2.546875 27.363281 C 2.546875 27.714844 2.828125 28 3.183594 28 C 3.535156 28 3.816406 27.714844 3.816406 27.363281 L 3.816406 26.726562 L 21.636719 26.726562 L 21.636719 27.363281 C 21.636719 27.714844 21.921875 28 22.273438 28 C 22.625 28 22.910156 27.714844 22.910156 27.363281 L 22.910156 26.726562 L 24.816406 26.726562 C 25.039062 26.726562 25.242188 26.613281 25.359375 26.425781 C 25.476562 26.234375 25.484375 26 25.386719 25.804688 L 24.113281 23.257812 C 24.007812 23.042969 23.785156 22.90625 23.546875 22.90625 L 22.910156 22.90625 L 22.910156 21.636719 L 24.816406 21.636719 C 25.039062 21.636719 25.242188 21.523438 25.359375 21.335938 C 25.476562 21.144531 25.484375 20.914062 25.386719 20.714844 L 24.113281 18.167969 C 24.007812 17.953125 23.785156 17.816406 23.546875 17.816406 L 22.910156 17.816406 L 22.910156 16.546875 L 24.816406 16.546875 C 25.039062 16.546875 25.242188 16.429688 25.359375 16.242188 C 25.476562 16.054688 25.484375 15.820312 25.386719 15.625 L 24.113281 13.078125 C 24.007812 12.863281 23.785156 12.726562 23.546875 12.726562 L 22.910156 12.726562 L 22.910156 11.453125 L 24.816406 11.453125 C 25.039062 11.453125 25.242188 11.339844 25.359375 11.152344 C 25.476562 10.964844 25.484375 10.730469 25.386719 10.535156 L 24.113281 7.988281 C 24.007812 7.773438 23.785156 7.636719 23.546875 7.636719 L 22.910156 7.636719 L 22.910156 6.363281 L 24.816406 6.363281 C 25.039062 6.363281 25.242188 6.25 25.359375 6.0625 C 25.476562 5.875 25.484375 5.640625 25.386719 5.441406 L 24.113281 2.898438 C 24.007812 2.679688 23.785156 2.546875 23.546875 2.546875 L 22.910156 2.546875 L 22.910156 1.273438 L 25.453125 1.273438 L 25.453125 18.453125 C 25.453125 18.804688 25.738281 19.089844 26.089844 19.089844 C 26.441406 19.089844 26.726562 18.804688 26.726562 18.453125 L 26.726562 1.273438 L 27.363281 1.273438 C 27.714844 1.273438 28 0.988281 28 0.636719 C 28 0.285156 27.714844 0 27.363281 0 Z M 21.636719 22.90625 L 3.816406 22.90625 L 3.816406 21.636719 L 21.636719 21.636719 Z M 21.636719 17.816406 L 3.816406 17.816406 L 3.816406 16.546875 L 21.636719 16.546875 Z M 21.636719 12.726562 L 3.816406 12.726562 L 3.816406 11.453125 L 21.636719 11.453125 Z M 21.636719 7.636719 L 3.816406 7.636719 L 3.816406 6.363281 L 21.636719 6.363281 Z M 21.636719 2.546875 L 3.816406 2.546875 L 3.816406 1.273438 L 21.636719 1.273438 Z M 21.636719 2.546875 "/>
</g>
</svg>
