<?xml version="1.0" encoding="UTF-8"?>
<svg xmlns="http://www.w3.org/2000/svg" xmlns:xlink="http://www.w3.org/1999/xlink" width="28pt" height="28pt" viewBox="0 0 28 28" version="1.1">
<g id="surface1">
<path style=" stroke:none;fill-rule:nonzero;fill:rgb(0%,0%,0%);fill-opacity:1;" d="M 11.816406 0.00390625 C 14.644531 0.00390625 16.949219 2.28125 16.949219 5.082031 L 16.949219 7.898438 C 16.949219 10.324219 18.945312 12.292969 21.402344 12.292969 L 24.554688 12.292969 L 24.554688 7.171875 C 24.554688 6.230469 25.328125 5.46875 26.277344 5.46875 L 27.65625 5.46875 C 27.847656 5.46875 28 5.621094 28 5.808594 L 28 20.828125 C 28 21.019531 27.847656 21.171875 27.65625 21.171875 L 26.277344 21.171875 C 25.328125 21.171875 24.554688 20.40625 24.554688 19.464844 L 24.554688 14.34375 L 21.402344 14.34375 C 17.808594 14.34375 14.886719 11.453125 14.886719 7.898438 L 14.886719 5.082031 C 14.886719 3.382812 13.492188 2.050781 11.71875 2.050781 C 10.035156 2.050781 8.660156 3.40625 8.648438 5.070312 L 8.648438 8.417969 C 9.488281 8.792969 10.042969 9.617188 10.042969 10.558594 L 10.042969 10.929688 L 11.316406 10.929688 C 12.144531 10.929688 12.863281 11.511719 13.023438 12.316406 L 15.226562 23.210938 C 15.328125 23.714844 15.199219 24.234375 14.875 24.628906 C 14.542969 25.035156 14.050781 25.269531 13.527344 25.269531 L 10.707031 25.269531 C 10.535156 26.800781 9.222656 28 7.628906 28 C 6.035156 28 4.722656 26.800781 4.550781 25.269531 L 1.730469 25.269531 C 1.207031 25.269531 0.714844 25.035156 0.382812 24.632812 C 0.0585938 24.234375 -0.0703125 23.714844 0.03125 23.210938 L 2.234375 12.316406 C 2.398438 11.511719 3.113281 10.929688 3.941406 10.929688 L 5.214844 10.929688 L 5.214844 10.558594 C 5.214844 9.621094 5.761719 8.796875 6.582031 8.433594 L 6.582031 5.070312 C 6.597656 2.277344 8.898438 0.00390625 11.71875 0.00390625 Z M 11.816406 0.6875 L 11.71875 0.6875 C 9.277344 0.6875 7.277344 2.652344 7.265625 5.070312 L 7.265625 8.222656 C 7.484375 8.191406 7.71875 8.183594 7.964844 8.222656 L 7.964844 5.070312 C 7.980469 3.03125 9.664062 1.371094 11.71875 1.371094 C 13.875 1.371094 15.566406 3.003906 15.566406 5.085938 L 15.566406 7.902344 C 15.566406 11.078125 18.183594 13.664062 21.402344 13.664062 L 24.554688 13.664062 L 24.554688 12.980469 L 21.402344 12.980469 C 18.570312 12.980469 16.265625 10.703125 16.265625 7.902344 L 16.265625 5.085938 C 16.265625 2.660156 14.269531 0.6875 11.816406 0.6875 Z M 27.316406 6.148438 L 26.277344 6.148438 C 25.703125 6.148438 25.238281 6.609375 25.238281 7.171875 L 25.238281 19.464844 C 25.238281 20.027344 25.703125 20.488281 26.277344 20.488281 L 27.316406 20.488281 Z M 26.277344 6.832031 C 26.46875 6.832031 26.621094 6.984375 26.621094 7.171875 L 26.621094 19.464844 C 26.621094 19.652344 26.46875 19.804688 26.277344 19.804688 C 26.089844 19.804688 25.9375 19.652344 25.9375 19.464844 L 25.9375 7.171875 C 25.9375 6.984375 26.089844 6.832031 26.277344 6.832031 Z M 7.636719 8.878906 C 7.4375 8.878906 7.230469 8.910156 7.03125 8.988281 C 6.355469 9.207031 5.898438 9.835938 5.898438 10.558594 L 5.898438 10.929688 L 9.359375 10.929688 L 9.359375 10.558594 C 9.359375 9.832031 8.894531 9.191406 8.199219 8.972656 C 8.027344 8.914062 7.835938 8.878906 7.636719 8.878906 Z M 11.316406 11.613281 L 3.941406 11.613281 C 3.4375 11.613281 3 11.964844 2.902344 12.449219 L 0.699219 23.347656 C 0.640625 23.648438 0.714844 23.960938 0.914062 24.199219 C 1.113281 24.445312 1.410156 24.585938 1.730469 24.585938 L 13.527344 24.585938 C 13.847656 24.585938 14.144531 24.445312 14.34375 24.199219 C 14.539062 23.960938 14.617188 23.648438 14.558594 23.347656 L 12.351562 12.449219 C 12.253906 11.964844 11.820312 11.613281 11.316406 11.613281 Z M 10.019531 25.269531 L 5.234375 25.269531 C 5.40625 26.421875 6.410156 27.316406 7.628906 27.316406 C 8.847656 27.316406 9.851562 26.421875 10.019531 25.269531 Z M 10.019531 25.269531 "/>
</g>
</svg>
