<?xml version="1.0" encoding="UTF-8"?>
<svg xmlns="http://www.w3.org/2000/svg" xmlns:xlink="http://www.w3.org/1999/xlink" width="28pt" height="27pt" viewBox="0 0 28 27" version="1.1">
<g id="surface1">
<path style=" stroke:none;fill-rule:nonzero;fill:rgb(0%,0%,0%);fill-opacity:1;" d="M 25.511719 0.101562 L 21.308594 0.101562 C 20.425781 0.101562 19.652344 0.546875 19.207031 1.214844 L 17.707031 1.214844 C 17.660156 1.214844 17.613281 1.214844 17.566406 1.21875 C 16.421875 1.253906 15.351562 1.707031 14.550781 2.5 C 14.34375 2.710938 14.160156 2.933594 14 3.171875 C 13.839844 2.933594 13.65625 2.710938 13.449219 2.5 C 12.648438 1.707031 11.578125 1.253906 10.433594 1.21875 C 10.386719 1.214844 10.339844 1.214844 10.292969 1.214844 L 8.792969 1.214844 C 8.347656 0.546875 7.574219 0.101562 6.691406 0.101562 L 2.488281 0.101562 C 1.117188 0.101562 0 1.179688 0 2.503906 C 0 2.796875 0.199219 3.058594 0.492188 3.140625 L 6.492188 4.875 C 6.558594 4.894531 6.625 4.90625 6.691406 4.90625 C 8.050781 4.90625 9.15625 3.851562 9.179688 2.546875 L 10.292969 2.546875 C 10.324219 2.546875 10.359375 2.546875 10.390625 2.550781 C 12.027344 2.597656 13.308594 3.875 13.308594 5.453125 L 13.308594 25.214844 L 11.207031 25.214844 L 11.207031 26.898438 L 16.792969 26.898438 L 16.792969 25.214844 L 14.691406 25.214844 L 14.691406 5.453125 C 14.691406 3.875 15.972656 2.597656 17.609375 2.550781 C 17.640625 2.546875 17.675781 2.546875 17.707031 2.546875 L 18.820312 2.546875 C 18.84375 3.851562 19.949219 4.90625 21.308594 4.90625 C 21.375 4.90625 21.441406 4.894531 21.507812 4.875 L 27.507812 3.140625 C 27.800781 3.058594 28 2.796875 28 2.503906 C 28 1.179688 26.882812 0.101562 25.511719 0.101562 Z M 6.78125 3.570312 L 1.492188 2.039062 C 1.671875 1.683594 2.050781 1.433594 2.488281 1.433594 L 6.691406 1.433594 C 7.304688 1.433594 7.800781 1.914062 7.800781 2.503906 C 7.800781 3.0625 7.351562 3.523438 6.78125 3.570312 Z M 21.21875 3.570312 C 20.648438 3.523438 20.199219 3.0625 20.199219 2.503906 C 20.199219 1.914062 20.695312 1.433594 21.308594 1.433594 L 25.511719 1.433594 C 25.949219 1.433594 26.328125 1.683594 26.507812 2.039062 Z M 21.21875 3.570312 "/>
</g>
</svg>
