<?xml version="1.0" encoding="UTF-8"?>
<svg xmlns="http://www.w3.org/2000/svg" xmlns:xlink="http://www.w3.org/1999/xlink" width="28pt" height="28pt" viewBox="0 0 28 28" version="1.1">
<g id="surface1">
<path style=" stroke:none;fill-rule:nonzero;fill:rgb(0%,0%,0%);fill-opacity:1;" d="M 22.59375 10.394531 L 20.4375 1.769531 C 20.175781 0.726562 19.242188 0 18.171875 0 L 9.886719 0 C 8.816406 0 7.882812 0.726562 7.625 1.769531 L 5.46875 10.394531 C 5.363281 10.8125 5.457031 11.253906 5.722656 11.59375 C 5.988281 11.933594 6.394531 12.132812 6.824219 12.132812 L 12.628906 12.132812 L 12.628906 25.199219 L 8.894531 25.199219 C 8.125 25.199219 7.496094 25.828125 7.496094 26.601562 C 7.496094 27.375 8.125 28 8.894531 28 L 19.164062 28 C 19.9375 28 20.5625 27.375 20.5625 26.601562 C 20.5625 25.828125 19.9375 25.199219 19.164062 25.199219 L 15.429688 25.199219 L 15.429688 12.132812 L 19.164062 12.132812 L 19.164062 16.332031 L 18.695312 16.332031 C 18.4375 16.332031 18.230469 16.542969 18.230469 16.800781 L 18.230469 18.667969 C 18.230469 18.925781 18.4375 19.132812 18.695312 19.132812 L 20.5625 19.132812 C 20.820312 19.132812 21.03125 18.925781 21.03125 18.667969 L 21.03125 16.800781 C 21.03125 16.542969 20.820312 16.332031 20.5625 16.332031 L 20.097656 16.332031 L 20.097656 12.132812 L 21.234375 12.132812 C 21.664062 12.132812 22.074219 11.933594 22.335938 11.59375 C 22.601562 11.253906 22.695312 10.8125 22.59375 10.394531 Z M 20.097656 18.199219 L 19.164062 18.199219 L 19.164062 17.265625 L 20.097656 17.265625 Z M 19.628906 26.601562 C 19.628906 26.859375 19.421875 27.066406 19.164062 27.066406 L 8.894531 27.066406 C 8.636719 27.066406 8.429688 26.859375 8.429688 26.601562 C 8.429688 26.34375 8.636719 26.132812 8.894531 26.132812 L 19.164062 26.132812 C 19.421875 26.132812 19.628906 26.34375 19.628906 26.601562 Z M 14.496094 25.199219 L 13.5625 25.199219 L 13.5625 12.132812 L 14.496094 12.132812 Z M 21.601562 11.019531 C 21.515625 11.132812 21.378906 11.199219 21.234375 11.199219 L 6.824219 11.199219 C 6.679688 11.199219 6.546875 11.132812 6.457031 11.019531 C 6.367188 10.90625 6.335938 10.757812 6.371094 10.621094 L 8.527344 1.992188 C 8.683594 1.371094 9.246094 0.933594 9.886719 0.933594 L 18.171875 0.933594 C 18.816406 0.933594 19.375 1.371094 19.53125 1.992188 L 21.6875 10.621094 C 21.722656 10.757812 21.691406 10.90625 21.601562 11.019531 Z M 21.601562 11.019531 "/>
<path style=" stroke:none;fill-rule:nonzero;fill:rgb(0%,0%,0%);fill-opacity:1;" d="M 10.761719 1.398438 L 9.886719 1.398438 C 9.457031 1.398438 9.085938 1.691406 8.980469 2.109375 L 8.71875 3.160156 C 8.65625 3.410156 8.808594 3.660156 9.058594 3.722656 C 9.09375 3.734375 9.132812 3.738281 9.171875 3.738281 C 9.386719 3.738281 9.574219 3.59375 9.625 3.386719 L 9.886719 2.332031 L 10.761719 2.332031 C 11.019531 2.332031 11.230469 2.125 11.230469 1.867188 C 11.230469 1.609375 11.019531 1.398438 10.761719 1.398438 Z M 10.761719 1.398438 "/>
</g>
</svg>
