<?xml version="1.0" encoding="UTF-8"?>
<svg xmlns="http://www.w3.org/2000/svg" xmlns:xlink="http://www.w3.org/1999/xlink" width="28pt" height="28pt" viewBox="0 0 28 28" version="1.1">
<g id="surface1">
<path style=" stroke:none;fill-rule:nonzero;fill:rgb(60.784314%,78.823529%,100%);fill-opacity:1;" d="M 12.59375 4.667969 L 12.59375 6.191406 C 13.519531 6.023438 14.46875 6.023438 15.394531 6.191406 L 15.394531 4.667969 C 15.394531 3.894531 14.769531 3.265625 13.996094 3.265625 C 13.222656 3.265625 12.59375 3.894531 12.59375 4.667969 Z M 12.59375 4.667969 "/>
<path style=" stroke:none;fill-rule:nonzero;fill:rgb(60.784314%,78.823529%,100%);fill-opacity:1;" d="M 5.402344 14.273438 C 5.226562 14.449219 5.125 14.6875 5.128906 14.933594 C 5.128906 15.449219 5.546875 15.863281 6.0625 15.867188 L 21.925781 15.867188 C 22.441406 15.867188 22.859375 15.449219 22.859375 14.933594 C 22.859375 14.417969 22.441406 14 21.925781 14 L 6.0625 14 C 5.8125 14 5.574219 14.097656 5.402344 14.273438 Z M 5.402344 14.273438 "/>
<path style=" stroke:none;fill-rule:nonzero;fill:rgb(60.784314%,78.823529%,100%);fill-opacity:1;" d="M 12.59375 6.191406 C 8.8125 6.867188 6.058594 10.15625 6.0625 14 L 21.925781 14 C 21.929688 10.15625 19.175781 6.867188 15.394531 6.191406 C 14.46875 6.023438 13.519531 6.023438 12.59375 6.191406 Z M 12.59375 6.191406 "/>
<path style=" stroke:none;fill-rule:nonzero;fill:rgb(11.764706%,50.588235%,80.784314%);fill-opacity:1;" d="M 13.996094 28 C 13.738281 28 13.527344 27.792969 13.527344 27.535156 L 13.527344 21.933594 C 13.527344 21.675781 13.738281 21.464844 13.996094 21.464844 C 14.253906 21.464844 14.460938 21.675781 14.460938 21.933594 L 14.460938 27.535156 C 14.460938 27.792969 14.253906 28 13.996094 28 Z M 13.996094 28 "/>
<path style=" stroke:none;fill-rule:nonzero;fill:rgb(11.764706%,50.588235%,80.784314%);fill-opacity:1;" d="M 2.273438 21.234375 C 2.0625 21.234375 1.878906 21.089844 1.824219 20.886719 C 1.769531 20.683594 1.859375 20.46875 2.042969 20.363281 L 6.890625 17.5625 C 7.035156 17.476562 7.214844 17.476562 7.359375 17.558594 C 7.503906 17.644531 7.59375 17.796875 7.59375 17.964844 C 7.59375 18.132812 7.503906 18.289062 7.359375 18.371094 L 2.507812 21.171875 C 2.4375 21.210938 2.355469 21.234375 2.273438 21.234375 Z M 2.273438 21.234375 "/>
<path style=" stroke:none;fill-rule:nonzero;fill:rgb(11.764706%,50.588235%,80.784314%);fill-opacity:1;" d="M 7.226562 26.1875 C 7.0625 26.1875 6.90625 26.097656 6.824219 25.953125 C 6.742188 25.808594 6.742188 25.632812 6.824219 25.488281 L 9.625 20.636719 C 9.707031 20.492188 9.859375 20.402344 10.027344 20.402344 C 10.195312 20.402344 10.351562 20.492188 10.433594 20.636719 C 10.519531 20.78125 10.515625 20.960938 10.433594 21.105469 L 7.632812 25.953125 C 7.550781 26.097656 7.394531 26.1875 7.226562 26.1875 Z M 7.226562 26.1875 "/>
<path style=" stroke:none;fill-rule:nonzero;fill:rgb(11.764706%,50.588235%,80.784314%);fill-opacity:1;" d="M 13.996094 28 C 13.738281 28 13.527344 27.792969 13.527344 27.535156 L 13.527344 21.933594 C 13.527344 21.675781 13.738281 21.464844 13.996094 21.464844 C 14.253906 21.464844 14.460938 21.675781 14.460938 21.933594 L 14.460938 27.535156 C 14.460938 27.792969 14.253906 28 13.996094 28 Z M 13.996094 28 "/>
<path style=" stroke:none;fill-rule:nonzero;fill:rgb(11.764706%,50.588235%,80.784314%);fill-opacity:1;" d="M 20.761719 26.1875 C 20.59375 26.1875 20.441406 26.097656 20.355469 25.953125 L 17.554688 21.105469 C 17.472656 20.960938 17.472656 20.78125 17.554688 20.636719 C 17.636719 20.492188 17.792969 20.402344 17.960938 20.402344 C 18.128906 20.402344 18.28125 20.492188 18.363281 20.636719 L 21.164062 25.488281 C 21.25 25.632812 21.25 25.808594 21.164062 25.953125 C 21.082031 26.097656 20.929688 26.1875 20.761719 26.1875 Z M 20.761719 26.1875 "/>
<path style=" stroke:none;fill-rule:nonzero;fill:rgb(11.764706%,50.588235%,80.784314%);fill-opacity:1;" d="M 25.714844 21.234375 C 25.632812 21.234375 25.550781 21.210938 25.480469 21.171875 L 20.632812 18.371094 C 20.484375 18.289062 20.394531 18.132812 20.394531 17.964844 C 20.394531 17.796875 20.484375 17.644531 20.628906 17.558594 C 20.773438 17.476562 20.953125 17.476562 21.097656 17.5625 L 25.945312 20.363281 C 26.128906 20.46875 26.21875 20.683594 26.164062 20.886719 C 26.109375 21.089844 25.925781 21.234375 25.714844 21.234375 Z M 25.714844 21.234375 "/>
<path style=" stroke:none;fill-rule:nonzero;fill:rgb(11.764706%,50.588235%,80.784314%);fill-opacity:1;" d="M 22.378906 13.613281 C 22.210938 9.84375 19.542969 6.648438 15.859375 5.820312 L 15.859375 4.667969 C 15.863281 3.816406 15.285156 3.074219 14.460938 2.867188 L 14.460938 0 L 13.527344 0 L 13.527344 2.867188 C 12.707031 3.078125 12.128906 3.816406 12.128906 4.667969 L 12.128906 5.820312 C 8.445312 6.648438 5.777344 9.84375 5.613281 13.613281 C 5.410156 13.675781 5.226562 13.789062 5.078125 13.9375 C 4.808594 14.199219 4.660156 14.558594 4.660156 14.933594 C 4.660156 15.707031 5.289062 16.332031 6.0625 16.332031 L 8.398438 16.332031 C 9.339844 18.59375 11.546875 20.066406 13.996094 20.066406 C 16.441406 20.066406 18.648438 18.59375 19.589844 16.332031 L 21.925781 16.332031 C 22.613281 16.335938 23.195312 15.839844 23.308594 15.164062 C 23.421875 14.488281 23.027344 13.832031 22.378906 13.613281 Z M 13.0625 4.667969 C 13.0625 4.152344 13.480469 3.734375 13.996094 3.734375 C 14.507812 3.734375 14.925781 4.152344 14.925781 4.667969 L 14.925781 5.652344 C 14.898438 5.648438 14.871094 5.652344 14.84375 5.648438 C 14.59375 5.621094 14.339844 5.609375 14.085938 5.605469 C 14.054688 5.605469 14.023438 5.601562 13.992188 5.601562 C 13.960938 5.601562 13.9375 5.605469 13.90625 5.605469 C 13.652344 5.605469 13.394531 5.621094 13.144531 5.648438 C 13.117188 5.648438 13.085938 5.648438 13.058594 5.652344 Z M 12.679688 6.652344 C 13.550781 6.496094 14.441406 6.496094 15.308594 6.652344 L 15.320312 6.652344 C 18.707031 7.253906 21.238281 10.097656 21.445312 13.535156 L 6.542969 13.535156 C 6.75 10.097656 9.289062 7.25 12.679688 6.652344 Z M 13.996094 19.132812 C 12.066406 19.132812 10.296875 18.050781 9.421875 16.332031 L 18.566406 16.332031 C 17.691406 18.050781 15.921875 19.132812 13.996094 19.132812 Z M 21.925781 15.398438 L 6.0625 15.398438 C 5.804688 15.398438 5.59375 15.191406 5.59375 14.933594 C 5.59375 14.808594 5.644531 14.6875 5.738281 14.601562 C 5.824219 14.515625 5.941406 14.464844 6.0625 14.464844 L 21.925781 14.464844 C 22.183594 14.464844 22.394531 14.675781 22.394531 14.933594 C 22.394531 15.191406 22.183594 15.398438 21.925781 15.398438 Z M 21.925781 15.398438 "/>
</g>
</svg>
