<?xml version="1.0" encoding="UTF-8"?>
<svg xmlns="http://www.w3.org/2000/svg" xmlns:xlink="http://www.w3.org/1999/xlink" width="28pt" height="28pt" viewBox="0 0 28 28" version="1.1">
<g id="surface1">
<path style=" stroke:none;fill-rule:nonzero;fill:rgb(0%,0%,0%);fill-opacity:1;" d="M 23.492188 4.746094 L 23.292969 4.746094 C 22.671875 3.707031 20.027344 0 14 0 C 7.972656 0 5.328125 3.707031 4.707031 4.746094 L 4.507812 4.746094 C 3.984375 4.746094 3.558594 5.171875 3.558594 5.695312 L 3.558594 6.644531 C 3.558594 7.167969 3.984375 7.59375 4.507812 7.59375 L 4.507812 9.015625 C 4.496094 13.265625 7.46875 16.941406 11.628906 17.820312 L 11.628906 18.984375 C 11.628906 19.246094 11.839844 19.457031 12.101562 19.457031 L 12.101562 27.527344 C 12.101562 27.789062 12.3125 28 12.578125 28 L 15.421875 28 C 15.6875 28 15.898438 27.789062 15.898438 27.527344 L 15.898438 19.457031 C 16.160156 19.457031 16.371094 19.246094 16.371094 18.984375 L 16.371094 17.820312 C 20.53125 16.941406 23.503906 13.265625 23.492188 9.015625 L 23.492188 7.59375 C 24.015625 7.59375 24.441406 7.167969 24.441406 6.644531 L 24.441406 5.695312 C 24.441406 5.171875 24.015625 4.746094 23.492188 4.746094 Z M 14 0.949219 C 18.730469 0.949219 21.207031 3.488281 22.144531 4.746094 L 5.851562 4.746094 C 6.78125 3.488281 9.25 0.949219 14 0.949219 Z M 13.527344 18.035156 L 14.472656 18.035156 C 14.765625 18.035156 15.054688 18.015625 15.339844 17.988281 C 15.367188 17.984375 15.394531 17.988281 15.421875 17.980469 L 15.421875 18.507812 L 12.578125 18.507812 L 12.578125 17.984375 C 12.605469 17.984375 12.632812 17.984375 12.660156 17.988281 C 12.949219 18.015625 13.238281 18.035156 13.527344 18.035156 Z M 14.949219 27.050781 L 13.050781 27.050781 L 13.050781 19.457031 L 14.949219 19.457031 Z M 22.542969 9.015625 C 22.554688 12.960938 19.707031 16.328125 15.816406 16.96875 C 15.375 17.046875 14.925781 17.085938 14.472656 17.085938 L 13.527344 17.085938 C 13.300781 17.085938 13.074219 17.074219 12.851562 17.054688 C 12.625 17.035156 12.402344 17.007812 12.1875 16.96875 L 12.183594 16.96875 C 8.292969 16.328125 5.445312 12.957031 5.457031 9.015625 L 5.457031 7.59375 L 22.542969 7.59375 Z M 4.507812 6.644531 L 4.507812 5.695312 L 23.492188 5.695312 L 23.492188 6.644531 Z M 4.507812 6.644531 "/>
</g>
</svg>
