<?xml version="1.0" encoding="UTF-8"?>
<svg xmlns="http://www.w3.org/2000/svg" xmlns:xlink="http://www.w3.org/1999/xlink" width="28pt" height="39pt" viewBox="0 0 28 39" version="1.1">
<g id="surface1">
<path style=" stroke:none;fill-rule:nonzero;fill:rgb(0%,0%,0%);fill-opacity:1;" d="M 22.09375 14.152344 L 5.910156 14.152344 L 5.910156 13.351562 L 22.09375 13.351562 L 22.503906 13.75 Z M 22.09375 14.152344 L 22.09375 13.351562 L 22.136719 13.351562 L 22.214844 13.367188 L 22.234375 13.375 L 22.253906 13.378906 L 22.273438 13.386719 L 22.289062 13.398438 L 22.308594 13.40625 L 22.371094 13.453125 L 22.382812 13.46875 L 22.398438 13.480469 L 22.445312 13.542969 L 22.453125 13.558594 L 22.464844 13.578125 L 22.472656 13.59375 L 22.488281 13.632812 L 22.503906 13.710938 L 22.503906 13.796875 L 22.488281 13.875 L 22.480469 13.890625 L 22.464844 13.929688 L 22.453125 13.945312 L 22.445312 13.964844 L 22.410156 14.011719 L 22.355469 14.066406 L 22.308594 14.101562 L 22.289062 14.109375 L 22.273438 14.117188 L 22.214844 14.140625 L 22.136719 14.15625 L 22.09375 14.15625 Z M 21.683594 17.792969 L 21.683594 13.75 L 22.503906 13.75 L 22.503906 17.792969 L 22.09375 18.191406 Z M 21.683594 17.792969 L 22.503906 17.792969 L 22.503906 17.832031 L 22.488281 17.910156 L 22.464844 17.96875 L 22.453125 17.984375 L 22.445312 18 L 22.398438 18.0625 L 22.355469 18.105469 L 22.324219 18.128906 L 22.308594 18.136719 L 22.289062 18.148438 L 22.273438 18.15625 L 22.234375 18.171875 L 22.214844 18.175781 L 22.195312 18.183594 L 22.15625 18.191406 L 22.136719 18.191406 L 22.113281 18.195312 L 22.070312 18.195312 L 22.050781 18.191406 L 22.03125 18.191406 L 21.992188 18.183594 L 21.972656 18.175781 L 21.953125 18.171875 L 21.914062 18.15625 L 21.898438 18.148438 L 21.878906 18.136719 L 21.863281 18.128906 L 21.832031 18.105469 L 21.789062 18.0625 L 21.730469 17.984375 L 21.722656 17.96875 L 21.699219 17.910156 L 21.683594 17.832031 Z M 5.910156 17.390625 L 22.09375 17.390625 L 22.09375 18.191406 L 5.910156 18.191406 L 5.496094 17.792969 Z M 5.910156 17.390625 L 5.910156 18.191406 L 5.867188 18.191406 L 5.847656 18.1875 L 5.824219 18.183594 L 5.785156 18.175781 L 5.765625 18.167969 L 5.75 18.164062 L 5.730469 18.15625 L 5.710938 18.144531 L 5.695312 18.136719 L 5.617188 18.078125 L 5.605469 18.0625 L 5.589844 18.046875 L 5.566406 18.015625 L 5.558594 18 L 5.546875 17.984375 L 5.539062 17.964844 L 5.53125 17.949219 L 5.515625 17.910156 L 5.496094 17.8125 L 5.496094 17.769531 L 5.5 17.746094 L 5.515625 17.667969 L 5.523438 17.652344 L 5.539062 17.613281 L 5.546875 17.597656 L 5.558594 17.578125 L 5.566406 17.5625 L 5.589844 17.53125 L 5.605469 17.519531 L 5.617188 17.503906 L 5.632812 17.492188 L 5.648438 17.476562 L 5.695312 17.441406 L 5.710938 17.433594 L 5.75 17.417969 L 5.765625 17.410156 L 5.785156 17.402344 L 5.824219 17.394531 L 5.847656 17.390625 L 5.867188 17.386719 L 5.910156 17.386719 Z M 6.320312 13.75 L 6.320312 17.792969 L 5.496094 17.792969 L 5.496094 13.75 L 5.910156 13.351562 Z M 6.320312 13.75 L 5.496094 13.75 L 5.496094 13.730469 L 5.515625 13.632812 L 5.539062 13.574219 L 5.546875 13.558594 L 5.558594 13.542969 L 5.566406 13.527344 L 5.589844 13.496094 L 5.605469 13.480469 L 5.617188 13.464844 L 5.632812 13.453125 L 5.648438 13.4375 L 5.679688 13.414062 L 5.695312 13.40625 L 5.710938 13.394531 L 5.75 13.378906 L 5.765625 13.371094 L 5.785156 13.367188 L 5.804688 13.359375 L 5.824219 13.355469 L 5.847656 13.351562 L 5.867188 13.351562 L 5.886719 13.347656 L 5.929688 13.347656 L 5.953125 13.351562 L 5.972656 13.351562 L 6.011719 13.359375 L 6.03125 13.367188 L 6.050781 13.371094 L 6.070312 13.378906 L 6.085938 13.386719 L 6.105469 13.394531 L 6.121094 13.40625 L 6.136719 13.414062 L 6.152344 13.425781 L 6.171875 13.4375 L 6.183594 13.453125 L 6.199219 13.464844 L 6.210938 13.480469 L 6.226562 13.496094 L 6.261719 13.542969 L 6.269531 13.558594 L 6.28125 13.574219 L 6.296875 13.613281 L 6.300781 13.632812 L 6.308594 13.652344 L 6.316406 13.691406 L 6.316406 13.710938 L 6.320312 13.730469 Z M 6.320312 13.75 "/>
<path style=" stroke:none;fill-rule:nonzero;fill:rgb(0%,0%,0%);fill-opacity:1;" d="M 14.410156 19.605469 L 13.59375 19.605469 L 13.59375 19.566406 L 13.597656 19.542969 L 13.609375 19.484375 L 13.617188 19.46875 L 13.632812 19.429688 L 13.640625 19.414062 L 13.652344 19.394531 L 13.660156 19.378906 L 13.671875 19.363281 L 13.699219 19.335938 L 13.710938 19.320312 L 13.726562 19.308594 L 13.742188 19.292969 L 13.789062 19.257812 L 13.808594 19.25 L 13.824219 19.242188 L 13.863281 19.226562 L 13.878906 19.21875 L 13.902344 19.214844 L 13.960938 19.203125 L 14.046875 19.203125 L 14.125 19.21875 L 14.183594 19.242188 L 14.214844 19.257812 L 14.234375 19.269531 L 14.265625 19.292969 L 14.277344 19.308594 L 14.292969 19.320312 L 14.320312 19.347656 L 14.355469 19.394531 L 14.363281 19.414062 L 14.375 19.429688 L 14.382812 19.449219 L 14.386719 19.46875 L 14.394531 19.484375 L 14.402344 19.503906 L 14.410156 19.542969 L 14.410156 19.566406 L 14.414062 19.585938 L 14.414062 19.605469 Z M 13.59375 25.261719 L 13.59375 19.605469 L 14.410156 19.605469 L 14.410156 25.261719 Z M 13.59375 25.261719 L 14.410156 25.261719 L 14.410156 25.304688 L 14.398438 25.363281 L 14.390625 25.382812 L 14.386719 25.402344 L 14.378906 25.421875 L 14.371094 25.4375 L 14.363281 25.457031 L 14.351562 25.472656 L 14.34375 25.488281 L 14.328125 25.503906 L 14.292969 25.550781 L 14.214844 25.609375 L 14.195312 25.617188 L 14.179688 25.628906 L 14.160156 25.636719 L 14.140625 25.640625 L 14.125 25.648438 L 14.101562 25.652344 L 14.082031 25.660156 L 14.0625 25.664062 L 14.042969 25.664062 L 14.023438 25.667969 L 13.980469 25.667969 L 13.957031 25.664062 L 13.9375 25.664062 L 13.917969 25.660156 L 13.898438 25.652344 L 13.878906 25.648438 L 13.859375 25.640625 L 13.839844 25.636719 L 13.820312 25.628906 L 13.804688 25.617188 L 13.785156 25.609375 L 13.722656 25.5625 L 13.695312 25.535156 L 13.648438 25.472656 L 13.640625 25.457031 L 13.628906 25.4375 L 13.621094 25.421875 L 13.613281 25.402344 L 13.609375 25.382812 L 13.601562 25.363281 L 13.59375 25.324219 L 13.59375 25.304688 L 13.589844 25.285156 L 13.589844 25.261719 Z M 13.59375 25.261719 "/>
<path style=" stroke:none;fill-rule:nonzero;fill:rgb(0%,0%,0%);fill-opacity:1;" d="M 18.972656 19.210938 L 18.289062 19.648438 L 18.28125 19.632812 L 18.269531 19.613281 L 18.257812 19.597656 L 18.25 19.578125 L 18.246094 19.558594 L 18.238281 19.539062 L 18.226562 19.480469 L 18.226562 19.460938 L 18.222656 19.441406 L 18.222656 19.421875 L 18.226562 19.402344 L 18.226562 19.382812 L 18.234375 19.34375 L 18.238281 19.328125 L 18.242188 19.308594 L 18.25 19.289062 L 18.253906 19.273438 L 18.261719 19.253906 L 18.273438 19.238281 L 18.28125 19.21875 L 18.316406 19.171875 L 18.359375 19.128906 L 18.390625 19.105469 L 18.410156 19.09375 L 18.425781 19.082031 L 18.445312 19.070312 L 18.464844 19.0625 L 18.480469 19.054688 L 18.5 19.046875 L 18.578125 19.03125 L 18.601562 19.027344 L 18.660156 19.027344 L 18.679688 19.03125 L 18.699219 19.03125 L 18.738281 19.039062 L 18.753906 19.046875 L 18.773438 19.050781 L 18.792969 19.058594 L 18.808594 19.066406 L 18.828125 19.074219 L 18.84375 19.085938 L 18.863281 19.09375 L 18.878906 19.105469 L 18.894531 19.121094 L 18.910156 19.132812 L 18.921875 19.148438 L 18.9375 19.160156 L 18.960938 19.191406 Z M 20.59375 23.125 L 18.289062 19.648438 L 18.972656 19.210938 L 21.277344 22.6875 Z M 20.59375 23.125 L 21.277344 22.6875 L 21.285156 22.703125 L 21.296875 22.722656 L 21.308594 22.738281 L 21.316406 22.757812 L 21.320312 22.777344 L 21.328125 22.792969 L 21.332031 22.8125 L 21.335938 22.835938 L 21.339844 22.855469 L 21.339844 22.875 L 21.34375 22.894531 L 21.34375 22.914062 L 21.339844 22.933594 L 21.339844 22.953125 L 21.332031 22.992188 L 21.328125 23.007812 L 21.324219 23.027344 L 21.316406 23.046875 L 21.3125 23.0625 L 21.300781 23.082031 L 21.285156 23.113281 L 21.273438 23.132812 L 21.25 23.164062 L 21.207031 23.207031 L 21.175781 23.230469 L 21.15625 23.242188 L 21.140625 23.253906 L 21.121094 23.261719 L 21.101562 23.273438 L 21.085938 23.28125 L 21.066406 23.289062 L 20.988281 23.304688 L 20.964844 23.308594 L 20.90625 23.308594 L 20.886719 23.304688 L 20.867188 23.304688 L 20.828125 23.296875 L 20.8125 23.289062 L 20.792969 23.285156 L 20.773438 23.277344 L 20.757812 23.269531 L 20.738281 23.257812 L 20.722656 23.25 L 20.703125 23.238281 L 20.65625 23.203125 L 20.644531 23.1875 L 20.628906 23.175781 L 20.605469 23.144531 Z M 20.59375 23.125 "/>
<path style=" stroke:none;fill-rule:nonzero;fill:rgb(0%,0%,0%);fill-opacity:1;" d="M 9.03125 19.210938 L 9.066406 19.164062 L 9.109375 19.121094 L 9.140625 19.097656 L 9.160156 19.085938 L 9.175781 19.078125 L 9.195312 19.066406 L 9.210938 19.058594 L 9.230469 19.054688 L 9.25 19.046875 L 9.269531 19.042969 L 9.285156 19.039062 L 9.324219 19.03125 L 9.34375 19.03125 L 9.363281 19.027344 L 9.386719 19.027344 L 9.40625 19.03125 L 9.425781 19.03125 L 9.484375 19.042969 L 9.503906 19.050781 L 9.523438 19.054688 L 9.542969 19.0625 L 9.558594 19.074219 L 9.578125 19.082031 L 9.597656 19.09375 L 9.628906 19.117188 L 9.644531 19.132812 L 9.660156 19.144531 L 9.6875 19.171875 L 9.710938 19.203125 L 9.722656 19.222656 L 9.730469 19.238281 L 9.742188 19.253906 L 9.757812 19.292969 L 9.761719 19.308594 L 9.769531 19.328125 L 9.773438 19.347656 L 9.777344 19.363281 L 9.777344 19.382812 L 9.78125 19.402344 L 9.78125 19.464844 L 9.761719 19.5625 L 9.753906 19.578125 L 9.746094 19.597656 L 9.734375 19.617188 L 9.726562 19.632812 L 9.714844 19.652344 Z M 7.410156 23.125 L 6.726562 22.6875 L 9.03125 19.210938 L 9.714844 19.648438 Z M 7.410156 23.125 L 7.386719 23.15625 L 7.371094 23.171875 L 7.359375 23.1875 L 7.332031 23.214844 L 7.3125 23.226562 L 7.28125 23.25 L 7.261719 23.257812 L 7.230469 23.273438 L 7.191406 23.289062 L 7.152344 23.296875 L 7.136719 23.300781 L 7.117188 23.304688 L 7.09375 23.304688 L 7.074219 23.308594 L 7.054688 23.308594 L 7.035156 23.304688 L 7.015625 23.304688 L 6.957031 23.292969 L 6.9375 23.285156 L 6.917969 23.28125 L 6.898438 23.269531 L 6.882812 23.261719 L 6.863281 23.25 L 6.84375 23.242188 L 6.8125 23.21875 L 6.796875 23.203125 L 6.78125 23.191406 L 6.753906 23.164062 L 6.730469 23.132812 L 6.71875 23.113281 L 6.707031 23.097656 L 6.699219 23.078125 L 6.691406 23.0625 L 6.683594 23.042969 L 6.679688 23.027344 L 6.671875 23.007812 L 6.664062 22.96875 L 6.664062 22.949219 L 6.660156 22.929688 L 6.660156 22.871094 L 6.679688 22.773438 L 6.6875 22.757812 L 6.703125 22.71875 L 6.714844 22.703125 L 6.726562 22.683594 L 7.410156 23.121094 Z M 7.410156 23.125 "/>
</g>
</svg>
