<?xml version="1.0" encoding="UTF-8"?>
<svg xmlns="http://www.w3.org/2000/svg" xmlns:xlink="http://www.w3.org/1999/xlink" width="28pt" height="39pt" viewBox="0 0 28 39" version="1.1">
<g id="surface1">
<path style=" stroke:none;fill-rule:nonzero;fill:rgb(0%,0%,0%);fill-opacity:1;" d="M 22.09375 24.859375 L 22.503906 25.261719 L 22.09375 25.664062 L 5.910156 25.664062 L 5.910156 24.859375 Z M 22.09375 24.859375 L 22.136719 24.859375 L 22.214844 24.875 L 22.273438 24.898438 L 22.289062 24.90625 L 22.308594 24.917969 L 22.324219 24.925781 L 22.355469 24.949219 L 22.410156 25.003906 L 22.445312 25.050781 L 22.453125 25.070312 L 22.464844 25.085938 L 22.480469 25.125 L 22.488281 25.140625 L 22.5 25.199219 L 22.503906 25.222656 L 22.503906 25.304688 L 22.488281 25.382812 L 22.472656 25.421875 L 22.464844 25.4375 L 22.453125 25.457031 L 22.445312 25.472656 L 22.398438 25.535156 L 22.371094 25.5625 L 22.308594 25.609375 L 22.289062 25.617188 L 22.273438 25.628906 L 22.253906 25.636719 L 22.234375 25.640625 L 22.214844 25.648438 L 22.195312 25.652344 L 22.175781 25.660156 L 22.15625 25.664062 L 22.136719 25.664062 L 22.113281 25.667969 L 22.09375 25.667969 Z M 21.683594 21.222656 L 22.09375 20.820312 L 22.503906 21.222656 L 22.503906 25.261719 L 21.683594 25.261719 Z M 21.683594 21.222656 L 21.683594 21.179688 L 21.699219 21.101562 L 21.707031 21.082031 L 21.714844 21.066406 L 21.730469 21.027344 L 21.789062 20.949219 L 21.804688 20.9375 L 21.816406 20.921875 L 21.878906 20.875 L 21.898438 20.867188 L 21.914062 20.855469 L 21.933594 20.847656 L 21.953125 20.84375 L 21.972656 20.835938 L 22.050781 20.820312 L 22.136719 20.820312 L 22.214844 20.835938 L 22.234375 20.84375 L 22.253906 20.847656 L 22.273438 20.855469 L 22.289062 20.867188 L 22.308594 20.875 L 22.371094 20.921875 L 22.382812 20.9375 L 22.398438 20.949219 L 22.445312 21.011719 L 22.453125 21.027344 L 22.464844 21.046875 L 22.472656 21.066406 L 22.480469 21.082031 L 22.488281 21.101562 L 22.503906 21.179688 L 22.503906 21.222656 Z M 5.910156 21.625 L 5.496094 21.222656 L 5.910156 20.820312 L 22.09375 20.820312 L 22.09375 21.625 Z M 5.910156 21.625 L 5.886719 21.625 L 5.867188 21.621094 L 5.847656 21.621094 L 5.824219 21.617188 L 5.804688 21.613281 L 5.785156 21.605469 L 5.765625 21.601562 L 5.75 21.59375 L 5.710938 21.578125 L 5.695312 21.566406 L 5.679688 21.558594 L 5.648438 21.535156 L 5.632812 21.519531 L 5.617188 21.507812 L 5.605469 21.492188 L 5.589844 21.476562 L 5.566406 21.445312 L 5.558594 21.429688 L 5.546875 21.414062 L 5.539062 21.398438 L 5.515625 21.339844 L 5.496094 21.242188 L 5.496094 21.199219 L 5.515625 21.101562 L 5.539062 21.042969 L 5.546875 21.027344 L 5.558594 21.011719 L 5.566406 20.996094 L 5.589844 20.964844 L 5.605469 20.949219 L 5.617188 20.933594 L 5.664062 20.898438 L 5.679688 20.882812 L 5.695312 20.875 L 5.710938 20.863281 L 5.75 20.847656 L 5.765625 20.839844 L 5.785156 20.835938 L 5.804688 20.828125 L 5.824219 20.824219 L 5.847656 20.820312 L 5.867188 20.820312 L 5.886719 20.816406 L 5.910156 20.816406 Z M 6.320312 25.261719 L 5.910156 25.664062 L 5.496094 25.261719 L 5.496094 21.222656 L 6.320312 21.222656 Z M 6.320312 25.261719 L 6.320312 25.28125 L 6.316406 25.304688 L 6.316406 25.324219 L 6.308594 25.363281 L 6.300781 25.382812 L 6.296875 25.402344 L 6.289062 25.417969 L 6.28125 25.4375 L 6.269531 25.453125 L 6.261719 25.472656 L 6.226562 25.519531 L 6.171875 25.574219 L 6.152344 25.585938 L 6.121094 25.609375 L 6.105469 25.617188 L 6.085938 25.625 L 6.070312 25.632812 L 6.03125 25.648438 L 5.953125 25.664062 L 5.867188 25.664062 L 5.847656 25.660156 L 5.824219 25.65625 L 5.785156 25.648438 L 5.765625 25.640625 L 5.75 25.632812 L 5.710938 25.617188 L 5.695312 25.609375 L 5.632812 25.5625 L 5.589844 25.519531 L 5.566406 25.488281 L 5.558594 25.472656 L 5.546875 25.453125 L 5.539062 25.4375 L 5.53125 25.417969 L 5.523438 25.402344 L 5.515625 25.382812 L 5.5 25.304688 L 5.496094 25.28125 L 5.496094 25.261719 Z M 6.320312 25.261719 "/>
<path style=" stroke:none;fill-rule:nonzero;fill:rgb(0%,0%,0%);fill-opacity:1;" d="M 14.410156 19.40625 L 14.410156 19.449219 L 14.398438 19.507812 L 14.390625 19.527344 L 14.386719 19.546875 L 14.378906 19.566406 L 14.371094 19.582031 L 14.363281 19.601562 L 14.351562 19.617188 L 14.34375 19.632812 L 14.328125 19.648438 L 14.304688 19.679688 L 14.277344 19.707031 L 14.214844 19.753906 L 14.195312 19.761719 L 14.179688 19.773438 L 14.160156 19.78125 L 14.140625 19.785156 L 14.125 19.792969 L 14.101562 19.796875 L 14.042969 19.808594 L 13.957031 19.808594 L 13.878906 19.792969 L 13.859375 19.785156 L 13.839844 19.78125 L 13.820312 19.773438 L 13.804688 19.761719 L 13.785156 19.753906 L 13.722656 19.707031 L 13.710938 19.691406 L 13.695312 19.679688 L 13.648438 19.617188 L 13.640625 19.601562 L 13.628906 19.582031 L 13.621094 19.566406 L 13.613281 19.546875 L 13.609375 19.527344 L 13.601562 19.507812 L 13.59375 19.46875 L 13.59375 19.449219 L 13.589844 19.429688 L 13.589844 19.40625 Z M 13.59375 13.75 L 14.410156 13.75 L 14.410156 19.40625 L 13.59375 19.40625 Z M 13.59375 13.75 L 13.59375 13.707031 L 13.609375 13.628906 L 13.617188 13.613281 L 13.632812 13.574219 L 13.640625 13.558594 L 13.652344 13.539062 L 13.660156 13.523438 L 13.671875 13.507812 L 13.699219 13.480469 L 13.710938 13.464844 L 13.726562 13.449219 L 13.789062 13.402344 L 13.808594 13.394531 L 13.824219 13.386719 L 13.863281 13.371094 L 13.878906 13.363281 L 13.902344 13.359375 L 13.960938 13.347656 L 14.046875 13.347656 L 14.125 13.363281 L 14.183594 13.386719 L 14.214844 13.402344 L 14.234375 13.414062 L 14.265625 13.4375 L 14.320312 13.492188 L 14.355469 13.539062 L 14.363281 13.558594 L 14.375 13.574219 L 14.382812 13.59375 L 14.386719 13.613281 L 14.394531 13.628906 L 14.402344 13.648438 L 14.410156 13.6875 L 14.410156 13.707031 L 14.414062 13.730469 L 14.414062 13.75 Z M 13.59375 13.75 "/>
<path style=" stroke:none;fill-rule:nonzero;fill:rgb(0%,0%,0%);fill-opacity:1;" d="M 18.972656 19.800781 L 18.960938 19.820312 L 18.9375 19.851562 L 18.921875 19.867188 L 18.90625 19.878906 L 18.894531 19.894531 L 18.878906 19.90625 L 18.859375 19.917969 L 18.84375 19.925781 L 18.828125 19.9375 L 18.808594 19.945312 L 18.792969 19.953125 L 18.773438 19.960938 L 18.753906 19.964844 L 18.734375 19.972656 L 18.71875 19.976562 L 18.699219 19.980469 L 18.679688 19.980469 L 18.660156 19.984375 L 18.597656 19.984375 L 18.5 19.964844 L 18.460938 19.949219 L 18.445312 19.941406 L 18.40625 19.917969 L 18.34375 19.871094 L 18.328125 19.855469 L 18.28125 19.792969 L 18.273438 19.773438 L 18.261719 19.757812 L 18.253906 19.742188 L 18.246094 19.722656 L 18.242188 19.703125 L 18.234375 19.683594 L 18.230469 19.667969 L 18.226562 19.648438 L 18.226562 19.628906 L 18.222656 19.609375 L 18.222656 19.550781 L 18.242188 19.453125 L 18.25 19.433594 L 18.257812 19.417969 L 18.269531 19.398438 L 18.277344 19.378906 L 18.289062 19.363281 Z M 20.59375 15.890625 L 21.277344 16.328125 L 18.972656 19.800781 L 18.289062 19.363281 Z M 20.59375 15.890625 L 20.605469 15.871094 L 20.628906 15.839844 L 20.644531 15.824219 L 20.660156 15.8125 L 20.671875 15.796875 L 20.6875 15.785156 L 20.707031 15.773438 L 20.722656 15.765625 L 20.738281 15.753906 L 20.757812 15.746094 L 20.773438 15.738281 L 20.792969 15.730469 L 20.8125 15.726562 L 20.832031 15.71875 L 20.847656 15.714844 L 20.867188 15.710938 L 20.886719 15.710938 L 20.90625 15.707031 L 20.96875 15.707031 L 21.066406 15.726562 L 21.105469 15.742188 L 21.121094 15.75 L 21.160156 15.773438 L 21.222656 15.820312 L 21.238281 15.835938 L 21.285156 15.898438 L 21.292969 15.917969 L 21.304688 15.933594 L 21.3125 15.949219 L 21.320312 15.96875 L 21.324219 15.988281 L 21.332031 16.007812 L 21.335938 16.023438 L 21.339844 16.042969 L 21.339844 16.0625 L 21.34375 16.082031 L 21.34375 16.140625 L 21.324219 16.238281 L 21.316406 16.257812 L 21.308594 16.273438 L 21.296875 16.292969 L 21.289062 16.3125 L 21.277344 16.328125 Z M 20.59375 15.890625 "/>
<path style=" stroke:none;fill-rule:nonzero;fill:rgb(0%,0%,0%);fill-opacity:1;" d="M 9.03125 19.800781 L 9.714844 19.363281 L 9.722656 19.378906 L 9.734375 19.398438 L 9.75 19.4375 L 9.757812 19.453125 L 9.765625 19.472656 L 9.777344 19.53125 L 9.777344 19.550781 L 9.78125 19.570312 L 9.78125 19.589844 L 9.777344 19.609375 L 9.777344 19.628906 L 9.765625 19.6875 L 9.761719 19.703125 L 9.746094 19.742188 L 9.738281 19.757812 L 9.730469 19.777344 L 9.722656 19.792969 L 9.6875 19.839844 L 9.671875 19.855469 L 9.660156 19.871094 L 9.644531 19.882812 L 9.628906 19.898438 L 9.613281 19.910156 L 9.59375 19.921875 L 9.578125 19.929688 L 9.558594 19.941406 L 9.519531 19.957031 L 9.503906 19.964844 L 9.484375 19.96875 L 9.464844 19.976562 L 9.445312 19.980469 L 9.425781 19.980469 L 9.402344 19.984375 L 9.324219 19.984375 L 9.246094 19.96875 L 9.230469 19.960938 L 9.191406 19.945312 L 9.160156 19.929688 L 9.140625 19.917969 L 9.09375 19.882812 L 9.078125 19.867188 L 9.042969 19.820312 L 9.027344 19.804688 Z M 7.410156 15.890625 L 9.714844 19.363281 L 9.03125 19.800781 L 6.726562 16.328125 Z M 7.410156 15.890625 L 6.726562 16.328125 L 6.71875 16.3125 L 6.695312 16.273438 L 6.6875 16.253906 L 6.683594 16.238281 L 6.675781 16.21875 L 6.664062 16.160156 L 6.664062 16.140625 L 6.660156 16.121094 L 6.660156 16.101562 L 6.664062 16.082031 L 6.664062 16.0625 L 6.679688 15.984375 L 6.6875 15.96875 L 6.691406 15.949219 L 6.699219 15.933594 L 6.710938 15.914062 L 6.71875 15.898438 L 6.765625 15.835938 L 6.78125 15.820312 L 6.796875 15.808594 L 6.8125 15.792969 L 6.828125 15.78125 L 6.847656 15.769531 L 6.863281 15.761719 L 6.882812 15.75 L 6.902344 15.742188 L 6.917969 15.734375 L 6.9375 15.726562 L 6.957031 15.722656 L 6.976562 15.714844 L 6.996094 15.710938 L 7.015625 15.710938 L 7.035156 15.707031 L 7.117188 15.707031 L 7.175781 15.71875 L 7.191406 15.722656 L 7.230469 15.738281 L 7.246094 15.746094 L 7.265625 15.753906 L 7.28125 15.761719 L 7.300781 15.773438 L 7.347656 15.808594 L 7.359375 15.824219 L 7.375 15.839844 L 7.410156 15.886719 Z M 7.410156 15.890625 "/>
</g>
</svg>
