<?xml version="1.0" encoding="UTF-8"?>
<svg xmlns="http://www.w3.org/2000/svg" xmlns:xlink="http://www.w3.org/1999/xlink" width="28pt" height="28pt" viewBox="0 0 28 28" version="1.1">
<g id="surface1">
<path style=" stroke:none;fill-rule:nonzero;fill:rgb(0%,0%,0%);fill-opacity:1;" d="M 10.324219 2.660156 L 9.507812 1.117188 C 8.941406 1.417969 8.40625 1.769531 7.910156 2.175781 L 9.015625 3.53125 C 9.421875 3.199219 9.859375 2.90625 10.324219 2.660156 Z M 10.324219 2.660156 "/>
<path style=" stroke:none;fill-rule:nonzero;fill:rgb(0%,0%,0%);fill-opacity:1;" d="M 7.902344 4.644531 L 6.550781 3.535156 C 6.144531 4.03125 5.785156 4.566406 5.488281 5.136719 L 7.035156 5.953125 C 7.277344 5.488281 7.570312 5.050781 7.902344 4.644531 Z M 7.902344 4.644531 "/>
<path style=" stroke:none;fill-rule:nonzero;fill:rgb(0%,0%,0%);fill-opacity:1;" d="M 23.589844 10.300781 C 23.605469 10.074219 23.621094 9.851562 23.621094 9.625 C 23.617188 4.308594 19.300781 0 13.980469 0.00390625 C 13.070312 0.00390625 12.164062 0.136719 11.289062 0.390625 L 11.78125 2.070312 C 15.953125 0.847656 20.328125 3.242188 21.546875 7.414062 C 21.738281 8.066406 21.84375 8.738281 21.863281 9.417969 C 19.308594 8.410156 16.441406 8.554688 14 9.8125 C 11.5625 8.554688 8.695312 8.40625 6.140625 9.414062 C 6.15625 8.734375 6.257812 8.0625 6.445312 7.410156 L 4.765625 6.914062 C 4.507812 7.796875 4.378906 8.707031 4.378906 9.625 C 4.378906 9.851562 4.394531 10.074219 4.410156 10.300781 C -0.0507812 13.171875 -1.34375 19.121094 1.53125 23.582031 C 4.207031 27.742188 9.601562 29.191406 14 26.933594 C 18.722656 29.355469 24.515625 27.492188 26.9375 22.769531 C 29.195312 18.371094 27.746094 12.976562 23.589844 10.300781 Z M 18.375 10.5 C 19.523438 10.503906 20.660156 10.757812 21.703125 11.25 C 21.320312 13.046875 20.324219 14.652344 18.886719 15.789062 C 18.355469 13.898438 17.261719 12.210938 15.75 10.960938 C 16.589844 10.65625 17.480469 10.503906 18.375 10.5 Z M 14 11.832031 C 15.707031 12.976562 16.902344 14.742188 17.328125 16.75 C 15.222656 17.75 12.777344 17.75 10.671875 16.75 C 11.097656 14.742188 12.292969 12.976562 14 11.832031 Z M 9.625 10.5 C 10.519531 10.503906 11.410156 10.65625 12.25 10.960938 C 10.738281 12.210938 9.644531 13.898438 9.117188 15.789062 C 7.679688 14.648438 6.683594 13.042969 6.300781 11.25 C 7.339844 10.757812 8.476562 10.503906 9.625 10.5 Z M 9.625 26.246094 C 5.28125 26.25 1.757812 22.730469 1.753906 18.386719 C 1.753906 15.980469 2.851562 13.703125 4.742188 12.210938 C 5.375 14.472656 6.8125 16.425781 8.785156 17.703125 C 8.769531 17.925781 8.75 18.148438 8.75 18.375 C 8.75 21.246094 10.035156 23.964844 12.25 25.789062 C 11.410156 26.089844 10.519531 26.246094 9.625 26.246094 Z M 14 24.914062 C 11.878906 23.496094 10.578125 21.136719 10.511719 18.585938 C 12.753906 19.46875 15.246094 19.46875 17.488281 18.585938 C 17.421875 21.136719 16.121094 23.496094 14 24.914062 Z M 24.550781 23.261719 C 23.054688 25.148438 20.78125 26.25 18.375 26.246094 C 17.480469 26.246094 16.589844 26.089844 15.75 25.789062 C 17.964844 23.964844 19.25 21.246094 19.25 18.375 C 19.25 18.148438 19.230469 17.925781 19.214844 17.703125 C 21.1875 16.425781 22.625 14.472656 23.257812 12.210938 C 26.667969 14.90625 27.246094 19.851562 24.550781 23.261719 Z M 24.550781 23.261719 "/>
</g>
</svg>
