<?xml version="1.0" encoding="UTF-8"?>
<svg xmlns="http://www.w3.org/2000/svg" xmlns:xlink="http://www.w3.org/1999/xlink" width="28pt" height="28pt" viewBox="0 0 28 28" version="1.1">
<g id="surface1">
<path style=" stroke:none;fill-rule:nonzero;fill:rgb(0%,0%,0%);fill-opacity:1;" d="M 11.738281 17.152344 L 12.640625 17.152344 L 12.640625 18.054688 L 11.738281 18.054688 Z M 11.738281 17.152344 "/>
<path style=" stroke:none;fill-rule:nonzero;fill:rgb(0%,0%,0%);fill-opacity:1;" d="M 13.09375 25.730469 L 13.996094 25.730469 L 13.996094 27.539062 L 13.09375 27.539062 Z M 13.09375 25.730469 "/>
<path style=" stroke:none;fill-rule:nonzero;fill:rgb(0%,0%,0%);fill-opacity:1;" d="M 10.066406 26.316406 L 11.417969 24.960938 L 12.058594 25.597656 L 10.703125 26.953125 Z M 10.066406 26.316406 "/>
<path style=" stroke:none;fill-rule:nonzero;fill:rgb(0%,0%,0%);fill-opacity:1;" d="M 15.03125 25.597656 L 15.667969 24.960938 L 17.023438 26.316406 L 16.386719 26.953125 Z M 15.03125 25.597656 "/>
<path style=" stroke:none;fill-rule:nonzero;fill:rgb(0%,0%,0%);fill-opacity:1;" d="M 27.855469 16.835938 L 23.929688 12.910156 L 23.929688 6.769531 L 27.089844 6.769531 L 27.089844 4.0625 L 14.898438 4.0625 L 14.898438 3.15625 L 21.671875 3.15625 L 21.671875 0.449219 L 5.417969 0.449219 L 5.417969 3.15625 L 12.191406 3.15625 L 12.191406 4.0625 L 0 4.0625 L 0 6.769531 L 4.0625 6.769531 L 4.0625 12.902344 L 0.132812 16.835938 C -0.0429688 17.011719 -0.0429688 17.296875 0.132812 17.472656 L 3.738281 21.085938 C 3.914062 21.261719 4.203125 21.261719 4.378906 21.085938 L 8.710938 16.753906 C 9.238281 16.226562 9.238281 15.371094 8.710938 14.84375 L 6.769531 12.902344 L 6.769531 6.769531 L 12.191406 6.769531 L 12.191406 11.285156 L 10.835938 11.285156 C 10.585938 11.285156 10.382812 11.488281 10.382812 11.734375 L 10.382812 13.523438 L 9.964844 18.960938 L 9.03125 18.960938 C 8.78125 18.960938 8.578125 19.160156 8.578125 19.410156 L 8.578125 21.214844 C 8.578125 21.464844 8.78125 21.667969 9.03125 21.667969 L 9.964844 21.667969 C 10.191406 23.472656 11.722656 24.828125 13.542969 24.828125 C 15.363281 24.828125 16.898438 23.472656 17.125 21.667969 L 18.058594 21.667969 C 18.308594 21.667969 18.511719 21.464844 18.511719 21.214844 L 18.511719 19.410156 C 18.511719 19.160156 18.308594 18.960938 18.058594 18.960938 L 17.121094 18.960938 L 16.703125 13.523438 L 16.703125 11.734375 C 16.703125 11.488281 16.503906 11.285156 16.253906 11.285156 L 14.898438 11.285156 L 14.898438 6.769531 L 21.21875 6.769531 L 21.21875 12.898438 L 19.277344 14.84375 C 18.75 15.371094 18.75 16.226562 19.277344 16.753906 L 23.613281 21.085938 C 23.789062 21.261719 24.074219 21.261719 24.25 21.085938 L 27.855469 17.472656 C 27.941406 17.386719 27.988281 17.273438 27.988281 17.152344 C 27.988281 17.035156 27.941406 16.917969 27.855469 16.835938 Z M 6.320312 2.253906 L 6.320312 1.351562 L 20.765625 1.351562 L 20.765625 2.253906 Z M 13.09375 3.15625 L 13.996094 3.15625 L 13.996094 4.0625 L 13.09375 4.0625 Z M 0.902344 4.964844 L 26.183594 4.964844 L 26.183594 5.867188 L 0.902344 5.867188 Z M 4.058594 20.125 L 1.089844 17.152344 L 1.804688 16.4375 L 4.777344 19.410156 Z M 8.074219 15.484375 C 8.246094 15.660156 8.246094 15.941406 8.074219 16.117188 L 5.417969 18.773438 L 2.445312 15.800781 L 4.0625 14.179688 L 4.0625 15.347656 C 4.0625 15.597656 4.265625 15.800781 4.515625 15.800781 L 6.320312 15.800781 C 6.570312 15.800781 6.773438 15.597656 6.773438 15.347656 L 6.773438 14.179688 Z M 5.867188 14.894531 L 4.964844 14.894531 L 4.964844 6.769531 L 5.867188 6.769531 Z M 11.285156 12.1875 L 12.191406 12.1875 L 12.191406 13.089844 L 11.285156 13.089844 Z M 13.542969 23.925781 C 12.222656 23.921875 11.09375 22.96875 10.871094 21.667969 L 16.214844 21.667969 C 15.992188 22.96875 14.867188 23.921875 13.542969 23.925781 Z M 17.605469 20.765625 L 9.480469 20.765625 L 9.480469 19.863281 L 17.605469 19.863281 Z M 10.871094 18.960938 L 11.253906 13.992188 L 12.191406 13.992188 L 12.191406 15.347656 C 12.191406 15.597656 12.390625 15.800781 12.640625 15.800781 L 14.445312 15.800781 C 14.695312 15.800781 14.898438 15.597656 14.898438 15.347656 L 14.898438 13.992188 L 15.835938 13.992188 L 16.214844 18.960938 Z M 15.800781 12.1875 L 15.800781 13.089844 L 14.898438 13.089844 L 14.898438 12.1875 Z M 13.996094 14.894531 L 13.09375 14.894531 L 13.09375 6.769531 L 13.996094 6.769531 Z M 23.023438 6.769531 L 23.023438 14.894531 L 22.121094 14.894531 L 22.121094 6.769531 Z M 19.917969 15.484375 L 21.21875 14.175781 L 21.21875 15.347656 C 21.21875 15.597656 21.421875 15.800781 21.671875 15.800781 L 23.476562 15.800781 C 23.726562 15.800781 23.929688 15.597656 23.929688 15.347656 L 23.929688 14.183594 L 25.542969 15.800781 L 22.570312 18.773438 L 19.917969 16.113281 C 19.746094 15.9375 19.746094 15.660156 19.917969 15.484375 Z M 23.929688 20.125 L 23.207031 19.410156 L 26.183594 16.4375 L 26.898438 17.152344 Z M 23.929688 20.125 "/>
</g>
</svg>
