<?xml version="1.0" encoding="UTF-8"?>
<svg xmlns="http://www.w3.org/2000/svg" xmlns:xlink="http://www.w3.org/1999/xlink" width="28pt" height="28pt" viewBox="0 0 28 28" version="1.1">
<g id="surface1">
<path style=" stroke:none;fill-rule:nonzero;fill:rgb(0%,0%,0%);fill-opacity:1;" d="M 7.152344 4.058594 C 7.117188 3.832031 6.90625 3.679688 6.683594 3.714844 L 4.757812 4.007812 C 4.699219 4.019531 4.644531 4.039062 4.59375 4.070312 L 4.558594 4.097656 L 3.253906 2.113281 C 3.058594 1.8125 2.753906 1.609375 2.402344 1.535156 C 2.050781 1.464844 1.691406 1.53125 1.390625 1.730469 L 0.605469 2.246094 C -0.0117188 2.652344 -0.1875 3.488281 0.21875 4.109375 L 1.523438 6.089844 L 1.496094 6.105469 C 1.449219 6.140625 1.40625 6.179688 1.375 6.230469 L 0.332031 7.894531 C 0.210938 8.085938 0.269531 8.339844 0.460938 8.460938 C 0.527344 8.503906 0.601562 8.523438 0.679688 8.523438 C 0.8125 8.523438 0.949219 8.453125 1.027344 8.332031 L 1.546875 7.503906 L 1.65625 7.96875 C 1.699219 8.148438 1.828125 8.296875 2.003906 8.363281 C 2.070312 8.390625 2.140625 8.402344 2.210938 8.402344 C 2.320312 8.402344 2.429688 8.371094 2.523438 8.308594 L 6.195312 5.898438 C 6.351562 5.796875 6.449219 5.625 6.453125 5.441406 C 6.460938 5.253906 6.375 5.078125 6.226562 4.964844 L 5.835938 4.675781 L 6.808594 4.523438 C 7.03125 4.492188 7.183594 4.28125 7.152344 4.058594 Z M 0.90625 3.65625 C 0.746094 3.414062 0.816406 3.089844 1.058594 2.929688 L 1.84375 2.414062 C 1.929688 2.359375 2.027344 2.328125 2.128906 2.328125 C 2.164062 2.328125 2.203125 2.332031 2.238281 2.339844 C 2.375 2.367188 2.492188 2.449219 2.570312 2.566406 L 3.867188 4.542969 L 2.207031 5.636719 Z M 2.371094 7.429688 L 2.183594 6.640625 L 4.800781 4.917969 L 5.449219 5.40625 Z M 2.371094 7.429688 "/>
<path style=" stroke:none;fill-rule:nonzero;fill:rgb(0%,0%,0%);fill-opacity:1;" d="M 27.394531 2.246094 L 26.609375 1.730469 C 26.308594 1.53125 25.949219 1.464844 25.597656 1.535156 C 25.246094 1.609375 24.941406 1.8125 24.746094 2.113281 L 23.445312 4.09375 L 23.414062 4.070312 C 23.367188 4.039062 23.308594 4.019531 23.25 4.007812 L 21.324219 3.714844 C 21.101562 3.679688 20.894531 3.832031 20.859375 4.058594 C 20.824219 4.28125 20.976562 4.492188 21.203125 4.523438 L 22.164062 4.671875 L 21.773438 4.964844 C 21.625 5.078125 21.539062 5.253906 21.546875 5.441406 C 21.550781 5.625 21.648438 5.796875 21.804688 5.898438 L 25.476562 8.308594 C 25.570312 8.371094 25.679688 8.402344 25.789062 8.402344 C 25.859375 8.402344 25.929688 8.390625 25.996094 8.363281 C 26.167969 8.296875 26.296875 8.148438 26.34375 7.96875 L 26.457031 7.492188 L 26.984375 8.332031 C 27.0625 8.453125 27.195312 8.523438 27.332031 8.523438 C 27.40625 8.523438 27.480469 8.503906 27.546875 8.460938 C 27.742188 8.339844 27.796875 8.085938 27.679688 7.894531 L 26.632812 6.230469 C 26.601562 6.179688 26.558594 6.136719 26.511719 6.105469 L 26.480469 6.085938 L 27.78125 4.109375 C 28.1875 3.488281 28.011719 2.652344 27.394531 2.246094 Z M 25.628906 7.429688 L 22.550781 5.40625 L 23.203125 4.917969 L 23.335938 5.003906 L 23.347656 5.011719 L 25.820312 6.632812 Z M 27.09375 3.65625 L 25.792969 5.636719 L 24.132812 4.542969 L 25.429688 2.566406 C 25.507812 2.449219 25.625 2.367188 25.761719 2.339844 C 25.898438 2.3125 26.039062 2.335938 26.15625 2.414062 L 26.941406 2.929688 C 27.183594 3.089844 27.253906 3.414062 27.09375 3.65625 Z M 27.09375 3.65625 "/>
<path style=" stroke:none;fill-rule:nonzero;fill:rgb(0%,0%,0%);fill-opacity:1;" d="M 25.117188 9.425781 C 24.890625 9.386719 24.679688 9.539062 24.644531 9.761719 L 22.5 22.941406 C 22.492188 22.933594 22.480469 22.929688 22.472656 22.921875 C 22.457031 22.910156 22.4375 22.898438 22.421875 22.886719 C 22.40625 22.878906 22.394531 22.871094 22.378906 22.859375 C 22.359375 22.847656 22.34375 22.839844 22.324219 22.828125 C 22.308594 22.816406 22.292969 22.808594 22.28125 22.800781 C 22.261719 22.789062 22.242188 22.777344 22.222656 22.769531 C 22.207031 22.757812 22.191406 22.75 22.175781 22.742188 C 22.15625 22.730469 22.132812 22.71875 22.113281 22.710938 C 22.105469 22.707031 22.097656 22.699219 22.089844 22.695312 L 14.570312 14.925781 L 21.601562 7.660156 C 21.761719 7.496094 21.757812 7.238281 21.59375 7.078125 C 21.429688 6.921875 21.171875 6.925781 21.011719 7.089844 L 14 14.335938 L 6.992188 7.09375 C 6.832031 6.929688 6.574219 6.925781 6.410156 7.085938 C 6.25 7.242188 6.242188 7.5 6.402344 7.664062 L 13.429688 14.925781 L 5.910156 22.695312 C 5.902344 22.699219 5.894531 22.707031 5.886719 22.710938 C 5.867188 22.71875 5.84375 22.730469 5.824219 22.742188 C 5.808594 22.75 5.792969 22.757812 5.777344 22.769531 C 5.757812 22.777344 5.738281 22.789062 5.71875 22.800781 C 5.707031 22.808594 5.691406 22.816406 5.675781 22.828125 C 5.65625 22.839844 5.640625 22.847656 5.621094 22.859375 C 5.605469 22.867188 5.59375 22.878906 5.578125 22.886719 C 5.5625 22.898438 5.542969 22.910156 5.527344 22.921875 C 5.519531 22.929688 5.507812 22.933594 5.5 22.941406 L 3.355469 9.765625 C 3.320312 9.542969 3.109375 9.390625 2.882812 9.425781 C 2.660156 9.460938 2.507812 9.671875 2.546875 9.898438 L 4.84375 24.011719 C 4.878906 24.789062 5.84375 25.410156 7.71875 25.863281 C 9.402344 26.269531 11.632812 26.492188 14 26.492188 C 16.367188 26.492188 18.597656 26.269531 20.28125 25.863281 C 22.15625 25.410156 23.121094 24.789062 23.15625 24.011719 L 25.457031 9.894531 C 25.492188 9.671875 25.339844 9.460938 25.117188 9.425781 Z M 14 15.515625 L 20.363281 22.097656 C 20.34375 22.089844 20.320312 22.085938 20.296875 22.078125 C 20.292969 22.078125 20.289062 22.078125 20.28125 22.074219 C 20.277344 22.074219 20.273438 22.074219 20.265625 22.070312 C 20.222656 22.0625 20.179688 22.050781 20.136719 22.042969 C 20.128906 22.039062 20.121094 22.039062 20.113281 22.035156 C 20.066406 22.023438 20.019531 22.015625 19.972656 22.003906 C 19.964844 22.003906 19.957031 22 19.949219 22 C 19.902344 21.988281 19.855469 21.980469 19.808594 21.96875 C 19.800781 21.96875 19.789062 21.964844 19.78125 21.964844 C 19.738281 21.953125 19.691406 21.945312 19.648438 21.9375 C 19.632812 21.933594 19.617188 21.929688 19.605469 21.925781 C 19.566406 21.917969 19.527344 21.914062 19.488281 21.90625 C 19.464844 21.902344 19.445312 21.898438 19.421875 21.890625 C 19.390625 21.886719 19.355469 21.878906 19.324219 21.875 C 19.292969 21.867188 19.265625 21.863281 19.234375 21.859375 C 19.207031 21.855469 19.183594 21.847656 19.15625 21.84375 C 19.121094 21.839844 19.082031 21.832031 19.042969 21.824219 C 19.023438 21.824219 19.007812 21.820312 18.988281 21.816406 C 18.941406 21.808594 18.894531 21.800781 18.84375 21.792969 C 18.835938 21.792969 18.828125 21.789062 18.820312 21.789062 C 17.820312 21.632812 16.703125 21.527344 15.53125 21.476562 C 15.324219 21.46875 15.117188 21.460938 14.90625 21.457031 C 14.835938 21.453125 14.769531 21.453125 14.699219 21.453125 C 14.691406 21.453125 14.6875 21.453125 14.679688 21.453125 C 14.617188 21.449219 14.554688 21.449219 14.492188 21.449219 C 14.480469 21.449219 14.464844 21.449219 14.453125 21.449219 C 14.394531 21.449219 14.332031 21.445312 14.273438 21.445312 C 14.257812 21.445312 14.242188 21.445312 14.226562 21.445312 C 14.152344 21.445312 14.074219 21.445312 14 21.445312 C 13.925781 21.445312 13.847656 21.445312 13.773438 21.445312 C 13.757812 21.445312 13.742188 21.445312 13.726562 21.445312 C 13.664062 21.445312 13.605469 21.449219 13.546875 21.449219 C 13.535156 21.449219 13.519531 21.449219 13.507812 21.449219 C 13.445312 21.449219 13.382812 21.449219 13.320312 21.453125 C 13.3125 21.453125 13.308594 21.453125 13.300781 21.453125 C 13.230469 21.453125 13.164062 21.453125 13.09375 21.457031 C 12.738281 21.464844 12.386719 21.480469 12.042969 21.496094 C 11.023438 21.554688 10.058594 21.652344 9.179688 21.789062 C 9.171875 21.789062 9.164062 21.792969 9.152344 21.792969 C 9.105469 21.800781 9.058594 21.808594 9.011719 21.816406 C 8.992188 21.820312 8.976562 21.824219 8.957031 21.824219 C 8.917969 21.832031 8.878906 21.839844 8.84375 21.84375 C 8.816406 21.847656 8.792969 21.855469 8.765625 21.859375 C 8.734375 21.863281 8.707031 21.867188 8.675781 21.875 C 8.644531 21.878906 8.609375 21.886719 8.578125 21.890625 C 8.554688 21.898438 8.535156 21.902344 8.511719 21.90625 C 8.472656 21.914062 8.433594 21.917969 8.394531 21.925781 C 8.382812 21.929688 8.367188 21.933594 8.351562 21.9375 C 8.308594 21.945312 8.261719 21.953125 8.21875 21.964844 C 8.210938 21.964844 8.199219 21.96875 8.1875 21.96875 C 8.144531 21.980469 8.097656 21.988281 8.050781 22 C 8.042969 22 8.035156 22.003906 8.027344 22.003906 C 7.980469 22.015625 7.933594 22.023438 7.886719 22.035156 C 7.878906 22.039062 7.871094 22.039062 7.863281 22.042969 C 7.820312 22.050781 7.777344 22.0625 7.734375 22.070312 C 7.726562 22.074219 7.722656 22.074219 7.71875 22.074219 C 7.710938 22.078125 7.707031 22.078125 7.699219 22.078125 C 7.679688 22.085938 7.65625 22.089844 7.632812 22.097656 Z M 20.089844 25.0625 C 18.46875 25.457031 16.304688 25.671875 14 25.671875 C 11.695312 25.671875 9.53125 25.457031 7.910156 25.0625 C 6.066406 24.617188 5.660156 24.121094 5.660156 23.96875 C 5.660156 23.875 5.808594 23.660156 6.332031 23.402344 C 6.332031 23.402344 6.335938 23.402344 6.339844 23.398438 C 6.558594 23.292969 6.820312 23.191406 7.113281 23.097656 C 7.113281 23.09375 7.113281 23.09375 7.113281 23.09375 C 7.226562 23.058594 7.34375 23.023438 7.46875 22.988281 C 7.480469 22.984375 7.492188 22.980469 7.503906 22.976562 C 7.554688 22.964844 7.605469 22.953125 7.65625 22.9375 C 7.667969 22.933594 7.679688 22.929688 7.691406 22.929688 C 9.214844 22.535156 11.371094 22.289062 13.671875 22.265625 C 13.6875 22.265625 13.703125 22.265625 13.71875 22.265625 C 13.8125 22.265625 13.90625 22.265625 14 22.265625 C 14.09375 22.265625 14.1875 22.265625 14.28125 22.265625 C 14.296875 22.265625 14.3125 22.265625 14.328125 22.265625 C 16.628906 22.289062 18.785156 22.535156 20.308594 22.929688 C 20.320312 22.929688 20.332031 22.933594 20.34375 22.9375 C 20.394531 22.953125 20.445312 22.964844 20.496094 22.976562 C 20.507812 22.980469 20.519531 22.984375 20.53125 22.988281 C 20.65625 23.023438 20.773438 23.058594 20.886719 23.09375 C 20.886719 23.09375 20.886719 23.09375 20.886719 23.097656 C 21.179688 23.191406 21.441406 23.292969 21.660156 23.398438 C 21.664062 23.402344 21.667969 23.402344 21.667969 23.402344 C 22.191406 23.660156 22.339844 23.875 22.339844 23.96875 C 22.339844 24.121094 21.933594 24.617188 20.089844 25.0625 Z M 20.089844 25.0625 "/>
</g>
</svg>
