<?xml version="1.0" encoding="UTF-8"?>
<svg xmlns="http://www.w3.org/2000/svg" xmlns:xlink="http://www.w3.org/1999/xlink" width="28pt" height="28pt" viewBox="0 0 28 28" version="1.1">
<g id="surface1">
<path style=" stroke:none;fill-rule:nonzero;fill:rgb(0%,0%,0%);fill-opacity:1;" d="M 20.511719 8.640625 C 20.261719 7.671875 19.460938 6.878906 18.410156 6.457031 L 18.410156 5.6875 C 18.410156 4.871094 17.851562 4.183594 17.09375 3.992188 C 17.097656 3.972656 17.097656 3.957031 17.097656 3.9375 C 17.097656 1.765625 15.332031 0 13.160156 0 C 10.988281 0 9.222656 1.765625 9.222656 3.9375 L 9.222656 8.386719 C 8.714844 8.570312 8.347656 9.054688 8.347656 9.625 L 8.347656 27.125 L 7.910156 27.125 C 7.667969 27.125 7.472656 27.320312 7.472656 27.5625 C 7.472656 27.804688 7.667969 28 7.910156 28 L 11.410156 28 C 11.652344 28 11.847656 27.804688 11.847656 27.5625 C 11.847656 27.320312 11.652344 27.125 11.410156 27.125 L 10.972656 27.125 L 10.972656 9.625 C 10.972656 9.054688 10.605469 8.570312 10.097656 8.386719 L 10.097656 3.9375 C 10.097656 2.25 11.472656 0.875 13.160156 0.875 C 14.847656 0.875 16.222656 2.25 16.222656 3.9375 C 16.222656 3.957031 16.222656 3.972656 16.226562 3.992188 C 15.46875 4.183594 14.910156 4.871094 14.910156 5.6875 L 14.910156 6.457031 C 13.859375 6.878906 13.058594 7.671875 12.808594 8.640625 C 12.773438 8.769531 12.800781 8.910156 12.882812 9.019531 C 12.96875 9.125 13.09375 9.1875 13.230469 9.1875 L 14.910156 9.1875 C 14.910156 10.152344 15.695312 10.9375 16.660156 10.9375 C 17.625 10.9375 18.410156 10.152344 18.410156 9.1875 L 20.089844 9.1875 C 20.226562 9.1875 20.351562 9.125 20.4375 9.019531 C 20.519531 8.910156 20.546875 8.769531 20.511719 8.640625 Z M 9.660156 9.1875 C 9.902344 9.1875 10.097656 9.382812 10.097656 9.625 L 10.097656 23.625 L 9.222656 23.625 L 9.222656 9.625 C 9.222656 9.382812 9.417969 9.1875 9.660156 9.1875 Z M 9.222656 27.125 L 9.222656 24.5 L 10.097656 24.5 L 10.097656 27.125 Z M 15.785156 5.6875 C 15.785156 5.203125 16.175781 4.8125 16.660156 4.8125 C 17.144531 4.8125 17.535156 5.203125 17.535156 5.6875 L 17.535156 6.207031 C 17.253906 6.152344 16.960938 6.125 16.660156 6.125 C 16.359375 6.125 16.066406 6.152344 15.785156 6.207031 Z M 16.660156 10.0625 C 16.175781 10.0625 15.785156 9.671875 15.785156 9.1875 L 17.535156 9.1875 C 17.535156 9.671875 17.144531 10.0625 16.660156 10.0625 Z M 13.894531 8.3125 C 14.394531 7.527344 15.460938 7 16.660156 7 C 17.859375 7 18.925781 7.527344 19.425781 8.3125 Z M 13.894531 8.3125 "/>
</g>
</svg>
