<?xml version="1.0" encoding="UTF-8"?>
<svg xmlns="http://www.w3.org/2000/svg" xmlns:xlink="http://www.w3.org/1999/xlink" width="28pt" height="28pt" viewBox="0 0 28 28" version="1.1">
<g id="surface1">
<path style=" stroke:none;fill-rule:nonzero;fill:rgb(0%,0%,0%);fill-opacity:1;" d="M 7.027344 5.121094 C 7.113281 5.367188 7.332031 5.546875 7.589844 5.582031 L 10.285156 13.222656 C 10.289062 13.226562 10.289062 13.230469 10.292969 13.234375 C 10.296875 13.246094 10.304688 13.257812 10.308594 13.269531 C 10.328125 13.308594 10.351562 13.34375 10.382812 13.375 C 10.386719 13.382812 10.390625 13.390625 10.394531 13.398438 L 12.59375 15.59375 L 12.59375 25.199219 L 11.191406 25.199219 C 9.90625 25.203125 8.859375 26.246094 8.859375 27.535156 C 8.859375 27.792969 9.066406 28 9.324219 28 L 18.660156 28 C 18.917969 28 19.125 27.792969 19.125 27.535156 C 19.125 26.246094 18.082031 25.203125 16.792969 25.199219 L 15.394531 25.199219 L 15.394531 15.59375 L 17.589844 13.398438 C 17.59375 13.390625 17.597656 13.382812 17.601562 13.375 C 17.632812 13.34375 17.65625 13.308594 17.675781 13.269531 C 17.679688 13.257812 17.6875 13.246094 17.695312 13.234375 C 17.695312 13.230469 17.699219 13.226562 17.699219 13.222656 L 20.394531 5.582031 C 20.675781 5.546875 20.902344 5.339844 20.972656 5.070312 C 21.042969 4.796875 20.9375 4.507812 20.710938 4.339844 L 17.59375 2 L 16.234375 0.1875 C 16.144531 0.0703125 16.007812 0 15.859375 0 L 12.125 0 C 11.980469 0 11.839844 0.0703125 11.753906 0.1875 L 10.390625 2 L 7.273438 4.339844 C 7.03125 4.519531 6.933594 4.835938 7.027344 5.121094 Z M 14.734375 14.933594 L 13.253906 14.933594 L 11.851562 13.535156 L 16.132812 13.535156 Z M 16.929688 12.601562 L 15.515625 12.601562 L 17.164062 5.601562 L 19.398438 5.601562 Z M 14.554688 12.601562 L 13.429688 12.601562 L 11.78125 5.601562 L 16.203125 5.601562 Z M 10.824219 5.601562 L 12.46875 12.601562 L 11.054688 12.601562 L 8.585938 5.601562 Z M 18.113281 27.066406 L 9.871094 27.066406 C 10.070312 26.507812 10.597656 26.132812 11.191406 26.132812 L 16.792969 26.132812 C 17.386719 26.132812 17.914062 26.507812 18.113281 27.066406 Z M 13.527344 25.199219 L 13.527344 15.867188 L 14.460938 15.867188 L 14.460938 25.199219 Z M 12.359375 0.933594 L 15.625 0.933594 L 16.324219 1.867188 L 11.660156 1.867188 Z M 10.882812 2.800781 L 17.105469 2.800781 L 19.59375 4.667969 L 8.394531 4.667969 Z M 10.882812 2.800781 "/>
<path style=" stroke:none;fill-rule:nonzero;fill:rgb(0%,0%,0%);fill-opacity:1;" d="M 13.527344 7.464844 L 14.460938 7.464844 C 14.71875 7.464844 14.925781 7.257812 14.925781 7 C 14.925781 6.742188 14.71875 6.535156 14.460938 6.535156 L 13.527344 6.535156 C 13.269531 6.535156 13.058594 6.742188 13.058594 7 C 13.058594 7.257812 13.269531 7.464844 13.527344 7.464844 Z M 13.527344 7.464844 "/>
<path style=" stroke:none;fill-rule:nonzero;fill:rgb(0%,0%,0%);fill-opacity:1;" d="M 14.460938 8.398438 L 13.527344 8.398438 C 13.269531 8.398438 13.058594 8.609375 13.058594 8.867188 C 13.058594 9.125 13.269531 9.332031 13.527344 9.332031 L 14.460938 9.332031 C 14.71875 9.332031 14.925781 9.125 14.925781 8.867188 C 14.925781 8.609375 14.71875 8.398438 14.460938 8.398438 Z M 14.460938 8.398438 "/>
<path style=" stroke:none;fill-rule:nonzero;fill:rgb(0%,0%,0%);fill-opacity:1;" d="M 6.757812 7.0625 L 3.492188 5.195312 C 3.347656 5.109375 3.167969 5.109375 3.019531 5.195312 C 2.875 5.277344 2.789062 5.433594 2.789062 5.601562 C 2.789062 5.769531 2.882812 5.921875 3.027344 6.003906 L 6.292969 7.871094 C 6.519531 7.996094 6.800781 7.917969 6.925781 7.695312 C 7.054688 7.472656 6.976562 7.191406 6.757812 7.0625 Z M 6.757812 7.0625 "/>
<path style=" stroke:none;fill-rule:nonzero;fill:rgb(0%,0%,0%);fill-opacity:1;" d="M 3.261719 13.535156 C 3.339844 13.535156 3.421875 13.511719 3.492188 13.472656 L 6.757812 11.605469 C 6.976562 11.476562 7.054688 11.191406 6.925781 10.972656 C 6.800781 10.75 6.519531 10.671875 6.292969 10.792969 L 3.027344 12.660156 C 2.84375 12.765625 2.753906 12.980469 2.808594 13.1875 C 2.863281 13.390625 3.046875 13.535156 3.261719 13.535156 Z M 3.261719 13.535156 "/>
<path style=" stroke:none;fill-rule:nonzero;fill:rgb(0%,0%,0%);fill-opacity:1;" d="M 2.324219 9.800781 L 6.058594 9.800781 C 6.316406 9.800781 6.527344 9.589844 6.527344 9.332031 C 6.527344 9.074219 6.316406 8.867188 6.058594 8.867188 L 2.324219 8.867188 C 2.066406 8.867188 1.859375 9.074219 1.859375 9.332031 C 1.859375 9.589844 2.066406 9.800781 2.324219 9.800781 Z M 2.324219 9.800781 "/>
<path style=" stroke:none;fill-rule:nonzero;fill:rgb(0%,0%,0%);fill-opacity:1;" d="M 21.054688 7.699219 C 21.183594 7.921875 21.46875 8 21.691406 7.871094 L 24.957031 6.003906 C 25.179688 5.875 25.253906 5.59375 25.128906 5.371094 C 25 5.148438 24.71875 5.070312 24.496094 5.195312 L 21.226562 7.0625 C 21.003906 7.191406 20.925781 7.472656 21.054688 7.699219 Z M 21.054688 7.699219 "/>
<path style=" stroke:none;fill-rule:nonzero;fill:rgb(0%,0%,0%);fill-opacity:1;" d="M 21.226562 11.605469 L 24.496094 13.472656 C 24.71875 13.597656 25 13.519531 25.128906 13.296875 C 25.253906 13.074219 25.179688 12.789062 24.957031 12.660156 L 21.691406 10.792969 C 21.546875 10.710938 21.367188 10.710938 21.222656 10.792969 C 21.074219 10.878906 20.988281 11.035156 20.988281 11.203125 C 20.988281 11.371094 21.082031 11.523438 21.226562 11.605469 Z M 21.226562 11.605469 "/>
<path style=" stroke:none;fill-rule:nonzero;fill:rgb(0%,0%,0%);fill-opacity:1;" d="M 25.660156 8.867188 L 21.925781 8.867188 C 21.667969 8.867188 21.460938 9.074219 21.460938 9.332031 C 21.460938 9.589844 21.667969 9.800781 21.925781 9.800781 L 25.660156 9.800781 C 25.917969 9.800781 26.125 9.589844 26.125 9.332031 C 26.125 9.074219 25.917969 8.867188 25.660156 8.867188 Z M 25.660156 8.867188 "/>
</g>
</svg>
