<?xml version="1.0" encoding="UTF-8"?>
<svg xmlns="http://www.w3.org/2000/svg" xmlns:xlink="http://www.w3.org/1999/xlink" width="14pt" height="14pt" viewBox="0 0 14 14" version="1.1">
<g id="surface1">
<path style=" stroke:none;fill-rule:nonzero;fill:rgb(0%,0%,0%);fill-opacity:1;" d="M 13.179688 2.15625 L 13.179688 1.257812 L 13.589844 1.257812 C 13.816406 1.257812 14 1.074219 14 0.847656 C 14 0.621094 13.816406 0.4375 13.589844 0.4375 L 0.410156 0.4375 C 0.183594 0.4375 0 0.621094 0 0.847656 C 0 1.074219 0.183594 1.257812 0.410156 1.257812 L 0.820312 1.257812 L 0.820312 2.15625 C 0.34375 2.324219 0 2.773438 0 3.308594 L 0 13.152344 C 0 13.378906 0.183594 13.5625 0.410156 13.5625 C 0.636719 13.5625 0.820312 13.378906 0.820312 13.152344 C 0.820312 12.925781 1.003906 12.742188 1.230469 12.742188 C 1.457031 12.742188 1.640625 12.925781 1.640625 13.152344 C 1.640625 13.378906 1.824219 13.5625 2.050781 13.5625 C 2.277344 13.5625 2.460938 13.378906 2.460938 13.152344 C 2.460938 12.925781 2.644531 12.742188 2.871094 12.742188 C 3.097656 12.742188 3.28125 12.925781 3.28125 13.152344 C 3.28125 13.378906 3.464844 13.5625 3.691406 13.5625 C 3.917969 13.5625 4.101562 13.378906 4.101562 13.152344 L 4.101562 3.308594 C 4.101562 2.773438 3.757812 2.324219 3.28125 2.15625 L 3.28125 1.257812 L 10.71875 1.257812 L 10.71875 2.15625 C 10.242188 2.324219 9.898438 2.773438 9.898438 3.308594 L 9.898438 13.152344 C 9.898438 13.378906 10.082031 13.5625 10.308594 13.5625 C 10.535156 13.5625 10.71875 13.378906 10.71875 13.152344 C 10.71875 12.925781 10.902344 12.742188 11.128906 12.742188 C 11.355469 12.742188 11.539062 12.925781 11.539062 13.152344 C 11.539062 13.378906 11.722656 13.5625 11.949219 13.5625 C 12.175781 13.5625 12.359375 13.378906 12.359375 13.152344 C 12.359375 12.925781 12.542969 12.742188 12.769531 12.742188 C 12.996094 12.742188 13.179688 12.925781 13.179688 13.152344 C 13.179688 13.378906 13.363281 13.5625 13.589844 13.5625 C 13.816406 13.5625 14 13.378906 14 13.152344 L 14 3.308594 C 14 2.773438 13.65625 2.324219 13.179688 2.15625 Z M 2.460938 2.15625 C 2.308594 2.210938 2.167969 2.289062 2.050781 2.398438 C 1.933594 2.289062 1.792969 2.210938 1.640625 2.15625 L 1.640625 1.257812 L 2.460938 1.257812 Z M 12.359375 2.15625 C 12.207031 2.210938 12.066406 2.289062 11.949219 2.398438 C 11.832031 2.289062 11.691406 2.210938 11.539062 2.15625 L 11.539062 1.257812 L 12.359375 1.257812 Z M 12.359375 2.15625 "/>
<path style=" stroke:none;fill-rule:nonzero;fill:rgb(0%,0%,0%);fill-opacity:1;" d="M 4.921875 9.460938 L 9.078125 9.460938 L 9.078125 11.101562 L 4.921875 11.101562 Z M 4.921875 9.460938 "/>
<path style=" stroke:none;fill-rule:nonzero;fill:rgb(0%,0%,0%);fill-opacity:1;" d="M 4.921875 2.898438 L 6.589844 2.898438 L 6.589844 8.640625 L 4.921875 8.640625 Z M 4.921875 2.898438 "/>
<path style=" stroke:none;fill-rule:nonzero;fill:rgb(0%,0%,0%);fill-opacity:1;" d="M 7.410156 2.898438 L 9.078125 2.898438 L 9.078125 8.640625 L 7.410156 8.640625 Z M 7.410156 2.898438 "/>
</g>
</svg>
