<?xml version="1.0" encoding="UTF-8"?>
<svg xmlns="http://www.w3.org/2000/svg" xmlns:xlink="http://www.w3.org/1999/xlink" width="28pt" height="28pt" viewBox="0 0 28 28" version="1.1">
<g id="surface1">
<path style=" stroke:none;fill-rule:nonzero;fill:rgb(0%,0%,0%);fill-opacity:1;" d="M 27.265625 11.5625 C 27.347656 11.628906 27.445312 11.660156 27.546875 11.660156 C 27.613281 11.660156 27.679688 11.644531 27.746094 11.617188 C 27.902344 11.539062 28 11.382812 28 11.207031 L 28 8.789062 C 28 8.648438 27.9375 8.519531 27.828125 8.433594 L 20.441406 2.613281 C 19.925781 2.207031 19.203125 2.207031 18.683594 2.613281 L 15.90625 4.804688 L 15.90625 3.949219 C 15.90625 3.699219 15.703125 3.496094 15.453125 3.496094 L 13.515625 3.496094 C 13.265625 3.496094 13.0625 3.699219 13.0625 3.949219 L 13.0625 7.042969 L 11.300781 8.433594 C 11.191406 8.519531 11.128906 8.648438 11.128906 8.789062 L 11.128906 11.207031 C 11.128906 11.382812 11.226562 11.539062 11.382812 11.617188 C 11.539062 11.691406 11.726562 11.671875 11.863281 11.5625 L 12.09375 11.378906 L 12.09375 15.800781 L 7.863281 12.464844 C 7.347656 12.058594 6.625 12.058594 6.105469 12.464844 L 0.171875 17.140625 C 0.0625 17.226562 0 17.359375 0 17.496094 L 0 19.914062 C 0 20.089844 0.0976562 20.25 0.253906 20.324219 C 0.320312 20.355469 0.386719 20.371094 0.453125 20.371094 C 0.554688 20.371094 0.652344 20.335938 0.734375 20.273438 L 0.96875 20.089844 L 0.96875 24.785156 L 0.453125 24.785156 C 0.203125 24.785156 0 24.988281 0 25.238281 C 0 25.488281 0.203125 25.691406 0.453125 25.691406 L 27.546875 25.691406 C 27.796875 25.691406 28 25.488281 28 25.238281 C 28 24.988281 27.796875 24.785156 27.546875 24.785156 L 27.03125 24.785156 L 27.03125 11.378906 Z M 13.96875 4.402344 L 14.996094 4.402344 L 14.996094 5.519531 L 13.96875 6.328125 Z M 12.035156 9.007812 L 19.246094 3.328125 C 19.433594 3.179688 19.695312 3.179688 19.882812 3.328125 L 27.09375 9.007812 L 27.09375 10.273438 L 19.84375 4.5625 C 19.761719 4.496094 19.664062 4.464844 19.5625 4.464844 C 19.464844 4.464844 19.367188 4.496094 19.28125 4.5625 L 12.035156 10.273438 Z M 0.90625 17.71875 L 6.667969 13.179688 C 6.855469 13.03125 7.117188 13.03125 7.304688 13.179688 L 12.09375 16.953125 L 12.09375 18.21875 L 7.265625 14.414062 C 7.101562 14.285156 6.867188 14.285156 6.703125 14.414062 L 0.90625 18.980469 Z M 1.875 19.375 L 6.984375 15.347656 L 12.09375 19.375 L 12.09375 24.785156 L 10.097656 24.785156 L 10.097656 19.433594 C 10.097656 19.183594 9.894531 18.980469 9.644531 18.980469 L 4.324219 18.980469 C 4.074219 18.980469 3.871094 19.183594 3.871094 19.433594 L 3.871094 24.785156 L 1.875 24.785156 Z M 4.777344 21.820312 L 9.191406 21.820312 L 9.191406 22.847656 L 4.777344 22.847656 Z M 9.191406 20.914062 L 4.777344 20.914062 L 4.777344 19.886719 L 9.191406 19.886719 Z M 4.777344 23.757812 L 9.191406 23.757812 L 9.191406 24.785156 L 4.777344 24.785156 Z M 17.902344 21.398438 C 17.890625 21.398438 17.878906 21.398438 17.871094 21.398438 C 17.75 21.398438 17.632812 21.445312 17.550781 21.53125 C 17.464844 21.613281 17.417969 21.730469 17.417969 21.851562 C 17.417969 21.96875 17.464844 22.085938 17.550781 22.171875 C 17.632812 22.257812 17.75 22.304688 17.871094 22.304688 C 17.878906 22.304688 17.890625 22.304688 17.902344 22.304688 L 17.902344 24.785156 L 15.90625 24.785156 L 15.90625 18.917969 L 17.902344 18.917969 Z M 26.125 24.785156 L 18.808594 24.785156 L 18.808594 18.464844 C 18.808594 18.214844 18.605469 18.011719 18.355469 18.011719 L 15.453125 18.011719 C 15.199219 18.011719 14.996094 18.214844 14.996094 18.464844 L 14.996094 24.785156 L 13.003906 24.785156 L 13.003906 10.664062 L 19.5625 5.496094 L 26.125 10.664062 Z M 26.125 24.785156 "/>
<path style=" stroke:none;fill-rule:nonzero;fill:rgb(0%,0%,0%);fill-opacity:1;" d="M 20.773438 22.789062 L 23.675781 22.789062 C 23.925781 22.789062 24.128906 22.585938 24.128906 22.335938 L 24.128906 18.464844 C 24.128906 18.214844 23.925781 18.011719 23.675781 18.011719 L 20.773438 18.011719 C 20.523438 18.011719 20.320312 18.214844 20.320312 18.464844 L 20.320312 22.335938 C 20.320312 22.585938 20.523438 22.789062 20.773438 22.789062 Z M 21.226562 21.882812 L 21.226562 20.371094 L 23.222656 20.371094 L 23.222656 21.882812 Z M 23.222656 18.917969 L 23.222656 19.460938 L 21.226562 19.460938 L 21.226562 18.917969 Z M 23.222656 18.917969 "/>
<path style=" stroke:none;fill-rule:nonzero;fill:rgb(0%,0%,0%);fill-opacity:1;" d="M 20.773438 16.015625 L 23.675781 16.015625 C 23.925781 16.015625 24.128906 15.8125 24.128906 15.5625 L 24.128906 11.691406 C 24.128906 11.441406 23.925781 11.238281 23.675781 11.238281 L 20.773438 11.238281 C 20.523438 11.238281 20.320312 11.441406 20.320312 11.691406 L 20.320312 15.5625 C 20.320312 15.8125 20.523438 16.015625 20.773438 16.015625 Z M 21.226562 15.109375 L 21.226562 13.597656 L 23.222656 13.597656 L 23.222656 15.109375 Z M 23.222656 12.144531 L 23.222656 12.6875 L 21.226562 12.6875 L 21.226562 12.144531 Z M 23.222656 12.144531 "/>
<path style=" stroke:none;fill-rule:nonzero;fill:rgb(0%,0%,0%);fill-opacity:1;" d="M 18.355469 11.238281 L 15.453125 11.238281 C 15.199219 11.238281 14.996094 11.441406 14.996094 11.691406 L 14.996094 15.5625 C 14.996094 15.8125 15.199219 16.015625 15.453125 16.015625 L 18.355469 16.015625 C 18.605469 16.015625 18.808594 15.8125 18.808594 15.5625 L 18.808594 11.691406 C 18.808594 11.441406 18.605469 11.238281 18.355469 11.238281 Z M 17.902344 12.144531 L 17.902344 12.6875 L 15.90625 12.6875 L 15.90625 12.144531 Z M 15.90625 15.109375 L 15.90625 13.597656 L 17.902344 13.597656 L 17.902344 15.109375 Z M 15.90625 15.109375 "/>
</g>
</svg>
