<?xml version="1.0" encoding="UTF-8"?>
<svg xmlns="http://www.w3.org/2000/svg" xmlns:xlink="http://www.w3.org/1999/xlink" width="28pt" height="28pt" viewBox="0 0 28 28" version="1.1">
<g id="surface1">
<path style=" stroke:none;fill-rule:nonzero;fill:rgb(0%,0%,0%);fill-opacity:1;" d="M 25.375 24.5 L 24.9375 24.5 L 24.9375 16.625 L 26.25 16.625 C 26.492188 16.625 26.6875 16.429688 26.6875 16.1875 L 26.6875 14.875 C 26.6875 14.632812 26.492188 14.4375 26.25 14.4375 L 25.8125 14.4375 L 25.8125 11.8125 L 26.25 11.8125 C 26.492188 11.8125 26.6875 11.617188 26.6875 11.375 L 26.6875 10.0625 C 26.6875 9.820312 26.492188 9.625 26.25 9.625 L 12.6875 9.625 L 12.6875 6.125 C 12.6875 5.980469 12.617188 5.847656 12.5 5.765625 C 12.382812 5.683594 12.230469 5.664062 12.097656 5.714844 L 1.597656 9.652344 C 1.425781 9.714844 1.3125 9.878906 1.3125 10.0625 L 1.3125 16.1875 C 1.3125 16.429688 1.507812 16.625 1.75 16.625 L 3.0625 16.625 L 3.0625 24.5 L 0.875 24.5 C 0.632812 24.5 0.4375 24.695312 0.4375 24.9375 C 0.4375 25.179688 0.632812 25.375 0.875 25.375 L 25.375 25.375 C 25.617188 25.375 25.8125 25.179688 25.8125 24.9375 C 25.8125 24.695312 25.617188 24.5 25.375 24.5 Z M 24.9375 14.4375 L 14 14.4375 L 14 11.8125 L 24.9375 11.8125 Z M 25.8125 10.5 L 25.8125 10.9375 L 13.5625 10.9375 C 13.320312 10.9375 13.125 11.132812 13.125 11.375 L 13.125 14.875 C 13.125 15.117188 13.320312 15.3125 13.5625 15.3125 L 25.8125 15.3125 L 25.8125 15.75 L 12.6875 15.75 L 12.6875 10.5 Z M 2.1875 10.367188 L 11.8125 6.757812 L 11.8125 15.75 L 2.1875 15.75 Z M 5.25 24.5 L 5.25 18.375 L 6.5625 18.375 L 6.5625 24.5 Z M 7.4375 24.5 L 7.4375 18.375 L 8.75 18.375 L 8.75 24.5 Z M 9.625 24.5 L 9.625 18.375 L 10.9375 18.375 L 10.9375 24.5 Z M 11.8125 24.5 L 11.8125 18.375 L 13.125 18.375 L 13.125 24.5 Z M 14 24.5 L 14 17.9375 C 14 17.695312 13.804688 17.5 13.5625 17.5 L 4.8125 17.5 C 4.570312 17.5 4.375 17.695312 4.375 17.9375 L 4.375 24.5 L 3.9375 24.5 L 3.9375 16.625 L 24.0625 16.625 L 24.0625 24.5 Z M 14 24.5 "/>
<path style=" stroke:none;fill-rule:nonzero;fill:rgb(0%,0%,0%);fill-opacity:1;" d="M 27.125 24.5 L 26.6875 24.5 C 26.445312 24.5 26.25 24.695312 26.25 24.9375 C 26.25 25.179688 26.445312 25.375 26.6875 25.375 L 27.125 25.375 C 27.367188 25.375 27.5625 25.179688 27.5625 24.9375 C 27.5625 24.695312 27.367188 24.5 27.125 24.5 Z M 27.125 24.5 "/>
<path style=" stroke:none;fill-rule:nonzero;fill:rgb(0%,0%,0%);fill-opacity:1;" d="M 23.1875 17.5 L 15.3125 17.5 C 15.070312 17.5 14.875 17.695312 14.875 17.9375 L 14.875 22.3125 C 14.875 22.554688 15.070312 22.75 15.3125 22.75 L 23.1875 22.75 C 23.429688 22.75 23.625 22.554688 23.625 22.3125 L 23.625 17.9375 C 23.625 17.695312 23.429688 17.5 23.1875 17.5 Z M 15.75 21.875 L 15.75 18.375 L 17.5 18.375 L 17.5 21.875 Z M 18.375 21.875 L 18.375 18.375 L 20.125 18.375 L 20.125 21.875 Z M 22.75 21.875 L 21 21.875 L 21 18.375 L 22.75 18.375 Z M 22.75 21.875 "/>
<path style=" stroke:none;fill-rule:nonzero;fill:rgb(0%,0%,0%);fill-opacity:1;" d="M 10.9375 15.3125 C 11.179688 15.3125 11.375 15.117188 11.375 14.875 L 11.375 11.375 C 11.375 11.132812 11.179688 10.9375 10.9375 10.9375 L 3.5 10.9375 C 3.257812 10.9375 3.0625 11.132812 3.0625 11.375 L 3.0625 14.875 C 3.0625 15.117188 3.257812 15.3125 3.5 15.3125 Z M 10.5 11.8125 L 10.5 14.4375 L 8.75 14.4375 L 8.75 11.8125 Z M 7.875 11.8125 L 7.875 14.4375 L 6.5625 14.4375 L 6.5625 11.8125 Z M 3.9375 11.8125 L 5.6875 11.8125 L 5.6875 14.4375 L 3.9375 14.4375 Z M 3.9375 11.8125 "/>
<path style=" stroke:none;fill-rule:nonzero;fill:rgb(0%,0%,0%);fill-opacity:1;" d="M 15.3125 7.4375 L 18.375 7.4375 C 18.453125 7.4375 18.527344 7.414062 18.59375 7.375 C 19.292969 7.167969 19.746094 6.496094 19.683594 5.769531 C 19.617188 5.042969 19.046875 4.464844 18.324219 4.382812 C 18.148438 3.691406 17.570312 3.175781 16.863281 3.078125 C 16.15625 2.980469 15.460938 3.328125 15.109375 3.949219 C 14.1875 4.058594 13.511719 4.863281 13.566406 5.789062 C 13.621094 6.714844 14.386719 7.4375 15.3125 7.4375 Z M 15.296875 4.8125 L 15.363281 4.820312 C 15.558594 4.832031 15.738281 4.714844 15.804688 4.527344 C 15.941406 4.125 16.347656 3.882812 16.765625 3.949219 C 17.183594 4.015625 17.492188 4.371094 17.5 4.792969 C 17.5 4.808594 17.496094 4.824219 17.496094 4.835938 C 17.496094 4.964844 17.558594 5.089844 17.660156 5.171875 C 17.761719 5.257812 17.894531 5.289062 18.023438 5.261719 C 18.214844 5.226562 18.414062 5.277344 18.566406 5.402344 C 18.71875 5.527344 18.808594 5.710938 18.8125 5.90625 C 18.8125 6.21875 18.59375 6.488281 18.289062 6.550781 C 18.269531 6.554688 18.253906 6.558594 18.238281 6.5625 L 15.3125 6.5625 C 14.828125 6.566406 14.433594 6.179688 14.429688 5.695312 C 14.425781 5.210938 14.8125 4.816406 15.296875 4.8125 Z M 15.296875 4.8125 "/>
</g>
</svg>
