<?xml version="1.0" encoding="UTF-8"?>
<svg xmlns="http://www.w3.org/2000/svg" xmlns:xlink="http://www.w3.org/1999/xlink" width="28pt" height="28pt" viewBox="0 0 28 28" version="1.1">
<g id="surface1">
<path style=" stroke:none;fill-rule:nonzero;fill:rgb(0%,0%,0%);fill-opacity:1;" d="M 16.332031 21 L 11.667969 21 C 11.410156 21 11.199219 21.207031 11.199219 21.464844 L 11.199219 24.734375 C 11.199219 24.992188 11.410156 25.199219 11.667969 25.199219 L 16.332031 25.199219 C 16.589844 25.199219 16.800781 24.992188 16.800781 24.734375 L 16.800781 21.464844 C 16.800781 21.207031 16.589844 21 16.332031 21 Z M 15.867188 24.265625 L 12.132812 24.265625 L 12.132812 21.933594 L 15.867188 21.933594 Z M 15.867188 24.265625 "/>
<path style=" stroke:none;fill-rule:nonzero;fill:rgb(0%,0%,0%);fill-opacity:1;" d="M 13.535156 21.464844 L 14.464844 21.464844 L 14.464844 24.734375 L 13.535156 24.734375 Z M 13.535156 21.464844 "/>
<path style=" stroke:none;fill-rule:nonzero;fill:rgb(0%,0%,0%);fill-opacity:1;" d="M 18.667969 2.800781 L 9.332031 2.800781 C 9.074219 2.800781 8.867188 3.007812 8.867188 3.265625 L 8.867188 24.734375 C 8.867188 24.992188 9.074219 25.199219 9.332031 25.199219 L 18.667969 25.199219 C 18.925781 25.199219 19.132812 24.992188 19.132812 24.734375 L 19.132812 3.265625 C 19.132812 3.007812 18.925781 2.800781 18.667969 2.800781 Z M 18.199219 24.265625 L 9.800781 24.265625 L 9.800781 3.734375 L 18.199219 3.734375 Z M 18.199219 24.265625 "/>
<path style=" stroke:none;fill-rule:nonzero;fill:rgb(0%,0%,0%);fill-opacity:1;" d="M 9.332031 4.667969 L 5.601562 4.667969 C 5.34375 4.667969 5.132812 4.875 5.132812 5.132812 L 5.132812 24.734375 C 5.132812 24.992188 5.34375 25.199219 5.601562 25.199219 L 9.332031 25.199219 C 9.589844 25.199219 9.800781 24.992188 9.800781 24.734375 L 9.800781 5.132812 C 9.800781 4.875 9.589844 4.667969 9.332031 4.667969 Z M 8.867188 24.265625 L 6.066406 24.265625 L 6.066406 5.601562 L 8.867188 5.601562 Z M 8.867188 24.265625 "/>
<path style=" stroke:none;fill-rule:nonzero;fill:rgb(0%,0%,0%);fill-opacity:1;" d="M 4.199219 4.667969 L 5.601562 4.667969 L 5.601562 5.601562 L 4.199219 5.601562 Z M 4.199219 4.667969 "/>
<path style=" stroke:none;fill-rule:nonzero;fill:rgb(0%,0%,0%);fill-opacity:1;" d="M 7.933594 2.800781 L 20.066406 2.800781 L 20.066406 3.734375 L 7.933594 3.734375 Z M 7.933594 2.800781 "/>
<path style=" stroke:none;fill-rule:nonzero;fill:rgb(0%,0%,0%);fill-opacity:1;" d="M 10.734375 18.667969 L 11.667969 18.667969 L 11.667969 20.066406 L 10.734375 20.066406 Z M 10.734375 18.667969 "/>
<path style=" stroke:none;fill-rule:nonzero;fill:rgb(0%,0%,0%);fill-opacity:1;" d="M 12.601562 18.667969 L 13.535156 18.667969 L 13.535156 20.066406 L 12.601562 20.066406 Z M 12.601562 18.667969 "/>
<path style=" stroke:none;fill-rule:nonzero;fill:rgb(0%,0%,0%);fill-opacity:1;" d="M 14.464844 18.667969 L 15.398438 18.667969 L 15.398438 20.066406 L 14.464844 20.066406 Z M 14.464844 18.667969 "/>
<path style=" stroke:none;fill-rule:nonzero;fill:rgb(0%,0%,0%);fill-opacity:1;" d="M 16.332031 18.667969 L 17.265625 18.667969 L 17.265625 20.066406 L 16.332031 20.066406 Z M 16.332031 18.667969 "/>
<path style=" stroke:none;fill-rule:nonzero;fill:rgb(0%,0%,0%);fill-opacity:1;" d="M 10.734375 16.332031 L 11.667969 16.332031 L 11.667969 17.734375 L 10.734375 17.734375 Z M 10.734375 16.332031 "/>
<path style=" stroke:none;fill-rule:nonzero;fill:rgb(0%,0%,0%);fill-opacity:1;" d="M 12.601562 16.332031 L 13.535156 16.332031 L 13.535156 17.734375 L 12.601562 17.734375 Z M 12.601562 16.332031 "/>
<path style=" stroke:none;fill-rule:nonzero;fill:rgb(0%,0%,0%);fill-opacity:1;" d="M 14.464844 16.332031 L 15.398438 16.332031 L 15.398438 17.734375 L 14.464844 17.734375 Z M 14.464844 16.332031 "/>
<path style=" stroke:none;fill-rule:nonzero;fill:rgb(0%,0%,0%);fill-opacity:1;" d="M 16.332031 16.332031 L 17.265625 16.332031 L 17.265625 17.734375 L 16.332031 17.734375 Z M 16.332031 16.332031 "/>
<path style=" stroke:none;fill-rule:nonzero;fill:rgb(0%,0%,0%);fill-opacity:1;" d="M 10.734375 14 L 11.667969 14 L 11.667969 15.398438 L 10.734375 15.398438 Z M 10.734375 14 "/>
<path style=" stroke:none;fill-rule:nonzero;fill:rgb(0%,0%,0%);fill-opacity:1;" d="M 12.601562 14 L 13.535156 14 L 13.535156 15.398438 L 12.601562 15.398438 Z M 12.601562 14 "/>
<path style=" stroke:none;fill-rule:nonzero;fill:rgb(0%,0%,0%);fill-opacity:1;" d="M 14.464844 14 L 15.398438 14 L 15.398438 15.398438 L 14.464844 15.398438 Z M 14.464844 14 "/>
<path style=" stroke:none;fill-rule:nonzero;fill:rgb(0%,0%,0%);fill-opacity:1;" d="M 16.332031 14 L 17.265625 14 L 17.265625 15.398438 L 16.332031 15.398438 Z M 16.332031 14 "/>
<path style=" stroke:none;fill-rule:nonzero;fill:rgb(0%,0%,0%);fill-opacity:1;" d="M 10.734375 11.667969 L 11.667969 11.667969 L 11.667969 13.066406 L 10.734375 13.066406 Z M 10.734375 11.667969 "/>
<path style=" stroke:none;fill-rule:nonzero;fill:rgb(0%,0%,0%);fill-opacity:1;" d="M 12.601562 11.667969 L 13.535156 11.667969 L 13.535156 13.066406 L 12.601562 13.066406 Z M 12.601562 11.667969 "/>
<path style=" stroke:none;fill-rule:nonzero;fill:rgb(0%,0%,0%);fill-opacity:1;" d="M 14.464844 11.667969 L 15.398438 11.667969 L 15.398438 13.066406 L 14.464844 13.066406 Z M 14.464844 11.667969 "/>
<path style=" stroke:none;fill-rule:nonzero;fill:rgb(0%,0%,0%);fill-opacity:1;" d="M 16.332031 11.667969 L 17.265625 11.667969 L 17.265625 13.066406 L 16.332031 13.066406 Z M 16.332031 11.667969 "/>
<path style=" stroke:none;fill-rule:nonzero;fill:rgb(0%,0%,0%);fill-opacity:1;" d="M 10.734375 9.332031 L 11.667969 9.332031 L 11.667969 10.734375 L 10.734375 10.734375 Z M 10.734375 9.332031 "/>
<path style=" stroke:none;fill-rule:nonzero;fill:rgb(0%,0%,0%);fill-opacity:1;" d="M 12.601562 9.332031 L 13.535156 9.332031 L 13.535156 10.734375 L 12.601562 10.734375 Z M 12.601562 9.332031 "/>
<path style=" stroke:none;fill-rule:nonzero;fill:rgb(0%,0%,0%);fill-opacity:1;" d="M 14.464844 9.332031 L 15.398438 9.332031 L 15.398438 10.734375 L 14.464844 10.734375 Z M 14.464844 9.332031 "/>
<path style=" stroke:none;fill-rule:nonzero;fill:rgb(0%,0%,0%);fill-opacity:1;" d="M 16.332031 9.332031 L 17.265625 9.332031 L 17.265625 10.734375 L 16.332031 10.734375 Z M 16.332031 9.332031 "/>
<path style=" stroke:none;fill-rule:nonzero;fill:rgb(0%,0%,0%);fill-opacity:1;" d="M 10.734375 7 L 11.667969 7 L 11.667969 8.398438 L 10.734375 8.398438 Z M 10.734375 7 "/>
<path style=" stroke:none;fill-rule:nonzero;fill:rgb(0%,0%,0%);fill-opacity:1;" d="M 12.601562 7 L 13.535156 7 L 13.535156 8.398438 L 12.601562 8.398438 Z M 12.601562 7 "/>
<path style=" stroke:none;fill-rule:nonzero;fill:rgb(0%,0%,0%);fill-opacity:1;" d="M 14.464844 7 L 15.398438 7 L 15.398438 8.398438 L 14.464844 8.398438 Z M 14.464844 7 "/>
<path style=" stroke:none;fill-rule:nonzero;fill:rgb(0%,0%,0%);fill-opacity:1;" d="M 16.332031 7 L 17.265625 7 L 17.265625 8.398438 L 16.332031 8.398438 Z M 16.332031 7 "/>
<path style=" stroke:none;fill-rule:nonzero;fill:rgb(0%,0%,0%);fill-opacity:1;" d="M 10.734375 4.667969 L 11.667969 4.667969 L 11.667969 6.066406 L 10.734375 6.066406 Z M 10.734375 4.667969 "/>
<path style=" stroke:none;fill-rule:nonzero;fill:rgb(0%,0%,0%);fill-opacity:1;" d="M 12.601562 4.667969 L 13.535156 4.667969 L 13.535156 6.066406 L 12.601562 6.066406 Z M 12.601562 4.667969 "/>
<path style=" stroke:none;fill-rule:nonzero;fill:rgb(0%,0%,0%);fill-opacity:1;" d="M 14.464844 4.667969 L 15.398438 4.667969 L 15.398438 6.066406 L 14.464844 6.066406 Z M 14.464844 4.667969 "/>
<path style=" stroke:none;fill-rule:nonzero;fill:rgb(0%,0%,0%);fill-opacity:1;" d="M 16.332031 4.667969 L 17.265625 4.667969 L 17.265625 6.066406 L 16.332031 6.066406 Z M 16.332031 4.667969 "/>
<path style=" stroke:none;fill-rule:nonzero;fill:rgb(0%,0%,0%);fill-opacity:1;" d="M 7 21 L 7.933594 21 L 7.933594 22.398438 L 7 22.398438 Z M 7 21 "/>
<path style=" stroke:none;fill-rule:nonzero;fill:rgb(0%,0%,0%);fill-opacity:1;" d="M 7 18.667969 L 7.933594 18.667969 L 7.933594 20.066406 L 7 20.066406 Z M 7 18.667969 "/>
<path style=" stroke:none;fill-rule:nonzero;fill:rgb(0%,0%,0%);fill-opacity:1;" d="M 7 16.332031 L 7.933594 16.332031 L 7.933594 17.734375 L 7 17.734375 Z M 7 16.332031 "/>
<path style=" stroke:none;fill-rule:nonzero;fill:rgb(0%,0%,0%);fill-opacity:1;" d="M 7 14 L 7.933594 14 L 7.933594 15.398438 L 7 15.398438 Z M 7 14 "/>
<path style=" stroke:none;fill-rule:nonzero;fill:rgb(0%,0%,0%);fill-opacity:1;" d="M 7 11.667969 L 7.933594 11.667969 L 7.933594 13.066406 L 7 13.066406 Z M 7 11.667969 "/>
<path style=" stroke:none;fill-rule:nonzero;fill:rgb(0%,0%,0%);fill-opacity:1;" d="M 7 9.332031 L 7.933594 9.332031 L 7.933594 10.734375 L 7 10.734375 Z M 7 9.332031 "/>
<path style=" stroke:none;fill-rule:nonzero;fill:rgb(0%,0%,0%);fill-opacity:1;" d="M 7 7 L 7.933594 7 L 7.933594 8.398438 L 7 8.398438 Z M 7 7 "/>
<path style=" stroke:none;fill-rule:nonzero;fill:rgb(0%,0%,0%);fill-opacity:1;" d="M 22.398438 4.667969 L 18.667969 4.667969 C 18.410156 4.667969 18.199219 4.875 18.199219 5.132812 L 18.199219 24.734375 C 18.199219 24.992188 18.410156 25.199219 18.667969 25.199219 L 22.398438 25.199219 C 22.65625 25.199219 22.867188 24.992188 22.867188 24.734375 L 22.867188 5.132812 C 22.867188 4.875 22.65625 4.667969 22.398438 4.667969 Z M 21.933594 24.265625 L 19.132812 24.265625 L 19.132812 5.601562 L 21.933594 5.601562 Z M 21.933594 24.265625 "/>
<path style=" stroke:none;fill-rule:nonzero;fill:rgb(0%,0%,0%);fill-opacity:1;" d="M 22.398438 4.667969 L 23.800781 4.667969 L 23.800781 5.601562 L 22.398438 5.601562 Z M 22.398438 4.667969 "/>
<path style=" stroke:none;fill-rule:nonzero;fill:rgb(0%,0%,0%);fill-opacity:1;" d="M 20.066406 21 L 21 21 L 21 22.398438 L 20.066406 22.398438 Z M 20.066406 21 "/>
<path style=" stroke:none;fill-rule:nonzero;fill:rgb(0%,0%,0%);fill-opacity:1;" d="M 20.066406 18.667969 L 21 18.667969 L 21 20.066406 L 20.066406 20.066406 Z M 20.066406 18.667969 "/>
<path style=" stroke:none;fill-rule:nonzero;fill:rgb(0%,0%,0%);fill-opacity:1;" d="M 20.066406 16.332031 L 21 16.332031 L 21 17.734375 L 20.066406 17.734375 Z M 20.066406 16.332031 "/>
<path style=" stroke:none;fill-rule:nonzero;fill:rgb(0%,0%,0%);fill-opacity:1;" d="M 20.066406 14 L 21 14 L 21 15.398438 L 20.066406 15.398438 Z M 20.066406 14 "/>
<path style=" stroke:none;fill-rule:nonzero;fill:rgb(0%,0%,0%);fill-opacity:1;" d="M 20.066406 11.667969 L 21 11.667969 L 21 13.066406 L 20.066406 13.066406 Z M 20.066406 11.667969 "/>
<path style=" stroke:none;fill-rule:nonzero;fill:rgb(0%,0%,0%);fill-opacity:1;" d="M 20.066406 9.332031 L 21 9.332031 L 21 10.734375 L 20.066406 10.734375 Z M 20.066406 9.332031 "/>
<path style=" stroke:none;fill-rule:nonzero;fill:rgb(0%,0%,0%);fill-opacity:1;" d="M 20.066406 7 L 21 7 L 21 8.398438 L 20.066406 8.398438 Z M 20.066406 7 "/>
<path style=" stroke:none;fill-rule:nonzero;fill:rgb(0%,0%,0%);fill-opacity:1;" d="M 0 24.265625 L 5.601562 24.265625 L 5.601562 25.199219 L 0 25.199219 Z M 0 24.265625 "/>
<path style=" stroke:none;fill-rule:nonzero;fill:rgb(0%,0%,0%);fill-opacity:1;" d="M 22.398438 24.265625 L 28 24.265625 L 28 25.199219 L 22.398438 25.199219 Z M 22.398438 24.265625 "/>
<path style=" stroke:none;fill-rule:nonzero;fill:rgb(0%,0%,0%);fill-opacity:1;" d="M 1.867188 14.933594 L 2.800781 14.933594 L 2.800781 24.734375 L 1.867188 24.734375 Z M 1.867188 14.933594 "/>
<path style=" stroke:none;fill-rule:nonzero;fill:rgb(0%,0%,0%);fill-opacity:1;" d="M 0.1875 16.238281 L 0.746094 15.492188 L 4.480469 18.292969 L 3.921875 19.039062 Z M 0.1875 16.238281 "/>
<path style=" stroke:none;fill-rule:nonzero;fill:rgb(0%,0%,0%);fill-opacity:1;" d="M 0.1875 18.292969 L 3.917969 15.492188 L 4.480469 16.238281 L 0.746094 19.042969 Z M 0.1875 18.292969 "/>
<path style=" stroke:none;fill-rule:nonzero;fill:rgb(0%,0%,0%);fill-opacity:1;" d="M 25.199219 14.933594 L 26.132812 14.933594 L 26.132812 24.734375 L 25.199219 24.734375 Z M 25.199219 14.933594 "/>
<path style=" stroke:none;fill-rule:nonzero;fill:rgb(0%,0%,0%);fill-opacity:1;" d="M 23.519531 16.238281 L 24.078125 15.492188 L 27.8125 18.292969 L 27.253906 19.039062 Z M 23.519531 16.238281 "/>
<path style=" stroke:none;fill-rule:nonzero;fill:rgb(0%,0%,0%);fill-opacity:1;" d="M 23.515625 18.296875 L 27.25 15.496094 L 27.808594 16.242188 L 24.078125 19.042969 Z M 23.515625 18.296875 "/>
</g>
</svg>
