<?xml version="1.0" encoding="UTF-8"?>
<svg xmlns="http://www.w3.org/2000/svg" xmlns:xlink="http://www.w3.org/1999/xlink" width="28pt" height="28pt" viewBox="0 0 28 28" version="1.1">
<g id="surface1">
<path style=" stroke:none;fill-rule:nonzero;fill:rgb(0%,0%,0%);fill-opacity:1;" d="M 19 7.273438 L 18.058594 7.273438 C 16.554688 7.273438 15.226562 7.957031 14.4375 9.007812 L 14.4375 7.84375 L 15.410156 6.871094 C 16.714844 5.566406 16.714844 3.449219 15.410156 2.144531 L 14.308594 1.042969 C 14.136719 0.871094 13.863281 0.871094 13.691406 1.042969 L 12.589844 2.144531 C 11.285156 3.449219 11.285156 5.566406 12.589844 6.871094 L 13.5625 7.84375 L 13.5625 9.003906 C 13.441406 8.839844 13.308594 8.6875 13.167969 8.546875 C 12.34375 7.730469 11.183594 7.269531 9.980469 7.269531 C 9.96875 7.269531 9.953125 7.273438 9.941406 7.273438 L 9 7.273438 C 8.890625 7.273438 8.78125 7.316406 8.703125 7.398438 C 8.625 7.480469 8.582031 7.589844 8.585938 7.703125 L 8.585938 8.542969 C 8.585938 10.726562 10.527344 12.523438 12.9375 12.523438 L 13.5625 12.523438 L 13.5625 15.371094 C 13.441406 15.207031 13.308594 15.050781 13.167969 14.90625 C 12.335938 14.082031 11.160156 13.617188 9.941406 13.617188 L 9 13.617188 C 8.761719 13.617188 8.585938 13.828125 8.585938 14.070312 L 8.585938 14.910156 C 8.585938 17.09375 10.527344 18.867188 12.9375 18.867188 L 13.5625 18.867188 L 13.5625 21.738281 C 13.441406 21.578125 13.308594 21.429688 13.167969 21.289062 C 12.335938 20.464844 11.160156 20.015625 9.941406 20.015625 L 9 20.015625 C 8.890625 20.011719 8.78125 20.058594 8.703125 20.136719 C 8.625 20.214844 8.582031 20.324219 8.585938 20.4375 L 8.585938 21.277344 C 8.585938 23.464844 10.527344 25.265625 12.9375 25.265625 L 13.5625 25.265625 L 13.5625 26.648438 C 13.5625 26.890625 13.757812 27.085938 14 27.085938 C 14.242188 27.085938 14.4375 26.890625 14.4375 26.648438 L 14.4375 25.265625 L 15.0625 25.265625 C 17.472656 25.265625 19.414062 23.464844 19.414062 21.277344 L 19.414062 20.4375 C 19.417969 20.324219 19.375 20.214844 19.296875 20.136719 C 19.21875 20.058594 19.109375 20.011719 19 20.015625 L 18.058594 20.015625 C 16.554688 20.015625 15.226562 20.691406 14.4375 21.742188 L 14.4375 18.867188 L 15.0625 18.867188 C 17.472656 18.867188 19.414062 17.09375 19.414062 14.910156 L 19.414062 14.070312 C 19.414062 13.828125 19.238281 13.617188 19 13.617188 L 18.058594 13.617188 C 16.554688 13.617188 15.226562 14.324219 14.4375 15.375 L 14.4375 12.523438 L 15.0625 12.523438 C 17.472656 12.523438 19.414062 10.726562 19.414062 8.542969 L 19.414062 7.703125 C 19.417969 7.589844 19.375 7.480469 19.296875 7.398438 C 19.21875 7.316406 19.109375 7.273438 19 7.273438 Z M 13.453125 11.648438 L 12.9375 11.648438 C 11.007812 11.648438 9.460938 10.246094 9.460938 8.542969 L 9.460938 8.148438 L 9.945312 8.148438 C 9.957031 8.148438 9.964844 8.144531 9.976562 8.144531 C 10.953125 8.144531 11.898438 8.515625 12.558594 9.171875 C 13.132812 9.738281 13.453125 10.46875 13.453125 11.226562 Z M 13.453125 17.992188 L 12.9375 17.992188 C 11.007812 17.992188 9.460938 16.613281 9.460938 14.910156 L 9.460938 14.492188 L 9.945312 14.492188 C 10.933594 14.492188 11.890625 14.867188 12.558594 15.527344 C 13.132812 16.097656 13.453125 16.835938 13.453125 17.59375 Z M 13.453125 24.390625 L 12.9375 24.390625 C 11.007812 24.390625 9.460938 22.980469 9.460938 21.277344 L 9.460938 20.890625 L 9.945312 20.890625 C 10.933594 20.890625 11.890625 21.25 12.558594 21.914062 C 13.132812 22.480469 13.453125 23.203125 13.453125 23.960938 Z M 14.546875 23.960938 C 14.546875 22.261719 16.128906 20.890625 18.058594 20.890625 L 18.539062 20.890625 L 18.539062 21.277344 C 18.539062 22.980469 16.992188 24.390625 15.0625 24.390625 L 14.546875 24.390625 Z M 14.546875 17.59375 C 14.546875 15.890625 16.128906 14.492188 18.058594 14.492188 L 18.539062 14.492188 L 18.539062 14.910156 C 18.539062 16.613281 16.992188 17.992188 15.0625 17.992188 L 14.546875 17.992188 Z M 14 7.042969 L 13.207031 6.25 C 12.246094 5.289062 12.246094 3.726562 13.207031 2.761719 L 14 1.972656 L 14.792969 2.761719 C 15.753906 3.726562 15.753906 5.289062 14.792969 6.25 Z M 18.539062 8.542969 C 18.539062 10.246094 16.992188 11.648438 15.0625 11.648438 L 14.546875 11.648438 L 14.546875 11.226562 C 14.546875 9.523438 16.128906 8.148438 18.058594 8.148438 L 18.539062 8.148438 Z M 18.539062 8.542969 "/>
</g>
</svg>
