<?xml version="1.0" encoding="UTF-8"?>
<svg xmlns="http://www.w3.org/2000/svg" xmlns:xlink="http://www.w3.org/1999/xlink" width="28pt" height="28pt" viewBox="0 0 28 28" version="1.1">
<g id="surface1">
<path style=" stroke:none;fill-rule:nonzero;fill:rgb(0%,0%,0%);fill-opacity:1;" d="M 24.644531 27.09375 L 22.878906 27.09375 C 20.808594 25.328125 17.769531 24.285156 14.453125 24.195312 L 14.453125 21.519531 L 16.542969 19.433594 C 16.921875 19.503906 17.308594 19.539062 17.699219 19.539062 C 19.484375 19.539062 21.277344 18.800781 22.613281 17.464844 C 24.300781 15.777344 25.035156 13.355469 24.53125 11.144531 C 24.492188 10.972656 24.359375 10.839844 24.191406 10.800781 C 21.976562 10.296875 19.554688 11.03125 17.867188 12.71875 C 16.242188 14.34375 15.503906 16.648438 15.898438 18.789062 L 14.453125 20.238281 L 14.453125 11.875 L 15.816406 10.511719 C 16.078125 10.554688 16.34375 10.578125 16.613281 10.578125 C 17.941406 10.578125 19.277344 10.027344 20.273438 9.035156 C 21.527344 7.777344 22.074219 5.972656 21.699219 4.328125 C 21.660156 4.15625 21.527344 4.023438 21.355469 3.984375 C 19.707031 3.609375 17.90625 4.15625 16.648438 5.410156 C 15.453125 6.605469 14.902344 8.292969 15.171875 9.871094 L 14.453125 10.589844 L 14.453125 9.714844 C 14.453125 8.3125 13.914062 6.996094 12.929688 6 C 13.199219 4.421875 12.648438 2.734375 11.457031 1.542969 C 10.199219 0.285156 8.394531 -0.257812 6.746094 0.117188 C 6.578125 0.15625 6.445312 0.289062 6.40625 0.457031 C 6.027344 2.105469 6.574219 3.910156 7.832031 5.167969 C 8.824219 6.160156 10.160156 6.710938 11.492188 6.710938 C 11.757812 6.710938 12.027344 6.6875 12.289062 6.644531 C 13.101562 7.46875 13.546875 8.554688 13.546875 9.714844 L 13.546875 16.367188 L 12.101562 14.921875 C 12.496094 12.777344 11.757812 10.472656 10.132812 8.847656 C 8.445312 7.160156 6.023438 6.425781 3.808594 6.929688 C 3.640625 6.96875 3.507812 7.101562 3.46875 7.273438 C 2.964844 9.484375 3.699219 11.90625 5.386719 13.59375 C 6.722656 14.929688 8.515625 15.667969 10.300781 15.667969 C 10.6875 15.667969 11.078125 15.632812 11.457031 15.5625 L 13.546875 17.648438 L 13.546875 24.195312 C 10.230469 24.285156 7.191406 25.328125 5.121094 27.09375 L 3.355469 27.09375 C 3.105469 27.09375 2.902344 27.296875 2.902344 27.546875 C 2.902344 27.796875 3.105469 28 3.355469 28 L 24.644531 28 C 24.894531 28 25.097656 27.796875 25.097656 27.546875 C 25.097656 27.296875 24.894531 27.09375 24.644531 27.09375 Z M 18.507812 13.359375 C 19.90625 11.960938 21.871094 11.3125 23.703125 11.628906 C 24.019531 13.460938 23.371094 15.425781 21.972656 16.824219 C 20.722656 18.074219 19.011719 18.726562 17.355469 18.621094 L 21.589844 14.386719 C 21.765625 14.207031 21.765625 13.921875 21.589844 13.746094 C 21.410156 13.566406 21.125 13.566406 20.945312 13.746094 L 16.710938 17.980469 C 16.605469 16.320312 17.257812 14.609375 18.507812 13.359375 Z M 17.289062 6.050781 C 18.253906 5.089844 19.601562 4.628906 20.867188 4.816406 C 21.054688 6.082031 20.59375 7.429688 19.632812 8.394531 C 18.820312 9.207031 17.734375 9.660156 16.65625 9.671875 L 19.265625 7.0625 C 19.441406 6.886719 19.441406 6.597656 19.265625 6.421875 C 19.085938 6.246094 18.800781 6.246094 18.625 6.421875 L 16.011719 9.03125 C 16.019531 7.953125 16.476562 6.867188 17.289062 6.050781 Z M 7.234375 0.949219 C 8.5 0.761719 9.847656 1.21875 10.8125 2.183594 C 11.625 2.996094 12.082031 4.082031 12.089844 5.160156 L 9.484375 2.550781 C 9.304688 2.375 9.019531 2.375 8.839844 2.550781 C 8.664062 2.726562 8.664062 3.015625 8.839844 3.191406 L 11.453125 5.804688 C 10.371094 5.792969 9.285156 5.339844 8.472656 4.527344 C 7.507812 3.5625 7.046875 2.214844 7.234375 0.949219 Z M 6.027344 12.953125 C 4.628906 11.554688 3.980469 9.589844 4.296875 7.757812 C 6.128906 7.445312 8.09375 8.09375 9.492188 9.488281 C 10.742188 10.742188 11.390625 12.449219 11.289062 14.109375 L 7.054688 9.875 C 6.875 9.695312 6.589844 9.695312 6.410156 9.875 C 6.234375 10.050781 6.234375 10.339844 6.410156 10.515625 L 10.644531 14.75 C 8.988281 14.855469 7.277344 14.203125 6.027344 12.953125 Z M 14 25.097656 C 16.761719 25.097656 19.414062 25.828125 21.359375 27.09375 L 6.640625 27.09375 C 8.585938 25.828125 11.238281 25.097656 14 25.097656 Z M 14 25.097656 "/>
</g>
</svg>
