<?xml version="1.0" encoding="UTF-8"?>
<svg xmlns="http://www.w3.org/2000/svg" xmlns:xlink="http://www.w3.org/1999/xlink" width="28pt" height="28pt" viewBox="0 0 28 28" version="1.1">
<g id="surface1">
<path style=" stroke:none;fill-rule:nonzero;fill:rgb(0%,0%,0%);fill-opacity:1;" d="M 8.75 21.007812 L 4.484375 21 L 3.730469 16.128906 C 3.628906 15.445312 3.035156 14.933594 2.351562 14.933594 C 2.34375 14.933594 2.335938 14.933594 2.324219 14.933594 C 1.558594 14.933594 0.933594 15.554688 0.925781 16.324219 C 0.925781 16.386719 0.929688 16.449219 0.9375 16.503906 L 1.648438 22.570312 C 1.730469 23.277344 2.328125 23.808594 3.039062 23.808594 C 3.039062 23.808594 3.042969 23.808594 3.046875 23.808594 L 8.75 23.808594 C 9.523438 23.808594 10.152344 23.179688 10.152344 22.410156 C 10.152344 21.636719 9.523438 21.007812 8.75 21.007812 Z M 8.75 22.875 L 3.042969 22.875 C 3.042969 22.875 3.042969 22.875 3.039062 22.875 C 2.804688 22.875 2.605469 22.699219 2.578125 22.460938 L 1.863281 16.390625 C 1.859375 16.371094 1.859375 16.347656 1.859375 16.328125 C 1.859375 16.074219 2.070312 15.867188 2.335938 15.867188 C 2.335938 15.867188 2.339844 15.867188 2.34375 15.867188 C 2.574219 15.867188 2.773438 16.039062 2.804688 16.269531 L 3.621094 21.539062 C 3.65625 21.765625 3.851562 21.933594 4.082031 21.933594 L 8.75 21.941406 C 9.007812 21.941406 9.214844 22.152344 9.214844 22.410156 C 9.214844 22.667969 9.007812 22.875 8.75 22.875 Z M 8.75 22.875 "/>
<path style=" stroke:none;fill-rule:nonzero;fill:rgb(0%,0%,0%);fill-opacity:1;" d="M 1.769531 27.386719 L 3.171875 23.1875 L 4.058594 23.484375 L 2.65625 27.683594 Z M 1.769531 27.386719 "/>
<path style=" stroke:none;fill-rule:nonzero;fill:rgb(0%,0%,0%);fill-opacity:1;" d="M 7.375 23.480469 L 8.257812 23.1875 L 9.660156 27.386719 L 8.773438 27.683594 Z M 7.375 23.480469 "/>
<path style=" stroke:none;fill-rule:nonzero;fill:rgb(0%,0%,0%);fill-opacity:1;" d="M 20.535156 16.800781 L 7.464844 16.800781 C 7.210938 16.800781 7 17.007812 7 17.265625 L 7 19.132812 C 7 19.390625 7.210938 19.601562 7.464844 19.601562 L 20.535156 19.601562 C 20.792969 19.601562 21 19.390625 21 19.132812 L 21 17.265625 C 21 17.007812 20.792969 16.800781 20.535156 16.800781 Z M 20.066406 18.667969 L 7.933594 18.667969 L 7.933594 17.734375 L 20.066406 17.734375 Z M 20.066406 18.667969 "/>
<path style=" stroke:none;fill-rule:nonzero;fill:rgb(0%,0%,0%);fill-opacity:1;" d="M 14.933594 18.667969 L 13.066406 18.667969 C 12.808594 18.667969 12.601562 18.875 12.601562 19.132812 L 12.601562 27.535156 C 12.601562 27.792969 12.808594 28 13.066406 28 L 14.933594 28 C 15.191406 28 15.398438 27.792969 15.398438 27.535156 L 15.398438 19.132812 C 15.398438 18.875 15.191406 18.667969 14.933594 18.667969 Z M 14.464844 27.066406 L 13.535156 27.066406 L 13.535156 19.601562 L 14.464844 19.601562 Z M 14.464844 27.066406 "/>
<path style=" stroke:none;fill-rule:nonzero;fill:rgb(0%,0%,0%);fill-opacity:1;" d="M 27.519531 4.085938 L 26.585938 0.351562 C 26.535156 0.144531 26.347656 0 26.132812 0 L 1.867188 0 C 1.652344 0 1.464844 0.144531 1.414062 0.351562 L 0.480469 4.085938 C 0.445312 4.226562 0.476562 4.375 0.566406 4.488281 C 0.652344 4.601562 0.789062 4.667969 0.933594 4.667969 L 27.066406 4.667969 C 27.210938 4.667969 27.347656 4.601562 27.433594 4.488281 C 27.523438 4.375 27.554688 4.226562 27.519531 4.085938 Z M 1.53125 3.734375 L 2.230469 0.933594 L 25.769531 0.933594 L 26.46875 3.734375 Z M 1.53125 3.734375 "/>
<path style=" stroke:none;fill-rule:nonzero;fill:rgb(0%,0%,0%);fill-opacity:1;" d="M 15.867188 3.734375 L 12.132812 3.734375 C 11.875 3.734375 11.667969 3.941406 11.667969 4.199219 L 11.667969 5.601562 C 11.667969 6.886719 12.714844 7.933594 14 7.933594 C 15.285156 7.933594 16.332031 6.886719 16.332031 5.601562 L 16.332031 4.199219 C 16.332031 3.941406 16.125 3.734375 15.867188 3.734375 Z M 15.398438 5.601562 C 15.398438 6.371094 14.773438 7 14 7 C 13.226562 7 12.601562 6.371094 12.601562 5.601562 L 12.601562 4.667969 L 15.398438 4.667969 Z M 15.398438 5.601562 "/>
<path style=" stroke:none;fill-rule:nonzero;fill:rgb(0%,0%,0%);fill-opacity:1;" d="M 12.132812 3.734375 L 8.398438 3.734375 C 8.140625 3.734375 7.933594 3.941406 7.933594 4.199219 L 7.933594 5.601562 C 7.933594 6.886719 8.980469 7.933594 10.265625 7.933594 C 11.554688 7.933594 12.601562 6.886719 12.601562 5.601562 L 12.601562 4.199219 C 12.601562 3.941406 12.390625 3.734375 12.132812 3.734375 Z M 11.667969 5.601562 C 11.667969 6.371094 11.039062 7 10.265625 7 C 9.496094 7 8.867188 6.371094 8.867188 5.601562 L 8.867188 4.667969 L 11.667969 4.667969 Z M 11.667969 5.601562 "/>
<path style=" stroke:none;fill-rule:nonzero;fill:rgb(0%,0%,0%);fill-opacity:1;" d="M 8.398438 3.734375 L 4.667969 3.734375 C 4.410156 3.734375 4.199219 3.941406 4.199219 4.199219 L 4.199219 5.601562 C 4.199219 6.886719 5.246094 7.933594 6.535156 7.933594 C 7.820312 7.933594 8.867188 6.886719 8.867188 5.601562 L 8.867188 4.199219 C 8.867188 3.941406 8.65625 3.734375 8.398438 3.734375 Z M 7.933594 5.601562 C 7.933594 6.371094 7.304688 7 6.535156 7 C 5.761719 7 5.132812 6.371094 5.132812 5.601562 L 5.132812 4.667969 L 7.933594 4.667969 Z M 7.933594 5.601562 "/>
<path style=" stroke:none;fill-rule:nonzero;fill:rgb(0%,0%,0%);fill-opacity:1;" d="M 4.667969 3.734375 L 0.933594 3.734375 C 0.675781 3.734375 0.464844 3.941406 0.464844 4.199219 L 0.464844 5.601562 C 0.464844 6.886719 1.511719 7.933594 2.800781 7.933594 C 4.085938 7.933594 5.132812 6.886719 5.132812 5.601562 L 5.132812 4.199219 C 5.132812 3.941406 4.925781 3.734375 4.667969 3.734375 Z M 4.199219 5.601562 C 4.199219 6.371094 3.570312 7 2.800781 7 C 2.027344 7 1.398438 6.371094 1.398438 5.601562 L 1.398438 4.667969 L 4.199219 4.667969 Z M 4.199219 5.601562 "/>
<path style=" stroke:none;fill-rule:nonzero;fill:rgb(0%,0%,0%);fill-opacity:1;" d="M 19.601562 3.734375 L 15.867188 3.734375 C 15.609375 3.734375 15.398438 3.941406 15.398438 4.199219 L 15.398438 5.601562 C 15.398438 6.886719 16.445312 7.933594 17.734375 7.933594 C 19.019531 7.933594 20.066406 6.886719 20.066406 5.601562 L 20.066406 4.199219 C 20.066406 3.941406 19.859375 3.734375 19.601562 3.734375 Z M 19.132812 5.601562 C 19.132812 6.371094 18.503906 7 17.734375 7 C 16.960938 7 16.332031 6.371094 16.332031 5.601562 L 16.332031 4.667969 L 19.132812 4.667969 Z M 19.132812 5.601562 "/>
<path style=" stroke:none;fill-rule:nonzero;fill:rgb(0%,0%,0%);fill-opacity:1;" d="M 23.332031 3.734375 L 19.601562 3.734375 C 19.34375 3.734375 19.132812 3.941406 19.132812 4.199219 L 19.132812 5.601562 C 19.132812 6.886719 20.179688 7.933594 21.464844 7.933594 C 22.753906 7.933594 23.800781 6.886719 23.800781 5.601562 L 23.800781 4.199219 C 23.800781 3.941406 23.589844 3.734375 23.332031 3.734375 Z M 22.867188 5.601562 C 22.867188 6.371094 22.238281 7 21.464844 7 C 20.695312 7 20.066406 6.371094 20.066406 5.601562 L 20.066406 4.667969 L 22.867188 4.667969 Z M 22.867188 5.601562 "/>
<path style=" stroke:none;fill-rule:nonzero;fill:rgb(0%,0%,0%);fill-opacity:1;" d="M 27.066406 3.734375 L 23.332031 3.734375 C 23.074219 3.734375 22.867188 3.941406 22.867188 4.199219 L 22.867188 5.601562 C 22.867188 6.886719 23.914062 7.933594 25.199219 7.933594 C 26.488281 7.933594 27.535156 6.886719 27.535156 5.601562 L 27.535156 4.199219 C 27.535156 3.941406 27.324219 3.734375 27.066406 3.734375 Z M 26.601562 5.601562 C 26.601562 6.371094 25.972656 7 25.199219 7 C 24.429688 7 23.800781 6.371094 23.800781 5.601562 L 23.800781 4.667969 L 26.601562 4.667969 Z M 26.601562 5.601562 "/>
<path style=" stroke:none;fill-rule:nonzero;fill:rgb(0%,0%,0%);fill-opacity:1;" d="M 11.667969 0.464844 L 12.601562 0.464844 L 12.601562 4.199219 L 11.667969 4.199219 Z M 11.667969 0.464844 "/>
<path style=" stroke:none;fill-rule:nonzero;fill:rgb(0%,0%,0%);fill-opacity:1;" d="M 15.398438 0.464844 L 16.332031 0.464844 L 16.332031 4.199219 L 15.398438 4.199219 Z M 15.398438 0.464844 "/>
<path style=" stroke:none;fill-rule:nonzero;fill:rgb(0%,0%,0%);fill-opacity:1;" d="M 7.933594 0.464844 L 8.867188 0.464844 L 8.867188 4.199219 L 7.933594 4.199219 Z M 7.933594 0.464844 "/>
<path style=" stroke:none;fill-rule:nonzero;fill:rgb(0%,0%,0%);fill-opacity:1;" d="M 19.132812 0.464844 L 20.066406 0.464844 L 20.066406 4.199219 L 19.132812 4.199219 Z M 19.132812 0.464844 "/>
<path style=" stroke:none;fill-rule:nonzero;fill:rgb(0%,0%,0%);fill-opacity:1;" d="M 4.203125 4.140625 L 4.667969 0.410156 L 5.597656 0.523438 L 5.128906 4.257812 Z M 4.203125 4.140625 "/>
<path style=" stroke:none;fill-rule:nonzero;fill:rgb(0%,0%,0%);fill-opacity:1;" d="M 22.40625 0.523438 L 23.332031 0.410156 L 23.796875 4.140625 L 22.871094 4.257812 Z M 22.40625 0.523438 "/>
<path style=" stroke:none;fill-rule:nonzero;fill:rgb(0%,0%,0%);fill-opacity:1;" d="M 25.683594 14.933594 C 25.671875 14.933594 25.664062 14.933594 25.65625 14.933594 C 24.964844 14.933594 24.371094 15.445312 24.273438 16.125 L 23.515625 21 L 19.25 21.007812 C 18.476562 21.007812 17.851562 21.636719 17.851562 22.410156 C 17.851562 23.179688 18.476562 23.808594 19.25 23.808594 L 24.949219 23.808594 C 24.953125 23.808594 24.957031 23.808594 24.957031 23.808594 C 25.671875 23.808594 26.269531 23.277344 26.351562 22.570312 L 27.0625 16.507812 C 27.070312 16.445312 27.074219 16.382812 27.074219 16.324219 C 27.070312 15.554688 26.441406 14.933594 25.683594 14.933594 Z M 26.136719 16.394531 L 25.421875 22.464844 C 25.394531 22.699219 25.195312 22.875 24.957031 22.875 C 24.953125 22.875 24.953125 22.875 24.953125 22.875 L 19.25 22.875 C 18.992188 22.875 18.785156 22.667969 18.785156 22.410156 C 18.785156 22.152344 18.992188 21.941406 19.25 21.941406 L 23.917969 21.933594 C 24.148438 21.933594 24.34375 21.765625 24.378906 21.539062 L 25.195312 16.265625 C 25.226562 16.039062 25.425781 15.867188 25.664062 15.867188 C 25.667969 15.867188 25.671875 15.867188 25.675781 15.867188 C 25.929688 15.867188 26.140625 16.074219 26.140625 16.332031 C 26.140625 16.351562 26.140625 16.371094 26.136719 16.394531 Z M 26.136719 16.394531 "/>
<path style=" stroke:none;fill-rule:nonzero;fill:rgb(0%,0%,0%);fill-opacity:1;" d="M 23.941406 23.480469 L 24.824219 23.1875 L 26.226562 27.386719 L 25.339844 27.683594 Z M 23.941406 23.480469 "/>
<path style=" stroke:none;fill-rule:nonzero;fill:rgb(0%,0%,0%);fill-opacity:1;" d="M 18.34375 27.382812 L 19.742188 23.183594 L 20.628906 23.480469 L 19.226562 27.679688 Z M 18.34375 27.382812 "/>
<path style=" stroke:none;fill-rule:nonzero;fill:rgb(0%,0%,0%);fill-opacity:1;" d="M 0 27.066406 L 28 27.066406 L 28 28 L 0 28 Z M 0 27.066406 "/>
</g>
</svg>
