<?xml version="1.0" encoding="UTF-8"?>
<svg xmlns="http://www.w3.org/2000/svg" xmlns:xlink="http://www.w3.org/1999/xlink" width="28pt" height="28pt" viewBox="0 0 28 28" version="1.1">
<g id="surface1">
<path style=" stroke:none;fill-rule:nonzero;fill:rgb(0%,0%,0%);fill-opacity:1;" d="M 22.75 23.296875 C 22.449219 23.296875 22.203125 23.542969 22.203125 23.84375 C 22.203125 24.144531 22.449219 24.390625 22.75 24.390625 C 23.050781 24.390625 23.296875 24.144531 23.296875 23.84375 C 23.296875 23.542969 23.050781 23.296875 22.75 23.296875 Z M 22.75 23.296875 "/>
<path style=" stroke:none;fill-rule:nonzero;fill:rgb(0%,0%,0%);fill-opacity:1;" d="M 24.390625 2.59375 L 24.390625 1.640625 C 24.390625 0.734375 23.65625 0 22.75 0 L 5.25 0 C 4.34375 0 3.609375 0.734375 3.609375 1.640625 L 3.609375 2.59375 C 0.0429688 9.183594 0 8.984375 0 9.296875 L 0 10.390625 C 0 11.339844 0.546875 12.21875 1.421875 12.722656 L 1.421875 27.453125 C 1.421875 27.753906 1.667969 28 1.96875 28 L 26.03125 28 C 26.332031 28 26.578125 27.753906 26.578125 27.453125 L 26.578125 12.722656 C 27.441406 12.21875 28 11.328125 28 10.390625 L 28 9.296875 C 28 8.984375 27.921875 9.117188 24.390625 2.59375 Z M 26.527344 8.75 L 23.144531 8.75 L 21.320312 3.28125 L 23.519531 3.28125 Z M 18.921875 9.84375 L 22.203125 9.84375 L 22.203125 10.390625 C 22.203125 11.296875 21.46875 12.03125 20.5625 12.03125 C 19.65625 12.03125 18.921875 11.296875 18.921875 10.390625 Z M 18.839844 8.75 L 17.925781 3.28125 L 20.167969 3.28125 L 21.992188 8.75 Z M 4.703125 1.640625 C 4.703125 1.339844 4.949219 1.09375 5.25 1.09375 L 22.75 1.09375 C 23.050781 1.09375 23.296875 1.339844 23.296875 1.640625 L 23.296875 2.1875 C 22.777344 2.1875 5.226562 2.1875 4.703125 2.1875 Z M 17.828125 9.84375 L 17.828125 10.390625 C 17.828125 11.296875 17.09375 12.03125 16.1875 12.03125 C 15.28125 12.03125 14.546875 11.296875 14.546875 10.390625 L 14.546875 9.84375 Z M 14.546875 8.75 L 14.546875 3.28125 L 16.816406 3.28125 L 17.730469 8.75 Z M 10.269531 8.75 L 11.183594 3.28125 L 13.453125 3.28125 L 13.453125 8.75 Z M 13.453125 9.84375 L 13.453125 10.390625 C 13.453125 11.296875 12.71875 12.03125 11.8125 12.03125 C 10.90625 12.03125 10.171875 11.296875 10.171875 10.390625 L 10.171875 9.84375 Z M 6.007812 8.75 L 7.832031 3.28125 L 10.074219 3.28125 L 9.160156 8.75 Z M 9.078125 9.84375 L 9.078125 10.390625 C 9.078125 11.296875 8.34375 12.03125 7.4375 12.03125 C 6.53125 12.03125 5.796875 11.296875 5.796875 10.390625 L 5.796875 9.84375 Z M 4.480469 3.28125 L 6.679688 3.28125 L 4.855469 8.75 L 1.472656 8.75 Z M 1.09375 10.390625 L 1.09375 9.84375 L 4.703125 9.84375 L 4.703125 10.390625 C 4.703125 11.25 3.84375 12.03125 2.898438 12.03125 C 2.660156 12.03125 2.414062 11.980469 2.183594 11.882812 C 1.53125 11.605469 1.09375 11.003906 1.09375 10.390625 Z M 11.265625 26.90625 L 5.796875 26.90625 L 5.796875 22.203125 L 11.265625 22.203125 Z M 11.265625 21.109375 L 5.796875 21.109375 L 5.796875 16.40625 L 11.265625 16.40625 Z M 25.484375 26.90625 L 12.359375 26.90625 L 12.359375 15.859375 C 12.359375 15.558594 12.113281 15.3125 11.8125 15.3125 L 5.25 15.3125 C 4.949219 15.3125 4.703125 15.558594 4.703125 15.859375 L 4.703125 26.90625 L 2.515625 26.90625 L 2.515625 13.097656 C 2.640625 13.117188 2.769531 13.125 2.898438 13.125 C 3.617188 13.125 4.347656 12.839844 4.894531 12.34375 C 5.015625 12.234375 5.125 12.113281 5.222656 11.992188 C 5.71875 12.679688 6.527344 13.125 7.4375 13.125 C 8.332031 13.125 9.125 12.695312 9.625 12.03125 C 10.125 12.695312 10.917969 13.125 11.8125 13.125 C 12.707031 13.125 13.5 12.695312 14 12.03125 C 14.5 12.695312 15.292969 13.125 16.1875 13.125 C 17.082031 13.125 17.875 12.695312 18.375 12.03125 C 18.875 12.695312 19.667969 13.125 20.5625 13.125 C 21.472656 13.125 22.28125 12.679688 22.777344 11.992188 C 22.875 12.113281 22.984375 12.234375 23.105469 12.34375 C 23.652344 12.839844 24.382812 13.125 25.101562 13.125 C 25.230469 13.125 25.355469 13.117188 25.484375 13.097656 Z M 26.90625 10.390625 C 26.90625 11.023438 26.453125 11.628906 25.777344 11.898438 C 25.554688 11.988281 25.328125 12.03125 25.101562 12.03125 C 24.15625 12.03125 23.296875 11.25 23.296875 10.390625 L 23.296875 9.84375 L 26.90625 9.84375 Z M 26.90625 10.390625 "/>
<path style=" stroke:none;fill-rule:nonzero;fill:rgb(0%,0%,0%);fill-opacity:1;" d="M 23.84375 21.109375 L 23.296875 21.109375 L 23.296875 15.859375 C 23.296875 15.558594 23.050781 15.3125 22.75 15.3125 L 16.1875 15.3125 C 15.886719 15.3125 15.640625 15.558594 15.640625 15.859375 L 15.640625 21.109375 L 15.09375 21.109375 C 14.792969 21.109375 14.546875 21.355469 14.546875 21.65625 C 14.546875 21.957031 14.792969 22.203125 15.09375 22.203125 L 23.84375 22.203125 C 24.144531 22.203125 24.390625 21.957031 24.390625 21.65625 C 24.390625 21.355469 24.144531 21.109375 23.84375 21.109375 Z M 22.203125 21.109375 L 16.734375 21.109375 L 16.734375 16.40625 L 22.203125 16.40625 Z M 22.203125 21.109375 "/>
<path style=" stroke:none;fill-rule:nonzero;fill:rgb(0%,0%,0%);fill-opacity:1;" d="M 20.5625 23.296875 L 16.1875 23.296875 C 15.886719 23.296875 15.640625 23.542969 15.640625 23.84375 C 15.640625 24.144531 15.886719 24.390625 16.1875 24.390625 L 20.5625 24.390625 C 20.863281 24.390625 21.109375 24.144531 21.109375 23.84375 C 21.109375 23.542969 20.863281 23.296875 20.5625 23.296875 Z M 20.5625 23.296875 "/>
</g>
</svg>
