<?xml version="1.0" encoding="UTF-8"?>
<svg xmlns="http://www.w3.org/2000/svg" xmlns:xlink="http://www.w3.org/1999/xlink" width="28pt" height="28pt" viewBox="0 0 28 28" version="1.1">
<g id="surface1">
<path style=" stroke:none;fill-rule:nonzero;fill:rgb(0%,0%,0%);fill-opacity:1;" d="M 27.535156 22.867188 L 9.527344 22.867188 L 3.128906 16.46875 C 2.949219 16.285156 2.65625 16.28125 2.46875 16.457031 C 2.285156 16.636719 2.28125 16.933594 2.457031 17.117188 C 2.460938 17.121094 2.464844 17.125 2.46875 17.128906 L 4.71875 19.378906 L 2.101562 22.867188 L 0.464844 22.867188 C 0.210938 22.867188 0 23.074219 0 23.332031 C 0 23.589844 0.210938 23.800781 0.464844 23.800781 L 2.863281 23.800781 L 0.546875 27.273438 C 0.402344 27.488281 0.460938 27.777344 0.675781 27.921875 C 0.890625 28.066406 1.179688 28.007812 1.320312 27.792969 L 3.984375 23.800781 L 9.800781 23.800781 L 9.800781 27.535156 C 9.800781 27.789062 10.007812 28 10.265625 28 C 10.523438 28 10.734375 27.789062 10.734375 27.535156 L 10.734375 23.800781 L 23.550781 23.800781 L 26.210938 27.792969 C 26.351562 28.007812 26.644531 28.066406 26.859375 27.921875 C 27.070312 27.777344 27.128906 27.488281 26.988281 27.273438 L 24.671875 23.800781 L 27.535156 23.800781 C 27.789062 23.800781 28 23.589844 28 23.332031 C 28 23.074219 27.789062 22.867188 27.535156 22.867188 Z M 3.265625 22.867188 L 5.382812 20.042969 L 8.207031 22.867188 Z M 3.265625 22.867188 "/>
<path style=" stroke:none;fill-rule:nonzero;fill:rgb(0%,0%,0%);fill-opacity:1;" d="M 26.132812 19.601562 L 11.394531 19.601562 L 10.734375 18.941406 L 10.734375 9.519531 C 11.011719 9.699219 11.335938 9.796875 11.667969 9.800781 C 12.039062 9.796875 12.402344 9.675781 12.703125 9.453125 C 12.921875 9.300781 13.210938 9.300781 13.429688 9.453125 C 14.042969 9.914062 14.890625 9.914062 15.503906 9.453125 C 15.722656 9.300781 16.011719 9.300781 16.230469 9.453125 C 16.886719 9.945312 17.800781 9.910156 18.417969 9.367188 C 18.578125 9.230469 18.667969 9.03125 18.660156 8.824219 C 18.496094 4.699219 14.828125 1.398438 10.265625 1.398438 C 5.25 1.398438 2.015625 4.699219 1.871094 8.824219 C 1.867188 9.03125 1.957031 9.230469 2.117188 9.367188 C 2.4375 9.644531 2.84375 9.796875 3.265625 9.800781 C 3.640625 9.796875 4.003906 9.675781 4.304688 9.453125 C 4.519531 9.300781 4.8125 9.300781 5.03125 9.453125 C 5.644531 9.914062 6.488281 9.914062 7.105469 9.453125 C 7.320312 9.300781 7.613281 9.300781 7.828125 9.453125 C 8.40625 9.890625 9.195312 9.917969 9.800781 9.519531 L 9.800781 18.007812 L 6.398438 14.605469 C 6.214844 14.421875 5.917969 14.421875 5.738281 14.605469 L 4.335938 16.003906 C 4.15625 16.1875 4.15625 16.484375 4.335938 16.664062 L 9.9375 22.265625 C 10.023438 22.351562 10.144531 22.398438 10.265625 22.398438 L 26.132812 22.398438 C 26.390625 22.398438 26.601562 22.191406 26.601562 21.933594 L 26.601562 20.066406 C 26.601562 19.808594 26.390625 19.601562 26.132812 19.601562 Z M 9.355469 8.699219 C 9.214844 8.804688 9.042969 8.863281 8.867188 8.867188 C 8.691406 8.863281 8.519531 8.804688 8.378906 8.699219 C 7.835938 8.308594 7.097656 8.308594 6.554688 8.699219 C 6.269531 8.921875 5.867188 8.921875 5.578125 8.699219 C 5.035156 8.308594 4.300781 8.308594 3.753906 8.699219 C 3.613281 8.804688 3.441406 8.863281 3.265625 8.867188 C 3.105469 8.863281 2.945312 8.8125 2.8125 8.722656 C 3.011719 4.953125 6.058594 2.332031 10.265625 2.332031 C 14.253906 2.332031 17.5 5.128906 17.722656 8.722656 C 17.585938 8.816406 17.429688 8.863281 17.265625 8.867188 C 17.089844 8.863281 16.917969 8.804688 16.777344 8.699219 C 16.234375 8.304688 15.5 8.304688 14.953125 8.699219 C 14.667969 8.921875 14.265625 8.921875 13.980469 8.699219 C 13.433594 8.304688 12.699219 8.304688 12.15625 8.699219 C 11.867188 8.921875 11.464844 8.921875 11.179688 8.699219 C 10.632812 8.304688 9.898438 8.304688 9.355469 8.699219 Z M 25.667969 21.464844 L 10.460938 21.464844 L 5.328125 16.332031 L 6.066406 15.59375 L 9.9375 19.460938 L 10.871094 20.394531 C 10.957031 20.484375 11.074219 20.535156 11.199219 20.535156 L 25.667969 20.535156 Z M 25.667969 21.464844 "/>
<path style=" stroke:none;fill-rule:nonzero;fill:rgb(0%,0%,0%);fill-opacity:1;" d="M 23.800781 2.074219 C 22.625 2.074219 21.675781 3.027344 21.675781 4.199219 C 21.675781 5.375 22.625 6.324219 23.800781 6.324219 C 24.972656 6.324219 25.925781 5.375 25.925781 4.199219 C 25.925781 3.027344 24.972656 2.074219 23.800781 2.074219 Z M 23.800781 5.394531 C 23.140625 5.394531 22.605469 4.859375 22.605469 4.199219 C 22.609375 3.542969 23.140625 3.007812 23.800781 3.007812 C 24.457031 3.007812 24.992188 3.542969 24.992188 4.199219 C 24.992188 4.859375 24.457031 5.394531 23.800781 5.394531 Z M 23.800781 5.394531 "/>
<path style=" stroke:none;fill-rule:nonzero;fill:rgb(0%,0%,0%);fill-opacity:1;" d="M 20.894531 3.734375 L 20.066406 3.734375 C 19.808594 3.734375 19.601562 3.941406 19.601562 4.199219 C 19.601562 4.457031 19.808594 4.667969 20.066406 4.667969 L 20.894531 4.667969 C 21.152344 4.667969 21.363281 4.457031 21.363281 4.199219 C 21.363281 3.941406 21.152344 3.734375 20.894531 3.734375 Z M 20.894531 3.734375 "/>
<path style=" stroke:none;fill-rule:nonzero;fill:rgb(0%,0%,0%);fill-opacity:1;" d="M 22.078125 1.816406 L 21.488281 1.230469 C 21.304688 1.050781 21.007812 1.054688 20.832031 1.242188 C 20.65625 1.421875 20.65625 1.710938 20.832031 1.890625 L 21.417969 2.476562 C 21.601562 2.65625 21.898438 2.652344 22.078125 2.464844 C 22.25 2.285156 22.25 1.996094 22.078125 1.816406 Z M 22.078125 1.816406 "/>
<path style=" stroke:none;fill-rule:nonzero;fill:rgb(0%,0%,0%);fill-opacity:1;" d="M 23.800781 0 C 23.542969 0 23.332031 0.207031 23.332031 0.464844 L 23.332031 1.296875 C 23.332031 1.554688 23.542969 1.761719 23.800781 1.761719 C 24.058594 1.761719 24.265625 1.554688 24.265625 1.296875 L 24.265625 0.464844 C 24.265625 0.207031 24.058594 0 23.800781 0 Z M 23.800781 0 "/>
<path style=" stroke:none;fill-rule:nonzero;fill:rgb(0%,0%,0%);fill-opacity:1;" d="M 26.769531 1.230469 C 26.585938 1.046875 26.292969 1.046875 26.109375 1.230469 L 25.523438 1.816406 C 25.335938 1.996094 25.332031 2.292969 25.511719 2.476562 C 25.691406 2.664062 25.984375 2.667969 26.171875 2.488281 C 26.175781 2.484375 26.179688 2.480469 26.183594 2.476562 L 26.769531 1.890625 C 26.953125 1.707031 26.953125 1.414062 26.769531 1.230469 Z M 26.769531 1.230469 "/>
<path style=" stroke:none;fill-rule:nonzero;fill:rgb(0%,0%,0%);fill-opacity:1;" d="M 27.535156 3.734375 L 26.703125 3.734375 C 26.445312 3.734375 26.238281 3.941406 26.238281 4.199219 C 26.238281 4.457031 26.445312 4.667969 26.703125 4.667969 L 27.535156 4.667969 C 27.789062 4.667969 28 4.457031 28 4.199219 C 28 3.941406 27.789062 3.734375 27.535156 3.734375 Z M 27.535156 3.734375 "/>
<path style=" stroke:none;fill-rule:nonzero;fill:rgb(0%,0%,0%);fill-opacity:1;" d="M 26.769531 6.511719 L 26.183594 5.921875 C 26 5.742188 25.707031 5.742188 25.523438 5.921875 C 25.339844 6.105469 25.339844 6.402344 25.523438 6.582031 L 26.109375 7.167969 C 26.296875 7.347656 26.589844 7.34375 26.769531 7.160156 C 26.945312 6.976562 26.945312 6.691406 26.769531 6.511719 Z M 26.769531 6.511719 "/>
<path style=" stroke:none;fill-rule:nonzero;fill:rgb(0%,0%,0%);fill-opacity:1;" d="M 23.800781 6.636719 C 23.542969 6.636719 23.332031 6.847656 23.332031 7.105469 L 23.332031 7.933594 C 23.332031 8.191406 23.542969 8.398438 23.800781 8.398438 C 24.058594 8.398438 24.265625 8.191406 24.265625 7.933594 L 24.265625 7.105469 C 24.265625 6.847656 24.058594 6.636719 23.800781 6.636719 Z M 23.800781 6.636719 "/>
<path style=" stroke:none;fill-rule:nonzero;fill:rgb(0%,0%,0%);fill-opacity:1;" d="M 22.066406 5.921875 C 21.886719 5.75 21.597656 5.75 21.417969 5.921875 L 20.832031 6.511719 C 20.644531 6.6875 20.640625 6.984375 20.820312 7.167969 C 20.996094 7.355469 21.292969 7.359375 21.480469 7.179688 C 21.484375 7.175781 21.484375 7.171875 21.488281 7.167969 L 22.078125 6.582031 C 22.257812 6.398438 22.25 6.101562 22.066406 5.921875 Z M 22.066406 5.921875 "/>
</g>
</svg>
