<?xml version="1.0" encoding="UTF-8"?>
<svg xmlns="http://www.w3.org/2000/svg" xmlns:xlink="http://www.w3.org/1999/xlink" width="28pt" height="28pt" viewBox="0 0 28 28" version="1.1">
<g id="surface1">
<path style=" stroke:none;fill-rule:nonzero;fill:rgb(0%,0%,0%);fill-opacity:1;" d="M 24.675781 8.054688 C 23.550781 6.234375 21.96875 4.722656 20.105469 3.683594 C 18.242188 2.644531 16.132812 2.09375 14 2.09375 C 11.867188 2.09375 9.757812 2.644531 7.894531 3.683594 C 6.03125 4.722656 4.453125 6.234375 3.324219 8.054688 C 3.175781 8.296875 3.164062 8.601562 3.292969 8.855469 C 3.585938 9.4375 4.578125 10.425781 6.429688 10.429688 C 6.429688 10.429688 6.433594 10.429688 6.433594 10.429688 C 7.734375 10.429688 8.585938 10.027344 9.109375 9.632812 C 9.78125 10.101562 11 10.613281 13.179688 10.71875 L 13.179688 15.839844 L 7.933594 15.839844 C 7.480469 15.839844 7.113281 16.207031 7.113281 16.660156 C 7.113281 17.113281 7.480469 17.480469 7.933594 17.480469 L 9.488281 17.480469 L 9.488281 25.074219 C 9.488281 25.527344 9.855469 25.894531 10.308594 25.894531 C 10.761719 25.894531 11.128906 25.527344 11.128906 25.074219 L 11.128906 17.480469 L 16.898438 17.480469 L 16.898438 25.074219 C 16.898438 25.527344 17.265625 25.894531 17.71875 25.894531 C 18.171875 25.894531 18.539062 25.527344 18.539062 25.074219 L 18.539062 17.480469 L 20.230469 17.480469 C 20.683594 17.480469 21.050781 17.113281 21.050781 16.660156 C 21.050781 16.207031 20.683594 15.839844 20.230469 15.839844 L 14.820312 15.839844 L 14.820312 10.722656 C 17 10.617188 18.222656 10.105469 18.890625 9.632812 C 19.414062 10.027344 20.265625 10.429688 21.566406 10.429688 C 21.566406 10.429688 21.570312 10.429688 21.570312 10.429688 C 23.421875 10.425781 24.414062 9.4375 24.707031 8.855469 C 24.835938 8.601562 24.824219 8.296875 24.675781 8.054688 Z M 8.300781 8.164062 C 8.097656 8.375 7.546875 8.789062 6.433594 8.789062 C 6.433594 8.789062 6.433594 8.789062 6.429688 8.789062 C 5.742188 8.789062 5.308594 8.59375 5.054688 8.410156 C 6.335938 6.570312 8.105469 5.203125 10.136719 4.4375 C 9.078125 5.523438 8.449219 6.789062 8.300781 8.164062 Z M 14.019531 9.097656 C 11.363281 9.097656 10.300781 8.492188 9.949219 8.207031 C 10.324219 5.550781 13.121094 4.167969 14 3.796875 C 14.882812 4.167969 17.675781 5.554688 18.050781 8.207031 C 17.703125 8.492188 16.652344 9.097656 14.019531 9.097656 Z M 21.570312 8.789062 C 21.566406 8.789062 21.566406 8.789062 21.566406 8.789062 C 20.453125 8.789062 19.902344 8.375 19.699219 8.164062 C 19.550781 6.789062 18.921875 5.523438 17.863281 4.4375 C 19.894531 5.203125 21.664062 6.570312 22.945312 8.410156 C 22.691406 8.59375 22.257812 8.789062 21.570312 8.789062 Z M 21.570312 8.789062 "/>
<path style=" stroke:none;fill-rule:nonzero;fill:rgb(0%,0%,0%);fill-opacity:1;" d="M 6.203125 19.152344 L 2.347656 19.152344 L 1.632812 13.484375 C 1.578125 13.035156 1.167969 12.714844 0.71875 12.773438 C 0.269531 12.828125 -0.0507812 13.238281 0.0078125 13.6875 L 0.804688 20.027344 L 0.804688 25.085938 C 0.804688 25.539062 1.171875 25.90625 1.625 25.90625 C 2.078125 25.90625 2.445312 25.539062 2.445312 25.085938 L 2.445312 20.789062 L 5.382812 20.789062 L 5.382812 25.085938 C 5.382812 25.539062 5.75 25.90625 6.203125 25.90625 C 6.65625 25.90625 7.023438 25.539062 7.023438 25.085938 L 7.023438 19.972656 C 7.023438 19.519531 6.65625 19.152344 6.203125 19.152344 Z M 6.203125 19.152344 "/>
<path style=" stroke:none;fill-rule:nonzero;fill:rgb(0%,0%,0%);fill-opacity:1;" d="M 27.28125 12.773438 C 26.832031 12.714844 26.421875 13.035156 26.367188 13.484375 L 25.652344 19.148438 L 21.796875 19.148438 C 21.34375 19.148438 20.976562 19.519531 20.976562 19.96875 L 20.976562 25.085938 C 20.976562 25.539062 21.34375 25.90625 21.796875 25.90625 C 22.25 25.90625 22.617188 25.539062 22.617188 25.085938 L 22.617188 20.789062 L 25.554688 20.789062 L 25.554688 25.085938 C 25.554688 25.539062 25.921875 25.90625 26.375 25.90625 C 26.828125 25.90625 27.195312 25.539062 27.195312 25.085938 L 27.195312 20.027344 L 27.992188 13.6875 C 28.050781 13.238281 27.730469 12.828125 27.28125 12.773438 Z M 27.28125 12.773438 "/>
</g>
</svg>
