<?xml version="1.0" encoding="UTF-8"?>
<svg xmlns="http://www.w3.org/2000/svg" xmlns:xlink="http://www.w3.org/1999/xlink" width="28pt" height="28pt" viewBox="0 0 28 28" version="1.1">
<g id="surface1">
<path style=" stroke:none;fill-rule:nonzero;fill:rgb(0%,0%,0%);fill-opacity:1;" d="M 28 18.027344 L 28 13.066406 L 27.40625 13.066406 C 25.582031 13.066406 23.925781 13.777344 22.695312 14.933594 L 14.464844 14.933594 L 14.464844 7.464844 L 26.328125 7.464844 C 27.117188 7.464844 27.359375 6.398438 26.652344 6.054688 L 14.203125 0.046875 C 14.074219 -0.015625 13.925781 -0.015625 13.796875 0.046875 L 1.351562 6.054688 C 0.640625 6.398438 0.882812 7.464844 1.671875 7.464844 L 13.535156 7.464844 L 13.535156 14.933594 L 5.304688 14.933594 C 4.074219 13.777344 2.417969 13.066406 0.59375 13.066406 L 0 13.066406 L 0 18.027344 C 0 19.3125 0.964844 20.367188 2.207031 20.515625 L 0.480469 27.421875 C 0.417969 27.671875 0.570312 27.921875 0.820312 27.984375 C 1.070312 28.046875 1.324219 27.894531 1.386719 27.644531 L 3.058594 20.960938 L 5.15625 27.671875 C 5.230469 27.917969 5.492188 28.054688 5.738281 27.980469 C 5.984375 27.902344 6.121094 27.640625 6.046875 27.394531 L 3.902344 20.535156 L 7.464844 20.535156 L 7.464844 19.9375 C 7.464844 19.167969 7.339844 18.425781 7.105469 17.734375 L 11.199219 17.734375 L 11.199219 19.601562 L 12.601562 19.601562 L 12.601562 23.332031 C 12.601562 25.394531 10.929688 27.066406 8.867188 27.066406 L 7.933594 27.066406 C 7.675781 27.066406 7.464844 27.277344 7.464844 27.535156 C 7.464844 27.789062 7.675781 28 7.933594 28 L 20.066406 28 C 20.324219 28 20.535156 27.789062 20.535156 27.535156 C 20.535156 27.277344 20.324219 27.066406 20.066406 27.066406 L 19.132812 27.066406 C 17.070312 27.066406 15.398438 25.394531 15.398438 23.332031 L 15.398438 19.601562 L 16.800781 19.601562 L 16.800781 17.734375 L 20.894531 17.734375 C 20.660156 18.425781 20.53125 19.167969 20.53125 19.9375 L 20.53125 20.535156 L 23.667969 20.535156 L 21.945312 27.421875 C 21.882812 27.671875 22.035156 27.921875 22.285156 27.984375 C 22.535156 28.046875 22.789062 27.894531 22.851562 27.644531 L 24.523438 20.960938 L 26.621094 27.671875 C 26.699219 27.917969 26.960938 28.054688 27.207031 27.980469 C 27.453125 27.902344 27.589844 27.640625 27.511719 27.394531 L 25.367188 20.535156 L 25.496094 20.535156 C 26.878906 20.535156 28 19.414062 28 18.027344 Z M 14 0.984375 L 25.492188 6.535156 L 2.507812 6.535156 Z M 3.269531 19.601562 C 3.265625 19.601562 3.265625 19.601562 3.265625 19.601562 L 2.503906 19.601562 C 1.636719 19.601562 0.933594 18.898438 0.933594 18.027344 L 0.933594 14.007812 C 2.410156 14.09375 3.742188 14.714844 4.738281 15.683594 L 4.785156 15.730469 C 5.28125 16.222656 5.6875 16.8125 5.988281 17.460938 L 6.101562 17.714844 C 6.339844 18.300781 6.488281 18.9375 6.523438 19.601562 Z M 15.867188 18.667969 L 14.464844 18.667969 L 14.464844 23.332031 C 14.464844 24.859375 15.199219 26.214844 16.332031 27.066406 L 11.667969 27.066406 C 12.800781 26.214844 13.535156 24.859375 13.535156 23.332031 L 13.535156 18.667969 L 12.132812 18.667969 L 12.132812 17.734375 L 15.867188 17.734375 Z M 16.800781 16.800781 L 6.710938 16.800781 C 6.542969 16.472656 6.347656 16.160156 6.128906 15.867188 L 21.871094 15.867188 C 21.652344 16.160156 21.457031 16.472656 21.289062 16.800781 Z M 21.898438 17.714844 L 22.011719 17.460938 C 22.3125 16.8125 22.71875 16.222656 23.214844 15.730469 L 23.261719 15.683594 C 24.257812 14.714844 25.589844 14.09375 27.066406 14.007812 L 27.066406 18.027344 C 27.066406 18.898438 26.363281 19.601562 25.496094 19.601562 L 24.734375 19.601562 C 24.734375 19.601562 24.730469 19.601562 24.730469 19.601562 L 21.476562 19.601562 C 21.511719 18.9375 21.660156 18.300781 21.898438 17.714844 Z M 21.898438 17.714844 "/>
</g>
</svg>
