<?xml version="1.0" encoding="UTF-8"?>
<svg xmlns="http://www.w3.org/2000/svg" xmlns:xlink="http://www.w3.org/1999/xlink" width="28pt" height="28pt" viewBox="0 0 28 28" version="1.1">
<g id="surface1">
<path style=" stroke:none;fill-rule:nonzero;fill:rgb(0%,0%,0%);fill-opacity:1;" d="M 24.992188 10.761719 C 23.800781 8.765625 21.652344 7.542969 19.332031 7.535156 C 19.289062 7.535156 19.25 7.539062 19.210938 7.542969 L 22.777344 3.972656 C 22.875 3.875 22.910156 3.734375 22.875 3.601562 C 22.839844 3.46875 22.734375 3.367188 22.601562 3.332031 C 20.210938 2.730469 17.679688 3.425781 15.929688 5.164062 C 15.003906 6.089844 14.355469 7.261719 14.066406 8.539062 C 14.023438 8.554688 13.984375 8.566406 13.945312 8.582031 C 13.660156 7.285156 13.007812 6.101562 12.070312 5.164062 C 10.320312 3.425781 7.789062 2.730469 5.398438 3.332031 C 5.265625 3.367188 5.160156 3.46875 5.125 3.601562 C 5.089844 3.734375 5.125 3.875 5.222656 3.972656 L 8.789062 7.539062 C 8.75 7.539062 8.707031 7.535156 8.667969 7.535156 C 6.347656 7.542969 4.199219 8.765625 3.007812 10.761719 C 2.9375 10.878906 2.9375 11.023438 3.003906 11.144531 C 3.070312 11.265625 3.199219 11.339844 3.335938 11.339844 L 11.1875 11.339844 C 11.1875 11.375 11.183594 11.410156 11.183594 11.445312 C 11.183594 12.164062 11.597656 12.820312 12.25 13.132812 L 10.996094 24.28125 L 7.601562 24.28125 C 7.390625 24.28125 7.21875 24.453125 7.21875 24.664062 C 7.21875 24.875 7.390625 25.046875 7.601562 25.046875 L 20.398438 25.046875 C 20.609375 25.046875 20.78125 24.875 20.78125 24.664062 C 20.78125 24.453125 20.609375 24.28125 20.398438 24.28125 L 17.003906 24.28125 L 15.664062 12.347656 C 16.09375 12.132812 16.4375 11.777344 16.632812 11.339844 L 24.664062 11.339844 C 24.800781 11.339844 24.929688 11.265625 24.996094 11.144531 C 25.0625 11.023438 25.0625 10.878906 24.992188 10.761719 Z M 16.472656 5.703125 C 17.855469 4.332031 19.796875 3.679688 21.726562 3.941406 L 17.988281 7.679688 C 17.164062 7.847656 16.382812 8.179688 15.679688 8.648438 C 15.433594 8.519531 15.160156 8.445312 14.878906 8.429688 C 15.164062 7.398438 15.714844 6.460938 16.472656 5.703125 Z M 6.273438 3.941406 C 8.203125 3.679688 10.144531 4.332031 11.527344 5.703125 C 12.4375 6.609375 13.042969 7.777344 13.261719 9.046875 C 13.261719 9.046875 13.261719 9.046875 13.261719 9.050781 C 13.203125 9.113281 13.144531 9.179688 13.09375 9.25 C 12.226562 8.453125 11.15625 7.90625 10.003906 7.671875 Z M 4.058594 10.574219 C 5.394531 8.835938 7.589844 8 9.742188 8.402344 L 9.746094 8.402344 C 10.734375 8.585938 11.660156 9.027344 12.425781 9.679688 C 11.984375 9.839844 11.617188 10.15625 11.398438 10.574219 Z M 12.675781 10.40625 C 12.675781 10.4375 12.671875 10.464844 12.671875 10.492188 C 12.671875 11.25 13.085938 11.945312 13.75 12.308594 C 13.40625 12.582031 12.933594 12.632812 12.542969 12.429688 C 12.15625 12.226562 11.921875 11.8125 11.953125 11.375 C 11.980469 10.9375 12.265625 10.558594 12.675781 10.40625 Z M 15.429688 17.144531 L 13.480469 17.144531 C 13.269531 17.144531 13.097656 17.316406 13.097656 17.527344 C 13.097656 17.738281 13.269531 17.910156 13.480469 17.910156 L 15.515625 17.910156 L 15.976562 21.984375 L 14.136719 21.984375 C 13.925781 21.984375 13.753906 22.15625 13.753906 22.367188 C 13.753906 22.578125 13.925781 22.75 14.136719 22.75 L 16.0625 22.75 L 16.234375 24.28125 L 11.765625 24.28125 L 12.160156 20.773438 L 13.191406 20.773438 C 13.402344 20.773438 13.574219 20.601562 13.574219 20.390625 C 13.574219 20.179688 13.402344 20.007812 13.191406 20.007812 L 12.246094 20.007812 L 12.726562 15.75 L 14 15.75 C 14.210938 15.75 14.382812 15.578125 14.382812 15.367188 C 14.382812 15.15625 14.210938 14.984375 14 14.984375 L 12.8125 14.984375 L 13 13.3125 C 13.019531 13.3125 13.039062 13.316406 13.054688 13.316406 C 13.652344 13.316406 14.210938 13.035156 14.5625 12.554688 C 14.621094 12.5625 14.683594 12.566406 14.746094 12.566406 C 14.800781 12.566406 14.859375 12.5625 14.914062 12.554688 Z M 14.746094 11.800781 C 14.023438 11.800781 13.4375 11.214844 13.4375 10.492188 C 13.4375 9.773438 14.023438 9.1875 14.746094 9.1875 C 15.464844 9.1875 16.050781 9.773438 16.050781 10.492188 C 16.050781 11.214844 15.464844 11.796875 14.746094 11.800781 Z M 16.8125 10.574219 C 16.8125 10.546875 16.816406 10.519531 16.816406 10.492188 C 16.816406 10 16.636719 9.519531 16.316406 9.148438 C 17.222656 8.59375 18.269531 8.300781 19.332031 8.304688 C 21.136719 8.308594 22.835938 9.148438 23.941406 10.574219 Z M 16.8125 10.574219 "/>
</g>
</svg>
