<?xml version="1.0" encoding="UTF-8"?>
<svg xmlns="http://www.w3.org/2000/svg" xmlns:xlink="http://www.w3.org/1999/xlink" width="28pt" height="28pt" viewBox="0 0 28 28" version="1.1">
<g id="surface1">
<path style=" stroke:none;fill-rule:nonzero;fill:rgb(0%,0%,0%);fill-opacity:1;" d="M 24.589844 21.339844 L 19.445312 15.355469 L 18.570312 14.3125 L 22.101562 14.3125 C 22.203125 14.3125 22.335938 14.277344 22.40625 14.210938 C 22.605469 14.042969 22.640625 13.738281 22.472656 13.539062 L 18.402344 8.828125 L 17.796875 8.125 L 20.117188 8.125 C 20.21875 8.125 20.351562 8.089844 20.421875 8.023438 C 20.621094 7.855469 20.65625 7.550781 20.488281 7.351562 L 17.394531 3.75 L 14.332031 0.1875 C 14.300781 0.152344 14.300781 0.152344 14.265625 0.117188 C 14.0625 -0.0507812 13.761719 -0.0507812 13.59375 0.1875 L 10.5 3.785156 L 7.4375 7.351562 C 7.335938 7.449219 7.304688 7.550781 7.304688 7.6875 C 7.304688 7.957031 7.539062 8.191406 7.808594 8.191406 L 10.128906 8.191406 L 9.523438 8.898438 L 5.488281 13.605469 C 5.386719 13.707031 5.351562 13.808594 5.351562 13.941406 C 5.351562 14.210938 5.589844 14.445312 5.859375 14.445312 L 9.390625 14.445312 L 8.515625 15.488281 L 3.4375 21.273438 C 3.335938 21.375 3.300781 21.476562 3.300781 21.609375 C 3.300781 21.878906 3.535156 22.113281 3.804688 22.113281 L 12.113281 22.113281 L 12.113281 26.824219 C 12.113281 27.160156 12.246094 27.429688 12.449219 27.664062 C 12.652344 27.867188 12.953125 28 13.289062 28 L 14.738281 28 C 15.074219 28 15.34375 27.867188 15.578125 27.664062 C 15.777344 27.460938 15.914062 27.160156 15.914062 26.824219 L 15.914062 22.113281 L 24.222656 22.113281 C 24.320312 22.113281 24.457031 22.082031 24.523438 22.011719 C 24.726562 21.84375 24.757812 21.542969 24.589844 21.339844 Z M 15.375 21.105469 C 15.105469 21.105469 14.871094 21.339844 14.871094 21.609375 L 14.871094 26.824219 C 14.871094 26.890625 14.835938 26.921875 14.804688 26.957031 C 14.769531 26.992188 14.703125 27.023438 14.667969 27.023438 L 13.222656 27.023438 C 13.15625 27.023438 13.121094 26.992188 13.089844 26.957031 C 13.054688 26.921875 13.019531 26.855469 13.019531 26.824219 L 13.019531 21.609375 C 13.019531 21.339844 12.785156 21.105469 12.515625 21.105469 L 4.847656 21.105469 L 9.253906 15.992188 L 10.835938 14.144531 C 11.003906 13.941406 11.003906 13.640625 10.769531 13.472656 C 10.667969 13.402344 10.566406 13.371094 10.464844 13.371094 L 6.898438 13.371094 L 10.261719 9.46875 L 11.574219 7.957031 C 11.742188 7.753906 11.742188 7.449219 11.507812 7.28125 C 11.40625 7.214844 11.304688 7.179688 11.207031 7.179688 L 8.882812 7.179688 L 11.273438 4.421875 L 13.964844 1.195312 L 16.6875 4.355469 L 19.074219 7.113281 L 16.753906 7.113281 C 16.484375 7.113281 16.25 7.351562 16.25 7.617188 C 16.25 7.753906 16.316406 7.886719 16.382812 7.957031 L 17.664062 9.433594 L 21.027344 13.335938 L 17.496094 13.335938 C 17.226562 13.335938 16.988281 13.570312 16.988281 13.839844 C 16.988281 13.976562 17.058594 14.109375 17.125 14.175781 L 18.671875 15.992188 L 23.078125 21.105469 Z M 15.375 21.105469 "/>
</g>
</svg>
