<?xml version="1.0" encoding="UTF-8"?>
<svg xmlns="http://www.w3.org/2000/svg" xmlns:xlink="http://www.w3.org/1999/xlink" width="28pt" height="28pt" viewBox="0 0 28 28" version="1.1">
<g id="surface1">
<path style=" stroke:none;fill-rule:nonzero;fill:rgb(0%,0%,0%);fill-opacity:1;" d="M 25.667969 1.167969 L 12.601562 1.167969 C 12.34375 1.167969 12.132812 1.375 12.132812 1.632812 L 12.132812 3.035156 L 2.332031 3.035156 C 2.074219 3.035156 1.867188 3.242188 1.867188 3.5 L 1.867188 17.964844 C 1.867188 18.226562 2.074219 18.433594 2.332031 18.433594 L 25.667969 18.433594 C 25.925781 18.433594 26.132812 18.226562 26.132812 17.964844 L 26.132812 1.632812 C 26.132812 1.375 25.925781 1.167969 25.667969 1.167969 Z M 25.199219 17.5 L 2.800781 17.5 L 2.800781 3.964844 L 12.601562 3.964844 C 12.859375 3.964844 13.066406 3.757812 13.066406 3.5 L 13.066406 2.101562 L 25.199219 2.101562 Z M 25.199219 17.5 "/>
<path style=" stroke:none;fill-rule:nonzero;fill:rgb(0%,0%,0%);fill-opacity:1;" d="M 6.066406 1.167969 L 3.265625 1.167969 C 3.007812 1.167969 2.800781 1.375 2.800781 1.632812 L 2.800781 3.5 C 2.800781 3.757812 3.007812 3.964844 3.265625 3.964844 L 6.066406 3.964844 C 6.324219 3.964844 6.535156 3.757812 6.535156 3.5 L 6.535156 1.632812 C 6.535156 1.375 6.324219 1.167969 6.066406 1.167969 Z M 5.601562 3.035156 L 3.734375 3.035156 L 3.734375 2.101562 L 5.601562 2.101562 Z M 5.601562 3.035156 "/>
<path style=" stroke:none;fill-rule:nonzero;fill:rgb(0%,0%,0%);fill-opacity:1;" d="M 1.398438 8.632812 L 2.332031 8.632812 L 2.332031 7.699219 L 1.398438 7.699219 C 0.628906 7.699219 0 8.328125 0 9.101562 C 0 9.871094 0.628906 10.5 1.398438 10.5 L 2.332031 10.5 L 2.332031 9.566406 L 1.398438 9.566406 C 1.144531 9.566406 0.933594 9.355469 0.933594 9.101562 C 0.933594 8.84375 1.144531 8.632812 1.398438 8.632812 Z M 1.398438 8.632812 "/>
<path style=" stroke:none;fill-rule:nonzero;fill:rgb(0%,0%,0%);fill-opacity:1;" d="M 26.601562 7.699219 L 25.667969 7.699219 L 25.667969 8.632812 L 26.601562 8.632812 C 26.859375 8.632812 27.066406 8.84375 27.066406 9.101562 C 27.066406 9.355469 26.859375 9.566406 26.601562 9.566406 L 25.667969 9.566406 L 25.667969 10.5 L 26.601562 10.5 C 27.371094 10.5 28 9.871094 28 9.101562 C 28 8.328125 27.371094 7.699219 26.601562 7.699219 Z M 26.601562 7.699219 "/>
<path style=" stroke:none;fill-rule:nonzero;fill:rgb(0%,0%,0%);fill-opacity:1;" d="M 23.800781 3.035156 L 21 3.035156 C 20.742188 3.035156 20.535156 3.242188 20.535156 3.5 L 20.535156 5.367188 C 20.535156 5.625 20.742188 5.832031 21 5.832031 L 23.800781 5.832031 C 24.058594 5.832031 24.265625 5.625 24.265625 5.367188 L 24.265625 3.5 C 24.265625 3.242188 24.058594 3.035156 23.800781 3.035156 Z M 23.332031 4.898438 L 21.464844 4.898438 L 21.464844 3.964844 L 23.332031 3.964844 Z M 23.332031 4.898438 "/>
<path style=" stroke:none;fill-rule:nonzero;fill:rgb(0%,0%,0%);fill-opacity:1;" d="M 14 5.367188 C 10.910156 5.367188 8.398438 7.878906 8.398438 10.964844 C 8.398438 14.054688 10.910156 16.566406 14 16.566406 C 17.089844 16.566406 19.601562 14.054688 19.601562 10.964844 C 19.601562 7.878906 17.089844 5.367188 14 5.367188 Z M 14 15.632812 C 11.425781 15.632812 9.332031 13.539062 9.332031 10.964844 C 9.332031 8.394531 11.425781 6.300781 14 6.300781 C 16.574219 6.300781 18.667969 8.394531 18.667969 10.964844 C 18.667969 13.539062 16.574219 15.632812 14 15.632812 Z M 14 15.632812 "/>
<path style=" stroke:none;fill-rule:nonzero;fill:rgb(0%,0%,0%);fill-opacity:1;" d="M 7.464844 6.765625 L 10.265625 6.765625 L 10.265625 7.699219 L 7.464844 7.699219 Z M 7.464844 6.765625 "/>
<path style=" stroke:none;fill-rule:nonzero;fill:rgb(0%,0%,0%);fill-opacity:1;" d="M 17.734375 6.765625 L 25.667969 6.765625 L 25.667969 7.699219 L 17.734375 7.699219 Z M 17.734375 6.765625 "/>
<path style=" stroke:none;fill-rule:nonzero;fill:rgb(0%,0%,0%);fill-opacity:1;" d="M 6.535156 5.832031 C 5.761719 5.832031 5.132812 6.460938 5.132812 7.234375 C 5.132812 8.003906 5.761719 8.632812 6.535156 8.632812 C 7.304688 8.632812 7.933594 8.003906 7.933594 7.234375 C 7.933594 6.460938 7.304688 5.832031 6.535156 5.832031 Z M 6.535156 7.699219 C 6.277344 7.699219 6.066406 7.492188 6.066406 7.234375 C 6.066406 6.976562 6.277344 6.765625 6.535156 6.765625 C 6.789062 6.765625 7 6.976562 7 7.234375 C 7 7.492188 6.789062 7.699219 6.535156 7.699219 Z M 6.535156 7.699219 "/>
<path style=" stroke:none;fill-rule:nonzero;fill:rgb(0%,0%,0%);fill-opacity:1;" d="M 2.332031 6.765625 L 5.601562 6.765625 L 5.601562 7.699219 L 2.332031 7.699219 Z M 2.332031 6.765625 "/>
<path style=" stroke:none;fill-rule:nonzero;fill:rgb(0%,0%,0%);fill-opacity:1;" d="M 10.734375 1.167969 L 7.933594 1.167969 C 7.675781 1.167969 7.464844 1.375 7.464844 1.632812 L 7.464844 3.5 C 7.464844 3.757812 7.675781 3.964844 7.933594 3.964844 L 10.734375 3.964844 C 10.992188 3.964844 11.199219 3.757812 11.199219 3.5 L 11.199219 1.632812 C 11.199219 1.375 10.992188 1.167969 10.734375 1.167969 Z M 10.265625 3.035156 L 8.398438 3.035156 L 8.398438 2.101562 L 10.265625 2.101562 Z M 10.265625 3.035156 "/>
<path style=" stroke:none;fill-rule:nonzero;fill:rgb(0%,0%,0%);fill-opacity:1;" d="M 8.710938 11.847656 C 8.476562 11.929688 8.222656 11.914062 8 11.808594 C 7.773438 11.699219 7.605469 11.511719 7.523438 11.277344 C 7.4375 11.039062 7.453125 10.789062 7.5625 10.5625 C 7.667969 10.339844 7.859375 10.167969 8.09375 10.085938 C 8.292969 10.015625 8.511719 10.015625 8.710938 10.085938 L 9.023438 9.207031 C 8.621094 9.066406 8.183594 9.066406 7.78125 9.207031 C 6.8125 9.546875 6.300781 10.613281 6.640625 11.585938 C 6.910156 12.351562 7.632812 12.832031 8.402344 12.832031 C 8.609375 12.832031 8.816406 12.800781 9.023438 12.726562 Z M 8.710938 11.847656 "/>
<path style=" stroke:none;fill-rule:nonzero;fill:rgb(0%,0%,0%);fill-opacity:1;" d="M 21.933594 10.035156 C 21.160156 10.035156 20.535156 10.660156 20.535156 11.433594 C 20.535156 12.207031 21.160156 12.832031 21.933594 12.832031 C 22.707031 12.832031 23.332031 12.207031 23.332031 11.433594 C 23.332031 10.660156 22.707031 10.035156 21.933594 10.035156 Z M 21.933594 11.898438 C 21.675781 11.898438 21.464844 11.691406 21.464844 11.433594 C 21.464844 11.175781 21.675781 10.964844 21.933594 10.964844 C 22.191406 10.964844 22.398438 11.175781 22.398438 11.433594 C 22.398438 11.691406 22.191406 11.898438 21.933594 11.898438 Z M 21.933594 11.898438 "/>
<path style=" stroke:none;fill-rule:nonzero;fill:rgb(0%,0%,0%);fill-opacity:1;" d="M 21.933594 8.632812 C 21.675781 8.632812 21.464844 8.84375 21.464844 9.101562 L 21.464844 10.5 C 21.464844 10.757812 21.675781 10.964844 21.933594 10.964844 C 22.191406 10.964844 22.398438 10.757812 22.398438 10.5 L 22.398438 9.101562 C 22.398438 8.84375 22.191406 8.632812 21.933594 8.632812 Z M 21.933594 8.632812 "/>
<path style=" stroke:none;fill-rule:nonzero;fill:rgb(0%,0%,0%);fill-opacity:1;" d="M 14 7.234375 C 11.941406 7.234375 10.265625 8.910156 10.265625 10.964844 C 10.265625 13.023438 11.941406 14.699219 14 14.699219 C 16.058594 14.699219 17.734375 13.023438 17.734375 10.964844 C 17.734375 8.910156 16.058594 7.234375 14 7.234375 Z M 14 13.765625 C 12.457031 13.765625 11.199219 12.511719 11.199219 10.964844 C 11.199219 9.421875 12.457031 8.167969 14 8.167969 C 15.542969 8.167969 16.800781 9.421875 16.800781 10.964844 C 16.800781 12.511719 15.542969 13.765625 14 13.765625 Z M 14 13.765625 "/>
<path style=" stroke:none;fill-rule:nonzero;fill:rgb(0%,0%,0%);fill-opacity:1;" d="M 2.332031 14.699219 L 11.199219 14.699219 L 11.199219 15.632812 L 2.332031 15.632812 Z M 2.332031 14.699219 "/>
<path style=" stroke:none;fill-rule:nonzero;fill:rgb(0%,0%,0%);fill-opacity:1;" d="M 16.800781 14.699219 L 25.667969 14.699219 L 25.667969 15.632812 L 16.800781 15.632812 Z M 16.800781 14.699219 "/>
<path style=" stroke:none;fill-rule:nonzero;fill:rgb(0%,0%,0%);fill-opacity:1;" d="M 8.867188 4.898438 L 10.265625 4.898438 L 10.265625 5.832031 L 8.867188 5.832031 Z M 8.867188 4.898438 "/>
<path style=" stroke:none;fill-rule:nonzero;fill:rgb(0%,0%,0%);fill-opacity:1;" d="M 27.066406 9.101562 L 27.066406 19.367188 C 27.066406 19.882812 26.648438 20.300781 26.132812 20.300781 L 10.734375 20.300781 C 9.703125 20.300781 8.867188 21.136719 8.867188 22.167969 C 8.867188 23.195312 9.703125 24.035156 10.734375 24.035156 L 21.933594 24.035156 C 22.449219 24.035156 22.867188 24.453125 22.867188 24.964844 C 22.867188 25.480469 22.449219 25.898438 21.933594 25.898438 L 1.867188 25.898438 C 1.351562 25.898438 0.933594 25.480469 0.933594 24.964844 L 0.933594 9.101562 L 0 9.101562 L 0 24.964844 C 0 25.996094 0.835938 26.832031 1.867188 26.832031 L 21.933594 26.832031 C 22.960938 26.832031 23.800781 25.996094 23.800781 24.964844 C 23.800781 23.9375 22.960938 23.101562 21.933594 23.101562 L 10.734375 23.101562 C 10.21875 23.101562 9.800781 22.679688 9.800781 22.167969 C 9.800781 21.652344 10.21875 21.234375 10.734375 21.234375 L 26.132812 21.234375 C 27.164062 21.234375 28 20.394531 28 19.367188 L 28 9.101562 Z M 27.066406 9.101562 "/>
</g>
</svg>
