<?xml version="1.0" encoding="UTF-8"?>
<svg xmlns="http://www.w3.org/2000/svg" xmlns:xlink="http://www.w3.org/1999/xlink" width="28pt" height="28pt" viewBox="0 0 28 28" version="1.1">
<g id="surface1">
<path style=" stroke:none;fill-rule:nonzero;fill:rgb(0%,0%,0%);fill-opacity:1;" d="M 21 0 L 7 0 C 6.484375 0 6.066406 0.417969 6.066406 0.933594 L 6.066406 26.132812 C 6.066406 26.390625 6.277344 26.601562 6.535156 26.601562 L 6.535156 27.066406 C 6.535156 27.582031 6.953125 28 7.464844 28 L 8.867188 28 C 9.382812 28 9.800781 27.582031 9.800781 27.066406 L 9.800781 26.601562 L 18.199219 26.601562 L 18.199219 27.066406 C 18.199219 27.582031 18.617188 28 19.132812 28 L 20.535156 28 C 21.046875 28 21.464844 27.582031 21.464844 27.066406 L 21.464844 26.601562 C 21.726562 26.601562 21.933594 26.390625 21.933594 26.132812 L 21.933594 0.933594 C 21.933594 0.417969 21.515625 0 21 0 Z M 21 21.464844 L 20.535156 21.464844 C 20.277344 21.464844 20.066406 21.257812 20.066406 21 L 20.066406 18.199219 C 20.066406 17.941406 20.277344 17.734375 20.535156 17.734375 L 21 17.734375 Z M 20.535156 16.800781 C 19.761719 16.800781 19.132812 17.429688 19.132812 18.199219 L 19.132812 21 C 19.132812 21.773438 19.761719 22.398438 20.535156 22.398438 L 21 22.398438 L 21 25.667969 L 7 25.667969 L 7 14 L 21 14 L 21 16.800781 Z M 21 13.066406 L 7 13.066406 L 7 12.132812 L 21 12.132812 Z M 21 7.933594 L 20.535156 7.933594 C 20.277344 7.933594 20.066406 7.722656 20.066406 7.464844 L 20.066406 4.667969 C 20.066406 4.410156 20.277344 4.199219 20.535156 4.199219 L 21 4.199219 Z M 21 0.933594 L 21 3.265625 L 20.535156 3.265625 C 19.761719 3.265625 19.132812 3.894531 19.132812 4.667969 L 19.132812 7.464844 C 19.132812 8.238281 19.761719 8.867188 20.535156 8.867188 L 21 8.867188 L 21 11.199219 L 7 11.199219 L 7 0.933594 Z M 8.867188 27.066406 L 7.464844 27.066406 L 7.464844 26.601562 L 8.867188 26.601562 Z M 20.535156 27.066406 L 19.132812 27.066406 L 19.132812 26.601562 L 20.535156 26.601562 Z M 20.535156 27.066406 "/>
</g>
</svg>
