<?xml version="1.0" encoding="UTF-8"?>
<svg xmlns="http://www.w3.org/2000/svg" xmlns:xlink="http://www.w3.org/1999/xlink" width="28pt" height="28pt" viewBox="0 0 28 28" version="1.1">
<g id="surface1">
<path style=" stroke:none;fill-rule:nonzero;fill:rgb(0%,0%,0%);fill-opacity:1;" d="M 19.71875 13.8125 C 19.65625 13.535156 19.453125 13.3125 19.179688 13.222656 L 15.15625 11.878906 L 18.015625 6.164062 C 18.195312 5.804688 18.085938 5.367188 17.761719 5.132812 C 17.433594 4.898438 16.984375 4.933594 16.703125 5.21875 L 8.5 13.421875 C 8.296875 13.621094 8.214844 13.910156 8.28125 14.1875 C 8.34375 14.464844 8.546875 14.6875 8.820312 14.777344 L 12.84375 16.121094 L 9.984375 21.835938 C 9.804688 22.195312 9.914062 22.632812 10.238281 22.867188 C 10.566406 23.101562 11.011719 23.070312 11.296875 22.78125 L 19.5 14.578125 C 19.703125 14.378906 19.785156 14.089844 19.71875 13.8125 Z M 19.71875 13.8125 "/>
<path style=" stroke:none;fill-rule:nonzero;fill:rgb(0%,0%,0%);fill-opacity:1;" d="M 14 0 C 9.835938 0 5.902344 1.9375 3.28125 5.058594 L 3.28125 4.15625 C 3.28125 3.703125 2.914062 3.335938 2.460938 3.335938 C 2.007812 3.335938 1.640625 3.703125 1.640625 4.15625 L 1.640625 7.640625 C 1.640625 8.425781 2.652344 8.535156 2.460938 8.460938 C 2.476562 8.460938 2.496094 8.460938 2.511719 8.460938 L 5.792969 8.257812 C 6.246094 8.226562 6.589844 7.839844 6.5625 7.386719 C 6.53125 6.933594 6.136719 6.59375 5.691406 6.617188 L 4.03125 6.722656 C 6.332031 3.589844 10.058594 1.640625 14 1.640625 C 20.785156 1.640625 26.359375 7.214844 26.359375 14 C 26.359375 14.453125 26.726562 14.820312 27.179688 14.820312 C 27.632812 14.820312 28 14.453125 28 14 C 28 6.308594 21.691406 0 14 0 Z M 14 0 "/>
<path style=" stroke:none;fill-rule:nonzero;fill:rgb(0%,0%,0%);fill-opacity:1;" d="M 25.488281 19.539062 L 22.207031 19.742188 C 21.753906 19.773438 21.410156 20.160156 21.4375 20.613281 C 21.46875 21.066406 21.871094 21.410156 22.308594 21.382812 L 23.96875 21.277344 C 21.667969 24.410156 17.941406 26.359375 14 26.359375 C 7.214844 26.359375 1.640625 20.785156 1.640625 14 C 1.640625 13.546875 1.273438 13.179688 0.820312 13.179688 C 0.367188 13.179688 0 13.546875 0 14 C 0 21.691406 6.308594 28 14 28 C 18.164062 28 22.097656 26.0625 24.71875 22.941406 L 24.71875 23.84375 C 24.71875 24.296875 25.085938 24.664062 25.539062 24.664062 C 25.992188 24.664062 26.359375 24.296875 26.359375 23.84375 L 26.359375 20.359375 C 26.359375 19.910156 25.925781 19.515625 25.488281 19.539062 Z M 25.488281 19.539062 "/>
</g>
</svg>
