<?xml version="1.0" encoding="UTF-8"?>
<svg xmlns="http://www.w3.org/2000/svg" xmlns:xlink="http://www.w3.org/1999/xlink" width="28pt" height="28pt" viewBox="0 0 28 28" version="1.1">
<g id="surface1">
<path style=" stroke:none;fill-rule:nonzero;fill:rgb(0%,0%,0%);fill-opacity:1;" d="M 26.179688 11.117188 L 21.394531 5.859375 C 20.449219 4.910156 18.90625 4.910156 17.949219 5.867188 C 17.644531 6.167969 17.441406 6.53125 17.332031 6.917969 C 16.382812 6.1875 15.007812 6.261719 14.132812 7.140625 C 13.828125 7.441406 13.625 7.804688 13.515625 8.191406 C 12.5625 7.464844 11.1875 7.535156 10.3125 8.410156 C 10.015625 8.707031 9.8125 9.0625 9.703125 9.4375 L 7.445312 7.183594 C 6.5 6.238281 4.957031 6.234375 4 7.191406 C 3.054688 8.136719 3.054688 9.679688 4 10.628906 L 12.667969 19.292969 L 7.527344 20.101562 C 6.136719 20.296875 5.089844 21.503906 5.089844 22.910156 C 5.089844 23.960938 5.949219 24.816406 7 24.816406 L 19 24.816406 C 20.871094 24.816406 22.628906 24.089844 23.949219 22.769531 L 25.953125 20.765625 C 27.273438 19.445312 28 17.691406 28 15.824219 C 28 14.078125 27.351562 12.40625 26.179688 11.117188 Z M 25.050781 19.867188 L 23.050781 21.867188 C 21.96875 22.949219 20.53125 23.546875 19 23.546875 L 7 23.546875 C 6.648438 23.546875 6.363281 23.261719 6.363281 22.910156 C 6.363281 22.136719 6.941406 21.46875 7.714844 21.359375 L 14.097656 20.355469 C 14.335938 20.320312 14.53125 20.152344 14.605469 19.925781 C 14.679688 19.699219 14.621094 19.445312 14.449219 19.277344 L 4.902344 9.730469 C 4.449219 9.277344 4.449219 8.542969 4.90625 8.082031 C 5.132812 7.855469 5.429688 7.742188 5.726562 7.742188 C 6.023438 7.742188 6.320312 7.855469 6.546875 8.082031 L 12.914062 14.449219 C 13.164062 14.699219 13.566406 14.699219 13.8125 14.449219 C 13.9375 14.324219 14 14.164062 14 14 C 14 13.835938 13.9375 13.675781 13.8125 13.550781 L 11.210938 10.949219 C 10.761719 10.496094 10.761719 9.761719 11.21875 9.304688 C 11.671875 8.851562 12.40625 8.851562 12.859375 9.304688 L 15.460938 11.90625 C 15.707031 12.152344 16.113281 12.152344 16.359375 11.90625 C 16.484375 11.78125 16.546875 11.617188 16.546875 11.453125 C 16.546875 11.292969 16.484375 11.128906 16.359375 11.003906 L 15.03125 9.675781 C 14.578125 9.226562 14.578125 8.492188 15.039062 8.03125 C 15.488281 7.582031 16.226562 7.582031 16.675781 8.03125 L 18.011719 9.363281 C 18.011719 9.367188 18.011719 9.367188 18.011719 9.367188 C 18.015625 9.367188 18.015625 9.367188 18.015625 9.367188 C 18.015625 9.371094 18.015625 9.371094 18.015625 9.371094 C 18.019531 9.371094 18.019531 9.371094 18.019531 9.371094 C 18.265625 9.609375 18.660156 9.601562 18.90625 9.359375 C 19.152344 9.109375 19.152344 8.707031 18.90625 8.457031 L 18.851562 8.402344 C 18.632812 8.183594 18.511719 7.894531 18.511719 7.585938 C 18.511719 7.273438 18.628906 6.984375 18.855469 6.757812 C 19.308594 6.308594 20.042969 6.308594 20.472656 6.738281 L 25.238281 11.972656 C 26.199219 13.027344 26.726562 14.394531 26.726562 15.824219 C 26.726562 17.351562 26.132812 18.785156 25.050781 19.867188 Z M 25.050781 19.867188 "/>
<path style=" stroke:none;fill-rule:nonzero;fill:rgb(0%,0%,0%);fill-opacity:1;" d="M 10.941406 6.558594 C 10.015625 4.507812 7.96875 3.183594 5.726562 3.183594 C 2.570312 3.183594 0 5.75 0 8.910156 C 0 11.148438 1.324219 13.195312 3.375 14.125 C 3.460938 14.160156 3.550781 14.179688 3.640625 14.179688 C 3.878906 14.179688 4.113281 14.039062 4.21875 13.804688 C 4.363281 13.484375 4.21875 13.109375 3.902344 12.960938 C 2.304688 12.242188 1.273438 10.648438 1.273438 8.910156 C 1.273438 6.453125 3.269531 4.453125 5.726562 4.453125 C 7.46875 4.453125 9.058594 5.488281 9.78125 7.082031 C 9.925781 7.402344 10.304688 7.546875 10.621094 7.402344 C 10.941406 7.253906 11.085938 6.878906 10.941406 6.558594 Z M 10.941406 6.558594 "/>
</g>
</svg>
