<?xml version="1.0" encoding="UTF-8"?>
<svg xmlns="http://www.w3.org/2000/svg" xmlns:xlink="http://www.w3.org/1999/xlink" width="28pt" height="28pt" viewBox="0 0 28 28" version="1.1">
<g id="surface1">
<path style=" stroke:none;fill-rule:nonzero;fill:rgb(0%,0%,0%);fill-opacity:1;" d="M 14 15.128906 C 12.46875 15.128906 11.222656 16.378906 11.222656 17.910156 C 11.222656 18.667969 11.539062 19.402344 12.089844 19.925781 L 12.089844 22.433594 C 12.089844 23.488281 12.945312 24.347656 14 24.347656 C 15.054688 24.347656 15.910156 23.488281 15.910156 22.433594 L 15.910156 19.925781 C 16.460938 19.402344 16.777344 18.667969 16.777344 17.910156 C 16.777344 16.378906 15.53125 15.128906 14 15.128906 Z M 14.984375 18.953125 C 14.71875 19.203125 14.566406 19.550781 14.566406 19.910156 L 14.566406 22.433594 C 14.566406 22.746094 14.3125 23 14 23 C 13.6875 23 13.433594 22.746094 13.433594 22.433594 L 13.433594 19.910156 C 13.433594 19.550781 13.28125 19.203125 13.015625 18.953125 C 12.726562 18.679688 12.566406 18.308594 12.566406 17.910156 C 12.566406 17.121094 13.210938 16.476562 14 16.476562 C 14.789062 16.476562 15.433594 17.121094 15.433594 17.910156 C 15.433594 18.308594 15.273438 18.679688 14.984375 18.953125 Z M 14.984375 18.953125 "/>
<path style=" stroke:none;fill-rule:nonzero;fill:rgb(0%,0%,0%);fill-opacity:1;" d="M 22.148438 11.476562 L 9.21875 11.476562 L 9.21875 6.128906 C 9.21875 3.492188 11.363281 1.347656 14 1.347656 C 16.636719 1.347656 18.78125 3.492188 18.78125 6.128906 L 18.78125 8.550781 C 18.78125 8.921875 19.085938 9.222656 19.457031 9.222656 C 19.828125 9.222656 20.128906 8.921875 20.128906 8.550781 L 20.128906 6.128906 C 20.128906 2.75 17.378906 0 14 0 C 10.621094 0 7.871094 2.75 7.871094 6.128906 L 7.871094 11.476562 L 5.851562 11.476562 C 4.738281 11.476562 3.835938 12.382812 3.835938 13.496094 L 3.835938 25.980469 C 3.835938 27.09375 4.738281 28 5.851562 28 L 22.148438 28 C 23.261719 28 24.164062 27.09375 24.164062 25.980469 L 24.164062 13.496094 C 24.164062 12.382812 23.261719 11.476562 22.148438 11.476562 Z M 22.820312 25.980469 C 22.820312 26.351562 22.519531 26.65625 22.148438 26.65625 L 5.851562 26.65625 C 5.480469 26.65625 5.179688 26.351562 5.179688 25.980469 L 5.179688 13.496094 C 5.179688 13.125 5.480469 12.824219 5.851562 12.824219 L 22.148438 12.824219 C 22.519531 12.824219 22.820312 13.125 22.820312 13.496094 Z M 22.820312 25.980469 "/>
</g>
</svg>
