<?xml version="1.0" encoding="UTF-8"?>
<svg xmlns="http://www.w3.org/2000/svg" xmlns:xlink="http://www.w3.org/1999/xlink" width="28pt" height="28pt" viewBox="0 0 28 28" version="1.1">
<g id="surface1">
<path style=" stroke:none;fill-rule:nonzero;fill:rgb(0%,0%,0%);fill-opacity:1;" d="M 21.109375 9.117188 L 20.546875 9.117188 L 20.546875 4.101562 C 20.546875 1.839844 18.707031 0 16.445312 0 L 11.554688 0 C 9.292969 0 7.453125 1.839844 7.453125 4.101562 L 7.453125 9.117188 L 6.890625 9.117188 C 6.4375 9.117188 6.070312 9.484375 6.070312 9.9375 L 6.070312 13.351562 C 6.070312 13.804688 6.4375 14.171875 6.890625 14.171875 L 8.140625 14.171875 L 7.269531 25.96875 C 7.195312 26.957031 7.90625 27.839844 8.886719 27.980469 C 8.976562 27.992188 9.066406 28 9.15625 28 C 10.03125 28 10.820312 27.382812 11.007812 26.5 L 12.277344 20.535156 L 15.722656 20.535156 L 16.992188 26.5 C 17.179688 27.382812 17.96875 28 18.84375 28 C 18.933594 28 19.023438 27.992188 19.113281 27.980469 C 20.09375 27.839844 20.804688 26.957031 20.730469 25.96875 L 19.859375 14.171875 L 21.109375 14.171875 C 21.5625 14.171875 21.929688 13.804688 21.929688 13.351562 L 21.929688 9.9375 C 21.929688 9.484375 21.5625 9.117188 21.109375 9.117188 Z M 9.09375 4.101562 C 9.09375 2.746094 10.199219 1.640625 11.554688 1.640625 L 16.445312 1.640625 C 17.800781 1.640625 18.90625 2.746094 18.90625 4.101562 L 18.90625 9.117188 L 9.09375 9.117188 Z M 9.402344 26.160156 C 9.375 26.289062 9.25 26.375 9.121094 26.355469 C 8.988281 26.339844 8.894531 26.21875 8.90625 26.089844 L 9.789062 14.171875 L 11.957031 14.171875 Z M 12.625 18.894531 L 13.632812 14.171875 L 14.367188 14.171875 L 15.375 18.894531 Z M 18.878906 26.355469 C 18.75 26.375 18.625 26.289062 18.597656 26.160156 L 16.042969 14.171875 L 18.210938 14.171875 L 19.097656 26.089844 C 19.105469 26.21875 19.011719 26.339844 18.878906 26.355469 Z M 20.289062 12.53125 L 7.710938 12.53125 L 7.710938 10.757812 L 20.289062 10.757812 Z M 20.289062 12.53125 "/>
</g>
</svg>
