<?xml version="1.0" encoding="UTF-8"?>
<svg xmlns="http://www.w3.org/2000/svg" xmlns:xlink="http://www.w3.org/1999/xlink" width="28pt" height="28pt" viewBox="0 0 28 28" version="1.1">
<g id="surface1">
<path style=" stroke:none;fill-rule:nonzero;fill:rgb(0%,0%,0%);fill-opacity:1;" d="M 17.734375 11.199219 L 16.28125 11.199219 C 17.425781 10.085938 17.59375 8.308594 16.679688 7 L 17.613281 7 C 17.898438 7 18.167969 6.871094 18.34375 6.648438 C 18.519531 6.425781 18.585938 6.132812 18.523438 5.855469 L 17.339844 0.722656 C 17.242188 0.300781 16.863281 0 16.429688 0 L 11.570312 0 C 11.136719 0 10.757812 0.300781 10.660156 0.722656 L 9.476562 5.855469 C 9.414062 6.132812 9.480469 6.425781 9.65625 6.648438 C 9.832031 6.871094 10.101562 7 10.386719 7 L 11.320312 7 C 10.40625 8.308594 10.574219 10.085938 11.71875 11.199219 L 10.265625 11.199219 C 8.980469 11.203125 7.933594 12.246094 7.933594 13.535156 L 7.933594 23.800781 C 7.933594 24.910156 8.714844 25.863281 9.800781 26.085938 L 9.800781 27.535156 C 9.800781 27.792969 10.007812 28 10.265625 28 L 12.132812 28 C 12.390625 28 12.601562 27.792969 12.601562 27.535156 L 12.601562 26.132812 L 15.398438 26.132812 L 15.398438 27.535156 C 15.398438 27.792969 15.609375 28 15.867188 28 L 17.734375 28 C 17.992188 28 18.199219 27.792969 18.199219 27.535156 L 18.199219 26.085938 C 19.285156 25.863281 20.066406 24.910156 20.066406 23.800781 L 20.066406 13.535156 C 20.066406 12.246094 19.019531 11.203125 17.734375 11.199219 Z M 10.386719 6.066406 L 11.570312 0.933594 L 16.429688 0.933594 L 17.613281 6.066406 Z M 11.667969 8.867188 C 11.667969 8.128906 12.015625 7.4375 12.609375 7 L 15.390625 7 C 16.269531 7.65625 16.574219 8.835938 16.117188 9.835938 C 15.664062 10.832031 14.574219 11.378906 13.503906 11.148438 C 12.429688 10.914062 11.664062 9.964844 11.667969 8.867188 Z M 11.667969 27.066406 L 10.734375 27.066406 L 10.734375 26.132812 L 11.667969 26.132812 Z M 17.265625 27.066406 L 16.332031 27.066406 L 16.332031 26.132812 L 17.265625 26.132812 Z M 19.132812 23.800781 C 19.132812 24.574219 18.507812 25.199219 17.734375 25.199219 L 10.265625 25.199219 C 9.492188 25.199219 8.867188 24.574219 8.867188 23.800781 L 8.867188 13.535156 C 8.867188 12.761719 9.492188 12.132812 10.265625 12.132812 L 17.734375 12.132812 C 18.507812 12.132812 19.132812 12.761719 19.132812 13.535156 Z M 19.132812 23.800781 "/>
<path style=" stroke:none;fill-rule:nonzero;fill:rgb(0%,0%,0%);fill-opacity:1;" d="M 17.734375 13.066406 L 10.265625 13.066406 C 10.007812 13.066406 9.800781 13.277344 9.800781 13.535156 L 9.800781 23.800781 C 9.800781 24.058594 10.007812 24.265625 10.265625 24.265625 L 17.734375 24.265625 C 17.992188 24.265625 18.199219 24.058594 18.199219 23.800781 L 18.199219 13.535156 C 18.199219 13.277344 17.992188 13.066406 17.734375 13.066406 Z M 17.265625 23.332031 L 10.734375 23.332031 L 10.734375 19.132812 L 17.265625 19.132812 Z M 17.265625 18.199219 L 10.734375 18.199219 L 10.734375 14 L 17.265625 14 Z M 17.265625 18.199219 "/>
<path style=" stroke:none;fill-rule:nonzero;fill:rgb(0%,0%,0%);fill-opacity:1;" d="M 13.535156 15.867188 L 14.464844 15.867188 C 14.722656 15.867188 14.933594 15.65625 14.933594 15.398438 C 14.933594 15.140625 14.722656 14.933594 14.464844 14.933594 L 13.535156 14.933594 C 13.277344 14.933594 13.066406 15.140625 13.066406 15.398438 C 13.066406 15.65625 13.277344 15.867188 13.535156 15.867188 Z M 13.535156 15.867188 "/>
<path style=" stroke:none;fill-rule:nonzero;fill:rgb(0%,0%,0%);fill-opacity:1;" d="M 13.535156 21 L 14.464844 21 C 14.722656 21 14.933594 20.792969 14.933594 20.535156 C 14.933594 20.277344 14.722656 20.066406 14.464844 20.066406 L 13.535156 20.066406 C 13.277344 20.066406 13.066406 20.277344 13.066406 20.535156 C 13.066406 20.792969 13.277344 21 13.535156 21 Z M 13.535156 21 "/>
</g>
</svg>
