<?xml version="1.0" encoding="UTF-8"?>
<svg xmlns="http://www.w3.org/2000/svg" xmlns:xlink="http://www.w3.org/1999/xlink" width="28pt" height="28pt" viewBox="0 0 28 28" version="1.1">
<g id="surface1">
<path style=" stroke:none;fill-rule:nonzero;fill:rgb(0%,0%,0%);fill-opacity:1;" d="M 25.175781 0 L 2.824219 0 C 2.066406 0 1.425781 0.640625 1.425781 1.398438 L 1.425781 24.214844 C 1.425781 24.972656 2.066406 25.613281 2.824219 25.613281 L 3.171875 25.613281 L 3.171875 27.417969 C 3.171875 27.765625 3.40625 28 3.753906 28 L 24.246094 28 C 24.59375 28 24.828125 27.765625 24.828125 27.417969 L 24.828125 25.613281 L 25.175781 25.613281 C 25.933594 25.613281 26.574219 24.972656 26.574219 24.214844 L 26.574219 1.398438 C 26.574219 0.640625 25.933594 0 25.175781 0 Z M 2.824219 1.164062 L 13.417969 1.164062 L 13.417969 8.382812 L 10.796875 8.382812 L 10.796875 2.734375 C 10.796875 2.386719 10.566406 2.152344 10.214844 2.152344 L 4.453125 2.152344 C 4.105469 2.152344 3.871094 2.386719 3.871094 2.734375 L 3.871094 8.382812 L 2.648438 8.382812 L 2.648438 1.398438 C 2.589844 1.28125 2.707031 1.164062 2.824219 1.164062 Z M 9.632812 3.375 L 9.632812 8.441406 L 8.878906 8.441406 L 8.878906 3.375 Z M 7.714844 3.375 L 7.714844 8.441406 L 6.957031 8.441406 L 6.957031 3.375 Z M 5.792969 3.316406 L 5.792969 8.382812 L 5.035156 8.382812 L 5.035156 3.316406 Z M 2.589844 9.546875 L 13.417969 9.546875 L 13.417969 16.707031 L 2.589844 16.707031 Z M 2.824219 24.507812 C 2.707031 24.449219 2.589844 24.390625 2.589844 24.214844 L 2.589844 17.929688 L 13.417969 17.929688 L 13.417969 24.507812 Z M 4.335938 26.894531 L 4.335938 25.671875 L 23.605469 25.671875 L 23.605469 26.894531 Z M 17.144531 24.449219 L 17.144531 19.382812 L 17.898438 19.382812 L 17.898438 24.449219 Z M 19.0625 24.507812 L 19.0625 19.441406 L 19.820312 19.441406 L 19.820312 24.507812 Z M 20.984375 24.507812 L 20.984375 19.441406 L 21.742188 19.441406 L 21.742188 24.507812 Z M 25.175781 24.449219 L 22.964844 24.449219 L 22.964844 18.800781 C 22.964844 18.453125 22.730469 18.21875 22.382812 18.21875 L 16.5625 18.21875 C 16.210938 18.21875 15.980469 18.453125 15.980469 18.800781 L 15.980469 24.449219 L 14.582031 24.449219 L 14.582031 17.929688 L 25.351562 17.929688 L 25.351562 24.273438 C 25.410156 24.390625 25.292969 24.449219 25.175781 24.449219 Z M 17.144531 16.765625 L 17.144531 11.699219 L 17.898438 11.699219 L 17.898438 16.765625 Z M 19.0625 16.765625 L 19.0625 11.699219 L 19.820312 11.699219 L 19.820312 16.765625 Z M 20.984375 16.765625 L 20.984375 11.699219 L 21.742188 11.699219 L 21.742188 16.765625 Z M 25.410156 16.707031 L 22.964844 16.707031 L 22.964844 11.117188 C 22.964844 10.769531 22.671875 10.535156 22.382812 10.535156 L 16.5625 10.535156 C 16.210938 10.535156 15.980469 10.769531 15.980469 11.117188 L 15.980469 16.765625 L 14.582031 16.765625 L 14.582031 9.546875 L 25.410156 9.546875 Z M 25.410156 8.382812 L 14.582031 8.382812 L 14.582031 1.164062 L 25.175781 1.164062 C 25.292969 1.164062 25.410156 1.28125 25.410156 1.398438 Z M 25.410156 8.382812 "/>
</g>
</svg>
