<?xml version="1.0" encoding="UTF-8"?>
<svg xmlns="http://www.w3.org/2000/svg" xmlns:xlink="http://www.w3.org/1999/xlink" width="28pt" height="28pt" viewBox="0 0 28 28" version="1.1">
<g id="surface1">
<path style=" stroke:none;fill-rule:nonzero;fill:rgb(0%,0%,0%);fill-opacity:1;" d="M 25.511719 9.644531 C 25.074219 9.644531 24.644531 9.769531 24.265625 9.992188 L 24.265625 9.644531 C 24.265625 7.578125 23.222656 6.535156 21.15625 6.535156 L 6.84375 6.535156 C 4.777344 6.535156 3.734375 7.578125 3.734375 9.644531 L 3.734375 9.992188 C 3.355469 9.769531 2.925781 9.652344 2.488281 9.644531 C 1.113281 9.644531 0 10.757812 0 12.132812 L 0 17.109375 C 0 18.484375 1.113281 19.601562 2.488281 19.601562 L 3.734375 19.601562 L 3.734375 20.84375 C 3.734375 21.1875 4.011719 21.464844 4.355469 21.464844 C 4.699219 21.464844 4.976562 21.1875 4.976562 20.84375 L 4.976562 19.601562 L 23.023438 19.601562 L 23.023438 20.84375 C 23.023438 21.1875 23.300781 21.464844 23.644531 21.464844 C 23.988281 21.464844 24.265625 21.1875 24.265625 20.84375 L 24.265625 19.601562 L 25.503906 19.601562 C 26.878906 19.601562 28 18.484375 28 17.109375 L 28 12.132812 C 28 10.757812 26.886719 9.644531 25.511719 9.644531 Z M 4.976562 9.644531 C 4.976562 8.269531 5.464844 7.777344 6.84375 7.777344 L 21.15625 7.777344 C 22.53125 7.777344 23.023438 8.269531 23.023438 9.644531 L 23.023438 14 L 4.976562 14 Z M 26.753906 17.109375 C 26.753906 17.800781 26.1875 18.355469 25.503906 18.355469 L 2.488281 18.355469 C 1.804688 18.355469 1.246094 17.796875 1.246094 17.109375 L 1.246094 12.132812 C 1.246094 11.449219 1.804688 10.890625 2.488281 10.890625 C 3.171875 10.890625 3.734375 11.449219 3.734375 12.132812 L 3.734375 15.246094 L 24.265625 15.246094 L 24.265625 12.132812 C 24.265625 11.449219 24.828125 10.890625 25.511719 10.890625 C 26.195312 10.890625 26.753906 11.449219 26.753906 12.132812 Z M 26.753906 17.109375 "/>
</g>
</svg>
