<?xml version="1.0" encoding="UTF-8"?>
<svg xmlns="http://www.w3.org/2000/svg" xmlns:xlink="http://www.w3.org/1999/xlink" width="28pt" height="28pt" viewBox="0 0 28 28" version="1.1">
<g id="surface1">
<path style=" stroke:none;fill-rule:nonzero;fill:rgb(0%,0%,0%);fill-opacity:1;" d="M 6.203125 6.078125 C 6.15625 5.984375 6.109375 5.933594 6.0625 5.839844 C 5.585938 5.460938 4.730469 5.316406 4.0625 5.269531 C 4.015625 5.269531 4.015625 5.269531 3.96875 5.269531 L 3.824219 5.269531 C 3.777344 5.269531 3.777344 5.269531 3.730469 5.269531 C 3.0625 5.316406 2.207031 5.410156 1.730469 5.839844 C 1.683594 5.886719 1.589844 5.984375 1.589844 6.078125 L 0.0195312 11.214844 C -0.0273438 11.359375 0.0195312 11.503906 0.113281 11.644531 C 0.210938 11.789062 0.351562 11.835938 0.496094 11.835938 L 1.492188 11.835938 L 1.492188 12.929688 C 1.207031 13.070312 1.019531 13.40625 1.019531 13.738281 C 1.019531 14.261719 1.445312 14.691406 1.96875 14.691406 C 2.492188 14.691406 2.921875 14.261719 2.921875 13.738281 C 2.921875 13.40625 2.730469 13.070312 2.445312 12.929688 L 2.445312 11.835938 L 3.398438 11.835938 L 3.398438 21.78125 L 1.542969 21.78125 C 1.253906 21.78125 1.066406 21.96875 1.066406 22.253906 C 1.066406 22.539062 1.253906 22.730469 1.542969 22.730469 L 6.15625 22.730469 C 6.441406 22.730469 6.632812 22.539062 6.632812 22.253906 C 6.632812 21.96875 6.441406 21.78125 6.15625 21.78125 L 4.300781 21.78125 L 4.300781 11.835938 L 7.25 11.835938 L 7.25 11.789062 C 7.394531 11.789062 7.535156 11.738281 7.632812 11.597656 C 7.726562 11.453125 7.726562 11.3125 7.726562 11.167969 Z M 1.113281 10.835938 L 2.398438 6.554688 C 2.636719 6.410156 3.207031 6.316406 3.777344 6.316406 L 3.921875 6.316406 C 4.539062 6.316406 5.0625 6.457031 5.300781 6.554688 L 6.585938 10.835938 Z M 1.113281 10.835938 "/>
<path style=" stroke:none;fill-rule:nonzero;fill:rgb(0%,0%,0%);fill-opacity:1;" d="M 26.996094 16.546875 L 26.757812 16.546875 L 26.757812 14.023438 C 26.757812 12.5 25.855469 11.550781 24.285156 11.550781 L 20.050781 11.550781 C 19.148438 11.550781 18.480469 11.882812 18.050781 12.40625 C 17.625 11.835938 16.957031 11.550781 16.054688 11.550781 L 11.820312 11.550781 C 10.296875 11.550781 9.34375 12.453125 9.34375 14.023438 L 9.34375 16.546875 L 9.105469 16.546875 C 8.535156 16.546875 8.058594 17.019531 8.058594 17.59375 L 8.058594 20.210938 C 8.058594 20.78125 8.535156 21.257812 9.105469 21.257812 L 9.34375 21.257812 L 9.34375 22.207031 C 9.34375 22.492188 9.535156 22.683594 9.820312 22.683594 C 10.105469 22.683594 10.296875 22.492188 10.296875 22.207031 L 10.296875 21.257812 L 25.761719 21.257812 L 25.761719 22.207031 C 25.761719 22.492188 25.949219 22.683594 26.234375 22.683594 C 26.523438 22.683594 26.710938 22.492188 26.710938 22.207031 L 26.710938 21.257812 L 26.949219 21.257812 C 27.519531 21.257812 27.996094 20.78125 27.996094 20.210938 L 27.996094 17.59375 C 28.042969 17.019531 27.570312 16.546875 26.996094 16.546875 Z M 18.527344 14.023438 C 18.527344 12.976562 19.050781 12.5 20.050781 12.5 L 24.285156 12.5 C 25.285156 12.5 25.808594 12.976562 25.808594 14.023438 L 25.808594 16.546875 L 18.527344 16.546875 Z M 10.296875 14.023438 C 10.296875 13.023438 10.773438 12.5 11.820312 12.5 L 16.054688 12.5 C 17.054688 12.5 17.578125 12.976562 17.578125 14.023438 L 17.578125 16.546875 L 10.296875 16.546875 Z M 27.09375 20.210938 C 27.09375 20.257812 27.046875 20.304688 26.996094 20.304688 L 9.15625 20.304688 C 9.105469 20.304688 9.058594 20.257812 9.058594 20.210938 L 9.058594 17.59375 C 9.058594 17.542969 9.105469 17.496094 9.15625 17.496094 L 26.996094 17.496094 C 27.046875 17.496094 27.09375 17.542969 27.09375 17.59375 Z M 27.09375 20.210938 "/>
<path style=" stroke:none;fill-rule:nonzero;fill:rgb(0%,0%,0%);fill-opacity:1;" d="M 12.582031 14.59375 C 12.582031 14.859375 12.367188 15.070312 12.105469 15.070312 C 11.839844 15.070312 11.628906 14.859375 11.628906 14.59375 C 11.628906 14.332031 11.839844 14.117188 12.105469 14.117188 C 12.367188 14.117188 12.582031 14.332031 12.582031 14.59375 Z M 12.582031 14.59375 "/>
<path style=" stroke:none;fill-rule:nonzero;fill:rgb(0%,0%,0%);fill-opacity:1;" d="M 16.292969 14.59375 C 16.292969 14.859375 16.078125 15.070312 15.816406 15.070312 C 15.554688 15.070312 15.339844 14.859375 15.339844 14.59375 C 15.339844 14.332031 15.554688 14.117188 15.816406 14.117188 C 16.078125 14.117188 16.292969 14.332031 16.292969 14.59375 Z M 16.292969 14.59375 "/>
<path style=" stroke:none;fill-rule:nonzero;fill:rgb(0%,0%,0%);fill-opacity:1;" d="M 20.765625 14.59375 C 20.765625 14.859375 20.550781 15.070312 20.289062 15.070312 C 20.027344 15.070312 19.8125 14.859375 19.8125 14.59375 C 19.8125 14.332031 20.027344 14.117188 20.289062 14.117188 C 20.550781 14.117188 20.765625 14.332031 20.765625 14.59375 Z M 20.765625 14.59375 "/>
<path style=" stroke:none;fill-rule:nonzero;fill:rgb(0%,0%,0%);fill-opacity:1;" d="M 24.523438 14.59375 C 24.523438 14.859375 24.308594 15.070312 24.046875 15.070312 C 23.785156 15.070312 23.570312 14.859375 23.570312 14.59375 C 23.570312 14.332031 23.785156 14.117188 24.046875 14.117188 C 24.308594 14.117188 24.523438 14.332031 24.523438 14.59375 Z M 24.523438 14.59375 "/>
</g>
</svg>
