<?xml version="1.0" encoding="UTF-8"?>
<svg xmlns="http://www.w3.org/2000/svg" xmlns:xlink="http://www.w3.org/1999/xlink" width="28pt" height="28pt" viewBox="0 0 28 28" version="1.1">
<g id="surface1">
<path style=" stroke:none;fill-rule:nonzero;fill:rgb(0%,0%,0%);fill-opacity:1;" d="M 26.792969 10.335938 L 27.453125 6.371094 C 27.609375 5.425781 27.34375 4.457031 26.722656 3.722656 C 26.101562 2.992188 25.191406 2.566406 24.230469 2.566406 L 3.769531 2.566406 C 2.808594 2.566406 1.898438 2.992188 1.277344 3.722656 C 0.65625 4.457031 0.390625 5.425781 0.546875 6.371094 L 1.207031 10.335938 C 0.464844 10.742188 0.00390625 11.519531 0 12.367188 L 0 23.101562 C 0 23.359375 0.207031 23.566406 0.464844 23.566406 L 0.464844 24.035156 C 0.46875 24.804688 1.09375 25.433594 1.867188 25.433594 L 4.667969 25.433594 C 5.441406 25.433594 6.066406 24.804688 6.066406 24.035156 L 6.066406 23.566406 L 21.933594 23.566406 L 21.933594 24.035156 C 21.933594 24.804688 22.558594 25.433594 23.332031 25.433594 L 26.132812 25.433594 C 26.90625 25.433594 27.53125 24.804688 27.535156 24.035156 L 27.535156 23.566406 C 27.792969 23.566406 28 23.359375 28 23.101562 L 28 12.367188 C 27.996094 11.519531 27.535156 10.742188 26.792969 10.335938 Z M 1.992188 4.328125 C 2.433594 3.804688 3.085938 3.5 3.769531 3.5 L 24.230469 3.5 C 24.914062 3.5 25.566406 3.804688 26.007812 4.328125 C 26.453125 4.851562 26.644531 5.542969 26.53125 6.21875 L 25.890625 10.054688 C 25.816406 10.046875 25.742188 10.035156 25.667969 10.035156 C 24.378906 10.035156 23.335938 11.078125 23.332031 12.367188 L 23.332031 14.960938 C 23.050781 14.792969 22.730469 14.703125 22.398438 14.699219 L 15.398438 14.699219 C 14.863281 14.703125 14.351562 14.9375 14 15.34375 C 13.648438 14.9375 13.136719 14.703125 12.601562 14.699219 L 5.601562 14.699219 C 5.269531 14.703125 4.949219 14.792969 4.667969 14.960938 L 4.667969 12.367188 C 4.664062 11.078125 3.621094 10.035156 2.332031 10.035156 C 2.257812 10.035156 2.183594 10.046875 2.109375 10.054688 L 1.46875 6.21875 C 1.355469 5.542969 1.546875 4.851562 1.992188 4.328125 Z M 18.667969 17.5 C 18.925781 17.5 19.132812 17.292969 19.132812 17.035156 L 19.132812 16.101562 C 19.132812 15.84375 19.34375 15.632812 19.601562 15.632812 L 22.398438 15.632812 C 22.914062 15.632812 23.332031 16.050781 23.332031 16.566406 L 23.332031 18.433594 L 14.464844 18.433594 L 14.464844 16.566406 C 14.46875 16.050781 14.882812 15.632812 15.398438 15.632812 L 17.734375 15.632812 C 17.992188 15.632812 18.199219 15.84375 18.199219 16.101562 L 18.199219 17.035156 C 18.199219 17.292969 18.410156 17.5 18.667969 17.5 Z M 9.332031 17.5 C 9.589844 17.5 9.800781 17.292969 9.800781 17.035156 L 9.800781 16.101562 C 9.800781 15.84375 10.007812 15.632812 10.265625 15.632812 L 12.601562 15.632812 C 13.117188 15.632812 13.53125 16.050781 13.535156 16.566406 L 13.535156 18.433594 L 4.667969 18.433594 L 4.667969 16.566406 C 4.667969 16.050781 5.085938 15.632812 5.601562 15.632812 L 8.398438 15.632812 C 8.65625 15.632812 8.867188 15.84375 8.867188 16.101562 L 8.867188 17.035156 C 8.867188 17.292969 9.074219 17.5 9.332031 17.5 Z M 0.933594 12.367188 C 0.933594 11.59375 1.558594 10.964844 2.332031 10.964844 C 3.105469 10.964844 3.734375 11.59375 3.734375 12.367188 L 3.734375 22.632812 L 0.933594 22.632812 Z M 5.132812 24.035156 C 5.132812 24.289062 4.925781 24.5 4.667969 24.5 L 1.867188 24.5 C 1.609375 24.5 1.398438 24.289062 1.398438 24.035156 L 1.398438 23.566406 L 5.132812 23.566406 Z M 4.667969 22.632812 L 4.667969 19.367188 L 23.332031 19.367188 L 23.332031 22.632812 Z M 26.601562 24.035156 C 26.601562 24.289062 26.390625 24.5 26.132812 24.5 L 23.332031 24.5 C 23.074219 24.5 22.867188 24.289062 22.867188 24.035156 L 22.867188 23.566406 L 26.601562 23.566406 Z M 27.066406 22.632812 L 24.265625 22.632812 L 24.265625 12.367188 C 24.265625 11.59375 24.894531 10.964844 25.667969 10.964844 C 26.441406 10.964844 27.066406 11.59375 27.066406 12.367188 Z M 27.066406 22.632812 "/>
<path style=" stroke:none;fill-rule:nonzero;fill:rgb(0%,0%,0%);fill-opacity:1;" d="M 6.535156 7.234375 C 6.792969 7.234375 7 7.023438 7 6.765625 L 7 6.300781 C 7 6.042969 6.792969 5.832031 6.535156 5.832031 C 6.277344 5.832031 6.066406 6.042969 6.066406 6.300781 L 6.066406 6.765625 C 6.066406 7.023438 6.277344 7.234375 6.535156 7.234375 Z M 6.535156 7.234375 "/>
<path style=" stroke:none;fill-rule:nonzero;fill:rgb(0%,0%,0%);fill-opacity:1;" d="M 8.867188 9.566406 C 9.125 9.566406 9.332031 9.359375 9.332031 9.101562 L 9.332031 8.632812 C 9.332031 8.375 9.125 8.167969 8.867188 8.167969 C 8.609375 8.167969 8.398438 8.375 8.398438 8.632812 L 8.398438 9.101562 C 8.398438 9.359375 8.609375 9.566406 8.867188 9.566406 Z M 8.867188 9.566406 "/>
<path style=" stroke:none;fill-rule:nonzero;fill:rgb(0%,0%,0%);fill-opacity:1;" d="M 11.199219 7.234375 C 11.457031 7.234375 11.667969 7.023438 11.667969 6.765625 L 11.667969 6.300781 C 11.667969 6.042969 11.457031 5.832031 11.199219 5.832031 C 10.941406 5.832031 10.734375 6.042969 10.734375 6.300781 L 10.734375 6.765625 C 10.734375 7.023438 10.941406 7.234375 11.199219 7.234375 Z M 11.199219 7.234375 "/>
<path style=" stroke:none;fill-rule:nonzero;fill:rgb(0%,0%,0%);fill-opacity:1;" d="M 16.800781 7.234375 C 17.058594 7.234375 17.265625 7.023438 17.265625 6.765625 L 17.265625 6.300781 C 17.265625 6.042969 17.058594 5.832031 16.800781 5.832031 C 16.542969 5.832031 16.332031 6.042969 16.332031 6.300781 L 16.332031 6.765625 C 16.332031 7.023438 16.542969 7.234375 16.800781 7.234375 Z M 16.800781 7.234375 "/>
<path style=" stroke:none;fill-rule:nonzero;fill:rgb(0%,0%,0%);fill-opacity:1;" d="M 19.132812 9.566406 C 19.390625 9.566406 19.601562 9.359375 19.601562 9.101562 L 19.601562 8.632812 C 19.601562 8.375 19.390625 8.167969 19.132812 8.167969 C 18.875 8.167969 18.667969 8.375 18.667969 8.632812 L 18.667969 9.101562 C 18.667969 9.359375 18.875 9.566406 19.132812 9.566406 Z M 19.132812 9.566406 "/>
<path style=" stroke:none;fill-rule:nonzero;fill:rgb(0%,0%,0%);fill-opacity:1;" d="M 21.464844 7.234375 C 21.722656 7.234375 21.933594 7.023438 21.933594 6.765625 L 21.933594 6.300781 C 21.933594 6.042969 21.722656 5.832031 21.464844 5.832031 C 21.207031 5.832031 21 6.042969 21 6.300781 L 21 6.765625 C 21 7.023438 21.207031 7.234375 21.464844 7.234375 Z M 21.464844 7.234375 "/>
<path style=" stroke:none;fill-rule:nonzero;fill:rgb(0%,0%,0%);fill-opacity:1;" d="M 6.535156 11.898438 C 6.792969 11.898438 7 11.691406 7 11.433594 L 7 10.964844 C 7 10.707031 6.792969 10.5 6.535156 10.5 C 6.277344 10.5 6.066406 10.707031 6.066406 10.964844 L 6.066406 11.433594 C 6.066406 11.691406 6.277344 11.898438 6.535156 11.898438 Z M 6.535156 11.898438 "/>
<path style=" stroke:none;fill-rule:nonzero;fill:rgb(0%,0%,0%);fill-opacity:1;" d="M 11.199219 11.898438 C 11.457031 11.898438 11.667969 11.691406 11.667969 11.433594 L 11.667969 10.964844 C 11.667969 10.707031 11.457031 10.5 11.199219 10.5 C 10.941406 10.5 10.734375 10.707031 10.734375 10.964844 L 10.734375 11.433594 C 10.734375 11.691406 10.941406 11.898438 11.199219 11.898438 Z M 11.199219 11.898438 "/>
<path style=" stroke:none;fill-rule:nonzero;fill:rgb(0%,0%,0%);fill-opacity:1;" d="M 16.800781 11.898438 C 17.058594 11.898438 17.265625 11.691406 17.265625 11.433594 L 17.265625 10.964844 C 17.265625 10.707031 17.058594 10.5 16.800781 10.5 C 16.542969 10.5 16.332031 10.707031 16.332031 10.964844 L 16.332031 11.433594 C 16.332031 11.691406 16.542969 11.898438 16.800781 11.898438 Z M 16.800781 11.898438 "/>
<path style=" stroke:none;fill-rule:nonzero;fill:rgb(0%,0%,0%);fill-opacity:1;" d="M 21.464844 11.898438 C 21.722656 11.898438 21.933594 11.691406 21.933594 11.433594 L 21.933594 10.964844 C 21.933594 10.707031 21.722656 10.5 21.464844 10.5 C 21.207031 10.5 21 10.707031 21 10.964844 L 21 11.433594 C 21 11.691406 21.207031 11.898438 21.464844 11.898438 Z M 21.464844 11.898438 "/>
</g>
</svg>
