<?xml version="1.0" encoding="UTF-8"?>
<svg xmlns="http://www.w3.org/2000/svg" xmlns:xlink="http://www.w3.org/1999/xlink" width="28pt" height="28pt" viewBox="0 0 28 28" version="1.1">
<g id="surface1">
<path style=" stroke:none;fill-rule:nonzero;fill:rgb(0%,0%,0%);fill-opacity:1;" d="M 25.667969 12.601562 L 16.082031 12.601562 C 17.070312 11.503906 17.035156 9.832031 16.003906 8.777344 C 15.917969 8.691406 15.867188 8.574219 15.867188 8.453125 L 15.867188 6.535156 L 16.332031 6.535156 C 16.589844 6.535156 16.800781 6.324219 16.800781 6.066406 C 16.800781 5.808594 16.589844 5.601562 16.332031 5.601562 L 14.582031 5.601562 C 14.792969 4.847656 15.230469 4.175781 15.835938 3.679688 C 15.921875 3.960938 16.09375 4.210938 16.328125 4.390625 C 16.734375 4.691406 17.273438 4.753906 17.734375 4.546875 C 18.195312 4.753906 18.730469 4.691406 19.136719 4.390625 C 19.542969 4.082031 19.761719 3.585938 19.707031 3.078125 C 20.042969 2.695312 20.152344 2.164062 19.996094 1.679688 C 19.847656 1.199219 19.453125 0.832031 18.957031 0.71875 C 18.710938 0.273438 18.242188 0 17.734375 0 C 17.226562 0 16.757812 0.273438 16.507812 0.71875 C 16.015625 0.832031 15.617188 1.199219 15.46875 1.679688 C 15.359375 2.027344 15.386719 2.402344 15.539062 2.730469 C 14.5625 3.410156 13.875 4.4375 13.621094 5.601562 L 11.667969 5.601562 C 11.410156 5.601562 11.199219 5.808594 11.199219 6.066406 C 11.199219 6.324219 11.410156 6.535156 11.667969 6.535156 L 12.132812 6.535156 L 12.132812 8.453125 C 12.132812 8.574219 12.082031 8.691406 11.996094 8.78125 C 11.347656 9.445312 11.070312 10.390625 11.257812 11.300781 C 11.359375 11.785156 11.585938 12.234375 11.921875 12.601562 L 2.332031 12.601562 C 1.816406 12.601562 1.402344 13.019531 1.398438 13.535156 L 1.398438 14.464844 C 1.402344 14.980469 1.816406 15.398438 2.332031 15.398438 L 3.265625 15.398438 L 3.265625 26.601562 C 3.265625 27.375 3.894531 28 4.667969 28 C 5.441406 28 6.066406 27.375 6.066406 26.601562 L 6.066406 21 L 12.011719 21 L 13.015625 21.996094 C 13.5625 22.53125 14.4375 22.53125 14.988281 21.992188 L 15.988281 21 L 21.933594 21 L 21.933594 26.601562 C 21.933594 27.375 22.558594 28 23.332031 28 C 24.105469 28 24.734375 27.375 24.734375 26.601562 L 24.734375 15.398438 L 25.667969 15.398438 C 26.183594 15.398438 26.597656 14.980469 26.601562 14.464844 L 26.601562 13.535156 C 26.597656 13.019531 26.183594 12.601562 25.667969 12.601562 Z M 16.359375 1.960938 C 16.421875 1.757812 16.609375 1.617188 16.824219 1.617188 L 16.828125 1.617188 C 17.03125 1.617188 17.210938 1.484375 17.273438 1.289062 C 17.328125 1.078125 17.515625 0.933594 17.734375 0.933594 C 17.949219 0.933594 18.140625 1.078125 18.195312 1.289062 C 18.257812 1.484375 18.4375 1.617188 18.640625 1.617188 L 18.644531 1.617188 C 18.859375 1.617188 19.046875 1.757812 19.109375 1.960938 C 19.175781 2.175781 19.101562 2.40625 18.921875 2.542969 C 18.761719 2.660156 18.695312 2.867188 18.757812 3.058594 C 18.828125 3.269531 18.757812 3.503906 18.578125 3.640625 C 18.410156 3.765625 18.179688 3.761719 18.011719 3.636719 C 17.847656 3.511719 17.621094 3.511719 17.453125 3.636719 C 17.289062 3.761719 17.054688 3.765625 16.886719 3.640625 C 16.710938 3.503906 16.640625 3.269531 16.710938 3.058594 C 16.773438 2.867188 16.703125 2.660156 16.542969 2.542969 C 16.363281 2.40625 16.289062 2.175781 16.359375 1.960938 Z M 5.132812 26.601562 C 5.132812 26.859375 4.925781 27.066406 4.667969 27.066406 C 4.410156 27.066406 4.199219 26.859375 4.199219 26.601562 L 4.199219 15.398438 L 5.132812 15.398438 Z M 2.332031 14.464844 L 2.332031 13.535156 L 4.476562 13.535156 L 5.417969 14.464844 Z M 12.664062 9.429688 C 12.921875 9.167969 13.066406 8.816406 13.066406 8.453125 L 13.066406 6.535156 L 14.933594 6.535156 L 14.933594 8.453125 C 14.933594 8.816406 15.078125 9.167969 15.335938 9.429688 C 16.050781 10.160156 16.042969 11.335938 15.316406 12.058594 C 14.589844 12.78125 13.414062 12.785156 12.683594 12.0625 C 11.957031 11.339844 11.949219 10.164062 12.664062 9.429688 Z M 6.066406 20.066406 L 6.066406 19.132812 L 10.125 19.132812 L 11.066406 20.066406 Z M 6.066406 18.199219 L 6.066406 15.398438 L 6.359375 15.398438 L 9.183594 18.199219 Z M 21.933594 20.066406 L 16.933594 20.066406 L 17.875 19.132812 L 21.933594 19.132812 Z M 21.933594 18.199219 L 18.816406 18.199219 L 21.640625 15.398438 L 21.933594 15.398438 Z M 15.46875 20.203125 L 15.464844 20.207031 L 14.332031 21.332031 C 14.148438 21.511719 13.855469 21.511719 13.671875 21.332031 L 12.535156 20.207031 L 12.53125 20.199219 L 5.800781 13.535156 L 22.199219 13.535156 Z M 23.800781 26.601562 C 23.800781 26.859375 23.589844 27.066406 23.332031 27.066406 C 23.074219 27.066406 22.867188 26.859375 22.867188 26.601562 L 22.867188 15.398438 L 23.800781 15.398438 Z M 25.667969 14.464844 L 22.582031 14.464844 L 23.523438 13.535156 L 25.667969 13.535156 Z M 25.667969 14.464844 "/>
<path style=" stroke:none;fill-rule:nonzero;fill:rgb(0%,0%,0%);fill-opacity:1;" d="M 17.734375 2.800781 C 17.859375 2.800781 17.976562 2.753906 18.066406 2.664062 C 18.152344 2.578125 18.203125 2.457031 18.199219 2.332031 C 18.199219 2.121094 18.054688 1.9375 17.851562 1.886719 C 17.648438 1.832031 17.433594 1.921875 17.328125 2.101562 C 17.222656 2.285156 17.253906 2.515625 17.402344 2.664062 C 17.492188 2.75 17.609375 2.796875 17.734375 2.800781 Z M 17.734375 2.800781 "/>
</g>
</svg>
