<?xml version="1.0" encoding="UTF-8" standalone="no"?>
<!DOCTYPE svg PUBLIC "-//W3C//DTD SVG 1.1//EN" "http://www.w3.org/Graphics/SVG/1.1/DTD/svg11.dtd">
<svg width="100%" height="100%" viewBox="0 0 28 28" version="1.1" xmlns="http://www.w3.org/2000/svg" xmlns:xlink="http://www.w3.org/1999/xlink" xml:space="preserve" xmlns:serif="http://www.serif.com/" style="fill-rule:evenodd;clip-rule:evenodd;stroke-linejoin:round;stroke-miterlimit:2;">
    <g transform="matrix(0.0682157,0,0,0.0682493,4.69328,-0.122669)">
        <g id="CorelEMF">
            <g id="CorelEMF1" serif:id="CorelEMF">
                <path d="M233,357C233,360 233,363 232,365C232,368 231,369 230,371C229,372 228,373 227,374C226,374 225,375 224,375L49,375C48,375 47,374 46,374C45,373 44,372 43,371C42,369 41,368 40,365L40,349C41,347 42,345 42,344C43,342 44,341 45,340C46,340 48,339 49,339L119,339L119,85L54,123C51,125 48,126 46,126C44,127 42,126 41,125C40,124 39,122 39,120C38,117 38,114 38,110L38,102C39,100 39,99 40,97C40,96 41,95 42,94C43,93 44,92 46,90L123,41C123,41 124,40 125,40C126,40 128,39 129,39C131,39 132,38 135,38L142,38C146,38 150,38 153,39C155,39 158,39 159,40C161,41 162,41 162,42C163,43 163,44 163,45L163,339L223,339C225,339 226,340 227,340C229,341 230,342 230,344C231,345 232,347 232,349C233,351 233,354 233,357Z" style="fill-rule:nonzero;"/>
            </g>
        </g>
    </g>
</svg>
