<?xml version="1.0" encoding="UTF-8" standalone="no"?>
<!DOCTYPE svg PUBLIC "-//W3C//DTD SVG 1.1//EN" "http://www.w3.org/Graphics/SVG/1.1/DTD/svg11.dtd">
<svg width="100%" height="100%" viewBox="0 0 28 28" version="1.1" xmlns="http://www.w3.org/2000/svg" xmlns:xlink="http://www.w3.org/1999/xlink" xml:space="preserve" xmlns:serif="http://www.serif.com/" style="fill-rule:evenodd;clip-rule:evenodd;stroke-linejoin:round;stroke-miterlimit:2;">
    <g transform="matrix(0.0680138,0,0,0.0680473,-14.1346,-14.0858)">
        <g id="CorelEMF">
            <g id="CorelEMF1" serif:id="CorelEMF">
                <path d="M533,485C533,491 533,495 531,499C529,502 527,504 524,504L486,504L486,574C486,575 486,576 485,577C484,578 483,579 481,580C479,580 477,581 474,581C471,582 468,582 463,582C459,582 455,582 453,581C450,581 448,580 446,580C444,579 443,578 442,577C442,576 441,575 441,574L441,504L305,504C302,504 301,503 299,503C298,502 297,501 296,500C295,499 294,497 293,494L293,475C293,473 294,470 294,468C295,466 295,464 296,462C297,460 298,458 299,456L418,252C419,251 421,250 422,249C424,248 426,247 429,246C431,245 435,245 438,245C442,244 447,244 452,244C458,244 463,244 467,245C472,245 475,246 478,247C480,247 482,248 484,249C485,250 486,252 486,253L486,467L524,467C527,467 529,469 531,472C533,475 533,479 533,485ZM441,283L333,467L441,467L441,283Z" style="fill-rule:nonzero;"/>
            </g>
        </g>
    </g>
</svg>
