<?xml version="1.0" encoding="UTF-8" standalone="no"?>
<!DOCTYPE svg PUBLIC "-//W3C//DTD SVG 1.1//EN" "http://www.w3.org/Graphics/SVG/1.1/DTD/svg11.dtd">
<svg width="100%" height="100%" viewBox="0 0 28 28" version="1.1" xmlns="http://www.w3.org/2000/svg" xmlns:xlink="http://www.w3.org/1999/xlink" xml:space="preserve" xmlns:serif="http://www.serif.com/" style="fill-rule:evenodd;clip-rule:evenodd;stroke-linejoin:round;stroke-miterlimit:2;">
    <g transform="matrix(0.0678132,0,0,0.0678466,-14.0857,-14.0718)">
        <g id="CorelEMF">
            <g id="CorelEMF1" serif:id="CorelEMF">
                <path d="M519,470C519,488 516,504 510,518C504,532 495,544 484,553C473,563 460,570 445,575C429,580 412,583 394,583C383,583 374,582 364,581C355,579 347,577 340,575C332,573 326,571 322,569C317,567 314,565 313,564C312,563 311,562 310,561C310,560 309,558 309,557C308,555 308,554 308,551L308,535C308,533 309,531 309,530C310,528 311,527 312,527C313,526 314,526 315,526C317,526 319,527 323,529C327,531 332,533 338,536C344,538 351,541 360,543C369,545 380,546 393,546C404,546 415,545 424,542C434,539 442,535 449,529C456,523 462,516 466,507C470,498 472,487 472,475C472,464 470,454 467,446C463,438 458,431 451,426C444,420 435,416 424,414C414,411 401,410 386,410C376,410 367,410 359,411C352,412 344,413 338,413C333,413 330,412 328,409C326,407 324,403 324,397L324,260C324,255 326,250 328,248C331,245 335,244 340,244L488,244C490,244 491,244 492,245C494,245 495,247 495,248C496,250 497,252 497,254C498,256 498,259 498,263C498,269 497,274 496,277C494,280 492,282 489,282L369,282L369,376C375,375 381,375 387,374L408,374C426,374 442,377 456,381C470,386 481,392 491,400C500,409 507,419 512,431C516,443 519,456 519,470Z" style="fill-rule:nonzero;"/>
            </g>
        </g>
    </g>
</svg>
