<?xml version="1.0" encoding="UTF-8" standalone="no"?>
<!DOCTYPE svg PUBLIC "-//W3C//DTD SVG 1.1//EN" "http://www.w3.org/Graphics/SVG/1.1/DTD/svg11.dtd">
<svg width="100%" height="100%" viewBox="0 0 28 28" version="1.1" xmlns="http://www.w3.org/2000/svg" xmlns:xlink="http://www.w3.org/1999/xlink" xml:space="preserve" xmlns:serif="http://www.serif.com/" style="fill-rule:evenodd;clip-rule:evenodd;stroke-linejoin:round;stroke-miterlimit:2;">
    <g transform="matrix(0.0668276,0,0,0.0668605,-13.5049,-13.6306)">
        <g id="CorelEMF">
            <g id="CorelEMF1" serif:id="CorelEMF">
                <path d="M526,494C526,509 523,522 518,533C513,544 505,554 496,562C486,569 474,575 460,579C445,583 429,585 411,585C393,585 378,583 364,580C351,576 339,571 330,564C320,557 313,548 308,538C303,527 300,515 300,502C300,492 302,482 306,473C309,465 314,456 320,449C327,442 335,435 344,428C354,422 365,416 377,410C366,404 357,399 349,393C341,387 334,380 329,374C323,366 319,359 316,351C313,343 312,335 312,325C312,314 314,303 318,292C323,282 329,273 338,266C346,258 357,252 370,248C383,243 399,241 416,241C433,241 448,243 460,247C473,251 483,257 491,264C499,271 505,279 508,288C512,298 514,308 514,319C514,328 513,336 510,344C507,352 503,360 497,367C492,374 485,381 477,387C469,394 460,400 449,405C462,411 473,417 482,424C492,430 500,437 506,444C513,452 517,459 521,467C524,476 526,485 526,494ZM470,323C470,316 469,309 466,303C464,297 460,292 456,288C451,284 445,281 438,279C430,277 422,276 413,276C394,276 380,280 371,288C361,297 356,308 356,323C356,330 358,336 360,342C362,347 366,353 371,358C376,363 382,368 389,373C397,378 406,383 416,389C434,380 447,370 456,359C466,348 470,336 470,323ZM481,499C481,491 479,484 476,478C474,471 469,465 463,459C457,454 450,448 441,443C432,438 422,433 410,427C399,432 390,437 381,443C373,448 367,454 361,459C356,465 352,471 349,477C347,484 345,491 345,498C345,515 351,528 363,537C374,546 391,551 414,551C436,551 453,546 464,537C475,528 481,515 481,499Z" style="fill-rule:nonzero;"/>
            </g>
        </g>
    </g>
</svg>
