<?xml version="1.0" encoding="UTF-8" standalone="no"?>
<!DOCTYPE svg PUBLIC "-//W3C//DTD SVG 1.1//EN" "http://www.w3.org/Graphics/SVG/1.1/DTD/svg11.dtd">
<svg width="100%" height="100%" viewBox="0 0 28 28" version="1.1" xmlns="http://www.w3.org/2000/svg" xmlns:xlink="http://www.w3.org/1999/xlink" xml:space="preserve" xmlns:serif="http://www.serif.com/" style="fill-rule:evenodd;clip-rule:evenodd;stroke-linejoin:round;stroke-miterlimit:2;">
    <g transform="matrix(0.0366668,0,0,0.0366848,-1.27447,-1.31517)">
        <g id="CorelEMF">
            <path d="M535,416C535,442 533,465 529,486C525,508 519,526 509,541C500,556 488,568 472,576C457,585 439,589 416,589C395,589 378,585 363,578C349,570 337,559 328,545C320,530 313,512 310,491C306,470 304,445 304,418C304,392 306,369 310,348C315,326 321,308 331,293C340,278 352,266 367,257C382,249 401,245 423,245C444,245 462,249 476,256C491,264 502,275 511,289C520,304 526,322 530,343C534,364 535,389 535,416ZM490,419C490,403 489,388 488,374C487,361 485,349 483,339C480,329 477,320 474,313C470,306 466,300 460,295C455,290 449,287 443,285C436,283 429,281 420,281C406,281 394,285 385,292C376,299 368,308 363,320C358,332 354,346 353,363C351,379 350,396 350,415C350,439 351,461 354,478C356,496 360,510 366,521C371,532 379,540 387,545C396,550 407,552 419,552C429,552 437,551 444,548C452,545 458,540 463,534C468,529 473,522 476,514C480,506 482,497 485,487C487,477 488,466 489,455C490,444 490,432 490,419Z" style="fill-rule:nonzero;"/>
        </g>
    </g>
</svg>
