<?xml version="1.0" encoding="UTF-8"?>
<svg xmlns="http://www.w3.org/2000/svg" xmlns:xlink="http://www.w3.org/1999/xlink" width="28pt" height="28pt" viewBox="0 0 28 28" version="1.1">
<g id="surface1">
<path style=" stroke:none;fill-rule:nonzero;fill:rgb(0%,0%,0%);fill-opacity:1;" d="M 17.5625 19.519531 C 17.5625 19.632812 17.5625 19.742188 17.523438 19.8125 C 17.523438 19.886719 17.488281 19.960938 17.453125 19.996094 C 17.453125 20.070312 17.414062 20.109375 17.34375 20.109375 C 17.304688 20.144531 17.269531 20.144531 17.230469 20.144531 L 10.816406 20.144531 C 10.777344 20.144531 10.742188 20.144531 10.707031 20.109375 C 10.667969 20.109375 10.632812 20.070312 10.59375 19.996094 C 10.558594 19.960938 10.523438 19.886719 10.523438 19.8125 C 10.484375 19.742188 10.484375 19.632812 10.484375 19.519531 C 10.484375 19.410156 10.484375 19.300781 10.523438 19.226562 C 10.523438 19.117188 10.558594 19.082031 10.59375 19.007812 C 10.632812 18.96875 10.667969 18.933594 10.707031 18.898438 C 10.742188 18.859375 10.777344 18.859375 10.816406 18.859375 L 13.382812 18.859375 L 13.382812 9.507812 L 11 10.9375 C 10.886719 11.011719 10.777344 11.046875 10.707031 11.046875 C 10.632812 11.046875 10.59375 11.046875 10.558594 11.011719 C 10.484375 10.972656 10.484375 10.898438 10.449219 10.789062 L 10.449219 10.167969 C 10.449219 10.09375 10.484375 10.019531 10.484375 9.984375 C 10.523438 9.910156 10.523438 9.871094 10.558594 9.835938 C 10.59375 9.800781 10.632812 9.761719 10.707031 9.726562 L 13.527344 7.929688 C 13.566406 7.890625 13.601562 7.890625 13.636719 7.855469 C 13.675781 7.855469 13.710938 7.855469 13.785156 7.820312 L 14.628906 7.820312 C 14.738281 7.855469 14.8125 7.855469 14.886719 7.890625 C 14.921875 7.890625 14.957031 7.929688 14.996094 7.964844 L 14.996094 18.859375 L 17.230469 18.859375 C 17.269531 18.859375 17.34375 18.859375 17.378906 18.898438 C 17.414062 18.933594 17.453125 18.96875 17.488281 19.007812 C 17.523438 19.082031 17.523438 19.117188 17.5625 19.226562 Z M 17.5625 19.519531 "/>
</g>
</svg>
