<?xml version="1.0" encoding="UTF-8"?>
<svg xmlns="http://www.w3.org/2000/svg" xmlns:xlink="http://www.w3.org/1999/xlink" width="28pt" height="28pt" viewBox="0 0 28 28" version="1.1">
<g id="surface1">
<path style=" stroke:none;fill-rule:nonzero;fill:rgb(0%,0%,0%);fill-opacity:1;" d="M 17.78125 16.074219 C 17.78125 16.734375 17.671875 17.28125 17.414062 17.796875 C 17.195312 18.308594 16.902344 18.75 16.5 19.117188 C 16.09375 19.449219 15.617188 19.703125 15.03125 19.886719 C 14.480469 20.109375 13.859375 20.179688 13.199219 20.179688 C 12.796875 20.179688 12.464844 20.144531 12.097656 20.109375 C 11.769531 20.035156 11.476562 19.996094 11.183594 19.886719 C 10.925781 19.8125 10.707031 19.742188 10.558594 19.667969 C 10.375 19.59375 10.265625 19.519531 10.230469 19.484375 C 10.15625 19.449219 10.15625 19.410156 10.117188 19.375 C 10.082031 19.335938 10.082031 19.300781 10.082031 19.226562 C 10.046875 19.191406 10.046875 19.117188 10.046875 19.042969 C 10.046875 18.933594 10.007812 18.859375 10.007812 18.75 C 10.007812 18.640625 10.046875 18.53125 10.046875 18.457031 C 10.046875 18.347656 10.082031 18.308594 10.082031 18.238281 C 10.117188 18.199219 10.15625 18.164062 10.191406 18.125 C 10.230469 18.089844 10.265625 18.089844 10.300781 18.089844 C 10.375 18.089844 10.449219 18.125 10.59375 18.199219 C 10.742188 18.273438 10.886719 18.382812 11.144531 18.457031 C 11.367188 18.566406 11.621094 18.640625 11.953125 18.714844 C 12.28125 18.789062 12.683594 18.824219 13.125 18.824219 C 13.566406 18.824219 13.96875 18.789062 14.296875 18.675781 C 14.664062 18.605469 14.957031 18.421875 15.214844 18.199219 C 15.472656 18.015625 15.691406 17.722656 15.839844 17.394531 C 15.984375 17.0625 16.023438 16.695312 16.023438 16.21875 C 16.023438 15.816406 15.984375 15.484375 15.839844 15.191406 C 15.730469 14.863281 15.546875 14.640625 15.289062 14.421875 C 15.03125 14.238281 14.703125 14.089844 14.296875 13.980469 C 13.933594 13.871094 13.457031 13.835938 12.90625 13.835938 C 12.539062 13.835938 12.207031 13.835938 11.914062 13.90625 C 11.621094 13.945312 11.367188 13.945312 11.144531 13.945312 C 10.960938 13.945312 10.851562 13.90625 10.742188 13.835938 C 10.667969 13.726562 10.632812 13.578125 10.632812 13.359375 L 10.632812 8.367188 C 10.632812 8.148438 10.707031 8 10.777344 7.890625 C 10.886719 7.78125 11.035156 7.746094 11.21875 7.746094 L 16.644531 7.746094 C 16.683594 7.746094 16.753906 7.746094 16.792969 7.78125 C 16.828125 7.820312 16.867188 7.855469 16.902344 7.890625 C 16.9375 7.964844 16.976562 8.039062 16.976562 8.113281 C 17.011719 8.222656 17.011719 8.332031 17.011719 8.441406 C 17.011719 8.664062 16.976562 8.84375 16.902344 8.957031 C 16.867188 9.101562 16.753906 9.140625 16.644531 9.140625 L 12.28125 9.140625 L 12.28125 12.585938 C 12.5 12.550781 12.722656 12.550781 12.941406 12.550781 C 13.160156 12.550781 13.417969 12.515625 13.710938 12.515625 C 14.371094 12.515625 14.957031 12.625 15.472656 12.769531 C 15.984375 12.953125 16.386719 13.175781 16.753906 13.503906 C 17.085938 13.796875 17.34375 14.164062 17.488281 14.605469 C 17.671875 15.046875 17.78125 15.523438 17.78125 16.074219 Z M 17.78125 16.074219 "/>
</g>
</svg>
