<?xml version="1.0" encoding="UTF-8" standalone="no"?>
<!DOCTYPE svg PUBLIC "-//W3C//DTD SVG 1.1//EN" "http://www.w3.org/Graphics/SVG/1.1/DTD/svg11.dtd">
<svg width="100%" height="100%" viewBox="0 0 28 28" version="1.1" xmlns="http://www.w3.org/2000/svg" xmlns:xlink="http://www.w3.org/1999/xlink" xml:space="preserve" xmlns:serif="http://www.serif.com/" style="fill-rule:evenodd;clip-rule:evenodd;stroke-linejoin:round;stroke-miterlimit:2;">
    <g transform="matrix(0.0366668,0,0,0.0366848,-1.32576,-1.27509)">
        <g id="CorelEMF">
            <path d="M526,268L526,277C525,279 525,281 525,284C524,286 523,288 523,291C522,293 521,295 520,297L400,575C399,577 398,579 396,580C395,581 393,582 391,583C389,584 387,584 384,585L372,585C367,585 362,585 359,584C356,584 353,583 352,582C350,581 350,579 350,578C350,576 351,574 352,572L478,288L318,288C314,288 312,286 310,283C309,279 308,275 308,268C308,265 308,262 309,260C309,257 310,255 310,254C311,252 312,251 314,250C315,249 316,249 318,249L513,249C515,249 517,249 519,250C521,250 522,251 523,253C524,254 525,256 525,259C526,261 526,264 526,268Z" style="fill-rule:nonzero;"/>
        </g>
    </g>
</svg>
