<?xml version="1.0" encoding="UTF-8"?>
<svg xmlns="http://www.w3.org/2000/svg" xmlns:xlink="http://www.w3.org/1999/xlink" width="28pt" height="28pt" viewBox="0 0 28 28" version="1.1">
<g id="surface1">
<path style=" stroke:none;fill-rule:nonzero;fill:rgb(0%,0%,0%);fill-opacity:1;" d="M 17.960938 8.554688 L 17.960938 8.886719 C 17.925781 8.960938 17.925781 9.035156 17.925781 9.144531 C 17.886719 9.214844 17.851562 9.289062 17.851562 9.398438 C 17.8125 9.472656 17.777344 9.546875 17.742188 9.621094 L 13.339844 19.820312 C 13.304688 19.890625 13.269531 19.964844 13.195312 20.003906 C 13.15625 20.039062 13.085938 20.074219 13.011719 20.113281 C 12.9375 20.148438 12.863281 20.148438 12.753906 20.183594 L 12.3125 20.183594 C 12.132812 20.183594 11.949219 20.183594 11.835938 20.148438 C 11.726562 20.148438 11.617188 20.113281 11.582031 20.074219 C 11.507812 20.039062 11.507812 19.964844 11.507812 19.929688 C 11.507812 19.855469 11.542969 19.78125 11.582031 19.707031 L 16.199219 9.289062 L 10.335938 9.289062 C 10.1875 9.289062 10.113281 9.214844 10.039062 9.105469 C 10.003906 8.960938 9.96875 8.8125 9.96875 8.554688 C 9.96875 8.445312 9.96875 8.335938 10.003906 8.261719 C 10.003906 8.152344 10.039062 8.078125 10.039062 8.042969 C 10.078125 7.96875 10.113281 7.933594 10.1875 7.894531 C 10.222656 7.859375 10.261719 7.859375 10.335938 7.859375 L 17.484375 7.859375 C 17.558594 7.859375 17.632812 7.859375 17.703125 7.894531 C 17.777344 7.894531 17.8125 7.933594 17.851562 8.007812 C 17.886719 8.042969 17.925781 8.117188 17.925781 8.226562 C 17.960938 8.300781 17.960938 8.410156 17.960938 8.554688 Z M 17.960938 8.554688 "/>
</g>
</svg>
