<?xml version="1.0" encoding="UTF-8" standalone="no"?>
<!DOCTYPE svg PUBLIC "-//W3C//DTD SVG 1.1//EN" "http://www.w3.org/Graphics/SVG/1.1/DTD/svg11.dtd">
<svg width="100%" height="100%" viewBox="0 0 28 28" version="1.1" xmlns="http://www.w3.org/2000/svg" xmlns:xlink="http://www.w3.org/1999/xlink" xml:space="preserve" xmlns:serif="http://www.serif.com/" style="fill-rule:evenodd;clip-rule:evenodd;stroke-linejoin:round;stroke-miterlimit:2;">
    <g transform="matrix(0.0366668,0,0,0.0366848,-1.32332,-1.34386)">
        <g id="CorelEMF">
            <path d="M530,498C530,513 527,526 522,537C517,548 509,558 500,565C490,573 478,579 463,583C449,587 433,589 414,589C397,589 382,587 368,583C354,580 343,575 333,567C324,560 317,552 312,541C307,531 304,519 304,506C304,495 306,486 309,477C313,468 318,460 324,453C331,445 339,438 348,432C358,426 368,419 380,414C370,408 361,403 353,397C345,391 338,384 333,377C327,370 323,363 320,355C317,347 316,338 316,329C316,317 318,306 322,296C326,286 333,277 341,269C350,262 361,256 374,252C387,247 403,245 420,245C437,245 452,247 464,251C476,255 487,261 495,268C503,274 508,283 512,292C516,302 518,312 518,323C518,331 517,340 514,348C511,356 507,364 501,371C496,378 489,385 481,391C473,398 464,403 453,409C466,415 476,421 486,428C495,434 503,441 510,448C516,455 521,463 525,471C528,479 530,488 530,498ZM474,327C474,319 473,313 470,307C468,301 464,296 459,292C454,288 448,285 441,283C434,280 426,279 417,279C398,279 384,284 375,292C365,300 360,312 360,327C360,333 361,340 364,345C366,351 370,357 375,362C380,367 386,372 393,377C401,382 410,387 420,392C437,383 451,374 460,363C469,352 474,340 474,327ZM485,503C485,495 483,488 480,481C477,475 473,469 467,463C461,458 454,452 445,447C436,442 426,436 414,431C403,436 393,441 385,447C377,452 370,457 365,463C360,469 356,475 353,481C351,487 349,494 349,502C349,519 355,532 366,541C378,550 395,555 418,555C440,555 456,550 468,541C479,531 485,519 485,503Z" style="fill-rule:nonzero;"/>
        </g>
    </g>
</svg>
