<?xml version="1.0" encoding="UTF-8" standalone="no"?>
<!DOCTYPE svg PUBLIC "-//W3C//DTD SVG 1.1//EN" "http://www.w3.org/Graphics/SVG/1.1/DTD/svg11.dtd">
<svg width="100%" height="100%" viewBox="0 0 28 28" version="1.1" xmlns="http://www.w3.org/2000/svg" xmlns:xlink="http://www.w3.org/1999/xlink" xml:space="preserve" xmlns:serif="http://www.serif.com/" style="fill-rule:evenodd;clip-rule:evenodd;stroke-linejoin:round;stroke-miterlimit:2;">
    <g transform="matrix(0.0366668,0,0,0.0366848,-1.28236,-1.3029)">
        <g id="CorelEMF">
            <path d="M527,404C527,418 526,433 524,448C523,462 520,477 516,490C511,504 506,517 499,529C492,541 483,551 473,560C462,569 449,576 435,581C420,586 403,589 384,589C377,589 369,588 362,587C356,587 349,585 344,584C338,583 333,581 330,580C326,578 323,576 321,575C320,573 318,571 318,569C317,566 316,562 316,558C316,554 316,551 317,549C317,547 317,545 318,544C318,542 319,542 320,541C321,541 322,540 324,540C326,540 328,541 332,542C335,544 339,545 345,547C350,548 356,550 363,551C370,552 378,553 387,553C404,553 418,550 430,543C442,537 452,528 460,517C467,507 473,494 477,480C480,466 482,450 483,435C474,440 463,445 450,449C437,453 422,455 406,455C387,455 372,452 359,447C346,442 336,435 328,427C321,418 315,407 312,395C309,383 307,370 307,356C307,341 309,327 313,314C318,300 324,288 333,278C343,268 354,260 368,254C382,248 399,245 419,245C433,245 445,247 456,250C467,254 476,259 484,265C492,272 499,280 504,289C510,299 514,309 518,321C521,333 523,346 525,360C526,374 527,388 527,404ZM482,399C482,377 480,358 478,343C475,328 470,316 465,307C459,297 452,291 444,287C435,282 426,280 415,280C404,280 394,282 386,286C378,291 372,296 367,303C362,309 358,317 355,326C353,334 352,343 352,352C352,363 353,372 355,380C357,389 361,396 366,402C370,408 377,412 384,415C392,419 402,420 413,420C426,420 439,418 451,414C463,410 473,405 482,399Z" style="fill-rule:nonzero;"/>
        </g>
    </g>
</svg>
