<?xml version="1.0" encoding="UTF-8" standalone="no"?>
<!DOCTYPE svg PUBLIC "-//W3C//DTD SVG 1.1//EN" "http://www.w3.org/Graphics/SVG/1.1/DTD/svg11.dtd">
<svg width="100%" height="100%" viewBox="0 0 28 28" version="1.1" xmlns="http://www.w3.org/2000/svg" xmlns:xlink="http://www.w3.org/1999/xlink" xml:space="preserve" xmlns:serif="http://www.serif.com/" style="fill-rule:evenodd;clip-rule:evenodd;stroke-miterlimit:2;">
    <g transform="matrix(1.28397,0,0,1.28397,-1.28479,-1.31605)">
        <g id="surface1">
            <g id="CorelEMF" serif:id="CorelEMF">
                <g transform="matrix(0.0285574,0,0,0.0285714,0,0)">
                    <path d="M161,42L673,42C706,42 736,56 757,78C779,100 792,130 792,163L792,670C792,704 779,734 757,756C736,778 706,792 673,792L161,792C128,792 98,778 77,756C55,734 42,704 42,670L42,163C42,130 55,100 77,78C98,56 128,42 161,42ZM673,67L161,67C135,67 112,78 95,95C78,113 67,137 67,163L67,670C67,697 78,721 95,738C112,756 135,766 161,766L673,766C699,766 722,756 739,738C756,721 766,697 766,670L766,163C766,137 756,113 739,95C722,78 699,67 673,67Z" style="fill-rule:nonzero;stroke:black;stroke-width:8px;"/>
                </g>
                <g transform="matrix(0.0285574,0,0,0.0285714,0,0)">
                    <path d="M514,568C514,571 514,574 513,576C513,578 512,580 511,581C511,583 510,584 508,584C507,585 506,585 505,585L330,585C329,585 328,585 327,584C326,584 325,583 324,581C323,580 322,578 322,576C321,574 321,571 321,568C321,565 321,562 322,560C322,557 323,556 324,554C325,553 326,552 327,551C328,550 329,550 330,550L400,550L400,295L335,334C332,336 329,337 327,337C325,337 324,337 323,336C321,335 321,333 320,330L320,313C320,311 321,309 321,308C322,306 322,305 323,304C324,303 325,302 327,301L404,252C405,251 406,251 407,250C408,250 409,250 411,249L434,249C437,250 439,250 441,251C442,251 443,252 444,253L444,550L505,550C506,550 508,550 509,551C510,552 511,553 512,554C513,556 513,557 514,560L514,568Z" style="fill-rule:nonzero;"/>
                </g>
            </g>
        </g>
    </g>
</svg>
