<?xml version="1.0" encoding="UTF-8" standalone="no"?>
<svg
   width="28pt"
   height="28pt"
   viewBox="0 0 28 28"
   version="1.1"
   id="svg14"
   sodipodi:docname="b1.svg"
   inkscape:version="1.1 (c4e8f9e, 2021-05-24)"
   xmlns:inkscape="http://www.inkscape.org/namespaces/inkscape"
   xmlns:sodipodi="http://sodipodi.sourceforge.net/DTD/sodipodi-0.dtd"
   xmlns="http://www.w3.org/2000/svg"
   xmlns:svg="http://www.w3.org/2000/svg">
  <defs
     id="defs18" />
  <sodipodi:namedview
     id="namedview16"
     pagecolor="#ffffff"
     bordercolor="#666666"
     borderopacity="1.0"
     inkscape:pageshadow="2"
     inkscape:pageopacity="0.0"
     inkscape:pagecheckerboard="0"
     inkscape:document-units="pt"
     showgrid="false"
     inkscape:zoom="16"
     inkscape:cx="2.78125"
     inkscape:cy="24.84375"
     inkscape:window-width="1920"
     inkscape:window-height="1027"
     inkscape:window-x="0"
     inkscape:window-y="25"
     inkscape:window-maximized="0"
     inkscape:current-layer="svg14" />
  <rect
     style="opacity:1;fill:none;stroke:#000000;stroke-width:1.1728;stroke-linejoin:round;stroke-miterlimit:4;stroke-dasharray:none;stroke-opacity:1;paint-order:markers fill stroke"
     id="rect308"
     width="26.606733"
     height="26.606733"
     x="0.72813225"
     y="0.72813225"
     ry="4.3362432"
     rx="4.3362441" />
  <path
     style="fill:#000000;fill-opacity:1;fill-rule:nonzero;stroke:none"
     d="m 17.60937,19.300781 c 0,0.113281 0,0.222657 -0.03906,0.292969 0,0.07422 -0.03516,0.148438 -0.07031,0.183594 0,0.07422 -0.03906,0.113281 -0.109375,0.113281 -0.03906,0.03516 -0.07422,0.03516 -0.113281,0.03516 h -6.414063 c -0.03906,0 -0.07422,0 -0.109375,-0.03516 -0.03906,0 -0.07422,-0.03906 -0.113281,-0.113281 -0.03516,-0.03516 -0.07031,-0.109375 -0.07031,-0.183594 -0.03906,-0.07031 -0.03906,-0.179688 -0.03906,-0.292969 0,-0.109375 0,-0.21875 0.03906,-0.292969 0,-0.109374 0.03516,-0.144531 0.07031,-0.21875 0.03906,-0.03906 0.07422,-0.07422 0.113281,-0.109374 0.03516,-0.03906 0.07031,-0.03906 0.109375,-0.03906 h 2.566406 V 9.289062 L 11.04687,10.71875 c -0.113281,0.07422 -0.222656,0.109375 -0.292969,0.109375 -0.07422,0 -0.113281,0 -0.148437,-0.03516 -0.07422,-0.03906 -0.07422,-0.113281 -0.109375,-0.222657 V 9.949215 c 0,-0.07422 0.03516,-0.148438 0.03516,-0.183594 0.03906,-0.074219 0.03906,-0.113281 0.07422,-0.148437 0.03516,-0.035157 0.07422,-0.074219 0.148437,-0.109376 l 2.820313,-1.796874 c 0.03906,-0.039063 0.07422,-0.039063 0.109375,-0.074219 0.03906,0 0.07422,0 0.148437,-0.035157 h 0.84375 c 0.109375,0.035157 0.183594,0.035157 0.257813,0.070313 0.03516,0 0.07031,0.039063 0.109375,0.074219 v 10.894531 h 2.234375 c 0.03906,0 0.113281,0 0.148437,0.03906 0.03516,0.03516 0.07422,0.07031 0.109375,0.109374 0.03516,0.07422 0.03516,0.109376 0.07422,0.21875 z m 0,0"
     id="path1980" />
</svg>
