<?xml version="1.0" encoding="UTF-8" standalone="no"?>
<svg
   width="28pt"
   height="28pt"
   viewBox="0 0 28 28"
   version="1.1"
   id="svg14"
   sodipodi:docname="b3.svg"
   inkscape:version="1.1 (c4e8f9e, 2021-05-24)"
   xmlns:inkscape="http://www.inkscape.org/namespaces/inkscape"
   xmlns:sodipodi="http://sodipodi.sourceforge.net/DTD/sodipodi-0.dtd"
   xmlns="http://www.w3.org/2000/svg"
   xmlns:svg="http://www.w3.org/2000/svg">
  <defs
     id="defs18" />
  <sodipodi:namedview
     id="namedview16"
     pagecolor="#ffffff"
     bordercolor="#666666"
     borderopacity="1.0"
     inkscape:pageshadow="2"
     inkscape:pageopacity="0.0"
     inkscape:pagecheckerboard="0"
     inkscape:document-units="pt"
     showgrid="false"
     inkscape:zoom="16"
     inkscape:cx="13.65625"
     inkscape:cy="24.84375"
     inkscape:window-width="1920"
     inkscape:window-height="1027"
     inkscape:window-x="0"
     inkscape:window-y="25"
     inkscape:window-maximized="1"
     inkscape:current-layer="svg14" />
  <rect
     style="opacity:1;fill:none;stroke:#000000;stroke-width:1.1728;stroke-linejoin:round;stroke-miterlimit:4;stroke-dasharray:none;stroke-opacity:1;paint-order:markers fill stroke"
     id="rect308"
     width="26.606733"
     height="26.606733"
     x="0.72813225"
     y="0.72813225"
     ry="4.3362432"
     rx="4.3362441" />
  <path
     style="fill:#000000;fill-opacity:1;fill-rule:nonzero;stroke:none"
     d="m 17.960018,16.983537 c 0,0.585938 -0.109375,1.097656 -0.292969,1.539063 -0.183594,0.441406 -0.476562,0.84375 -0.84375,1.171875 -0.367187,0.296875 -0.804687,0.550781 -1.355468,0.734375 -0.550782,0.183593 -1.136719,0.257812 -1.832032,0.257812 -0.40625,0 -0.769531,-0.03516 -1.136718,-0.109375 -0.367188,-0.07422 -0.660157,-0.148437 -0.953126,-0.21875 -0.257812,-0.113281 -0.515624,-0.183594 -0.699218,-0.296875 -0.183594,-0.109375 -0.292969,-0.183593 -0.328125,-0.21875 -0.03906,-0.03516 -0.07422,-0.07422 -0.109375,-0.109375 -0.03906,-0.07422 -0.03906,-0.109375 -0.07422,-0.183594 0,-0.03516 -0.03906,-0.109374 -0.03906,-0.21875 0,-0.07422 -0.03516,-0.222656 -0.03516,-0.332031 0,-0.21875 0.03516,-0.402343 0.07422,-0.476562 0.07422,-0.07422 0.109375,-0.148438 0.21875,-0.148438 0.03906,0 0.148437,0.07422 0.332031,0.183594 0.183594,0.07422 0.402344,0.183594 0.660156,0.292969 0.253907,0.148437 0.585938,0.257812 0.953126,0.332031 0.367187,0.109375 0.769531,0.148437 1.207031,0.148437 0.40625,0 0.773437,-0.03906 1.101562,-0.148437 0.332031,-0.109375 0.625,-0.257813 0.84375,-0.441406 0.21875,-0.21875 0.367188,-0.4375 0.476563,-0.734375 0.109375,-0.253906 0.183594,-0.546875 0.183594,-0.84375 0,-0.363282 -0.07422,-0.660156 -0.21875,-0.953125 -0.148437,-0.292969 -0.367187,-0.511719 -0.624999,-0.734375 -0.257813,-0.179688 -0.585938,-0.363282 -0.988282,-0.4375 -0.40625,-0.109375 -0.84375,-0.183594 -1.359375,-0.183594 h -1.207031 c -0.03906,0 -0.113281,0 -0.148438,-0.03906 -0.03516,0 -0.07422,-0.03516 -0.109374,-0.109376 -0.03906,-0.03516 -0.07422,-0.109374 -0.109376,-0.183593 0,-0.07031 -0.03906,-0.183594 -0.03906,-0.328125 0,-0.109375 0.03906,-0.222656 0.03906,-0.292969 0.03516,-0.07422 0.03516,-0.148437 0.07031,-0.183594 0.03906,-0.03906 0.07422,-0.07422 0.148437,-0.109375 0.03516,-0.03906 0.07422,-0.03906 0.148438,-0.03906 h 1.0625 c 0.402344,0 0.769531,-0.03516 1.136719,-0.144532 0.328125,-0.113281 0.585937,-0.257812 0.84375,-0.480468 0.21875,-0.179688 0.402343,-0.4375 0.511719,-0.730469 0.109374,-0.257813 0.183593,-0.589844 0.183593,-0.917969 0,-0.257812 -0.03516,-0.515625 -0.109375,-0.734375 -0.07421,-0.218754 -0.222653,-0.44141 -0.367184,-0.625004 -0.183594,-0.144531 -0.402344,-0.292969 -0.660157,-0.402343 -0.21875,-0.07422 -0.550781,-0.144532 -0.878906,-0.144532 -0.367187,0 -0.699218,0.07031 -0.992187,0.179688 -0.328125,0.113281 -0.585938,0.222656 -0.804688,0.367187 -0.257812,0.113281 -0.441406,0.222657 -0.625,0.332031 -0.144531,0.144532 -0.257812,0.183594 -0.328125,0.183594 -0.03906,0 -0.07422,0 -0.109375,-0.03906 -0.03906,0 -0.07422,-0.03516 -0.07422,-0.07031 -0.03906,-0.03907 -0.03906,-0.10938 -0.07422,-0.222661 V 9.534319 c 0,-0.07422 0.03516,-0.109376 0.03516,-0.183594 0.03906,-0.03516 0.03906,-0.109375 0.07422,-0.144532 0.03906,-0.03906 0.07421,-0.07422 0.148432,-0.148437 0.03516,-0.07422 0.183594,-0.148437 0.367188,-0.257813 0.179687,-0.109374 0.402344,-0.21875 0.660156,-0.328124 0.253906,-0.109376 0.585938,-0.222657 0.914062,-0.292969 0.367188,-0.07422 0.734376,-0.113281 1.136719,-0.113281 0.585938,0 1.0625,0.07422 1.503907,0.222656 0.441406,0.144531 0.769531,0.328125 1.0625,0.621094 0.292968,0.257812 0.515624,0.550781 0.660156,0.957031 0.148437,0.367187 0.222656,0.769531 0.222656,1.210937 0,0.402344 -0.07422,0.730469 -0.148438,1.0625 -0.109374,0.328125 -0.257812,0.625 -0.476562,0.878906 -0.183594,0.257813 -0.441406,0.476563 -0.695312,0.660157 -0.296876,0.183593 -0.625,0.292969 -0.992188,0.367187 v 0.03906 c 0.402344,0.03516 0.808594,0.144531 1.136719,0.292969 0.367187,0.183593 0.660156,0.402343 0.917969,0.660156 0.257812,0.257812 0.4375,0.550781 0.585937,0.878906 0.148437,0.332031 0.21875,0.699219 0.21875,1.066406 z m 0,0"
     id="path1171" />
</svg>
