<?xml version="1.0" encoding="UTF-8"?>
<svg xmlns="http://www.w3.org/2000/svg" xmlns:xlink="http://www.w3.org/1999/xlink" width="28pt" height="28pt" viewBox="0 0 28 28" version="1.1">
<g id="surface1">
<path style="fill-rule:nonzero;fill:rgb(0%,0%,0%);fill-opacity:1;stroke-width:8;stroke-linecap:butt;stroke-linejoin:miter;stroke:rgb(0%,0%,0%);stroke-opacity:1;stroke-miterlimit:2;" d="M 161.014263 41.998706 L 673.014615 41.998706 C 706.040023 41.998706 735.975957 55.947766 756.963071 77.98941 C 779.015521 100.031054 792.012616 129.952319 792.012616 162.961544 L 792.012616 670.025836 C 792.012616 703.993394 779.015521 734.02114 756.963071 755.956303 C 735.975957 777.997947 706.040023 791.947007 673.014615 791.947007 L 161.014263 791.947007 C 127.988855 791.947007 98.052921 777.997947 76.959274 755.956303 C 55.013358 734.02114 42.016262 703.993394 42.016262 670.025836 L 42.016262 162.961544 C 42.016262 129.952319 55.013358 100.031054 76.959274 77.98941 C 98.052921 55.947766 127.988855 41.998706 161.014263 41.998706 Z M 673.014615 67.021829 L 161.014263 67.021829 C 135.020071 67.021829 112.008819 77.98941 94.963448 95.026429 C 78.024609 113.021781 67.051651 136.98009 67.051651 162.961544 L 67.051651 670.025836 C 67.051651 696.965623 78.024609 721.030413 94.963448 737.960951 C 112.008819 755.956303 135.020071 765.965552 161.014263 765.965552 L 673.014615 765.965552 C 699.008807 765.965552 722.020059 755.956303 738.958897 737.960951 C 756.004269 721.030413 766.018425 696.965623 766.018425 670.025836 L 766.018425 162.961544 C 766.018425 136.98009 756.004269 113.021781 738.958897 95.026429 C 722.020059 77.98941 699.008807 67.021829 673.014615 67.021829 Z M 673.014615 67.021829 " transform="matrix(0.0366668,0,0,0.0366848,-1.32576,-1.27509)"/>
<path style=" stroke:none;fill-rule:nonzero;fill:rgb(0%,0%,0%);fill-opacity:1;" d="M 17.703125 16.628906 C 17.703125 17.214844 17.59375 17.726562 17.410156 18.167969 C 17.226562 18.609375 16.933594 19.011719 16.566406 19.339844 C 16.199219 19.636719 15.761719 19.890625 15.210938 20.074219 C 14.660156 20.257812 14.074219 20.332031 13.378906 20.332031 C 12.972656 20.332031 12.609375 20.296875 12.242188 20.222656 C 11.875 20.148438 11.582031 20.074219 11.289062 20.003906 C 11.03125 19.890625 10.773438 19.820312 10.589844 19.707031 C 10.40625 19.597656 10.296875 19.523438 10.261719 19.488281 C 10.222656 19.453125 10.1875 19.414062 10.152344 19.378906 C 10.113281 19.304688 10.113281 19.269531 10.078125 19.195312 C 10.078125 19.160156 10.039062 19.085938 10.039062 18.976562 C 10.039062 18.902344 10.003906 18.753906 10.003906 18.644531 C 10.003906 18.425781 10.039062 18.242188 10.078125 18.167969 C 10.152344 18.09375 10.1875 18.019531 10.296875 18.019531 C 10.335938 18.019531 10.445312 18.09375 10.628906 18.203125 C 10.8125 18.277344 11.03125 18.386719 11.289062 18.496094 C 11.542969 18.644531 11.875 18.753906 12.242188 18.828125 C 12.609375 18.9375 13.011719 18.976562 13.449219 18.976562 C 13.855469 18.976562 14.222656 18.9375 14.550781 18.828125 C 14.882812 18.71875 15.175781 18.570312 15.394531 18.386719 C 15.613281 18.167969 15.761719 17.949219 15.871094 17.652344 C 15.980469 17.398438 16.054688 17.105469 16.054688 16.808594 C 16.054688 16.445312 15.980469 16.148438 15.835938 15.855469 C 15.6875 15.5625 15.46875 15.34375 15.210938 15.121094 C 14.953125 14.941406 14.625 14.757812 14.222656 14.683594 C 13.816406 14.574219 13.378906 14.5 12.863281 14.5 L 11.65625 14.5 C 11.617188 14.5 11.542969 14.5 11.507812 14.460938 C 11.472656 14.460938 11.433594 14.425781 11.398438 14.351562 C 11.359375 14.316406 11.324219 14.242188 11.289062 14.167969 C 11.289062 14.097656 11.25 13.984375 11.25 13.839844 C 11.25 13.730469 11.289062 13.617188 11.289062 13.546875 C 11.324219 13.472656 11.324219 13.398438 11.359375 13.363281 C 11.398438 13.324219 11.433594 13.289062 11.507812 13.253906 C 11.542969 13.214844 11.582031 13.214844 11.65625 13.214844 L 12.71875 13.214844 C 13.121094 13.214844 13.488281 13.179688 13.855469 13.070312 C 14.183594 12.957031 14.441406 12.8125 14.699219 12.589844 C 14.917969 12.410156 15.101562 12.152344 15.210938 11.859375 C 15.320312 11.601562 15.394531 11.269531 15.394531 10.941406 C 15.394531 10.683594 15.359375 10.425781 15.285156 10.207031 C 15.210938 9.988281 15.0625 9.765625 14.917969 9.582031 C 14.734375 9.4375 14.515625 9.289062 14.257812 9.179688 C 14.039062 9.105469 13.707031 9.035156 13.378906 9.035156 C 13.011719 9.035156 12.679688 9.105469 12.386719 9.214844 C 12.058594 9.328125 11.800781 9.4375 11.582031 9.582031 C 11.324219 9.695312 11.140625 9.804688 10.957031 9.914062 C 10.8125 10.058594 10.699219 10.097656 10.628906 10.097656 C 10.589844 10.097656 10.554688 10.097656 10.519531 10.058594 C 10.480469 10.058594 10.445312 10.023438 10.445312 9.988281 C 10.40625 9.949219 10.40625 9.878906 10.371094 9.765625 L 10.371094 9.179688 C 10.371094 9.105469 10.40625 9.070312 10.40625 8.996094 C 10.445312 8.960938 10.445312 8.886719 10.480469 8.851562 C 10.519531 8.8125 10.554688 8.777344 10.628906 8.703125 C 10.664062 8.628906 10.8125 8.554688 10.996094 8.445312 C 11.175781 8.335938 11.398438 8.226562 11.65625 8.117188 C 11.910156 8.007812 12.242188 7.894531 12.570312 7.824219 C 12.9375 7.75 13.304688 7.710938 13.707031 7.710938 C 14.292969 7.710938 14.769531 7.785156 15.210938 7.933594 C 15.652344 8.078125 15.980469 8.261719 16.273438 8.554688 C 16.566406 8.8125 16.789062 9.105469 16.933594 9.511719 C 17.082031 9.878906 17.15625 10.28125 17.15625 10.722656 C 17.15625 11.125 17.082031 11.453125 17.007812 11.785156 C 16.898438 12.113281 16.75 12.410156 16.53125 12.664062 C 16.347656 12.921875 16.089844 13.140625 15.835938 13.324219 C 15.539062 13.507812 15.210938 13.617188 14.84375 13.691406 L 14.84375 13.730469 C 15.246094 13.765625 15.652344 13.875 15.980469 14.023438 C 16.347656 14.207031 16.640625 14.425781 16.898438 14.683594 C 17.15625 14.941406 17.335938 15.234375 17.484375 15.5625 C 17.632812 15.894531 17.703125 16.261719 17.703125 16.628906 Z M 17.703125 16.628906 "/>
</g>
</svg>
