<?xml version="1.0" encoding="UTF-8"?>
<svg xmlns="http://www.w3.org/2000/svg" xmlns:xlink="http://www.w3.org/1999/xlink" width="28pt" height="28pt" viewBox="0 0 28 28" version="1.1">
<g id="surface1">
<path style="fill-rule:nonzero;fill:rgb(0%,0%,0%);fill-opacity:1;stroke-width:8;stroke-linecap:butt;stroke-linejoin:miter;stroke:rgb(0%,0%,0%);stroke-opacity:1;stroke-miterlimit:2;" d="M 161.014263 42.050431 L 673.014615 42.050431 C 706.040023 42.050431 735.975957 55.99949 756.963071 78.041134 C 779.015521 99.976297 792.012616 130.004044 792.012616 163.013269 L 792.012616 669.971079 C 792.012616 704.045118 779.015521 733.966383 756.963071 756.008027 C 735.975957 778.049671 706.040023 791.998731 673.014615 791.998731 L 161.014263 791.998731 C 127.988855 791.998731 98.052921 778.049671 76.959274 756.008027 C 55.013358 733.966383 42.016262 704.045118 42.016262 669.971079 L 42.016262 163.013269 C 42.016262 130.004044 55.013358 99.976297 76.959274 78.041134 C 98.052921 55.99949 127.988855 42.050431 161.014263 42.050431 Z M 673.014615 66.967072 L 161.014263 66.967072 C 135.020071 66.967072 112.008819 78.041134 94.963448 94.971672 C 78.024609 112.967024 67.051651 137.031814 67.051651 163.013269 L 67.051651 669.971079 C 67.051651 697.017348 78.024609 720.975656 94.963448 738.012676 C 112.008819 756.008027 135.020071 766.017276 161.014263 766.017276 L 673.014615 766.017276 C 699.008807 766.017276 722.020059 756.008027 738.958897 738.012676 C 756.004269 720.975656 766.018425 697.017348 766.018425 669.971079 L 766.018425 163.013269 C 766.018425 137.031814 756.004269 112.967024 738.958897 94.971672 C 722.020059 78.041134 699.008807 66.967072 673.014615 66.967072 Z M 673.014615 66.967072 " transform="matrix(0.0366668,0,0,0.0366848,-1.32576,-1.31605)"/>
<path style=" stroke:none;fill-rule:nonzero;fill:rgb(0%,0%,0%);fill-opacity:1;" d="M 18.328125 16.621094 C 18.328125 16.84375 18.289062 16.988281 18.253906 17.136719 C 18.179688 17.246094 18.070312 17.28125 17.960938 17.28125 L 16.605469 17.28125 L 16.605469 19.886719 C 16.605469 19.925781 16.566406 19.960938 16.566406 19.996094 C 16.53125 20.035156 16.496094 20.070312 16.421875 20.109375 C 16.347656 20.109375 16.273438 20.144531 16.164062 20.144531 C 16.054688 20.179688 15.90625 20.179688 15.761719 20.179688 C 15.613281 20.179688 15.46875 20.179688 15.359375 20.144531 C 15.285156 20.144531 15.175781 20.109375 15.136719 20.109375 C 15.0625 20.070312 15.027344 20.035156 14.992188 19.996094 C 14.992188 19.960938 14.953125 19.925781 14.953125 19.886719 L 14.953125 17.28125 L 9.746094 17.28125 C 9.710938 17.246094 9.675781 17.210938 9.601562 17.171875 C 9.5625 17.101562 9.5625 17.027344 9.527344 16.953125 C 9.527344 16.84375 9.492188 16.734375 9.492188 16.585938 C 9.492188 16.476562 9.527344 16.367188 9.527344 16.257812 C 9.527344 16.183594 9.527344 16.074219 9.5625 16 C 9.5625 15.925781 9.601562 15.851562 9.636719 15.777344 C 9.675781 15.707031 9.710938 15.632812 9.746094 15.558594 L 14.109375 8.074219 C 14.148438 8.039062 14.183594 8 14.257812 7.964844 C 14.332031 7.890625 14.40625 7.890625 14.476562 7.855469 C 14.585938 7.820312 14.699219 7.820312 14.84375 7.78125 L 15.359375 7.78125 C 15.578125 7.78125 15.761719 7.78125 15.90625 7.820312 C 16.054688 7.820312 16.199219 7.855469 16.273438 7.855469 C 16.382812 7.890625 16.457031 7.929688 16.496094 7.964844 C 16.566406 8 16.605469 8.074219 16.605469 8.113281 L 16.605469 15.960938 L 17.960938 15.960938 C 18.070312 15.960938 18.179688 16 18.21875 16.109375 C 18.289062 16.21875 18.328125 16.402344 18.328125 16.621094 Z M 14.953125 9.210938 L 10.996094 15.960938 L 14.953125 15.960938 Z M 14.953125 9.210938 "/>
</g>
</svg>
