<?xml version="1.0" encoding="UTF-8" standalone="no"?>
<!DOCTYPE svg PUBLIC "-//W3C//DTD SVG 1.1//EN" "http://www.w3.org/Graphics/SVG/1.1/DTD/svg11.dtd">
<svg width="100%" height="100%" viewBox="0 0 28 28" version="1.1" xmlns="http://www.w3.org/2000/svg" xmlns:xlink="http://www.w3.org/1999/xlink" xml:space="preserve" xmlns:serif="http://www.serif.com/" style="fill-rule:evenodd;clip-rule:evenodd;stroke-miterlimit:2;">
    <g transform="matrix(1.28397,0,0,1.28397,-1.2848,-1.31605)">
        <g id="surface1">
            <g id="CorelEMF" serif:id="CorelEMF">
                <g transform="matrix(0.0285574,0,0,0.0285714,0,0)">
                    <path d="M161,42L673,42C706,42 736,56 757,78C779,100 792,130 792,163L792,670C792,704 779,734 757,756C736,778 706,792 673,792L161,792C128,792 98,778 77,756C55,734 42,704 42,670L42,163C42,130 55,100 77,78C98,56 128,42 161,42ZM673,67L161,67C135,67 112,78 95,95C78,113 67,137 67,163L67,670C67,697 78,721 95,738C112,756 135,766 161,766L673,766C699,766 722,756 739,738C756,721 766,697 766,670L766,163C766,137 756,113 739,95C722,78 699,67 673,67Z" style="fill-rule:nonzero;stroke:black;stroke-width:8px;"/>
                </g>
                <g transform="matrix(0.0285574,0,0,0.0285714,0,0)">
                    <path d="M520,474C520,492 517,507 510,521C504,535 496,547 485,557C474,566 461,573 445,578C430,584 413,586 395,586C384,586 375,585 365,584C356,582 348,581 340,578C333,576 327,574 323,572C318,570 315,568 314,567C312,566 312,565 311,564C310,563 310,562 310,560C309,559 309,557 309,555C309,552 308,550 308,547C308,544 309,541 309,539C309,536 310,535 310,533C311,532 312,531 313,530C314,529 315,529 316,529C318,529 320,530 324,532C328,534 332,537 339,539C345,542 352,544 361,546C370,548 381,549 393,549C405,549 416,548 425,545C435,543 443,538 450,532C457,527 463,519 467,510C471,501 472,491 472,478C472,467 471,458 467,450C464,441 459,435 452,429C445,424 436,420 425,417C415,414 402,413 387,413C377,413 368,413 360,415C352,416 345,416 339,416C334,416 331,415 328,413C326,410 325,406 325,400L325,264C325,258 327,254 329,251C332,248 336,247 341,247L489,247C490,247 492,247 493,248C494,249 495,250 496,251C497,253 498,255 498,257C499,260 499,263 499,266C499,272 498,277 496,280C495,284 492,285 489,285L370,285L370,379C376,378 382,378 388,378C394,378 401,377 409,377C427,377 443,380 457,384C471,389 482,395 492,404C501,412 508,422 512,434C517,446 520,459 520,474Z" style="fill-rule:nonzero;"/>
                </g>
            </g>
        </g>
    </g>
</svg>
