<?xml version="1.0" encoding="UTF-8" standalone="no"?>
<svg
   width="28pt"
   height="28pt"
   viewBox="0 0 28 28"
   version="1.1"
   id="svg14"
   sodipodi:docname="b5.svg"
   inkscape:version="1.1 (c4e8f9e, 2021-05-24)"
   xmlns:inkscape="http://www.inkscape.org/namespaces/inkscape"
   xmlns:sodipodi="http://sodipodi.sourceforge.net/DTD/sodipodi-0.dtd"
   xmlns="http://www.w3.org/2000/svg"
   xmlns:svg="http://www.w3.org/2000/svg">
  <defs
     id="defs18" />
  <sodipodi:namedview
     id="namedview16"
     pagecolor="#ffffff"
     bordercolor="#666666"
     borderopacity="1.0"
     inkscape:pageshadow="2"
     inkscape:pageopacity="0.0"
     inkscape:pagecheckerboard="0"
     inkscape:document-units="pt"
     showgrid="false"
     inkscape:zoom="16"
     inkscape:cx="13.65625"
     inkscape:cy="24.84375"
     inkscape:window-width="1920"
     inkscape:window-height="1027"
     inkscape:window-x="0"
     inkscape:window-y="25"
     inkscape:window-maximized="1"
     inkscape:current-layer="svg14" />
  <rect
     style="opacity:1;fill:none;stroke:#000000;stroke-width:1.1728;stroke-linejoin:round;stroke-miterlimit:4;stroke-dasharray:none;stroke-opacity:1;paint-order:markers fill stroke"
     id="rect308"
     width="26.606733"
     height="26.606733"
     x="0.72813225"
     y="0.72813225"
     ry="4.3362432"
     rx="4.3362441" />
  <path
     style="fill:#000000;fill-opacity:1;fill-rule:nonzero;stroke:none"
     d="m 17.363727,16.474899 c 0,0.660156 -0.109375,1.207031 -0.367188,1.722656 -0.21875,0.511719 -0.511718,0.953125 -0.914062,1.320313 -0.40625,0.332031 -0.882812,0.585937 -1.46875,0.769531 -0.550781,0.222656 -1.171875,0.292969 -1.832031,0.292969 -0.402344,0 -0.734375,-0.03516 -1.101563,-0.07031 -0.328125,-0.07422 -0.621094,-0.113281 -0.914062,-0.222656 -0.257813,-0.07422 -0.476563,-0.144531 -0.625,-0.21875 -0.183594,-0.07422 -0.292969,-0.148438 -0.328125,-0.183594 -0.07422,-0.03516 -0.07422,-0.07422 -0.113281,-0.109375 -0.03516,-0.03906 -0.03516,-0.07422 -0.03516,-0.148438 -0.03516,-0.03516 -0.03516,-0.109374 -0.03516,-0.183593 0,-0.109375 -0.03906,-0.183594 -0.03906,-0.292969 0,-0.109375 0.03906,-0.21875 0.03906,-0.292969 0,-0.109375 0.03516,-0.148437 0.03516,-0.21875 0.03516,-0.03906 0.07422,-0.07422 0.109375,-0.113281 0.03906,-0.03516 0.07422,-0.03516 0.109375,-0.03516 0.07422,0 0.148438,0.03516 0.292969,0.109375 0.148438,0.07422 0.292969,0.183593 0.550781,0.257812 0.222657,0.109375 0.476563,0.183594 0.808594,0.257813 0.328125,0.07422 0.730469,0.109375 1.171875,0.109375 0.441406,0 0.84375,-0.03516 1.171875,-0.148438 0.367187,-0.07031 0.660156,-0.253906 0.917969,-0.476562 0.257812,-0.183594 0.476562,-0.476563 0.625,-0.804688 0.144531,-0.332031 0.183594,-0.699219 0.183594,-1.175781 0,-0.402344 -0.03906,-0.734375 -0.183594,-1.027344 -0.109375,-0.328125 -0.292969,-0.550781 -0.550782,-0.769531 -0.257812,-0.183594 -0.585937,-0.332031 -0.992187,-0.441406 -0.363281,-0.109375 -0.839844,-0.144531 -1.390625,-0.144531 -0.367188,0 -0.699219,0 -0.992188,0.07031 -0.292968,0.03906 -0.546874,0.03906 -0.769531,0.03906 -0.183593,0 -0.292969,-0.03906 -0.402343,-0.109374 C 10.250442,14.127237 10.215286,13.9788 10.215286,13.76005 V 8.767868 c 0,-0.21875 0.07422,-0.367188 0.144532,-0.476563 0.109375,-0.109375 0.257812,-0.144531 0.441406,-0.144531 h 5.425781 c 0.03906,0 0.109375,0 0.148438,0.03516 0.03516,0.03906 0.07422,0.07422 0.109375,0.109375 0.03516,0.07422 0.07422,0.148437 0.07422,0.222656 0.03516,0.109375 0.03516,0.21875 0.03516,0.328125 0,0.222656 -0.03516,0.402344 -0.109375,0.515625 -0.03516,0.144531 -0.148438,0.183594 -0.257813,0.183594 h -4.363283 v 3.445313 c 0.21875,-0.03516 0.441406,-0.03516 0.660156,-0.03516 0.21875,0 0.476563,-0.03516 0.769532,-0.03516 0.660156,0 1.246093,0.109375 1.761718,0.253906 0.511719,0.183594 0.914063,0.40625 1.28125,0.734375 0.332032,0.292969 0.589844,0.660156 0.734375,1.101563 0.183594,0.441406 0.292969,0.917969 0.292969,1.46875 z m 0,0"
     id="path1689" />
</svg>
