<?xml version="1.0" encoding="UTF-8"?>
<svg xmlns="http://www.w3.org/2000/svg" xmlns:xlink="http://www.w3.org/1999/xlink" width="28pt" height="28pt" viewBox="0 0 28 28" version="1.1">
<g id="surface1">
<path style="fill-rule:nonzero;fill:rgb(0%,0%,0%);fill-opacity:1;stroke-width:8;stroke-linecap:butt;stroke-linejoin:miter;stroke:rgb(0%,0%,0%);stroke-opacity:1;stroke-miterlimit:2;" d="M 161.014263 41.998706 L 673.014615 41.998706 C 706.040023 41.998706 735.975957 55.947766 756.963071 77.98941 C 779.015521 100.031054 792.012616 129.952319 792.012616 162.961544 L 792.012616 670.025836 C 792.012616 703.993394 779.015521 734.02114 756.963071 755.956303 C 735.975957 777.997947 706.040023 791.947007 673.014615 791.947007 L 161.014263 791.947007 C 127.988855 791.947007 98.052921 777.997947 76.959274 755.956303 C 55.013358 734.02114 42.016262 703.993394 42.016262 670.025836 L 42.016262 162.961544 C 42.016262 129.952319 55.013358 100.031054 76.959274 77.98941 C 98.052921 55.947766 127.988855 41.998706 161.014263 41.998706 Z M 673.014615 67.021829 L 161.014263 67.021829 C 135.020071 67.021829 112.008819 77.98941 94.963448 95.026429 C 78.024609 113.021781 67.051651 136.98009 67.051651 162.961544 L 67.051651 670.025836 C 67.051651 696.965623 78.024609 721.030413 94.963448 737.960951 C 112.008819 755.956303 135.020071 765.965552 161.014263 765.965552 L 673.014615 765.965552 C 699.008807 765.965552 722.020059 755.956303 738.958897 737.960951 C 756.004269 721.030413 766.018425 696.965623 766.018425 670.025836 L 766.018425 162.961544 C 766.018425 136.98009 756.004269 113.021781 738.958897 95.026429 C 722.020059 77.98941 699.008807 67.021829 673.014615 67.021829 Z M 673.014615 67.021829 " transform="matrix(0.0366668,0,0,0.0366848,-1.32576,-1.27509)"/>
<path style=" stroke:none;fill-rule:nonzero;fill:rgb(0%,0%,0%);fill-opacity:1;" d="M 17.960938 8.554688 L 17.960938 8.886719 C 17.925781 8.960938 17.925781 9.035156 17.925781 9.144531 C 17.886719 9.214844 17.851562 9.289062 17.851562 9.398438 C 17.8125 9.472656 17.777344 9.546875 17.742188 9.621094 L 13.339844 19.820312 C 13.304688 19.890625 13.269531 19.964844 13.195312 20.003906 C 13.15625 20.039062 13.085938 20.074219 13.011719 20.113281 C 12.9375 20.148438 12.863281 20.148438 12.753906 20.183594 L 12.3125 20.183594 C 12.132812 20.183594 11.949219 20.183594 11.835938 20.148438 C 11.726562 20.148438 11.617188 20.113281 11.582031 20.074219 C 11.507812 20.039062 11.507812 19.964844 11.507812 19.929688 C 11.507812 19.855469 11.542969 19.78125 11.582031 19.707031 L 16.199219 9.289062 L 10.335938 9.289062 C 10.1875 9.289062 10.113281 9.214844 10.039062 9.105469 C 10.003906 8.960938 9.96875 8.8125 9.96875 8.554688 C 9.96875 8.445312 9.96875 8.335938 10.003906 8.261719 C 10.003906 8.152344 10.039062 8.078125 10.039062 8.042969 C 10.078125 7.96875 10.113281 7.933594 10.1875 7.894531 C 10.222656 7.859375 10.261719 7.859375 10.335938 7.859375 L 17.484375 7.859375 C 17.558594 7.859375 17.632812 7.859375 17.703125 7.894531 C 17.777344 7.894531 17.8125 7.933594 17.851562 8.007812 C 17.886719 8.042969 17.925781 8.117188 17.925781 8.226562 C 17.960938 8.300781 17.960938 8.410156 17.960938 8.554688 Z M 17.960938 8.554688 "/>
</g>
</svg>
