<?xml version="1.0" encoding="UTF-8"?>
<svg xmlns="http://www.w3.org/2000/svg" xmlns:xlink="http://www.w3.org/1999/xlink" width="28pt" height="28pt" viewBox="0 0 28 28" version="1.1">
<g id="surface1">
<path style=" stroke:none;fill-rule:nonzero;fill:rgb(0%,0%,0%);fill-opacity:1;" d="M 21.238281 3.785156 L 21.238281 4.398438 C 21.167969 4.535156 21.167969 4.742188 21.167969 4.878906 C 21.101562 5.015625 21.101562 5.222656 21.03125 5.359375 C 20.964844 5.496094 20.894531 5.632812 20.828125 5.835938 L 12.617188 24.796875 C 12.546875 24.933594 12.480469 25.070312 12.410156 25.140625 C 12.273438 25.210938 12.207031 25.277344 12.070312 25.347656 C 11.933594 25.414062 11.726562 25.414062 11.523438 25.484375 L 10.769531 25.484375 C 10.359375 25.484375 10.015625 25.484375 9.8125 25.414062 C 9.605469 25.414062 9.402344 25.347656 9.332031 25.277344 C 9.195312 25.210938 9.195312 25.070312 9.195312 25.003906 C 9.195312 24.867188 9.265625 24.730469 9.332031 24.59375 L 17.953125 5.152344 L 7.007812 5.152344 C 6.800781 5.152344 6.597656 5.015625 6.527344 4.808594 C 6.390625 4.605469 6.324219 4.261719 6.324219 3.785156 C 6.324219 3.578125 6.324219 3.371094 6.390625 3.234375 C 6.390625 3.097656 6.460938 2.960938 6.527344 2.824219 C 6.597656 2.6875 6.664062 2.621094 6.734375 2.550781 C 6.800781 2.484375 6.871094 2.484375 7.007812 2.484375 L 20.347656 2.484375 C 20.484375 2.484375 20.621094 2.484375 20.757812 2.550781 C 20.894531 2.550781 20.964844 2.621094 21.03125 2.757812 C 21.101562 2.894531 21.167969 2.960938 21.167969 3.167969 C 21.238281 3.304688 21.238281 3.507812 21.238281 3.785156 Z M 21.238281 3.785156 "/>
</g>
</svg>
