<?xml version="1.0" encoding="UTF-8"?>
<svg xmlns="http://www.w3.org/2000/svg" xmlns:xlink="http://www.w3.org/1999/xlink" width="28pt" height="28pt" viewBox="0 0 28 28" version="1.1">
<g id="surface1">
<path style=" stroke:none;fill-rule:nonzero;fill:rgb(0%,0%,0%);fill-opacity:1;" d="M 26.078125 4.9375 L 1.921875 4.9375 C 0.863281 4.9375 0 5.796875 0 6.855469 L 0 13.894531 C 0 15.65625 1.433594 17.089844 3.191406 17.089844 L 24.808594 17.089844 C 26.566406 17.089844 28 15.65625 28 13.894531 L 28 6.855469 C 28 5.796875 27.140625 4.9375 26.078125 4.9375 Z M 4.164062 6.476562 L 23.835938 6.476562 L 23.835938 8.292969 C 23.835938 9.003906 23.257812 9.585938 22.542969 9.585938 L 5.457031 9.585938 C 4.742188 9.585938 4.164062 9.003906 4.164062 8.292969 Z M 26.460938 13.894531 C 26.460938 14.804688 25.71875 15.546875 24.808594 15.546875 L 3.191406 15.546875 C 2.28125 15.546875 1.539062 14.804688 1.539062 13.894531 L 1.539062 6.855469 C 1.539062 6.648438 1.710938 6.476562 1.921875 6.476562 L 2.621094 6.476562 L 2.621094 8.292969 C 2.621094 9.855469 3.894531 11.125 5.457031 11.125 L 22.542969 11.125 C 24.105469 11.125 25.378906 9.855469 25.378906 8.292969 L 25.378906 6.476562 L 26.078125 6.476562 C 26.289062 6.476562 26.457031 6.648438 26.457031 6.855469 L 26.457031 13.894531 Z M 26.460938 13.894531 "/>
<path style=" stroke:none;fill-rule:nonzero;fill:rgb(0%,0%,0%);fill-opacity:1;" d="M 24.609375 13.125 L 3.390625 13.125 C 2.96875 13.125 2.621094 13.46875 2.621094 13.894531 C 2.621094 14.320312 2.96875 14.664062 3.390625 14.664062 L 24.609375 14.664062 C 25.03125 14.664062 25.378906 14.320312 25.378906 13.894531 C 25.378906 13.46875 25.03125 13.125 24.609375 13.125 Z M 24.609375 13.125 "/>
<path style=" stroke:none;fill-rule:nonzero;fill:rgb(0%,0%,0%);fill-opacity:1;" d="M 9.265625 19.519531 C 9.238281 19.503906 9.214844 19.492188 9.195312 19.476562 C 9.554688 19.320312 9.746094 18.910156 9.621094 18.53125 C 9.488281 18.125 9.050781 17.90625 8.648438 18.039062 C 8.457031 18.101562 7.496094 18.460938 7.414062 19.316406 C 7.355469 19.902344 7.726562 20.421875 8.511719 20.863281 C 8.765625 21.007812 8.824219 21.113281 8.828125 21.132812 C 8.835938 21.238281 8.625 21.519531 8.425781 21.675781 C 8.085938 21.933594 8.015625 22.417969 8.273438 22.757812 C 8.425781 22.957031 8.65625 23.0625 8.890625 23.0625 C 9.050781 23.0625 9.214844 23.011719 9.351562 22.90625 C 9.464844 22.824219 10.433594 22.058594 10.363281 21.027344 C 10.335938 20.605469 10.121094 20 9.265625 19.519531 Z M 9.265625 19.519531 "/>
<path style=" stroke:none;fill-rule:nonzero;fill:rgb(0%,0%,0%);fill-opacity:1;" d="M 14.378906 19.519531 C 14.351562 19.503906 14.328125 19.492188 14.304688 19.476562 C 14.667969 19.320312 14.859375 18.910156 14.730469 18.53125 C 14.597656 18.125 14.164062 17.90625 13.757812 18.039062 C 13.566406 18.101562 12.609375 18.460938 12.527344 19.316406 C 12.46875 19.902344 12.835938 20.421875 13.621094 20.863281 C 13.875 21.007812 13.9375 21.113281 13.9375 21.132812 C 13.945312 21.238281 13.738281 21.519531 13.535156 21.675781 C 13.195312 21.933594 13.128906 22.417969 13.386719 22.757812 C 13.535156 22.957031 13.765625 23.0625 14 23.0625 C 14.164062 23.0625 14.324219 23.011719 14.464844 22.90625 C 14.574219 22.824219 15.546875 22.058594 15.476562 21.027344 C 15.449219 20.605469 15.234375 20 14.378906 19.519531 Z M 14.378906 19.519531 "/>
<path style=" stroke:none;fill-rule:nonzero;fill:rgb(0%,0%,0%);fill-opacity:1;" d="M 19.488281 19.519531 C 19.464844 19.503906 19.4375 19.492188 19.417969 19.476562 C 19.78125 19.320312 19.96875 18.910156 19.84375 18.53125 C 19.710938 18.125 19.273438 17.90625 18.871094 18.039062 C 18.679688 18.101562 17.71875 18.460938 17.636719 19.316406 C 17.582031 19.902344 17.949219 20.421875 18.734375 20.863281 C 18.988281 21.007812 19.050781 21.113281 19.050781 21.132812 C 19.058594 21.238281 18.847656 21.519531 18.648438 21.675781 C 18.308594 21.933594 18.242188 22.417969 18.496094 22.757812 C 18.648438 22.957031 18.878906 23.0625 19.113281 23.0625 C 19.273438 23.0625 19.4375 23.011719 19.574219 22.90625 C 19.6875 22.824219 20.65625 22.058594 20.585938 21.027344 C 20.558594 20.605469 20.34375 20 19.488281 19.519531 Z M 19.488281 19.519531 "/>
</g>
</svg>
