<?xml version="1.0" encoding="UTF-8"?>
<svg xmlns="http://www.w3.org/2000/svg" xmlns:xlink="http://www.w3.org/1999/xlink" width="28pt" height="28pt" viewBox="0 0 28 28" version="1.1">
<g id="surface1">
<path style=" stroke:none;fill-rule:nonzero;fill:rgb(0%,0%,0%);fill-opacity:1;" d="M 24.371094 0 L 3.628906 0 C 3.46875 0 3.339844 0.128906 3.339844 0.289062 L 3.339844 21.027344 C 3.339844 21.1875 3.46875 21.316406 3.628906 21.316406 L 5.257812 21.316406 L 5.257812 24.578125 C 5.257812 26.019531 6.433594 27.195312 7.878906 27.195312 L 8.410156 27.195312 C 8.554688 27.664062 8.992188 28 9.507812 28 L 18.492188 28 C 19.007812 28 19.445312 27.664062 19.589844 27.195312 L 20.121094 27.195312 C 21.566406 27.195312 22.742188 26.019531 22.742188 24.578125 L 22.742188 21.316406 L 24.371094 21.316406 C 24.53125 21.316406 24.660156 21.1875 24.660156 21.027344 L 24.660156 0.289062 C 24.660156 0.128906 24.53125 0 24.371094 0 Z M 8.714844 24.398438 C 8.574219 24.53125 8.464844 24.699219 8.40625 24.890625 L 7.878906 24.890625 C 7.707031 24.890625 7.5625 24.75 7.5625 24.578125 L 7.5625 21.316406 L 8.714844 21.316406 Z M 16.980469 24.082031 L 11.019531 24.082031 L 11.019531 21.316406 L 16.980469 21.316406 Z M 20.4375 24.578125 C 20.4375 24.75 20.292969 24.890625 20.121094 24.890625 L 19.59375 24.890625 C 19.535156 24.699219 19.425781 24.53125 19.285156 24.398438 L 19.285156 21.316406 L 20.4375 21.316406 Z M 14 19.53125 C 9.101562 19.53125 5.128906 15.558594 5.128906 10.660156 C 5.128906 5.757812 9.101562 1.785156 14 1.785156 C 18.898438 1.785156 22.871094 5.757812 22.871094 10.660156 C 22.871094 15.558594 18.898438 19.53125 14 19.53125 Z M 19.300781 10.816406 C 19.542969 10.683594 19.785156 10.554688 20.023438 10.425781 C 20.261719 10.292969 20.496094 10.160156 20.71875 10.03125 C 20.945312 9.902344 21.164062 9.777344 21.371094 9.648438 C 21.386719 9.640625 21.402344 9.628906 21.417969 9.617188 C 21.15625 7.738281 20.199219 6.082031 18.808594 4.917969 C 18.789062 4.945312 18.769531 4.972656 18.75 5 C 18.664062 5.117188 18.566406 5.25 18.460938 5.398438 C 18.347656 5.542969 18.226562 5.699219 18.097656 5.867188 C 17.96875 6.039062 17.824219 6.210938 17.675781 6.394531 C 17.527344 6.574219 17.375 6.761719 17.21875 6.953125 C 17.054688 7.140625 16.890625 7.332031 16.722656 7.523438 C 16.722656 7.523438 16.722656 7.523438 16.71875 7.527344 C 16.730469 7.339844 16.742188 7.152344 16.753906 6.960938 C 16.773438 6.691406 16.777344 6.417969 16.785156 6.144531 C 16.796875 5.871094 16.804688 5.597656 16.8125 5.324219 C 16.8125 5.054688 16.816406 4.785156 16.816406 4.527344 C 16.816406 4.265625 16.820312 4.011719 16.808594 3.769531 C 16.808594 3.75 16.808594 3.734375 16.808594 3.714844 C 15.941406 3.363281 14.992188 3.167969 14 3.167969 C 13.097656 3.167969 12.234375 3.328125 11.433594 3.621094 C 11.445312 3.652344 11.460938 3.683594 11.476562 3.714844 C 11.535156 3.847656 11.601562 4 11.675781 4.164062 C 11.746094 4.335938 11.820312 4.519531 11.902344 4.714844 C 11.984375 4.910156 12.0625 5.121094 12.144531 5.339844 C 12.226562 5.5625 12.3125 5.789062 12.402344 6.019531 C 12.480469 6.253906 12.5625 6.496094 12.644531 6.734375 C 12.644531 6.734375 12.648438 6.734375 12.648438 6.738281 C 12.492188 6.632812 12.335938 6.53125 12.175781 6.425781 C 11.953125 6.277344 11.71875 6.132812 11.484375 5.988281 C 11.25 5.84375 11.015625 5.699219 10.789062 5.558594 C 10.550781 5.417969 10.320312 5.285156 10.097656 5.152344 C 9.871094 5.023438 9.652344 4.894531 9.441406 4.78125 C 9.421875 4.773438 9.410156 4.765625 9.390625 4.753906 C 7.960938 5.875 6.949219 7.5 6.625 9.363281 C 6.65625 9.367188 6.691406 9.371094 6.722656 9.375 C 6.867188 9.390625 7.035156 9.40625 7.214844 9.425781 C 7.398438 9.449219 7.59375 9.476562 7.804688 9.507812 C 8.015625 9.53125 8.234375 9.570312 8.46875 9.609375 C 8.699219 9.644531 8.941406 9.683594 9.183594 9.726562 C 9.425781 9.773438 9.675781 9.820312 9.921875 9.871094 C 9.925781 9.871094 9.925781 9.871094 9.925781 9.871094 C 9.761719 9.953125 9.59375 10.035156 9.421875 10.121094 C 9.179688 10.242188 8.941406 10.375 8.699219 10.503906 C 8.457031 10.632812 8.214844 10.761719 7.976562 10.890625 C 7.738281 11.023438 7.507812 11.15625 7.28125 11.285156 C 7.054688 11.414062 6.835938 11.539062 6.628906 11.667969 C 6.613281 11.679688 6.597656 11.6875 6.582031 11.699219 C 6.84375 13.578125 7.800781 15.234375 9.191406 16.398438 C 9.210938 16.375 9.230469 16.34375 9.25 16.316406 C 9.335938 16.199219 9.433594 16.066406 9.539062 15.921875 C 9.652344 15.773438 9.773438 15.617188 9.902344 15.449219 C 10.03125 15.28125 10.175781 15.105469 10.324219 14.925781 C 10.472656 14.742188 10.625 14.554688 10.785156 14.363281 C 10.945312 14.175781 11.113281 13.984375 11.277344 13.792969 C 11.277344 13.792969 11.277344 13.792969 11.28125 13.792969 C 11.269531 13.976562 11.257812 14.164062 11.246094 14.355469 C 11.230469 14.625 11.226562 14.898438 11.214844 15.171875 C 11.207031 15.445312 11.195312 15.722656 11.1875 15.992188 C 11.1875 16.265625 11.1875 16.53125 11.183594 16.792969 C 11.183594 17.050781 11.179688 17.304688 11.191406 17.546875 C 11.191406 17.566406 11.191406 17.582031 11.191406 17.601562 C 12.058594 17.953125 13.007812 18.148438 14 18.148438 C 14.902344 18.148438 15.765625 17.988281 16.566406 17.695312 C 16.554688 17.667969 16.539062 17.632812 16.527344 17.601562 C 16.464844 17.46875 16.398438 17.316406 16.324219 17.152344 C 16.257812 16.980469 16.179688 16.796875 16.101562 16.601562 C 16.015625 16.40625 15.9375 16.195312 15.855469 15.976562 C 15.773438 15.753906 15.6875 15.527344 15.601562 15.296875 C 15.519531 15.0625 15.4375 14.824219 15.355469 14.582031 C 15.355469 14.582031 15.355469 14.582031 15.351562 14.582031 C 15.507812 14.683594 15.664062 14.789062 15.824219 14.894531 C 16.046875 15.042969 16.285156 15.183594 16.515625 15.328125 C 16.75 15.472656 16.984375 15.617188 17.210938 15.761719 C 17.449219 15.898438 17.679688 16.03125 17.90625 16.164062 C 18.128906 16.292969 18.347656 16.421875 18.558594 16.535156 C 18.578125 16.546875 18.59375 16.554688 18.609375 16.5625 C 20.039062 15.441406 21.050781 13.816406 21.375 11.953125 C 21.34375 11.949219 21.308594 11.945312 21.277344 11.945312 C 21.132812 11.925781 20.96875 11.910156 20.789062 11.890625 C 20.605469 11.867188 20.40625 11.839844 20.195312 11.8125 C 19.988281 11.785156 19.761719 11.75 19.53125 11.710938 C 19.300781 11.671875 19.058594 11.632812 18.816406 11.59375 C 18.574219 11.542969 18.324219 11.496094 18.078125 11.449219 C 18.074219 11.449219 18.074219 11.449219 18.074219 11.449219 C 18.238281 11.363281 18.40625 11.28125 18.578125 11.195312 C 18.820312 11.074219 19.058594 10.941406 19.300781 10.816406 Z M 14 12.617188 C 12.917969 12.617188 12.042969 11.742188 12.042969 10.660156 C 12.042969 9.578125 12.917969 8.699219 14 8.699219 C 15.082031 8.699219 15.957031 9.578125 15.957031 10.660156 C 15.957031 11.742188 15.082031 12.617188 14 12.617188 Z M 14 12.617188 "/>
</g>
</svg>
