<?xml version="1.0" encoding="UTF-8"?>
<svg xmlns="http://www.w3.org/2000/svg" xmlns:xlink="http://www.w3.org/1999/xlink" width="28pt" height="28pt" viewBox="0 0 28 28" version="1.1">
<g id="surface1">
<path style=" stroke:none;fill-rule:nonzero;fill:rgb(0%,0%,0%);fill-opacity:1;" d="M 11.496094 22.507812 C 11.046875 17.882812 11.082031 18.140625 11.0625 18.066406 C 11.003906 17.882812 10.828125 17.757812 10.628906 17.777344 C 10.402344 17.796875 10.238281 18 10.257812 18.222656 L 10.679688 22.585938 C 10.699219 22.796875 10.878906 22.957031 11.085938 22.957031 C 11.335938 22.957031 11.519531 22.742188 11.496094 22.507812 Z M 11.496094 22.507812 "/>
<path style=" stroke:none;fill-rule:nonzero;fill:rgb(0%,0%,0%);fill-opacity:1;" d="M 11.75 25.160156 L 11.652344 24.140625 C 11.632812 23.914062 11.429688 23.75 11.207031 23.773438 C 10.980469 23.792969 10.8125 23.996094 10.835938 24.21875 L 10.933594 25.238281 C 10.957031 25.476562 11.175781 25.632812 11.382812 25.609375 C 11.609375 25.585938 11.773438 25.386719 11.75 25.160156 Z M 11.75 25.160156 "/>
<path style=" stroke:none;fill-rule:nonzero;fill:rgb(0%,0%,0%);fill-opacity:1;" d="M 9.058594 25.121094 C 7.996094 19.734375 7.671875 18.097656 7.664062 18.066406 C 7.546875 17.675781 6.992188 17.679688 6.878906 18.066406 C 6.820312 18.25 6.808594 17.875 8.253906 25.277344 C 8.296875 25.503906 8.519531 25.644531 8.738281 25.601562 C 8.960938 25.558594 9.105469 25.34375 9.058594 25.121094 Z M 9.058594 25.121094 "/>
<path style=" stroke:none;fill-rule:nonzero;fill:rgb(0%,0%,0%);fill-opacity:1;" d="M 17.050781 21.136719 C 16.824219 21.117188 16.621094 21.28125 16.601562 21.507812 L 16.25 25.160156 C 16.226562 25.386719 16.394531 25.585938 16.617188 25.609375 C 16.828125 25.632812 17.042969 25.476562 17.066406 25.238281 L 17.417969 21.585938 C 17.441406 21.359375 17.273438 21.160156 17.050781 21.136719 Z M 17.050781 21.136719 "/>
<path style=" stroke:none;fill-rule:nonzero;fill:rgb(0%,0%,0%);fill-opacity:1;" d="M 14.386719 18.066406 C 14.25 17.613281 13.582031 17.714844 13.582031 18.183594 L 13.582031 25.199219 C 13.582031 25.425781 13.765625 25.609375 13.992188 25.609375 C 14.21875 25.609375 14.402344 25.425781 14.402344 25.199219 C 14.398438 17.757812 14.417969 18.175781 14.386719 18.066406 Z M 14.386719 18.066406 "/>
<path style=" stroke:none;fill-rule:nonzero;fill:rgb(0%,0%,0%);fill-opacity:1;" d="M 17.726562 18.066406 C 17.597656 17.640625 16.96875 17.695312 16.925781 18.144531 L 16.757812 19.871094 C 16.738281 20.097656 16.902344 20.296875 17.128906 20.320312 C 17.140625 20.320312 17.15625 20.320312 17.167969 20.320312 C 17.375 20.320312 17.554688 20.164062 17.578125 19.949219 C 17.738281 18.136719 17.769531 18.203125 17.726562 18.066406 Z M 17.726562 18.066406 "/>
<path style=" stroke:none;fill-rule:nonzero;fill:rgb(0%,0%,0%);fill-opacity:1;" d="M 21.125 18.066406 C 21.007812 17.679688 20.457031 17.675781 20.335938 18.066406 C 20.328125 18.097656 20.003906 19.746094 18.941406 25.121094 C 18.898438 25.34375 19.042969 25.558594 19.265625 25.601562 C 19.484375 25.644531 19.703125 25.503906 19.746094 25.277344 C 21.1875 17.894531 21.179688 18.25 21.125 18.066406 Z M 21.125 18.066406 "/>
<path style=" stroke:none;fill-rule:nonzero;fill:rgb(0%,0%,0%);fill-opacity:1;" d="M 23.894531 14.042969 C 23.761719 13.507812 24.652344 9.1875 20.988281 5.527344 C 19.832031 4.371094 18.441406 3.53125 16.925781 3.0625 C 16.730469 2.070312 16.214844 1.203125 15.707031 0.699219 C 14.453125 -0.546875 12.347656 -0.03125 12.191406 1.492188 C 12.164062 1.761719 12.207031 2.042969 12.3125 2.3125 C 11.800781 2.4375 11.371094 2.707031 11.09375 3.0625 C 9.355469 3.601562 7.777344 4.617188 6.550781 6.023438 C 6.402344 6.191406 6.417969 6.453125 6.589844 6.601562 C 6.761719 6.75 7.019531 6.734375 7.167969 6.5625 C 8.160156 5.425781 9.402344 4.570312 10.769531 4.042969 C 10.808594 4.8125 11.480469 5.453125 12.382812 5.648438 C 11.789062 6.855469 12.640625 8.105469 14.03125 8.105469 C 15.921875 8.105469 17.085938 5.816406 17.019531 3.957031 C 20.542969 5.207031 23.074219 8.570312 23.074219 12.515625 L 23.074219 13.921875 C 22.339844 13.972656 21.707031 14.410156 21.386719 15.042969 C 20.613281 13.511719 18.398438 13.546875 17.671875 15.109375 C 16.949219 13.546875 14.734375 13.511719 13.960938 15.042969 C 13.207031 13.550781 11.070312 13.539062 10.296875 15.007812 C 9.519531 13.539062 7.386719 13.550781 6.632812 15.042969 C 6.3125 14.40625 5.667969 13.964844 4.925781 13.917969 C 4.925781 12.113281 4.804688 10.1875 6.242188 7.828125 C 6.359375 7.636719 6.296875 7.382812 6.101562 7.265625 C 5.910156 7.148438 5.65625 7.207031 5.539062 7.402344 C 4.007812 9.917969 4.105469 11.957031 4.105469 14.035156 C 3.15625 14.382812 2.558594 15.449219 2.871094 16.523438 L 5.820312 26.554688 C 6.070312 27.40625 6.867188 28 7.753906 28 L 20.167969 28 C 21.066406 28 21.839844 27.425781 22.097656 26.566406 L 25.125 16.558594 C 25.445312 15.496094 24.851562 14.421875 23.894531 14.042969 Z M 15.332031 6.605469 C 14.71875 7.371094 13.808594 7.421875 13.335938 7.070312 C 12.925781 6.769531 12.851562 6.144531 13.445312 5.597656 C 13.734375 5.339844 13.535156 4.859375 13.144531 4.882812 C 12.332031 4.9375 11.589844 4.53125 11.589844 3.972656 C 11.589844 3.421875 12.300781 3.054688 12.964844 3.054688 L 12.988281 3.054688 C 13.351562 3.054688 13.535156 2.632812 13.300781 2.371094 C 13.085938 2.128906 12.980469 1.839844 13.007812 1.574219 C 13.09375 0.726562 14.398438 0.558594 15.128906 1.28125 C 16.394531 2.539062 16.628906 4.976562 15.332031 6.605469 Z M 24.335938 16.320312 L 21.3125 26.332031 C 21.160156 26.835938 20.699219 27.179688 20.167969 27.179688 L 7.753906 27.179688 C 7.226562 27.179688 6.757812 26.828125 6.609375 26.320312 C 3.492188 15.6875 3.636719 16.273438 3.617188 16.066406 C 3.585938 15.800781 3.65625 15.488281 3.839844 15.226562 C 4.410156 14.429688 5.585938 14.664062 5.933594 15.484375 C 5.949219 15.519531 6.011719 15.707031 6.023438 15.839844 C 6.058594 16.152344 6.320312 16.386719 6.632812 16.386719 C 6.945312 16.386719 7.207031 16.152344 7.238281 15.839844 C 7.308594 15.210938 7.839844 14.734375 8.472656 14.734375 C 9.117188 14.734375 9.648438 15.21875 9.707031 15.855469 C 9.820312 16.585938 10.820312 16.523438 10.882812 15.847656 C 10.945312 15.210938 11.476562 14.726562 12.117188 14.726562 C 12.753906 14.726562 13.285156 15.203125 13.351562 15.835938 C 13.386719 16.144531 13.644531 16.378906 13.957031 16.378906 C 14.273438 16.378906 14.535156 16.144531 14.566406 15.835938 C 14.632812 15.203125 15.164062 14.726562 15.800781 14.726562 C 16.421875 14.726562 16.953125 15.195312 17.03125 15.8125 C 17.070312 16.128906 17.351562 16.378906 17.671875 16.378906 C 17.992188 16.378906 18.273438 16.128906 18.3125 15.8125 C 18.390625 15.195312 18.921875 14.726562 19.542969 14.726562 C 20.179688 14.726562 20.710938 15.203125 20.777344 15.835938 C 20.8125 16.144531 21.074219 16.378906 21.386719 16.378906 C 21.699219 16.378906 21.960938 16.144531 21.992188 15.835938 C 22.0625 15.203125 22.589844 14.726562 23.226562 14.726562 C 23.890625 14.726562 24.589844 15.472656 24.335938 16.320312 Z M 24.335938 16.320312 "/>
<path style=" stroke:none;fill-rule:nonzero;fill:rgb(0%,0%,0%);fill-opacity:1;" d="M 12.472656 9.21875 C 12.472656 9.671875 12.105469 10.039062 11.65625 10.039062 C 11.203125 10.039062 10.835938 9.671875 10.835938 9.21875 C 10.835938 8.765625 11.203125 8.398438 11.65625 8.398438 C 12.105469 8.398438 12.472656 8.765625 12.472656 9.21875 Z M 12.472656 9.21875 "/>
<path style=" stroke:none;fill-rule:nonzero;fill:rgb(0%,0%,0%);fill-opacity:1;" d="M 17.164062 9.21875 C 17.164062 9.671875 16.796875 10.039062 16.347656 10.039062 C 15.894531 10.039062 15.527344 9.671875 15.527344 9.21875 C 15.527344 8.765625 15.894531 8.398438 16.347656 8.398438 C 16.796875 8.398438 17.164062 8.765625 17.164062 9.21875 Z M 17.164062 9.21875 "/>
<path style=" stroke:none;fill-rule:nonzero;fill:rgb(0%,0%,0%);fill-opacity:1;" d="M 16.179688 11.398438 L 14.5625 10.1875 C 14.242188 9.945312 13.757812 9.945312 13.4375 10.1875 L 11.820312 11.398438 C 11.230469 11.839844 11.578125 12.699219 12.382812 12.699219 L 15.617188 12.699219 C 16.421875 12.699219 16.769531 11.839844 16.179688 11.398438 Z M 12.550781 11.875 L 13.929688 10.84375 C 13.957031 10.820312 14.042969 10.820312 14.070312 10.84375 L 15.449219 11.875 Z M 12.550781 11.875 "/>
</g>
</svg>
