<?xml version="1.0" encoding="UTF-8" standalone="no"?>
<svg
   width="28pt"
   height="28pt"
   viewBox="0 0 28 28"
   version="1.1"
   id="svg14"
   sodipodi:docname="b9.svg"
   inkscape:version="1.1 (c4e8f9e, 2021-05-24)"
   xmlns:inkscape="http://www.inkscape.org/namespaces/inkscape"
   xmlns:sodipodi="http://sodipodi.sourceforge.net/DTD/sodipodi-0.dtd"
   xmlns="http://www.w3.org/2000/svg"
   xmlns:svg="http://www.w3.org/2000/svg">
  <defs
     id="defs18" />
  <sodipodi:namedview
     id="namedview16"
     pagecolor="#ffffff"
     bordercolor="#666666"
     borderopacity="1.0"
     inkscape:pageshadow="2"
     inkscape:pageopacity="0.0"
     inkscape:pagecheckerboard="0"
     inkscape:document-units="pt"
     showgrid="false"
     inkscape:zoom="16"
     inkscape:cx="13.65625"
     inkscape:cy="19.84375"
     inkscape:window-width="1920"
     inkscape:window-height="1027"
     inkscape:window-x="0"
     inkscape:window-y="25"
     inkscape:window-maximized="1"
     inkscape:current-layer="svg14" />
  <rect
     style="opacity:1;fill:none;stroke:#000000;stroke-width:1.1728;stroke-linejoin:round;stroke-miterlimit:4;stroke-dasharray:none;stroke-opacity:1;paint-order:markers fill stroke"
     id="rect308"
     width="26.606733"
     height="26.606733"
     x="0.72813225"
     y="0.72813225"
     ry="4.3362432"
     rx="4.3362441" />
  <path
     style="fill:#000000;fill-opacity:1;fill-rule:nonzero;stroke:none"
     d="m 17.70244,13.840978 c 0,0.511719 -0.03906,1.0625 -0.113281,1.613281 -0.03516,0.511719 -0.144532,1.0625 -0.292969,1.539063 -0.183594,0.515625 -0.367188,0.992187 -0.621094,1.429687 -0.257813,0.441407 -0.589844,0.808594 -0.953125,1.140626 -0.40625,0.328124 -0.882812,0.585937 -1.394531,0.769531 -0.550781,0.183593 -1.171875,0.292969 -1.871094,0.292969 -0.253906,0 -0.550781,-0.03516 -0.804687,-0.07422 -0.222657,0 -0.476563,-0.07422 -0.660157,-0.109375 -0.222656,-0.03516 -0.40625,-0.109375 -0.515626,-0.148438 -0.144531,-0.07031 -0.253906,-0.144531 -0.328125,-0.183594 -0.03906,-0.07031 -0.109375,-0.144531 -0.109375,-0.21875 -0.03906,-0.109374 -0.07422,-0.257812 -0.07422,-0.402343 0,-0.148438 0,-0.257813 0.03516,-0.332031 0,-0.07031 0,-0.144532 0.03906,-0.183594 0,-0.07031 0.03516,-0.07031 0.07031,-0.109375 0.03906,0 0.07422,-0.03516 0.148437,-0.03516 0.07422,0 0.148438,0.03516 0.292969,0.07422 0.109376,0.07031 0.257814,0.109375 0.476564,0.183594 0.183593,0.03516 0.402343,0.109375 0.660156,0.144531 0.257812,0.03516 0.550781,0.07422 0.878906,0.07422 0.625,0 1.136719,-0.109375 1.578125,-0.367187 0.441406,-0.21875 0.808594,-0.550782 1.101563,-0.953126 0.253906,-0.367187 0.476562,-0.84375 0.621093,-1.359374 0.109375,-0.511719 0.183594,-1.097657 0.21875,-1.648438 -0.328125,0.183594 -0.730469,0.367188 -1.207031,0.511719 -0.476562,0.148437 -1.027344,0.222656 -1.613281,0.222656 -0.699219,0 -1.246094,-0.113281 -1.722657,-0.296875 -0.476562,-0.183594 -0.84375,-0.4375 -1.136719,-0.730469 -0.25781,-0.332029 -0.47656,-0.734373 -0.589841,-1.175779 -0.109375,-0.441406 -0.183594,-0.917969 -0.183594,-1.429688 0,-0.550781 0.07422,-1.066406 0.222656,-1.542969 0.183594,-0.51172 0.402344,-0.9531256 0.73047,-1.3203136 0.367188,-0.367187 0.773438,-0.660156 1.285157,-0.878906 0.511718,-0.21875 1.136718,-0.332031 1.871093,-0.332031 0.511719,0 0.953125,0.07422 1.355469,0.183594 0.402344,0.148437 0.734375,0.332031 1.027344,0.550781 0.292968,0.257812 0.550781,0.550781 0.734375,0.882812 0.21875,0.363281 0.363281,0.7304696 0.511719,1.1718756 0.109374,0.441407 0.183593,0.91797 0.257812,1.429689 0.03516,0.515625 0.07422,1.027344 0.07422,1.617187 z m -1.652344,-0.183593 c 0,-0.808594 -0.07422,-1.503907 -0.144531,-2.054688 C 15.792283,11.051916 15.60869,10.610508 15.429002,10.282383 15.206346,9.9151954 14.95244,9.6925394 14.655565,9.5480074 c -0.328125,-0.183593 -0.660156,-0.257812 -1.0625,-0.257812 -0.402344,0 -0.769532,0.07422 -1.0625,0.21875 -0.292969,0.183594 -0.511719,0.367188 -0.695313,0.6249996 -0.183593,0.218751 -0.332031,0.515626 -0.441406,0.843752 -0.07422,0.292969 -0.109375,0.625 -0.109375,0.953125 0,0.40625 0.03516,0.734375 0.109375,1.027344 0.07422,0.332031 0.21875,0.585937 0.402344,0.808593 0.148437,0.21875 0.40625,0.367188 0.660156,0.476563 0.292969,0.144531 0.660156,0.183594 1.0625,0.183594 0.476563,0 0.953125,-0.07422 1.394531,-0.222657 0.441406,-0.144531 0.808594,-0.328124 1.136719,-0.546874 z m 0,0"
     id="path2661" />
</svg>
