<?xml version="1.0" encoding="UTF-8"?>
<svg xmlns="http://www.w3.org/2000/svg" xmlns:xlink="http://www.w3.org/1999/xlink" width="14pt" height="14pt" viewBox="0 0 14 14" version="1.1">
<g id="surface1">
<path style=" stroke:none;fill-rule:nonzero;fill:rgb(0%,0%,0%);fill-opacity:1;" d="M 12.640625 4.210938 L 11.546875 4.210938 L 7.578125 0.238281 C 7.421875 0.0859375 7.21875 0 7 0 C 6.78125 0 6.578125 0.0859375 6.421875 0.238281 L 2.453125 4.210938 L 1.359375 4.210938 C 1 4.210938 0.710938 4.5 0.710938 4.859375 L 0.710938 13.347656 C 0.710938 13.707031 1 14 1.359375 14 L 12.640625 14 C 13 14 13.289062 13.707031 13.289062 13.347656 L 13.289062 4.859375 C 13.289062 4.5 13 4.210938 12.640625 4.210938 Z M 6.074219 1.96875 C 6.25 2.304688 6.601562 2.53125 7 2.53125 C 7.398438 2.53125 7.75 2.304688 7.925781 1.96875 L 10.164062 4.210938 L 3.835938 4.210938 Z M 6.6875 11.324219 L 5.691406 11.324219 L 5.03125 8.953125 L 4.375 11.324219 L 3.375 11.324219 L 2.335938 6.882812 L 3.453125 6.882812 L 3.953125 9.289062 L 4.613281 6.882812 L 5.445312 6.882812 L 6.109375 9.292969 L 6.613281 6.882812 L 7.726562 6.882812 Z M 11.664062 8.464844 L 11.617188 8.601562 L 10.558594 8.601562 L 10.558594 8.457031 C 10.558594 8.21875 10.507812 8.042969 10.398438 7.925781 C 10.296875 7.8125 10.128906 7.757812 9.894531 7.757812 C 9.695312 7.757812 9.539062 7.835938 9.421875 8 C 9.289062 8.171875 9.226562 8.40625 9.226562 8.6875 L 9.226562 9.515625 C 9.226562 9.796875 9.296875 10.03125 9.429688 10.207031 C 9.554688 10.375 9.71875 10.453125 9.9375 10.453125 C 10.15625 10.453125 10.3125 10.398438 10.40625 10.292969 C 10.507812 10.179688 10.554688 10.003906 10.554688 9.765625 L 10.554688 9.621094 L 11.613281 9.621094 L 11.65625 9.757812 L 11.660156 9.78125 C 11.667969 10.265625 11.515625 10.664062 11.203125 10.953125 C 10.898438 11.242188 10.46875 11.382812 9.9375 11.382812 C 9.398438 11.382812 8.953125 11.207031 8.617188 10.859375 C 8.277344 10.511719 8.109375 10.0625 8.109375 9.515625 L 8.109375 8.695312 C 8.109375 8.15625 8.273438 7.703125 8.601562 7.351562 C 8.933594 7 9.367188 6.824219 9.894531 6.824219 C 10.445312 6.824219 10.882812 6.96875 11.195312 7.257812 C 11.515625 7.546875 11.671875 7.945312 11.664062 8.441406 Z M 11.664062 8.464844 "/>
</g>
</svg>
