<?xml version="1.0" encoding="UTF-8"?>
<svg xmlns="http://www.w3.org/2000/svg" xmlns:xlink="http://www.w3.org/1999/xlink" width="28pt" height="28pt" viewBox="0 0 28 28" version="1.1">
<g id="surface1">
<path style=" stroke:none;fill-rule:nonzero;fill:rgb(0%,0%,0%);fill-opacity:1;" d="M 25.539062 6.617188 L 23.023438 6.617188 L 23.023438 4.921875 L 23.84375 4.921875 C 24.296875 4.921875 24.664062 4.554688 24.664062 4.101562 C 24.664062 3.648438 24.296875 3.28125 23.84375 3.28125 L 20.5625 3.28125 C 20.109375 3.28125 19.742188 3.648438 19.742188 4.101562 C 19.742188 4.554688 20.109375 4.921875 20.5625 4.921875 L 21.382812 4.921875 L 21.382812 6.617188 L 14.820312 6.617188 L 14.820312 2.460938 C 14.820312 1.105469 13.714844 0 12.359375 0 C 11.003906 0 9.898438 1.105469 9.898438 2.460938 L 9.898438 3.28125 C 9.898438 3.734375 10.265625 4.101562 10.71875 4.101562 C 11.171875 4.101562 11.539062 3.734375 11.539062 3.28125 L 11.539062 2.460938 C 11.539062 2.007812 11.90625 1.640625 12.359375 1.640625 C 12.8125 1.640625 13.179688 2.007812 13.179688 2.460938 L 13.179688 6.617188 L 6.617188 6.617188 L 6.617188 4.921875 L 7.4375 4.921875 C 7.890625 4.921875 8.257812 4.554688 8.257812 4.101562 C 8.257812 3.648438 7.890625 3.28125 7.4375 3.28125 L 4.15625 3.28125 C 3.703125 3.28125 3.335938 3.648438 3.335938 4.101562 C 3.335938 4.554688 3.703125 4.921875 4.15625 4.921875 L 4.976562 4.921875 L 4.976562 6.617188 L 2.460938 6.617188 C 1.105469 6.617188 0 7.722656 0 9.078125 C 0 10.433594 1.105469 11.539062 2.460938 11.539062 L 3.367188 11.539062 C 3.703125 15.914062 6.6875 19.558594 10.71875 20.867188 L 10.71875 24.71875 C 10.71875 26.527344 12.191406 28 14 28 C 15.808594 28 17.28125 26.527344 17.28125 24.71875 L 17.28125 20.867188 C 21.3125 19.558594 24.296875 15.914062 24.632812 11.539062 L 25.539062 11.539062 C 26.894531 11.539062 28 10.433594 28 9.078125 C 28 7.722656 26.894531 6.617188 25.539062 6.617188 Z M 15.640625 24.71875 C 15.640625 25.625 14.90625 26.359375 14 26.359375 C 13.09375 26.359375 12.359375 25.625 12.359375 24.71875 L 12.359375 21.257812 C 12.894531 21.339844 13.441406 21.382812 14 21.382812 C 14.558594 21.382812 15.105469 21.339844 15.640625 21.257812 Z M 14 19.742188 C 9.300781 19.742188 5.429688 16.121094 5.011719 11.527344 L 22.988281 11.527344 C 22.570312 16.121094 18.699219 19.742188 14 19.742188 Z M 25.539062 9.898438 L 2.460938 9.898438 C 2.007812 9.898438 1.640625 9.53125 1.640625 9.078125 C 1.640625 8.625 2.007812 8.257812 2.460938 8.257812 L 25.539062 8.257812 C 25.992188 8.257812 26.359375 8.625 26.359375 9.078125 C 26.359375 9.53125 25.992188 9.898438 25.539062 9.898438 Z M 25.539062 9.898438 "/>
</g>
</svg>
