<?xml version="1.0" encoding="UTF-8"?>
<svg xmlns="http://www.w3.org/2000/svg" xmlns:xlink="http://www.w3.org/1999/xlink" width="28pt" height="28pt" viewBox="0 0 28 28" version="1.1">
<g id="surface1">
<path style=" stroke:none;fill-rule:nonzero;fill:rgb(0%,0%,0%);fill-opacity:1;" d="M 25.773438 12.554688 L 24.230469 12.554688 L 24.230469 2.460938 C 24.230469 1.105469 23.125 0 21.769531 0 L 6.230469 0 C 4.875 0 3.769531 1.105469 3.769531 2.460938 L 3.769531 12.554688 L 2.226562 12.554688 C 1.773438 12.554688 1.40625 12.921875 1.40625 13.375 L 1.40625 16.800781 C 1.40625 17.253906 1.773438 17.621094 2.226562 17.621094 L 2.28125 17.621094 L 2.28125 27.179688 C 2.28125 27.632812 2.648438 28 3.101562 28 L 24.898438 28 C 25.351562 28 25.71875 27.632812 25.71875 27.179688 L 25.71875 17.621094 L 25.773438 17.621094 C 26.226562 17.621094 26.59375 17.253906 26.59375 16.800781 L 26.59375 13.375 C 26.59375 12.921875 26.226562 12.554688 25.773438 12.554688 Z M 5.410156 2.460938 C 5.410156 2.007812 5.777344 1.640625 6.230469 1.640625 L 21.769531 1.640625 C 22.222656 1.640625 22.589844 2.007812 22.589844 2.460938 L 22.589844 12.554688 L 17.914062 12.554688 L 17.914062 11.832031 C 18.363281 11.824219 18.722656 11.460938 18.722656 11.011719 C 18.722656 10.558594 18.355469 10.191406 17.902344 10.191406 L 16.289062 10.191406 C 15.835938 10.191406 15.46875 10.558594 15.46875 11.011719 C 15.46875 11.460938 15.828125 11.824219 16.273438 11.832031 L 16.273438 12.554688 L 14.820312 12.554688 L 14.820312 8.214844 C 14.820312 7.238281 14.027344 6.445312 13.050781 6.445312 L 12.414062 6.445312 C 11.4375 6.445312 10.644531 7.238281 10.644531 8.214844 C 10.644531 8.664062 11.011719 9.035156 11.464844 9.035156 C 11.917969 9.035156 12.285156 8.664062 12.285156 8.214844 C 12.285156 8.140625 12.34375 8.085938 12.414062 8.085938 L 13.050781 8.085938 C 13.121094 8.085938 13.179688 8.140625 13.179688 8.214844 L 13.179688 12.554688 L 11.773438 12.554688 L 11.773438 11.832031 C 12.21875 11.824219 12.578125 11.460938 12.578125 11.011719 C 12.578125 10.558594 12.210938 10.191406 11.757812 10.191406 L 10.148438 10.191406 C 9.695312 10.191406 9.328125 10.558594 9.328125 11.011719 C 9.328125 11.460938 9.6875 11.824219 10.132812 11.832031 L 10.132812 12.554688 L 5.410156 12.554688 Z M 13.179688 26.359375 L 3.921875 26.359375 L 3.921875 17.621094 L 13.179688 17.621094 Z M 24.078125 26.359375 L 14.820312 26.359375 L 14.820312 17.621094 L 24.078125 17.621094 Z M 24.953125 15.980469 L 3.046875 15.980469 L 3.046875 14.195312 L 24.953125 14.195312 Z M 24.953125 15.980469 "/>
<path style=" stroke:none;fill-rule:nonzero;fill:rgb(0%,0%,0%);fill-opacity:1;" d="M 20.003906 21.609375 L 19.171875 21.609375 C 18.71875 21.609375 18.351562 21.976562 18.351562 22.429688 C 18.351562 22.882812 18.71875 23.25 19.171875 23.25 L 20.003906 23.25 C 20.457031 23.25 20.824219 22.882812 20.824219 22.429688 C 20.824219 21.976562 20.457031 21.609375 20.003906 21.609375 Z M 20.003906 21.609375 "/>
<path style=" stroke:none;fill-rule:nonzero;fill:rgb(0%,0%,0%);fill-opacity:1;" d="M 8.828125 21.609375 L 7.996094 21.609375 C 7.542969 21.609375 7.175781 21.976562 7.175781 22.429688 C 7.175781 22.882812 7.542969 23.25 7.996094 23.25 L 8.828125 23.25 C 9.28125 23.25 9.648438 22.882812 9.648438 22.429688 C 9.648438 21.976562 9.28125 21.609375 8.828125 21.609375 Z M 8.828125 21.609375 "/>
</g>
</svg>
