<?xml version="1.0" encoding="UTF-8"?>
<svg xmlns="http://www.w3.org/2000/svg" xmlns:xlink="http://www.w3.org/1999/xlink" width="14pt" height="14pt" viewBox="0 0 14 14" version="1.1">
<g id="surface1">
<path style=" stroke:none;fill-rule:nonzero;fill:rgb(0%,0%,0%);fill-opacity:1;" d="M 4.5 14 C 4.640625 14 4.75 13.890625 4.75 13.75 L 4.75 13.5 L 4.25 13.5 L 4.25 13.75 C 4.25 13.890625 4.359375 14 4.5 14 Z M 4.5 14 "/>
<path style=" stroke:none;fill-rule:nonzero;fill:rgb(0%,0%,0%);fill-opacity:1;" d="M 9.25 13.75 C 9.25 13.890625 9.359375 14 9.5 14 C 9.640625 14 9.75 13.890625 9.75 13.75 L 9.75 13.5 L 9.25 13.5 Z M 9.25 13.75 "/>
<path style=" stroke:none;fill-rule:nonzero;fill:rgb(0%,0%,0%);fill-opacity:1;" d="M 13.5 9.25 L 13.5 9 L 0.5 9 L 0.5 9.25 C 0.5 11.320312 2.179688 13 4.25 13 L 9.75 13 C 11.820312 13 13.5 11.320312 13.5 9.25 Z M 13.5 9.25 "/>
<path style=" stroke:none;fill-rule:nonzero;fill:rgb(0%,0%,0%);fill-opacity:1;" d="M 13.921875 8.429688 C 13.972656 8.382812 14 8.320312 14 8.25 C 14 8.109375 13.890625 8 13.75 8 L 0.25 8 C 0.1875 8 0.125 8.023438 0.078125 8.070312 C 0.0273438 8.117188 0 8.179688 0 8.25 C 0 8.390625 0.109375 8.5 0.25 8.5 L 13.75 8.5 C 13.8125 8.5 13.875 8.476562 13.921875 8.429688 Z M 13.921875 8.429688 "/>
<path style=" stroke:none;fill-rule:nonzero;fill:rgb(0%,0%,0%);fill-opacity:1;" d="M 9.273438 1.59375 C 8.957031 1.546875 8.632812 1.652344 8.414062 1.882812 L 10.085938 2.851562 C 10.164062 2.566406 10.117188 2.265625 9.953125 2.023438 C 9.90625 1.960938 9.859375 1.902344 9.804688 1.851562 C 9.65625 1.710938 9.472656 1.625 9.273438 1.59375 Z M 9.273438 1.59375 "/>
<path style=" stroke:none;fill-rule:nonzero;fill:rgb(0%,0%,0%);fill-opacity:1;" d="M 9.875 1.28125 C 9.953125 1.328125 10.023438 1.382812 10.09375 1.441406 C 10.101562 1.445312 10.109375 1.453125 10.113281 1.453125 L 10.449219 0.875 C 10.582031 0.644531 10.828125 0.5 11.097656 0.5 L 12.25 0.5 C 12.664062 0.5 13 0.835938 13 1.25 L 13 7.5 L 13.5 7.5 L 13.5 1.25 C 13.5 0.5625 12.9375 0 12.25 0 L 10.8125 0 C 10.542969 0 10.296875 0.140625 10.164062 0.375 L 9.6875 1.195312 C 9.75 1.21875 9.8125 1.25 9.875 1.28125 Z M 9.875 1.28125 "/>
<path style=" stroke:none;fill-rule:nonzero;fill:rgb(0%,0%,0%);fill-opacity:1;" d="M 8.875 3.015625 C 8.757812 2.945312 8.601562 2.988281 8.53125 3.109375 L 8.03125 3.972656 C 7.988281 4.050781 7.988281 4.148438 8.03125 4.226562 C 8.078125 4.304688 8.160156 4.351562 8.25 4.351562 C 8.339844 4.351562 8.421875 4.300781 8.46875 4.222656 L 8.96875 3.359375 C 9.035156 3.238281 8.992188 3.085938 8.875 3.015625 Z M 8.875 3.015625 "/>
<path style=" stroke:none;fill-rule:nonzero;fill:rgb(0%,0%,0%);fill-opacity:1;" d="M 7.257812 3.8125 C 7.378906 3.882812 7.53125 3.84375 7.601562 3.722656 L 8.101562 2.859375 C 8.167969 2.738281 8.125 2.585938 8.007812 2.515625 C 7.890625 2.449219 7.734375 2.488281 7.667969 2.609375 L 7.167969 3.472656 C 7.097656 3.59375 7.140625 3.746094 7.257812 3.8125 Z M 7.257812 3.8125 "/>
<path style=" stroke:none;fill-rule:nonzero;fill:rgb(0%,0%,0%);fill-opacity:1;" d="M 8.992188 4.8125 C 9.109375 4.882812 9.265625 4.84375 9.332031 4.722656 L 9.832031 3.859375 C 9.898438 3.738281 9.859375 3.585938 9.742188 3.515625 C 9.621094 3.449219 9.46875 3.488281 9.398438 3.609375 L 8.898438 4.472656 C 8.828125 4.59375 8.871094 4.746094 8.992188 4.8125 Z M 8.992188 4.8125 "/>
<path style=" stroke:none;fill-rule:nonzero;fill:rgb(0%,0%,0%);fill-opacity:1;" d="M 8.09375 4.875 L 7.59375 5.738281 C 7.523438 5.859375 7.5625 6.011719 7.683594 6.078125 C 7.804688 6.148438 7.953125 6.109375 8.023438 5.988281 L 8.523438 5.125 C 8.59375 5 8.554688 4.851562 8.433594 4.78125 C 8.3125 4.710938 8.160156 4.75 8.09375 4.875 Z M 8.09375 4.875 "/>
<path style=" stroke:none;fill-rule:nonzero;fill:rgb(0%,0%,0%);fill-opacity:1;" d="M 6.683594 5.578125 C 6.742188 5.613281 6.808594 5.625 6.875 5.605469 C 6.9375 5.585938 6.992188 5.546875 7.023438 5.488281 L 7.523438 4.625 C 7.59375 4.5 7.554688 4.351562 7.433594 4.28125 C 7.3125 4.210938 7.160156 4.25 7.09375 4.375 L 6.59375 5.238281 C 6.523438 5.359375 6.5625 5.511719 6.683594 5.578125 Z M 6.683594 5.578125 "/>
</g>
</svg>
