<?xml version="1.0" encoding="UTF-8"?>
<svg xmlns="http://www.w3.org/2000/svg" xmlns:xlink="http://www.w3.org/1999/xlink" width="28pt" height="28pt" viewBox="0 0 28 28" version="1.1">
<g id="surface1">
<path style=" stroke:none;fill-rule:nonzero;fill:rgb(0%,0%,0%);fill-opacity:1;" d="M 10.390625 5.644531 C 9.941406 5.945312 9.332031 6.359375 9.332031 7.207031 C 9.332031 7.507812 9.574219 7.753906 9.878906 7.753906 C 10.179688 7.753906 10.425781 7.507812 10.425781 7.207031 C 10.425781 6.964844 10.589844 6.828125 11.003906 6.550781 C 11.453125 6.246094 12.066406 5.832031 12.066406 4.988281 C 12.066406 4.140625 11.453125 3.726562 11.003906 3.421875 C 10.589844 3.144531 10.425781 3.007812 10.425781 2.765625 C 10.425781 2.527344 10.589844 2.386719 11.003906 2.109375 C 11.453125 1.808594 12.066406 1.390625 12.066406 0.546875 C 12.066406 0.246094 11.820312 0 11.519531 0 C 11.214844 0 10.972656 0.246094 10.972656 0.546875 C 10.972656 0.789062 10.804688 0.925781 10.390625 1.203125 C 9.941406 1.507812 9.332031 1.921875 9.332031 2.765625 C 9.332031 3.613281 9.941406 4.027344 10.390625 4.328125 C 10.804688 4.609375 10.972656 4.746094 10.972656 4.988281 C 10.972656 5.226562 10.804688 5.363281 10.390625 5.644531 Z M 10.390625 5.644531 "/>
<path style=" stroke:none;fill-rule:nonzero;fill:rgb(0%,0%,0%);fill-opacity:1;" d="M 14.164062 5.644531 C 13.714844 5.945312 13.101562 6.359375 13.101562 7.207031 C 13.101562 7.507812 13.347656 7.753906 13.648438 7.753906 C 13.953125 7.753906 14.195312 7.507812 14.195312 7.207031 C 14.195312 6.964844 14.363281 6.828125 14.777344 6.550781 C 15.222656 6.246094 15.835938 5.832031 15.835938 4.988281 C 15.835938 4.140625 15.222656 3.726562 14.777344 3.421875 C 14.363281 3.144531 14.195312 3.007812 14.195312 2.765625 C 14.195312 2.527344 14.363281 2.386719 14.777344 2.109375 C 15.222656 1.808594 15.835938 1.390625 15.835938 0.546875 C 15.835938 0.246094 15.59375 0 15.289062 0 C 14.988281 0 14.742188 0.246094 14.742188 0.546875 C 14.742188 0.789062 14.574219 0.925781 14.164062 1.203125 C 13.714844 1.507812 13.101562 1.921875 13.101562 2.765625 C 13.101562 3.613281 13.714844 4.027344 14.164062 4.328125 C 14.574219 4.609375 14.742188 4.746094 14.742188 4.988281 C 14.742188 5.226562 14.574219 5.363281 14.164062 5.644531 Z M 14.164062 5.644531 "/>
<path style=" stroke:none;fill-rule:nonzero;fill:rgb(0%,0%,0%);fill-opacity:1;" d="M 17.9375 5.644531 C 17.488281 5.945312 16.875 6.359375 16.875 7.207031 C 16.875 7.507812 17.121094 7.753906 17.421875 7.753906 C 17.722656 7.753906 17.96875 7.507812 17.96875 7.207031 C 17.96875 6.964844 18.136719 6.828125 18.550781 6.550781 C 18.996094 6.246094 19.609375 5.832031 19.609375 4.988281 C 19.609375 4.140625 18.996094 3.726562 18.550781 3.421875 C 18.136719 3.144531 17.96875 3.007812 17.96875 2.765625 C 17.96875 2.527344 18.136719 2.386719 18.550781 2.109375 C 18.996094 1.808594 19.609375 1.390625 19.609375 0.546875 C 19.609375 0.246094 19.363281 0 19.0625 0 C 18.761719 0 18.515625 0.246094 18.515625 0.546875 C 18.515625 0.789062 18.347656 0.925781 17.9375 1.203125 C 17.488281 1.507812 16.875 1.921875 16.875 2.765625 C 16.875 3.613281 17.488281 4.027344 17.9375 4.328125 C 18.347656 4.609375 18.515625 4.746094 18.515625 4.988281 C 18.515625 5.226562 18.347656 5.363281 17.9375 5.644531 Z M 17.9375 5.644531 "/>
<path style=" stroke:none;fill-rule:nonzero;fill:rgb(0%,0%,0%);fill-opacity:1;" d="M 26.109375 12.546875 L 24.109375 12.546875 C 24.171875 12.160156 24.210938 11.761719 24.230469 11.359375 C 24.859375 11.140625 25.3125 10.539062 25.3125 9.835938 C 25.3125 8.945312 24.589844 8.222656 23.699219 8.222656 L 4.269531 8.222656 C 3.378906 8.222656 2.65625 8.945312 2.65625 9.835938 C 2.65625 10.539062 3.109375 11.140625 3.738281 11.359375 C 3.757812 11.761719 3.796875 12.160156 3.859375 12.546875 L 1.859375 12.546875 C 1.558594 12.546875 1.3125 12.792969 1.3125 13.09375 C 1.3125 13.398438 1.558594 13.640625 1.859375 13.640625 L 4.097656 13.640625 C 4.851562 16.359375 6.699219 18.625 9.132812 19.9375 L 7.839844 22.367188 C 7.835938 22.367188 7.835938 22.367188 7.835938 22.371094 L 5.417969 26.90625 L 4.585938 26.90625 C 4.285156 26.90625 4.039062 27.152344 4.039062 27.453125 C 4.039062 27.753906 4.285156 28 4.585938 28 L 6.90625 28 C 7.210938 28 7.453125 27.753906 7.453125 27.453125 C 7.453125 27.152344 7.210938 26.90625 6.90625 26.90625 L 6.660156 26.90625 L 8.648438 23.175781 L 19.453125 23.175781 L 21.4375 26.90625 L 21.058594 26.90625 C 20.757812 26.90625 20.511719 27.152344 20.511719 27.453125 C 20.511719 27.753906 20.757812 28 21.058594 28 L 23.378906 28 C 23.683594 28 23.925781 27.753906 23.925781 27.453125 C 23.925781 27.152344 23.683594 26.90625 23.378906 26.90625 L 22.679688 26.90625 L 20.261719 22.371094 C 20.261719 22.367188 20.261719 22.367188 20.261719 22.367188 L 18.9375 19.882812 C 21.320312 18.5625 23.125 16.320312 23.867188 13.640625 L 26.109375 13.640625 C 26.410156 13.640625 26.65625 13.398438 26.65625 13.09375 C 26.65625 12.792969 26.410156 12.546875 26.109375 12.546875 Z M 9.230469 22.082031 L 10.121094 20.40625 C 11.316406 20.890625 12.617188 21.160156 13.984375 21.160156 C 15.390625 21.160156 16.730469 20.875 17.953125 20.359375 L 18.867188 22.082031 Z M 13.984375 20.066406 C 9.117188 20.066406 5.121094 16.25 4.835938 11.449219 L 23.128906 11.449219 C 22.847656 16.25 18.851562 20.066406 13.984375 20.066406 Z M 23.699219 10.355469 L 4.269531 10.355469 C 3.984375 10.355469 3.75 10.125 3.75 9.835938 C 3.75 9.550781 3.984375 9.316406 4.269531 9.316406 L 23.699219 9.316406 C 23.984375 9.316406 24.21875 9.550781 24.21875 9.835938 C 24.21875 10.125 23.984375 10.355469 23.699219 10.355469 Z M 23.699219 10.355469 "/>
<path style=" stroke:none;fill-rule:nonzero;fill:rgb(0%,0%,0%);fill-opacity:1;" d="M 13.984375 19.105469 C 16.824219 19.105469 19.421875 17.664062 20.9375 15.246094 C 21.097656 14.992188 21.019531 14.652344 20.765625 14.492188 C 20.507812 14.332031 20.171875 14.410156 20.011719 14.667969 C 18.699219 16.761719 16.445312 18.011719 13.984375 18.011719 C 13.683594 18.011719 13.4375 18.253906 13.4375 18.558594 C 13.4375 18.859375 13.683594 19.105469 13.984375 19.105469 Z M 13.984375 19.105469 "/>
<path style=" stroke:none;fill-rule:nonzero;fill:rgb(0%,0%,0%);fill-opacity:1;" d="M 20.847656 13.167969 C 20.9375 13.378906 21.15625 13.515625 21.386719 13.503906 C 21.605469 13.488281 21.800781 13.339844 21.871094 13.132812 C 21.949219 12.910156 21.867188 12.652344 21.675781 12.515625 C 21.5 12.386719 21.257812 12.375 21.074219 12.488281 C 20.84375 12.625 20.746094 12.917969 20.847656 13.167969 Z M 20.847656 13.167969 "/>
</g>
</svg>
