<?xml version="1.0" encoding="UTF-8"?>
<svg xmlns="http://www.w3.org/2000/svg" xmlns:xlink="http://www.w3.org/1999/xlink" width="28pt" height="28pt" viewBox="0 0 28 28" version="1.1">
<g id="surface1">
<path style=" stroke:none;fill-rule:nonzero;fill:rgb(0%,0%,0%);fill-opacity:1;" d="M 25.097656 17.140625 C 24.3125 15.804688 23.570312 14.542969 23.570312 11.265625 C 23.570312 6.265625 19.714844 2.152344 14.820312 1.734375 L 14.828125 0.00390625 L 13.1875 0 L 13.183594 1.734375 C 8.285156 2.148438 4.429688 6.265625 4.429688 11.265625 C 4.429688 14.542969 3.6875 15.804688 2.902344 17.140625 C 2.039062 18.605469 1.148438 20.121094 1.148438 23.84375 L 1.148438 24.664062 L 10.664062 24.664062 C 10.664062 26.503906 12.160156 28 14 28 C 15.839844 28 17.335938 26.503906 17.335938 24.664062 L 26.851562 24.664062 L 26.851562 23.84375 C 26.851562 20.121094 25.957031 18.605469 25.097656 17.140625 Z M 14 26.359375 C 13.066406 26.359375 12.304688 25.597656 12.304688 24.664062 L 15.695312 24.664062 C 15.695312 25.597656 14.933594 26.359375 14 26.359375 Z M 2.808594 23.023438 C 2.921875 20.34375 3.601562 19.1875 4.316406 17.972656 C 5.179688 16.503906 6.070312 14.988281 6.070312 11.265625 C 6.070312 6.894531 9.628906 3.339844 14 3.339844 C 18.371094 3.339844 21.929688 6.894531 21.929688 11.265625 C 21.929688 14.988281 22.820312 16.503906 23.683594 17.972656 C 24.398438 19.1875 25.078125 20.34375 25.191406 23.023438 Z M 2.808594 23.023438 "/>
</g>
</svg>
