<?xml version="1.0" encoding="UTF-8"?>
<svg xmlns="http://www.w3.org/2000/svg" xmlns:xlink="http://www.w3.org/1999/xlink" width="28pt" height="28pt" viewBox="0 0 28 28" version="1.1">
<g id="surface1">
<path style=" stroke:none;fill-rule:nonzero;fill:rgb(0%,0%,0%);fill-opacity:1;" d="M 20.296875 24.914062 C 20.523438 25.140625 20.894531 25.140625 21.121094 24.914062 C 21.347656 24.683594 21.347656 24.316406 21.121094 24.089844 C 20.894531 23.859375 20.523438 23.859375 20.296875 24.089844 C 20.066406 24.316406 20.066406 24.683594 20.296875 24.914062 Z M 20.296875 24.914062 "/>
<path style=" stroke:none;fill-rule:nonzero;fill:rgb(0%,0%,0%);fill-opacity:1;" d="M 25.3125 4.40625 L 24.144531 2.074219 C 24.046875 1.875 23.84375 1.75 23.625 1.75 L 14.875 1.75 L 14.875 0.582031 C 14.875 0.261719 14.613281 0 14.292969 0 L 9.625 0 C 9.304688 0 9.042969 0.261719 9.042969 0.582031 L 9.042969 1.75 L 3.207031 1.75 C 2.886719 1.75 2.625 2.011719 2.625 2.332031 L 2.625 7 C 2.625 7.089844 2.644531 7.179688 2.6875 7.261719 L 4.957031 11.804688 L 4.957031 21.582031 C 4.957031 21.648438 4.964844 23.171875 5.582031 24.71875 C 6.441406 26.863281 8.042969 28 10.207031 28 L 20.707031 28 C 22.636719 28 24.207031 26.429688 24.207031 24.5 C 24.207031 22.769531 22.945312 21.328125 21.292969 21.046875 L 21.292969 2.917969 L 23.265625 2.917969 L 24.269531 4.925781 C 24.371094 5.132812 24.578125 5.25 24.792969 5.25 C 24.878906 5.25 24.96875 5.230469 25.050781 5.1875 C 25.339844 5.042969 25.457031 4.695312 25.3125 4.40625 Z M 10.207031 1.167969 L 13.707031 1.167969 L 13.707031 1.75 L 10.207031 1.75 Z M 3.792969 2.917969 L 20.125 2.917969 L 20.125 4.082031 L 3.792969 4.082031 Z M 18.101562 26.832031 L 10.207031 26.832031 C 8.542969 26.832031 7.355469 25.984375 6.675781 24.308594 C 6.132812 22.972656 6.125 21.597656 6.125 21.582031 L 6.125 11.667969 C 6.125 11.578125 6.105469 11.488281 6.0625 11.40625 L 3.792969 6.863281 L 3.792969 5.25 L 20.125 5.25 L 20.125 21.046875 C 18.472656 21.328125 17.207031 22.769531 17.207031 24.5 C 17.207031 25.394531 17.546875 26.214844 18.101562 26.832031 Z M 23.042969 24.5 C 23.042969 25.785156 21.996094 26.832031 20.707031 26.832031 C 19.421875 26.832031 18.375 25.785156 18.375 24.5 C 18.375 23.214844 19.421875 22.167969 20.707031 22.167969 C 21.996094 22.167969 23.042969 23.214844 23.042969 24.5 Z M 23.042969 24.5 "/>
</g>
</svg>
