<?xml version="1.0" encoding="UTF-8"?>
<svg xmlns="http://www.w3.org/2000/svg" xmlns:xlink="http://www.w3.org/1999/xlink" width="28pt" height="28pt" viewBox="0 0 28 28" version="1.1">
<g id="surface1">
<path style=" stroke:none;fill-rule:nonzero;fill:rgb(0%,0%,0%);fill-opacity:1;" d="M 18.445312 20.246094 L 9.550781 20.242188 C 9.332031 20.242188 9.152344 20.082031 9.125 19.863281 C 9.023438 18.992188 8.714844 17.757812 7.84375 16.851562 C 7.84375 16.851562 7.84375 16.851562 7.839844 16.847656 C 5.683594 15.027344 4.449219 12.371094 4.449219 9.550781 C 4.449219 4.285156 8.734375 0 14 0 C 19.265625 0 23.550781 4.285156 23.550781 9.550781 C 23.550781 12.390625 22.296875 15.0625 20.117188 16.882812 C 19.277344 17.761719 18.972656 18.992188 18.871094 19.867188 C 18.847656 20.082031 18.664062 20.246094 18.445312 20.246094 Z M 9.921875 19.386719 L 18.074219 19.390625 C 18.234375 18.425781 18.621094 17.210938 19.535156 16.257812 C 21.558594 14.570312 22.695312 12.132812 22.695312 9.550781 C 22.695312 4.753906 18.796875 0.855469 14 0.855469 C 9.203125 0.855469 5.304688 4.753906 5.304688 9.550781 C 5.304688 12.132812 6.441406 14.566406 8.429688 16.226562 C 8.457031 16.246094 8.476562 16.273438 8.496094 16.296875 C 9.382812 17.242188 9.761719 18.4375 9.921875 19.386719 Z M 9.921875 19.386719 "/>
<path style=" stroke:none;fill-rule:nonzero;fill:rgb(0%,0%,0%);fill-opacity:1;" d="M 18.445312 22.828125 L 9.550781 22.828125 C 9.3125 22.828125 9.121094 22.636719 9.121094 22.402344 C 9.121094 22.164062 9.3125 21.972656 9.550781 21.972656 L 18.445312 21.972656 C 18.683594 21.972656 18.875 22.164062 18.875 22.402344 C 18.875 22.636719 18.683594 22.828125 18.445312 22.828125 Z M 18.445312 22.828125 "/>
<path style=" stroke:none;fill-rule:nonzero;fill:rgb(0%,0%,0%);fill-opacity:1;" d="M 18.445312 25.414062 L 9.550781 25.414062 C 9.3125 25.414062 9.121094 25.222656 9.121094 24.988281 C 9.121094 24.75 9.3125 24.558594 9.550781 24.558594 L 18.445312 24.558594 C 18.683594 24.558594 18.875 24.75 18.875 24.988281 C 18.875 25.222656 18.683594 25.414062 18.445312 25.414062 Z M 18.445312 25.414062 "/>
<path style=" stroke:none;fill-rule:nonzero;fill:rgb(0%,0%,0%);fill-opacity:1;" d="M 15.863281 28 L 12.136719 28 C 11.898438 28 11.707031 27.808594 11.707031 27.574219 C 11.707031 27.335938 11.898438 27.144531 12.136719 27.144531 L 15.863281 27.144531 C 16.097656 27.144531 16.289062 27.335938 16.289062 27.574219 C 16.289062 27.808594 16.097656 28 15.863281 28 Z M 15.863281 28 "/>
</g>
</svg>
