<?xml version="1.0" encoding="UTF-8"?>
<svg xmlns="http://www.w3.org/2000/svg" xmlns:xlink="http://www.w3.org/1999/xlink" width="28pt" height="28pt" viewBox="0 0 28 28" version="1.1">
<g id="surface1">
<path style=" stroke:none;fill-rule:nonzero;fill:rgb(0.392157%,0%,0.784314%);fill-opacity:1;" d="M 11.167969 27.90625 C 11.167969 27.90625 11.910156 27.261719 10.613281 26.148438 C 10.613281 26.148438 7.570312 22.726562 6.089844 20.132812 C 6.089844 20.132812 5.257812 18.746094 7.015625 16.800781 C 7.015625 16.800781 7.835938 14.023438 8.300781 12.914062 C 8.300781 12.914062 8.539062 10.628906 8.539062 2.910156 C 8.855469 -0.578125 10.851562 1.28125 11.054688 2.242188 C 11.308594 2.28125 11.796875 11.4375 12.09375 11.527344 C 12.09375 11.527344 14.5 9.675781 15.703125 12.359375 C 15.703125 12.359375 18.109375 10.972656 19.035156 13.65625 C 19.035156 13.65625 22.273438 13.933594 21.996094 16.894531 C 21.996094 16.894531 22.675781 22.445312 20.640625 26.335938 L 20.144531 28 Z M 11.167969 27.90625 "/>
<path style=" stroke:none;fill-rule:nonzero;fill:rgb(0.392157%,0%,0.784314%);fill-opacity:1;" d="M 9.75 0 C 8.582031 0 7.632812 0.945312 7.632812 2.113281 C 7.632812 3.28125 8.582031 4.230469 9.75 4.230469 C 10.917969 4.230469 11.863281 3.28125 11.863281 2.113281 C 11.863281 0.945312 10.917969 0 9.75 0 Z M 9.75 3.792969 C 8.824219 3.792969 8.070312 3.039062 8.070312 2.113281 C 8.070312 1.1875 8.824219 0.4375 9.75 0.4375 C 10.675781 0.4375 11.425781 1.1875 11.425781 2.113281 C 11.425781 3.039062 10.675781 3.792969 9.75 3.792969 Z M 9.75 3.792969 "/>
</g>
</svg>
