<?xml version="1.0" encoding="UTF-8"?>
<svg xmlns="http://www.w3.org/2000/svg" xmlns:xlink="http://www.w3.org/1999/xlink" width="28pt" height="28pt" viewBox="0 0 28 28" version="1.1">
<g id="surface1">
<path style=" stroke:none;fill-rule:nonzero;fill:rgb(0%,0%,0%);fill-opacity:1;" d="M 26.261719 10.6875 C 26.246094 10.664062 26.230469 10.644531 26.207031 10.621094 L 25.226562 9.675781 C 26.039062 9.492188 26.914062 8.808594 26.914062 8.109375 C 26.914062 7.296875 25.785156 7.007812 24.820312 7.007812 C 23.808594 7.007812 23.691406 7.699219 23.679688 8.1875 L 21.148438 5.746094 C 20.636719 5.238281 19.660156 4.835938 18.929688 4.835938 L 9.066406 4.835938 C 8.339844 4.835938 7.363281 5.238281 6.847656 5.746094 L 4.316406 8.1875 C 4.304688 7.699219 4.1875 7.007812 3.179688 7.007812 C 2.214844 7.007812 1.082031 7.296875 1.082031 8.109375 C 1.082031 8.808594 1.960938 9.492188 2.773438 9.675781 L 1.792969 10.621094 C 1.769531 10.644531 1.753906 10.664062 1.734375 10.6875 C 0.6875 11.585938 0 13.246094 0 14.457031 L 0 18.042969 C 0 18.914062 0.34375 19.703125 0.898438 20.292969 L 0.898438 21.683594 C 0.898438 22.5 1.578125 23.164062 2.417969 23.164062 L 4.253906 23.164062 C 5.089844 23.164062 5.773438 22.5 5.773438 21.683594 L 5.773438 21.328125 L 22.226562 21.328125 L 22.226562 21.683594 C 22.226562 22.5 22.90625 23.164062 23.746094 23.164062 L 25.582031 23.164062 C 26.417969 23.164062 27.097656 22.5 27.097656 21.683594 L 27.097656 20.292969 C 27.65625 19.703125 27.996094 18.914062 27.996094 18.042969 L 27.996094 14.457031 C 28 13.246094 27.3125 11.585938 26.261719 10.6875 Z M 7.777344 6.832031 C 8.136719 6.535156 8.757812 6.308594 9.066406 6.308594 L 18.929688 6.308594 C 19.242188 6.308594 19.863281 6.535156 20.21875 6.832031 L 23.539062 10.046875 L 4.460938 10.046875 Z M 1.140625 13.914062 C 1.140625 13.027344 1.832031 12.3125 2.683594 12.3125 C 3.539062 12.3125 6.324219 13.949219 6.324219 14.832031 C 6.324219 15.714844 3.539062 15.511719 2.683594 15.511719 C 1.832031 15.511719 1.140625 14.796875 1.140625 13.914062 Z M 5.773438 19.757812 L 3.4375 19.757812 C 2.953125 19.609375 2.613281 19.433594 2.371094 19.242188 C 2.246094 19.148438 2.152344 19.046875 2.082031 18.949219 C 2.007812 18.847656 1.953125 18.75 1.917969 18.652344 C 1.703125 18.039062 2.148438 17.476562 2.148438 17.476562 L 5.128906 17.476562 L 7.117188 19.753906 Z M 18.285156 19.757812 L 9.714844 19.757812 C 8.824219 19.757812 8.097656 19.03125 8.097656 18.140625 L 19.902344 18.140625 C 19.902344 19.03125 19.175781 19.757812 18.285156 19.757812 Z M 18.660156 17.035156 L 9.339844 17.035156 C 8.367188 17.035156 7.578125 15.835938 7.578125 14.359375 L 20.417969 14.359375 C 20.417969 15.839844 19.628906 17.035156 18.660156 17.035156 Z M 26.082031 18.652344 C 26.046875 18.753906 25.992188 18.851562 25.917969 18.949219 C 25.84375 19.046875 25.75 19.148438 25.628906 19.242188 C 25.386719 19.433594 25.046875 19.609375 24.5625 19.757812 L 20.882812 19.757812 L 22.871094 17.476562 L 25.847656 17.476562 C 25.847656 17.476562 26.296875 18.039062 26.082031 18.652344 Z M 25.316406 15.511719 C 24.460938 15.511719 21.675781 15.714844 21.675781 14.832031 C 21.675781 13.949219 24.460938 12.3125 25.316406 12.3125 C 26.167969 12.3125 26.859375 13.027344 26.859375 13.914062 C 26.859375 14.796875 26.167969 15.511719 25.316406 15.511719 Z M 25.316406 15.511719 "/>
</g>
</svg>
