<?xml version="1.0" encoding="UTF-8"?>
<svg xmlns="http://www.w3.org/2000/svg" xmlns:xlink="http://www.w3.org/1999/xlink" width="28pt" height="28pt" viewBox="0 0 28 28" version="1.1">
<g id="surface1">
<path style=" stroke:none;fill-rule:nonzero;fill:rgb(0%,0%,0%);fill-opacity:1;" d="M 22.339844 10.585938 C 20.242188 8.695312 17.496094 7.605469 14.558594 7.484375 L 14.558594 0.558594 C 14.558594 0.25 14.308594 0 14 0 C 13.691406 0 13.441406 0.25 13.441406 0.558594 L 13.441406 7.484375 C 10.503906 7.605469 7.757812 8.695312 5.660156 10.585938 C 3.414062 12.609375 2.175781 15.304688 2.175781 18.175781 C 2.175781 18.484375 2.425781 18.734375 2.734375 18.734375 L 9.203125 18.734375 C 9.503906 20.90625 11.539062 22.585938 14 22.585938 C 16.460938 22.585938 18.496094 20.90625 18.796875 18.734375 L 25.265625 18.734375 C 25.574219 18.734375 25.824219 18.484375 25.824219 18.175781 C 25.824219 15.304688 24.585938 12.609375 22.339844 10.585938 Z M 14 21.472656 C 12.164062 21.472656 10.632812 20.285156 10.332031 18.734375 L 17.667969 18.734375 C 17.367188 20.285156 15.835938 21.472656 14 21.472656 Z M 3.308594 17.617188 C 3.632812 12.589844 8.304688 8.585938 14 8.585938 C 19.695312 8.585938 24.367188 12.589844 24.691406 17.617188 Z M 3.308594 17.617188 "/>
<path style=" stroke:none;fill-rule:nonzero;fill:rgb(0%,0%,0%);fill-opacity:1;" d="M 13.941406 23.472656 C 13.632812 23.472656 13.382812 23.722656 13.382812 24.03125 L 13.382812 27.441406 C 13.382812 27.75 13.632812 28 13.941406 28 C 14.25 28 14.5 27.75 14.5 27.441406 L 14.5 24.03125 C 14.5 23.722656 14.25 23.472656 13.941406 23.472656 Z M 13.941406 23.472656 "/>
<path style=" stroke:none;fill-rule:nonzero;fill:rgb(0%,0%,0%);fill-opacity:1;" d="M 20.875 24.359375 L 20.738281 24.222656 C 20.519531 24.007812 20.167969 24.007812 19.949219 24.222656 C 19.730469 24.441406 19.730469 24.796875 19.949219 25.011719 L 20.085938 25.148438 C 20.195312 25.257812 20.335938 25.3125 20.480469 25.3125 C 20.621094 25.3125 20.765625 25.257812 20.875 25.148438 C 21.089844 24.929688 21.089844 24.578125 20.875 24.359375 Z M 20.875 24.359375 "/>
<path style=" stroke:none;fill-rule:nonzero;fill:rgb(0%,0%,0%);fill-opacity:1;" d="M 19.511719 23 L 18.460938 21.945312 C 18.242188 21.730469 17.890625 21.730469 17.671875 21.945312 C 17.453125 22.164062 17.453125 22.519531 17.671875 22.734375 L 18.722656 23.789062 C 18.832031 23.898438 18.976562 23.949219 19.117188 23.949219 C 19.261719 23.949219 19.402344 23.898438 19.511719 23.789062 C 19.730469 23.570312 19.730469 23.214844 19.511719 23 Z M 19.511719 23 "/>
<path style=" stroke:none;fill-rule:nonzero;fill:rgb(0%,0%,0%);fill-opacity:1;" d="M 10.140625 22.113281 C 9.921875 21.894531 9.570312 21.894531 9.351562 22.113281 L 6.941406 24.527344 C 6.722656 24.742188 6.722656 25.097656 6.941406 25.316406 C 7.046875 25.425781 7.191406 25.476562 7.335938 25.476562 C 7.476562 25.476562 7.621094 25.425781 7.730469 25.316406 L 10.140625 22.902344 C 10.359375 22.683594 10.359375 22.332031 10.140625 22.113281 Z M 10.140625 22.113281 "/>
</g>
</svg>
