<?xml version="1.0" encoding="UTF-8"?>
<svg xmlns="http://www.w3.org/2000/svg" xmlns:xlink="http://www.w3.org/1999/xlink" width="28pt" height="28pt" viewBox="0 0 28 28" version="1.1">
<g id="surface1">
<path style=" stroke:none;fill-rule:nonzero;fill:rgb(0%,0%,0%);fill-opacity:1;" d="M 13.570312 23.390625 L 14.429688 23.390625 L 14.429688 26.109375 L 13.570312 26.109375 Z M 13.570312 23.390625 "/>
<path style=" stroke:none;fill-rule:nonzero;fill:rgb(0%,0%,0%);fill-opacity:1;" d="M 13.570312 27.140625 L 14.429688 27.140625 L 14.429688 28 L 13.570312 28 Z M 13.570312 27.140625 "/>
<path style=" stroke:none;fill-rule:nonzero;fill:rgb(0%,0%,0%);fill-opacity:1;" d="M 17.628906 9.789062 L 16.117188 9.789062 L 16.117188 7.296875 L 14.429688 7.296875 L 14.429688 0 L 13.570312 0 L 13.570312 7.296875 L 11.882812 7.296875 L 11.882812 9.789062 L 10.371094 9.789062 L 5.492188 18.65625 L 10.566406 18.65625 C 10.777344 20.363281 12.234375 21.691406 14 21.691406 C 15.765625 21.691406 17.222656 20.363281 17.433594 18.65625 L 22.507812 18.65625 Z M 12.738281 8.15625 L 15.261719 8.15625 L 15.261719 9.789062 L 12.738281 9.789062 Z M 14 20.835938 C 12.710938 20.835938 11.636719 19.890625 11.429688 18.65625 L 16.570312 18.65625 C 16.363281 19.890625 15.289062 20.835938 14 20.835938 Z M 6.941406 17.800781 L 10.875 10.644531 L 17.125 10.644531 L 21.058594 17.800781 Z M 6.941406 17.800781 "/>
<path style=" stroke:none;fill-rule:nonzero;fill:rgb(0%,0%,0%);fill-opacity:1;" d="M 16.636719 22.480469 L 17.242188 21.875 L 19.164062 23.796875 L 18.558594 24.40625 Z M 16.636719 22.480469 "/>
<path style=" stroke:none;fill-rule:nonzero;fill:rgb(0%,0%,0%);fill-opacity:1;" d="M 19.285156 25.132812 L 19.894531 24.527344 L 20.5 25.132812 L 19.894531 25.738281 Z M 19.285156 25.132812 "/>
<path style=" stroke:none;fill-rule:nonzero;fill:rgb(0%,0%,0%);fill-opacity:1;" d="M 8.832031 23.796875 L 10.757812 21.875 L 11.363281 22.480469 L 9.441406 24.402344 Z M 8.832031 23.796875 "/>
<path style=" stroke:none;fill-rule:nonzero;fill:rgb(0%,0%,0%);fill-opacity:1;" d="M 7.5 25.132812 L 8.105469 24.527344 L 8.714844 25.132812 L 8.105469 25.742188 Z M 7.5 25.132812 "/>
</g>
</svg>
