<?xml version="1.0" encoding="UTF-8"?>
<svg xmlns="http://www.w3.org/2000/svg" xmlns:xlink="http://www.w3.org/1999/xlink" width="28pt" height="28pt" viewBox="0 0 28 28" version="1.1">
<g id="surface1">
<path style=" stroke:none;fill-rule:nonzero;fill:rgb(0%,0%,0%);fill-opacity:1;" d="M 21.824219 8.46875 C 21.648438 8.320312 21.386719 8.335938 21.234375 8.507812 C 21.085938 8.683594 21.101562 8.945312 21.273438 9.097656 C 23.570312 11.105469 24.929688 13.96875 25.042969 17 L 6.570312 17 C 6.339844 17 6.15625 17.1875 6.15625 17.417969 C 6.15625 17.648438 6.339844 17.832031 6.570312 17.832031 L 10.1875 17.832031 C 9.9375 18.375 9.808594 18.96875 9.808594 19.578125 C 9.808594 21.886719 11.6875 23.769531 14 23.769531 C 16.3125 23.769531 18.191406 21.886719 18.191406 19.578125 C 18.191406 18.96875 18.0625 18.375 17.8125 17.832031 L 25.46875 17.832031 C 25.699219 17.832031 25.882812 17.648438 25.882812 17.417969 C 25.882812 13.988281 24.402344 10.730469 21.824219 8.46875 Z M 14 22.9375 C 12.148438 22.9375 10.640625 21.429688 10.640625 19.578125 C 10.640625 18.957031 10.808594 18.359375 11.128906 17.832031 L 13.585938 17.832031 L 13.585938 19.039062 L 12.53125 20.09375 C 12.367188 20.253906 12.367188 20.519531 12.53125 20.679688 C 12.695312 20.84375 12.957031 20.84375 13.121094 20.679688 L 14 19.800781 L 14.882812 20.679688 C 14.960938 20.761719 15.070312 20.804688 15.175781 20.804688 C 15.28125 20.804688 15.386719 20.761719 15.46875 20.679688 C 15.632812 20.519531 15.632812 20.253906 15.46875 20.09375 L 14.414062 19.039062 L 14.414062 17.832031 L 16.871094 17.832031 C 17.191406 18.359375 17.359375 18.957031 17.359375 19.578125 C 17.359375 21.429688 15.851562 22.9375 14 22.9375 Z M 14 22.9375 "/>
<path style=" stroke:none;fill-rule:nonzero;fill:rgb(0%,0%,0%);fill-opacity:1;" d="M 20.703125 7.601562 C 19.523438 6.796875 18.226562 6.21875 16.863281 5.878906 L 16.195312 1.8125 C 16.160156 1.613281 15.988281 1.464844 15.785156 1.464844 L 14.414062 1.464844 L 14.414062 0.414062 C 14.414062 0.1875 14.230469 0 14 0 C 13.769531 0 13.582031 0.1875 13.582031 0.414062 L 13.582031 1.464844 L 12.214844 1.464844 C 12.011719 1.464844 11.839844 1.613281 11.804688 1.8125 L 11.136719 5.878906 C 9.054688 6.390625 7.148438 7.460938 5.597656 9.015625 C 3.351562 11.257812 2.117188 14.242188 2.117188 17.417969 C 2.117188 17.648438 2.300781 17.832031 2.53125 17.832031 L 5.183594 17.832031 C 5.414062 17.832031 5.601562 17.648438 5.601562 17.417969 C 5.601562 17.1875 5.414062 17 5.183594 17 L 2.957031 17 C 3.175781 11.097656 8.042969 6.363281 14 6.363281 C 16.238281 6.363281 18.394531 7.03125 20.234375 8.289062 C 20.421875 8.417969 20.679688 8.371094 20.808594 8.179688 C 20.941406 7.988281 20.890625 7.730469 20.703125 7.601562 Z M 14 5.53125 C 13.324219 5.53125 12.660156 5.589844 12.007812 5.699219 L 12.570312 2.296875 L 15.429688 2.296875 L 15.992188 5.699219 C 15.339844 5.589844 14.671875 5.53125 14 5.53125 Z M 14 5.53125 "/>
<path style=" stroke:none;fill-rule:nonzero;fill:rgb(0%,0%,0%);fill-opacity:1;" d="M 14 24.757812 C 13.769531 24.757812 13.585938 24.945312 13.585938 25.175781 L 13.585938 27.585938 C 13.585938 27.8125 13.769531 28 14 28 C 14.230469 28 14.414062 27.8125 14.414062 27.585938 L 14.414062 25.175781 C 14.414062 24.945312 14.230469 24.757812 14 24.757812 Z M 14 24.757812 "/>
<path style=" stroke:none;fill-rule:nonzero;fill:rgb(0%,0%,0%);fill-opacity:1;" d="M 11.304688 24.058594 C 11.101562 23.949219 10.851562 24.019531 10.738281 24.21875 L 9.566406 26.324219 C 9.457031 26.527344 9.527344 26.78125 9.726562 26.890625 C 9.792969 26.925781 9.863281 26.945312 9.929688 26.945312 C 10.074219 26.945312 10.21875 26.867188 10.292969 26.730469 L 11.464844 24.625 C 11.578125 24.425781 11.503906 24.171875 11.304688 24.058594 Z M 11.304688 24.058594 "/>
<path style=" stroke:none;fill-rule:nonzero;fill:rgb(0%,0%,0%);fill-opacity:1;" d="M 9.347656 22.230469 C 9.222656 22.039062 8.964844 21.984375 8.773438 22.109375 L 6.75 23.421875 C 6.558594 23.546875 6.503906 23.804688 6.628906 23.996094 C 6.707031 24.117188 6.839844 24.183594 6.976562 24.183594 C 7.054688 24.183594 7.132812 24.164062 7.203125 24.117188 L 9.226562 22.804688 C 9.417969 22.679688 9.472656 22.425781 9.347656 22.230469 Z M 9.347656 22.230469 "/>
<path style=" stroke:none;fill-rule:nonzero;fill:rgb(0%,0%,0%);fill-opacity:1;" d="M 18.433594 26.328125 L 17.261719 24.21875 C 17.148438 24.019531 16.898438 23.949219 16.695312 24.058594 C 16.496094 24.171875 16.421875 24.425781 16.535156 24.625 L 17.707031 26.730469 C 17.78125 26.867188 17.925781 26.945312 18.070312 26.945312 C 18.140625 26.945312 18.207031 26.925781 18.273438 26.890625 C 18.472656 26.78125 18.546875 26.527344 18.433594 26.328125 Z M 18.433594 26.328125 "/>
<path style=" stroke:none;fill-rule:nonzero;fill:rgb(0%,0%,0%);fill-opacity:1;" d="M 21.25 23.421875 L 19.226562 22.109375 C 19.035156 21.984375 18.777344 22.039062 18.652344 22.230469 C 18.527344 22.425781 18.582031 22.679688 18.777344 22.804688 L 20.796875 24.117188 C 20.867188 24.164062 20.945312 24.183594 21.023438 24.183594 C 21.160156 24.183594 21.292969 24.117188 21.371094 23.996094 C 21.496094 23.804688 21.441406 23.546875 21.25 23.421875 Z M 21.25 23.421875 "/>
</g>
</svg>
