<?xml version="1.0" encoding="UTF-8"?>
<svg xmlns="http://www.w3.org/2000/svg" xmlns:xlink="http://www.w3.org/1999/xlink" width="28pt" height="28pt" viewBox="0 0 28 28" version="1.1">
<g id="surface1">
<path style=" stroke:none;fill-rule:nonzero;fill:rgb(0%,0%,0%);fill-opacity:1;" d="M 27.988281 18.570312 L 26.589844 12.035156 C 26.542969 11.820312 26.351562 11.667969 26.132812 11.667969 L 22.398438 11.667969 C 22.179688 11.667969 21.988281 11.820312 21.945312 12.035156 L 20.542969 18.570312 C 20.488281 18.820312 20.648438 19.070312 20.902344 19.121094 C 20.933594 19.128906 20.96875 19.132812 21 19.132812 L 23.800781 19.132812 L 23.800781 21 C 23.796875 23.320312 21.917969 25.199219 19.601562 25.199219 L 18.667969 25.199219 C 16.347656 25.199219 14.46875 23.320312 14.464844 21 L 15.398438 21 C 15.65625 21 15.867188 20.789062 15.867188 20.535156 C 15.867188 20.277344 15.65625 20.066406 15.398438 20.066406 L 14.464844 20.066406 L 14.464844 19.132812 L 17.265625 19.132812 C 17.523438 19.132812 17.734375 18.925781 17.734375 18.667969 C 17.734375 18.632812 17.730469 18.601562 17.722656 18.570312 L 16.324219 12.035156 C 16.277344 11.820312 16.085938 11.667969 15.867188 11.667969 L 14.464844 11.667969 L 14.464844 2.800781 L 15.867188 2.800781 C 16.125 2.800781 16.332031 2.589844 16.332031 2.332031 L 16.332031 0.933594 L 17.734375 0.933594 C 17.992188 0.933594 18.199219 0.722656 18.199219 0.46875 C 18.199219 0.210938 17.992188 0 17.734375 0 L 10.265625 0 C 10.007812 0 9.800781 0.210938 9.800781 0.46875 C 9.800781 0.722656 10.007812 0.933594 10.265625 0.933594 L 11.667969 0.933594 L 11.667969 2.332031 C 11.667969 2.589844 11.875 2.800781 12.132812 2.800781 L 13.535156 2.800781 L 13.535156 11.667969 L 12.132812 11.667969 C 11.914062 11.667969 11.722656 11.820312 11.675781 12.035156 L 10.277344 18.570312 C 10.222656 18.820312 10.382812 19.070312 10.636719 19.121094 C 10.667969 19.128906 10.699219 19.132812 10.734375 19.132812 L 13.535156 19.132812 L 13.535156 20.066406 L 12.601562 20.066406 C 12.34375 20.066406 12.132812 20.277344 12.132812 20.535156 C 12.132812 20.789062 12.34375 21 12.601562 21 L 13.535156 21 C 13.53125 23.320312 11.652344 25.199219 9.332031 25.199219 L 8.398438 25.199219 C 6.082031 25.199219 4.203125 23.320312 4.199219 21 L 4.199219 19.132812 L 7 19.132812 C 7.257812 19.132812 7.46875 18.925781 7.46875 18.667969 C 7.46875 18.632812 7.464844 18.601562 7.457031 18.570312 L 6.054688 12.035156 C 6.011719 11.820312 5.820312 11.667969 5.601562 11.667969 L 1.867188 11.667969 C 1.648438 11.667969 1.457031 11.820312 1.410156 12.035156 L 0.0117188 18.570312 C -0.0429688 18.820312 0.117188 19.070312 0.367188 19.121094 C 0.402344 19.128906 0.433594 19.132812 0.46875 19.132812 L 3.265625 19.132812 L 3.265625 21 C 3.269531 23.832031 5.566406 26.128906 8.398438 26.132812 L 9.332031 26.132812 C 11.007812 26.132812 12.574219 25.3125 13.535156 23.941406 L 13.535156 27.53125 C 13.535156 27.789062 13.742188 28 14 28 C 14.257812 28 14.464844 27.789062 14.464844 27.53125 L 14.464844 23.941406 C 15.425781 25.3125 16.992188 26.132812 18.667969 26.132812 L 19.601562 26.132812 C 22.433594 26.128906 24.730469 23.832031 24.734375 21 L 24.734375 19.132812 L 27.535156 19.132812 C 27.789062 19.132812 28 18.925781 28 18.667969 C 28 18.632812 27.996094 18.601562 27.988281 18.570312 Z M 1.042969 18.199219 L 2.246094 12.601562 L 5.222656 12.601562 L 6.421875 18.199219 Z M 12.601562 1.867188 L 12.601562 0.933594 L 15.398438 0.933594 L 15.398438 1.867188 Z M 11.3125 18.199219 L 12.511719 12.601562 L 15.488281 12.601562 L 16.6875 18.199219 Z M 21.578125 18.199219 L 22.777344 12.601562 L 25.753906 12.601562 L 26.957031 18.199219 Z M 21.578125 18.199219 "/>
</g>
</svg>
