<?xml version="1.0" encoding="UTF-8"?>
<svg xmlns="http://www.w3.org/2000/svg" xmlns:xlink="http://www.w3.org/1999/xlink" width="28pt" height="28pt" viewBox="0 0 28 28" version="1.1">
<g id="surface1">
<path style=" stroke:none;fill-rule:nonzero;fill:rgb(0%,0%,0%);fill-opacity:1;" d="M 13.535156 21.933594 L 14.464844 21.933594 L 14.464844 22.867188 L 13.535156 22.867188 Z M 13.535156 21.933594 "/>
<path style=" stroke:none;fill-rule:nonzero;fill:rgb(0%,0%,0%);fill-opacity:1;" d="M 15.980469 21.304688 L 16.640625 20.648438 L 17.300781 21.304688 L 16.640625 21.964844 Z M 15.980469 21.304688 "/>
<path style=" stroke:none;fill-rule:nonzero;fill:rgb(0%,0%,0%);fill-opacity:1;" d="M 17.265625 18.199219 L 18.199219 18.199219 L 18.199219 19.132812 L 17.265625 19.132812 Z M 17.265625 18.199219 "/>
<path style=" stroke:none;fill-rule:nonzero;fill:rgb(0%,0%,0%);fill-opacity:1;" d="M 9.800781 18.199219 L 10.734375 18.199219 L 10.734375 19.132812 L 9.800781 19.132812 Z M 9.800781 18.199219 "/>
<path style=" stroke:none;fill-rule:nonzero;fill:rgb(0%,0%,0%);fill-opacity:1;" d="M 10.699219 21.304688 L 11.359375 20.648438 L 12.019531 21.304688 L 11.359375 21.964844 Z M 10.699219 21.304688 "/>
<path style=" stroke:none;fill-rule:nonzero;fill:rgb(0%,0%,0%);fill-opacity:1;" d="M 23.332031 25.667969 L 24.265625 25.667969 L 24.265625 26.601562 L 23.332031 26.601562 Z M 23.332031 25.667969 "/>
<path style=" stroke:none;fill-rule:nonzero;fill:rgb(0%,0%,0%);fill-opacity:1;" d="M 25.78125 25.039062 L 26.441406 24.378906 L 27.101562 25.039062 L 26.441406 25.699219 Z M 25.78125 25.039062 "/>
<path style=" stroke:none;fill-rule:nonzero;fill:rgb(0%,0%,0%);fill-opacity:1;" d="M 27.066406 21.933594 L 28 21.933594 L 28 22.867188 L 27.066406 22.867188 Z M 27.066406 21.933594 "/>
<path style=" stroke:none;fill-rule:nonzero;fill:rgb(0%,0%,0%);fill-opacity:1;" d="M 19.601562 21.933594 L 20.535156 21.933594 L 20.535156 22.867188 L 19.601562 22.867188 Z M 19.601562 21.933594 "/>
<path style=" stroke:none;fill-rule:nonzero;fill:rgb(0%,0%,0%);fill-opacity:1;" d="M 20.5 25.039062 L 21.160156 24.378906 L 21.820312 25.039062 L 21.160156 25.699219 Z M 20.5 25.039062 "/>
<path style=" stroke:none;fill-rule:nonzero;fill:rgb(0%,0%,0%);fill-opacity:1;" d="M 3.734375 23.800781 L 4.667969 23.800781 L 4.667969 24.734375 L 3.734375 24.734375 Z M 3.734375 23.800781 "/>
<path style=" stroke:none;fill-rule:nonzero;fill:rgb(0%,0%,0%);fill-opacity:1;" d="M 0.898438 23.171875 L 1.558594 22.511719 L 2.21875 23.171875 L 1.558594 23.832031 Z M 0.898438 23.171875 "/>
<path style=" stroke:none;fill-rule:nonzero;fill:rgb(0%,0%,0%);fill-opacity:1;" d="M 0 20.066406 L 0.933594 20.066406 L 0.933594 21 L 0 21 Z M 0 20.066406 "/>
<path style=" stroke:none;fill-rule:nonzero;fill:rgb(0%,0%,0%);fill-opacity:1;" d="M 7.464844 20.066406 L 8.398438 20.066406 L 8.398438 21 L 7.464844 21 Z M 7.464844 20.066406 "/>
<path style=" stroke:none;fill-rule:nonzero;fill:rgb(0%,0%,0%);fill-opacity:1;" d="M 6.179688 23.171875 L 6.839844 22.511719 L 7.5 23.171875 L 6.839844 23.832031 Z M 6.179688 23.171875 "/>
<path style=" stroke:none;fill-rule:nonzero;fill:rgb(0%,0%,0%);fill-opacity:1;" d="M 27.535156 1.398438 L 0.464844 1.398438 C 0.207031 1.398438 0 1.609375 0 1.867188 L 0 3.734375 C 0 3.992188 0.207031 4.199219 0.464844 4.199219 L 3.734375 4.199219 L 3.734375 16.332031 L 3.265625 16.332031 C 3.007812 16.332031 2.800781 16.542969 2.800781 16.800781 L 2.800781 18.675781 C 1.996094 19.277344 1.667969 20.328125 1.984375 21.28125 C 2.300781 22.234375 3.191406 22.878906 4.199219 22.878906 C 5.203125 22.878906 6.09375 22.234375 6.414062 21.28125 C 6.730469 20.328125 6.402344 19.277344 5.597656 18.675781 C 5.597656 18.671875 5.597656 18.671875 5.597656 18.667969 L 5.597656 16.800781 C 5.597656 16.542969 5.386719 16.332031 5.128906 16.332031 L 4.667969 16.332031 L 4.667969 4.199219 L 13.535156 4.199219 L 13.535156 14.464844 L 13.066406 14.464844 C 12.808594 14.464844 12.601562 14.675781 12.601562 14.933594 L 12.601562 16.808594 C 11.796875 17.414062 11.46875 18.460938 11.785156 19.414062 C 12.101562 20.367188 12.992188 21.011719 14 21.011719 C 15.003906 21.011719 15.894531 20.367188 16.210938 19.414062 C 16.53125 18.460938 16.199219 17.414062 15.394531 16.808594 C 15.394531 16.804688 15.394531 16.804688 15.394531 16.800781 L 15.394531 14.933594 C 15.394531 14.675781 15.1875 14.464844 14.929688 14.464844 L 14.464844 14.464844 L 14.464844 4.199219 L 23.332031 4.199219 L 23.332031 18.199219 L 22.867188 18.199219 C 22.609375 18.199219 22.398438 18.410156 22.398438 18.667969 L 22.398438 20.542969 C 21.59375 21.144531 21.265625 22.195312 21.585938 23.148438 C 21.902344 24.101562 22.792969 24.746094 23.796875 24.746094 C 24.804688 24.746094 25.695312 24.101562 26.011719 23.148438 C 26.328125 22.195312 26 21.144531 25.195312 20.542969 C 25.195312 20.539062 25.195312 20.535156 25.195312 20.535156 L 25.195312 18.667969 C 25.195312 18.410156 24.988281 18.199219 24.730469 18.199219 L 24.265625 18.199219 L 24.265625 4.199219 L 27.535156 4.199219 C 27.792969 4.199219 28 3.992188 28 3.734375 L 28 1.867188 C 28 1.609375 27.792969 1.398438 27.535156 1.398438 Z M 4.199219 21.933594 C 3.425781 21.933594 2.800781 21.304688 2.800781 20.535156 C 2.800781 19.761719 3.425781 19.132812 4.199219 19.132812 C 4.972656 19.132812 5.601562 19.761719 5.601562 20.535156 C 5.601562 21.304688 4.972656 21.933594 4.199219 21.933594 Z M 3.734375 18.199219 L 3.734375 17.265625 L 4.667969 17.265625 L 4.667969 18.199219 Z M 14 20.066406 C 13.226562 20.066406 12.601562 19.441406 12.601562 18.667969 C 12.601562 17.894531 13.226562 17.265625 14 17.265625 C 14.773438 17.265625 15.398438 17.894531 15.398438 18.667969 C 15.398438 19.441406 14.773438 20.066406 14 20.066406 Z M 13.535156 16.332031 L 13.535156 15.398438 L 14.464844 15.398438 L 14.464844 16.332031 Z M 23.800781 23.800781 C 23.027344 23.800781 22.398438 23.171875 22.398438 22.398438 C 22.398438 21.625 23.027344 21 23.800781 21 C 24.574219 21 25.199219 21.625 25.199219 22.398438 C 25.199219 23.171875 24.574219 23.800781 23.800781 23.800781 Z M 23.332031 20.066406 L 23.332031 19.132812 L 24.265625 19.132812 L 24.265625 20.066406 Z M 27.066406 3.265625 L 0.933594 3.265625 L 0.933594 2.332031 L 27.066406 2.332031 Z M 27.066406 3.265625 "/>
</g>
</svg>
