<?xml version="1.0" encoding="UTF-8"?>
<svg xmlns="http://www.w3.org/2000/svg" xmlns:xlink="http://www.w3.org/1999/xlink" width="28pt" height="28pt" viewBox="0 0 28 28" version="1.1">
<g id="surface1">
<path style=" stroke:none;fill-rule:nonzero;fill:rgb(0%,0%,0%);fill-opacity:1;" d="M 2.296875 10.636719 L 5.359375 9.597656 L 7.382812 10.773438 L 5.222656 11.511719 C 4.921875 11.621094 4.757812 11.921875 4.867188 12.222656 C 4.976562 12.523438 5.277344 12.6875 5.578125 12.578125 L 8.640625 11.539062 L 9.84375 12.195312 C 10.089844 12.359375 10.417969 12.277344 10.582031 12.003906 C 10.746094 11.757812 10.664062 11.429688 10.390625 11.265625 L 9.214844 10.582031 L 8.585938 7.410156 C 8.503906 7.109375 8.230469 6.917969 7.929688 6.972656 C 7.628906 7.054688 7.4375 7.328125 7.492188 7.628906 L 7.957031 9.761719 L 5.933594 8.585938 L 5.304688 5.414062 C 5.222656 5.113281 4.949219 4.921875 4.648438 4.976562 C 4.347656 5.058594 4.15625 5.332031 4.210938 5.632812 L 4.648438 7.875 L 2.625 6.726562 C 2.378906 6.5625 2.050781 6.644531 1.886719 6.917969 C 1.722656 7.164062 1.804688 7.492188 2.078125 7.65625 L 4.101562 8.832031 L 1.941406 9.570312 C 1.640625 9.679688 1.476562 9.980469 1.585938 10.28125 C 1.695312 10.582031 1.996094 10.746094 2.296875 10.636719 Z M 2.296875 10.636719 "/>
<path style=" stroke:none;fill-rule:nonzero;fill:rgb(0%,0%,0%);fill-opacity:1;" d="M 19.332031 14.027344 C 19.414062 13.753906 19.277344 13.425781 18.976562 13.34375 L 16.488281 12.523438 L 16.84375 9.84375 C 16.871094 9.679688 16.816406 9.542969 16.679688 9.433594 C 16.488281 9.1875 16.132812 9.1875 15.914062 9.378906 L 13.945312 11.128906 L 11.8125 9.488281 C 11.703125 9.378906 11.539062 9.351562 11.375 9.378906 C 11.074219 9.460938 10.882812 9.734375 10.9375 10.035156 L 11.457031 12.605469 L 8.96875 13.644531 C 8.832031 13.699219 8.722656 13.808594 8.667969 13.972656 C 8.585938 14.246094 8.722656 14.574219 9.023438 14.65625 L 11.511719 15.476562 L 11.15625 18.15625 C 11.128906 18.320312 11.183594 18.457031 11.292969 18.59375 C 11.484375 18.839844 11.839844 18.839844 12.058594 18.648438 L 14.054688 16.871094 L 16.1875 18.511719 C 16.296875 18.621094 16.460938 18.648438 16.625 18.621094 C 16.925781 18.539062 17.117188 18.265625 17.0625 17.964844 L 16.542969 15.394531 L 19.03125 14.355469 C 19.167969 14.300781 19.277344 14.191406 19.332031 14.027344 Z M 15.695312 14.574219 C 15.449219 14.683594 15.3125 14.957031 15.367188 15.203125 L 15.667969 16.761719 L 14.328125 15.75 C 14.109375 15.558594 13.808594 15.585938 13.617188 15.777344 L 12.414062 16.84375 L 12.632812 15.175781 C 12.6875 14.902344 12.496094 14.65625 12.25 14.574219 L 10.746094 14.082031 L 12.304688 13.453125 C 12.550781 13.34375 12.6875 13.070312 12.632812 12.824219 L 12.304688 11.238281 L 13.644531 12.25 C 13.863281 12.441406 14.164062 12.414062 14.355469 12.222656 L 15.558594 11.15625 L 15.339844 12.824219 C 15.3125 13.097656 15.476562 13.34375 15.75 13.453125 L 17.253906 13.945312 Z M 15.695312 14.574219 "/>
<path style=" stroke:none;fill-rule:nonzero;fill:rgb(0%,0%,0%);fill-opacity:1;" d="M 11.730469 5.167969 C 11.511719 4.976562 11.15625 5.003906 10.964844 5.222656 C 10.773438 5.441406 10.800781 5.796875 11.019531 5.988281 L 13.453125 8.121094 L 13.453125 9.460938 C 13.453125 9.761719 13.699219 10.007812 14 10.007812 C 14.300781 10.007812 14.546875 9.761719 14.546875 9.460938 L 14.546875 8.121094 L 16.980469 5.988281 C 17.199219 5.796875 17.226562 5.441406 17.035156 5.222656 C 16.84375 5.003906 16.488281 4.976562 16.269531 5.167969 L 14.546875 6.671875 L 14.546875 4.320312 L 16.980469 2.1875 C 17.199219 1.996094 17.226562 1.640625 17.035156 1.421875 C 16.84375 1.203125 16.488281 1.175781 16.269531 1.367188 L 14.546875 2.871094 L 14.546875 0.546875 C 14.546875 0.246094 14.300781 0 14 0 C 13.699219 0 13.453125 0.246094 13.453125 0.546875 L 13.453125 2.871094 L 11.730469 1.367188 C 11.511719 1.175781 11.15625 1.203125 10.964844 1.421875 C 10.773438 1.640625 10.800781 1.996094 11.019531 2.1875 L 13.453125 4.320312 L 13.453125 6.671875 Z M 11.730469 5.167969 "/>
<path style=" stroke:none;fill-rule:nonzero;fill:rgb(0%,0%,0%);fill-opacity:1;" d="M 9.816406 15.777344 L 8.640625 16.460938 L 5.578125 15.394531 C 5.277344 15.3125 4.976562 15.449219 4.867188 15.75 C 4.785156 16.050781 4.921875 16.351562 5.222656 16.460938 L 7.355469 17.144531 L 5.332031 18.320312 L 2.269531 17.28125 C 1.96875 17.199219 1.667969 17.335938 1.558594 17.636719 C 1.476562 17.910156 1.613281 18.210938 1.914062 18.320312 L 4.074219 19.058594 L 2.050781 20.234375 C 1.804688 20.371094 1.695312 20.699219 1.859375 20.972656 C 1.996094 21.21875 2.324219 21.328125 2.597656 21.164062 L 4.621094 20.015625 L 4.183594 22.257812 C 4.128906 22.558594 4.320312 22.859375 4.621094 22.914062 C 4.921875 22.96875 5.222656 22.777344 5.277344 22.476562 L 5.878906 19.277344 L 7.902344 18.101562 L 7.464844 20.34375 C 7.410156 20.644531 7.601562 20.945312 7.902344 21 C 8.203125 21.054688 8.503906 20.863281 8.558594 20.5625 L 9.1875 17.390625 L 10.363281 16.707031 C 10.609375 16.570312 10.71875 16.242188 10.554688 15.96875 C 10.417969 15.722656 10.089844 15.613281 9.816406 15.777344 Z M 9.816406 15.777344 "/>
<path style=" stroke:none;fill-rule:nonzero;fill:rgb(0%,0%,0%);fill-opacity:1;" d="M 26.085938 9.679688 L 23.925781 8.941406 L 25.949219 7.765625 C 26.195312 7.628906 26.304688 7.300781 26.140625 7.027344 C 26.003906 6.78125 25.675781 6.671875 25.402344 6.835938 L 23.378906 7.984375 L 23.816406 5.742188 C 23.871094 5.441406 23.679688 5.140625 23.378906 5.085938 C 23.078125 5.03125 22.777344 5.222656 22.722656 5.523438 L 22.121094 8.722656 L 20.097656 9.898438 L 20.535156 7.65625 C 20.589844 7.355469 20.398438 7.054688 20.097656 7 C 19.796875 6.945312 19.496094 7.136719 19.441406 7.4375 L 18.8125 10.609375 L 17.636719 11.292969 C 17.390625 11.429688 17.28125 11.757812 17.445312 12.03125 C 17.582031 12.277344 17.910156 12.386719 18.183594 12.222656 L 19.359375 11.539062 L 22.449219 12.605469 C 22.722656 12.6875 23.023438 12.550781 23.132812 12.25 C 23.214844 11.949219 23.078125 11.648438 22.777344 11.539062 L 20.644531 10.882812 L 22.667969 9.707031 L 25.730469 10.746094 C 26.03125 10.828125 26.332031 10.691406 26.441406 10.390625 C 26.523438 10.089844 26.386719 9.789062 26.085938 9.679688 Z M 26.085938 9.679688 "/>
<path style=" stroke:none;fill-rule:nonzero;fill:rgb(0%,0%,0%);fill-opacity:1;" d="M 25.675781 17.390625 L 22.613281 18.429688 L 20.589844 17.253906 L 22.75 16.515625 C 23.050781 16.40625 23.214844 16.105469 23.105469 15.804688 C 23.023438 15.503906 22.722656 15.339844 22.421875 15.449219 L 19.359375 16.488281 L 18.183594 15.804688 C 17.9375 15.640625 17.609375 15.722656 17.445312 15.996094 C 17.28125 16.242188 17.363281 16.570312 17.636719 16.734375 L 18.785156 17.417969 L 19.414062 20.589844 C 19.496094 20.890625 19.769531 21.082031 20.070312 21.027344 C 20.371094 20.945312 20.5625 20.671875 20.507812 20.371094 L 20.015625 18.238281 L 22.039062 19.414062 L 22.667969 22.585938 C 22.75 22.886719 23.023438 23.078125 23.324219 23.023438 C 23.625 22.941406 23.816406 22.667969 23.761719 22.367188 L 23.324219 20.125 L 25.347656 21.273438 C 25.59375 21.4375 25.921875 21.355469 26.085938 21.082031 C 26.25 20.835938 26.167969 20.507812 25.894531 20.34375 L 23.871094 19.167969 L 26.03125 18.429688 C 26.332031 18.347656 26.496094 18.046875 26.386719 17.746094 C 26.277344 17.445312 25.976562 17.28125 25.675781 17.390625 Z M 25.675781 17.390625 "/>
<path style=" stroke:none;fill-rule:nonzero;fill:rgb(0%,0%,0%);fill-opacity:1;" d="M 16.269531 22.832031 C 16.488281 23.023438 16.84375 22.996094 17.035156 22.777344 C 17.226562 22.558594 17.199219 22.203125 16.980469 22.011719 L 14.546875 19.878906 L 14.546875 18.539062 C 14.546875 18.238281 14.300781 17.992188 14 17.992188 C 13.699219 17.992188 13.453125 18.238281 13.453125 18.539062 L 13.453125 19.878906 L 11.019531 22.011719 C 10.800781 22.203125 10.773438 22.558594 10.964844 22.777344 C 11.15625 22.996094 11.511719 23.023438 11.730469 22.832031 L 13.453125 21.328125 L 13.453125 23.679688 L 11.019531 25.8125 C 10.800781 26.003906 10.773438 26.359375 10.964844 26.578125 C 11.15625 26.796875 11.511719 26.824219 11.730469 26.632812 L 13.453125 25.128906 L 13.453125 27.453125 C 13.453125 27.753906 13.699219 28 14 28 C 14.300781 28 14.546875 27.753906 14.546875 27.453125 L 14.546875 25.128906 L 16.269531 26.632812 C 16.488281 26.824219 16.84375 26.796875 17.035156 26.578125 C 17.226562 26.359375 17.199219 26.003906 16.980469 25.8125 L 14.546875 23.679688 L 14.546875 21.328125 Z M 16.269531 22.832031 "/>
</g>
</svg>
