<?xml version="1.0" encoding="UTF-8"?>
<svg xmlns="http://www.w3.org/2000/svg" xmlns:xlink="http://www.w3.org/1999/xlink" width="28pt" height="28pt" viewBox="0 0 28 28" version="1.1">
<g id="surface1">
<path style=" stroke:none;fill-rule:nonzero;fill:rgb(0%,0%,0%);fill-opacity:1;" d="M 25.101562 13.40625 C 24.675781 12.523438 23.769531 11.917969 22.734375 11.917969 C 22.207031 11.917969 21.707031 12.074219 21.28125 12.351562 C 20.859375 12.074219 20.359375 11.917969 19.832031 11.917969 C 18.796875 11.917969 17.890625 12.523438 17.460938 13.40625 C 16.011719 13.410156 14.835938 14.585938 14.835938 16.039062 C 14.835938 16.152344 14.84375 16.265625 14.859375 16.378906 L 27.707031 16.378906 C 27.722656 16.265625 27.730469 16.152344 27.730469 16.039062 C 27.730469 14.585938 26.550781 13.410156 25.101562 13.40625 Z M 25.101562 13.40625 "/>
<path style=" stroke:none;fill-rule:nonzero;fill:rgb(0%,0%,0%);fill-opacity:1;" d="M 25.074219 18.207031 L 24.183594 21.539062 L 18.382812 21.539062 L 17.492188 18.207031 L 15.179688 18.207031 L 16.351562 28 L 26.214844 28 L 27.382812 18.207031 Z M 25.074219 18.207031 "/>
<path style=" stroke:none;fill-rule:nonzero;fill:rgb(0%,0%,0%);fill-opacity:1;" d="M 20.40625 0 C 19.179688 0 18.179688 1 18.179688 2.226562 C 18.179688 3.453125 19.179688 4.449219 20.40625 4.449219 C 21.632812 4.449219 22.632812 3.453125 22.632812 2.226562 C 22.632812 1 21.632812 0 20.40625 0 Z M 20.40625 2.625 C 20.1875 2.625 20.007812 2.445312 20.007812 2.226562 C 20.007812 2.003906 20.1875 1.824219 20.40625 1.824219 C 20.625 1.824219 20.804688 2.003906 20.804688 2.226562 C 20.804688 2.445312 20.625 2.625 20.40625 2.625 Z M 20.40625 2.625 "/>
<path style=" stroke:none;fill-rule:nonzero;fill:rgb(0%,0%,0%);fill-opacity:1;" d="M 24.125 4.277344 C 22.898438 4.277344 21.898438 5.277344 21.898438 6.503906 C 21.898438 7.730469 22.898438 8.730469 24.125 8.730469 C 25.351562 8.730469 26.351562 7.730469 26.351562 6.503906 C 26.351562 5.277344 25.351562 4.277344 24.125 4.277344 Z M 24.125 6.902344 C 23.90625 6.902344 23.726562 6.722656 23.726562 6.503906 C 23.726562 6.285156 23.90625 6.105469 24.125 6.105469 C 24.34375 6.105469 24.523438 6.285156 24.523438 6.503906 C 24.523438 6.722656 24.34375 6.902344 24.125 6.902344 Z M 24.125 6.902344 "/>
<path style=" stroke:none;fill-rule:nonzero;fill:rgb(0%,0%,0%);fill-opacity:1;" d="M 19.09375 6.746094 C 17.867188 6.746094 16.867188 7.746094 16.867188 8.972656 C 16.867188 10.199219 17.867188 11.195312 19.09375 11.195312 C 20.320312 11.195312 21.320312 10.199219 21.320312 8.972656 C 21.320312 7.746094 20.320312 6.746094 19.09375 6.746094 Z M 19.09375 9.371094 C 18.875 9.371094 18.695312 9.191406 18.695312 8.972656 C 18.695312 8.75 18.875 8.570312 19.09375 8.570312 C 19.3125 8.570312 19.492188 8.75 19.492188 8.972656 C 19.492188 9.191406 19.3125 9.371094 19.09375 9.371094 Z M 19.09375 9.371094 "/>
<path style=" stroke:none;fill-rule:nonzero;fill:rgb(0%,0%,0%);fill-opacity:1;" d="M 8.019531 19.714844 L 8.019531 3.539062 L 6.195312 3.539062 L 6.195312 19.714844 L 0.269531 19.714844 L 0.269531 24.464844 L 0.960938 24.464844 L 0.960938 28 L 13.253906 28 L 13.253906 24.464844 L 13.945312 24.464844 L 13.945312 19.714844 Z M 3.578125 26.175781 L 2.785156 26.175781 L 2.785156 24.464844 L 3.578125 24.464844 Z M 5.402344 26.175781 L 5.402344 24.464844 L 6.195312 24.464844 L 6.195312 26.175781 Z M 8.808594 26.175781 L 8.019531 26.175781 L 8.019531 24.464844 L 8.808594 24.464844 Z M 11.425781 26.175781 L 10.636719 26.175781 L 10.636719 24.464844 L 11.425781 24.464844 Z M 11.425781 26.175781 "/>
<path style=" stroke:none;fill-rule:nonzero;fill:rgb(0%,0%,0%);fill-opacity:1;" d="M 19.382812 18.207031 L 19.785156 19.714844 L 22.78125 19.714844 L 23.183594 18.207031 Z M 19.382812 18.207031 "/>
</g>
</svg>
