<?xml version="1.0" encoding="UTF-8"?>
<svg xmlns="http://www.w3.org/2000/svg" xmlns:xlink="http://www.w3.org/1999/xlink" width="28pt" height="28pt" viewBox="0 0 28 28" version="1.1">
<g id="surface1">
<path style=" stroke:none;fill-rule:evenodd;fill:rgb(0%,0%,0%);fill-opacity:1;" d="M 6.582031 26.097656 C 6.582031 26.097656 7 28 9.148438 28 L 18.851562 28 C 21 28 21.417969 26.097656 21.417969 26.097656 L 23.332031 7.464844 L 4.667969 7.464844 Z M 17.734375 10.265625 C 17.734375 9.75 18.152344 9.332031 18.667969 9.332031 C 19.183594 9.332031 19.601562 9.75 19.601562 10.265625 L 18.667969 24.265625 C 18.667969 24.78125 18.25 25.199219 17.734375 25.199219 C 17.21875 25.199219 16.800781 24.78125 16.800781 24.265625 Z M 13.066406 10.265625 C 13.066406 9.75 13.484375 9.332031 14 9.332031 C 14.515625 9.332031 14.933594 9.75 14.933594 10.265625 L 14.933594 24.265625 C 14.933594 24.78125 14.515625 25.199219 14 25.199219 C 13.484375 25.199219 13.066406 24.78125 13.066406 24.265625 Z M 9.332031 9.332031 C 9.847656 9.332031 10.265625 9.75 10.265625 10.265625 L 11.199219 24.265625 C 11.199219 24.78125 10.78125 25.199219 10.265625 25.199219 C 9.75 25.199219 9.332031 24.78125 9.332031 24.265625 L 8.398438 10.265625 C 8.398438 9.75 8.816406 9.332031 9.332031 9.332031 Z M 22.773438 3.734375 L 18.667969 3.734375 L 18.667969 1.867188 C 18.667969 0.449219 18.207031 0 16.800781 0 L 11.199219 0 C 9.90625 0 9.332031 0.625 9.332031 1.867188 L 9.332031 3.734375 L 5.226562 3.734375 C 4.402344 3.734375 3.734375 4.363281 3.734375 5.136719 C 3.734375 5.910156 4.402344 6.535156 5.226562 6.535156 L 22.773438 6.535156 C 23.597656 6.535156 24.265625 5.910156 24.265625 5.136719 C 24.265625 4.363281 23.597656 3.734375 22.773438 3.734375 Z M 16.800781 3.734375 L 11.199219 3.734375 L 11.199219 1.867188 L 16.800781 1.867188 Z M 16.800781 3.734375 "/>
</g>
</svg>
