<?xml version="1.0" encoding="UTF-8"?>
<svg xmlns="http://www.w3.org/2000/svg" xmlns:xlink="http://www.w3.org/1999/xlink" width="28pt" height="28pt" viewBox="0 0 28 28" version="1.1">
<g id="surface1">
<path style=" stroke:none;fill-rule:nonzero;fill:rgb(0%,0%,0%);fill-opacity:1;" d="M 20.324219 6.472656 L 18.914062 5.941406 L 20 3.042969 C 20.4375 1.878906 19.847656 0.582031 18.679688 0.144531 C 17.515625 -0.292969 16.214844 0.296875 15.777344 1.460938 C 15.695312 1.703125 15.820312 1.964844 16.058594 2.054688 C 16.296875 2.144531 16.5625 2.027344 16.65625 1.789062 C 16.914062 1.109375 17.671875 0.765625 18.351562 1.019531 C 19.03125 1.277344 19.375 2.035156 19.117188 2.714844 L 18.03125 5.613281 L 16.570312 5.0625 C 16.445312 5.019531 16.308594 5.027344 16.191406 5.085938 C 16.074219 5.144531 15.988281 5.25 15.953125 5.378906 L 14.492188 10.664062 L 7.96875 10.664062 C 7.832031 10.664062 7.707031 10.71875 7.617188 10.820312 C 7.527344 10.917969 7.484375 11.050781 7.5 11.183594 L 9.375 27.597656 C 9.402344 27.832031 9.605469 28.011719 9.84375 28.011719 L 17.34375 28.011719 C 17.582031 28.011719 17.785156 27.832031 17.8125 27.597656 L 19.6875 11.183594 C 19.703125 11.050781 19.660156 10.917969 19.570312 10.820312 C 19.480469 10.71875 19.355469 10.664062 19.21875 10.664062 L 18.886719 10.664062 L 20.578125 7.113281 C 20.636719 6.996094 20.640625 6.859375 20.59375 6.734375 C 20.542969 6.613281 20.445312 6.519531 20.320312 6.472656 Z M 16.925781 27.074219 L 10.261719 27.074219 L 8.492188 11.601562 L 18.695312 11.601562 Z M 17.847656 10.664062 L 15.46875 10.664062 L 16.722656 6.125 L 19.515625 7.171875 Z M 17.847656 10.664062 "/>
</g>
</svg>
