<?xml version="1.0" encoding="UTF-8"?>
<svg xmlns="http://www.w3.org/2000/svg" xmlns:xlink="http://www.w3.org/1999/xlink" width="28pt" height="28pt" viewBox="0 0 28 28" version="1.1">
<g id="surface1">
<path style=" stroke:none;fill-rule:nonzero;fill:rgb(0%,0%,0%);fill-opacity:1;" d="M 7.496094 19.410156 C 7.394531 19.308594 7.253906 19.25 7.109375 19.25 C 6.964844 19.25 6.824219 19.308594 6.722656 19.410156 C 6.621094 19.511719 6.5625 19.652344 6.5625 19.796875 C 6.5625 19.941406 6.621094 20.082031 6.722656 20.183594 C 6.824219 20.285156 6.964844 20.34375 7.109375 20.34375 C 7.253906 20.34375 7.394531 20.285156 7.496094 20.183594 C 7.597656 20.082031 7.65625 19.941406 7.65625 19.796875 C 7.65625 19.652344 7.597656 19.511719 7.496094 19.410156 Z M 7.496094 19.410156 "/>
<path style=" stroke:none;fill-rule:nonzero;fill:rgb(0%,0%,0%);fill-opacity:1;" d="M 8.859375 24.28125 L 7.65625 24.28125 L 7.65625 21.710938 C 7.65625 21.410156 7.410156 21.164062 7.109375 21.164062 C 6.808594 21.164062 6.5625 21.410156 6.5625 21.710938 L 6.5625 24.28125 L 5.46875 24.28125 L 5.46875 1.640625 C 5.46875 1.339844 5.714844 1.09375 6.015625 1.09375 C 6.316406 1.09375 6.5625 1.339844 6.5625 1.640625 L 6.5625 17.664062 C 6.5625 17.964844 6.808594 18.210938 7.109375 18.210938 C 7.410156 18.210938 7.65625 17.964844 7.65625 17.664062 L 7.65625 16.097656 C 9.386719 15.832031 10.71875 14.335938 10.71875 12.53125 L 10.71875 11.40625 C 11.355469 11.179688 11.8125 10.574219 11.8125 9.859375 C 11.8125 8.953125 11.074219 8.21875 10.171875 8.21875 C 9.265625 8.21875 8.53125 8.953125 8.53125 9.859375 C 8.53125 10.574219 8.988281 11.179688 9.625 11.40625 L 9.625 12.53125 C 9.625 13.730469 8.78125 14.734375 7.65625 14.984375 L 7.65625 7.878906 C 9.386719 7.613281 10.71875 6.117188 10.71875 4.3125 L 10.71875 3.1875 C 11.355469 2.960938 11.8125 2.355469 11.8125 1.640625 C 11.8125 0.734375 11.074219 0 10.171875 0 C 9.265625 0 8.53125 0.734375 8.53125 1.640625 C 8.53125 2.355469 8.988281 2.960938 9.625 3.1875 L 9.625 4.3125 C 9.625 5.511719 8.78125 6.515625 7.65625 6.765625 L 7.65625 1.640625 C 7.65625 0.734375 6.917969 0 6.015625 0 C 5.109375 0 4.375 0.734375 4.375 1.640625 L 4.375 9.757812 C 3.140625 9.597656 2.1875 8.539062 2.1875 7.265625 L 2.1875 6.140625 C 2.824219 5.914062 3.28125 5.308594 3.28125 4.59375 C 3.28125 3.6875 2.546875 2.953125 1.640625 2.953125 C 0.734375 2.953125 0 3.6875 0 4.59375 C 0 5.308594 0.457031 5.914062 1.09375 6.140625 L 1.09375 7.265625 C 1.09375 9.144531 2.539062 10.691406 4.375 10.859375 L 4.375 17.976562 C 3.140625 17.816406 2.1875 16.757812 2.1875 15.484375 L 2.1875 14.359375 C 2.824219 14.132812 3.28125 13.527344 3.28125 12.8125 C 3.28125 11.90625 2.546875 11.171875 1.640625 11.171875 C 0.734375 11.171875 0 11.90625 0 12.8125 C 0 13.527344 0.457031 14.132812 1.09375 14.359375 L 1.09375 15.484375 C 1.09375 17.363281 2.539062 18.910156 4.375 19.078125 L 4.375 24.28125 L 3.171875 24.28125 C 1.421875 24.28125 0 25.703125 0 27.453125 C 0 27.753906 0.246094 28 0.546875 28 L 11.484375 28 C 11.785156 28 12.03125 27.753906 12.03125 27.453125 C 12.03125 25.703125 10.609375 24.28125 8.859375 24.28125 Z M 10.171875 9.3125 C 10.472656 9.3125 10.71875 9.558594 10.71875 9.859375 C 10.71875 10.160156 10.472656 10.40625 10.171875 10.40625 C 9.871094 10.40625 9.625 10.160156 9.625 9.859375 C 9.625 9.558594 9.871094 9.3125 10.171875 9.3125 Z M 10.171875 1.09375 C 10.472656 1.09375 10.71875 1.339844 10.71875 1.640625 C 10.71875 1.941406 10.472656 2.1875 10.171875 2.1875 C 9.871094 2.1875 9.625 1.941406 9.625 1.640625 C 9.625 1.339844 9.871094 1.09375 10.171875 1.09375 Z M 1.640625 5.140625 C 1.339844 5.140625 1.09375 4.894531 1.09375 4.59375 C 1.09375 4.292969 1.339844 4.046875 1.640625 4.046875 C 1.941406 4.046875 2.1875 4.292969 2.1875 4.59375 C 2.1875 4.894531 1.941406 5.140625 1.640625 5.140625 Z M 1.640625 13.359375 C 1.339844 13.359375 1.09375 13.113281 1.09375 12.8125 C 1.09375 12.511719 1.339844 12.265625 1.640625 12.265625 C 1.941406 12.265625 2.1875 12.511719 2.1875 12.8125 C 2.1875 13.113281 1.941406 13.359375 1.640625 13.359375 Z M 1.167969 26.90625 C 1.40625 26.023438 2.214844 25.375 3.171875 25.375 L 8.859375 25.375 C 9.816406 25.375 10.625 26.023438 10.863281 26.90625 Z M 1.167969 26.90625 "/>
<path style=" stroke:none;fill-rule:nonzero;fill:rgb(0%,0%,0%);fill-opacity:1;" d="M 27.453125 0 L 14 0 C 13.699219 0 13.453125 0.246094 13.453125 0.546875 L 13.453125 2.734375 C 13.453125 3.035156 13.699219 3.28125 14 3.28125 L 16.261719 3.28125 L 16.261719 4.375 C 16.261719 4.554688 16.113281 4.703125 15.933594 4.703125 C 15.753906 4.703125 15.605469 4.554688 15.605469 4.375 C 15.605469 4.074219 15.359375 3.828125 15.058594 3.828125 C 14.757812 3.828125 14.511719 4.074219 14.511719 4.375 C 14.511719 5.160156 15.148438 5.796875 15.933594 5.796875 C 16.71875 5.796875 17.355469 5.160156 17.355469 4.375 L 17.355469 3.28125 L 20.535156 3.28125 L 20.535156 4.375 C 20.535156 4.554688 20.390625 4.703125 20.207031 4.703125 C 20.027344 4.703125 19.878906 4.554688 19.878906 4.375 C 19.878906 4.074219 19.636719 3.828125 19.332031 3.828125 C 19.03125 3.828125 18.785156 4.074219 18.785156 4.375 C 18.785156 5.160156 19.421875 5.796875 20.207031 5.796875 C 20.992188 5.796875 21.628906 5.160156 21.628906 4.375 L 21.628906 3.28125 L 24.808594 3.28125 L 24.808594 4.375 C 24.808594 4.554688 24.664062 4.703125 24.480469 4.703125 C 24.300781 4.703125 24.152344 4.554688 24.152344 4.375 C 24.152344 4.074219 23.910156 3.828125 23.605469 3.828125 C 23.304688 3.828125 23.058594 4.074219 23.058594 4.375 C 23.058594 5.160156 23.699219 5.796875 24.480469 5.796875 C 25.265625 5.796875 25.902344 5.160156 25.902344 4.375 L 25.902344 3.28125 L 27.453125 3.28125 C 27.753906 3.28125 28 3.035156 28 2.734375 L 28 0.546875 C 28 0.246094 27.753906 0 27.453125 0 Z M 26.90625 2.1875 L 25.902344 2.1875 C 25.894531 1.894531 25.652344 1.660156 25.355469 1.660156 C 25.0625 1.660156 24.820312 1.894531 24.8125 2.1875 L 21.628906 2.1875 C 21.617188 1.894531 21.378906 1.660156 21.082031 1.660156 C 20.785156 1.660156 20.546875 1.894531 20.535156 2.1875 L 17.355469 2.1875 C 17.34375 1.894531 17.105469 1.660156 16.808594 1.660156 C 16.511719 1.660156 16.273438 1.894531 16.261719 2.1875 L 14.546875 2.1875 L 14.546875 1.09375 L 26.90625 1.09375 Z M 26.90625 2.1875 "/>
<path style=" stroke:none;fill-rule:nonzero;fill:rgb(0%,0%,0%);fill-opacity:1;" d="M 27.453125 12.902344 L 21.984375 12.902344 C 21.683594 12.902344 21.4375 13.148438 21.4375 13.449219 C 21.4375 13.75 21.683594 13.996094 21.984375 13.996094 L 26.90625 13.996094 L 26.90625 16.839844 L 17.0625 16.839844 L 17.0625 13.996094 L 18.265625 13.996094 C 18.566406 13.996094 18.8125 13.75 18.8125 13.449219 C 18.8125 13.148438 18.566406 12.902344 18.265625 12.902344 L 16.515625 12.902344 C 16.214844 12.902344 15.96875 13.148438 15.96875 13.449219 L 15.96875 27.453125 C 15.96875 27.753906 16.214844 28 16.515625 28 C 16.816406 28 17.0625 27.753906 17.0625 27.453125 L 17.0625 25.808594 L 26.90625 25.808594 L 26.90625 27.453125 C 26.90625 27.753906 27.152344 28 27.453125 28 C 27.753906 28 28 27.753906 28 27.453125 L 28 13.449219 C 28 13.148438 27.753906 12.902344 27.453125 12.902344 Z M 26.90625 24.714844 L 17.0625 24.714844 L 17.0625 21.871094 L 26.90625 21.871094 Z M 26.90625 20.777344 L 17.0625 20.777344 L 17.0625 17.933594 L 26.90625 17.933594 Z M 26.90625 20.777344 "/>
<path style=" stroke:none;fill-rule:nonzero;fill:rgb(0%,0%,0%);fill-opacity:1;" d="M 20.566406 13.0625 C 20.464844 12.960938 20.324219 12.902344 20.179688 12.902344 C 20.035156 12.902344 19.894531 12.960938 19.792969 13.0625 C 19.691406 13.164062 19.632812 13.304688 19.632812 13.449219 C 19.632812 13.59375 19.691406 13.734375 19.792969 13.835938 C 19.894531 13.9375 20.035156 13.996094 20.179688 13.996094 C 20.324219 13.996094 20.464844 13.9375 20.566406 13.835938 C 20.667969 13.734375 20.726562 13.59375 20.726562 13.449219 C 20.726562 13.304688 20.667969 13.164062 20.566406 13.0625 Z M 20.566406 13.0625 "/>
<path style=" stroke:none;fill-rule:nonzero;fill:rgb(0%,0%,0%);fill-opacity:1;" d="M 22.46875 22.722656 L 21.5 22.722656 C 21.199219 22.722656 20.953125 22.96875 20.953125 23.269531 C 20.953125 23.570312 21.199219 23.816406 21.5 23.816406 L 22.46875 23.816406 C 22.769531 23.816406 23.015625 23.570312 23.015625 23.269531 C 23.015625 22.96875 22.769531 22.722656 22.46875 22.722656 Z M 22.46875 22.722656 "/>
<path style=" stroke:none;fill-rule:nonzero;fill:rgb(0%,0%,0%);fill-opacity:1;" d="M 22.46875 18.785156 L 21.5 18.785156 C 21.199219 18.785156 20.953125 19.03125 20.953125 19.332031 C 20.953125 19.632812 21.199219 19.878906 21.5 19.878906 L 22.46875 19.878906 C 22.769531 19.878906 23.015625 19.632812 23.015625 19.332031 C 23.015625 19.03125 22.769531 18.785156 22.46875 18.785156 Z M 22.46875 18.785156 "/>
<path style=" stroke:none;fill-rule:nonzero;fill:rgb(0%,0%,0%);fill-opacity:1;" d="M 22.46875 14.847656 L 21.5 14.847656 C 21.199219 14.847656 20.953125 15.09375 20.953125 15.394531 C 20.953125 15.695312 21.199219 15.941406 21.5 15.941406 L 22.46875 15.941406 C 22.769531 15.941406 23.015625 15.695312 23.015625 15.394531 C 23.015625 15.09375 22.769531 14.847656 22.46875 14.847656 Z M 22.46875 14.847656 "/>
</g>
</svg>
