<?xml version="1.0" encoding="UTF-8"?>
<svg xmlns="http://www.w3.org/2000/svg" xmlns:xlink="http://www.w3.org/1999/xlink" width="14pt" height="14pt" viewBox="0 0 14 14" version="1.1">
<g id="surface1">
<path style=" stroke:none;fill-rule:nonzero;fill:rgb(0%,0%,0%);fill-opacity:1;" d="M 5.90625 3.046875 L 8.09375 3.046875 C 8.539062 3.046875 8.8125 2.566406 8.59375 2.179688 L 7.5 0.289062 C 7.277344 -0.09375 6.722656 -0.09375 6.5 0.289062 L 5.40625 2.179688 C 5.1875 2.5625 5.460938 3.046875 5.90625 3.046875 Z M 5.90625 3.046875 "/>
<path style=" stroke:none;fill-rule:nonzero;fill:rgb(0%,0%,0%);fill-opacity:1;" d="M 10.460938 3.527344 L 9.105469 3.527344 C 8.789062 3.527344 8.53125 3.785156 8.53125 4.101562 L 8.53125 5.457031 C 8.53125 5.773438 8.789062 6.03125 9.105469 6.03125 L 9.304688 6.03125 L 9.304688 6.648438 L 7.484375 7.429688 L 7.484375 4.011719 C 7.484375 3.832031 7.335938 3.6875 7.160156 3.6875 L 6.839844 3.6875 C 6.664062 3.6875 6.515625 3.835938 6.515625 4.011719 C 6.515625 4.230469 6.515625 8.742188 6.515625 8.953125 L 4.695312 8.179688 L 4.695312 7.46875 C 5.148438 7.28125 5.46875 6.828125 5.46875 6.308594 C 5.46875 5.617188 4.90625 5.054688 4.21875 5.054688 C 3.527344 5.054688 2.964844 5.617188 2.964844 6.308594 C 2.964844 6.824219 3.28125 7.269531 3.726562 7.460938 L 3.726562 8.5 C 3.726562 8.691406 3.84375 8.867188 4.023438 8.941406 L 6.515625 10.003906 L 6.515625 10.40625 C 5.742188 10.617188 5.171875 11.328125 5.171875 12.171875 C 5.171875 13.179688 5.992188 14 7 14 C 8.007812 14 8.828125 13.179688 8.828125 12.171875 C 8.828125 11.328125 8.257812 10.617188 7.484375 10.40625 L 7.484375 8.476562 L 9.976562 7.414062 C 10.15625 7.335938 10.273438 7.164062 10.273438 6.96875 L 10.273438 6.03125 L 10.460938 6.03125 C 10.777344 6.03125 11.035156 5.773438 11.035156 5.457031 L 11.035156 4.101562 C 11.035156 3.785156 10.777344 3.527344 10.460938 3.527344 Z M 10.460938 3.527344 "/>
</g>
</svg>
