<?xml version="1.0" encoding="UTF-8"?>
<svg xmlns="http://www.w3.org/2000/svg" xmlns:xlink="http://www.w3.org/1999/xlink" width="28pt" height="28pt" viewBox="0 0 28 28" version="1.1">
<g id="surface1">
<path style=" stroke:none;fill-rule:nonzero;fill:rgb(0%,0%,0%);fill-opacity:1;" d="M 18.351562 9.925781 L 17.382812 22.613281 C 17.335938 23.214844 16.8125 23.667969 16.207031 23.621094 C 15.605469 23.574219 15.152344 23.050781 15.199219 22.449219 L 16.171875 9.761719 C 16.21875 9.15625 16.742188 8.707031 17.34375 8.753906 C 17.949219 8.800781 18.398438 9.324219 18.351562 9.925781 Z M 11.828125 9.761719 C 11.78125 9.15625 11.257812 8.707031 10.65625 8.753906 C 10.050781 8.800781 9.601562 9.324219 9.648438 9.925781 L 10.617188 22.613281 C 10.664062 23.214844 11.1875 23.667969 11.792969 23.621094 C 12.394531 23.574219 12.847656 23.050781 12.800781 22.449219 Z M 25.8125 5.46875 C 25.8125 6.074219 25.324219 6.5625 24.71875 6.5625 L 23.542969 6.5625 L 21.980469 26.988281 C 21.9375 27.558594 21.460938 28 20.890625 28 L 7.109375 28 C 6.539062 28 6.0625 27.558594 6.019531 26.988281 L 4.457031 6.5625 L 3.28125 6.5625 C 2.675781 6.5625 2.1875 6.074219 2.1875 5.46875 C 2.1875 4.863281 2.675781 4.375 3.28125 4.375 L 8.640625 4.375 L 8.640625 3.226562 C 8.640625 1.449219 10.089844 0 11.867188 0 L 16.132812 0 C 17.910156 0 19.359375 1.449219 19.359375 3.226562 L 19.359375 4.375 L 24.71875 4.375 C 25.324219 4.375 25.8125 4.863281 25.8125 5.46875 Z M 10.828125 4.375 L 17.171875 4.375 L 17.171875 3.226562 C 17.171875 2.652344 16.707031 2.1875 16.132812 2.1875 L 11.867188 2.1875 C 11.292969 2.1875 10.828125 2.652344 10.828125 3.226562 Z M 21.351562 6.5625 C 20.886719 6.5625 6.953125 6.5625 6.648438 6.5625 L 8.121094 25.8125 L 19.878906 25.8125 Z M 21.351562 6.5625 "/>
</g>
</svg>
