<?xml version="1.0" encoding="UTF-8"?>
<svg xmlns="http://www.w3.org/2000/svg" xmlns:xlink="http://www.w3.org/1999/xlink" width="28pt" height="28pt" viewBox="0 0 28 28" version="1.1">
<g id="surface1">
<path style=" stroke:none;fill-rule:nonzero;fill:rgb(0%,0%,0%);fill-opacity:1;" d="M 21.742188 11.761719 C 21.835938 11.640625 21.929688 11.519531 22.015625 11.394531 C 22.097656 11.285156 22.175781 11.171875 22.25 11.058594 L 22.253906 11.054688 C 25.050781 10.410156 26.910156 7.757812 26.558594 4.910156 C 26.207031 2.0625 23.757812 -0.0546875 20.890625 0 C 18.023438 0.0585938 15.660156 2.273438 15.425781 5.132812 L 1.402344 5.132812 L 1.402344 5.601562 C 1.40625 6.4375 1.515625 7.269531 1.730469 8.078125 C 1.730469 8.082031 1.738281 8.109375 1.742188 8.121094 C 1.808594 8.367188 1.882812 8.605469 1.964844 8.84375 C 1.976562 8.878906 1.988281 8.910156 2 8.945312 C 2.085938 9.175781 2.171875 9.398438 2.273438 9.617188 C 2.289062 9.65625 2.308594 9.691406 2.328125 9.730469 C 2.601562 10.316406 2.929688 10.871094 3.316406 11.394531 C 3.402344 11.511719 3.484375 11.628906 3.578125 11.742188 C 3.660156 11.847656 3.75 11.945312 3.839844 12.046875 C 3.945312 12.167969 4.050781 12.289062 4.164062 12.40625 C 4.253906 12.5 4.347656 12.585938 4.441406 12.675781 C 4.558594 12.792969 4.683594 12.902344 4.808594 13.011719 C 4.902344 13.09375 5 13.175781 5.097656 13.253906 C 5.234375 13.363281 5.375 13.464844 5.515625 13.566406 C 5.613281 13.636719 5.707031 13.707031 5.808594 13.773438 C 5.980469 13.886719 6.160156 13.992188 6.339844 14.097656 C 6.449219 14.160156 6.554688 14.222656 6.667969 14.28125 C 6.878906 14.390625 7.09375 14.496094 7.3125 14.59375 C 7.425781 14.636719 7.542969 14.683594 7.65625 14.726562 C 7.816406 14.789062 7.980469 14.851562 8.144531 14.90625 C 8.265625 14.945312 8.390625 14.980469 8.515625 15.015625 C 8.683594 15.066406 8.851562 15.109375 9.019531 15.148438 C 9.140625 15.175781 9.265625 15.203125 9.386719 15.226562 C 9.578125 15.261719 9.773438 15.289062 9.96875 15.3125 C 10.074219 15.328125 10.175781 15.34375 10.28125 15.355469 C 10.585938 15.382812 10.890625 15.402344 11.203125 15.402344 L 11.203125 25.199219 L 7 25.199219 L 7 28 L 18.199219 28 L 18.199219 25.199219 L 14 25.199219 L 14 15.402344 L 14.261719 15.402344 C 14.558594 15.402344 14.851562 15.382812 15.140625 15.355469 C 15.238281 15.347656 15.335938 15.332031 15.429688 15.320312 C 15.625 15.296875 15.8125 15.269531 16.003906 15.234375 C 16.113281 15.214844 16.21875 15.191406 16.328125 15.167969 C 16.511719 15.128906 16.691406 15.078125 16.871094 15.027344 C 16.96875 15 17.066406 14.976562 17.164062 14.949219 C 17.417969 14.867188 17.667969 14.773438 17.914062 14.671875 C 18.007812 14.632812 18.101562 14.585938 18.191406 14.546875 C 18.355469 14.472656 18.515625 14.394531 18.675781 14.3125 C 18.777344 14.257812 18.878906 14.203125 18.976562 14.144531 C 19.128906 14.058594 19.273438 13.96875 19.417969 13.878906 C 19.511719 13.820312 19.601562 13.761719 19.6875 13.699219 C 19.859375 13.582031 20.023438 13.457031 20.1875 13.324219 C 20.242188 13.28125 20.300781 13.242188 20.351562 13.195312 C 20.5625 13.023438 20.761719 12.839844 20.957031 12.648438 C 21.023438 12.582031 21.085938 12.511719 21.148438 12.445312 C 21.273438 12.3125 21.398438 12.179688 21.515625 12.042969 C 21.59375 11.949219 21.667969 11.855469 21.742188 11.761719 Z M 22.5 8.316406 C 21.824219 8.238281 21.152344 8.117188 20.492188 7.945312 C 19.261719 7.625 17.996094 7.464844 16.726562 7.46875 C 16.53125 7.023438 16.40625 6.550781 16.359375 6.066406 L 22.867188 6.066406 C 22.847656 6.832031 22.722656 7.585938 22.5 8.316406 Z M 20.273438 8.851562 C 20.902344 9.011719 21.535156 9.136719 22.179688 9.21875 C 22.113281 9.371094 22.039062 9.519531 21.96875 9.667969 C 21.933594 9.738281 21.898438 9.804688 21.863281 9.875 C 21.804688 9.988281 21.738281 10.101562 21.675781 10.210938 C 19.992188 10.472656 18.304688 9.78125 17.289062 8.414062 C 18.296875 8.449219 19.296875 8.597656 20.273438 8.855469 Z M 21 0.933594 C 23.199219 0.933594 25.101562 2.46875 25.5625 4.621094 C 26.023438 6.769531 24.917969 8.949219 22.914062 9.851562 C 23.03125 9.597656 23.136719 9.339844 23.230469 9.074219 L 23.273438 8.957031 C 23.621094 7.964844 23.796875 6.917969 23.800781 5.863281 L 23.800781 5.132812 L 16.359375 5.132812 C 16.601562 2.75 18.605469 0.9375 21 0.933594 Z M 15.425781 6.066406 C 15.464844 6.550781 15.566406 7.027344 15.730469 7.480469 C 14.636719 7.511719 13.550781 7.667969 12.492188 7.949219 C 11.257812 8.273438 9.988281 8.425781 8.710938 8.402344 C 7.4375 8.425781 6.164062 8.273438 4.933594 7.949219 C 4.152344 7.746094 3.359375 7.605469 2.558594 7.535156 C 2.445312 7.050781 2.375 6.5625 2.347656 6.066406 Z M 17.265625 26.132812 L 17.265625 27.066406 L 7.933594 27.066406 L 7.933594 26.132812 Z M 13.066406 25.199219 L 12.132812 25.199219 L 12.132812 15.402344 L 13.066406 15.402344 Z M 14 14.46875 L 11.199219 14.46875 C 10.929688 14.46875 10.664062 14.453125 10.402344 14.429688 C 10.308594 14.417969 10.222656 14.40625 10.132812 14.394531 C 9.960938 14.375 9.789062 14.347656 9.621094 14.320312 C 9.519531 14.300781 9.414062 14.28125 9.308594 14.257812 C 9.15625 14.222656 9.007812 14.1875 8.859375 14.144531 C 8.753906 14.117188 8.648438 14.089844 8.546875 14.058594 C 8.382812 14.003906 8.226562 13.949219 8.070312 13.886719 C 7.976562 13.851562 7.886719 13.820312 7.796875 13.785156 C 7.582031 13.695312 7.375 13.597656 7.167969 13.492188 C 7.074219 13.445312 6.980469 13.390625 6.886719 13.335938 C 6.757812 13.265625 6.632812 13.191406 6.507812 13.113281 C 6.414062 13.054688 6.320312 12.992188 6.226562 12.925781 C 6.105469 12.847656 5.992188 12.761719 5.875 12.675781 C 5.789062 12.609375 5.699219 12.542969 5.613281 12.472656 C 5.496094 12.378906 5.382812 12.277344 5.273438 12.175781 C 5.195312 12.109375 5.117188 12.042969 5.042969 11.96875 C 4.886719 11.820312 4.738281 11.660156 4.59375 11.5 C 4.5 11.394531 4.414062 11.285156 4.324219 11.179688 C 4.246094 11.078125 4.164062 10.980469 4.089844 10.878906 C 4 10.761719 3.917969 10.640625 3.835938 10.515625 C 3.785156 10.4375 3.730469 10.359375 3.683594 10.28125 C 3.59375 10.136719 3.507812 9.992188 3.429688 9.847656 C 3.398438 9.789062 3.371094 9.734375 3.339844 9.675781 C 3.25 9.503906 3.164062 9.328125 3.085938 9.148438 L 3.085938 9.144531 C 2.992188 8.933594 2.90625 8.71875 2.832031 8.496094 C 3.464844 8.574219 4.097656 8.695312 4.714844 8.855469 C 6.019531 9.195312 7.363281 9.355469 8.710938 9.335938 C 10.058594 9.359375 11.40625 9.195312 12.707031 8.855469 C 13.835938 8.558594 14.996094 8.40625 16.160156 8.40625 C 17.160156 10.132812 19.003906 11.195312 20.996094 11.199219 C 20.949219 11.257812 20.90625 11.320312 20.859375 11.378906 C 20.8125 11.4375 20.753906 11.496094 20.703125 11.554688 C 20.589844 11.679688 20.476562 11.804688 20.355469 11.925781 C 20.292969 11.992188 20.222656 12.054688 20.15625 12.117188 C 20.039062 12.230469 19.917969 12.335938 19.796875 12.4375 C 19.730469 12.496094 19.664062 12.550781 19.59375 12.605469 C 19.425781 12.738281 19.253906 12.867188 19.074219 12.988281 C 19.019531 13.027344 18.960938 13.0625 18.902344 13.101562 C 18.738281 13.207031 18.574219 13.304688 18.402344 13.398438 C 18.316406 13.445312 18.230469 13.492188 18.140625 13.535156 C 18.007812 13.601562 17.871094 13.667969 17.734375 13.730469 C 17.640625 13.769531 17.550781 13.808594 17.457031 13.847656 C 17.28125 13.917969 17.105469 13.980469 16.925781 14.039062 C 16.847656 14.066406 16.765625 14.09375 16.683594 14.117188 C 16.480469 14.175781 16.273438 14.226562 16.066406 14.273438 C 15.980469 14.292969 15.894531 14.304688 15.808594 14.320312 C 15.632812 14.351562 15.457031 14.378906 15.28125 14.402344 C 15.199219 14.410156 15.117188 14.421875 15.035156 14.429688 C 14.78125 14.453125 14.523438 14.46875 14.261719 14.46875 Z M 14 14.46875 "/>
</g>
</svg>
