<?xml version="1.0" encoding="UTF-8"?>
<svg xmlns="http://www.w3.org/2000/svg" xmlns:xlink="http://www.w3.org/1999/xlink" width="28pt" height="28pt" viewBox="0 0 28 28" version="1.1">
<g id="surface1">
<path style=" stroke:none;fill-rule:nonzero;fill:rgb(0%,0%,0%);fill-opacity:1;" d="M 17.855469 28 L 7.238281 28 C 7.023438 28 6.839844 27.839844 6.816406 27.625 L 4.621094 8.402344 C 4.605469 8.28125 4.644531 8.160156 4.726562 8.070312 C 4.804688 7.980469 4.921875 7.929688 5.042969 7.929688 L 20.050781 7.929688 C 20.171875 7.929688 20.289062 7.980469 20.367188 8.070312 C 20.449219 8.160156 20.488281 8.28125 20.472656 8.402344 L 18.277344 27.625 C 18.253906 27.839844 18.070312 28 17.855469 28 Z M 7.617188 27.152344 L 17.476562 27.152344 L 19.578125 8.777344 L 5.515625 8.777344 Z M 7.617188 27.152344 "/>
<path style=" stroke:none;fill-rule:nonzero;fill:rgb(0%,0%,0%);fill-opacity:1;" d="M 19.574219 12.960938 L 5.582031 12.960938 C 5.351562 12.960938 5.160156 12.769531 5.160156 12.535156 C 5.160156 12.300781 5.351562 12.113281 5.582031 12.113281 L 19.574219 12.113281 C 19.808594 12.113281 20 12.300781 20 12.535156 C 20 12.769531 19.808594 12.960938 19.574219 12.960938 Z M 19.574219 12.960938 "/>
<path style=" stroke:none;fill-rule:nonzero;fill:rgb(0%,0%,0%);fill-opacity:1;" d="M 11.980469 18.96875 L 9.359375 18.96875 C 9.125 18.96875 8.933594 18.777344 8.933594 18.542969 L 8.933594 15.921875 C 8.933594 15.6875 9.125 15.496094 9.359375 15.496094 L 11.980469 15.496094 C 12.214844 15.496094 12.40625 15.6875 12.40625 15.921875 L 12.40625 18.542969 C 12.40625 18.777344 12.214844 18.96875 11.980469 18.96875 Z M 9.785156 18.117188 L 11.558594 18.117188 L 11.558594 16.347656 L 9.785156 16.347656 Z M 9.785156 18.117188 "/>
<path style=" stroke:none;fill-rule:nonzero;fill:rgb(0%,0%,0%);fill-opacity:1;" d="M 15.039062 24.296875 C 14.964844 24.296875 14.886719 24.277344 14.820312 24.234375 L 12.582031 22.871094 C 12.378906 22.75 12.316406 22.488281 12.4375 22.289062 L 13.800781 20.050781 C 13.921875 19.847656 14.183594 19.785156 14.382812 19.90625 L 16.625 21.269531 C 16.824219 21.394531 16.886719 21.652344 16.765625 21.855469 L 15.402344 24.09375 C 15.324219 24.222656 15.183594 24.296875 15.039062 24.296875 Z M 13.386719 22.367188 L 14.898438 23.289062 L 15.820312 21.773438 L 14.304688 20.851562 Z M 13.386719 22.367188 "/>
<path style=" stroke:none;fill-rule:nonzero;fill:rgb(0%,0%,0%);fill-opacity:1;" d="M 20.074219 13.488281 C 19.90625 13.488281 19.742188 13.484375 19.578125 13.46875 C 19.34375 13.445312 19.171875 13.238281 19.195312 13.003906 C 19.21875 12.773438 19.414062 12.613281 19.65625 12.621094 C 19.796875 12.636719 19.933594 12.640625 20.074219 12.640625 C 22.515625 12.640625 24.503906 10.65625 24.503906 8.214844 C 24.503906 5.773438 22.515625 3.789062 20.074219 3.789062 C 17.632812 3.789062 15.648438 5.773438 15.648438 8.214844 C 15.648438 8.449219 15.457031 8.640625 15.222656 8.640625 C 14.988281 8.640625 14.800781 8.449219 14.800781 8.214844 C 14.800781 5.304688 17.167969 2.9375 20.074219 2.9375 C 22.984375 2.9375 25.351562 5.304688 25.351562 8.214844 C 25.351562 11.125 22.984375 13.488281 20.074219 13.488281 Z M 20.074219 13.488281 "/>
<path style=" stroke:none;fill-rule:nonzero;fill:rgb(0%,0%,0%);fill-opacity:1;" d="M 9.359375 8.640625 C 9.15625 8.640625 8.976562 8.496094 8.941406 8.289062 L 7.660156 0.847656 L 3.074219 0.847656 C 2.839844 0.847656 2.648438 0.660156 2.648438 0.425781 C 2.648438 0.191406 2.839844 0 3.074219 0 L 8.015625 0 C 8.222656 0 8.398438 0.148438 8.433594 0.351562 L 9.777344 8.144531 C 9.816406 8.375 9.664062 8.59375 9.433594 8.632812 C 9.40625 8.636719 9.382812 8.640625 9.359375 8.640625 Z M 9.359375 8.640625 "/>
<path style=" stroke:none;fill-rule:nonzero;fill:rgb(0%,0%,0%);fill-opacity:1;" d="M 20.050781 8.777344 C 19.816406 8.777344 19.628906 8.589844 19.628906 8.355469 L 19.628906 3.363281 C 19.628906 3.128906 19.816406 2.941406 20.050781 2.941406 C 20.285156 2.941406 20.476562 3.128906 20.476562 3.363281 L 20.476562 8.355469 C 20.476562 8.589844 20.289062 8.777344 20.050781 8.777344 Z M 20.050781 8.777344 "/>
<path style=" stroke:none;fill-rule:nonzero;fill:rgb(0%,0%,0%);fill-opacity:1;" d="M 23.492188 12.058594 C 23.382812 12.058594 23.273438 12.015625 23.191406 11.933594 L 16.359375 5.097656 C 16.191406 4.933594 16.191406 4.664062 16.359375 4.5 C 16.523438 4.332031 16.792969 4.332031 16.957031 4.5 L 23.792969 11.332031 C 23.957031 11.5 23.957031 11.769531 23.792969 11.933594 C 23.710938 12.015625 23.601562 12.058594 23.492188 12.058594 Z M 23.492188 12.058594 "/>
<path style=" stroke:none;fill-rule:nonzero;fill:rgb(0%,0%,0%);fill-opacity:1;" d="M 20.050781 8.777344 C 19.945312 8.777344 19.835938 8.738281 19.75 8.65625 C 19.585938 8.488281 19.585938 8.21875 19.75 8.054688 L 23.210938 4.59375 C 23.378906 4.429688 23.644531 4.429688 23.8125 4.59375 C 23.976562 4.761719 23.976562 5.027344 23.8125 5.195312 L 20.351562 8.65625 C 20.269531 8.738281 20.160156 8.777344 20.050781 8.777344 Z M 20.050781 8.777344 "/>
<path style=" stroke:none;fill-rule:nonzero;fill:rgb(0%,0%,0%);fill-opacity:1;" d="M 24.925781 8.640625 L 20.050781 8.640625 C 19.816406 8.640625 19.628906 8.449219 19.628906 8.214844 C 19.628906 7.980469 19.816406 7.792969 20.050781 7.792969 L 24.925781 7.792969 C 25.160156 7.792969 25.351562 7.980469 25.351562 8.214844 C 25.351562 8.449219 25.160156 8.640625 24.925781 8.640625 Z M 24.925781 8.640625 "/>
</g>
</svg>
