<?xml version="1.0" encoding="UTF-8"?>
<svg xmlns="http://www.w3.org/2000/svg" xmlns:xlink="http://www.w3.org/1999/xlink" width="28pt" height="28pt" viewBox="0 0 28 28" version="1.1">
<g id="surface1">
<path style=" stroke:none;fill-rule:nonzero;fill:rgb(0%,0%,0%);fill-opacity:1;" d="M 15.832031 16.738281 C 18.195312 15.203125 19.792969 12.726562 20.21875 9.945312 C 20.414062 8.660156 20.355469 7.371094 20.050781 6.113281 L 18.664062 0.417969 C 18.605469 0.171875 18.386719 0 18.132812 0 L 9.855469 0 C 9.601562 0 9.382812 0.171875 9.324219 0.417969 L 7.9375 6.113281 C 7.628906 7.371094 7.574219 8.660156 7.769531 9.945312 C 8.195312 12.726562 9.792969 15.203125 12.15625 16.738281 L 13.445312 17.578125 L 13.445312 24.835938 L 9.191406 26.964844 C 8.964844 27.078125 8.84375 27.332031 8.902344 27.578125 C 8.960938 27.824219 9.183594 28 9.4375 28 L 18.550781 28 C 18.804688 28 19.027344 27.824219 19.085938 27.578125 C 19.140625 27.332031 19.023438 27.078125 18.796875 26.964844 L 14.539062 24.835938 L 14.539062 17.578125 Z M 10.285156 1.09375 L 17.703125 1.09375 L 18.824219 5.695312 L 9.164062 5.695312 Z M 8.851562 9.777344 C 8.699219 8.78125 8.71875 7.777344 8.910156 6.789062 L 19.078125 6.789062 C 19.269531 7.777344 19.289062 8.78125 19.136719 9.777344 C 18.757812 12.253906 17.335938 14.457031 15.238281 15.820312 L 13.992188 16.628906 L 12.75 15.820312 C 10.652344 14.457031 9.230469 12.253906 8.851562 9.777344 Z M 11.753906 26.90625 L 13.992188 25.785156 L 16.234375 26.90625 Z M 11.753906 26.90625 "/>
<path style=" stroke:none;fill-rule:nonzero;fill:rgb(0%,0%,0%);fill-opacity:1;" d="M 15.1875 14.347656 C 15.316406 14.347656 15.445312 14.300781 15.550781 14.210938 C 16.730469 13.164062 17.550781 11.804688 17.921875 10.277344 C 17.996094 9.980469 17.816406 9.6875 17.523438 9.613281 C 17.230469 9.542969 16.933594 9.722656 16.859375 10.015625 C 16.539062 11.328125 15.835938 12.496094 14.824219 13.390625 C 14.601562 13.589844 14.578125 13.9375 14.777344 14.164062 C 14.886719 14.285156 15.039062 14.347656 15.1875 14.347656 Z M 15.1875 14.347656 "/>
<path style=" stroke:none;fill-rule:nonzero;fill:rgb(0%,0%,0%);fill-opacity:1;" d="M 17.574219 8.609375 C 17.71875 8.609375 17.859375 8.554688 17.960938 8.453125 C 18.0625 8.347656 18.121094 8.207031 18.121094 8.0625 C 18.121094 7.921875 18.0625 7.777344 17.960938 7.675781 C 17.859375 7.574219 17.71875 7.515625 17.574219 7.515625 C 17.433594 7.515625 17.292969 7.574219 17.1875 7.675781 C 17.085938 7.777344 17.027344 7.921875 17.027344 8.0625 C 17.027344 8.207031 17.085938 8.347656 17.1875 8.453125 C 17.292969 8.554688 17.433594 8.609375 17.574219 8.609375 Z M 17.574219 8.609375 "/>
</g>
</svg>
