<?xml version="1.0" encoding="UTF-8"?>
<svg xmlns="http://www.w3.org/2000/svg" xmlns:xlink="http://www.w3.org/1999/xlink" width="28pt" height="28pt" viewBox="0 0 28 28" version="1.1">
<g id="surface1">
<path style=" stroke:none;fill-rule:nonzero;fill:rgb(0%,0%,0%);fill-opacity:1;" d="M 26.535156 0.0898438 C 26.292969 -0.0742188 25.957031 -0.0078125 25.792969 0.238281 L 23.875 3.101562 C 21.875 2.246094 18.574219 1.769531 15.34375 1.769531 C 13.21875 1.769531 11.183594 1.976562 9.402344 2.347656 C 8.582031 1.210938 7.25 0.464844 5.742188 0.464844 C 3.25 0.464844 1.226562 2.492188 1.226562 4.984375 C 1.226562 7.472656 3.25 9.5 5.742188 9.5 C 6.246094 9.5 6.734375 9.414062 7.207031 9.25 C 7.625 9.835938 8.078125 10.449219 8.550781 11.070312 C 8.597656 11.171875 8.667969 11.265625 8.765625 11.355469 C 10.5625 13.703125 12.582031 16.148438 13.824219 17.621094 C 14.152344 18.011719 14.589844 18.277344 15.074219 18.386719 L 15.074219 24.257812 C 13.363281 24.296875 9.1875 24.550781 9.1875 26.125 C 9.1875 27.910156 14.539062 28 15.609375 28 C 16.683594 28 22.035156 27.910156 22.035156 26.125 C 22.035156 24.550781 17.859375 24.296875 16.148438 24.257812 L 16.148438 18.363281 C 16.625 18.242188 17.054688 17.972656 17.367188 17.578125 C 19.257812 15.214844 20.828125 13.171875 22.082031 11.441406 C 22.226562 11.324219 22.320312 11.195312 22.367188 11.050781 C 24.453125 8.148438 25.585938 6.199219 25.753906 5.222656 C 25.773438 5.144531 25.78125 5.066406 25.78125 4.984375 C 25.78125 4.46875 25.433594 4.007812 24.828125 3.605469 L 26.683594 0.832031 C 26.847656 0.585938 26.78125 0.253906 26.535156 0.0898438 Z M 9.9375 3.324219 C 11.5625 3.011719 13.453125 2.839844 15.34375 2.839844 C 18.972656 2.839844 21.714844 3.417969 23.265625 4.011719 L 21.871094 6.097656 C 20.367188 6.375 18.230469 6.589844 15.34375 6.589844 C 13.40625 6.589844 11.597656 6.484375 10.0625 6.289062 C 10.074219 6.25 10.078125 6.214844 10.089844 6.179688 C 10.128906 6.039062 10.160156 5.902344 10.183594 5.761719 C 10.195312 5.703125 10.207031 5.640625 10.214844 5.582031 C 10.242188 5.382812 10.257812 5.183594 10.257812 4.984375 C 10.257812 4.835938 10.25 4.691406 10.234375 4.546875 C 10.226562 4.457031 10.210938 4.371094 10.199219 4.28125 C 10.191406 4.230469 10.183594 4.175781 10.171875 4.121094 C 10.152344 4.011719 10.125 3.902344 10.09375 3.796875 C 10.085938 3.769531 10.082031 3.738281 10.074219 3.710938 C 10.039062 3.59375 9.996094 3.480469 9.953125 3.367188 C 9.949219 3.351562 9.945312 3.335938 9.9375 3.324219 Z M 21.773438 10.035156 C 21.527344 9.90625 21.195312 9.785156 20.757812 9.679688 L 22.511719 7.0625 C 23.050781 6.949219 23.550781 6.8125 23.996094 6.652344 C 23.523438 7.476562 22.800781 8.589844 21.773438 10.035156 Z M 20.113281 10.644531 C 20.457031 10.703125 20.742188 10.761719 20.957031 10.824219 C 20.6875 10.914062 20.296875 11.003906 19.816406 11.085938 Z M 18.402344 11.273438 C 17.601562 11.355469 16.667969 11.40625 15.609375 11.40625 C 13.136719 11.40625 10.992188 11.109375 10.011719 10.828125 C 10.945312 10.582031 12.964844 10.335938 15.609375 10.335938 C 16.902344 10.335938 18.023438 10.394531 18.929688 10.488281 Z M 19.609375 9.472656 C 18.628906 9.34375 17.328125 9.265625 15.609375 9.265625 C 11.765625 9.265625 9.953125 9.636719 9.128906 10.0625 C 8.679688 9.464844 8.253906 8.878906 7.867188 8.328125 L 7.839844 8.289062 C 7.8125 8.25 7.789062 8.214844 7.761719 8.179688 C 7.664062 8.035156 7.566406 7.894531 7.472656 7.757812 C 7.4375 7.703125 7.402344 7.65625 7.371094 7.601562 C 7.277344 7.464844 7.1875 7.328125 7.097656 7.195312 C 7.078125 7.160156 7.050781 7.121094 7.03125 7.085938 C 6.941406 6.953125 6.859375 6.816406 6.78125 6.6875 C 7.09375 6.796875 7.445312 6.894531 7.835938 6.984375 C 8.054688 7.035156 8.28125 7.085938 8.523438 7.128906 L 8.519531 7.140625 L 9.234375 7.25 L 9.625 7.3125 L 9.628906 7.308594 C 11.273438 7.535156 13.234375 7.65625 15.34375 7.65625 C 16.492188 7.65625 18.863281 7.613281 21.054688 7.3125 Z M 5.742188 8.429688 C 3.839844 8.429688 2.296875 6.882812 2.296875 4.984375 C 2.296875 3.082031 3.84375 1.535156 5.742188 1.535156 C 6.996094 1.535156 8.097656 2.214844 8.699219 3.222656 C 8.855469 3.484375 8.972656 3.761719 9.054688 4.050781 C 9.0625 4.066406 9.066406 4.085938 9.070312 4.101562 C 9.101562 4.222656 9.125 4.34375 9.144531 4.464844 C 9.148438 4.496094 9.15625 4.527344 9.160156 4.554688 C 9.175781 4.699219 9.1875 4.839844 9.1875 4.984375 C 9.1875 5.15625 9.171875 5.328125 9.144531 5.5 C 9.136719 5.539062 9.128906 5.582031 9.121094 5.625 C 9.089844 5.792969 9.050781 5.960938 8.988281 6.125 C 8.828125 6.097656 8.675781 6.070312 8.53125 6.039062 C 8.4375 6.019531 8.347656 6 8.261719 5.980469 C 8.214844 5.972656 8.167969 5.964844 8.128906 5.953125 C 8.023438 5.929688 7.929688 5.90625 7.835938 5.882812 C 7.8125 5.878906 7.792969 5.871094 7.769531 5.867188 C 7.671875 5.839844 7.582031 5.816406 7.492188 5.789062 C 7.480469 5.785156 7.46875 5.78125 7.457031 5.777344 C 7.367188 5.753906 7.285156 5.726562 7.203125 5.699219 C 7.195312 5.695312 7.183594 5.691406 7.171875 5.6875 C 7.097656 5.664062 7.027344 5.640625 6.960938 5.613281 C 6.945312 5.609375 6.925781 5.601562 6.910156 5.59375 C 6.855469 5.574219 6.808594 5.554688 6.757812 5.535156 C 6.722656 5.519531 6.683594 5.503906 6.652344 5.488281 C 6.628906 5.476562 6.609375 5.46875 6.589844 5.457031 C 6.046875 5.199219 5.980469 5 5.980469 4.996094 C 5.976562 4.992188 5.976562 4.984375 5.976562 4.980469 L 5.972656 4.980469 C 5.890625 4.722656 5.632812 4.574219 5.367188 4.625 C 5.175781 4.664062 5.03125 4.804688 4.96875 4.984375 L 4.90625 4.984375 C 4.90625 5.359375 5.066406 6.015625 6.144531 7.691406 C 6.152344 7.703125 6.15625 7.707031 6.160156 7.71875 C 6.167969 7.730469 6.179688 7.742188 6.1875 7.753906 C 6.304688 7.9375 6.425781 8.125 6.566406 8.328125 C 6.296875 8.394531 6.023438 8.429688 5.742188 8.429688 Z M 20.878906 26.125 C 20.402344 26.445312 18.601562 26.929688 15.613281 26.929688 C 12.621094 26.929688 10.820312 26.445312 10.34375 26.125 C 10.789062 25.828125 12.40625 25.382812 15.078125 25.328125 L 15.078125 25.933594 C 15.078125 26.230469 15.316406 26.46875 15.613281 26.46875 C 15.90625 26.46875 16.148438 26.230469 16.148438 25.933594 L 16.148438 25.328125 C 18.816406 25.382812 20.433594 25.828125 20.878906 26.125 Z M 16.53125 16.910156 C 16.300781 17.199219 15.960938 17.363281 15.59375 17.367188 C 15.589844 17.367188 15.582031 17.367188 15.578125 17.367188 C 15.214844 17.367188 14.875 17.210938 14.640625 16.933594 C 13.652344 15.753906 12.164062 13.957031 10.691406 12.089844 C 12.511719 12.449219 14.902344 12.476562 15.609375 12.476562 C 16.292969 12.476562 16.980469 12.453125 17.640625 12.410156 L 15.289062 15.921875 C 15.125 16.167969 15.1875 16.5 15.433594 16.667969 C 15.527344 16.726562 15.628906 16.757812 15.730469 16.757812 C 15.90625 16.757812 16.074219 16.671875 16.175781 16.519531 L 19.015625 12.285156 C 19.371094 12.242188 19.710938 12.195312 20.023438 12.140625 C 20.113281 12.125 20.1875 12.105469 20.273438 12.089844 C 19.238281 13.472656 18.003906 15.070312 16.53125 16.910156 Z M 24.710938 4.984375 C 24.710938 5.167969 24.296875 5.449219 23.40625 5.726562 L 24.242188 4.480469 C 24.546875 4.667969 24.710938 4.84375 24.710938 4.984375 Z M 24.710938 4.984375 "/>
</g>
</svg>
