<?xml version="1.0" encoding="UTF-8"?>
<svg xmlns="http://www.w3.org/2000/svg" xmlns:xlink="http://www.w3.org/1999/xlink" width="28pt" height="28pt" viewBox="0 0 28 28" version="1.1">
<g id="surface1">
<path style=" stroke:none;fill-rule:nonzero;fill:rgb(0%,0%,0%);fill-opacity:1;" d="M 9.898438 24.976562 L 9.898438 19.675781 C 13.628906 19.433594 16.589844 16.324219 16.589844 12.53125 L 16.589844 12.492188 C 16.589844 12.246094 16.394531 12.042969 16.148438 12.027344 C 16.226562 11.734375 16.265625 11.433594 16.265625 11.125 C 16.265625 9.21875 14.785156 7.652344 12.914062 7.507812 C 12.46875 5.976562 11.0625 4.898438 9.433594 4.898438 C 7.804688 4.898438 6.394531 5.976562 5.949219 7.507812 C 4.078125 7.652344 2.601562 9.21875 2.601562 11.125 C 2.601562 11.433594 2.640625 11.734375 2.714844 12.027344 C 2.46875 12.042969 2.273438 12.246094 2.273438 12.492188 L 2.273438 12.53125 C 2.273438 16.324219 5.234375 19.433594 8.964844 19.675781 L 8.964844 24.976562 C 7.503906 25.128906 6.210938 25.996094 5.515625 27.316406 C 5.4375 27.460938 5.445312 27.632812 5.527344 27.773438 C 5.613281 27.914062 5.765625 28 5.929688 28 L 12.9375 28 C 13.101562 28 13.25 27.914062 13.335938 27.773438 C 13.421875 27.632812 13.425781 27.460938 13.347656 27.316406 C 12.652344 25.996094 11.359375 25.128906 9.898438 24.976562 Z M 15.332031 11.125 C 15.332031 11.4375 15.277344 11.738281 15.175781 12.027344 L 10.097656 12.027344 C 10.046875 11.890625 10.007812 11.75 9.984375 11.605469 C 9.957031 11.449219 9.941406 11.285156 9.941406 11.125 C 9.941406 9.65625 11.089844 8.472656 12.558594 8.429688 C 12.582031 8.429688 12.609375 8.429688 12.636719 8.429688 C 14.121094 8.429688 15.332031 9.640625 15.332031 11.125 Z M 9.433594 5.832031 C 10.566406 5.832031 11.558594 6.535156 11.949219 7.5625 C 11.226562 7.699219 10.558594 8.054688 10.035156 8.59375 C 9.792969 8.84375 9.589844 9.121094 9.433594 9.421875 C 9.273438 9.121094 9.070312 8.84375 8.828125 8.59375 C 8.304688 8.054688 7.640625 7.699219 6.914062 7.5625 C 7.308594 6.535156 8.296875 5.832031 9.433594 5.832031 Z M 6.230469 8.429688 C 6.253906 8.429688 6.28125 8.429688 6.308594 8.429688 C 7.773438 8.472656 8.921875 9.65625 8.921875 11.125 C 8.921875 11.285156 8.910156 11.449219 8.878906 11.605469 C 8.855469 11.75 8.816406 11.890625 8.769531 12.027344 L 3.6875 12.027344 C 3.585938 11.738281 3.535156 11.4375 3.535156 11.125 C 3.535156 9.640625 4.742188 8.429688 6.230469 8.429688 Z M 3.222656 12.960938 L 15.644531 12.960938 C 15.421875 16.195312 12.722656 18.757812 9.433594 18.757812 C 6.144531 18.757812 3.441406 16.195312 3.222656 12.960938 Z M 6.8125 27.066406 C 7.46875 26.324219 8.414062 25.882812 9.433594 25.882812 C 10.449219 25.882812 11.398438 26.324219 12.050781 27.066406 Z M 6.8125 27.066406 "/>
<path style=" stroke:none;fill-rule:nonzero;fill:rgb(0%,0%,0%);fill-opacity:1;" d="M 25.4375 1.4375 L 22.078125 0.0351562 C 21.945312 -0.0195312 21.796875 -0.0117188 21.671875 0.0585938 C 21.546875 0.128906 21.460938 0.253906 21.4375 0.394531 L 20.921875 3.734375 L 17.289062 3.734375 L 16.6875 1.386719 C 16.625 1.136719 16.371094 0.988281 16.121094 1.050781 C 15.871094 1.113281 15.71875 1.367188 15.78125 1.617188 L 16.324219 3.734375 L 13.667969 3.734375 C 13.535156 3.734375 13.410156 3.789062 13.324219 3.886719 C 13.234375 3.980469 13.191406 4.109375 13.203125 4.242188 L 13.449219 6.972656 C 13.472656 7.230469 13.699219 7.421875 13.953125 7.398438 C 14.210938 7.375 14.402344 7.148438 14.378906 6.890625 L 14.328125 6.351562 L 23.085938 6.351562 L 22.800781 9.519531 L 16.941406 9.519531 C 16.683594 9.519531 16.472656 9.730469 16.472656 9.988281 C 16.472656 10.246094 16.683594 10.453125 16.941406 10.453125 L 22.71875 10.453125 L 22.617188 11.574219 L 17.4375 11.574219 C 17.179688 11.574219 16.972656 11.78125 16.972656 12.039062 C 16.972656 12.296875 17.179688 12.507812 17.4375 12.507812 L 22.53125 12.507812 L 22.3125 14.972656 L 16.859375 14.972656 C 16.601562 14.972656 16.390625 15.183594 16.390625 15.441406 C 16.390625 15.699219 16.601562 15.90625 16.859375 15.90625 L 22.226562 15.90625 L 22.046875 17.917969 L 15.324219 17.917969 C 15.238281 17.757812 15.058594 17.65625 14.867188 17.675781 C 14.609375 17.703125 14.421875 17.929688 14.449219 18.1875 L 14.515625 18.847656 C 14.609375 19.898438 15.089844 20.867188 15.867188 21.578125 C 16.527344 22.183594 17.359375 22.554688 18.242188 22.652344 L 18.242188 25.542969 C 17.167969 25.6875 16.226562 26.339844 15.710938 27.316406 C 15.632812 27.460938 15.640625 27.632812 15.722656 27.773438 C 15.808594 27.914062 15.960938 28 16.121094 28 L 21.277344 28 C 21.4375 28 21.589844 27.914062 21.675781 27.773438 C 21.757812 27.632812 21.765625 27.460938 21.6875 27.316406 C 21.175781 26.34375 20.238281 25.695312 19.175781 25.542969 L 19.175781 22.652344 C 20.054688 22.554688 20.886719 22.183594 21.546875 21.578125 C 22.324219 20.867188 22.804688 19.898438 22.898438 18.847656 L 24.210938 4.242188 C 24.222656 4.109375 24.179688 3.980469 24.09375 3.886719 C 24.003906 3.789062 23.878906 3.734375 23.746094 3.734375 L 21.867188 3.734375 L 22.269531 1.125 L 25.082031 2.296875 C 25.316406 2.398438 25.589844 2.285156 25.691406 2.046875 C 25.789062 1.808594 25.675781 1.535156 25.4375 1.4375 Z M 20.777344 4.667969 L 20.660156 5.417969 L 17.71875 5.417969 L 17.527344 4.667969 Z M 14.179688 4.667969 L 16.5625 4.667969 L 16.753906 5.417969 L 14.246094 5.417969 Z M 17.070312 27.066406 C 17.511719 26.671875 18.085938 26.445312 18.699219 26.445312 C 19.3125 26.445312 19.886719 26.671875 20.328125 27.066406 Z M 18.707031 21.746094 C 17.03125 21.746094 15.652344 20.511719 15.453125 18.851562 L 21.960938 18.851562 C 21.765625 20.507812 20.386719 21.746094 18.707031 21.746094 Z M 23.238281 4.667969 L 23.167969 5.417969 L 21.605469 5.417969 L 21.71875 4.667969 Z M 23.238281 4.667969 "/>
</g>
</svg>
