<?xml version="1.0" encoding="UTF-8"?>
<svg xmlns="http://www.w3.org/2000/svg" xmlns:xlink="http://www.w3.org/1999/xlink" width="28pt" height="28pt" viewBox="0 0 28 28" version="1.1">
<g id="surface1">
<path style=" stroke:none;fill-rule:nonzero;fill:rgb(0%,0%,0%);fill-opacity:1;" d="M 15.398438 14 C 15.398438 13.226562 14.773438 12.601562 14 12.601562 C 13.226562 12.601562 12.601562 13.226562 12.601562 14 C 12.601562 14.773438 13.226562 15.398438 14 15.398438 C 14.773438 15.398438 15.398438 14.773438 15.398438 14 Z M 14 14.464844 C 13.742188 14.464844 13.535156 14.257812 13.535156 14 C 13.535156 13.742188 13.742188 13.535156 14 13.535156 C 14.257812 13.535156 14.464844 13.742188 14.464844 14 C 14.464844 14.257812 14.257812 14.464844 14 14.464844 Z M 14 14.464844 "/>
<path style=" stroke:none;fill-rule:nonzero;fill:rgb(0%,0%,0%);fill-opacity:1;" d="M 24.398438 18.386719 L 17.257812 14.261719 C 17.265625 14.175781 17.269531 14.089844 17.269531 14 C 17.265625 13.207031 16.976562 12.445312 16.457031 11.851562 C 16.992188 10.78125 17.269531 9.597656 17.265625 8.398438 C 17.265625 5.226562 15.265625 2.332031 13.066406 2.332031 C 12.808594 2.332031 12.601562 2.542969 12.601562 2.800781 L 12.601562 11.054688 C 11.804688 11.433594 11.195312 12.117188 10.910156 12.949219 C 9.714844 13.019531 8.554688 13.371094 7.515625 13.96875 C 7.5 13.980469 7.484375 13.992188 7.464844 14 C 7.464844 11.605469 8.777344 9.398438 10.886719 8.257812 L 10.441406 7.4375 C 8.03125 8.742188 6.535156 11.261719 6.535156 14 C 6.535156 14.207031 6.546875 14.414062 6.566406 14.617188 C 6.105469 14.976562 5.691406 15.390625 5.332031 15.847656 C 4.414062 11.566406 6.757812 7.261719 10.851562 5.707031 L 10.519531 4.835938 C 5.679688 6.675781 3.105469 11.960938 4.640625 16.90625 C 4.589844 17 4.539062 17.09375 4.492188 17.1875 C 3.890625 18.476562 3.84375 19.738281 4.363281 20.640625 C 4.492188 20.863281 4.777344 20.9375 5.003906 20.808594 L 6.308594 20.054688 C 9.316406 23.886719 14.683594 24.925781 18.898438 22.488281 L 18.433594 21.679688 C 14.660156 23.855469 9.867188 22.96875 7.125 19.585938 L 8.359375 18.875 C 10.351562 21.191406 13.558594 22.054688 16.449219 21.054688 L 16.144531 20.171875 C 13.675781 21.03125 10.9375 20.332031 9.183594 18.398438 L 12.15625 16.683594 C 12.695312 17.058594 13.339844 17.265625 14 17.265625 C 14.214844 17.265625 14.425781 17.242188 14.632812 17.199219 C 15.296875 18.199219 16.179688 19.03125 17.214844 19.628906 C 18.351562 20.292969 19.640625 20.652344 20.957031 20.664062 C 21.140625 20.664062 21.328125 20.65625 21.515625 20.640625 C 22.9375 20.515625 24.050781 19.929688 24.570312 19.027344 C 24.632812 18.917969 24.648438 18.789062 24.617188 18.671875 C 24.585938 18.550781 24.503906 18.449219 24.398438 18.386719 Z M 13.535156 3.335938 C 14.917969 3.730469 16.332031 5.804688 16.332031 8.398438 C 16.335938 9.375 16.128906 10.339844 15.726562 11.226562 C 15.613281 11.15625 15.492188 11.09375 15.371094 11.039062 C 15.34375 11.027344 15.3125 11.011719 15.28125 11 C 15.160156 10.945312 15.035156 10.902344 14.910156 10.863281 L 14.90625 10.863281 C 14.773438 10.828125 14.644531 10.800781 14.507812 10.78125 C 14.476562 10.773438 14.445312 10.769531 14.410156 10.765625 C 14.273438 10.746094 14.136719 10.734375 14 10.734375 C 13.84375 10.734375 13.6875 10.746094 13.535156 10.765625 Z M 5 19.734375 C 4.894531 19.199219 4.9375 18.644531 5.125 18.128906 C 5.3125 18.53125 5.527344 18.921875 5.765625 19.292969 Z M 6.574219 18.828125 C 6.199219 18.253906 5.894531 17.640625 5.664062 16.996094 C 5.964844 16.519531 6.328125 16.085938 6.738281 15.703125 C 6.941406 16.566406 7.292969 17.390625 7.785156 18.128906 Z M 8.59375 17.660156 C 8.0625 16.875 7.707031 15.984375 7.558594 15.046875 C 7.695312 14.953125 7.839844 14.863281 7.984375 14.78125 C 8.828125 14.289062 9.765625 13.988281 10.734375 13.894531 L 10.734375 14 C 10.734375 14.164062 10.75 14.324219 10.773438 14.488281 C 10.78125 14.523438 10.785156 14.5625 10.792969 14.597656 C 10.820312 14.753906 10.859375 14.910156 10.910156 15.058594 C 10.917969 15.078125 10.925781 15.09375 10.933594 15.113281 C 10.980469 15.246094 11.039062 15.378906 11.109375 15.507812 C 11.125 15.539062 11.140625 15.574219 11.160156 15.605469 C 11.234375 15.742188 11.324219 15.871094 11.417969 15.996094 C 11.425781 16.003906 11.425781 16.011719 11.433594 16.019531 Z M 12.484375 15.773438 C 11.964844 15.328125 11.667969 14.683594 11.667969 14 C 11.667969 13.832031 11.683594 13.664062 11.722656 13.5 C 11.894531 12.710938 12.464844 12.070312 13.226562 11.800781 C 13.335938 11.761719 13.449219 11.734375 13.5625 11.710938 C 13.613281 11.703125 13.667969 11.695312 13.71875 11.691406 C 13.78125 11.683594 13.839844 11.679688 13.902344 11.675781 C 13.960938 11.671875 14.03125 11.675781 14.09375 11.675781 C 14.160156 11.675781 14.210938 11.683594 14.265625 11.691406 C 14.398438 11.707031 14.53125 11.734375 14.65625 11.769531 C 14.695312 11.78125 14.738281 11.789062 14.773438 11.804688 C 14.839844 11.824219 14.898438 11.855469 14.960938 11.882812 C 15.023438 11.90625 15.082031 11.9375 15.140625 11.972656 C 15.1875 11.996094 15.230469 12.019531 15.273438 12.050781 C 15.378906 12.117188 15.480469 12.195312 15.574219 12.277344 C 16.058594 12.71875 16.332031 13.34375 16.332031 14 C 16.335938 14.144531 16.320312 14.285156 16.292969 14.425781 C 16.140625 15.246094 15.5625 15.921875 14.777344 16.199219 C 13.992188 16.476562 13.117188 16.316406 12.484375 15.773438 Z M 21.433594 19.710938 C 20.121094 19.796875 18.816406 19.484375 17.683594 18.824219 C 16.839844 18.335938 16.109375 17.671875 15.542969 16.878906 C 15.574219 16.863281 15.597656 16.839844 15.628906 16.824219 C 15.734375 16.761719 15.839844 16.695312 15.941406 16.617188 C 15.984375 16.585938 16.027344 16.558594 16.066406 16.527344 C 16.1875 16.425781 16.300781 16.320312 16.40625 16.207031 C 16.414062 16.195312 16.429688 16.183594 16.441406 16.171875 C 16.554688 16.042969 16.65625 15.90625 16.75 15.757812 C 16.773438 15.722656 16.792969 15.683594 16.816406 15.644531 C 16.882812 15.53125 16.941406 15.410156 16.996094 15.289062 C 17.007812 15.265625 17.023438 15.242188 17.035156 15.214844 L 23.464844 18.929688 C 22.894531 19.40625 22.179688 19.679688 21.433594 19.710938 Z M 21.433594 19.710938 "/>
<path style=" stroke:none;fill-rule:nonzero;fill:rgb(0%,0%,0%);fill-opacity:1;" d="M 14 0 C 6.269531 0 0 6.269531 0 14 C 0 21.730469 6.269531 28 14 28 C 21.730469 28 28 21.730469 28 14 C 27.992188 6.273438 21.726562 0.0078125 14 0 Z M 14 27.066406 C 6.785156 27.066406 0.933594 21.214844 0.933594 14 C 0.933594 6.785156 6.785156 0.933594 14 0.933594 C 21.214844 0.933594 27.066406 6.785156 27.066406 14 C 27.058594 21.214844 21.214844 27.058594 14 27.066406 Z M 14 27.066406 "/>
<path style=" stroke:none;fill-rule:nonzero;fill:rgb(0%,0%,0%);fill-opacity:1;" d="M 22.867188 14 C 22.867188 14.601562 22.804688 15.199219 22.6875 15.789062 L 23.601562 15.972656 C 24.445312 11.839844 22.554688 7.625 18.898438 5.511719 L 18.433594 6.320312 C 21.171875 7.910156 22.859375 10.832031 22.867188 14 Z M 22.867188 14 "/>
<path style=" stroke:none;fill-rule:nonzero;fill:rgb(0%,0%,0%);fill-opacity:1;" d="M 20.535156 14 L 21.464844 14 C 21.464844 11.875 20.5625 9.851562 18.976562 8.433594 L 18.355469 9.128906 C 19.742188 10.371094 20.53125 12.140625 20.535156 14 Z M 20.535156 14 "/>
</g>
</svg>
