<?xml version="1.0" encoding="UTF-8"?>
<svg xmlns="http://www.w3.org/2000/svg" xmlns:xlink="http://www.w3.org/1999/xlink" width="28pt" height="28pt" viewBox="0 0 28 28" version="1.1">
<g id="surface1">
<path style=" stroke:none;fill-rule:nonzero;fill:rgb(0%,0%,0%);fill-opacity:1;" d="M 28 7.4375 L 28 5.796875 C 28 5.34375 27.632812 4.976562 27.179688 4.976562 L 22.699219 4.976562 L 19.660156 0.367188 C 19.507812 0.136719 19.253906 0 18.976562 0 L 9.023438 0 C 8.746094 0 8.492188 0.136719 8.339844 0.367188 L 5.300781 4.976562 L 0.820312 4.976562 C 0.367188 4.976562 0 5.34375 0 5.796875 L 0 7.4375 C 0 8.507812 0.6875 9.417969 1.640625 9.757812 L 1.640625 23.21875 C 0.6875 23.558594 0 24.46875 0 25.539062 L 0 27.179688 C 0 27.632812 0.367188 28 0.820312 28 L 27.179688 28 C 27.632812 28 28 27.632812 28 27.179688 L 28 25.539062 C 28 24.46875 27.3125 23.558594 26.359375 23.21875 L 26.359375 9.757812 C 27.3125 9.417969 28 8.507812 28 7.4375 Z M 9.464844 1.640625 L 18.535156 1.640625 L 20.734375 4.976562 L 7.265625 4.976562 Z M 26.359375 26.359375 L 1.640625 26.359375 L 1.640625 25.539062 C 1.640625 25.085938 2.007812 24.71875 2.460938 24.71875 C 3.585938 24.71875 24.394531 24.71875 25.539062 24.71875 C 25.992188 24.71875 26.359375 25.085938 26.359375 25.539062 Z M 14 11.59375 C 8.996094 11.59375 4.921875 15.640625 4.921875 20.617188 L 4.921875 23.078125 L 3.28125 23.078125 L 3.28125 9.898438 L 24.71875 9.898438 L 24.71875 23.078125 L 23.078125 23.078125 L 23.078125 20.617188 C 23.078125 15.640625 19.003906 11.59375 14 11.59375 Z M 17.058594 17.882812 L 14.613281 15.148438 C 14.457031 14.972656 14.234375 14.875 14 14.875 C 13.765625 14.875 13.542969 14.972656 13.386719 15.148438 C 10.460938 18.421875 11.019531 17.796875 10.941406 17.882812 C 10.046875 18.882812 9.699219 20.25 10.011719 21.589844 C 10.136719 22.132812 10.382812 22.636719 10.714844 23.078125 L 6.5625 23.078125 L 6.5625 20.617188 C 6.5625 16.546875 9.898438 13.234375 14 13.234375 C 18.101562 13.234375 21.4375 16.546875 21.4375 20.617188 L 21.4375 23.078125 L 17.28125 23.078125 C 17.808594 22.375 18.101562 21.515625 18.101562 20.617188 C 18.101562 19.582031 17.714844 18.621094 17.058594 17.882812 Z M 16.460938 20.617188 C 16.460938 21.359375 16.128906 22.054688 15.554688 22.527344 C 15.117188 22.882812 14.59375 23.070312 14.042969 23.078125 L 14.007812 23.078125 C 12.78125 23.082031 11.839844 22.203125 11.609375 21.21875 C 11.410156 20.367188 11.640625 19.5625 12.164062 18.980469 C 14.566406 16.292969 13.632812 17.335938 14 16.925781 L 15.835938 18.976562 C 16.230469 19.417969 16.460938 19.996094 16.460938 20.617188 Z M 25.539062 8.257812 L 2.460938 8.257812 C 2.007812 8.257812 1.640625 7.890625 1.640625 7.4375 L 1.640625 6.617188 C 2.886719 6.617188 25.355469 6.617188 26.359375 6.617188 L 26.359375 7.4375 C 26.359375 7.890625 25.992188 8.257812 25.539062 8.257812 Z M 25.539062 8.257812 "/>
</g>
</svg>
