<?xml version="1.0" encoding="UTF-8"?>
<svg xmlns="http://www.w3.org/2000/svg" xmlns:xlink="http://www.w3.org/1999/xlink" width="28pt" height="28pt" viewBox="0 0 28 28" version="1.1">
<g id="surface1">
<path style=" stroke:none;fill-rule:nonzero;fill:rgb(0%,0%,0%);fill-opacity:1;" d="M 25.199219 12.601562 L 25.667969 12.601562 C 26.179688 12.601562 26.601562 12.179688 26.601562 11.667969 L 26.601562 10.734375 L 27.066406 10.734375 C 27.578125 10.734375 28 10.3125 28 9.800781 L 28 8.398438 C 28 7.886719 27.578125 7.464844 27.066406 7.464844 L 20.820312 7.464844 L 19.085938 4.433594 C 18.992188 4.292969 18.851562 4.199219 18.667969 4.199219 L 18.027344 4.199219 L 16.285156 0.28125 C 16.238281 0.09375 16.054688 0 15.867188 0 L 12.132812 0 C 11.945312 0 11.761719 0.09375 11.714844 0.234375 L 9.949219 4.199219 L 9.332031 4.199219 C 9.148438 4.199219 9.007812 4.292969 8.914062 4.433594 L 7.179688 7.464844 L 0.933594 7.464844 C 0.421875 7.464844 0 7.886719 0 8.398438 L 0 9.800781 C 0 10.3125 0.421875 10.734375 0.933594 10.734375 L 1.398438 10.734375 L 1.398438 11.667969 C 1.398438 12.179688 1.820312 12.601562 2.332031 12.601562 L 2.800781 12.601562 L 2.800781 22.867188 L 2.332031 22.867188 C 1.820312 22.867188 1.398438 23.285156 1.398438 23.800781 L 1.398438 24.734375 L 0.933594 24.734375 C 0.421875 24.734375 0 25.152344 0 25.667969 L 0 27.066406 C 0 27.578125 0.421875 28 0.933594 28 L 27.066406 28 C 27.578125 28 28 27.578125 28 27.066406 L 28 25.667969 C 28 25.152344 27.578125 24.734375 27.066406 24.734375 L 26.601562 24.734375 L 26.601562 23.800781 C 26.601562 23.285156 26.179688 22.867188 25.667969 22.867188 L 25.199219 22.867188 Z M 19.132812 22.867188 C 19.414062 22.492188 19.601562 21.980469 19.601562 21.464844 C 19.601562 20.578125 20.207031 19.832031 21 19.648438 L 21 22.867188 Z M 16.449219 22.867188 C 17.175781 22.253906 17.644531 21.324219 17.734375 20.347656 C 17.78125 19.785156 17.875 18.527344 16.148438 17.3125 C 15.539062 16.847656 15.351562 16.425781 15.398438 15.398438 C 15.398438 15.214844 15.308594 15.027344 15.121094 14.933594 C 14.933594 14.839844 14.746094 14.886719 14.605469 14.980469 C 13.160156 16.054688 12.648438 16.800781 12.832031 18.480469 C 12.460938 18.246094 12.273438 18.105469 12.273438 17.78125 C 12.273438 17.546875 12.132812 17.359375 11.945312 17.3125 C 11.761719 17.265625 11.574219 17.359375 11.433594 17.5 L 11.292969 17.6875 C 10.828125 18.292969 10.265625 19.039062 10.265625 20.488281 C 10.265625 21.398438 10.664062 22.257812 11.355469 22.867188 L 10.734375 22.867188 C 9.941406 22.867188 9.332031 22.261719 9.332031 21.464844 C 9.332031 20.085938 8.320312 18.929688 7 18.707031 L 7 12.601562 L 21 12.601562 L 21 18.707031 C 19.679688 18.929688 18.667969 20.085938 18.667969 21.464844 C 18.667969 22.261719 18.058594 22.867188 17.265625 22.867188 Z M 12.554688 22.585938 C 11.714844 22.167969 11.199219 21.375 11.199219 20.535156 C 11.199219 19.738281 11.433594 19.226562 11.714844 18.808594 C 11.945312 19.085938 12.273438 19.273438 12.554688 19.507812 L 12.648438 19.554688 C 12.878906 19.691406 13.207031 19.691406 13.488281 19.507812 C 13.71875 19.320312 13.859375 19.039062 13.8125 18.714844 C 13.625 17.546875 13.765625 17.035156 14.464844 16.378906 C 14.558594 17.078125 14.886719 17.640625 15.585938 18.152344 C 16.894531 19.039062 16.847656 19.878906 16.800781 20.347656 C 16.753906 21.140625 16.378906 21.792969 15.773438 22.261719 C 15.3125 22.589844 14.796875 22.796875 14.277344 22.867188 L 13.453125 22.867188 C 13.144531 22.824219 12.839844 22.730469 12.554688 22.585938 Z M 6.066406 17.265625 L 3.734375 17.265625 L 3.734375 15.398438 L 6.066406 15.398438 Z M 3.734375 18.199219 L 6.066406 18.199219 L 6.066406 20.066406 L 3.734375 20.066406 Z M 7 19.648438 C 7.792969 19.878906 8.398438 20.578125 8.398438 21.464844 C 8.398438 21.980469 8.585938 22.492188 8.867188 22.867188 L 7 22.867188 Z M 24.265625 17.265625 L 21.933594 17.265625 L 21.933594 15.398438 L 24.265625 15.398438 Z M 21.933594 19.132812 L 21.933594 18.199219 L 24.265625 18.199219 L 24.265625 20.066406 L 21.933594 20.066406 Z M 24.265625 14.464844 L 21.933594 14.464844 L 21.933594 12.601562 L 24.265625 12.601562 Z M 12.414062 0.933594 L 15.539062 0.933594 L 16.988281 4.199219 L 10.964844 4.199219 Z M 9.613281 5.132812 L 18.386719 5.132812 L 19.738281 7.464844 L 8.261719 7.464844 Z M 0.933594 8.398438 L 27.066406 8.398438 L 27.066406 9.800781 L 0.933594 9.800781 Z M 2.332031 10.734375 L 25.667969 10.734375 L 25.667969 11.667969 L 2.332031 11.667969 Z M 6.066406 12.601562 L 6.066406 14.464844 L 3.734375 14.464844 L 3.734375 12.601562 Z M 3.734375 21 L 6.066406 21 L 6.066406 22.867188 L 3.734375 22.867188 Z M 27.066406 27.066406 L 0.933594 27.066406 L 0.933594 25.667969 L 27.066406 25.667969 Z M 25.667969 24.734375 L 2.332031 24.734375 L 2.332031 23.800781 L 25.667969 23.800781 Z M 21.933594 22.867188 L 21.933594 21 L 24.265625 21 L 24.265625 22.867188 Z M 21.933594 22.867188 "/>
</g>
</svg>
