<?xml version="1.0" encoding="UTF-8"?>
<svg xmlns="http://www.w3.org/2000/svg" xmlns:xlink="http://www.w3.org/1999/xlink" width="28pt" height="28pt" viewBox="0 0 28 28" version="1.1">
<g id="surface1">
<path style=" stroke:none;fill-rule:nonzero;fill:rgb(0%,0%,0%);fill-opacity:1;" d="M 17.820312 0 C 17.363281 0 16.988281 0.371094 16.988281 0.832031 L 16.988281 6.261719 C 16.988281 7.234375 16.566406 7.894531 15.800781 8.15625 L 15.800781 0.832031 C 15.800781 0.371094 15.425781 0 14.96875 0 C 14.507812 0 14.136719 0.371094 14.136719 0.832031 L 14.136719 8.15625 C 13.371094 7.894531 12.945312 7.234375 12.945312 6.261719 L 12.945312 0.832031 C 12.945312 0.371094 12.574219 0 12.113281 0 C 11.65625 0 11.285156 0.371094 11.285156 0.832031 L 11.285156 6.261719 C 11.285156 8.175781 12.398438 9.542969 14.136719 9.871094 L 14.136719 12.214844 L 15.800781 12.214844 L 15.800781 9.871094 C 17.535156 9.542969 18.652344 8.175781 18.652344 6.261719 L 18.652344 0.832031 C 18.652344 0.371094 18.28125 0 17.820312 0 Z M 17.820312 0 "/>
<path style=" stroke:none;fill-rule:nonzero;fill:rgb(0%,0%,0%);fill-opacity:1;" d="M 6.109375 0 C 4.175781 0 2.601562 1.574219 2.601562 3.511719 L 2.601562 6.4375 C 2.601562 8.085938 3.742188 9.46875 5.277344 9.84375 L 5.277344 12.257812 L 6.941406 12.257812 L 6.941406 9.84375 C 8.476562 9.46875 9.621094 8.085938 9.621094 6.4375 L 9.621094 3.511719 C 9.621094 1.574219 8.046875 0 6.109375 0 Z M 6.109375 0 "/>
<path style=" stroke:none;fill-rule:nonzero;fill:rgb(0%,0%,0%);fill-opacity:1;" d="M 21.703125 0 L 20.871094 0 L 20.871094 12.214844 L 21.703125 12.214844 C 23.742188 12.214844 25.398438 10.558594 25.398438 8.519531 L 25.398438 3.695312 C 25.398438 1.660156 23.742188 0 21.703125 0 Z M 21.703125 0 "/>
<path style=" stroke:none;fill-rule:nonzero;fill:rgb(0%,0%,0%);fill-opacity:1;" d="M 12.703125 13.878906 L 12.703125 25.734375 C 12.703125 26.984375 13.71875 28 14.96875 28 C 16.214844 28 17.230469 26.984375 17.230469 25.734375 L 17.230469 13.878906 Z M 12.703125 13.878906 "/>
<path style=" stroke:none;fill-rule:nonzero;fill:rgb(0%,0%,0%);fill-opacity:1;" d="M 3.847656 13.878906 L 3.847656 25.734375 C 3.847656 26.984375 4.863281 28 6.109375 28 C 7.359375 28 8.375 26.984375 8.375 25.734375 L 8.375 13.878906 Z M 3.847656 13.878906 "/>
<path style=" stroke:none;fill-rule:nonzero;fill:rgb(0%,0%,0%);fill-opacity:1;" d="M 20.871094 13.878906 L 20.871094 25.734375 C 20.871094 26.984375 21.886719 28 23.136719 28 C 24.382812 28 25.398438 26.984375 25.398438 25.734375 L 25.398438 13.878906 Z M 20.871094 13.878906 "/>
</g>
</svg>
