<?xml version="1.0" encoding="UTF-8"?>
<svg xmlns="http://www.w3.org/2000/svg" xmlns:xlink="http://www.w3.org/1999/xlink" width="28pt" height="28pt" viewBox="0 0 28 28" version="1.1">
<g id="surface1">
<path style=" stroke:none;fill-rule:nonzero;fill:rgb(0%,0%,0%);fill-opacity:1;" d="M 22.085938 10.074219 C 21.382812 10.074219 20.726562 10.277344 20.179688 10.625 L 19.980469 8.28125 L 2.417969 8.28125 L 4.605469 15.160156 L 6.960938 15.160156 L 5.871094 28 L 21.652344 28 L 20.953125 19.757812 C 23.644531 18.9375 25.582031 16.5 25.582031 13.78125 L 25.582031 13.570312 C 25.582031 11.644531 24.015625 10.074219 22.085938 10.074219 Z M 23.710938 13.78125 C 23.710938 14.796875 23.308594 15.796875 22.570312 16.601562 C 22.074219 17.140625 21.460938 17.558594 20.789062 17.832031 L 20.425781 13.527344 L 20.433594 13.527344 C 20.433594 12.652344 21.175781 11.945312 22.085938 11.945312 C 22.984375 11.945312 23.710938 12.675781 23.710938 13.570312 Z M 23.710938 13.78125 "/>
<path style=" stroke:none;fill-rule:nonzero;fill:rgb(0%,0%,0%);fill-opacity:1;" d="M 17.800781 3.613281 C 17.03125 2.953125 16.121094 2.5 15.144531 2.277344 C 15.257812 2.0625 15.320312 1.816406 15.320312 1.558594 C 15.320312 0.699219 14.621094 0 13.761719 0 C 12.902344 0 12.203125 0.699219 12.203125 1.558594 C 12.203125 1.816406 12.265625 2.0625 12.378906 2.277344 C 11.40625 2.5 10.492188 2.953125 9.722656 3.613281 C 8.839844 4.367188 8.191406 5.355469 7.84375 6.457031 L 19.683594 6.457031 C 19.335938 5.355469 18.6875 4.367188 17.800781 3.613281 Z M 17.800781 3.613281 "/>
</g>
</svg>
