<?xml version="1.0" encoding="UTF-8"?>
<svg xmlns="http://www.w3.org/2000/svg" xmlns:xlink="http://www.w3.org/1999/xlink" width="28pt" height="28pt" viewBox="0 0 28 28" version="1.1">
<g id="surface1">
<path style=" stroke:none;fill-rule:nonzero;fill:rgb(0%,0%,0%);fill-opacity:1;" d="M 0 23.464844 L 5.195312 23.464844 L 5.195312 24.324219 L 0 24.324219 Z M 0 23.464844 "/>
<path style=" stroke:none;fill-rule:nonzero;fill:rgb(0%,0%,0%);fill-opacity:1;" d="M 5.195312 4.546875 L 3.011719 4.546875 L 3.011719 3.675781 L 2.152344 3.675781 L 2.152344 4.546875 L 0 4.546875 L 0 5.40625 L 5.195312 5.40625 Z M 5.195312 4.546875 "/>
<path style=" stroke:none;fill-rule:nonzero;fill:rgb(0%,0%,0%);fill-opacity:1;" d="M 22.804688 23.464844 L 28 23.464844 L 28 24.324219 L 22.804688 24.324219 Z M 22.804688 23.464844 "/>
<path style=" stroke:none;fill-rule:nonzero;fill:rgb(0%,0%,0%);fill-opacity:1;" d="M 25.816406 4.546875 L 25.816406 3.675781 L 24.953125 3.675781 L 24.953125 4.546875 L 22.804688 4.546875 L 22.804688 5.40625 L 28 5.40625 L 28 4.546875 Z M 25.816406 4.546875 "/>
<path style=" stroke:none;fill-rule:nonzero;fill:rgb(0%,0%,0%);fill-opacity:1;" d="M 22.804688 22.175781 L 22.804688 23.035156 L 27.964844 23.035156 L 27.964844 22.175781 L 27.535156 22.175781 L 27.535156 6.6875 L 27.964844 6.6875 L 27.964844 5.824219 L 22.804688 5.824219 L 22.804688 6.6875 L 23.234375 6.6875 L 23.234375 8.835938 L 21.976562 8.835938 L 21.976562 7.117188 L 21.117188 7.117188 L 21.117188 8.835938 L 18.964844 8.835938 L 18.964844 6.253906 L 18.105469 6.253906 L 18.105469 8.835938 L 15.953125 8.835938 L 15.953125 4.964844 L 15.09375 4.964844 L 15.09375 8.835938 L 12.941406 8.835938 L 12.941406 4.964844 L 12.082031 4.964844 L 12.082031 8.835938 L 9.929688 8.835938 L 9.929688 6.253906 L 9.070312 6.253906 L 9.070312 8.835938 L 6.917969 8.835938 L 6.917969 7.117188 L 6.058594 7.117188 L 6.058594 8.835938 L 4.734375 8.835938 L 4.734375 6.6875 L 5.164062 6.6875 L 5.164062 5.824219 L 0 5.824219 L 0 6.6875 L 0.429688 6.6875 L 0.429688 22.175781 L 0 22.175781 L 0 23.035156 L 5.164062 23.035156 L 5.164062 22.175781 L 4.734375 22.175781 L 4.734375 21.3125 L 6.058594 21.3125 L 6.058594 23.894531 L 21.976562 23.894531 L 21.976562 21.3125 L 23.234375 21.3125 L 23.234375 22.175781 Z M 24.09375 6.6875 L 26.675781 6.6875 L 26.675781 18.734375 L 24.09375 18.734375 Z M 24.09375 19.59375 L 26.675781 19.59375 L 26.675781 22.175781 L 24.09375 22.175781 Z M 3.871094 22.175781 L 1.289062 22.175781 L 1.289062 19.59375 L 3.871094 19.59375 Z M 3.871094 18.734375 L 1.289062 18.734375 L 1.289062 6.6875 L 3.871094 6.6875 Z M 6.058594 20.453125 L 4.734375 20.453125 L 4.734375 9.699219 L 6.058594 9.699219 Z M 9.070312 23.035156 L 6.917969 23.035156 L 6.917969 21.3125 L 9.070312 21.3125 Z M 9.070312 20.453125 L 6.917969 20.453125 L 6.917969 9.699219 L 9.070312 9.699219 Z M 12.082031 23.035156 L 9.929688 23.035156 L 9.929688 21.3125 L 12.082031 21.3125 Z M 12.082031 20.453125 L 9.929688 20.453125 L 9.929688 14.964844 C 10.238281 15.171875 10.609375 15.289062 11.003906 15.289062 C 11.402344 15.289062 11.773438 15.171875 12.082031 14.964844 Z M 11.003906 14.429688 C 10.414062 14.429688 9.929688 13.949219 9.929688 13.355469 C 9.929688 12.761719 10.414062 12.277344 11.003906 12.277344 C 11.597656 12.277344 12.082031 12.761719 12.082031 13.355469 C 12.082031 13.949219 11.597656 14.429688 11.003906 14.429688 Z M 12.082031 11.746094 C 11.773438 11.539062 11.402344 11.417969 11.003906 11.417969 C 10.609375 11.417969 10.238281 11.539062 9.929688 11.746094 L 9.929688 9.699219 L 12.082031 9.699219 Z M 15.09375 23.035156 L 12.941406 23.035156 L 12.941406 21.3125 L 15.09375 21.3125 Z M 15.09375 20.453125 L 12.941406 20.453125 L 12.941406 14.964844 C 13.25 15.171875 13.621094 15.289062 14.015625 15.289062 C 14.414062 15.289062 14.785156 15.171875 15.09375 14.964844 Z M 14.015625 14.429688 C 13.425781 14.429688 12.941406 13.949219 12.941406 13.355469 C 12.941406 12.761719 13.425781 12.277344 14.015625 12.277344 C 14.609375 12.277344 15.09375 12.761719 15.09375 13.355469 C 15.09375 13.949219 14.609375 14.429688 14.015625 14.429688 Z M 15.09375 11.746094 C 14.785156 11.539062 14.414062 11.417969 14.015625 11.417969 C 13.621094 11.417969 13.25 11.539062 12.941406 11.746094 L 12.941406 9.699219 L 15.09375 9.699219 Z M 18.105469 23.035156 L 15.953125 23.035156 L 15.953125 21.3125 L 18.105469 21.3125 Z M 18.105469 20.453125 L 15.953125 20.453125 L 15.953125 14.964844 C 16.261719 15.171875 16.632812 15.289062 17.027344 15.289062 C 17.425781 15.289062 17.796875 15.171875 18.105469 14.964844 Z M 17.027344 14.429688 C 16.4375 14.429688 15.953125 13.949219 15.953125 13.355469 C 15.953125 12.761719 16.4375 12.277344 17.027344 12.277344 C 17.621094 12.277344 18.105469 12.761719 18.105469 13.355469 C 18.105469 13.949219 17.621094 14.429688 17.027344 14.429688 Z M 18.105469 11.746094 C 17.796875 11.539062 17.425781 11.417969 17.027344 11.417969 C 16.632812 11.417969 16.261719 11.539062 15.953125 11.746094 L 15.953125 9.699219 L 18.105469 9.699219 Z M 21.117188 23.035156 L 18.964844 23.035156 L 18.964844 21.3125 L 21.117188 21.3125 Z M 21.117188 20.453125 L 18.964844 20.453125 L 18.964844 9.699219 L 21.117188 9.699219 Z M 21.976562 20.453125 L 21.976562 9.699219 L 23.234375 9.699219 L 23.234375 20.453125 Z M 21.976562 20.453125 "/>
</g>
</svg>
