<?xml version="1.0" encoding="UTF-8"?>
<svg xmlns="http://www.w3.org/2000/svg" xmlns:xlink="http://www.w3.org/1999/xlink" width="28pt" height="28pt" viewBox="0 0 28 28" version="1.1">
<g id="surface1">
<path style=" stroke:none;fill-rule:nonzero;fill:rgb(0%,0%,0%);fill-opacity:1;" d="M 19.222656 7.484375 C 19.339844 7.484375 19.453125 7.476562 19.566406 7.457031 C 20.140625 7.367188 20.640625 7.058594 20.980469 6.589844 L 23.039062 3.753906 C 23.125 3.636719 23.140625 3.488281 23.089844 3.355469 C 23.035156 3.226562 22.917969 3.132812 22.777344 3.109375 C 22.738281 3.101562 21.929688 2.96875 20.945312 2.957031 C 20.628906 2.023438 20.253906 1.296875 20.234375 1.261719 C 20.167969 1.136719 20.042969 1.054688 19.902344 1.042969 C 19.761719 1.03125 19.621094 1.09375 19.539062 1.210938 L 17.476562 4.046875 C 17.140625 4.515625 17 5.085938 17.09375 5.660156 C 17.160156 6.082031 17.34375 6.464844 17.628906 6.773438 C 17.316406 7.144531 16.765625 7.820312 16.164062 8.660156 L 16.164062 8.300781 C 16.164062 8.074219 15.980469 7.890625 15.753906 7.890625 C 15.527344 7.890625 15.34375 8.074219 15.34375 8.300781 L 15.34375 9.867188 C 15.015625 10.382812 14.695312 10.929688 14.410156 11.480469 L 14.410156 9.179688 C 14.410156 9.179688 14.410156 9.179688 14.410156 9.175781 L 14.410156 8.472656 L 15.605469 7.277344 C 15.765625 7.117188 15.765625 6.855469 15.605469 6.695312 C 15.445312 6.535156 15.183594 6.535156 15.023438 6.695312 L 14.410156 7.3125 L 14.410156 6.042969 C 15.40625 5.847656 16.164062 4.96875 16.164062 3.917969 L 16.164062 0.410156 C 16.164062 0.269531 16.089844 0.136719 15.96875 0.0625 C 15.847656 -0.0117188 15.695312 -0.0195312 15.570312 0.0429688 C 15.535156 0.0585938 14.804688 0.429688 14 1 C 13.195312 0.429688 12.464844 0.0585938 12.429688 0.0429688 C 12.300781 -0.0195312 12.152344 -0.0117188 12.03125 0.0625 C 11.910156 0.136719 11.835938 0.269531 11.835938 0.410156 L 11.835938 3.917969 C 11.835938 4.96875 12.59375 5.847656 13.589844 6.042969 L 13.589844 8.1875 L 12.535156 7.132812 C 12.375 6.972656 12.117188 6.972656 11.957031 7.132812 C 11.796875 7.292969 11.796875 7.554688 11.957031 7.714844 L 13.589844 9.347656 L 13.589844 11.480469 C 12.542969 9.441406 10.992188 7.511719 10.371094 6.773438 C 10.65625 6.464844 10.839844 6.082031 10.90625 5.660156 C 11 5.085938 10.859375 4.515625 10.523438 4.046875 L 8.460938 1.210938 C 8.378906 1.09375 8.238281 1.03125 8.097656 1.042969 C 7.957031 1.054688 7.832031 1.136719 7.765625 1.261719 C 7.746094 1.296875 7.371094 2.023438 7.054688 2.957031 C 6.070312 2.96875 5.261719 3.101562 5.222656 3.109375 C 5.082031 3.132812 4.964844 3.226562 4.910156 3.355469 C 4.859375 3.488281 4.875 3.636719 4.960938 3.753906 L 7.019531 6.589844 C 7.359375 7.058594 7.859375 7.367188 8.433594 7.457031 C 8.546875 7.476562 8.660156 7.484375 8.777344 7.484375 C 9.101562 7.484375 9.421875 7.410156 9.714844 7.265625 C 9.839844 7.417969 10.015625 7.628906 10.222656 7.890625 L 9.863281 7.890625 C 9.636719 7.890625 9.453125 8.074219 9.453125 8.300781 C 9.453125 8.527344 9.636719 8.710938 9.863281 8.710938 L 10.851562 8.710938 C 11.453125 9.515625 12.148438 10.53125 12.710938 11.578125 C 12.042969 10.921875 11.304688 10.332031 10.492188 9.816406 C 8.039062 8.253906 5.824219 7.910156 5.730469 7.894531 C 5.613281 7.878906 5.492188 7.914062 5.402344 7.992188 C 5.3125 8.066406 5.261719 8.183594 5.261719 8.300781 C 5.261719 8.367188 5.269531 9.933594 6.050781 12.109375 C 6.757812 14.078125 8.257812 16.9375 11.398438 19.457031 L 11.398438 20.960938 L 9.660156 27.484375 C 9.625 27.605469 9.652344 27.738281 9.730469 27.839844 C 9.808594 27.941406 9.925781 28 10.054688 28 L 17.945312 28 C 18.074219 28 18.191406 27.941406 18.269531 27.839844 C 18.347656 27.738281 18.375 27.605469 18.339844 27.484375 L 16.601562 20.960938 L 16.601562 19.457031 C 19.742188 16.9375 21.242188 14.078125 21.949219 12.109375 C 22.730469 9.933594 22.738281 8.367188 22.738281 8.300781 C 22.738281 8.183594 22.6875 8.066406 22.597656 7.992188 C 22.507812 7.914062 22.386719 7.878906 22.269531 7.894531 C 22.214844 7.902344 20.917969 8.105469 19.210938 8.890625 C 18.09375 9.402344 16.644531 10.25 15.285156 11.585938 C 15.851562 10.535156 16.546875 9.519531 17.148438 8.710938 L 18.136719 8.710938 C 18.363281 8.710938 18.546875 8.527344 18.546875 8.300781 C 18.546875 8.074219 18.363281 7.890625 18.136719 7.890625 L 17.777344 7.890625 C 17.984375 7.628906 18.160156 7.417969 18.285156 7.265625 C 18.578125 7.410156 18.898438 7.484375 19.222656 7.484375 Z M 21.96875 3.835938 L 21.347656 4.6875 C 21.320312 4.40625 21.265625 4.105469 21.1875 3.785156 C 21.476562 3.792969 21.742188 3.8125 21.96875 3.835938 Z M 6.652344 4.6875 L 6.03125 3.835938 C 6.257812 3.8125 6.523438 3.792969 6.8125 3.785156 C 6.734375 4.105469 6.679688 4.40625 6.652344 4.6875 Z M 9.558594 6.40625 C 9.269531 6.617188 8.914062 6.703125 8.558594 6.648438 C 8.207031 6.589844 7.894531 6.398438 7.683594 6.109375 C 7.097656 5.300781 7.71875 3.386719 8.207031 2.253906 L 9.859375 4.53125 C 10.292969 5.128906 10.160156 5.972656 9.558594 6.40625 Z M 15.34375 1.105469 L 15.34375 2.160156 C 15.15625 1.949219 14.933594 1.738281 14.683594 1.523438 C 14.921875 1.363281 15.148438 1.222656 15.34375 1.105469 Z M 12.65625 3.917969 L 12.65625 1.105469 C 13.714844 1.734375 15.34375 2.917969 15.34375 3.917969 C 15.34375 4.65625 14.742188 5.261719 14 5.261719 C 13.257812 5.261719 12.65625 4.65625 12.65625 3.917969 Z M 6.835938 11.867188 C 6.351562 10.527344 6.175781 9.421875 6.117188 8.8125 C 6.878906 9 8.417969 9.46875 10.054688 10.511719 C 11.410156 11.375 12.5625 12.453125 13.476562 13.71875 C 14.535156 15.183594 15.277344 16.910156 15.691406 18.851562 L 14.738281 18.851562 C 14.210938 16.550781 13.179688 14.589844 11.664062 13.023438 C 11.507812 12.863281 11.246094 12.859375 11.085938 13.015625 C 10.921875 13.171875 10.917969 13.433594 11.074219 13.597656 C 12.445312 15.011719 13.390625 16.777344 13.894531 18.851562 L 11.953125 18.851562 C 8.949219 16.453125 7.511719 13.734375 6.835938 11.867188 Z M 15.78125 19.671875 L 15.78125 20.605469 L 12.21875 20.605469 L 12.21875 19.671875 Z M 17.410156 27.179688 L 15.675781 27.179688 L 15.605469 26.660156 C 15.574219 26.433594 15.367188 26.277344 15.144531 26.304688 C 14.917969 26.335938 14.761719 26.542969 14.792969 26.765625 L 14.847656 27.179688 L 10.589844 27.179688 L 12.125 21.425781 L 14.078125 21.425781 L 14.558594 25.015625 C 14.585938 25.21875 14.761719 25.371094 14.964844 25.371094 C 14.980469 25.371094 15 25.367188 15.019531 25.367188 C 15.242188 25.335938 15.402344 25.128906 15.371094 24.90625 L 14.90625 21.425781 L 15.875 21.425781 Z M 19.527344 9.644531 C 20.519531 9.1875 21.375 8.9375 21.882812 8.8125 C 21.824219 9.421875 21.648438 10.527344 21.164062 11.867188 C 20.519531 13.648438 19.183594 16.199219 16.457031 18.511719 C 16.0625 16.75 15.40625 15.15625 14.496094 13.757812 C 16.074219 11.558594 18.09375 10.308594 19.527344 9.644531 Z M 18.140625 4.53125 L 19.792969 2.253906 C 20.28125 3.382812 20.90625 5.296875 20.316406 6.109375 C 20.105469 6.398438 19.792969 6.589844 19.441406 6.648438 C 19.085938 6.703125 18.730469 6.617188 18.441406 6.40625 C 17.839844 5.972656 17.707031 5.128906 18.140625 4.53125 Z M 18.140625 4.53125 "/>
<path style=" stroke:none;fill-rule:nonzero;fill:rgb(0%,0%,0%);fill-opacity:1;" d="M 10.300781 11.824219 C 10.011719 11.605469 9.707031 11.394531 9.394531 11.203125 C 9.203125 11.082031 8.949219 11.140625 8.832031 11.335938 C 8.710938 11.527344 8.769531 11.78125 8.964844 11.898438 C 9.253906 12.078125 9.539062 12.273438 9.808594 12.476562 C 9.882812 12.535156 9.96875 12.558594 10.054688 12.558594 C 10.179688 12.558594 10.300781 12.503906 10.382812 12.398438 C 10.519531 12.214844 10.484375 11.960938 10.300781 11.824219 Z M 10.300781 11.824219 "/>
</g>
</svg>
