<?xml version="1.0" encoding="UTF-8"?>
<svg xmlns="http://www.w3.org/2000/svg" xmlns:xlink="http://www.w3.org/1999/xlink" width="28pt" height="28pt" viewBox="0 0 28 28" version="1.1">
<g id="surface1">
<path style=" stroke:none;fill-rule:nonzero;fill:rgb(0%,0%,0%);fill-opacity:1;" d="M 6.429688 2.582031 C 6.0625 2.40625 5.652344 2.304688 5.21875 2.304688 L 4.332031 2.304688 C 2.792969 2.304688 1.539062 3.558594 1.539062 5.101562 L 1.539062 6.917969 L 0.933594 6.917969 C 0.417969 6.917969 0 7.335938 0 7.851562 C 0 8.363281 0.417969 8.78125 0.933594 8.78125 L 1.539062 8.78125 L 1.539062 17.679688 L 0.933594 17.679688 C 0.417969 17.679688 0 18.097656 0 18.613281 C 0 19.128906 0.417969 19.542969 0.933594 19.542969 L 1.539062 19.542969 L 1.539062 22.898438 C 1.539062 24.441406 2.792969 25.695312 4.332031 25.695312 L 5.21875 25.695312 C 5.652344 25.695312 6.0625 25.59375 6.429688 25.417969 Z M 6.429688 2.582031 "/>
<path style=" stroke:none;fill-rule:nonzero;fill:rgb(0%,0%,0%);fill-opacity:1;" d="M 11.042969 2.582031 C 10.675781 2.40625 10.265625 2.304688 9.832031 2.304688 L 8.945312 2.304688 C 8.511719 2.304688 8.101562 2.40625 7.734375 2.582031 L 7.734375 25.417969 C 8.101562 25.59375 8.511719 25.695312 8.945312 25.695312 L 9.832031 25.695312 C 10.265625 25.695312 10.675781 25.59375 11.042969 25.417969 Z M 11.042969 2.582031 "/>
<path style=" stroke:none;fill-rule:nonzero;fill:rgb(0%,0%,0%);fill-opacity:1;" d="M 15.652344 2.582031 C 15.289062 2.40625 14.875 2.304688 14.441406 2.304688 L 13.558594 2.304688 C 13.125 2.304688 12.710938 2.40625 12.347656 2.582031 L 12.347656 25.417969 C 12.710938 25.59375 13.125 25.695312 13.558594 25.695312 L 14.441406 25.695312 C 14.875 25.695312 15.289062 25.59375 15.652344 25.417969 Z M 15.652344 2.582031 "/>
<path style=" stroke:none;fill-rule:nonzero;fill:rgb(0%,0%,0%);fill-opacity:1;" d="M 27.066406 3.84375 L 23.992188 3.84375 C 23.480469 3.84375 23.0625 4.261719 23.0625 4.777344 L 23.0625 6.917969 L 21.851562 6.917969 L 21.851562 5.101562 C 21.851562 3.558594 20.597656 2.304688 19.054688 2.304688 L 18.167969 2.304688 C 17.734375 2.304688 17.324219 2.40625 16.957031 2.582031 L 16.957031 25.417969 C 17.324219 25.59375 17.734375 25.695312 18.167969 25.695312 L 19.054688 25.695312 C 20.597656 25.695312 21.851562 24.441406 21.851562 22.898438 L 21.851562 19.542969 L 22.449219 19.542969 C 22.457031 19.542969 23.058594 19.554688 23.621094 19.851562 C 24.289062 20.207031 24.597656 20.789062 24.597656 21.6875 C 24.597656 22.203125 25.015625 22.617188 25.53125 22.617188 C 26.046875 22.617188 26.460938 22.203125 26.460938 21.6875 C 26.460938 18.746094 24.066406 17.679688 22.457031 17.679688 L 21.851562 17.679688 L 21.851562 8.78125 L 23.0625 8.78125 L 23.0625 9.386719 C 23.0625 9.902344 23.480469 10.320312 23.992188 10.320312 L 27.070312 10.320312 C 27.582031 10.320312 28 9.902344 28 9.386719 L 28 4.773438 C 28 4.261719 27.582031 3.84375 27.066406 3.84375 Z M 27.066406 3.84375 "/>
</g>
</svg>
