<?xml version="1.0" encoding="UTF-8"?>
<svg xmlns="http://www.w3.org/2000/svg" xmlns:xlink="http://www.w3.org/1999/xlink" width="28pt" height="28pt" viewBox="0 0 28 28" version="1.1">
<g id="surface1">
<path style=" stroke:none;fill-rule:nonzero;fill:rgb(0%,0%,0%);fill-opacity:1;" d="M 27.757812 6.875 C 27.609375 6.773438 27.414062 6.753906 27.246094 6.820312 L 23.433594 8.371094 L 2.941406 0.0390625 C 2.773438 -0.0273438 2.578125 -0.0078125 2.429688 0.09375 C 2.277344 0.195312 2.1875 0.363281 2.1875 0.546875 L 2.1875 3.171875 C 2.1875 3.394531 2.324219 3.59375 2.527344 3.679688 L 5.359375 4.828125 L 5.359375 15.71875 L 0.339844 17.757812 C 0.136719 17.84375 0 18.042969 0 18.265625 L 0 20.890625 C 0 21.074219 0.0898438 21.242188 0.242188 21.34375 C 0.332031 21.40625 0.441406 21.4375 0.546875 21.4375 C 0.617188 21.4375 0.6875 21.425781 0.753906 21.398438 L 2.953125 20.503906 L 2.953125 27.453125 C 2.953125 27.753906 3.199219 28 3.5 28 L 24.5 28 C 24.800781 28 25.046875 27.753906 25.046875 27.453125 L 25.046875 11.523438 L 27.660156 10.460938 C 27.867188 10.375 28 10.175781 28 9.953125 L 28 7.328125 C 28 7.144531 27.910156 6.976562 27.757812 6.875 Z M 3.28125 2.804688 L 3.28125 1.359375 L 21.984375 8.960938 L 20.207031 9.683594 Z M 11.375 11.8125 C 11.675781 11.8125 11.921875 11.566406 11.921875 11.265625 L 11.921875 9.078125 C 11.921875 8.777344 11.675781 8.53125 11.375 8.53125 L 6.453125 8.53125 L 6.453125 5.273438 L 18.753906 10.273438 L 6.453125 15.273438 L 6.453125 11.8125 Z M 6.453125 10.71875 L 6.453125 9.625 L 10.828125 9.625 L 10.828125 10.71875 Z M 11.046875 26.90625 L 4.046875 26.90625 L 4.046875 25.8125 L 11.046875 25.8125 Z M 11.046875 24.71875 L 4.046875 24.71875 L 4.046875 23.625 L 11.046875 23.625 Z M 11.046875 22.53125 L 4.046875 22.53125 L 4.046875 21.4375 L 11.046875 21.4375 Z M 11.046875 20.34375 L 4.046875 20.34375 L 4.046875 20.058594 L 11.046875 17.210938 Z M 21.765625 26.90625 L 18.375 26.90625 L 18.375 21.4375 L 21.765625 21.4375 Z M 23.953125 26.90625 L 22.859375 26.90625 L 22.859375 25.8125 L 23.953125 25.8125 Z M 23.953125 18.15625 L 20.015625 18.15625 L 20.015625 17.0625 L 23.953125 17.0625 Z M 23.953125 15.96875 L 19.578125 15.96875 C 19.277344 15.96875 19.03125 16.214844 19.03125 16.515625 L 19.03125 18.703125 C 19.03125 19.003906 19.277344 19.25 19.578125 19.25 L 23.953125 19.25 L 23.953125 24.71875 L 22.859375 24.71875 L 22.859375 20.890625 C 22.859375 20.589844 22.613281 20.34375 22.3125 20.34375 L 17.773438 20.34375 C 17.335938 20.34375 17.28125 20.78125 17.28125 20.78125 L 17.28125 24.71875 L 16.953125 24.71875 C 16.652344 24.71875 16.40625 24.964844 16.40625 25.265625 C 16.40625 25.566406 16.652344 25.8125 16.953125 25.8125 L 17.28125 25.8125 L 17.28125 26.90625 L 12.140625 26.90625 L 12.140625 25.8125 L 12.578125 25.8125 C 12.878906 25.8125 13.125 25.566406 13.125 25.265625 C 13.125 24.964844 12.878906 24.71875 12.578125 24.71875 L 12.140625 24.71875 L 12.140625 19.25 L 16.515625 19.25 C 16.816406 19.25 17.0625 19.003906 17.0625 18.703125 L 17.0625 16.515625 C 17.0625 16.214844 16.816406 15.96875 16.515625 15.96875 L 14.105469 15.96875 L 23.953125 11.964844 Z M 12.140625 18.15625 L 12.140625 17.0625 L 15.96875 17.0625 L 15.96875 18.15625 Z M 26.90625 9.585938 L 1.09375 20.078125 L 1.09375 18.632812 L 26.90625 8.140625 Z M 26.90625 9.585938 "/>
<path style=" stroke:none;fill-rule:nonzero;fill:rgb(0%,0%,0%);fill-opacity:1;" d="M 20.015625 24.71875 L 20.125 24.71875 C 20.425781 24.71875 20.671875 24.472656 20.671875 24.171875 C 20.671875 23.871094 20.425781 23.625 20.125 23.625 L 20.015625 23.625 C 19.714844 23.625 19.46875 23.871094 19.46875 24.171875 C 19.46875 24.472656 19.714844 24.71875 20.015625 24.71875 Z M 20.015625 24.71875 "/>
<path style=" stroke:none;fill-rule:nonzero;fill:rgb(0%,0%,0%);fill-opacity:1;" d="M 14.765625 25.8125 C 15.066406 25.8125 15.3125 25.566406 15.3125 25.265625 C 15.3125 24.964844 15.066406 24.71875 14.765625 24.71875 C 14.464844 24.71875 14.21875 24.964844 14.21875 25.265625 C 14.21875 25.566406 14.464844 25.8125 14.765625 25.8125 Z M 14.765625 25.8125 "/>
</g>
</svg>
