<?xml version="1.0" encoding="UTF-8"?>
<svg xmlns="http://www.w3.org/2000/svg" xmlns:xlink="http://www.w3.org/1999/xlink" width="28pt" height="28pt" viewBox="0 0 28 28" version="1.1">
<g id="surface1">
<path style=" stroke:none;fill-rule:nonzero;fill:rgb(0%,0%,0%);fill-opacity:1;" d="M 27.921875 12.953125 L 26.566406 9.882812 C 26.421875 9.554688 26.097656 9.339844 25.734375 9.339844 L 23.492188 9.339844 C 22.988281 9.339844 22.582031 9.75 22.582031 10.25 L 22.582031 11.683594 L 21.882812 11.683594 L 21.882812 10.503906 C 21.882812 10.003906 21.476562 9.59375 20.972656 9.59375 L 18.554688 9.59375 L 18.554688 7.113281 C 18.554688 6.613281 18.144531 6.207031 17.644531 6.207031 L 13.171875 6.207031 L 13.171875 5.339844 L 17.644531 5.339844 C 18.144531 5.339844 18.554688 4.933594 18.554688 4.429688 C 18.554688 3.929688 18.144531 3.519531 17.644531 3.519531 L 6.878906 3.519531 C 6.378906 3.519531 5.972656 3.929688 5.972656 4.429688 C 5.972656 4.933594 6.378906 5.339844 6.878906 5.339844 L 11.351562 5.339844 L 11.351562 6.207031 L 6.878906 6.207031 C 6.378906 6.207031 5.972656 6.613281 5.972656 7.113281 L 5.972656 7.871094 L 3.976562 7.871094 C 3.472656 7.871094 3.066406 8.277344 3.066406 8.78125 L 3.066406 13.660156 L 1.816406 13.660156 L 1.816406 8.78125 C 1.816406 8.277344 1.410156 7.871094 0.910156 7.871094 C 0.40625 7.871094 0 8.277344 0 8.78125 L 0 20.355469 C 0 20.859375 0.40625 21.265625 0.910156 21.265625 C 1.410156 21.265625 1.816406 20.859375 1.816406 20.355469 L 1.816406 15.476562 L 3.066406 15.476562 L 3.066406 20.355469 C 3.066406 20.859375 3.472656 21.265625 3.976562 21.265625 L 7.507812 21.265625 L 11.097656 24.265625 C 11.261719 24.402344 11.46875 24.480469 11.679688 24.480469 L 20.972656 24.480469 C 21.476562 24.480469 21.882812 24.070312 21.882812 23.570312 L 21.882812 21.089844 L 22.582031 21.089844 L 22.582031 22.523438 C 22.582031 23.027344 22.988281 23.433594 23.492188 23.433594 L 25.734375 23.433594 C 26.097656 23.433594 26.421875 23.222656 26.566406 22.890625 L 27.921875 19.824219 C 27.972656 19.707031 28 19.582031 28 19.457031 L 28 13.320312 C 28 13.191406 27.972656 13.066406 27.921875 12.953125 Z M 26.183594 19.265625 L 25.144531 21.613281 L 24.398438 21.613281 L 24.398438 20.183594 C 24.398438 19.679688 23.992188 19.273438 23.492188 19.273438 L 20.972656 19.273438 C 20.472656 19.273438 20.0625 19.679688 20.0625 20.183594 L 20.0625 22.660156 L 12.011719 22.660156 L 8.421875 19.660156 C 8.257812 19.523438 8.050781 19.445312 7.839844 19.445312 L 4.886719 19.445312 L 4.886719 9.6875 L 6.878906 9.6875 C 7.382812 9.6875 7.789062 9.28125 7.789062 8.78125 L 7.789062 8.023438 L 16.734375 8.023438 L 16.734375 10.503906 C 16.734375 11.007812 17.140625 11.414062 17.644531 11.414062 L 20.0625 11.414062 L 20.0625 12.59375 C 20.0625 13.09375 20.472656 13.503906 20.972656 13.503906 L 23.492188 13.503906 C 23.992188 13.503906 24.398438 13.09375 24.398438 12.59375 L 24.398438 11.160156 L 25.144531 11.160156 L 26.183594 13.511719 Z M 26.183594 19.265625 "/>
</g>
</svg>
