<?xml version="1.0" encoding="UTF-8"?>
<svg xmlns="http://www.w3.org/2000/svg" xmlns:xlink="http://www.w3.org/1999/xlink" width="28pt" height="28pt" viewBox="0 0 28 28" version="1.1">
<g id="surface1">
<path style=" stroke:none;fill-rule:nonzero;fill:rgb(0%,0%,0%);fill-opacity:1;" d="M 27.535156 0 L 0.464844 0 C 0.210938 0 0 0.210938 0 0.464844 L 0 7.933594 C 0 8.191406 0.210938 8.398438 0.464844 8.398438 L 27.535156 8.398438 C 27.789062 8.398438 28 8.191406 28 7.933594 L 28 0.464844 C 28 0.210938 27.789062 0 27.535156 0 Z M 27.066406 7.464844 L 0.933594 7.464844 L 0.933594 0.933594 L 27.066406 0.933594 Z M 27.066406 7.464844 "/>
<path style=" stroke:none;fill-rule:nonzero;fill:rgb(0%,0%,0%);fill-opacity:1;" d="M 27.535156 15.867188 L 0.464844 15.867188 C 0.210938 15.867188 0 16.074219 0 16.332031 L 0 27.535156 C 0 27.789062 0.210938 28 0.464844 28 L 27.535156 28 C 27.789062 28 28 27.789062 28 27.535156 L 28 16.332031 C 28 16.074219 27.789062 15.867188 27.535156 15.867188 Z M 27.066406 27.066406 L 0.933594 27.066406 L 0.933594 16.800781 L 27.066406 16.800781 Z M 27.066406 27.066406 "/>
<path style=" stroke:none;fill-rule:nonzero;fill:rgb(0%,0%,0%);fill-opacity:1;" d="M 8.867188 1.867188 L 2.332031 1.867188 C 2.074219 1.867188 1.867188 2.074219 1.867188 2.332031 L 1.867188 6.066406 C 1.867188 6.324219 2.074219 6.535156 2.332031 6.535156 L 8.867188 6.535156 C 9.125 6.535156 9.332031 6.324219 9.332031 6.066406 L 9.332031 2.332031 C 9.332031 2.074219 9.125 1.867188 8.867188 1.867188 Z M 8.398438 5.601562 L 2.800781 5.601562 L 2.800781 2.800781 L 8.398438 2.800781 Z M 8.398438 5.601562 "/>
<path style=" stroke:none;fill-rule:nonzero;fill:rgb(0%,0%,0%);fill-opacity:1;" d="M 7 3.734375 L 4.199219 3.734375 C 3.941406 3.734375 3.734375 3.941406 3.734375 4.199219 C 3.734375 4.457031 3.941406 4.667969 4.199219 4.667969 L 7 4.667969 C 7.257812 4.667969 7.464844 4.457031 7.464844 4.199219 C 7.464844 3.941406 7.257812 3.734375 7 3.734375 Z M 7 3.734375 "/>
<path style=" stroke:none;fill-rule:nonzero;fill:rgb(0%,0%,0%);fill-opacity:1;" d="M 25.667969 1.867188 L 19.132812 1.867188 C 18.875 1.867188 18.667969 2.074219 18.667969 2.332031 L 18.667969 6.066406 C 18.667969 6.324219 18.875 6.535156 19.132812 6.535156 L 25.667969 6.535156 C 25.925781 6.535156 26.132812 6.324219 26.132812 6.066406 L 26.132812 2.332031 C 26.132812 2.074219 25.925781 1.867188 25.667969 1.867188 Z M 25.199219 5.601562 L 19.601562 5.601562 L 19.601562 2.800781 L 25.199219 2.800781 Z M 25.199219 5.601562 "/>
<path style=" stroke:none;fill-rule:nonzero;fill:rgb(0%,0%,0%);fill-opacity:1;" d="M 23.800781 3.734375 L 21 3.734375 C 20.742188 3.734375 20.535156 3.941406 20.535156 4.199219 C 20.535156 4.457031 20.742188 4.667969 21 4.667969 L 23.800781 4.667969 C 24.058594 4.667969 24.265625 4.457031 24.265625 4.199219 C 24.265625 3.941406 24.058594 3.734375 23.800781 3.734375 Z M 23.800781 3.734375 "/>
<path style=" stroke:none;fill-rule:nonzero;fill:rgb(0%,0%,0%);fill-opacity:1;" d="M 17.265625 1.867188 L 10.734375 1.867188 C 10.476562 1.867188 10.265625 2.074219 10.265625 2.332031 L 10.265625 6.066406 C 10.265625 6.324219 10.476562 6.535156 10.734375 6.535156 L 17.265625 6.535156 C 17.523438 6.535156 17.734375 6.324219 17.734375 6.066406 L 17.734375 2.332031 C 17.734375 2.074219 17.523438 1.867188 17.265625 1.867188 Z M 16.800781 5.601562 L 11.199219 5.601562 L 11.199219 2.800781 L 16.800781 2.800781 Z M 16.800781 5.601562 "/>
<path style=" stroke:none;fill-rule:nonzero;fill:rgb(0%,0%,0%);fill-opacity:1;" d="M 15.398438 3.734375 L 12.601562 3.734375 C 12.34375 3.734375 12.132812 3.941406 12.132812 4.199219 C 12.132812 4.457031 12.34375 4.667969 12.601562 4.667969 L 15.398438 4.667969 C 15.65625 4.667969 15.867188 4.457031 15.867188 4.199219 C 15.867188 3.941406 15.65625 3.734375 15.398438 3.734375 Z M 15.398438 3.734375 "/>
<path style=" stroke:none;fill-rule:nonzero;fill:rgb(0%,0%,0%);fill-opacity:1;" d="M 25.667969 17.734375 L 14 17.734375 C 13.742188 17.734375 13.535156 17.941406 13.535156 18.199219 L 13.535156 25.667969 C 13.535156 25.925781 13.742188 26.132812 14 26.132812 L 25.667969 26.132812 C 25.925781 26.132812 26.132812 25.925781 26.132812 25.667969 L 26.132812 18.199219 C 26.132812 17.941406 25.925781 17.734375 25.667969 17.734375 Z M 25.199219 25.199219 L 14.464844 25.199219 L 14.464844 18.667969 L 25.199219 18.667969 Z M 25.199219 25.199219 "/>
<path style=" stroke:none;fill-rule:nonzero;fill:rgb(0%,0%,0%);fill-opacity:1;" d="M 14 17.734375 L 2.332031 17.734375 C 2.074219 17.734375 1.867188 17.941406 1.867188 18.199219 L 1.867188 25.667969 C 1.867188 25.925781 2.074219 26.132812 2.332031 26.132812 L 14 26.132812 C 14.257812 26.132812 14.464844 25.925781 14.464844 25.667969 L 14.464844 18.199219 C 14.464844 17.941406 14.257812 17.734375 14 17.734375 Z M 13.535156 25.199219 L 2.800781 25.199219 L 2.800781 18.667969 L 13.535156 18.667969 Z M 13.535156 25.199219 "/>
<path style=" stroke:none;fill-rule:nonzero;fill:rgb(0%,0%,0%);fill-opacity:1;" d="M 20.066406 14 L 7.933594 14 C 7.675781 14 7.464844 14.210938 7.464844 14.464844 L 7.464844 16.332031 C 7.464844 16.589844 7.675781 16.800781 7.933594 16.800781 L 20.066406 16.800781 C 20.324219 16.800781 20.535156 16.589844 20.535156 16.332031 L 20.535156 14.464844 C 20.535156 14.210938 20.324219 14 20.066406 14 Z M 19.601562 15.867188 L 8.398438 15.867188 L 8.398438 14.933594 L 19.601562 14.933594 Z M 19.601562 15.867188 "/>
<path style=" stroke:none;fill-rule:nonzero;fill:rgb(0%,0%,0%);fill-opacity:1;" d="M 20.066406 7.464844 L 7.933594 7.464844 C 7.675781 7.464844 7.464844 7.675781 7.464844 7.933594 L 7.464844 9.332031 C 7.464844 9.589844 7.675781 9.800781 7.933594 9.800781 L 20.066406 9.800781 C 20.324219 9.800781 20.535156 9.589844 20.535156 9.332031 L 20.535156 7.933594 C 20.535156 7.675781 20.324219 7.464844 20.066406 7.464844 Z M 19.601562 8.867188 L 8.398438 8.867188 L 8.398438 8.398438 L 19.601562 8.398438 Z M 19.601562 8.867188 "/>
<path style=" stroke:none;fill-rule:nonzero;fill:rgb(0%,0%,0%);fill-opacity:1;" d="M 6.433594 12.3125 C 6.347656 12.199219 6.210938 12.132812 6.066406 12.132812 L 1.398438 12.132812 C 1.257812 12.132812 1.121094 12.199219 1.03125 12.3125 C 0.945312 12.425781 0.914062 12.574219 0.949219 12.714844 L 1.539062 15.089844 C 1.792969 16.097656 2.695312 16.800781 3.734375 16.800781 C 4.773438 16.800781 5.671875 16.097656 5.925781 15.089844 L 6.519531 12.714844 C 6.554688 12.574219 6.523438 12.425781 6.433594 12.3125 Z M 5.019531 14.863281 C 4.871094 15.453125 4.34375 15.867188 3.734375 15.867188 C 3.125 15.867188 2.59375 15.453125 2.445312 14.863281 L 1.996094 13.066406 L 5.46875 13.066406 Z M 5.019531 14.863281 "/>
<path style=" stroke:none;fill-rule:nonzero;fill:rgb(0%,0%,0%);fill-opacity:1;" d="M 6.066406 22.398438 C 5.292969 22.398438 4.667969 23.027344 4.667969 23.800781 L 4.667969 25.667969 C 4.667969 25.925781 4.875 26.132812 5.132812 26.132812 L 7 26.132812 C 7.257812 26.132812 7.464844 25.925781 7.464844 25.667969 L 7.464844 23.800781 C 7.464844 23.027344 6.839844 22.398438 6.066406 22.398438 Z M 6.535156 25.199219 L 5.601562 25.199219 L 5.601562 23.800781 C 5.601562 23.542969 5.808594 23.332031 6.066406 23.332031 C 6.324219 23.332031 6.535156 23.542969 6.535156 23.800781 Z M 6.535156 25.199219 "/>
<path style=" stroke:none;fill-rule:nonzero;fill:rgb(0%,0%,0%);fill-opacity:1;" d="M 6.066406 20.535156 C 5.808594 20.535156 5.601562 20.742188 5.601562 21 L 5.601562 22.867188 C 5.601562 23.125 5.808594 23.332031 6.066406 23.332031 C 6.324219 23.332031 6.535156 23.125 6.535156 22.867188 L 6.535156 21 C 6.535156 20.742188 6.324219 20.535156 6.066406 20.535156 Z M 6.066406 20.535156 "/>
<path style=" stroke:none;fill-rule:nonzero;fill:rgb(0%,0%,0%);fill-opacity:1;" d="M 10.265625 20.535156 C 10.007812 20.535156 9.800781 20.742188 9.800781 21 L 9.800781 22.867188 C 9.800781 23.125 10.007812 23.332031 10.265625 23.332031 C 10.523438 23.332031 10.734375 23.125 10.734375 22.867188 L 10.734375 21 C 10.734375 20.742188 10.523438 20.535156 10.265625 20.535156 Z M 10.265625 20.535156 "/>
<path style=" stroke:none;fill-rule:nonzero;fill:rgb(0%,0%,0%);fill-opacity:1;" d="M 7 20.535156 L 5.132812 20.535156 C 4.875 20.535156 4.667969 20.742188 4.667969 21 C 4.667969 21.257812 4.875 21.464844 5.132812 21.464844 L 7 21.464844 C 7.257812 21.464844 7.464844 21.257812 7.464844 21 C 7.464844 20.742188 7.257812 20.535156 7 20.535156 Z M 7 20.535156 "/>
<path style=" stroke:none;fill-rule:nonzero;fill:rgb(0%,0%,0%);fill-opacity:1;" d="M 10.265625 22.398438 C 9.496094 22.398438 8.867188 23.027344 8.867188 23.800781 L 8.867188 25.667969 C 8.867188 25.925781 9.074219 26.132812 9.332031 26.132812 L 11.199219 26.132812 C 11.457031 26.132812 11.667969 25.925781 11.667969 25.667969 L 11.667969 23.800781 C 11.667969 23.027344 11.039062 22.398438 10.265625 22.398438 Z M 10.734375 25.199219 L 9.800781 25.199219 L 9.800781 23.800781 C 9.800781 23.542969 10.007812 23.332031 10.265625 23.332031 C 10.523438 23.332031 10.734375 23.542969 10.734375 23.800781 Z M 10.734375 25.199219 "/>
<path style=" stroke:none;fill-rule:nonzero;fill:rgb(0%,0%,0%);fill-opacity:1;" d="M 11.199219 20.535156 L 9.332031 20.535156 C 9.074219 20.535156 8.867188 20.742188 8.867188 21 C 8.867188 21.257812 9.074219 21.464844 9.332031 21.464844 L 11.199219 21.464844 C 11.457031 21.464844 11.667969 21.257812 11.667969 21 C 11.667969 20.742188 11.457031 20.535156 11.199219 20.535156 Z M 11.199219 20.535156 "/>
<path style=" stroke:none;fill-rule:nonzero;fill:rgb(0%,0%,0%);fill-opacity:1;" d="M 22.398438 19.601562 C 22.140625 19.601562 21.933594 19.808594 21.933594 20.066406 L 21.933594 21.464844 L 17.734375 21.464844 L 17.734375 20.066406 C 17.734375 19.808594 17.523438 19.601562 17.265625 19.601562 C 17.007812 19.601562 16.800781 19.808594 16.800781 20.066406 L 16.800781 21.933594 C 16.800781 22.191406 17.007812 22.398438 17.265625 22.398438 L 22.398438 22.398438 C 22.65625 22.398438 22.867188 22.191406 22.867188 21.933594 L 22.867188 20.066406 C 22.867188 19.808594 22.65625 19.601562 22.398438 19.601562 Z M 22.398438 19.601562 "/>
<path style=" stroke:none;fill-rule:nonzero;fill:rgb(0%,0%,0%);fill-opacity:1;" d="M 25.667969 19.601562 L 14 19.601562 C 13.742188 19.601562 13.535156 19.808594 13.535156 20.066406 C 13.535156 20.324219 13.742188 20.535156 14 20.535156 L 25.667969 20.535156 C 25.925781 20.535156 26.132812 20.324219 26.132812 20.066406 C 26.132812 19.808594 25.925781 19.601562 25.667969 19.601562 Z M 25.667969 19.601562 "/>
<path style=" stroke:none;fill-rule:nonzero;fill:rgb(0%,0%,0%);fill-opacity:1;" d="M 9.800781 12.132812 L 8.867188 12.132812 C 8.609375 12.132812 8.398438 12.34375 8.398438 12.601562 L 8.398438 14.464844 C 8.398438 14.722656 8.609375 14.933594 8.867188 14.933594 C 9.125 14.933594 9.332031 14.722656 9.332031 14.464844 L 9.332031 13.066406 L 9.800781 13.066406 C 10.058594 13.066406 10.265625 12.859375 10.265625 12.601562 C 10.265625 12.34375 10.058594 12.132812 9.800781 12.132812 Z M 9.800781 12.132812 "/>
<path style=" stroke:none;fill-rule:nonzero;fill:rgb(0%,0%,0%);fill-opacity:1;" d="M 12.601562 12.132812 L 11.667969 12.132812 C 11.410156 12.132812 11.199219 12.34375 11.199219 12.601562 C 11.199219 12.859375 11.410156 13.066406 11.667969 13.066406 L 12.132812 13.066406 L 12.132812 14.464844 C 12.132812 14.722656 12.34375 14.933594 12.601562 14.933594 C 12.859375 14.933594 13.066406 14.722656 13.066406 14.464844 L 13.066406 12.601562 C 13.066406 12.34375 12.859375 12.132812 12.601562 12.132812 Z M 12.601562 12.132812 "/>
<path style=" stroke:none;fill-rule:nonzero;fill:rgb(0%,0%,0%);fill-opacity:1;" d="M 16.332031 12.132812 L 15.398438 12.132812 C 15.140625 12.132812 14.933594 12.34375 14.933594 12.601562 L 14.933594 14.464844 C 14.933594 14.722656 15.140625 14.933594 15.398438 14.933594 C 15.65625 14.933594 15.867188 14.722656 15.867188 14.464844 L 15.867188 13.066406 L 16.332031 13.066406 C 16.589844 13.066406 16.800781 12.859375 16.800781 12.601562 C 16.800781 12.34375 16.589844 12.132812 16.332031 12.132812 Z M 16.332031 12.132812 "/>
<path style=" stroke:none;fill-rule:nonzero;fill:rgb(0%,0%,0%);fill-opacity:1;" d="M 19.132812 12.132812 L 18.199219 12.132812 C 17.941406 12.132812 17.734375 12.34375 17.734375 12.601562 C 17.734375 12.859375 17.941406 13.066406 18.199219 13.066406 L 18.667969 13.066406 L 18.667969 14.464844 C 18.667969 14.722656 18.875 14.933594 19.132812 14.933594 C 19.390625 14.933594 19.601562 14.722656 19.601562 14.464844 L 19.601562 12.601562 C 19.601562 12.34375 19.390625 12.132812 19.132812 12.132812 Z M 19.132812 12.132812 "/>
<path style=" stroke:none;fill-rule:nonzero;fill:rgb(0%,0%,0%);fill-opacity:1;" d="M 26.601562 14 L 22.398438 14 C 22.140625 14 21.933594 14.210938 21.933594 14.464844 C 21.933594 15.753906 22.980469 16.800781 24.265625 16.800781 L 24.734375 16.800781 C 26.019531 16.800781 27.066406 15.753906 27.066406 14.464844 C 27.066406 14.210938 26.859375 14 26.601562 14 Z M 24.734375 15.867188 L 24.265625 15.867188 C 23.65625 15.867188 23.140625 15.476562 22.945312 14.933594 L 26.054688 14.933594 C 25.859375 15.476562 25.34375 15.867188 24.734375 15.867188 Z M 24.734375 15.867188 "/>
<path style=" stroke:none;fill-rule:nonzero;fill:rgb(0%,0%,0%);fill-opacity:1;" d="M 26.601562 12.132812 L 22.398438 12.132812 C 22.140625 12.132812 21.933594 12.34375 21.933594 12.601562 C 21.933594 13.886719 22.980469 14.933594 24.265625 14.933594 L 24.734375 14.933594 C 26.019531 14.933594 27.066406 13.886719 27.066406 12.601562 C 27.066406 12.34375 26.859375 12.132812 26.601562 12.132812 Z M 24.734375 14 L 24.265625 14 C 23.65625 14 23.140625 13.609375 22.945312 13.066406 L 26.054688 13.066406 C 25.859375 13.609375 25.34375 14 24.734375 14 Z M 24.734375 14 "/>
<path style=" stroke:none;fill-rule:nonzero;fill:rgb(0%,0%,0%);fill-opacity:1;" d="M 26.601562 10.265625 L 22.398438 10.265625 C 22.140625 10.265625 21.933594 10.476562 21.933594 10.734375 C 21.933594 12.019531 22.980469 13.066406 24.265625 13.066406 L 24.734375 13.066406 C 26.019531 13.066406 27.066406 12.019531 27.066406 10.734375 C 27.066406 10.476562 26.859375 10.265625 26.601562 10.265625 Z M 24.734375 12.132812 L 24.265625 12.132812 C 23.65625 12.132812 23.140625 11.742188 22.945312 11.199219 L 26.054688 11.199219 C 25.859375 11.742188 25.34375 12.132812 24.734375 12.132812 Z M 24.734375 12.132812 "/>
<path style=" stroke:none;fill-rule:nonzero;fill:rgb(0%,0%,0%);fill-opacity:1;" d="M 3.199219 12.359375 L 1.800781 10.027344 C 1.667969 9.804688 1.382812 9.734375 1.160156 9.867188 C 0.9375 10 0.867188 10.285156 1 10.507812 L 2.398438 12.839844 C 2.488281 12.984375 2.640625 13.066406 2.800781 13.066406 C 2.882812 13.066406 2.964844 13.046875 3.039062 13 C 3.261719 12.867188 3.332031 12.582031 3.199219 12.359375 Z M 3.199219 12.359375 "/>
<path style=" stroke:none;fill-rule:nonzero;fill:rgb(0%,0%,0%);fill-opacity:1;" d="M 9.332031 8.867188 C 9.074219 8.867188 8.867188 9.074219 8.867188 9.332031 L 8.867188 10.265625 C 8.867188 10.523438 9.074219 10.734375 9.332031 10.734375 C 9.589844 10.734375 9.800781 10.523438 9.800781 10.265625 L 9.800781 9.332031 C 9.800781 9.074219 9.589844 8.867188 9.332031 8.867188 Z M 9.332031 8.867188 "/>
<path style=" stroke:none;fill-rule:nonzero;fill:rgb(0%,0%,0%);fill-opacity:1;" d="M 11.667969 8.867188 C 11.410156 8.867188 11.199219 9.074219 11.199219 9.332031 L 11.199219 10.265625 C 11.199219 10.523438 11.410156 10.734375 11.667969 10.734375 C 11.925781 10.734375 12.132812 10.523438 12.132812 10.265625 L 12.132812 9.332031 C 12.132812 9.074219 11.925781 8.867188 11.667969 8.867188 Z M 11.667969 8.867188 "/>
<path style=" stroke:none;fill-rule:nonzero;fill:rgb(0%,0%,0%);fill-opacity:1;" d="M 14 8.867188 C 13.742188 8.867188 13.535156 9.074219 13.535156 9.332031 L 13.535156 10.265625 C 13.535156 10.523438 13.742188 10.734375 14 10.734375 C 14.257812 10.734375 14.464844 10.523438 14.464844 10.265625 L 14.464844 9.332031 C 14.464844 9.074219 14.257812 8.867188 14 8.867188 Z M 14 8.867188 "/>
<path style=" stroke:none;fill-rule:nonzero;fill:rgb(0%,0%,0%);fill-opacity:1;" d="M 16.332031 8.867188 C 16.074219 8.867188 15.867188 9.074219 15.867188 9.332031 L 15.867188 10.265625 C 15.867188 10.523438 16.074219 10.734375 16.332031 10.734375 C 16.589844 10.734375 16.800781 10.523438 16.800781 10.265625 L 16.800781 9.332031 C 16.800781 9.074219 16.589844 8.867188 16.332031 8.867188 Z M 16.332031 8.867188 "/>
<path style=" stroke:none;fill-rule:nonzero;fill:rgb(0%,0%,0%);fill-opacity:1;" d="M 18.667969 8.867188 C 18.410156 8.867188 18.199219 9.074219 18.199219 9.332031 L 18.199219 10.265625 C 18.199219 10.523438 18.410156 10.734375 18.667969 10.734375 C 18.925781 10.734375 19.132812 10.523438 19.132812 10.265625 L 19.132812 9.332031 C 19.132812 9.074219 18.925781 8.867188 18.667969 8.867188 Z M 18.667969 8.867188 "/>
<path style=" stroke:none;fill-rule:nonzero;fill:rgb(0%,0%,0%);fill-opacity:1;" d="M 16.332031 24.265625 C 16.074219 24.265625 15.867188 24.476562 15.867188 24.734375 L 15.867188 25.667969 C 15.867188 25.925781 16.074219 26.132812 16.332031 26.132812 C 16.589844 26.132812 16.800781 25.925781 16.800781 25.667969 L 16.800781 24.734375 C 16.800781 24.476562 16.589844 24.265625 16.332031 24.265625 Z M 16.332031 24.265625 "/>
<path style=" stroke:none;fill-rule:nonzero;fill:rgb(0%,0%,0%);fill-opacity:1;" d="M 18.667969 24.265625 C 18.410156 24.265625 18.199219 24.476562 18.199219 24.734375 L 18.199219 25.667969 C 18.199219 25.925781 18.410156 26.132812 18.667969 26.132812 C 18.925781 26.132812 19.132812 25.925781 19.132812 25.667969 L 19.132812 24.734375 C 19.132812 24.476562 18.925781 24.265625 18.667969 24.265625 Z M 18.667969 24.265625 "/>
<path style=" stroke:none;fill-rule:nonzero;fill:rgb(0%,0%,0%);fill-opacity:1;" d="M 21 24.265625 C 20.742188 24.265625 20.535156 24.476562 20.535156 24.734375 L 20.535156 25.667969 C 20.535156 25.925781 20.742188 26.132812 21 26.132812 C 21.257812 26.132812 21.464844 25.925781 21.464844 25.667969 L 21.464844 24.734375 C 21.464844 24.476562 21.257812 24.265625 21 24.265625 Z M 21 24.265625 "/>
<path style=" stroke:none;fill-rule:nonzero;fill:rgb(0%,0%,0%);fill-opacity:1;" d="M 23.332031 24.265625 C 23.074219 24.265625 22.867188 24.476562 22.867188 24.734375 L 22.867188 25.667969 C 22.867188 25.925781 23.074219 26.132812 23.332031 26.132812 C 23.589844 26.132812 23.800781 25.925781 23.800781 25.667969 L 23.800781 24.734375 C 23.800781 24.476562 23.589844 24.265625 23.332031 24.265625 Z M 23.332031 24.265625 "/>
</g>
</svg>
