<?xml version="1.0" encoding="UTF-8"?>
<svg xmlns="http://www.w3.org/2000/svg" xmlns:xlink="http://www.w3.org/1999/xlink" width="28pt" height="28pt" viewBox="0 0 28 28" version="1.1">
<g id="surface1">
<path style=" stroke:none;fill-rule:nonzero;fill:rgb(0%,0%,0%);fill-opacity:1;" d="M 18.667969 12.519531 L 18.667969 11.667969 L 19.832031 11.667969 C 19.832031 11.988281 20.09375 12.25 20.417969 12.25 C 20.738281 12.25 21 11.988281 21 11.667969 L 21 10.5 C 21 10.175781 20.738281 9.917969 20.417969 9.917969 C 20.09375 9.917969 19.832031 10.175781 19.832031 10.5 L 18.558594 10.5 C 18.382812 10.003906 17.996094 9.617188 17.5 9.441406 L 17.5 8.167969 C 17.5 6.4375 16.234375 5.003906 14.582031 4.726562 L 14.582031 0.582031 C 14.582031 0.261719 14.324219 0 14 0 C 13.675781 0 13.417969 0.261719 13.417969 0.582031 L 13.417969 4.726562 C 11.765625 5.003906 10.5 6.4375 10.5 8.167969 L 10.5 9.441406 C 9.824219 9.683594 9.332031 10.324219 9.332031 11.082031 L 9.332031 12.519531 C 3.949219 14.46875 0 19.394531 0 22.75 C 0 23.074219 0.261719 23.332031 0.582031 23.332031 L 10.5 23.332031 L 10.5 24.5 C 10.5 25.625 11.296875 26.566406 12.359375 26.785156 C 12.660156 27.511719 13.511719 28 14 28 C 14.488281 28 15.339844 27.511719 15.640625 26.785156 C 16.703125 26.566406 17.5 25.625 17.5 24.5 L 17.5 23.332031 L 27.417969 23.332031 C 27.738281 23.332031 28 23.074219 28 22.75 C 28 19.394531 24.050781 14.46875 18.667969 12.519531 Z M 16.332031 24.5 C 16.332031 25.144531 15.808594 25.667969 15.167969 25.667969 C 14.84375 25.667969 14.582031 25.925781 14.582031 26.25 C 14.582031 26.472656 14.152344 26.800781 14.03125 26.835938 C 13.847656 26.800781 13.417969 26.472656 13.417969 26.25 C 13.417969 25.925781 13.15625 25.667969 12.832031 25.667969 C 12.191406 25.667969 11.667969 25.144531 11.667969 24.5 L 11.667969 23.332031 L 16.332031 23.332031 Z M 16.332031 24.5 "/>
</g>
</svg>
