<?xml version="1.0" encoding="UTF-8"?>
<svg xmlns="http://www.w3.org/2000/svg" xmlns:xlink="http://www.w3.org/1999/xlink" width="28pt" height="28pt" viewBox="0 0 28 28" version="1.1">
<g id="surface1">
<path style=" stroke:none;fill-rule:nonzero;fill:rgb(0%,0%,0%);fill-opacity:1;" d="M 10.480469 11.539062 L 7 8.058594 C 5.453125 6.511719 2.75 6.511719 1.203125 8.058594 C -0.402344 9.660156 -0.402344 12.257812 1.203125 13.859375 L 4.683594 17.339844 C 5.003906 17.660156 5.523438 17.660156 5.84375 17.339844 L 10.480469 12.699219 C 10.800781 12.378906 10.800781 11.859375 10.480469 11.539062 Z M 10.480469 11.539062 "/>
<path style=" stroke:none;fill-rule:nonzero;fill:rgb(0%,0%,0%);fill-opacity:1;" d="M 26.796875 8.058594 C 25.25 6.511719 22.546875 6.511719 21 8.058594 L 17.464844 11.539062 C 17.144531 11.859375 17.144531 12.378906 17.464844 12.699219 L 22.15625 17.339844 C 22.476562 17.660156 22.996094 17.660156 23.316406 17.339844 L 26.796875 13.859375 C 28.402344 12.257812 28.402344 9.660156 26.796875 8.058594 Z M 26.796875 8.058594 "/>
<path style=" stroke:none;fill-rule:nonzero;fill:rgb(0%,0%,0%);fill-opacity:1;" d="M 9.828125 21.402344 L 3.585938 26.542969 C 2.988281 27.03125 3.332031 28 4.105469 28 L 9.632812 28 C 9.867188 28 10.089844 27.898438 10.246094 27.726562 L 12.898438 24.769531 Z M 9.828125 21.402344 "/>
<path style=" stroke:none;fill-rule:nonzero;fill:rgb(0%,0%,0%);fill-opacity:1;" d="M 17.632812 15.132812 L 15.300781 16.988281 L 17.996094 19.140625 L 19.71875 17.21875 Z M 17.632812 15.132812 "/>
<path style=" stroke:none;fill-rule:nonzero;fill:rgb(0%,0%,0%);fill-opacity:1;" d="M 24.414062 26.542969 L 10.367188 15.132812 L 8.28125 17.21875 L 17.753906 27.726562 C 17.910156 27.898438 18.132812 28 18.367188 28 L 23.898438 28 C 24.667969 28 25.011719 27.03125 24.414062 26.542969 Z M 24.414062 26.542969 "/>
<path style=" stroke:none;fill-rule:nonzero;fill:rgb(0%,0%,0%);fill-opacity:1;" d="M 25.539062 3.335938 L 24.71875 3.335938 L 24.71875 1.640625 L 27.179688 1.640625 C 27.632812 1.640625 28 1.273438 28 0.820312 C 28 0.367188 27.632812 0 27.179688 0 L 0.820312 0 C 0.367188 0 0 0.367188 0 0.820312 C 0 1.273438 0.367188 1.640625 0.820312 1.640625 L 3.28125 1.640625 L 3.28125 3.335938 L 2.460938 3.335938 C 1.105469 3.335938 0 4.441406 0 5.796875 L 0 6.949219 C 0.015625 6.933594 0.0273438 6.914062 0.0429688 6.898438 C 1.085938 5.855469 2.566406 5.257812 4.101562 5.257812 C 5.640625 5.257812 7.121094 5.855469 8.164062 6.902344 L 8.203125 6.941406 L 8.203125 5.796875 C 8.203125 4.441406 7.097656 3.335938 5.742188 3.335938 L 4.921875 3.335938 L 4.921875 1.640625 L 23.078125 1.640625 L 23.078125 3.335938 L 22.257812 3.335938 C 20.902344 3.335938 19.796875 4.441406 19.796875 5.796875 L 19.796875 6.941406 L 19.839844 6.898438 C 20.878906 5.855469 22.359375 5.257812 23.898438 5.257812 C 25.433594 5.257812 26.914062 5.855469 27.957031 6.898438 C 27.972656 6.914062 27.984375 6.933594 28 6.949219 L 28 5.796875 C 28 4.441406 26.894531 3.335938 25.539062 3.335938 Z M 25.539062 3.335938 "/>
</g>
</svg>
