<?xml version="1.0" encoding="UTF-8"?>
<svg xmlns="http://www.w3.org/2000/svg" xmlns:xlink="http://www.w3.org/1999/xlink" width="28pt" height="28pt" viewBox="0 0 28 28" version="1.1">
<g id="surface1">
<path style=" stroke:none;fill-rule:nonzero;fill:rgb(0%,0%,0%);fill-opacity:1;" d="M 27.667969 26.921875 C 26.910156 24.683594 26.027344 22.570312 24.957031 20.550781 C 24.988281 20.519531 25.019531 20.457031 25.082031 20.421875 C 27.511719 17.679688 28.550781 13.828125 26.691406 10.042969 C 25.082031 6.761719 21.515625 4.015625 16.847656 2.25 C 12.335938 0.515625 6.78125 -0.304688 1.039062 0.105469 C 0.597656 0.136719 0.25 0.515625 0.28125 0.957031 C 0.3125 1.175781 0.410156 1.398438 0.597656 1.523438 C 3.5 4.015625 4.542969 7.769531 5.613281 11.527344 C 6.246094 13.734375 6.84375 15.910156 7.855469 17.929688 C 7.855469 17.960938 7.886719 17.960938 7.886719 17.992188 C 10.316406 22.695312 14.039062 24.398438 17.574219 24.179688 C 19.023438 24.082031 20.414062 23.671875 21.707031 23.042969 C 22.429688 22.664062 23.125 22.222656 23.757812 21.71875 C 24.671875 23.546875 25.492188 25.441406 26.15625 27.460938 C 26.28125 27.871094 26.753906 28.089844 27.164062 27.964844 C 27.605469 27.773438 27.828125 27.332031 27.667969 26.921875 Z M 21.390625 14.933594 C 18.644531 11.429688 15.238281 8.433594 11.007812 6.066406 C 10.632812 5.847656 10.125 5.972656 9.9375 6.382812 C 9.714844 6.761719 9.84375 7.265625 10.253906 7.457031 C 14.257812 9.726562 17.542969 12.566406 20.160156 15.910156 C 21.199219 17.269531 22.148438 18.6875 23 20.171875 C 22.367188 20.769531 21.707031 21.242188 20.980469 21.589844 C 19.875 22.160156 18.707031 22.507812 17.476562 22.570312 C 14.511719 22.757812 11.386719 21.308594 9.273438 17.238281 L 9.273438 17.207031 C 8.359375 15.3125 7.761719 13.199219 7.160156 11.050781 C 6.183594 7.644531 5.234375 4.238281 2.933594 1.554688 C 7.792969 1.429688 12.429688 2.21875 16.277344 3.699219 C 20.570312 5.339844 23.851562 7.804688 25.269531 10.707031 C 26.753906 13.703125 25.996094 16.761719 24.136719 19.003906 C 23.316406 17.582031 22.398438 16.226562 21.390625 14.933594 Z M 21.390625 14.933594 "/>
</g>
</svg>
