<?xml version="1.0" encoding="UTF-8"?>
<svg xmlns="http://www.w3.org/2000/svg" xmlns:xlink="http://www.w3.org/1999/xlink" width="28pt" height="28pt" viewBox="0 0 28 28" version="1.1">
<g id="surface1">
<path style=" stroke:none;fill-rule:nonzero;fill:rgb(0%,0%,0%);fill-opacity:1;" d="M 17.191406 24.46875 L 17.191406 25.285156 C 17.191406 25.9375 16.714844 26.480469 16.089844 26.570312 L 15.890625 27.3125 C 15.78125 27.71875 15.417969 28 14.996094 28 L 12.996094 28 C 12.578125 28 12.214844 27.71875 12.105469 27.3125 L 11.910156 26.570312 C 11.28125 26.472656 10.800781 25.9375 10.800781 25.28125 L 10.800781 24.460938 C 10.800781 24.023438 11.152344 23.671875 11.589844 23.671875 L 16.402344 23.671875 C 16.839844 23.679688 17.191406 24.03125 17.191406 24.46875 Z M 20.894531 13.441406 C 20.894531 15.300781 20.160156 16.988281 18.960938 18.230469 C 18.050781 19.171875 17.460938 20.378906 17.265625 21.664062 C 17.179688 22.214844 16.703125 22.625 16.136719 22.625 L 11.855469 22.625 C 11.296875 22.625 10.8125 22.222656 10.734375 21.667969 C 10.53125 20.382812 9.9375 19.164062 9.027344 18.222656 C 7.851562 17 7.121094 15.34375 7.105469 13.515625 C 7.0625 9.679688 10.117188 6.574219 13.953125 6.542969 C 17.785156 6.515625 20.894531 9.617188 20.894531 13.441406 Z M 14.777344 9.265625 C 14.777344 8.835938 14.433594 8.488281 14 8.488281 C 11.257812 8.488281 9.023438 10.714844 9.023438 13.464844 C 9.023438 13.890625 9.367188 14.242188 9.800781 14.242188 C 10.226562 14.242188 10.578125 13.894531 10.578125 13.464844 C 10.578125 11.574219 12.117188 10.042969 14 10.042969 C 14.433594 10.042969 14.777344 9.695312 14.777344 9.265625 Z M 14 4.28125 C 14.425781 4.28125 14.777344 3.933594 14.777344 3.503906 L 14.777344 0.777344 C 14.777344 0.351562 14.433594 0 14 0 C 13.566406 0 13.222656 0.34375 13.222656 0.777344 L 13.222656 3.503906 C 13.222656 3.933594 13.574219 4.28125 14 4.28125 Z M 4.84375 13.433594 C 4.84375 13.007812 4.5 12.65625 4.066406 12.65625 L 1.34375 12.65625 C 0.917969 12.65625 0.566406 13.003906 0.566406 13.433594 C 0.566406 13.863281 0.910156 14.214844 1.34375 14.214844 L 4.066406 14.214844 C 4.5 14.214844 4.84375 13.867188 4.84375 13.433594 Z M 26.65625 12.65625 L 23.933594 12.65625 C 23.507812 12.65625 23.15625 13.003906 23.15625 13.433594 C 23.15625 13.863281 23.5 14.214844 23.933594 14.214844 L 26.65625 14.214844 C 27.082031 14.214844 27.433594 13.867188 27.433594 13.433594 C 27.433594 13.007812 27.089844 12.65625 26.65625 12.65625 Z M 6.429688 19.910156 L 4.5 21.839844 C 4.195312 22.148438 4.195312 22.636719 4.5 22.941406 C 4.648438 23.089844 4.851562 23.167969 5.046875 23.167969 C 5.242188 23.167969 5.445312 23.089844 5.59375 22.941406 L 7.523438 21.011719 C 7.828125 20.707031 7.828125 20.214844 7.523438 19.910156 C 7.226562 19.605469 6.730469 19.605469 6.429688 19.910156 Z M 21.023438 7.191406 C 21.21875 7.191406 21.421875 7.113281 21.570312 6.964844 L 23.5 5.035156 C 23.804688 4.730469 23.804688 4.242188 23.5 3.933594 C 23.195312 3.628906 22.707031 3.628906 22.398438 3.933594 L 20.46875 5.863281 C 20.164062 6.171875 20.164062 6.660156 20.46875 6.964844 C 20.625 7.113281 20.820312 7.191406 21.023438 7.191406 Z M 6.429688 6.960938 C 6.578125 7.109375 6.78125 7.183594 6.976562 7.183594 C 7.171875 7.183594 7.375 7.109375 7.523438 6.960938 C 7.828125 6.65625 7.828125 6.164062 7.523438 5.859375 L 5.59375 3.929688 C 5.289062 3.625 4.800781 3.625 4.492188 3.929688 C 4.1875 4.234375 4.1875 4.722656 4.492188 5.03125 Z M 21.570312 19.910156 C 21.265625 19.605469 20.773438 19.605469 20.46875 19.910156 C 20.164062 20.214844 20.164062 20.707031 20.46875 21.011719 L 22.398438 22.941406 C 22.550781 23.089844 22.75 23.167969 22.949219 23.167969 C 23.144531 23.167969 23.34375 23.089844 23.496094 22.941406 C 23.800781 22.636719 23.800781 22.148438 23.496094 21.839844 Z M 21.570312 19.910156 "/>
</g>
</svg>
