<?xml version="1.0" encoding="UTF-8"?>
<svg xmlns="http://www.w3.org/2000/svg" xmlns:xlink="http://www.w3.org/1999/xlink" width="28pt" height="28pt" viewBox="0 0 28 28" version="1.1">
<g id="surface1">
<path style=" stroke:none;fill-rule:nonzero;fill:rgb(0%,0%,0%);fill-opacity:1;" d="M 23.351562 9.351562 C 23.351562 4.1875 19.164062 0 14 0 C 8.835938 0 4.648438 4.1875 4.648438 9.351562 C 4.648438 12.839844 6.542969 15.882812 9.371094 17.488281 C 9.296875 17.609375 9.238281 17.75 9.238281 17.902344 L 9.238281 17.949219 C 9.238281 18.382812 9.617188 18.730469 10.050781 18.730469 L 12.902344 18.730469 L 9.238281 9.441406 C 9.125 9.160156 9.191406 8.835938 9.40625 8.621094 C 10.632812 7.394531 12.265625 6.714844 14 6.714844 C 15.734375 6.714844 17.367188 7.390625 18.59375 8.621094 C 18.804688 8.832031 18.871094 9.148438 18.765625 9.425781 L 15.179688 18.730469 L 17.855469 18.730469 C 18.285156 18.730469 18.605469 18.382812 18.605469 17.949219 L 18.605469 17.902344 C 18.605469 17.765625 18.585938 17.640625 18.523438 17.527344 C 21.394531 15.929688 23.351562 12.867188 23.351562 9.351562 Z M 23.351562 9.351562 "/>
<path style=" stroke:none;fill-rule:nonzero;fill:rgb(0%,0%,0%);fill-opacity:1;" d="M 17.167969 9.363281 C 16.277344 8.628906 15.167969 8.226562 14 8.226562 C 12.832031 8.226562 11.726562 8.628906 10.835938 9.363281 L 14.039062 17.46875 Z M 17.167969 9.363281 "/>
<path style=" stroke:none;fill-rule:nonzero;fill:rgb(0%,0%,0%);fill-opacity:1;" d="M 10.050781 20.246094 C 9.617188 20.246094 9.238281 20.59375 9.238281 21.027344 L 9.238281 21.074219 C 9.238281 21.503906 9.617188 21.855469 10.050781 21.855469 L 10.277344 21.855469 C 9.742188 22.058594 9.332031 22.574219 9.332031 23.179688 L 9.332031 23.460938 C 9.332031 24.246094 10 24.882812 10.78125 24.882812 L 10.925781 24.882812 C 10.925781 26.605469 12.324219 28 14.046875 28 C 15.769531 28 17.167969 26.605469 17.167969 24.882812 L 17.21875 24.882812 C 18 24.882812 18.605469 24.246094 18.605469 23.460938 L 18.605469 23.179688 C 18.605469 22.574219 18.257812 22.058594 17.722656 21.855469 L 17.855469 21.855469 C 18.285156 21.855469 18.605469 21.503906 18.605469 21.074219 L 18.605469 21.027344 C 18.605469 20.59375 18.285156 20.246094 17.855469 20.246094 Z M 10.050781 20.246094 "/>
</g>
</svg>
