<?xml version="1.0" encoding="UTF-8"?>
<svg xmlns="http://www.w3.org/2000/svg" xmlns:xlink="http://www.w3.org/1999/xlink" width="28pt" height="28pt" viewBox="0 0 28 28" version="1.1">
<g id="surface1">
<path style=" stroke:none;fill-rule:nonzero;fill:rgb(0%,0%,0%);fill-opacity:1;" d="M 18.046875 9.292969 C 18.945312 9.671875 19.777344 10.171875 20.527344 10.78125 L 20.527344 6.480469 C 20.527344 2.90625 17.621094 0 14.046875 0 L 13.945312 0 C 10.375 0 7.46875 2.90625 7.46875 6.480469 L 7.46875 10.78125 C 8.222656 10.171875 9.050781 9.671875 9.949219 9.292969 C 10.191406 9.191406 10.4375 9.097656 10.683594 9.015625 L 10.683594 6.480469 C 10.683594 4.679688 12.148438 3.21875 13.949219 3.21875 L 14.050781 3.21875 C 15.851562 3.21875 17.316406 4.679688 17.316406 6.480469 L 17.316406 9.015625 C 17.558594 9.097656 17.808594 9.191406 18.046875 9.292969 Z M 18.046875 9.292969 "/>
<path style=" stroke:none;fill-rule:nonzero;fill:rgb(0%,0%,0%);fill-opacity:1;" d="M 4.882812 18.878906 C 4.882812 23.914062 8.964844 27.996094 14 27.996094 C 19.03125 27.996094 23.117188 23.917969 23.117188 18.878906 C 23.117188 16.40625 22.128906 14.160156 20.527344 12.515625 C 19.628906 11.59375 18.535156 10.859375 17.3125 10.382812 C 16.285156 9.980469 15.167969 9.761719 14 9.761719 C 12.832031 9.761719 11.710938 9.980469 10.683594 10.382812 C 9.460938 10.855469 8.367188 11.589844 7.46875 12.515625 C 5.867188 14.160156 4.882812 16.40625 4.882812 18.878906 Z M 11.648438 17.039062 C 11.683594 15.796875 12.695312 14.78125 13.941406 14.753906 C 15.261719 14.71875 16.347656 15.785156 16.347656 17.101562 C 16.347656 17.238281 16.332031 17.375 16.3125 17.503906 C 16.195312 18.167969 15.800781 18.742188 15.246094 19.089844 C 15.019531 19.234375 14.902344 19.503906 14.960938 19.765625 L 15.660156 23.074219 C 15.699219 23.273438 15.550781 23.464844 15.34375 23.464844 L 12.652344 23.464844 C 12.449219 23.464844 12.296875 23.277344 12.339844 23.074219 L 13.035156 19.765625 C 13.089844 19.5 12.976562 19.230469 12.75 19.085938 C 12.195312 18.738281 11.800781 18.167969 11.683594 17.5 C 11.660156 17.351562 11.648438 17.199219 11.648438 17.039062 Z M 11.648438 17.039062 "/>
</g>
</svg>
