<?xml version="1.0" encoding="UTF-8"?>
<svg xmlns="http://www.w3.org/2000/svg" xmlns:xlink="http://www.w3.org/1999/xlink" width="28pt" height="28pt" viewBox="0 0 28 28" version="1.1">
<g id="surface1">
<path style=" stroke:none;fill-rule:nonzero;fill:rgb(0%,0%,0%);fill-opacity:1;" d="M 22.296875 10.429688 L 22.296875 7.519531 C 22.296875 3.371094 18.574219 0 14 0 C 9.425781 0 5.703125 3.371094 5.703125 7.519531 L 5.703125 10.429688 C 3.941406 10.734375 2.59375 12.269531 2.59375 14.121094 L 2.59375 24.253906 C 2.59375 26.320312 4.273438 28 6.339844 28 L 21.660156 28 C 23.726562 28 25.40625 26.320312 25.40625 24.25 L 25.40625 14.117188 C 25.40625 12.269531 24.058594 10.734375 22.296875 10.429688 Z M 6.742188 7.519531 C 6.742188 3.945312 9.996094 1.035156 14 1.035156 C 18.003906 1.035156 21.257812 3.945312 21.257812 7.519531 L 21.257812 10.371094 L 6.742188 10.371094 Z M 24.371094 24.25 C 24.371094 25.746094 23.152344 26.964844 21.660156 26.964844 L 6.339844 26.964844 C 4.847656 26.964844 3.628906 25.746094 3.628906 24.25 L 3.628906 14.117188 C 3.628906 12.625 4.847656 11.40625 6.339844 11.40625 L 21.660156 11.40625 C 23.152344 11.40625 24.371094 12.625 24.371094 14.117188 Z M 24.371094 24.25 "/>
<path style=" stroke:none;fill-rule:nonzero;fill:rgb(0%,0%,0%);fill-opacity:1;" d="M 14 14.519531 C 12.855469 14.519531 11.925781 15.449219 11.925781 16.59375 L 11.925781 19.703125 C 11.925781 20.847656 12.855469 21.777344 14 21.777344 C 15.144531 21.777344 16.074219 20.847656 16.074219 19.703125 L 16.074219 16.59375 C 16.074219 15.449219 15.144531 14.519531 14 14.519531 Z M 15.035156 19.703125 C 15.035156 20.277344 14.570312 20.742188 14 20.742188 C 13.429688 20.742188 12.964844 20.277344 12.964844 19.703125 L 12.964844 16.59375 C 12.964844 16.019531 13.429688 15.554688 14 15.554688 C 14.570312 15.554688 15.035156 16.019531 15.035156 16.59375 Z M 15.035156 19.703125 "/>
</g>
</svg>
