<?xml version="1.0" encoding="UTF-8"?>
<svg xmlns="http://www.w3.org/2000/svg" xmlns:xlink="http://www.w3.org/1999/xlink" width="28pt" height="28pt" viewBox="0 0 28 28" version="1.1">
<g id="surface1">
<path style=" stroke:none;fill-rule:nonzero;fill:rgb(0%,0%,0%);fill-opacity:1;" d="M 26.214844 12.234375 L 20.972656 15.730469 C 20.972656 14.667969 20.492188 13.730469 19.742188 13.089844 C 21.519531 12.019531 22.71875 10.089844 22.71875 7.863281 C 22.71875 4.488281 19.980469 1.746094 16.601562 1.746094 C 13.226562 1.746094 10.484375 4.488281 10.484375 7.863281 C 10.484375 9.578125 11.195312 11.125 12.332031 12.234375 L 9.125 12.234375 C 9.964844 11.304688 10.484375 10.089844 10.484375 8.738281 C 10.484375 5.84375 8.140625 3.496094 5.242188 3.496094 C 2.347656 3.496094 0 5.84375 0 8.738281 C 0 10.320312 0.714844 11.71875 1.820312 12.679688 C 0.738281 13.273438 0 14.410156 0 15.730469 L 0 22.71875 C 0 24.652344 1.566406 26.214844 3.496094 26.214844 L 17.476562 26.214844 C 19.40625 26.214844 20.972656 24.652344 20.972656 22.71875 L 26.214844 26.214844 C 27.179688 26.214844 27.964844 25.433594 27.964844 24.46875 L 27.964844 13.980469 C 27.964844 13.015625 27.179688 12.234375 26.214844 12.234375 Z M 5.242188 12.234375 C 3.3125 12.234375 1.746094 10.667969 1.746094 8.738281 C 1.746094 6.808594 3.3125 5.242188 5.242188 5.242188 C 7.171875 5.242188 8.738281 6.808594 8.738281 8.738281 C 8.738281 10.667969 7.171875 12.234375 5.242188 12.234375 Z M 16.601562 12.242188 C 14.183594 12.242188 12.222656 10.28125 12.222656 7.863281 C 12.222656 5.445312 14.183594 3.484375 16.601562 3.484375 C 19.019531 3.484375 20.980469 5.445312 20.980469 7.863281 C 20.980469 10.285156 19.023438 12.242188 16.601562 12.242188 Z M 16.601562 12.242188 "/>
</g>
</svg>
