<?xml version="1.0" encoding="UTF-8"?>
<svg xmlns="http://www.w3.org/2000/svg" xmlns:xlink="http://www.w3.org/1999/xlink" width="28pt" height="28pt" viewBox="0 0 28 28" version="1.1">
<g id="surface1">
<path style=" stroke:none;fill-rule:nonzero;fill:rgb(0%,0%,0%);fill-opacity:1;" d="M 11.847656 3.769531 C 11.558594 3.769531 11.304688 3.875 11.089844 4.089844 L 5.488281 9.695312 L 1.078125 9.695312 C 0.785156 9.695312 0.53125 9.800781 0.320312 10.015625 C 0.105469 10.226562 0 10.480469 0 10.769531 L 0 17.234375 C 0 17.523438 0.105469 17.777344 0.320312 17.992188 C 0.53125 18.203125 0.785156 18.3125 1.078125 18.3125 L 5.488281 18.3125 L 11.089844 23.914062 C 11.304688 24.128906 11.554688 24.234375 11.847656 24.234375 C 12.140625 24.234375 12.390625 24.128906 12.605469 23.914062 C 12.820312 23.703125 12.925781 23.449219 12.925781 23.15625 L 12.925781 4.847656 C 12.925781 4.554688 12.820312 4.304688 12.605469 4.089844 C 12.390625 3.875 12.140625 3.769531 11.847656 3.769531 Z M 11.847656 3.769531 "/>
<path style=" stroke:none;fill-rule:nonzero;fill:rgb(0%,0%,0%);fill-opacity:1;" d="M 18.671875 16.382812 C 19.148438 15.648438 19.386719 14.855469 19.386719 14.003906 C 19.386719 13.148438 19.148438 12.351562 18.671875 11.613281 C 18.195312 10.871094 17.566406 10.351562 16.777344 10.046875 C 16.667969 9.992188 16.527344 9.960938 16.359375 9.960938 C 16.066406 9.960938 15.8125 10.066406 15.601562 10.273438 C 15.386719 10.480469 15.28125 10.738281 15.28125 11.039062 C 15.28125 11.273438 15.347656 11.472656 15.484375 11.636719 C 15.617188 11.800781 15.78125 11.941406 15.972656 12.058594 C 16.164062 12.175781 16.351562 12.304688 16.542969 12.445312 C 16.734375 12.585938 16.898438 12.785156 17.03125 13.042969 C 17.167969 13.300781 17.234375 13.621094 17.234375 14.003906 C 17.234375 14.382812 17.167969 14.703125 17.03125 14.960938 C 16.898438 15.21875 16.734375 15.417969 16.542969 15.558594 C 16.351562 15.699219 16.164062 15.828125 15.972656 15.945312 C 15.78125 16.0625 15.617188 16.203125 15.484375 16.367188 C 15.347656 16.53125 15.28125 16.730469 15.28125 16.964844 C 15.28125 17.269531 15.386719 17.523438 15.601562 17.730469 C 15.8125 17.9375 16.066406 18.042969 16.359375 18.042969 C 16.527344 18.042969 16.667969 18.011719 16.777344 17.957031 C 17.566406 17.644531 18.195312 17.117188 18.671875 16.382812 Z M 18.671875 16.382812 "/>
<path style=" stroke:none;fill-rule:nonzero;fill:rgb(0%,0%,0%);fill-opacity:1;" d="M 22.265625 18.757812 C 23.21875 17.304688 23.695312 15.71875 23.695312 14.003906 C 23.695312 12.285156 23.21875 10.699219 22.265625 9.246094 C 21.3125 7.792969 20.050781 6.738281 18.480469 6.074219 C 18.332031 6.019531 18.1875 5.992188 18.042969 5.992188 C 17.75 5.992188 17.496094 6.097656 17.285156 6.3125 C 17.070312 6.523438 16.964844 6.777344 16.964844 7.066406 C 16.964844 7.503906 17.183594 7.835938 17.621094 8.0625 C 18.25 8.386719 18.675781 8.632812 18.898438 8.800781 C 19.730469 9.40625 20.378906 10.167969 20.84375 11.082031 C 21.308594 11.996094 21.542969 12.96875 21.542969 14.003906 C 21.542969 15.035156 21.308594 16.007812 20.84375 16.921875 C 20.378906 17.835938 19.730469 18.597656 18.898438 19.203125 C 18.675781 19.371094 18.25 19.617188 17.621094 19.941406 C 17.183594 20.167969 16.964844 20.5 16.964844 20.9375 C 16.964844 21.226562 17.070312 21.480469 17.285156 21.695312 C 17.496094 21.90625 17.753906 22.011719 18.058594 22.011719 C 18.191406 22.011719 18.332031 21.984375 18.480469 21.929688 C 20.050781 21.265625 21.3125 20.210938 22.265625 18.757812 Z M 22.265625 18.757812 "/>
<path style=" stroke:none;fill-rule:nonzero;fill:rgb(0%,0%,0%);fill-opacity:1;" d="M 25.867188 6.890625 C 24.441406 4.730469 22.546875 3.140625 20.179688 2.121094 C 20.03125 2.066406 19.886719 2.035156 19.742188 2.035156 C 19.449219 2.035156 19.195312 2.144531 18.984375 2.355469 C 18.769531 2.570312 18.664062 2.824219 18.664062 3.113281 C 18.664062 3.519531 18.882812 3.847656 19.320312 4.105469 C 19.398438 4.152344 19.523438 4.210938 19.699219 4.285156 C 19.875 4.355469 20 4.414062 20.078125 4.460938 C 20.59375 4.742188 21.054688 5.027344 21.457031 5.316406 C 22.839844 6.339844 23.914062 7.613281 24.691406 9.136719 C 25.464844 10.664062 25.851562 12.285156 25.851562 14.003906 C 25.851562 15.71875 25.464844 17.339844 24.691406 18.867188 C 23.914062 20.390625 22.839844 21.667969 21.457031 22.6875 C 21.054688 22.976562 20.59375 23.265625 20.078125 23.546875 C 20 23.589844 19.875 23.648438 19.699219 23.722656 C 19.523438 23.792969 19.398438 23.851562 19.320312 23.898438 C 18.882812 24.15625 18.664062 24.488281 18.664062 24.890625 C 18.664062 25.183594 18.769531 25.433594 18.984375 25.648438 C 19.195312 25.863281 19.449219 25.96875 19.742188 25.96875 C 19.886719 25.96875 20.03125 25.941406 20.179688 25.882812 C 22.546875 24.863281 24.441406 23.273438 25.867188 21.113281 C 27.292969 18.953125 28.003906 16.582031 28.003906 14.003906 C 28.003906 11.421875 27.292969 9.050781 25.867188 6.890625 Z M 25.867188 6.890625 "/>
</g>
</svg>
