<?xml version="1.0" encoding="UTF-8"?>
<svg xmlns="http://www.w3.org/2000/svg" xmlns:xlink="http://www.w3.org/1999/xlink" width="28pt" height="28pt" viewBox="0 0 28 28" version="1.1">
<g id="surface1">
<path style=" stroke:none;fill-rule:nonzero;fill:rgb(0%,0%,0%);fill-opacity:1;" d="M 14 0 C 6.28125 0 0 6.28125 0 14 C 0 21.71875 6.28125 28 14 28 C 21.71875 28 28 21.71875 28 14 C 28 6.28125 21.71875 0 14 0 Z M 14 26.921875 C 6.875 26.921875 1.078125 21.125 1.078125 14 C 1.078125 6.875 6.875 1.078125 14 1.078125 C 21.125 1.078125 26.921875 6.875 26.921875 14 C 26.921875 21.125 21.125 26.921875 14 26.921875 Z M 14 26.921875 "/>
<path style=" stroke:none;fill-rule:nonzero;fill:rgb(0%,0%,0%);fill-opacity:1;" d="M 21 13.460938 L 7 13.460938 C 6.703125 13.460938 6.460938 13.703125 6.460938 14 C 6.460938 14.296875 6.703125 14.539062 7 14.539062 L 21 14.539062 C 21.296875 14.539062 21.539062 14.296875 21.539062 14 C 21.539062 13.703125 21.296875 13.460938 21 13.460938 Z M 21 13.460938 "/>
</g>
</svg>
