<?xml version="1.0" encoding="UTF-8"?>
<svg xmlns="http://www.w3.org/2000/svg" xmlns:xlink="http://www.w3.org/1999/xlink" width="14pt" height="14pt" viewBox="0 0 14 14" version="1.1">
<g id="surface1">
<path style=" stroke:none;fill-rule:nonzero;fill:rgb(0%,0%,0%);fill-opacity:1;" d="M 2.0625 7.679688 C 1.890625 8.554688 2.445312 9.40625 3.316406 9.597656 C 4.195312 9.789062 5.070312 9.226562 5.257812 8.34375 L 5.527344 5.886719 C 4.648438 5.40625 4.96875 7.390625 3.445312 7.0625 C 2.402344 6.835938 2.117188 7.503906 2.0625 7.679688 Z M 2.0625 7.679688 "/>
<path style=" stroke:none;fill-rule:nonzero;fill:rgb(0%,0%,0%);fill-opacity:1;" d="M 13.375 10.632812 C 13.304688 10.429688 13.082031 10.3125 12.875 10.382812 L 11.78125 10.75 L 11.085938 8.671875 C 11.65625 8.394531 12.117188 7.953125 12.40625 7.375 C 12.757812 6.679688 12.8125 5.890625 12.554688 5.125 L 10.75 0.957031 L 5.957031 2.550781 L 6.277344 3.855469 L 2.179688 2.96875 L 0.828125 7.339844 C 0.664062 8.101562 0.804688 8.875 1.226562 9.53125 C 1.578125 10.070312 2.085938 10.460938 2.679688 10.675781 L 2.21875 12.8125 L 1.085938 12.570312 C 0.875 12.527344 0.664062 12.65625 0.617188 12.875 C 0.570312 13.085938 0.707031 13.296875 0.921875 13.34375 L 2.429688 13.667969 C 2.433594 13.667969 2.433594 13.667969 2.433594 13.667969 C 2.4375 13.671875 2.4375 13.667969 2.4375 13.671875 L 3.953125 13.996094 C 3.980469 14 4.007812 14.003906 4.035156 14.003906 C 4.21875 14.003906 4.382812 13.878906 4.421875 13.695312 C 4.46875 13.480469 4.328125 13.269531 4.117188 13.226562 L 2.988281 12.980469 L 3.449219 10.851562 C 3.523438 10.859375 3.601562 10.863281 3.675781 10.863281 C 5.03125 10.863281 6.226562 9.898438 6.515625 8.539062 L 6.835938 6.136719 L 7.046875 6.992188 C 7.445312 8.183594 8.554688 8.984375 9.804688 8.984375 C 9.984375 8.984375 10.164062 8.960938 10.34375 8.929688 L 11.03125 11 L 9.933594 11.359375 C 9.726562 11.429688 9.617188 11.65625 9.683594 11.859375 C 9.738281 12.023438 9.890625 12.132812 10.058594 12.132812 C 10.101562 12.132812 10.140625 12.125 10.183594 12.109375 L 13.125 11.132812 C 13.332031 11.0625 13.445312 10.839844 13.375 10.632812 Z M 5.742188 8.402344 C 5.5 9.519531 4.351562 10.265625 3.226562 10.023438 L 3.222656 10.023438 C 2.671875 9.90625 2.195312 9.578125 1.890625 9.101562 C 1.585938 8.625 1.480469 8.0625 1.59375 7.539062 L 2.71875 3.894531 L 6.242188 4.65625 Z M 7.804688 6.773438 L 6.898438 3.070312 L 10.3125 1.933594 L 11.820312 5.40625 C 11.996094 5.945312 11.953125 6.515625 11.703125 7.023438 C 11.449219 7.527344 11.015625 7.90625 10.476562 8.085938 C 10.257812 8.15625 10.03125 8.195312 9.804688 8.195312 C 8.890625 8.195312 8.085938 7.609375 7.804688 6.773438 Z M 7.804688 6.773438 "/>
<path style=" stroke:none;fill-rule:nonzero;fill:rgb(0%,0%,0%);fill-opacity:1;" d="M 11.378906 5.628906 C 11.304688 5.460938 10.949219 4.824219 9.9375 5.164062 C 8.457031 5.65625 8.5625 3.648438 7.742188 4.21875 L 8.273438 6.632812 C 8.554688 7.488281 9.484375 7.953125 10.335938 7.667969 C 11.1875 7.386719 11.644531 6.476562 11.378906 5.628906 Z M 11.378906 5.628906 "/>
<path style=" stroke:none;fill-rule:nonzero;fill:rgb(0%,0%,0%);fill-opacity:1;" d="M 4.578125 0.890625 C 4.820312 0.878906 5.011719 0.667969 5 0.421875 C 4.984375 0.175781 4.773438 -0.015625 4.53125 0 C 4.28125 0.015625 4.09375 0.226562 4.105469 0.46875 C 4.117188 0.71875 4.328125 0.90625 4.578125 0.890625 Z M 4.578125 0.890625 "/>
<path style=" stroke:none;fill-rule:nonzero;fill:rgb(0%,0%,0%);fill-opacity:1;" d="M 6.304688 1.671875 C 6.546875 1.660156 6.738281 1.449219 6.726562 1.203125 C 6.710938 0.957031 6.5 0.765625 6.257812 0.78125 C 6.007812 0.796875 5.820312 1.003906 5.832031 1.25 C 5.84375 1.496094 6.054688 1.6875 6.304688 1.671875 Z M 6.304688 1.671875 "/>
<path style=" stroke:none;fill-rule:nonzero;fill:rgb(0%,0%,0%);fill-opacity:1;" d="M 4.328125 2.046875 C 4.34375 2.296875 4.554688 2.484375 4.796875 2.46875 C 5.046875 2.457031 5.234375 2.246094 5.21875 2 C 5.207031 1.753906 4.996094 1.5625 4.75 1.578125 C 4.503906 1.59375 4.3125 1.800781 4.328125 2.046875 Z M 4.328125 2.046875 "/>
</g>
</svg>
