<?xml version="1.0" encoding="UTF-8"?>
<svg xmlns="http://www.w3.org/2000/svg" xmlns:xlink="http://www.w3.org/1999/xlink" width="28pt" height="28pt" viewBox="0 0 28 28" version="1.1">
<g id="surface1">
<path style=" stroke:none;fill-rule:nonzero;fill:rgb(0%,0%,0%);fill-opacity:1;" d="M 15.199219 6.945312 C 15.199219 5.6875 15.199219 0 15.199219 0 L 12.777344 0 C 12.777344 0 12.777344 5.6875 12.777344 6.945312 C 12.777344 8.207031 10.410156 9.734375 10.410156 11.527344 C 10.410156 13.324219 10.410156 26.300781 10.410156 26.757812 C 10.410156 27.214844 10.714844 27.980469 11.402344 27.980469 C 11.871094 27.980469 13.019531 27.980469 13.710938 27.980469 C 14.039062 27.980469 14.265625 27.980469 14.265625 27.980469 C 14.957031 27.980469 16.109375 27.980469 16.574219 27.980469 C 17.261719 27.980469 17.570312 27.214844 17.570312 26.757812 C 17.570312 26.300781 17.570312 13.324219 17.570312 11.527344 C 17.570312 9.734375 15.199219 8.207031 15.199219 6.945312 Z M 13.300781 8.988281 C 13.148438 9.195312 12.976562 9.460938 12.789062 9.765625 C 12.601562 10.070312 12.421875 10.425781 12.242188 10.8125 C 12.171875 11.007812 12.101562 11.214844 12.042969 11.421875 C 12.039062 11.640625 11.96875 11.804688 12 12.078125 C 12.019531 12.589844 12.039062 13.125 12.058594 13.683594 C 12.097656 14.792969 12.101562 15.980469 12.113281 17.167969 C 12.109375 19.539062 12.039062 21.914062 11.925781 23.691406 C 11.878906 24.582031 11.800781 25.324219 11.761719 25.84375 C 11.714844 26.363281 11.675781 26.660156 11.675781 26.660156 C 11.675781 26.660156 11.636719 26.363281 11.59375 25.84375 C 11.554688 25.324219 11.472656 24.582031 11.425781 23.691406 C 11.316406 21.914062 11.242188 19.539062 11.242188 17.167969 C 11.25 15.980469 11.253906 14.792969 11.292969 13.683594 C 11.3125 13.125 11.332031 12.589844 11.351562 12.078125 C 11.34375 11.839844 11.433594 11.519531 11.484375 11.261719 C 11.582031 11.023438 11.691406 10.796875 11.796875 10.585938 C 11.921875 10.394531 12.042969 10.207031 12.15625 10.03125 C 12.289062 9.871094 12.414062 9.71875 12.527344 9.574219 C 12.769531 9.296875 12.984375 9.0625 13.171875 8.878906 C 13.542969 8.507812 13.78125 8.324219 13.78125 8.324219 C 13.78125 8.324219 13.597656 8.5625 13.300781 8.988281 Z M 13.300781 8.988281 "/>
</g>
</svg>
