<?xml version="1.0" encoding="UTF-8"?>
<svg xmlns="http://www.w3.org/2000/svg" xmlns:xlink="http://www.w3.org/1999/xlink" width="28pt" height="28pt" viewBox="0 0 28 28" version="1.1">
<g id="surface1">
<path style=" stroke:none;fill-rule:nonzero;fill:rgb(0%,0%,0%);fill-opacity:1;" d="M 14 0 C 6.28125 0 0 6.28125 0 14 C 0 21.71875 6.28125 28 14 28 C 21.71875 28 28 21.71875 28 14 C 28 6.28125 21.71875 0 14 0 Z M 14 27.066406 C 6.796875 27.066406 0.933594 21.203125 0.933594 14 C 0.933594 6.796875 6.796875 0.933594 14 0.933594 C 21.203125 0.933594 27.066406 6.796875 27.066406 14 C 27.066406 21.203125 21.203125 27.066406 14 27.066406 Z M 14 27.066406 "/>
<path style=" stroke:none;fill-rule:nonzero;fill:rgb(0%,0%,0%);fill-opacity:1;" d="M 15.398438 21.464844 L 19.132812 21.464844 L 19.132812 6.535156 L 15.398438 6.535156 Z M 16.332031 7.464844 L 18.199219 7.464844 L 18.199219 20.535156 L 16.332031 20.535156 Z M 16.332031 7.464844 "/>
<path style=" stroke:none;fill-rule:nonzero;fill:rgb(0%,0%,0%);fill-opacity:1;" d="M 8.867188 21.464844 L 12.601562 21.464844 L 12.601562 6.535156 L 8.867188 6.535156 Z M 9.800781 7.464844 L 11.667969 7.464844 L 11.667969 20.535156 L 9.800781 20.535156 Z M 9.800781 7.464844 "/>
</g>
</svg>
