<?xml version="1.0" encoding="UTF-8"?>
<svg xmlns="http://www.w3.org/2000/svg" xmlns:xlink="http://www.w3.org/1999/xlink" width="28pt" height="28pt" viewBox="0 0 28 28" version="1.1">
<g id="surface1">
<path style=" stroke:none;fill-rule:nonzero;fill:rgb(0%,0%,0%);fill-opacity:1;" d="M 27.839844 10.59375 L 14.210938 1.136719 C 14.085938 1.050781 13.914062 1.050781 13.789062 1.136719 L 0.160156 10.59375 C 0.0273438 10.683594 -0.03125 10.851562 0.015625 11.007812 C 0.0664062 11.160156 0.207031 11.265625 0.371094 11.265625 L 2.144531 11.265625 L 2.144531 26.1875 L 0.773438 26.1875 C 0.570312 26.1875 0.402344 26.355469 0.402344 26.558594 C 0.402344 26.761719 0.570312 26.929688 0.773438 26.929688 L 27.226562 26.929688 C 27.429688 26.929688 27.597656 26.761719 27.597656 26.558594 C 27.597656 26.355469 27.429688 26.1875 27.226562 26.1875 L 25.855469 26.1875 L 25.855469 11.265625 L 27.628906 11.265625 C 27.792969 11.265625 27.933594 11.160156 27.984375 11.007812 C 28.03125 10.851562 27.972656 10.683594 27.839844 10.59375 Z M 2.882812 26.1875 L 2.882812 11.265625 L 4.179688 11.265625 L 4.179688 26.1875 Z M 11.289062 5.574219 L 16.710938 5.574219 L 18.445312 6.773438 L 9.554688 6.773438 Z M 12.355469 4.832031 L 14 3.691406 L 15.644531 4.832031 Z M 8.488281 7.515625 L 19.511719 7.515625 L 21.242188 8.71875 L 6.757812 8.71875 Z M 5.691406 9.457031 L 22.308594 9.457031 L 23.851562 10.527344 L 4.148438 10.527344 Z M 9.191406 20.0625 L 9.191406 19.632812 L 18.808594 19.632812 L 18.808594 20.0625 Z M 19.179688 20.804688 C 19.382812 20.804688 19.550781 20.636719 19.550781 20.433594 L 19.550781 19.261719 C 19.550781 19.058594 19.382812 18.890625 19.179688 18.890625 L 8.820312 18.890625 C 8.617188 18.890625 8.449219 19.058594 8.449219 19.261719 L 8.449219 20.433594 C 8.449219 20.636719 8.617188 20.804688 8.820312 20.804688 L 13.042969 20.804688 L 13.042969 26.1875 L 4.917969 26.1875 L 4.917969 15.460938 L 9.113281 11.265625 L 18.886719 11.265625 L 23.082031 15.460938 L 23.082031 26.1875 L 14.957031 26.1875 L 14.957031 20.804688 Z M 5.84375 11.265625 L 4.917969 12.1875 L 4.917969 11.265625 Z M 4.917969 13.234375 L 6.890625 11.265625 L 8.066406 11.265625 L 4.917969 14.414062 Z M 21.109375 11.265625 L 23.082031 13.234375 L 23.082031 14.414062 L 19.933594 11.265625 Z M 23.082031 12.1875 L 22.15625 11.265625 L 23.082031 11.265625 Z M 13.785156 26.1875 L 13.785156 20.804688 L 14.214844 20.804688 L 14.214844 26.1875 Z M 25.117188 26.1875 L 23.820312 26.1875 L 23.820312 11.265625 L 25.117188 11.265625 Z M 25.148438 10.527344 L 14.210938 2.9375 C 14.085938 2.851562 13.914062 2.851562 13.789062 2.9375 L 2.851562 10.527344 L 1.550781 10.527344 L 14 1.890625 L 26.449219 10.527344 Z M 25.148438 10.527344 "/>
</g>
</svg>
