<?xml version="1.0" encoding="UTF-8"?>
<svg xmlns="http://www.w3.org/2000/svg" xmlns:xlink="http://www.w3.org/1999/xlink" width="28pt" height="28pt" viewBox="0 0 28 28" version="1.1">
<g id="surface1">
<path style=" stroke:none;fill-rule:nonzero;fill:rgb(1.176471%,0.392157%,1.568627%);fill-opacity:1;" d="M 2.558594 8.335938 C 5.273438 6 7.421875 4.15625 13.246094 7.445312 C 16.042969 9.027344 18.300781 9.625 20.179688 9.625 C 23.472656 9.625 25.601562 7.792969 27.445312 6.210938 C 28.101562 5.644531 28.1875 4.644531 27.632812 3.972656 C 27.082031 3.300781 26.101562 3.210938 25.441406 3.777344 C 22.726562 6.113281 20.578125 7.957031 14.753906 4.664062 C 7.054688 0.316406 3.449219 3.414062 0.554688 5.902344 C -0.101562 6.46875 -0.1875 7.46875 0.367188 8.140625 C 0.917969 8.8125 1.898438 8.898438 2.558594 8.335938 Z M 25.441406 11.722656 C 22.726562 14.054688 20.578125 15.902344 14.753906 12.609375 C 7.054688 8.261719 3.449219 11.359375 0.554688 13.847656 C -0.101562 14.410156 -0.1875 15.414062 0.367188 16.085938 C 0.917969 16.757812 1.898438 16.84375 2.558594 16.277344 C 5.273438 13.945312 7.421875 12.097656 13.246094 15.390625 C 16.042969 16.972656 18.300781 17.566406 20.179688 17.566406 C 23.472656 17.566406 25.601562 15.738281 27.445312 14.152344 C 28.101562 13.589844 28.1875 12.585938 27.632812 11.914062 C 27.082031 11.242188 26.101562 11.15625 25.441406 11.722656 Z M 25.441406 19.664062 C 22.726562 22 20.578125 23.84375 14.753906 20.554688 C 7.054688 16.203125 3.449219 19.300781 0.554688 21.789062 C -0.101562 22.355469 -0.1875 23.355469 0.367188 24.027344 C 0.917969 24.699219 1.898438 24.785156 2.558594 24.222656 C 5.273438 21.886719 7.421875 20.042969 13.246094 23.332031 C 16.042969 24.914062 18.300781 25.511719 20.179688 25.511719 C 23.472656 25.511719 25.601562 23.679688 27.445312 22.097656 C 28.101562 21.53125 28.1875 20.53125 27.632812 19.859375 C 27.082031 19.1875 26.101562 19.101562 25.441406 19.664062 Z M 25.441406 19.664062 "/>
</g>
</svg>
