<?xml version="1.0" encoding="UTF-8"?>
<svg xmlns="http://www.w3.org/2000/svg" xmlns:xlink="http://www.w3.org/1999/xlink" width="28pt" height="28pt" viewBox="0 0 28 28" version="1.1">
<g id="surface1">
<path style=" stroke:none;fill-rule:nonzero;fill:rgb(0%,0%,0%);fill-opacity:1;" d="M 28 17.5 C 28 14.925781 25.90625 12.832031 23.332031 12.832031 L 19.601562 12.832031 L 19.601562 10.964844 L 13.066406 10.964844 L 13.066406 12.832031 L 10.761719 12.832031 C 11.320312 11.996094 11.667969 10.664062 11.667969 9.101562 C 11.667969 8.011719 11.484375 6.953125 11.15625 6.128906 L 11.039062 5.832031 L 9.847656 5.832031 C 10.0625 4.769531 11.007812 3.964844 12.132812 3.964844 C 12.390625 3.964844 12.601562 3.757812 12.601562 3.5 C 12.601562 3.242188 12.390625 3.035156 12.132812 3.035156 C 11.21875 3.035156 10.394531 3.410156 9.800781 4.019531 L 9.800781 2.566406 C 9.800781 2.308594 9.589844 2.101562 9.332031 2.101562 C 9.074219 2.101562 8.867188 2.308594 8.867188 2.566406 L 8.867188 4.019531 C 8.273438 3.410156 7.445312 3.035156 6.535156 3.035156 C 6.273438 3.035156 6.066406 3.242188 6.066406 3.5 C 6.066406 3.757812 6.273438 3.964844 6.535156 3.964844 C 7.660156 3.964844 8.601562 4.769531 8.820312 5.832031 L 7.628906 5.832031 L 7.511719 6.128906 C 7.179688 6.953125 7 8.011719 7 9.101562 C 7 10.664062 7.347656 11.996094 7.902344 12.832031 L 4.667969 12.832031 C 2.09375 12.832031 0 14.925781 0 17.5 C 0 20.074219 2.09375 22.167969 4.667969 22.167969 L 5.691406 22.167969 L 3.804688 25.1875 C 3.667969 25.40625 3.734375 25.691406 3.953125 25.828125 C 4.03125 25.878906 4.113281 25.898438 4.199219 25.898438 C 4.355469 25.898438 4.507812 25.824219 4.597656 25.679688 L 6.792969 22.167969 L 22.140625 22.167969 L 24.335938 25.679688 C 24.425781 25.824219 24.578125 25.898438 24.734375 25.898438 C 24.816406 25.898438 24.902344 25.878906 24.980469 25.828125 C 25.199219 25.691406 25.265625 25.40625 25.128906 25.1875 L 23.242188 22.167969 L 23.332031 22.167969 C 25.90625 22.167969 28 20.074219 28 17.5 Z M 14 11.898438 L 18.667969 11.898438 L 18.667969 12.832031 L 14 12.832031 Z M 7.933594 9.101562 C 7.933594 8.253906 8.054688 7.4375 8.273438 6.765625 L 10.394531 6.765625 C 10.613281 7.4375 10.734375 8.253906 10.734375 9.101562 C 10.734375 11.378906 9.90625 12.832031 9.332031 12.832031 C 8.761719 12.832031 7.933594 11.378906 7.933594 9.101562 Z M 4.667969 21.234375 C 2.609375 21.234375 0.933594 19.558594 0.933594 17.5 C 0.933594 15.441406 2.609375 13.765625 4.667969 13.765625 L 23.332031 13.765625 C 25.390625 13.765625 27.066406 15.441406 27.066406 17.5 C 27.066406 19.558594 25.390625 21.234375 23.332031 21.234375 L 20.535156 21.234375 L 20.535156 18.898438 L 19.601562 18.898438 L 19.601562 17.035156 L 18.667969 17.035156 L 18.667969 15.167969 L 14 15.167969 L 14 14.699219 L 11.199219 14.699219 L 11.199219 16.101562 L 10.265625 16.101562 L 10.265625 15.167969 L 7.464844 15.167969 L 7.464844 21.234375 Z M 14 19.832031 L 19.601562 19.832031 L 19.601562 20.765625 L 14 20.765625 Z M 14 17.964844 L 18.667969 17.964844 L 18.667969 18.898438 L 14 18.898438 Z M 14 16.101562 L 17.734375 16.101562 L 17.734375 17.035156 L 14 17.035156 Z M 8.398438 21.234375 L 8.398438 16.101562 L 9.332031 16.101562 L 9.332031 21.234375 Z M 10.265625 21.234375 L 10.265625 17.035156 L 11.199219 17.035156 L 11.199219 21.234375 Z M 12.132812 16.101562 L 12.132812 15.632812 L 13.066406 15.632812 L 13.066406 21.234375 L 12.132812 21.234375 Z M 12.132812 16.101562 "/>
</g>
</svg>
