<?xml version="1.0" encoding="UTF-8"?>
<svg xmlns="http://www.w3.org/2000/svg" xmlns:xlink="http://www.w3.org/1999/xlink" width="28pt" height="28pt" viewBox="0 0 28 28" version="1.1">
<g id="surface1">
<path style=" stroke:none;fill-rule:nonzero;fill:rgb(0%,0%,0%);fill-opacity:1;" d="M 23.898438 4.101562 C 21.253906 1.457031 17.738281 0 14 0 C 10.261719 0 6.746094 1.457031 4.101562 4.101562 C 1.457031 6.746094 0 10.261719 0 14 C 0 17.738281 1.457031 21.253906 4.101562 23.898438 C 6.746094 26.542969 10.261719 28 14 28 C 17.738281 28 21.253906 26.542969 23.898438 23.898438 C 26.542969 21.253906 28 17.738281 28 14 C 28 10.261719 26.542969 6.746094 23.898438 4.101562 Z M 14 27.105469 C 6.773438 27.105469 0.894531 21.226562 0.894531 14 C 0.894531 6.773438 6.773438 0.894531 14 0.894531 C 21.226562 0.894531 27.105469 6.773438 27.105469 14 C 27.105469 21.226562 21.226562 27.105469 14 27.105469 Z M 14 27.105469 "/>
<path style=" stroke:none;fill-rule:nonzero;fill:rgb(0%,0%,0%);fill-opacity:1;" d="M 14 18.066406 C 14 18.316406 13.800781 18.515625 13.554688 18.515625 C 13.304688 18.515625 13.105469 18.316406 13.105469 18.066406 C 13.105469 17.820312 13.304688 17.621094 13.554688 17.621094 C 13.800781 17.621094 14 17.820312 14 18.066406 Z M 14 18.066406 "/>
<path style=" stroke:none;fill-rule:nonzero;fill:rgb(0%,0%,0%);fill-opacity:1;" d="M 8.160156 19.855469 C 8.160156 20.101562 7.960938 20.300781 7.714844 20.300781 C 7.46875 20.300781 7.269531 20.101562 7.269531 19.855469 C 7.269531 19.609375 7.46875 19.410156 7.714844 19.410156 C 7.960938 19.410156 8.160156 19.609375 8.160156 19.855469 Z M 8.160156 19.855469 "/>
<path style=" stroke:none;fill-rule:nonzero;fill:rgb(0%,0%,0%);fill-opacity:1;" d="M 6.375 18.066406 C 6.375 18.316406 6.175781 18.515625 5.925781 18.515625 C 5.679688 18.515625 5.480469 18.316406 5.480469 18.066406 C 5.480469 17.820312 5.679688 17.621094 5.925781 17.621094 C 6.175781 17.621094 6.375 17.820312 6.375 18.066406 Z M 6.375 18.066406 "/>
<path style=" stroke:none;fill-rule:nonzero;fill:rgb(0%,0%,0%);fill-opacity:1;" d="M 26.019531 15.078125 C 25.933594 14.980469 25.8125 14.925781 25.683594 14.925781 L 25.015625 14.925781 C 24.769531 14.925781 24.570312 15.128906 24.570312 15.375 C 24.570312 15.621094 24.769531 15.820312 25.015625 15.820312 L 25.171875 15.820312 C 24.628906 19.179688 22.613281 22.09375 19.660156 23.800781 L 19.660156 17.609375 L 20.703125 17.609375 C 22.425781 17.609375 23.828125 16.207031 23.828125 14.480469 L 23.828125 13.4375 L 23.980469 13.4375 C 24.226562 13.4375 24.425781 13.238281 24.425781 12.992188 C 24.425781 12.746094 24.226562 12.542969 23.980469 12.542969 L 23.828125 12.542969 L 23.828125 12.097656 C 23.828125 11.359375 23.226562 10.757812 22.488281 10.757812 C 21.75 10.757812 21.148438 11.359375 21.148438 12.097656 L 21.148438 13.140625 L 21 13.140625 C 20.753906 13.140625 20.554688 13.339844 20.554688 13.585938 C 20.554688 13.832031 20.753906 14.035156 21 14.035156 L 21.148438 14.035156 L 21.148438 14.480469 C 21.148438 14.726562 20.949219 14.925781 20.703125 14.925781 L 19.660156 14.925781 L 19.660156 8.375 L 19.808594 8.375 C 20.054688 8.375 20.253906 8.175781 20.253906 7.925781 C 20.253906 7.679688 20.054688 7.480469 19.808594 7.480469 L 19.660156 7.480469 L 19.660156 6.585938 L 19.808594 6.585938 C 20.054688 6.585938 20.253906 6.386719 20.253906 6.140625 C 20.253906 5.894531 20.054688 5.695312 19.808594 5.695312 L 19.660156 5.695312 L 19.660156 4.351562 C 19.660156 3.613281 19.058594 3.011719 18.320312 3.011719 C 17.578125 3.011719 16.980469 3.613281 16.980469 4.351562 L 16.980469 6.585938 L 16.828125 6.585938 C 16.582031 6.585938 16.382812 6.789062 16.382812 7.035156 C 16.382812 7.28125 16.582031 7.480469 16.828125 7.480469 L 16.980469 7.480469 L 16.980469 11.351562 L 15.9375 11.351562 C 15.691406 11.351562 15.488281 11.152344 15.488281 10.90625 L 15.488281 8.523438 C 15.488281 7.785156 14.886719 7.183594 14.148438 7.183594 C 13.410156 7.183594 12.808594 7.785156 12.808594 8.523438 L 12.808594 8.96875 L 12.660156 8.96875 C 12.414062 8.96875 12.210938 9.171875 12.210938 9.417969 C 12.210938 9.664062 12.414062 9.863281 12.660156 9.863281 L 12.808594 9.863281 L 12.808594 10.90625 C 12.808594 12.632812 14.210938 14.035156 15.9375 14.035156 L 16.980469 14.035156 L 16.980469 19.695312 L 16.828125 19.695312 C 16.582031 19.695312 16.382812 19.894531 16.382812 20.140625 C 16.382812 20.386719 16.582031 20.585938 16.828125 20.585938 L 16.980469 20.585938 L 16.980469 21.480469 L 16.828125 21.480469 C 16.582031 21.480469 16.382812 21.679688 16.382812 21.925781 C 16.382812 22.175781 16.582031 22.375 16.828125 22.375 L 16.980469 22.375 L 16.980469 24.921875 C 16.011719 25.183594 15.011719 25.320312 14 25.320312 C 11.5 25.320312 9.132812 24.519531 7.144531 23 C 6.949219 22.851562 6.667969 22.890625 6.519531 23.085938 C 6.371094 23.28125 6.40625 23.5625 6.605469 23.710938 C 8.746094 25.347656 11.304688 26.210938 14 26.210938 C 15.210938 26.210938 16.40625 26.035156 17.554688 25.683594 C 17.742188 25.625 17.871094 25.453125 17.871094 25.257812 L 17.871094 13.585938 C 17.871094 13.339844 17.671875 13.140625 17.425781 13.140625 L 15.9375 13.140625 C 14.703125 13.140625 13.703125 12.136719 13.703125 10.90625 L 13.703125 8.523438 C 13.703125 8.277344 13.902344 8.078125 14.148438 8.078125 C 14.394531 8.078125 14.597656 8.277344 14.597656 8.523438 L 14.597656 10.90625 C 14.597656 11.644531 15.195312 12.246094 15.9375 12.246094 L 17.425781 12.246094 C 17.671875 12.246094 17.871094 12.046875 17.871094 11.800781 L 17.871094 4.351562 C 17.871094 4.105469 18.074219 3.90625 18.320312 3.90625 C 18.566406 3.90625 18.765625 4.105469 18.765625 4.351562 L 18.765625 15.375 C 18.765625 15.621094 18.964844 15.820312 19.210938 15.820312 L 20.703125 15.820312 C 21.441406 15.820312 22.042969 15.21875 22.042969 14.480469 L 22.042969 12.097656 C 22.042969 11.851562 22.242188 11.652344 22.488281 11.652344 C 22.734375 11.652344 22.9375 11.851562 22.9375 12.097656 L 22.9375 14.480469 C 22.9375 15.710938 21.933594 16.714844 20.703125 16.714844 L 19.210938 16.714844 C 18.964844 16.714844 18.765625 16.914062 18.765625 17.160156 L 18.765625 24.546875 C 18.765625 24.699219 18.847656 24.84375 18.976562 24.925781 C 19.109375 25.007812 19.273438 25.015625 19.410156 24.945312 C 21.207031 24.054688 22.777344 22.71875 23.945312 21.082031 C 25.136719 19.410156 25.890625 17.457031 26.128906 15.425781 C 26.144531 15.300781 26.105469 15.171875 26.019531 15.078125 Z M 26.019531 15.078125 "/>
<path style=" stroke:none;fill-rule:nonzero;fill:rgb(0%,0%,0%);fill-opacity:1;" d="M 2.828125 15.820312 L 15.636719 15.820312 C 15.886719 15.820312 16.085938 15.621094 16.085938 15.375 C 16.085938 15.128906 15.886719 14.925781 15.636719 14.925781 L 2.316406 14.925781 C 2.1875 14.925781 2.066406 14.980469 1.980469 15.078125 C 1.894531 15.171875 1.855469 15.300781 1.871094 15.425781 C 2.179688 18.058594 3.367188 20.5625 5.21875 22.480469 C 5.304688 22.570312 5.421875 22.617188 5.539062 22.617188 C 5.652344 22.617188 5.761719 22.574219 5.851562 22.488281 C 6.027344 22.320312 6.03125 22.035156 5.863281 21.859375 C 4.261719 20.203125 3.195312 18.074219 2.828125 15.820312 Z M 2.828125 15.820312 "/>
</g>
</svg>
