<?xml version="1.0" encoding="UTF-8"?>
<svg xmlns="http://www.w3.org/2000/svg" xmlns:xlink="http://www.w3.org/1999/xlink" width="28pt" height="28pt" viewBox="0 0 28 28" version="1.1">
<g id="surface1">
<path style=" stroke:none;fill-rule:nonzero;fill:rgb(0%,0%,0%);fill-opacity:1;" d="M 0.015625 27.222656 C 0.0390625 27.335938 0.0820312 27.613281 0.117188 27.613281 C 9.070312 27.613281 18.027344 27.613281 26.984375 27.613281 C 27.039062 27.121094 27.277344 26.878906 26.914062 26.65625 C 26.652344 26.5 26.308594 26.445312 26.007812 26.363281 C 25.996094 25.425781 25.921875 25.304688 25.085938 24.988281 C 23.410156 24.363281 21.726562 23.757812 20.070312 23.089844 C 19.179688 22.730469 18.382812 22.820312 17.578125 23.277344 C 16.597656 23.835938 15.589844 24.347656 14.621094 24.925781 C 13.847656 25.386719 13.152344 25.367188 12.371094 24.917969 C 11.035156 24.148438 9.691406 23.386719 8.347656 22.621094 C 8.074219 22.46875 7.796875 22.3125 7.523438 22.160156 L 7.027344 21.882812 C 6.957031 21.84375 6.894531 21.800781 6.832031 21.757812 C 5.527344 21.023438 4.222656 20.285156 2.921875 19.546875 C 2.738281 19.441406 2.554688 19.332031 2.359375 19.253906 C 1.964844 19.097656 1.523438 19.25 1.316406 19.59375 C 1.101562 19.941406 1.15625 20.414062 1.460938 20.691406 C 1.597656 20.816406 1.769531 20.90625 1.933594 21 C 2.6875 21.433594 3.449219 21.855469 4.203125 22.289062 C 4.347656 22.375 4.476562 22.488281 4.53125 22.527344 C 4.21875 22.914062 3.910156 23.226562 3.679688 23.589844 C 3.179688 24.359375 2.707031 25.144531 2.25 25.945312 C 2.054688 26.289062 1.824219 26.46875 1.414062 26.433594 C 1.109375 26.40625 0.796875 26.410156 0.496094 26.453125 C 0.0976562 26.511719 -0.0546875 26.820312 0.015625 27.222656 Z M 16.136719 25.96875 C 16.773438 25.609375 17.410156 25.3125 18.050781 24.964844 C 18.75 24.589844 19.453125 24.539062 20.214844 24.875 C 21.160156 25.296875 22.132812 25.660156 23.09375 26.042969 C 23.261719 26.109375 23.421875 26.070312 23.585938 26.140625 C 23.574219 26.175781 23.5625 26.140625 23.554688 26.140625 C 21.007812 26.140625 18.460938 26.140625 15.8125 26.140625 C 15.957031 26.140625 16.035156 26.023438 16.136719 25.96875 Z M 5.484375 22.898438 C 7.371094 23.96875 9.265625 24.980469 11.160156 26.054688 C 11.148438 26.105469 11.140625 26.140625 11.132812 26.140625 C 8.609375 26.140625 6.085938 26.140625 3.558594 26.140625 C 3.652344 26.140625 4.863281 23.679688 5.484375 22.898438 Z M 5.484375 22.898438 "/>
<path style=" stroke:none;fill-rule:nonzero;fill:rgb(0%,0%,0%);fill-opacity:1;" d="M 3.503906 18.410156 C 3.457031 19.238281 4.0625 19.933594 4.875 19.980469 C 5.679688 20.027344 6.367188 19.398438 6.414062 18.574219 C 6.457031 17.769531 5.820312 17.078125 5.003906 17.042969 C 4.226562 17.011719 3.546875 17.628906 3.503906 18.410156 Z M 3.503906 18.410156 "/>
<path style=" stroke:none;fill-rule:nonzero;fill:rgb(0%,0%,0%);fill-opacity:1;" d="M 27.285156 14.785156 C 27.390625 14.785156 27.496094 14.765625 27.59375 14.71875 C 27.855469 14.597656 28.019531 14.339844 28.019531 14.050781 C 28.019531 6.527344 21.902344 0.410156 14.378906 0.410156 C 6.855469 0.410156 0.734375 6.527344 0.734375 14.050781 C 0.734375 14.339844 0.902344 14.597656 1.164062 14.71875 C 1.421875 14.839844 1.730469 14.796875 1.949219 14.609375 C 1.960938 14.597656 3.300781 13.476562 4.882812 13.476562 C 5.777344 13.476562 6.597656 13.84375 7.324219 14.570312 C 7.460938 14.707031 7.652344 14.808594 7.847656 14.785156 C 8.042969 14.785156 8.230469 14.703125 8.371094 14.5625 C 8.382812 14.550781 9.671875 13.3125 11.253906 13.3125 C 12.09375 13.3125 12.742188 13.671875 13.722656 14.371094 L 13.722656 21.414062 C 13.722656 21.4375 13.886719 21.453125 13.984375 21.453125 C 14.199219 21.453125 14.449219 21.394531 14.707031 21.273438 C 14.863281 21.199219 15.195312 21.136719 15.195312 21.070312 L 15.195312 14.371094 C 15.683594 13.671875 16.742188 13.3125 17.585938 13.3125 C 19.175781 13.3125 20.394531 14.554688 20.40625 14.5625 C 20.542969 14.707031 20.722656 14.785156 20.917969 14.785156 C 21.105469 14.796875 21.300781 14.710938 21.4375 14.570312 C 22.164062 13.847656 22.984375 13.476562 23.878906 13.476562 C 25.449219 13.476562 26.785156 14.589844 26.808594 14.609375 C 26.945312 14.726562 27.113281 14.785156 27.285156 14.785156 Z M 2.285156 12.644531 C 2.84375 7.746094 6.320312 3.734375 10.929688 2.371094 C 11.953125 1.417969 13.125 0.882812 14.378906 0.882812 C 14.695312 0.882812 15.003906 0.917969 15.3125 0.984375 C 15.011719 0.921875 14.707031 0.890625 14.398438 0.890625 C 13.144531 0.890625 12.007812 1.425781 10.984375 2.375 C 10.980469 2.375 10.976562 2.378906 10.96875 2.378906 C 8.871094 4.332031 7.378906 8.042969 7.097656 12.492188 C 7.089844 12.488281 7.078125 12.484375 7.070312 12.476562 C 6.390625 12.113281 5.660156 11.964844 4.882812 11.964844 C 3.875 11.964844 2.96875 12.304688 2.285156 12.644531 Z M 8.539062 12.644531 C 8.542969 12.640625 8.550781 12.636719 8.558594 12.632812 C 8.527344 13.0625 8.496094 13.433594 8.496094 13.886719 C 8.496094 13.4375 8.511719 13.070312 8.539062 12.644531 Z M 11.253906 11.84375 C 10.203125 11.84375 9.277344 12.128906 8.597656 12.515625 C 8.953125 7.355469 10.800781 3.136719 13.722656 2.460938 L 13.722656 12.539062 C 12.742188 12.078125 12.101562 11.84375 11.253906 11.84375 Z M 17.585938 11.804688 C 16.738281 11.804688 15.683594 12.078125 15.195312 12.539062 L 15.195312 2.460938 C 17.636719 3.140625 19.894531 7.375 20.246094 12.554688 C 20.234375 12.546875 20.222656 12.542969 20.210938 12.535156 C 19.53125 12.136719 18.652344 11.804688 17.585938 11.804688 Z M 21.6875 12.5625 C 21.714844 13.015625 21.730469 13.429688 21.730469 13.886719 C 21.730469 13.429688 21.714844 13.015625 21.6875 12.5625 Z M 23.875 12.007812 C 23.097656 12.007812 22.367188 12.113281 21.6875 12.476562 C 21.40625 8.046875 19.976562 4.355469 17.890625 2.398438 C 22.46875 3.78125 25.917969 7.789062 26.472656 12.664062 C 25.789062 12.324219 24.882812 12.007812 23.875 12.007812 Z M 23.875 12.007812 "/>
<path style=" stroke:none;fill-rule:nonzero;fill:rgb(0%,0%,0%);fill-opacity:1;" d="M 14.855469 21.742188 C 14.539062 21.894531 14.242188 21.960938 13.945312 21.960938 C 13.609375 21.960938 13.277344 21.851562 12.925781 21.644531 C 11.53125 20.816406 10.097656 19.972656 8.671875 19.195312 C 8.386719 19.039062 8.074219 18.789062 7.90625 18.789062 C 7.898438 18.789062 7.890625 18.789062 7.878906 18.789062 C 7.003906 18.789062 6.457031 19.421875 6.457031 20.152344 C 6.457031 20.742188 6.777344 21.144531 7.265625 21.414062 C 8.929688 22.347656 10.597656 23.292969 12.246094 24.246094 C 12.601562 24.453125 12.945312 24.566406 13.289062 24.566406 C 13.625 24.566406 13.960938 24.46875 14.308594 24.269531 C 15.410156 23.636719 16.527344 23.039062 17.640625 22.425781 C 18.03125 22.207031 18.421875 22.101562 18.820312 22.101562 C 19.140625 22.101562 19.46875 22.171875 19.804688 22.3125 C 21.148438 22.882812 22.507812 23.410156 23.863281 23.945312 C 24.078125 24.03125 24.3125 24.105469 24.539062 24.117188 C 24.554688 24.117188 24.570312 24.117188 24.582031 24.117188 C 24.925781 24.117188 25.183594 23.898438 25.285156 23.582031 C 25.402344 23.226562 25.296875 22.832031 25.007812 22.632812 C 24.875 22.539062 24.71875 22.484375 24.5625 22.425781 C 22.9375 21.804688 21.296875 21.214844 19.691406 20.554688 C 19.3125 20.398438 18.957031 20.328125 18.601562 20.328125 C 18.171875 20.328125 17.789062 20.433594 17.355469 20.640625 C 16.628906 20.980469 15.683594 21.273438 15.195312 21.605469 L 15.195312 21.730469 L 14.949219 21.730469 C 14.917969 21.730469 14.886719 21.730469 14.855469 21.742188 Z M 14.855469 21.742188 "/>
<path style=" stroke:none;fill-rule:nonzero;fill:rgb(0%,0%,0%);fill-opacity:1;" d="M 14.949219 21.675781 L 15.113281 21.675781 L 15.113281 21.605469 C 15.058594 21.628906 15.003906 21.652344 14.949219 21.675781 Z M 14.949219 21.675781 "/>
</g>
</svg>
