<?xml version="1.0" encoding="UTF-8"?>
<svg xmlns="http://www.w3.org/2000/svg" xmlns:xlink="http://www.w3.org/1999/xlink" width="28pt" height="28pt" viewBox="0 0 28 28" version="1.1">
<g id="surface1">
<path style=" stroke:none;fill-rule:nonzero;fill:rgb(0%,0%,0%);fill-opacity:1;" d="M 0 15.867188 L 28 15.867188 L 28 16.800781 L 0 16.800781 Z M 0 15.867188 "/>
<path style=" stroke:none;fill-rule:nonzero;fill:rgb(0%,0%,0%);fill-opacity:1;" d="M 17.734375 18.667969 L 23.332031 18.667969 L 23.332031 19.601562 L 17.734375 19.601562 Z M 17.734375 18.667969 "/>
<path style=" stroke:none;fill-rule:nonzero;fill:rgb(0%,0%,0%);fill-opacity:1;" d="M 8.867188 18.667969 L 16.800781 18.667969 L 16.800781 19.601562 L 8.867188 19.601562 Z M 8.867188 18.667969 "/>
<path style=" stroke:none;fill-rule:nonzero;fill:rgb(0%,0%,0%);fill-opacity:1;" d="M 4.667969 18.667969 L 7.933594 18.667969 L 7.933594 19.601562 L 4.667969 19.601562 Z M 4.667969 18.667969 "/>
<path style=" stroke:none;fill-rule:nonzero;fill:rgb(0%,0%,0%);fill-opacity:1;" d="M 12.601562 21.464844 L 21.464844 21.464844 L 21.464844 22.398438 L 12.601562 22.398438 Z M 12.601562 21.464844 "/>
<path style=" stroke:none;fill-rule:nonzero;fill:rgb(0%,0%,0%);fill-opacity:1;" d="M 6.535156 21.464844 L 11.667969 21.464844 L 11.667969 22.398438 L 6.535156 22.398438 Z M 6.535156 21.464844 "/>
<path style=" stroke:none;fill-rule:nonzero;fill:rgb(0%,0%,0%);fill-opacity:1;" d="M 10.734375 24.265625 L 20.066406 24.265625 L 20.066406 25.199219 L 10.734375 25.199219 Z M 10.734375 24.265625 "/>
<path style=" stroke:none;fill-rule:nonzero;fill:rgb(0%,0%,0%);fill-opacity:1;" d="M 7.933594 24.265625 L 9.800781 24.265625 L 9.800781 25.199219 L 7.933594 25.199219 Z M 7.933594 24.265625 "/>
<path style=" stroke:none;fill-rule:nonzero;fill:rgb(0%,0%,0%);fill-opacity:1;" d="M 10.265625 27.066406 L 17.734375 27.066406 L 17.734375 28 L 10.265625 28 Z M 10.265625 27.066406 "/>
<path style=" stroke:none;fill-rule:nonzero;fill:rgb(0%,0%,0%);fill-opacity:1;" d="M 22.984375 8.699219 C 20.832031 3.746094 15.046875 1.46875 10.089844 3.625 C 5.136719 5.777344 2.859375 11.5625 5.011719 16.519531 L 5.871094 16.148438 C 4.925781 13.976562 4.882812 11.566406 5.75 9.363281 C 6.617188 7.160156 8.292969 5.425781 10.464844 4.480469 C 14.945312 2.53125 20.179688 4.589844 22.128906 9.074219 C 23.109375 11.320312 23.109375 13.898438 22.128906 16.148438 L 22.988281 16.519531 C 24.066406 14.035156 24.066406 11.183594 22.984375 8.699219 Z M 22.984375 8.699219 "/>
<path style=" stroke:none;fill-rule:nonzero;fill:rgb(0%,0%,0%);fill-opacity:1;" d="M 1.867188 0.742188 C 1.359375 0.261719 0.699219 0 0 0 L 0 0.933594 C 0.476562 0.933594 0.925781 1.117188 1.261719 1.453125 L 1.535156 1.730469 C 1.628906 1.820312 1.746094 1.867188 1.867188 1.867188 C 1.984375 1.867188 2.105469 1.820312 2.195312 1.730469 L 2.472656 1.457031 C 2.808594 1.117188 3.257812 0.933594 3.734375 0.933594 L 3.734375 0 C 3.035156 0 2.375 0.261719 1.867188 0.742188 Z M 1.867188 0.742188 "/>
<path style=" stroke:none;fill-rule:nonzero;fill:rgb(0%,0%,0%);fill-opacity:1;" d="M 3.265625 4.007812 C 2.761719 3.53125 2.101562 3.265625 1.398438 3.265625 L 1.398438 4.199219 C 1.875 4.199219 2.324219 4.386719 2.660156 4.722656 L 2.9375 4.996094 C 3.027344 5.085938 3.148438 5.132812 3.265625 5.132812 C 3.386719 5.132812 3.503906 5.085938 3.597656 4.996094 L 3.871094 4.722656 C 4.207031 4.386719 4.65625 4.199219 5.132812 4.199219 L 5.132812 3.265625 C 4.433594 3.265625 3.773438 3.53125 3.265625 4.007812 Z M 3.265625 4.007812 "/>
<path style=" stroke:none;fill-rule:nonzero;fill:rgb(0%,0%,0%);fill-opacity:1;" d="M 6.535156 1.675781 C 6.027344 1.195312 5.367188 0.933594 4.667969 0.933594 L 4.667969 1.867188 C 5.144531 1.867188 5.589844 2.050781 5.929688 2.386719 L 6.203125 2.664062 C 6.292969 2.753906 6.414062 2.800781 6.535156 2.800781 C 6.652344 2.800781 6.773438 2.753906 6.863281 2.664062 L 7.136719 2.386719 C 7.476562 2.050781 7.921875 1.867188 8.398438 1.867188 L 8.398438 0.933594 C 7.699219 0.933594 7.039062 1.195312 6.535156 1.675781 Z M 6.535156 1.675781 "/>
</g>
</svg>
