<?xml version="1.0" encoding="UTF-8"?>
<svg xmlns="http://www.w3.org/2000/svg" xmlns:xlink="http://www.w3.org/1999/xlink" width="28pt" height="28pt" viewBox="0 0 28 28" version="1.1">
<g id="surface1">
<path style=" stroke:none;fill-rule:nonzero;fill:rgb(0%,0%,0%);fill-opacity:1;" d="M 25.898438 7.199219 L 20.636719 7.199219 L 20.636719 4.207031 C 20.636719 3.296875 19.902344 2.5625 18.992188 2.5625 L 9.007812 2.5625 C 8.097656 2.5625 7.363281 3.296875 7.363281 4.207031 L 7.363281 7.199219 L 2.101562 7.199219 C 0.941406 7.199219 0 8.144531 0 9.300781 L 0 23.335938 C 0 24.496094 0.941406 25.4375 2.101562 25.4375 L 25.898438 25.4375 C 27.058594 25.4375 28 24.496094 28 23.335938 L 28 9.300781 C 28 8.144531 27.058594 7.199219 25.898438 7.199219 Z M 8.457031 4.207031 C 8.457031 3.902344 8.703125 3.65625 9.007812 3.65625 L 18.992188 3.65625 C 19.296875 3.65625 19.542969 3.902344 19.542969 4.207031 L 19.542969 7.199219 L 18.449219 7.199219 L 18.449219 5.183594 C 18.449219 4.882812 18.207031 4.636719 17.902344 4.636719 L 10.097656 4.636719 C 9.792969 4.636719 9.550781 4.882812 9.550781 5.183594 L 9.550781 7.199219 L 8.457031 7.199219 Z M 17.355469 5.730469 L 17.355469 7.199219 L 10.644531 7.199219 L 10.644531 5.730469 Z M 26.90625 23.335938 C 26.90625 23.894531 26.453125 24.34375 25.898438 24.34375 L 2.101562 24.34375 C 1.546875 24.34375 1.09375 23.894531 1.09375 23.335938 L 1.09375 22.679688 L 23.1875 22.679688 C 23.488281 22.679688 23.734375 22.433594 23.734375 22.132812 C 23.734375 21.832031 23.488281 21.585938 23.1875 21.585938 L 1.09375 21.585938 L 1.09375 9.300781 C 1.09375 8.746094 1.546875 8.292969 2.101562 8.292969 L 25.898438 8.292969 C 26.453125 8.292969 26.90625 8.746094 26.90625 9.300781 Z M 26.90625 23.335938 "/>
<path style=" stroke:none;fill-rule:nonzero;fill:rgb(0%,0%,0%);fill-opacity:1;" d="M 25.910156 22.027344 C 25.902344 21.992188 25.890625 21.957031 25.878906 21.925781 C 25.863281 21.890625 25.847656 21.859375 25.828125 21.828125 C 25.808594 21.800781 25.785156 21.773438 25.761719 21.746094 C 25.734375 21.722656 25.707031 21.699219 25.675781 21.679688 C 25.648438 21.660156 25.617188 21.640625 25.582031 21.628906 C 25.550781 21.613281 25.515625 21.605469 25.480469 21.597656 C 25.410156 21.582031 25.335938 21.582031 25.265625 21.597656 C 25.230469 21.605469 25.199219 21.613281 25.164062 21.628906 C 25.132812 21.640625 25.101562 21.660156 25.070312 21.679688 C 25.039062 21.699219 25.011719 21.722656 24.988281 21.746094 C 24.960938 21.773438 24.9375 21.800781 24.917969 21.828125 C 24.898438 21.859375 24.882812 21.890625 24.867188 21.925781 C 24.855469 21.957031 24.84375 21.992188 24.835938 22.027344 C 24.832031 22.0625 24.828125 22.097656 24.828125 22.132812 C 24.828125 22.277344 24.886719 22.417969 24.988281 22.519531 C 25.011719 22.546875 25.039062 22.570312 25.070312 22.589844 C 25.101562 22.609375 25.132812 22.625 25.164062 22.636719 C 25.199219 22.652344 25.230469 22.664062 25.265625 22.667969 C 25.300781 22.675781 25.339844 22.679688 25.375 22.679688 C 25.410156 22.679688 25.445312 22.675781 25.480469 22.667969 C 25.515625 22.664062 25.550781 22.652344 25.582031 22.636719 C 25.617188 22.625 25.648438 22.609375 25.675781 22.589844 C 25.707031 22.570312 25.734375 22.546875 25.761719 22.519531 C 25.863281 22.417969 25.921875 22.277344 25.921875 22.132812 C 25.921875 22.097656 25.917969 22.0625 25.910156 22.027344 Z M 25.910156 22.027344 "/>
<path style=" stroke:none;fill-rule:nonzero;fill:rgb(0%,0%,0%);fill-opacity:1;" d="M 22.324219 10.386719 C 20.851562 10.386719 19.652344 11.582031 19.652344 13.058594 C 19.652344 14.53125 20.851562 15.730469 22.324219 15.730469 C 23.800781 15.730469 25 14.53125 25 13.058594 C 25 11.582031 23.800781 10.386719 22.324219 10.386719 Z M 22.324219 14.636719 C 21.453125 14.636719 20.746094 13.929688 20.746094 13.058594 C 20.746094 12.1875 21.453125 11.480469 22.324219 11.480469 C 23.195312 11.480469 23.90625 12.1875 23.90625 13.058594 C 23.90625 13.929688 23.195312 14.636719 22.324219 14.636719 Z M 22.324219 14.636719 "/>
<path style=" stroke:none;fill-rule:nonzero;fill:rgb(0%,0%,0%);fill-opacity:1;" d="M 11.691406 14.625 C 11.640625 14.488281 11.535156 14.378906 11.402344 14.320312 L 5.328125 11.636719 C 5.054688 11.515625 4.730469 11.640625 4.609375 11.914062 L 3.101562 15.324219 C 2.980469 15.601562 3.105469 15.925781 3.378906 16.046875 L 9.453125 18.730469 C 9.527344 18.761719 9.601562 18.777344 9.675781 18.777344 C 9.882812 18.777344 10.085938 18.65625 10.175781 18.453125 L 11.683594 15.042969 C 11.742188 14.910156 11.746094 14.757812 11.691406 14.625 Z M 9.394531 17.507812 L 4.324219 15.265625 L 5.386719 12.859375 L 9.703125 14.765625 L 10.460938 15.101562 Z M 9.394531 17.507812 "/>
</g>
</svg>
