<?xml version="1.0" encoding="UTF-8"?>
<svg xmlns="http://www.w3.org/2000/svg" xmlns:xlink="http://www.w3.org/1999/xlink" width="28pt" height="28pt" viewBox="0 0 28 28" version="1.1">
<g id="surface1">
<path style=" stroke:none;fill-rule:nonzero;fill:rgb(0%,0%,0%);fill-opacity:1;" d="M 27.136719 9.65625 C 24.871094 2.410156 17.132812 -1.636719 9.882812 0.628906 C 2.636719 2.898438 -1.410156 10.636719 0.855469 17.882812 L 1.746094 17.605469 C -0.367188 10.851562 3.40625 3.632812 10.164062 1.519531 C 13.4375 0.496094 16.910156 0.808594 19.949219 2.398438 C 22.988281 3.988281 25.222656 6.664062 26.246094 9.9375 C 27.273438 13.207031 26.960938 16.683594 25.371094 19.722656 C 23.78125 22.757812 21.105469 24.996094 17.832031 26.019531 C 12.355469 27.734375 6.351562 25.570312 3.226562 20.753906 L 2.445312 21.261719 C 5.027344 25.242188 9.445312 27.535156 14.023438 27.535156 C 15.386719 27.535156 16.765625 27.332031 18.109375 26.910156 C 21.621094 25.8125 24.492188 23.410156 26.199219 20.152344 C 27.902344 16.894531 28.234375 13.167969 27.136719 9.65625 Z M 27.136719 9.65625 "/>
<path style=" stroke:none;fill-rule:nonzero;fill:rgb(0%,0%,0%);fill-opacity:1;" d="M 11.292969 6.53125 L 11.5625 5.636719 L 6.898438 4.238281 C 6.734375 4.1875 6.554688 4.234375 6.433594 4.355469 L 5.5 5.285156 C 5.390625 5.394531 5.34375 5.550781 5.371094 5.703125 C 5.398438 5.851562 5.5 5.980469 5.640625 6.042969 L 9.839844 7.910156 L 10.21875 7.054688 L 6.640625 5.464844 L 6.898438 5.210938 Z M 11.292969 6.53125 "/>
<path style=" stroke:none;fill-rule:nonzero;fill:rgb(0%,0%,0%);fill-opacity:1;" d="M 15.625 3.75 C 15.625 3.496094 15.417969 3.285156 15.160156 3.285156 C 14.132812 3.285156 13.167969 3.683594 12.441406 4.410156 L 8.488281 8.367188 L 6.878906 7.964844 C 6.71875 7.921875 6.550781 7.96875 6.433594 8.085938 L 5.5 9.019531 C 5.398438 9.121094 5.351562 9.261719 5.367188 9.40625 C 5.386719 9.546875 5.46875 9.675781 5.589844 9.75 L 7.824219 11.085938 L 9.164062 13.320312 C 9.238281 13.441406 9.363281 13.523438 9.503906 13.542969 C 9.523438 13.546875 9.542969 13.546875 9.5625 13.546875 C 9.683594 13.546875 9.804688 13.496094 9.894531 13.410156 L 10.824219 12.476562 C 10.941406 12.359375 10.988281 12.191406 10.949219 12.035156 L 10.546875 10.425781 L 14.566406 6.449219 C 15.25 5.730469 15.628906 4.785156 15.625 3.75 Z M 9.699219 9.949219 C 9.582031 10.066406 9.535156 10.234375 9.578125 10.394531 L 9.980469 12.003906 L 9.65625 12.328125 L 8.5625 10.507812 C 8.523438 10.441406 8.46875 10.386719 8.402344 10.347656 L 6.582031 9.253906 L 6.90625 8.933594 L 8.515625 9.335938 C 8.675781 9.375 8.84375 9.328125 8.960938 9.210938 L 13.101562 5.070312 C 13.53125 4.640625 14.070312 4.363281 14.65625 4.261719 C 14.5625 4.835938 14.300781 5.371094 13.898438 5.792969 Z M 9.699219 9.949219 "/>
<path style=" stroke:none;fill-rule:nonzero;fill:rgb(0%,0%,0%);fill-opacity:1;" d="M 14.675781 12.074219 L 13.273438 7.351562 L 12.378906 7.613281 L 13.695312 12.054688 L 13.410156 12.304688 L 11.855469 8.695312 L 11 9.066406 L 12.808594 13.265625 C 12.867188 13.402344 12.988281 13.503906 13.136719 13.535156 C 13.171875 13.542969 13.203125 13.546875 13.238281 13.546875 C 13.351562 13.546875 13.460938 13.503906 13.546875 13.429688 L 14.535156 12.558594 C 14.671875 12.4375 14.726562 12.25 14.675781 12.074219 Z M 14.675781 12.074219 "/>
<path style=" stroke:none;fill-rule:nonzero;fill:rgb(0%,0%,0%);fill-opacity:1;" d="M 9.109375 25.71875 C 5.789062 27.292969 3.183594 27.496094 1.964844 26.277344 C -0.152344 24.160156 2.144531 18.015625 7.304688 11.984375 L 6.597656 11.378906 C 0.9375 17.996094 -1.242188 24.394531 1.304688 26.9375 C 2.011719 27.644531 3.015625 28 4.261719 28 C 5.710938 28 7.488281 27.519531 9.511719 26.5625 Z M 9.109375 25.71875 "/>
<path style=" stroke:none;fill-rule:nonzero;fill:rgb(0%,0%,0%);fill-opacity:1;" d="M 24.898438 16.125 C 24.820312 15.972656 24.660156 15.878906 24.488281 15.878906 L 22.910156 15.878906 L 21.640625 13.335938 C 21.5625 13.179688 21.398438 13.078125 21.222656 13.078125 L 16.558594 13.078125 C 16.300781 13.078125 16.09375 13.289062 16.09375 13.546875 L 16.09375 17.277344 C 16.09375 17.535156 16.300781 17.742188 16.558594 17.742188 L 17.957031 17.742188 L 17.957031 22.875 C 17.957031 23.132812 18.167969 23.339844 18.425781 23.339844 L 20.757812 23.339844 C 20.878906 23.339844 21 23.292969 21.085938 23.203125 L 22.953125 21.339844 C 23.039062 21.25 23.089844 21.132812 23.089844 21.007812 L 23.089844 19.285156 L 24.878906 16.601562 C 24.972656 16.460938 24.980469 16.277344 24.898438 16.125 Z M 22.234375 18.882812 C 22.183594 18.960938 22.15625 19.050781 22.15625 19.144531 L 22.15625 20.816406 L 20.5625 22.410156 L 18.890625 22.410156 L 18.890625 17.277344 C 18.890625 17.019531 18.683594 16.8125 18.425781 16.8125 L 17.023438 16.8125 L 17.023438 14.011719 L 20.933594 14.011719 L 22.207031 16.554688 C 22.285156 16.710938 22.445312 16.8125 22.621094 16.8125 L 23.617188 16.8125 Z M 22.234375 18.882812 "/>
<path style=" stroke:none;fill-rule:nonzero;fill:rgb(0%,0%,0%);fill-opacity:1;" d="M 25.226562 12.148438 L 23.492188 9.117188 C 23.410156 8.972656 23.257812 8.882812 23.089844 8.882812 L 20.289062 8.882812 C 20.136719 8.882812 19.988281 8.960938 19.902344 9.089844 L 19.109375 10.28125 L 17.957031 10.28125 L 17.957031 7.949219 L 20.289062 7.949219 C 20.414062 7.949219 20.53125 7.898438 20.621094 7.8125 L 22.347656 6.082031 L 24.488281 6.082031 L 24.488281 5.152344 L 22.15625 5.152344 C 22.03125 5.152344 21.914062 5.199219 21.828125 5.285156 L 20.097656 7.015625 L 17.492188 7.015625 C 17.234375 7.015625 17.027344 7.226562 17.027344 7.484375 L 17.027344 10.746094 C 17.027344 11.003906 17.234375 11.214844 17.492188 11.214844 L 19.359375 11.214844 C 19.511719 11.214844 19.660156 11.136719 19.746094 11.007812 L 20.539062 9.816406 L 22.820312 9.816406 L 24.550781 12.84375 C 24.632812 12.988281 24.789062 13.078125 24.953125 13.078125 L 26.820312 13.078125 L 26.820312 12.148438 Z M 25.226562 12.148438 "/>
<path style=" stroke:none;fill-rule:nonzero;fill:rgb(0%,0%,0%);fill-opacity:1;" d="M 13.761719 16.8125 L 11.15625 16.8125 L 9.890625 15.546875 C 9.804688 15.460938 9.6875 15.410156 9.5625 15.410156 L 7.230469 15.410156 C 6.972656 15.410156 6.765625 15.621094 6.765625 15.878906 L 6.765625 19.144531 C 6.765625 19.402344 6.972656 19.609375 7.230469 19.609375 L 9.097656 19.609375 L 9.097656 24.273438 C 9.097656 24.449219 9.195312 24.613281 9.355469 24.691406 C 9.421875 24.722656 9.492188 24.742188 9.5625 24.742188 C 9.660156 24.742188 9.761719 24.710938 9.84375 24.648438 L 11.707031 23.246094 C 11.824219 23.160156 11.894531 23.019531 11.894531 22.875 L 11.894531 21.699219 L 14.050781 19.972656 C 14.164062 19.886719 14.226562 19.75 14.226562 19.609375 L 14.226562 17.277344 C 14.226562 17.019531 14.019531 16.8125 13.761719 16.8125 Z M 13.292969 19.386719 L 11.136719 21.109375 C 11.027344 21.199219 10.960938 21.332031 10.960938 21.476562 L 10.960938 22.640625 L 10.027344 23.339844 L 10.027344 19.144531 C 10.027344 18.886719 9.820312 18.675781 9.5625 18.675781 L 7.695312 18.675781 L 7.695312 16.34375 L 9.371094 16.34375 L 10.632812 17.609375 C 10.71875 17.695312 10.839844 17.746094 10.960938 17.746094 L 13.292969 17.746094 Z M 13.292969 19.386719 "/>
<path style=" stroke:none;fill-rule:nonzero;fill:rgb(0%,0%,0%);fill-opacity:1;" d="M 4.363281 10.039062 L 2.964844 7.707031 C 2.882812 7.570312 2.730469 7.484375 2.566406 7.484375 L 2.101562 7.484375 L 2.101562 8.414062 L 2.300781 8.414062 L 3.378906 10.207031 L 2.238281 11.351562 C 2.148438 11.4375 2.101562 11.558594 2.101562 11.679688 L 2.101562 13.078125 L 0.699219 13.078125 L 0.699219 14.011719 L 2.566406 14.011719 C 2.824219 14.011719 3.03125 13.804688 3.03125 13.546875 L 3.03125 11.875 L 4.296875 10.609375 C 4.445312 10.460938 4.476562 10.226562 4.363281 10.039062 Z M 4.363281 10.039062 "/>
<path style=" stroke:none;fill-rule:nonzero;fill:rgb(0%,0%,0%);fill-opacity:1;" d="M 14.695312 0.484375 L 14.695312 1.054688 L 13.179688 1.433594 C 13.128906 1.445312 13.078125 1.46875 13.035156 1.496094 L 11.863281 2.28125 L 9.304688 1.003906 L 8.886719 1.835938 L 11.6875 3.234375 C 11.753906 3.269531 11.824219 3.285156 11.894531 3.285156 C 11.984375 3.285156 12.074219 3.257812 12.152344 3.207031 L 13.484375 2.316406 L 15.273438 1.871094 C 15.480469 1.820312 15.625 1.632812 15.625 1.417969 L 15.625 0.484375 Z M 14.695312 0.484375 "/>
</g>
</svg>
