<?xml version="1.0" encoding="UTF-8"?>
<svg xmlns="http://www.w3.org/2000/svg" xmlns:xlink="http://www.w3.org/1999/xlink" width="28pt" height="28pt" viewBox="0 0 28 28" version="1.1">
<g id="surface1">
<path style=" stroke:none;fill-rule:nonzero;fill:rgb(0%,0%,0%);fill-opacity:1;" d="M 21.417969 24.75 L 14.445312 0.359375 C 14.390625 0.140625 14.195312 0 13.972656 0 C 13.75 0 13.554688 0.140625 13.5 0.359375 L 6.582031 24.75 C 6.527344 24.890625 6.582031 25.054688 6.667969 25.195312 C 6.75 25.332031 6.917969 25.390625 7.054688 25.390625 L 11.667969 25.390625 L 11.667969 27.5 C 11.667969 27.777344 11.890625 28 12.167969 28 L 15.832031 28 C 16.109375 28 16.332031 27.777344 16.332031 27.5 L 16.332031 25.390625 L 20.945312 25.390625 C 21.109375 25.390625 21.25 25.304688 21.332031 25.195312 C 21.417969 25.054688 21.472656 24.917969 21.417969 24.75 Z M 15.832031 24.390625 C 15.554688 24.390625 15.332031 24.609375 15.332031 24.890625 L 15.332031 27 L 12.667969 27 L 12.667969 24.890625 C 12.667969 24.609375 12.445312 24.390625 12.167969 24.390625 L 7.722656 24.390625 L 13.972656 2.332031 L 20.304688 24.390625 Z M 15.832031 24.390625 "/>
</g>
</svg>
