<?xml version="1.0" encoding="UTF-8"?>
<svg xmlns="http://www.w3.org/2000/svg" xmlns:xlink="http://www.w3.org/1999/xlink" width="28pt" height="28pt" viewBox="0 0 28 28" version="1.1">
<g id="surface1">
<path style=" stroke:none;fill-rule:nonzero;fill:rgb(0%,0%,0%);fill-opacity:1;" d="M 8.75 10.519531 C 8.648438 10.417969 8.507812 10.359375 8.363281 10.359375 C 8.21875 10.359375 8.078125 10.417969 7.976562 10.519531 C 7.875 10.625 7.816406 10.761719 7.816406 10.90625 C 7.816406 11.050781 7.875 11.191406 7.976562 11.292969 C 8.078125 11.394531 8.21875 11.453125 8.363281 11.453125 C 8.507812 11.453125 8.648438 11.394531 8.75 11.292969 C 8.851562 11.191406 8.910156 11.050781 8.910156 10.90625 C 8.910156 10.761719 8.851562 10.625 8.75 10.519531 Z M 8.75 10.519531 "/>
<path style=" stroke:none;fill-rule:nonzero;fill:rgb(0%,0%,0%);fill-opacity:1;" d="M 27.925781 20.835938 L 25.078125 15.921875 L 25.839844 15.921875 C 26.035156 15.921875 26.214844 15.816406 26.3125 15.648438 C 26.410156 15.476562 26.410156 15.269531 26.3125 15.101562 L 23.21875 9.757812 L 24.542969 9.757812 C 24.738281 9.757812 24.917969 9.652344 25.015625 9.484375 C 25.113281 9.316406 25.113281 9.105469 25.015625 8.9375 L 19.996094 0.273438 C 19.898438 0.105469 19.71875 0 19.523438 0 C 19.328125 0 19.148438 0.105469 19.050781 0.273438 L 14.03125 8.9375 C 13.933594 9.105469 13.933594 9.316406 14.03125 9.484375 C 14.128906 9.652344 14.308594 9.757812 14.503906 9.757812 L 15.832031 9.757812 L 12.738281 15.101562 C 12.636719 15.269531 12.636719 15.476562 12.734375 15.648438 C 12.832031 15.816406 13.015625 15.921875 13.210938 15.921875 L 13.96875 15.921875 L 11.453125 20.261719 L 10.753906 19.042969 L 11.066406 19.042969 C 11.261719 19.042969 11.441406 18.941406 11.539062 18.769531 C 11.636719 18.601562 11.636719 18.394531 11.539062 18.222656 L 9.375 14.476562 L 10.109375 14.476562 C 10.304688 14.476562 10.484375 14.375 10.582031 14.203125 C 10.679688 14.035156 10.679688 13.828125 10.582031 13.65625 L 9.714844 12.15625 C 9.566406 11.894531 9.230469 11.804688 8.96875 11.957031 C 8.707031 12.105469 8.617188 12.441406 8.769531 12.703125 L 9.164062 13.382812 L 8.445312 13.382812 C 8.441406 13.382812 8.433594 13.382812 8.429688 13.382812 L 4.375 13.382812 C 4.371094 13.382812 4.367188 13.382812 4.359375 13.382812 L 3.644531 13.382812 L 6.402344 8.605469 L 6.992188 9.625 C 7.144531 9.886719 7.476562 9.976562 7.738281 9.828125 C 8 9.675781 8.089844 9.339844 7.941406 9.078125 L 6.875 7.238281 C 6.777344 7.070312 6.597656 6.964844 6.402344 6.964844 C 6.207031 6.964844 6.027344 7.070312 5.929688 7.238281 L 2.222656 13.65625 C 2.125 13.828125 2.125 14.035156 2.222656 14.203125 C 2.320312 14.375 2.5 14.476562 2.695312 14.476562 L 3.429688 14.476562 L 1.265625 18.222656 C 1.167969 18.394531 1.167969 18.601562 1.265625 18.769531 C 1.363281 18.941406 1.542969 19.042969 1.738281 19.042969 L 2.054688 19.042969 L 0.0742188 22.472656 C -0.0234375 22.644531 -0.0234375 22.851562 0.0742188 23.019531 C 0.171875 23.191406 0.351562 23.292969 0.546875 23.292969 L 4.761719 23.292969 L 4.761719 27.453125 C 4.761719 27.753906 5.007812 28 5.308594 28 L 7.496094 28 C 7.796875 28 8.042969 27.753906 8.042969 27.453125 L 8.042969 23.292969 L 12.257812 23.292969 C 12.453125 23.292969 12.632812 23.191406 12.730469 23.019531 C 12.828125 22.851562 12.828125 22.644531 12.730469 22.472656 L 12.261719 21.65625 L 17.664062 21.65625 L 17.664062 27.453125 C 17.664062 27.753906 17.910156 28 18.210938 28 L 20.835938 28 C 21.136719 28 21.382812 27.753906 21.382812 27.453125 L 21.382812 21.65625 L 27.453125 21.65625 C 27.648438 21.65625 27.828125 21.550781 27.925781 21.382812 C 28.023438 21.214844 28.023438 21.003906 27.925781 20.835938 Z M 4.691406 14.476562 L 8.113281 14.476562 L 10.117188 17.949219 L 2.6875 17.949219 Z M 6.949219 26.90625 L 5.855469 26.90625 L 5.855469 23.292969 L 6.949219 23.292969 Z M 1.492188 22.199219 L 3.316406 19.042969 L 9.488281 19.042969 L 11.3125 22.199219 Z M 20.289062 26.90625 L 18.757812 26.90625 L 18.757812 21.65625 L 20.289062 21.65625 Z M 12.542969 20.5625 L 15.234375 15.921875 L 18.046875 15.921875 C 18.347656 15.921875 18.59375 15.675781 18.59375 15.375 C 18.59375 15.070312 18.347656 14.828125 18.046875 14.828125 L 14.160156 14.828125 L 17.253906 9.484375 C 17.351562 9.316406 17.351562 9.109375 17.253906 8.9375 C 17.15625 8.769531 16.976562 8.664062 16.78125 8.664062 L 15.453125 8.664062 L 19.523438 1.636719 L 23.59375 8.664062 L 22.269531 8.664062 C 22.261719 8.664062 22.257812 8.664062 22.25 8.664062 C 22.230469 8.664062 22.207031 8.660156 22.183594 8.660156 L 19.523438 8.660156 C 19.222656 8.660156 18.976562 8.90625 18.976562 9.207031 C 18.976562 9.511719 19.222656 9.753906 19.523438 9.753906 L 21.953125 9.753906 L 24.890625 14.828125 L 24.132812 14.828125 C 23.933594 14.828125 23.753906 14.929688 23.65625 15.101562 C 23.558594 15.269531 23.558594 15.480469 23.65625 15.648438 L 26.503906 20.5625 Z M 12.542969 20.5625 "/>
<path style=" stroke:none;fill-rule:nonzero;fill:rgb(0%,0%,0%);fill-opacity:1;" d="M 20.710938 14.988281 C 20.609375 14.886719 20.46875 14.828125 20.324219 14.828125 C 20.179688 14.828125 20.039062 14.886719 19.9375 14.988281 C 19.835938 15.089844 19.777344 15.230469 19.777344 15.375 C 19.777344 15.519531 19.835938 15.660156 19.9375 15.761719 C 20.039062 15.863281 20.179688 15.921875 20.324219 15.921875 C 20.46875 15.921875 20.609375 15.863281 20.710938 15.761719 C 20.8125 15.660156 20.871094 15.519531 20.871094 15.375 C 20.871094 15.230469 20.8125 15.089844 20.710938 14.988281 Z M 20.710938 14.988281 "/>
</g>
</svg>
