<?xml version="1.0" encoding="UTF-8" standalone="no"?>
<svg
   version="1.1"
   id="Warstwa_1"
   x="0px"
   y="0px"
   viewBox="0 0 70.999998 94.999997"
   xml:space="preserve"
   width="71"
   height="95"
   sodipodi:docname="uploadpdf_arrow.svg"
   inkscape:version="1.1 (c4e8f9e, 2021-05-24)"
   xmlns:inkscape="http://www.inkscape.org/namespaces/inkscape"
   xmlns:sodipodi="http://sodipodi.sourceforge.net/DTD/sodipodi-0.dtd"
   xmlns="http://www.w3.org/2000/svg"
   xmlns:svg="http://www.w3.org/2000/svg"
   xmlns:rdf="http://www.w3.org/1999/02/22-rdf-syntax-ns#"
   xmlns:cc="http://creativecommons.org/ns#"
   xmlns:dc="http://purl.org/dc/elements/1.1/"><metadata
   id="metadata173"><rdf:RDF><cc:Work
       rdf:about=""><dc:format>image/svg+xml</dc:format><dc:type
         rdf:resource="http://purl.org/dc/dcmitype/StillImage" /></cc:Work></rdf:RDF></metadata><defs
   id="defs171">   </defs><sodipodi:namedview
   pagecolor="#ffffff"
   bordercolor="#666666"
   borderopacity="1"
   objecttolerance="10"
   gridtolerance="10"
   guidetolerance="10"
   inkscape:pageopacity="0"
   inkscape:pageshadow="2"
   inkscape:window-width="1920"
   inkscape:window-height="1027"
   id="namedview169"
   showgrid="false"
   inkscape:zoom="1.3997036"
   inkscape:cx="-226.83374"
   inkscape:cy="56.79774"
   inkscape:window-x="0"
   inkscape:window-y="25"
   inkscape:window-maximized="0"
   inkscape:current-layer="Warstwa_1"
   inkscape:document-rotation="0"
   inkscape:pagecheckerboard="0"
   width="71px" /> <style
   type="text/css"
   id="style152"> .st0{fill:#ED695C;} .st1{fill:none;stroke:#ED695C;stroke-width:5;stroke-miterlimit:10;} .st2{fill:none;stroke:#ED695C;stroke-width:5;stroke-linecap:round;stroke-miterlimit:10;} .st3{fill:#ED695C;stroke:#ED6A5C;stroke-miterlimit:10;} .st4{fill:#ED695C;stroke:#ED6A5C;stroke-width:1.5;stroke-miterlimit:10;} .st5{fill:none;stroke:#ED695C;stroke-width:4;stroke-miterlimit:10;} .st6{fill:none;stroke:#ED695C;stroke-miterlimit:10;} .st7{fill:none;stroke:#ED695C;stroke-width:4;stroke-linecap:round;stroke-miterlimit:10;} .st8{fill:#ED695C;stroke:#ED6A5C;stroke-width:0.5;stroke-miterlimit:10;} .st9{fill:none;stroke:#ED695C;stroke-width:2;stroke-miterlimit:10;} .st10{fill:#ED6A5C;} .st11{fill:#ED695C;stroke:#ED6A5C;stroke-width:0.25;stroke-miterlimit:10;} .st12{fill-rule:evenodd;clip-rule:evenodd;fill:#ED695C;} .st13{fill:#F2F2F2;} </style>  <path
   style="fill:#ffffff;fill-opacity:1;stroke:#ed695c;stroke-width:6;stroke-linecap:square;stroke-miterlimit:4;stroke-dasharray:none;stroke-opacity:1;paint-order:stroke markers fill"
   d="m 36.722556,4.025726 c 0.26872,0.2163 3.32288,4.07487 6.78702,8.57453 3.46414,4.49968 10.35124,13.42022 15.30468,19.82343 5.36669,6.93742 9.00627,11.91436 9.00627,12.31566 0,0.37039 -0.27045,1.00774 -0.60095,1.4163 -0.59108,0.73066 -0.70599,0.74435 -7.00125,0.83416 -5.5111,0.0786 -6.45496,0.1635 -6.79364,0.6108 -0.30572,0.40377 -0.39336,5.30061 -0.39336,21.990903 v 21.47144 l -0.8291,0.65215 c -0.8138,0.64014 -1.12073,0.65217 -16.66231,0.65217 -16.201356,0 -17.075416,-0.0606 -17.654836,-1.22261 -0.13924,-0.27944 -0.3241,-10.27832 -0.4106,-22.21976 L 17.31714,47.213166 10.82002,47.055826 C 5.00327,46.915006 4.25363,46.835726 3.66144,46.299066 3.29209,45.964396 3,45.313896 3,44.826276 c 0,-0.91018 0.30237,-1.32077 14.00073,-19.01019 18.794106,-24.26981 17.081836,-22.1837 18.208276,-22.1837 0.56369,0 1.24483,0.17701 1.51354,0.39335 z"
   id="path4680-2-8"
   sodipodi:nodetypes="cssssssscsssscssssssc" /></svg>
