<?xml version="1.0" encoding="UTF-8"?>
<svg xmlns="http://www.w3.org/2000/svg" xmlns:xlink="http://www.w3.org/1999/xlink" width="28pt" height="28pt" viewBox="0 0 28 28" version="1.1">
<g id="surface1">
<path style=" stroke:none;fill-rule:nonzero;fill:rgb(0%,0%,0%);fill-opacity:1;" d="M 10.164062 17.777344 L 14.742188 17.777344 L 15.703125 11.96875 C 15.761719 11.617188 16.09375 11.382812 16.441406 11.441406 C 16.792969 11.496094 17.027344 11.828125 16.972656 12.179688 L 16.042969 17.777344 L 17.835938 17.777344 L 17.835938 9.3125 L 10.164062 9.3125 Z M 10.164062 17.777344 "/>
<path style=" stroke:none;fill-rule:nonzero;fill:rgb(0%,0%,0%);fill-opacity:1;" d="M 8.878906 0 L 2.023438 0 C 1.386719 0 0.867188 0.519531 0.867188 1.15625 L 0.867188 8.027344 L 2.539062 8.027344 L 1.453125 3.3125 C 1.375 2.964844 1.589844 2.621094 1.9375 2.542969 C 2.28125 2.460938 2.625 2.679688 2.707031 3.023438 L 3.859375 8.027344 L 8.878906 8.027344 Z M 8.878906 0 "/>
<path style=" stroke:none;fill-rule:nonzero;fill:rgb(0%,0%,0%);fill-opacity:1;" d="M 3.3125 17.777344 L 4.253906 17.777344 L 2.957031 12.746094 C 2.867188 12.402344 3.074219 12.054688 3.417969 11.964844 C 3.761719 11.875 4.113281 12.082031 4.199219 12.425781 L 5.582031 17.777344 L 8.878906 17.777344 L 8.878906 9.3125 L 0.867188 9.3125 L 0.867188 17.777344 L 2.015625 17.777344 L 0.984375 13.242188 C 0.90625 12.898438 1.121094 12.554688 1.46875 12.476562 C 1.8125 12.394531 2.15625 12.613281 2.234375 12.957031 Z M 3.3125 17.777344 "/>
<path style=" stroke:none;fill-rule:nonzero;fill:rgb(0%,0%,0%);fill-opacity:1;" d="M 2.023438 28 L 25.976562 28 C 26.613281 28 27.132812 27.480469 27.132812 26.84375 L 27.132812 19.0625 L 0.867188 19.0625 L 0.867188 26.84375 C 0.867188 27.480469 1.386719 28 2.023438 28 Z M 13.144531 21.386719 L 14.855469 21.386719 C 15.210938 21.386719 15.5 21.671875 15.5 22.027344 C 15.5 22.382812 15.210938 22.667969 14.855469 22.667969 L 13.144531 22.667969 C 12.789062 22.667969 12.5 22.382812 12.5 22.027344 C 12.5 21.671875 12.789062 21.386719 13.144531 21.386719 Z M 13.144531 21.386719 "/>
<path style=" stroke:none;fill-rule:nonzero;fill:rgb(0%,0%,0%);fill-opacity:1;" d="M 10.164062 0 L 17.835938 0 L 17.835938 8.027344 L 10.164062 8.027344 Z M 10.164062 0 "/>
<path style=" stroke:none;fill-rule:nonzero;fill:rgb(0%,0%,0%);fill-opacity:1;" d="M 20.484375 11.695312 C 20.835938 11.644531 21.160156 11.886719 21.210938 12.238281 L 22.007812 17.777344 L 27.132812 17.777344 L 27.132812 9.3125 L 19.121094 9.3125 L 19.121094 17.777344 L 20.710938 17.777344 L 19.941406 12.421875 C 19.890625 12.070312 20.132812 11.746094 20.484375 11.695312 Z M 20.484375 11.695312 "/>
<path style=" stroke:none;fill-rule:nonzero;fill:rgb(0%,0%,0%);fill-opacity:1;" d="M 25.976562 0 L 19.121094 0 L 19.121094 8.027344 L 24.242188 8.027344 L 24.734375 3.863281 C 24.773438 3.511719 25.09375 3.261719 25.445312 3.300781 C 25.796875 3.34375 26.050781 3.660156 26.007812 4.015625 L 25.535156 8.027344 L 27.132812 8.027344 L 27.132812 1.15625 C 27.132812 0.519531 26.613281 0 25.976562 0 Z M 25.976562 0 "/>
</g>
</svg>
