<?xml version="1.0" encoding="UTF-8"?>
<svg xmlns="http://www.w3.org/2000/svg" xmlns:xlink="http://www.w3.org/1999/xlink" width="28pt" height="28pt" viewBox="0 0 28 28" version="1.1">
<g id="surface1">
<path style=" stroke:none;fill-rule:nonzero;fill:rgb(0%,0%,0%);fill-opacity:1;" d="M 23.65625 9.621094 C 21.070312 8.921875 17.640625 8.539062 14 8.539062 C 12.457031 8.539062 10.949219 8.609375 9.53125 8.742188 L 9.53125 5.390625 C 9.527344 4.691406 9.171875 4.089844 8.554688 3.742188 C 7.84375 3.339844 6.910156 3.339844 6.226562 3.742188 C 6.019531 3.867188 5.84375 4.027344 5.703125 4.210938 C 5.621094 4.144531 5.535156 4.085938 5.441406 4.03125 C 4.730469 3.628906 3.792969 3.628906 3.113281 4.035156 C 2.53125 4.378906 2.203125 4.984375 2.214844 5.6875 L 2.210938 10.367188 C 0.757812 11.03125 0 11.828125 0 12.722656 L 0 20.378906 C 0 21.636719 1.503906 22.707031 4.34375 23.476562 C 6.929688 24.175781 10.359375 24.558594 14 24.558594 C 17.640625 24.558594 21.070312 24.175781 23.65625 23.476562 C 26.496094 22.707031 28 21.636719 28 20.378906 L 28 12.722656 C 28 11.460938 26.496094 10.390625 23.65625 9.621094 Z M 6.421875 5.386719 C 6.417969 5.0625 6.539062 4.832031 6.785156 4.683594 C 7.128906 4.480469 7.648438 4.484375 8.015625 4.691406 C 8.292969 4.847656 8.433594 5.085938 8.4375 5.394531 L 8.4375 6.136719 L 6.414062 6.375 L 6.414062 5.683594 C 6.414062 5.628906 6.414062 5.574219 6.40625 5.523438 C 6.417969 5.480469 6.425781 5.433594 6.421875 5.386719 Z M 8.4375 7.238281 L 8.4375 8.859375 C 7.734375 8.941406 7.058594 9.042969 6.414062 9.160156 L 6.414062 7.476562 Z M 3.308594 5.675781 C 3.304688 5.351562 3.421875 5.125 3.671875 4.976562 C 4.015625 4.769531 4.53125 4.773438 4.902344 4.984375 C 5.179688 5.140625 5.320312 5.378906 5.320312 5.6875 L 5.320312 9.382812 C 4.984375 9.457031 4.660156 9.539062 4.34375 9.621094 C 3.972656 9.722656 3.628906 9.828125 3.304688 9.9375 L 3.308594 5.6875 C 3.308594 5.683594 3.308594 5.679688 3.308594 5.675781 Z M 26.90625 20.378906 C 26.90625 20.878906 25.980469 21.714844 23.371094 22.421875 C 20.875 23.09375 17.546875 23.464844 14 23.464844 C 10.453125 23.464844 7.125 23.09375 4.628906 22.421875 C 2.019531 21.714844 1.09375 20.878906 1.09375 20.378906 L 1.09375 18.273438 C 1.824219 18.796875 2.914062 19.261719 4.34375 19.648438 C 6.929688 20.347656 10.359375 20.730469 14 20.730469 C 17.640625 20.730469 21.070312 20.347656 23.65625 19.648438 C 25.085938 19.261719 26.175781 18.796875 26.90625 18.273438 Z M 26.90625 16.550781 C 26.90625 17.050781 25.980469 17.886719 23.371094 18.59375 C 20.875 19.265625 17.546875 19.636719 14 19.636719 C 10.453125 19.636719 7.125 19.265625 4.628906 18.59375 C 2.019531 17.886719 1.09375 17.050781 1.09375 16.550781 L 1.09375 14.445312 C 1.824219 14.96875 2.914062 15.433594 4.34375 15.820312 C 6.929688 16.519531 10.359375 16.902344 14 16.902344 C 17.640625 16.902344 21.070312 16.519531 23.65625 15.820312 C 25.085938 15.433594 26.175781 14.96875 26.90625 14.445312 Z M 23.371094 14.765625 C 20.875 15.4375 17.546875 15.808594 14 15.808594 C 10.453125 15.808594 7.125 15.4375 4.628906 14.765625 C 2.019531 14.058594 1.09375 13.222656 1.09375 12.722656 C 1.09375 12.347656 1.609375 11.785156 2.960938 11.230469 C 2.964844 11.230469 2.972656 11.226562 2.976562 11.222656 C 3.429688 11.039062 3.976562 10.855469 4.628906 10.679688 C 4.855469 10.617188 5.085938 10.558594 5.320312 10.503906 L 5.320312 12.167969 C 5.320312 12.46875 5.566406 12.714844 5.867188 12.714844 C 6.171875 12.714844 6.414062 12.46875 6.414062 12.167969 L 6.414062 10.273438 C 7.054688 10.152344 7.734375 10.046875 8.4375 9.960938 L 8.4375 11.875 C 8.4375 12.179688 8.683594 12.421875 8.984375 12.421875 C 9.285156 12.421875 9.53125 12.179688 9.53125 11.875 L 9.53125 9.839844 C 10.945312 9.703125 12.453125 9.632812 14 9.632812 C 17.546875 9.632812 20.875 10.003906 23.371094 10.679688 C 25.980469 11.382812 26.90625 12.21875 26.90625 12.722656 C 26.90625 13.222656 25.980469 14.058594 23.371094 14.765625 Z M 23.371094 14.765625 "/>
<path style=" stroke:none;fill-rule:nonzero;fill:rgb(0%,0%,0%);fill-opacity:1;" d="M 20.929688 11.015625 C 18.738281 10.511719 16.285156 10.472656 15.523438 10.5 C 15.222656 10.511719 14.984375 10.761719 14.996094 11.066406 C 15.007812 11.367188 15.257812 11.601562 15.5625 11.59375 C 16.28125 11.566406 18.605469 11.605469 20.6875 12.082031 C 20.726562 12.09375 20.769531 12.097656 20.808594 12.097656 C 21.058594 12.097656 21.285156 11.925781 21.34375 11.671875 C 21.410156 11.378906 21.226562 11.085938 20.929688 11.015625 Z M 20.929688 11.015625 "/>
<path style=" stroke:none;fill-rule:nonzero;fill:rgb(0%,0%,0%);fill-opacity:1;" d="M 22.695312 11.539062 L 22.679688 11.53125 C 22.402344 11.414062 22.082031 11.546875 21.964844 11.828125 C 21.851562 12.105469 21.984375 12.425781 22.261719 12.542969 L 22.277344 12.546875 C 22.347656 12.578125 22.417969 12.589844 22.488281 12.589844 C 22.703125 12.589844 22.90625 12.460938 22.992188 12.253906 C 23.109375 11.972656 22.976562 11.652344 22.695312 11.539062 Z M 22.695312 11.539062 "/>
</g>
</svg>
