<?xml version="1.0" encoding="UTF-8"?>
<svg xmlns="http://www.w3.org/2000/svg" xmlns:xlink="http://www.w3.org/1999/xlink" width="28pt" height="28pt" viewBox="0 0 28 28" version="1.1">
<g id="surface1">
<path style=" stroke:none;fill-rule:nonzero;fill:rgb(0%,0%,0%);fill-opacity:1;" d="M 1.640625 0 L 1.640625 28 L 26.359375 28 L 26.359375 0 Z M 24.71875 1.640625 L 24.71875 3.28125 L 3.28125 3.28125 L 3.28125 1.640625 Z M 6.5625 18.046875 L 21.4375 18.046875 L 21.4375 23.078125 L 6.5625 23.078125 Z M 3.28125 16.40625 L 3.28125 14.765625 L 24.71875 14.765625 L 24.71875 16.40625 Z M 3.28125 13.125 L 3.28125 11.484375 L 24.71875 11.484375 L 24.71875 13.125 Z M 3.28125 9.84375 L 3.28125 8.203125 L 24.71875 8.203125 L 24.71875 9.84375 Z M 3.28125 6.5625 L 3.28125 4.921875 L 24.71875 4.921875 L 24.71875 6.5625 Z M 3.28125 26.359375 L 3.28125 18.046875 L 4.921875 18.046875 L 4.921875 24.71875 L 23.078125 24.71875 L 23.078125 18.046875 L 24.71875 18.046875 L 24.71875 26.359375 Z M 3.28125 26.359375 "/>
</g>
</svg>
