<?xml version="1.0" encoding="UTF-8"?>
<svg xmlns="http://www.w3.org/2000/svg" xmlns:xlink="http://www.w3.org/1999/xlink" width="28pt" height="28pt" viewBox="0 0 28 28" version="1.1">
<g id="surface1">
<path style=" stroke:none;fill-rule:nonzero;fill:rgb(0%,0%,0%);fill-opacity:1;" d="M 26.570312 23.757812 L 25.003906 23.757812 L 25.003906 9.878906 C 25.917969 9.464844 26.554688 8.546875 26.554688 7.476562 L 26.554688 0.699219 C 26.554688 0.3125 26.242188 0 25.855469 0 L 2.164062 0 C 1.78125 0 1.46875 0.3125 1.46875 0.699219 L 1.46875 7.476562 C 1.46875 8.546875 2.105469 9.464844 3.019531 9.878906 L 3.019531 23.757812 L 1.453125 23.757812 C 1.066406 23.757812 0.753906 24.070312 0.753906 24.457031 L 0.753906 27.324219 C 0.753906 27.710938 1.066406 28.023438 1.453125 28.023438 L 26.570312 28.023438 C 26.953125 28.023438 27.265625 27.710938 27.265625 27.324219 L 27.265625 24.457031 C 27.265625 24.070312 26.953125 23.757812 26.570312 23.757812 Z M 22.671875 1.394531 L 25.160156 1.394531 L 25.160156 7.476562 C 25.160156 8.164062 24.601562 8.722656 23.917969 8.722656 C 23.230469 8.722656 22.671875 8.164062 22.671875 7.476562 Z M 18.710938 1.394531 L 21.195312 1.394531 L 21.195312 7.476562 C 21.195312 8.164062 20.640625 8.722656 19.953125 8.722656 C 19.269531 8.722656 18.710938 8.164062 18.710938 7.476562 Z M 14.75 1.394531 L 17.234375 1.394531 L 17.234375 7.476562 C 17.234375 8.164062 16.675781 8.722656 15.992188 8.722656 C 15.308594 8.722656 14.75 8.164062 14.75 7.476562 Z M 10.789062 1.394531 L 13.273438 1.394531 L 13.273438 7.476562 C 13.273438 8.164062 12.714844 8.722656 12.03125 8.722656 C 11.34375 8.722656 10.789062 8.164062 10.789062 7.476562 Z M 6.824219 1.394531 L 9.3125 1.394531 L 9.3125 7.476562 C 9.3125 8.164062 8.753906 8.722656 8.066406 8.722656 C 7.382812 8.722656 6.824219 8.164062 6.824219 7.476562 Z M 2.863281 1.394531 L 5.347656 1.394531 L 5.347656 7.476562 C 5.347656 8.164062 4.792969 8.722656 4.105469 8.722656 C 3.421875 8.722656 2.863281 8.164062 2.863281 7.476562 Z M 4.414062 10.097656 C 5.078125 10.019531 5.667969 9.695312 6.085938 9.21875 C 6.570312 9.769531 7.277344 10.117188 8.066406 10.117188 C 8.855469 10.117188 9.566406 9.769531 10.050781 9.21875 C 10.53125 9.769531 11.242188 10.117188 12.03125 10.117188 C 12.820312 10.117188 13.527344 9.769531 14.011719 9.21875 C 14.496094 9.769531 15.203125 10.117188 15.992188 10.117188 C 16.78125 10.117188 17.488281 9.769531 17.972656 9.21875 C 18.457031 9.769531 19.164062 10.117188 19.953125 10.117188 C 20.742188 10.117188 21.453125 9.769531 21.933594 9.21875 C 22.355469 9.695312 22.945312 10.019531 23.609375 10.097656 L 23.609375 23.757812 L 4.414062 23.757812 Z M 25.871094 26.628906 L 2.152344 26.628906 L 2.152344 25.152344 L 25.871094 25.152344 Z M 25.871094 26.628906 "/>
<path style=" stroke:none;fill-rule:nonzero;fill:rgb(0%,0%,0%);fill-opacity:1;" d="M 21.589844 12.140625 L 6.433594 12.140625 C 6.046875 12.140625 5.734375 12.453125 5.734375 12.835938 L 5.734375 19.699219 C 5.734375 20.082031 6.046875 20.394531 6.433594 20.394531 L 21.589844 20.394531 C 21.976562 20.394531 22.289062 20.082031 22.289062 19.699219 L 22.289062 12.835938 C 22.289062 12.453125 21.976562 12.140625 21.589844 12.140625 Z M 7.128906 13.535156 L 9.390625 13.535156 L 9.390625 19 L 7.128906 19 Z M 20.894531 19 L 10.789062 19 L 10.789062 13.535156 L 20.894531 13.535156 Z M 20.894531 19 "/>
</g>
</svg>
