<?xml version="1.0" encoding="UTF-8"?>
<svg xmlns="http://www.w3.org/2000/svg" xmlns:xlink="http://www.w3.org/1999/xlink" width="28pt" height="28pt" viewBox="0 0 28 28" version="1.1">
<g id="surface1">
<path style=" stroke:none;fill-rule:nonzero;fill:rgb(0%,0%,0%);fill-opacity:1;" d="M 0.210938 0 L 0.210938 1.925781 L 1.191406 1.925781 L 1.191406 28 L 8.035156 28 L 8.035156 27.039062 C 8.035156 26.769531 8.03125 26.503906 8.027344 26.25 L 19.972656 26.25 C 19.96875 26.503906 19.964844 26.769531 19.964844 27.039062 L 19.964844 28 L 26.808594 28 L 26.808594 1.925781 L 27.789062 1.925781 L 27.789062 0 Z M 16.078125 1.925781 C 16.0625 4.664062 16.09375 8.761719 18.933594 13.640625 L 14.960938 13.640625 L 14.960938 1.925781 Z M 3.117188 26.074219 L 3.117188 1.925781 L 10 1.925781 C 10.015625 5.421875 9.96875 10.648438 4.160156 17.035156 L 3.457031 17.808594 L 4.285156 18.445312 C 4.304688 18.460938 5.941406 19.996094 6.097656 26.074219 Z M 13.039062 24.324219 L 7.933594 24.324219 C 7.640625 20.609375 6.769531 18.660156 6.136719 17.707031 C 6.765625 16.980469 7.324219 16.265625 7.824219 15.566406 L 13.039062 15.566406 Z M 13.039062 13.640625 L 9.066406 13.640625 C 11.90625 8.761719 11.9375 4.664062 11.921875 1.925781 L 13.039062 1.925781 Z M 20.066406 24.324219 L 14.960938 24.324219 L 14.960938 15.566406 L 20.175781 15.566406 C 20.675781 16.265625 21.234375 16.980469 21.863281 17.707031 C 21.230469 18.660156 20.359375 20.609375 20.066406 24.324219 Z M 24.886719 26.074219 L 21.902344 26.074219 C 21.953125 24.203125 22.167969 21.898438 22.824219 20.09375 C 23.238281 18.960938 23.648438 18.515625 23.726562 18.4375 L 24.59375 17.867188 L 23.839844 17.035156 C 18.03125 10.648438 17.984375 5.421875 18 1.925781 L 24.882812 1.925781 L 24.882812 26.074219 Z M 24.886719 26.074219 "/>
</g>
</svg>
