<?xml version="1.0" encoding="UTF-8"?>
<svg xmlns="http://www.w3.org/2000/svg" xmlns:xlink="http://www.w3.org/1999/xlink" width="28pt" height="28pt" viewBox="0 0 28 28" version="1.1">
<g id="surface1">
<path style=" stroke:none;fill-rule:nonzero;fill:rgb(0%,0%,0%);fill-opacity:1;" d="M 20.585938 24.242188 C 20.585938 24.445312 20.585938 24.652344 20.519531 24.789062 C 20.519531 24.992188 20.449219 25.0625 20.382812 25.199219 C 20.316406 25.265625 20.246094 25.335938 20.179688 25.402344 C 20.109375 25.402344 20.042969 25.472656 19.972656 25.472656 L 8.035156 25.472656 C 7.96875 25.472656 7.898438 25.402344 7.832031 25.402344 C 7.761719 25.335938 7.695312 25.265625 7.625 25.199219 C 7.558594 25.0625 7.488281 24.992188 7.421875 24.789062 L 7.421875 23.695312 C 7.488281 23.558594 7.558594 23.421875 7.558594 23.355469 C 7.625 23.21875 7.695312 23.148438 7.761719 23.082031 C 7.832031 23.082031 7.96875 23.015625 8.035156 23.015625 L 12.8125 23.015625 L 12.8125 5.679688 L 8.375 8.273438 C 8.171875 8.410156 7.96875 8.476562 7.832031 8.476562 C 7.695312 8.546875 7.558594 8.476562 7.488281 8.410156 C 7.421875 8.339844 7.355469 8.203125 7.355469 8.066406 C 7.285156 7.863281 7.285156 7.65625 7.285156 7.382812 L 7.285156 6.839844 C 7.355469 6.703125 7.355469 6.632812 7.421875 6.496094 C 7.421875 6.429688 7.488281 6.359375 7.558594 6.292969 C 7.625 6.222656 7.695312 6.15625 7.832031 6.019531 L 13.082031 2.675781 C 13.082031 2.675781 13.152344 2.605469 13.21875 2.605469 C 13.289062 2.605469 13.425781 2.539062 13.492188 2.539062 C 13.628906 2.539062 13.699219 2.472656 13.902344 2.472656 L 14.378906 2.472656 C 14.652344 2.472656 14.925781 2.472656 15.128906 2.539062 C 15.265625 2.539062 15.472656 2.539062 15.539062 2.605469 C 15.675781 2.675781 15.746094 2.675781 15.746094 2.742188 C 15.8125 2.8125 15.8125 2.878906 15.8125 2.949219 L 15.8125 23.015625 L 19.90625 23.015625 C 20.042969 23.015625 20.109375 23.082031 20.179688 23.082031 C 20.316406 23.148438 20.382812 23.21875 20.382812 23.355469 C 20.449219 23.421875 20.519531 23.558594 20.519531 23.695312 C 20.585938 23.832031 20.585938 24.039062 20.585938 24.242188 Z M 20.585938 24.242188 "/>
</g>
</svg>
