<?xml version="1.0" encoding="UTF-8" standalone="no"?>
<!DOCTYPE svg PUBLIC "-//W3C//DTD SVG 1.1//EN" "http://www.w3.org/Graphics/SVG/1.1/DTD/svg11.dtd">
<svg width="100%" height="100%" viewBox="0 0 28 28" version="1.1" xmlns="http://www.w3.org/2000/svg" xmlns:xlink="http://www.w3.org/1999/xlink" xml:space="preserve" xmlns:serif="http://www.serif.com/" style="fill-rule:evenodd;clip-rule:evenodd;stroke-linejoin:round;stroke-miterlimit:2;">
    <g transform="matrix(0.0678132,0,0,0.0678466,-13.9721,-14.0838)">
        <g id="CorelEMF">
            <g id="CorelEMF1" serif:id="CorelEMF">
                <path d="M518,564C518,567 518,569 517,572C517,574 516,576 515,578C515,580 514,581 512,582C511,582 510,583 508,583L323,583C321,583 319,582 317,582C315,581 313,580 312,579C311,578 310,575 309,573C309,570 308,567 308,563C308,560 309,557 309,554C309,552 310,550 310,548C311,546 312,544 314,542C315,540 317,538 319,535L386,467C401,451 414,436 423,424C432,411 440,400 445,389C450,379 453,370 455,361C456,353 457,345 457,338C457,330 456,323 453,316C451,310 447,304 442,299C438,294 432,290 425,287C418,284 409,283 400,283C389,283 380,284 371,287C362,290 355,293 348,297C342,300 336,303 332,306C328,309 325,311 322,311C321,311 320,310 319,310C318,309 317,308 317,306C316,305 316,303 315,300L315,284C315,282 315,281 316,279C316,278 317,276 318,275C318,274 320,273 322,271C324,269 327,267 332,263C337,260 344,257 352,254C359,251 368,249 377,247C386,245 396,244 406,244C422,244 436,246 448,250C461,255 471,261 479,269C487,277 493,286 497,297C501,307 503,318 503,330C503,341 502,352 500,362C498,373 494,384 488,397C482,409 473,423 461,438C450,453 434,470 415,490L362,545L508,545C509,545 510,545 512,546C513,547 514,548 515,550C516,551 517,553 517,556C518,558 518,561 518,564Z" style="fill-rule:nonzero;"/>
            </g>
        </g>
    </g>
</svg>
