<?xml version="1.0" encoding="UTF-8" standalone="no"?>
<!DOCTYPE svg PUBLIC "-//W3C//DTD SVG 1.1//EN" "http://www.w3.org/Graphics/SVG/1.1/DTD/svg11.dtd">
<svg width="100%" height="100%" viewBox="0 0 28 28" version="1.1" xmlns="http://www.w3.org/2000/svg" xmlns:xlink="http://www.w3.org/1999/xlink" xml:space="preserve" xmlns:serif="http://www.serif.com/" style="fill-rule:evenodd;clip-rule:evenodd;stroke-linejoin:round;stroke-miterlimit:2;">
    <g transform="matrix(0.0668276,0,0,0.0668605,-13.565,-13.6753)">
        <g id="CorelEMF">
            <g id="CorelEMF1" serif:id="CorelEMF">
                <path d="M518,485C518,500 515,514 510,526C505,538 497,549 487,558C477,566 465,573 450,578C435,583 419,585 400,585C389,585 379,584 369,582C359,581 351,578 343,576C335,573 329,571 324,568C319,566 316,564 315,563C313,561 312,560 312,559C311,558 310,556 310,554C309,553 309,551 309,548C308,546 308,543 308,539C308,533 309,529 310,526C311,524 313,523 315,523C317,523 320,524 325,527C330,530 336,532 343,536C350,539 359,542 369,544C378,547 389,549 401,549C413,549 423,547 432,544C441,541 448,537 454,532C460,526 465,520 468,513C471,505 472,497 472,489C472,479 470,471 467,463C463,456 457,449 450,443C442,438 433,434 423,431C412,428 400,426 386,426L353,426C352,426 350,426 349,425C348,425 347,424 346,422C345,421 344,419 343,417C343,415 342,412 342,408C342,405 342,402 343,400C344,398 344,396 345,395C346,394 347,393 348,392C350,392 351,391 353,391L382,391C393,391 403,390 412,387C421,384 429,380 435,374C442,369 447,362 450,355C453,347 455,338 455,329C455,322 454,315 452,309C449,303 446,297 441,293C437,288 431,284 424,282C417,279 409,278 400,278C390,278 381,279 373,282C364,285 357,288 350,292C344,295 338,299 334,302C330,305 327,306 325,306L322,306C321,305 320,304 320,303C319,302 318,300 318,298L318,282C318,280 319,278 319,276C320,275 320,274 321,272C322,271 323,270 324,268C326,267 329,264 334,261C339,258 346,255 353,252C360,249 369,246 378,244C388,242 398,241 409,241C425,241 438,243 450,247C462,251 471,257 479,264C487,271 493,280 497,290C501,300 503,311 503,323C503,334 501,343 498,353C496,362 492,370 486,377C481,383 474,389 467,394C459,399 450,403 440,404L440,405C451,406 462,409 471,414C481,418 489,424 496,431C503,438 508,446 512,455C516,464 518,474 518,485Z" style="fill-rule:nonzero;"/>
            </g>
        </g>
    </g>
</svg>
