<?xml version="1.0" encoding="UTF-8"?>
<svg xmlns="http://www.w3.org/2000/svg" xmlns:xlink="http://www.w3.org/1999/xlink" width="28pt" height="28pt" viewBox="0 0 28 28" version="1.1">
<g id="surface1">
<path style=" stroke:none;fill-rule:nonzero;fill:rgb(0%,0%,0%);fill-opacity:1;" d="M 21.050781 18.753906 C 21.050781 19.753906 20.851562 20.691406 20.515625 21.492188 C 20.183594 22.296875 19.648438 23.03125 18.980469 23.632812 C 18.3125 24.167969 17.511719 24.636719 16.507812 24.96875 C 15.503906 25.304688 14.4375 25.4375 13.167969 25.4375 C 12.429688 25.4375 11.761719 25.371094 11.09375 25.238281 C 10.425781 25.171875 9.890625 24.96875 9.355469 24.835938 C 8.820312 24.636719 8.421875 24.503906 8.085938 24.300781 C 7.753906 24.167969 7.550781 24.035156 7.484375 23.96875 C 7.351562 23.832031 7.285156 23.765625 7.285156 23.699219 C 7.21875 23.632812 7.152344 23.5 7.152344 23.367188 C 7.085938 23.296875 7.085938 23.164062 7.085938 22.964844 C 7.019531 22.832031 7.019531 22.628906 7.019531 22.363281 C 7.019531 21.960938 7.085938 21.695312 7.152344 21.492188 C 7.21875 21.359375 7.351562 21.292969 7.484375 21.292969 C 7.621094 21.292969 7.820312 21.359375 8.152344 21.558594 C 8.488281 21.761719 8.890625 21.894531 9.355469 22.160156 C 9.824219 22.363281 10.425781 22.5625 11.09375 22.695312 C 11.695312 22.898438 12.429688 23.03125 13.234375 23.03125 C 14.035156 23.03125 14.703125 22.898438 15.304688 22.695312 C 15.90625 22.496094 16.375 22.230469 16.773438 21.894531 C 17.175781 21.492188 17.511719 21.09375 17.710938 20.625 C 17.910156 20.089844 17.976562 19.554688 17.976562 19.019531 C 17.976562 18.351562 17.84375 17.816406 17.644531 17.28125 C 17.375 16.8125 16.976562 16.34375 16.507812 15.945312 C 15.972656 15.609375 15.371094 15.34375 14.703125 15.140625 C 13.96875 14.941406 13.167969 14.808594 12.230469 14.808594 L 10.023438 14.808594 C 9.957031 14.808594 9.824219 14.808594 9.757812 14.742188 C 9.691406 14.742188 9.625 14.671875 9.558594 14.539062 C 9.492188 14.472656 9.421875 14.339844 9.355469 14.207031 C 9.355469 14.070312 9.289062 13.871094 9.289062 13.605469 C 9.289062 13.402344 9.289062 13.203125 9.355469 13.070312 C 9.421875 12.933594 9.421875 12.800781 9.492188 12.734375 C 9.558594 12.667969 9.625 12.601562 9.691406 12.535156 C 9.824219 12.535156 9.890625 12.46875 10.023438 12.46875 L 11.964844 12.46875 C 12.699219 12.46875 13.367188 12.398438 13.96875 12.199219 C 14.570312 12 15.105469 11.730469 15.503906 11.332031 C 15.972656 10.996094 16.308594 10.527344 16.507812 10.058594 C 16.707031 9.523438 16.839844 8.921875 16.839844 8.320312 C 16.839844 7.855469 16.773438 7.386719 16.640625 6.984375 C 16.441406 6.582031 16.238281 6.183594 15.90625 5.914062 C 15.636719 5.582031 15.238281 5.3125 14.769531 5.179688 C 14.300781 4.980469 13.765625 4.910156 13.167969 4.910156 C 12.496094 4.910156 11.894531 4.980469 11.363281 5.179688 C 10.761719 5.378906 10.292969 5.582031 9.824219 5.847656 C 9.421875 6.046875 9.023438 6.316406 8.753906 6.515625 C 8.488281 6.71875 8.289062 6.785156 8.152344 6.785156 L 7.953125 6.785156 C 7.886719 6.71875 7.820312 6.648438 7.820312 6.582031 C 7.753906 6.515625 7.6875 6.382812 7.6875 6.25 L 7.6875 5.179688 C 7.6875 5.046875 7.753906 4.910156 7.753906 4.777344 C 7.820312 4.710938 7.820312 4.644531 7.886719 4.511719 C 7.953125 4.445312 8.019531 4.378906 8.085938 4.242188 C 8.222656 4.175781 8.421875 3.976562 8.753906 3.773438 C 9.089844 3.574219 9.558594 3.375 10.023438 3.171875 C 10.492188 2.972656 11.09375 2.773438 11.695312 2.636719 C 12.363281 2.503906 13.03125 2.4375 13.765625 2.4375 C 14.835938 2.4375 15.707031 2.570312 16.507812 2.839844 C 17.308594 3.105469 17.910156 3.507812 18.445312 3.976562 C 18.980469 4.445312 19.382812 5.046875 19.648438 5.714844 C 19.914062 6.382812 20.050781 7.117188 20.050781 7.921875 C 20.050781 8.65625 19.914062 9.257812 19.714844 9.925781 C 19.582031 10.527344 19.3125 11.0625 18.914062 11.53125 C 18.578125 11.933594 18.109375 12.332031 17.644531 12.667969 C 17.109375 13.003906 16.507812 13.269531 15.839844 13.335938 L 15.839844 13.402344 C 16.574219 13.46875 17.308594 13.671875 17.910156 14.003906 C 18.578125 14.273438 19.113281 14.671875 19.582031 15.140625 C 20.050781 15.609375 20.382812 16.144531 20.652344 16.746094 C 20.917969 17.347656 21.050781 18.015625 21.050781 18.753906 Z M 21.050781 18.753906 "/>
</g>
</svg>
