<?xml version="1.0" encoding="UTF-8"?>
<svg xmlns="http://www.w3.org/2000/svg" xmlns:xlink="http://www.w3.org/1999/xlink" width="28pt" height="28pt" viewBox="0 0 28 28" version="1.1">
<g id="surface1">
<path style=" stroke:none;fill-rule:nonzero;fill:rgb(0%,0%,0%);fill-opacity:1;" d="M 22.117188 18.917969 C 22.117188 19.324219 22.117188 19.597656 21.980469 19.871094 C 21.84375 20.074219 21.707031 20.210938 21.503906 20.210938 L 18.921875 20.210938 L 18.921875 24.972656 C 18.921875 25.042969 18.921875 25.109375 18.851562 25.175781 C 18.785156 25.246094 18.714844 25.3125 18.578125 25.382812 C 18.445312 25.382812 18.308594 25.449219 18.105469 25.449219 C 17.898438 25.519531 17.695312 25.519531 17.355469 25.519531 C 17.082031 25.519531 16.8125 25.519531 16.675781 25.449219 C 16.472656 25.449219 16.335938 25.382812 16.199219 25.382812 C 16.0625 25.3125 15.996094 25.246094 15.925781 25.175781 C 15.925781 25.109375 15.859375 25.042969 15.859375 24.972656 L 15.859375 20.210938 L 6.609375 20.210938 C 6.40625 20.210938 6.335938 20.140625 6.203125 20.140625 C 6.132812 20.074219 6.066406 20.007812 5.996094 19.9375 C 5.929688 19.871094 5.863281 19.734375 5.792969 19.53125 L 5.792969 18.238281 C 5.792969 18.101562 5.863281 17.894531 5.863281 17.761719 C 5.929688 17.625 5.929688 17.488281 5.996094 17.351562 C 6.066406 17.214844 6.132812 17.078125 6.203125 16.945312 L 14.296875 3.0625 C 14.363281 2.992188 14.5 2.925781 14.566406 2.859375 C 14.703125 2.789062 14.839844 2.722656 15.042969 2.652344 C 15.179688 2.585938 15.453125 2.585938 15.65625 2.585938 C 15.925781 2.519531 16.265625 2.519531 16.609375 2.519531 C 17.015625 2.519531 17.355469 2.519531 17.628906 2.585938 C 17.96875 2.585938 18.171875 2.652344 18.375 2.722656 C 18.511719 2.722656 18.648438 2.789062 18.785156 2.859375 C 18.851562 2.925781 18.921875 3.0625 18.921875 3.128906 L 18.921875 17.691406 L 21.503906 17.691406 C 21.707031 17.691406 21.84375 17.828125 21.980469 18.03125 C 22.117188 18.238281 22.117188 18.507812 22.117188 18.917969 Z M 15.859375 5.171875 L 8.515625 17.691406 L 15.859375 17.691406 Z M 15.859375 5.171875 "/>
</g>
</svg>
