<?xml version="1.0" encoding="UTF-8"?>
<svg xmlns="http://www.w3.org/2000/svg" xmlns:xlink="http://www.w3.org/1999/xlink" width="28pt" height="28pt" viewBox="0 0 28 28" version="1.1">
<g id="surface1">
<path style=" stroke:none;fill-rule:nonzero;fill:rgb(0%,0%,0%);fill-opacity:1;" d="M 21.109375 17.816406 C 21.109375 19.039062 20.90625 20.121094 20.5 21.074219 C 20.09375 22.023438 19.480469 22.835938 18.734375 23.449219 C 17.988281 24.125 17.109375 24.601562 16.089844 24.941406 C 15.007812 25.277344 13.851562 25.484375 12.632812 25.484375 C 11.886719 25.484375 11.277344 25.414062 10.597656 25.347656 C 9.988281 25.210938 9.445312 25.074219 8.972656 24.941406 C 8.429688 24.804688 8.019531 24.667969 7.75 24.53125 C 7.410156 24.398438 7.207031 24.261719 7.140625 24.195312 C 7.070312 24.125 7.003906 24.058594 6.9375 23.988281 C 6.9375 23.921875 6.867188 23.785156 6.867188 23.71875 C 6.800781 23.582031 6.800781 23.515625 6.800781 23.3125 L 6.800781 22.226562 C 6.800781 22.089844 6.867188 21.953125 6.867188 21.886719 C 6.9375 21.75 7.003906 21.683594 7.070312 21.683594 C 7.140625 21.617188 7.207031 21.617188 7.277344 21.617188 C 7.410156 21.617188 7.546875 21.683594 7.816406 21.820312 C 8.089844 21.953125 8.429688 22.089844 8.835938 22.292969 C 9.242188 22.429688 9.714844 22.632812 10.328125 22.769531 C 10.9375 22.90625 11.683594 22.972656 12.566406 22.972656 C 13.3125 22.972656 14.058594 22.90625 14.667969 22.699219 C 15.34375 22.496094 15.886719 22.226562 16.363281 21.820312 C 16.835938 21.410156 17.242188 20.9375 17.515625 20.328125 C 17.785156 19.714844 17.921875 18.96875 17.921875 18.15625 C 17.921875 17.410156 17.785156 16.730469 17.582031 16.1875 C 17.3125 15.644531 16.972656 15.171875 16.5 14.832031 C 16.023438 14.421875 15.414062 14.152344 14.667969 14.015625 C 13.988281 13.8125 13.105469 13.746094 12.089844 13.746094 C 11.410156 13.746094 10.800781 13.746094 10.257812 13.8125 C 9.785156 13.882812 9.242188 13.949219 8.835938 13.949219 C 8.496094 13.949219 8.292969 13.882812 8.15625 13.675781 C 8.019531 13.542969 7.886719 13.269531 7.886719 12.863281 L 7.886719 3.566406 C 7.886719 3.230469 8.019531 2.890625 8.15625 2.753906 C 8.359375 2.550781 8.632812 2.484375 8.972656 2.484375 L 19.007812 2.484375 C 19.144531 2.484375 19.210938 2.484375 19.277344 2.550781 C 19.414062 2.550781 19.480469 2.6875 19.480469 2.753906 C 19.550781 2.890625 19.617188 3.027344 19.617188 3.160156 C 19.683594 3.296875 19.683594 3.5 19.683594 3.773438 C 19.683594 4.179688 19.617188 4.519531 19.550781 4.722656 C 19.414062 4.925781 19.277344 5.0625 19.074219 5.0625 L 10.9375 5.0625 L 10.9375 11.4375 C 11.34375 11.371094 11.75 11.371094 12.15625 11.304688 L 13.582031 11.304688 C 14.800781 11.304688 15.886719 11.507812 16.835938 11.777344 C 17.785156 12.117188 18.53125 12.523438 19.210938 13.066406 C 19.820312 13.675781 20.296875 14.355469 20.632812 15.171875 C 20.90625 15.984375 21.109375 16.867188 21.109375 17.816406 Z M 21.109375 17.816406 "/>
</g>
</svg>
