<?xml version="1.0" encoding="UTF-8" standalone="no"?>
<!DOCTYPE svg PUBLIC "-//W3C//DTD SVG 1.1//EN" "http://www.w3.org/Graphics/SVG/1.1/DTD/svg11.dtd">
<svg width="100%" height="100%" viewBox="0 0 28 28" version="1.1" xmlns="http://www.w3.org/2000/svg" xmlns:xlink="http://www.w3.org/1999/xlink" xml:space="preserve" xmlns:serif="http://www.serif.com/" style="fill-rule:evenodd;clip-rule:evenodd;stroke-linejoin:round;stroke-miterlimit:2;">
    <g transform="matrix(0.0668276,0,0,0.0668605,-13.6447,-13.6306)">
        <g id="CorelEMF">
            <g id="CorelEMF1" serif:id="CorelEMF">
                <path d="M523,472C523,487 521,501 516,514C512,528 505,540 495,551C486,561 474,569 460,576C446,582 429,585 409,585C396,585 383,583 373,580C362,576 353,572 345,565C337,559 330,551 325,542C320,532 315,522 312,510C309,498 307,485 305,471C304,457 303,442 303,425C303,411 304,397 306,382C307,367 310,353 314,340C318,326 323,313 330,301C337,289 345,279 356,270C366,261 378,254 392,249C407,244 423,241 442,241C449,241 455,241 462,242C468,243 474,244 480,245C485,247 490,248 494,250C498,251 500,253 501,253C503,254 503,255 504,257C505,258 505,259 505,260C506,261 506,263 506,265C506,266 507,268 507,271C507,274 507,276 506,279C506,281 506,283 505,284C505,285 504,286 503,287C502,288 501,288 499,288C497,288 495,288 492,286C488,285 484,284 480,282C475,281 469,280 463,278C456,277 448,277 440,277C424,277 410,280 398,286C387,293 377,302 370,313C363,324 357,337 354,351C350,366 348,381 347,397C352,394 357,392 363,389C368,386 374,384 381,382C388,380 395,378 402,377C409,376 417,375 426,375C444,375 459,377 471,382C484,387 494,394 502,403C509,412 515,422 518,434C521,445 523,458 523,472ZM478,476C478,466 477,457 475,449C473,440 470,433 465,428C460,422 454,418 446,415C439,412 429,410 418,410C411,410 405,410 399,412C392,413 386,414 380,416C374,418 369,421 363,423C358,426 353,429 348,432C348,454 350,473 353,488C355,503 359,515 365,524C370,533 377,539 385,543C393,547 403,549 414,549C425,549 434,547 442,543C450,539 457,533 462,526C468,519 472,511 474,503C477,494 478,485 478,476Z" style="fill-rule:nonzero;"/>
            </g>
        </g>
    </g>
</svg>
