<?xml version="1.0" encoding="UTF-8" standalone="no"?>
<!DOCTYPE svg PUBLIC "-//W3C//DTD SVG 1.1//EN" "http://www.w3.org/Graphics/SVG/1.1/DTD/svg11.dtd">
<svg width="100%" height="100%" viewBox="0 0 28 28" version="1.1" xmlns="http://www.w3.org/2000/svg" xmlns:xlink="http://www.w3.org/1999/xlink" xml:space="preserve" xmlns:serif="http://www.serif.com/" style="fill-rule:evenodd;clip-rule:evenodd;stroke-linejoin:round;stroke-miterlimit:2;">
    <g transform="matrix(0.0668276,0,0,0.0668605,-13.5399,-13.6655)">
        <g id="CorelEMF">
            <g id="CorelEMF1" serif:id="CorelEMF">
                <path d="M523,400C523,414 522,429 521,444C519,459 516,473 512,487C508,500 502,513 495,525C488,537 479,547 469,556C458,565 446,572 431,578C416,583 400,585 380,585C373,585 366,585 359,584C352,583 345,582 340,580C334,579 329,577 326,576C322,574 319,573 317,571C316,570 314,567 314,565C313,562 313,559 313,554L313,545C313,543 314,541 314,540C315,539 315,538 316,537L320,537C322,537 324,537 328,539C331,540 336,541 341,543C346,544 352,546 359,547C366,548 374,549 383,549C400,549 414,546 426,539C438,533 448,524 456,514C463,503 469,490 473,476C477,462 479,447 479,431C470,436 459,441 446,445C433,449 419,451 402,451C383,451 368,449 355,444C342,439 332,432 325,423C317,414 311,404 308,391C305,379 303,366 303,352C303,337 305,323 309,310C314,296 320,285 330,274C339,264 350,256 365,250C379,244 396,241 415,241C429,241 441,243 452,246C463,250 472,255 480,262C488,268 495,276 500,286C506,295 510,306 514,318C517,329 520,342 521,356C522,370 523,385 523,400ZM478,395C478,373 477,355 474,339C471,324 467,312 461,303C455,294 448,287 440,283C432,279 422,277 411,277C400,277 390,279 382,283C374,287 368,292 363,299C358,306 354,313 352,322C349,331 348,339 348,349C348,359 349,368 351,377C353,385 357,392 362,398C367,404 373,408 381,412C388,415 398,416 409,416C422,416 435,414 447,410C459,407 469,401 478,395Z" style="fill-rule:nonzero;"/>
            </g>
        </g>
    </g>
</svg>
