<?xml version="1.0" encoding="UTF-8"?>
<svg xmlns="http://www.w3.org/2000/svg" xmlns:xlink="http://www.w3.org/1999/xlink" width="28pt" height="28pt" viewBox="0 0 28 28" version="1.1">
<g id="surface1">
<path style=" stroke:none;fill-rule:nonzero;fill:rgb(0%,0%,0%);fill-opacity:1;" d="M 18.328125 16.621094 C 18.328125 16.84375 18.289062 16.988281 18.253906 17.136719 C 18.179688 17.246094 18.070312 17.28125 17.960938 17.28125 L 16.605469 17.28125 L 16.605469 19.886719 C 16.605469 19.925781 16.566406 19.960938 16.566406 19.996094 C 16.53125 20.035156 16.496094 20.070312 16.421875 20.109375 C 16.347656 20.109375 16.273438 20.144531 16.164062 20.144531 C 16.054688 20.179688 15.90625 20.179688 15.761719 20.179688 C 15.613281 20.179688 15.46875 20.179688 15.359375 20.144531 C 15.285156 20.144531 15.175781 20.109375 15.136719 20.109375 C 15.0625 20.070312 15.027344 20.035156 14.992188 19.996094 C 14.992188 19.960938 14.953125 19.925781 14.953125 19.886719 L 14.953125 17.28125 L 9.746094 17.28125 C 9.710938 17.246094 9.675781 17.210938 9.601562 17.171875 C 9.5625 17.101562 9.5625 17.027344 9.527344 16.953125 C 9.527344 16.84375 9.492188 16.734375 9.492188 16.585938 C 9.492188 16.476562 9.527344 16.367188 9.527344 16.257812 C 9.527344 16.183594 9.527344 16.074219 9.5625 16 C 9.5625 15.925781 9.601562 15.851562 9.636719 15.777344 C 9.675781 15.707031 9.710938 15.632812 9.746094 15.558594 L 14.109375 8.074219 C 14.148438 8.039062 14.183594 8 14.257812 7.964844 C 14.332031 7.890625 14.40625 7.890625 14.476562 7.855469 C 14.585938 7.820312 14.699219 7.820312 14.84375 7.78125 L 15.359375 7.78125 C 15.578125 7.78125 15.761719 7.78125 15.90625 7.820312 C 16.054688 7.820312 16.199219 7.855469 16.273438 7.855469 C 16.382812 7.890625 16.457031 7.929688 16.496094 7.964844 C 16.566406 8 16.605469 8.074219 16.605469 8.113281 L 16.605469 15.960938 L 17.960938 15.960938 C 18.070312 15.960938 18.179688 16 18.21875 16.109375 C 18.289062 16.21875 18.328125 16.402344 18.328125 16.621094 Z M 14.953125 9.210938 L 10.996094 15.960938 L 14.953125 15.960938 Z M 14.953125 9.210938 "/>
</g>
</svg>
