<?xml version="1.0" encoding="UTF-8" standalone="no"?>
<!DOCTYPE svg PUBLIC "-//W3C//DTD SVG 1.1//EN" "http://www.w3.org/Graphics/SVG/1.1/DTD/svg11.dtd">
<svg width="100%" height="100%" viewBox="0 0 28 28" version="1.1" xmlns="http://www.w3.org/2000/svg" xmlns:xlink="http://www.w3.org/1999/xlink" xml:space="preserve" xmlns:serif="http://www.serif.com/" style="fill-rule:evenodd;clip-rule:evenodd;stroke-linejoin:round;stroke-miterlimit:2;">
    <g transform="matrix(0.0366668,0,0,0.0366848,-1.32576,-1.31605)">
        <g id="CorelEMF">
            <path d="M536,489C536,495 535,499 534,503C532,506 529,507 526,507L489,507L489,578C489,579 488,580 488,581C487,582 486,583 484,584C482,584 480,585 477,585C474,586 470,586 466,586C462,586 458,586 455,585C453,585 450,584 449,584C447,583 446,582 445,581C445,580 444,579 444,578L444,507L307,507L302,507C301,506 300,505 298,504C297,502 297,500 296,498C296,495 295,492 295,488C295,485 296,482 296,479C296,477 296,474 297,472C297,470 298,468 299,466C300,464 301,462 302,460L421,256C422,255 423,254 425,253C427,251 429,251 431,250C434,249 437,249 441,248L455,248C461,248 466,248 470,249C474,249 478,250 480,250C483,251 485,252 486,253C488,254 489,256 489,257L489,471L526,471C529,471 532,472 533,475C535,478 536,483 536,489ZM444,287L336,471L444,471L444,287Z" style="fill-rule:nonzero;"/>
        </g>
    </g>
</svg>
