<?xml version="1.0" encoding="UTF-8" standalone="no"?>
<!DOCTYPE svg PUBLIC "-//W3C//DTD SVG 1.1//EN" "http://www.w3.org/Graphics/SVG/1.1/DTD/svg11.dtd">
<svg width="100%" height="100%" viewBox="0 0 28 28" version="1.1" xmlns="http://www.w3.org/2000/svg" xmlns:xlink="http://www.w3.org/1999/xlink" xml:space="preserve" xmlns:serif="http://www.serif.com/" style="fill-rule:evenodd;clip-rule:evenodd;stroke-linejoin:round;stroke-miterlimit:2;">
    <g transform="matrix(0.0366668,0,0,0.0366848,-1.32576,-1.27509)">
        <g id="CorelEMF">
            <path d="M527,476C527,490 525,504 520,518C516,532 509,544 499,554C490,565 478,573 464,579C450,586 433,589 413,589C399,589 387,587 376,584C366,580 356,575 348,569C341,563 334,555 329,546C323,536 319,526 316,514C313,502 311,489 309,475C308,461 307,445 307,429C307,415 308,400 309,386C311,371 314,357 318,343C322,330 327,317 334,305C341,293 349,283 359,274C370,265 382,258 396,253C411,247 427,245 446,245C453,245 459,245 466,246C472,247 478,248 484,249C489,250 494,252 498,253C501,255 504,256 505,257C506,258 507,259 508,260C508,261 509,263 509,264C510,265 510,267 510,268L510,282C510,285 510,286 509,288C509,289 508,290 507,291C506,292 505,292 503,292C501,292 499,291 495,290C492,289 488,288 483,286C479,285 473,283 466,282C460,281 452,280 443,280C427,280 414,284 402,290C390,297 381,306 374,317C366,328 361,340 357,355C354,369 352,385 351,401C356,398 361,395 366,393C372,390 378,388 385,386C391,384 398,382 406,381C413,379 421,379 430,379C448,379 463,381 475,386C488,391 498,398 505,407C513,415 519,426 522,437C525,449 527,462 527,476ZM482,480C482,470 481,461 479,452C477,444 473,437 469,432C464,426 458,422 450,418C442,415 433,414 422,414C415,414 409,414 402,415C396,417 390,418 384,420C378,422 372,424 367,427C362,430 357,433 352,436C352,458 354,477 356,492C359,507 363,519 369,528C374,537 381,543 389,547C397,551 407,553 417,553C428,553 438,551 446,547C454,543 461,537 466,530C472,523 475,515 478,506C481,498 482,489 482,480Z" style="fill-rule:nonzero;"/>
        </g>
    </g>
</svg>
