<?xml version="1.0" encoding="UTF-8"?>
<svg xmlns="http://www.w3.org/2000/svg" xmlns:xlink="http://www.w3.org/1999/xlink" width="28pt" height="28pt" viewBox="0 0 28 28" version="1.1">
<g id="surface1">
<path style=" stroke:none;fill-rule:nonzero;fill:rgb(0%,0%,0%);fill-opacity:1;" d="M 18.109375 16.925781 C 18.109375 17.476562 18 17.953125 17.816406 18.355469 C 17.632812 18.757812 17.339844 19.125 17.011719 19.382812 C 16.644531 19.675781 16.203125 19.898438 15.652344 20.042969 C 15.140625 20.191406 14.554688 20.261719 13.855469 20.261719 C 13.234375 20.261719 12.683594 20.191406 12.171875 20.042969 C 11.65625 19.933594 11.253906 19.75 10.886719 19.457031 C 10.558594 19.199219 10.300781 18.90625 10.117188 18.503906 C 9.933594 18.136719 9.824219 17.695312 9.824219 17.21875 C 9.824219 16.816406 9.898438 16.484375 10.007812 16.15625 C 10.152344 15.824219 10.335938 15.53125 10.558594 15.273438 C 10.8125 14.980469 11.105469 14.722656 11.4375 14.503906 C 11.804688 14.285156 12.171875 14.027344 12.609375 13.84375 C 12.242188 13.625 11.914062 13.441406 11.621094 13.21875 C 11.328125 13 11.070312 12.742188 10.886719 12.484375 C 10.667969 12.230469 10.519531 11.972656 10.410156 11.679688 C 10.300781 11.386719 10.261719 11.054688 10.261719 10.726562 C 10.261719 10.285156 10.335938 9.882812 10.484375 9.515625 C 10.628906 9.148438 10.886719 8.816406 11.179688 8.523438 C 11.511719 8.265625 11.914062 8.046875 12.390625 7.902344 C 12.867188 7.71875 13.453125 7.644531 14.078125 7.644531 C 14.699219 7.644531 15.25 7.71875 15.691406 7.863281 C 16.128906 8.011719 16.535156 8.230469 16.828125 8.488281 C 17.121094 8.707031 17.304688 9.039062 17.449219 9.367188 C 17.597656 9.734375 17.671875 10.101562 17.671875 10.503906 C 17.671875 10.796875 17.632812 11.128906 17.523438 11.421875 C 17.414062 11.714844 17.265625 12.007812 17.046875 12.265625 C 16.863281 12.523438 16.605469 12.78125 16.3125 13 C 16.019531 13.257812 15.691406 13.441406 15.285156 13.660156 C 15.761719 13.878906 16.128906 14.101562 16.496094 14.355469 C 16.828125 14.578125 17.121094 14.835938 17.375 15.089844 C 17.597656 15.347656 17.78125 15.640625 17.925781 15.933594 C 18.035156 16.226562 18.109375 16.558594 18.109375 16.925781 Z M 16.058594 10.652344 C 16.058594 10.359375 16.019531 10.136719 15.910156 9.917969 C 15.835938 9.699219 15.691406 9.515625 15.507812 9.367188 C 15.324219 9.222656 15.101562 9.109375 14.847656 9.039062 C 14.589844 8.929688 14.296875 8.890625 13.964844 8.890625 C 13.269531 8.890625 12.757812 9.074219 12.425781 9.367188 C 12.058594 9.660156 11.875 10.101562 11.875 10.652344 C 11.875 10.871094 11.914062 11.128906 12.023438 11.3125 C 12.097656 11.53125 12.242188 11.753906 12.425781 11.9375 C 12.609375 12.121094 12.828125 12.304688 13.085938 12.484375 C 13.378906 12.667969 13.710938 12.851562 14.078125 13.035156 C 14.699219 12.707031 15.214844 12.375 15.542969 11.972656 C 15.875 11.570312 16.058594 11.128906 16.058594 10.652344 Z M 16.460938 17.109375 C 16.460938 16.816406 16.386719 16.558594 16.277344 16.300781 C 16.167969 16.082031 16.019531 15.859375 15.800781 15.640625 C 15.578125 15.457031 15.324219 15.238281 14.992188 15.054688 C 14.664062 14.871094 14.296875 14.652344 13.855469 14.46875 C 13.453125 14.652344 13.085938 14.835938 12.792969 15.054688 C 12.5 15.238281 12.242188 15.421875 12.058594 15.640625 C 11.875 15.859375 11.730469 16.082031 11.621094 16.300781 C 11.546875 16.523438 11.472656 16.777344 11.472656 17.070312 C 11.472656 17.695312 11.695312 18.171875 12.097656 18.503906 C 12.535156 18.832031 13.160156 19.015625 14.003906 19.015625 C 14.808594 19.015625 15.398438 18.832031 15.835938 18.503906 C 16.238281 18.136719 16.460938 17.695312 16.460938 17.109375 Z M 16.460938 17.109375 "/>
</g>
</svg>
