<?xml version="1.0" encoding="UTF-8"?>
<svg xmlns="http://www.w3.org/2000/svg" xmlns:xlink="http://www.w3.org/1999/xlink" width="28pt" height="28pt" viewBox="0 0 28 28" version="1.1">
<g id="surface1">
<path style=" stroke:none;fill-rule:nonzero;fill:rgb(0%,0%,0%);fill-opacity:1;" d="M 18.042969 13.519531 C 18.042969 14.03125 18.003906 14.582031 17.929688 15.132812 C 17.894531 15.644531 17.785156 16.195312 17.636719 16.671875 C 17.453125 17.1875 17.269531 17.664062 17.015625 18.101562 C 16.757812 18.542969 16.425781 18.910156 16.0625 19.242188 C 15.65625 19.570312 15.179688 19.828125 14.667969 20.011719 C 14.117188 20.195312 13.496094 20.304688 12.796875 20.304688 C 12.542969 20.304688 12.246094 20.269531 11.992188 20.230469 C 11.769531 20.230469 11.515625 20.15625 11.332031 20.121094 C 11.109375 20.085938 10.925781 20.011719 10.816406 19.972656 C 10.671875 19.902344 10.5625 19.828125 10.488281 19.789062 C 10.449219 19.71875 10.378906 19.644531 10.378906 19.570312 C 10.339844 19.460938 10.304688 19.3125 10.304688 19.167969 C 10.304688 19.019531 10.304688 18.910156 10.339844 18.835938 C 10.339844 18.765625 10.339844 18.691406 10.378906 18.652344 C 10.378906 18.582031 10.414062 18.582031 10.449219 18.542969 C 10.488281 18.542969 10.523438 18.507812 10.597656 18.507812 C 10.671875 18.507812 10.746094 18.542969 10.890625 18.582031 C 11 18.652344 11.148438 18.691406 11.367188 18.765625 C 11.550781 18.800781 11.769531 18.875 12.027344 18.910156 C 12.285156 18.945312 12.578125 18.984375 12.90625 18.984375 C 13.53125 18.984375 14.042969 18.875 14.484375 18.617188 C 14.925781 18.398438 15.292969 18.066406 15.585938 17.664062 C 15.839844 17.296875 16.0625 16.820312 16.207031 16.304688 C 16.316406 15.792969 16.390625 15.207031 16.425781 14.65625 C 16.097656 14.839844 15.695312 15.023438 15.21875 15.167969 C 14.742188 15.316406 14.191406 15.390625 13.605469 15.390625 C 12.90625 15.390625 12.359375 15.277344 11.882812 15.09375 C 11.40625 14.910156 11.039062 14.65625 10.746094 14.363281 C 10.488281 14.03125 10.269531 13.628906 10.15625 13.1875 C 10.046875 12.746094 9.972656 12.269531 9.972656 11.757812 C 9.972656 11.207031 10.046875 10.691406 10.195312 10.214844 C 10.378906 9.703125 10.597656 9.261719 10.925781 8.894531 C 11.292969 8.527344 11.699219 8.234375 12.210938 8.015625 C 12.722656 7.796875 13.347656 7.683594 14.082031 7.683594 C 14.59375 7.683594 15.035156 7.757812 15.4375 7.867188 C 15.839844 8.015625 16.171875 8.199219 16.464844 8.417969 C 16.757812 8.675781 17.015625 8.96875 17.199219 9.300781 C 17.417969 9.664062 17.5625 10.03125 17.710938 10.472656 C 17.820312 10.914062 17.894531 11.390625 17.96875 11.902344 C 18.003906 12.417969 18.042969 12.929688 18.042969 13.519531 Z M 16.390625 13.335938 C 16.390625 12.527344 16.316406 11.832031 16.246094 11.28125 C 16.132812 10.730469 15.949219 10.289062 15.769531 9.960938 C 15.546875 9.59375 15.292969 9.371094 14.996094 9.226562 C 14.667969 9.042969 14.335938 8.96875 13.933594 8.96875 C 13.53125 8.96875 13.164062 9.042969 12.871094 9.1875 C 12.578125 9.371094 12.359375 9.554688 12.175781 9.8125 C 11.992188 10.03125 11.84375 10.328125 11.734375 10.65625 C 11.660156 10.949219 11.625 11.28125 11.625 11.609375 C 11.625 12.015625 11.660156 12.34375 11.734375 12.636719 C 11.808594 12.96875 11.953125 13.222656 12.136719 13.445312 C 12.285156 13.664062 12.542969 13.8125 12.796875 13.921875 C 13.089844 14.066406 13.457031 14.105469 13.859375 14.105469 C 14.335938 14.105469 14.8125 14.03125 15.253906 13.882812 C 15.695312 13.738281 16.0625 13.554688 16.390625 13.335938 Z M 16.390625 13.335938 "/>
</g>
</svg>
