<?xml version="1.0" encoding="UTF-8"?>
<svg xmlns="http://www.w3.org/2000/svg" xmlns:xlink="http://www.w3.org/1999/xlink" width="28pt" height="28pt" viewBox="0 0 28 28" version="1.1">
<g id="surface1">
<path style="fill-rule:nonzero;fill:rgb(0%,0%,0%);fill-opacity:1;stroke-width:8;stroke-linecap:butt;stroke-linejoin:miter;stroke:rgb(0%,0%,0%);stroke-opacity:1;stroke-miterlimit:2;" d="M 161.000388 42.026443 L 673.00074 42.026443 C 706.026148 42.026443 735.962082 55.975502 756.949196 78.017146 C 779.001646 99.952309 791.998742 129.980056 791.998742 162.989281 L 791.998742 669.947091 C 791.998742 704.02113 779.001646 734.048877 756.949196 755.984039 C 735.962082 778.025683 706.026148 791.974743 673.00074 791.974743 L 161.000388 791.974743 C 127.97498 791.974743 98.039046 778.025683 77.051932 755.984039 C 54.999483 734.048877 42.002387 704.02113 42.002387 669.947091 L 42.002387 162.989281 C 42.002387 129.980056 54.999483 99.952309 77.051932 78.017146 C 98.039046 55.975502 127.97498 42.026443 161.000388 42.026443 Z M 673.00074 67.049565 L 161.000388 67.049565 C 135.006196 67.049565 111.994944 78.017146 94.949573 94.947684 C 78.010734 113.049517 67.037776 137.007826 67.037776 162.989281 L 67.037776 669.947091 C 67.037776 696.993359 78.010734 720.951668 94.949573 737.988687 C 111.994944 755.984039 135.006196 765.993288 161.000388 765.993288 L 673.00074 765.993288 C 698.994932 765.993288 722.006184 755.984039 739.051556 737.988687 C 755.990394 720.951668 766.00455 696.993359 766.00455 669.947091 L 766.00455 162.989281 C 766.00455 137.007826 755.990394 113.049517 739.051556 94.947684 C 722.006184 78.017146 698.994932 67.049565 673.00074 67.049565 Z M 673.00074 67.049565 " transform="matrix(0.0366668,0,0,0.0366848,-1.27447,-1.31517)"/>
<path style=" stroke:none;fill-rule:nonzero;fill:rgb(0%,0%,0%);fill-opacity:1;" d="M 18.34375 13.945312 C 18.34375 14.898438 18.269531 15.742188 18.121094 16.511719 C 17.976562 17.320312 17.753906 17.980469 17.390625 18.53125 C 17.058594 19.082031 16.617188 19.523438 16.03125 19.816406 C 15.480469 20.144531 14.824219 20.292969 13.980469 20.292969 C 13.207031 20.292969 12.585938 20.144531 12.035156 19.886719 C 11.523438 19.59375 11.082031 19.191406 10.753906 18.679688 C 10.457031 18.128906 10.203125 17.46875 10.09375 16.695312 C 9.945312 15.925781 9.871094 15.007812 9.871094 14.019531 C 9.871094 13.066406 9.945312 12.222656 10.09375 11.449219 C 10.277344 10.644531 10.496094 9.984375 10.863281 9.433594 C 11.191406 8.882812 11.632812 8.441406 12.183594 8.113281 C 12.730469 7.820312 13.429688 7.671875 14.234375 7.671875 C 15.003906 7.671875 15.664062 7.820312 16.179688 8.074219 C 16.730469 8.371094 17.132812 8.773438 17.460938 9.285156 C 17.792969 9.835938 18.011719 10.496094 18.160156 11.269531 C 18.304688 12.039062 18.34375 12.957031 18.34375 13.945312 Z M 16.691406 14.054688 C 16.691406 13.46875 16.65625 12.917969 16.617188 12.40625 C 16.582031 11.929688 16.507812 11.488281 16.4375 11.121094 C 16.324219 10.753906 16.214844 10.425781 16.105469 10.167969 C 15.957031 9.910156 15.8125 9.691406 15.59375 9.507812 C 15.410156 9.324219 15.1875 9.214844 14.96875 9.140625 C 14.710938 9.066406 14.457031 8.992188 14.125 8.992188 C 13.613281 8.992188 13.171875 9.140625 12.84375 9.398438 C 12.511719 9.652344 12.21875 9.984375 12.035156 10.425781 C 11.851562 10.863281 11.707031 11.378906 11.667969 12 C 11.59375 12.589844 11.558594 13.210938 11.558594 13.910156 C 11.558594 14.789062 11.59375 15.597656 11.707031 16.21875 C 11.777344 16.878906 11.925781 17.394531 12.144531 17.796875 C 12.328125 18.199219 12.621094 18.496094 12.914062 18.679688 C 13.246094 18.863281 13.648438 18.933594 14.089844 18.933594 C 14.457031 18.933594 14.75 18.898438 15.003906 18.789062 C 15.300781 18.679688 15.519531 18.496094 15.703125 18.273438 C 15.886719 18.089844 16.070312 17.835938 16.179688 17.539062 C 16.324219 17.246094 16.398438 16.917969 16.507812 16.550781 C 16.582031 16.183594 16.617188 15.78125 16.65625 15.375 C 16.691406 14.972656 16.691406 14.53125 16.691406 14.054688 Z M 16.691406 14.054688 "/>
</g>
</svg>
