<?xml version="1.0" encoding="UTF-8"?>
<svg xmlns="http://www.w3.org/2000/svg" xmlns:xlink="http://www.w3.org/1999/xlink" width="28pt" height="28pt" viewBox="0 0 28 28" version="1.1">
<g id="surface1">
<path style="fill-rule:nonzero;fill:rgb(0%,0%,0%);fill-opacity:1;stroke-width:8;stroke-linecap:butt;stroke-linejoin:miter;stroke:rgb(0%,0%,0%);stroke-opacity:1;stroke-miterlimit:2;" d="M 161.014263 41.998706 L 673.014615 41.998706 C 706.040023 41.998706 735.975957 55.947766 756.963071 77.98941 C 779.015521 100.031054 792.012616 129.952319 792.012616 162.961544 L 792.012616 670.025836 C 792.012616 703.993394 779.015521 734.02114 756.963071 755.956303 C 735.975957 777.997947 706.040023 791.947007 673.014615 791.947007 L 161.014263 791.947007 C 127.988855 791.947007 98.052921 777.997947 76.959274 755.956303 C 55.013358 734.02114 42.016262 703.993394 42.016262 670.025836 L 42.016262 162.961544 C 42.016262 129.952319 55.013358 100.031054 76.959274 77.98941 C 98.052921 55.947766 127.988855 41.998706 161.014263 41.998706 Z M 673.014615 67.021829 L 161.014263 67.021829 C 135.020071 67.021829 112.008819 77.98941 94.963448 95.026429 C 78.024609 113.021781 67.051651 136.98009 67.051651 162.961544 L 67.051651 670.025836 C 67.051651 696.965623 78.024609 721.030413 94.963448 737.960951 C 112.008819 755.956303 135.020071 765.965552 161.014263 765.965552 L 673.014615 765.965552 C 699.008807 765.965552 722.020059 755.956303 738.958897 737.960951 C 756.004269 721.030413 766.018425 696.965623 766.018425 670.025836 L 766.018425 162.961544 C 766.018425 136.98009 756.004269 113.021781 738.958897 95.026429 C 722.020059 77.98941 699.008807 67.021829 673.014615 67.021829 Z M 673.014615 67.021829 " transform="matrix(0.0366668,0,0,0.0366848,-1.32576,-1.27509)"/>
<path style=" stroke:none;fill-rule:nonzero;fill:rgb(0%,0%,0%);fill-opacity:1;" d="M 17.8125 19.523438 C 17.8125 19.671875 17.8125 19.746094 17.777344 19.855469 C 17.777344 19.929688 17.742188 20.003906 17.703125 20.074219 C 17.667969 20.113281 17.632812 20.183594 17.59375 20.183594 C 17.558594 20.222656 17.484375 20.257812 17.449219 20.257812 L 10.664062 20.257812 C 10.554688 20.257812 10.480469 20.222656 10.445312 20.222656 C 10.371094 20.183594 10.296875 20.148438 10.261719 20.113281 C 10.222656 20.039062 10.1875 19.964844 10.152344 19.890625 C 10.113281 19.78125 10.113281 19.671875 10.113281 19.523438 C 10.113281 19.414062 10.113281 19.304688 10.152344 19.195312 C 10.152344 19.121094 10.152344 19.011719 10.1875 18.9375 C 10.222656 18.863281 10.261719 18.792969 10.335938 18.71875 C 10.371094 18.644531 10.445312 18.570312 10.519531 18.496094 L 12.972656 15.964844 C 13.523438 15.378906 14 14.867188 14.332031 14.425781 C 14.660156 13.949219 14.917969 13.546875 15.101562 13.140625 C 15.320312 12.773438 15.429688 12.445312 15.46875 12.113281 C 15.539062 11.820312 15.578125 11.527344 15.578125 11.234375 C 15.578125 10.976562 15.539062 10.722656 15.429688 10.464844 C 15.359375 10.242188 15.210938 10.023438 15.027344 9.839844 C 14.882812 9.65625 14.660156 9.511719 14.40625 9.398438 C 14.148438 9.289062 13.816406 9.214844 13.488281 9.214844 C 13.085938 9.214844 12.71875 9.289062 12.425781 9.398438 C 12.09375 9.511719 11.835938 9.621094 11.582031 9.730469 C 11.359375 9.878906 11.140625 9.988281 10.996094 10.097656 C 10.847656 10.207031 10.699219 10.28125 10.628906 10.28125 C 10.589844 10.28125 10.554688 10.242188 10.519531 10.207031 C 10.480469 10.207031 10.445312 10.171875 10.445312 10.097656 C 10.40625 10.058594 10.371094 9.949219 10.371094 9.878906 C 10.371094 9.765625 10.335938 9.65625 10.335938 9.546875 C 10.335938 9.4375 10.371094 9.363281 10.371094 9.289062 C 10.371094 9.214844 10.371094 9.144531 10.40625 9.105469 C 10.40625 9.070312 10.445312 8.996094 10.445312 8.960938 C 10.480469 8.921875 10.519531 8.851562 10.589844 8.8125 C 10.699219 8.738281 10.8125 8.628906 10.996094 8.519531 C 11.175781 8.410156 11.433594 8.300781 11.691406 8.191406 C 11.984375 8.078125 12.277344 8.007812 12.644531 7.894531 C 12.972656 7.824219 13.339844 7.785156 13.707031 7.785156 C 14.292969 7.785156 14.808594 7.894531 15.246094 8.042969 C 15.6875 8.226562 16.054688 8.445312 16.347656 8.738281 C 16.640625 9.035156 16.859375 9.363281 17.007812 9.730469 C 17.15625 10.132812 17.226562 10.539062 17.226562 10.976562 C 17.226562 11.382812 17.191406 11.746094 17.15625 12.152344 C 17.082031 12.554688 16.933594 12.957031 16.714844 13.398438 C 16.457031 13.875 16.164062 14.351562 15.722656 14.941406 C 15.320312 15.488281 14.734375 16.113281 14.039062 16.847656 L 12.09375 18.863281 L 17.449219 18.863281 C 17.484375 18.863281 17.519531 18.863281 17.59375 18.902344 C 17.632812 18.9375 17.667969 18.976562 17.703125 19.046875 C 17.742188 19.085938 17.777344 19.160156 17.777344 19.230469 C 17.8125 19.339844 17.8125 19.414062 17.8125 19.523438 Z M 17.8125 19.523438 "/>
</g>
</svg>
