<?xml version="1.0" encoding="UTF-8" standalone="no"?>
<!DOCTYPE svg PUBLIC "-//W3C//DTD SVG 1.1//EN" "http://www.w3.org/Graphics/SVG/1.1/DTD/svg11.dtd">
<svg width="100%" height="100%" viewBox="0 0 28 28" version="1.1" xmlns="http://www.w3.org/2000/svg" xmlns:xlink="http://www.w3.org/1999/xlink" xml:space="preserve" xmlns:serif="http://www.serif.com/" style="fill-rule:evenodd;clip-rule:evenodd;stroke-miterlimit:2;">
    <g transform="matrix(1.28397,0,0,1.28397,-1.32576,-1.27509)">
        <g id="surface1">
            <g id="CorelEMF" serif:id="CorelEMF">
                <g transform="matrix(0.0285574,0,0,0.0285714,0,0)">
                    <path d="M161,42L673,42C706,42 736,56 757,78C779,100 792,130 792,163L792,670C792,704 779,734 757,756C736,778 706,792 673,792L161,792C128,792 98,778 77,756C55,734 42,704 42,670L42,163C42,130 55,100 77,78C98,56 128,42 161,42ZM673,67L161,67C135,67 112,78 95,95C78,113 67,137 67,163L67,670C67,697 78,721 95,738C112,756 135,766 161,766L673,766C699,766 722,756 739,738C756,721 766,697 766,670L766,163C766,137 756,113 739,95C722,78 699,67 673,67Z" style="fill-rule:nonzero;stroke:black;stroke-width:8px;"/>
                </g>
                <g transform="matrix(0.0285574,0,0,0.0285714,0,0)">
                    <path d="M522,567C522,571 522,573 521,576C521,578 520,580 519,582C518,583 517,585 516,585C515,586 513,587 512,587L327,587C324,587 322,586 321,586C319,585 317,584 316,583C315,581 314,579 313,577C312,574 312,571 312,567C312,564 312,561 313,558C313,556 313,553 314,551C315,549 316,547 318,545C319,543 321,541 323,539L390,470C405,454 418,440 427,428C436,415 443,404 448,393C454,383 457,374 458,365C460,357 461,349 461,341C461,334 460,327 457,320C455,314 451,308 446,303C442,298 436,294 429,291C422,288 413,286 404,286C393,286 383,288 375,291C366,294 359,297 352,300C346,304 340,307 336,310C332,313 328,315 326,315C325,315 324,314 323,313C322,313 321,312 321,310C320,309 319,306 319,304C319,301 318,298 318,295C318,292 319,290 319,288C319,286 319,284 320,283C320,282 321,280 321,279C322,278 323,276 325,275C328,273 331,270 336,267C341,264 348,261 355,258C363,255 371,253 381,250C390,248 400,247 410,247C426,247 440,250 452,254C464,259 474,265 482,273C490,281 496,290 500,300C504,311 506,322 506,334C506,345 505,355 504,366C502,377 498,388 492,400C485,413 477,426 465,442C454,457 438,474 419,494L366,549L512,549C513,549 514,549 516,550C517,551 518,552 519,554C520,555 521,557 521,559C522,562 522,564 522,567Z" style="fill-rule:nonzero;"/>
                </g>
            </g>
        </g>
    </g>
</svg>
