<?xml version="1.0" encoding="UTF-8" standalone="no"?>
<!DOCTYPE svg PUBLIC "-//W3C//DTD SVG 1.1//EN" "http://www.w3.org/Graphics/SVG/1.1/DTD/svg11.dtd">
<svg width="100%" height="100%" viewBox="0 0 28 28" version="1.1" xmlns="http://www.w3.org/2000/svg" xmlns:xlink="http://www.w3.org/1999/xlink" xml:space="preserve" xmlns:serif="http://www.serif.com/" style="fill-rule:evenodd;clip-rule:evenodd;stroke-miterlimit:2;">
    <g transform="matrix(1.28397,0,0,1.28397,-1.32576,-1.27509)">
        <g id="surface1">
            <g id="CorelEMF" serif:id="CorelEMF">
                <g transform="matrix(0.0285574,0,0,0.0285714,0,0)">
                    <path d="M161,42L673,42C706,42 736,56 757,78C779,100 792,130 792,163L792,670C792,704 779,734 757,756C736,778 706,792 673,792L161,792C128,792 98,778 77,756C55,734 42,704 42,670L42,163C42,130 55,100 77,78C98,56 128,42 161,42ZM673,67L161,67C135,67 112,78 95,95C78,113 67,137 67,163L67,670C67,697 78,721 95,738C112,756 135,766 161,766L673,766C699,766 722,756 739,738C756,721 766,697 766,670L766,163C766,137 756,113 739,95C722,78 699,67 673,67Z" style="fill-rule:nonzero;stroke:black;stroke-width:8px;"/>
                </g>
                <g transform="matrix(0.0285574,0,0,0.0285714,0,0)">
                    <path d="M519,488C519,504 516,518 511,530C506,542 498,553 488,562C478,570 466,577 451,582C436,587 420,589 401,589C390,589 380,588 370,586C360,584 352,582 344,580C337,577 330,575 325,572C320,569 317,567 316,566C315,565 314,564 313,563C312,561 312,560 311,558C311,557 310,555 310,552C310,550 309,546 309,543C309,537 310,532 311,530C313,528 314,526 317,526C318,526 321,528 326,531C331,533 337,536 344,539C351,543 360,546 370,548C380,551 391,552 403,552C414,552 424,551 433,548C442,545 450,541 456,536C462,530 466,524 469,516C472,509 474,501 474,493C474,483 472,475 468,467C464,459 458,453 451,447C444,442 435,437 424,435C413,432 401,430 387,430L354,430C353,430 351,430 350,429C349,429 348,428 347,426C346,425 345,423 344,421C344,419 343,416 343,412C343,409 344,406 344,404C345,402 345,400 346,399C347,398 348,397 350,396C351,395 352,395 354,395L383,395C394,395 404,394 414,391C423,388 430,384 437,378C443,373 448,366 451,358C454,351 456,342 456,333C456,326 455,319 453,313C451,307 447,301 443,296C438,292 432,288 425,285C419,283 410,281 401,281C391,281 382,283 374,286C365,289 358,292 352,296C345,299 340,302 335,305C331,309 328,310 326,310C325,310 324,310 323,309C322,309 321,308 321,307C320,306 320,304 319,301L319,285C319,283 320,282 320,280C321,279 321,277 322,276C323,275 324,274 326,272C327,270 331,268 336,265C341,262 347,259 354,256C361,253 370,250 379,248C389,246 399,245 410,245C426,245 439,247 451,251C463,255 472,260 480,268C488,275 494,283 498,294C502,304 504,315 504,327C504,338 502,347 500,356C497,365 493,373 487,380C482,387 475,393 468,398C460,403 451,406 441,408L441,409C452,410 463,413 472,417C482,422 490,428 497,435C504,442 509,450 513,459C517,468 519,478 519,488Z" style="fill-rule:nonzero;"/>
                </g>
            </g>
        </g>
    </g>
</svg>
