<?xml version="1.0" encoding="UTF-8" standalone="no"?>
<!DOCTYPE svg PUBLIC "-//W3C//DTD SVG 1.1//EN" "http://www.w3.org/Graphics/SVG/1.1/DTD/svg11.dtd">
<svg width="100%" height="100%" viewBox="0 0 28 28" version="1.1" xmlns="http://www.w3.org/2000/svg" xmlns:xlink="http://www.w3.org/1999/xlink" xml:space="preserve" xmlns:serif="http://www.serif.com/" style="fill-rule:evenodd;clip-rule:evenodd;stroke-miterlimit:2;">
    <g transform="matrix(1.28397,0,0,1.28397,-1.32576,-1.31605)">
        <g id="surface1">
            <g id="CorelEMF" serif:id="CorelEMF">
                <g transform="matrix(0.0285574,0,0,0.0285714,0,0)">
                    <path d="M161,42L673,42C706,42 736,56 757,78C779,100 792,130 792,163L792,670C792,704 779,734 757,756C736,778 706,792 673,792L161,792C128,792 98,778 77,756C55,734 42,704 42,670L42,163C42,130 55,100 77,78C98,56 128,42 161,42ZM673,67L161,67C135,67 112,78 95,95C78,113 67,137 67,163L67,670C67,697 78,721 95,738C112,756 135,766 161,766L673,766C699,766 722,756 739,738C756,721 766,697 766,670L766,163C766,137 756,113 739,95C722,78 699,67 673,67Z" style="fill-rule:nonzero;stroke:black;stroke-width:8px;"/>
                </g>
                <g transform="matrix(0.0285574,0,0,0.0285714,0,0)">
                    <path d="M536,489C536,495 535,499 534,503C532,506 529,507 526,507L489,507L489,578C489,579 488,580 488,581C487,582 486,583 484,584C482,584 480,585 477,585C474,586 470,586 466,586C462,586 458,586 455,585C453,585 450,584 449,584C447,583 446,582 445,581C445,580 444,579 444,578L444,507L307,507L302,507C301,506 300,505 298,504C297,502 297,500 296,498C296,495 295,492 295,488C295,485 296,482 296,479C296,477 296,474 297,472C297,470 298,468 299,466C300,464 301,462 302,460L421,256C422,255 423,254 425,253C427,251 429,251 431,250C434,249 437,249 441,248L455,248C461,248 466,248 470,249C474,249 478,250 480,250C483,251 485,252 486,253C488,254 489,256 489,257L489,471L526,471C529,471 532,472 533,475C535,478 536,483 536,489ZM444,287L336,471L444,471L444,287Z" style="fill-rule:nonzero;"/>
                </g>
            </g>
        </g>
    </g>
</svg>
