<?xml version="1.0" encoding="UTF-8"?>
<svg xmlns="http://www.w3.org/2000/svg" xmlns:xlink="http://www.w3.org/1999/xlink" width="28pt" height="28pt" viewBox="0 0 28 28" version="1.1">
<g id="surface1">
<path style="fill-rule:nonzero;fill:rgb(0%,0%,0%);fill-opacity:1;stroke-width:8;stroke-linecap:butt;stroke-linejoin:miter;stroke:rgb(0%,0%,0%);stroke-opacity:1;stroke-miterlimit:2;" d="M 161.014263 41.998706 L 673.014615 41.998706 C 706.040023 41.998706 735.975957 55.947766 756.963071 77.98941 C 779.015521 100.031054 792.012616 129.952319 792.012616 162.961544 L 792.012616 670.025836 C 792.012616 703.993394 779.015521 734.02114 756.963071 755.956303 C 735.975957 777.997947 706.040023 791.947007 673.014615 791.947007 L 161.014263 791.947007 C 127.988855 791.947007 98.052921 777.997947 76.959274 755.956303 C 55.013358 734.02114 42.016262 703.993394 42.016262 670.025836 L 42.016262 162.961544 C 42.016262 129.952319 55.013358 100.031054 76.959274 77.98941 C 98.052921 55.947766 127.988855 41.998706 161.014263 41.998706 Z M 673.014615 67.021829 L 161.014263 67.021829 C 135.020071 67.021829 112.008819 77.98941 94.963448 95.026429 C 78.024609 113.021781 67.051651 136.98009 67.051651 162.961544 L 67.051651 670.025836 C 67.051651 696.965623 78.024609 721.030413 94.963448 737.960951 C 112.008819 755.956303 135.020071 765.965552 161.014263 765.965552 L 673.014615 765.965552 C 699.008807 765.965552 722.020059 755.956303 738.958897 737.960951 C 756.004269 721.030413 766.018425 696.965623 766.018425 670.025836 L 766.018425 162.961544 C 766.018425 136.98009 756.004269 113.021781 738.958897 95.026429 C 722.020059 77.98941 699.008807 67.021829 673.014615 67.021829 Z M 673.014615 67.021829 " transform="matrix(0.0366668,0,0,0.0366848,-1.32576,-1.27509)"/>
<path style=" stroke:none;fill-rule:nonzero;fill:rgb(0%,0%,0%);fill-opacity:1;" d="M 17.996094 16.1875 C 17.996094 16.699219 17.925781 17.214844 17.742188 17.726562 C 17.59375 18.242188 17.335938 18.679688 16.972656 19.046875 C 16.640625 19.453125 16.199219 19.746094 15.6875 19.964844 C 15.175781 20.222656 14.550781 20.332031 13.816406 20.332031 C 13.304688 20.332031 12.863281 20.257812 12.460938 20.148438 C 12.09375 20.003906 11.726562 19.820312 11.433594 19.597656 C 11.175781 19.378906 10.921875 19.085938 10.738281 18.753906 C 10.519531 18.386719 10.371094 18.019531 10.261719 17.582031 C 10.152344 17.140625 10.078125 16.664062 10.003906 16.148438 C 9.96875 15.636719 9.929688 15.050781 9.929688 14.460938 C 9.929688 13.949219 9.96875 13.398438 10.003906 12.886719 C 10.078125 12.335938 10.1875 11.820312 10.335938 11.308594 C 10.480469 10.832031 10.664062 10.355469 10.921875 9.914062 C 11.175781 9.472656 11.472656 9.105469 11.835938 8.777344 C 12.242188 8.445312 12.679688 8.191406 13.195312 8.007812 C 13.746094 7.785156 14.332031 7.710938 15.027344 7.710938 C 15.285156 7.710938 15.503906 7.710938 15.761719 7.75 C 15.980469 7.785156 16.199219 7.824219 16.421875 7.859375 C 16.605469 7.894531 16.789062 7.96875 16.933594 8.007812 C 17.042969 8.078125 17.15625 8.117188 17.191406 8.152344 C 17.226562 8.191406 17.265625 8.226562 17.300781 8.261719 C 17.300781 8.300781 17.335938 8.371094 17.335938 8.410156 C 17.375 8.445312 17.375 8.519531 17.375 8.554688 L 17.375 9.070312 C 17.375 9.179688 17.375 9.214844 17.335938 9.289062 C 17.335938 9.328125 17.300781 9.363281 17.265625 9.398438 C 17.226562 9.4375 17.191406 9.4375 17.117188 9.4375 C 17.042969 9.4375 16.972656 9.398438 16.824219 9.363281 C 16.714844 9.328125 16.566406 9.289062 16.382812 9.214844 C 16.238281 9.179688 16.019531 9.105469 15.761719 9.070312 C 15.539062 9.035156 15.246094 8.996094 14.917969 8.996094 C 14.332031 8.996094 13.855469 9.144531 13.414062 9.363281 C 12.972656 9.621094 12.644531 9.949219 12.386719 10.355469 C 12.09375 10.757812 11.910156 11.199219 11.765625 11.746094 C 11.65625 12.261719 11.582031 12.847656 11.542969 13.433594 C 11.726562 13.324219 11.910156 13.214844 12.09375 13.140625 C 12.3125 13.03125 12.535156 12.957031 12.789062 12.886719 C 13.011719 12.8125 13.269531 12.738281 13.5625 12.703125 C 13.816406 12.628906 14.109375 12.628906 14.441406 12.628906 C 15.101562 12.628906 15.652344 12.703125 16.089844 12.886719 C 16.566406 13.070312 16.933594 13.324219 17.191406 13.65625 C 17.484375 13.949219 17.703125 14.351562 17.8125 14.757812 C 17.925781 15.195312 17.996094 15.671875 17.996094 16.1875 Z M 16.347656 16.332031 C 16.347656 15.964844 16.3125 15.636719 16.238281 15.304688 C 16.164062 15.011719 16.019531 14.757812 15.871094 14.574219 C 15.6875 14.351562 15.46875 14.207031 15.175781 14.058594 C 14.882812 13.949219 14.550781 13.914062 14.148438 13.914062 C 13.890625 13.914062 13.671875 13.914062 13.414062 13.949219 C 13.195312 14.023438 12.972656 14.058594 12.753906 14.132812 C 12.535156 14.207031 12.3125 14.277344 12.132812 14.390625 C 11.949219 14.5 11.765625 14.609375 11.582031 14.71875 C 11.582031 15.527344 11.65625 16.222656 11.726562 16.773438 C 11.835938 17.324219 11.984375 17.765625 12.203125 18.09375 C 12.386719 18.425781 12.644531 18.644531 12.9375 18.792969 C 13.230469 18.9375 13.597656 19.011719 13.964844 19.011719 C 14.367188 19.011719 14.734375 18.9375 15.027344 18.792969 C 15.320312 18.644531 15.578125 18.425781 15.761719 18.167969 C 15.980469 17.910156 16.089844 17.617188 16.199219 17.289062 C 16.3125 16.992188 16.347656 16.664062 16.347656 16.332031 Z M 16.347656 16.332031 "/>
</g>
</svg>
