<?xml version="1.0" encoding="UTF-8" standalone="no"?>
<!DOCTYPE svg PUBLIC "-//W3C//DTD SVG 1.1//EN" "http://www.w3.org/Graphics/SVG/1.1/DTD/svg11.dtd">
<svg width="100%" height="100%" viewBox="0 0 28 28" version="1.1" xmlns="http://www.w3.org/2000/svg" xmlns:xlink="http://www.w3.org/1999/xlink" xml:space="preserve" xmlns:serif="http://www.serif.com/" style="fill-rule:evenodd;clip-rule:evenodd;stroke-miterlimit:2;">
    <g transform="matrix(1.28397,0,0,1.28397,-1.32576,-1.27509)">
        <g id="surface1">
            <g id="CorelEMF" serif:id="CorelEMF">
                <g transform="matrix(0.0285574,0,0,0.0285714,0,0)">
                    <path d="M161,42L673,42C706,42 736,56 757,78C779,100 792,130 792,163L792,670C792,704 779,734 757,756C736,778 706,792 673,792L161,792C128,792 98,778 77,756C55,734 42,704 42,670L42,163C42,130 55,100 77,78C98,56 128,42 161,42ZM673,67L161,67C135,67 112,78 95,95C78,113 67,137 67,163L67,670C67,697 78,721 95,738C112,756 135,766 161,766L673,766C699,766 722,756 739,738C756,721 766,697 766,670L766,163C766,137 756,113 739,95C722,78 699,67 673,67Z" style="fill-rule:nonzero;stroke:black;stroke-width:8px;"/>
                </g>
                <g transform="matrix(0.0285574,0,0,0.0285714,0,0)">
                    <path d="M526,268L526,277C525,279 525,281 525,284C524,286 523,288 523,291C522,293 521,295 520,297L400,575C399,577 398,579 396,580C395,581 393,582 391,583C389,584 387,584 384,585L372,585C367,585 362,585 359,584C356,584 353,583 352,582C350,581 350,579 350,578C350,576 351,574 352,572L478,288L318,288C314,288 312,286 310,283C309,279 308,275 308,268C308,265 308,262 309,260C309,257 310,255 310,254C311,252 312,251 314,250C315,249 316,249 318,249L513,249C515,249 517,249 519,250C521,250 522,251 523,253C524,254 525,256 525,259C526,261 526,264 526,268Z" style="fill-rule:nonzero;"/>
                </g>
            </g>
        </g>
    </g>
</svg>
