<?xml version="1.0" encoding="UTF-8" standalone="no"?>
<svg
   width="28pt"
   height="28pt"
   viewBox="0 0 28 28"
   version="1.1"
   id="svg7"
   sodipodi:docname="minusuni.svg"
   inkscape:version="1.1 (ce6663b3b7, 2021-05-25)"
   xmlns:inkscape="http://www.inkscape.org/namespaces/inkscape"
   xmlns:sodipodi="http://sodipodi.sourceforge.net/DTD/sodipodi-0.dtd"
   xmlns="http://www.w3.org/2000/svg"
   xmlns:svg="http://www.w3.org/2000/svg"
   xmlns:rdf="http://www.w3.org/1999/02/22-rdf-syntax-ns#"
   xmlns:cc="http://creativecommons.org/ns#"
   xmlns:dc="http://purl.org/dc/elements/1.1/">
  <metadata
     id="metadata13">
    <rdf:RDF>
      <cc:Work
         rdf:about="">
        <dc:format>image/svg+xml</dc:format>
        <dc:type
           rdf:resource="http://purl.org/dc/dcmitype/StillImage" />
        <dc:title />
      </cc:Work>
    </rdf:RDF>
  </metadata>
  <defs
     id="defs11" />
  <sodipodi:namedview
     pagecolor="#ffffff"
     bordercolor="#666666"
     borderopacity="1"
     objecttolerance="10"
     gridtolerance="10"
     guidetolerance="10"
     inkscape:pageopacity="0"
     inkscape:pageshadow="2"
     inkscape:window-width="1848"
     inkscape:window-height="1016"
     id="namedview9"
     showgrid="false"
     inkscape:zoom="5.6568543"
     inkscape:cx="30.49398"
     inkscape:cy="50.116193"
     inkscape:window-x="72"
     inkscape:window-y="27"
     inkscape:window-maximized="1"
     inkscape:current-layer="svg7"
     inkscape:document-rotation="0"
     inkscape:pagecheckerboard="0"
     inkscape:document-units="pt" />
  <g
     id="surface1"
     transform="matrix(0.04717836,0,0,0.04717836,88.339503,13.339503)">
    <path
       style="fill:#000000;fill-opacity:1;fill-rule:nonzero;stroke:none"
       d="M 14,0 C 6.28125,0 0,6.28125 0,14 0,21.71875 6.28125,28 14,28 21.71875,28 28,21.71875 28,14 28,6.28125 21.71875,0 14,0 Z m 0,26.921875 C 6.875,26.921875 1.078125,21.125 1.078125,14 1.078125,6.875 6.875,1.078125 14,1.078125 21.125,1.078125 26.921875,6.875 26.921875,14 26.921875,21.125 21.125,26.921875 14,26.921875 Z m 0,0"
       id="path2" />
    <path
       style="fill:#000000;fill-opacity:1;fill-rule:nonzero;stroke:none"
       d="M 21,13.460938 H 7 c -0.296875,0 -0.539062,0.242187 -0.539062,0.539062 0,0.296875 0.242187,0.539062 0.539062,0.539062 h 14 c 0.296875,0 0.539062,-0.242187 0.539062,-0.539062 0,-0.296875 -0.242187,-0.539062 -0.539062,-0.539062 z m 0,0"
       id="path4" />
  </g>
  <rect
     style="fill:none;fill-opacity:1;stroke:#000000;stroke-width:0.944;stroke-linecap:round;stroke-miterlimit:4;stroke-dasharray:none;stroke-opacity:1"
     id="rect847"
     width="22.376564"
     height="4.2447624"
     x="2.8348029"
     y="12.040865" />
</svg>
