<?xml version="1.0" encoding="UTF-8"?>
<!DOCTYPE svg PUBLIC "-//W3C//DTD SVG 1.1//EN" "http://www.w3.org/Graphics/SVG/1.1/DTD/svg11.dtd">
<!-- Creator: CorelDRAW Standard 2021 (64-Bit) -->
<svg xmlns="http://www.w3.org/2000/svg" xml:space="preserve" width="7.1051mm" height="5.3238mm" version="1.1" style="shape-rendering:geometricPrecision; text-rendering:geometricPrecision; image-rendering:optimizeQuality; fill-rule:evenodd; clip-rule:evenodd"
viewBox="0 0 40.8 30.57"
 xmlns:xlink="http://www.w3.org/1999/xlink"
 xmlns:xodm="http://www.corel.com/coreldraw/odm/2003">
 <defs>
  <style type="text/css">
   <![CDATA[
    .str0 {stroke:#2B2A29;stroke-width:0.41;stroke-miterlimit:22.9256}
    .fil0 {fill:black}
    .fil1 {fill:black;fill-rule:nonzero}
   ]]>
  </style>
 </defs>
 <g id="Warstwa_x0020_1">
  <metadata id="CorelCorpID_0Corel-Layer"/>
  <g id="_2044903202624">
   <circle class="fil0 str0" cx="20.4" cy="15.29" r="1.83"/>
   <path class="fil1 str0" d="M6.36 0.43c0.7,-0.7 1.76,0.36 1.06,1.06 -7.61,7.6 -7.62,19.97 -0.03,27.58 0.7,0.7 -0.36,1.76 -1.06,1.06 -8.18,-8.2 -8.17,-21.52 0.03,-29.7z"/>
   <path class="fil1 str0" d="M10.6 4.68c0.7,-0.7 1.76,0.36 1.06,1.06 -5.27,5.26 -5.28,13.83 -0.02,19.1 0.7,0.7 -0.36,1.76 -1.06,1.06 -5.84,-5.85 -5.83,-15.37 0.02,-21.22z"/>
   <path class="fil1 str0" d="M14.84 8.93c0.7,-0.7 1.76,0.36 1.06,1.06 -2.93,2.92 -2.93,7.68 -0.01,10.61 0.7,0.7 -0.36,1.76 -1.06,1.06 -3.51,-3.51 -3.5,-9.22 0.01,-12.73l0 -0z"/>
   <path class="fil1 str0" d="M34.44 0.43c-0.7,-0.7 -1.76,0.36 -1.06,1.06 7.61,7.6 7.62,19.97 0.03,27.58 -0.7,0.7 0.36,1.76 1.06,1.06 8.18,-8.2 8.17,-21.52 -0.03,-29.7z"/>
   <path class="fil1 str0" d="M30.2 4.68c-0.7,-0.7 -1.76,0.36 -1.06,1.06 5.27,5.26 5.28,13.83 0.02,19.1 -0.7,0.7 0.36,1.76 1.06,1.06 5.84,-5.86 5.83,-15.37 -0.02,-21.22z"/>
   <path class="fil1 str0" d="M25.96 8.93c-0.7,-0.7 -1.76,0.36 -1.06,1.06 2.93,2.92 2.93,7.68 0.01,10.61 -0.7,0.7 0.36,1.76 1.06,1.06 3.51,-3.51 3.5,-9.22 -0.01,-12.73l0 0z"/>
  </g>
 </g>
</svg>
