<?xml version="1.0" encoding="UTF-8"?>
<svg xmlns="http://www.w3.org/2000/svg" xmlns:xlink="http://www.w3.org/1999/xlink" width="28pt" height="28pt" viewBox="0 0 28 28" version="1.1">
<g id="surface1">
<path style=" stroke:none;fill-rule:nonzero;fill:rgb(0%,0%,0%);fill-opacity:1;" d="M 14 0 C 6.269531 0 0 6.269531 0 14 C 0 21.730469 6.269531 28 14 28 C 21.730469 28 28 21.730469 28 14 C 28 6.269531 21.730469 0 14 0 Z M 20.8125 9.28125 L 17.785156 12.148438 L 19.703125 19.882812 L 18.558594 21.027344 L 14.894531 15.050781 L 14.808594 14.964844 L 11.039062 18.535156 C 11.019531 18.558594 10.996094 18.574219 10.972656 18.59375 L 10.851562 21.34375 L 6.65625 17.148438 L 9.40625 17.027344 C 9.425781 17.003906 9.441406 16.980469 9.464844 16.960938 L 13.03125 13.191406 L 13.003906 13.160156 L 6.972656 9.441406 L 8.117188 8.296875 L 15.816406 10.253906 L 18.714844 7.1875 C 19.296875 6.609375 20.234375 6.609375 20.8125 7.1875 C 21.390625 7.765625 21.390625 8.703125 20.8125 9.28125 Z M 20.8125 9.28125 "/>
</g>
</svg>
