<?xml version="1.0" encoding="UTF-8"?>
<svg xmlns="http://www.w3.org/2000/svg" xmlns:xlink="http://www.w3.org/1999/xlink" width="28pt" height="28pt" viewBox="0 0 28 28" version="1.1">
<g id="surface1">
<path style=" stroke:none;fill-rule:nonzero;fill:rgb(0%,0%,0%);fill-opacity:1;" d="M 26.539062 11.511719 L 22.625 10.867188 L 23.816406 9.675781 C 24.035156 9.457031 24.335938 9.332031 24.640625 9.332031 L 27.417969 9.332031 C 27.738281 9.332031 28 9.074219 28 8.75 C 28 8.425781 27.738281 8.167969 27.417969 8.167969 L 24.640625 8.167969 C 24.027344 8.167969 23.425781 8.414062 22.992188 8.851562 L 21.210938 10.632812 L 20.765625 10.558594 L 19.089844 8.039062 C 18.652344 7.386719 17.929688 7 17.148438 7 L 8.519531 7 C 7.738281 7 7.011719 7.386719 6.578125 8.039062 L 4.890625 10.574219 L 1.328125 11.464844 C 0.546875 11.65625 0 12.355469 0 13.160156 L 0 16.09375 C 0 16.78125 0.269531 17.425781 0.753906 17.914062 C 1.234375 18.390625 1.898438 18.667969 2.574219 18.667969 L 4.082031 18.667969 C 4.105469 18.667969 4.121094 18.65625 4.140625 18.65625 C 4.40625 19.988281 5.585938 21 7 21 C 8.414062 21 9.589844 19.992188 9.859375 18.65625 C 9.878906 18.660156 9.894531 18.667969 9.914062 18.667969 L 17.5 18.667969 C 17.519531 18.667969 17.539062 18.65625 17.558594 18.65625 C 17.824219 19.988281 19.003906 21 20.417969 21 C 21.828125 21 23.007812 19.988281 23.277344 18.65625 C 23.296875 18.65625 23.3125 18.667969 23.332031 18.667969 L 25.890625 18.667969 C 26.335938 18.667969 26.734375 18.421875 26.933594 18.023438 L 27.875 16.132812 C 27.898438 16.09375 27.914062 16.050781 27.921875 16.003906 L 27.984375 15.746094 C 27.996094 15.699219 28 15.65625 28 15.613281 L 28 13.238281 C 28 12.378906 27.382812 11.652344 26.539062 11.511719 Z M 7 19.832031 C 6.035156 19.832031 5.25 19.046875 5.25 18.082031 C 5.25 17.117188 6.035156 16.332031 7 16.332031 C 7.964844 16.332031 8.75 17.117188 8.75 18.082031 C 8.75 19.046875 7.964844 19.832031 7 19.832031 Z M 6.339844 10.5 L 7.550781 8.6875 C 7.765625 8.359375 8.128906 8.167969 8.519531 8.167969 L 17.148438 8.167969 C 17.539062 8.167969 17.902344 8.359375 18.117188 8.6875 L 19.328125 10.5 Z M 20.417969 19.832031 C 19.453125 19.832031 18.667969 19.046875 18.667969 18.082031 C 18.667969 17.117188 19.453125 16.332031 20.417969 16.332031 C 21.382812 16.332031 22.167969 17.117188 22.167969 18.082031 C 22.167969 19.046875 21.382812 19.832031 20.417969 19.832031 Z M 20.417969 19.832031 "/>
</g>
</svg>
