<?xml version="1.0" encoding="UTF-8"?>
<svg xmlns="http://www.w3.org/2000/svg" xmlns:xlink="http://www.w3.org/1999/xlink" width="28pt" height="28pt" viewBox="0 0 28 28" version="1.1">
<g id="surface1">
<path style=" stroke:none;fill-rule:nonzero;fill:rgb(0%,0%,0%);fill-opacity:1;" d="M 26.792969 2.289062 C 27.277344 1.804688 27.515625 1.367188 27.515625 0.976562 C 27.515625 0.71875 27.414062 0.511719 27.214844 0.363281 C 27.011719 0.210938 26.796875 0.113281 26.574219 0.0664062 C 26.351562 0.0234375 26.109375 0 25.851562 0 L 2.152344 0 C 1.894531 0 1.65625 0.0234375 1.429688 0.0664062 C 1.207031 0.113281 0.992188 0.210938 0.789062 0.363281 C 0.589844 0.511719 0.488281 0.71875 0.488281 0.976562 C 0.488281 1.367188 0.730469 1.804688 1.210938 2.289062 L 11.847656 12.925781 L 11.847656 25.851562 L 6.460938 25.851562 C 6.171875 25.851562 5.917969 25.957031 5.707031 26.171875 C 5.492188 26.382812 5.386719 26.636719 5.386719 26.929688 C 5.386719 27.21875 5.492188 27.472656 5.707031 27.683594 C 5.917969 27.898438 6.171875 28.003906 6.460938 28.003906 L 21.542969 28.003906 C 21.835938 28.003906 22.085938 27.898438 22.300781 27.683594 C 22.511719 27.472656 22.621094 27.21875 22.621094 26.929688 C 22.621094 26.636719 22.511719 26.382812 22.300781 26.171875 C 22.085938 25.957031 21.835938 25.851562 21.542969 25.851562 L 16.15625 25.851562 L 16.15625 12.925781 Z M 26.792969 2.289062 "/>
</g>
</svg>
