<?xml version="1.0" encoding="UTF-8"?>
<svg xmlns="http://www.w3.org/2000/svg" xmlns:xlink="http://www.w3.org/1999/xlink" width="28pt" height="28pt" viewBox="0 0 28 28" version="1.1">
<g id="surface1">
<path style=" stroke:none;fill-rule:nonzero;fill:rgb(0%,0%,0%);fill-opacity:1;" d="M 23.378906 9.730469 C 24.238281 8.886719 24.773438 7.714844 24.773438 6.414062 C 24.773438 6.171875 24.753906 5.933594 24.714844 5.699219 L 21.878906 6.511719 L 21.484375 6.972656 Z M 23.378906 9.730469 "/>
<path style=" stroke:none;fill-rule:nonzero;fill:rgb(0%,0%,0%);fill-opacity:1;" d="M 20.847656 1.832031 L 20.847656 5.128906 L 21.515625 5.128906 L 24.28125 4.335938 C 23.621094 3.019531 22.351562 2.0625 20.847656 1.832031 Z M 20.847656 1.832031 "/>
<path style=" stroke:none;fill-rule:nonzero;fill:rgb(0%,0%,0%);fill-opacity:1;" d="M 17.945312 10.507812 C 18.597656 10.855469 19.339844 11.054688 20.132812 11.054688 C 20.878906 11.054688 21.585938 10.878906 22.214844 10.5625 L 20.453125 8 Z M 17.945312 10.507812 "/>
<path style=" stroke:none;fill-rule:nonzero;fill:rgb(0%,0%,0%);fill-opacity:1;" d="M 19.414062 1.832031 C 17.980469 2.054688 16.757812 2.933594 16.078125 4.15625 L 18.976562 5.128906 L 19.414062 5.128906 Z M 19.414062 1.832031 "/>
<path style=" stroke:none;fill-rule:nonzero;fill:rgb(0%,0%,0%);fill-opacity:1;" d="M 24.667969 1.878906 C 23.457031 0.667969 21.84375 0 20.132812 0 C 18.417969 0 16.808594 0.667969 15.59375 1.878906 C 14.691406 2.78125 14.09375 3.90625 13.84375 5.128906 L 15.019531 5.128906 C 15.597656 2.84375 17.671875 1.144531 20.132812 1.144531 C 23.039062 1.144531 25.402344 3.507812 25.402344 6.414062 C 25.402344 9.320312 23.039062 11.6875 20.132812 11.6875 C 19.167969 11.6875 18.261719 11.425781 17.484375 10.96875 L 16.648438 11.804688 C 17.675781 12.472656 18.875 12.832031 20.132812 12.832031 C 21.84375 12.832031 23.457031 12.164062 24.667969 10.953125 C 25.878906 9.742188 26.546875 8.128906 26.546875 6.414062 C 26.546875 4.703125 25.878906 3.089844 24.667969 1.878906 Z M 24.667969 1.878906 "/>
<path style=" stroke:none;fill-rule:nonzero;fill:rgb(0%,0%,0%);fill-opacity:1;" d="M 12.082031 26.175781 L 12.082031 14.875 L 20.46875 6.488281 L 20.46875 5.867188 L 1.4375 5.867188 L 1.4375 6.488281 L 9.824219 14.875 L 9.824219 26.175781 L 6.738281 26.175781 L 6.078125 27.984375 L 15.828125 27.984375 L 15.164062 26.175781 Z M 12.082031 26.175781 "/>
<path style=" stroke:none;fill-rule:nonzero;fill:rgb(0%,0%,0%);fill-opacity:1;" d="M 8.085938 5.128906 L 4.023438 1.0625 L 3.207031 1.878906 L 6.457031 5.128906 Z M 8.085938 5.128906 "/>
</g>
</svg>
