<?xml version="1.0" encoding="UTF-8"?>
<svg xmlns="http://www.w3.org/2000/svg" xmlns:xlink="http://www.w3.org/1999/xlink" width="28pt" height="28pt" viewBox="0 0 28 28" version="1.1">
<g id="surface1">
<path style=" stroke:none;fill-rule:nonzero;fill:rgb(0%,0%,0%);fill-opacity:1;" d="M 27.261719 0.648438 L 0.738281 0.648438 C 0.332031 0.648438 0 0.976562 0 1.382812 L 0 26.617188 C 0 27.023438 0.332031 27.351562 0.738281 27.351562 L 0.839844 27.351562 C 1.246094 27.351562 1.574219 27.023438 1.574219 26.617188 L 1.574219 20.5 L 2.621094 20.5 L 2.621094 26.070312 C 2.621094 26.398438 2.875 26.652344 3.199219 26.652344 C 3.214844 26.652344 3.230469 26.652344 3.246094 26.652344 L 11.746094 25.980469 C 12.070312 25.953125 12.324219 25.679688 12.324219 25.355469 L 12.324219 5.726562 C 12.324219 5.414062 12.082031 5.132812 11.777344 5.085938 L 3.269531 3.742188 C 3.238281 3.734375 3.207031 3.734375 3.179688 3.734375 C 2.863281 3.734375 2.621094 3.980469 2.621094 4.296875 L 2.621094 7.0625 L 1.574219 7.0625 L 1.574219 2.300781 C 1.574219 2.265625 1.605469 2.234375 1.640625 2.234375 L 26.359375 2.234375 C 26.394531 2.234375 26.425781 2.265625 26.425781 2.300781 L 26.425781 7.0625 L 25.378906 7.0625 L 25.378906 4.296875 C 25.378906 3.980469 25.136719 3.734375 24.820312 3.734375 C 24.792969 3.734375 24.761719 3.734375 24.730469 3.742188 L 16.222656 5.085938 C 15.917969 5.132812 15.675781 5.414062 15.675781 5.726562 L 15.675781 25.355469 C 15.675781 25.679688 15.929688 25.953125 16.253906 25.980469 L 24.753906 26.652344 C 24.769531 26.652344 24.785156 26.652344 24.800781 26.652344 C 24.957031 26.652344 25.101562 26.59375 25.210938 26.484375 C 25.320312 26.375 25.378906 26.226562 25.378906 26.070312 L 25.378906 20.5 L 26.425781 20.5 L 26.425781 26.617188 C 26.425781 27.023438 26.753906 27.351562 27.160156 27.351562 L 27.261719 27.351562 C 27.667969 27.351562 28 27.023438 28 26.617188 L 28 1.382812 C 28 0.976562 27.667969 0.648438 27.261719 0.648438 Z M 10.632812 13.539062 C 10.632812 13.351562 10.78125 13.203125 10.964844 13.203125 C 11.152344 13.203125 11.300781 13.351562 11.300781 13.539062 L 11.300781 16.527344 C 11.300781 16.710938 11.152344 16.863281 10.964844 16.863281 C 10.78125 16.863281 10.632812 16.710938 10.632812 16.527344 Z M 2.621094 9.117188 L 2.621094 18.445312 L 1.574219 18.445312 L 1.574219 9.117188 Z M 17.441406 16.527344 C 17.441406 16.710938 17.292969 16.863281 17.109375 16.863281 C 16.921875 16.863281 16.773438 16.710938 16.773438 16.527344 L 16.773438 13.539062 C 16.773438 13.351562 16.921875 13.203125 17.109375 13.203125 C 17.292969 13.203125 17.441406 13.351562 17.441406 13.539062 Z M 26.425781 18.445312 L 25.378906 18.445312 L 25.378906 9.117188 L 26.425781 9.117188 Z M 26.425781 18.445312 "/>
</g>
</svg>
