<?xml version="1.0" encoding="UTF-8"?>
<svg xmlns="http://www.w3.org/2000/svg" xmlns:xlink="http://www.w3.org/1999/xlink" width="28pt" height="28pt" viewBox="0 0 28 28" version="1.1">
<g id="surface1">
<path style=" stroke:none;fill-rule:nonzero;fill:rgb(0.392157%,0%,0.784314%);fill-opacity:1;" d="M 25.496094 8.007812 C 21.796875 1.929688 16.226562 6.15625 16.226562 6.15625 C 15.867188 6.429688 15.199219 6.65625 14.746094 6.65625 L 13.253906 6.65625 C 12.800781 6.65625 12.136719 6.433594 11.773438 6.160156 C 11.773438 6.160156 6.203125 1.933594 2.503906 8.007812 C -1.195312 14.082031 0.296875 20.695312 0.296875 20.695312 C 0.558594 22.316406 1.417969 23.398438 3.042969 23.261719 C 4.660156 23.125 8.175781 18.898438 8.175781 18.898438 C 8.464844 18.550781 9.074219 18.265625 9.527344 18.265625 L 18.472656 18.265625 C 18.925781 18.265625 19.53125 18.550781 19.820312 18.898438 C 19.820312 18.898438 23.335938 23.125 24.957031 23.261719 C 26.582031 23.394531 27.441406 22.3125 27.703125 20.695312 C 27.703125 20.695312 29.195312 14.082031 25.496094 8.007812 Z M 10.636719 12.953125 L 8.71875 12.953125 L 8.71875 14.800781 C 8.71875 14.800781 8.3125 15.109375 7.683594 15.101562 C 7.058594 15.09375 6.773438 14.765625 6.773438 14.765625 L 6.773438 12.953125 L 4.960938 12.953125 C 4.960938 12.953125 4.734375 12.722656 4.675781 12.109375 C 4.613281 11.5 4.925781 11.007812 4.925781 11.007812 L 6.84375 11.007812 L 6.84375 9.089844 C 6.84375 9.089844 7.238281 8.875 7.804688 8.894531 C 8.375 8.910156 8.789062 9.125 8.789062 9.125 L 8.78125 11.007812 L 10.59375 11.007812 C 10.59375 11.007812 10.910156 11.414062 10.9375 11.902344 C 10.960938 12.394531 10.636719 12.953125 10.636719 12.953125 Z M 19.4375 15.058594 C 18.597656 15.058594 17.917969 14.378906 17.917969 13.542969 C 17.917969 12.699219 18.597656 12.023438 19.4375 12.023438 C 20.273438 12.023438 20.957031 12.699219 20.957031 13.542969 C 20.957031 14.378906 20.273438 15.058594 19.4375 15.058594 Z M 19.4375 10.882812 C 18.597656 10.882812 17.917969 10.203125 17.917969 9.363281 C 17.917969 8.523438 18.597656 7.84375 19.4375 7.84375 C 20.273438 7.84375 20.957031 8.523438 20.957031 9.363281 C 20.957031 10.203125 20.273438 10.882812 19.4375 10.882812 Z M 23.21875 13.125 C 22.378906 13.125 21.699219 12.445312 21.699219 11.605469 C 21.699219 10.765625 22.378906 10.085938 23.21875 10.085938 C 24.054688 10.085938 24.738281 10.765625 24.738281 11.605469 C 24.738281 12.445312 24.054688 13.125 23.21875 13.125 Z M 23.21875 13.125 "/>
</g>
</svg>
