<?xml version="1.0" encoding="UTF-8"?>
<svg xmlns="http://www.w3.org/2000/svg" xmlns:xlink="http://www.w3.org/1999/xlink" width="28pt" height="28pt" viewBox="0 0 28 28" version="1.1">
<g id="surface1">
<path style=" stroke:none;fill-rule:nonzero;fill:rgb(0%,0%,0%);fill-opacity:1;" d="M 6.421875 13 L 6.863281 14.996094 L 9.042969 13.949219 L 9.078125 13.949219 L 9.078125 23.023438 L 11.683594 23.023438 L 11.683594 11.585938 L 9.449219 11.585938 Z M 6.421875 13 "/>
<path style=" stroke:none;fill-rule:nonzero;fill:rgb(0%,0%,0%);fill-opacity:1;" d="M 20.09375 16.347656 C 19.289062 15.765625 18.179688 15.519531 17.089844 15.519531 C 16.808594 15.519531 16.59375 15.523438 16.347656 15.558594 L 16.59375 13.804688 L 21.046875 13.804688 L 21.046875 11.585938 L 14.730469 11.585938 L 13.976562 17.589844 C 14.453125 17.519531 14.890625 17.484375 15.523438 17.484375 C 17.808594 17.484375 18.742188 18.210938 18.742188 19.386719 C 18.742188 20.601562 17.5625 21.128906 16.457031 21.128906 C 15.417969 21.128906 14.382812 20.8125 13.871094 20.566406 L 13.394531 22.570312 C 14.03125 22.902344 15.191406 23.21875 16.578125 23.21875 C 19.65625 23.21875 21.484375 21.339844 21.484375 19.210938 C 21.484375 17.875 20.957031 16.925781 20.09375 16.347656 Z M 20.09375 16.347656 "/>
<path style=" stroke:none;fill-rule:nonzero;fill:rgb(0%,0%,0%);fill-opacity:1;" d="M 24.621094 1.730469 L 24.621094 3.125 C 24.621094 4.53125 23.464844 5.695312 22.058594 5.695312 L 21.929688 5.695312 C 20.523438 5.695312 19.355469 4.53125 19.355469 3.125 L 19.355469 1.546875 L 16.558594 1.546875 L 16.558594 3.125 C 16.558594 4.53125 15.390625 5.695312 13.984375 5.695312 L 13.855469 5.695312 C 12.449219 5.695312 11.296875 4.53125 11.296875 3.125 L 11.296875 1.546875 L 8.449219 1.546875 L 8.449219 3.125 C 8.449219 4.53125 7.320312 5.695312 5.914062 5.695312 L 5.785156 5.695312 C 4.378906 5.695312 3.234375 4.53125 3.234375 3.125 L 3.234375 1.753906 C 1.59375 2.292969 0.4375 3.828125 0.4375 5.636719 L 0.4375 23.828125 C 0.4375 26.085938 2.261719 27.898438 4.519531 27.898438 L 23.386719 27.898438 C 25.644531 27.898438 27.464844 26.085938 27.464844 23.828125 L 27.464844 5.636719 C 27.464844 3.804688 26.261719 2.25 24.621094 1.730469 Z M 25.441406 23.453125 C 25.441406 24.757812 24.386719 25.824219 23.082031 25.824219 L 4.828125 25.824219 C 3.519531 25.824219 2.464844 24.757812 2.464844 23.453125 L 2.464844 10.527344 C 2.464844 9.636719 3.179688 8.929688 4.070312 8.929688 L 23.835938 8.929688 C 24.726562 8.929688 25.441406 9.636719 25.441406 10.527344 Z M 25.441406 23.453125 "/>
<path style=" stroke:none;fill-rule:nonzero;fill:rgb(0%,0%,0%);fill-opacity:1;" d="M 5.785156 4.441406 L 5.914062 4.441406 C 6.320312 4.441406 6.679688 4.269531 6.921875 3.988281 C 7.125 3.753906 7.242188 3.457031 7.242188 3.125 L 7.242188 1.316406 C 7.242188 0.953125 7.101562 0.621094 6.863281 0.378906 C 6.859375 0.378906 6.859375 0.375 6.859375 0.375 C 6.855469 0.371094 6.855469 0.378906 6.855469 0.378906 C 6.613281 0.140625 6.28125 0 5.914062 0 L 5.785156 0 C 5.417969 0 5.085938 0.140625 4.847656 0.378906 C 4.84375 0.378906 4.84375 0.375 4.84375 0.378906 C 4.839844 0.378906 4.835938 0.378906 4.832031 0.382812 C 4.59375 0.621094 4.445312 0.949219 4.445312 1.316406 L 4.445312 3.125 C 4.445312 3.457031 4.570312 3.753906 4.769531 3.988281 C 5.015625 4.273438 5.382812 4.441406 5.785156 4.441406 Z M 5.785156 4.441406 "/>
<path style=" stroke:none;fill-rule:nonzero;fill:rgb(0%,0%,0%);fill-opacity:1;" d="M 13.097656 4.230469 C 13.097656 4.230469 13.105469 4.230469 13.105469 4.234375 C 13.109375 4.234375 13.117188 4.226562 13.121094 4.230469 C 13.332031 4.371094 13.585938 4.441406 13.859375 4.441406 L 13.988281 4.441406 C 14.214844 4.441406 14.429688 4.394531 14.617188 4.292969 C 14.621094 4.292969 14.621094 4.296875 14.625 4.296875 C 14.628906 4.292969 14.625 4.292969 14.628906 4.289062 C 15.039062 4.0625 15.304688 3.628906 15.304688 3.125 L 15.304688 1.316406 C 15.304688 0.882812 15.105469 0.496094 14.785156 0.253906 C 14.78125 0.25 14.785156 0.25 14.78125 0.246094 L 14.785156 0.257812 C 14.5625 0.0898438 14.289062 0 13.988281 0 L 13.859375 0 C 13.511719 0 13.199219 0.121094 12.960938 0.335938 C 12.960938 0.335938 12.960938 0.332031 12.960938 0.332031 C 12.957031 0.335938 12.945312 0.335938 12.945312 0.339844 C 12.679688 0.582031 12.503906 0.929688 12.503906 1.316406 L 12.503906 3.128906 C 12.503906 3.585938 12.746094 3.988281 13.097656 4.230469 Z M 13.097656 4.230469 "/>
<path style=" stroke:none;fill-rule:nonzero;fill:rgb(0%,0%,0%);fill-opacity:1;" d="M 21.929688 4.441406 L 22.058594 4.441406 C 22.464844 4.441406 22.835938 4.269531 23.082031 3.988281 C 23.28125 3.753906 23.414062 3.457031 23.414062 3.125 L 23.414062 1.316406 C 23.414062 0.8125 23.125 0.375 22.710938 0.144531 C 22.707031 0.144531 22.703125 0.144531 22.699219 0.140625 C 22.667969 0.125 22.632812 0.109375 22.597656 0.09375 C 22.589844 0.0898438 22.585938 0.0898438 22.582031 0.0859375 C 22.570312 0.0820312 22.5625 0.0820312 22.554688 0.078125 C 22.542969 0.0703125 22.53125 0.0664062 22.519531 0.0625 C 22.511719 0.0585938 22.507812 0.0585938 22.5 0.0546875 C 22.484375 0.0507812 22.46875 0.0546875 22.457031 0.0507812 C 22.332031 0.0117188 22.199219 0 22.058594 0 L 21.929688 0 C 21.863281 0 21.804688 -0.00390625 21.738281 0.0078125 C 21.09375 0.105469 20.613281 0.648438 20.613281 1.316406 L 20.613281 3.125 C 20.613281 3.863281 21.191406 4.441406 21.929688 4.441406 Z M 21.929688 4.441406 "/>
</g>
</svg>
