<?xml version="1.0" encoding="UTF-8"?>
<svg xmlns="http://www.w3.org/2000/svg" xmlns:xlink="http://www.w3.org/1999/xlink" width="28pt" height="28pt" viewBox="0 0 28 28" version="1.1">
<g id="surface1">
<path style=" stroke:none;fill-rule:nonzero;fill:rgb(0%,0%,0%);fill-opacity:1;" d="M 22.050781 0.800781 C 20.984375 0.292969 15.046875 8.902344 15.046875 8.902344 C 15.046875 8.902344 15.011719 10.3125 15.425781 11.433594 C 15.796875 11.453125 16.15625 11.535156 16.496094 11.699219 C 16.988281 11.933594 17.375 12.296875 17.644531 12.726562 C 18.878906 12.417969 20.152344 11.339844 20.152344 11.339844 C 20.152344 11.339844 23.113281 1.308594 22.050781 0.800781 Z M 22.050781 0.800781 "/>
<path style=" stroke:none;fill-rule:nonzero;fill:rgb(0%,0%,0%);fill-opacity:1;" d="M 17.816406 15.359375 C 17.808594 15.367188 17.808594 15.378906 17.800781 15.390625 C 17.472656 16.078125 16.871094 16.589844 16.164062 16.820312 C 15.804688 17.953125 15.878906 19.328125 15.878906 19.328125 C 15.878906 19.328125 22.097656 27.738281 23.148438 27.195312 C 24.195312 26.652344 20.902344 16.722656 20.902344 16.722656 C 20.902344 16.722656 19.1875 15.363281 17.816406 15.359375 Z M 17.816406 15.359375 "/>
<path style=" stroke:none;fill-rule:nonzero;fill:rgb(0%,0%,0%);fill-opacity:1;" d="M 0 13.78125 C -0.0585938 14.960938 10.179688 17.105469 10.179688 17.105469 C 10.179688 17.105469 11.992188 16.394531 12.78125 15.324219 C 12.496094 14.683594 12.453125 13.9375 12.710938 13.238281 C 11.949219 12.214844 10.453125 11.457031 10.453125 11.457031 C 10.453125 11.457031 0.0585938 12.601562 0 13.78125 Z M 0 13.78125 "/>
<path style=" stroke:none;fill-rule:nonzero;fill:rgb(0%,0%,0%);fill-opacity:1;" d="M 13.265625 13.222656 C 13.15625 13.445312 13.101562 13.679688 13.070312 13.917969 C 13.039062 14.167969 13.050781 14.421875 13.105469 14.671875 C 13.125 14.765625 13.140625 14.859375 13.171875 14.953125 C 13.375 15.519531 13.785156 15.976562 14.332031 16.238281 C 14.636719 16.386719 14.964844 16.460938 15.304688 16.460938 C 15.71875 16.460938 16.117188 16.34375 16.460938 16.136719 C 16.734375 15.972656 16.972656 15.753906 17.160156 15.488281 C 17.230469 15.386719 17.292969 15.285156 17.347656 15.171875 C 17.730469 14.371094 17.589844 13.460938 17.078125 12.808594 C 16.871094 12.539062 16.605469 12.3125 16.28125 12.15625 C 16.085938 12.0625 15.882812 12.011719 15.675781 11.976562 C 15.554688 11.957031 15.433594 11.933594 15.308594 11.933594 C 14.441406 11.933594 13.636719 12.441406 13.265625 13.222656 Z M 13.265625 13.222656 "/>
<path style=" stroke:none;fill-rule:nonzero;fill:rgb(0%,0%,0%);fill-opacity:1;" d="M 6.1875 19.566406 L 5.753906 19.820312 C 6.875 21.726562 8.527344 23.242188 10.53125 24.199219 C 11.15625 24.5 11.8125 24.734375 12.476562 24.910156 L 11.304688 26.601562 L 16.480469 24.964844 L 11.640625 22.507812 L 12.542969 24.40625 C 11.929688 24.238281 11.328125 24.019531 10.75 23.742188 C 8.835938 22.828125 7.257812 21.382812 6.1875 19.566406 Z M 6.1875 19.566406 "/>
<path style=" stroke:none;fill-rule:nonzero;fill:rgb(0%,0%,0%);fill-opacity:1;" d="M 23.929688 7.644531 L 24.316406 13.058594 L 25.472656 11.316406 C 26.175781 13.796875 25.964844 16.417969 24.851562 18.753906 C 24.683594 19.105469 24.492188 19.453125 24.289062 19.78125 L 24.71875 20.046875 C 24.933594 19.703125 25.128906 19.339844 25.308594 18.972656 C 26.488281 16.496094 26.699219 13.71875 25.933594 11.097656 L 28 11.238281 Z M 23.929688 7.644531 "/>
<path style=" stroke:none;fill-rule:nonzero;fill:rgb(0%,0%,0%);fill-opacity:1;" d="M 7.675781 6.167969 L 6.835938 4.261719 L 5.53125 9.53125 L 10.15625 6.683594 L 8.09375 6.464844 C 9.648438 5.019531 11.636719 4.050781 13.746094 3.734375 L 13.671875 3.234375 C 11.425781 3.570312 9.316406 4.613281 7.675781 6.167969 Z M 7.675781 6.167969 "/>
</g>
</svg>
