<?xml version="1.0" encoding="UTF-8"?>
<svg xmlns="http://www.w3.org/2000/svg" xmlns:xlink="http://www.w3.org/1999/xlink" width="28pt" height="28pt" viewBox="0 0 28 28" version="1.1">
<g id="surface1">
<path style=" stroke:none;fill-rule:nonzero;fill:rgb(0%,0%,0%);fill-opacity:1;" d="M 15.871094 13.675781 L 15.464844 8.269531 C 15.433594 7.675781 14.867188 7.191406 14.214844 7.191406 L 14.214844 0.4375 C 14.214844 0.195312 14.019531 0 13.777344 0 C 13.535156 0 13.339844 0.195312 13.339844 0.4375 L 13.339844 7.191406 C 12.683594 7.191406 12.359375 7.675781 12.328125 8.269531 L 12.101562 13.675781 C 7.328125 14.550781 3.726562 18.878906 3.726562 23.902344 C 3.726562 24.023438 3.851562 24.261719 3.972656 24.261719 L 10.53125 24.261719 C 10.511719 24.480469 10.5 24.417969 10.5 24.570312 C 10.5 26.5 12.070312 28 14 28 C 15.933594 28 17.503906 26.535156 17.503906 24.601562 C 17.503906 24.453125 17.492188 24.480469 17.472656 24.261719 L 24.054688 24.261719 C 24.175781 24.261719 24.273438 24.023438 24.273438 23.902344 C 24.273438 18.878906 20.644531 14.550781 15.871094 13.675781 Z M 14 27.125 C 12.550781 27.125 11.375 26.050781 11.375 24.601562 C 11.375 24.453125 11.390625 24.480469 11.417969 24.261719 L 16.585938 24.261719 C 16.613281 24.480469 16.628906 24.417969 16.628906 24.570312 C 16.628906 26.019531 15.449219 27.125 14 27.125 Z M 14 27.125 "/>
</g>
</svg>
