<?xml version="1.0" encoding="UTF-8"?>
<svg xmlns="http://www.w3.org/2000/svg" xmlns:xlink="http://www.w3.org/1999/xlink" width="28pt" height="28pt" viewBox="0 0 28 28" version="1.1">
<g id="surface1">
<path style=" stroke:none;fill-rule:nonzero;fill:rgb(0%,0%,0%);fill-opacity:1;" d="M 18.261719 12.175781 L 18.261719 7.914062 C 18.261719 7.578125 17.988281 7.304688 17.652344 7.304688 L 14.609375 7.304688 L 14.609375 0.609375 C 14.609375 0.273438 14.335938 0 14 0 C 13.664062 0 13.390625 0.273438 13.390625 0.609375 L 13.390625 7.304688 L 10.347656 7.304688 C 10.011719 7.304688 9.738281 7.578125 9.738281 7.914062 L 9.738281 12.175781 C 8.4375 12.175781 7.214844 12.679688 6.296875 13.601562 C 5.375 14.519531 4.871094 15.742188 4.871094 17.042969 L 4.871094 23.128906 C 4.871094 23.800781 5.414062 24.347656 6.085938 24.347656 L 9.789062 24.347656 C 10.085938 26.410156 11.859375 28 14 28 C 16.140625 28 17.914062 26.410156 18.210938 24.347656 L 21.914062 24.347656 C 22.585938 24.347656 23.128906 23.800781 23.128906 23.128906 L 23.128906 17.042969 C 23.128906 14.359375 20.945312 12.175781 18.261719 12.175781 Z M 10.957031 8.523438 L 17.042969 8.523438 L 17.042969 12.175781 C 15.421875 12.175781 12.578125 12.175781 10.957031 12.175781 Z M 14 26.78125 C 12.53125 26.78125 11.300781 25.734375 11.019531 24.347656 L 16.980469 24.347656 C 16.699219 25.734375 15.46875 26.78125 14 26.78125 Z M 21.914062 23.128906 L 6.085938 23.128906 L 6.085938 20.695312 L 21.914062 20.695312 Z M 21.914062 19.476562 L 6.085938 19.476562 L 6.085938 17.042969 C 6.085938 16.066406 6.464844 15.152344 7.15625 14.460938 C 7.847656 13.773438 8.761719 13.390625 9.738281 13.390625 L 17.894531 13.390625 C 18.007812 13.390625 18.136719 13.390625 18.261719 13.378906 L 18.261719 13.390625 C 20.273438 13.390625 21.914062 15.03125 21.914062 17.042969 Z M 21.914062 19.476562 "/>
</g>
</svg>
