<?xml version="1.0" encoding="UTF-8"?>
<svg xmlns="http://www.w3.org/2000/svg" xmlns:xlink="http://www.w3.org/1999/xlink" width="28pt" height="28pt" viewBox="0 0 28 28" version="1.1">
<g id="surface1">
<path style=" stroke:none;fill-rule:nonzero;fill:rgb(0%,0%,0%);fill-opacity:1;" d="M 15.613281 0 C 13.28125 0 11.375 1.847656 11.277344 4.160156 L 10.851562 4.160156 L 10.851562 4.710938 C 9.238281 4.84375 8.042969 5.332031 8.042969 5.90625 L 8.660156 5.90625 C 8.558594 6.226562 8.503906 6.558594 8.503906 6.898438 C 8.503906 8.683594 9.960938 10.140625 11.746094 10.140625 C 13.535156 10.140625 14.992188 8.683594 14.992188 6.898438 C 14.992188 6.558594 14.9375 6.226562 14.835938 5.90625 L 15.453125 5.90625 C 15.453125 5.332031 14.257812 4.84375 12.644531 4.710938 L 12.644531 4.160156 L 12.265625 4.160156 C 12.359375 2.394531 13.828125 0.988281 15.613281 0.988281 C 17.464844 0.988281 18.96875 2.492188 18.96875 4.34375 C 18.96875 6.117188 18.285156 6.628906 17.417969 7.269531 C 16.339844 8.070312 15.121094 8.980469 15.121094 12.140625 L 15.121094 19.175781 L 15.070312 19.175781 C 14.757812 19.175781 14.503906 19.429688 14.503906 19.742188 C 14.503906 19.917969 14.585938 20.074219 14.710938 20.179688 C 14.5 21.902344 13.050781 26.089844 14.203125 27.308594 L 14.203125 28 L 17.027344 28 L 17.027344 27.308594 C 18.175781 26.089844 16.730469 21.902344 16.519531 20.179688 C 16.644531 20.074219 16.722656 19.917969 16.722656 19.742188 C 16.722656 19.429688 16.472656 19.175781 16.15625 19.175781 L 16.109375 19.175781 L 16.109375 12.140625 C 16.109375 9.476562 17.03125 8.789062 18.007812 8.0625 C 18.921875 7.386719 19.957031 6.617188 19.957031 4.34375 C 19.957031 1.949219 18.007812 0 15.613281 0 Z M 14.371094 6.898438 C 14.371094 8.34375 13.195312 9.523438 11.746094 9.523438 C 10.300781 9.523438 9.121094 8.34375 9.121094 6.898438 C 9.121094 6.554688 9.1875 6.21875 9.316406 5.90625 L 14.179688 5.90625 C 14.304688 6.21875 14.371094 6.554688 14.371094 6.898438 Z M 14.371094 6.898438 "/>
</g>
</svg>
