<?xml version="1.0" encoding="UTF-8"?>
<svg xmlns="http://www.w3.org/2000/svg" xmlns:xlink="http://www.w3.org/1999/xlink" width="28pt" height="28pt" viewBox="0 0 28 28" version="1.1">
<g id="surface1">
<path style=" stroke:none;fill-rule:nonzero;fill:rgb(0%,0%,0%);fill-opacity:1;" d="M 3.3125 11.578125 C 1.488281 11.578125 0 13.0625 0 14.890625 L 0 22.359375 L 2.398438 22.359375 L 2.398438 23.714844 L 4.226562 23.714844 L 4.226562 22.359375 L 6.625 22.359375 L 6.625 14.890625 C 6.625 13.0625 5.140625 11.578125 3.3125 11.578125 Z M 3.3125 11.578125 "/>
<path style=" stroke:none;fill-rule:nonzero;fill:rgb(0%,0%,0%);fill-opacity:1;" d="M 24.6875 11.578125 C 22.859375 11.578125 21.375 13.0625 21.375 14.890625 L 21.375 22.359375 L 23.773438 22.359375 L 23.773438 23.714844 L 25.601562 23.714844 L 25.601562 22.359375 L 28 22.359375 L 28 14.890625 C 28 13.0625 26.511719 11.578125 24.6875 11.578125 Z M 24.6875 11.578125 "/>
<path style=" stroke:none;fill-rule:nonzero;fill:rgb(0%,0%,0%);fill-opacity:1;" d="M 8.453125 16.28125 L 19.546875 16.28125 L 19.546875 22.359375 L 8.453125 22.359375 Z M 8.453125 16.28125 "/>
<path style=" stroke:none;fill-rule:nonzero;fill:rgb(0%,0%,0%);fill-opacity:1;" d="M 21.070312 4.285156 L 6.929688 4.285156 C 4.429688 4.285156 2.398438 6.316406 2.398438 8.8125 L 2.398438 9.832031 C 2.695312 9.78125 3 9.75 3.3125 9.75 C 6 9.75 8.210938 11.824219 8.433594 14.457031 L 19.566406 14.457031 C 19.789062 11.824219 22 9.75 24.6875 9.75 C 25 9.75 25.304688 9.78125 25.601562 9.832031 L 25.601562 8.8125 C 25.601562 6.316406 23.570312 4.285156 21.070312 4.285156 Z M 21.070312 4.285156 "/>
</g>
</svg>
