<?xml version="1.0" encoding="UTF-8"?>
<svg xmlns="http://www.w3.org/2000/svg" xmlns:xlink="http://www.w3.org/1999/xlink" width="28pt" height="28pt" viewBox="0 0 28 28" version="1.1">
<g id="surface1">
<path style=" stroke:none;fill-rule:nonzero;fill:rgb(0%,0%,0%);fill-opacity:1;" d="M 19.441406 20.027344 L 18.734375 18.355469 C 18.558594 17.9375 18.152344 17.667969 17.699219 17.667969 C 17.546875 17.667969 17.402344 17.699219 17.261719 17.757812 L 13.507812 19.339844 C 12.933594 19.582031 12.664062 20.242188 12.90625 20.816406 L 13.609375 22.484375 C 13.789062 22.902344 14.195312 23.171875 14.648438 23.171875 C 14.796875 23.171875 14.945312 23.144531 15.085938 23.085938 L 18.839844 21.5 C 19.414062 21.257812 19.679688 20.597656 19.441406 20.027344 Z M 18.519531 20.742188 L 14.765625 22.324219 C 14.726562 22.339844 14.6875 22.351562 14.648438 22.351562 C 14.527344 22.351562 14.417969 22.277344 14.371094 22.164062 L 13.664062 20.496094 C 13.601562 20.34375 13.671875 20.164062 13.824219 20.101562 L 17.582031 18.515625 C 17.621094 18.5 17.660156 18.492188 17.699219 18.492188 C 17.820312 18.492188 17.929688 18.566406 17.976562 18.675781 L 18.679688 20.347656 C 18.746094 20.5 18.675781 20.675781 18.519531 20.742188 Z M 18.519531 20.742188 "/>
<path style=" stroke:none;fill-rule:nonzero;fill:rgb(0%,0%,0%);fill-opacity:1;" d="M 18.695312 10.484375 C 18.199219 10.128906 17.546875 9.929688 16.859375 9.929688 C 16.171875 9.929688 15.519531 10.128906 15.023438 10.484375 C 14.484375 10.871094 14.191406 11.398438 14.191406 11.96875 C 14.191406 12.539062 14.484375 13.066406 15.023438 13.453125 C 15.519531 13.8125 16.171875 14.007812 16.859375 14.007812 C 17.546875 14.007812 18.199219 13.8125 18.695312 13.453125 C 19.234375 13.066406 19.527344 12.539062 19.527344 11.96875 C 19.527344 11.398438 19.234375 10.871094 18.695312 10.484375 Z M 16.859375 13.183594 C 15.859375 13.183594 15.015625 12.628906 15.015625 11.96875 C 15.015625 11.3125 15.859375 10.753906 16.859375 10.753906 C 17.859375 10.753906 18.707031 11.3125 18.707031 11.96875 C 18.707031 12.628906 17.859375 13.183594 16.859375 13.183594 Z M 16.859375 13.183594 "/>
<path style=" stroke:none;fill-rule:nonzero;fill:rgb(0%,0%,0%);fill-opacity:1;" d="M 13.71875 16.257812 L 12.492188 13.492188 C 12.304688 13.070312 11.898438 12.777344 11.4375 12.730469 C 11.003906 12.6875 10.558594 12.601562 10.121094 12.601562 C 9.710938 12.601562 9.320312 12.800781 9.078125 13.132812 L 8.371094 14.09375 C 8.097656 14.464844 8.042969 14.960938 8.230469 15.386719 L 9.460938 18.152344 C 9.667969 18.617188 10.132812 18.921875 10.644531 18.921875 C 10.824219 18.921875 11 18.882812 11.167969 18.808594 L 13.0625 17.96875 C 13.378906 17.828125 13.621094 17.570312 13.746094 17.25 C 13.871094 16.925781 13.859375 16.574219 13.71875 16.257812 Z M 12.976562 16.953125 C 12.929688 17.070312 12.84375 17.164062 12.726562 17.214844 L 10.835938 18.054688 C 10.773438 18.082031 10.707031 18.097656 10.644531 18.097656 C 10.457031 18.097656 10.289062 17.988281 10.210938 17.816406 L 8.984375 15.050781 C 8.914062 14.898438 8.933594 14.71875 9.035156 14.582031 C 9.035156 14.582031 9.742188 13.621094 9.742188 13.617188 C 9.839844 13.488281 10.003906 13.414062 10.167969 13.429688 L 11.355469 13.550781 C 11.523438 13.566406 11.671875 13.671875 11.738281 13.828125 L 12.96875 16.59375 C 13.019531 16.707031 13.023438 16.835938 12.976562 16.953125 Z M 12.976562 16.953125 "/>
<path style=" stroke:none;fill-rule:nonzero;fill:rgb(0%,0%,0%);fill-opacity:1;" d="M 11 14.726562 C 11 15.007812 10.773438 15.238281 10.488281 15.238281 C 10.207031 15.238281 9.976562 15.007812 9.976562 14.726562 C 9.976562 14.441406 10.207031 14.210938 10.488281 14.210938 C 10.773438 14.210938 11 14.441406 11 14.726562 Z M 11 14.726562 "/>
<path style=" stroke:none;fill-rule:nonzero;fill:rgb(0%,0%,0%);fill-opacity:1;" d="M 27.589844 11.269531 C 27.816406 11.269531 28 11.085938 28 10.859375 L 28 9.078125 C 28 7.535156 26.746094 6.277344 25.199219 6.277344 L 24.058594 6.277344 C 23.875 5.917969 23.5 5.671875 23.066406 5.671875 L 21.734375 5.671875 C 21.304688 5.671875 20.929688 5.917969 20.742188 6.277344 L 19.34375 6.277344 L 19.34375 5.078125 C 19.34375 3.410156 17.984375 2.050781 16.316406 2.050781 L 11.683594 2.050781 C 10.015625 2.050781 8.65625 3.410156 8.65625 5.078125 L 8.65625 6.277344 L 7.257812 6.277344 C 7.070312 5.917969 6.695312 5.675781 6.265625 5.675781 L 4.933594 5.675781 C 4.5 5.675781 4.125 5.917969 3.941406 6.277344 L 2.800781 6.277344 C 1.253906 6.277344 0 7.535156 0 9.078125 L 0 19.152344 C 0 19.378906 0.183594 19.5625 0.410156 19.5625 C 0.640625 19.5625 0.824219 19.378906 0.824219 19.152344 L 0.824219 9.078125 C 0.824219 7.988281 1.710938 7.101562 2.800781 7.101562 L 3.8125 7.101562 L 3.8125 24.519531 L 2.800781 24.519531 C 1.710938 24.519531 0.824219 23.632812 0.824219 22.546875 L 0.824219 20.796875 C 0.824219 20.570312 0.640625 20.386719 0.410156 20.386719 C 0.183594 20.386719 0 20.570312 0 20.796875 L 0 22.546875 C 0 24.089844 1.253906 25.34375 2.800781 25.34375 L 3.941406 25.34375 C 4.125 25.703125 4.5 25.949219 4.933594 25.949219 L 6.265625 25.949219 C 6.695312 25.949219 7.070312 25.703125 7.257812 25.34375 L 20.742188 25.34375 C 20.929688 25.703125 21.304688 25.949219 21.734375 25.949219 L 23.066406 25.949219 C 23.5 25.949219 23.875 25.703125 24.058594 25.34375 L 25.199219 25.34375 C 26.746094 25.34375 28 24.089844 28 22.546875 L 28 12.507812 C 28 12.277344 27.816406 12.09375 27.589844 12.09375 C 27.359375 12.09375 27.175781 12.277344 27.175781 12.507812 L 27.175781 22.546875 C 27.175781 23.632812 26.289062 24.519531 25.199219 24.519531 L 24.1875 24.519531 L 24.1875 7.101562 L 25.199219 7.101562 C 26.289062 7.101562 27.175781 7.988281 27.175781 9.078125 L 27.175781 10.859375 C 27.175781 11.085938 27.359375 11.269531 27.589844 11.269531 Z M 9.480469 5.078125 C 9.480469 3.863281 10.46875 2.875 11.683594 2.875 L 16.316406 2.875 C 17.53125 2.875 18.519531 3.863281 18.519531 5.078125 L 18.519531 6.277344 L 17.144531 6.277344 L 17.144531 5.078125 C 17.144531 4.621094 16.773438 4.25 16.316406 4.25 L 11.683594 4.25 C 11.226562 4.25 10.855469 4.621094 10.855469 5.078125 L 10.855469 6.277344 L 9.480469 6.277344 Z M 16.320312 5.078125 L 16.320312 6.277344 L 11.679688 6.277344 L 11.679688 5.078125 C 11.679688 5.074219 11.679688 5.070312 11.683594 5.070312 L 16.316406 5.070312 C 16.320312 5.070312 16.320312 5.074219 16.320312 5.078125 Z M 20.617188 24.519531 L 7.382812 24.519531 L 7.382812 10.75 C 7.382812 10.519531 7.199219 10.335938 6.972656 10.335938 C 6.742188 10.335938 6.558594 10.519531 6.558594 10.75 L 6.558594 24.828125 C 6.558594 24.992188 6.425781 25.125 6.265625 25.125 L 4.933594 25.125 C 4.769531 25.125 4.636719 24.992188 4.636719 24.828125 L 4.636719 6.792969 C 4.636719 6.628906 4.769531 6.496094 4.933594 6.496094 L 6.265625 6.496094 C 6.425781 6.496094 6.558594 6.628906 6.558594 6.792969 L 6.558594 9.101562 C 6.558594 9.273438 6.671875 9.433594 6.835938 9.492188 C 7.097656 9.582031 7.382812 9.378906 7.382812 9.101562 L 7.382812 7.101562 L 20.617188 7.101562 Z M 23.363281 24.828125 C 23.363281 24.992188 23.230469 25.125 23.066406 25.125 L 21.734375 25.125 C 21.574219 25.125 21.441406 24.992188 21.441406 24.828125 L 21.441406 6.792969 C 21.441406 6.628906 21.574219 6.496094 21.734375 6.496094 L 23.066406 6.496094 C 23.230469 6.496094 23.363281 6.628906 23.363281 6.792969 Z M 23.363281 24.828125 "/>
</g>
</svg>
