<?xml version="1.0" encoding="UTF-8"?>
<svg xmlns="http://www.w3.org/2000/svg" xmlns:xlink="http://www.w3.org/1999/xlink" width="28pt" height="28pt" viewBox="0 0 28 28" version="1.1">
<g id="surface1">
<path style=" stroke:none;fill-rule:nonzero;fill:rgb(0%,0%,0%);fill-opacity:1;" d="M 27.832031 18.539062 L 24.929688 12.738281 C 21.210938 13.117188 19.953125 13.875 19.511719 14.441406 C 19.449219 14.566406 19.195312 14.882812 19.449219 15.640625 C 20.015625 17.59375 19.449219 18.917969 18.878906 19.671875 C 17.492188 21.5625 14.34375 22.382812 8.796875 22.382812 C 7.09375 22.382812 5.894531 22.761719 5.519531 23.328125 C 5.140625 23.894531 5.390625 24.90625 5.519531 25.21875 L 20.457031 25.21875 C 21.023438 25.21875 21.527344 24.90625 21.78125 24.464844 C 22.09375 24.023438 22.09375 23.390625 21.84375 22.949219 L 20.835938 20.871094 L 26.316406 20.871094 C 26.886719 20.871094 27.390625 20.554688 27.640625 20.113281 C 28.082031 19.609375 28.082031 19.042969 27.832031 18.539062 Z M 27.832031 18.539062 "/>
<path style=" stroke:none;fill-rule:nonzero;fill:rgb(0%,0%,0%);fill-opacity:1;" d="M 16.484375 17.84375 C 16.546875 17.71875 16.800781 17.402344 16.546875 16.523438 C 16.042969 14.757812 16.546875 13.496094 17.050781 12.738281 C 18.0625 11.226562 20.078125 10.34375 23.542969 9.839844 L 22.09375 6.878906 C 21.84375 6.3125 21.277344 5.996094 20.644531 5.996094 C 20.015625 5.996094 19.511719 6.3125 19.195312 6.878906 L 16.613281 12.109375 L 12.515625 3.664062 C 12.261719 3.097656 11.695312 2.78125 11.066406 2.78125 C 10.433594 2.78125 9.929688 3.097656 9.613281 3.664062 L 0.160156 22.886719 C -0.0898438 23.390625 -0.0273438 23.960938 0.222656 24.464844 C 0.539062 24.90625 1.042969 25.21875 1.546875 25.21875 L 2.429688 25.21875 C 2.242188 24.273438 2.175781 22.949219 2.996094 21.691406 C 4.003906 20.113281 5.960938 19.296875 8.859375 19.296875 C 14.53125 19.296875 16.105469 18.414062 16.484375 17.84375 Z M 16.484375 17.84375 "/>
</g>
</svg>
