<?xml version="1.0" encoding="UTF-8"?>
<svg xmlns="http://www.w3.org/2000/svg" xmlns:xlink="http://www.w3.org/1999/xlink" width="28pt" height="28pt" viewBox="0 0 28 28" version="1.1">
<g id="surface1">
<path style=" stroke:none;fill-rule:nonzero;fill:rgb(0%,0%,0%);fill-opacity:1;" d="M 17.246094 23.691406 L 10.75 23.691406 C 10.230469 23.691406 9.8125 24.109375 9.8125 24.628906 C 9.8125 25.144531 10.230469 25.5625 10.75 25.5625 L 12.015625 25.5625 L 12.015625 26.015625 C 12.015625 27.109375 12.902344 27.996094 13.996094 27.996094 C 15.089844 27.996094 15.976562 27.109375 15.976562 26.015625 L 15.976562 25.5625 L 17.246094 25.5625 C 17.761719 25.5625 18.179688 25.144531 18.179688 24.628906 C 18.179688 24.109375 17.761719 23.691406 17.246094 23.691406 Z M 17.246094 23.691406 "/>
<path style=" stroke:none;fill-rule:nonzero;fill:rgb(0%,0%,0%);fill-opacity:1;" d="M 17.246094 20.945312 L 10.75 20.945312 C 10.230469 20.945312 9.8125 21.363281 9.8125 21.878906 C 9.8125 22.398438 10.230469 22.816406 10.75 22.816406 L 17.246094 22.816406 C 17.761719 22.816406 18.179688 22.398438 18.179688 21.878906 C 18.179688 21.363281 17.761719 20.945312 17.246094 20.945312 Z M 17.246094 20.945312 "/>
<path style=" stroke:none;fill-rule:nonzero;fill:rgb(0%,0%,0%);fill-opacity:1;" d="M 13.996094 0 C 9.003906 0 4.957031 4.046875 4.957031 9.042969 C 4.957031 12.523438 6.925781 15.539062 9.8125 17.050781 L 9.8125 19.050781 C 9.8125 19.613281 10.265625 20.066406 10.824219 20.066406 L 17.167969 20.066406 C 17.726562 20.066406 18.179688 19.609375 18.179688 19.050781 L 18.179688 17.050781 C 21.066406 15.539062 23.039062 12.523438 23.039062 9.042969 C 23.039062 4.046875 18.988281 0 13.996094 0 Z M 13.996094 3.929688 C 11.179688 3.929688 8.882812 6.222656 8.882812 9.042969 C 8.882812 9.558594 8.464844 9.976562 7.949219 9.976562 C 7.433594 9.976562 7.015625 9.558594 7.015625 9.042969 C 7.015625 5.191406 10.144531 2.058594 13.996094 2.058594 C 14.511719 2.058594 14.929688 2.476562 14.929688 2.992188 C 14.929688 3.511719 14.511719 3.929688 13.996094 3.929688 Z M 13.996094 3.929688 "/>
</g>
</svg>
