<?xml version="1.0" encoding="UTF-8"?>
<svg xmlns="http://www.w3.org/2000/svg" xmlns:xlink="http://www.w3.org/1999/xlink" width="28pt" height="27pt" viewBox="0 0 28 27" version="1.1">
<g id="surface1">
<path style=" stroke:none;fill-rule:nonzero;fill:rgb(0%,0%,0%);fill-opacity:1;" d="M 15.148438 2.183594 C 15.464844 1.777344 15.414062 0.917969 15.367188 0.160156 C 15.367188 0.128906 15.363281 0.0976562 15.363281 0.0625 C 14.917969 0.0234375 14.46875 0 14.011719 0 C 12.269531 0 10.601562 0.308594 9.0625 0.871094 C 10.160156 1.378906 11.859375 2.257812 13.75 3.550781 C 14.394531 3.015625 14.882812 2.523438 15.148438 2.183594 Z M 15.148438 2.183594 "/>
<path style=" stroke:none;fill-rule:nonzero;fill:rgb(0%,0%,0%);fill-opacity:1;" d="M 22.242188 9.890625 C 21.554688 9.964844 20.972656 10.074219 20.472656 10.226562 C 22.855469 14.234375 23.78125 19.296875 24.007812 22.964844 C 26.367188 20.648438 27.863281 17.515625 28.007812 14.046875 C 26.382812 12.121094 24.230469 9.671875 22.242188 9.890625 Z M 22.242188 9.890625 "/>
<path style=" stroke:none;fill-rule:nonzero;fill:rgb(0%,0%,0%);fill-opacity:1;" d="M 8.09375 6.429688 C 9.765625 6.09375 11.335938 5.28125 12.589844 4.425781 C 9.976562 2.691406 7.796875 1.789062 7.363281 1.617188 C 4.652344 3.03125 2.480469 5.285156 1.21875 8.011719 C 2.859375 7.382812 4.636719 7.0625 6.382812 6.75 C 6.945312 6.648438 7.53125 6.542969 8.09375 6.429688 Z M 8.09375 6.429688 "/>
<path style=" stroke:none;fill-rule:nonzero;fill:rgb(0%,0%,0%);fill-opacity:1;" d="M 17.773438 6.824219 C 17.925781 6.96875 18.074219 7.113281 18.21875 7.265625 C 18.765625 7.816406 19.261719 8.421875 19.714844 9.058594 C 20.375 8.820312 21.15625 8.648438 22.085938 8.546875 C 24.28125 8.308594 26.234375 9.984375 27.910156 11.832031 C 27.550781 9.03125 26.304688 6.5 24.449219 4.5 C 23.4375 4.617188 22.308594 4.816406 21.160156 5.148438 C 20.40625 5.367188 19.203125 5.957031 17.773438 6.824219 Z M 17.773438 6.824219 "/>
<path style=" stroke:none;fill-rule:nonzero;fill:rgb(0%,0%,0%);fill-opacity:1;" d="M 15.933594 13.796875 C 16.507812 11.921875 17.171875 10.570312 18.460938 9.691406 C 18.074219 9.15625 17.65625 8.652344 17.207031 8.195312 C 16.996094 7.984375 16.785156 7.78125 16.574219 7.582031 C 11.402344 10.976562 4.316406 17.210938 3.671875 22.617188 C 5.824219 24.882812 8.765625 26.441406 12.078125 26.882812 C 13.285156 24.566406 14.421875 19.855469 15.097656 17.058594 C 15.421875 15.710938 15.703125 14.550781 15.933594 13.796875 Z M 15.933594 13.796875 "/>
<path style=" stroke:none;fill-rule:nonzero;fill:rgb(0%,0%,0%);fill-opacity:1;" d="M 10.066406 10.820312 C 11.871094 9.21875 13.773438 7.78125 15.515625 6.628906 C 14.9375 6.132812 14.355469 5.675781 13.78125 5.257812 C 12.335938 6.304688 10.441406 7.339844 8.378906 7.753906 C 7.800781 7.867188 7.210938 7.972656 6.636719 8.078125 C 4.433594 8.46875 2.320312 8.851562 0.542969 9.808594 C 0.195312 10.984375 0.0078125 12.222656 0.0078125 13.507812 C 0.0078125 16.375 0.9375 19.035156 2.519531 21.222656 C 3.542969 17.308594 7.058594 13.496094 10.066406 10.820312 Z M 10.066406 10.820312 "/>
<path style=" stroke:none;fill-rule:nonzero;fill:rgb(0%,0%,0%);fill-opacity:1;" d="M 16.722656 5.855469 C 18.390625 4.832031 19.828125 4.125 20.757812 3.855469 C 21.597656 3.613281 22.417969 3.4375 23.195312 3.3125 C 21.398438 1.804688 19.203125 0.730469 16.777344 0.265625 C 16.832031 1.207031 16.855469 2.242188 16.265625 2.996094 C 15.984375 3.351562 15.511719 3.84375 14.898438 4.375 C 15.5 4.828125 16.113281 5.320312 16.722656 5.855469 Z M 16.722656 5.855469 "/>
<path style=" stroke:none;fill-rule:nonzero;fill:rgb(0%,0%,0%);fill-opacity:1;" d="M 17.273438 14.179688 C 17.054688 14.894531 16.78125 16.039062 16.460938 17.363281 C 15.519531 21.273438 14.617188 24.769531 13.5625 27.003906 C 13.714844 27.007812 13.863281 27.011719 14.011719 27.011719 C 17.277344 27.011719 20.277344 25.933594 22.660156 24.128906 C 22.566406 20.289062 21.613281 14.859375 19.207031 10.832031 C 18.277344 11.5 17.773438 12.550781 17.273438 14.179688 Z M 17.273438 14.179688 "/>
</g>
</svg>
