<?xml version="1.0" encoding="UTF-8"?>
<svg xmlns="http://www.w3.org/2000/svg" xmlns:xlink="http://www.w3.org/1999/xlink" width="28pt" height="28pt" viewBox="0 0 28 28" version="1.1">
<g id="surface1">
<path style=" stroke:none;fill-rule:nonzero;fill:rgb(0%,0%,0%);fill-opacity:1;" d="M 11.453125 19.089844 L 16.546875 19.089844 C 17.308594 19.089844 17.816406 18.582031 17.816406 17.816406 L 17.816406 14 C 17.816406 13.238281 17.308594 12.726562 16.546875 12.726562 L 16.546875 11.453125 C 16.546875 10.054688 15.398438 8.910156 14 8.910156 C 12.601562 8.910156 11.453125 10.054688 11.453125 11.453125 L 11.453125 12.726562 C 10.691406 12.726562 10.183594 13.238281 10.183594 14 L 10.183594 17.816406 C 10.183594 18.582031 10.691406 19.089844 11.453125 19.089844 Z M 12.472656 11.453125 C 12.472656 10.5625 13.109375 9.925781 14 9.925781 C 14.890625 9.925781 15.527344 10.5625 15.527344 11.453125 L 15.527344 12.726562 L 12.472656 12.726562 Z M 20.363281 0 L 7.636719 0 C 6.238281 0 5.089844 1.144531 5.089844 2.546875 L 5.089844 25.453125 C 5.089844 26.855469 6.238281 28 7.636719 28 L 20.363281 28 C 21.761719 28 22.910156 26.855469 22.910156 25.453125 L 22.910156 2.546875 C 22.910156 1.144531 21.761719 0 20.363281 0 Z M 20.363281 22.910156 L 7.636719 22.910156 L 7.636719 5.089844 L 20.363281 5.089844 Z M 20.363281 22.910156 "/>
</g>
</svg>
