<?xml version="1.0" encoding="UTF-8"?>
<svg xmlns="http://www.w3.org/2000/svg" xmlns:xlink="http://www.w3.org/1999/xlink" width="28pt" height="28pt" viewBox="0 0 28 28" version="1.1">
<g id="surface1">
<path style=" stroke:none;fill-rule:nonzero;fill:rgb(0%,0%,0%);fill-opacity:1;" d="M 26.25 0 L 1.75 0 C 0.785156 0 0 0.785156 0 1.75 L 0 26.25 C 0 27.214844 0.785156 28 1.75 28 L 26.25 28 C 27.214844 28 28 27.214844 28 26.25 L 28 1.75 C 28 0.785156 27.214844 0 26.25 0 Z M 6.125 25.375 C 5.160156 25.375 4.375 24.589844 4.375 23.625 C 4.375 22.660156 5.160156 21.875 6.125 21.875 C 7.089844 21.875 7.875 22.660156 7.875 23.625 C 7.875 24.589844 7.089844 25.375 6.125 25.375 Z M 7.875 10.5 L 7.875 18.375 C 7.875 19.339844 7.089844 20.125 6.125 20.125 C 5.160156 20.125 4.375 19.339844 4.375 18.375 L 4.375 10.5 C 3.410156 10.5 2.625 9.714844 2.625 8.75 C 2.625 7.785156 3.410156 7 4.375 7 L 4.375 4.375 C 4.375 3.410156 5.160156 2.625 6.125 2.625 C 7.089844 2.625 7.875 3.410156 7.875 4.375 L 7.875 7 C 8.839844 7 9.625 7.785156 9.625 8.75 C 9.625 9.714844 8.839844 10.5 7.875 10.5 Z M 14 25.375 C 13.035156 25.375 12.25 24.589844 12.25 23.625 C 12.25 22.660156 13.035156 21.875 14 21.875 C 14.964844 21.875 15.75 22.660156 15.75 23.625 C 15.75 24.589844 14.964844 25.375 14 25.375 Z M 15.75 17.5 L 15.75 18.375 C 15.75 19.339844 14.964844 20.125 14 20.125 C 13.035156 20.125 12.25 19.339844 12.25 18.375 L 12.25 17.5 C 11.285156 17.5 10.5 16.714844 10.5 15.75 C 10.5 14.785156 11.285156 14 12.25 14 L 12.25 4.375 C 12.25 3.410156 13.035156 2.625 14 2.625 C 14.964844 2.625 15.75 3.410156 15.75 4.375 L 15.75 14 C 16.714844 14 17.5 14.785156 17.5 15.75 C 17.5 16.714844 16.714844 17.5 15.75 17.5 Z M 21.875 25.375 C 20.910156 25.375 20.125 24.589844 20.125 23.625 C 20.125 22.660156 20.910156 21.875 21.875 21.875 C 22.839844 21.875 23.625 22.660156 23.625 23.625 C 23.625 24.589844 22.839844 25.375 21.875 25.375 Z M 23.625 10.5 L 23.625 18.375 C 23.625 19.339844 22.839844 20.125 21.875 20.125 C 20.910156 20.125 20.125 19.339844 20.125 18.375 L 20.125 10.5 C 19.160156 10.5 18.375 9.714844 18.375 8.75 C 18.375 7.785156 19.160156 7 20.125 7 L 20.125 4.375 C 20.125 3.410156 20.910156 2.625 21.875 2.625 C 22.839844 2.625 23.625 3.410156 23.625 4.375 L 23.625 7 C 24.589844 7 25.375 7.785156 25.375 8.75 C 25.375 9.714844 24.589844 10.5 23.625 10.5 Z M 23.625 10.5 "/>
</g>
</svg>
