<?xml version="1.0" encoding="UTF-8"?>
<svg xmlns="http://www.w3.org/2000/svg" xmlns:xlink="http://www.w3.org/1999/xlink" width="28pt" height="27pt" viewBox="0 0 28 27" version="1.1">
<g id="surface1">
<path style=" stroke:none;fill-rule:nonzero;fill:rgb(0%,0%,0%);fill-opacity:1;" d="M 22.429688 9.992188 L 17.203125 4.691406 C 16.984375 4.46875 16.597656 4.308594 16.28125 4.308594 L 15.0625 4.308594 L 15.0625 3.972656 C 15.757812 3.617188 16.230469 2.914062 16.230469 2.105469 C 16.230469 0.945312 15.25 0 14.046875 0 C 12.84375 0 11.863281 0.945312 11.863281 2.105469 C 11.863281 2.914062 12.335938 3.617188 13.03125 3.972656 L 13.03125 4.308594 L 11.71875 4.308594 C 11.40625 4.308594 11.015625 4.46875 10.796875 4.691406 L 5.570312 9.992188 C 5.390625 10.175781 5.335938 10.402344 5.421875 10.597656 C 5.507812 10.792969 5.714844 10.90625 5.976562 10.90625 L 6.71875 10.90625 L 9.550781 18.363281 C 9.746094 18.878906 10.304688 19.257812 10.878906 19.257812 L 11.078125 19.257812 L 11.660156 20.8125 C 11.796875 21.179688 12.203125 21.457031 12.609375 21.457031 L 13.125 21.457031 L 13.125 26.097656 C 13.125 26.597656 13.542969 27 14.058594 27 C 14.574219 27 14.992188 26.597656 14.992188 26.097656 L 14.992188 21.457031 L 15.507812 21.457031 C 15.914062 21.457031 16.320312 21.179688 16.457031 20.8125 L 17.039062 19.257812 L 17.238281 19.257812 C 17.8125 19.257812 18.367188 18.878906 18.566406 18.363281 L 21.398438 10.90625 L 22.023438 10.90625 C 22.285156 10.90625 22.492188 10.792969 22.578125 10.597656 C 22.664062 10.402344 22.609375 10.175781 22.429688 9.992188 Z M 8.425781 10.90625 L 13.257812 10.90625 L 13.257812 17.710938 L 11.011719 17.710938 Z M 17.105469 17.710938 L 14.859375 17.710938 L 14.859375 10.90625 L 19.691406 10.90625 Z M 17.105469 17.710938 "/>
</g>
</svg>
