<?xml version="1.0" encoding="UTF-8"?>
<svg xmlns="http://www.w3.org/2000/svg" xmlns:xlink="http://www.w3.org/1999/xlink" width="28pt" height="28pt" viewBox="0 0 28 28" version="1.1">
<g id="surface1">
<path style=" stroke:none;fill-rule:nonzero;fill:rgb(0%,0%,0%);fill-opacity:1;" d="M 21.890625 0.996094 C 21.714844 0.402344 21.167969 -0.00390625 20.550781 0 L 7.003906 0 C 6.386719 -0.00390625 5.839844 0.402344 5.664062 0.996094 L 4.464844 5 C 4.421875 5.140625 4.449219 5.292969 4.535156 5.410156 C 4.625 5.53125 4.761719 5.601562 4.910156 5.601562 L 6.824219 5.601562 L 7.859375 15.375 C 7.964844 16.199219 8.675781 16.816406 9.507812 16.800781 L 10.976562 16.800781 L 10.976562 26.601562 C 10.980469 27.371094 11.605469 28 12.378906 28 L 15.175781 28 C 15.949219 28 16.578125 27.371094 16.578125 26.601562 L 16.578125 16.800781 L 18.046875 16.800781 C 18.882812 16.816406 19.59375 16.199219 19.695312 15.375 L 20.730469 5.601562 L 22.644531 5.601562 C 22.792969 5.601562 22.929688 5.53125 23.019531 5.410156 C 23.105469 5.292969 23.132812 5.140625 23.089844 5 Z M 6.558594 1.265625 C 6.617188 1.066406 6.800781 0.933594 7.003906 0.933594 L 8.484375 0.933594 L 7.363281 4.667969 L 5.539062 4.667969 Z M 8.789062 15.277344 L 7.761719 5.601562 L 10.082031 5.601562 L 10.9375 15.867188 L 9.507812 15.867188 C 9.152344 15.882812 8.84375 15.628906 8.789062 15.277344 Z M 15.679688 15.867188 L 11.875 15.867188 L 11.019531 5.601562 L 16.535156 5.601562 Z M 15.644531 26.601562 C 15.644531 26.859375 15.433594 27.066406 15.175781 27.066406 L 12.378906 27.066406 C 12.121094 27.066406 11.910156 26.859375 11.910156 26.601562 L 11.910156 16.800781 L 15.644531 16.800781 Z M 18.765625 15.277344 C 18.710938 15.628906 18.402344 15.882812 18.046875 15.867188 L 16.617188 15.867188 L 17.472656 5.601562 L 19.792969 5.601562 Z M 20.3125 4.667969 L 8.339844 4.667969 L 9.457031 0.933594 L 20.550781 0.933594 C 20.757812 0.933594 20.9375 1.066406 20.996094 1.265625 L 22.015625 4.667969 Z M 20.3125 4.667969 "/>
<path style=" stroke:none;fill-rule:nonzero;fill:rgb(0%,0%,0%);fill-opacity:1;" d="M 4.445312 10.734375 C 4.445312 10.476562 4.234375 10.265625 3.976562 10.265625 L 1.175781 10.265625 C 0.917969 10.265625 0.710938 10.476562 0.710938 10.734375 C 0.710938 10.992188 0.917969 11.199219 1.175781 11.199219 L 3.976562 11.199219 C 4.234375 11.199219 4.445312 10.992188 4.445312 10.734375 Z M 4.445312 10.734375 "/>
<path style=" stroke:none;fill-rule:nonzero;fill:rgb(0%,0%,0%);fill-opacity:1;" d="M 4.253906 13.105469 L 1.699219 14.25 C 1.496094 14.339844 1.386719 14.558594 1.429688 14.773438 C 1.476562 14.988281 1.667969 15.140625 1.886719 15.140625 C 1.953125 15.140625 2.019531 15.128906 2.078125 15.101562 L 4.632812 13.960938 C 4.789062 13.890625 4.894531 13.746094 4.910156 13.582031 C 4.929688 13.414062 4.855469 13.25 4.71875 13.152344 C 4.585938 13.054688 4.40625 13.039062 4.253906 13.105469 Z M 4.253906 13.105469 "/>
<path style=" stroke:none;fill-rule:nonzero;fill:rgb(0%,0%,0%);fill-opacity:1;" d="M 4.632812 7.507812 L 2.078125 6.367188 C 1.925781 6.296875 1.746094 6.3125 1.613281 6.410156 C 1.476562 6.511719 1.402344 6.671875 1.421875 6.839844 C 1.4375 7.007812 1.542969 7.148438 1.699219 7.21875 L 4.253906 8.359375 C 4.3125 8.386719 4.378906 8.398438 4.445312 8.398438 C 4.664062 8.398438 4.855469 8.246094 4.902344 8.03125 C 4.945312 7.816406 4.835938 7.597656 4.636719 7.507812 Z M 4.632812 7.507812 "/>
<path style=" stroke:none;fill-rule:nonzero;fill:rgb(0%,0%,0%);fill-opacity:1;" d="M 26.84375 10.265625 L 24.042969 10.265625 C 23.785156 10.265625 23.578125 10.476562 23.578125 10.734375 C 23.578125 10.992188 23.785156 11.199219 24.042969 11.199219 L 26.84375 11.199219 C 27.101562 11.199219 27.3125 10.992188 27.3125 10.734375 C 27.3125 10.476562 27.101562 10.265625 26.84375 10.265625 Z M 26.84375 10.265625 "/>
<path style=" stroke:none;fill-rule:nonzero;fill:rgb(0%,0%,0%);fill-opacity:1;" d="M 26.324219 14.25 L 23.769531 13.105469 C 23.617188 13.039062 23.4375 13.054688 23.300781 13.152344 C 23.167969 13.25 23.09375 13.414062 23.109375 13.582031 C 23.128906 13.746094 23.234375 13.890625 23.386719 13.960938 L 25.945312 15.101562 C 26.003906 15.128906 26.070312 15.140625 26.132812 15.140625 C 26.355469 15.140625 26.542969 14.988281 26.589844 14.773438 C 26.636719 14.558594 26.527344 14.339844 26.324219 14.25 Z M 26.324219 14.25 "/>
<path style=" stroke:none;fill-rule:nonzero;fill:rgb(0%,0%,0%);fill-opacity:1;" d="M 23.152344 8.125 C 23.226562 8.292969 23.394531 8.398438 23.578125 8.398438 C 23.644531 8.398438 23.707031 8.386719 23.769531 8.359375 L 26.324219 7.21875 C 26.476562 7.148438 26.582031 7.003906 26.601562 6.839844 C 26.617188 6.671875 26.546875 6.511719 26.410156 6.410156 C 26.273438 6.3125 26.097656 6.296875 25.945312 6.363281 L 23.386719 7.507812 C 23.273438 7.558594 23.1875 7.652344 23.140625 7.765625 C 23.097656 7.882812 23.101562 8.011719 23.152344 8.125 Z M 23.152344 8.125 "/>
</g>
</svg>
