<?xml version="1.0" encoding="UTF-8"?>
<svg xmlns="http://www.w3.org/2000/svg" xmlns:xlink="http://www.w3.org/1999/xlink" width="28pt" height="28pt" viewBox="0 0 28 28" version="1.1">
<g id="surface1">
<path style=" stroke:none;fill-rule:nonzero;fill:rgb(0.392157%,0%,0.784314%);fill-opacity:1;" d="M 26.296875 1.417969 L 1.703125 1.417969 C 0.765625 1.417969 0 2.183594 0 3.121094 L 0 20.800781 C 0 21.734375 0.765625 22.503906 1.703125 22.503906 L 26.296875 22.503906 C 27.234375 22.503906 28 21.734375 28 20.800781 L 28 3.121094 C 28 2.183594 27.234375 1.417969 26.296875 1.417969 Z M 25.867188 19.546875 L 2.132812 19.546875 L 2.132812 3.804688 L 25.867188 3.804688 Z M 25.867188 19.546875 "/>
<path style=" stroke:none;fill-rule:nonzero;fill:rgb(0.392157%,0%,0.784314%);fill-opacity:1;" d="M 10.84375 23.3125 L 7.628906 26.582031 L 20.417969 26.582031 L 17.203125 23.3125 Z M 10.84375 23.3125 "/>
<path style=" stroke:none;fill-rule:nonzero;fill:rgb(0.392157%,0%,0.784314%);fill-opacity:1;" d="M 5.757812 16.390625 C 6.386719 16.390625 6.898438 15.882812 6.898438 15.253906 C 6.898438 15.136719 6.863281 15.035156 6.832031 14.929688 C 8.289062 13.753906 10.863281 11.683594 12.039062 10.777344 C 12.222656 10.910156 12.4375 11.003906 12.683594 11.003906 C 12.886719 11.003906 13.066406 10.9375 13.230469 10.84375 C 13.984375 11.484375 15.269531 12.578125 16.179688 13.351562 C 16.167969 13.417969 16.140625 13.476562 16.140625 13.546875 C 16.140625 14.175781 16.652344 14.6875 17.28125 14.6875 C 17.910156 14.6875 18.421875 14.175781 18.421875 13.546875 C 18.421875 13.433594 18.390625 13.332031 18.359375 13.230469 L 21.308594 10.566406 C 21.46875 10.652344 21.636719 10.710938 21.828125 10.710938 C 22.460938 10.710938 22.96875 10.199219 22.96875 9.570312 C 22.96875 8.941406 22.460938 8.429688 21.828125 8.429688 C 21.199219 8.429688 20.691406 8.941406 20.691406 9.570312 C 20.691406 9.71875 20.722656 9.863281 20.777344 9.996094 C 19.953125 10.738281 18.679688 11.886719 17.886719 12.601562 C 17.710938 12.488281 17.511719 12.40625 17.285156 12.40625 C 17.015625 12.40625 16.777344 12.511719 16.585938 12.667969 C 15.832031 12.027344 14.613281 10.992188 13.746094 10.253906 C 13.792969 10.132812 13.824219 10.003906 13.824219 9.863281 C 13.824219 9.234375 13.3125 8.722656 12.683594 8.722656 C 12.054688 8.722656 11.542969 9.234375 11.542969 9.863281 C 11.542969 10.003906 11.578125 10.132812 11.621094 10.253906 L 6.390625 14.328125 C 6.207031 14.203125 5.996094 14.109375 5.757812 14.109375 C 5.128906 14.109375 4.617188 14.621094 4.617188 15.25 C 4.617188 15.882812 5.128906 16.390625 5.757812 16.390625 Z M 5.757812 16.390625 "/>
</g>
</svg>
