<?xml version="1.0" encoding="UTF-8"?>
<svg xmlns="http://www.w3.org/2000/svg" xmlns:xlink="http://www.w3.org/1999/xlink" width="28pt" height="28pt" viewBox="0 0 28 28" version="1.1">
<g id="surface1">
<path style=" stroke:none;fill-rule:nonzero;fill:rgb(0%,0%,0%);fill-opacity:1;" d="M 11.8125 6.089844 L 16.1875 6.089844 C 17.074219 6.089844 17.628906 5.132812 17.183594 4.363281 L 14.996094 0.574219 C 14.554688 -0.191406 13.445312 -0.191406 13.003906 0.574219 L 10.816406 4.363281 C 10.375 5.128906 10.925781 6.089844 11.8125 6.089844 Z M 11.8125 6.089844 "/>
<path style=" stroke:none;fill-rule:nonzero;fill:rgb(0%,0%,0%);fill-opacity:1;" d="M 20.921875 7.054688 L 18.210938 7.054688 C 17.574219 7.054688 17.0625 7.570312 17.0625 8.207031 L 17.0625 10.914062 C 17.0625 11.550781 17.574219 12.066406 18.210938 12.066406 L 18.613281 12.066406 L 18.613281 13.300781 L 14.964844 14.855469 L 14.964844 8.023438 C 14.964844 7.664062 14.675781 7.378906 14.320312 7.378906 L 13.679688 7.378906 C 13.324219 7.378906 13.035156 7.667969 13.035156 8.023438 C 13.035156 8.460938 13.035156 17.480469 13.035156 17.910156 L 9.386719 16.355469 L 9.386719 14.933594 C 10.296875 14.558594 10.9375 13.660156 10.9375 12.617188 C 10.9375 11.234375 9.816406 10.109375 8.433594 10.109375 C 7.054688 10.109375 5.929688 11.234375 5.929688 12.617188 C 5.929688 13.648438 6.558594 14.539062 7.457031 14.921875 L 7.457031 16.996094 C 7.457031 17.382812 7.6875 17.730469 8.042969 17.882812 L 13.035156 20.007812 L 13.035156 20.816406 C 11.484375 21.238281 10.34375 22.660156 10.34375 24.34375 C 10.34375 26.359375 11.984375 28 14 28 C 16.015625 28 17.65625 26.359375 17.65625 24.34375 C 17.65625 22.660156 16.515625 21.238281 14.964844 20.816406 L 14.964844 16.953125 L 19.957031 14.828125 C 20.3125 14.675781 20.542969 14.328125 20.542969 13.941406 L 20.542969 12.066406 L 20.921875 12.066406 C 21.554688 12.066406 22.070312 11.550781 22.070312 10.914062 L 22.070312 8.207031 C 22.070312 7.570312 21.554688 7.054688 20.921875 7.054688 Z M 20.921875 7.054688 "/>
</g>
</svg>
