<?xml version="1.0" encoding="UTF-8"?>
<svg xmlns="http://www.w3.org/2000/svg" xmlns:xlink="http://www.w3.org/1999/xlink" width="28pt" height="28pt" viewBox="0 0 28 28" version="1.1">
<g id="surface1">
<path style=" stroke:none;fill-rule:nonzero;fill:rgb(0%,0%,0%);fill-opacity:1;" d="M 5.003906 18.40625 L 3.835938 20.738281 C 3.691406 21.027344 3.808594 21.378906 4.097656 21.523438 C 4.183594 21.5625 4.269531 21.582031 4.359375 21.582031 C 4.570312 21.582031 4.777344 21.464844 4.878906 21.261719 L 6.046875 18.929688 C 6.191406 18.640625 6.074219 18.289062 5.785156 18.144531 C 5.5 18 5.148438 18.121094 5.003906 18.40625 Z M 5.003906 18.40625 "/>
<path style=" stroke:none;fill-rule:nonzero;fill:rgb(0%,0%,0%);fill-opacity:1;" d="M 27.757812 10.027344 C 27.605469 9.917969 27.410156 9.886719 27.230469 9.945312 L 24.53125 10.847656 C 23.8125 11.085938 23.332031 11.753906 23.332031 12.507812 L 23.332031 14.523438 C 22.003906 14.253906 21 13.074219 21 11.667969 L 21 7 C 21 5.292969 20.335938 3.679688 19.125 2.457031 C 17.902344 1.246094 16.292969 0.582031 14.582031 0.582031 C 11.046875 0.582031 8.167969 3.460938 8.167969 7 L 8.167969 9.917969 L 6.417969 9.917969 C 5.453125 9.917969 4.667969 10.703125 4.667969 11.667969 L 4.667969 13.863281 L 0.0625 23.074219 C -0.0273438 23.253906 -0.0195312 23.46875 0.0859375 23.640625 C 0.191406 23.8125 0.382812 23.917969 0.582031 23.917969 L 4.726562 23.917969 C 5.011719 25.890625 6.699219 27.417969 8.75 27.417969 C 10.800781 27.417969 12.488281 25.890625 12.773438 23.917969 L 16.917969 23.917969 C 16.925781 23.917969 16.933594 23.917969 16.941406 23.917969 C 17.261719 23.917969 17.523438 23.65625 17.523438 23.332031 C 17.523438 23.183594 17.46875 23.046875 17.375 22.945312 L 12.832031 13.863281 L 12.832031 11.667969 C 12.832031 10.703125 12.046875 9.917969 11.082031 9.917969 L 9.332031 9.917969 L 9.332031 7 C 9.332031 4.105469 11.6875 1.75 14.582031 1.75 C 15.980469 1.75 17.304688 2.292969 18.300781 3.28125 C 19.289062 4.28125 19.832031 5.601562 19.832031 7 L 19.832031 11.667969 C 19.832031 13.71875 21.359375 15.40625 23.332031 15.691406 L 23.332031 17.824219 C 23.332031 18.578125 23.8125 19.246094 24.527344 19.484375 L 27.230469 20.386719 C 27.292969 20.40625 27.355469 20.417969 27.417969 20.417969 C 27.539062 20.417969 27.65625 20.378906 27.757812 20.304688 C 27.910156 20.199219 28 20.019531 28 19.832031 L 28 10.5 C 28 10.3125 27.910156 10.136719 27.757812 10.027344 Z M 8.75 26.25 C 7.339844 26.25 6.160156 25.246094 5.890625 23.917969 L 11.609375 23.917969 C 11.335938 25.246094 10.15625 26.25 8.75 26.25 Z M 15.972656 22.75 L 1.527344 22.75 L 5.609375 14.582031 L 11.890625 14.582031 Z M 11.082031 11.082031 C 11.402344 11.082031 11.667969 11.347656 11.667969 11.667969 L 11.667969 13.417969 L 5.832031 13.417969 L 5.832031 11.667969 C 5.832031 11.347656 6.09375 11.082031 6.417969 11.082031 Z M 26.832031 19.023438 L 24.898438 18.378906 C 24.660156 18.300781 24.5 18.078125 24.5 17.824219 L 24.5 12.507812 C 24.5 12.253906 24.660156 12.03125 24.898438 11.953125 L 26.832031 11.308594 Z M 26.832031 19.023438 "/>
</g>
</svg>
