<?xml version="1.0" encoding="UTF-8"?>
<svg xmlns="http://www.w3.org/2000/svg" xmlns:xlink="http://www.w3.org/1999/xlink" width="28pt" height="28pt" viewBox="0 0 28 28" version="1.1">
<g id="surface1">
<path style=" stroke:none;fill-rule:nonzero;fill:rgb(0%,0%,0%);fill-opacity:1;" d="M 9 28 C 9.277344 28 9.5 27.777344 9.5 27.5 L 9.5 27 L 8.5 27 L 8.5 27.5 C 8.5 27.777344 8.722656 28 9 28 Z M 9 28 "/>
<path style=" stroke:none;fill-rule:nonzero;fill:rgb(0%,0%,0%);fill-opacity:1;" d="M 18.5 27.5 C 18.5 27.777344 18.722656 28 19 28 C 19.277344 28 19.5 27.777344 19.5 27.5 L 19.5 27 L 18.5 27 Z M 18.5 27.5 "/>
<path style=" stroke:none;fill-rule:nonzero;fill:rgb(0%,0%,0%);fill-opacity:1;" d="M 27 18.5 L 27 18 L 1 18 L 1 18.5 C 1.003906 22.640625 4.359375 25.996094 8.5 26 L 19.5 26 C 23.640625 25.996094 26.996094 22.640625 27 18.5 Z M 27 18.5 "/>
<path style=" stroke:none;fill-rule:nonzero;fill:rgb(0%,0%,0%);fill-opacity:1;" d="M 27.847656 16.855469 C 27.945312 16.765625 28 16.636719 28 16.5 C 28 16.222656 27.777344 16 27.5 16 L 0.5 16 C 0.371094 16 0.246094 16.050781 0.152344 16.144531 C 0.0546875 16.234375 0 16.363281 0 16.5 C 0 16.777344 0.222656 17 0.5 17 L 27.5 17 C 27.628906 17 27.753906 16.949219 27.847656 16.855469 Z M 27.847656 16.855469 "/>
<path style=" stroke:none;fill-rule:nonzero;fill:rgb(0%,0%,0%);fill-opacity:1;" d="M 18.546875 3.1875 C 17.914062 3.09375 17.269531 3.304688 16.824219 3.761719 L 20.175781 5.699219 C 20.332031 5.132812 20.234375 4.527344 19.902344 4.042969 C 19.816406 3.917969 19.71875 3.804688 19.609375 3.699219 C 19.316406 3.425781 18.945312 3.246094 18.546875 3.191406 Z M 18.546875 3.1875 "/>
<path style=" stroke:none;fill-rule:nonzero;fill:rgb(0%,0%,0%);fill-opacity:1;" d="M 19.75 2.566406 C 19.90625 2.660156 20.050781 2.765625 20.1875 2.882812 C 20.199219 2.894531 20.214844 2.902344 20.226562 2.910156 L 20.898438 1.75 C 21.164062 1.289062 21.660156 1 22.195312 1 L 24.5 1 C 25.328125 1 26 1.671875 26 2.5 L 26 15 L 27 15 L 27 2.5 C 27 1.121094 25.878906 0 24.5 0 L 21.621094 0 C 21.085938 0 20.589844 0.285156 20.324219 0.75 L 19.375 2.386719 C 19.503906 2.4375 19.628906 2.496094 19.75 2.566406 Z M 19.75 2.566406 "/>
<path style=" stroke:none;fill-rule:nonzero;fill:rgb(0%,0%,0%);fill-opacity:1;" d="M 17.75 6.03125 C 17.511719 5.894531 17.203125 5.976562 17.066406 6.214844 L 16.066406 7.945312 C 15.976562 8.101562 15.976562 8.292969 16.066406 8.449219 C 16.152344 8.605469 16.320312 8.699219 16.5 8.699219 C 16.679688 8.699219 16.84375 8.601562 16.933594 8.445312 L 17.933594 6.714844 C 18.070312 6.476562 17.988281 6.167969 17.75 6.03125 Z M 17.75 6.03125 "/>
<path style=" stroke:none;fill-rule:nonzero;fill:rgb(0%,0%,0%);fill-opacity:1;" d="M 14.519531 7.628906 C 14.757812 7.769531 15.0625 7.6875 15.199219 7.445312 L 16.199219 5.714844 C 16.335938 5.476562 16.253906 5.171875 16.015625 5.035156 C 15.777344 4.898438 15.472656 4.976562 15.335938 5.214844 L 14.335938 6.945312 C 14.195312 7.1875 14.277344 7.492188 14.519531 7.628906 Z M 14.519531 7.628906 "/>
<path style=" stroke:none;fill-rule:nonzero;fill:rgb(0%,0%,0%);fill-opacity:1;" d="M 17.980469 9.628906 C 18.222656 9.769531 18.527344 9.6875 18.664062 9.445312 L 19.664062 7.714844 C 19.800781 7.476562 19.71875 7.171875 19.480469 7.035156 C 19.242188 6.898438 18.9375 6.976562 18.800781 7.214844 L 17.800781 8.945312 C 17.660156 9.1875 17.742188 9.492188 17.980469 9.628906 Z M 17.980469 9.628906 "/>
<path style=" stroke:none;fill-rule:nonzero;fill:rgb(0%,0%,0%);fill-opacity:1;" d="M 16.183594 9.746094 L 15.183594 11.476562 C 15.042969 11.714844 15.125 12.023438 15.367188 12.160156 C 15.605469 12.296875 15.910156 12.214844 16.050781 11.976562 L 17.050781 10.246094 C 17.1875 10.003906 17.105469 9.699219 16.867188 9.5625 C 16.625 9.421875 16.320312 9.503906 16.183594 9.746094 Z M 16.183594 9.746094 "/>
<path style=" stroke:none;fill-rule:nonzero;fill:rgb(0%,0%,0%);fill-opacity:1;" d="M 13.367188 11.160156 C 13.480469 11.226562 13.617188 11.246094 13.746094 11.210938 C 13.875 11.175781 13.984375 11.09375 14.050781 10.976562 L 15.050781 9.246094 C 15.1875 9.003906 15.105469 8.699219 14.867188 8.5625 C 14.625 8.421875 14.320312 8.503906 14.183594 8.746094 L 13.183594 10.476562 C 13.042969 10.714844 13.125 11.023438 13.367188 11.160156 Z M 13.367188 11.160156 "/>
</g>
</svg>
