<?xml version="1.0" encoding="UTF-8"?>
<svg xmlns="http://www.w3.org/2000/svg" xmlns:xlink="http://www.w3.org/1999/xlink" width="28pt" height="28pt" viewBox="0 0 28 28" version="1.1">
<g id="surface1">
<path style=" stroke:none;fill-rule:nonzero;fill:rgb(0%,0%,0%);fill-opacity:1;" d="M 25.277344 8.417969 L 23.09375 8.417969 L 15.152344 0.476562 C 14.847656 0.167969 14.4375 0 14 0 C 13.5625 0 13.152344 0.167969 12.847656 0.476562 L 4.90625 8.417969 L 2.722656 8.417969 C 2.003906 8.417969 1.417969 9.003906 1.417969 9.722656 L 1.417969 26.695312 C 1.417969 27.414062 2.003906 28 2.722656 28 L 25.277344 28 C 25.996094 28 26.582031 27.414062 26.582031 26.695312 L 26.582031 9.722656 C 26.582031 9.003906 25.996094 8.417969 25.277344 8.417969 Z M 12.148438 3.941406 C 12.5 4.609375 13.199219 5.0625 14 5.0625 C 14.800781 5.0625 15.5 4.609375 15.851562 3.941406 L 20.324219 8.417969 L 7.675781 8.417969 Z M 13.378906 22.648438 L 11.382812 22.648438 L 10.066406 17.902344 L 8.746094 22.648438 L 6.75 22.648438 L 4.667969 13.765625 L 6.902344 13.765625 L 7.910156 18.582031 L 9.226562 13.765625 L 10.894531 13.765625 L 12.222656 18.585938 L 13.226562 13.765625 L 15.453125 13.765625 Z M 23.328125 16.929688 L 23.238281 17.203125 L 21.117188 17.203125 L 21.117188 16.914062 C 21.117188 16.441406 21.011719 16.085938 20.800781 15.851562 C 20.597656 15.625 20.257812 15.511719 19.789062 15.511719 C 19.386719 15.511719 19.074219 15.667969 18.839844 15.996094 C 18.582031 16.347656 18.453125 16.8125 18.453125 17.375 L 18.453125 19.03125 C 18.453125 19.597656 18.589844 20.0625 18.855469 20.414062 C 19.109375 20.746094 19.441406 20.90625 19.875 20.90625 C 20.308594 20.90625 20.621094 20.796875 20.8125 20.585938 C 21.011719 20.359375 21.113281 20.007812 21.113281 19.53125 L 21.113281 19.242188 L 23.226562 19.242188 L 23.316406 19.515625 L 23.320312 19.5625 C 23.335938 20.535156 23.027344 21.324219 22.410156 21.90625 C 21.792969 22.480469 20.941406 22.769531 19.875 22.769531 C 18.796875 22.769531 17.910156 22.414062 17.230469 21.71875 C 16.554688 21.023438 16.214844 20.121094 16.214844 19.035156 L 16.214844 17.386719 C 16.214844 16.308594 16.546875 15.40625 17.207031 14.707031 C 17.867188 14.003906 18.738281 13.648438 19.789062 13.648438 C 20.886719 13.648438 21.761719 13.9375 22.390625 14.511719 C 23.03125 15.09375 23.347656 15.894531 23.328125 16.882812 Z M 23.328125 16.929688 "/>
</g>
</svg>
