<?xml version="1.0" encoding="UTF-8"?>
<svg xmlns="http://www.w3.org/2000/svg" xmlns:xlink="http://www.w3.org/1999/xlink" width="28pt" height="28pt" viewBox="0 0 28 28" version="1.1">
<g id="surface1">
<path style=" stroke:none;fill-rule:nonzero;fill:rgb(0%,0%,0%);fill-opacity:1;" d="M 26.910156 5.839844 C 25.898438 4.636719 24.03125 4.148438 20.46875 4.148438 L 7.53125 4.148438 C 3.886719 4.148438 1.988281 4.667969 0.980469 5.949219 C 0 7.195312 0 9.03125 0 11.578125 L 0 16.421875 C 0 21.351562 1.164062 23.851562 7.53125 23.851562 L 20.46875 23.851562 C 23.558594 23.851562 25.269531 23.421875 26.378906 22.359375 C 27.515625 21.273438 28 19.496094 28 16.421875 L 28 11.578125 C 28 8.894531 27.925781 7.046875 26.910156 5.839844 Z M 17.976562 14.667969 L 12.101562 17.738281 C 11.96875 17.808594 11.828125 17.84375 11.683594 17.84375 C 11.519531 17.84375 11.359375 17.796875 11.214844 17.710938 C 10.945312 17.546875 10.78125 17.253906 10.78125 16.9375 L 10.78125 10.816406 C 10.78125 10.503906 10.945312 10.210938 11.214844 10.046875 C 11.484375 9.882812 11.820312 9.871094 12.101562 10.015625 L 17.972656 13.066406 C 18.273438 13.222656 18.460938 13.53125 18.460938 13.867188 C 18.460938 14.203125 18.273438 14.511719 17.976562 14.667969 Z M 17.976562 14.667969 "/>
</g>
</svg>
