<?xml version="1.0" encoding="UTF-8"?>
<svg xmlns="http://www.w3.org/2000/svg" xmlns:xlink="http://www.w3.org/1999/xlink" width="28pt" height="28pt" viewBox="0 0 28 28" version="1.1">
<g id="surface1">
<path style=" stroke:none;fill-rule:nonzero;fill:rgb(0%,0%,0%);fill-opacity:1;" d="M 14 6.324219 C 10.007812 6.324219 6.757812 9.574219 6.757812 13.570312 C 6.757812 15.203125 7.292969 16.75 8.304688 18.035156 C 8.507812 18.289062 8.714844 18.535156 8.9375 18.792969 L 8.949219 18.804688 C 9.632812 19.597656 10.335938 20.414062 10.597656 21.375 C 10.65625 21.59375 10.667969 22.019531 10.664062 22.34375 L 10.664062 22.898438 C 10.664062 23.402344 11.074219 23.8125 11.578125 23.8125 L 16.382812 23.8125 C 16.886719 23.8125 17.296875 23.402344 17.296875 22.898438 L 17.296875 22.335938 C 17.296875 21.914062 17.316406 21.601562 17.363281 21.441406 C 17.625 20.484375 18.40625 19.566406 19.101562 18.75 L 19.128906 18.714844 C 19.332031 18.480469 19.519531 18.257812 19.691406 18.039062 C 20.707031 16.75 21.242188 15.207031 21.242188 13.570312 C 21.242188 9.574219 17.996094 6.324219 14 6.324219 Z M 18.25 16.90625 C 18.101562 17.097656 17.921875 17.304688 17.734375 17.527344 L 17.695312 17.570312 C 16.886719 18.523438 15.964844 19.605469 15.59375 20.953125 C 15.539062 21.144531 15.480469 21.429688 15.46875 21.980469 L 12.496094 21.980469 C 12.480469 21.394531 12.421875 21.097656 12.367188 20.894531 C 11.996094 19.53125 11.078125 18.464844 10.339844 17.609375 L 10.328125 17.59375 C 10.121094 17.351562 9.921875 17.125 9.746094 16.902344 C 8.992188 15.941406 8.589844 14.789062 8.589844 13.570312 C 8.589844 10.585938 11.015625 8.160156 14 8.160156 C 16.984375 8.160156 19.410156 10.585938 19.410156 13.570312 C 19.410156 14.789062 19.007812 15.941406 18.25 16.90625 Z M 18.25 16.90625 "/>
<path style=" stroke:none;fill-rule:nonzero;fill:rgb(0%,0%,0%);fill-opacity:1;" d="M 16.382812 24.074219 L 11.578125 24.074219 C 11.074219 24.074219 10.664062 24.484375 10.664062 24.992188 C 10.664062 25.496094 11.074219 25.910156 11.578125 25.910156 L 16.382812 25.910156 C 16.886719 25.910156 17.296875 25.496094 17.296875 24.992188 C 17.296875 24.484375 16.886719 24.074219 16.382812 24.074219 Z M 16.382812 24.074219 "/>
<path style=" stroke:none;fill-rule:nonzero;fill:rgb(0%,0%,0%);fill-opacity:1;" d="M 15.179688 26.167969 L 12.78125 26.167969 C 12.273438 26.167969 11.863281 26.578125 11.863281 27.082031 C 11.863281 27.589844 12.273438 28 12.78125 28 L 15.179688 28 C 15.6875 28 16.097656 27.589844 16.097656 27.082031 C 16.097656 26.578125 15.6875 26.167969 15.179688 26.167969 Z M 15.179688 26.167969 "/>
<path style=" stroke:none;fill-rule:nonzero;fill:rgb(0%,0%,0%);fill-opacity:1;" d="M 26.652344 12.652344 L 23.488281 12.652344 C 22.984375 12.652344 22.574219 13.0625 22.574219 13.570312 C 22.574219 14.078125 22.984375 14.488281 23.488281 14.488281 L 26.652344 14.488281 C 27.160156 14.488281 27.570312 14.078125 27.570312 13.570312 C 27.570312 13.0625 27.160156 12.652344 26.652344 12.652344 Z M 26.652344 12.652344 "/>
<path style=" stroke:none;fill-rule:nonzero;fill:rgb(0%,0%,0%);fill-opacity:1;" d="M 5.425781 13.570312 C 5.425781 13.0625 5.015625 12.652344 4.511719 12.652344 L 1.347656 12.652344 C 0.839844 12.652344 0.429688 13.0625 0.429688 13.570312 C 0.429688 14.078125 0.839844 14.488281 1.347656 14.488281 L 4.511719 14.488281 C 5.015625 14.488281 5.425781 14.078125 5.425781 13.570312 Z M 5.425781 13.570312 "/>
<path style=" stroke:none;fill-rule:nonzero;fill:rgb(0%,0%,0%);fill-opacity:1;" d="M 14 5 C 14.507812 5 14.917969 4.585938 14.917969 4.082031 L 14.917969 0.917969 C 14.917969 0.410156 14.507812 0 14 0 C 13.492188 0 13.082031 0.410156 13.082031 0.917969 L 13.082031 4.082031 C 13.082031 4.585938 13.492188 5 14 5 Z M 14 5 "/>
<path style=" stroke:none;fill-rule:nonzero;fill:rgb(0%,0%,0%);fill-opacity:1;" d="M 21.359375 19.632812 C 21 19.273438 20.417969 19.273438 20.0625 19.632812 C 19.703125 19.988281 19.703125 20.570312 20.0625 20.929688 L 22.296875 23.164062 C 22.476562 23.34375 22.710938 23.433594 22.945312 23.433594 C 23.179688 23.433594 23.414062 23.34375 23.59375 23.164062 C 23.953125 22.808594 23.953125 22.226562 23.59375 21.867188 Z M 21.359375 19.632812 "/>
<path style=" stroke:none;fill-rule:nonzero;fill:rgb(0%,0%,0%);fill-opacity:1;" d="M 6.640625 7.507812 C 6.820312 7.6875 7.054688 7.777344 7.289062 7.777344 C 7.523438 7.777344 7.757812 7.6875 7.9375 7.507812 C 8.296875 7.148438 8.296875 6.570312 7.9375 6.210938 L 5.703125 3.972656 C 5.34375 3.617188 4.761719 3.617188 4.40625 3.972656 C 4.046875 4.332031 4.046875 4.914062 4.40625 5.269531 Z M 6.640625 7.507812 "/>
<path style=" stroke:none;fill-rule:nonzero;fill:rgb(0%,0%,0%);fill-opacity:1;" d="M 6.640625 19.632812 L 4.40625 21.867188 C 4.046875 22.226562 4.046875 22.808594 4.40625 23.164062 C 4.582031 23.34375 4.820312 23.433594 5.054688 23.433594 C 5.289062 23.433594 5.523438 23.34375 5.703125 23.164062 L 7.9375 20.929688 C 8.296875 20.570312 8.296875 19.988281 7.9375 19.632812 C 7.582031 19.273438 7 19.273438 6.640625 19.632812 Z M 6.640625 19.632812 "/>
<path style=" stroke:none;fill-rule:nonzero;fill:rgb(0%,0%,0%);fill-opacity:1;" d="M 20.710938 7.777344 C 20.945312 7.777344 21.179688 7.6875 21.359375 7.507812 L 23.59375 5.269531 C 23.953125 4.914062 23.953125 4.332031 23.59375 3.972656 C 23.238281 3.617188 22.65625 3.617188 22.296875 3.972656 L 20.0625 6.210938 C 19.703125 6.570312 19.703125 7.148438 20.0625 7.507812 C 20.242188 7.6875 20.476562 7.777344 20.710938 7.777344 Z M 20.710938 7.777344 "/>
</g>
</svg>
