<?xml version="1.0" encoding="UTF-8"?>
<svg xmlns="http://www.w3.org/2000/svg" xmlns:xlink="http://www.w3.org/1999/xlink" width="28pt" height="27pt" viewBox="0 0 28 27" version="1.1">
<g id="surface1">
<path style=" stroke:none;fill-rule:nonzero;fill:rgb(0%,0%,0%);fill-opacity:1;" d="M 26.808594 0.121094 C 26.699219 0.03125 26.554688 -0.0117188 26.40625 0.00390625 L 10.625 1.972656 C 10.371094 2.003906 10.183594 2.210938 10.183594 2.460938 L 10.183594 19.941406 C 9.253906 18.863281 7.773438 18.164062 6.109375 18.164062 C 3.300781 18.164062 1.019531 20.144531 1.019531 22.582031 C 1.019531 25.019531 3.300781 27 6.109375 27 C 8.917969 27 11.199219 25.019531 11.199219 22.582031 C 11.199219 22.46875 11.191406 22.355469 11.179688 22.246094 C 11.1875 22.210938 11.199219 22.183594 11.199219 22.148438 L 11.199219 7.914062 L 25.964844 6.070312 L 25.964844 15.03125 C 25.035156 13.957031 23.558594 13.253906 21.890625 13.253906 C 19.082031 13.253906 16.800781 15.238281 16.800781 17.671875 C 16.800781 20.109375 19.082031 22.089844 21.890625 22.089844 C 24.671875 22.089844 26.9375 20.144531 26.976562 17.738281 C 26.976562 17.730469 26.980469 17.726562 26.980469 17.71875 L 26.980469 0.492188 C 26.980469 0.347656 26.917969 0.214844 26.808594 0.121094 Z M 6.109375 26.019531 C 3.863281 26.019531 2.035156 24.476562 2.035156 22.582031 C 2.035156 20.6875 3.863281 19.144531 6.109375 19.144531 C 8.355469 19.144531 10.183594 20.6875 10.183594 22.582031 C 10.183594 24.476562 8.355469 26.019531 6.109375 26.019531 Z M 21.890625 21.109375 C 19.644531 21.109375 17.816406 19.566406 17.816406 17.671875 C 17.816406 15.777344 19.644531 14.238281 21.890625 14.238281 C 24.136719 14.238281 25.964844 15.777344 25.964844 17.671875 C 25.964844 19.566406 24.136719 21.109375 21.890625 21.109375 Z M 11.199219 6.921875 L 11.199219 2.890625 L 25.964844 1.050781 L 25.964844 5.078125 Z M 11.199219 6.921875 "/>
</g>
</svg>
