<?xml version="1.0" encoding="UTF-8"?>
<svg xmlns="http://www.w3.org/2000/svg" xmlns:xlink="http://www.w3.org/1999/xlink" width="28pt" height="28pt" viewBox="0 0 28 28" version="1.1">
<g id="surface1">
<path style=" stroke:none;fill-rule:nonzero;fill:rgb(0%,0%,0%);fill-opacity:1;" d="M 21.484375 13.515625 C 21.214844 13.515625 21 13.734375 21 14 L 21 16.898438 C 21 20.625 17.96875 23.65625 14.242188 23.65625 C 10.515625 23.65625 7.484375 20.625 7.484375 16.898438 L 7.484375 14 C 7.484375 13.734375 7.265625 13.515625 7 13.515625 C 6.734375 13.515625 6.515625 13.734375 6.515625 14 L 6.515625 16.898438 C 6.515625 20.992188 9.726562 24.34375 13.757812 24.597656 L 13.757812 27.035156 L 11.34375 27.035156 C 11.078125 27.035156 10.863281 27.25 10.863281 27.515625 C 10.863281 27.785156 11.078125 28 11.34375 28 L 17.136719 28 C 17.40625 28 17.621094 27.785156 17.621094 27.515625 C 17.621094 27.25 17.40625 27.035156 17.136719 27.035156 L 14.722656 27.035156 L 14.722656 24.597656 C 18.757812 24.34375 21.964844 20.992188 21.964844 16.898438 L 21.964844 14 C 21.964844 13.734375 21.75 13.515625 21.484375 13.515625 Z M 21.484375 13.515625 "/>
<path style=" stroke:none;fill-rule:nonzero;fill:rgb(0%,0%,0%);fill-opacity:1;" d="M 14.242188 22.207031 C 17.167969 22.207031 19.550781 19.824219 19.550781 16.898438 L 19.550781 5.308594 C 19.550781 2.382812 17.167969 0 14.242188 0 C 11.3125 0 8.929688 2.382812 8.929688 5.308594 L 8.929688 16.898438 C 8.929688 19.824219 11.3125 22.207031 14.242188 22.207031 Z M 9.898438 5.308594 C 9.898438 2.914062 11.847656 0.964844 14.242188 0.964844 C 16.636719 0.964844 18.585938 2.914062 18.585938 5.308594 L 18.585938 16.898438 C 18.585938 19.292969 16.636719 21.242188 14.242188 21.242188 C 11.847656 21.242188 9.898438 19.292969 9.898438 16.898438 Z M 9.898438 5.308594 "/>
<path style=" stroke:none;fill-rule:nonzero;fill:rgb(0%,0%,0%);fill-opacity:1;" d="M 25.203125 2.074219 C 25.015625 1.882812 24.710938 1.882812 24.519531 2.074219 L 20.175781 6.417969 C 19.988281 6.605469 19.988281 6.910156 20.175781 7.101562 C 20.269531 7.195312 20.394531 7.242188 20.515625 7.242188 C 20.640625 7.242188 20.765625 7.195312 20.859375 7.101562 L 25.203125 2.753906 C 25.390625 2.566406 25.390625 2.261719 25.203125 2.074219 Z M 25.203125 2.074219 "/>
<path style=" stroke:none;fill-rule:nonzero;fill:rgb(0%,0%,0%);fill-opacity:1;" d="M 17.960938 9.996094 C 18.152344 9.808594 18.152344 9.503906 17.960938 9.3125 C 17.773438 9.125 17.46875 9.125 17.28125 9.3125 L 10.519531 16.074219 C 10.332031 16.261719 10.332031 16.566406 10.519531 16.753906 C 10.613281 16.847656 10.738281 16.898438 10.863281 16.898438 C 10.984375 16.898438 11.109375 16.847656 11.203125 16.753906 Z M 17.960938 9.996094 "/>
<path style=" stroke:none;fill-rule:nonzero;fill:rgb(0%,0%,0%);fill-opacity:1;" d="M 6.175781 20.417969 L 2.796875 23.796875 C 2.609375 23.984375 2.609375 24.289062 2.796875 24.480469 C 2.890625 24.574219 3.015625 24.621094 3.136719 24.621094 C 3.261719 24.621094 3.386719 24.574219 3.480469 24.480469 L 6.859375 21.101562 C 7.046875 20.910156 7.046875 20.605469 6.859375 20.417969 C 6.667969 20.230469 6.363281 20.230469 6.175781 20.417969 Z M 6.175781 20.417969 "/>
</g>
</svg>
