<?xml version="1.0" encoding="UTF-8"?>
<svg xmlns="http://www.w3.org/2000/svg" xmlns:xlink="http://www.w3.org/1999/xlink" width="28pt" height="28pt" viewBox="0 0 28 28" version="1.1">
<g id="surface1">
<path style=" stroke:none;fill-rule:nonzero;fill:rgb(0%,0%,0%);fill-opacity:1;" d="M 14 0 C 6.257812 0 0 6.25 0 14 C 0 21.75 6.25 28 14 28 C 21.75 28 28 21.75 28 14 C 28 6.25 21.742188 0 14 0 Z M 14 26.128906 C 7.28125 26.128906 1.871094 20.71875 1.871094 14 C 1.871094 7.28125 7.28125 1.871094 14 1.871094 C 20.71875 1.871094 26.128906 7.28125 26.128906 14 C 26.128906 20.71875 20.71875 26.128906 14 26.128906 Z M 14 26.128906 "/>
<path style=" stroke:none;fill-rule:nonzero;fill:rgb(0%,0%,0%);fill-opacity:1;" d="M 19.132812 13.4375 L 12.976562 7.28125 C 12.605469 6.910156 12.042969 6.910156 11.664062 7.28125 C 11.296875 7.652344 11.296875 8.214844 11.664062 8.589844 L 17.074219 14 L 11.664062 19.410156 C 11.296875 19.78125 11.296875 20.339844 11.664062 20.71875 C 11.851562 20.902344 12.035156 20.996094 12.320312 20.996094 C 12.503906 20.996094 12.789062 20.902344 13.066406 20.8125 L 19.132812 14.746094 C 19.316406 14.5625 19.410156 14.378906 19.410156 14.09375 C 19.410156 13.816406 19.316406 13.621094 19.132812 13.4375 Z M 19.132812 13.4375 "/>
</g>
</svg>
