<?xml version="1.0" encoding="UTF-8"?>
<svg xmlns="http://www.w3.org/2000/svg" xmlns:xlink="http://www.w3.org/1999/xlink" width="28pt" height="28pt" viewBox="0 0 28 28" version="1.1">
<g id="surface1">
<path style=" stroke:none;fill-rule:nonzero;fill:rgb(0%,0%,0%);fill-opacity:1;" d="M 23.898438 4.101562 C 18.425781 -1.367188 9.574219 -1.367188 4.101562 4.101562 C -1.367188 9.574219 -1.367188 18.425781 4.101562 23.898438 C 9.574219 29.367188 18.425781 29.367188 23.898438 23.898438 C 29.367188 18.425781 29.367188 9.574219 23.898438 4.101562 Z M 14 25.699219 C 7.550781 25.699219 2.300781 20.449219 2.300781 14 C 2.300781 7.550781 7.550781 2.300781 14 2.300781 C 20.449219 2.300781 25.699219 7.550781 25.699219 14 C 25.699219 20.449219 20.449219 25.699219 14 25.699219 Z M 14 25.699219 "/>
<path style=" stroke:none;fill-rule:nonzero;fill:rgb(0%,0%,0%);fill-opacity:1;" d="M 21.820312 11.433594 C 21.371094 10.984375 20.644531 10.984375 20.195312 11.433594 L 19.253906 12.375 L 18.316406 11.433594 C 17.867188 10.984375 17.140625 10.984375 16.691406 11.433594 C 16.242188 11.882812 16.242188 12.613281 16.691406 13.0625 L 17.628906 14 L 16.691406 14.9375 C 16.242188 15.386719 16.242188 16.117188 16.691406 16.566406 C 17.140625 17.015625 17.867188 17.015625 18.316406 16.566406 L 19.253906 15.625 L 20.195312 16.566406 C 20.644531 17.015625 21.371094 17.015625 21.820312 16.566406 C 22.269531 16.117188 22.269531 15.386719 21.820312 14.9375 L 20.882812 14 L 21.820312 13.0625 C 22.269531 12.613281 22.269531 11.882812 21.820312 11.433594 Z M 21.820312 11.433594 "/>
<path style=" stroke:none;fill-rule:nonzero;fill:rgb(0%,0%,0%);fill-opacity:1;" d="M 12.746094 7.226562 L 8.960938 9.929688 L 6.992188 9.929688 C 6.359375 9.929688 5.84375 10.445312 5.84375 11.082031 L 5.84375 16.917969 C 5.84375 17.554688 6.359375 18.070312 6.992188 18.070312 L 8.960938 18.070312 L 12.746094 20.773438 C 13.507812 21.316406 14.566406 20.773438 14.566406 19.839844 L 14.566406 8.160156 C 14.566406 7.226562 13.507812 6.683594 12.746094 7.226562 Z M 12.265625 17.605469 L 9.996094 15.984375 C 9.609375 15.707031 9.355469 15.769531 8.140625 15.769531 L 8.140625 12.230469 C 9.328125 12.230469 9.605469 12.292969 9.996094 12.015625 L 12.265625 10.394531 Z M 12.265625 17.605469 "/>
</g>
</svg>
