<?xml version="1.0" encoding="UTF-8"?>
<svg xmlns="http://www.w3.org/2000/svg" xmlns:xlink="http://www.w3.org/1999/xlink" width="28pt" height="28pt" viewBox="0 0 28 28" version="1.1">
<g id="surface1">
<path style=" stroke:none;fill-rule:nonzero;fill:rgb(0%,0%,0%);fill-opacity:1;" d="M 25.746094 12.21875 L 14.503906 3.746094 C 14.207031 3.519531 13.792969 3.519531 13.496094 3.746094 L 2.253906 12.21875 C 2.042969 12.378906 1.921875 12.628906 1.921875 12.890625 L 1.921875 27.160156 C 1.921875 27.625 2.296875 28 2.761719 28 L 25.238281 28 C 25.703125 28 26.078125 27.625 26.078125 27.160156 L 26.078125 12.890625 C 26.078125 12.628906 25.957031 12.378906 25.746094 12.21875 Z M 24.398438 26.320312 L 3.601562 26.320312 L 3.601562 13.308594 L 14 5.464844 L 24.398438 13.308594 Z M 24.398438 26.320312 "/>
<path style=" stroke:none;fill-rule:nonzero;fill:rgb(0%,0%,0%);fill-opacity:1;" d="M 3.265625 9.984375 L 14 1.890625 L 24.734375 9.984375 C 24.886719 10.101562 25.0625 10.15625 25.238281 10.15625 C 25.492188 10.15625 25.746094 10.039062 25.910156 9.820312 C 26.1875 9.449219 26.117188 8.925781 25.746094 8.644531 L 14.503906 0.167969 C 14.207031 -0.0546875 13.792969 -0.0546875 13.496094 0.167969 L 2.253906 8.644531 C 1.882812 8.925781 1.8125 9.449219 2.089844 9.820312 C 2.371094 10.191406 2.894531 10.265625 3.265625 9.984375 Z M 3.265625 9.984375 "/>
<path style=" stroke:none;fill-rule:nonzero;fill:rgb(0%,0%,0%);fill-opacity:1;" d="M 10.773438 13.078125 L 10.773438 15.335938 C 9.914062 15.460938 9.253906 16.203125 9.253906 17.09375 L 9.253906 22.90625 C 9.253906 23.886719 10.050781 24.6875 11.035156 24.6875 L 16.964844 24.6875 C 17.949219 24.6875 18.746094 23.886719 18.746094 22.90625 L 18.746094 17.09375 C 18.746094 16.113281 17.949219 15.3125 16.964844 15.3125 L 12.453125 15.3125 L 12.453125 13.078125 C 12.453125 12.222656 13.148438 11.53125 14 11.53125 C 14.851562 11.53125 15.546875 12.222656 15.546875 13.078125 L 15.546875 14.011719 C 15.546875 14.476562 15.921875 14.851562 16.386719 14.851562 C 16.851562 14.851562 17.226562 14.476562 17.226562 14.011719 L 17.226562 13.078125 C 17.226562 11.296875 15.777344 9.851562 14 9.851562 C 12.222656 9.851562 10.773438 11.296875 10.773438 13.078125 Z M 17.066406 17.09375 L 17.066406 22.90625 C 17.066406 22.960938 17.019531 23.007812 16.964844 23.007812 L 11.035156 23.007812 C 10.980469 23.007812 10.933594 22.960938 10.933594 22.90625 L 10.933594 17.09375 C 10.933594 17.039062 10.980469 16.992188 11.035156 16.992188 L 16.964844 16.992188 C 17.023438 16.992188 17.066406 17.039062 17.066406 17.09375 Z M 17.066406 17.09375 "/>
</g>
</svg>
