<?xml version="1.0" encoding="UTF-8"?>
<svg xmlns="http://www.w3.org/2000/svg" xmlns:xlink="http://www.w3.org/1999/xlink" width="28pt" height="28pt" viewBox="0 0 28 28" version="1.1">
<g id="surface1">
<path style=" stroke:none;fill-rule:nonzero;fill:rgb(0%,0%,0%);fill-opacity:1;" d="M 27.453125 21.925781 C 22.886719 21.925781 18.402344 23.800781 15.15625 27.066406 C 14.941406 27.28125 14.941406 27.628906 15.15625 27.839844 C 15.261719 27.945312 15.402344 28 15.542969 28 C 15.683594 28 15.824219 27.945312 15.929688 27.839844 C 18.976562 24.777344 23.175781 23.019531 27.453125 23.019531 C 27.753906 23.019531 28 22.777344 28 22.472656 C 28 22.171875 27.753906 21.925781 27.453125 21.925781 Z M 27.453125 21.925781 "/>
<path style=" stroke:none;fill-rule:nonzero;fill:rgb(0%,0%,0%);fill-opacity:1;" d="M 16.050781 21.421875 C 15.878906 21.171875 15.539062 21.105469 15.289062 21.273438 C 12.953125 22.851562 10.976562 24.828125 9.417969 27.148438 C 9.25 27.398438 9.316406 27.738281 9.570312 27.90625 C 9.664062 27.96875 9.769531 28 9.871094 28 C 10.050781 28 10.222656 27.914062 10.328125 27.757812 C 11.804688 25.558594 13.679688 23.679688 15.902344 22.179688 C 16.152344 22.011719 16.21875 21.671875 16.050781 21.421875 Z M 16.050781 21.421875 "/>
<path style=" stroke:none;fill-rule:nonzero;fill:rgb(0%,0%,0%);fill-opacity:1;" d="M 27.453125 17.523438 C 25.007812 17.523438 22.589844 17.941406 20.261719 18.765625 C 19.976562 18.867188 19.828125 19.179688 19.925781 19.464844 C 20.007812 19.6875 20.21875 19.828125 20.441406 19.828125 C 20.503906 19.828125 20.566406 19.820312 20.625 19.796875 C 22.835938 19.015625 25.132812 18.617188 27.453125 18.617188 C 27.753906 18.617188 28 18.375 28 18.070312 C 28 17.769531 27.753906 17.523438 27.453125 17.523438 Z M 27.453125 17.523438 "/>
<path style=" stroke:none;fill-rule:nonzero;fill:rgb(0%,0%,0%);fill-opacity:1;" d="M 7.835938 24.246094 C 11.433594 19.554688 16.640625 16.300781 22.386719 15.078125 C 22.390625 15.078125 22.390625 15.078125 22.390625 15.078125 C 24.042969 14.726562 25.738281 14.542969 27.453125 14.542969 C 27.753906 14.542969 28 14.300781 28 13.996094 C 28 13.695312 27.753906 13.449219 27.453125 13.449219 C 25.898438 13.449219 24.347656 13.59375 22.828125 13.871094 L 22.828125 12.691406 C 24.804688 11.019531 25.886719 8.824219 25.886719 6.492188 C 25.886719 4.074219 24.726562 1.8125 22.621094 0.121094 C 22.421875 -0.0390625 22.136719 -0.0390625 21.9375 0.121094 C 19.832031 1.8125 18.671875 4.074219 18.671875 6.492188 C 18.671875 8.824219 19.757812 11.019531 21.734375 12.691406 L 21.734375 14.09375 C 20.695312 14.332031 19.667969 14.632812 18.667969 14.996094 L 18.667969 11.792969 C 18.667969 11.644531 18.605469 11.507812 18.507812 11.410156 L 15.445312 8.328125 C 15.34375 8.226562 15.203125 8.167969 15.058594 8.167969 L 8.804688 8.167969 C 8.660156 8.167969 8.519531 8.226562 8.417969 8.328125 L 5.355469 11.410156 C 5.257812 11.507812 5.195312 11.644531 5.195312 11.792969 L 5.195312 13.882812 C 4.8125 13.8125 4.429688 13.75 4.046875 13.699219 L 4.046875 11.75 C 5.542969 10.464844 6.363281 8.785156 6.363281 7 C 6.363281 5.132812 5.46875 3.386719 3.84375 2.082031 C 3.640625 1.917969 3.359375 1.917969 3.15625 2.082031 C 1.53125 3.386719 0.636719 5.132812 0.636719 7 C 0.636719 8.785156 1.457031 10.464844 2.953125 11.75 L 2.953125 13.574219 C 2.15625 13.5 1.351562 13.460938 0.546875 13.460938 C 0.246094 13.460938 0 13.703125 0 14.007812 C 0 14.308594 0.246094 14.554688 0.546875 14.554688 C 4.917969 14.554688 9.195312 15.710938 12.96875 17.90625 C 12.0625 18.519531 11.203125 19.191406 10.382812 19.910156 C 7.328125 18.355469 3.933594 17.535156 0.546875 17.535156 C 0.246094 17.535156 0 17.777344 0 18.082031 C 0 18.382812 0.246094 18.628906 0.546875 18.628906 C 3.628906 18.628906 6.71875 19.34375 9.523438 20.707031 C 8.695312 21.511719 7.917969 22.371094 7.199219 23.28125 C 5.070312 22.386719 2.835938 21.9375 0.546875 21.9375 C 0.246094 21.9375 0 22.179688 0 22.484375 C 0 22.785156 0.246094 23.03125 0.546875 23.03125 C 2.597656 23.03125 4.601562 23.417969 6.519531 24.183594 C 6.140625 24.710938 5.78125 25.25 5.441406 25.804688 L 4.609375 27.167969 C 4.453125 27.425781 4.535156 27.761719 4.792969 27.917969 C 4.878906 27.972656 4.980469 28 5.078125 28 C 5.261719 28 5.441406 27.90625 5.542969 27.738281 L 6.375 26.371094 C 6.8125 25.660156 7.28125 24.976562 7.78125 24.316406 C 7.800781 24.296875 7.820312 24.273438 7.835938 24.246094 Z M 19.765625 6.492188 C 19.765625 4.546875 20.652344 2.707031 22.28125 1.261719 C 23.90625 2.707031 24.792969 4.546875 24.792969 6.492188 C 24.792969 8.203125 24.101562 9.835938 22.828125 11.1875 L 22.828125 7 C 22.828125 6.699219 22.582031 6.453125 22.28125 6.453125 C 21.976562 6.453125 21.734375 6.699219 21.734375 7 L 21.734375 11.1875 C 20.457031 9.835938 19.765625 8.203125 19.765625 6.492188 Z M 1.730469 7 C 1.730469 5.605469 2.355469 4.28125 3.5 3.226562 C 4.644531 4.28125 5.269531 5.605469 5.269531 7 C 5.269531 8.152344 4.839844 9.257812 4.046875 10.203125 L 4.046875 6.5625 C 4.046875 6.261719 3.800781 6.015625 3.5 6.015625 C 3.199219 6.015625 2.953125 6.261719 2.953125 6.5625 L 2.953125 10.203125 C 2.160156 9.257812 1.730469 8.152344 1.730469 7 Z M 16.804688 11.246094 L 12.09375 11.246094 L 10.121094 9.261719 L 14.828125 9.261719 Z M 8.804688 9.488281 L 10.550781 11.246094 L 7.058594 11.246094 Z M 6.289062 12.339844 L 11.320312 12.339844 L 11.320312 15.820312 C 11.066406 15.703125 10.8125 15.589844 10.554688 15.480469 L 10.554688 13.644531 C 10.554688 13.34375 10.308594 13.097656 10.007812 13.097656 L 7.601562 13.097656 C 7.300781 13.097656 7.054688 13.34375 7.054688 13.644531 L 7.054688 14.292969 C 6.800781 14.226562 6.546875 14.164062 6.289062 14.105469 Z M 9.460938 15.050781 C 9.027344 14.890625 8.589844 14.742188 8.148438 14.605469 L 8.148438 14.191406 L 9.460938 14.191406 Z M 12.414062 16.355469 L 12.414062 12.339844 L 17.574219 12.339844 L 17.574219 15.421875 C 16.636719 15.808594 15.722656 16.25 14.832031 16.75 C 14.550781 16.910156 14.269531 17.074219 13.992188 17.242188 C 13.476562 16.929688 12.949219 16.632812 12.414062 16.355469 Z M 12.414062 16.355469 "/>
<path style=" stroke:none;fill-rule:nonzero;fill:rgb(0%,0%,0%);fill-opacity:1;" d="M 22.28125 5.46875 C 22.421875 5.46875 22.566406 5.410156 22.667969 5.308594 C 22.769531 5.207031 22.828125 5.066406 22.828125 4.921875 C 22.828125 4.777344 22.769531 4.636719 22.667969 4.535156 C 22.566406 4.433594 22.421875 4.375 22.28125 4.375 C 22.136719 4.375 21.996094 4.433594 21.894531 4.535156 C 21.792969 4.636719 21.734375 4.777344 21.734375 4.921875 C 21.734375 5.066406 21.792969 5.207031 21.894531 5.308594 C 21.996094 5.410156 22.136719 5.46875 22.28125 5.46875 Z M 22.28125 5.46875 "/>
<path style=" stroke:none;fill-rule:nonzero;fill:rgb(0%,0%,0%);fill-opacity:1;" d="M 17.53125 19.976562 C 17.429688 20.078125 17.371094 20.21875 17.371094 20.363281 C 17.371094 20.507812 17.429688 20.648438 17.53125 20.75 C 17.632812 20.851562 17.777344 20.910156 17.917969 20.910156 C 18.0625 20.910156 18.203125 20.851562 18.304688 20.75 C 18.40625 20.648438 18.464844 20.507812 18.464844 20.363281 C 18.464844 20.21875 18.40625 20.078125 18.304688 19.976562 C 18.203125 19.875 18.0625 19.816406 17.917969 19.816406 C 17.777344 19.816406 17.632812 19.875 17.53125 19.976562 Z M 17.53125 19.976562 "/>
</g>
</svg>
