<?xml version="1.0" encoding="UTF-8"?>
<svg xmlns="http://www.w3.org/2000/svg" xmlns:xlink="http://www.w3.org/1999/xlink" width="28pt" height="28pt" viewBox="0 0 28 28" version="1.1">
<g id="surface1">
<path style=" stroke:none;fill-rule:nonzero;fill:rgb(0%,0%,0%);fill-opacity:1;" d="M 27.566406 14.628906 L 21.410156 10.535156 L 21.410156 7.769531 C 21.410156 7.445312 21.246094 7.140625 20.976562 6.960938 L 14.539062 2.679688 C 14.210938 2.460938 13.789062 2.460938 13.460938 2.679688 L 7.023438 6.960938 C 6.753906 7.140625 6.589844 7.445312 6.589844 7.769531 L 6.589844 10.535156 L 0.433594 14.628906 C 0.164062 14.8125 0 15.113281 0 15.441406 L 0 24.511719 C 0 25.046875 0.4375 25.484375 0.972656 25.484375 L 27.027344 25.484375 C 27.5625 25.484375 28 25.046875 28 24.511719 L 28 15.441406 C 28 15.113281 27.835938 14.8125 27.566406 14.628906 Z M 12.839844 19.75 L 9.886719 22.6875 L 9.886719 16.808594 Z M 11.042969 15.640625 L 16.960938 15.640625 L 14 18.589844 Z M 11.050781 23.84375 L 14 20.90625 L 16.949219 23.84375 Z M 18.113281 22.6875 L 15.164062 19.75 L 18.113281 16.808594 Z M 26.359375 23.84375 L 19.753906 23.84375 L 19.753906 14.972656 C 19.753906 14.4375 19.316406 14 18.78125 14 L 9.222656 14 C 8.683594 14 8.246094 14.4375 8.246094 14.972656 L 8.246094 23.84375 L 1.640625 23.84375 L 1.640625 15.796875 L 7.796875 11.703125 C 8.066406 11.523438 8.230469 11.21875 8.230469 10.894531 L 8.230469 8.128906 L 14 4.289062 L 19.769531 8.128906 L 19.769531 10.894531 C 19.769531 11.21875 19.933594 11.523438 20.203125 11.703125 L 26.359375 15.796875 Z M 26.359375 23.84375 "/>
<path style=" stroke:none;fill-rule:nonzero;fill:rgb(0%,0%,0%);fill-opacity:1;" d="M 15.128906 7.03125 L 12.824219 7.03125 C 12.324219 7.03125 11.917969 7.4375 11.917969 7.9375 L 11.917969 11.585938 C 11.917969 12.082031 12.324219 12.488281 12.824219 12.488281 L 15.128906 12.488281 C 15.628906 12.488281 16.035156 12.082031 16.035156 11.585938 L 16.035156 7.9375 C 16.035156 7.4375 15.628906 7.03125 15.128906 7.03125 Z M 14.394531 10.847656 L 13.558594 10.847656 L 13.558594 8.671875 L 14.394531 8.671875 Z M 14.394531 10.847656 "/>
</g>
</svg>
