<?xml version="1.0" encoding="UTF-8"?>
<svg xmlns="http://www.w3.org/2000/svg" xmlns:xlink="http://www.w3.org/1999/xlink" width="28pt" height="28pt" viewBox="0 0 28 28" version="1.1">
<g id="surface1">
<path style=" stroke:none;fill-rule:nonzero;fill:rgb(0%,0%,0%);fill-opacity:1;" d="M 27.378906 10.527344 L 15.039062 10.527344 L 15.039062 8.472656 L 15.335938 8.472656 C 15.679688 8.472656 15.957031 8.195312 15.957031 7.851562 L 15.957031 5.847656 C 15.957031 5.503906 15.679688 5.226562 15.335938 5.226562 L 0.621094 5.226562 C 0.277344 5.226562 0 5.503906 0 5.847656 L 0 7.851562 C 0 8.195312 0.277344 8.472656 0.621094 8.472656 L 0.917969 8.472656 L 0.917969 21.753906 C 0.917969 22.097656 1.195312 22.375 1.539062 22.375 L 14.417969 22.375 C 14.761719 22.375 15.039062 22.097656 15.039062 21.753906 L 15.039062 13.773438 L 25.003906 13.773438 L 25.003906 21.753906 C 25.003906 22.097656 25.28125 22.375 25.625 22.375 C 25.964844 22.375 26.246094 22.097656 26.246094 21.753906 L 26.246094 13.773438 L 27.378906 13.773438 C 27.722656 13.773438 28 13.496094 28 13.15625 L 28 11.148438 C 28 10.804688 27.722656 10.527344 27.378906 10.527344 Z M 26.761719 12.535156 L 15.039062 12.535156 L 15.039062 11.769531 L 26.761719 11.769531 Z M 1.238281 7.234375 L 1.238281 6.46875 L 14.714844 6.46875 L 14.714844 7.234375 Z M 2.15625 8.472656 L 13.800781 8.472656 L 13.800781 21.132812 L 10.140625 21.132812 L 10.140625 16.78125 C 10.140625 16.4375 9.863281 16.160156 9.523438 16.160156 L 6.433594 16.160156 C 6.09375 16.160156 5.816406 16.4375 5.816406 16.78125 L 5.816406 21.132812 L 2.15625 21.132812 Z M 8.902344 21.132812 L 7.054688 21.132812 L 7.054688 17.398438 L 8.902344 17.398438 Z M 8.902344 21.132812 "/>
<path style=" stroke:none;fill-rule:nonzero;fill:rgb(0%,0%,0%);fill-opacity:1;" d="M 23.363281 17.699219 L 23.363281 16.488281 C 23.363281 15.660156 22.6875 14.984375 21.859375 14.984375 L 18.332031 14.984375 C 17.5 14.984375 16.824219 15.660156 16.824219 16.488281 L 16.824219 17.699219 C 16.308594 17.886719 15.941406 18.378906 15.941406 18.957031 L 15.941406 21.417969 C 15.941406 21.761719 16.21875 22.039062 16.5625 22.039062 L 16.917969 22.039062 L 16.917969 22.152344 C 16.917969 22.496094 17.195312 22.773438 17.535156 22.773438 C 17.878906 22.773438 18.15625 22.496094 18.15625 22.152344 L 18.15625 22.039062 L 22.035156 22.039062 L 22.035156 22.152344 C 22.035156 22.496094 22.3125 22.773438 22.652344 22.773438 C 22.996094 22.773438 23.273438 22.496094 23.273438 22.152344 L 23.273438 22.039062 L 23.628906 22.039062 C 23.972656 22.039062 24.25 21.761719 24.25 21.417969 L 24.25 18.957031 C 24.25 18.378906 23.878906 17.886719 23.363281 17.699219 Z M 17.179688 20.800781 L 17.179688 18.957031 C 17.179688 18.902344 17.226562 18.859375 17.28125 18.859375 L 22.910156 18.859375 C 22.964844 18.859375 23.007812 18.902344 23.007812 18.957031 L 23.007812 20.800781 Z M 18.332031 16.222656 L 21.859375 16.222656 C 22.003906 16.222656 22.125 16.34375 22.125 16.488281 L 22.125 17.617188 L 18.066406 17.617188 L 18.066406 16.488281 C 18.066406 16.34375 18.183594 16.222656 18.332031 16.222656 Z M 18.332031 16.222656 "/>
<path style=" stroke:none;fill-rule:nonzero;fill:rgb(0%,0%,0%);fill-opacity:1;" d="M 18.105469 19.484375 C 17.945312 19.484375 17.785156 19.550781 17.667969 19.667969 C 17.554688 19.78125 17.488281 19.941406 17.488281 20.105469 C 17.488281 20.269531 17.554688 20.425781 17.667969 20.542969 C 17.785156 20.660156 17.945312 20.726562 18.105469 20.726562 C 18.269531 20.726562 18.429688 20.660156 18.546875 20.542969 C 18.660156 20.429688 18.726562 20.269531 18.726562 20.105469 C 18.726562 19.941406 18.660156 19.78125 18.546875 19.667969 C 18.429688 19.550781 18.269531 19.484375 18.105469 19.484375 Z M 18.105469 19.484375 "/>
<path style=" stroke:none;fill-rule:nonzero;fill:rgb(0%,0%,0%);fill-opacity:1;" d="M 22.082031 19.484375 C 21.917969 19.484375 21.757812 19.550781 21.644531 19.667969 C 21.527344 19.78125 21.460938 19.941406 21.460938 20.105469 C 21.460938 20.269531 21.527344 20.425781 21.644531 20.542969 C 21.757812 20.660156 21.917969 20.726562 22.082031 20.726562 C 22.246094 20.726562 22.40625 20.660156 22.519531 20.542969 C 22.636719 20.425781 22.703125 20.269531 22.703125 20.105469 C 22.703125 19.941406 22.636719 19.78125 22.519531 19.667969 C 22.40625 19.550781 22.246094 19.484375 22.082031 19.484375 Z M 22.082031 19.484375 "/>
<path style=" stroke:none;fill-rule:nonzero;fill:rgb(0%,0%,0%);fill-opacity:1;" d="M 4.964844 10.285156 C 4.621094 10.285156 4.34375 10.5625 4.34375 10.902344 L 4.34375 12.210938 C 4.34375 12.554688 4.621094 12.832031 4.964844 12.832031 C 5.308594 12.832031 5.585938 12.554688 5.585938 12.210938 L 5.585938 10.902344 C 5.585938 10.5625 5.308594 10.285156 4.964844 10.285156 Z M 4.964844 10.285156 "/>
<path style=" stroke:none;fill-rule:nonzero;fill:rgb(0%,0%,0%);fill-opacity:1;" d="M 7.976562 12.832031 C 8.320312 12.832031 8.597656 12.554688 8.597656 12.210938 L 8.597656 10.902344 C 8.597656 10.5625 8.320312 10.285156 7.976562 10.285156 C 7.636719 10.285156 7.359375 10.5625 7.359375 10.902344 L 7.359375 12.210938 C 7.359375 12.554688 7.636719 12.832031 7.976562 12.832031 Z M 7.976562 12.832031 "/>
<path style=" stroke:none;fill-rule:nonzero;fill:rgb(0%,0%,0%);fill-opacity:1;" d="M 10.992188 12.832031 C 11.335938 12.832031 11.613281 12.554688 11.613281 12.210938 L 11.613281 10.902344 C 11.613281 10.5625 11.335938 10.285156 10.992188 10.285156 C 10.648438 10.285156 10.371094 10.5625 10.371094 10.902344 L 10.371094 12.210938 C 10.371094 12.554688 10.648438 12.832031 10.992188 12.832031 Z M 10.992188 12.832031 "/>
</g>
</svg>
