<?xml version="1.0" encoding="UTF-8"?>
<svg xmlns="http://www.w3.org/2000/svg" xmlns:xlink="http://www.w3.org/1999/xlink" width="28pt" height="28pt" viewBox="0 0 28 28" version="1.1">
<g id="surface1">
<path style=" stroke:none;fill-rule:nonzero;fill:rgb(0%,0%,0%);fill-opacity:1;" d="M 11.667969 14.933594 L 8.867188 14.933594 C 8.351562 14.933594 7.933594 15.351562 7.933594 15.867188 L 7.933594 18.667969 C 7.933594 19.183594 8.351562 19.597656 8.867188 19.601562 L 11.667969 19.601562 C 12.183594 19.597656 12.597656 19.183594 12.601562 18.667969 L 12.601562 15.867188 C 12.597656 15.351562 12.183594 14.933594 11.667969 14.933594 Z M 8.867188 18.667969 L 8.867188 15.867188 L 11.667969 15.867188 L 11.667969 18.667969 Z M 8.867188 18.667969 "/>
<path style=" stroke:none;fill-rule:nonzero;fill:rgb(0%,0%,0%);fill-opacity:1;" d="M 16.332031 19.601562 L 19.132812 19.601562 C 19.648438 19.597656 20.066406 19.183594 20.066406 18.667969 L 20.066406 15.867188 C 20.066406 15.351562 19.648438 14.933594 19.132812 14.933594 L 16.332031 14.933594 C 15.816406 14.933594 15.402344 15.351562 15.398438 15.867188 L 15.398438 18.667969 C 15.402344 19.183594 15.816406 19.597656 16.332031 19.601562 Z M 16.332031 15.867188 L 19.132812 15.867188 L 19.132812 18.667969 L 16.332031 18.667969 Z M 16.332031 15.867188 "/>
<path style=" stroke:none;fill-rule:nonzero;fill:rgb(0%,0%,0%);fill-opacity:1;" d="M 26.765625 16.160156 C 26.730469 15.792969 26.550781 15.453125 26.265625 15.222656 L 14.894531 5.917969 C 14.375 5.492188 13.625 5.492188 13.105469 5.917969 L 1.734375 15.222656 C 1.449219 15.453125 1.269531 15.792969 1.234375 16.160156 C 1.203125 16.527344 1.320312 16.890625 1.5625 17.167969 C 2.066406 17.742188 2.929688 17.816406 3.523438 17.335938 L 5.132812 16.019531 L 5.132812 26.601562 C 5.132812 27.371094 5.761719 28 6.535156 28 L 11.199219 28 C 11.714844 28 12.132812 27.582031 12.132812 27.066406 L 12.132812 21.464844 L 15.867188 21.464844 L 15.867188 27.066406 C 15.867188 27.582031 16.285156 28 16.800781 28 L 21.464844 28 C 22.238281 28 22.867188 27.371094 22.867188 26.601562 L 22.867188 16.023438 L 24.476562 17.335938 C 25.066406 17.816406 25.933594 17.742188 26.4375 17.167969 C 26.679688 16.890625 26.796875 16.527344 26.765625 16.160156 Z M 21.933594 26.601562 C 21.933594 26.859375 21.722656 27.066406 21.464844 27.066406 L 16.800781 27.066406 L 16.800781 21.464844 C 16.800781 20.953125 16.382812 20.535156 15.867188 20.535156 L 12.132812 20.535156 C 11.617188 20.535156 11.199219 20.953125 11.199219 21.464844 L 11.199219 27.066406 L 6.535156 27.066406 C 6.277344 27.066406 6.066406 26.859375 6.066406 26.601562 L 6.066406 15.257812 L 13.695312 9.015625 C 13.875 8.871094 14.128906 8.871094 14.304688 9.015625 L 21.933594 15.257812 Z M 25.730469 16.558594 C 25.558594 16.753906 25.265625 16.777344 25.066406 16.613281 L 14.894531 8.292969 C 14.375 7.867188 13.625 7.867188 13.105469 8.292969 L 2.933594 16.613281 C 2.734375 16.777344 2.441406 16.753906 2.269531 16.558594 C 2.191406 16.472656 2.15625 16.359375 2.164062 16.242188 C 2.175781 16.125 2.234375 16.019531 2.328125 15.945312 L 13.695312 6.640625 C 13.871094 6.496094 14.128906 6.496094 14.304688 6.640625 L 25.675781 15.945312 C 25.765625 16.019531 25.824219 16.125 25.835938 16.242188 C 25.84375 16.359375 25.808594 16.472656 25.730469 16.558594 Z M 25.730469 16.558594 "/>
<path style=" stroke:none;fill-rule:nonzero;fill:rgb(0%,0%,0%);fill-opacity:1;" d="M 11.09375 5.03125 C 11.109375 5.199219 11.214844 5.34375 11.367188 5.410156 C 11.519531 5.480469 11.695312 5.460938 11.832031 5.363281 C 13.132812 4.453125 14.867188 4.453125 16.167969 5.363281 C 16.304688 5.460938 16.480469 5.480469 16.632812 5.410156 C 16.785156 5.34375 16.890625 5.199219 16.90625 5.03125 C 16.925781 4.867188 16.851562 4.703125 16.714844 4.605469 C 15.089844 3.441406 12.910156 3.441406 11.285156 4.605469 C 11.148438 4.703125 11.074219 4.867188 11.09375 5.03125 Z M 11.09375 5.03125 "/>
<path style=" stroke:none;fill-rule:nonzero;fill:rgb(0%,0%,0%);fill-opacity:1;" d="M 17.242188 3.832031 C 17.445312 3.832031 17.625 3.699219 17.6875 3.507812 C 17.75 3.3125 17.679688 3.101562 17.511719 2.984375 C 15.40625 1.496094 12.59375 1.496094 10.488281 2.984375 C 10.351562 3.082031 10.277344 3.242188 10.292969 3.410156 C 10.304688 3.574219 10.410156 3.71875 10.5625 3.789062 C 10.714844 3.859375 10.890625 3.84375 11.027344 3.746094 C 12.808594 2.484375 15.191406 2.484375 16.972656 3.746094 C 17.050781 3.800781 17.144531 3.832031 17.242188 3.832031 Z M 17.242188 3.832031 "/>
<path style=" stroke:none;fill-rule:nonzero;fill:rgb(0%,0%,0%);fill-opacity:1;" d="M 10.308594 2.242188 C 12.476562 0.523438 15.53125 0.496094 17.734375 2.167969 C 17.832031 2.242188 17.957031 2.277344 18.082031 2.257812 C 18.203125 2.242188 18.316406 2.179688 18.390625 2.078125 C 18.546875 1.875 18.503906 1.582031 18.300781 1.425781 C 15.757812 -0.507812 12.234375 -0.472656 9.730469 1.511719 C 9.527344 1.667969 9.492188 1.964844 9.652344 2.164062 C 9.8125 2.367188 10.105469 2.402344 10.308594 2.242188 Z M 10.308594 2.242188 "/>
</g>
</svg>
