<?xml version="1.0" encoding="UTF-8"?>
<svg xmlns="http://www.w3.org/2000/svg" xmlns:xlink="http://www.w3.org/1999/xlink" width="28pt" height="28pt" viewBox="0 0 28 28" version="1.1">
<g id="surface1">
<path style=" stroke:none;fill-rule:nonzero;fill:rgb(0%,0%,0%);fill-opacity:1;" d="M 14 1.398438 C 20.949219 1.398438 26.601562 7.050781 26.601562 14 C 26.601562 20.949219 20.949219 26.601562 14 26.601562 C 7.050781 26.601562 1.398438 20.949219 1.398438 14 C 1.398438 7.050781 7.050781 1.398438 14 1.398438 M 14 0 C 6.269531 0 0 6.269531 0 14 C 0 21.730469 6.269531 28 14 28 C 21.730469 28 28 21.730469 28 14 C 28 6.269531 21.730469 0 14 0 Z M 14 0 "/>
<path style=" stroke:none;fill-rule:nonzero;fill:rgb(0%,0%,0%);fill-opacity:1;" d="M 19.59375 12.480469 L 12.140625 7.574219 C 10.851562 6.726562 9.800781 7.296875 9.800781 8.835938 L 9.800781 19.160156 C 9.800781 20.703125 10.855469 21.269531 12.144531 20.429688 L 19.589844 15.554688 C 20.878906 14.710938 20.878906 13.328125 19.59375 12.480469 Z M 18.601562 14.523438 L 11.980469 18.855469 C 11.550781 19.136719 11.199219 18.949219 11.199219 18.433594 L 11.199219 9.5625 C 11.199219 9.050781 11.550781 8.859375 11.980469 9.140625 L 18.601562 13.5 C 19.03125 13.78125 19.03125 14.242188 18.601562 14.523438 Z M 18.601562 14.523438 "/>
</g>
</svg>
