<?xml version="1.0" encoding="UTF-8"?>
<svg xmlns="http://www.w3.org/2000/svg" xmlns:xlink="http://www.w3.org/1999/xlink" width="28pt" height="28pt" viewBox="0 0 28 28" version="1.1">
<g id="surface1">
<path style=" stroke:none;fill-rule:nonzero;fill:rgb(0%,0%,0%);fill-opacity:1;" d="M 18.914062 15.414062 C 19.960938 14.929688 21.003906 14.574219 22.027344 14.359375 C 22.324219 14.296875 22.511719 14.003906 22.449219 13.710938 C 22.386719 13.414062 22.097656 13.226562 21.800781 13.289062 C 20.617188 13.539062 19.414062 13.957031 18.207031 14.539062 C 17.535156 13.734375 16.765625 12.898438 15.933594 12.066406 C 15.050781 11.183594 14.160156 10.367188 13.3125 9.667969 C 14.042969 8.738281 14.644531 7.699219 15.097656 6.5625 C 15.800781 4.792969 16.160156 2.769531 16.160156 0.546875 C 16.160156 0.246094 15.914062 0 15.613281 0 C 15.3125 0 15.066406 0.246094 15.066406 0.546875 C 15.066406 3.96875 14.1875 6.800781 12.457031 8.984375 C 12.128906 8.738281 11.8125 8.507812 11.511719 8.304688 C 9.890625 7.210938 8.921875 6.953125 8.382812 7.472656 C 8.378906 7.476562 8.375 7.480469 8.371094 7.484375 C 8.371094 7.484375 8.371094 7.484375 8.371094 7.488281 C 8.230469 7.625 8.148438 7.792969 8.113281 7.992188 L 0.0429688 27.242188 C -0.0429688 27.445312 0.00390625 27.683594 0.160156 27.839844 C 0.265625 27.945312 0.40625 28 0.546875 28 C 0.617188 28 0.691406 27.984375 0.757812 27.957031 C 0.761719 27.957031 0.757812 27.957031 0.761719 27.957031 L 20.007812 19.886719 C 20.1875 19.855469 20.34375 19.78125 20.476562 19.664062 C 20.484375 19.65625 20.492188 19.648438 20.503906 19.640625 C 20.507812 19.636719 20.511719 19.632812 20.511719 19.628906 C 20.515625 19.628906 20.515625 19.628906 20.515625 19.628906 C 20.519531 19.625 20.523438 19.621094 20.527344 19.617188 C 21.046875 19.074219 20.789062 18.109375 19.695312 16.488281 C 19.464844 16.148438 19.203125 15.785156 18.914062 15.414062 Z M 4.335938 24.105469 C 4.222656 24.816406 3.96875 25.285156 3.847656 25.476562 L 1.566406 26.433594 L 3.882812 20.910156 C 4.335938 22.046875 4.492188 23.132812 4.335938 24.105469 Z M 7.703125 22.253906 C 7.480469 23.511719 6.898438 24.117188 6.730469 24.265625 L 5.289062 24.871094 C 5.609375 23.730469 5.695312 21.921875 4.457031 19.542969 L 6.09375 15.636719 C 7.796875 18.859375 7.921875 20.996094 7.703125 22.253906 Z M 9.652344 23.042969 L 8.476562 23.535156 C 8.585938 23.25 8.6875 22.929688 8.757812 22.5625 C 9.195312 20.328125 8.480469 17.566406 6.636719 14.347656 L 7.226562 12.9375 C 7.695312 13.5 8.230469 14.300781 8.445312 14.800781 C 8.535156 15.007812 8.734375 15.132812 8.949219 15.132812 C 9.019531 15.132812 9.09375 15.117188 9.164062 15.089844 C 9.441406 14.96875 9.570312 14.648438 9.449219 14.371094 C 9.128906 13.625 8.316406 12.464844 7.695312 11.824219 L 8.597656 9.667969 C 8.757812 9.957031 8.953125 10.277344 9.1875 10.625 C 9.351562 10.867188 9.527344 11.113281 9.71875 11.371094 C 11.589844 14.210938 11.546875 17.113281 11.179688 19.054688 C 10.792969 21.113281 9.960938 22.625 9.652344 23.042969 Z M 13.867188 21.273438 L 11.269531 22.363281 C 11.644531 21.539062 12.027344 20.460938 12.253906 19.257812 C 12.507812 17.910156 12.621094 16.140625 12.152344 14.226562 C 12.410156 14.5 12.675781 14.777344 12.949219 15.050781 C 13.769531 15.867188 14.59375 16.625 15.386719 17.292969 C 15.308594 19.875 14.121094 21.050781 13.867188 21.273438 Z M 15.753906 20.484375 C 16.046875 19.878906 16.304688 19.097656 16.417969 18.121094 C 16.75 18.375 17.070312 18.605469 17.375 18.8125 C 17.722656 19.046875 18.042969 19.242188 18.332031 19.402344 Z M 17.675781 17.691406 C 16.488281 16.847656 15.082031 15.636719 13.722656 14.277344 C 12.363281 12.917969 11.152344 11.511719 10.308594 10.324219 C 9.496094 9.175781 9.273438 8.585938 9.21875 8.332031 C 9.472656 8.390625 10.058594 8.609375 11.207031 9.425781 C 11.378906 9.546875 11.554688 9.675781 11.734375 9.808594 C 11.695312 9.847656 11.65625 9.890625 11.617188 9.929688 C 11.402344 10.140625 11.402344 10.488281 11.617188 10.703125 C 11.722656 10.808594 11.863281 10.863281 12.003906 10.863281 C 12.144531 10.863281 12.285156 10.808594 12.390625 10.703125 C 12.460938 10.632812 12.527344 10.5625 12.59375 10.492188 C 13.421875 11.179688 14.300781 11.980469 15.160156 12.839844 C 15.898438 13.578125 16.59375 14.332031 17.210938 15.054688 C 17.113281 15.109375 17.015625 15.164062 16.914062 15.222656 C 16.652344 15.375 16.5625 15.707031 16.714844 15.96875 C 16.816406 16.144531 17 16.242188 17.1875 16.242188 C 17.28125 16.242188 17.375 16.21875 17.460938 16.167969 C 17.613281 16.082031 17.765625 15.996094 17.917969 15.914062 C 18.15625 16.21875 18.375 16.511719 18.574219 16.792969 C 19.390625 17.941406 19.609375 18.527344 19.667969 18.78125 C 19.414062 18.726562 18.824219 18.503906 17.675781 17.691406 Z M 17.675781 17.691406 "/>
<path style=" stroke:none;fill-rule:nonzero;fill:rgb(0%,0%,0%);fill-opacity:1;" d="M 9.890625 15.777344 C 9.769531 15.503906 9.445312 15.378906 9.167969 15.503906 C 8.902344 15.625 8.777344 15.933594 8.882812 16.203125 C 8.964844 16.417969 9.171875 16.554688 9.394531 16.554688 C 9.453125 16.554688 9.515625 16.542969 9.574219 16.523438 C 9.859375 16.421875 10.011719 16.109375 9.910156 15.824219 C 9.90625 15.8125 9.898438 15.792969 9.890625 15.777344 Z M 9.890625 15.777344 "/>
<path style=" stroke:none;fill-rule:nonzero;fill:rgb(0%,0%,0%);fill-opacity:1;" d="M 20.421875 8.460938 C 20.527344 8.566406 20.667969 8.621094 20.808594 8.621094 C 20.949219 8.621094 21.089844 8.566406 21.195312 8.460938 C 22.417969 7.238281 24.398438 6.679688 25.84375 6.5625 C 26.144531 6.535156 26.367188 6.273438 26.34375 5.972656 C 26.320312 5.671875 26.054688 5.449219 25.753906 5.472656 C 24.113281 5.601562 21.855469 6.253906 20.421875 7.6875 C 20.207031 7.898438 20.207031 8.246094 20.421875 8.460938 Z M 20.421875 8.460938 "/>
<path style=" stroke:none;fill-rule:nonzero;fill:rgb(0%,0%,0%);fill-opacity:1;" d="M 27.59375 5.574219 C 27.578125 5.570312 27.5625 5.566406 27.546875 5.5625 C 27.253906 5.492188 26.957031 5.667969 26.882812 5.960938 C 26.8125 6.253906 26.992188 6.550781 27.285156 6.625 L 27.3125 6.632812 C 27.359375 6.644531 27.40625 6.652344 27.453125 6.652344 C 27.695312 6.652344 27.914062 6.492188 27.980469 6.246094 C 28.058594 5.953125 27.886719 5.65625 27.59375 5.574219 Z M 27.59375 5.574219 "/>
<path style=" stroke:none;fill-rule:nonzero;fill:rgb(0%,0%,0%);fill-opacity:1;" d="M 4.019531 4.574219 L 4.566406 4.574219 L 4.566406 5.121094 C 4.566406 5.421875 4.8125 5.667969 5.113281 5.667969 C 5.414062 5.667969 5.660156 5.421875 5.660156 5.121094 L 5.660156 4.574219 L 6.207031 4.574219 C 6.507812 4.574219 6.753906 4.328125 6.753906 4.027344 C 6.753906 3.722656 6.507812 3.480469 6.207031 3.480469 L 5.660156 3.480469 L 5.660156 2.933594 C 5.660156 2.628906 5.414062 2.386719 5.113281 2.386719 C 4.8125 2.386719 4.566406 2.628906 4.566406 2.933594 L 4.566406 3.480469 L 4.019531 3.480469 C 3.71875 3.480469 3.472656 3.722656 3.472656 4.027344 C 3.472656 4.328125 3.71875 4.574219 4.019531 4.574219 Z M 4.019531 4.574219 "/>
<path style=" stroke:none;fill-rule:nonzero;fill:rgb(0%,0%,0%);fill-opacity:1;" d="M 16.816406 9.878906 L 17.363281 9.878906 L 17.363281 10.425781 C 17.363281 10.726562 17.609375 10.972656 17.910156 10.972656 C 18.210938 10.972656 18.457031 10.726562 18.457031 10.425781 L 18.457031 9.878906 L 19.003906 9.878906 C 19.304688 9.878906 19.550781 9.632812 19.550781 9.332031 C 19.550781 9.027344 19.304688 8.785156 19.003906 8.785156 L 18.457031 8.785156 L 18.457031 8.238281 C 18.457031 7.933594 18.210938 7.691406 17.910156 7.691406 C 17.609375 7.691406 17.363281 7.933594 17.363281 8.238281 L 17.363281 8.785156 L 16.816406 8.785156 C 16.515625 8.785156 16.269531 9.027344 16.269531 9.332031 C 16.269531 9.632812 16.515625 9.878906 16.816406 9.878906 Z M 16.816406 9.878906 "/>
<path style=" stroke:none;fill-rule:nonzero;fill:rgb(0%,0%,0%);fill-opacity:1;" d="M 24.417969 22.839844 L 23.871094 22.839844 L 23.871094 22.292969 C 23.871094 21.988281 23.625 21.746094 23.324219 21.746094 C 23.023438 21.746094 22.777344 21.988281 22.777344 22.292969 L 22.777344 22.839844 L 22.230469 22.839844 C 21.929688 22.839844 21.683594 23.082031 21.683594 23.386719 C 21.683594 23.6875 21.929688 23.933594 22.230469 23.933594 L 22.777344 23.933594 L 22.777344 24.480469 C 22.777344 24.78125 23.023438 25.027344 23.324219 25.027344 C 23.625 25.027344 23.871094 24.78125 23.871094 24.480469 L 23.871094 23.933594 L 24.417969 23.933594 C 24.71875 23.933594 24.964844 23.6875 24.964844 23.386719 C 24.964844 23.082031 24.71875 22.839844 24.417969 22.839844 Z M 24.417969 22.839844 "/>
<path style=" stroke:none;fill-rule:nonzero;fill:rgb(0%,0%,0%);fill-opacity:1;" d="M 21.328125 3.28125 C 22.230469 3.28125 22.96875 2.546875 22.96875 1.640625 C 22.96875 0.734375 22.230469 0 21.328125 0 C 20.421875 0 19.6875 0.734375 19.6875 1.640625 C 19.6875 2.546875 20.421875 3.28125 21.328125 3.28125 Z M 21.328125 1.09375 C 21.628906 1.09375 21.875 1.339844 21.875 1.640625 C 21.875 1.941406 21.628906 2.1875 21.328125 2.1875 C 21.023438 2.1875 20.78125 1.941406 20.78125 1.640625 C 20.78125 1.339844 21.023438 1.09375 21.328125 1.09375 Z M 21.328125 1.09375 "/>
<path style=" stroke:none;fill-rule:nonzero;fill:rgb(0%,0%,0%);fill-opacity:1;" d="M 24.746094 9.496094 C 23.839844 9.496094 23.105469 10.230469 23.105469 11.136719 C 23.105469 12.039062 23.839844 12.777344 24.746094 12.777344 C 25.652344 12.777344 26.386719 12.039062 26.386719 11.136719 C 26.386719 10.230469 25.652344 9.496094 24.746094 9.496094 Z M 24.746094 11.683594 C 24.445312 11.683594 24.199219 11.4375 24.199219 11.136719 C 24.199219 10.832031 24.445312 10.589844 24.746094 10.589844 C 25.046875 10.589844 25.292969 10.832031 25.292969 11.136719 C 25.292969 11.4375 25.046875 11.683594 24.746094 11.683594 Z M 24.746094 11.683594 "/>
<path style=" stroke:none;fill-rule:nonzero;fill:rgb(0%,0%,0%);fill-opacity:1;" d="M 10.855469 5.230469 C 11.761719 5.230469 12.496094 4.492188 12.496094 3.589844 C 12.496094 2.683594 11.761719 1.949219 10.855469 1.949219 C 9.949219 1.949219 9.214844 2.683594 9.214844 3.589844 C 9.214844 4.492188 9.949219 5.230469 10.855469 5.230469 Z M 10.855469 3.042969 C 11.15625 3.042969 11.402344 3.285156 11.402344 3.589844 C 11.402344 3.890625 11.15625 4.136719 10.855469 4.136719 C 10.554688 4.136719 10.308594 3.890625 10.308594 3.589844 C 10.308594 3.285156 10.554688 3.042969 10.855469 3.042969 Z M 10.855469 3.042969 "/>
<path style=" stroke:none;fill-rule:nonzero;fill:rgb(0%,0%,0%);fill-opacity:1;" d="M 24.566406 16.082031 C 24.566406 15.78125 24.320312 15.535156 24.019531 15.535156 C 23.71875 15.535156 23.472656 15.78125 23.472656 16.082031 C 23.472656 16.382812 23.71875 16.628906 24.019531 16.628906 C 24.320312 16.628906 24.566406 16.382812 24.566406 16.082031 Z M 24.566406 16.082031 "/>
<path style=" stroke:none;fill-rule:nonzero;fill:rgb(0%,0%,0%);fill-opacity:1;" d="M 18.332031 5.199219 C 18.632812 5.199219 18.878906 4.953125 18.878906 4.652344 C 18.878906 4.351562 18.632812 4.105469 18.332031 4.105469 C 18.03125 4.105469 17.785156 4.351562 17.785156 4.652344 C 17.785156 4.953125 18.03125 5.199219 18.332031 5.199219 Z M 18.332031 5.199219 "/>
<path style=" stroke:none;fill-rule:nonzero;fill:rgb(0%,0%,0%);fill-opacity:1;" d="M 25.660156 19.636719 C 25.359375 19.636719 25.113281 19.882812 25.113281 20.183594 C 25.113281 20.484375 25.359375 20.730469 25.660156 20.730469 C 25.960938 20.730469 26.207031 20.484375 26.207031 20.183594 C 26.207031 19.882812 25.960938 19.636719 25.660156 19.636719 Z M 25.660156 19.636719 "/>
<path style=" stroke:none;fill-rule:nonzero;fill:rgb(0%,0%,0%);fill-opacity:1;" d="M 7.613281 1.640625 C 7.914062 1.640625 8.160156 1.394531 8.160156 1.09375 C 8.160156 0.792969 7.914062 0.546875 7.613281 0.546875 C 7.3125 0.546875 7.066406 0.792969 7.066406 1.09375 C 7.066406 1.394531 7.3125 1.640625 7.613281 1.640625 Z M 7.613281 1.640625 "/>
</g>
</svg>
