<?xml version="1.0" encoding="UTF-8"?>
<svg xmlns="http://www.w3.org/2000/svg" xmlns:xlink="http://www.w3.org/1999/xlink" width="28pt" height="28pt" viewBox="0 0 28 28" version="1.1">
<g id="surface1">
<path style=" stroke:none;fill-rule:nonzero;fill:rgb(0%,0%,0%);fill-opacity:1;" d="M 13.167969 7.476562 C 13.160156 7.234375 12.996094 7.023438 12.757812 6.960938 L 7.546875 5.585938 C 7.542969 5.585938 7.542969 5.585938 7.542969 5.585938 L 5.582031 5.066406 C 5.347656 5.003906 5.101562 5.105469 4.976562 5.308594 C 4.1875 6.585938 3.570312 8.003906 3.1875 9.414062 C 2.546875 11.765625 2.65625 13.785156 3.5 15.25 C 3.988281 16.097656 4.707031 16.71875 5.597656 17.074219 L 3.585938 24.460938 L 0.6875 23.695312 C 0.394531 23.621094 0.09375 23.792969 0.0195312 24.085938 C -0.0585938 24.378906 0.117188 24.675781 0.40625 24.753906 C 0.40625 24.753906 3.828125 25.65625 3.828125 25.65625 C 3.828125 25.65625 7.253906 26.558594 7.253906 26.558594 C 7.300781 26.570312 7.347656 26.578125 7.394531 26.578125 C 7.636719 26.578125 7.859375 26.414062 7.921875 26.171875 C 8 25.878906 7.828125 25.578125 7.535156 25.503906 L 4.644531 24.738281 L 6.652344 17.355469 C 6.851562 17.382812 7.046875 17.398438 7.242188 17.398438 C 9.683594 17.398438 11.695312 15.347656 12.632812 11.914062 C 13.015625 10.503906 13.199219 8.96875 13.167969 7.476562 Z M 11.574219 11.625 C 10.777344 14.554688 9.160156 16.304688 7.242188 16.304688 C 6.964844 16.304688 6.679688 16.265625 6.398438 16.191406 C 5.554688 15.96875 4.882812 15.453125 4.449219 14.703125 C 3.933594 13.8125 3.761719 12.636719 3.929688 11.253906 C 4.660156 11.371094 5.351562 11.417969 6.003906 11.417969 C 7.078125 11.417969 8.058594 11.296875 8.96875 11.183594 C 9.996094 11.054688 10.910156 10.941406 11.71875 11.042969 C 11.675781 11.242188 11.628906 11.433594 11.574219 11.625 Z M 11.917969 9.96875 C 10.949219 9.835938 9.917969 9.964844 8.835938 10.097656 C 7.453125 10.269531 5.898438 10.460938 4.121094 10.175781 C 4.160156 10.019531 4.199219 9.863281 4.242188 9.699219 C 4.5625 8.515625 5.066406 7.324219 5.699219 6.230469 L 6.566406 6.457031 C 6.410156 6.761719 6.265625 7.074219 6.152344 7.328125 C 6.027344 7.605469 6.152344 7.925781 6.429688 8.050781 C 6.5 8.082031 6.578125 8.097656 6.652344 8.097656 C 6.859375 8.097656 7.058594 7.976562 7.152344 7.773438 C 7.328125 7.375 7.5 7.023438 7.65625 6.746094 L 12.078125 7.910156 C 12.074219 8.597656 12.019531 9.289062 11.917969 9.96875 Z M 11.917969 9.96875 "/>
<path style=" stroke:none;fill-rule:nonzero;fill:rgb(0%,0%,0%);fill-opacity:1;" d="M 24.171875 25.65625 L 20.773438 26.550781 C 21.09375 26.46875 24.171875 25.65625 24.171875 25.65625 Z M 24.171875 25.65625 "/>
<path style=" stroke:none;fill-rule:nonzero;fill:rgb(0%,0%,0%);fill-opacity:1;" d="M 20.773438 26.550781 C 20.753906 26.558594 20.746094 26.558594 20.746094 26.558594 Z M 20.773438 26.550781 "/>
<path style=" stroke:none;fill-rule:nonzero;fill:rgb(0%,0%,0%);fill-opacity:1;" d="M 27.980469 24.085938 C 27.90625 23.792969 27.605469 23.621094 27.3125 23.695312 L 24.414062 24.460938 L 22.402344 17.074219 C 23.292969 16.71875 24.007812 16.097656 24.5 15.25 C 25.34375 13.785156 25.453125 11.765625 24.8125 9.414062 C 24.429688 8.003906 23.8125 6.585938 23.023438 5.308594 C 22.898438 5.105469 22.652344 5.003906 22.417969 5.066406 L 15.238281 6.960938 C 15.003906 7.023438 14.839844 7.234375 14.832031 7.476562 C 14.804688 8.820312 14.949219 10.195312 15.261719 11.484375 C 15.265625 11.503906 15.269531 11.523438 15.273438 11.539062 C 15.304688 11.664062 15.335938 11.789062 15.367188 11.914062 C 16.304688 15.347656 18.316406 17.398438 20.757812 17.398438 C 20.953125 17.398438 21.148438 17.382812 21.347656 17.355469 L 23.355469 24.738281 L 20.464844 25.503906 C 20.171875 25.578125 20 25.878906 20.078125 26.171875 C 20.140625 26.414062 20.363281 26.578125 20.605469 26.578125 C 20.652344 26.578125 20.699219 26.570312 20.746094 26.558594 L 24.171875 25.65625 L 27.59375 24.753906 C 27.882812 24.675781 28.058594 24.378906 27.980469 24.085938 Z M 15.921875 7.910156 L 22.300781 6.230469 C 22.933594 7.324219 23.4375 8.515625 23.757812 9.699219 C 23.851562 10.042969 23.925781 10.378906 23.984375 10.703125 C 23.652344 10.667969 23.3125 10.664062 22.96875 10.679688 C 22.910156 10.277344 22.824219 9.859375 22.75 9.535156 C 22.683594 9.242188 22.390625 9.058594 22.09375 9.125 C 21.800781 9.191406 21.617188 9.484375 21.683594 9.777344 C 21.765625 10.144531 21.832031 10.480469 21.875 10.769531 C 21.628906 10.796875 21.378906 10.828125 21.125 10.859375 C 19.707031 11.042969 18.105469 11.246094 16.25 10.914062 C 16.042969 9.941406 15.929688 8.921875 15.921875 7.910156 Z M 20.757812 16.304688 C 18.941406 16.304688 17.390625 14.730469 16.554688 12.070312 C 17.164062 12.152344 17.746094 12.1875 18.296875 12.1875 C 19.375 12.1875 20.355469 12.0625 21.261719 11.945312 C 22.335938 11.808594 23.28125 11.6875 24.121094 11.820312 C 24.183594 12.960938 23.996094 13.9375 23.550781 14.703125 C 23.117188 15.453125 22.445312 15.96875 21.601562 16.191406 C 21.320312 16.265625 21.035156 16.304688 20.757812 16.304688 Z M 20.757812 16.304688 "/>
<path style=" stroke:none;fill-rule:nonzero;fill:rgb(0%,0%,0%);fill-opacity:1;" d="M 14 1.421875 C 13.699219 1.421875 13.453125 1.667969 13.453125 1.96875 L 13.453125 3.394531 C 13.453125 3.695312 13.699219 3.941406 14 3.941406 C 14.300781 3.941406 14.546875 3.695312 14.546875 3.394531 L 14.546875 1.96875 C 14.546875 1.667969 14.300781 1.421875 14 1.421875 Z M 14 1.421875 "/>
<path style=" stroke:none;fill-rule:nonzero;fill:rgb(0%,0%,0%);fill-opacity:1;" d="M 12.230469 4.105469 L 11.503906 2.867188 C 11.351562 2.609375 11.015625 2.519531 10.757812 2.671875 C 10.496094 2.828125 10.410156 3.160156 10.5625 3.421875 L 11.285156 4.65625 C 11.386719 4.832031 11.570312 4.925781 11.757812 4.925781 C 11.851562 4.925781 11.949219 4.902344 12.035156 4.851562 C 12.296875 4.699219 12.382812 4.363281 12.230469 4.105469 Z M 12.230469 4.105469 "/>
<path style=" stroke:none;fill-rule:nonzero;fill:rgb(0%,0%,0%);fill-opacity:1;" d="M 17.242188 2.671875 C 16.984375 2.519531 16.648438 2.609375 16.496094 2.867188 L 15.769531 4.105469 C 15.617188 4.363281 15.703125 4.699219 15.964844 4.851562 C 16.050781 4.902344 16.148438 4.925781 16.242188 4.925781 C 16.429688 4.925781 16.613281 4.832031 16.714844 4.65625 L 17.4375 3.421875 C 17.589844 3.160156 17.503906 2.828125 17.242188 2.671875 Z M 17.242188 2.671875 "/>
<path style=" stroke:none;fill-rule:nonzero;fill:rgb(0%,0%,0%);fill-opacity:1;" d="M 22.34375 8.023438 C 22.34375 8.023438 22.34375 8.023438 22.34375 8.019531 C 22.253906 7.734375 21.949219 7.574219 21.664062 7.660156 C 21.371094 7.746094 21.210938 8.054688 21.296875 8.34375 C 21.296875 8.34375 21.300781 8.351562 21.300781 8.355469 C 21.375 8.585938 21.589844 8.734375 21.820312 8.734375 C 21.875 8.734375 21.929688 8.726562 21.984375 8.710938 C 22.273438 8.621094 22.433594 8.3125 22.34375 8.023438 Z M 22.34375 8.023438 "/>
<path style=" stroke:none;fill-rule:nonzero;fill:rgb(0%,0%,0%);fill-opacity:1;" d="M 6.5625 8.96875 C 6.5625 9.269531 6.316406 9.515625 6.015625 9.515625 C 5.714844 9.515625 5.46875 9.269531 5.46875 8.96875 C 5.46875 8.667969 5.714844 8.421875 6.015625 8.421875 C 6.316406 8.421875 6.5625 8.667969 6.5625 8.96875 Z M 6.5625 8.96875 "/>
</g>
</svg>
