<?xml version="1.0" encoding="UTF-8"?>
<svg xmlns="http://www.w3.org/2000/svg" xmlns:xlink="http://www.w3.org/1999/xlink" width="28pt" height="28pt" viewBox="0 0 28 28" version="1.1">
<g id="surface1">
<path style=" stroke:none;fill-rule:nonzero;fill:rgb(0%,0%,0%);fill-opacity:1;" d="M 8.386719 8.773438 C 8.050781 7.515625 7.15625 6.535156 5.933594 6.089844 C 4.652344 5.621094 3.207031 5.820312 2.066406 6.617188 C 1.921875 6.71875 1.847656 6.890625 1.871094 7.066406 C 1.898438 7.242188 2.015625 7.386719 2.183594 7.441406 L 7.785156 9.335938 C 7.832031 9.351562 7.882812 9.363281 7.933594 9.363281 C 8.050781 9.363281 8.164062 9.316406 8.253906 9.234375 C 8.378906 9.117188 8.429688 8.941406 8.386719 8.773438 Z M 3.550781 6.917969 C 4.222656 6.710938 4.949219 6.722656 5.613281 6.964844 C 6.226562 7.191406 6.734375 7.589844 7.078125 8.113281 Z M 3.550781 6.917969 "/>
<path style=" stroke:none;fill-rule:nonzero;fill:rgb(0%,0%,0%);fill-opacity:1;" d="M 8.175781 8.496094 C 7.050781 7.8125 5.570312 7.824219 4.316406 8.53125 C 3.09375 9.21875 2.332031 10.421875 2.332031 11.667969 C 2.332031 11.832031 2.417969 11.984375 2.5625 12.066406 C 2.636719 12.113281 2.71875 12.132812 2.800781 12.132812 C 2.875 12.132812 2.953125 12.113281 3.023438 12.078125 L 8.15625 9.304688 C 8.300781 9.226562 8.394531 9.074219 8.398438 8.90625 C 8.402344 8.738281 8.320312 8.582031 8.175781 8.496094 Z M 3.445312 10.789062 C 3.683594 10.210938 4.152344 9.695312 4.773438 9.34375 C 5.277344 9.0625 5.8125 8.917969 6.328125 8.917969 C 6.496094 8.917969 6.660156 8.933594 6.824219 8.964844 Z M 3.445312 10.789062 "/>
<path style=" stroke:none;fill-rule:nonzero;fill:rgb(0%,0%,0%);fill-opacity:1;" d="M 8.121094 9.320312 L 7.746094 8.46875 C 6.347656 9.078125 5.464844 9.960938 5.113281 11.085938 C 4.554688 12.898438 5.625 14.640625 5.671875 14.714844 C 5.757812 14.851562 5.90625 14.933594 6.066406 14.933594 C 6.085938 14.933594 6.101562 14.933594 6.121094 14.929688 C 6.300781 14.90625 6.453125 14.785156 6.507812 14.613281 L 8.015625 10.058594 L 7.238281 9.800781 C 7.496094 9.625 7.789062 9.464844 8.121094 9.320312 Z M 6.019531 13.128906 C 5.882812 12.617188 5.8125 11.980469 6.007812 11.355469 C 6.179688 10.804688 6.539062 10.320312 7.082031 9.914062 Z M 6.019531 13.128906 "/>
<path style=" stroke:none;fill-rule:nonzero;fill:rgb(0%,0%,0%);fill-opacity:1;" d="M 10.625 2.964844 C 10.511719 2.832031 10.335938 2.773438 10.164062 2.8125 C 10.089844 2.828125 8.273438 3.25 7.425781 4.867188 C 6.828125 6 6.863281 7.40625 7.527344 9.042969 C 7.601562 9.21875 7.769531 9.332031 7.960938 9.332031 C 8.148438 9.332031 8.320312 9.21875 8.394531 9.042969 L 10.699219 3.445312 C 10.765625 3.285156 10.734375 3.097656 10.625 2.964844 Z M 8.023438 7.488281 C 7.855469 6.644531 7.929688 5.914062 8.246094 5.308594 C 8.535156 4.753906 8.992188 4.375 9.40625 4.128906 Z M 8.023438 7.488281 "/>
<path style=" stroke:none;fill-rule:nonzero;fill:rgb(0%,0%,0%);fill-opacity:1;" d="M 13.289062 6.125 C 12.085938 5.46875 10.683594 5.414062 9.53125 5.980469 C 8.441406 6.515625 7.699219 7.539062 7.5 8.792969 C 7.472656 8.964844 7.542969 9.132812 7.679688 9.238281 C 7.761719 9.300781 7.859375 9.332031 7.960938 9.332031 C 8.027344 9.332031 8.09375 9.320312 8.15625 9.292969 L 13.261719 6.957031 C 13.421875 6.886719 13.527344 6.726562 13.535156 6.550781 C 13.539062 6.375 13.445312 6.207031 13.289062 6.125 Z M 8.726562 8.003906 C 8.992188 7.488281 9.40625 7.078125 9.941406 6.816406 C 10.339844 6.621094 10.78125 6.523438 11.234375 6.523438 C 11.433594 6.523438 11.636719 6.542969 11.839844 6.582031 Z M 8.726562 8.003906 "/>
<path style=" stroke:none;fill-rule:nonzero;fill:rgb(0%,0%,0%);fill-opacity:1;" d="M 13.984375 10.617188 C 13.667969 9.371094 12.796875 8.398438 11.59375 7.953125 C 10.308594 7.476562 8.851562 7.675781 7.695312 8.484375 L 8.230469 9.25 C 9.136719 8.613281 10.273438 8.457031 11.269531 8.828125 C 11.878906 9.050781 12.375 9.457031 12.710938 9.984375 L 9.242188 8.886719 L 8.960938 9.777344 L 13.394531 11.179688 C 13.4375 11.191406 13.484375 11.199219 13.535156 11.199219 C 13.652344 11.199219 13.765625 11.15625 13.855469 11.074219 C 13.976562 10.957031 14.027344 10.78125 13.984375 10.617188 Z M 13.984375 10.617188 "/>
<path style=" stroke:none;fill-rule:nonzero;fill:rgb(0%,0%,0%);fill-opacity:1;" d="M 7.855469 9.074219 L 7.078125 9.59375 C 7.105469 9.632812 9.78125 13.75 9.335938 20.035156 L 10.265625 20.101562 C 10.738281 13.484375 7.972656 9.25 7.855469 9.074219 Z M 7.855469 9.074219 "/>
<path style=" stroke:none;fill-rule:nonzero;fill:rgb(0%,0%,0%);fill-opacity:1;" d="M 9.238281 8.585938 L 8.492188 9.148438 C 8.519531 9.183594 11.199219 12.832031 11.199219 19.601562 L 12.132812 19.601562 C 12.132812 12.527344 9.359375 8.746094 9.238281 8.585938 Z M 9.238281 8.585938 "/>
<path style=" stroke:none;fill-rule:nonzero;fill:rgb(0%,0%,0%);fill-opacity:1;" d="M 23.09375 2.859375 C 22.664062 2.621094 22.203125 2.464844 21.71875 2.394531 C 19.488281 2.054688 17.410156 3.597656 17.074219 5.824219 C 17.050781 5.996094 17.121094 6.167969 17.261719 6.269531 C 17.34375 6.332031 17.441406 6.359375 17.539062 6.359375 C 17.609375 6.359375 17.679688 6.34375 17.742188 6.3125 L 23.074219 3.6875 C 23.230469 3.609375 23.328125 3.453125 23.332031 3.277344 C 23.335938 3.105469 23.246094 2.941406 23.09375 2.859375 Z M 18.3125 4.992188 C 18.84375 3.957031 19.921875 3.28125 21.113281 3.28125 C 21.265625 3.28125 21.421875 3.292969 21.582031 3.316406 C 21.613281 3.320312 21.648438 3.324219 21.679688 3.332031 Z M 18.3125 4.992188 "/>
<path style=" stroke:none;fill-rule:nonzero;fill:rgb(0%,0%,0%);fill-opacity:1;" d="M 23.328125 7.878906 C 23.179688 6.632812 22.332031 5.578125 21.0625 5.058594 C 19.75 4.519531 18.289062 4.699219 17.246094 5.527344 C 17.117188 5.632812 17.050781 5.800781 17.078125 5.964844 C 17.101562 6.132812 17.214844 6.269531 17.371094 6.328125 L 22.699219 8.371094 C 22.753906 8.390625 22.8125 8.398438 22.867188 8.398438 C 22.96875 8.398438 23.070312 8.367188 23.152344 8.300781 C 23.28125 8.199219 23.347656 8.039062 23.328125 7.878906 Z M 18.648438 5.820312 C 19.292969 5.613281 20.023438 5.640625 20.707031 5.921875 C 21.351562 6.183594 21.847656 6.621094 22.136719 7.15625 Z M 18.648438 5.820312 "/>
<path style=" stroke:none;fill-rule:nonzero;fill:rgb(0%,0%,0%);fill-opacity:1;" d="M 20.589844 7.726562 C 20.105469 6.652344 19.125 5.886719 17.671875 5.449219 L 17.402344 6.339844 C 18.582031 6.695312 19.367188 7.289062 19.734375 8.105469 C 20.019531 8.734375 20.019531 9.410156 19.933594 9.949219 L 18.324219 6.898438 L 17.496094 7.335938 L 19.652344 11.417969 C 19.734375 11.570312 19.894531 11.667969 20.066406 11.667969 C 20.070312 11.667969 20.074219 11.667969 20.078125 11.667969 C 20.257812 11.660156 20.417969 11.554688 20.492188 11.394531 C 20.527344 11.316406 21.367188 9.457031 20.589844 7.726562 Z M 20.589844 7.726562 "/>
<path style=" stroke:none;fill-rule:nonzero;fill:rgb(0%,0%,0%);fill-opacity:1;" d="M 17.535156 1.824219 C 16.492188 0.265625 14.605469 0.0117188 14.523438 0.00390625 C 14.347656 -0.0195312 14.179688 0.0585938 14.078125 0.207031 C 13.980469 0.351562 13.972656 0.539062 14.058594 0.695312 L 17.074219 6.101562 C 17.15625 6.25 17.3125 6.34375 17.480469 6.34375 C 17.5 6.34375 17.519531 6.339844 17.539062 6.339844 C 17.726562 6.316406 17.882812 6.179688 17.933594 5.996094 C 18.390625 4.304688 18.257812 2.902344 17.535156 1.824219 Z M 17.253906 4.507812 L 15.441406 1.253906 C 15.894531 1.46875 16.402344 1.808594 16.765625 2.351562 C 17.152344 2.929688 17.3125 3.652344 17.253906 4.507812 Z M 17.253906 4.507812 "/>
<path style=" stroke:none;fill-rule:nonzero;fill:rgb(0%,0%,0%);fill-opacity:1;" d="M 17.929688 5.746094 C 17.578125 4.527344 16.71875 3.59375 15.570312 3.195312 C 14.363281 2.773438 12.976562 2.996094 11.863281 3.789062 C 11.71875 3.890625 11.644531 4.066406 11.671875 4.238281 C 11.699219 4.414062 11.824219 4.558594 11.992188 4.613281 L 17.339844 6.320312 C 17.386719 6.335938 17.433594 6.34375 17.480469 6.34375 C 17.601562 6.34375 17.71875 6.296875 17.808594 6.210938 C 17.929688 6.089844 17.976562 5.910156 17.929688 5.746094 Z M 13.351562 4.066406 C 13.984375 3.863281 14.644531 3.859375 15.261719 4.074219 C 15.824219 4.273438 16.285156 4.628906 16.617188 5.109375 Z M 13.351562 4.066406 "/>
<path style=" stroke:none;fill-rule:nonzero;fill:rgb(0%,0%,0%);fill-opacity:1;" d="M 14.546875 6.167969 C 15.351562 5.753906 16.339844 5.796875 17.261719 6.289062 L 17.699219 5.464844 C 16.507812 4.828125 15.199219 4.78125 14.121094 5.335938 C 13.035156 5.894531 12.3125 6.988281 12.136719 8.339844 C 12.117188 8.503906 12.183594 8.667969 12.316406 8.769531 C 12.398438 8.832031 12.5 8.867188 12.601562 8.867188 C 12.660156 8.867188 12.71875 8.855469 12.777344 8.832031 L 16.773438 7.199219 L 16.417969 6.335938 L 13.277344 7.621094 C 13.53125 6.972656 13.972656 6.464844 14.546875 6.167969 Z M 14.546875 6.167969 "/>
<path style=" stroke:none;fill-rule:nonzero;fill:rgb(0%,0%,0%);fill-opacity:1;" d="M 18.742188 6.578125 L 17.890625 6.199219 C 16.273438 9.816406 15.574219 13.816406 15.867188 17.769531 L 16.796875 17.699219 C 16.515625 13.902344 17.1875 10.054688 18.742188 6.578125 Z M 18.742188 6.578125 "/>
<path style=" stroke:none;fill-rule:nonzero;fill:rgb(0%,0%,0%);fill-opacity:1;" d="M 17.472656 5.875 L 16.648438 5.4375 C 14.628906 9.222656 13.714844 13.484375 14 17.765625 L 14.933594 17.703125 C 14.65625 13.597656 15.535156 9.507812 17.472656 5.875 Z M 17.472656 5.875 "/>
<path style=" stroke:none;fill-rule:nonzero;fill:rgb(0%,0%,0%);fill-opacity:1;" d="M 0 21.464844 L 28 21.464844 L 28 22.398438 L 0 22.398438 Z M 0 21.464844 "/>
<path style=" stroke:none;fill-rule:nonzero;fill:rgb(0%,0%,0%);fill-opacity:1;" d="M 10.265625 23.332031 L 23.332031 23.332031 L 23.332031 24.265625 L 10.265625 24.265625 Z M 10.265625 23.332031 "/>
<path style=" stroke:none;fill-rule:nonzero;fill:rgb(0%,0%,0%);fill-opacity:1;" d="M 4.199219 23.332031 L 9.332031 23.332031 L 9.332031 24.265625 L 4.199219 24.265625 Z M 4.199219 23.332031 "/>
<path style=" stroke:none;fill-rule:nonzero;fill:rgb(0%,0%,0%);fill-opacity:1;" d="M 15.398438 19.132812 L 16.332031 19.132812 L 16.332031 20.066406 L 15.398438 20.066406 Z M 15.398438 19.132812 "/>
<path style=" stroke:none;fill-rule:nonzero;fill:rgb(0%,0%,0%);fill-opacity:1;" d="M 17.734375 19.601562 L 18.667969 19.601562 L 18.667969 20.535156 L 17.734375 20.535156 Z M 17.734375 19.601562 "/>
<path style=" stroke:none;fill-rule:nonzero;fill:rgb(0%,0%,0%);fill-opacity:1;" d="M 13.066406 19.601562 L 14 19.601562 L 14 20.535156 L 13.066406 20.535156 Z M 13.066406 19.601562 "/>
<path style=" stroke:none;fill-rule:nonzero;fill:rgb(0%,0%,0%);fill-opacity:1;" d="M 13.535156 25.199219 L 21 25.199219 L 21 26.132812 L 13.535156 26.132812 Z M 13.535156 25.199219 "/>
<path style=" stroke:none;fill-rule:nonzero;fill:rgb(0%,0%,0%);fill-opacity:1;" d="M 6.535156 25.199219 L 12.601562 25.199219 L 12.601562 26.132812 L 6.535156 26.132812 Z M 6.535156 25.199219 "/>
<path style=" stroke:none;fill-rule:nonzero;fill:rgb(0%,0%,0%);fill-opacity:1;" d="M 11.199219 27.066406 L 16.332031 27.066406 L 16.332031 28 L 11.199219 28 Z M 11.199219 27.066406 "/>
<path style=" stroke:none;fill-rule:nonzero;fill:rgb(0%,0%,0%);fill-opacity:1;" d="M 14 17.265625 C 13.199219 17.269531 12.390625 17.328125 11.601562 17.441406 L 11.734375 18.363281 C 12.480469 18.257812 13.242188 18.199219 14 18.199219 C 18.066406 18.199219 21.761719 19.796875 23.195312 22.175781 L 23.996094 21.691406 C 22.375 19.003906 18.453125 17.265625 14 17.265625 Z M 14 17.265625 "/>
<path style=" stroke:none;fill-rule:nonzero;fill:rgb(0%,0%,0%);fill-opacity:1;" d="M 9.671875 17.855469 C 7.101562 18.589844 5.035156 19.988281 4.003906 21.691406 L 4.804688 22.175781 C 5.714844 20.667969 7.582031 19.421875 9.929688 18.75 Z M 9.671875 17.855469 "/>
</g>
</svg>
