<?xml version="1.0" encoding="UTF-8"?>
<svg xmlns="http://www.w3.org/2000/svg" xmlns:xlink="http://www.w3.org/1999/xlink" width="28pt" height="28pt" viewBox="0 0 28 28" version="1.1">
<g id="surface1">
<path style=" stroke:none;fill-rule:nonzero;fill:rgb(0%,0%,0%);fill-opacity:1;" d="M 27.953125 8.746094 C 27.546875 4.246094 24.359375 0.984375 20.375 0.984375 C 17.722656 0.984375 15.289062 2.414062 13.921875 4.703125 C 12.566406 2.382812 10.234375 0.984375 7.625 0.984375 C 3.640625 0.984375 0.453125 4.246094 0.046875 8.746094 C 0.015625 8.945312 -0.117188 9.988281 0.285156 11.695312 C 0.867188 14.15625 2.207031 16.394531 4.160156 18.164062 L 13.917969 27.015625 L 23.839844 18.164062 C 25.792969 16.394531 27.132812 14.15625 27.714844 11.695312 C 28.117188 9.992188 27.984375 8.945312 27.953125 8.746094 Z M 26.667969 11.449219 C 26.136719 13.695312 24.910156 15.742188 23.117188 17.363281 L 13.921875 25.566406 L 4.886719 17.367188 C 3.089844 15.742188 1.863281 13.695312 1.332031 11.449219 C 0.953125 9.835938 1.109375 8.921875 1.109375 8.917969 L 1.117188 8.863281 C 1.46875 4.921875 4.203125 2.058594 7.625 2.058594 C 10.148438 2.058594 12.371094 3.609375 13.425781 6.105469 L 13.921875 7.28125 L 14.414062 6.105469 C 15.453125 3.648438 17.792969 2.0625 20.375 2.0625 C 23.796875 2.0625 26.53125 4.921875 26.890625 8.914062 C 26.890625 8.921875 27.046875 9.835938 26.667969 11.449219 Z M 26.667969 11.449219 "/>
<path style=" stroke:none;fill-rule:nonzero;fill:rgb(0%,0%,0%);fill-opacity:1;" d="M 8.617188 4.257812 C 5.644531 4.257812 3.230469 6.671875 3.230469 9.640625 C 3.230469 9.9375 3.472656 10.179688 3.769531 10.179688 C 4.066406 10.179688 4.308594 9.9375 4.308594 9.640625 C 4.308594 7.265625 6.238281 5.332031 8.617188 5.332031 C 8.914062 5.332031 9.152344 5.09375 9.152344 4.792969 C 9.152344 4.496094 8.914062 4.257812 8.617188 4.257812 Z M 8.617188 4.257812 "/>
</g>
</svg>
