<?xml version="1.0" encoding="UTF-8"?>
<svg xmlns="http://www.w3.org/2000/svg" xmlns:xlink="http://www.w3.org/1999/xlink" width="28pt" height="28pt" viewBox="0 0 28 28" version="1.1">
<g id="surface1">
<path style=" stroke:none;fill-rule:nonzero;fill:rgb(0%,0%,0%);fill-opacity:1;" d="M 11.402344 9.933594 C 11.289062 9.828125 11.125 9.800781 10.988281 9.863281 C 8.050781 11.136719 6.152344 14.035156 6.152344 17.238281 C 6.152344 21.667969 9.757812 25.277344 14.191406 25.277344 C 17.574219 25.269531 20.59375 23.152344 21.75 19.972656 C 21.804688 19.828125 21.765625 19.667969 21.652344 19.5625 C 21.542969 19.460938 21.378906 19.429688 21.238281 19.492188 C 20.324219 19.890625 19.335938 20.09375 18.339844 20.09375 C 14.328125 20.09375 11.066406 16.832031 11.066406 12.820312 C 11.066406 11.976562 11.210938 11.136719 11.5 10.34375 C 11.550781 10.199219 11.511719 10.039062 11.402344 9.933594 Z M 18.339844 20.859375 C 19.136719 20.859375 19.925781 20.742188 20.6875 20.511719 C 19.445312 22.960938 16.933594 24.503906 14.191406 24.511719 C 10.179688 24.511719 6.917969 21.246094 6.917969 17.238281 C 6.917969 14.652344 8.289062 12.261719 10.519531 10.957031 C 10.375 11.566406 10.300781 12.191406 10.300781 12.820312 C 10.300781 17.253906 13.90625 20.859375 18.339844 20.859375 Z M 18.339844 20.859375 "/>
<path style=" stroke:none;fill-rule:nonzero;fill:rgb(0%,0%,0%);fill-opacity:1;" d="M 18.390625 4.914062 L 16.5625 4.621094 L 15.71875 2.933594 C 15.652344 2.804688 15.519531 2.722656 15.375 2.722656 C 15.230469 2.722656 15.097656 2.804688 15.035156 2.933594 L 14.191406 4.621094 L 12.363281 4.914062 C 12.21875 4.933594 12.101562 5.035156 12.054688 5.175781 C 12.011719 5.3125 12.050781 5.464844 12.152344 5.5625 L 13.488281 6.867188 L 13.167969 8.695312 C 13.144531 8.835938 13.203125 8.984375 13.320312 9.070312 C 13.4375 9.15625 13.59375 9.167969 13.722656 9.097656 L 15.375 8.230469 L 17.027344 9.097656 C 17.15625 9.167969 17.3125 9.15625 17.433594 9.070312 C 17.550781 8.984375 17.609375 8.835938 17.582031 8.695312 L 17.265625 6.867188 L 18.597656 5.5625 C 18.703125 5.464844 18.738281 5.3125 18.695312 5.175781 C 18.652344 5.035156 18.535156 4.933594 18.390625 4.914062 Z M 16.585938 6.460938 C 16.496094 6.550781 16.453125 6.675781 16.476562 6.800781 L 16.695312 8.058594 L 15.554688 7.457031 C 15.441406 7.398438 15.308594 7.398438 15.199219 7.457031 L 14.054688 8.058594 L 14.277344 6.800781 C 14.296875 6.675781 14.257812 6.550781 14.167969 6.460938 L 13.234375 5.550781 L 14.503906 5.347656 C 14.625 5.328125 14.730469 5.25 14.789062 5.140625 L 15.375 3.960938 L 15.964844 5.140625 C 16.019531 5.25 16.125 5.328125 16.246094 5.347656 L 17.519531 5.550781 Z M 16.585938 6.460938 "/>
<path style=" stroke:none;fill-rule:nonzero;fill:rgb(0%,0%,0%);fill-opacity:1;" d="M 26.226562 9.101562 L 25.074219 8.917969 L 24.542969 7.855469 C 24.476562 7.722656 24.34375 7.644531 24.199219 7.644531 C 24.054688 7.644531 23.921875 7.722656 23.859375 7.855469 L 23.324219 8.917969 L 22.171875 9.101562 C 22.03125 9.125 21.914062 9.226562 21.867188 9.363281 C 21.824219 9.5 21.863281 9.652344 21.964844 9.753906 L 22.804688 10.574219 L 22.605469 11.722656 C 22.578125 11.867188 22.636719 12.011719 22.753906 12.097656 C 22.875 12.183594 23.03125 12.195312 23.160156 12.128906 L 24.199219 11.578125 L 25.242188 12.128906 C 25.371094 12.195312 25.527344 12.183594 25.644531 12.097656 C 25.761719 12.011719 25.820312 11.867188 25.796875 11.722656 L 25.59375 10.574219 L 26.433594 9.753906 C 26.539062 9.652344 26.574219 9.5 26.53125 9.363281 C 26.488281 9.226562 26.371094 9.125 26.226562 9.101562 Z M 24.917969 10.167969 C 24.824219 10.257812 24.785156 10.382812 24.808594 10.507812 L 24.90625 11.085938 L 24.378906 10.808594 C 24.265625 10.75 24.132812 10.75 24.023438 10.808594 L 23.492188 11.085938 L 23.59375 10.507812 C 23.617188 10.382812 23.574219 10.257812 23.484375 10.167969 L 23.046875 9.738281 L 23.640625 9.644531 C 23.761719 9.625 23.867188 9.546875 23.921875 9.4375 L 24.199219 8.882812 L 24.476562 9.4375 C 24.535156 9.546875 24.636719 9.625 24.761719 9.644531 L 25.355469 9.738281 Z M 24.917969 10.167969 "/>
<path style=" stroke:none;fill-rule:nonzero;fill:rgb(0%,0%,0%);fill-opacity:1;" d="M 19.464844 13.542969 C 19.417969 13.40625 19.300781 13.304688 19.160156 13.28125 L 18.230469 13.132812 L 17.800781 12.273438 C 17.734375 12.144531 17.601562 12.0625 17.457031 12.0625 C 17.3125 12.0625 17.179688 12.144531 17.113281 12.273438 L 16.6875 13.132812 L 15.757812 13.28125 C 15.613281 13.304688 15.496094 13.40625 15.453125 13.542969 C 15.40625 13.679688 15.445312 13.832031 15.550781 13.933594 L 16.226562 14.59375 L 16.0625 15.519531 C 16.039062 15.664062 16.097656 15.808594 16.214844 15.894531 C 16.332031 15.980469 16.488281 15.992188 16.621094 15.925781 L 17.457031 15.484375 L 18.296875 15.925781 C 18.425781 15.992188 18.582031 15.980469 18.699219 15.894531 C 18.816406 15.808594 18.875 15.664062 18.851562 15.519531 L 18.691406 14.59375 L 19.367188 13.933594 C 19.46875 13.832031 19.507812 13.679688 19.464844 13.542969 Z M 18.011719 14.1875 C 17.921875 14.277344 17.878906 14.402344 17.902344 14.527344 L 17.964844 14.882812 L 17.636719 14.710938 C 17.523438 14.652344 17.390625 14.652344 17.277344 14.710938 L 16.953125 14.882812 L 17.015625 14.527344 C 17.035156 14.402344 16.996094 14.277344 16.90625 14.1875 L 16.628906 13.917969 L 17 13.859375 C 17.121094 13.839844 17.226562 13.761719 17.28125 13.652344 L 17.457031 13.300781 L 17.632812 13.652344 C 17.6875 13.761719 17.792969 13.839844 17.914062 13.859375 L 18.285156 13.917969 Z M 18.011719 14.1875 "/>
<path style=" stroke:none;fill-rule:nonzero;fill:rgb(0%,0%,0%);fill-opacity:1;" d="M 4.019531 9.835938 L 5.195312 10.457031 C 5.328125 10.523438 5.484375 10.511719 5.601562 10.425781 C 5.71875 10.339844 5.777344 10.195312 5.753906 10.050781 L 5.527344 8.753906 L 6.476562 7.824219 C 6.578125 7.722656 6.617188 7.570312 6.574219 7.433594 C 6.527344 7.296875 6.410156 7.195312 6.265625 7.171875 L 4.964844 6.964844 L 4.363281 5.761719 C 4.296875 5.632812 4.164062 5.550781 4.019531 5.550781 C 3.875 5.550781 3.742188 5.632812 3.675781 5.761719 L 3.074219 6.964844 L 1.773438 7.171875 C 1.628906 7.195312 1.511719 7.296875 1.46875 7.433594 C 1.421875 7.570312 1.460938 7.722656 1.566406 7.824219 L 2.515625 8.753906 L 2.289062 10.050781 C 2.261719 10.195312 2.320312 10.339844 2.4375 10.425781 C 2.558594 10.511719 2.714844 10.523438 2.84375 10.457031 Z M 2.644531 7.808594 L 3.390625 7.691406 C 3.511719 7.671875 3.617188 7.59375 3.671875 7.484375 L 4.019531 6.789062 L 4.367188 7.484375 C 4.421875 7.59375 4.527344 7.671875 4.648438 7.691406 L 5.394531 7.808594 L 4.847656 8.347656 C 4.757812 8.433594 4.714844 8.5625 4.738281 8.6875 L 4.863281 9.417969 L 4.199219 9.066406 C 4.085938 9.007812 3.953125 9.007812 3.84375 9.066406 L 3.175781 9.417969 L 3.304688 8.6875 C 3.324219 8.5625 3.285156 8.433594 3.195312 8.347656 Z M 2.644531 7.808594 "/>
</g>
</svg>
