<?xml version="1.0" encoding="UTF-8"?>
<svg xmlns="http://www.w3.org/2000/svg" xmlns:xlink="http://www.w3.org/1999/xlink" width="28pt" height="28pt" viewBox="0 0 28 28" version="1.1">
<g id="surface1">
<path style=" stroke:none;fill-rule:nonzero;fill:rgb(0%,0%,0%);fill-opacity:1;" d="M 14.410156 6.015625 C 14.308594 5.785156 14.035156 5.679688 13.804688 5.785156 C 13.800781 5.785156 13.796875 5.789062 13.796875 5.789062 C 9.613281 7.722656 5.066406 8.726562 0.460938 8.734375 C 0.207031 8.734375 0 8.9375 0 9.191406 C 0 9.445312 0.207031 9.652344 0.460938 9.652344 C 0.890625 9.652344 1.324219 9.632812 1.753906 9.617188 L 4.222656 12.90625 C 4.308594 13.023438 4.445312 13.089844 4.589844 13.089844 C 4.609375 13.089844 4.625 13.089844 4.640625 13.089844 C 4.804688 13.070312 4.941406 12.96875 5.007812 12.816406 L 6.691406 9.03125 C 7.242188 8.925781 7.789062 8.804688 8.332031 8.667969 L 11.660156 11.164062 C 11.863281 11.316406 12.148438 11.273438 12.300781 11.070312 C 12.347656 11.007812 12.378906 10.933594 12.390625 10.851562 L 12.847656 7.195312 C 13.296875 7.011719 13.742188 6.824219 14.183594 6.621094 C 14.414062 6.519531 14.515625 6.246094 14.410156 6.015625 Z M 4.488281 11.730469 L 2.851562 9.550781 C 3.769531 9.480469 4.6875 9.382812 5.597656 9.234375 Z M 11.578125 9.953125 L 9.464844 8.371094 C 10.28125 8.136719 11.082031 7.867188 11.875 7.570312 Z M 11.578125 9.953125 "/>
<path style=" stroke:none;fill-rule:nonzero;fill:rgb(0%,0%,0%);fill-opacity:1;" d="M 13.175781 17.355469 L 10.421875 14.601562 C 10.242188 14.421875 9.953125 14.421875 9.773438 14.601562 L 5.753906 18.621094 C 4.9375 19.4375 4.816406 20.714844 5.460938 21.667969 L 3.023438 24.105469 L 0.460938 24.105469 C 0.207031 24.109375 0 24.3125 0 24.566406 C 0 24.6875 0.046875 24.804688 0.132812 24.890625 L 2.886719 27.644531 C 3.066406 27.824219 3.359375 27.824219 3.539062 27.644531 C 3.625 27.558594 3.671875 27.441406 3.671875 27.320312 L 3.671875 24.757812 L 6.109375 22.316406 C 7.066406 22.960938 8.34375 22.839844 9.15625 22.023438 L 10.882812 20.300781 L 13.175781 18.003906 C 13.355469 17.824219 13.355469 17.535156 13.175781 17.355469 Z M 2.753906 26.210938 L 1.566406 25.027344 L 2.753906 25.027344 Z M 8.507812 21.375 C 7.929688 21.957031 6.992188 21.957031 6.410156 21.378906 C 6.15625 21.128906 6.003906 20.792969 5.980469 20.433594 L 9.449219 20.433594 Z M 10.367188 19.515625 L 6.207031 19.515625 C 6.261719 19.429688 6.328125 19.347656 6.402344 19.269531 L 10.097656 15.574219 L 12.203125 17.679688 Z M 10.367188 19.515625 "/>
<path style=" stroke:none;fill-rule:nonzero;fill:rgb(0%,0%,0%);fill-opacity:1;" d="M 27.964844 24.390625 C 27.894531 24.21875 27.726562 24.105469 27.539062 24.105469 L 24.976562 24.105469 L 22.539062 21.667969 C 23.183594 20.714844 23.058594 19.4375 22.246094 18.621094 L 18.226562 14.601562 C 18.046875 14.421875 17.753906 14.421875 17.574219 14.601562 L 14.820312 17.355469 C 14.644531 17.535156 14.644531 17.828125 14.820312 18.003906 L 18.839844 22.023438 C 19.65625 22.839844 20.933594 22.960938 21.886719 22.316406 L 24.328125 24.757812 L 24.328125 27.320312 C 24.328125 27.574219 24.535156 27.78125 24.785156 27.78125 C 24.910156 27.78125 25.023438 27.730469 25.113281 27.644531 L 27.867188 24.890625 C 27.996094 24.757812 28.035156 24.5625 27.964844 24.390625 Z M 15.796875 17.679688 L 17.902344 15.574219 L 21.382812 19.058594 L 17.171875 19.058594 Z M 20.894531 21.769531 C 20.390625 21.894531 19.859375 21.742188 19.492188 21.375 L 18.09375 19.976562 L 21.988281 19.976562 C 22.179688 20.773438 21.691406 21.578125 20.894531 21.769531 Z M 25.246094 26.210938 L 25.246094 25.027344 L 26.433594 25.027344 Z M 25.246094 26.210938 "/>
<path style=" stroke:none;fill-rule:nonzero;fill:rgb(0%,0%,0%);fill-opacity:1;" d="M 27.082031 4.371094 L 21.273438 4.371094 C 16.269531 4.371094 11.363281 2.957031 7.128906 0.289062 C 6.914062 0.15625 6.632812 0.222656 6.496094 0.433594 C 6.363281 0.648438 6.425781 0.933594 6.640625 1.070312 C 7.320312 1.496094 8.015625 1.886719 8.722656 2.25 L 8.722656 6.207031 C 8.722656 6.460938 8.925781 6.664062 9.179688 6.664062 C 9.28125 6.664062 9.375 6.632812 9.457031 6.574219 L 12.910156 3.984375 C 13.664062 4.222656 14.429688 4.433594 15.203125 4.605469 L 16.554688 8.203125 C 16.609375 8.355469 16.742188 8.464844 16.902344 8.492188 C 16.929688 8.5 16.957031 8.5 16.984375 8.5 C 17.117188 8.5 17.246094 8.441406 17.332031 8.339844 L 19.976562 5.253906 C 20.410156 5.273438 20.839844 5.289062 21.273438 5.289062 L 21.320312 5.289062 L 23.480469 8.742188 C 23.613281 8.960938 23.894531 9.027344 24.113281 8.890625 C 24.171875 8.855469 24.222656 8.804688 24.261719 8.742188 L 26.417969 5.289062 L 27.082031 5.289062 C 27.335938 5.289062 27.539062 5.082031 27.539062 4.828125 C 27.539062 4.574219 27.335938 4.371094 27.082031 4.371094 Z M 9.640625 5.289062 L 9.640625 2.699219 C 10.367188 3.039062 11.105469 3.351562 11.855469 3.625 Z M 17.140625 7.152344 L 16.269531 4.828125 C 17.117188 4.984375 17.972656 5.101562 18.835938 5.179688 Z M 23.867188 7.632812 L 22.398438 5.289062 L 25.335938 5.289062 Z M 23.867188 7.632812 "/>
<path style=" stroke:none;fill-rule:nonzero;fill:rgb(0%,0%,0%);fill-opacity:1;" d="M 13.769531 11.804688 C 13.515625 11.804688 13.3125 12.011719 13.3125 12.265625 L 13.3125 13.640625 C 13.3125 13.894531 13.515625 14.101562 13.769531 14.101562 C 14.023438 14.101562 14.230469 13.894531 14.230469 13.640625 L 14.230469 12.265625 C 14.230469 12.011719 14.023438 11.804688 13.769531 11.804688 Z M 13.769531 11.804688 "/>
<path style=" stroke:none;fill-rule:nonzero;fill:rgb(0%,0%,0%);fill-opacity:1;" d="M 12.789062 13.78125 L 12.101562 12.585938 C 11.976562 12.367188 11.695312 12.292969 11.476562 12.417969 C 11.257812 12.546875 11.179688 12.828125 11.308594 13.046875 L 11.996094 14.238281 C 12.125 14.457031 12.40625 14.53125 12.625 14.402344 C 12.839844 14.277344 12.914062 14 12.789062 13.78125 Z M 12.789062 13.78125 "/>
<path style=" stroke:none;fill-rule:nonzero;fill:rgb(0%,0%,0%);fill-opacity:1;" d="M 12.621094 20.039062 C 12.402344 19.910156 12.121094 19.984375 11.996094 20.207031 L 11.308594 21.398438 C 11.179688 21.617188 11.253906 21.898438 11.472656 22.027344 C 11.691406 22.15625 11.972656 22.082031 12.097656 21.863281 C 12.101562 21.863281 12.101562 21.859375 12.101562 21.859375 L 12.789062 20.664062 C 12.917969 20.445312 12.84375 20.164062 12.621094 20.039062 Z M 12.621094 20.039062 "/>
<path style=" stroke:none;fill-rule:nonzero;fill:rgb(0%,0%,0%);fill-opacity:1;" d="M 13.769531 20.34375 C 13.515625 20.34375 13.3125 20.550781 13.3125 20.800781 L 13.3125 22.179688 C 13.3125 22.433594 13.515625 22.636719 13.769531 22.636719 C 14.023438 22.636719 14.230469 22.433594 14.230469 22.179688 L 14.230469 20.800781 C 14.230469 20.550781 14.023438 20.34375 13.769531 20.34375 Z M 13.769531 20.34375 "/>
<path style=" stroke:none;fill-rule:nonzero;fill:rgb(0%,0%,0%);fill-opacity:1;" d="M 16.234375 21.398438 L 15.542969 20.207031 C 15.417969 19.984375 15.140625 19.910156 14.917969 20.035156 C 14.699219 20.160156 14.621094 20.4375 14.746094 20.660156 C 14.746094 20.660156 14.75 20.664062 14.75 20.664062 L 15.4375 21.859375 C 15.519531 22 15.671875 22.085938 15.835938 22.085938 C 16.089844 22.085938 16.292969 21.882812 16.292969 21.628906 C 16.292969 21.546875 16.273438 21.46875 16.234375 21.398438 Z M 16.234375 21.398438 "/>
<path style=" stroke:none;fill-rule:nonzero;fill:rgb(0%,0%,0%);fill-opacity:1;" d="M 16.070312 12.417969 C 15.851562 12.289062 15.570312 12.363281 15.441406 12.582031 C 15.441406 12.582031 15.441406 12.585938 15.4375 12.585938 L 14.75 13.78125 C 14.621094 14 14.695312 14.28125 14.914062 14.40625 C 15.132812 14.535156 15.414062 14.460938 15.542969 14.242188 C 15.542969 14.242188 15.542969 14.242188 15.546875 14.238281 L 16.234375 13.046875 C 16.363281 12.828125 16.289062 12.546875 16.070312 12.417969 Z M 16.070312 12.417969 "/>
<path style=" stroke:none;fill-rule:nonzero;fill:rgb(0%,0%,0%);fill-opacity:1;" d="M 19.738281 24.105469 C 18.976562 24.105469 18.359375 24.722656 18.359375 25.484375 C 18.359375 26.246094 18.976562 26.863281 19.738281 26.863281 C 20.5 26.863281 21.113281 26.246094 21.113281 25.484375 C 21.113281 24.722656 20.5 24.105469 19.738281 24.105469 Z M 19.738281 25.945312 C 19.484375 25.945312 19.277344 25.738281 19.277344 25.484375 C 19.277344 25.230469 19.484375 25.027344 19.738281 25.027344 C 19.992188 25.027344 20.195312 25.230469 20.195312 25.484375 C 20.195312 25.738281 19.992188 25.945312 19.738281 25.945312 Z M 19.738281 25.945312 "/>
<path style=" stroke:none;fill-rule:nonzero;fill:rgb(0%,0%,0%);fill-opacity:1;" d="M 4.589844 14.007812 C 3.828125 14.007812 3.214844 14.625 3.214844 15.386719 C 3.214844 16.148438 3.828125 16.761719 4.589844 16.761719 C 5.351562 16.761719 5.96875 16.148438 5.96875 15.386719 C 5.96875 14.625 5.351562 14.007812 4.589844 14.007812 Z M 4.589844 15.84375 C 4.335938 15.84375 4.132812 15.640625 4.132812 15.386719 C 4.132812 15.132812 4.335938 14.925781 4.589844 14.925781 C 4.84375 14.925781 5.050781 15.132812 5.050781 15.386719 C 5.050781 15.640625 4.84375 15.84375 4.589844 15.84375 Z M 4.589844 15.84375 "/>
<path style=" stroke:none;fill-rule:nonzero;fill:rgb(0%,0%,0%);fill-opacity:1;" d="M 21.105469 10.652344 C 21.066406 10.410156 20.933594 10.195312 20.738281 10.054688 L 20.734375 10.054688 C 20.324219 9.753906 19.75 9.847656 19.453125 10.257812 C 19.15625 10.667969 19.246094 11.242188 19.65625 11.539062 C 19.816406 11.652344 20.003906 11.714844 20.195312 11.714844 C 20.246094 11.714844 20.292969 11.710938 20.34375 11.703125 C 20.84375 11.621094 21.183594 11.152344 21.105469 10.652344 Z M 21.105469 10.652344 "/>
<path style=" stroke:none;fill-rule:nonzero;fill:rgb(0%,0%,0%);fill-opacity:1;" d="M 11.015625 24.566406 C 11.015625 25.074219 10.605469 25.484375 10.097656 25.484375 C 9.589844 25.484375 9.179688 25.074219 9.179688 24.566406 C 9.179688 24.058594 9.589844 23.648438 10.097656 23.648438 C 10.605469 23.648438 11.015625 24.058594 11.015625 24.566406 Z M 11.015625 24.566406 "/>
<path style=" stroke:none;fill-rule:nonzero;fill:rgb(0%,0%,0%);fill-opacity:1;" d="M 24.328125 14.925781 C 24.074219 14.925781 23.867188 15.132812 23.867188 15.386719 L 23.867188 15.84375 C 23.867188 16.097656 24.074219 16.304688 24.328125 16.304688 C 24.582031 16.304688 24.785156 16.097656 24.785156 15.84375 L 24.785156 15.386719 C 24.785156 15.132812 24.582031 14.925781 24.328125 14.925781 Z M 24.328125 14.925781 "/>
<path style=" stroke:none;fill-rule:nonzero;fill:rgb(0%,0%,0%);fill-opacity:1;" d="M 24.328125 12.632812 C 24.074219 12.632812 23.867188 12.835938 23.867188 13.089844 L 23.867188 13.550781 C 23.867188 13.804688 24.074219 14.007812 24.328125 14.007812 C 24.582031 14.007812 24.785156 13.804688 24.785156 13.550781 L 24.785156 13.089844 C 24.785156 12.835938 24.582031 12.632812 24.328125 12.632812 Z M 24.328125 12.632812 "/>
<path style=" stroke:none;fill-rule:nonzero;fill:rgb(0%,0%,0%);fill-opacity:1;" d="M 25.703125 14.007812 L 25.246094 14.007812 C 24.992188 14.007812 24.785156 14.214844 24.785156 14.46875 C 24.785156 14.722656 24.992188 14.925781 25.246094 14.925781 L 25.703125 14.925781 C 25.957031 14.925781 26.164062 14.722656 26.164062 14.46875 C 26.164062 14.214844 25.957031 14.007812 25.703125 14.007812 Z M 25.703125 14.007812 "/>
<path style=" stroke:none;fill-rule:nonzero;fill:rgb(0%,0%,0%);fill-opacity:1;" d="M 23.410156 14.007812 L 22.949219 14.007812 C 22.699219 14.007812 22.492188 14.214844 22.492188 14.46875 C 22.492188 14.722656 22.699219 14.925781 22.949219 14.925781 L 23.410156 14.925781 C 23.664062 14.925781 23.867188 14.722656 23.867188 14.46875 C 23.867188 14.214844 23.664062 14.007812 23.410156 14.007812 Z M 23.410156 14.007812 "/>
<path style=" stroke:none;fill-rule:nonzero;fill:rgb(0%,0%,0%);fill-opacity:1;" d="M 15.148438 26.402344 C 14.894531 26.402344 14.6875 26.609375 14.6875 26.863281 L 14.6875 27.320312 C 14.6875 27.574219 14.894531 27.78125 15.148438 27.78125 C 15.402344 27.78125 15.605469 27.574219 15.605469 27.320312 L 15.605469 26.863281 C 15.605469 26.609375 15.402344 26.402344 15.148438 26.402344 Z M 15.148438 26.402344 "/>
<path style=" stroke:none;fill-rule:nonzero;fill:rgb(0%,0%,0%);fill-opacity:1;" d="M 15.148438 24.105469 C 14.894531 24.105469 14.6875 24.3125 14.6875 24.566406 L 14.6875 25.027344 C 14.6875 25.277344 14.894531 25.484375 15.148438 25.484375 C 15.402344 25.484375 15.605469 25.277344 15.605469 25.027344 L 15.605469 24.566406 C 15.605469 24.3125 15.402344 24.105469 15.148438 24.105469 Z M 15.148438 24.105469 "/>
<path style=" stroke:none;fill-rule:nonzero;fill:rgb(0%,0%,0%);fill-opacity:1;" d="M 16.523438 25.484375 L 16.066406 25.484375 C 15.8125 25.484375 15.605469 25.691406 15.605469 25.945312 C 15.605469 26.195312 15.8125 26.402344 16.066406 26.402344 L 16.523438 26.402344 C 16.777344 26.402344 16.984375 26.195312 16.984375 25.945312 C 16.984375 25.691406 16.777344 25.484375 16.523438 25.484375 Z M 16.523438 25.484375 "/>
<path style=" stroke:none;fill-rule:nonzero;fill:rgb(0%,0%,0%);fill-opacity:1;" d="M 14.230469 25.484375 L 13.769531 25.484375 C 13.515625 25.484375 13.3125 25.691406 13.3125 25.945312 C 13.3125 26.195312 13.515625 26.402344 13.769531 26.402344 L 14.230469 26.402344 C 14.484375 26.402344 14.6875 26.195312 14.6875 25.945312 C 14.6875 25.691406 14.484375 25.484375 14.230469 25.484375 Z M 14.230469 25.484375 "/>
</g>
</svg>
