<?xml version="1.0" encoding="UTF-8"?>
<svg xmlns="http://www.w3.org/2000/svg" xmlns:xlink="http://www.w3.org/1999/xlink" width="28pt" height="28pt" viewBox="0 0 28 28" version="1.1">
<g id="surface1">
<path style=" stroke:none;fill-rule:nonzero;fill:rgb(0%,0%,0%);fill-opacity:1;" d="M 13.371094 13.882812 L 1.558594 13.882812 C 1.097656 13.882812 0.679688 13.605469 0.503906 13.175781 C 0.328125 12.75 0.433594 12.261719 0.757812 11.9375 L 10.589844 2.273438 L 1.558594 2.273438 C 0.929688 2.273438 0.421875 1.761719 0.421875 1.136719 C 0.421875 0.507812 0.929688 0 1.558594 0 L 13.371094 0 C 13.832031 0 14.25 0.28125 14.421875 0.707031 C 14.597656 1.132812 14.496094 1.621094 14.167969 1.945312 L 4.335938 11.609375 L 13.371094 11.609375 C 13.996094 11.609375 14.507812 12.121094 14.507812 12.746094 C 14.507812 13.375 13.996094 13.882812 13.371094 13.882812 Z M 26.605469 16.21875 L 21.039062 16.21875 L 27.40625 9.960938 C 27.734375 9.632812 27.832031 9.148438 27.660156 8.722656 C 27.488281 8.292969 27.066406 8.011719 26.605469 8.011719 L 18.257812 8.011719 C 17.632812 8.011719 17.121094 8.523438 17.121094 9.148438 C 17.121094 9.773438 17.632812 10.285156 18.257812 10.285156 L 23.828125 10.285156 L 17.460938 16.542969 C 17.128906 16.871094 17.03125 17.351562 17.207031 17.78125 C 17.382812 18.214844 17.796875 18.492188 18.257812 18.492188 L 26.605469 18.492188 C 27.234375 18.492188 27.742188 17.980469 27.742188 17.355469 C 27.742188 16.730469 27.234375 16.21875 26.605469 16.21875 Z M 13.769531 25.890625 L 9.890625 25.890625 L 14.566406 21.296875 C 14.898438 20.972656 15 20.480469 14.824219 20.050781 C 14.648438 19.625 14.230469 19.34375 13.769531 19.34375 L 7.109375 19.34375 C 6.484375 19.34375 5.972656 19.855469 5.972656 20.484375 C 5.972656 21.109375 6.484375 21.621094 7.109375 21.621094 L 10.992188 21.621094 L 6.3125 26.214844 C 5.984375 26.542969 5.882812 27.027344 6.058594 27.453125 C 6.234375 27.882812 6.648438 28.164062 7.113281 28.164062 L 13.769531 28.164062 C 14.398438 28.164062 14.90625 27.652344 14.90625 27.027344 C 14.90625 26.402344 14.402344 25.890625 13.769531 25.890625 Z M 13.769531 25.890625 "/>
</g>
</svg>
