<?xml version="1.0" encoding="UTF-8"?>
<svg xmlns="http://www.w3.org/2000/svg" xmlns:xlink="http://www.w3.org/1999/xlink" width="28pt" height="28pt" viewBox="0 0 28 28" version="1.1">
<g id="surface1">
<path style=" stroke:none;fill-rule:nonzero;fill:rgb(0%,0%,0%);fill-opacity:1;" d="M 27.707031 12.898438 L 11.886719 3.851562 C 10.664062 3.152344 8.996094 3.53125 8.191406 4.679688 L 5.125 9.0625 C 4.824219 9.492188 4.667969 9.996094 4.667969 10.523438 C 4.667969 11.429688 5.15625 12.273438 5.9375 12.726562 L 9.273438 14.652344 L 8.671875 15.457031 C 8.347656 15.894531 8.167969 16.433594 8.167969 16.976562 C 8.167969 17.535156 8.371094 18.0625 8.703125 18.496094 L 7.8125 19.832031 L 3.5 19.832031 L 3.5 18.078125 C 3.5 17.753906 3.238281 17.5 2.917969 17.5 L 0.582031 17.5 C 0.261719 17.5 0 17.753906 0 18.078125 L 0 23.917969 C 0 24.238281 0.261719 24.5 0.582031 24.5 L 2.917969 24.5 C 3.238281 24.5 3.5 24.238281 3.5 23.917969 L 3.5 23.332031 L 7.8125 23.332031 C 8.988281 23.332031 10.074219 22.75 10.726562 21.773438 L 11.683594 20.339844 C 11.867188 20.378906 12.050781 20.414062 12.242188 20.414062 C 13.167969 20.414062 14.042969 19.917969 14.519531 19.121094 L 15.160156 18.054688 L 20.125 20.921875 C 20.214844 20.972656 20.316406 21 20.417969 21 C 20.476562 21 20.53125 20.992188 20.585938 20.972656 C 20.738281 20.925781 20.867188 20.820312 20.941406 20.675781 L 21.371094 19.808594 C 21.441406 19.816406 21.511719 19.832031 21.582031 19.832031 C 23.835938 19.832031 25.667969 17.996094 25.667969 15.742188 C 25.667969 15.496094 25.628906 15.242188 25.574219 14.980469 L 27.675781 13.929688 C 27.871094 13.832031 27.992188 13.636719 28 13.421875 C 28.003906 13.207031 27.894531 13.007812 27.707031 12.898438 Z M 2.332031 23.332031 L 1.167969 23.332031 L 1.167969 18.667969 L 2.332031 18.667969 Z M 9.753906 21.128906 C 9.320312 21.78125 8.59375 22.167969 7.8125 22.167969 L 3.5 22.167969 L 3.5 21 L 7.8125 21 C 8.207031 21 8.566406 20.808594 8.785156 20.480469 L 9.59375 19.269531 L 10.59375 19.871094 Z M 13.519531 18.527344 C 13.113281 19.207031 12.152344 19.445312 11.472656 19.039062 L 9.996094 18.152344 C 9.585938 17.90625 9.332031 17.457031 9.332031 16.984375 C 9.332031 16.691406 9.429688 16.402344 9.605469 16.164062 L 10.292969 15.25 L 14.152344 17.476562 Z M 20.171875 19.605469 L 6.519531 11.726562 C 6.097656 11.480469 5.832031 11.023438 5.832031 10.535156 C 5.832031 10.25 5.917969 9.976562 6.082031 9.746094 L 7.546875 7.652344 L 21.980469 15.980469 Z M 21.964844 18.628906 L 23.183594 16.183594 L 24.480469 15.535156 C 24.488281 15.609375 24.5 15.683594 24.5 15.75 C 24.5 17.230469 23.390625 18.441406 21.964844 18.628906 Z M 22.769531 15.085938 L 8.21875 6.695312 L 9.148438 5.367188 C 9.453125 4.929688 9.957031 4.667969 10.492188 4.667969 C 10.777344 4.667969 11.058594 4.742188 11.308594 4.882812 L 26.179688 13.382812 Z M 22.769531 15.085938 "/>
<path style=" stroke:none;fill-rule:nonzero;fill:rgb(0%,0%,0%);fill-opacity:1;" d="M 19.832031 16.917969 C 19.832031 17.238281 19.570312 17.5 19.25 17.5 C 18.929688 17.5 18.667969 17.238281 18.667969 16.917969 C 18.667969 16.59375 18.929688 16.332031 19.25 16.332031 C 19.570312 16.332031 19.832031 16.59375 19.832031 16.917969 Z M 19.832031 16.917969 "/>
</g>
</svg>
