<?xml version="1.0" encoding="UTF-8"?>
<svg xmlns="http://www.w3.org/2000/svg" xmlns:xlink="http://www.w3.org/1999/xlink" width="28pt" height="28pt" viewBox="0 0 28 28" version="1.1">
<g id="surface1">
<path style=" stroke:none;fill-rule:nonzero;fill:rgb(0%,0%,0%);fill-opacity:1;" d="M 25.539062 2.515625 L 2.460938 2.515625 C 1.105469 2.515625 0 3.621094 0 4.976562 L 0 23.023438 C 0 24.378906 1.105469 25.484375 2.460938 25.484375 L 25.539062 25.484375 C 26.894531 25.484375 28 24.378906 28 23.023438 L 28 4.976562 C 28 3.621094 26.894531 2.515625 25.539062 2.515625 Z M 13.179688 23.84375 L 2.460938 23.84375 C 2.007812 23.84375 1.640625 23.476562 1.640625 23.023438 L 1.640625 18.921875 L 13.179688 18.921875 Z M 26.359375 23.023438 C 26.359375 23.476562 25.992188 23.84375 25.539062 23.84375 L 14.820312 23.84375 L 14.820312 18.921875 L 26.359375 18.921875 Z M 26.359375 17.28125 L 1.640625 17.28125 L 1.640625 4.976562 C 1.640625 4.523438 2.007812 4.15625 2.460938 4.15625 L 25.539062 4.15625 C 25.992188 4.15625 26.359375 4.523438 26.359375 4.976562 Z M 26.359375 17.28125 "/>
<path style=" stroke:none;fill-rule:nonzero;fill:rgb(0%,0%,0%);fill-opacity:1;" d="M 12.269531 13.570312 C 12.84375 12.765625 13.179688 11.78125 13.179688 10.71875 C 13.179688 9.65625 12.84375 8.671875 12.269531 7.867188 L 12.9375 7.195312 C 13.257812 6.875 13.257812 6.359375 12.9375 6.039062 C 12.617188 5.71875 12.101562 5.71875 11.78125 6.039062 L 11.109375 6.707031 C 10.304688 6.132812 9.320312 5.796875 8.257812 5.796875 C 7.195312 5.796875 6.210938 6.132812 5.40625 6.707031 L 4.734375 6.039062 C 4.414062 5.71875 3.898438 5.71875 3.578125 6.039062 C 3.257812 6.359375 3.257812 6.875 3.578125 7.195312 L 4.246094 7.867188 C 3.671875 8.671875 3.335938 9.65625 3.335938 10.71875 C 3.335938 11.78125 3.671875 12.765625 4.246094 13.570312 L 3.578125 14.242188 C 3.257812 14.5625 3.257812 15.078125 3.578125 15.398438 C 3.898438 15.71875 4.414062 15.71875 4.734375 15.398438 L 5.40625 14.730469 C 6.210938 15.304688 7.195312 15.640625 8.257812 15.640625 C 9.320312 15.640625 10.304688 15.304688 11.109375 14.730469 L 11.78125 15.398438 C 12.101562 15.71875 12.617188 15.71875 12.9375 15.398438 C 13.257812 15.078125 13.257812 14.5625 12.9375 14.242188 Z M 11.082031 12.382812 L 10.476562 11.78125 C 10.15625 11.460938 9.640625 11.460938 9.320312 11.78125 C 9 12.101562 9 12.617188 9.320312 12.9375 L 9.921875 13.542969 C 9.433594 13.832031 8.867188 14 8.257812 14 C 7.648438 14 7.082031 13.832031 6.59375 13.542969 L 7.195312 12.9375 C 7.515625 12.617188 7.515625 12.101562 7.195312 11.78125 C 6.875 11.460938 6.359375 11.460938 6.039062 11.78125 L 5.433594 12.382812 C 5.144531 11.894531 4.976562 11.328125 4.976562 10.71875 C 4.976562 10.109375 5.144531 9.542969 5.433594 9.054688 L 6.039062 9.65625 C 6.359375 9.976562 6.875 9.976562 7.195312 9.65625 C 7.515625 9.335938 7.515625 8.820312 7.195312 8.5 L 6.59375 7.894531 C 7.082031 7.605469 7.648438 7.4375 8.257812 7.4375 C 8.867188 7.4375 9.433594 7.605469 9.921875 7.894531 L 9.320312 8.5 C 9 8.820312 9 9.335938 9.320312 9.65625 C 9.640625 9.976562 10.15625 9.976562 10.476562 9.65625 L 11.082031 9.054688 C 11.371094 9.542969 11.539062 10.109375 11.539062 10.71875 C 11.539062 11.328125 11.371094 11.894531 11.082031 12.382812 Z M 11.082031 12.382812 "/>
<path style=" stroke:none;fill-rule:nonzero;fill:rgb(0%,0%,0%);fill-opacity:1;" d="M 23.753906 13.570312 C 24.328125 12.765625 24.664062 11.78125 24.664062 10.71875 C 24.664062 9.65625 24.328125 8.671875 23.753906 7.867188 L 24.421875 7.195312 C 24.742188 6.875 24.742188 6.359375 24.421875 6.039062 C 24.101562 5.71875 23.585938 5.71875 23.265625 6.039062 L 22.59375 6.707031 C 21.789062 6.132812 20.804688 5.796875 19.742188 5.796875 C 18.679688 5.796875 17.695312 6.132812 16.890625 6.707031 L 16.21875 6.039062 C 15.898438 5.71875 15.382812 5.71875 15.0625 6.039062 C 14.742188 6.359375 14.742188 6.875 15.0625 7.195312 L 15.730469 7.867188 C 15.15625 8.671875 14.820312 9.65625 14.820312 10.71875 C 14.820312 11.78125 15.15625 12.765625 15.730469 13.570312 L 15.0625 14.242188 C 14.742188 14.5625 14.742188 15.078125 15.0625 15.398438 C 15.382812 15.71875 15.898438 15.71875 16.21875 15.398438 L 16.890625 14.730469 C 17.695312 15.304688 18.679688 15.640625 19.742188 15.640625 C 20.804688 15.640625 21.789062 15.304688 22.59375 14.730469 L 23.265625 15.398438 C 23.585938 15.71875 24.101562 15.71875 24.421875 15.398438 C 24.742188 15.078125 24.742188 14.5625 24.421875 14.242188 Z M 22.566406 12.382812 L 21.960938 11.78125 C 21.640625 11.460938 21.125 11.460938 20.804688 11.78125 C 20.484375 12.101562 20.484375 12.617188 20.804688 12.9375 L 21.40625 13.542969 C 20.917969 13.832031 20.351562 14 19.742188 14 C 19.132812 14 18.566406 13.832031 18.078125 13.542969 L 18.679688 12.9375 C 19 12.617188 19 12.101562 18.679688 11.78125 C 18.359375 11.460938 17.84375 11.460938 17.523438 11.78125 L 16.917969 12.382812 C 16.628906 11.894531 16.460938 11.328125 16.460938 10.71875 C 16.460938 10.109375 16.628906 9.542969 16.917969 9.054688 L 17.523438 9.65625 C 17.84375 9.976562 18.359375 9.976562 18.679688 9.65625 C 19 9.335938 19 8.820312 18.679688 8.5 L 18.078125 7.894531 C 18.566406 7.605469 19.132812 7.4375 19.742188 7.4375 C 20.351562 7.4375 20.917969 7.605469 21.40625 7.894531 L 20.804688 8.5 C 20.484375 8.820312 20.484375 9.335938 20.804688 9.65625 C 21.125 9.976562 21.640625 9.976562 21.960938 9.65625 L 22.566406 9.054688 C 22.855469 9.542969 23.023438 10.109375 23.023438 10.71875 C 23.023438 11.328125 22.855469 11.894531 22.566406 12.382812 Z M 22.566406 12.382812 "/>
<path style=" stroke:none;fill-rule:nonzero;fill:rgb(0%,0%,0%);fill-opacity:1;" d="M 5.796875 21.382812 C 5.796875 21.835938 5.429688 22.203125 4.976562 22.203125 C 4.523438 22.203125 4.15625 21.835938 4.15625 21.382812 C 4.15625 20.929688 4.523438 20.5625 4.976562 20.5625 C 5.429688 20.5625 5.796875 20.929688 5.796875 21.382812 Z M 5.796875 21.382812 "/>
<path style=" stroke:none;fill-rule:nonzero;fill:rgb(0%,0%,0%);fill-opacity:1;" d="M 10.71875 21.382812 C 10.71875 21.835938 10.351562 22.203125 9.898438 22.203125 C 9.445312 22.203125 9.078125 21.835938 9.078125 21.382812 C 9.078125 20.929688 9.445312 20.5625 9.898438 20.5625 C 10.351562 20.5625 10.71875 20.929688 10.71875 21.382812 Z M 10.71875 21.382812 "/>
<path style=" stroke:none;fill-rule:nonzero;fill:rgb(0%,0%,0%);fill-opacity:1;" d="M 18.921875 21.382812 C 18.921875 21.835938 18.554688 22.203125 18.101562 22.203125 C 17.648438 22.203125 17.28125 21.835938 17.28125 21.382812 C 17.28125 20.929688 17.648438 20.5625 18.101562 20.5625 C 18.554688 20.5625 18.921875 20.929688 18.921875 21.382812 Z M 18.921875 21.382812 "/>
<path style=" stroke:none;fill-rule:nonzero;fill:rgb(0%,0%,0%);fill-opacity:1;" d="M 23.84375 21.382812 C 23.84375 21.835938 23.476562 22.203125 23.023438 22.203125 C 22.570312 22.203125 22.203125 21.835938 22.203125 21.382812 C 22.203125 20.929688 22.570312 20.5625 23.023438 20.5625 C 23.476562 20.5625 23.84375 20.929688 23.84375 21.382812 Z M 23.84375 21.382812 "/>
</g>
</svg>
