<?xml version="1.0" encoding="UTF-8"?>
<svg xmlns="http://www.w3.org/2000/svg" xmlns:xlink="http://www.w3.org/1999/xlink" width="28pt" height="27pt" viewBox="0 0 28 27" version="1.1">
<g id="surface1">
<path style=" stroke:none;fill-rule:nonzero;fill:rgb(0%,0%,0%);fill-opacity:1;" d="M 27.375 4.988281 C 27.375 4.988281 27.375 4.988281 27.371094 4.988281 L 24.972656 4.988281 L 24.972656 2.128906 C 24.972656 1.792969 24.65625 1.519531 24.3125 1.519531 L 18.753906 1.519531 C 18.40625 1.519531 18.097656 1.792969 18.097656 2.128906 L 18.097656 4.988281 L 9.902344 4.988281 L 9.902344 2.128906 C 9.902344 1.792969 9.59375 1.519531 9.246094 1.519531 L 3.6875 1.519531 C 3.34375 1.519531 3.027344 1.792969 3.027344 2.128906 L 3.027344 4.988281 L 0.628906 4.988281 C 0.285156 4.988281 0.0078125 5.246094 0 5.582031 L 0 24.871094 C 0 25.207031 0.277344 25.480469 0.625 25.480469 L 27.371094 25.480469 C 27.714844 25.480469 28 25.207031 28 24.871094 L 28 5.589844 C 28 5.253906 27.722656 4.988281 27.375 4.988281 Z M 19.359375 2.738281 L 23.710938 2.738281 L 23.710938 4.988281 L 19.359375 4.988281 Z M 4.289062 2.738281 L 8.640625 2.738281 L 8.640625 4.988281 L 4.289062 4.988281 Z M 26.738281 24.261719 L 1.261719 24.261719 L 1.261719 6.203125 L 26.738281 6.203125 Z M 26.738281 24.261719 "/>
<path style=" stroke:none;fill-rule:nonzero;fill:rgb(0%,0%,0%);fill-opacity:1;" d="M 23.648438 14.046875 L 4.414062 14.046875 C 4.066406 14.046875 3.785156 14.320312 3.785156 14.65625 L 3.785156 21.222656 C 3.785156 21.558594 4.066406 21.832031 4.414062 21.832031 L 23.648438 21.832031 C 23.996094 21.832031 24.277344 21.558594 24.277344 21.222656 L 24.277344 14.65625 C 24.277344 14.320312 23.996094 14.046875 23.648438 14.046875 Z M 22.953125 20.613281 L 5.046875 20.613281 L 5.046875 15.261719 L 22.953125 15.261719 Z M 22.953125 20.613281 "/>
<path style=" stroke:none;fill-rule:nonzero;fill:rgb(0%,0%,0%);fill-opacity:1;" d="M 7.945312 9.609375 L 7.125 9.609375 L 7.125 8.757812 C 7.125 8.421875 6.84375 8.148438 6.496094 8.148438 C 6.148438 8.148438 5.863281 8.421875 5.863281 8.757812 L 5.863281 9.609375 L 4.980469 9.609375 C 4.636719 9.609375 4.351562 9.882812 4.351562 10.214844 C 4.351562 10.550781 4.636719 10.824219 4.980469 10.824219 L 5.863281 10.824219 L 5.863281 11.675781 C 5.863281 12.011719 6.148438 12.285156 6.496094 12.285156 C 6.84375 12.285156 7.125 12.011719 7.125 11.675781 L 7.125 10.824219 L 7.945312 10.824219 C 8.292969 10.824219 8.578125 10.550781 8.578125 10.214844 C 8.578125 9.882812 8.292969 9.609375 7.945312 9.609375 Z M 7.945312 9.609375 "/>
<path style=" stroke:none;fill-rule:nonzero;fill:rgb(0%,0%,0%);fill-opacity:1;" d="M 23.019531 9.609375 L 20.054688 9.609375 C 19.707031 9.609375 19.421875 9.882812 19.421875 10.214844 C 19.421875 10.550781 19.707031 10.824219 20.054688 10.824219 L 23.019531 10.824219 C 23.363281 10.824219 23.648438 10.550781 23.648438 10.214844 C 23.648438 9.882812 23.363281 9.609375 23.019531 9.609375 Z M 23.019531 9.609375 "/>
</g>
</svg>
