<?xml version="1.0" encoding="UTF-8"?>
<svg xmlns="http://www.w3.org/2000/svg" xmlns:xlink="http://www.w3.org/1999/xlink" width="28pt" height="28pt" viewBox="0 0 28 28" version="1.1">
<g id="surface1">
<path style=" stroke:none;fill-rule:nonzero;fill:rgb(0%,0%,0%);fill-opacity:1;" d="M 27.03125 21.515625 C 28.324219 20.226562 28.324219 18.128906 27.03125 16.84375 C 25.742188 15.550781 23.644531 15.550781 22.359375 16.84375 L 20.605469 18.597656 C 20.117188 19.082031 19.324219 19.082031 18.839844 18.597656 L 15.707031 15.460938 C 15.515625 15.265625 15.25 15.160156 14.984375 15.160156 C 14.707031 15.160156 14.445312 15.265625 14.257812 15.460938 C 13.398438 16.316406 12.261719 16.792969 11.046875 16.792969 C 9.828125 16.792969 8.691406 16.316406 7.835938 15.460938 L 5 12.628906 L 11.417969 6.210938 L 14.25 9.046875 C 15.039062 9.832031 15.507812 10.878906 15.570312 11.988281 C 15.605469 12.535156 16.058594 12.957031 16.597656 12.957031 C 16.617188 12.957031 16.640625 12.957031 16.664062 12.957031 C 17.226562 12.925781 17.664062 12.4375 17.628906 11.875 C 17.535156 10.257812 16.851562 8.738281 15.707031 7.59375 L 12.875 4.761719 L 13.1875 4.445312 C 13.589844 4.046875 13.589844 3.394531 13.1875 2.988281 C 12.789062 2.589844 12.136719 2.589844 11.730469 2.988281 L 9.714844 5.007812 L 6.21875 1.507812 C 5.820312 1.109375 5.167969 1.109375 4.761719 1.507812 C 4.363281 1.910156 4.363281 2.5625 4.761719 2.964844 L 8.257812 6.464844 L 5.253906 9.46875 L 1.757812 5.972656 C 1.355469 5.570312 0.707031 5.570312 0.300781 5.972656 C -0.101562 6.371094 -0.101562 7.023438 0.300781 7.429688 L 3.800781 10.925781 L 1.785156 12.941406 C 1.386719 13.339844 1.386719 13.992188 1.785156 14.398438 C 1.984375 14.597656 2.25 14.703125 2.511719 14.703125 C 2.773438 14.703125 3.035156 14.597656 3.238281 14.398438 L 3.550781 14.085938 L 6.382812 16.917969 C 7.628906 18.164062 9.285156 18.847656 11.046875 18.847656 C 12.457031 18.847656 13.804688 18.410156 14.925781 17.585938 L 17.386719 20.046875 C 18.035156 20.695312 18.878906 21.015625 19.722656 21.015625 C 20.570312 21.015625 21.414062 20.695312 22.0625 20.046875 L 23.816406 18.292969 C 24.300781 17.808594 25.09375 17.808594 25.582031 18.292969 C 26.066406 18.78125 26.066406 19.574219 25.582031 20.058594 L 23.828125 21.8125 C 23.203125 22.4375 22.859375 23.265625 22.859375 24.152344 C 22.859375 25.035156 23.203125 25.863281 23.828125 26.488281 C 24.027344 26.6875 24.289062 26.789062 24.550781 26.789062 C 24.816406 26.789062 25.078125 26.6875 25.277344 26.488281 C 25.675781 26.085938 25.675781 25.4375 25.277344 25.03125 C 25.042969 24.796875 24.910156 24.480469 24.910156 24.152344 C 24.910156 23.820312 25.042969 23.503906 25.277344 23.269531 Z M 27.03125 21.515625 "/>
</g>
</svg>
