<?xml version="1.0" encoding="UTF-8"?>
<svg xmlns="http://www.w3.org/2000/svg" xmlns:xlink="http://www.w3.org/1999/xlink" width="28pt" height="28pt" viewBox="0 0 28 28" version="1.1">
<g id="surface1">
<path style=" stroke:none;fill-rule:nonzero;fill:rgb(0%,0%,0%);fill-opacity:1;" d="M 22.707031 1.058594 L 5.292969 1.058594 C 5.082031 1.058594 4.910156 1.226562 4.910156 1.441406 L 4.910156 26.558594 C 4.910156 26.773438 5.082031 26.941406 5.292969 26.941406 L 22.707031 26.941406 C 22.917969 26.941406 23.089844 26.773438 23.089844 26.558594 L 23.089844 1.441406 C 23.089844 1.226562 22.917969 1.058594 22.707031 1.058594 Z M 22.324219 18.046875 L 14.382812 18.046875 L 14.382812 1.824219 L 22.324219 1.824219 Z M 13.617188 1.824219 L 13.617188 18.046875 L 5.675781 18.046875 L 5.675781 1.824219 Z M 5.675781 26.175781 L 5.675781 18.8125 L 22.324219 18.8125 L 22.324219 26.175781 Z M 5.675781 26.175781 "/>
<path style=" stroke:none;fill-rule:nonzero;fill:rgb(0%,0%,0%);fill-opacity:1;" d="M 15.3125 15.195312 C 15.523438 15.195312 15.695312 15.023438 15.695312 14.8125 L 15.695312 5.058594 C 15.695312 4.847656 15.523438 4.675781 15.3125 4.675781 C 15.101562 4.675781 14.929688 4.847656 14.929688 5.058594 L 14.929688 14.8125 C 14.929688 15.023438 15.101562 15.195312 15.3125 15.195312 Z M 15.3125 15.195312 "/>
<path style=" stroke:none;fill-rule:nonzero;fill:rgb(0%,0%,0%);fill-opacity:1;" d="M 12.6875 15.195312 C 12.898438 15.195312 13.070312 15.023438 13.070312 14.8125 L 13.070312 5.058594 C 13.070312 4.847656 12.898438 4.675781 12.6875 4.675781 C 12.476562 4.675781 12.304688 4.847656 12.304688 5.058594 L 12.304688 14.8125 C 12.304688 15.023438 12.476562 15.195312 12.6875 15.195312 Z M 12.6875 15.195312 "/>
<path style=" stroke:none;fill-rule:nonzero;fill:rgb(0%,0%,0%);fill-opacity:1;" d="M 16.1875 19.359375 L 11.8125 19.359375 C 11.601562 19.359375 11.429688 19.53125 11.429688 19.742188 C 11.429688 19.953125 11.601562 20.125 11.8125 20.125 L 16.1875 20.125 C 16.398438 20.125 16.570312 19.953125 16.570312 19.742188 C 16.570312 19.53125 16.398438 19.359375 16.1875 19.359375 Z M 16.1875 19.359375 "/>
<path style=" stroke:none;fill-rule:nonzero;fill:rgb(0%,0%,0%);fill-opacity:1;" d="M 7.242188 15.195312 L 10.742188 15.195312 C 10.953125 15.195312 11.125 15.023438 11.125 14.8125 L 11.125 10.4375 C 11.125 10.226562 10.953125 10.054688 10.742188 10.054688 L 7.242188 10.054688 C 7.027344 10.054688 6.859375 10.226562 6.859375 10.4375 L 6.859375 14.8125 C 6.859375 15.023438 7.027344 15.195312 7.242188 15.195312 Z M 7.625 10.820312 L 8.609375 10.820312 L 8.609375 11.75 C 8.609375 11.960938 8.777344 12.132812 8.992188 12.132812 C 9.203125 12.132812 9.375 11.960938 9.375 11.75 L 9.375 10.820312 L 10.359375 10.820312 L 10.359375 14.429688 L 7.625 14.429688 Z M 7.625 10.820312 "/>
</g>
</svg>
