<?xml version="1.0" encoding="UTF-8"?>
<svg xmlns="http://www.w3.org/2000/svg" xmlns:xlink="http://www.w3.org/1999/xlink" width="28pt" height="28pt" viewBox="0 0 28 28" version="1.1">
<g id="surface1">
<path style=" stroke:none;fill-rule:nonzero;fill:rgb(0%,0%,0%);fill-opacity:1;" d="M 26.308594 1.527344 L 1.691406 1.527344 C 0.757812 1.527344 0 2.285156 0 3.21875 L 0 20.214844 C 0 21.148438 0.757812 21.90625 1.691406 21.90625 L 10.125 21.90625 L 10.125 23.136719 C 10.125 24.265625 9.210938 25.179688 8.082031 25.179688 L 6.222656 25.179688 C 5.867188 25.179688 5.578125 25.46875 5.578125 25.828125 C 5.578125 26.183594 5.867188 26.472656 6.222656 26.472656 L 21.777344 26.472656 C 22.132812 26.472656 22.421875 26.183594 22.421875 25.828125 C 22.421875 25.46875 22.132812 25.179688 21.777344 25.179688 L 19.917969 25.179688 C 18.789062 25.179688 17.875 24.265625 17.875 23.136719 L 17.875 21.90625 L 26.308594 21.90625 C 27.242188 21.90625 28 21.148438 28 20.214844 L 28 3.21875 C 28 2.285156 27.242188 1.527344 26.308594 1.527344 Z M 10.714844 25.179688 C 11.15625 24.617188 11.417969 23.90625 11.417969 23.136719 L 11.417969 21.90625 L 16.582031 21.90625 L 16.582031 23.136719 C 16.582031 23.90625 16.84375 24.617188 17.285156 25.179688 Z M 26.710938 20.214844 C 26.710938 20.4375 26.53125 20.617188 26.308594 20.617188 L 1.691406 20.617188 C 1.46875 20.617188 1.289062 20.4375 1.289062 20.214844 L 1.289062 16.824219 L 26.710938 16.824219 Z M 26.710938 15.53125 L 1.289062 15.53125 L 1.289062 3.21875 C 1.289062 2.996094 1.46875 2.820312 1.691406 2.820312 L 26.308594 2.820312 C 26.53125 2.820312 26.710938 2.996094 26.710938 3.21875 Z M 26.710938 15.53125 "/>
<path style=" stroke:none;fill-rule:nonzero;fill:rgb(0%,0%,0%);fill-opacity:1;" d="M 14.695312 18.71875 C 14.695312 19.105469 14.386719 19.417969 14 19.417969 C 13.617188 19.417969 13.304688 19.105469 13.304688 18.71875 C 13.304688 18.335938 13.617188 18.023438 14 18.023438 C 14.386719 18.023438 14.695312 18.335938 14.695312 18.71875 Z M 14.695312 18.71875 "/>
<path style=" stroke:none;fill-rule:nonzero;fill:rgb(0%,0%,0%);fill-opacity:1;" d="M 15.105469 5.976562 C 14.855469 5.722656 14.445312 5.722656 14.195312 5.976562 L 9.632812 10.535156 C 9.378906 10.789062 9.378906 11.199219 9.632812 11.449219 C 9.757812 11.574219 9.921875 11.636719 10.089844 11.636719 C 10.253906 11.636719 10.417969 11.574219 10.546875 11.449219 L 15.105469 6.886719 C 15.359375 6.636719 15.359375 6.226562 15.105469 5.976562 Z M 15.105469 5.976562 "/>
<path style=" stroke:none;fill-rule:nonzero;fill:rgb(0%,0%,0%);fill-opacity:1;" d="M 17.8125 8.617188 C 17.558594 8.367188 17.148438 8.367188 16.898438 8.617188 L 15.082031 10.433594 C 14.828125 10.6875 14.828125 11.097656 15.082031 11.347656 C 15.207031 11.472656 15.371094 11.539062 15.535156 11.539062 C 15.703125 11.539062 15.867188 11.472656 15.992188 11.347656 L 17.8125 9.53125 C 18.0625 9.277344 18.0625 8.871094 17.8125 8.617188 Z M 17.8125 8.617188 "/>
</g>
</svg>
