<?xml version="1.0" encoding="UTF-8"?>
<svg xmlns="http://www.w3.org/2000/svg" xmlns:xlink="http://www.w3.org/1999/xlink" width="28pt" height="28pt" viewBox="0 0 28 28" version="1.1">
<g id="surface1">
<path style=" stroke:none;fill-rule:nonzero;fill:rgb(0%,0%,0%);fill-opacity:1;" d="M 27.621094 20.9375 L 26.945312 20.808594 C 26.632812 20.746094 26.382812 20.539062 26.265625 20.238281 C 26.148438 19.941406 26.1875 19.617188 26.378906 19.359375 L 26.800781 18.78125 C 26.9375 18.597656 26.917969 18.339844 26.757812 18.175781 L 25.839844 17.261719 C 25.683594 17.105469 25.433594 17.082031 25.25 17.207031 L 24.683594 17.589844 C 24.414062 17.773438 24.09375 17.800781 23.796875 17.671875 C 23.503906 17.542969 23.304688 17.289062 23.257812 16.96875 L 23.148438 16.261719 C 23.113281 16.035156 22.917969 15.867188 22.6875 15.867188 L 21.394531 15.867188 C 21.171875 15.867188 20.976562 16.027344 20.9375 16.246094 L 20.769531 17.117188 C 20.710938 17.425781 20.507812 17.671875 20.21875 17.792969 C 19.925781 17.914062 19.609375 17.878906 19.351562 17.703125 L 18.617188 17.207031 C 18.429688 17.082031 18.183594 17.105469 18.023438 17.261719 L 17.109375 18.175781 C 16.945312 18.339844 16.925781 18.597656 17.0625 18.785156 L 17.488281 19.359375 C 17.675781 19.621094 17.71875 19.941406 17.601562 20.238281 C 17.484375 20.539062 17.234375 20.746094 16.917969 20.808594 L 16.246094 20.9375 C 16.027344 20.980469 15.867188 21.171875 15.867188 21.394531 L 15.867188 22.6875 C 15.867188 22.917969 16.035156 23.113281 16.261719 23.148438 L 16.96875 23.257812 C 17.289062 23.304688 17.542969 23.503906 17.671875 23.796875 C 17.800781 24.09375 17.773438 24.414062 17.589844 24.683594 L 17.207031 25.25 C 17.082031 25.4375 17.105469 25.683594 17.261719 25.84375 L 18.175781 26.757812 C 18.339844 26.917969 18.597656 26.9375 18.785156 26.804688 L 19.359375 26.378906 C 19.617188 26.191406 19.941406 26.148438 20.238281 26.265625 C 20.539062 26.382812 20.746094 26.632812 20.808594 26.949219 L 20.9375 27.621094 C 20.980469 27.839844 21.171875 28 21.394531 28 L 22.6875 28 C 22.917969 28 23.113281 27.832031 23.148438 27.605469 L 23.226562 27.105469 C 23.273438 26.785156 23.484375 26.519531 23.78125 26.398438 C 24.082031 26.273438 24.417969 26.3125 24.679688 26.503906 L 25.082031 26.804688 C 25.269531 26.9375 25.527344 26.917969 25.691406 26.757812 L 26.605469 25.84375 C 26.761719 25.683594 26.785156 25.4375 26.660156 25.25 L 26.277344 24.683594 C 26.09375 24.414062 26.066406 24.09375 26.195312 23.796875 C 26.324219 23.503906 26.578125 23.304688 26.898438 23.257812 L 27.605469 23.148438 C 27.832031 23.113281 28 22.917969 28 22.6875 L 28 21.394531 C 28 21.171875 27.839844 20.980469 27.621094 20.9375 Z M 27.066406 22.285156 L 26.753906 22.335938 C 26.125 22.433594 25.59375 22.839844 25.339844 23.425781 C 25.082031 24.011719 25.144531 24.675781 25.503906 25.207031 L 25.671875 25.453125 L 25.3125 25.8125 L 25.230469 25.753906 C 24.703125 25.367188 24.027344 25.285156 23.425781 25.535156 C 22.820312 25.785156 22.402344 26.320312 22.300781 26.964844 L 22.285156 27.066406 L 21.78125 27.066406 L 21.722656 26.769531 C 21.601562 26.144531 21.175781 25.628906 20.582031 25.394531 C 19.984375 25.164062 19.324219 25.25 18.808594 25.625 L 18.554688 25.8125 L 18.195312 25.453125 L 18.363281 25.207031 C 18.722656 24.675781 18.785156 24.011719 18.527344 23.425781 C 18.273438 22.839844 17.742188 22.433594 17.109375 22.335938 L 16.800781 22.285156 L 16.800781 21.78125 L 17.09375 21.722656 C 17.722656 21.601562 18.238281 21.175781 18.46875 20.582031 C 18.703125 19.984375 18.617188 19.324219 18.238281 18.808594 L 18.054688 18.554688 L 18.414062 18.195312 L 18.828125 18.476562 C 19.34375 18.828125 20 18.894531 20.574219 18.652344 C 21.152344 18.414062 21.570312 17.90625 21.6875 17.292969 L 21.78125 16.800781 L 22.285156 16.800781 L 22.335938 17.109375 C 22.433594 17.742188 22.839844 18.273438 23.425781 18.527344 C 24.011719 18.785156 24.675781 18.722656 25.207031 18.363281 L 25.453125 18.195312 L 25.8125 18.554688 L 25.628906 18.808594 C 25.25 19.324219 25.164062 19.984375 25.394531 20.582031 C 25.628906 21.175781 26.144531 21.601562 26.773438 21.722656 L 27.066406 21.78125 Z M 27.066406 22.285156 "/>
<path style=" stroke:none;fill-rule:nonzero;fill:rgb(0%,0%,0%);fill-opacity:1;" d="M 21.933594 19.601562 C 20.648438 19.601562 19.601562 20.648438 19.601562 21.933594 C 19.601562 23.21875 20.648438 24.265625 21.933594 24.265625 C 23.21875 24.265625 24.265625 23.21875 24.265625 21.933594 C 24.265625 20.648438 23.21875 19.601562 21.933594 19.601562 Z M 21.933594 23.332031 C 21.160156 23.332031 20.535156 22.707031 20.535156 21.933594 C 20.535156 21.160156 21.160156 20.535156 21.933594 20.535156 C 22.707031 20.535156 23.332031 21.160156 23.332031 21.933594 C 23.332031 22.707031 22.707031 23.332031 21.933594 23.332031 Z M 21.933594 23.332031 "/>
<path style=" stroke:none;fill-rule:nonzero;fill:rgb(0%,0%,0%);fill-opacity:1;" d="M 4.898438 2.800781 C 3.742188 2.800781 2.800781 3.742188 2.800781 4.898438 C 2.800781 6.058594 3.742188 7 4.898438 7 C 6.058594 7 7 6.058594 7 4.898438 C 7 3.742188 6.058594 2.800781 4.898438 2.800781 Z M 4.898438 6.066406 C 4.257812 6.066406 3.734375 5.542969 3.734375 4.898438 C 3.734375 4.257812 4.257812 3.734375 4.898438 3.734375 C 5.542969 3.734375 6.066406 4.257812 6.066406 4.898438 C 6.066406 5.542969 5.542969 6.066406 4.898438 6.066406 Z M 4.898438 6.066406 "/>
<path style=" stroke:none;fill-rule:nonzero;fill:rgb(0%,0%,0%);fill-opacity:1;" d="M 23.800781 4.199219 C 23.800781 4.457031 23.589844 4.667969 23.332031 4.667969 C 23.074219 4.667969 22.867188 4.457031 22.867188 4.199219 C 22.867188 3.941406 23.074219 3.734375 23.332031 3.734375 C 23.589844 3.734375 23.800781 3.941406 23.800781 4.199219 Z M 23.800781 4.199219 "/>
<path style=" stroke:none;fill-rule:nonzero;fill:rgb(0%,0%,0%);fill-opacity:1;" d="M 21.933594 4.199219 C 21.933594 4.457031 21.722656 4.667969 21.464844 4.667969 C 21.207031 4.667969 21 4.457031 21 4.199219 C 21 3.941406 21.207031 3.734375 21.464844 3.734375 C 21.722656 3.734375 21.933594 3.941406 21.933594 4.199219 Z M 21.933594 4.199219 "/>
<path style=" stroke:none;fill-rule:nonzero;fill:rgb(0%,0%,0%);fill-opacity:1;" d="M 24.734375 5.601562 C 24.734375 5.859375 24.523438 6.066406 24.265625 6.066406 C 24.007812 6.066406 23.800781 5.859375 23.800781 5.601562 C 23.800781 5.34375 24.007812 5.132812 24.265625 5.132812 C 24.523438 5.132812 24.734375 5.34375 24.734375 5.601562 Z M 24.734375 5.601562 "/>
<path style=" stroke:none;fill-rule:nonzero;fill:rgb(0%,0%,0%);fill-opacity:1;" d="M 22.867188 5.601562 C 22.867188 5.859375 22.65625 6.066406 22.398438 6.066406 C 22.140625 6.066406 21.933594 5.859375 21.933594 5.601562 C 21.933594 5.34375 22.140625 5.132812 22.398438 5.132812 C 22.65625 5.132812 22.867188 5.34375 22.867188 5.601562 Z M 22.867188 5.601562 "/>
<path style=" stroke:none;fill-rule:nonzero;fill:rgb(0%,0%,0%);fill-opacity:1;" d="M 20.066406 4.199219 C 20.066406 4.457031 19.859375 4.667969 19.601562 4.667969 C 19.34375 4.667969 19.132812 4.457031 19.132812 4.199219 C 19.132812 3.941406 19.34375 3.734375 19.601562 3.734375 C 19.859375 3.734375 20.066406 3.941406 20.066406 4.199219 Z M 20.066406 4.199219 "/>
<path style=" stroke:none;fill-rule:nonzero;fill:rgb(0%,0%,0%);fill-opacity:1;" d="M 21 5.601562 C 21 5.859375 20.792969 6.066406 20.535156 6.066406 C 20.277344 6.066406 20.066406 5.859375 20.066406 5.601562 C 20.066406 5.34375 20.277344 5.132812 20.535156 5.132812 C 20.792969 5.132812 21 5.34375 21 5.601562 Z M 21 5.601562 "/>
<path style=" stroke:none;fill-rule:nonzero;fill:rgb(0%,0%,0%);fill-opacity:1;" d="M 18.199219 4.199219 C 18.199219 4.457031 17.992188 4.667969 17.734375 4.667969 C 17.476562 4.667969 17.265625 4.457031 17.265625 4.199219 C 17.265625 3.941406 17.476562 3.734375 17.734375 3.734375 C 17.992188 3.734375 18.199219 3.941406 18.199219 4.199219 Z M 18.199219 4.199219 "/>
<path style=" stroke:none;fill-rule:nonzero;fill:rgb(0%,0%,0%);fill-opacity:1;" d="M 19.132812 5.601562 C 19.132812 5.859375 18.925781 6.066406 18.667969 6.066406 C 18.410156 6.066406 18.199219 5.859375 18.199219 5.601562 C 18.199219 5.34375 18.410156 5.132812 18.667969 5.132812 C 18.925781 5.132812 19.132812 5.34375 19.132812 5.601562 Z M 19.132812 5.601562 "/>
<path style=" stroke:none;fill-rule:nonzero;fill:rgb(0%,0%,0%);fill-opacity:1;" d="M 16.332031 4.199219 C 16.332031 4.457031 16.125 4.667969 15.867188 4.667969 C 15.609375 4.667969 15.398438 4.457031 15.398438 4.199219 C 15.398438 3.941406 15.609375 3.734375 15.867188 3.734375 C 16.125 3.734375 16.332031 3.941406 16.332031 4.199219 Z M 16.332031 4.199219 "/>
<path style=" stroke:none;fill-rule:nonzero;fill:rgb(0%,0%,0%);fill-opacity:1;" d="M 17.265625 5.601562 C 17.265625 5.859375 17.058594 6.066406 16.800781 6.066406 C 16.542969 6.066406 16.332031 5.859375 16.332031 5.601562 C 16.332031 5.34375 16.542969 5.132812 16.800781 5.132812 C 17.058594 5.132812 17.265625 5.34375 17.265625 5.601562 Z M 17.265625 5.601562 "/>
<path style=" stroke:none;fill-rule:nonzero;fill:rgb(0%,0%,0%);fill-opacity:1;" d="M 28 7.648438 L 28 2.152344 C 28 0.964844 27.035156 0 25.847656 0 L 2.152344 0 C 0.964844 0 0 0.964844 0 2.152344 L 0 7.648438 C 0 8.335938 0.328125 8.9375 0.828125 9.332031 C 0.328125 9.726562 0 10.332031 0 11.015625 L 0 16.515625 C 0 17.203125 0.328125 17.804688 0.828125 18.199219 C 0.328125 18.59375 0 19.199219 0 19.882812 L 0 25.382812 C 0 26.570312 0.964844 27.535156 2.152344 27.535156 L 15.398438 27.535156 L 15.398438 26.601562 L 2.152344 26.601562 C 1.480469 26.601562 0.933594 26.054688 0.933594 25.382812 L 0.933594 19.882812 C 0.933594 19.210938 1.480469 18.667969 2.152344 18.667969 L 13.066406 18.667969 L 13.066406 17.734375 L 2.152344 17.734375 C 1.480469 17.734375 0.933594 17.1875 0.933594 16.515625 L 0.933594 11.015625 C 0.933594 10.347656 1.480469 9.800781 2.152344 9.800781 L 25.847656 9.800781 C 26.519531 9.800781 27.066406 10.347656 27.066406 11.015625 L 27.066406 16.332031 L 28 16.332031 L 28 11.015625 C 28 10.332031 27.671875 9.726562 27.171875 9.332031 C 27.671875 8.9375 28 8.335938 28 7.648438 Z M 2.152344 8.867188 C 1.480469 8.867188 0.933594 8.320312 0.933594 7.648438 L 0.933594 2.152344 C 0.933594 1.480469 1.480469 0.933594 2.152344 0.933594 L 25.847656 0.933594 C 26.519531 0.933594 27.066406 1.480469 27.066406 2.152344 L 27.066406 7.648438 C 27.066406 8.320312 26.519531 8.867188 25.847656 8.867188 Z M 2.152344 8.867188 "/>
<path style=" stroke:none;fill-rule:nonzero;fill:rgb(0%,0%,0%);fill-opacity:1;" d="M 2.800781 13.765625 C 2.800781 14.925781 3.742188 15.867188 4.898438 15.867188 C 6.058594 15.867188 7 14.925781 7 13.765625 C 7 12.609375 6.058594 11.667969 4.898438 11.667969 C 3.742188 11.667969 2.800781 12.609375 2.800781 13.765625 Z M 6.066406 13.765625 C 6.066406 14.410156 5.542969 14.933594 4.898438 14.933594 C 4.257812 14.933594 3.734375 14.410156 3.734375 13.765625 C 3.734375 13.125 4.257812 12.601562 4.898438 12.601562 C 5.542969 12.601562 6.066406 13.125 6.066406 13.765625 Z M 6.066406 13.765625 "/>
<path style=" stroke:none;fill-rule:nonzero;fill:rgb(0%,0%,0%);fill-opacity:1;" d="M 23.800781 13.066406 C 23.800781 13.324219 23.589844 13.535156 23.332031 13.535156 C 23.074219 13.535156 22.867188 13.324219 22.867188 13.066406 C 22.867188 12.808594 23.074219 12.601562 23.332031 12.601562 C 23.589844 12.601562 23.800781 12.808594 23.800781 13.066406 Z M 23.800781 13.066406 "/>
<path style=" stroke:none;fill-rule:nonzero;fill:rgb(0%,0%,0%);fill-opacity:1;" d="M 21.933594 13.066406 C 21.933594 13.324219 21.722656 13.535156 21.464844 13.535156 C 21.207031 13.535156 21 13.324219 21 13.066406 C 21 12.808594 21.207031 12.601562 21.464844 12.601562 C 21.722656 12.601562 21.933594 12.808594 21.933594 13.066406 Z M 21.933594 13.066406 "/>
<path style=" stroke:none;fill-rule:nonzero;fill:rgb(0%,0%,0%);fill-opacity:1;" d="M 24.734375 14.464844 C 24.734375 14.722656 24.523438 14.933594 24.265625 14.933594 C 24.007812 14.933594 23.800781 14.722656 23.800781 14.464844 C 23.800781 14.207031 24.007812 14 24.265625 14 C 24.523438 14 24.734375 14.207031 24.734375 14.464844 Z M 24.734375 14.464844 "/>
<path style=" stroke:none;fill-rule:nonzero;fill:rgb(0%,0%,0%);fill-opacity:1;" d="M 22.867188 14.464844 C 22.867188 14.722656 22.65625 14.933594 22.398438 14.933594 C 22.140625 14.933594 21.933594 14.722656 21.933594 14.464844 C 21.933594 14.207031 22.140625 14 22.398438 14 C 22.65625 14 22.867188 14.207031 22.867188 14.464844 Z M 22.867188 14.464844 "/>
<path style=" stroke:none;fill-rule:nonzero;fill:rgb(0%,0%,0%);fill-opacity:1;" d="M 20.066406 13.066406 C 20.066406 13.324219 19.859375 13.535156 19.601562 13.535156 C 19.34375 13.535156 19.132812 13.324219 19.132812 13.066406 C 19.132812 12.808594 19.34375 12.601562 19.601562 12.601562 C 19.859375 12.601562 20.066406 12.808594 20.066406 13.066406 Z M 20.066406 13.066406 "/>
<path style=" stroke:none;fill-rule:nonzero;fill:rgb(0%,0%,0%);fill-opacity:1;" d="M 21 14.464844 C 21 14.722656 20.792969 14.933594 20.535156 14.933594 C 20.277344 14.933594 20.066406 14.722656 20.066406 14.464844 C 20.066406 14.207031 20.277344 14 20.535156 14 C 20.792969 14 21 14.207031 21 14.464844 Z M 21 14.464844 "/>
<path style=" stroke:none;fill-rule:nonzero;fill:rgb(0%,0%,0%);fill-opacity:1;" d="M 18.199219 13.066406 C 18.199219 13.324219 17.992188 13.535156 17.734375 13.535156 C 17.476562 13.535156 17.265625 13.324219 17.265625 13.066406 C 17.265625 12.808594 17.476562 12.601562 17.734375 12.601562 C 17.992188 12.601562 18.199219 12.808594 18.199219 13.066406 Z M 18.199219 13.066406 "/>
<path style=" stroke:none;fill-rule:nonzero;fill:rgb(0%,0%,0%);fill-opacity:1;" d="M 19.132812 14.464844 C 19.132812 14.722656 18.925781 14.933594 18.667969 14.933594 C 18.410156 14.933594 18.199219 14.722656 18.199219 14.464844 C 18.199219 14.207031 18.410156 14 18.667969 14 C 18.925781 14 19.132812 14.207031 19.132812 14.464844 Z M 19.132812 14.464844 "/>
<path style=" stroke:none;fill-rule:nonzero;fill:rgb(0%,0%,0%);fill-opacity:1;" d="M 16.332031 13.066406 C 16.332031 13.324219 16.125 13.535156 15.867188 13.535156 C 15.609375 13.535156 15.398438 13.324219 15.398438 13.066406 C 15.398438 12.808594 15.609375 12.601562 15.867188 12.601562 C 16.125 12.601562 16.332031 12.808594 16.332031 13.066406 Z M 16.332031 13.066406 "/>
<path style=" stroke:none;fill-rule:nonzero;fill:rgb(0%,0%,0%);fill-opacity:1;" d="M 17.265625 14.464844 C 17.265625 14.722656 17.058594 14.933594 16.800781 14.933594 C 16.542969 14.933594 16.332031 14.722656 16.332031 14.464844 C 16.332031 14.207031 16.542969 14 16.800781 14 C 17.058594 14 17.265625 14.207031 17.265625 14.464844 Z M 17.265625 14.464844 "/>
<path style=" stroke:none;fill-rule:nonzero;fill:rgb(0%,0%,0%);fill-opacity:1;" d="M 2.800781 22.632812 C 2.800781 23.792969 3.742188 24.734375 4.898438 24.734375 C 6.058594 24.734375 7 23.792969 7 22.632812 C 7 21.476562 6.058594 20.535156 4.898438 20.535156 C 3.742188 20.535156 2.800781 21.476562 2.800781 22.632812 Z M 6.066406 22.632812 C 6.066406 23.277344 5.542969 23.800781 4.898438 23.800781 C 4.257812 23.800781 3.734375 23.277344 3.734375 22.632812 C 3.734375 21.988281 4.257812 21.464844 4.898438 21.464844 C 5.542969 21.464844 6.066406 21.988281 6.066406 22.632812 Z M 6.066406 22.632812 "/>
</g>
</svg>
