<?xml version="1.0" encoding="UTF-8"?>
<svg xmlns="http://www.w3.org/2000/svg" xmlns:xlink="http://www.w3.org/1999/xlink" width="28pt" height="28pt" viewBox="0 0 28 28" version="1.1">
<g id="surface1">
<path style=" stroke:none;fill-rule:nonzero;fill:rgb(0%,0%,0%);fill-opacity:1;" d="M 19.453125 9.527344 L 3.566406 9.527344 C 2.589844 9.527344 1.800781 10.320312 1.800781 11.292969 L 1.800781 21.886719 C 1.800781 22.859375 2.589844 23.648438 3.566406 23.648438 L 19.453125 23.648438 C 20.429688 23.648438 21.21875 22.859375 21.21875 21.886719 L 21.21875 11.292969 C 21.21875 10.320312 20.429688 9.527344 19.453125 9.527344 Z M 20.359375 21.886719 C 20.359375 22.386719 19.953125 22.789062 19.453125 22.792969 L 3.566406 22.792969 C 3.066406 22.789062 2.660156 22.386719 2.660156 21.886719 L 2.660156 11.292969 C 2.660156 10.792969 3.066406 10.390625 3.566406 10.386719 L 19.453125 10.386719 C 19.953125 10.390625 20.359375 10.792969 20.359375 11.292969 Z M 20.359375 21.886719 "/>
<path style=" stroke:none;fill-rule:nonzero;fill:rgb(0%,0%,0%);fill-opacity:1;" d="M 25.882812 7.746094 L 14.351562 7.746094 L 17.410156 3.246094 C 17.542969 3.050781 17.492188 2.789062 17.300781 2.65625 C 17.105469 2.523438 16.839844 2.574219 16.707031 2.765625 L 13.46875 7.527344 L 10.078125 4.472656 C 9.890625 4.332031 9.625 4.371094 9.480469 4.558594 C 9.359375 4.722656 9.371094 4.953125 9.511719 5.105469 L 12.453125 7.753906 L 2.117188 7.753906 C 0.949219 7.757812 0.00390625 8.703125 0 9.871094 L 0 23.304688 C 0.00390625 24.46875 0.949219 25.414062 2.117188 25.417969 L 25.882812 25.417969 C 27.050781 25.414062 27.996094 24.46875 28 23.304688 L 28 9.859375 C 27.996094 8.695312 27.050781 7.75 25.882812 7.746094 Z M 27.148438 23.304688 C 27.144531 24 26.578125 24.566406 25.882812 24.566406 L 2.117188 24.566406 C 1.417969 24.566406 0.851562 24 0.851562 23.304688 L 0.851562 9.859375 C 0.851562 9.164062 1.417969 8.597656 2.117188 8.59375 L 25.882812 8.59375 C 26.582031 8.597656 27.148438 9.164062 27.148438 9.859375 Z M 27.148438 23.304688 "/>
<path style=" stroke:none;fill-rule:nonzero;fill:rgb(0%,0%,0%);fill-opacity:1;" d="M 25.3125 11.222656 L 25.289062 11.199219 C 24.625 10.535156 23.550781 10.535156 22.886719 11.199219 C 22.886719 11.199219 22.882812 11.199219 22.882812 11.199219 C 22.21875 11.863281 22.21875 12.941406 22.882812 13.605469 C 23.570312 14.25 24.648438 14.210938 25.292969 13.523438 C 25.894531 12.878906 25.902344 11.878906 25.3125 11.222656 Z M 24.703125 13.003906 C 24.367188 13.339844 23.828125 13.339844 23.496094 13.003906 C 23.1875 12.648438 23.226562 12.109375 23.585938 11.800781 C 23.90625 11.527344 24.378906 11.527344 24.699219 11.800781 L 24.714844 11.820312 C 25.027344 12.15625 25.019531 12.671875 24.699219 12.996094 Z M 24.703125 13.003906 "/>
<path style=" stroke:none;fill-rule:nonzero;fill:rgb(0%,0%,0%);fill-opacity:1;" d="M 24.988281 15.492188 C 24.75 15.253906 24.425781 15.117188 24.085938 15.117188 C 23.382812 15.117188 22.808594 15.691406 22.8125 16.394531 C 22.8125 17.101562 23.382812 17.671875 24.089844 17.671875 C 24.792969 17.671875 25.363281 17.097656 25.363281 16.394531 C 25.363281 16.054688 25.230469 15.730469 24.988281 15.492188 Z M 24.386719 16.695312 L 24.382812 16.699219 C 24.214844 16.867188 23.945312 16.867188 23.777344 16.699219 C 23.609375 16.535156 23.609375 16.265625 23.773438 16.097656 C 23.941406 15.929688 24.210938 15.929688 24.378906 16.09375 C 24.460938 16.175781 24.507812 16.289062 24.503906 16.402344 C 24.503906 16.511719 24.460938 16.617188 24.386719 16.695312 Z M 24.386719 16.695312 "/>
</g>
</svg>
