<?xml version="1.0" encoding="UTF-8"?>
<svg xmlns="http://www.w3.org/2000/svg" xmlns:xlink="http://www.w3.org/1999/xlink" width="28pt" height="28pt" viewBox="0 0 28 28" version="1.1">
<g id="surface1">
<path style=" stroke:none;fill-rule:nonzero;fill:rgb(0%,0%,0%);fill-opacity:1;" d="M 26.234375 4.566406 L 17.496094 4.566406 C 17.429688 4.132812 17.28125 3.722656 17.070312 3.355469 L 24.363281 1.070312 C 24.652344 0.980469 24.8125 0.671875 24.722656 0.382812 C 24.632812 0.09375 24.328125 -0.0664062 24.039062 0.0234375 L 16.320312 2.445312 C 15.699219 1.902344 14.886719 1.574219 14 1.574219 C 13.113281 1.574219 12.300781 1.902344 11.679688 2.445312 L 3.960938 0.0234375 C 3.671875 -0.0664062 3.367188 0.09375 3.277344 0.382812 C 3.183594 0.671875 3.347656 0.980469 3.632812 1.070312 L 10.929688 3.355469 C 10.71875 3.722656 10.570312 4.132812 10.5 4.566406 L 1.765625 4.566406 C 0.855469 4.566406 0.117188 5.304688 0.117188 6.214844 L 0.117188 24.746094 C 0.117188 25.65625 0.855469 26.394531 1.765625 26.394531 L 2.027344 26.394531 L 2.027344 27.453125 C 2.027344 27.753906 2.273438 28 2.574219 28 C 2.878906 28 3.121094 27.753906 3.121094 27.453125 L 3.121094 26.394531 L 24.875 26.394531 L 24.875 27.453125 C 24.875 27.753906 25.121094 28 25.425781 28 C 25.726562 28 25.972656 27.753906 25.972656 27.453125 L 25.972656 26.394531 L 26.234375 26.394531 C 27.144531 26.394531 27.882812 25.65625 27.882812 24.746094 L 27.882812 6.214844 C 27.882812 5.304688 27.144531 4.566406 26.234375 4.566406 Z M 14 2.667969 C 15.160156 2.667969 16.132812 3.480469 16.382812 4.566406 L 11.617188 4.566406 C 11.867188 3.480469 12.839844 2.667969 14 2.667969 Z M 26.789062 24.746094 C 26.789062 25.050781 26.539062 25.300781 26.234375 25.300781 L 1.765625 25.300781 C 1.460938 25.300781 1.210938 25.050781 1.210938 24.746094 L 1.210938 6.214844 C 1.210938 5.910156 1.460938 5.660156 1.765625 5.660156 L 26.234375 5.660156 C 26.539062 5.660156 26.789062 5.910156 26.789062 6.214844 Z M 26.789062 24.746094 "/>
<path style=" stroke:none;fill-rule:nonzero;fill:rgb(0%,0%,0%);fill-opacity:1;" d="M 25.328125 7.570312 C 25.285156 7.324219 25.082031 7.136719 24.835938 7.117188 C 17.644531 6.511719 10.355469 6.511719 3.164062 7.117188 C 2.917969 7.136719 2.714844 7.324219 2.671875 7.570312 C 1.800781 12.648438 1.800781 17.800781 2.671875 22.882812 C 2.714844 23.125 2.917969 23.3125 3.164062 23.335938 C 6.757812 23.636719 10.378906 23.789062 14 23.789062 C 17.621094 23.789062 21.238281 23.636719 24.835938 23.335938 C 25.082031 23.3125 25.285156 23.125 25.328125 22.882812 C 26.199219 17.800781 26.199219 12.648438 25.328125 7.570312 Z M 24.320312 22.277344 C 17.46875 22.832031 10.53125 22.832031 3.679688 22.277344 C 2.925781 17.597656 2.925781 12.855469 3.679688 8.171875 C 10.53125 7.617188 17.46875 7.617188 24.320312 8.171875 C 25.074219 12.855469 25.074219 17.597656 24.320312 22.277344 Z M 24.320312 22.277344 "/>
<path style=" stroke:none;fill-rule:nonzero;fill:rgb(0%,0%,0%);fill-opacity:1;" d="M 23.441406 12.3125 C 23.136719 12.332031 22.90625 12.589844 22.921875 12.890625 C 23.03125 14.8125 23.003906 16.757812 22.847656 18.675781 C 22.820312 18.980469 23.046875 19.242188 23.347656 19.269531 C 23.363281 19.269531 23.378906 19.269531 23.394531 19.269531 C 23.675781 19.269531 23.914062 19.054688 23.9375 18.765625 C 24.097656 16.796875 24.125 14.800781 24.015625 12.832031 C 24 12.527344 23.742188 12.296875 23.441406 12.3125 Z M 23.441406 12.3125 "/>
<path style=" stroke:none;fill-rule:nonzero;fill:rgb(0%,0%,0%);fill-opacity:1;" d="M 23.335938 11.652344 C 23.355469 11.652344 23.371094 11.652344 23.390625 11.652344 C 23.691406 11.621094 23.910156 11.355469 23.882812 11.054688 C 23.828125 10.492188 23.761719 9.921875 23.683594 9.363281 C 23.644531 9.0625 23.367188 8.851562 23.066406 8.894531 C 22.769531 8.933594 22.558594 9.210938 22.597656 9.511719 C 22.675781 10.058594 22.738281 10.613281 22.792969 11.160156 C 22.820312 11.441406 23.058594 11.652344 23.335938 11.652344 Z M 23.335938 11.652344 "/>
<path style=" stroke:none;fill-rule:nonzero;fill:rgb(0%,0%,0%);fill-opacity:1;" d="M 26.105469 23.785156 C 25.6875 23.507812 25.132812 23.917969 25.28125 24.398438 C 25.347656 24.617188 25.546875 24.777344 25.777344 24.789062 C 26.015625 24.800781 26.238281 24.648438 26.320312 24.425781 C 26.402344 24.191406 26.3125 23.921875 26.105469 23.785156 Z M 26.105469 23.785156 "/>
</g>
</svg>
