<?xml version="1.0" encoding="UTF-8"?>
<svg xmlns="http://www.w3.org/2000/svg" xmlns:xlink="http://www.w3.org/1999/xlink" width="28pt" height="28pt" viewBox="0 0 28 28" version="1.1">
<g id="surface1">
<path style=" stroke:none;fill-rule:nonzero;fill:rgb(0%,0%,0%);fill-opacity:1;" d="M 14 0 C 6.28125 0 0 6.28125 0 14 C 0 21.71875 6.28125 28 14 28 C 21.71875 28 28 21.71875 28 14 C 28 6.28125 21.71875 0 14 0 Z M 14 26.832031 C 6.921875 26.832031 1.167969 21.078125 1.167969 14 C 1.167969 6.921875 6.921875 1.167969 14 1.167969 C 21.078125 1.167969 26.832031 6.921875 26.832031 14 C 26.832031 21.078125 21.078125 26.832031 14 26.832031 Z M 14 26.832031 "/>
<path style=" stroke:none;fill-rule:nonzero;fill:rgb(0%,0%,0%);fill-opacity:1;" d="M 16.746094 7.171875 C 16.519531 6.941406 16.148438 6.941406 15.921875 7.171875 L 9.503906 13.585938 C 9.277344 13.816406 9.277344 14.183594 9.503906 14.414062 L 15.921875 20.828125 C 16.035156 20.941406 16.183594 21 16.332031 21 C 16.484375 21 16.632812 20.941406 16.746094 20.828125 C 16.972656 20.601562 16.972656 20.230469 16.746094 20.003906 L 10.742188 14 L 16.746094 7.996094 C 16.972656 7.769531 16.972656 7.398438 16.746094 7.171875 Z M 16.746094 7.171875 "/>
</g>
</svg>
