<?xml version="1.0" encoding="UTF-8"?>
<svg xmlns="http://www.w3.org/2000/svg" xmlns:xlink="http://www.w3.org/1999/xlink" width="28pt" height="28pt" viewBox="0 0 28 28" version="1.1">
<g id="surface1">
<path style=" stroke:none;fill-rule:nonzero;fill:rgb(0%,0%,0%);fill-opacity:1;" d="M 21.6875 0 L 6.3125 0 C 2.832031 0 0 2.832031 0 6.3125 L 0 21.6875 C 0 25.167969 2.832031 28 6.3125 28 L 21.6875 28 C 25.167969 28 28 25.167969 28 21.6875 L 28 6.3125 C 28 2.832031 25.167969 0 21.6875 0 Z M 26.964844 21.6875 C 26.964844 24.597656 24.597656 26.964844 21.6875 26.964844 L 6.3125 26.964844 C 3.402344 26.964844 1.035156 24.597656 1.035156 21.6875 L 1.035156 6.3125 C 1.035156 3.402344 3.402344 1.035156 6.3125 1.035156 L 21.6875 1.035156 C 24.597656 1.035156 26.964844 3.402344 26.964844 6.3125 Z M 26.964844 21.6875 "/>
<path style=" stroke:none;fill-rule:nonzero;fill:rgb(0%,0%,0%);fill-opacity:1;" d="M 22.230469 4.597656 L 10.820312 6.078125 C 10.5625 6.113281 10.371094 6.332031 10.371094 6.59375 L 10.371094 19.046875 C 9.660156 18.359375 8.644531 17.925781 7.519531 17.925781 C 5.375 17.925781 3.628906 19.488281 3.628906 21.40625 C 3.628906 23.328125 5.375 24.890625 7.519531 24.890625 C 9.664062 24.890625 11.40625 23.328125 11.40625 21.40625 L 11.40625 10.824219 L 21.777344 9.480469 L 21.777344 15.707031 C 21.074219 15.023438 20.074219 14.59375 18.960938 14.59375 C 16.839844 14.59375 15.109375 16.15625 15.109375 18.074219 C 15.109375 19.992188 16.839844 21.554688 18.960938 21.554688 C 21.085938 21.554688 22.816406 19.992188 22.816406 18.074219 L 22.816406 5.109375 C 22.816406 4.960938 22.75 4.820312 22.636719 4.722656 C 22.527344 4.625 22.375 4.578125 22.230469 4.597656 Z M 7.519531 23.851562 C 5.945312 23.851562 4.667969 22.753906 4.667969 21.40625 C 4.667969 20.058594 5.945312 18.960938 7.519531 18.960938 C 9.089844 18.960938 10.371094 20.058594 10.371094 21.40625 C 10.371094 22.753906 9.089844 23.851562 7.519531 23.851562 Z M 11.40625 9.78125 L 11.40625 7.046875 L 21.777344 5.703125 L 21.777344 8.433594 Z M 18.960938 20.519531 C 17.410156 20.519531 16.148438 19.421875 16.148438 18.074219 C 16.148438 16.726562 17.410156 15.628906 18.960938 15.628906 C 20.515625 15.628906 21.777344 16.726562 21.777344 18.074219 C 21.777344 19.421875 20.515625 20.519531 18.960938 20.519531 Z M 18.960938 20.519531 "/>
</g>
</svg>
