<?xml version="1.0" encoding="UTF-8"?>
<svg xmlns="http://www.w3.org/2000/svg" xmlns:xlink="http://www.w3.org/1999/xlink" width="28pt" height="28pt" viewBox="0 0 28 28" version="1.1">
<g id="surface1">
<path style=" stroke:none;fill-rule:nonzero;fill:rgb(0%,0%,0%);fill-opacity:1;" d="M 26.628906 6.167969 L 26.628906 0.792969 C 26.628906 0.539062 26.507812 0.300781 26.308594 0.152344 C 26.101562 0.0078125 25.835938 -0.0390625 25.597656 0.0351562 L 9.585938 5.125 C 9.257812 5.230469 9.035156 5.535156 9.035156 5.878906 L 9.035156 21.550781 C 8.195312 20.972656 7.121094 20.652344 5.992188 20.652344 C 4.804688 20.652344 3.671875 21.011719 2.808594 21.65625 C 1.882812 22.355469 1.371094 23.300781 1.371094 24.328125 C 1.371094 25.355469 1.882812 26.296875 2.808594 26.996094 C 3.671875 27.640625 4.796875 28 5.992188 28 C 7.191406 28 8.316406 27.640625 9.179688 26.996094 C 10.105469 26.296875 10.617188 25.355469 10.617188 24.328125 L 10.617188 11.839844 L 25.046875 7.253906 L 25.046875 16.441406 C 24.207031 15.859375 23.132812 15.542969 22.007812 15.542969 C 20.816406 15.542969 19.683594 15.902344 18.820312 16.546875 C 17.894531 17.246094 17.382812 18.191406 17.382812 19.214844 C 17.382812 20.242188 17.894531 21.1875 18.820312 21.886719 C 19.683594 22.53125 20.808594 22.890625 22.007812 22.890625 C 23.203125 22.890625 24.328125 22.53125 25.191406 21.886719 C 26.117188 21.1875 26.628906 20.242188 26.628906 19.214844 L 26.628906 6.171875 C 26.628906 6.167969 26.628906 6.167969 26.628906 6.167969 Z M 5.992188 26.414062 C 4.34375 26.414062 2.953125 25.460938 2.953125 24.328125 C 2.953125 23.195312 4.34375 22.238281 5.992188 22.238281 C 7.644531 22.238281 9.035156 23.195312 9.035156 24.328125 C 9.035156 25.464844 7.644531 26.414062 5.992188 26.414062 Z M 10.617188 10.175781 L 10.617188 6.453125 L 25.046875 1.871094 L 25.046875 5.59375 Z M 22.011719 21.304688 C 20.363281 21.304688 18.972656 20.347656 18.972656 19.214844 C 18.972656 18.085938 20.363281 17.128906 22.011719 17.128906 C 23.660156 17.128906 25.050781 18.085938 25.050781 19.214844 C 25.046875 20.347656 23.65625 21.304688 22.011719 21.304688 Z M 22.011719 21.304688 "/>
</g>
</svg>
