<?xml version="1.0" encoding="UTF-8"?>
<svg xmlns="http://www.w3.org/2000/svg" xmlns:xlink="http://www.w3.org/1999/xlink" width="28pt" height="28pt" viewBox="0 0 28 28" version="1.1">
<g id="surface1">
<path style=" stroke:none;fill-rule:nonzero;fill:rgb(0%,0%,0%);fill-opacity:1;" d="M 26.542969 5.792969 C 26.367188 5.4375 25.835938 5.4375 25.484375 5.613281 C 25.308594 5.613281 23.371094 6.496094 20.550781 3.5 C 16.320312 -1.082031 11.738281 0.152344 11.5625 0.152344 C 11.207031 0.328125 10.855469 0.679688 10.855469 1.03125 L 10.855469 4.910156 C 10.855469 4.910156 10.855469 5.085938 10.855469 5.261719 L 10.855469 18.621094 C 10.117188 18.195312 9.214844 17.953125 8.210938 17.953125 C 7.15625 17.953125 5.921875 18.304688 4.863281 18.835938 C 1.867188 20.421875 0.457031 23.417969 1.515625 25.707031 C 2.21875 27.117188 3.804688 28 5.746094 28 C 6.800781 28 7.859375 27.824219 9.09375 27.117188 C 10.503906 26.414062 11.5625 25.355469 12.265625 24.121094 C 12.578125 23.5 12.730469 22.914062 12.78125 22.34375 L 12.972656 22.535156 L 12.972656 5.792969 C 13.851562 5.613281 16.144531 5.613281 18.433594 7.730469 C 19.84375 9.140625 21.253906 9.667969 22.839844 9.492188 C 25.132812 9.140625 26.71875 7.023438 26.71875 6.847656 C 26.894531 6.496094 26.894531 6.144531 26.542969 5.792969 Z M 10.679688 23.59375 C 10.152344 24.476562 9.269531 25.355469 8.210938 25.886719 C 6.273438 26.765625 3.804688 26.589844 3.101562 25.179688 C 2.394531 23.769531 3.453125 21.65625 5.566406 20.597656 C 6.273438 20.070312 7.15625 19.890625 8.035156 19.890625 C 9.269531 19.890625 10.328125 20.421875 10.855469 21.300781 C 11.207031 22.007812 11.03125 22.710938 10.679688 23.59375 Z M 22.488281 7.554688 C 21.429688 7.730469 20.550781 7.203125 19.492188 6.320312 C 17.378906 4.382812 15.261719 3.851562 13.675781 3.851562 C 13.324219 3.851562 12.972656 3.851562 12.792969 3.851562 L 12.792969 1.5625 C 14.027344 1.5625 16.671875 1.738281 19.316406 4.558594 C 20.726562 6.144531 22.136719 6.847656 23.371094 7.203125 C 23.195312 7.378906 22.839844 7.554688 22.488281 7.554688 Z M 22.488281 7.554688 "/>
</g>
</svg>
