<?xml version="1.0" encoding="UTF-8"?>
<svg xmlns="http://www.w3.org/2000/svg" xmlns:xlink="http://www.w3.org/1999/xlink" width="28pt" height="28pt" viewBox="0 0 28 28" version="1.1">
<g id="surface1">
<path style=" stroke:none;fill-rule:nonzero;fill:rgb(0%,0%,0%);fill-opacity:1;" d="M 27.066406 18.015625 L 27.066406 1.167969 C 27.066406 0.910156 26.859375 0.699219 26.601562 0.699219 L 0.464844 0.699219 C 0.210938 0.699219 0 0.910156 0 1.167969 L 0 23.101562 C 0 23.359375 0.210938 23.566406 0.464844 23.566406 L 16.335938 23.566406 C 17.25 25.757812 19.414062 27.300781 21.933594 27.300781 C 25.277344 27.300781 28 24.578125 28 21.234375 C 28 20.050781 27.65625 18.949219 27.066406 18.015625 Z M 16.035156 22.632812 L 0.933594 22.632812 L 0.933594 1.632812 L 26.132812 1.632812 L 26.132812 16.855469 C 26.054688 16.78125 25.96875 16.710938 25.886719 16.640625 C 25.84375 16.605469 25.804688 16.566406 25.761719 16.535156 C 25.652344 16.445312 25.539062 16.359375 25.421875 16.277344 C 25.378906 16.25 25.339844 16.214844 25.296875 16.1875 C 25.179688 16.109375 25.0625 16.042969 24.941406 15.972656 C 24.890625 15.945312 24.84375 15.914062 24.792969 15.886719 C 24.679688 15.824219 24.5625 15.769531 24.445312 15.71875 C 24.382812 15.6875 24.320312 15.65625 24.257812 15.632812 C 24.148438 15.585938 24.035156 15.546875 23.925781 15.507812 C 23.851562 15.484375 23.777344 15.453125 23.703125 15.429688 C 23.59375 15.398438 23.480469 15.375 23.371094 15.347656 C 23.289062 15.328125 23.210938 15.300781 23.128906 15.285156 C 23.007812 15.261719 22.886719 15.246094 22.765625 15.230469 C 22.6875 15.21875 22.613281 15.203125 22.539062 15.199219 C 22.339844 15.175781 22.136719 15.167969 21.933594 15.167969 C 20.910156 15.167969 19.949219 15.421875 19.101562 15.871094 C 19.121094 15.75 19.132812 15.625 19.132812 15.5 L 19.132812 5.832031 C 19.132812 5.699219 19.074219 5.570312 18.972656 5.480469 C 18.875 5.394531 18.738281 5.351562 18.605469 5.371094 L 10.207031 6.476562 C 9.972656 6.503906 9.800781 6.703125 9.800781 6.9375 L 9.800781 16.007812 C 9.253906 15.53125 8.515625 15.238281 7.699219 15.238281 C 6.027344 15.238281 4.667969 16.46875 4.667969 17.984375 C 4.667969 19.5 6.027344 20.734375 7.699219 20.734375 C 9.371094 20.734375 10.734375 19.5 10.734375 17.984375 L 10.734375 9.679688 L 18.199219 8.699219 L 18.199219 13.554688 C 17.671875 13.101562 16.960938 12.824219 16.179688 12.824219 C 14.554688 12.824219 13.230469 14.023438 13.230469 15.5 C 13.230469 16.976562 14.554688 18.175781 16.179688 18.175781 C 16.367188 18.175781 16.550781 18.160156 16.730469 18.128906 C 16.1875 19.039062 15.867188 20.097656 15.867188 21.234375 C 15.867188 21.464844 15.882812 21.6875 15.90625 21.914062 C 15.910156 21.949219 15.917969 21.980469 15.921875 22.015625 C 15.949219 22.21875 15.984375 22.414062 16.027344 22.605469 C 16.03125 22.613281 16.03125 22.625 16.035156 22.632812 Z M 10.734375 8.59375 L 10.734375 7.347656 L 18.199219 6.367188 L 18.199219 7.757812 L 10.734375 8.738281 Z M 16.179688 17.242188 C 15.066406 17.242188 14.160156 16.460938 14.160156 15.5 C 14.160156 14.539062 15.066406 13.757812 16.179688 13.757812 C 17.292969 13.757812 18.199219 14.539062 18.199219 15.5 C 18.199219 16.460938 17.292969 17.242188 16.179688 17.242188 Z M 9.800781 17.984375 C 9.800781 18.988281 8.859375 19.800781 7.699219 19.800781 C 6.542969 19.800781 5.601562 18.988281 5.601562 17.984375 C 5.601562 16.984375 6.542969 16.171875 7.699219 16.171875 C 8.859375 16.171875 9.800781 16.984375 9.800781 17.984375 Z M 21.933594 26.367188 C 19.699219 26.367188 17.800781 24.929688 17.09375 22.933594 C 17.050781 22.808594 17.011719 22.683594 16.980469 22.558594 C 16.972656 22.53125 16.964844 22.503906 16.957031 22.476562 C 16.929688 22.363281 16.90625 22.253906 16.886719 22.140625 C 16.875 22.078125 16.867188 22.015625 16.855469 21.953125 C 16.84375 21.871094 16.832031 21.785156 16.824219 21.703125 C 16.808594 21.546875 16.800781 21.390625 16.800781 21.234375 C 16.800781 18.402344 19.101562 16.101562 21.933594 16.101562 C 22.132812 16.101562 22.328125 16.113281 22.523438 16.136719 C 22.582031 16.144531 22.640625 16.15625 22.699219 16.164062 C 22.835938 16.183594 22.96875 16.207031 23.101562 16.238281 C 23.167969 16.253906 23.234375 16.273438 23.296875 16.289062 C 23.421875 16.324219 23.546875 16.363281 23.667969 16.40625 C 23.730469 16.429688 23.792969 16.453125 23.855469 16.476562 C 23.992188 16.53125 24.125 16.59375 24.257812 16.664062 C 24.296875 16.683594 24.335938 16.699219 24.375 16.71875 C 24.535156 16.804688 24.6875 16.902344 24.839844 17.003906 C 24.898438 17.046875 24.957031 17.09375 25.015625 17.140625 C 25.109375 17.207031 25.203125 17.28125 25.289062 17.359375 C 25.347656 17.410156 25.40625 17.460938 25.464844 17.515625 C 25.554688 17.601562 25.640625 17.691406 25.722656 17.785156 C 25.769531 17.832031 25.8125 17.878906 25.855469 17.929688 C 25.976562 18.074219 26.09375 18.222656 26.199219 18.382812 C 26.746094 19.199219 27.066406 20.179688 27.066406 21.234375 C 27.066406 24.0625 24.761719 26.367188 21.933594 26.367188 Z M 21.933594 26.367188 "/>
<path style=" stroke:none;fill-rule:nonzero;fill:rgb(0%,0%,0%);fill-opacity:1;" d="M 24.734375 20.765625 L 22.398438 20.765625 L 22.398438 18.433594 C 22.398438 18.175781 22.191406 17.964844 21.933594 17.964844 C 21.675781 17.964844 21.464844 18.175781 21.464844 18.433594 L 21.464844 20.765625 L 19.132812 20.765625 C 18.875 20.765625 18.667969 20.976562 18.667969 21.234375 C 18.667969 21.492188 18.875 21.699219 19.132812 21.699219 L 21.464844 21.699219 L 21.464844 24.035156 C 21.464844 24.292969 21.675781 24.5 21.933594 24.5 C 22.191406 24.5 22.398438 24.292969 22.398438 24.035156 L 22.398438 21.699219 L 24.734375 21.699219 C 24.992188 21.699219 25.199219 21.492188 25.199219 21.234375 C 25.199219 20.976562 24.992188 20.765625 24.734375 20.765625 Z M 24.734375 20.765625 "/>
</g>
</svg>
