<?xml version="1.0" encoding="UTF-8"?>
<svg xmlns="http://www.w3.org/2000/svg" xmlns:xlink="http://www.w3.org/1999/xlink" width="28pt" height="28pt" viewBox="0 0 28 28" version="1.1">
<g id="surface1">
<path style=" stroke:none;fill-rule:nonzero;fill:rgb(0%,0%,0%);fill-opacity:1;" d="M 21.777344 12.90625 L 9.316406 0.449219 C 9.03125 0.160156 8.644531 0 8.234375 0 C 7.824219 0 7.441406 0.160156 7.152344 0.449219 L 6.234375 1.363281 C 5.636719 1.960938 5.636719 2.933594 6.234375 3.53125 L 16.699219 13.996094 L 6.222656 24.46875 C 5.933594 24.757812 5.773438 25.140625 5.773438 25.550781 C 5.773438 25.960938 5.933594 26.347656 6.222656 26.636719 L 7.140625 27.550781 C 7.429688 27.839844 7.8125 28 8.222656 28 C 8.632812 28 9.019531 27.839844 9.304688 27.550781 L 21.777344 15.082031 C 22.066406 14.792969 22.226562 14.40625 22.226562 13.996094 C 22.226562 13.582031 22.066406 13.195312 21.777344 12.90625 Z M 21.777344 12.90625 "/>
</g>
</svg>
