<?xml version="1.0" encoding="UTF-8"?>
<svg xmlns="http://www.w3.org/2000/svg" xmlns:xlink="http://www.w3.org/1999/xlink" width="28pt" height="28pt" viewBox="0 0 28 28" version="1.1">
<g id="surface1">
<path style=" stroke:none;fill-rule:nonzero;fill:rgb(0%,0%,0%);fill-opacity:1;" d="M 15.285156 1.835938 C 14.761719 1.539062 14.140625 1.550781 13.625 1.859375 C 13.597656 1.875 13.574219 1.890625 13.554688 1.910156 L 6.261719 8.078125 L 0.539062 8.078125 C 0.242188 8.078125 0 8.320312 0 8.617188 L 0 18.84375 C 0 18.988281 0.0546875 19.125 0.15625 19.222656 C 0.257812 19.324219 0.394531 19.382812 0.539062 19.382812 L 6.25 19.378906 L 13.539062 26.074219 C 13.5625 26.097656 13.59375 26.121094 13.625 26.140625 C 13.886719 26.296875 14.183594 26.378906 14.476562 26.378906 C 14.753906 26.378906 15.03125 26.308594 15.285156 26.164062 C 15.824219 25.859375 16.144531 25.304688 16.144531 24.679688 L 16.144531 3.320312 C 16.144531 2.695312 15.824219 2.140625 15.285156 1.835938 Z M 15.070312 24.679688 C 15.070312 24.910156 14.953125 25.117188 14.757812 25.226562 C 14.675781 25.273438 14.460938 25.363281 14.21875 25.238281 L 6.996094 18.605469 L 6.996094 16.152344 C 6.996094 15.855469 6.757812 15.613281 6.457031 15.613281 C 6.160156 15.613281 5.921875 15.855469 5.921875 16.152344 L 5.921875 18.304688 L 1.078125 18.304688 L 1.078125 9.15625 L 5.921875 9.15625 L 5.921875 11.308594 C 5.921875 11.605469 6.160156 11.847656 6.457031 11.847656 C 6.757812 11.847656 6.996094 11.605469 6.996094 11.308594 L 6.996094 8.867188 L 14.210938 2.765625 C 14.460938 2.632812 14.671875 2.726562 14.757812 2.773438 C 14.953125 2.882812 15.070312 3.089844 15.070312 3.320312 Z M 15.070312 24.679688 "/>
<path style=" stroke:none;fill-rule:nonzero;fill:rgb(0%,0%,0%);fill-opacity:1;" d="M 20.878906 3.804688 C 20.597656 3.707031 20.292969 3.859375 20.199219 4.140625 C 20.101562 4.421875 20.253906 4.726562 20.535156 4.824219 C 24.355469 6.121094 26.921875 9.699219 26.921875 13.730469 C 26.921875 17.757812 24.359375 21.339844 20.546875 22.640625 C 20.265625 22.738281 20.113281 23.042969 20.210938 23.324219 C 20.289062 23.546875 20.496094 23.6875 20.71875 23.6875 C 20.777344 23.6875 20.835938 23.679688 20.894531 23.660156 C 25.144531 22.210938 28 18.21875 28 13.730469 C 28 9.238281 25.140625 5.25 20.878906 3.804688 Z M 20.878906 3.804688 "/>
<path style=" stroke:none;fill-rule:nonzero;fill:rgb(0%,0%,0%);fill-opacity:1;" d="M 23.15625 13.730469 C 23.15625 10.515625 21 7.648438 17.910156 6.753906 C 17.621094 6.671875 17.324219 6.835938 17.242188 7.121094 C 17.160156 7.410156 17.324219 7.707031 17.609375 7.789062 C 20.242188 8.550781 22.082031 10.992188 22.082031 13.730469 C 22.082031 16.46875 20.242188 18.910156 17.609375 19.671875 C 17.324219 19.753906 17.160156 20.054688 17.242188 20.339844 C 17.3125 20.574219 17.527344 20.726562 17.761719 20.726562 C 17.808594 20.726562 17.859375 20.722656 17.910156 20.707031 C 21 19.8125 23.15625 16.945312 23.15625 13.730469 Z M 23.15625 13.730469 "/>
</g>
</svg>
