<?xml version="1.0" encoding="UTF-8"?>
<svg xmlns="http://www.w3.org/2000/svg" xmlns:xlink="http://www.w3.org/1999/xlink" width="28pt" height="28pt" viewBox="0 0 28 28" version="1.1">
<g id="surface1">
<path style=" stroke:none;fill-rule:nonzero;fill:rgb(0%,0%,0%);fill-opacity:1;" d="M 12.714844 24.484375 C 12.644531 24.417969 12.558594 24.371094 12.460938 24.359375 L 11.4375 24.199219 L 10.972656 23.210938 C 10.867188 22.980469 10.59375 22.882812 10.363281 22.988281 C 10.265625 23.035156 10.1875 23.113281 10.140625 23.210938 L 9.679688 24.199219 L 8.652344 24.359375 C 8.402344 24.398438 8.230469 24.628906 8.269531 24.882812 C 8.28125 24.976562 8.324219 25.0625 8.394531 25.132812 L 9.148438 25.910156 L 8.96875 27.011719 C 8.929688 27.261719 9.097656 27.496094 9.347656 27.539062 C 9.449219 27.554688 9.554688 27.535156 9.644531 27.488281 L 10.558594 26.980469 L 11.46875 27.488281 C 11.691406 27.609375 11.972656 27.53125 12.09375 27.308594 C 12.144531 27.21875 12.160156 27.113281 12.144531 27.011719 L 11.964844 25.910156 L 12.722656 25.132812 C 12.898438 24.949219 12.894531 24.660156 12.714844 24.484375 Z M 11.148438 25.433594 C 11.046875 25.539062 11 25.683594 11.023438 25.828125 L 11.085938 26.226562 L 10.78125 26.054688 C 10.640625 25.980469 10.472656 25.980469 10.335938 26.054688 L 10.027344 26.226562 L 10.09375 25.828125 C 10.117188 25.683594 10.070312 25.539062 9.96875 25.433594 L 9.671875 25.128906 L 10.058594 25.070312 C 10.210938 25.046875 10.339844 24.949219 10.40625 24.8125 L 10.558594 24.492188 L 10.707031 24.8125 C 10.773438 24.949219 10.902344 25.046875 11.054688 25.070312 L 11.441406 25.128906 Z M 11.148438 25.433594 "/>
<path style=" stroke:none;fill-rule:nonzero;fill:rgb(0%,0%,0%);fill-opacity:1;" d="M 18.679688 22.429688 C 18.613281 22.363281 18.523438 22.320312 18.429688 22.304688 L 16.769531 22.050781 L 16.023438 20.457031 C 15.914062 20.230469 15.640625 20.128906 15.410156 20.238281 C 15.316406 20.285156 15.238281 20.363281 15.191406 20.457031 L 14.445312 22.050781 L 12.78125 22.304688 C 12.53125 22.34375 12.359375 22.578125 12.398438 22.828125 C 12.414062 22.921875 12.457031 23.011719 12.523438 23.078125 L 13.738281 24.324219 L 13.453125 26.089844 C 13.410156 26.339844 13.582031 26.574219 13.832031 26.617188 C 13.933594 26.632812 14.035156 26.613281 14.125 26.5625 L 15.605469 25.742188 L 17.085938 26.5625 C 17.308594 26.6875 17.585938 26.605469 17.710938 26.386719 C 17.761719 26.296875 17.78125 26.1875 17.765625 26.085938 L 17.472656 24.324219 L 18.6875 23.078125 C 18.867188 22.898438 18.863281 22.605469 18.679688 22.429688 Z M 16.65625 23.847656 C 16.554688 23.949219 16.507812 24.097656 16.53125 24.242188 L 16.703125 25.300781 L 15.828125 24.816406 C 15.691406 24.742188 15.523438 24.742188 15.382812 24.816406 L 14.507812 25.300781 L 14.683594 24.242188 C 14.707031 24.097656 14.660156 23.949219 14.558594 23.847656 L 13.804688 23.074219 L 14.824219 22.917969 C 14.976562 22.894531 15.105469 22.800781 15.171875 22.660156 L 15.605469 21.734375 L 16.042969 22.660156 C 16.105469 22.800781 16.238281 22.894531 16.386719 22.917969 L 17.40625 23.074219 Z M 16.65625 23.847656 "/>
<path style=" stroke:none;fill-rule:nonzero;fill:rgb(0%,0%,0%);fill-opacity:1;" d="M 27.539062 2.75 L 25.4375 2.75 L 26.8125 1.375 L 27.539062 1.375 C 27.792969 1.375 28 1.167969 28 0.914062 C 28 0.660156 27.792969 0.457031 27.539062 0.457031 L 0.460938 0.457031 C 0.207031 0.457031 0 0.660156 0 0.914062 C 0 1.167969 0.207031 1.375 0.460938 1.375 L 2.5625 1.375 L 1.1875 2.75 L 0.460938 2.75 C 0.207031 2.75 0 2.957031 0 3.210938 C 0 3.460938 0.207031 3.667969 0.460938 3.667969 L 1.855469 3.667969 L 1.835938 5.421875 L 1 6.296875 C 0.238281 7.09375 0.269531 8.359375 1.066406 9.125 L 2.9375 10.914062 C 3.023438 10.996094 3.136719 11.039062 3.253906 11.042969 L 3.265625 11.042969 C 3.320312 11.039062 3.375 11.027344 3.425781 11.003906 L 8.542969 18.355469 L 5.992188 26.011719 C 5.910156 26.253906 6.039062 26.515625 6.28125 26.59375 C 6.523438 26.675781 6.78125 26.542969 6.863281 26.304688 L 9.199219 19.296875 L 10.640625 21.371094 C 10.785156 21.578125 11.070312 21.628906 11.28125 21.484375 C 11.488281 21.339844 11.539062 21.054688 11.394531 20.847656 L 9.558594 18.210938 L 12.367188 9.777344 C 12.382812 9.734375 12.390625 9.683594 12.386719 9.636719 L 15.152344 9.636719 C 15.148438 9.6875 15.15625 9.742188 15.175781 9.792969 L 17.171875 15.320312 L 15.230469 18.09375 C 15.078125 18.296875 15.121094 18.585938 15.324219 18.734375 C 15.527344 18.886719 15.816406 18.847656 15.964844 18.644531 C 15.972656 18.636719 15.976562 18.628906 15.984375 18.621094 L 17.554688 16.375 L 21.140625 26.316406 C 21.207031 26.496094 21.378906 26.621094 21.574219 26.621094 C 21.628906 26.621094 21.679688 26.609375 21.730469 26.589844 C 21.96875 26.503906 22.089844 26.242188 22.003906 26.003906 L 18.195312 15.457031 L 22.269531 9.636719 L 25.1875 10.636719 L 22.042969 23.296875 C 21.984375 23.542969 22.132812 23.789062 22.378906 23.851562 C 22.417969 23.859375 22.453125 23.863281 22.492188 23.863281 C 22.703125 23.863281 22.886719 23.722656 22.9375 23.515625 L 26.0625 10.925781 C 26.09375 10.933594 26.128906 10.941406 26.160156 10.941406 C 26.355469 10.941406 26.53125 10.816406 26.59375 10.632812 L 27.433594 8.179688 C 27.789062 7.136719 27.230469 6 26.1875 5.640625 L 26.164062 5.632812 L 26.164062 3.667969 L 27.539062 3.667969 C 27.792969 3.667969 28 3.460938 28 3.210938 C 28 2.957031 27.792969 2.75 27.539062 2.75 Z M 25.515625 1.375 L 24.328125 2.558594 L 23.140625 1.375 Z M 23.21875 2.75 L 20.847656 2.75 L 22.03125 1.5625 Z M 20.925781 1.375 L 19.738281 2.558594 L 18.550781 1.375 Z M 18.628906 2.75 L 16.253906 2.75 L 17.441406 1.5625 Z M 16.335938 1.375 L 15.148438 2.558594 L 13.960938 1.375 Z M 14.039062 2.75 L 11.664062 2.75 L 12.851562 1.5625 Z M 11.746094 1.375 L 10.558594 2.558594 L 9.371094 1.375 Z M 9.449219 2.75 L 7.074219 2.75 L 8.261719 1.5625 Z M 7.152344 1.375 L 5.96875 2.558594 L 4.78125 1.375 Z M 3.671875 1.5625 L 4.859375 2.75 L 2.484375 2.75 Z M 3.242188 9.933594 L 1.699219 8.460938 C 1.265625 8.046875 1.25 7.363281 1.664062 6.929688 L 2.707031 5.839844 C 2.90625 5.632812 3.175781 5.511719 3.464844 5.503906 L 3.488281 5.503906 C 3.765625 5.503906 4.035156 5.609375 4.234375 5.804688 L 5.777344 7.273438 Z M 8.90625 17.273438 L 4.097656 10.363281 L 6.003906 8.367188 L 10.769531 11.398438 C 10.796875 11.414062 10.824219 11.425781 10.851562 11.4375 Z M 11.453125 9.632812 L 11.144531 10.550781 L 6.652344 7.6875 L 6.757812 7.578125 C 6.933594 7.394531 6.925781 7.101562 6.742188 6.925781 L 4.871094 5.136719 C 4.488281 4.765625 3.972656 4.570312 3.441406 4.585938 C 3.210938 4.59375 2.980469 4.640625 2.761719 4.726562 L 2.773438 3.667969 L 13.3125 3.667969 L 13.3125 4.585938 L 13.015625 4.585938 C 11.914062 4.589844 11.019531 5.484375 11.015625 6.585938 L 11.015625 9.175781 C 11.015625 9.421875 11.207031 9.621094 11.453125 9.632812 Z M 15.605469 8.71875 L 11.933594 8.71875 L 11.933594 6.585938 C 11.933594 5.988281 12.417969 5.503906 13.015625 5.503906 L 14.523438 5.503906 C 15.121094 5.503906 15.605469 5.988281 15.605469 6.585938 Z M 22.222656 6.398438 L 21.382812 8.851562 C 21.34375 8.964844 21.351562 9.089844 21.40625 9.199219 C 21.410156 9.214844 21.421875 9.222656 21.429688 9.234375 L 17.816406 14.402344 L 16.09375 9.628906 C 16.335938 9.617188 16.523438 9.417969 16.523438 9.175781 L 16.523438 6.585938 C 16.523438 5.484375 15.628906 4.589844 14.523438 4.585938 L 14.230469 4.585938 L 14.230469 3.667969 L 25.246094 3.667969 L 25.246094 5.320312 L 24.761719 5.15625 C 23.714844 4.800781 22.582031 5.355469 22.222656 6.398438 Z M 26.566406 7.882812 L 25.878906 9.902344 L 22.398438 8.710938 L 23.089844 6.699219 C 23.28125 6.132812 23.894531 5.828125 24.460938 6.019531 C 24.464844 6.023438 24.464844 6.023438 24.464844 6.023438 L 25.894531 6.511719 C 26.457031 6.703125 26.757812 7.320312 26.566406 7.882812 Z M 26.566406 7.882812 "/>
</g>
</svg>
