<?xml version="1.0" encoding="UTF-8"?>
<svg xmlns="http://www.w3.org/2000/svg" xmlns:xlink="http://www.w3.org/1999/xlink" width="28px" height="28px" viewBox="0 0 28 28" version="1.1">
<g id="surface1">
<path style=" stroke:none;fill-rule:nonzero;fill:rgb(0%,0%,0%);fill-opacity:1;" d="M 21.773438 24.769531 C 21.773438 25.136719 21.753906 25.449219 21.714844 25.707031 C 21.675781 25.957031 21.617188 26.15625 21.539062 26.3125 C 21.472656 26.457031 21.394531 26.5625 21.304688 26.625 C 21.214844 26.691406 21.109375 26.726562 20.992188 26.726562 L 7.046875 26.726562 C 6.941406 26.726562 6.84375 26.691406 6.753906 26.625 C 6.664062 26.5625 6.578125 26.457031 6.5 26.3125 C 6.433594 26.15625 6.382812 25.957031 6.34375 25.707031 C 6.304688 25.449219 6.285156 25.136719 6.285156 24.769531 C 6.285156 24.394531 6.296875 24.082031 6.324219 23.832031 C 6.363281 23.574219 6.414062 23.363281 6.480469 23.207031 C 6.558594 23.050781 6.644531 22.941406 6.734375 22.875 C 6.824219 22.800781 6.929688 22.761719 7.046875 22.761719 L 11.753906 22.761719 L 11.753906 6.3125 L 7.691406 8.5625 C 7.390625 8.703125 7.144531 8.792969 6.949219 8.835938 C 6.765625 8.859375 6.617188 8.820312 6.5 8.71875 C 6.394531 8.597656 6.324219 8.402344 6.285156 8.132812 C 6.246094 7.855469 6.226562 7.472656 6.226562 6.976562 C 6.226562 6.664062 6.234375 6.410156 6.246094 6.21875 C 6.257812 6.007812 6.292969 5.832031 6.34375 5.6875 C 6.394531 5.546875 6.46875 5.429688 6.558594 5.335938 C 6.648438 5.246094 6.773438 5.148438 6.929688 5.046875 L 12.359375 1.53125 C 12.425781 1.476562 12.503906 1.4375 12.59375 1.414062 C 12.699219 1.371094 12.828125 1.347656 12.984375 1.335938 C 13.140625 1.308594 13.34375 1.292969 13.589844 1.292969 C 13.851562 1.28125 14.183594 1.273438 14.585938 1.273438 C 15.082031 1.273438 15.476562 1.289062 15.777344 1.316406 C 16.089844 1.328125 16.324219 1.359375 16.480469 1.414062 C 16.636719 1.453125 16.742188 1.511719 16.792969 1.585938 C 16.84375 1.664062 16.871094 1.761719 16.871094 1.882812 L 16.871094 22.761719 L 20.992188 22.761719 C 21.109375 22.761719 21.214844 22.800781 21.304688 22.875 C 21.410156 22.941406 21.492188 23.054688 21.558594 23.207031 C 21.636719 23.363281 21.6875 23.574219 21.714844 23.832031 C 21.753906 24.082031 21.773438 24.394531 21.773438 24.769531 Z M 21.773438 24.769531 "/>
</g>
</svg>
