<?xml version="1.0" encoding="UTF-8"?>
<svg xmlns="http://www.w3.org/2000/svg" xmlns:xlink="http://www.w3.org/1999/xlink" width="28px" height="28px" viewBox="0 0 28 28" version="1.1">
<g id="surface1">
<path style=" stroke:none;fill-rule:nonzero;fill:rgb(0%,0%,0%);fill-opacity:1;" d="M 22.476562 24.769531 C 22.476562 25.148438 22.457031 25.476562 22.417969 25.75 C 22.390625 26.007812 22.347656 26.222656 22.28125 26.390625 C 22.214844 26.5625 22.132812 26.683594 22.027344 26.765625 C 21.921875 26.828125 21.804688 26.863281 21.675781 26.863281 L 7.144531 26.863281 C 6.859375 26.863281 6.609375 26.835938 6.402344 26.78125 C 6.195312 26.730469 6.023438 26.632812 5.894531 26.488281 C 5.765625 26.332031 5.667969 26.113281 5.601562 25.824219 C 5.550781 25.539062 5.523438 25.167969 5.523438 24.710938 C 5.523438 24.28125 5.542969 23.917969 5.582031 23.617188 C 5.621094 23.304688 5.691406 23.03125 5.796875 22.796875 C 5.902344 22.550781 6.03125 22.316406 6.1875 22.09375 C 6.355469 21.859375 6.570312 21.605469 6.832031 21.332031 L 11.207031 16.644531 C 12.078125 15.734375 12.78125 14.90625 13.316406 14.164062 C 13.851562 13.410156 14.265625 12.726562 14.566406 12.113281 C 14.867188 11.488281 15.066406 10.917969 15.171875 10.394531 C 15.289062 9.875 15.347656 9.378906 15.347656 8.910156 C 15.347656 8.480469 15.277344 8.078125 15.132812 7.699219 C 15.003906 7.308594 14.800781 6.972656 14.527344 6.6875 C 14.265625 6.398438 13.933594 6.179688 13.53125 6.023438 C 13.128906 5.851562 12.652344 5.765625 12.105469 5.765625 C 11.335938 5.765625 10.652344 5.863281 10.054688 6.0625 C 9.46875 6.253906 8.949219 6.476562 8.492188 6.726562 C 8.050781 6.960938 7.679688 7.179688 7.378906 7.390625 C 7.078125 7.582031 6.84375 7.679688 6.675781 7.679688 C 6.558594 7.679688 6.453125 7.640625 6.363281 7.5625 C 6.285156 7.484375 6.21875 7.355469 6.167969 7.171875 C 6.117188 6.992188 6.070312 6.75 6.03125 6.453125 C 6.003906 6.140625 5.992188 5.761719 5.992188 5.320312 C 5.992188 5.019531 6 4.769531 6.011719 4.578125 C 6.039062 4.367188 6.070312 4.191406 6.109375 4.046875 C 6.148438 3.890625 6.199219 3.761719 6.265625 3.65625 C 6.332031 3.542969 6.441406 3.40625 6.597656 3.25 C 6.765625 3.09375 7.066406 2.898438 7.496094 2.664062 C 7.9375 2.414062 8.480469 2.179688 9.117188 1.960938 C 9.753906 1.726562 10.457031 1.53125 11.226562 1.375 C 11.996094 1.21875 12.796875 1.140625 13.628906 1.140625 C 14.945312 1.140625 16.089844 1.308594 17.066406 1.648438 C 18.054688 1.972656 18.875 2.433594 19.527344 3.03125 C 20.179688 3.621094 20.660156 4.324219 20.972656 5.140625 C 21.296875 5.949219 21.460938 6.820312 21.460938 7.757812 C 21.460938 8.582031 21.382812 9.386719 21.226562 10.183594 C 21.070312 10.976562 20.746094 11.835938 20.25 12.761719 C 19.753906 13.671875 19.058594 14.6875 18.160156 15.808594 C 17.261719 16.914062 16.070312 18.203125 14.585938 19.671875 L 11.636719 22.703125 L 21.597656 22.703125 C 21.726562 22.703125 21.84375 22.738281 21.949219 22.816406 C 22.066406 22.894531 22.164062 23.019531 22.242188 23.1875 C 22.320312 23.34375 22.378906 23.558594 22.417969 23.832031 C 22.457031 24.09375 22.476562 24.40625 22.476562 24.769531 Z M 22.476562 24.769531 "/>
</g>
</svg>
