<?xml version="1.0" encoding="UTF-8"?>
<svg xmlns="http://www.w3.org/2000/svg" xmlns:xlink="http://www.w3.org/1999/xlink" width="28px" height="28px" viewBox="0 0 28 28" version="1.1">
<g id="surface1">
<path style=" stroke:none;fill-rule:nonzero;fill:rgb(0%,0%,0%);fill-opacity:1;" d="M 22.449219 19.234375 C 22.449219 20.496094 22.207031 21.617188 21.722656 22.59375 C 21.242188 23.570312 20.574219 24.390625 19.714844 25.054688 C 18.855469 25.71875 17.824219 26.226562 16.625 26.578125 C 15.429688 26.917969 14.121094 27.085938 12.703125 27.085938 C 11.839844 27.085938 11.035156 27.019531 10.28125 26.890625 C 9.523438 26.773438 8.855469 26.625 8.265625 26.441406 C 7.695312 26.257812 7.21875 26.070312 6.84375 25.875 C 6.464844 25.679688 6.214844 25.53125 6.101562 25.425781 C 5.980469 25.320312 5.890625 25.203125 5.828125 25.074219 C 5.773438 24.945312 5.722656 24.792969 5.671875 24.625 C 5.628906 24.441406 5.597656 24.222656 5.574219 23.960938 C 5.558594 23.6875 5.554688 23.363281 5.554688 22.984375 C 5.554688 22.359375 5.605469 21.929688 5.710938 21.695312 C 5.8125 21.449219 5.96875 21.324219 6.179688 21.324219 C 6.308594 21.324219 6.53125 21.414062 6.84375 21.597656 C 7.167969 21.765625 7.578125 21.957031 8.074219 22.164062 C 8.566406 22.359375 9.148438 22.546875 9.8125 22.730469 C 10.476562 22.898438 11.230469 22.984375 12.078125 22.984375 C 12.792969 22.984375 13.425781 22.898438 13.972656 22.730469 C 14.519531 22.5625 14.980469 22.328125 15.359375 22.027344 C 15.75 21.714844 16.035156 21.34375 16.21875 20.914062 C 16.414062 20.472656 16.511719 19.984375 16.511719 19.449219 C 16.511719 18.863281 16.394531 18.335938 16.160156 17.867188 C 15.9375 17.398438 15.597656 17 15.144531 16.675781 C 14.699219 16.335938 14.132812 16.078125 13.445312 15.894531 C 12.765625 15.710938 11.964844 15.621094 11.042969 15.621094 L 8.851562 15.621094 C 8.683594 15.621094 8.542969 15.601562 8.421875 15.5625 C 8.308594 15.511719 8.210938 15.414062 8.132812 15.269531 C 8.054688 15.125 7.996094 14.929688 7.953125 14.683594 C 7.929688 14.421875 7.914062 14.089844 7.914062 13.6875 C 7.914062 13.308594 7.929688 13.003906 7.957031 12.769531 C 7.996094 12.523438 8.046875 12.332031 8.113281 12.203125 C 8.191406 12.074219 8.28125 11.980469 8.386719 11.929688 C 8.503906 11.878906 8.640625 11.851562 8.796875 11.851562 L 11.003906 11.851562 C 11.757812 11.851562 12.429688 11.765625 13.015625 11.597656 C 13.601562 11.414062 14.089844 11.160156 14.480469 10.835938 C 14.882812 10.511719 15.1875 10.121094 15.398438 9.664062 C 15.605469 9.195312 15.710938 8.679688 15.710938 8.121094 C 15.710938 7.691406 15.636719 7.289062 15.496094 6.910156 C 15.351562 6.519531 15.136719 6.1875 14.847656 5.914062 C 14.574219 5.628906 14.21875 5.40625 13.777344 5.25 C 13.332031 5.082031 12.8125 4.996094 12.214844 4.996094 C 11.535156 4.996094 10.898438 5.101562 10.296875 5.308594 C 9.699219 5.503906 9.160156 5.726562 8.679688 5.972656 C 8.210938 6.207031 7.804688 6.429688 7.46875 6.636719 C 7.140625 6.84375 6.898438 6.949219 6.742188 6.949219 C 6.640625 6.949219 6.546875 6.929688 6.46875 6.890625 C 6.390625 6.839844 6.328125 6.746094 6.273438 6.617188 C 6.222656 6.488281 6.183594 6.296875 6.15625 6.050781 C 6.132812 5.804688 6.117188 5.484375 6.117188 5.09375 C 6.117188 4.769531 6.125 4.5 6.136719 4.292969 C 6.152344 4.070312 6.175781 3.890625 6.21875 3.746094 C 6.253906 3.601562 6.300781 3.480469 6.351562 3.375 C 6.417969 3.269531 6.515625 3.160156 6.648438 3.042969 C 6.777344 2.914062 7.042969 2.722656 7.445312 2.476562 C 7.851562 2.230469 8.359375 1.988281 8.96875 1.753906 C 9.582031 1.519531 10.285156 1.324219 11.078125 1.167969 C 11.886719 1 12.761719 0.914062 13.699219 0.914062 C 14.921875 0.914062 16 1.058594 16.9375 1.34375 C 17.890625 1.628906 18.683594 2.046875 19.324219 2.59375 C 19.972656 3.128906 20.460938 3.792969 20.785156 4.585938 C 21.125 5.367188 21.296875 6.253906 21.296875 7.242188 C 21.296875 8.011719 21.199219 8.726562 21 9.390625 C 20.804688 10.054688 20.519531 10.648438 20.140625 11.167969 C 19.765625 11.6875 19.289062 12.132812 18.71875 12.496094 C 18.15625 12.859375 17.503906 13.132812 16.765625 13.316406 L 16.765625 13.375 C 17.648438 13.480469 18.441406 13.707031 19.144531 14.058594 C 19.847656 14.398438 20.441406 14.828125 20.921875 15.347656 C 21.417969 15.867188 21.796875 16.460938 22.058594 17.125 C 22.316406 17.777344 22.449219 18.480469 22.449219 19.234375 Z M 22.449219 19.234375 "/>
</g>
</svg>
