<?xml version="1.0" encoding="UTF-8"?>
<svg xmlns="http://www.w3.org/2000/svg" xmlns:xlink="http://www.w3.org/1999/xlink" width="28px" height="28px" viewBox="0 0 28 28" version="1.1">
<g id="surface1">
<path style=" stroke:none;fill-rule:nonzero;fill:rgb(0%,0%,0%);fill-opacity:1;" d="M 23.375 19.371094 C 23.375 20.035156 23.304688 20.542969 23.160156 20.894531 C 23.03125 21.234375 22.847656 21.402344 22.613281 21.402344 L 20.367188 21.402344 L 20.367188 25.972656 C 20.367188 26.101562 20.328125 26.21875 20.25 26.324219 C 20.171875 26.414062 20.035156 26.492188 19.839844 26.558594 C 19.644531 26.625 19.390625 26.667969 19.078125 26.695312 C 18.765625 26.734375 18.363281 26.753906 17.867188 26.753906 C 17.398438 26.753906 17 26.734375 16.675781 26.695312 C 16.363281 26.667969 16.109375 26.625 15.914062 26.558594 C 15.730469 26.492188 15.601562 26.414062 15.523438 26.324219 C 15.457031 26.21875 15.425781 26.101562 15.425781 25.972656 L 15.425781 21.402344 L 5.757812 21.402344 C 5.574219 21.402344 5.414062 21.382812 5.269531 21.34375 C 5.125 21.292969 5.003906 21.1875 4.898438 21.03125 C 4.808594 20.863281 4.734375 20.628906 4.683594 20.328125 C 4.644531 20.015625 4.625 19.605469 4.625 19.097656 C 4.625 18.679688 4.632812 18.324219 4.644531 18.023438 C 4.671875 17.710938 4.703125 17.429688 4.742188 17.183594 C 4.792969 16.9375 4.859375 16.703125 4.9375 16.480469 C 5.027344 16.257812 5.140625 16.023438 5.269531 15.777344 L 13.121094 1.929688 C 13.1875 1.8125 13.296875 1.714844 13.453125 1.636719 C 13.609375 1.546875 13.824219 1.472656 14.097656 1.421875 C 14.382812 1.355469 14.742188 1.3125 15.171875 1.285156 C 15.601562 1.257812 16.121094 1.246094 16.734375 1.246094 C 17.398438 1.246094 17.964844 1.265625 18.433594 1.304688 C 18.902344 1.332031 19.273438 1.382812 19.546875 1.460938 C 19.832031 1.527344 20.042969 1.609375 20.171875 1.714844 C 20.300781 1.820312 20.367188 1.941406 20.367188 2.085938 L 20.367188 17.300781 L 22.613281 17.300781 C 22.820312 17.300781 22.996094 17.464844 23.140625 17.789062 C 23.296875 18.101562 23.375 18.628906 23.375 19.371094 Z M 15.425781 5.679688 L 15.386719 5.679688 L 8.726562 17.300781 L 15.425781 17.300781 Z M 15.425781 5.679688 "/>
</g>
</svg>
