<?xml version="1.0" encoding="UTF-8"?>
<svg xmlns="http://www.w3.org/2000/svg" xmlns:xlink="http://www.w3.org/1999/xlink" width="28px" height="28px" viewBox="0 0 28 28" version="1.1">
<g id="surface1">
<path style=" stroke:none;fill-rule:nonzero;fill:rgb(0%,0%,0%);fill-opacity:1;" d="M 22.28125 18.207031 C 22.28125 19.578125 22.039062 20.800781 21.558594 21.878906 C 21.089844 22.949219 20.417969 23.855469 19.546875 24.59375 C 18.6875 25.324219 17.644531 25.886719 16.421875 26.277344 C 15.210938 26.667969 13.863281 26.859375 12.378906 26.859375 C 11.597656 26.859375 10.855469 26.808594 10.152344 26.703125 C 9.449219 26.613281 8.816406 26.496094 8.257812 26.355469 C 7.699219 26.199219 7.234375 26.046875 6.871094 25.90625 C 6.519531 25.75 6.285156 25.625 6.167969 25.53125 C 6.0625 25.429688 5.984375 25.316406 5.933594 25.203125 C 5.882812 25.085938 5.835938 24.949219 5.796875 24.792969 C 5.769531 24.621094 5.75 24.414062 5.738281 24.167969 C 5.726562 23.917969 5.71875 23.625 5.71875 23.285156 C 5.71875 22.921875 5.730469 22.617188 5.757812 22.371094 C 5.785156 22.109375 5.824219 21.902344 5.875 21.746094 C 5.941406 21.589844 6.011719 21.476562 6.089844 21.410156 C 6.167969 21.347656 6.257812 21.3125 6.363281 21.3125 C 6.492188 21.3125 6.6875 21.390625 6.949219 21.546875 C 7.222656 21.691406 7.574219 21.855469 8.003906 22.035156 C 8.445312 22.21875 8.980469 22.386719 9.605469 22.542969 C 10.230469 22.6875 10.980469 22.757812 11.851562 22.757812 C 12.605469 22.757812 13.289062 22.679688 13.902344 22.523438 C 14.527344 22.367188 15.054688 22.121094 15.484375 21.78125 C 15.914062 21.429688 16.246094 20.996094 16.480469 20.472656 C 16.714844 19.953125 16.832031 19.328125 16.832031 18.597656 C 16.832031 17.972656 16.734375 17.421875 16.539062 16.9375 C 16.34375 16.445312 16.039062 16.027344 15.621094 15.6875 C 15.203125 15.351562 14.664062 15.097656 14 14.925781 C 13.335938 14.757812 12.527344 14.671875 11.578125 14.671875 C 10.824219 14.671875 10.132812 14.710938 9.507812 14.789062 C 8.894531 14.867188 8.316406 14.90625 7.769531 14.90625 C 7.390625 14.90625 7.117188 14.816406 6.949219 14.632812 C 6.792969 14.4375 6.714844 14.085938 6.714844 13.578125 L 6.714844 2.601562 C 6.714844 2.082031 6.8125 1.710938 7.007812 1.492188 C 7.214844 1.257812 7.542969 1.140625 7.984375 1.140625 L 19.957031 1.140625 C 20.074219 1.140625 20.183594 1.179688 20.289062 1.257812 C 20.394531 1.335938 20.476562 1.457031 20.542969 1.625 C 20.621094 1.796875 20.671875 2.023438 20.699219 2.3125 C 20.738281 2.582031 20.757812 2.914062 20.757812 3.304688 C 20.757812 4.085938 20.6875 4.652344 20.542969 5.007812 C 20.414062 5.355469 20.21875 5.53125 19.957031 5.53125 L 10.972656 5.53125 L 10.972656 10.941406 C 11.429688 10.890625 11.878906 10.859375 12.320312 10.84375 C 12.777344 10.832031 13.25 10.824219 13.746094 10.824219 C 15.113281 10.824219 16.324219 10.988281 17.378906 11.3125 C 18.445312 11.625 19.339844 12.09375 20.054688 12.71875 C 20.785156 13.332031 21.335938 14.101562 21.714844 15.023438 C 22.09375 15.9375 22.28125 16.996094 22.28125 18.207031 Z M 22.28125 18.207031 "/>
</g>
</svg>
