<?xml version="1.0" encoding="UTF-8"?>
<svg xmlns="http://www.w3.org/2000/svg" xmlns:xlink="http://www.w3.org/1999/xlink" width="28px" height="28px" viewBox="0 0 28 28" version="1.1">
<g id="surface1">
<path style=" stroke:none;fill-rule:nonzero;fill:rgb(0%,0%,0%);fill-opacity:1;" d="M 22.710938 18.1875 C 22.710938 19.464844 22.515625 20.652344 22.125 21.746094 C 21.734375 22.824219 21.160156 23.761719 20.40625 24.558594 C 19.652344 25.339844 18.71875 25.957031 17.613281 26.410156 C 16.507812 26.855469 15.230469 27.078125 13.785156 27.078125 C 12.613281 27.078125 11.589844 26.941406 10.71875 26.667969 C 9.847656 26.40625 9.089844 26.027344 8.453125 25.53125 C 7.816406 25.023438 7.292969 24.414062 6.890625 23.699219 C 6.488281 22.980469 6.160156 22.175781 5.914062 21.277344 C 5.679688 20.375 5.515625 19.398438 5.425781 18.34375 C 5.335938 17.292969 5.289062 16.171875 5.289062 14.984375 C 5.289062 13.996094 5.335938 12.960938 5.425781 11.878906 C 5.53125 10.800781 5.71875 9.738281 5.992188 8.695312 C 6.277344 7.65625 6.675781 6.664062 7.183594 5.726562 C 7.691406 4.777344 8.34375 3.953125 9.136719 3.25 C 9.945312 2.53125 10.914062 1.964844 12.046875 1.546875 C 13.191406 1.132812 14.546875 0.925781 16.109375 0.925781 C 16.605469 0.925781 17.097656 0.957031 17.59375 1.023438 C 18.101562 1.074219 18.570312 1.144531 19 1.238281 C 19.429688 1.328125 19.792969 1.433594 20.09375 1.550781 C 20.394531 1.667969 20.589844 1.769531 20.679688 1.863281 C 20.785156 1.941406 20.863281 2.03125 20.914062 2.136719 C 20.964844 2.238281 21.003906 2.355469 21.03125 2.488281 C 21.070312 2.605469 21.097656 2.753906 21.109375 2.9375 C 21.121094 3.117188 21.128906 3.339844 21.128906 3.601562 C 21.128906 4.003906 21.117188 4.34375 21.089844 4.617188 C 21.078125 4.875 21.042969 5.085938 20.992188 5.242188 C 20.941406 5.382812 20.867188 5.488281 20.777344 5.554688 C 20.6875 5.617188 20.574219 5.648438 20.445312 5.648438 C 20.289062 5.648438 20.085938 5.609375 19.839844 5.53125 C 19.59375 5.441406 19.292969 5.34375 18.941406 5.238281 C 18.589844 5.136719 18.171875 5.042969 17.691406 4.964844 C 17.222656 4.886719 16.675781 4.847656 16.050781 4.847656 C 14.996094 4.847656 14.105469 5.042969 13.375 5.433594 C 12.644531 5.824219 12.054688 6.359375 11.597656 7.035156 C 11.140625 7.699219 10.808594 8.476562 10.601562 9.359375 C 10.394531 10.246094 10.28125 11.183594 10.269531 12.171875 C 10.554688 11.992188 10.882812 11.808594 11.246094 11.625 C 11.625 11.445312 12.027344 11.289062 12.457031 11.15625 C 12.898438 11.027344 13.375 10.925781 13.882812 10.84375 C 14.390625 10.753906 14.929688 10.707031 15.503906 10.707031 C 16.78125 10.707031 17.875 10.882812 18.785156 11.234375 C 19.695312 11.585938 20.4375 12.089844 21.011719 12.738281 C 21.597656 13.390625 22.027344 14.179688 22.300781 15.105469 C 22.574219 16.027344 22.710938 17.054688 22.710938 18.1875 Z M 17.671875 18.675781 C 17.671875 18.015625 17.613281 17.433594 17.496094 16.9375 C 17.378906 16.429688 17.191406 16.007812 16.929688 15.671875 C 16.667969 15.316406 16.324219 15.058594 15.894531 14.890625 C 15.464844 14.707031 14.945312 14.613281 14.332031 14.613281 C 13.96875 14.613281 13.609375 14.648438 13.257812 14.714844 C 12.90625 14.777344 12.5625 14.871094 12.222656 14.988281 C 11.882812 15.105469 11.558594 15.246094 11.246094 15.417969 C 10.933594 15.574219 10.640625 15.742188 10.367188 15.925781 C 10.367188 17.316406 10.445312 18.484375 10.601562 19.421875 C 10.757812 20.34375 10.984375 21.082031 11.285156 21.628906 C 11.597656 22.175781 11.980469 22.566406 12.4375 22.800781 C 12.90625 23.019531 13.445312 23.132812 14.058594 23.132812 C 14.65625 23.132812 15.179688 23.019531 15.621094 22.800781 C 16.078125 22.578125 16.453125 22.265625 16.753906 21.863281 C 17.054688 21.457031 17.28125 20.988281 17.4375 20.457031 C 17.59375 19.910156 17.671875 19.316406 17.671875 18.679688 Z M 17.671875 18.675781 "/>
</g>
</svg>
