<?xml version="1.0" encoding="UTF-8"?>
<svg xmlns="http://www.w3.org/2000/svg" xmlns:xlink="http://www.w3.org/1999/xlink" width="28px" height="28px" viewBox="0 0 28 28" version="1.1">
<g id="surface1">
<path style=" stroke:none;fill-rule:nonzero;fill:rgb(0%,0%,0%);fill-opacity:1;" d="M 22.535156 3.472656 C 22.535156 3.851562 22.523438 4.183594 22.496094 4.46875 C 22.46875 4.742188 22.429688 5.003906 22.378906 5.25 C 22.339844 5.484375 22.28125 5.710938 22.203125 5.933594 C 22.125 6.140625 22.035156 6.371094 21.929688 6.617188 L 13.609375 25.894531 C 13.53125 26.0625 13.425781 26.199219 13.296875 26.304688 C 13.179688 26.410156 13.011719 26.492188 12.789062 26.558594 C 12.566406 26.609375 12.28125 26.644531 11.929688 26.65625 C 11.589844 26.683594 11.167969 26.695312 10.660156 26.695312 C 9.96875 26.695312 9.421875 26.667969 9.019531 26.617188 C 8.617188 26.578125 8.316406 26.511719 8.121094 26.421875 C 7.9375 26.316406 7.839844 26.195312 7.828125 26.050781 C 7.816406 25.894531 7.859375 25.707031 7.964844 25.484375 L 16.910156 5.757812 L 6.285156 5.757812 C 6.011719 5.757812 5.804688 5.582031 5.660156 5.230469 C 5.53125 4.867188 5.464844 4.292969 5.464844 3.511719 C 5.464844 3.121094 5.484375 2.789062 5.523438 2.515625 C 5.5625 2.230469 5.613281 1.996094 5.679688 1.8125 C 5.757812 1.628906 5.84375 1.5 5.933594 1.421875 C 6.039062 1.34375 6.15625 1.304688 6.285156 1.304688 L 21.304688 1.304688 C 21.539062 1.304688 21.734375 1.332031 21.890625 1.382812 C 22.046875 1.421875 22.171875 1.519531 22.261719 1.675781 C 22.351562 1.832031 22.417969 2.054688 22.457031 2.339844 C 22.507812 2.625 22.535156 3.003906 22.535156 3.472656 Z M 22.535156 3.472656 "/>
</g>
</svg>
