<?xml version="1.0" encoding="UTF-8"?>
<svg xmlns="http://www.w3.org/2000/svg" xmlns:xlink="http://www.w3.org/1999/xlink" width="28px" height="28px" viewBox="0 0 28 28" version="1.1">
<g id="surface1">
<path style=" stroke:none;fill-rule:nonzero;fill:rgb(0%,0%,0%);fill-opacity:1;" d="M 22.71875 12.847656 C 22.71875 13.875 22.667969 14.945312 22.5625 16.050781 C 22.460938 17.144531 22.257812 18.21875 21.957031 19.273438 C 21.671875 20.328125 21.269531 21.332031 20.75 22.28125 C 20.238281 23.230469 19.574219 24.066406 18.753906 24.78125 C 17.949219 25.484375 16.957031 26.042969 15.785156 26.460938 C 14.628906 26.878906 13.253906 27.085938 11.667969 27.085938 C 11.105469 27.085938 10.546875 27.046875 9.984375 26.96875 C 9.4375 26.890625 8.9375 26.792969 8.484375 26.675781 C 8.027344 26.558594 7.636719 26.433594 7.3125 26.304688 C 7 26.175781 6.769531 26.042969 6.625 25.914062 C 6.484375 25.769531 6.378906 25.570312 6.3125 25.308594 C 6.25 25.046875 6.21875 24.683594 6.21875 24.214844 C 6.21875 23.785156 6.222656 23.441406 6.234375 23.179688 C 6.261719 22.917969 6.300781 22.71875 6.351562 22.574219 C 6.417969 22.429688 6.488281 22.339844 6.570312 22.300781 C 6.660156 22.25 6.761719 22.222656 6.882812 22.222656 C 7.039062 22.222656 7.257812 22.269531 7.546875 22.359375 C 7.832031 22.449219 8.175781 22.554688 8.578125 22.671875 C 8.996094 22.789062 9.464844 22.894531 9.984375 22.984375 C 10.507812 23.074219 11.085938 23.121094 11.722656 23.121094 C 12.816406 23.121094 13.742188 22.925781 14.5 22.535156 C 15.253906 22.144531 15.863281 21.617188 16.332031 20.953125 C 16.800781 20.289062 17.148438 19.519531 17.371094 18.648438 C 17.589844 17.777344 17.714844 16.859375 17.738281 15.894531 C 17.140625 16.273438 16.417969 16.605469 15.574219 16.890625 C 14.726562 17.164062 13.753906 17.300781 12.660156 17.300781 C 11.320312 17.300781 10.183594 17.125 9.242188 16.773438 C 8.304688 16.421875 7.542969 15.914062 6.960938 15.25 C 6.371094 14.585938 5.941406 13.777344 5.671875 12.828125 C 5.410156 11.878906 5.28125 10.804688 5.28125 9.605469 C 5.28125 8.34375 5.46875 7.183594 5.84375 6.128906 C 6.222656 5.0625 6.785156 4.144531 7.523438 3.375 C 8.269531 2.59375 9.191406 1.988281 10.296875 1.558594 C 11.40625 1.128906 12.6875 0.914062 14.144531 0.914062 C 15.316406 0.914062 16.339844 1.050781 17.214844 1.324219 C 18.097656 1.597656 18.855469 1.988281 19.480469 2.496094 C 20.117188 3.003906 20.644531 3.621094 21.0625 4.351562 C 21.488281 5.066406 21.824219 5.867188 22.058594 6.753906 C 22.304688 7.640625 22.472656 8.597656 22.5625 9.625 C 22.667969 10.652344 22.71875 11.726562 22.71875 12.847656 Z M 17.625 12.144531 C 17.625 10.75 17.546875 9.585938 17.390625 8.648438 C 17.234375 7.710938 17 6.960938 16.6875 6.402344 C 16.375 5.84375 15.984375 5.445312 15.515625 5.210938 C 15.046875 4.976562 14.5 4.859375 13.875 4.859375 C 13.261719 4.859375 12.734375 4.96875 12.292969 5.191406 C 11.847656 5.398438 11.476562 5.699219 11.175781 6.089844 C 10.890625 6.480469 10.675781 6.941406 10.53125 7.476562 C 10.390625 8.011719 10.316406 8.597656 10.316406 9.234375 C 10.316406 9.925781 10.375 10.535156 10.496094 11.070312 C 10.625 11.589844 10.820312 12.027344 11.078125 12.378906 C 11.351562 12.71875 11.703125 12.972656 12.136719 13.140625 C 12.566406 13.308594 13.085938 13.394531 13.699219 13.394531 C 14.453125 13.394531 15.160156 13.285156 15.828125 13.0625 C 16.503906 12.828125 17.101562 12.523438 17.625 12.144531 Z M 17.625 12.144531 "/>
</g>
</svg>
