<?xml version="1.0" encoding="UTF-8"?>
<svg xmlns="http://www.w3.org/2000/svg" xmlns:xlink="http://www.w3.org/1999/xlink" width="28px" height="28px" viewBox="0 0 28 28" version="1.1">
<g id="surface1">
<path style="fill-rule:evenodd;fill:rgb(0%,0%,0%);fill-opacity:1;stroke-width:1.10925;stroke-linecap:round;stroke-linejoin:round;stroke:rgb(0%,0%,0%);stroke-opacity:1;stroke-miterlimit:22.9256;" d="M 24.089844 25.046875 C 24.332031 25.515625 24.488281 25.890625 24.554688 26.175781 C 24.636719 26.457031 24.59375 26.671875 24.433594 26.820312 C 24.273438 26.96875 23.976562 27.0625 23.546875 27.101562 C 23.128906 27.140625 22.546875 27.160156 21.792969 27.160156 C 21.160156 27.160156 20.664062 27.148438 20.300781 27.121094 C 19.9375 27.09375 19.648438 27.054688 19.433594 27 C 19.234375 26.933594 19.085938 26.847656 18.992188 26.738281 C 18.898438 26.632812 18.816406 26.496094 18.75 26.335938 L 13.851562 16.921875 L 8.972656 26.335938 C 8.894531 26.496094 8.804688 26.632812 8.710938 26.738281 C 8.617188 26.847656 8.464844 26.933594 8.246094 27 C 8.046875 27.054688 7.757812 27.09375 7.382812 27.121094 C 7.019531 27.148438 6.535156 27.160156 5.929688 27.160156 C 5.230469 27.160156 4.6875 27.140625 4.296875 27.101562 C 3.921875 27.0625 3.664062 26.96875 3.53125 26.820312 C 3.398438 26.671875 3.371094 26.457031 3.449219 26.175781 C 3.53125 25.890625 3.699219 25.515625 3.953125 25.046875 L 10.203125 13.65625 L 4.398438 2.953125 C 4.15625 2.46875 3.988281 2.085938 3.894531 1.804688 C 3.8125 1.511719 3.847656 1.292969 3.996094 1.160156 C 4.15625 1.011719 4.445312 0.925781 4.863281 0.898438 C 5.277344 0.859375 5.871094 0.839844 6.636719 0.839844 C 7.265625 0.839844 7.765625 0.851562 8.128906 0.878906 C 8.503906 0.90625 8.800781 0.953125 9.015625 1.019531 C 9.230469 1.074219 9.375 1.152344 9.457031 1.261719 C 9.550781 1.367188 9.640625 1.503906 9.71875 1.664062 L 14.292969 10.292969 L 18.75 1.664062 C 18.828125 1.503906 18.910156 1.367188 18.992188 1.261719 C 19.085938 1.152344 19.226562 1.074219 19.414062 1.019531 C 19.617188 0.953125 19.886719 0.90625 20.222656 0.878906 C 20.570312 0.851562 21.046875 0.839844 21.652344 0.839844 C 22.324219 0.839844 22.855469 0.859375 23.246094 0.898438 C 23.632812 0.925781 23.902344 1.011719 24.050781 1.160156 C 24.199219 1.308594 24.230469 1.523438 24.152344 1.804688 C 24.085938 2.085938 23.9375 2.46875 23.707031 2.953125 L 17.902344 13.597656 Z M 24.089844 25.046875 "/>
</g>
</svg>
