<?xml version="1.0" encoding="UTF-8"?>
<svg xmlns="http://www.w3.org/2000/svg" xmlns:xlink="http://www.w3.org/1999/xlink" width="28px" height="28px" viewBox="0 0 28 28" version="1.1">
<g id="surface1">
<path style="fill-rule:nonzero;fill:rgb(0%,0%,0%);fill-opacity:1;stroke-width:2.90843;stroke-linecap:round;stroke-linejoin:round;stroke:rgb(0%,0%,0%);stroke-opacity:1;stroke-miterlimit:22.9256;" d="M 13.609375 25.738281 C 13.546875 25.859375 13.425781 25.984375 13.363281 26.046875 C 13.238281 26.109375 13.113281 26.171875 12.929688 26.171875 C 12.742188 26.171875 12.558594 26.230469 12.308594 26.171875 C 12.0625 26.171875 11.753906 26.109375 11.320312 26.046875 C 11.011719 25.984375 10.761719 25.984375 10.578125 25.921875 C 10.332031 25.859375 10.207031 25.859375 10.019531 25.796875 C 9.898438 25.738281 9.773438 25.675781 9.648438 25.675781 C 9.527344 25.613281 9.464844 25.550781 9.402344 25.488281 C 9.339844 25.425781 9.277344 25.367188 9.214844 25.242188 C 9.15625 25.179688 9.15625 25.054688 9.15625 24.933594 L 2.101562 7.914062 C 1.976562 7.605469 2.039062 7.359375 2.039062 7.171875 C 2.039062 6.988281 2.160156 6.863281 2.285156 6.800781 C 2.410156 6.738281 2.59375 6.675781 2.90625 6.738281 C 3.152344 6.738281 3.523438 6.800781 3.957031 6.863281 C 4.328125 6.925781 4.636719 6.988281 4.824219 7.046875 C 5.007812 7.109375 5.195312 7.171875 5.316406 7.234375 C 5.441406 7.296875 5.503906 7.359375 5.566406 7.480469 C 7.855469 12.121094 9.957031 17.691406 12.0625 22.457031 L 12.125 22.457031 L 22.582031 2.34375 C 22.644531 2.222656 22.707031 2.097656 22.769531 2.035156 C 22.832031 1.972656 22.953125 1.914062 23.078125 1.851562 C 23.203125 1.789062 23.386719 1.789062 23.632812 1.851562 C 23.882812 1.851562 24.191406 1.914062 24.5625 1.972656 C 24.933594 2.035156 25.304688 2.097656 25.492188 2.160156 C 25.738281 2.222656 25.863281 2.34375 25.925781 2.40625 C 25.984375 2.53125 25.984375 2.65625 25.984375 2.839844 C 25.925781 3.027344 25.863281 3.210938 25.675781 3.519531 L 13.671875 25.675781 Z M 13.609375 25.738281 "/>
</g>
</svg>
