<?xml version="1.0" encoding="UTF-8"?>
<svg xmlns="http://www.w3.org/2000/svg" xmlns:xlink="http://www.w3.org/1999/xlink" width="28pt" height="28pt" viewBox="0 0 28 28" version="1.1">
<g id="surface1">
<path style=" stroke:none;fill-rule:nonzero;fill:rgb(0%,0%,0%);fill-opacity:1;" d="M 26.601562 14.933594 L 26.132812 14.933594 L 26.132812 5.132812 C 26.132812 2.800781 24.265625 0.933594 21.933594 0.933594 C 19.867188 0.933594 18.382812 2.464844 18.214844 4.710938 C 17.132812 4.914062 16.332031 5.847656 16.332031 7 C 16.332031 7.28125 16.519531 7.464844 16.800781 7.464844 L 20.535156 7.464844 C 20.8125 7.464844 21 7.28125 21 7 C 21 5.859375 20.21875 4.933594 19.152344 4.714844 C 19.292969 3.234375 20.183594 1.867188 21.933594 1.867188 C 23.753906 1.867188 25.199219 3.3125 25.199219 5.132812 L 25.199219 14.933594 L 11.15625 14.933594 C 10.945312 13.855469 10.011719 13.066406 8.867188 13.066406 C 8.398438 12.507812 7.746094 12.132812 7 12.132812 C 6.113281 12.132812 5.320312 12.648438 4.945312 13.394531 C 4.574219 13.207031 4.152344 13.066406 3.734375 13.066406 C 2.585938 13.066406 1.65625 13.855469 1.445312 14.933594 L 1.398438 14.933594 C 0.605469 14.933594 0 15.539062 0 16.332031 C 0 17.125 0.605469 17.734375 1.398438 17.734375 L 1.960938 17.734375 L 3.21875 22.726562 C 3.59375 24.171875 4.898438 25.199219 6.394531 25.199219 L 6.765625 25.199219 L 6.160156 26.414062 C 6.019531 26.648438 6.113281 26.925781 6.347656 27.019531 C 6.394531 27.066406 6.488281 27.066406 6.535156 27.066406 C 6.71875 27.066406 6.859375 26.972656 6.953125 26.832031 L 7.769531 25.199219 L 20.71875 25.199219 L 21.511719 26.785156 C 21.605469 26.972656 21.746094 27.066406 21.933594 27.066406 C 22.027344 27.066406 22.074219 27.066406 22.121094 26.972656 C 22.308594 26.878906 22.398438 26.601562 22.308594 26.367188 L 21.722656 25.199219 C 23.167969 25.144531 24.417969 24.136719 24.78125 22.773438 L 26.050781 17.734375 L 26.601562 17.734375 C 27.394531 17.734375 28 17.125 28 16.332031 C 28 15.539062 27.394531 14.933594 26.601562 14.933594 Z M 20.019531 6.535156 L 17.359375 6.535156 C 17.546875 5.972656 18.105469 5.601562 18.714844 5.601562 C 19.320312 5.601562 19.832031 5.972656 20.019531 6.535156 Z M 3.734375 14 C 4.152344 14 4.527344 14.1875 4.851562 14.511719 C 4.945312 14.652344 5.132812 14.699219 5.320312 14.652344 C 5.507812 14.605469 5.601562 14.464844 5.648438 14.28125 C 5.785156 13.578125 6.347656 13.066406 7.046875 13.066406 C 7.558594 13.066406 8.027344 13.300781 8.261719 13.765625 C 8.351562 13.953125 8.585938 14.046875 8.773438 14 C 8.820312 14 8.867188 14 8.914062 14 C 9.519531 14 10.035156 14.375 10.21875 14.933594 L 2.425781 14.933594 C 2.613281 14.375 3.125 14 3.734375 14 Z M 23.941406 22.492188 C 23.660156 23.519531 22.726562 24.265625 21.652344 24.265625 L 6.441406 24.265625 C 5.367188 24.265625 4.433594 23.519531 4.152344 22.492188 L 2.941406 17.734375 L 25.058594 17.734375 Z M 26.601562 16.800781 L 1.398438 16.800781 C 1.121094 16.800781 0.933594 16.613281 0.933594 16.332031 C 0.933594 16.054688 1.121094 15.867188 1.398438 15.867188 L 26.601562 15.867188 C 26.878906 15.867188 27.066406 16.054688 27.066406 16.332031 C 27.066406 16.613281 26.878906 16.800781 26.601562 16.800781 Z M 26.601562 16.800781 "/>
<path style=" stroke:none;fill-rule:nonzero;fill:rgb(0%,0%,0%);fill-opacity:1;" d="M 16.800781 9.566406 C 17.078125 9.566406 17.265625 9.378906 17.265625 9.101562 L 17.265625 8.867188 C 17.265625 8.585938 17.078125 8.398438 16.800781 8.398438 C 16.519531 8.398438 16.332031 8.585938 16.332031 8.867188 L 16.332031 9.101562 C 16.332031 9.378906 16.519531 9.566406 16.800781 9.566406 Z M 16.800781 9.566406 "/>
<path style=" stroke:none;fill-rule:nonzero;fill:rgb(0%,0%,0%);fill-opacity:1;" d="M 16.800781 11.714844 C 17.078125 11.714844 17.265625 11.480469 17.265625 11.246094 L 17.265625 10.734375 C 17.265625 10.453125 17.078125 10.265625 16.800781 10.265625 C 16.519531 10.265625 16.332031 10.453125 16.332031 10.734375 L 16.332031 11.246094 C 16.332031 11.527344 16.519531 11.714844 16.800781 11.714844 Z M 16.800781 11.714844 "/>
<path style=" stroke:none;fill-rule:nonzero;fill:rgb(0%,0%,0%);fill-opacity:1;" d="M 16.800781 13.535156 C 17.078125 13.535156 17.265625 13.347656 17.265625 13.066406 L 17.265625 12.832031 C 17.265625 12.554688 17.078125 12.367188 16.800781 12.367188 C 16.519531 12.367188 16.332031 12.554688 16.332031 12.832031 L 16.332031 13.066406 C 16.332031 13.347656 16.519531 13.535156 16.800781 13.535156 Z M 16.800781 13.535156 "/>
<path style=" stroke:none;fill-rule:nonzero;fill:rgb(0%,0%,0%);fill-opacity:1;" d="M 18.667969 9.566406 C 18.945312 9.566406 19.132812 9.378906 19.132812 9.101562 L 19.132812 8.867188 C 19.132812 8.585938 18.945312 8.398438 18.667969 8.398438 C 18.386719 8.398438 18.199219 8.585938 18.199219 8.867188 L 18.199219 9.101562 C 18.199219 9.378906 18.386719 9.566406 18.667969 9.566406 Z M 18.667969 9.566406 "/>
<path style=" stroke:none;fill-rule:nonzero;fill:rgb(0%,0%,0%);fill-opacity:1;" d="M 18.199219 11.246094 C 18.199219 11.527344 18.386719 11.714844 18.667969 11.714844 C 18.945312 11.714844 19.132812 11.480469 19.132812 11.246094 L 19.132812 10.734375 C 19.132812 10.453125 18.945312 10.265625 18.667969 10.265625 C 18.386719 10.265625 18.199219 10.453125 18.199219 10.734375 Z M 18.199219 11.246094 "/>
<path style=" stroke:none;fill-rule:nonzero;fill:rgb(0%,0%,0%);fill-opacity:1;" d="M 18.199219 13.066406 C 18.199219 13.347656 18.386719 13.535156 18.667969 13.535156 C 18.945312 13.535156 19.132812 13.347656 19.132812 13.066406 L 19.132812 12.832031 C 19.132812 12.554688 18.945312 12.367188 18.667969 12.367188 C 18.386719 12.367188 18.199219 12.554688 18.199219 12.832031 Z M 18.199219 13.066406 "/>
<path style=" stroke:none;fill-rule:nonzero;fill:rgb(0%,0%,0%);fill-opacity:1;" d="M 20.535156 9.566406 C 20.8125 9.566406 21 9.378906 21 9.101562 L 21 8.867188 C 21 8.585938 20.8125 8.398438 20.535156 8.398438 C 20.253906 8.398438 20.066406 8.585938 20.066406 8.867188 L 20.066406 9.101562 C 20.066406 9.378906 20.253906 9.566406 20.535156 9.566406 Z M 20.535156 9.566406 "/>
<path style=" stroke:none;fill-rule:nonzero;fill:rgb(0%,0%,0%);fill-opacity:1;" d="M 20.066406 11.246094 C 20.066406 11.527344 20.253906 11.714844 20.535156 11.714844 C 20.8125 11.714844 21 11.480469 21 11.246094 L 21 10.734375 C 21 10.453125 20.8125 10.265625 20.535156 10.265625 C 20.253906 10.265625 20.066406 10.453125 20.066406 10.734375 Z M 20.066406 11.246094 "/>
<path style=" stroke:none;fill-rule:nonzero;fill:rgb(0%,0%,0%);fill-opacity:1;" d="M 20.066406 13.066406 C 20.066406 13.347656 20.253906 13.535156 20.535156 13.535156 C 20.8125 13.535156 21 13.347656 21 13.066406 L 21 12.832031 C 21 12.554688 20.8125 12.367188 20.535156 12.367188 C 20.253906 12.367188 20.066406 12.554688 20.066406 12.832031 Z M 20.066406 13.066406 "/>
</g>
</svg>
