<?xml version="1.0" encoding="UTF-8"?>
<svg xmlns="http://www.w3.org/2000/svg" xmlns:xlink="http://www.w3.org/1999/xlink" width="28pt" height="28pt" viewBox="0 0 28 28" version="1.1">
<g id="surface1">
<path style=" stroke:none;fill-rule:nonzero;fill:rgb(0%,0%,0%);fill-opacity:1;" d="M 10.652344 19.78125 C 10.652344 20.285156 10.242188 20.695312 9.738281 20.695312 C 9.234375 20.695312 8.824219 20.285156 8.824219 19.78125 C 8.824219 19.277344 9.234375 18.871094 9.738281 18.871094 C 10.242188 18.871094 10.652344 19.277344 10.652344 19.78125 Z M 10.652344 19.78125 "/>
<path style=" stroke:none;fill-rule:nonzero;fill:rgb(0%,0%,0%);fill-opacity:1;" d="M 18.566406 19.78125 C 18.566406 20.285156 18.15625 20.695312 17.652344 20.695312 C 17.148438 20.695312 16.738281 20.285156 16.738281 19.78125 C 16.738281 19.277344 17.148438 18.871094 17.652344 18.871094 C 18.15625 18.871094 18.566406 19.277344 18.566406 19.78125 Z M 18.566406 19.78125 "/>
<path style=" stroke:none;fill-rule:nonzero;fill:rgb(0%,0%,0%);fill-opacity:1;" d="M 27.085938 9.738281 L 20.390625 9.738281 L 20.390625 8.824219 C 20.390625 8.320312 19.984375 7.914062 19.476562 7.914062 C 18.972656 7.914062 18.566406 8.320312 18.566406 8.824219 L 18.566406 9.738281 L 14.914062 9.738281 L 14.914062 4.566406 C 14.914062 3.054688 16.140625 1.824219 17.652344 1.824219 C 19.164062 1.824219 20.390625 3.054688 20.390625 4.566406 L 20.390625 5.476562 C 20.390625 5.984375 20.800781 6.390625 21.304688 6.390625 C 21.808594 6.390625 22.21875 5.984375 22.21875 5.476562 L 22.21875 4.566406 C 22.21875 2.046875 20.167969 0 17.652344 0 C 15.136719 0 13.085938 2.046875 13.085938 4.566406 L 13.085938 9.738281 L 9.433594 9.738281 L 9.433594 8.824219 C 9.433594 8.320312 9.027344 7.914062 8.523438 7.914062 C 8.015625 7.914062 7.609375 8.320312 7.609375 8.824219 L 7.609375 9.738281 L 0.914062 9.738281 C 0.410156 9.738281 0 10.148438 0 10.652344 L 0 27.085938 C 0 27.589844 0.410156 28 0.914062 28 L 27.085938 28 C 27.589844 28 28 27.589844 28 27.085938 L 28 10.652344 C 28 10.148438 27.589844 9.738281 27.085938 9.738281 Z M 13.085938 26.175781 L 1.824219 26.175781 L 1.824219 15.21875 L 13.085938 15.21875 Z M 26.175781 26.175781 L 14.914062 26.175781 L 14.914062 15.21875 L 26.175781 15.21875 Z M 26.175781 13.390625 L 1.824219 13.390625 L 1.824219 11.566406 L 26.175781 11.566406 Z M 26.175781 13.390625 "/>
</g>
</svg>
