<?xml version="1.0" encoding="UTF-8"?>
<svg xmlns="http://www.w3.org/2000/svg" xmlns:xlink="http://www.w3.org/1999/xlink" width="28pt" height="28pt" viewBox="0 0 28 28" version="1.1">
<g id="surface1">
<path style=" stroke:none;fill-rule:nonzero;fill:rgb(0%,0%,0%);fill-opacity:1;" d="M 28 14 C 28 13.21875 27.597656 12.816406 27.277344 12.496094 C 27.003906 12.222656 26.824219 12.042969 26.824219 11.644531 C 26.824219 11.246094 27.003906 11.066406 27.277344 10.792969 C 27.597656 10.472656 28 10.070312 28 9.289062 C 28 8.511719 27.597656 8.109375 27.277344 7.785156 C 27.003906 7.515625 26.824219 7.332031 26.824219 6.9375 C 26.824219 6.539062 27.003906 6.359375 27.277344 6.085938 C 27.371094 5.992188 27.566406 5.726562 27.378906 5.273438 C 27.195312 4.828125 26.464844 3.980469 25.871094 3.980469 C 25.714844 3.980469 25.574219 4.035156 25.464844 4.132812 C 25.421875 4.167969 25.382812 4.203125 25.34375 4.242188 C 25.046875 4.511719 24.828125 4.710938 24.359375 4.710938 C 23.890625 4.710938 23.675781 4.511719 23.375 4.242188 C 23.027344 3.925781 22.59375 3.53125 21.769531 3.53125 C 20.945312 3.53125 20.511719 3.925781 20.164062 4.242188 C 19.863281 4.511719 19.648438 4.710938 19.179688 4.710938 C 18.710938 4.710938 18.492188 4.511719 18.195312 4.242188 C 17.847656 3.925781 17.414062 3.53125 16.589844 3.53125 C 15.761719 3.53125 15.332031 3.925781 14.984375 4.242188 C 14.683594 4.511719 14.46875 4.710938 14 4.710938 C 13.53125 4.710938 13.3125 4.511719 13.015625 4.242188 C 12.667969 3.925781 12.234375 3.53125 11.410156 3.53125 C 10.582031 3.53125 10.152344 3.925781 9.804688 4.242188 C 9.503906 4.511719 9.289062 4.710938 8.820312 4.710938 C 8.351562 4.710938 8.136719 4.511719 7.835938 4.242188 C 7.488281 3.925781 7.054688 3.53125 6.230469 3.53125 C 5.402344 3.53125 4.972656 3.925781 4.625 4.242188 C 4.324219 4.511719 4.109375 4.710938 3.640625 4.710938 C 3.171875 4.710938 2.953125 4.511719 2.65625 4.242188 C 2.617188 4.203125 2.578125 4.167969 2.535156 4.132812 C 2.425781 4.035156 2.28125 3.980469 2.125 3.980469 C 1.527344 3.980469 0.757812 4.8125 0.570312 5.265625 C 0.394531 5.6875 0.582031 5.945312 0.671875 6.035156 L 0.722656 6.085938 C 0.996094 6.359375 1.175781 6.539062 1.175781 6.9375 C 1.175781 7.335938 0.996094 7.515625 0.722656 7.789062 C 0.402344 8.109375 0 8.511719 0 9.292969 C 0 10.070312 0.402344 10.472656 0.722656 10.796875 C 0.996094 11.066406 1.175781 11.25 1.175781 11.644531 C 1.175781 12.042969 0.996094 12.222656 0.722656 12.496094 C 0.402344 12.820312 0 13.222656 0 14 C 0 14.78125 0.402344 15.183594 0.722656 15.503906 C 0.996094 15.777344 1.175781 15.957031 1.175781 16.355469 C 1.175781 16.753906 0.996094 16.933594 0.722656 17.207031 C 0.402344 17.527344 0 17.929688 0 18.710938 C 0 19.488281 0.402344 19.890625 0.722656 20.214844 C 0.996094 20.484375 1.175781 20.667969 1.175781 21.0625 C 1.175781 21.460938 0.996094 21.640625 0.722656 21.914062 C 0.628906 22.007812 0.433594 22.273438 0.621094 22.726562 C 0.804688 23.171875 1.535156 24.019531 2.128906 24.019531 C 2.285156 24.019531 2.425781 23.964844 2.535156 23.867188 C 2.574219 23.832031 2.617188 23.796875 2.65625 23.757812 C 2.953125 23.488281 3.171875 23.289062 3.640625 23.289062 C 4.109375 23.289062 4.324219 23.488281 4.625 23.757812 C 4.972656 24.074219 5.40625 24.46875 6.230469 24.46875 C 7.054688 24.46875 7.488281 24.074219 7.835938 23.757812 C 8.136719 23.488281 8.351562 23.289062 8.820312 23.289062 C 9.289062 23.289062 9.507812 23.488281 9.804688 23.757812 C 10.152344 24.074219 10.585938 24.46875 11.410156 24.46875 C 12.238281 24.46875 12.667969 24.074219 13.015625 23.757812 C 13.316406 23.488281 13.53125 23.289062 14 23.289062 C 14.46875 23.289062 14.6875 23.488281 14.984375 23.757812 C 15.332031 24.074219 15.765625 24.46875 16.589844 24.46875 C 17.417969 24.46875 17.847656 24.074219 18.195312 23.757812 C 18.496094 23.488281 18.710938 23.289062 19.179688 23.289062 C 19.648438 23.289062 19.863281 23.488281 20.164062 23.757812 C 20.511719 24.074219 20.945312 24.46875 21.769531 24.46875 C 22.597656 24.46875 23.027344 24.074219 23.375 23.757812 C 23.675781 23.488281 23.890625 23.289062 24.359375 23.289062 C 24.828125 23.289062 25.046875 23.488281 25.34375 23.757812 C 25.382812 23.796875 25.421875 23.832031 25.464844 23.867188 C 25.574219 23.964844 25.71875 24.019531 25.875 24.019531 C 26.472656 24.019531 27.242188 23.1875 27.429688 22.734375 C 27.605469 22.3125 27.417969 22.054688 27.328125 21.964844 L 27.277344 21.914062 C 27.003906 21.640625 26.824219 21.460938 26.824219 21.0625 C 26.824219 20.664062 27.003906 20.484375 27.277344 20.210938 C 27.597656 19.890625 28 19.488281 28 18.707031 C 28 17.929688 27.597656 17.527344 27.277344 17.203125 C 27.003906 16.933594 26.824219 16.75 26.824219 16.355469 C 26.824219 15.957031 27.003906 15.777344 27.277344 15.503906 C 27.597656 15.179688 28 14.777344 28 14 Z M 26.625 14.851562 C 26.300781 15.171875 25.898438 15.574219 25.898438 16.355469 C 25.898438 17.132812 26.300781 17.535156 26.625 17.859375 C 26.898438 18.128906 27.078125 18.3125 27.078125 18.707031 C 27.078125 19.105469 26.898438 19.285156 26.625 19.558594 C 26.300781 19.882812 25.898438 20.285156 25.898438 21.0625 C 25.898438 21.769531 26.230469 22.164062 26.53125 22.472656 C 26.410156 22.664062 26.128906 22.941406 25.941406 23.054688 C 25.597656 22.742188 25.164062 22.367188 24.359375 22.367188 C 23.535156 22.367188 23.101562 22.761719 22.753906 23.078125 C 22.457031 23.347656 22.238281 23.546875 21.769531 23.546875 C 21.300781 23.546875 21.085938 23.347656 20.785156 23.078125 C 20.4375 22.761719 20.007812 22.367188 19.179688 22.367188 C 18.355469 22.367188 17.921875 22.761719 17.574219 23.078125 C 17.277344 23.347656 17.058594 23.546875 16.589844 23.546875 C 16.121094 23.546875 15.90625 23.347656 15.605469 23.078125 C 15.257812 22.761719 14.828125 22.367188 14 22.367188 C 13.175781 22.367188 12.742188 22.761719 12.394531 23.078125 C 12.097656 23.347656 11.878906 23.546875 11.410156 23.546875 C 10.941406 23.546875 10.726562 23.347656 10.425781 23.078125 C 10.078125 22.761719 9.648438 22.367188 8.820312 22.367188 C 7.996094 22.367188 7.5625 22.761719 7.214844 23.078125 C 6.917969 23.347656 6.699219 23.546875 6.230469 23.546875 C 5.761719 23.546875 5.546875 23.347656 5.246094 23.078125 C 4.898438 22.761719 4.464844 22.367188 3.640625 22.367188 C 2.839844 22.367188 2.410156 22.738281 2.066406 23.046875 C 1.878906 22.921875 1.605469 22.628906 1.503906 22.441406 C 1.792969 22.136719 2.101562 21.746094 2.101562 21.0625 C 2.101562 20.285156 1.699219 19.882812 1.375 19.558594 C 1.101562 19.289062 0.921875 19.105469 0.921875 18.710938 C 0.921875 18.3125 1.101562 18.132812 1.375 17.859375 C 1.699219 17.535156 2.101562 17.136719 2.101562 16.355469 C 2.101562 15.574219 1.699219 15.175781 1.375 14.851562 C 1.101562 14.578125 0.921875 14.398438 0.921875 14 C 0.921875 13.601562 1.101562 13.421875 1.375 13.148438 C 1.699219 12.828125 2.101562 12.425781 2.101562 11.644531 C 2.101562 10.867188 1.699219 10.464844 1.375 10.140625 C 1.101562 9.871094 0.921875 9.6875 0.921875 9.292969 C 0.921875 8.894531 1.101562 8.714844 1.375 8.441406 C 1.699219 8.117188 2.101562 7.714844 2.101562 6.9375 C 2.101562 6.230469 1.769531 5.835938 1.46875 5.527344 C 1.589844 5.335938 1.875 5.058594 2.058594 4.945312 C 2.402344 5.257812 2.835938 5.632812 3.640625 5.632812 C 4.464844 5.632812 4.898438 5.238281 5.246094 4.921875 C 5.542969 4.652344 5.761719 4.453125 6.230469 4.453125 C 6.699219 4.453125 6.914062 4.652344 7.214844 4.921875 C 7.5625 5.238281 7.992188 5.632812 8.820312 5.632812 C 9.644531 5.632812 10.078125 5.238281 10.425781 4.921875 C 10.722656 4.652344 10.941406 4.453125 11.410156 4.453125 C 11.878906 4.453125 12.09375 4.652344 12.394531 4.921875 C 12.742188 5.238281 13.171875 5.632812 14 5.632812 C 14.824219 5.632812 15.257812 5.238281 15.605469 4.921875 C 15.902344 4.652344 16.121094 4.453125 16.589844 4.453125 C 17.058594 4.453125 17.273438 4.652344 17.574219 4.921875 C 17.921875 5.238281 18.351562 5.632812 19.179688 5.632812 C 20.003906 5.632812 20.4375 5.238281 20.785156 4.921875 C 21.082031 4.652344 21.300781 4.453125 21.769531 4.453125 C 22.238281 4.453125 22.453125 4.652344 22.753906 4.921875 C 23.101562 5.238281 23.535156 5.632812 24.359375 5.632812 C 25.160156 5.632812 25.589844 5.261719 25.933594 4.953125 C 26.121094 5.078125 26.394531 5.371094 26.496094 5.558594 C 26.207031 5.863281 25.898438 6.253906 25.898438 6.9375 C 25.898438 7.714844 26.300781 8.117188 26.625 8.441406 C 26.898438 8.710938 27.078125 8.894531 27.078125 9.289062 C 27.078125 9.6875 26.898438 9.867188 26.625 10.140625 C 26.300781 10.464844 25.898438 10.863281 25.898438 11.644531 C 25.898438 12.425781 26.300781 12.824219 26.625 13.148438 C 26.898438 13.421875 27.078125 13.601562 27.078125 14 C 27.078125 14.398438 26.898438 14.578125 26.625 14.851562 Z M 26.625 14.851562 "/>
<path style=" stroke:none;fill-rule:nonzero;fill:rgb(0%,0%,0%);fill-opacity:1;" d="M 23.898438 7.171875 L 4.101562 7.171875 C 3.84375 7.171875 3.640625 7.378906 3.640625 7.632812 L 3.640625 10.09375 C 3.640625 10.347656 3.84375 10.554688 4.101562 10.554688 C 4.355469 10.554688 4.5625 10.347656 4.5625 10.09375 L 4.5625 8.09375 L 23.4375 8.09375 L 23.4375 19.90625 L 4.5625 19.90625 L 4.5625 11.941406 C 4.5625 11.683594 4.355469 11.476562 4.101562 11.476562 C 3.84375 11.476562 3.640625 11.683594 3.640625 11.941406 L 3.640625 20.367188 C 3.640625 20.621094 3.84375 20.828125 4.101562 20.828125 L 23.898438 20.828125 C 24.15625 20.828125 24.359375 20.621094 24.359375 20.367188 L 24.359375 7.632812 C 24.359375 7.378906 24.15625 7.171875 23.898438 7.171875 Z M 23.898438 7.171875 "/>
</g>
</svg>
