<?xml version="1.0" encoding="UTF-8"?>
<svg xmlns="http://www.w3.org/2000/svg" xmlns:xlink="http://www.w3.org/1999/xlink" width="28pt" height="28pt" viewBox="0 0 28 28" version="1.1">
<g id="surface1">
<path style=" stroke:none;fill-rule:nonzero;fill:rgb(0%,0%,0%);fill-opacity:1;" d="M 12.03125 14.570312 L 9.011719 14.570312 L 9.011719 0.988281 L 10.878906 0.988281 C 11.117188 2.496094 12.425781 3.652344 14 3.652344 C 15.574219 3.652344 16.882812 2.496094 17.121094 0.988281 L 18.988281 0.988281 L 18.988281 8.546875 C 18.988281 8.820312 19.207031 9.042969 19.480469 9.042969 C 19.753906 9.042969 19.972656 8.820312 19.972656 8.546875 L 19.972656 7.21875 L 21.035156 7.75 C 21.105469 7.785156 21.183594 7.800781 21.257812 7.800781 C 21.414062 7.800781 21.566406 7.726562 21.660156 7.589844 L 24.03125 4.234375 C 24.179688 4.023438 24.140625 3.734375 23.945312 3.570312 L 19.796875 0.117188 C 19.710938 0.0429688 19.601562 0 19.480469 0 L 8.519531 0 C 8.398438 0 8.289062 0.0429688 8.203125 0.117188 L 4.058594 3.570312 C 3.859375 3.734375 3.820312 4.023438 3.96875 4.234375 L 6.339844 7.589844 C 6.433594 7.726562 6.585938 7.800781 6.742188 7.800781 C 6.816406 7.800781 6.894531 7.785156 6.964844 7.75 L 8.027344 7.21875 L 8.027344 15.066406 C 8.027344 15.335938 8.246094 15.558594 8.519531 15.558594 L 12.03125 15.558594 C 12.304688 15.558594 12.527344 15.335938 12.527344 15.066406 C 12.527344 14.792969 12.304688 14.570312 12.03125 14.570312 Z M 21.097656 6.675781 L 19.972656 6.113281 L 19.972656 1.546875 L 22.960938 4.039062 Z M 14 2.664062 C 12.972656 2.664062 12.109375 1.949219 11.886719 0.988281 L 16.113281 0.988281 C 15.890625 1.949219 15.027344 2.664062 14 2.664062 Z M 6.902344 6.675781 L 5.039062 4.039062 L 8.027344 1.546875 L 8.027344 6.113281 Z M 6.902344 6.675781 "/>
<path style=" stroke:none;fill-rule:nonzero;fill:rgb(0%,0%,0%);fill-opacity:1;" d="M 23.546875 9.617188 L 13.621094 9.617188 C 13.347656 9.617188 13.125 9.835938 13.125 10.109375 L 13.125 27.507812 C 13.125 27.777344 13.347656 28 13.621094 28 L 17.421875 28 C 17.683594 28 17.898438 27.796875 17.914062 27.535156 L 18.582031 15.503906 L 19.253906 27.535156 C 19.265625 27.796875 19.484375 28 19.746094 28 L 23.546875 28 C 23.820312 28 24.039062 27.777344 24.039062 27.507812 L 24.039062 10.109375 C 24.039062 9.835938 23.820312 9.617188 23.546875 9.617188 Z M 23.054688 11.707031 L 21.496094 11.707031 L 21.496094 10.601562 L 23.054688 10.601562 Z M 16.65625 11.707031 L 16.65625 10.601562 L 20.507812 10.601562 L 20.507812 11.707031 Z M 15.671875 10.601562 L 15.671875 11.707031 L 14.113281 11.707031 L 14.113281 10.601562 Z M 20.210938 27.011719 L 19.542969 14.941406 C 19.527344 14.679688 19.308594 14.472656 19.046875 14.472656 L 18.117188 14.472656 C 17.855469 14.472656 17.640625 14.679688 17.625 14.941406 L 16.953125 27.011719 L 14.113281 27.011719 L 14.113281 12.695312 L 23.054688 12.695312 L 23.054688 27.011719 Z M 20.210938 27.011719 "/>
</g>
</svg>
