<?xml version="1.0" encoding="UTF-8"?>
<svg xmlns="http://www.w3.org/2000/svg" xmlns:xlink="http://www.w3.org/1999/xlink" width="28pt" height="27pt" viewBox="0 0 28 27" version="1.1">
<g id="surface1">
<path style=" stroke:none;fill-rule:nonzero;fill:rgb(0%,0%,0%);fill-opacity:1;" d="M 26.472656 25.527344 L 26.472656 11.78125 L 26.988281 11.78125 L 26.988281 10.800781 L 22.707031 10.800781 L 20.175781 6.152344 C 20.085938 5.992188 19.914062 5.890625 19.722656 5.890625 L 16.800781 5.890625 L 16.800781 0.980469 C 16.800781 0.710938 16.570312 0.492188 16.289062 0.492188 L 11.710938 0.492188 C 11.429688 0.492188 11.199219 0.710938 11.199219 0.980469 L 11.199219 5.890625 L 8.277344 5.890625 C 8.085938 5.890625 7.914062 5.992188 7.824219 6.152344 L 5.292969 10.800781 L 1.019531 10.800781 L 1.019531 11.78125 L 1.527344 11.78125 L 1.527344 25.527344 L 0 25.527344 L 0 26.507812 L 28 26.507812 L 28 25.527344 Z M 12.21875 1.472656 L 15.78125 1.472656 L 15.78125 5.890625 L 12.21875 5.890625 Z M 8.582031 6.871094 L 19.417969 6.871094 L 21.558594 10.800781 L 6.441406 10.800781 Z M 5.601562 11.78125 L 25.453125 11.78125 L 25.453125 13.746094 L 2.546875 13.746094 L 2.546875 11.78125 Z M 16.804688 23.074219 L 16.527344 23.074219 C 18.789062 20.410156 17.289062 16.789062 17.269531 16.75 C 17.199219 16.582031 17.039062 16.46875 16.855469 16.449219 C 16.667969 16.429688 16.488281 16.507812 16.382812 16.65625 C 16.1875 16.925781 16.015625 17.164062 15.859375 17.382812 C 15.613281 16.804688 14.984375 15.949219 13.382812 15.484375 C 13.203125 15.433594 13.011719 15.480469 12.875 15.609375 C 12.324219 16.140625 12.03125 16.703125 11.886719 17.222656 C 11.617188 17.042969 11.285156 16.871094 10.871094 16.722656 C 10.742188 16.675781 10.597656 16.679688 10.472656 16.738281 C 10.347656 16.796875 10.253906 16.898438 10.207031 17.027344 C 9.296875 19.648438 10.753906 21.898438 11.78125 23.074219 L 10.6875 23.074219 C 9.847656 23.074219 9.164062 23.734375 9.164062 24.546875 L 9.164062 25.035156 C 9.164062 25.207031 9.199219 25.371094 9.257812 25.527344 L 6.109375 25.527344 L 6.109375 14.726562 L 21.890625 14.726562 L 21.890625 25.527344 L 18.234375 25.527344 C 18.289062 25.371094 18.328125 25.207031 18.328125 25.035156 L 18.328125 24.546875 C 18.328125 23.734375 17.644531 23.074219 16.804688 23.074219 Z M 13.179688 23.074219 C 12.621094 22.558594 10.503906 20.417969 11.027344 17.867188 C 11.425781 18.074219 11.660156 18.296875 11.792969 18.492188 C 11.847656 18.980469 11.988281 19.304688 12.003906 19.339844 C 12.09375 19.535156 12.304688 19.65625 12.527344 19.632812 C 12.746094 19.613281 12.929688 19.453125 12.972656 19.242188 C 12.980469 19.207031 13.066406 18.75 12.789062 18.199219 C 12.773438 17.734375 12.882812 17.117188 13.390625 16.523438 C 14.222656 16.820312 14.773438 17.296875 14.960938 17.875 C 15.066406 18.191406 15.039062 18.46875 14.972656 18.652344 C 14.515625 19.359375 14.617188 19.433594 14.886719 19.625 C 14.980469 19.695312 15.316406 19.882812 15.671875 19.453125 C 15.765625 19.339844 15.839844 19.210938 15.898438 19.070312 C 16.078125 18.8125 16.335938 18.449219 16.613281 18.054688 C 16.898438 19.304688 17.035156 21.53125 15.085938 23.074219 Z M 2.546875 25.527344 L 2.546875 14.726562 L 5.089844 14.726562 L 5.089844 25.527344 Z M 10.6875 25.527344 C 10.410156 25.527344 10.183594 25.304688 10.183594 25.035156 L 10.183594 24.546875 C 10.183594 24.277344 10.410156 24.054688 10.6875 24.054688 L 16.804688 24.054688 C 17.082031 24.054688 17.308594 24.277344 17.308594 24.546875 L 17.308594 25.035156 C 17.308594 25.304688 17.082031 25.527344 16.804688 25.527344 Z M 22.910156 25.527344 L 22.910156 14.726562 L 25.453125 14.726562 L 25.453125 25.527344 Z M 22.910156 25.527344 "/>
</g>
</svg>
