<?xml version="1.0" encoding="UTF-8"?>
<svg xmlns="http://www.w3.org/2000/svg" xmlns:xlink="http://www.w3.org/1999/xlink" width="28pt" height="28pt" viewBox="0 0 28 28" version="1.1">
<g id="surface1">
<path style=" stroke:none;fill-rule:nonzero;fill:rgb(0%,0%,0%);fill-opacity:1;" d="M 24.460938 16.667969 L 24.441406 16.394531 C 24.117188 12.21875 22.175781 9.601562 20.460938 7.292969 C 18.871094 5.15625 17.5 3.308594 17.5 0.585938 C 17.5 0.367188 17.378906 0.164062 17.183594 0.0664062 C 16.988281 -0.0351562 16.753906 -0.0195312 16.578125 0.109375 C 14 1.953125 11.851562 5.058594 11.101562 8.023438 C 10.578125 10.089844 10.511719 12.410156 10.5 13.941406 C 8.121094 13.433594 7.582031 9.875 7.578125 9.835938 C 7.550781 9.652344 7.4375 9.488281 7.273438 9.402344 C 7.109375 9.316406 6.914062 9.308594 6.746094 9.394531 C 6.621094 9.453125 3.683594 10.945312 3.511719 16.90625 C 3.5 17.101562 3.5 17.300781 3.5 17.5 C 3.5 23.289062 8.210938 28 14 28 C 19.789062 28 24.5 23.289062 24.5 17.5 C 24.5 17.210938 24.480469 16.9375 24.460938 16.667969 Z M 14 26.832031 C 12.070312 26.832031 10.5 25.160156 10.5 23.105469 C 10.5 23.035156 10.5 22.964844 10.503906 22.878906 C 10.527344 22.011719 10.691406 21.417969 10.875 21.023438 C 11.210938 21.753906 11.816406 22.421875 12.800781 22.421875 C 13.121094 22.421875 13.382812 22.160156 13.382812 21.835938 C 13.382812 21.007812 13.398438 20.046875 13.605469 19.183594 C 13.789062 18.417969 14.230469 17.601562 14.789062 16.945312 C 15.035156 17.796875 15.519531 18.484375 15.988281 19.152344 C 16.664062 20.113281 17.363281 21.105469 17.484375 22.796875 C 17.492188 22.894531 17.5 22.996094 17.5 23.105469 C 17.5 25.160156 15.929688 26.832031 14 26.832031 Z M 17.6875 26.070312 C 18.292969 25.246094 18.667969 24.226562 18.667969 23.105469 C 18.667969 22.96875 18.65625 22.839844 18.640625 22.601562 C 18.503906 20.695312 17.675781 19.519531 16.945312 18.480469 C 16.320312 17.597656 15.785156 16.832031 15.785156 15.75 C 15.785156 15.527344 15.660156 15.328125 15.460938 15.226562 C 15.261719 15.128906 15.023438 15.152344 14.847656 15.285156 C 13.730469 16.128906 12.796875 17.554688 12.472656 18.910156 C 12.304688 19.609375 12.246094 20.363281 12.226562 20.980469 C 11.824219 20.546875 11.695312 19.742188 11.695312 19.730469 C 11.667969 19.542969 11.554688 19.378906 11.386719 19.292969 C 11.21875 19.203125 11.019531 19.203125 10.851562 19.289062 C 10.703125 19.363281 9.414062 20.105469 9.339844 22.828125 C 9.335938 22.921875 9.332031 23.011719 9.332031 23.105469 C 9.332031 24.226562 9.707031 25.246094 10.3125 26.070312 C 6.996094 24.640625 4.667969 21.335938 4.667969 17.5 C 4.667969 17.324219 4.667969 17.152344 4.679688 16.957031 C 4.777344 13.460938 5.898438 11.726562 6.628906 10.960938 C 7.136719 12.785156 8.472656 15.167969 11.082031 15.167969 C 11.40625 15.167969 11.667969 14.90625 11.667969 14.582031 C 11.667969 12.632812 11.710938 10.375 12.234375 8.308594 C 12.824219 5.96875 14.449219 3.445312 16.40625 1.734375 C 16.730469 4.230469 18.09375 6.0625 19.523438 7.988281 C 21.222656 10.277344 22.980469 12.644531 23.277344 16.476562 L 23.296875 16.753906 C 23.3125 16.996094 23.332031 17.238281 23.332031 17.5 C 23.332031 21.335938 21.003906 24.640625 17.6875 26.070312 Z M 17.6875 26.070312 "/>
</g>
</svg>
