<?xml version="1.0" encoding="UTF-8"?>
<svg xmlns="http://www.w3.org/2000/svg" xmlns:xlink="http://www.w3.org/1999/xlink" width="28pt" height="28pt" viewBox="0 0 28 28" version="1.1">
<g id="surface1">
<path style=" stroke:none;fill-rule:nonzero;fill:rgb(0%,0%,0%);fill-opacity:1;" d="M 23.125 0 L 23.121094 0 C 22.386719 0 21.753906 0.550781 21.648438 1.277344 L 19.480469 16.457031 C 19.375 17.183594 19.832031 17.859375 20.542969 18.039062 L 21.269531 18.21875 L 20.878906 26.039062 C 20.851562 26.554688 21.035156 27.042969 21.390625 27.417969 C 21.746094 27.792969 22.226562 28 22.746094 28 C 23.773438 28 24.613281 27.160156 24.613281 26.132812 L 24.613281 1.488281 C 24.613281 0.667969 23.945312 0 23.125 0 Z M 23.707031 26.132812 C 23.707031 26.660156 23.273438 27.09375 22.746094 27.09375 C 22.480469 27.09375 22.230469 26.988281 22.046875 26.792969 C 21.863281 26.601562 21.769531 26.347656 21.785156 26.082031 L 22.195312 17.894531 C 22.203125 17.675781 22.0625 17.484375 21.851562 17.429688 L 20.761719 17.160156 C 20.503906 17.09375 20.339844 16.847656 20.378906 16.585938 L 22.546875 1.40625 C 22.585938 1.121094 22.835938 0.90625 23.121094 0.90625 L 23.125 0.90625 C 23.445312 0.90625 23.707031 1.167969 23.707031 1.488281 Z M 23.707031 26.132812 "/>
<path style=" stroke:none;fill-rule:nonzero;fill:rgb(0%,0%,0%);fill-opacity:1;" d="M 17.355469 0.429688 C 17.34375 0.179688 17.128906 -0.0117188 16.878906 0 C 16.628906 0.0117188 16.4375 0.226562 16.449219 0.476562 L 16.835938 8.222656 L 15.421875 8.222656 L 15.421875 0.453125 C 15.421875 0.203125 15.21875 0 14.96875 0 C 14.71875 0 14.515625 0.203125 14.515625 0.453125 L 14.515625 8.222656 L 13.097656 8.222656 L 13.484375 0.476562 C 13.496094 0.226562 13.304688 0.0117188 13.054688 0 C 12.804688 -0.0117188 12.59375 0.179688 12.578125 0.429688 L 12.121094 9.558594 C 12.097656 10.054688 12.339844 10.535156 12.753906 10.8125 L 13.300781 11.175781 C 13.449219 11.277344 13.535156 11.441406 13.53125 11.621094 L 13.101562 26.082031 C 13.089844 26.589844 13.277344 27.070312 13.628906 27.433594 C 13.984375 27.800781 14.460938 28 14.96875 28 C 15.476562 28 15.949219 27.800781 16.304688 27.433594 C 16.660156 27.070312 16.847656 26.589844 16.832031 26.082031 L 16.40625 11.621094 C 16.398438 11.441406 16.484375 11.277344 16.632812 11.175781 L 17.179688 10.8125 C 17.59375 10.535156 17.835938 10.054688 17.8125 9.558594 Z M 16.679688 10.058594 L 16.128906 10.421875 C 15.71875 10.695312 15.484375 11.152344 15.496094 11.648438 L 15.925781 26.109375 C 15.933594 26.367188 15.835938 26.617188 15.65625 26.800781 C 15.472656 26.988281 15.230469 27.09375 14.96875 27.09375 C 14.707031 27.09375 14.460938 26.988281 14.28125 26.800781 C 14.097656 26.617188 14.003906 26.367188 14.011719 26.109375 L 14.4375 11.648438 C 14.453125 11.152344 14.214844 10.695312 13.804688 10.421875 L 13.257812 10.058594 C 13.109375 9.957031 13.019531 9.785156 13.027344 9.601562 L 13.054688 9.132812 L 16.882812 9.132812 L 16.90625 9.601562 C 16.914062 9.785156 16.828125 9.957031 16.679688 10.058594 Z M 16.679688 10.058594 "/>
<path style=" stroke:none;fill-rule:nonzero;fill:rgb(0%,0%,0%);fill-opacity:1;" d="M 7.226562 0 C 6.28125 0 4.972656 0.472656 4.109375 2.734375 C 3.574219 4.125 3.386719 5.761719 3.386719 6.742188 C 3.386719 8.09375 4.074219 9.320312 5.230469 10.023438 C 5.550781 10.21875 5.734375 10.550781 5.726562 10.90625 L 5.359375 26.085938 C 5.34375 26.59375 5.535156 27.074219 5.886719 27.4375 C 6.242188 27.800781 6.71875 28 7.226562 28 C 7.734375 28 8.210938 27.800781 8.566406 27.4375 C 8.921875 27.074219 9.109375 26.59375 9.097656 26.085938 L 8.726562 10.90625 C 8.71875 10.550781 8.902344 10.21875 9.226562 10.023438 C 10.378906 9.320312 11.066406 8.09375 11.066406 6.742188 C 11.066406 5.761719 10.878906 4.125 10.34375 2.734375 C 9.480469 0.472656 8.171875 0 7.226562 0 Z M 8.753906 9.246094 C 8.160156 9.609375 7.800781 10.253906 7.820312 10.929688 L 8.1875 26.105469 C 8.195312 26.367188 8.097656 26.613281 7.914062 26.800781 C 7.734375 26.988281 7.488281 27.09375 7.226562 27.09375 C 6.964844 27.09375 6.71875 26.988281 6.539062 26.800781 C 6.355469 26.613281 6.257812 26.367188 6.265625 26.105469 L 6.632812 10.929688 C 6.652344 10.253906 6.292969 9.609375 5.703125 9.246094 C 4.820312 8.710938 4.292969 7.773438 4.292969 6.742188 C 4.292969 4.839844 5.011719 0.90625 7.226562 0.90625 C 9.441406 0.90625 10.160156 4.839844 10.160156 6.742188 C 10.160156 7.773438 9.632812 8.710938 8.753906 9.246094 Z M 8.753906 9.246094 "/>
</g>
</svg>
