<?xml version="1.0" encoding="UTF-8"?>
<svg xmlns="http://www.w3.org/2000/svg" xmlns:xlink="http://www.w3.org/1999/xlink" width="28pt" height="28pt" viewBox="0 0 28 28" version="1.1">
<g id="surface1">
<path style=" stroke:none;fill-rule:nonzero;fill:rgb(0%,0%,0%);fill-opacity:1;" d="M 28 2.710938 L 28 0 L 0 0 L 0 2.710938 L 0.902344 2.710938 L 0.902344 23.484375 L 0 23.484375 L 0 28 L 3.613281 28 L 3.613281 27.546875 C 3.613281 26.800781 4.222656 26.195312 4.96875 26.195312 L 23.03125 26.195312 C 23.777344 26.195312 24.386719 26.800781 24.386719 27.546875 L 24.386719 28 L 28 28 L 28 23.484375 L 27.097656 23.484375 L 27.097656 2.710938 Z M 2.753906 27.097656 L 0.902344 27.097656 L 0.902344 26.195312 L 3.171875 26.195312 C 2.972656 26.457031 2.824219 26.761719 2.753906 27.097656 Z M 27.097656 27.097656 L 25.246094 27.097656 C 25.175781 26.761719 25.027344 26.457031 24.828125 26.195312 L 27.097656 26.195312 Z M 27.097656 25.289062 L 0.902344 25.289062 L 0.902344 24.386719 L 27.097656 24.386719 Z M 1.804688 23.484375 L 1.804688 2.710938 L 26.195312 2.710938 L 26.195312 23.484375 Z M 0.902344 1.804688 L 0.902344 0.902344 L 27.097656 0.902344 L 27.097656 1.804688 Z M 0.902344 1.804688 "/>
<path style=" stroke:none;fill-rule:nonzero;fill:rgb(0%,0%,0%);fill-opacity:1;" d="M 11.289062 22.582031 L 23.03125 22.582031 L 23.03125 3.613281 L 11.289062 3.613281 Z M 12.195312 4.515625 L 22.128906 4.515625 L 22.128906 21.675781 L 12.195312 21.675781 Z M 12.195312 4.515625 "/>
<path style=" stroke:none;fill-rule:nonzero;fill:rgb(0%,0%,0%);fill-opacity:1;" d="M 14 19.871094 L 20.324219 19.871094 L 20.324219 6.324219 L 14 6.324219 Z M 14.902344 7.226562 L 19.417969 7.226562 L 19.417969 8.128906 L 14.902344 8.128906 Z M 14.902344 9.03125 L 19.417969 9.03125 L 19.417969 9.933594 L 14.902344 9.933594 Z M 14.902344 10.839844 L 19.417969 10.839844 L 19.417969 11.742188 L 14.902344 11.742188 Z M 14.902344 12.644531 L 19.417969 12.644531 L 19.417969 13.546875 L 14.902344 13.546875 Z M 14.902344 14.453125 L 19.417969 14.453125 L 19.417969 15.355469 L 14.902344 15.355469 Z M 14.902344 16.257812 L 19.417969 16.257812 L 19.417969 17.160156 L 14.902344 17.160156 Z M 14.902344 18.066406 L 19.417969 18.066406 L 19.417969 18.96875 L 14.902344 18.96875 Z M 14.902344 18.066406 "/>
<path style=" stroke:none;fill-rule:nonzero;fill:rgb(0%,0%,0%);fill-opacity:1;" d="M 12.644531 11.289062 L 13.546875 11.289062 L 13.546875 14.902344 L 12.644531 14.902344 Z M 12.644531 11.289062 "/>
<path style=" stroke:none;fill-rule:nonzero;fill:rgb(0%,0%,0%);fill-opacity:1;" d="M 2.710938 8.128906 L 9.03125 8.128906 L 9.03125 3.613281 L 2.710938 3.613281 Z M 3.613281 4.515625 L 8.128906 4.515625 L 8.128906 7.226562 L 3.613281 7.226562 Z M 3.613281 4.515625 "/>
<path style=" stroke:none;fill-rule:nonzero;fill:rgb(0%,0%,0%);fill-opacity:1;" d="M 4.515625 5.417969 L 5.417969 5.417969 L 5.417969 6.324219 L 4.515625 6.324219 Z M 4.515625 5.417969 "/>
<path style=" stroke:none;fill-rule:nonzero;fill:rgb(0%,0%,0%);fill-opacity:1;" d="M 6.324219 5.417969 L 7.226562 5.417969 L 7.226562 6.324219 L 6.324219 6.324219 Z M 6.324219 5.417969 "/>
<path style=" stroke:none;fill-rule:nonzero;fill:rgb(0%,0%,0%);fill-opacity:1;" d="M 2.710938 9.03125 L 3.613281 9.03125 L 3.613281 9.933594 L 2.710938 9.933594 Z M 2.710938 9.03125 "/>
<path style=" stroke:none;fill-rule:nonzero;fill:rgb(0%,0%,0%);fill-opacity:1;" d="M 4.515625 9.03125 L 5.417969 9.03125 L 5.417969 9.933594 L 4.515625 9.933594 Z M 4.515625 9.03125 "/>
<path style=" stroke:none;fill-rule:nonzero;fill:rgb(0%,0%,0%);fill-opacity:1;" d="M 6.324219 9.03125 L 7.226562 9.03125 L 7.226562 9.933594 L 6.324219 9.933594 Z M 6.324219 9.03125 "/>
<path style=" stroke:none;fill-rule:nonzero;fill:rgb(0%,0%,0%);fill-opacity:1;" d="M 8.128906 9.03125 L 9.03125 9.03125 L 9.03125 9.933594 L 8.128906 9.933594 Z M 8.128906 9.03125 "/>
</g>
</svg>
