<?xml version="1.0" encoding="UTF-8"?>
<svg xmlns="http://www.w3.org/2000/svg" xmlns:xlink="http://www.w3.org/1999/xlink" width="28pt" height="28pt" viewBox="0 0 28 28" version="1.1">
<g id="surface1">
<path style=" stroke:none;fill-rule:nonzero;fill:rgb(0%,0%,0%);fill-opacity:1;" d="M 27.417969 23.332031 L 3.5 23.332031 L 3.5 21 L 7.582031 21 C 7.90625 21 8.167969 20.738281 8.167969 20.417969 L 8.167969 17.5 L 12.25 17.5 C 12.574219 17.5 12.832031 17.238281 12.832031 16.917969 L 12.832031 14 L 16.917969 14 C 17.238281 14 17.5 13.738281 17.5 13.417969 L 17.5 10.5 L 21.582031 10.5 C 21.90625 10.5 22.167969 10.238281 22.167969 9.917969 L 22.167969 7 L 26.25 7 C 26.574219 7 26.832031 6.738281 26.832031 6.417969 C 26.832031 6.09375 26.574219 5.832031 26.25 5.832031 L 21.582031 5.832031 C 21.261719 5.832031 21 6.09375 21 6.417969 L 21 9.332031 L 16.917969 9.332031 C 16.59375 9.332031 16.332031 9.59375 16.332031 9.917969 L 16.332031 12.832031 L 12.25 12.832031 C 11.925781 12.832031 11.667969 13.09375 11.667969 13.417969 L 11.667969 16.332031 L 7.582031 16.332031 C 7.261719 16.332031 7 16.59375 7 16.917969 L 7 19.832031 L 2.917969 19.832031 C 2.59375 19.832031 2.332031 20.09375 2.332031 20.417969 L 2.332031 23.332031 L 0.582031 23.332031 C 0.261719 23.332031 0 23.59375 0 23.917969 C 0 24.238281 0.261719 24.5 0.582031 24.5 L 27.417969 24.5 C 27.738281 24.5 28 24.238281 28 23.917969 C 28 23.59375 27.738281 23.332031 27.417969 23.332031 Z M 27.417969 23.332031 "/>
<path style=" stroke:none;fill-rule:nonzero;fill:rgb(0%,0%,0%);fill-opacity:1;" d="M 4.082031 12.832031 C 4.21875 12.832031 4.355469 12.785156 4.46875 12.6875 L 12.183594 5.9375 L 11.695312 7.398438 C 11.59375 7.703125 11.761719 8.035156 12.066406 8.136719 C 12.128906 8.15625 12.1875 8.164062 12.25 8.164062 C 12.492188 8.164062 12.722656 8.011719 12.804688 7.765625 L 13.96875 4.265625 C 14.035156 4.070312 13.992188 3.859375 13.859375 3.703125 C 13.726562 3.546875 13.523438 3.476562 13.320312 3.507812 L 9.820312 4.089844 C 9.503906 4.144531 9.289062 4.441406 9.339844 4.761719 C 9.394531 5.078125 9.703125 5.296875 10.011719 5.242188 L 11.488281 4.996094 L 3.699219 11.808594 C 3.457031 12.023438 3.429688 12.390625 3.644531 12.632812 C 3.757812 12.765625 3.921875 12.832031 4.082031 12.832031 Z M 4.082031 12.832031 "/>
</g>
</svg>
