<?xml version="1.0" encoding="UTF-8"?>
<svg xmlns="http://www.w3.org/2000/svg" xmlns:xlink="http://www.w3.org/1999/xlink" width="28pt" height="28pt" viewBox="0 0 28 28" version="1.1">
<g id="surface1">
<path style=" stroke:none;fill-rule:nonzero;fill:rgb(0%,0%,0%);fill-opacity:1;" d="M 26.996094 4.371094 L 20.5 4.371094 C 19.945312 4.371094 19.496094 4.820312 19.496094 5.375 L 19.496094 8.636719 L 14 8.636719 C 13.445312 8.636719 12.996094 9.085938 12.996094 9.640625 L 12.996094 13.09375 L 7.5 13.09375 C 6.949219 13.09375 6.5 13.542969 6.5 14.097656 L 6.5 17.359375 L 1.003906 17.359375 C 0.449219 17.359375 0 17.808594 0 18.359375 L 0 22.625 C 0 23.179688 0.449219 23.628906 1.003906 23.628906 L 26.996094 23.628906 C 27.550781 23.628906 28 23.179688 28 22.625 L 28 5.375 C 28 4.820312 27.550781 4.371094 26.996094 4.371094 Z M 25.992188 21.621094 L 2.007812 21.621094 L 2.007812 19.363281 L 7.5 19.363281 C 8.054688 19.363281 8.503906 18.914062 8.503906 18.359375 L 8.503906 15.101562 L 14 15.101562 C 14.554688 15.101562 15.003906 14.652344 15.003906 14.097656 L 15.003906 10.640625 L 20.5 10.640625 C 21.050781 10.640625 21.5 10.191406 21.5 9.640625 L 21.5 6.378906 L 25.992188 6.378906 Z M 25.992188 21.621094 "/>
</g>
</svg>
