<?xml version="1.0" encoding="UTF-8"?>
<svg xmlns="http://www.w3.org/2000/svg" xmlns:xlink="http://www.w3.org/1999/xlink" width="28pt" height="28pt" viewBox="0 0 28 28" version="1.1">
<g id="surface1">
<path style=" stroke:none;fill-rule:nonzero;fill:rgb(1.176471%,0.392157%,1.568627%);fill-opacity:1;" d="M 3.808594 25.777344 C 3.808594 25.777344 3.78125 26.402344 4.394531 26.402344 C 5.15625 26.402344 11.453125 26.394531 11.453125 26.394531 L 11.460938 20.613281 C 11.460938 20.613281 11.363281 19.660156 12.289062 19.660156 L 15.214844 19.660156 C 16.3125 19.660156 16.242188 20.613281 16.242188 20.613281 L 16.230469 26.378906 C 16.230469 26.378906 22.203125 26.378906 23.140625 26.378906 C 23.917969 26.378906 23.878906 25.597656 23.878906 25.597656 L 23.878906 14.9375 L 14.144531 6.273438 L 3.808594 14.9375 C 3.808594 14.9375 3.808594 25.777344 3.808594 25.777344 Z M 3.808594 25.777344 "/>
<path style=" stroke:none;fill-rule:nonzero;fill:rgb(1.176471%,0.392157%,1.568627%);fill-opacity:1;" d="M 0 14.128906 C 0 14.128906 0.878906 15.746094 2.792969 14.128906 L 14.230469 4.453125 L 24.953125 14.070312 C 27.171875 15.667969 28 14.070312 28 14.070312 L 14.230469 1.597656 Z M 0 14.128906 "/>
<path style=" stroke:none;fill-rule:nonzero;fill:rgb(1.176471%,0.392157%,1.568627%);fill-opacity:1;" d="M 24.695312 4.429688 L 21.9375 4.429688 L 21.945312 7.773438 L 24.695312 10.105469 Z M 24.695312 4.429688 "/>
</g>
</svg>
