<?xml version="1.0" encoding="UTF-8"?>
<svg xmlns="http://www.w3.org/2000/svg" xmlns:xlink="http://www.w3.org/1999/xlink" width="28pt" height="28pt" viewBox="0 0 28 28" version="1.1">
<g id="surface1">
<path style=" stroke:none;fill-rule:nonzero;fill:rgb(0%,0%,0%);fill-opacity:1;" d="M 4.445312 14.46875 L 4.445312 11.003906 C 4.445312 10.382812 3.941406 9.875 3.320312 9.875 L 1.128906 9.875 C 0.515625 9.875 0.015625 10.363281 0 10.972656 C 0.0703125 11.582031 0.777344 17.800781 0.886719 19.992188 C 0.917969 20.652344 1.402344 21.152344 2.015625 21.152344 L 2.664062 21.152344 C 2.484375 20.816406 2.378906 20.429688 2.378906 20.023438 L 2.378906 16.828125 C 2.378906 15.621094 3.28125 14.625 4.445312 14.46875 Z M 4.445312 14.46875 "/>
<path style=" stroke:none;fill-rule:nonzero;fill:rgb(0%,0%,0%);fill-opacity:1;" d="M 24.367188 20.023438 L 24.367188 16.828125 C 24.367188 16.207031 23.859375 15.703125 23.238281 15.703125 L 4.761719 15.703125 C 4.136719 15.703125 3.632812 16.207031 3.632812 16.828125 L 3.632812 20.023438 C 3.632812 20.644531 4.136719 21.152344 4.761719 21.152344 L 23.238281 21.152344 C 23.863281 21.152344 24.367188 20.644531 24.367188 20.023438 Z M 24.367188 20.023438 "/>
<path style=" stroke:none;fill-rule:nonzero;fill:rgb(0%,0%,0%);fill-opacity:1;" d="M 24.679688 9.875 C 24.058594 9.875 23.554688 10.382812 23.554688 11.003906 L 23.554688 14.46875 C 24.71875 14.625 25.621094 15.621094 25.621094 16.828125 L 25.621094 20.023438 C 25.621094 20.429688 25.515625 20.816406 25.335938 21.152344 L 25.984375 21.152344 C 26.597656 21.152344 27.082031 20.652344 27.113281 19.992188 C 27.222656 17.800781 27.929688 11.582031 28 10.972656 C 27.984375 10.363281 27.484375 9.875 26.871094 9.875 Z M 24.679688 9.875 "/>
<path style=" stroke:none;fill-rule:nonzero;fill:rgb(0%,0%,0%);fill-opacity:1;" d="M 4.039062 22.292969 C 3.808594 22.367188 3.566406 22.402344 3.320312 22.402344 L 2.753906 22.402344 L 1.84375 25.878906 C 1.753906 26.210938 1.953125 26.554688 2.289062 26.644531 C 2.34375 26.65625 2.394531 26.664062 2.449219 26.664062 C 2.726562 26.664062 2.980469 26.476562 3.054688 26.195312 L 4.078125 22.304688 C 4.0625 22.300781 4.050781 22.296875 4.039062 22.292969 Z M 4.039062 22.292969 "/>
<path style=" stroke:none;fill-rule:nonzero;fill:rgb(0%,0%,0%);fill-opacity:1;" d="M 25.246094 22.402344 L 24.679688 22.402344 C 24.433594 22.402344 24.191406 22.367188 23.960938 22.292969 C 23.949219 22.296875 23.933594 22.300781 23.921875 22.304688 L 24.945312 26.195312 C 25.019531 26.476562 25.273438 26.664062 25.550781 26.664062 C 25.605469 26.664062 25.65625 26.65625 25.710938 26.644531 C 26.046875 26.554688 26.246094 26.210938 26.15625 25.878906 Z M 25.246094 22.402344 "/>
<path style=" stroke:none;fill-rule:nonzero;fill:rgb(0%,0%,0%);fill-opacity:1;" d="M 24.433594 1.757812 C 24.171875 1.492188 23.808594 1.335938 23.433594 1.335938 L 4.566406 1.335938 C 4.191406 1.335938 3.828125 1.492188 3.566406 1.761719 C 3.328125 2.007812 3.203125 2.328125 3.214844 2.660156 C 3.253906 3.652344 3.433594 6.121094 3.628906 8.644531 C 4.796875 8.796875 5.699219 9.796875 5.699219 11.003906 L 5.699219 14.449219 L 22.300781 14.449219 L 22.300781 11.003906 C 22.300781 9.808594 23.183594 8.820312 24.332031 8.648438 C 24.535156 6.121094 24.746094 3.65625 24.785156 2.660156 C 24.796875 2.328125 24.671875 2.007812 24.433594 1.757812 Z M 11.277344 10.804688 L 10.898438 10.804688 C 10.554688 10.804688 10.273438 10.523438 10.273438 10.179688 C 10.273438 9.832031 10.554688 9.550781 10.898438 9.550781 L 11.277344 9.550781 C 11.621094 9.550781 11.902344 9.832031 11.902344 10.179688 C 11.902344 10.523438 11.621094 10.804688 11.277344 10.804688 Z M 11.277344 6.167969 L 10.898438 6.167969 C 10.554688 6.167969 10.273438 5.886719 10.273438 5.542969 C 10.273438 5.195312 10.554688 4.917969 10.898438 4.917969 L 11.277344 4.917969 C 11.621094 4.917969 11.902344 5.195312 11.902344 5.542969 C 11.902344 5.886719 11.621094 6.167969 11.277344 6.167969 Z M 17.101562 10.804688 L 16.722656 10.804688 C 16.378906 10.804688 16.097656 10.523438 16.097656 10.179688 C 16.097656 9.832031 16.378906 9.550781 16.722656 9.550781 L 17.101562 9.550781 C 17.445312 9.550781 17.726562 9.832031 17.726562 10.179688 C 17.726562 10.523438 17.445312 10.804688 17.101562 10.804688 Z M 17.101562 6.167969 L 16.722656 6.167969 C 16.378906 6.167969 16.097656 5.886719 16.097656 5.542969 C 16.097656 5.195312 16.378906 4.917969 16.722656 4.917969 L 17.101562 4.917969 C 17.445312 4.917969 17.726562 5.195312 17.726562 5.542969 C 17.726562 5.886719 17.445312 6.167969 17.101562 6.167969 Z M 17.101562 6.167969 "/>
</g>
</svg>
