<?xml version="1.0" encoding="UTF-8"?>
<svg xmlns="http://www.w3.org/2000/svg" xmlns:xlink="http://www.w3.org/1999/xlink" width="28pt" height="28pt" viewBox="0 0 28 28" version="1.1">
<g id="surface1">
<path style=" stroke:none;fill-rule:nonzero;fill:rgb(0%,0%,0%);fill-opacity:1;" d="M 4.554688 23.140625 C 4.269531 23.140625 3.988281 23.101562 3.726562 23.03125 L 3.726562 25.066406 L 5.386719 25.066406 L 5.386719 23.03125 C 5.121094 23.101562 4.84375 23.140625 4.554688 23.140625 Z M 4.554688 23.140625 "/>
<path style=" stroke:none;fill-rule:nonzero;fill:rgb(0%,0%,0%);fill-opacity:1;" d="M 23.445312 23.140625 C 23.15625 23.140625 22.878906 23.101562 22.613281 23.03125 L 22.613281 25.066406 L 24.273438 25.066406 L 24.273438 23.03125 C 24.011719 23.101562 23.730469 23.140625 23.445312 23.140625 Z M 23.445312 23.140625 "/>
<path style=" stroke:none;fill-rule:nonzero;fill:rgb(0%,0%,0%);fill-opacity:1;" d="M 9.277344 2.933594 C 8.433594 2.933594 7.75 3.617188 7.75 4.460938 L 7.75 19.949219 C 7.75 20.789062 8.433594 21.476562 9.277344 21.476562 C 10.121094 21.476562 10.808594 20.789062 10.808594 19.949219 L 10.808594 4.460938 C 10.808594 3.617188 10.121094 2.933594 9.277344 2.933594 Z M 9.277344 2.933594 "/>
<path style=" stroke:none;fill-rule:nonzero;fill:rgb(0%,0%,0%);fill-opacity:1;" d="M 14 2.933594 C 13.15625 2.933594 12.472656 3.617188 12.472656 4.460938 L 12.472656 19.949219 C 12.472656 20.789062 13.15625 21.476562 14 21.476562 C 14.84375 21.476562 15.527344 20.789062 15.527344 19.949219 L 15.527344 4.460938 C 15.527344 3.617188 14.84375 2.933594 14 2.933594 Z M 14 2.933594 "/>
<path style=" stroke:none;fill-rule:nonzero;fill:rgb(0%,0%,0%);fill-opacity:1;" d="M 18.722656 2.933594 C 17.878906 2.933594 17.191406 3.617188 17.191406 4.460938 L 17.191406 19.949219 C 17.191406 20.789062 17.878906 21.476562 18.722656 21.476562 C 19.566406 21.476562 20.25 20.789062 20.25 19.949219 L 20.25 4.460938 C 20.25 3.617188 19.566406 2.933594 18.722656 2.933594 Z M 18.722656 2.933594 "/>
<path style=" stroke:none;fill-rule:nonzero;fill:rgb(0%,0%,0%);fill-opacity:1;" d="M 4.554688 2.933594 C 3.714844 2.933594 3.027344 3.617188 3.027344 4.460938 L 3.027344 6.757812 L 0 6.757812 L 0 9.480469 L 3.027344 9.480469 L 3.027344 19.949219 C 3.027344 20.789062 3.714844 21.476562 4.554688 21.476562 C 5.398438 21.476562 6.085938 20.789062 6.085938 19.949219 L 6.085938 4.460938 C 6.085938 3.617188 5.398438 2.933594 4.554688 2.933594 Z M 4.554688 2.933594 "/>
<path style=" stroke:none;fill-rule:nonzero;fill:rgb(0%,0%,0%);fill-opacity:1;" d="M 26.636719 4.996094 L 26.335938 4.996094 L 26.335938 6.757812 L 24.972656 6.757812 L 24.972656 4.460938 C 24.972656 3.617188 24.285156 2.933594 23.445312 2.933594 C 22.601562 2.933594 21.914062 3.617188 21.914062 4.460938 L 21.914062 19.949219 C 21.914062 20.789062 22.601562 21.476562 23.445312 21.476562 C 24.285156 21.476562 24.972656 20.789062 24.972656 19.949219 L 24.972656 9.480469 L 26.335938 9.480469 L 26.335938 11.242188 L 28 11.242188 L 28 4.996094 Z M 26.636719 4.996094 "/>
</g>
</svg>
