<?xml version="1.0" encoding="UTF-8"?>
<svg xmlns="http://www.w3.org/2000/svg" xmlns:xlink="http://www.w3.org/1999/xlink" width="28pt" height="28pt" viewBox="0 0 28 28" version="1.1">
<g id="surface1">
<path style=" stroke:none;fill-rule:nonzero;fill:rgb(0%,0%,0%);fill-opacity:1;" d="M 22.324219 6.089844 L 20.546875 0.847656 C 20.351562 0.265625 19.722656 -0.0429688 19.140625 0.152344 C 18.558594 0.347656 18.25 0.980469 18.445312 1.558594 L 19.722656 5.316406 L 8.410156 5.316406 L 9.6875 1.539062 C 9.882812 0.960938 9.574219 0.328125 8.992188 0.132812 C 8.410156 -0.0625 7.78125 0.246094 7.585938 0.828125 L 5.808594 6.070312 C 5.695312 6.40625 5.75 6.78125 5.957031 7.070312 C 6.167969 7.363281 6.503906 7.535156 6.859375 7.535156 L 11.15625 7.535156 L 11.15625 13.296875 L 6.613281 14.488281 C 6.246094 14.582031 5.9375 14.828125 5.765625 15.164062 C 5.59375 15.5 5.570312 15.890625 5.703125 16.246094 L 7.511719 21.042969 C 7.710938 21.578125 8.21875 21.90625 8.757812 21.90625 C 8.914062 21.90625 9.074219 21.878906 9.226562 21.820312 C 9.914062 21.5625 10.261719 20.792969 10.003906 20.105469 L 8.71875 16.691406 L 11.453125 15.972656 L 14.472656 15.972656 L 15.824219 19.890625 L 14.425781 26.386719 C 14.273438 27.105469 14.730469 27.816406 15.449219 27.96875 C 15.542969 27.992188 15.636719 28 15.730469 28 C 16.34375 28 16.898438 27.574219 17.03125 26.949219 L 18.503906 20.089844 C 18.558594 19.851562 18.542969 19.605469 18.464844 19.375 L 17.039062 15.234375 L 17.039062 7.554688 L 21.273438 7.554688 C 21.628906 7.554688 21.964844 7.382812 22.175781 7.089844 C 22.382812 6.800781 22.4375 6.425781 22.324219 6.089844 Z M 22.324219 6.089844 "/>
<path style=" stroke:none;fill-rule:nonzero;fill:rgb(0%,0%,0%);fill-opacity:1;" d="M 16.410156 2.300781 C 16.410156 3.570312 15.378906 4.601562 14.109375 4.601562 C 12.839844 4.601562 11.808594 3.570312 11.808594 2.300781 C 11.808594 1.03125 12.839844 0 14.109375 0 C 15.378906 0 16.410156 1.03125 16.410156 2.300781 Z M 16.410156 2.300781 "/>
</g>
</svg>
