<?xml version="1.0" encoding="UTF-8"?>
<svg xmlns="http://www.w3.org/2000/svg" xmlns:xlink="http://www.w3.org/1999/xlink" width="28pt" height="28pt" viewBox="0 0 28 28" version="1.1">
<g id="surface1">
<path style=" stroke:none;fill-rule:nonzero;fill:rgb(0%,0%,0%);fill-opacity:1;" d="M 9.496094 14.347656 C 9.511719 14.050781 9.53125 13.75 9.570312 13.445312 C 9.644531 12.730469 9.800781 12.007812 9.957031 11.308594 C 10.054688 10.957031 10.160156 10.613281 10.269531 10.273438 C 10.410156 9.945312 10.550781 9.617188 10.6875 9.296875 C 10.996094 8.671875 11.347656 8.089844 11.761719 7.597656 C 11.859375 7.472656 11.957031 7.351562 12.054688 7.230469 C 12.164062 7.121094 12.273438 7.011719 12.378906 6.90625 C 12.601562 6.707031 12.792969 6.488281 13.015625 6.328125 C 13.457031 6 13.847656 5.691406 14.246094 5.496094 C 14.632812 5.28125 14.960938 5.097656 15.257812 4.992188 C 15.839844 4.757812 16.171875 4.640625 16.171875 4.640625 C 16.171875 4.640625 15.890625 4.863281 15.398438 5.226562 C 15.140625 5.390625 14.871094 5.652344 14.550781 5.921875 C 14.21875 6.179688 13.914062 6.546875 13.554688 6.898438 C 13.375 7.078125 13.234375 7.304688 13.0625 7.511719 C 12.980469 7.617188 12.894531 7.722656 12.808594 7.832031 C 12.738281 7.953125 12.664062 8.070312 12.589844 8.195312 C 12.269531 8.664062 12.03125 9.21875 11.785156 9.78125 C 11.683594 10.074219 11.582031 10.371094 11.476562 10.671875 C 11.402344 10.984375 11.324219 11.300781 11.238281 11.617188 C 11.109375 12.265625 10.980469 12.925781 10.925781 13.605469 C 10.886719 13.851562 10.867188 14.097656 10.84375 14.351562 C 16.242188 14.351562 20.417969 14.355469 26.265625 14.355469 C 26.285156 14.097656 26.292969 13.839844 26.292969 13.578125 C 26.292969 8.65625 22.707031 4.601562 18.089844 4.0625 C 18.390625 3.785156 18.578125 3.390625 18.578125 2.949219 C 18.582031 2.105469 17.894531 1.421875 17.050781 1.421875 C 16.207031 1.421875 15.523438 2.105469 15.523438 2.949219 C 15.523438 3.390625 15.710938 3.785156 16.007812 4.0625 C 11.394531 4.601562 7.804688 8.65625 7.804688 13.578125 C 7.804688 13.835938 7.816406 14.09375 7.835938 14.347656 C 8.40625 14.347656 8.957031 14.347656 9.496094 14.347656 Z M 9.496094 14.347656 "/>
<path style=" stroke:none;fill-rule:nonzero;fill:rgb(0%,0%,0%);fill-opacity:1;" d="M 6.125 14.917969 L 27.980469 14.917969 L 27.980469 16.847656 L 6.125 16.847656 Z M 6.125 14.917969 "/>
<path style=" stroke:none;fill-rule:nonzero;fill:rgb(0%,0%,0%);fill-opacity:1;" d="M 19.007812 18.214844 C 17.894531 18.753906 14.023438 20.152344 14.023438 20.152344 L 9.445312 19.863281 C 9.445312 19.863281 12.0625 19.136719 13.078125 18.910156 C 14.09375 18.679688 13.652344 17.535156 13.089844 17.535156 C 12.527344 17.535156 7.628906 17.738281 7.628906 17.738281 L 4.375 18.910156 L 5.234375 24.359375 C 5.234375 24.359375 5.90625 23.210938 6.574219 23.210938 C 7.246094 23.210938 13.054688 23.367188 13.84375 23.210938 C 14.632812 23.054688 19.4375 19.769531 20.011719 19.386719 C 20.585938 19.003906 20.121094 17.675781 19.007812 18.214844 Z M 19.007812 18.214844 "/>
<path style=" stroke:none;fill-rule:nonzero;fill:rgb(0%,0%,0%);fill-opacity:1;" d="M 0 19.496094 L 0 26.558594 L 4.984375 25.625 L 3.738281 18.835938 Z M 0 19.496094 "/>
</g>
</svg>
