<?xml version="1.0" encoding="UTF-8"?>
<svg xmlns="http://www.w3.org/2000/svg" xmlns:xlink="http://www.w3.org/1999/xlink" width="28pt" height="28pt" viewBox="0 0 28 28" version="1.1">
<g id="surface1">
<path style=" stroke:none;fill-rule:nonzero;fill:rgb(0%,0%,0.392157%);fill-opacity:1;" d="M 27.542969 12.542969 L 14.800781 0.320312 C 14.351562 -0.105469 13.644531 -0.105469 13.199219 0.320312 L 0.40625 12.589844 C 0.0625 12.917969 -0.0429688 13.417969 0.132812 13.855469 C 0.308594 14.292969 0.734375 14.582031 1.203125 14.582031 L 2.605469 14.582031 L 2.605469 26.84375 C 2.605469 27.480469 3.125 28 3.765625 28 L 24.234375 28 C 24.871094 28 25.390625 27.480469 25.390625 26.84375 L 25.390625 14.582031 L 26.792969 14.582031 C 26.792969 14.582031 26.792969 14.582031 26.796875 14.582031 C 27.433594 14.582031 27.953125 14.0625 27.953125 13.425781 C 27.953125 13.070312 27.792969 12.753906 27.542969 12.542969 Z M 7.992188 17.296875 C 7.992188 14.847656 9.449219 12.738281 11.542969 11.785156 C 11.542969 11.816406 11.539062 11.847656 11.539062 11.882812 C 11.539062 12.660156 11.703125 13.585938 12.042969 14.359375 C 11.15625 14.984375 10.574219 16.015625 10.574219 17.183594 C 10.574219 17.359375 10.589844 17.53125 10.613281 17.703125 C 9.804688 17.925781 8.996094 18.363281 8.433594 18.800781 C 8.363281 18.859375 8.296875 18.917969 8.230469 18.972656 C 8.074219 18.441406 7.992188 17.878906 7.992188 17.296875 Z M 19.863281 18.972656 C 19.796875 18.914062 19.726562 18.859375 19.65625 18.800781 C 19.089844 18.359375 18.269531 17.914062 17.445312 17.695312 C 17.472656 17.527344 17.484375 17.355469 17.484375 17.183594 C 17.484375 16.011719 16.898438 14.972656 16.003906 14.347656 C 16.339844 13.578125 16.503906 12.65625 16.503906 11.882812 C 16.503906 11.839844 16.5 11.800781 16.5 11.761719 C 18.617188 12.703125 20.101562 14.828125 20.101562 17.296875 C 20.101562 17.878906 20.015625 18.441406 19.863281 18.972656 Z M 12.886719 17.183594 C 12.886719 16.550781 13.402344 16.039062 14.03125 16.039062 C 14.660156 16.039062 15.171875 16.550781 15.171875 17.183594 C 15.171875 17.8125 14.660156 18.324219 14.03125 18.324219 C 13.402344 18.324219 12.886719 17.8125 12.886719 17.183594 Z M 11.488281 22.714844 C 12.171875 22.183594 12.871094 21.382812 13.253906 20.546875 C 13.503906 20.605469 13.761719 20.636719 14.03125 20.636719 C 14.308594 20.636719 14.582031 20.601562 14.839844 20.539062 C 14.886719 20.640625 14.941406 20.746094 15 20.855469 C 15.382812 21.542969 15.96875 22.21875 16.601562 22.714844 C 16.621094 22.730469 16.640625 22.742188 16.660156 22.757812 C 15.867188 23.136719 14.980469 23.351562 14.046875 23.351562 C 13.109375 23.351562 12.222656 23.136719 11.429688 22.757812 C 11.449219 22.742188 11.46875 22.730469 11.488281 22.714844 Z M 11.488281 22.714844 "/>
</g>
</svg>
