<?xml version="1.0" encoding="UTF-8"?>
<svg xmlns="http://www.w3.org/2000/svg" xmlns:xlink="http://www.w3.org/1999/xlink" width="28pt" height="28pt" viewBox="0 0 28 28" version="1.1">
<g id="surface1">
<path style=" stroke:none;fill-rule:nonzero;fill:rgb(0%,0%,0%);fill-opacity:1;" d="M 26.019531 10.199219 L 26.019531 9.457031 C 26.019531 8.9375 25.597656 8.511719 25.074219 8.511719 L 18.476562 8.511719 L 18.476562 3.316406 L 18.492188 3.316406 C 19.082031 3.316406 19.554688 2.839844 19.554688 2.257812 L 19.554688 1.058594 C 19.554688 0.476562 19.082031 0 18.492188 0 L 9.363281 0 C 8.777344 0 8.304688 0.476562 8.304688 1.058594 L 8.304688 2.257812 C 8.304688 2.839844 8.777344 3.316406 9.363281 3.316406 L 9.382812 3.316406 L 9.382812 8.511719 L 2.785156 8.511719 C 2.261719 8.511719 1.835938 8.9375 1.835938 9.457031 L 1.835938 10.199219 C 1.835938 11.9375 3.246094 13.347656 4.988281 13.359375 L 4.988281 24.453125 C 3.246094 24.460938 1.835938 25.875 1.835938 27.613281 L 1.835938 27.859375 L 26.019531 27.859375 L 26.019531 27.613281 C 26.019531 25.875 24.613281 24.460938 22.871094 24.453125 L 22.871094 13.359375 C 24.613281 13.347656 26.019531 11.9375 26.019531 10.199219 Z M 19.25 22.9375 L 16.109375 22.9375 C 16.75 22.496094 17.015625 21.84375 17.015625 21.191406 C 17.015625 19.953125 15.667969 19.882812 15.472656 17.886719 C 15.453125 17.695312 15.207031 17.621094 15.09375 17.777344 C 14.730469 18.273438 14.273438 19.203125 14.617188 20.453125 C 14.617188 20.453125 12.902344 19.824219 14.09375 18.003906 C 14.664062 17.128906 14.121094 15.410156 13.929688 15.410156 C 13.738281 15.410156 13.902344 16.617188 12.894531 17.542969 C 10.695312 19.566406 10.90625 21.972656 12.1875 22.9375 L 8.609375 22.9375 L 8.609375 13.347656 L 19.25 13.347656 Z M 19.25 22.9375 "/>
</g>
</svg>
