<?xml version="1.0" encoding="UTF-8"?>
<svg xmlns="http://www.w3.org/2000/svg" xmlns:xlink="http://www.w3.org/1999/xlink" width="28pt" height="28pt" viewBox="0 0 28 28" version="1.1">
<g id="surface1">
<path style=" stroke:none;fill-rule:nonzero;fill:rgb(0%,0%,0%);fill-opacity:1;" d="M 27.371094 22.496094 L 26.230469 15.65625 C 26.183594 15.375 25.941406 15.167969 25.65625 15.167969 L 20.988281 15.167969 C 20.703125 15.167969 20.460938 15.375 20.414062 15.65625 L 19.246094 22.65625 C 19.21875 22.824219 19.265625 22.996094 19.375 23.125 C 19.488281 23.257812 19.648438 23.332031 19.820312 23.332031 L 22.679688 23.332031 C 22.394531 25.308594 20.707031 26.832031 18.65625 26.832031 C 16.605469 26.832031 14.917969 25.308594 14.632812 23.332031 L 17.488281 23.332031 C 17.496094 23.332031 17.503906 23.335938 17.511719 23.332031 C 17.832031 23.332031 18.09375 23.070312 18.09375 22.75 C 18.09375 22.660156 18.074219 22.574219 18.039062 22.496094 L 16.898438 15.65625 C 16.851562 15.375 16.605469 15.167969 16.320312 15.167969 L 14.570312 15.167969 L 14.570312 3.5 L 15.15625 3.5 C 16.765625 3.5 18.070312 2.191406 18.070312 0.582031 C 18.070312 0.261719 17.808594 0 17.488281 0 L 10.488281 0 C 10.167969 0 9.90625 0.261719 9.90625 0.582031 C 9.90625 2.191406 11.210938 3.5 12.820312 3.5 L 13.40625 3.5 L 13.40625 15.167969 L 11.65625 15.167969 C 11.371094 15.167969 11.125 15.375 11.078125 15.652344 L 9.914062 22.652344 C 9.886719 22.824219 9.933594 22.996094 10.042969 23.125 C 10.15625 23.257812 10.316406 23.332031 10.488281 23.332031 L 13.34375 23.332031 C 13.058594 25.308594 11.371094 26.832031 9.320312 26.832031 C 7.269531 26.832031 5.582031 25.308594 5.296875 23.332031 L 8.15625 23.332031 C 8.164062 23.332031 8.171875 23.335938 8.179688 23.332031 C 8.5 23.332031 8.761719 23.070312 8.761719 22.75 C 8.761719 22.660156 8.742188 22.574219 8.703125 22.496094 L 7.5625 15.652344 C 7.515625 15.375 7.273438 15.167969 6.988281 15.167969 L 2.320312 15.167969 C 2.035156 15.167969 1.792969 15.375 1.746094 15.652344 L 0.578125 22.652344 C 0.550781 22.824219 0.597656 22.996094 0.710938 23.125 C 0.820312 23.257812 0.984375 23.332031 1.15625 23.332031 L 4.132812 23.332031 C 4.425781 25.953125 6.625 28 9.320312 28 C 10.980469 28 12.441406 27.210938 13.40625 26.007812 L 13.40625 27.417969 C 13.40625 27.738281 13.667969 28 13.988281 28 C 14.308594 28 14.570312 27.738281 14.570312 27.417969 L 14.570312 26.007812 C 15.535156 27.210938 16.996094 28 18.65625 28 C 21.351562 28 23.550781 25.953125 23.84375 23.332031 L 26.820312 23.332031 C 26.828125 23.332031 26.839844 23.335938 26.84375 23.332031 C 27.167969 23.332031 27.429688 23.070312 27.429688 22.75 C 27.429688 22.660156 27.40625 22.574219 27.371094 22.496094 Z M 1.84375 22.167969 L 2.816406 16.332031 L 6.492188 16.332031 L 7.464844 22.167969 Z M 12.820312 2.332031 C 12.0625 2.332031 11.414062 1.84375 11.171875 1.167969 L 16.804688 1.167969 C 16.5625 1.84375 15.914062 2.332031 15.15625 2.332031 Z M 11.175781 22.167969 L 12.148438 16.332031 L 15.828125 16.332031 L 16.800781 22.167969 Z M 20.511719 22.167969 L 21.484375 16.332031 L 25.160156 16.332031 L 26.132812 22.167969 Z M 20.511719 22.167969 "/>
</g>
</svg>
