<?xml version="1.0" encoding="UTF-8"?>
<svg xmlns="http://www.w3.org/2000/svg" xmlns:xlink="http://www.w3.org/1999/xlink" width="28pt" height="28pt" viewBox="0 0 28 28" version="1.1">
<g id="surface1">
<path style=" stroke:none;fill-rule:nonzero;fill:rgb(0%,0%,0%);fill-opacity:1;" d="M 22.1875 4.335938 C 20.867188 3.085938 19.234375 2.21875 17.460938 1.820312 C 16.679688 0.679688 15.382812 0 14 0 C 12.617188 0 11.320312 0.679688 10.539062 1.820312 C 8.765625 2.21875 7.132812 3.085938 5.8125 4.335938 C 5.695312 4.453125 5.652344 4.625 5.695312 4.785156 C 5.738281 4.945312 5.863281 5.070312 6.023438 5.113281 C 6.855469 5.332031 7.699219 5.511719 8.550781 5.644531 C 8.453125 5.765625 8.398438 5.914062 8.398438 6.066406 C 8.398438 6.632812 9.058594 6.910156 9.800781 7.082031 L 9.800781 7.851562 C 9.058594 8.023438 8.398438 8.296875 8.398438 8.867188 C 8.398438 9.433594 9.058594 9.707031 9.800781 9.882812 L 9.800781 10.648438 C 9.058594 10.824219 8.398438 11.097656 8.398438 11.667969 C 8.398438 12.273438 9.167969 12.546875 9.925781 12.710938 C 10.292969 13.390625 10.921875 13.890625 11.667969 14.09375 L 11.667969 24.375 C 9.925781 24.535156 7.464844 24.964844 7.464844 26.132812 C 7.464844 27.949219 13.332031 28 14 28 C 14.667969 28 20.535156 27.949219 20.535156 26.132812 C 20.535156 24.964844 18.074219 24.535156 16.332031 24.375 L 16.332031 14.09375 C 17.078125 13.890625 17.707031 13.390625 18.074219 12.710938 C 18.835938 12.546875 19.601562 12.269531 19.601562 11.667969 C 19.601562 11.097656 18.941406 10.824219 18.199219 10.648438 L 18.199219 9.882812 C 18.941406 9.707031 19.601562 9.433594 19.601562 8.867188 C 19.601562 8.296875 18.941406 8.023438 18.199219 7.851562 L 18.199219 7.082031 C 18.941406 6.910156 19.601562 6.632812 19.601562 6.066406 C 19.601562 5.914062 19.546875 5.765625 19.449219 5.644531 C 20.300781 5.511719 21.144531 5.332031 21.976562 5.113281 C 22.136719 5.070312 22.261719 4.945312 22.304688 4.785156 C 22.347656 4.625 22.304688 4.453125 22.1875 4.335938 Z M 9.800781 11.71875 C 9.738281 11.699219 9.679688 11.683594 9.632812 11.667969 C 9.679688 11.652344 9.738281 11.632812 9.800781 11.617188 Z M 9.800781 8.917969 C 9.738281 8.898438 9.679688 8.882812 9.632812 8.867188 C 9.679688 8.851562 9.738281 8.832031 9.800781 8.816406 Z M 14 0.933594 C 15.332031 0.929688 16.535156 1.738281 17.03125 2.976562 C 15.027344 3.355469 12.972656 3.355469 10.96875 2.976562 C 11.464844 1.738281 12.667969 0.929688 14 0.933594 Z M 9.800781 6.117188 C 9.738281 6.101562 9.679688 6.082031 9.632812 6.066406 C 9.679688 6.050781 9.738281 6.03125 9.800781 6.015625 Z M 19.574219 26.132812 C 19.238281 26.492188 17.234375 27.066406 14 27.066406 C 10.765625 27.066406 8.761719 26.492188 8.425781 26.132812 C 8.636719 25.921875 9.621094 25.507812 11.667969 25.3125 L 11.667969 25.886719 C 11.667969 26.09375 11.804688 26.277344 12.007812 26.335938 C 13.3125 26.6875 14.6875 26.6875 15.992188 26.335938 C 16.195312 26.277344 16.332031 26.09375 16.332031 25.886719 L 16.332031 25.3125 C 18.378906 25.507812 19.363281 25.921875 19.574219 26.132812 Z M 12.601562 25.523438 L 12.601562 14.339844 C 13.527344 14.507812 14.472656 14.507812 15.398438 14.339844 L 15.398438 25.523438 C 14.476562 25.710938 13.523438 25.710938 12.601562 25.523438 Z M 14 13.535156 C 13.09375 13.558594 12.199219 13.355469 11.394531 12.9375 C 12.261719 13.027344 13.128906 13.070312 14 13.066406 C 14.871094 13.070312 15.738281 13.027344 16.605469 12.9375 C 15.800781 13.355469 14.90625 13.558594 14 13.535156 Z M 17.265625 11.910156 C 16.183594 12.066406 15.09375 12.140625 14 12.132812 C 12.90625 12.140625 11.816406 12.066406 10.734375 11.910156 L 10.734375 10.058594 C 11.289062 10.136719 11.921875 10.195312 12.601562 10.230469 L 12.601562 10.734375 C 12.601562 11.507812 13.226562 12.132812 14 12.132812 C 14.773438 12.132812 15.398438 11.507812 15.398438 10.734375 L 15.398438 10.230469 C 16.078125 10.195312 16.710938 10.136719 17.265625 10.058594 Z M 14 10.265625 C 14.15625 10.265625 14.3125 10.265625 14.464844 10.261719 L 14.464844 10.734375 C 14.464844 10.992188 14.257812 11.199219 14 11.199219 C 13.742188 11.199219 13.535156 10.992188 13.535156 10.734375 L 13.535156 10.261719 C 13.6875 10.265625 13.84375 10.265625 14 10.265625 Z M 13.535156 9.328125 L 13.535156 8.867188 C 13.535156 8.609375 13.742188 8.398438 14 8.398438 C 14.257812 8.398438 14.464844 8.609375 14.464844 8.867188 L 14.464844 9.328125 C 14.3125 9.332031 14.15625 9.332031 14 9.332031 C 13.84375 9.332031 13.6875 9.332031 13.535156 9.328125 Z M 17.265625 9.113281 C 16.648438 9.207031 16.023438 9.265625 15.398438 9.296875 L 15.398438 8.867188 C 15.398438 8.09375 14.773438 7.464844 14 7.464844 C 13.226562 7.464844 12.601562 8.09375 12.601562 8.867188 L 12.601562 9.296875 C 11.976562 9.265625 11.351562 9.207031 10.734375 9.113281 L 10.734375 7.257812 C 11.816406 7.402344 12.90625 7.472656 14 7.464844 C 15.09375 7.472656 16.183594 7.402344 17.265625 7.257812 Z M 17.265625 6.3125 C 16.183594 6.46875 15.09375 6.539062 14 6.535156 C 12.90625 6.539062 11.816406 6.46875 10.734375 6.3125 L 10.734375 6.066406 L 17.265625 6.066406 Z M 18.367188 11.667969 C 18.320312 11.683594 18.261719 11.699219 18.199219 11.71875 L 18.199219 11.617188 C 18.261719 11.632812 18.320312 11.652344 18.367188 11.667969 Z M 18.367188 8.867188 C 18.320312 8.882812 18.261719 8.898438 18.199219 8.917969 L 18.199219 8.816406 C 18.261719 8.832031 18.320312 8.851562 18.367188 8.867188 Z M 18.199219 6.117188 L 18.199219 6.015625 C 18.261719 6.03125 18.320312 6.050781 18.367188 6.066406 C 18.320312 6.082031 18.261719 6.101562 18.199219 6.117188 Z M 14 5.132812 C 11.6875 5.148438 9.378906 4.910156 7.117188 4.421875 C 7.984375 3.769531 8.957031 3.269531 9.992188 2.945312 C 9.964844 3.035156 9.9375 3.121094 9.914062 3.214844 C 9.855469 3.464844 10.007812 3.714844 10.257812 3.777344 C 11.484375 4.0625 12.742188 4.207031 14 4.199219 C 15.257812 4.207031 16.515625 4.0625 17.742188 3.777344 C 17.992188 3.714844 18.144531 3.464844 18.085938 3.214844 C 18.0625 3.121094 18.035156 3.035156 18.007812 2.945312 C 19.042969 3.269531 20.015625 3.769531 20.882812 4.421875 C 18.621094 4.910156 16.3125 5.148438 14 5.132812 Z M 14 5.132812 "/>
</g>
</svg>
