<?xml version="1.0" encoding="UTF-8"?>
<svg xmlns="http://www.w3.org/2000/svg" xmlns:xlink="http://www.w3.org/1999/xlink" width="28pt" height="28pt" viewBox="0 0 28 28" version="1.1">
<g id="surface1">
<path style=" stroke:none;fill-rule:nonzero;fill:rgb(0%,0%,0%);fill-opacity:1;" d="M 22.546875 14.925781 C 20.460938 12.835938 17.746094 11.609375 14.828125 11.414062 L 14.828125 0.828125 C 14.828125 0.371094 14.457031 0 14 0 C 13.542969 0 13.171875 0.371094 13.171875 0.828125 L 13.171875 11.414062 C 10.257812 11.609375 7.539062 12.835938 5.453125 14.925781 C 3.171875 17.207031 1.914062 20.242188 1.914062 23.46875 C 1.914062 23.925781 2.285156 24.296875 2.742188 24.296875 L 9.671875 24.296875 C 10.0625 26.402344 11.90625 28 14.125 28 C 16.339844 28 18.1875 26.402344 18.574219 24.296875 L 25.261719 24.296875 C 25.71875 24.296875 26.085938 23.925781 26.085938 23.46875 C 26.085938 20.242188 24.828125 17.207031 22.546875 14.925781 Z M 14.125 26.347656 C 12.824219 26.347656 11.726562 25.480469 11.367188 24.296875 L 16.878906 24.296875 C 16.523438 25.480469 15.421875 26.347656 14.125 26.347656 Z M 3.601562 22.644531 C 4.023438 17.277344 8.527344 13.039062 14 13.039062 C 19.476562 13.039062 23.976562 17.277344 24.402344 22.644531 Z M 3.601562 22.644531 "/>
</g>
</svg>
