<?xml version="1.0" encoding="UTF-8"?>
<svg xmlns="http://www.w3.org/2000/svg" xmlns:xlink="http://www.w3.org/1999/xlink" width="28pt" height="28pt" viewBox="0 0 28 28" version="1.1">
<g id="surface1">
<path style=" stroke:none;fill-rule:nonzero;fill:rgb(0%,0%,0%);fill-opacity:1;" d="M 12.109375 12.003906 C 10.667969 12.003906 9.503906 10.832031 9.503906 9.390625 C 9.503906 7.949219 10.679688 6.773438 12.125 6.773438 C 12.867188 6.773438 13.539062 7.085938 14.015625 7.585938 C 14.492188 7.085938 15.164062 6.773438 15.90625 6.773438 C 17.347656 6.773438 18.523438 7.949219 18.523438 9.390625 C 18.523438 10.832031 17.335938 12.003906 15.890625 12.003906 C 15.484375 12.003906 15.121094 11.910156 14.742188 11.746094 L 14.742188 18.65625 C 19.5625 18.269531 23.34375 14.246094 23.34375 9.34375 C 23.34375 4.183594 19.167969 0 14.011719 0 C 8.851562 0 4.65625 4.183594 4.65625 9.34375 C 4.65625 14.246094 8.410156 18.269531 13.230469 18.65625 L 13.230469 11.746094 C 12.945312 11.910156 12.515625 12.003906 12.109375 12.003906 Z M 12.109375 12.003906 "/>
<path style=" stroke:none;fill-rule:nonzero;fill:rgb(0%,0%,0%);fill-opacity:1;" d="M 12.128906 8.285156 C 11.519531 8.285156 11.023438 8.78125 11.023438 9.390625 C 11.023438 9.996094 11.519531 10.492188 12.128906 10.492188 C 12.734375 10.492188 13.230469 9.996094 13.230469 9.390625 C 13.230469 8.78125 12.734375 8.285156 12.128906 8.285156 Z M 12.128906 8.285156 "/>
<path style=" stroke:none;fill-rule:nonzero;fill:rgb(0%,0%,0%);fill-opacity:1;" d="M 15.90625 10.492188 C 16.515625 10.492188 17.011719 9.996094 17.011719 9.390625 C 17.011719 8.78125 16.515625 8.285156 15.90625 8.285156 C 15.300781 8.285156 14.804688 8.78125 14.804688 9.390625 C 14.804688 9.996094 15.300781 10.492188 15.90625 10.492188 Z M 15.90625 10.492188 "/>
<path style=" stroke:none;fill-rule:nonzero;fill:rgb(0%,0%,0%);fill-opacity:1;" d="M 10.804688 20.226562 C 10.019531 20.226562 9.355469 20.832031 9.355469 21.617188 L 9.355469 23.507812 C 9.355469 24.289062 10.019531 24.953125 10.804688 24.953125 L 10.949219 24.953125 C 10.984375 26.652344 12.367188 28 14.066406 28 C 15.765625 28 17.144531 26.652344 17.183594 24.953125 L 17.230469 24.953125 C 18.015625 24.953125 18.617188 24.289062 18.617188 23.507812 L 18.617188 21.617188 C 18.617188 20.832031 18.015625 20.226562 17.230469 20.226562 Z M 10.804688 20.226562 "/>
</g>
</svg>
