<?xml version="1.0" encoding="UTF-8"?>
<svg xmlns="http://www.w3.org/2000/svg" xmlns:xlink="http://www.w3.org/1999/xlink" width="28pt" height="28pt" viewBox="0 0 28 28" version="1.1">
<g id="surface1">
<path style=" stroke:none;fill-rule:nonzero;fill:rgb(0%,0%,0%);fill-opacity:1;" d="M 7.234375 13.984375 C 7.398438 13.984375 7.5625 13.949219 7.71875 13.875 L 21.25 7.507812 C 21.820312 7.238281 22.0625 6.5625 21.792969 5.996094 C 21.527344 5.429688 20.851562 5.1875 20.285156 5.453125 L 6.753906 11.824219 C 6.183594 12.089844 5.941406 12.765625 6.207031 13.332031 C 6.402344 13.742188 6.808594 13.984375 7.234375 13.984375 Z M 7.234375 13.984375 "/>
<path style=" stroke:none;fill-rule:nonzero;fill:rgb(0%,0%,0%);fill-opacity:1;" d="M 7.3125 10.28125 C 7.476562 10.28125 7.640625 10.246094 7.800781 10.171875 L 21.292969 3.71875 C 21.855469 3.449219 22.097656 2.769531 21.824219 2.207031 C 21.554688 1.640625 20.878906 1.402344 20.3125 1.671875 L 6.820312 8.125 C 6.253906 8.394531 6.015625 9.074219 6.285156 9.636719 C 6.480469 10.046875 6.886719 10.28125 7.3125 10.28125 Z M 7.3125 10.28125 "/>
<path style=" stroke:none;fill-rule:nonzero;fill:rgb(0%,0%,0%);fill-opacity:1;" d="M 11.4375 4.734375 C 11.601562 4.734375 11.769531 4.699219 11.925781 4.625 C 13.015625 4.105469 14.113281 3.570312 15.179688 3.054688 C 15.796875 2.753906 16.414062 2.453125 17.035156 2.15625 C 17.597656 1.882812 17.835938 1.207031 17.5625 0.640625 C 17.292969 0.078125 16.613281 -0.160156 16.050781 0.113281 C 15.429688 0.414062 14.808594 0.714844 14.1875 1.011719 C 13.128906 1.527344 12.03125 2.058594 10.949219 2.578125 C 10.382812 2.847656 10.144531 3.523438 10.414062 4.089844 C 10.609375 4.496094 11.015625 4.734375 11.4375 4.734375 Z M 11.4375 4.734375 "/>
<path style=" stroke:none;fill-rule:nonzero;fill:rgb(0%,0%,0%);fill-opacity:1;" d="M 20.285156 12.742188 L 13.5625 15.914062 C 12.996094 16.179688 12.75 16.855469 13.019531 17.421875 C 13.210938 17.832031 13.621094 18.074219 14.046875 18.074219 C 14.207031 18.074219 14.371094 18.039062 14.527344 17.964844 L 21.253906 14.796875 C 21.820312 14.527344 22.0625 13.851562 21.792969 13.285156 C 21.527344 12.71875 20.851562 12.476562 20.285156 12.742188 Z M 20.285156 12.742188 "/>
<path style=" stroke:none;fill-rule:nonzero;fill:rgb(0%,0%,0%);fill-opacity:1;" d="M 21.832031 16.863281 C 21.570312 16.292969 20.894531 16.046875 20.328125 16.308594 L 15.59375 18.488281 C 15.191406 18.675781 14.917969 19.078125 14.917969 19.519531 L 14.917969 20.734375 L 13.027344 20.734375 L 13.027344 19.433594 C 13.027344 19.039062 12.835938 18.671875 12.496094 18.464844 L 9.625 16.714844 L 21.246094 11.25 C 21.816406 10.980469 22.058594 10.308594 21.792969 9.738281 C 21.527344 9.171875 20.851562 8.929688 20.285156 9.195312 L 6.75 15.566406 C 6.183594 15.832031 5.941406 16.507812 6.207031 17.074219 C 6.324219 17.320312 6.496094 17.5 6.722656 17.609375 L 10.757812 20.074219 L 10.757812 20.734375 L 10.695312 20.734375 C 9.914062 20.734375 9.246094 21.371094 9.246094 22.152344 L 9.246094 23.570312 C 9.246094 24.355469 9.914062 24.988281 10.695312 24.988281 L 10.800781 24.988281 C 10.839844 26.679688 12.21875 28.039062 13.917969 28.039062 C 15.617188 28.039062 17 26.679688 17.035156 24.988281 L 17.125 24.988281 C 17.90625 24.988281 18.511719 24.355469 18.511719 23.570312 L 18.511719 22.152344 C 18.511719 21.402344 17.941406 20.789062 17.1875 20.738281 L 17.1875 20.246094 L 21.261719 18.367188 C 21.832031 18.105469 22.09375 17.429688 21.832031 16.863281 Z M 21.832031 16.863281 "/>
</g>
</svg>
