<?xml version="1.0" encoding="UTF-8"?>
<svg xmlns="http://www.w3.org/2000/svg" xmlns:xlink="http://www.w3.org/1999/xlink" width="28pt" height="28pt" viewBox="0 0 28 28" version="1.1">
<g id="surface1">
<path style=" stroke:none;fill-rule:nonzero;fill:rgb(1.176471%,0.392157%,1.568627%);fill-opacity:1;" d="M 14 0 C 6.261719 0 0 6.261719 0 14 C 0 21.738281 6.261719 28 14 28 C 21.738281 28 28 21.738281 28 14 C 28 6.261719 21.738281 0 14 0 Z M 12.25 5.25 C 12.25 4.375 13.125 3.5 14 3.5 C 14.875 3.5 15.75 4.375 15.75 5.25 L 15.75 12.25 C 15.75 13.125 14.875 14 14 14 C 13.125 14 12.25 13.125 12.25 12.25 Z M 14 22.75 C 9.160156 22.75 5.25 18.839844 5.25 14 C 5.25 10.402344 7.410156 7.328125 10.5 5.972656 L 10.5 10.089844 C 9.433594 11.046875 8.75 12.441406 8.75 14 C 8.75 16.898438 11.101562 19.25 14 19.25 C 16.898438 19.25 19.25 16.898438 19.25 14 C 19.25 12.441406 18.566406 11.046875 17.5 10.089844 L 17.5 5.972656 C 20.589844 7.328125 22.75 10.402344 22.75 14 C 22.75 18.839844 18.839844 22.75 14 22.75 Z M 14 22.75 "/>
</g>
</svg>
