<?xml version="1.0" encoding="UTF-8"?>
<svg xmlns="http://www.w3.org/2000/svg" xmlns:xlink="http://www.w3.org/1999/xlink" width="28pt" height="28pt" viewBox="0 0 28 28" version="1.1">
<g id="surface1">
<path style=" stroke:none;fill-rule:nonzero;fill:rgb(0%,0%,0%);fill-opacity:1;" d="M 21.730469 16.535156 C 21.398438 13.820312 19.902344 11.828125 18.050781 11.828125 L 9.820312 11.828125 C 7.96875 11.828125 6.472656 13.816406 6.140625 16.535156 C 4.96875 17.203125 4.351562 18.480469 4.351562 19.957031 C 4.351562 20.886719 4.601562 21.730469 5.066406 22.40625 L 5.066406 25.378906 L 8.976562 25.378906 L 8.976562 23.886719 L 18.894531 23.886719 L 18.894531 25.378906 L 22.804688 25.378906 L 22.804688 22.40625 C 23.269531 21.730469 23.523438 20.886719 23.523438 19.957031 C 23.519531 18.480469 22.902344 17.203125 21.730469 16.535156 Z M 7.664062 21.234375 C 6.957031 21.234375 6.386719 20.667969 6.386719 19.957031 C 6.386719 19.253906 6.957031 18.679688 7.664062 18.679688 C 8.367188 18.679688 8.941406 19.253906 8.941406 19.957031 C 8.941406 20.667969 8.367188 21.234375 7.664062 21.234375 Z M 8.121094 16.03125 C 7.863281 16.03125 7.632812 16.058594 7.402344 16.09375 C 7.769531 14.3125 8.726562 13 9.820312 13 L 18.050781 13 C 19.144531 13 20.101562 14.3125 20.46875 16.09375 C 20.347656 16.078125 20.214844 16.070312 20.089844 16.0625 C 20.089844 16.050781 20.089844 16.039062 20.089844 16.03125 C 20.089844 14.902344 19.175781 13.984375 18.050781 13.984375 C 16.921875 13.984375 16.007812 14.902344 16.007812 16.03125 Z M 17.644531 21.09375 L 10.226562 21.09375 C 10.011719 21.09375 9.835938 20.921875 9.835938 20.707031 C 9.835938 20.492188 10.007812 20.316406 10.226562 20.316406 L 17.644531 20.316406 C 17.859375 20.316406 18.039062 20.492188 18.039062 20.707031 C 18.039062 20.921875 17.859375 21.09375 17.644531 21.09375 Z M 17.644531 19.976562 L 10.226562 19.976562 C 10.011719 19.976562 9.835938 19.800781 9.835938 19.589844 C 9.835938 19.371094 10.007812 19.195312 10.226562 19.195312 L 17.644531 19.195312 C 17.859375 19.195312 18.039062 19.371094 18.039062 19.589844 C 18.039062 19.800781 17.859375 19.976562 17.644531 19.976562 Z M 16.789062 16.03125 C 16.789062 15.335938 17.355469 14.769531 18.050781 14.769531 C 18.742188 14.769531 19.308594 15.335938 19.308594 16.03125 Z M 20.210938 21.234375 C 19.5 21.234375 18.929688 20.667969 18.929688 19.957031 C 18.929688 19.253906 19.5 18.679688 20.210938 18.679688 C 20.914062 18.679688 21.484375 19.253906 21.484375 19.957031 C 21.484375 20.667969 20.914062 21.234375 20.210938 21.234375 Z M 27.867188 2.488281 L 27.867188 25.378906 L 27.089844 25.378906 L 27.089844 3.269531 L 0.78125 3.269531 L 0.78125 25.378906 L 0 25.378906 L 0 2.488281 Z M 1.300781 3.808594 L 26.570312 3.808594 L 26.570312 5.375 L 1.300781 5.375 Z M 1.300781 5.992188 L 26.570312 5.992188 L 26.570312 7.554688 L 1.300781 7.554688 Z M 1.300781 8.171875 L 26.570312 8.171875 L 26.570312 9.730469 L 1.300781 9.730469 Z M 1.300781 8.171875 "/>
</g>
</svg>
