<?xml version="1.0" encoding="UTF-8"?>
<svg xmlns="http://www.w3.org/2000/svg" xmlns:xlink="http://www.w3.org/1999/xlink" width="28pt" height="28pt" viewBox="0 0 28 28" version="1.1">
<g id="surface1">
<path style=" stroke:none;fill-rule:nonzero;fill:rgb(0%,0%,0%);fill-opacity:1;" d="M 21.878906 16.304688 C 21.757812 16.304688 21.632812 16.320312 21.507812 16.355469 L 21.039062 16.484375 L 20.347656 14.800781 C 19.957031 13.855469 18.8125 13.085938 17.789062 13.085938 L 10.195312 13.085938 C 9.175781 13.085938 8.027344 13.855469 7.640625 14.800781 L 6.949219 16.480469 L 6.492188 16.355469 C 6.367188 16.320312 6.242188 16.304688 6.121094 16.304688 C 5.511719 16.304688 5.070312 16.742188 5.070312 17.34375 C 5.070312 17.9375 5.503906 18.4375 6.09375 18.585938 C 5.769531 19.476562 5.519531 20.8125 5.519531 21.691406 L 5.519531 25.277344 C 5.519531 26.042969 6.140625 26.664062 6.90625 26.664062 L 7.417969 26.664062 C 8.183594 26.664062 8.804688 26.042969 8.804688 25.277344 L 8.804688 24.605469 L 19.183594 24.605469 L 19.183594 25.277344 C 19.183594 26.042969 19.804688 26.664062 20.570312 26.664062 L 21.082031 26.664062 C 21.847656 26.664062 22.46875 26.042969 22.46875 25.277344 L 22.46875 21.691406 C 22.46875 20.8125 22.21875 19.480469 21.898438 18.589844 C 22.492188 18.445312 22.929688 17.941406 22.929688 17.34375 C 22.929688 16.742188 22.488281 16.304688 21.878906 16.304688 Z M 7.8125 17.703125 L 8.941406 14.953125 C 9.175781 14.386719 9.863281 13.925781 10.476562 13.925781 L 17.511719 13.925781 C 18.125 13.925781 18.8125 14.386719 19.046875 14.953125 L 20.175781 17.703125 C 20.40625 18.269531 20.097656 18.730469 19.484375 18.730469 L 8.503906 18.730469 C 7.890625 18.730469 7.582031 18.269531 7.8125 17.703125 Z M 10.804688 22.171875 C 10.804688 22.480469 10.554688 22.730469 10.25 22.730469 L 7.949219 22.730469 C 7.640625 22.730469 7.390625 22.480469 7.390625 22.171875 L 7.390625 21.253906 C 7.390625 20.949219 7.640625 20.699219 7.949219 20.699219 L 10.25 20.699219 C 10.554688 20.699219 10.804688 20.949219 10.804688 21.253906 Z M 20.570312 22.171875 C 20.570312 22.480469 20.320312 22.730469 20.015625 22.730469 L 17.710938 22.730469 C 17.40625 22.730469 17.15625 22.480469 17.15625 22.171875 L 17.15625 21.253906 C 17.15625 20.949219 17.40625 20.699219 17.710938 20.699219 L 20.015625 20.699219 C 20.320312 20.699219 20.570312 20.949219 20.570312 21.253906 Z M 20.570312 22.171875 "/>
<path style=" stroke:none;fill-rule:nonzero;fill:rgb(0%,0%,0%);fill-opacity:1;" d="M 27.382812 7.945312 L 14.621094 0.464844 C 14.449219 0.363281 14.230469 0.308594 14 0.308594 C 13.769531 0.308594 13.550781 0.363281 13.378906 0.464844 L 0.617188 7.945312 C 0.265625 8.152344 0 8.613281 0 9.019531 L 0 26.855469 C 0 27.316406 0.375 27.691406 0.832031 27.691406 L 2.265625 27.691406 C 2.726562 27.691406 3.101562 27.316406 3.101562 26.855469 L 3.101562 11.765625 C 3.101562 11.609375 3.226562 11.488281 3.378906 11.488281 L 24.621094 11.488281 C 24.773438 11.488281 24.898438 11.609375 24.898438 11.765625 L 24.898438 26.855469 C 24.898438 27.316406 25.273438 27.691406 25.734375 27.691406 L 27.167969 27.691406 C 27.625 27.691406 28 27.316406 28 26.855469 L 28 9.019531 C 28 8.613281 27.734375 8.152344 27.382812 7.945312 Z M 27.382812 7.945312 "/>
</g>
</svg>
