<?xml version="1.0" encoding="UTF-8"?>
<svg xmlns="http://www.w3.org/2000/svg" xmlns:xlink="http://www.w3.org/1999/xlink" width="28pt" height="28pt" viewBox="0 0 28 28" version="1.1">
<g id="surface1">
<path style=" stroke:none;fill-rule:nonzero;fill:rgb(0%,0%,0%);fill-opacity:1;" d="M 6.59375 10.054688 C 6.59375 5.945312 9.941406 2.597656 14.054688 2.597656 C 18.167969 2.597656 21.515625 5.945312 21.515625 10.054688 C 21.515625 10.652344 21.4375 11.230469 21.304688 11.789062 C 21.824219 11.96875 22.316406 12.210938 22.769531 12.507812 C 22.988281 11.726562 23.113281 10.90625 23.113281 10.054688 C 23.113281 5.0625 19.050781 1 14.054688 1 C 9.058594 1 4.996094 5.0625 4.996094 10.054688 C 4.996094 10.90625 5.121094 11.726562 5.34375 12.507812 C 5.792969 12.210938 6.285156 11.96875 6.804688 11.789062 C 6.671875 11.230469 6.59375 10.652344 6.59375 10.054688 Z M 6.59375 10.054688 "/>
<path style=" stroke:none;fill-rule:nonzero;fill:rgb(0%,0%,0%);fill-opacity:1;" d="M 23.902344 10.40625 C 23.882812 11.023438 23.804688 11.625 23.671875 12.207031 C 25.398438 13.574219 26.507812 15.683594 26.507812 18.050781 C 26.507812 22.164062 23.160156 25.511719 19.050781 25.511719 C 16.800781 25.511719 14.78125 24.507812 13.414062 22.925781 C 13.023438 23.285156 12.582031 23.59375 12.109375 23.851562 C 13.773438 25.839844 16.261719 27.109375 19.050781 27.109375 C 24.042969 27.109375 28.109375 23.046875 28.109375 18.050781 C 28.109375 14.839844 26.429688 12.015625 23.902344 10.40625 Z M 23.902344 10.40625 "/>
<path style=" stroke:none;fill-rule:nonzero;fill:rgb(0%,0%,0%);fill-opacity:1;" d="M 22.5 19.210938 C 22.609375 19.128906 22.667969 18.972656 22.667969 18.746094 C 22.667969 18.570312 22.628906 18.445312 22.554688 18.363281 C 22.476562 18.285156 22.347656 18.242188 22.15625 18.242188 C 21.972656 18.242188 21.792969 18.246094 21.613281 18.257812 L 21.613281 19.332031 L 22.023438 19.332031 C 22.226562 19.335938 22.386719 19.292969 22.5 19.210938 Z M 22.5 19.210938 "/>
<path style=" stroke:none;fill-rule:nonzero;fill:rgb(0%,0%,0%);fill-opacity:1;" d="M 22.398438 21.097656 C 22.492188 21.078125 22.570312 21.042969 22.628906 20.992188 C 22.691406 20.941406 22.738281 20.871094 22.769531 20.78125 C 22.796875 20.691406 22.8125 20.578125 22.8125 20.441406 C 22.8125 20.300781 22.796875 20.183594 22.757812 20.097656 C 22.722656 20.007812 22.671875 19.9375 22.605469 19.890625 C 22.535156 19.839844 22.453125 19.800781 22.351562 19.78125 C 22.253906 19.761719 22.136719 19.753906 22.007812 19.753906 L 21.613281 19.753906 L 21.613281 21.113281 C 21.761719 21.125 21.910156 21.128906 22.0625 21.128906 C 22.195312 21.128906 22.304688 21.117188 22.398438 21.097656 Z M 22.398438 21.097656 "/>
<path style=" stroke:none;fill-rule:nonzero;fill:rgb(0%,0%,0%);fill-opacity:1;" d="M 9.058594 25.511719 C 4.949219 25.511719 1.601562 22.164062 1.601562 18.050781 C 1.601562 15.683594 2.710938 13.574219 4.433594 12.207031 C 4.304688 11.625 4.226562 11.023438 4.203125 10.40625 C 1.679688 12.015625 0 14.839844 0 18.050781 C 0 23.046875 4.0625 27.109375 9.058594 27.109375 C 10.589844 27.109375 12.027344 26.722656 13.292969 26.050781 C 12.816406 25.710938 12.378906 25.328125 11.972656 24.910156 C 11.078125 25.292969 10.09375 25.511719 9.058594 25.511719 Z M 9.058594 25.511719 "/>
<path style=" stroke:none;fill-rule:nonzero;fill:rgb(0%,0%,0%);fill-opacity:1;" d="M 20.628906 10.765625 C 20.121094 10.65625 19.59375 10.589844 19.050781 10.589844 C 15.535156 10.589844 12.585938 13.039062 11.800781 16.316406 C 11.28125 16.128906 10.789062 15.882812 10.335938 15.582031 C 11.414062 11.78125 14.910156 8.992188 19.050781 8.992188 C 19.578125 8.992188 20.09375 9.039062 20.597656 9.128906 C 20.140625 5.917969 17.390625 3.449219 14.054688 3.449219 C 10.71875 3.449219 7.96875 5.917969 7.511719 9.128906 C 8.011719 9.039062 8.53125 8.992188 9.058594 8.992188 C 10.59375 8.992188 12.042969 9.378906 13.308594 10.054688 C 12.835938 10.394531 12.390625 10.773438 11.984375 11.195312 C 11.082031 10.808594 10.097656 10.589844 9.058594 10.589844 C 8.515625 10.589844 7.988281 10.65625 7.480469 10.765625 C 7.507812 11.035156 7.550781 11.300781 7.609375 11.558594 C 7.332031 11.617188 7.066406 11.695312 6.804688 11.789062 C 7.589844 15.070312 10.535156 17.515625 14.054688 17.515625 C 17.570312 17.515625 20.519531 15.066406 21.304688 11.785156 C 21.042969 11.695312 20.773438 11.617188 20.5 11.558594 C 20.558594 11.300781 20.601562 11.035156 20.628906 10.765625 Z M 12.933594 8.546875 L 12.933594 4.8125 C 13.066406 4.804688 13.21875 4.800781 13.378906 4.796875 C 13.542969 4.792969 13.738281 4.792969 13.957031 4.792969 C 14.199219 4.792969 14.402344 4.808594 14.570312 4.839844 C 14.738281 4.871094 14.871094 4.925781 14.972656 5.007812 C 15.078125 5.085938 15.152344 5.191406 15.203125 5.320312 C 15.25 5.449219 15.273438 5.613281 15.273438 5.8125 C 15.273438 6.085938 15.21875 6.292969 15.113281 6.441406 C 15.003906 6.59375 14.863281 6.699219 14.691406 6.761719 L 15.472656 8.546875 L 14.796875 8.546875 L 14.105469 6.890625 C 14.019531 6.890625 13.933594 6.890625 13.847656 6.886719 C 13.757812 6.886719 13.664062 6.878906 13.5625 6.863281 L 13.5625 8.546875 Z M 16.308594 16.316406 C 16.015625 15.097656 15.425781 13.992188 14.613281 13.085938 C 15.011719 12.726562 15.453125 12.417969 15.929688 12.167969 C 16.769531 13.148438 17.40625 14.304688 17.773438 15.582031 C 17.320312 15.886719 16.828125 16.128906 16.308594 16.316406 Z M 16.308594 16.316406 "/>
<path style=" stroke:none;fill-rule:nonzero;fill:rgb(0%,0%,0%);fill-opacity:1;" d="M 14.265625 6.449219 C 14.347656 6.429688 14.417969 6.398438 14.472656 6.351562 C 14.53125 6.300781 14.570312 6.238281 14.601562 6.15625 C 14.628906 6.078125 14.640625 5.972656 14.640625 5.847656 C 14.640625 5.609375 14.585938 5.449219 14.476562 5.363281 C 14.363281 5.277344 14.203125 5.234375 13.988281 5.234375 C 13.898438 5.234375 13.820312 5.234375 13.75 5.238281 C 13.679688 5.238281 13.617188 5.242188 13.558594 5.246094 L 13.558594 6.464844 C 13.691406 6.476562 13.828125 6.480469 13.976562 6.480469 C 14.089844 6.480469 14.183594 6.46875 14.265625 6.449219 Z M 14.265625 6.449219 "/>
<path style=" stroke:none;fill-rule:nonzero;fill:rgb(0%,0%,0%);fill-opacity:1;" d="M 11.765625 19.644531 C 12.035156 20.878906 12.617188 22.003906 13.414062 22.925781 C 13.640625 22.722656 13.859375 22.507812 14.054688 22.269531 C 14.25 22.503906 14.46875 22.71875 14.691406 22.925781 C 15.492188 22 16.070312 20.878906 16.34375 19.644531 C 16.9375 19.503906 17.511719 19.304688 18.058594 19.0625 C 17.855469 20.875 17.109375 22.519531 15.996094 23.851562 C 16.933594 24.359375 18 24.65625 19.140625 24.65625 C 22.796875 24.65625 25.757812 21.691406 25.757812 18.039062 C 25.757812 15.722656 24.566406 13.691406 22.765625 12.507812 C 21.695312 16.316406 18.199219 19.117188 14.054688 19.117188 C 9.910156 19.117188 6.414062 16.316406 5.339844 12.507812 C 3.539062 13.691406 2.347656 15.722656 2.347656 18.039062 C 2.347656 21.691406 5.3125 24.65625 8.96875 24.65625 C 10.105469 24.65625 11.171875 24.359375 12.109375 23.851562 C 10.996094 22.523438 10.25 20.875 10.046875 19.0625 C 10.597656 19.304688 11.171875 19.5 11.765625 19.644531 Z M 20.984375 17.820312 C 21.175781 17.8125 21.371094 17.808594 21.566406 17.808594 C 21.765625 17.804688 21.96875 17.800781 22.179688 17.800781 C 22.582031 17.800781 22.867188 17.878906 23.039062 18.039062 C 23.207031 18.195312 23.292969 18.410156 23.292969 18.6875 C 23.292969 18.917969 23.246094 19.101562 23.152344 19.230469 C 23.058594 19.359375 22.921875 19.453125 22.734375 19.503906 C 22.972656 19.5625 23.152344 19.667969 23.265625 19.816406 C 23.382812 19.964844 23.441406 20.183594 23.441406 20.460938 C 23.441406 20.707031 23.402344 20.898438 23.332031 21.046875 C 23.261719 21.191406 23.15625 21.304688 23.023438 21.382812 C 22.890625 21.460938 22.726562 21.511719 22.539062 21.535156 C 22.347656 21.558594 22.140625 21.574219 21.90625 21.574219 C 21.609375 21.574219 21.300781 21.5625 20.980469 21.539062 Z M 7.5625 21.113281 C 7.433594 21.273438 7.253906 21.394531 7.019531 21.476562 C 6.789062 21.558594 6.535156 21.601562 6.261719 21.601562 C 5.734375 21.601562 5.339844 21.445312 5.074219 21.132812 C 4.804688 20.820312 4.667969 20.34375 4.667969 19.703125 C 4.667969 19.351562 4.707031 19.058594 4.78125 18.8125 C 4.855469 18.570312 4.957031 18.367188 5.097656 18.214844 C 5.238281 18.058594 5.40625 17.945312 5.601562 17.875 C 5.796875 17.808594 6.019531 17.769531 6.269531 17.769531 C 6.386719 17.769531 6.503906 17.78125 6.628906 17.804688 C 6.75 17.828125 6.871094 17.867188 6.980469 17.917969 C 7.089844 17.96875 7.191406 18.035156 7.285156 18.113281 C 7.382812 18.195312 7.453125 18.292969 7.511719 18.40625 C 7.542969 18.464844 7.558594 18.519531 7.558594 18.574219 C 7.558594 18.648438 7.53125 18.707031 7.480469 18.75 C 7.425781 18.792969 7.371094 18.816406 7.304688 18.816406 C 7.265625 18.816406 7.226562 18.808594 7.1875 18.789062 C 7.148438 18.773438 7.117188 18.738281 7.09375 18.691406 C 7.003906 18.53125 6.890625 18.414062 6.746094 18.339844 C 6.601562 18.261719 6.441406 18.226562 6.269531 18.226562 C 5.972656 18.226562 5.742188 18.34375 5.589844 18.582031 C 5.4375 18.816406 5.359375 19.191406 5.359375 19.695312 C 5.359375 20.179688 5.4375 20.546875 5.59375 20.785156 C 5.75 21.027344 5.992188 21.144531 6.324219 21.144531 C 6.472656 21.144531 6.597656 21.128906 6.703125 21.089844 C 6.808594 21.054688 6.894531 21.007812 6.964844 20.945312 L 6.964844 20.039062 L 6.246094 20.039062 L 6.277344 19.59375 L 7.5625 19.59375 Z M 7.5625 21.113281 "/>
</g>
</svg>
