<?xml version="1.0" encoding="UTF-8"?>
<svg xmlns="http://www.w3.org/2000/svg" xmlns:xlink="http://www.w3.org/1999/xlink" width="28pt" height="28pt" viewBox="0 0 28 28" version="1.1">
<g id="surface1">
<path style=" stroke:none;fill-rule:nonzero;fill:rgb(0%,0%,0%);fill-opacity:1;" d="M 21.316406 9.375 C 21.230469 9.246094 21.039062 9.171875 20.789062 9.171875 L 7.210938 9.171875 C 6.960938 9.171875 6.769531 9.246094 6.683594 9.375 C 6.597656 9.503906 6.605469 9.707031 6.699219 9.9375 L 9.003906 15.441406 C 9.277344 16.097656 10.140625 16.675781 10.855469 16.675781 L 17.144531 16.675781 C 17.859375 16.675781 18.722656 16.097656 18.996094 15.441406 L 21.300781 9.9375 C 21.394531 9.707031 21.402344 9.503906 21.316406 9.375 Z M 21.316406 9.375 "/>
<path style=" stroke:none;fill-rule:nonzero;fill:rgb(0%,0%,0%);fill-opacity:1;" d="M 17.144531 17.875 L 10.855469 17.875 C 9.65625 17.875 8.355469 17.011719 7.894531 15.90625 L 7.707031 15.460938 L 7.707031 27.144531 C 7.707031 27.617188 8.09375 28 8.5625 28 L 19.4375 28 C 19.90625 28 20.292969 27.617188 20.292969 27.144531 L 20.292969 15.460938 L 20.105469 15.90625 C 19.644531 17.011719 18.34375 17.875 17.144531 17.875 Z M 17.144531 17.875 "/>
<path style=" stroke:none;fill-rule:nonzero;fill:rgb(0%,0%,0%);fill-opacity:1;" d="M 15.769531 7.96875 L 17.042969 6.695312 C 17.28125 6.460938 17.28125 6.078125 17.042969 5.84375 C 16.808594 5.609375 16.429688 5.609375 16.195312 5.84375 L 14.585938 7.453125 L 14.585938 3.125 C 14.585938 1.402344 13.183594 0 11.460938 0 C 9.738281 0 8.335938 1.402344 8.335938 3.125 C 8.335938 3.457031 8.605469 3.726562 8.9375 3.726562 C 9.269531 3.726562 9.539062 3.457031 9.539062 3.125 C 9.539062 2.0625 10.402344 1.203125 11.460938 1.203125 C 12.523438 1.203125 13.382812 2.0625 13.382812 3.125 L 13.382812 7.320312 L 11.90625 5.84375 C 11.671875 5.609375 11.292969 5.609375 11.054688 5.84375 C 10.820312 6.078125 10.820312 6.460938 11.054688 6.695312 L 12.332031 7.96875 Z M 15.769531 7.96875 "/>
</g>
</svg>
