<?xml version="1.0" encoding="UTF-8"?>
<svg xmlns="http://www.w3.org/2000/svg" xmlns:xlink="http://www.w3.org/1999/xlink" width="28pt" height="28pt" viewBox="0 0 28 28" version="1.1">
<g id="surface1">
<path style=" stroke:none;fill-rule:nonzero;fill:rgb(0%,0%,0%);fill-opacity:1;" d="M 7.046875 14.757812 L 20.949219 14.757812 C 21.480469 14.757812 21.914062 14.328125 21.914062 13.796875 L 21.914062 0.964844 C 21.914062 0.433594 21.480469 0 20.949219 0 L 7.046875 0 C 6.519531 0 6.085938 0.433594 6.085938 0.964844 L 6.085938 13.796875 C 6.085938 14.328125 6.519531 14.757812 7.046875 14.757812 Z M 18.503906 4.8125 C 18.730469 5.039062 18.730469 5.40625 18.503906 5.632812 L 12.796875 11.339844 C 12.683594 11.453125 12.535156 11.511719 12.386719 11.511719 C 12.234375 11.511719 12.085938 11.453125 11.972656 11.339844 C 11.746094 11.113281 11.746094 10.746094 11.972656 10.515625 L 17.679688 4.8125 C 17.90625 4.582031 18.273438 4.582031 18.503906 4.8125 Z M 9.496094 8.425781 L 15.203125 2.71875 C 15.429688 2.492188 15.800781 2.492188 16.027344 2.71875 C 16.253906 2.949219 16.253906 3.316406 16.027344 3.542969 L 10.320312 9.25 C 10.207031 9.363281 10.058594 9.417969 9.910156 9.417969 C 9.761719 9.417969 9.613281 9.363281 9.496094 9.25 C 9.269531 9.023438 9.269531 8.652344 9.496094 8.425781 Z M 9.496094 8.425781 "/>
<path style=" stroke:none;fill-rule:nonzero;fill:rgb(0%,0%,0%);fill-opacity:1;" d="M 4.09375 17.300781 L 4.09375 19.042969 C 4.09375 19.796875 4.710938 20.410156 5.464844 20.410156 L 5.761719 20.410156 L 4.105469 27.28125 C 4.03125 27.59375 4.222656 27.910156 4.535156 27.984375 C 4.582031 27.996094 4.628906 28 4.671875 28 C 4.9375 28 5.175781 27.820312 5.238281 27.554688 L 6.960938 20.410156 L 13.417969 20.410156 L 13.417969 15.929688 L 5.464844 15.929688 C 4.710938 15.929688 4.09375 16.542969 4.09375 17.300781 Z M 8.234375 17.589844 L 9.457031 17.589844 C 9.78125 17.589844 10.042969 17.847656 10.042969 18.171875 C 10.042969 18.492188 9.78125 18.753906 9.457031 18.753906 L 8.234375 18.753906 C 7.914062 18.753906 7.652344 18.492188 7.652344 18.171875 C 7.652344 17.847656 7.914062 17.589844 8.234375 17.589844 Z M 8.234375 17.589844 "/>
<path style=" stroke:none;fill-rule:nonzero;fill:rgb(0%,0%,0%);fill-opacity:1;" d="M 23.894531 27.28125 L 22.238281 20.410156 L 22.535156 20.410156 C 23.289062 20.410156 23.90625 19.796875 23.90625 19.042969 L 23.90625 17.300781 C 23.90625 16.542969 23.289062 15.929688 22.535156 15.929688 L 14.582031 15.929688 L 14.582031 20.410156 L 21.039062 20.410156 L 22.761719 27.554688 C 22.824219 27.820312 23.0625 28 23.328125 28 C 23.371094 28 23.417969 27.996094 23.464844 27.984375 C 23.777344 27.910156 23.96875 27.59375 23.894531 27.28125 Z M 19.765625 18.753906 L 18.542969 18.753906 C 18.21875 18.753906 17.957031 18.492188 17.957031 18.171875 C 17.957031 17.847656 18.21875 17.589844 18.542969 17.589844 L 19.765625 17.589844 C 20.085938 17.589844 20.347656 17.847656 20.347656 18.171875 C 20.347656 18.492188 20.085938 18.753906 19.765625 18.753906 Z M 19.765625 18.753906 "/>
</g>
</svg>
