<?xml version="1.0" encoding="UTF-8"?>
<svg xmlns="http://www.w3.org/2000/svg" xmlns:xlink="http://www.w3.org/1999/xlink" width="28pt" height="28pt" viewBox="0 0 28 28" version="1.1">
<g id="surface1">
<path style=" stroke:none;fill-rule:nonzero;fill:rgb(0%,0%,0%);fill-opacity:1;" d="M 19.695312 5.695312 C 19.695312 2.554688 17.140625 0 14 0 C 10.859375 0 8.304688 2.554688 8.304688 5.695312 L 8.304688 13.898438 L 19.695312 13.898438 Z M 19.695312 5.695312 "/>
<path style=" stroke:none;fill-rule:nonzero;fill:rgb(0%,0%,0%);fill-opacity:1;" d="M 20.929688 13.898438 L 24.960938 13.898438 L 24.960938 7.410156 C 24.960938 4.621094 22.757812 2.347656 20 2.230469 C 20.589844 3.253906 20.929688 4.4375 20.929688 5.695312 Z M 20.929688 13.898438 "/>
<path style=" stroke:none;fill-rule:nonzero;fill:rgb(0%,0%,0%);fill-opacity:1;" d="M 7.070312 5.695312 C 7.070312 4.4375 7.40625 3.257812 7.996094 2.238281 C 5.285156 2.40625 3.136719 4.65625 3.136719 7.410156 L 3.136719 13.898438 L 7.070312 13.898438 Z M 7.070312 5.695312 "/>
<path style=" stroke:none;fill-rule:nonzero;fill:rgb(0%,0%,0%);fill-opacity:1;" d="M 25.792969 15.132812 L 2.207031 15.132812 C 1.578125 15.132812 1.070312 15.644531 1.070312 16.269531 L 1.070312 18.703125 C 1.070312 19.332031 1.578125 19.84375 2.207031 19.84375 L 3.84375 19.84375 L 3.148438 27.328125 C 3.117188 27.664062 3.367188 27.964844 3.707031 27.996094 C 3.726562 28 3.746094 28 3.761719 28 C 4.078125 28 4.347656 27.761719 4.375 27.441406 L 5.082031 19.84375 L 22.917969 19.84375 L 23.625 27.441406 C 23.652344 27.761719 23.921875 28 24.234375 28 C 24.253906 28 24.273438 28 24.292969 27.996094 C 24.632812 27.964844 24.882812 27.664062 24.851562 27.328125 L 24.15625 19.84375 L 25.792969 19.84375 C 26.421875 19.84375 26.929688 19.332031 26.929688 18.703125 L 26.929688 16.269531 C 26.929688 15.644531 26.421875 15.132812 25.792969 15.132812 Z M 16.363281 18.015625 L 11.636719 18.015625 C 11.296875 18.015625 11.019531 17.742188 11.019531 17.398438 C 11.019531 17.058594 11.296875 16.785156 11.636719 16.785156 L 16.363281 16.785156 C 16.703125 16.785156 16.980469 17.058594 16.980469 17.398438 C 16.980469 17.742188 16.703125 18.015625 16.363281 18.015625 Z M 16.363281 18.015625 "/>
<path style=" stroke:none;fill-rule:nonzero;fill:rgb(0%,0%,0%);fill-opacity:1;" d="M 17.324219 21.136719 L 10.675781 21.136719 C 9.816406 21.136719 9.117188 21.835938 9.117188 22.699219 C 9.117188 23.453125 9.652344 24.085938 10.363281 24.230469 L 10.179688 27.347656 C 10.160156 27.6875 10.417969 27.980469 10.757812 28 C 10.773438 28 10.785156 28 10.796875 28 C 11.121094 28 11.390625 27.746094 11.410156 27.417969 L 11.59375 24.261719 L 16.40625 24.261719 L 16.589844 27.417969 C 16.609375 27.746094 16.878906 28 17.203125 28 C 17.214844 28 17.226562 28 17.242188 28 C 17.582031 27.980469 17.839844 27.6875 17.820312 27.347656 L 17.636719 24.230469 C 18.347656 24.085938 18.882812 23.453125 18.882812 22.699219 C 18.882812 21.835938 18.183594 21.136719 17.324219 21.136719 Z M 17.324219 21.136719 "/>
</g>
</svg>
