<?xml version="1.0" encoding="UTF-8"?>
<svg xmlns="http://www.w3.org/2000/svg" xmlns:xlink="http://www.w3.org/1999/xlink" width="28pt" height="28pt" viewBox="0 0 28 28" version="1.1">
<g id="surface1">
<path style=" stroke:none;fill-rule:nonzero;fill:rgb(0.392157%,0%,0.784314%);fill-opacity:1;" d="M 20.421875 3.140625 C 20.421875 4.871094 19.019531 6.277344 17.285156 6.277344 C 15.550781 6.277344 14.144531 4.871094 14.144531 3.140625 C 14.144531 1.40625 15.550781 0 17.285156 0 C 19.019531 0 20.421875 1.40625 20.421875 3.140625 Z M 20.421875 3.140625 "/>
<path style=" stroke:none;fill-rule:nonzero;fill:rgb(0.392157%,0%,0.784314%);fill-opacity:1;" d="M 25.121094 10.796875 C 22.316406 10.507812 19.59375 7.472656 18.910156 7.050781 C 18.492188 6.75 17.992188 6.550781 17.519531 6.476562 C 17.519531 6.476562 17.179688 6.40625 16.832031 6.445312 C 16.5 6.480469 15.992188 6.5 15.246094 7.054688 C 15.191406 7.085938 14.8125 7.417969 14.691406 7.5625 C 13.769531 8.519531 11.203125 11.355469 9.925781 14.566406 C 9.746094 15.023438 9.859375 15.519531 10.175781 15.851562 L 8.675781 18.523438 L 6.5625 17.335938 C 6.3125 17.195312 5.992188 17.285156 5.851562 17.535156 L 1.851562 24.597656 C 1.710938 24.851562 1.800781 25.171875 2.054688 25.3125 L 3.652344 26.210938 C 3.398438 26.664062 3.457031 27.25 3.84375 27.640625 C 4.308594 28.113281 5.070312 28.121094 5.542969 27.65625 C 5.980469 27.222656 6.015625 26.535156 5.644531 26.058594 L 7.828125 22.230469 L 9.355469 19.503906 L 11.25 16.21875 C 11.660156 16.15625 12.027344 15.882812 12.195312 15.46875 C 12.734375 14.105469 13.570312 12.796875 14.378906 11.710938 L 14.757812 16.085938 C 14.804688 16.601562 15.015625 17.03125 15.335938 17.371094 C 14.351562 19.152344 11.710938 24.019531 10.757812 25.671875 C 10.332031 26.414062 10.585938 27.363281 11.324219 27.792969 C 11.605469 27.953125 11.914062 28.015625 12.210938 27.996094 C 12.707031 27.960938 13.175781 27.6875 13.445312 27.222656 C 14.332031 25.683594 16.652344 21.007812 17.667969 19.25 C 18.480469 20.605469 19.871094 23.097656 21.632812 27.078125 C 21.886719 27.65625 22.457031 28 23.050781 28 C 23.261719 28 23.476562 27.957031 23.679688 27.867188 C 24.460938 27.519531 24.816406 26.605469 24.46875 25.820312 C 22.390625 21.125 20.863281 18.519531 20.015625 17.144531 C 20.351562 16.722656 20.550781 16.203125 20.5 15.589844 L 20.136719 11.441406 C 21.183594 12.277344 22.542969 12.980469 24.871094 13.21875 C 24.914062 13.222656 24.957031 13.226562 24.996094 13.226562 C 25.613281 13.226562 26.144531 12.761719 26.207031 12.132812 C 26.277344 11.464844 25.789062 10.863281 25.121094 10.796875 Z M 4.675781 27.273438 C 4.433594 27.273438 4.238281 27.078125 4.238281 26.839844 C 4.238281 26.597656 4.433594 26.402344 4.675781 26.402344 C 4.914062 26.402344 5.113281 26.597656 5.113281 26.839844 C 5.113281 27.078125 4.914062 27.273438 4.675781 27.273438 Z M 4.675781 27.273438 "/>
</g>
</svg>
