<?xml version="1.0" encoding="UTF-8"?>
<svg xmlns="http://www.w3.org/2000/svg" xmlns:xlink="http://www.w3.org/1999/xlink" width="28pt" height="28pt" viewBox="0 0 28 28" version="1.1">
<g id="surface1">
<path style=" stroke:none;fill-rule:nonzero;fill:rgb(0%,0%,0%);fill-opacity:1;" d="M 27.359375 2.703125 L 0.660156 2.703125 C 0.296875 2.703125 0 3 0 3.367188 L 0 21.789062 C 0 22.15625 0.296875 22.453125 0.660156 22.453125 L 10.703125 22.453125 L 10.703125 24.039062 C 10.703125 24.0625 10.707031 24.082031 10.707031 24.105469 L 9.269531 24.105469 C 8.933594 24.105469 8.660156 24.378906 8.660156 24.714844 C 8.660156 25.046875 8.933594 25.320312 9.269531 25.320312 L 19.085938 25.320312 C 19.421875 25.320312 19.695312 25.046875 19.695312 24.714844 C 19.695312 24.378906 19.421875 24.105469 19.085938 24.105469 L 17.644531 24.105469 C 17.648438 24.085938 17.652344 24.0625 17.652344 24.039062 L 17.652344 22.453125 L 27.363281 22.453125 C 27.726562 22.453125 28.023438 22.15625 28.023438 21.789062 L 28.023438 3.367188 C 28.023438 3 27.726562 2.703125 27.359375 2.703125 Z M 26.148438 18.902344 C 26.148438 19.269531 25.851562 19.5625 25.484375 19.5625 L 2.539062 19.5625 C 2.171875 19.5625 1.875 19.269531 1.875 18.902344 L 1.875 4.933594 C 1.875 4.566406 2.171875 4.269531 2.539062 4.269531 L 25.484375 4.269531 C 25.851562 4.269531 26.148438 4.566406 26.148438 4.933594 Z M 26.148438 18.902344 "/>
</g>
</svg>
