<?xml version="1.0" encoding="UTF-8"?>
<svg xmlns="http://www.w3.org/2000/svg" xmlns:xlink="http://www.w3.org/1999/xlink" width="28pt" height="28pt" viewBox="0 0 28 28" version="1.1">
<g id="surface1">
<path style=" stroke:none;fill-rule:nonzero;fill:rgb(0%,0%,0%);fill-opacity:1;" d="M 20.539062 24 L 1 24 C 0.722656 24 0.5 24.222656 0.5 24.5 C 0.5 24.777344 0.722656 25 1 25 L 20.539062 25 C 20.785156 26.695312 22.242188 28 24 28 C 25.929688 28 27.5 26.429688 27.5 24.5 C 27.5 22.570312 25.929688 21 24 21 C 22.242188 21 20.785156 22.304688 20.539062 24 Z M 20.539062 24 "/>
<path style=" stroke:none;fill-rule:nonzero;fill:rgb(0%,0%,0%);fill-opacity:1;" d="M 10.347656 13.5 L 1 13.5 C 0.722656 13.5 0.5 13.722656 0.5 14 C 0.5 14.277344 0.722656 14.5 1 14.5 L 10.316406 14.5 C 10.515625 16.300781 12.042969 17.707031 13.898438 17.707031 C 15.75 17.707031 17.277344 16.300781 17.476562 14.5 L 27 14.5 C 27.277344 14.5 27.5 14.277344 27.5 14 C 27.5 13.722656 27.277344 13.5 27 13.5 L 17.445312 13.5 C 17.15625 11.800781 15.675781 10.5 13.898438 10.5 C 12.117188 10.5 10.636719 11.800781 10.347656 13.5 Z M 10.347656 13.5 "/>
<path style=" stroke:none;fill-rule:nonzero;fill:rgb(0%,0%,0%);fill-opacity:1;" d="M 4 0 C 2.070312 0 0.5 1.570312 0.5 3.5 C 0.5 5.429688 2.070312 7 4 7 C 5.757812 7 7.214844 5.695312 7.460938 4 L 27 4 C 27.277344 4 27.5 3.777344 27.5 3.5 C 27.5 3.222656 27.277344 3 27 3 L 7.460938 3 C 7.214844 1.304688 5.757812 0 4 0 Z M 4 0 "/>
</g>
</svg>
