<?xml version="1.0" encoding="UTF-8"?>
<svg xmlns="http://www.w3.org/2000/svg" xmlns:xlink="http://www.w3.org/1999/xlink" width="28pt" height="28pt" viewBox="0 0 28 28" version="1.1">
<g id="surface1">
<path style=" stroke:none;fill-rule:nonzero;fill:rgb(0%,0%,0%);fill-opacity:1;" d="M 18.988281 19.6875 L 18.988281 22.148438 C 18.988281 22.601562 18.621094 22.96875 18.167969 22.96875 L 14.875 22.96875 L 14.875 20.507812 C 14.875 19.421875 13.246094 19.421875 13.246094 20.507812 L 13.246094 22.96875 L 9.84375 22.96875 C 9.390625 22.96875 9.023438 22.601562 9.023438 22.148438 L 9.023438 19.6875 L 5.753906 19.6875 L 5.753906 22.257812 C 5.753906 24.542969 7.597656 26.347656 9.84375 26.347656 L 13.246094 26.347656 L 13.246094 27.179688 C 13.246094 28.261719 14.875 28.269531 14.875 27.179688 L 14.875 26.347656 L 18.15625 26.347656 C 20.398438 26.347656 22.257812 24.542969 22.257812 22.257812 L 22.257812 19.6875 Z M 18.988281 19.6875 "/>
<path style=" stroke:none;fill-rule:nonzero;fill:rgb(0%,0%,0%);fill-opacity:1;" d="M 27.179688 6.5625 C 17.679688 6.5625 10.320312 6.5625 0.820312 6.5625 C -0.285156 6.5625 -0.261719 8.179688 0.820312 8.179688 C 10.320312 8.179688 17.679688 8.179688 27.179688 8.179688 C 28.285156 8.179688 28.261719 6.5625 27.179688 6.5625 Z M 27.179688 6.5625 "/>
<path style=" stroke:none;fill-rule:nonzero;fill:rgb(0%,0%,0%);fill-opacity:1;" d="M 22.257812 1.640625 L 21.4375 1.640625 L 21.4375 0.820312 C 21.4375 -0.261719 19.808594 -0.265625 19.808594 0.820312 L 19.808594 1.640625 L 18.976562 1.640625 C 17.007812 1.640625 15.351562 3.027344 14.972656 4.898438 L 26.261719 4.898438 C 25.882812 3.027344 24.226562 1.640625 22.257812 1.640625 Z M 22.257812 1.640625 "/>
<path style=" stroke:none;fill-rule:nonzero;fill:rgb(0%,0%,0%);fill-opacity:1;" d="M 25.539062 16.40625 L 15.695312 16.40625 C 14.609375 16.40625 14.609375 18.035156 15.695312 18.035156 L 25.539062 18.035156 C 26.625 18.035156 26.625 16.40625 25.539062 16.40625 Z M 25.539062 16.40625 "/>
<path style=" stroke:none;fill-rule:nonzero;fill:rgb(0%,0%,0%);fill-opacity:1;" d="M 21.449219 9.84375 L 21.449219 14.753906 L 24.949219 14.753906 L 26.179688 9.84375 Z M 21.449219 9.84375 "/>
<path style=" stroke:none;fill-rule:nonzero;fill:rgb(0%,0%,0%);fill-opacity:1;" d="M 15.054688 9.84375 L 16.285156 14.753906 L 19.796875 14.753906 L 19.796875 9.84375 Z M 15.054688 9.84375 "/>
<path style=" stroke:none;fill-rule:nonzero;fill:rgb(0%,0%,0%);fill-opacity:1;" d="M 8.214844 9.84375 L 8.214844 14.753906 L 11.714844 14.753906 L 12.945312 9.84375 Z M 8.214844 9.84375 "/>
<path style=" stroke:none;fill-rule:nonzero;fill:rgb(0%,0%,0%);fill-opacity:1;" d="M 1.820312 9.84375 L 3.050781 14.753906 L 6.5625 14.753906 L 6.5625 9.84375 Z M 1.820312 9.84375 "/>
<path style=" stroke:none;fill-rule:nonzero;fill:rgb(0%,0%,0%);fill-opacity:1;" d="M 9.023438 1.640625 L 8.203125 1.640625 L 8.203125 0.820312 C 8.203125 -0.261719 6.574219 -0.265625 6.574219 0.820312 L 6.574219 1.640625 L 5.742188 1.640625 C 3.773438 1.640625 2.117188 3.027344 1.738281 4.898438 L 13.027344 4.898438 C 12.648438 3.027344 10.992188 1.640625 9.023438 1.640625 Z M 9.023438 1.640625 "/>
<path style=" stroke:none;fill-rule:nonzero;fill:rgb(0%,0%,0%);fill-opacity:1;" d="M 12.304688 16.40625 L 2.460938 16.40625 C 1.375 16.40625 1.375 18.035156 2.460938 18.035156 L 12.304688 18.035156 C 13.390625 18.035156 13.390625 16.40625 12.304688 16.40625 Z M 12.304688 16.40625 "/>
</g>
</svg>
