<?xml version="1.0" encoding="UTF-8"?>
<svg xmlns="http://www.w3.org/2000/svg" xmlns:xlink="http://www.w3.org/1999/xlink" width="28pt" height="28pt" viewBox="0 0 28 28" version="1.1">
<g id="surface1">
<path style=" stroke:none;fill-rule:nonzero;fill:rgb(0%,0%,0%);fill-opacity:1;" d="M 11.9375 10.464844 C 11.9375 12.203125 10.527344 13.613281 8.785156 13.613281 C 7.046875 13.613281 5.636719 12.203125 5.636719 10.464844 C 5.636719 8.722656 7.046875 7.3125 8.785156 7.3125 C 10.527344 7.3125 11.9375 8.722656 11.9375 10.464844 Z M 11.9375 10.464844 "/>
<path style=" stroke:none;fill-rule:nonzero;fill:rgb(0%,0%,0%);fill-opacity:1;" d="M 27.136719 16.992188 C 27.015625 16.898438 24.117188 14.679688 21.980469 13.691406 L 14.976562 10.464844 L 14.976562 6.515625 C 16.222656 6.019531 17.105469 4.800781 17.105469 3.378906 C 17.105469 1.511719 15.59375 0 13.730469 0 C 11.863281 0 10.351562 1.511719 10.351562 3.378906 C 10.351562 4.851562 11.296875 6.101562 12.613281 6.5625 L 12.613281 11.175781 C 12.421875 11.539062 11.871094 12.652344 11.894531 13.597656 C 11.886719 14.234375 12.269531 14.839844 12.898438 15.082031 L 19.449219 17.621094 C 19.867188 17.78125 20.335938 17.757812 20.734375 17.554688 C 20.820312 17.511719 20.898438 17.460938 20.972656 17.40625 L 24.601562 19.121094 L 24.601562 26.445312 C 24.601562 27.3125 25.308594 28.019531 26.175781 28.019531 C 27.046875 28.019531 27.753906 27.3125 27.753906 26.445312 L 27.753906 18.242188 C 27.753906 17.75 27.523438 17.289062 27.136719 16.992188 Z M 13.730469 4.609375 C 13.046875 4.609375 12.496094 4.058594 12.496094 3.378906 C 12.496094 2.695312 13.046875 2.144531 13.730469 2.144531 C 14.410156 2.144531 14.964844 2.695312 14.964844 3.378906 C 14.964844 4.058594 14.410156 4.609375 13.730469 4.609375 Z M 13.730469 4.609375 "/>
<path style=" stroke:none;fill-rule:nonzero;fill:rgb(0%,0%,0%);fill-opacity:1;" d="M 23.101562 19.511719 L 3.503906 14.367188 L 3.503906 1.910156 C 3.503906 1.015625 2.78125 0.292969 1.886719 0.292969 C 0.992188 0.292969 0.265625 1.015625 0.265625 1.910156 L 0.265625 26.28125 C 0.265625 27.171875 0.992188 27.898438 1.886719 27.898438 C 2.78125 27.898438 3.503906 27.171875 3.503906 26.28125 L 3.503906 17.714844 L 17.722656 21.445312 L 17.722656 26.28125 C 17.722656 27.171875 18.445312 27.898438 19.339844 27.898438 C 20.234375 27.898438 20.960938 27.171875 20.960938 26.28125 L 20.960938 22.296875 L 22.277344 22.640625 C 23.144531 22.871094 24.027344 22.351562 24.253906 21.488281 C 24.480469 20.621094 23.964844 19.738281 23.101562 19.511719 Z M 23.101562 19.511719 "/>
</g>
</svg>
