<?xml version="1.0" encoding="UTF-8"?>
<svg xmlns="http://www.w3.org/2000/svg" xmlns:xlink="http://www.w3.org/1999/xlink" width="28pt" height="28pt" viewBox="0 0 28 28" version="1.1">
<g id="surface1">
<path style=" stroke:none;fill-rule:nonzero;fill:rgb(0%,0%,0%);fill-opacity:1;" d="M 20.863281 20.605469 C 19.332031 17.824219 19.441406 14.496094 20.660156 11.566406 L 20.984375 10.785156 C 21.320312 9.886719 21.605469 9.425781 21.617188 8.863281 C 21.640625 7.90625 21.425781 6.902344 21.097656 6.152344 C 20.308594 4.355469 19.679688 2.429688 19.253906 0.511719 C 19.191406 0.214844 18.925781 0 18.617188 0 L 18.574219 0 C 18.410156 0 18.257812 0.0703125 18.148438 0.191406 C 18.039062 0.3125 17.988281 0.476562 18.007812 0.636719 C 18.175781 2.058594 18.542969 5.363281 18.355469 5.46875 C 16.820312 6.320312 15.164062 8.082031 14.679688 9.464844 C 14.566406 9.746094 14.300781 9.925781 14 9.925781 C 13.699219 9.925781 13.433594 9.746094 13.320312 9.464844 C 12.835938 8.082031 11.179688 6.320312 9.644531 5.46875 C 9.457031 5.359375 9.828125 2.023438 9.996094 0.617188 C 10.011719 0.460938 9.964844 0.304688 9.859375 0.1875 C 9.753906 0.0664062 9.605469 0 9.449219 0 L 9.363281 0 C 9.066406 0 8.8125 0.203125 8.75 0.492188 C 8.320312 2.4375 7.699219 4.332031 6.902344 6.152344 C 6.574219 6.90625 6.359375 7.910156 6.382812 8.863281 C 6.394531 9.425781 6.679688 9.886719 7.015625 10.785156 L 7.34375 11.574219 C 8.5625 14.5 8.664062 17.824219 7.136719 20.605469 C 6.90625 21.015625 6.871094 21.507812 7.03125 21.953125 C 7.191406 22.394531 7.535156 22.75 7.976562 22.921875 C 8.738281 23.21875 9.355469 23.6875 10.273438 24.464844 C 11.402344 25.425781 12.207031 26.550781 12.597656 27.597656 C 12.6875 27.839844 12.917969 28 13.175781 28 L 14.824219 28 C 15.082031 28 15.3125 27.839844 15.402344 27.597656 C 15.792969 26.550781 16.597656 25.425781 17.726562 24.464844 C 18.644531 23.6875 19.230469 23.230469 20.019531 22.929688 C 20.460938 22.757812 20.808594 22.40625 20.972656 21.960938 C 21.132812 21.515625 21.09375 21.023438 20.867188 20.605469 C 20.867188 20.605469 20.867188 20.605469 20.863281 20.605469 Z M 20.863281 20.605469 "/>
</g>
</svg>
