<?xml version="1.0" encoding="UTF-8" standalone="no"?>
<svg
   version="1.1"
   id="Warstwa_1"
   x="0px"
   y="0px"
   viewBox="0 0 208.6 208.6"
   style="enable-background:new 0 0 208.6 208.6;"
   xml:space="preserve"
   width="208.6"
   height="208.6"
   sodipodi:docname="back.svg"
   inkscape:version="1.1 (c4e8f9e, 2021-05-24)"
   xmlns:inkscape="http://www.inkscape.org/namespaces/inkscape"
   xmlns:sodipodi="http://sodipodi.sourceforge.net/DTD/sodipodi-0.dtd"
   xmlns="http://www.w3.org/2000/svg"
   xmlns:svg="http://www.w3.org/2000/svg"
   xmlns:rdf="http://www.w3.org/1999/02/22-rdf-syntax-ns#"
   xmlns:cc="http://creativecommons.org/ns#"
   xmlns:dc="http://purl.org/dc/elements/1.1/"><metadata
   id="metadata173"><rdf:RDF><cc:Work
       rdf:about=""><dc:format>image/svg+xml</dc:format><dc:type
         rdf:resource="http://purl.org/dc/dcmitype/StillImage" /></cc:Work></rdf:RDF></metadata><defs
   id="defs171">   </defs><sodipodi:namedview
   pagecolor="#ffffff"
   bordercolor="#666666"
   borderopacity="1"
   objecttolerance="10"
   gridtolerance="10"
   guidetolerance="10"
   inkscape:pageopacity="0"
   inkscape:pageshadow="2"
   inkscape:window-width="1920"
   inkscape:window-height="1027"
   id="namedview169"
   showgrid="false"
   inkscape:zoom="1.3997036"
   inkscape:cx="126.81256"
   inkscape:cy="198.9707"
   inkscape:window-x="1920"
   inkscape:window-y="25"
   inkscape:window-maximized="0"
   inkscape:current-layer="Warstwa_1"
   inkscape:document-rotation="0"
   inkscape:pagecheckerboard="0" /> <style
   type="text/css"
   id="style152"> .st0{fill:#ED695C;} .st1{fill:none;stroke:#ED695C;stroke-width:5;stroke-miterlimit:10;} .st2{fill:none;stroke:#ED695C;stroke-width:5;stroke-linecap:round;stroke-miterlimit:10;} .st3{fill:#ED695C;stroke:#ED6A5C;stroke-miterlimit:10;} .st4{fill:#ED695C;stroke:#ED6A5C;stroke-width:1.5;stroke-miterlimit:10;} .st5{fill:none;stroke:#ED695C;stroke-width:4;stroke-miterlimit:10;} .st6{fill:none;stroke:#ED695C;stroke-miterlimit:10;} .st7{fill:none;stroke:#ED695C;stroke-width:4;stroke-linecap:round;stroke-miterlimit:10;} .st8{fill:#ED695C;stroke:#ED6A5C;stroke-width:0.5;stroke-miterlimit:10;} .st9{fill:none;stroke:#ED695C;stroke-width:2;stroke-miterlimit:10;} .st10{fill:#ED6A5C;} .st11{fill:#ED695C;stroke:#ED6A5C;stroke-width:0.25;stroke-miterlimit:10;} .st12{fill-rule:evenodd;clip-rule:evenodd;fill:#ED695C;} .st13{fill:#F2F2F2;} </style> <circle
   class="st1"
   cx="104.3"
   cy="104.3"
   r="101.8"
   id="circle154" /> <g
   id="g17101-4-7-5-4"
   transform="matrix(0,2.438252,-2.438252,0,86.834816,257.80844)"><path
     style="fill:#ed695c;fill-opacity:1;stroke-width:0.219433"
     d="m -61.64873,25.009185 c -0.187389,-0.150841 -2.317247,-2.841664 -4.733001,-5.97956 -2.415756,-3.137896 -7.218561,-9.3587379 -10.672898,-13.8240873 -3.742526,-4.83788602 -6.280619,-8.3086111 -6.280619,-8.5884624 0,-0.258293 0.188599,-0.7027578 0.419074,-0.9876738 0.412196,-0.5095294 0.492333,-0.5190765 4.882402,-0.581707 3.843231,-0.054803 4.50144,-0.1140284 4.737623,-0.4259528 0.213203,-0.2815748 0.274318,-3.6964423 0.274318,-15.3356037 v -14.973347 l 0.578177,-0.454786 c 0.567518,-0.446408 0.781553,-0.454791 11.619655,-0.454791 11.298187,0 11.90773,0.04233 12.311792,0.852594 0.09713,0.194872 0.226016,7.167704 0.286337,15.495205 l 0.10972,15.1409196 4.530841,0.1097196 c 4.056378,0.09823 4.57915,0.1534867 4.992117,0.5277355 0.257575,0.2333858 0.461265,0.6870236 0.461265,1.0270753 0,0.6347149 -0.21086,0.9210444 -9.763571,13.2569614 C -61.001766,26.738247 -59.8077,25.283484 -60.593229,25.283484 c -0.393101,0 -0.868101,-0.123439 -1.055494,-0.274318 z"
     id="path4680-1-8-4-3"
     sodipodi:nodetypes="cssssssscsssscssssssc" /><g
     id="g13874-3-8-3-9"
     style="fill:#ed695c;fill-opacity:1"
     transform="matrix(3.7795276,0,0,3.7795276,-178.58847,-147.15284)" /></g><circle
   class="st1"
   cx="389.36816"
   cy="307.20789"
   r="101.8"
   id="circle154-0"
   style="fill:none;stroke:#ed695c;stroke-width:5;stroke-miterlimit:10" /><g
   id="g17101-4-0"
   transform="matrix(0,1.5847838,-1.5847838,0,393.29606,454.90475)"><path
     style="fill:#ed695c;fill-opacity:1;stroke-width:0.219433"
     d="m -61.64873,25.009185 c -0.187389,-0.150841 -2.317247,-2.841664 -4.733001,-5.97956 -2.415756,-3.137896 -7.218561,-9.3587379 -10.672898,-13.8240873 -3.742526,-4.83788602 -6.280619,-8.3086111 -6.280619,-8.5884624 0,-0.258293 0.188599,-0.7027578 0.419074,-0.9876738 0.412196,-0.5095294 0.492333,-0.5190765 4.882402,-0.581707 3.843231,-0.054803 4.50144,-0.1140284 4.737623,-0.4259528 0.213203,-0.2815748 0.274318,-3.6964423 0.274318,-15.3356037 v -14.973347 l 0.578177,-0.454786 c 0.567518,-0.446408 0.781553,-0.454791 11.619655,-0.454791 11.298187,0 11.90773,0.04233 12.311792,0.852594 0.09713,0.194872 0.226016,7.167704 0.286337,15.495205 l 0.10972,15.1409196 4.530841,0.1097196 c 4.056378,0.09823 4.57915,0.1534867 4.992117,0.5277355 0.257575,0.2333858 0.461265,0.6870236 0.461265,1.0270753 0,0.6347149 -0.21086,0.9210444 -9.763571,13.2569614 C -61.001766,26.738247 -59.8077,25.283484 -60.593229,25.283484 c -0.393101,0 -0.868101,-0.123439 -1.055494,-0.274318 z"
     id="path4680-1-9"
     sodipodi:nodetypes="cssssssscsssscssssssc" /><g
     id="g13874-3-5"
     style="fill:#ed695c;fill-opacity:1"
     transform="matrix(3.7795276,0,0,3.7795276,-178.58847,-147.15284)" /></g><path
   style="fill:#ed695c;fill-opacity:0.992157;stroke-width:0.271445"
   d="m 330.95873,354.58376 c -3.81209,-1.02607 -7.35448,-3.86029 -8.97142,-7.1779 -1.74793,-3.58637 -1.66133,-0.81327 -1.66133,-53.20303 0,-52.38975 -0.0866,-49.61667 1.66133,-53.20304 1.07956,-2.21502 3.84158,-5.00158 5.98903,-6.04224 3.41281,-1.65385 0.7734,-1.56987 46.91697,-1.49288 l 42.19304,0.0704 1.7644,0.83884 c 2.72,1.29318 5.57014,3.71601 12.22744,10.39433 6.36214,6.38221 9.33887,9.97428 10.37369,12.5182 l 0.60733,1.49294 0.0722,41.46012 c 0.0628,36.09423 0.0192,41.71521 -0.33729,43.43105 -1.12903,5.43541 -5.01495,9.5351 -10.3567,10.92645 -2.29999,0.59906 -98.25069,0.58643 -100.47859,-0.0133 z m 94.57792,-4.52156 c 1.05247,-0.5762 2.20531,-1.91786 2.4754,-2.88083 0.11197,-0.39906 0.20352,-11.65796 0.20352,-25.01981 0,-27.1355 0.11682,-25.4887 -1.91804,-27.04075 l -1.02559,-0.78227 h -44.01619 -44.01621 l -0.99707,0.76052 c -2.08143,1.58758 -1.93682,-0.26349 -2.02941,25.97673 -0.0456,12.91395 -0.007,24.11504 0.0857,24.8913 0.26368,2.20815 1.72286,3.95609 3.69499,4.42618 0.50421,0.12024 20.2164,0.19955 43.8049,0.17637 39.94465,-0.0393 42.94649,-0.0741 43.73802,-0.50744 z m -14.97108,-70.00579 c 1.3837,-0.38414 2.98373,-1.98416 3.36787,-3.36785 0.40084,-1.44385 0.41863,-33.76772 0.0194,-35.20532 -0.33858,-1.21911 -1.37799,-2.5084 -2.53126,-3.13979 -0.78886,-0.43187 -3.11967,-0.46528 -32.47309,-0.46528 -30.55962,0 -31.65828,0.0174 -32.66538,0.51746 -0.57317,0.2846 -1.36715,1.00849 -1.76438,1.60866 l -0.72225,1.09121 -0.0737,17.63402 c -0.0729,17.45394 -0.0679,17.64612 0.49833,18.81562 0.63501,1.31176 1.56299,2.08927 2.9783,2.49534 1.37992,0.39591 61.9426,0.41115 63.36616,0.016 z m -19.87928,-21.07346 0.0701,-16.21878 6.85394,-0.0725 6.85396,-0.0725 v 16.2913 16.29131 h -6.92396 -6.92394 z"
   id="path985-6" /></svg>
