<?xml version="1.0" encoding="UTF-8"?>
<svg xmlns="http://www.w3.org/2000/svg" xmlns:xlink="http://www.w3.org/1999/xlink" width="28pt" height="28pt" viewBox="0 0 28 28" version="1.1">
<g id="surface1">
<path style=" stroke:none;fill-rule:nonzero;fill:rgb(0%,0%,0%);fill-opacity:1;" d="M 25.386719 12.910156 L 19.90625 1.027344 C 19.636719 0.441406 18.949219 0 18.308594 0 L 9.691406 0 C 9.050781 0 8.363281 0.441406 8.09375 1.027344 L 2.613281 12.910156 C 2.441406 13.28125 2.453125 13.671875 2.652344 13.980469 C 2.847656 14.285156 3.191406 14.460938 3.597656 14.460938 L 13.378906 14.460938 L 13.378906 21.859375 C 10.355469 22.125 7.859375 24.316406 7.324219 27.265625 C 7.292969 27.449219 7.339844 27.636719 7.457031 27.777344 C 7.578125 27.917969 7.75 28 7.9375 28 L 20.0625 28 C 20.25 28 20.421875 27.917969 20.542969 27.777344 C 20.660156 27.636719 20.707031 27.449219 20.675781 27.265625 C 20.140625 24.316406 17.644531 22.125 14.621094 21.859375 L 14.621094 14.460938 L 18.769531 14.460938 L 18.769531 16.9375 C 18.054688 17.195312 17.542969 17.882812 17.542969 18.6875 C 17.542969 19.714844 18.371094 20.550781 19.390625 20.550781 C 20.410156 20.550781 21.238281 19.714844 21.238281 18.6875 C 21.238281 17.882812 20.726562 17.195312 20.011719 16.9375 L 20.011719 14.460938 L 24.402344 14.460938 C 24.808594 14.460938 25.152344 14.285156 25.347656 13.980469 C 25.546875 13.671875 25.558594 13.28125 25.386719 12.910156 Z M 19.261719 26.753906 L 8.738281 26.753906 C 9.46875 24.585938 11.570312 23.078125 14 23.078125 C 16.429688 23.078125 18.53125 24.585938 19.261719 26.753906 Z M 19.390625 19.304688 C 19.058594 19.304688 18.785156 19.027344 18.785156 18.6875 C 18.785156 18.347656 19.058594 18.070312 19.390625 18.070312 C 19.722656 18.070312 19.996094 18.347656 19.996094 18.6875 C 19.996094 19.027344 19.722656 19.304688 19.390625 19.304688 Z M 3.84375 13.214844 L 9.222656 1.550781 C 9.289062 1.402344 9.535156 1.246094 9.691406 1.246094 L 18.308594 1.246094 C 18.464844 1.246094 18.710938 1.402344 18.777344 1.550781 L 24.15625 13.214844 Z M 3.84375 13.214844 "/>
</g>
</svg>
