<?xml version="1.0" encoding="UTF-8"?>
<svg xmlns="http://www.w3.org/2000/svg" xmlns:xlink="http://www.w3.org/1999/xlink" width="28pt" height="28pt" viewBox="0 0 28 28" version="1.1">
<g id="surface1">
<path style=" stroke:none;fill-rule:nonzero;fill:rgb(0%,0%,0%);fill-opacity:1;" d="M 22.289062 11.378906 L 20.574219 0.699219 C 20.507812 0.296875 20.160156 0 19.753906 0 L 8.246094 0 C 7.839844 0 7.492188 0.296875 7.425781 0.699219 L 5.710938 11.378906 C 5.671875 11.617188 5.738281 11.863281 5.898438 12.046875 C 6.054688 12.234375 6.285156 12.339844 6.53125 12.339844 L 11.699219 12.339844 L 11.699219 26.339844 L 9.960938 26.339844 C 9.5 26.339844 9.128906 26.710938 9.128906 27.167969 C 9.128906 27.628906 9.5 28 9.960938 28 L 18.039062 28 C 18.5 28 18.871094 27.628906 18.871094 27.167969 C 18.871094 26.710938 18.5 26.339844 18.039062 26.339844 L 16.300781 26.339844 L 16.300781 12.339844 L 17.796875 12.339844 L 17.796875 15.65625 C 17.796875 16.117188 18.171875 16.488281 18.628906 16.488281 C 19.085938 16.488281 19.457031 16.117188 19.457031 15.65625 L 19.457031 12.339844 L 21.46875 12.339844 C 21.714844 12.339844 21.945312 12.234375 22.101562 12.046875 C 22.261719 11.863281 22.328125 11.617188 22.289062 11.378906 Z M 14.640625 26.339844 L 13.359375 26.339844 L 13.359375 12.339844 L 14.640625 12.339844 Z M 7.503906 10.679688 L 8.953125 1.660156 L 19.046875 1.660156 L 20.496094 10.679688 Z M 7.503906 10.679688 "/>
</g>
</svg>
