<?xml version="1.0" encoding="UTF-8"?>
<svg xmlns="http://www.w3.org/2000/svg" xmlns:xlink="http://www.w3.org/1999/xlink" width="28pt" height="28pt" viewBox="0 0 28 28" version="1.1">
<g id="surface1">
<path style=" stroke:none;fill-rule:nonzero;fill:rgb(0%,0%,0%);fill-opacity:1;" d="M 18.960938 3.222656 L 19.710938 1.964844 C 19.878906 1.660156 20.253906 1.554688 20.558594 1.726562 C 20.867188 1.894531 20.96875 2.269531 20.800781 2.574219 L 20.050781 3.832031 C 19.949219 4.039062 19.710938 4.136719 19.503906 4.136719 C 19.40625 4.136719 19.300781 4.105469 19.199219 4.070312 C 18.890625 3.902344 18.792969 3.53125 18.960938 3.222656 Z M 7.949219 3.835938 C 8.050781 4.039062 8.289062 4.140625 8.492188 4.140625 C 8.59375 4.140625 8.699219 4.105469 8.800781 4.074219 C 9.105469 3.902344 9.207031 3.527344 9.039062 3.222656 L 8.289062 1.964844 C 8.121094 1.660156 7.746094 1.554688 7.441406 1.726562 C 7.132812 1.894531 7.03125 2.269531 7.199219 2.574219 Z M 14 2.679688 C 14.339844 2.679688 14.609375 2.410156 14.609375 2.070312 L 14.609375 0.609375 C 14.609375 0.269531 14.339844 0 14 0 C 13.660156 0 13.386719 0.269531 13.386719 0.609375 L 13.386719 2.070312 C 13.351562 2.40625 13.625 2.679688 14 2.679688 Z M 2.988281 12.433594 L 1.527344 12.433594 C 1.1875 12.433594 0.914062 12.703125 0.914062 13.042969 C 0.914062 13.382812 1.1875 13.65625 1.527344 13.65625 L 2.988281 13.65625 C 3.328125 13.65625 3.597656 13.382812 3.597656 13.042969 C 3.597656 12.703125 3.328125 12.433594 2.988281 12.433594 Z M 26.472656 12.433594 L 25.011719 12.433594 C 24.671875 12.433594 24.402344 12.703125 24.402344 13.042969 C 24.402344 13.382812 24.671875 13.65625 25.011719 13.65625 L 26.472656 13.65625 C 26.8125 13.65625 27.085938 13.382812 27.085938 13.042969 C 27.085938 12.703125 26.8125 12.433594 26.472656 12.433594 Z M 25.351562 6.519531 C 25.179688 6.214844 24.804688 6.113281 24.5 6.28125 L 23.242188 7.03125 C 22.9375 7.199219 22.832031 7.574219 23.003906 7.878906 C 23.101562 8.085938 23.34375 8.1875 23.546875 8.1875 C 23.648438 8.1875 23.75 8.152344 23.851562 8.117188 L 25.109375 7.367188 C 25.417969 7.199219 25.519531 6.824219 25.351562 6.519531 Z M 22.019531 12.980469 C 22.019531 14.371094 21.644531 15.734375 20.964844 16.957031 C 20.929688 17.058594 20.898438 17.125 20.832031 17.195312 L 20.761719 17.296875 C 20.492188 17.707031 20.21875 18.113281 19.878906 18.453125 C 18.6875 20.117188 18.078125 21.546875 18.109375 22.460938 L 18.109375 22.496094 C 18.109375 22.566406 18.144531 22.664062 18.144531 22.765625 L 18.144531 25.691406 C 18.144531 26.980469 17.089844 28 15.832031 28 L 12.0625 28 C 10.773438 28 9.753906 26.945312 9.753906 25.691406 L 9.753906 22.765625 C 9.753906 22.695312 9.753906 22.664062 9.753906 22.597656 C 9.753906 22.5625 9.753906 22.496094 9.753906 22.460938 C 9.789062 21.578125 9.175781 20.183594 8.054688 18.550781 C 7.679688 18.144531 7.304688 17.703125 7.035156 17.191406 C 7 17.125 6.964844 17.09375 6.933594 17.023438 C 6.21875 15.796875 5.84375 14.40625 5.84375 13.011719 C 5.84375 8.558594 9.480469 4.925781 13.933594 4.925781 C 18.382812 4.890625 22.019531 8.527344 22.019531 12.980469 Z M 16.886719 23.105469 L 11.007812 23.105469 L 11.007812 24.261719 L 16.886719 24.261719 Z M 16.886719 25.757812 L 16.886719 25.519531 L 11.007812 25.519531 L 11.007812 25.757812 C 11.078125 26.304688 11.519531 26.710938 12.0625 26.710938 L 15.835938 26.710938 C 16.378906 26.710938 16.820312 26.304688 16.886719 25.757812 Z M 20.761719 12.980469 C 20.761719 9.207031 17.703125 6.144531 13.929688 6.144531 C 10.15625 6.144531 7.097656 9.207031 7.097656 12.980469 C 7.097656 14.203125 7.4375 15.394531 8.046875 16.445312 C 8.046875 16.445312 8.046875 16.445312 8.046875 16.480469 C 8.316406 16.921875 8.625 17.332031 8.964844 17.707031 C 9 17.742188 9 17.742188 9.035156 17.773438 C 10.15625 19.375 10.804688 20.734375 10.972656 21.855469 L 16.921875 21.855469 C 17.125 20.460938 18.078125 18.863281 18.925781 17.675781 C 18.925781 17.640625 18.960938 17.640625 18.996094 17.605469 C 19.300781 17.300781 19.574219 16.925781 19.777344 16.550781 C 19.777344 16.515625 19.8125 16.515625 19.8125 16.480469 C 19.8125 16.445312 19.847656 16.445312 19.847656 16.414062 C 20.457031 15.394531 20.761719 14.203125 20.761719 12.980469 Z M 4.753906 7.03125 L 3.496094 6.28125 C 3.191406 6.113281 2.816406 6.210938 2.648438 6.519531 C 2.476562 6.824219 2.578125 7.199219 2.886719 7.371094 L 4.144531 8.121094 C 4.246094 8.1875 4.347656 8.1875 4.449219 8.1875 C 4.65625 8.1875 4.890625 8.089844 4.996094 7.882812 C 5.160156 7.574219 5.0625 7.199219 4.753906 7.03125 Z M 4.753906 7.03125 "/>
</g>
</svg>
