<?xml version="1.0" encoding="UTF-8"?>
<svg xmlns="http://www.w3.org/2000/svg" xmlns:xlink="http://www.w3.org/1999/xlink" width="28pt" height="28pt" viewBox="0 0 28 28" version="1.1">
<g id="surface1">
<path style=" stroke:none;fill-rule:nonzero;fill:rgb(0%,0%,0%);fill-opacity:1;" d="M 27.5625 1.53125 L 0.4375 1.53125 C 0.195312 1.53125 0 1.335938 0 1.09375 C 0 0.851562 0.195312 0.65625 0.4375 0.65625 L 27.5625 0.65625 C 27.804688 0.65625 28 0.851562 28 1.09375 C 28 1.335938 27.804688 1.53125 27.5625 1.53125 Z M 27.5625 1.53125 "/>
<path style=" stroke:none;fill-rule:nonzero;fill:rgb(0%,0%,0%);fill-opacity:1;" d="M 27.5625 3.28125 L 0.4375 3.28125 C 0.195312 3.28125 0 3.085938 0 2.84375 C 0 2.601562 0.195312 2.40625 0.4375 2.40625 L 27.5625 2.40625 C 27.804688 2.40625 28 2.601562 28 2.84375 C 28 3.085938 27.804688 3.28125 27.5625 3.28125 Z M 27.5625 3.28125 "/>
<path style=" stroke:none;fill-rule:nonzero;fill:rgb(0%,0%,0%);fill-opacity:1;" d="M 13.992188 15.09375 C 13.75 15.09375 13.554688 14.898438 13.554688 14.65625 L 13.554688 2.84375 C 13.554688 2.601562 13.75 2.40625 13.992188 2.40625 C 14.234375 2.40625 14.429688 2.601562 14.429688 2.84375 L 14.429688 14.65625 C 14.429688 14.898438 14.234375 15.09375 13.992188 15.09375 Z M 13.992188 15.09375 "/>
<path style=" stroke:none;fill-rule:nonzero;fill:rgb(0%,0%,0%);fill-opacity:1;" d="M 5.6875 9.839844 C 5.445312 9.839844 5.25 9.644531 5.25 9.402344 L 5.25 2.84375 C 5.25 2.601562 5.445312 2.40625 5.6875 2.40625 C 5.929688 2.40625 6.125 2.601562 6.125 2.84375 L 6.125 9.402344 C 6.125 9.644531 5.929688 9.839844 5.6875 9.839844 Z M 5.6875 9.839844 "/>
<path style=" stroke:none;fill-rule:nonzero;fill:rgb(0%,0%,0%);fill-opacity:1;" d="M 19.25 22.535156 L 8.75 22.535156 C 8.507812 22.535156 8.3125 22.339844 8.3125 22.097656 C 8.3125 21.855469 8.507812 21.660156 8.75 21.660156 L 19.25 21.660156 C 19.492188 21.660156 19.6875 21.855469 19.6875 22.097656 C 19.6875 22.339844 19.492188 22.535156 19.25 22.535156 Z M 19.25 22.535156 "/>
<path style=" stroke:none;fill-rule:nonzero;fill:rgb(0%,0%,0%);fill-opacity:1;" d="M 14 24.289062 C 12.796875 24.289062 11.816406 23.308594 11.816406 22.105469 C 11.816406 21.863281 12.011719 21.667969 12.253906 21.667969 C 12.496094 21.667969 12.691406 21.863281 12.691406 22.105469 C 12.691406 22.824219 13.28125 23.414062 14 23.414062 C 14.722656 23.414062 15.308594 22.824219 15.308594 22.105469 C 15.308594 21.863281 15.503906 21.667969 15.746094 21.667969 C 15.988281 21.667969 16.183594 21.863281 16.183594 22.105469 C 16.183594 23.308594 15.203125 24.289062 14 24.289062 Z M 14 24.289062 "/>
<path style=" stroke:none;fill-rule:nonzero;fill:rgb(0%,0%,0%);fill-opacity:1;" d="M 8.75 22.535156 C 8.507812 22.535156 8.3125 22.339844 8.3125 22.097656 L 8.3125 19.910156 C 8.3125 19.667969 8.507812 19.472656 8.75 19.472656 C 8.992188 19.472656 9.1875 19.667969 9.1875 19.910156 L 9.1875 22.097656 C 9.1875 22.339844 8.992188 22.535156 8.75 22.535156 Z M 8.75 22.535156 "/>
<path style=" stroke:none;fill-rule:nonzero;fill:rgb(0%,0%,0%);fill-opacity:1;" d="M 19.25 22.535156 C 19.007812 22.535156 18.8125 22.339844 18.8125 22.097656 L 18.8125 19.910156 C 18.8125 19.667969 19.007812 19.472656 19.25 19.472656 C 19.492188 19.472656 19.6875 19.667969 19.6875 19.910156 L 19.6875 22.097656 C 19.6875 22.339844 19.492188 22.535156 19.25 22.535156 Z M 19.25 22.535156 "/>
<path style=" stroke:none;fill-rule:nonzero;fill:rgb(0%,0%,0%);fill-opacity:1;" d="M 14 27.347656 C 13.757812 27.347656 13.5625 27.152344 13.5625 26.910156 L 13.5625 25.597656 C 13.5625 25.355469 13.757812 25.160156 14 25.160156 C 14.242188 25.160156 14.4375 25.355469 14.4375 25.597656 L 14.4375 26.910156 C 14.4375 27.152344 14.242188 27.347656 14 27.347656 Z M 14 27.347656 "/>
<path style=" stroke:none;fill-rule:nonzero;fill:rgb(0%,0%,0%);fill-opacity:1;" d="M 17.089844 26.085938 C 16.976562 26.085938 16.863281 26.042969 16.78125 25.957031 L 15.851562 25.03125 C 15.679688 24.859375 15.679688 24.582031 15.851562 24.410156 C 16.023438 24.238281 16.300781 24.238281 16.46875 24.410156 L 17.398438 25.339844 C 17.570312 25.511719 17.570312 25.785156 17.398438 25.957031 C 17.3125 26.042969 17.199219 26.085938 17.089844 26.085938 Z M 17.089844 26.085938 "/>
<path style=" stroke:none;fill-rule:nonzero;fill:rgb(0%,0%,0%);fill-opacity:1;" d="M 10.910156 26.058594 C 10.800781 26.058594 10.6875 26.015625 10.601562 25.929688 C 10.429688 25.761719 10.429688 25.484375 10.601562 25.3125 L 11.527344 24.386719 C 11.699219 24.214844 11.976562 24.214844 12.148438 24.386719 C 12.320312 24.554688 12.320312 24.832031 12.148438 25.003906 L 11.21875 25.929688 C 11.136719 26.015625 11.023438 26.058594 10.910156 26.058594 Z M 10.910156 26.058594 "/>
<path style=" stroke:none;fill-rule:nonzero;fill:rgb(0%,0%,0%);fill-opacity:1;" d="M 9.1875 13.339844 C 8.945312 13.339844 8.75 13.144531 8.75 12.902344 C 8.75 11.214844 7.378906 9.839844 5.6875 9.839844 C 4 9.839844 2.625 11.214844 2.625 12.902344 C 2.625 13.144531 2.429688 13.339844 2.1875 13.339844 C 1.945312 13.339844 1.75 13.144531 1.75 12.902344 C 1.75 10.730469 3.515625 8.964844 5.6875 8.964844 C 7.859375 8.964844 9.625 10.730469 9.625 12.902344 C 9.625 13.144531 9.429688 13.339844 9.1875 13.339844 Z M 9.1875 13.339844 "/>
<path style=" stroke:none;fill-rule:nonzero;fill:rgb(0%,0%,0%);fill-opacity:1;" d="M 9.1875 14.214844 L 2.1875 14.214844 C 1.945312 14.214844 1.75 14.019531 1.75 13.777344 C 1.75 13.535156 1.945312 13.339844 2.1875 13.339844 L 9.1875 13.339844 C 9.429688 13.339844 9.625 13.535156 9.625 13.777344 C 9.625 14.019531 9.429688 14.214844 9.1875 14.214844 Z M 9.1875 14.214844 "/>
<path style=" stroke:none;fill-rule:nonzero;fill:rgb(0%,0%,0%);fill-opacity:1;" d="M 5.6875 15.527344 C 4.722656 15.527344 3.9375 14.742188 3.9375 13.777344 C 3.9375 13.535156 4.132812 13.339844 4.375 13.339844 C 4.617188 13.339844 4.8125 13.535156 4.8125 13.777344 C 4.8125 14.257812 5.207031 14.652344 5.6875 14.652344 C 6.171875 14.652344 6.5625 14.257812 6.5625 13.777344 C 6.5625 13.535156 6.757812 13.339844 7 13.339844 C 7.242188 13.339844 7.4375 13.535156 7.4375 13.777344 C 7.4375 14.742188 6.652344 15.527344 5.6875 15.527344 Z M 5.6875 15.527344 "/>
<path style=" stroke:none;fill-rule:nonzero;fill:rgb(0%,0%,0%);fill-opacity:1;" d="M 22.3125 9.839844 C 22.070312 9.839844 21.875 9.644531 21.875 9.402344 L 21.875 2.84375 C 21.875 2.601562 22.070312 2.40625 22.3125 2.40625 C 22.554688 2.40625 22.75 2.601562 22.75 2.84375 L 22.75 9.402344 C 22.75 9.644531 22.554688 9.839844 22.3125 9.839844 Z M 22.3125 9.839844 "/>
<path style=" stroke:none;fill-rule:nonzero;fill:rgb(0%,0%,0%);fill-opacity:1;" d="M 25.8125 13.339844 C 25.570312 13.339844 25.375 13.144531 25.375 12.902344 C 25.375 11.214844 24 9.839844 22.3125 9.839844 C 20.621094 9.839844 19.25 11.214844 19.25 12.902344 C 19.25 13.144531 19.054688 13.339844 18.8125 13.339844 C 18.570312 13.339844 18.375 13.144531 18.375 12.902344 C 18.375 10.730469 20.140625 8.964844 22.3125 8.964844 C 24.484375 8.964844 26.25 10.730469 26.25 12.902344 C 26.25 13.144531 26.054688 13.339844 25.8125 13.339844 Z M 25.8125 13.339844 "/>
<path style=" stroke:none;fill-rule:nonzero;fill:rgb(0%,0%,0%);fill-opacity:1;" d="M 19.242188 20.34375 C 19 20.34375 18.804688 20.144531 18.804688 19.90625 C 18.804688 17.25 16.644531 15.09375 13.992188 15.09375 C 11.339844 15.09375 9.179688 17.25 9.179688 19.90625 C 9.179688 20.144531 8.984375 20.34375 8.742188 20.34375 C 8.5 20.34375 8.304688 20.144531 8.304688 19.90625 C 8.304688 16.769531 10.855469 14.21875 13.992188 14.21875 C 17.128906 14.21875 19.679688 16.769531 19.679688 19.90625 C 19.679688 20.144531 19.484375 20.34375 19.242188 20.34375 Z M 19.242188 20.34375 "/>
<path style=" stroke:none;fill-rule:nonzero;fill:rgb(0%,0%,0%);fill-opacity:1;" d="M 25.8125 14.214844 L 18.8125 14.214844 C 18.570312 14.214844 18.375 14.019531 18.375 13.777344 C 18.375 13.535156 18.570312 13.339844 18.8125 13.339844 L 25.8125 13.339844 C 26.054688 13.339844 26.25 13.535156 26.25 13.777344 C 26.25 14.019531 26.054688 14.214844 25.8125 14.214844 Z M 25.8125 14.214844 "/>
<path style=" stroke:none;fill-rule:nonzero;fill:rgb(0%,0%,0%);fill-opacity:1;" d="M 22.3125 15.527344 C 21.34375 15.527344 20.5625 14.742188 20.5625 13.777344 C 20.5625 13.535156 20.757812 13.339844 21 13.339844 C 21.238281 13.339844 21.4375 13.535156 21.4375 13.777344 C 21.4375 14.257812 21.828125 14.652344 22.3125 14.652344 C 22.792969 14.652344 23.1875 14.257812 23.1875 13.777344 C 23.1875 13.535156 23.382812 13.339844 23.625 13.339844 C 23.863281 13.339844 24.0625 13.535156 24.0625 13.777344 C 24.0625 14.742188 23.277344 15.527344 22.3125 15.527344 Z M 22.3125 15.527344 "/>
<path style=" stroke:none;fill-rule:nonzero;fill:rgb(0%,0%,0%);fill-opacity:1;" d="M 2.1875 14.214844 C 1.945312 14.214844 1.75 14.019531 1.75 13.777344 L 1.75 12.902344 C 1.75 12.660156 1.945312 12.464844 2.1875 12.464844 C 2.429688 12.464844 2.625 12.660156 2.625 12.902344 L 2.625 13.777344 C 2.625 14.019531 2.429688 14.214844 2.1875 14.214844 Z M 2.1875 14.214844 "/>
<path style=" stroke:none;fill-rule:nonzero;fill:rgb(0%,0%,0%);fill-opacity:1;" d="M 9.1875 14.214844 C 8.945312 14.214844 8.75 14.019531 8.75 13.777344 L 8.75 12.902344 C 8.75 12.660156 8.945312 12.464844 9.1875 12.464844 C 9.429688 12.464844 9.625 12.660156 9.625 12.902344 L 9.625 13.777344 C 9.625 14.019531 9.429688 14.214844 9.1875 14.214844 Z M 9.1875 14.214844 "/>
<path style=" stroke:none;fill-rule:nonzero;fill:rgb(0%,0%,0%);fill-opacity:1;" d="M 18.8125 14.214844 C 18.570312 14.214844 18.375 14.019531 18.375 13.777344 L 18.375 12.902344 C 18.375 12.660156 18.570312 12.464844 18.8125 12.464844 C 19.054688 12.464844 19.25 12.660156 19.25 12.902344 L 19.25 13.777344 C 19.25 14.019531 19.054688 14.214844 18.8125 14.214844 Z M 18.8125 14.214844 "/>
<path style=" stroke:none;fill-rule:nonzero;fill:rgb(0%,0%,0%);fill-opacity:1;" d="M 25.8125 14.214844 C 25.570312 14.214844 25.375 14.019531 25.375 13.777344 L 25.375 12.902344 C 25.375 12.660156 25.570312 12.464844 25.8125 12.464844 C 26.054688 12.464844 26.25 12.660156 26.25 12.902344 L 26.25 13.777344 C 26.25 14.019531 26.054688 14.214844 25.8125 14.214844 Z M 25.8125 14.214844 "/>
</g>
</svg>
