<?xml version="1.0" encoding="UTF-8"?>
<svg xmlns="http://www.w3.org/2000/svg" xmlns:xlink="http://www.w3.org/1999/xlink" width="28pt" height="28pt" viewBox="0 0 28 28" version="1.1">
<g id="surface1">
<path style=" stroke:none;fill-rule:nonzero;fill:rgb(0%,0%,0%);fill-opacity:1;" d="M 26.011719 18.578125 C 26.222656 17.878906 25.957031 17.140625 25.351562 16.738281 L 18.027344 11.851562 L 16.460938 5.597656 C 16.371094 5.234375 16.042969 4.976562 15.667969 4.976562 L 14.847656 4.976562 L 14.847656 1.640625 L 17.308594 1.640625 C 17.761719 1.640625 18.128906 1.273438 18.128906 0.820312 C 18.128906 0.367188 17.761719 0 17.308594 0 L 10.746094 0 C 10.292969 0 9.925781 0.367188 9.925781 0.820312 C 9.925781 1.273438 10.292969 1.640625 10.746094 1.640625 L 13.207031 1.640625 L 13.207031 4.976562 L 12.386719 4.976562 C 12.007812 4.976562 11.679688 5.234375 11.589844 5.597656 L 10.027344 11.851562 L 2.699219 16.738281 C 2.09375 17.140625 1.828125 17.878906 2.039062 18.578125 C 2.25 19.273438 2.882812 19.742188 3.609375 19.742188 L 10.007812 19.742188 C 10.386719 21.613281 12.046875 23.023438 14.027344 23.023438 C 16.007812 23.023438 17.664062 21.613281 18.046875 19.742188 L 24.441406 19.742188 C 25.171875 19.742188 25.800781 19.273438 26.011719 18.578125 Z M 13.027344 6.617188 L 15.027344 6.617188 L 16.257812 11.539062 L 11.796875 11.539062 Z M 10.992188 13.179688 L 17.058594 13.179688 L 24.441406 18.101562 L 3.609375 18.101562 Z M 14.027344 21.382812 C 12.957031 21.382812 12.046875 20.695312 11.707031 19.742188 L 16.347656 19.742188 C 16.007812 20.695312 15.09375 21.382812 14.027344 21.382812 Z M 14.027344 21.382812 "/>
<path style=" stroke:none;fill-rule:nonzero;fill:rgb(0%,0%,0%);fill-opacity:1;" d="M 13.207031 25.484375 L 13.207031 27.179688 C 13.207031 27.632812 13.574219 28 14.027344 28 C 14.480469 28 14.847656 27.632812 14.847656 27.179688 L 14.847656 25.484375 C 14.847656 25.03125 14.480469 24.664062 14.027344 24.664062 C 13.574219 24.664062 13.207031 25.03125 13.207031 25.484375 Z M 13.207031 25.484375 "/>
<path style=" stroke:none;fill-rule:nonzero;fill:rgb(0%,0%,0%);fill-opacity:1;" d="M 17.191406 23.726562 C 16.871094 24.046875 16.871094 24.566406 17.191406 24.886719 L 18.367188 26.0625 C 18.6875 26.382812 19.207031 26.382812 19.527344 26.0625 C 19.847656 25.742188 19.847656 25.222656 19.527344 24.902344 L 18.351562 23.726562 C 18.03125 23.40625 17.511719 23.40625 17.191406 23.726562 Z M 17.191406 23.726562 "/>
<path style=" stroke:none;fill-rule:nonzero;fill:rgb(0%,0%,0%);fill-opacity:1;" d="M 9.699219 23.726562 L 8.527344 24.902344 C 8.207031 25.222656 8.207031 25.742188 8.527344 26.0625 C 8.847656 26.382812 9.367188 26.382812 9.6875 26.0625 L 10.859375 24.886719 C 11.179688 24.566406 11.179688 24.046875 10.859375 23.726562 C 10.539062 23.40625 10.019531 23.40625 9.699219 23.726562 Z M 9.699219 23.726562 "/>
</g>
</svg>
