<?xml version="1.0" encoding="UTF-8" standalone="no"?>
<svg
   width="28pt"
   height="28pt"
   viewBox="0 0 28 28"
   version="1.1"
   id="svg1088"
   xmlns="http://www.w3.org/2000/svg"
   xmlns:svg="http://www.w3.org/2000/svg">
  <defs
     id="defs1092" />
  <g
     id="surface1-0"
     transform="matrix(1.5287093,0,0,1.5287093,-7.4019299,-15.904722)">
    <path
       style="fill:#000000;fill-opacity:1;fill-rule:nonzero;stroke:none"
       d="M 22.09375,14.152344 H 5.910156 V 13.351562 H 22.09375 L 22.503906,13.75 Z m 0,0 v -0.800782 h 0.04297 l 0.07813,0.01563 0.01953,0.0078 0.01953,0.0039 0.01953,0.0078 0.01562,0.01172 0.01953,0.0078 0.0625,0.04687 0.01172,0.01563 0.01563,0.01172 0.04687,0.0625 0.0078,0.01563 0.01172,0.01953 0.0078,0.01563 0.01563,0.03906 0.01563,0.07813 v 0.08594 l -0.01563,0.07813 -0.0078,0.01563 -0.01563,0.03906 -0.01172,0.01562 -0.0078,0.01953 -0.03516,0.04687 -0.05469,0.05469 -0.04687,0.03516 -0.01953,0.0078 -0.01562,0.0078 -0.05859,0.02344 -0.07813,0.01563 h -0.04297 z m -0.410156,3.640625 V 13.75 h 0.820312 v 4.042969 l -0.410156,0.398437 z m 0,0 h 0.820312 v 0.03906 l -0.01563,0.07813 -0.02344,0.05859 -0.01172,0.01563 -0.0078,0.01563 -0.04687,0.0625 -0.04297,0.04297 -0.03125,0.02344 -0.01563,0.0078 -0.01953,0.01172 -0.01562,0.0078 -0.03906,0.01563 -0.01953,0.0039 -0.01953,0.0078 -0.03906,0.0078 h -0.01953 l -0.02344,0.0039 h -0.04297 l -0.01953,-0.0039 h -0.01953 l -0.03906,-0.0078 -0.01953,-0.0078 -0.01953,-0.0039 -0.03906,-0.01563 -0.01562,-0.0078 -0.01953,-0.01172 -0.01563,-0.0078 -0.03125,-0.02344 -0.04297,-0.04297 -0.05859,-0.07813 -0.0078,-0.01563 -0.02344,-0.05859 -0.01563,-0.07813 z M 5.910156,17.390625 H 22.09375 v 0.800781 H 5.910156 L 5.496094,17.792969 Z m 0,0 v 0.800781 H 5.867188 L 5.847656,18.1875 5.824219,18.183594 5.785156,18.175781 5.765625,18.167969 5.75,18.164062 5.730469,18.15625 5.710938,18.144531 5.695312,18.136719 5.617188,18.078125 5.605469,18.0625 5.589844,18.046875 5.566406,18.015625 5.558594,18 5.546875,17.984375 5.539062,17.964844 5.53125,17.949219 5.515625,17.910156 5.496094,17.8125 V 17.76953 L 5.5,17.746094 l 0.015625,-0.07813 0.00781,-0.01563 0.015624,-0.03906 0.00781,-0.01563 0.011719,-0.01953 0.00781,-0.01563 0.023438,-0.03125 0.015625,-0.01172 0.011719,-0.01563 0.015624,-0.01172 0.015626,-0.01563 0.046874,-0.03516 0.015626,-0.0078 0.039062,-0.01563 0.015625,-0.0078 0.019531,-0.0078 0.039063,-0.0078 0.023437,-0.0039 0.019532,-0.0039 H 5.910156 Z M 6.320312,13.75 v 4.042969 H 5.496094 V 13.75 l 0.414062,-0.398438 z m 0,0 H 5.496094 v -0.01953 l 0.019531,-0.09766 0.023437,-0.05859 0.00781,-0.01563 0.011719,-0.01563 0.00781,-0.01563 0.023438,-0.03125 0.015625,-0.01563 0.011719,-0.01563 0.015624,-0.01172 0.015626,-0.01563 0.03125,-0.02344 0.015624,-0.0078 0.015626,-0.01172 0.039062,-0.01563 0.015625,-0.0078 0.019531,-0.0039 0.019532,-0.0078 0.019531,-0.0039 0.023437,-0.0039 h 0.019532 l 0.019531,-0.0039 h 0.042969 l 0.023437,0.0039 h 0.019531 l 0.039063,0.0078 0.019531,0.0078 0.019531,0.0039 0.019531,0.0078 0.015626,0.0078 0.019531,0.0078 0.015625,0.01172 0.015625,0.0078 0.015625,0.01172 0.019531,0.01172 0.011719,0.01563 0.015625,0.01172 0.011719,0.01563 0.015624,0.01563 0.035157,0.04687 0.00781,0.01563 0.011719,0.01563 0.015625,0.03906 0.00391,0.01953 0.00781,0.01953 0.00781,0.03906 v 0.01953 l 0.00391,0.01953 z m 0,0"
       id="path824" />
    <path
       style="fill:#000000;fill-opacity:1;fill-rule:nonzero;stroke:none"
       d="M 14.410156,19.605469 H 13.59375 v -0.03906 l 0.0039,-0.02344 0.01172,-0.05859 0.0078,-0.01563 0.01562,-0.03906 0.0078,-0.01563 0.01172,-0.01953 0.0078,-0.01563 0.01172,-0.01563 0.02734,-0.02734 0.01172,-0.01563 0.01562,-0.01172 0.01563,-0.01563 0.04687,-0.03516 0.01953,-0.0078 0.01563,-0.0078 0.03906,-0.01563 0.01563,-0.0078 0.02344,-0.0039 0.05859,-0.01172 h 0.08594 l 0.07813,0.01563 0.05859,0.02344 0.03125,0.01562 0.01953,0.01172 0.03125,0.02344 0.01172,0.01563 0.01563,0.01172 0.02734,0.02734 0.03516,0.04687 0.0078,0.01953 0.01172,0.01563 0.0078,0.01953 0.0039,0.01953 0.0078,0.01563 0.0078,0.01953 0.0078,0.03906 v 0.02344 l 0.0039,0.01953 v 0.01953 z m -0.816406,5.65625 v -5.65625 h 0.816406 v 5.65625 z m 0,0 h 0.816406 v 0.04297 l -0.01172,0.05859 -0.0078,0.01953 -0.0039,0.01953 -0.0078,0.01953 -0.0078,0.01563 -0.0078,0.01953 -0.01172,0.01563 -0.0078,0.01563 -0.01563,0.01563 -0.03516,0.04687 -0.07813,0.05859 -0.01953,0.0078 -0.01562,0.01172 -0.01953,0.0078 -0.01953,0.0039 -0.01563,0.0078 -0.02344,0.0039 -0.01953,0.0078 -0.01953,0.0039 h -0.01953 l -0.01953,0.0039 h -0.04297 l -0.02344,-0.0039 H 13.9375 l -0.01953,-0.0039 -0.01953,-0.0078 -0.01953,-0.0039 -0.01953,-0.0078 -0.01953,-0.0039 -0.01953,-0.0078 -0.01562,-0.01172 -0.01953,-0.0078 -0.0625,-0.04687 -0.02734,-0.02734 -0.04687,-0.0625 -0.0078,-0.01563 -0.01172,-0.01953 -0.0078,-0.01563 -0.0078,-0.01953 -0.0039,-0.01953 -0.0078,-0.01953 -0.0078,-0.03906 v -0.01953 l -0.0039,-0.01953 v -0.02344 z m 0,0"
       id="path826" />
    <path
       style="fill:#000000;fill-opacity:1;fill-rule:nonzero;stroke:none"
       d="m 18.972656,19.210938 -0.683594,0.4375 -0.0078,-0.01563 -0.01172,-0.01953 -0.01172,-0.01563 -0.0078,-0.01953 -0.0039,-0.01953 -0.0078,-0.01953 -0.01172,-0.05859 v -0.01953 l -0.0039,-0.01953 v -0.01953 l 0.0039,-0.01953 v -0.01953 l 0.0078,-0.03906 0.0039,-0.01563 0.0039,-0.01953 0.0078,-0.01953 0.0039,-0.01562 0.0078,-0.01953 0.01172,-0.01563 0.0078,-0.01953 0.03516,-0.04687 0.04297,-0.04297 0.03125,-0.02344 0.01953,-0.01172 0.01563,-0.01172 0.01953,-0.01172 0.01953,-0.0078 0.01563,-0.0078 0.01953,-0.0078 0.07813,-0.01563 0.02344,-0.0039 h 0.05859 l 0.01953,0.0039 h 0.01953 l 0.03906,0.0078 0.01563,0.0078 0.01953,0.0039 0.01953,0.0078 0.01563,0.0078 0.01953,0.0078 0.01563,0.01172 0.01953,0.0078 0.01563,0.01172 0.01563,0.01563 0.01563,0.01172 0.01172,0.01563 0.01563,0.01172 0.02344,0.03125 z m 1.621094,3.914062 -2.304688,-3.476562 0.683594,-0.4375 2.304688,3.476562 z m 0,0 0.683594,-0.4375 0.0078,0.01563 0.01172,0.01953 0.01172,0.01563 0.0078,0.01953 0.0039,0.01953 0.0078,0.01563 0.0039,0.01953 0.0039,0.02344 0.0039,0.01953 V 22.875 l 0.0039,0.01953 v 0.01953 l -0.0039,0.01953 v 0.01953 l -0.0078,0.03906 -0.0039,0.01562 -0.0039,0.01953 -0.0078,0.01953 -0.0039,0.01563 -0.01172,0.01953 -0.01563,0.03125 -0.01172,0.01953 -0.02344,0.03125 -0.04297,0.04297 -0.03125,0.02344 -0.01953,0.01172 -0.01563,0.01172 -0.01953,0.0078 -0.01953,0.01172 -0.01562,0.0078 -0.01953,0.0078 -0.07813,0.01563 -0.02344,0.0039 h -0.05859 l -0.01953,-0.0039 h -0.01953 l -0.03906,-0.0078 -0.01563,-0.0078 -0.01953,-0.0039 -0.01953,-0.0078 -0.01563,-0.0078 -0.01953,-0.01172 -0.01563,-0.0078 -0.01953,-0.01172 -0.04687,-0.03516 -0.01172,-0.01563 -0.01563,-0.01172 -0.02344,-0.03125 z m 0,0"
       id="path828" />
    <path
       style="fill:#000000;fill-opacity:1;fill-rule:nonzero;stroke:none"
       d="m 9.03125,19.210938 0.035156,-0.04688 0.042969,-0.04297 0.03125,-0.02344 0.019531,-0.01172 0.015625,-0.0078 0.019531,-0.01172 0.015626,-0.0078 0.019531,-0.0039 0.019531,-0.0078 0.019531,-0.0039 0.015625,-0.0039 0.039063,-0.0078 H 9.34375 l 0.019531,-0.0039 h 0.023438 l 0.019531,0.0039 h 0.019531 l 0.058594,0.01172 0.019531,0.0078 0.019532,0.0039 0.019531,0.0078 0.015625,0.01172 0.019531,0.0078 0.019531,0.01172 0.03125,0.02344 0.015625,0.01562 0.015625,0.01172 0.027344,0.02734 0.023438,0.03125 0.011718,0.01953 0.00781,0.01563 0.011719,0.01563 0.015624,0.03906 0.00391,0.01563 0.00781,0.01953 0.00391,0.01953 0.00391,0.01563 v 0.01953 l 0.00391,0.01953 v 0.0625 l -0.019531,0.09766 -0.00781,0.01563 -0.00781,0.01953 -0.011719,0.01953 -0.00781,0.01562 -0.011718,0.01953 z M 7.410156,23.125 6.726562,22.6875 9.03125,19.210938 l 0.683594,0.4375 z m 0,0 -0.023437,0.03125 -0.015625,0.01563 -0.011719,0.01563 -0.027344,0.02734 -0.019531,0.01172 -0.03125,0.02344 -0.019531,0.0078 -0.03125,0.01563 -0.039063,0.01562 -0.039062,0.0078 -0.015625,0.0039 -0.019531,0.0039 H 7.09375 l -0.019531,0.0039 H 7.054688 L 7.035156,23.30466 H 7.015625 L 6.957031,23.292969 6.9375,23.285156 6.917969,23.28125 6.898438,23.269531 6.882812,23.261719 6.863281,23.25 6.84375,23.242188 6.8125,23.21875 6.796875,23.203125 6.78125,23.191406 6.753906,23.164062 6.730469,23.132812 6.71875,23.113281 l -0.011719,-0.01563 -0.00781,-0.01953 -0.00781,-0.01563 -0.00781,-0.01953 -0.00391,-0.01563 -0.00781,-0.01953 -0.00781,-0.03906 v -0.01953 l -0.00391,-0.01953 v -0.05859 l 0.019532,-0.09766 0.00781,-0.01563 0.015625,-0.03906 0.011719,-0.01563 0.011718,-0.01953 0.683594,0.4375 z m 0,0"
       id="path830" />
  </g>
</svg>
