<?xml version="1.0" encoding="UTF-8"?>
<svg xmlns="http://www.w3.org/2000/svg" xmlns:xlink="http://www.w3.org/1999/xlink" width="28px" height="28px" viewBox="0 0 28 28" version="1.1">
<g id="surface1">
<path style=" stroke:none;fill-rule:nonzero;fill:rgb(0%,0%,0%);fill-opacity:1;" d="M 26.371094 5.730469 L 1.632812 5.730469 L 1.632812 4.507812 L 26.371094 4.507812 L 27 5.113281 Z M 26.371094 5.730469 L 26.371094 4.507812 L 26.4375 4.507812 L 26.558594 4.53125 L 26.589844 4.542969 L 26.617188 4.546875 L 26.648438 4.558594 L 26.671875 4.578125 L 26.703125 4.589844 L 26.796875 4.660156 L 26.816406 4.683594 L 26.839844 4.703125 L 26.910156 4.796875 L 26.921875 4.824219 L 26.941406 4.851562 L 26.953125 4.875 L 26.976562 4.9375 L 27 5.054688 L 27 5.1875 L 26.976562 5.304688 L 26.964844 5.328125 L 26.941406 5.390625 L 26.921875 5.414062 L 26.910156 5.445312 L 26.855469 5.515625 L 26.773438 5.597656 L 26.703125 5.652344 L 26.671875 5.664062 L 26.648438 5.675781 L 26.558594 5.710938 L 26.4375 5.734375 L 26.371094 5.734375 Z M 25.746094 11.296875 L 25.746094 5.113281 L 27 5.113281 L 27 11.296875 L 26.371094 11.90625 Z M 25.746094 11.296875 L 27 11.296875 L 27 11.355469 L 26.976562 11.476562 L 26.941406 11.5625 L 26.921875 11.589844 L 26.910156 11.613281 L 26.839844 11.707031 L 26.773438 11.773438 L 26.726562 11.808594 L 26.703125 11.820312 L 26.671875 11.839844 L 26.648438 11.851562 L 26.589844 11.875 L 26.558594 11.878906 L 26.527344 11.894531 L 26.46875 11.90625 L 26.4375 11.90625 L 26.402344 11.910156 L 26.335938 11.910156 L 26.308594 11.90625 L 26.277344 11.90625 L 26.21875 11.894531 L 26.1875 11.878906 L 26.15625 11.875 L 26.097656 11.851562 L 26.074219 11.839844 L 26.042969 11.820312 L 26.019531 11.808594 L 25.972656 11.773438 L 25.90625 11.707031 L 25.816406 11.589844 L 25.804688 11.5625 L 25.769531 11.476562 L 25.746094 11.355469 Z M 1.632812 10.679688 L 26.371094 10.679688 L 26.371094 11.90625 L 1.632812 11.90625 L 1 11.296875 Z M 1.632812 10.679688 L 1.632812 11.90625 L 1.566406 11.90625 L 1.539062 11.898438 L 1.5 11.894531 L 1.441406 11.878906 L 1.410156 11.867188 L 1.386719 11.863281 L 1.359375 11.851562 L 1.328125 11.832031 L 1.304688 11.820312 L 1.183594 11.730469 L 1.167969 11.707031 L 1.144531 11.683594 L 1.109375 11.636719 L 1.078125 11.589844 L 1.066406 11.558594 L 1.054688 11.535156 L 1.03125 11.476562 L 1 11.324219 L 1 11.257812 L 1.007812 11.222656 L 1.03125 11.105469 L 1.042969 11.082031 L 1.066406 11.019531 L 1.078125 10.996094 L 1.109375 10.941406 L 1.144531 10.894531 L 1.167969 10.878906 L 1.183594 10.855469 L 1.210938 10.835938 L 1.234375 10.8125 L 1.304688 10.757812 L 1.328125 10.746094 L 1.386719 10.722656 L 1.410156 10.710938 L 1.441406 10.699219 L 1.539062 10.679688 L 1.566406 10.675781 L 1.632812 10.675781 Z M 2.261719 5.113281 L 2.261719 11.296875 L 1 11.296875 L 1 5.113281 L 1.632812 4.507812 Z M 2.261719 5.113281 L 1 5.113281 L 1 5.085938 L 1.03125 4.9375 L 1.066406 4.847656 L 1.078125 4.824219 L 1.09375 4.796875 L 1.109375 4.773438 L 1.144531 4.726562 L 1.167969 4.703125 L 1.183594 4.679688 L 1.210938 4.660156 L 1.234375 4.636719 L 1.28125 4.601562 L 1.304688 4.589844 L 1.328125 4.570312 L 1.386719 4.546875 L 1.410156 4.535156 L 1.441406 4.53125 L 1.472656 4.519531 L 1.5 4.511719 L 1.539062 4.507812 L 1.566406 4.507812 L 1.597656 4.5 L 1.664062 4.5 L 1.699219 4.507812 L 1.730469 4.507812 L 1.789062 4.519531 L 1.816406 4.53125 L 1.847656 4.535156 L 1.878906 4.546875 L 1.902344 4.558594 L 1.929688 4.570312 L 1.957031 4.589844 L 1.980469 4.601562 L 2.003906 4.621094 L 2.03125 4.636719 L 2.050781 4.660156 L 2.074219 4.679688 L 2.09375 4.703125 L 2.117188 4.726562 L 2.171875 4.796875 L 2.183594 4.824219 L 2.199219 4.847656 L 2.222656 4.90625 L 2.230469 4.9375 L 2.242188 4.964844 L 2.253906 5.023438 L 2.253906 5.054688 L 2.261719 5.085938 Z M 2.261719 5.113281 "/>
<path style=" stroke:none;fill-rule:nonzero;fill:rgb(0%,0%,0%);fill-opacity:1;" d="M 14.628906 14.066406 L 13.378906 14.066406 L 13.378906 14.007812 L 13.386719 13.972656 L 13.402344 13.882812 L 13.414062 13.855469 L 13.4375 13.796875 L 13.449219 13.773438 L 13.46875 13.742188 L 13.480469 13.71875 L 13.5 13.695312 L 13.539062 13.652344 L 13.558594 13.628906 L 13.582031 13.613281 L 13.605469 13.589844 L 13.675781 13.535156 L 13.707031 13.523438 L 13.730469 13.511719 L 13.789062 13.488281 L 13.816406 13.476562 L 13.851562 13.46875 L 13.941406 13.453125 L 14.070312 13.453125 L 14.191406 13.476562 L 14.28125 13.511719 L 14.328125 13.535156 L 14.359375 13.554688 L 14.40625 13.589844 L 14.425781 13.613281 L 14.449219 13.628906 L 14.488281 13.671875 L 14.542969 13.742188 L 14.554688 13.773438 L 14.574219 13.796875 L 14.585938 13.828125 L 14.589844 13.855469 L 14.613281 13.910156 L 14.625 13.972656 L 14.625 14.007812 L 14.632812 14.035156 L 14.632812 14.066406 Z M 13.378906 22.714844 L 13.378906 14.066406 L 14.628906 14.066406 L 14.628906 22.714844 Z M 13.378906 22.714844 L 14.628906 22.714844 L 14.628906 22.777344 L 14.609375 22.867188 L 14.597656 22.898438 L 14.589844 22.929688 L 14.578125 22.957031 L 14.566406 22.980469 L 14.554688 23.011719 L 14.539062 23.035156 L 14.527344 23.058594 L 14.5 23.082031 L 14.449219 23.15625 L 14.328125 23.246094 L 14.296875 23.257812 L 14.273438 23.273438 L 14.246094 23.285156 L 14.214844 23.292969 L 14.191406 23.304688 L 14.15625 23.308594 L 14.125 23.320312 L 14.09375 23.328125 L 14.066406 23.328125 L 14.035156 23.335938 L 13.96875 23.335938 L 13.933594 23.328125 L 13.90625 23.328125 L 13.875 23.320312 L 13.84375 23.308594 L 13.816406 23.304688 L 13.785156 23.292969 L 13.753906 23.285156 L 13.726562 23.273438 L 13.703125 23.257812 L 13.671875 23.246094 L 13.574219 23.171875 L 13.535156 23.132812 L 13.460938 23.035156 L 13.421875 22.957031 L 13.410156 22.929688 L 13.402344 22.898438 L 13.390625 22.867188 L 13.378906 22.808594 L 13.378906 22.777344 L 13.375 22.75 L 13.375 22.714844 Z M 13.378906 22.714844 "/>
<path style=" stroke:none;fill-rule:nonzero;fill:rgb(0%,0%,0%);fill-opacity:1;" d="M 21.601562 13.464844 L 20.558594 14.132812 L 20.542969 14.109375 L 20.527344 14.078125 L 20.507812 14.054688 L 20.496094 14.023438 L 20.492188 13.996094 L 20.480469 13.964844 L 20.460938 13.875 L 20.460938 13.84375 L 20.457031 13.816406 L 20.457031 13.785156 L 20.460938 13.753906 L 20.460938 13.726562 L 20.472656 13.667969 L 20.480469 13.640625 L 20.484375 13.613281 L 20.496094 13.582031 L 20.503906 13.558594 L 20.515625 13.527344 L 20.53125 13.503906 L 20.542969 13.476562 L 20.597656 13.402344 L 20.664062 13.335938 L 20.710938 13.300781 L 20.742188 13.285156 L 20.765625 13.265625 L 20.796875 13.25 L 20.824219 13.234375 L 20.847656 13.222656 L 20.878906 13.210938 L 21 13.1875 L 21.035156 13.183594 L 21.125 13.183594 L 21.152344 13.1875 L 21.183594 13.1875 L 21.242188 13.199219 L 21.265625 13.210938 L 21.296875 13.21875 L 21.328125 13.230469 L 21.351562 13.242188 L 21.378906 13.253906 L 21.40625 13.273438 L 21.433594 13.285156 L 21.457031 13.300781 L 21.480469 13.324219 L 21.507812 13.34375 L 21.523438 13.367188 L 21.546875 13.386719 L 21.582031 13.433594 Z M 24.078125 19.445312 L 20.558594 14.132812 L 21.601562 13.464844 L 25.125 18.777344 Z M 24.078125 19.445312 L 25.125 18.777344 L 25.136719 18.800781 L 25.15625 18.832031 L 25.171875 18.855469 L 25.183594 18.886719 L 25.191406 18.914062 L 25.203125 18.9375 L 25.207031 18.96875 L 25.214844 19.003906 L 25.21875 19.035156 L 25.21875 19.066406 L 25.226562 19.09375 L 25.226562 19.125 L 25.21875 19.152344 L 25.21875 19.183594 L 25.207031 19.242188 L 25.203125 19.265625 L 25.195312 19.296875 L 25.183594 19.328125 L 25.179688 19.351562 L 25.160156 19.382812 L 25.136719 19.429688 L 25.117188 19.457031 L 25.082031 19.507812 L 25.015625 19.570312 L 24.96875 19.609375 L 24.941406 19.625 L 24.914062 19.644531 L 24.886719 19.65625 L 24.800781 19.699219 L 24.683594 19.722656 L 24.648438 19.726562 L 24.558594 19.726562 L 24.527344 19.722656 L 24.496094 19.722656 L 24.4375 19.710938 L 24.414062 19.699219 L 24.382812 19.691406 L 24.355469 19.679688 L 24.332031 19.667969 L 24.300781 19.648438 L 24.246094 19.621094 L 24.175781 19.566406 L 24.15625 19.542969 L 24.132812 19.523438 L 24.097656 19.476562 Z M 24.078125 19.445312 "/>
<path style=" stroke:none;fill-rule:nonzero;fill:rgb(0%,0%,0%);fill-opacity:1;" d="M 6.402344 13.464844 L 6.457031 13.390625 L 6.523438 13.324219 L 6.570312 13.289062 L 6.625 13.261719 L 6.65625 13.242188 L 6.679688 13.230469 L 6.707031 13.222656 L 6.738281 13.210938 L 6.769531 13.207031 L 6.792969 13.199219 L 6.851562 13.1875 L 6.882812 13.1875 L 6.910156 13.183594 L 6.949219 13.183594 L 6.976562 13.1875 L 7.007812 13.1875 L 7.097656 13.207031 L 7.125 13.21875 L 7.15625 13.222656 L 7.1875 13.238281 L 7.210938 13.253906 L 7.242188 13.265625 L 7.269531 13.285156 L 7.316406 13.320312 L 7.339844 13.34375 L 7.367188 13.363281 L 7.40625 13.402344 L 7.441406 13.453125 L 7.460938 13.480469 L 7.472656 13.503906 L 7.492188 13.527344 L 7.515625 13.589844 L 7.519531 13.613281 L 7.53125 13.640625 L 7.539062 13.671875 L 7.542969 13.695312 L 7.542969 13.726562 L 7.550781 13.753906 L 7.550781 13.851562 L 7.519531 14 L 7.507812 14.023438 L 7.496094 14.054688 L 7.46875 14.109375 L 7.449219 14.136719 Z M 3.925781 19.445312 L 2.882812 18.777344 L 6.402344 13.464844 L 7.449219 14.132812 Z M 3.925781 19.445312 L 3.890625 19.496094 L 3.867188 19.519531 L 3.847656 19.542969 L 3.804688 19.585938 L 3.777344 19.601562 L 3.730469 19.636719 L 3.699219 19.648438 L 3.652344 19.671875 L 3.589844 19.699219 L 3.53125 19.710938 L 3.507812 19.714844 L 3.476562 19.722656 L 3.441406 19.722656 L 3.414062 19.726562 L 3.382812 19.726562 L 3.351562 19.722656 L 3.324219 19.722656 L 3.234375 19.703125 L 3.203125 19.691406 L 3.171875 19.683594 L 3.144531 19.667969 L 3.121094 19.65625 L 3.089844 19.636719 L 3.058594 19.625 L 3.011719 19.589844 L 2.988281 19.566406 L 2.964844 19.546875 L 2.921875 19.507812 L 2.886719 19.457031 L 2.867188 19.429688 L 2.851562 19.40625 L 2.839844 19.375 L 2.828125 19.351562 L 2.816406 19.320312 L 2.808594 19.296875 L 2.796875 19.265625 L 2.785156 19.207031 L 2.785156 19.179688 L 2.78125 19.148438 L 2.78125 19.058594 L 2.808594 18.910156 L 2.820312 18.886719 L 2.84375 18.824219 L 2.863281 18.800781 L 2.882812 18.773438 L 3.925781 19.441406 Z M 3.925781 19.445312 "/>
</g>
</svg>
