<?xml version="1.0" encoding="UTF-8"?>
<svg xmlns="http://www.w3.org/2000/svg" xmlns:xlink="http://www.w3.org/1999/xlink" width="28px" height="28px" viewBox="0 0 28 28" version="1.1">
<g id="surface1">
<path style=" stroke:none;fill-rule:nonzero;fill:rgb(0%,0%,0%);fill-opacity:1;" d="M 1.628906 22.105469 L 26.367188 22.105469 L 26.367188 23.328125 L 1.628906 23.328125 L 1 22.71875 Z M 1.628906 22.105469 L 1.628906 23.328125 L 1.5625 23.328125 L 1.441406 23.304688 L 1.410156 23.292969 L 1.382812 23.285156 L 1.351562 23.273438 L 1.328125 23.257812 L 1.296875 23.246094 L 1.203125 23.171875 L 1.183594 23.148438 L 1.160156 23.132812 L 1.089844 23.035156 L 1.078125 23.011719 L 1.058594 22.980469 L 1.046875 22.957031 L 1.023438 22.898438 L 1 22.777344 L 1 22.648438 L 1.023438 22.527344 L 1.035156 22.503906 L 1.058594 22.445312 L 1.078125 22.421875 L 1.089844 22.390625 L 1.144531 22.320312 L 1.226562 22.234375 L 1.296875 22.179688 L 1.328125 22.167969 L 1.351562 22.15625 L 1.441406 22.121094 L 1.5625 22.097656 L 1.628906 22.097656 Z M 2.253906 16.539062 L 2.253906 22.71875 L 1 22.71875 L 1 16.539062 L 1.628906 15.929688 Z M 2.253906 16.539062 L 1 16.539062 L 1 16.480469 L 1.023438 16.359375 L 1.058594 16.269531 L 1.078125 16.246094 L 1.089844 16.222656 L 1.160156 16.125 L 1.226562 16.0625 L 1.273438 16.023438 L 1.351562 15.984375 L 1.410156 15.960938 L 1.441406 15.953125 L 1.472656 15.941406 L 1.53125 15.929688 L 1.5625 15.929688 L 1.597656 15.921875 L 1.664062 15.921875 L 1.691406 15.929688 L 1.722656 15.929688 L 1.78125 15.941406 L 1.8125 15.953125 L 1.84375 15.960938 L 1.902344 15.984375 L 1.980469 16.023438 L 2.027344 16.0625 L 2.09375 16.125 L 2.183594 16.246094 L 2.195312 16.269531 L 2.230469 16.359375 L 2.253906 16.480469 Z M 26.367188 17.152344 L 1.628906 17.152344 L 1.628906 15.929688 L 26.367188 15.929688 L 27 16.539062 Z M 26.367188 17.152344 L 26.367188 15.929688 L 26.433594 15.929688 L 26.460938 15.933594 L 26.558594 15.953125 L 26.589844 15.964844 L 26.613281 15.972656 L 26.640625 15.984375 L 26.695312 16.011719 L 26.816406 16.101562 L 26.832031 16.125 L 26.855469 16.148438 L 26.890625 16.199219 L 26.921875 16.246094 L 26.933594 16.277344 L 26.945312 16.300781 L 26.96875 16.359375 L 27 16.507812 L 27 16.574219 L 26.992188 16.609375 L 26.96875 16.730469 L 26.957031 16.753906 L 26.933594 16.8125 L 26.90625 16.867188 L 26.890625 16.890625 L 26.855469 16.9375 L 26.832031 16.957031 L 26.816406 16.980469 L 26.789062 17 L 26.765625 17.023438 L 26.695312 17.074219 L 26.671875 17.085938 L 26.613281 17.113281 L 26.589844 17.125 L 26.558594 17.136719 L 26.5 17.148438 L 26.460938 17.152344 L 26.433594 17.160156 L 26.367188 17.160156 Z M 25.738281 22.71875 L 25.738281 16.539062 L 27 16.539062 L 27 22.71875 L 26.367188 23.328125 Z M 25.738281 22.71875 L 27 22.71875 L 27 22.75 L 26.96875 22.898438 L 26.933594 22.988281 L 26.921875 23.011719 L 26.890625 23.058594 L 26.855469 23.105469 L 26.832031 23.132812 L 26.816406 23.15625 L 26.789062 23.171875 L 26.765625 23.195312 L 26.71875 23.234375 L 26.695312 23.246094 L 26.671875 23.261719 L 26.613281 23.285156 L 26.589844 23.296875 L 26.558594 23.304688 L 26.527344 23.316406 L 26.5 23.320312 L 26.460938 23.328125 L 26.433594 23.328125 L 26.402344 23.335938 L 26.335938 23.335938 L 26.300781 23.328125 L 26.269531 23.328125 L 26.210938 23.316406 L 26.183594 23.304688 L 26.152344 23.296875 L 26.121094 23.285156 L 26.097656 23.273438 L 26.070312 23.261719 L 26.042969 23.246094 L 26.019531 23.234375 L 25.996094 23.214844 L 25.96875 23.195312 L 25.949219 23.171875 L 25.925781 23.15625 L 25.90625 23.132812 L 25.882812 23.105469 L 25.828125 23.035156 L 25.816406 23.011719 L 25.800781 22.988281 L 25.777344 22.929688 L 25.769531 22.898438 L 25.757812 22.867188 L 25.746094 22.808594 L 25.746094 22.777344 L 25.738281 22.75 Z M 25.738281 22.71875 "/>
<path style=" stroke:none;fill-rule:nonzero;fill:rgb(0%,0%,0%);fill-opacity:1;" d="M 13.371094 13.769531 L 14.621094 13.769531 L 14.621094 13.828125 L 14.613281 13.863281 L 14.597656 13.953125 L 14.585938 13.976562 L 14.5625 14.035156 L 14.550781 14.058594 L 14.53125 14.089844 L 14.519531 14.113281 L 14.5 14.136719 L 14.460938 14.179688 L 14.441406 14.203125 L 14.417969 14.222656 L 14.394531 14.246094 L 14.324219 14.300781 L 14.292969 14.3125 L 14.269531 14.324219 L 14.210938 14.347656 L 14.183594 14.359375 L 14.148438 14.363281 L 14.058594 14.382812 L 13.929688 14.382812 L 13.808594 14.359375 L 13.71875 14.324219 L 13.671875 14.300781 L 13.640625 14.28125 L 13.59375 14.246094 L 13.574219 14.222656 L 13.550781 14.203125 L 13.511719 14.160156 L 13.457031 14.089844 L 13.445312 14.058594 L 13.425781 14.035156 L 13.414062 14.007812 L 13.410156 13.976562 L 13.398438 13.953125 L 13.386719 13.921875 L 13.375 13.863281 L 13.375 13.828125 L 13.367188 13.796875 L 13.367188 13.769531 Z M 14.621094 5.121094 L 14.621094 13.769531 L 13.371094 13.769531 L 13.371094 5.121094 Z M 14.621094 5.121094 L 13.371094 5.121094 L 13.371094 5.054688 L 13.390625 4.964844 L 13.402344 4.9375 L 13.410156 4.90625 L 13.421875 4.875 L 13.433594 4.851562 L 13.445312 4.824219 L 13.460938 4.796875 L 13.472656 4.773438 L 13.5 4.75 L 13.550781 4.679688 L 13.671875 4.589844 L 13.703125 4.578125 L 13.726562 4.558594 L 13.753906 4.546875 L 13.785156 4.542969 L 13.808594 4.53125 L 13.84375 4.523438 L 13.875 4.511719 L 13.90625 4.507812 L 13.933594 4.507812 L 13.964844 4.5 L 14.03125 4.5 L 14.066406 4.507812 L 14.09375 4.507812 L 14.125 4.511719 L 14.15625 4.523438 L 14.183594 4.53125 L 14.214844 4.542969 L 14.246094 4.546875 L 14.273438 4.558594 L 14.296875 4.578125 L 14.328125 4.589844 L 14.425781 4.660156 L 14.464844 4.703125 L 14.539062 4.796875 L 14.550781 4.824219 L 14.566406 4.851562 L 14.578125 4.875 L 14.589844 4.90625 L 14.597656 4.9375 L 14.609375 4.964844 L 14.621094 5.023438 L 14.621094 5.054688 L 14.625 5.085938 L 14.625 5.121094 Z M 14.621094 5.121094 "/>
<path style=" stroke:none;fill-rule:nonzero;fill:rgb(0%,0%,0%);fill-opacity:1;" d="M 6.398438 14.371094 L 7.441406 13.703125 L 7.457031 13.726562 L 7.472656 13.753906 L 7.492188 13.78125 L 7.503906 13.808594 L 7.507812 13.839844 L 7.519531 13.871094 L 7.539062 13.957031 L 7.539062 13.988281 L 7.542969 14.019531 L 7.542969 14.046875 L 7.539062 14.078125 L 7.539062 14.109375 L 7.527344 14.167969 L 7.519531 14.191406 L 7.515625 14.222656 L 7.503906 14.25 L 7.496094 14.273438 L 7.484375 14.304688 L 7.46875 14.328125 L 7.457031 14.359375 L 7.402344 14.429688 L 7.335938 14.496094 L 7.289062 14.53125 L 7.257812 14.550781 L 7.234375 14.566406 L 7.203125 14.585938 L 7.175781 14.597656 L 7.152344 14.609375 L 7.121094 14.621094 L 7 14.644531 L 6.964844 14.652344 L 6.875 14.652344 L 6.847656 14.644531 L 6.816406 14.644531 L 6.757812 14.632812 L 6.734375 14.621094 L 6.703125 14.617188 L 6.671875 14.605469 L 6.648438 14.589844 L 6.621094 14.578125 L 6.59375 14.5625 L 6.566406 14.550781 L 6.542969 14.53125 L 6.519531 14.507812 L 6.492188 14.492188 L 6.476562 14.464844 L 6.453125 14.449219 L 6.417969 14.402344 Z M 3.921875 8.386719 L 7.441406 13.703125 L 6.398438 14.371094 L 2.875 9.054688 Z M 3.921875 8.386719 L 2.875 9.054688 L 2.863281 9.03125 L 2.84375 9.003906 L 2.828125 8.980469 L 2.816406 8.949219 L 2.808594 8.917969 L 2.796875 8.894531 L 2.792969 8.863281 L 2.785156 8.828125 L 2.78125 8.800781 L 2.78125 8.769531 L 2.773438 8.738281 L 2.773438 8.710938 L 2.78125 8.679688 L 2.78125 8.648438 L 2.792969 8.589844 L 2.796875 8.566406 L 2.804688 8.535156 L 2.816406 8.507812 L 2.820312 8.484375 L 2.839844 8.453125 L 2.863281 8.40625 L 2.882812 8.375 L 2.917969 8.328125 L 2.984375 8.261719 L 3.03125 8.226562 L 3.058594 8.207031 L 3.085938 8.191406 L 3.113281 8.179688 L 3.144531 8.160156 L 3.167969 8.148438 L 3.199219 8.136719 L 3.316406 8.113281 L 3.351562 8.105469 L 3.441406 8.105469 L 3.472656 8.113281 L 3.503906 8.113281 L 3.5625 8.125 L 3.585938 8.136719 L 3.617188 8.140625 L 3.644531 8.15625 L 3.722656 8.195312 L 3.753906 8.214844 L 3.824219 8.269531 L 3.84375 8.292969 L 3.867188 8.308594 L 3.902344 8.359375 Z M 3.921875 8.386719 "/>
<path style=" stroke:none;fill-rule:nonzero;fill:rgb(0%,0%,0%);fill-opacity:1;" d="M 21.597656 14.371094 L 21.542969 14.441406 L 21.476562 14.507812 L 21.429688 14.542969 L 21.398438 14.5625 L 21.34375 14.589844 L 21.320312 14.605469 L 21.292969 14.609375 L 21.261719 14.621094 L 21.230469 14.628906 L 21.207031 14.632812 L 21.148438 14.644531 L 21.117188 14.644531 L 21.089844 14.652344 L 21.050781 14.652344 L 21.023438 14.644531 L 20.992188 14.644531 L 20.902344 14.628906 L 20.875 14.617188 L 20.84375 14.609375 L 20.8125 14.597656 L 20.789062 14.578125 L 20.757812 14.566406 L 20.730469 14.550781 L 20.683594 14.515625 L 20.660156 14.488281 L 20.632812 14.472656 L 20.59375 14.429688 L 20.558594 14.382812 L 20.539062 14.351562 L 20.527344 14.328125 L 20.507812 14.304688 L 20.484375 14.246094 L 20.480469 14.222656 L 20.46875 14.191406 L 20.460938 14.160156 L 20.457031 14.136719 L 20.457031 14.109375 L 20.449219 14.078125 L 20.449219 13.984375 L 20.480469 13.832031 L 20.492188 13.808594 L 20.503906 13.78125 L 20.53125 13.726562 L 20.550781 13.695312 Z M 24.074219 8.386719 L 25.117188 9.054688 L 21.597656 14.371094 L 20.550781 13.703125 Z M 24.074219 8.386719 L 24.109375 8.339844 L 24.132812 8.316406 L 24.152344 8.292969 L 24.195312 8.25 L 24.222656 8.230469 L 24.269531 8.195312 L 24.300781 8.183594 L 24.347656 8.160156 L 24.410156 8.136719 L 24.46875 8.125 L 24.492188 8.117188 L 24.523438 8.113281 L 24.558594 8.113281 L 24.585938 8.105469 L 24.617188 8.105469 L 24.648438 8.113281 L 24.675781 8.113281 L 24.765625 8.128906 L 24.796875 8.140625 L 24.828125 8.148438 L 24.855469 8.167969 L 24.910156 8.195312 L 24.941406 8.207031 L 24.988281 8.242188 L 25.011719 8.269531 L 25.035156 8.285156 L 25.078125 8.328125 L 25.113281 8.375 L 25.132812 8.40625 L 25.148438 8.429688 L 25.160156 8.460938 L 25.171875 8.484375 L 25.183594 8.511719 L 25.191406 8.535156 L 25.203125 8.566406 L 25.214844 8.625 L 25.214844 8.65625 L 25.21875 8.6875 L 25.21875 8.777344 L 25.191406 8.925781 L 25.179688 8.949219 L 25.15625 9.007812 L 25.136719 9.03125 L 25.117188 9.0625 L 24.074219 8.394531 Z M 24.074219 8.386719 "/>
</g>
</svg>
