<?xml version="1.0" encoding="UTF-8"?>
<svg xmlns="http://www.w3.org/2000/svg" xmlns:xlink="http://www.w3.org/1999/xlink" width="28pt" height="28pt" viewBox="0 0 28 28" version="1.1">
<g id="surface1">
<path style=" stroke:none;fill-rule:nonzero;fill:rgb(0%,0%,0%);fill-opacity:1;" d="M 20.5625 19.796875 L 19.296875 19.796875 C 17.53125 19.796875 15.9375 20.550781 14.820312 21.75 L 14.820312 17.964844 C 16.691406 17.582031 18.101562 15.925781 18.101562 13.945312 C 18.105469 13.871094 18.089844 13.566406 18.128906 13.40625 C 18.164062 13.378906 18.226562 13.34375 18.277344 13.316406 C 18.5 13.183594 18.835938 12.988281 19.226562 12.597656 C 20.617188 11.203125 21.382812 9.351562 21.382812 7.382812 C 21.382812 2.675781 17.023438 -0.910156 12.234375 0.207031 C 9.609375 0.816406 7.492188 2.902344 6.847656 5.511719 C 6.199219 8.132812 6.941406 10.800781 8.832031 12.652344 C 9.210938 13.027344 9.535156 13.214844 9.746094 13.339844 C 9.789062 13.363281 9.839844 13.394531 9.875 13.417969 C 9.90625 13.578125 9.894531 13.871094 9.898438 13.945312 C 9.898438 15.925781 11.308594 17.582031 13.179688 17.964844 L 13.179688 21.75 C 12.0625 20.550781 10.46875 19.796875 8.703125 19.796875 L 7.4375 19.796875 C 6.984375 19.796875 6.617188 20.164062 6.617188 20.617188 L 6.617188 21.882812 C 6.617188 25.253906 9.363281 28 12.734375 28 C 14.019531 28 14.308594 28 15.265625 28 C 18.636719 28 21.382812 25.253906 21.382812 21.882812 L 21.382812 20.617188 C 21.382812 20.164062 21.015625 19.796875 20.5625 19.796875 Z M 13.179688 26.359375 L 12.734375 26.359375 C 10.265625 26.359375 8.257812 24.351562 8.257812 21.882812 L 8.257812 21.4375 L 8.703125 21.4375 C 11.171875 21.4375 13.179688 23.445312 13.179688 25.914062 Z M 10.578125 11.925781 C 10.398438 11.820312 10.214844 11.710938 9.980469 11.484375 C 8.507812 10.039062 7.933594 7.957031 8.441406 5.90625 C 8.941406 3.886719 10.574219 2.277344 12.605469 1.804688 C 16.359375 0.929688 19.742188 3.726562 19.742188 7.382812 C 19.742188 8.914062 19.148438 10.355469 18.066406 11.4375 C 17.824219 11.679688 17.632812 11.789062 17.449219 11.898438 C 16.941406 12.195312 16.628906 12.496094 16.511719 13.125 L 14.820312 13.125 L 14.820312 9.703125 C 15.773438 9.363281 16.460938 8.453125 16.460938 7.382812 C 16.460938 6.023438 15.355469 4.921875 14 4.921875 C 12.644531 4.921875 11.539062 6.023438 11.539062 7.382812 C 11.539062 8.453125 12.226562 9.363281 13.179688 9.703125 L 13.179688 13.125 L 11.488281 13.125 C 11.375 12.507812 11.070312 12.214844 10.578125 11.925781 Z M 14.820312 7.382812 C 14.820312 7.835938 14.453125 8.203125 14 8.203125 C 13.546875 8.203125 13.179688 7.835938 13.179688 7.382812 C 13.179688 6.929688 13.546875 6.5625 14 6.5625 C 14.453125 6.5625 14.820312 6.929688 14.820312 7.382812 Z M 11.679688 14.761719 L 16.320312 14.761719 C 15.980469 15.714844 15.070312 16.40625 14 16.40625 C 12.929688 16.40625 12.019531 15.714844 11.679688 14.761719 Z M 19.742188 21.882812 C 19.742188 24.351562 17.734375 26.359375 15.265625 26.359375 L 14.820312 26.359375 L 14.820312 25.914062 C 14.820312 23.445312 16.828125 21.4375 19.296875 21.4375 L 19.742188 21.4375 Z M 19.742188 21.882812 "/>
</g>
</svg>
