<?xml version="1.0" encoding="UTF-8"?>
<svg xmlns="http://www.w3.org/2000/svg" xmlns:xlink="http://www.w3.org/1999/xlink" width="28pt" height="28pt" viewBox="0 0 28 28" version="1.1">
<g id="surface1">
<path style=" stroke:none;fill-rule:nonzero;fill:rgb(1.176471%,1.176471%,1.176471%);fill-opacity:1;" d="M 22.652344 10.144531 C 22.652344 10.136719 22.65625 10.125 22.65625 10.117188 C 22.65625 5.539062 18.929688 1.816406 14.355469 1.816406 C 9.847656 1.816406 6.171875 5.429688 6.0625 9.914062 C 2.570312 10.894531 0 14.097656 0 17.898438 C 0 22.476562 3.722656 26.199219 8.300781 26.199219 C 10.511719 26.199219 12.519531 25.324219 14.007812 23.914062 C 15.496094 25.324219 17.503906 26.199219 19.714844 26.199219 C 24.292969 26.199219 28.015625 22.476562 28.015625 17.898438 C 28.015625 14.359375 25.78125 11.335938 22.652344 10.144531 Z M 16.558594 17.035156 C 16.386719 15.378906 15.722656 13.863281 14.71875 12.640625 C 16.023438 11.402344 17.777344 10.636719 19.714844 10.636719 C 20.359375 10.636719 20.980469 10.730469 21.574219 10.886719 C 21.269531 13.785156 19.253906 16.175781 16.558594 17.035156 Z M 14.007812 22.378906 C 13.09375 21.214844 12.53125 19.769531 12.464844 18.195312 C 13.074219 18.335938 13.703125 18.417969 14.355469 18.417969 C 14.757812 18.417969 15.152344 18.378906 15.542969 18.324219 C 15.453125 19.847656 14.898438 21.246094 14.007812 22.378906 Z M 14.355469 17.378906 C 13.710938 17.378906 13.089844 17.289062 12.492188 17.128906 C 12.640625 15.738281 13.1875 14.464844 14.007812 13.421875 C 14.859375 14.503906 15.410156 15.828125 15.535156 17.277344 C 15.148438 17.339844 14.757812 17.378906 14.355469 17.378906 Z M 11.496094 16.792969 C 9.089844 15.757812 7.355469 13.460938 7.121094 10.738281 C 7.507812 10.675781 7.898438 10.636719 8.300781 10.636719 C 10.238281 10.636719 11.996094 11.402344 13.296875 12.640625 C 12.34375 13.804688 11.707031 15.230469 11.496094 16.792969 Z M 14.355469 2.855469 C 18.261719 2.855469 21.445312 5.953125 21.601562 9.824219 C 20.996094 9.679688 20.363281 9.597656 19.714844 9.597656 C 17.503906 9.597656 15.496094 10.472656 14.007812 11.886719 C 12.519531 10.472656 10.511719 9.597656 8.300781 9.597656 C 7.898438 9.597656 7.5 9.636719 7.113281 9.691406 C 7.332031 5.886719 10.492188 2.855469 14.355469 2.855469 Z M 1.039062 17.898438 C 1.039062 14.660156 3.167969 11.914062 6.097656 10.980469 C 6.425781 14.144531 8.542969 16.777344 11.414062 17.871094 C 11.414062 17.878906 11.414062 17.890625 11.414062 17.898438 C 11.414062 19.894531 12.121094 21.722656 13.296875 23.15625 C 11.996094 24.398438 10.238281 25.164062 8.300781 25.164062 C 4.296875 25.164062 1.039062 21.90625 1.039062 17.898438 Z M 19.714844 25.164062 C 17.777344 25.164062 16.023438 24.398438 14.71875 23.15625 C 15.855469 21.773438 16.546875 20.015625 16.59375 18.101562 C 19.738281 17.21875 22.128906 14.527344 22.574219 11.222656 C 25.160156 12.335938 26.980469 14.910156 26.980469 17.898438 C 26.980469 21.90625 23.722656 25.164062 19.714844 25.164062 Z M 19.714844 25.164062 "/>
</g>
</svg>
