<?xml version="1.0" encoding="UTF-8"?>
<svg xmlns="http://www.w3.org/2000/svg" xmlns:xlink="http://www.w3.org/1999/xlink" width="28pt" height="28pt" viewBox="0 0 28 28" version="1.1">
<g id="surface1">
<path style=" stroke:none;fill-rule:nonzero;fill:rgb(0%,0%,0%);fill-opacity:1;" d="M 28 9.828125 C 28 4.867188 23.964844 0.835938 19.003906 0.835938 C 17.152344 0.835938 15.429688 1.398438 14 2.359375 C 12.566406 1.398438 10.84375 0.835938 8.992188 0.835938 C 4.035156 0.835938 0 4.867188 0 9.828125 C 0 13.359375 2.042969 16.421875 5.011719 17.890625 C 5.007812 17.984375 5.003906 18.078125 5.003906 18.171875 C 5.003906 23.132812 9.039062 27.164062 14 27.164062 C 18.960938 27.164062 22.996094 23.132812 22.996094 18.171875 C 22.996094 18.078125 22.992188 17.984375 22.992188 17.890625 C 25.957031 16.417969 28 13.359375 28 9.828125 Z M 14 3.816406 C 15.675781 5.210938 16.761719 7.296875 16.820312 9.628906 C 15.933594 9.335938 14.984375 9.175781 14 9.175781 C 13.015625 9.175781 12.066406 9.335938 11.179688 9.628906 C 11.238281 7.296875 12.324219 5.210938 14 3.816406 Z M 11.242188 10.84375 C 12.101562 10.519531 13.03125 10.34375 14 10.34375 C 14.96875 10.34375 15.898438 10.519531 16.757812 10.84375 C 16.496094 12.84375 15.476562 14.609375 14 15.84375 C 12.519531 14.609375 11.503906 12.84375 11.242188 10.84375 Z M 13.023438 16.539062 C 11.84375 17.25 10.464844 17.65625 8.992188 17.65625 C 8.023438 17.65625 7.09375 17.480469 6.238281 17.15625 C 6.558594 14.671875 8.050781 12.550781 10.140625 11.363281 C 10.492188 13.40625 11.535156 15.214844 13.023438 16.539062 Z M 17.859375 11.359375 C 19.949219 12.550781 21.441406 14.671875 21.761719 17.15625 C 20.90625 17.480469 19.976562 17.65625 19.003906 17.65625 C 17.53125 17.65625 16.15625 17.25 14.976562 16.539062 C 16.460938 15.214844 17.503906 13.40625 17.859375 11.359375 Z M 1.167969 9.828125 C 1.167969 5.511719 4.675781 2 8.992188 2 C 10.464844 2 11.84375 2.410156 13.023438 3.117188 C 11.175781 4.765625 10.011719 7.164062 10.011719 9.828125 C 10.011719 9.921875 10.011719 10.015625 10.015625 10.109375 C 7.488281 11.363281 5.628906 13.769531 5.136719 16.640625 C 2.769531 15.292969 1.167969 12.742188 1.167969 9.828125 Z M 14 26 C 9.75 26 6.28125 22.59375 6.175781 18.371094 C 7.0625 18.664062 8.007812 18.824219 8.992188 18.824219 C 10.84375 18.824219 12.566406 18.261719 14 17.300781 C 15.429688 18.261719 17.152344 18.824219 19.003906 18.824219 C 19.992188 18.824219 20.9375 18.664062 21.828125 18.371094 C 21.71875 22.59375 18.25 26 14 26 Z M 22.863281 16.636719 C 22.371094 13.769531 20.511719 11.363281 17.984375 10.109375 C 17.988281 10.015625 17.988281 9.921875 17.988281 9.828125 C 17.988281 7.164062 16.824219 4.765625 14.976562 3.117188 C 16.15625 2.410156 17.53125 2 19.003906 2 C 23.320312 2 26.832031 5.511719 26.832031 9.828125 C 26.832031 12.742188 25.234375 15.289062 22.863281 16.636719 Z M 22.863281 16.636719 "/>
</g>
</svg>
