<?xml version="1.0" encoding="UTF-8"?>
<svg xmlns="http://www.w3.org/2000/svg" xmlns:xlink="http://www.w3.org/1999/xlink" width="28pt" height="28pt" viewBox="0 0 28 28" version="1.1">
<g id="surface1">
<path style=" stroke:none;fill-rule:nonzero;fill:rgb(13.333333%,13.333333%,12.54902%);fill-opacity:1;" d="M 28 9.980469 C 28 5.335938 24.222656 1.558594 19.578125 1.558594 C 17.441406 1.558594 15.488281 2.359375 14 3.679688 C 12.511719 2.359375 10.558594 1.558594 8.421875 1.558594 C 3.777344 1.558594 0 5.335938 0 9.980469 C 0 13.6875 2.410156 16.84375 5.746094 17.964844 C 5.746094 17.984375 5.742188 18 5.742188 18.019531 C 5.742188 22.664062 9.519531 26.441406 14.164062 26.441406 C 18.808594 26.441406 22.585938 22.664062 22.585938 18.019531 C 22.585938 17.960938 22.585938 17.90625 22.582031 17.847656 C 25.746094 16.632812 28 13.566406 28 9.980469 Z M 14 14.527344 C 13.195312 13.542969 12.644531 12.339844 12.453125 11.023438 C 13.003906 10.890625 13.574219 10.816406 14.164062 10.816406 C 14.640625 10.816406 15.105469 10.863281 15.554688 10.953125 C 15.375 12.296875 14.820312 13.527344 14 14.527344 Z M 16.738281 11.292969 C 19.128906 12.210938 20.910156 14.371094 21.289062 16.976562 C 20.742188 17.109375 20.167969 17.183594 19.578125 17.183594 C 17.773438 17.183594 16.117188 16.511719 14.851562 15.410156 C 15.824219 14.261719 16.496094 12.847656 16.738281 11.292969 Z M 13.148438 15.410156 C 11.882812 16.511719 10.226562 17.183594 8.421875 17.183594 C 7.945312 17.183594 7.480469 17.136719 7.03125 17.046875 C 7.371094 14.523438 9.027344 12.410156 11.28125 11.421875 C 11.542969 12.925781 12.203125 14.292969 13.148438 15.410156 Z M 14.164062 9.597656 C 13.550781 9.597656 12.957031 9.664062 12.378906 9.789062 C 12.421875 8.140625 13.023438 6.628906 14 5.433594 C 14.960938 6.613281 15.558594 8.101562 15.617188 9.722656 C 15.144531 9.640625 14.660156 9.597656 14.164062 9.597656 Z M 1.21875 9.980469 C 1.21875 6.011719 4.449219 2.78125 8.421875 2.78125 C 10.226562 2.78125 11.882812 3.449219 13.148438 4.550781 C 11.90625 6.019531 11.15625 7.914062 11.15625 9.980469 C 11.15625 10.039062 11.160156 10.09375 11.160156 10.152344 C 8.390625 11.214844 6.320312 13.699219 5.847656 16.707031 C 3.144531 15.667969 1.21875 13.042969 1.21875 9.980469 Z M 14.164062 25.21875 C 10.28125 25.21875 7.105469 22.128906 6.96875 18.277344 C 7.441406 18.359375 7.925781 18.402344 8.421875 18.402344 C 10.558594 18.402344 12.511719 17.601562 14 16.285156 C 15.488281 17.601562 17.441406 18.402344 19.578125 18.402344 C 20.191406 18.402344 20.789062 18.335938 21.363281 18.210938 C 21.261719 22.09375 18.070312 25.21875 14.164062 25.21875 Z M 22.460938 16.578125 C 21.929688 13.511719 19.734375 11.007812 16.839844 10.035156 C 16.84375 10.015625 16.84375 10 16.84375 9.980469 C 16.84375 7.914062 16.09375 6.019531 14.851562 4.550781 C 16.117188 3.449219 17.773438 2.78125 19.578125 2.78125 C 23.550781 2.78125 26.78125 6.011719 26.78125 9.980469 C 26.78125 12.925781 25 15.464844 22.460938 16.578125 Z M 22.460938 16.578125 "/>
</g>
</svg>
