<?xml version="1.0" encoding="UTF-8"?>
<svg xmlns="http://www.w3.org/2000/svg" xmlns:xlink="http://www.w3.org/1999/xlink" width="28pt" height="28pt" viewBox="0 0 28 28" version="1.1">
<g id="surface1">
<path style=" stroke:none;fill-rule:nonzero;fill:rgb(0%,0%,0%);fill-opacity:1;" d="M 13.550781 7.722656 L 13.976562 7.722656 L 14.765625 8.890625 L 16.4375 8.890625 L 15.460938 7.457031 C 16.019531 7.171875 16.339844 6.664062 16.339844 5.996094 C 16.339844 4.917969 15.515625 4.242188 14.21875 4.242188 L 11.980469 4.242188 L 11.980469 8.890625 L 13.550781 8.890625 Z M 13.550781 5.449219 L 14.121094 5.449219 C 14.550781 5.449219 14.757812 5.65625 14.757812 5.996094 C 14.757812 6.332031 14.550781 6.539062 14.121094 6.539062 L 13.550781 6.539062 Z M 13.550781 5.449219 "/>
<path style=" stroke:none;fill-rule:nonzero;fill:rgb(0%,0%,0%);fill-opacity:1;" d="M 21.953125 18.644531 C 22.367188 18.644531 22.707031 18.816406 22.996094 19.15625 L 24 18.273438 C 23.527344 17.695312 22.792969 17.375 21.875 17.375 C 20.339844 17.375 19.246094 18.378906 19.246094 19.808594 C 19.246094 21.234375 20.339844 22.238281 21.839844 22.238281 C 22.527344 22.238281 23.304688 22.03125 23.867188 21.648438 L 23.867188 19.679688 L 22.503906 19.679688 L 22.503906 20.855469 C 22.3125 20.9375 22.128906 20.96875 21.933594 20.96875 C 21.265625 20.96875 20.824219 20.503906 20.824219 19.808594 C 20.824219 19.089844 21.265625 18.644531 21.953125 18.644531 Z M 21.953125 18.644531 "/>
<path style=" stroke:none;fill-rule:nonzero;fill:rgb(0%,0%,0%);fill-opacity:1;" d="M 7.921875 19.867188 C 8.347656 19.65625 8.566406 19.296875 8.566406 18.863281 C 8.566406 18.160156 7.96875 17.648438 6.6875 17.648438 L 4.203125 17.648438 L 4.203125 22.296875 L 6.820312 22.296875 C 8.101562 22.296875 8.785156 21.828125 8.785156 21.015625 C 8.785156 20.464844 8.464844 20.066406 7.921875 19.867188 Z M 5.742188 18.746094 L 6.472656 18.746094 C 6.824219 18.746094 6.984375 18.863281 6.984375 19.089844 C 6.984375 19.316406 6.824219 19.433594 6.472656 19.433594 L 5.742188 19.433594 Z M 6.6875 21.203125 L 5.742188 21.203125 L 5.742188 20.472656 L 6.6875 20.472656 C 7.03125 20.472656 7.203125 20.597656 7.203125 20.835938 C 7.203125 21.074219 7.03125 21.203125 6.6875 21.203125 Z M 6.6875 21.203125 "/>
<path style=" stroke:none;fill-rule:nonzero;fill:rgb(0%,0%,0%);fill-opacity:1;" d="M 22.796875 10.570312 C 22.839844 10.21875 22.863281 9.855469 22.863281 9.492188 C 22.863281 4.621094 18.898438 0.65625 14.027344 0.65625 C 9.15625 0.65625 5.191406 4.621094 5.191406 9.492188 C 5.191406 9.832031 5.210938 10.167969 5.25 10.496094 C 2.128906 11.863281 -0.0546875 14.976562 -0.0546875 18.59375 C -0.0546875 23.46875 3.910156 27.429688 8.78125 27.429688 C 10.707031 27.429688 12.488281 26.8125 13.941406 25.765625 C 15.390625 26.8125 17.175781 27.429688 19.097656 27.429688 C 23.972656 27.429688 27.933594 23.46875 27.933594 18.59375 C 27.933594 15.042969 25.828125 11.972656 22.796875 10.570312 Z M 6.847656 9.492188 C 6.847656 5.53125 10.066406 2.3125 14.027344 2.3125 C 17.988281 2.3125 21.207031 5.53125 21.207031 9.492188 C 21.207031 9.667969 21.203125 9.839844 21.191406 10.011719 C 20.519531 9.847656 19.820312 9.761719 19.097656 9.761719 C 17.175781 9.761719 15.390625 10.378906 13.941406 11.425781 C 12.488281 10.378906 10.707031 9.761719 8.78125 9.761719 C 8.121094 9.761719 7.480469 9.832031 6.863281 9.96875 C 6.851562 9.8125 6.847656 9.652344 6.847656 9.492188 Z M 15.960938 18.59375 C 15.960938 20.53125 15.191406 22.292969 13.941406 23.585938 C 12.6875 22.292969 11.917969 20.53125 11.917969 18.59375 C 11.917969 18.421875 11.925781 18.25 11.9375 18.078125 C 12.605469 18.238281 13.308594 18.328125 14.027344 18.328125 C 14.6875 18.328125 15.328125 18.253906 15.945312 18.117188 C 15.957031 18.273438 15.960938 18.433594 15.960938 18.59375 Z M 14.027344 16.671875 C 13.414062 16.671875 12.816406 16.59375 12.246094 16.449219 C 12.585938 15.371094 13.171875 14.398438 13.941406 13.605469 C 14.71875 14.410156 15.308594 15.394531 15.644531 16.488281 C 15.125 16.609375 14.582031 16.671875 14.027344 16.671875 Z M 10.699219 15.851562 C 9.019531 14.96875 7.730469 13.441406 7.164062 11.597656 C 7.683594 11.476562 8.226562 11.414062 8.78125 11.414062 C 10.207031 11.414062 11.539062 11.832031 12.65625 12.554688 C 11.78125 13.488281 11.105469 14.609375 10.699219 15.851562 Z M 15.222656 12.554688 C 16.339844 11.832031 17.671875 11.414062 19.097656 11.414062 C 19.714844 11.414062 20.308594 11.492188 20.878906 11.640625 C 20.289062 13.519531 18.945312 15.066406 17.207031 15.929688 C 16.800781 14.65625 16.117188 13.507812 15.222656 12.554688 Z M 1.601562 18.59375 C 1.601562 15.777344 3.234375 13.332031 5.601562 12.15625 C 6.355469 14.535156 8.089844 16.480469 10.328125 17.515625 C 10.285156 17.871094 10.261719 18.230469 10.261719 18.59375 C 10.261719 20.929688 11.171875 23.054688 12.65625 24.636719 C 11.539062 25.359375 10.207031 25.777344 8.78125 25.777344 C 4.820312 25.777344 1.601562 22.554688 1.601562 18.59375 Z M 19.097656 25.777344 C 17.671875 25.777344 16.339844 25.359375 15.222656 24.636719 C 16.707031 23.054688 17.617188 20.929688 17.617188 18.59375 C 17.617188 18.253906 17.597656 17.921875 17.558594 17.589844 C 19.851562 16.585938 21.640625 14.636719 22.425781 12.234375 C 24.714844 13.4375 26.277344 15.835938 26.277344 18.59375 C 26.277344 22.554688 23.058594 25.777344 19.097656 25.777344 Z M 19.097656 25.777344 "/>
</g>
</svg>
