<?xml version="1.0" encoding="UTF-8"?>
<svg xmlns="http://www.w3.org/2000/svg" xmlns:xlink="http://www.w3.org/1999/xlink" width="28pt" height="28pt" viewBox="0 0 28 28" version="1.1">
<g id="surface1">
<path style=" stroke:none;fill-rule:nonzero;fill:rgb(0%,0%,0%);fill-opacity:1;" d="M 18.527344 0.554688 C 16.890625 0.554688 15.347656 0.976562 14 1.710938 C 12.652344 0.976562 11.109375 0.554688 9.472656 0.554688 C 7.617188 0.554688 5.824219 1.089844 4.28125 2.105469 C 4.089844 2.230469 4.035156 2.484375 4.160156 2.675781 C 4.285156 2.867188 4.542969 2.921875 4.734375 2.796875 C 6.140625 1.871094 7.777344 1.382812 9.472656 1.382812 C 10.796875 1.382812 12.054688 1.683594 13.175781 2.21875 C 10.734375 3.898438 9.113281 6.691406 9.058594 9.863281 C 6.546875 11.382812 4.796875 14.035156 4.515625 17.105469 C 2.285156 15.542969 0.828125 12.953125 0.828125 10.027344 C 0.828125 7.828125 1.652344 5.734375 3.152344 4.128906 C 3.308594 3.960938 3.296875 3.699219 3.132812 3.542969 C 2.964844 3.390625 2.703125 3.398438 2.546875 3.566406 C 0.90625 5.324219 0 7.617188 0 10.027344 C 0 13.417969 1.792969 16.398438 4.476562 18.070312 C 4.53125 23.25 8.757812 27.445312 13.949219 27.445312 C 15.765625 27.445312 17.535156 26.925781 19.058594 25.949219 C 20.542969 24.996094 21.730469 23.652344 22.492188 22.066406 C 22.589844 21.859375 22.503906 21.613281 22.296875 21.515625 C 22.089844 21.417969 21.84375 21.503906 21.746094 21.707031 C 20.3125 24.691406 17.253906 26.617188 13.949219 26.617188 C 9.371094 26.617188 5.613281 23.042969 5.320312 18.539062 C 6.574219 19.152344 7.984375 19.5 9.472656 19.5 C 11.109375 19.5 12.652344 19.078125 14 18.34375 C 15.347656 19.078125 16.890625 19.5 18.527344 19.5 C 19.972656 19.5 21.34375 19.171875 22.570312 18.59375 C 22.539062 19.027344 22.476562 19.457031 22.382812 19.878906 C 22.332031 20.101562 22.472656 20.320312 22.695312 20.371094 C 22.917969 20.421875 23.136719 20.28125 23.1875 20.058594 C 23.328125 19.429688 23.40625 18.785156 23.417969 18.136719 C 26.160156 16.476562 28 13.460938 28 10.027344 C 28 4.804688 23.75 0.554688 18.527344 0.554688 Z M 14 2.667969 C 16.316406 4.097656 17.910156 6.589844 18.097656 9.460938 C 16.84375 8.847656 15.433594 8.5 13.949219 8.5 C 12.503906 8.5 11.132812 8.828125 9.90625 9.410156 C 10.109375 6.558594 11.699219 4.089844 14 2.667969 Z M 9.472656 18.671875 C 7.964844 18.671875 6.546875 18.285156 5.3125 17.601562 C 5.429688 14.789062 6.902344 12.316406 9.09375 10.824219 C 9.335938 13.730469 10.898438 16.269531 13.175781 17.835938 C 12.054688 18.371094 10.796875 18.671875 9.472656 18.671875 Z M 9.890625 10.339844 C 11.101562 9.695312 12.480469 9.328125 13.949219 9.328125 C 15.453125 9.328125 16.871094 9.714844 18.105469 10.398438 C 17.980469 13.351562 16.371094 15.925781 14 17.386719 C 11.617188 15.914062 9.996094 13.316406 9.890625 10.339844 Z M 18.527344 18.671875 C 17.203125 18.671875 15.945312 18.371094 14.824219 17.835938 C 17.085938 16.28125 18.640625 13.769531 18.902344 10.894531 C 21.050781 12.402344 22.484375 14.863281 22.585938 17.660156 C 21.375 18.304688 19.996094 18.671875 18.527344 18.671875 Z M 23.382812 17.175781 C 23.128906 14.117188 21.414062 11.46875 18.941406 9.929688 C 18.90625 6.730469 17.285156 3.910156 14.824219 2.21875 C 15.945312 1.683594 17.203125 1.382812 18.527344 1.382812 C 23.296875 1.382812 27.171875 5.261719 27.171875 10.027344 C 27.171875 12.996094 25.671875 15.617188 23.382812 17.175781 Z M 23.382812 17.175781 "/>
</g>
</svg>
