<?xml version="1.0" encoding="UTF-8"?>
<svg xmlns="http://www.w3.org/2000/svg" xmlns:xlink="http://www.w3.org/1999/xlink" width="28pt" height="28pt" viewBox="0 0 28 28" version="1.1">
<g id="surface1">
<path style=" stroke:none;fill-rule:nonzero;fill:rgb(0%,0%,0%);fill-opacity:1;" d="M 9.039062 6.605469 L 7.464844 3.792969 C 7.351562 3.59375 7.097656 3.519531 6.898438 3.632812 C 6.699219 3.746094 6.625 3.996094 6.738281 4.199219 L 7.585938 5.710938 C 6.828125 5.605469 5.898438 5.792969 5.007812 6.292969 C 4.253906 6.714844 3.644531 7.300781 3.289062 7.941406 C 3.246094 8.023438 3.203125 8.109375 3.167969 8.191406 L 0.929688 4.199219 C 0.707031 3.800781 0.910156 3.308594 1.054688 3.054688 C 1.335938 2.546875 1.832031 2.074219 2.453125 1.726562 C 3.648438 1.058594 4.976562 1.054688 5.351562 1.722656 L 6.109375 3.070312 C 6.21875 3.273438 6.472656 3.34375 6.671875 3.230469 C 6.875 3.117188 6.945312 2.867188 6.832031 2.664062 L 6.078125 1.316406 C 5.460938 0.21875 3.691406 0.0820312 2.046875 1.003906 C 1.292969 1.425781 0.679688 2.011719 0.328125 2.652344 C -0.0625 3.355469 -0.105469 4.046875 0.207031 4.605469 L 3.167969 9.894531 C 3.480469 10.449219 4.09375 10.777344 4.898438 10.8125 C 4.945312 10.8125 4.996094 10.816406 5.042969 10.816406 C 5.738281 10.816406 6.496094 10.601562 7.199219 10.207031 C 8.847656 9.285156 9.65625 7.703125 9.039062 6.605469 Z M 6.796875 9.484375 C 6.175781 9.832031 5.515625 10.007812 4.933594 9.980469 C 4.644531 9.96875 4.117188 9.886719 3.894531 9.488281 C 3.671875 9.089844 3.875 8.601562 4.015625 8.34375 C 4.296875 7.835938 4.792969 7.367188 5.414062 7.019531 C 6.015625 6.683594 6.648438 6.511719 7.179688 6.511719 C 7.707031 6.511719 8.128906 6.679688 8.316406 7.011719 C 8.6875 7.679688 7.992188 8.8125 6.796875 9.484375 Z M 6.796875 9.484375 "/>
<path style=" stroke:none;fill-rule:nonzero;fill:rgb(0%,0%,0%);fill-opacity:1;" d="M 10.425781 27.078125 L 6.097656 11.558594 C 6.035156 11.339844 5.804688 11.210938 5.585938 11.269531 C 5.363281 11.332031 5.234375 11.5625 5.296875 11.78125 L 9.625 27.304688 C 9.675781 27.488281 9.84375 27.605469 10.023438 27.605469 C 10.0625 27.605469 10.097656 27.601562 10.136719 27.589844 C 10.355469 27.53125 10.484375 27.300781 10.425781 27.078125 Z M 10.425781 27.078125 "/>
<path style=" stroke:none;fill-rule:nonzero;fill:rgb(0%,0%,0%);fill-opacity:1;" d="M 25.820312 26.910156 L 23.324219 24.226562 C 23.167969 24.058594 22.90625 24.050781 22.738281 24.207031 C 22.570312 24.363281 22.558594 24.625 22.714844 24.792969 L 25.210938 27.472656 C 25.292969 27.5625 25.402344 27.605469 25.515625 27.605469 C 25.617188 27.605469 25.71875 27.570312 25.796875 27.496094 C 25.964844 27.339844 25.976562 27.078125 25.820312 26.910156 Z M 25.820312 26.910156 "/>
<path style=" stroke:none;fill-rule:nonzero;fill:rgb(0%,0%,0%);fill-opacity:1;" d="M 22.339844 23.167969 L 15.210938 15.503906 C 15.054688 15.335938 14.792969 15.328125 14.625 15.484375 C 14.457031 15.640625 14.445312 15.902344 14.601562 16.070312 L 21.730469 23.734375 C 21.8125 23.824219 21.925781 23.867188 22.035156 23.867188 C 22.136719 23.867188 22.238281 23.832031 22.320312 23.757812 C 22.488281 23.601562 22.496094 23.335938 22.339844 23.167969 Z M 22.339844 23.167969 "/>
<path style=" stroke:none;fill-rule:nonzero;fill:rgb(0%,0%,0%);fill-opacity:1;" d="M 13.363281 13.519531 L 9.539062 9.40625 C 9.382812 9.238281 9.121094 9.230469 8.953125 9.386719 C 8.785156 9.542969 8.773438 9.804688 8.929688 9.972656 L 12.753906 14.085938 C 12.835938 14.171875 12.949219 14.214844 13.058594 14.214844 C 13.160156 14.214844 13.261719 14.179688 13.34375 14.105469 C 13.511719 13.949219 13.519531 13.6875 13.363281 13.519531 Z M 13.363281 13.519531 "/>
<path style=" stroke:none;fill-rule:nonzero;fill:rgb(0%,0%,0%);fill-opacity:1;" d="M 27.671875 2.652344 C 27.320312 2.011719 26.707031 1.425781 25.953125 1.003906 C 24.308594 0.0820312 22.539062 0.21875 21.921875 1.316406 L 18.960938 6.605469 C 18.34375 7.703125 19.152344 9.285156 20.800781 10.207031 C 21.503906 10.601562 22.261719 10.816406 22.957031 10.816406 C 23.003906 10.816406 23.054688 10.8125 23.101562 10.8125 C 23.90625 10.777344 24.519531 10.449219 24.832031 9.894531 L 27.792969 4.605469 C 28.105469 4.046875 28.0625 3.355469 27.671875 2.652344 Z M 24.105469 9.488281 C 23.882812 9.886719 23.355469 9.96875 23.066406 9.980469 C 22.484375 10.007812 21.824219 9.832031 21.203125 9.484375 C 20.007812 8.8125 19.308594 7.679688 19.683594 7.011719 C 19.871094 6.679688 20.292969 6.511719 20.820312 6.511719 C 21.351562 6.511719 21.984375 6.683594 22.585938 7.019531 C 23.207031 7.367188 23.703125 7.835938 23.984375 8.34375 C 24.125 8.601562 24.328125 9.089844 24.105469 9.488281 Z M 27.070312 4.199219 L 24.832031 8.191406 C 24.796875 8.109375 24.753906 8.023438 24.710938 7.941406 C 24.355469 7.300781 23.746094 6.714844 22.992188 6.292969 C 22.101562 5.792969 21.171875 5.605469 20.414062 5.710938 L 22.648438 1.722656 C 23.023438 1.054688 24.351562 1.058594 25.550781 1.726562 C 26.167969 2.074219 26.664062 2.546875 26.945312 3.050781 C 27.089844 3.308594 27.292969 3.800781 27.070312 4.199219 Z M 27.070312 4.199219 "/>
<path style=" stroke:none;fill-rule:nonzero;fill:rgb(0%,0%,0%);fill-opacity:1;" d="M 22.414062 11.273438 C 22.195312 11.210938 21.964844 11.339844 21.902344 11.558594 L 19.675781 19.550781 C 19.613281 19.773438 19.742188 20 19.960938 20.0625 C 20 20.074219 20.039062 20.078125 20.074219 20.078125 C 20.257812 20.078125 20.421875 19.957031 20.472656 19.773438 L 22.703125 11.78125 C 22.765625 11.5625 22.636719 11.332031 22.414062 11.273438 Z M 22.414062 11.273438 "/>
<path style=" stroke:none;fill-rule:nonzero;fill:rgb(0%,0%,0%);fill-opacity:1;" d="M 19.476562 21.8125 C 19.253906 21.75 19.023438 21.878906 18.964844 22.101562 L 17.574219 27.078125 C 17.511719 27.300781 17.640625 27.53125 17.863281 27.589844 C 17.898438 27.601562 17.9375 27.605469 17.972656 27.605469 C 18.15625 27.605469 18.324219 27.488281 18.375 27.304688 L 19.761719 22.324219 C 19.824219 22.101562 19.695312 21.875 19.476562 21.8125 Z M 19.476562 21.8125 "/>
<path style=" stroke:none;fill-rule:nonzero;fill:rgb(0%,0%,0%);fill-opacity:1;" d="M 7.605469 21.683594 C 7.4375 21.527344 7.175781 21.539062 7.019531 21.707031 L 2.179688 26.910156 C 2.023438 27.078125 2.035156 27.339844 2.203125 27.496094 C 2.28125 27.570312 2.382812 27.605469 2.484375 27.605469 C 2.597656 27.605469 2.707031 27.5625 2.789062 27.472656 L 7.628906 22.273438 C 7.785156 22.105469 7.773438 21.839844 7.605469 21.683594 Z M 7.605469 21.683594 "/>
<path style=" stroke:none;fill-rule:nonzero;fill:rgb(0%,0%,0%);fill-opacity:1;" d="M 19.046875 9.386719 C 18.878906 9.230469 18.617188 9.238281 18.460938 9.40625 L 9.019531 19.558594 C 8.863281 19.726562 8.871094 19.988281 9.039062 20.144531 C 9.121094 20.21875 9.222656 20.253906 9.324219 20.253906 C 9.433594 20.253906 9.546875 20.210938 9.628906 20.121094 L 19.070312 9.972656 C 19.226562 9.804688 19.214844 9.542969 19.046875 9.386719 Z M 19.046875 9.386719 "/>
</g>
</svg>
