<?xml version="1.0" encoding="UTF-8"?>
<svg xmlns="http://www.w3.org/2000/svg" xmlns:xlink="http://www.w3.org/1999/xlink" width="28pt" height="28pt" viewBox="0 0 28 28" version="1.1">
<g id="surface1">
<path style=" stroke:none;fill-rule:nonzero;fill:rgb(0%,0%,0%);fill-opacity:1;" d="M 27.550781 1.34375 L 0.449219 1.34375 C 0.203125 1.34375 0 1.542969 0 1.792969 L 0 4.523438 C 0 4.773438 0.203125 4.976562 0.449219 4.976562 L 5.464844 4.976562 C 5.714844 4.976562 5.917969 4.773438 5.917969 4.523438 C 5.917969 4.277344 5.714844 4.074219 5.464844 4.074219 L 0.898438 4.074219 L 0.898438 2.242188 L 27.101562 2.242188 L 27.101562 4.074219 L 7.265625 4.074219 C 7.015625 4.074219 6.816406 4.277344 6.816406 4.523438 C 6.816406 4.773438 7.015625 4.976562 7.265625 4.976562 L 12.839844 4.976562 L 12.839844 10.953125 C 12.839844 10.953125 11.273438 11.453125 11.273438 11.453125 C 8.574219 12.3125 7.078125 15.210938 7.941406 17.90625 C 8.621094 20.046875 10.589844 21.484375 12.835938 21.484375 C 13.363281 21.484375 13.886719 21.402344 14.398438 21.242188 L 19.339844 19.664062 C 19.578125 19.589844 19.707031 19.335938 19.632812 19.101562 C 19.558594 18.863281 19.304688 18.734375 19.066406 18.808594 L 16.890625 19.503906 C 17.082031 19.253906 17.253906 18.988281 17.402344 18.703125 C 18.171875 17.214844 18.148438 15.375 17.351562 13.898438 C 17.351562 13.898438 17.351562 13.894531 17.351562 13.894531 C 16.703125 12.695312 15.609375 11.8125 14.320312 11.425781 L 19.488281 9.777344 C 19.492188 9.773438 19.496094 9.773438 19.503906 9.773438 C 19.503906 9.773438 19.503906 12.515625 19.503906 12.515625 C 19.503906 13.625 20.46875 14.546875 21.585938 14.492188 C 22.628906 14.4375 23.460938 13.574219 23.460938 12.515625 L 23.460938 10.535156 C 24.09375 11.050781 24.5625 11.738281 24.8125 12.527344 C 25.523438 14.753906 24.289062 17.144531 22.0625 17.851562 L 20.867188 18.234375 C 20.628906 18.308594 20.5 18.5625 20.574219 18.800781 C 20.648438 19.035156 20.902344 19.167969 21.140625 19.089844 L 22.335938 18.710938 C 25.035156 17.847656 26.53125 14.953125 25.671875 12.253906 C 25.292969 11.070312 24.515625 10.082031 23.460938 9.4375 L 23.460938 4.976562 L 27.550781 4.976562 C 27.796875 4.976562 28 4.773438 28 4.523438 L 28 1.792969 C 28 1.542969 27.796875 1.34375 27.550781 1.34375 Z M 16.984375 15.476562 C 16.984375 15.480469 16.984375 15.480469 16.984375 15.480469 C 17.464844 17.773438 15.769531 20.171875 13.46875 20.539062 C 13.257812 20.570312 13.046875 20.585938 12.835938 20.585938 C 11.039062 20.574219 9.351562 19.371094 8.796875 17.632812 C 8.089844 15.414062 9.378906 12.953125 11.617188 12.285156 C 13.945312 11.59375 16.480469 13.09375 16.984375 15.476562 Z M 15.902344 9.976562 C 15.179688 10.207031 14.460938 10.433594 13.742188 10.664062 L 13.742188 4.976562 L 15.902344 4.976562 Z M 19.503906 8.835938 C 19.40625 8.863281 16.800781 9.6875 16.800781 9.6875 L 16.800781 4.976562 L 19.503906 4.976562 Z M 22.5625 12.515625 C 22.5625 13.179688 21.921875 13.714844 21.265625 13.570312 C 20.789062 13.460938 20.402344 13.03125 20.402344 12.515625 L 20.402344 4.976562 L 22.5625 4.976562 C 22.5625 4.976562 22.5625 12.511719 22.5625 12.515625 Z M 22.5625 12.515625 "/>
<path style=" stroke:none;fill-rule:nonzero;fill:rgb(0%,0%,0%);fill-opacity:1;" d="M 22.015625 12.398438 C 22.015625 12.695312 21.777344 12.933594 21.484375 12.933594 C 21.1875 12.933594 20.949219 12.695312 20.949219 12.398438 C 20.949219 12.105469 21.1875 11.863281 21.484375 11.863281 C 21.777344 11.863281 22.015625 12.105469 22.015625 12.398438 Z M 22.015625 12.398438 "/>
<path style=" stroke:none;fill-rule:nonzero;fill:rgb(0%,0%,0%);fill-opacity:1;" d="M 16.015625 15.332031 C 15.746094 14.484375 15.160156 13.789062 14.367188 13.382812 C 13.574219 12.972656 12.667969 12.894531 11.820312 13.164062 C 11.464844 13.277344 11.132812 13.449219 10.832031 13.675781 C 10.632812 13.824219 10.59375 14.105469 10.742188 14.304688 C 10.890625 14.503906 11.171875 14.542969 11.371094 14.394531 C 11.589844 14.230469 11.832031 14.105469 12.09375 14.023438 C 12.714844 13.824219 13.375 13.878906 13.953125 14.179688 C 14.535156 14.480469 14.960938 14.984375 15.160156 15.605469 C 15.355469 16.226562 15.300781 16.886719 15 17.464844 C 14.703125 18.046875 14.195312 18.472656 13.578125 18.671875 C 12.957031 18.867188 12.296875 18.8125 11.714844 18.511719 C 11.136719 18.214844 10.707031 17.707031 10.511719 17.089844 C 10.363281 16.621094 10.355469 16.128906 10.496094 15.664062 C 10.5625 15.425781 10.429688 15.175781 10.191406 15.105469 C 9.953125 15.035156 9.703125 15.171875 9.632812 15.410156 C 9.441406 16.050781 9.449219 16.722656 9.652344 17.363281 C 10.105469 18.78125 11.421875 19.6875 12.835938 19.6875 C 13.171875 19.6875 13.511719 19.636719 13.851562 19.527344 C 14.699219 19.257812 15.390625 18.671875 15.800781 17.878906 C 16.210938 17.085938 16.285156 16.179688 16.015625 15.332031 Z M 16.015625 15.332031 "/>
<path style=" stroke:none;fill-rule:nonzero;fill:rgb(0%,0%,0%);fill-opacity:1;" d="M 6.816406 18.789062 C 6.722656 18.558594 6.460938 18.445312 6.230469 18.535156 L 1.570312 20.394531 C 1.339844 20.488281 1.226562 20.75 1.316406 20.980469 C 1.386719 21.15625 1.558594 21.261719 1.734375 21.261719 C 1.792969 21.261719 1.847656 21.253906 1.902344 21.230469 L 6.566406 19.371094 C 6.796875 19.28125 6.90625 19.019531 6.816406 18.789062 Z M 6.816406 18.789062 "/>
<path style=" stroke:none;fill-rule:nonzero;fill:rgb(0%,0%,0%);fill-opacity:1;" d="M 5.519531 14.027344 L 0.628906 14.027344 C 0.378906 14.027344 0.179688 14.226562 0.179688 14.476562 C 0.179688 14.726562 0.378906 14.925781 0.628906 14.925781 L 5.519531 14.925781 C 5.769531 14.925781 5.972656 14.726562 5.972656 14.476562 C 5.972656 14.226562 5.769531 14.027344 5.519531 14.027344 Z M 5.519531 14.027344 "/>
<path style=" stroke:none;fill-rule:nonzero;fill:rgb(0%,0%,0%);fill-opacity:1;" d="M 9.285156 22.402344 C 9.109375 22.230469 8.824219 22.230469 8.648438 22.410156 L 5.210938 25.890625 C 5.039062 26.070312 5.039062 26.351562 5.21875 26.527344 C 5.304688 26.613281 5.417969 26.65625 5.53125 26.65625 C 5.648438 26.65625 5.765625 26.613281 5.851562 26.523438 L 9.289062 23.039062 C 9.464844 22.863281 9.460938 22.578125 9.285156 22.402344 Z M 9.285156 22.402344 "/>
</g>
</svg>
