<?xml version="1.0" encoding="UTF-8"?>
<svg xmlns="http://www.w3.org/2000/svg" xmlns:xlink="http://www.w3.org/1999/xlink" width="28pt" height="28pt" viewBox="0 0 28 28" version="1.1">
<g id="surface1">
<path style=" stroke:none;fill-rule:nonzero;fill:rgb(0%,0%,0%);fill-opacity:1;" d="M 26.917969 24.109375 L 19.054688 17.574219 L 22.527344 12.382812 C 22.5625 12.382812 22.597656 12.382812 22.632812 12.382812 C 23.210938 12.382812 23.746094 12.191406 24.144531 11.792969 L 27.042969 8.894531 C 27.871094 8.066406 28.160156 6.898438 27.914062 5.832031 L 27.914062 0.832031 C 27.914062 0.378906 27.546875 0.0117188 27.09375 0.0117188 L 22.179688 0.0117188 C 21.726562 0.0117188 21.359375 0.378906 21.359375 0.832031 L 21.359375 5.304688 L 19.507812 7.15625 C 18.9375 7.726562 18.789062 8.570312 19.023438 9.433594 L 14.140625 13.488281 L 9.023438 9.238281 C 9.183594 8.445312 9.019531 7.683594 8.492188 7.15625 L 6.605469 5.269531 L 6.605469 0.832031 C 6.605469 0.378906 6.238281 0.0117188 5.785156 0.0117188 L 0.871094 0.0117188 C 0.417969 0.0117188 0.0507812 0.378906 0.0507812 0.832031 L 0.0507812 6.003906 C -0.128906 7.023438 0.171875 8.109375 0.957031 8.894531 L 3.855469 11.792969 C 4.253906 12.191406 4.789062 12.382812 5.367188 12.382812 C 5.488281 12.382812 5.613281 12.375 5.738281 12.359375 L 9.226562 17.574219 L 1.363281 24.109375 C 0.722656 24.617188 0.363281 24.847656 0.363281 25.527344 C 0.363281 26.390625 1.128906 27.042969 2.640625 27.476562 C 3.792969 27.804688 5.316406 27.988281 6.921875 27.988281 C 8.527344 27.988281 10.046875 27.804688 11.203125 27.476562 C 12.367188 27.140625 13.089844 26.675781 13.359375 26.082031 L 14.136719 24.917969 L 14.925781 26.097656 C 15.199219 26.683594 15.917969 27.144531 17.078125 27.476562 C 18.230469 27.804688 19.753906 27.988281 21.359375 27.988281 C 22.964844 27.988281 24.484375 27.804688 25.640625 27.476562 C 27.148438 27.042969 27.914062 26.390625 27.914062 25.527344 C 27.914062 24.847656 27.535156 24.601562 26.917969 24.109375 Z M 22.996094 1.652344 L 26.277344 1.652344 L 26.277344 3.6875 C 25.804688 3.433594 25.273438 3.296875 24.722656 3.296875 C 24.105469 3.296875 23.511719 3.46875 22.996094 3.789062 Z M 22.757812 6.226562 L 23.566406 5.417969 C 23.875 5.109375 24.285156 4.9375 24.722656 4.9375 C 25.160156 4.9375 25.574219 5.109375 25.882812 5.417969 C 26.523438 6.058594 26.523438 7.097656 25.882812 7.734375 L 24.496094 9.121094 C 24.300781 8.636719 23.988281 8.160156 23.566406 7.734375 C 23.152344 7.324219 22.675781 7.003906 22.179688 6.804688 Z M 20.667969 8.316406 C 20.90625 8.074219 21.714844 8.207031 22.40625 8.894531 C 23.113281 9.601562 23.222656 10.398438 22.984375 10.632812 C 22.878906 10.742188 22.652344 10.777344 22.371094 10.714844 C 22.3125 10.699219 21.808594 10.617188 21.246094 10.054688 C 20.625 9.429688 20.386719 8.597656 20.667969 8.316406 Z M 19.808594 10.910156 C 19.898438 11.011719 19.988281 11.113281 20.085938 11.210938 C 20.34375 11.46875 20.621094 11.683594 20.90625 11.859375 L 17.785156 16.519531 L 15.421875 14.554688 Z M 1.6875 1.652344 L 4.96875 1.652344 L 4.96875 3.765625 C 4.460938 3.460938 3.882812 3.296875 3.277344 3.296875 C 2.710938 3.296875 2.167969 3.441406 1.6875 3.707031 Z M 3.503906 9.121094 L 2.117188 7.734375 C 1.476562 7.097656 1.476562 6.058594 2.117188 5.417969 C 2.425781 5.109375 2.839844 4.9375 3.277344 4.9375 C 3.714844 4.9375 4.125 5.109375 4.433594 5.417969 L 5.820312 6.804688 C 5.324219 7.003906 4.847656 7.324219 4.433594 7.734375 C 4.011719 8.160156 3.695312 8.636719 3.503906 9.121094 Z M 5.015625 10.632812 C 4.777344 10.398438 4.886719 9.601562 5.59375 8.894531 C 6.285156 8.207031 7.09375 8.074219 7.332031 8.316406 C 7.722656 8.703125 7.160156 9.644531 6.753906 10.054688 C 6.078125 10.726562 5.269531 10.886719 5.015625 10.632812 Z M 6.921875 26.347656 C 5.652344 26.347656 4.425781 26.222656 3.460938 25.996094 C 2.8125 25.84375 2.414062 25.675781 2.191406 25.550781 L 2.328125 25.4375 C 3.234375 24.992188 5.019531 24.707031 6.921875 24.707031 C 8.257812 24.707031 10.625 24.894531 11.6875 25.527344 C 10.625 26.164062 8.265625 26.347656 6.921875 26.347656 Z M 12.648438 24.199219 C 12.285156 23.960938 11.800781 23.753906 11.203125 23.582031 C 10.046875 23.25 8.527344 23.070312 6.921875 23.070312 C 6.28125 23.070312 5.664062 23.097656 5.078125 23.152344 L 10.140625 18.941406 L 13.152344 23.445312 Z M 14.824219 22.996094 C 14.824219 22.996094 14.824219 22.992188 14.820312 22.992188 L 11 17.277344 C 10.996094 17.277344 10.996094 17.273438 10.996094 17.273438 L 7.289062 11.730469 C 7.503906 11.582031 7.714844 11.410156 7.910156 11.210938 C 8.054688 11.070312 8.183594 10.921875 8.300781 10.769531 L 17.4375 18.359375 C 17.4375 18.363281 17.4375 18.363281 17.4375 18.363281 L 23.203125 23.152344 C 22.617188 23.097656 21.996094 23.070312 21.359375 23.070312 C 19.753906 23.070312 18.230469 23.25 17.078125 23.582031 C 16.476562 23.753906 15.996094 23.960938 15.632812 24.199219 Z M 24.816406 25.996094 C 23.855469 26.222656 22.625 26.347656 21.359375 26.347656 C 20.089844 26.347656 18.863281 26.222656 17.898438 25.996094 C 17.210938 25.835938 16.808594 25.65625 16.59375 25.527344 C 16.808594 25.402344 17.210938 25.222656 17.898438 25.0625 C 18.863281 24.832031 20.089844 24.710938 21.359375 24.710938 C 23.261719 24.710938 25.046875 24.992188 25.953125 25.4375 L 26.085938 25.550781 C 25.867188 25.675781 25.46875 25.84375 24.816406 25.996094 Z M 24.816406 25.996094 "/>
</g>
</svg>
