<?xml version="1.0" encoding="UTF-8"?>
<svg xmlns="http://www.w3.org/2000/svg" xmlns:xlink="http://www.w3.org/1999/xlink" width="28pt" height="28pt" viewBox="0 0 28 28" version="1.1">
<g id="surface1">
<path style=" stroke:none;fill-rule:nonzero;fill:rgb(0%,0%,0%);fill-opacity:1;" d="M 25.351562 0.886719 L 22.972656 0.886719 C 22.121094 0.886719 21.433594 1.574219 21.433594 2.425781 L 21.433594 3.585938 L 14.675781 3.585938 C 11.808594 3.589844 9.4375 5.820312 9.253906 8.679688 L 7.433594 8.679688 C 7.175781 8.679688 6.964844 8.890625 6.964844 9.148438 L 6.964844 10.570312 L 6.484375 10.570312 C 6.3125 10.570312 6.152344 10.667969 6.074219 10.820312 L 2.070312 18.40625 C 1.996094 18.550781 2 18.722656 2.082031 18.863281 C 2.167969 19.003906 2.320312 19.089844 2.484375 19.089844 L 7.527344 19.089844 C 7.535156 19.273438 7.558594 19.457031 7.597656 19.636719 C 7.953125 21.273438 9.398438 22.441406 11.070312 22.445312 C 12.746094 22.445312 14.195312 21.28125 14.550781 19.644531 C 14.589844 19.460938 14.613281 19.277344 14.621094 19.089844 L 19.667969 19.089844 C 19.832031 19.089844 19.984375 19.003906 20.066406 18.863281 C 20.152344 18.722656 20.15625 18.550781 20.082031 18.40625 L 16.078125 10.820312 C 15.996094 10.667969 15.839844 10.570312 15.664062 10.570312 L 15.1875 10.570312 L 15.1875 9.148438 C 15.1875 8.890625 14.976562 8.679688 14.71875 8.679688 L 12.640625 8.679688 C 12.742188 7.632812 13.621094 6.832031 14.675781 6.828125 L 21.433594 6.828125 L 21.433594 8.144531 C 21.433594 8.992188 22.121094 9.679688 22.96875 9.679688 L 25.347656 9.679688 C 25.605469 9.679688 25.816406 9.472656 25.816406 9.214844 L 25.816406 1.351562 C 25.816406 1.09375 25.605469 0.886719 25.351562 0.886719 Z M 13.640625 19.441406 C 13.378906 20.652344 12.308594 21.515625 11.074219 21.515625 C 9.835938 21.515625 8.765625 20.648438 8.507812 19.4375 C 8.484375 19.324219 8.464844 19.207031 8.457031 19.089844 L 13.695312 19.089844 C 13.683594 19.207031 13.667969 19.328125 13.640625 19.441406 Z M 18.894531 18.15625 L 14.164062 18.15625 C 14.160156 18.15625 14.15625 18.15625 14.152344 18.15625 L 7.996094 18.15625 C 7.992188 18.15625 7.988281 18.15625 7.988281 18.15625 L 3.253906 18.15625 L 6.765625 11.503906 L 15.386719 11.503906 Z M 14.253906 10.570312 L 7.898438 10.570312 L 7.898438 9.613281 L 14.253906 9.613281 Z M 14.671875 5.894531 C 13.109375 5.910156 11.816406 7.121094 11.699219 8.679688 L 10.1875 8.679688 C 10.367188 6.335938 12.320312 4.523438 14.675781 4.519531 L 21.433594 4.519531 L 21.433594 5.894531 Z M 24.882812 8.75 L 22.96875 8.75 C 22.636719 8.75 22.363281 8.476562 22.363281 8.144531 L 22.363281 2.425781 C 22.363281 2.089844 22.636719 1.820312 22.96875 1.820312 L 24.882812 1.820312 Z M 24.882812 8.75 "/>
<path style=" stroke:none;fill-rule:nonzero;fill:rgb(0%,0%,0%);fill-opacity:1;" d="M 6.324219 20.300781 C 6.324219 20.042969 6.117188 19.832031 5.859375 19.832031 L 2.992188 19.832031 C 2.734375 19.832031 2.527344 20.042969 2.527344 20.300781 C 2.527344 20.558594 2.734375 20.765625 2.992188 20.765625 L 5.859375 20.765625 C 6.117188 20.765625 6.324219 20.558594 6.324219 20.300781 Z M 6.324219 20.300781 "/>
<path style=" stroke:none;fill-rule:nonzero;fill:rgb(0%,0%,0%);fill-opacity:1;" d="M 7.585938 22.945312 L 5.714844 24.707031 C 5.59375 24.820312 5.539062 24.992188 5.578125 25.152344 C 5.613281 25.316406 5.738281 25.449219 5.898438 25.496094 C 6.058594 25.542969 6.234375 25.5 6.355469 25.382812 L 8.222656 23.625 C 8.347656 23.511719 8.398438 23.339844 8.363281 23.175781 C 8.324219 23.011719 8.203125 22.882812 8.039062 22.832031 C 7.878906 22.785156 7.707031 22.828125 7.585938 22.945312 Z M 7.585938 22.945312 "/>
<path style=" stroke:none;fill-rule:nonzero;fill:rgb(0%,0%,0%);fill-opacity:1;" d="M 19.160156 19.832031 L 16.292969 19.832031 C 16.035156 19.832031 15.828125 20.042969 15.828125 20.300781 C 15.828125 20.558594 16.035156 20.765625 16.292969 20.765625 L 19.160156 20.765625 C 19.417969 20.765625 19.625 20.558594 19.625 20.300781 C 19.625 20.042969 19.417969 19.832031 19.160156 19.832031 Z M 19.160156 19.832031 "/>
<path style=" stroke:none;fill-rule:nonzero;fill:rgb(0%,0%,0%);fill-opacity:1;" d="M 14.5625 22.945312 C 14.441406 22.828125 14.265625 22.785156 14.105469 22.832031 C 13.945312 22.882812 13.824219 23.011719 13.785156 23.175781 C 13.746094 23.339844 13.800781 23.511719 13.921875 23.625 L 15.792969 25.382812 C 15.914062 25.5 16.085938 25.542969 16.25 25.496094 C 16.410156 25.445312 16.53125 25.316406 16.570312 25.152344 C 16.609375 24.988281 16.554688 24.820312 16.429688 24.707031 Z M 14.5625 22.945312 "/>
<path style=" stroke:none;fill-rule:nonzero;fill:rgb(0%,0%,0%);fill-opacity:1;" d="M 11.074219 23.796875 C 10.816406 23.796875 10.605469 24.003906 10.605469 24.261719 L 10.605469 26.636719 C 10.605469 26.648438 10.605469 26.660156 10.605469 26.671875 C 10.605469 26.929688 10.8125 27.136719 11.070312 27.136719 C 11.089844 27.136719 11.113281 27.136719 11.132812 27.132812 C 11.363281 27.101562 11.539062 26.90625 11.539062 26.671875 L 11.539062 24.261719 C 11.539062 24.003906 11.332031 23.796875 11.074219 23.796875 Z M 11.074219 23.796875 "/>
</g>
</svg>
