<?xml version="1.0" encoding="UTF-8"?>
<svg xmlns="http://www.w3.org/2000/svg" xmlns:xlink="http://www.w3.org/1999/xlink" width="14pt" height="14pt" viewBox="0 0 14 14" version="1.1">
<g id="surface1">
<path style=" stroke:none;fill-rule:nonzero;fill:rgb(0%,0%,0%);fill-opacity:1;" d="M 4.285156 11.25 L 3.675781 11.25 L 3.675781 10.714844 C 3.675781 10.46875 3.476562 10.273438 3.234375 10.273438 L 2.25 10.273438 C 2.007812 10.273438 1.8125 10.46875 1.8125 10.714844 L 1.8125 11.25 L 1.203125 11.25 C 1.03125 11.25 0.890625 11.390625 0.890625 11.5625 L 0.890625 13.691406 C 0.890625 13.859375 1.03125 14 1.203125 14 L 4.285156 14 C 4.453125 14 4.59375 13.859375 4.59375 13.691406 L 4.59375 11.5625 C 4.59375 11.390625 4.453125 11.25 4.285156 11.25 Z M 3.195312 11.25 L 2.289062 11.25 L 2.289062 10.75 L 3.195312 10.75 Z M 3.195312 11.25 "/>
<path style=" stroke:none;fill-rule:nonzero;fill:rgb(0%,0%,0%);fill-opacity:1;" d="M 8.257812 1.152344 C 8.257812 1.789062 7.742188 2.304688 7.105469 2.304688 C 6.46875 2.304688 5.953125 1.789062 5.953125 1.152344 C 5.953125 0.515625 6.46875 0 7.105469 0 C 7.742188 0 8.257812 0.515625 8.257812 1.152344 Z M 8.257812 1.152344 "/>
<path style=" stroke:none;fill-rule:nonzero;fill:rgb(0%,0%,0%);fill-opacity:1;" d="M 12.773438 8.917969 L 12.523438 8.917969 L 12.523438 7.441406 L 12.730469 7.441406 C 12.789062 7.441406 12.839844 7.390625 12.839844 7.332031 L 12.839844 6.964844 C 12.839844 6.90625 12.789062 6.855469 12.730469 6.855469 L 11.285156 6.855469 C 11.367188 6.617188 11.28125 6.347656 11.058594 6.203125 L 9.917969 5.476562 L 9.90625 3.980469 C 9.90625 3.257812 9.3125 2.671875 8.59375 2.671875 C 8.28125 2.671875 5.917969 2.671875 5.609375 2.671875 C 4.886719 2.671875 4.296875 3.257812 4.292969 3.980469 L 4.273438 8.066406 C 4.269531 8.375 4.515625 8.625 4.824219 8.625 C 4.828125 8.625 4.828125 8.625 4.828125 8.625 C 5.132812 8.625 5.382812 8.375 5.382812 8.070312 L 5.40625 3.984375 C 5.40625 3.929688 5.453125 3.878906 5.511719 3.878906 C 5.570312 3.878906 5.617188 3.929688 5.617188 3.984375 L 5.617188 13.332031 C 5.617188 13.703125 5.917969 14 6.285156 14 C 6.65625 14 6.953125 13.703125 6.953125 13.332031 L 6.953125 8 L 7.242188 8 L 7.242188 13.332031 C 7.242188 13.703125 7.539062 14 7.90625 14 C 8.277344 14 8.578125 13.703125 8.578125 13.332031 C 8.578125 4.625 8.5625 9.398438 8.5625 3.992188 C 8.5625 3.929688 8.617188 3.875 8.679688 3.875 C 8.742188 3.875 8.796875 3.921875 8.796875 3.984375 L 8.804688 5.789062 C 8.808594 5.976562 8.90625 6.152344 9.0625 6.253906 L 10.320312 7.054688 L 10.320312 7.332031 C 10.320312 7.390625 10.371094 7.441406 10.429688 7.441406 L 10.632812 7.441406 L 10.632812 8.917969 L 10.386719 8.917969 C 10.203125 8.917969 10.054688 9.070312 10.054688 9.25 L 10.054688 13.078125 C 10.054688 13.265625 10.203125 13.414062 10.386719 13.414062 L 10.632812 13.414062 L 10.632812 13.773438 C 10.632812 13.898438 10.734375 14 10.863281 14 C 10.988281 14 11.089844 13.898438 11.089844 13.773438 L 11.089844 13.414062 L 12.070312 13.414062 L 12.070312 13.773438 C 12.070312 13.898438 12.171875 14 12.296875 14 C 12.421875 14 12.523438 13.898438 12.523438 13.773438 L 12.523438 13.414062 L 12.773438 13.414062 C 12.960938 13.414062 13.109375 13.265625 13.109375 13.078125 L 13.109375 9.25 C 13.109375 9.070312 12.960938 8.917969 12.773438 8.917969 Z M 12.070312 8.917969 L 11.089844 8.917969 L 11.089844 7.441406 L 12.070312 7.441406 Z M 12.070312 8.917969 "/>
</g>
</svg>
