<?xml version="1.0" encoding="UTF-8"?>
<svg xmlns="http://www.w3.org/2000/svg" xmlns:xlink="http://www.w3.org/1999/xlink" width="14pt" height="14pt" viewBox="0 0 14 14" version="1.1">
<g id="surface1">
<path style=" stroke:none;fill-rule:nonzero;fill:rgb(0%,0%,0%);fill-opacity:1;" d="M 13.589844 4.15625 L 13.101562 4.15625 C 13.148438 4.027344 13.179688 3.890625 13.179688 3.746094 C 13.179688 3.269531 12.796875 1.695312 11.949219 1.695312 C 11.101562 1.695312 10.71875 3.269531 10.71875 3.746094 C 10.71875 3.890625 10.75 4.027344 10.796875 4.15625 L 10.308594 4.15625 C 10.082031 4.15625 9.898438 4.339844 9.898438 4.566406 C 9.898438 5.234375 10.226562 5.820312 10.71875 6.195312 L 10.71875 6.207031 C 10.71875 6.882812 10.164062 7.4375 9.488281 7.4375 C 8.8125 7.4375 8.257812 6.882812 8.257812 6.207031 C 8.257812 6.117188 8.257812 2.53125 8.257812 2.421875 C 9.195312 2.226562 9.898438 1.398438 9.898438 0.410156 C 9.898438 0.183594 9.714844 0 9.488281 0 L 4.511719 0 C 4.285156 0 4.101562 0.183594 4.101562 0.410156 C 4.101562 1.398438 4.804688 2.226562 5.742188 2.421875 C 5.742188 2.53125 5.742188 6.125 5.742188 6.207031 C 5.742188 6.882812 5.1875 7.4375 4.511719 7.4375 C 3.835938 7.4375 3.28125 6.882812 3.28125 6.207031 L 3.28125 6.195312 C 3.773438 5.820312 4.101562 5.234375 4.101562 4.566406 C 4.101562 4.339844 3.917969 4.15625 3.691406 4.15625 L 3.203125 4.15625 C 3.25 4.027344 3.28125 3.890625 3.28125 3.746094 C 3.28125 3.269531 2.898438 1.695312 2.050781 1.695312 C 1.203125 1.695312 0.820312 3.269531 0.820312 3.746094 C 0.820312 3.890625 0.851562 4.027344 0.898438 4.15625 L 0.410156 4.15625 C 0.183594 4.15625 0 4.339844 0 4.566406 C 0 5.234375 0.328125 5.820312 0.820312 6.195312 L 0.820312 6.207031 C 0.820312 7.5625 1.5625 8.734375 2.652344 9.375 C 2.539062 9.707031 2.460938 10.0625 2.460938 10.308594 C 2.460938 10.695312 2.640625 11.03125 2.921875 11.257812 C 2.609375 11.761719 2.460938 12.476562 2.460938 12.769531 C 2.460938 13.445312 3.015625 14 3.691406 14 C 4.367188 14 4.921875 13.445312 4.921875 12.769531 C 4.921875 12.476562 4.773438 11.761719 4.460938 11.257812 C 4.742188 11.03125 4.921875 10.695312 4.921875 10.308594 C 4.921875 10.1875 4.902344 10.03125 4.867188 9.867188 C 5.207031 9.832031 5.539062 9.765625 5.855469 9.640625 C 5.78125 9.914062 5.742188 10.164062 5.742188 10.308594 C 5.742188 10.695312 5.921875 11.03125 6.203125 11.257812 C 5.890625 11.761719 5.742188 12.476562 5.742188 12.769531 C 5.742188 13.445312 6.351562 14 7.027344 14 C 7.703125 14 8.257812 13.445312 8.257812 12.769531 C 8.257812 12.476562 8.109375 11.761719 7.796875 11.257812 C 8.078125 11.03125 8.257812 10.695312 8.257812 10.308594 C 8.257812 10.164062 8.21875 9.914062 8.144531 9.640625 C 8.460938 9.765625 8.792969 9.832031 9.132812 9.867188 C 9.097656 10.03125 9.078125 10.1875 9.078125 10.308594 C 9.078125 10.695312 9.257812 11.03125 9.539062 11.257812 C 9.226562 11.761719 9.078125 12.476562 9.078125 12.769531 C 9.078125 13.445312 9.632812 14 10.308594 14 C 10.984375 14 11.539062 13.445312 11.539062 12.769531 C 11.539062 12.476562 11.390625 11.761719 11.078125 11.257812 C 11.359375 11.03125 11.539062 10.695312 11.539062 10.308594 C 11.539062 10.0625 11.460938 9.707031 11.347656 9.375 C 12.4375 8.734375 13.179688 7.5625 13.179688 6.207031 L 13.179688 6.195312 C 13.671875 5.820312 14 5.234375 14 4.566406 C 14 4.339844 13.816406 4.15625 13.589844 4.15625 Z M 2.050781 5.796875 C 1.515625 5.796875 1.0625 5.453125 0.890625 4.976562 L 3.210938 4.976562 C 3.039062 5.453125 2.585938 5.796875 2.050781 5.796875 Z M 3.691406 10.71875 C 3.464844 10.71875 3.28125 10.535156 3.28125 10.308594 C 3.28125 10.195312 3.328125 9.957031 3.40625 9.710938 C 3.601562 9.773438 3.808594 9.820312 4.019531 9.851562 C 4.070312 10.042969 4.101562 10.214844 4.101562 10.308594 C 4.101562 10.535156 3.917969 10.71875 3.691406 10.71875 Z M 7.027344 10.71875 C 6.800781 10.71875 6.5625 10.535156 6.5625 10.308594 C 6.5625 9.96875 6.851562 9.3125 7.027344 9.113281 C 7.203125 9.3125 7.4375 9.96875 7.4375 10.308594 C 7.4375 10.535156 7.253906 10.71875 7.027344 10.71875 Z M 7.847656 1.640625 L 6.152344 1.640625 C 5.617188 1.640625 5.164062 1.296875 4.992188 0.820312 L 9.007812 0.820312 C 8.835938 1.296875 8.382812 1.640625 7.847656 1.640625 Z M 10.308594 10.71875 C 10.082031 10.71875 9.898438 10.535156 9.898438 10.308594 C 9.898438 10.214844 9.929688 10.042969 9.980469 9.851562 C 10.191406 9.820312 10.398438 9.773438 10.59375 9.710938 C 10.671875 9.957031 10.71875 10.195312 10.71875 10.308594 C 10.71875 10.535156 10.535156 10.71875 10.308594 10.71875 Z M 11.949219 5.796875 C 11.414062 5.796875 10.960938 5.453125 10.789062 4.976562 L 13.109375 4.976562 C 12.9375 5.453125 12.484375 5.796875 11.949219 5.796875 Z M 11.949219 5.796875 "/>
</g>
</svg>
