<?xml version="1.0" encoding="UTF-8"?>
<svg xmlns="http://www.w3.org/2000/svg" xmlns:xlink="http://www.w3.org/1999/xlink" width="28pt" height="28pt" viewBox="0 0 28 28" version="1.1">
<g id="surface1">
<path style=" stroke:none;fill-rule:nonzero;fill:rgb(0%,0%,0%);fill-opacity:1;" d="M 21.199219 0 L 6.800781 0 C 4.753906 0 3.085938 1.667969 3.085938 3.714844 L 3.085938 24.285156 C 3.085938 26.332031 4.753906 28 6.800781 28 L 21.199219 28 C 23.246094 28 24.914062 26.332031 24.914062 24.285156 L 24.914062 3.714844 C 24.914062 1.667969 23.246094 0 21.199219 0 Z M 23.199219 24.285156 C 23.199219 25.386719 22.300781 26.285156 21.199219 26.285156 L 6.800781 26.285156 C 5.699219 26.285156 4.800781 25.386719 4.800781 24.285156 L 4.800781 3.714844 C 4.800781 2.613281 5.699219 1.714844 6.800781 1.714844 L 21.199219 1.714844 C 22.300781 1.714844 23.199219 2.613281 23.199219 3.714844 Z M 23.199219 24.285156 "/>
<path style=" stroke:none;fill-rule:nonzero;fill:rgb(0%,0%,0%);fill-opacity:1;" d="M 20.171875 3.894531 L 19.078125 3.894531 C 18.605469 3.894531 18.222656 4.277344 18.222656 4.75 C 18.222656 5.226562 18.605469 5.609375 19.078125 5.609375 L 20.171875 5.609375 C 20.648438 5.609375 21.03125 5.226562 21.03125 4.75 C 21.03125 4.277344 20.648438 3.894531 20.171875 3.894531 Z M 20.171875 3.894531 "/>
<path style=" stroke:none;fill-rule:nonzero;fill:rgb(0%,0%,0%);fill-opacity:1;" d="M 11.417969 2.578125 C 8.363281 2.578125 5.878906 5.0625 5.878906 8.117188 C 5.878906 11.171875 8.363281 13.65625 11.417969 13.65625 C 14.472656 13.65625 16.957031 11.171875 16.957031 8.117188 C 16.957031 5.0625 14.472656 2.578125 11.417969 2.578125 Z M 7.59375 8.117188 C 7.59375 7.949219 7.605469 7.789062 7.628906 7.625 L 9.214844 7.625 L 9.214844 8.605469 L 7.628906 8.605469 C 7.605469 8.445312 7.59375 8.28125 7.59375 8.117188 Z M 10.929688 7.625 L 11.90625 7.625 L 11.90625 8.605469 L 10.929688 8.605469 Z M 13.621094 8.605469 L 13.621094 7.625 L 15.210938 7.625 C 15.230469 7.789062 15.242188 7.949219 15.242188 8.117188 C 15.242188 8.28125 15.230469 8.445312 15.210938 8.605469 Z M 13.621094 5.914062 L 13.621094 4.992188 C 13.980469 5.246094 14.289062 5.554688 14.542969 5.914062 Z M 11.90625 5.914062 L 10.929688 5.914062 L 10.929688 4.324219 C 11.089844 4.304688 11.253906 4.292969 11.417969 4.292969 C 11.585938 4.292969 11.746094 4.304688 11.910156 4.324219 L 11.910156 5.914062 Z M 9.214844 4.992188 L 9.214844 5.914062 L 8.296875 5.914062 C 8.546875 5.554688 8.859375 5.246094 9.214844 4.992188 Z M 9.214844 10.320312 L 9.214844 11.238281 C 8.859375 10.988281 8.546875 10.675781 8.296875 10.320312 Z M 10.929688 11.90625 L 10.929688 10.320312 L 11.90625 10.320312 L 11.90625 11.90625 C 11.746094 11.929688 11.585938 11.941406 11.417969 11.941406 C 11.253906 11.941406 11.089844 11.929688 10.929688 11.90625 Z M 13.621094 11.238281 L 13.621094 10.320312 L 14.542969 10.320312 C 14.289062 10.675781 13.980469 10.988281 13.621094 11.238281 Z M 13.621094 11.238281 "/>
<path style=" stroke:none;fill-rule:nonzero;fill:rgb(0%,0%,0%);fill-opacity:1;" d="M 11.417969 14.34375 C 8.363281 14.34375 5.878906 16.828125 5.878906 19.882812 C 5.878906 22.9375 8.363281 25.421875 11.417969 25.421875 C 14.472656 25.421875 16.957031 22.9375 16.957031 19.882812 C 16.957031 16.828125 14.472656 14.34375 11.417969 14.34375 Z M 7.59375 19.882812 C 7.59375 19.71875 7.605469 19.554688 7.628906 19.394531 L 9.214844 19.394531 L 9.214844 20.371094 L 7.628906 20.371094 C 7.605469 20.210938 7.59375 20.050781 7.59375 19.882812 Z M 10.929688 19.394531 L 11.90625 19.394531 L 11.90625 20.371094 L 10.929688 20.371094 Z M 13.621094 20.371094 L 13.621094 19.394531 L 15.210938 19.394531 C 15.230469 19.554688 15.242188 19.71875 15.242188 19.882812 C 15.242188 20.050781 15.230469 20.210938 15.210938 20.375 L 13.621094 20.375 Z M 13.621094 17.679688 L 13.621094 16.761719 C 13.980469 17.011719 14.289062 17.324219 14.542969 17.679688 Z M 11.90625 17.679688 L 10.929688 17.679688 L 10.929688 16.09375 C 11.089844 16.070312 11.253906 16.058594 11.417969 16.058594 C 11.585938 16.058594 11.746094 16.070312 11.910156 16.09375 L 11.910156 17.679688 Z M 9.214844 16.761719 L 9.214844 17.679688 L 8.296875 17.679688 C 8.546875 17.324219 8.859375 17.011719 9.214844 16.761719 Z M 9.214844 22.085938 L 9.214844 23.007812 C 8.859375 22.753906 8.546875 22.445312 8.296875 22.085938 Z M 10.929688 23.675781 L 10.929688 22.085938 L 11.90625 22.085938 L 11.90625 23.675781 C 11.746094 23.695312 11.585938 23.707031 11.417969 23.707031 C 11.253906 23.707031 11.089844 23.695312 10.929688 23.675781 Z M 13.621094 23.007812 L 13.621094 22.085938 L 14.542969 22.085938 C 14.289062 22.445312 13.980469 22.753906 13.621094 23.007812 Z M 13.621094 23.007812 "/>
</g>
</svg>
