<?xml version="1.0" encoding="UTF-8"?>
<svg xmlns="http://www.w3.org/2000/svg" xmlns:xlink="http://www.w3.org/1999/xlink" width="28pt" height="28pt" viewBox="0 0 28 28" version="1.1">
<g id="surface1">
<path style=" stroke:none;fill-rule:nonzero;fill:rgb(0%,0%,0%);fill-opacity:1;" d="M 28 15.292969 C 28 15.0625 27.8125 14.878906 27.585938 14.878906 C 25.738281 14.878906 24.234375 13.375 24.234375 11.527344 C 24.234375 11.527344 24.234375 11.523438 24.234375 11.519531 C 24.234375 11.519531 24.234375 11.515625 24.234375 11.515625 C 24.230469 11.375 24.113281 8.054688 22.515625 6.457031 C 22.351562 6.292969 22.089844 6.292969 21.925781 6.457031 L 21.144531 7.238281 C 20.96875 6.867188 20.695312 6.367188 20.316406 5.863281 C 20.175781 5.679688 19.914062 5.640625 19.730469 5.78125 C 19.550781 5.917969 19.511719 6.179688 19.652344 6.363281 C 20.300781 7.226562 20.609375 8.09375 20.613281 8.101562 C 20.660156 8.238281 20.773438 8.339844 20.910156 8.371094 C 21.050781 8.402344 21.199219 8.363281 21.300781 8.261719 L 22.199219 7.359375 C 23.039062 8.484375 23.296875 10.300781 23.371094 11.117188 L 20.558594 11.160156 C 19.335938 11.175781 18.175781 11.601562 17.257812 12.367188 C 16.96875 12.230469 16.652344 12.160156 16.328125 12.160156 C 15.121094 12.160156 14.136719 13.144531 14.136719 14.351562 C 14.136719 15.183594 14.605469 15.929688 15.328125 16.300781 C 15.324219 16.410156 15.320312 16.519531 15.320312 16.632812 C 15.320312 17.320312 15.449219 17.984375 15.683594 18.59375 C 14.101562 18.320312 10.523438 17.824219 7.714844 18.359375 C 7.488281 18.402344 7.339844 18.617188 7.382812 18.84375 C 7.425781 19.070312 7.644531 19.21875 7.867188 19.175781 C 10.976562 18.585938 15.246094 19.347656 16.152344 19.523438 C 16.605469 20.25 17.226562 20.863281 17.957031 21.308594 C 17.816406 21.375 17.71875 21.519531 17.71875 21.683594 L 17.71875 22.9375 C 17.71875 23.441406 17.3125 23.847656 16.808594 23.847656 C 16.308594 23.847656 15.898438 23.441406 15.898438 22.9375 L 15.898438 21.683594 C 15.898438 21.453125 15.710938 21.269531 15.484375 21.269531 L 6.875 21.269531 C 6.648438 21.269531 6.460938 21.453125 6.460938 21.683594 L 6.460938 22.9375 C 6.460938 23.441406 6.050781 23.847656 5.550781 23.847656 C 5.046875 23.847656 4.640625 23.441406 4.640625 22.9375 L 4.640625 21.710938 C 4.75 20.726562 5.363281 20.023438 6.507812 19.558594 C 6.722656 19.472656 6.824219 19.230469 6.738281 19.019531 C 6.652344 18.804688 6.410156 18.703125 6.195312 18.789062 C 4.894531 19.316406 4.113281 20.148438 3.867188 21.269531 L 2.199219 21.269531 L 2.722656 18.835938 C 2.75 18.714844 2.71875 18.585938 2.640625 18.488281 C 2.5625 18.390625 2.445312 18.332031 2.316406 18.332031 L 0.878906 18.332031 C 1.121094 17.179688 2.234375 15.734375 2.695312 15.21875 C 2.804688 15.097656 2.832031 14.921875 2.765625 14.773438 C 2.699219 14.621094 2.546875 14.527344 2.382812 14.527344 L 0.871094 14.527344 C 1.203125 12.765625 3.507812 11.273438 3.53125 11.257812 C 3.671875 11.167969 3.746094 11.003906 3.71875 10.839844 C 3.691406 10.675781 3.570312 10.542969 3.410156 10.503906 L 2.085938 10.171875 C 3.226562 8.492188 5.820312 7.734375 5.847656 7.726562 C 6.023438 7.675781 6.144531 7.519531 6.148438 7.335938 C 6.152344 7.15625 6.042969 6.992188 5.871094 6.933594 L 4.386719 6.414062 C 4.902344 5.875 5.941406 5.738281 6.796875 5.726562 C 8.011719 5.714844 9.148438 5.949219 9.160156 5.953125 C 9.339844 5.988281 9.523438 5.90625 9.613281 5.742188 C 9.699219 5.582031 9.671875 5.382812 9.539062 5.25 L 8.546875 4.257812 C 10.304688 3.863281 12.480469 5.53125 12.503906 5.546875 C 12.628906 5.644531 12.800781 5.664062 12.941406 5.59375 C 13.085938 5.523438 13.175781 5.378906 13.175781 5.21875 L 13.175781 4.183594 C 15.726562 4.355469 16.914062 6.109375 16.964844 6.1875 C 17.066406 6.339844 17.253906 6.410156 17.429688 6.355469 C 17.609375 6.304688 17.730469 6.144531 17.730469 5.957031 L 17.730469 4.824219 C 18.074219 4.957031 18.410156 5.148438 18.726562 5.398438 C 18.90625 5.539062 19.167969 5.511719 19.308594 5.332031 C 19.453125 5.148438 19.421875 4.886719 19.242188 4.746094 C 18.671875 4.292969 18.050781 4 17.394531 3.867188 C 17.273438 3.84375 17.144531 3.875 17.050781 3.953125 C 16.953125 4.03125 16.898438 4.148438 16.898438 4.273438 L 16.898438 4.878906 C 16.128906 4.191406 14.773438 3.335938 12.761719 3.335938 C 12.53125 3.335938 12.34375 3.523438 12.34375 3.75 L 12.34375 4.4375 C 11.308594 3.804688 9.265625 2.832031 7.601562 3.730469 C 7.484375 3.792969 7.40625 3.90625 7.386719 4.039062 C 7.367188 4.167969 7.414062 4.300781 7.503906 4.390625 L 8.066406 4.953125 C 7.6875 4.917969 7.253906 4.890625 6.800781 4.894531 C 4.929688 4.914062 3.777344 5.449219 3.375 6.484375 C 3.332031 6.589844 3.335938 6.707031 3.382812 6.808594 C 3.429688 6.914062 3.519531 6.992188 3.625 7.027344 L 4.511719 7.339844 C 3.410156 7.824219 1.789062 8.757812 1.078125 10.265625 C 1.023438 10.378906 1.023438 10.507812 1.078125 10.621094 C 1.132812 10.734375 1.230469 10.816406 1.351562 10.847656 L 2.351562 11.097656 C 1.4375 11.839844 0 13.273438 0 14.941406 C 0 15.171875 0.1875 15.359375 0.414062 15.359375 L 1.511719 15.359375 C 1.371094 15.546875 1.210938 15.769531 1.050781 16.011719 C 0.355469 17.074219 0 17.996094 0 18.75 C 0 18.980469 0.1875 19.164062 0.414062 19.164062 L 1.804688 19.164062 L 1.277344 21.597656 C 1.25 21.71875 1.28125 21.847656 1.363281 21.945312 C 1.441406 22.042969 1.558594 22.101562 1.683594 22.101562 L 3.808594 22.101562 L 3.808594 22.9375 C 3.808594 23.898438 4.589844 24.679688 5.550781 24.679688 C 6.089844 24.679688 6.570312 24.433594 6.890625 24.050781 C 7.210938 24.433594 7.691406 24.679688 8.230469 24.679688 C 9.191406 24.679688 9.972656 23.898438 9.972656 22.9375 L 9.972656 22.101562 L 15.066406 22.101562 L 15.066406 22.9375 C 15.066406 23.898438 15.847656 24.679688 16.808594 24.679688 C 17.347656 24.679688 17.832031 24.433594 18.152344 24.050781 C 18.46875 24.433594 18.953125 24.679688 19.492188 24.679688 C 20.453125 24.679688 21.234375 23.898438 21.234375 22.9375 L 21.234375 22.101562 C 24.96875 22.078125 28 19.035156 28 15.292969 Z M 9.140625 22.9375 C 9.140625 23.441406 8.734375 23.847656 8.230469 23.847656 C 7.726562 23.847656 7.320312 23.441406 7.320312 22.9375 L 7.320312 22.101562 L 9.140625 22.101562 Z M 26.894531 17.078125 C 26.167969 16.800781 25.671875 16.097656 25.671875 15.292969 C 25.671875 15.277344 25.671875 15.261719 25.671875 15.246094 C 26.125 15.480469 26.625 15.632812 27.15625 15.6875 C 27.125 16.167969 27.035156 16.636719 26.894531 17.078125 Z M 20.402344 22.9375 C 20.402344 23.441406 19.992188 23.847656 19.492188 23.847656 C 18.988281 23.847656 18.578125 23.441406 18.578125 22.9375 L 18.578125 22.101562 L 20.402344 22.101562 Z M 21.191406 21.269531 L 20.789062 21.269531 C 18.234375 21.269531 16.152344 19.1875 16.152344 16.632812 C 16.152344 16.449219 16.164062 16.261719 16.183594 16.078125 C 16.203125 15.886719 16.085938 15.703125 15.898438 15.640625 C 15.34375 15.457031 14.96875 14.9375 14.96875 14.351562 C 14.96875 13.601562 15.578125 12.992188 16.328125 12.992188 C 16.597656 12.992188 16.859375 13.070312 17.082031 13.222656 C 17.242188 13.328125 17.457031 13.3125 17.597656 13.179688 C 18.40625 12.414062 19.433594 12.007812 20.566406 11.992188 L 23.421875 11.949219 C 23.535156 13.0625 24.085938 14.046875 24.898438 14.730469 C 24.859375 14.914062 24.839844 15.101562 24.839844 15.292969 C 24.839844 16.445312 25.550781 17.453125 26.589844 17.851562 C 25.632812 19.871094 23.574219 21.269531 21.191406 21.269531 Z M 21.191406 21.269531 "/>
<path style=" stroke:none;fill-rule:nonzero;fill:rgb(0%,0%,0%);fill-opacity:1;" d="M 21.429688 15.210938 C 20.804688 15.210938 20.292969 15.722656 20.292969 16.347656 C 20.292969 16.972656 20.804688 17.484375 21.429688 17.484375 C 22.054688 17.484375 22.566406 16.972656 22.566406 16.347656 C 22.566406 15.722656 22.054688 15.210938 21.429688 15.210938 Z M 21.429688 16.652344 C 21.261719 16.652344 21.125 16.515625 21.125 16.347656 C 21.125 16.179688 21.261719 16.042969 21.429688 16.042969 C 21.597656 16.042969 21.734375 16.179688 21.734375 16.347656 C 21.734375 16.515625 21.597656 16.652344 21.429688 16.652344 Z M 21.429688 16.652344 "/>
</g>
</svg>
