<?xml version="1.0" encoding="UTF-8"?>
<svg xmlns="http://www.w3.org/2000/svg" xmlns:xlink="http://www.w3.org/1999/xlink" width="28pt" height="28pt" viewBox="0 0 28 28" version="1.1">
<g id="surface1">
<path style=" stroke:none;fill-rule:nonzero;fill:rgb(0%,0%,0%);fill-opacity:1;" d="M 27.972656 14.464844 C 27.734375 12.339844 25.9375 10.734375 23.800781 10.734375 C 23.472656 10.734375 23.144531 10.773438 22.828125 10.851562 L 23.414062 4.59375 C 23.527344 3.414062 23.136719 2.246094 22.339844 1.371094 C 21.542969 0.496094 20.414062 0 19.230469 0 L 8.769531 0 C 7.585938 0 6.457031 0.496094 5.660156 1.371094 C 4.863281 2.246094 4.472656 3.414062 4.585938 4.59375 L 5.171875 10.851562 C 3.707031 10.503906 2.167969 10.964844 1.136719 12.0625 C 0.109375 13.15625 -0.257812 14.722656 0.183594 16.160156 C 0.621094 17.601562 1.800781 18.695312 3.265625 19.027344 L 3.265625 23.800781 C 3.269531 24.648438 3.84375 25.390625 4.667969 25.601562 L 4.667969 26.601562 C 4.667969 27.371094 5.292969 28 6.066406 28 L 8.867188 28 C 9.640625 28 10.265625 27.371094 10.265625 26.601562 L 10.265625 25.667969 L 17.734375 25.667969 L 17.734375 26.601562 C 17.734375 27.371094 18.359375 28 19.132812 28 L 21.933594 28 C 22.707031 28 23.332031 27.371094 23.332031 26.601562 L 23.332031 25.601562 C 24.15625 25.390625 24.730469 24.648438 24.734375 23.800781 L 24.734375 19.027344 C 26.816406 18.554688 28.210938 16.589844 27.972656 14.464844 Z M 6.351562 2 C 6.96875 1.316406 7.847656 0.929688 8.769531 0.933594 L 19.230469 0.933594 C 20.152344 0.933594 21.027344 1.320312 21.648438 2 C 22.269531 2.679688 22.574219 3.589844 22.484375 4.507812 L 21.855469 11.222656 C 20.472656 11.945312 19.601562 13.375 19.601562 14.933594 L 19.601562 16.59375 C 19.316406 16.425781 18.996094 16.335938 18.667969 16.332031 L 9.332031 16.332031 C 9.003906 16.335938 8.683594 16.425781 8.398438 16.59375 L 8.398438 14.933594 C 8.398438 13.371094 7.527344 11.941406 6.144531 11.222656 L 5.515625 4.507812 C 5.421875 3.589844 5.726562 2.679688 6.351562 2 Z M 19.601562 18.199219 L 19.601562 21 L 8.398438 21 L 8.398438 18.199219 C 8.398438 17.683594 8.816406 17.265625 9.332031 17.265625 L 18.667969 17.265625 C 19.183594 17.265625 19.597656 17.683594 19.601562 18.199219 Z M 4.199219 23.800781 L 4.199219 18.636719 C 4.195312 18.617188 4.191406 18.597656 4.1875 18.574219 C 4.183594 18.542969 4.179688 18.515625 4.167969 18.484375 C 4.15625 18.457031 4.144531 18.429688 4.128906 18.40625 C 4.101562 18.351562 4.0625 18.308594 4.011719 18.273438 C 3.988281 18.253906 3.964844 18.238281 3.941406 18.226562 C 3.910156 18.210938 3.882812 18.203125 3.851562 18.195312 C 3.832031 18.1875 3.8125 18.179688 3.789062 18.175781 C 2.078125 17.960938 0.832031 16.449219 0.941406 14.730469 C 1.046875 13.007812 2.476562 11.667969 4.199219 11.667969 C 4.652344 11.664062 5.101562 11.761719 5.515625 11.945312 C 6.703125 12.464844 7.46875 13.636719 7.464844 14.933594 L 7.464844 24.734375 L 5.132812 24.734375 C 4.617188 24.734375 4.199219 24.316406 4.199219 23.800781 Z M 9.332031 26.601562 C 9.332031 26.859375 9.125 27.066406 8.867188 27.066406 L 6.066406 27.066406 C 5.808594 27.066406 5.601562 26.859375 5.601562 26.601562 L 5.601562 25.667969 L 9.332031 25.667969 Z M 9.800781 24.734375 L 8.398438 24.734375 L 8.398438 21.933594 L 19.601562 21.933594 L 19.601562 24.734375 Z M 22.398438 26.601562 C 22.398438 26.859375 22.191406 27.066406 21.933594 27.066406 L 19.132812 27.066406 C 18.875 27.066406 18.667969 26.859375 18.667969 26.601562 L 18.667969 25.667969 L 22.398438 25.667969 Z M 24.210938 18.175781 C 24.1875 18.179688 24.167969 18.1875 24.148438 18.195312 C 24.117188 18.203125 24.089844 18.210938 24.058594 18.226562 C 24.035156 18.238281 24.007812 18.253906 23.988281 18.273438 C 23.9375 18.308594 23.898438 18.351562 23.871094 18.40625 C 23.855469 18.429688 23.839844 18.457031 23.832031 18.484375 C 23.820312 18.515625 23.816406 18.542969 23.8125 18.574219 C 23.808594 18.597656 23.800781 18.617188 23.800781 18.636719 L 23.800781 23.800781 C 23.800781 24.316406 23.382812 24.734375 22.867188 24.734375 L 20.53125 24.734375 L 20.53125 14.933594 C 20.53125 13.636719 21.300781 12.464844 22.488281 11.945312 C 22.898438 11.761719 23.347656 11.664062 23.800781 11.667969 C 25.523438 11.667969 26.953125 13.007812 27.058594 14.730469 C 27.167969 16.449219 25.921875 17.960938 24.210938 18.175781 Z M 24.210938 18.175781 "/>
<path style=" stroke:none;fill-rule:nonzero;fill:rgb(0%,0%,0%);fill-opacity:1;" d="M 4.199219 13.535156 C 3.425781 13.535156 2.800781 14.160156 2.800781 14.933594 C 2.800781 15.707031 3.425781 16.332031 4.199219 16.332031 C 4.972656 16.332031 5.597656 15.707031 5.601562 14.933594 C 5.601562 14.160156 4.972656 13.535156 4.199219 13.535156 Z M 4.199219 15.398438 C 3.941406 15.398438 3.734375 15.191406 3.734375 14.933594 C 3.734375 14.675781 3.941406 14.464844 4.199219 14.464844 C 4.457031 14.464844 4.667969 14.675781 4.667969 14.933594 C 4.667969 15.191406 4.457031 15.398438 4.199219 15.398438 Z M 4.199219 15.398438 "/>
<path style=" stroke:none;fill-rule:nonzero;fill:rgb(0%,0%,0%);fill-opacity:1;" d="M 23.800781 13.535156 C 23.027344 13.535156 22.398438 14.160156 22.398438 14.933594 C 22.398438 15.707031 23.027344 16.332031 23.800781 16.332031 C 24.574219 16.332031 25.199219 15.707031 25.199219 14.933594 C 25.199219 14.160156 24.574219 13.535156 23.800781 13.535156 Z M 23.800781 15.398438 C 23.542969 15.398438 23.332031 15.191406 23.332031 14.933594 C 23.332031 14.675781 23.542969 14.464844 23.800781 14.464844 C 24.058594 14.464844 24.265625 14.675781 24.265625 14.933594 C 24.265625 15.191406 24.058594 15.398438 23.800781 15.398438 Z M 23.800781 15.398438 "/>
<path style=" stroke:none;fill-rule:nonzero;fill:rgb(0%,0%,0%);fill-opacity:1;" d="M 9.332031 7.933594 C 10.105469 7.933594 10.734375 7.304688 10.734375 6.535156 C 10.734375 5.761719 10.105469 5.132812 9.332031 5.132812 C 8.558594 5.132812 7.933594 5.761719 7.933594 6.535156 C 7.933594 7.304688 8.558594 7.933594 9.332031 7.933594 Z M 9.332031 6.066406 C 9.589844 6.066406 9.800781 6.277344 9.800781 6.535156 C 9.800781 6.792969 9.589844 7 9.332031 7 C 9.074219 7 8.867188 6.792969 8.867188 6.535156 C 8.867188 6.277344 9.074219 6.066406 9.332031 6.066406 Z M 9.332031 6.066406 "/>
<path style=" stroke:none;fill-rule:nonzero;fill:rgb(0%,0%,0%);fill-opacity:1;" d="M 9.800781 11.199219 C 9.800781 11.972656 10.425781 12.601562 11.199219 12.601562 C 11.972656 12.601562 12.601562 11.972656 12.601562 11.199219 C 12.601562 10.425781 11.972656 9.800781 11.199219 9.800781 C 10.425781 9.800781 9.800781 10.425781 9.800781 11.199219 Z M 11.199219 10.734375 C 11.457031 10.734375 11.667969 10.941406 11.667969 11.199219 C 11.667969 11.457031 11.457031 11.667969 11.199219 11.667969 C 10.941406 11.667969 10.734375 11.457031 10.734375 11.199219 C 10.734375 10.941406 10.941406 10.734375 11.199219 10.734375 Z M 11.199219 10.734375 "/>
<path style=" stroke:none;fill-rule:nonzero;fill:rgb(0%,0%,0%);fill-opacity:1;" d="M 16.800781 12.601562 C 17.574219 12.601562 18.199219 11.972656 18.199219 11.199219 C 18.199219 10.425781 17.574219 9.800781 16.800781 9.800781 C 16.027344 9.800781 15.398438 10.425781 15.398438 11.199219 C 15.402344 11.972656 16.027344 12.597656 16.800781 12.601562 Z M 16.800781 10.734375 C 17.058594 10.734375 17.265625 10.941406 17.265625 11.199219 C 17.265625 11.457031 17.058594 11.667969 16.800781 11.667969 C 16.542969 11.667969 16.332031 11.457031 16.332031 11.199219 C 16.332031 10.941406 16.542969 10.734375 16.800781 10.734375 Z M 16.800781 10.734375 "/>
<path style=" stroke:none;fill-rule:nonzero;fill:rgb(0%,0%,0%);fill-opacity:1;" d="M 14 7.933594 C 14.773438 7.933594 15.398438 7.304688 15.398438 6.535156 C 15.398438 5.761719 14.773438 5.132812 14 5.132812 C 13.226562 5.132812 12.601562 5.761719 12.601562 6.535156 C 12.601562 7.304688 13.226562 7.933594 14 7.933594 Z M 14 6.066406 C 14.257812 6.066406 14.464844 6.277344 14.464844 6.535156 C 14.464844 6.792969 14.257812 7 14 7 C 13.742188 7 13.53125 6.792969 13.53125 6.535156 C 13.535156 6.277344 13.742188 6.066406 14 6.066406 Z M 14 6.066406 "/>
<path style=" stroke:none;fill-rule:nonzero;fill:rgb(0%,0%,0%);fill-opacity:1;" d="M 18.667969 7.933594 C 19.441406 7.933594 20.066406 7.304688 20.066406 6.535156 C 20.066406 5.761719 19.441406 5.132812 18.667969 5.132812 C 17.894531 5.132812 17.265625 5.761719 17.265625 6.535156 C 17.265625 7.304688 17.894531 7.933594 18.667969 7.933594 Z M 18.667969 6.066406 C 18.925781 6.066406 19.132812 6.277344 19.132812 6.535156 C 19.132812 6.792969 18.925781 7 18.667969 7 C 18.410156 7 18.199219 6.792969 18.199219 6.535156 C 18.199219 6.277344 18.410156 6.066406 18.667969 6.066406 Z M 18.667969 6.066406 "/>
</g>
</svg>
