<?xml version="1.0" encoding="UTF-8"?>
<svg xmlns="http://www.w3.org/2000/svg" xmlns:xlink="http://www.w3.org/1999/xlink" width="28pt" height="28pt" viewBox="0 0 28 28" version="1.1">
<g id="surface1">
<path style=" stroke:none;fill-rule:nonzero;fill:rgb(0%,0%,0%);fill-opacity:1;" d="M 24.203125 1.265625 C 23.558594 1.265625 23.035156 1.785156 23.035156 2.429688 L 23.035156 3.402344 C 20.527344 1.21875 17.332031 0 13.925781 0 C 6.246094 0 0 6.269531 0 13.976562 C 0 14.621094 0.523438 15.144531 1.167969 15.144531 C 1.8125 15.144531 2.332031 14.621094 2.332031 13.976562 C 2.332031 7.554688 7.535156 2.332031 13.925781 2.332031 C 16.730469 2.332031 19.367188 3.324219 21.441406 5.109375 L 20.371094 5.109375 C 19.730469 5.109375 19.207031 5.632812 19.207031 6.277344 C 19.207031 6.921875 19.730469 7.441406 20.371094 7.441406 L 24.203125 7.441406 C 24.847656 7.441406 25.367188 6.921875 25.367188 6.277344 L 25.367188 2.429688 C 25.367188 1.785156 24.847656 1.265625 24.203125 1.265625 Z M 24.203125 1.265625 "/>
<path style=" stroke:none;fill-rule:nonzero;fill:rgb(0%,0%,0%);fill-opacity:1;" d="M 26.832031 12.855469 C 26.1875 12.855469 25.667969 13.378906 25.667969 14.023438 C 25.667969 20.445312 20.464844 25.667969 14.074219 25.667969 C 11.300781 25.667969 8.695312 24.699219 6.628906 22.953125 L 7.75 22.953125 C 8.394531 22.953125 8.917969 22.429688 8.917969 21.789062 C 8.917969 21.144531 8.394531 20.621094 7.75 20.621094 L 3.921875 20.621094 C 3.910156 20.621094 3.902344 20.625 3.890625 20.625 C 3.847656 20.625 3.804688 20.628906 3.757812 20.636719 C 3.726562 20.640625 3.695312 20.644531 3.660156 20.652344 C 3.625 20.660156 3.585938 20.675781 3.546875 20.6875 C 3.511719 20.699219 3.476562 20.710938 3.441406 20.726562 C 3.410156 20.742188 3.378906 20.757812 3.347656 20.777344 C 3.3125 20.796875 3.277344 20.816406 3.242188 20.84375 C 3.234375 20.847656 3.222656 20.851562 3.214844 20.859375 C 3.195312 20.875 3.179688 20.894531 3.160156 20.910156 C 3.128906 20.9375 3.097656 20.964844 3.070312 20.992188 C 3.046875 21.023438 3.023438 21.050781 3 21.082031 C 2.976562 21.109375 2.953125 21.140625 2.933594 21.171875 C 2.914062 21.203125 2.894531 21.238281 2.878906 21.273438 C 2.863281 21.304688 2.847656 21.339844 2.832031 21.375 C 2.820312 21.410156 2.808594 21.445312 2.800781 21.484375 C 2.789062 21.519531 2.78125 21.554688 2.773438 21.589844 C 2.765625 21.632812 2.765625 21.675781 2.761719 21.714844 C 2.757812 21.742188 2.753906 21.761719 2.753906 21.789062 L 2.753906 25.632812 C 2.753906 26.277344 3.277344 26.800781 3.921875 26.800781 C 4.566406 26.800781 5.085938 26.277344 5.085938 25.632812 L 5.085938 24.707031 C 7.574219 26.824219 10.722656 28 14.074219 28 C 21.753906 28 28 21.730469 28 14.023438 C 28 13.378906 27.476562 12.855469 26.832031 12.855469 Z M 26.832031 12.855469 "/>
</g>
</svg>
