<?xml version="1.0" encoding="UTF-8"?>
<svg xmlns="http://www.w3.org/2000/svg" xmlns:xlink="http://www.w3.org/1999/xlink" width="28pt" height="28pt" viewBox="0 0 28 28" version="1.1">
<g id="surface1">
<path style=" stroke:none;fill-rule:nonzero;fill:rgb(0%,0%,0%);fill-opacity:1;" d="M 14 0 C 6.269531 0 0 6.269531 0 14 C 0 21.730469 6.269531 28 14 28 C 21.730469 28 28 21.730469 28 14 C 28 6.269531 21.730469 0 14 0 Z M 14 25.667969 C 7.558594 25.667969 2.332031 20.441406 2.332031 14 C 2.332031 7.558594 7.558594 2.332031 14 2.332031 C 20.441406 2.332031 25.667969 7.558594 25.667969 14 C 25.667969 20.441406 20.441406 25.667969 14 25.667969 Z M 14 25.667969 "/>
<path style=" stroke:none;fill-rule:nonzero;fill:rgb(0%,0%,0%);fill-opacity:1;" d="M 17.160156 7.339844 C 16.703125 6.886719 15.964844 6.886719 15.507812 7.339844 L 9.675781 13.175781 C 9.21875 13.628906 9.21875 14.371094 9.675781 14.824219 L 15.507812 20.660156 C 15.964844 21.113281 16.703125 21.113281 17.160156 20.660156 C 17.613281 20.203125 17.613281 19.464844 17.160156 19.007812 L 12.148438 14 L 17.160156 8.992188 C 17.613281 8.535156 17.613281 7.796875 17.160156 7.339844 Z M 17.160156 7.339844 "/>
</g>
</svg>
