<?xml version="1.0" encoding="UTF-8"?>
<svg xmlns="http://www.w3.org/2000/svg" xmlns:xlink="http://www.w3.org/1999/xlink" width="28pt" height="28pt" viewBox="0 0 28 28" version="1.1">
<g id="surface1">
<path style=" stroke:none;fill-rule:nonzero;fill:rgb(0%,0%,0%);fill-opacity:1;" d="M 26.789062 12.789062 L 4.136719 12.789062 L 9.542969 7.382812 C 10.015625 6.910156 10.015625 6.140625 9.542969 5.667969 C 9.070312 5.195312 8.300781 5.195312 7.828125 5.667969 L 0.355469 13.144531 C -0.117188 13.617188 -0.117188 14.382812 0.355469 14.855469 L 7.828125 22.332031 C 8.066406 22.566406 8.375 22.6875 8.6875 22.6875 C 8.996094 22.6875 9.304688 22.566406 9.542969 22.332031 C 10.015625 21.859375 10.015625 21.089844 9.542969 20.617188 L 4.136719 15.210938 L 26.789062 15.210938 C 27.457031 15.210938 28 14.667969 28 14 C 28 13.332031 27.457031 12.789062 26.789062 12.789062 Z M 26.789062 12.789062 "/>
</g>
</svg>
