<?xml version="1.0" encoding="UTF-8"?>
<svg xmlns="http://www.w3.org/2000/svg" xmlns:xlink="http://www.w3.org/1999/xlink" width="28pt" height="28pt" viewBox="0 0 28 28" version="1.1">
<g id="surface1">
<path style=" stroke:none;fill-rule:nonzero;fill:rgb(0%,0%,0%);fill-opacity:1;" d="M 24.425781 7.421875 C 23.539062 6.632812 18.828125 2.496094 16.140625 0.78125 C 15.6875 0.304688 15.054688 0 14.34375 0 C 13.632812 0 13 0.304688 12.546875 0.78125 C 9.859375 2.496094 5.148438 6.632812 4.265625 7.421875 L 0.492188 7.421875 L 0.492188 28.195312 L 27.699219 28.195312 L 27.699219 7.421875 Z M 15.441406 1.484375 C 15.445312 1.488281 15.445312 1.492188 15.449219 1.492188 C 15.570312 1.628906 15.703125 1.835938 15.777344 2.101562 C 15.78125 2.121094 15.792969 2.140625 15.792969 2.160156 C 15.8125 2.253906 15.828125 2.363281 15.828125 2.472656 C 15.828125 3.292969 15.164062 3.957031 14.34375 3.957031 C 13.527344 3.957031 12.859375 3.292969 12.859375 2.472656 C 12.859375 2.363281 12.875 2.253906 12.894531 2.160156 C 12.902344 2.136719 12.910156 2.121094 12.914062 2.101562 C 12.984375 1.835938 13.121094 1.628906 13.238281 1.492188 C 13.242188 1.492188 13.242188 1.488281 13.246094 1.484375 C 13.515625 1.179688 13.90625 0.988281 14.34375 0.988281 C 14.78125 0.988281 15.171875 1.179688 15.441406 1.484375 Z M 11.871094 2.449219 C 11.871094 2.457031 11.871094 2.464844 11.871094 2.472656 C 11.871094 3.835938 12.980469 4.945312 14.34375 4.945312 C 15.707031 4.945312 16.816406 3.835938 16.816406 2.472656 C 16.816406 2.464844 16.816406 2.457031 16.816406 2.449219 C 18.878906 3.949219 21.519531 6.199219 22.921875 7.421875 L 5.765625 7.421875 C 7.171875 6.199219 9.808594 3.949219 11.871094 2.449219 Z M 25.722656 26.214844 L 2.472656 26.214844 L 2.472656 9.398438 L 25.722656 9.398438 Z M 25.722656 26.214844 "/>
<path style=" stroke:none;fill-rule:nonzero;fill:rgb(0%,0%,0%);fill-opacity:1;" d="M 14.78125 21.003906 L 17.160156 23.382812 C 17.351562 23.578125 17.351562 23.890625 17.160156 24.085938 C 16.964844 24.273438 16.652344 24.273438 16.460938 24.085938 L 11.363281 18.988281 L 4.277344 25.226562 L 24.730469 25.226562 L 24.730469 20.992188 L 19.324219 16.035156 Z M 14.78125 21.003906 "/>
<path style=" stroke:none;fill-rule:nonzero;fill:rgb(0%,0%,0%);fill-opacity:1;" d="M 11.734375 17.960938 L 14.082031 20.304688 L 18.925781 15 C 19.015625 14.902344 19.136719 14.84375 19.269531 14.839844 C 19.398438 14.832031 19.527344 14.878906 19.621094 14.972656 L 24.730469 19.648438 L 24.730469 10.386719 L 3.464844 10.386719 L 3.464844 24.628906 L 11.058594 17.941406 C 11.253906 17.765625 11.550781 17.777344 11.734375 17.960938 Z M 7.421875 17.382812 C 5.902344 17.382812 4.664062 16.144531 4.664062 14.625 C 4.664062 13.105469 5.902344 11.871094 7.421875 11.871094 C 8.941406 11.871094 10.175781 13.105469 10.175781 14.625 C 10.175781 16.144531 8.941406 17.382812 7.421875 17.382812 Z M 7.421875 17.382812 "/>
</g>
</svg>
