<?xml version="1.0" encoding="UTF-8"?>
<svg xmlns="http://www.w3.org/2000/svg" xmlns:xlink="http://www.w3.org/1999/xlink" width="28pt" height="28pt" viewBox="0 0 28 28" version="1.1">
<g id="surface1">
<path style=" stroke:none;fill-rule:nonzero;fill:rgb(0%,0%,0%);fill-opacity:1;" d="M 2.457031 26.035156 L 25.542969 26.035156 L 25.542969 9.332031 L 2.457031 9.332031 Z M 24.5625 25.050781 L 4.25 25.050781 L 11.285156 18.859375 L 16.34375 23.917969 C 16.539062 24.109375 16.847656 24.109375 17.039062 23.917969 C 17.230469 23.726562 17.230469 23.414062 17.039062 23.222656 L 14.679688 20.863281 L 19.1875 15.921875 L 24.5625 20.847656 Z M 3.4375 10.316406 L 24.5625 10.316406 L 24.5625 19.515625 L 19.488281 14.867188 C 19.394531 14.777344 19.265625 14.726562 19.136719 14.738281 C 19.007812 14.742188 18.882812 14.800781 18.796875 14.898438 L 13.984375 20.167969 L 11.65625 17.835938 C 11.46875 17.652344 11.175781 17.644531 10.980469 17.816406 L 3.4375 24.457031 Z M 3.4375 10.316406 "/>
<path style=" stroke:none;fill-rule:nonzero;fill:rgb(0%,0%,0%);fill-opacity:1;" d="M 7.367188 11.789062 C 5.859375 11.789062 4.632812 13.015625 4.632812 14.523438 C 4.632812 16.03125 5.859375 17.261719 7.367188 17.261719 C 8.878906 17.261719 10.105469 16.03125 10.105469 14.523438 C 10.105469 13.015625 8.878906 11.789062 7.367188 11.789062 Z M 7.367188 16.277344 C 6.402344 16.277344 5.613281 15.492188 5.613281 14.527344 C 5.613281 13.558594 6.402344 12.773438 7.367188 12.773438 C 8.335938 12.773438 9.121094 13.558594 9.121094 14.523438 C 9.121094 15.492188 8.335938 16.277344 7.367188 16.277344 Z M 7.367188 16.277344 "/>
<path style=" stroke:none;fill-rule:nonzero;fill:rgb(0%,0%,0%);fill-opacity:1;" d="M 24.257812 7.367188 C 23.378906 6.589844 18.699219 2.476562 16.03125 0.777344 C 15.582031 0.300781 14.949219 0 14.246094 0 C 13.542969 0 12.910156 0.300781 12.460938 0.777344 C 9.792969 2.476562 5.113281 6.589844 4.234375 7.367188 L 0.492188 7.367188 L 0.492188 28 L 27.507812 28 L 27.507812 7.367188 Z M 12.804688 2.144531 C 12.808594 2.125 12.820312 2.105469 12.824219 2.085938 C 12.894531 1.820312 13.027344 1.617188 13.148438 1.484375 C 13.152344 1.480469 13.152344 1.476562 13.15625 1.476562 C 13.425781 1.175781 13.8125 0.984375 14.246094 0.984375 C 14.679688 0.984375 15.066406 1.175781 15.335938 1.476562 C 15.339844 1.476562 15.339844 1.480469 15.34375 1.484375 C 15.460938 1.617188 15.59375 1.824219 15.667969 2.085938 C 15.671875 2.105469 15.679688 2.125 15.683594 2.148438 C 15.707031 2.242188 15.71875 2.34375 15.71875 2.457031 C 15.71875 3.269531 15.058594 3.929688 14.246094 3.929688 C 13.433594 3.929688 12.773438 3.269531 12.773438 2.457031 C 12.773438 2.34375 12.785156 2.242188 12.804688 2.144531 Z M 11.789062 2.429688 C 11.789062 2.441406 11.789062 2.449219 11.789062 2.457031 C 11.789062 3.808594 12.890625 4.914062 14.246094 4.914062 C 15.601562 4.914062 16.703125 3.808594 16.703125 2.457031 C 16.703125 2.449219 16.703125 2.441406 16.703125 2.429688 C 18.75 3.921875 21.371094 6.15625 22.765625 7.367188 L 5.726562 7.367188 C 7.121094 6.15625 9.742188 3.921875 11.789062 2.429688 Z M 26.527344 27.015625 L 1.472656 27.015625 L 1.472656 8.351562 L 26.527344 8.351562 Z M 26.527344 27.015625 "/>
</g>
</svg>
