<?xml version="1.0" encoding="UTF-8"?>
<svg xmlns="http://www.w3.org/2000/svg" xmlns:xlink="http://www.w3.org/1999/xlink" width="28pt" height="28pt" viewBox="0 0 28 28" version="1.1">
<g id="surface1">
<path style=" stroke:none;fill-rule:nonzero;fill:rgb(0%,0%,0%);fill-opacity:1;" d="M 4.960938 19.507812 L 1.671875 19.507812 C 1.671875 19.507812 0 19.507812 0 22.054688 C 0.078125 23.703125 1.363281 23.964844 1.59375 23.964844 C 1.824219 23.964844 8.285156 23.964844 8.285156 23.964844 C 8.285156 23.964844 9.964844 23.96875 10.039062 21.957031 C 10.039062 21.878906 10.046875 21.953125 10.046875 21.878906 C 10.050781 21.578125 10.046875 20.042969 10.046875 20.042969 C 10.050781 19.828125 10.21875 19.578125 10.441406 19.578125 L 15.683594 19.578125 C 15.761719 19.578125 15.828125 19.640625 15.835938 19.71875 L 17.074219 22.515625 C 17.535156 23.664062 18.433594 24.503906 19.933594 23.960938 C 21.351562 23.453125 21.425781 22.328125 21.175781 21.535156 L 18.097656 12.203125 C 17.632812 11.097656 16.46875 10.453125 15.007812 10.453125 L 7.789062 10.453125 C 3.882812 10.453125 0.605469 15.007812 5.042969 19.382812 C 5.074219 19.453125 5.039062 19.507812 4.960938 19.507812 Z M 4.960938 19.507812 "/>
<path style=" stroke:none;fill-rule:nonzero;fill:rgb(0%,0%,0%);fill-opacity:1;" d="M 27.96875 8.6875 C 27.96875 11.363281 25.796875 13.535156 23.117188 13.535156 C 20.441406 13.535156 18.269531 11.363281 18.269531 8.6875 C 18.269531 6.007812 20.441406 3.839844 23.117188 3.839844 C 25.796875 3.839844 27.96875 6.007812 27.96875 8.6875 Z M 27.96875 8.6875 "/>
</g>
</svg>
