<?xml version="1.0" encoding="UTF-8"?>
<svg xmlns="http://www.w3.org/2000/svg" xmlns:xlink="http://www.w3.org/1999/xlink" width="28pt" height="28pt" viewBox="0 0 28 28" version="1.1">
<g id="surface1">
<path style=" stroke:none;fill-rule:nonzero;fill:rgb(0%,0%,0%);fill-opacity:1;" d="M 23.167969 0 L 18.414062 5.761719 C 17.109375 5.019531 15.546875 4.652344 13.945312 4.652344 C 12.332031 4.652344 10.820312 5.027344 9.507812 5.78125 L 4.855469 0 L 4.851562 14.476562 C 4.828125 14.855469 4.851562 15.242188 4.851562 15.640625 C 4.851562 21.179688 7.109375 25.933594 10.34375 27.980469 C 8.523438 25.632812 6.945312 23.085938 7.675781 20.609375 C 11.863281 20.441406 12.304688 20.417969 12.304688 20.417969 L 13.785156 21.625 L 15.601562 20.417969 C 18.644531 20.441406 20.082031 20.503906 20.082031 20.503906 C 20.269531 22.054688 20 25.457031 17.398438 28.007812 C 20.652344 25.976562 22.957031 21.207031 22.957031 15.644531 C 22.957031 15.253906 22.941406 14.875 22.941406 14.507812 Z M 11.898438 16.324219 C 11.460938 16.5 10.480469 17.078125 10.027344 17.21875 C 9.574219 17.359375 8.945312 17.445312 8.699219 17.21875 C 8.453125 16.988281 7.667969 16.238281 7.511719 16.0625 C 7.351562 15.886719 7.246094 14.488281 8.175781 14.5625 C 9.117188 14.632812 11.667969 15.679688 11.828125 15.730469 C 11.984375 15.785156 12.335938 16.152344 11.898438 16.324219 Z M 20.25 16.0625 C 20.09375 16.238281 19.304688 16.988281 19.0625 17.21875 C 18.816406 17.445312 18.1875 17.359375 17.734375 17.21875 C 17.277344 17.078125 16.300781 16.5 15.863281 16.324219 C 15.425781 16.152344 15.773438 15.785156 15.933594 15.730469 C 16.089844 15.679688 18.640625 14.632812 19.585938 14.5625 C 20.511719 14.488281 20.40625 15.886719 20.25 16.0625 Z M 20.25 16.0625 "/>
</g>
</svg>
