<?xml version="1.0" encoding="UTF-8"?>
<svg xmlns="http://www.w3.org/2000/svg" xmlns:xlink="http://www.w3.org/1999/xlink" width="28pt" height="28pt" viewBox="0 0 28 28" version="1.1">
<g id="surface1">
<path style=" stroke:none;fill-rule:nonzero;fill:rgb(0%,0%,0%);fill-opacity:1;" d="M 23.253906 0 L 21.324219 0 C 20.417969 0 19.683594 0.734375 19.683594 1.640625 L 19.683594 4.742188 C 19.683594 4.992188 19.480469 5.195312 19.230469 5.195312 L 8.769531 5.195312 C 8.519531 5.195312 8.316406 4.992188 8.316406 4.742188 L 8.316406 1.640625 C 8.316406 0.734375 7.582031 0 6.675781 0 L 4.746094 0 C 3.839844 0 3.105469 0.734375 3.105469 1.640625 L 3.105469 22.257812 C 3.105469 25.425781 5.679688 28 8.847656 28 L 19.152344 28 C 22.320312 28 24.894531 25.425781 24.894531 22.257812 L 24.894531 1.640625 C 24.894531 0.734375 24.160156 0 23.253906 0 Z M 23.253906 22.257812 C 23.253906 24.519531 21.414062 26.359375 19.152344 26.359375 L 8.847656 26.359375 C 6.585938 26.359375 4.746094 24.519531 4.746094 22.257812 L 4.746094 1.640625 L 6.675781 1.640625 L 6.675781 4.742188 C 6.675781 5.894531 7.613281 6.835938 8.769531 6.835938 L 19.230469 6.835938 C 20.382812 6.835938 21.324219 5.894531 21.324219 4.742188 L 21.324219 1.640625 L 23.253906 1.640625 Z M 23.253906 22.257812 "/>
<path style=" stroke:none;fill-rule:nonzero;fill:rgb(0%,0%,0%);fill-opacity:1;" d="M 18.566406 12.78125 C 18.128906 11.78125 17.183594 11.132812 16.101562 11.085938 C 16.058594 11.085938 16.015625 11.085938 15.96875 11.085938 C 15.246094 11.085938 14.554688 11.328125 14 11.761719 C 13.445312 11.328125 12.753906 11.085938 12.03125 11.085938 C 11.984375 11.085938 11.941406 11.085938 11.898438 11.085938 C 10.816406 11.132812 9.871094 11.78125 9.433594 12.78125 C 8.984375 13.800781 9.152344 14.960938 9.871094 15.804688 L 12.519531 18.917969 C 12.890625 19.351562 13.429688 19.601562 14 19.601562 C 14.570312 19.601562 15.113281 19.351562 15.480469 18.917969 L 18.128906 15.804688 C 18.847656 14.960938 19.015625 13.800781 18.566406 12.78125 Z M 16.878906 14.742188 L 14.230469 17.851562 C 14.152344 17.945312 14.050781 17.960938 14 17.960938 C 13.949219 17.960938 13.847656 17.945312 13.769531 17.855469 L 11.121094 14.742188 C 10.808594 14.375 10.738281 13.886719 10.933594 13.4375 C 11.121094 13.011719 11.507812 12.746094 11.964844 12.726562 C 11.988281 12.726562 12.007812 12.726562 12.03125 12.726562 C 12.546875 12.726562 13.03125 12.980469 13.320312 13.410156 C 13.472656 13.636719 13.726562 13.773438 14 13.773438 C 14.273438 13.773438 14.527344 13.636719 14.679688 13.410156 C 14.96875 12.980469 15.453125 12.726562 15.96875 12.726562 C 15.992188 12.726562 16.011719 12.726562 16.035156 12.726562 C 16.492188 12.746094 16.878906 13.011719 17.066406 13.4375 C 17.261719 13.886719 17.191406 14.375 16.878906 14.742188 Z M 16.878906 14.742188 "/>
</g>
</svg>
