<?xml version="1.0" encoding="UTF-8"?>
<svg xmlns="http://www.w3.org/2000/svg" xmlns:xlink="http://www.w3.org/1999/xlink" width="28pt" height="28pt" viewBox="0 0 28 28" version="1.1">
<g id="surface1">
<path style=" stroke:none;fill-rule:nonzero;fill:rgb(0%,0%,0%);fill-opacity:1;" d="M 27.441406 22.421875 L 24.457031 22.421875 L 24.457031 12.046875 L 25.851562 12.046875 L 25.851562 18.964844 C 25.851562 19.273438 26.101562 19.523438 26.410156 19.523438 C 26.71875 19.523438 26.96875 19.273438 26.96875 18.964844 L 26.96875 12.046875 L 27.441406 12.046875 C 27.75 12.046875 28 11.796875 28 11.488281 C 28 11.183594 27.75 10.933594 27.441406 10.933594 L 21.976562 10.933594 L 21.976562 2.84375 C 21.976562 2.535156 21.726562 2.285156 21.417969 2.285156 L 6.582031 2.285156 C 6.273438 2.285156 6.023438 2.535156 6.023438 2.84375 L 6.023438 10.933594 L 0.558594 10.933594 C 0.25 10.933594 0 11.183594 0 11.488281 C 0 11.796875 0.25 12.046875 0.558594 12.046875 L 1.03125 12.046875 L 1.03125 22.421875 L 0.558594 22.421875 C 0.25 22.421875 0 22.671875 0 22.980469 L 0 25.15625 C 0 25.464844 0.25 25.714844 0.558594 25.714844 L 27.441406 25.714844 C 27.75 25.714844 28 25.464844 28 25.15625 L 28 22.980469 C 28 22.671875 27.75 22.421875 27.441406 22.421875 Z M 21.976562 12.046875 L 23.34375 12.046875 L 23.34375 22.421875 L 21.976562 22.421875 Z M 7.140625 3.402344 L 20.859375 3.402344 L 20.859375 10.933594 L 19.519531 10.933594 L 19.519531 5.410156 C 19.519531 5.101562 19.269531 4.851562 18.960938 4.851562 L 9.039062 4.851562 C 8.730469 4.851562 8.480469 5.101562 8.480469 5.410156 L 8.480469 10.933594 L 7.140625 10.933594 Z M 20.859375 12.046875 L 20.859375 22.421875 L 19.519531 22.421875 L 19.519531 12.046875 Z M 14.53125 10.933594 L 14.53125 5.96875 L 18.402344 5.96875 L 18.402344 10.933594 Z M 18.402344 12.046875 L 18.402344 22.421875 L 17.039062 22.421875 L 17.039062 12.046875 Z M 15.925781 12.046875 L 15.925781 22.421875 L 14.53125 22.421875 L 14.53125 12.046875 Z M 9.597656 10.933594 L 9.597656 5.96875 L 13.414062 5.96875 L 13.414062 10.933594 Z M 13.414062 12.046875 L 13.414062 22.421875 L 12.074219 22.421875 L 12.074219 12.046875 Z M 10.960938 12.046875 L 10.960938 22.421875 L 9.597656 22.421875 L 9.597656 12.046875 Z M 7.140625 12.046875 L 8.480469 12.046875 L 8.480469 22.421875 L 7.140625 22.421875 Z M 4.601562 12.046875 L 6.023438 12.046875 L 6.023438 22.421875 L 4.601562 22.421875 Z M 2.148438 12.046875 L 3.484375 12.046875 L 3.484375 22.421875 L 2.148438 22.421875 Z M 26.882812 24.597656 L 1.117188 24.597656 L 1.117188 23.539062 L 26.882812 23.539062 Z M 26.882812 24.597656 "/>
<path style=" stroke:none;fill-rule:nonzero;fill:rgb(0%,0%,0%);fill-opacity:1;" d="M 26.410156 20.191406 C 26.101562 20.191406 25.851562 20.441406 25.851562 20.75 L 25.851562 21.140625 C 25.851562 21.449219 26.101562 21.695312 26.410156 21.695312 C 26.71875 21.695312 26.96875 21.449219 26.96875 21.140625 L 26.96875 20.75 C 26.96875 20.441406 26.71875 20.191406 26.410156 20.191406 Z M 26.410156 20.191406 "/>
</g>
</svg>
