<?xml version="1.0" encoding="UTF-8"?>
<svg xmlns="http://www.w3.org/2000/svg" xmlns:xlink="http://www.w3.org/1999/xlink" width="28pt" height="28pt" viewBox="0 0 28 28" version="1.1">
<g id="surface1">
<path style=" stroke:none;fill-rule:nonzero;fill:rgb(0%,0%,0%);fill-opacity:1;" d="M 6.441406 0.847656 C 4.046875 0.847656 2.097656 2.792969 2.097656 5.1875 C 2.097656 7.582031 4.046875 9.53125 6.441406 9.53125 C 8.835938 9.53125 10.785156 7.582031 10.785156 5.1875 C 10.785156 2.792969 8.835938 0.847656 6.441406 0.847656 Z M 6.441406 0.847656 "/>
<path style=" stroke:none;fill-rule:nonzero;fill:rgb(0%,0%,0%);fill-opacity:1;" d="M 12.738281 11.9375 C 12.582031 11.707031 12.324219 11.570312 12.046875 11.570312 L 0.835938 11.570312 C 0.558594 11.570312 0.296875 11.707031 0.144531 11.9375 C -0.0117188 12.167969 -0.0429688 12.460938 0.0625 12.71875 L 5.664062 26.628906 C 5.792969 26.945312 6.101562 27.152344 6.441406 27.152344 C 6.78125 27.152344 7.089844 26.945312 7.21875 26.628906 L 12.820312 12.71875 C 12.925781 12.460938 12.894531 12.167969 12.738281 11.9375 Z M 12.738281 11.9375 "/>
<path style=" stroke:none;fill-rule:nonzero;fill:rgb(0%,0%,0%);fill-opacity:1;" d="M 21.558594 0.847656 C 19.164062 0.847656 17.214844 2.792969 17.214844 5.1875 C 17.214844 7.582031 19.164062 9.53125 21.558594 9.53125 C 23.953125 9.53125 25.902344 7.582031 25.902344 5.1875 C 25.902344 2.792969 23.953125 0.847656 21.558594 0.847656 Z M 21.558594 0.847656 "/>
<path style=" stroke:none;fill-rule:nonzero;fill:rgb(0%,0%,0%);fill-opacity:1;" d="M 27.9375 26.003906 L 22.335938 12.09375 C 22.207031 11.777344 21.898438 11.570312 21.558594 11.570312 C 21.21875 11.570312 20.910156 11.777344 20.78125 12.09375 L 15.179688 26.003906 C 15.074219 26.261719 15.105469 26.554688 15.261719 26.785156 C 15.417969 27.015625 15.675781 27.152344 15.953125 27.152344 L 27.164062 27.152344 C 27.441406 27.152344 27.703125 27.015625 27.855469 26.785156 C 28.011719 26.554688 28.042969 26.261719 27.9375 26.003906 Z M 27.9375 26.003906 "/>
</g>
</svg>
