<?xml version="1.0" encoding="UTF-8"?>
<svg xmlns="http://www.w3.org/2000/svg" xmlns:xlink="http://www.w3.org/1999/xlink" width="28pt" height="28pt" viewBox="0 0 28 28" version="1.1">
<g id="surface1">
<path style=" stroke:none;fill-rule:nonzero;fill:rgb(0%,0%,0%);fill-opacity:1;" d="M 27.453125 12.429688 L 1.910156 12.429688 L 1.910156 3.085938 C 1.910156 2.523438 2.367188 2.0625 2.929688 2.0625 L 5.613281 2.0625 C 6.179688 2.0625 6.636719 2.523438 6.636719 3.085938 L 6.636719 4.488281 C 5.265625 4.734375 4.222656 5.9375 4.222656 7.378906 L 4.222656 8.179688 L 4.144531 8.179688 C 3.839844 8.179688 3.597656 8.425781 3.597656 8.726562 C 3.597656 9.027344 3.839844 9.273438 4.144531 9.273438 L 10.183594 9.273438 C 10.484375 9.273438 10.730469 9.027344 10.730469 8.726562 C 10.730469 8.425781 10.484375 8.179688 10.183594 8.179688 L 10.101562 8.179688 L 10.101562 7.378906 C 10.101562 5.953125 9.082031 4.761719 7.730469 4.496094 L 7.730469 3.085938 C 7.730469 1.917969 6.78125 0.96875 5.613281 0.96875 L 2.929688 0.96875 C 1.765625 0.96875 0.816406 1.917969 0.816406 3.085938 L 0.816406 12.429688 L 0.546875 12.429688 C 0.246094 12.429688 0 12.671875 0 12.976562 L 0 15.59375 C 0 15.898438 0.246094 16.140625 0.546875 16.140625 L 0.816406 16.140625 L 0.816406 20.503906 C 0.816406 22.296875 1.890625 23.84375 3.429688 24.535156 C 3.40625 24.660156 3.394531 24.789062 3.394531 24.917969 C 3.394531 26.082031 4.34375 27.03125 5.507812 27.03125 C 6.671875 27.03125 7.617188 26.085938 7.621094 24.921875 L 20.378906 24.921875 C 20.382812 26.085938 21.328125 27.03125 22.492188 27.03125 C 23.65625 27.03125 24.605469 26.082031 24.605469 24.917969 C 24.605469 24.789062 24.59375 24.660156 24.570312 24.535156 C 26.109375 23.84375 27.183594 22.296875 27.183594 20.503906 L 27.183594 16.140625 L 27.453125 16.140625 C 27.753906 16.140625 28 15.898438 28 15.59375 L 28 12.976562 C 28 12.671875 27.753906 12.429688 27.453125 12.429688 Z M 7.164062 5.53125 C 8.179688 5.53125 9.007812 6.359375 9.007812 7.378906 L 9.007812 8.179688 L 5.316406 8.179688 L 5.316406 7.378906 C 5.316406 6.359375 6.144531 5.53125 7.164062 5.53125 Z M 24.605469 16.140625 L 26.089844 16.140625 L 26.089844 17.054688 L 24.605469 17.054688 Z M 17.679688 13.523438 L 23.511719 13.523438 L 23.511719 18.429688 C 23.511719 18.9375 23.097656 19.351562 22.589844 19.351562 L 18.601562 19.351562 C 18.09375 19.351562 17.679688 18.9375 17.679688 18.429688 Z M 1.09375 13.523438 L 16.585938 13.523438 L 16.585938 15.046875 L 1.09375 15.046875 Z M 5.507812 25.9375 C 4.945312 25.9375 4.488281 25.480469 4.488281 24.917969 C 4.488281 24.898438 4.488281 24.878906 4.488281 24.859375 C 4.503906 24.863281 4.519531 24.863281 4.535156 24.867188 C 4.554688 24.871094 4.578125 24.871094 4.597656 24.875 C 4.644531 24.882812 4.691406 24.886719 4.738281 24.894531 C 4.765625 24.898438 4.789062 24.898438 4.8125 24.902344 C 4.859375 24.90625 4.90625 24.910156 4.957031 24.914062 C 4.976562 24.914062 5 24.914062 5.023438 24.917969 C 5.089844 24.917969 5.160156 24.921875 5.230469 24.921875 L 6.527344 24.921875 C 6.523438 25.480469 6.066406 25.9375 5.507812 25.9375 Z M 22.492188 25.9375 C 21.933594 25.9375 21.476562 25.480469 21.472656 24.921875 L 22.769531 24.921875 C 22.839844 24.921875 22.910156 24.917969 22.980469 24.917969 C 23 24.914062 23.023438 24.914062 23.042969 24.914062 C 23.09375 24.910156 23.140625 24.90625 23.1875 24.902344 C 23.210938 24.898438 23.238281 24.898438 23.261719 24.894531 C 23.308594 24.886719 23.355469 24.882812 23.402344 24.875 C 23.421875 24.871094 23.445312 24.871094 23.464844 24.867188 C 23.480469 24.863281 23.496094 24.863281 23.511719 24.859375 C 23.511719 24.878906 23.511719 24.898438 23.511719 24.917969 C 23.511719 25.480469 23.054688 25.9375 22.492188 25.9375 Z M 26.089844 20.503906 C 26.089844 22.105469 24.953125 23.445312 23.445312 23.757812 C 23.441406 23.761719 23.433594 23.761719 23.429688 23.761719 C 23.378906 23.773438 23.328125 23.78125 23.28125 23.789062 C 23.277344 23.789062 23.273438 23.789062 23.273438 23.789062 C 23.222656 23.796875 23.167969 23.804688 23.117188 23.808594 C 23.105469 23.8125 23.097656 23.8125 23.089844 23.8125 C 23.046875 23.816406 23.003906 23.820312 22.964844 23.820312 C 22.949219 23.824219 22.9375 23.824219 22.921875 23.824219 C 22.871094 23.828125 22.820312 23.828125 22.769531 23.828125 L 5.230469 23.828125 C 5.179688 23.828125 5.128906 23.828125 5.078125 23.824219 C 5.0625 23.824219 5.050781 23.824219 5.035156 23.820312 C 4.996094 23.820312 4.953125 23.816406 4.910156 23.8125 C 4.902344 23.8125 4.894531 23.8125 4.882812 23.808594 C 4.832031 23.804688 4.777344 23.796875 4.726562 23.789062 C 4.726562 23.789062 4.722656 23.789062 4.71875 23.789062 C 4.671875 23.78125 4.621094 23.773438 4.570312 23.761719 C 4.566406 23.761719 4.558594 23.757812 4.554688 23.757812 C 3.046875 23.445312 1.910156 22.105469 1.910156 20.503906 L 1.910156 18.148438 L 13.0625 18.148438 C 13.363281 18.148438 13.609375 17.902344 13.609375 17.601562 C 13.609375 17.296875 13.363281 17.054688 13.0625 17.054688 L 1.910156 17.054688 L 1.910156 16.140625 L 16.585938 16.140625 L 16.585938 18.429688 C 16.585938 19.542969 17.492188 20.445312 18.601562 20.445312 L 22.589844 20.445312 C 23.699219 20.445312 24.605469 19.542969 24.605469 18.429688 L 24.605469 18.148438 L 26.089844 18.148438 Z M 26.90625 15.046875 L 24.605469 15.046875 L 24.605469 13.523438 L 26.90625 13.523438 Z M 26.90625 15.046875 "/>
<path style=" stroke:none;fill-rule:nonzero;fill:rgb(0%,0%,0%);fill-opacity:1;" d="M 15.707031 17.492188 C 15.699219 17.457031 15.691406 17.425781 15.675781 17.390625 C 15.664062 17.359375 15.644531 17.324219 15.625 17.296875 C 15.605469 17.265625 15.582031 17.238281 15.558594 17.214844 C 15.53125 17.1875 15.503906 17.164062 15.476562 17.144531 C 15.445312 17.125 15.414062 17.109375 15.378906 17.09375 C 15.347656 17.082031 15.3125 17.070312 15.277344 17.0625 C 15.207031 17.050781 15.136719 17.050781 15.066406 17.0625 C 15.03125 17.070312 14.996094 17.082031 14.960938 17.09375 C 14.929688 17.109375 14.898438 17.125 14.867188 17.144531 C 14.835938 17.164062 14.808594 17.1875 14.785156 17.214844 C 14.757812 17.238281 14.738281 17.265625 14.71875 17.296875 C 14.695312 17.324219 14.679688 17.359375 14.667969 17.390625 C 14.652344 17.425781 14.640625 17.457031 14.636719 17.492188 C 14.628906 17.527344 14.625 17.566406 14.625 17.601562 C 14.625 17.742188 14.683594 17.886719 14.785156 17.988281 C 14.808594 18.011719 14.835938 18.035156 14.867188 18.054688 C 14.898438 18.074219 14.929688 18.089844 14.960938 18.105469 C 14.996094 18.117188 15.03125 18.128906 15.066406 18.136719 C 15.101562 18.144531 15.136719 18.148438 15.171875 18.148438 C 15.207031 18.148438 15.242188 18.144531 15.277344 18.136719 C 15.3125 18.128906 15.347656 18.117188 15.378906 18.105469 C 15.414062 18.089844 15.445312 18.074219 15.476562 18.054688 C 15.503906 18.035156 15.53125 18.011719 15.558594 17.988281 C 15.660156 17.886719 15.71875 17.742188 15.71875 17.601562 C 15.71875 17.566406 15.714844 17.527344 15.707031 17.492188 Z M 15.707031 17.492188 "/>
</g>
</svg>
