<?xml version="1.0" encoding="UTF-8"?>
<svg xmlns="http://www.w3.org/2000/svg" xmlns:xlink="http://www.w3.org/1999/xlink" width="28pt" height="28pt" viewBox="0 0 28 28" version="1.1">
<g id="surface1">
<path style=" stroke:none;fill-rule:nonzero;fill:rgb(0%,0%,0%);fill-opacity:1;" d="M 26.316406 16.585938 C 26.078125 14.601562 24.816406 12.921875 23.078125 12.09375 L 23.078125 10.71875 C 23.078125 9.363281 21.972656 8.257812 20.617188 8.257812 L 20.617188 5.742188 C 20.617188 3.480469 18.777344 1.640625 16.515625 1.640625 L 5.738281 1.640625 C 4.992188 0.644531 3.800781 0 2.460938 0 L 0.820312 0 C 0.367188 0 0 0.367188 0 0.820312 L 0 7.382812 C 0 7.835938 0.367188 8.203125 0.820312 8.203125 L 2.460938 8.203125 C 3.800781 8.203125 4.992188 7.558594 5.738281 6.5625 L 15.695312 6.5625 L 15.695312 8.257812 C 14.339844 8.257812 13.234375 9.363281 13.234375 10.71875 L 13.234375 12.09375 C 11.496094 12.921875 10.234375 14.601562 9.996094 16.585938 C 9.019531 16.914062 8.3125 17.835938 8.3125 18.921875 C 8.3125 20.277344 9.417969 21.382812 10.773438 21.382812 L 25.539062 21.382812 C 26.894531 21.382812 28 20.277344 28 18.921875 C 28 17.835938 27.292969 16.914062 26.316406 16.585938 Z M 2.460938 6.5625 L 1.640625 6.5625 L 1.640625 1.640625 L 2.460938 1.640625 C 3.816406 1.640625 4.921875 2.746094 4.921875 4.101562 C 4.921875 5.457031 3.816406 6.5625 2.460938 6.5625 Z M 6.480469 4.921875 C 6.535156 4.65625 6.5625 4.382812 6.5625 4.101562 C 6.5625 3.820312 6.535156 3.546875 6.480469 3.28125 L 16.515625 3.28125 C 17.871094 3.28125 18.976562 4.386719 18.976562 5.742188 L 18.976562 8.257812 L 17.335938 8.257812 L 17.335938 5.742188 C 17.335938 5.289062 16.96875 4.921875 16.515625 4.921875 Z M 14.875 10.71875 C 14.875 10.265625 15.242188 9.898438 15.695312 9.898438 C 16.503906 9.898438 20.117188 9.898438 20.617188 9.898438 C 21.070312 9.898438 21.4375 10.265625 21.4375 10.71875 L 21.4375 11.597656 C 21.167969 11.558594 20.894531 11.539062 20.617188 11.539062 L 15.695312 11.539062 C 15.417969 11.539062 15.144531 11.558594 14.875 11.597656 Z M 15.695312 13.179688 L 20.617188 13.179688 C 22.597656 13.179688 24.253906 14.589844 24.636719 16.460938 L 11.675781 16.460938 C 12.058594 14.589844 13.714844 13.179688 15.695312 13.179688 Z M 25.539062 19.742188 L 10.773438 19.742188 C 10.320312 19.742188 9.953125 19.375 9.953125 18.921875 C 9.953125 18.46875 10.320312 18.101562 10.773438 18.101562 L 25.539062 18.101562 C 25.992188 18.101562 26.359375 18.46875 26.359375 18.921875 C 26.359375 19.375 25.992188 19.742188 25.539062 19.742188 Z M 25.539062 19.742188 "/>
<path style=" stroke:none;fill-rule:nonzero;fill:rgb(0%,0%,0%);fill-opacity:1;" d="M 14.054688 23.078125 C 13.601562 23.078125 13.234375 23.445312 13.234375 23.898438 L 13.234375 25.539062 C 13.234375 25.992188 13.601562 26.359375 14.054688 26.359375 C 14.507812 26.359375 14.875 25.992188 14.875 25.539062 L 14.875 23.898438 C 14.875 23.445312 14.507812 23.078125 14.054688 23.078125 Z M 14.054688 23.078125 "/>
<path style=" stroke:none;fill-rule:nonzero;fill:rgb(0%,0%,0%);fill-opacity:1;" d="M 10.773438 24.71875 C 10.320312 24.71875 9.953125 25.085938 9.953125 25.539062 L 9.953125 27.179688 C 9.953125 27.632812 10.320312 28 10.773438 28 C 11.226562 28 11.59375 27.632812 11.59375 27.179688 L 11.59375 25.539062 C 11.59375 25.085938 11.226562 24.71875 10.773438 24.71875 Z M 10.773438 24.71875 "/>
<path style=" stroke:none;fill-rule:nonzero;fill:rgb(0%,0%,0%);fill-opacity:1;" d="M 18.15625 23.078125 C 17.703125 23.078125 17.335938 23.445312 17.335938 23.898438 L 17.335938 27.179688 C 17.335938 27.632812 17.703125 28 18.15625 28 C 18.609375 28 18.976562 27.632812 18.976562 27.179688 L 18.976562 23.898438 C 18.976562 23.445312 18.609375 23.078125 18.15625 23.078125 Z M 18.15625 23.078125 "/>
<path style=" stroke:none;fill-rule:nonzero;fill:rgb(0%,0%,0%);fill-opacity:1;" d="M 22.257812 23.078125 C 21.804688 23.078125 21.4375 23.445312 21.4375 23.898438 L 21.4375 25.539062 C 21.4375 25.992188 21.804688 26.359375 22.257812 26.359375 C 22.710938 26.359375 23.078125 25.992188 23.078125 25.539062 L 23.078125 23.898438 C 23.078125 23.445312 22.710938 23.078125 22.257812 23.078125 Z M 22.257812 23.078125 "/>
<path style=" stroke:none;fill-rule:nonzero;fill:rgb(0%,0%,0%);fill-opacity:1;" d="M 25.539062 24.71875 C 25.085938 24.71875 24.71875 25.085938 24.71875 25.539062 L 24.71875 27.179688 C 24.71875 27.632812 25.085938 28 25.539062 28 C 25.992188 28 26.359375 27.632812 26.359375 27.179688 L 26.359375 25.539062 C 26.359375 25.085938 25.992188 24.71875 25.539062 24.71875 Z M 25.539062 24.71875 "/>
</g>
</svg>
