<?xml version="1.0" encoding="UTF-8"?>
<svg xmlns="http://www.w3.org/2000/svg" xmlns:xlink="http://www.w3.org/1999/xlink" width="28pt" height="28pt" viewBox="0 0 28 28" version="1.1">
<g id="surface1">
<path style=" stroke:none;fill-rule:nonzero;fill:rgb(0%,0%,0%);fill-opacity:1;" d="M 1.023438 27.066406 C 1.023438 27.582031 1.441406 28 1.957031 28 L 11.179688 28 C 11.535156 28 11.855469 27.800781 12.015625 27.484375 L 13.292969 24.925781 L 18.867188 24.925781 C 23.339844 24.925781 26.976562 21.75 26.976562 17.84375 L 26.976562 11.695312 C 26.976562 11.179688 26.558594 10.761719 26.042969 10.761719 L 9.039062 10.761719 L 9.039062 0.933594 C 9.039062 0.417969 8.621094 0 8.105469 0 L 1.957031 0 C 1.441406 0 1.023438 0.417969 1.023438 0.933594 Z M 25.113281 12.625 L 25.113281 15.375 L 9.039062 15.375 L 9.039062 12.625 Z M 7.175781 15.375 L 2.886719 15.375 L 2.886719 1.863281 L 7.175781 1.863281 Z M 25.113281 17.84375 C 25.113281 20.722656 22.3125 23.0625 18.867188 23.0625 L 12.71875 23.0625 C 12.367188 23.0625 12.042969 23.261719 11.886719 23.578125 L 10.605469 26.136719 L 2.886719 26.136719 L 2.886719 17.246094 L 25.113281 17.246094 Z M 25.113281 17.84375 "/>
</g>
</svg>
