<?xml version="1.0" encoding="UTF-8"?>
<svg xmlns="http://www.w3.org/2000/svg" xmlns:xlink="http://www.w3.org/1999/xlink" width="28pt" height="28pt" viewBox="0 0 28 28" version="1.1">
<g id="surface1">
<path style=" stroke:none;fill-rule:nonzero;fill:rgb(0%,0%,0%);fill-opacity:1;" d="M 19.601562 0 L 8.398438 0 C 8.140625 0 7.933594 0.210938 7.933594 0.464844 L 7.933594 5.601562 C 7.933594 5.859375 8.140625 6.066406 8.398438 6.066406 L 12.601562 6.066406 L 12.601562 14.933594 C 12.601562 16.96875 12.332031 18.222656 12.023438 19.675781 C 11.636719 21.480469 11.199219 23.527344 11.199219 27.535156 C 11.199219 27.789062 11.410156 28 11.667969 28 L 16.332031 28 C 16.589844 28 16.800781 27.789062 16.800781 27.535156 C 16.800781 23.527344 16.363281 21.480469 15.976562 19.675781 C 15.667969 18.222656 15.398438 16.96875 15.398438 14.933594 L 15.398438 6.066406 L 19.601562 6.066406 C 19.859375 6.066406 20.066406 5.859375 20.066406 5.601562 L 20.066406 0.464844 C 20.066406 0.210938 19.859375 0 19.601562 0 Z M 15.863281 27.066406 L 12.136719 27.066406 C 12.167969 23.460938 12.574219 21.558594 12.933594 19.871094 C 13.242188 18.429688 13.535156 17.066406 13.535156 14.933594 L 13.535156 6.066406 L 14.464844 6.066406 L 14.464844 14.933594 C 14.464844 17.066406 14.757812 18.429688 15.066406 19.871094 C 15.425781 21.558594 15.832031 23.460938 15.863281 27.066406 Z M 19.132812 5.132812 L 8.867188 5.132812 L 8.867188 0.933594 L 19.132812 0.933594 Z M 19.132812 5.132812 "/>
</g>
</svg>
