<?xml version="1.0" encoding="UTF-8"?>
<svg xmlns="http://www.w3.org/2000/svg" xmlns:xlink="http://www.w3.org/1999/xlink" width="28pt" height="28pt" viewBox="0 0 28 28" version="1.1">
<g id="surface1">
<path style=" stroke:none;fill-rule:nonzero;fill:rgb(0%,0%,0%);fill-opacity:1;" d="M 18.453125 6.605469 L 9.546875 6.605469 C 8.234375 6.605469 7.167969 7.675781 7.167969 8.988281 L 7.167969 9.421875 C 7.167969 9.425781 7.167969 9.433594 7.167969 9.4375 L 20.832031 9.4375 C 20.832031 9.433594 20.832031 9.425781 20.832031 9.421875 L 20.832031 8.988281 C 20.832031 7.675781 19.765625 6.605469 18.453125 6.605469 Z M 18.453125 6.605469 "/>
<path style=" stroke:none;fill-rule:nonzero;fill:rgb(0%,0%,0%);fill-opacity:1;" d="M 5.847656 9.421875 L 5.847656 8.988281 C 5.847656 6.949219 7.507812 5.289062 9.546875 5.289062 L 18.453125 5.289062 C 20.492188 5.289062 22.152344 6.949219 22.152344 8.988281 L 22.152344 9.421875 C 22.152344 9.425781 22.152344 9.433594 22.152344 9.4375 L 24.222656 9.4375 L 24.222656 5.300781 C 24.222656 2.753906 22.148438 0.683594 19.601562 0.683594 L 8.398438 0.683594 C 5.851562 0.683594 3.777344 2.753906 3.777344 5.300781 L 3.777344 9.4375 L 5.847656 9.4375 C 5.847656 9.433594 5.847656 9.425781 5.847656 9.421875 Z M 5.847656 9.421875 "/>
<path style=" stroke:none;fill-rule:nonzero;fill:rgb(0%,0%,0%);fill-opacity:1;" d="M 26.066406 10.757812 L 1.933594 10.757812 C 0.867188 10.757812 0 11.625 0 12.6875 L 0 22.367188 C 0 23.433594 0.867188 24.300781 1.933594 24.300781 L 2.816406 24.300781 L 2.058594 26.4375 C 1.9375 26.78125 2.117188 27.15625 2.460938 27.277344 C 2.53125 27.304688 2.609375 27.316406 2.679688 27.316406 C 2.953125 27.316406 3.207031 27.148438 3.300781 26.878906 L 4.214844 24.300781 L 23.785156 24.300781 L 24.699219 26.878906 C 24.792969 27.148438 25.046875 27.316406 25.320312 27.316406 C 25.394531 27.316406 25.46875 27.304688 25.539062 27.277344 C 25.882812 27.15625 26.0625 26.78125 25.941406 26.4375 L 25.183594 24.300781 L 26.066406 24.300781 C 27.132812 24.300781 28 23.433594 28 22.367188 L 28 12.6875 C 28 11.625 27.132812 10.757812 26.066406 10.757812 Z M 26.066406 10.757812 "/>
</g>
</svg>
