<?xml version="1.0" encoding="UTF-8"?>
<svg xmlns="http://www.w3.org/2000/svg" xmlns:xlink="http://www.w3.org/1999/xlink" width="28pt" height="28pt" viewBox="0 0 28 28" version="1.1">
<g id="surface1">
<path style=" stroke:none;fill-rule:nonzero;fill:rgb(0%,0%,0%);fill-opacity:1;" d="M 14 4.308594 C 9.304688 4.308594 5.484375 8.003906 5.484375 12.542969 C 5.484375 15.488281 6.679688 17.242188 7.558594 18.535156 C 8.101562 19.328125 8.410156 19.800781 8.410156 20.277344 C 8.410156 21.347656 8.980469 22.351562 10 23.109375 C 10.023438 23.742188 10.117188 25.289062 10.117188 25.289062 C 10.132812 25.726562 10.367188 26.628906 11.878906 27.132812 C 12.058594 27.394531 12.289062 27.625 12.574219 27.816406 C 12.75 27.9375 12.960938 28 13.175781 28 L 14.824219 28 C 15.039062 28 15.25 27.9375 15.425781 27.816406 C 15.710938 27.625 15.945312 27.394531 16.121094 27.132812 C 17.648438 26.625 17.871094 25.714844 17.882812 25.285156 C 17.882812 25.285156 17.976562 23.742188 18.003906 23.109375 C 19.019531 22.351562 19.59375 21.347656 19.59375 20.277344 C 19.59375 19.800781 19.898438 19.328125 20.445312 18.527344 C 21.320312 17.246094 22.519531 15.492188 22.519531 12.542969 C 22.519531 8.003906 18.695312 4.308594 14 4.308594 Z M 18.660156 17.320312 C 18.03125 18.242188 17.4375 19.113281 17.4375 20.277344 C 17.4375 20.789062 16.976562 21.199219 16.632812 21.4375 L 11.371094 21.4375 C 11.023438 21.203125 10.5625 20.789062 10.5625 20.277344 C 10.5625 19.113281 9.96875 18.242188 9.332031 17.3125 C 8.539062 16.144531 7.636719 14.824219 7.636719 12.542969 C 7.636719 9.191406 10.492188 6.464844 14 6.460938 C 17.511719 6.460938 20.363281 9.191406 20.363281 12.542969 C 20.363281 14.828125 19.460938 16.148438 18.660156 17.320312 Z M 18.660156 17.320312 "/>
<path style=" stroke:none;fill-rule:nonzero;fill:rgb(0%,0%,0%);fill-opacity:1;" d="M 14 2.691406 C 14.296875 2.691406 14.539062 2.453125 14.539062 2.152344 L 14.539062 0.539062 C 14.539062 0.242188 14.296875 0 14 0 C 13.703125 0 13.460938 0.242188 13.460938 0.539062 L 13.460938 2.152344 C 13.460938 2.453125 13.703125 2.691406 14 2.691406 Z M 14 2.691406 "/>
<path style=" stroke:none;fill-rule:nonzero;fill:rgb(0%,0%,0%);fill-opacity:1;" d="M 8.28125 3.832031 C 8.378906 4.003906 8.558594 4.101562 8.746094 4.101562 C 8.835938 4.101562 8.929688 4.078125 9.015625 4.027344 C 9.273438 3.878906 9.363281 3.550781 9.210938 3.292969 L 8.40625 1.894531 C 8.253906 1.636719 7.925781 1.546875 7.667969 1.695312 C 7.410156 1.84375 7.324219 2.175781 7.472656 2.433594 Z M 8.28125 3.832031 "/>
<path style=" stroke:none;fill-rule:nonzero;fill:rgb(0%,0%,0%);fill-opacity:1;" d="M 5.167969 6.941406 L 3.769531 6.132812 C 3.511719 5.984375 3.183594 6.074219 3.035156 6.332031 C 2.886719 6.589844 2.972656 6.917969 3.230469 7.066406 L 4.628906 7.875 C 4.714844 7.921875 4.808594 7.945312 4.898438 7.945312 C 5.085938 7.945312 5.265625 7.851562 5.367188 7.675781 C 5.515625 7.421875 5.425781 7.089844 5.167969 6.941406 Z M 5.167969 6.941406 "/>
<path style=" stroke:none;fill-rule:nonzero;fill:rgb(0%,0%,0%);fill-opacity:1;" d="M 4.03125 12.664062 C 4.03125 12.367188 3.789062 12.125 3.492188 12.125 L 1.875 12.125 C 1.578125 12.125 1.339844 12.367188 1.339844 12.664062 C 1.339844 12.960938 1.578125 13.199219 1.875 13.199219 L 3.492188 13.199219 C 3.789062 13.199219 4.03125 12.960938 4.03125 12.664062 Z M 4.03125 12.664062 "/>
<path style=" stroke:none;fill-rule:nonzero;fill:rgb(0%,0%,0%);fill-opacity:1;" d="M 4.628906 17.449219 L 3.230469 18.257812 C 2.972656 18.40625 2.886719 18.734375 3.035156 18.992188 C 3.132812 19.164062 3.316406 19.261719 3.5 19.261719 C 3.589844 19.261719 3.683594 19.238281 3.769531 19.191406 L 5.167969 18.382812 C 5.425781 18.234375 5.515625 17.90625 5.367188 17.648438 C 5.21875 17.390625 4.890625 17.300781 4.628906 17.449219 Z M 4.628906 17.449219 "/>
<path style=" stroke:none;fill-rule:nonzero;fill:rgb(0%,0%,0%);fill-opacity:1;" d="M 24.769531 18.257812 L 23.371094 17.449219 C 23.113281 17.300781 22.785156 17.390625 22.636719 17.648438 C 22.488281 17.90625 22.574219 18.234375 22.832031 18.382812 L 24.230469 19.191406 C 24.316406 19.238281 24.410156 19.261719 24.5 19.261719 C 24.6875 19.261719 24.867188 19.164062 24.964844 18.992188 C 25.113281 18.738281 25.027344 18.40625 24.769531 18.257812 Z M 24.769531 18.257812 "/>
<path style=" stroke:none;fill-rule:nonzero;fill:rgb(0%,0%,0%);fill-opacity:1;" d="M 26.125 12.125 L 24.511719 12.125 C 24.210938 12.125 23.972656 12.367188 23.972656 12.660156 C 23.972656 12.960938 24.210938 13.199219 24.507812 13.199219 L 26.125 13.199219 C 26.421875 13.199219 26.664062 12.960938 26.664062 12.664062 C 26.664062 12.367188 26.421875 12.125 26.125 12.125 Z M 26.125 12.125 "/>
<path style=" stroke:none;fill-rule:nonzero;fill:rgb(0%,0%,0%);fill-opacity:1;" d="M 23.101562 7.945312 C 23.191406 7.945312 23.285156 7.921875 23.371094 7.875 L 24.769531 7.066406 C 25.027344 6.917969 25.117188 6.589844 24.96875 6.332031 C 24.816406 6.074219 24.488281 5.984375 24.230469 6.136719 L 22.832031 6.941406 C 22.574219 7.089844 22.488281 7.421875 22.632812 7.675781 C 22.734375 7.847656 22.914062 7.945312 23.101562 7.945312 Z M 23.101562 7.945312 "/>
<path style=" stroke:none;fill-rule:nonzero;fill:rgb(0%,0%,0%);fill-opacity:1;" d="M 18.984375 4.027344 C 19.070312 4.078125 19.164062 4.101562 19.253906 4.101562 C 19.441406 4.101562 19.621094 4.003906 19.722656 3.832031 L 20.527344 2.433594 C 20.675781 2.175781 20.589844 1.84375 20.332031 1.699219 C 20.074219 1.546875 19.746094 1.636719 19.59375 1.894531 L 18.789062 3.292969 C 18.640625 3.550781 18.730469 3.878906 18.984375 4.027344 Z M 18.984375 4.027344 "/>
<path style=" stroke:none;fill-rule:nonzero;fill:rgb(0%,0%,0%);fill-opacity:1;" d="M 13.277344 15.914062 C 13.34375 16.390625 13.574219 16.523438 14 16.523438 C 14.425781 16.523438 14.65625 16.390625 14.722656 15.914062 L 15.230469 12.074219 C 15.265625 11.8125 15.296875 11.550781 15.296875 11.304688 L 15.296875 9.398438 C 15.296875 8.5625 14.820312 8.136719 14 8.136719 C 13.179688 8.136719 12.703125 8.5625 12.703125 9.398438 L 12.703125 11.304688 C 12.703125 11.550781 12.734375 11.8125 12.769531 12.074219 Z M 13.277344 15.914062 "/>
<path style=" stroke:none;fill-rule:nonzero;fill:rgb(0%,0%,0%);fill-opacity:1;" d="M 14 17.589844 C 13.261719 17.589844 12.652344 18.195312 12.652344 18.933594 C 12.652344 19.671875 13.261719 20.28125 14 20.28125 C 14.738281 20.28125 15.347656 19.671875 15.347656 18.933594 C 15.347656 18.195312 14.738281 17.589844 14 17.589844 Z M 14 17.589844 "/>
</g>
</svg>
