<?xml version="1.0" encoding="UTF-8"?>
<svg xmlns="http://www.w3.org/2000/svg" xmlns:xlink="http://www.w3.org/1999/xlink" width="28pt" height="28pt" viewBox="0 0 28 28" version="1.1">
<g id="surface1">
<path style=" stroke:none;fill-rule:nonzero;fill:rgb(0%,0%,0%);fill-opacity:1;" d="M 24.417969 14.285156 L 21.363281 9.195312 C 21.496094 9.089844 21.582031 8.933594 21.582031 8.75 L 21.582031 4.082031 C 21.582031 3.761719 21.324219 3.5 21 3.5 L 20.917969 3.5 C 20.75 2.789062 20.324219 2.15625 19.703125 1.738281 L 17.828125 0.488281 C 17.347656 0.167969 16.789062 0 16.210938 0 L 11.789062 0 C 11.210938 0 10.652344 0.167969 10.171875 0.488281 L 8.296875 1.738281 C 7.675781 2.15625 7.25 2.789062 7.082031 3.5 L 7 3.5 C 6.675781 3.5 6.417969 3.761719 6.417969 4.082031 L 6.417969 8.75 C 6.417969 8.933594 6.503906 9.089844 6.636719 9.195312 L 3.582031 14.285156 C 3.417969 14.558594 3.507812 14.917969 3.78125 15.082031 C 4.058594 15.25 4.417969 15.160156 4.582031 14.882812 L 7 10.855469 L 7 18.667969 C 6.675781 18.667969 6.417969 18.925781 6.417969 19.25 L 6.417969 23.917969 C 6.417969 24.238281 6.675781 24.5 7 24.5 L 7.058594 24.5 C 7.34375 26.472656 9.03125 28 11.082031 28 L 16.917969 28 C 18.96875 28 20.65625 26.472656 20.941406 24.5 L 21 24.5 C 21.324219 24.5 21.582031 24.238281 21.582031 23.917969 L 21.582031 19.25 C 21.582031 18.925781 21.324219 18.667969 21 18.667969 L 21 10.855469 L 23.417969 14.882812 C 23.582031 15.160156 23.941406 15.25 24.21875 15.082031 C 24.492188 14.917969 24.582031 14.558594 24.417969 14.285156 Z M 9.867188 6.386719 C 10.082031 6.039062 10.453125 5.832031 10.859375 5.832031 L 17.140625 5.832031 C 17.546875 5.832031 17.917969 6.039062 18.132812 6.386719 C 18.347656 6.734375 18.367188 7.15625 18.183594 7.523438 L 17.015625 9.855469 C 16.816406 10.253906 16.417969 10.5 15.972656 10.5 L 12.027344 10.5 C 11.582031 10.5 11.183594 10.253906 10.984375 9.855469 L 9.816406 7.523438 C 9.632812 7.15625 9.652344 6.734375 9.867188 6.386719 Z M 8.167969 17.140625 L 8.167969 10.15625 L 9.332031 11.324219 L 9.332031 16.554688 Z M 18.496094 21.996094 C 18.441406 22.050781 17.121094 23.332031 14 23.332031 C 10.878906 23.332031 9.558594 22.050781 9.503906 21.996094 C 9.328125 21.816406 9.28125 21.546875 9.394531 21.324219 L 10.5625 18.988281 C 10.707031 18.703125 11.058594 18.585938 11.34375 18.726562 C 11.351562 18.734375 12.425781 19.25 14 19.25 C 15.59375 19.25 16.644531 18.734375 16.65625 18.726562 C 16.792969 18.660156 16.953125 18.648438 17.101562 18.695312 C 17.246094 18.746094 17.367188 18.851562 17.4375 18.988281 L 18.605469 21.324219 C 18.71875 21.546875 18.671875 21.816406 18.496094 21.996094 Z M 19.832031 17.140625 L 18.667969 16.554688 L 18.667969 11.324219 L 19.832031 10.15625 Z M 19.832031 17.140625 "/>
</g>
</svg>
