<?xml version="1.0" encoding="UTF-8"?>
<svg xmlns="http://www.w3.org/2000/svg" xmlns:xlink="http://www.w3.org/1999/xlink" width="28pt" height="28pt" viewBox="0 0 28 28" version="1.1">
<g id="surface1">
<path style=" stroke:none;fill-rule:nonzero;fill:rgb(0%,0%,0%);fill-opacity:1;" d="M 19.109375 3.03125 C 19.105469 3.03125 19.101562 3.03125 19.097656 3.03125 L 16.433594 3.03125 L 16.433594 4.449219 L 19.097656 4.449219 C 19.492188 4.457031 19.8125 4.140625 19.820312 3.75 C 19.820312 3.746094 19.820312 3.746094 19.820312 3.742188 C 19.820312 3.351562 19.5 3.03125 19.109375 3.03125 Z M 19.109375 3.03125 "/>
<path style=" stroke:none;fill-rule:nonzero;fill:rgb(0%,0%,0%);fill-opacity:1;" d="M 19.109375 6.085938 C 19.105469 6.085938 19.101562 6.085938 19.097656 6.085938 L 16.433594 6.085938 L 16.433594 7.5 L 19.097656 7.5 C 19.492188 7.507812 19.8125 7.191406 19.820312 6.800781 C 19.820312 6.796875 19.820312 6.796875 19.820312 6.792969 C 19.820312 6.402344 19.5 6.085938 19.109375 6.085938 Z M 19.109375 6.085938 "/>
<path style=" stroke:none;fill-rule:nonzero;fill:rgb(0%,0%,0%);fill-opacity:1;" d="M 23.050781 21.714844 C 21.9375 21.253906 20.660156 21.777344 20.199219 22.890625 C 19.859375 23.707031 20.046875 24.644531 20.667969 25.269531 C 20.871094 25.472656 21.113281 25.632812 21.375 25.742188 C 22.488281 26.203125 23.765625 25.679688 24.226562 24.566406 C 24.691406 23.453125 24.164062 22.175781 23.050781 21.714844 Z M 23.050781 21.714844 "/>
<path style=" stroke:none;fill-rule:nonzero;fill:rgb(0%,0%,0%);fill-opacity:1;" d="M 6.597656 21.714844 C 5.488281 21.253906 4.210938 21.777344 3.75 22.890625 C 3.410156 23.707031 3.59375 24.644531 4.21875 25.269531 C 4.421875 25.472656 4.660156 25.632812 4.925781 25.742188 C 6.039062 26.203125 7.3125 25.679688 7.777344 24.566406 C 8.238281 23.453125 7.710938 22.175781 6.597656 21.714844 Z M 6.597656 21.714844 "/>
<path style=" stroke:none;fill-rule:nonzero;fill:rgb(0%,0%,0%);fill-opacity:1;" d="M 22.242188 17.925781 L 22.203125 17.925781 C 22 17.9375 21.816406 17.816406 21.742188 17.628906 C 20.09375 13.34375 15.285156 11.207031 10.996094 12.855469 C 9.058594 13.601562 7.46875 15.046875 6.539062 16.910156 C 5.398438 16.507812 4.367188 15.851562 3.515625 14.992188 C 2.625 14.007812 2.15625 12.71875 2.203125 11.394531 C 2.210938 8.328125 4.699219 5.84375 7.765625 5.84375 L 8.15625 5.84375 C 8.269531 7.296875 9.476562 8.417969 10.933594 8.421875 L 14.472656 8.421875 C 14.984375 8.421875 15.398438 8.007812 15.398438 7.496094 L 15.398438 3.015625 C 15.398438 2.503906 14.984375 2.089844 14.472656 2.089844 L 10.929688 2.089844 C 9.46875 2.09375 8.253906 3.230469 8.152344 4.691406 L 7.769531 4.691406 C 4.058594 4.691406 1.050781 7.695312 1.050781 11.40625 C 1 13.019531 1.582031 14.589844 2.671875 15.78125 C 3.589844 16.71875 4.703125 17.441406 5.933594 17.902344 C 5.890625 17.914062 5.847656 17.921875 5.800781 17.921875 L 5.757812 17.921875 C 2.785156 17.929688 0.300781 20.183594 0 23.140625 C -0.00390625 23.199219 0.0390625 23.25 0.0976562 23.257812 L 0.09375 23.261719 L 2.589844 23.261719 C 2.648438 23.261719 2.695312 23.21875 2.699219 23.160156 C 2.757812 22.855469 2.859375 22.558594 3.003906 22.28125 C 3.800781 20.757812 5.683594 20.171875 7.207031 20.96875 C 8.058594 21.414062 8.65625 22.226562 8.828125 23.167969 C 8.835938 23.21875 8.878906 23.257812 8.933594 23.257812 L 19.039062 23.257812 C 19.09375 23.257812 19.140625 23.214844 19.148438 23.160156 C 19.460938 21.46875 21.085938 20.355469 22.773438 20.667969 C 23.394531 20.78125 23.964844 21.082031 24.40625 21.527344 C 24.632812 21.75 24.820312 22.007812 24.96875 22.285156 C 25.117188 22.5625 25.226562 22.863281 25.289062 23.171875 C 25.296875 23.222656 25.339844 23.261719 25.394531 23.261719 L 27.890625 23.261719 C 27.949219 23.261719 28 23.210938 28 23.152344 C 28 23.144531 28 23.140625 28 23.132812 C 27.695312 20.179688 25.210938 17.933594 22.242188 17.925781 Z M 22.242188 17.925781 "/>
</g>
</svg>
