<?xml version="1.0" encoding="UTF-8"?>
<svg xmlns="http://www.w3.org/2000/svg" xmlns:xlink="http://www.w3.org/1999/xlink" width="28pt" height="28pt" viewBox="0 0 28 28" version="1.1">
<g id="surface1">
<path style=" stroke:none;fill-rule:nonzero;fill:rgb(0%,0%,0%);fill-opacity:1;" d="M 27.015625 9.03125 C 26.914062 9.03125 26.804688 9.046875 26.699219 9.078125 L 25.492188 9.410156 L 24.242188 6.359375 C 23.886719 5.496094 22.839844 4.792969 21.90625 4.792969 L 10.1875 4.792969 C 9.238281 4.792969 8.285156 5.308594 8.011719 5.964844 C 7.960938 6.089844 7.933594 6.230469 7.925781 6.375 C 7.386719 6.179688 6.800781 6.074219 6.195312 6.074219 C 3.351562 6.074219 1.039062 8.382812 1.039062 11.226562 L 1.039062 12.574219 C 0.433594 12.796875 0 13.375 0 14.058594 L 0 21.625 C 0 22.496094 0.710938 23.207031 1.582031 23.207031 L 10.808594 23.207031 C 11.679688 23.207031 12.390625 22.496094 12.390625 21.625 L 12.390625 20.113281 L 23.179688 20.113281 L 23.179688 21.628906 C 23.179688 22.328125 23.75 22.898438 24.449219 22.898438 L 26.105469 22.898438 C 26.808594 22.898438 27.375 22.328125 27.375 21.628906 L 27.375 15.570312 C 27.375 14.703125 27.109375 13.34375 26.777344 12.539062 L 26.578125 12.046875 L 26.730469 12.046875 C 27.429688 12.046875 28 11.476562 28 10.777344 L 28 10.066406 C 28 9.46875 27.585938 9.03125 27.015625 9.03125 Z M 7.683594 17.480469 C 7.632812 17.882812 7.136719 18.65625 7.09375 19.058594 C 7 19.878906 7.019531 20.550781 6.195312 20.550781 C 5.371094 20.550781 5.386719 19.878906 5.296875 19.058594 C 5.253906 18.65625 4.757812 17.882812 4.703125 17.480469 C 4.597656 16.664062 5.371094 15.992188 6.195312 15.992188 C 7.019531 15.992188 7.792969 16.664062 7.683594 17.480469 Z M 10.046875 12.476562 L 2.34375 12.476562 L 2.34375 11.226562 C 2.34375 9.101562 4.070312 7.375 6.195312 7.375 C 8.316406 7.375 10.046875 9.101562 10.046875 11.226562 Z M 9.292969 7.109375 C 9.308594 7.015625 9.332031 6.925781 9.367188 6.84375 L 9.40625 6.746094 C 9.617188 6.230469 10.25 5.804688 10.808594 5.804688 L 21.285156 5.804688 C 21.84375 5.804688 22.476562 6.230469 22.6875 6.746094 L 24.582031 11.359375 C 24.792969 11.875 24.511719 12.296875 23.953125 12.296875 L 11.597656 12.296875 C 11.511719 12.296875 11.429688 12.289062 11.347656 12.277344 L 11.347656 11.226562 C 11.347656 9.546875 10.539062 8.050781 9.292969 7.109375 Z M 24.933594 17.191406 C 24.933594 17.472656 24.703125 17.699219 24.425781 17.699219 L 20.828125 17.699219 C 20.550781 17.699219 20.320312 17.472656 20.320312 17.191406 L 20.320312 15.464844 C 20.320312 15.1875 20.550781 14.957031 20.828125 14.957031 L 24.425781 14.957031 C 24.703125 14.957031 24.933594 15.1875 24.933594 15.464844 Z M 24.933594 17.191406 "/>
</g>
</svg>
