<?xml version="1.0" encoding="UTF-8"?>
<svg xmlns="http://www.w3.org/2000/svg" xmlns:xlink="http://www.w3.org/1999/xlink" width="28pt" height="28pt" viewBox="0 0 28 28" version="1.1">
<g id="surface1">
<path style=" stroke:none;fill-rule:nonzero;fill:rgb(0%,0%,0%);fill-opacity:1;" d="M 6.089844 5.203125 C 6.089844 6.179688 5.296875 6.972656 4.320312 6.972656 C 3.34375 6.972656 2.550781 6.179688 2.550781 5.203125 C 2.550781 4.226562 3.34375 3.433594 4.320312 3.433594 C 5.296875 3.433594 6.089844 4.226562 6.089844 5.203125 Z M 6.089844 5.203125 "/>
<path style=" stroke:none;fill-rule:nonzero;fill:rgb(0%,0%,0%);fill-opacity:1;" d="M 12.136719 12.382812 L 8.804688 11.230469 L 7.492188 8.640625 C 7.148438 7.960938 6.457031 7.535156 5.691406 7.535156 C 5.269531 7.535156 2.449219 7.535156 2.035156 7.535156 C 0.929688 7.535156 0.00390625 8.4375 0 9.546875 L 0 15.820312 C -0.00390625 16.289062 0.363281 16.675781 0.832031 16.675781 C 0.835938 16.675781 0.835938 16.675781 0.839844 16.675781 C 1.308594 16.675781 1.707031 16.296875 1.707031 15.828125 L 1.707031 9.554688 C 1.707031 9.457031 1.804688 9.375 1.902344 9.375 C 2 9.378906 2.082031 9.457031 2.082031 9.554688 C 2.078125 12.148438 2.0625 17.8125 2.0625 23.910156 C 2.0625 24.472656 2.519531 24.933594 3.085938 24.933594 C 3.652344 24.933594 4.113281 24.472656 4.113281 23.910156 L 4.113281 15.71875 L 4.554688 15.71875 L 4.554688 23.90625 C 4.554688 24.472656 5.011719 24.933594 5.578125 24.933594 C 6.144531 24.933594 6.601562 24.472656 6.601562 23.90625 L 6.601562 15.71875 L 6.605469 15.71875 C 6.605469 14.746094 6.605469 11.621094 6.605469 10.664062 L 7.441406 12.308594 C 7.539062 12.507812 7.710938 12.65625 7.921875 12.730469 L 11.578125 13.996094 C 12.023438 14.148438 12.511719 13.914062 12.664062 13.46875 C 12.820312 13.019531 12.582031 12.535156 12.136719 12.382812 Z M 12.136719 12.382812 "/>
<path style=" stroke:none;fill-rule:nonzero;fill:rgb(0%,0%,0%);fill-opacity:1;" d="M 12.890625 3.066406 C 12.558594 3.066406 12.289062 3.335938 12.289062 3.667969 L 12.289062 6.074219 C 12.289062 6.40625 12.558594 6.675781 12.890625 6.675781 C 13.21875 6.675781 13.488281 6.40625 13.488281 6.074219 L 13.488281 3.667969 C 13.488281 3.335938 13.21875 3.066406 12.890625 3.066406 Z M 12.890625 3.066406 "/>
<path style=" stroke:none;fill-rule:nonzero;fill:rgb(0%,0%,0%);fill-opacity:1;" d="M 11.4375 5.425781 L 9.734375 3.722656 C 9.5 3.488281 9.121094 3.488281 8.886719 3.722656 C 8.652344 3.957031 8.652344 4.335938 8.886719 4.570312 L 10.589844 6.273438 C 10.824219 6.507812 11.203125 6.507812 11.4375 6.273438 C 11.671875 6.039062 11.671875 5.660156 11.4375 5.425781 Z M 11.4375 5.425781 "/>
<path style=" stroke:none;fill-rule:nonzero;fill:rgb(0%,0%,0%);fill-opacity:1;" d="M 11.070312 7.136719 L 8.664062 7.136719 C 8.332031 7.136719 8.0625 7.402344 8.0625 7.734375 C 8.0625 8.066406 8.332031 8.335938 8.664062 8.335938 L 11.070312 8.335938 C 11.402344 8.335938 11.671875 8.066406 11.671875 7.734375 C 11.671875 7.402344 11.402344 7.136719 11.070312 7.136719 Z M 11.070312 7.136719 "/>
<path style=" stroke:none;fill-rule:nonzero;fill:rgb(0%,0%,0%);fill-opacity:1;" d="M 26.875 14.601562 L 25.679688 8.183594 C 25.617188 7.84375 25.320312 7.597656 24.972656 7.597656 L 12.96875 7.597656 C 12.625 7.597656 12.328125 7.84375 12.261719 8.183594 L 11.664062 11.386719 L 12.394531 11.636719 C 12.632812 11.71875 12.839844 11.851562 13.007812 12.019531 L 13.566406 9.035156 L 17.546875 9.035156 C 17.453125 9.1875 17.464844 9.3125 17.464844 9.441406 C 17.464844 9.757812 17.71875 10.011719 18.035156 10.011719 L 19.90625 10.011719 C 20.222656 10.011719 20.480469 9.757812 20.480469 9.441406 C 20.480469 9.3125 20.488281 9.1875 20.394531 9.035156 L 24.375 9.035156 L 25.285156 13.886719 C 25.019531 13.851562 24.917969 13.886719 24.222656 13.886719 C 24.136719 12.652344 23.105469 11.671875 21.851562 11.671875 C 20.597656 11.671875 19.566406 12.652344 19.480469 13.886719 L 13.34375 13.886719 C 12.992188 14.640625 12.125 15.015625 11.320312 14.738281 L 11.027344 14.636719 C 10.363281 15.207031 9.941406 16.050781 9.941406 16.996094 L 9.941406 20.542969 C 9.941406 21.1875 10.464844 21.710938 11.109375 21.710938 L 11.410156 21.710938 L 11.410156 23.234375 C 11.410156 24.171875 12.171875 24.933594 13.109375 24.933594 C 14.046875 24.933594 14.808594 24.171875 14.808594 23.234375 L 14.808594 21.710938 L 16.34375 21.710938 L 16.34375 22.269531 C 16.34375 22.601562 16.609375 22.867188 16.941406 22.867188 L 21.003906 22.867188 C 21.332031 22.867188 21.601562 22.601562 21.601562 22.269531 L 21.601562 21.710938 L 23.136719 21.710938 L 23.136719 23.234375 C 23.136719 24.171875 23.894531 24.933594 24.832031 24.933594 C 25.769531 24.933594 26.53125 24.171875 26.53125 23.234375 L 26.53125 21.710938 L 26.832031 21.710938 C 27.476562 21.710938 28 21.1875 28 20.542969 L 28 16.996094 C 28 16.035156 27.5625 15.171875 26.875 14.601562 Z M 13.066406 19.363281 C 12.242188 19.363281 11.574219 18.699219 11.574219 17.875 C 11.574219 17.050781 12.242188 16.382812 13.066406 16.382812 C 13.886719 16.382812 14.554688 17.050781 14.554688 17.875 C 14.554688 18.699219 13.886719 19.363281 13.066406 19.363281 Z M 20.648438 20.53125 L 17.296875 20.53125 C 16.996094 20.53125 16.753906 20.289062 16.753906 19.992188 C 16.753906 19.691406 16.996094 19.449219 17.296875 19.449219 L 20.648438 19.449219 C 20.945312 19.449219 21.1875 19.691406 21.1875 19.992188 C 21.1875 20.289062 20.945312 20.53125 20.648438 20.53125 Z M 21.542969 18.46875 L 16.402344 18.46875 C 16.101562 18.46875 15.859375 18.222656 15.859375 17.925781 C 15.859375 17.625 16.101562 17.382812 16.402344 17.382812 L 21.542969 17.382812 C 21.839844 17.382812 22.082031 17.625 22.082031 17.925781 C 22.082031 18.222656 21.839844 18.46875 21.542969 18.46875 Z M 20.683594 13.886719 C 20.769531 13.3125 21.257812 12.871094 21.851562 12.871094 C 22.445312 12.871094 22.9375 13.3125 23.019531 13.886719 Z M 24.878906 19.363281 C 24.054688 19.363281 23.386719 18.699219 23.386719 17.875 C 23.386719 17.050781 24.054688 16.382812 24.878906 16.382812 C 25.699219 16.382812 26.367188 17.050781 26.367188 17.875 C 26.367188 18.699219 25.699219 19.363281 24.878906 19.363281 Z M 24.878906 19.363281 "/>
</g>
</svg>
