<?xml version="1.0" encoding="UTF-8"?>
<svg xmlns="http://www.w3.org/2000/svg" xmlns:xlink="http://www.w3.org/1999/xlink" width="28pt" height="28pt" viewBox="0 0 28 28" version="1.1">
<g id="surface1">
<path style=" stroke:none;fill-rule:nonzero;fill:rgb(0%,0%,0%);fill-opacity:1;" d="M 5.75 8.738281 C 5.234375 9.246094 5.121094 10.273438 5.429688 11.722656 C 5.441406 11.785156 5.457031 11.898438 5.472656 12.046875 C 6.523438 11.804688 8.027344 11.609375 10.144531 11.609375 L 10.316406 11.609375 C 10.390625 11.609375 10.457031 11.609375 10.527344 11.609375 L 10.585938 11.4375 L 7.578125 11.464844 L 7.304688 10.050781 L 10.933594 10.25 L 10.875 11.015625 C 11.308594 10.699219 13 9.757812 17.65625 9.757812 L 17.828125 9.757812 C 20.34375 9.757812 21.992188 10.03125 23.046875 10.335938 C 23.050781 9.605469 22.886719 9.0625 22.554688 8.738281 L 22.714844 8.425781 L 24.382812 8.261719 L 24.382812 6.722656 C 24.375 6.722656 24.367188 6.722656 24.359375 6.722656 L 22.789062 6.722656 L 21.867188 7.679688 L 20.804688 4.523438 L 20.796875 4.5 C 20.796875 4.5 19.46875 3.289062 14.238281 3.289062 C 14.210938 3.289062 14.179688 3.289062 14.152344 3.289062 C 14.125 3.289062 14.09375 3.289062 14.066406 3.289062 C 8.835938 3.289062 7.507812 4.5 7.507812 4.5 L 7.5 4.523438 L 6.441406 7.679688 L 5.515625 6.722656 L 3.945312 6.722656 C 3.9375 6.722656 3.929688 6.722656 3.921875 6.722656 L 3.921875 8.261719 L 5.589844 8.425781 Z M 8.429688 5.003906 C 8.574219 4.917969 8.929688 4.753906 9.753906 4.609375 C 10.808594 4.417969 12.261719 4.324219 14.066406 4.324219 C 14.09375 4.324219 14.125 4.324219 14.152344 4.324219 C 14.183594 4.324219 14.210938 4.324219 14.238281 4.324219 C 16.042969 4.324219 17.496094 4.417969 18.550781 4.609375 C 19.375 4.753906 19.734375 4.917969 19.875 5.003906 L 20.996094 8.34375 L 7.308594 8.34375 Z M 8.429688 5.003906 "/>
<path style=" stroke:none;fill-rule:nonzero;fill:rgb(0%,0%,0%);fill-opacity:1;" d="M 18.792969 17.242188 L 20.464844 17.078125 L 20.464844 15.539062 C 20.457031 15.539062 20.449219 15.539062 20.441406 15.539062 L 18.867188 15.539062 L 17.945312 16.496094 L 16.886719 13.339844 L 16.875 13.320312 C 16.875 13.320312 15.546875 12.105469 10.316406 12.105469 C 10.289062 12.105469 10.261719 12.105469 10.230469 12.105469 C 10.203125 12.105469 10.175781 12.105469 10.144531 12.105469 C 4.917969 12.105469 3.585938 13.320312 3.585938 13.320312 L 3.578125 13.339844 L 2.519531 16.496094 L 1.59375 15.539062 L 0.0234375 15.539062 C 0.015625 15.539062 0.0078125 15.539062 0 15.539062 L 0 17.078125 L 1.667969 17.242188 L 1.832031 17.554688 C 1.3125 18.0625 1.199219 19.09375 1.507812 20.542969 C 1.53125 20.652344 1.566406 20.9375 1.570312 21.289062 L 1.570312 24.605469 C 1.570312 24.648438 1.609375 24.6875 1.652344 24.6875 L 4.253906 24.6875 C 4.296875 24.6875 4.335938 24.648438 4.335938 24.605469 L 4.335938 21.949219 L 16.128906 21.949219 L 16.128906 24.605469 C 16.128906 24.648438 16.164062 24.6875 16.210938 24.6875 L 18.808594 24.6875 C 18.855469 24.6875 18.890625 24.648438 18.890625 24.605469 L 18.890625 21.289062 C 18.894531 20.9375 18.933594 20.652344 18.957031 20.542969 C 19.261719 19.09375 19.148438 18.0625 18.632812 17.554688 Z M 6.921875 20.253906 L 3.65625 20.28125 L 3.382812 18.867188 L 7.011719 19.066406 Z M 3.390625 17.160156 L 4.507812 13.820312 C 4.652344 13.734375 5.007812 13.570312 5.832031 13.425781 C 6.890625 13.238281 8.339844 13.140625 10.144531 13.140625 C 10.175781 13.140625 10.203125 13.140625 10.230469 13.140625 C 10.261719 13.140625 10.289062 13.140625 10.316406 13.140625 C 12.125 13.140625 13.574219 13.238281 14.628906 13.425781 C 15.453125 13.570312 15.8125 13.734375 15.953125 13.820312 L 17.074219 17.160156 Z M 16.808594 20.28125 L 13.542969 20.253906 L 13.449219 19.066406 L 17.078125 18.867188 Z M 16.808594 20.28125 "/>
<path style=" stroke:none;fill-rule:nonzero;fill:rgb(0%,0%,0%);fill-opacity:1;" d="M 27.976562 15.226562 L 27.976562 13.6875 C 27.96875 13.6875 27.960938 13.6875 27.953125 13.6875 L 26.378906 13.6875 L 25.457031 14.648438 L 24.398438 11.492188 L 24.386719 11.46875 C 24.386719 11.46875 23.058594 10.253906 17.828125 10.253906 C 17.800781 10.253906 17.773438 10.253906 17.742188 10.253906 C 17.714844 10.253906 17.6875 10.253906 17.65625 10.253906 C 12.429688 10.253906 11.097656 11.46875 11.097656 11.46875 L 11.089844 11.492188 L 11.046875 11.617188 C 11.664062 11.632812 12.222656 11.664062 12.730469 11.707031 C 12.898438 11.664062 13.101562 11.617188 13.34375 11.574219 C 14.402344 11.386719 15.851562 11.289062 17.65625 11.289062 C 17.6875 11.289062 17.714844 11.289062 17.742188 11.289062 C 17.773438 11.289062 17.800781 11.289062 17.828125 11.289062 C 19.636719 11.289062 21.085938 11.386719 22.144531 11.574219 C 22.964844 11.722656 23.324219 11.882812 23.464844 11.96875 L 24.585938 15.308594 L 20.957031 15.308594 L 20.957031 15.539062 L 20.949219 17.214844 L 24.59375 17.015625 L 24.320312 18.429688 L 21.054688 18.402344 L 20.988281 17.515625 L 19.335938 17.6875 C 19.628906 18.265625 19.695312 19.074219 19.539062 20.097656 L 23.640625 20.097656 L 23.640625 22.753906 C 23.640625 22.800781 23.679688 22.835938 23.722656 22.835938 L 26.320312 22.835938 C 26.367188 22.835938 26.402344 22.800781 26.402344 22.753906 L 26.402344 19.4375 C 26.40625 19.085938 26.445312 18.804688 26.46875 18.691406 C 26.773438 17.242188 26.664062 16.210938 26.144531 15.703125 L 26.308594 15.394531 Z M 27.976562 15.226562 "/>
</g>
</svg>
