<?xml version="1.0" encoding="UTF-8"?>
<svg xmlns="http://www.w3.org/2000/svg" xmlns:xlink="http://www.w3.org/1999/xlink" width="28pt" height="28pt" viewBox="0 0 28 28" version="1.1">
<g id="surface1">
<path style=" stroke:none;fill-rule:nonzero;fill:rgb(0%,0%,0%);fill-opacity:1;" d="M 22.988281 24.265625 L 20.511719 15.789062 C 20.410156 15.4375 20.089844 15.199219 19.726562 15.199219 L 14.847656 15.199219 L 14.847656 4.808594 L 15.535156 4.808594 C 16.972656 4.808594 18.144531 3.640625 18.144531 2.199219 L 18.144531 0.820312 C 18.144531 0.367188 17.777344 0 17.324219 0 L 10.730469 0 C 10.277344 0 9.910156 0.367188 9.910156 0.820312 L 9.910156 2.199219 C 9.910156 3.640625 11.082031 4.808594 12.519531 4.808594 L 13.207031 4.808594 L 13.207031 15.199219 L 8.328125 15.199219 C 7.964844 15.199219 7.640625 15.4375 7.539062 15.789062 L 5.0625 24.265625 C 4.992188 24.511719 5.039062 24.78125 5.195312 24.988281 C 5.351562 25.195312 5.59375 25.316406 5.851562 25.316406 L 11.035156 25.316406 C 11.171875 26.816406 12.433594 28 13.972656 28 L 14.082031 28 C 15.617188 28 16.882812 26.816406 17.015625 25.316406 L 22.203125 25.316406 C 22.460938 25.316406 22.703125 25.195312 22.859375 24.988281 C 23.011719 24.78125 23.0625 24.511719 22.988281 24.265625 Z M 11.550781 2.199219 L 11.550781 1.640625 L 16.503906 1.640625 L 16.503906 2.199219 C 16.503906 2.734375 16.066406 3.167969 15.535156 3.167969 L 12.519531 3.167969 C 11.984375 3.167969 11.550781 2.734375 11.550781 2.199219 Z M 6.945312 23.675781 L 8.941406 16.839844 L 19.109375 16.839844 L 21.109375 23.675781 Z M 14.082031 26.359375 L 13.972656 26.359375 C 13.339844 26.359375 12.8125 25.910156 12.691406 25.316406 L 15.363281 25.316406 C 15.238281 25.910156 14.710938 26.359375 14.082031 26.359375 Z M 14.082031 26.359375 "/>
</g>
</svg>
