<?xml version="1.0" encoding="UTF-8"?>
<svg xmlns="http://www.w3.org/2000/svg" xmlns:xlink="http://www.w3.org/1999/xlink" width="28pt" height="28pt" viewBox="0 0 28 28" version="1.1">
<g id="surface1">
<path style=" stroke:none;fill-rule:nonzero;fill:rgb(0%,0%,0%);fill-opacity:1;" d="M 25.070312 17.878906 L 15.398438 7.785156 L 15.398438 6.066406 C 15.398438 5.476562 15.023438 4.949219 14.464844 4.75 L 14.464844 0.464844 C 14.464844 0.207031 14.257812 0 14 0 C 13.742188 0 13.535156 0.207031 13.535156 0.464844 L 13.535156 4.753906 C 12.976562 4.949219 12.601562 5.476562 12.601562 6.066406 L 12.601562 7.785156 L 2.929688 17.878906 C 2.75 18.0625 2.757812 18.359375 2.945312 18.535156 C 3.03125 18.621094 3.144531 18.667969 3.265625 18.667969 L 12.171875 18.667969 C 12.34375 19.730469 13.097656 20.535156 14 20.535156 C 14.902344 20.535156 15.65625 19.730469 15.828125 18.667969 L 24.734375 18.667969 C 24.992188 18.667969 25.199219 18.457031 25.199219 18.199219 C 25.199219 18.078125 25.152344 17.964844 25.070312 17.878906 Z M 13.535156 6.066406 C 13.535156 5.808594 13.742188 5.601562 14 5.601562 C 14.125 5.597656 14.246094 5.652344 14.332031 5.742188 C 14.417969 5.828125 14.46875 5.945312 14.464844 6.066406 L 14.464844 7.464844 L 13.535156 7.464844 Z M 14 19.601562 C 13.601562 19.601562 13.257812 19.203125 13.125 18.667969 L 14.875 18.667969 C 14.742188 19.203125 14.398438 19.601562 14 19.601562 Z M 4.359375 17.734375 L 13.304688 8.398438 L 14.695312 8.398438 L 23.640625 17.734375 Z M 4.359375 17.734375 "/>
<path style=" stroke:none;fill-rule:nonzero;fill:rgb(0%,0%,0%);fill-opacity:1;" d="M 14 21.464844 C 13.742188 21.464844 13.535156 21.675781 13.535156 21.933594 L 13.535156 27.535156 C 13.535156 27.792969 13.742188 28 14 28 C 14.257812 28 14.464844 27.792969 14.464844 27.535156 L 14.464844 21.933594 C 14.464844 21.675781 14.257812 21.464844 14 21.464844 Z M 14 21.464844 "/>
<path style=" stroke:none;fill-rule:nonzero;fill:rgb(0%,0%,0%);fill-opacity:1;" d="M 11.042969 20.5 C 11.039062 20.503906 11.035156 20.507812 11.03125 20.511719 L 7.070312 24.46875 C 6.882812 24.648438 6.878906 24.945312 7.058594 25.128906 C 7.238281 25.316406 7.53125 25.320312 7.71875 25.140625 C 7.722656 25.136719 7.726562 25.132812 7.730469 25.128906 L 11.691406 21.167969 C 11.875 20.992188 11.878906 20.695312 11.703125 20.511719 C 11.523438 20.324219 11.226562 20.320312 11.042969 20.5 Z M 11.042969 20.5 "/>
<path style=" stroke:none;fill-rule:nonzero;fill:rgb(0%,0%,0%);fill-opacity:1;" d="M 16.96875 20.511719 C 16.789062 20.324219 16.496094 20.320312 16.308594 20.5 C 16.125 20.675781 16.121094 20.972656 16.296875 21.160156 C 16.300781 21.164062 16.304688 21.167969 16.308594 21.167969 L 20.269531 25.128906 C 20.457031 25.308594 20.75 25.304688 20.929688 25.117188 C 21.105469 24.9375 21.105469 24.652344 20.929688 24.46875 Z M 16.96875 20.511719 "/>
<path style=" stroke:none;fill-rule:nonzero;fill:rgb(0%,0%,0%);fill-opacity:1;" d="M 12.601562 10.265625 C 12.601562 10.523438 12.808594 10.734375 13.066406 10.734375 L 14.933594 10.734375 C 15.191406 10.734375 15.398438 10.523438 15.398438 10.265625 C 15.398438 10.007812 15.191406 9.800781 14.933594 9.800781 L 13.066406 9.800781 C 12.808594 9.800781 12.601562 10.007812 12.601562 10.265625 Z M 12.601562 10.265625 "/>
</g>
</svg>
