<?xml version="1.0" encoding="UTF-8"?>
<svg xmlns="http://www.w3.org/2000/svg" xmlns:xlink="http://www.w3.org/1999/xlink" width="28pt" height="28pt" viewBox="0 0 28 28" version="1.1">
<g id="surface1">
<path style=" stroke:none;fill-rule:nonzero;fill:rgb(0%,0%,0%);fill-opacity:1;" d="M 26.304688 18.976562 C 26.304688 15.164062 23.402344 12.019531 19.6875 11.632812 C 19.34375 9.105469 17.34375 7.09375 14.820312 6.730469 L 14.820312 0 L 13.179688 0 L 13.179688 6.730469 C 10.65625 7.09375 8.65625 9.105469 8.3125 11.632812 C 4.597656 12.019531 1.695312 15.164062 1.695312 18.976562 L 1.695312 19.796875 L 9.980469 19.796875 C 10.363281 21.667969 12.019531 23.078125 14 23.078125 C 15.980469 23.078125 17.636719 21.667969 18.019531 19.796875 L 26.304688 19.796875 Z M 14 8.3125 C 15.980469 8.3125 17.636719 9.722656 18.019531 11.59375 L 9.980469 11.59375 C 10.363281 9.722656 12.019531 8.3125 14 8.3125 Z M 14 21.4375 C 12.929688 21.4375 12.019531 20.75 11.679688 19.796875 L 16.320312 19.796875 C 15.980469 20.75 15.070312 21.4375 14 21.4375 Z M 3.394531 18.15625 C 3.792969 15.378906 6.191406 13.234375 9.078125 13.234375 L 18.921875 13.234375 C 21.808594 13.234375 24.207031 15.378906 24.605469 18.15625 Z M 3.394531 18.15625 "/>
<path style=" stroke:none;fill-rule:nonzero;fill:rgb(0%,0%,0%);fill-opacity:1;" d="M 13.179688 24.71875 L 14.820312 24.71875 L 14.820312 28 L 13.179688 28 Z M 13.179688 24.71875 "/>
<path style=" stroke:none;fill-rule:nonzero;fill:rgb(0%,0%,0%);fill-opacity:1;" d="M 19.800781 25.257812 L 18.640625 26.417969 L 16.320312 24.097656 L 17.480469 22.9375 Z M 19.800781 25.257812 "/>
<path style=" stroke:none;fill-rule:nonzero;fill:rgb(0%,0%,0%);fill-opacity:1;" d="M 9.359375 26.417969 L 8.199219 25.257812 L 10.519531 22.9375 L 11.679688 24.097656 Z M 9.359375 26.417969 "/>
</g>
</svg>
