<?xml version="1.0" encoding="UTF-8"?>
<svg xmlns="http://www.w3.org/2000/svg" xmlns:xlink="http://www.w3.org/1999/xlink" width="28pt" height="28pt" viewBox="0 0 28 28" version="1.1">
<g id="surface1">
<path style=" stroke:none;fill-rule:nonzero;fill:rgb(0%,0%,0%);fill-opacity:1;" d="M 27.675781 8.9375 C 24.125 5.382812 19.382812 3.230469 14 3.230469 C 8.617188 3.230469 3.769531 5.382812 0.324219 8.9375 C 0.109375 9.152344 0 9.371094 0 9.691406 C 0 10.015625 0.109375 10.230469 0.324219 10.445312 L 1.832031 11.953125 C 2.261719 12.382812 2.90625 12.382812 3.339844 11.953125 C 6.03125 9.261719 9.800781 7.539062 14 7.539062 C 18.199219 7.539062 21.96875 9.261719 24.660156 11.953125 C 25.09375 12.382812 25.738281 12.382812 26.167969 11.953125 L 27.675781 10.445312 C 27.890625 10.230469 28 10.015625 28 9.691406 C 28 9.371094 27.890625 9.046875 27.675781 8.9375 Z M 27.675781 8.9375 "/>
<path style=" stroke:none;fill-rule:nonzero;fill:rgb(0%,0%,0%);fill-opacity:1;" d="M 14 11.847656 C 10.984375 11.847656 8.398438 13.03125 6.460938 14.96875 C 6.03125 15.398438 6.03125 16.046875 6.460938 16.476562 L 7.96875 17.984375 C 8.398438 18.414062 9.046875 18.414062 9.476562 17.984375 C 10.660156 16.800781 12.277344 16.152344 14 16.152344 C 15.722656 16.152344 17.339844 16.90625 18.523438 17.984375 C 18.953125 18.414062 19.601562 18.414062 20.03125 17.984375 L 21.539062 16.476562 C 21.96875 16.046875 21.96875 15.398438 21.539062 14.96875 C 19.601562 13.03125 17.015625 11.847656 14 11.847656 Z M 14 11.847656 "/>
<path style=" stroke:none;fill-rule:nonzero;fill:rgb(0%,0%,0%);fill-opacity:1;" d="M 16.152344 22.617188 C 16.152344 23.804688 15.191406 24.769531 14 24.769531 C 12.808594 24.769531 11.847656 23.804688 11.847656 22.617188 C 11.847656 21.425781 12.808594 20.460938 14 20.460938 C 15.191406 20.460938 16.152344 21.425781 16.152344 22.617188 Z M 16.152344 22.617188 "/>
</g>
</svg>
