<?xml version="1.0" encoding="UTF-8"?>
<svg xmlns="http://www.w3.org/2000/svg" xmlns:xlink="http://www.w3.org/1999/xlink" width="14pt" height="14pt" viewBox="0 0 14 14" version="1.1">
<g id="surface1">
<path style=" stroke:none;fill-rule:nonzero;fill:rgb(0%,0%,0%);fill-opacity:1;" d="M 13.835938 4.46875 C 12.0625 2.691406 9.691406 1.617188 7 1.617188 C 4.308594 1.617188 1.882812 2.691406 0.164062 4.46875 C 0.0546875 4.578125 0 4.6875 0 4.84375 C 0 5.007812 0.0546875 5.117188 0.164062 5.222656 L 0.914062 5.976562 C 1.132812 6.191406 1.453125 6.191406 1.671875 5.976562 C 3.015625 4.632812 4.898438 3.769531 7 3.769531 C 9.101562 3.769531 10.984375 4.632812 12.328125 5.976562 C 12.546875 6.191406 12.867188 6.191406 13.085938 5.976562 L 13.835938 5.222656 C 13.945312 5.117188 14 5.007812 14 4.84375 C 14 4.6875 13.945312 4.523438 13.835938 4.46875 Z M 13.835938 4.46875 "/>
<path style=" stroke:none;fill-rule:nonzero;fill:rgb(0%,0%,0%);fill-opacity:1;" d="M 7 5.921875 C 5.492188 5.921875 4.199219 6.515625 3.230469 7.484375 C 3.015625 7.699219 3.015625 8.023438 3.230469 8.238281 L 3.984375 8.992188 C 4.199219 9.207031 4.523438 9.207031 4.738281 8.992188 C 5.328125 8.398438 6.140625 8.078125 7 8.078125 C 7.859375 8.078125 8.671875 8.453125 9.261719 8.992188 C 9.476562 9.207031 9.800781 9.207031 10.015625 8.992188 L 10.769531 8.238281 C 10.984375 8.023438 10.984375 7.699219 10.769531 7.484375 C 9.800781 6.515625 8.507812 5.921875 7 5.921875 Z M 7 5.921875 "/>
<path style=" stroke:none;fill-rule:nonzero;fill:rgb(0%,0%,0%);fill-opacity:1;" d="M 8.078125 11.308594 C 8.078125 11.902344 7.59375 12.382812 7 12.382812 C 6.40625 12.382812 5.921875 11.902344 5.921875 11.308594 C 5.921875 10.710938 6.40625 10.230469 7 10.230469 C 7.59375 10.230469 8.078125 10.710938 8.078125 11.308594 Z M 8.078125 11.308594 "/>
</g>
</svg>
