<?xml version="1.0" encoding="UTF-8"?>
<svg xmlns="http://www.w3.org/2000/svg" xmlns:xlink="http://www.w3.org/1999/xlink" width="28pt" height="28pt" viewBox="0 0 28 28" version="1.1">
<g id="surface1">
<path style=" stroke:none;fill-rule:nonzero;fill:rgb(0%,0%,0%);fill-opacity:1;" d="M 25.539062 11.355469 C 26.894531 11.355469 28 10.253906 28 8.894531 C 28 7.539062 26.894531 6.433594 25.539062 6.433594 C 25.113281 6.433594 24.710938 6.542969 24.359375 6.738281 L 16.9375 1.160156 C 15.339844 -0.109375 12.992188 -0.0273438 11.492188 1.476562 L 8.871094 4.09375 C 6.46875 3.621094 3.953125 4.371094 2.210938 6.117188 L 1.628906 6.695312 L 12.070312 17.136719 L 12.652344 16.558594 C 14.394531 14.8125 15.148438 12.296875 14.671875 9.894531 L 17.292969 7.277344 C 18.089844 6.476562 18.488281 5.429688 18.492188 4.378906 L 23.261719 7.964844 C 23.144531 8.253906 23.078125 8.566406 23.078125 8.894531 C 23.078125 9.457031 23.269531 9.976562 23.585938 10.390625 L 17.914062 19.628906 C 17.726562 19.585938 17.535156 19.558594 17.335938 19.558594 C 15.980469 19.558594 14.875 20.664062 14.875 22.019531 L 14.875 22.839844 L 13.234375 22.839844 L 13.234375 21.199219 L 11.59375 21.199219 L 11.59375 22.925781 C 9.722656 23.304688 8.3125 24.960938 8.3125 26.941406 L 8.3125 27.761719 L 26.359375 27.761719 L 26.359375 26.941406 C 26.359375 24.679688 24.519531 22.839844 22.257812 22.839844 L 19.796875 22.839844 L 19.796875 22.019531 C 19.796875 21.457031 19.605469 20.941406 19.289062 20.527344 L 24.960938 11.289062 C 25.148438 11.332031 25.339844 11.355469 25.539062 11.355469 Z M 25.539062 8.074219 C 25.992188 8.074219 26.359375 8.445312 26.359375 8.894531 C 26.359375 9.347656 25.992188 9.714844 25.539062 9.714844 C 25.085938 9.714844 24.71875 9.347656 24.71875 8.894531 C 24.71875 8.445312 25.085938 8.074219 25.539062 8.074219 Z M 12.027344 14.773438 L 3.992188 6.738281 C 4.457031 6.390625 4.96875 6.121094 5.503906 5.929688 L 12.835938 13.261719 C 12.644531 13.800781 12.375 14.3125 12.027344 14.773438 Z M 16.132812 6.117188 L 12.855469 9.390625 L 12.976562 9.847656 C 13.105469 10.320312 13.167969 10.800781 13.171875 11.277344 L 7.492188 5.597656 C 7.96875 5.601562 8.449219 5.664062 8.917969 5.789062 L 9.375 5.910156 L 12.652344 2.636719 C 13.613281 1.675781 15.167969 1.671875 16.132812 2.636719 C 17.089844 3.59375 17.089844 5.15625 16.132812 6.117188 Z M 24.578125 26.121094 L 10.09375 26.121094 C 10.433594 25.167969 11.34375 24.480469 12.414062 24.480469 L 22.257812 24.480469 C 23.328125 24.480469 24.238281 25.167969 24.578125 26.121094 Z M 16.515625 22.839844 L 16.515625 22.019531 C 16.515625 21.570312 16.882812 21.199219 17.335938 21.199219 C 17.789062 21.199219 18.15625 21.570312 18.15625 22.019531 L 18.15625 22.839844 Z M 16.515625 22.839844 "/>
<path style=" stroke:none;fill-rule:nonzero;fill:rgb(0%,0%,0%);fill-opacity:1;" d="M 0 10.535156 L 3.28125 10.535156 L 3.28125 12.175781 L 0 12.175781 Z M 0 10.535156 "/>
<path style=" stroke:none;fill-rule:nonzero;fill:rgb(0%,0%,0%);fill-opacity:1;" d="M 2.789062 17.136719 L 1.628906 15.976562 L 3.949219 13.65625 L 5.109375 14.816406 Z M 2.789062 17.136719 "/>
<path style=" stroke:none;fill-rule:nonzero;fill:rgb(0%,0%,0%);fill-opacity:1;" d="M 6.617188 15.457031 L 8.257812 15.457031 L 8.257812 18.738281 L 6.617188 18.738281 Z M 6.617188 15.457031 "/>
</g>
</svg>
