<?xml version="1.0" encoding="UTF-8"?>
<svg xmlns="http://www.w3.org/2000/svg" xmlns:xlink="http://www.w3.org/1999/xlink" width="28pt" height="28pt" viewBox="0 0 28 28" version="1.1">
<g id="surface1">
<path style=" stroke:none;fill-rule:nonzero;fill:rgb(0%,0%,0%);fill-opacity:1;" d="M 24.957031 0 L 3.042969 0 C 1.367188 0 0 1.367188 0 3.042969 L 0 24.957031 C 0 26.632812 1.367188 28 3.042969 28 L 24.957031 28 C 26.632812 28 28 26.632812 28 24.957031 L 28 3.042969 C 28 1.367188 26.632812 0 24.957031 0 Z M 26.78125 24.957031 C 26.78125 25.964844 25.964844 26.78125 24.957031 26.78125 L 3.042969 26.78125 C 2.035156 26.78125 1.21875 25.964844 1.21875 24.957031 L 1.21875 24.347656 L 26.78125 24.347656 Z M 26.78125 23.128906 L 1.21875 23.128906 L 1.21875 4.871094 L 26.78125 4.871094 Z M 26.78125 3.652344 L 1.21875 3.652344 L 1.21875 3.042969 C 1.21875 2.035156 2.035156 1.21875 3.042969 1.21875 L 24.957031 1.21875 C 25.964844 1.21875 26.78125 2.035156 26.78125 3.042969 Z M 26.78125 3.652344 "/>
<path style=" stroke:none;fill-rule:nonzero;fill:rgb(0%,0%,0%);fill-opacity:1;" d="M 10.347656 13.390625 L 6.085938 13.390625 L 6.085938 9.738281 L 10.347656 9.738281 C 10.683594 9.738281 10.957031 9.464844 10.957031 9.128906 C 10.957031 8.792969 10.683594 8.523438 10.347656 8.523438 L 5.476562 8.523438 C 5.140625 8.523438 4.871094 8.792969 4.871094 9.128906 L 4.871094 18.871094 C 4.871094 19.207031 5.140625 19.476562 5.476562 19.476562 C 5.8125 19.476562 6.085938 19.207031 6.085938 18.871094 L 6.085938 14.609375 L 10.347656 14.609375 C 10.683594 14.609375 10.957031 14.335938 10.957031 14 C 10.957031 13.664062 10.683594 13.390625 10.347656 13.390625 Z M 10.347656 13.390625 "/>
<path style=" stroke:none;fill-rule:nonzero;fill:rgb(0%,0%,0%);fill-opacity:1;" d="M 22.734375 8.5625 C 22.5 8.472656 22.230469 8.539062 22.0625 8.730469 L 18.261719 13.074219 L 14.457031 8.730469 C 14.289062 8.539062 14.023438 8.472656 13.785156 8.5625 C 13.546875 8.648438 13.390625 8.875 13.390625 9.128906 L 13.390625 18.871094 C 13.390625 19.207031 13.664062 19.476562 14 19.476562 C 14.335938 19.476562 14.609375 19.207031 14.609375 18.871094 L 14.609375 10.75 L 17.800781 14.402344 C 18.035156 14.664062 18.488281 14.664062 18.71875 14.402344 L 21.914062 10.75 L 21.914062 18.871094 C 21.914062 19.207031 22.183594 19.476562 22.523438 19.476562 C 22.859375 19.476562 23.128906 19.207031 23.128906 18.871094 L 23.128906 9.128906 C 23.128906 8.875 22.972656 8.648438 22.734375 8.5625 Z M 22.734375 8.5625 "/>
</g>
</svg>
