<?xml version="1.0" encoding="UTF-8"?>
<svg xmlns="http://www.w3.org/2000/svg" xmlns:xlink="http://www.w3.org/1999/xlink" width="28pt" height="28pt" viewBox="0 0 28 28" version="1.1">
<g id="surface1">
<path style=" stroke:none;fill-rule:nonzero;fill:rgb(0%,0%,0%);fill-opacity:1;" d="M 27.40625 10.492188 L 1.730469 10.492188 C 1.40625 10.492188 1.144531 10.753906 1.144531 11.078125 L 1.144531 25.082031 C 1.144531 26.691406 2.453125 28 4.0625 28 L 25.070312 28 C 26.679688 28 27.988281 26.691406 27.988281 25.082031 L 27.988281 11.078125 C 27.988281 10.753906 27.726562 10.492188 27.40625 10.492188 Z M 26.820312 25.082031 C 26.820312 26.046875 26.035156 26.832031 25.070312 26.832031 L 4.0625 26.832031 C 3.097656 26.832031 2.3125 26.046875 2.3125 25.082031 L 2.3125 11.660156 L 26.820312 11.660156 Z M 26.820312 25.082031 "/>
<path style=" stroke:none;fill-rule:nonzero;fill:rgb(0%,0%,0%);fill-opacity:1;" d="M 27.96875 5.09375 L 26.976562 1.324219 C 26.75 0.410156 25.8125 -0.167969 24.882812 0.0429688 L 1.371094 5.621094 C 0.910156 5.726562 0.519531 6.007812 0.269531 6.414062 C 0.0234375 6.816406 -0.0507812 7.292969 0.0664062 7.753906 L 1.164062 12.101562 C 1.230469 12.363281 1.46875 12.539062 1.730469 12.539062 C 1.777344 12.539062 1.824219 12.535156 1.875 12.523438 C 2.183594 12.445312 2.375 12.128906 2.296875 11.816406 L 2.230469 11.5625 L 27.535156 5.8125 C 27.6875 5.777344 27.824219 5.679688 27.90625 5.546875 C 27.988281 5.410156 28.011719 5.246094 27.96875 5.09375 Z M 1.945312 10.429688 L 1.195312 7.46875 C 1.15625 7.316406 1.183594 7.15625 1.265625 7.023438 C 1.347656 6.886719 1.476562 6.796875 1.636719 6.757812 L 25.148438 1.179688 C 25.191406 1.167969 25.234375 1.164062 25.277344 1.164062 C 25.539062 1.164062 25.78125 1.34375 25.847656 1.613281 L 26.6875 4.804688 Z M 1.945312 10.429688 "/>
<path style=" stroke:none;fill-rule:nonzero;fill:rgb(0%,0%,0%);fill-opacity:1;" d="M 6.660156 10.554688 C 6.371094 10.414062 6.023438 10.527344 5.875 10.816406 L 3.539062 15.484375 C 3.398438 15.773438 3.511719 16.121094 3.800781 16.265625 C 3.886719 16.308594 3.976562 16.328125 4.0625 16.328125 C 4.277344 16.328125 4.484375 16.210938 4.585938 16.003906 L 6.921875 11.335938 C 7.0625 11.050781 6.945312 10.699219 6.660156 10.554688 Z M 6.660156 10.554688 "/>
<path style=" stroke:none;fill-rule:nonzero;fill:rgb(0%,0%,0%);fill-opacity:1;" d="M 12.492188 10.554688 C 12.203125 10.414062 11.855469 10.527344 11.710938 10.816406 L 9.375 15.484375 C 9.230469 15.773438 9.347656 16.121094 9.636719 16.265625 C 9.722656 16.308594 9.8125 16.328125 9.898438 16.328125 C 10.113281 16.328125 10.320312 16.210938 10.421875 16.003906 L 12.753906 11.335938 C 12.898438 11.050781 12.78125 10.699219 12.492188 10.554688 Z M 12.492188 10.554688 "/>
<path style=" stroke:none;fill-rule:nonzero;fill:rgb(0%,0%,0%);fill-opacity:1;" d="M 18.328125 10.554688 C 18.042969 10.414062 17.691406 10.527344 17.546875 10.816406 L 15.210938 15.484375 C 15.066406 15.773438 15.183594 16.121094 15.472656 16.265625 C 15.558594 16.308594 15.648438 16.328125 15.734375 16.328125 C 15.949219 16.328125 16.15625 16.210938 16.257812 16.003906 L 18.589844 11.335938 C 18.734375 11.050781 18.617188 10.699219 18.328125 10.554688 Z M 18.328125 10.554688 "/>
<path style=" stroke:none;fill-rule:nonzero;fill:rgb(0%,0%,0%);fill-opacity:1;" d="M 24.164062 10.554688 C 23.875 10.414062 23.527344 10.527344 23.382812 10.816406 L 21.046875 15.484375 C 20.902344 15.773438 21.019531 16.121094 21.308594 16.265625 C 21.394531 16.308594 21.480469 16.328125 21.570312 16.328125 C 21.785156 16.328125 21.988281 16.210938 22.089844 16.003906 L 24.425781 11.335938 C 24.570312 11.050781 24.453125 10.699219 24.164062 10.554688 Z M 24.164062 10.554688 "/>
<path style=" stroke:none;fill-rule:nonzero;fill:rgb(0%,0%,0%);fill-opacity:1;" d="M 27.40625 15.160156 L 1.730469 15.160156 C 1.40625 15.160156 1.144531 15.421875 1.144531 15.746094 C 1.144531 16.066406 1.40625 16.328125 1.730469 16.328125 L 27.40625 16.328125 C 27.730469 16.328125 27.988281 16.066406 27.988281 15.746094 C 27.988281 15.421875 27.726562 15.160156 27.40625 15.160156 Z M 27.40625 15.160156 "/>
<path style=" stroke:none;fill-rule:nonzero;fill:rgb(0%,0%,0%);fill-opacity:1;" d="M 7.371094 9.476562 L 3.351562 5.457031 C 3.125 5.226562 2.753906 5.226562 2.527344 5.457031 C 2.300781 5.683594 2.300781 6.050781 2.527344 6.28125 L 6.546875 10.300781 C 6.660156 10.414062 6.8125 10.472656 6.960938 10.472656 C 7.109375 10.472656 7.257812 10.414062 7.371094 10.300781 C 7.601562 10.070312 7.601562 9.703125 7.371094 9.476562 Z M 7.371094 9.476562 "/>
<path style=" stroke:none;fill-rule:nonzero;fill:rgb(0%,0%,0%);fill-opacity:1;" d="M 13.082031 8.179688 L 9.058594 4.160156 C 8.832031 3.929688 8.460938 3.929688 8.234375 4.160156 C 8.003906 4.386719 8.003906 4.757812 8.234375 4.984375 L 12.253906 9.003906 C 12.371094 9.117188 12.519531 9.171875 12.667969 9.171875 C 12.816406 9.171875 12.96875 9.117188 13.082031 9.003906 C 13.308594 8.777344 13.308594 8.40625 13.082031 8.179688 Z M 13.082031 8.179688 "/>
<path style=" stroke:none;fill-rule:nonzero;fill:rgb(0%,0%,0%);fill-opacity:1;" d="M 18.785156 6.882812 L 14.769531 2.859375 C 14.542969 2.632812 14.171875 2.632812 13.945312 2.859375 C 13.71875 3.089844 13.71875 3.457031 13.945312 3.6875 L 17.960938 7.707031 C 18.074219 7.820312 18.226562 7.875 18.375 7.875 C 18.523438 7.875 18.671875 7.820312 18.785156 7.707031 C 19.015625 7.480469 19.015625 7.109375 18.785156 6.882812 Z M 18.785156 6.882812 "/>
<path style=" stroke:none;fill-rule:nonzero;fill:rgb(0%,0%,0%);fill-opacity:1;" d="M 24.488281 5.585938 L 20.472656 1.566406 C 20.242188 1.335938 19.875 1.335938 19.644531 1.566406 C 19.417969 1.792969 19.417969 2.164062 19.644531 2.390625 L 23.664062 6.410156 C 23.777344 6.523438 23.925781 6.582031 24.078125 6.582031 C 24.226562 6.582031 24.375 6.523438 24.488281 6.410156 C 24.714844 6.183594 24.714844 5.8125 24.488281 5.585938 Z M 24.488281 5.585938 "/>
</g>
</svg>
