<?xml version="1.0" encoding="UTF-8"?>
<svg xmlns="http://www.w3.org/2000/svg" xmlns:xlink="http://www.w3.org/1999/xlink" width="28pt" height="28pt" viewBox="0 0 28 28" version="1.1">
<g id="surface1">
<path style=" stroke:none;fill-rule:nonzero;fill:rgb(0%,0%,0%);fill-opacity:1;" d="M 20.015625 0 L 4.703125 0 C 4.25 0 3.882812 0.367188 3.882812 0.820312 L 3.882812 14 C 3.882812 14.453125 4.25 14.820312 4.703125 14.820312 L 6.507812 14.820312 L 6.507812 19.960938 C 4.96875 20.582031 3.882812 22.953125 3.882812 24.554688 C 3.882812 26.453125 5.429688 28 7.328125 28 C 9.226562 28 10.773438 26.453125 10.773438 24.554688 C 10.773438 22.964844 9.699219 20.585938 8.148438 19.960938 L 8.148438 14.820312 L 23.296875 14.820312 C 23.75 14.820312 24.117188 14.453125 24.117188 14 L 24.117188 4.101562 C 24.117188 1.839844 22.277344 0 20.015625 0 Z M 6.507812 26.160156 C 5.925781 25.863281 5.523438 25.253906 5.523438 24.554688 C 5.523438 23.832031 5.921875 22.699219 6.507812 21.984375 Z M 9.132812 24.554688 C 9.132812 25.253906 8.730469 25.863281 8.148438 26.160156 L 8.148438 21.984375 C 8.734375 22.699219 9.132812 23.832031 9.132812 24.554688 Z M 22.476562 13.179688 L 5.523438 13.179688 L 5.523438 1.640625 L 20.015625 1.640625 C 21.371094 1.640625 22.476562 2.746094 22.476562 4.101562 Z M 22.476562 13.179688 "/>
<path style=" stroke:none;fill-rule:nonzero;fill:rgb(0%,0%,0%);fill-opacity:1;" d="M 20.015625 3.28125 L 11.8125 3.28125 C 11.359375 3.28125 10.992188 3.648438 10.992188 4.101562 L 10.992188 7.4375 C 10.992188 7.890625 11.359375 8.257812 11.8125 8.257812 L 20.015625 8.257812 C 20.46875 8.257812 20.835938 7.890625 20.835938 7.4375 L 20.835938 4.101562 C 20.835938 3.648438 20.46875 3.28125 20.015625 3.28125 Z M 19.195312 6.617188 L 12.632812 6.617188 L 12.632812 4.921875 L 19.195312 4.921875 Z M 19.195312 6.617188 "/>
</g>
</svg>
