<?xml version="1.0" encoding="UTF-8"?>
<svg xmlns="http://www.w3.org/2000/svg" xmlns:xlink="http://www.w3.org/1999/xlink" width="28pt" height="28pt" viewBox="0 0 28 28" version="1.1">
<g id="surface1">
<path style=" stroke:none;fill-rule:nonzero;fill:rgb(0%,0%,0%);fill-opacity:1;" d="M 4.433594 0 L 4.433594 27.332031 C 4.433594 27.699219 4.734375 28 5.101562 28 L 22.898438 28 C 23.265625 28 23.566406 27.699219 23.566406 27.332031 L 23.566406 0 Z M 22.632812 27.066406 L 5.367188 27.066406 L 5.367188 22.398438 L 22.632812 22.398438 Z M 5.367188 21.464844 L 5.367188 0.933594 L 22.632812 0.933594 L 22.632812 21.464844 Z M 5.367188 21.464844 "/>
<path style=" stroke:none;fill-rule:nonzero;fill:rgb(0%,0%,0%);fill-opacity:1;" d="M 12.832031 25.199219 L 15.167969 25.199219 C 15.425781 25.199219 15.632812 24.992188 15.632812 24.734375 C 15.632812 24.476562 15.425781 24.265625 15.167969 24.265625 L 12.832031 24.265625 C 12.574219 24.265625 12.367188 24.476562 12.367188 24.734375 C 12.367188 24.992188 12.574219 25.199219 12.832031 25.199219 Z M 12.832031 25.199219 "/>
<path style=" stroke:none;fill-rule:nonzero;fill:rgb(0%,0%,0%);fill-opacity:1;" d="M 6.765625 20.535156 L 15.167969 20.535156 L 15.167969 15.398438 L 6.765625 15.398438 Z M 7.699219 16.332031 L 14.234375 16.332031 L 14.234375 19.601562 L 7.699219 19.601562 Z M 7.699219 16.332031 "/>
<path style=" stroke:none;fill-rule:nonzero;fill:rgb(0%,0%,0%);fill-opacity:1;" d="M 8.167969 19.132812 L 10.5 19.132812 L 10.5 16.800781 L 8.167969 16.800781 Z M 9.101562 17.734375 L 9.566406 17.734375 L 9.566406 18.199219 L 9.101562 18.199219 Z M 9.101562 17.734375 "/>
<path style=" stroke:none;fill-rule:nonzero;fill:rgb(0%,0%,0%);fill-opacity:1;" d="M 11.433594 19.132812 L 13.765625 19.132812 L 13.765625 16.800781 L 11.433594 16.800781 Z M 12.367188 17.734375 L 12.832031 17.734375 L 12.832031 18.199219 L 12.367188 18.199219 Z M 12.367188 17.734375 "/>
<path style=" stroke:none;fill-rule:nonzero;fill:rgb(0%,0%,0%);fill-opacity:1;" d="M 18.898438 15.867188 C 17.613281 15.867188 16.566406 16.914062 16.566406 18.199219 C 16.566406 19.488281 17.613281 20.535156 18.898438 20.535156 C 20.1875 20.535156 21.234375 19.488281 21.234375 18.199219 C 21.234375 16.914062 20.1875 15.867188 18.898438 15.867188 Z M 18.898438 19.601562 C 18.128906 19.601562 17.5 18.972656 17.5 18.199219 C 17.5 17.429688 18.128906 16.800781 18.898438 16.800781 C 19.117188 16.800781 19.316406 16.851562 19.5 16.941406 L 18.570312 17.871094 L 19.230469 18.53125 L 20.160156 17.601562 C 20.246094 17.78125 20.300781 17.984375 20.300781 18.199219 C 20.300781 18.972656 19.671875 19.601562 18.898438 19.601562 Z M 18.898438 19.601562 "/>
</g>
</svg>
