<?xml version="1.0" encoding="UTF-8"?>
<svg xmlns="http://www.w3.org/2000/svg" xmlns:xlink="http://www.w3.org/1999/xlink" width="28pt" height="28pt" viewBox="0 0 28 28" version="1.1">
<g id="surface1">
<path style=" stroke:none;fill-rule:nonzero;fill:rgb(0%,0%,0%);fill-opacity:1;" d="M 27.125 13.125 L 16.042969 13.125 C 15.558594 13.125 15.167969 12.734375 15.167969 12.25 C 15.167969 11.765625 15.558594 11.375 16.042969 11.375 L 27.125 11.375 C 27.605469 11.375 28 11.765625 28 12.25 C 28 12.734375 27.605469 13.125 27.125 13.125 Z M 27.125 13.125 "/>
<path style=" stroke:none;fill-rule:nonzero;fill:rgb(0%,0%,0%);fill-opacity:1;" d="M 22.75 17.5 C 22.523438 17.5 22.300781 17.414062 22.132812 17.242188 C 21.789062 16.902344 21.789062 16.347656 22.132812 16.003906 L 25.886719 12.25 L 22.132812 8.492188 C 21.789062 8.152344 21.789062 7.597656 22.132812 7.253906 C 22.472656 6.914062 23.027344 6.914062 23.367188 7.253906 L 27.742188 11.628906 C 28.085938 11.972656 28.085938 12.527344 27.742188 12.867188 L 23.367188 17.242188 C 23.195312 17.414062 22.972656 17.5 22.75 17.5 Z M 22.75 17.5 "/>
<path style=" stroke:none;fill-rule:nonzero;fill:rgb(0%,0%,0%);fill-opacity:1;" d="M 9.332031 28 C 9.082031 28 8.847656 27.964844 8.609375 27.890625 L 1.589844 25.550781 C 0.632812 25.21875 0 24.328125 0 23.332031 L 0 2.335938 C 0 1.046875 1.046875 0 2.332031 0 C 2.582031 0 2.820312 0.0351562 3.054688 0.109375 L 10.078125 2.449219 C 11.03125 2.78125 11.667969 3.671875 11.667969 4.667969 L 11.667969 25.667969 C 11.667969 26.953125 10.621094 28 9.332031 28 Z M 2.332031 1.75 C 2.011719 1.75 1.75 2.011719 1.75 2.335938 L 1.75 23.332031 C 1.75 23.582031 1.917969 23.8125 2.15625 23.894531 L 9.144531 26.222656 C 9.191406 26.242188 9.257812 26.25 9.332031 26.25 C 9.652344 26.25 9.917969 25.988281 9.917969 25.667969 L 9.917969 4.667969 C 9.917969 4.417969 9.75 4.1875 9.511719 4.105469 L 2.523438 1.777344 C 2.472656 1.761719 2.40625 1.75 2.332031 1.75 Z M 2.332031 1.75 "/>
<path style=" stroke:none;fill-rule:nonzero;fill:rgb(0%,0%,0%);fill-opacity:1;" d="M 17.792969 9.332031 C 17.308594 9.332031 16.917969 8.941406 16.917969 8.460938 L 16.917969 3.210938 C 16.917969 2.40625 16.261719 1.75 15.457031 1.75 L 2.332031 1.75 C 1.851562 1.75 1.457031 1.359375 1.457031 0.875 C 1.457031 0.394531 1.851562 0 2.332031 0 L 15.457031 0 C 17.226562 0 18.664062 1.4375 18.664062 3.210938 L 18.664062 8.460938 C 18.664062 8.941406 18.273438 9.332031 17.792969 9.332031 Z M 17.792969 9.332031 "/>
<path style=" stroke:none;fill-rule:nonzero;fill:rgb(0%,0%,0%);fill-opacity:1;" d="M 15.457031 24.5 L 10.792969 24.5 C 10.308594 24.5 9.917969 24.109375 9.917969 23.625 C 9.917969 23.140625 10.308594 22.75 10.792969 22.75 L 15.457031 22.75 C 16.261719 22.75 16.917969 22.09375 16.917969 21.292969 L 16.917969 16.042969 C 16.917969 15.558594 17.308594 15.167969 17.792969 15.167969 C 18.273438 15.167969 18.664062 15.558594 18.664062 16.042969 L 18.664062 21.292969 C 18.664062 23.0625 17.226562 24.5 15.457031 24.5 Z M 15.457031 24.5 "/>
</g>
</svg>
