<?xml version="1.0" encoding="UTF-8"?>
<svg xmlns="http://www.w3.org/2000/svg" xmlns:xlink="http://www.w3.org/1999/xlink" width="28pt" height="28pt" viewBox="0 0 28 28" version="1.1">
<g id="surface1">
<path style=" stroke:none;fill-rule:nonzero;fill:rgb(0%,0%,0%);fill-opacity:1;" d="M 23.332031 25.433594 L 23.332031 0.699219 C 23.332031 0.691406 23.332031 0.683594 23.328125 0.679688 C 23.328125 0.65625 23.324219 0.632812 23.320312 0.609375 C 23.316406 0.585938 23.3125 0.5625 23.304688 0.542969 C 23.300781 0.535156 23.300781 0.527344 23.296875 0.519531 C 23.292969 0.507812 23.28125 0.496094 23.273438 0.484375 C 23.265625 0.460938 23.253906 0.441406 23.238281 0.421875 C 23.226562 0.40625 23.210938 0.390625 23.195312 0.371094 C 23.179688 0.355469 23.160156 0.339844 23.144531 0.328125 C 23.125 0.3125 23.105469 0.304688 23.082031 0.292969 C 23.070312 0.285156 23.058594 0.273438 23.046875 0.269531 C 23.039062 0.265625 23.03125 0.265625 23.023438 0.261719 C 23.003906 0.253906 22.980469 0.25 22.957031 0.246094 C 22.933594 0.242188 22.910156 0.238281 22.886719 0.234375 C 22.878906 0.234375 22.875 0.234375 22.867188 0.234375 L 5.132812 0.234375 C 5.125 0.234375 5.121094 0.234375 5.113281 0.238281 C 5.089844 0.238281 5.066406 0.242188 5.042969 0.246094 C 5.019531 0.253906 4.996094 0.257812 4.976562 0.261719 C 4.96875 0.265625 4.960938 0.265625 4.953125 0.269531 C 4.941406 0.273438 4.929688 0.285156 4.917969 0.292969 C 4.894531 0.304688 4.875 0.3125 4.855469 0.328125 C 4.839844 0.339844 4.820312 0.355469 4.804688 0.371094 C 4.789062 0.390625 4.773438 0.40625 4.761719 0.421875 C 4.746094 0.441406 4.734375 0.460938 4.726562 0.484375 C 4.71875 0.496094 4.707031 0.507812 4.703125 0.519531 C 4.699219 0.527344 4.699219 0.535156 4.695312 0.542969 C 4.6875 0.5625 4.683594 0.585938 4.679688 0.609375 C 4.675781 0.632812 4.671875 0.65625 4.671875 0.679688 C 4.667969 0.683594 4.667969 0.691406 4.667969 0.699219 L 4.667969 25.433594 L 0 25.433594 L 0 27.765625 L 28 27.765625 L 28 25.433594 Z M 21.738281 1.167969 L 21.273438 1.632812 L 6.726562 1.632812 L 6.261719 1.167969 Z M 0.933594 26.367188 L 4.667969 26.367188 L 4.667969 26.832031 L 0.933594 26.832031 Z M 6.066406 26.832031 L 5.601562 26.832031 L 5.601562 1.828125 L 6.066406 2.292969 Z M 7 2.566406 L 21 2.566406 L 21 26.832031 L 7 26.832031 Z M 22.398438 26.832031 L 21.933594 26.832031 L 21.933594 2.292969 L 22.398438 1.828125 Z M 27.066406 26.832031 L 23.332031 26.832031 L 23.332031 26.367188 L 27.066406 26.367188 Z M 27.066406 26.832031 "/>
<path style=" stroke:none;fill-rule:nonzero;fill:rgb(0%,0%,0%);fill-opacity:1;" d="M 19.601562 3.964844 L 8.398438 3.964844 L 8.398438 8.632812 L 19.601562 8.632812 Z M 18.667969 7.699219 L 9.332031 7.699219 L 9.332031 4.898438 L 18.667969 4.898438 Z M 18.667969 7.699219 "/>
<path style=" stroke:none;fill-rule:nonzero;fill:rgb(0%,0%,0%);fill-opacity:1;" d="M 8.398438 25.433594 L 19.601562 25.433594 L 19.601562 20.765625 L 8.398438 20.765625 Z M 9.332031 21.699219 L 18.667969 21.699219 L 18.667969 24.5 L 9.332031 24.5 Z M 9.332031 21.699219 "/>
<path style=" stroke:none;fill-rule:nonzero;fill:rgb(0%,0%,0%);fill-opacity:1;" d="M 17.265625 15.167969 L 8.398438 15.167969 L 8.398438 19.832031 L 19.601562 19.832031 L 19.601562 15.632812 L 17.265625 15.632812 Z M 18.667969 16.566406 L 18.667969 18.898438 L 9.332031 18.898438 L 9.332031 16.101562 L 16.332031 16.101562 L 16.332031 16.566406 Z M 18.667969 16.566406 "/>
<path style=" stroke:none;fill-rule:nonzero;fill:rgb(0%,0%,0%);fill-opacity:1;" d="M 17.265625 13.765625 L 19.601562 13.765625 L 19.601562 9.566406 L 8.398438 9.566406 L 8.398438 14.234375 L 17.265625 14.234375 Z M 16.332031 13.300781 L 9.332031 13.300781 L 9.332031 10.5 L 18.667969 10.5 L 18.667969 12.832031 L 16.332031 12.832031 Z M 16.332031 13.300781 "/>
<path style=" stroke:none;fill-rule:nonzero;fill:rgb(0%,0%,0%);fill-opacity:1;" d="M 20.066406 14.234375 L 18.199219 14.234375 C 17.941406 14.234375 17.734375 14.441406 17.734375 14.699219 C 17.734375 14.957031 17.941406 15.167969 18.199219 15.167969 L 20.066406 15.167969 C 20.324219 15.167969 20.535156 14.957031 20.535156 14.699219 C 20.535156 14.441406 20.324219 14.234375 20.066406 14.234375 Z M 20.066406 14.234375 "/>
</g>
</svg>
