<?xml version="1.0" encoding="UTF-8"?>
<svg xmlns="http://www.w3.org/2000/svg" xmlns:xlink="http://www.w3.org/1999/xlink" width="28pt" height="28pt" viewBox="0 0 28 28" version="1.1">
<g id="surface1">
<path style=" stroke:none;fill-rule:nonzero;fill:rgb(0%,0%,0%);fill-opacity:1;" d="M 10.296875 8.585938 L 10.296875 0.464844 C 10.296875 0.210938 10.085938 0 9.828125 0 L 7.03125 0 C 6.773438 0 6.5625 0.210938 6.5625 0.464844 L 6.5625 8.585938 C 4.828125 9.570312 3.761719 11.386719 3.761719 13.398438 L 3.761719 27.535156 C 3.761719 27.792969 3.972656 28 4.230469 28 L 12.628906 28 C 12.886719 28 13.097656 27.792969 13.097656 27.535156 L 13.097656 13.398438 C 13.097656 11.386719 12.03125 9.570312 10.296875 8.585938 Z M 12.164062 27.066406 L 4.695312 27.066406 L 4.695312 13.398438 C 4.695312 11.644531 5.667969 10.066406 7.238281 9.285156 C 7.394531 9.203125 7.496094 9.042969 7.496094 8.867188 L 7.496094 0.933594 L 9.363281 0.933594 L 9.363281 8.867188 C 9.363281 9.042969 9.460938 9.207031 9.621094 9.285156 C 11.191406 10.066406 12.164062 11.644531 12.164062 13.398438 Z M 12.164062 27.066406 "/>
<path style=" stroke:none;fill-rule:nonzero;fill:rgb(0%,0%,0%);fill-opacity:1;" d="M 7.027344 2.332031 L 9.828125 2.332031 L 9.828125 3.265625 L 7.027344 3.265625 Z M 7.027344 2.332031 "/>
<path style=" stroke:none;fill-rule:nonzero;fill:rgb(0%,0%,0%);fill-opacity:1;" d="M 24.195312 15.105469 L 23.359375 9.265625 C 23.324219 9.039062 23.128906 8.867188 22.894531 8.867188 L 17.296875 8.867188 C 17.0625 8.867188 16.867188 9.039062 16.832031 9.265625 L 16 15.078125 C 15.917969 15.613281 15.949219 16.144531 16.082031 16.65625 L 16.164062 16.996094 C 16.613281 18.804688 18.234375 20.066406 20.09375 20.066406 C 20.097656 20.066406 20.101562 20.066406 20.101562 20.066406 C 21.953125 20.066406 23.566406 18.816406 24.03125 17.015625 L 24.109375 16.6875 C 24.242188 16.167969 24.273438 15.632812 24.195312 15.105469 Z M 23.203125 16.464844 L 23.125 16.789062 C 22.769531 18.171875 21.527344 19.132812 20.101562 19.132812 C 20.101562 19.132812 20.097656 19.132812 20.097656 19.132812 C 18.660156 19.132812 17.417969 18.160156 17.070312 16.777344 L 16.988281 16.429688 C 16.882812 16.03125 16.863281 15.625 16.921875 15.214844 L 17.699219 9.800781 L 22.492188 9.800781 L 23.269531 15.238281 C 23.332031 15.648438 23.308594 16.054688 23.203125 16.464844 Z M 23.203125 16.464844 "/>
<path style=" stroke:none;fill-rule:nonzero;fill:rgb(0%,0%,0%);fill-opacity:1;" d="M 19.628906 19.601562 L 20.5625 19.601562 L 20.5625 25.667969 L 19.628906 25.667969 Z M 19.628906 19.601562 "/>
<path style=" stroke:none;fill-rule:nonzero;fill:rgb(0%,0%,0%);fill-opacity:1;" d="M 21.03125 25.199219 L 19.164062 25.199219 C 17.875 25.199219 16.828125 26.246094 16.828125 27.535156 C 16.828125 27.792969 17.039062 28 17.296875 28 L 22.894531 28 C 23.15625 28 23.363281 27.792969 23.363281 27.535156 C 23.363281 26.246094 22.316406 25.199219 21.03125 25.199219 Z M 17.84375 27.066406 C 18.035156 26.523438 18.554688 26.132812 19.164062 26.132812 L 21.03125 26.132812 C 21.636719 26.132812 22.15625 26.523438 22.351562 27.066406 Z M 17.84375 27.066406 "/>
<path style=" stroke:none;fill-rule:nonzero;fill:rgb(0%,0%,0%);fill-opacity:1;" d="M 16.363281 15.398438 L 23.828125 15.398438 L 23.828125 16.332031 L 16.363281 16.332031 Z M 16.363281 15.398438 "/>
<path style=" stroke:none;fill-rule:nonzero;fill:rgb(0%,0%,0%);fill-opacity:1;" d="M 7.027344 6.535156 L 9.828125 6.535156 L 9.828125 7.464844 L 7.027344 7.464844 Z M 7.027344 6.535156 "/>
<path style=" stroke:none;fill-rule:nonzero;fill:rgb(0%,0%,0%);fill-opacity:1;" d="M 10.761719 14.464844 L 6.097656 14.464844 C 5.839844 14.464844 5.628906 14.675781 5.628906 14.933594 L 5.628906 23.332031 C 5.628906 23.589844 5.839844 23.800781 6.097656 23.800781 L 10.761719 23.800781 C 11.019531 23.800781 11.230469 23.589844 11.230469 23.332031 L 11.230469 14.933594 C 11.230469 14.675781 11.019531 14.464844 10.761719 14.464844 Z M 10.296875 22.867188 L 6.5625 22.867188 L 6.5625 15.398438 L 10.296875 15.398438 Z M 10.296875 22.867188 "/>
</g>
</svg>
