<?xml version="1.0" encoding="UTF-8"?>
<svg xmlns="http://www.w3.org/2000/svg" xmlns:xlink="http://www.w3.org/1999/xlink" width="28pt" height="28pt" viewBox="0 0 28 28" version="1.1">
<g id="surface1">
<path style=" stroke:none;fill-rule:nonzero;fill:rgb(0%,0%,0%);fill-opacity:1;" d="M 25.949219 17.882812 C 24.796875 17.21875 20.355469 15.386719 17.183594 14.726562 C 17.035156 14.25 16.785156 13.824219 16.453125 13.464844 C 16.875 12.183594 17.238281 10.589844 17.519531 9.070312 C 19.300781 10.023438 20.636719 11.675781 21.171875 13.648438 C 21.292969 14.085938 21.742188 14.34375 22.179688 14.222656 C 22.617188 14.105469 22.875 13.652344 22.753906 13.214844 C 22.050781 10.628906 20.222656 8.492188 17.800781 7.382812 C 17.894531 6.765625 17.96875 6.191406 18.027344 5.6875 C 21.78125 7.199219 24.410156 10.769531 24.6875 14.855469 C 24.714844 15.289062 25.078125 15.621094 25.503906 15.621094 C 25.523438 15.621094 25.542969 15.617188 25.558594 15.617188 C 26.011719 15.585938 26.355469 15.195312 26.324219 14.742188 C 25.980469 9.699219 22.625 5.558594 18.144531 3.980469 C 18.082031 1.773438 16.269531 0 14.046875 0 C 11.785156 0 9.945312 1.839844 9.945312 4.101562 C 9.945312 5.410156 10.617188 10.347656 11.644531 13.464844 C 11.3125 13.824219 11.058594 14.25 10.914062 14.726562 C 9.613281 14.996094 8.09375 15.460938 6.671875 15.960938 C 6.597656 13.910156 7.363281 11.957031 8.808594 10.5 C 9.128906 10.179688 9.125 9.660156 8.804688 9.339844 C 8.480469 9.019531 7.960938 9.023438 7.644531 9.34375 C 5.683594 11.320312 4.820312 13.957031 5.066406 16.554688 C 4.488281 16.78125 3.953125 17 3.492188 17.199219 C 2.917969 13.136719 4.703125 9.132812 8.097656 6.84375 C 8.472656 6.59375 8.570312 6.082031 8.320312 5.707031 C 8.066406 5.332031 7.554688 5.230469 7.179688 5.484375 C 3.101562 8.230469 1.058594 13.113281 1.949219 17.945312 C 0.0664062 19.105469 -0.5625 21.558594 0.550781 23.488281 C 1.675781 25.433594 4.164062 26.121094 6.132812 25 C 6.140625 24.996094 6.148438 24.992188 6.152344 24.988281 C 7.261719 24.347656 11.136719 21.339844 13.320312 18.894531 C 13.796875 19.003906 14.289062 19.003906 14.777344 18.894531 C 15.640625 19.867188 16.777344 20.945312 17.902344 21.929688 C 16.15625 23.035156 14.039062 23.355469 12.070312 22.832031 C 11.632812 22.71875 11.183594 22.980469 11.066406 23.417969 C 10.949219 23.855469 11.210938 24.304688 11.648438 24.417969 C 14.199219 25.09375 16.976562 24.621094 19.199219 23.03125 C 19.679688 23.421875 20.132812 23.777344 20.535156 24.082031 C 17.28125 26.644531 12.878906 27.046875 9.265625 25.273438 C 8.855469 25.074219 8.367188 25.242188 8.167969 25.648438 C 7.96875 26.058594 8.136719 26.546875 8.542969 26.746094 C 12.832031 28.851562 18.132812 28.316406 21.949219 25.046875 C 23.882812 26.089844 26.328125 25.429688 27.449219 23.488281 C 28.582031 21.523438 27.910156 19.019531 25.949219 17.882812 Z M 5.332031 23.566406 C 4.15625 24.246094 2.652344 23.84375 1.972656 22.667969 C 1.292969 21.488281 1.695312 19.984375 2.871094 19.304688 C 3.792969 18.773438 7.851562 17.109375 10.847656 16.417969 C 10.996094 17.078125 11.34375 17.660156 11.820312 18.101562 C 9.699219 20.382812 6.222656 23.054688 5.332031 23.566406 Z M 14.046875 17.335938 C 13.144531 17.335938 12.40625 16.597656 12.40625 15.695312 C 12.40625 14.789062 13.144531 14.054688 14.046875 14.054688 C 14.953125 14.054688 15.6875 14.789062 15.6875 15.695312 C 15.6875 16.597656 14.953125 17.335938 14.046875 17.335938 Z M 15.019531 12.558594 C 14.390625 12.363281 13.707031 12.363281 13.078125 12.558594 C 12.175781 9.597656 11.585938 5.121094 11.585938 4.101562 C 11.585938 2.746094 12.691406 1.640625 14.046875 1.640625 C 15.40625 1.640625 16.507812 2.746094 16.507812 4.101562 C 16.507812 5.125 15.917969 9.601562 15.019531 12.558594 Z M 26.027344 22.667969 C 25.347656 23.84375 23.84375 24.246094 22.667969 23.566406 C 21.714844 23.019531 18.324219 20.3125 16.273438 18.101562 C 16.75 17.660156 17.097656 17.078125 17.246094 16.421875 C 20.214844 17.113281 24.230469 18.789062 25.128906 19.304688 C 26.304688 19.984375 26.707031 21.488281 26.027344 22.667969 Z M 26.027344 22.667969 "/>
</g>
</svg>
