<?xml version="1.0" encoding="UTF-8"?>
<svg xmlns="http://www.w3.org/2000/svg" xmlns:xlink="http://www.w3.org/1999/xlink" width="28pt" height="28pt" viewBox="0 0 28 28" version="1.1">
<g id="surface1">
<path style=" stroke:none;fill-rule:nonzero;fill:rgb(0%,0%,0%);fill-opacity:1;" d="M 25.527344 16.203125 C 25.011719 15.296875 24.015625 14.429688 22.484375 13.546875 C 20.960938 12.667969 19.089844 11.878906 17.480469 11.441406 C 17.3125 11.398438 17.148438 11.355469 16.992188 11.320312 C 16.890625 11.101562 16.765625 10.898438 16.621094 10.707031 C 17.035156 9.105469 17.285156 7.128906 17.285156 5.394531 C 17.285156 3.628906 17.027344 2.332031 16.503906 1.429688 C 15.964844 0.507812 15.113281 0 14.105469 0 C 13.097656 0 12.246094 0.507812 11.707031 1.429688 C 11.179688 2.332031 10.925781 3.628906 10.925781 5.394531 C 10.925781 7.128906 11.171875 9.105469 11.589844 10.707031 C 11.453125 10.882812 11.335938 11.070312 11.242188 11.269531 C 11.011719 11.316406 10.773438 11.375 10.519531 11.441406 C 8.910156 11.878906 7.039062 12.667969 5.515625 13.546875 C 3.984375 14.429688 2.988281 15.296875 2.472656 16.203125 C 1.941406 17.132812 1.929688 18.125 2.433594 18.996094 C 2.9375 19.871094 3.800781 20.351562 4.871094 20.359375 C 4.878906 20.359375 4.882812 20.359375 4.886719 20.359375 C 5.925781 20.359375 7.171875 19.929688 8.695312 19.050781 C 9.742188 18.445312 10.839844 17.671875 11.804688 16.867188 L 11.804688 26.074219 L 9.300781 26.074219 C 8.769531 26.074219 8.339844 26.503906 8.339844 27.039062 C 8.339844 27.570312 8.769531 28 9.300781 28 L 18.832031 28 C 19.367188 28 19.796875 27.570312 19.796875 27.039062 C 19.796875 26.503906 19.367188 26.074219 18.832031 26.074219 L 16.332031 26.074219 L 16.332031 16.980469 C 17.265625 17.746094 18.304688 18.472656 19.304688 19.050781 C 20.828125 19.929688 22.074219 20.359375 23.113281 20.359375 C 23.117188 20.359375 23.125 20.359375 23.128906 20.359375 C 24.199219 20.351562 25.0625 19.871094 25.566406 18.996094 C 26.070312 18.125 26.058594 17.132812 25.527344 16.203125 Z M 11.320312 14.730469 C 10.292969 15.6875 8.949219 16.679688 7.730469 17.382812 C 6.828125 17.90625 4.664062 19.011719 4.101562 18.035156 C 3.980469 17.828125 3.902344 17.578125 4.144531 17.160156 C 4.378906 16.75 4.972656 16.082031 6.476562 15.214844 C 7.695312 14.511719 9.226562 13.84375 10.570312 13.433594 C 10.71875 13.386719 10.859375 13.34375 10.996094 13.308594 C 11.089844 13.753906 11.277344 14.164062 11.539062 14.519531 C 11.46875 14.589844 11.398438 14.65625 11.320312 14.730469 Z M 14.105469 1.925781 C 15.234375 1.925781 15.359375 4.351562 15.359375 5.394531 C 15.359375 6.714844 15.191406 8.253906 14.910156 9.574219 C 14.652344 9.503906 14.382812 9.46875 14.105469 9.46875 C 13.828125 9.46875 13.554688 9.503906 13.296875 9.574219 C 13.015625 8.253906 12.851562 6.714844 12.851562 5.394531 C 12.851562 4.351562 12.972656 1.925781 14.105469 1.925781 Z M 14.105469 11.394531 C 14.796875 11.394531 15.359375 11.957031 15.359375 12.648438 C 15.359375 13.339844 14.796875 13.902344 14.105469 13.902344 C 13.414062 13.902344 12.851562 13.339844 12.851562 12.648438 C 12.851562 11.957031 13.414062 11.394531 14.105469 11.394531 Z M 14.625 15.785156 L 14.625 25.960938 L 13.511719 25.960938 L 13.511719 15.769531 C 13.703125 15.804688 13.902344 15.824219 14.105469 15.824219 C 14.28125 15.828125 14.453125 15.8125 14.625 15.785156 Z M 23.898438 18.035156 C 23.335938 19.011719 21.171875 17.90625 20.269531 17.382812 C 19.050781 16.679688 17.707031 15.6875 16.679688 14.730469 C 16.644531 14.699219 16.613281 14.667969 16.582031 14.636719 C 16.875 14.269531 17.089844 13.835938 17.199219 13.363281 C 17.273438 13.386719 17.351562 13.40625 17.429688 13.433594 C 18.773438 13.84375 20.304688 14.511719 21.523438 15.214844 C 23.027344 16.082031 23.621094 16.75 23.855469 17.160156 C 24.097656 17.578125 24.019531 17.828125 23.898438 18.035156 Z M 23.898438 18.035156 "/>
</g>
</svg>
