<?xml version="1.0" encoding="UTF-8"?>
<svg xmlns="http://www.w3.org/2000/svg" xmlns:xlink="http://www.w3.org/1999/xlink" width="28pt" height="28pt" viewBox="0 0 28 28" version="1.1">
<g id="surface1">
<path style=" stroke:none;fill-rule:nonzero;fill:rgb(0%,0%,0%);fill-opacity:1;" d="M 27.554688 0 L 0.445312 0 C 0.199219 0 0 0.199219 0 0.445312 L 0 2.753906 C 0 3 0.199219 3.203125 0.445312 3.203125 L 1.191406 3.203125 L 1.191406 27.554688 C 1.191406 27.800781 1.390625 28 1.636719 28 L 26.363281 28 C 26.609375 28 26.808594 27.800781 26.808594 27.554688 L 26.808594 3.203125 L 27.554688 3.203125 C 27.800781 3.203125 28 3 28 2.753906 L 28 0.445312 C 28 0.199219 27.800781 0 27.554688 0 Z M 27.105469 2.308594 L 5.210938 2.308594 C 4.964844 2.308594 4.765625 2.507812 4.765625 2.753906 C 4.765625 3.003906 4.964844 3.203125 5.210938 3.203125 L 25.914062 3.203125 L 25.914062 7.609375 L 2.085938 7.609375 L 2.085938 3.203125 L 3.425781 3.203125 C 3.671875 3.203125 3.871094 3.003906 3.871094 2.753906 C 3.871094 2.507812 3.671875 2.308594 3.425781 2.308594 L 0.894531 2.308594 L 0.894531 0.894531 L 27.105469 0.894531 Z M 23.085938 24.277344 L 20.480469 24.277344 C 20.640625 24.003906 20.734375 23.691406 20.734375 23.351562 C 20.734375 22.351562 19.917969 21.535156 18.917969 21.535156 L 16.933594 21.535156 C 17.09375 21.421875 17.25 21.296875 17.398438 21.160156 C 18.191406 20.425781 18.738281 19.398438 18.933594 18.265625 C 18.972656 18.023438 18.8125 17.792969 18.566406 17.75 C 18.5625 17.75 18.554688 17.75 18.546875 17.746094 C 18.3125 17.71875 18.09375 17.878906 18.050781 18.113281 C 17.777344 19.691406 16.554688 21.535156 14 21.535156 C 12.839844 21.535156 11.835938 21.140625 11.09375 20.394531 C 10.316406 19.609375 9.871094 18.480469 9.882812 17.300781 C 9.894531 15.613281 10.8125 13.984375 11.332031 13.195312 L 11.796875 13.851562 C 11.992188 14.132812 12.210938 14.121094 12.355469 14.066406 C 12.476562 14.019531 12.570312 13.921875 12.617188 13.804688 C 12.617188 13.800781 12.621094 13.785156 12.628906 13.765625 C 12.765625 13.355469 13.234375 12.0625 14 11.089844 C 14.765625 12.066406 15.234375 13.355469 15.371094 13.765625 C 15.378906 13.785156 15.382812 13.800781 15.382812 13.804688 C 15.429688 13.925781 15.527344 14.023438 15.652344 14.070312 C 15.796875 14.121094 16.011719 14.125 16.203125 13.851562 L 16.667969 13.195312 C 17.105469 13.855469 17.816406 15.097656 18.042969 16.476562 C 18.085938 16.714844 18.304688 16.878906 18.542969 16.847656 C 18.546875 16.84375 18.554688 16.84375 18.558594 16.84375 C 18.800781 16.804688 18.964844 16.574219 18.925781 16.332031 C 18.550781 14.074219 17.078125 12.222656 17.015625 12.144531 C 16.929688 12.035156 16.792969 11.972656 16.652344 11.976562 C 16.515625 11.984375 16.382812 12.050781 16.304688 12.167969 C 16.1875 12.328125 16.054688 12.519531 15.925781 12.703125 C 15.605469 11.941406 15.070312 10.871094 14.320312 10.097656 C 14.238281 10.011719 14.121094 9.964844 14 9.964844 C 13.878906 9.964844 13.761719 10.011719 13.679688 10.097656 C 12.929688 10.871094 12.394531 11.941406 12.074219 12.703125 C 11.945312 12.519531 11.8125 12.328125 11.695312 12.167969 C 11.617188 12.050781 11.484375 11.984375 11.34375 11.976562 C 11.207031 11.972656 11.070312 12.035156 10.984375 12.144531 C 10.902344 12.246094 9.007812 14.632812 8.988281 17.292969 C 8.976562 18.710938 9.515625 20.070312 10.460938 21.023438 C 10.648438 21.214844 10.851562 21.382812 11.066406 21.535156 L 9.082031 21.535156 C 8.082031 21.535156 7.265625 22.351562 7.265625 23.351562 C 7.265625 23.691406 7.359375 24.007812 7.519531 24.277344 L 4.914062 24.277344 L 4.914062 8.503906 L 23.085938 8.503906 Z M 10.648438 24.277344 C 10.808594 24.003906 10.898438 23.691406 10.898438 23.351562 C 10.898438 23.015625 10.808594 22.699219 10.648438 22.429688 L 18.917969 22.429688 C 19.425781 22.429688 19.839844 22.84375 19.839844 23.351562 C 19.839844 23.863281 19.425781 24.277344 18.917969 24.277344 Z M 8.160156 23.351562 C 8.160156 22.84375 8.574219 22.429688 9.082031 22.429688 C 9.59375 22.429688 10.007812 22.84375 10.007812 23.351562 C 10.007812 23.863281 9.59375 24.277344 9.082031 24.277344 C 8.574219 24.277344 8.160156 23.863281 8.160156 23.351562 Z M 2.085938 8.503906 L 4.019531 8.503906 L 4.019531 27.105469 L 2.085938 27.105469 Z M 4.914062 25.171875 L 23.085938 25.171875 L 23.085938 27.105469 L 4.914062 27.105469 Z M 23.980469 8.503906 L 25.914062 8.503906 L 25.914062 27.105469 L 23.980469 27.105469 Z M 23.980469 8.503906 "/>
<path style=" stroke:none;fill-rule:nonzero;fill:rgb(0%,0%,0%);fill-opacity:1;" d="M 5.242188 5.703125 C 5.503906 5.703125 5.71875 5.488281 5.71875 5.226562 C 5.71875 4.964844 5.503906 4.75 5.242188 4.75 C 4.980469 4.75 4.765625 4.964844 4.765625 5.226562 C 4.765625 5.488281 4.980469 5.703125 5.242188 5.703125 Z M 5.242188 5.703125 "/>
<path style=" stroke:none;fill-rule:nonzero;fill:rgb(0%,0%,0%);fill-opacity:1;" d="M 20.285156 6.566406 C 20.550781 6.566406 20.761719 6.355469 20.761719 6.089844 C 20.761719 5.828125 20.550781 5.613281 20.285156 5.613281 C 20.023438 5.613281 19.808594 5.828125 19.808594 6.089844 C 19.808594 6.355469 20.023438 6.566406 20.285156 6.566406 Z M 20.285156 6.566406 "/>
<path style=" stroke:none;fill-rule:nonzero;fill:rgb(0%,0%,0%);fill-opacity:1;" d="M 22.859375 5.738281 C 23.121094 5.738281 23.335938 5.523438 23.335938 5.261719 C 23.335938 5 23.121094 4.785156 22.859375 4.785156 C 22.597656 4.785156 22.382812 5 22.382812 5.261719 C 22.382812 5.523438 22.597656 5.738281 22.859375 5.738281 Z M 22.859375 5.738281 "/>
</g>
</svg>
