<?xml version="1.0" encoding="UTF-8"?>
<svg xmlns="http://www.w3.org/2000/svg" xmlns:xlink="http://www.w3.org/1999/xlink" width="28pt" height="28pt" viewBox="0 0 28 28" version="1.1">
<g id="surface1">
<path style=" stroke:none;fill-rule:nonzero;fill:rgb(0%,0%,0%);fill-opacity:1;" d="M 14.015625 0 C 6.289062 0 0 6.285156 0 14.015625 L 0 26.699219 C 0 27.433594 0.59375 28.027344 1.332031 28.027344 C 2.066406 28.027344 2.660156 27.433594 2.660156 26.699219 L 2.660156 14.015625 C 2.660156 7.753906 7.753906 2.660156 14.011719 2.660156 C 20.273438 2.660156 25.367188 7.753906 25.367188 14.015625 L 25.367188 26.699219 C 25.367188 27.433594 25.960938 28.027344 26.695312 28.027344 C 27.433594 28.027344 28.027344 27.433594 28.027344 26.699219 L 28.027344 14.015625 C 28.027344 6.285156 21.742188 0 14.015625 0 Z M 14.015625 0 "/>
<path style=" stroke:none;fill-rule:nonzero;fill:rgb(0%,0%,0%);fill-opacity:1;" d="M 19.84375 21.125 L 15.46875 22.4375 L 19.824219 23.746094 L 21.585938 23.214844 C 22.546875 22.929688 22.9375 22.222656 22.457031 21.648438 C 21.976562 21.070312 20.804688 20.835938 19.84375 21.125 Z M 19.84375 21.125 "/>
<path style=" stroke:none;fill-rule:nonzero;fill:rgb(0%,0%,0%);fill-opacity:1;" d="M 6.445312 25.148438 C 5.480469 25.4375 5.089844 26.140625 5.570312 26.71875 C 5.914062 27.125 6.601562 27.363281 7.316406 27.363281 C 7.609375 27.363281 7.910156 27.324219 8.1875 27.238281 L 12.558594 25.929688 L 8.203125 24.617188 Z M 6.445312 25.148438 "/>
<path style=" stroke:none;fill-rule:nonzero;fill:rgb(0%,0%,0%);fill-opacity:1;" d="M 21.585938 25.148438 L 8.1875 21.125 C 7.222656 20.835938 6.054688 21.070312 5.570312 21.648438 C 5.089844 22.222656 5.480469 22.925781 6.445312 23.214844 L 19.84375 27.238281 C 20.121094 27.324219 20.421875 27.363281 20.710938 27.363281 C 21.429688 27.363281 22.117188 27.125 22.457031 26.71875 C 22.9375 26.136719 22.546875 25.4375 21.585938 25.148438 Z M 21.585938 25.148438 "/>
<path style=" stroke:none;fill-rule:nonzero;fill:rgb(0%,0%,0%);fill-opacity:1;" d="M 11.992188 9.339844 C 11.460938 12.347656 9.707031 12.414062 8.957031 15.015625 C 8.355469 17.121094 8.980469 18.667969 10.445312 20.320312 C 9.933594 17.824219 12.398438 16.707031 12.5 14.304688 C 13.515625 15.660156 14.835938 17.347656 14.328125 19.242188 C 15.855469 17.71875 15.34375 14.273438 14.683594 12.617188 C 17.605469 13.933594 15.75 19.308594 18.0625 20.050781 C 17.679688 18.859375 19.679688 17.589844 19.234375 14.710938 C 18.890625 12.519531 16.464844 8.851562 14.378906 6.734375 C 14.558594 9.578125 12.601562 14.039062 11.992188 9.339844 Z M 11.992188 9.339844 "/>
</g>
</svg>
