<?xml version="1.0" encoding="UTF-8"?>
<svg xmlns="http://www.w3.org/2000/svg" xmlns:xlink="http://www.w3.org/1999/xlink" width="28pt" height="28pt" viewBox="0 0 28 28" version="1.1">
<g id="surface1">
<path style=" stroke:none;fill-rule:nonzero;fill:rgb(0%,0%,0%);fill-opacity:1;" d="M 25.84375 26.664062 L 25.84375 5.648438 L 2.15625 5.648438 L 2.15625 26.664062 L 5.070312 26.664062 L 5.070312 17.25 C 5.070312 12.328125 9.078125 8.324219 14 8.324219 C 18.921875 8.324219 22.929688 12.328125 22.929688 17.25 L 22.929688 26.664062 Z M 25.84375 26.664062 "/>
<path style=" stroke:none;fill-rule:nonzero;fill:rgb(0%,0%,0%);fill-opacity:1;" d="M 19.191406 26.664062 L 21.714844 26.664062 L 21.714844 17.25 C 21.714844 12.996094 18.253906 9.539062 14 9.539062 C 9.746094 9.539062 6.285156 12.996094 6.285156 17.25 L 6.285156 26.664062 L 8.886719 26.664062 C 7.882812 24.628906 8.179688 22.414062 8.195312 22.296875 C 8.21875 22.121094 8.320312 21.96875 8.46875 21.871094 C 9.558594 21.175781 10.5625 21.210938 11.199219 21.355469 C 11.644531 19.675781 11.789062 17.980469 11.789062 17.960938 C 11.804688 17.796875 11.882812 17.648438 12.003906 17.542969 C 12.128906 17.441406 12.292969 17.390625 12.453125 17.40625 C 13.984375 17.550781 15.191406 18.390625 15.949219 19.832031 C 16.144531 20.210938 16.289062 20.585938 16.386719 20.910156 C 16.582031 20.636719 16.753906 20.304688 16.851562 20.042969 C 16.917969 19.867188 17.058594 19.734375 17.238281 19.679688 C 17.414062 19.621094 17.609375 19.648438 17.761719 19.753906 C 19.523438 20.949219 20.195312 22.789062 19.699219 25.078125 C 19.574219 25.664062 19.386719 26.207031 19.191406 26.664062 Z M 19.191406 26.664062 "/>
<path style=" stroke:none;fill-rule:nonzero;fill:rgb(0%,0%,0%);fill-opacity:1;" d="M 28 3.339844 L 28 2.429688 C 28 1.824219 27.507812 1.335938 26.90625 1.335938 L 1.09375 1.335938 C 0.492188 1.335938 0 1.824219 0 2.429688 L 0 3.339844 C 0 3.941406 0.492188 4.433594 1.09375 4.433594 L 26.90625 4.433594 C 27.507812 4.433594 28 3.941406 28 3.339844 Z M 28 3.339844 "/>
<path style=" stroke:none;fill-rule:nonzero;fill:rgb(0%,0%,0%);fill-opacity:1;" d="M 16.175781 22.574219 C 16.003906 22.621094 15.820312 22.59375 15.671875 22.492188 C 15.519531 22.390625 15.425781 22.230469 15.40625 22.054688 C 15.390625 21.933594 15.074219 19.332031 12.929688 18.722656 C 12.828125 19.539062 12.605469 20.976562 12.1875 22.320312 C 12.128906 22.5 12.003906 22.644531 11.828125 22.710938 C 11.65625 22.777344 11.46875 22.765625 11.308594 22.671875 C 11.242188 22.636719 10.410156 22.222656 9.371094 22.753906 C 9.332031 23.4375 9.332031 25.226562 10.289062 26.664062 L 17.859375 26.664062 C 18.089844 26.191406 18.363281 25.527344 18.519531 24.792969 C 18.835938 23.292969 18.539062 22.089844 17.636719 21.210938 C 17.335938 21.742188 16.84375 22.382812 16.175781 22.574219 Z M 16.175781 22.574219 "/>
</g>
</svg>
