<?xml version="1.0" encoding="UTF-8"?>
<svg xmlns="http://www.w3.org/2000/svg" xmlns:xlink="http://www.w3.org/1999/xlink" width="28pt" height="28pt" viewBox="0 0 28 28" version="1.1">
<g id="surface1">
<path style=" stroke:none;fill-rule:nonzero;fill:rgb(0%,0%,0%);fill-opacity:1;" d="M 21 26.5 L 21 12.5 L 14.5 12.5 L 14.5 26.5 Z M 18.5 19 L 20.5 19 L 20.5 20 L 18.5 20 Z M 18.5 19 "/>
<path style=" stroke:none;fill-rule:nonzero;fill:rgb(0%,0%,0%);fill-opacity:1;" d="M 28 26.5 L 28 12.5 L 22 12.5 L 22 26.5 Z M 25.5 19 L 27.5 19 L 27.5 20 L 25.5 20 Z M 25.5 19 "/>
<path style=" stroke:none;fill-rule:nonzero;fill:rgb(0%,0%,0%);fill-opacity:1;" d="M 0 10.5 L 28 10.5 L 28 11.5 L 0 11.5 Z M 0 10.5 "/>
<path style=" stroke:none;fill-rule:nonzero;fill:rgb(0%,0%,0%);fill-opacity:1;" d="M 13.5 26.5 L 13.5 12.5 L 7.5 12.5 L 7.5 26.5 Z M 11 19 L 13 19 L 13 20 L 11 20 Z M 11 19 "/>
<path style=" stroke:none;fill-rule:nonzero;fill:rgb(0%,0%,0%);fill-opacity:1;" d="M 0 26.5 L 6.5 26.5 L 6.5 12.5 L 0 12.5 Z M 4 19 L 6 19 L 6 20 L 4 20 Z M 4 19 "/>
<path style=" stroke:none;fill-rule:nonzero;fill:rgb(0%,0%,0%);fill-opacity:1;" d="M 4 7.5 L 10 7.5 L 10 9.5 L 4 9.5 Z M 4 7.5 "/>
<path style=" stroke:none;fill-rule:nonzero;fill:rgb(0%,0%,0%);fill-opacity:1;" d="M 7.5 2 L 7.5 4 L 6.5 4 L 6.5 2.5 L 2.5 2.5 L 2.5 9.5 L 1.5 9.5 L 1.5 2 C 1.5 1.722656 1.722656 1.5 2 1.5 L 7 1.5 C 7.277344 1.5 7.5 1.722656 7.5 2 Z M 7.5 2 "/>
</g>
</svg>
