<?xml version="1.0" encoding="UTF-8"?>
<svg xmlns="http://www.w3.org/2000/svg" xmlns:xlink="http://www.w3.org/1999/xlink" width="28pt" height="28pt" viewBox="0 0 28 28" version="1.1">
<g id="surface1">
<path style=" stroke:none;fill-rule:nonzero;fill:rgb(0%,0%,0%);fill-opacity:1;" d="M 10.886719 19.753906 L 17.113281 19.753906 L 17.113281 24.996094 L 10.886719 24.996094 Z M 10.886719 19.753906 "/>
<path style=" stroke:none;fill-rule:nonzero;fill:rgb(0%,0%,0%);fill-opacity:1;" d="M 26.925781 13.878906 L 21.097656 13.878906 L 21.097656 27.519531 L 26.925781 27.519531 C 27.519531 27.519531 28 27.039062 28 26.449219 L 28 14.949219 C 28 14.359375 27.519531 13.878906 26.925781 13.878906 Z M 26.925781 13.878906 "/>
<path style=" stroke:none;fill-rule:nonzero;fill:rgb(0%,0%,0%);fill-opacity:1;" d="M 1.074219 27.519531 L 7.097656 27.519531 L 7.097656 13.878906 L 1.074219 13.878906 C 0.480469 13.878906 0 14.359375 0 14.949219 L 0 26.449219 C 0 27.039062 0.480469 27.519531 1.074219 27.519531 Z M 1.074219 27.519531 "/>
<path style=" stroke:none;fill-rule:nonzero;fill:rgb(0%,0%,0%);fill-opacity:1;" d="M 8.289062 13.878906 L 8.289062 27.519531 L 19.90625 27.519531 L 19.90625 13.878906 Z M 17.277344 15.851562 C 17.597656 15.851562 17.859375 16.113281 17.859375 16.433594 C 17.859375 16.753906 17.597656 17.011719 17.277344 17.011719 C 16.957031 17.011719 16.695312 16.753906 16.695312 16.433594 C 16.695312 16.113281 16.957031 15.851562 17.277344 15.851562 Z M 15.09375 15.851562 C 15.414062 15.851562 15.671875 16.113281 15.671875 16.433594 C 15.671875 16.753906 15.414062 17.011719 15.09375 17.011719 C 14.769531 17.011719 14.511719 16.753906 14.511719 16.433594 C 14.511719 16.113281 14.769531 15.851562 15.09375 15.851562 Z M 12.90625 15.851562 C 13.230469 15.851562 13.488281 16.113281 13.488281 16.433594 C 13.488281 16.753906 13.230469 17.011719 12.90625 17.011719 C 12.585938 17.011719 12.328125 16.753906 12.328125 16.433594 C 12.328125 16.113281 12.585938 15.851562 12.90625 15.851562 Z M 10.722656 15.851562 C 11.042969 15.851562 11.304688 16.113281 11.304688 16.433594 C 11.304688 16.753906 11.042969 17.011719 10.722656 17.011719 C 10.402344 17.011719 10.140625 16.753906 10.140625 16.433594 C 10.140625 16.113281 10.402344 15.851562 10.722656 15.851562 Z M 18.304688 25.59375 C 18.304688 25.921875 18.039062 26.1875 17.707031 26.1875 L 10.292969 26.1875 C 9.960938 26.1875 9.695312 25.921875 9.695312 25.59375 L 9.695312 19.15625 C 9.695312 18.828125 9.960938 18.5625 10.292969 18.5625 L 17.707031 18.5625 C 18.039062 18.5625 18.304688 18.828125 18.304688 19.15625 Z M 18.304688 25.59375 "/>
<path style=" stroke:none;fill-rule:nonzero;fill:rgb(0%,0%,0%);fill-opacity:1;" d="M 16.085938 6.847656 C 15.722656 6.847656 15.421875 6.546875 15.421875 6.179688 L 15.421875 1.144531 C 15.421875 0.78125 15.121094 0.480469 14.753906 0.480469 L 13.246094 0.480469 C 12.878906 0.480469 12.578125 0.78125 12.578125 1.144531 L 12.578125 6.179688 C 12.578125 6.546875 12.277344 6.847656 11.914062 6.847656 L 9.332031 6.847656 C 8.964844 6.847656 8.667969 7.148438 8.667969 7.511719 L 8.667969 8.800781 C 8.667969 9.167969 8.964844 9.46875 9.332031 9.46875 L 18.667969 9.46875 C 19.035156 9.46875 19.332031 9.167969 19.332031 8.800781 L 19.332031 7.511719 C 19.332031 7.148438 19.035156 6.847656 18.667969 6.847656 Z M 16.085938 6.847656 "/>
</g>
</svg>
