<?xml version="1.0" encoding="UTF-8"?>
<svg xmlns="http://www.w3.org/2000/svg" xmlns:xlink="http://www.w3.org/1999/xlink" width="28pt" height="28pt" viewBox="0 0 28 28" version="1.1">
<g id="surface1">
<path style=" stroke:none;fill-rule:nonzero;fill:rgb(0%,0%,0%);fill-opacity:1;" d="M 4.296875 27.136719 L 22.5 27.136719 L 22.5 28.003906 L 4.296875 28.003906 Z M 4.296875 27.136719 "/>
<path style=" stroke:none;fill-rule:nonzero;fill:rgb(0%,0%,0%);fill-opacity:1;" d="M 13.140625 26.542969 L 19.351562 26.542969 L 17.710938 24.082031 L 16.246094 26.285156 L 14.78125 24.082031 L 13.378906 26.1875 L 11.976562 24.082031 L 10.507812 26.285156 L 9.042969 24.082031 L 7.402344 26.542969 Z M 13.140625 26.542969 "/>
<path style=" stroke:none;fill-rule:nonzero;fill:rgb(0%,0%,0%);fill-opacity:1;" d="M 23.105469 13.898438 C 22.78125 14.011719 22.367188 14.394531 22.09375 14.671875 C 22.082031 13.984375 22.058594 13.507812 22.054688 13.371094 L 22.65625 13.371094 L 22.65625 12.519531 L 5.15625 12.519531 L 5.15625 13.371094 L 5.839844 13.371094 C 5.832031 13.511719 5.808594 14.011719 5.800781 14.722656 C 5.53125 14.460938 5.179688 14.15625 4.894531 14.054688 C 4.371094 13.871094 2.625 14.054688 2.625 14.054688 L 2.625 14.761719 C 2.625 14.761719 4.339844 14.703125 4.710938 14.917969 C 5.078125 15.128906 5.476562 16.945312 5.785156 16.945312 C 5.796875 16.945312 5.816406 16.945312 5.828125 16.945312 C 5.910156 18.878906 6.183594 20.976562 6.925781 21.65625 L 6.003906 21.65625 L 6.003906 22.78125 L 21.730469 22.78125 L 21.730469 21.65625 L 20.96875 21.65625 C 21.730469 20.960938 21.996094 18.761719 22.074219 16.789062 C 22.128906 16.789062 22.175781 16.789062 22.214844 16.789062 C 22.523438 16.789062 22.921875 14.972656 23.289062 14.761719 C 23.660156 14.546875 25.375 14.605469 25.375 14.605469 L 25.375 13.898438 C 25.375 13.898438 23.628906 13.714844 23.105469 13.898438 Z M 7.96875 20.21875 C 7.800781 19.890625 7.640625 19.492188 7.515625 19.050781 C 7.441406 18.835938 7.40625 18.589844 7.355469 18.351562 C 7.296875 18.105469 7.289062 17.863281 7.273438 17.632812 C 7.25 17.410156 7.246094 17.140625 7.261719 16.902344 C 7.265625 16.660156 7.273438 16.425781 7.292969 16.199219 C 7.320312 15.972656 7.308594 15.757812 7.355469 15.546875 C 7.398438 15.34375 7.433594 15.148438 7.46875 14.96875 C 7.613281 14.246094 7.859375 13.816406 7.859375 13.816406 C 7.859375 13.816406 7.855469 13.9375 7.875 14.152344 C 7.898438 14.363281 7.894531 14.648438 7.941406 15.003906 C 7.972656 15.355469 7.996094 15.757812 8.054688 16.195312 C 8.085938 16.410156 8.101562 16.632812 8.121094 16.859375 C 8.128906 17.089844 8.175781 17.289062 8.207031 17.539062 C 8.269531 18.023438 8.335938 18.429688 8.398438 18.863281 C 8.457031 19.289062 8.511719 19.691406 8.558594 20.035156 C 8.644531 20.734375 8.664062 21.242188 8.664062 21.242188 C 8.664062 21.242188 8.300781 20.878906 7.96875 20.21875 Z M 7.96875 20.21875 "/>
<path style=" stroke:none;fill-rule:nonzero;fill:rgb(0%,0%,0%);fill-opacity:1;" d="M 10.113281 7.089844 C 10.214844 7.28125 10.285156 7.335938 10.375 7.464844 L 10.605469 7.742188 C 10.648438 7.835938 10.71875 7.910156 10.75 8.011719 C 10.824219 8.203125 10.90625 8.410156 10.929688 8.632812 C 11.003906 9.074219 11 9.539062 10.980469 9.941406 C 10.929688 10.746094 10.847656 11.335938 10.847656 11.335938 C 10.847656 11.335938 11.28125 10.917969 11.625 10.089844 C 11.707031 9.886719 11.792969 9.65625 11.847656 9.398438 C 11.902344 9.140625 11.957031 8.863281 11.941406 8.558594 C 11.941406 8.261719 11.90625 7.929688 11.785156 7.609375 C 11.738281 7.445312 11.640625 7.292969 11.5625 7.136719 C 11.519531 7.058594 11.457031 6.988281 11.40625 6.917969 L 11.320312 6.808594 L 11.28125 6.753906 L 11.269531 6.742188 C 11.277344 6.75 11.285156 6.757812 11.300781 6.777344 L 11.296875 6.769531 L 11.28125 6.75 C 11.207031 6.652344 11.066406 6.511719 11.050781 6.449219 C 11.015625 6.378906 10.964844 6.316406 10.933594 6.207031 C 10.855469 6.015625 10.796875 5.796875 10.765625 5.574219 C 10.695312 5.125 10.707031 4.664062 10.722656 4.257812 C 10.777344 3.449219 10.847656 2.863281 10.847656 2.863281 C 10.847656 2.863281 10.421875 3.285156 10.078125 4.105469 C 9.90625 4.515625 9.753906 5.03125 9.75 5.632812 C 9.753906 5.929688 9.761719 6.257812 9.882812 6.578125 C 9.921875 6.734375 10.015625 6.914062 10.113281 7.089844 Z M 11.269531 6.742188 C 11.269531 6.742188 11.253906 6.726562 11.269531 6.742188 Z M 11.269531 6.742188 "/>
<path style=" stroke:none;fill-rule:nonzero;fill:rgb(0%,0%,0%);fill-opacity:1;" d="M 12.652344 4.226562 C 12.753906 4.421875 12.824219 4.472656 12.914062 4.601562 L 13.144531 4.882812 C 13.1875 4.972656 13.253906 5.046875 13.285156 5.152344 C 13.363281 5.34375 13.445312 5.546875 13.46875 5.773438 C 13.542969 6.214844 13.539062 6.675781 13.519531 7.078125 C 13.464844 7.886719 13.386719 8.476562 13.386719 8.476562 C 13.386719 8.476562 13.820312 8.058594 14.160156 7.230469 C 14.246094 7.027344 14.332031 6.792969 14.382812 6.539062 C 14.441406 6.28125 14.492188 6 14.480469 5.699219 C 14.480469 5.398438 14.445312 5.070312 14.324219 4.746094 C 14.277344 4.585938 14.179688 4.433594 14.101562 4.273438 C 14.058594 4.199219 13.996094 4.128906 13.945312 4.054688 L 13.863281 3.949219 L 13.820312 3.894531 L 13.808594 3.882812 C 13.816406 3.886719 13.824219 3.894531 13.839844 3.914062 L 13.835938 3.910156 L 13.820312 3.886719 C 13.746094 3.789062 13.605469 3.648438 13.589844 3.589844 C 13.554688 3.515625 13.503906 3.457031 13.472656 3.34375 C 13.394531 3.152344 13.335938 2.933594 13.304688 2.714844 C 13.234375 2.265625 13.246094 1.804688 13.265625 1.398438 C 13.316406 0.589844 13.386719 0 13.386719 0 C 13.386719 0 12.960938 0.421875 12.617188 1.246094 C 12.445312 1.65625 12.292969 2.167969 12.289062 2.769531 C 12.292969 3.070312 12.300781 3.394531 12.421875 3.71875 C 12.464844 3.875 12.554688 4.054688 12.652344 4.226562 Z M 13.808594 3.882812 C 13.8125 3.882812 13.796875 3.863281 13.808594 3.882812 Z M 13.808594 3.882812 "/>
<path style=" stroke:none;fill-rule:nonzero;fill:rgb(0%,0%,0%);fill-opacity:1;" d="M 15.789062 6.824219 C 15.890625 7.015625 15.960938 7.066406 16.050781 7.199219 L 16.28125 7.476562 C 16.324219 7.566406 16.394531 7.644531 16.425781 7.746094 C 16.5 7.9375 16.582031 8.144531 16.605469 8.367188 C 16.679688 8.808594 16.675781 9.269531 16.65625 9.671875 C 16.605469 10.480469 16.527344 11.070312 16.527344 11.070312 C 16.527344 11.070312 16.957031 10.652344 17.300781 9.824219 C 17.382812 9.621094 17.46875 9.390625 17.519531 9.132812 C 17.578125 8.875 17.628906 8.59375 17.617188 8.292969 C 17.617188 7.992188 17.582031 7.664062 17.460938 7.34375 C 17.414062 7.179688 17.316406 7.027344 17.238281 6.867188 C 17.195312 6.792969 17.132812 6.722656 17.082031 6.648438 L 17 6.542969 L 16.957031 6.492188 L 16.949219 6.476562 C 16.953125 6.484375 16.960938 6.492188 16.976562 6.511719 L 16.972656 6.503906 L 16.957031 6.480469 C 16.882812 6.382812 16.742188 6.246094 16.726562 6.183594 C 16.691406 6.109375 16.640625 6.050781 16.609375 5.941406 C 16.53125 5.746094 16.472656 5.527344 16.441406 5.308594 C 16.371094 4.859375 16.382812 4.398438 16.402344 3.992188 C 16.453125 3.183594 16.523438 2.59375 16.523438 2.59375 C 16.523438 2.59375 16.097656 3.015625 15.753906 3.839844 C 15.582031 4.25 15.429688 4.765625 15.425781 5.367188 C 15.429688 5.664062 15.4375 5.992188 15.558594 6.3125 C 15.597656 6.46875 15.691406 6.648438 15.789062 6.824219 Z M 16.945312 6.476562 C 16.949219 6.476562 16.929688 6.457031 16.945312 6.476562 Z M 16.945312 6.476562 "/>
</g>
</svg>
