<?xml version="1.0" encoding="UTF-8"?>
<svg xmlns="http://www.w3.org/2000/svg" xmlns:xlink="http://www.w3.org/1999/xlink" width="28pt" height="28pt" viewBox="0 0 28 28" version="1.1">
<g id="surface1">
<path style=" stroke:none;fill-rule:nonzero;fill:rgb(0%,0%,0%);fill-opacity:1;" d="M 18.660156 5.777344 C 18.660156 2.585938 16.804688 0 14.515625 0 C 12.230469 0 10.375 2.585938 10.375 5.777344 C 10.375 8.207031 11.453125 10.285156 12.980469 11.136719 L 12.746094 28 L 16.285156 28 L 16.054688 11.136719 C 17.582031 10.285156 18.660156 8.207031 18.660156 5.777344 Z M 18.660156 5.777344 "/>
<path style=" stroke:none;fill-rule:nonzero;fill:rgb(0%,0%,0%);fill-opacity:1;" d="M 6.742188 1.539062 L 6.742188 9.71875 C 6.742188 10.09375 6.496094 10.429688 6.144531 10.546875 L 3.507812 10.546875 C 3.15625 10.429688 2.910156 10.09375 2.910156 9.71875 L 2.910156 1.539062 L 1.085938 1.539062 L 1.085938 9.71875 C 1.085938 10.988281 1.949219 12.070312 3.183594 12.347656 L 3.273438 12.367188 L 3.054688 28 L 6.597656 28 L 6.378906 12.367188 L 6.46875 12.347656 C 7.703125 12.070312 8.566406 10.988281 8.566406 9.71875 L 8.566406 1.539062 Z M 6.742188 1.539062 "/>
<path style=" stroke:none;fill-rule:nonzero;fill:rgb(0%,0%,0%);fill-opacity:1;" d="M 3.914062 1.539062 L 5.738281 1.539062 L 5.738281 9.253906 L 3.914062 9.253906 Z M 3.914062 1.539062 "/>
<path style=" stroke:none;fill-rule:nonzero;fill:rgb(0%,0%,0%);fill-opacity:1;" d="M 26.914062 28 L 26.621094 0.675781 C 26.621094 0.675781 21.808594 0 21.808594 14.4375 L 23.542969 15.882812 L 23.375 28 Z M 26.914062 28 "/>
</g>
</svg>
