<?xml version="1.0" encoding="UTF-8"?>
<svg xmlns="http://www.w3.org/2000/svg" xmlns:xlink="http://www.w3.org/1999/xlink" width="28pt" height="28pt" viewBox="0 0 28 28" version="1.1">
<g id="surface1">
<path style=" stroke:none;fill-rule:nonzero;fill:rgb(0%,0%,0%);fill-opacity:1;" d="M 25.894531 2.109375 C 24.53125 0.75 22.726562 0 20.800781 0 C 18.878906 0 17.070312 0.75 15.710938 2.109375 C 14.28125 3.539062 12.421875 7.417969 11.160156 10.566406 C 10.460938 12.3125 9.886719 13.976562 9.542969 15.253906 C 9.480469 15.5 9.417969 15.734375 9.367188 15.953125 L 12.042969 18.628906 C 13.40625 18.324219 15.5 17.65625 18.339844 16.46875 C 19.703125 15.898438 24.265625 13.914062 25.894531 12.289062 C 28.699219 9.480469 28.699219 4.914062 25.894531 2.109375 Z M 12.902344 10.695312 C 14.351562 7.164062 15.917969 4.257812 16.886719 3.285156 C 17.933594 2.238281 19.324219 1.664062 20.800781 1.664062 C 21.144531 1.664062 21.480469 1.695312 21.8125 1.753906 C 19.378906 2.636719 16.675781 5.289062 13.773438 9.636719 C 13.351562 10.273438 12.945312 10.914062 12.5625 11.542969 C 12.671875 11.269531 12.785156 10.988281 12.902344 10.695312 Z M 15.160156 10.5625 C 17.84375 6.53125 20.363281 4.019531 22.4375 3.296875 C 22.894531 3.136719 23.328125 3.070312 23.734375 3.089844 L 13.347656 13.476562 C 13.894531 12.539062 14.503906 11.546875 15.160156 10.5625 Z M 24.910156 4.265625 C 24.933594 4.675781 24.863281 5.105469 24.703125 5.566406 C 23.984375 7.640625 21.472656 10.15625 17.441406 12.839844 C 16.453125 13.496094 15.460938 14.109375 14.523438 14.652344 Z M 24.714844 11.113281 C 23.792969 12.035156 21.039062 13.535156 17.699219 14.933594 C 17.28125 15.109375 16.863281 15.277344 16.457031 15.4375 C 17.085938 15.054688 17.726562 14.648438 18.363281 14.226562 C 22.710938 11.328125 25.359375 8.628906 26.242188 6.195312 C 26.558594 7.925781 26.050781 9.777344 24.714844 11.113281 Z M 24.714844 11.113281 "/>
<path style=" stroke:none;fill-rule:nonzero;fill:rgb(0%,0%,0%);fill-opacity:1;" d="M 7.605469 16.546875 L 0.796875 23.351562 C -0.261719 24.414062 -0.261719 26.140625 0.796875 27.203125 C 1.3125 27.714844 1.996094 28 2.722656 28 C 3.449219 28 4.132812 27.714844 4.648438 27.203125 L 11.457031 20.394531 Z M 7.605469 16.546875 "/>
</g>
</svg>
