<?xml version="1.0" encoding="UTF-8"?>
<svg xmlns="http://www.w3.org/2000/svg" xmlns:xlink="http://www.w3.org/1999/xlink" width="28pt" height="28pt" viewBox="0 0 28 28" version="1.1">
<g id="surface1">
<path style=" stroke:none;fill-rule:nonzero;fill:rgb(0%,0%,0%);fill-opacity:1;" d="M 17.507812 17.089844 C 17.625 16.949219 17.648438 16.75 17.570312 16.585938 C 17.492188 16.417969 17.324219 16.3125 17.140625 16.3125 L 0.472656 16.3125 C 0.292969 16.3125 0.125 16.417969 0.046875 16.585938 C -0.03125 16.75 -0.0078125 16.949219 0.109375 17.089844 L 2.234375 19.683594 L 2.679688 21.179688 C 2.738281 21.382812 2.925781 21.519531 3.132812 21.519531 L 14.480469 21.519531 C 14.691406 21.519531 14.878906 21.382812 14.9375 21.179688 L 15.382812 19.683594 Z M 16.140625 17.261719 L 14.730469 18.984375 L 2.886719 18.984375 L 1.476562 17.261719 Z M 14.128906 20.570312 L 3.488281 20.570312 L 3.300781 19.933594 L 14.316406 19.933594 Z M 14.128906 20.570312 "/>
<path style=" stroke:none;fill-rule:nonzero;fill:rgb(0%,0%,0%);fill-opacity:1;" d="M 20.800781 12.574219 C 22.054688 13.523438 22.996094 14.871094 23.445312 16.371094 C 23.507812 16.574219 23.695312 16.707031 23.902344 16.707031 C 23.945312 16.707031 23.992188 16.703125 24.039062 16.6875 C 24.289062 16.613281 24.429688 16.347656 24.355469 16.097656 C 23.847656 14.40625 22.789062 12.886719 21.371094 11.816406 C 19.90625 10.707031 18.160156 10.125 16.324219 10.125 C 16.0625 10.125 15.851562 10.335938 15.851562 10.597656 C 15.851562 10.859375 16.0625 11.074219 16.324219 11.074219 C 17.953125 11.074219 19.5 11.589844 20.800781 12.574219 Z M 20.800781 12.574219 "/>
<path style=" stroke:none;fill-rule:nonzero;fill:rgb(0%,0%,0%);fill-opacity:1;" d="M 27.527344 18.152344 L 26.285156 18.152344 C 26.113281 13.277344 22.425781 9.285156 17.683594 8.632812 C 17.777344 8.4375 17.832031 8.21875 17.832031 7.984375 C 17.832031 7.15625 17.15625 6.480469 16.324219 6.480469 C 15.496094 6.480469 14.820312 7.15625 14.820312 7.984375 C 14.820312 8.21875 14.871094 8.4375 14.964844 8.632812 C 13.410156 8.84375 11.929688 9.421875 10.628906 10.332031 C 8.988281 11.472656 7.746094 13.058594 7.027344 14.914062 C 6.933594 15.160156 7.054688 15.433594 7.296875 15.527344 C 7.542969 15.621094 7.816406 15.5 7.910156 15.257812 C 8.5625 13.578125 9.6875 12.144531 11.171875 11.109375 C 12.6875 10.050781 14.46875 9.492188 16.324219 9.492188 C 21.179688 9.492188 25.148438 13.34375 25.335938 18.152344 L 17.628906 18.152344 C 17.367188 18.152344 17.15625 18.367188 17.15625 18.628906 C 17.15625 18.890625 17.367188 19.101562 17.628906 19.101562 L 27.527344 19.101562 C 27.789062 19.101562 28 18.890625 28 18.628906 C 28 18.367188 27.789062 18.152344 27.527344 18.152344 Z M 15.769531 7.984375 C 15.769531 7.679688 16.019531 7.429688 16.324219 7.429688 C 16.632812 7.429688 16.882812 7.679688 16.882812 7.984375 C 16.882812 8.292969 16.632812 8.542969 16.324219 8.542969 C 16.019531 8.542969 15.769531 8.292969 15.769531 7.984375 Z M 15.769531 7.984375 "/>
</g>
</svg>
