<?xml version="1.0" encoding="UTF-8"?>
<svg xmlns="http://www.w3.org/2000/svg" xmlns:xlink="http://www.w3.org/1999/xlink" width="28pt" height="28pt" viewBox="0 0 28 28" version="1.1">
<g id="surface1">
<path style=" stroke:none;fill-rule:nonzero;fill:rgb(0%,0.392157%,0%);fill-opacity:1;" d="M 4.992188 0 C 3.601562 0 1.753906 3.746094 1.753906 6.609375 C 1.753906 8.496094 2.386719 9.519531 3.332031 9.996094 C 4.089844 10.386719 4.535156 11.199219 4.453125 12.050781 L 3.097656 25.910156 C 3.042969 26.445312 3.222656 26.976562 3.582031 27.375 C 3.941406 27.773438 4.453125 28 4.992188 28 C 5.53125 28 6.042969 27.773438 6.402344 27.375 C 6.765625 26.976562 6.941406 26.445312 6.886719 25.910156 L 5.53125 12.050781 C 5.449219 11.199219 5.894531 10.386719 6.65625 9.996094 C 7.597656 9.519531 8.230469 8.496094 8.230469 6.609375 C 8.230469 3.746094 6.457031 0 4.992188 0 Z M 4.992188 0 "/>
<path style=" stroke:none;fill-rule:nonzero;fill:rgb(0%,0.392157%,0%);fill-opacity:1;" d="M 17.414062 0 C 17.160156 0 16.949219 0.207031 16.949219 0.464844 L 16.949219 6.183594 C 16.949219 6.441406 16.742188 6.648438 16.484375 6.648438 C 16.226562 6.648438 16.019531 6.441406 16.019531 6.183594 L 16.019531 0.464844 C 16.019531 0.207031 15.808594 0 15.554688 0 L 15.546875 0 C 15.292969 0 15.085938 0.207031 15.085938 0.464844 L 15.085938 6.183594 C 15.085938 6.441406 14.875 6.648438 14.617188 6.648438 C 14.359375 6.648438 14.152344 6.441406 14.152344 6.183594 L 14.152344 0.464844 C 14.152344 0.207031 13.941406 0 13.6875 0 L 13.679688 0 C 13.425781 0 13.21875 0.207031 13.21875 0.464844 L 13.21875 6.183594 C 13.21875 6.441406 13.007812 6.648438 12.75 6.648438 C 12.492188 6.648438 12.285156 6.441406 12.285156 6.183594 L 12.285156 0.464844 C 12.285156 0.207031 12.078125 0 11.820312 0 C 11.578125 0 11.378906 0.195312 11.378906 0.4375 C 11.378906 1.886719 11.378906 6.417969 11.378906 6.609375 C 11.378906 8.496094 12.011719 9.519531 12.953125 9.996094 C 13.714844 10.386719 14.160156 11.199219 14.078125 12.050781 L 12.722656 25.910156 C 12.667969 26.445312 12.84375 26.976562 13.207031 27.375 C 13.566406 27.773438 14.078125 28 14.617188 28 C 15.15625 28 15.667969 27.773438 16.027344 27.375 C 16.390625 26.976562 16.566406 26.445312 16.511719 25.910156 L 15.15625 12.050781 C 15.074219 11.199219 15.519531 10.386719 16.28125 9.996094 C 17.222656 9.519531 17.855469 8.496094 17.855469 6.609375 C 17.855469 6.417969 17.855469 1.886719 17.855469 0.4375 C 17.855469 0.195312 17.660156 0 17.414062 0 Z M 17.414062 0 "/>
<path style=" stroke:none;fill-rule:nonzero;fill:rgb(0%,0.392157%,0%);fill-opacity:1;" d="M 24.992188 13.222656 C 25.167969 13.222656 25.3125 13.082031 25.3125 12.90625 L 25.3125 0.558594 C 25.3125 0.25 25.0625 0 24.753906 0 C 24.484375 0 24.25 0.175781 24.175781 0.433594 L 22.242188 7.175781 C 21.679688 9.148438 22.023438 11.269531 23.1875 12.960938 C 23.300781 13.125 23.488281 13.222656 23.6875 13.222656 L 22.445312 25.910156 C 22.390625 26.445312 22.570312 26.976562 22.929688 27.375 C 23.289062 27.773438 23.800781 28 24.339844 28 C 24.878906 28 25.390625 27.773438 25.75 27.375 C 26.113281 26.976562 26.289062 26.445312 26.234375 25.910156 Z M 24.992188 13.222656 "/>
</g>
</svg>
