<?xml version="1.0" encoding="UTF-8"?>
<svg xmlns="http://www.w3.org/2000/svg" xmlns:xlink="http://www.w3.org/1999/xlink" width="28pt" height="28pt" viewBox="0 0 28 28" version="1.1">
<g id="surface1">
<path style=" stroke:none;fill-rule:nonzero;fill:rgb(0%,0%,0%);fill-opacity:1;" d="M 14 0.0820312 L 0 13.921875 L 2.1875 13.921875 L 2.1875 27.917969 L 25.8125 27.917969 L 25.8125 13.921875 L 28 13.921875 Z M 20.332031 26.265625 L 7.667969 26.265625 L 7.667969 25.414062 L 20.332031 25.414062 Z M 20.332031 23.757812 L 7.667969 23.757812 L 7.667969 22.90625 L 20.332031 22.90625 Z M 20.332031 21.25 L 7.667969 21.25 L 7.667969 20.398438 L 20.332031 20.398438 Z M 20.332031 18.742188 L 7.667969 18.742188 L 7.667969 17.890625 L 20.332031 17.890625 Z M 20.332031 16.238281 L 7.667969 16.238281 L 7.667969 15.382812 L 20.332031 15.382812 Z M 24.160156 26.265625 L 21.988281 26.265625 L 21.988281 13.730469 L 6.011719 13.730469 L 6.011719 26.265625 L 3.839844 26.265625 L 3.839844 12.449219 L 14 2.40625 L 24.160156 12.449219 Z M 24.160156 26.265625 "/>
</g>
</svg>
