<?xml version="1.0" encoding="UTF-8"?>
<svg xmlns="http://www.w3.org/2000/svg" xmlns:xlink="http://www.w3.org/1999/xlink" width="28pt" height="28pt" viewBox="0 0 28 28" version="1.1">
<g id="surface1">
<path style=" stroke:none;fill-rule:nonzero;fill:rgb(0%,0%,0%);fill-opacity:1;" d="M 27.351562 5.550781 L 0.648438 5.550781 C 0.289062 5.550781 0 5.84375 0 6.203125 L 0 21.796875 C 0 22.15625 0.289062 22.449219 0.648438 22.449219 L 3.058594 22.449219 C 3.417969 22.449219 3.707031 22.15625 3.707031 21.796875 L 3.707031 18.53125 L 6.890625 18.53125 L 6.890625 19.179688 C 6.890625 20.039062 7.488281 20.757812 8.285156 20.953125 C 8.351562 21.238281 8.609375 21.453125 8.917969 21.453125 L 10.261719 21.453125 C 10.550781 21.453125 10.792969 21.265625 10.878906 21.003906 L 17.121094 21.003906 C 17.207031 21.265625 17.449219 21.453125 17.738281 21.453125 L 19.082031 21.453125 C 19.390625 21.453125 19.648438 21.238281 19.714844 20.953125 C 20.511719 20.757812 21.109375 20.039062 21.109375 19.179688 L 21.109375 18.53125 L 24.292969 18.53125 L 24.292969 21.796875 C 24.292969 22.15625 24.582031 22.449219 24.941406 22.449219 L 27.351562 22.449219 C 27.710938 22.449219 28 22.15625 28 21.796875 L 28 6.203125 C 28 5.84375 27.710938 5.550781 27.351562 5.550781 Z M 19.808594 19.179688 C 19.808594 19.472656 19.574219 19.707031 19.285156 19.707031 L 8.714844 19.707031 C 8.425781 19.707031 8.191406 19.472656 8.191406 19.179688 L 8.191406 18.53125 L 9.128906 18.53125 C 9.183594 18.824219 9.4375 19.042969 9.746094 19.042969 C 10.050781 19.042969 10.304688 18.824219 10.359375 18.53125 L 17.640625 18.53125 C 17.695312 18.824219 17.949219 19.042969 18.253906 19.042969 C 18.5625 19.042969 18.816406 18.824219 18.871094 18.53125 L 19.808594 18.53125 Z M 20.460938 17.234375 L 3.707031 17.234375 L 3.707031 16.738281 L 24.292969 16.738281 L 24.292969 17.234375 Z M 24.292969 13.15625 L 24.292969 13.648438 L 3.707031 13.648438 L 3.707031 13.15625 Z M 24.292969 14.949219 L 24.292969 15.441406 L 3.707031 15.441406 L 3.707031 14.949219 Z M 24.292969 11.363281 L 24.292969 11.855469 L 3.707031 11.855469 L 3.707031 11.363281 Z M 24.292969 10.066406 L 3.707031 10.066406 L 3.707031 9.539062 L 24.292969 9.539062 Z M 26.703125 21.148438 L 25.589844 21.148438 L 25.589844 8.890625 C 25.589844 8.53125 25.300781 8.242188 24.941406 8.242188 L 3.058594 8.242188 C 2.699219 8.242188 2.410156 8.53125 2.410156 8.890625 L 2.410156 21.148438 L 1.296875 21.148438 L 1.296875 6.851562 L 26.703125 6.851562 Z M 26.703125 21.148438 "/>
</g>
</svg>
