<?xml version="1.0" encoding="UTF-8"?>
<svg xmlns="http://www.w3.org/2000/svg" xmlns:xlink="http://www.w3.org/1999/xlink" width="28pt" height="28pt" viewBox="0 0 28 28" version="1.1">
<g id="surface1">
<path style=" stroke:none;fill-rule:nonzero;fill:rgb(0%,0%,0%);fill-opacity:1;" d="M 27.902344 8.148438 C 27.804688 8.003906 27.640625 7.917969 27.46875 7.917969 L 26.878906 7.917969 C 26.984375 7.714844 27.042969 7.484375 27.042969 7.238281 C 27.042969 6.414062 26.371094 5.738281 25.542969 5.738281 C 24.714844 5.738281 24.042969 6.414062 24.042969 7.238281 C 24.042969 7.484375 24.101562 7.714844 24.207031 7.917969 L 23.421875 7.917969 C 23.238281 7.917969 23.066406 8.015625 22.972656 8.175781 C 22.878906 8.335938 22.878906 8.535156 22.96875 8.695312 L 23.644531 9.894531 C 23.722656 10.03125 23.855469 10.125 24.003906 10.152344 L 24.003906 11.453125 C 23.332031 11.429688 22.777344 11.355469 22.3125 11.234375 C 22.289062 11.226562 22.269531 11.222656 22.246094 11.21875 C 21.03125 10.894531 20.414062 10.289062 19.769531 9.65625 C 18.882812 8.785156 17.964844 7.882812 15.617188 7.792969 C 15.550781 7.335938 15.15625 6.988281 14.679688 6.988281 L 13.308594 6.988281 C 12.835938 6.988281 12.441406 7.335938 12.371094 7.792969 C 10.023438 7.882812 9.105469 8.785156 8.21875 9.65625 C 7.574219 10.289062 6.957031 10.894531 5.742188 11.21875 C 5.71875 11.222656 5.699219 11.226562 5.675781 11.234375 C 5.210938 11.355469 4.65625 11.429688 3.984375 11.453125 L 3.984375 10.152344 C 4.132812 10.125 4.269531 10.03125 4.34375 9.894531 L 5.019531 8.695312 C 5.109375 8.535156 5.109375 8.335938 5.015625 8.175781 C 4.925781 8.015625 4.753906 7.917969 4.566406 7.917969 L 3.78125 7.917969 C 3.886719 7.714844 3.945312 7.484375 3.945312 7.238281 C 3.945312 6.414062 3.273438 5.738281 2.445312 5.738281 C 1.617188 5.738281 0.945312 6.414062 0.945312 7.238281 C 0.945312 7.484375 1.003906 7.714844 1.109375 7.917969 L 0.519531 7.917969 C 0.347656 7.917969 0.183594 8.003906 0.0898438 8.148438 C -0.0078125 8.292969 -0.0273438 8.472656 0.0390625 8.632812 L 0.527344 9.835938 C 0.59375 10 0.738281 10.117188 0.90625 10.148438 L 0.90625 12.488281 C 0.90625 12.714844 1.089844 12.898438 1.316406 12.898438 C 1.542969 12.898438 1.726562 12.714844 1.726562 12.488281 L 1.726562 10.160156 L 3.164062 10.160156 L 3.164062 21.492188 L 1.726562 21.492188 L 1.726562 14.132812 C 1.726562 13.90625 1.542969 13.722656 1.316406 13.722656 C 1.089844 13.722656 0.90625 13.90625 0.90625 14.132812 L 0.90625 21.792969 C 0.90625 22.082031 1.140625 22.3125 1.425781 22.3125 L 26.5625 22.3125 C 26.847656 22.3125 27.082031 22.082031 27.082031 21.792969 L 27.082031 12.695312 C 27.082031 12.46875 26.898438 12.285156 26.671875 12.285156 C 26.445312 12.285156 26.261719 12.46875 26.261719 12.695312 L 26.261719 21.496094 L 24.824219 21.496094 L 24.824219 10.160156 L 26.261719 10.160156 L 26.261719 11.066406 C 26.261719 11.292969 26.445312 11.476562 26.671875 11.476562 C 26.898438 11.476562 27.082031 11.292969 27.082031 11.066406 L 27.082031 10.148438 C 27.25 10.117188 27.394531 10 27.460938 9.835938 L 27.949219 8.632812 C 28.015625 8.472656 27.996094 8.292969 27.902344 8.148438 Z M 24.863281 7.238281 C 24.863281 6.863281 25.167969 6.558594 25.542969 6.558594 C 25.917969 6.558594 26.222656 6.863281 26.222656 7.238281 C 26.222656 7.613281 25.917969 7.917969 25.542969 7.917969 C 25.167969 7.917969 24.863281 7.613281 24.863281 7.238281 Z M 24.003906 18.835938 L 22.585938 18.835938 L 22.585938 12.128906 C 23.003906 12.207031 23.472656 12.257812 24.003906 12.273438 Z M 20.226562 18.835938 L 20.226562 11.152344 C 20.636719 11.453125 21.128906 11.726562 21.765625 11.929688 L 21.765625 18.835938 Z M 19.40625 10.445312 L 19.40625 18.835938 L 17.867188 18.835938 L 17.867188 9.164062 C 18.394531 9.453125 18.78125 9.835938 19.195312 10.242188 C 19.265625 10.308594 19.335938 10.378906 19.40625 10.445312 Z M 15.628906 8.613281 C 16.191406 8.636719 16.65625 8.710938 17.046875 8.824219 L 17.046875 18.835938 L 15.628906 18.835938 Z M 12.359375 18.835938 L 10.941406 18.835938 L 10.941406 8.824219 C 11.335938 8.710938 11.796875 8.636719 12.359375 8.613281 Z M 10.121094 9.164062 L 10.121094 18.835938 L 8.582031 18.835938 L 8.582031 10.445312 C 8.652344 10.378906 8.722656 10.308594 8.792969 10.242188 C 9.207031 9.835938 9.59375 9.453125 10.121094 9.164062 Z M 6.222656 18.835938 L 6.222656 11.929688 C 6.859375 11.726562 7.351562 11.453125 7.761719 11.152344 L 7.761719 18.835938 Z M 5.402344 12.128906 L 5.402344 18.835938 L 3.984375 18.835938 L 3.984375 12.273438 C 4.515625 12.257812 4.984375 12.207031 5.402344 12.128906 Z M 1.765625 7.238281 C 1.765625 6.863281 2.070312 6.558594 2.445312 6.558594 C 2.820312 6.558594 3.125 6.863281 3.125 7.238281 C 3.125 7.613281 2.820312 7.917969 2.445312 7.917969 C 2.070312 7.917969 1.765625 7.613281 1.765625 7.238281 Z M 1.210938 9.339844 L 0.964844 8.738281 L 4.054688 8.738281 L 3.714844 9.339844 Z M 3.984375 19.65625 L 12.359375 19.65625 L 12.359375 21.492188 L 3.984375 21.492188 Z M 13.179688 7.933594 C 13.179688 7.863281 13.238281 7.804688 13.308594 7.804688 L 13.589844 7.804688 L 13.589844 11.046875 C 13.589844 11.273438 13.769531 11.457031 13.996094 11.457031 C 14.222656 11.457031 14.40625 11.273438 14.40625 11.046875 L 14.40625 7.804688 L 14.679688 7.804688 C 14.75 7.804688 14.808594 7.863281 14.808594 7.933594 L 14.808594 21.492188 L 14.40625 21.492188 L 14.40625 12.695312 C 14.40625 12.46875 14.222656 12.285156 13.996094 12.285156 C 13.769531 12.285156 13.589844 12.46875 13.589844 12.695312 L 13.589844 21.492188 L 13.179688 21.492188 Z M 24.003906 21.492188 L 15.628906 21.492188 L 15.628906 19.65625 L 24.003906 19.65625 Z M 24.273438 9.339844 L 23.933594 8.738281 L 27.023438 8.738281 L 26.777344 9.339844 Z M 24.273438 9.339844 "/>
</g>
</svg>
