<?xml version="1.0" encoding="UTF-8"?>
<svg xmlns="http://www.w3.org/2000/svg" xmlns:xlink="http://www.w3.org/1999/xlink" width="28pt" height="28pt" viewBox="0 0 28 28" version="1.1">
<g id="surface1">
<path style=" stroke:none;fill-rule:nonzero;fill:rgb(0%,0%,0%);fill-opacity:1;" d="M 16.460938 7 L 18.101562 7 L 18.101562 19.304688 L 16.460938 19.304688 Z M 16.460938 7 "/>
<path style=" stroke:none;fill-rule:nonzero;fill:rgb(0%,0%,0%);fill-opacity:1;" d="M 19.742188 7 L 21.382812 7 L 21.382812 19.304688 L 19.742188 19.304688 Z M 19.742188 7 "/>
<path style=" stroke:none;fill-rule:nonzero;fill:rgb(0%,0%,0%);fill-opacity:1;" d="M 6.617188 7 L 8.257812 7 L 8.257812 19.304688 L 6.617188 19.304688 Z M 6.617188 7 "/>
<path style=" stroke:none;fill-rule:nonzero;fill:rgb(0%,0%,0%);fill-opacity:1;" d="M 9.898438 7 L 11.539062 7 L 11.539062 19.304688 L 9.898438 19.304688 Z M 9.898438 7 "/>
<path style=" stroke:none;fill-rule:nonzero;fill:rgb(0%,0%,0%);fill-opacity:1;" d="M 0 3.71875 L 0 24.226562 L 4.976562 24.226562 L 4.976562 22.585938 L 23.023438 22.585938 L 23.023438 24.226562 L 28 24.226562 L 28 3.71875 Z M 3.335938 22.585938 L 1.640625 22.585938 L 1.640625 5.359375 L 3.335938 5.359375 Z M 4.976562 5.359375 L 13.179688 5.359375 L 13.179688 20.945312 L 4.976562 20.945312 Z M 14.820312 20.945312 L 14.820312 5.359375 L 23.023438 5.359375 L 23.023438 20.945312 Z M 26.359375 22.585938 L 24.664062 22.585938 L 24.664062 5.359375 L 26.359375 5.359375 Z M 26.359375 22.585938 "/>
</g>
</svg>
