<?xml version="1.0" encoding="UTF-8"?>
<svg xmlns="http://www.w3.org/2000/svg" xmlns:xlink="http://www.w3.org/1999/xlink" width="28pt" height="28pt" viewBox="0 0 28 28" version="1.1">
<g id="surface1">
<path style=" stroke:none;fill-rule:nonzero;fill:rgb(0%,0%,0%);fill-opacity:1;" d="M 27.128906 3.222656 C 26.648438 3.222656 26.257812 3.609375 26.257812 4.089844 L 26.257812 7.496094 L 25.621094 7.496094 L 25.621094 6.777344 C 25.621094 4.816406 24.023438 3.222656 22.0625 3.222656 C 20.992188 3.222656 20.027344 3.699219 19.375 4.453125 C 18.722656 3.699219 17.757812 3.222656 16.6875 3.222656 C 15.613281 3.222656 14.652344 3.699219 14 4.453125 C 13.347656 3.699219 12.386719 3.222656 11.3125 3.222656 C 10.238281 3.222656 9.277344 3.699219 8.625 4.453125 C 7.972656 3.699219 7.007812 3.222656 5.9375 3.222656 C 3.976562 3.222656 2.378906 4.816406 2.378906 6.777344 L 2.378906 7.496094 L 0.871094 7.496094 C 0.390625 7.496094 0 7.886719 0 8.367188 C 0 8.847656 0.390625 9.234375 0.871094 9.234375 L 2.378906 9.234375 L 2.378906 21.222656 C 2.378906 23.183594 3.976562 24.777344 5.9375 24.777344 C 7.007812 24.777344 7.972656 24.300781 8.625 23.546875 C 9.277344 24.300781 10.238281 24.777344 11.3125 24.777344 C 12.386719 24.777344 13.347656 24.300781 14 23.546875 C 14.652344 24.300781 15.613281 24.777344 16.6875 24.777344 C 17.757812 24.777344 18.722656 24.300781 19.375 23.546875 C 20.027344 24.300781 20.988281 24.777344 22.0625 24.777344 C 24.023438 24.777344 25.621094 23.183594 25.621094 21.222656 L 25.621094 9.234375 L 27.128906 9.234375 C 27.609375 9.234375 28 8.847656 28 8.367188 L 28 4.089844 C 28 3.609375 27.609375 3.222656 27.128906 3.222656 Z M 5.9375 23.039062 C 4.933594 23.039062 4.117188 22.222656 4.117188 21.222656 L 4.117188 6.777344 C 4.117188 5.777344 4.933594 4.960938 5.9375 4.960938 C 6.9375 4.960938 7.753906 5.777344 7.753906 6.777344 L 7.753906 21.222656 C 7.753906 22.222656 6.9375 23.039062 5.9375 23.039062 Z M 11.3125 23.039062 C 10.308594 23.039062 9.496094 22.222656 9.496094 21.222656 L 9.496094 6.777344 C 9.496094 5.777344 10.308594 4.960938 11.3125 4.960938 C 12.316406 4.960938 13.128906 5.777344 13.128906 6.777344 L 13.128906 21.222656 C 13.128906 22.222656 12.316406 23.039062 11.3125 23.039062 Z M 16.6875 23.039062 C 15.683594 23.039062 14.871094 22.222656 14.871094 21.222656 L 14.871094 6.777344 C 14.871094 5.777344 15.683594 4.960938 16.6875 4.960938 C 17.6875 4.960938 18.503906 5.777344 18.503906 6.777344 L 18.503906 21.222656 C 18.503906 22.222656 17.6875 23.039062 16.6875 23.039062 Z M 23.878906 21.222656 C 23.878906 22.222656 23.066406 23.039062 22.0625 23.039062 C 21.058594 23.039062 20.246094 22.222656 20.246094 21.222656 L 20.246094 6.777344 C 20.246094 5.777344 21.058594 4.960938 22.0625 4.960938 C 23.066406 4.960938 23.878906 5.777344 23.878906 6.777344 Z M 23.878906 21.222656 "/>
</g>
</svg>
