<?xml version="1.0" encoding="UTF-8"?>
<svg xmlns="http://www.w3.org/2000/svg" xmlns:xlink="http://www.w3.org/1999/xlink" width="28pt" height="28pt" viewBox="0 0 28 28" version="1.1">
<g id="surface1">
<path style=" stroke:none;fill-rule:nonzero;fill:rgb(0%,0%,0%);fill-opacity:1;" d="M 18.445312 5.601562 L 20.949219 5.601562 C 21.410156 5.601562 21.808594 5.238281 21.808594 4.742188 C 21.808594 4.28125 21.445312 3.886719 20.949219 3.886719 L 18.445312 3.886719 C 17.984375 3.886719 17.589844 4.25 17.589844 4.742188 C 17.589844 5.238281 17.984375 5.601562 18.445312 5.601562 Z M 18.445312 5.601562 "/>
<path style=" stroke:none;fill-rule:nonzero;fill:rgb(0%,0%,0%);fill-opacity:1;" d="M 22.269531 12.648438 L 18.445312 12.648438 C 17.984375 12.648438 17.589844 13.011719 17.589844 13.507812 C 17.589844 13.96875 17.953125 14.363281 18.445312 14.363281 L 22.269531 14.363281 C 22.730469 14.363281 23.125 14 23.125 13.507812 C 23.125 13.011719 22.730469 12.648438 22.269531 12.648438 Z M 22.269531 12.648438 "/>
<path style=" stroke:none;fill-rule:nonzero;fill:rgb(0%,0%,0%);fill-opacity:1;" d="M 18.414062 17.226562 C 18.214844 16.832031 17.953125 16.46875 17.65625 16.109375 C 17.457031 15.878906 17.226562 15.648438 17.03125 15.417969 L 17.03125 4.941406 C 17.03125 4.28125 16.898438 3.625 16.667969 3.0625 C 15.878906 1.1875 14.132812 0 12.089844 0 C 10.046875 0 8.300781 1.1875 7.511719 3.0625 C 7.28125 3.65625 7.148438 4.28125 7.148438 4.941406 L 7.148438 15.449219 C 6.917969 15.648438 6.71875 15.878906 6.523438 16.140625 C 6.226562 16.503906 5.996094 16.867188 5.765625 17.261719 C 5.46875 17.789062 5.238281 18.347656 5.105469 18.941406 C 4.941406 19.535156 4.875 20.128906 4.875 20.753906 C 4.875 21.742188 5.074219 22.664062 5.433594 23.519531 C 5.796875 24.410156 6.359375 25.199219 7.015625 25.859375 C 7.675781 26.519531 8.464844 27.042969 9.355469 27.441406 C 10.210938 27.800781 11.132812 28 12.121094 28 C 14.132812 28 15.945312 27.175781 17.226562 25.890625 C 17.886719 25.234375 18.414062 24.441406 18.808594 23.554688 C 19.171875 22.695312 19.371094 21.773438 19.371094 20.785156 C 19.371094 20.160156 19.304688 19.566406 19.140625 18.972656 C 18.941406 18.316406 18.710938 17.753906 18.414062 17.226562 Z M 17.195312 22.828125 C 16.933594 23.488281 16.503906 24.113281 15.976562 24.640625 C 14.988281 25.628906 13.570312 26.253906 12.054688 26.253906 C 11.296875 26.253906 10.574219 26.089844 9.949219 25.824219 C 9.289062 25.5625 8.664062 25.132812 8.136719 24.605469 C 7.609375 24.078125 7.214844 23.488281 6.917969 22.796875 C 6.652344 22.136719 6.488281 21.445312 6.488281 20.6875 C 6.488281 20.191406 6.554688 19.730469 6.652344 19.304688 C 6.753906 18.84375 6.949219 18.414062 7.179688 18.019531 C 7.347656 17.722656 7.542969 17.425781 7.742188 17.164062 C 7.972656 16.898438 8.203125 16.667969 8.464844 16.4375 L 8.761719 16.175781 L 8.761719 4.941406 C 8.761719 4.511719 8.859375 4.085938 8.992188 3.6875 C 9.15625 3.328125 9.355469 2.996094 9.617188 2.703125 L 9.683594 2.636719 C 9.980469 2.339844 10.34375 2.074219 10.738281 1.910156 C 11.132812 1.746094 11.53125 1.679688 11.992188 1.679688 C 12.417969 1.679688 12.847656 1.777344 13.242188 1.910156 C 13.636719 2.074219 14 2.304688 14.296875 2.636719 L 14.363281 2.703125 C 14.625 2.996094 14.855469 3.328125 14.988281 3.6875 C 15.152344 4.085938 15.21875 4.480469 15.21875 4.941406 L 15.21875 16.238281 L 15.515625 16.503906 C 15.777344 16.734375 16.007812 16.964844 16.238281 17.226562 C 16.4375 17.492188 16.636719 17.789062 16.800781 18.085938 C 17.03125 18.480469 17.195312 18.941406 17.328125 19.371094 C 17.425781 19.796875 17.492188 20.257812 17.492188 20.753906 C 17.625 21.476562 17.457031 22.203125 17.195312 22.828125 Z M 17.195312 22.828125 "/>
<path style=" stroke:none;fill-rule:nonzero;fill:rgb(0%,0%,0%);fill-opacity:1;" d="M 18.445312 8.53125 L 22.269531 8.53125 C 22.730469 8.53125 23.125 8.167969 23.125 7.675781 C 23.089844 7.179688 22.730469 6.820312 22.269531 6.820312 L 18.445312 6.820312 C 17.984375 6.820312 17.589844 7.179688 17.589844 7.675781 C 17.589844 8.136719 17.953125 8.53125 18.445312 8.53125 Z M 18.445312 8.53125 "/>
<path style=" stroke:none;fill-rule:nonzero;fill:rgb(0%,0%,0%);fill-opacity:1;" d="M 18.445312 11.429688 L 20.949219 11.429688 C 21.410156 11.429688 21.808594 11.066406 21.808594 10.574219 C 21.808594 10.113281 21.445312 9.71875 20.949219 9.71875 L 18.445312 9.71875 C 17.984375 9.71875 17.589844 10.078125 17.589844 10.574219 C 17.589844 11.035156 17.984375 11.429688 18.445312 11.429688 Z M 18.445312 11.429688 "/>
<path style=" stroke:none;fill-rule:nonzero;fill:rgb(0%,0%,0%);fill-opacity:1;" d="M 15.84375 18.644531 C 15.679688 18.316406 15.449219 18.050781 15.21875 17.789062 C 14.957031 17.523438 14.691406 17.292969 14.394531 17.097656 L 14.097656 16.898438 L 14.097656 12.519531 C 14.097656 11.695312 13.636719 10.96875 12.847656 10.671875 C 12.617188 10.574219 12.351562 10.507812 12.089844 10.507812 C 11.824219 10.507812 11.5625 10.574219 11.332031 10.671875 C 10.574219 11.003906 10.078125 11.695312 10.078125 12.519531 L 10.078125 16.898438 L 9.785156 17.097656 C 9.488281 17.292969 9.191406 17.523438 8.960938 17.789062 C 8.695312 18.050781 8.5 18.347656 8.335938 18.644531 C 8.167969 18.941406 8.039062 19.304688 7.9375 19.632812 C 7.839844 19.960938 7.808594 20.324219 7.808594 20.6875 C 7.808594 21.246094 7.9375 21.808594 8.136719 22.335938 C 8.367188 22.859375 8.664062 23.324219 9.058594 23.71875 C 9.453125 24.113281 9.914062 24.441406 10.441406 24.640625 C 10.9375 24.835938 11.496094 24.96875 12.089844 24.96875 C 12.648438 24.96875 13.210938 24.835938 13.738281 24.640625 C 14.261719 24.410156 14.726562 24.113281 15.121094 23.71875 C 15.515625 23.324219 15.84375 22.859375 16.042969 22.335938 C 16.238281 21.839844 16.371094 21.28125 16.371094 20.6875 C 16.371094 20.324219 16.339844 19.960938 16.238281 19.632812 C 16.140625 19.304688 16.007812 18.972656 15.84375 18.644531 Z M 15.84375 18.644531 "/>
</g>
</svg>
