<?xml version="1.0" encoding="UTF-8"?>
<svg xmlns="http://www.w3.org/2000/svg" xmlns:xlink="http://www.w3.org/1999/xlink" width="28pt" height="28pt" viewBox="0 0 28 28" version="1.1">
<g id="surface1">
<path style=" stroke:none;fill-rule:nonzero;fill:rgb(0%,0%,0%);fill-opacity:1;" d="M 25.285156 13.886719 C 24.914062 13.886719 24.609375 14.191406 24.609375 14.566406 L 24.609375 26.644531 L 17.332031 26.644531 L 17.332031 19.0625 C 17.332031 18.6875 17.03125 18.382812 16.65625 18.382812 L 11.34375 18.382812 C 10.96875 18.382812 10.667969 18.6875 10.667969 19.0625 L 10.667969 25.074219 C 10.667969 25.449219 10.96875 25.753906 11.34375 25.753906 C 11.71875 25.753906 12.023438 25.449219 12.023438 25.074219 L 12.023438 19.738281 L 15.976562 19.738281 L 15.976562 26.644531 L 3.390625 26.644531 L 3.390625 10.050781 L 14 1.546875 L 24.863281 10.253906 C 25.15625 10.488281 25.582031 10.4375 25.816406 10.148438 C 26.050781 9.855469 26.003906 9.429688 25.710938 9.195312 L 14.425781 0.148438 C 14.175781 -0.0507812 13.824219 -0.0507812 13.574219 0.148438 L 2.289062 9.195312 C 2.128906 9.324219 2.035156 9.515625 2.035156 9.722656 L 2.035156 27.320312 C 2.035156 27.695312 2.339844 28 2.714844 28 L 25.285156 28 C 25.660156 28 25.964844 27.695312 25.964844 27.320312 L 25.964844 14.566406 C 25.964844 14.191406 25.660156 13.886719 25.285156 13.886719 Z M 25.285156 13.886719 "/>
</g>
</svg>
