<?xml version="1.0" encoding="UTF-8"?>
<svg xmlns="http://www.w3.org/2000/svg" xmlns:xlink="http://www.w3.org/1999/xlink" width="28pt" height="28pt" viewBox="0 0 28 28" version="1.1">
<g id="surface1">
<path style=" stroke:none;fill-rule:nonzero;fill:rgb(0%,0%,0%);fill-opacity:1;" d="M 21.328125 18.921875 C 21.328125 19.527344 20.839844 20.015625 20.234375 20.015625 C 19.628906 20.015625 19.140625 19.527344 19.140625 18.921875 C 19.140625 18.316406 19.628906 17.828125 20.234375 17.828125 C 20.839844 17.828125 21.328125 18.316406 21.328125 18.921875 Z M 21.328125 18.921875 "/>
<path style=" stroke:none;fill-rule:nonzero;fill:rgb(0%,0%,0%);fill-opacity:1;" d="M 25.15625 19.796875 C 25.761719 19.796875 26.25 19.308594 26.25 18.703125 L 26.25 14.65625 C 26.25 12.242188 24.289062 10.28125 21.875 10.28125 L 20.558594 10.28125 L 20.558594 6.425781 C 20.558594 2.882812 17.617188 0 13.996094 0 C 10.378906 0 7.433594 2.882812 7.433594 6.425781 L 7.433594 10.28125 L 6.125 10.28125 C 3.710938 10.28125 1.75 12.242188 1.75 14.65625 L 1.75 23.625 C 1.75 26.039062 3.710938 28 6.125 28 L 21.875 28 C 24.289062 28 26.25 26.039062 26.25 23.625 C 26.25 23.019531 25.761719 22.53125 25.15625 22.53125 C 24.550781 22.53125 24.0625 23.019531 24.0625 23.625 C 24.0625 24.832031 23.082031 25.8125 21.875 25.8125 L 6.125 25.8125 C 4.917969 25.8125 3.9375 24.832031 3.9375 23.625 L 3.9375 14.65625 C 3.9375 13.449219 4.917969 12.46875 6.125 12.46875 L 21.875 12.46875 C 23.082031 12.46875 24.0625 13.449219 24.0625 14.65625 L 24.0625 18.703125 C 24.0625 19.308594 24.550781 19.796875 25.15625 19.796875 Z M 18.371094 10.28125 L 9.621094 10.28125 L 9.621094 6.425781 C 9.621094 4.089844 11.585938 2.1875 13.996094 2.1875 C 16.410156 2.1875 18.371094 4.089844 18.371094 6.425781 Z M 18.371094 10.28125 "/>
<path style=" stroke:none;fill-rule:nonzero;fill:rgb(0%,0%,0%);fill-opacity:1;" d="M 13.070312 18.921875 C 13.070312 19.527344 12.582031 20.015625 11.976562 20.015625 C 11.371094 20.015625 10.882812 19.527344 10.882812 18.921875 C 10.882812 18.316406 11.371094 17.828125 11.976562 17.828125 C 12.582031 17.828125 13.070312 18.316406 13.070312 18.921875 Z M 13.070312 18.921875 "/>
<path style=" stroke:none;fill-rule:nonzero;fill:rgb(0%,0%,0%);fill-opacity:1;" d="M 8.96875 18.921875 C 8.96875 19.527344 8.480469 20.015625 7.875 20.015625 C 7.269531 20.015625 6.78125 19.527344 6.78125 18.921875 C 6.78125 18.316406 7.269531 17.828125 7.875 17.828125 C 8.480469 17.828125 8.96875 18.316406 8.96875 18.921875 Z M 8.96875 18.921875 "/>
<path style=" stroke:none;fill-rule:nonzero;fill:rgb(0%,0%,0%);fill-opacity:1;" d="M 17.171875 18.921875 C 17.171875 19.527344 16.683594 20.015625 16.078125 20.015625 C 15.472656 20.015625 14.984375 19.527344 14.984375 18.921875 C 14.984375 18.316406 15.472656 17.828125 16.078125 17.828125 C 16.683594 17.828125 17.171875 18.316406 17.171875 18.921875 Z M 17.171875 18.921875 "/>
</g>
</svg>
