<?xml version="1.0" encoding="UTF-8"?>
<svg xmlns="http://www.w3.org/2000/svg" xmlns:xlink="http://www.w3.org/1999/xlink" width="28pt" height="28pt" viewBox="0 0 28 28" version="1.1">
<g id="surface1">
<path style=" stroke:none;fill-rule:nonzero;fill:rgb(0%,0%,0%);fill-opacity:1;" d="M 27.535156 5.601562 L 19.132812 5.601562 C 18.875 5.601562 18.667969 5.808594 18.667969 6.066406 L 18.667969 16.800781 L 8.398438 16.800781 L 8.398438 15.398438 C 8.398438 15.140625 8.191406 14.933594 7.933594 14.933594 L 6.535156 14.933594 L 6.535156 15.867188 L 7.464844 15.867188 L 7.464844 16.800781 L 5.601562 16.800781 L 5.601562 14.933594 L 4.667969 14.933594 L 4.667969 16.800781 L 2.800781 16.800781 L 2.800781 15.867188 L 3.734375 15.867188 L 3.734375 14.933594 L 2.332031 14.933594 C 2.074219 14.933594 1.867188 15.140625 1.867188 15.398438 L 1.867188 16.800781 L 0.464844 16.800781 C 0.207031 16.800781 0 17.007812 0 17.265625 L 0 27.535156 C 0 27.792969 0.207031 28 0.464844 28 L 27.535156 28 C 27.792969 28 28 27.792969 28 27.535156 L 28 6.066406 C 28 5.808594 27.792969 5.601562 27.535156 5.601562 Z M 19.601562 6.535156 L 27.066406 6.535156 L 27.066406 12.132812 L 19.601562 12.132812 Z M 18.667969 19.601562 L 10.265625 19.601562 L 10.265625 17.734375 L 18.667969 17.734375 Z M 0.933594 17.734375 L 9.332031 17.734375 L 9.332031 19.601562 L 0.933594 19.601562 Z M 0.933594 20.535156 L 9.332031 20.535156 L 9.332031 27.066406 L 0.933594 27.066406 Z M 10.265625 20.535156 L 14 20.535156 L 14 27.066406 L 10.265625 27.066406 Z M 14.933594 20.535156 L 18.667969 20.535156 L 18.667969 27.066406 L 14.933594 27.066406 Z M 19.601562 27.066406 L 19.601562 13.066406 L 27.066406 13.066406 L 27.066406 27.066406 Z M 19.601562 27.066406 "/>
<path style=" stroke:none;fill-rule:nonzero;fill:rgb(0%,0%,0%);fill-opacity:1;" d="M 20.535156 8.398438 L 21.464844 8.398438 L 21.464844 10.265625 L 20.535156 10.265625 Z M 20.535156 8.398438 "/>
<path style=" stroke:none;fill-rule:nonzero;fill:rgb(0%,0%,0%);fill-opacity:1;" d="M 20.535156 14.933594 L 21.464844 14.933594 L 21.464844 16.800781 L 20.535156 16.800781 Z M 20.535156 14.933594 "/>
<path style=" stroke:none;fill-rule:nonzero;fill:rgb(0%,0%,0%);fill-opacity:1;" d="M 2.800781 18.667969 C 2.800781 18.925781 2.589844 19.132812 2.332031 19.132812 C 2.074219 19.132812 1.867188 18.925781 1.867188 18.667969 C 1.867188 18.410156 2.074219 18.199219 2.332031 18.199219 C 2.589844 18.199219 2.800781 18.410156 2.800781 18.667969 Z M 2.800781 18.667969 "/>
<path style=" stroke:none;fill-rule:nonzero;fill:rgb(0%,0%,0%);fill-opacity:1;" d="M 4.667969 18.667969 C 4.667969 18.925781 4.457031 19.132812 4.199219 19.132812 C 3.941406 19.132812 3.734375 18.925781 3.734375 18.667969 C 3.734375 18.410156 3.941406 18.199219 4.199219 18.199219 C 4.457031 18.199219 4.667969 18.410156 4.667969 18.667969 Z M 4.667969 18.667969 "/>
<path style=" stroke:none;fill-rule:nonzero;fill:rgb(0%,0%,0%);fill-opacity:1;" d="M 6.535156 18.667969 C 6.535156 18.925781 6.324219 19.132812 6.066406 19.132812 C 5.808594 19.132812 5.601562 18.925781 5.601562 18.667969 C 5.601562 18.410156 5.808594 18.199219 6.066406 18.199219 C 6.324219 18.199219 6.535156 18.410156 6.535156 18.667969 Z M 6.535156 18.667969 "/>
<path style=" stroke:none;fill-rule:nonzero;fill:rgb(0%,0%,0%);fill-opacity:1;" d="M 8.398438 18.667969 C 8.398438 18.925781 8.191406 19.132812 7.933594 19.132812 C 7.675781 19.132812 7.464844 18.925781 7.464844 18.667969 C 7.464844 18.410156 7.675781 18.199219 7.933594 18.199219 C 8.191406 18.199219 8.398438 18.410156 8.398438 18.667969 Z M 8.398438 18.667969 "/>
<path style=" stroke:none;fill-rule:nonzero;fill:rgb(0%,0%,0%);fill-opacity:1;" d="M 0.464844 8.867188 L 9.800781 8.867188 C 10.058594 8.867188 10.265625 8.65625 10.265625 8.398438 L 10.265625 7 C 10.265625 6.875 10.21875 6.757812 10.128906 6.671875 L 8.261719 4.804688 C 8.175781 4.714844 8.058594 4.667969 7.933594 4.667969 L 7.464844 4.667969 L 7.464844 0.464844 C 7.464844 0.207031 7.257812 0 7 0 L 3.265625 0 C 3.007812 0 2.800781 0.207031 2.800781 0.464844 L 2.800781 4.667969 L 2.332031 4.667969 C 2.210938 4.667969 2.089844 4.714844 2.003906 4.804688 L 0.136719 6.671875 C 0.0507812 6.757812 0 6.875 0 7 L 0 8.398438 C 0 8.65625 0.207031 8.867188 0.464844 8.867188 Z M 3.734375 0.933594 L 6.535156 0.933594 L 6.535156 4.667969 L 3.734375 4.667969 Z M 0.933594 7.191406 L 2.527344 5.601562 L 7.738281 5.601562 L 9.332031 7.191406 L 9.332031 7.933594 L 0.933594 7.933594 Z M 0.933594 7.191406 "/>
<path style=" stroke:none;fill-rule:nonzero;fill:rgb(0%,0%,0%);fill-opacity:1;" d="M 7.933594 21.464844 L 2.332031 21.464844 C 2.074219 21.464844 1.867188 21.675781 1.867188 21.933594 L 1.867188 25.667969 C 1.867188 25.925781 2.074219 26.132812 2.332031 26.132812 L 7.933594 26.132812 C 8.191406 26.132812 8.398438 25.925781 8.398438 25.667969 L 8.398438 21.933594 C 8.398438 21.675781 8.191406 21.464844 7.933594 21.464844 Z M 7.464844 25.199219 L 2.800781 25.199219 L 2.800781 22.398438 L 7.464844 22.398438 Z M 7.464844 25.199219 "/>
<path style=" stroke:none;fill-rule:nonzero;fill:rgb(0%,0%,0%);fill-opacity:1;" d="M 13.535156 18.199219 L 15.398438 18.199219 L 15.398438 19.132812 L 13.535156 19.132812 Z M 13.535156 18.199219 "/>
<path style=" stroke:none;fill-rule:nonzero;fill:rgb(0%,0%,0%);fill-opacity:1;" d="M 12.132812 22.867188 L 13.066406 22.867188 L 13.066406 24.734375 L 12.132812 24.734375 Z M 12.132812 22.867188 "/>
<path style=" stroke:none;fill-rule:nonzero;fill:rgb(0%,0%,0%);fill-opacity:1;" d="M 15.867188 22.867188 L 16.800781 22.867188 L 16.800781 24.734375 L 15.867188 24.734375 Z M 15.867188 22.867188 "/>
<path style=" stroke:none;fill-rule:nonzero;fill:rgb(0%,0%,0%);fill-opacity:1;" d="M 11.199219 11.667969 L 14 11.667969 C 14.257812 11.667969 14.464844 11.457031 14.464844 11.199219 L 14.464844 10.734375 C 14.464844 9.882812 13.886719 9.144531 13.066406 8.933594 L 13.066406 0 L 12.132812 0 L 12.132812 8.933594 C 11.3125 9.144531 10.738281 9.882812 10.734375 10.734375 L 10.734375 11.199219 C 10.734375 11.457031 10.941406 11.667969 11.199219 11.667969 Z M 12.601562 9.800781 C 13.117188 9.800781 13.535156 10.21875 13.535156 10.734375 L 11.667969 10.734375 C 11.667969 10.21875 12.085938 9.800781 12.601562 9.800781 Z M 12.601562 9.800781 "/>
<path style=" stroke:none;fill-rule:nonzero;fill:rgb(0%,0%,0%);fill-opacity:1;" d="M 14.464844 7.933594 L 17.265625 7.933594 C 17.523438 7.933594 17.734375 7.722656 17.734375 7.464844 L 17.734375 7 C 17.730469 6.152344 17.15625 5.410156 16.332031 5.199219 L 16.332031 0 L 15.398438 0 L 15.398438 5.199219 C 14.578125 5.410156 14.003906 6.152344 14 7 L 14 7.464844 C 14 7.722656 14.207031 7.933594 14.464844 7.933594 Z M 15.867188 6.066406 C 16.382812 6.066406 16.800781 6.484375 16.800781 7 L 14.933594 7 C 14.933594 6.484375 15.351562 6.066406 15.867188 6.066406 Z M 15.867188 6.066406 "/>
</g>
</svg>
