<?xml version="1.0" encoding="UTF-8"?>
<svg xmlns="http://www.w3.org/2000/svg" xmlns:xlink="http://www.w3.org/1999/xlink" width="28pt" height="28pt" viewBox="0 0 28 28" version="1.1">
<g id="surface1">
<path style=" stroke:none;fill-rule:nonzero;fill:rgb(0%,0%,0%);fill-opacity:1;" d="M 20.5625 0 L 7.4375 0 C 6.230469 0 5.25 0.980469 5.25 2.1875 L 5.25 23.625 C 5.25 24.832031 6.230469 25.8125 7.4375 25.8125 L 7.984375 25.8125 L 7.984375 26.359375 C 7.984375 27.265625 8.71875 28 9.625 28 L 10.171875 28 C 10.773438 28 11.265625 27.507812 11.265625 26.90625 L 11.265625 25.8125 L 16.734375 25.8125 L 16.734375 26.90625 C 16.734375 27.507812 17.226562 28 17.828125 28 L 18.375 28 C 19.28125 28 20.015625 27.265625 20.015625 26.359375 L 20.015625 25.8125 L 20.5625 25.8125 C 21.769531 25.8125 22.75 24.832031 22.75 23.625 L 22.75 2.1875 C 22.75 0.980469 21.769531 0 20.5625 0 Z M 10.171875 26.90625 L 9.625 26.90625 C 9.324219 26.90625 9.078125 26.660156 9.078125 26.359375 L 9.078125 25.8125 L 10.171875 25.8125 Z M 18.921875 26.359375 C 18.921875 26.660156 18.675781 26.90625 18.375 26.90625 L 17.828125 26.90625 L 17.828125 25.8125 L 18.921875 25.8125 Z M 21.65625 23.625 C 21.65625 24.226562 21.164062 24.71875 20.5625 24.71875 L 7.4375 24.71875 C 6.835938 24.71875 6.34375 24.226562 6.34375 23.625 L 6.34375 10.5 L 21.65625 10.5 Z M 21.65625 9.40625 L 6.34375 9.40625 L 6.34375 2.1875 C 6.34375 1.585938 6.835938 1.09375 7.4375 1.09375 L 20.5625 1.09375 C 21.164062 1.09375 21.65625 1.585938 21.65625 2.1875 Z M 21.65625 9.40625 "/>
<path style=" stroke:none;fill-rule:nonzero;fill:rgb(0%,0%,0%);fill-opacity:1;" d="M 12.371094 8.3125 L 8.542969 8.3125 C 7.9375 8.3125 7.449219 7.820312 7.449219 7.21875 L 7.449219 6.671875 C 7.449219 5.765625 8.183594 5.03125 9.089844 5.03125 L 11.824219 5.03125 C 12.726562 5.03125 13.464844 5.765625 13.464844 6.671875 L 13.464844 7.21875 C 13.464844 7.820312 12.972656 8.3125 12.371094 8.3125 Z M 9.089844 6.125 C 8.785156 6.125 8.542969 6.371094 8.542969 6.671875 L 8.542969 7.21875 L 12.371094 7.21875 L 12.371094 6.671875 C 12.371094 6.371094 12.125 6.125 11.824219 6.125 Z M 9.089844 6.125 "/>
<path style=" stroke:none;fill-rule:nonzero;fill:rgb(0%,0%,0%);fill-opacity:1;" d="M 11.824219 14.875 L 9.089844 14.875 C 8.183594 14.875 7.449219 14.140625 7.449219 13.234375 L 7.449219 12.6875 C 7.449219 12.085938 7.9375 11.59375 8.542969 11.59375 L 12.371094 11.59375 C 12.972656 11.59375 13.464844 12.085938 13.464844 12.6875 L 13.464844 13.234375 C 13.464844 14.140625 12.726562 14.875 11.824219 14.875 Z M 8.542969 12.6875 L 8.542969 13.234375 C 8.542969 13.535156 8.785156 13.78125 9.089844 13.78125 L 11.824219 13.78125 C 12.125 13.78125 12.371094 13.535156 12.371094 13.234375 L 12.371094 12.6875 Z M 8.542969 12.6875 "/>
<path style=" stroke:none;fill-rule:nonzero;fill:rgb(0%,0%,0%);fill-opacity:1;" d="M 20.015625 23.625 C 19.714844 23.625 19.46875 23.378906 19.46875 23.078125 L 19.46875 18.703125 C 19.46875 18.402344 19.714844 18.15625 20.015625 18.15625 C 20.316406 18.15625 20.5625 18.402344 20.5625 18.703125 L 20.5625 23.078125 C 20.5625 23.378906 20.316406 23.625 20.015625 23.625 Z M 20.015625 23.625 "/>
<path style=" stroke:none;fill-rule:nonzero;fill:rgb(0%,0%,0%);fill-opacity:1;" d="M 20.015625 17.0625 C 19.714844 17.0625 19.46875 16.816406 19.46875 16.515625 C 19.46875 16.214844 19.714844 15.96875 20.015625 15.96875 C 20.320312 15.96875 20.5625 16.214844 20.5625 16.515625 C 20.5625 16.816406 20.320312 17.0625 20.015625 17.0625 Z M 20.015625 17.0625 "/>
</g>
</svg>
