<?xml version="1.0" encoding="UTF-8"?>
<svg xmlns="http://www.w3.org/2000/svg" xmlns:xlink="http://www.w3.org/1999/xlink" width="28pt" height="28pt" viewBox="0 0 28 28" version="1.1">
<g id="surface1">
<path style=" stroke:none;fill-rule:nonzero;fill:rgb(0%,0%,0%);fill-opacity:1;" d="M 14.414062 17.714844 L 1.652344 17.714844 L 1.652344 26.464844 L 26.34375 26.464844 L 26.34375 17.714844 Z M 13.585938 20.355469 L 13.585938 25.5625 L 2.484375 25.5625 L 2.484375 18.542969 L 13.585938 18.542969 Z M 25.515625 25.636719 L 14.414062 25.636719 L 14.414062 23.824219 L 25.515625 23.824219 Z M 25.515625 22.996094 L 14.414062 22.996094 L 14.414062 21.183594 L 25.515625 21.183594 Z M 25.515625 20.355469 L 14.414062 20.355469 L 14.414062 18.542969 L 25.515625 18.542969 Z M 25.515625 20.355469 "/>
<path style=" stroke:none;fill-rule:nonzero;fill:rgb(0%,0%,0%);fill-opacity:1;" d="M 0.03125 0 L 0.03125 7.828125 L 6.644531 7.828125 L 6.644531 9.480469 L 21.355469 9.480469 L 21.355469 7.828125 L 27.96875 7.828125 L 27.96875 0 Z M 20.527344 8.648438 L 7.472656 8.648438 L 7.472656 7.828125 L 20.527344 7.828125 Z M 21.355469 7 L 0.859375 7 L 0.859375 0.828125 L 27.140625 0.828125 L 27.140625 7 Z M 21.355469 7 "/>
<path style=" stroke:none;fill-rule:nonzero;fill:rgb(0%,0%,0%);fill-opacity:1;" d="M 18.390625 1.316406 L 1.652344 1.316406 L 1.652344 6.511719 L 26.347656 6.511719 L 26.347656 1.316406 Z M 9.609375 5.683594 L 2.484375 5.683594 L 2.484375 2.144531 L 9.609375 2.144531 Z M 17.5625 5.683594 L 10.4375 5.683594 L 10.4375 2.144531 L 17.5625 2.144531 Z M 25.515625 5.683594 L 18.390625 5.683594 L 18.390625 2.144531 L 25.515625 2.144531 Z M 25.515625 5.683594 "/>
<path style=" stroke:none;fill-rule:nonzero;fill:rgb(0%,0%,0%);fill-opacity:1;" d="M 26.253906 16.183594 C 26.425781 15.949219 26.542969 15.671875 26.589844 15.367188 L 26.988281 12.589844 L 21.070312 12.589844 L 21.46875 15.367188 C 21.515625 15.671875 21.632812 15.949219 21.804688 16.183594 L 20.03125 16.183594 L 20.03125 14.820312 L 18.855469 14.820312 L 18.855469 13.761719 L 17.671875 13.761719 L 17.671875 14.589844 L 18.027344 14.589844 L 18.027344 14.820312 L 15.980469 14.820312 L 15.980469 14.589844 L 16.378906 14.589844 L 16.378906 13.761719 L 15.152344 13.761719 L 15.152344 14.820312 L 12.847656 14.820312 L 12.847656 13.761719 L 11.664062 13.761719 L 11.664062 14.589844 L 12.019531 14.589844 L 12.019531 14.820312 L 9.972656 14.820312 L 9.972656 14.589844 L 10.371094 14.589844 L 10.371094 13.761719 L 9.144531 13.761719 L 9.144531 14.820312 L 7.96875 14.820312 L 7.96875 16.183594 L 0.03125 16.183594 L 0.03125 28 L 27.96875 28 L 27.96875 16.183594 Z M 26.03125 13.421875 L 25.769531 15.25 C 25.699219 15.734375 25.277344 16.101562 24.785156 16.101562 L 23.273438 16.101562 C 22.78125 16.101562 22.359375 15.734375 22.289062 15.25 L 22.027344 13.421875 Z M 8.796875 15.648438 L 19.203125 15.648438 L 19.203125 16.183594 L 8.796875 16.183594 Z M 27.140625 27.171875 L 0.859375 27.171875 L 0.859375 17.011719 L 27.140625 17.011719 Z M 27.140625 27.171875 "/>
<path style=" stroke:none;fill-rule:nonzero;fill:rgb(0%,0%,0%);fill-opacity:1;" d="M 4.867188 4.410156 L 6.96875 4.410156 L 6.96875 5.238281 L 4.867188 5.238281 Z M 4.867188 4.410156 "/>
<path style=" stroke:none;fill-rule:nonzero;fill:rgb(0%,0%,0%);fill-opacity:1;" d="M 7.410156 4.410156 L 8.242188 4.410156 L 8.242188 5.238281 L 7.410156 5.238281 Z M 7.410156 4.410156 "/>
<path style=" stroke:none;fill-rule:nonzero;fill:rgb(0%,0%,0%);fill-opacity:1;" d="M 6.609375 19.792969 L 8.714844 19.792969 L 8.714844 20.625 L 6.609375 20.625 Z M 6.609375 19.792969 "/>
<path style=" stroke:none;fill-rule:nonzero;fill:rgb(0%,0%,0%);fill-opacity:1;" d="M 9.15625 19.792969 L 9.984375 19.792969 L 9.984375 20.621094 L 9.15625 20.621094 Z M 9.15625 19.792969 "/>
<path style=" stroke:none;fill-rule:nonzero;fill:rgb(0%,0%,0%);fill-opacity:1;" d="M 18.632812 19.035156 L 20.738281 19.035156 L 20.738281 19.867188 L 18.632812 19.867188 Z M 18.632812 19.035156 "/>
<path style=" stroke:none;fill-rule:nonzero;fill:rgb(0%,0%,0%);fill-opacity:1;" d="M 21.179688 19.035156 L 22.007812 19.035156 L 22.007812 19.863281 L 21.179688 19.863281 Z M 21.179688 19.035156 "/>
<path style=" stroke:none;fill-rule:nonzero;fill:rgb(0%,0%,0%);fill-opacity:1;" d="M 18.632812 21.675781 L 20.738281 21.675781 L 20.738281 22.503906 L 18.632812 22.503906 Z M 18.632812 21.675781 "/>
<path style=" stroke:none;fill-rule:nonzero;fill:rgb(0%,0%,0%);fill-opacity:1;" d="M 21.179688 21.675781 L 22.007812 21.675781 L 22.007812 22.503906 L 21.179688 22.503906 Z M 21.179688 21.675781 "/>
<path style=" stroke:none;fill-rule:nonzero;fill:rgb(0%,0%,0%);fill-opacity:1;" d="M 18.632812 24.316406 L 20.738281 24.316406 L 20.738281 25.144531 L 18.632812 25.144531 Z M 18.632812 24.316406 "/>
<path style=" stroke:none;fill-rule:nonzero;fill:rgb(0%,0%,0%);fill-opacity:1;" d="M 21.179688 24.316406 L 22.007812 24.316406 L 22.007812 25.144531 L 21.179688 25.144531 Z M 21.179688 24.316406 "/>
<path style=" stroke:none;fill-rule:nonzero;fill:rgb(0%,0%,0%);fill-opacity:1;" d="M 12.683594 4.410156 L 14.789062 4.410156 L 14.789062 5.238281 L 12.683594 5.238281 Z M 12.683594 4.410156 "/>
<path style=" stroke:none;fill-rule:nonzero;fill:rgb(0%,0%,0%);fill-opacity:1;" d="M 15.230469 4.410156 L 16.0625 4.410156 L 16.0625 5.238281 L 15.230469 5.238281 Z M 15.230469 4.410156 "/>
<path style=" stroke:none;fill-rule:nonzero;fill:rgb(0%,0%,0%);fill-opacity:1;" d="M 20.722656 4.410156 L 22.828125 4.410156 L 22.828125 5.238281 L 20.722656 5.238281 Z M 20.722656 4.410156 "/>
<path style=" stroke:none;fill-rule:nonzero;fill:rgb(0%,0%,0%);fill-opacity:1;" d="M 23.269531 4.410156 L 24.097656 4.410156 L 24.097656 5.238281 L 23.269531 5.238281 Z M 23.269531 4.410156 "/>
</g>
</svg>
