<?xml version="1.0" encoding="UTF-8"?>
<svg xmlns="http://www.w3.org/2000/svg" xmlns:xlink="http://www.w3.org/1999/xlink" width="28pt" height="28pt" viewBox="0 0 28 28" version="1.1">
<g id="surface1">
<path style=" stroke:none;fill-rule:nonzero;fill:rgb(0%,0%,0%);fill-opacity:1;" d="M 14.824219 9.367188 L 14.824219 18.089844 L 19.328125 18.089844 L 20.324219 9.367188 Z M 14.824219 9.367188 "/>
<path style=" stroke:none;fill-rule:nonzero;fill:rgb(0%,0%,0%);fill-opacity:1;" d="M 7.675781 9.367188 L 8.671875 18.089844 L 13.175781 18.089844 L 13.175781 9.367188 Z M 7.675781 9.367188 "/>
<path style=" stroke:none;fill-rule:nonzero;fill:rgb(0%,0%,0%);fill-opacity:1;" d="M 15.789062 1.140625 L 14.824219 1.140625 L 14.824219 0 L 13.175781 0 L 13.175781 1.140625 L 12.210938 1.140625 C 10.546875 1.140625 9.070312 2.128906 8.429688 3.636719 L 19.574219 3.636719 C 18.929688 2.128906 17.453125 1.140625 15.789062 1.140625 Z M 15.789062 1.140625 "/>
<path style=" stroke:none;fill-rule:nonzero;fill:rgb(0%,0%,0%);fill-opacity:1;" d="M 6.578125 5.285156 L 21.421875 5.285156 L 21.421875 7.71875 L 6.578125 7.71875 Z M 6.578125 5.285156 "/>
<path style=" stroke:none;fill-rule:nonzero;fill:rgb(0%,0%,0%);fill-opacity:1;" d="M 7.5 19.738281 L 7.5 22.695312 L 11.785156 22.695312 L 11.785156 28 L 16.21875 28 L 16.21875 22.695312 L 20.5 22.695312 L 20.5 19.738281 Z M 7.5 19.738281 "/>
</g>
</svg>
