<?xml version="1.0" encoding="UTF-8"?>
<svg xmlns="http://www.w3.org/2000/svg" xmlns:xlink="http://www.w3.org/1999/xlink" width="28pt" height="28pt" viewBox="0 0 28 28" version="1.1">
<g id="surface1">
<path style=" stroke:none;fill-rule:nonzero;fill:rgb(0%,0%,0%);fill-opacity:1;" d="M 12.894531 15.910156 L 15.089844 15.910156 L 15.089844 25.238281 L 12.894531 25.238281 Z M 12.894531 15.910156 "/>
<path style=" stroke:none;fill-rule:nonzero;fill:rgb(0%,0%,0%);fill-opacity:1;" d="M 17.28125 15.910156 L 17.28125 17.496094 C 16.699219 17.699219 16.277344 18.246094 16.277344 18.902344 C 16.277344 19.722656 16.945312 20.390625 17.769531 20.390625 C 18.59375 20.390625 19.261719 19.722656 19.261719 18.902344 C 19.261719 18.296875 18.898438 17.777344 18.382812 17.542969 L 18.382812 15.910156 Z M 17.28125 15.910156 "/>
<path style=" stroke:none;fill-rule:nonzero;fill:rgb(0%,0%,0%);fill-opacity:1;" d="M 15.089844 14.8125 L 24.78125 14.8125 L 23.546875 0 L 4.433594 0 L 3.199219 14.8125 Z M 15.089844 14.8125 "/>
<path style=" stroke:none;fill-rule:nonzero;fill:rgb(0%,0%,0%);fill-opacity:1;" d="M 6.859375 26.882812 L 6.859375 27.433594 C 6.859375 27.734375 7.105469 27.980469 7.40625 27.980469 L 20.027344 27.980469 C 20.328125 27.980469 20.574219 27.734375 20.574219 27.433594 L 20.574219 26.882812 C 20.574219 26.582031 20.328125 26.335938 20.027344 26.335938 L 7.40625 26.335938 C 7.105469 26.335938 6.859375 26.582031 6.859375 26.882812 Z M 6.859375 26.882812 "/>
</g>
</svg>
