<?xml version="1.0" encoding="UTF-8"?>
<svg xmlns="http://www.w3.org/2000/svg" xmlns:xlink="http://www.w3.org/1999/xlink" width="28pt" height="28pt" viewBox="0 0 28 28" version="1.1">
<g id="surface1">
<path style=" stroke:none;fill-rule:nonzero;fill:rgb(0%,0%,0%);fill-opacity:1;" d="M 27.953125 5.160156 C 27.871094 5 27.710938 4.898438 27.53125 4.902344 L 0.464844 4.902344 C 0.207031 4.902344 0 5.109375 0 5.367188 C 0 5.46875 0.03125 5.566406 0.09375 5.648438 L 2.894531 9.378906 C 2.980469 9.496094 3.121094 9.566406 3.265625 9.566406 L 3.410156 9.566406 C 4.726562 12.703125 8.191406 14.234375 14 14.234375 C 19.804688 14.234375 23.269531 12.703125 24.589844 9.566406 L 24.730469 9.566406 C 24.878906 9.566406 25.015625 9.496094 25.105469 9.378906 L 27.90625 5.648438 C 28.011719 5.507812 28.03125 5.316406 27.953125 5.160156 Z M 14 13.300781 C 8.855469 13.300781 5.714844 12.078125 4.429688 9.566406 L 23.570312 9.566406 C 22.285156 12.078125 19.144531 13.300781 14 13.300781 Z M 24.5 8.632812 L 3.5 8.632812 L 1.398438 5.832031 L 26.597656 5.832031 Z M 24.5 8.632812 "/>
<path style=" stroke:none;fill-rule:nonzero;fill:rgb(0%,0%,0%);fill-opacity:1;" d="M 14 18.433594 C 13.742188 18.433594 13.53125 18.640625 13.53125 18.898438 L 13.53125 22.632812 C 13.53125 22.890625 13.742188 23.097656 14 23.097656 C 14.257812 23.097656 14.464844 22.890625 14.464844 22.632812 L 14.464844 18.898438 C 14.464844 18.640625 14.257812 18.433594 14 18.433594 Z M 14 18.433594 "/>
<path style=" stroke:none;fill-rule:nonzero;fill:rgb(0%,0%,0%);fill-opacity:1;" d="M 21.636719 16.726562 C 21.507812 16.503906 21.222656 16.425781 21 16.554688 C 20.777344 16.679688 20.699219 16.964844 20.824219 17.191406 C 20.824219 17.191406 20.828125 17.191406 20.828125 17.195312 L 22.695312 20.429688 C 22.777344 20.574219 22.933594 20.660156 23.097656 20.660156 C 23.355469 20.660156 23.566406 20.453125 23.566406 20.195312 C 23.566406 20.113281 23.542969 20.03125 23.503906 19.960938 Z M 21.636719 16.726562 "/>
<path style=" stroke:none;fill-rule:nonzero;fill:rgb(0%,0%,0%);fill-opacity:1;" d="M 7 16.558594 C 6.777344 16.429688 6.492188 16.503906 6.363281 16.726562 L 4.496094 19.960938 C 4.367188 20.183594 4.441406 20.46875 4.664062 20.601562 C 4.882812 20.730469 5.171875 20.65625 5.300781 20.433594 C 5.300781 20.429688 5.304688 20.429688 5.304688 20.429688 L 7.171875 17.195312 C 7.300781 16.972656 7.222656 16.6875 7 16.558594 Z M 7 16.558594 "/>
</g>
</svg>
