<?xml version="1.0" encoding="UTF-8"?>
<svg xmlns="http://www.w3.org/2000/svg" xmlns:xlink="http://www.w3.org/1999/xlink" width="28pt" height="28pt" viewBox="0 0 28 28" version="1.1">
<g id="surface1">
<path style=" stroke:none;fill-rule:nonzero;fill:rgb(0%,0%,0%);fill-opacity:1;" d="M 20.488281 9.859375 C 19.617188 8.652344 18.957031 7.339844 18.519531 5.941406 L 9.476562 5.941406 C 9.035156 7.339844 8.371094 8.660156 7.492188 9.882812 C 6.453125 11.332031 5.941406 13.046875 6.007812 14.839844 C 6.085938 16.898438 6.949219 18.828125 8.4375 20.269531 C 9.925781 21.714844 11.882812 22.515625 13.941406 22.53125 L 14 22.53125 C 16.125 22.53125 18.125 21.710938 19.636719 20.210938 C 21.160156 18.695312 21.996094 16.683594 21.996094 14.535156 C 21.996094 12.84375 21.476562 11.226562 20.488281 9.859375 Z M 20.488281 9.859375 "/>
<path style=" stroke:none;fill-rule:nonzero;fill:rgb(0%,0%,0%);fill-opacity:1;" d="M 8.75 0 L 19.25 0 L 19.25 4.300781 L 8.75 4.300781 Z M 8.75 0 "/>
<path style=" stroke:none;fill-rule:nonzero;fill:rgb(0%,0%,0%);fill-opacity:1;" d="M 13.167969 24.527344 L 14.808594 24.527344 L 14.808594 28 L 13.167969 28 Z M 13.167969 24.527344 "/>
<path style=" stroke:none;fill-rule:nonzero;fill:rgb(0%,0%,0%);fill-opacity:1;" d="M 19.996094 22.710938 L 21.226562 21.621094 L 23.523438 24.222656 L 22.296875 25.308594 Z M 19.996094 22.710938 "/>
<path style=" stroke:none;fill-rule:nonzero;fill:rgb(0%,0%,0%);fill-opacity:1;" d="M 23.535156 17.152344 L 23.734375 15.523438 L 27.179688 15.949219 L 26.980469 17.578125 Z M 23.535156 17.152344 "/>
<path style=" stroke:none;fill-rule:nonzero;fill:rgb(0%,0%,0%);fill-opacity:1;" d="M 4.476562 24.222656 L 6.777344 21.621094 L 8.007812 22.710938 L 5.707031 25.3125 Z M 4.476562 24.222656 "/>
<path style=" stroke:none;fill-rule:nonzero;fill:rgb(0%,0%,0%);fill-opacity:1;" d="M 0.820312 15.945312 L 4.265625 15.523438 L 4.464844 17.152344 L 1.019531 17.574219 Z M 0.820312 15.945312 "/>
</g>
</svg>
