<?xml version="1.0" encoding="UTF-8"?>
<svg xmlns="http://www.w3.org/2000/svg" xmlns:xlink="http://www.w3.org/1999/xlink" width="28pt" height="28pt" viewBox="0 0 28 28" version="1.1">
<g id="surface1">
<path style=" stroke:none;fill-rule:nonzero;fill:rgb(0%,0%,0%);fill-opacity:1;" d="M 13.214844 13.21875 L 14.722656 13.21875 L 14.722656 20.207031 L 13.214844 20.207031 Z M 13.214844 13.21875 "/>
<path style=" stroke:none;fill-rule:nonzero;fill:rgb(0%,0%,0%);fill-opacity:1;" d="M 11.703125 10.636719 C 11.703125 10.03125 11.214844 9.539062 10.597656 9.539062 C 9.980469 9.539062 9.488281 10.023438 9.488281 10.621094 C 9.488281 11.21875 9.992188 11.707031 10.605469 11.707031 L 11.703125 11.707031 Z M 11.703125 10.636719 "/>
<path style=" stroke:none;fill-rule:nonzero;fill:rgb(0%,0%,0%);fill-opacity:1;" d="M 24.109375 10.109375 C 24.109375 4.527344 19.582031 0 14 0 C 8.417969 0 3.890625 4.527344 3.890625 10.109375 C 3.890625 14.011719 6.085938 17.398438 9.320312 19.082031 C 9.285156 19.175781 9.246094 19.277344 9.246094 19.382812 L 9.246094 19.429688 C 9.246094 19.859375 9.625 20.207031 10.058594 20.207031 L 11.703125 20.207031 L 11.703125 13.21875 L 10.605469 13.21875 C 9.160156 13.21875 7.984375 12.054688 7.984375 10.621094 C 7.984375 9.191406 9.148438 8.027344 10.597656 8.027344 C 12.046875 8.027344 13.214844 9.199219 13.214844 10.636719 L 13.214844 11.707031 L 14.722656 11.707031 L 14.722656 10.636719 C 14.722656 9.199219 15.921875 8.027344 17.375 8.027344 C 18.824219 8.027344 20.011719 9.191406 20.011719 10.621094 C 20.011719 12.054688 18.847656 13.21875 17.40625 13.21875 L 16.234375 13.21875 L 16.234375 20.207031 L 17.847656 20.207031 C 18.277344 20.207031 18.597656 19.859375 18.597656 19.429688 L 18.597656 19.382812 C 18.597656 19.289062 18.597656 19.203125 18.566406 19.125 C 21.847656 17.453125 24.109375 14.042969 24.109375 10.109375 Z M 24.109375 10.109375 "/>
<path style=" stroke:none;fill-rule:nonzero;fill:rgb(0%,0%,0%);fill-opacity:1;" d="M 18.507812 10.621094 C 18.507812 10.023438 17.992188 9.539062 17.375 9.539062 C 16.753906 9.539062 16.234375 10.03125 16.234375 10.636719 L 16.234375 11.707031 L 17.40625 11.707031 C 18.011719 11.707031 18.507812 11.21875 18.507812 10.621094 Z M 18.507812 10.621094 "/>
<path style=" stroke:none;fill-rule:nonzero;fill:rgb(0%,0%,0%);fill-opacity:1;" d="M 10.695312 21.71875 C 9.910156 21.71875 9.246094 22.351562 9.246094 23.136719 L 9.246094 25.023438 C 9.246094 25.808594 9.910156 26.441406 10.695312 26.441406 L 11.789062 26.441406 C 12.113281 27.351562 12.980469 28 14 28 C 15.019531 28 15.886719 27.351562 16.210938 26.441406 L 17.117188 26.441406 C 17.898438 26.441406 18.503906 25.808594 18.503906 25.023438 L 18.503906 23.136719 C 18.503906 22.351562 17.898438 21.71875 17.117188 21.71875 Z M 10.695312 21.71875 "/>
</g>
</svg>
