<?xml version="1.0" encoding="UTF-8"?>
<svg xmlns="http://www.w3.org/2000/svg" xmlns:xlink="http://www.w3.org/1999/xlink" width="28pt" height="28pt" viewBox="0 0 28 28" version="1.1">
<g id="surface1">
<path style=" stroke:none;fill-rule:nonzero;fill:rgb(0%,0%,0%);fill-opacity:1;" d="M 21.875 28 L 6.125 28 C 4.679688 28 3.5 26.824219 3.5 25.375 L 3.5 13.125 C 3.5 11.675781 4.679688 10.5 6.125 10.5 L 21.875 10.5 C 23.320312 10.5 24.5 11.675781 24.5 13.125 L 24.5 25.375 C 24.5 26.824219 23.320312 28 21.875 28 Z M 6.125 12.25 C 5.644531 12.25 5.25 12.640625 5.25 13.125 L 5.25 25.375 C 5.25 25.859375 5.644531 26.25 6.125 26.25 L 21.875 26.25 C 22.355469 26.25 22.75 25.859375 22.75 25.375 L 22.75 13.125 C 22.75 12.640625 22.355469 12.25 21.875 12.25 Z M 6.125 12.25 "/>
<path style=" stroke:none;fill-rule:nonzero;fill:rgb(0%,0%,0%);fill-opacity:1;" d="M 7.875 12.25 C 7.390625 12.25 7 11.859375 7 11.375 L 7 7 C 7 3.140625 10.140625 0 14 0 C 17.859375 0 21 3.140625 21 7 C 21 7.484375 20.609375 7.875 20.125 7.875 C 19.640625 7.875 19.25 7.484375 19.25 7 C 19.25 4.105469 16.894531 1.75 14 1.75 C 11.105469 1.75 8.75 4.105469 8.75 7 L 8.75 11.375 C 8.75 11.859375 8.359375 12.25 7.875 12.25 Z M 7.875 12.25 "/>
</g>
</svg>
