<?xml version="1.0" encoding="UTF-8"?>
<svg xmlns="http://www.w3.org/2000/svg" xmlns:xlink="http://www.w3.org/1999/xlink" width="28pt" height="28pt" viewBox="0 0 28 28" version="1.1">
<g id="surface1">
<path style=" stroke:none;fill-rule:nonzero;fill:rgb(0%,0%,0%);fill-opacity:1;" d="M 14.007812 0 C 9.492188 0 5.816406 3.675781 5.816406 8.195312 L 5.816406 12.871094 C 5.816406 12.925781 5.75 13.015625 5.699219 13.03125 C 5.253906 13.179688 4.894531 13.308594 4.566406 13.433594 C 4.171875 13.585938 3.875 14.023438 3.875 14.449219 L 3.875 25.199219 C 3.875 25.625 4.171875 26.058594 4.5625 26.214844 C 7.582031 27.410156 10.761719 28.015625 14.007812 28.015625 C 17.257812 28.015625 20.4375 27.410156 23.457031 26.214844 C 23.847656 26.058594 24.140625 25.625 24.140625 25.199219 L 24.140625 14.449219 C 24.140625 14.023438 23.84375 13.585938 23.449219 13.433594 C 23.121094 13.308594 22.761719 13.179688 22.320312 13.03125 C 22.265625 13.015625 22.203125 12.925781 22.203125 12.871094 L 22.203125 8.191406 C 22.203125 3.675781 18.527344 0 14.007812 0 Z M 11.777344 17.722656 C 11.777344 16.488281 12.777344 15.492188 14.007812 15.492188 C 15.242188 15.492188 16.238281 16.488281 16.238281 17.722656 C 16.238281 18.539062 15.777344 19.222656 15.125 19.613281 L 15.125 23.300781 C 15.125 23.917969 14.625 24.417969 14.007812 24.417969 C 13.390625 24.417969 12.894531 23.917969 12.894531 23.300781 L 12.894531 19.613281 C 12.238281 19.222656 11.777344 18.539062 11.777344 17.722656 Z M 19.382812 8.191406 L 19.382812 12.230469 C 17.621094 11.851562 15.8125 11.660156 14.007812 11.660156 C 12.207031 11.660156 10.398438 11.851562 8.632812 12.230469 L 8.632812 8.191406 C 8.632812 5.230469 11.042969 2.816406 14.007812 2.816406 C 16.972656 2.816406 19.382812 5.230469 19.382812 8.191406 Z M 19.382812 8.191406 "/>
</g>
</svg>
