<?xml version="1.0" encoding="UTF-8"?>
<svg xmlns="http://www.w3.org/2000/svg" xmlns:xlink="http://www.w3.org/1999/xlink" width="28pt" height="28pt" viewBox="0 0 28 28" version="1.1">
<g id="surface1">
<path style=" stroke:none;fill-rule:nonzero;fill:rgb(0%,0%,0%);fill-opacity:1;" d="M 25.96875 6.8125 L 17.3125 6.8125 L 20.386719 1.769531 C 20.652344 1.332031 20.515625 0.761719 20.078125 0.492188 C 19.640625 0.226562 19.070312 0.367188 18.800781 0.804688 L 15.140625 6.8125 L 12.859375 6.8125 L 9.199219 0.804688 C 8.929688 0.367188 8.359375 0.226562 7.921875 0.492188 C 7.484375 0.761719 7.347656 1.332031 7.613281 1.769531 L 10.6875 6.8125 L 2.03125 6.8125 C 0.910156 6.8125 0 7.722656 0 8.84375 L 0 25.609375 C 0 26.730469 0.910156 27.640625 2.03125 27.640625 L 25.96875 27.640625 C 27.089844 27.640625 28 26.730469 28 25.609375 L 28 8.84375 C 28 7.722656 27.089844 6.8125 25.96875 6.8125 Z M 19.636719 23.171875 C 19.636719 23.78125 19.140625 24.277344 18.53125 24.277344 L 4.398438 24.277344 C 3.789062 24.277344 3.296875 23.78125 3.296875 23.171875 L 3.296875 11.28125 C 3.296875 10.671875 3.789062 10.175781 4.398438 10.175781 L 18.53125 10.175781 C 19.140625 10.175781 19.636719 10.671875 19.636719 11.28125 Z M 23.722656 22.820312 C 22.664062 22.820312 21.804688 21.960938 21.804688 20.90625 C 21.804688 19.847656 22.664062 18.988281 23.722656 18.988281 C 24.777344 18.988281 25.636719 19.847656 25.636719 20.90625 C 25.636719 21.960938 24.777344 22.820312 23.722656 22.820312 Z M 23.722656 15.464844 C 22.664062 15.464844 21.804688 14.605469 21.804688 13.550781 C 21.804688 12.492188 22.664062 11.632812 23.722656 11.632812 C 24.777344 11.632812 25.636719 12.492188 25.636719 13.550781 C 25.636719 14.605469 24.777344 15.464844 23.722656 15.464844 Z M 23.722656 15.464844 "/>
</g>
</svg>
