<?xml version="1.0" encoding="UTF-8"?>
<svg xmlns="http://www.w3.org/2000/svg" xmlns:xlink="http://www.w3.org/1999/xlink" width="28pt" height="28pt" viewBox="0 0 28 28" version="1.1">
<g id="surface1">
<path style=" stroke:none;fill-rule:nonzero;fill:rgb(0%,0%,0%);fill-opacity:1;" d="M 21.109375 12.292969 L 6.890625 12.292969 C 3.089844 12.292969 0 15.382812 0 19.183594 C 0 22.984375 3.089844 26.074219 6.890625 26.074219 C 8.199219 26.074219 9.472656 25.707031 10.574219 25.011719 C 11.476562 24.4375 12.234375 23.664062 12.789062 22.753906 L 15.210938 22.753906 C 15.765625 23.664062 16.523438 24.4375 17.425781 25.011719 C 18.527344 25.707031 19.800781 26.074219 21.109375 26.074219 C 24.910156 26.074219 28 22.984375 28 19.183594 C 28 15.382812 24.910156 12.292969 21.109375 12.292969 Z M 9.210938 20.097656 L 7.804688 20.097656 L 7.804688 21.5 L 5.980469 21.5 L 5.980469 20.097656 L 4.574219 20.097656 L 4.574219 18.269531 L 5.980469 18.269531 L 5.980469 16.867188 L 7.804688 16.867188 L 7.804688 18.269531 L 9.210938 18.269531 Z M 21.109375 21.144531 C 20.027344 21.144531 19.144531 20.265625 19.144531 19.183594 C 19.144531 18.101562 20.027344 17.222656 21.109375 17.222656 C 22.191406 17.222656 23.070312 18.101562 23.070312 19.183594 C 23.070312 20.265625 22.191406 21.144531 21.109375 21.144531 Z M 21.109375 21.144531 "/>
<path style=" stroke:none;fill-rule:nonzero;fill:rgb(0%,0%,0%);fill-opacity:1;" d="M 19.78125 4.769531 L 15.878906 4.769531 C 15.347656 4.769531 14.914062 4.335938 14.914062 3.804688 L 14.914062 1.925781 L 13.085938 1.925781 L 13.085938 3.804688 C 13.085938 5.34375 14.339844 6.597656 15.878906 6.597656 L 19.78125 6.597656 C 20.3125 6.597656 20.746094 7.03125 20.746094 7.566406 C 20.746094 8.097656 20.3125 8.53125 19.78125 8.53125 L 15.878906 8.53125 C 14.339844 8.53125 13.085938 9.785156 13.085938 11.324219 L 13.085938 13.203125 L 14.914062 13.203125 L 14.914062 11.324219 C 14.914062 10.792969 15.347656 10.359375 15.878906 10.359375 L 19.78125 10.359375 C 21.320312 10.359375 22.574219 9.105469 22.574219 7.566406 C 22.574219 6.023438 21.320312 4.769531 19.78125 4.769531 Z M 19.78125 4.769531 "/>
</g>
</svg>
