<?xml version="1.0" encoding="UTF-8"?>
<svg xmlns="http://www.w3.org/2000/svg" xmlns:xlink="http://www.w3.org/1999/xlink" width="28pt" height="28pt" viewBox="0 0 28 28" version="1.1">
<g id="surface1">
<path style=" stroke:none;fill-rule:nonzero;fill:rgb(0%,0%,0%);fill-opacity:1;" d="M 26.429688 1.539062 C 25.40625 0.511719 24.171875 0 22.726562 0 L 5.246094 0 C 3.800781 0 2.566406 0.511719 1.539062 1.539062 C 0.511719 2.5625 0 3.800781 0 5.246094 L 0 22.726562 C 0 24.171875 0.511719 25.40625 1.539062 26.429688 C 2.566406 27.457031 3.800781 27.96875 5.246094 27.96875 L 22.726562 27.96875 C 24.171875 27.96875 25.40625 27.457031 26.429688 26.429688 C 27.457031 25.40625 27.96875 24.171875 27.96875 22.726562 L 27.96875 5.246094 C 27.96875 3.800781 27.457031 2.5625 26.429688 1.539062 Z M 23.308594 22.726562 C 23.308594 22.894531 23.253906 23.035156 23.144531 23.144531 C 23.035156 23.253906 22.894531 23.308594 22.726562 23.308594 L 5.246094 23.308594 C 5.074219 23.308594 4.933594 23.253906 4.824219 23.144531 C 4.714844 23.035156 4.660156 22.894531 4.660156 22.726562 L 4.660156 5.242188 C 4.660156 5.074219 4.714844 4.933594 4.824219 4.824219 C 4.933594 4.714844 5.074219 4.660156 5.246094 4.660156 L 22.726562 4.660156 C 22.894531 4.660156 23.035156 4.714844 23.144531 4.824219 C 23.253906 4.933594 23.308594 5.074219 23.308594 5.242188 Z M 23.308594 22.726562 "/>
<path style=" stroke:none;fill-rule:nonzero;fill:rgb(0%,0%,0%);fill-opacity:1;" d="M 19.320312 13.039062 L 11.164062 7.210938 C 10.785156 6.929688 10.386719 6.902344 9.960938 7.121094 C 9.535156 7.324219 9.324219 7.671875 9.324219 8.15625 L 9.324219 19.8125 C 9.324219 20.296875 9.535156 20.644531 9.960938 20.851562 C 10.386719 21.070312 10.785156 21.039062 11.164062 20.757812 L 19.320312 14.933594 C 19.648438 14.703125 19.8125 14.386719 19.8125 13.984375 C 19.8125 13.585938 19.648438 13.269531 19.320312 13.039062 Z M 19.320312 13.039062 "/>
</g>
</svg>
