<?xml version="1.0" encoding="UTF-8"?>
<svg xmlns="http://www.w3.org/2000/svg" xmlns:xlink="http://www.w3.org/1999/xlink" width="28pt" height="28pt" viewBox="0 0 28 28" version="1.1">
<g id="surface1">
<path style=" stroke:none;fill-rule:nonzero;fill:rgb(0%,0%,0%);fill-opacity:1;" d="M 13.960938 0 C 6.25 0 0 6.25 0 13.960938 C 0 21.671875 6.25 27.925781 13.960938 27.925781 C 21.671875 27.925781 27.925781 21.671875 27.925781 13.960938 C 27.925781 6.25 21.671875 0 13.960938 0 Z M 18.359375 15.476562 L 8.601562 15.476562 C 7.820312 15.476562 7.183594 14.84375 7.183594 14.058594 C 7.183594 13.277344 7.820312 12.640625 8.601562 12.640625 L 18.359375 12.640625 C 19.140625 12.640625 19.777344 13.277344 19.777344 14.058594 C 19.777344 14.84375 19.140625 15.476562 18.359375 15.476562 Z M 18.359375 15.476562 "/>
</g>
</svg>
