<?xml version="1.0" encoding="UTF-8"?>
<svg xmlns="http://www.w3.org/2000/svg" xmlns:xlink="http://www.w3.org/1999/xlink" width="28pt" height="28pt" viewBox="0 0 28 28" version="1.1">
<g id="surface1">
<path style=" stroke:none;fill-rule:nonzero;fill:rgb(0%,0%,0%);fill-opacity:1;" d="M 27.0625 19.558594 C 27.03125 19.558594 27.003906 19.558594 26.976562 19.5625 L 24.214844 19.5625 C 24.226562 19.292969 24.128906 19.023438 23.917969 18.824219 C 23.539062 18.472656 22.945312 18.492188 22.589844 18.871094 L 22.078125 19.417969 L 22.078125 17.398438 C 22.078125 16.878906 21.660156 16.457031 21.140625 16.457031 C 20.621094 16.457031 20.199219 16.878906 20.199219 17.398438 L 20.199219 19.417969 L 19.691406 18.871094 C 19.335938 18.492188 18.742188 18.472656 18.363281 18.824219 C 18.152344 19.023438 18.050781 19.292969 18.066406 19.5625 L 15.304688 19.5625 C 15.277344 19.558594 15.25 19.558594 15.21875 19.558594 C 14.699219 19.558594 14.28125 19.976562 14.28125 20.496094 L 14.28125 22.121094 C 14.28125 24.421875 16.394531 26.296875 18.996094 26.296875 L 23.285156 26.296875 C 25.882812 26.296875 28 24.421875 28 22.121094 L 28 20.496094 C 28 19.976562 27.578125 19.558594 27.0625 19.558594 Z M 26.121094 22.121094 C 26.121094 23.367188 24.820312 24.417969 23.285156 24.417969 L 18.996094 24.417969 C 17.457031 24.417969 16.160156 23.367188 16.160156 22.121094 L 16.160156 21.441406 L 26.121094 21.441406 Z M 26.121094 22.121094 "/>
<path style=" stroke:none;fill-rule:nonzero;fill:rgb(0%,0%,0%);fill-opacity:1;" d="M 12.78125 19.558594 C 12.75 19.558594 12.722656 19.558594 12.695312 19.5625 L 9.933594 19.5625 C 9.949219 19.292969 9.847656 19.023438 9.636719 18.824219 C 9.257812 18.472656 8.664062 18.492188 8.3125 18.871094 L 7.800781 19.417969 L 7.800781 17.398438 C 7.800781 16.878906 7.378906 16.457031 6.859375 16.457031 C 6.339844 16.457031 5.921875 16.878906 5.921875 17.398438 L 5.921875 19.417969 L 5.410156 18.871094 C 5.054688 18.492188 4.460938 18.472656 4.082031 18.824219 C 3.871094 19.023438 3.773438 19.292969 3.785156 19.5625 L 1.023438 19.5625 C 0.996094 19.558594 0.96875 19.558594 0.9375 19.558594 C 0.421875 19.558594 0 19.976562 0 20.496094 L 0 22.121094 C 0 24.421875 2.117188 26.296875 4.714844 26.296875 L 9.003906 26.296875 C 11.605469 26.296875 13.71875 24.421875 13.71875 22.121094 L 13.71875 20.496094 C 13.71875 19.976562 13.300781 19.558594 12.78125 19.558594 Z M 11.839844 22.121094 C 11.839844 23.367188 10.542969 24.417969 9.003906 24.417969 L 4.714844 24.417969 C 3.179688 24.417969 1.878906 23.367188 1.878906 22.121094 L 1.878906 21.441406 L 11.839844 21.441406 Z M 11.839844 22.121094 "/>
<path style=" stroke:none;fill-rule:nonzero;fill:rgb(0%,0%,0%);fill-opacity:1;" d="M 1.4375 14.382812 L 12.285156 14.382812 C 12.800781 14.382812 13.222656 13.960938 13.222656 13.441406 L 13.222656 2.644531 C 13.222656 2.125 12.800781 1.703125 12.285156 1.703125 L 1.4375 1.703125 C 0.917969 1.703125 0.496094 2.125 0.496094 2.644531 L 0.496094 13.441406 C 0.496094 13.960938 0.917969 14.382812 1.4375 14.382812 Z M 2.375 3.582031 L 11.34375 3.582031 L 11.34375 12.503906 L 2.375 12.503906 Z M 2.375 3.582031 "/>
<path style=" stroke:none;fill-rule:nonzero;fill:rgb(0%,0%,0%);fill-opacity:1;" d="M 15.714844 14.382812 L 26.5625 14.382812 C 27.082031 14.382812 27.503906 13.960938 27.503906 13.441406 L 27.503906 2.644531 C 27.503906 2.125 27.082031 1.703125 26.5625 1.703125 L 15.714844 1.703125 C 15.199219 1.703125 14.777344 2.125 14.777344 2.644531 L 14.777344 13.441406 C 14.777344 13.960938 15.199219 14.382812 15.714844 14.382812 Z M 16.65625 3.582031 L 25.625 3.582031 L 25.625 12.503906 L 16.65625 12.503906 Z M 16.65625 3.582031 "/>
</g>
</svg>
