<?xml version="1.0" encoding="UTF-8"?>
<svg xmlns="http://www.w3.org/2000/svg" xmlns:xlink="http://www.w3.org/1999/xlink" width="28pt" height="28pt" viewBox="0 0 28 28" version="1.1">
<g id="surface1">
<path style=" stroke:none;fill-rule:nonzero;fill:rgb(0%,0%,0%);fill-opacity:1;" d="M 24.390625 2.789062 L 16.140625 2.789062 C 16.1875 2.605469 16.214844 2.414062 16.214844 2.214844 C 16.214844 0.992188 15.222656 0 14 0 C 12.777344 0 11.785156 0.992188 11.785156 2.214844 C 11.785156 2.414062 11.8125 2.605469 11.859375 2.789062 L 3.609375 2.789062 C 3.15625 2.789062 2.789062 3.15625 2.789062 3.609375 L 2.789062 27.179688 C 2.789062 27.632812 3.15625 28 3.609375 28 L 24.390625 28 C 24.84375 28 25.210938 27.632812 25.210938 27.179688 L 25.210938 3.609375 C 25.210938 3.15625 24.84375 2.789062 24.390625 2.789062 Z M 14 1.640625 C 14.316406 1.640625 14.574219 1.898438 14.574219 2.214844 C 14.574219 2.53125 14.316406 2.789062 14 2.789062 C 13.683594 2.789062 13.425781 2.53125 13.425781 2.214844 C 13.425781 1.898438 13.683594 1.640625 14 1.640625 Z M 21.929688 23.898438 C 21.929688 24.351562 21.5625 24.71875 21.109375 24.71875 L 6.890625 24.71875 C 6.4375 24.71875 6.070312 24.351562 6.070312 23.898438 L 6.070312 6.890625 C 6.070312 6.4375 6.4375 6.070312 6.890625 6.070312 L 21.109375 6.070312 C 21.5625 6.070312 21.929688 6.4375 21.929688 6.890625 Z M 21.929688 23.898438 "/>
</g>
</svg>
