<?xml version="1.0" encoding="UTF-8"?>
<svg xmlns="http://www.w3.org/2000/svg" xmlns:xlink="http://www.w3.org/1999/xlink" width="28pt" height="28pt" viewBox="0 0 28 28" version="1.1">
<g id="surface1">
<path style=" stroke:none;fill-rule:nonzero;fill:rgb(0%,0%,0%);fill-opacity:1;" d="M 14 1.398438 C 20.949219 1.398438 26.601562 7.050781 26.601562 14 C 26.601562 20.949219 20.949219 26.601562 14 26.601562 C 7.050781 26.601562 1.398438 20.949219 1.398438 14 C 1.398438 7.050781 7.050781 1.398438 14 1.398438 M 14 0 C 6.269531 0 0 6.269531 0 14 C 0 21.730469 6.269531 28 14 28 C 21.730469 28 28 21.730469 28 14 C 28 6.269531 21.730469 0 14 0 Z M 14 0 "/>
<path style=" stroke:none;fill-rule:nonzero;fill:rgb(0%,0%,0%);fill-opacity:1;" d="M 8.632812 9.597656 L 8.632812 18.40625 C 8.632812 19.6875 9.683594 20.738281 10.964844 20.738281 C 12.25 20.738281 13.300781 19.6875 13.300781 18.40625 L 13.300781 16.5625 L 17.023438 19 C 18.3125 19.84375 19.367188 19.273438 19.367188 17.734375 L 19.367188 9.859375 C 19.367188 8.316406 18.3125 7.75 17.027344 8.597656 L 13.300781 11.050781 L 13.300781 9.597656 C 13.300781 8.3125 12.25 7.261719 10.964844 7.261719 C 9.683594 7.261719 8.632812 8.3125 8.632812 9.597656 Z M 10.035156 9.597656 C 10.035156 9.082031 10.453125 8.664062 10.964844 8.664062 C 11.480469 8.664062 11.898438 9.082031 11.898438 9.597656 L 11.898438 11.039062 C 11.898438 11.550781 11.898438 12.347656 11.898438 12.808594 C 11.898438 13.269531 12.25 13.417969 12.679688 13.132812 L 17.1875 10.167969 C 17.617188 9.886719 17.964844 10.078125 17.964844 10.589844 L 17.964844 17.011719 C 17.964844 17.523438 17.617188 17.714844 17.183594 17.433594 L 12.679688 14.484375 C 12.25 14.203125 11.898438 14.351562 11.898438 14.8125 C 11.898438 15.269531 11.898438 16.066406 11.898438 16.582031 L 11.898438 18.40625 C 11.898438 18.917969 11.480469 19.335938 10.964844 19.335938 C 10.453125 19.335938 10.035156 18.917969 10.035156 18.40625 L 10.035156 15.359375 C 10.035156 14.84375 10.035156 14.148438 10.035156 13.8125 C 10.035156 13.476562 10.035156 12.777344 10.035156 12.265625 Z M 10.035156 9.597656 "/>
</g>
</svg>
