<?xml version="1.0" encoding="UTF-8"?>
<svg xmlns="http://www.w3.org/2000/svg" xmlns:xlink="http://www.w3.org/1999/xlink" width="28pt" height="28pt" viewBox="0 0 28 28" version="1.1">
<g id="surface1">
<path style=" stroke:none;fill-rule:nonzero;fill:rgb(0%,0%,0%);fill-opacity:1;" d="M 28.003906 10.996094 C 28.003906 10.582031 27.691406 10.324219 27.0625 10.222656 L 18.613281 8.996094 L 14.828125 1.335938 C 14.613281 0.878906 14.339844 0.648438 14.003906 0.648438 C 13.664062 0.648438 13.390625 0.878906 13.175781 1.335938 L 9.390625 8.996094 L 0.941406 10.222656 C 0.3125 10.324219 0 10.582031 0 10.996094 C 0 11.234375 0.140625 11.503906 0.421875 11.804688 L 6.546875 17.761719 L 5.097656 26.179688 C 5.078125 26.335938 5.066406 26.449219 5.066406 26.515625 C 5.066406 26.75 5.125 26.949219 5.242188 27.113281 C 5.359375 27.277344 5.535156 27.355469 5.773438 27.355469 C 5.976562 27.355469 6.199219 27.289062 6.445312 27.15625 L 14.003906 23.183594 L 21.558594 27.15625 C 21.792969 27.289062 22.019531 27.355469 22.230469 27.355469 C 22.691406 27.355469 22.921875 27.078125 22.921875 26.515625 C 22.921875 26.371094 22.917969 26.257812 22.90625 26.179688 L 21.457031 17.765625 L 27.566406 11.804688 C 27.859375 11.515625 28.003906 11.246094 28.003906 10.996094 Z M 19.136719 17.007812 L 20.347656 24.089844 L 14.003906 20.742188 L 7.640625 24.089844 L 8.867188 17.007812 L 3.71875 12.007812 L 10.820312 10.964844 L 14.003906 4.535156 L 17.183594 10.964844 L 24.285156 12.007812 Z M 19.136719 17.007812 "/>
</g>
</svg>
