<?xml version="1.0" encoding="UTF-8"?>
<svg xmlns="http://www.w3.org/2000/svg" xmlns:xlink="http://www.w3.org/1999/xlink" width="28pt" height="28pt" viewBox="0 0 28 28" version="1.1">
<g id="surface1">
<path style=" stroke:none;fill-rule:nonzero;fill:rgb(0%,0%,0%);fill-opacity:1;" d="M 18.566406 21.871094 C 16.496094 23.867188 13.789062 24.953125 10.96875 24.953125 C 10.488281 24.953125 10.007812 24.921875 9.523438 24.859375 C 3.539062 24.070312 -0.691406 18.558594 0.09375 12.570312 C 0.882812 6.585938 6.390625 2.351562 12.382812 3.140625 C 12.535156 3.160156 12.6875 3.1875 12.839844 3.210938 C 13.054688 3.25 13.230469 3.40625 13.292969 3.613281 C 13.355469 3.820312 13.296875 4.046875 13.140625 4.199219 C 11.785156 5.507812 10.859375 7.132812 10.429688 8.9375 L 9.242188 8.9375 C 9.613281 7.191406 10.394531 5.585938 11.539062 4.222656 C 11.339844 4.210938 11.144531 4.203125 10.945312 4.203125 C 6.109375 4.203125 1.890625 7.800781 1.242188 12.722656 C 0.539062 18.078125 4.320312 23.003906 9.675781 23.710938 C 12.28125 24.050781 14.867188 23.347656 16.921875 21.761719 C 15.117188 21.25 13.53125 20.300781 12.261719 19.050781 L 14.03125 19.050781 C 15.238281 19.960938 16.671875 20.605469 18.261719 20.882812 C 18.476562 20.921875 18.652344 21.074219 18.714844 21.285156 C 18.78125 21.492188 18.722656 21.71875 18.566406 21.871094 Z M 21.234375 17.222656 C 21.234375 16.902344 20.976562 16.640625 20.65625 16.640625 L 17.902344 16.640625 L 21.027344 13.484375 C 21.191406 13.320312 21.242188 13.070312 21.148438 12.855469 C 21.058594 12.640625 20.847656 12.5 20.617188 12.5 L 16.515625 12.5 C 16.195312 12.5 15.933594 12.757812 15.933594 13.078125 C 15.933594 13.398438 16.195312 13.65625 16.515625 13.65625 L 19.226562 13.65625 L 16.101562 16.8125 C 15.9375 16.980469 15.890625 17.226562 15.980469 17.445312 C 16.070312 17.660156 16.28125 17.800781 16.515625 17.800781 L 20.65625 17.800781 C 20.976562 17.800781 21.234375 17.539062 21.234375 17.222656 Z M 28 17.222656 C 28 16.902344 27.742188 16.640625 27.421875 16.640625 L 24.667969 16.640625 L 27.792969 13.484375 C 27.957031 13.320312 28.003906 13.070312 27.914062 12.855469 C 27.824219 12.640625 27.613281 12.5 27.378906 12.5 L 23.277344 12.5 C 22.960938 12.5 22.699219 12.757812 22.699219 13.078125 C 22.699219 13.398438 22.957031 13.65625 23.277344 13.65625 L 25.992188 13.65625 L 22.867188 16.8125 C 22.703125 16.980469 22.65625 17.226562 22.746094 17.445312 C 22.835938 17.660156 23.046875 17.800781 23.277344 17.800781 L 27.421875 17.800781 C 27.742188 17.800781 28 17.539062 28 17.222656 Z M 14.589844 17.222656 C 14.589844 16.902344 14.332031 16.640625 14.011719 16.640625 L 8.902344 16.640625 L 14.359375 11.128906 C 14.523438 10.964844 14.570312 10.714844 14.480469 10.5 C 14.390625 10.285156 14.179688 10.144531 13.949219 10.144531 L 7.511719 10.144531 C 7.191406 10.144531 6.933594 10.402344 6.933594 10.722656 C 6.933594 11.042969 7.191406 11.300781 7.511719 11.300781 L 12.558594 11.300781 L 7.101562 16.8125 C 6.9375 16.980469 6.886719 17.226562 6.976562 17.445312 C 7.066406 17.660156 7.277344 17.800781 7.511719 17.800781 L 14.011719 17.800781 C 14.332031 17.800781 14.589844 17.539062 14.589844 17.222656 Z M 14.589844 17.222656 "/>
</g>
</svg>
