<?xml version="1.0" encoding="UTF-8"?>
<svg xmlns="http://www.w3.org/2000/svg" xmlns:xlink="http://www.w3.org/1999/xlink" width="28pt" height="28pt" viewBox="0 0 28 28" version="1.1">
<g id="surface1">
<path style=" stroke:none;fill-rule:nonzero;fill:rgb(0%,0%,0%);fill-opacity:1;" d="M 27.546875 17.875 C 27.113281 17.53125 26.5 17.523438 26.058594 17.859375 C 24.113281 19.347656 21.785156 20.132812 19.332031 20.132812 C 18.660156 20.132812 17.992188 20.074219 17.339844 19.953125 C 17.078125 19.90625 16.828125 20.078125 16.78125 20.339844 C 16.734375 20.601562 16.90625 20.847656 17.167969 20.898438 C 17.878906 21.027344 18.605469 21.089844 19.328125 21.089844 C 21.996094 21.089844 24.523438 20.238281 26.640625 18.621094 C 26.730469 18.550781 26.859375 18.554688 26.949219 18.625 C 27.039062 18.695312 27.066406 18.820312 27.019531 18.921875 C 25.976562 21.203125 24.3125 23.136719 22.210938 24.515625 C 20.054688 25.929688 17.542969 26.675781 14.953125 26.675781 C 7.640625 26.675781 1.691406 20.726562 1.691406 13.414062 C 1.691406 10.824219 2.4375 8.3125 3.851562 6.15625 C 5.230469 4.050781 7.164062 2.390625 9.441406 1.347656 C 9.546875 1.300781 9.671875 1.328125 9.742188 1.417969 C 9.8125 1.507812 9.816406 1.636719 9.746094 1.726562 C 8.128906 3.839844 7.277344 6.371094 7.277344 9.035156 C 7.277344 11.621094 8.082031 14.082031 9.613281 16.164062 C 11.113281 18.199219 13.164062 19.695312 15.550781 20.484375 C 15.804688 20.566406 16.074219 20.429688 16.15625 20.179688 C 16.242188 19.929688 16.105469 19.660156 15.851562 19.574219 C 11.296875 18.066406 8.234375 13.832031 8.234375 9.035156 C 8.234375 6.582031 9.019531 4.253906 10.507812 2.308594 C 10.84375 1.867188 10.835938 1.253906 10.492188 0.820312 C 10.144531 0.386719 9.550781 0.246094 9.042969 0.476562 C 6.601562 1.59375 4.527344 3.375 3.050781 5.628906 C 1.535156 7.945312 0.734375 10.636719 0.734375 13.414062 C 0.734375 21.253906 7.113281 27.632812 14.953125 27.632812 C 17.730469 27.632812 20.421875 26.832031 22.734375 25.316406 C 24.988281 23.839844 26.773438 21.765625 27.890625 19.320312 C 28.121094 18.816406 27.980469 18.222656 27.546875 17.875 Z M 27.546875 17.875 "/>
<path style=" stroke:none;fill-rule:nonzero;fill:rgb(0%,0%,0%);fill-opacity:1;" d="M 13.75 8.972656 C 14.882812 8.972656 15.804688 9.894531 15.804688 11.027344 C 15.804688 11.289062 16.019531 11.503906 16.28125 11.503906 C 16.546875 11.503906 16.761719 11.289062 16.761719 11.027344 C 16.761719 9.894531 17.683594 8.972656 18.8125 8.972656 C 19.078125 8.972656 19.292969 8.757812 19.292969 8.496094 C 19.292969 8.230469 19.078125 8.015625 18.8125 8.015625 C 17.683594 8.015625 16.761719 7.09375 16.761719 5.964844 C 16.761719 5.699219 16.546875 5.484375 16.28125 5.484375 C 16.019531 5.484375 15.804688 5.699219 15.804688 5.964844 C 15.804688 7.09375 14.882812 8.015625 13.75 8.015625 C 13.488281 8.015625 13.273438 8.230469 13.273438 8.496094 C 13.273438 8.757812 13.488281 8.972656 13.75 8.972656 Z M 16.28125 7.589844 C 16.515625 7.953125 16.824219 8.261719 17.1875 8.496094 C 16.824219 8.726562 16.515625 9.035156 16.28125 9.398438 C 16.050781 9.035156 15.742188 8.726562 15.378906 8.496094 C 15.742188 8.261719 16.050781 7.953125 16.28125 7.589844 Z M 16.28125 7.589844 "/>
<path style=" stroke:none;fill-rule:nonzero;fill:rgb(0%,0%,0%);fill-opacity:1;" d="M 20.53125 15.132812 C 21.351562 15.132812 22.019531 14.464844 22.019531 13.640625 C 22.019531 12.820312 21.351562 12.152344 20.53125 12.152344 C 19.707031 12.152344 19.039062 12.820312 19.039062 13.640625 C 19.039062 14.464844 19.707031 15.132812 20.53125 15.132812 Z M 20.53125 13.109375 C 20.824219 13.109375 21.0625 13.347656 21.0625 13.640625 C 21.0625 13.933594 20.824219 14.175781 20.53125 14.175781 C 20.238281 14.175781 19.996094 13.933594 19.996094 13.640625 C 19.996094 13.347656 20.238281 13.109375 20.53125 13.109375 Z M 20.53125 13.109375 "/>
<path style=" stroke:none;fill-rule:nonzero;fill:rgb(0%,0%,0%);fill-opacity:1;" d="M 2.210938 23.886719 C 1.390625 23.886719 0.722656 24.554688 0.722656 25.375 C 0.722656 26.195312 1.390625 26.867188 2.210938 26.867188 C 3.035156 26.867188 3.703125 26.195312 3.703125 25.375 C 3.703125 24.554688 3.035156 23.886719 2.210938 23.886719 Z M 2.210938 25.90625 C 1.917969 25.90625 1.679688 25.667969 1.679688 25.375 C 1.679688 25.082031 1.917969 24.84375 2.210938 24.84375 C 2.503906 24.84375 2.746094 25.082031 2.746094 25.375 C 2.746094 25.667969 2.503906 25.90625 2.210938 25.90625 Z M 2.210938 25.90625 "/>
<path style=" stroke:none;fill-rule:nonzero;fill:rgb(0%,0%,0%);fill-opacity:1;" d="M 16.882812 14.242188 C 16.882812 14.574219 16.613281 14.84375 16.28125 14.84375 C 15.949219 14.84375 15.683594 14.574219 15.683594 14.242188 C 15.683594 13.910156 15.949219 13.640625 16.28125 13.640625 C 16.613281 13.640625 16.882812 13.910156 16.882812 14.242188 Z M 16.882812 14.242188 "/>
<path style=" stroke:none;fill-rule:nonzero;fill:rgb(0%,0%,0%);fill-opacity:1;" d="M 1.199219 21.453125 C 1.199219 21.785156 0.933594 22.050781 0.601562 22.050781 C 0.269531 22.050781 0 21.785156 0 21.453125 C 0 21.121094 0.269531 20.851562 0.601562 20.851562 C 0.933594 20.851562 1.199219 21.121094 1.199219 21.453125 Z M 1.199219 21.453125 "/>
<path style=" stroke:none;fill-rule:nonzero;fill:rgb(0%,0%,0%);fill-opacity:1;" d="M 20.734375 4.960938 C 20.734375 5.292969 20.464844 5.5625 20.132812 5.5625 C 19.800781 5.5625 19.53125 5.292969 19.53125 4.960938 C 19.53125 4.628906 19.800781 4.363281 20.132812 4.363281 C 20.464844 4.363281 20.734375 4.628906 20.734375 4.960938 Z M 20.734375 4.960938 "/>
</g>
</svg>
