<?xml version="1.0" encoding="UTF-8"?>
<svg xmlns="http://www.w3.org/2000/svg" xmlns:xlink="http://www.w3.org/1999/xlink" width="28pt" height="28pt" viewBox="0 0 28 28" version="1.1">
<g id="surface1">
<path style=" stroke:none;fill-rule:nonzero;fill:rgb(0%,0%,0%);fill-opacity:1;" d="M 17.5 4.007812 L 17.5 7.726562 C 18.488281 8.15625 19.398438 8.777344 20.1875 9.5625 C 21.839844 11.214844 22.75 13.414062 22.75 15.75 C 22.75 18.085938 21.839844 20.285156 20.1875 21.9375 C 18.535156 23.589844 16.335938 24.5 14 24.5 C 11.664062 24.5 9.464844 23.589844 7.8125 21.9375 C 6.160156 20.285156 5.25 18.085938 5.25 15.75 C 5.25 13.414062 6.160156 11.214844 7.8125 9.5625 C 8.601562 8.777344 9.511719 8.15625 10.5 7.726562 L 10.5 4.007812 C 5.441406 5.515625 1.75 10.199219 1.75 15.75 C 1.75 22.515625 7.234375 28 14 28 C 20.765625 28 26.25 22.515625 26.25 15.75 C 26.25 10.199219 22.558594 5.515625 17.5 4.007812 Z M 12.25 0 L 15.75 0 L 15.75 14 L 12.25 14 Z M 12.25 0 "/>
</g>
</svg>
