<svg xmlns="http://www.w3.org/2000/svg" xmlns:xlink="http://www.w3.org/1999/xlink" viewBox="0 0 1020 480"><g fill="#d9d9d9"><use xlink:href="#B"/><use xlink:href="#C"/><use xlink:href="#B" y="30.3"/><use xlink:href="#C" y="30.3"/><use xlink:href="#B" y="60.6"/><use xlink:href="#C" y="60.6"/><use xlink:href="#B" y="90.9"/><use xlink:href="#C" y="90.9"/><use xlink:href="#B" y="121.2"/><use xlink:href="#C" y="121.2"/><use xlink:href="#B" y="151.5"/><use xlink:href="#C" y="151.5"/><use xlink:href="#B" y="181.8"/><use xlink:href="#C" y="181.8"/><use xlink:href="#B" y="212.1"/><use xlink:href="#C" y="212.1"/><use xlink:href="#B" y="242.4"/><use xlink:href="#C" y="242.4"/><use xlink:href="#B" y="272.7"/><use xlink:href="#C" y="272.7"/><use xlink:href="#B" y="303"/><use xlink:href="#C" y="303"/><use xlink:href="#B" y="333.3"/><use xlink:href="#C" y="333.3"/><use xlink:href="#B" y="363.6"/><use xlink:href="#C" y="363.6"/><use xlink:href="#B" y="393.9"/><use xlink:href="#C" y="393.9"/><use xlink:href="#B" y="424.2"/><use xlink:href="#C" y="424.2"/><use xlink:href="#B" y="454.5"/><use xlink:href="#C" y="454.5"/><use xlink:href="#B" x="-30.3"/><use xlink:href="#C" x="-30.3"/><use xlink:href="#B" x="-30.3" y="30.3"/><use xlink:href="#C" x="-30.3" y="30.3"/><use xlink:href="#B" x="-30.3" y="60.6"/><use xlink:href="#C" x="-30.3" y="60.6"/><use xlink:href="#B" x="-30.3" y="90.9"/><use xlink:href="#C" x="-30.3" y="90.9"/><use xlink:href="#B" x="-30.3" y="121.2"/><use xlink:href="#C" x="-30.3" y="121.2"/><use xlink:href="#B" x="-30.3" y="151.5"/><use xlink:href="#C" x="-30.3" y="151.5"/><use xlink:href="#B" x="-30.3" y="181.8"/><use xlink:href="#C" x="-30.3" y="181.8"/><use xlink:href="#B" x="-30.3" y="212.1"/><use xlink:href="#C" x="-30.3" y="212.1"/><use xlink:href="#B" x="-30.3" y="242.4"/><use xlink:href="#C" x="-30.3" y="242.4"/><use xlink:href="#B" x="-30.3" y="272.7"/><use xlink:href="#C" x="-30.3" y="272.7"/><use xlink:href="#B" x="-30.3" y="303"/><use xlink:href="#C" x="-30.3" y="303"/><use xlink:href="#B" x="-30.3" y="333.3"/><use xlink:href="#C" x="-30.3" y="333.3"/><use xlink:href="#B" x="-30.3" y="363.6"/><use xlink:href="#C" x="-30.3" y="363.6"/><use xlink:href="#B" x="-30.3" y="393.9"/><use xlink:href="#C" x="-30.3" y="393.9"/><use xlink:href="#B" x="-30.3" y="424.2"/><use xlink:href="#C" x="-30.3" y="424.2"/><use xlink:href="#B" x="-30.3" y="454.5"/><use xlink:href="#C" x="-30.3" y="454.5"/><use xlink:href="#B" x="-60.6"/><use xlink:href="#C" x="-60.6"/><use xlink:href="#B" x="-60.6" y="30.3"/><use xlink:href="#C" x="-60.6" y="30.3"/><use xlink:href="#B" x="-60.6" y="60.6"/><use xlink:href="#C" x="-60.6" y="60.6"/><use xlink:href="#B" x="-60.6" y="90.9"/><use xlink:href="#C" x="-60.6" y="90.9"/><use xlink:href="#B" x="-60.6" y="121.2"/><use xlink:href="#C" x="-60.6" y="121.2"/><use xlink:href="#B" x="-60.6" y="151.5"/><use xlink:href="#C" x="-60.6" y="151.5"/><use xlink:href="#B" x="-60.6" y="181.8"/><use xlink:href="#C" x="-60.6" y="181.8"/><use xlink:href="#B" x="-60.6" y="212.1"/><use xlink:href="#C" x="-60.6" y="212.1"/><use xlink:href="#B" x="-60.6" y="242.4"/><use xlink:href="#C" x="-60.6" y="242.4"/><use xlink:href="#B" x="-60.6" y="272.7"/><use xlink:href="#C" x="-60.6" y="272.7"/><use xlink:href="#B" x="-60.6" y="303"/><use xlink:href="#C" x="-60.6" y="303"/><use xlink:href="#B" x="-60.6" y="333.3"/><use xlink:href="#C" x="-60.6" y="333.3"/><use xlink:href="#B" x="-60.6" y="363.6"/><use xlink:href="#C" x="-60.6" y="363.6"/><use xlink:href="#B" x="-60.6" y="393.9"/><use xlink:href="#C" x="-60.6" y="393.9"/><use xlink:href="#B" x="-60.6" y="424.2"/><use xlink:href="#C" x="-60.6" y="424.2"/><use xlink:href="#B" x="-60.6" y="454.5"/><use xlink:href="#C" x="-60.6" y="454.5"/><use xlink:href="#B" x="-90.9"/><use xlink:href="#C" x="-90.9"/><use xlink:href="#B" x="-90.9" y="30.3"/><use xlink:href="#C" x="-90.9" y="30.3"/><use xlink:href="#B" x="-90.9" y="60.6"/><use xlink:href="#C" x="-90.9" y="60.6"/><use xlink:href="#B" x="-90.9" y="90.9"/><use xlink:href="#C" x="-90.9" y="90.9"/><use xlink:href="#B" x="-90.9" y="121.2"/><use xlink:href="#C" x="-90.9" y="121.2"/><use xlink:href="#B" x="-90.9" y="151.5"/><use xlink:href="#C" x="-90.9" y="151.5"/><use xlink:href="#B" x="-90.9" y="181.8"/><use xlink:href="#C" x="-90.9" y="181.8"/><use xlink:href="#B" x="-90.9" y="212.1"/><use xlink:href="#C" x="-90.9" y="212.1"/><use xlink:href="#B" x="-90.9" y="242.4"/><use xlink:href="#C" x="-90.9" y="242.4"/><use xlink:href="#B" x="-90.9" y="272.7"/><use xlink:href="#C" x="-90.9" y="272.7"/><use xlink:href="#B" x="-90.9" y="303"/><use xlink:href="#C" x="-90.9" y="303"/><use xlink:href="#B" x="-90.9" y="333.3"/><use xlink:href="#C" x="-90.9" y="333.3"/><use xlink:href="#B" x="-90.9" y="363.6"/><use xlink:href="#C" x="-90.9" y="363.6"/><use xlink:href="#B" x="-90.9" y="393.9"/><use xlink:href="#C" x="-90.9" y="393.9"/><use xlink:href="#B" x="-90.9" y="424.2"/><use xlink:href="#C" x="-90.9" y="424.2"/><use xlink:href="#B" x="-90.9" y="454.5"/><use xlink:href="#C" x="-90.9" y="454.5"/><use xlink:href="#B" x="-121.2"/><use xlink:href="#C" x="-121.2"/><use xlink:href="#B" x="-121.2" y="30.3"/><use xlink:href="#C" x="-121.2" y="30.3"/><use xlink:href="#B" x="-121.2" y="60.6"/><use xlink:href="#C" x="-121.2" y="60.6"/><use xlink:href="#B" x="-121.2" y="90.9"/><use xlink:href="#C" x="-121.2" y="90.9"/><use xlink:href="#B" x="-121.2" y="121.2"/><use xlink:href="#C" x="-121.2" y="121.2"/><use xlink:href="#B" x="-121.2" y="151.5"/><use xlink:href="#C" x="-121.2" y="151.5"/><use xlink:href="#B" x="-121.2" y="181.8"/><use xlink:href="#C" x="-121.2" y="181.8"/><use xlink:href="#B" x="-121.2" y="212.1"/><use xlink:href="#C" x="-121.2" y="212.1"/><use xlink:href="#B" x="-121.2" y="242.4"/><use xlink:href="#C" x="-121.2" y="242.4"/><use xlink:href="#B" x="-121.2" y="272.7"/><use xlink:href="#C" x="-121.2" y="272.7"/><use xlink:href="#B" x="-121.2" y="303"/><use xlink:href="#C" x="-121.2" y="303"/><use xlink:href="#B" x="-121.2" y="333.3"/><use xlink:href="#C" x="-121.2" y="333.3"/><use xlink:href="#B" x="-121.2" y="363.6"/><use xlink:href="#C" x="-121.2" y="363.6"/><use xlink:href="#B" x="-121.2" y="393.9"/><use xlink:href="#C" x="-121.2" y="393.9"/><use xlink:href="#B" x="-121.2" y="424.2"/><use xlink:href="#C" x="-121.2" y="424.2"/><use xlink:href="#B" x="-121.2" y="454.5"/><use xlink:href="#C" x="-121.2" y="454.5"/><use xlink:href="#B" x="-151.5"/><use xlink:href="#C" x="-151.5"/><use xlink:href="#B" x="-151.5" y="30.3"/><use xlink:href="#C" x="-151.5" y="30.3"/><use xlink:href="#B" x="-151.5" y="60.6"/><use xlink:href="#C" x="-151.5" y="60.6"/><use xlink:href="#B" x="-151.5" y="90.9"/><use xlink:href="#C" x="-151.5" y="90.9"/><use xlink:href="#B" x="-151.5" y="121.2"/><use xlink:href="#C" x="-151.5" y="121.2"/><use xlink:href="#B" x="-151.5" y="151.5"/><use xlink:href="#C" x="-151.5" y="151.5"/><use xlink:href="#B" x="-151.5" y="181.8"/><use xlink:href="#C" x="-151.5" y="181.8"/><use xlink:href="#B" x="-151.5" y="212.1"/><use xlink:href="#C" x="-151.5" y="212.1"/><use xlink:href="#B" x="-151.5" y="242.4"/><use xlink:href="#C" x="-151.5" y="242.4"/><use xlink:href="#B" x="-151.5" y="272.7"/><use xlink:href="#C" x="-151.5" y="272.7"/><use xlink:href="#B" x="-151.5" y="303"/><use xlink:href="#C" x="-151.5" y="303"/><use xlink:href="#B" x="-151.5" y="333.3"/><use xlink:href="#C" x="-151.5" y="333.3"/><use xlink:href="#B" x="-151.5" y="363.6"/><use xlink:href="#C" x="-151.5" y="363.6"/><use xlink:href="#B" x="-151.5" y="393.9"/><use xlink:href="#C" x="-151.5" y="393.9"/><use xlink:href="#B" x="-151.5" y="424.2"/><use xlink:href="#C" x="-151.5" y="424.2"/><use xlink:href="#B" x="-151.5" y="454.5"/><use xlink:href="#C" x="-151.5" y="454.5"/><use xlink:href="#B" x="-181.8"/><use xlink:href="#C" x="-181.8"/><use xlink:href="#B" x="-181.8" y="30.3"/><use xlink:href="#C" x="-181.8" y="30.3"/><use xlink:href="#B" x="-181.8" y="60.6"/><use xlink:href="#C" x="-181.8" y="60.6"/><use xlink:href="#B" x="-181.8" y="90.9"/><use xlink:href="#C" x="-181.8" y="90.9"/><use xlink:href="#B" x="-181.8" y="121.2"/><use xlink:href="#C" x="-181.8" y="121.2"/><use xlink:href="#B" x="-181.8" y="151.5"/><use xlink:href="#C" x="-181.8" y="151.5"/><use xlink:href="#B" x="-181.8" y="181.8"/><use xlink:href="#C" x="-181.8" y="181.8"/><use xlink:href="#B" x="-181.8" y="212.1"/><use xlink:href="#C" x="-181.8" y="212.1"/><use xlink:href="#B" x="-181.8" y="242.4"/><use xlink:href="#C" x="-181.8" y="242.4"/><use xlink:href="#B" x="-181.8" y="272.7"/><use xlink:href="#C" x="-181.8" y="272.7"/><use xlink:href="#B" x="-181.8" y="303"/><use xlink:href="#C" x="-181.8" y="303"/><use xlink:href="#B" x="-181.8" y="333.3"/><use xlink:href="#C" x="-181.8" y="333.3"/><use xlink:href="#B" x="-181.8" y="363.6"/><use xlink:href="#C" x="-181.8" y="363.6"/><use xlink:href="#B" x="-181.8" y="393.9"/><use xlink:href="#C" x="-181.8" y="393.9"/><use xlink:href="#B" x="-181.8" y="424.2"/><use xlink:href="#C" x="-181.8" y="424.2"/><use xlink:href="#B" x="-181.8" y="454.5"/><use xlink:href="#C" x="-181.8" y="454.5"/><use xlink:href="#B" x="-212.1"/><use xlink:href="#C" x="-212.1"/><use xlink:href="#B" x="-212.1" y="30.3"/><use xlink:href="#C" x="-212.1" y="30.3"/><use xlink:href="#B" x="-212.1" y="60.6"/><use xlink:href="#C" x="-212.1" y="60.6"/><use xlink:href="#B" x="-212.1" y="90.9"/><use xlink:href="#C" x="-212.1" y="90.9"/><use xlink:href="#B" x="-212.1" y="121.2"/><use xlink:href="#C" x="-212.1" y="121.2"/><use xlink:href="#B" x="-212.1" y="151.5"/><use xlink:href="#C" x="-212.1" y="151.5"/><use xlink:href="#B" x="-212.1" y="181.8"/><use xlink:href="#C" x="-212.1" y="181.8"/><use xlink:href="#B" x="-212.1" y="212.1"/><use xlink:href="#C" x="-212.1" y="212.1"/><use xlink:href="#B" x="-212.1" y="242.4"/><use xlink:href="#C" x="-212.1" y="242.4"/><use xlink:href="#B" x="-212.1" y="272.7"/><use xlink:href="#C" x="-212.1" y="272.7"/><use xlink:href="#B" x="-212.1" y="303"/><use xlink:href="#C" x="-212.1" y="303"/><use xlink:href="#B" x="-212.1" y="333.3"/><use xlink:href="#C" x="-212.1" y="333.3"/><use xlink:href="#B" x="-212.1" y="363.6"/><use xlink:href="#C" x="-212.1" y="363.6"/><use xlink:href="#B" x="-212.1" y="393.9"/><use xlink:href="#C" x="-212.1" y="393.9"/><use xlink:href="#B" x="-212.1" y="424.2"/><use xlink:href="#C" x="-212.1" y="424.2"/><use xlink:href="#B" x="-212.1" y="454.5"/><use xlink:href="#C" x="-212.1" y="454.5"/><use xlink:href="#B" x="-242.4"/><use xlink:href="#C" x="-242.4"/><use xlink:href="#B" x="-242.4" y="30.3"/><use xlink:href="#C" x="-242.4" y="30.3"/><use xlink:href="#B" x="-242.4" y="60.6"/><use xlink:href="#C" x="-242.4" y="60.6"/><use xlink:href="#B" x="-242.4" y="90.9"/><use xlink:href="#C" x="-242.4" y="90.9"/><use xlink:href="#B" x="-242.4" y="121.2"/><use xlink:href="#C" x="-242.4" y="121.2"/><use xlink:href="#B" x="-242.4" y="151.5"/><use xlink:href="#C" x="-242.4" y="151.5"/><use xlink:href="#B" x="-242.4" y="181.8"/><use xlink:href="#C" x="-242.4" y="181.8"/><use xlink:href="#B" x="-242.4" y="212.1"/><use xlink:href="#C" x="-242.4" y="212.1"/><use xlink:href="#B" x="-242.4" y="242.4"/><use xlink:href="#C" x="-242.4" y="242.4"/><use xlink:href="#B" x="-242.4" y="272.7"/><use xlink:href="#C" x="-242.4" y="272.7"/><use xlink:href="#B" x="-242.4" y="303"/><use xlink:href="#C" x="-242.4" y="303"/><use xlink:href="#B" x="-242.4" y="333.3"/><use xlink:href="#C" x="-242.4" y="333.3"/><use xlink:href="#B" x="-242.4" y="363.6"/><use xlink:href="#C" x="-242.4" y="363.6"/><use xlink:href="#B" x="-242.4" y="393.9"/><use xlink:href="#C" x="-242.4" y="393.9"/><use xlink:href="#B" x="-242.4" y="424.2"/><use xlink:href="#C" x="-242.4" y="424.2"/><use xlink:href="#B" x="-242.4" y="454.5"/><use xlink:href="#C" x="-242.4" y="454.5"/><use xlink:href="#B" x="-272.7"/><use xlink:href="#C" x="-272.7"/><use xlink:href="#B" x="-272.7" y="30.3"/><use xlink:href="#C" x="-272.7" y="30.3"/><use xlink:href="#B" x="-272.7" y="60.6"/><use xlink:href="#C" x="-272.7" y="60.6"/><use xlink:href="#B" x="-272.7" y="90.9"/><use xlink:href="#C" x="-272.7" y="90.9"/><use xlink:href="#B" x="-272.7" y="121.2"/><use xlink:href="#C" x="-272.7" y="121.2"/><use xlink:href="#B" x="-272.7" y="151.5"/><use xlink:href="#C" x="-272.7" y="151.5"/><use xlink:href="#B" x="-272.7" y="181.8"/><use xlink:href="#C" x="-272.7" y="181.8"/><use xlink:href="#B" x="-272.7" y="212.1"/><use xlink:href="#C" x="-272.7" y="212.1"/><use xlink:href="#B" x="-272.7" y="242.4"/><use xlink:href="#C" x="-272.7" y="242.4"/><use xlink:href="#B" x="-272.7" y="272.7"/><use xlink:href="#C" x="-272.7" y="272.7"/><use xlink:href="#B" x="-272.7" y="303"/><use xlink:href="#C" x="-272.7" y="303"/><use xlink:href="#B" x="-272.7" y="333.3"/><use xlink:href="#C" x="-272.7" y="333.3"/><use xlink:href="#B" x="-272.7" y="363.6"/><use xlink:href="#C" x="-272.7" y="363.6"/><use xlink:href="#B" x="-272.7" y="393.9"/><use xlink:href="#C" x="-272.7" y="393.9"/><use xlink:href="#B" x="-272.7" y="424.2"/><use xlink:href="#C" x="-272.7" y="424.2"/><use xlink:href="#B" x="-272.7" y="454.5"/><use xlink:href="#C" x="-272.7" y="454.5"/><use xlink:href="#B" x="-303"/><use xlink:href="#C" x="-303"/><use xlink:href="#B" x="-303" y="30.3"/><use xlink:href="#C" x="-303" y="30.3"/><use xlink:href="#B" x="-303" y="60.6"/><use xlink:href="#C" x="-303" y="60.6"/><use xlink:href="#B" x="-303" y="90.9"/><use xlink:href="#C" x="-303" y="90.9"/><use xlink:href="#B" x="-303" y="121.2"/><use xlink:href="#C" x="-303" y="121.2"/><use xlink:href="#B" x="-303" y="151.5"/><use xlink:href="#C" x="-303" y="151.5"/><use xlink:href="#B" x="-303" y="181.8"/><use xlink:href="#C" x="-303" y="181.8"/><use xlink:href="#B" x="-303" y="212.1"/><use xlink:href="#C" x="-303" y="212.1"/><use xlink:href="#B" x="-303" y="242.4"/><use xlink:href="#C" x="-303" y="242.4"/><use xlink:href="#B" x="-303" y="272.7"/><use xlink:href="#C" x="-303" y="272.7"/><use xlink:href="#B" x="-303" y="303"/><use xlink:href="#C" x="-303" y="303"/><use xlink:href="#B" x="-303" y="333.3"/><use xlink:href="#C" x="-303" y="333.3"/><use xlink:href="#B" x="-303" y="363.6"/><use xlink:href="#C" x="-303" y="363.6"/><use xlink:href="#B" x="-303" y="393.9"/><use xlink:href="#C" x="-303" y="393.9"/><use xlink:href="#B" x="-303" y="424.2"/><use xlink:href="#C" x="-303" y="424.2"/><use xlink:href="#B" x="-303" y="454.5"/><use xlink:href="#C" x="-303" y="454.5"/><use xlink:href="#B" x="-333.3"/><use xlink:href="#C" x="-333.3"/><use xlink:href="#B" x="-333.3" y="30.3"/><use xlink:href="#C" x="-333.3" y="30.3"/><use xlink:href="#B" x="-333.3" y="60.6"/><use xlink:href="#C" x="-333.3" y="60.6"/><use xlink:href="#B" x="-333.3" y="90.9"/><use xlink:href="#C" x="-333.3" y="90.9"/><use xlink:href="#B" x="-333.3" y="121.2"/><use xlink:href="#C" x="-333.3" y="121.2"/><use xlink:href="#B" x="-333.3" y="151.5"/><use xlink:href="#C" x="-333.3" y="151.5"/><use xlink:href="#B" x="-333.3" y="181.8"/><use xlink:href="#C" x="-333.3" y="181.8"/><use xlink:href="#B" x="-333.3" y="212.1"/><use xlink:href="#C" x="-333.3" y="212.1"/><use xlink:href="#B" x="-333.3" y="242.4"/><use xlink:href="#C" x="-333.3" y="242.4"/><use xlink:href="#B" x="-333.3" y="272.7"/><use xlink:href="#C" x="-333.3" y="272.7"/><use xlink:href="#B" x="-333.3" y="303"/><use xlink:href="#C" x="-333.3" y="303"/><use xlink:href="#B" x="-333.3" y="333.3"/><use xlink:href="#C" x="-333.3" y="333.3"/><use xlink:href="#B" x="-333.3" y="363.6"/><use xlink:href="#C" x="-333.3" y="363.6"/><use xlink:href="#B" x="-333.3" y="393.9"/><use xlink:href="#C" x="-333.3" y="393.9"/><use xlink:href="#B" x="-333.3" y="424.2"/><use xlink:href="#C" x="-333.3" y="424.2"/><use xlink:href="#B" x="-333.3" y="454.5"/><use xlink:href="#C" x="-333.3" y="454.5"/><use xlink:href="#B" x="-363.6"/><use xlink:href="#C" x="-363.6"/><use xlink:href="#B" x="-363.6" y="30.3"/><use xlink:href="#C" x="-363.6" y="30.3"/><use xlink:href="#B" x="-363.6" y="60.6"/><use xlink:href="#C" x="-363.6" y="60.6"/><use xlink:href="#B" x="-363.6" y="90.9"/><use xlink:href="#C" x="-363.6" y="90.9"/><use xlink:href="#B" x="-363.6" y="121.2"/><use xlink:href="#C" x="-363.6" y="121.2"/><use xlink:href="#B" x="-363.6" y="151.5"/><use xlink:href="#C" x="-363.6" y="151.5"/><use xlink:href="#B" x="-363.6" y="181.8"/><use xlink:href="#C" x="-363.6" y="181.8"/><use xlink:href="#B" x="-363.6" y="212.1"/><use xlink:href="#C" x="-363.6" y="212.1"/><use xlink:href="#B" x="-363.6" y="242.4"/><use xlink:href="#C" x="-363.6" y="242.4"/><use xlink:href="#B" x="-363.6" y="272.7"/><use xlink:href="#C" x="-363.6" y="272.7"/><use xlink:href="#B" x="-363.6" y="303"/><use xlink:href="#C" x="-363.6" y="303"/><use xlink:href="#B" x="-363.6" y="333.3"/><use xlink:href="#C" x="-363.6" y="333.3"/><use xlink:href="#B" x="-363.6" y="363.6"/><use xlink:href="#C" x="-363.6" y="363.6"/><use xlink:href="#B" x="-363.6" y="393.9"/><use xlink:href="#C" x="-363.6" y="393.9"/><use xlink:href="#B" x="-363.6" y="424.2"/><use xlink:href="#C" x="-363.6" y="424.2"/><use xlink:href="#B" x="-363.6" y="454.5"/><use xlink:href="#C" x="-363.6" y="454.5"/><use xlink:href="#B" x="-393.9"/><use xlink:href="#C" x="-393.9"/><use xlink:href="#B" x="-393.9" y="30.3"/><use xlink:href="#C" x="-393.9" y="30.3"/><use xlink:href="#B" x="-393.9" y="60.6"/><use xlink:href="#C" x="-393.9" y="60.6"/><use xlink:href="#B" x="-393.9" y="90.9"/><use xlink:href="#C" x="-393.9" y="90.9"/><use xlink:href="#B" x="-393.9" y="121.2"/><use xlink:href="#C" x="-393.9" y="121.2"/><use xlink:href="#B" x="-393.9" y="151.5"/><use xlink:href="#C" x="-393.9" y="151.5"/><use xlink:href="#B" x="-393.9" y="181.8"/><use xlink:href="#C" x="-393.9" y="181.8"/><use xlink:href="#B" x="-393.9" y="212.1"/><use xlink:href="#C" x="-393.9" y="212.1"/><use xlink:href="#B" x="-393.9" y="242.4"/><use xlink:href="#C" x="-393.9" y="242.4"/><use xlink:href="#B" x="-393.9" y="272.7"/><use xlink:href="#C" x="-393.9" y="272.7"/><use xlink:href="#B" x="-393.9" y="303"/><use xlink:href="#C" x="-393.9" y="303"/><use xlink:href="#B" x="-393.9" y="333.3"/><use xlink:href="#C" x="-393.9" y="333.3"/><use xlink:href="#B" x="-393.9" y="363.6"/><use xlink:href="#C" x="-393.9" y="363.6"/><use xlink:href="#B" x="-393.9" y="393.9"/><use xlink:href="#C" x="-393.9" y="393.9"/><use xlink:href="#B" x="-393.9" y="424.2"/><use xlink:href="#C" x="-393.9" y="424.2"/><use xlink:href="#B" x="-393.9" y="454.5"/><use xlink:href="#C" x="-393.9" y="454.5"/><use xlink:href="#B" x="-424.2"/><use xlink:href="#C" x="-424.2"/><use xlink:href="#B" x="-424.2" y="30.3"/><use xlink:href="#C" x="-424.2" y="30.3"/><use xlink:href="#B" x="-424.2" y="60.6"/><use xlink:href="#C" x="-424.2" y="60.6"/><use xlink:href="#B" x="-424.2" y="90.9"/><use xlink:href="#C" x="-424.2" y="90.9"/><use xlink:href="#B" x="-424.2" y="121.2"/><use xlink:href="#C" x="-424.2" y="121.2"/><use xlink:href="#B" x="-424.2" y="151.5"/><use xlink:href="#C" x="-424.2" y="151.5"/><use xlink:href="#B" x="-424.2" y="181.8"/><use xlink:href="#C" x="-424.2" y="181.8"/><use xlink:href="#B" x="-424.2" y="212.1"/><use xlink:href="#C" x="-424.2" y="212.1"/><use xlink:href="#B" x="-424.2" y="242.4"/><use xlink:href="#C" x="-424.2" y="242.4"/><use xlink:href="#B" x="-424.2" y="272.7"/><use xlink:href="#C" x="-424.2" y="272.7"/><use xlink:href="#B" x="-424.2" y="303"/><use xlink:href="#C" x="-424.2" y="303"/><use xlink:href="#B" x="-424.2" y="333.3"/><use xlink:href="#C" x="-424.2" y="333.3"/><use xlink:href="#B" x="-424.2" y="363.6"/><use xlink:href="#C" x="-424.2" y="363.6"/><use xlink:href="#B" x="-424.2" y="393.9"/><use xlink:href="#C" x="-424.2" y="393.9"/><use xlink:href="#B" x="-424.2" y="424.2"/><use xlink:href="#C" x="-424.2" y="424.2"/><use xlink:href="#B" x="-424.2" y="454.5"/><use xlink:href="#C" x="-424.2" y="454.5"/><use xlink:href="#B" x="-454.5"/><use xlink:href="#C" x="-454.5"/><use xlink:href="#B" x="-454.5" y="30.3"/><use xlink:href="#C" x="-454.5" y="30.3"/><use xlink:href="#B" x="-454.5" y="60.6"/><use xlink:href="#C" x="-454.5" y="60.6"/><use xlink:href="#B" x="-454.5" y="90.9"/><use xlink:href="#C" x="-454.5" y="90.9"/><use xlink:href="#B" x="-454.5" y="121.2"/><use xlink:href="#C" x="-454.5" y="121.2"/><use xlink:href="#B" x="-454.5" y="151.5"/><use xlink:href="#C" x="-454.5" y="151.5"/><use xlink:href="#B" x="-454.5" y="181.8"/><use xlink:href="#C" x="-454.5" y="181.8"/><use xlink:href="#B" x="-454.5" y="212.1"/><use xlink:href="#C" x="-454.5" y="212.1"/><use xlink:href="#B" x="-454.5" y="242.4"/><use xlink:href="#C" x="-454.5" y="242.4"/><use xlink:href="#B" x="-454.5" y="272.7"/><use xlink:href="#C" x="-454.5" y="272.7"/><use xlink:href="#B" x="-454.5" y="303"/><use xlink:href="#C" x="-454.5" y="303"/><use xlink:href="#B" x="-454.5" y="333.3"/><use xlink:href="#C" x="-454.5" y="333.3"/><use xlink:href="#B" x="-454.5" y="363.6"/><use xlink:href="#C" x="-454.5" y="363.6"/><use xlink:href="#B" x="-454.5" y="393.9"/><use xlink:href="#C" x="-454.5" y="393.9"/><use xlink:href="#B" x="-454.5" y="424.2"/><use xlink:href="#C" x="-454.5" y="424.2"/><use xlink:href="#B" x="-454.5" y="454.5"/><use xlink:href="#C" x="-454.5" y="454.5"/><use xlink:href="#B" x="-484.8"/><use xlink:href="#C" x="-484.8"/><use xlink:href="#B" x="-484.8" y="30.3"/><use xlink:href="#C" x="-484.8" y="30.3"/><use xlink:href="#B" x="-484.8" y="60.6"/><use xlink:href="#C" x="-484.8" y="60.6"/><use xlink:href="#B" x="-484.8" y="90.9"/><use xlink:href="#C" x="-484.8" y="90.9"/><use xlink:href="#B" x="-484.8" y="121.2"/><use xlink:href="#C" x="-484.8" y="121.2"/><use xlink:href="#B" x="-484.8" y="151.5"/><use xlink:href="#C" x="-484.8" y="151.5"/><use xlink:href="#B" x="-484.8" y="181.8"/><use xlink:href="#C" x="-484.8" y="181.8"/><use xlink:href="#B" x="-484.8" y="212.1"/><use xlink:href="#C" x="-484.8" y="212.1"/><use xlink:href="#B" x="-484.8" y="242.4"/><use xlink:href="#C" x="-484.8" y="242.4"/><use xlink:href="#B" x="-484.8" y="272.7"/><use xlink:href="#C" x="-484.8" y="272.7"/><use xlink:href="#B" x="-484.8" y="303"/><use xlink:href="#C" x="-484.8" y="303"/><use xlink:href="#B" x="-484.8" y="333.3"/><use xlink:href="#C" x="-484.8" y="333.3"/><use xlink:href="#B" x="-484.8" y="363.6"/><use xlink:href="#C" x="-484.8" y="363.6"/><use xlink:href="#B" x="-484.8" y="393.9"/><use xlink:href="#C" x="-484.8" y="393.9"/><use xlink:href="#B" x="-484.8" y="424.2"/><use xlink:href="#C" x="-484.8" y="424.2"/><use xlink:href="#B" x="-484.8" y="454.5"/><use xlink:href="#C" x="-484.8" y="454.5"/><use xlink:href="#B" x="-515.1"/><use xlink:href="#C" x="-515.1"/><use xlink:href="#B" x="-515.1" y="30.3"/><use xlink:href="#C" x="-515.1" y="30.3"/><use xlink:href="#B" x="-515.1" y="60.6"/><use xlink:href="#C" x="-515.1" y="60.6"/><use xlink:href="#B" x="-515.1" y="90.9"/><use xlink:href="#C" x="-515.1" y="90.9"/><use xlink:href="#B" x="-515.1" y="121.2"/><use xlink:href="#C" x="-515.1" y="121.2"/><use xlink:href="#B" x="-515.1" y="151.5"/><use xlink:href="#C" x="-515.1" y="151.5"/><use xlink:href="#B" x="-515.1" y="181.8"/><use xlink:href="#C" x="-515.1" y="181.8"/><use xlink:href="#B" x="-515.1" y="212.1"/><use xlink:href="#C" x="-515.1" y="212.1"/><use xlink:href="#B" x="-515.1" y="242.4"/><use xlink:href="#C" x="-515.1" y="242.4"/><use xlink:href="#B" x="-515.1" y="272.7"/><use xlink:href="#C" x="-515.1" y="272.7"/><use xlink:href="#B" x="-515.1" y="303"/><use xlink:href="#C" x="-515.1" y="303"/><use xlink:href="#B" x="-515.1" y="333.3"/><use xlink:href="#C" x="-515.1" y="333.3"/><use xlink:href="#B" x="-515.1" y="363.6"/><use xlink:href="#C" x="-515.1" y="363.6"/><use xlink:href="#B" x="-515.1" y="393.9"/><use xlink:href="#C" x="-515.1" y="393.9"/><use xlink:href="#B" x="-515.1" y="424.2"/><use xlink:href="#C" x="-515.1" y="424.2"/><use xlink:href="#B" x="-515.1" y="454.5"/><use xlink:href="#C" x="-515.1" y="454.5"/><use xlink:href="#B" x="-545.4"/><use xlink:href="#C" x="-545.4"/><use xlink:href="#B" x="-545.4" y="30.3"/><use xlink:href="#C" x="-545.4" y="30.3"/><use xlink:href="#B" x="-545.4" y="60.6"/><use xlink:href="#C" x="-545.4" y="60.6"/><use xlink:href="#B" x="-545.4" y="90.9"/><use xlink:href="#C" x="-545.4" y="90.9"/><use xlink:href="#B" x="-545.4" y="121.2"/><use xlink:href="#C" x="-545.4" y="121.2"/><use xlink:href="#B" x="-545.4" y="151.5"/><use xlink:href="#C" x="-545.4" y="151.5"/><use xlink:href="#B" x="-545.4" y="181.8"/><use xlink:href="#C" x="-545.4" y="181.8"/><use xlink:href="#B" x="-545.4" y="212.1"/><use xlink:href="#C" x="-545.4" y="212.1"/><use xlink:href="#B" x="-545.4" y="242.4"/><use xlink:href="#C" x="-545.4" y="242.4"/><use xlink:href="#B" x="-545.4" y="272.7"/><use xlink:href="#C" x="-545.4" y="272.7"/><use xlink:href="#B" x="-545.4" y="303"/><use xlink:href="#C" x="-545.4" y="303"/><use xlink:href="#B" x="-545.4" y="333.3"/><use xlink:href="#C" x="-545.4" y="333.3"/><use xlink:href="#B" x="-545.4" y="363.6"/><use xlink:href="#C" x="-545.4" y="363.6"/><use xlink:href="#B" x="-545.4" y="393.9"/><use xlink:href="#C" x="-545.4" y="393.9"/><use xlink:href="#B" x="-545.4" y="424.2"/><use xlink:href="#C" x="-545.4" y="424.2"/><use xlink:href="#B" x="-545.4" y="454.5"/><use xlink:href="#C" x="-545.4" y="454.5"/><use xlink:href="#B" x="-575.7"/><use xlink:href="#C" x="-575.7"/><use xlink:href="#B" x="-575.7" y="30.3"/><use xlink:href="#C" x="-575.7" y="30.3"/><use xlink:href="#B" x="-575.7" y="60.6"/><use xlink:href="#C" x="-575.7" y="60.6"/><use xlink:href="#B" x="-575.7" y="90.9"/><use xlink:href="#C" x="-575.7" y="90.9"/><use xlink:href="#B" x="-575.7" y="121.2"/><use xlink:href="#C" x="-575.7" y="121.2"/><use xlink:href="#B" x="-575.7" y="151.5"/><use xlink:href="#C" x="-575.7" y="151.5"/><use xlink:href="#B" x="-575.7" y="181.8"/><use xlink:href="#C" x="-575.7" y="181.8"/><use xlink:href="#B" x="-575.7" y="212.1"/><use xlink:href="#C" x="-575.7" y="212.1"/><use xlink:href="#B" x="-575.7" y="242.4"/><use xlink:href="#C" x="-575.7" y="242.4"/><use xlink:href="#B" x="-575.7" y="272.7"/><use xlink:href="#C" x="-575.7" y="272.7"/><use xlink:href="#B" x="-575.7" y="303"/><use xlink:href="#C" x="-575.7" y="303"/><use xlink:href="#B" x="-575.7" y="333.3"/><use xlink:href="#C" x="-575.7" y="333.3"/><use xlink:href="#B" x="-575.7" y="363.6"/><use xlink:href="#C" x="-575.7" y="363.6"/><use xlink:href="#B" x="-575.7" y="393.9"/><use xlink:href="#C" x="-575.7" y="393.9"/><use xlink:href="#B" x="-575.7" y="424.2"/><use xlink:href="#C" x="-575.7" y="424.2"/><use xlink:href="#B" x="-575.7" y="454.5"/><use xlink:href="#C" x="-575.7" y="454.5"/><use xlink:href="#B" x="-606"/><use xlink:href="#C" x="-606"/><use xlink:href="#B" x="-606" y="30.3"/><use xlink:href="#C" x="-606" y="30.3"/><use xlink:href="#B" x="-606" y="60.6"/><use xlink:href="#C" x="-606" y="60.6"/><use xlink:href="#B" x="-606" y="90.9"/><use xlink:href="#C" x="-606" y="90.9"/><use xlink:href="#B" x="-606" y="121.2"/><use xlink:href="#C" x="-606" y="121.2"/><use xlink:href="#B" x="-606" y="151.5"/><use xlink:href="#C" x="-606" y="151.5"/><use xlink:href="#B" x="-606" y="181.8"/><use xlink:href="#C" x="-606" y="181.8"/><use xlink:href="#B" x="-606" y="212.1"/><use xlink:href="#C" x="-606" y="212.1"/><use xlink:href="#B" x="-606" y="242.4"/><use xlink:href="#C" x="-606" y="242.4"/><use xlink:href="#B" x="-606" y="272.7"/><use xlink:href="#C" x="-606" y="272.7"/><use xlink:href="#B" x="-606" y="303"/><use xlink:href="#C" x="-606" y="303"/><use xlink:href="#B" x="-606" y="333.3"/><use xlink:href="#C" x="-606" y="333.3"/><use xlink:href="#B" x="-606" y="363.6"/><use xlink:href="#C" x="-606" y="363.6"/><use xlink:href="#B" x="-606" y="393.9"/><use xlink:href="#C" x="-606" y="393.9"/><use xlink:href="#B" x="-606" y="424.2"/><use xlink:href="#C" x="-606" y="424.2"/><use xlink:href="#B" x="-606" y="454.5"/><use xlink:href="#C" x="-606" y="454.5"/><use xlink:href="#B" x="-636.3"/><use xlink:href="#C" x="-636.3"/><use xlink:href="#B" x="-636.3" y="30.3"/><use xlink:href="#C" x="-636.3" y="30.3"/><use xlink:href="#B" x="-636.3" y="60.6"/><use xlink:href="#C" x="-636.3" y="60.6"/><use xlink:href="#B" x="-636.3" y="90.9"/><use xlink:href="#C" x="-636.3" y="90.9"/><use xlink:href="#B" x="-636.3" y="121.2"/><use xlink:href="#C" x="-636.3" y="121.2"/><use xlink:href="#B" x="-636.3" y="151.5"/><use xlink:href="#C" x="-636.3" y="151.5"/><use xlink:href="#B" x="-636.3" y="181.8"/><use xlink:href="#C" x="-636.3" y="181.8"/><use xlink:href="#B" x="-636.3" y="212.1"/><use xlink:href="#C" x="-636.3" y="212.1"/><use xlink:href="#B" x="-636.3" y="242.4"/><use xlink:href="#C" x="-636.3" y="242.4"/><use xlink:href="#B" x="-636.3" y="272.7"/><use xlink:href="#C" x="-636.3" y="272.7"/><use xlink:href="#B" x="-636.3" y="303"/><use xlink:href="#C" x="-636.3" y="303"/><use xlink:href="#B" x="-636.3" y="333.3"/><use xlink:href="#C" x="-636.3" y="333.3"/><use xlink:href="#B" x="-636.3" y="363.6"/><use xlink:href="#C" x="-636.3" y="363.6"/><use xlink:href="#B" x="-636.3" y="393.9"/><use xlink:href="#C" x="-636.3" y="393.9"/><use xlink:href="#B" x="-636.3" y="424.2"/><use xlink:href="#C" x="-636.3" y="424.2"/><use xlink:href="#B" x="-636.3" y="454.5"/><use xlink:href="#C" x="-636.3" y="454.5"/><use xlink:href="#B" x="-666.6"/><use xlink:href="#C" x="-666.6"/><use xlink:href="#B" x="-666.6" y="30.3"/><use xlink:href="#C" x="-666.6" y="30.3"/><use xlink:href="#B" x="-666.6" y="60.6"/><use xlink:href="#C" x="-666.6" y="60.6"/><use xlink:href="#B" x="-666.6" y="90.9"/><use xlink:href="#C" x="-666.6" y="90.9"/><use xlink:href="#B" x="-666.6" y="121.2"/><use xlink:href="#C" x="-666.6" y="121.2"/><use xlink:href="#B" x="-666.6" y="151.5"/><use xlink:href="#C" x="-666.6" y="151.5"/><use xlink:href="#B" x="-666.6" y="181.8"/><use xlink:href="#C" x="-666.6" y="181.8"/><use xlink:href="#B" x="-666.6" y="212.1"/><use xlink:href="#C" x="-666.6" y="212.1"/><use xlink:href="#B" x="-666.6" y="242.4"/><use xlink:href="#C" x="-666.6" y="242.4"/><use xlink:href="#B" x="-666.6" y="272.7"/><use xlink:href="#C" x="-666.6" y="272.7"/><use xlink:href="#B" x="-666.6" y="303"/><use xlink:href="#C" x="-666.6" y="303"/><use xlink:href="#B" x="-666.6" y="333.3"/><use xlink:href="#C" x="-666.6" y="333.3"/><use xlink:href="#B" x="-666.6" y="363.6"/><use xlink:href="#C" x="-666.6" y="363.6"/><use xlink:href="#B" x="-666.6" y="393.9"/><use xlink:href="#C" x="-666.6" y="393.9"/><use xlink:href="#B" x="-666.6" y="424.2"/><use xlink:href="#C" x="-666.6" y="424.2"/><use xlink:href="#B" x="-666.6" y="454.5"/><use xlink:href="#C" x="-666.6" y="454.5"/><use xlink:href="#B" x="-696.9"/><use xlink:href="#C" x="-696.9"/><use xlink:href="#B" x="-696.9" y="30.3"/><use xlink:href="#C" x="-696.9" y="30.3"/><use xlink:href="#B" x="-696.9" y="60.6"/><use xlink:href="#C" x="-696.9" y="60.6"/><use xlink:href="#B" x="-696.9" y="90.9"/><use xlink:href="#C" x="-696.9" y="90.9"/><use xlink:href="#B" x="-696.9" y="121.2"/><use xlink:href="#C" x="-696.9" y="121.2"/><use xlink:href="#B" x="-696.9" y="151.5"/><use xlink:href="#C" x="-696.9" y="151.5"/><use xlink:href="#B" x="-696.9" y="181.8"/><use xlink:href="#C" x="-696.9" y="181.8"/><use xlink:href="#B" x="-696.9" y="212.1"/><use xlink:href="#C" x="-696.9" y="212.1"/><use xlink:href="#B" x="-696.9" y="242.4"/><use xlink:href="#C" x="-696.9" y="242.4"/><use xlink:href="#B" x="-696.9" y="272.7"/><use xlink:href="#C" x="-696.9" y="272.7"/><use xlink:href="#B" x="-696.9" y="303"/><use xlink:href="#C" x="-696.9" y="303"/><use xlink:href="#B" x="-696.9" y="333.3"/><use xlink:href="#C" x="-696.9" y="333.3"/><use xlink:href="#B" x="-696.9" y="363.6"/><use xlink:href="#C" x="-696.9" y="363.6"/><use xlink:href="#B" x="-696.9" y="393.9"/><use xlink:href="#C" x="-696.9" y="393.9"/><use xlink:href="#B" x="-696.9" y="424.2"/><use xlink:href="#C" x="-696.9" y="424.2"/><use xlink:href="#B" x="-696.9" y="454.5"/><use xlink:href="#C" x="-696.9" y="454.5"/><use xlink:href="#B" x="-727.2"/><use xlink:href="#C" x="-727.2"/><use xlink:href="#B" x="-727.2" y="30.3"/><use xlink:href="#C" x="-727.2" y="30.3"/><use xlink:href="#B" x="-727.2" y="60.6"/><use xlink:href="#C" x="-727.2" y="60.6"/><use xlink:href="#B" x="-727.2" y="90.9"/><use xlink:href="#C" x="-727.2" y="90.9"/><use xlink:href="#B" x="-727.2" y="121.2"/><use xlink:href="#C" x="-727.2" y="121.2"/><use xlink:href="#B" x="-727.2" y="151.5"/><use xlink:href="#C" x="-727.2" y="151.5"/><use xlink:href="#B" x="-727.2" y="181.8"/><use xlink:href="#C" x="-727.2" y="181.8"/><use xlink:href="#B" x="-727.2" y="212.1"/><use xlink:href="#C" x="-727.2" y="212.1"/><use xlink:href="#B" x="-727.2" y="242.4"/><use xlink:href="#C" x="-727.2" y="242.4"/><use xlink:href="#B" x="-727.2" y="272.7"/><use xlink:href="#C" x="-727.2" y="272.7"/><use xlink:href="#B" x="-727.2" y="303"/><use xlink:href="#C" x="-727.2" y="303"/><use xlink:href="#B" x="-727.2" y="333.3"/><use xlink:href="#C" x="-727.2" y="333.3"/><use xlink:href="#B" x="-727.2" y="363.6"/><use xlink:href="#C" x="-727.2" y="363.6"/><use xlink:href="#B" x="-727.2" y="393.9"/><use xlink:href="#C" x="-727.2" y="393.9"/><use xlink:href="#B" x="-727.2" y="424.2"/><use xlink:href="#C" x="-727.2" y="424.2"/><use xlink:href="#B" x="-727.2" y="454.5"/><use xlink:href="#C" x="-727.2" y="454.5"/><use xlink:href="#B" x="-757.5"/><use xlink:href="#C" x="-757.5"/><use xlink:href="#B" x="-757.5" y="30.3"/><use xlink:href="#C" x="-757.5" y="30.3"/><use xlink:href="#B" x="-757.5" y="60.6"/><use xlink:href="#C" x="-757.5" y="60.6"/><use xlink:href="#B" x="-757.5" y="90.9"/><use xlink:href="#C" x="-757.5" y="90.9"/><use xlink:href="#B" x="-757.5" y="121.2"/><use xlink:href="#C" x="-757.5" y="121.2"/><use xlink:href="#B" x="-757.5" y="151.5"/><use xlink:href="#C" x="-757.5" y="151.5"/><use xlink:href="#B" x="-757.5" y="181.8"/><use xlink:href="#C" x="-757.5" y="181.8"/><use xlink:href="#B" x="-757.5" y="212.1"/><use xlink:href="#C" x="-757.5" y="212.1"/><use xlink:href="#B" x="-757.5" y="242.4"/><use xlink:href="#C" x="-757.5" y="242.4"/><use xlink:href="#B" x="-757.5" y="272.7"/><use xlink:href="#C" x="-757.5" y="272.7"/><use xlink:href="#B" x="-757.5" y="303"/><use xlink:href="#C" x="-757.5" y="303"/><use xlink:href="#B" x="-757.5" y="333.3"/><use xlink:href="#C" x="-757.5" y="333.3"/><use xlink:href="#B" x="-757.5" y="363.6"/><use xlink:href="#C" x="-757.5" y="363.6"/><use xlink:href="#B" x="-757.5" y="393.9"/><use xlink:href="#C" x="-757.5" y="393.9"/><use xlink:href="#B" x="-757.5" y="424.2"/><use xlink:href="#C" x="-757.5" y="424.2"/><use xlink:href="#B" x="-757.5" y="454.5"/><use xlink:href="#C" x="-757.5" y="454.5"/><use xlink:href="#B" x="-787.8"/><use xlink:href="#C" x="-787.8"/><use xlink:href="#B" x="-787.8" y="30.3"/><use xlink:href="#C" x="-787.8" y="30.3"/><use xlink:href="#B" x="-787.8" y="60.6"/><use xlink:href="#C" x="-787.8" y="60.6"/><use xlink:href="#B" x="-787.8" y="90.9"/><use xlink:href="#C" x="-787.8" y="90.9"/><use xlink:href="#B" x="-787.8" y="121.2"/><use xlink:href="#C" x="-787.8" y="121.2"/><use xlink:href="#B" x="-787.8" y="151.5"/><use xlink:href="#C" x="-787.8" y="151.5"/><use xlink:href="#B" x="-787.8" y="181.8"/><use xlink:href="#C" x="-787.8" y="181.8"/><use xlink:href="#B" x="-787.8" y="212.1"/><use xlink:href="#C" x="-787.8" y="212.1"/><use xlink:href="#B" x="-787.8" y="242.4"/><use xlink:href="#C" x="-787.8" y="242.4"/><use xlink:href="#B" x="-787.8" y="272.7"/><use xlink:href="#C" x="-787.8" y="272.7"/><use xlink:href="#B" x="-787.8" y="303"/><use xlink:href="#C" x="-787.8" y="303"/><use xlink:href="#B" x="-787.8" y="333.3"/><use xlink:href="#C" x="-787.8" y="333.3"/><use xlink:href="#B" x="-787.8" y="363.6"/><use xlink:href="#C" x="-787.8" y="363.6"/><use xlink:href="#B" x="-787.8" y="393.9"/><use xlink:href="#C" x="-787.8" y="393.9"/><use xlink:href="#B" x="-787.8" y="424.2"/><use xlink:href="#C" x="-787.8" y="424.2"/><use xlink:href="#B" x="-787.8" y="454.5"/><use xlink:href="#C" x="-787.8" y="454.5"/><use xlink:href="#B" x="-818.1"/><use xlink:href="#C" x="-818.1"/><use xlink:href="#B" x="-818.1" y="30.3"/><use xlink:href="#C" x="-818.1" y="30.3"/><use xlink:href="#B" x="-818.1" y="60.6"/><use xlink:href="#C" x="-818.1" y="60.6"/><use xlink:href="#B" x="-818.1" y="90.9"/><use xlink:href="#C" x="-818.1" y="90.9"/><use xlink:href="#B" x="-818.1" y="121.2"/><use xlink:href="#C" x="-818.1" y="121.2"/><use xlink:href="#B" x="-818.1" y="151.5"/><use xlink:href="#C" x="-818.1" y="151.5"/><use xlink:href="#B" x="-818.1" y="181.8"/><use xlink:href="#C" x="-818.1" y="181.8"/><use xlink:href="#B" x="-818.1" y="212.1"/><use xlink:href="#C" x="-818.1" y="212.1"/><use xlink:href="#B" x="-818.1" y="242.4"/><use xlink:href="#C" x="-818.1" y="242.4"/><use xlink:href="#B" x="-818.1" y="272.7"/><use xlink:href="#C" x="-818.1" y="272.7"/><use xlink:href="#B" x="-818.1" y="303"/><use xlink:href="#C" x="-818.1" y="303"/><use xlink:href="#B" x="-818.1" y="333.3"/><use xlink:href="#C" x="-818.1" y="333.3"/><use xlink:href="#B" x="-818.1" y="363.6"/><use xlink:href="#C" x="-818.1" y="363.6"/><use xlink:href="#B" x="-818.1" y="393.9"/><use xlink:href="#C" x="-818.1" y="393.9"/><use xlink:href="#B" x="-818.1" y="424.2"/><use xlink:href="#C" x="-818.1" y="424.2"/><use xlink:href="#B" x="-818.1" y="454.5"/><use xlink:href="#C" x="-818.1" y="454.5"/><use xlink:href="#B" x="-848.4"/><use xlink:href="#C" x="-848.4"/><use xlink:href="#B" x="-848.4" y="30.3"/><use xlink:href="#C" x="-848.4" y="30.3"/><use xlink:href="#B" x="-848.4" y="60.6"/><use xlink:href="#C" x="-848.4" y="60.6"/><use xlink:href="#B" x="-848.4" y="90.9"/><use xlink:href="#C" x="-848.4" y="90.9"/><use xlink:href="#B" x="-848.4" y="121.2"/><use xlink:href="#C" x="-848.4" y="121.2"/><use xlink:href="#B" x="-848.4" y="151.5"/><use xlink:href="#C" x="-848.4" y="151.5"/><use xlink:href="#B" x="-848.4" y="181.8"/><use xlink:href="#C" x="-848.4" y="181.8"/><use xlink:href="#B" x="-848.4" y="212.1"/><use xlink:href="#C" x="-848.4" y="212.1"/><use xlink:href="#B" x="-848.4" y="242.4"/><use xlink:href="#C" x="-848.4" y="242.4"/><use xlink:href="#B" x="-848.4" y="272.7"/><use xlink:href="#C" x="-848.4" y="272.7"/><use xlink:href="#B" x="-848.4" y="303"/><use xlink:href="#C" x="-848.4" y="303"/><use xlink:href="#B" x="-848.4" y="333.3"/><use xlink:href="#C" x="-848.4" y="333.3"/><use xlink:href="#B" x="-848.4" y="363.6"/><use xlink:href="#C" x="-848.4" y="363.6"/><use xlink:href="#B" x="-848.4" y="393.9"/><use xlink:href="#C" x="-848.4" y="393.9"/><use xlink:href="#B" x="-848.4" y="424.2"/><use xlink:href="#C" x="-848.4" y="424.2"/><use xlink:href="#B" x="-848.4" y="454.5"/><use xlink:href="#C" x="-848.4" y="454.5"/><use xlink:href="#B" x="-878.7"/><use xlink:href="#C" x="-878.7"/><use xlink:href="#B" x="-878.7" y="30.3"/><use xlink:href="#C" x="-878.7" y="30.3"/><use xlink:href="#B" x="-878.7" y="60.6"/><use xlink:href="#C" x="-878.7" y="60.6"/><use xlink:href="#B" x="-878.7" y="90.9"/><use xlink:href="#C" x="-878.7" y="90.9"/><use xlink:href="#B" x="-878.7" y="121.2"/><use xlink:href="#C" x="-878.7" y="121.2"/><use xlink:href="#B" x="-878.7" y="151.5"/><use xlink:href="#C" x="-878.7" y="151.5"/><use xlink:href="#B" x="-878.7" y="181.8"/><use xlink:href="#C" x="-878.7" y="181.8"/><use xlink:href="#B" x="-878.7" y="212.1"/><use xlink:href="#C" x="-878.7" y="212.1"/><use xlink:href="#B" x="-878.7" y="242.4"/><use xlink:href="#C" x="-878.7" y="242.4"/><use xlink:href="#B" x="-878.7" y="272.7"/><use xlink:href="#C" x="-878.7" y="272.7"/><use xlink:href="#B" x="-878.7" y="303"/><use xlink:href="#C" x="-878.7" y="303"/><use xlink:href="#B" x="-878.7" y="333.3"/><use xlink:href="#C" x="-878.7" y="333.3"/><use xlink:href="#B" x="-878.7" y="363.6"/><use xlink:href="#C" x="-878.7" y="363.6"/><use xlink:href="#B" x="-878.7" y="393.9"/><use xlink:href="#C" x="-878.7" y="393.9"/><use xlink:href="#B" x="-878.7" y="424.2"/><use xlink:href="#C" x="-878.7" y="424.2"/><use xlink:href="#B" x="-878.7" y="454.5"/><use xlink:href="#C" x="-878.7" y="454.5"/><use xlink:href="#B" x="-909"/><use xlink:href="#C" x="-909"/><use xlink:href="#B" x="-909" y="30.3"/><use xlink:href="#C" x="-909" y="30.3"/><use xlink:href="#B" x="-909" y="60.6"/><use xlink:href="#C" x="-909" y="60.6"/><use xlink:href="#B" x="-909" y="90.9"/><use xlink:href="#C" x="-909" y="90.9"/><use xlink:href="#B" x="-909" y="121.2"/><use xlink:href="#C" x="-909" y="121.2"/><use xlink:href="#B" x="-909" y="151.5"/><use xlink:href="#C" x="-909" y="151.5"/><use xlink:href="#B" x="-909" y="181.8"/><use xlink:href="#C" x="-909" y="181.8"/><use xlink:href="#B" x="-909" y="212.1"/><use xlink:href="#C" x="-909" y="212.1"/><use xlink:href="#B" x="-909" y="242.4"/><use xlink:href="#C" x="-909" y="242.4"/><use xlink:href="#B" x="-909" y="272.7"/><use xlink:href="#C" x="-909" y="272.7"/><use xlink:href="#B" x="-909" y="303"/><use xlink:href="#C" x="-909" y="303"/><use xlink:href="#B" x="-909" y="333.3"/><use xlink:href="#C" x="-909" y="333.3"/><use xlink:href="#B" x="-909" y="363.6"/><use xlink:href="#C" x="-909" y="363.6"/><use xlink:href="#B" x="-909" y="393.9"/><use xlink:href="#C" x="-909" y="393.9"/><use xlink:href="#B" x="-909" y="424.2"/><use xlink:href="#C" x="-909" y="424.2"/><use xlink:href="#B" x="-909" y="454.5"/><use xlink:href="#C" x="-909" y="454.5"/><use xlink:href="#B" x="-939.3"/><use xlink:href="#C" x="-939.3"/><use xlink:href="#D"/><use xlink:href="#C" x="-939.3" y="30.3"/><use xlink:href="#D" y="30.3"/><use xlink:href="#C" x="-939.3" y="60.6"/><use xlink:href="#D" y="60.6"/><use xlink:href="#C" x="-939.3" y="90.9"/><use xlink:href="#B" x="-939.3" y="121.2"/><use xlink:href="#C" x="-939.3" y="121.2"/><use xlink:href="#B" x="-939.3" y="151.5"/><use xlink:href="#C" x="-939.3" y="151.5"/><use xlink:href="#B" x="-939.3" y="181.8"/><use xlink:href="#C" x="-939.3" y="181.8"/><use xlink:href="#B" x="-939.3" y="212.1"/><use xlink:href="#C" x="-939.3" y="212.1"/><use xlink:href="#B" x="-939.3" y="242.4"/><use xlink:href="#C" x="-939.3" y="242.4"/><use xlink:href="#B" x="-939.3" y="272.7"/><use xlink:href="#C" x="-939.3" y="272.7"/><use xlink:href="#B" x="-939.3" y="303"/><use xlink:href="#C" x="-939.3" y="303"/><use xlink:href="#B" x="-939.3" y="333.3"/><use xlink:href="#C" x="-939.3" y="333.3"/><use xlink:href="#B" x="-939.3" y="363.6"/><use xlink:href="#C" x="-939.3" y="363.6"/><use xlink:href="#B" x="-939.3" y="393.9"/><use xlink:href="#C" x="-939.3" y="393.9"/><use xlink:href="#B" x="-939.3" y="424.2"/><use xlink:href="#C" x="-939.3" y="424.2"/><use xlink:href="#B" x="-939.3" y="454.5"/><use xlink:href="#C" x="-939.3" y="454.5"/><use xlink:href="#E"/><use xlink:href="#C" x="-969.6"/><use xlink:href="#B" x="-969.6" y="30.3"/><use xlink:href="#C" x="-969.6" y="30.3"/><use xlink:href="#B" x="-969.6" y="60.6"/><use xlink:href="#C" x="-969.6" y="60.6"/><use xlink:href="#B" x="-969.6" y="90.9"/><use xlink:href="#C" x="-969.6" y="90.9"/><use xlink:href="#B" x="-969.6" y="121.2"/><use xlink:href="#C" x="-969.6" y="121.2"/><use xlink:href="#B" x="-969.6" y="151.5"/><use xlink:href="#C" x="-969.6" y="151.5"/><use xlink:href="#B" x="-969.6" y="181.8"/><use xlink:href="#C" x="-969.6" y="181.8"/><use xlink:href="#B" x="-969.6" y="212.1"/><use xlink:href="#C" x="-969.6" y="212.1"/><use xlink:href="#B" x="-969.6" y="242.4"/><use xlink:href="#C" x="-969.6" y="242.4"/><use xlink:href="#B" x="-969.6" y="272.7"/><use xlink:href="#C" x="-969.6" y="272.7"/><use xlink:href="#B" x="-969.6" y="303"/><use xlink:href="#C" x="-969.6" y="303"/><use xlink:href="#B" x="-969.6" y="333.3"/><use xlink:href="#C" x="-969.6" y="333.3"/><use xlink:href="#B" x="-969.6" y="363.6"/><use xlink:href="#C" x="-969.6" y="363.6"/><use xlink:href="#B" x="-969.6" y="393.9"/><use xlink:href="#C" x="-969.6" y="393.9"/><use xlink:href="#B" x="-969.6" y="424.2"/><use xlink:href="#C" x="-969.6" y="424.2"/><use xlink:href="#B" x="-969.6" y="454.5"/><use xlink:href="#C" x="-969.6" y="454.5"/><path d="M5.9 14.695c.2 0 .5 0 .7.1h.1c.5.3 1 .7 1.3 1.2l.6.9.5.8c-.5.5-1.2.9-1.9 1.3-.5.2-1.2.2-1.7-.1s-.8-.7-1-1.2c-.2-.7-.2-1.4-.1-2.1.3-.3.6-.5.9-.7.2-.1.4-.2.6-.2"/><use xlink:href="#C" x="-999.9"/><use xlink:href="#B" x="-999.9" y="30.3"/><use xlink:href="#C" x="-999.9" y="30.3"/><path d="M5.9 75.295c.2 0 .5 0 .7.1h.1c.5.3 1 .7 1.3 1.2l.6.9c.2.2.3.5.4.7-.5.5-1.2.9-1.9 1.2-.6.2-1.2.2-1.8-.1-.5-.3-.8-.7-1-1.2-.2-.7-.2-1.4-.1-2.1.5-.1.8-.3 1.1-.5.2-.1.4-.2.6-.2"/><use xlink:href="#F"/><use xlink:href="#B" x="-999.9" y="90.9"/><use xlink:href="#C" x="-999.9" y="90.9"/><use xlink:href="#B" x="-999.9" y="121.2"/><use xlink:href="#C" x="-999.9" y="121.2"/><use xlink:href="#B" x="-999.9" y="151.5"/><use xlink:href="#C" x="-999.9" y="151.5"/><use xlink:href="#B" x="-999.9" y="181.8"/><use xlink:href="#C" x="-999.9" y="181.8"/><use xlink:href="#B" x="-999.9" y="212.1"/><use xlink:href="#C" x="-999.9" y="212.1"/><use xlink:href="#B" x="-999.9" y="242.4"/><use xlink:href="#C" x="-999.9" y="242.4"/><use xlink:href="#E" x="-30.3" y="272.7"/><use xlink:href="#C" x="-999.9" y="272.7"/><use xlink:href="#B" x="-999.9" y="303"/><use xlink:href="#C" x="-999.9" y="303"/><use xlink:href="#B" x="-999.9" y="333.3"/><use xlink:href="#C" x="-999.9" y="333.3"/><use xlink:href="#B" x="-999.9" y="363.6"/><use xlink:href="#F" y="303"/><use xlink:href="#B" x="-999.9" y="393.9"/><use xlink:href="#C" x="-999.9" y="393.9"/><use xlink:href="#B" x="-999.9" y="424.2"/><use xlink:href="#C" x="-999.9" y="424.2"/><use xlink:href="#B" x="-999.9" y="454.5"/><use xlink:href="#C" x="-999.9" y="454.5"/></g><defs ><path id="B" d="M1005.8 14.695c.2 0 .5 0 .7.1h.1c.5.3 1 .7 1.3 1.2l.6.9c.2.2.3.5.4.7-.5.5-1.2.9-1.9 1.2-.6.2-1.2.2-1.8-.1-.5-.3-.8-.7-1-1.2-.2-.7-.2-1.4-.1-2.1.2-.3.5-.5.8-.7.5.1.7 0 .9 0"/><path id="C" d="M1010.221 8.1c2.7 0 4.7 3.4 5.6 6 .4 1 .5 2 .4 3 0 .5-.2.9-.5 1.3-.5.6-1.3.9-2.1.7-.4-.1-.8-.3-1.2-.6-.8-.5-1.5-1.3-2.3-1.9-.1-.1-.2-.1-.2-.2-.3-.3-.6-.5-.9-.8-.3-.2-.5-.5-.8-.7-.5-.4-1-.6-1.6-.8h-.1a1.48 1.48 0 0 0-1.3.4c-.4.3-.7.7-1 1.1 0-.8.3-1.5.6-2.2.7-2 2.5-4.7 4.8-5.3h.6"/><path id="D" d="M66.5 44.995c.2 0 .5 0 .7.1h.1c.5.3 1 .7 1.3 1.2l.6.9c.2.2.3.5.4.7-.5.5-1.2.9-1.9 1.2-.6.2-1.2.2-1.8-.1-.5-.3-.8-.7-1-1.2.1-.5 0-1.2.1-1.9.2-.3.5-.5.8-.7.3-.1.5-.2.7-.2"/><path id="E" d="M36.2 14.695c.2 0 .5 0 .7.1h.1c.5.3 1 .7 1.3 1.2l.6.9c.2.2.3.5.4.7-.5.5-1.2.9-1.9 1.2-.4.4-1.1.4-1.6.1s-.8-.7-1-1.2c-.2-.7-.2-1.4-.1-2.1.2-.3.5-.5.8-.7.3-.1.5-.2.7-.2"/><path id="F" d="M10.321 68.7c2.7 0 4.7 3.4 5.6 6 .4 1 .5 2 .4 3 0 .5-.2.9-.5 1.3-.5.6-1.3.9-2.1.7-.4-.1-.8-.3-1.2-.6-.8-.5-1.5-1.3-2.3-1.9 0-.1 0-.2-.1-.2-.3-.3-.6-.5-.9-.8-.3-.2-.5-.5-.8-.7-.5-.4-1-.6-1.6-.8h-.1a1.48 1.48 0 0 0-1.3.4c-.4.3-.7.7-1 1.1 0-.8.3-1.5.6-2.2.7-2 2.5-4.7 4.8-5.3h.5"/></defs></svg>