<?xml version="1.0" encoding="UTF-8"?>
<svg xmlns="http://www.w3.org/2000/svg" xmlns:xlink="http://www.w3.org/1999/xlink" width="28pt" height="28pt" viewBox="0 0 28 28" version="1.1">
<g id="surface1">
<path style=" stroke:none;fill-rule:nonzero;fill:rgb(0%,0%,0%);fill-opacity:1;" d="M 14 1.398438 C 20.949219 1.398438 26.601562 7.050781 26.601562 14 C 26.601562 20.949219 20.949219 26.601562 14 26.601562 C 7.050781 26.601562 1.398438 20.949219 1.398438 14 C 1.398438 7.050781 7.050781 1.398438 14 1.398438 M 14 0 C 6.269531 0 0 6.269531 0 14 C 0 21.730469 6.269531 28 14 28 C 21.730469 28 28 21.730469 28 14 C 28 6.269531 21.730469 0 14 0 Z M 14 0 "/>
<path style=" stroke:none;fill-rule:nonzero;fill:rgb(0%,0%,0%);fill-opacity:1;" d="M 17.265625 7.261719 C 15.984375 7.261719 14.933594 8.3125 14.933594 9.597656 L 14.933594 18.40625 C 14.933594 19.6875 15.984375 20.738281 17.265625 20.738281 C 18.550781 20.738281 19.601562 19.6875 19.601562 18.40625 L 19.601562 9.597656 C 19.601562 8.3125 18.550781 7.261719 17.265625 7.261719 Z M 18.199219 18.40625 C 18.199219 18.917969 17.78125 19.335938 17.265625 19.335938 C 16.753906 19.335938 16.332031 18.917969 16.332031 18.40625 L 16.332031 9.597656 C 16.332031 9.082031 16.753906 8.664062 17.265625 8.664062 C 17.78125 8.664062 18.199219 9.082031 18.199219 9.597656 Z M 18.199219 18.40625 "/>
<path style=" stroke:none;fill-rule:nonzero;fill:rgb(0%,0%,0%);fill-opacity:1;" d="M 10.734375 7.261719 C 9.449219 7.261719 8.398438 8.3125 8.398438 9.597656 L 8.398438 18.40625 C 8.398438 19.6875 9.449219 20.738281 10.734375 20.738281 C 12.015625 20.738281 13.066406 19.6875 13.066406 18.40625 L 13.066406 9.597656 C 13.066406 8.3125 12.015625 7.261719 10.734375 7.261719 Z M 11.667969 18.40625 C 11.667969 18.917969 11.246094 19.335938 10.734375 19.335938 C 10.21875 19.335938 9.800781 18.917969 9.800781 18.40625 L 9.800781 9.597656 C 9.800781 9.082031 10.21875 8.664062 10.734375 8.664062 C 11.246094 8.664062 11.667969 9.082031 11.667969 9.597656 Z M 11.667969 18.40625 "/>
</g>
</svg>
