<?xml version="1.0" encoding="UTF-8"?>
<svg xmlns="http://www.w3.org/2000/svg" xmlns:xlink="http://www.w3.org/1999/xlink" width="28pt" height="28pt" viewBox="0 0 28 28" version="1.1">
<g id="surface1">
<path style=" stroke:none;fill-rule:nonzero;fill:rgb(0%,0%,0%);fill-opacity:1;" d="M 23.898438 4.101562 C 18.425781 -1.367188 9.574219 -1.367188 4.101562 4.101562 C -1.367188 9.574219 -1.367188 18.425781 4.101562 23.898438 C 9.574219 29.367188 18.425781 29.367188 23.898438 23.898438 C 29.367188 18.425781 29.367188 9.574219 23.898438 4.101562 Z M 14 25.699219 C 7.550781 25.699219 2.300781 20.449219 2.300781 14 C 2.300781 7.550781 7.550781 2.300781 14 2.300781 C 20.449219 2.300781 25.699219 7.550781 25.699219 14 C 25.699219 20.449219 20.449219 25.699219 14 25.699219 Z M 14 25.699219 "/>
<path style=" stroke:none;fill-rule:nonzero;fill:rgb(0%,0%,0%);fill-opacity:1;" d="M 16.335938 8.761719 C 15.699219 8.761719 15.1875 9.277344 15.1875 9.914062 L 15.1875 18.085938 C 15.1875 18.722656 15.699219 19.238281 16.335938 19.238281 C 16.972656 19.238281 17.484375 18.722656 17.484375 18.085938 L 17.484375 9.914062 C 17.484375 9.277344 16.972656 8.761719 16.335938 8.761719 Z M 16.335938 8.761719 "/>
<path style=" stroke:none;fill-rule:nonzero;fill:rgb(0%,0%,0%);fill-opacity:1;" d="M 11.664062 8.761719 C 11.027344 8.761719 10.515625 9.277344 10.515625 9.914062 L 10.515625 18.085938 C 10.515625 18.722656 11.027344 19.238281 11.664062 19.238281 C 12.300781 19.238281 12.8125 18.722656 12.8125 18.085938 L 12.8125 9.914062 C 12.8125 9.277344 12.300781 8.761719 11.664062 8.761719 Z M 11.664062 8.761719 "/>
</g>
</svg>
