<?xml version="1.0" encoding="UTF-8"?>
<svg xmlns="http://www.w3.org/2000/svg" xmlns:xlink="http://www.w3.org/1999/xlink" width="28pt" height="27pt" viewBox="0 0 28 27" version="1.1">
<g id="surface1">
<path style=" stroke:none;fill-rule:nonzero;fill:rgb(0%,0%,0%);fill-opacity:1;" d="M 1.972656 12.582031 L 3.410156 9.136719 L 4.679688 8.378906 L 3.398438 13.742188 L 3.414062 13.746094 C 3.378906 13.882812 3.371094 14.023438 3.390625 14.171875 L 3.65625 16.003906 L 5.894531 14.839844 L 5.816406 14.28125 L 6.085938 14.339844 L 6.328125 14.613281 C 6.886719 14.324219 8.507812 13.480469 9.0625 13.191406 L 9.027344 13.1875 C 8.125 13.089844 7.511719 12.417969 7.390625 11.945312 L 6.386719 8.027344 L 8.34375 11.71875 C 8.5 12.011719 8.800781 12.210938 9.140625 12.246094 L 13.203125 12.695312 C 13.734375 12.753906 14.222656 12.40625 14.324219 11.902344 C 14.4375 11.335938 14.027344 10.796875 13.433594 10.730469 L 9.917969 10.347656 L 8.144531 7.003906 L 10.359375 9.402344 L 10.78125 7.636719 C 10.972656 6.84375 10.460938 6.054688 9.636719 5.871094 C 7.371094 5.375 6.863281 5.222656 6.585938 5.199219 C 6.332031 5.179688 6.0625 5.230469 5.828125 5.371094 L 2.046875 7.628906 C 1.859375 7.742188 1.71875 7.90625 1.636719 8.101562 L 0.0742188 11.847656 C -0.136719 12.351562 0.117188 12.925781 0.640625 13.132812 C 1.167969 13.335938 1.761719 13.089844 1.972656 12.582031 Z M 1.972656 12.582031 "/>
<path style=" stroke:none;fill-rule:nonzero;fill:rgb(0%,0%,0%);fill-opacity:1;" d="M 4.148438 20.351562 L 3.628906 25.136719 C 3.554688 25.8125 4.105469 26.40625 4.816406 26.40625 C 5.417969 26.40625 5.9375 25.96875 6 25.375 L 6.59375 19.917969 C 6.613281 19.738281 6.59375 19.667969 6.515625 19.125 Z M 4.148438 20.351562 "/>
<path style=" stroke:none;fill-rule:nonzero;fill:rgb(0%,0%,0%);fill-opacity:1;" d="M 11.644531 2.773438 C 11.644531 3.976562 10.632812 4.949219 9.382812 4.949219 C 8.136719 4.949219 7.125 3.976562 7.125 2.773438 C 7.125 1.570312 8.136719 0.59375 9.382812 0.59375 C 10.632812 0.59375 11.644531 1.570312 11.644531 2.773438 Z M 11.644531 2.773438 "/>
<path style=" stroke:none;fill-rule:nonzero;fill:rgb(0%,0%,0%);fill-opacity:1;" d="M 27.996094 5.828125 C 27.996094 5.167969 27.265625 4.75 26.664062 5.0625 L 15.210938 11.070312 C 15.3125 11.34375 15.347656 11.636719 15.3125 11.929688 C 15.1875 12.988281 14.195312 13.757812 13.09375 13.636719 L 10.804688 13.382812 L 1.015625 18.519531 C 0.722656 18.671875 0.542969 18.964844 0.542969 19.28125 C 0.542969 20.042969 0.542969 24.859375 0.542969 25.539062 C 0.542969 26.019531 0.945312 26.40625 1.445312 26.40625 C 1.941406 26.40625 2.34375 26.019531 2.34375 25.539062 C 2.34375 24.894531 2.34375 20.453125 2.34375 19.796875 L 26.191406 7.289062 C 26.191406 7.722656 26.191406 16.476562 26.191406 16.90625 L 23.105469 16.90625 C 22.941406 16.90625 22.808594 17.035156 22.808594 17.195312 L 22.808594 19.28125 L 17.914062 19.28125 C 17.75 19.28125 17.613281 19.410156 17.613281 19.570312 L 17.613281 21.65625 L 12.71875 21.65625 C 12.554688 21.65625 12.421875 21.785156 12.421875 21.945312 L 12.421875 24.03125 L 9.847656 24.03125 C 10.101562 23.871094 10.292969 23.613281 10.359375 23.304688 L 11.558594 17.675781 C 11.632812 17.335938 11.554688 16.988281 11.261719 16.65625 L 9.105469 17.777344 L 8.023438 22.839844 C 7.921875 23.316406 8.140625 23.78125 8.539062 24.03125 L 7.527344 24.03125 C 7.363281 24.03125 7.230469 24.160156 7.230469 24.320312 L 7.230469 26.117188 C 7.230469 26.277344 7.363281 26.40625 7.527344 26.40625 L 27.703125 26.40625 C 27.867188 26.40625 28 26.277344 28 26.117188 C 28 16.113281 27.996094 20.054688 27.996094 5.828125 Z M 27.996094 5.828125 "/>
</g>
</svg>
