<?xml version="1.0" encoding="UTF-8"?>
<svg xmlns="http://www.w3.org/2000/svg" xmlns:xlink="http://www.w3.org/1999/xlink" width="28pt" height="28pt" viewBox="0 0 28 28" version="1.1">
<g id="surface1">
<path style=" stroke:none;fill-rule:nonzero;fill:rgb(0%,0%,0%);fill-opacity:1;" d="M 23.621094 1.328125 C 23.621094 0.863281 23.375 0.460938 23.035156 0.214844 C 22.972656 0.183594 22.941406 0.152344 22.875 0.121094 C 22.6875 0.03125 22.472656 0 22.289062 0 L 5.738281 0 C 4.992188 0 4.371094 0.589844 4.371094 1.363281 L 4.371094 4.808594 L 11.296875 4.808594 L 10.582031 4.09375 C 10.394531 3.90625 10.425781 3.625 10.582031 3.4375 L 11.046875 2.972656 C 11.140625 2.882812 11.234375 2.851562 11.355469 2.851562 C 11.480469 2.851562 11.605469 2.882812 11.695312 2.972656 L 13.996094 5.304688 C 14.085938 5.398438 14.117188 5.492188 14.117188 5.613281 C 14.117188 5.738281 14.054688 5.863281 13.996094 5.953125 L 11.695312 8.285156 C 11.507812 8.472656 11.230469 8.472656 11.042969 8.285156 L 10.574219 7.816406 C 10.386719 7.628906 10.386719 7.351562 10.574219 7.164062 L 11.320312 6.445312 L 4.402344 6.445312 L 4.402344 26.65625 C 4.402344 27.402344 4.992188 28.019531 5.738281 28.019531 L 22.285156 28.019531 C 23.027344 28.019531 23.648438 27.433594 23.648438 26.65625 Z M 17.875 8.660156 C 18.808594 8.660156 19.585938 9.433594 19.585938 10.367188 C 19.585938 11.300781 18.808594 12.042969 17.875 12.042969 C 16.941406 12.042969 16.203125 11.296875 16.203125 10.367188 C 16.203125 9.441406 16.910156 8.660156 17.875 8.660156 Z M 11.921875 20.484375 C 11.550781 20.917969 11.300781 21.070312 10.804688 21.039062 L 7.046875 20.980469 C 6.578125 20.949219 6.207031 20.484375 6.238281 20.082031 C 6.269531 19.523438 6.644531 19.214844 7.171875 19.214844 L 10.617188 19.183594 L 11.421875 18.09375 L 12.882812 19.273438 Z M 20.917969 17.65625 L 17.84375 16.976562 C 17.625 16.917969 17.476562 16.757812 17.378906 16.570312 L 16.664062 14.988281 C 16.601562 15.050781 15.019531 17.65625 15.019531 17.65625 L 16.820312 19.023438 C 17.378906 19.488281 17.4375 19.917969 17.226562 20.511719 L 15.363281 24.800781 C 15.207031 25.203125 14.746094 25.484375 14.277344 25.328125 C 13.8125 25.167969 13.503906 24.640625 13.722656 24.179688 L 15.335938 20.300781 L 12.914062 18.46875 C 12.261719 18.0625 12.015625 17.285156 12.476562 16.511719 L 14.648438 12.96875 L 13.066406 12.414062 L 10.210938 13.84375 C 9.839844 14.0625 9.375 13.875 9.1875 13.535156 C 9.027344 13.222656 9.15625 12.789062 9.464844 12.601562 L 12.449219 11.046875 C 12.605469 10.957031 12.757812 10.890625 12.914062 10.890625 C 13.070312 10.890625 13.222656 10.921875 13.351562 10.953125 L 15.867188 11.757812 C 15.957031 11.789062 16.023438 11.820312 16.085938 11.878906 L 17.449219 12.90625 C 17.636719 13.027344 17.699219 13.246094 17.757812 13.402344 L 18.445312 15.542969 L 21.207031 16.257812 C 21.578125 16.347656 21.765625 16.695312 21.765625 17.035156 C 21.726562 17.347656 21.292969 17.753906 20.917969 17.65625 Z M 20.917969 17.65625 "/>
</g>
</svg>
