<?xml version="1.0" encoding="UTF-8"?>
<svg xmlns="http://www.w3.org/2000/svg" xmlns:xlink="http://www.w3.org/1999/xlink" width="28pt" height="28pt" viewBox="0 0 28 28" version="1.1">
<g id="surface1">
<path style=" stroke:none;fill-rule:nonzero;fill:rgb(0%,0%,0%);fill-opacity:1;" d="M 14.6875 10.582031 C 14.480469 10.007812 13.847656 9.714844 13.277344 9.921875 L 9.703125 11.214844 L 6.765625 9.046875 L 9.710938 10.199219 L 9.714844 9.992188 C 9.757812 9.105469 9.082031 8.339844 8.191406 8.277344 L 5.410156 8.082031 C 4.953125 8.046875 4.503906 8.207031 4.171875 8.519531 C 3.835938 8.832031 3.648438 9.273438 3.652344 9.730469 L 3.714844 17.726562 L 2.933594 17.726562 L 1.753906 8.390625 C 1.691406 7.910156 1.25 7.566406 0.769531 7.628906 C 0.289062 7.691406 -0.0546875 8.128906 0.0078125 8.613281 L 1.285156 18.71875 C 1.34375 19.15625 1.714844 19.488281 2.160156 19.488281 L 5.335938 19.488281 L 5.335938 23.089844 L 3.246094 24.796875 C 2.988281 25.007812 2.949219 25.390625 3.160156 25.648438 C 3.371094 25.910156 3.753906 25.949219 4.015625 25.738281 L 5.335938 24.65625 L 5.335938 25.265625 C 5.335938 25.601562 5.609375 25.875 5.945312 25.875 C 6.277344 25.875 6.550781 25.601562 6.550781 25.265625 L 6.550781 24.65625 L 7.871094 25.738281 C 8.132812 25.949219 8.515625 25.910156 8.726562 25.648438 C 8.9375 25.390625 8.898438 25.007812 8.640625 24.796875 L 6.550781 23.089844 L 6.550781 19.488281 L 9.449219 19.488281 C 9.886719 19.488281 10.25 19.164062 10.316406 18.742188 L 10.527344 18.796875 L 11.285156 24.722656 C 11.375 25.445312 12.039062 25.957031 12.761719 25.863281 C 13.484375 25.769531 13.996094 25.109375 13.902344 24.386719 L 13.03125 17.578125 C 12.964844 17.039062 12.574219 16.601562 12.054688 16.464844 L 9.304688 15.757812 L 9.371094 14.8125 C 8.914062 14.824219 8.472656 14.617188 8.1875 14.257812 L 5.457031 10.8125 L 8.867188 13.335938 C 9.160156 13.550781 9.542969 13.613281 9.894531 13.484375 L 14.027344 11.988281 C 14.597656 11.78125 14.894531 11.152344 14.6875 10.582031 Z M 14.6875 10.582031 "/>
<path style=" stroke:none;fill-rule:nonzero;fill:rgb(0%,0%,0%);fill-opacity:1;" d="M 9.796875 4.554688 C 9.796875 5.894531 8.710938 6.980469 7.371094 6.980469 C 6.03125 6.980469 4.945312 5.894531 4.945312 4.554688 C 4.945312 3.214844 6.03125 2.125 7.371094 2.125 C 8.710938 2.125 9.796875 3.214844 9.796875 4.554688 Z M 9.796875 4.554688 "/>
<path style=" stroke:none;fill-rule:nonzero;fill:rgb(0%,0%,0%);fill-opacity:1;" d="M 27.089844 14.210938 L 14.769531 14.210938 C 14.265625 14.210938 13.859375 14.621094 13.859375 15.121094 C 13.859375 15.625 14.265625 16.03125 14.769531 16.03125 L 14.890625 16.03125 L 14.890625 25.265625 C 14.890625 25.601562 15.164062 25.875 15.496094 25.875 C 15.832031 25.875 16.105469 25.601562 16.105469 25.265625 L 16.105469 16.03125 L 25.816406 16.03125 L 25.816406 25.265625 C 25.816406 25.601562 26.085938 25.875 26.421875 25.875 C 26.757812 25.875 27.027344 25.601562 27.027344 25.265625 L 27.027344 16.03125 C 27.660156 16.03125 28 15.578125 28 15.121094 C 28 14.621094 27.59375 14.210938 27.089844 14.210938 Z M 27.089844 14.210938 "/>
<path style=" stroke:none;fill-rule:nonzero;fill:rgb(0%,0%,0%);fill-opacity:1;" d="M 21.191406 8.757812 C 20.898438 8.59375 20.527344 8.703125 20.367188 8.996094 L 18.539062 12.335938 C 18.195312 12.335938 15.664062 12.335938 15.246094 12.335938 C 14.910156 12.335938 14.640625 12.609375 14.640625 12.945312 C 14.640625 12.953125 14.640625 12.960938 14.640625 12.972656 C 14.65625 13.292969 14.921875 13.550781 15.246094 13.550781 L 18.898438 13.550781 C 19.117188 13.550781 19.324219 13.429688 19.429688 13.234375 L 21.433594 9.582031 C 21.59375 9.285156 21.484375 8.917969 21.191406 8.757812 Z M 21.191406 8.757812 "/>
</g>
</svg>
