<?xml version="1.0" encoding="UTF-8"?>
<svg xmlns="http://www.w3.org/2000/svg" xmlns:xlink="http://www.w3.org/1999/xlink" width="28pt" height="28pt" viewBox="0 0 28 28" version="1.1">
<g id="surface1">
<path style=" stroke:none;fill-rule:nonzero;fill:rgb(0.392157%,0%,0.784314%);fill-opacity:1;" d="M 6.351562 18.820312 L 4.980469 18.820312 L 4.980469 10.460938 L 6.351562 10.460938 Z M 16.613281 21.246094 L 17.164062 21.246094 L 17.164062 19.902344 L 4.980469 19.902344 L 4.980469 21.246094 L 6.351562 21.246094 L 6.351562 28.226562 L 11.070312 28.226562 C 11.070312 25.761719 12.898438 25.898438 12.898438 25.898438 C 17.535156 25.078125 16.613281 21.246094 16.613281 21.246094 Z M 23.171875 17.554688 C 22.285156 20.617188 21.117188 23.613281 19.925781 26.570312 C 19.140625 28.527344 15.941406 27.675781 16.742188 25.695312 C 17.648438 23.425781 18.550781 21.136719 19.316406 18.808594 C 16.789062 18.867188 14.253906 19.015625 11.746094 18.777344 C 10.558594 18.667969 10.035156 17.472656 10.183594 16.484375 C 10.179688 16.394531 10.179688 16.300781 10.1875 16.203125 C 10.417969 13.667969 10.753906 11.144531 11.179688 8.636719 C 11.414062 7.265625 13.078125 6.507812 14.320312 6.847656 C 14.722656 6.960938 15.0625 7.148438 15.332031 7.394531 C 15.421875 7.457031 15.507812 7.53125 15.578125 7.625 C 17.082031 9.5625 18.734375 11.367188 20.535156 13.03125 C 21.488281 13.914062 20.851562 15.148438 19.902344 15.484375 C 20.277344 15.484375 20.65625 15.488281 21.035156 15.488281 C 21.152344 15.488281 21.261719 15.503906 21.363281 15.519531 C 22.402344 15.425781 23.550781 16.25 23.171875 17.554688 Z M 18.914062 15.476562 C 18.742188 15.410156 18.570312 15.308594 18.410156 15.152344 C 17.476562 14.292969 16.585938 13.390625 15.730469 12.453125 C 15.59375 13.433594 15.480469 14.417969 15.378906 15.40625 C 16.5625 15.445312 17.738281 15.46875 18.914062 15.476562 Z M 14.519531 5.859375 C 16.136719 5.859375 17.445312 4.546875 17.445312 2.933594 C 17.445312 1.3125 16.136719 0 14.519531 0 C 12.898438 0 11.585938 1.3125 11.585938 2.933594 C 11.585938 4.546875 12.898438 5.859375 14.519531 5.859375 Z M 14.519531 5.859375 "/>
</g>
</svg>
