<?xml version="1.0" encoding="UTF-8"?>
<svg xmlns="http://www.w3.org/2000/svg" xmlns:xlink="http://www.w3.org/1999/xlink" width="28pt" height="28pt" viewBox="0 0 28 28" version="1.1">
<g id="surface1">
<path style=" stroke:none;fill-rule:nonzero;fill:rgb(0%,0%,0%);fill-opacity:1;" d="M 8.570312 22.503906 L 7.351562 22.503906 L 7.351562 21.429688 C 7.351562 20.941406 6.953125 20.542969 6.46875 20.542969 L 4.503906 20.542969 C 4.015625 20.542969 3.621094 20.941406 3.621094 21.429688 L 3.621094 22.503906 L 2.402344 22.503906 C 2.0625 22.503906 1.785156 22.78125 1.785156 23.121094 L 1.785156 27.382812 C 1.785156 27.722656 2.0625 28 2.402344 28 L 8.570312 28 C 8.910156 28 9.1875 27.722656 9.1875 27.382812 L 9.1875 23.121094 C 9.1875 22.78125 8.910156 22.503906 8.570312 22.503906 Z M 6.390625 22.503906 L 4.582031 22.503906 L 4.582031 21.503906 L 6.390625 21.503906 Z M 6.390625 22.503906 "/>
<path style=" stroke:none;fill-rule:nonzero;fill:rgb(0%,0%,0%);fill-opacity:1;" d="M 16.515625 2.304688 C 16.515625 3.578125 15.484375 4.609375 14.210938 4.609375 C 12.9375 4.609375 11.90625 3.578125 11.90625 2.304688 C 11.90625 1.03125 12.9375 0 14.210938 0 C 15.484375 0 16.515625 1.03125 16.515625 2.304688 Z M 16.515625 2.304688 "/>
<path style=" stroke:none;fill-rule:nonzero;fill:rgb(0%,0%,0%);fill-opacity:1;" d="M 25.546875 17.835938 L 25.050781 17.835938 L 25.050781 14.882812 L 25.460938 14.882812 C 25.582031 14.882812 25.679688 14.785156 25.679688 14.664062 L 25.679688 13.929688 C 25.679688 13.808594 25.582031 13.710938 25.460938 13.710938 L 22.570312 13.710938 C 22.734375 13.234375 22.558594 12.695312 22.117188 12.410156 L 19.835938 10.957031 L 19.816406 7.960938 C 19.808594 6.519531 18.628906 5.34375 17.183594 5.34375 C 16.566406 5.34375 11.835938 5.34375 11.214844 5.34375 C 9.773438 5.34375 8.589844 6.519531 8.585938 7.960938 L 8.542969 16.132812 C 8.539062 16.746094 9.035156 17.246094 9.648438 17.25 C 9.652344 17.25 9.652344 17.25 9.65625 17.25 C 10.265625 17.25 10.765625 16.753906 10.765625 16.140625 L 10.808594 7.972656 C 10.808594 7.855469 10.90625 7.757812 11.023438 7.757812 C 11.140625 7.757812 11.238281 7.855469 11.238281 7.972656 L 11.238281 26.664062 C 11.238281 27.402344 11.835938 28 12.570312 28 C 13.308594 28 13.90625 27.402344 13.90625 26.664062 L 13.90625 16 L 14.484375 16 L 14.484375 26.664062 C 14.484375 27.402344 15.078125 28 15.816406 28 C 16.554688 28 17.152344 27.402344 17.152344 26.664062 C 17.152344 9.253906 17.128906 18.796875 17.128906 7.980469 C 17.128906 7.855469 17.230469 7.75 17.355469 7.75 C 17.484375 7.746094 17.589844 7.847656 17.59375 7.972656 L 17.613281 11.578125 C 17.617188 11.953125 17.808594 12.304688 18.128906 12.507812 L 20.644531 14.109375 L 20.644531 14.664062 C 20.644531 14.785156 20.742188 14.882812 20.863281 14.882812 L 21.269531 14.882812 L 21.269531 17.835938 L 20.773438 17.835938 C 20.40625 17.835938 20.105469 18.136719 20.105469 18.503906 L 20.105469 26.15625 C 20.105469 26.527344 20.40625 26.824219 20.773438 26.824219 L 21.269531 26.824219 L 21.269531 27.542969 C 21.269531 27.796875 21.472656 28 21.726562 28 C 21.976562 28 22.179688 27.796875 22.179688 27.542969 L 22.179688 26.824219 L 24.140625 26.824219 L 24.140625 27.542969 C 24.140625 27.796875 24.347656 28 24.597656 28 C 24.847656 28 25.050781 27.796875 25.050781 27.542969 L 25.050781 26.824219 L 25.546875 26.824219 C 25.917969 26.824219 26.214844 26.527344 26.214844 26.15625 L 26.214844 18.503906 C 26.214844 18.136719 25.917969 17.835938 25.546875 17.835938 Z M 24.140625 17.835938 L 22.179688 17.835938 L 22.179688 14.882812 L 24.140625 14.882812 Z M 24.140625 17.835938 "/>
</g>
</svg>
