<?xml version="1.0" encoding="UTF-8"?>
<svg xmlns="http://www.w3.org/2000/svg" xmlns:xlink="http://www.w3.org/1999/xlink" width="28pt" height="28pt" viewBox="0 0 28 28" version="1.1">
<g id="surface1">
<path style=" stroke:none;fill-rule:nonzero;fill:rgb(0%,0%,0%);fill-opacity:1;" d="M 26.476562 13.121094 L 2.476562 0.121094 C 2.167969 -0.046875 1.792969 -0.0390625 1.488281 0.140625 C 1.1875 0.324219 1 0.648438 1 1 L 1 27 C 1 27.351562 1.1875 27.679688 1.488281 27.859375 C 1.644531 27.953125 1.820312 28 2 28 C 2.164062 28 2.328125 27.960938 2.476562 27.878906 L 26.476562 14.878906 C 26.796875 14.703125 27 14.367188 27 14 C 27 13.632812 26.796875 13.296875 26.476562 13.121094 Z M 3 25.320312 L 3 2.679688 L 23.898438 14 Z M 3 25.320312 "/>
</g>
</svg>
