<?xml version="1.0" encoding="UTF-8"?>
<svg xmlns="http://www.w3.org/2000/svg" xmlns:xlink="http://www.w3.org/1999/xlink" width="28pt" height="28pt" viewBox="0 0 28 28" version="1.1">
<g id="surface1">
<path style=" stroke:none;fill-rule:nonzero;fill:rgb(0%,0%,0%);fill-opacity:1;" d="M 23.898438 4.101562 C 18.425781 -1.367188 9.574219 -1.367188 4.101562 4.101562 C -1.367188 9.574219 -1.367188 18.425781 4.101562 23.898438 C 9.574219 29.367188 18.425781 29.367188 23.898438 23.898438 C 29.367188 18.425781 29.367188 9.574219 23.898438 4.101562 Z M 14 25.699219 C 7.550781 25.699219 2.300781 20.449219 2.300781 14 C 2.300781 7.550781 7.550781 2.300781 14 2.300781 C 20.449219 2.300781 25.699219 7.550781 25.699219 14 C 25.699219 20.449219 20.449219 25.699219 14 25.699219 Z M 14 25.699219 "/>
<path style=" stroke:none;fill-rule:nonzero;fill:rgb(0%,0%,0%);fill-opacity:1;" d="M 15.289062 13.09375 L 10.035156 9.003906 C 9.28125 8.417969 8.179688 8.957031 8.179688 9.914062 L 8.179688 18.085938 C 8.179688 19.050781 9.289062 19.574219 10.035156 18.996094 L 15.289062 14.90625 C 15.878906 14.449219 15.882812 13.554688 15.289062 13.09375 Z M 10.476562 15.738281 L 10.476562 12.261719 L 12.710938 14 Z M 10.476562 15.738281 "/>
<path style=" stroke:none;fill-rule:nonzero;fill:rgb(0%,0%,0%);fill-opacity:1;" d="M 18.671875 8.761719 C 18.035156 8.761719 17.523438 9.277344 17.523438 9.914062 L 17.523438 18.085938 C 17.523438 18.722656 18.035156 19.238281 18.671875 19.238281 C 19.304688 19.238281 19.820312 18.722656 19.820312 18.085938 L 19.820312 9.914062 C 19.820312 9.277344 19.308594 8.761719 18.671875 8.761719 Z M 18.671875 8.761719 "/>
</g>
</svg>
