<?xml version="1.0" encoding="UTF-8"?>
<svg xmlns="http://www.w3.org/2000/svg" xmlns:xlink="http://www.w3.org/1999/xlink" width="28pt" height="28pt" viewBox="0 0 28 28" version="1.1">
<g id="surface1">
<path style=" stroke:none;fill-rule:nonzero;fill:rgb(0%,0%,0%);fill-opacity:1;" d="M 26.480469 12.046875 L 15.953125 12.046875 L 15.953125 1.519531 C 15.953125 1.039062 15.300781 0 14 0 C 12.699219 0 12.046875 1.039062 12.046875 1.519531 L 12.046875 12.046875 L 1.519531 12.046875 C 1.039062 12.046875 0 12.699219 0 14 C 0 15.300781 1.039062 15.953125 1.519531 15.953125 L 12.046875 15.953125 L 12.046875 26.480469 C 12.046875 26.960938 12.699219 28 14 28 C 15.300781 28 15.953125 26.960938 15.953125 26.480469 L 15.953125 15.953125 L 26.480469 15.953125 C 26.960938 15.953125 28 15.300781 28 14 C 28 12.699219 26.960938 12.046875 26.480469 12.046875 Z M 26.480469 12.046875 "/>
</g>
</svg>
