<?xml version="1.0" encoding="UTF-8"?>
<svg xmlns="http://www.w3.org/2000/svg" xmlns:xlink="http://www.w3.org/1999/xlink" width="28pt" height="28pt" viewBox="0 0 28 28" version="1.1">
<g id="surface1">
<path style=" stroke:none;fill-rule:nonzero;fill:rgb(0%,0%,0%);fill-opacity:1;" d="M 27.441406 10.738281 C 27.070312 10.367188 26.621094 10.183594 26.089844 10.183594 L 17.816406 10.183594 L 17.816406 1.910156 C 17.816406 1.378906 17.632812 0.929688 17.261719 0.558594 C 16.890625 0.1875 16.4375 0 15.910156 0 L 12.089844 0 C 11.558594 0 11.109375 0.183594 10.738281 0.558594 C 10.367188 0.929688 10.179688 1.378906 10.179688 1.910156 L 10.179688 10.183594 L 1.910156 10.183594 C 1.378906 10.183594 0.929688 10.367188 0.558594 10.738281 C 0.183594 11.109375 0 11.558594 0 12.089844 L 0 15.910156 C 0 16.441406 0.183594 16.890625 0.558594 17.261719 C 0.929688 17.632812 1.378906 17.816406 1.910156 17.816406 L 10.179688 17.816406 L 10.179688 26.089844 C 10.179688 26.621094 10.367188 27.070312 10.738281 27.441406 C 11.109375 27.8125 11.558594 28 12.089844 28 L 15.910156 28 C 16.4375 28 16.890625 27.8125 17.261719 27.441406 C 17.632812 27.070312 17.816406 26.621094 17.816406 26.089844 L 17.816406 17.816406 L 26.089844 17.816406 C 26.621094 17.816406 27.070312 17.632812 27.441406 17.261719 C 27.8125 16.890625 28 16.441406 28 15.910156 L 28 12.089844 C 28 11.558594 27.8125 11.109375 27.441406 10.738281 Z M 27.441406 10.738281 "/>
</g>
</svg>
