<?xml version="1.0" encoding="UTF-8"?>
<svg xmlns="http://www.w3.org/2000/svg" xmlns:xlink="http://www.w3.org/1999/xlink" width="28pt" height="28pt" viewBox="0 0 28 28" version="1.1">
<g id="surface1">
<path style=" stroke:none;fill-rule:nonzero;fill:rgb(0%,0%,0%);fill-opacity:1;" d="M 24.667969 10.761719 L 26.972656 12.703125 L 28 11.425781 L 23.460938 7.691406 L 23.460938 0 L 17.734375 0 L 17.734375 3.101562 L 14 0.109375 L 0 11.425781 L 1.027344 12.703125 L 3.296875 10.789062 L 3.296875 26.359375 L 0.820312 26.359375 L 0.820312 28 L 27.179688 28 L 27.179688 26.359375 L 24.667969 26.359375 Z M 19.375 1.640625 L 21.820312 1.640625 L 21.820312 6.375 L 19.375 4.414062 Z M 4.9375 9.472656 L 14 2.210938 L 23.027344 9.445312 L 23.027344 26.359375 L 4.9375 26.359375 Z M 4.9375 9.472656 "/>
<path style=" stroke:none;fill-rule:nonzero;fill:rgb(0%,0%,0%);fill-opacity:1;" d="M 13.179688 18.140625 L 13.179688 19.71875 L 14.820312 19.71875 L 14.820312 18.140625 C 15.09375 17.910156 15.269531 17.5625 15.269531 17.175781 C 15.269531 16.476562 14.699219 15.910156 14 15.910156 C 13.300781 15.910156 12.730469 16.476562 12.730469 17.175781 C 12.730469 17.5625 12.90625 17.910156 13.179688 18.140625 Z M 13.179688 18.140625 "/>
<path style=" stroke:none;fill-rule:nonzero;fill:rgb(0%,0%,0%);fill-opacity:1;" d="M 16.683594 12.804688 L 16.683594 9.71875 C 16.683594 8.238281 15.480469 7.035156 14 7.035156 C 12.519531 7.035156 11.316406 8.238281 11.316406 9.71875 L 11.316406 12.804688 L 9.015625 12.804688 L 9.015625 23.085938 L 18.984375 23.085938 L 18.984375 12.804688 Z M 12.957031 9.71875 C 12.957031 9.140625 13.425781 8.675781 14 8.675781 C 14.574219 8.675781 15.042969 9.140625 15.042969 9.71875 L 15.042969 12.804688 L 12.957031 12.804688 Z M 17.34375 21.445312 L 10.65625 21.445312 L 10.65625 14.445312 L 17.34375 14.445312 Z M 17.34375 21.445312 "/>
</g>
</svg>
