<?xml version="1.0" encoding="UTF-8"?>
<svg xmlns="http://www.w3.org/2000/svg" xmlns:xlink="http://www.w3.org/1999/xlink" width="14pt" height="14pt" viewBox="0 0 14 14" version="1.1">
<g id="surface1">
<path style=" stroke:none;fill-rule:nonzero;fill:rgb(0%,0%,0%);fill-opacity:1;" d="M 13.882812 10.609375 L 12.824219 8.777344 C 12.664062 8.5 12.367188 8.328125 12.046875 8.328125 L 9.9375 8.328125 C 9.617188 8.328125 9.320312 8.5 9.164062 8.777344 L 8.105469 10.609375 C 7.945312 10.882812 7.945312 11.226562 8.105469 11.5 L 9.164062 13.328125 C 9.320312 13.609375 9.617188 13.777344 9.9375 13.777344 L 12.046875 13.777344 C 12.367188 13.777344 12.664062 13.609375 12.824219 13.328125 L 13.882812 11.5 C 14.039062 11.226562 14.039062 10.882812 13.882812 10.609375 Z M 10.992188 12.351562 C 10.277344 12.351562 9.695312 11.769531 9.695312 11.054688 C 9.695312 10.335938 10.277344 9.757812 10.992188 9.757812 C 11.710938 9.757812 12.289062 10.335938 12.289062 11.054688 C 12.289062 11.769531 11.710938 12.351562 10.992188 12.351562 Z M 10.992188 12.351562 "/>
<path style=" stroke:none;fill-rule:nonzero;fill:rgb(0%,0%,0%);fill-opacity:1;" d="M 7.726562 8.015625 L 5.960938 7 C 5.648438 6.820312 5.542969 6.421875 5.722656 6.109375 L 6.46875 4.820312 C 6.550781 4.671875 6.695312 4.5625 6.859375 4.515625 C 7.023438 4.46875 7.203125 4.492188 7.351562 4.578125 L 9.117188 5.597656 C 9.292969 5.695312 9.515625 5.636719 9.617188 5.460938 C 10.027344 4.746094 9.863281 3.835938 9.226562 3.308594 L 8.488281 2.695312 C 7.789062 2.113281 6.859375 1.886719 5.96875 2.078125 L 4.265625 2.4375 L 0.496094 0.265625 C 0.394531 0.207031 0.265625 0.207031 0.164062 0.265625 C 0.0625 0.328125 0 0.4375 0 0.554688 L 0 3.746094 C 0 3.867188 0.0625 3.976562 0.164062 4.03125 L 2.558594 5.410156 L 3.097656 7.058594 C 3.382812 7.921875 4.046875 8.613281 4.902344 8.929688 L 5.804688 9.257812 C 6.578125 9.542969 7.449219 9.226562 7.859375 8.511719 C 7.960938 8.335938 7.898438 8.117188 7.726562 8.015625 Z M 7.726562 8.015625 "/>
</g>
</svg>
