<?xml version="1.0" encoding="UTF-8"?>
<svg xmlns="http://www.w3.org/2000/svg" xmlns:xlink="http://www.w3.org/1999/xlink" width="28pt" height="28pt" viewBox="0 0 28 28" version="1.1">
<g id="surface1">
<path style=" stroke:none;fill-rule:nonzero;fill:rgb(0%,0%,0%);fill-opacity:1;" d="M 24.191406 8.101562 C 23.183594 8.101562 22.671875 7.628906 22.21875 7.214844 C 21.808594 6.839844 21.484375 6.546875 20.796875 6.546875 C 20.105469 6.546875 19.78125 6.839844 19.371094 7.214844 C 18.917969 7.628906 18.40625 8.101562 17.398438 8.101562 C 16.390625 8.101562 15.875 7.628906 15.421875 7.214844 C 15.011719 6.839844 14.691406 6.546875 14 6.546875 C 13.308594 6.546875 12.984375 6.839844 12.578125 7.214844 C 12.125 7.628906 11.609375 8.101562 10.601562 8.101562 C 9.59375 8.101562 9.078125 7.628906 8.625 7.214844 C 8.21875 6.839844 7.894531 6.546875 7.203125 6.546875 C 6.515625 6.546875 6.191406 6.839844 5.78125 7.214844 C 5.328125 7.628906 4.816406 8.101562 3.804688 8.101562 C 2.796875 8.101562 2.285156 7.628906 1.832031 7.214844 C 1.421875 6.839844 1.097656 6.546875 0.410156 6.546875 C 0.183594 6.546875 0 6.363281 0 6.136719 C 0 5.910156 0.183594 5.726562 0.410156 5.726562 C 1.417969 5.726562 1.929688 6.199219 2.382812 6.613281 C 2.792969 6.988281 3.117188 7.285156 3.804688 7.285156 C 4.496094 7.285156 4.820312 6.988281 5.230469 6.613281 C 5.683594 6.199219 6.195312 5.726562 7.203125 5.726562 C 8.210938 5.726562 8.726562 6.199219 9.179688 6.613281 C 9.589844 6.988281 9.910156 7.285156 10.601562 7.285156 C 11.292969 7.285156 11.617188 6.988281 12.023438 6.613281 C 12.476562 6.199219 12.992188 5.726562 14 5.726562 C 15.007812 5.726562 15.519531 6.199219 15.972656 6.613281 C 16.382812 6.988281 16.707031 7.285156 17.398438 7.285156 C 18.085938 7.285156 18.410156 6.988281 18.820312 6.613281 C 19.273438 6.199219 19.785156 5.726562 20.796875 5.726562 C 21.804688 5.726562 22.316406 6.199219 22.769531 6.613281 C 23.179688 6.988281 23.503906 7.285156 24.191406 7.285156 C 24.882812 7.285156 25.207031 6.988281 25.617188 6.613281 C 26.070312 6.199219 26.582031 5.726562 27.589844 5.726562 C 27.816406 5.726562 28 5.910156 28 6.136719 C 28 6.363281 27.816406 6.546875 27.589844 6.546875 C 26.902344 6.546875 26.578125 6.839844 26.167969 7.214844 C 25.714844 7.628906 25.203125 8.101562 24.191406 8.101562 Z M 24.191406 8.101562 "/>
<path style=" stroke:none;fill-rule:nonzero;fill:rgb(0%,0%,0%);fill-opacity:1;" d="M 24.191406 11.644531 C 23.183594 11.644531 22.671875 11.171875 22.21875 10.757812 C 21.808594 10.382812 21.484375 10.089844 20.796875 10.089844 C 20.105469 10.089844 19.78125 10.382812 19.371094 10.757812 C 18.917969 11.171875 18.40625 11.644531 17.398438 11.644531 C 16.390625 11.644531 15.875 11.171875 15.421875 10.757812 C 15.011719 10.382812 14.691406 10.089844 14 10.089844 C 13.308594 10.089844 12.984375 10.382812 12.578125 10.757812 C 12.125 11.171875 11.609375 11.644531 10.601562 11.644531 C 9.59375 11.644531 9.078125 11.171875 8.625 10.757812 C 8.21875 10.382812 7.894531 10.089844 7.203125 10.089844 C 6.515625 10.089844 6.191406 10.382812 5.78125 10.757812 C 5.328125 11.171875 4.816406 11.644531 3.804688 11.644531 C 2.796875 11.644531 2.285156 11.171875 1.832031 10.757812 C 1.421875 10.382812 1.097656 10.089844 0.410156 10.089844 C 0.183594 10.089844 0 9.90625 0 9.679688 C 0 9.453125 0.183594 9.269531 0.410156 9.269531 C 1.417969 9.269531 1.929688 9.742188 2.382812 10.15625 C 2.792969 10.53125 3.117188 10.824219 3.804688 10.824219 C 4.496094 10.824219 4.820312 10.53125 5.230469 10.15625 C 5.683594 9.742188 6.195312 9.269531 7.203125 9.269531 C 8.210938 9.269531 8.726562 9.742188 9.179688 10.15625 C 9.589844 10.53125 9.910156 10.824219 10.601562 10.824219 C 11.292969 10.824219 11.617188 10.53125 12.023438 10.15625 C 12.476562 9.742188 12.992188 9.269531 14 9.269531 C 15.007812 9.269531 15.519531 9.742188 15.972656 10.15625 C 16.382812 10.53125 16.707031 10.824219 17.398438 10.824219 C 18.085938 10.824219 18.410156 10.53125 18.820312 10.15625 C 19.273438 9.742188 19.785156 9.269531 20.796875 9.269531 C 21.804688 9.269531 22.316406 9.742188 22.769531 10.15625 C 23.179688 10.53125 23.503906 10.824219 24.191406 10.824219 C 24.882812 10.824219 25.207031 10.53125 25.617188 10.15625 C 26.070312 9.742188 26.582031 9.269531 27.589844 9.269531 C 27.816406 9.269531 28 9.453125 28 9.679688 C 28 9.90625 27.816406 10.089844 27.589844 10.089844 C 26.902344 10.089844 26.578125 10.382812 26.167969 10.757812 C 25.714844 11.171875 25.203125 11.644531 24.191406 11.644531 Z M 24.191406 11.644531 "/>
<path style=" stroke:none;fill-rule:nonzero;fill:rgb(0%,0%,0%);fill-opacity:1;" d="M 24.191406 15.1875 C 23.183594 15.1875 22.671875 14.714844 22.21875 14.300781 C 21.808594 13.925781 21.484375 13.632812 20.796875 13.632812 C 20.105469 13.632812 19.78125 13.925781 19.371094 14.300781 C 18.917969 14.714844 18.40625 15.1875 17.398438 15.1875 C 16.390625 15.1875 15.875 14.714844 15.421875 14.300781 C 15.011719 13.925781 14.691406 13.632812 14 13.632812 C 13.308594 13.632812 12.984375 13.925781 12.578125 14.300781 C 12.125 14.714844 11.609375 15.1875 10.601562 15.1875 C 9.59375 15.1875 9.078125 14.714844 8.625 14.300781 C 8.21875 13.925781 7.894531 13.632812 7.203125 13.632812 C 6.515625 13.632812 6.191406 13.925781 5.78125 14.300781 C 5.328125 14.714844 4.816406 15.1875 3.804688 15.1875 C 2.796875 15.1875 2.285156 14.714844 1.832031 14.300781 C 1.421875 13.925781 1.097656 13.632812 0.410156 13.632812 C 0.183594 13.632812 0 13.449219 0 13.222656 C 0 12.996094 0.183594 12.8125 0.410156 12.8125 C 1.417969 12.8125 1.929688 13.285156 2.382812 13.699219 C 2.792969 14.074219 3.117188 14.367188 3.804688 14.367188 C 4.496094 14.367188 4.820312 14.074219 5.230469 13.699219 C 5.683594 13.285156 6.195312 12.8125 7.203125 12.8125 C 8.210938 12.8125 8.726562 13.285156 9.179688 13.699219 C 9.589844 14.074219 9.910156 14.367188 10.601562 14.367188 C 11.292969 14.367188 11.617188 14.074219 12.023438 13.699219 C 12.476562 13.285156 12.992188 12.8125 14 12.8125 C 15.007812 12.8125 15.519531 13.285156 15.972656 13.699219 C 16.382812 14.074219 16.707031 14.367188 17.398438 14.367188 C 18.085938 14.367188 18.410156 14.074219 18.820312 13.699219 C 19.273438 13.285156 19.785156 12.8125 20.796875 12.8125 C 21.804688 12.8125 22.316406 13.285156 22.769531 13.699219 C 23.179688 14.074219 23.503906 14.367188 24.191406 14.367188 C 24.882812 14.367188 25.207031 14.074219 25.617188 13.699219 C 26.070312 13.285156 26.582031 12.8125 27.589844 12.8125 C 27.816406 12.8125 28 12.996094 28 13.222656 C 28 13.449219 27.816406 13.632812 27.589844 13.632812 C 26.902344 13.632812 26.578125 13.925781 26.167969 14.300781 C 25.714844 14.714844 25.203125 15.1875 24.191406 15.1875 Z M 24.191406 15.1875 "/>
<path style=" stroke:none;fill-rule:nonzero;fill:rgb(0%,0%,0%);fill-opacity:1;" d="M 24.191406 18.730469 C 23.183594 18.730469 22.671875 18.257812 22.21875 17.84375 C 21.808594 17.46875 21.484375 17.175781 20.796875 17.175781 C 20.105469 17.175781 19.78125 17.46875 19.371094 17.84375 C 18.917969 18.257812 18.40625 18.730469 17.398438 18.730469 C 16.390625 18.730469 15.875 18.257812 15.421875 17.84375 C 15.011719 17.46875 14.691406 17.175781 14 17.175781 C 13.308594 17.175781 12.984375 17.46875 12.578125 17.84375 C 12.125 18.257812 11.609375 18.730469 10.601562 18.730469 C 9.59375 18.730469 9.078125 18.257812 8.625 17.84375 C 8.21875 17.46875 7.894531 17.175781 7.203125 17.175781 C 6.515625 17.175781 6.191406 17.46875 5.78125 17.84375 C 5.328125 18.257812 4.816406 18.730469 3.804688 18.730469 C 2.796875 18.730469 2.285156 18.257812 1.832031 17.84375 C 1.421875 17.46875 1.097656 17.175781 0.410156 17.175781 C 0.183594 17.175781 0 16.992188 0 16.765625 C 0 16.539062 0.183594 16.355469 0.410156 16.355469 C 1.417969 16.355469 1.929688 16.828125 2.382812 17.242188 C 2.792969 17.617188 3.117188 17.910156 3.804688 17.910156 C 4.496094 17.910156 4.820312 17.617188 5.230469 17.242188 C 5.683594 16.828125 6.195312 16.355469 7.203125 16.355469 C 8.210938 16.355469 8.726562 16.828125 9.179688 17.242188 C 9.589844 17.617188 9.910156 17.910156 10.601562 17.910156 C 11.292969 17.910156 11.617188 17.617188 12.023438 17.242188 C 12.476562 16.828125 12.992188 16.355469 14 16.355469 C 15.007812 16.355469 15.519531 16.828125 15.972656 17.242188 C 16.382812 17.617188 16.707031 17.910156 17.398438 17.910156 C 18.085938 17.910156 18.410156 17.617188 18.820312 17.242188 C 19.273438 16.828125 19.785156 16.355469 20.796875 16.355469 C 21.804688 16.355469 22.316406 16.828125 22.769531 17.242188 C 23.179688 17.617188 23.503906 17.910156 24.191406 17.910156 C 24.882812 17.910156 25.207031 17.617188 25.617188 17.242188 C 26.070312 16.828125 26.582031 16.355469 27.589844 16.355469 C 27.816406 16.355469 28 16.539062 28 16.765625 C 28 16.992188 27.816406 17.175781 27.589844 17.175781 C 26.902344 17.175781 26.578125 17.46875 26.167969 17.84375 C 25.714844 18.257812 25.203125 18.730469 24.191406 18.730469 Z M 24.191406 18.730469 "/>
<path style=" stroke:none;fill-rule:nonzero;fill:rgb(0%,0%,0%);fill-opacity:1;" d="M 24.191406 22.273438 C 23.183594 22.273438 22.671875 21.800781 22.21875 21.386719 C 21.808594 21.011719 21.484375 20.714844 20.796875 20.714844 C 20.105469 20.714844 19.78125 21.011719 19.371094 21.386719 C 18.917969 21.800781 18.40625 22.273438 17.398438 22.273438 C 16.390625 22.273438 15.875 21.800781 15.421875 21.386719 C 15.011719 21.011719 14.691406 20.714844 14 20.714844 C 13.308594 20.714844 12.984375 21.011719 12.578125 21.386719 C 12.125 21.800781 11.609375 22.273438 10.601562 22.273438 C 9.59375 22.273438 9.078125 21.800781 8.625 21.386719 C 8.21875 21.011719 7.894531 20.714844 7.203125 20.714844 C 6.515625 20.714844 6.191406 21.011719 5.78125 21.386719 C 5.328125 21.800781 4.816406 22.273438 3.804688 22.273438 C 2.796875 22.273438 2.285156 21.800781 1.832031 21.386719 C 1.421875 21.011719 1.097656 20.714844 0.410156 20.714844 C 0.183594 20.714844 0 20.535156 0 20.308594 C 0 20.082031 0.183594 19.898438 0.410156 19.898438 C 1.417969 19.898438 1.929688 20.371094 2.382812 20.785156 C 2.792969 21.160156 3.117188 21.453125 3.804688 21.453125 C 4.496094 21.453125 4.820312 21.160156 5.230469 20.785156 C 5.683594 20.371094 6.195312 19.898438 7.203125 19.898438 C 8.210938 19.898438 8.726562 20.371094 9.179688 20.785156 C 9.589844 21.160156 9.910156 21.453125 10.601562 21.453125 C 11.292969 21.453125 11.617188 21.160156 12.023438 20.785156 C 12.476562 20.371094 12.992188 19.898438 14 19.898438 C 15.007812 19.898438 15.519531 20.371094 15.972656 20.785156 C 16.382812 21.160156 16.707031 21.453125 17.398438 21.453125 C 18.085938 21.453125 18.410156 21.160156 18.820312 20.785156 C 19.273438 20.371094 19.785156 19.898438 20.796875 19.898438 C 21.804688 19.898438 22.316406 20.371094 22.769531 20.785156 C 23.179688 21.160156 23.503906 21.453125 24.191406 21.453125 C 24.882812 21.453125 25.207031 21.160156 25.617188 20.785156 C 26.070312 20.371094 26.582031 19.898438 27.589844 19.898438 C 27.816406 19.898438 28 20.082031 28 20.308594 C 28 20.535156 27.816406 20.714844 27.589844 20.714844 C 26.902344 20.714844 26.578125 21.011719 26.167969 21.386719 C 25.714844 21.800781 25.203125 22.273438 24.191406 22.273438 Z M 24.191406 22.273438 "/>
</g>
</svg>
