<?xml version="1.0" encoding="UTF-8"?>
<svg xmlns="http://www.w3.org/2000/svg" xmlns:xlink="http://www.w3.org/1999/xlink" width="28pt" height="28pt" viewBox="0 0 28 28" version="1.1">
<g id="surface1">
<path style=" stroke:none;fill-rule:nonzero;fill:rgb(0%,0%,0%);fill-opacity:1;" d="M 27.535156 17.035156 L 25.777344 17.035156 L 27.054688 11.0625 C 27.109375 10.8125 26.949219 10.5625 26.699219 10.511719 C 26.664062 10.503906 26.632812 10.5 26.601562 10.5 L 25.199219 10.5 L 25.199219 9.566406 L 26.132812 9.566406 L 26.132812 8.632812 L 25.199219 8.632812 L 25.199219 8.167969 C 25.199219 7.960938 25.179688 7.753906 25.140625 7.550781 L 25.875 7.183594 L 25.457031 6.347656 L 24.832031 6.660156 C 24.699219 6.40625 24.53125 6.167969 24.335938 5.957031 L 25.0625 5.230469 L 24.402344 4.570312 L 23.609375 5.363281 C 23.238281 5.140625 22.828125 4.996094 22.398438 4.933594 L 22.398438 3.964844 L 21.464844 3.964844 L 21.464844 4.933594 C 21.039062 4.996094 20.628906 5.144531 20.257812 5.367188 L 19.464844 4.574219 L 18.804688 5.234375 L 19.535156 5.960938 C 19.335938 6.171875 19.171875 6.410156 19.035156 6.664062 L 18.410156 6.351562 L 17.992188 7.1875 L 18.726562 7.554688 C 18.6875 7.757812 18.667969 7.960938 18.667969 8.167969 L 18.667969 8.632812 L 17.734375 8.632812 L 17.734375 9.566406 L 18.667969 9.566406 L 18.667969 10.5 L 17.265625 10.5 C 17.007812 10.5 16.800781 10.707031 16.800781 10.964844 C 16.800781 11 16.804688 11.03125 16.808594 11.0625 L 18.089844 17.035156 L 14.535156 17.035156 L 16.074219 16.640625 C 16.324219 16.578125 16.472656 16.324219 16.410156 16.074219 L 15.945312 14.265625 L 15.253906 11.550781 L 13.402344 4.320312 C 13.339844 4.070312 13.085938 3.917969 12.835938 3.980469 C 12.835938 3.980469 12.835938 3.980469 12.832031 3.980469 L 9.214844 4.90625 C 9.171875 4.921875 9.128906 4.941406 9.089844 4.964844 C 9.023438 4.925781 8.945312 4.902344 8.867188 4.898438 L 1.398438 4.898438 C 1.140625 4.898438 0.933594 5.109375 0.933594 5.367188 L 0.933594 17.035156 L 0.464844 17.035156 C 0.207031 17.035156 0 17.242188 0 17.5 L 0 20.300781 C 0 20.558594 0.207031 20.765625 0.464844 20.765625 L 1.867188 20.765625 L 1.867188 23.566406 C 1.867188 23.824219 2.074219 24.035156 2.332031 24.035156 C 2.46875 24.035156 2.597656 23.972656 2.6875 23.871094 L 5.347656 20.765625 L 22.652344 20.765625 L 25.3125 23.871094 C 25.480469 24.066406 25.773438 24.089844 25.96875 23.921875 C 26.074219 23.832031 26.132812 23.703125 26.132812 23.566406 L 26.132812 20.765625 L 27.535156 20.765625 C 27.792969 20.765625 28 20.558594 28 20.300781 L 28 17.5 C 28 17.242188 27.792969 17.035156 27.535156 17.035156 Z M 19.601562 8.167969 C 19.601562 6.878906 20.644531 5.832031 21.933594 5.832031 C 23.222656 5.832031 24.265625 6.878906 24.265625 8.167969 L 24.265625 10.5 L 23.332031 10.5 L 23.332031 7.699219 C 23.332031 7.441406 23.125 7.234375 22.867188 7.234375 C 22.609375 7.234375 22.398438 7.441406 22.398438 7.699219 L 22.398438 10.5 L 21.464844 10.5 L 21.464844 8.632812 C 21.464844 8.375 21.257812 8.167969 21 8.167969 C 20.742188 8.167969 20.535156 8.375 20.535156 8.632812 L 20.535156 10.5 L 19.601562 10.5 Z M 17.84375 11.433594 L 26.023438 11.433594 L 24.824219 17.035156 L 19.042969 17.035156 Z M 15.390625 15.851562 L 12.675781 16.546875 L 12.441406 15.640625 L 15.15625 14.949219 Z M 14.925781 14.042969 L 12.214844 14.738281 L 11.75 12.929688 L 14.464844 12.234375 Z M 12.613281 5 L 14.234375 11.332031 L 11.519531 12.023438 L 9.902344 5.691406 Z M 9.332031 15.632812 L 9.332031 7.242188 L 10.734375 12.707031 L 11.390625 15.28125 L 11.839844 17.035156 L 9.332031 17.035156 Z M 5.601562 5.832031 L 8.398438 5.832031 L 8.398438 12.367188 L 5.601562 12.367188 Z M 5.601562 13.300781 L 8.398438 13.300781 L 8.398438 15.167969 L 5.601562 15.167969 Z M 5.601562 16.101562 L 8.398438 16.101562 L 8.398438 17.035156 L 5.601562 17.035156 Z M 1.867188 5.832031 L 4.667969 5.832031 L 4.667969 12.367188 L 1.867188 12.367188 Z M 1.867188 13.300781 L 4.667969 13.300781 L 4.667969 15.167969 L 1.867188 15.167969 Z M 1.867188 16.101562 L 4.667969 16.101562 L 4.667969 17.035156 L 1.867188 17.035156 Z M 2.800781 22.308594 L 2.800781 20.765625 L 4.117188 20.765625 Z M 25.199219 22.308594 L 23.882812 20.765625 L 25.199219 20.765625 Z M 27.066406 19.832031 L 0.933594 19.832031 L 0.933594 17.964844 L 27.066406 17.964844 Z M 27.066406 19.832031 "/>
</g>
</svg>
