<?xml version="1.0" encoding="UTF-8"?>
<svg xmlns="http://www.w3.org/2000/svg" xmlns:xlink="http://www.w3.org/1999/xlink" width="28pt" height="28pt" viewBox="0 0 28 28" version="1.1">
<g id="surface1">
<path style=" stroke:none;fill-rule:nonzero;fill:rgb(0%,0%,0%);fill-opacity:1;" d="M 24.71875 8.257812 L 24.71875 19.742188 L 11.484375 19.742188 L 11.484375 8.257812 C 9.675781 8.257812 8.203125 9.730469 8.203125 11.539062 L 8.203125 24.664062 L 9.84375 24.664062 L 9.84375 23.023438 L 26.359375 23.023438 L 26.359375 24.664062 L 28 24.664062 L 28 11.539062 C 28 9.730469 26.527344 8.257812 24.71875 8.257812 Z M 24.71875 8.257812 "/>
<path style=" stroke:none;fill-rule:nonzero;fill:rgb(0%,0%,0%);fill-opacity:1;" d="M 0 18.101562 L 1.640625 18.101562 L 1.640625 24.664062 L 0 24.664062 Z M 0 18.101562 "/>
<path style=" stroke:none;fill-rule:nonzero;fill:rgb(0%,0%,0%);fill-opacity:1;" d="M 4.921875 18.101562 L 6.5625 18.101562 L 6.5625 24.664062 L 4.921875 24.664062 Z M 4.921875 18.101562 "/>
<path style=" stroke:none;fill-rule:nonzero;fill:rgb(0%,0%,0%);fill-opacity:1;" d="M 4.101562 13.179688 L 4.101562 11.539062 L 2.460938 11.539062 L 2.460938 13.179688 L 0 13.179688 L 0 16.460938 L 6.5625 16.460938 L 6.5625 13.179688 Z M 4.101562 13.179688 "/>
<path style=" stroke:none;fill-rule:nonzero;fill:rgb(0%,0%,0%);fill-opacity:1;" d="M 5.992188 3.335938 L 0.570312 3.335938 L 0 8.980469 L 0 9.898438 L 6.5625 9.898438 L 6.5625 8.980469 Z M 5.992188 3.335938 "/>
<path style=" stroke:none;fill-rule:nonzero;fill:rgb(0%,0%,0%);fill-opacity:1;" d="M 21.4375 14.820312 L 14.765625 14.820312 C 13.859375 14.820312 13.125 15.554688 13.125 16.460938 L 13.125 18.101562 L 23.078125 18.101562 L 23.078125 16.460938 C 23.078125 15.554688 22.34375 14.820312 21.4375 14.820312 Z M 21.4375 14.820312 "/>
<path style=" stroke:none;fill-rule:nonzero;fill:rgb(0%,0%,0%);fill-opacity:1;" d="M 21.4375 4.976562 L 14.765625 4.976562 C 13.859375 4.976562 13.125 5.710938 13.125 6.617188 L 13.125 13.621094 C 13.609375 13.339844 14.167969 13.179688 14.765625 13.179688 L 21.4375 13.179688 C 22.035156 13.179688 22.59375 13.339844 23.078125 13.621094 L 23.078125 6.617188 C 23.078125 5.710938 22.34375 4.976562 21.4375 4.976562 Z M 21.4375 4.976562 "/>
</g>
</svg>
