<?xml version="1.0" encoding="UTF-8"?>
<svg xmlns="http://www.w3.org/2000/svg" xmlns:xlink="http://www.w3.org/1999/xlink" width="28pt" height="28pt" viewBox="0 0 28 28" version="1.1">
<g id="surface1">
<path style=" stroke:none;fill-rule:nonzero;fill:rgb(0%,0%,0%);fill-opacity:1;" d="M 2.027344 14.222656 C 2.03125 14.195312 2.039062 14.167969 2.046875 14.140625 C 2.0625 14.082031 2.082031 14.019531 2.105469 13.960938 C 2.113281 13.933594 2.125 13.90625 2.136719 13.878906 C 2.164062 13.820312 2.195312 13.765625 2.230469 13.710938 C 2.242188 13.6875 2.253906 13.667969 2.269531 13.648438 C 2.316406 13.574219 2.375 13.507812 2.433594 13.445312 C 2.445312 13.4375 2.457031 13.425781 2.46875 13.417969 C 2.523438 13.367188 2.578125 13.320312 2.636719 13.277344 C 2.660156 13.261719 2.6875 13.246094 2.710938 13.230469 C 2.761719 13.199219 2.816406 13.171875 2.871094 13.144531 C 2.898438 13.132812 2.921875 13.121094 2.953125 13.109375 C 2.96875 13.101562 2.984375 13.09375 3 13.085938 L 3 10.5 C 3 10.222656 2.777344 10 2.5 10 L 0.5 10 C 0.222656 10 0 10.222656 0 10.5 L 0 21 L 3 21 L 3 17.914062 C 2.984375 17.910156 2.96875 17.898438 2.949219 17.890625 C 2.921875 17.882812 2.894531 17.871094 2.867188 17.855469 C 2.8125 17.832031 2.757812 17.800781 2.707031 17.769531 C 2.683594 17.753906 2.65625 17.738281 2.636719 17.722656 C 2.574219 17.679688 2.519531 17.632812 2.46875 17.585938 C 2.457031 17.574219 2.445312 17.566406 2.433594 17.554688 C 2.371094 17.492188 2.316406 17.425781 2.265625 17.355469 C 2.253906 17.335938 2.242188 17.3125 2.230469 17.292969 C 2.195312 17.238281 2.164062 17.179688 2.136719 17.121094 C 2.125 17.09375 2.113281 17.066406 2.101562 17.039062 C 2.078125 16.980469 2.0625 16.921875 2.046875 16.859375 C 2.039062 16.832031 2.03125 16.804688 2.027344 16.777344 C 2.007812 16.6875 2 16.59375 2 16.5 L 2 14.5 C 2 14.40625 2.011719 14.316406 2.027344 14.226562 Z M 2.027344 14.222656 "/>
<path style=" stroke:none;fill-rule:nonzero;fill:rgb(0%,0%,0%);fill-opacity:1;" d="M 23 22 L 24 22 L 24 24 L 23 24 Z M 23 22 "/>
<path style=" stroke:none;fill-rule:nonzero;fill:rgb(0%,0%,0%);fill-opacity:1;" d="M 4 18 L 24 18 L 24 21 L 4 21 Z M 4 18 "/>
<path style=" stroke:none;fill-rule:nonzero;fill:rgb(0%,0%,0%);fill-opacity:1;" d="M 2.5 9 C 3.328125 9 4 9.671875 4 10.5 L 4 13 L 13.5 13 L 13.5 5.5 C 13.5 4.671875 12.828125 4 12 4 L 4 4 C 3.171875 4 2.5 4.671875 2.5 5.5 Z M 2.5 9 "/>
<path style=" stroke:none;fill-rule:nonzero;fill:rgb(0%,0%,0%);fill-opacity:1;" d="M 14.5 13 L 24 13 L 24 10.5 C 24 9.671875 24.671875 9 25.5 9 L 25.5 5.5 C 25.5 4.671875 24.828125 4 24 4 L 16 4 C 15.171875 4 14.5 4.671875 14.5 5.5 Z M 14.5 13 "/>
<path style=" stroke:none;fill-rule:nonzero;fill:rgb(0%,0%,0%);fill-opacity:1;" d="M 25 16.5 L 25 14.5 C 25 14.222656 24.777344 14 24.5 14 L 14.5 14 L 14.5 17 L 24.5 17 C 24.777344 17 25 16.777344 25 16.5 Z M 25 16.5 "/>
<path style=" stroke:none;fill-rule:nonzero;fill:rgb(0%,0%,0%);fill-opacity:1;" d="M 28 10.5 C 28 10.222656 27.777344 10 27.5 10 L 25.5 10 C 25.222656 10 25 10.222656 25 10.5 L 25 13.085938 C 25.015625 13.089844 25.03125 13.101562 25.050781 13.105469 C 25.078125 13.117188 25.105469 13.132812 25.132812 13.144531 C 25.1875 13.167969 25.242188 13.199219 25.292969 13.230469 C 25.316406 13.246094 25.34375 13.261719 25.363281 13.277344 C 25.425781 13.320312 25.480469 13.367188 25.53125 13.414062 C 25.542969 13.425781 25.554688 13.433594 25.566406 13.445312 C 25.628906 13.507812 25.683594 13.574219 25.734375 13.644531 C 25.746094 13.664062 25.757812 13.6875 25.769531 13.707031 C 25.804688 13.761719 25.835938 13.820312 25.863281 13.875 C 25.875 13.90625 25.886719 13.933594 25.898438 13.960938 C 25.921875 14.019531 25.9375 14.078125 25.953125 14.140625 C 25.960938 14.167969 25.96875 14.195312 25.972656 14.222656 C 25.992188 14.3125 26 14.40625 26 14.5 L 26 16.5 C 26 16.59375 25.988281 16.683594 25.972656 16.773438 C 25.96875 16.804688 25.957031 16.828125 25.953125 16.859375 C 25.9375 16.917969 25.917969 16.980469 25.894531 17.039062 C 25.886719 17.066406 25.875 17.09375 25.863281 17.121094 C 25.835938 17.179688 25.804688 17.234375 25.769531 17.289062 C 25.757812 17.3125 25.746094 17.332031 25.730469 17.351562 C 25.683594 17.425781 25.625 17.492188 25.566406 17.554688 C 25.554688 17.5625 25.542969 17.574219 25.53125 17.582031 C 25.476562 17.632812 25.421875 17.679688 25.363281 17.722656 C 25.339844 17.738281 25.3125 17.753906 25.289062 17.765625 C 25.238281 17.800781 25.183594 17.828125 25.128906 17.855469 C 25.101562 17.867188 25.078125 17.878906 25.046875 17.890625 C 25.03125 17.898438 25.015625 17.90625 25 17.914062 L 25 21 L 28 21 Z M 28 10.5 "/>
<path style=" stroke:none;fill-rule:nonzero;fill:rgb(0%,0%,0%);fill-opacity:1;" d="M 3.5 17 L 13.5 17 L 13.5 14 L 3.5 14 C 3.222656 14 3 14.222656 3 14.5 L 3 16.5 C 3 16.777344 3.222656 17 3.5 17 Z M 3.5 17 "/>
<path style=" stroke:none;fill-rule:nonzero;fill:rgb(0%,0%,0%);fill-opacity:1;" d="M 4 22 L 5 22 L 5 23.5 L 4 23.5 Z M 4 22 "/>
</g>
</svg>
