<?xml version="1.0" encoding="UTF-8"?>
<svg xmlns="http://www.w3.org/2000/svg" xmlns:xlink="http://www.w3.org/1999/xlink" width="28pt" height="28pt" viewBox="0 0 28 28" version="1.1">
<g id="surface1">
<path style=" stroke:none;fill-rule:nonzero;fill:rgb(0%,0%,0%);fill-opacity:1;" d="M 22.644531 11.597656 L 26.367188 9.449219 L 25.546875 8.03125 L 21.824219 10.179688 L 14.691406 8.292969 L 14.691406 3.171875 L 17.96875 3.171875 L 17.96875 1.53125 L 6.496094 1.53125 L 6.496094 3.171875 L 9.773438 3.171875 L 9.773438 6.976562 L 5.417969 5.8125 L 4.585938 8.917969 L 1.644531 8.128906 L -0.0546875 14.464844 L 2.890625 15.25 L 2.023438 18.480469 L 18.433594 22.847656 L 20.582031 26.566406 L 22 25.746094 L 19.851562 22.027344 L 20.214844 20.667969 L 24.113281 25.101562 L 27.933594 11.066406 L 22.28125 12.960938 Z M 13.054688 3.171875 L 13.054688 11.507812 C 12.796875 11.417969 12.519531 11.367188 12.234375 11.367188 C 11.945312 11.367188 11.671875 11.417969 11.414062 11.507812 L 11.414062 3.171875 Z M 13.054688 13.824219 C 13.054688 14.277344 12.683594 14.644531 12.234375 14.644531 C 11.78125 14.644531 11.414062 14.277344 11.414062 13.824219 C 11.414062 13.375 11.78125 13.003906 12.234375 13.003906 C 12.683594 13.003906 13.054688 13.375 13.054688 13.824219 Z M 1.953125 13.304688 L 2.804688 10.136719 L 4.164062 10.5 L 3.3125 13.667969 Z M 6.578125 7.820312 L 9.773438 8.675781 L 9.773438 13.824219 C 9.773438 15.179688 10.878906 16.285156 12.234375 16.285156 C 13.589844 16.285156 14.691406 15.179688 14.691406 13.824219 L 14.691406 9.988281 L 20.9375 11.640625 L 18.394531 21.140625 L 4.035156 17.316406 Z M 25.546875 13.59375 L 23.332031 21.726562 L 20.726562 18.761719 L 21.773438 14.863281 Z M 25.546875 13.59375 "/>
</g>
</svg>
