<?xml version="1.0" encoding="UTF-8"?>
<svg xmlns="http://www.w3.org/2000/svg" xmlns:xlink="http://www.w3.org/1999/xlink" width="28pt" height="28pt" viewBox="0 0 28 28" version="1.1">
<g id="surface1">
<path style=" stroke:none;fill-rule:nonzero;fill:rgb(0%,0%,0%);fill-opacity:1;" d="M 27.507812 0.84375 L 0.492188 0.84375 C 0.222656 0.84375 0 1.0625 0 1.335938 C 0 1.609375 0.222656 1.832031 0.492188 1.832031 L 3.53125 1.832031 L 3.53125 3.925781 L 3.273438 3.925781 C 2.09375 3.925781 1.132812 4.886719 1.132812 6.066406 L 1.132812 9.507812 C 1.132812 9.78125 1.355469 10.003906 1.625 10.003906 L 1.878906 10.003906 C 1.921875 10.5 2.128906 10.984375 2.507812 11.363281 L 3.488281 12.34375 C 3.507812 12.480469 3.554688 12.589844 3.605469 12.675781 L 7.539062 26.796875 C 7.601562 27.015625 7.800781 27.15625 8.015625 27.15625 C 8.058594 27.15625 8.105469 27.152344 8.148438 27.140625 C 8.414062 27.066406 8.566406 26.792969 8.492188 26.53125 L 4.726562 13.023438 C 5.34375 12.863281 6.027344 12.351562 6.511719 11.867188 C 6.957031 11.421875 7.316406 10.929688 7.523438 10.484375 C 7.558594 10.40625 7.585938 10.335938 7.609375 10.269531 L 9.5625 11.351562 C 9.636719 11.394531 9.71875 11.414062 9.800781 11.414062 C 9.976562 11.414062 10.144531 11.324219 10.234375 11.160156 C 10.367188 10.921875 10.28125 10.621094 10.042969 10.488281 L 7.402344 9.023438 C 7.308594 8.945312 7.171875 8.875 6.984375 8.847656 L 6.753906 8.617188 C 6.855469 8.523438 6.917969 8.394531 6.917969 8.246094 L 6.917969 6.066406 C 6.917969 4.886719 5.957031 3.925781 4.777344 3.925781 L 4.519531 3.925781 L 4.519531 1.832031 L 12.597656 1.832031 L 12.597656 3.925781 L 12.34375 3.925781 C 11.160156 3.925781 10.199219 4.886719 10.199219 6.066406 L 10.199219 8.25 C 10.199219 8.523438 10.421875 8.742188 10.695312 8.742188 L 10.796875 8.742188 C 10.589844 9.230469 10.570312 9.773438 10.738281 10.277344 L 11.179688 11.59375 C 11.125 11.761719 11.125 11.90625 11.144531 12.019531 L 10.523438 26.640625 C 10.511719 26.914062 10.726562 27.144531 10.996094 27.15625 C 11.003906 27.15625 11.011719 27.15625 11.019531 27.15625 C 11.28125 27.15625 11.5 26.949219 11.511719 26.683594 L 12.101562 12.777344 C 12.222656 12.792969 12.355469 12.804688 12.503906 12.804688 C 12.972656 12.804688 13.539062 12.703125 14.09375 12.515625 C 14.695312 12.316406 15.234375 12.035156 15.617188 11.726562 C 15.675781 11.679688 15.730469 11.632812 15.777344 11.585938 L 20.761719 19.175781 L 18.082031 26.492188 C 17.988281 26.75 18.121094 27.035156 18.375 27.128906 C 18.433594 27.148438 18.492188 27.15625 18.546875 27.15625 C 18.75 27.15625 18.9375 27.035156 19.011719 26.832031 L 21.4375 20.203125 L 25.859375 26.933594 C 25.953125 27.078125 26.113281 27.15625 26.273438 27.15625 C 26.367188 27.15625 26.460938 27.132812 26.542969 27.078125 C 26.773438 26.925781 26.835938 26.621094 26.6875 26.390625 L 21.863281 19.046875 L 24.183594 12.707031 C 24.246094 12.617188 24.296875 12.496094 24.320312 12.34375 L 25.300781 11.363281 C 25.667969 10.996094 25.886719 10.515625 25.929688 10.003906 L 26.183594 10.003906 C 26.457031 10.003906 26.675781 9.78125 26.675781 9.507812 L 26.675781 6.066406 C 26.675781 4.886719 25.714844 3.925781 24.535156 3.925781 L 24.277344 3.925781 L 24.277344 1.832031 L 27.507812 1.832031 C 27.777344 1.832031 28 1.609375 28 1.335938 C 28 1.0625 27.777344 0.84375 27.507812 0.84375 Z M 3.207031 8.984375 L 3.625 8.566406 C 4.089844 8.101562 4.84375 8.101562 5.304688 8.566406 L 5.871094 9.128906 C 5.4375 9.363281 5.011719 9.707031 4.679688 10.039062 C 4.300781 10.421875 3.984375 10.835938 3.769531 11.226562 L 3.207031 10.664062 C 2.746094 10.199219 2.746094 9.445312 3.207031 8.984375 Z M 5.8125 11.171875 C 5.269531 11.710938 4.753906 11.996094 4.480469 12.066406 C 4.546875 11.8125 4.816406 11.304688 5.378906 10.738281 C 5.921875 10.195312 6.4375 9.910156 6.710938 9.839844 C 6.644531 10.097656 6.375 10.605469 5.8125 11.171875 Z M 5.929688 6.066406 L 5.929688 7.753906 L 5.878906 7.753906 C 5.027344 7.019531 3.734375 7.058594 2.925781 7.867188 L 2.507812 8.285156 C 2.351562 8.445312 2.21875 8.621094 2.121094 8.8125 L 2.121094 6.066406 C 2.121094 5.429688 2.636719 4.914062 3.273438 4.914062 L 4.777344 4.914062 C 5.410156 4.914062 5.929688 5.429688 5.929688 6.066406 Z M 11.1875 6.066406 C 11.1875 5.429688 11.707031 4.914062 12.34375 4.914062 L 13.84375 4.914062 C 14.480469 4.914062 14.996094 5.429688 14.996094 6.066406 L 14.996094 7.753906 L 14.832031 7.753906 C 14.816406 7.753906 14.804688 7.753906 14.789062 7.753906 C 14.652344 7.636719 14.5 7.535156 14.332031 7.449219 C 13.8125 7.191406 13.222656 7.152344 12.667969 7.335938 L 12.113281 7.523438 C 11.9375 7.582031 11.769531 7.660156 11.621094 7.757812 C 11.601562 7.757812 11.582031 7.753906 11.558594 7.753906 L 11.1875 7.753906 Z M 11.929688 10.71875 L 11.675781 9.964844 C 11.574219 9.664062 11.597656 9.339844 11.738281 9.058594 C 11.878906 8.773438 12.125 8.5625 12.425781 8.460938 L 12.984375 8.273438 C 13.285156 8.171875 13.609375 8.195312 13.890625 8.335938 C 14.175781 8.476562 14.386719 8.722656 14.488281 9.023438 L 14.742188 9.777344 C 14.296875 9.792969 13.78125 9.890625 13.273438 10.0625 C 12.761719 10.234375 12.292969 10.464844 11.929688 10.71875 Z M 13.78125 11.578125 C 13.324219 11.730469 12.871094 11.816406 12.503906 11.816406 C 12.367188 11.816406 12.261719 11.804688 12.191406 11.789062 C 12.355469 11.601562 12.792969 11.265625 13.585938 11 C 14.042969 10.847656 14.5 10.761719 14.863281 10.761719 C 15.003906 10.761719 15.105469 10.773438 15.175781 10.789062 C 15.011719 10.976562 14.574219 11.3125 13.78125 11.578125 Z M 22.429688 10.738281 C 22.992188 11.304688 23.261719 11.8125 23.328125 12.066406 C 23.054688 11.996094 22.539062 11.710938 21.996094 11.171875 C 21.433594 10.605469 21.164062 10.097656 21.097656 9.839844 C 21.371094 9.910156 21.886719 10.195312 22.429688 10.738281 Z M 24.601562 10.664062 L 24.039062 11.226562 C 23.828125 10.835938 23.511719 10.421875 23.128906 10.039062 C 22.796875 9.707031 22.371094 9.363281 21.941406 9.128906 L 22.503906 8.566406 C 22.96875 8.101562 23.722656 8.101562 24.183594 8.566406 L 24.601562 8.984375 C 24.824219 9.207031 24.949219 9.507812 24.949219 9.824219 C 24.949219 10.140625 24.824219 10.441406 24.601562 10.664062 Z M 25.6875 6.066406 L 25.6875 8.8125 C 25.585938 8.621094 25.457031 8.441406 25.300781 8.285156 L 24.882812 7.867188 C 24.074219 7.058594 22.785156 7.019531 21.929688 7.753906 L 21.878906 7.753906 L 21.878906 6.066406 C 21.878906 5.429688 22.398438 4.914062 23.035156 4.914062 L 24.535156 4.914062 C 25.171875 4.914062 25.6875 5.429688 25.6875 6.066406 Z M 23.289062 3.925781 L 23.035156 3.925781 C 21.851562 3.925781 20.890625 4.886719 20.890625 6.066406 L 20.890625 8.246094 C 20.890625 8.394531 20.957031 8.523438 21.058594 8.617188 L 20.824219 8.847656 C 20.640625 8.875 20.503906 8.945312 20.40625 9.023438 L 17.769531 10.488281 C 17.53125 10.621094 17.445312 10.921875 17.578125 11.160156 C 17.667969 11.324219 17.835938 11.414062 18.007812 11.414062 C 18.089844 11.414062 18.171875 11.394531 18.25 11.351562 L 20.203125 10.269531 C 20.226562 10.335938 20.253906 10.40625 20.289062 10.484375 C 20.492188 10.929688 20.851562 11.421875 21.300781 11.867188 C 21.769531 12.335938 22.421875 12.832031 23.023438 13.007812 L 21.1875 18.019531 L 16.167969 10.375 C 16.117188 10.261719 16.027344 10.132812 15.867188 10.023438 L 15.4375 8.742188 L 15.492188 8.742188 C 15.765625 8.742188 15.984375 8.519531 15.984375 8.246094 L 15.984375 6.066406 C 15.984375 4.886719 15.023438 3.925781 13.84375 3.925781 L 13.585938 3.925781 L 13.585938 1.832031 L 23.289062 1.832031 Z M 23.289062 3.925781 "/>
</g>
</svg>
