<?xml version="1.0" encoding="UTF-8"?>
<svg xmlns="http://www.w3.org/2000/svg" xmlns:xlink="http://www.w3.org/1999/xlink" width="28pt" height="28pt" viewBox="0 0 28 28" version="1.1">
<g id="surface1">
<path style=" stroke:none;fill-rule:nonzero;fill:rgb(0%,0%,0%);fill-opacity:1;" d="M 27.535156 0.933594 C 27.792969 0.933594 28 0.722656 28 0.464844 C 28 0.207031 27.792969 0 27.535156 0 L 15.472656 0 C 15.011719 0 14.5625 0.171875 14.222656 0.480469 L 0.769531 12.632812 C 0.28125 13.074219 0 13.703125 0 14.363281 L 0 15.867188 C 0 16.125 0.207031 16.332031 0.464844 16.332031 C 0.722656 16.332031 0.933594 16.125 0.933594 15.867188 L 0.933594 14.363281 C 0.933594 13.964844 1.101562 13.589844 1.394531 13.324219 L 3.265625 11.632812 L 3.265625 22.398438 L 0.464844 22.398438 C 0.207031 22.398438 0 22.609375 0 22.867188 C 0 23.125 0.207031 23.332031 0.464844 23.332031 L 0.933594 23.332031 L 0.933594 27.066406 C 0.933594 27.582031 1.351562 28 1.867188 28 L 27.066406 28 C 27.582031 28 28 27.582031 28 27.066406 L 28 9.332031 C 28 8.816406 27.582031 8.402344 27.066406 8.398438 L 24.265625 8.398438 L 24.265625 0.933594 Z M 15.472656 0.933594 L 18.667969 0.933594 L 18.667969 8.398438 L 15.867188 8.398438 C 15.609375 8.398438 15.398438 8.609375 15.398438 8.867188 C 15.398438 9.125 15.609375 9.332031 15.867188 9.332031 L 16.332031 9.332031 L 16.332031 12.601562 C 16.332031 12.859375 16.125 13.066406 15.867188 13.066406 L 14.464844 13.066406 L 14.464844 1.515625 L 14.847656 1.175781 C 15.019531 1.019531 15.242188 0.933594 15.472656 0.933594 Z M 11.667969 13.066406 L 10.734375 13.066406 C 10.476562 13.066406 10.265625 13.277344 10.265625 13.535156 C 10.265625 13.792969 10.476562 14 10.734375 14 L 11.199219 14 L 11.199219 17.265625 C 11.199219 17.523438 10.992188 17.734375 10.734375 17.734375 L 9.332031 17.734375 L 9.332031 6.152344 L 13.535156 2.359375 L 13.535156 13.066406 Z M 4.199219 10.789062 L 8.398438 6.996094 L 8.398438 17.734375 L 5.601562 17.734375 C 5.34375 17.734375 5.132812 17.941406 5.132812 18.199219 C 5.132812 18.457031 5.34375 18.667969 5.601562 18.667969 L 6.066406 18.667969 L 6.066406 21.933594 C 6.066406 22.191406 5.859375 22.398438 5.601562 22.398438 L 4.199219 22.398438 Z M 18.667969 27.066406 C 18.152344 27.066406 17.734375 26.648438 17.734375 26.132812 L 17.734375 23.332031 L 22.398438 23.332031 L 22.398438 26.132812 C 22.398438 26.648438 21.980469 27.066406 21.464844 27.066406 Z M 19.121094 20.371094 C 18.128906 20.054688 17.242188 19.46875 16.558594 18.683594 C 15.933594 17.851562 15.546875 16.863281 15.445312 15.824219 C 16.4375 16.144531 17.324219 16.726562 18.007812 17.511719 C 18.632812 18.34375 19.015625 19.335938 19.121094 20.371094 Z M 19.3125 17.808594 C 19.292969 17.550781 19.292969 17.289062 19.316406 17.03125 C 19.472656 15.878906 19.941406 14.792969 20.675781 13.890625 C 21.226562 14.914062 21.480469 16.070312 21.417969 17.230469 C 21.402344 17.394531 21.375 17.5625 21.335938 17.722656 C 21.050781 18.253906 20.835938 18.816406 20.703125 19.402344 C 20.699219 19.40625 20.699219 19.414062 20.699219 19.421875 C 20.613281 19.785156 20.554688 20.160156 20.523438 20.535156 L 20.078125 20.535156 C 20.003906 19.585938 19.742188 18.660156 19.3125 17.808594 Z M 22.59375 17.511719 C 23.277344 16.726562 24.164062 16.144531 25.15625 15.828125 C 25.054688 16.863281 24.667969 17.851562 24.042969 18.683594 C 23.355469 19.46875 22.46875 20.050781 21.476562 20.371094 C 21.582031 19.332031 21.96875 18.34375 22.59375 17.511719 Z M 23.332031 21.464844 L 23.332031 22.398438 L 16.800781 22.398438 L 16.800781 21.464844 Z M 27.066406 27.066406 L 23.074219 27.066406 C 23.242188 26.785156 23.332031 26.460938 23.332031 26.132812 L 23.332031 23.332031 C 23.847656 23.332031 24.265625 22.914062 24.265625 22.398438 L 24.265625 21.464844 C 24.265625 20.953125 23.847656 20.535156 23.332031 20.535156 L 23.316406 20.535156 C 23.867188 20.195312 24.359375 19.769531 24.769531 19.273438 C 25.644531 18.089844 26.121094 16.660156 26.132812 15.1875 C 26.132812 15.050781 26.066406 14.921875 25.960938 14.832031 C 25.851562 14.746094 25.714844 14.710938 25.578125 14.738281 C 24.378906 15.011719 23.273438 15.582031 22.355469 16.402344 C 22.246094 15.128906 21.828125 13.902344 21.136719 12.824219 C 21.058594 12.710938 20.933594 12.636719 20.796875 12.625 C 20.660156 12.613281 20.523438 12.660156 20.425781 12.757812 C 19.40625 13.816406 18.714844 15.148438 18.4375 16.589844 C 17.492188 15.667969 16.308594 15.027344 15.023438 14.738281 C 14.886719 14.710938 14.746094 14.746094 14.640625 14.832031 C 14.53125 14.921875 14.46875 15.050781 14.464844 15.1875 C 14.476562 16.660156 14.957031 18.089844 15.832031 19.273438 C 16.242188 19.769531 16.734375 20.195312 17.285156 20.535156 L 16.800781 20.535156 C 16.285156 20.535156 15.867188 20.953125 15.867188 21.464844 L 15.867188 22.398438 C 15.867188 22.914062 16.285156 23.332031 16.800781 23.332031 L 16.800781 26.132812 C 16.800781 26.460938 16.890625 26.785156 17.058594 27.066406 L 1.867188 27.066406 L 1.867188 23.332031 L 5.601562 23.332031 C 6.371094 23.332031 7 22.707031 7 21.933594 L 7 18.667969 L 10.734375 18.667969 C 11.507812 18.664062 12.132812 18.039062 12.132812 17.265625 L 12.132812 14 L 15.867188 14 C 16.640625 14 17.265625 13.371094 17.265625 12.601562 L 17.265625 9.332031 L 27.066406 9.332031 Z M 23.332031 8.398438 L 19.601562 8.398438 L 19.601562 0.933594 L 23.332031 0.933594 Z M 23.332031 8.398438 "/>
<path style=" stroke:none;fill-rule:nonzero;fill:rgb(0%,0%,0%);fill-opacity:1;" d="M 21 25.667969 L 19.132812 25.667969 C 18.875 25.667969 18.667969 25.875 18.667969 26.132812 C 18.667969 26.390625 18.875 26.601562 19.132812 26.601562 L 21 26.601562 C 21.257812 26.601562 21.464844 26.390625 21.464844 26.132812 C 21.464844 25.875 21.257812 25.667969 21 25.667969 Z M 21 25.667969 "/>
</g>
</svg>
