<?xml version="1.0" encoding="UTF-8"?>
<svg xmlns="http://www.w3.org/2000/svg" xmlns:xlink="http://www.w3.org/1999/xlink" width="28pt" height="28pt" viewBox="0 0 28 28" version="1.1">
<g id="surface1">
<path style=" stroke:none;fill-rule:nonzero;fill:rgb(0%,0%,0%);fill-opacity:1;" d="M 23.253906 5.359375 L 23.253906 7.929688 C 23.253906 8.007812 23.191406 8.066406 23.117188 8.066406 L 22.78125 8.066406 L 22.78125 0.949219 L 27.527344 0.949219 C 27.789062 0.949219 28 0.738281 28 0.472656 C 28 0.210938 27.789062 0 27.527344 0 L 22.304688 0 C 22.285156 0 22.265625 0.0078125 22.246094 0.0117188 C 22.210938 0.015625 22.179688 0.0195312 22.144531 0.03125 C 22.113281 0.0429688 22.089844 0.0585938 22.0625 0.078125 C 22.042969 0.0898438 22.019531 0.09375 22.003906 0.109375 L 1.824219 16.699219 C 1.621094 16.867188 1.589844 17.167969 1.757812 17.367188 C 1.851562 17.484375 1.988281 17.542969 2.125 17.542969 C 2.230469 17.542969 2.335938 17.507812 2.425781 17.433594 L 3.320312 16.695312 L 3.320312 23.253906 L 1.085938 23.253906 C 0.488281 23.253906 0 23.742188 0 24.339844 L 0 28 L 28 28 L 28 4.269531 L 24.339844 4.269531 C 23.742188 4.269531 23.253906 4.757812 23.253906 5.359375 Z M 19.59375 8.066406 C 18.996094 8.066406 18.507812 8.554688 18.507812 9.152344 L 18.507812 11.863281 L 18.035156 11.863281 L 18.035156 4.601562 L 21.832031 1.480469 L 21.832031 8.066406 Z M 15.324219 11.863281 C 14.726562 11.863281 14.238281 12.351562 14.238281 12.949219 L 14.238281 15.523438 C 14.238281 15.597656 14.175781 15.660156 14.101562 15.660156 L 13.761719 15.660156 L 13.761719 8.113281 L 17.085938 5.382812 L 17.085938 11.863281 Z M 10.578125 15.660156 C 9.980469 15.660156 9.492188 16.148438 9.492188 16.746094 L 9.492188 19.320312 C 9.492188 19.394531 9.429688 19.457031 9.355469 19.457031 L 9.015625 19.457031 L 9.015625 12.015625 L 12.8125 8.894531 L 12.8125 15.660156 Z M 4.269531 15.917969 L 8.066406 12.796875 L 8.066406 19.457031 L 5.832031 19.457031 C 5.234375 19.457031 4.746094 19.945312 4.746094 20.542969 L 4.746094 23.117188 C 4.746094 23.191406 4.683594 23.253906 4.609375 23.253906 L 4.269531 23.253906 Z M 27.050781 27.050781 L 0.949219 27.050781 L 0.949219 24.339844 C 0.949219 24.265625 1.011719 24.203125 1.085938 24.203125 L 4.609375 24.203125 C 5.207031 24.203125 5.695312 23.714844 5.695312 23.117188 L 5.695312 20.542969 C 5.695312 20.46875 5.757812 20.40625 5.832031 20.40625 L 9.355469 20.40625 C 9.953125 20.40625 10.441406 19.917969 10.441406 19.320312 L 10.441406 16.746094 C 10.441406 16.671875 10.503906 16.609375 10.578125 16.609375 L 14.101562 16.609375 C 14.699219 16.609375 15.1875 16.121094 15.1875 15.523438 L 15.1875 12.949219 C 15.1875 12.875 15.25 12.8125 15.324219 12.8125 L 19.457031 12.8125 L 19.457031 9.152344 C 19.457031 9.078125 19.519531 9.015625 19.59375 9.015625 L 23.117188 9.015625 C 23.714844 9.015625 24.203125 8.53125 24.203125 7.929688 L 24.203125 5.359375 C 24.203125 5.28125 24.265625 5.21875 24.339844 5.21875 L 27.050781 5.21875 Z M 27.050781 27.050781 "/>
</g>
</svg>
