<?xml version="1.0" encoding="UTF-8"?>
<svg xmlns="http://www.w3.org/2000/svg" xmlns:xlink="http://www.w3.org/1999/xlink" width="28pt" height="28pt" viewBox="0 0 28 28" version="1.1">
<g id="surface1">
<path style=" stroke:none;fill-rule:nonzero;fill:rgb(0%,0%,0%);fill-opacity:1;" d="M 14 3.28125 C 10.832031 3.28125 8.257812 5.855469 8.257812 9.023438 C 8.257812 10.988281 9.25 12.796875 10.910156 13.863281 C 12.605469 14.949219 14.6875 15.0625 16.621094 14.171875 C 17.03125 13.984375 17.210938 13.496094 17.023438 13.085938 C 16.832031 12.671875 16.347656 12.492188 15.933594 12.683594 C 14.519531 13.332031 13.011719 13.257812 11.792969 12.480469 C 10.605469 11.71875 9.898438 10.425781 9.898438 9.023438 C 9.898438 6.761719 11.738281 4.921875 14 4.921875 C 16.261719 4.921875 18.101562 6.761719 18.101562 9.023438 C 18.101562 9.476562 17.734375 9.84375 17.28125 9.84375 C 16.867188 9.84375 16.480469 9.53125 16.460938 9.035156 C 16.460938 9.03125 16.460938 9.027344 16.460938 9.023438 C 16.460938 7.667969 15.355469 6.5625 14 6.5625 C 12.644531 6.5625 11.539062 7.667969 11.539062 9.023438 C 11.539062 10.378906 12.644531 11.484375 14 11.484375 C 14.628906 11.484375 15.203125 11.246094 15.640625 10.855469 C 16.078125 11.246094 16.652344 11.484375 17.28125 11.484375 C 18.636719 11.484375 19.742188 10.378906 19.742188 9.023438 C 19.742188 5.855469 17.167969 3.28125 14 3.28125 Z M 14.808594 9.15625 C 14.746094 9.542969 14.40625 9.84375 14 9.84375 C 13.546875 9.84375 13.179688 9.476562 13.179688 9.023438 C 13.179688 8.570312 13.546875 8.203125 14 8.203125 C 14.421875 8.203125 14.769531 8.519531 14.816406 8.929688 C 14.800781 9.003906 14.800781 9.078125 14.808594 9.15625 Z M 14.808594 9.15625 "/>
<path style=" stroke:none;fill-rule:nonzero;fill:rgb(0%,0%,0%);fill-opacity:1;" d="M 26.304688 10.773438 C 26.304688 10.558594 26.21875 10.347656 26.0625 10.195312 L 23.023438 7.152344 L 23.023438 0.820312 C 23.023438 0.367188 22.65625 0 22.203125 0 L 5.796875 0 C 5.34375 0 4.976562 0.367188 4.976562 0.820312 L 4.976562 7.152344 L 1.9375 10.195312 C 1.933594 10.195312 1.929688 10.199219 1.925781 10.203125 C 1.773438 10.359375 1.695312 10.570312 1.695312 10.773438 L 1.695312 25.539062 C 1.695312 26.898438 2.800781 28 4.15625 28 L 23.84375 28 C 25.203125 28 26.304688 26.894531 26.304688 25.539062 Z M 23.023438 9.472656 L 24.324219 10.773438 L 23.023438 12.074219 Z M 6.617188 7.492188 L 6.617188 1.640625 L 21.382812 1.640625 L 21.382812 13.714844 L 16.941406 18.15625 L 11.058594 18.15625 L 6.617188 13.714844 Z M 4.976562 9.472656 L 4.976562 12.074219 L 3.675781 10.773438 Z M 3.335938 25.199219 L 3.335938 12.753906 L 9.558594 18.976562 Z M 4.496094 26.359375 L 11.058594 19.796875 L 16.941406 19.796875 L 23.503906 26.359375 Z M 24.664062 25.199219 L 18.441406 18.976562 L 24.664062 12.753906 Z M 24.664062 25.199219 "/>
</g>
</svg>
