<?xml version="1.0" encoding="UTF-8"?>
<svg xmlns="http://www.w3.org/2000/svg" xmlns:xlink="http://www.w3.org/1999/xlink" width="28pt" height="28pt" viewBox="0 0 28 28" version="1.1">
<g id="surface1">
<path style=" stroke:none;fill-rule:nonzero;fill:rgb(0%,0%,0%);fill-opacity:1;" d="M 6.539062 14.613281 L 5.359375 14.613281 C 4.609375 14.613281 4 14.003906 4 13.261719 C 4 13.035156 3.816406 12.851562 3.589844 12.851562 C 3.363281 12.851562 3.179688 13.035156 3.179688 13.261719 C 3.179688 14.457031 4.15625 15.433594 5.359375 15.433594 L 6.539062 15.433594 C 6.765625 15.433594 6.949219 15.25 6.949219 15.023438 C 6.949219 14.796875 6.765625 14.613281 6.539062 14.613281 Z M 6.539062 14.613281 "/>
<path style=" stroke:none;fill-rule:nonzero;fill:rgb(0%,0%,0%);fill-opacity:1;" d="M 10.390625 17.648438 L 6.886719 17.648438 C 5.730469 17.648438 4.789062 18.585938 4.789062 19.738281 C 4.789062 19.964844 4.972656 20.148438 5.199219 20.148438 C 5.425781 20.148438 5.609375 19.964844 5.609375 19.738281 C 5.609375 19.039062 6.183594 18.46875 6.886719 18.46875 L 10.390625 18.46875 C 10.617188 18.46875 10.800781 18.285156 10.800781 18.058594 C 10.800781 17.832031 10.617188 17.648438 10.390625 17.648438 Z M 10.390625 17.648438 "/>
<path style=" stroke:none;fill-rule:nonzero;fill:rgb(0%,0%,0%);fill-opacity:1;" d="M 13.734375 17.648438 L 12.03125 17.648438 C 11.804688 17.648438 11.621094 17.832031 11.621094 18.058594 C 11.621094 18.285156 11.804688 18.46875 12.03125 18.46875 L 13.734375 18.46875 C 13.960938 18.46875 14.144531 18.285156 14.144531 18.058594 C 14.144531 17.832031 13.960938 17.648438 13.734375 17.648438 Z M 13.734375 17.648438 "/>
<path style=" stroke:none;fill-rule:nonzero;fill:rgb(0%,0%,0%);fill-opacity:1;" d="M 10.847656 9.679688 C 10.621094 9.679688 10.4375 9.863281 10.4375 10.089844 C 10.4375 11.261719 9.480469 12.214844 8.300781 12.214844 C 8.074219 12.214844 7.890625 12.398438 7.890625 12.625 C 7.890625 12.851562 8.074219 13.035156 8.300781 13.035156 C 9.933594 13.035156 11.257812 11.714844 11.257812 10.089844 C 11.257812 9.863281 11.074219 9.679688 10.847656 9.679688 Z M 10.847656 9.679688 "/>
<path style=" stroke:none;fill-rule:nonzero;fill:rgb(0%,0%,0%);fill-opacity:1;" d="M 10.09375 3.476562 C 9.113281 3.414062 8.265625 4.15625 8.199219 5.132812 C 8.1875 5.359375 8.355469 5.554688 8.582031 5.570312 C 8.59375 5.570312 8.601562 5.570312 8.609375 5.570312 C 8.824219 5.570312 9.003906 5.40625 9.019531 5.1875 C 9.054688 4.664062 9.511719 4.261719 10.039062 4.296875 C 10.265625 4.3125 10.460938 4.140625 10.476562 3.914062 C 10.492188 3.6875 10.320312 3.492188 10.09375 3.476562 Z M 10.09375 3.476562 "/>
<path style=" stroke:none;fill-rule:nonzero;fill:rgb(0%,0%,0%);fill-opacity:1;" d="M 8.714844 19.472656 C 8.488281 19.472656 8.304688 19.65625 8.304688 19.882812 C 8.304688 20.109375 8.488281 20.292969 8.714844 20.292969 C 9.390625 20.292969 9.941406 20.84375 9.941406 21.515625 C 9.941406 22.1875 9.390625 22.734375 8.714844 22.734375 C 8.488281 22.734375 8.304688 22.917969 8.304688 23.144531 C 8.304688 23.371094 8.488281 23.554688 8.714844 23.554688 C 9.84375 23.554688 10.761719 22.640625 10.761719 21.515625 C 10.761719 20.390625 9.84375 19.472656 8.714844 19.472656 Z M 8.714844 19.472656 "/>
<path style=" stroke:none;fill-rule:nonzero;fill:rgb(0%,0%,0%);fill-opacity:1;" d="M 12.910156 9.816406 C 12.683594 9.816406 12.5 10 12.5 10.226562 C 12.5 10.453125 12.683594 10.636719 12.910156 10.636719 C 13.457031 10.636719 13.898438 11.074219 13.898438 11.617188 C 13.898438 12.15625 13.457031 12.597656 12.910156 12.597656 C 12.683594 12.597656 12.5 12.78125 12.5 13.007812 C 12.5 13.234375 12.683594 13.417969 12.910156 13.417969 C 13.90625 13.417969 14.71875 12.609375 14.71875 11.617188 C 14.71875 10.625 13.90625 9.816406 12.910156 9.816406 Z M 12.910156 9.816406 "/>
<path style=" stroke:none;fill-rule:nonzero;fill:rgb(0%,0%,0%);fill-opacity:1;" d="M 5.6875 7.207031 C 5.460938 7.207031 5.277344 7.390625 5.277344 7.617188 C 5.277344 7.84375 5.460938 8.027344 5.6875 8.027344 C 6.621094 8.027344 7.382812 8.785156 7.382812 9.714844 C 7.382812 10.640625 6.621094 11.398438 5.6875 11.398438 C 5.460938 11.398438 5.277344 11.582031 5.277344 11.808594 C 5.277344 12.035156 5.460938 12.21875 5.6875 12.21875 C 7.074219 12.21875 8.203125 11.09375 8.203125 9.714844 C 8.203125 8.332031 7.074219 7.207031 5.6875 7.207031 Z M 5.6875 7.207031 "/>
<path style=" stroke:none;fill-rule:nonzero;fill:rgb(0%,0%,0%);fill-opacity:1;" d="M 24.96875 7.191406 C 24.199219 7.191406 23.570312 7.816406 23.570312 8.582031 C 23.570312 9.351562 24.199219 9.976562 24.96875 9.976562 C 25.738281 9.976562 26.367188 9.351562 26.367188 8.582031 C 26.367188 7.816406 25.738281 7.191406 24.96875 7.191406 Z M 24.96875 9.15625 C 24.648438 9.15625 24.390625 8.898438 24.390625 8.582031 C 24.390625 8.265625 24.648438 8.011719 24.96875 8.011719 C 25.285156 8.011719 25.546875 8.265625 25.546875 8.582031 C 25.546875 8.898438 25.285156 9.15625 24.96875 9.15625 Z M 24.96875 9.15625 "/>
<path style=" stroke:none;fill-rule:nonzero;fill:rgb(0%,0%,0%);fill-opacity:1;" d="M 26.339844 17.6875 C 25.566406 17.6875 24.941406 18.3125 24.941406 19.082031 C 24.941406 19.847656 25.566406 20.472656 26.339844 20.472656 C 27.109375 20.472656 27.738281 19.847656 27.738281 19.082031 C 27.738281 18.3125 27.109375 17.6875 26.339844 17.6875 Z M 26.339844 19.652344 C 26.019531 19.652344 25.761719 19.394531 25.761719 19.082031 C 25.761719 18.765625 26.019531 18.507812 26.339844 18.507812 C 26.65625 18.507812 26.917969 18.765625 26.917969 19.082031 C 26.917969 19.394531 26.65625 19.652344 26.339844 19.652344 Z M 26.339844 19.652344 "/>
<path style=" stroke:none;fill-rule:nonzero;fill:rgb(0%,0%,0%);fill-opacity:1;" d="M 25.476562 12.769531 C 25.242188 12.769531 25.019531 12.832031 24.824219 12.933594 L 24.023438 12.136719 C 23.863281 11.980469 23.601562 11.980469 23.445312 12.140625 C 23.285156 12.300781 23.285156 12.558594 23.445312 12.71875 L 24.242188 13.511719 C 24.140625 13.707031 24.078125 13.929688 24.078125 14.164062 C 24.078125 14.933594 24.707031 15.558594 25.476562 15.558594 C 26.25 15.558594 26.875 14.933594 26.875 14.164062 C 26.875 13.394531 26.25 12.769531 25.476562 12.769531 Z M 25.476562 14.738281 C 25.160156 14.738281 24.898438 14.480469 24.898438 14.164062 C 24.898438 13.847656 25.160156 13.589844 25.476562 13.589844 C 25.796875 13.589844 26.054688 13.847656 26.054688 14.164062 C 26.054688 14.480469 25.796875 14.738281 25.476562 14.738281 Z M 25.476562 14.738281 "/>
<path style=" stroke:none;fill-rule:nonzero;fill:rgb(0%,0%,0%);fill-opacity:1;" d="M 24.554688 21.96875 C 23.78125 21.96875 23.15625 22.59375 23.15625 23.363281 C 23.15625 24.128906 23.78125 24.753906 24.554688 24.753906 C 25.324219 24.753906 25.953125 24.128906 25.953125 23.363281 C 25.953125 22.59375 25.324219 21.96875 24.554688 21.96875 Z M 24.554688 23.933594 C 24.234375 23.933594 23.976562 23.675781 23.976562 23.363281 C 23.976562 23.046875 24.234375 22.789062 24.554688 22.789062 C 24.871094 22.789062 25.132812 23.046875 25.132812 23.363281 C 25.132812 23.675781 24.871094 23.933594 24.554688 23.933594 Z M 24.554688 23.933594 "/>
<path style=" stroke:none;fill-rule:nonzero;fill:rgb(0%,0%,0%);fill-opacity:1;" d="M 19.753906 7.707031 C 20.015625 7.707031 20.328125 7.578125 20.511719 7.394531 L 22.097656 5.820312 C 22.253906 5.882812 22.429688 5.917969 22.609375 5.917969 C 23.378906 5.917969 24.007812 5.292969 24.007812 4.523438 C 24.007812 3.753906 23.378906 3.128906 22.609375 3.128906 C 21.839844 3.128906 21.210938 3.753906 21.210938 4.523438 C 21.210938 4.8125 21.300781 5.082031 21.453125 5.304688 L 19.933594 6.8125 C 19.902344 6.84375 19.800781 6.886719 19.753906 6.886719 L 16.371094 6.886719 L 16.371094 4.171875 L 17.320312 4.171875 C 17.496094 4.742188 18.03125 5.15625 18.65625 5.15625 C 19.429688 5.15625 20.054688 4.53125 20.054688 3.761719 C 20.054688 2.992188 19.429688 2.367188 18.65625 2.367188 C 18.03125 2.367188 17.496094 2.785156 17.320312 3.351562 L 16.371094 3.351562 L 16.371094 3.289062 C 16.371094 1.476562 14.886719 0 13.066406 0 C 11.761719 0 10.59375 0.757812 10.0625 1.921875 C 9.980469 1.914062 9.898438 1.910156 9.816406 1.910156 C 7.921875 1.910156 6.375 3.421875 6.332031 5.296875 C 6.167969 5.273438 6.003906 5.261719 5.835938 5.261719 C 3.917969 5.261719 2.351562 6.820312 2.351562 8.734375 C 2.351562 9.152344 2.425781 9.558594 2.574219 9.945312 C 1.136719 10.796875 0.261719 12.316406 0.261719 14 C 0.261719 14.902344 0.519531 15.78125 1.007812 16.542969 C 1.410156 17.167969 1.949219 17.6875 2.585938 18.0625 C 2.433594 18.457031 2.351562 18.882812 2.351562 19.308594 C 2.351562 20.152344 2.660156 20.964844 3.222656 21.601562 C 3.371094 21.769531 3.628906 21.785156 3.800781 21.636719 C 3.96875 21.484375 3.984375 21.226562 3.835938 21.054688 C 3.410156 20.574219 3.171875 19.953125 3.171875 19.308594 C 3.171875 18.875 3.277344 18.460938 3.476562 18.078125 C 3.71875 17.621094 4.09375 17.238281 4.566406 16.980469 C 4.765625 16.871094 4.839844 16.625 4.730469 16.425781 C 4.621094 16.226562 4.375 16.152344 4.175781 16.257812 C 3.683594 16.523438 3.277344 16.894531 2.972656 17.335938 C 1.796875 16.632812 1.082031 15.382812 1.082031 14 C 1.082031 12.519531 1.902344 11.195312 3.226562 10.523438 C 3.226562 10.523438 3.992188 10.097656 5.007812 10.097656 C 5.234375 10.097656 5.417969 9.914062 5.417969 9.6875 C 5.417969 9.460938 5.234375 9.277344 5.007812 9.277344 C 4.414062 9.277344 3.84375 9.386719 3.316406 9.585938 C 3.222656 9.3125 3.171875 9.027344 3.171875 8.734375 C 3.171875 7.273438 4.367188 6.082031 5.835938 6.082031 C 6.113281 6.082031 6.386719 6.125 6.648438 6.210938 C 6.785156 6.253906 6.929688 6.222656 7.039062 6.132812 C 7.148438 6.039062 7.199219 5.898438 7.179688 5.761719 C 7.160156 5.632812 7.152344 5.503906 7.152344 5.378906 C 7.152344 3.917969 8.347656 2.730469 9.816406 2.730469 C 9.960938 2.730469 10.109375 2.742188 10.253906 2.769531 C 11.515625 2.976562 12.480469 4.070312 12.480469 5.378906 C 12.480469 5.605469 12.664062 5.789062 12.890625 5.789062 C 13.117188 5.789062 13.300781 5.605469 13.300781 5.378906 C 13.300781 3.84375 12.292969 2.539062 10.898438 2.082031 C 11.332031 1.3125 12.152344 0.820312 13.066406 0.820312 C 14.433594 0.820312 15.550781 1.929688 15.550781 3.289062 L 15.550781 3.335938 L 14.761719 3.335938 C 14.535156 3.335938 14.351562 3.519531 14.351562 3.746094 C 14.351562 3.972656 14.535156 4.15625 14.761719 4.15625 L 15.550781 4.15625 L 15.550781 6.886719 L 12.230469 6.886719 C 11.480469 6.886719 10.871094 6.28125 10.871094 5.535156 C 10.871094 5.308594 10.6875 5.125 10.460938 5.125 C 10.234375 5.125 10.050781 5.308594 10.050781 5.535156 C 10.050781 6.734375 11.027344 7.707031 12.230469 7.707031 L 15.550781 7.707031 L 15.550781 14.613281 L 8.894531 14.613281 C 8.667969 14.613281 8.484375 14.796875 8.484375 15.023438 C 8.484375 15.25 8.667969 15.433594 8.894531 15.433594 L 15.550781 15.433594 L 15.550781 21.0625 L 14.28125 21.0625 C 13.125 21.0625 12.183594 22.003906 12.183594 23.15625 C 12.183594 23.382812 12.367188 23.566406 12.59375 23.566406 C 12.820312 23.566406 13.003906 23.382812 13.003906 23.15625 C 13.003906 22.453125 13.578125 21.882812 14.28125 21.882812 L 15.550781 21.882812 L 15.550781 24.710938 C 15.550781 24.773438 15.546875 24.839844 15.539062 24.902344 L 14.761719 24.902344 C 14.535156 24.902344 14.351562 25.085938 14.351562 25.3125 C 14.351562 25.539062 14.535156 25.722656 14.761719 25.722656 L 15.332031 25.722656 C 14.941406 26.582031 14.070312 27.179688 13.066406 27.179688 C 12.160156 27.179688 11.339844 26.691406 10.90625 25.929688 C 11.398438 25.765625 11.855469 25.496094 12.242188 25.125 C 12.402344 24.96875 12.40625 24.707031 12.25 24.542969 C 12.09375 24.382812 11.832031 24.375 11.671875 24.535156 C 11.277344 24.910156 10.789062 25.15625 10.261719 25.242188 C 10.113281 25.269531 9.960938 25.28125 9.816406 25.28125 C 8.347656 25.28125 7.152344 24.09375 7.152344 22.632812 C 7.152344 22.59375 7.152344 22.554688 7.15625 22.519531 C 7.488281 22.382812 7.796875 22.199219 8.074219 21.96875 C 8.25 21.824219 8.273438 21.5625 8.128906 21.390625 C 7.980469 21.214844 7.726562 21.199219 7.550781 21.335938 C 6.726562 21.984375 5.929688 21.972656 5.613281 21.949219 C 5.386719 21.929688 5.1875 22.097656 5.167969 22.324219 C 5.152344 22.546875 5.320312 22.746094 5.542969 22.765625 C 5.804688 22.785156 6.074219 22.78125 6.332031 22.742188 C 6.390625 24.605469 7.929688 26.101562 9.816406 26.101562 C 9.898438 26.101562 9.984375 26.097656 10.066406 26.09375 C 10.601562 27.246094 11.769531 28 13.066406 28 C 14.886719 28 16.371094 26.523438 16.371094 24.710938 L 16.371094 23.804688 L 18.542969 23.804688 C 18.589844 23.804688 18.691406 23.847656 18.722656 23.875 L 19.699219 24.851562 C 19.566406 25.0625 19.492188 25.3125 19.492188 25.582031 C 19.492188 26.351562 20.117188 26.976562 20.890625 26.976562 C 21.660156 26.976562 22.285156 26.351562 22.285156 25.582031 C 22.285156 24.8125 21.660156 24.1875 20.890625 24.1875 C 20.6875 24.1875 20.492188 24.230469 20.320312 24.308594 L 19.300781 23.296875 C 19.117188 23.113281 18.804688 22.984375 18.542969 22.984375 L 16.371094 22.984375 L 16.371094 20.789062 L 19.933594 20.789062 C 20.109375 21.359375 20.644531 21.773438 21.269531 21.773438 C 22.042969 21.773438 22.667969 21.148438 22.667969 20.378906 C 22.667969 19.613281 22.042969 18.988281 21.269531 18.988281 C 20.644531 18.988281 20.109375 19.402344 19.933594 19.96875 L 16.371094 19.96875 L 16.371094 17.222656 L 20.636719 17.222656 C 20.8125 17.792969 21.34375 18.207031 21.972656 18.207031 C 22.742188 18.207031 23.371094 17.582031 23.371094 16.8125 C 23.371094 16.042969 22.742188 15.417969 21.972656 15.417969 C 21.34375 15.417969 20.8125 15.832031 20.636719 16.402344 L 16.371094 16.402344 L 16.371094 13.417969 L 17.386719 13.417969 C 17.5625 13.984375 18.09375 14.398438 18.722656 14.398438 C 19.492188 14.398438 20.121094 13.773438 20.121094 13.007812 C 20.121094 12.238281 19.492188 11.613281 18.722656 11.613281 C 18.09375 11.613281 17.5625 12.027344 17.386719 12.597656 L 16.371094 12.597656 L 16.371094 10.230469 L 20.839844 10.230469 C 20.882812 10.230469 20.984375 10.273438 21.015625 10.304688 L 21.859375 11.140625 C 21.9375 11.222656 22.042969 11.261719 22.148438 11.261719 C 22.253906 11.261719 22.359375 11.222656 22.4375 11.140625 C 22.597656 10.980469 22.597656 10.71875 22.4375 10.558594 L 21.59375 9.722656 C 21.410156 9.539062 21.097656 9.410156 20.839844 9.410156 L 16.371094 9.410156 L 16.371094 7.707031 Z M 22.609375 3.949219 C 22.929688 3.949219 23.1875 4.207031 23.1875 4.523438 C 23.1875 4.839844 22.929688 5.097656 22.609375 5.097656 C 22.292969 5.097656 22.03125 4.839844 22.03125 4.523438 C 22.03125 4.207031 22.292969 3.949219 22.609375 3.949219 Z M 18.65625 3.1875 C 18.976562 3.1875 19.234375 3.445312 19.234375 3.761719 C 19.234375 4.078125 18.976562 4.335938 18.65625 4.335938 C 18.339844 4.335938 18.078125 4.078125 18.078125 3.761719 C 18.078125 3.445312 18.339844 3.1875 18.65625 3.1875 Z M 20.890625 25.007812 C 21.207031 25.007812 21.464844 25.265625 21.464844 25.582031 C 21.464844 25.898438 21.207031 26.15625 20.890625 26.15625 C 20.570312 26.15625 20.3125 25.898438 20.3125 25.582031 C 20.3125 25.265625 20.570312 25.007812 20.890625 25.007812 Z M 21.269531 19.808594 C 21.589844 19.808594 21.847656 20.066406 21.847656 20.378906 C 21.847656 20.695312 21.589844 20.953125 21.269531 20.953125 C 20.953125 20.953125 20.695312 20.695312 20.695312 20.378906 C 20.695312 20.066406 20.953125 19.808594 21.269531 19.808594 Z M 21.972656 16.238281 C 22.289062 16.238281 22.550781 16.496094 22.550781 16.8125 C 22.550781 17.128906 22.289062 17.386719 21.972656 17.386719 C 21.652344 17.386719 21.394531 17.128906 21.394531 16.8125 C 21.394531 16.496094 21.652344 16.238281 21.972656 16.238281 Z M 18.722656 12.433594 C 19.039062 12.433594 19.300781 12.691406 19.300781 13.007812 C 19.300781 13.324219 19.039062 13.578125 18.722656 13.578125 C 18.402344 13.578125 18.144531 13.324219 18.144531 13.007812 C 18.144531 12.691406 18.402344 12.433594 18.722656 12.433594 Z M 18.722656 12.433594 "/>
</g>
</svg>
