<?xml version="1.0" encoding="UTF-8"?>
<svg xmlns="http://www.w3.org/2000/svg" xmlns:xlink="http://www.w3.org/1999/xlink" width="28pt" height="28pt" viewBox="0 0 28 28" version="1.1">
<g id="surface1">
<path style=" stroke:none;fill-rule:nonzero;fill:rgb(0%,0%,0%);fill-opacity:1;" d="M 18.308594 12.742188 L 12.125 9.355469 C 11.769531 9.164062 11.347656 9.167969 11 9.375 C 10.648438 9.582031 10.441406 9.949219 10.441406 10.355469 L 10.441406 17.066406 C 10.441406 17.46875 10.648438 17.832031 10.996094 18.039062 C 11.175781 18.148438 11.378906 18.203125 11.578125 18.203125 C 11.761719 18.203125 11.945312 18.15625 12.117188 18.066406 L 18.300781 14.738281 C 18.671875 14.542969 18.898438 14.160156 18.902344 13.742188 C 18.902344 13.324219 18.675781 12.941406 18.308594 12.742188 Z M 12.082031 16.222656 L 12.082031 11.203125 L 16.707031 13.734375 Z M 12.082031 16.222656 "/>
<path style=" stroke:none;fill-rule:nonzero;fill:rgb(0%,0%,0%);fill-opacity:1;" d="M 27.792969 8.394531 L 27.792969 8.382812 C 27.769531 8.15625 27.53125 6.152344 26.558594 5.132812 C 25.433594 3.933594 24.15625 3.789062 23.539062 3.71875 C 23.488281 3.714844 23.441406 3.707031 23.402344 3.703125 L 23.351562 3.695312 C 19.652344 3.429688 14.0625 3.390625 14.003906 3.390625 L 13.996094 3.390625 C 13.9375 3.390625 8.347656 3.429688 4.613281 3.695312 L 4.566406 3.703125 C 4.523438 3.707031 4.480469 3.710938 4.433594 3.71875 C 3.828125 3.789062 2.5625 3.933594 1.433594 5.175781 C 0.503906 6.183594 0.238281 8.148438 0.210938 8.367188 L 0.207031 8.394531 C 0.199219 8.488281 0 10.722656 0 12.964844 L 0 15.058594 C 0 17.300781 0.199219 19.53125 0.207031 19.625 L 0.207031 19.640625 C 0.230469 19.863281 0.46875 21.832031 1.4375 22.851562 C 2.496094 24.007812 3.835938 24.164062 4.554688 24.246094 C 4.667969 24.257812 4.769531 24.269531 4.835938 24.28125 L 4.898438 24.289062 C 7.035156 24.492188 13.738281 24.59375 14.023438 24.597656 L 14.039062 24.597656 C 14.09375 24.597656 19.683594 24.5625 23.386719 24.292969 L 23.433594 24.285156 C 23.480469 24.28125 23.535156 24.273438 23.59375 24.269531 C 24.195312 24.203125 25.453125 24.070312 26.566406 22.847656 C 27.496094 21.835938 27.761719 19.875 27.789062 19.65625 L 27.792969 19.625 C 27.800781 19.53125 28 17.300781 28 15.058594 L 28 12.964844 C 28 10.722656 27.800781 8.488281 27.792969 8.394531 Z M 26.359375 15.058594 C 26.359375 17.132812 26.179688 19.269531 26.160156 19.464844 C 26.089844 20.007812 25.808594 21.246094 25.355469 21.738281 C 24.660156 22.507812 23.941406 22.582031 23.417969 22.636719 C 23.355469 22.644531 23.296875 22.652344 23.246094 22.65625 C 19.664062 22.914062 14.285156 22.957031 14.039062 22.957031 C 13.757812 22.953125 7.15625 22.851562 5.085938 22.660156 C 4.976562 22.640625 4.863281 22.628906 4.742188 22.617188 C 4.128906 22.546875 3.289062 22.449219 2.644531 21.738281 L 2.628906 21.722656 C 2.183594 21.257812 1.910156 20.097656 1.839844 19.472656 C 1.828125 19.324219 1.640625 17.164062 1.640625 15.058594 L 1.640625 12.964844 C 1.640625 10.890625 1.820312 8.757812 1.839844 8.558594 C 1.921875 7.921875 2.210938 6.753906 2.644531 6.285156 C 3.363281 5.492188 4.121094 5.40625 4.621094 5.347656 C 4.667969 5.34375 4.714844 5.335938 4.753906 5.332031 C 8.386719 5.070312 13.804688 5.03125 14 5.03125 C 14.195312 5.03125 19.609375 5.070312 23.210938 5.332031 C 23.253906 5.335938 23.304688 5.34375 23.355469 5.347656 C 23.871094 5.40625 24.648438 5.496094 25.363281 6.257812 L 25.371094 6.265625 C 25.816406 6.730469 26.089844 7.910156 26.160156 8.550781 C 26.171875 8.6875 26.359375 10.855469 26.359375 12.964844 Z M 26.359375 15.058594 "/>
</g>
</svg>
