<?xml version="1.0" encoding="UTF-8"?>
<svg xmlns="http://www.w3.org/2000/svg" xmlns:xlink="http://www.w3.org/1999/xlink" width="28pt" height="28pt" viewBox="0 0 28 28" version="1.1">
<g id="surface1">
<path style=" stroke:none;fill-rule:nonzero;fill:rgb(0%,0%,0%);fill-opacity:1;" d="M 6.5 27.5 C 6.5 27.777344 6.722656 28 7 28 C 7.277344 28 7.5 27.777344 7.5 27.5 L 7.5 20.5 L 6.5 20.5 Z M 6.5 27.5 "/>
<path style=" stroke:none;fill-rule:nonzero;fill:rgb(0%,0%,0%);fill-opacity:1;" d="M 8.5 25.5 L 13.5 25.5 L 13.5 20.5 L 8.5 20.5 Z M 10.5 22.5 L 11.5 22.5 C 11.777344 22.5 12 22.722656 12 23 C 12 23.277344 11.777344 23.5 11.5 23.5 L 10.5 23.5 C 10.222656 23.5 10 23.277344 10 23 C 10 22.722656 10.222656 22.5 10.5 22.5 Z M 10.5 22.5 "/>
<path style=" stroke:none;fill-rule:nonzero;fill:rgb(0%,0%,0%);fill-opacity:1;" d="M 20.5 27.5 C 20.5 27.777344 20.722656 28 21 28 C 21.277344 28 21.5 27.777344 21.5 27.5 L 21.5 20.5 L 20.5 20.5 Z M 20.5 27.5 "/>
<path style=" stroke:none;fill-rule:nonzero;fill:rgb(0%,0%,0%);fill-opacity:1;" d="M 17.859375 1.5 C 17.476562 1.492188 17.132812 1.261719 16.980469 0.910156 C 16.800781 0.546875 15.734375 0 14 0 C 12.265625 0 11.199219 0.546875 11.019531 0.910156 C 10.867188 1.261719 10.523438 1.492188 10.140625 1.5 L 6.5 1.5 L 6.5 17.5 L 7.5 17.5 L 7.5 3.457031 C 7.5 2.929688 7.929688 2.5 8.457031 2.5 L 11.125 2.5 C 11.425781 1.601562 12.589844 1 14 1 C 15.410156 1 16.574219 1.601562 16.910156 2.5 L 19.546875 2.5 C 20.070312 2.5 20.5 2.929688 20.5 3.457031 L 20.5 17.5 L 21.5 17.5 L 21.5 1.5 Z M 17.859375 1.5 "/>
<path style=" stroke:none;fill-rule:nonzero;fill:rgb(0%,0%,0%);fill-opacity:1;" d="M 14.5 25.5 L 19.5 25.5 L 19.5 20.5 L 14.5 20.5 Z M 16.5 22.5 L 17.5 22.5 C 17.777344 22.5 18 22.722656 18 23 C 18 23.277344 17.777344 23.5 17.5 23.5 L 16.5 23.5 C 16.222656 23.5 16 23.277344 16 23 C 16 22.722656 16.222656 22.5 16.5 22.5 Z M 16.5 22.5 "/>
<path style=" stroke:none;fill-rule:nonzero;fill:rgb(0%,0%,0%);fill-opacity:1;" d="M 16.875 3.5 C 16.464844 3.492188 16.101562 3.230469 15.96875 2.84375 C 15.816406 2.429688 15.039062 2 14 2 C 12.960938 2 12.183594 2.429688 12.03125 2.84375 C 11.894531 3.230469 11.535156 3.492188 11.125 3.5 L 8.5 3.5 L 8.5 17.5 L 19.5 17.5 L 19.5 3.5 Z M 9.644531 5.644531 L 10.644531 4.644531 C 10.839844 4.449219 11.15625 4.449219 11.355469 4.644531 C 11.550781 4.84375 11.550781 5.160156 11.355469 5.355469 L 10.355469 6.355469 C 10.15625 6.546875 9.84375 6.546875 9.644531 6.355469 C 9.449219 6.160156 9.449219 5.839844 9.644531 5.644531 Z M 13.855469 5.355469 L 10.355469 8.855469 C 10.15625 9.046875 9.84375 9.046875 9.644531 8.855469 C 9.449219 8.660156 9.449219 8.339844 9.644531 8.144531 L 13.144531 4.644531 C 13.339844 4.449219 13.65625 4.449219 13.851562 4.644531 C 14.050781 4.84375 14.050781 5.160156 13.855469 5.355469 Z M 13.855469 5.355469 "/>
<path style=" stroke:none;fill-rule:nonzero;fill:rgb(0%,0%,0%);fill-opacity:1;" d="M 6.5 18.5 L 21.5 18.5 L 21.5 19.5 L 6.5 19.5 Z M 6.5 18.5 "/>
</g>
</svg>
