<?xml version="1.0" encoding="UTF-8"?>
<svg xmlns="http://www.w3.org/2000/svg" xmlns:xlink="http://www.w3.org/1999/xlink" width="28pt" height="28pt" viewBox="0 0 28 28" version="1.1">
<g id="surface1">
<path style=" stroke:none;fill-rule:nonzero;fill:rgb(0%,0%,0%);fill-opacity:1;" d="M 19.972656 7.816406 C 17.988281 4.535156 15.777344 1.695312 14.636719 0.296875 C 14.484375 0.109375 14.253906 0 14.011719 0 C 13.769531 0 13.542969 0.109375 13.390625 0.296875 C 12.25 1.695312 10.039062 4.535156 8.050781 7.816406 C 5.492188 12.042969 4.191406 15.539062 4.191406 18.203125 C 4.191406 23.621094 8.597656 28.023438 14.011719 28.023438 C 19.425781 28.023438 23.832031 23.621094 23.832031 18.203125 C 23.832031 15.539062 22.535156 12.042969 19.972656 7.816406 Z M 15.359375 24.40625 C 14.785156 24.554688 14.191406 24.628906 13.589844 24.628906 C 9.921875 24.628906 6.9375 21.855469 6.9375 18.449219 C 6.9375 17.625 7.152344 16.664062 7.582031 15.589844 C 7.65625 15.410156 7.859375 15.304688 8.0625 15.351562 C 8.265625 15.394531 8.402344 15.570312 8.382812 15.761719 C 8.355469 15.992188 8.34375 16.21875 8.34375 16.429688 C 8.34375 20.140625 11.332031 23.246094 15.296875 23.65625 C 15.492188 23.675781 15.648438 23.824219 15.664062 24.007812 C 15.679688 24.191406 15.550781 24.359375 15.359375 24.40625 Z M 15.359375 24.40625 "/>
</g>
</svg>
