<?xml version="1.0" encoding="UTF-8"?>
<svg xmlns="http://www.w3.org/2000/svg" xmlns:xlink="http://www.w3.org/1999/xlink" width="28pt" height="28pt" viewBox="0 0 28 28" version="1.1">
<g id="surface1">
<path style=" stroke:none;fill-rule:nonzero;fill:rgb(0%,0%,0%);fill-opacity:1;" d="M 27.570312 11.480469 C 27.28125 11.128906 26.871094 10.929688 26.449219 10.929688 L 25.8125 10.929688 L 25.8125 10.414062 C 25.8125 9.492188 25.011719 8.742188 24.027344 8.742188 L 23.1875 8.742188 L 23.1875 7.792969 C 23.1875 7.347656 22.996094 6.914062 22.664062 6.597656 C 22.007812 5.976562 20.867188 5.976562 20.210938 6.597656 C 19.878906 6.914062 19.6875 7.347656 19.6875 7.792969 L 19.6875 12.242188 L 8.3125 12.242188 L 8.3125 7.792969 C 8.3125 7.347656 8.121094 6.914062 7.789062 6.601562 C 7.132812 5.976562 5.992188 5.976562 5.335938 6.601562 C 5.003906 6.914062 4.8125 7.347656 4.8125 7.792969 L 4.8125 8.742188 L 3.871094 8.742188 C 3.429688 8.742188 3.011719 8.902344 2.695312 9.191406 C 2.371094 9.488281 2.1875 9.898438 2.1875 10.324219 L 2.1875 10.929688 L 1.558594 10.929688 C 1.132812 10.929688 0.722656 11.128906 0.429688 11.480469 C 0.152344 11.8125 0 12.25 0 12.710938 L 0 15.273438 C 0 15.734375 0.152344 16.171875 0.429688 16.503906 C 0.722656 16.855469 1.132812 17.054688 1.558594 17.054688 L 2.1875 17.054688 L 2.1875 17.660156 C 2.1875 18.085938 2.371094 18.496094 2.695312 18.792969 C 3.011719 19.082031 3.429688 19.242188 3.871094 19.242188 L 4.8125 19.242188 L 4.8125 20.191406 C 4.8125 20.636719 5.003906 21.070312 5.335938 21.382812 C 5.664062 21.695312 6.101562 21.867188 6.5625 21.867188 C 7.023438 21.867188 7.460938 21.695312 7.789062 21.382812 C 8.121094 21.070312 8.3125 20.636719 8.3125 20.191406 L 8.3125 15.742188 L 19.6875 15.742188 L 19.6875 20.191406 C 19.6875 20.636719 19.878906 21.070312 20.210938 21.382812 C 20.539062 21.695312 20.976562 21.867188 21.4375 21.867188 C 21.898438 21.867188 22.335938 21.695312 22.664062 21.382812 C 22.996094 21.070312 23.1875 20.636719 23.1875 20.191406 L 23.1875 19.242188 L 24.027344 19.242188 C 25.011719 19.242188 25.8125 18.492188 25.8125 17.566406 L 25.8125 17.054688 L 26.449219 17.054688 C 26.871094 17.054688 27.28125 16.855469 27.574219 16.503906 C 27.847656 16.175781 28 15.738281 28 15.28125 L 28 12.703125 C 28 12.246094 27.847656 11.808594 27.570312 11.480469 Z M 1.558594 16.179688 C 1.390625 16.179688 1.230469 16.09375 1.101562 15.945312 C 0.957031 15.769531 0.875 15.527344 0.875 15.273438 L 0.875 12.710938 C 0.875 12.457031 0.957031 12.214844 1.101562 12.039062 C 1.230469 11.886719 1.390625 11.804688 1.558594 11.804688 L 2.1875 11.804688 L 2.1875 16.179688 Z M 3.871094 18.367188 C 3.652344 18.367188 3.4375 18.285156 3.285156 18.148438 C 3.140625 18.015625 3.0625 17.84375 3.0625 17.660156 L 3.0625 10.324219 C 3.0625 10.140625 3.140625 9.96875 3.285156 9.835938 C 3.4375 9.695312 3.652344 9.617188 3.871094 9.617188 L 4.8125 9.617188 L 4.8125 18.367188 Z M 7.4375 20.191406 C 7.4375 20.398438 7.347656 20.597656 7.191406 20.75 C 6.863281 21.058594 6.261719 21.058594 5.933594 20.75 C 5.777344 20.597656 5.6875 20.398438 5.6875 20.191406 L 5.6875 7.792969 C 5.6875 7.585938 5.777344 7.386719 5.933594 7.234375 C 6.097656 7.082031 6.328125 6.992188 6.5625 6.992188 C 6.796875 6.992188 7.027344 7.082031 7.191406 7.234375 C 7.347656 7.386719 7.4375 7.585938 7.4375 7.792969 Z M 8.3125 14.867188 L 8.3125 13.117188 L 19.6875 13.117188 L 19.6875 14.867188 Z M 22.3125 20.191406 C 22.3125 20.398438 22.222656 20.597656 22.066406 20.75 C 21.738281 21.058594 21.136719 21.058594 20.808594 20.75 C 20.652344 20.597656 20.5625 20.398438 20.5625 20.191406 L 20.5625 7.792969 C 20.5625 7.585938 20.652344 7.386719 20.808594 7.234375 C 20.972656 7.082031 21.203125 6.992188 21.4375 6.992188 C 21.671875 6.992188 21.902344 7.082031 22.066406 7.234375 C 22.222656 7.386719 22.3125 7.585938 22.3125 7.792969 Z M 24.9375 17.566406 C 24.9375 18.007812 24.527344 18.367188 24.027344 18.367188 L 23.1875 18.367188 L 23.1875 9.617188 L 24.027344 9.617188 C 24.527344 9.617188 24.9375 9.976562 24.9375 10.414062 Z M 27.125 15.28125 C 27.125 15.53125 27.042969 15.773438 26.898438 15.945312 C 26.773438 16.097656 26.613281 16.179688 26.449219 16.179688 L 25.8125 16.179688 L 25.8125 11.804688 L 26.449219 11.804688 C 26.613281 11.804688 26.773438 11.886719 26.898438 12.039062 C 27.042969 12.210938 27.125 12.453125 27.125 12.703125 Z M 27.125 15.28125 "/>
</g>
</svg>
