<?xml version="1.0" encoding="UTF-8"?>
<svg xmlns="http://www.w3.org/2000/svg" xmlns:xlink="http://www.w3.org/1999/xlink" width="28pt" height="28pt" viewBox="0 0 28 28" version="1.1">
<g id="surface1">
<path style=" stroke:none;fill-rule:nonzero;fill:rgb(0%,0%,0%);fill-opacity:1;" d="M 7.464844 7 C 7.585938 7 7.707031 6.953125 7.796875 6.863281 L 9.664062 4.996094 C 9.847656 4.8125 9.847656 4.519531 9.664062 4.335938 C 9.480469 4.152344 9.1875 4.152344 9.003906 4.335938 L 7.136719 6.203125 C 6.953125 6.386719 6.953125 6.679688 7.136719 6.863281 C 7.226562 6.953125 7.347656 7 7.464844 7 Z M 7.464844 7 "/>
<path style=" stroke:none;fill-rule:nonzero;fill:rgb(0%,0%,0%);fill-opacity:1;" d="M 8.070312 7.601562 L 7.136719 8.535156 C 6.953125 8.71875 6.953125 9.015625 7.136719 9.195312 C 7.226562 9.289062 7.347656 9.332031 7.464844 9.332031 C 7.585938 9.332031 7.707031 9.289062 7.796875 9.195312 L 8.730469 8.261719 C 8.914062 8.082031 8.914062 7.785156 8.730469 7.601562 C 8.546875 7.421875 8.253906 7.421875 8.070312 7.601562 Z M 8.070312 7.601562 "/>
<path style=" stroke:none;fill-rule:nonzero;fill:rgb(0%,0%,0%);fill-opacity:1;" d="M 9.003906 6.667969 C 8.917969 6.757812 8.867188 6.878906 8.867188 7 C 8.867188 7.121094 8.917969 7.242188 9.003906 7.332031 C 9.089844 7.414062 9.210938 7.464844 9.332031 7.464844 C 9.453125 7.464844 9.574219 7.414062 9.664062 7.332031 C 9.75 7.242188 9.800781 7.121094 9.800781 7 C 9.800781 6.878906 9.75 6.757812 9.664062 6.667969 C 9.492188 6.496094 9.175781 6.496094 9.003906 6.667969 Z M 9.003906 6.667969 "/>
<path style=" stroke:none;fill-rule:nonzero;fill:rgb(0%,0%,0%);fill-opacity:1;" d="M 11.335938 4.335938 L 9.9375 5.738281 C 9.753906 5.917969 9.753906 6.214844 9.9375 6.398438 C 10.027344 6.488281 10.148438 6.535156 10.265625 6.535156 C 10.386719 6.535156 10.503906 6.488281 10.597656 6.398438 L 11.996094 4.996094 C 12.179688 4.8125 12.179688 4.519531 11.996094 4.335938 C 11.8125 4.152344 11.519531 4.152344 11.335938 4.335938 Z M 11.335938 4.335938 "/>
<path style=" stroke:none;fill-rule:nonzero;fill:rgb(0%,0%,0%);fill-opacity:1;" d="M 20.203125 14.136719 L 18.335938 16.003906 C 18.152344 16.1875 18.152344 16.480469 18.335938 16.664062 C 18.425781 16.753906 18.546875 16.800781 18.667969 16.800781 C 18.785156 16.800781 18.90625 16.753906 18.996094 16.664062 L 20.863281 14.796875 C 21.046875 14.613281 21.046875 14.320312 20.863281 14.136719 C 20.679688 13.953125 20.386719 13.953125 20.203125 14.136719 Z M 20.203125 14.136719 "/>
<path style=" stroke:none;fill-rule:nonzero;fill:rgb(0%,0%,0%);fill-opacity:1;" d="M 19.601562 13.535156 C 19.71875 13.535156 19.839844 13.488281 19.929688 13.398438 L 20.863281 12.464844 C 21.046875 12.28125 21.046875 11.984375 20.863281 11.804688 C 20.679688 11.621094 20.386719 11.621094 20.203125 11.804688 L 19.269531 12.738281 C 19.085938 12.917969 19.085938 13.214844 19.269531 13.398438 C 19.359375 13.488281 19.480469 13.535156 19.601562 13.535156 Z M 19.601562 13.535156 "/>
<path style=" stroke:none;fill-rule:nonzero;fill:rgb(0%,0%,0%);fill-opacity:1;" d="M 18.667969 14.464844 C 18.789062 14.464844 18.910156 14.414062 18.996094 14.332031 C 19.082031 14.242188 19.132812 14.121094 19.132812 14 C 19.132812 13.878906 19.082031 13.757812 18.996094 13.667969 C 18.820312 13.496094 18.511719 13.496094 18.335938 13.667969 C 18.25 13.757812 18.199219 13.878906 18.199219 14 C 18.199219 14.121094 18.25 14.242188 18.335938 14.332031 C 18.425781 14.414062 18.546875 14.464844 18.667969 14.464844 Z M 18.667969 14.464844 "/>
<path style=" stroke:none;fill-rule:nonzero;fill:rgb(0%,0%,0%);fill-opacity:1;" d="M 18.0625 14.601562 C 17.878906 14.421875 17.585938 14.421875 17.402344 14.601562 L 16.003906 16.003906 C 15.820312 16.1875 15.820312 16.480469 16.003906 16.664062 C 16.09375 16.753906 16.214844 16.800781 16.332031 16.800781 C 16.453125 16.800781 16.574219 16.753906 16.664062 16.664062 L 18.0625 15.261719 C 18.246094 15.082031 18.246094 14.785156 18.0625 14.601562 Z M 18.0625 14.601562 "/>
<path style=" stroke:none;fill-rule:nonzero;fill:rgb(0%,0%,0%);fill-opacity:1;" d="M 27.066406 1.867188 L 27.535156 1.867188 C 27.789062 1.867188 28 1.65625 28 1.398438 C 28 1.140625 27.789062 0.933594 27.535156 0.933594 L 27.066406 0.933594 L 27.066406 0.464844 C 27.066406 0.207031 26.859375 0 26.601562 0 C 26.34375 0 26.132812 0.207031 26.132812 0.464844 L 26.132812 0.933594 L 25.199219 0.933594 L 25.199219 0.464844 C 25.199219 0.207031 24.992188 0 24.734375 0 C 24.476562 0 24.265625 0.207031 24.265625 0.464844 L 24.265625 0.933594 L 23.332031 0.933594 L 23.332031 0.464844 C 23.332031 0.207031 23.125 0 22.867188 0 C 22.609375 0 22.398438 0.207031 22.398438 0.464844 L 22.398438 0.933594 L 5.601562 0.933594 L 5.601562 0.464844 C 5.601562 0.207031 5.390625 0 5.132812 0 C 4.875 0 4.667969 0.207031 4.667969 0.464844 L 4.667969 0.933594 L 3.734375 0.933594 L 3.734375 0.464844 C 3.734375 0.207031 3.523438 0 3.265625 0 C 3.007812 0 2.800781 0.207031 2.800781 0.464844 L 2.800781 0.933594 L 1.867188 0.933594 L 1.867188 0.464844 C 1.867188 0.207031 1.65625 0 1.398438 0 C 1.140625 0 0.933594 0.207031 0.933594 0.464844 L 0.933594 0.933594 L 0.464844 0.933594 C 0.210938 0.933594 0 1.140625 0 1.398438 C 0 1.65625 0.210938 1.867188 0.464844 1.867188 L 0.933594 1.867188 L 0.933594 2.332031 L 0 2.332031 L 0 28 L 6.535156 28 L 6.535156 21.464844 L 21.464844 21.464844 L 21.464844 28 L 28 28 L 28 2.332031 L 27.066406 2.332031 Z M 22.398438 1.867188 L 22.398438 2.332031 L 14.464844 2.332031 L 14.464844 9.332031 C 14.210938 9.332031 14 9.542969 14 9.800781 C 14 10.058594 14.210938 10.265625 14.464844 10.265625 L 14.464844 18.199219 L 21.464844 18.199219 L 21.464844 18.667969 L 6.535156 18.667969 L 6.535156 18.199219 L 13.535156 18.199219 L 13.535156 2.332031 L 5.601562 2.332031 L 5.601562 1.867188 Z M 15.398438 10.265625 L 16.332031 10.265625 C 16.589844 10.265625 16.800781 10.058594 16.800781 9.800781 C 16.800781 9.542969 16.589844 9.332031 16.332031 9.332031 L 15.398438 9.332031 L 15.398438 3.265625 L 21.464844 3.265625 L 21.464844 17.265625 L 15.398438 17.265625 Z M 6.535156 17.265625 L 6.535156 3.265625 L 12.601562 3.265625 L 12.601562 17.265625 Z M 1.867188 27.066406 L 0.933594 27.066406 L 0.933594 3.265625 L 1.867188 3.265625 Z M 1.867188 2.332031 L 1.867188 1.867188 L 2.800781 1.867188 L 2.800781 2.332031 Z M 3.734375 27.066406 L 2.800781 27.066406 L 2.800781 3.265625 L 3.734375 3.265625 Z M 3.734375 2.332031 L 3.734375 1.867188 L 4.667969 1.867188 L 4.667969 2.332031 Z M 5.601562 27.066406 L 4.667969 27.066406 L 4.667969 3.265625 L 5.601562 3.265625 Z M 6.535156 20.535156 L 6.535156 19.601562 L 21.464844 19.601562 L 21.464844 20.535156 Z M 23.332031 27.066406 L 22.398438 27.066406 L 22.398438 3.265625 L 23.332031 3.265625 Z M 23.332031 2.332031 L 23.332031 1.867188 L 24.265625 1.867188 L 24.265625 2.332031 Z M 25.199219 27.066406 L 24.265625 27.066406 L 24.265625 3.265625 L 25.199219 3.265625 Z M 27.066406 27.066406 L 26.132812 27.066406 L 26.132812 3.265625 L 27.066406 3.265625 Z M 25.199219 2.332031 L 25.199219 1.867188 L 26.132812 1.867188 L 26.132812 2.332031 Z M 25.199219 2.332031 "/>
</g>
</svg>
