<?xml version="1.0" encoding="UTF-8"?>
<svg xmlns="http://www.w3.org/2000/svg" xmlns:xlink="http://www.w3.org/1999/xlink" width="28pt" height="28pt" viewBox="0 0 28 28" version="1.1">
<g id="surface1">
<path style=" stroke:none;fill-rule:nonzero;fill:rgb(0%,0%,0%);fill-opacity:1;" d="M 26.347656 26.605469 C 27.066406 26.605469 27.5 27 27.792969 27.351562 L 27.792969 0 L 16.324219 0 L 16.324219 27.351562 C 16.617188 27 17.050781 26.605469 17.769531 26.605469 C 18.648438 26.605469 19.097656 27.191406 19.394531 27.574219 C 19.667969 27.933594 19.753906 28 19.914062 28 C 20.078125 28 20.160156 27.933594 20.433594 27.574219 C 20.730469 27.191406 21.179688 26.605469 22.058594 26.605469 C 22.9375 26.605469 23.386719 27.191406 23.683594 27.574219 C 23.957031 27.933594 24.039062 28 24.203125 28 C 24.363281 28 24.449219 27.933594 24.722656 27.574219 C 25.019531 27.191406 25.46875 26.605469 26.347656 26.605469 Z M 26.347656 26.605469 "/>
<path style=" stroke:none;fill-rule:nonzero;fill:rgb(0%,0%,0%);fill-opacity:1;" d="M 11.863281 11.34375 L 14.929688 11.34375 L 14.929688 19.679688 L 11.863281 19.679688 Z M 11.863281 11.34375 "/>
<path style=" stroke:none;fill-rule:nonzero;fill:rgb(0%,0%,0%);fill-opacity:1;" d="M 11.863281 1.613281 L 14.929688 1.613281 L 14.929688 9.949219 L 11.863281 9.949219 Z M 11.863281 1.613281 "/>
<path style=" stroke:none;fill-rule:nonzero;fill:rgb(0%,0%,0%);fill-opacity:1;" d="M 1.460938 19.679688 L 10.46875 19.679688 L 10.46875 11.34375 L 0.207031 11.34375 L 0.207031 18.425781 C 0.207031 19.117188 0.769531 19.679688 1.460938 19.679688 Z M 1.460938 19.679688 "/>
<path style=" stroke:none;fill-rule:nonzero;fill:rgb(0%,0%,0%);fill-opacity:1;" d="M 10.46875 1.613281 L 1.460938 1.613281 C 0.769531 1.613281 0.207031 2.175781 0.207031 2.867188 L 0.207031 9.949219 L 10.46875 9.949219 Z M 10.46875 1.613281 "/>
</g>
</svg>
