<?xml version="1.0" encoding="UTF-8"?>
<svg xmlns="http://www.w3.org/2000/svg" xmlns:xlink="http://www.w3.org/1999/xlink" width="28pt" height="28pt" viewBox="0 0 28 28" version="1.1">
<g id="surface1">
<path style=" stroke:none;fill-rule:nonzero;fill:rgb(0%,0%,0%);fill-opacity:1;" d="M 3.980469 24.78125 L 12.378906 24.78125 L 12.378906 2.21875 L 3.980469 2.21875 Z M 4.5625 11.773438 L 11.796875 4.539062 L 11.796875 11.085938 L 11.785156 11.074219 L 4.5625 18.296875 Z M 4.5625 24.195312 L 4.5625 19.121094 L 11.796875 11.890625 L 11.796875 24.195312 Z M 11.796875 3.734375 L 11.785156 3.726562 L 4.5625 10.945312 L 4.5625 9.316406 L 11.074219 2.804688 L 11.796875 2.804688 Z M 10.25 2.804688 L 4.5625 8.488281 L 4.5625 2.804688 Z M 10.25 2.804688 "/>
<path style=" stroke:none;fill-rule:nonzero;fill:rgb(0%,0%,0%);fill-opacity:1;" d="M 25.621094 26.414062 L 25.621094 0 L 2.378906 0 L 2.378906 26.414062 L 1.242188 26.414062 L 1.242188 28 L 26.757812 28 L 26.757812 26.414062 Z M 25.039062 26.414062 L 21.914062 26.414062 L 22.132812 24.78125 L 24.019531 24.78125 L 24.019531 2.21875 L 15.621094 2.21875 L 15.621094 24.78125 L 18.582031 24.78125 L 18.796875 26.414062 L 14.292969 26.414062 L 14.292969 0.585938 L 25.039062 0.585938 Z M 16.214844 9.398438 L 22.8125 2.800781 L 23.4375 2.800781 L 23.4375 3.8125 L 16.207031 11.042969 L 16.207031 9.390625 Z M 16.207031 8.585938 L 16.207031 2.800781 L 21.988281 2.800781 Z M 23.4375 11.160156 L 16.207031 18.390625 L 16.207031 11.847656 L 16.214844 11.859375 L 23.4375 4.636719 Z M 16.207031 19.195312 L 16.214844 19.207031 L 23.4375 11.988281 L 23.4375 24.195312 L 22.207031 24.195312 L 22.484375 22.109375 L 20.691406 22.109375 L 20.691406 21.738281 L 21.292969 21.40625 L 21.007812 20.894531 L 20.691406 21.070312 L 20.691406 20.652344 C 21.207031 20.523438 21.585938 20.054688 21.585938 19.5 L 21.585938 17.351562 L 20.398438 18.347656 L 19.207031 17.351562 L 19.207031 19.5 C 19.207031 20.054688 19.589844 20.523438 20.105469 20.652344 L 20.105469 22.109375 L 18.230469 22.109375 L 18.503906 24.195312 L 16.207031 24.195312 Z M 20.398438 20.105469 C 20.066406 20.105469 19.792969 19.835938 19.792969 19.5 L 19.792969 18.601562 L 20.398438 19.109375 L 21.003906 18.601562 L 21.003906 19.5 C 21.003906 19.835938 20.730469 20.105469 20.398438 20.105469 Z M 21.816406 22.691406 L 21.332031 26.367188 L 19.378906 26.367188 L 18.894531 22.691406 Z M 2.960938 0.585938 L 13.707031 0.585938 L 13.707031 26.414062 L 2.960938 26.414062 Z M 26.171875 27.414062 L 1.828125 27.414062 L 1.828125 27 L 26.171875 27 Z M 26.171875 27.414062 "/>
<path style=" stroke:none;fill-rule:nonzero;fill:rgb(0%,0%,0%);fill-opacity:1;" d="M 12.738281 14.75 L 13.324219 14.75 L 13.324219 17.199219 L 12.738281 17.199219 Z M 12.738281 14.75 "/>
<path style=" stroke:none;fill-rule:nonzero;fill:rgb(0%,0%,0%);fill-opacity:1;" d="M 14.675781 14.75 L 15.261719 14.75 L 15.261719 17.199219 L 14.675781 17.199219 Z M 14.675781 14.75 "/>
</g>
</svg>
