<?xml version="1.0" encoding="UTF-8"?>
<svg xmlns="http://www.w3.org/2000/svg" xmlns:xlink="http://www.w3.org/1999/xlink" width="28pt" height="28pt" viewBox="0 0 28 28" version="1.1">
<g id="surface1">
<path style=" stroke:none;fill-rule:nonzero;fill:rgb(0%,0%,0%);fill-opacity:1;" d="M 0 0 L 0 28 L 28 28 L 28 0 Z M 26.359375 1.640625 L 26.359375 3.28125 L 1.640625 3.28125 L 1.640625 1.640625 Z M 18.101562 18.046875 L 23.078125 18.046875 L 23.078125 23.078125 L 18.101562 23.078125 Z M 1.640625 16.40625 L 1.640625 14.765625 L 26.359375 14.765625 L 26.359375 16.40625 Z M 4.921875 18.046875 L 9.898438 18.046875 L 9.898438 23.078125 L 4.921875 23.078125 Z M 1.640625 13.125 L 1.640625 11.484375 L 26.359375 11.484375 L 26.359375 13.125 Z M 1.640625 9.84375 L 1.640625 8.203125 L 26.359375 8.203125 L 26.359375 9.84375 Z M 1.640625 6.5625 L 1.640625 4.921875 L 26.359375 4.921875 L 26.359375 6.5625 Z M 1.640625 18.046875 L 3.28125 18.046875 L 3.28125 24.71875 L 11.539062 24.71875 L 11.539062 18.046875 L 13.179688 18.046875 L 13.179688 26.359375 L 1.640625 26.359375 Z M 14.820312 26.359375 L 14.820312 18.046875 L 16.460938 18.046875 L 16.460938 24.71875 L 24.71875 24.71875 L 24.71875 18.046875 L 26.359375 18.046875 L 26.359375 26.359375 Z M 14.820312 26.359375 "/>
</g>
</svg>
