<?xml version="1.0" encoding="UTF-8" standalone="no"?>
<svg
   width="28pt"
   height="28pt"
   viewBox="0 0 28 28"
   version="1.1"
   id="svg14"
   sodipodi:docname="b2.svg"
   inkscape:version="1.1 (c4e8f9e, 2021-05-24)"
   xmlns:inkscape="http://www.inkscape.org/namespaces/inkscape"
   xmlns:sodipodi="http://sodipodi.sourceforge.net/DTD/sodipodi-0.dtd"
   xmlns="http://www.w3.org/2000/svg"
   xmlns:svg="http://www.w3.org/2000/svg">
  <defs
     id="defs18" />
  <sodipodi:namedview
     id="namedview16"
     pagecolor="#ffffff"
     bordercolor="#666666"
     borderopacity="1.0"
     inkscape:pageshadow="2"
     inkscape:pageopacity="0.0"
     inkscape:pagecheckerboard="0"
     inkscape:document-units="pt"
     showgrid="false"
     inkscape:zoom="16"
     inkscape:cx="13.65625"
     inkscape:cy="24.84375"
     inkscape:window-width="1920"
     inkscape:window-height="1027"
     inkscape:window-x="0"
     inkscape:window-y="25"
     inkscape:window-maximized="1"
     inkscape:current-layer="svg14" />
  <rect
     style="opacity:1;fill:none;stroke:#000000;stroke-width:1.1728;stroke-linejoin:round;stroke-miterlimit:4;stroke-dasharray:none;stroke-opacity:1;paint-order:markers fill stroke"
     id="rect308"
     width="26.606733"
     height="26.606733"
     x="0.72813225"
     y="0.72813225"
     ry="4.3362432"
     rx="4.3362441" />
  <path
     style="fill:#000000;fill-opacity:1;fill-rule:nonzero;stroke:none"
     d="m 17.920954,19.510882 c 0,0.148437 0,0.222656 -0.03516,0.332031 0,0.07422 -0.03516,0.148437 -0.07422,0.21875 -0.03516,0.03906 -0.07031,0.109375 -0.109375,0.109375 -0.03516,0.03906 -0.109375,0.07422 -0.144531,0.07422 h -6.785157 c -0.109374,0 -0.183593,-0.03516 -0.21875,-0.03516 -0.07422,-0.03906 -0.148437,-0.07422 -0.183593,-0.109375 -0.03906,-0.07422 -0.07422,-0.148437 -0.109376,-0.222656 -0.03906,-0.109375 -0.03906,-0.21875 -0.03906,-0.367187 0,-0.109376 0,-0.21875 0.03906,-0.328126 0,-0.07422 0,-0.183593 0.03516,-0.257812 0.03516,-0.07422 0.07422,-0.144531 0.148438,-0.21875 0.03516,-0.07422 0.109374,-0.148438 0.183593,-0.222656 l 2.453125,-2.53125 c 0.550783,-0.585936 1.027345,-1.097654 1.359376,-1.539061 0.328125,-0.476562 0.585938,-0.878906 0.769531,-1.285156 0.21875,-0.367187 0.328126,-0.695313 0.367188,-1.027344 0.07031,-0.292969 0.109375,-0.585937 0.109375,-0.878906 0,-0.257813 -0.03906,-0.511719 -0.148437,-0.769531 -0.07031,-0.222657 -0.21875,-0.441407 -0.402344,-0.6250006 -0.144531,-0.183594 -0.367187,-0.328125 -0.621093,-0.441406 -0.257812,-0.109376 -0.589844,-0.183594 -0.917969,-0.183594 -0.402343,0 -0.769531,0.07422 -1.0625,0.183594 -0.332031,0.113281 -0.589843,0.222656 -0.84375,0.332031 -0.222656,0.148437 -0.441406,0.257812 -0.585937,0.3671866 -0.148438,0.109375 -0.296875,0.183594 -0.367188,0.183594 -0.03906,0 -0.07422,-0.03906 -0.109375,-0.07422 -0.03906,0 -0.07422,-0.03516 -0.07422,-0.109375 -0.03906,-0.03906 -0.07422,-0.1484366 -0.07422,-0.2187496 0,-0.113281 -0.03516,-0.222656 -0.03516,-0.332031 0,-0.109375 0.03516,-0.183594 0.03516,-0.257813 0,-0.07422 0,-0.144531 0.03516,-0.183593 0,-0.03516 0.03906,-0.109375 0.03906,-0.144531 0.03516,-0.03906 0.07422,-0.109376 0.144532,-0.148438 0.109375,-0.07422 0.222656,-0.183594 0.40625,-0.292969 0.179687,-0.109375 0.4375,-0.21875 0.695312,-0.328125 0.292969,-0.113281 0.585938,-0.183594 0.953125,-0.296875 0.328125,-0.07031 0.695313,-0.109375 1.0625,-0.109375 0.585938,0 1.101563,0.109375 1.539063,0.257813 0.441406,0.183593 0.808594,0.402343 1.101562,0.695312 0.292969,0.296875 0.511719,0.625 0.660156,0.992188 0.148438,0.4023426 0.21875,0.8085936 0.21875,1.2460936 0,0.40625 -0.03516,0.769532 -0.07031,1.175782 -0.07422,0.402344 -0.222656,0.804687 -0.441406,1.246094 -0.257813,0.476562 -0.550782,0.953124 -0.992188,1.542968 -0.402344,0.546875 -0.988281,1.171875 -1.683594,1.90625 l -1.945312,2.015625 h 5.355469 c 0.03516,0 0.07031,0 0.144531,0.03906 0.03906,0.03516 0.07422,0.07422 0.109375,0.144531 0.03906,0.03906 0.07422,0.113281 0.07422,0.183594 0.03516,0.109375 0.03516,0.183593 0.03516,0.292969 z m 0,0"
     id="path952" />
</svg>
