<?xml version="1.0" encoding="UTF-8"?>
<svg xmlns="http://www.w3.org/2000/svg" xmlns:xlink="http://www.w3.org/1999/xlink" width="28px" height="28px" viewBox="0 0 28 28" version="1.1">
<g id="surface1">
<path style="fill:none;stroke-width:1.1728;stroke-linecap:butt;stroke-linejoin:round;stroke:rgb(0%,0%,0%);stroke-opacity:1;stroke-miterlimit:4;" d="M 5.0625 0.726562 L 23 0.726562 C 25.394531 0.726562 27.335938 2.667969 27.335938 5.0625 L 27.335938 23 C 27.335938 25.394531 25.394531 27.335938 23 27.335938 L 5.0625 27.335938 C 2.667969 27.335938 0.726562 25.394531 0.726562 23 L 0.726562 5.0625 C 0.726562 2.667969 2.667969 0.726562 5.0625 0.726562 Z M 5.0625 0.726562 "/>
<path style=" stroke:none;fill-rule:nonzero;fill:rgb(0%,0%,0%);fill-opacity:1;" d="M 18.410156 16.363281 C 18.410156 16.585938 18.371094 16.730469 18.335938 16.878906 C 18.261719 16.988281 18.152344 17.023438 18.042969 17.023438 L 16.6875 17.023438 L 16.6875 19.628906 C 16.6875 19.667969 16.648438 19.703125 16.648438 19.738281 C 16.613281 19.777344 16.578125 19.8125 16.503906 19.851562 C 16.429688 19.851562 16.355469 19.886719 16.246094 19.886719 C 16.136719 19.921875 15.988281 19.921875 15.84375 19.921875 C 15.695312 19.921875 15.550781 19.921875 15.441406 19.886719 C 15.367188 19.886719 15.257812 19.851562 15.21875 19.851562 C 15.144531 19.8125 15.109375 19.777344 15.074219 19.738281 C 15.074219 19.703125 15.035156 19.667969 15.035156 19.628906 L 15.035156 17.023438 L 9.828125 17.023438 C 9.792969 16.988281 9.757812 16.953125 9.683594 16.914062 C 9.644531 16.84375 9.644531 16.769531 9.609375 16.695312 C 9.609375 16.585938 9.574219 16.476562 9.574219 16.328125 C 9.574219 16.21875 9.609375 16.109375 9.609375 16 C 9.609375 15.925781 9.609375 15.816406 9.644531 15.742188 C 9.644531 15.667969 9.683594 15.59375 9.71875 15.519531 C 9.757812 15.449219 9.792969 15.375 9.828125 15.300781 L 14.191406 7.816406 C 14.230469 7.78125 14.265625 7.742188 14.339844 7.707031 C 14.414062 7.632812 14.488281 7.632812 14.558594 7.597656 C 14.667969 7.5625 14.78125 7.5625 14.925781 7.523438 L 15.441406 7.523438 C 15.660156 7.523438 15.84375 7.523438 15.988281 7.5625 C 16.136719 7.5625 16.28125 7.597656 16.355469 7.597656 C 16.464844 7.632812 16.539062 7.671875 16.578125 7.707031 C 16.648438 7.742188 16.6875 7.816406 16.6875 7.855469 L 16.6875 15.703125 L 18.042969 15.703125 C 18.152344 15.703125 18.261719 15.742188 18.300781 15.851562 C 18.371094 15.960938 18.410156 16.144531 18.410156 16.363281 Z M 15.035156 8.953125 L 11.078125 15.703125 L 15.035156 15.703125 Z M 15.035156 8.953125 "/>
</g>
</svg>
