<?xml version="1.0" encoding="UTF-8"?>
<svg xmlns="http://www.w3.org/2000/svg" xmlns:xlink="http://www.w3.org/1999/xlink" width="28pt" height="28pt" viewBox="0 0 28 28" version="1.1">
<g id="surface1">
<path style=" stroke:none;fill-rule:nonzero;fill:rgb(0%,0%,0%);fill-opacity:1;" d="M 27.53125 21.933594 C 27.789062 21.933594 28 21.722656 28 21.464844 C 28 21.207031 27.789062 21 27.53125 21 L 27.066406 21 C 27.066406 20.742188 26.859375 20.535156 26.601562 20.535156 C 26.34375 20.535156 26.132812 20.742188 26.132812 21 L 18.667969 21 C 18.667969 20.742188 18.457031 20.535156 18.199219 20.535156 C 17.941406 20.535156 17.734375 20.742188 17.734375 21 L 17.265625 21 C 17.007812 21 16.800781 21.207031 16.800781 21.464844 C 16.800781 21.722656 17.007812 21.933594 17.265625 21.933594 L 17.734375 21.933594 L 17.734375 23.332031 L 17.265625 23.332031 C 17.007812 23.332031 16.800781 23.542969 16.800781 23.800781 C 16.800781 24.058594 17.007812 24.265625 17.265625 24.265625 L 17.734375 24.265625 L 17.734375 24.734375 L 17.265625 24.734375 C 17.007812 24.734375 16.800781 24.941406 16.800781 25.199219 C 16.800781 25.457031 17.007812 25.667969 17.265625 25.667969 L 17.734375 25.667969 L 17.734375 27.066406 L 9.800781 27.066406 L 9.800781 23.207031 C 10.492188 23.59375 11.269531 23.800781 12.0625 23.800781 C 14.710938 23.761719 16.832031 21.585938 16.800781 18.9375 C 16.8125 17.09375 15.785156 15.402344 14.144531 14.566406 C 14.683594 13.828125 14.972656 12.9375 14.96875 12.027344 C 14.984375 10.011719 13.570312 8.265625 11.597656 7.863281 C 12.097656 6.761719 12.011719 5.480469 11.367188 4.457031 C 10.722656 3.429688 9.609375 2.792969 8.398438 2.765625 C 8.386719 2.765625 8.371094 2.765625 8.359375 2.765625 C 8.109375 1.160156 6.71875 -0.0195312 5.09375 0 C 3.46875 0.0195312 2.105469 1.230469 1.894531 2.839844 C 0.710938 3.066406 -0.101562 4.15625 0.0117188 5.355469 C 0.125 6.550781 1.128906 7.464844 2.332031 7.464844 L 5.054688 7.464844 C 5.097656 7.601562 5.144531 7.734375 5.203125 7.859375 C 3.226562 8.265625 1.8125 10.007812 1.832031 12.027344 C 1.828125 12.9375 2.117188 13.828125 2.65625 14.566406 C 1.015625 15.402344 -0.015625 17.09375 0 18.9375 C -0.03125 21.585938 2.089844 23.761719 4.738281 23.800781 C 5.53125 23.800781 6.308594 23.59375 7 23.207031 L 7 27.066406 L 0.46875 27.066406 C 0.210938 27.066406 0 27.273438 0 27.53125 C 0 27.789062 0.210938 28 0.46875 28 L 27.53125 28 C 27.789062 28 28 27.789062 28 27.53125 C 28 27.273438 27.789062 27.066406 27.53125 27.066406 L 27.066406 27.066406 L 27.066406 25.667969 L 27.53125 25.667969 C 27.789062 25.667969 28 25.457031 28 25.199219 C 28 24.941406 27.789062 24.734375 27.53125 24.734375 L 27.066406 24.734375 L 27.066406 24.265625 L 27.53125 24.265625 C 27.789062 24.265625 28 24.058594 28 23.800781 C 28 23.542969 27.789062 23.332031 27.53125 23.332031 L 27.066406 23.332031 L 27.066406 21.933594 Z M 4.882812 6.371094 C 4.882812 6.425781 4.886719 6.480469 4.890625 6.535156 L 2.332031 6.535156 C 1.558594 6.535156 0.933594 5.90625 0.933594 5.132812 C 0.933594 4.359375 1.558594 3.734375 2.332031 3.734375 C 2.457031 3.734375 2.574219 3.683594 2.664062 3.597656 C 2.75 3.507812 2.800781 3.390625 2.800781 3.265625 C 2.796875 2.050781 3.734375 1.035156 4.949219 0.941406 C 6.164062 0.847656 7.246094 1.703125 7.429688 2.90625 C 5.910156 3.371094 4.871094 4.78125 4.882812 6.371094 Z M 8.867188 27.066406 L 7.933594 27.066406 L 7.933594 22.519531 C 8.101562 22.363281 8.257812 22.195312 8.398438 22.019531 C 8.542969 22.195312 8.699219 22.363281 8.867188 22.519531 Z M 8.921875 21.136719 L 11.996094 18.0625 C 12.175781 17.878906 12.175781 17.585938 11.992188 17.40625 C 11.8125 17.226562 11.519531 17.222656 11.335938 17.402344 L 8.867188 19.875 L 8.867188 15.125 L 11.0625 12.929688 C 11.242188 12.746094 11.242188 12.453125 11.0625 12.273438 C 10.878906 12.089844 10.585938 12.089844 10.402344 12.269531 L 8.867188 13.808594 L 8.867188 11.667969 C 8.867188 11.410156 8.65625 11.199219 8.398438 11.199219 C 8.140625 11.199219 7.933594 11.410156 7.933594 11.667969 L 7.933594 13.808594 L 6.398438 12.269531 C 6.214844 12.089844 5.921875 12.089844 5.738281 12.273438 C 5.558594 12.453125 5.558594 12.746094 5.738281 12.929688 L 7.933594 15.125 L 7.933594 19.875 L 5.464844 17.402344 C 5.28125 17.222656 4.988281 17.222656 4.804688 17.40625 C 4.625 17.585938 4.625 17.878906 4.804688 18.0625 L 7.875 21.136719 C 7.195312 22.210938 6.011719 22.863281 4.738281 22.867188 C 2.605469 22.828125 0.902344 21.070312 0.933594 18.9375 C 0.914062 17.246094 1.980469 15.738281 3.578125 15.191406 C 3.734375 15.140625 3.851562 15.015625 3.886719 14.855469 C 3.925781 14.695312 3.875 14.53125 3.761719 14.417969 C 3.117188 13.789062 2.757812 12.925781 2.765625 12.027344 C 2.734375 10.246094 4.140625 8.773438 5.921875 8.722656 C 6.113281 8.738281 6.300781 8.636719 6.390625 8.46875 C 6.46875 8.3125 6.453125 8.121094 6.351562 7.980469 C 6.003906 7.515625 5.816406 6.953125 5.816406 6.371094 C 5.792969 4.921875 6.949219 3.722656 8.398438 3.699219 C 9.851562 3.722656 11.007812 4.921875 10.984375 6.371094 C 10.984375 6.953125 10.796875 7.515625 10.449219 7.980469 C 10.347656 8.125 10.335938 8.3125 10.417969 8.46875 C 10.5 8.625 10.664062 8.722656 10.839844 8.722656 C 12.632812 8.753906 14.0625 10.234375 14.035156 12.027344 C 14.039062 12.925781 13.683594 13.789062 13.039062 14.417969 C 12.925781 14.53125 12.875 14.695312 12.914062 14.855469 C 12.949219 15.015625 13.066406 15.140625 13.222656 15.191406 C 15.011719 15.820312 16.105469 17.632812 15.824219 19.511719 C 15.539062 21.386719 13.960938 22.796875 12.0625 22.867188 C 10.789062 22.863281 9.605469 22.210938 8.921875 21.136719 Z M 26.132812 27.066406 L 18.667969 27.066406 L 18.667969 25.667969 L 26.132812 25.667969 Z M 26.132812 24.734375 L 18.667969 24.734375 L 18.667969 24.265625 L 26.132812 24.265625 Z M 26.132812 23.332031 L 18.667969 23.332031 L 18.667969 21.933594 L 26.132812 21.933594 Z M 26.132812 23.332031 "/>
<path style=" stroke:none;fill-rule:nonzero;fill:rgb(0%,0%,0%);fill-opacity:1;" d="M 20.066406 11.667969 L 25.667969 11.667969 C 26.871094 11.667969 27.875 10.75 27.988281 9.554688 C 28.101562 8.355469 27.289062 7.269531 26.105469 7.042969 C 25.890625 5.414062 24.507812 4.199219 22.867188 4.199219 C 21.226562 4.199219 19.839844 5.414062 19.628906 7.042969 C 18.445312 7.269531 17.628906 8.355469 17.742188 9.554688 C 17.859375 10.75 18.863281 11.667969 20.066406 11.667969 Z M 20.066406 7.933594 C 20.191406 7.933594 20.308594 7.882812 20.398438 7.796875 C 20.484375 7.710938 20.535156 7.589844 20.535156 7.464844 C 20.535156 6.179688 21.578125 5.132812 22.867188 5.132812 C 24.15625 5.132812 25.199219 6.179688 25.199219 7.464844 C 25.199219 7.589844 25.25 7.710938 25.335938 7.796875 C 25.425781 7.882812 25.542969 7.933594 25.667969 7.933594 C 26.441406 7.933594 27.066406 8.558594 27.066406 9.332031 C 27.066406 10.105469 26.441406 10.734375 25.667969 10.734375 L 20.066406 10.734375 C 19.292969 10.734375 18.667969 10.105469 18.667969 9.332031 C 18.667969 8.558594 19.292969 7.933594 20.066406 7.933594 Z M 20.066406 7.933594 "/>
</g>
</svg>
