<?xml version="1.0" encoding="UTF-8"?>
<svg xmlns="http://www.w3.org/2000/svg" xmlns:xlink="http://www.w3.org/1999/xlink" width="28pt" height="28pt" viewBox="0 0 28 28" version="1.1">
<g id="surface1">
<path style=" stroke:none;fill-rule:nonzero;fill:rgb(0%,0%,0%);fill-opacity:1;" d="M 22.875 18.300781 L 18.941406 18.300781 C 17.359375 18.300781 15.921875 18.9375 14.875 19.964844 L 14.875 16.625 L 17.429688 16.625 C 20.285156 16.625 22.609375 14.300781 22.609375 11.445312 C 22.609375 10.960938 22.21875 10.570312 21.734375 10.570312 L 18.304688 10.570312 C 16.992188 10.570312 15.789062 11.0625 14.875 11.871094 L 14.875 9.753906 L 15.742188 8.886719 C 16.746094 7.882812 17.296875 6.550781 17.296875 5.132812 C 17.296875 3.714844 16.746094 2.382812 15.742188 1.378906 L 14.617188 0.257812 C 14.277344 -0.0859375 13.722656 -0.0859375 13.382812 0.257812 L 12.257812 1.378906 C 11.253906 2.382812 10.703125 3.714844 10.703125 5.132812 C 10.703125 6.550781 11.253906 7.882812 12.257812 8.886719 L 13.125 9.753906 L 13.125 11.871094 C 12.210938 11.0625 11.007812 10.570312 9.695312 10.570312 L 6.265625 10.570312 C 5.78125 10.570312 5.390625 10.960938 5.390625 11.445312 C 5.390625 14.300781 7.714844 16.625 10.570312 16.625 L 13.125 16.625 L 13.125 19.964844 C 12.078125 18.9375 10.640625 18.300781 9.058594 18.300781 L 5.125 18.300781 C 4.644531 18.300781 4.25 18.691406 4.25 19.175781 C 4.25 22.382812 6.859375 24.988281 10.066406 24.988281 L 13.125 24.988281 L 13.125 27.125 C 13.125 27.609375 13.515625 28 14 28 C 14.484375 28 14.875 27.609375 14.875 27.125 L 14.875 24.988281 L 17.933594 24.988281 C 21.140625 24.988281 23.75 22.382812 23.75 19.175781 C 23.75 18.691406 23.355469 18.300781 22.875 18.300781 Z M 18.304688 12.316406 L 20.746094 12.316406 C 20.359375 13.789062 19.019531 14.875 17.429688 14.875 L 14.988281 14.875 C 15.375 13.40625 16.714844 12.316406 18.304688 12.316406 Z M 10.570312 14.875 C 8.980469 14.875 7.640625 13.789062 7.253906 12.316406 L 9.695312 12.316406 C 11.285156 12.316406 12.625 13.40625 13.011719 14.875 Z M 10.066406 23.242188 C 8.125 23.242188 6.496094 21.875 6.09375 20.050781 L 9.058594 20.050781 C 11 20.050781 12.628906 21.417969 13.03125 23.242188 Z M 14 8.019531 C 13.71875 8.019531 12.453125 6.835938 12.453125 5.132812 C 12.453125 3.496094 13.433594 2.679688 14 2.109375 C 14.546875 2.660156 15.546875 3.480469 15.546875 5.132812 C 15.546875 6.800781 14.300781 8.019531 14 8.019531 Z M 17.933594 23.242188 L 14.96875 23.242188 C 15.371094 21.417969 17 20.050781 18.941406 20.050781 L 21.90625 20.050781 C 21.503906 21.875 19.875 23.242188 17.933594 23.242188 Z M 17.933594 23.242188 "/>
</g>
</svg>
