<?xml version="1.0" encoding="UTF-8"?>
<svg xmlns="http://www.w3.org/2000/svg" xmlns:xlink="http://www.w3.org/1999/xlink" width="28pt" height="28pt" viewBox="0 0 28 28" version="1.1">
<g id="surface1">
<path style=" stroke:none;fill-rule:nonzero;fill:rgb(0%,0%,0%);fill-opacity:1;" d="M 22.625 13.878906 C 22.625 15.617188 22.472656 17.15625 22.171875 18.5625 C 21.867188 20.035156 21.414062 21.238281 20.65625 22.242188 C 19.976562 23.246094 19.070312 24.046875 17.859375 24.582031 C 16.722656 25.183594 15.363281 25.453125 13.621094 25.453125 C 12.035156 25.453125 10.75 25.183594 9.613281 24.71875 C 8.554688 24.183594 7.648438 23.445312 6.964844 22.507812 C 6.359375 21.503906 5.832031 20.300781 5.605469 18.898438 C 5.300781 17.492188 5.152344 15.820312 5.152344 14.011719 C 5.152344 12.273438 5.300781 10.734375 5.605469 9.328125 C 5.984375 7.859375 6.4375 6.652344 7.191406 5.648438 C 7.875 4.644531 8.78125 3.84375 9.917969 3.242188 C 11.050781 2.707031 12.488281 2.4375 14.152344 2.4375 C 15.742188 2.4375 17.101562 2.707031 18.160156 3.175781 C 19.296875 3.710938 20.128906 4.445312 20.808594 5.382812 C 21.488281 6.386719 21.945312 7.589844 22.246094 8.996094 C 22.550781 10.398438 22.625 12.074219 22.625 13.878906 Z M 19.21875 14.078125 C 19.21875 13.007812 19.144531 12.003906 19.070312 11.070312 C 18.992188 10.199219 18.84375 9.394531 18.691406 8.726562 C 18.464844 8.058594 18.238281 7.457031 18.011719 6.988281 C 17.707031 6.519531 17.40625 6.117188 16.953125 5.785156 C 16.574219 5.449219 16.121094 5.25 15.664062 5.113281 C 15.136719 4.980469 14.605469 4.847656 13.925781 4.847656 C 12.867188 4.847656 11.957031 5.113281 11.277344 5.582031 C 10.597656 6.050781 9.992188 6.652344 9.613281 7.457031 C 9.234375 8.257812 8.933594 9.195312 8.855469 10.332031 C 8.707031 11.402344 8.628906 12.539062 8.628906 13.8125 C 8.628906 15.417969 8.707031 16.890625 8.933594 18.027344 C 9.085938 19.230469 9.386719 20.167969 9.839844 20.902344 C 10.21875 21.640625 10.824219 22.175781 11.429688 22.507812 C 12.109375 22.84375 12.941406 22.976562 13.851562 22.976562 C 14.605469 22.976562 15.210938 22.910156 15.742188 22.710938 C 16.347656 22.507812 16.800781 22.175781 17.179688 21.773438 C 17.554688 21.4375 17.933594 20.96875 18.160156 20.433594 C 18.464844 19.898438 18.617188 19.296875 18.84375 18.628906 C 18.992188 17.960938 19.070312 17.222656 19.144531 16.488281 C 19.21875 15.753906 19.21875 14.949219 19.21875 14.078125 Z M 19.21875 14.078125 "/>
</g>
</svg>
