<svg xmlns:xlink="http://www.w3.org/1999/xlink" xmlns="http://www.w3.org/2000/svg" width="210.237" height="44.855" viewBox="0 0 210.237 44.855">
							<g id="Group_69" data-name="Group 69" transform="translate(-163 -189.165)" fill="#EC695C">
								<g id="Group_9" data-name="Group 9" transform="translate(229.588 222.858)" fill="#EC695C">
								<path id="Path_6" data-name="Path 6" d="M1.468.6A1.842,1.842,0,0,0,.456.849a.839.839,0,0,0-.4.761.889.889,0,0,0,.4.781,6.059,6.059,0,0,0,1.685.582,4.63,4.63,0,0,1,1.944.875,2.074,2.074,0,0,1,.652,1.663A2.2,2.2,0,0,1,3.91,7.291a3.3,3.3,0,0,1-2.172.685A5.094,5.094,0,0,1-1.753,6.619l.888-1.066a4,4,0,0,0,2.641,1.1,1.8,1.8,0,0,0,1.086-.294.92.92,0,0,0,.4-.779.877.877,0,0,0-.379-.757,4.016,4.016,0,0,0-1.3-.492,11.315,11.315,0,0,1-1.4-.408A3.147,3.147,0,0,1-.673,3.44a2.028,2.028,0,0,1-.746-1.727A2.1,2.1,0,0,1-.57-.083,3.393,3.393,0,0,1,1.521-.711a4.949,4.949,0,0,1,1.6.265A4.159,4.159,0,0,1,4.487.3L3.73,1.364A2.829,2.829,0,0,0,2.721.812,3.844,3.844,0,0,0,1.468.6" transform="translate(1.753 0.711)" fill="#333333"></path>
								</g>
								<g id="Group_10" data-name="Group 10" transform="translate(243.363 223.061)" fill="#EC695C">
								<path id="Path_7" data-name="Path 7" d="M.646,3.822H-.771V-4.564H1.438L3.97.7,6.5-4.564H8.7V3.822H7.281V-2.728L4.354,3.091H3.562L.646-2.728Z" transform="translate(0.771 4.564)" fill="#333333"></path>
								</g>
								<g id="Group_11" data-name="Group 11" transform="translate(259.513 223.06)" fill="#EC695C">
								<path id="Path_8" data-name="Path 8" d="M1.072,2.954.232,4.861H-1.28l3.7-8.388h1.51l3.7,8.388H6.11l-.84-1.907ZM4.694,1.646,3.172-1.811,1.647,1.646Z" transform="translate(1.28 3.527)" fill="#333333"></path>
								</g>
								<g id="Group_12" data-name="Group 12" transform="translate(275.105 223.062)" fill="#EC695C">
								<path id="Path_9" data-name="Path 9" d="M3.052,1.241A2.438,2.438,0,0,1,1.24,3.858L3.436,6.9h-1.8l-2-2.819H-2.229V6.9H-3.644V-1.482h3.12a4.519,4.519,0,0,1,2.747.647,2.473,2.473,0,0,1,.829,2.076M-.463,2.8A2.6,2.6,0,0,0,1.168,2.43a1.5,1.5,0,0,0,.432-1.2A1.273,1.273,0,0,0,1.156.107,2.951,2.951,0,0,0-.428-.2h-1.8v3Z" transform="translate(3.644 1.482)" fill="#333333"></path>
								</g>
								<g id="Group_13" data-name="Group 13" transform="translate(288.578 223.062)" fill="#EC695C">
								<path id="Path_10" data-name="Path 10" d="M1.8.59V7.681H.388V.59H-2.155V-.7h6.5V.59Z" transform="translate(2.155 0.705)" fill="#333333"></path>
								</g>
								<g id="Group_14" data-name="Group 14" transform="translate(310.939 223.061)" fill="#EC695C">
								<path id="Path_11" data-name="Path 11" d="M0,3.822V-4.564H1.417V-.928H5.579V-4.564H7V3.822H5.579V.392H1.417V3.822Z" transform="translate(0 4.564)" fill="#333333"></path>
								</g>
								<g id="Group_15" data-name="Group 15" transform="translate(325.25 222.857)" fill="#EC695C">
								<path id="Path_12" data-name="Path 12" d="M2.972,1A2.811,2.811,0,0,0,.867.106,2.808,2.808,0,0,0-1.239,1,2.977,2.977,0,0,0-2.1,3.149,2.98,2.98,0,0,0-1.239,5.3,2.813,2.813,0,0,0,.867,6.19,2.816,2.816,0,0,0,2.972,5.3a2.986,2.986,0,0,0,.856-2.154A2.983,2.983,0,0,0,2.972,1m1.038,5.25A4.33,4.33,0,0,1,.867,7.486,4.318,4.318,0,0,1-2.277,6.244,4.143,4.143,0,0,1-3.549,3.149,4.145,4.145,0,0,1-2.277.053,4.318,4.318,0,0,1,.867-1.189,4.324,4.324,0,0,1,4.011.053a4.152,4.152,0,0,1,1.272,3.1,4.157,4.157,0,0,1-1.272,3.1" transform="translate(3.549 1.189)" fill="#333333"></path>
								</g>
								<g id="Group_16" data-name="Group 16" transform="translate(341.391 223.061)" fill="#EC695C">
								<path id="Path_13" data-name="Path 13" d="M.646,3.822H-.771V-4.564H1.438L3.968.7,6.5-4.564H8.7V3.822H7.281V-2.728L4.352,3.091h-.79L.646-2.728Z" transform="translate(0.771 4.564)" fill="#333333"></path>
								</g>
								<g id="Group_17" data-name="Group 17" transform="translate(358.701 223.061)" fill="#EC695C">
								<path id="Path_14" data-name="Path 14" d="M2.686,0V1.33H-1.79V3.55H2.228V4.811H-1.79V7.056h4.62v1.33H-3.207V0Z" transform="translate(3.207)" fill="#333333"></path>
								</g>
								<g id="Group_5" data-name="Group 5" transform="translate(163 216.06)" fill="#EC695C">
								<path id="Path_2" data-name="Path 2" d="M2.878,0A6.046,6.046,0,0,0,.22.764,14.424,14.424,0,0,0-3.174,3.516a21.635,21.635,0,0,0,.384,8.614,8.2,8.2,0,0,0,3.932,4.853,8.14,8.14,0,0,0,7.113.268,28.031,28.031,0,0,0,7.534-5q-.885-1.453-1.8-2.881C13.121,8.1,12.307,6.78,11.353,5.6A17.334,17.334,0,0,0,5.975.635C5.879.6,5.694.527,5.6.485A6.388,6.388,0,0,0,2.878,0" transform="translate(3.437 0.004)" fill="#ECA05C"></path>
								</g>
								<g id="Group_6" data-name="Group 6" transform="translate(163.221 189.165)" fill="#EC695C">
								<path id="Path_3" data-name="Path 3" d="M10.974,0A14.587,14.587,0,0,0,8.692.219C-.691,2.354-7.872,13.517-10.8,21.563c-1.018,2.9-2.172,5.838-2.3,8.94a17.141,17.141,0,0,1,3.921-4.585,7.45,7.45,0,0,1,5.461-1.43c.1.017.314.04.417.055A17.406,17.406,0,0,1,3.15,27.735c1.2.832,2.286,1.814,3.416,2.74,1.174,1.025,2.312,2.091,3.458,3.144.3.285.608.568.91.854,3.047,2.677,6.082,5.7,9.219,7.764a16.373,16.373,0,0,0,4.724,2.339,8.11,8.11,0,0,0,8.385-2.727,10.92,10.92,0,0,0,2.01-5.312,26.752,26.752,0,0,0-1.531-12.3C29.932,13.871,22.012.165,10.974,0" transform="translate(13.103)" fill="#EC695C"></path>
								</g>
								<g id="Group_8" data-name="Group 8" transform="translate(229.576 192.032)" fill="#EC695C">
								<path id="Path_5" data-name="Path 5" d="M17.848,0c-3.486,0-6.154.61-7.988,1.86a6.433,6.433,0,0,0-2.8,5.623v12.69a2.351,2.351,0,0,0,.575,1.679,2.248,2.248,0,0,0,1.645.573c.59,0,1.038-.007,1.4-.033a2.153,2.153,0,0,0,.788-.147c.017-.006.018-.028.033-.035s.026,0,.037,0a1.862,1.862,0,0,0,.9-.755,2.531,2.531,0,0,0,.281-1.283V6.986c0-.684.34-1.121,1.251-1.51a11.911,11.911,0,0,1,4.373-.608c.14,0,.322-.007.54,0,.2.007.458.031.72.046.026,0,.042,0,.068,0a.2.2,0,0,1,.033,0,1.779,1.779,0,0,0,.182.033h1.183a7.046,7.046,0,0,1,2.828.4,2.123,2.123,0,0,1,1.115,2.187V20.172a2.336,2.336,0,0,0,.562,1.679,2.37,2.37,0,0,0,1.691.573c.59,0,1.038-.007,1.4-.033a2.146,2.146,0,0,0,.788-.147c.017-.006.018-.028.033-.035s.026,0,.035,0a1.849,1.849,0,0,0,.9-.755,2.471,2.471,0,0,0,.281-1.283V7.561a2.352,2.352,0,0,1,.428-1.476A2.575,2.575,0,0,1,32.5,5.263a18.651,18.651,0,0,1,3.73-.4.4.4,0,0,0,.066,0s.029,0,.035,0c.028,0,.086,0,.147,0h.891a11.852,11.852,0,0,1,4.337.608c.9.384,1.216.809,1.216,1.477V20.172a2.471,2.471,0,0,0,.329,1.283,1.815,1.815,0,0,0,.891.755c.007,0,.022,0,.033,0s.028.029.046.035a1.93,1.93,0,0,0,.742.147c.36.026.854.033,1.442.033a2.245,2.245,0,0,0,1.645-.573,2.351,2.351,0,0,0,.575-1.679V7.482A6.517,6.517,0,0,0,45.931,1.86C44.16.606,41.6,0,38.236,0a46.671,46.671,0,0,0-5.343.215,12.848,12.848,0,0,0-4.947,1.61,13.257,13.257,0,0,0-4.8-1.646.221.221,0,0,1-.035,0A18,18,0,0,0,21.172.033C20.309.011,19.21,0,17.848,0M62.632,0c-3.295,0-5.68.314-7.234,1-.009,0-.037,0-.044,0v.033a5.975,5.975,0,0,0-3.969,5.838V26.155a1.985,1.985,0,0,0,2.176,2.187c.582,0,1.086-.006,1.442-.035a2.07,2.07,0,0,0,1.713-.9,2.343,2.343,0,0,0,.327-1.25v-3.91h9.669c3.455,0,6.1-.573,7.923-1.759a6.057,6.057,0,0,0,2.76-5.364V6.806a5.666,5.666,0,0,0-3.087-5.16C72.3.529,69.4,0,65.572,0ZM99.82,0a15.911,15.911,0,0,0-7.234,1.5C89.9,2.789,88.427,4.811,88.427,7.381v7.911c0,2.571,1.487,4.557,4.193,5.768a18.569,18.569,0,0,0,7.232,1.365h3.258a15.706,15.706,0,0,0,7.067-1.365,6.125,6.125,0,0,0,3.9-5.768V7.346a6.3,6.3,0,0,0-2.828-5.555C109.382.573,106.656,0,103.111,0ZM-9.918.033A16.117,16.117,0,0,0-17.2,1.5c-2.688,1.29-4.114,3.313-4.114,5.884v7.911c0,2.571,1.487,4.557,4.193,5.768a18.389,18.389,0,0,0,7.2,1.365h2.863a1.976,1.976,0,0,0,1.431-.5,1.968,1.968,0,0,0,.54-1.442c0-.5-.04-.91-.066-1.216a1.741,1.741,0,0,0-.114-.643c0-.007-.031.006-.035,0s.007-.05,0-.068a1.589,1.589,0,0,0-.639-.788,2.216,2.216,0,0,0-1.117-.246H-9.85a13.317,13.317,0,0,1-3.686-.474,4.241,4.241,0,0,1-1.643-.788,1.226,1.226,0,0,1-.474-.97V7.381a1.352,1.352,0,0,1,.474-1.036,4.044,4.044,0,0,1,1.61-.9,12.443,12.443,0,0,1,3.719-.5h3.087a11.175,11.175,0,0,1,4.191.61c.873.377,1.185.79,1.185,1.465V20.205a2.233,2.233,0,0,0,.564,1.646,2.294,2.294,0,0,0,1.654.573c.6,0,1.073-.009,1.431-.033a1.952,1.952,0,0,0,.755-.147c.017-.006.018-.028.035-.035s.024,0,.035,0a1.809,1.809,0,0,0,.889-.72A2.436,2.436,0,0,0,4.3,20.205V7.346a6.252,6.252,0,0,0-2.83-5.522C-.387.608-3.083.033-6.627.033ZM82.332.066a2.29,2.29,0,0,0-1.646.575,2.165,2.165,0,0,0-.575,1.612V20.025a2.628,2.628,0,0,0,.292,1.3,1.693,1.693,0,0,0,.858.709c.009.006.024,0,.033,0s.018.029.033.035a2.061,2.061,0,0,0,.755.145c.356.028.816.035,1.4.035a2.379,2.379,0,0,0,1.691-.575,2.243,2.243,0,0,0,.564-1.645V2.253A2.41,2.41,0,0,0,85.419,1a1.709,1.709,0,0,0-.858-.722c-.022-.011-.057.011-.079,0A1.994,1.994,0,0,0,83.727.1c-.351-.028-.821-.035-1.395-.035M62.845,4.9h2.764a25.366,25.366,0,0,1,3.829.182A3.917,3.917,0,0,1,71.2,5.8a1.292,1.292,0,0,1,.494,1.069v8.317a1.622,1.622,0,0,1-1.1,1.578,9.454,9.454,0,0,1-3.877.606H57.043V6.986a1.211,1.211,0,0,1,.283-.823,2.326,2.326,0,0,1,.968-.641A13.011,13.011,0,0,1,62.845,4.9m37.043.046h3.122a11.108,11.108,0,0,1,4.158.575c.867.379,1.183.825,1.183,1.5v8.271a1.157,1.157,0,0,1-.439.9,4.042,4.042,0,0,1-1.533.825,10.918,10.918,0,0,1-3.37.507H99.923a13.417,13.417,0,0,1-3.686-.441,4.347,4.347,0,0,1-1.678-.821,1.22,1.22,0,0,1-.474-.97V7.381A1.437,1.437,0,0,1,94.559,6.3,4.222,4.222,0,0,1,96.2,5.443a12.167,12.167,0,0,1,3.686-.5" transform="translate(21.311 0)" fill="#333333"></path>
								</g>
								<g id="Group_18" data-name="Group 18" transform="translate(367.352 192.031)" fill="#EC695C">
								<path id="Path_15" data-name="Path 15" d="M.607.2V2.584H.129V.2H-.725V-.237H1.463V.2Z" transform="translate(0.725 0.237)" fill="#333333"></path>
								</g>
								<g id="Group_19" data-name="Group 19" transform="translate(370.053 192.032)" fill="#EC695C">
								<path id="Path_16" data-name="Path 16" d="M.218,1.286H-.26V-1.535H.484L1.335.236l.851-1.771h.739V1.286H2.449v-2.2L1.465,1.039H1.2L.218-.918Z" transform="translate(0.26 1.535)" fill="#333333"></path>
								</g>
							</g>
						</svg>