<?xml version="1.0" encoding="UTF-8" standalone="no"?>
<svg
   version="1.1"
   id="Warstwa_1"
   x="0px"
   y="0px"
   viewBox="0 0 208.6 208.6"
   style="enable-background:new 0 0 208.6 208.6;"
   xml:space="preserve"
   width="208.6"
   height="208.6"
   sodipodi:docname="keyboards.svg"
   inkscape:version="1.1 (c4e8f9e, 2021-05-24)"
   xmlns:inkscape="http://www.inkscape.org/namespaces/inkscape"
   xmlns:sodipodi="http://sodipodi.sourceforge.net/DTD/sodipodi-0.dtd"
   xmlns="http://www.w3.org/2000/svg"
   xmlns:svg="http://www.w3.org/2000/svg"
   xmlns:rdf="http://www.w3.org/1999/02/22-rdf-syntax-ns#"
   xmlns:cc="http://creativecommons.org/ns#"
   xmlns:dc="http://purl.org/dc/elements/1.1/"><metadata
   id="metadata173"><rdf:RDF><cc:Work
       rdf:about=""><dc:format>image/svg+xml</dc:format><dc:type
         rdf:resource="http://purl.org/dc/dcmitype/StillImage" /><dc:title /></cc:Work></rdf:RDF></metadata><defs
   id="defs171">   <clipPath
   clipPathUnits="userSpaceOnUse"
   id="clipPath1136"><path
     d="M 0,0 H 21.26 V 21.26 H 0 Z"
     id="path1134" /></clipPath><clipPath
   clipPathUnits="userSpaceOnUse"
   id="clipPath1148"><path
     d="M 0,0 H 21.26 V 21.26 H 0 Z"
     id="path1146" /></clipPath><clipPath
   clipPathUnits="userSpaceOnUse"
   id="clipPath1164"><path
     d="M 0,0 H 21.26 V 21.26 H 0 Z"
     id="path1162" /></clipPath><clipPath
   clipPathUnits="userSpaceOnUse"
   id="clipPath1176"><path
     d="M 0,0 H 21.26 V 21.26 H 0 Z"
     id="path1174" /></clipPath><clipPath
   clipPathUnits="userSpaceOnUse"
   id="clipPath1192"><path
     d="M 0,0 H 21.26 V 21.26 H 0 Z"
     id="path1190" /></clipPath><clipPath
   clipPathUnits="userSpaceOnUse"
   id="clipPath1204"><path
     d="M 0,0 H 21.26 V 21.26 H 0 Z"
     id="path1202" /></clipPath><clipPath
   clipPathUnits="userSpaceOnUse"
   id="clipPath1220"><path
     d="M 0,0 H 21.26 V 21.26 H 0 Z"
     id="path1218" /></clipPath><clipPath
   clipPathUnits="userSpaceOnUse"
   id="clipPath1232"><path
     d="M 0,0 H 21.26 V 21.26 H 0 Z"
     id="path1230" /></clipPath><clipPath
   clipPathUnits="userSpaceOnUse"
   id="clipPath1248"><path
     d="M 0,0 H 21.26 V 21.26 H 0 Z"
     id="path1246" /></clipPath><clipPath
   clipPathUnits="userSpaceOnUse"
   id="clipPath1260"><path
     d="M 0,0 H 21.26 V 21.26 H 0 Z"
     id="path1258" /></clipPath><clipPath
   clipPathUnits="userSpaceOnUse"
   id="clipPath1276"><path
     d="M 0,0 H 21.26 V 21.26 H 0 Z"
     id="path1274" /></clipPath><clipPath
   clipPathUnits="userSpaceOnUse"
   id="clipPath1288"><path
     d="M 0,0 H 21.26 V 21.26 H 0 Z"
     id="path1286" /></clipPath><clipPath
   clipPathUnits="userSpaceOnUse"
   id="clipPath1304"><path
     d="M 0,0 H 21.26 V 21.26 H 0 Z"
     id="path1302" /></clipPath><clipPath
   clipPathUnits="userSpaceOnUse"
   id="clipPath1316"><path
     d="M 0,0 H 21.26 V 21.26 H 0 Z"
     id="path1314" /></clipPath><clipPath
   clipPathUnits="userSpaceOnUse"
   id="clipPath1332"><path
     d="M 0,0 H 21.26 V 21.26 H 0 Z"
     id="path1330" /></clipPath><clipPath
   clipPathUnits="userSpaceOnUse"
   id="clipPath1344"><path
     d="M 0,0 H 21.26 V 21.26 H 0 Z"
     id="path1342" /></clipPath><clipPath
   clipPathUnits="userSpaceOnUse"
   id="clipPath1360"><path
     d="M 0,0 H 21.26 V 21.26 H 0 Z"
     id="path1358" /></clipPath><clipPath
   clipPathUnits="userSpaceOnUse"
   id="clipPath1372"><path
     d="M 0,0 H 21.26 V 21.26 H 0 Z"
     id="path1370" /></clipPath><clipPath
   clipPathUnits="userSpaceOnUse"
   id="clipPath1388"><path
     d="M 0,0 H 21.26 V 21.26 H 0 Z"
     id="path1386" /></clipPath><clipPath
   clipPathUnits="userSpaceOnUse"
   id="clipPath1400"><path
     d="M 0,0 H 21.26 V 21.26 H 0 Z"
     id="path1398" /></clipPath><clipPath
   clipPathUnits="userSpaceOnUse"
   id="clipPath1416"><path
     d="M 0,0 H 21.26 V 21.26 H 0 Z"
     id="path1414" /></clipPath><clipPath
   clipPathUnits="userSpaceOnUse"
   id="clipPath1428"><path
     d="M 0,0 H 21.26 V 21.26 H 0 Z"
     id="path1426" /></clipPath><clipPath
   clipPathUnits="userSpaceOnUse"
   id="clipPath1444"><path
     d="M 0,0 H 21.26 V 21.26 H 0 Z"
     id="path1442" /></clipPath><clipPath
   clipPathUnits="userSpaceOnUse"
   id="clipPath1456"><path
     d="M 0,0 H 21.26 V 21.26 H 0 Z"
     id="path1454" /></clipPath></defs><sodipodi:namedview
   pagecolor="#ffffff"
   bordercolor="#666666"
   borderopacity="1"
   objecttolerance="10"
   gridtolerance="10"
   guidetolerance="10"
   inkscape:pageopacity="0"
   inkscape:pageshadow="2"
   inkscape:window-width="1920"
   inkscape:window-height="1200"
   id="namedview169"
   showgrid="false"
   inkscape:zoom="1.7681026"
   inkscape:cx="61.365217"
   inkscape:cy="119.90254"
   inkscape:window-x="0"
   inkscape:window-y="0"
   inkscape:window-maximized="0"
   inkscape:current-layer="Warstwa_1"
   inkscape:document-rotation="0"
   inkscape:pagecheckerboard="0" /> <style
   type="text/css"
   id="style152"> .st0{fill:#ED695C;} .st1{fill:none;stroke:#ED695C;stroke-width:5;stroke-miterlimit:10;} .st2{fill:none;stroke:#ED695C;stroke-width:5;stroke-linecap:round;stroke-miterlimit:10;} .st3{fill:#ED695C;stroke:#ED6A5C;stroke-miterlimit:10;} .st4{fill:#ED695C;stroke:#ED6A5C;stroke-width:1.5;stroke-miterlimit:10;} .st5{fill:none;stroke:#ED695C;stroke-width:4;stroke-miterlimit:10;} .st6{fill:none;stroke:#ED695C;stroke-miterlimit:10;} .st7{fill:none;stroke:#ED695C;stroke-width:4;stroke-linecap:round;stroke-miterlimit:10;} .st8{fill:#ED695C;stroke:#ED6A5C;stroke-width:0.5;stroke-miterlimit:10;} .st9{fill:none;stroke:#ED695C;stroke-width:2;stroke-miterlimit:10;} .st10{fill:#ED6A5C;} .st11{fill:#ED695C;stroke:#ED6A5C;stroke-width:0.25;stroke-miterlimit:10;} .st12{fill-rule:evenodd;clip-rule:evenodd;fill:#ED695C;} .st13{fill:#F2F2F2;} </style> <circle
   class="st1"
   cx="104.3"
   cy="104.3"
   r="101.8"
   id="circle154"
   style="fill:#ed695c;fill-opacity:1" /> <style
   type="text/css"
   id="style152-0"> .st0{fill:#ED695C;} .st1{fill:none;stroke:#ED695C;stroke-width:5;stroke-miterlimit:10;} .st2{fill:none;stroke:#ED695C;stroke-width:5;stroke-linecap:round;stroke-miterlimit:10;} .st3{fill:#ED695C;stroke:#ED6A5C;stroke-miterlimit:10;} .st4{fill:#ED695C;stroke:#ED6A5C;stroke-width:1.5;stroke-miterlimit:10;} .st5{fill:none;stroke:#ED695C;stroke-width:4;stroke-miterlimit:10;} .st6{fill:none;stroke:#ED695C;stroke-miterlimit:10;} .st7{fill:none;stroke:#ED695C;stroke-width:4;stroke-linecap:round;stroke-miterlimit:10;} .st8{fill:#ED695C;stroke:#ED6A5C;stroke-width:0.5;stroke-miterlimit:10;} .st9{fill:none;stroke:#ED695C;stroke-width:2;stroke-miterlimit:10;} .st10{fill:#ED6A5C;} .st11{fill:#ED695C;stroke:#ED6A5C;stroke-width:0.25;stroke-miterlimit:10;} .st12{fill-rule:evenodd;clip-rule:evenodd;fill:#ED695C;} .st13{fill:#F2F2F2;} </style><g
   id="g17101-4-7-5-4"
   transform="matrix(0,2.438252,-2.438252,0,89.633036,252.0611)"
   style="fill:#ffffff;fill-opacity:1"><g
     id="g13874-3-8-3-9"
     style="fill:#ffffff;fill-opacity:1"
     transform="matrix(3.7795276,0,0,3.7795276,-178.58847,-147.15284)" /></g><g
   id="g4672"
   transform="matrix(2.3943599,0,0,2.3943599,-40.461594,-34.875378)"><g
     id="g1128"
     transform="matrix(1.3421229,0,0,-1.3421229,33.273515,53.493535)"><g
       id="g1130"><g
         id="g1132"
         clip-path="url(#clipPath1136)"><g
           id="g1138"
           transform="matrix(1,0,0,-1,0,21.26)"><g
             id="g1140"><g
               id="g1142"><g
                 id="g1144"
                 clip-path="url(#clipPath1148)"><g
                   id="g1150"><g
                     id="g1152"><path
                       d="m 15.44,18.18 c 0,0.15 0,0.31 -0.05,0.41 0,0.15 -0.05,0.21 -0.1,0.31 -0.05,0.05 -0.11,0.1 -0.16,0.15 -0.05,0 -0.1,0.05 -0.15,0.05 H 6.03 C 5.98,19.1 5.92,19.05 5.87,19.05 5.82,19 5.77,18.95 5.72,18.9 5.67,18.8 5.62,18.74 5.57,18.59 v -0.82 c 0.05,-0.1 0.1,-0.2 0.1,-0.25 0.05,-0.11 0.1,-0.16 0.15,-0.21 0.05,0 0.16,-0.05 0.21,-0.05 h 3.58 v -13 L 6.28,6.21 C 6.13,6.31 5.98,6.36 5.87,6.36 5.77,6.41 5.67,6.36 5.62,6.31 5.57,6.25 5.52,6.15 5.52,6.05 5.46,5.9 5.46,5.74 5.46,5.54 V 5.13 c 0.06,-0.1 0.06,-0.16 0.11,-0.26 0,-0.05 0.05,-0.1 0.1,-0.15 0.05,-0.05 0.1,-0.1 0.2,-0.21 l 3.94,-2.5 c 0,0 0.05,-0.06 0.1,-0.06 0.06,0 0.16,-0.05 0.21,-0.05 0.1,0 0.15,-0.05 0.31,-0.05 h 0.35 c 0.21,0 0.41,0 0.57,0.05 0.1,0 0.25,0 0.3,0.05 0.11,0.06 0.16,0.06 0.16,0.11 0.05,0.05 0.05,0.1 0.05,0.15 v 15.05 h 3.07 c 0.1,0 0.15,0.05 0.2,0.05 0.11,0.05 0.16,0.1 0.16,0.21 0.05,0.05 0.1,0.15 0.1,0.25 0.05,0.1 0.05,0.26 0.05,0.41 z"
                       style="fill:#ffffff;fill-opacity:1;fill-rule:nonzero;stroke:none"
                       id="path1154" /></g></g></g></g></g></g></g></g></g><g
     id="g1156"
     transform="matrix(1.3421229,0,0,-1.3421229,65.771406,53.493535)"><g
       id="g1158"><g
         id="g1160"
         clip-path="url(#clipPath1164)"><g
           id="g1166"
           transform="matrix(1,0,0,-1,0,21.26)"><g
             id="g1168"><g
               id="g1170"><g
                 id="g1172"
                 clip-path="url(#clipPath1176)"><g
                   id="g1178"><g
                     id="g1180"><path
                       d="m 15.87,18.14 c 0,0.15 0,0.25 -0.06,0.4 0,0.1 -0.05,0.21 -0.1,0.31 0,0.1 -0.05,0.15 -0.15,0.2 -0.05,0 -0.1,0.05 -0.2,0.05 H 5.95 C 5.85,19.1 5.75,19.05 5.64,19.05 5.54,19 5.44,18.95 5.39,18.9 5.34,18.85 5.29,18.7 5.24,18.59 c 0,-0.15 -0.05,-0.3 -0.05,-0.51 0,-0.15 0.05,-0.3 0.05,-0.45 0,-0.1 0.05,-0.21 0.05,-0.31 0.05,-0.1 0.1,-0.2 0.2,-0.3 0.05,-0.1 0.15,-0.21 0.26,-0.36 l 3.4,-3.46 c 0.77,-0.81 1.43,-1.58 1.88,-2.19 0.46,-0.66 0.87,-1.22 1.12,-1.78 0.26,-0.51 0.41,-0.97 0.51,-1.42 0.05,-0.41 0.1,-0.82 0.1,-1.17 0,-0.41 -0.05,-0.77 -0.2,-1.12 C 12.46,5.21 12.25,4.91 12,4.65 11.8,4.4 11.49,4.19 11.14,4.04 10.78,3.89 10.32,3.84 9.86,3.84 9.3,3.84 8.85,3.89 8.39,4.04 7.93,4.19 7.58,4.35 7.22,4.55 6.91,4.7 6.61,4.85 6.41,5.01 6.2,5.16 6.05,5.26 5.9,5.26 5.85,5.26 5.79,5.21 5.75,5.21 5.7,5.16 5.64,5.11 5.64,5.01 5.59,4.96 5.59,4.85 5.54,4.7 V 3.89 c 0,-0.1 0,-0.15 0.05,-0.26 0,-0.05 0.05,-0.15 0.11,-0.2 0,-0.05 0.09,-0.1 0.2,-0.2 C 6,3.13 6.15,3.02 6.41,2.82 6.66,2.67 7.02,2.51 7.42,2.36 7.78,2.21 8.24,2.11 8.7,2.01 9.15,1.9 9.66,1.85 10.17,1.85 c 0.81,0 1.53,0.1 2.14,0.31 0.66,0.25 1.17,0.56 1.57,0.97 0.41,0.4 0.72,0.86 0.92,1.42 0.2,0.51 0.3,1.07 0.3,1.68 0,0.56 -0.05,1.12 -0.15,1.63 -0.1,0.56 -0.3,1.12 -0.61,1.78 -0.3,0.61 -0.76,1.32 -1.37,2.08 -0.56,0.77 -1.38,1.63 -2.34,2.65 l -2.7,2.8 h 7.43 c 0.05,0 0.1,0 0.2,0.05 0.05,0.05 0.1,0.1 0.15,0.2 0.05,0.06 0.1,0.16 0.1,0.31 0.06,0.1 0.06,0.25 0.06,0.41 z"
                       style="fill:#ffffff;fill-opacity:1;fill-rule:nonzero;stroke:none"
                       id="path1182" /></g></g></g></g></g></g></g></g></g><g
     id="g1184"
     transform="matrix(1.3421229,0,0,-1.3421229,97.26974,53.493535)"><g
       id="g1186"><g
         id="g1188"
         clip-path="url(#clipPath1192)"><g
           id="g1194"
           transform="matrix(1,0,0,-1,0,21.26)"><g
             id="g1196"><g
               id="g1198"><g
                 id="g1200"
                 clip-path="url(#clipPath1204)"><g
                   id="g1206"><g
                     id="g1208"><path
                       d="m 15.79,14.07 c 0,0.75 -0.15,1.45 -0.4,2.05 -0.25,0.6 -0.65,1.15 -1.15,1.6 -0.51,0.41 -1.11,0.76 -1.86,1.01 -0.75,0.25 -1.55,0.35 -2.5,0.35 -0.56,0 -1.06,-0.05 -1.56,-0.15 -0.5,-0.05 -0.9,-0.2 -1.3,-0.3 C 6.62,18.48 6.32,18.38 6.06,18.23 5.82,18.13 5.66,18.03 5.61,17.98 5.51,17.87 5.46,17.82 5.46,17.77 5.41,17.72 5.36,17.63 5.36,17.53 5.31,17.47 5.31,17.37 5.31,17.22 5.26,17.12 5.26,16.97 5.26,16.77 c 0,-0.3 0.05,-0.5 0.1,-0.65 0.05,-0.1 0.15,-0.15 0.25,-0.15 0.11,0 0.26,0.05 0.5,0.2 0.26,0.15 0.56,0.25 0.91,0.45 0.35,0.15 0.8,0.3 1.3,0.4 0.45,0.15 1,0.25 1.61,0.25 0.6,0 1.1,-0.1 1.55,-0.25 0.45,-0.15 0.8,-0.35 1.1,-0.6 0.3,-0.3 0.55,-0.6 0.7,-0.95 0.15,-0.4 0.2,-0.8 0.2,-1.21 0,-0.5 -0.1,-0.9 -0.25,-1.3 -0.2,-0.35 -0.5,-0.7 -0.85,-1 -0.4,-0.25 -0.85,-0.45 -1.35,-0.6 C 10.48,11.21 9.88,11.11 9.17,11.11 H 7.52 c -0.05,0 -0.15,0 -0.2,-0.05 C 7.27,11.06 7.22,11 7.17,10.9 7.12,10.85 7.07,10.75 7.02,10.66 7.02,10.55 6.97,10.4 6.97,10.2 6.97,10.05 6.97,9.9 7.02,9.8 7.07,9.7 7.07,9.6 7.12,9.55 7.17,9.5 7.22,9.45 7.27,9.4 7.37,9.4 7.42,9.35 7.52,9.35 h 1.45 c 0.55,0 1.06,-0.05 1.51,-0.2 C 10.93,9 11.33,8.8 11.63,8.5 c 0.35,-0.25 0.6,-0.6 0.75,-0.96 0.15,-0.4 0.25,-0.85 0.25,-1.3 0,-0.35 -0.05,-0.7 -0.15,-1 -0.15,-0.3 -0.3,-0.6 -0.55,-0.8 C 11.73,4.19 11.43,3.98 11.08,3.88 10.73,3.74 10.32,3.68 9.88,3.68 9.37,3.68 8.92,3.74 8.52,3.88 8.07,4.03 7.72,4.19 7.37,4.39 7.07,4.54 6.77,4.74 6.57,4.89 6.37,5.04 6.22,5.09 6.11,5.09 H 5.96 C 5.92,5.04 5.87,4.99 5.87,4.94 5.82,4.89 5.77,4.79 5.77,4.69 V 3.88 c 0,-0.09 0.05,-0.2 0.05,-0.3 0.05,-0.05 0.05,-0.1 0.1,-0.2 0.04,-0.05 0.09,-0.1 0.14,-0.2 0.11,-0.05 0.26,-0.2 0.51,-0.35 0.25,-0.15 0.6,-0.3 0.95,-0.45 0.35,-0.15 0.8,-0.3 1.25,-0.4 0.5,-0.1 1,-0.15 1.55,-0.15 0.81,0 1.46,0.1 2.06,0.3 0.6,0.2 1.05,0.5 1.45,0.85 0.41,0.35 0.71,0.81 0.91,1.31 0.2,0.5 0.3,1.05 0.3,1.65 0,0.55 -0.1,1 -0.25,1.5 -0.1,0.46 -0.31,0.86 -0.6,1.21 -0.26,0.3 -0.61,0.6 -0.96,0.85 -0.4,0.25 -0.85,0.45 -1.35,0.5 v 0.05 c 0.55,0.05 1.1,0.2 1.55,0.45 0.5,0.21 0.9,0.5 1.26,0.86 0.35,0.35 0.6,0.75 0.8,1.2 0.2,0.45 0.3,0.95 0.3,1.51 z"
                       style="fill:#ffffff;fill-opacity:1;fill-rule:nonzero;stroke:none"
                       id="path1210" /></g></g></g></g></g></g></g></g></g><g
     id="g1212"
     transform="matrix(1.3421229,0,0,-1.3421229,33.273515,91.771946)"><g
       id="g1214"><g
         id="g1216"
         clip-path="url(#clipPath1220)"><g
           id="g1222"
           transform="matrix(1,0,0,-1,0,21.26)"><g
             id="g1224"><g
               id="g1226"><g
                 id="g1228"
                 clip-path="url(#clipPath1232)"><g
                   id="g1234"><g
                     id="g1236"><path
                       d="m 16.59,14.19 c 0,0.3 0,0.51 -0.1,0.71 -0.11,0.16 -0.21,0.26 -0.36,0.26 h -1.94 v 3.57 c 0,0.05 0,0.1 -0.05,0.15 -0.05,0.05 -0.1,0.1 -0.21,0.16 -0.1,0 -0.2,0.05 -0.35,0.05 -0.16,0.05 -0.31,0.05 -0.56,0.05 -0.21,0 -0.41,0 -0.51,-0.05 -0.16,0 -0.26,-0.05 -0.36,-0.05 -0.1,-0.06 -0.15,-0.11 -0.21,-0.16 0,-0.05 -0.05,-0.1 -0.05,-0.15 V 15.16 H 4.96 C 4.8,15.16 4.75,15.11 4.65,15.11 4.6,15.06 4.55,15.01 4.5,14.95 4.45,14.9 4.4,14.8 4.34,14.65 v -0.97 c 0,-0.1 0.06,-0.26 0.06,-0.36 0.05,-0.1 0.05,-0.2 0.1,-0.31 0.05,-0.1 0.1,-0.2 0.15,-0.3 L 10.72,2.3 c 0.05,-0.06 0.16,-0.11 0.2,-0.16 0.11,-0.05 0.21,-0.1 0.36,-0.15 0.1,-0.05 0.31,-0.05 0.46,-0.05 0.2,-0.05 0.46,-0.05 0.72,-0.05 0.3,0 0.56,0 0.76,0.05 0.26,0 0.41,0.05 0.56,0.1 0.1,0 0.21,0.05 0.31,0.1 0.05,0.05 0.1,0.16 0.1,0.21 v 10.92 h 1.94 c 0.15,0 0.25,0.1 0.36,0.25 0.1,0.16 0.1,0.36 0.1,0.67 z m -4.7,-10.31 -5.5,9.39 h 5.5 z"
                       style="fill:#ffffff;fill-opacity:1;fill-rule:nonzero;stroke:none"
                       id="path1238" /></g></g></g></g></g></g></g></g></g><g
     id="g1240"
     transform="matrix(1.3421229,0,0,-1.3421229,65.771406,91.771946)"><g
       id="g1242"><g
         id="g1244"
         clip-path="url(#clipPath1248)"><g
           id="g1250"
           transform="matrix(1,0,0,-1,0,21.26)"><g
             id="g1252"><g
               id="g1254"><g
                 id="g1256"
                 clip-path="url(#clipPath1260)"><g
                   id="g1262"><g
                     id="g1264"><path
                       d="m 15.83,13.36 c 0,0.92 -0.15,1.73 -0.45,2.45 -0.31,0.71 -0.77,1.32 -1.33,1.78 -0.56,0.5 -1.22,0.86 -1.98,1.12 -0.81,0.25 -1.68,0.4 -2.6,0.4 -0.55,0 -1.01,-0.05 -1.52,-0.1 C 7.49,18.91 7.08,18.81 6.73,18.71 6.32,18.6 6.01,18.5 5.81,18.4 5.56,18.3 5.41,18.2 5.36,18.15 5.3,18.09 5.25,18.04 5.2,17.99 5.2,17.94 5.15,17.84 5.15,17.79 5.1,17.69 5.1,17.64 5.1,17.48 v -0.81 c 0,-0.1 0.05,-0.21 0.05,-0.25 0.05,-0.11 0.1,-0.16 0.15,-0.16 0.06,-0.05 0.11,-0.05 0.16,-0.05 0.1,0 0.2,0.05 0.4,0.16 0.21,0.09 0.46,0.2 0.77,0.35 0.3,0.1 0.66,0.25 1.12,0.36 0.45,0.1 1.01,0.15 1.67,0.15 0.56,0 1.12,-0.05 1.58,-0.21 0.51,-0.15 0.92,-0.35 1.27,-0.65 0.36,-0.31 0.66,-0.67 0.87,-1.12 0.2,-0.46 0.3,-1.02 0.3,-1.63 0,-0.56 -0.1,-1.07 -0.25,-1.48 -0.21,-0.41 -0.46,-0.76 -0.81,-1.02 -0.36,-0.3 -0.82,-0.51 -1.38,-0.61 -0.51,-0.15 -1.17,-0.2 -1.93,-0.2 -0.51,0 -0.97,0 -1.38,0.05 -0.35,0.05 -0.76,0.1 -1.06,0.1 -0.26,0 -0.41,-0.05 -0.51,-0.2 C 6.01,10.16 5.92,9.95 5.92,9.65 V 2.67 c 0,-0.25 0.09,-0.5 0.2,-0.6 C 6.27,1.91 6.47,1.86 6.73,1.86 h 7.53 c 0.1,0 0.15,0 0.2,0.05 0.1,0 0.15,0.11 0.15,0.16 0.05,0.1 0.1,0.2 0.1,0.3 0.05,0.1 0.05,0.26 0.05,0.46 0,0.3 -0.05,0.56 -0.1,0.71 -0.1,0.15 -0.2,0.26 -0.35,0.26 H 8.2 V 8.58 C 8.51,8.53 8.81,8.53 9.12,8.48 h 1.07 c 0.91,0 1.73,0.15 2.44,0.35 0.71,0.26 1.27,0.56 1.78,0.97 0.46,0.46 0.81,0.97 1.06,1.58 0.21,0.61 0.36,1.27 0.36,1.98 z"
                       style="fill:#ffffff;fill-opacity:1;fill-rule:nonzero;stroke:none"
                       id="path1266" /></g></g></g></g></g></g></g></g></g><g
     id="g1268"
     transform="matrix(1.3421229,0,0,-1.3421229,97.26974,91.771946)"><g
       id="g1270"><g
         id="g1272"
         clip-path="url(#clipPath1276)"><g
           id="g1278"
           transform="matrix(1,0,0,-1,0,21.26)"><g
             id="g1280"><g
               id="g1282"><g
                 id="g1284"
                 clip-path="url(#clipPath1288)"><g
                   id="g1290"><g
                     id="g1292"><path
                       d="m 15.98,13.44 c 0,0.76 -0.1,1.46 -0.35,2.11 -0.2,0.7 -0.55,1.3 -1.05,1.86 -0.46,0.5 -1.06,0.9 -1.76,1.25 -0.7,0.3 -1.55,0.45 -2.55,0.45 -0.65,0 -1.31,-0.1 -1.81,-0.25 -0.55,-0.2 -1,-0.4 -1.4,-0.75 -0.4,-0.3 -0.75,-0.7 -1,-1.15 C 5.8,16.45 5.55,15.95 5.41,15.35 5.25,14.75 5.15,14.1 5.05,13.39 5,12.69 4.95,11.94 4.95,11.09 4.95,10.39 5,9.69 5.1,8.93 5.15,8.18 5.3,7.48 5.5,6.83 5.7,6.12 5.96,5.47 6.31,4.87 c 0.35,-0.6 0.75,-1.1 1.3,-1.55 0.5,-0.45 1.1,-0.81 1.8,-1.06 0.76,-0.25 1.56,-0.4 2.51,-0.4 0.35,0 0.65,0 1,0.05 0.3,0.05 0.6,0.1 0.91,0.15 0.24,0.1 0.5,0.15 0.7,0.25 0.2,0.05 0.3,0.15 0.35,0.15 0.1,0.05 0.1,0.1 0.15,0.2 0.05,0.06 0.05,0.11 0.05,0.16 0.05,0.05 0.05,0.14 0.05,0.24 0,0.05 0.05,0.16 0.05,0.31 0,0.15 0,0.25 -0.05,0.4 0,0.1 0,0.2 -0.05,0.25 0,0.05 -0.05,0.1 -0.1,0.15 -0.05,0.05 -0.1,0.05 -0.2,0.05 -0.1,0 -0.2,0 -0.35,-0.1 -0.2,-0.05 -0.41,-0.1 -0.6,-0.2 C 13.57,3.87 13.27,3.82 12.97,3.72 12.62,3.67 12.22,3.67 11.82,3.67 11.02,3.67 10.32,3.82 9.71,4.12 9.16,4.47 8.66,4.92 8.31,5.47 7.96,6.02 7.66,6.68 7.51,7.38 7.31,8.13 7.21,8.88 7.16,9.69 7.41,9.53 7.66,9.43 7.96,9.28 8.21,9.13 8.51,9.03 8.86,8.93 9.21,8.83 9.57,8.73 9.91,8.68 c 0.36,-0.05 0.76,-0.1 1.21,-0.1 0.9,0 1.65,0.1 2.25,0.35 0.65,0.25 1.16,0.6 1.56,1.05 0.35,0.46 0.65,0.96 0.8,1.56 0.15,0.55 0.25,1.2 0.25,1.9 z m -2.25,0.21 c 0,-0.5 -0.06,-0.96 -0.16,-1.36 -0.1,-0.45 -0.25,-0.8 -0.5,-1.05 -0.25,-0.3 -0.55,-0.5 -0.95,-0.65 -0.35,-0.15 -0.85,-0.25 -1.4,-0.25 -0.35,0 -0.65,0 -0.96,0.1 -0.35,0.05 -0.65,0.1 -0.95,0.2 -0.3,0.1 -0.55,0.25 -0.85,0.35 -0.25,0.15 -0.5,0.3 -0.75,0.45 0,1.1 0.1,2.06 0.25,2.81 0.1,0.75 0.3,1.35 0.6,1.8 0.25,0.46 0.6,0.75 1,0.96 0.4,0.2 0.9,0.3 1.46,0.3 0.55,0 1,-0.1 1.4,-0.3 0.4,-0.21 0.75,-0.5 1,-0.86 0.3,-0.35 0.5,-0.75 0.6,-1.15 0.15,-0.45 0.21,-0.9 0.21,-1.35 z"
                       style="fill:#ffffff;fill-opacity:1;fill-rule:nonzero;stroke:none"
                       id="path1294" /></g></g></g></g></g></g></g></g></g><g
     id="g1296"
     transform="matrix(1.3421229,0,0,-1.3421229,33.273515,130.05)"><g
       id="g1298"><g
         id="g1300"
         clip-path="url(#clipPath1304)"><g
           id="g1306"
           transform="matrix(1,0,0,-1,0,21.26)"><g
             id="g1308"><g
               id="g1310"><g
                 id="g1312"
                 clip-path="url(#clipPath1316)"><g
                   id="g1318"><g
                     id="g1320"><path
                       d="M 15.93,2.84 V 3.3 c -0.05,0.1 -0.05,0.26 -0.05,0.36 -0.05,0.1 -0.05,0.26 -0.11,0.36 -0.05,0.1 -0.1,0.2 -0.15,0.36 L 9.46,18.6 c -0.05,0.1 -0.1,0.2 -0.15,0.26 -0.1,0.05 -0.15,0.1 -0.26,0.15 -0.1,0.05 -0.26,0.05 -0.41,0.1 H 8.08 c -0.31,0 -0.57,0 -0.72,-0.05 C 7.2,19.06 7.05,19.01 7,18.96 6.9,18.91 6.9,18.8 6.9,18.75 c 0,-0.1 0.05,-0.2 0.1,-0.3 L 13.46,3.86 H 5.26 C 5.1,3.86 4.95,3.76 4.9,3.61 4.79,3.45 4.74,3.2 4.74,2.84 4.74,2.68 4.74,2.53 4.79,2.43 4.79,2.32 4.85,2.22 4.9,2.12 4.95,2.02 5,1.97 5.05,1.91 5.1,1.86 5.15,1.86 5.26,1.86 h 10 c 0.1,0 0.21,0 0.31,0.05 0.1,0 0.15,0.06 0.2,0.16 0.06,0.1 0.11,0.15 0.11,0.31 0.05,0.1 0.05,0.25 0.05,0.46 z"
                       style="fill:#ffffff;fill-opacity:1;fill-rule:nonzero;stroke:none"
                       id="path1322" /></g></g></g></g></g></g></g></g></g><g
     id="g1324"
     transform="matrix(1.3421229,0,0,-1.3421229,65.771406,130.05)"><g
       id="g1326"><g
         id="g1328"
         clip-path="url(#clipPath1332)"><g
           id="g1334"
           transform="matrix(1,0,0,-1,0,21.26)"><g
             id="g1336"><g
               id="g1338"><g
                 id="g1340"
                 clip-path="url(#clipPath1344)"><g
                   id="g1346"><g
                     id="g1348"><path
                       d="m 16.23,14.55 c 0,0.75 -0.15,1.4 -0.4,1.96 -0.25,0.55 -0.65,1.05 -1.1,1.45 -0.5,0.35 -1.1,0.65 -1.8,0.85 -0.75,0.2 -1.56,0.3 -2.46,0.3 -0.9,0 -1.65,-0.1 -2.35,-0.25 -0.66,-0.2 -1.26,-0.45 -1.71,-0.8 -0.5,-0.35 -0.85,-0.8 -1.1,-1.31 -0.25,-0.55 -0.4,-1.15 -0.4,-1.8 0,-0.5 0.1,-1 0.3,-1.45 0.15,-0.4 0.4,-0.86 0.7,-1.21 0.35,-0.35 0.75,-0.7 1.2,-1.05 0.5,-0.3 1.06,-0.6 1.66,-0.9 C 8.21,10.04 7.76,9.79 7.36,9.48 6.96,9.18 6.61,8.83 6.36,8.53 6.06,8.13 5.86,7.78 5.71,7.38 5.56,6.98 5.51,6.58 5.51,6.07 c 0,-0.55 0.1,-1.1 0.3,-1.65 0.25,-0.5 0.55,-0.95 1,-1.31 0.4,-0.39 0.95,-0.7 1.61,-0.9 0.65,-0.25 1.45,-0.35 2.3,-0.35 0.85,0 1.61,0.1 2.21,0.3 0.65,0.2 1.15,0.5 1.55,0.85 0.4,0.36 0.7,0.76 0.85,1.21 0.2,0.5 0.3,1 0.3,1.55 0,0.46 -0.05,0.86 -0.2,1.26 -0.15,0.4 -0.35,0.8 -0.65,1.15 -0.25,0.35 -0.6,0.7 -1,1 -0.4,0.35 -0.85,0.65 -1.4,0.91 0.65,0.3 1.2,0.6 1.65,0.95 0.5,0.3 0.9,0.65 1.2,1 0.35,0.4 0.56,0.75 0.75,1.16 0.15,0.45 0.25,0.9 0.25,1.35 z m -2.8,-8.58 c 0,-0.35 -0.05,-0.7 -0.2,-1 -0.1,-0.3 -0.3,-0.55 -0.5,-0.75 -0.26,-0.2 -0.55,-0.35 -0.91,-0.45 -0.4,-0.1 -0.8,-0.15 -1.25,-0.15 -0.95,0 -1.65,0.2 -2.1,0.6 -0.5,0.45 -0.76,1 -0.76,1.75 0,0.36 0.1,0.66 0.21,0.96 0.1,0.25 0.29,0.55 0.55,0.8 0.25,0.25 0.55,0.5 0.9,0.75 0.4,0.25 0.85,0.5 1.35,0.8 0.91,-0.45 1.56,-0.95 2.01,-1.5 0.5,-0.55 0.7,-1.15 0.7,-1.81 z m 0.55,8.83 c 0,-0.4 -0.1,-0.75 -0.25,-1.05 -0.1,-0.36 -0.35,-0.65 -0.65,-0.96 -0.3,-0.25 -0.66,-0.55 -1.11,-0.8 -0.45,-0.25 -0.95,-0.5 -1.55,-0.8 -0.55,0.25 -1,0.5 -1.45,0.8 -0.4,0.25 -0.71,0.55 -1,0.8 -0.26,0.31 -0.46,0.6 -0.61,0.91 -0.1,0.35 -0.2,0.7 -0.2,1.05 0,0.85 0.3,1.5 0.91,1.96 0.55,0.45 1.4,0.7 2.55,0.7 1.1,0 1.96,-0.25 2.51,-0.7 0.55,-0.46 0.85,-1.11 0.85,-1.91 z"
                       style="fill:#ffffff;fill-opacity:1;fill-rule:nonzero;stroke:none"
                       id="path1350" /></g></g></g></g></g></g></g></g></g><g
     id="g1352"
     transform="matrix(1.3421229,0,0,-1.3421229,97.26974,130.05)"><g
       id="g1354"><g
         id="g1356"
         clip-path="url(#clipPath1360)"><g
           id="g1362"
           transform="matrix(1,0,0,-1,0,21.26)"><g
             id="g1364"><g
               id="g1366"><g
                 id="g1368"
                 clip-path="url(#clipPath1372)"><g
                   id="g1374"><g
                     id="g1376"><path
                       d="m 16.06,9.81 c 0,0.7 -0.05,1.45 -0.1,2.2 -0.1,0.76 -0.25,1.46 -0.45,2.16 -0.2,0.65 -0.5,1.3 -0.86,1.91 -0.35,0.6 -0.8,1.1 -1.3,1.55 -0.55,0.45 -1.15,0.8 -1.9,1.11 -0.75,0.24 -1.56,0.35 -2.56,0.35 -0.35,0 -0.7,0 -1.05,-0.05 C 7.49,18.98 7.14,18.93 6.88,18.83 6.59,18.79 6.33,18.69 6.18,18.64 5.99,18.53 5.83,18.48 5.73,18.38 5.68,18.33 5.58,18.18 5.58,18.08 5.53,17.93 5.53,17.78 5.53,17.53 v -0.45 c 0,-0.1 0.05,-0.2 0.05,-0.25 0.05,-0.05 0.05,-0.1 0.1,-0.15 h 0.2 c 0.11,0 0.2,0 0.4,0.1 0.15,0.05 0.41,0.1 0.66,0.2 0.25,0.05 0.55,0.15 0.9,0.2 0.35,0.05 0.75,0.1 1.2,0.1 0.85,0 1.55,-0.15 2.16,-0.5 0.6,-0.3 1.1,-0.75 1.5,-1.26 0.35,-0.55 0.65,-1.2 0.85,-1.9 0.2,-0.7 0.3,-1.45 0.3,-2.26 -0.45,0.25 -1,0.51 -1.65,0.7 -0.65,0.21 -1.35,0.31 -2.21,0.31 -0.95,0 -1.7,-0.1 -2.35,-0.36 C 6.99,11.77 6.49,11.41 6.13,10.96 5.73,10.51 5.43,10.01 5.28,9.36 5.13,8.76 5.03,8.1 5.03,7.4 5.03,6.65 5.13,5.95 5.33,5.3 5.58,4.59 5.88,4.04 6.38,3.49 c 0.45,-0.5 1.01,-0.9 1.76,-1.2 0.7,-0.3 1.55,-0.45 2.51,-0.45 0.7,0 1.3,0.1 1.85,0.25 0.55,0.2 1,0.45 1.4,0.8 0.4,0.3 0.75,0.7 1.01,1.2 0.3,0.45 0.5,1 0.7,1.61 0.15,0.55 0.3,1.2 0.35,1.9 0.05,0.71 0.1,1.46 0.1,2.21 z M 13.8,9.56 C 13.8,8.46 13.75,7.55 13.6,6.75 13.45,6 13.25,5.4 12.95,4.95 12.65,4.49 12.3,4.14 11.9,3.94 11.5,3.74 11,3.64 10.44,3.64 9.89,3.64 9.39,3.74 8.99,3.94 8.59,4.14 8.29,4.39 8.04,4.74 7.79,5.09 7.59,5.45 7.49,5.9 7.34,6.35 7.29,6.75 7.29,7.25 c 0,0.5 0.05,0.95 0.15,1.4 0.1,0.41 0.3,0.76 0.55,1.06 0.25,0.3 0.55,0.5 0.95,0.7 0.35,0.15 0.85,0.2 1.4,0.2 0.66,0 1.31,-0.1 1.91,-0.3 0.6,-0.15 1.1,-0.45 1.55,-0.75 z"
                       style="fill:#ffffff;fill-opacity:1;fill-rule:nonzero;stroke:none"
                       id="path1378" /></g></g></g></g></g></g></g></g></g><g
     id="g1380"
     transform="matrix(1.1486222,0,0,-1.1486222,36.654152,164.89846)"><g
       id="g1382"><g
         id="g1384"
         clip-path="url(#clipPath1388)"><g
           id="g1390"
           transform="matrix(1,0,0,-1,0,21.26)"><g
             id="g1392"><g
               id="g1394"><g
                 id="g1396"
                 clip-path="url(#clipPath1400)"><g
                   id="g1402"><g
                     id="g1404"><path
                       d="m 13,10.5 7.48,-7.49 c 0.69,-0.69 0.69,-1.8 0,-2.49437 -0.69,-0.68848 -1.8,-0.68848 -2.49,0 L 10.5,8 3.01,0.51563 c -0.69,-0.68848 -1.8,-0.68848 -2.49437,0 C -0.17285,1.21 -0.17285,2.32 0.51563,3.01 L 8,10.5 0.51563,17.99 c -0.68848,0.69 -0.68848,1.8 0,2.49 C 1.21,21.17 2.32,21.17 3.01,20.48 L 10.5,13 l 7.49,7.48 c 0.69,0.69 1.8,0.69 2.49,0 0.69,-0.69 0.69,-1.8 0,-2.49 z"
                       style="fill:#ffffff;fill-opacity:1;fill-rule:evenodd;stroke:none"
                       id="path1406" /></g></g></g></g></g></g></g></g></g><g
     id="g1408"
     transform="matrix(1.3421229,0,0,-1.3421229,65.771406,168.32989)"><g
       id="g1410"><g
         id="g1412"
         clip-path="url(#clipPath1416)"><g
           id="g1418"
           transform="matrix(1,0,0,-1,0,21.26)"><g
             id="g1420"><g
               id="g1422"><g
                 id="g1424"
                 clip-path="url(#clipPath1428)"><g
                   id="g1430"><g
                     id="g1432"><path
                       d="m 16.97,10.41 c 0,1.3 -0.12,2.46 -0.34,3.51 -0.23,1.11 -0.57,2.01 -1.14,2.76 -0.51,0.75 -1.19,1.36 -2.1,1.76 -0.85,0.45 -1.87,0.65 -3.17,0.65 -1.19,0 -2.16,-0.2 -3.01,-0.55 C 6.42,18.14 5.74,17.58 5.22,16.88 4.77,16.13 4.37,15.23 4.2,14.17 3.98,13.12 3.86,11.87 3.86,10.51 3.86,9.21 3.98,8.05 4.2,7 4.49,5.89 4.83,4.99 5.39,4.24 5.91,3.48 6.59,2.88 7.44,2.43 c 0.85,-0.4 1.93,-0.6 3.17,-0.6 1.2,0 2.22,0.2 3.01,0.55 0.85,0.4 1.48,0.95 1.99,1.66 0.51,0.75 0.85,1.65 1.07,2.71 0.23,1.05 0.29,2.31 0.29,3.66 z m -2.56,0.15 C 14.41,9.76 14.36,9 14.3,8.3 14.24,7.65 14.13,7.05 14.02,6.54 13.85,6.04 13.68,5.59 13.51,5.24 13.28,4.89 13.05,4.59 12.71,4.34 12.43,4.09 12.09,3.94 11.75,3.83 11.35,3.74 10.95,3.64 10.44,3.64 9.65,3.64 8.97,3.83 8.46,4.19 7.95,4.54 7.49,4.99 7.21,5.59 6.93,6.19 6.7,6.9 6.64,7.75 6.53,8.55 6.47,9.4 6.47,10.36 c 0,1.2 0.06,2.31 0.23,3.16 0.11,0.9 0.34,1.61 0.68,2.16 0.28,0.55 0.74,0.95 1.19,1.2 0.51,0.25 1.14,0.35 1.82,0.35 0.56,0 1.02,-0.05 1.42,-0.2 0.45,-0.15 0.79,-0.4 1.07,-0.7 0.29,-0.25 0.57,-0.6 0.74,-1 0.23,-0.41 0.34,-0.86 0.51,-1.36 0.11,-0.5 0.17,-1.05 0.23,-1.6 0.05,-0.55 0.05,-1.16 0.05,-1.81 z"
                       style="fill:#ffffff;fill-opacity:1;fill-rule:nonzero;stroke:none"
                       id="path1434" /></g></g></g></g></g></g></g></g></g><g
     id="g1436"
     transform="matrix(1.3421229,0,0,-1.3421229,97.26974,168.32989)"><g
       id="g1438"><g
         id="g1440"
         clip-path="url(#clipPath1444)"><g
           id="g1446"
           transform="matrix(1,0,0,-1,0,21.26)"><g
             id="g1448"><g
               id="g1450"><g
                 id="g1452"
                 clip-path="url(#clipPath1456)"><g
                   id="g1458"><g
                     id="g1460"><path
                       d="m 18.02,1.77 2.82,2.36 c 0.17,0.15 0.21,0.41 0.06,0.59 L 8.76,19.18 c -0.09,0.11 -0.23,0.16 -0.35,0.14 -0.1,0 -0.18,-0.03 -0.26,-0.1 l -7.99473,-6.7 c -0.17871,-0.15 -0.208,-0.42 -0.06152,-0.6 L 2.46,9.11 C 2.6,8.94 2.87,8.92 3.05,9.07 l 4.87,4.08 9.52,-11.34 c 0.15,-0.18 0.4,-0.19 0.58,-0.04 z"
                       style="fill:#ffffff;fill-opacity:1;fill-rule:nonzero;stroke:none"
                       id="path1462" /></g></g></g></g></g></g></g></g></g></g></svg>
