<?xml version="1.0" encoding="UTF-8"?>
<svg xmlns="http://www.w3.org/2000/svg" xmlns:xlink="http://www.w3.org/1999/xlink" width="28pt" height="28pt" viewBox="0 0 28 28" version="1.1">
<g id="surface1">
<path style=" stroke:none;fill-rule:nonzero;fill:rgb(0%,0%,0%);fill-opacity:1;" d="M 27.71875 12 L 14.722656 0.210938 C 14.40625 -0.0742188 13.925781 -0.0664062 13.617188 0.214844 L 0.28125 12.203125 C -0.523438 12.929688 0.570312 14.148438 1.378906 13.425781 L 2.429688 12.480469 L 2.429688 26.703125 C 2.429688 27.417969 2.96875 28 3.664062 28 L 24.566406 28 C 25.265625 28 25.832031 27.433594 25.835938 26.730469 L 25.835938 12.507812 L 26.617188 13.21875 C 27.421875 13.945312 28.523438 12.730469 27.71875 12 Z M 14.132812 17.363281 C 13.679688 17.363281 13.3125 17.730469 13.3125 18.183594 L 13.3125 19.402344 L 12.761719 18.984375 C 12.402344 18.707031 11.890625 18.777344 11.613281 19.136719 C 11.339844 19.5 11.410156 20.011719 11.769531 20.289062 L 13.3125 21.464844 L 13.3125 23.152344 C 12.46875 22.992188 11.695312 22.582031 11.074219 21.964844 C 10.257812 21.144531 9.808594 20.058594 9.808594 18.90625 C 9.808594 16.152344 12.496094 12.867188 14.128906 11.300781 C 15.101562 12.253906 18.453125 15.773438 18.453125 18.90625 C 18.453125 20.058594 18.003906 21.144531 17.1875 21.964844 C 16.566406 22.582031 15.792969 22.992188 14.953125 23.152344 L 14.953125 21.46875 L 16.539062 20.296875 C 16.902344 20.027344 16.980469 19.511719 16.710938 19.148438 C 16.445312 18.785156 15.929688 18.707031 15.566406 18.976562 L 14.953125 19.429688 L 14.953125 18.183594 C 14.953125 17.730469 14.585938 17.363281 14.132812 17.363281 Z M 24.195312 26.359375 L 14.953125 26.359375 L 14.953125 24.816406 C 16.230469 24.640625 17.414062 24.054688 18.347656 23.125 C 19.472656 21.996094 20.09375 20.496094 20.09375 18.90625 C 20.09375 17.058594 19.246094 14.988281 17.578125 12.75 C 16.351562 11.105469 15.109375 9.960938 14.972656 9.835938 C 14.492188 9.402344 13.769531 9.402344 13.292969 9.835938 C 13.152344 9.960938 11.90625 11.113281 10.683594 12.75 C 9.015625 14.988281 8.167969 17.058594 8.167969 18.90625 C 8.167969 20.5 8.789062 21.996094 9.917969 23.125 C 10.847656 24.054688 12.03125 24.640625 13.3125 24.816406 L 13.3125 26.359375 L 4.070312 26.359375 L 4.070312 11.003906 L 14.167969 1.925781 L 24.195312 11.019531 Z M 24.195312 26.359375 "/>
</g>
</svg>
