<?xml version="1.0" encoding="UTF-8"?>
<svg xmlns="http://www.w3.org/2000/svg" xmlns:xlink="http://www.w3.org/1999/xlink" width="28pt" height="28pt" viewBox="0 0 28 28" version="1.1">
<g id="surface1">
<path style=" stroke:none;fill-rule:nonzero;fill:rgb(0%,0%,0%);fill-opacity:1;" d="M 22.765625 17.230469 L 14.65625 10 C 14.28125 9.667969 13.71875 9.667969 13.34375 10 L 5.234375 17.230469 C 5.023438 17.417969 4.902344 17.683594 4.902344 17.964844 L 4.902344 27.015625 C 4.902344 27.558594 5.34375 28 5.890625 28 L 22.109375 28 C 22.65625 28 23.097656 27.558594 23.097656 27.015625 L 23.097656 17.964844 C 23.097656 17.683594 22.976562 17.417969 22.765625 17.230469 Z M 21.125 26.03125 L 6.875 26.03125 L 6.875 18.40625 L 14 12.054688 L 21.125 18.40625 Z M 21.125 26.03125 "/>
<path style=" stroke:none;fill-rule:nonzero;fill:rgb(0%,0%,0%);fill-opacity:1;" d="M 8.949219 8.578125 C 10.300781 7.226562 12.09375 6.484375 14 6.484375 C 15.90625 6.484375 17.699219 7.226562 19.050781 8.578125 C 19.242188 8.769531 19.492188 8.863281 19.746094 8.863281 C 19.996094 8.863281 20.25 8.769531 20.441406 8.578125 C 20.828125 8.191406 20.828125 7.566406 20.441406 7.183594 C 18.722656 5.460938 16.433594 4.515625 14 4.515625 C 11.566406 4.515625 9.277344 5.460938 7.558594 7.183594 C 7.171875 7.566406 7.171875 8.191406 7.558594 8.578125 C 7.941406 8.960938 8.566406 8.960938 8.949219 8.578125 Z M 8.949219 8.578125 "/>
<path style=" stroke:none;fill-rule:nonzero;fill:rgb(0%,0%,0%);fill-opacity:1;" d="M 23.632812 3.992188 C 21.0625 1.417969 17.640625 0 14 0 C 10.359375 0 6.9375 1.417969 4.367188 3.992188 C 3.980469 4.375 3.980469 5 4.367188 5.382812 C 4.558594 5.574219 4.808594 5.671875 5.0625 5.671875 C 5.3125 5.671875 5.566406 5.574219 5.757812 5.382812 C 7.960938 3.183594 10.886719 1.96875 14 1.96875 C 17.113281 1.96875 20.039062 3.183594 22.242188 5.382812 C 22.625 5.769531 23.25 5.769531 23.632812 5.382812 C 24.019531 5 24.019531 4.375 23.632812 3.992188 Z M 23.632812 3.992188 "/>
</g>
</svg>
