<?xml version="1.0" encoding="UTF-8"?>
<svg xmlns="http://www.w3.org/2000/svg" xmlns:xlink="http://www.w3.org/1999/xlink" width="28pt" height="28pt" viewBox="0 0 28 28" version="1.1">
<g id="surface1">
<path style=" stroke:none;fill-rule:nonzero;fill:rgb(0%,0%,0%);fill-opacity:1;" d="M 0.96875 16.382812 L 3.246094 16.382812 L 3.246094 25.507812 C 3.246094 26.046875 3.6875 26.484375 4.226562 26.484375 L 10.90625 26.484375 C 11.441406 26.484375 11.882812 26.046875 11.882812 25.507812 L 11.882812 18.828125 L 15.953125 18.828125 L 15.953125 25.507812 C 15.953125 26.046875 16.394531 26.484375 16.933594 26.484375 L 23.285156 26.484375 C 23.824219 26.484375 24.261719 26.046875 24.261719 25.507812 L 24.261719 16.382812 L 27.03125 16.382812 C 27.421875 16.382812 27.78125 16.140625 27.929688 15.78125 C 28.074219 15.421875 27.992188 15 27.714844 14.722656 L 14.976562 1.804688 C 14.601562 1.429688 13.984375 1.414062 13.609375 1.789062 L 0.300781 14.707031 C 0.0078125 14.984375 -0.0742188 15.40625 0.0703125 15.78125 C 0.21875 16.15625 0.578125 16.382812 0.96875 16.382812 Z M 14.261719 3.875 L 24.6875 14.429688 L 23.285156 14.429688 C 22.746094 14.429688 22.308594 14.871094 22.308594 15.40625 L 22.308594 24.53125 L 17.910156 24.53125 L 17.910156 17.851562 C 17.910156 17.3125 17.46875 16.875 16.933594 16.875 L 10.90625 16.875 C 10.367188 16.875 9.925781 17.3125 9.925781 17.851562 L 9.925781 24.53125 L 5.203125 24.53125 L 5.203125 15.40625 C 5.203125 14.871094 4.761719 14.429688 4.226562 14.429688 L 3.378906 14.429688 Z M 14.261719 3.875 "/>
</g>
</svg>
