<?xml version="1.0" encoding="UTF-8"?>
<svg xmlns="http://www.w3.org/2000/svg" xmlns:xlink="http://www.w3.org/1999/xlink" width="28pt" height="28pt" viewBox="0 0 28 28" version="1.1">
<g id="surface1">
<path style=" stroke:none;fill-rule:nonzero;fill:rgb(0%,0%,0%);fill-opacity:1;" d="M 24.765625 23.246094 L 21.785156 23.246094 L 21.785156 4.371094 C 21.785156 4.175781 21.636719 4.011719 21.445312 3.992188 L 11.382812 2.855469 C 11.273438 2.84375 11.164062 2.878906 11.082031 2.949219 C 11.003906 3.023438 10.957031 3.128906 10.957031 3.234375 L 10.957031 3.988281 L 6.597656 3.988281 C 6.386719 3.988281 6.214844 4.160156 6.214844 4.371094 L 6.214844 23.246094 L 3.234375 23.246094 C 3.023438 23.246094 2.851562 23.417969 2.851562 23.628906 C 2.851562 23.839844 3.023438 24.011719 3.234375 24.011719 L 10.957031 24.011719 L 10.957031 24.765625 C 10.957031 24.976562 11.128906 25.148438 11.339844 25.148438 C 11.351562 25.148438 11.367188 25.144531 11.382812 25.144531 L 21.421875 24.011719 L 24.765625 24.011719 C 24.976562 24.011719 25.148438 23.839844 25.148438 23.628906 C 25.148438 23.417969 24.976562 23.246094 24.765625 23.246094 Z M 6.980469 4.753906 L 10.957031 4.753906 L 10.957031 5.738281 L 8.347656 5.738281 C 8.136719 5.738281 7.964844 5.910156 7.964844 6.121094 L 7.964844 23.246094 L 6.980469 23.246094 Z M 8.730469 23.246094 L 8.730469 6.503906 L 10.957031 6.503906 L 10.957031 23.246094 Z M 11.722656 3.664062 L 21.019531 4.714844 L 21.019531 23.285156 L 11.722656 24.335938 Z M 11.722656 3.664062 "/>
<path style=" stroke:none;fill-rule:nonzero;fill:rgb(0%,0%,0%);fill-opacity:1;" d="M 13.371094 12.859375 C 12.742188 12.859375 12.230469 13.371094 12.230469 14 C 12.230469 14.628906 12.742188 15.140625 13.371094 15.140625 C 14 15.140625 14.511719 14.628906 14.511719 14 C 14.507812 13.371094 14 12.863281 13.371094 12.859375 Z M 13.371094 14.375 C 13.164062 14.375 12.996094 14.207031 12.996094 14 C 12.996094 13.792969 13.164062 13.625 13.371094 13.625 C 13.578125 13.625 13.746094 13.792969 13.746094 14 C 13.746094 14.207031 13.578125 14.375 13.371094 14.375 Z M 13.371094 14.375 "/>
</g>
</svg>
