<?xml version="1.0" encoding="UTF-8"?>
<svg xmlns="http://www.w3.org/2000/svg" xmlns:xlink="http://www.w3.org/1999/xlink" width="28pt" height="28pt" viewBox="0 0 28 28" version="1.1">
<g id="surface1">
<path style=" stroke:none;fill-rule:nonzero;fill:rgb(0%,0%,0%);fill-opacity:1;" d="M 27.039062 4.113281 L 24.414062 0.613281 C 24.328125 0.507812 24.199219 0.445312 24.0625 0.445312 C 23.925781 0.445312 23.796875 0.507812 23.710938 0.613281 L 21.085938 4.113281 C 21.03125 4.1875 21 4.28125 21 4.375 L 21 7.875 L 17.0625 7.875 L 17.0625 4.375 C 17.0625 4.28125 17.03125 4.1875 16.976562 4.113281 L 14.351562 0.613281 C 14.265625 0.507812 14.136719 0.445312 14 0.445312 C 13.863281 0.445312 13.734375 0.507812 13.648438 0.613281 L 11.023438 4.113281 C 10.96875 4.1875 10.9375 4.28125 10.9375 4.375 L 10.9375 7.875 L 7 7.875 L 7 4.375 C 7 4.28125 6.96875 4.1875 6.914062 4.113281 L 4.289062 0.613281 C 4.203125 0.507812 4.074219 0.445312 3.9375 0.445312 C 3.800781 0.445312 3.671875 0.507812 3.585938 0.613281 L 0.960938 4.113281 C 0.90625 4.1875 0.875 4.28125 0.875 4.375 L 0.875 27.125 C 0.875 27.367188 1.070312 27.5625 1.3125 27.5625 L 6.5625 27.5625 C 6.804688 27.5625 7 27.367188 7 27.125 L 7 22.75 L 10.9375 22.75 L 10.9375 27.125 C 10.9375 27.367188 11.132812 27.5625 11.375 27.5625 L 16.625 27.5625 C 16.867188 27.5625 17.0625 27.367188 17.0625 27.125 L 17.0625 22.75 L 21 22.75 L 21 27.125 C 21 27.367188 21.195312 27.5625 21.4375 27.5625 L 26.6875 27.5625 C 26.929688 27.5625 27.125 27.367188 27.125 27.125 L 27.125 4.375 C 27.125 4.28125 27.09375 4.1875 27.039062 4.113281 Z M 17.0625 14 L 21 14 L 21 16.625 L 17.0625 16.625 Z M 21 8.75 L 21 13.125 L 17.0625 13.125 L 17.0625 8.75 Z M 7 14 L 10.9375 14 L 10.9375 16.625 L 7 16.625 Z M 10.9375 8.75 L 10.9375 13.125 L 7 13.125 L 7 8.75 Z M 6.125 26.6875 L 1.75 26.6875 L 1.75 4.519531 L 3.9375 1.605469 L 6.125 4.519531 Z M 7 21.875 L 7 17.5 L 10.9375 17.5 L 10.9375 21.875 Z M 16.1875 26.6875 L 11.8125 26.6875 L 11.8125 4.519531 L 14 1.605469 L 16.1875 4.519531 Z M 17.0625 21.875 L 17.0625 17.5 L 21 17.5 L 21 21.875 Z M 26.25 26.6875 L 21.875 26.6875 L 21.875 4.519531 L 24.0625 1.605469 L 26.25 4.519531 Z M 26.25 26.6875 "/>
<path style=" stroke:none;fill-rule:nonzero;fill:rgb(0%,0%,0%);fill-opacity:1;" d="M 2.625 24.9375 C 2.382812 24.9375 2.1875 25.132812 2.1875 25.375 L 2.1875 25.8125 C 2.1875 26.054688 2.382812 26.25 2.625 26.25 C 2.867188 26.25 3.0625 26.054688 3.0625 25.8125 L 3.0625 25.375 C 3.0625 25.132812 2.867188 24.9375 2.625 24.9375 Z M 2.625 24.9375 "/>
<path style=" stroke:none;fill-rule:nonzero;fill:rgb(0%,0%,0%);fill-opacity:1;" d="M 2.625 19.6875 C 2.382812 19.6875 2.1875 19.882812 2.1875 20.125 L 2.1875 24.0625 C 2.1875 24.304688 2.382812 24.5 2.625 24.5 C 2.867188 24.5 3.0625 24.304688 3.0625 24.0625 L 3.0625 20.125 C 3.0625 19.882812 2.867188 19.6875 2.625 19.6875 Z M 2.625 19.6875 "/>
</g>
</svg>
