<?xml version="1.0" encoding="UTF-8"?>
<svg xmlns="http://www.w3.org/2000/svg" xmlns:xlink="http://www.w3.org/1999/xlink" width="28pt" height="28pt" viewBox="0 0 28 28" version="1.1">
<g id="surface1">
<path style=" stroke:none;fill-rule:nonzero;fill:rgb(0%,0%,0%);fill-opacity:1;" d="M 26.625 10.191406 C 27.191406 9.679688 27.8125 8.871094 27.96875 7.703125 C 28.109375 6.617188 27.757812 5.886719 27.433594 5.464844 C 27.390625 5.410156 27.347656 5.355469 27.300781 5.300781 C 27.25 3.636719 26.015625 2.136719 25.953125 2.0625 C 25.808594 1.886719 25.546875 1.863281 25.371094 2.011719 C 25.195312 2.15625 25.171875 2.417969 25.320312 2.589844 C 25.328125 2.605469 26.09375 3.535156 26.375 4.636719 C 26.207031 4.566406 26.03125 4.507812 25.851562 4.472656 C 24.910156 4.285156 24.109375 4.679688 23.90625 5.429688 C 23.746094 6.019531 23.890625 6.589844 24.304688 6.996094 C 24.75 7.4375 25.433594 7.609375 26.039062 7.433594 C 26.496094 7.304688 26.851562 6.992188 27.066406 6.554688 C 27.171875 6.890625 27.195312 7.253906 27.148438 7.597656 C 27.054688 8.308594 26.734375 8.933594 26.195312 9.460938 C 25.425781 8.269531 24.449219 7.324219 23.339844 6.722656 C 22.5625 6.300781 21.660156 5.988281 20.65625 5.789062 C 20.429688 5.742188 20.214844 5.886719 20.167969 6.113281 C 20.125 6.335938 20.269531 6.554688 20.492188 6.597656 C 21.417969 6.78125 22.242188 7.066406 22.949219 7.449219 C 26.261719 9.242188 28.46875 14.746094 26.253906 20.503906 C 26.175781 20.703125 26.269531 20.933594 26.460938 21.023438 C 26.675781 21.125 26.9375 21.019531 27.023438 20.800781 C 28.113281 17.972656 28.265625 14.929688 27.460938 12.230469 C 27.242188 11.503906 26.960938 10.820312 26.625 10.191406 Z M 26.414062 5.933594 C 26.328125 6.308594 26.117188 6.554688 25.8125 6.640625 C 25.496094 6.730469 25.113281 6.636719 24.882812 6.410156 C 24.742188 6.273438 24.597656 6.027344 24.703125 5.644531 C 24.8125 5.234375 25.351562 5.214844 25.6875 5.28125 C 26 5.34375 26.257812 5.46875 26.464844 5.636719 C 26.453125 5.734375 26.4375 5.835938 26.414062 5.933594 Z M 26.414062 5.933594 "/>
<path style=" stroke:none;fill-rule:nonzero;fill:rgb(0%,0%,0%);fill-opacity:1;" d="M 2.894531 18.167969 C 2.078125 17.75 1.382812 17.402344 0.824219 17.136719 L 0.824219 13.453125 C 1.53125 13.285156 3.167969 12.832031 4.070312 12.070312 C 4.46875 11.730469 4.839844 11.199219 5.230469 10.636719 C 5.972656 9.566406 6.816406 8.351562 8.128906 7.980469 C 8.308594 7.929688 8.429688 7.765625 8.429688 7.582031 L 8.429688 4.359375 C 9.078125 4.488281 10.355469 4.996094 11.058594 6.976562 C 11.132812 7.183594 11.359375 7.296875 11.570312 7.234375 C 11.605469 7.222656 15.253906 6.125 18.898438 6.386719 C 19.125 6.402344 19.320312 6.234375 19.335938 6.003906 C 19.355469 5.777344 19.183594 5.582031 18.957031 5.5625 C 15.808594 5.339844 12.738281 6.058594 11.695312 6.339844 C 11.089844 4.898438 10.1875 4.203125 9.511719 3.871094 C 8.707031 3.472656 8.03125 3.492188 8.003906 3.492188 C 7.78125 3.5 7.605469 3.679688 7.605469 3.902344 L 7.605469 7.285156 C 6.179688 7.816406 5.28125 9.113281 4.550781 10.167969 C 4.191406 10.683594 3.851562 11.171875 3.535156 11.441406 C 2.554688 12.269531 0.355469 12.710938 0.332031 12.714844 C 0.140625 12.753906 0 12.921875 0 13.121094 L 0 17.398438 C 0 17.558594 0.09375 17.703125 0.238281 17.769531 C 0.820312 18.046875 1.589844 18.425781 2.519531 18.902344 C 2.71875 19.003906 2.972656 18.921875 3.074219 18.722656 C 3.179688 18.519531 3.097656 18.273438 2.894531 18.167969 Z M 2.894531 18.167969 "/>
<path style=" stroke:none;fill-rule:nonzero;fill:rgb(0%,0%,0%);fill-opacity:1;" d="M 26.148438 21.789062 C 25.949219 21.683594 25.699219 21.765625 25.59375 21.96875 C 25.046875 23.027344 24.351562 24.0625 23.527344 25.035156 C 23.378906 25.210938 23.164062 25.3125 22.933594 25.3125 L 21.1875 25.3125 C 20.800781 25.3125 20.480469 25.035156 20.421875 24.65625 L 19.914062 21.40625 C 19.882812 21.199219 19.699219 21.050781 19.492188 21.058594 C 19.449219 21.058594 15.175781 21.21875 11.605469 20.933594 C 11.378906 20.917969 11.175781 21.089844 11.160156 21.316406 L 10.914062 24.59375 C 10.882812 24.996094 10.542969 25.3125 10.140625 25.3125 L 8.410156 25.3125 C 8.027344 25.3125 7.707031 25.039062 7.644531 24.660156 L 6.980469 20.496094 C 6.957031 20.367188 6.878906 20.257812 6.765625 20.195312 C 6.753906 20.191406 5.679688 19.613281 4.359375 18.925781 C 4.160156 18.820312 3.910156 18.898438 3.804688 19.101562 C 3.699219 19.304688 3.777344 19.550781 3.980469 19.65625 C 4.976562 20.179688 5.835938 20.636719 6.195312 20.828125 L 6.828125 24.789062 C 6.957031 25.570312 7.621094 26.136719 8.410156 26.136719 L 10.140625 26.136719 C 10.972656 26.136719 11.671875 25.488281 11.734375 24.65625 L 11.953125 21.789062 C 14.859375 21.988281 18.085938 21.925781 19.15625 21.894531 L 19.605469 24.78125 C 19.726562 25.566406 20.394531 26.136719 21.1875 26.136719 L 22.933594 26.136719 C 23.40625 26.136719 23.855469 25.929688 24.160156 25.566406 C 25.019531 24.546875 25.75 23.460938 26.328125 22.347656 C 26.433594 22.144531 26.351562 21.894531 26.148438 21.789062 Z M 26.148438 21.789062 "/>
<path style=" stroke:none;fill-rule:nonzero;fill:rgb(0%,0%,0%);fill-opacity:1;" d="M 5.863281 12.925781 C 5.863281 13.511719 6.230469 13.96875 6.699219 13.96875 C 7.171875 13.96875 7.539062 13.511719 7.539062 12.925781 C 7.539062 12.34375 7.171875 11.886719 6.699219 11.886719 C 6.230469 11.886719 5.863281 12.34375 5.863281 12.925781 Z M 5.863281 12.925781 "/>
</g>
</svg>
