<?xml version="1.0" encoding="UTF-8"?>
<svg xmlns="http://www.w3.org/2000/svg" xmlns:xlink="http://www.w3.org/1999/xlink" width="28pt" height="28pt" viewBox="0 0 28 28" version="1.1">
<g id="surface1">
<path style=" stroke:none;fill-rule:nonzero;fill:rgb(0%,0%,0%);fill-opacity:1;" d="M 19.027344 12.90625 C 19.027344 13.207031 18.78125 13.453125 18.480469 13.453125 C 18.179688 13.453125 17.933594 13.207031 17.933594 12.90625 C 17.933594 12.605469 18.179688 12.359375 18.480469 12.359375 C 18.78125 12.359375 19.027344 12.605469 19.027344 12.90625 Z M 19.027344 12.90625 "/>
<path style=" stroke:none;fill-rule:nonzero;fill:rgb(0%,0%,0%);fill-opacity:1;" d="M 18.574219 15.25 C 18.273438 15.207031 17.996094 15.410156 17.953125 15.710938 C 17.804688 16.71875 16.949219 17.558594 15.671875 17.949219 C 14.304688 18.371094 12.40625 18.230469 11.246094 16.96875 C 11.042969 16.746094 10.695312 16.730469 10.472656 16.933594 C 10.25 17.140625 10.238281 17.484375 10.441406 17.707031 C 11.113281 18.4375 12.023438 18.933594 13.074219 19.144531 C 13.445312 19.222656 13.832031 19.257812 14.21875 19.257812 C 14.820312 19.257812 15.421875 19.167969 15.992188 18.996094 C 17.683594 18.476562 18.820312 17.308594 19.035156 15.871094 C 19.078125 15.570312 18.871094 15.292969 18.574219 15.25 Z M 18.574219 15.25 "/>
<path style=" stroke:none;fill-rule:nonzero;fill:rgb(0%,0%,0%);fill-opacity:1;" d="M 26.175781 10.414062 C 25.179688 9.261719 23.808594 8.511719 22.15625 8.214844 C 23.738281 7.148438 25.101562 6.085938 26.074219 5.160156 C 27.558594 3.746094 28.054688 2.753906 27.640625 2.035156 C 27.175781 1.234375 25.84375 1.238281 23.441406 2.050781 C 21.414062 2.738281 18.886719 3.929688 16.328125 5.410156 C 15.882812 5.664062 15.445312 5.925781 15.015625 6.1875 C 14.699219 5.289062 14.910156 4.265625 15.609375 3.375 C 16.136719 2.710938 16.253906 1.863281 15.917969 1.167969 C 15.5625 0.4375 14.789062 0.00390625 13.84375 0 L 13.820312 0 C 10.484375 0 7.21875 1.316406 4.628906 3.707031 C 2.039062 6.101562 0.453125 9.269531 0.160156 12.628906 C -0.1875 16.671875 1.105469 20.519531 3.804688 23.457031 C 6.453125 26.34375 10.207031 28 14.105469 28 C 16.203125 28 18.175781 27.617188 19.960938 26.859375 C 21.597656 26.164062 23.046875 25.175781 24.273438 23.917969 C 25.414062 22.753906 26.3125 21.410156 26.941406 19.929688 C 27.542969 18.519531 27.871094 17.023438 27.894531 15.605469 C 27.921875 13.546875 27.328125 11.75 26.175781 10.414062 Z M 15.082031 7.4375 C 15.660156 7.070312 16.261719 6.707031 16.875 6.355469 C 19.242188 4.988281 21.597656 3.863281 23.511719 3.1875 C 25.617188 2.441406 26.480469 2.488281 26.679688 2.585938 C 26.664062 2.710938 26.503906 3.277344 25.121094 4.550781 C 23.96875 5.613281 22.285156 6.863281 20.378906 8.070312 C 19.773438 8.453125 19.148438 8.832031 18.515625 9.199219 C 17.640625 9.703125 16.765625 10.171875 15.910156 10.605469 C 15.738281 10.105469 15.519531 9.621094 15.25 9.160156 C 14.992188 8.710938 14.691406 8.292969 14.359375 7.902344 C 14.59375 7.746094 14.835938 7.589844 15.082031 7.4375 Z M 14.917969 11.089844 C 13.375 11.824219 11.957031 12.382812 10.824219 12.707031 C 10.765625 12.421875 10.664062 12.148438 10.515625 11.894531 C 10.375 11.652344 10.203125 11.4375 10 11.25 C 10.847656 10.433594 12.039062 9.484375 13.445312 8.515625 C 13.769531 8.882812 14.058594 9.28125 14.304688 9.707031 C 14.558594 10.148438 14.765625 10.613281 14.917969 11.089844 Z M 26.800781 15.589844 C 26.722656 21.03125 21.847656 26.90625 14.105469 26.90625 C 10.511719 26.90625 7.050781 25.378906 4.609375 22.71875 C 2.121094 20.007812 0.929688 16.457031 1.25 12.722656 C 1.804688 6.308594 7.441406 1.09375 13.820312 1.09375 L 13.84375 1.09375 C 14.367188 1.09375 14.761719 1.296875 14.933594 1.644531 C 15.085938 1.964844 15.019531 2.359375 14.75 2.699219 C 13.765625 3.949219 13.519531 5.484375 14.074219 6.78125 C 13.78125 6.96875 13.496094 7.160156 13.214844 7.347656 C 13.214844 7.347656 13.214844 7.347656 13.210938 7.351562 C 11.472656 8.523438 10.003906 9.691406 9.027344 10.671875 C 8.285156 10.421875 7.472656 10.492188 6.78125 10.894531 C 5.644531 11.550781 4.152344 14.609375 3.863281 15.214844 C 3.789062 15.375 3.796875 15.566406 3.886719 15.722656 C 3.976562 15.878906 4.136719 15.980469 4.316406 15.992188 C 4.617188 16.019531 5.476562 16.082031 6.429688 16.082031 C 7.589844 16.082031 8.890625 15.988281 9.515625 15.628906 C 10.191406 15.238281 10.65625 14.589844 10.820312 13.839844 C 12.160156 13.488281 13.914062 12.800781 15.8125 11.875 C 16.875 11.359375 17.96875 10.777344 19.0625 10.144531 C 19.617188 9.824219 20.164062 9.492188 20.695312 9.160156 C 20.699219 9.160156 20.703125 9.160156 20.707031 9.160156 C 25.265625 9.292969 26.84375 12.570312 26.800781 15.589844 Z M 9.785156 13.363281 C 9.75 13.914062 9.445312 14.40625 8.96875 14.683594 C 8.449219 14.980469 6.675781 15.019531 5.214844 14.953125 C 5.886719 13.65625 6.808594 12.140625 7.328125 11.839844 C 7.816406 11.558594 8.40625 11.546875 8.910156 11.808594 C 9.183594 11.949219 9.414062 12.171875 9.570312 12.441406 C 9.730469 12.722656 9.804688 13.042969 9.785156 13.363281 Z M 9.785156 13.363281 "/>
<path style=" stroke:none;fill-rule:nonzero;fill:rgb(0%,0%,0%);fill-opacity:1;" d="M 9.730469 3.382812 C 8.523438 3.382812 7.542969 4.363281 7.542969 5.570312 C 7.542969 6.777344 8.523438 7.757812 9.730469 7.757812 C 10.9375 7.757812 11.917969 6.777344 11.917969 5.570312 C 11.917969 4.363281 10.9375 3.382812 9.730469 3.382812 Z M 9.730469 6.664062 C 9.128906 6.664062 8.636719 6.171875 8.636719 5.570312 C 8.636719 4.964844 9.128906 4.476562 9.730469 4.476562 C 10.332031 4.476562 10.824219 4.964844 10.824219 5.570312 C 10.824219 6.171875 10.332031 6.664062 9.730469 6.664062 Z M 9.730469 6.664062 "/>
<path style=" stroke:none;fill-rule:nonzero;fill:rgb(0%,0%,0%);fill-opacity:1;" d="M 6.996094 18.078125 C 5.789062 18.078125 4.808594 19.058594 4.808594 20.265625 C 4.808594 21.46875 5.789062 22.453125 6.996094 22.453125 C 8.203125 22.453125 9.183594 21.46875 9.183594 20.265625 C 9.183594 19.058594 8.203125 18.078125 6.996094 18.078125 Z M 6.996094 21.359375 C 6.394531 21.359375 5.902344 20.867188 5.902344 20.265625 C 5.902344 19.660156 6.394531 19.171875 6.996094 19.171875 C 7.597656 19.171875 8.089844 19.660156 8.089844 20.265625 C 8.089844 20.867188 7.597656 21.359375 6.996094 21.359375 Z M 6.996094 21.359375 "/>
<path style=" stroke:none;fill-rule:nonzero;fill:rgb(0%,0%,0%);fill-opacity:1;" d="M 12.464844 21.359375 C 11.257812 21.359375 10.277344 22.339844 10.277344 23.546875 C 10.277344 24.75 11.257812 25.734375 12.464844 25.734375 C 13.671875 25.734375 14.652344 24.75 14.652344 23.546875 C 14.652344 22.339844 13.671875 21.359375 12.464844 21.359375 Z M 12.464844 24.640625 C 11.863281 24.640625 11.371094 24.148438 11.371094 23.546875 C 11.371094 22.941406 11.863281 22.453125 12.464844 22.453125 C 13.066406 22.453125 13.558594 22.941406 13.558594 23.546875 C 13.558594 24.148438 13.066406 24.640625 12.464844 24.640625 Z M 12.464844 24.640625 "/>
<path style=" stroke:none;fill-rule:nonzero;fill:rgb(0%,0%,0%);fill-opacity:1;" d="M 19.027344 20.265625 C 17.820312 20.265625 16.839844 21.246094 16.839844 22.453125 C 16.839844 23.65625 17.820312 24.640625 19.027344 24.640625 C 20.234375 24.640625 21.214844 23.65625 21.214844 22.453125 C 21.214844 21.246094 20.234375 20.265625 19.027344 20.265625 Z M 19.027344 23.546875 C 18.425781 23.546875 17.933594 23.054688 17.933594 22.453125 C 17.933594 21.847656 18.425781 21.359375 19.027344 21.359375 C 19.628906 21.359375 20.121094 21.847656 20.121094 22.453125 C 20.121094 23.054688 19.628906 23.546875 19.027344 23.546875 Z M 19.027344 23.546875 "/>
<path style=" stroke:none;fill-rule:nonzero;fill:rgb(0%,0%,0%);fill-opacity:1;" d="M 23.402344 14.796875 C 22.195312 14.796875 21.214844 15.777344 21.214844 16.984375 C 21.214844 18.1875 22.195312 19.171875 23.402344 19.171875 C 24.609375 19.171875 25.589844 18.1875 25.589844 16.984375 C 25.589844 15.777344 24.609375 14.796875 23.402344 14.796875 Z M 23.402344 18.078125 C 22.800781 18.078125 22.308594 17.585938 22.308594 16.984375 C 22.308594 16.378906 22.800781 15.890625 23.402344 15.890625 C 24.003906 15.890625 24.496094 16.378906 24.496094 16.984375 C 24.496094 17.585938 24.003906 18.078125 23.402344 18.078125 Z M 23.402344 18.078125 "/>
</g>
</svg>
