<?xml version="1.0" encoding="UTF-8"?>
<svg xmlns="http://www.w3.org/2000/svg" xmlns:xlink="http://www.w3.org/1999/xlink" width="28pt" height="28pt" viewBox="0 0 28 28" version="1.1">
<g id="surface1">
<path style=" stroke:none;fill-rule:nonzero;fill:rgb(0%,0%,0%);fill-opacity:1;" d="M 14 27.703125 C 8.785156 27.703125 4.214844 24.277344 2.992188 19.511719 C 1.335938 19.480469 0 18.125 0 16.464844 C 0 14.785156 1.367188 13.417969 3.046875 13.417969 L 3.308594 13.417969 C 4.898438 9.109375 9.15625 6.238281 14 6.238281 C 18.84375 6.238281 23.101562 9.109375 24.691406 13.417969 L 24.953125 13.417969 C 26.632812 13.417969 28 14.785156 28 16.464844 C 28 18.125 26.664062 19.480469 25.011719 19.511719 C 23.789062 24.277344 19.214844 27.703125 14 27.703125 Z M 3.046875 14.265625 C 1.835938 14.265625 0.847656 15.253906 0.847656 16.464844 C 0.847656 17.675781 1.835938 18.664062 3.046875 18.664062 L 3.324219 18.664062 C 3.523438 18.664062 3.699219 18.800781 3.738281 18.996094 C 4.746094 23.550781 9.0625 26.855469 14 26.855469 C 18.9375 26.855469 23.253906 23.550781 24.261719 18.996094 C 24.304688 18.800781 24.476562 18.664062 24.675781 18.664062 L 24.953125 18.664062 C 26.164062 18.664062 27.152344 17.675781 27.152344 16.464844 C 27.152344 15.253906 26.164062 14.265625 24.953125 14.265625 L 24.390625 14.265625 C 24.207031 14.265625 24.046875 14.148438 23.988281 13.976562 C 22.601562 9.855469 18.585938 7.085938 14 7.085938 C 9.414062 7.085938 5.398438 9.855469 4.011719 13.976562 C 3.953125 14.148438 3.792969 14.265625 3.609375 14.265625 Z M 3.046875 14.265625 "/>
<path style=" stroke:none;fill-rule:nonzero;fill:rgb(0%,0%,0%);fill-opacity:1;" d="M 18.582031 18.101562 C 18.582031 18.667969 18.121094 19.125 17.554688 19.125 C 16.988281 19.125 16.53125 18.667969 16.53125 18.101562 C 16.53125 17.535156 16.988281 17.078125 17.554688 17.078125 C 18.121094 17.078125 18.582031 17.535156 18.582031 18.101562 Z M 18.582031 18.101562 "/>
<path style=" stroke:none;fill-rule:nonzero;fill:rgb(0%,0%,0%);fill-opacity:1;" d="M 11.859375 18.101562 C 11.859375 18.667969 11.402344 19.125 10.835938 19.125 C 10.269531 19.125 9.8125 18.667969 9.8125 18.101562 C 9.8125 17.535156 10.269531 17.078125 10.835938 17.078125 C 11.402344 17.078125 11.859375 17.535156 11.859375 18.101562 Z M 11.859375 18.101562 "/>
<path style=" stroke:none;fill-rule:nonzero;fill:rgb(0%,0%,0%);fill-opacity:1;" d="M 14 23.648438 C 12.960938 23.648438 11.925781 23.363281 11 22.792969 L 10.835938 22.691406 C 10.636719 22.566406 10.574219 22.308594 10.695312 22.105469 C 10.820312 21.90625 11.082031 21.847656 11.28125 21.96875 L 11.445312 22.070312 C 13.019531 23.042969 14.976562 23.042969 16.554688 22.070312 L 16.71875 21.96875 C 16.917969 21.847656 17.179688 21.90625 17.304688 22.105469 C 17.425781 22.304688 17.363281 22.566406 17.164062 22.691406 L 17 22.792969 C 16.074219 23.363281 15.035156 23.648438 14 23.648438 Z M 14 23.648438 "/>
<path style=" stroke:none;fill-rule:nonzero;fill:rgb(0%,0%,0%);fill-opacity:1;" d="M 14.933594 7.140625 C 12.863281 7.140625 11.179688 5.457031 11.179688 3.386719 C 11.179688 1.683594 12.5625 0.296875 14.265625 0.296875 C 15.675781 0.296875 16.824219 1.441406 16.824219 2.851562 C 16.824219 4.027344 15.867188 4.984375 14.691406 4.984375 C 13.707031 4.984375 12.90625 4.179688 12.90625 3.195312 C 12.90625 2.960938 13.09375 2.769531 13.328125 2.769531 C 13.5625 2.769531 13.753906 2.960938 13.753906 3.195312 C 13.753906 3.714844 14.175781 4.132812 14.691406 4.132812 C 15.398438 4.132812 15.976562 3.558594 15.976562 2.851562 C 15.976562 1.910156 15.210938 1.144531 14.265625 1.144531 C 13.03125 1.144531 12.027344 2.148438 12.027344 3.386719 C 12.027344 4.988281 13.332031 6.292969 14.933594 6.292969 C 15.167969 6.292969 15.359375 6.484375 15.359375 6.71875 C 15.359375 6.953125 15.167969 7.140625 14.933594 7.140625 Z M 14.933594 7.140625 "/>
</g>
</svg>
