<?xml version="1.0" encoding="UTF-8"?>
<svg xmlns="http://www.w3.org/2000/svg" xmlns:xlink="http://www.w3.org/1999/xlink" width="28pt" height="28pt" viewBox="0 0 28 28" version="1.1">
<g id="surface1">
<path style=" stroke:none;fill-rule:nonzero;fill:rgb(0%,0%,0%);fill-opacity:1;" d="M 21.78125 14.15625 C 21.527344 13.996094 21.191406 14.074219 21.03125 14.328125 C 21.027344 14.332031 21.027344 14.335938 21.023438 14.335938 C 20.867188 14.59375 20.945312 14.925781 21.199219 15.085938 C 21.292969 15.144531 21.390625 15.171875 21.492188 15.171875 C 21.671875 15.171875 21.851562 15.078125 21.953125 14.914062 C 21.957031 14.910156 21.957031 14.910156 21.960938 14.90625 C 22.117188 14.648438 22.039062 14.316406 21.78125 14.15625 Z M 21.78125 14.15625 "/>
<path style=" stroke:none;fill-rule:nonzero;fill:rgb(0%,0%,0%);fill-opacity:1;" d="M 21.8125 18.179688 L 19.753906 17.5 L 20.515625 16.734375 C 20.730469 16.519531 20.730469 16.175781 20.515625 15.960938 C 20.304688 15.746094 19.957031 15.746094 19.742188 15.960938 L 18.589844 17.117188 L 17.316406 16.699219 C 17.210938 16.394531 17.039062 16.117188 16.804688 15.882812 C 16.566406 15.648438 16.289062 15.476562 15.992188 15.371094 L 15.535156 13.984375 L 16.648438 12.867188 C 16.816406 12.699219 16.964844 12.523438 17.101562 12.335938 C 17.121094 12.328125 17.144531 12.320312 17.164062 12.308594 C 18.664062 11.539062 20.433594 11.386719 22.042969 11.886719 C 21.972656 12.175781 21.886719 12.460938 21.789062 12.742188 C 21.6875 13.027344 21.835938 13.339844 22.117188 13.441406 C 22.402344 13.542969 22.714844 13.394531 22.816406 13.113281 C 23.195312 12.054688 23.386719 10.941406 23.386719 9.804688 C 23.386719 7.1875 22.367188 4.722656 20.515625 2.875 C 17.171875 -0.46875 11.921875 -0.953125 8.03125 1.726562 C 6.542969 2.753906 6.164062 4.800781 7.191406 6.289062 C 8.21875 7.78125 10.265625 8.15625 11.753906 7.132812 C 12.917969 6.332031 14.449219 6.386719 15.550781 7.226562 C 15.59375 7.285156 15.648438 7.332031 15.714844 7.367188 C 15.71875 7.371094 15.722656 7.371094 15.726562 7.371094 C 15.777344 7.417969 15.828125 7.464844 15.875 7.511719 C 17.140625 8.777344 17.140625 10.832031 15.875 12.09375 L 15.148438 12.820312 L 14.503906 10.867188 C 14.300781 10.25 13.800781 9.792969 13.167969 9.640625 C 12.539062 9.492188 11.886719 9.675781 11.425781 10.136719 L 10.902344 10.660156 C 10.6875 10.875 10.6875 11.222656 10.902344 11.433594 C 11.113281 11.648438 11.460938 11.648438 11.675781 11.433594 L 12.199219 10.910156 C 12.390625 10.71875 12.652344 10.644531 12.917969 10.707031 C 13.179688 10.769531 13.378906 10.953125 13.464844 11.210938 L 14.816406 15.296875 C 14.5625 15.351562 14.316406 15.449219 14.09375 15.59375 L 13.316406 14.820312 C 13.101562 14.605469 12.757812 14.605469 12.542969 14.820312 C 12.328125 15.03125 12.328125 15.378906 12.542969 15.59375 L 13.308594 16.359375 C 13.144531 16.59375 13.027344 16.859375 12.96875 17.144531 L 8.882812 15.792969 C 8.625 15.707031 8.441406 15.507812 8.378906 15.246094 C 8.316406 14.980469 8.390625 14.722656 8.582031 14.527344 L 8.9375 14.175781 C 9.148438 13.960938 9.148438 13.613281 8.9375 13.402344 C 8.722656 13.1875 8.375 13.1875 8.164062 13.402344 L 7.808594 13.753906 C 7.347656 14.214844 7.164062 14.867188 7.3125 15.5 C 7.464844 16.128906 7.921875 16.628906 8.539062 16.832031 L 10.492188 17.476562 L 5.570312 22.398438 C 4.292969 23.679688 4.292969 25.757812 5.570312 27.039062 C 6.191406 27.660156 7.015625 28 7.890625 28 C 8.769531 28 9.59375 27.660156 10.210938 27.039062 L 15.171875 22.082031 L 15.851562 24.140625 C 16.054688 24.757812 16.550781 25.214844 17.183594 25.367188 C 17.328125 25.402344 17.476562 25.417969 17.621094 25.417969 C 18.105469 25.417969 18.574219 25.226562 18.925781 24.875 L 22.546875 21.253906 C 23.003906 20.796875 23.1875 20.144531 23.039062 19.511719 C 22.886719 18.878906 22.429688 18.382812 21.8125 18.179688 Z M 9.4375 6.566406 C 8.910156 6.453125 8.421875 6.148438 8.089844 5.667969 C 7.40625 4.675781 7.660156 3.3125 8.652344 2.625 C 9.476562 2.058594 10.371094 1.652344 11.296875 1.398438 C 10.042969 2.832031 9.382812 4.664062 9.4375 6.566406 Z M 15.820312 6.09375 C 14.394531 5.230469 12.558594 5.25 11.132812 6.230469 C 10.945312 6.359375 10.742188 6.457031 10.53125 6.519531 C 10.484375 4.757812 11.15625 3.058594 12.414062 1.800781 C 12.671875 1.542969 12.949219 1.308594 13.246094 1.101562 C 15.414062 1.015625 17.59375 1.746094 19.308594 3.242188 C 18.371094 3.621094 17.511719 4.1875 16.789062 4.90625 C 16.425781 5.269531 16.101562 5.667969 15.820312 6.09375 Z M 16.683594 6.773438 C 16.933594 6.382812 17.230469 6.015625 17.5625 5.679688 C 18.292969 4.953125 19.183594 4.40625 20.160156 4.09375 C 21.539062 5.679688 22.292969 7.683594 22.292969 9.804688 C 22.292969 10.140625 22.273438 10.472656 22.238281 10.800781 C 20.777344 10.378906 19.21875 10.410156 17.785156 10.871094 C 18.140625 9.457031 17.773438 7.890625 16.683594 6.773438 Z M 9.4375 26.265625 C 9.027344 26.679688 8.476562 26.90625 7.890625 26.90625 C 7.308594 26.90625 6.757812 26.679688 6.34375 26.265625 C 5.546875 25.46875 5.496094 24.203125 6.191406 23.34375 C 6.203125 23.339844 6.214844 23.339844 6.226562 23.335938 C 8.148438 22.664062 10.238281 22.785156 12.050781 23.652344 Z M 12.863281 22.839844 C 11.25 21.980469 9.425781 21.652344 7.632812 21.886719 L 11.65625 17.863281 L 13.023438 18.3125 C 13.027344 18.316406 13.035156 18.316406 13.042969 18.320312 C 13.148438 18.621094 13.324219 18.898438 13.554688 19.132812 C 13.792969 19.371094 14.070312 19.539062 14.367188 19.644531 L 14.789062 20.917969 Z M 14.328125 18.359375 C 14.125 18.15625 14.015625 17.886719 14.015625 17.597656 C 14.015625 17.308594 14.125 17.039062 14.328125 16.835938 L 14.507812 16.65625 C 14.925781 16.238281 15.609375 16.238281 16.03125 16.65625 C 16.234375 16.863281 16.347656 17.132812 16.347656 17.421875 C 16.347656 17.707031 16.234375 17.980469 16.03125 18.183594 L 15.855469 18.359375 C 15.433594 18.78125 14.75 18.78125 14.328125 18.359375 Z M 21.773438 20.480469 L 18.152344 24.101562 C 17.960938 24.292969 17.699219 24.367188 17.4375 24.300781 C 17.171875 24.238281 16.972656 24.054688 16.890625 23.800781 L 15.546875 19.71875 C 15.851562 19.65625 16.144531 19.523438 16.402344 19.328125 L 17.132812 20.054688 C 17.238281 20.164062 17.378906 20.214844 17.519531 20.214844 C 17.65625 20.214844 17.796875 20.164062 17.90625 20.054688 C 18.117188 19.84375 18.117188 19.496094 17.90625 19.28125 L 17.140625 18.519531 C 17.261719 18.320312 17.34375 18.101562 17.394531 17.875 L 21.46875 19.21875 C 21.726562 19.300781 21.910156 19.5 21.972656 19.765625 C 22.035156 20.027344 21.964844 20.289062 21.773438 20.480469 Z M 21.773438 20.480469 "/>
<path style=" stroke:none;fill-rule:nonzero;fill:rgb(0%,0%,0%);fill-opacity:1;" d="M 10.398438 11.941406 C 10.296875 11.835938 10.15625 11.78125 10.011719 11.78125 C 9.867188 11.78125 9.726562 11.835938 9.625 11.941406 C 9.523438 12.042969 9.464844 12.183594 9.464844 12.328125 C 9.464844 12.46875 9.523438 12.609375 9.625 12.714844 C 9.726562 12.816406 9.867188 12.875 10.011719 12.875 C 10.15625 12.875 10.296875 12.816406 10.398438 12.714844 C 10.5 12.609375 10.558594 12.46875 10.558594 12.328125 C 10.558594 12.183594 10.5 12.042969 10.398438 11.941406 Z M 10.398438 11.941406 "/>
</g>
</svg>
