<?xml version="1.0" encoding="UTF-8"?>
<svg xmlns="http://www.w3.org/2000/svg" xmlns:xlink="http://www.w3.org/1999/xlink" width="28pt" height="28pt" viewBox="0 0 28 28" version="1.1">
<g id="surface1">
<path style=" stroke:none;fill-rule:nonzero;fill:rgb(0%,0%,0%);fill-opacity:1;" d="M 22.304688 1.421875 L 6.167969 1.421875 C 5.90625 1.421875 5.695312 1.636719 5.695312 1.898438 L 5.695312 11.390625 C 5.695312 11.652344 5.90625 11.863281 6.167969 11.863281 L 22.304688 11.863281 C 22.566406 11.863281 22.78125 11.652344 22.78125 11.390625 L 22.78125 1.898438 C 22.78125 1.636719 22.566406 1.421875 22.304688 1.421875 Z M 21.832031 10.914062 L 6.644531 10.914062 L 6.644531 2.371094 L 21.832031 2.371094 Z M 21.832031 10.914062 "/>
<path style=" stroke:none;fill-rule:nonzero;fill:rgb(0%,0%,0%);fill-opacity:1;" d="M 5.21875 25.628906 L 5.21875 13.761719 C 5.21875 13.5 5.007812 13.289062 4.746094 13.289062 L 1.898438 13.289062 C 1.636719 13.289062 1.421875 13.5 1.421875 13.761719 L 1.421875 25.628906 L 0 25.628906 L 0 26.578125 L 6.167969 26.578125 L 6.167969 25.628906 Z M 4.269531 25.628906 L 2.371094 25.628906 L 2.371094 14.238281 L 4.269531 14.238281 Z M 4.269531 25.628906 "/>
<path style=" stroke:none;fill-rule:nonzero;fill:rgb(0%,0%,0%);fill-opacity:1;" d="M 27.050781 25.628906 L 27.050781 13.761719 C 27.050781 13.5 26.839844 13.289062 26.578125 13.289062 L 23.730469 13.289062 C 23.464844 13.289062 23.253906 13.5 23.253906 13.761719 L 23.253906 25.628906 L 21.832031 25.628906 L 21.832031 26.578125 L 28 26.578125 L 28 25.628906 Z M 26.101562 25.628906 L 24.203125 25.628906 L 24.203125 14.238281 L 26.101562 14.238281 Z M 26.101562 25.628906 "/>
<path style=" stroke:none;fill-rule:nonzero;fill:rgb(0%,0%,0%);fill-opacity:1;" d="M 19.457031 19.457031 L 18.035156 19.457031 L 18.035156 17.085938 C 18.035156 16.824219 17.820312 16.609375 17.558594 16.609375 L 10.914062 16.609375 C 10.652344 16.609375 10.441406 16.824219 10.441406 17.085938 L 10.441406 19.457031 L 9.015625 19.457031 C 8.753906 19.457031 8.542969 19.671875 8.542969 19.933594 L 8.542969 25.628906 C 8.542969 25.890625 8.753906 26.101562 9.015625 26.101562 L 19.457031 26.101562 C 19.71875 26.101562 19.933594 25.890625 19.933594 25.628906 L 19.933594 19.933594 C 19.933594 19.671875 19.71875 19.457031 19.457031 19.457031 Z M 11.390625 17.558594 L 17.085938 17.558594 L 17.085938 19.457031 L 11.390625 19.457031 Z M 18.984375 25.152344 L 9.492188 25.152344 L 9.492188 23.253906 L 18.984375 23.253906 Z M 18.984375 22.304688 L 9.492188 22.304688 L 9.492188 20.40625 L 18.984375 20.40625 Z M 18.984375 22.304688 "/>
</g>
</svg>
