<?xml version="1.0" encoding="UTF-8"?>
<svg xmlns="http://www.w3.org/2000/svg" xmlns:xlink="http://www.w3.org/1999/xlink" width="28pt" height="28pt" viewBox="0 0 28 28" version="1.1">
<g id="surface1">
<path style=" stroke:none;fill-rule:nonzero;fill:rgb(0%,0%,0%);fill-opacity:1;" d="M 21.59375 0.472656 L 22.542969 0.472656 L 22.542969 4.746094 L 21.59375 4.746094 Z M 21.59375 0.472656 "/>
<path style=" stroke:none;fill-rule:nonzero;fill:rgb(0%,0%,0%);fill-opacity:1;" d="M 22.066406 0 C 19.710938 0 17.796875 1.917969 17.796875 4.269531 C 17.796875 6.625 19.710938 8.542969 22.066406 8.542969 C 24.421875 8.542969 26.339844 6.625 26.339844 4.269531 C 26.339844 1.917969 24.421875 0 22.066406 0 Z M 22.066406 7.59375 C 20.238281 7.59375 18.746094 6.101562 18.746094 4.269531 C 18.746094 2.4375 20.238281 0.949219 22.066406 0.949219 C 23.898438 0.949219 25.390625 2.4375 25.390625 4.269531 C 25.390625 6.101562 23.898438 7.59375 22.066406 7.59375 Z M 22.066406 7.59375 "/>
<path style=" stroke:none;fill-rule:nonzero;fill:rgb(0%,0%,0%);fill-opacity:1;" d="M 10.679688 15.660156 L 11.628906 15.660156 L 11.628906 25.628906 L 10.679688 25.628906 Z M 10.679688 15.660156 "/>
<path style=" stroke:none;fill-rule:nonzero;fill:rgb(0%,0%,0%);fill-opacity:1;" d="M 15.421875 25.152344 L 8.78125 25.152344 C 7.472656 25.152344 6.40625 26.21875 6.40625 27.527344 C 6.40625 27.789062 6.621094 28 6.882812 28 L 17.320312 28 C 17.585938 28 17.796875 27.789062 17.796875 27.527344 C 17.796875 26.21875 16.730469 25.152344 15.421875 25.152344 Z M 7.4375 27.050781 C 7.632812 26.5 8.160156 26.101562 8.78125 26.101562 L 15.421875 26.101562 C 16.042969 26.101562 16.570312 26.5 16.765625 27.050781 Z M 7.4375 27.050781 "/>
<path style=" stroke:none;fill-rule:nonzero;fill:rgb(0%,0%,0%);fill-opacity:1;" d="M 12.578125 15.660156 L 13.527344 15.660156 L 13.527344 25.628906 L 12.578125 25.628906 Z M 12.578125 15.660156 "/>
<path style=" stroke:none;fill-rule:nonzero;fill:rgb(0%,0%,0%);fill-opacity:1;" d="M 22.066406 3.796875 L 2.136719 3.796875 C 1.875 3.796875 1.660156 4.007812 1.660156 4.269531 L 1.660156 5.695312 C 1.660156 8.9375 4.175781 11.601562 7.355469 11.847656 L 7.355469 11.863281 C 7.355469 14.480469 9.484375 16.609375 12.101562 16.609375 C 14.71875 16.609375 16.847656 14.480469 16.847656 11.863281 L 16.847656 11.847656 C 20.027344 11.601562 22.542969 8.9375 22.542969 5.695312 L 22.542969 4.269531 C 22.542969 4.007812 22.332031 3.796875 22.066406 3.796875 Z M 21.59375 5.695312 C 21.59375 8.574219 19.25 10.914062 16.371094 10.914062 C 16.109375 10.914062 15.898438 11.128906 15.898438 11.390625 L 15.898438 11.863281 C 15.898438 13.957031 14.195312 15.660156 12.101562 15.660156 C 10.007812 15.660156 8.304688 13.957031 8.304688 11.863281 L 8.304688 11.390625 C 8.304688 11.128906 8.09375 10.914062 7.832031 10.914062 C 4.953125 10.914062 2.609375 8.574219 2.609375 5.695312 L 2.609375 4.746094 L 21.59375 4.746094 Z M 21.59375 5.695312 "/>
<path style=" stroke:none;fill-rule:nonzero;fill:rgb(0%,0%,0%);fill-opacity:1;" d="M 2.609375 7.59375 L 21.59375 7.59375 L 21.59375 8.542969 L 2.609375 8.542969 Z M 2.609375 7.59375 "/>
<path style=" stroke:none;fill-rule:nonzero;fill:rgb(0%,0%,0%);fill-opacity:1;" d="M 22.277344 3.796875 L 26.074219 3.796875 L 26.074219 4.746094 L 22.277344 4.746094 Z M 22.277344 3.796875 "/>
<path style=" stroke:none;fill-rule:nonzero;fill:rgb(0%,0%,0%);fill-opacity:1;" d="M 19.332031 1.726562 L 20.0625 1.121094 L 24.804688 6.816406 L 24.078125 7.421875 Z M 19.332031 1.726562 "/>
<path style=" stroke:none;fill-rule:nonzero;fill:rgb(0%,0%,0%);fill-opacity:1;" d="M 18.886719 6.78125 L 24.582031 1.085938 L 25.253906 1.757812 L 19.558594 7.453125 Z M 18.886719 6.78125 "/>
</g>
</svg>
