<?xml version="1.0" encoding="UTF-8"?>
<svg xmlns="http://www.w3.org/2000/svg" xmlns:xlink="http://www.w3.org/1999/xlink" width="28pt" height="28pt" viewBox="0 0 28 28" version="1.1">
<g id="surface1">
<path style=" stroke:none;fill-rule:nonzero;fill:rgb(0%,0%,0%);fill-opacity:1;" d="M 21.234375 2.800781 C 19.355469 2.804688 17.769531 4.203125 17.53125 6.066406 L 16.359375 6.066406 L 17.851562 0.933594 L 19.367188 0.933594 L 19.367188 0 L 17.5 0 C 17.292969 0 17.109375 0.136719 17.050781 0.335938 L 15.386719 6.066406 L 3.5 6.066406 C 3.242188 6.066406 3.035156 6.277344 3.035156 6.535156 C 3.035156 6.636719 3.070312 6.742188 3.132812 6.824219 L 11.898438 17.894531 L 11.898438 27.066406 L 8.167969 27.066406 L 8.167969 28 L 16.566406 28 L 16.566406 27.066406 L 12.832031 27.066406 L 12.832031 17.894531 L 19.308594 9.71875 C 19.886719 10.078125 20.554688 10.265625 21.234375 10.265625 C 23.296875 10.265625 24.964844 8.59375 24.964844 6.535156 C 24.964844 4.472656 23.296875 2.800781 21.234375 2.800781 Z M 4.464844 7 L 15.117188 7 L 14.167969 10.265625 L 7.050781 10.265625 Z M 12.367188 16.980469 L 7.789062 11.199219 L 13.898438 11.199219 L 12.851562 14.804688 L 13.75 15.0625 L 14.871094 11.199219 L 16.945312 11.199219 Z M 17.683594 10.265625 L 15.140625 10.265625 L 16.089844 7 L 20.269531 7 Z M 21.234375 9.332031 C 20.761719 9.335938 20.296875 9.214844 19.886719 8.988281 L 21.597656 6.824219 C 21.757812 6.621094 21.726562 6.328125 21.523438 6.167969 C 21.441406 6.101562 21.339844 6.066406 21.234375 6.066406 L 18.472656 6.066406 C 18.730469 4.542969 20.175781 3.515625 21.699219 3.773438 C 23.222656 4.03125 24.25 5.476562 23.992188 7 C 23.765625 8.347656 22.597656 9.332031 21.234375 9.332031 Z M 21.234375 9.332031 "/>
</g>
</svg>
