<?xml version="1.0" encoding="UTF-8"?>
<svg xmlns="http://www.w3.org/2000/svg" xmlns:xlink="http://www.w3.org/1999/xlink" width="28pt" height="28pt" viewBox="0 0 28 28" version="1.1">
<g id="surface1">
<path style=" stroke:none;fill-rule:nonzero;fill:rgb(0%,0%,0%);fill-opacity:1;" d="M 18.667969 0.0625 C 17.882812 0.0625 17.246094 0.695312 17.246094 1.480469 C 17.246094 2.265625 17.882812 2.902344 18.667969 2.902344 C 19.449219 2.902344 20.085938 2.265625 20.085938 1.480469 C 20.085938 0.695312 19.449219 0.0625 18.667969 0.0625 Z M 18.667969 1.957031 C 18.40625 1.957031 18.191406 1.742188 18.191406 1.480469 C 18.191406 1.21875 18.40625 1.007812 18.667969 1.007812 C 18.929688 1.007812 19.140625 1.21875 19.140625 1.480469 C 19.140625 1.742188 18.929688 1.957031 18.667969 1.957031 Z M 18.667969 1.957031 "/>
<path style=" stroke:none;fill-rule:nonzero;fill:rgb(0%,0%,0%);fill-opacity:1;" d="M 14.402344 2.429688 C 13.09375 2.429688 12.035156 3.488281 12.035156 4.796875 C 12.035156 6.105469 13.09375 7.167969 14.402344 7.167969 C 15.710938 7.167969 16.769531 6.105469 16.769531 4.796875 C 16.769531 3.492188 15.710938 2.429688 14.402344 2.429688 Z M 14.402344 6.21875 C 13.617188 6.21875 12.980469 5.582031 12.980469 4.796875 C 12.980469 4.011719 13.617188 3.375 14.402344 3.375 C 15.1875 3.375 15.824219 4.011719 15.824219 4.796875 C 15.824219 5.582031 15.1875 6.21875 14.402344 6.21875 Z M 14.402344 6.21875 "/>
<path style=" stroke:none;fill-rule:nonzero;fill:rgb(0%,0%,0%);fill-opacity:1;" d="M 7.769531 3.375 C 6.722656 3.375 5.875 4.226562 5.875 5.273438 C 5.875 6.316406 6.722656 7.167969 7.769531 7.167969 C 8.816406 7.167969 9.664062 6.316406 9.664062 5.273438 C 9.664062 4.226562 8.816406 3.375 7.769531 3.375 Z M 7.769531 6.21875 C 7.246094 6.21875 6.824219 5.792969 6.824219 5.273438 C 6.824219 4.75 7.246094 4.324219 7.769531 4.324219 C 8.292969 4.324219 8.71875 4.75 8.71875 5.273438 C 8.71875 5.792969 8.292969 6.21875 7.769531 6.21875 Z M 7.769531 6.21875 "/>
<path style=" stroke:none;fill-rule:nonzero;fill:rgb(0%,0%,0%);fill-opacity:1;" d="M 4.929688 0.0625 C 4.144531 0.0625 3.507812 0.695312 3.507812 1.480469 C 3.507812 2.265625 4.144531 2.902344 4.929688 2.902344 C 5.714844 2.902344 6.347656 2.265625 6.347656 1.480469 C 6.347656 0.695312 5.714844 0.0625 4.929688 0.0625 Z M 4.929688 1.957031 C 4.667969 1.957031 4.453125 1.742188 4.453125 1.480469 C 4.453125 1.21875 4.667969 1.007812 4.929688 1.007812 C 5.191406 1.007812 5.402344 1.21875 5.402344 1.480469 C 5.402344 1.742188 5.191406 1.957031 4.929688 1.957031 Z M 4.929688 1.957031 "/>
<path style=" stroke:none;fill-rule:nonzero;fill:rgb(0%,0%,0%);fill-opacity:1;" d="M 16.429688 15.28125 L 17.324219 14.976562 L 20.390625 23.980469 L 19.492188 24.285156 Z M 16.429688 15.28125 "/>
<path style=" stroke:none;fill-rule:nonzero;fill:rgb(0%,0%,0%);fill-opacity:1;" d="M 14.003906 16.101562 L 14.902344 15.796875 L 17.964844 24.800781 L 17.070312 25.105469 Z M 14.003906 16.101562 "/>
<path style=" stroke:none;fill-rule:nonzero;fill:rgb(0%,0%,0%);fill-opacity:1;" d="M 18.851562 14.453125 L 19.75 14.148438 L 22.8125 23.152344 L 21.914062 23.457031 Z M 18.851562 14.453125 "/>
<path style=" stroke:none;fill-rule:nonzero;fill:rgb(0%,0%,0%);fill-opacity:1;" d="M 27.867188 17.570312 L 25.628906 10.988281 C 25.15625 9.59375 23.640625 8.84375 22.246094 9.320312 C 22.246094 9.320312 22.242188 9.320312 22.242188 9.320312 L 20.960938 9.757812 L 20.878906 9.511719 C 20.273438 7.734375 18.34375 6.78125 16.566406 7.386719 C 15.925781 7.601562 15.363281 8.003906 14.957031 8.542969 C 14.125 8.480469 13.316406 8.816406 12.773438 9.441406 C 12.671875 9.410156 12.566406 9.382812 12.460938 9.363281 C 12.109375 9.304688 11.75 9.3125 11.40625 9.394531 C 10.046875 8.09375 7.894531 8.140625 6.597656 9.496094 C 6.132812 9.984375 5.820312 10.597656 5.703125 11.261719 L 5.660156 11.519531 L 4.324219 11.285156 C 2.871094 11.03125 1.488281 12 1.234375 13.453125 L 0.0390625 20.300781 C -0.210938 21.753906 0.757812 23.132812 2.210938 23.390625 L 3.542969 23.621094 L 3.503906 23.867188 C 2.855469 24.015625 2.453125 24.664062 2.601562 25.3125 C 2.710938 25.785156 3.09375 26.144531 3.570312 26.226562 L 13.660156 27.992188 C 13.730469 28.003906 13.800781 28.011719 13.867188 28.011719 C 14.339844 28.007812 14.765625 27.730469 14.960938 27.304688 C 15.171875 27.351562 15.390625 27.339844 15.597656 27.269531 L 25.292969 23.96875 C 25.925781 23.753906 26.261719 23.070312 26.046875 22.4375 C 25.890625 21.980469 25.480469 21.660156 24.996094 21.625 L 24.917969 21.390625 L 26.203125 20.957031 C 27.59375 20.480469 28.339844 18.964844 27.867188 17.570312 Z M 20.136719 10.265625 L 20.300781 10.753906 L 17.042969 11.863281 L 16.875 11.375 Z M 12.25 10.628906 C 12.453125 10.558594 12.660156 10.53125 12.871094 10.539062 C 13.046875 10.546875 13.210938 10.460938 13.296875 10.3125 L 13.300781 10.3125 C 13.671875 9.695312 14.386719 9.378906 15.09375 9.515625 C 15.285156 9.550781 15.480469 9.46875 15.585938 9.300781 C 15.878906 8.824219 16.332031 8.464844 16.867188 8.285156 C 17.976562 7.910156 19.195312 8.371094 19.78125 9.382812 L 16.117188 10.632812 C 15.871094 10.714844 15.738281 10.984375 15.824219 11.230469 L 16.53125 13.308594 C 16.628906 13.640625 16.441406 13.988281 16.113281 14.085938 C 15.800781 14.183594 15.464844 14.019531 15.351562 13.710938 L 15.113281 13.019531 C 15.039062 12.769531 14.773438 12.628906 14.523438 12.703125 C 14.273438 12.78125 14.128906 13.046875 14.207031 13.296875 C 14.210938 13.304688 14.214844 13.316406 14.21875 13.324219 C 14.320312 13.652344 14.140625 14.003906 13.8125 14.109375 C 13.492188 14.210938 13.148438 14.042969 13.035156 13.726562 L 12.5625 12.339844 C 12.476562 12.09375 12.207031 11.960938 11.960938 12.042969 L 11.09375 12.339844 C 11.054688 11.574219 11.527344 10.875 12.25 10.628906 Z M 11.984375 13.585938 L 11.496094 13.75 L 11.332031 13.261719 L 11.820312 13.097656 Z M 9.480469 9.433594 C 10.035156 9.527344 10.539062 9.8125 10.90625 10.238281 C 10.929688 10.265625 10.960938 10.289062 10.988281 10.308594 C 10.621094 10.65625 10.355469 11.097656 10.230469 11.589844 L 6.769531 10.96875 C 7.191406 9.875 8.324219 9.234375 9.480469 9.433594 Z M 6.558594 11.898438 L 10.15625 12.539062 C 10.175781 12.71875 10.210938 12.898438 10.265625 13.066406 L 6.46875 12.40625 Z M 2.371094 22.457031 C 1.433594 22.289062 0.8125 21.398438 0.972656 20.464844 L 2.171875 13.617188 C 2.335938 12.679688 3.226562 12.054688 4.160156 12.214844 C 4.160156 12.214844 4.164062 12.214844 4.164062 12.21875 L 5.5 12.449219 L 5.410156 12.957031 L 4.433594 12.789062 C 3.582031 12.636719 2.765625 13.210938 2.617188 14.066406 L 1.542969 20.195312 C 1.394531 21.050781 1.96875 21.863281 2.824219 22.011719 L 3.796875 22.183594 L 3.710938 22.691406 Z M 5.246094 13.890625 L 3.960938 21.246094 L 2.984375 21.078125 C 2.644531 21.019531 2.417969 20.695312 2.476562 20.355469 L 3.550781 14.226562 C 3.609375 13.890625 3.933594 13.664062 4.273438 13.722656 Z M 14.125 26.847656 C 14.097656 26.988281 13.964844 27.082031 13.824219 27.058594 L 3.734375 25.292969 C 3.59375 25.273438 3.492188 25.144531 3.515625 25.003906 C 3.535156 24.863281 3.664062 24.761719 3.804688 24.78125 C 3.8125 24.785156 3.816406 24.785156 3.824219 24.785156 C 4.082031 24.832031 4.324219 24.660156 4.371094 24.402344 L 6.308594 13.332031 L 10.613281 14.085938 L 13.914062 23.792969 L 13.527344 26 C 13.507812 26.125 13.535156 26.253906 13.605469 26.355469 C 13.679688 26.457031 13.789062 26.527344 13.914062 26.550781 C 14.054688 26.574219 14.148438 26.707031 14.125 26.847656 Z M 25.152344 22.746094 C 25.195312 22.878906 25.125 23.027344 24.992188 23.070312 L 15.292969 26.371094 C 15.15625 26.417969 15.011719 26.347656 14.964844 26.210938 C 14.917969 26.074219 14.988281 25.929688 15.125 25.882812 C 15.371094 25.796875 15.503906 25.53125 15.421875 25.28125 L 11.804688 14.644531 L 12.367188 14.453125 C 12.878906 15.152344 13.859375 15.304688 14.554688 14.792969 C 14.640625 14.730469 14.71875 14.660156 14.789062 14.582031 C 14.921875 14.722656 15.074219 14.835938 15.246094 14.921875 C 16.023438 15.304688 16.96875 14.984375 17.351562 14.203125 C 17.535156 13.832031 17.5625 13.398438 17.429688 13.003906 L 17.34375 12.761719 L 20.605469 11.652344 L 24.222656 22.289062 C 24.308594 22.535156 24.574219 22.667969 24.824219 22.582031 C 24.960938 22.539062 25.105469 22.609375 25.152344 22.746094 Z M 21.738281 12.039062 L 22.675781 11.71875 C 23 11.609375 23.355469 11.78125 23.464844 12.109375 L 25.46875 17.996094 C 25.578125 18.324219 25.40625 18.679688 25.078125 18.789062 L 24.140625 19.109375 Z M 25.898438 20.054688 L 24.613281 20.492188 L 24.445312 20.003906 L 25.382812 19.6875 C 26.203125 19.40625 26.644531 18.511719 26.363281 17.691406 L 24.359375 11.804688 C 24.078125 10.984375 23.1875 10.542969 22.367188 10.820312 L 21.429688 11.140625 L 21.265625 10.652344 L 22.550781 10.21875 C 23.449219 9.910156 24.429688 10.390625 24.734375 11.292969 L 26.972656 17.871094 C 27.277344 18.773438 26.796875 19.75 25.898438 20.054688 Z M 25.898438 20.054688 "/>
<path style=" stroke:none;fill-rule:nonzero;fill:rgb(0%,0%,0%);fill-opacity:1;" d="M 8.417969 25.484375 L 10.054688 16.113281 L 10.988281 16.277344 L 9.347656 25.644531 Z M 8.417969 25.484375 "/>
<path style=" stroke:none;fill-rule:nonzero;fill:rgb(0%,0%,0%);fill-opacity:1;" d="M 10.941406 25.925781 L 11.863281 20.355469 L 12.796875 20.507812 L 11.878906 26.082031 Z M 10.941406 25.925781 "/>
<path style=" stroke:none;fill-rule:nonzero;fill:rgb(0%,0%,0%);fill-opacity:1;" d="M 5.898438 25.039062 L 7.539062 15.667969 L 8.472656 15.832031 L 6.832031 25.203125 Z M 5.898438 25.039062 "/>
</g>
</svg>
