<?xml version="1.0" encoding="UTF-8"?>
<svg xmlns="http://www.w3.org/2000/svg" xmlns:xlink="http://www.w3.org/1999/xlink" width="28pt" height="28pt" viewBox="0 0 28 28" version="1.1">
<g id="surface1">
<path style=" stroke:none;fill-rule:nonzero;fill:rgb(0%,0%,0%);fill-opacity:1;" d="M 18.984375 27.320312 L 14.347656 25.835938 L 14.347656 16.210938 C 15.351562 16.132812 16.304688 15.726562 17.058594 15.042969 C 17.894531 14.289062 18.417969 13.257812 18.527344 12.148438 C 18.527344 12.136719 18.527344 12.125 18.527344 12.113281 L 18.527344 0.347656 C 18.527344 0.15625 18.375 0 18.179688 0 L 9.820312 0 C 9.628906 0 9.472656 0.15625 9.472656 0.347656 L 9.472656 12.113281 C 9.472656 12.125 9.472656 12.136719 9.472656 12.148438 C 9.582031 13.257812 10.105469 14.289062 10.941406 15.042969 C 11.695312 15.726562 12.648438 16.132812 13.652344 16.210938 L 13.652344 25.835938 L 9.015625 27.320312 C 8.851562 27.371094 8.75 27.535156 8.777344 27.707031 C 8.804688 27.875 8.949219 28 9.121094 28 L 18.878906 28 C 19.050781 28 19.195312 27.875 19.222656 27.707031 C 19.25 27.535156 19.148438 27.371094 18.984375 27.320312 Z M 10.167969 0.695312 L 17.832031 0.695312 L 17.832031 4.308594 L 11.699219 4.308594 L 11.699219 1.949219 C 11.699219 1.757812 11.542969 1.601562 11.351562 1.601562 C 11.160156 1.601562 11.003906 1.757812 11.003906 1.949219 L 11.003906 4.308594 L 10.167969 4.308594 Z M 10.167969 12.09375 L 10.167969 5.003906 L 11.003906 5.003906 L 11.003906 11.359375 C 11.003906 11.550781 11.160156 11.707031 11.351562 11.707031 C 11.542969 11.707031 11.699219 11.550781 11.699219 11.359375 L 11.699219 5.003906 L 17.832031 5.003906 L 17.832031 12.09375 C 17.632812 14.019531 15.953125 15.527344 14 15.527344 C 12.046875 15.527344 10.367188 14.019531 10.167969 12.09375 Z M 11.351562 27.304688 L 14 26.453125 L 16.648438 27.304688 Z M 11.351562 27.304688 "/>
</g>
</svg>
