<?xml version="1.0" encoding="UTF-8"?>
<svg xmlns="http://www.w3.org/2000/svg" xmlns:xlink="http://www.w3.org/1999/xlink" width="28pt" height="28pt" viewBox="0 0 28 28" version="1.1">
<g id="surface1">
<path style=" stroke:none;fill-rule:nonzero;fill:rgb(0%,0%,0%);fill-opacity:1;" d="M 20.125 17.5 C 19.691406 17.5 19.285156 17.714844 19.039062 18.074219 C 18.792969 18.433594 18.746094 18.890625 18.90625 19.296875 C 18.707031 19.351562 18.527344 19.449219 18.375 19.585938 C 18.195312 19.421875 17.972656 19.316406 17.734375 19.269531 L 16.539062 17.675781 C 16.390625 17.480469 16.117188 17.441406 15.925781 17.585938 C 15.730469 17.734375 15.691406 18.007812 15.835938 18.199219 L 16.535156 19.132812 C 16.007812 18.925781 15.445312 18.820312 14.875 18.8125 C 13.296875 18.8125 12.042969 19.734375 11.988281 19.773438 C 11.878906 19.855469 11.8125 19.988281 11.8125 20.125 C 11.8125 20.261719 11.878906 20.394531 11.988281 20.476562 C 12.589844 20.894531 13.273438 21.191406 13.992188 21.34375 C 13.636719 21.667969 13.488281 22.15625 13.597656 22.621094 C 13.710938 23.085938 14.070312 23.453125 14.53125 23.578125 C 14.40625 23.890625 14.40625 24.234375 14.53125 24.546875 C 14.007812 24.6875 13.625 25.136719 13.566406 25.675781 C 13.511719 26.21875 13.792969 26.734375 14.277344 26.984375 C 14.761719 27.230469 15.347656 27.152344 15.75 26.789062 C 16.246094 27.238281 17.003906 27.238281 17.5 26.789062 C 17.996094 27.238281 18.753906 27.238281 19.25 26.789062 C 19.746094 27.238281 20.503906 27.238281 21 26.789062 C 21.496094 27.238281 22.253906 27.238281 22.75 26.789062 C 23.152344 27.152344 23.738281 27.226562 24.222656 26.980469 C 24.703125 26.734375 24.988281 26.214844 24.929688 25.675781 C 24.875 25.136719 24.492188 24.6875 23.96875 24.546875 C 24.109375 24.199219 24.089844 23.808594 23.925781 23.476562 C 23.757812 23.140625 23.457031 22.894531 23.09375 22.796875 C 23.234375 22.449219 23.214844 22.058594 23.050781 21.726562 C 22.882812 21.390625 22.582031 21.144531 22.21875 21.046875 C 22.359375 20.699219 22.339844 20.308594 22.175781 19.976562 C 22.007812 19.640625 21.707031 19.394531 21.34375 19.296875 C 21.503906 18.890625 21.457031 18.433594 21.210938 18.074219 C 20.964844 17.714844 20.558594 17.5 20.125 17.5 Z M 18.375 22.75 C 18.132812 22.75 17.9375 22.554688 17.9375 22.3125 C 17.9375 22.070312 18.132812 21.875 18.375 21.875 C 18.617188 21.875 18.8125 22.070312 18.8125 22.3125 C 18.8125 22.554688 18.617188 22.75 18.375 22.75 Z M 16.625 22.75 C 16.382812 22.75 16.1875 22.554688 16.1875 22.3125 C 16.1875 22.070312 16.382812 21.875 16.625 21.875 C 16.867188 21.875 17.0625 22.070312 17.0625 22.3125 C 17.0625 22.554688 16.867188 22.75 16.625 22.75 Z M 17.5 23.625 C 17.742188 23.625 17.9375 23.820312 17.9375 24.0625 C 17.9375 24.304688 17.742188 24.5 17.5 24.5 C 17.257812 24.5 17.0625 24.304688 17.0625 24.0625 C 17.0625 23.820312 17.257812 23.625 17.5 23.625 Z M 19.25 23.625 C 19.492188 23.625 19.6875 23.820312 19.6875 24.0625 C 19.6875 24.304688 19.492188 24.5 19.25 24.5 C 19.007812 24.5 18.8125 24.304688 18.8125 24.0625 C 18.8125 23.820312 19.007812 23.625 19.25 23.625 Z M 21 24.5 C 20.757812 24.5 20.5625 24.304688 20.5625 24.0625 C 20.5625 23.820312 20.757812 23.625 21 23.625 C 21.242188 23.625 21.4375 23.820312 21.4375 24.0625 C 21.4375 24.304688 21.242188 24.5 21 24.5 Z M 20.125 22.75 C 19.882812 22.75 19.6875 22.554688 19.6875 22.3125 C 19.6875 22.070312 19.882812 21.875 20.125 21.875 C 20.367188 21.875 20.5625 22.070312 20.5625 22.3125 C 20.5625 22.554688 20.367188 22.75 20.125 22.75 Z M 15.75 23.625 C 15.992188 23.625 16.1875 23.820312 16.1875 24.0625 C 16.1875 24.304688 15.992188 24.5 15.75 24.5 C 15.507812 24.5 15.3125 24.304688 15.3125 24.0625 C 15.3125 23.820312 15.507812 23.625 15.75 23.625 Z M 20.125 18.375 C 20.367188 18.375 20.5625 18.570312 20.5625 18.8125 C 20.5625 19.054688 20.367188 19.25 20.125 19.25 C 19.882812 19.25 19.6875 19.054688 19.6875 18.8125 C 19.6875 18.570312 19.882812 18.375 20.125 18.375 Z M 19.25 20.125 C 19.492188 20.125 19.6875 20.320312 19.6875 20.5625 C 19.6875 20.804688 19.492188 21 19.25 21 C 19.007812 21 18.8125 20.804688 18.8125 20.5625 C 18.8125 20.320312 19.007812 20.125 19.25 20.125 Z M 17.5 21 C 17.257812 21 17.0625 20.804688 17.0625 20.5625 C 17.0625 20.320312 17.257812 20.125 17.5 20.125 C 17.742188 20.125 17.9375 20.320312 17.9375 20.5625 C 17.9375 20.804688 17.742188 21 17.5 21 Z M 14.875 19.6875 C 15.371094 19.695312 15.863281 19.796875 16.320312 19.988281 C 16.269531 20.085938 16.234375 20.195312 16.214844 20.304688 C 15.785156 20.46875 15.332031 20.558594 14.875 20.5625 C 14.183594 20.5625 13.554688 20.335938 13.117188 20.125 C 13.554688 19.914062 14.183594 19.6875 14.875 19.6875 Z M 14.875 21.875 C 15.117188 21.875 15.3125 22.070312 15.3125 22.3125 C 15.3125 22.554688 15.117188 22.75 14.875 22.75 C 14.632812 22.75 14.4375 22.554688 14.4375 22.3125 C 14.4375 22.070312 14.632812 21.875 14.875 21.875 Z M 14.875 26.25 C 14.632812 26.25 14.4375 26.054688 14.4375 25.8125 C 14.4375 25.570312 14.632812 25.375 14.875 25.375 C 15.117188 25.375 15.3125 25.570312 15.3125 25.8125 C 15.3125 26.054688 15.117188 26.25 14.875 26.25 Z M 16.625 26.25 C 16.382812 26.25 16.1875 26.054688 16.1875 25.8125 C 16.1875 25.570312 16.382812 25.375 16.625 25.375 C 16.867188 25.375 17.0625 25.570312 17.0625 25.8125 C 17.0625 26.054688 16.867188 26.25 16.625 26.25 Z M 18.375 26.25 C 18.132812 26.25 17.9375 26.054688 17.9375 25.8125 C 17.9375 25.570312 18.132812 25.375 18.375 25.375 C 18.617188 25.375 18.8125 25.570312 18.8125 25.8125 C 18.8125 26.054688 18.617188 26.25 18.375 26.25 Z M 20.125 26.25 C 19.882812 26.25 19.6875 26.054688 19.6875 25.8125 C 19.6875 25.570312 19.882812 25.375 20.125 25.375 C 20.367188 25.375 20.5625 25.570312 20.5625 25.8125 C 20.5625 26.054688 20.367188 26.25 20.125 26.25 Z M 21.875 26.25 C 21.632812 26.25 21.4375 26.054688 21.4375 25.8125 C 21.4375 25.570312 21.632812 25.375 21.875 25.375 C 22.117188 25.375 22.3125 25.570312 22.3125 25.8125 C 22.3125 26.054688 22.117188 26.25 21.875 26.25 Z M 23.625 26.25 C 23.382812 26.25 23.1875 26.054688 23.1875 25.8125 C 23.1875 25.570312 23.382812 25.375 23.625 25.375 C 23.867188 25.375 24.0625 25.570312 24.0625 25.8125 C 24.0625 26.054688 23.867188 26.25 23.625 26.25 Z M 22.75 24.5 C 22.507812 24.5 22.3125 24.304688 22.3125 24.0625 C 22.3125 23.820312 22.507812 23.625 22.75 23.625 C 22.992188 23.625 23.1875 23.820312 23.1875 24.0625 C 23.1875 24.304688 22.992188 24.5 22.75 24.5 Z M 21.875 22.75 C 21.632812 22.75 21.4375 22.554688 21.4375 22.3125 C 21.4375 22.070312 21.632812 21.875 21.875 21.875 C 22.117188 21.875 22.3125 22.070312 22.3125 22.3125 C 22.3125 22.554688 22.117188 22.75 21.875 22.75 Z M 21 21 C 20.757812 21 20.5625 20.804688 20.5625 20.5625 C 20.5625 20.320312 20.757812 20.125 21 20.125 C 21.242188 20.125 21.4375 20.320312 21.4375 20.5625 C 21.4375 20.804688 21.242188 21 21 21 Z M 21 21 "/>
<path style=" stroke:none;fill-rule:nonzero;fill:rgb(0%,0%,0%);fill-opacity:1;" d="M 4.828125 1.199219 C 4.753906 1.46875 3.0625 7.800781 3.0625 10.0625 C 3.074219 12.789062 5.160156 15.054688 7.875 15.292969 L 7.875 23.828125 L 4.132812 26.324219 C 3.972656 26.429688 3.902344 26.628906 3.957031 26.8125 C 4.011719 27 4.183594 27.125 4.375 27.125 L 12.25 27.125 C 12.441406 27.125 12.613281 27 12.667969 26.8125 C 12.722656 26.628906 12.652344 26.429688 12.492188 26.324219 L 8.75 23.828125 L 8.75 15.292969 C 11.464844 15.054688 13.550781 12.789062 13.5625 10.0625 C 13.5625 7.800781 11.871094 1.46875 11.796875 1.199219 C 11.746094 1.007812 11.574219 0.875 11.375 0.875 L 5.25 0.875 C 5.050781 0.875 4.878906 1.007812 4.828125 1.199219 Z M 8.3125 24.589844 L 10.804688 26.25 L 5.820312 26.25 Z M 11.40625 13.144531 C 10.15625 14.394531 8.277344 14.769531 6.644531 14.09375 C 5.011719 13.421875 3.941406 11.828125 3.9375 10.0625 C 3.9375 9.207031 4.210938 7.667969 4.539062 6.125 L 12.085938 6.125 C 12.414062 7.667969 12.6875 9.207031 12.6875 10.0625 C 12.6875 11.21875 12.226562 12.328125 11.40625 13.144531 Z M 11.039062 1.75 C 11.195312 2.359375 11.550781 3.742188 11.890625 5.25 L 4.734375 5.25 C 5.074219 3.742188 5.429688 2.359375 5.585938 1.75 Z M 11.039062 1.75 "/>
</g>
</svg>
