<?xml version="1.0" encoding="UTF-8"?>
<svg xmlns="http://www.w3.org/2000/svg" xmlns:xlink="http://www.w3.org/1999/xlink" width="28px" height="px" viewBox="0 0 28 28" version="1.1">
<g id="surface1">
<path style=" stroke:none;fill-rule:nonzero;fill:rgb(0%,0%,0%);fill-opacity:1;" d="M 0.441406 1.191406 C 0.332031 1.253906 0.191406 1.410156 0.125 1.535156 C 0.00390625 1.753906 0 1.835938 0 3.257812 C 0 4.671875 0.00390625 4.769531 0.117188 5 C 0.203125 5.167969 0.308594 5.28125 0.46875 5.363281 C 0.675781 5.476562 0.777344 5.488281 1.613281 5.488281 L 2.519531 5.488281 L 2.507812 6.507812 L 2.492188 7.53125 L 1.539062 7.558594 C 0.453125 7.59375 0.300781 7.636719 0.113281 8.007812 C -0.0273438 8.289062 -0.0273438 8.449219 0.117188 8.753906 C 0.203125 8.921875 0.308594 9.03125 0.46875 9.117188 L 0.699219 9.238281 L 27.300781 9.238281 L 27.523438 9.109375 C 27.769531 8.972656 28 8.625 28 8.378906 C 28 8.136719 27.777344 7.785156 27.539062 7.667969 C 27.363281 7.578125 27.203125 7.558594 26.402344 7.558594 L 25.480469 7.558594 L 25.480469 5.488281 L 26.402344 5.488281 C 27.292969 5.488281 27.339844 5.480469 27.550781 5.347656 C 27.976562 5.078125 28 4.972656 28 3.265625 C 28 1.824219 27.996094 1.753906 27.875 1.535156 C 27.792969 1.371094 27.679688 1.265625 27.511719 1.179688 L 27.265625 1.0625 L 13.957031 1.070312 L 0.644531 1.074219 Z M 23.742188 6.523438 L 23.742188 7.558594 L 13.984375 7.546875 L 4.226562 7.53125 L 4.210938 6.507812 L 4.199219 5.488281 L 23.742188 5.488281 Z M 23.742188 6.523438 "/>
</g>
</svg>
