<?xml version="1.0" encoding="UTF-8"?>
<svg xmlns="http://www.w3.org/2000/svg" xmlns:xlink="http://www.w3.org/1999/xlink" width="28pt" height="28pt" viewBox="0 0 28 28" version="1.1">
<g id="surface1">
<path style=" stroke:none;fill-rule:nonzero;fill:rgb(0%,0%,0%);fill-opacity:1;" d="M 17.523438 14.042969 L 17.089844 21.414062 C 17.074219 21.671875 17.269531 21.890625 17.527344 21.90625 C 17.535156 21.90625 17.546875 21.90625 17.554688 21.90625 C 17.800781 21.90625 18.007812 21.714844 18.019531 21.46875 L 18.453125 14.097656 C 18.46875 13.839844 18.273438 13.617188 18.015625 13.605469 C 17.757812 13.589844 17.539062 13.785156 17.523438 14.042969 Z M 17.523438 14.042969 "/>
<path style=" stroke:none;fill-rule:nonzero;fill:rgb(0%,0%,0%);fill-opacity:1;" d="M 8.402344 1.277344 C 8.414062 1.277344 8.425781 1.273438 8.441406 1.273438 L 10.5 1.097656 L 10.53125 1.46875 L 8.472656 1.644531 C 8.214844 1.667969 8.027344 1.894531 8.046875 2.152344 C 8.070312 2.394531 8.273438 2.578125 8.511719 2.578125 C 8.527344 2.578125 8.539062 2.578125 8.550781 2.578125 L 10.609375 2.398438 L 10.640625 2.773438 L 8.585938 2.949219 C 8.328125 2.96875 8.136719 3.195312 8.160156 3.453125 C 8.179688 3.695312 8.382812 3.878906 8.625 3.878906 C 8.636719 3.878906 8.652344 3.878906 8.664062 3.878906 L 10.722656 3.703125 L 10.753906 4.074219 L 8.695312 4.25 C 8.4375 4.273438 8.25 4.5 8.269531 4.753906 C 8.292969 5 8.496094 5.183594 8.734375 5.183594 C 8.75 5.183594 8.761719 5.179688 8.777344 5.179688 L 10.832031 5.003906 L 10.863281 5.375 L 8.808594 5.550781 C 8.550781 5.574219 8.359375 5.800781 8.382812 6.058594 C 8.402344 6.300781 8.605469 6.484375 8.847656 6.484375 C 8.859375 6.484375 8.875 6.484375 8.886719 6.484375 L 10.945312 6.304688 L 10.976562 6.679688 L 8.917969 6.855469 C 8.660156 6.875 8.472656 7.101562 8.492188 7.359375 C 8.515625 7.601562 8.71875 7.785156 8.957031 7.785156 C 8.972656 7.785156 8.984375 7.785156 9 7.785156 L 11.054688 7.609375 L 11.410156 11.734375 L 10.386719 11.734375 C 10.261719 11.734375 10.136719 11.789062 10.046875 11.878906 C 9.960938 11.972656 9.914062 12.101562 9.921875 12.226562 L 10.417969 20.652344 C 10.433594 20.910156 10.652344 21.105469 10.910156 21.089844 C 11.167969 21.074219 11.363281 20.855469 11.347656 20.597656 L 10.882812 12.667969 L 19.226562 12.667969 L 18.628906 22.878906 C 18.613281 23.136719 18.808594 23.359375 19.066406 23.371094 C 19.074219 23.375 19.085938 23.375 19.09375 23.375 C 19.339844 23.375 19.546875 23.183594 19.558594 22.933594 L 20.1875 12.226562 C 20.195312 12.101562 20.152344 11.972656 20.0625 11.878906 C 19.976562 11.789062 19.851562 11.734375 19.722656 11.734375 L 19.300781 11.734375 L 19.523438 9.15625 L 21.578125 9.332031 C 21.59375 9.332031 21.605469 9.332031 21.621094 9.332031 C 21.859375 9.332031 22.0625 9.148438 22.085938 8.90625 C 22.105469 8.648438 21.914062 8.421875 21.660156 8.402344 L 19.601562 8.226562 L 19.632812 7.851562 L 21.691406 8.027344 C 21.703125 8.03125 21.71875 8.03125 21.730469 8.03125 C 21.972656 8.03125 22.175781 7.847656 22.195312 7.605469 C 22.21875 7.347656 22.027344 7.121094 21.769531 7.097656 L 19.710938 6.921875 L 19.746094 6.550781 L 21.800781 6.726562 C 21.816406 6.726562 21.828125 6.730469 21.84375 6.730469 C 22.082031 6.730469 22.285156 6.546875 22.308594 6.300781 C 22.328125 6.042969 22.140625 5.820312 21.882812 5.796875 L 19.824219 5.621094 L 19.855469 5.25 L 21.914062 5.425781 C 21.925781 5.425781 21.941406 5.425781 21.953125 5.425781 C 22.195312 5.425781 22.398438 5.242188 22.417969 5 C 22.441406 4.742188 22.25 4.515625 21.992188 4.496094 L 19.933594 4.320312 L 19.96875 3.945312 L 22.023438 4.121094 C 22.039062 4.125 22.050781 4.125 22.066406 4.125 C 22.304688 4.125 22.507812 3.941406 22.53125 3.699219 C 22.550781 3.441406 22.363281 3.214844 22.105469 3.191406 L 20.046875 3.015625 L 20.078125 2.644531 L 22.136719 2.820312 C 22.148438 2.820312 22.164062 2.824219 22.175781 2.824219 C 22.417969 2.824219 22.621094 2.636719 22.640625 2.394531 C 22.664062 2.136719 22.472656 1.914062 22.214844 1.890625 L 18.21875 1.546875 C 17.960938 1.527344 17.734375 1.714844 17.710938 1.972656 L 16.875 11.734375 L 13.832031 11.734375 L 12.867188 0.425781 C 12.84375 0.171875 12.617188 -0.0195312 12.359375 0 L 8.363281 0.34375 C 8.105469 0.367188 7.914062 0.59375 7.9375 0.847656 C 7.957031 1.09375 8.160156 1.277344 8.402344 1.277344 Z M 18.601562 2.519531 L 19.148438 2.566406 L 18.363281 11.734375 L 17.8125 11.734375 Z M 11.976562 0.972656 L 12.898438 11.734375 L 12.347656 11.734375 L 11.429688 1.019531 Z M 11.976562 0.972656 "/>
<path style=" stroke:none;fill-rule:nonzero;fill:rgb(0%,0%,0%);fill-opacity:1;" d="M 24.226562 25.210938 L 7.667969 20.722656 C 7.535156 20.6875 7.398438 20.710938 7.285156 20.785156 C 7.175781 20.859375 7.101562 20.976562 7.082031 21.109375 L 6.914062 22.363281 L 3.640625 21.921875 C 3.382812 21.886719 3.148438 22.066406 3.113281 22.320312 L 2.730469 25.179688 C 2.710938 25.304688 2.746094 25.425781 2.820312 25.527344 C 2.894531 25.625 3.007812 25.6875 3.128906 25.707031 L 6.402344 26.148438 L 6.230469 27.402344 C 6.214844 27.535156 6.253906 27.667969 6.34375 27.769531 C 6.429688 27.871094 6.558594 27.929688 6.691406 27.929688 L 23.851562 28 C 23.851562 28 23.855469 28 23.855469 28 C 24.5625 28 25.167969 27.472656 25.261719 26.769531 C 25.359375 26.066406 24.914062 25.394531 24.226562 25.210938 Z M 3.714844 24.84375 L 3.976562 22.910156 L 6.789062 23.289062 L 6.527344 25.222656 Z M 24.335938 26.644531 C 24.304688 26.886719 24.097656 27.066406 23.855469 27.066406 L 7.226562 27 L 7.9375 21.761719 L 23.984375 26.109375 C 24.21875 26.175781 24.371094 26.402344 24.335938 26.644531 Z M 24.335938 26.644531 "/>
</g>
</svg>
