<?xml version="1.0" encoding="UTF-8"?>
<svg xmlns="http://www.w3.org/2000/svg" xmlns:xlink="http://www.w3.org/1999/xlink" width="28pt" height="28pt" viewBox="0 0 28 28" version="1.1">
<g id="surface1">
<path style=" stroke:none;fill-rule:nonzero;fill:rgb(0%,0%,0%);fill-opacity:1;" d="M 27.441406 20.039062 C 27.113281 19.136719 26.414062 18.390625 25.535156 18.003906 C 25.066406 17.800781 24.570312 17.75 24.074219 17.648438 C 23.558594 17.546875 23.046875 17.40625 22.550781 17.234375 C 20.5625 16.546875 18.777344 15.3125 17.425781 13.695312 L 17.203125 11.152344 C 17.195312 11.066406 17.160156 10.984375 17.101562 10.917969 L 16.527344 10.261719 L 16.625 10.171875 C 16.789062 10.019531 16.796875 9.757812 16.644531 9.59375 C 16.488281 9.425781 16.230469 9.417969 16.0625 9.574219 L 15.988281 9.644531 L 15.457031 9.039062 L 15.519531 8.984375 C 15.683594 8.828125 15.691406 8.570312 15.539062 8.402344 C 15.382812 8.238281 15.125 8.226562 14.960938 8.382812 L 14.894531 8.441406 C 14.378906 7.996094 13.710938 7.773438 13.027344 7.816406 L 11.972656 6.402344 C 11.761719 6.113281 11.351562 6.050781 11.0625 6.261719 C 10.757812 6.480469 10.496094 6.746094 10.28125 7.054688 C 10.085938 7.335938 9.9375 7.652344 9.835938 7.980469 C 8.941406 7.941406 8.046875 7.824219 7.167969 7.632812 C 5.441406 7.261719 3.792969 6.605469 2.269531 5.6875 C 2.222656 5.660156 2.175781 5.644531 2.125 5.632812 C 1.746094 5.570312 1.367188 5.769531 1.203125 6.117188 L 1.109375 6.316406 C 0.984375 6.582031 0.867188 6.859375 0.761719 7.132812 C 0.683594 7.34375 0.789062 7.582031 1 7.660156 C 1.210938 7.742188 1.449219 7.636719 1.53125 7.425781 C 1.628906 7.167969 1.734375 6.914062 1.851562 6.667969 L 1.945312 6.464844 C 1.949219 6.460938 1.949219 6.457031 1.953125 6.457031 C 5.230469 8.394531 9.109375 9.175781 12.878906 8.660156 C 12.890625 8.65625 12.898438 8.65625 12.90625 8.65625 C 12.921875 8.652344 12.9375 8.652344 12.953125 8.648438 C 13.433594 8.582031 13.910156 8.714844 14.289062 9.003906 L 13.867188 9.398438 C 13.703125 9.550781 13.695312 9.8125 13.847656 9.976562 C 14 10.140625 14.265625 10.148438 14.425781 9.996094 L 14.855469 9.597656 L 15.386719 10.203125 L 14.972656 10.589844 C 14.808594 10.742188 14.796875 11 14.953125 11.167969 C 15.105469 11.328125 15.371094 11.339844 15.53125 11.1875 L 15.925781 10.820312 L 16.398438 11.355469 L 16.746094 15.3125 L 16.625 15.261719 C 15.441406 14.742188 14.191406 14.449219 12.902344 14.386719 C 12.375 14.359375 12.335938 15.179688 12.863281 15.203125 C 14.050781 15.261719 15.207031 15.535156 16.296875 16.011719 L 17.050781 16.339844 C 17.179688 16.398438 17.34375 16.378906 17.457031 16.300781 C 17.574219 16.214844 17.636719 16.074219 17.625 15.929688 L 17.546875 15.042969 C 19.429688 16.925781 21.867188 18.164062 24.527344 18.5625 C 25.386719 18.691406 26.121094 19.226562 26.519531 19.980469 L 18.132812 19.980469 C 15.992188 19.980469 13.90625 19.371094 12.097656 18.226562 L 10.925781 17.484375 C 10.066406 16.9375 9.152344 16.488281 8.199219 16.140625 C 9.136719 15.691406 10.132812 15.398438 11.171875 15.269531 C 11.699219 15.203125 11.597656 14.386719 11.070312 14.453125 C 9.664062 14.632812 8.332031 15.078125 7.105469 15.785156 L 1.128906 14.050781 L 0.960938 13.027344 C 0.742188 11.667969 0.777344 10.296875 1.074219 8.953125 C 1.125 8.730469 0.984375 8.511719 0.761719 8.464844 C 0.539062 8.414062 0.320312 8.554688 0.273438 8.777344 C -0.046875 10.222656 -0.0859375 11.699219 0.152344 13.160156 L 0.304688 14.097656 C 0.15625 14.21875 0.0742188 14.394531 0.0742188 14.585938 L 0.0742188 21.664062 C 0.0742188 22.058594 0.390625 22.378906 0.785156 22.378906 L 2.484375 22.378906 C 3.011719 22.378906 3.011719 21.558594 2.484375 21.558594 L 0.894531 21.558594 L 0.894531 16.511719 L 6.273438 18.078125 L 6.273438 21.558594 L 4.132812 21.558594 C 3.601562 21.558594 3.601562 22.378906 4.132812 22.378906 L 6.382812 22.378906 C 6.773438 22.378906 7.09375 22.058594 7.09375 21.664062 L 7.09375 18.339844 C 8.023438 18.671875 8.914062 19.105469 9.75 19.632812 L 11.140625 20.511719 C 13.078125 21.730469 15.308594 22.378906 17.597656 22.378906 L 27.121094 22.378906 C 27.605469 22.378906 28 21.984375 28 21.5 L 28 20.855469 C 28 20.484375 27.765625 20.167969 27.441406 20.039062 Z M 10.699219 7.996094 C 10.769531 7.832031 10.855469 7.671875 10.957031 7.523438 C 11.085938 7.335938 11.238281 7.167969 11.414062 7.023438 L 12.085938 7.925781 C 11.621094 7.96875 11.160156 7.992188 10.699219 7.996094 Z M 27.121094 21.558594 L 17.597656 21.558594 C 15.464844 21.558594 13.382812 20.953125 11.578125 19.816406 L 10.1875 18.9375 C 9.132812 18.273438 8 17.75 6.808594 17.382812 C 6.808594 17.378906 6.804688 17.378906 6.804688 17.378906 C 6.722656 17.355469 6.644531 17.332031 6.5625 17.308594 L 0.894531 15.660156 L 0.894531 14.835938 L 7.046875 16.625 C 8.261719 16.976562 9.417969 17.5 10.488281 18.175781 L 11.660156 18.917969 C 13.597656 20.148438 15.839844 20.800781 18.132812 20.800781 L 27.121094 20.800781 C 27.152344 20.800781 27.179688 20.824219 27.179688 20.855469 L 27.179688 21.5 C 27.179688 21.53125 27.152344 21.558594 27.121094 21.558594 Z M 27.121094 21.558594 "/>
</g>
</svg>
