<?xml version="1.0" encoding="UTF-8"?>
<svg xmlns="http://www.w3.org/2000/svg" xmlns:xlink="http://www.w3.org/1999/xlink" width="28pt" height="28pt" viewBox="0 0 28 28" version="1.1">
<g id="surface1">
<path style=" stroke:none;fill-rule:nonzero;fill:rgb(0%,0%,0%);fill-opacity:1;" d="M 22.941406 4.265625 C 22.945312 4.25 22.960938 4.234375 22.96875 4.21875 C 23.175781 3.726562 22.949219 3.160156 22.457031 2.949219 C 21.96875 2.742188 21.398438 2.96875 21.191406 3.460938 C 21.183594 3.472656 21.179688 3.488281 21.171875 3.503906 C 21.164062 3.527344 21.160156 3.550781 21.152344 3.578125 C 16.910156 2.453125 12.503906 4.695312 10.90625 8.78125 C 10.808594 9.027344 10.929688 9.308594 11.175781 9.410156 L 18.351562 12.261719 L 15.3125 19.914062 C 14.136719 19.554688 12.917969 19.371094 11.691406 19.371094 C 6.460938 19.371094 1.789062 22.660156 0.335938 27.375 C 0.253906 27.628906 0.398438 27.898438 0.652344 27.980469 C 0.699219 27.992188 0.746094 28 0.796875 28 L 22.585938 28 C 22.855469 28 23.070312 27.785156 23.070312 27.519531 C 23.070312 27.46875 23.0625 27.417969 23.046875 27.371094 C 21.972656 24.082031 19.464844 21.457031 16.226562 20.234375 L 19.25 12.617188 L 26.429688 15.46875 C 26.675781 15.570312 26.957031 15.449219 27.058594 15.199219 C 28.738281 11.039062 26.949219 6.285156 22.941406 4.265625 Z M 21.910156 27.035156 L 1.472656 27.035156 C 3.011719 23.058594 7.117188 20.335938 11.691406 20.335938 C 12.796875 20.335938 13.898438 20.496094 14.957031 20.8125 L 13.898438 23.476562 L 14.796875 23.832031 L 15.871094 21.128906 C 18.617188 22.167969 20.808594 24.308594 21.910156 27.035156 Z M 12.003906 8.699219 C 12.027344 8.644531 12.050781 8.59375 12.074219 8.539062 C 12.117188 8.457031 12.160156 8.375 12.203125 8.292969 C 12.277344 8.160156 12.351562 8.027344 12.433594 7.902344 C 12.480469 7.824219 12.527344 7.746094 12.578125 7.671875 C 12.664062 7.542969 12.757812 7.417969 12.851562 7.292969 C 12.898438 7.230469 12.945312 7.164062 12.996094 7.101562 C 13.113281 6.957031 13.234375 6.820312 13.359375 6.683594 C 13.390625 6.648438 13.421875 6.613281 13.457031 6.578125 C 13.621094 6.40625 13.789062 6.246094 13.96875 6.097656 C 13.996094 6.074219 14.023438 6.050781 14.050781 6.027344 C 14.203125 5.90625 14.355469 5.785156 14.511719 5.671875 C 14.570312 5.632812 14.625 5.597656 14.683594 5.558594 C 14.820312 5.46875 14.957031 5.378906 15.097656 5.296875 C 15.160156 5.261719 15.226562 5.226562 15.292969 5.191406 C 15.433594 5.113281 15.574219 5.042969 15.71875 4.976562 C 15.785156 4.945312 15.847656 4.914062 15.914062 4.886719 C 16.070312 4.820312 16.226562 4.757812 16.386719 4.703125 C 16.445312 4.683594 16.5 4.660156 16.554688 4.640625 C 16.75 4.578125 16.945312 4.523438 17.144531 4.476562 C 17.167969 4.46875 17.191406 4.460938 17.214844 4.457031 C 17.683594 4.347656 18.160156 4.28125 18.640625 4.261719 C 18.667969 4.261719 18.691406 4.261719 18.714844 4.261719 C 18.925781 4.257812 19.136719 4.257812 19.347656 4.269531 C 19.398438 4.269531 19.449219 4.277344 19.5 4.28125 C 19.6875 4.296875 19.875 4.316406 20.0625 4.34375 C 20.125 4.351562 20.1875 4.359375 20.25 4.371094 C 20.320312 4.382812 20.394531 4.402344 20.464844 4.417969 C 17.894531 5.34375 15.808594 7.273438 14.683594 9.761719 Z M 18.710938 11.363281 L 15.582031 10.121094 C 16.660156 7.765625 18.6875 5.980469 21.15625 5.207031 Z M 22.738281 12.964844 L 19.609375 11.71875 L 22.054688 5.5625 C 23.320312 7.820312 23.570312 10.511719 22.738281 12.964844 Z M 26.710938 12.007812 C 26.710938 12.183594 26.703125 12.359375 26.691406 12.539062 C 26.683594 12.621094 26.671875 12.703125 26.664062 12.789062 C 26.648438 12.9375 26.628906 13.089844 26.601562 13.242188 C 26.585938 13.332031 26.570312 13.421875 26.550781 13.511719 C 26.519531 13.660156 26.484375 13.804688 26.445312 13.949219 C 26.421875 14.042969 26.398438 14.132812 26.371094 14.222656 C 26.355469 14.277344 26.332031 14.328125 26.316406 14.382812 L 23.632812 13.316406 C 24.527344 10.734375 24.332031 7.902344 23.097656 5.464844 C 23.152344 5.496094 23.203125 5.527344 23.257812 5.558594 C 23.335938 5.609375 23.410156 5.664062 23.488281 5.714844 C 23.609375 5.804688 23.726562 5.894531 23.84375 5.988281 C 23.914062 6.042969 23.980469 6.09375 24.046875 6.152344 C 24.167969 6.257812 24.289062 6.367188 24.402344 6.480469 C 24.449219 6.53125 24.507812 6.578125 24.554688 6.628906 C 24.878906 6.960938 25.167969 7.320312 25.425781 7.703125 C 25.460938 7.761719 25.496094 7.820312 25.53125 7.878906 C 25.617188 8.011719 25.703125 8.148438 25.777344 8.289062 C 25.816406 8.363281 25.855469 8.4375 25.890625 8.511719 C 25.957031 8.644531 26.019531 8.773438 26.078125 8.90625 C 26.113281 8.988281 26.144531 9.070312 26.179688 9.148438 C 26.230469 9.28125 26.277344 9.417969 26.324219 9.554688 C 26.351562 9.636719 26.378906 9.71875 26.402344 9.800781 C 26.445312 9.945312 26.480469 10.089844 26.515625 10.234375 C 26.53125 10.3125 26.550781 10.390625 26.566406 10.46875 C 26.601562 10.644531 26.628906 10.824219 26.652344 11.003906 C 26.65625 11.050781 26.667969 11.097656 26.671875 11.148438 C 26.695312 11.375 26.710938 11.605469 26.714844 11.839844 C 26.714844 11.894531 26.710938 11.953125 26.710938 12.007812 Z M 26.710938 12.007812 "/>
<path style=" stroke:none;fill-rule:nonzero;fill:rgb(0%,0%,0%);fill-opacity:1;" d="M 6.140625 1.929688 C 4.539062 1.929688 3.242188 3.226562 3.242188 4.828125 C 3.246094 6.425781 4.539062 7.722656 6.140625 7.722656 C 7.738281 7.722656 9.035156 6.425781 9.035156 4.828125 C 9.035156 3.226562 7.738281 1.929688 6.140625 1.929688 Z M 6.140625 6.757812 C 5.074219 6.757812 4.207031 5.894531 4.207031 4.828125 C 4.207031 3.761719 5.074219 2.898438 6.140625 2.898438 C 7.207031 2.898438 8.070312 3.761719 8.070312 4.828125 C 8.070312 5.894531 7.207031 6.757812 6.140625 6.757812 Z M 6.140625 6.757812 "/>
<path style=" stroke:none;fill-rule:nonzero;fill:rgb(0%,0%,0%);fill-opacity:1;" d="M 5.65625 0 L 6.621094 0 L 6.621094 1.449219 L 5.65625 1.449219 Z M 5.65625 0 "/>
<path style=" stroke:none;fill-rule:nonzero;fill:rgb(0%,0%,0%);fill-opacity:1;" d="M 2.382812 1.753906 L 3.066406 1.074219 L 4.089844 2.097656 L 3.40625 2.777344 Z M 2.382812 1.753906 "/>
<path style=" stroke:none;fill-rule:nonzero;fill:rgb(0%,0%,0%);fill-opacity:1;" d="M 1.3125 4.34375 L 2.761719 4.34375 L 2.761719 5.308594 L 1.3125 5.308594 Z M 1.3125 4.34375 "/>
<path style=" stroke:none;fill-rule:nonzero;fill:rgb(0%,0%,0%);fill-opacity:1;" d="M 2.382812 7.898438 L 3.40625 6.875 L 4.089844 7.558594 L 3.066406 8.582031 Z M 2.382812 7.898438 "/>
<path style=" stroke:none;fill-rule:nonzero;fill:rgb(0%,0%,0%);fill-opacity:1;" d="M 5.65625 8.207031 L 6.621094 8.207031 L 6.621094 9.65625 L 5.65625 9.65625 Z M 5.65625 8.207031 "/>
<path style=" stroke:none;fill-rule:nonzero;fill:rgb(0%,0%,0%);fill-opacity:1;" d="M 8.1875 7.558594 L 8.871094 6.875 L 9.894531 7.902344 L 9.210938 8.582031 Z M 8.1875 7.558594 "/>
<path style=" stroke:none;fill-rule:nonzero;fill:rgb(0%,0%,0%);fill-opacity:1;" d="M 9.519531 4.34375 L 10.96875 4.34375 L 10.96875 5.308594 L 9.519531 5.308594 Z M 9.519531 4.34375 "/>
<path style=" stroke:none;fill-rule:nonzero;fill:rgb(0%,0%,0%);fill-opacity:1;" d="M 8.1875 2.097656 L 9.210938 1.074219 L 9.894531 1.753906 L 8.871094 2.777344 Z M 8.1875 2.097656 "/>
</g>
</svg>
