<?xml version="1.0" encoding="UTF-8"?>
<svg xmlns="http://www.w3.org/2000/svg" xmlns:xlink="http://www.w3.org/1999/xlink" width="28pt" height="28pt" viewBox="0 0 28 28" version="1.1">
<g id="surface1">
<path style=" stroke:none;fill-rule:nonzero;fill:rgb(0%,0%,0%);fill-opacity:1;" d="M 23.898438 4.101562 C 21.253906 1.457031 17.738281 0 14 0 C 10.261719 0 6.746094 1.457031 4.101562 4.101562 C 1.457031 6.746094 0 10.261719 0 14 C 0 17.738281 1.457031 21.253906 4.101562 23.898438 C 6.746094 26.542969 10.261719 28 14 28 C 17.738281 28 21.253906 26.542969 23.898438 23.898438 C 26.542969 21.253906 28 17.738281 28 14 C 28 10.261719 26.542969 6.746094 23.898438 4.101562 Z M 14 27.105469 C 6.773438 27.105469 0.894531 21.226562 0.894531 14 C 0.894531 6.773438 6.773438 0.894531 14 0.894531 C 21.226562 0.894531 27.105469 6.773438 27.105469 14 C 27.105469 21.226562 21.226562 27.105469 14 27.105469 Z M 14 27.105469 "/>
<path style=" stroke:none;fill-rule:nonzero;fill:rgb(0%,0%,0%);fill-opacity:1;" d="M 25.332031 18.550781 C 25.898438 17.144531 26.210938 15.609375 26.210938 14 C 26.210938 13.945312 26.210938 13.886719 26.210938 13.832031 C 26.210938 13.703125 26.152344 13.585938 26.058594 13.5 C 25.375 12.910156 24.558594 12.472656 23.691406 12.234375 C 23.671875 12.226562 23.652344 12.226562 23.636719 12.222656 C 23.632812 12.222656 23.628906 12.222656 23.625 12.222656 C 23.613281 12.21875 23.597656 12.21875 23.585938 12.21875 C 23.578125 12.21875 23.574219 12.21875 23.570312 12.21875 C 23.554688 12.21875 23.542969 12.21875 23.53125 12.21875 C 23.527344 12.21875 23.519531 12.21875 23.515625 12.222656 C 23.5 12.222656 23.484375 12.226562 23.46875 12.230469 C 23.464844 12.230469 23.460938 12.230469 23.460938 12.230469 C 23.445312 12.234375 23.429688 12.242188 23.414062 12.246094 C 23.410156 12.246094 23.40625 12.25 23.402344 12.25 C 23.390625 12.257812 23.378906 12.261719 23.367188 12.269531 C 23.363281 12.269531 23.355469 12.273438 23.351562 12.273438 C 23.339844 12.28125 23.328125 12.289062 23.316406 12.296875 C 23.3125 12.300781 23.3125 12.300781 23.308594 12.304688 C 23.292969 12.3125 23.28125 12.324219 23.265625 12.335938 C 22.296875 13.246094 21.65625 14.429688 21.425781 15.722656 C 20.203125 15.417969 18.902344 15.421875 17.648438 15.777344 C 17.628906 15.78125 17.613281 15.789062 17.59375 15.792969 C 17.59375 15.796875 17.589844 15.796875 17.585938 15.796875 C 17.574219 15.804688 17.5625 15.8125 17.546875 15.816406 C 17.542969 15.820312 17.539062 15.824219 17.535156 15.824219 C 17.523438 15.832031 17.515625 15.839844 17.503906 15.847656 C 17.5 15.851562 17.496094 15.851562 17.492188 15.855469 C 17.480469 15.867188 17.464844 15.878906 17.453125 15.890625 C 17.441406 15.902344 17.429688 15.914062 17.417969 15.929688 C 17.414062 15.933594 17.414062 15.9375 17.410156 15.941406 C 17.402344 15.953125 17.394531 15.960938 17.386719 15.972656 C 17.386719 15.976562 17.382812 15.980469 17.382812 15.984375 C 17.375 16 17.367188 16.011719 17.359375 16.023438 C 17.359375 16.027344 17.359375 16.03125 17.359375 16.03125 C 17.351562 16.050781 17.34375 16.066406 17.339844 16.082031 C 16.617188 18.644531 17.335938 21.398438 19.210938 23.273438 C 19.378906 23.441406 19.554688 23.601562 19.738281 23.753906 C 18.636719 24.40625 17.414062 24.875 16.113281 25.121094 L 15.210938 10.5 L 20.007812 14.542969 C 20.089844 14.613281 20.191406 14.648438 20.296875 14.648438 C 20.34375 14.648438 20.394531 14.640625 20.441406 14.625 C 20.585938 14.574219 20.699219 14.449219 20.734375 14.296875 C 21.097656 12.648438 20.632812 10.957031 19.507812 9.738281 L 22.179688 9.933594 C 22.191406 9.933594 22.203125 9.933594 22.210938 9.933594 C 22.355469 9.933594 22.492188 9.863281 22.578125 9.746094 C 22.667969 9.617188 22.683594 9.453125 22.621094 9.308594 C 21.949219 7.761719 20.578125 6.664062 18.949219 6.34375 L 21.226562 4.925781 C 21.359375 4.84375 21.441406 4.699219 21.4375 4.542969 C 21.4375 4.386719 21.355469 4.242188 21.21875 4.160156 C 19.578125 3.195312 17.558594 3.21875 15.941406 4.222656 C 15.074219 4.761719 14.410156 5.574219 14.003906 6.554688 C 13.605469 5.578125 12.941406 4.769531 12.058594 4.222656 C 10.441406 3.21875 8.421875 3.195312 6.78125 4.160156 C 6.648438 4.242188 6.5625 4.386719 6.5625 4.542969 C 6.558594 4.699219 6.640625 4.84375 6.773438 4.925781 L 9.050781 6.34375 C 7.421875 6.664062 6.050781 7.761719 5.378906 9.308594 C 5.316406 9.453125 5.332031 9.617188 5.421875 9.746094 C 5.507812 9.863281 5.644531 9.933594 5.789062 9.933594 C 5.796875 9.933594 5.808594 9.933594 5.820312 9.933594 L 8.492188 9.738281 C 7.367188 10.957031 6.902344 12.648438 7.265625 14.296875 C 7.300781 14.449219 7.414062 14.574219 7.5625 14.625 C 7.605469 14.640625 7.65625 14.648438 7.703125 14.648438 C 7.808594 14.648438 7.910156 14.613281 7.992188 14.542969 L 12.789062 10.5 L 11.886719 25.121094 C 10.585938 24.875 9.363281 24.40625 8.261719 23.753906 C 8.445312 23.601562 8.621094 23.441406 8.789062 23.273438 C 10.664062 21.398438 11.382812 18.644531 10.660156 16.085938 C 10.65625 16.066406 10.648438 16.050781 10.640625 16.03125 C 10.640625 16.03125 10.640625 16.027344 10.640625 16.023438 C 10.632812 16.011719 10.625 16 10.621094 15.984375 C 10.617188 15.980469 10.613281 15.976562 10.613281 15.972656 C 10.605469 15.960938 10.597656 15.949219 10.589844 15.941406 C 10.585938 15.9375 10.585938 15.933594 10.582031 15.929688 C 10.570312 15.914062 10.558594 15.902344 10.546875 15.890625 C 10.535156 15.878906 10.519531 15.867188 10.507812 15.855469 C 10.503906 15.851562 10.5 15.851562 10.496094 15.847656 C 10.484375 15.839844 10.476562 15.832031 10.464844 15.824219 C 10.460938 15.824219 10.457031 15.820312 10.453125 15.816406 C 10.4375 15.808594 10.425781 15.804688 10.414062 15.796875 C 10.410156 15.796875 10.40625 15.796875 10.40625 15.792969 C 10.386719 15.789062 10.371094 15.78125 10.355469 15.777344 C 9.097656 15.421875 7.796875 15.417969 6.574219 15.722656 C 6.34375 14.429688 5.703125 13.246094 4.734375 12.335938 C 4.71875 12.324219 4.707031 12.3125 4.691406 12.300781 C 4.6875 12.300781 4.6875 12.300781 4.683594 12.296875 C 4.671875 12.289062 4.660156 12.28125 4.648438 12.273438 C 4.644531 12.273438 4.636719 12.269531 4.632812 12.265625 C 4.621094 12.261719 4.609375 12.257812 4.597656 12.25 C 4.59375 12.25 4.589844 12.246094 4.585938 12.246094 C 4.570312 12.238281 4.554688 12.234375 4.539062 12.230469 C 4.539062 12.230469 4.535156 12.230469 4.53125 12.230469 C 4.515625 12.226562 4.5 12.222656 4.484375 12.222656 C 4.480469 12.21875 4.476562 12.21875 4.46875 12.21875 C 4.457031 12.21875 4.445312 12.21875 4.429688 12.21875 C 4.425781 12.21875 4.421875 12.21875 4.417969 12.21875 C 4.402344 12.21875 4.386719 12.21875 4.371094 12.222656 C 4.367188 12.222656 4.367188 12.222656 4.363281 12.222656 C 4.347656 12.226562 4.328125 12.226562 4.308594 12.234375 C 3.441406 12.472656 2.625 12.910156 1.941406 13.5 C 1.847656 13.585938 1.789062 13.703125 1.789062 13.832031 C 1.789062 13.886719 1.789062 13.945312 1.789062 14 C 1.789062 15.609375 2.101562 17.144531 2.667969 18.550781 C 2.667969 18.554688 2.671875 18.558594 2.671875 18.558594 C 3.597656 20.847656 5.195312 22.796875 7.21875 24.152344 C 7.222656 24.152344 7.226562 24.15625 7.226562 24.15625 C 8.699219 25.140625 10.394531 25.816406 12.222656 26.082031 C 12.234375 26.085938 12.242188 26.085938 12.25 26.085938 C 12.824219 26.167969 13.40625 26.210938 14 26.210938 C 14.59375 26.210938 15.175781 26.167969 15.75 26.085938 C 15.757812 26.085938 15.765625 26.085938 15.777344 26.082031 C 17.605469 25.816406 19.300781 25.140625 20.773438 24.15625 C 20.773438 24.15625 20.777344 24.152344 20.78125 24.152344 C 22.804688 22.796875 24.402344 20.847656 25.328125 18.5625 C 25.328125 18.558594 25.332031 18.554688 25.332031 18.550781 Z M 23.335938 13.582031 L 23.832031 15.59375 C 23.882812 15.796875 24.0625 15.933594 24.265625 15.933594 C 24.300781 15.933594 24.335938 15.929688 24.371094 15.917969 C 24.609375 15.859375 24.757812 15.617188 24.699219 15.378906 L 24.203125 13.367188 C 24.601562 13.546875 24.980469 13.777344 25.320312 14.050781 C 25.3125 15.273438 25.113281 16.453125 24.746094 17.558594 C 24.027344 16.867188 23.191406 16.339844 22.289062 15.992188 C 22.425781 15.109375 22.785156 14.28125 23.335938 13.582031 Z M 19.960938 13.332031 L 15.003906 9.15625 C 14.996094 9.148438 14.992188 9.144531 14.984375 9.140625 L 14.914062 9.082031 C 15.191406 9.023438 15.480469 8.992188 15.769531 8.992188 C 16.753906 8.992188 17.714844 9.34375 18.46875 9.980469 C 19.46875 10.820312 20.003906 12.058594 19.960938 13.332031 Z M 21.429688 8.980469 L 18.257812 8.753906 C 17.5 8.328125 16.644531 8.101562 15.769531 8.101562 C 15.589844 8.101562 15.414062 8.109375 15.242188 8.128906 C 16.066406 7.429688 17.140625 7.066406 18.253906 7.148438 C 19.554688 7.242188 20.714844 7.925781 21.429688 8.980469 Z M 16.414062 4.980469 C 17.523438 4.292969 18.863281 4.164062 20.0625 4.597656 L 17.363281 6.277344 C 16.351562 6.394531 15.402344 6.8125 14.632812 7.472656 C 14.925781 6.40625 15.546875 5.519531 16.414062 4.980469 Z M 11.585938 4.980469 C 12.472656 5.53125 13.089844 6.40625 13.375 7.476562 C 12.605469 6.8125 11.652344 6.394531 10.636719 6.277344 L 7.9375 4.597656 C 9.136719 4.164062 10.476562 4.292969 11.585938 4.980469 Z M 9.746094 7.148438 C 10.859375 7.066406 11.933594 7.429688 12.757812 8.128906 C 12.585938 8.109375 12.410156 8.101562 12.230469 8.101562 C 11.355469 8.101562 10.5 8.328125 9.742188 8.753906 L 6.570312 8.980469 C 7.285156 7.925781 8.445312 7.242188 9.746094 7.148438 Z M 9.53125 9.980469 C 10.285156 9.34375 11.246094 8.992188 12.230469 8.992188 C 12.519531 8.992188 12.808594 9.023438 13.085938 9.082031 L 8.039062 13.332031 C 7.996094 12.058594 8.53125 10.820312 9.53125 9.980469 Z M 3.796875 13.367188 L 3.300781 15.378906 C 3.242188 15.617188 3.386719 15.859375 3.628906 15.917969 C 3.664062 15.929688 3.699219 15.933594 3.734375 15.933594 C 3.9375 15.933594 4.117188 15.796875 4.167969 15.59375 L 4.664062 13.582031 C 5.214844 14.28125 5.574219 15.109375 5.710938 15.992188 C 4.808594 16.339844 3.972656 16.867188 3.253906 17.558594 C 2.886719 16.453125 2.6875 15.273438 2.679688 14.046875 C 3.019531 13.777344 3.398438 13.546875 3.796875 13.367188 Z M 3.605469 18.476562 C 3.667969 18.410156 3.730469 18.34375 3.796875 18.28125 C 5.253906 16.820312 7.320312 16.160156 9.335938 16.46875 L 5.894531 19.910156 C 5.71875 20.085938 5.71875 20.371094 5.894531 20.542969 C 5.980469 20.632812 6.09375 20.675781 6.210938 20.675781 C 6.324219 20.675781 6.4375 20.632812 6.523438 20.542969 L 9.96875 17.101562 C 10.277344 19.117188 9.617188 21.183594 8.15625 22.640625 C 7.941406 22.855469 7.710938 23.058594 7.46875 23.238281 C 5.78125 22.042969 4.433594 20.398438 3.605469 18.476562 Z M 12.777344 25.253906 L 12.871094 23.695312 L 13.761719 23.695312 C 14.007812 23.695312 14.207031 23.496094 14.207031 23.25 C 14.207031 23.003906 14.007812 22.804688 13.761719 22.804688 L 12.925781 22.804688 L 13.730469 9.703125 L 14 9.480469 L 14.269531 9.703125 L 14.851562 19.214844 L 14.496094 19.214844 C 14.25 19.214844 14.050781 19.417969 14.050781 19.664062 C 14.050781 19.910156 14.25 20.109375 14.496094 20.109375 L 14.90625 20.109375 L 15.222656 25.253906 C 14.820312 25.296875 14.414062 25.320312 14 25.320312 C 13.585938 25.320312 13.179688 25.296875 12.777344 25.253906 Z M 20.53125 23.238281 C 20.289062 23.058594 20.058594 22.855469 19.84375 22.640625 C 18.382812 21.183594 17.722656 19.117188 18.03125 17.101562 L 21.476562 20.542969 C 21.5625 20.632812 21.675781 20.675781 21.789062 20.675781 C 21.90625 20.675781 22.019531 20.632812 22.105469 20.542969 C 22.28125 20.371094 22.28125 20.085938 22.105469 19.910156 L 18.664062 16.46875 C 20.679688 16.160156 22.746094 16.820312 24.207031 18.28125 C 24.269531 18.34375 24.332031 18.410156 24.394531 18.476562 C 23.566406 20.398438 22.21875 22.042969 20.53125 23.238281 Z M 20.53125 23.238281 "/>
</g>
</svg>
