<?xml version="1.0" encoding="UTF-8"?>
<svg xmlns="http://www.w3.org/2000/svg" xmlns:xlink="http://www.w3.org/1999/xlink" width="28pt" height="28pt" viewBox="0 0 28 28" version="1.1">
<g id="surface1">
<path style=" stroke:none;fill-rule:nonzero;fill:rgb(0%,0%,0%);fill-opacity:1;" d="M 27.097656 13.09375 L 23.320312 13.09375 C 22.828125 13.09375 22.445312 13.476562 22.445312 13.96875 C 22.445312 14.460938 22.828125 14.855469 23.320312 14.855469 L 27.097656 14.855469 C 27.589844 14.855469 27.96875 14.460938 27.96875 13.96875 C 27.96875 13.476562 27.589844 13.09375 27.097656 13.09375 Z M 27.097656 13.09375 "/>
<path style=" stroke:none;fill-rule:nonzero;fill:rgb(0%,0%,0%);fill-opacity:1;" d="M 21.207031 8.03125 L 23.875 5.332031 C 24.214844 4.988281 24.226562 4.472656 23.875 4.09375 C 23.542969 3.742188 23 3.730469 22.636719 4.09375 L 19.96875 6.792969 C 19.628906 7.140625 19.605469 7.667969 19.96875 8.03125 C 20.304688 8.363281 20.875 8.367188 21.207031 8.03125 Z M 21.207031 8.03125 "/>
<path style=" stroke:none;fill-rule:nonzero;fill:rgb(0%,0%,0%);fill-opacity:1;" d="M 21.207031 19.953125 C 20.84375 19.585938 20.289062 19.585938 19.96875 19.953125 C 19.605469 20.273438 19.628906 20.851562 19.96875 21.191406 L 22.636719 23.859375 C 22.90625 24.191406 23.605469 24.191406 23.875 23.859375 C 24.238281 23.542969 24.238281 22.984375 23.875 22.621094 Z M 21.207031 19.953125 "/>
<path style=" stroke:none;fill-rule:nonzero;fill:rgb(0%,0%,0%);fill-opacity:1;" d="M 13.984375 5.558594 C 14.476562 5.558594 14.875 5.175781 14.875 4.683594 L 14.875 0.875 C 14.875 0.382812 14.476562 0 13.984375 0 C 13.492188 0 13.113281 0.382812 13.113281 0.875 L 13.113281 4.683594 C 13.113281 5.175781 13.492188 5.558594 13.984375 5.558594 Z M 13.984375 5.558594 "/>
<path style=" stroke:none;fill-rule:nonzero;fill:rgb(0%,0%,0%);fill-opacity:1;" d="M 13.984375 22.429688 C 13.492188 22.429688 13.113281 22.8125 13.113281 23.300781 L 13.113281 27.113281 C 13.113281 27.574219 13.492188 27.984375 13.984375 27.984375 C 14.476562 27.984375 14.875 27.574219 14.875 27.082031 L 14.875 23.300781 C 14.875 22.8125 14.476562 22.429688 13.984375 22.429688 Z M 13.984375 22.429688 "/>
<path style=" stroke:none;fill-rule:nonzero;fill:rgb(0%,0%,0%);fill-opacity:1;" d="M 18.777344 9.175781 C 17.453125 7.851562 15.859375 7.175781 13.984375 7.175781 C 12.113281 7.175781 10.507812 7.84375 9.175781 9.175781 C 7.859375 10.492188 7.191406 12.097656 7.191406 13.96875 C 7.191406 15.84375 7.851562 17.453125 9.175781 18.777344 C 10.5 20.105469 12.113281 20.761719 13.984375 20.761719 C 15.859375 20.761719 17.460938 20.09375 18.777344 18.777344 C 20.113281 17.449219 20.78125 15.84375 20.78125 13.96875 C 20.78125 12.097656 20.105469 10.5 18.777344 9.175781 Z M 17.558594 17.542969 C 16.574219 18.523438 15.382812 19.019531 13.984375 19.019531 C 12.605469 19.019531 11.414062 18.523438 10.429688 17.542969 C 9.445312 16.558594 8.953125 15.363281 8.953125 13.96875 C 8.953125 12.585938 9.445312 11.398438 10.429688 10.414062 C 11.414062 9.429688 12.605469 8.9375 13.984375 8.9375 C 15.382812 8.9375 16.574219 9.429688 17.558594 10.414062 C 18.542969 11.398438 19.035156 12.585938 19.035156 13.96875 C 19.035156 15.363281 18.542969 16.558594 17.558594 17.542969 Z M 17.558594 17.542969 "/>
<path style=" stroke:none;fill-rule:nonzero;fill:rgb(0%,0%,0%);fill-opacity:1;" d="M 6.808594 8.03125 C 6.984375 8.207031 7.191406 8.285156 7.429688 8.285156 C 7.636719 8.285156 7.839844 8.207031 8.046875 8.03125 C 8.367188 7.667969 8.367188 7.113281 8.046875 6.792969 L 5.351562 4.09375 C 5.03125 3.78125 4.429688 3.78125 4.113281 4.09375 C 3.746094 4.460938 3.769531 4.992188 4.113281 5.332031 Z M 6.808594 8.03125 "/>
<path style=" stroke:none;fill-rule:nonzero;fill:rgb(0%,0%,0%);fill-opacity:1;" d="M 6.777344 19.953125 L 4.113281 22.621094 C 3.746094 22.984375 3.746094 23.527344 4.113281 23.890625 C 4.445312 24.222656 5.015625 24.222656 5.351562 23.890625 L 8.046875 21.191406 C 8.390625 20.851562 8.367188 20.273438 8.046875 19.953125 C 7.683594 19.585938 7.144531 19.585938 6.777344 19.953125 Z M 6.777344 19.953125 "/>
<path style=" stroke:none;fill-rule:nonzero;fill:rgb(0%,0%,0%);fill-opacity:1;" d="M 5.570312 13.96875 C 5.570312 13.476562 5.191406 13.09375 4.699219 13.09375 L 0.890625 13.09375 C 0.398438 13.09375 0.015625 13.476562 0.015625 13.96875 C 0.015625 14.460938 0.398438 14.855469 0.890625 14.855469 L 4.699219 14.855469 C 5.191406 14.855469 5.570312 14.460938 5.570312 13.96875 Z M 5.570312 13.96875 "/>
</g>
</svg>
