<?xml version="1.0" encoding="UTF-8"?>
<svg xmlns="http://www.w3.org/2000/svg" xmlns:xlink="http://www.w3.org/1999/xlink" width="28pt" height="28pt" viewBox="0 0 28 28" version="1.1">
<g id="surface1">
<path style=" stroke:none;fill-rule:nonzero;fill:rgb(0%,0%,0%);fill-opacity:1;" d="M 27.742188 14.039062 C 27.886719 14.039062 28 13.921875 28 13.78125 C 28 13.640625 27.886719 13.523438 27.742188 13.523438 L 26.289062 13.523438 L 26.289062 12.816406 C 26.757812 12.921875 27.242188 12.976562 27.742188 12.976562 C 27.886719 12.976562 28 12.859375 28 12.71875 C 28 12.578125 27.886719 12.460938 27.742188 12.460938 C 24.371094 12.460938 21.628906 9.71875 21.628906 6.347656 C 21.628906 6.207031 21.511719 6.089844 21.371094 6.089844 L 21.128906 6.089844 L 21.128906 5.222656 C 21.128906 5.082031 21.011719 4.964844 20.871094 4.964844 C 20.730469 4.964844 20.613281 5.082031 20.613281 5.222656 L 20.613281 6.089844 L 20.371094 6.089844 C 20.230469 6.089844 20.113281 6.207031 20.113281 6.347656 C 20.113281 9.71875 17.371094 12.460938 14 12.460938 C 10.628906 12.460938 7.886719 9.71875 7.886719 6.347656 C 7.886719 6.207031 7.769531 6.089844 7.628906 6.089844 L 7.386719 6.089844 L 7.386719 5.222656 C 7.386719 5.082031 7.269531 4.964844 7.128906 4.964844 C 6.988281 4.964844 6.871094 5.082031 6.871094 5.222656 L 6.871094 6.089844 L 6.628906 6.089844 C 6.488281 6.089844 6.371094 6.207031 6.371094 6.347656 C 6.371094 9.71875 3.628906 12.460938 0.257812 12.460938 C 0.113281 12.460938 0 12.578125 0 12.71875 C 0 12.859375 0.113281 12.976562 0.257812 12.976562 C 0.757812 12.976562 1.242188 12.921875 1.710938 12.816406 L 1.710938 13.523438 L 0.257812 13.523438 C 0.113281 13.523438 0 13.640625 0 13.78125 C 0 13.921875 0.113281 14.039062 0.257812 14.039062 L 6.371094 14.039062 L 6.371094 14.585938 L 0.257812 14.585938 C 0.113281 14.585938 0 14.699219 0 14.84375 C 0 14.984375 0.113281 15.101562 0.257812 15.101562 L 6.371094 15.101562 L 6.371094 18.457031 L 6.191406 18.457031 C 6.050781 18.457031 5.933594 18.574219 5.933594 18.714844 L 5.933594 20.558594 C 5.699219 20.566406 5.464844 20.484375 5.28125 20.3125 C 4.730469 19.796875 3.863281 19.796875 3.3125 20.3125 C 2.957031 20.644531 2.402344 20.644531 2.046875 20.3125 C 1.945312 20.214844 1.78125 20.21875 1.683594 20.324219 C 1.585938 20.429688 1.59375 20.589844 1.695312 20.6875 C 2.246094 21.203125 3.113281 21.203125 3.664062 20.6875 C 4.019531 20.355469 4.574219 20.355469 4.929688 20.6875 C 5.480469 21.203125 6.347656 21.203125 6.898438 20.6875 C 7.253906 20.355469 7.808594 20.355469 8.164062 20.6875 C 8.714844 21.203125 9.582031 21.203125 10.132812 20.6875 C 10.488281 20.355469 11.042969 20.355469 11.398438 20.6875 C 11.949219 21.203125 12.816406 21.203125 13.367188 20.6875 C 13.722656 20.355469 14.277344 20.355469 14.632812 20.6875 C 15.183594 21.203125 16.050781 21.203125 16.601562 20.6875 C 16.957031 20.355469 17.511719 20.355469 17.867188 20.6875 C 18.417969 21.203125 19.285156 21.203125 19.835938 20.6875 C 20.191406 20.355469 20.746094 20.355469 21.101562 20.6875 C 21.652344 21.203125 22.519531 21.203125 23.070312 20.6875 C 23.425781 20.355469 23.980469 20.355469 24.335938 20.6875 C 24.613281 20.945312 24.964844 21.074219 25.320312 21.074219 C 25.675781 21.074219 26.027344 20.945312 26.304688 20.6875 C 26.40625 20.589844 26.414062 20.429688 26.316406 20.324219 C 26.21875 20.21875 26.054688 20.214844 25.953125 20.3125 C 25.597656 20.644531 25.042969 20.644531 24.6875 20.3125 C 24.136719 19.796875 23.269531 19.796875 22.71875 20.3125 C 22.535156 20.484375 22.300781 20.566406 22.066406 20.5625 L 22.066406 18.714844 C 22.066406 18.574219 21.949219 18.457031 21.808594 18.457031 L 21.628906 18.457031 L 21.628906 15.101562 L 27.742188 15.101562 C 27.886719 15.101562 28 14.984375 28 14.84375 C 28 14.699219 27.886719 14.585938 27.742188 14.585938 L 21.628906 14.585938 L 21.628906 14.039062 Z M 25.773438 13.523438 L 24.578125 13.523438 L 24.578125 12.171875 C 24.957031 12.378906 25.355469 12.546875 25.773438 12.679688 Z M 24.0625 11.859375 L 24.0625 13.523438 L 22.867188 13.523438 L 22.867188 10.835938 C 23.222656 11.222656 23.625 11.566406 24.0625 11.859375 Z M 22.351562 10.203125 L 22.351562 13.523438 L 21.628906 13.523438 L 21.628906 8.90625 C 21.820312 9.367188 22.066406 9.800781 22.351562 10.203125 Z M 20.113281 14.585938 L 7.886719 14.585938 L 7.886719 14.039062 L 20.113281 14.039062 Z M 6.886719 6.605469 L 7.371094 6.605469 L 7.371094 18.457031 L 6.886719 18.457031 Z M 15.96875 13.523438 L 15.96875 12.679688 C 16.386719 12.546875 16.785156 12.378906 17.164062 12.171875 L 17.164062 13.523438 Z M 15.453125 13.523438 L 14.257812 13.523438 L 14.257812 12.972656 C 14.667969 12.953125 15.066406 12.902344 15.453125 12.816406 Z M 13.742188 13.523438 L 12.546875 13.523438 L 12.546875 12.816406 C 12.933594 12.902344 13.332031 12.953125 13.742188 12.972656 Z M 12.03125 13.523438 L 10.835938 13.523438 L 10.835938 12.171875 C 11.214844 12.378906 11.613281 12.546875 12.03125 12.679688 Z M 20.628906 6.605469 L 21.113281 6.605469 L 21.113281 18.457031 L 20.628906 18.457031 Z M 20.113281 13.523438 L 19.390625 13.523438 L 19.390625 10.203125 C 19.675781 9.800781 19.921875 9.367188 20.113281 8.90625 Z M 18.875 10.835938 L 18.875 13.523438 L 17.679688 13.523438 L 17.679688 11.859375 C 18.117188 11.566406 18.519531 11.222656 18.875 10.835938 Z M 10.320312 11.859375 L 10.320312 13.523438 L 9.125 13.523438 L 9.125 10.835938 C 9.480469 11.222656 9.882812 11.566406 10.320312 11.859375 Z M 8.609375 10.203125 L 8.609375 13.523438 L 7.886719 13.523438 L 7.886719 8.90625 C 8.078125 9.367188 8.324219 9.800781 8.609375 10.203125 Z M 5.132812 10.835938 L 5.132812 13.523438 L 3.9375 13.523438 L 3.9375 11.859375 C 4.375 11.566406 4.777344 11.222656 5.132812 10.835938 Z M 2.226562 12.679688 C 2.644531 12.546875 3.042969 12.378906 3.421875 12.171875 L 3.421875 13.523438 L 2.226562 13.523438 Z M 5.648438 13.523438 L 5.648438 10.203125 C 5.933594 9.800781 6.179688 9.367188 6.371094 8.90625 L 6.371094 13.523438 Z M 6.546875 20.3125 C 6.515625 20.339844 6.484375 20.367188 6.449219 20.390625 L 6.449219 18.972656 L 7.808594 18.972656 L 7.808594 19.953125 C 7.367188 19.867188 6.894531 19.984375 6.546875 20.3125 Z M 21.453125 20.3125 C 21.105469 19.984375 20.632812 19.867188 20.191406 19.953125 L 20.191406 18.972656 L 21.550781 18.972656 L 21.550781 20.390625 C 21.515625 20.367188 21.484375 20.339844 21.453125 20.3125 Z M 19.933594 18.457031 C 19.792969 18.457031 19.675781 18.574219 19.675781 18.714844 L 19.675781 20.160156 C 19.609375 20.207031 19.542969 20.253906 19.484375 20.3125 C 19.128906 20.644531 18.574219 20.644531 18.21875 20.3125 C 17.667969 19.796875 16.800781 19.796875 16.25 20.3125 C 15.894531 20.644531 15.339844 20.644531 14.984375 20.3125 C 14.433594 19.796875 13.566406 19.796875 13.015625 20.3125 C 12.660156 20.644531 12.105469 20.644531 11.75 20.3125 C 11.199219 19.796875 10.332031 19.796875 9.78125 20.3125 C 9.425781 20.644531 8.871094 20.644531 8.515625 20.3125 C 8.457031 20.253906 8.390625 20.207031 8.324219 20.160156 L 8.324219 18.714844 C 8.324219 18.574219 8.207031 18.457031 8.066406 18.457031 L 7.886719 18.457031 L 7.886719 15.101562 L 20.113281 15.101562 L 20.113281 18.457031 Z M 19.933594 18.457031 "/>
<path style=" stroke:none;fill-rule:nonzero;fill:rgb(0%,0%,0%);fill-opacity:1;" d="M 25.953125 22.269531 C 25.597656 22.601562 25.042969 22.601562 24.6875 22.269531 C 24.136719 21.753906 23.269531 21.753906 22.71875 22.269531 C 22.363281 22.601562 21.808594 22.601562 21.453125 22.269531 C 20.902344 21.753906 20.035156 21.753906 19.484375 22.269531 C 19.128906 22.601562 18.574219 22.601562 18.21875 22.269531 C 17.667969 21.753906 16.800781 21.753906 16.25 22.269531 C 15.894531 22.601562 15.339844 22.601562 14.984375 22.269531 C 14.433594 21.753906 13.566406 21.753906 13.015625 22.269531 C 12.660156 22.601562 12.105469 22.601562 11.75 22.269531 C 11.199219 21.753906 10.332031 21.753906 9.78125 22.269531 C 9.425781 22.601562 8.871094 22.601562 8.515625 22.269531 C 7.964844 21.753906 7.097656 21.753906 6.546875 22.269531 C 6.191406 22.601562 5.636719 22.601562 5.28125 22.269531 C 4.730469 21.753906 3.863281 21.753906 3.3125 22.269531 C 2.957031 22.601562 2.402344 22.601562 2.046875 22.269531 C 1.945312 22.171875 1.78125 22.179688 1.683594 22.28125 C 1.585938 22.386719 1.589844 22.550781 1.695312 22.648438 C 2.246094 23.164062 3.113281 23.164062 3.664062 22.648438 C 4.019531 22.3125 4.574219 22.3125 4.929688 22.648438 C 5.480469 23.164062 6.347656 23.164062 6.898438 22.648438 C 7.253906 22.3125 7.808594 22.3125 8.164062 22.648438 C 8.714844 23.164062 9.582031 23.164062 10.132812 22.648438 C 10.488281 22.3125 11.042969 22.3125 11.398438 22.648438 C 11.949219 23.164062 12.816406 23.164062 13.367188 22.648438 C 13.722656 22.3125 14.277344 22.3125 14.632812 22.648438 C 15.183594 23.164062 16.050781 23.164062 16.601562 22.648438 C 16.957031 22.3125 17.511719 22.3125 17.867188 22.648438 C 18.417969 23.164062 19.285156 23.164062 19.835938 22.648438 C 20.191406 22.3125 20.746094 22.3125 21.101562 22.648438 C 21.652344 23.164062 22.519531 23.164062 23.070312 22.648438 C 23.425781 22.3125 23.980469 22.3125 24.335938 22.648438 C 24.609375 22.90625 24.964844 23.035156 25.320312 23.035156 C 25.675781 23.035156 26.027344 22.90625 26.304688 22.648438 C 26.40625 22.550781 26.414062 22.386719 26.316406 22.28125 C 26.21875 22.179688 26.054688 22.175781 25.953125 22.269531 Z M 25.953125 22.269531 "/>
</g>
</svg>
